0
SECTION
2
ENTITIES
0
LINE
8
0
10
71.8387218
20
-0.838755177
11
71.8526701
21
-0.960421215
0
LINE
8
0
10
71.8526701
20
-0.960421215
11
71.8909195
21
-1.24601179
0
LINE
8
0
10
71.8909195
20
-1.24601179
11
71.9259194
21
-1.51377351
0
LINE
8
0
10
71.9259194
20
-1.51377351
11
71.9364648
21
-1.64802003
0
LINE
8
0
10
71.9364648
20
-1.64802003
11
71.9488224
21
-1.80916825
0
LINE
8
0
10
71.9488224
20
-1.80916825
11
71.9683661
21
-2.03262446
0
LINE
8
0
10
71.9683661
20
-2.03262446
11
71.9825086
21
-2.19806991
0
LINE
8
0
10
71.9825086
20
-2.19806991
11
71.9884768
21
-2.40497831
0
LINE
8
0
10
71.9884768
20
-2.40497831
11
72
21
-2.7859984
0
LINE
8
0
10
72
20
-2.7859984
11
72
21
-3.77863499
0
LINE
8
0
10
72
20
-3.77863499
11
72
21
-6.50228344
0
LINE
8
0
10
72
20
-6.50228344
11
72
21
-7.6730823
0
LINE
8
0
10
72
20
-7.6730823
11
72
21
-8.94157312
0
LINE
8
0
10
72
20
-8.94157312
11
72
21
-9.85506127
0
LINE
8
0
10
72
20
-9.85506127
11
72
21
-10.3838275
0
LINE
8
0
10
72
20
-10.3838275
11
72
21
-10.844565
0
LINE
8
0
10
72
20
-10.844565
11
72
21
-11.1977844
0
LINE
8
0
10
72
20
-11.1977844
11
72
21
-11.4597148
0
LINE
8
0
10
72
20
-11.4597148
11
72
21
-11.7378335
0
LINE
8
0
10
72
20
-11.7378335
11
72
21
-11.7884242
0
LINE
8
0
10
72
20
-11.7884242
11
72
21
-13.5
0
LINE
8
0
10
72
20
-13.5
11
71.9782714
21
-13.665037
0
LINE
8
0
10
71.9782714
20
-13.665037
11
71.91481
21
-14.14705
0
LINE
8
0
10
71.91481
20
-14.14705
11
71.8511086
21
-14.3008389
0
LINE
8
0
10
71.8511086
20
-14.3008389
11
71.66506
21
-14.75
0
LINE
8
0
10
71.66506
20
-14.75
11
71.5637269
21
-14.8820628
0
LINE
8
0
10
71.5637269
20
-14.8820628
11
71.26777
21
-15.26777
0
LINE
8
0
10
71.26777
20
-15.26777
11
71.1357072
21
-15.3691031
0
LINE
8
0
10
71.1357072
20
-15.3691031
11
70.75
21
-15.66506
0
LINE
8
0
10
70.75
20
-15.66506
11
70.5962111
21
-15.7287614
0
LINE
8
0
10
70.5962111
20
-15.7287614
11
70.14705
21
-15.91481
0
LINE
8
0
10
70.14705
20
-15.91481
11
69.665037
21
-15.9782714
0
LINE
8
0
10
69.665037
20
-15.9782714
11
69.5
21
-16
0
LINE
8
0
10
69.5
20
-16
11
68.2376404
21
-16
0
LINE
8
0
10
68.2376404
20
-16
11
58.8
21
-16
0
LINE
8
0
10
58.8
20
-16
11
58.749574
21
-15.998961
0
LINE
8
0
10
58.749574
20
-15.998961
11
58.73836
21
-15.99873
0
LINE
8
0
10
58.73836
20
-15.99873
11
58.6881091
21
-15.9956286
0
LINE
8
0
10
58.6881091
20
-15.9956286
11
58.67679
21
-15.99493
0
LINE
8
0
10
58.67679
20
-15.99493
11
58.6655587
21
-15.9937714
0
LINE
8
0
10
58.6655587
20
-15.9937714
11
58.5796389
21
-15.9780527
0
LINE
8
0
10
58.5796389
20
-15.9780527
11
58.4813159
21
-15.9609717
0
LINE
8
0
10
58.4813159
20
-15.9609717
11
58.464551
21
-15.9591838
0
LINE
8
0
10
58.464551
20
-15.9591838
11
58.3400325
21
-15.922524
0
LINE
8
0
10
58.3400325
20
-15.922524
11
58.0804416
21
-15.814998
0
LINE
8
0
10
58.0804416
20
-15.814998
11
57.9567392
21
-15.7280109
0
LINE
8
0
10
57.9567392
20
-15.7280109
11
57.7419096
21
-15.5631648
0
LINE
8
0
10
57.7419096
20
-15.5631648
11
57.6876312
21
-15.4994764
0
LINE
8
0
10
57.6876312
20
-15.4994764
11
57.5259696
21
-15.2887969
0
LINE
8
0
10
57.5259696
20
-15.2887969
11
57.4784769
21
-15.2062227
0
LINE
8
0
10
57.4784769
20
-15.2062227
11
57.378957
21
-14.9659604
0
LINE
8
0
10
57.378957
20
-14.9659604
11
57.3456718
21
-14.8654676
0
LINE
8
0
10
57.3456718
20
-14.8654676
11
57.33058
21
-14.7779737
0
LINE
8
0
10
57.33058
20
-14.7779737
11
57.3
21
-14.5
0
LINE
8
0
10
57.3
20
-14.5
11
57.3
21
-14.2191546
0
LINE
8
0
10
57.3
20
-14.2191546
11
57.3
21
-14.17729
0
LINE
8
0
10
57.3
20
-14.17729
11
57.3
21
-11.7826007
0
LINE
8
0
10
57.3
20
-11.7826007
11
57.3
21
-11.5716318
0
LINE
8
0
10
57.3
20
-11.5716318
11
57.3
21
-11.301303
0
LINE
8
0
10
57.3
20
-11.301303
11
57.3
21
-11.0695028
0
LINE
8
0
10
57.3
20
-11.0695028
11
57.3
21
-10.6963553
0
LINE
8
0
10
57.3
20
-10.6963553
11
57.3
21
-10.1819587
0
LINE
8
0
10
57.3
20
-10.1819587
11
57.3
21
-9.49584085
0
LINE
8
0
10
57.3
20
-9.49584085
11
57.3
21
-8.61138969
0
LINE
8
0
10
57.3
20
-8.61138969
11
57.3
21
-7.51879093
0
LINE
8
0
10
57.3
20
-7.51879093
11
57.3
21
-6.24593268
0
LINE
8
0
10
57.3
20
-6.24593268
11
57.3
21
-4.88200576
0
LINE
8
0
10
57.3
20
-4.88200576
11
57.3
21
-3.58606326
0
LINE
8
0
10
57.3
20
-3.58606326
11
57.3
21
4.33798311
0
LINE
8
0
10
57.3
20
4.33798311
11
57.3
21
5.02527539
0
LINE
8
0
10
57.3
20
5.02527539
11
57.3
21
5.91326795
0
LINE
8
0
10
57.3
20
5.91326795
11
57.3
21
6.87202086
0
LINE
8
0
10
57.3
20
6.87202086
11
57.3
21
7.7739915
0
LINE
8
0
10
57.3
20
7.7739915
11
57.3
21
8.53540366
0
LINE
8
0
10
57.3
20
8.53540366
11
57.3
21
9.1248173
0
LINE
8
0
10
57.3
20
9.1248173
11
57.3
21
10
0
LINE
8
0
10
57.3
20
10
11
60.0672897
21
10
0
LINE
8
0
10
60.0672897
20
10
11
62
21
10
0
LINE
8
0
10
62
20
10
11
62
21
13.347704
0
LINE
8
0
10
62
20
13.347704
11
62
21
13.6882439
0
LINE
8
0
10
62
20
13.6882439
11
62
21
14.0849556
0
LINE
8
0
10
62
20
14.0849556
11
62
21
14.5029338
0
LINE
8
0
10
62
20
14.5029338
11
62
21
14.8896804
0
LINE
8
0
10
62
20
14.8896804
11
62
21
15.1858078
0
LINE
8
0
10
62
20
15.1858078
11
62
21
16.6739126
0
LINE
8
0
10
62
20
16.6739126
11
62
21
16.9703227
0
LINE
8
0
10
62
20
16.9703227
11
62
21
17.3730025
0
LINE
8
0
10
62
20
17.3730025
11
62
21
22.4
0
LINE
8
0
10
62
20
22.4
11
62.3627724
21
22.7266418
0
LINE
8
0
10
62.3627724
20
22.7266418
11
62.88849
21
23.2
0
LINE
8
0
10
62.88849
20
23.2
11
63.4621635
21
23.2
0
LINE
8
0
10
63.4621635
20
23.2
11
64.464596
21
23.2
0
LINE
8
0
10
64.464596
20
23.2
11
64.9
21
23.2
0
LINE
8
0
10
64.9
20
23.2
11
64.9
21
24.9129055
0
LINE
8
0
10
64.9
20
24.9129055
11
64.9005944
21
24.9234251
0
LINE
8
0
10
64.9005944
20
24.9234251
11
64.9139741
21
25.0979344
0
LINE
8
0
10
64.9139741
20
25.0979344
11
64.916675
21
25.1310031
0
LINE
8
0
10
64.916675
20
25.1310031
11
64.91704
21
25.1354724
0
LINE
8
0
10
64.91704
20
25.1354724
11
64.960392
21
25.3041975
0
LINE
8
0
10
64.960392
20
25.3041975
11
64.96699
21
25.3298782
0
LINE
8
0
10
64.96699
20
25.3298782
11
65.0282886
21
25.4586696
0
LINE
8
0
10
65.0282886
20
25.4586696
11
65.04645
21
25.4968266
0
LINE
8
0
10
65.04645
20
25.4968266
11
65.1182871
21
25.5857
0
LINE
8
0
10
65.1182871
20
25.5857
11
65.15
21
25.6249325
0
LINE
8
0
10
65.15
20
25.6249325
11
65.2270912
21
25.6764128
0
LINE
8
0
10
65.2270912
20
25.6764128
11
65.27059
21
25.7054624
0
LINE
8
0
10
65.27059
20
25.7054624
11
65.3212982
21
25.7171749
0
LINE
8
0
10
65.3212982
20
25.7171749
11
65.4
21
25.7339035
0
LINE
8
0
10
65.4
20
25.7339035
11
68.1940103
21
25.7360893
0
LINE
8
0
10
68.1940103
20
25.7360893
11
72
21
25.7360893
0
LINE
8
0
10
72
20
25.7360893
11
72
21
24.7282211
0
LINE
8
0
10
72
20
24.7282211
11
72
21
19.4223007
0
LINE
8
0
10
72
20
19.4223007
11
72
21
17.4310042
0
LINE
8
0
10
72
20
17.4310042
11
64.9038556
21
17.4310042
0
LINE
8
0
10
64.9038556
20
17.4310042
11
64.2
21
17.4310042
0
LINE
8
0
10
64.2
20
17.4310042
11
64.2
21
17.3020308
0
LINE
8
0
10
64.2
20
17.3020308
11
64.2
21
17.1730564
0
LINE
8
0
10
64.2
20
17.1730564
11
64.2
21
17.0897557
0
LINE
8
0
10
64.2
20
17.0897557
11
64.2
21
16.6345059
0
LINE
8
0
10
64.2
20
16.6345059
11
64.2
21
16.4655962
0
LINE
8
0
10
64.2
20
16.4655962
11
64.2
21
16.2370089
0
LINE
8
0
10
64.2
20
16.2370089
11
64.2
21
16.0561275
0
LINE
8
0
10
64.2
20
16.0561275
11
64.2
21
15.8909258
0
LINE
8
0
10
64.2
20
15.8909258
11
64.2
21
15.724443
0
LINE
8
0
10
64.2
20
15.724443
11
64.2
21
15.5435493
0
LINE
8
0
10
64.2
20
15.5435493
11
64.2
21
15.3084869
0
LINE
8
0
10
64.2
20
15.3084869
11
64.2
21
15.1413535
0
LINE
8
0
10
64.2
20
15.1413535
11
64.2
21
14.6641373
0
LINE
8
0
10
64.2
20
14.6641373
11
64.2
21
14.5908934
0
LINE
8
0
10
64.2
20
14.5908934
11
64.2
21
14.3975199
0
LINE
8
0
10
64.2
20
14.3975199
11
66.9555193
21
14.3921146
0
LINE
8
0
10
66.9555193
20
14.3921146
11
72
21
14.4009939
0
LINE
8
0
10
72
20
14.4009939
11
72
21
13.0468038
0
LINE
8
0
10
72
20
13.0468038
11
72
21
12.2020678
0
LINE
8
0
10
72
20
12.2020678
11
72
21
11.1548574
0
LINE
8
0
10
72
20
11.1548574
11
71.9784886
21
10.4338623
0
LINE
8
0
10
71.9784886
20
10.4338623
11
71.9768947
21
10.3746935
0
LINE
8
0
10
71.9768947
20
10.3746935
11
71.9757787
21
10.3320902
0
LINE
8
0
10
71.9757787
20
10.3320902
11
71.9421732
21
9.91737255
0
LINE
8
0
10
71.9421732
20
9.91737255
11
71.9004028
21
9.40209993
0
LINE
8
0
10
71.9004028
20
9.40209993
11
71.8850604
21
9.29151524
0
LINE
8
0
10
71.8850604
20
9.29151524
11
71.7714121
21
8.34730709
0
LINE
8
0
10
71.7714121
20
8.34730709
11
71.7588055
21
8.27498265
0
LINE
8
0
10
71.7588055
20
8.27498265
11
71.7237699
21
8.03549199
0
LINE
8
0
10
71.7237699
20
8.03549199
11
71.6231719
21
7.34901314
0
LINE
8
0
10
71.6231719
20
7.34901314
11
71.5903337
21
7.06867036
0
LINE
8
0
10
71.5903337
20
7.06867036
11
71.4994184
21
6.49254371
0
LINE
8
0
10
71.4994184
20
6.49254371
11
71.4347328
21
5.94224835
0
LINE
8
0
10
71.4347328
20
5.94224835
11
71.40463
21
5.68864878
0
LINE
8
0
10
71.40463
20
5.68864878
11
71.3699796
21
5.24206925
0
LINE
8
0
10
71.3699796
20
5.24206925
11
71.337312
21
4.92373904
0
LINE
8
0
10
71.337312
20
4.92373904
11
71.3317702
21
4.81061251
0
LINE
8
0
10
71.3317702
20
4.81061251
11
71.2994679
21
4.18671315
0
LINE
8
0
10
71.2994679
20
4.18671315
11
71.3001027
21
3.95655812
0
LINE
8
0
10
71.3001027
20
3.95655812
11
71.2997554
21
3.46794134
0
LINE
8
0
10
71.2997554
20
3.46794134
11
71.3123972
21
3.2321955
0
LINE
8
0
10
71.3123972
20
3.2321955
11
71.3358239
21
2.7582042
0
LINE
8
0
10
71.3358239
20
2.7582042
11
71.3531449
21
2.59056695
0
LINE
8
0
10
71.3531449
20
2.59056695
11
71.4064606
21
2.04885509
0
LINE
8
0
10
71.4064606
20
2.04885509
11
71.4132677
21
2.00404692
0
LINE
8
0
10
71.4132677
20
2.00404692
11
71.4331184
21
1.86839649
0
LINE
8
0
10
71.4331184
20
1.86839649
11
71.480846
21
1.47081728
0
LINE
8
0
10
71.480846
20
1.47081728
11
71.4969381
21
1.33158493
0
LINE
8
0
10
71.4969381
20
1.33158493
11
71.5537319
21
0.969788317
0
LINE
8
0
10
71.5537319
20
0.969788317
11
71.6102835
21
0.597827698
0
LINE
8
0
10
71.6102835
20
0.597827698
11
71.6319156
21
0.485245702
0
LINE
8
0
10
71.6319156
20
0.485245702
11
71.6649816
21
0.308172875
0
LINE
8
0
10
71.6649816
20
0.308172875
11
71.7052293
21
0.0298326017
0
LINE
8
0
10
71.7052293
20
0.0298326017
11
71.7322371
21
-0.162404017
0
LINE
8
0
10
71.7322371
20
-0.162404017
11
71.7741386
21
-0.409650425
0
LINE
8
0
10
71.7741386
20
-0.409650425
11
71.8231777
21
-0.706695028
0
LINE
8
0
10
71.8231777
20
-0.706695028
11
71.8387218
21
-0.838755177
0
LINE
8
0
10
71.8387218
20
-0.838755177
11
71.8387218
21
-0.838755177
0
LINE
8
0
10
29
20
25.78463
11
30.2
21
23.69249
0
LINE
8
0
10
30.2
20
23.69249
11
30.2
21
15
0
LINE
8
0
10
30.2
20
15
11
30.2
21
12.65094
0
LINE
8
0
10
30.2
20
12.65094
11
30.2
21
12.6497988
0
LINE
8
0
10
30.2
20
12.6497988
11
30.2
21
12.39302
0
LINE
8
0
10
30.2
20
12.39302
11
30.2
21
12.3923252
0
LINE
8
0
10
30.2
20
12.3923252
11
30.2
21
12.13557
0
LINE
8
0
10
30.2
20
12.13557
11
30.2
21
12.1344716
0
LINE
8
0
10
30.2
20
12.1344716
11
30.2
21
11.89597
0
LINE
8
0
10
30.2
20
11.89597
11
30.2
21
11.8939472
0
LINE
8
0
10
30.2
20
11.8939472
11
30.2
21
11.69043
0
LINE
8
0
10
30.2
20
11.69043
11
30.2
21
11.6876091
0
LINE
8
0
10
30.2
20
11.6876091
11
30.2
21
11.53281
0
LINE
8
0
10
30.2
20
11.53281
11
30.2
21
11.4945267
0
LINE
8
0
10
30.2
20
11.4945267
11
30.2
21
10
0
LINE
8
0
10
30.2
20
10
11
30.8376518
21
10
0
LINE
8
0
10
30.8376518
20
10
11
35.2
21
10
0
LINE
8
0
10
35.2
20
10
11
35.2
21
9.49122858
0
LINE
8
0
10
35.2
20
9.49122858
11
35.2
21
6.49858294
0
LINE
8
0
10
35.2
20
6.49858294
11
35.2
21
5.57555246
0
LINE
8
0
10
35.2
20
5.57555246
11
35.2
21
4.47854241
0
LINE
8
0
10
35.2
20
4.47854241
11
35.2
21
3.27999935
0
LINE
8
0
10
35.2
20
3.27999935
11
35.2
21
2.11538326
0
LINE
8
0
10
35.2
20
2.11538326
11
35.2
21
1.15749054
0
LINE
8
0
10
35.2
20
1.15749054
11
35.2
21
-6.42379822
0
LINE
8
0
10
35.2
20
-6.42379822
11
35.2
21
-7.37056796
0
LINE
8
0
10
35.2
20
-7.37056796
11
35.2
21
-8.45045226
0
LINE
8
0
10
35.2
20
-8.45045226
11
35.2
21
-9.51229129
0
LINE
8
0
10
35.2
20
-9.51229129
11
35.2
21
-10.4482939
0
LINE
8
0
10
35.2
20
-10.4482939
11
35.2
21
-11.2088916
0
LINE
8
0
10
35.2
20
-11.2088916
11
35.2
21
-11.7895346
0
LINE
8
0
10
35.2
20
-11.7895346
11
35.2
21
-12.209993
0
LINE
8
0
10
35.2
20
-12.209993
11
35.2
21
-12.4984083
0
LINE
8
0
10
35.2
20
-12.4984083
11
35.2
21
-12.6824799
0
LINE
8
0
10
35.2
20
-12.6824799
11
35.2
21
-12.78583
0
LINE
8
0
10
35.2
20
-12.78583
11
35.2
21
-13.5
0
LINE
8
0
10
35.2
20
-13.5
11
35.1984653
21
-13.5312348
0
LINE
8
0
10
35.1984653
20
-13.5312348
11
35.1844885
21
-13.6178155
0
LINE
8
0
10
35.1844885
20
-13.6178155
11
35.1637367
21
-13.7754334
0
LINE
8
0
10
35.1637367
20
-13.7754334
11
35.1567536
21
-13.9165409
0
LINE
8
0
10
35.1567536
20
-13.9165409
11
35.1360085
21
-14.0561388
0
LINE
8
0
10
35.1360085
20
-14.0561388
11
35.0559563
21
-14.3204364
0
LINE
8
0
10
35.0559563
20
-14.3204364
11
34.9460476
21
-14.5857795
0
LINE
8
0
10
34.9460476
20
-14.5857795
11
34.8181169
21
-14.8254926
0
LINE
8
0
10
34.8181169
20
-14.8254926
11
34.6367087
21
-15.0619137
0
LINE
8
0
10
34.6367087
20
-15.0619137
11
34.46777
21
-15.26777
0
LINE
8
0
10
34.46777
20
-15.26777
11
34.2785964
21
-15.4230178
0
LINE
8
0
10
34.2785964
20
-15.4230178
11
34.0193746
21
-15.6219212
0
LINE
8
0
10
34.0193746
20
-15.6219212
11
33.8106237
21
-15.7337953
0
LINE
8
0
10
33.8106237
20
-15.7337953
11
33.4942056
21
-15.86486
0
LINE
8
0
10
33.4942056
20
-15.86486
11
33.2751109
21
-15.9315846
0
LINE
8
0
10
33.2751109
20
-15.9315846
11
33.1015404
21
-15.9604494
0
LINE
8
0
10
33.1015404
20
-15.9604494
11
32.7
21
-16
0
LINE
8
0
10
32.7
20
-16
11
32.2791434
21
-16
0
LINE
8
0
10
32.2791434
20
-16
11
30.7
21
-16
0
LINE
8
0
10
30.7
20
-16
11
30.6419178
21
-15.9942791
0
LINE
8
0
10
30.6419178
20
-15.9942791
11
30.5490217
21
-15.9801223
0
LINE
8
0
10
30.5490217
20
-15.9801223
11
30.1802702
21
-15.9444983
0
LINE
8
0
10
30.1802702
20
-15.9444983
11
29.7949769
21
-15.8272444
0
LINE
8
0
10
29.7949769
20
-15.8272444
11
29.6943355
21
-15.7855574
0
LINE
8
0
10
29.6943355
20
-15.7855574
11
29.329545
21
-15.5901582
0
LINE
8
0
10
29.329545
20
-15.5901582
11
29.2606915
21
-15.5373262
0
LINE
8
0
10
29.2606915
20
-15.5373262
11
28.93223
21
-15.26777
0
LINE
8
0
10
28.93223
20
-15.26777
11
28.6439339
21
-14.9164734
0
LINE
8
0
10
28.6439339
20
-14.9164734
11
28.615049
21
-14.8788292
0
LINE
8
0
10
28.615049
20
-14.8788292
11
28.3976184
21
-14.4715496
0
LINE
8
0
10
28.3976184
20
-14.4715496
11
28.3849817
21
-14.4410421
0
LINE
8
0
10
28.3849817
20
-14.4410421
11
28.2493942
21
-13.9935374
0
LINE
8
0
10
28.2493942
20
-13.9935374
11
28.2144397
21
-13.7582278
0
LINE
8
0
10
28.2144397
20
-13.7582278
11
28.21204
21
-13.74504
0
LINE
8
0
10
28.21204
20
-13.74504
11
28.2118424
21
-13.7410182
0
LINE
8
0
10
28.2118424
20
-13.7410182
11
28.2
21
-13.5
0
LINE
8
0
10
28.2
20
-13.5
11
28.2
21
-13.4115789
0
LINE
8
0
10
28.2
20
-13.4115789
11
28.2
21
-13.3954087
0
LINE
8
0
10
28.2
20
-13.3954087
11
28.2
21
-13.3664855
0
LINE
8
0
10
28.2
20
-13.3664855
11
28.2
21
-13.3189656
0
LINE
8
0
10
28.2
20
-13.3189656
11
28.2
21
-13.244086
0
LINE
8
0
10
28.2
20
-13.244086
11
28.2
21
-13.1291669
0
LINE
8
0
10
28.2
20
-13.1291669
11
28.2
21
-12.9575603
0
LINE
8
0
10
28.2
20
-12.9575603
11
28.2
21
-12.71276
0
LINE
8
0
10
28.2
20
-12.71276
11
28.2
21
-12.3933264
0
LINE
8
0
10
28.2
20
-12.3933264
11
28.2
21
-12.0417703
0
LINE
8
0
10
28.2
20
-12.0417703
11
28.2
21
-11.7591412
0
LINE
8
0
10
28.2
20
-11.7591412
11
28.2
21
8.07460643
0
LINE
8
0
10
28.2
20
8.07460643
11
28.2
21
8.36648734
0
LINE
8
0
10
28.2
20
8.36648734
11
28.2
21
8.77273366
0
LINE
8
0
10
28.2
20
8.77273366
11
28.2
21
9.16494486
0
LINE
8
0
10
28.2
20
9.16494486
11
28.2
21
9.47854065
0
LINE
8
0
10
28.2
20
9.47854065
11
28.2
21
9.70634188
0
LINE
8
0
10
28.2
20
9.70634188
11
28.2
21
10.2275356
0
LINE
8
0
10
28.2
20
10.2275356
11
28.2
21
12.0974965
0
LINE
8
0
10
28.2
20
12.0974965
11
28.2
21
12.3692912
0
LINE
8
0
10
28.2
20
12.3692912
11
28.2
21
15
0
LINE
8
0
10
28.2
20
15
11
28.2
21
16.91836
0
LINE
8
0
10
28.2
20
16.91836
11
13.8
21
16.91836
0
LINE
8
0
10
13.8
20
16.91836
11
2.4
21
16.9183542
0
LINE
8
0
10
2.4
20
16.9183542
11
2.4
21
24.656157
0
LINE
8
0
10
2.4
20
24.656157
11
2.4
21
28.6850142
0
LINE
8
0
10
2.4
20
28.6850142
11
2.4
21
33.5452371
0
LINE
8
0
10
2.4
20
33.5452371
11
2.4
21
35.8625042
0
LINE
8
0
10
2.4
20
35.8625042
11
2.4
21
36.0331436
0
LINE
8
0
10
2.4
20
36.0331436
11
2.4
21
36.2716124
0
LINE
8
0
10
2.4
20
36.2716124
11
2.4
21
40.191511
0
LINE
8
0
10
2.4
20
40.191511
11
2.4
21
40.4481304
0
LINE
8
0
10
2.4
20
40.4481304
11
2.4
21
40.788902
0
LINE
8
0
10
2.4
20
40.788902
11
2.4
21
41.1999193
0
LINE
8
0
10
2.4
20
41.1999193
11
2.4
21
42.7535809
0
LINE
8
0
10
2.4
20
42.7535809
11
2.4
21
42.8482692
0
LINE
8
0
10
2.4
20
42.8482692
11
2.4
21
43.2965884
0
LINE
8
0
10
2.4
20
43.2965884
11
2.4
21
43.39007
0
LINE
8
0
10
2.4
20
43.39007
11
2.4
21
43.4827994
0
LINE
8
0
10
2.4
20
43.4827994
11
2.4
21
43.9535078
0
LINE
8
0
10
2.4
20
43.9535078
11
2.4
21
47.7042234
0
LINE
8
0
10
2.4
20
47.7042234
11
2.4
21
48.2
0
LINE
8
0
10
2.4
20
48.2
11
2.41126206
21
48.2855446
0
LINE
8
0
10
2.41126206
20
48.2855446
11
2.468148
21
48.71764
0
LINE
8
0
10
2.468148
20
48.71764
11
2.50116689
21
48.7973543
0
LINE
8
0
10
2.50116689
20
48.7973543
11
2.667949
21
49.2
0
LINE
8
0
10
2.667949
20
49.2
11
2.72047438
21
49.2684519
0
LINE
8
0
10
2.72047438
20
49.2684519
11
2.985786
21
49.61421
0
LINE
8
0
10
2.985786
20
49.61421
11
3.05423854
21
49.6667359
0
LINE
8
0
10
3.05423854
20
49.6667359
11
3.4
21
49.93205
0
LINE
8
0
10
3.4
20
49.93205
11
3.4797146
21
49.9650687
0
LINE
8
0
10
3.4797146
20
49.9650687
11
3.882362
21
50.13185
0
LINE
8
0
10
3.882362
20
50.13185
11
3.96790627
21
50.1431124
0
LINE
8
0
10
3.96790627
20
50.1431124
11
4.4
21
50.2
0
LINE
8
0
10
4.4
20
50.2
11
6.85728787
21
50.2
0
LINE
8
0
10
6.85728787
20
50.2
11
7.11131632
21
50.2
0
LINE
8
0
10
7.11131632
20
50.2
11
7.45355051
21
50.2
0
LINE
8
0
10
7.45355051
20
50.2
11
7.88668145
21
50.2
0
LINE
8
0
10
7.88668145
20
50.2
11
8.39366528
21
50.2
0
LINE
8
0
10
8.39366528
20
50.2
11
8.92239755
21
50.2
0
LINE
8
0
10
8.92239755
20
50.2
11
9.37980361
21
50.2
0
LINE
8
0
10
9.37980361
20
50.2
11
11.2943452
21
50.2
0
LINE
8
0
10
11.2943452
20
50.2
11
11.4071858
21
50.2
0
LINE
8
0
10
11.4071858
20
50.2
11
11.5961393
21
50.2
0
LINE
8
0
10
11.5961393
20
50.2
11
11.8194545
21
50.2
0
LINE
8
0
10
11.8194545
20
50.2
11
12.0330001
21
50.2
0
LINE
8
0
10
12.0330001
20
50.2
11
12.2086868
21
50.2
0
LINE
8
0
10
12.2086868
20
50.2
11
12.4726324
21
50.2
0
LINE
8
0
10
12.4726324
20
50.2
11
12.6483922
21
50.2
0
LINE
8
0
10
12.6483922
20
50.2
11
12.7724557
21
50.2
0
LINE
8
0
10
12.7724557
20
50.2
11
14.0069669
21
50.2
0
LINE
8
0
10
14.0069669
20
50.2
11
14.1889351
21
50.2
0
LINE
8
0
10
14.1889351
20
50.2
11
16
21
50.2
0
LINE
8
0
10
16
20
50.2
11
16
21
49.3584158
0
LINE
8
0
10
16
20
49.3584158
11
16
21
45.2
0
LINE
8
0
10
16
20
45.2
11
16
21
44.0403719
0
LINE
8
0
10
16
20
44.0403719
11
16
21
43.8903682
0
LINE
8
0
10
16
20
43.8903682
11
16
21
42.6621336
0
LINE
8
0
10
16
20
42.6621336
11
16
21
42.5638515
0
LINE
8
0
10
16
20
42.5638515
11
16
21
41.204241
0
LINE
8
0
10
16
20
41.204241
11
16
21
41.2004247
0
LINE
8
0
10
16
20
41.2004247
11
16
21
41.1613817
0
LINE
8
0
10
16
20
41.1613817
11
17.7487319
21
41.1613817
0
LINE
8
0
10
17.7487319
20
41.1613817
11
17.8
21
41.1613817
0
LINE
8
0
10
17.8
20
41.1613817
11
17.8
21
40.3124307
0
LINE
8
0
10
17.8
20
40.3124307
11
17.8
21
39.8130862
0
LINE
8
0
10
17.8
20
39.8130862
11
17.8
21
25.78463
0
LINE
8
0
10
17.8
20
25.78463
11
17.8
21
25.78463
0
LINE
8
0
10
17.8
20
25.78463
11
29
21
25.78463
0
LINE
8
0
10
29
20
25.78463
11
29
21
25.78463
0
ENDSEC
0
EOF
