  0
SECTION
  2
BLOCKS
  0
ENDSEC
  0
SECTION
  2
ENTITIES
  0
LINE
  8
0
 10
0
 20
0
 11
11
 21
0
  0
LINE
  8
0
 10
11
 20
0
 11
11.2652
 21
11.4276
  0
LINE
  8
0
 10
11.2652
 20
11.4276
 11
16.75
 21
16.5252
  0
LINE
  8
0
 10
16.75
 20
16.5252
 11
16.75
 21
20.55
  0
LINE
  8
0
 10
16.75
 20
20.55
 11
16.25
 21
21.05
  0
LINE
  8
0
 10
16.25
 20
21.05
 11
13
 21
21.05
  0
LINE
  8
0
 10
13
 20
21.05
 11
13
 21
27.55
  0
LINE
  8
0
 10
13
 20
27.55
 11
14
 21
28.55
  0
LINE
  8
0
 10
14
 20
28.55
 11
14
 21
40.55
  0
LINE
  8
0
 10
14
 20
40.55
 11
33.5
 21
40.55
  0
LINE
  8
0
 10
33.5
 20
40.55
 11
33.5
 21
28.55
  0
LINE
  8
0
 10
33.5
 20
28.55
 11
34.5
 21
27.55
  0
LINE
  8
0
 10
34.5
 20
27.55
 11
34.5
 21
21.05
  0
LINE
  8
0
 10
34.5
 20
21.05
 11
31.25
 21
21.05
  0
LINE
  8
0
 10
31.25
 20
21.05
 11
30.75
 21
20.55
  0
LINE
  8
0
 10
30.75
 20
20.55
 11
30.75
 21
16.5252
  0
LINE
  8
0
 10
30.75
 20
16.5252
 11
36.2348
 21
11.4276
  0
LINE
  8
0
 10
36.2348
 20
11.4276
 11
36.5
 21
0
  0
LINE
  8
0
 10
36.5
 20
0
 11
47.5
 21
0
  0
LINE
  8
0
 10
47.5
 20
0
 11
47.5
 21
3.5
  0
LINE
  8
0
 10
47.5
 20
3.5
 11
47
 21
4
  0
LINE
  8
0
 10
47
 20
4
 11
41.8959
 21
4
  0
LINE
  8
0
 10
41.8959
 20
4
 11
40.3959
 21
5.5
  0
LINE
  8
0
 10
40.3959
 20
5.5
 11
40.3959
 21
40
  0
LINE
  8
0
 10
40.3959
 20
40
 11
41.8959
 21
41.5
  0
LINE
  8
0
 10
41.8959
 20
41.5
 11
47
 21
41.5
  0
LINE
  8
0
 10
47
 20
41.5
 11
47.5
 21
42
  0
LINE
  8
0
 10
47.5
 20
42
 11
47.5
 21
45.5
  0
LINE
  8
0
 10
47.5
 20
45.5
 11
0
 21
45.5
  0
LINE
  8
0
 10
0
 20
45.5
 11
0
 21
42
  0
LINE
  8
0
 10
0
 20
42
 11
0.499999
 21
41.5
  0
LINE
  8
0
 10
0.499999
 20
41.5
 11
5.60409
 21
41.5
  0
LINE
  8
0
 10
5.60409
 20
41.5
 11
7.10409
 21
40
  0
LINE
  8
0
 10
7.10409
 20
40
 11
7.10409
 21
5.5
  0
LINE
  8
0
 10
7.10409
 20
5.5
 11
5.60409
 21
4
  0
LINE
  8
0
 10
5.60409
 20
4
 11
0.499999
 21
4
  0
LINE
  8
0
 10
0.499999
 20
4
 11
0
 21
3.5
  0
LINE
  8
0
 10
0
 20
3.5
 11
0
 21
0
  0
LINE
  8
0
 10
11.5
 20
18.5
 11
11.5288
 21
18.838
  0
LINE
  8
0
 10
11.5288
 20
18.838
 11
11.6142
 21
19.1663
  0
LINE
  8
0
 10
11.6142
 20
19.1663
 11
11.754
 21
19.4754
  0
LINE
  8
0
 10
11.754
 20
19.4754
 11
11.9439
 21
19.7564
  0
LINE
  8
0
 10
11.9439
 20
19.7564
 11
12.1786
 21
20.0013
  0
LINE
  8
0
 10
12.1786
 20
20.0013
 11
12.4514
 21
20.2031
  0
LINE
  8
0
 10
12.4514
 20
20.2031
 11
12.7543
 21
20.3558
  0
LINE
  8
0
 10
12.7543
 20
20.3558
 11
13.0786
 21
20.4551
  0
LINE
  8
0
 10
13.0786
 20
20.4551
 11
13.4151
 21
20.4982
  0
LINE
  8
0
 10
13.4151
 20
20.4982
 11
13.754
 21
20.4838
  0
LINE
  8
0
 10
13.754
 20
20.4838
 11
14.0856
 21
20.4123
  0
LINE
  8
0
 10
14.0856
 20
20.4123
 11
14.4004
 21
20.2859
  0
LINE
  8
0
 10
14.4004
 20
20.2859
 11
14.6893
 21
20.108
  0
LINE
  8
0
 10
14.6893
 20
20.108
 11
14.9439
 21
19.8839
  0
LINE
  8
0
 10
14.9439
 20
19.8839
 11
15.157
 21
19.6199
  0
LINE
  8
0
 10
15.157
 20
19.6199
 11
15.3225
 21
19.3238
  0
LINE
  8
0
 10
15.3225
 20
19.3238
 11
15.4355
 21
19.004
  0
LINE
  8
0
 10
15.4355
 20
19.004
 11
15.4928
 21
18.6696
  0
LINE
  8
0
 10
15.4928
 20
18.6696
 11
15.5
 21
18.5
  0
LINE
  8
0
 10
15.5
 20
18.5
 11
15.4928
 21
18.3304
  0
LINE
  8
0
 10
15.4928
 20
18.3304
 11
15.4355
 21
17.996
  0
LINE
  8
0
 10
15.4355
 20
17.996
 11
15.3225
 21
17.6762
  0
LINE
  8
0
 10
15.3225
 20
17.6762
 11
15.157
 21
17.3801
  0
LINE
  8
0
 10
15.157
 20
17.3801
 11
14.9439
 21
17.1161
  0
LINE
  8
0
 10
14.9439
 20
17.1161
 11
14.6893
 21
16.892
  0
LINE
  8
0
 10
14.6893
 20
16.892
 11
14.4004
 21
16.7141
  0
LINE
  8
0
 10
14.4004
 20
16.7141
 11
14.0856
 21
16.5877
  0
LINE
  8
0
 10
14.0856
 20
16.5877
 11
13.754
 21
16.5162
  0
LINE
  8
0
 10
13.754
 20
16.5162
 11
13.4151
 21
16.5018
  0
LINE
  8
0
 10
13.4151
 20
16.5018
 11
13.0786
 21
16.5449
  0
LINE
  8
0
 10
13.0786
 20
16.5449
 11
12.7543
 21
16.6442
  0
LINE
  8
0
 10
12.7543
 20
16.6442
 11
12.4514
 21
16.7969
  0
LINE
  8
0
 10
12.4514
 20
16.7969
 11
12.1786
 21
16.9987
  0
LINE
  8
0
 10
12.1786
 20
16.9987
 11
11.9439
 21
17.2436
  0
LINE
  8
0
 10
11.9439
 20
17.2436
 11
11.754
 21
17.5246
  0
LINE
  8
0
 10
11.754
 20
17.5246
 11
11.6142
 21
17.8337
  0
LINE
  8
0
 10
11.6142
 20
17.8337
 11
11.5288
 21
18.162
  0
LINE
  8
0
 10
11.5288
 20
18.162
 11
11.5
 21
18.5
  0
LINE
  8
0
 10
11.5
 20
43
 11
11.5288
 21
43.338
  0
LINE
  8
0
 10
11.5288
 20
43.338
 11
11.6142
 21
43.6663
  0
LINE
  8
0
 10
11.6142
 20
43.6663
 11
11.754
 21
43.9754
  0
LINE
  8
0
 10
11.754
 20
43.9754
 11
11.9439
 21
44.2564
  0
LINE
  8
0
 10
11.9439
 20
44.2564
 11
12.1786
 21
44.5013
  0
LINE
  8
0
 10
12.1786
 20
44.5013
 11
12.4514
 21
44.7031
  0
LINE
  8
0
 10
12.4514
 20
44.7031
 11
12.7543
 21
44.8558
  0
LINE
  8
0
 10
12.7543
 20
44.8558
 11
13.0786
 21
44.9551
  0
LINE
  8
0
 10
13.0786
 20
44.9551
 11
13.4151
 21
44.9982
  0
LINE
  8
0
 10
13.4151
 20
44.9982
 11
13.754
 21
44.9838
  0
LINE
  8
0
 10
13.754
 20
44.9838
 11
14.0856
 21
44.9123
  0
LINE
  8
0
 10
14.0856
 20
44.9123
 11
14.4004
 21
44.7859
  0
LINE
  8
0
 10
14.4004
 20
44.7859
 11
14.6893
 21
44.608
  0
LINE
  8
0
 10
14.6893
 20
44.608
 11
14.9439
 21
44.3839
  0
LINE
  8
0
 10
14.9439
 20
44.3839
 11
15.157
 21
44.1199
  0
LINE
  8
0
 10
15.157
 20
44.1199
 11
15.3225
 21
43.8238
  0
LINE
  8
0
 10
15.3225
 20
43.8238
 11
15.4355
 21
43.504
  0
LINE
  8
0
 10
15.4355
 20
43.504
 11
15.4928
 21
43.1696
  0
LINE
  8
0
 10
15.4928
 20
43.1696
 11
15.5
 21
43
  0
LINE
  8
0
 10
15.5
 20
43
 11
15.4928
 21
42.8304
  0
LINE
  8
0
 10
15.4928
 20
42.8304
 11
15.4355
 21
42.496
  0
LINE
  8
0
 10
15.4355
 20
42.496
 11
15.3225
 21
42.1762
  0
LINE
  8
0
 10
15.3225
 20
42.1762
 11
15.157
 21
41.8801
  0
LINE
  8
0
 10
15.157
 20
41.8801
 11
14.9439
 21
41.6161
  0
LINE
  8
0
 10
14.9439
 20
41.6161
 11
14.6893
 21
41.392
  0
LINE
  8
0
 10
14.6893
 20
41.392
 11
14.4004
 21
41.2141
  0
LINE
  8
0
 10
14.4004
 20
41.2141
 11
14.0856
 21
41.0877
  0
LINE
  8
0
 10
14.0856
 20
41.0877
 11
13.754
 21
41.0162
  0
LINE
  8
0
 10
13.754
 20
41.0162
 11
13.4151
 21
41.0018
  0
LINE
  8
0
 10
13.4151
 20
41.0018
 11
13.0786
 21
41.0449
  0
LINE
  8
0
 10
13.0786
 20
41.0449
 11
12.7543
 21
41.1442
  0
LINE
  8
0
 10
12.7543
 20
41.1442
 11
12.4514
 21
41.2969
  0
LINE
  8
0
 10
12.4514
 20
41.2969
 11
12.1786
 21
41.4987
  0
LINE
  8
0
 10
12.1786
 20
41.4987
 11
11.9439
 21
41.7436
  0
LINE
  8
0
 10
11.9439
 20
41.7436
 11
11.754
 21
42.0246
  0
LINE
  8
0
 10
11.754
 20
42.0246
 11
11.6142
 21
42.3337
  0
LINE
  8
0
 10
11.6142
 20
42.3337
 11
11.5288
 21
42.662
  0
LINE
  8
0
 10
11.5288
 20
42.662
 11
11.5
 21
43
  0
LINE
  8
0
 10
32
 20
18.5
 11
32.0288
 21
18.838
  0
LINE
  8
0
 10
32.0288
 20
18.838
 11
32.1142
 21
19.1663
  0
LINE
  8
0
 10
32.1142
 20
19.1663
 11
32.254
 21
19.4754
  0
LINE
  8
0
 10
32.254
 20
19.4754
 11
32.4439
 21
19.7564
  0
LINE
  8
0
 10
32.4439
 20
19.7564
 11
32.6786
 21
20.0013
  0
LINE
  8
0
 10
32.6786
 20
20.0013
 11
32.9514
 21
20.2031
  0
LINE
  8
0
 10
32.9514
 20
20.2031
 11
33.2543
 21
20.3558
  0
LINE
  8
0
 10
33.2543
 20
20.3558
 11
33.5786
 21
20.4551
  0
LINE
  8
0
 10
33.5786
 20
20.4551
 11
33.9151
 21
20.4982
  0
LINE
  8
0
 10
33.9151
 20
20.4982
 11
34.254
 21
20.4838
  0
LINE
  8
0
 10
34.254
 20
20.4838
 11
34.5856
 21
20.4123
  0
LINE
  8
0
 10
34.5856
 20
20.4123
 11
34.9004
 21
20.2859
  0
LINE
  8
0
 10
34.9004
 20
20.2859
 11
35.1893
 21
20.108
  0
LINE
  8
0
 10
35.1893
 20
20.108
 11
35.4439
 21
19.8839
  0
LINE
  8
0
 10
35.4439
 20
19.8839
 11
35.657
 21
19.6199
  0
LINE
  8
0
 10
35.657
 20
19.6199
 11
35.8225
 21
19.3238
  0
LINE
  8
0
 10
35.8225
 20
19.3238
 11
35.9355
 21
19.004
  0
LINE
  8
0
 10
35.9355
 20
19.004
 11
35.9928
 21
18.6696
  0
LINE
  8
0
 10
35.9928
 20
18.6696
 11
36
 21
18.5
  0
LINE
  8
0
 10
36
 20
18.5
 11
35.9928
 21
18.3304
  0
LINE
  8
0
 10
35.9928
 20
18.3304
 11
35.9355
 21
17.996
  0
LINE
  8
0
 10
35.9355
 20
17.996
 11
35.8225
 21
17.6762
  0
LINE
  8
0
 10
35.8225
 20
17.6762
 11
35.657
 21
17.3801
  0
LINE
  8
0
 10
35.657
 20
17.3801
 11
35.4439
 21
17.1161
  0
LINE
  8
0
 10
35.4439
 20
17.1161
 11
35.1893
 21
16.892
  0
LINE
  8
0
 10
35.1893
 20
16.892
 11
34.9004
 21
16.7141
  0
LINE
  8
0
 10
34.9004
 20
16.7141
 11
34.5856
 21
16.5877
  0
LINE
  8
0
 10
34.5856
 20
16.5877
 11
34.254
 21
16.5162
  0
LINE
  8
0
 10
34.254
 20
16.5162
 11
33.9151
 21
16.5018
  0
LINE
  8
0
 10
33.9151
 20
16.5018
 11
33.5786
 21
16.5449
  0
LINE
  8
0
 10
33.5786
 20
16.5449
 11
33.2543
 21
16.6442
  0
LINE
  8
0
 10
33.2543
 20
16.6442
 11
32.9514
 21
16.7969
  0
LINE
  8
0
 10
32.9514
 20
16.7969
 11
32.6786
 21
16.9987
  0
LINE
  8
0
 10
32.6786
 20
16.9987
 11
32.4439
 21
17.2436
  0
LINE
  8
0
 10
32.4439
 20
17.2436
 11
32.254
 21
17.5246
  0
LINE
  8
0
 10
32.254
 20
17.5246
 11
32.1142
 21
17.8337
  0
LINE
  8
0
 10
32.1142
 20
17.8337
 11
32.0288
 21
18.162
  0
LINE
  8
0
 10
32.0288
 20
18.162
 11
32
 21
18.5
  0
LINE
  8
0
 10
32
 20
43
 11
32.0288
 21
43.338
  0
LINE
  8
0
 10
32.0288
 20
43.338
 11
32.1142
 21
43.6663
  0
LINE
  8
0
 10
32.1142
 20
43.6663
 11
32.254
 21
43.9754
  0
LINE
  8
0
 10
32.254
 20
43.9754
 11
32.4439
 21
44.2564
  0
LINE
  8
0
 10
32.4439
 20
44.2564
 11
32.6786
 21
44.5013
  0
LINE
  8
0
 10
32.6786
 20
44.5013
 11
32.9514
 21
44.7031
  0
LINE
  8
0
 10
32.9514
 20
44.7031
 11
33.2543
 21
44.8558
  0
LINE
  8
0
 10
33.2543
 20
44.8558
 11
33.5786
 21
44.9551
  0
LINE
  8
0
 10
33.5786
 20
44.9551
 11
33.9151
 21
44.9982
  0
LINE
  8
0
 10
33.9151
 20
44.9982
 11
34.254
 21
44.9838
  0
LINE
  8
0
 10
34.254
 20
44.9838
 11
34.5856
 21
44.9123
  0
LINE
  8
0
 10
34.5856
 20
44.9123
 11
34.9004
 21
44.7859
  0
LINE
  8
0
 10
34.9004
 20
44.7859
 11
35.1893
 21
44.608
  0
LINE
  8
0
 10
35.1893
 20
44.608
 11
35.4439
 21
44.3839
  0
LINE
  8
0
 10
35.4439
 20
44.3839
 11
35.657
 21
44.1199
  0
LINE
  8
0
 10
35.657
 20
44.1199
 11
35.8225
 21
43.8238
  0
LINE
  8
0
 10
35.8225
 20
43.8238
 11
35.9355
 21
43.504
  0
LINE
  8
0
 10
35.9355
 20
43.504
 11
35.9928
 21
43.1696
  0
LINE
  8
0
 10
35.9928
 20
43.1696
 11
36
 21
43
  0
LINE
  8
0
 10
36
 20
43
 11
35.9928
 21
42.8304
  0
LINE
  8
0
 10
35.9928
 20
42.8304
 11
35.9355
 21
42.496
  0
LINE
  8
0
 10
35.9355
 20
42.496
 11
35.8225
 21
42.1762
  0
LINE
  8
0
 10
35.8225
 20
42.1762
 11
35.657
 21
41.8801
  0
LINE
  8
0
 10
35.657
 20
41.8801
 11
35.4439
 21
41.6161
  0
LINE
  8
0
 10
35.4439
 20
41.6161
 11
35.1893
 21
41.392
  0
LINE
  8
0
 10
35.1893
 20
41.392
 11
34.9004
 21
41.2141
  0
LINE
  8
0
 10
34.9004
 20
41.2141
 11
34.5856
 21
41.0877
  0
LINE
  8
0
 10
34.5856
 20
41.0877
 11
34.254
 21
41.0162
  0
LINE
  8
0
 10
34.254
 20
41.0162
 11
33.9151
 21
41.0018
  0
LINE
  8
0
 10
33.9151
 20
41.0018
 11
33.5786
 21
41.0449
  0
LINE
  8
0
 10
33.5786
 20
41.0449
 11
33.2543
 21
41.1442
  0
LINE
  8
0
 10
33.2543
 20
41.1442
 11
32.9514
 21
41.2969
  0
LINE
  8
0
 10
32.9514
 20
41.2969
 11
32.6786
 21
41.4987
  0
LINE
  8
0
 10
32.6786
 20
41.4987
 11
32.4439
 21
41.7436
  0
LINE
  8
0
 10
32.4439
 20
41.7436
 11
32.254
 21
42.0246
  0
LINE
  8
0
 10
32.254
 20
42.0246
 11
32.1142
 21
42.3337
  0
LINE
  8
0
 10
32.1142
 20
42.3337
 11
32.0288
 21
42.662
  0
LINE
  8
0
 10
32.0288
 20
42.662
 11
32
 21
43
  0
ENDSEC
  0
SECTION
  2
OBJECTS
  0
DICTIONARY
  0
ENDSEC
  0
EOF
