  0
SECTION
  2
BLOCKS
  0
ENDSEC
  0
SECTION
  2
ENTITIES
  0
LINE
  8
0
 10
0
 20
0
 11
11
 21
0
  0
LINE
  8
0
 10
11
 20
0
 11
11
 21
45.5
  0
LINE
  8
0
 10
11
 20
45.5
 11
0
 21
45.5
  0
LINE
  8
0
 10
0
 20
45.5
 11
0
 21
42
  0
LINE
  8
0
 10
0
 20
42
 11
0.499999
 21
41.5
  0
LINE
  8
0
 10
0.499999
 20
41.5
 11
5.60409
 21
41.5
  0
LINE
  8
0
 10
5.60409
 20
41.5
 11
7.10409
 21
40
  0
LINE
  8
0
 10
7.10409
 20
40
 11
7.10409
 21
22.451
  0
LINE
  8
0
 10
7.10409
 20
22.451
 11
7.11188
 21
22.2404
  0
LINE
  8
0
 10
7.11188
 20
22.2404
 11
7.11332
 21
22.2015
  0
LINE
  8
0
 10
7.11332
 20
22.2015
 11
7.11917
 21
22.1496
  0
LINE
  8
0
 10
7.11917
 20
22.1496
 11
7.14079
 21
21.8662
  0
LINE
  8
0
 10
7.14079
 20
21.8662
 11
7.17282
 21
21.6229
  0
LINE
  8
0
 10
7.17282
 20
21.6229
 11
7.18583
 21
21.4227
  0
LINE
  8
0
 10
7.18583
 20
21.4227
 11
7.21323
 21
21.1375
  0
LINE
  8
0
 10
7.21323
 20
21.1375
 11
7.2122
 21
20.9387
  0
LINE
  8
0
 10
7.2122
 20
20.9387
 11
7.21078
 21
20.6641
  0
LINE
  8
0
 10
7.21078
 20
20.6641
 11
7.19967
 21
20.5595
  0
LINE
  8
0
 10
7.19967
 20
20.5595
 11
7.18583
 21
20.4293
  0
LINE
  8
0
 10
7.18583
 20
20.4293
 11
7.17582
 21
20.29
  0
LINE
  8
0
 10
7.17582
 20
20.29
 11
7.16762
 21
20.1759
  0
LINE
  8
0
 10
7.16762
 20
20.1759
 11
7.15144
 21
20.0589
  0
LINE
  8
0
 10
7.15144
 20
20.0589
 11
7.14079
 21
19.9819
  0
LINE
  8
0
 10
7.14079
 20
19.9819
 11
7.13054
 21
19.854
  0
LINE
  8
0
 10
7.13054
 20
19.854
 11
7.11364
 21
19.6431
  0
LINE
  8
0
 10
7.11364
 20
19.6431
 11
7.11342
 21
19.6411
  0
LINE
  8
0
 10
7.11342
 20
19.6411
 11
7.11332
 21
19.6403
  0
LINE
  8
0
 10
7.11332
 20
19.6403
 11
7.10689
 21
19.4717
  0
LINE
  8
0
 10
7.10689
 20
19.4717
 11
7.10409
 21
19.3984
  0
LINE
  8
0
 10
7.10409
 20
19.3984
 11
7.10409
 21
5.5
  0
LINE
  8
0
 10
7.10409
 20
5.5
 11
5.60409
 21
4
  0
LINE
  8
0
 10
5.60409
 20
4
 11
0.499999
 21
4
  0
LINE
  8
0
 10
0.499999
 20
4
 11
0
 21
3.5
  0
LINE
  8
0
 10
0
 20
3.5
 11
0
 21
0
  0
LINE
  8
0
 10
36.5
 20
0
 11
47.5
 21
0
  0
LINE
  8
0
 10
47.5
 20
0
 11
47.5
 21
3.5
  0
LINE
  8
0
 10
47.5
 20
3.5
 11
47
 21
4
  0
LINE
  8
0
 10
47
 20
4
 11
41.8959
 21
4
  0
LINE
  8
0
 10
41.8959
 20
4
 11
40.3959
 21
5.5
  0
LINE
  8
0
 10
40.3959
 20
5.5
 11
40.3959
 21
19.3984
  0
LINE
  8
0
 10
40.3959
 20
19.3984
 11
40.3868
 21
19.6383
  0
LINE
  8
0
 10
40.3868
 20
19.6383
 11
40.3867
 21
19.6403
  0
LINE
  8
0
 10
40.3867
 20
19.6403
 11
40.3864
 21
19.6431
  0
LINE
  8
0
 10
40.3864
 20
19.6431
 11
40.3592
 21
19.9819
  0
LINE
  8
0
 10
40.3592
 20
19.9819
 11
40.3324
 21
20.1759
  0
LINE
  8
0
 10
40.3324
 20
20.1759
 11
40.3142
 21
20.4293
  0
LINE
  8
0
 10
40.3142
 20
20.4293
 11
40.2892
 21
20.6641
  0
LINE
  8
0
 10
40.2892
 20
20.6641
 11
40.2882
 21
20.8601
  0
LINE
  8
0
 10
40.2882
 20
20.8601
 11
40.2868
 21
21.1375
  0
LINE
  8
0
 10
40.2868
 20
21.1375
 11
40.2983
 21
21.2573
  0
LINE
  8
0
 10
40.2983
 20
21.2573
 11
40.3142
 21
21.4227
  0
LINE
  8
0
 10
40.3142
 20
21.4227
 11
40.3217
 21
21.5379
  0
LINE
  8
0
 10
40.3217
 20
21.5379
 11
40.3272
 21
21.6229
  0
LINE
  8
0
 10
40.3272
 20
21.6229
 11
40.3461
 21
21.7666
  0
LINE
  8
0
 10
40.3461
 20
21.7666
 11
40.3592
 21
21.8662
  0
LINE
  8
0
 10
40.3592
 20
21.8662
 11
40.3677
 21
21.977
  0
LINE
  8
0
 10
40.3677
 20
21.977
 11
40.3808
 21
22.1496
  0
LINE
  8
0
 10
40.3808
 20
22.1496
 11
40.3849
 21
22.1854
  0
LINE
  8
0
 10
40.3849
 20
22.1854
 11
40.3867
 21
22.2015
  0
LINE
  8
0
 10
40.3867
 20
22.2015
 11
40.3925
 21
22.3582
  0
LINE
  8
0
 10
40.3925
 20
22.3582
 11
40.3959
 21
22.451
  0
LINE
  8
0
 10
40.3959
 20
22.451
 11
40.3959
 21
40
  0
LINE
  8
0
 10
40.3959
 20
40
 11
41.8959
 21
41.5
  0
LINE
  8
0
 10
41.8959
 20
41.5
 11
47
 21
41.5
  0
LINE
  8
0
 10
47
 20
41.5
 11
47.5
 21
42
  0
LINE
  8
0
 10
47.5
 20
42
 11
47.5
 21
45.5
  0
LINE
  8
0
 10
47.5
 20
45.5
 11
36.5
 21
45.5
  0
LINE
  8
0
 10
36.5
 20
45.5
 11
36.5
 21
0
  0
ENDSEC
  0
SECTION
  2
OBJECTS
  0
DICTIONARY
  0
ENDSEC
  0
EOF
