  0
SECTION
  2
BLOCKS
  0
ENDSEC
  0
SECTION
  2
ENTITIES
  0
LINE
  8
0
 10
0
 20
0
 11
11
 21
0
  0
LINE
  8
0
 10
11
 20
0
 11
11
 21
19.2567
  0
LINE
  8
0
 10
11
 20
19.2567
 11
7.85409
 21
19.2567
  0
LINE
  8
0
 10
7.85409
 20
19.2567
 11
7.83991
 21
19.2549
  0
LINE
  8
0
 10
7.83991
 20
19.2549
 11
7.73676
 21
19.2418
  0
LINE
  8
0
 10
7.73676
 20
19.2418
 11
7.72648
 21
19.2379
  0
LINE
  8
0
 10
7.72648
 20
19.2379
 11
7.62232
 21
19.1977
  0
LINE
  8
0
 10
7.62232
 20
19.1977
 11
7.62046
 21
19.1965
  0
LINE
  8
0
 10
7.62046
 20
19.1965
 11
7.60544
 21
19.1865
  0
LINE
  8
0
 10
7.60544
 20
19.1865
 11
7.51359
 21
19.1308
  0
LINE
  8
0
 10
7.51359
 20
19.1308
 11
7.41325
 21
19.0409
  0
LINE
  8
0
 10
7.41325
 20
19.0409
 11
7.41229
 21
19.0397
  0
LINE
  8
0
 10
7.41229
 20
19.0397
 11
7.32376
 21
18.929
  0
LINE
  8
0
 10
7.32376
 20
18.929
 11
7.32231
 21
18.9266
  0
LINE
  8
0
 10
7.32231
 20
18.9266
 11
7.24732
 21
18.7981
  0
LINE
  8
0
 10
7.24732
 20
18.7981
 11
7.24556
 21
18.7939
  0
LINE
  8
0
 10
7.24556
 20
18.7939
 11
7.18583
 21
18.6513
  0
LINE
  8
0
 10
7.18583
 20
18.6513
 11
7.18405
 21
18.645
  0
LINE
  8
0
 10
7.18405
 20
18.645
 11
7.14079
 21
18.4922
  0
LINE
  8
0
 10
7.14079
 20
18.4922
 11
7.13938
 21
18.4836
  0
LINE
  8
0
 10
7.13938
 20
18.4836
 11
7.11332
 21
18.3247
  0
LINE
  8
0
 10
7.11332
 20
18.3247
 11
7.11273
 21
18.3138
  0
LINE
  8
0
 10
7.11273
 20
18.3138
 11
7.10409
 21
18.1531
  0
LINE
  8
0
 10
7.10409
 20
18.1531
 11
7.10409
 21
5.5
  0
LINE
  8
0
 10
7.10409
 20
5.5
 11
5.60409
 21
4
  0
LINE
  8
0
 10
5.60409
 20
4
 11
0.499999
 21
4
  0
LINE
  8
0
 10
0.499999
 20
4
 11
0
 21
3.5
  0
LINE
  8
0
 10
0
 20
3.5
 11
0
 21
0
  0
LINE
  8
0
 10
0
 20
42
 11
0.499999
 21
41.5
  0
LINE
  8
0
 10
0.499999
 20
41.5
 11
5.60409
 21
41.5
  0
LINE
  8
0
 10
5.60409
 20
41.5
 11
7.10409
 21
40
  0
LINE
  8
0
 10
7.10409
 20
40
 11
7.10409
 21
23.5798
  0
LINE
  8
0
 10
7.10409
 20
23.5798
 11
7.11115
 21
23.4724
  0
LINE
  8
0
 10
7.11115
 20
23.4724
 11
7.11332
 21
23.4394
  0
LINE
  8
0
 10
7.11332
 20
23.4394
 11
7.1395
 21
23.3088
  0
LINE
  8
0
 10
7.1395
 20
23.3088
 11
7.14079
 21
23.3024
  0
LINE
  8
0
 10
7.14079
 20
23.3024
 11
7.15208
 21
23.2698
  0
LINE
  8
0
 10
7.15208
 20
23.2698
 11
7.18583
 21
23.1585
  0
LINE
  8
0
 10
7.18583
 20
23.1585
 11
7.19709
 21
23.1335
  0
LINE
  8
0
 10
7.19709
 20
23.1335
 11
7.24732
 21
23.0215
  0
LINE
  8
0
 10
7.24732
 20
23.0215
 11
7.27901
 21
22.9709
  0
LINE
  8
0
 10
7.27901
 20
22.9709
 11
7.32376
 21
22.8994
  0
LINE
  8
0
 10
7.32376
 20
22.8994
 11
7.37933
 21
22.8346
  0
LINE
  8
0
 10
7.37933
 20
22.8346
 11
7.41325
 21
22.795
  0
LINE
  8
0
 10
7.41325
 20
22.795
 11
7.49258
 21
22.7287
  0
LINE
  8
0
 10
7.49258
 20
22.7287
 11
7.51359
 21
22.7111
  0
LINE
  8
0
 10
7.51359
 20
22.7111
 11
7.61301
 21
22.6549
  0
LINE
  8
0
 10
7.61301
 20
22.6549
 11
7.62232
 21
22.6496
  0
LINE
  8
0
 10
7.62232
 20
22.6496
 11
7.73538
 21
22.6125
  0
LINE
  8
0
 10
7.73538
 20
22.6125
 11
7.73676
 21
22.6121
  0
LINE
  8
0
 10
7.73676
 20
22.6121
 11
7.79573
 21
22.6058
  0
LINE
  8
0
 10
7.79573
 20
22.6058
 11
7.85409
 21
22.5982
  0
LINE
  8
0
 10
7.85409
 20
22.5982
 11
11
 21
22.5982
  0
LINE
  8
0
 10
11
 20
22.5982
 11
11
 21
45.5
  0
LINE
  8
0
 10
11
 20
45.5
 11
0
 21
45.5
  0
LINE
  8
0
 10
0
 20
45.5
 11
0
 21
42
  0
LINE
  8
0
 10
36.5
 20
0
 11
47.5
 21
0
  0
LINE
  8
0
 10
47.5
 20
0
 11
47.5
 21
3.5
  0
LINE
  8
0
 10
47.5
 20
3.5
 11
47
 21
4
  0
LINE
  8
0
 10
47
 20
4
 11
41.8959
 21
4
  0
LINE
  8
0
 10
41.8959
 20
4
 11
40.3959
 21
5.5
  0
LINE
  8
0
 10
40.3959
 20
5.5
 11
40.3959
 21
18.1531
  0
LINE
  8
0
 10
40.3959
 20
18.1531
 11
40.3952
 21
18.1659
  0
LINE
  8
0
 10
40.3952
 20
18.1659
 11
40.3867
 21
18.3247
  0
LINE
  8
0
 10
40.3867
 20
18.3247
 11
40.385
 21
18.3352
  0
LINE
  8
0
 10
40.385
 20
18.3352
 11
40.3592
 21
18.4922
  0
LINE
  8
0
 10
40.3592
 20
18.4922
 11
40.3569
 21
18.5002
  0
LINE
  8
0
 10
40.3569
 20
18.5002
 11
40.3142
 21
18.6513
  0
LINE
  8
0
 10
40.3142
 20
18.6513
 11
40.3118
 21
18.657
  0
LINE
  8
0
 10
40.3118
 20
18.657
 11
40.2527
 21
18.7981
  0
LINE
  8
0
 10
40.2527
 20
18.7981
 11
40.2505
 21
18.8018
  0
LINE
  8
0
 10
40.2505
 20
18.8018
 11
40.1762
 21
18.929
  0
LINE
  8
0
 10
40.1762
 20
18.929
 11
40.1746
 21
18.9311
  0
LINE
  8
0
 10
40.1746
 20
18.9311
 11
40.0868
 21
19.0409
  0
LINE
  8
0
 10
40.0868
 20
19.0409
 11
39.9864
 21
19.1308
  0
LINE
  8
0
 10
39.9864
 20
19.1308
 11
39.986
 21
19.1311
  0
LINE
  8
0
 10
39.986
 20
19.1311
 11
39.8946
 21
19.1865
  0
LINE
  8
0
 10
39.8946
 20
19.1865
 11
39.8777
 21
19.1977
  0
LINE
  8
0
 10
39.8777
 20
19.1977
 11
39.8752
 21
19.1987
  0
LINE
  8
0
 10
39.8752
 20
19.1987
 11
39.7632
 21
19.2418
  0
LINE
  8
0
 10
39.7632
 20
19.2418
 11
39.7514
 21
19.2433
  0
LINE
  8
0
 10
39.7514
 20
19.2433
 11
39.6459
 21
19.2567
  0
LINE
  8
0
 10
39.6459
 20
19.2567
 11
36.5
 21
19.2567
  0
LINE
  8
0
 10
36.5
 20
19.2567
 11
36.5
 21
0
  0
LINE
  8
0
 10
36.5
 20
22.5982
 11
39.6459
 21
22.5982
  0
LINE
  8
0
 10
39.6459
 20
22.5982
 11
39.6475
 21
22.5984
  0
LINE
  8
0
 10
39.6475
 20
22.5984
 11
39.7043
 21
22.6058
  0
LINE
  8
0
 10
39.7043
 20
22.6058
 11
39.7619
 21
22.6119
  0
LINE
  8
0
 10
39.7619
 20
22.6119
 11
39.7632
 21
22.6121
  0
LINE
  8
0
 10
39.7632
 20
22.6121
 11
39.8692
 21
22.6468
  0
LINE
  8
0
 10
39.8692
 20
22.6468
 11
39.8777
 21
22.6496
  0
LINE
  8
0
 10
39.8777
 20
22.6496
 11
39.9681
 21
22.7007
  0
LINE
  8
0
 10
39.9681
 20
22.7007
 11
39.9864
 21
22.7111
  0
LINE
  8
0
 10
39.9864
 20
22.7111
 11
40.0578
 21
22.7708
  0
LINE
  8
0
 10
40.0578
 20
22.7708
 11
40.0868
 21
22.795
  0
LINE
  8
0
 10
40.0868
 20
22.795
 11
40.1382
 21
22.855
  0
LINE
  8
0
 10
40.1382
 20
22.855
 11
40.1762
 21
22.8994
  0
LINE
  8
0
 10
40.1762
 20
22.8994
 11
40.2089
 21
22.9516
  0
LINE
  8
0
 10
40.2089
 20
22.9516
 11
40.2527
 21
23.0215
  0
LINE
  8
0
 10
40.2527
 20
23.0215
 11
40.2695
 21
23.059
  0
LINE
  8
0
 10
40.2695
 20
23.059
 11
40.3142
 21
23.1585
  0
LINE
  8
0
 10
40.3142
 20
23.1585
 11
40.3194
 21
23.1759
  0
LINE
  8
0
 10
40.3194
 20
23.1759
 11
40.3479
 21
23.2698
  0
LINE
  8
0
 10
40.3479
 20
23.2698
 11
40.3576
 21
23.2977
  0
LINE
  8
0
 10
40.3576
 20
23.2977
 11
40.3592
 21
23.3024
  0
LINE
  8
0
 10
40.3592
 20
23.3024
 11
40.3817
 21
23.4146
  0
LINE
  8
0
 10
40.3817
 20
23.4146
 11
40.3867
 21
23.4394
  0
LINE
  8
0
 10
40.3867
 20
23.4394
 11
40.393
 21
23.535
  0
LINE
  8
0
 10
40.393
 20
23.535
 11
40.3959
 21
23.5798
  0
LINE
  8
0
 10
40.3959
 20
23.5798
 11
40.3959
 21
40
  0
LINE
  8
0
 10
40.3959
 20
40
 11
41.8959
 21
41.5
  0
LINE
  8
0
 10
41.8959
 20
41.5
 11
47
 21
41.5
  0
LINE
  8
0
 10
47
 20
41.5
 11
47.5
 21
42
  0
LINE
  8
0
 10
47.5
 20
42
 11
47.5
 21
45.5
  0
LINE
  8
0
 10
47.5
 20
45.5
 11
36.5
 21
45.5
  0
LINE
  8
0
 10
36.5
 20
45.5
 11
36.5
 21
22.5982
  0
ENDSEC
  0
SECTION
  2
OBJECTS
  0
DICTIONARY
  0
ENDSEC
  0
EOF
