  0
SECTION
  2
BLOCKS
  0
ENDSEC
  0
SECTION
  2
ENTITIES
  0
LINE
  8
0
 10
0
 20
0
 11
11
 21
0
  0
LINE
  8
0
 10
11
 20
0
 11
11
 21
18.7164
  0
LINE
  8
0
 10
11
 20
18.7164
 11
7.85409
 21
18.7164
  0
LINE
  8
0
 10
7.85409
 20
18.7164
 11
7.84604
 21
18.7155
  0
LINE
  8
0
 10
7.84604
 20
18.7155
 11
7.73676
 21
18.7029
  0
LINE
  8
0
 10
7.73676
 20
18.7029
 11
7.72879
 21
18.7001
  0
LINE
  8
0
 10
7.72879
 20
18.7001
 11
7.62232
 21
18.6627
  0
LINE
  8
0
 10
7.62232
 20
18.6627
 11
7.61441
 21
18.6579
  0
LINE
  8
0
 10
7.61441
 20
18.6579
 11
7.51359
 21
18.5968
  0
LINE
  8
0
 10
7.51359
 20
18.5968
 11
7.41325
 21
18.5068
  0
LINE
  8
0
 10
7.41325
 20
18.5068
 11
7.40569
 21
18.4974
  0
LINE
  8
0
 10
7.40569
 20
18.4974
 11
7.32376
 21
18.395
  0
LINE
  8
0
 10
7.32376
 20
18.395
 11
7.31666
 21
18.3828
  0
LINE
  8
0
 10
7.31666
 20
18.3828
 11
7.24732
 21
18.264
  0
LINE
  8
0
 10
7.24732
 20
18.264
 11
7.24101
 21
18.249
  0
LINE
  8
0
 10
7.24101
 20
18.249
 11
7.18583
 21
18.1172
  0
LINE
  8
0
 10
7.18583
 20
18.1172
 11
7.18072
 21
18.0992
  0
LINE
  8
0
 10
7.18072
 20
18.0992
 11
7.14079
 21
17.9581
  0
LINE
  8
0
 10
7.14079
 20
17.9581
 11
7.13735
 21
17.9371
  0
LINE
  8
0
 10
7.13735
 20
17.9371
 11
7.11332
 21
17.7907
  0
LINE
  8
0
 10
7.11332
 20
17.7907
 11
7.11205
 21
17.767
  0
LINE
  8
0
 10
7.11205
 20
17.767
 11
7.10409
 21
17.619
  0
LINE
  8
0
 10
7.10409
 20
17.619
 11
7.10409
 21
5.5
  0
LINE
  8
0
 10
7.10409
 20
5.5
 11
5.60409
 21
4
  0
LINE
  8
0
 10
5.60409
 20
4
 11
0.499999
 21
4
  0
LINE
  8
0
 10
0.499999
 20
4
 11
0
 21
3.5
  0
LINE
  8
0
 10
0
 20
3.5
 11
0
 21
0
  0
LINE
  8
0
 10
0
 20
42
 11
0.499999
 21
41.5
  0
LINE
  8
0
 10
0.499999
 20
41.5
 11
5.60409
 21
41.5
  0
LINE
  8
0
 10
5.60409
 20
41.5
 11
7.10409
 21
40
  0
LINE
  8
0
 10
7.10409
 20
40
 11
7.10409
 21
31.0957
  0
LINE
  8
0
 10
7.10409
 20
31.0957
 11
7.11151
 21
30.7989
  0
LINE
  8
0
 10
7.11151
 20
30.7989
 11
7.11332
 21
30.6523
  0
LINE
  8
0
 10
7.11332
 20
30.6523
 11
7.12741
 21
30.2781
  0
LINE
  8
0
 10
7.12741
 20
30.2781
 11
7.12691
 21
30.0316
  0
LINE
  8
0
 10
7.12691
 20
30.0316
 11
7.12638
 21
29.77
  0
LINE
  8
0
 10
7.12638
 20
29.77
 11
7.12076
 21
29.635
  0
LINE
  8
0
 10
7.12076
 20
29.635
 11
7.11332
 21
29.4564
  0
LINE
  8
0
 10
7.11332
 20
29.4564
 11
7.11174
 21
29.3408
  0
LINE
  8
0
 10
7.11174
 20
29.3408
 11
7.11045
 21
29.2462
  0
LINE
  8
0
 10
7.11045
 20
29.2462
 11
7.10662
 21
29.1002
  0
LINE
  8
0
 10
7.10662
 20
29.1002
 11
7.10409
 21
29.004
  0
LINE
  8
0
 10
7.10409
 20
29.004
 11
7.10409
 21
23.8662
  0
LINE
  8
0
 10
7.10409
 20
23.8662
 11
7.10997
 21
23.7845
  0
LINE
  8
0
 10
7.10997
 20
23.7845
 11
7.11332
 21
23.738
  0
LINE
  8
0
 10
7.11332
 20
23.738
 11
7.13408
 21
23.6436
  0
LINE
  8
0
 10
7.13408
 20
23.6436
 11
7.14079
 21
23.613
  0
LINE
  8
0
 10
7.14079
 20
23.613
 11
7.1803
 21
23.5088
  0
LINE
  8
0
 10
7.1803
 20
23.5088
 11
7.18583
 21
23.4942
  0
LINE
  8
0
 10
7.18583
 20
23.4942
 11
7.24719
 21
23.3849
  0
LINE
  8
0
 10
7.24719
 20
23.3849
 11
7.24732
 21
23.3846
  0
LINE
  8
0
 10
7.24732
 20
23.3846
 11
7.24884
 21
23.3827
  0
LINE
  8
0
 10
7.24884
 20
23.3827
 11
7.32376
 21
23.2777
  0
LINE
  8
0
 10
7.32376
 20
23.2777
 11
7.33538
 21
23.2658
  0
LINE
  8
0
 10
7.33538
 20
23.2658
 11
7.41325
 21
23.1862
  0
LINE
  8
0
 10
7.41325
 20
23.1862
 11
7.43772
 21
23.1682
  0
LINE
  8
0
 10
7.43772
 20
23.1682
 11
7.51359
 21
23.1126
  0
LINE
  8
0
 10
7.51359
 20
23.1126
 11
7.54985
 21
23.0946
  0
LINE
  8
0
 10
7.54985
 20
23.0946
 11
7.62232
 21
23.0587
  0
LINE
  8
0
 10
7.62232
 20
23.0587
 11
7.66745
 21
23.0457
  0
LINE
  8
0
 10
7.66745
 20
23.0457
 11
7.73676
 21
23.0258
  0
LINE
  8
0
 10
7.73676
 20
23.0258
 11
7.78659
 21
23.0211
  0
LINE
  8
0
 10
7.78659
 20
23.0211
 11
7.85409
 21
23.0147
  0
LINE
  8
0
 10
7.85409
 20
23.0147
 11
11
 21
23.0147
  0
LINE
  8
0
 10
11
 20
23.0147
 11
11
 21
45.5
  0
LINE
  8
0
 10
11
 20
45.5
 11
0
 21
45.5
  0
LINE
  8
0
 10
0
 20
45.5
 11
0
 21
42
  0
LINE
  8
0
 10
36.5
 20
0
 11
47.5
 21
0
  0
LINE
  8
0
 10
47.5
 20
0
 11
47.5
 21
3.5
  0
LINE
  8
0
 10
47.5
 20
3.5
 11
47
 21
4
  0
LINE
  8
0
 10
47
 20
4
 11
41.8959
 21
4
  0
LINE
  8
0
 10
41.8959
 20
4
 11
40.3959
 21
5.5
  0
LINE
  8
0
 10
40.3959
 20
5.5
 11
40.3959
 21
17.619
  0
LINE
  8
0
 10
40.3959
 20
17.619
 11
40.3946
 21
17.6442
  0
LINE
  8
0
 10
40.3946
 20
17.6442
 11
40.3867
 21
17.7907
  0
LINE
  8
0
 10
40.3867
 20
17.7907
 11
40.383
 21
17.8132
  0
LINE
  8
0
 10
40.383
 20
17.8132
 11
40.3592
 21
17.9581
  0
LINE
  8
0
 10
40.3592
 20
17.9581
 11
40.3537
 21
17.9776
  0
LINE
  8
0
 10
40.3537
 20
17.9776
 11
40.3142
 21
18.1172
  0
LINE
  8
0
 10
40.3142
 20
18.1172
 11
40.3073
 21
18.1335
  0
LINE
  8
0
 10
40.3073
 20
18.1335
 11
40.2527
 21
18.264
  0
LINE
  8
0
 10
40.2527
 20
18.264
 11
40.245
 21
18.2772
  0
LINE
  8
0
 10
40.245
 20
18.2772
 11
40.1762
 21
18.395
  0
LINE
  8
0
 10
40.1762
 20
18.395
 11
40.1681
 21
18.4052
  0
LINE
  8
0
 10
40.1681
 20
18.4052
 11
40.0868
 21
18.5068
  0
LINE
  8
0
 10
40.0868
 20
18.5068
 11
39.9864
 21
18.5968
  0
LINE
  8
0
 10
39.9864
 20
18.5968
 11
39.978
 21
18.6019
  0
LINE
  8
0
 10
39.978
 20
18.6019
 11
39.8777
 21
18.6627
  0
LINE
  8
0
 10
39.8777
 20
18.6627
 11
39.8694
 21
18.6656
  0
LINE
  8
0
 10
39.8694
 20
18.6656
 11
39.7632
 21
18.7029
  0
LINE
  8
0
 10
39.7632
 20
18.7029
 11
39.7551
 21
18.7038
  0
LINE
  8
0
 10
39.7551
 20
18.7038
 11
39.6459
 21
18.7164
  0
LINE
  8
0
 10
39.6459
 20
18.7164
 11
36.5
 21
18.7164
  0
LINE
  8
0
 10
36.5
 20
18.7164
 11
36.5
 21
0
  0
LINE
  8
0
 10
36.5
 20
23.0147
 11
39.6459
 21
23.0147
  0
LINE
  8
0
 10
39.6459
 20
23.0147
 11
39.6958
 21
23.0194
  0
LINE
  8
0
 10
39.6958
 20
23.0194
 11
39.7632
 21
23.0258
  0
LINE
  8
0
 10
39.7632
 20
23.0258
 11
39.8088
 21
23.0389
  0
LINE
  8
0
 10
39.8088
 20
23.0389
 11
39.8777
 21
23.0587
  0
LINE
  8
0
 10
39.8777
 20
23.0587
 11
39.9154
 21
23.0774
  0
LINE
  8
0
 10
39.9154
 20
23.0774
 11
39.9864
 21
23.1126
  0
LINE
  8
0
 10
39.9864
 20
23.1126
 11
40.0142
 21
23.133
  0
LINE
  8
0
 10
40.0142
 20
23.133
 11
40.0868
 21
23.1862
  0
LINE
  8
0
 10
40.0868
 20
23.1862
 11
40.104
 21
23.2039
  0
LINE
  8
0
 10
40.104
 20
23.2039
 11
40.1762
 21
23.2777
  0
LINE
  8
0
 10
40.1762
 20
23.2777
 11
40.1838
 21
23.2883
  0
LINE
  8
0
 10
40.1838
 20
23.2883
 11
40.2512
 21
23.3827
  0
LINE
  8
0
 10
40.2512
 20
23.3827
 11
40.2525
 21
23.3844
  0
LINE
  8
0
 10
40.2525
 20
23.3844
 11
40.2527
 21
23.3846
  0
LINE
  8
0
 10
40.2527
 20
23.3846
 11
40.3077
 21
23.4828
  0
LINE
  8
0
 10
40.3077
 20
23.4828
 11
40.3142
 21
23.4942
  0
LINE
  8
0
 10
40.3142
 20
23.4942
 11
40.3499
 21
23.5884
  0
LINE
  8
0
 10
40.3499
 20
23.5884
 11
40.3592
 21
23.613
  0
LINE
  8
0
 10
40.3592
 20
23.613
 11
40.3782
 21
23.6995
  0
LINE
  8
0
 10
40.3782
 20
23.6995
 11
40.3867
 21
23.738
  0
LINE
  8
0
 10
40.3867
 20
23.738
 11
40.3922
 21
23.8143
  0
LINE
  8
0
 10
40.3922
 20
23.8143
 11
40.3959
 21
23.8662
  0
LINE
  8
0
 10
40.3959
 20
23.8662
 11
40.3959
 21
29.004
  0
LINE
  8
0
 10
40.3959
 20
29.004
 11
40.3895
 21
29.2462
  0
LINE
  8
0
 10
40.3895
 20
29.2462
 11
40.3867
 21
29.4564
  0
LINE
  8
0
 10
40.3867
 20
29.4564
 11
40.3736
 21
29.77
  0
LINE
  8
0
 10
40.3736
 20
29.77
 11
40.3731
 21
30.0162
  0
LINE
  8
0
 10
40.3731
 20
30.0162
 11
40.3726
 21
30.2781
  0
LINE
  8
0
 10
40.3726
 20
30.2781
 11
40.3783
 21
30.4299
  0
LINE
  8
0
 10
40.3783
 20
30.4299
 11
40.3867
 21
30.6523
  0
LINE
  8
0
 10
40.3867
 20
30.6523
 11
40.3877
 21
30.7367
  0
LINE
  8
0
 10
40.3877
 20
30.7367
 11
40.3885
 21
30.7989
  0
LINE
  8
0
 10
40.3885
 20
30.7989
 11
40.3929
 21
30.9739
  0
LINE
  8
0
 10
40.3929
 20
30.9739
 11
40.3959
 21
31.0957
  0
LINE
  8
0
 10
40.3959
 20
31.0957
 11
40.3959
 21
40
  0
LINE
  8
0
 10
40.3959
 20
40
 11
41.8959
 21
41.5
  0
LINE
  8
0
 10
41.8959
 20
41.5
 11
47
 21
41.5
  0
LINE
  8
0
 10
47
 20
41.5
 11
47.5
 21
42
  0
LINE
  8
0
 10
47.5
 20
42
 11
47.5
 21
45.5
  0
LINE
  8
0
 10
47.5
 20
45.5
 11
36.5
 21
45.5
  0
LINE
  8
0
 10
36.5
 20
45.5
 11
36.5
 21
23.0147
  0
ENDSEC
  0
SECTION
  2
OBJECTS
  0
DICTIONARY
  0
ENDSEC
  0
EOF
