  0
SECTION
  2
BLOCKS
  0
ENDSEC
  0
SECTION
  2
ENTITIES
  0
LINE
  8
0
 10
0
 20
0
 11
2.65911
 21
0
  0
LINE
  8
0
 10
2.65911
 20
0
 11
2.65911
 21
4
  0
LINE
  8
0
 10
2.65911
 20
4
 11
0.499999
 21
4
  0
LINE
  8
0
 10
0.499999
 20
4
 11
0
 21
3.5
  0
LINE
  8
0
 10
0
 20
3.5
 11
0
 21
0
  0
LINE
  8
0
 10
0
 20
42
 11
0.499999
 21
41.5
  0
LINE
  8
0
 10
0.499999
 20
41.5
 11
2.65911
 21
41.5
  0
LINE
  8
0
 10
2.65911
 20
41.5
 11
2.65911
 21
45.5
  0
LINE
  8
0
 10
2.65911
 20
45.5
 11
0
 21
45.5
  0
LINE
  8
0
 10
0
 20
45.5
 11
0
 21
42
  0
LINE
  8
0
 10
4.83677
 20
0
 11
11
 21
0
  0
LINE
  8
0
 10
11
 20
0
 11
11
 21
17.6483
  0
LINE
  8
0
 10
11
 20
17.6483
 11
7.85409
 21
17.6483
  0
LINE
  8
0
 10
7.85409
 20
17.6483
 11
7.82886
 21
17.6454
  0
LINE
  8
0
 10
7.82886
 20
17.6454
 11
7.73676
 21
17.6348
  0
LINE
  8
0
 10
7.73676
 20
17.6348
 11
7.71199
 21
17.6261
  0
LINE
  8
0
 10
7.71199
 20
17.6261
 11
7.62232
 21
17.5946
  0
LINE
  8
0
 10
7.62232
 20
17.5946
 11
7.59843
 21
17.5801
  0
LINE
  8
0
 10
7.59843
 20
17.5801
 11
7.51359
 21
17.5287
  0
LINE
  8
0
 10
7.51359
 20
17.5287
 11
7.41325
 21
17.4387
  0
LINE
  8
0
 10
7.41325
 20
17.4387
 11
7.39249
 21
17.4128
  0
LINE
  8
0
 10
7.39249
 20
17.4128
 11
7.32376
 21
17.3269
  0
LINE
  8
0
 10
7.32376
 20
17.3269
 11
7.30537
 21
17.2954
  0
LINE
  8
0
 10
7.30537
 20
17.2954
 11
7.24732
 21
17.1959
  0
LINE
  8
0
 10
7.24732
 20
17.1959
 11
7.23192
 21
17.1592
  0
LINE
  8
0
 10
7.23192
 20
17.1592
 11
7.18583
 21
17.0491
  0
LINE
  8
0
 10
7.18583
 20
17.0491
 11
7.17405
 21
17.0075
  0
LINE
  8
0
 10
7.17405
 20
17.0075
 11
7.14079
 21
16.89
  0
LINE
  8
0
 10
7.14079
 20
16.89
 11
7.13328
 21
16.8442
  0
LINE
  8
0
 10
7.13328
 20
16.8442
 11
7.11332
 21
16.7226
  0
LINE
  8
0
 10
7.11332
 20
16.7226
 11
7.11068
 21
16.6735
  0
LINE
  8
0
 10
7.11068
 20
16.6735
 11
7.10409
 21
16.5509
  0
LINE
  8
0
 10
7.10409
 20
16.5509
 11
7.10409
 21
5.5
  0
LINE
  8
0
 10
7.10409
 20
5.5
 11
6.5
 21
4.89591
  0
LINE
  8
0
 10
6.5
 20
4.89591
 11
6.5
 21
4
  0
LINE
  8
0
 10
6.5
 20
4
 11
4.83677
 21
4
  0
LINE
  8
0
 10
4.83677
 20
4
 11
4.83677
 21
0
  0
LINE
  8
0
 10
4.83677
 20
41.5
 11
6.5
 21
41.5
  0
LINE
  8
0
 10
6.5
 20
41.5
 11
6.5
 21
40.6041
  0
LINE
  8
0
 10
6.5
 20
40.6041
 11
7.10409
 21
40
  0
LINE
  8
0
 10
7.10409
 20
40
 11
7.10409
 21
32.553
  0
LINE
  8
0
 10
7.10409
 20
32.553
 11
7.10554
 21
32.5279
  0
LINE
  8
0
 10
7.10554
 20
32.5279
 11
7.11332
 21
32.3929
  0
LINE
  8
0
 10
7.11332
 20
32.3929
 11
7.12464
 21
32.3285
  0
LINE
  8
0
 10
7.12464
 20
32.3285
 11
7.14079
 21
32.2366
  0
LINE
  8
0
 10
7.14079
 20
32.2366
 11
7.17127
 21
32.1362
  0
LINE
  8
0
 10
7.17127
 20
32.1362
 11
7.18583
 21
32.0882
  0
LINE
  8
0
 10
7.18583
 20
32.0882
 11
7.2435
 21
31.9597
  0
LINE
  8
0
 10
7.2435
 20
31.9597
 11
7.24732
 21
31.9512
  0
LINE
  8
0
 10
7.24732
 20
31.9512
 11
7.26712
 21
31.9196
  0
LINE
  8
0
 10
7.26712
 20
31.9196
 11
7.32376
 21
31.8108
  0
LINE
  8
0
 10
7.32376
 20
31.8108
 11
7.34485
 21
31.7812
  0
LINE
  8
0
 10
7.34485
 20
31.7812
 11
7.41325
 21
31.6854
  0
LINE
  8
0
 10
7.41325
 20
31.6854
 11
7.463
 21
31.6354
  0
LINE
  8
0
 10
7.463
 20
31.6354
 11
7.51359
 21
31.5846
  0
LINE
  8
0
 10
7.51359
 20
31.5846
 11
7.58804
 21
31.534
  0
LINE
  8
0
 10
7.58804
 20
31.534
 11
7.62232
 21
31.5107
  0
LINE
  8
0
 10
7.62232
 20
31.5107
 11
7.71372
 21
31.4747
  0
LINE
  8
0
 10
7.71372
 20
31.4747
 11
7.73676
 21
31.4656
  0
LINE
  8
0
 10
7.73676
 20
31.4656
 11
7.83542
 21
31.4529
  0
LINE
  8
0
 10
7.83542
 20
31.4529
 11
7.85409
 21
31.4505
  0
LINE
  8
0
 10
7.85409
 20
31.4505
 11
11
 21
31.4505
  0
LINE
  8
0
 10
11
 20
31.4505
 11
11
 21
45.5
  0
LINE
  8
0
 10
11
 20
45.5
 11
4.83677
 21
45.5
  0
LINE
  8
0
 10
4.83677
 20
45.5
 11
4.83677
 21
41.5
  0
LINE
  8
0
 10
7.10409
 20
24.1448
 11
7.11
 21
24.0695
  0
LINE
  8
0
 10
7.11
 20
24.0695
 11
7.11332
 21
24.0274
  0
LINE
  8
0
 10
7.11332
 20
24.0274
 11
7.13165
 21
23.951
  0
LINE
  8
0
 10
7.13165
 20
23.951
 11
7.14079
 21
23.9129
  0
LINE
  8
0
 10
7.14079
 20
23.9129
 11
7.17205
 21
23.8373
  0
LINE
  8
0
 10
7.17205
 20
23.8373
 11
7.18583
 21
23.804
  0
LINE
  8
0
 10
7.18583
 20
23.804
 11
7.23015
 21
23.7317
  0
LINE
  8
0
 10
7.23015
 20
23.7317
 11
7.24732
 21
23.7036
  0
LINE
  8
0
 10
7.24732
 20
23.7036
 11
7.30436
 21
23.6368
  0
LINE
  8
0
 10
7.30436
 20
23.6368
 11
7.32376
 21
23.6141
  0
LINE
  8
0
 10
7.32376
 20
23.6141
 11
7.39262
 21
23.5552
  0
LINE
  8
0
 10
7.39262
 20
23.5552
 11
7.41325
 21
23.5376
  0
LINE
  8
0
 10
7.41325
 20
23.5376
 11
7.49243
 21
23.489
  0
LINE
  8
0
 10
7.49243
 20
23.489
 11
7.51359
 21
23.476
  0
LINE
  8
0
 10
7.51359
 20
23.476
 11
7.60102
 21
23.4398
  0
LINE
  8
0
 10
7.60102
 20
23.4398
 11
7.62232
 21
23.431
  0
LINE
  8
0
 10
7.62232
 20
23.431
 11
7.71542
 21
23.4086
  0
LINE
  8
0
 10
7.71542
 20
23.4086
 11
7.73676
 21
23.4035
  0
LINE
  8
0
 10
7.73676
 20
23.4035
 11
7.83259
 21
23.3959
  0
LINE
  8
0
 10
7.83259
 20
23.3959
 11
7.85409
 21
23.3942
  0
LINE
  8
0
 10
7.85409
 20
23.3942
 11
11
 21
23.3942
  0
LINE
  8
0
 10
11
 20
23.3942
 11
11
 21
28.6451
  0
LINE
  8
0
 10
11
 20
28.6451
 11
7.85409
 21
28.6451
  0
LINE
  8
0
 10
7.85409
 20
28.6451
 11
7.74721
 21
28.6316
  0
LINE
  8
0
 10
7.74721
 20
28.6316
 11
7.73676
 21
28.6303
  0
LINE
  8
0
 10
7.73676
 20
28.6303
 11
7.64127
 21
28.5935
  0
LINE
  8
0
 10
7.64127
 20
28.5935
 11
7.62232
 21
28.5862
  0
LINE
  8
0
 10
7.62232
 20
28.5862
 11
7.54424
 21
28.5342
  0
LINE
  8
0
 10
7.54424
 20
28.5342
 11
7.51359
 21
28.5139
  0
LINE
  8
0
 10
7.51359
 20
28.5139
 11
7.45615
 21
28.4574
  0
LINE
  8
0
 10
7.45615
 20
28.4574
 11
7.41325
 21
28.4152
  0
LINE
  8
0
 10
7.41325
 20
28.4152
 11
7.37689
 21
28.3653
  0
LINE
  8
0
 10
7.37689
 20
28.3653
 11
7.32376
 21
28.2925
  0
LINE
  8
0
 10
7.32376
 20
28.2925
 11
7.30642
 21
28.2599
  0
LINE
  8
0
 10
7.30642
 20
28.2599
 11
7.24732
 21
28.1488
  0
LINE
  8
0
 10
7.24732
 20
28.1488
 11
7.24487
 21
28.1424
  0
LINE
  8
0
 10
7.24487
 20
28.1424
 11
7.23487
 21
28.1162
  0
LINE
  8
0
 10
7.23487
 20
28.1162
 11
7.18583
 21
27.9991
  0
LINE
  8
0
 10
7.18583
 20
27.9991
 11
7.18564
 21
27.9984
  0
LINE
  8
0
 10
7.18564
 20
27.9984
 11
7.14079
 21
27.84
  0
LINE
  8
0
 10
7.14079
 20
27.84
 11
7.14052
 21
27.8383
  0
LINE
  8
0
 10
7.14052
 20
27.8383
 11
7.11332
 21
27.6726
  0
LINE
  8
0
 10
7.11332
 20
27.6726
 11
7.11317
 21
27.6698
  0
LINE
  8
0
 10
7.11317
 20
27.6698
 11
7.10409
 21
27.5009
  0
LINE
  8
0
 10
7.10409
 20
27.5009
 11
7.10409
 21
24.1448
  0
LINE
  8
0
 10
36.5
 20
0
 11
42.6591
 21
0
  0
LINE
  8
0
 10
42.6591
 20
0
 11
42.6591
 21
4
  0
LINE
  8
0
 10
42.6591
 20
4
 11
41
 21
4
  0
LINE
  8
0
 10
41
 20
4
 11
41
 21
4.89591
  0
LINE
  8
0
 10
41
 20
4.89591
 11
40.3959
 21
5.5
  0
LINE
  8
0
 10
40.3959
 20
5.5
 11
40.3959
 21
16.5509
  0
LINE
  8
0
 10
40.3959
 20
16.5509
 11
40.3932
 21
16.6009
  0
LINE
  8
0
 10
40.3932
 20
16.6009
 11
40.3867
 21
16.7226
  0
LINE
  8
0
 10
40.3867
 20
16.7226
 11
40.379
 21
16.7693
  0
LINE
  8
0
 10
40.379
 20
16.7693
 11
40.3592
 21
16.89
  0
LINE
  8
0
 10
40.3592
 20
16.89
 11
40.3472
 21
16.9325
  0
LINE
  8
0
 10
40.3472
 20
16.9325
 11
40.3142
 21
17.0491
  0
LINE
  8
0
 10
40.3142
 20
17.0491
 11
40.2984
 21
17.0867
  0
LINE
  8
0
 10
40.2984
 20
17.0867
 11
40.2527
 21
17.1959
  0
LINE
  8
0
 10
40.2527
 20
17.1959
 11
40.2339
 21
17.2281
  0
LINE
  8
0
 10
40.2339
 20
17.2281
 11
40.1762
 21
17.3269
  0
LINE
  8
0
 10
40.1762
 20
17.3269
 11
40.1551
 21
17.3533
  0
LINE
  8
0
 10
40.1551
 20
17.3533
 11
40.0868
 21
17.4387
  0
LINE
  8
0
 10
40.0868
 20
17.4387
 11
39.9864
 21
17.5287
  0
LINE
  8
0
 10
39.9864
 20
17.5287
 11
39.9622
 21
17.5433
  0
LINE
  8
0
 10
39.9622
 20
17.5433
 11
39.8777
 21
17.5946
  0
LINE
  8
0
 10
39.8777
 20
17.5946
 11
39.8527
 21
17.6033
  0
LINE
  8
0
 10
39.8527
 20
17.6033
 11
39.7632
 21
17.6348
  0
LINE
  8
0
 10
39.7632
 20
17.6348
 11
39.7379
 21
17.6377
  0
LINE
  8
0
 10
39.7379
 20
17.6377
 11
39.6459
 21
17.6483
  0
LINE
  8
0
 10
39.6459
 20
17.6483
 11
36.5
 21
17.6483
  0
LINE
  8
0
 10
36.5
 20
17.6483
 11
36.5
 21
0
  0
LINE
  8
0
 10
36.5
 20
23.3942
 11
39.6459
 21
23.3942
  0
LINE
  8
0
 10
39.6459
 20
23.3942
 11
39.7414
 21
23.4018
  0
LINE
  8
0
 10
39.7414
 20
23.4018
 11
39.7632
 21
23.4035
  0
LINE
  8
0
 10
39.7632
 20
23.4035
 11
39.8553
 21
23.4256
  0
LINE
  8
0
 10
39.8553
 20
23.4256
 11
39.8777
 21
23.431
  0
LINE
  8
0
 10
39.8777
 20
23.431
 11
39.9635
 21
23.4666
  0
LINE
  8
0
 10
39.9635
 20
23.4666
 11
39.9864
 21
23.476
  0
LINE
  8
0
 10
39.9864
 20
23.476
 11
40.0637
 21
23.5234
  0
LINE
  8
0
 10
40.0637
 20
23.5234
 11
40.0868
 21
23.5376
  0
LINE
  8
0
 10
40.0868
 20
23.5376
 11
40.1536
 21
23.5947
  0
LINE
  8
0
 10
40.1536
 20
23.5947
 11
40.1762
 21
23.6141
  0
LINE
  8
0
 10
40.1762
 20
23.6141
 11
40.2314
 21
23.6787
  0
LINE
  8
0
 10
40.2314
 20
23.6787
 11
40.2527
 21
23.7036
  0
LINE
  8
0
 10
40.2527
 20
23.7036
 11
40.2954
 21
23.7734
  0
LINE
  8
0
 10
40.2954
 20
23.7734
 11
40.3142
 21
23.804
  0
LINE
  8
0
 10
40.3142
 20
23.804
 11
40.3443
 21
23.8768
  0
LINE
  8
0
 10
40.3443
 20
23.8768
 11
40.3592
 21
23.9129
  0
LINE
  8
0
 10
40.3592
 20
23.9129
 11
40.3768
 21
23.9864
  0
LINE
  8
0
 10
40.3768
 20
23.9864
 11
40.3867
 21
24.0274
  0
LINE
  8
0
 10
40.3867
 20
24.0274
 11
40.3924
 21
24.0998
  0
LINE
  8
0
 10
40.3924
 20
24.0998
 11
40.3959
 21
24.1448
  0
LINE
  8
0
 10
40.3959
 20
24.1448
 11
40.3959
 21
27.5009
  0
LINE
  8
0
 10
40.3959
 20
27.5009
 11
40.3957
 21
27.5047
  0
LINE
  8
0
 10
40.3957
 20
27.5047
 11
40.3867
 21
27.6726
  0
LINE
  8
0
 10
40.3867
 20
27.6726
 11
40.3862
 21
27.6753
  0
LINE
  8
0
 10
40.3862
 20
27.6753
 11
40.3592
 21
27.84
  0
LINE
  8
0
 10
40.3592
 20
27.84
 11
40.3588
 21
27.8416
  0
LINE
  8
0
 10
40.3588
 20
27.8416
 11
40.3142
 21
27.9991
  0
LINE
  8
0
 10
40.3142
 20
27.9991
 11
40.3139
 21
27.9997
  0
LINE
  8
0
 10
40.3139
 20
27.9997
 11
40.2651
 21
28.1162
  0
LINE
  8
0
 10
40.2651
 20
28.1162
 11
40.2527
 21
28.1488
  0
LINE
  8
0
 10
40.2527
 20
28.1488
 11
40.2474
 21
28.1588
  0
LINE
  8
0
 10
40.2474
 20
28.1588
 11
40.1762
 21
28.2925
  0
LINE
  8
0
 10
40.1762
 20
28.2925
 11
40.1429
 21
28.3382
  0
LINE
  8
0
 10
40.1429
 20
28.3382
 11
40.0868
 21
28.4152
  0
LINE
  8
0
 10
40.0868
 20
28.4152
 11
40.0247
 21
28.4762
  0
LINE
  8
0
 10
40.0247
 20
28.4762
 11
39.9864
 21
28.5139
  0
LINE
  8
0
 10
39.9864
 20
28.5139
 11
39.8999
 21
28.5714
  0
LINE
  8
0
 10
39.8999
 20
28.5714
 11
39.8777
 21
28.5862
  0
LINE
  8
0
 10
39.8777
 20
28.5862
 11
39.7746
 21
28.6259
  0
LINE
  8
0
 10
39.7746
 20
28.6259
 11
39.7632
 21
28.6303
  0
LINE
  8
0
 10
39.7632
 20
28.6303
 11
39.6533
 21
28.6441
  0
LINE
  8
0
 10
39.6533
 20
28.6441
 11
39.6459
 21
28.6451
  0
LINE
  8
0
 10
39.6459
 20
28.6451
 11
36.5
 21
28.6451
  0
LINE
  8
0
 10
36.5
 20
28.6451
 11
36.5
 21
23.3942
  0
LINE
  8
0
 10
36.5
 20
31.4505
 11
39.6459
 21
31.4505
  0
LINE
  8
0
 10
39.6459
 20
31.4505
 11
39.7421
 21
31.4629
  0
LINE
  8
0
 10
39.7421
 20
31.4629
 11
39.7632
 21
31.4656
  0
LINE
  8
0
 10
39.7632
 20
31.4656
 11
39.8486
 21
31.4992
  0
LINE
  8
0
 10
39.8486
 20
31.4992
 11
39.8777
 21
31.5107
  0
LINE
  8
0
 10
39.8777
 20
31.5107
 11
39.9464
 21
31.5574
  0
LINE
  8
0
 10
39.9464
 20
31.5574
 11
39.9864
 21
31.5846
  0
LINE
  8
0
 10
39.9864
 20
31.5846
 11
40.0353
 21
31.6337
  0
LINE
  8
0
 10
40.0353
 20
31.6337
 11
40.0868
 21
31.6854
  0
LINE
  8
0
 10
40.0868
 20
31.6854
 11
40.1155
 21
31.7257
  0
LINE
  8
0
 10
40.1155
 20
31.7257
 11
40.1762
 21
31.8108
  0
LINE
  8
0
 10
40.1762
 20
31.8108
 11
40.187
 21
31.8315
  0
LINE
  8
0
 10
40.187
 20
31.8315
 11
40.2329
 21
31.9196
  0
LINE
  8
0
 10
40.2329
 20
31.9196
 11
40.2493
 21
31.9459
  0
LINE
  8
0
 10
40.2493
 20
31.9459
 11
40.2527
 21
31.9512
  0
LINE
  8
0
 10
40.2527
 20
31.9512
 11
40.3005
 21
32.0578
  0
LINE
  8
0
 10
40.3005
 20
32.0578
 11
40.3142
 21
32.0882
  0
LINE
  8
0
 10
40.3142
 20
32.0882
 11
40.3412
 21
32.1774
  0
LINE
  8
0
 10
40.3412
 20
32.1774
 11
40.3592
 21
32.2366
  0
LINE
  8
0
 10
40.3592
 20
32.2366
 11
40.3709
 21
32.3034
  0
LINE
  8
0
 10
40.3709
 20
32.3034
 11
40.3867
 21
32.3929
  0
LINE
  8
0
 10
40.3867
 20
32.3929
 11
40.3891
 21
32.4345
  0
LINE
  8
0
 10
40.3891
 20
32.4345
 11
40.3959
 21
32.553
  0
LINE
  8
0
 10
40.3959
 20
32.553
 11
40.3959
 21
40
  0
LINE
  8
0
 10
40.3959
 20
40
 11
41
 21
40.6041
  0
LINE
  8
0
 10
41
 20
40.6041
 11
41
 21
41.5
  0
LINE
  8
0
 10
41
 20
41.5
 11
42.6591
 21
41.5
  0
LINE
  8
0
 10
42.6591
 20
41.5
 11
42.6591
 21
45.5
  0
LINE
  8
0
 10
42.6591
 20
45.5
 11
36.5
 21
45.5
  0
LINE
  8
0
 10
36.5
 20
45.5
 11
36.5
 21
31.4505
  0
LINE
  8
0
 10
44.8368
 20
0
 11
47.5
 21
0
  0
LINE
  8
0
 10
47.5
 20
0
 11
47.5
 21
3.5
  0
LINE
  8
0
 10
47.5
 20
3.5
 11
47
 21
4
  0
LINE
  8
0
 10
47
 20
4
 11
44.8368
 21
4
  0
LINE
  8
0
 10
44.8368
 20
4
 11
44.8368
 21
0
  0
LINE
  8
0
 10
44.8368
 20
41.5
 11
47
 21
41.5
  0
LINE
  8
0
 10
47
 20
41.5
 11
47.5
 21
42
  0
LINE
  8
0
 10
47.5
 20
42
 11
47.5
 21
45.5
  0
LINE
  8
0
 10
47.5
 20
45.5
 11
44.8368
 21
45.5
  0
LINE
  8
0
 10
44.8368
 20
45.5
 11
44.8368
 21
41.5
  0
ENDSEC
  0
SECTION
  2
OBJECTS
  0
DICTIONARY
  0
ENDSEC
  0
EOF
