  0
SECTION
  2
BLOCKS
  0
ENDSEC
  0
SECTION
  2
ENTITIES
  0
LINE
  8
0
 10
0
 20
0
 11
2.07776
 21
0
  0
LINE
  8
0
 10
2.07776
 20
0
 11
2.07776
 21
4
  0
LINE
  8
0
 10
2.07776
 20
4
 11
0.499999
 21
4
  0
LINE
  8
0
 10
0.499999
 20
4
 11
0
 21
3.5
  0
LINE
  8
0
 10
0
 20
3.5
 11
0
 21
0
  0
LINE
  8
0
 10
0
 20
42
 11
0.499999
 21
41.5
  0
LINE
  8
0
 10
0.499999
 20
41.5
 11
2.07776
 21
41.5
  0
LINE
  8
0
 10
2.07776
 20
41.5
 11
2.07776
 21
45.5
  0
LINE
  8
0
 10
2.07776
 20
45.5
 11
0
 21
45.5
  0
LINE
  8
0
 10
0
 20
45.5
 11
0
 21
42
  0
LINE
  8
0
 10
5.41715
 20
0
 11
11
 21
0
  0
LINE
  8
0
 10
11
 20
0
 11
11
 21
16.5802
  0
LINE
  8
0
 10
11
 20
16.5802
 11
7.85409
 21
16.5802
  0
LINE
  8
0
 10
7.85409
 20
16.5802
 11
7.81168
 21
16.5753
  0
LINE
  8
0
 10
7.81168
 20
16.5753
 11
7.73676
 21
16.5667
  0
LINE
  8
0
 10
7.73676
 20
16.5667
 11
7.6952
 21
16.5521
  0
LINE
  8
0
 10
7.6952
 20
16.5521
 11
7.62232
 21
16.5265
  0
LINE
  8
0
 10
7.62232
 20
16.5265
 11
7.58244
 21
16.5023
  0
LINE
  8
0
 10
7.58244
 20
16.5023
 11
7.51359
 21
16.4606
  0
LINE
  8
0
 10
7.51359
 20
16.4606
 11
7.41325
 21
16.3706
  0
LINE
  8
0
 10
7.41325
 20
16.3706
 11
7.37928
 21
16.3282
  0
LINE
  8
0
 10
7.37928
 20
16.3282
 11
7.32376
 21
16.2588
  0
LINE
  8
0
 10
7.32376
 20
16.2588
 11
7.29408
 21
16.2079
  0
LINE
  8
0
 10
7.29408
 20
16.2079
 11
7.24732
 21
16.1278
  0
LINE
  8
0
 10
7.24732
 20
16.1278
 11
7.22282
 21
16.0693
  0
LINE
  8
0
 10
7.22282
 20
16.0693
 11
7.18583
 21
15.981
  0
LINE
  8
0
 10
7.18583
 20
15.981
 11
7.16738
 21
15.9158
  0
LINE
  8
0
 10
7.16738
 20
15.9158
 11
7.14079
 21
15.8219
  0
LINE
  8
0
 10
7.14079
 20
15.8219
 11
7.12921
 21
15.7513
  0
LINE
  8
0
 10
7.12921
 20
15.7513
 11
7.11332
 21
15.6545
  0
LINE
  8
0
 10
7.11332
 20
15.6545
 11
7.10931
 21
15.5799
  0
LINE
  8
0
 10
7.10931
 20
15.5799
 11
7.10409
 21
15.4828
  0
LINE
  8
0
 10
7.10409
 20
15.4828
 11
7.10409
 21
5.5
  0
LINE
  8
0
 10
7.10409
 20
5.5
 11
6.5
 21
4.89591
  0
LINE
  8
0
 10
6.5
 20
4.89591
 11
6.5
 21
4
  0
LINE
  8
0
 10
6.5
 20
4
 11
5.41715
 21
4
  0
LINE
  8
0
 10
5.41715
 20
4
 11
5.41715
 21
0
  0
LINE
  8
0
 10
5.41715
 20
41.5
 11
6.5
 21
41.5
  0
LINE
  8
0
 10
6.5
 20
41.5
 11
6.5
 21
40.6041
  0
LINE
  8
0
 10
6.5
 20
40.6041
 11
7.10409
 21
40
  0
LINE
  8
0
 10
7.10409
 20
40
 11
7.10409
 21
33.119
  0
LINE
  8
0
 10
7.10409
 20
33.119
 11
7.10777
 21
33.0707
  0
LINE
  8
0
 10
7.10777
 20
33.0707
 11
7.11332
 21
32.9937
  0
LINE
  8
0
 10
7.11332
 20
32.9937
 11
7.11487
 21
32.9867
  0
LINE
  8
0
 10
7.11487
 20
32.9867
 11
7.14079
 21
32.8687
  0
LINE
  8
0
 10
7.14079
 20
32.8687
 11
7.14768
 21
32.8506
  0
LINE
  8
0
 10
7.14768
 20
32.8506
 11
7.18583
 21
32.75
  0
LINE
  8
0
 10
7.18583
 20
32.75
 11
7.20124
 21
32.7225
  0
LINE
  8
0
 10
7.20124
 20
32.7225
 11
7.24732
 21
32.6404
  0
LINE
  8
0
 10
7.24732
 20
32.6404
 11
7.27368
 21
32.6067
  0
LINE
  8
0
 10
7.27368
 20
32.6067
 11
7.32376
 21
32.5426
  0
LINE
  8
0
 10
7.32376
 20
32.5426
 11
7.36236
 21
32.5066
  0
LINE
  8
0
 10
7.36236
 20
32.5066
 11
7.41325
 21
32.4591
  0
LINE
  8
0
 10
7.41325
 20
32.4591
 11
7.46396
 21
32.4252
  0
LINE
  8
0
 10
7.46396
 20
32.4252
 11
7.51359
 21
32.392
  0
LINE
  8
0
 10
7.51359
 20
32.392
 11
7.57479
 21
32.3643
  0
LINE
  8
0
 10
7.57479
 20
32.3643
 11
7.62232
 21
32.3428
  0
LINE
  8
0
 10
7.62232
 20
32.3428
 11
7.69108
 21
32.3247
  0
LINE
  8
0
 10
7.69108
 20
32.3247
 11
7.73676
 21
32.3128
  0
LINE
  8
0
 10
7.73676
 20
32.3128
 11
7.80924
 21
32.3065
  0
LINE
  8
0
 10
7.80924
 20
32.3065
 11
7.85409
 21
32.3027
  0
LINE
  8
0
 10
7.85409
 20
32.3027
 11
11
 21
32.3027
  0
LINE
  8
0
 10
11
 20
32.3027
 11
11
 21
45.5
  0
LINE
  8
0
 10
11
 20
45.5
 11
5.41715
 21
45.5
  0
LINE
  8
0
 10
5.41715
 20
45.5
 11
5.41715
 21
41.5
  0
LINE
  8
0
 10
7.10409
 20
24.102
 11
7.11069
 21
24.0159
  0
LINE
  8
0
 10
7.11069
 20
24.0159
 11
7.11332
 21
23.9817
  0
LINE
  8
0
 10
7.11332
 20
23.9817
 11
7.13175
 21
23.9029
  0
LINE
  8
0
 10
7.13175
 20
23.9029
 11
7.14079
 21
23.8643
  0
LINE
  8
0
 10
7.14079
 20
23.8643
 11
7.16891
 21
23.7947
  0
LINE
  8
0
 10
7.16891
 20
23.7947
 11
7.18583
 21
23.7527
  0
LINE
  8
0
 10
7.18583
 20
23.7527
 11
7.22132
 21
23.6933
  0
LINE
  8
0
 10
7.22132
 20
23.6933
 11
7.24732
 21
23.6498
  0
LINE
  8
0
 10
7.24732
 20
23.6498
 11
7.28789
 21
23.6011
  0
LINE
  8
0
 10
7.28789
 20
23.6011
 11
7.32376
 21
23.558
  0
LINE
  8
0
 10
7.32376
 20
23.558
 11
7.36734
 21
23.5198
  0
LINE
  8
0
 10
7.36734
 20
23.5198
 11
7.41325
 21
23.4796
  0
LINE
  8
0
 10
7.41325
 20
23.4796
 11
7.45816
 21
23.4513
  0
LINE
  8
0
 10
7.45816
 20
23.4513
 11
7.51359
 21
23.4165
  0
LINE
  8
0
 10
7.51359
 20
23.4165
 11
7.55866
 21
23.3973
  0
LINE
  8
0
 10
7.55866
 20
23.3973
 11
7.62232
 21
23.3703
  0
LINE
  8
0
 10
7.62232
 20
23.3703
 11
7.66694
 21
23.3593
  0
LINE
  8
0
 10
7.66694
 20
23.3593
 11
7.73676
 21
23.3421
  0
LINE
  8
0
 10
7.73676
 20
23.3421
 11
7.7808
 21
23.3385
  0
LINE
  8
0
 10
7.7808
 20
23.3385
 11
7.85409
 21
23.3326
  0
LINE
  8
0
 10
7.85409
 20
23.3326
 11
11
 21
23.3326
  0
LINE
  8
0
 10
11
 20
23.3326
 11
11
 21
27.5302
  0
LINE
  8
0
 10
11
 20
27.5302
 11
7.85409
 21
27.5302
  0
LINE
  8
0
 10
7.85409
 20
27.5302
 11
7.73676
 21
27.5166
  0
LINE
  8
0
 10
7.73676
 20
27.5166
 11
7.73034
 21
27.5144
  0
LINE
  8
0
 10
7.73034
 20
27.5144
 11
7.62232
 21
27.4765
  0
LINE
  8
0
 10
7.62232
 20
27.4765
 11
7.61605
 21
27.4727
  0
LINE
  8
0
 10
7.61605
 20
27.4727
 11
7.51359
 21
27.4106
  0
LINE
  8
0
 10
7.51359
 20
27.4106
 11
7.50756
 21
27.4051
  0
LINE
  8
0
 10
7.50756
 20
27.4051
 11
7.41325
 21
27.3206
  0
LINE
  8
0
 10
7.41325
 20
27.3206
 11
7.40757
 21
27.3135
  0
LINE
  8
0
 10
7.40757
 20
27.3135
 11
7.32376
 21
27.2087
  0
LINE
  8
0
 10
7.32376
 20
27.2087
 11
7.31859
 21
27.1999
  0
LINE
  8
0
 10
7.31859
 20
27.1999
 11
7.24732
 21
27.0778
  0
LINE
  8
0
 10
7.24732
 20
27.0778
 11
7.24287
 21
27.0672
  0
LINE
  8
0
 10
7.24287
 20
27.0672
 11
7.18583
 21
26.931
  0
LINE
  8
0
 10
7.18583
 20
26.931
 11
7.18232
 21
26.9186
  0
LINE
  8
0
 10
7.18232
 20
26.9186
 11
7.14079
 21
26.7719
  0
LINE
  8
0
 10
7.14079
 20
26.7719
 11
7.13849
 21
26.7579
  0
LINE
  8
0
 10
7.13849
 20
26.7579
 11
7.11332
 21
26.6044
  0
LINE
  8
0
 10
7.11332
 20
26.6044
 11
7.11249
 21
26.589
  0
LINE
  8
0
 10
7.11249
 20
26.589
 11
7.10409
 21
26.4328
  0
LINE
  8
0
 10
7.10409
 20
26.4328
 11
7.10409
 21
24.102
  0
LINE
  8
0
 10
36.5
 20
0
 11
42.0778
 21
0
  0
LINE
  8
0
 10
42.0778
 20
0
 11
42.0778
 21
4
  0
LINE
  8
0
 10
42.0778
 20
4
 11
41
 21
4
  0
LINE
  8
0
 10
41
 20
4
 11
41
 21
4.89591
  0
LINE
  8
0
 10
41
 20
4.89591
 11
40.3959
 21
5.5
  0
LINE
  8
0
 10
40.3959
 20
5.5
 11
40.3959
 21
15.4828
  0
LINE
  8
0
 10
40.3959
 20
15.4828
 11
40.3919
 21
15.5576
  0
LINE
  8
0
 10
40.3919
 20
15.5576
 11
40.3867
 21
15.6545
  0
LINE
  8
0
 10
40.3867
 20
15.6545
 11
40.375
 21
15.7254
  0
LINE
  8
0
 10
40.375
 20
15.7254
 11
40.3592
 21
15.8219
  0
LINE
  8
0
 10
40.3592
 20
15.8219
 11
40.3407
 21
15.8874
  0
LINE
  8
0
 10
40.3407
 20
15.8874
 11
40.3142
 21
15.981
  0
LINE
  8
0
 10
40.3142
 20
15.981
 11
40.2895
 21
16.0398
  0
LINE
  8
0
 10
40.2895
 20
16.0398
 11
40.2527
 21
16.1278
  0
LINE
  8
0
 10
40.2527
 20
16.1278
 11
40.2228
 21
16.1789
  0
LINE
  8
0
 10
40.2228
 20
16.1789
 11
40.1762
 21
16.2588
  0
LINE
  8
0
 10
40.1762
 20
16.2588
 11
40.1421
 21
16.3014
  0
LINE
  8
0
 10
40.1421
 20
16.3014
 11
40.0868
 21
16.3706
  0
LINE
  8
0
 10
40.0868
 20
16.3706
 11
39.9864
 21
16.4606
  0
LINE
  8
0
 10
39.9864
 20
16.4606
 11
39.9464
 21
16.4848
  0
LINE
  8
0
 10
39.9464
 20
16.4848
 11
39.8777
 21
16.5265
  0
LINE
  8
0
 10
39.8777
 20
16.5265
 11
39.836
 21
16.5411
  0
LINE
  8
0
 10
39.836
 20
16.5411
 11
39.7632
 21
16.5667
  0
LINE
  8
0
 10
39.7632
 20
16.5667
 11
39.7208
 21
16.5716
  0
LINE
  8
0
 10
39.7208
 20
16.5716
 11
39.6459
 21
16.5802
  0
LINE
  8
0
 10
39.6459
 20
16.5802
 11
36.5
 21
16.5802
  0
LINE
  8
0
 10
36.5
 20
16.5802
 11
36.5
 21
0
  0
LINE
  8
0
 10
36.5
 20
23.3326
 11
39.6459
 21
23.3326
  0
LINE
  8
0
 10
39.6459
 20
23.3326
 11
39.6896
 21
23.3361
  0
LINE
  8
0
 10
39.6896
 20
23.3361
 11
39.7632
 21
23.3421
  0
LINE
  8
0
 10
39.7632
 20
23.3421
 11
39.8068
 21
23.3528
  0
LINE
  8
0
 10
39.8068
 20
23.3528
 11
39.8777
 21
23.3703
  0
LINE
  8
0
 10
39.8777
 20
23.3703
 11
39.9213
 21
23.3888
  0
LINE
  8
0
 10
39.9213
 20
23.3888
 11
39.9864
 21
23.4165
  0
LINE
  8
0
 10
39.9864
 20
23.4165
 11
40.0297
 21
23.4437
  0
LINE
  8
0
 10
40.0297
 20
23.4437
 11
40.0868
 21
23.4796
  0
LINE
  8
0
 10
40.0868
 20
23.4796
 11
40.1289
 21
23.5165
  0
LINE
  8
0
 10
40.1289
 20
23.5165
 11
40.1762
 21
23.558
  0
LINE
  8
0
 10
40.1762
 20
23.558
 11
40.2157
 21
23.6054
  0
LINE
  8
0
 10
40.2157
 20
23.6054
 11
40.2527
 21
23.6498
  0
LINE
  8
0
 10
40.2527
 20
23.6498
 11
40.2875
 21
23.7082
  0
LINE
  8
0
 10
40.2875
 20
23.7082
 11
40.3142
 21
23.7527
  0
LINE
  8
0
 10
40.3142
 20
23.7527
 11
40.342
 21
23.8218
  0
LINE
  8
0
 10
40.342
 20
23.8218
 11
40.3592
 21
23.8643
  0
LINE
  8
0
 10
40.3592
 20
23.8643
 11
40.3776
 21
23.943
  0
LINE
  8
0
 10
40.3776
 20
23.943
 11
40.3867
 21
23.9817
  0
LINE
  8
0
 10
40.3867
 20
23.9817
 11
40.3933
 21
24.0685
  0
LINE
  8
0
 10
40.3933
 20
24.0685
 11
40.3959
 21
24.102
  0
LINE
  8
0
 10
40.3959
 20
24.102
 11
40.3959
 21
26.4328
  0
LINE
  8
0
 10
40.3959
 20
26.4328
 11
40.395
 21
26.4491
  0
LINE
  8
0
 10
40.395
 20
26.4491
 11
40.3867
 21
26.6044
  0
LINE
  8
0
 10
40.3867
 20
26.6044
 11
40.3842
 21
26.6193
  0
LINE
  8
0
 10
40.3842
 20
26.6193
 11
40.3592
 21
26.7719
  0
LINE
  8
0
 10
40.3592
 20
26.7719
 11
40.3555
 21
26.7851
  0
LINE
  8
0
 10
40.3555
 20
26.7851
 11
40.3142
 21
26.931
  0
LINE
  8
0
 10
40.3142
 20
26.931
 11
40.3094
 21
26.9423
  0
LINE
  8
0
 10
40.3094
 20
26.9423
 11
40.2527
 21
27.0778
  0
LINE
  8
0
 10
40.2527
 20
27.0778
 11
40.2472
 21
27.0872
  0
LINE
  8
0
 10
40.2472
 20
27.0872
 11
40.1762
 21
27.2087
  0
LINE
  8
0
 10
40.1762
 20
27.2087
 11
40.1702
 21
27.2162
  0
LINE
  8
0
 10
40.1702
 20
27.2162
 11
40.0868
 21
27.3206
  0
LINE
  8
0
 10
40.0868
 20
27.3206
 11
40.0804
 21
27.3262
  0
LINE
  8
0
 10
40.0804
 20
27.3262
 11
39.9864
 21
27.4106
  0
LINE
  8
0
 10
39.9864
 20
27.4106
 11
39.9799
 21
27.4145
  0
LINE
  8
0
 10
39.9799
 20
27.4145
 11
39.8777
 21
27.4765
  0
LINE
  8
0
 10
39.8777
 20
27.4765
 11
39.8711
 21
27.4788
  0
LINE
  8
0
 10
39.8711
 20
27.4788
 11
39.7632
 21
27.5166
  0
LINE
  8
0
 10
39.7632
 20
27.5166
 11
39.6459
 21
27.5302
  0
LINE
  8
0
 10
39.6459
 20
27.5302
 11
36.5
 21
27.5302
  0
LINE
  8
0
 10
36.5
 20
27.5302
 11
36.5
 21
23.3326
  0
LINE
  8
0
 10
36.5
 20
32.3027
 11
39.6459
 21
32.3027
  0
LINE
  8
0
 10
39.6459
 20
32.3027
 11
39.7179
 21
32.3089
  0
LINE
  8
0
 10
39.7179
 20
32.3089
 11
39.7632
 21
32.3128
  0
LINE
  8
0
 10
39.7632
 20
32.3128
 11
39.8307
 21
32.3304
  0
LINE
  8
0
 10
39.8307
 20
32.3304
 11
39.8777
 21
32.3428
  0
LINE
  8
0
 10
39.8777
 20
32.3428
 11
39.9373
 21
32.3698
  0
LINE
  8
0
 10
39.9373
 20
32.3698
 11
39.9864
 21
32.392
  0
LINE
  8
0
 10
39.9864
 20
32.392
 11
40.0359
 21
32.4251
  0
LINE
  8
0
 10
40.0359
 20
32.4251
 11
40.0868
 21
32.4591
  0
LINE
  8
0
 10
40.0868
 20
32.4591
 11
40.125
 21
32.4949
  0
LINE
  8
0
 10
40.125
 20
32.4949
 11
40.1762
 21
32.5426
  0
LINE
  8
0
 10
40.1762
 20
32.5426
 11
40.2034
 21
32.5773
  0
LINE
  8
0
 10
40.2034
 20
32.5773
 11
40.2527
 21
32.6404
  0
LINE
  8
0
 10
40.2527
 20
32.6404
 11
40.2698
 21
32.6708
  0
LINE
  8
0
 10
40.2698
 20
32.6708
 11
40.3142
 21
32.75
  0
LINE
  8
0
 10
40.3142
 20
32.75
 11
40.3231
 21
32.7736
  0
LINE
  8
0
 10
40.3231
 20
32.7736
 11
40.3592
 21
32.8687
  0
LINE
  8
0
 10
40.3592
 20
32.8687
 11
40.3625
 21
32.8838
  0
LINE
  8
0
 10
40.3625
 20
32.8838
 11
40.3867
 21
32.9937
  0
LINE
  8
0
 10
40.3867
 20
32.9937
 11
40.3871
 21
32.9994
  0
LINE
  8
0
 10
40.3871
 20
32.9994
 11
40.3922
 21
33.0707
  0
LINE
  8
0
 10
40.3922
 20
33.0707
 11
40.3956
 21
33.1155
  0
LINE
  8
0
 10
40.3956
 20
33.1155
 11
40.3959
 21
33.119
  0
LINE
  8
0
 10
40.3959
 20
33.119
 11
40.3959
 21
40
  0
LINE
  8
0
 10
40.3959
 20
40
 11
41
 21
40.6041
  0
LINE
  8
0
 10
41
 20
40.6041
 11
41
 21
41.5
  0
LINE
  8
0
 10
41
 20
41.5
 11
42.0778
 21
41.5
  0
LINE
  8
0
 10
42.0778
 20
41.5
 11
42.0778
 21
45.5
  0
LINE
  8
0
 10
42.0778
 20
45.5
 11
36.5
 21
45.5
  0
LINE
  8
0
 10
36.5
 20
45.5
 11
36.5
 21
32.3027
  0
LINE
  8
0
 10
45.4172
 20
0
 11
47.5
 21
0
  0
LINE
  8
0
 10
47.5
 20
0
 11
47.5
 21
3.5
  0
LINE
  8
0
 10
47.5
 20
3.5
 11
47
 21
4
  0
LINE
  8
0
 10
47
 20
4
 11
45.4172
 21
4
  0
LINE
  8
0
 10
45.4172
 20
4
 11
45.4172
 21
0
  0
LINE
  8
0
 10
45.4172
 20
41.5
 11
47
 21
41.5
  0
LINE
  8
0
 10
47
 20
41.5
 11
47.5
 21
42
  0
LINE
  8
0
 10
47.5
 20
42
 11
47.5
 21
45.5
  0
LINE
  8
0
 10
47.5
 20
45.5
 11
45.4172
 21
45.5
  0
LINE
  8
0
 10
45.4172
 20
45.5
 11
45.4172
 21
41.5
  0
ENDSEC
  0
SECTION
  2
OBJECTS
  0
DICTIONARY
  0
ENDSEC
  0
EOF
