  0
SECTION
  2
BLOCKS
  0
ENDSEC
  0
SECTION
  2
ENTITIES
  0
LINE
  8
0
 10
0
 20
0
 11
2.06702
 21
0
  0
LINE
  8
0
 10
2.06702
 20
0
 11
2.06702
 21
4
  0
LINE
  8
0
 10
2.06702
 20
4
 11
0.499999
 21
4
  0
LINE
  8
0
 10
0.499999
 20
4
 11
0
 21
3.5
  0
LINE
  8
0
 10
0
 20
3.5
 11
0
 21
0
  0
LINE
  8
0
 10
0
 20
42
 11
0.499999
 21
41.5
  0
LINE
  8
0
 10
0.499999
 20
41.5
 11
2.06702
 21
41.5
  0
LINE
  8
0
 10
2.06702
 20
41.5
 11
2.06702
 21
45.5
  0
LINE
  8
0
 10
2.06702
 20
45.5
 11
0
 21
45.5
  0
LINE
  8
0
 10
0
 20
45.5
 11
0
 21
42
  0
LINE
  8
0
 10
5.4343
 20
0
 11
11
 21
0
  0
LINE
  8
0
 10
11
 20
0
 11
11
 21
16.0461
  0
LINE
  8
0
 10
11
 20
16.0461
 11
7.85409
 21
16.0461
  0
LINE
  8
0
 10
7.85409
 20
16.0461
 11
7.80308
 21
16.0402
  0
LINE
  8
0
 10
7.80308
 20
16.0402
 11
7.73676
 21
16.0326
  0
LINE
  8
0
 10
7.73676
 20
16.0326
 11
7.6868
 21
16.0151
  0
LINE
  8
0
 10
7.6868
 20
16.0151
 11
7.62232
 21
15.9924
  0
LINE
  8
0
 10
7.62232
 20
15.9924
 11
7.57445
 21
15.9634
  0
LINE
  8
0
 10
7.57445
 20
15.9634
 11
7.51359
 21
15.9265
  0
LINE
  8
0
 10
7.51359
 20
15.9265
 11
7.41325
 21
15.8365
  0
LINE
  8
0
 10
7.41325
 20
15.8365
 11
7.37268
 21
15.7858
  0
LINE
  8
0
 10
7.37268
 20
15.7858
 11
7.32376
 21
15.7247
  0
LINE
  8
0
 10
7.32376
 20
15.7247
 11
7.28843
 21
15.6642
  0
LINE
  8
0
 10
7.28843
 20
15.6642
 11
7.24732
 21
15.5938
  0
LINE
  8
0
 10
7.24732
 20
15.5938
 11
7.21828
 21
15.5244
  0
LINE
  8
0
 10
7.21828
 20
15.5244
 11
7.18583
 21
15.4469
  0
LINE
  8
0
 10
7.18583
 20
15.4469
 11
7.16405
 21
15.37
  0
LINE
  8
0
 10
7.16405
 20
15.37
 11
7.14079
 21
15.2879
  0
LINE
  8
0
 10
7.14079
 20
15.2879
 11
7.12718
 21
15.2049
  0
LINE
  8
0
 10
7.12718
 20
15.2049
 11
7.11332
 21
15.1204
  0
LINE
  8
0
 10
7.11332
 20
15.1204
 11
7.10863
 21
15.0332
  0
LINE
  8
0
 10
7.10863
 20
15.0332
 11
7.10409
 21
14.9487
  0
LINE
  8
0
 10
7.10409
 20
14.9487
 11
7.10409
 21
5.5
  0
LINE
  8
0
 10
7.10409
 20
5.5
 11
6.5
 21
4.89591
  0
LINE
  8
0
 10
6.5
 20
4.89591
 11
6.5
 21
4
  0
LINE
  8
0
 10
6.5
 20
4
 11
5.4343
 21
4
  0
LINE
  8
0
 10
5.4343
 20
4
 11
5.4343
 21
0
  0
LINE
  8
0
 10
5.4343
 20
41.5
 11
6.5
 21
41.5
  0
LINE
  8
0
 10
6.5
 20
41.5
 11
6.5
 21
40.6041
  0
LINE
  8
0
 10
6.5
 20
40.6041
 11
7.10409
 21
40
  0
LINE
  8
0
 10
7.10409
 20
40
 11
7.10409
 21
33.2501
  0
LINE
  8
0
 10
7.10409
 20
33.2501
 11
7.10416
 21
33.2492
  0
LINE
  8
0
 10
7.10416
 20
33.2492
 11
7.11332
 21
33.1292
  0
LINE
  8
0
 10
7.11332
 20
33.1292
 11
7.11474
 21
33.1231
  0
LINE
  8
0
 10
7.11474
 20
33.1231
 11
7.14079
 21
33.0113
  0
LINE
  8
0
 10
7.14079
 20
33.0113
 11
7.14521
 21
33.0003
  0
LINE
  8
0
 10
7.14521
 20
33.0003
 11
7.18583
 21
32.8993
  0
LINE
  8
0
 10
7.18583
 20
32.8993
 11
7.19474
 21
32.8843
  0
LINE
  8
0
 10
7.19474
 20
32.8843
 11
7.24732
 21
32.7959
  0
LINE
  8
0
 10
7.24732
 20
32.7959
 11
7.26189
 21
32.7783
  0
LINE
  8
0
 10
7.26189
 20
32.7783
 11
7.32376
 21
32.7037
  0
LINE
  8
0
 10
7.32376
 20
32.7037
 11
7.34461
 21
32.6854
  0
LINE
  8
0
 10
7.34461
 20
32.6854
 11
7.41325
 21
32.625
  0
LINE
  8
0
 10
7.41325
 20
32.625
 11
7.44035
 21
32.6079
  0
LINE
  8
0
 10
7.44035
 20
32.6079
 11
7.51359
 21
32.5616
  0
LINE
  8
0
 10
7.51359
 20
32.5616
 11
7.54619
 21
32.5477
  0
LINE
  8
0
 10
7.54619
 20
32.5477
 11
7.62232
 21
32.5152
  0
LINE
  8
0
 10
7.62232
 20
32.5152
 11
7.659
 21
32.5061
  0
LINE
  8
0
 10
7.659
 20
32.5061
 11
7.73676
 21
32.4869
  0
LINE
  8
0
 10
7.73676
 20
32.4869
 11
7.7756
 21
32.4838
  0
LINE
  8
0
 10
7.7756
 20
32.4838
 11
7.85409
 21
32.4774
  0
LINE
  8
0
 10
7.85409
 20
32.4774
 11
11
 21
32.4774
  0
LINE
  8
0
 10
11
 20
32.4774
 11
11
 21
45.5
  0
LINE
  8
0
 10
11
 20
45.5
 11
5.4343
 21
45.5
  0
LINE
  8
0
 10
5.4343
 20
45.5
 11
5.4343
 21
41.5
  0
LINE
  8
0
 10
7.10409
 20
23.9589
 11
7.11069
 21
23.8679
  0
LINE
  8
0
 10
7.11069
 20
23.8679
 11
7.11332
 21
23.8317
  0
LINE
  8
0
 10
7.11332
 20
23.8317
 11
7.13075
 21
23.753
  0
LINE
  8
0
 10
7.13075
 20
23.753
 11
7.14079
 21
23.7076
  0
LINE
  8
0
 10
7.14079
 20
23.7076
 11
7.16557
 21
23.6428
  0
LINE
  8
0
 10
7.16557
 20
23.6428
 11
7.18583
 21
23.5897
  0
LINE
  8
0
 10
7.18583
 20
23.5897
 11
7.21442
 21
23.5392
  0
LINE
  8
0
 10
7.21442
 20
23.5392
 11
7.24732
 21
23.4809
  0
LINE
  8
0
 10
7.24732
 20
23.4809
 11
7.27641
 21
23.444
  0
LINE
  8
0
 10
7.27641
 20
23.444
 11
7.32376
 21
23.3839
  0
LINE
  8
0
 10
7.32376
 20
23.3839
 11
7.35061
 21
23.359
  0
LINE
  8
0
 10
7.35061
 20
23.359
 11
7.41325
 21
23.301
  0
LINE
  8
0
 10
7.41325
 20
23.301
 11
7.43599
 21
23.2859
  0
LINE
  8
0
 10
7.43599
 20
23.2859
 11
7.51359
 21
23.2344
  0
LINE
  8
0
 10
7.51359
 20
23.2344
 11
7.5314
 21
23.2264
  0
LINE
  8
0
 10
7.5314
 20
23.2264
 11
7.62232
 21
23.1855
  0
LINE
  8
0
 10
7.62232
 20
23.1855
 11
7.63552
 21
23.1821
  0
LINE
  8
0
 10
7.63552
 20
23.1821
 11
7.73676
 21
23.1557
  0
LINE
  8
0
 10
7.73676
 20
23.1557
 11
7.74671
 21
23.1549
  0
LINE
  8
0
 10
7.74671
 20
23.1549
 11
7.85409
 21
23.1457
  0
LINE
  8
0
 10
7.85409
 20
23.1457
 11
11
 21
23.1457
  0
LINE
  8
0
 10
11
 20
23.1457
 11
11
 21
26.9961
  0
LINE
  8
0
 10
11
 20
26.9961
 11
7.85409
 21
26.9961
  0
LINE
  8
0
 10
7.85409
 20
26.9961
 11
7.73676
 21
26.9826
  0
LINE
  8
0
 10
7.73676
 20
26.9826
 11
7.72614
 21
26.9789
  0
LINE
  8
0
 10
7.72614
 20
26.9789
 11
7.62232
 21
26.9424
  0
LINE
  8
0
 10
7.62232
 20
26.9424
 11
7.61207
 21
26.9362
  0
LINE
  8
0
 10
7.61207
 20
26.9362
 11
7.51359
 21
26.8765
  0
LINE
  8
0
 10
7.51359
 20
26.8765
 11
7.50388
 21
26.8678
  0
LINE
  8
0
 10
7.50388
 20
26.8678
 11
7.41325
 21
26.7865
  0
LINE
  8
0
 10
7.41325
 20
26.7865
 11
7.40428
 21
26.7753
  0
LINE
  8
0
 10
7.40428
 20
26.7753
 11
7.32376
 21
26.6747
  0
LINE
  8
0
 10
7.32376
 20
26.6747
 11
7.31578
 21
26.661
  0
LINE
  8
0
 10
7.31578
 20
26.661
 11
7.24732
 21
26.5437
  0
LINE
  8
0
 10
7.24732
 20
26.5437
 11
7.24061
 21
26.5277
  0
LINE
  8
0
 10
7.24061
 20
26.5277
 11
7.18583
 21
26.3969
  0
LINE
  8
0
 10
7.18583
 20
26.3969
 11
7.18067
 21
26.3787
  0
LINE
  8
0
 10
7.18067
 20
26.3787
 11
7.14079
 21
26.2378
  0
LINE
  8
0
 10
7.14079
 20
26.2378
 11
7.13748
 21
26.2177
  0
LINE
  8
0
 10
7.13748
 20
26.2177
 11
7.11332
 21
26.0704
  0
LINE
  8
0
 10
7.11332
 20
26.0704
 11
7.11215
 21
26.0486
  0
LINE
  8
0
 10
7.11215
 20
26.0486
 11
7.10409
 21
25.8987
  0
LINE
  8
0
 10
7.10409
 20
25.8987
 11
7.10409
 21
23.9589
  0
LINE
  8
0
 10
36.5
 20
0
 11
42.067
 21
0
  0
LINE
  8
0
 10
42.067
 20
0
 11
42.067
 21
4
  0
LINE
  8
0
 10
42.067
 20
4
 11
41
 21
4
  0
LINE
  8
0
 10
41
 20
4
 11
41
 21
4.89591
  0
LINE
  8
0
 10
41
 20
4.89591
 11
40.3959
 21
5.5
  0
LINE
  8
0
 10
40.3959
 20
5.5
 11
40.3959
 21
14.9487
  0
LINE
  8
0
 10
40.3959
 20
14.9487
 11
40.3912
 21
15.036
  0
LINE
  8
0
 10
40.3912
 20
15.036
 11
40.3867
 21
15.1204
  0
LINE
  8
0
 10
40.3867
 20
15.1204
 11
40.3731
 21
15.2034
  0
LINE
  8
0
 10
40.3731
 20
15.2034
 11
40.3592
 21
15.2879
  0
LINE
  8
0
 10
40.3592
 20
15.2879
 11
40.3374
 21
15.3649
  0
LINE
  8
0
 10
40.3374
 20
15.3649
 11
40.3142
 21
15.4469
  0
LINE
  8
0
 10
40.3142
 20
15.4469
 11
40.2851
 21
15.5164
  0
LINE
  8
0
 10
40.2851
 20
15.5164
 11
40.2527
 21
15.5938
  0
LINE
  8
0
 10
40.2527
 20
15.5938
 11
40.2173
 21
15.6544
  0
LINE
  8
0
 10
40.2173
 20
15.6544
 11
40.1762
 21
15.7247
  0
LINE
  8
0
 10
40.1762
 20
15.7247
 11
40.1356
 21
15.7755
  0
LINE
  8
0
 10
40.1356
 20
15.7755
 11
40.0868
 21
15.8365
  0
LINE
  8
0
 10
40.0868
 20
15.8365
 11
39.9864
 21
15.9265
  0
LINE
  8
0
 10
39.9864
 20
15.9265
 11
39.9385
 21
15.9556
  0
LINE
  8
0
 10
39.9385
 20
15.9556
 11
39.8777
 21
15.9924
  0
LINE
  8
0
 10
39.8777
 20
15.9924
 11
39.8277
 21
16.01
  0
LINE
  8
0
 10
39.8277
 20
16.01
 11
39.7632
 21
16.0326
  0
LINE
  8
0
 10
39.7632
 20
16.0326
 11
39.7122
 21
16.0385
  0
LINE
  8
0
 10
39.7122
 20
16.0385
 11
39.6459
 21
16.0461
  0
LINE
  8
0
 10
39.6459
 20
16.0461
 11
36.5
 21
16.0461
  0
LINE
  8
0
 10
36.5
 20
16.0461
 11
36.5
 21
0
  0
LINE
  8
0
 10
36.5
 20
23.1457
 11
39.6459
 21
23.1457
  0
LINE
  8
0
 10
39.6459
 20
23.1457
 11
39.6547
 21
23.1465
  0
LINE
  8
0
 10
39.6547
 20
23.1465
 11
39.7632
 21
23.1557
  0
LINE
  8
0
 10
39.7632
 20
23.1557
 11
39.7732
 21
23.1583
  0
LINE
  8
0
 10
39.7732
 20
23.1583
 11
39.8777
 21
23.1855
  0
LINE
  8
0
 10
39.8777
 20
23.1855
 11
39.891
 21
23.1915
  0
LINE
  8
0
 10
39.891
 20
23.1915
 11
39.9864
 21
23.2344
  0
LINE
  8
0
 10
39.9864
 20
23.2344
 11
40.0043
 21
23.2463
  0
LINE
  8
0
 10
40.0043
 20
23.2463
 11
40.0868
 21
23.301
  0
LINE
  8
0
 10
40.0868
 20
23.301
 11
40.1094
 21
23.322
  0
LINE
  8
0
 10
40.1094
 20
23.322
 11
40.1762
 21
23.3839
  0
LINE
  8
0
 10
40.1762
 20
23.3839
 11
40.2023
 21
23.417
  0
LINE
  8
0
 10
40.2023
 20
23.417
 11
40.2527
 21
23.4809
  0
LINE
  8
0
 10
40.2527
 20
23.4809
 11
40.2796
 21
23.5287
  0
LINE
  8
0
 10
40.2796
 20
23.5287
 11
40.3142
 21
23.5897
  0
LINE
  8
0
 10
40.3142
 20
23.5897
 11
40.3385
 21
23.6535
  0
LINE
  8
0
 10
40.3385
 20
23.6535
 11
40.3592
 21
23.7076
  0
LINE
  8
0
 10
40.3592
 20
23.7076
 11
40.3769
 21
23.7873
  0
LINE
  8
0
 10
40.3769
 20
23.7873
 11
40.3867
 21
23.8317
  0
LINE
  8
0
 10
40.3867
 20
23.8317
 11
40.3935
 21
23.9259
  0
LINE
  8
0
 10
40.3935
 20
23.9259
 11
40.3959
 21
23.9589
  0
LINE
  8
0
 10
40.3959
 20
23.9589
 11
40.3959
 21
25.8987
  0
LINE
  8
0
 10
40.3959
 20
25.8987
 11
40.3947
 21
25.9213
  0
LINE
  8
0
 10
40.3947
 20
25.9213
 11
40.3867
 21
26.0704
  0
LINE
  8
0
 10
40.3867
 20
26.0704
 11
40.3832
 21
26.0914
  0
LINE
  8
0
 10
40.3832
 20
26.0914
 11
40.3592
 21
26.2378
  0
LINE
  8
0
 10
40.3592
 20
26.2378
 11
40.3538
 21
26.2568
  0
LINE
  8
0
 10
40.3538
 20
26.2568
 11
40.3142
 21
26.3969
  0
LINE
  8
0
 10
40.3142
 20
26.3969
 11
40.3072
 21
26.4136
  0
LINE
  8
0
 10
40.3072
 20
26.4136
 11
40.2527
 21
26.5437
  0
LINE
  8
0
 10
40.2527
 20
26.5437
 11
40.2444
 21
26.5579
  0
LINE
  8
0
 10
40.2444
 20
26.5579
 11
40.1762
 21
26.6747
  0
LINE
  8
0
 10
40.1762
 20
26.6747
 11
40.167
 21
26.6863
  0
LINE
  8
0
 10
40.167
 20
26.6863
 11
40.0868
 21
26.7865
  0
LINE
  8
0
 10
40.0868
 20
26.7865
 11
40.0768
 21
26.7955
  0
LINE
  8
0
 10
40.0768
 20
26.7955
 11
39.9864
 21
26.8765
  0
LINE
  8
0
 10
39.9864
 20
26.8765
 11
39.9759
 21
26.8828
  0
LINE
  8
0
 10
39.9759
 20
26.8828
 11
39.8777
 21
26.9424
  0
LINE
  8
0
 10
39.8777
 20
26.9424
 11
39.8669
 21
26.9462
  0
LINE
  8
0
 10
39.8669
 20
26.9462
 11
39.7632
 21
26.9826
  0
LINE
  8
0
 10
39.7632
 20
26.9826
 11
39.6459
 21
26.9961
  0
LINE
  8
0
 10
39.6459
 20
26.9961
 11
36.5
 21
26.9961
  0
LINE
  8
0
 10
36.5
 20
26.9961
 11
36.5
 21
23.1457
  0
LINE
  8
0
 10
36.5
 20
32.4774
 11
39.6459
 21
32.4774
  0
LINE
  8
0
 10
39.6459
 20
32.4774
 11
39.6848
 21
32.4805
  0
LINE
  8
0
 10
39.6848
 20
32.4805
 11
39.7632
 21
32.4869
  0
LINE
  8
0
 10
39.7632
 20
32.4869
 11
39.8
 21
32.496
  0
LINE
  8
0
 10
39.8
 20
32.496
 11
39.8777
 21
32.5152
  0
LINE
  8
0
 10
39.8777
 20
32.5152
 11
39.9105
 21
32.5292
  0
LINE
  8
0
 10
39.9105
 20
32.5292
 11
39.9864
 21
32.5616
  0
LINE
  8
0
 10
39.9864
 20
32.5616
 11
40.014
 21
32.579
  0
LINE
  8
0
 10
40.014
 20
32.579
 11
40.0868
 21
32.625
  0
LINE
  8
0
 10
40.0868
 20
32.625
 11
40.1084
 21
32.6441
  0
LINE
  8
0
 10
40.1084
 20
32.6441
 11
40.1762
 21
32.7037
  0
LINE
  8
0
 10
40.1762
 20
32.7037
 11
40.1919
 21
32.7226
  0
LINE
  8
0
 10
40.1919
 20
32.7226
 11
40.2527
 21
32.7959
  0
LINE
  8
0
 10
40.2527
 20
32.7959
 11
40.2629
 21
32.813
  0
LINE
  8
0
 10
40.2629
 20
32.813
 11
40.3142
 21
32.8993
  0
LINE
  8
0
 10
40.3142
 20
32.8993
 11
40.3198
 21
32.9133
  0
LINE
  8
0
 10
40.3198
 20
32.9133
 11
40.3592
 21
33.0113
  0
LINE
  8
0
 10
40.3592
 20
33.0113
 11
40.3615
 21
33.0212
  0
LINE
  8
0
 10
40.3615
 20
33.0212
 11
40.3867
 21
33.1292
  0
LINE
  8
0
 10
40.3867
 20
33.1292
 11
40.3871
 21
33.1346
  0
LINE
  8
0
 10
40.3871
 20
33.1346
 11
40.3959
 21
33.2501
  0
LINE
  8
0
 10
40.3959
 20
33.2501
 11
40.3959
 21
40
  0
LINE
  8
0
 10
40.3959
 20
40
 11
41
 21
40.6041
  0
LINE
  8
0
 10
41
 20
40.6041
 11
41
 21
41.5
  0
LINE
  8
0
 10
41
 20
41.5
 11
42.067
 21
41.5
  0
LINE
  8
0
 10
42.067
 20
41.5
 11
42.067
 21
45.5
  0
LINE
  8
0
 10
42.067
 20
45.5
 11
36.5
 21
45.5
  0
LINE
  8
0
 10
36.5
 20
45.5
 11
36.5
 21
32.4774
  0
LINE
  8
0
 10
45.4343
 20
0
 11
47.5
 21
0
  0
LINE
  8
0
 10
47.5
 20
0
 11
47.5
 21
3.5
  0
LINE
  8
0
 10
47.5
 20
3.5
 11
47
 21
4
  0
LINE
  8
0
 10
47
 20
4
 11
45.4343
 21
4
  0
LINE
  8
0
 10
45.4343
 20
4
 11
45.4343
 21
0
  0
LINE
  8
0
 10
45.4343
 20
41.5
 11
47
 21
41.5
  0
LINE
  8
0
 10
47
 20
41.5
 11
47.5
 21
42
  0
LINE
  8
0
 10
47.5
 20
42
 11
47.5
 21
45.5
  0
LINE
  8
0
 10
47.5
 20
45.5
 11
45.4343
 21
45.5
  0
LINE
  8
0
 10
45.4343
 20
45.5
 11
45.4343
 21
41.5
  0
ENDSEC
  0
SECTION
  2
OBJECTS
  0
DICTIONARY
  0
ENDSEC
  0
EOF
