  0
SECTION
  2
BLOCKS
  0
ENDSEC
  0
SECTION
  2
ENTITIES
  0
LINE
  8
0
 10
0
 20
0
 11
2.20753
 21
0
  0
LINE
  8
0
 10
2.20753
 20
0
 11
2.20753
 21
4
  0
LINE
  8
0
 10
2.20753
 20
4
 11
0.499999
 21
4
  0
LINE
  8
0
 10
0.499999
 20
4
 11
0
 21
3.5
  0
LINE
  8
0
 10
0
 20
3.5
 11
0
 21
0
  0
LINE
  8
0
 10
0
 20
42
 11
0.499999
 21
41.5
  0
LINE
  8
0
 10
0.499999
 20
41.5
 11
2.20753
 21
41.5
  0
LINE
  8
0
 10
2.20753
 20
41.5
 11
2.20753
 21
45.5
  0
LINE
  8
0
 10
2.20753
 20
45.5
 11
0
 21
45.5
  0
LINE
  8
0
 10
0
 20
45.5
 11
0
 21
42
  0
LINE
  8
0
 10
5.29917
 20
0
 11
11
 21
0
  0
LINE
  8
0
 10
11
 20
0
 11
11
 21
15.5121
  0
LINE
  8
0
 10
11
 20
15.5121
 11
7.85409
 21
15.5121
  0
LINE
  8
0
 10
7.85409
 20
15.5121
 11
7.79449
 21
15.5052
  0
LINE
  8
0
 10
7.79449
 20
15.5052
 11
7.73676
 21
15.4986
  0
LINE
  8
0
 10
7.73676
 20
15.4986
 11
7.67841
 21
15.4781
  0
LINE
  8
0
 10
7.67841
 20
15.4781
 11
7.62232
 21
15.4584
  0
LINE
  8
0
 10
7.62232
 20
15.4584
 11
7.56645
 21
15.4245
  0
LINE
  8
0
 10
7.56645
 20
15.4245
 11
7.51359
 21
15.3925
  0
LINE
  8
0
 10
7.51359
 20
15.3925
 11
7.41325
 21
15.3025
  0
LINE
  8
0
 10
7.41325
 20
15.3025
 11
7.36608
 21
15.2435
  0
LINE
  8
0
 10
7.36608
 20
15.2435
 11
7.32376
 21
15.1906
  0
LINE
  8
0
 10
7.32376
 20
15.1906
 11
7.28279
 21
15.1205
  0
LINE
  8
0
 10
7.28279
 20
15.1205
 11
7.24732
 21
15.0597
  0
LINE
  8
0
 10
7.24732
 20
15.0597
 11
7.21373
 21
14.9795
  0
LINE
  8
0
 10
7.21373
 20
14.9795
 11
7.18583
 21
14.9129
  0
LINE
  8
0
 10
7.18583
 20
14.9129
 11
7.16072
 21
14.8242
  0
LINE
  8
0
 10
7.16072
 20
14.8242
 11
7.14079
 21
14.7538
  0
LINE
  8
0
 10
7.14079
 20
14.7538
 11
7.12514
 21
14.6584
  0
LINE
  8
0
 10
7.12514
 20
14.6584
 11
7.11332
 21
14.5864
  0
LINE
  8
0
 10
7.11332
 20
14.5864
 11
7.10794
 21
14.4864
  0
LINE
  8
0
 10
7.10794
 20
14.4864
 11
7.10409
 21
14.4147
  0
LINE
  8
0
 10
7.10409
 20
14.4147
 11
7.10409
 21
5.5
  0
LINE
  8
0
 10
7.10409
 20
5.5
 11
6.5
 21
4.89591
  0
LINE
  8
0
 10
6.5
 20
4.89591
 11
6.5
 21
4
  0
LINE
  8
0
 10
6.5
 20
4
 11
5.29917
 21
4
  0
LINE
  8
0
 10
5.29917
 20
4
 11
5.29917
 21
0
  0
LINE
  8
0
 10
5.29917
 20
41.5
 11
6.5
 21
41.5
  0
LINE
  8
0
 10
6.5
 20
41.5
 11
6.5
 21
40.6041
  0
LINE
  8
0
 10
6.5
 20
40.6041
 11
7.10409
 21
40
  0
LINE
  8
0
 10
7.10409
 20
40
 11
7.10409
 21
33.2964
  0
LINE
  8
0
 10
7.10409
 20
33.2964
 11
7.10477
 21
33.2877
  0
LINE
  8
0
 10
7.10477
 20
33.2877
 11
7.11332
 21
33.179
  0
LINE
  8
0
 10
7.11332
 20
33.179
 11
7.11549
 21
33.1699
  0
LINE
  8
0
 10
7.11549
 20
33.1699
 11
7.14079
 21
33.0645
  0
LINE
  8
0
 10
7.14079
 20
33.0645
 11
7.14458
 21
33.0553
  0
LINE
  8
0
 10
7.14458
 20
33.0553
 11
7.18583
 21
32.9556
  0
LINE
  8
0
 10
7.18583
 20
32.9556
 11
7.1913
 21
32.9467
  0
LINE
  8
0
 10
7.1913
 20
32.9467
 11
7.24732
 21
32.8552
  0
LINE
  8
0
 10
7.24732
 20
32.8552
 11
7.25449
 21
32.8468
  0
LINE
  8
0
 10
7.25449
 20
32.8468
 11
7.32376
 21
32.7657
  0
LINE
  8
0
 10
7.32376
 20
32.7657
 11
7.33255
 21
32.7582
  0
LINE
  8
0
 10
7.33255
 20
32.7582
 11
7.41325
 21
32.6892
  0
LINE
  8
0
 10
7.41325
 20
32.6892
 11
7.42349
 21
32.6829
  0
LINE
  8
0
 10
7.42349
 20
32.6829
 11
7.51359
 21
32.6276
  0
LINE
  8
0
 10
7.51359
 20
32.6276
 11
7.52502
 21
32.6229
  0
LINE
  8
0
 10
7.52502
 20
32.6229
 11
7.62232
 21
32.5826
  0
LINE
  8
0
 10
7.62232
 20
32.5826
 11
7.63458
 21
32.5796
  0
LINE
  8
0
 10
7.63458
 20
32.5796
 11
7.73676
 21
32.5551
  0
LINE
  8
0
 10
7.73676
 20
32.5551
 11
7.74943
 21
32.5541
  0
LINE
  8
0
 10
7.74943
 20
32.5541
 11
7.85409
 21
32.5458
  0
LINE
  8
0
 10
7.85409
 20
32.5458
 11
11
 21
32.5458
  0
LINE
  8
0
 10
11
 20
32.5458
 11
11
 21
45.5
  0
LINE
  8
0
 10
11
 20
45.5
 11
5.29917
 21
45.5
  0
LINE
  8
0
 10
5.29917
 20
45.5
 11
5.29917
 21
41.5
  0
LINE
  8
0
 10
7.10409
 20
23.719
 11
7.11013
 21
23.6282
  0
LINE
  8
0
 10
7.11013
 20
23.6282
 11
7.11332
 21
23.5801
  0
LINE
  8
0
 10
7.11332
 20
23.5801
 11
7.12793
 21
23.508
  0
LINE
  8
0
 10
7.12793
 20
23.508
 11
7.14079
 21
23.4446
  0
LINE
  8
0
 10
7.14079
 20
23.4446
 11
7.15904
 21
23.3924
  0
LINE
  8
0
 10
7.15904
 20
23.3924
 11
7.18583
 21
23.3159
  0
LINE
  8
0
 10
7.18583
 20
23.3159
 11
7.2028
 21
23.2831
  0
LINE
  8
0
 10
7.2028
 20
23.2831
 11
7.24732
 21
23.1971
  0
LINE
  8
0
 10
7.24732
 20
23.1971
 11
7.25857
 21
23.1815
  0
LINE
  8
0
 10
7.25857
 20
23.1815
 11
7.32376
 21
23.0911
  0
LINE
  8
0
 10
7.32376
 20
23.0911
 11
7.32575
 21
23.0891
  0
LINE
  8
0
 10
7.32575
 20
23.0891
 11
7.34155
 21
23.0731
  0
LINE
  8
0
 10
7.34155
 20
23.0731
 11
7.40448
 21
23.0009
  0
LINE
  8
0
 10
7.40448
 20
23.0009
 11
7.41325
 21
22.9908
  0
LINE
  8
0
 10
7.41325
 20
22.9908
 11
7.49287
 21
22.9252
  0
LINE
  8
0
 10
7.49287
 20
22.9252
 11
7.51359
 21
22.9081
  0
LINE
  8
0
 10
7.51359
 20
22.9081
 11
7.59006
 21
22.8656
  0
LINE
  8
0
 10
7.59006
 20
22.8656
 11
7.62232
 21
22.8476
  0
LINE
  8
0
 10
7.62232
 20
22.8476
 11
7.69529
 21
22.8241
  0
LINE
  8
0
 10
7.69529
 20
22.8241
 11
7.73676
 21
22.8107
  0
LINE
  8
0
 10
7.73676
 20
22.8107
 11
7.8075
 21
22.8032
  0
LINE
  8
0
 10
7.8075
 20
22.8032
 11
7.85409
 21
22.7983
  0
LINE
  8
0
 10
7.85409
 20
22.7983
 11
11
 21
22.7983
  0
LINE
  8
0
 10
11
 20
22.7983
 11
11
 21
26.462
  0
LINE
  8
0
 10
11
 20
26.462
 11
7.85409
 21
26.462
  0
LINE
  8
0
 10
7.85409
 20
26.462
 11
7.73676
 21
26.4485
  0
LINE
  8
0
 10
7.73676
 20
26.4485
 11
7.72195
 21
26.4433
  0
LINE
  8
0
 10
7.72195
 20
26.4433
 11
7.62232
 21
26.4083
  0
LINE
  8
0
 10
7.62232
 20
26.4083
 11
7.60808
 21
26.3997
  0
LINE
  8
0
 10
7.60808
 20
26.3997
 11
7.51359
 21
26.3424
  0
LINE
  8
0
 10
7.51359
 20
26.3424
 11
7.5002
 21
26.3304
  0
LINE
  8
0
 10
7.5002
 20
26.3304
 11
7.41325
 21
26.2525
  0
LINE
  8
0
 10
7.41325
 20
26.2525
 11
7.40099
 21
26.2372
  0
LINE
  8
0
 10
7.40099
 20
26.2372
 11
7.32376
 21
26.1406
  0
LINE
  8
0
 10
7.32376
 20
26.1406
 11
7.31297
 21
26.1222
  0
LINE
  8
0
 10
7.31297
 20
26.1222
 11
7.24732
 21
26.0097
  0
LINE
  8
0
 10
7.24732
 20
26.0097
 11
7.23835
 21
25.9883
  0
LINE
  8
0
 10
7.23835
 20
25.9883
 11
7.18583
 21
25.8629
  0
LINE
  8
0
 10
7.18583
 20
25.8629
 11
7.17901
 21
25.8388
  0
LINE
  8
0
 10
7.17901
 20
25.8388
 11
7.14079
 21
25.7038
  0
LINE
  8
0
 10
7.14079
 20
25.7038
 11
7.13647
 21
25.6774
  0
LINE
  8
0
 10
7.13647
 20
25.6774
 11
7.11332
 21
25.5363
  0
LINE
  8
0
 10
7.11332
 20
25.5363
 11
7.11181
 21
25.5083
  0
LINE
  8
0
 10
7.11181
 20
25.5083
 11
7.10409
 21
25.3647
  0
LINE
  8
0
 10
7.10409
 20
25.3647
 11
7.10409
 21
23.719
  0
LINE
  8
0
 10
36.5
 20
0
 11
42.2075
 21
0
  0
LINE
  8
0
 10
42.2075
 20
0
 11
42.2075
 21
4
  0
LINE
  8
0
 10
42.2075
 20
4
 11
41
 21
4
  0
LINE
  8
0
 10
41
 20
4
 11
41
 21
4.89591
  0
LINE
  8
0
 10
41
 20
4.89591
 11
40.3959
 21
5.5
  0
LINE
  8
0
 10
40.3959
 20
5.5
 11
40.3959
 21
14.4147
  0
LINE
  8
0
 10
40.3959
 20
14.4147
 11
40.3906
 21
14.5143
  0
LINE
  8
0
 10
40.3906
 20
14.5143
 11
40.3867
 21
14.5864
  0
LINE
  8
0
 10
40.3867
 20
14.5864
 11
40.3711
 21
14.6815
  0
LINE
  8
0
 10
40.3711
 20
14.6815
 11
40.3592
 21
14.7538
  0
LINE
  8
0
 10
40.3592
 20
14.7538
 11
40.3341
 21
14.8423
  0
LINE
  8
0
 10
40.3341
 20
14.8423
 11
40.3142
 21
14.9129
  0
LINE
  8
0
 10
40.3142
 20
14.9129
 11
40.2806
 21
14.993
  0
LINE
  8
0
 10
40.2806
 20
14.993
 11
40.2527
 21
15.0597
  0
LINE
  8
0
 10
40.2527
 20
15.0597
 11
40.2118
 21
15.1298
  0
LINE
  8
0
 10
40.2118
 20
15.1298
 11
40.1762
 21
15.1906
  0
LINE
  8
0
 10
40.1762
 20
15.1906
 11
40.1291
 21
15.2495
  0
LINE
  8
0
 10
40.1291
 20
15.2495
 11
40.0868
 21
15.3025
  0
LINE
  8
0
 10
40.0868
 20
15.3025
 11
39.9864
 21
15.3925
  0
LINE
  8
0
 10
39.9864
 20
15.3925
 11
39.9305
 21
15.4263
  0
LINE
  8
0
 10
39.9305
 20
15.4263
 11
39.8777
 21
15.4584
  0
LINE
  8
0
 10
39.8777
 20
15.4584
 11
39.8193
 21
15.4789
  0
LINE
  8
0
 10
39.8193
 20
15.4789
 11
39.7632
 21
15.4986
  0
LINE
  8
0
 10
39.7632
 20
15.4986
 11
39.7036
 21
15.5054
  0
LINE
  8
0
 10
39.7036
 20
15.5054
 11
39.6459
 21
15.5121
  0
LINE
  8
0
 10
39.6459
 20
15.5121
 11
36.5
 21
15.5121
  0
LINE
  8
0
 10
36.5
 20
15.5121
 11
36.5
 21
0
  0
LINE
  8
0
 10
36.5
 20
22.7983
 11
39.6459
 21
22.7983
  0
LINE
  8
0
 10
39.6459
 20
22.7983
 11
39.7169
 21
22.8058
  0
LINE
  8
0
 10
39.7169
 20
22.8058
 11
39.7632
 21
22.8107
  0
LINE
  8
0
 10
39.7632
 20
22.8107
 11
39.8375
 21
22.8347
  0
LINE
  8
0
 10
39.8375
 20
22.8347
 11
39.8777
 21
22.8476
  0
LINE
  8
0
 10
39.8777
 20
22.8476
 11
39.9578
 21
22.8922
  0
LINE
  8
0
 10
39.9578
 20
22.8922
 11
39.9864
 21
22.9081
  0
LINE
  8
0
 10
39.9864
 20
22.9081
 11
40.0734
 21
22.9798
  0
LINE
  8
0
 10
40.0734
 20
22.9798
 11
40.0868
 21
22.9908
  0
LINE
  8
0
 10
40.0868
 20
22.9908
 11
40.1584
 21
23.0731
  0
LINE
  8
0
 10
40.1584
 20
23.0731
 11
40.1762
 21
23.0911
  0
LINE
  8
0
 10
40.1762
 20
23.0911
 11
40.1783
 21
23.094
  0
LINE
  8
0
 10
40.1783
 20
23.094
 11
40.2527
 21
23.1971
  0
LINE
  8
0
 10
40.2527
 20
23.1971
 11
40.2641
 21
23.2191
  0
LINE
  8
0
 10
40.2641
 20
23.2191
 11
40.3142
 21
23.3159
  0
LINE
  8
0
 10
40.3142
 20
23.3159
 11
40.33
 21
23.3612
  0
LINE
  8
0
 10
40.33
 20
23.3612
 11
40.3592
 21
23.4446
  0
LINE
  8
0
 10
40.3592
 20
23.4446
 11
40.3735
 21
23.5152
  0
LINE
  8
0
 10
40.3735
 20
23.5152
 11
40.3867
 21
23.5801
  0
LINE
  8
0
 10
40.3867
 20
23.5801
 11
40.393
 21
23.6751
  0
LINE
  8
0
 10
40.393
 20
23.6751
 11
40.3959
 21
23.719
  0
LINE
  8
0
 10
40.3959
 20
23.719
 11
40.3959
 21
25.3647
  0
LINE
  8
0
 10
40.3959
 20
25.3647
 11
40.3944
 21
25.3935
  0
LINE
  8
0
 10
40.3944
 20
25.3935
 11
40.3867
 21
25.5363
  0
LINE
  8
0
 10
40.3867
 20
25.5363
 11
40.3822
 21
25.5634
  0
LINE
  8
0
 10
40.3822
 20
25.5634
 11
40.3592
 21
25.7038
  0
LINE
  8
0
 10
40.3592
 20
25.7038
 11
40.3522
 21
25.7285
  0
LINE
  8
0
 10
40.3522
 20
25.7285
 11
40.3142
 21
25.8629
  0
LINE
  8
0
 10
40.3142
 20
25.8629
 11
40.305
 21
25.8849
  0
LINE
  8
0
 10
40.305
 20
25.8849
 11
40.2527
 21
26.0097
  0
LINE
  8
0
 10
40.2527
 20
26.0097
 11
40.2416
 21
26.0286
  0
LINE
  8
0
 10
40.2416
 20
26.0286
 11
40.1762
 21
26.1406
  0
LINE
  8
0
 10
40.1762
 20
26.1406
 11
40.1637
 21
26.1563
  0
LINE
  8
0
 10
40.1637
 20
26.1563
 11
40.0868
 21
26.2525
  0
LINE
  8
0
 10
40.0868
 20
26.2525
 11
40.0731
 21
26.2647
  0
LINE
  8
0
 10
40.0731
 20
26.2647
 11
39.9864
 21
26.3424
  0
LINE
  8
0
 10
39.9864
 20
26.3424
 11
39.972
 21
26.3512
  0
LINE
  8
0
 10
39.972
 20
26.3512
 11
39.8777
 21
26.4083
  0
LINE
  8
0
 10
39.8777
 20
26.4083
 11
39.8627
 21
26.4136
  0
LINE
  8
0
 10
39.8627
 20
26.4136
 11
39.7632
 21
26.4485
  0
LINE
  8
0
 10
39.7632
 20
26.4485
 11
39.6459
 21
26.462
  0
LINE
  8
0
 10
39.6459
 20
26.462
 11
36.5
 21
26.462
  0
LINE
  8
0
 10
36.5
 20
26.462
 11
36.5
 21
22.7983
  0
LINE
  8
0
 10
36.5
 20
32.5458
 11
39.6459
 21
32.5458
  0
LINE
  8
0
 10
39.6459
 20
32.5458
 11
39.6586
 21
32.5468
  0
LINE
  8
0
 10
39.6586
 20
32.5468
 11
39.7632
 21
32.5551
  0
LINE
  8
0
 10
39.7632
 20
32.5551
 11
39.7754
 21
32.558
  0
LINE
  8
0
 10
39.7754
 20
32.558
 11
39.8777
 21
32.5826
  0
LINE
  8
0
 10
39.8777
 20
32.5826
 11
39.889
 21
32.5873
  0
LINE
  8
0
 10
39.889
 20
32.5873
 11
39.9864
 21
32.6276
  0
LINE
  8
0
 10
39.9864
 20
32.6276
 11
39.9965
 21
32.6338
  0
LINE
  8
0
 10
39.9965
 20
32.6338
 11
40.0868
 21
32.6892
  0
LINE
  8
0
 10
40.0868
 20
32.6892
 11
40.0954
 21
32.6966
  0
LINE
  8
0
 10
40.0954
 20
32.6966
 11
40.1762
 21
32.7657
  0
LINE
  8
0
 10
40.1762
 20
32.7657
 11
40.1833
 21
32.7739
  0
LINE
  8
0
 10
40.1833
 20
32.7739
 11
40.2527
 21
32.8552
  0
LINE
  8
0
 10
40.2527
 20
32.8552
 11
40.258
 21
32.864
  0
LINE
  8
0
 10
40.258
 20
32.864
 11
40.3142
 21
32.9556
  0
LINE
  8
0
 10
40.3142
 20
32.9556
 11
40.3179
 21
32.9646
  0
LINE
  8
0
 10
40.3179
 20
32.9646
 11
40.3592
 21
33.0645
  0
LINE
  8
0
 10
40.3592
 20
33.0645
 11
40.3613
 21
33.0734
  0
LINE
  8
0
 10
40.3613
 20
33.0734
 11
40.3867
 21
33.179
  0
LINE
  8
0
 10
40.3867
 20
33.179
 11
40.3874
 21
33.1876
  0
LINE
  8
0
 10
40.3874
 20
33.1876
 11
40.3959
 21
33.2964
  0
LINE
  8
0
 10
40.3959
 20
33.2964
 11
40.3959
 21
40
  0
LINE
  8
0
 10
40.3959
 20
40
 11
41
 21
40.6041
  0
LINE
  8
0
 10
41
 20
40.6041
 11
41
 21
41.5
  0
LINE
  8
0
 10
41
 20
41.5
 11
42.2075
 21
41.5
  0
LINE
  8
0
 10
42.2075
 20
41.5
 11
42.2075
 21
45.5
  0
LINE
  8
0
 10
42.2075
 20
45.5
 11
36.5
 21
45.5
  0
LINE
  8
0
 10
36.5
 20
45.5
 11
36.5
 21
32.5458
  0
LINE
  8
0
 10
45.2992
 20
0
 11
47.5
 21
0
  0
LINE
  8
0
 10
47.5
 20
0
 11
47.5
 21
3.5
  0
LINE
  8
0
 10
47.5
 20
3.5
 11
47
 21
4
  0
LINE
  8
0
 10
47
 20
4
 11
45.2992
 21
4
  0
LINE
  8
0
 10
45.2992
 20
4
 11
45.2992
 21
0
  0
LINE
  8
0
 10
45.2992
 20
41.5
 11
47
 21
41.5
  0
LINE
  8
0
 10
47
 20
41.5
 11
47.5
 21
42
  0
LINE
  8
0
 10
47.5
 20
42
 11
47.5
 21
45.5
  0
LINE
  8
0
 10
47.5
 20
45.5
 11
45.2992
 21
45.5
  0
LINE
  8
0
 10
45.2992
 20
45.5
 11
45.2992
 21
41.5
  0
ENDSEC
  0
SECTION
  2
OBJECTS
  0
DICTIONARY
  0
ENDSEC
  0
EOF
