  0
SECTION
  2
BLOCKS
  0
ENDSEC
  0
SECTION
  2
ENTITIES
  0
LINE
  8
0
 10
0
 20
0
 11
2.55388
 21
0
  0
LINE
  8
0
 10
2.55388
 20
0
 11
2.55388
 21
4
  0
LINE
  8
0
 10
2.55388
 20
4
 11
0.499999
 21
4
  0
LINE
  8
0
 10
0.499999
 20
4
 11
0
 21
3.5
  0
LINE
  8
0
 10
0
 20
3.5
 11
0
 21
0
  0
LINE
  8
0
 10
0
 20
42
 11
0.499999
 21
41.5
  0
LINE
  8
0
 10
0.499999
 20
41.5
 11
2.55388
 21
41.5
  0
LINE
  8
0
 10
2.55388
 20
41.5
 11
2.55388
 21
45.5
  0
LINE
  8
0
 10
2.55388
 20
45.5
 11
0
 21
45.5
  0
LINE
  8
0
 10
0
 20
45.5
 11
0
 21
42
  0
LINE
  8
0
 10
4.95039
 20
0
 11
11
 21
0
  0
LINE
  8
0
 10
11
 20
0
 11
11
 21
14.978
  0
LINE
  8
0
 10
11
 20
14.978
 11
7.85409
 21
14.978
  0
LINE
  8
0
 10
7.85409
 20
14.978
 11
7.7859
 21
14.9702
  0
LINE
  8
0
 10
7.7859
 20
14.9702
 11
7.73676
 21
14.9645
  0
LINE
  8
0
 10
7.73676
 20
14.9645
 11
7.67001
 21
14.941
  0
LINE
  8
0
 10
7.67001
 20
14.941
 11
7.62232
 21
14.9243
  0
LINE
  8
0
 10
7.62232
 20
14.9243
 11
7.55846
 21
14.8856
  0
LINE
  8
0
 10
7.55846
 20
14.8856
 11
7.51359
 21
14.8584
  0
LINE
  8
0
 10
7.51359
 20
14.8584
 11
7.41325
 21
14.7684
  0
LINE
  8
0
 10
7.41325
 20
14.7684
 11
7.35948
 21
14.7012
  0
LINE
  8
0
 10
7.35948
 20
14.7012
 11
7.32376
 21
14.6566
  0
LINE
  8
0
 10
7.32376
 20
14.6566
 11
7.27714
 21
14.5767
  0
LINE
  8
0
 10
7.27714
 20
14.5767
 11
7.24732
 21
14.5257
  0
LINE
  8
0
 10
7.24732
 20
14.5257
 11
7.20918
 21
14.4346
  0
LINE
  8
0
 10
7.20918
 20
14.4346
 11
7.18583
 21
14.3788
  0
LINE
  8
0
 10
7.18583
 20
14.3788
 11
7.15738
 21
14.2783
  0
LINE
  8
0
 10
7.15738
 20
14.2783
 11
7.14079
 21
14.2197
  0
LINE
  8
0
 10
7.14079
 20
14.2197
 11
7.12311
 21
14.1119
  0
LINE
  8
0
 10
7.12311
 20
14.1119
 11
7.11332
 21
14.0523
  0
LINE
  8
0
 10
7.11332
 20
14.0523
 11
7.10726
 21
13.9396
  0
LINE
  8
0
 10
7.10726
 20
13.9396
 11
7.10409
 21
13.8806
  0
LINE
  8
0
 10
7.10409
 20
13.8806
 11
7.10409
 21
5.5
  0
LINE
  8
0
 10
7.10409
 20
5.5
 11
6.5
 21
4.89591
  0
LINE
  8
0
 10
6.5
 20
4.89591
 11
6.5
 21
4
  0
LINE
  8
0
 10
6.5
 20
4
 11
4.95039
 21
4
  0
LINE
  8
0
 10
4.95039
 20
4
 11
4.95039
 21
0
  0
LINE
  8
0
 10
4.95039
 20
41.5
 11
6.5
 21
41.5
  0
LINE
  8
0
 10
6.5
 20
41.5
 11
6.5
 21
40.6041
  0
LINE
  8
0
 10
6.5
 20
40.6041
 11
7.10409
 21
40
  0
LINE
  8
0
 10
7.10409
 20
40
 11
7.10409
 21
33.2655
  0
LINE
  8
0
 10
7.10409
 20
33.2655
 11
7.10536
 21
33.2494
  0
LINE
  8
0
 10
7.10536
 20
33.2494
 11
7.11332
 21
33.1483
  0
LINE
  8
0
 10
7.11332
 20
33.1483
 11
7.11626
 21
33.136
  0
LINE
  8
0
 10
7.11626
 20
33.136
 11
7.14079
 21
33.0339
  0
LINE
  8
0
 10
7.14079
 20
33.0339
 11
7.14417
 21
33.0258
  0
LINE
  8
0
 10
7.14417
 20
33.0258
 11
7.18583
 21
32.9252
  0
LINE
  8
0
 10
7.18583
 20
32.9252
 11
7.18843
 21
32.921
  0
LINE
  8
0
 10
7.18843
 20
32.921
 11
7.24732
 21
32.825
  0
LINE
  8
0
 10
7.24732
 20
32.825
 11
7.24808
 21
32.8241
  0
LINE
  8
0
 10
7.24808
 20
32.8241
 11
7.27224
 21
32.7958
  0
LINE
  8
0
 10
7.27224
 20
32.7958
 11
7.32221
 21
32.7358
  0
LINE
  8
0
 10
7.32221
 20
32.7358
 11
7.32376
 21
32.7339
  0
LINE
  8
0
 10
7.32376
 20
32.7339
 11
7.40898
 21
32.6593
  0
LINE
  8
0
 10
7.40898
 20
32.6593
 11
7.41325
 21
32.6555
  0
LINE
  8
0
 10
7.41325
 20
32.6555
 11
7.50642
 21
32.5969
  0
LINE
  8
0
 10
7.50642
 20
32.5969
 11
7.51359
 21
32.5924
  0
LINE
  8
0
 10
7.51359
 20
32.5924
 11
7.61251
 21
32.5504
  0
LINE
  8
0
 10
7.61251
 20
32.5504
 11
7.62232
 21
32.5462
  0
LINE
  8
0
 10
7.62232
 20
32.5462
 11
7.72499
 21
32.521
  0
LINE
  8
0
 10
7.72499
 20
32.521
 11
7.73676
 21
32.5181
  0
LINE
  8
0
 10
7.73676
 20
32.5181
 11
7.84138
 21
32.5096
  0
LINE
  8
0
 10
7.84138
 20
32.5096
 11
7.85409
 21
32.5086
  0
LINE
  8
0
 10
7.85409
 20
32.5086
 11
11
 21
32.5086
  0
LINE
  8
0
 10
11
 20
32.5086
 11
11
 21
45.5
  0
LINE
  8
0
 10
11
 20
45.5
 11
4.95039
 21
45.5
  0
LINE
  8
0
 10
4.95039
 20
45.5
 11
4.95039
 21
41.5
  0
LINE
  8
0
 10
7.10409
 20
23.3538
 11
7.1086
 21
23.2767
  0
LINE
  8
0
 10
7.1086
 20
23.2767
 11
7.11332
 21
23.1961
  0
LINE
  8
0
 10
7.11332
 20
23.1961
 11
7.12204
 21
23.1473
  0
LINE
  8
0
 10
7.12204
 20
23.1473
 11
7.14079
 21
23.0423
  0
LINE
  8
0
 10
7.14079
 20
23.0423
 11
7.14702
 21
23.0221
  0
LINE
  8
0
 10
7.14702
 20
23.0221
 11
7.17496
 21
22.9314
  0
LINE
  8
0
 10
7.17496
 20
22.9314
 11
7.18583
 21
22.893
  0
LINE
  8
0
 10
7.18583
 20
22.893
 11
7.18601
 21
22.8926
  0
LINE
  8
0
 10
7.18601
 20
22.8926
 11
7.24732
 21
22.7462
  0
LINE
  8
0
 10
7.24732
 20
22.7462
 11
7.24837
 21
22.7444
  0
LINE
  8
0
 10
7.24837
 20
22.7444
 11
7.32376
 21
22.6153
  0
LINE
  8
0
 10
7.32376
 20
22.6153
 11
7.32584
 21
22.6127
  0
LINE
  8
0
 10
7.32584
 20
22.6127
 11
7.41325
 21
22.5034
  0
LINE
  8
0
 10
7.41325
 20
22.5034
 11
7.4164
 21
22.5006
  0
LINE
  8
0
 10
7.4164
 20
22.5006
 11
7.51359
 21
22.4135
  0
LINE
  8
0
 10
7.51359
 20
22.4135
 11
7.51772
 21
22.411
  0
LINE
  8
0
 10
7.51772
 20
22.411
 11
7.62232
 21
22.3476
  0
LINE
  8
0
 10
7.62232
 20
22.3476
 11
7.62722
 21
22.3458
  0
LINE
  8
0
 10
7.62722
 20
22.3458
 11
7.73676
 21
22.3074
  0
LINE
  8
0
 10
7.73676
 20
22.3074
 11
7.85409
 21
22.2939
  0
LINE
  8
0
 10
7.85409
 20
22.2939
 11
11
 21
22.2939
  0
LINE
  8
0
 10
11
 20
22.2939
 11
11
 21
25.928
  0
LINE
  8
0
 10
11
 20
25.928
 11
7.85409
 21
25.928
  0
LINE
  8
0
 10
7.85409
 20
25.928
 11
7.73676
 21
25.9145
  0
LINE
  8
0
 10
7.73676
 20
25.9145
 11
7.71776
 21
25.9078
  0
LINE
  8
0
 10
7.71776
 20
25.9078
 11
7.62232
 21
25.8743
  0
LINE
  8
0
 10
7.62232
 20
25.8743
 11
7.60409
 21
25.8632
  0
LINE
  8
0
 10
7.60409
 20
25.8632
 11
7.51359
 21
25.8084
  0
LINE
  8
0
 10
7.51359
 20
25.8084
 11
7.49651
 21
25.7931
  0
LINE
  8
0
 10
7.49651
 20
25.7931
 11
7.41325
 21
25.7184
  0
LINE
  8
0
 10
7.41325
 20
25.7184
 11
7.39771
 21
25.699
  0
LINE
  8
0
 10
7.39771
 20
25.699
 11
7.32376
 21
25.6066
  0
LINE
  8
0
 10
7.32376
 20
25.6066
 11
7.31016
 21
25.5833
  0
LINE
  8
0
 10
7.31016
 20
25.5833
 11
7.24732
 21
25.4756
  0
LINE
  8
0
 10
7.24732
 20
25.4756
 11
7.23608
 21
25.4488
  0
LINE
  8
0
 10
7.23608
 20
25.4488
 11
7.18583
 21
25.3288
  0
LINE
  8
0
 10
7.18583
 20
25.3288
 11
7.17735
 21
25.2989
  0
LINE
  8
0
 10
7.17735
 20
25.2989
 11
7.14079
 21
25.1697
  0
LINE
  8
0
 10
7.14079
 20
25.1697
 11
7.13546
 21
25.1372
  0
LINE
  8
0
 10
7.13546
 20
25.1372
 11
7.11332
 21
25.0023
  0
LINE
  8
0
 10
7.11332
 20
25.0023
 11
7.11147
 21
24.9679
  0
LINE
  8
0
 10
7.11147
 20
24.9679
 11
7.10409
 21
24.8306
  0
LINE
  8
0
 10
7.10409
 20
24.8306
 11
7.10409
 21
23.3538
  0
LINE
  8
0
 10
36.5
 20
0
 11
42.5539
 21
0
  0
LINE
  8
0
 10
42.5539
 20
0
 11
42.5539
 21
4
  0
LINE
  8
0
 10
42.5539
 20
4
 11
41
 21
4
  0
LINE
  8
0
 10
41
 20
4
 11
41
 21
4.89591
  0
LINE
  8
0
 10
41
 20
4.89591
 11
40.3959
 21
5.5
  0
LINE
  8
0
 10
40.3959
 20
5.5
 11
40.3959
 21
13.8806
  0
LINE
  8
0
 10
40.3959
 20
13.8806
 11
40.3899
 21
13.9927
  0
LINE
  8
0
 10
40.3899
 20
13.9927
 11
40.3867
 21
14.0523
  0
LINE
  8
0
 10
40.3867
 20
14.0523
 11
40.3691
 21
14.1595
  0
LINE
  8
0
 10
40.3691
 20
14.1595
 11
40.3592
 21
14.2197
  0
LINE
  8
0
 10
40.3592
 20
14.2197
 11
40.3309
 21
14.3198
  0
LINE
  8
0
 10
40.3309
 20
14.3198
 11
40.3142
 21
14.3788
  0
LINE
  8
0
 10
40.3142
 20
14.3788
 11
40.2762
 21
14.4695
  0
LINE
  8
0
 10
40.2762
 20
14.4695
 11
40.2527
 21
14.5257
  0
LINE
  8
0
 10
40.2527
 20
14.5257
 11
40.2062
 21
14.6052
  0
LINE
  8
0
 10
40.2062
 20
14.6052
 11
40.1762
 21
14.6566
  0
LINE
  8
0
 10
40.1762
 20
14.6566
 11
40.1226
 21
14.7236
  0
LINE
  8
0
 10
40.1226
 20
14.7236
 11
40.0868
 21
14.7684
  0
LINE
  8
0
 10
40.0868
 20
14.7684
 11
39.9864
 21
14.8584
  0
LINE
  8
0
 10
39.9864
 20
14.8584
 11
39.9226
 21
14.8971
  0
LINE
  8
0
 10
39.9226
 20
14.8971
 11
39.8777
 21
14.9243
  0
LINE
  8
0
 10
39.8777
 20
14.9243
 11
39.811
 21
14.9477
  0
LINE
  8
0
 10
39.811
 20
14.9477
 11
39.7632
 21
14.9645
  0
LINE
  8
0
 10
39.7632
 20
14.9645
 11
39.6951
 21
14.9723
  0
LINE
  8
0
 10
39.6951
 20
14.9723
 11
39.6459
 21
14.978
  0
LINE
  8
0
 10
39.6459
 20
14.978
 11
36.5
 21
14.978
  0
LINE
  8
0
 10
36.5
 20
14.978
 11
36.5
 21
0
  0
LINE
  8
0
 10
36.5
 20
22.2939
 11
39.6459
 21
22.2939
  0
LINE
  8
0
 10
39.6459
 20
22.2939
 11
39.7632
 21
22.3074
  0
LINE
  8
0
 10
39.7632
 20
22.3074
 11
39.7684
 21
22.3092
  0
LINE
  8
0
 10
39.7684
 20
22.3092
 11
39.8777
 21
22.3476
  0
LINE
  8
0
 10
39.8777
 20
22.3476
 11
39.8823
 21
22.3504
  0
LINE
  8
0
 10
39.8823
 20
22.3504
 11
39.9864
 21
22.4135
  0
LINE
  8
0
 10
39.9864
 20
22.4135
 11
39.9902
 21
22.4168
  0
LINE
  8
0
 10
39.9902
 20
22.4168
 11
40.0868
 21
22.5034
  0
LINE
  8
0
 10
40.0868
 20
22.5034
 11
40.0895
 21
22.5069
  0
LINE
  8
0
 10
40.0895
 20
22.5069
 11
40.1762
 21
22.6153
  0
LINE
  8
0
 10
40.1762
 20
22.6153
 11
40.178
 21
22.6183
  0
LINE
  8
0
 10
40.178
 20
22.6183
 11
40.2527
 21
22.7462
  0
LINE
  8
0
 10
40.2527
 20
22.7462
 11
40.2535
 21
22.7482
  0
LINE
  8
0
 10
40.2535
 20
22.7482
 11
40.3142
 21
22.893
  0
LINE
  8
0
 10
40.3142
 20
22.893
 11
40.3143
 21
22.8935
  0
LINE
  8
0
 10
40.3143
 20
22.8935
 11
40.325
 21
22.9314
  0
LINE
  8
0
 10
40.325
 20
22.9314
 11
40.3592
 21
23.0423
  0
LINE
  8
0
 10
40.3592
 20
23.0423
 11
40.3647
 21
23.0732
  0
LINE
  8
0
 10
40.3647
 20
23.0732
 11
40.3867
 21
23.1961
  0
LINE
  8
0
 10
40.3867
 20
23.1961
 11
40.3909
 21
23.2687
  0
LINE
  8
0
 10
40.3909
 20
23.2687
 11
40.3959
 21
23.3538
  0
LINE
  8
0
 10
40.3959
 20
23.3538
 11
40.3959
 21
24.8306
  0
LINE
  8
0
 10
40.3959
 20
24.8306
 11
40.394
 21
24.8657
  0
LINE
  8
0
 10
40.394
 20
24.8657
 11
40.3867
 21
25.0023
  0
LINE
  8
0
 10
40.3867
 20
25.0023
 11
40.3812
 21
25.0354
  0
LINE
  8
0
 10
40.3812
 20
25.0354
 11
40.3592
 21
25.1697
  0
LINE
  8
0
 10
40.3592
 20
25.1697
 11
40.3506
 21
25.2002
  0
LINE
  8
0
 10
40.3506
 20
25.2002
 11
40.3142
 21
25.3288
  0
LINE
  8
0
 10
40.3142
 20
25.3288
 11
40.3027
 21
25.3561
  0
LINE
  8
0
 10
40.3027
 20
25.3561
 11
40.2527
 21
25.4756
  0
LINE
  8
0
 10
40.2527
 20
25.4756
 11
40.2388
 21
25.4993
  0
LINE
  8
0
 10
40.2388
 20
25.4993
 11
40.1762
 21
25.6066
  0
LINE
  8
0
 10
40.1762
 20
25.6066
 11
40.1605
 21
25.6263
  0
LINE
  8
0
 10
40.1605
 20
25.6263
 11
40.0868
 21
25.7184
  0
LINE
  8
0
 10
40.0868
 20
25.7184
 11
40.0695
 21
25.7339
  0
LINE
  8
0
 10
40.0695
 20
25.7339
 11
39.9864
 21
25.8084
  0
LINE
  8
0
 10
39.9864
 20
25.8084
 11
39.968
 21
25.8195
  0
LINE
  8
0
 10
39.968
 20
25.8195
 11
39.8777
 21
25.8743
  0
LINE
  8
0
 10
39.8777
 20
25.8743
 11
39.8586
 21
25.881
  0
LINE
  8
0
 10
39.8586
 20
25.881
 11
39.7632
 21
25.9145
  0
LINE
  8
0
 10
39.7632
 20
25.9145
 11
39.6459
 21
25.928
  0
LINE
  8
0
 10
39.6459
 20
25.928
 11
36.5
 21
25.928
  0
LINE
  8
0
 10
36.5
 20
25.928
 11
36.5
 21
22.2939
  0
LINE
  8
0
 10
36.5
 20
32.5086
 11
39.6459
 21
32.5086
  0
LINE
  8
0
 10
39.6459
 20
32.5086
 11
39.7508
 21
32.517
  0
LINE
  8
0
 10
39.7508
 20
32.517
 11
39.7632
 21
32.5181
  0
LINE
  8
0
 10
39.7632
 20
32.5181
 11
39.8667
 21
32.5435
  0
LINE
  8
0
 10
39.8667
 20
32.5435
 11
39.8777
 21
32.5462
  0
LINE
  8
0
 10
39.8777
 20
32.5462
 11
39.978
 21
32.5889
  0
LINE
  8
0
 10
39.978
 20
32.5889
 11
39.9864
 21
32.5924
  0
LINE
  8
0
 10
39.9864
 20
32.5924
 11
40.0814
 21
32.6522
  0
LINE
  8
0
 10
40.0814
 20
32.6522
 11
40.0868
 21
32.6555
  0
LINE
  8
0
 10
40.0868
 20
32.6555
 11
40.1742
 21
32.7321
  0
LINE
  8
0
 10
40.1742
 20
32.7321
 11
40.1762
 21
32.7339
  0
LINE
  8
0
 10
40.1762
 20
32.7339
 11
40.2278
 21
32.7958
  0
LINE
  8
0
 10
40.2278
 20
32.7958
 11
40.2527
 21
32.825
  0
LINE
  8
0
 10
40.2527
 20
32.825
 11
40.2533
 21
32.826
  0
LINE
  8
0
 10
40.2533
 20
32.826
 11
40.3142
 21
32.9252
  0
LINE
  8
0
 10
40.3142
 20
32.9252
 11
40.3161
 21
32.9298
  0
LINE
  8
0
 10
40.3161
 20
32.9298
 11
40.3592
 21
33.0339
  0
LINE
  8
0
 10
40.3592
 20
33.0339
 11
40.3613
 21
33.0425
  0
LINE
  8
0
 10
40.3613
 20
33.0425
 11
40.3867
 21
33.1483
  0
LINE
  8
0
 10
40.3867
 20
33.1483
 11
40.3877
 21
33.1608
  0
LINE
  8
0
 10
40.3877
 20
33.1608
 11
40.3959
 21
33.2655
  0
LINE
  8
0
 10
40.3959
 20
33.2655
 11
40.3959
 21
40
  0
LINE
  8
0
 10
40.3959
 20
40
 11
41
 21
40.6041
  0
LINE
  8
0
 10
41
 20
40.6041
 11
41
 21
41.5
  0
LINE
  8
0
 10
41
 20
41.5
 11
42.5539
 21
41.5
  0
LINE
  8
0
 10
42.5539
 20
41.5
 11
42.5539
 21
45.5
  0
LINE
  8
0
 10
42.5539
 20
45.5
 11
36.5
 21
45.5
  0
LINE
  8
0
 10
36.5
 20
45.5
 11
36.5
 21
32.5086
  0
LINE
  8
0
 10
44.9504
 20
0
 11
47.5
 21
0
  0
LINE
  8
0
 10
47.5
 20
0
 11
47.5
 21
3.5
  0
LINE
  8
0
 10
47.5
 20
3.5
 11
47
 21
4
  0
LINE
  8
0
 10
47
 20
4
 11
44.9504
 21
4
  0
LINE
  8
0
 10
44.9504
 20
4
 11
44.9504
 21
0
  0
LINE
  8
0
 10
44.9504
 20
41.5
 11
47
 21
41.5
  0
LINE
  8
0
 10
47
 20
41.5
 11
47.5
 21
42
  0
LINE
  8
0
 10
47.5
 20
42
 11
47.5
 21
45.5
  0
LINE
  8
0
 10
47.5
 20
45.5
 11
44.9504
 21
45.5
  0
LINE
  8
0
 10
44.9504
 20
45.5
 11
44.9504
 21
41.5
  0
ENDSEC
  0
SECTION
  2
OBJECTS
  0
DICTIONARY
  0
ENDSEC
  0
EOF
