  0
SECTION
  2
BLOCKS
  0
ENDSEC
  0
SECTION
  2
ENTITIES
  0
LINE
  8
0
 10
0
 20
0
 11
11
 21
0
  0
LINE
  8
0
 10
11
 20
0
 11
11
 21
14.444
  0
LINE
  8
0
 10
11
 20
14.444
 11
7.85409
 21
14.444
  0
LINE
  8
0
 10
7.85409
 20
14.444
 11
7.77731
 21
14.4351
  0
LINE
  8
0
 10
7.77731
 20
14.4351
 11
7.73676
 21
14.4304
  0
LINE
  8
0
 10
7.73676
 20
14.4304
 11
7.66161
 21
14.404
  0
LINE
  8
0
 10
7.66161
 20
14.404
 11
7.62232
 21
14.3902
  0
LINE
  8
0
 10
7.62232
 20
14.3902
 11
7.55047
 21
14.3467
  0
LINE
  8
0
 10
7.55047
 20
14.3467
 11
7.51359
 21
14.3243
  0
LINE
  8
0
 10
7.51359
 20
14.3243
 11
7.41325
 21
14.2344
  0
LINE
  8
0
 10
7.41325
 20
14.2344
 11
7.35288
 21
14.1589
  0
LINE
  8
0
 10
7.35288
 20
14.1589
 11
7.32376
 21
14.1225
  0
LINE
  8
0
 10
7.32376
 20
14.1225
 11
7.2715
 21
14.033
  0
LINE
  8
0
 10
7.2715
 20
14.033
 11
7.24732
 21
13.9916
  0
LINE
  8
0
 10
7.24732
 20
13.9916
 11
7.20463
 21
13.8897
  0
LINE
  8
0
 10
7.20463
 20
13.8897
 11
7.18583
 21
13.8448
  0
LINE
  8
0
 10
7.18583
 20
13.8448
 11
7.15405
 21
13.7325
  0
LINE
  8
0
 10
7.15405
 20
13.7325
 11
7.14079
 21
13.6857
  0
LINE
  8
0
 10
7.14079
 20
13.6857
 11
7.12107
 21
13.5655
  0
LINE
  8
0
 10
7.12107
 20
13.5655
 11
7.11332
 21
13.5182
  0
LINE
  8
0
 10
7.11332
 20
13.5182
 11
7.10658
 21
13.3928
  0
LINE
  8
0
 10
7.10658
 20
13.3928
 11
7.10409
 21
13.3466
  0
LINE
  8
0
 10
7.10409
 20
13.3466
 11
7.10409
 21
5.5
  0
LINE
  8
0
 10
7.10409
 20
5.5
 11
6.30552
 21
4.70143
  0
LINE
  8
0
 10
6.30552
 20
4.70143
 11
6.30552
 21
4
  0
LINE
  8
0
 10
6.30552
 20
4
 11
0.499999
 21
4
  0
LINE
  8
0
 10
0.499999
 20
4
 11
0
 21
3.5
  0
LINE
  8
0
 10
0
 20
3.5
 11
0
 21
0
  0
LINE
  8
0
 10
0
 20
42
 11
0.499999
 21
41.5
  0
LINE
  8
0
 10
0.499999
 20
41.5
 11
6.30552
 21
41.5
  0
LINE
  8
0
 10
6.30552
 20
41.5
 11
6.30552
 21
40.7986
  0
LINE
  8
0
 10
6.30552
 20
40.7986
 11
7.10409
 21
40
  0
LINE
  8
0
 10
7.10409
 20
40
 11
7.10409
 21
33.1558
  0
LINE
  8
0
 10
7.10409
 20
33.1558
 11
7.10571
 21
33.1347
  0
LINE
  8
0
 10
7.10571
 20
33.1347
 11
7.11332
 21
33.0355
  0
LINE
  8
0
 10
7.11332
 20
33.0355
 11
7.11637
 21
33.0225
  0
LINE
  8
0
 10
7.11637
 20
33.0225
 11
7.14079
 21
32.9181
  0
LINE
  8
0
 10
7.14079
 20
32.9181
 11
7.14272
 21
32.9133
  0
LINE
  8
0
 10
7.14272
 20
32.9133
 11
7.16889
 21
32.8485
  0
LINE
  8
0
 10
7.16889
 20
32.8485
 11
7.18465
 21
32.8073
  0
LINE
  8
0
 10
7.18465
 20
32.8073
 11
7.18583
 21
32.8042
  0
LINE
  8
0
 10
7.18583
 20
32.8042
 11
7.24151
 21
32.7056
  0
LINE
  8
0
 10
7.24151
 20
32.7056
 11
7.24732
 21
32.6953
  0
LINE
  8
0
 10
7.24732
 20
32.6953
 11
7.31147
 21
32.6139
  0
LINE
  8
0
 10
7.31147
 20
32.6139
 11
7.32376
 21
32.5983
  0
LINE
  8
0
 10
7.32376
 20
32.5983
 11
7.39333
 21
32.5339
  0
LINE
  8
0
 10
7.39333
 20
32.5339
 11
7.41325
 21
32.5154
  0
LINE
  8
0
 10
7.41325
 20
32.5154
 11
7.48574
 21
32.4673
  0
LINE
  8
0
 10
7.48574
 20
32.4673
 11
7.51359
 21
32.4488
  0
LINE
  8
0
 10
7.51359
 20
32.4488
 11
7.58725
 21
32.4157
  0
LINE
  8
0
 10
7.58725
 20
32.4157
 11
7.62232
 21
32.3999
  0
LINE
  8
0
 10
7.62232
 20
32.3999
 11
7.69615
 21
32.3807
  0
LINE
  8
0
 10
7.69615
 20
32.3807
 11
7.73676
 21
32.3701
  0
LINE
  8
0
 10
7.73676
 20
32.3701
 11
7.81048
 21
32.3639
  0
LINE
  8
0
 10
7.81048
 20
32.3639
 11
7.85409
 21
32.3601
  0
LINE
  8
0
 10
7.85409
 20
32.3601
 11
11
 21
32.3601
  0
LINE
  8
0
 10
11
 20
32.3601
 11
11
 21
45.5
  0
LINE
  8
0
 10
11
 20
45.5
 11
0
 21
45.5
  0
LINE
  8
0
 10
0
 20
45.5
 11
0
 21
42
  0
LINE
  8
0
 10
7.10409
 20
22.8572
 11
7.10446
 21
22.8503
  0
LINE
  8
0
 10
7.10446
 20
22.8503
 11
7.11332
 21
22.6855
  0
LINE
  8
0
 10
7.11332
 20
22.6855
 11
7.11477
 21
22.6767
  0
LINE
  8
0
 10
7.11477
 20
22.6767
 11
7.14079
 21
22.5181
  0
LINE
  8
0
 10
7.14079
 20
22.5181
 11
7.14373
 21
22.5077
  0
LINE
  8
0
 10
7.14373
 20
22.5077
 11
7.18583
 21
22.359
  0
LINE
  8
0
 10
7.18583
 20
22.359
 11
7.19055
 21
22.3477
  0
LINE
  8
0
 10
7.19055
 20
22.3477
 11
7.24732
 21
22.2121
  0
LINE
  8
0
 10
7.24732
 20
22.2121
 11
7.25401
 21
22.2007
  0
LINE
  8
0
 10
7.25401
 20
22.2007
 11
7.32376
 21
22.0812
  0
LINE
  8
0
 10
7.32376
 20
22.0812
 11
7.33244
 21
22.0704
  0
LINE
  8
0
 10
7.33244
 20
22.0704
 11
7.41325
 21
21.9694
  0
LINE
  8
0
 10
7.41325
 20
21.9694
 11
7.42379
 21
21.9599
  0
LINE
  8
0
 10
7.42379
 20
21.9599
 11
7.51359
 21
21.8794
  0
LINE
  8
0
 10
7.51359
 20
21.8794
 11
7.52572
 21
21.8721
  0
LINE
  8
0
 10
7.52572
 20
21.8721
 11
7.62232
 21
21.8135
  0
LINE
  8
0
 10
7.62232
 20
21.8135
 11
7.63561
 21
21.8088
  0
LINE
  8
0
 10
7.63561
 20
21.8088
 11
7.73676
 21
21.7733
  0
LINE
  8
0
 10
7.73676
 20
21.7733
 11
7.85409
 21
21.7598
  0
LINE
  8
0
 10
7.85409
 20
21.7598
 11
11
 21
21.7598
  0
LINE
  8
0
 10
11
 20
21.7598
 11
11
 21
25.3939
  0
LINE
  8
0
 10
11
 20
25.3939
 11
7.85409
 21
25.3939
  0
LINE
  8
0
 10
7.85409
 20
25.3939
 11
7.73676
 21
25.3804
  0
LINE
  8
0
 10
7.73676
 20
25.3804
 11
7.71357
 21
25.3723
  0
LINE
  8
0
 10
7.71357
 20
25.3723
 11
7.62232
 21
25.3402
  0
LINE
  8
0
 10
7.62232
 20
25.3402
 11
7.60011
 21
25.3268
  0
LINE
  8
0
 10
7.60011
 20
25.3268
 11
7.51359
 21
25.2743
  0
LINE
  8
0
 10
7.51359
 20
25.2743
 11
7.49283
 21
25.2557
  0
LINE
  8
0
 10
7.49283
 20
25.2557
 11
7.41325
 21
25.1844
  0
LINE
  8
0
 10
7.41325
 20
25.1844
 11
7.39442
 21
25.1608
  0
LINE
  8
0
 10
7.39442
 20
25.1608
 11
7.32376
 21
25.0725
  0
LINE
  8
0
 10
7.32376
 20
25.0725
 11
7.30735
 21
25.0444
  0
LINE
  8
0
 10
7.30735
 20
25.0444
 11
7.24732
 21
24.9416
  0
LINE
  8
0
 10
7.24732
 20
24.9416
 11
7.23382
 21
24.9093
  0
LINE
  8
0
 10
7.23382
 20
24.9093
 11
7.18583
 21
24.7948
  0
LINE
  8
0
 10
7.18583
 20
24.7948
 11
7.1757
 21
24.759
  0
LINE
  8
0
 10
7.1757
 20
24.759
 11
7.14079
 21
24.6357
  0
LINE
  8
0
 10
7.14079
 20
24.6357
 11
7.13445
 21
24.597
  0
LINE
  8
0
 10
7.13445
 20
24.597
 11
7.11332
 21
24.4682
  0
LINE
  8
0
 10
7.11332
 20
24.4682
 11
7.11113
 21
24.4275
  0
LINE
  8
0
 10
7.11113
 20
24.4275
 11
7.10409
 21
24.2966
  0
LINE
  8
0
 10
7.10409
 20
24.2966
 11
7.10409
 21
22.8572
  0
LINE
  8
0
 10
36.5
 20
0
 11
47.5
 21
0
  0
LINE
  8
0
 10
47.5
 20
0
 11
47.5
 21
3.5
  0
LINE
  8
0
 10
47.5
 20
3.5
 11
47
 21
4
  0
LINE
  8
0
 10
47
 20
4
 11
41.1945
 21
4
  0
LINE
  8
0
 10
41.1945
 20
4
 11
41.1945
 21
4.70143
  0
LINE
  8
0
 10
41.1945
 20
4.70143
 11
40.3959
 21
5.5
  0
LINE
  8
0
 10
40.3959
 20
5.5
 11
40.3959
 21
13.3466
  0
LINE
  8
0
 10
40.3959
 20
13.3466
 11
40.3892
 21
13.471
  0
LINE
  8
0
 10
40.3892
 20
13.471
 11
40.3867
 21
13.5182
  0
LINE
  8
0
 10
40.3867
 20
13.5182
 11
40.3671
 21
13.6376
  0
LINE
  8
0
 10
40.3671
 20
13.6376
 11
40.3592
 21
13.6857
  0
LINE
  8
0
 10
40.3592
 20
13.6857
 11
40.3276
 21
13.7972
  0
LINE
  8
0
 10
40.3276
 20
13.7972
 11
40.3142
 21
13.8448
  0
LINE
  8
0
 10
40.3142
 20
13.8448
 11
40.2717
 21
13.9461
  0
LINE
  8
0
 10
40.2717
 20
13.9461
 11
40.2527
 21
13.9916
  0
LINE
  8
0
 10
40.2527
 20
13.9916
 11
40.2007
 21
14.0807
  0
LINE
  8
0
 10
40.2007
 20
14.0807
 11
40.1762
 21
14.1225
  0
LINE
  8
0
 10
40.1762
 20
14.1225
 11
40.1161
 21
14.1977
  0
LINE
  8
0
 10
40.1161
 20
14.1977
 11
40.0868
 21
14.2344
  0
LINE
  8
0
 10
40.0868
 20
14.2344
 11
39.9864
 21
14.3243
  0
LINE
  8
0
 10
39.9864
 20
14.3243
 11
39.9147
 21
14.3678
  0
LINE
  8
0
 10
39.9147
 20
14.3678
 11
39.8777
 21
14.3902
  0
LINE
  8
0
 10
39.8777
 20
14.3902
 11
39.8026
 21
14.4166
  0
LINE
  8
0
 10
39.8026
 20
14.4166
 11
39.7632
 21
14.4304
  0
LINE
  8
0
 10
39.7632
 20
14.4304
 11
39.6865
 21
14.4393
  0
LINE
  8
0
 10
39.6865
 20
14.4393
 11
39.6459
 21
14.444
  0
LINE
  8
0
 10
39.6459
 20
14.444
 11
36.5
 21
14.444
  0
LINE
  8
0
 10
36.5
 20
14.444
 11
36.5
 21
0
  0
LINE
  8
0
 10
36.5
 20
21.7598
 11
39.6459
 21
21.7598
  0
LINE
  8
0
 10
39.6459
 20
21.7598
 11
39.7632
 21
21.7733
  0
LINE
  8
0
 10
39.7632
 20
21.7733
 11
39.7768
 21
21.7781
  0
LINE
  8
0
 10
39.7768
 20
21.7781
 11
39.8777
 21
21.8135
  0
LINE
  8
0
 10
39.8777
 20
21.8135
 11
39.8902
 21
21.8211
  0
LINE
  8
0
 10
39.8902
 20
21.8211
 11
39.9864
 21
21.8794
  0
LINE
  8
0
 10
39.9864
 20
21.8794
 11
39.9975
 21
21.8893
  0
LINE
  8
0
 10
39.9975
 20
21.8893
 11
40.0868
 21
21.9694
  0
LINE
  8
0
 10
40.0868
 20
21.9694
 11
40.096
 21
21.981
  0
LINE
  8
0
 10
40.096
 20
21.981
 11
40.1762
 21
22.0812
  0
LINE
  8
0
 10
40.1762
 20
22.0812
 11
40.1835
 21
22.0937
  0
LINE
  8
0
 10
40.1835
 20
22.0937
 11
40.2527
 21
22.2121
  0
LINE
  8
0
 10
40.2527
 20
22.2121
 11
40.2579
 21
22.2247
  0
LINE
  8
0
 10
40.2579
 20
22.2247
 11
40.3142
 21
22.359
  0
LINE
  8
0
 10
40.3142
 20
22.359
 11
40.3175
 21
22.3709
  0
LINE
  8
0
 10
40.3175
 20
22.3709
 11
40.3592
 21
22.5181
  0
LINE
  8
0
 10
40.3592
 20
22.5181
 11
40.3609
 21
22.5287
  0
LINE
  8
0
 10
40.3609
 20
22.5287
 11
40.3867
 21
22.6855
  0
LINE
  8
0
 10
40.3867
 20
22.6855
 11
40.3872
 21
22.6943
  0
LINE
  8
0
 10
40.3872
 20
22.6943
 11
40.3959
 21
22.8572
  0
LINE
  8
0
 10
40.3959
 20
22.8572
 11
40.3959
 21
24.2966
  0
LINE
  8
0
 10
40.3959
 20
24.2966
 11
40.3937
 21
24.3378
  0
LINE
  8
0
 10
40.3937
 20
24.3378
 11
40.3867
 21
24.4682
  0
LINE
  8
0
 10
40.3867
 20
24.4682
 11
40.3802
 21
24.5074
  0
LINE
  8
0
 10
40.3802
 20
24.5074
 11
40.3592
 21
24.6357
  0
LINE
  8
0
 10
40.3592
 20
24.6357
 11
40.3489
 21
24.672
  0
LINE
  8
0
 10
40.3489
 20
24.672
 11
40.3142
 21
24.7948
  0
LINE
  8
0
 10
40.3142
 20
24.7948
 11
40.3005
 21
24.8274
  0
LINE
  8
0
 10
40.3005
 20
24.8274
 11
40.2527
 21
24.9416
  0
LINE
  8
0
 10
40.2527
 20
24.9416
 11
40.2361
 21
24.97
  0
LINE
  8
0
 10
40.2361
 20
24.97
 11
40.1762
 21
25.0725
  0
LINE
  8
0
 10
40.1762
 20
25.0725
 11
40.1572
 21
25.0963
  0
LINE
  8
0
 10
40.1572
 20
25.0963
 11
40.0868
 21
25.1844
  0
LINE
  8
0
 10
40.0868
 20
25.1844
 11
40.0658
 21
25.2031
  0
LINE
  8
0
 10
40.0658
 20
25.2031
 11
39.9864
 21
25.2743
  0
LINE
  8
0
 10
39.9864
 20
25.2743
 11
39.964
 21
25.2879
  0
LINE
  8
0
 10
39.964
 20
25.2879
 11
39.8777
 21
25.3402
  0
LINE
  8
0
 10
39.8777
 20
25.3402
 11
39.8544
 21
25.3484
  0
LINE
  8
0
 10
39.8544
 20
25.3484
 11
39.7632
 21
25.3804
  0
LINE
  8
0
 10
39.7632
 20
25.3804
 11
39.6459
 21
25.3939
  0
LINE
  8
0
 10
39.6459
 20
25.3939
 11
36.5
 21
25.3939
  0
LINE
  8
0
 10
36.5
 20
25.3939
 11
36.5
 21
21.7598
  0
LINE
  8
0
 10
36.5
 20
32.3601
 11
39.6459
 21
32.3601
  0
LINE
  8
0
 10
39.6459
 20
32.3601
 11
39.7197
 21
32.3664
  0
LINE
  8
0
 10
39.7197
 20
32.3664
 11
39.7632
 21
32.3701
  0
LINE
  8
0
 10
39.7632
 20
32.3701
 11
39.8374
 21
32.3894
  0
LINE
  8
0
 10
39.8374
 20
32.3894
 11
39.8777
 21
32.3999
  0
LINE
  8
0
 10
39.8777
 20
32.3999
 11
39.9522
 21
32.4334
  0
LINE
  8
0
 10
39.9522
 20
32.4334
 11
39.9864
 21
32.4488
  0
LINE
  8
0
 10
39.9864
 20
32.4488
 11
40.0605
 21
32.498
  0
LINE
  8
0
 10
40.0605
 20
32.498
 11
40.0868
 21
32.5154
  0
LINE
  8
0
 10
40.0868
 20
32.5154
 11
40.1589
 21
32.5822
  0
LINE
  8
0
 10
40.1589
 20
32.5822
 11
40.1762
 21
32.5983
  0
LINE
  8
0
 10
40.1762
 20
32.5983
 11
40.2438
 21
32.6841
  0
LINE
  8
0
 10
40.2438
 20
32.6841
 11
40.2527
 21
32.6953
  0
LINE
  8
0
 10
40.2527
 20
32.6953
 11
40.3121
 21
32.8006
  0
LINE
  8
0
 10
40.3121
 20
32.8006
 11
40.3142
 21
32.8042
  0
LINE
  8
0
 10
40.3142
 20
32.8042
 11
40.3311
 21
32.8485
  0
LINE
  8
0
 10
40.3311
 20
32.8485
 11
40.3592
 21
32.9181
  0
LINE
  8
0
 10
40.3592
 20
32.9181
 11
40.3605
 21
32.9235
  0
LINE
  8
0
 10
40.3605
 20
32.9235
 11
40.3867
 21
33.0355
  0
LINE
  8
0
 10
40.3867
 20
33.0355
 11
40.3878
 21
33.0498
  0
LINE
  8
0
 10
40.3878
 20
33.0498
 11
40.3959
 21
33.1558
  0
LINE
  8
0
 10
40.3959
 20
33.1558
 11
40.3959
 21
40
  0
LINE
  8
0
 10
40.3959
 20
40
 11
41.1945
 21
40.7986
  0
LINE
  8
0
 10
41.1945
 20
40.7986
 11
41.1945
 21
41.5
  0
LINE
  8
0
 10
41.1945
 20
41.5
 11
47
 21
41.5
  0
LINE
  8
0
 10
47
 20
41.5
 11
47.5
 21
42
  0
LINE
  8
0
 10
47.5
 20
42
 11
47.5
 21
45.5
  0
LINE
  8
0
 10
47.5
 20
45.5
 11
36.5
 21
45.5
  0
LINE
  8
0
 10
36.5
 20
45.5
 11
36.5
 21
32.3601
  0
ENDSEC
  0
SECTION
  2
OBJECTS
  0
DICTIONARY
  0
ENDSEC
  0
EOF
