  0
SECTION
  2
BLOCKS
  0
ENDSEC
  0
SECTION
  2
ENTITIES
  0
LINE
  8
0
 10
0
 20
0
 11
11
 21
0
  0
LINE
  8
0
 10
11
 20
0
 11
11
 21
13.9099
  0
LINE
  8
0
 10
11
 20
13.9099
 11
7.85409
 21
13.9099
  0
LINE
  8
0
 10
7.85409
 20
13.9099
 11
7.76872
 21
13.9001
  0
LINE
  8
0
 10
7.76872
 20
13.9001
 11
7.73676
 21
13.8964
  0
LINE
  8
0
 10
7.73676
 20
13.8964
 11
7.65322
 21
13.867
  0
LINE
  8
0
 10
7.65322
 20
13.867
 11
7.62232
 21
13.8562
  0
LINE
  8
0
 10
7.62232
 20
13.8562
 11
7.54248
 21
13.8078
  0
LINE
  8
0
 10
7.54248
 20
13.8078
 11
7.51359
 21
13.7903
  0
LINE
  8
0
 10
7.51359
 20
13.7903
 11
7.41325
 21
13.7003
  0
LINE
  8
0
 10
7.41325
 20
13.7003
 11
7.34628
 21
13.6166
  0
LINE
  8
0
 10
7.34628
 20
13.6166
 11
7.32376
 21
13.5885
  0
LINE
  8
0
 10
7.32376
 20
13.5885
 11
7.26585
 21
13.4893
  0
LINE
  8
0
 10
7.26585
 20
13.4893
 11
7.24732
 21
13.4575
  0
LINE
  8
0
 10
7.24732
 20
13.4575
 11
7.20009
 21
13.3448
  0
LINE
  8
0
 10
7.20009
 20
13.3448
 11
7.18583
 21
13.3107
  0
LINE
  8
0
 10
7.18583
 20
13.3107
 11
7.15072
 21
13.1867
  0
LINE
  8
0
 10
7.15072
 20
13.1867
 11
7.14079
 21
13.1516
  0
LINE
  8
0
 10
7.14079
 20
13.1516
 11
7.11904
 21
13.019
  0
LINE
  8
0
 10
7.11904
 20
13.019
 11
7.11332
 21
12.9842
  0
LINE
  8
0
 10
7.11332
 20
12.9842
 11
7.10589
 21
12.8461
  0
LINE
  8
0
 10
7.10589
 20
12.8461
 11
7.10409
 21
12.8125
  0
LINE
  8
0
 10
7.10409
 20
12.8125
 11
7.10409
 21
5.5
  0
LINE
  8
0
 10
7.10409
 20
5.5
 11
5.60409
 21
4
  0
LINE
  8
0
 10
5.60409
 20
4
 11
0.499999
 21
4
  0
LINE
  8
0
 10
0.499999
 20
4
 11
0
 21
3.5
  0
LINE
  8
0
 10
0
 20
3.5
 11
0
 21
0
  0
LINE
  8
0
 10
0
 20
42
 11
0.499999
 21
41.5
  0
LINE
  8
0
 10
0.499999
 20
41.5
 11
5.60409
 21
41.5
  0
LINE
  8
0
 10
5.60409
 20
41.5
 11
7.10409
 21
40
  0
LINE
  8
0
 10
7.10409
 20
40
 11
7.10409
 21
32.959
  0
LINE
  8
0
 10
7.10409
 20
32.959
 11
7.10562
 21
32.9379
  0
LINE
  8
0
 10
7.10562
 20
32.9379
 11
7.11332
 21
32.8318
  0
LINE
  8
0
 10
7.11332
 20
32.8318
 11
7.11511
 21
32.8237
  0
LINE
  8
0
 10
7.11511
 20
32.8237
 11
7.13037
 21
32.7548
  0
LINE
  8
0
 10
7.13037
 20
32.7548
 11
7.13965
 21
32.709
  0
LINE
  8
0
 10
7.13965
 20
32.709
 11
7.14079
 21
32.7034
  0
LINE
  8
0
 10
7.14079
 20
32.7034
 11
7.17901
 21
32.5942
  0
LINE
  8
0
 10
7.17901
 20
32.5942
 11
7.18583
 21
32.5747
  0
LINE
  8
0
 10
7.18583
 20
32.5747
 11
7.23121
 21
32.487
  0
LINE
  8
0
 10
7.23121
 20
32.487
 11
7.24732
 21
32.4559
  0
LINE
  8
0
 10
7.24732
 20
32.4559
 11
7.29544
 21
32.3892
  0
LINE
  8
0
 10
7.29544
 20
32.3892
 11
7.32376
 21
32.3499
  0
LINE
  8
0
 10
7.32376
 20
32.3499
 11
7.37086
 21
32.3023
  0
LINE
  8
0
 10
7.37086
 20
32.3023
 11
7.41325
 21
32.2594
  0
LINE
  8
0
 10
7.41325
 20
32.2594
 11
7.45666
 21
32.2279
  0
LINE
  8
0
 10
7.45666
 20
32.2279
 11
7.51359
 21
32.1866
  0
LINE
  8
0
 10
7.51359
 20
32.1866
 11
7.55195
 21
32.1678
  0
LINE
  8
0
 10
7.55195
 20
32.1678
 11
7.62232
 21
32.1333
  0
LINE
  8
0
 10
7.62232
 20
32.1333
 11
7.65573
 21
32.1238
  0
LINE
  8
0
 10
7.65573
 20
32.1238
 11
7.73676
 21
32.1008
  0
LINE
  8
0
 10
7.73676
 20
32.1008
 11
7.76666
 21
32.098
  0
LINE
  8
0
 10
7.76666
 20
32.098
 11
7.85409
 21
32.0898
  0
LINE
  8
0
 10
7.85409
 20
32.0898
 11
11
 21
32.0898
  0
LINE
  8
0
 10
11
 20
32.0898
 11
11
 21
45.5
  0
LINE
  8
0
 10
11
 20
45.5
 11
0
 21
45.5
  0
LINE
  8
0
 10
0
 20
45.5
 11
0
 21
42
  0
LINE
  8
0
 10
7.10409
 20
22.3231
 11
7.10514
 21
22.3035
  0
LINE
  8
0
 10
7.10514
 20
22.3035
 11
7.11332
 21
22.1514
  0
LINE
  8
0
 10
7.11332
 20
22.1514
 11
7.11681
 21
22.1302
  0
LINE
  8
0
 10
7.11681
 20
22.1302
 11
7.14079
 21
21.984
  0
LINE
  8
0
 10
7.14079
 20
21.984
 11
7.14706
 21
21.9619
  0
LINE
  8
0
 10
7.14706
 20
21.9619
 11
7.18583
 21
21.8249
  0
LINE
  8
0
 10
7.18583
 20
21.8249
 11
7.1951
 21
21.8028
  0
LINE
  8
0
 10
7.1951
 20
21.8028
 11
7.24732
 21
21.6781
  0
LINE
  8
0
 10
7.24732
 20
21.6781
 11
7.25966
 21
21.657
  0
LINE
  8
0
 10
7.25966
 20
21.657
 11
7.32376
 21
21.5472
  0
LINE
  8
0
 10
7.32376
 20
21.5472
 11
7.33904
 21
21.5281
  0
LINE
  8
0
 10
7.33904
 20
21.5281
 11
7.41325
 21
21.4353
  0
LINE
  8
0
 10
7.41325
 20
21.4353
 11
7.43118
 21
21.4192
  0
LINE
  8
0
 10
7.43118
 20
21.4192
 11
7.51359
 21
21.3453
  0
LINE
  8
0
 10
7.51359
 20
21.3453
 11
7.53371
 21
21.3332
  0
LINE
  8
0
 10
7.53371
 20
21.3332
 11
7.62232
 21
21.2794
  0
LINE
  8
0
 10
7.62232
 20
21.2794
 11
7.64401
 21
21.2718
  0
LINE
  8
0
 10
7.64401
 20
21.2718
 11
7.73676
 21
21.2393
  0
LINE
  8
0
 10
7.73676
 20
21.2393
 11
7.85409
 21
21.2257
  0
LINE
  8
0
 10
7.85409
 20
21.2257
 11
11
 21
21.2257
  0
LINE
  8
0
 10
11
 20
21.2257
 11
11
 21
24.8599
  0
LINE
  8
0
 10
11
 20
24.8599
 11
7.85409
 21
24.8599
  0
LINE
  8
0
 10
7.85409
 20
24.8599
 11
7.73676
 21
24.8464
  0
LINE
  8
0
 10
7.73676
 20
24.8464
 11
7.70938
 21
24.8368
  0
LINE
  8
0
 10
7.70938
 20
24.8368
 11
7.62232
 21
24.8062
  0
LINE
  8
0
 10
7.62232
 20
24.8062
 11
7.59612
 21
24.7903
  0
LINE
  8
0
 10
7.59612
 20
24.7903
 11
7.51359
 21
24.7403
  0
LINE
  8
0
 10
7.51359
 20
24.7403
 11
7.48915
 21
24.7184
  0
LINE
  8
0
 10
7.48915
 20
24.7184
 11
7.41325
 21
24.6503
  0
LINE
  8
0
 10
7.41325
 20
24.6503
 11
7.39113
 21
24.6227
  0
LINE
  8
0
 10
7.39113
 20
24.6227
 11
7.32376
 21
24.5385
  0
LINE
  8
0
 10
7.32376
 20
24.5385
 11
7.30454
 21
24.5055
  0
LINE
  8
0
 10
7.30454
 20
24.5055
 11
7.24732
 21
24.4075
  0
LINE
  8
0
 10
7.24732
 20
24.4075
 11
7.23156
 21
24.3699
  0
LINE
  8
0
 10
7.23156
 20
24.3699
 11
7.18583
 21
24.2607
  0
LINE
  8
0
 10
7.18583
 20
24.2607
 11
7.17404
 21
24.219
  0
LINE
  8
0
 10
7.17404
 20
24.219
 11
7.14079
 21
24.1016
  0
LINE
  8
0
 10
7.14079
 20
24.1016
 11
7.13344
 21
24.0568
  0
LINE
  8
0
 10
7.13344
 20
24.0568
 11
7.11332
 21
23.9342
  0
LINE
  8
0
 10
7.11332
 20
23.9342
 11
7.11079
 21
23.8871
  0
LINE
  8
0
 10
7.11079
 20
23.8871
 11
7.10409
 21
23.7625
  0
LINE
  8
0
 10
7.10409
 20
23.7625
 11
7.10409
 21
22.3231
  0
LINE
  8
0
 10
36.5
 20
0
 11
47.5
 21
0
  0
LINE
  8
0
 10
47.5
 20
0
 11
47.5
 21
3.5
  0
LINE
  8
0
 10
47.5
 20
3.5
 11
47
 21
4
  0
LINE
  8
0
 10
47
 20
4
 11
41.8959
 21
4
  0
LINE
  8
0
 10
41.8959
 20
4
 11
40.3959
 21
5.5
  0
LINE
  8
0
 10
40.3959
 20
5.5
 11
40.3959
 21
12.8125
  0
LINE
  8
0
 10
40.3959
 20
12.8125
 11
40.3886
 21
12.9493
  0
LINE
  8
0
 10
40.3886
 20
12.9493
 11
40.3867
 21
12.9842
  0
LINE
  8
0
 10
40.3867
 20
12.9842
 11
40.3651
 21
13.1156
  0
LINE
  8
0
 10
40.3651
 20
13.1156
 11
40.3592
 21
13.1516
  0
LINE
  8
0
 10
40.3592
 20
13.1516
 11
40.3244
 21
13.2747
  0
LINE
  8
0
 10
40.3244
 20
13.2747
 11
40.3142
 21
13.3107
  0
LINE
  8
0
 10
40.3142
 20
13.3107
 11
40.2673
 21
13.4227
  0
LINE
  8
0
 10
40.2673
 20
13.4227
 11
40.2527
 21
13.4575
  0
LINE
  8
0
 10
40.2527
 20
13.4575
 11
40.1951
 21
13.5561
  0
LINE
  8
0
 10
40.1951
 20
13.5561
 11
40.1762
 21
13.5885
  0
LINE
  8
0
 10
40.1762
 20
13.5885
 11
40.1096
 21
13.6717
  0
LINE
  8
0
 10
40.1096
 20
13.6717
 11
40.0868
 21
13.7003
  0
LINE
  8
0
 10
40.0868
 20
13.7003
 11
39.9864
 21
13.7903
  0
LINE
  8
0
 10
39.9864
 20
13.7903
 11
39.9068
 21
13.8385
  0
LINE
  8
0
 10
39.9068
 20
13.8385
 11
39.8777
 21
13.8562
  0
LINE
  8
0
 10
39.8777
 20
13.8562
 11
39.7943
 21
13.8855
  0
LINE
  8
0
 10
39.7943
 20
13.8855
 11
39.7632
 21
13.8964
  0
LINE
  8
0
 10
39.7632
 20
13.8964
 11
39.6779
 21
13.9062
  0
LINE
  8
0
 10
39.6779
 20
13.9062
 11
39.6459
 21
13.9099
  0
LINE
  8
0
 10
39.6459
 20
13.9099
 11
36.5
 21
13.9099
  0
LINE
  8
0
 10
36.5
 20
13.9099
 11
36.5
 21
0
  0
LINE
  8
0
 10
36.5
 20
21.2257
 11
39.6459
 21
21.2257
  0
LINE
  8
0
 10
39.6459
 20
21.2257
 11
39.7632
 21
21.2393
  0
LINE
  8
0
 10
39.7632
 20
21.2393
 11
39.7851
 21
21.2469
  0
LINE
  8
0
 10
39.7851
 20
21.2469
 11
39.8777
 21
21.2794
  0
LINE
  8
0
 10
39.8777
 20
21.2794
 11
39.8981
 21
21.2918
  0
LINE
  8
0
 10
39.8981
 20
21.2918
 11
39.9864
 21
21.3453
  0
LINE
  8
0
 10
39.9864
 20
21.3453
 11
40.0048
 21
21.3618
  0
LINE
  8
0
 10
40.0048
 20
21.3618
 11
40.0868
 21
21.4353
  0
LINE
  8
0
 10
40.0868
 20
21.4353
 11
40.1025
 21
21.455
  0
LINE
  8
0
 10
40.1025
 20
21.455
 11
40.1762
 21
21.5472
  0
LINE
  8
0
 10
40.1762
 20
21.5472
 11
40.1891
 21
21.5691
  0
LINE
  8
0
 10
40.1891
 20
21.5691
 11
40.2527
 21
21.6781
  0
LINE
  8
0
 10
40.2527
 20
21.6781
 11
40.2624
 21
21.7013
  0
LINE
  8
0
 10
40.2624
 20
21.7013
 11
40.3142
 21
21.8249
  0
LINE
  8
0
 10
40.3142
 20
21.8249
 11
40.3208
 21
21.8484
  0
LINE
  8
0
 10
40.3208
 20
21.8484
 11
40.3592
 21
21.984
  0
LINE
  8
0
 10
40.3592
 20
21.984
 11
40.3629
 21
22.0068
  0
LINE
  8
0
 10
40.3629
 20
22.0068
 11
40.3867
 21
22.1514
  0
LINE
  8
0
 10
40.3867
 20
22.1514
 11
40.3878
 21
22.1727
  0
LINE
  8
0
 10
40.3878
 20
22.1727
 11
40.3959
 21
22.3231
  0
LINE
  8
0
 10
40.3959
 20
22.3231
 11
40.3959
 21
23.7625
  0
LINE
  8
0
 10
40.3959
 20
23.7625
 11
40.3934
 21
23.81
  0
LINE
  8
0
 10
40.3934
 20
23.81
 11
40.3867
 21
23.9342
  0
LINE
  8
0
 10
40.3867
 20
23.9342
 11
40.3792
 21
23.9795
  0
LINE
  8
0
 10
40.3792
 20
23.9795
 11
40.3592
 21
24.1016
  0
LINE
  8
0
 10
40.3592
 20
24.1016
 11
40.3473
 21
24.1437
  0
LINE
  8
0
 10
40.3473
 20
24.1437
 11
40.3142
 21
24.2607
  0
LINE
  8
0
 10
40.3142
 20
24.2607
 11
40.2982
 21
24.2987
  0
LINE
  8
0
 10
40.2982
 20
24.2987
 11
40.2527
 21
24.4075
  0
LINE
  8
0
 10
40.2527
 20
24.4075
 11
40.2333
 21
24.4408
  0
LINE
  8
0
 10
40.2333
 20
24.4408
 11
40.1762
 21
24.5385
  0
LINE
  8
0
 10
40.1762
 20
24.5385
 11
40.1539
 21
24.5663
  0
LINE
  8
0
 10
40.1539
 20
24.5663
 11
40.0868
 21
24.6503
  0
LINE
  8
0
 10
40.0868
 20
24.6503
 11
40.0621
 21
24.6724
  0
LINE
  8
0
 10
40.0621
 20
24.6724
 11
39.9864
 21
24.7403
  0
LINE
  8
0
 10
39.9864
 20
24.7403
 11
39.9601
 21
24.7562
  0
LINE
  8
0
 10
39.9601
 20
24.7562
 11
39.8777
 21
24.8062
  0
LINE
  8
0
 10
39.8777
 20
24.8062
 11
39.8502
 21
24.8158
  0
LINE
  8
0
 10
39.8502
 20
24.8158
 11
39.7632
 21
24.8464
  0
LINE
  8
0
 10
39.7632
 20
24.8464
 11
39.6459
 21
24.8599
  0
LINE
  8
0
 10
39.6459
 20
24.8599
 11
36.5
 21
24.8599
  0
LINE
  8
0
 10
36.5
 20
24.8599
 11
36.5
 21
21.2257
  0
LINE
  8
0
 10
36.5
 20
32.0898
 11
39.6459
 21
32.0898
  0
LINE
  8
0
 10
39.6459
 20
32.0898
 11
39.6748
 21
32.0925
  0
LINE
  8
0
 10
39.6748
 20
32.0925
 11
39.7632
 21
32.1008
  0
LINE
  8
0
 10
39.7632
 20
32.1008
 11
39.7939
 21
32.1095
  0
LINE
  8
0
 10
39.7939
 20
32.1095
 11
39.8777
 21
32.1333
  0
LINE
  8
0
 10
39.8777
 20
32.1333
 11
39.9127
 21
32.1504
  0
LINE
  8
0
 10
39.9127
 20
32.1504
 11
39.9864
 21
32.1866
  0
LINE
  8
0
 10
39.9864
 20
32.1866
 11
40.0272
 21
32.2162
  0
LINE
  8
0
 10
40.0272
 20
32.2162
 11
40.0868
 21
32.2594
  0
LINE
  8
0
 10
40.0868
 20
32.2594
 11
40.133
 21
32.3062
  0
LINE
  8
0
 10
40.133
 20
32.3062
 11
40.1762
 21
32.3499
  0
LINE
  8
0
 10
40.1762
 20
32.3499
 11
40.2258
 21
32.4186
  0
LINE
  8
0
 10
40.2258
 20
32.4186
 11
40.2527
 21
32.4559
  0
LINE
  8
0
 10
40.2527
 20
32.4559
 11
40.3014
 21
32.55
  0
LINE
  8
0
 10
40.3014
 20
32.55
 11
40.3142
 21
32.5747
  0
LINE
  8
0
 10
40.3142
 20
32.5747
 11
40.3566
 21
32.696
  0
LINE
  8
0
 10
40.3566
 20
32.696
 11
40.3592
 21
32.7034
  0
LINE
  8
0
 10
40.3592
 20
32.7034
 11
40.3696
 21
32.7548
  0
LINE
  8
0
 10
40.3696
 20
32.7548
 11
40.3867
 21
32.8318
  0
LINE
  8
0
 10
40.3867
 20
32.8318
 11
40.3874
 21
32.8415
  0
LINE
  8
0
 10
40.3874
 20
32.8415
 11
40.3959
 21
32.959
  0
LINE
  8
0
 10
40.3959
 20
32.959
 11
40.3959
 21
40
  0
LINE
  8
0
 10
40.3959
 20
40
 11
41.8959
 21
41.5
  0
LINE
  8
0
 10
41.8959
 20
41.5
 11
47
 21
41.5
  0
LINE
  8
0
 10
47
 20
41.5
 11
47.5
 21
42
  0
LINE
  8
0
 10
47.5
 20
42
 11
47.5
 21
45.5
  0
LINE
  8
0
 10
47.5
 20
45.5
 11
36.5
 21
45.5
  0
LINE
  8
0
 10
36.5
 20
45.5
 11
36.5
 21
32.0898
  0
ENDSEC
  0
SECTION
  2
OBJECTS
  0
DICTIONARY
  0
ENDSEC
  0
EOF
