  0
SECTION
  2
BLOCKS
  0
ENDSEC
  0
SECTION
  2
ENTITIES
  0
LINE
  8
0
 10
0
 20
0
 11
11
 21
0
  0
LINE
  8
0
 10
11
 20
0
 11
11
 21
13.3758
  0
LINE
  8
0
 10
11
 20
13.3758
 11
7.85409
 21
13.3758
  0
LINE
  8
0
 10
7.85409
 20
13.3758
 11
7.76012
 21
13.365
  0
LINE
  8
0
 10
7.76012
 20
13.365
 11
7.73676
 21
13.3623
  0
LINE
  8
0
 10
7.73676
 20
13.3623
 11
7.64482
 21
13.33
  0
LINE
  8
0
 10
7.64482
 20
13.33
 11
7.62232
 21
13.3221
  0
LINE
  8
0
 10
7.62232
 20
13.3221
 11
7.53448
 21
13.2689
  0
LINE
  8
0
 10
7.53448
 20
13.2689
 11
7.51359
 21
13.2562
  0
LINE
  8
0
 10
7.51359
 20
13.2562
 11
7.41325
 21
13.1663
  0
LINE
  8
0
 10
7.41325
 20
13.1663
 11
7.33968
 21
13.0743
  0
LINE
  8
0
 10
7.33968
 20
13.0743
 11
7.32376
 21
13.0544
  0
LINE
  8
0
 10
7.32376
 20
13.0544
 11
7.2602
 21
12.9456
  0
LINE
  8
0
 10
7.2602
 20
12.9456
 11
7.24732
 21
12.9235
  0
LINE
  8
0
 10
7.24732
 20
12.9235
 11
7.19554
 21
12.7998
  0
LINE
  8
0
 10
7.19554
 20
12.7998
 11
7.18583
 21
12.7767
  0
LINE
  8
0
 10
7.18583
 20
12.7767
 11
7.14738
 21
12.6408
  0
LINE
  8
0
 10
7.14738
 20
12.6408
 11
7.14079
 21
12.6176
  0
LINE
  8
0
 10
7.14079
 20
12.6176
 11
7.117
 21
12.4726
  0
LINE
  8
0
 10
7.117
 20
12.4726
 11
7.11332
 21
12.4501
  0
LINE
  8
0
 10
7.11332
 20
12.4501
 11
7.10521
 21
12.2993
  0
LINE
  8
0
 10
7.10521
 20
12.2993
 11
7.10409
 21
12.2785
  0
LINE
  8
0
 10
7.10409
 20
12.2785
 11
7.10409
 21
5.5
  0
LINE
  8
0
 10
7.10409
 20
5.5
 11
5.60409
 21
4
  0
LINE
  8
0
 10
5.60409
 20
4
 11
0.499999
 21
4
  0
LINE
  8
0
 10
0.499999
 20
4
 11
0
 21
3.5
  0
LINE
  8
0
 10
0
 20
3.5
 11
0
 21
0
  0
LINE
  8
0
 10
0
 20
42
 11
0.499999
 21
41.5
  0
LINE
  8
0
 10
0.499999
 20
41.5
 11
5.60409
 21
41.5
  0
LINE
  8
0
 10
5.60409
 20
41.5
 11
7.10409
 21
40
  0
LINE
  8
0
 10
7.10409
 20
40
 11
7.10409
 21
32.6571
  0
LINE
  8
0
 10
7.10409
 20
32.6571
 11
7.10482
 21
32.6461
  0
LINE
  8
0
 10
7.10482
 20
32.6461
 11
7.10928
 21
32.579
  0
LINE
  8
0
 10
7.10928
 20
32.579
 11
7.11271
 21
32.5204
  0
LINE
  8
0
 10
7.11271
 20
32.5204
 11
7.11332
 21
32.51
  0
LINE
  8
0
 10
7.11332
 20
32.51
 11
7.13469
 21
32.3903
  0
LINE
  8
0
 10
7.13469
 20
32.3903
 11
7.14079
 21
32.3561
  0
LINE
  8
0
 10
7.14079
 20
32.3561
 11
7.16859
 21
32.2659
  0
LINE
  8
0
 10
7.16859
 20
32.2659
 11
7.18583
 21
32.21
  0
LINE
  8
0
 10
7.18583
 20
32.21
 11
7.21375
 21
32.1487
  0
LINE
  8
0
 10
7.21375
 20
32.1487
 11
7.24732
 21
32.0751
  0
LINE
  8
0
 10
7.24732
 20
32.0751
 11
7.26962
 21
32.04
  0
LINE
  8
0
 10
7.26962
 20
32.04
 11
7.32376
 21
31.9548
  0
LINE
  8
0
 10
7.32376
 20
31.9548
 11
7.33575
 21
31.941
  0
LINE
  8
0
 10
7.33575
 20
31.941
 11
7.40535
 21
31.8611
  0
LINE
  8
0
 10
7.40535
 20
31.8611
 11
7.41325
 21
31.8512
  0
LINE
  8
0
 10
7.41325
 20
31.8512
 11
7.51359
 21
31.7613
  0
LINE
  8
0
 10
7.51359
 20
31.7613
 11
7.51399
 21
31.761
  0
LINE
  8
0
 10
7.51399
 20
31.761
 11
7.62232
 21
31.6954
  0
LINE
  8
0
 10
7.62232
 20
31.6954
 11
7.62302
 21
31.6951
  0
LINE
  8
0
 10
7.62302
 20
31.6951
 11
7.73676
 21
31.6552
  0
LINE
  8
0
 10
7.73676
 20
31.6552
 11
7.85409
 21
31.6417
  0
LINE
  8
0
 10
7.85409
 20
31.6417
 11
11
 21
31.6417
  0
LINE
  8
0
 10
11
 20
31.6417
 11
11
 21
45.5
  0
LINE
  8
0
 10
11
 20
45.5
 11
0
 21
45.5
  0
LINE
  8
0
 10
0
 20
45.5
 11
0
 21
42
  0
LINE
  8
0
 10
7.10409
 20
21.7891
 11
7.10583
 21
21.7567
  0
LINE
  8
0
 10
7.10583
 20
21.7567
 11
7.11332
 21
21.6174
  0
LINE
  8
0
 10
7.11332
 20
21.6174
 11
7.11884
 21
21.5838
  0
LINE
  8
0
 10
7.11884
 20
21.5838
 11
7.14079
 21
21.45
  0
LINE
  8
0
 10
7.14079
 20
21.45
 11
7.15039
 21
21.416
  0
LINE
  8
0
 10
7.15039
 20
21.416
 11
7.18583
 21
21.2909
  0
LINE
  8
0
 10
7.18583
 20
21.2909
 11
7.19965
 21
21.2579
  0
LINE
  8
0
 10
7.19965
 20
21.2579
 11
7.24732
 21
21.144
  0
LINE
  8
0
 10
7.24732
 20
21.144
 11
7.26531
 21
21.1132
  0
LINE
  8
0
 10
7.26531
 20
21.1132
 11
7.32376
 21
21.0131
  0
LINE
  8
0
 10
7.32376
 20
21.0131
 11
7.34564
 21
20.9857
  0
LINE
  8
0
 10
7.34564
 20
20.9857
 11
7.41325
 21
20.9013
  0
LINE
  8
0
 10
7.41325
 20
20.9013
 11
7.43857
 21
20.8786
  0
LINE
  8
0
 10
7.43857
 20
20.8786
 11
7.51359
 21
20.8113
  0
LINE
  8
0
 10
7.51359
 20
20.8113
 11
7.5417
 21
20.7943
  0
LINE
  8
0
 10
7.5417
 20
20.7943
 11
7.62232
 21
20.7454
  0
LINE
  8
0
 10
7.62232
 20
20.7454
 11
7.65241
 21
20.7348
  0
LINE
  8
0
 10
7.65241
 20
20.7348
 11
7.73676
 21
20.7052
  0
LINE
  8
0
 10
7.73676
 20
20.7052
 11
7.85409
 21
20.6917
  0
LINE
  8
0
 10
7.85409
 20
20.6917
 11
11
 21
20.6917
  0
LINE
  8
0
 10
11
 20
20.6917
 11
11
 21
24.3258
  0
LINE
  8
0
 10
11
 20
24.3258
 11
7.85409
 21
24.3258
  0
LINE
  8
0
 10
7.85409
 20
24.3258
 11
7.73676
 21
24.3123
  0
LINE
  8
0
 10
7.73676
 20
24.3123
 11
7.70518
 21
24.3012
  0
LINE
  8
0
 10
7.70518
 20
24.3012
 11
7.62232
 21
24.2721
  0
LINE
  8
0
 10
7.62232
 20
24.2721
 11
7.59213
 21
24.2538
  0
LINE
  8
0
 10
7.59213
 20
24.2538
 11
7.51359
 21
24.2062
  0
LINE
  8
0
 10
7.51359
 20
24.2062
 11
7.48546
 21
24.181
  0
LINE
  8
0
 10
7.48546
 20
24.181
 11
7.41325
 21
24.1162
  0
LINE
  8
0
 10
7.41325
 20
24.1162
 11
7.38785
 21
24.0845
  0
LINE
  8
0
 10
7.38785
 20
24.0845
 11
7.32376
 21
24.0044
  0
LINE
  8
0
 10
7.32376
 20
24.0044
 11
7.30173
 21
23.9667
  0
LINE
  8
0
 10
7.30173
 20
23.9667
 11
7.24732
 21
23.8735
  0
LINE
  8
0
 10
7.24732
 20
23.8735
 11
7.2293
 21
23.8304
  0
LINE
  8
0
 10
7.2293
 20
23.8304
 11
7.18583
 21
23.7266
  0
LINE
  8
0
 10
7.18583
 20
23.7266
 11
7.17238
 21
23.6791
  0
LINE
  8
0
 10
7.17238
 20
23.6791
 11
7.14079
 21
23.5676
  0
LINE
  8
0
 10
7.14079
 20
23.5676
 11
7.13243
 21
23.5166
  0
LINE
  8
0
 10
7.13243
 20
23.5166
 11
7.11332
 21
23.4001
  0
LINE
  8
0
 10
7.11332
 20
23.4001
 11
7.11045
 21
23.3468
  0
LINE
  8
0
 10
7.11045
 20
23.3468
 11
7.10409
 21
23.2284
  0
LINE
  8
0
 10
7.10409
 20
23.2284
 11
7.10409
 21
21.7891
  0
LINE
  8
0
 10
36.5
 20
0
 11
47.5
 21
0
  0
LINE
  8
0
 10
47.5
 20
0
 11
47.5
 21
3.5
  0
LINE
  8
0
 10
47.5
 20
3.5
 11
47
 21
4
  0
LINE
  8
0
 10
47
 20
4
 11
41.8959
 21
4
  0
LINE
  8
0
 10
41.8959
 20
4
 11
40.3959
 21
5.5
  0
LINE
  8
0
 10
40.3959
 20
5.5
 11
40.3959
 21
12.2785
  0
LINE
  8
0
 10
40.3959
 20
12.2785
 11
40.3879
 21
12.4277
  0
LINE
  8
0
 10
40.3879
 20
12.4277
 11
40.3867
 21
12.4501
  0
LINE
  8
0
 10
40.3867
 20
12.4501
 11
40.3631
 21
12.5937
  0
LINE
  8
0
 10
40.3631
 20
12.5937
 11
40.3592
 21
12.6176
  0
LINE
  8
0
 10
40.3592
 20
12.6176
 11
40.3211
 21
12.7521
  0
LINE
  8
0
 10
40.3211
 20
12.7521
 11
40.3142
 21
12.7767
  0
LINE
  8
0
 10
40.3142
 20
12.7767
 11
40.2628
 21
12.8992
  0
LINE
  8
0
 10
40.2628
 20
12.8992
 11
40.2527
 21
12.9235
  0
LINE
  8
0
 10
40.2527
 20
12.9235
 11
40.1896
 21
13.0315
  0
LINE
  8
0
 10
40.1896
 20
13.0315
 11
40.1762
 21
13.0544
  0
LINE
  8
0
 10
40.1762
 20
13.0544
 11
40.1031
 21
13.1458
  0
LINE
  8
0
 10
40.1031
 20
13.1458
 11
40.0868
 21
13.1663
  0
LINE
  8
0
 10
40.0868
 20
13.1663
 11
39.9864
 21
13.2562
  0
LINE
  8
0
 10
39.9864
 20
13.2562
 11
39.8989
 21
13.3093
  0
LINE
  8
0
 10
39.8989
 20
13.3093
 11
39.8777
 21
13.3221
  0
LINE
  8
0
 10
39.8777
 20
13.3221
 11
39.7859
 21
13.3544
  0
LINE
  8
0
 10
39.7859
 20
13.3544
 11
39.7632
 21
13.3623
  0
LINE
  8
0
 10
39.7632
 20
13.3623
 11
39.6693
 21
13.3731
  0
LINE
  8
0
 10
39.6693
 20
13.3731
 11
39.6459
 21
13.3758
  0
LINE
  8
0
 10
39.6459
 20
13.3758
 11
36.5
 21
13.3758
  0
LINE
  8
0
 10
36.5
 20
13.3758
 11
36.5
 21
0
  0
LINE
  8
0
 10
36.5
 20
20.6917
 11
39.6459
 21
20.6917
  0
LINE
  8
0
 10
39.6459
 20
20.6917
 11
39.7632
 21
20.7052
  0
LINE
  8
0
 10
39.7632
 20
20.7052
 11
39.7935
 21
20.7158
  0
LINE
  8
0
 10
39.7935
 20
20.7158
 11
39.8777
 21
20.7454
  0
LINE
  8
0
 10
39.8777
 20
20.7454
 11
39.906
 21
20.7626
  0
LINE
  8
0
 10
39.906
 20
20.7626
 11
39.9864
 21
20.8113
  0
LINE
  8
0
 10
39.9864
 20
20.8113
 11
40.0121
 21
20.8343
  0
LINE
  8
0
 10
40.0121
 20
20.8343
 11
40.0868
 21
20.9013
  0
LINE
  8
0
 10
40.0868
 20
20.9013
 11
40.109
 21
20.9291
  0
LINE
  8
0
 10
40.109
 20
20.9291
 11
40.1762
 21
21.0131
  0
LINE
  8
0
 10
40.1762
 20
21.0131
 11
40.1946
 21
21.0446
  0
LINE
  8
0
 10
40.1946
 20
21.0446
 11
40.2527
 21
21.144
  0
LINE
  8
0
 10
40.2527
 20
21.144
 11
40.2668
 21
21.1779
  0
LINE
  8
0
 10
40.2668
 20
21.1779
 11
40.3142
 21
21.2909
  0
LINE
  8
0
 10
40.3142
 20
21.2909
 11
40.3241
 21
21.3258
  0
LINE
  8
0
 10
40.3241
 20
21.3258
 11
40.3592
 21
21.45
  0
LINE
  8
0
 10
40.3592
 20
21.45
 11
40.3649
 21
21.4848
  0
LINE
  8
0
 10
40.3649
 20
21.4848
 11
40.3867
 21
21.6174
  0
LINE
  8
0
 10
40.3867
 20
21.6174
 11
40.3885
 21
21.651
  0
LINE
  8
0
 10
40.3885
 20
21.651
 11
40.3959
 21
21.7891
  0
LINE
  8
0
 10
40.3959
 20
21.7891
 11
40.3959
 21
23.2284
  0
LINE
  8
0
 10
40.3959
 20
23.2284
 11
40.393
 21
23.2822
  0
LINE
  8
0
 10
40.393
 20
23.2822
 11
40.3867
 21
23.4001
  0
LINE
  8
0
 10
40.3867
 20
23.4001
 11
40.3782
 21
23.4515
  0
LINE
  8
0
 10
40.3782
 20
23.4515
 11
40.3592
 21
23.5676
  0
LINE
  8
0
 10
40.3592
 20
23.5676
 11
40.3456
 21
23.6154
  0
LINE
  8
0
 10
40.3456
 20
23.6154
 11
40.3142
 21
23.7266
  0
LINE
  8
0
 10
40.3142
 20
23.7266
 11
40.296
 21
23.77
  0
LINE
  8
0
 10
40.296
 20
23.77
 11
40.2527
 21
23.8735
  0
LINE
  8
0
 10
40.2527
 20
23.8735
 11
40.2305
 21
23.9115
  0
LINE
  8
0
 10
40.2305
 20
23.9115
 11
40.1762
 21
24.0044
  0
LINE
  8
0
 10
40.1762
 20
24.0044
 11
40.1507
 21
24.0364
  0
LINE
  8
0
 10
40.1507
 20
24.0364
 11
40.0868
 21
24.1162
  0
LINE
  8
0
 10
40.0868
 20
24.1162
 11
40.0585
 21
24.1416
  0
LINE
  8
0
 10
40.0585
 20
24.1416
 11
39.9864
 21
24.2062
  0
LINE
  8
0
 10
39.9864
 20
24.2062
 11
39.9561
 21
24.2246
  0
LINE
  8
0
 10
39.9561
 20
24.2246
 11
39.8777
 21
24.2721
  0
LINE
  8
0
 10
39.8777
 20
24.2721
 11
39.846
 21
24.2832
  0
LINE
  8
0
 10
39.846
 20
24.2832
 11
39.7632
 21
24.3123
  0
LINE
  8
0
 10
39.7632
 20
24.3123
 11
39.6459
 21
24.3258
  0
LINE
  8
0
 10
39.6459
 20
24.3258
 11
36.5
 21
24.3258
  0
LINE
  8
0
 10
36.5
 20
24.3258
 11
36.5
 21
20.6917
  0
LINE
  8
0
 10
36.5
 20
31.6417
 11
39.6459
 21
31.6417
  0
LINE
  8
0
 10
39.6459
 20
31.6417
 11
39.7632
 21
31.6552
  0
LINE
  8
0
 10
39.7632
 20
31.6552
 11
39.7641
 21
31.6555
  0
LINE
  8
0
 10
39.7641
 20
31.6555
 11
39.8777
 21
31.6954
  0
LINE
  8
0
 10
39.8777
 20
31.6954
 11
39.8783
 21
31.6958
  0
LINE
  8
0
 10
39.8783
 20
31.6958
 11
39.9864
 21
31.7613
  0
LINE
  8
0
 10
39.9864
 20
31.7613
 11
40.0868
 21
31.8512
  0
LINE
  8
0
 10
40.0868
 20
31.8512
 11
40.0946
 21
31.8611
  0
LINE
  8
0
 10
40.0946
 20
31.8611
 11
40.1762
 21
31.9548
  0
LINE
  8
0
 10
40.1762
 20
31.9548
 11
40.1902
 21
31.9768
  0
LINE
  8
0
 10
40.1902
 20
31.9768
 11
40.2527
 21
32.0751
  0
LINE
  8
0
 10
40.2527
 20
32.0751
 11
40.2779
 21
32.1305
  0
LINE
  8
0
 10
40.2779
 20
32.1305
 11
40.3142
 21
32.21
  0
LINE
  8
0
 10
40.3142
 20
32.21
 11
40.3436
 21
32.3054
  0
LINE
  8
0
 10
40.3436
 20
32.3054
 11
40.3592
 21
32.3561
  0
LINE
  8
0
 10
40.3592
 20
32.3561
 11
40.3838
 21
32.4939
  0
LINE
  8
0
 10
40.3838
 20
32.4939
 11
40.3867
 21
32.51
  0
LINE
  8
0
 10
40.3867
 20
32.51
 11
40.3907
 21
32.579
  0
LINE
  8
0
 10
40.3907
 20
32.579
 11
40.3959
 21
32.6571
  0
LINE
  8
0
 10
40.3959
 20
32.6571
 11
40.3959
 21
40
  0
LINE
  8
0
 10
40.3959
 20
40
 11
41.8959
 21
41.5
  0
LINE
  8
0
 10
41.8959
 20
41.5
 11
47
 21
41.5
  0
LINE
  8
0
 10
47
 20
41.5
 11
47.5
 21
42
  0
LINE
  8
0
 10
47.5
 20
42
 11
47.5
 21
45.5
  0
LINE
  8
0
 10
47.5
 20
45.5
 11
36.5
 21
45.5
  0
LINE
  8
0
 10
36.5
 20
45.5
 11
36.5
 21
31.6417
  0
ENDSEC
  0
SECTION
  2
OBJECTS
  0
DICTIONARY
  0
ENDSEC
  0
EOF
