  0
SECTION
  2
BLOCKS
  0
ENDSEC
  0
SECTION
  2
ENTITIES
  0
LINE
  8
0
 10
0
 20
0
 11
11
 21
0
  0
LINE
  8
0
 10
11
 20
0
 11
11
 21
11.4293
  0
LINE
  8
0
 10
11
 20
11.4293
 11
7.85409
 21
11.4293
  0
LINE
  8
0
 10
7.85409
 20
11.4293
 11
7.84742
 21
11.4286
  0
LINE
  8
0
 10
7.84742
 20
11.4286
 11
7.73676
 21
11.4183
  0
LINE
  8
0
 10
7.73676
 20
11.4183
 11
7.73184
 21
11.4169
  0
LINE
  8
0
 10
7.73184
 20
11.4169
 11
7.62232
 21
11.3858
  0
LINE
  8
0
 10
7.62232
 20
11.3858
 11
7.62151
 21
11.3854
  0
LINE
  8
0
 10
7.62151
 20
11.3854
 11
7.60761
 21
11.3786
  0
LINE
  8
0
 10
7.60761
 20
11.3786
 11
7.51848
 21
11.3385
  0
LINE
  8
0
 10
7.51848
 20
11.3385
 11
7.51359
 21
11.3364
  0
LINE
  8
0
 10
7.51359
 20
11.3364
 11
7.42447
 21
11.2771
  0
LINE
  8
0
 10
7.42447
 20
11.2771
 11
7.41325
 21
11.2697
  0
LINE
  8
0
 10
7.41325
 20
11.2697
 11
7.34072
 21
11.2025
  0
LINE
  8
0
 10
7.34072
 20
11.2025
 11
7.32376
 21
11.1868
  0
LINE
  8
0
 10
7.32376
 20
11.1868
 11
7.2683
 21
11.1164
  0
LINE
  8
0
 10
7.2683
 20
11.1164
 11
7.24732
 21
11.0898
  0
LINE
  8
0
 10
7.24732
 20
11.0898
 11
7.20815
 21
11.0205
  0
LINE
  8
0
 10
7.20815
 20
11.0205
 11
7.18583
 21
10.981
  0
LINE
  8
0
 10
7.18583
 20
10.981
 11
7.16116
 21
10.9164
  0
LINE
  8
0
 10
7.16116
 20
10.9164
 11
7.14079
 21
10.8631
  0
LINE
  8
0
 10
7.14079
 20
10.8631
 11
7.12816
 21
10.806
  0
LINE
  8
0
 10
7.12816
 20
10.806
 11
7.11332
 21
10.739
  0
LINE
  8
0
 10
7.11332
 20
10.739
 11
7.10985
 21
10.6912
  0
LINE
  8
0
 10
7.10985
 20
10.6912
 11
7.10409
 21
10.6118
  0
LINE
  8
0
 10
7.10409
 20
10.6118
 11
7.10409
 21
5.5
  0
LINE
  8
0
 10
7.10409
 20
5.5
 11
5.60409
 21
4
  0
LINE
  8
0
 10
5.60409
 20
4
 11
0.499999
 21
4
  0
LINE
  8
0
 10
0.499999
 20
4
 11
0
 21
3.5
  0
LINE
  8
0
 10
0
 20
3.5
 11
0
 21
0
  0
LINE
  8
0
 10
0
 20
42
 11
0.499999
 21
41.5
  0
LINE
  8
0
 10
0.499999
 20
41.5
 11
5.60409
 21
41.5
  0
LINE
  8
0
 10
5.60409
 20
41.5
 11
7.10409
 21
40
  0
LINE
  8
0
 10
7.10409
 20
40
 11
7.10409
 21
30.6028
  0
LINE
  8
0
 10
7.10409
 20
30.6028
 11
7.10515
 21
30.5831
  0
LINE
  8
0
 10
7.10515
 20
30.5831
 11
7.11332
 21
30.4312
  0
LINE
  8
0
 10
7.11332
 20
30.4312
 11
7.11665
 21
30.4108
  0
LINE
  8
0
 10
7.11665
 20
30.4108
 11
7.14079
 21
30.2637
  0
LINE
  8
0
 10
7.14079
 20
30.2637
 11
7.14653
 21
30.2434
  0
LINE
  8
0
 10
7.14653
 20
30.2434
 11
7.18583
 21
30.1046
  0
LINE
  8
0
 10
7.18583
 20
30.1046
 11
7.19402
 21
30.0851
  0
LINE
  8
0
 10
7.19402
 20
30.0851
 11
7.24732
 21
29.9578
  0
LINE
  8
0
 10
7.24732
 20
29.9578
 11
7.25791
 21
29.9397
  0
LINE
  8
0
 10
7.25791
 20
29.9397
 11
7.32376
 21
29.8269
  0
LINE
  8
0
 10
7.32376
 20
29.8269
 11
7.41325
 21
29.715
  0
LINE
  8
0
 10
7.41325
 20
29.715
 11
7.51359
 21
29.6251
  0
LINE
  8
0
 10
7.51359
 20
29.6251
 11
7.52994
 21
29.6151
  0
LINE
  8
0
 10
7.52994
 20
29.6151
 11
7.62232
 21
29.5592
  0
LINE
  8
0
 10
7.62232
 20
29.5592
 11
7.63979
 21
29.553
  0
LINE
  8
0
 10
7.63979
 20
29.553
 11
7.73676
 21
29.519
  0
LINE
  8
0
 10
7.73676
 20
29.519
 11
7.85409
 21
29.5054
  0
LINE
  8
0
 10
7.85409
 20
29.5054
 11
11
 21
29.5054
  0
LINE
  8
0
 10
11
 20
29.5054
 11
11
 21
45.5
  0
LINE
  8
0
 10
11
 20
45.5
 11
0
 21
45.5
  0
LINE
  8
0
 10
0
 20
45.5
 11
0
 21
42
  0
LINE
  8
0
 10
7.10409
 20
19.6528
 11
7.10856
 21
19.5696
  0
LINE
  8
0
 10
7.10856
 20
19.5696
 11
7.11332
 21
19.4812
  0
LINE
  8
0
 10
7.11332
 20
19.4812
 11
7.12698
 21
19.3979
  0
LINE
  8
0
 10
7.12698
 20
19.3979
 11
7.14079
 21
19.3137
  0
LINE
  8
0
 10
7.14079
 20
19.3137
 11
7.16373
 21
19.2327
  0
LINE
  8
0
 10
7.16373
 20
19.2327
 11
7.18583
 21
19.1546
  0
LINE
  8
0
 10
7.18583
 20
19.1546
 11
7.21784
 21
19.0782
  0
LINE
  8
0
 10
7.21784
 20
19.0782
 11
7.24732
 21
19.0078
  0
LINE
  8
0
 10
7.24732
 20
19.0078
 11
7.28789
 21
18.9383
  0
LINE
  8
0
 10
7.28789
 20
18.9383
 11
7.32376
 21
18.8769
  0
LINE
  8
0
 10
7.32376
 20
18.8769
 11
7.37205
 21
18.8165
  0
LINE
  8
0
 10
7.37205
 20
18.8165
 11
7.41325
 21
18.765
  0
LINE
  8
0
 10
7.41325
 20
18.765
 11
7.46813
 21
18.7158
  0
LINE
  8
0
 10
7.46813
 20
18.7158
 11
7.51359
 21
18.6751
  0
LINE
  8
0
 10
7.51359
 20
18.6751
 11
7.57368
 21
18.6387
  0
LINE
  8
0
 10
7.57368
 20
18.6387
 11
7.62232
 21
18.6092
  0
LINE
  8
0
 10
7.62232
 20
18.6092
 11
7.68599
 21
18.5868
  0
LINE
  8
0
 10
7.68599
 20
18.5868
 11
7.73676
 21
18.569
  0
LINE
  8
0
 10
7.73676
 20
18.569
 11
7.85409
 21
18.5555
  0
LINE
  8
0
 10
7.85409
 20
18.5555
 11
11
 21
18.5555
  0
LINE
  8
0
 10
11
 20
18.5555
 11
11
 21
22.1896
  0
LINE
  8
0
 10
11
 20
22.1896
 11
7.85409
 21
22.1896
  0
LINE
  8
0
 10
7.85409
 20
22.1896
 11
7.73676
 21
22.1761
  0
LINE
  8
0
 10
7.73676
 20
22.1761
 11
7.68842
 21
22.1591
  0
LINE
  8
0
 10
7.68842
 20
22.1591
 11
7.62232
 21
22.1359
  0
LINE
  8
0
 10
7.62232
 20
22.1359
 11
7.57619
 21
22.1079
  0
LINE
  8
0
 10
7.57619
 20
22.1079
 11
7.51359
 21
22.07
  0
LINE
  8
0
 10
7.51359
 20
22.07
 11
7.47073
 21
22.0316
  0
LINE
  8
0
 10
7.47073
 20
22.0316
 11
7.41325
 21
21.98
  0
LINE
  8
0
 10
7.41325
 20
21.98
 11
7.3747
 21
21.9318
  0
LINE
  8
0
 10
7.3747
 20
21.9318
 11
7.32376
 21
21.8682
  0
LINE
  8
0
 10
7.32376
 20
21.8682
 11
7.2905
 21
21.8112
  0
LINE
  8
0
 10
7.2905
 20
21.8112
 11
7.24732
 21
21.7372
  0
LINE
  8
0
 10
7.24732
 20
21.7372
 11
7.22025
 21
21.6726
  0
LINE
  8
0
 10
7.22025
 20
21.6726
 11
7.18583
 21
21.5904
  0
LINE
  8
0
 10
7.18583
 20
21.5904
 11
7.16575
 21
21.5195
  0
LINE
  8
0
 10
7.16575
 20
21.5195
 11
7.14079
 21
21.4313
  0
LINE
  8
0
 10
7.14079
 20
21.4313
 11
7.12838
 21
21.3557
  0
LINE
  8
0
 10
7.12838
 20
21.3557
 11
7.11332
 21
21.2639
  0
LINE
  8
0
 10
7.11332
 20
21.2639
 11
7.10909
 21
21.1853
  0
LINE
  8
0
 10
7.10909
 20
21.1853
 11
7.10409
 21
21.0922
  0
LINE
  8
0
 10
7.10409
 20
21.0922
 11
7.10409
 21
19.6528
  0
LINE
  8
0
 10
36.5
 20
0
 11
47.5
 21
0
  0
LINE
  8
0
 10
47.5
 20
0
 11
47.5
 21
3.5
  0
LINE
  8
0
 10
47.5
 20
3.5
 11
47
 21
4
  0
LINE
  8
0
 10
47
 20
4
 11
41.8959
 21
4
  0
LINE
  8
0
 10
41.8959
 20
4
 11
40.3959
 21
5.5
  0
LINE
  8
0
 10
40.3959
 20
5.5
 11
40.3959
 21
10.6118
  0
LINE
  8
0
 10
40.3959
 20
10.6118
 11
40.3925
 21
10.6588
  0
LINE
  8
0
 10
40.3925
 20
10.6588
 11
40.3867
 21
10.739
  0
LINE
  8
0
 10
40.3867
 20
10.739
 11
40.3737
 21
10.7976
  0
LINE
  8
0
 10
40.3737
 20
10.7976
 11
40.3592
 21
10.8631
  0
LINE
  8
0
 10
40.3592
 20
10.8631
 11
40.3332
 21
10.9312
  0
LINE
  8
0
 10
40.3332
 20
10.9312
 11
40.3142
 21
10.981
  0
LINE
  8
0
 10
40.3142
 20
10.981
 11
40.2721
 21
11.0554
  0
LINE
  8
0
 10
40.2721
 20
11.0554
 11
40.2527
 21
11.0898
  0
LINE
  8
0
 10
40.2527
 20
11.0898
 11
40.1927
 21
11.1659
  0
LINE
  8
0
 10
40.1927
 20
11.1659
 11
40.1762
 21
11.1868
  0
LINE
  8
0
 10
40.1762
 20
11.1868
 11
40.0979
 21
11.2593
  0
LINE
  8
0
 10
40.0979
 20
11.2593
 11
40.0868
 21
11.2697
  0
LINE
  8
0
 10
40.0868
 20
11.2697
 11
39.9913
 21
11.3331
  0
LINE
  8
0
 10
39.9913
 20
11.3331
 11
39.9864
 21
11.3364
  0
LINE
  8
0
 10
39.9864
 20
11.3364
 11
39.8924
 21
11.3786
  0
LINE
  8
0
 10
39.8924
 20
11.3786
 11
39.8777
 21
11.3858
  0
LINE
  8
0
 10
39.8777
 20
11.3858
 11
39.8767
 21
11.3861
  0
LINE
  8
0
 10
39.8767
 20
11.3861
 11
39.7632
 21
11.4183
  0
LINE
  8
0
 10
39.7632
 20
11.4183
 11
39.7579
 21
11.4188
  0
LINE
  8
0
 10
39.7579
 20
11.4188
 11
39.6459
 21
11.4293
  0
LINE
  8
0
 10
39.6459
 20
11.4293
 11
36.5
 21
11.4293
  0
LINE
  8
0
 10
36.5
 20
11.4293
 11
36.5
 21
0
  0
LINE
  8
0
 10
36.5
 20
18.5555
 11
39.6459
 21
18.5555
  0
LINE
  8
0
 10
39.6459
 20
18.5555
 11
39.7632
 21
18.569
  0
LINE
  8
0
 10
39.7632
 20
18.569
 11
39.8269
 21
18.5913
  0
LINE
  8
0
 10
39.8269
 20
18.5913
 11
39.8777
 21
18.6092
  0
LINE
  8
0
 10
39.8777
 20
18.6092
 11
39.9377
 21
18.6456
  0
LINE
  8
0
 10
39.9377
 20
18.6456
 11
39.9864
 21
18.6751
  0
LINE
  8
0
 10
39.9864
 20
18.6751
 11
40.0412
 21
18.7242
  0
LINE
  8
0
 10
40.0412
 20
18.7242
 11
40.0868
 21
18.765
  0
LINE
  8
0
 10
40.0868
 20
18.765
 11
40.135
 21
18.8253
  0
LINE
  8
0
 10
40.135
 20
18.8253
 11
40.1762
 21
18.8769
  0
LINE
  8
0
 10
40.1762
 20
18.8769
 11
40.2168
 21
18.9463
  0
LINE
  8
0
 10
40.2168
 20
18.9463
 11
40.2527
 21
19.0078
  0
LINE
  8
0
 10
40.2527
 20
19.0078
 11
40.2847
 21
19.0842
  0
LINE
  8
0
 10
40.2847
 20
19.0842
 11
40.3142
 21
19.1546
  0
LINE
  8
0
 10
40.3142
 20
19.1546
 11
40.3371
 21
19.2356
  0
LINE
  8
0
 10
40.3371
 20
19.2356
 11
40.3592
 21
19.3137
  0
LINE
  8
0
 10
40.3592
 20
19.3137
 11
40.3729
 21
19.397
  0
LINE
  8
0
 10
40.3729
 20
19.397
 11
40.3867
 21
19.4812
  0
LINE
  8
0
 10
40.3867
 20
19.4812
 11
40.3912
 21
19.5644
  0
LINE
  8
0
 10
40.3912
 20
19.5644
 11
40.3959
 21
19.6528
  0
LINE
  8
0
 10
40.3959
 20
19.6528
 11
40.3959
 21
21.0922
  0
LINE
  8
0
 10
40.3959
 20
21.0922
 11
40.3917
 21
21.1709
  0
LINE
  8
0
 10
40.3917
 20
21.1709
 11
40.3867
 21
21.2639
  0
LINE
  8
0
 10
40.3867
 20
21.2639
 11
40.3742
 21
21.3396
  0
LINE
  8
0
 10
40.3742
 20
21.3396
 11
40.3592
 21
21.4313
  0
LINE
  8
0
 10
40.3592
 20
21.4313
 11
40.3391
 21
21.5024
  0
LINE
  8
0
 10
40.3391
 20
21.5024
 11
40.3142
 21
21.5904
  0
LINE
  8
0
 10
40.3142
 20
21.5904
 11
40.2871
 21
21.6552
  0
LINE
  8
0
 10
40.2871
 20
21.6552
 11
40.2527
 21
21.7372
  0
LINE
  8
0
 10
40.2527
 20
21.7372
 11
40.2194
 21
21.7943
  0
LINE
  8
0
 10
40.2194
 20
21.7943
 11
40.1762
 21
21.8682
  0
LINE
  8
0
 10
40.1762
 20
21.8682
 11
40.1376
 21
21.9164
  0
LINE
  8
0
 10
40.1376
 20
21.9164
 11
40.0868
 21
21.98
  0
LINE
  8
0
 10
40.0868
 20
21.98
 11
40.0438
 21
22.0185
  0
LINE
  8
0
 10
40.0438
 20
22.0185
 11
39.9864
 21
22.07
  0
LINE
  8
0
 10
39.9864
 20
22.07
 11
39.9402
 21
22.098
  0
LINE
  8
0
 10
39.9402
 20
22.098
 11
39.8777
 21
22.1359
  0
LINE
  8
0
 10
39.8777
 20
22.1359
 11
39.8293
 21
22.1529
  0
LINE
  8
0
 10
39.8293
 20
22.1529
 11
39.7632
 21
22.1761
  0
LINE
  8
0
 10
39.7632
 20
22.1761
 11
39.6459
 21
22.1896
  0
LINE
  8
0
 10
39.6459
 20
22.1896
 11
36.5
 21
22.1896
  0
LINE
  8
0
 10
36.5
 20
22.1896
 11
36.5
 21
18.5555
  0
LINE
  8
0
 10
36.5
 20
29.5054
 11
39.6459
 21
29.5054
  0
LINE
  8
0
 10
39.6459
 20
29.5054
 11
39.7632
 21
29.519
  0
LINE
  8
0
 10
39.7632
 20
29.519
 11
39.7808
 21
29.5251
  0
LINE
  8
0
 10
39.7808
 20
29.5251
 11
39.8777
 21
29.5592
  0
LINE
  8
0
 10
39.8777
 20
29.5592
 11
39.8942
 21
29.5692
  0
LINE
  8
0
 10
39.8942
 20
29.5692
 11
39.9864
 21
29.6251
  0
LINE
  8
0
 10
39.9864
 20
29.6251
 11
40.0868
 21
29.715
  0
LINE
  8
0
 10
40.0868
 20
29.715
 11
40.1762
 21
29.8269
  0
LINE
  8
0
 10
40.1762
 20
29.8269
 11
40.1871
 21
29.8454
  0
LINE
  8
0
 10
40.1871
 20
29.8454
 11
40.2527
 21
29.9578
  0
LINE
  8
0
 10
40.2527
 20
29.9578
 11
40.2611
 21
29.9779
  0
LINE
  8
0
 10
40.2611
 20
29.9779
 11
40.3142
 21
30.1046
  0
LINE
  8
0
 10
40.3142
 20
30.1046
 11
40.3201
 21
30.1256
  0
LINE
  8
0
 10
40.3201
 20
30.1256
 11
40.3592
 21
30.2637
  0
LINE
  8
0
 10
40.3592
 20
30.2637
 11
40.3627
 21
30.2848
  0
LINE
  8
0
 10
40.3627
 20
30.2848
 11
40.3867
 21
30.4312
  0
LINE
  8
0
 10
40.3867
 20
30.4312
 11
40.3878
 21
30.4517
  0
LINE
  8
0
 10
40.3878
 20
30.4517
 11
40.3959
 21
30.6028
  0
LINE
  8
0
 10
40.3959
 20
30.6028
 11
40.3959
 21
40
  0
LINE
  8
0
 10
40.3959
 20
40
 11
41.8959
 21
41.5
  0
LINE
  8
0
 10
41.8959
 20
41.5
 11
47
 21
41.5
  0
LINE
  8
0
 10
47
 20
41.5
 11
47.5
 21
42
  0
LINE
  8
0
 10
47.5
 20
42
 11
47.5
 21
45.5
  0
LINE
  8
0
 10
47.5
 20
45.5
 11
36.5
 21
45.5
  0
LINE
  8
0
 10
36.5
 20
45.5
 11
36.5
 21
29.5054
  0
ENDSEC
  0
SECTION
  2
OBJECTS
  0
DICTIONARY
  0
ENDSEC
  0
EOF
