  0
SECTION
  2
BLOCKS
  0
ENDSEC
  0
SECTION
  2
ENTITIES
  0
LINE
  8
0
 10
0
 20
0
 11
11
 21
0
  0
LINE
  8
0
 10
11
 20
0
 11
11
 21
11.2292
  0
LINE
  8
0
 10
11
 20
11.2292
 11
7.85409
 21
11.2292
  0
LINE
  8
0
 10
7.85409
 20
11.2292
 11
7.76678
 21
11.2221
  0
LINE
  8
0
 10
7.76678
 20
11.2221
 11
7.73676
 21
11.2197
  0
LINE
  8
0
 10
7.73676
 20
11.2197
 11
7.65351
 21
11.1992
  0
LINE
  8
0
 10
7.65351
 20
11.1992
 11
7.62232
 21
11.1915
  0
LINE
  8
0
 10
7.62232
 20
11.1915
 11
7.5462
 21
11.1592
  0
LINE
  8
0
 10
7.5462
 20
11.1592
 11
7.51359
 21
11.1453
  0
LINE
  8
0
 10
7.51359
 20
11.1453
 11
7.44699
 21
11.1034
  0
LINE
  8
0
 10
7.44699
 20
11.1034
 11
7.41325
 21
11.0822
  0
LINE
  8
0
 10
7.41325
 20
11.0822
 11
7.3577
 21
11.0336
  0
LINE
  8
0
 10
7.3577
 20
11.0336
 11
7.32376
 21
11.0038
  0
LINE
  8
0
 10
7.32376
 20
11.0038
 11
7.27995
 21
10.9512
  0
LINE
  8
0
 10
7.27995
 20
10.9512
 11
7.24732
 21
10.912
  0
LINE
  8
0
 10
7.24732
 20
10.912
 11
7.21516
 21
10.8582
  0
LINE
  8
0
 10
7.21516
 20
10.8582
 11
7.18583
 21
10.8091
  0
LINE
  8
0
 10
7.18583
 20
10.8091
 11
7.16457
 21
10.7564
  0
LINE
  8
0
 10
7.16457
 20
10.7564
 11
7.14079
 21
10.6975
  0
LINE
  8
0
 10
7.14079
 20
10.6975
 11
7.1292
 21
10.648
  0
LINE
  8
0
 10
7.1292
 20
10.648
 11
7.11332
 21
10.5801
  0
LINE
  8
0
 10
7.11332
 20
10.5801
 11
7.10987
 21
10.5351
  0
LINE
  8
0
 10
7.10987
 20
10.5351
 11
7.10409
 21
10.4598
  0
LINE
  8
0
 10
7.10409
 20
10.4598
 11
7.10409
 21
5.5
  0
LINE
  8
0
 10
7.10409
 20
5.5
 11
5.60409
 21
4
  0
LINE
  8
0
 10
5.60409
 20
4
 11
0.499999
 21
4
  0
LINE
  8
0
 10
0.499999
 20
4
 11
0
 21
3.5
  0
LINE
  8
0
 10
0
 20
3.5
 11
0
 21
0
  0
LINE
  8
0
 10
0
 20
42
 11
0.499999
 21
41.5
  0
LINE
  8
0
 10
0.499999
 20
41.5
 11
5.60409
 21
41.5
  0
LINE
  8
0
 10
5.60409
 20
41.5
 11
7.10409
 21
40
  0
LINE
  8
0
 10
7.10409
 20
40
 11
7.10409
 21
30.0688
  0
LINE
  8
0
 10
7.10409
 20
30.0688
 11
7.10549
 21
30.0427
  0
LINE
  8
0
 10
7.10549
 20
30.0427
 11
7.11332
 21
29.8971
  0
LINE
  8
0
 10
7.11332
 20
29.8971
 11
7.11766
 21
29.8706
  0
LINE
  8
0
 10
7.11766
 20
29.8706
 11
7.14079
 21
29.7297
  0
LINE
  8
0
 10
7.14079
 20
29.7297
 11
7.14819
 21
29.7035
  0
LINE
  8
0
 10
7.14819
 20
29.7035
 11
7.18583
 21
29.5706
  0
LINE
  8
0
 10
7.18583
 20
29.5706
 11
7.19628
 21
29.5456
  0
LINE
  8
0
 10
7.19628
 20
29.5456
 11
7.24732
 21
29.4237
  0
LINE
  8
0
 10
7.24732
 20
29.4237
 11
7.26072
 21
29.4008
  0
LINE
  8
0
 10
7.26072
 20
29.4008
 11
7.32376
 21
29.2928
  0
LINE
  8
0
 10
7.32376
 20
29.2928
 11
7.41325
 21
29.181
  0
LINE
  8
0
 10
7.41325
 20
29.181
 11
7.51359
 21
29.091
  0
LINE
  8
0
 10
7.51359
 20
29.091
 11
7.53393
 21
29.0787
  0
LINE
  8
0
 10
7.53393
 20
29.0787
 11
7.62232
 21
29.0251
  0
LINE
  8
0
 10
7.62232
 20
29.0251
 11
7.64398
 21
29.0175
  0
LINE
  8
0
 10
7.64398
 20
29.0175
 11
7.73676
 21
28.9849
  0
LINE
  8
0
 10
7.73676
 20
28.9849
 11
7.85409
 21
28.9714
  0
LINE
  8
0
 10
7.85409
 20
28.9714
 11
11
 21
28.9714
  0
LINE
  8
0
 10
11
 20
28.9714
 11
11
 21
45.5
  0
LINE
  8
0
 10
11
 20
45.5
 11
0
 21
45.5
  0
LINE
  8
0
 10
0
 20
45.5
 11
0
 21
42
  0
LINE
  8
0
 10
7.10409
 20
19.1188
 11
7.10925
 21
19.0229
  0
LINE
  8
0
 10
7.10925
 20
19.0229
 11
7.11332
 21
18.9471
  0
LINE
  8
0
 10
7.11332
 20
18.9471
 11
7.12901
 21
18.8515
  0
LINE
  8
0
 10
7.12901
 20
18.8515
 11
7.14079
 21
18.7797
  0
LINE
  8
0
 10
7.14079
 20
18.7797
 11
7.16706
 21
18.6869
  0
LINE
  8
0
 10
7.16706
 20
18.6869
 11
7.18583
 21
18.6206
  0
LINE
  8
0
 10
7.18583
 20
18.6206
 11
7.22239
 21
18.5333
  0
LINE
  8
0
 10
7.22239
 20
18.5333
 11
7.24732
 21
18.4738
  0
LINE
  8
0
 10
7.24732
 20
18.4738
 11
7.29353
 21
18.3946
  0
LINE
  8
0
 10
7.29353
 20
18.3946
 11
7.32376
 21
18.3428
  0
LINE
  8
0
 10
7.32376
 20
18.3428
 11
7.37865
 21
18.2742
  0
LINE
  8
0
 10
7.37865
 20
18.2742
 11
7.41325
 21
18.231
  0
LINE
  8
0
 10
7.41325
 20
18.231
 11
7.47552
 21
18.1751
  0
LINE
  8
0
 10
7.47552
 20
18.1751
 11
7.51359
 21
18.141
  0
LINE
  8
0
 10
7.51359
 20
18.141
 11
7.58167
 21
18.0998
  0
LINE
  8
0
 10
7.58167
 20
18.0998
 11
7.62232
 21
18.0751
  0
LINE
  8
0
 10
7.62232
 20
18.0751
 11
7.69439
 21
18.0498
  0
LINE
  8
0
 10
7.69439
 20
18.0498
 11
7.73676
 21
18.0349
  0
LINE
  8
0
 10
7.73676
 20
18.0349
 11
7.85409
 21
18.0214
  0
LINE
  8
0
 10
7.85409
 20
18.0214
 11
11
 21
18.0214
  0
LINE
  8
0
 10
11
 20
18.0214
 11
11
 21
21.6555
  0
LINE
  8
0
 10
11
 20
21.6555
 11
7.85409
 21
21.6555
  0
LINE
  8
0
 10
7.85409
 20
21.6555
 11
7.73676
 21
21.642
  0
LINE
  8
0
 10
7.73676
 20
21.642
 11
7.68422
 21
21.6236
  0
LINE
  8
0
 10
7.68422
 20
21.6236
 11
7.62232
 21
21.6018
  0
LINE
  8
0
 10
7.62232
 20
21.6018
 11
7.5722
 21
21.5715
  0
LINE
  8
0
 10
7.5722
 20
21.5715
 11
7.51359
 21
21.5359
  0
LINE
  8
0
 10
7.51359
 20
21.5359
 11
7.46705
 21
21.4942
  0
LINE
  8
0
 10
7.46705
 20
21.4942
 11
7.41325
 21
21.446
  0
LINE
  8
0
 10
7.41325
 20
21.446
 11
7.37141
 21
21.3937
  0
LINE
  8
0
 10
7.37141
 20
21.3937
 11
7.32376
 21
21.3341
  0
LINE
  8
0
 10
7.32376
 20
21.3341
 11
7.28769
 21
21.2723
  0
LINE
  8
0
 10
7.28769
 20
21.2723
 11
7.24732
 21
21.2032
  0
LINE
  8
0
 10
7.24732
 20
21.2032
 11
7.21799
 21
21.1332
  0
LINE
  8
0
 10
7.21799
 20
21.1332
 11
7.18583
 21
21.0564
  0
LINE
  8
0
 10
7.18583
 20
21.0564
 11
7.1641
 21
20.9796
  0
LINE
  8
0
 10
7.1641
 20
20.9796
 11
7.14079
 21
20.8973
  0
LINE
  8
0
 10
7.14079
 20
20.8973
 11
7.12737
 21
20.8155
  0
LINE
  8
0
 10
7.12737
 20
20.8155
 11
7.11332
 21
20.7298
  0
LINE
  8
0
 10
7.11332
 20
20.7298
 11
7.10875
 21
20.6449
  0
LINE
  8
0
 10
7.10875
 20
20.6449
 11
7.10409
 21
20.5582
  0
LINE
  8
0
 10
7.10409
 20
20.5582
 11
7.10409
 21
19.1188
  0
LINE
  8
0
 10
36.5
 20
0
 11
47.5
 21
0
  0
LINE
  8
0
 10
47.5
 20
0
 11
47.5
 21
3.5
  0
LINE
  8
0
 10
47.5
 20
3.5
 11
47
 21
4
  0
LINE
  8
0
 10
47
 20
4
 11
41.8959
 21
4
  0
LINE
  8
0
 10
41.8959
 20
4
 11
40.3959
 21
5.5
  0
LINE
  8
0
 10
40.3959
 20
5.5
 11
40.3959
 21
10.4598
  0
LINE
  8
0
 10
40.3959
 20
10.4598
 11
40.3924
 21
10.5054
  0
LINE
  8
0
 10
40.3924
 20
10.5054
 11
40.3867
 21
10.5801
  0
LINE
  8
0
 10
40.3867
 20
10.5801
 11
40.3748
 21
10.6309
  0
LINE
  8
0
 10
40.3748
 20
10.6309
 11
40.3592
 21
10.6975
  0
LINE
  8
0
 10
40.3592
 20
10.6975
 11
40.3372
 21
10.752
  0
LINE
  8
0
 10
40.3372
 20
10.752
 11
40.3142
 21
10.8091
  0
LINE
  8
0
 10
40.3142
 20
10.8091
 11
40.2807
 21
10.8651
  0
LINE
  8
0
 10
40.2807
 20
10.8651
 11
40.2527
 21
10.912
  0
LINE
  8
0
 10
40.2527
 20
10.912
 11
40.207
 21
10.9669
  0
LINE
  8
0
 10
40.207
 20
10.9669
 11
40.1762
 21
11.0038
  0
LINE
  8
0
 10
40.1762
 20
11.0038
 11
40.1184
 21
11.0545
  0
LINE
  8
0
 10
40.1184
 20
11.0545
 11
40.0868
 21
11.0822
  0
LINE
  8
0
 10
40.0868
 20
11.0822
 11
40.0177
 21
11.1256
  0
LINE
  8
0
 10
40.0177
 20
11.1256
 11
39.9864
 21
11.1453
  0
LINE
  8
0
 10
39.9864
 20
11.1453
 11
39.9081
 21
11.1786
  0
LINE
  8
0
 10
39.9081
 20
11.1786
 11
39.8777
 21
11.1915
  0
LINE
  8
0
 10
39.8777
 20
11.1915
 11
39.7929
 21
11.2124
  0
LINE
  8
0
 10
39.7929
 20
11.2124
 11
39.7632
 21
11.2197
  0
LINE
  8
0
 10
39.7632
 20
11.2197
 11
39.6754
 21
11.2268
  0
LINE
  8
0
 10
39.6754
 20
11.2268
 11
39.6459
 21
11.2292
  0
LINE
  8
0
 10
39.6459
 20
11.2292
 11
36.5
 21
11.2292
  0
LINE
  8
0
 10
36.5
 20
11.2292
 11
36.5
 21
0
  0
LINE
  8
0
 10
36.5
 20
18.0214
 11
39.6459
 21
18.0214
  0
LINE
  8
0
 10
39.6459
 20
18.0214
 11
39.7632
 21
18.0349
  0
LINE
  8
0
 10
39.7632
 20
18.0349
 11
39.8352
 21
18.0602
  0
LINE
  8
0
 10
39.8352
 20
18.0602
 11
39.8777
 21
18.0751
  0
LINE
  8
0
 10
39.8777
 20
18.0751
 11
39.9456
 21
18.1163
  0
LINE
  8
0
 10
39.9456
 20
18.1163
 11
39.9864
 21
18.141
  0
LINE
  8
0
 10
39.9864
 20
18.141
 11
40.0485
 21
18.1967
  0
LINE
  8
0
 10
40.0485
 20
18.1967
 11
40.0868
 21
18.231
  0
LINE
  8
0
 10
40.0868
 20
18.231
 11
40.1415
 21
18.2994
  0
LINE
  8
0
 10
40.1415
 20
18.2994
 11
40.1762
 21
18.3428
  0
LINE
  8
0
 10
40.1762
 20
18.3428
 11
40.2223
 21
18.4217
  0
LINE
  8
0
 10
40.2223
 20
18.4217
 11
40.2527
 21
18.4738
  0
LINE
  8
0
 10
40.2527
 20
18.4738
 11
40.2891
 21
18.5607
  0
LINE
  8
0
 10
40.2891
 20
18.5607
 11
40.3142
 21
18.6206
  0
LINE
  8
0
 10
40.3142
 20
18.6206
 11
40.3403
 21
18.7131
  0
LINE
  8
0
 10
40.3403
 20
18.7131
 11
40.3592
 21
18.7797
  0
LINE
  8
0
 10
40.3592
 20
18.7797
 11
40.3748
 21
18.875
  0
LINE
  8
0
 10
40.3748
 20
18.875
 11
40.3867
 21
18.9471
  0
LINE
  8
0
 10
40.3867
 20
18.9471
 11
40.3918
 21
19.0428
  0
LINE
  8
0
 10
40.3918
 20
19.0428
 11
40.3959
 21
19.1188
  0
LINE
  8
0
 10
40.3959
 20
19.1188
 11
40.3959
 21
20.5582
  0
LINE
  8
0
 10
40.3959
 20
20.5582
 11
40.3913
 21
20.6431
  0
LINE
  8
0
 10
40.3913
 20
20.6431
 11
40.3867
 21
20.7298
  0
LINE
  8
0
 10
40.3867
 20
20.7298
 11
40.3732
 21
20.8117
  0
LINE
  8
0
 10
40.3732
 20
20.8117
 11
40.3592
 21
20.8973
  0
LINE
  8
0
 10
40.3592
 20
20.8973
 11
40.3375
 21
20.9741
  0
LINE
  8
0
 10
40.3375
 20
20.9741
 11
40.3142
 21
21.0564
  0
LINE
  8
0
 10
40.3142
 20
21.0564
 11
40.2848
 21
21.1264
  0
LINE
  8
0
 10
40.2848
 20
21.1264
 11
40.2527
 21
21.2032
  0
LINE
  8
0
 10
40.2527
 20
21.2032
 11
40.2166
 21
21.265
  0
LINE
  8
0
 10
40.2166
 20
21.265
 11
40.1762
 21
21.3341
  0
LINE
  8
0
 10
40.1762
 20
21.3341
 11
40.1344
 21
21.3864
  0
LINE
  8
0
 10
40.1344
 20
21.3864
 11
40.0868
 21
21.446
  0
LINE
  8
0
 10
40.0868
 20
21.446
 11
40.0402
 21
21.4877
  0
LINE
  8
0
 10
40.0402
 20
21.4877
 11
39.9864
 21
21.5359
  0
LINE
  8
0
 10
39.9864
 20
21.5359
 11
39.9363
 21
21.5663
  0
LINE
  8
0
 10
39.9363
 20
21.5663
 11
39.8777
 21
21.6018
  0
LINE
  8
0
 10
39.8777
 20
21.6018
 11
39.8251
 21
21.6203
  0
LINE
  8
0
 10
39.8251
 20
21.6203
 11
39.7632
 21
21.642
  0
LINE
  8
0
 10
39.7632
 20
21.642
 11
39.6459
 21
21.6555
  0
LINE
  8
0
 10
39.6459
 20
21.6555
 11
36.5
 21
21.6555
  0
LINE
  8
0
 10
36.5
 20
21.6555
 11
36.5
 21
18.0214
  0
LINE
  8
0
 10
36.5
 20
28.9714
 11
39.6459
 21
28.9714
  0
LINE
  8
0
 10
39.6459
 20
28.9714
 11
39.7632
 21
28.9849
  0
LINE
  8
0
 10
39.7632
 20
28.9849
 11
39.785
 21
28.9925
  0
LINE
  8
0
 10
39.785
 20
28.9925
 11
39.8777
 21
29.0251
  0
LINE
  8
0
 10
39.8777
 20
29.0251
 11
39.8982
 21
29.0375
  0
LINE
  8
0
 10
39.8982
 20
29.0375
 11
39.9864
 21
29.091
  0
LINE
  8
0
 10
39.9864
 20
29.091
 11
40.0868
 21
29.181
  0
LINE
  8
0
 10
40.0868
 20
29.181
 11
40.1762
 21
29.2928
  0
LINE
  8
0
 10
40.1762
 20
29.2928
 11
40.1899
 21
29.3162
  0
LINE
  8
0
 10
40.1899
 20
29.3162
 11
40.2527
 21
29.4237
  0
LINE
  8
0
 10
40.2527
 20
29.4237
 11
40.2633
 21
29.4492
  0
LINE
  8
0
 10
40.2633
 20
29.4492
 11
40.3142
 21
29.5706
  0
LINE
  8
0
 10
40.3142
 20
29.5706
 11
40.3217
 21
29.5973
  0
LINE
  8
0
 10
40.3217
 20
29.5973
 11
40.3592
 21
29.7297
  0
LINE
  8
0
 10
40.3592
 20
29.7297
 11
40.3637
 21
29.7568
  0
LINE
  8
0
 10
40.3637
 20
29.7568
 11
40.3867
 21
29.8971
  0
LINE
  8
0
 10
40.3867
 20
29.8971
 11
40.3881
 21
29.9239
  0
LINE
  8
0
 10
40.3881
 20
29.9239
 11
40.3959
 21
30.0688
  0
LINE
  8
0
 10
40.3959
 20
30.0688
 11
40.3959
 21
40
  0
LINE
  8
0
 10
40.3959
 20
40
 11
41.8959
 21
41.5
  0
LINE
  8
0
 10
41.8959
 20
41.5
 11
47
 21
41.5
  0
LINE
  8
0
 10
47
 20
41.5
 11
47.5
 21
42
  0
LINE
  8
0
 10
47.5
 20
42
 11
47.5
 21
45.5
  0
LINE
  8
0
 10
47.5
 20
45.5
 11
36.5
 21
45.5
  0
LINE
  8
0
 10
36.5
 20
45.5
 11
36.5
 21
28.9714
  0
ENDSEC
  0
SECTION
  2
OBJECTS
  0
DICTIONARY
  0
ENDSEC
  0
EOF
