  0
SECTION
  2
BLOCKS
  0
ENDSEC
  0
SECTION
  2
ENTITIES
  0
LINE
  8
0
 10
0
 20
0
 11
11
 21
0
  0
LINE
  8
0
 10
11
 20
0
 11
11
 21
11.1409
  0
LINE
  8
0
 10
11
 20
11.1409
 11
7.85409
 21
11.1409
  0
LINE
  8
0
 10
7.85409
 20
11.1409
 11
7.79377
 21
11.1362
  0
LINE
  8
0
 10
7.79377
 20
11.1362
 11
7.73676
 21
11.1317
  0
LINE
  8
0
 10
7.73676
 20
11.1317
 11
7.67853
 21
11.1177
  0
LINE
  8
0
 10
7.67853
 20
11.1177
 11
7.62232
 21
11.1042
  0
LINE
  8
0
 10
7.62232
 20
11.1042
 11
7.56788
 21
11.0817
  0
LINE
  8
0
 10
7.56788
 20
11.0817
 11
7.51359
 21
11.0592
  0
LINE
  8
0
 10
7.51359
 20
11.0592
 11
7.46442
 21
11.0291
  0
LINE
  8
0
 10
7.46442
 20
11.0291
 11
7.41325
 21
10.9978
  0
LINE
  8
0
 10
7.41325
 20
10.9978
 11
7.37051
 21
10.9613
  0
LINE
  8
0
 10
7.37051
 20
10.9613
 11
7.32376
 21
10.9214
  0
LINE
  8
0
 10
7.32376
 20
10.9214
 11
7.2883
 21
10.8799
  0
LINE
  8
0
 10
7.2883
 20
10.8799
 11
7.24732
 21
10.8319
  0
LINE
  8
0
 10
7.24732
 20
10.8319
 11
7.21968
 21
10.7869
  0
LINE
  8
0
 10
7.21968
 20
10.7869
 11
7.18583
 21
10.7317
  0
LINE
  8
0
 10
7.18583
 20
10.7317
 11
7.16624
 21
10.6844
  0
LINE
  8
0
 10
7.16624
 20
10.6844
 11
7.14079
 21
10.623
  0
LINE
  8
0
 10
7.14079
 20
10.623
 11
7.12923
 21
10.5749
  0
LINE
  8
0
 10
7.12923
 20
10.5749
 11
7.11332
 21
10.5086
  0
LINE
  8
0
 10
7.11332
 20
10.5086
 11
7.10956
 21
10.4609
  0
LINE
  8
0
 10
7.10956
 20
10.4609
 11
7.10409
 21
10.3914
  0
LINE
  8
0
 10
7.10409
 20
10.3914
 11
7.10409
 21
5.5
  0
LINE
  8
0
 10
7.10409
 20
5.5
 11
5.60409
 21
4
  0
LINE
  8
0
 10
5.60409
 20
4
 11
0.499999
 21
4
  0
LINE
  8
0
 10
0.499999
 20
4
 11
0
 21
3.5
  0
LINE
  8
0
 10
0
 20
3.5
 11
0
 21
0
  0
LINE
  8
0
 10
0
 20
42
 11
0.499999
 21
41.5
  0
LINE
  8
0
 10
0.499999
 20
41.5
 11
5.60409
 21
41.5
  0
LINE
  8
0
 10
5.60409
 20
41.5
 11
7.10409
 21
40
  0
LINE
  8
0
 10
7.10409
 20
40
 11
7.10409
 21
29.5347
  0
LINE
  8
0
 10
7.10409
 20
29.5347
 11
7.10583
 21
29.5023
  0
LINE
  8
0
 10
7.10583
 20
29.5023
 11
7.11332
 21
29.363
  0
LINE
  8
0
 10
7.11332
 20
29.363
 11
7.11867
 21
29.3304
  0
LINE
  8
0
 10
7.11867
 20
29.3304
 11
7.14079
 21
29.1956
  0
LINE
  8
0
 10
7.14079
 20
29.1956
 11
7.14985
 21
29.1636
  0
LINE
  8
0
 10
7.14985
 20
29.1636
 11
7.18583
 21
29.0365
  0
LINE
  8
0
 10
7.18583
 20
29.0365
 11
7.19854
 21
29.0062
  0
LINE
  8
0
 10
7.19854
 20
29.0062
 11
7.24732
 21
28.8897
  0
LINE
  8
0
 10
7.24732
 20
28.8897
 11
7.26353
 21
28.8619
  0
LINE
  8
0
 10
7.26353
 20
28.8619
 11
7.32376
 21
28.7587
  0
LINE
  8
0
 10
7.32376
 20
28.7587
 11
7.41325
 21
28.6469
  0
LINE
  8
0
 10
7.41325
 20
28.6469
 11
7.51359
 21
28.5569
  0
LINE
  8
0
 10
7.51359
 20
28.5569
 11
7.53791
 21
28.5422
  0
LINE
  8
0
 10
7.53791
 20
28.5422
 11
7.62232
 21
28.491
  0
LINE
  8
0
 10
7.62232
 20
28.491
 11
7.64817
 21
28.482
  0
LINE
  8
0
 10
7.64817
 20
28.482
 11
7.73676
 21
28.4508
  0
LINE
  8
0
 10
7.73676
 20
28.4508
 11
7.85409
 21
28.4373
  0
LINE
  8
0
 10
7.85409
 20
28.4373
 11
11
 21
28.4373
  0
LINE
  8
0
 10
11
 20
28.4373
 11
11
 21
45.5
  0
LINE
  8
0
 10
11
 20
45.5
 11
0
 21
45.5
  0
LINE
  8
0
 10
0
 20
45.5
 11
0
 21
42
  0
LINE
  8
0
 10
7.10409
 20
18.5847
 11
7.10993
 21
18.4761
  0
LINE
  8
0
 10
7.10993
 20
18.4761
 11
7.11332
 21
18.4131
  0
LINE
  8
0
 10
7.11332
 20
18.4131
 11
7.13105
 21
18.305
  0
LINE
  8
0
 10
7.13105
 20
18.305
 11
7.14079
 21
18.2456
  0
LINE
  8
0
 10
7.14079
 20
18.2456
 11
7.17039
 21
18.1411
  0
LINE
  8
0
 10
7.17039
 20
18.1411
 11
7.18583
 21
18.0865
  0
LINE
  8
0
 10
7.18583
 20
18.0865
 11
7.22693
 21
17.9884
  0
LINE
  8
0
 10
7.22693
 20
17.9884
 11
7.24732
 21
17.9397
  0
LINE
  8
0
 10
7.24732
 20
17.9397
 11
7.29918
 21
17.8509
  0
LINE
  8
0
 10
7.29918
 20
17.8509
 11
7.32376
 21
17.8088
  0
LINE
  8
0
 10
7.32376
 20
17.8088
 11
7.38525
 21
17.7319
  0
LINE
  8
0
 10
7.38525
 20
17.7319
 11
7.41325
 21
17.6969
  0
LINE
  8
0
 10
7.41325
 20
17.6969
 11
7.48291
 21
17.6345
  0
LINE
  8
0
 10
7.48291
 20
17.6345
 11
7.51359
 21
17.607
  0
LINE
  8
0
 10
7.51359
 20
17.607
 11
7.58966
 21
17.5609
  0
LINE
  8
0
 10
7.58966
 20
17.5609
 11
7.62232
 21
17.5411
  0
LINE
  8
0
 10
7.62232
 20
17.5411
 11
7.70279
 21
17.5128
  0
LINE
  8
0
 10
7.70279
 20
17.5128
 11
7.73676
 21
17.5009
  0
LINE
  8
0
 10
7.73676
 20
17.5009
 11
7.85409
 21
17.4873
  0
LINE
  8
0
 10
7.85409
 20
17.4873
 11
11
 21
17.4873
  0
LINE
  8
0
 10
11
 20
17.4873
 11
11
 21
21.1215
  0
LINE
  8
0
 10
11
 20
21.1215
 11
7.85409
 21
21.1215
  0
LINE
  8
0
 10
7.85409
 20
21.1215
 11
7.73676
 21
21.108
  0
LINE
  8
0
 10
7.73676
 20
21.108
 11
7.68003
 21
21.0881
  0
LINE
  8
0
 10
7.68003
 20
21.0881
 11
7.62232
 21
21.0678
  0
LINE
  8
0
 10
7.62232
 20
21.0678
 11
7.56821
 21
21.035
  0
LINE
  8
0
 10
7.56821
 20
21.035
 11
7.51359
 21
21.0019
  0
LINE
  8
0
 10
7.51359
 20
21.0019
 11
7.46337
 21
20.9568
  0
LINE
  8
0
 10
7.46337
 20
20.9568
 11
7.41325
 21
20.9119
  0
LINE
  8
0
 10
7.41325
 20
20.9119
 11
7.36812
 21
20.8555
  0
LINE
  8
0
 10
7.36812
 20
20.8555
 11
7.32376
 21
20.8001
  0
LINE
  8
0
 10
7.32376
 20
20.8001
 11
7.28488
 21
20.7335
  0
LINE
  8
0
 10
7.28488
 20
20.7335
 11
7.24732
 21
20.6691
  0
LINE
  8
0
 10
7.24732
 20
20.6691
 11
7.21573
 21
20.5937
  0
LINE
  8
0
 10
7.21573
 20
20.5937
 11
7.18583
 21
20.5223
  0
LINE
  8
0
 10
7.18583
 20
20.5223
 11
7.16244
 21
20.4397
  0
LINE
  8
0
 10
7.16244
 20
20.4397
 11
7.14079
 21
20.3632
  0
LINE
  8
0
 10
7.14079
 20
20.3632
 11
7.12636
 21
20.2752
  0
LINE
  8
0
 10
7.12636
 20
20.2752
 11
7.11332
 21
20.1958
  0
LINE
  8
0
 10
7.11332
 20
20.1958
 11
7.10841
 21
20.1045
  0
LINE
  8
0
 10
7.10841
 20
20.1045
 11
7.10409
 21
20.0241
  0
LINE
  8
0
 10
7.10409
 20
20.0241
 11
7.10409
 21
18.5847
  0
LINE
  8
0
 10
36.5
 20
0
 11
47.5
 21
0
  0
LINE
  8
0
 10
47.5
 20
0
 11
47.5
 21
3.5
  0
LINE
  8
0
 10
47.5
 20
3.5
 11
47
 21
4
  0
LINE
  8
0
 10
47
 20
4
 11
41.8959
 21
4
  0
LINE
  8
0
 10
41.8959
 20
4
 11
40.3959
 21
5.5
  0
LINE
  8
0
 10
40.3959
 20
5.5
 11
40.3959
 21
10.3914
  0
LINE
  8
0
 10
40.3959
 20
10.3914
 11
40.392
 21
10.441
  0
LINE
  8
0
 10
40.392
 20
10.441
 11
40.3867
 21
10.5086
  0
LINE
  8
0
 10
40.3867
 20
10.5086
 11
40.3747
 21
10.5586
  0
LINE
  8
0
 10
40.3747
 20
10.5586
 11
40.3592
 21
10.623
  0
LINE
  8
0
 10
40.3592
 20
10.623
 11
40.3389
 21
10.6721
  0
LINE
  8
0
 10
40.3389
 20
10.6721
 11
40.3142
 21
10.7317
  0
LINE
  8
0
 10
40.3142
 20
10.7317
 11
40.2855
 21
10.7784
  0
LINE
  8
0
 10
40.2855
 20
10.7784
 11
40.2527
 21
10.8319
  0
LINE
  8
0
 10
40.2527
 20
10.8319
 11
40.216
 21
10.8748
  0
LINE
  8
0
 10
40.216
 20
10.8748
 11
40.1762
 21
10.9214
  0
LINE
  8
0
 10
40.1762
 20
10.9214
 11
40.1323
 21
10.9589
  0
LINE
  8
0
 10
40.1323
 20
10.9589
 11
40.0868
 21
10.9978
  0
LINE
  8
0
 10
40.0868
 20
10.9978
 11
40.0364
 21
11.0286
  0
LINE
  8
0
 10
40.0364
 20
11.0286
 11
39.9864
 21
11.0592
  0
LINE
  8
0
 10
39.9864
 20
11.0592
 11
39.931
 21
11.0821
  0
LINE
  8
0
 10
39.931
 20
11.0821
 11
39.8777
 21
11.1042
  0
LINE
  8
0
 10
39.8777
 20
11.1042
 11
39.8188
 21
11.1183
  0
LINE
  8
0
 10
39.8188
 20
11.1183
 11
39.7632
 21
11.1317
  0
LINE
  8
0
 10
39.7632
 20
11.1317
 11
39.7027
 21
11.1364
  0
LINE
  8
0
 10
39.7027
 20
11.1364
 11
39.6459
 21
11.1409
  0
LINE
  8
0
 10
39.6459
 20
11.1409
 11
36.5
 21
11.1409
  0
LINE
  8
0
 10
36.5
 20
11.1409
 11
36.5
 21
0
  0
LINE
  8
0
 10
36.5
 20
17.4873
 11
39.6459
 21
17.4873
  0
LINE
  8
0
 10
39.6459
 20
17.4873
 11
39.7632
 21
17.5009
  0
LINE
  8
0
 10
39.7632
 20
17.5009
 11
39.8436
 21
17.5291
  0
LINE
  8
0
 10
39.8436
 20
17.5291
 11
39.8777
 21
17.5411
  0
LINE
  8
0
 10
39.8777
 20
17.5411
 11
39.9535
 21
17.587
  0
LINE
  8
0
 10
39.9535
 20
17.587
 11
39.9864
 21
17.607
  0
LINE
  8
0
 10
39.9864
 20
17.607
 11
40.0558
 21
17.6692
  0
LINE
  8
0
 10
40.0558
 20
17.6692
 11
40.0868
 21
17.6969
  0
LINE
  8
0
 10
40.0868
 20
17.6969
 11
40.148
 21
17.7734
  0
LINE
  8
0
 10
40.148
 20
17.7734
 11
40.1762
 21
17.8088
  0
LINE
  8
0
 10
40.1762
 20
17.8088
 11
40.2278
 21
17.8972
  0
LINE
  8
0
 10
40.2278
 20
17.8972
 11
40.2527
 21
17.9397
  0
LINE
  8
0
 10
40.2527
 20
17.9397
 11
40.2936
 21
18.0373
  0
LINE
  8
0
 10
40.2936
 20
18.0373
 11
40.3142
 21
18.0865
  0
LINE
  8
0
 10
40.3142
 20
18.0865
 11
40.3436
 21
18.1905
  0
LINE
  8
0
 10
40.3436
 20
18.1905
 11
40.3592
 21
18.2456
  0
LINE
  8
0
 10
40.3592
 20
18.2456
 11
40.3768
 21
18.3531
  0
LINE
  8
0
 10
40.3768
 20
18.3531
 11
40.3867
 21
18.4131
  0
LINE
  8
0
 10
40.3867
 20
18.4131
 11
40.3925
 21
18.5211
  0
LINE
  8
0
 10
40.3925
 20
18.5211
 11
40.3959
 21
18.5847
  0
LINE
  8
0
 10
40.3959
 20
18.5847
 11
40.3959
 21
20.0241
  0
LINE
  8
0
 10
40.3959
 20
20.0241
 11
40.391
 21
20.1153
  0
LINE
  8
0
 10
40.391
 20
20.1153
 11
40.3867
 21
20.1958
  0
LINE
  8
0
 10
40.3867
 20
20.1958
 11
40.3723
 21
20.2837
  0
LINE
  8
0
 10
40.3723
 20
20.2837
 11
40.3592
 21
20.3632
  0
LINE
  8
0
 10
40.3592
 20
20.3632
 11
40.3358
 21
20.4458
  0
LINE
  8
0
 10
40.3358
 20
20.4458
 11
40.3142
 21
20.5223
  0
LINE
  8
0
 10
40.3142
 20
20.5223
 11
40.2826
 21
20.5977
  0
LINE
  8
0
 10
40.2826
 20
20.5977
 11
40.2527
 21
20.6691
  0
LINE
  8
0
 10
40.2527
 20
20.6691
 11
40.2138
 21
20.7357
  0
LINE
  8
0
 10
40.2138
 20
20.7357
 11
40.1762
 21
20.8001
  0
LINE
  8
0
 10
40.1762
 20
20.8001
 11
40.1311
 21
20.8565
  0
LINE
  8
0
 10
40.1311
 20
20.8565
 11
40.0868
 21
20.9119
  0
LINE
  8
0
 10
40.0868
 20
20.9119
 11
40.0365
 21
20.9569
  0
LINE
  8
0
 10
40.0365
 20
20.9569
 11
39.9864
 21
21.0019
  0
LINE
  8
0
 10
39.9864
 20
21.0019
 11
39.9323
 21
21.0347
  0
LINE
  8
0
 10
39.9323
 20
21.0347
 11
39.8777
 21
21.0678
  0
LINE
  8
0
 10
39.8777
 20
21.0678
 11
39.8209
 21
21.0877
  0
LINE
  8
0
 10
39.8209
 20
21.0877
 11
39.7632
 21
21.108
  0
LINE
  8
0
 10
39.7632
 20
21.108
 11
39.6459
 21
21.1215
  0
LINE
  8
0
 10
39.6459
 20
21.1215
 11
36.5
 21
21.1215
  0
LINE
  8
0
 10
36.5
 20
21.1215
 11
36.5
 21
17.4873
  0
LINE
  8
0
 10
36.5
 20
28.4373
 11
39.6459
 21
28.4373
  0
LINE
  8
0
 10
39.6459
 20
28.4373
 11
39.7632
 21
28.4508
  0
LINE
  8
0
 10
39.7632
 20
28.4508
 11
39.7892
 21
28.46
  0
LINE
  8
0
 10
39.7892
 20
28.46
 11
39.8777
 21
28.491
  0
LINE
  8
0
 10
39.8777
 20
28.491
 11
39.9021
 21
28.5059
  0
LINE
  8
0
 10
39.9021
 20
28.5059
 11
39.9864
 21
28.5569
  0
LINE
  8
0
 10
39.9864
 20
28.5569
 11
40.0868
 21
28.6469
  0
LINE
  8
0
 10
40.0868
 20
28.6469
 11
40.1762
 21
28.7587
  0
LINE
  8
0
 10
40.1762
 20
28.7587
 11
40.1927
 21
28.7869
  0
LINE
  8
0
 10
40.1927
 20
28.7869
 11
40.2527
 21
28.8897
  0
LINE
  8
0
 10
40.2527
 20
28.8897
 11
40.2656
 21
28.9205
  0
LINE
  8
0
 10
40.2656
 20
28.9205
 11
40.3142
 21
29.0365
  0
LINE
  8
0
 10
40.3142
 20
29.0365
 11
40.3234
 21
29.069
  0
LINE
  8
0
 10
40.3234
 20
29.069
 11
40.3592
 21
29.1956
  0
LINE
  8
0
 10
40.3592
 20
29.1956
 11
40.3647
 21
29.2289
  0
LINE
  8
0
 10
40.3647
 20
29.2289
 11
40.3867
 21
29.363
  0
LINE
  8
0
 10
40.3867
 20
29.363
 11
40.3885
 21
29.3961
  0
LINE
  8
0
 10
40.3885
 20
29.3961
 11
40.3959
 21
29.5347
  0
LINE
  8
0
 10
40.3959
 20
29.5347
 11
40.3959
 21
40
  0
LINE
  8
0
 10
40.3959
 20
40
 11
41.8959
 21
41.5
  0
LINE
  8
0
 10
41.8959
 20
41.5
 11
47
 21
41.5
  0
LINE
  8
0
 10
47
 20
41.5
 11
47.5
 21
42
  0
LINE
  8
0
 10
47.5
 20
42
 11
47.5
 21
45.5
  0
LINE
  8
0
 10
47.5
 20
45.5
 11
36.5
 21
45.5
  0
LINE
  8
0
 10
36.5
 20
45.5
 11
36.5
 21
28.4373
  0
ENDSEC
  0
SECTION
  2
OBJECTS
  0
DICTIONARY
  0
ENDSEC
  0
EOF
