  0
SECTION
  2
BLOCKS
  0
ENDSEC
  0
SECTION
  2
ENTITIES
  0
LINE
  8
0
 10
0
 20
0
 11
11
 21
0
  0
LINE
  8
0
 10
11
 20
0
 11
11
 21
11.2614
  0
LINE
  8
0
 10
11
 20
11.2614
 11
7.85409
 21
11.2614
  0
LINE
  8
0
 10
7.85409
 20
11.2614
 11
7.8473
 21
11.2608
  0
LINE
  8
0
 10
7.8473
 20
11.2608
 11
7.73676
 21
11.2518
  0
LINE
  8
0
 10
7.73676
 20
11.2518
 11
7.72923
 21
11.25
  0
LINE
  8
0
 10
7.72923
 20
11.25
 11
7.62232
 21
11.2235
  0
LINE
  8
0
 10
7.62232
 20
11.2235
 11
7.61269
 21
11.2194
  0
LINE
  8
0
 10
7.61269
 20
11.2194
 11
7.51359
 21
11.1771
  0
LINE
  8
0
 10
7.51359
 20
11.1771
 11
7.50106
 21
11.1692
  0
LINE
  8
0
 10
7.50106
 20
11.1692
 11
7.41325
 21
11.1138
  0
LINE
  8
0
 10
7.41325
 20
11.1138
 11
7.39779
 21
11.1002
  0
LINE
  8
0
 10
7.39779
 20
11.1002
 11
7.32376
 21
11.035
  0
LINE
  8
0
 10
7.32376
 20
11.035
 11
7.30623
 21
11.0139
  0
LINE
  8
0
 10
7.30623
 20
11.0139
 11
7.24732
 21
10.9428
  0
LINE
  8
0
 10
7.24732
 20
10.9428
 11
7.22939
 21
10.9127
  0
LINE
  8
0
 10
7.22939
 20
10.9127
 11
7.18583
 21
10.8394
  0
LINE
  8
0
 10
7.18583
 20
10.8394
 11
7.16975
 21
10.7995
  0
LINE
  8
0
 10
7.16975
 20
10.7995
 11
7.14079
 21
10.7274
  0
LINE
  8
0
 10
7.14079
 20
10.7274
 11
7.12919
 21
10.6776
  0
LINE
  8
0
 10
7.12919
 20
10.6776
 11
7.11332
 21
10.6095
  0
LINE
  8
0
 10
7.11332
 20
10.6095
 11
7.10883
 21
10.5508
  0
LINE
  8
0
 10
7.10883
 20
10.5508
 11
7.10409
 21
10.4886
  0
LINE
  8
0
 10
7.10409
 20
10.4886
 11
7.10409
 21
5.5
  0
LINE
  8
0
 10
7.10409
 20
5.5
 11
5.60409
 21
4
  0
LINE
  8
0
 10
5.60409
 20
4
 11
0.499999
 21
4
  0
LINE
  8
0
 10
0.499999
 20
4
 11
0
 21
3.5
  0
LINE
  8
0
 10
0
 20
3.5
 11
0
 21
0
  0
LINE
  8
0
 10
0
 20
42
 11
0.499999
 21
41.5
  0
LINE
  8
0
 10
0.499999
 20
41.5
 11
5.60409
 21
41.5
  0
LINE
  8
0
 10
5.60409
 20
41.5
 11
7.10409
 21
40
  0
LINE
  8
0
 10
7.10409
 20
40
 11
7.10409
 21
28.4666
  0
LINE
  8
0
 10
7.10409
 20
28.4666
 11
7.10651
 21
28.4216
  0
LINE
  8
0
 10
7.10651
 20
28.4216
 11
7.11332
 21
28.2949
  0
LINE
  8
0
 10
7.11332
 20
28.2949
 11
7.1207
 21
28.25
  0
LINE
  8
0
 10
7.1207
 20
28.25
 11
7.14079
 21
28.1275
  0
LINE
  8
0
 10
7.14079
 20
28.1275
 11
7.15316
 21
28.0838
  0
LINE
  8
0
 10
7.15316
 20
28.0838
 11
7.18583
 21
27.9684
  0
LINE
  8
0
 10
7.18583
 20
27.9684
 11
7.20307
 21
27.9272
  0
LINE
  8
0
 10
7.20307
 20
27.9272
 11
7.24732
 21
27.8216
  0
LINE
  8
0
 10
7.24732
 20
27.8216
 11
7.26915
 21
27.7842
  0
LINE
  8
0
 10
7.26915
 20
27.7842
 11
7.32376
 21
27.6906
  0
LINE
  8
0
 10
7.32376
 20
27.6906
 11
7.41325
 21
27.5788
  0
LINE
  8
0
 10
7.41325
 20
27.5788
 11
7.51359
 21
27.4888
  0
LINE
  8
0
 10
7.51359
 20
27.4888
 11
7.54589
 21
27.4693
  0
LINE
  8
0
 10
7.54589
 20
27.4693
 11
7.62232
 21
27.4229
  0
LINE
  8
0
 10
7.62232
 20
27.4229
 11
7.65655
 21
27.4109
  0
LINE
  8
0
 10
7.65655
 20
27.4109
 11
7.73676
 21
27.3827
  0
LINE
  8
0
 10
7.73676
 20
27.3827
 11
7.85409
 21
27.3692
  0
LINE
  8
0
 10
7.85409
 20
27.3692
 11
11
 21
27.3692
  0
LINE
  8
0
 10
11
 20
27.3692
 11
11
 21
45.5
  0
LINE
  8
0
 10
11
 20
45.5
 11
0
 21
45.5
  0
LINE
  8
0
 10
0
 20
45.5
 11
0
 21
42
  0
LINE
  8
0
 10
7.10409
 20
17.5166
 11
7.1113
 21
17.3825
  0
LINE
  8
0
 10
7.1113
 20
17.3825
 11
7.11332
 21
17.3449
  0
LINE
  8
0
 10
7.11332
 20
17.3449
 11
7.13512
 21
17.2121
  0
LINE
  8
0
 10
7.13512
 20
17.2121
 11
7.14079
 21
17.1775
  0
LINE
  8
0
 10
7.14079
 20
17.1775
 11
7.17706
 21
17.0494
  0
LINE
  8
0
 10
7.17706
 20
17.0494
 11
7.18583
 21
17.0184
  0
LINE
  8
0
 10
7.18583
 20
17.0184
 11
7.23603
 21
16.8986
  0
LINE
  8
0
 10
7.23603
 20
16.8986
 11
7.24732
 21
16.8716
  0
LINE
  8
0
 10
7.24732
 20
16.8716
 11
7.31047
 21
16.7634
  0
LINE
  8
0
 10
7.31047
 20
16.7634
 11
7.32376
 21
16.7407
  0
LINE
  8
0
 10
7.32376
 20
16.7407
 11
7.39845
 21
16.6473
  0
LINE
  8
0
 10
7.39845
 20
16.6473
 11
7.41325
 21
16.6288
  0
LINE
  8
0
 10
7.41325
 20
16.6288
 11
7.49769
 21
16.5531
  0
LINE
  8
0
 10
7.49769
 20
16.5531
 11
7.51359
 21
16.5388
  0
LINE
  8
0
 10
7.51359
 20
16.5388
 11
7.60565
 21
16.4831
  0
LINE
  8
0
 10
7.60565
 20
16.4831
 11
7.62232
 21
16.4729
  0
LINE
  8
0
 10
7.62232
 20
16.4729
 11
7.71958
 21
16.4388
  0
LINE
  8
0
 10
7.71958
 20
16.4388
 11
7.73676
 21
16.4327
  0
LINE
  8
0
 10
7.73676
 20
16.4327
 11
7.85409
 21
16.4192
  0
LINE
  8
0
 10
7.85409
 20
16.4192
 11
11
 21
16.4192
  0
LINE
  8
0
 10
11
 20
16.4192
 11
11
 21
20.0534
  0
LINE
  8
0
 10
11
 20
20.0534
 11
7.85409
 21
20.0534
  0
LINE
  8
0
 10
7.85409
 20
20.0534
 11
7.73676
 21
20.0399
  0
LINE
  8
0
 10
7.73676
 20
20.0399
 11
7.67165
 21
20.017
  0
LINE
  8
0
 10
7.67165
 20
20.017
 11
7.62232
 21
19.9997
  0
LINE
  8
0
 10
7.62232
 20
19.9997
 11
7.56024
 21
19.962
  0
LINE
  8
0
 10
7.56024
 20
19.962
 11
7.51359
 21
19.9338
  0
LINE
  8
0
 10
7.51359
 20
19.9338
 11
7.456
 21
19.8821
  0
LINE
  8
0
 10
7.456
 20
19.8821
 11
7.41325
 21
19.8438
  0
LINE
  8
0
 10
7.41325
 20
19.8438
 11
7.36155
 21
19.7792
  0
LINE
  8
0
 10
7.36155
 20
19.7792
 11
7.32376
 21
19.732
  0
LINE
  8
0
 10
7.32376
 20
19.732
 11
7.27926
 21
19.6557
  0
LINE
  8
0
 10
7.27926
 20
19.6557
 11
7.24732
 21
19.601
  0
LINE
  8
0
 10
7.24732
 20
19.601
 11
7.21121
 21
19.5148
  0
LINE
  8
0
 10
7.21121
 20
19.5148
 11
7.18583
 21
19.4542
  0
LINE
  8
0
 10
7.18583
 20
19.4542
 11
7.15913
 21
19.3599
  0
LINE
  8
0
 10
7.15913
 20
19.3599
 11
7.14079
 21
19.2951
  0
LINE
  8
0
 10
7.14079
 20
19.2951
 11
7.12434
 21
19.1948
  0
LINE
  8
0
 10
7.12434
 20
19.1948
 11
7.11332
 21
19.1277
  0
LINE
  8
0
 10
7.11332
 20
19.1277
 11
7.10773
 21
19.0238
  0
LINE
  8
0
 10
7.10773
 20
19.0238
 11
7.10409
 21
18.956
  0
LINE
  8
0
 10
7.10409
 20
18.956
 11
7.10409
 21
17.5166
  0
LINE
  8
0
 10
36.5
 20
0
 11
47.5
 21
0
  0
LINE
  8
0
 10
47.5
 20
0
 11
47.5
 21
3.5
  0
LINE
  8
0
 10
47.5
 20
3.5
 11
47
 21
4
  0
LINE
  8
0
 10
47
 20
4
 11
41.8959
 21
4
  0
LINE
  8
0
 10
41.8959
 20
4
 11
40.3959
 21
5.5
  0
LINE
  8
0
 10
40.3959
 20
5.5
 11
40.3959
 21
10.4886
  0
LINE
  8
0
 10
40.3959
 20
10.4886
 11
40.3912
 21
10.5497
  0
LINE
  8
0
 10
40.3912
 20
10.5497
 11
40.3867
 21
10.6095
  0
LINE
  8
0
 10
40.3867
 20
10.6095
 11
40.3743
 21
10.6624
  0
LINE
  8
0
 10
40.3743
 20
10.6624
 11
40.3592
 21
10.7274
  0
LINE
  8
0
 10
40.3592
 20
10.7274
 11
40.3416
 21
10.7711
  0
LINE
  8
0
 10
40.3416
 20
10.7711
 11
40.3142
 21
10.8394
  0
LINE
  8
0
 10
40.3142
 20
10.8394
 11
40.2939
 21
10.8736
  0
LINE
  8
0
 10
40.2939
 20
10.8736
 11
40.2527
 21
10.9428
  0
LINE
  8
0
 10
40.2527
 20
10.9428
 11
40.232
 21
10.9678
  0
LINE
  8
0
 10
40.232
 20
10.9678
 11
40.1762
 21
11.035
  0
LINE
  8
0
 10
40.1762
 20
11.035
 11
40.157
 21
11.0519
  0
LINE
  8
0
 10
40.157
 20
11.0519
 11
40.0868
 21
11.1138
  0
LINE
  8
0
 10
40.0868
 20
11.1138
 11
40.0704
 21
11.1241
  0
LINE
  8
0
 10
40.0704
 20
11.1241
 11
39.9864
 21
11.1771
  0
LINE
  8
0
 10
39.9864
 20
11.1771
 11
39.9734
 21
11.1827
  0
LINE
  8
0
 10
39.9734
 20
11.1827
 11
39.8777
 21
11.2235
  0
LINE
  8
0
 10
39.8777
 20
11.2235
 11
39.8678
 21
11.226
  0
LINE
  8
0
 10
39.8678
 20
11.226
 11
39.7632
 21
11.2518
  0
LINE
  8
0
 10
39.7632
 20
11.2518
 11
39.7556
 21
11.2525
  0
LINE
  8
0
 10
39.7556
 20
11.2525
 11
39.6459
 21
11.2614
  0
LINE
  8
0
 10
39.6459
 20
11.2614
 11
36.5
 21
11.2614
  0
LINE
  8
0
 10
36.5
 20
11.2614
 11
36.5
 21
0
  0
LINE
  8
0
 10
36.5
 20
16.4192
 11
39.6459
 21
16.4192
  0
LINE
  8
0
 10
39.6459
 20
16.4192
 11
39.7632
 21
16.4327
  0
LINE
  8
0
 10
39.7632
 20
16.4327
 11
39.8603
 21
16.4668
  0
LINE
  8
0
 10
39.8603
 20
16.4668
 11
39.8777
 21
16.4729
  0
LINE
  8
0
 10
39.8777
 20
16.4729
 11
39.9694
 21
16.5285
  0
LINE
  8
0
 10
39.9694
 20
16.5285
 11
39.9864
 21
16.5388
  0
LINE
  8
0
 10
39.9864
 20
16.5388
 11
40.0704
 21
16.6142
  0
LINE
  8
0
 10
40.0704
 20
16.6142
 11
40.0868
 21
16.6288
  0
LINE
  8
0
 10
40.0868
 20
16.6288
 11
40.161
 21
16.7216
  0
LINE
  8
0
 10
40.161
 20
16.7216
 11
40.1762
 21
16.7407
  0
LINE
  8
0
 10
40.1762
 20
16.7407
 11
40.2389
 21
16.848
  0
LINE
  8
0
 10
40.2389
 20
16.848
 11
40.2527
 21
16.8716
  0
LINE
  8
0
 10
40.2527
 20
16.8716
 11
40.3025
 21
16.9905
  0
LINE
  8
0
 10
40.3025
 20
16.9905
 11
40.3142
 21
17.0184
  0
LINE
  8
0
 10
40.3142
 20
17.0184
 11
40.3501
 21
17.1454
  0
LINE
  8
0
 10
40.3501
 20
17.1454
 11
40.3592
 21
17.1775
  0
LINE
  8
0
 10
40.3592
 20
17.1775
 11
40.3808
 21
17.3092
  0
LINE
  8
0
 10
40.3808
 20
17.3092
 11
40.3867
 21
17.3449
  0
LINE
  8
0
 10
40.3867
 20
17.3449
 11
40.3938
 21
17.4778
  0
LINE
  8
0
 10
40.3938
 20
17.4778
 11
40.3959
 21
17.5166
  0
LINE
  8
0
 10
40.3959
 20
17.5166
 11
40.3959
 21
18.956
  0
LINE
  8
0
 10
40.3959
 20
18.956
 11
40.3903
 21
19.0597
  0
LINE
  8
0
 10
40.3903
 20
19.0597
 11
40.3867
 21
19.1277
  0
LINE
  8
0
 10
40.3867
 20
19.1277
 11
40.3703
 21
19.2278
  0
LINE
  8
0
 10
40.3703
 20
19.2278
 11
40.3592
 21
19.2951
  0
LINE
  8
0
 10
40.3592
 20
19.2951
 11
40.3325
 21
19.3893
  0
LINE
  8
0
 10
40.3325
 20
19.3893
 11
40.3142
 21
19.4542
  0
LINE
  8
0
 10
40.3142
 20
19.4542
 11
40.2781
 21
19.5403
  0
LINE
  8
0
 10
40.2781
 20
19.5403
 11
40.2527
 21
19.601
  0
LINE
  8
0
 10
40.2527
 20
19.601
 11
40.2082
 21
19.6772
  0
LINE
  8
0
 10
40.2082
 20
19.6772
 11
40.1762
 21
19.732
  0
LINE
  8
0
 10
40.1762
 20
19.732
 11
40.1246
 21
19.7965
  0
LINE
  8
0
 10
40.1246
 20
19.7965
 11
40.0868
 21
19.8438
  0
LINE
  8
0
 10
40.0868
 20
19.8438
 11
40.0292
 21
19.8954
  0
LINE
  8
0
 10
40.0292
 20
19.8954
 11
39.9864
 21
19.9338
  0
LINE
  8
0
 10
39.9864
 20
19.9338
 11
39.9244
 21
19.9714
  0
LINE
  8
0
 10
39.9244
 20
19.9714
 11
39.8777
 21
19.9997
  0
LINE
  8
0
 10
39.8777
 20
19.9997
 11
39.8126
 21
20.0225
  0
LINE
  8
0
 10
39.8126
 20
20.0225
 11
39.7632
 21
20.0399
  0
LINE
  8
0
 10
39.7632
 20
20.0399
 11
39.6459
 21
20.0534
  0
LINE
  8
0
 10
39.6459
 20
20.0534
 11
36.5
 21
20.0534
  0
LINE
  8
0
 10
36.5
 20
20.0534
 11
36.5
 21
16.4192
  0
LINE
  8
0
 10
36.5
 20
27.3692
 11
39.6459
 21
27.3692
  0
LINE
  8
0
 10
39.6459
 20
27.3692
 11
39.7632
 21
27.3827
  0
LINE
  8
0
 10
39.7632
 20
27.3827
 11
39.7975
 21
27.3948
  0
LINE
  8
0
 10
39.7975
 20
27.3948
 11
39.8777
 21
27.4229
  0
LINE
  8
0
 10
39.8777
 20
27.4229
 11
39.9101
 21
27.4426
  0
LINE
  8
0
 10
39.9101
 20
27.4426
 11
39.9864
 21
27.4888
  0
LINE
  8
0
 10
39.9864
 20
27.4888
 11
40.0868
 21
27.5788
  0
LINE
  8
0
 10
40.0868
 20
27.5788
 11
40.1762
 21
27.6906
  0
LINE
  8
0
 10
40.1762
 20
27.6906
 11
40.1982
 21
27.7283
  0
LINE
  8
0
 10
40.1982
 20
27.7283
 11
40.2527
 21
27.8216
  0
LINE
  8
0
 10
40.2527
 20
27.8216
 11
40.2701
 21
27.8631
  0
LINE
  8
0
 10
40.2701
 20
27.8631
 11
40.3142
 21
27.9684
  0
LINE
  8
0
 10
40.3142
 20
27.9684
 11
40.3266
 21
28.0125
  0
LINE
  8
0
 10
40.3266
 20
28.0125
 11
40.3592
 21
28.1275
  0
LINE
  8
0
 10
40.3592
 20
28.1275
 11
40.3667
 21
28.1729
  0
LINE
  8
0
 10
40.3667
 20
28.1729
 11
40.3867
 21
28.2949
  0
LINE
  8
0
 10
40.3867
 20
28.2949
 11
40.3891
 21
28.3405
  0
LINE
  8
0
 10
40.3891
 20
28.3405
 11
40.3959
 21
28.4666
  0
LINE
  8
0
 10
40.3959
 20
28.4666
 11
40.3959
 21
40
  0
LINE
  8
0
 10
40.3959
 20
40
 11
41.8959
 21
41.5
  0
LINE
  8
0
 10
41.8959
 20
41.5
 11
47
 21
41.5
  0
LINE
  8
0
 10
47
 20
41.5
 11
47.5
 21
42
  0
LINE
  8
0
 10
47.5
 20
42
 11
47.5
 21
45.5
  0
LINE
  8
0
 10
47.5
 20
45.5
 11
36.5
 21
45.5
  0
LINE
  8
0
 10
36.5
 20
45.5
 11
36.5
 21
27.3692
  0
ENDSEC
  0
SECTION
  2
OBJECTS
  0
DICTIONARY
  0
ENDSEC
  0
EOF
