  0
SECTION
  2
BLOCKS
  0
ENDSEC
  0
SECTION
  2
ENTITIES
  0
LINE
  8
0
 10
0
 20
0
 11
11
 21
0
  0
LINE
  8
0
 10
11
 20
0
 11
11
 21
11.5032
  0
LINE
  8
0
 10
11
 20
11.5032
 11
7.85409
 21
11.5032
  0
LINE
  8
0
 10
7.85409
 20
11.5032
 11
7.7699
 21
11.4952
  0
LINE
  8
0
 10
7.7699
 20
11.4952
 11
7.73676
 21
11.4921
  0
LINE
  8
0
 10
7.73676
 20
11.4921
 11
7.6508
 21
11.4674
  0
LINE
  8
0
 10
7.6508
 20
11.4674
 11
7.62232
 21
11.4592
  0
LINE
  8
0
 10
7.62232
 20
11.4592
 11
7.5338
 21
11.4153
  0
LINE
  8
0
 10
7.5338
 20
11.4153
 11
7.51359
 21
11.4053
  0
LINE
  8
0
 10
7.51359
 20
11.4053
 11
7.42283
 21
11.3387
  0
LINE
  8
0
 10
7.42283
 20
11.3387
 11
7.41325
 21
11.3317
  0
LINE
  8
0
 10
7.41325
 20
11.3317
 11
7.338
 21
11.2548
  0
LINE
  8
0
 10
7.338
 20
11.2548
 11
7.32376
 21
11.2415
  0
LINE
  8
0
 10
7.32376
 20
11.2415
 11
7.32257
 21
11.24
  0
LINE
  8
0
 10
7.32257
 20
11.24
 11
7.24732
 21
11.1437
  0
LINE
  8
0
 10
7.24732
 20
11.1437
 11
7.23958
 21
11.1299
  0
LINE
  8
0
 10
7.23958
 20
11.1299
 11
7.18583
 21
11.0341
  0
LINE
  8
0
 10
7.18583
 20
11.0341
 11
7.1749
 21
11.0053
  0
LINE
  8
0
 10
7.1749
 20
11.0053
 11
7.14079
 21
10.9153
  0
LINE
  8
0
 10
7.14079
 20
10.9153
 11
7.13089
 21
10.8703
  0
LINE
  8
0
 10
7.13089
 20
10.8703
 11
7.11332
 21
10.7903
  0
LINE
  8
0
 10
7.11332
 20
10.7903
 11
7.10894
 21
10.7295
  0
LINE
  8
0
 10
7.10894
 20
10.7295
 11
7.10409
 21
10.6622
  0
LINE
  8
0
 10
7.10409
 20
10.6622
 11
7.10409
 21
5.5
  0
LINE
  8
0
 10
7.10409
 20
5.5
 11
5.60409
 21
4
  0
LINE
  8
0
 10
5.60409
 20
4
 11
0.499999
 21
4
  0
LINE
  8
0
 10
0.499999
 20
4
 11
0
 21
3.5
  0
LINE
  8
0
 10
0
 20
3.5
 11
0
 21
0
  0
LINE
  8
0
 10
0
 20
42
 11
0.499999
 21
41.5
  0
LINE
  8
0
 10
0.499999
 20
41.5
 11
5.60409
 21
41.5
  0
LINE
  8
0
 10
5.60409
 20
41.5
 11
7.10409
 21
40
  0
LINE
  8
0
 10
7.10409
 20
40
 11
7.10409
 21
32.8196
  0
LINE
  8
0
 10
7.10409
 20
32.8196
 11
7.10714
 21
32.7371
  0
LINE
  8
0
 10
7.10714
 20
32.7371
 11
7.11332
 21
32.57
  0
LINE
  8
0
 10
7.11332
 20
32.57
 11
7.13844
 21
32.3475
  0
LINE
  8
0
 10
7.13844
 20
32.3475
 11
7.14079
 21
32.3166
  0
LINE
  8
0
 10
7.14079
 20
32.3166
 11
7.14857
 21
32.2575
  0
LINE
  8
0
 10
7.14857
 20
32.2575
 11
7.18583
 21
31.9745
  0
LINE
  8
0
 10
7.18583
 20
31.9745
 11
7.2131
 21
31.8344
  0
LINE
  8
0
 10
7.2131
 20
31.8344
 11
7.24732
 21
31.4784
  0
LINE
  8
0
 10
7.24732
 20
31.4784
 11
7.26297
 21
31.3616
  0
LINE
  8
0
 10
7.26297
 20
31.3616
 11
7.26233
 21
31.2734
  0
LINE
  8
0
 10
7.26233
 20
31.2734
 11
7.25964
 21
30.9003
  0
LINE
  8
0
 10
7.25964
 20
30.9003
 11
7.25391
 21
30.8616
  0
LINE
  8
0
 10
7.25391
 20
30.8616
 11
7.24732
 21
30.8172
  0
LINE
  8
0
 10
7.24732
 20
30.8172
 11
7.22485
 21
30.6057
  0
LINE
  8
0
 10
7.22485
 20
30.6057
 11
7.20561
 21
30.4247
  0
LINE
  8
0
 10
7.20561
 20
30.4247
 11
7.19347
 21
30.3654
  0
LINE
  8
0
 10
7.19347
 20
30.3654
 11
7.18583
 21
30.3281
  0
LINE
  8
0
 10
7.18583
 20
30.3281
 11
7.16397
 21
30.17
  0
LINE
  8
0
 10
7.16397
 20
30.17
 11
7.14079
 21
30.0023
  0
LINE
  8
0
 10
7.14079
 20
30.0023
 11
7.13787
 21
29.9658
  0
LINE
  8
0
 10
7.13787
 20
29.9658
 11
7.13305
 21
29.9057
  0
LINE
  8
0
 10
7.13305
 20
29.9057
 11
7.11929
 21
29.7875
  0
LINE
  8
0
 10
7.11929
 20
29.7875
 11
7.11332
 21
29.7362
  0
LINE
  8
0
 10
7.11332
 20
29.7362
 11
7.10879
 21
29.6176
  0
LINE
  8
0
 10
7.10879
 20
29.6176
 11
7.10409
 21
29.4943
  0
LINE
  8
0
 10
7.10409
 20
29.4943
 11
7.10409
 21
27.9325
  0
LINE
  8
0
 10
7.10409
 20
27.9325
 11
7.10685
 21
27.8812
  0
LINE
  8
0
 10
7.10685
 20
27.8812
 11
7.11332
 21
27.7609
  0
LINE
  8
0
 10
7.11332
 20
27.7609
 11
7.12171
 21
27.7098
  0
LINE
  8
0
 10
7.12171
 20
27.7098
 11
7.14079
 21
27.5934
  0
LINE
  8
0
 10
7.14079
 20
27.5934
 11
7.15482
 21
27.5439
  0
LINE
  8
0
 10
7.15482
 20
27.5439
 11
7.18583
 21
27.4343
  0
LINE
  8
0
 10
7.18583
 20
27.4343
 11
7.20533
 21
27.3878
  0
LINE
  8
0
 10
7.20533
 20
27.3878
 11
7.24732
 21
27.2875
  0
LINE
  8
0
 10
7.24732
 20
27.2875
 11
7.27196
 21
27.2453
  0
LINE
  8
0
 10
7.27196
 20
27.2453
 11
7.32376
 21
27.1566
  0
LINE
  8
0
 10
7.32376
 20
27.1566
 11
7.41325
 21
27.0447
  0
LINE
  8
0
 10
7.41325
 20
27.0447
 11
7.51359
 21
26.9548
  0
LINE
  8
0
 10
7.51359
 20
26.9548
 11
7.54987
 21
26.9328
  0
LINE
  8
0
 10
7.54987
 20
26.9328
 11
7.62232
 21
26.8889
  0
LINE
  8
0
 10
7.62232
 20
26.8889
 11
7.66075
 21
26.8754
  0
LINE
  8
0
 10
7.66075
 20
26.8754
 11
7.73676
 21
26.8487
  0
LINE
  8
0
 10
7.73676
 20
26.8487
 11
7.85409
 21
26.8352
  0
LINE
  8
0
 10
7.85409
 20
26.8352
 11
11
 21
26.8352
  0
LINE
  8
0
 10
11
 20
26.8352
 11
11
 21
45.5
  0
LINE
  8
0
 10
11
 20
45.5
 11
0
 21
45.5
  0
LINE
  8
0
 10
0
 20
45.5
 11
0
 21
42
  0
LINE
  8
0
 10
7.10409
 20
16.9826
 11
7.11198
 21
16.8358
  0
LINE
  8
0
 10
7.11198
 20
16.8358
 11
7.11332
 21
16.8109
  0
LINE
  8
0
 10
7.11332
 20
16.8109
 11
7.13715
 21
16.6656
  0
LINE
  8
0
 10
7.13715
 20
16.6656
 11
7.14079
 21
16.6434
  0
LINE
  8
0
 10
7.14079
 20
16.6434
 11
7.1804
 21
16.5036
  0
LINE
  8
0
 10
7.1804
 20
16.5036
 11
7.18583
 21
16.4844
  0
LINE
  8
0
 10
7.18583
 20
16.4844
 11
7.24058
 21
16.3537
  0
LINE
  8
0
 10
7.24058
 20
16.3537
 11
7.24732
 21
16.3375
  0
LINE
  8
0
 10
7.24732
 20
16.3375
 11
7.31612
 21
16.2197
  0
LINE
  8
0
 10
7.31612
 20
16.2197
 11
7.32376
 21
16.2066
  0
LINE
  8
0
 10
7.32376
 20
16.2066
 11
7.40505
 21
16.105
  0
LINE
  8
0
 10
7.40505
 20
16.105
 11
7.41325
 21
16.0948
  0
LINE
  8
0
 10
7.41325
 20
16.0948
 11
7.50508
 21
16.0124
  0
LINE
  8
0
 10
7.50508
 20
16.0124
 11
7.51359
 21
16.0048
  0
LINE
  8
0
 10
7.51359
 20
16.0048
 11
7.61364
 21
15.9442
  0
LINE
  8
0
 10
7.61364
 20
15.9442
 11
7.62232
 21
15.9389
  0
LINE
  8
0
 10
7.62232
 20
15.9389
 11
7.72798
 21
15.9018
  0
LINE
  8
0
 10
7.72798
 20
15.9018
 11
7.73676
 21
15.8987
  0
LINE
  8
0
 10
7.73676
 20
15.8987
 11
7.85409
 21
15.8852
  0
LINE
  8
0
 10
7.85409
 20
15.8852
 11
11
 21
15.8852
  0
LINE
  8
0
 10
11
 20
15.8852
 11
11
 21
19.5193
  0
LINE
  8
0
 10
11
 20
19.5193
 11
7.85409
 21
19.5193
  0
LINE
  8
0
 10
7.85409
 20
19.5193
 11
7.73676
 21
19.5058
  0
LINE
  8
0
 10
7.73676
 20
19.5058
 11
7.66745
 21
19.4815
  0
LINE
  8
0
 10
7.66745
 20
19.4815
 11
7.62232
 21
19.4656
  0
LINE
  8
0
 10
7.62232
 20
19.4656
 11
7.55625
 21
19.4256
  0
LINE
  8
0
 10
7.55625
 20
19.4256
 11
7.51359
 21
19.3997
  0
LINE
  8
0
 10
7.51359
 20
19.3997
 11
7.45232
 21
19.3448
  0
LINE
  8
0
 10
7.45232
 20
19.3448
 11
7.41325
 21
19.3097
  0
LINE
  8
0
 10
7.41325
 20
19.3097
 11
7.35826
 21
19.241
  0
LINE
  8
0
 10
7.35826
 20
19.241
 11
7.32376
 21
19.1979
  0
LINE
  8
0
 10
7.32376
 20
19.1979
 11
7.27645
 21
19.1169
  0
LINE
  8
0
 10
7.27645
 20
19.1169
 11
7.24732
 21
19.067
  0
LINE
  8
0
 10
7.24732
 20
19.067
 11
7.20895
 21
18.9753
  0
LINE
  8
0
 10
7.20895
 20
18.9753
 11
7.18583
 21
18.9201
  0
LINE
  8
0
 10
7.18583
 20
18.9201
 11
7.15747
 21
18.82
  0
LINE
  8
0
 10
7.15747
 20
18.82
 11
7.14079
 21
18.7611
  0
LINE
  8
0
 10
7.14079
 20
18.7611
 11
7.12333
 21
18.6546
  0
LINE
  8
0
 10
7.12333
 20
18.6546
 11
7.11332
 21
18.5936
  0
LINE
  8
0
 10
7.11332
 20
18.5936
 11
7.10739
 21
18.4834
  0
LINE
  8
0
 10
7.10739
 20
18.4834
 11
7.10409
 21
18.4219
  0
LINE
  8
0
 10
7.10409
 20
18.4219
 11
7.10409
 21
16.9826
  0
LINE
  8
0
 10
36.5
 20
0
 11
47.5
 21
0
  0
LINE
  8
0
 10
47.5
 20
0
 11
47.5
 21
3.5
  0
LINE
  8
0
 10
47.5
 20
3.5
 11
47
 21
4
  0
LINE
  8
0
 10
47
 20
4
 11
41.8959
 21
4
  0
LINE
  8
0
 10
41.8959
 20
4
 11
40.3959
 21
5.5
  0
LINE
  8
0
 10
40.3959
 20
5.5
 11
40.3959
 21
10.6622
  0
LINE
  8
0
 10
40.3959
 20
10.6622
 11
40.3913
 21
10.7257
  0
LINE
  8
0
 10
40.3913
 20
10.7257
 11
40.3867
 21
10.7903
  0
LINE
  8
0
 10
40.3867
 20
10.7903
 11
40.3756
 21
10.8407
  0
LINE
  8
0
 10
40.3756
 20
10.8407
 11
40.3592
 21
10.9153
  0
LINE
  8
0
 10
40.3592
 20
10.9153
 11
40.3454
 21
10.9517
  0
LINE
  8
0
 10
40.3454
 20
10.9517
 11
40.3142
 21
11.0341
  0
LINE
  8
0
 10
40.3142
 20
11.0341
 11
40.3014
 21
11.0568
  0
LINE
  8
0
 10
40.3014
 20
11.0568
 11
40.2527
 21
11.1437
  0
LINE
  8
0
 10
40.2527
 20
11.1437
 11
40.2444
 21
11.1543
  0
LINE
  8
0
 10
40.2444
 20
11.1543
 11
40.1762
 21
11.2415
  0
LINE
  8
0
 10
40.1762
 20
11.2415
 11
40.175
 21
11.2426
  0
LINE
  8
0
 10
40.175
 20
11.2426
 11
40.162
 21
11.2548
  0
LINE
  8
0
 10
40.162
 20
11.2548
 11
40.0935
 21
11.3248
  0
LINE
  8
0
 10
40.0935
 20
11.3248
 11
40.0868
 21
11.3317
  0
LINE
  8
0
 10
40.0868
 20
11.3317
 11
40.0019
 21
11.3939
  0
LINE
  8
0
 10
40.0019
 20
11.3939
 11
39.9864
 21
11.4053
  0
LINE
  8
0
 10
39.9864
 20
11.4053
 11
39.9015
 21
11.4474
  0
LINE
  8
0
 10
39.9015
 20
11.4474
 11
39.8777
 21
11.4592
  0
LINE
  8
0
 10
39.8777
 20
11.4592
 11
39.7935
 21
11.4834
  0
LINE
  8
0
 10
39.7935
 20
11.4834
 11
39.7632
 21
11.4921
  0
LINE
  8
0
 10
39.7632
 20
11.4921
 11
39.6796
 21
11.5
  0
LINE
  8
0
 10
39.6796
 20
11.5
 11
39.6459
 21
11.5032
  0
LINE
  8
0
 10
39.6459
 20
11.5032
 11
36.5
 21
11.5032
  0
LINE
  8
0
 10
36.5
 20
11.5032
 11
36.5
 21
0
  0
LINE
  8
0
 10
36.5
 20
15.8852
 11
39.6459
 21
15.8852
  0
LINE
  8
0
 10
39.6459
 20
15.8852
 11
39.7632
 21
15.8987
  0
LINE
  8
0
 10
39.7632
 20
15.8987
 11
39.8686
 21
15.9357
  0
LINE
  8
0
 10
39.8686
 20
15.9357
 11
39.8777
 21
15.9389
  0
LINE
  8
0
 10
39.8777
 20
15.9389
 11
39.9773
 21
15.9993
  0
LINE
  8
0
 10
39.9773
 20
15.9993
 11
39.9864
 21
16.0048
  0
LINE
  8
0
 10
39.9864
 20
16.0048
 11
40.0777
 21
16.0866
  0
LINE
  8
0
 10
40.0777
 20
16.0866
 11
40.0868
 21
16.0948
  0
LINE
  8
0
 10
40.0868
 20
16.0948
 11
40.1675
 21
16.1956
  0
LINE
  8
0
 10
40.1675
 20
16.1956
 11
40.1762
 21
16.2066
  0
LINE
  8
0
 10
40.1762
 20
16.2066
 11
40.2445
 21
16.3235
  0
LINE
  8
0
 10
40.2445
 20
16.3235
 11
40.2527
 21
16.3375
  0
LINE
  8
0
 10
40.2527
 20
16.3375
 11
40.3069
 21
16.467
  0
LINE
  8
0
 10
40.3069
 20
16.467
 11
40.3142
 21
16.4844
  0
LINE
  8
0
 10
40.3142
 20
16.4844
 11
40.3534
 21
16.6229
  0
LINE
  8
0
 10
40.3534
 20
16.6229
 11
40.3592
 21
16.6434
  0
LINE
  8
0
 10
40.3592
 20
16.6434
 11
40.3828
 21
16.7872
  0
LINE
  8
0
 10
40.3828
 20
16.7872
 11
40.3867
 21
16.8109
  0
LINE
  8
0
 10
40.3867
 20
16.8109
 11
40.3945
 21
16.9562
  0
LINE
  8
0
 10
40.3945
 20
16.9562
 11
40.3959
 21
16.9826
  0
LINE
  8
0
 10
40.3959
 20
16.9826
 11
40.3959
 21
18.4219
  0
LINE
  8
0
 10
40.3959
 20
18.4219
 11
40.39
 21
18.5319
  0
LINE
  8
0
 10
40.39
 20
18.5319
 11
40.3867
 21
18.5936
  0
LINE
  8
0
 10
40.3867
 20
18.5936
 11
40.3693
 21
18.6998
  0
LINE
  8
0
 10
40.3693
 20
18.6998
 11
40.3592
 21
18.7611
  0
LINE
  8
0
 10
40.3592
 20
18.7611
 11
40.3309
 21
18.861
  0
LINE
  8
0
 10
40.3309
 20
18.861
 11
40.3142
 21
18.9201
  0
LINE
  8
0
 10
40.3142
 20
18.9201
 11
40.2759
 21
19.0116
  0
LINE
  8
0
 10
40.2759
 20
19.0116
 11
40.2527
 21
19.067
  0
LINE
  8
0
 10
40.2527
 20
19.067
 11
40.2055
 21
19.1479
  0
LINE
  8
0
 10
40.2055
 20
19.1479
 11
40.1762
 21
19.1979
  0
LINE
  8
0
 10
40.1762
 20
19.1979
 11
40.1213
 21
19.2665
  0
LINE
  8
0
 10
40.1213
 20
19.2665
 11
40.0868
 21
19.3097
  0
LINE
  8
0
 10
40.0868
 20
19.3097
 11
40.0255
 21
19.3646
  0
LINE
  8
0
 10
40.0255
 20
19.3646
 11
39.9864
 21
19.3997
  0
LINE
  8
0
 10
39.9864
 20
19.3997
 11
39.9204
 21
19.4397
  0
LINE
  8
0
 10
39.9204
 20
19.4397
 11
39.8777
 21
19.4656
  0
LINE
  8
0
 10
39.8777
 20
19.4656
 11
39.8084
 21
19.4899
  0
LINE
  8
0
 10
39.8084
 20
19.4899
 11
39.7632
 21
19.5058
  0
LINE
  8
0
 10
39.7632
 20
19.5058
 11
39.6459
 21
19.5193
  0
LINE
  8
0
 10
39.6459
 20
19.5193
 11
36.5
 21
19.5193
  0
LINE
  8
0
 10
36.5
 20
19.5193
 11
36.5
 21
15.8852
  0
LINE
  8
0
 10
36.5
 20
26.8352
 11
39.6459
 21
26.8352
  0
LINE
  8
0
 10
39.6459
 20
26.8352
 11
39.7632
 21
26.8487
  0
LINE
  8
0
 10
39.7632
 20
26.8487
 11
39.8017
 21
26.8622
  0
LINE
  8
0
 10
39.8017
 20
26.8622
 11
39.8777
 21
26.8889
  0
LINE
  8
0
 10
39.8777
 20
26.8889
 11
39.914
 21
26.9109
  0
LINE
  8
0
 10
39.914
 20
26.9109
 11
39.9864
 21
26.9548
  0
LINE
  8
0
 10
39.9864
 20
26.9548
 11
40.0868
 21
27.0447
  0
LINE
  8
0
 10
40.0868
 20
27.0447
 11
40.1762
 21
27.1566
  0
LINE
  8
0
 10
40.1762
 20
27.1566
 11
40.201
 21
27.199
  0
LINE
  8
0
 10
40.201
 20
27.199
 11
40.2527
 21
27.2875
  0
LINE
  8
0
 10
40.2527
 20
27.2875
 11
40.2723
 21
27.3344
  0
LINE
  8
0
 10
40.2723
 20
27.3344
 11
40.3142
 21
27.4343
  0
LINE
  8
0
 10
40.3142
 20
27.4343
 11
40.3283
 21
27.4842
  0
LINE
  8
0
 10
40.3283
 20
27.4842
 11
40.3592
 21
27.5934
  0
LINE
  8
0
 10
40.3592
 20
27.5934
 11
40.3677
 21
27.645
  0
LINE
  8
0
 10
40.3677
 20
27.645
 11
40.3867
 21
27.7609
  0
LINE
  8
0
 10
40.3867
 20
27.7609
 11
40.3895
 21
27.8126
  0
LINE
  8
0
 10
40.3895
 20
27.8126
 11
40.3959
 21
27.9325
  0
LINE
  8
0
 10
40.3959
 20
27.9325
 11
40.3959
 21
29.4943
  0
LINE
  8
0
 10
40.3959
 20
29.4943
 11
40.3912
 21
29.6172
  0
LINE
  8
0
 10
40.3912
 20
29.6172
 11
40.3867
 21
29.7362
  0
LINE
  8
0
 10
40.3867
 20
29.7362
 11
40.3669
 21
29.9057
  0
LINE
  8
0
 10
40.3669
 20
29.9057
 11
40.3592
 21
30.0023
  0
LINE
  8
0
 10
40.3592
 20
30.0023
 11
40.3373
 21
30.1604
  0
LINE
  8
0
 10
40.3373
 20
30.1604
 11
40.3142
 21
30.3281
  0
LINE
  8
0
 10
40.3142
 20
30.3281
 11
40.2944
 21
30.4247
  0
LINE
  8
0
 10
40.2944
 20
30.4247
 11
40.2527
 21
30.8172
  0
LINE
  8
0
 10
40.2527
 20
30.8172
 11
40.2404
 21
30.9003
  0
LINE
  8
0
 10
40.2404
 20
30.9003
 11
40.2398
 21
30.9759
  0
LINE
  8
0
 10
40.2398
 20
30.9759
 11
40.237
 21
31.3616
  0
LINE
  8
0
 10
40.237
 20
31.3616
 11
40.2439
 21
31.413
  0
LINE
  8
0
 10
40.2439
 20
31.413
 11
40.2527
 21
31.4784
  0
LINE
  8
0
 10
40.2527
 20
31.4784
 11
40.272
 21
31.6795
  0
LINE
  8
0
 10
40.272
 20
31.6795
 11
40.2869
 21
31.8344
  0
LINE
  8
0
 10
40.2869
 20
31.8344
 11
40.3033
 21
31.9186
  0
LINE
  8
0
 10
40.3033
 20
31.9186
 11
40.3142
 21
31.9745
  0
LINE
  8
0
 10
40.3142
 20
31.9745
 11
40.3332
 21
32.1191
  0
LINE
  8
0
 10
40.3332
 20
32.1191
 11
40.3592
 21
32.3166
  0
LINE
  8
0
 10
40.3592
 20
32.3166
 11
40.3601
 21
32.3287
  0
LINE
  8
0
 10
40.3601
 20
32.3287
 11
40.3616
 21
32.3475
  0
LINE
  8
0
 10
40.3616
 20
32.3475
 11
40.3789
 21
32.5009
  0
LINE
  8
0
 10
40.3789
 20
32.5009
 11
40.3867
 21
32.57
  0
LINE
  8
0
 10
40.3867
 20
32.57
 11
40.3905
 21
32.6742
  0
LINE
  8
0
 10
40.3905
 20
32.6742
 11
40.3959
 21
32.8196
  0
LINE
  8
0
 10
40.3959
 20
32.8196
 11
40.3959
 21
40
  0
LINE
  8
0
 10
40.3959
 20
40
 11
41.8959
 21
41.5
  0
LINE
  8
0
 10
41.8959
 20
41.5
 11
47
 21
41.5
  0
LINE
  8
0
 10
47
 20
41.5
 11
47.5
 21
42
  0
LINE
  8
0
 10
47.5
 20
42
 11
47.5
 21
45.5
  0
LINE
  8
0
 10
47.5
 20
45.5
 11
36.5
 21
45.5
  0
LINE
  8
0
 10
36.5
 20
45.5
 11
36.5
 21
26.8352
  0
ENDSEC
  0
SECTION
  2
OBJECTS
  0
DICTIONARY
  0
ENDSEC
  0
EOF
