  0
SECTION
  2
BLOCKS
  0
ENDSEC
  0
SECTION
  2
ENTITIES
  0
LINE
  8
0
 10
0
 20
0
 11
11
 21
0
  0
LINE
  8
0
 10
11
 20
0
 11
11
 21
12.6725
  0
LINE
  8
0
 10
11
 20
12.6725
 11
7.85409
 21
12.6725
  0
LINE
  8
0
 10
7.85409
 20
12.6725
 11
7.739
 21
12.644
  0
LINE
  8
0
 10
7.739
 20
12.644
 11
7.73676
 21
12.6434
  0
LINE
  8
0
 10
7.73676
 20
12.6434
 11
7.7262
 21
12.6354
  0
LINE
  8
0
 10
7.7262
 20
12.6354
 11
7.62232
 21
12.5824
  0
LINE
  8
0
 10
7.62232
 20
12.5824
 11
7.60659
 21
12.5685
  0
LINE
  8
0
 10
7.60659
 20
12.5685
 11
7.51359
 21
12.4866
  0
LINE
  8
0
 10
7.51359
 20
12.4866
 11
7.46999
 21
12.4298
  0
LINE
  8
0
 10
7.46999
 20
12.4298
 11
7.41325
 21
12.3558
  0
LINE
  8
0
 10
7.41325
 20
12.3558
 11
7.33612
 21
12.2157
  0
LINE
  8
0
 10
7.33612
 20
12.2157
 11
7.32376
 21
12.1932
  0
LINE
  8
0
 10
7.32376
 20
12.1932
 11
7.30411
 21
12.1443
  0
LINE
  8
0
 10
7.30411
 20
12.1443
 11
7.24732
 21
12.0352
  0
LINE
  8
0
 10
7.24732
 20
12.0352
 11
7.23074
 21
11.9908
  0
LINE
  8
0
 10
7.23074
 20
11.9908
 11
7.18583
 21
11.8706
  0
LINE
  8
0
 10
7.18583
 20
11.8706
 11
7.15591
 21
11.7521
  0
LINE
  8
0
 10
7.15591
 20
11.7521
 11
7.14079
 21
11.6923
  0
LINE
  8
0
 10
7.14079
 20
11.6923
 11
7.11783
 21
11.5354
  0
LINE
  8
0
 10
7.11783
 20
11.5354
 11
7.11332
 21
11.5097
  0
LINE
  8
0
 10
7.11332
 20
11.5097
 11
7.1129
 21
11.5024
  0
LINE
  8
0
 10
7.1129
 20
11.5024
 11
7.10409
 21
11.3496
  0
LINE
  8
0
 10
7.10409
 20
11.3496
 11
7.10409
 21
5.5
  0
LINE
  8
0
 10
7.10409
 20
5.5
 11
5.60409
 21
4
  0
LINE
  8
0
 10
5.60409
 20
4
 11
0.499999
 21
4
  0
LINE
  8
0
 10
0.499999
 20
4
 11
0
 21
3.5
  0
LINE
  8
0
 10
0
 20
3.5
 11
0
 21
0
  0
LINE
  8
0
 10
0
 20
42
 11
0.499999
 21
41.5
  0
LINE
  8
0
 10
0.499999
 20
41.5
 11
5.60409
 21
41.5
  0
LINE
  8
0
 10
5.60409
 20
41.5
 11
7.10409
 21
40
  0
LINE
  8
0
 10
7.10409
 20
40
 11
7.10409
 21
33.8584
  0
LINE
  8
0
 10
7.10409
 20
33.8584
 11
7.10933
 21
33.7787
  0
LINE
  8
0
 10
7.10933
 20
33.7787
 11
7.11332
 21
33.718
  0
LINE
  8
0
 10
7.11332
 20
33.718
 11
7.13387
 21
33.6155
  0
LINE
  8
0
 10
7.13387
 20
33.6155
 11
7.14079
 21
33.581
  0
LINE
  8
0
 10
7.14079
 20
33.581
 11
7.18283
 21
33.4595
  0
LINE
  8
0
 10
7.18283
 20
33.4595
 11
7.18583
 21
33.4508
  0
LINE
  8
0
 10
7.18583
 20
33.4508
 11
7.20869
 21
33.4062
  0
LINE
  8
0
 10
7.20869
 20
33.4062
 11
7.24732
 21
33.3201
  0
LINE
  8
0
 10
7.24732
 20
33.3201
 11
7.25831
 21
33.3025
  0
LINE
  8
0
 10
7.25831
 20
33.3025
 11
7.32376
 21
33.1979
  0
LINE
  8
0
 10
7.32376
 20
33.1979
 11
7.355
 21
33.1615
  0
LINE
  8
0
 10
7.355
 20
33.1615
 11
7.41325
 21
33.0936
  0
LINE
  8
0
 10
7.41325
 20
33.0936
 11
7.46548
 21
33.0499
  0
LINE
  8
0
 10
7.46548
 20
33.0499
 11
7.51359
 21
33.0096
  0
LINE
  8
0
 10
7.51359
 20
33.0096
 11
7.58415
 21
32.9697
  0
LINE
  8
0
 10
7.58415
 20
32.9697
 11
7.62232
 21
32.9481
  0
LINE
  8
0
 10
7.62232
 20
32.9481
 11
7.70582
 21
32.9208
  0
LINE
  8
0
 10
7.70582
 20
32.9208
 11
7.73676
 21
32.9106
  0
LINE
  8
0
 10
7.73676
 20
32.9106
 11
7.82618
 21
32.901
  0
LINE
  8
0
 10
7.82618
 20
32.901
 11
7.85409
 21
32.898
  0
LINE
  8
0
 10
7.85409
 20
32.898
 11
11
 21
32.898
  0
LINE
  8
0
 10
11
 20
32.898
 11
11
 21
45.5
  0
LINE
  8
0
 10
11
 20
45.5
 11
0
 21
45.5
  0
LINE
  8
0
 10
0
 20
45.5
 11
0
 21
42
  0
LINE
  8
0
 10
7.10409
 20
15.9144
 11
7.11097
 21
15.7864
  0
LINE
  8
0
 10
7.11097
 20
15.7864
 11
7.11284
 21
15.7483
  0
LINE
  8
0
 10
7.11284
 20
15.7483
 11
7.11332
 21
15.7385
  0
LINE
  8
0
 10
7.11332
 20
15.7385
 11
7.13365
 21
15.6026
  0
LINE
  8
0
 10
7.13365
 20
15.6026
 11
7.14079
 21
15.5548
  0
LINE
  8
0
 10
7.14079
 20
15.5548
 11
7.16444
 21
15.4632
  0
LINE
  8
0
 10
7.16444
 20
15.4632
 11
7.18583
 21
15.3803
  0
LINE
  8
0
 10
7.18583
 20
15.3803
 11
7.20464
 21
15.331
  0
LINE
  8
0
 10
7.20464
 20
15.331
 11
7.24732
 21
15.2192
  0
LINE
  8
0
 10
7.24732
 20
15.2192
 11
7.25384
 21
15.207
  0
LINE
  8
0
 10
7.25384
 20
15.207
 11
7.27821
 21
15.1612
  0
LINE
  8
0
 10
7.27821
 20
15.1612
 11
7.3124
 21
15.0786
  0
LINE
  8
0
 10
7.3124
 20
15.0786
 11
7.32376
 21
15.0512
  0
LINE
  8
0
 10
7.32376
 20
15.0512
 11
7.37881
 21
14.9543
  0
LINE
  8
0
 10
7.37881
 20
14.9543
 11
7.41325
 21
14.8936
  0
LINE
  8
0
 10
7.41325
 20
14.8936
 11
7.45266
 21
14.8438
  0
LINE
  8
0
 10
7.45266
 20
14.8438
 11
7.51359
 21
14.7668
  0
LINE
  8
0
 10
7.51359
 20
14.7668
 11
7.53451
 21
14.749
  0
LINE
  8
0
 10
7.53451
 20
14.749
 11
7.62232
 21
14.674
  0
LINE
  8
0
 10
7.62232
 20
14.674
 11
7.62525
 21
14.6725
  0
LINE
  8
0
 10
7.62525
 20
14.6725
 11
7.64868
 21
14.6609
  0
LINE
  8
0
 10
7.64868
 20
14.6609
 11
7.72333
 21
14.6072
  0
LINE
  8
0
 10
7.72333
 20
14.6072
 11
7.73676
 21
14.5976
  0
LINE
  8
0
 10
7.73676
 20
14.5976
 11
7.83186
 21
14.5751
  0
LINE
  8
0
 10
7.83186
 20
14.5751
 11
7.85409
 21
14.5699
  0
LINE
  8
0
 10
7.85409
 20
14.5699
 11
11
 21
14.5699
  0
LINE
  8
0
 10
11
 20
14.5699
 11
11
 21
18.4512
  0
LINE
  8
0
 10
11
 20
18.4512
 11
7.85409
 21
18.4512
  0
LINE
  8
0
 10
7.85409
 20
18.4512
 11
7.73676
 21
18.4377
  0
LINE
  8
0
 10
7.73676
 20
18.4377
 11
7.65907
 21
18.4104
  0
LINE
  8
0
 10
7.65907
 20
18.4104
 11
7.62232
 21
18.3975
  0
LINE
  8
0
 10
7.62232
 20
18.3975
 11
7.54828
 21
18.3526
  0
LINE
  8
0
 10
7.54828
 20
18.3526
 11
7.51359
 21
18.3316
  0
LINE
  8
0
 10
7.51359
 20
18.3316
 11
7.44496
 21
18.2701
  0
LINE
  8
0
 10
7.44496
 20
18.2701
 11
7.41325
 21
18.2416
  0
LINE
  8
0
 10
7.41325
 20
18.2416
 11
7.35169
 21
18.1647
  0
LINE
  8
0
 10
7.35169
 20
18.1647
 11
7.32376
 21
18.1298
  0
LINE
  8
0
 10
7.32376
 20
18.1298
 11
7.27083
 21
18.0391
  0
LINE
  8
0
 10
7.27083
 20
18.0391
 11
7.24732
 21
17.9989
  0
LINE
  8
0
 10
7.24732
 20
17.9989
 11
7.20442
 21
17.8964
  0
LINE
  8
0
 10
7.20442
 20
17.8964
 11
7.18583
 21
17.852
  0
LINE
  8
0
 10
7.18583
 20
17.852
 11
7.15415
 21
17.7401
  0
LINE
  8
0
 10
7.15415
 20
17.7401
 11
7.14079
 21
17.6929
  0
LINE
  8
0
 10
7.14079
 20
17.6929
 11
7.1213
 21
17.5742
  0
LINE
  8
0
 10
7.1213
 20
17.5742
 11
7.11332
 21
17.5255
  0
LINE
  8
0
 10
7.11332
 20
17.5255
 11
7.10671
 21
17.4026
  0
LINE
  8
0
 10
7.10671
 20
17.4026
 11
7.10409
 21
17.3538
  0
LINE
  8
0
 10
7.10409
 20
17.3538
 11
7.10409
 21
15.9144
  0
LINE
  8
0
 10
7.10409
 20
26.8644
 11
7.10753
 21
26.8005
  0
LINE
  8
0
 10
7.10753
 20
26.8005
 11
7.11332
 21
26.6928
  0
LINE
  8
0
 10
7.11332
 20
26.6928
 11
7.12373
 21
26.6293
  0
LINE
  8
0
 10
7.12373
 20
26.6293
 11
7.14079
 21
26.5253
  0
LINE
  8
0
 10
7.14079
 20
26.5253
 11
7.15813
 21
26.4641
  0
LINE
  8
0
 10
7.15813
 20
26.4641
 11
7.18583
 21
26.3662
  0
LINE
  8
0
 10
7.18583
 20
26.3662
 11
7.20985
 21
26.3089
  0
LINE
  8
0
 10
7.20985
 20
26.3089
 11
7.24732
 21
26.2194
  0
LINE
  8
0
 10
7.24732
 20
26.2194
 11
7.27757
 21
26.1676
  0
LINE
  8
0
 10
7.27757
 20
26.1676
 11
7.32376
 21
26.0885
  0
LINE
  8
0
 10
7.32376
 20
26.0885
 11
7.41325
 21
25.9766
  0
LINE
  8
0
 10
7.41325
 20
25.9766
 11
7.51359
 21
25.8867
  0
LINE
  8
0
 10
7.51359
 20
25.8867
 11
7.55785
 21
25.8598
  0
LINE
  8
0
 10
7.55785
 20
25.8598
 11
7.62232
 21
25.8208
  0
LINE
  8
0
 10
7.62232
 20
25.8208
 11
7.66913
 21
25.8043
  0
LINE
  8
0
 10
7.66913
 20
25.8043
 11
7.73676
 21
25.7806
  0
LINE
  8
0
 10
7.73676
 20
25.7806
 11
7.85409
 21
25.7671
  0
LINE
  8
0
 10
7.85409
 20
25.7671
 11
11
 21
25.7671
  0
LINE
  8
0
 10
11
 20
25.7671
 11
11
 21
29.4012
  0
LINE
  8
0
 10
11
 20
29.4012
 11
7.85409
 21
29.4012
  0
LINE
  8
0
 10
7.85409
 20
29.4012
 11
7.73676
 21
29.3877
  0
LINE
  8
0
 10
7.73676
 20
29.3877
 11
7.73595
 21
29.3874
  0
LINE
  8
0
 10
7.73595
 20
29.3874
 11
7.62232
 21
29.3475
  0
LINE
  8
0
 10
7.62232
 20
29.3475
 11
7.62123
 21
29.3468
  0
LINE
  8
0
 10
7.62123
 20
29.3468
 11
7.51359
 21
29.2816
  0
LINE
  8
0
 10
7.51359
 20
29.2816
 11
7.51209
 21
29.2802
  0
LINE
  8
0
 10
7.51209
 20
29.2802
 11
7.41325
 21
29.1916
  0
LINE
  8
0
 10
7.41325
 20
29.1916
 11
7.32376
 21
29.0798
  0
LINE
  8
0
 10
7.32376
 20
29.0798
 11
7.24732
 21
28.9488
  0
LINE
  8
0
 10
7.24732
 20
28.9488
 11
7.24489
 21
28.943
  0
LINE
  8
0
 10
7.24489
 20
28.943
 11
7.18583
 21
28.802
  0
LINE
  8
0
 10
7.18583
 20
28.802
 11
7.14079
 21
28.6429
  0
LINE
  8
0
 10
7.14079
 20
28.6429
 11
7.13908
 21
28.6325
  0
LINE
  8
0
 10
7.13908
 20
28.6325
 11
7.11332
 21
28.4755
  0
LINE
  8
0
 10
7.11332
 20
28.4755
 11
7.11263
 21
28.4627
  0
LINE
  8
0
 10
7.11263
 20
28.4627
 11
7.10409
 21
28.3038
  0
LINE
  8
0
 10
7.10409
 20
28.3038
 11
7.10409
 21
26.8644
  0
LINE
  8
0
 10
36.5
 20
0
 11
47.5
 21
0
  0
LINE
  8
0
 10
47.5
 20
0
 11
47.5
 21
3.5
  0
LINE
  8
0
 10
47.5
 20
3.5
 11
47
 21
4
  0
LINE
  8
0
 10
47
 20
4
 11
41.8959
 21
4
  0
LINE
  8
0
 10
41.8959
 20
4
 11
40.3959
 21
5.5
  0
LINE
  8
0
 10
40.3959
 20
5.5
 11
40.3959
 21
11.3496
  0
LINE
  8
0
 10
40.3959
 20
11.3496
 11
40.3939
 21
11.3843
  0
LINE
  8
0
 10
40.3939
 20
11.3843
 11
40.3867
 21
11.5097
  0
LINE
  8
0
 10
40.3867
 20
11.5097
 11
40.3858
 21
11.5146
  0
LINE
  8
0
 10
40.3858
 20
11.5146
 11
40.3822
 21
11.5354
  0
LINE
  8
0
 10
40.3822
 20
11.5354
 11
40.3641
 21
11.6589
  0
LINE
  8
0
 10
40.3641
 20
11.6589
 11
40.3592
 21
11.6923
  0
LINE
  8
0
 10
40.3592
 20
11.6923
 11
40.332
 21
11.8002
  0
LINE
  8
0
 10
40.332
 20
11.8002
 11
40.3142
 21
11.8706
  0
LINE
  8
0
 10
40.3142
 20
11.8706
 11
40.2906
 21
11.9337
  0
LINE
  8
0
 10
40.2906
 20
11.9337
 11
40.2527
 21
12.0352
  0
LINE
  8
0
 10
40.2527
 20
12.0352
 11
40.2404
 21
12.0588
  0
LINE
  8
0
 10
40.2404
 20
12.0588
 11
40.1959
 21
12.1443
  0
LINE
  8
0
 10
40.1959
 20
12.1443
 11
40.1813
 21
12.1806
  0
LINE
  8
0
 10
40.1813
 20
12.1806
 11
40.1762
 21
12.1932
  0
LINE
  8
0
 10
40.1762
 20
12.1932
 11
40.114
 21
12.3063
  0
LINE
  8
0
 10
40.114
 20
12.3063
 11
40.0868
 21
12.3558
  0
LINE
  8
0
 10
40.0868
 20
12.3558
 11
40.0394
 21
12.4175
  0
LINE
  8
0
 10
40.0394
 20
12.4175
 11
39.9864
 21
12.4866
  0
LINE
  8
0
 10
39.9864
 20
12.4866
 11
39.957
 21
12.5125
  0
LINE
  8
0
 10
39.957
 20
12.5125
 11
39.8777
 21
12.5824
  0
LINE
  8
0
 10
39.8777
 20
12.5824
 11
39.8657
 21
12.5885
  0
LINE
  8
0
 10
39.8657
 20
12.5885
 11
39.7738
 21
12.6354
  0
LINE
  8
0
 10
39.7738
 20
12.6354
 11
39.7649
 21
12.6421
  0
LINE
  8
0
 10
39.7649
 20
12.6421
 11
39.7632
 21
12.6434
  0
LINE
  8
0
 10
39.7632
 20
12.6434
 11
39.655
 21
12.6702
  0
LINE
  8
0
 10
39.655
 20
12.6702
 11
39.6459
 21
12.6725
  0
LINE
  8
0
 10
39.6459
 20
12.6725
 11
36.5
 21
12.6725
  0
LINE
  8
0
 10
36.5
 20
12.6725
 11
36.5
 21
0
  0
LINE
  8
0
 10
36.5
 20
14.5699
 11
39.6459
 21
14.5699
  0
LINE
  8
0
 10
39.6459
 20
14.5699
 11
39.7457
 21
14.5934
  0
LINE
  8
0
 10
39.7457
 20
14.5934
 11
39.7632
 21
14.5976
  0
LINE
  8
0
 10
39.7632
 20
14.5976
 11
39.8513
 21
14.6609
  0
LINE
  8
0
 10
39.8513
 20
14.6609
 11
39.8777
 21
14.674
  0
LINE
  8
0
 10
39.8777
 20
14.674
 11
39.8815
 21
14.6772
  0
LINE
  8
0
 10
39.8815
 20
14.6772
 11
39.9864
 21
14.7668
  0
LINE
  8
0
 10
39.9864
 20
14.7668
 11
40.0168
 21
14.8052
  0
LINE
  8
0
 10
40.0168
 20
14.8052
 11
40.0868
 21
14.8936
  0
LINE
  8
0
 10
40.0868
 20
14.8936
 11
40.1493
 21
15.0037
  0
LINE
  8
0
 10
40.1493
 20
15.0037
 11
40.1762
 21
15.0512
  0
LINE
  8
0
 10
40.1762
 20
15.0512
 11
40.2218
 21
15.1612
  0
LINE
  8
0
 10
40.2218
 20
15.1612
 11
40.2527
 21
15.2192
  0
LINE
  8
0
 10
40.2527
 20
15.2192
 11
40.2613
 21
15.2418
  0
LINE
  8
0
 10
40.2613
 20
15.2418
 11
40.3142
 21
15.3803
  0
LINE
  8
0
 10
40.3142
 20
15.3803
 11
40.3375
 21
15.4709
  0
LINE
  8
0
 10
40.3375
 20
15.4709
 11
40.3592
 21
15.5548
  0
LINE
  8
0
 10
40.3592
 20
15.5548
 11
40.384
 21
15.7208
  0
LINE
  8
0
 10
40.384
 20
15.7208
 11
40.3867
 21
15.7385
  0
LINE
  8
0
 10
40.3867
 20
15.7385
 11
40.389
 21
15.7864
  0
LINE
  8
0
 10
40.389
 20
15.7864
 11
40.3958
 21
15.9129
  0
LINE
  8
0
 10
40.3958
 20
15.9129
 11
40.3959
 21
15.9144
  0
LINE
  8
0
 10
40.3959
 20
15.9144
 11
40.3959
 21
17.3538
  0
LINE
  8
0
 10
40.3959
 20
17.3538
 11
40.3893
 21
17.4762
  0
LINE
  8
0
 10
40.3893
 20
17.4762
 11
40.3867
 21
17.5255
  0
LINE
  8
0
 10
40.3867
 20
17.5255
 11
40.3673
 21
17.6439
  0
LINE
  8
0
 10
40.3673
 20
17.6439
 11
40.3592
 21
17.6929
  0
LINE
  8
0
 10
40.3592
 20
17.6929
 11
40.3276
 21
17.8045
  0
LINE
  8
0
 10
40.3276
 20
17.8045
 11
40.3142
 21
17.852
  0
LINE
  8
0
 10
40.3142
 20
17.852
 11
40.2714
 21
17.9542
  0
LINE
  8
0
 10
40.2714
 20
17.9542
 11
40.2527
 21
17.9989
  0
LINE
  8
0
 10
40.2527
 20
17.9989
 11
40.1999
 21
18.0893
  0
LINE
  8
0
 10
40.1999
 20
18.0893
 11
40.1762
 21
18.1298
  0
LINE
  8
0
 10
40.1762
 20
18.1298
 11
40.1148
 21
18.2066
  0
LINE
  8
0
 10
40.1148
 20
18.2066
 11
40.0868
 21
18.2416
  0
LINE
  8
0
 10
40.0868
 20
18.2416
 11
40.0182
 21
18.3031
  0
LINE
  8
0
 10
40.0182
 20
18.3031
 11
39.9864
 21
18.3316
  0
LINE
  8
0
 10
39.9864
 20
18.3316
 11
39.9125
 21
18.3764
  0
LINE
  8
0
 10
39.9125
 20
18.3764
 11
39.8777
 21
18.3975
  0
LINE
  8
0
 10
39.8777
 20
18.3975
 11
39.8
 21
18.4248
  0
LINE
  8
0
 10
39.8
 20
18.4248
 11
39.7632
 21
18.4377
  0
LINE
  8
0
 10
39.7632
 20
18.4377
 11
39.6459
 21
18.4512
  0
LINE
  8
0
 10
39.6459
 20
18.4512
 11
36.5
 21
18.4512
  0
LINE
  8
0
 10
36.5
 20
18.4512
 11
36.5
 21
14.5699
  0
LINE
  8
0
 10
36.5
 20
25.7671
 11
39.6459
 21
25.7671
  0
LINE
  8
0
 10
39.6459
 20
25.7671
 11
39.7632
 21
25.7806
  0
LINE
  8
0
 10
39.7632
 20
25.7806
 11
39.8101
 21
25.797
  0
LINE
  8
0
 10
39.8101
 20
25.797
 11
39.8777
 21
25.8208
  0
LINE
  8
0
 10
39.8777
 20
25.8208
 11
39.922
 21
25.8476
  0
LINE
  8
0
 10
39.922
 20
25.8476
 11
39.9864
 21
25.8867
  0
LINE
  8
0
 10
39.9864
 20
25.8867
 11
40.0868
 21
25.9766
  0
LINE
  8
0
 10
40.0868
 20
25.9766
 11
40.1762
 21
26.0885
  0
LINE
  8
0
 10
40.1762
 20
26.0885
 11
40.2066
 21
26.1404
  0
LINE
  8
0
 10
40.2066
 20
26.1404
 11
40.2527
 21
26.2194
  0
LINE
  8
0
 10
40.2527
 20
26.2194
 11
40.2768
 21
26.2769
  0
LINE
  8
0
 10
40.2768
 20
26.2769
 11
40.3142
 21
26.3662
  0
LINE
  8
0
 10
40.3142
 20
26.3662
 11
40.3316
 21
26.4277
  0
LINE
  8
0
 10
40.3316
 20
26.4277
 11
40.3592
 21
26.5253
  0
LINE
  8
0
 10
40.3592
 20
26.5253
 11
40.3697
 21
26.589
  0
LINE
  8
0
 10
40.3697
 20
26.589
 11
40.3867
 21
26.6928
  0
LINE
  8
0
 10
40.3867
 20
26.6928
 11
40.3901
 21
26.757
  0
LINE
  8
0
 10
40.3901
 20
26.757
 11
40.3959
 21
26.8644
  0
LINE
  8
0
 10
40.3959
 20
26.8644
 11
40.3959
 21
28.3038
  0
LINE
  8
0
 10
40.3959
 20
28.3038
 11
40.3951
 21
28.3184
  0
LINE
  8
0
 10
40.3951
 20
28.3184
 11
40.3867
 21
28.4755
  0
LINE
  8
0
 10
40.3867
 20
28.4755
 11
40.3847
 21
28.4877
  0
LINE
  8
0
 10
40.3847
 20
28.4877
 11
40.3592
 21
28.6429
  0
LINE
  8
0
 10
40.3592
 20
28.6429
 11
40.3142
 21
28.802
  0
LINE
  8
0
 10
40.3142
 20
28.802
 11
40.3111
 21
28.8093
  0
LINE
  8
0
 10
40.3111
 20
28.8093
 11
40.2527
 21
28.9488
  0
LINE
  8
0
 10
40.2527
 20
28.9488
 11
40.1762
 21
29.0798
  0
LINE
  8
0
 10
40.1762
 20
29.0798
 11
40.0868
 21
29.1916
  0
LINE
  8
0
 10
40.0868
 20
29.1916
 11
40.0846
 21
29.1935
  0
LINE
  8
0
 10
40.0846
 20
29.1935
 11
39.9864
 21
29.2816
  0
LINE
  8
0
 10
39.9864
 20
29.2816
 11
39.9848
 21
29.2826
  0
LINE
  8
0
 10
39.9848
 20
29.2826
 11
39.8777
 21
29.3475
  0
LINE
  8
0
 10
39.8777
 20
29.3475
 11
39.8765
 21
29.3479
  0
LINE
  8
0
 10
39.8765
 20
29.3479
 11
39.7632
 21
29.3877
  0
LINE
  8
0
 10
39.7632
 20
29.3877
 11
39.6459
 21
29.4012
  0
LINE
  8
0
 10
39.6459
 20
29.4012
 11
36.5
 21
29.4012
  0
LINE
  8
0
 10
36.5
 20
29.4012
 11
36.5
 21
25.7671
  0
LINE
  8
0
 10
36.5
 20
32.898
 11
39.6459
 21
32.898
  0
LINE
  8
0
 10
39.6459
 20
32.898
 11
39.7339
 21
32.9075
  0
LINE
  8
0
 10
39.7339
 20
32.9075
 11
39.7632
 21
32.9106
  0
LINE
  8
0
 10
39.7632
 20
32.9106
 11
39.8431
 21
32.9368
  0
LINE
  8
0
 10
39.8431
 20
32.9368
 11
39.8777
 21
32.9481
  0
LINE
  8
0
 10
39.8777
 20
32.9481
 11
39.9444
 21
32.9859
  0
LINE
  8
0
 10
39.9444
 20
32.9859
 11
39.9864
 21
33.0096
  0
LINE
  8
0
 10
39.9864
 20
33.0096
 11
40.0371
 21
33.052
  0
LINE
  8
0
 10
40.0371
 20
33.052
 11
40.0868
 21
33.0936
  0
LINE
  8
0
 10
40.0868
 20
33.0936
 11
40.1206
 21
33.1331
  0
LINE
  8
0
 10
40.1206
 20
33.1331
 11
40.1762
 21
33.1979
  0
LINE
  8
0
 10
40.1762
 20
33.1979
 11
40.1946
 21
33.2273
  0
LINE
  8
0
 10
40.1946
 20
33.2273
 11
40.2527
 21
33.3201
  0
LINE
  8
0
 10
40.2527
 20
33.3201
 11
40.2585
 21
33.3331
  0
LINE
  8
0
 10
40.2585
 20
33.3331
 11
40.2913
 21
33.4062
  0
LINE
  8
0
 10
40.2913
 20
33.4062
 11
40.311
 21
33.4446
  0
LINE
  8
0
 10
40.311
 20
33.4446
 11
40.3142
 21
33.4508
  0
LINE
  8
0
 10
40.3142
 20
33.4508
 11
40.3505
 21
33.5557
  0
LINE
  8
0
 10
40.3505
 20
33.5557
 11
40.3592
 21
33.581
  0
LINE
  8
0
 10
40.3592
 20
33.581
 11
40.3775
 21
33.6724
  0
LINE
  8
0
 10
40.3775
 20
33.6724
 11
40.3867
 21
33.718
  0
LINE
  8
0
 10
40.3867
 20
33.718
 11
40.3916
 21
33.793
  0
LINE
  8
0
 10
40.3916
 20
33.793
 11
40.3959
 21
33.8584
  0
LINE
  8
0
 10
40.3959
 20
33.8584
 11
40.3959
 21
40
  0
LINE
  8
0
 10
40.3959
 20
40
 11
41.8959
 21
41.5
  0
LINE
  8
0
 10
41.8959
 20
41.5
 11
47
 21
41.5
  0
LINE
  8
0
 10
47
 20
41.5
 11
47.5
 21
42
  0
LINE
  8
0
 10
47.5
 20
42
 11
47.5
 21
45.5
  0
LINE
  8
0
 10
47.5
 20
45.5
 11
36.5
 21
45.5
  0
LINE
  8
0
 10
36.5
 20
45.5
 11
36.5
 21
32.898
  0
ENDSEC
  0
SECTION
  2
OBJECTS
  0
DICTIONARY
  0
ENDSEC
  0
EOF
