  0
SECTION
  2
BLOCKS
  0
ENDSEC
  0
SECTION
  2
ENTITIES
  0
LINE
  8
0
 10
0
 20
0
 11
11
 21
0
  0
LINE
  8
0
 10
11
 20
0
 11
11
 21
17.9172
  0
LINE
  8
0
 10
11
 20
17.9172
 11
7.85409
 21
17.9172
  0
LINE
  8
0
 10
7.85409
 20
17.9172
 11
7.73676
 21
17.9036
  0
LINE
  8
0
 10
7.73676
 20
17.9036
 11
7.65488
 21
17.8749
  0
LINE
  8
0
 10
7.65488
 20
17.8749
 11
7.62232
 21
17.8634
  0
LINE
  8
0
 10
7.62232
 20
17.8634
 11
7.54429
 21
17.8162
  0
LINE
  8
0
 10
7.54429
 20
17.8162
 11
7.51359
 21
17.7975
  0
LINE
  8
0
 10
7.51359
 20
17.7975
 11
7.44127
 21
17.7327
  0
LINE
  8
0
 10
7.44127
 20
17.7327
 11
7.41325
 21
17.7076
  0
LINE
  8
0
 10
7.41325
 20
17.7076
 11
7.3484
 21
17.6265
  0
LINE
  8
0
 10
7.3484
 20
17.6265
 11
7.32376
 21
17.5957
  0
LINE
  8
0
 10
7.32376
 20
17.5957
 11
7.26802
 21
17.5003
  0
LINE
  8
0
 10
7.26802
 20
17.5003
 11
7.24732
 21
17.4648
  0
LINE
  8
0
 10
7.24732
 20
17.4648
 11
7.20216
 21
17.357
  0
LINE
  8
0
 10
7.20216
 20
17.357
 11
7.18583
 21
17.318
  0
LINE
  8
0
 10
7.18583
 20
17.318
 11
7.1525
 21
17.2002
  0
LINE
  8
0
 10
7.1525
 20
17.2002
 11
7.14079
 21
17.1589
  0
LINE
  8
0
 10
7.14079
 20
17.1589
 11
7.12029
 21
17.0339
  0
LINE
  8
0
 10
7.12029
 20
17.0339
 11
7.11332
 21
16.9914
  0
LINE
  8
0
 10
7.11332
 20
16.9914
 11
7.10637
 21
16.8623
  0
LINE
  8
0
 10
7.10637
 20
16.8623
 11
7.10409
 21
16.8198
  0
LINE
  8
0
 10
7.10409
 20
16.8198
 11
7.10409
 21
15.2391
  0
LINE
  8
0
 10
7.10409
 20
15.2391
 11
7.10814
 21
15.133
  0
LINE
  8
0
 10
7.10814
 20
15.133
 11
7.11332
 21
14.9972
  0
LINE
  8
0
 10
7.11332
 20
14.9972
 11
7.11726
 21
14.9633
  0
LINE
  8
0
 10
7.11726
 20
14.9633
 11
7.12635
 21
14.8853
  0
LINE
  8
0
 10
7.12635
 20
14.8853
 11
7.13534
 21
14.7731
  0
LINE
  8
0
 10
7.13534
 20
14.7731
 11
7.14079
 21
14.705
  0
LINE
  8
0
 10
7.14079
 20
14.705
 11
7.15964
 21
14.5687
  0
LINE
  8
0
 10
7.15964
 20
14.5687
 11
7.18583
 21
14.3793
  0
LINE
  8
0
 10
7.18583
 20
14.3793
 11
7.18724
 21
14.3724
  0
LINE
  8
0
 10
7.18724
 20
14.3724
 11
7.18947
 21
14.3615
  0
LINE
  8
0
 10
7.18947
 20
14.3615
 11
7.21615
 21
14.1105
  0
LINE
  8
0
 10
7.21615
 20
14.1105
 11
7.24049
 21
13.8816
  0
LINE
  8
0
 10
7.24049
 20
13.8816
 11
7.24076
 21
13.8302
  0
LINE
  8
0
 10
7.24076
 20
13.8302
 11
7.2429
 21
13.4161
  0
LINE
  8
0
 10
7.2429
 20
13.4161
 11
7.22959
 21
13.2776
  0
LINE
  8
0
 10
7.22959
 20
13.2776
 11
7.19704
 21
12.9389
  0
LINE
  8
0
 10
7.19704
 20
12.9389
 11
7.18583
 21
12.8813
  0
LINE
  8
0
 10
7.18583
 20
12.8813
 11
7.17052
 21
12.765
  0
LINE
  8
0
 10
7.17052
 20
12.765
 11
7.14079
 21
12.5392
  0
LINE
  8
0
 10
7.14079
 20
12.5392
 11
7.13178
 21
12.4211
  0
LINE
  8
0
 10
7.13178
 20
12.4211
 11
7.11332
 21
12.2575
  0
LINE
  8
0
 10
7.11332
 20
12.2575
 11
7.10878
 21
12.1347
  0
LINE
  8
0
 10
7.10878
 20
12.1347
 11
7.10409
 21
12.008
  0
LINE
  8
0
 10
7.10409
 20
12.008
 11
7.10409
 21
5.5
  0
LINE
  8
0
 10
7.10409
 20
5.5
 11
5.60409
 21
4
  0
LINE
  8
0
 10
5.60409
 20
4
 11
0.499999
 21
4
  0
LINE
  8
0
 10
0.499999
 20
4
 11
0
 21
3.5
  0
LINE
  8
0
 10
0
 20
3.5
 11
0
 21
0
  0
LINE
  8
0
 10
0
 20
42
 11
0.499999
 21
41.5
  0
LINE
  8
0
 10
0.499999
 20
41.5
 11
5.60409
 21
41.5
  0
LINE
  8
0
 10
5.60409
 20
41.5
 11
7.10409
 21
40
  0
LINE
  8
0
 10
7.10409
 20
40
 11
7.10409
 21
34.1288
  0
LINE
  8
0
 10
7.10409
 20
34.1288
 11
7.1084
 21
34.069
  0
LINE
  8
0
 10
7.1084
 20
34.069
 11
7.11332
 21
34.0006
  0
LINE
  8
0
 10
7.11332
 20
34.0006
 11
7.12921
 21
33.9283
  0
LINE
  8
0
 10
7.12921
 20
33.9283
 11
7.14079
 21
33.8756
  0
LINE
  8
0
 10
7.14079
 20
33.8756
 11
7.17205
 21
33.7932
  0
LINE
  8
0
 10
7.17205
 20
33.7932
 11
7.18583
 21
33.7568
  0
LINE
  8
0
 10
7.18583
 20
33.7568
 11
7.23556
 21
33.6682
  0
LINE
  8
0
 10
7.23556
 20
33.6682
 11
7.24732
 21
33.6472
  0
LINE
  8
0
 10
7.24732
 20
33.6472
 11
7.31745
 21
33.5575
  0
LINE
  8
0
 10
7.31745
 20
33.5575
 11
7.32376
 21
33.5495
  0
LINE
  8
0
 10
7.32376
 20
33.5495
 11
7.3997
 21
33.4786
  0
LINE
  8
0
 10
7.3997
 20
33.4786
 11
7.41325
 21
33.4648
  0
LINE
  8
0
 10
7.41325
 20
33.4648
 11
7.41497
 21
33.4635
  0
LINE
  8
0
 10
7.41497
 20
33.4635
 11
7.51359
 21
33.3912
  0
LINE
  8
0
 10
7.51359
 20
33.3912
 11
7.52534
 21
33.3853
  0
LINE
  8
0
 10
7.52534
 20
33.3853
 11
7.62232
 21
33.3373
  0
LINE
  8
0
 10
7.62232
 20
33.3373
 11
7.64202
 21
33.3316
  0
LINE
  8
0
 10
7.64202
 20
33.3316
 11
7.73676
 21
33.3044
  0
LINE
  8
0
 10
7.73676
 20
33.3044
 11
7.76109
 21
33.3021
  0
LINE
  8
0
 10
7.76109
 20
33.3021
 11
7.85409
 21
33.2933
  0
LINE
  8
0
 10
7.85409
 20
33.2933
 11
11
 21
33.2933
  0
LINE
  8
0
 10
11
 20
33.2933
 11
11
 21
45.5
  0
LINE
  8
0
 10
11
 20
45.5
 11
0
 21
45.5
  0
LINE
  8
0
 10
0
 20
45.5
 11
0
 21
42
  0
LINE
  8
0
 10
7.10409
 20
26.3304
 11
7.10787
 21
26.2601
  0
LINE
  8
0
 10
7.10787
 20
26.2601
 11
7.11332
 21
26.1587
  0
LINE
  8
0
 10
7.11332
 20
26.1587
 11
7.12474
 21
26.0891
  0
LINE
  8
0
 10
7.12474
 20
26.0891
 11
7.14079
 21
25.9913
  0
LINE
  8
0
 10
7.14079
 20
25.9913
 11
7.15979
 21
25.9242
  0
LINE
  8
0
 10
7.15979
 20
25.9242
 11
7.18583
 21
25.8322
  0
LINE
  8
0
 10
7.18583
 20
25.8322
 11
7.21211
 21
25.7694
  0
LINE
  8
0
 10
7.21211
 20
25.7694
 11
7.24732
 21
25.6854
  0
LINE
  8
0
 10
7.24732
 20
25.6854
 11
7.28038
 21
25.6287
  0
LINE
  8
0
 10
7.28038
 20
25.6287
 11
7.32376
 21
25.5544
  0
LINE
  8
0
 10
7.32376
 20
25.5544
 11
7.41325
 21
25.4426
  0
LINE
  8
0
 10
7.41325
 20
25.4426
 11
7.51359
 21
25.3526
  0
LINE
  8
0
 10
7.51359
 20
25.3526
 11
7.56183
 21
25.3234
  0
LINE
  8
0
 10
7.56183
 20
25.3234
 11
7.62232
 21
25.2867
  0
LINE
  8
0
 10
7.62232
 20
25.2867
 11
7.67332
 21
25.2688
  0
LINE
  8
0
 10
7.67332
 20
25.2688
 11
7.73676
 21
25.2465
  0
LINE
  8
0
 10
7.73676
 20
25.2465
 11
7.85409
 21
25.233
  0
LINE
  8
0
 10
7.85409
 20
25.233
 11
11
 21
25.233
  0
LINE
  8
0
 10
11
 20
25.233
 11
11
 21
28.8671
  0
LINE
  8
0
 10
11
 20
28.8671
 11
7.85409
 21
28.8671
  0
LINE
  8
0
 10
7.85409
 20
28.8671
 11
7.73676
 21
28.8536
  0
LINE
  8
0
 10
7.73676
 20
28.8536
 11
7.72755
 21
28.8504
  0
LINE
  8
0
 10
7.72755
 20
28.8504
 11
7.62232
 21
28.8134
  0
LINE
  8
0
 10
7.62232
 20
28.8134
 11
7.61323
 21
28.8079
  0
LINE
  8
0
 10
7.61323
 20
28.8079
 11
7.51359
 21
28.7475
  0
LINE
  8
0
 10
7.51359
 20
28.7475
 11
7.5047
 21
28.7396
  0
LINE
  8
0
 10
7.5047
 20
28.7396
 11
7.41325
 21
28.6576
  0
LINE
  8
0
 10
7.41325
 20
28.6576
 11
7.32376
 21
28.5457
  0
LINE
  8
0
 10
7.32376
 20
28.5457
 11
7.24732
 21
28.4148
  0
LINE
  8
0
 10
7.24732
 20
28.4148
 11
7.24034
 21
28.3981
  0
LINE
  8
0
 10
7.24034
 20
28.3981
 11
7.18583
 21
28.268
  0
LINE
  8
0
 10
7.18583
 20
28.268
 11
7.14079
 21
28.1089
  0
LINE
  8
0
 10
7.14079
 20
28.1089
 11
7.13705
 21
28.0861
  0
LINE
  8
0
 10
7.13705
 20
28.0861
 11
7.11332
 21
27.9414
  0
LINE
  8
0
 10
7.11332
 20
27.9414
 11
7.11195
 21
27.9159
  0
LINE
  8
0
 10
7.11195
 20
27.9159
 11
7.10409
 21
27.7698
  0
LINE
  8
0
 10
7.10409
 20
27.7698
 11
7.10409
 21
26.3304
  0
LINE
  8
0
 10
36.5
 20
0
 11
47.5
 21
0
  0
LINE
  8
0
 10
47.5
 20
0
 11
47.5
 21
3.5
  0
LINE
  8
0
 10
47.5
 20
3.5
 11
47
 21
4
  0
LINE
  8
0
 10
47
 20
4
 11
41.8959
 21
4
  0
LINE
  8
0
 10
41.8959
 20
4
 11
40.3959
 21
5.5
  0
LINE
  8
0
 10
40.3959
 20
5.5
 11
40.3959
 21
12.008
  0
LINE
  8
0
 10
40.3959
 20
12.008
 11
40.3912
 21
12.1352
  0
LINE
  8
0
 10
40.3912
 20
12.1352
 11
40.3867
 21
12.2575
  0
LINE
  8
0
 10
40.3867
 20
12.2575
 11
40.3809
 21
12.3083
  0
LINE
  8
0
 10
40.3809
 20
12.3083
 11
40.3682
 21
12.4211
  0
LINE
  8
0
 10
40.3682
 20
12.4211
 11
40.3627
 21
12.493
  0
LINE
  8
0
 10
40.3627
 20
12.493
 11
40.3592
 21
12.5392
  0
LINE
  8
0
 10
40.3592
 20
12.5392
 11
40.3376
 21
12.7029
  0
LINE
  8
0
 10
40.3376
 20
12.7029
 11
40.3142
 21
12.8813
  0
LINE
  8
0
 10
40.3142
 20
12.8813
 11
40.3097
 21
12.9043
  0
LINE
  8
0
 10
40.3097
 20
12.9043
 11
40.303
 21
12.9389
  0
LINE
  8
0
 10
40.303
 20
12.9389
 11
40.2811
 21
13.1666
  0
LINE
  8
0
 10
40.2811
 20
13.1666
 11
40.2571
 21
13.4161
  0
LINE
  8
0
 10
40.2571
 20
13.4161
 11
40.2573
 21
13.4521
  0
LINE
  8
0
 10
40.2573
 20
13.4521
 11
40.2595
 21
13.8816
  0
LINE
  8
0
 10
40.2595
 20
13.8816
 11
40.2932
 21
14.1984
  0
LINE
  8
0
 10
40.2932
 20
14.1984
 11
40.3105
 21
14.3615
  0
LINE
  8
0
 10
40.3105
 20
14.3615
 11
40.3142
 21
14.3793
  0
LINE
  8
0
 10
40.3142
 20
14.3793
 11
40.3184
 21
14.4101
  0
LINE
  8
0
 10
40.3184
 20
14.4101
 11
40.3592
 21
14.705
  0
LINE
  8
0
 10
40.3592
 20
14.705
 11
40.3736
 21
14.8853
  0
LINE
  8
0
 10
40.3736
 20
14.8853
 11
40.3867
 21
14.9972
  0
LINE
  8
0
 10
40.3867
 20
14.9972
 11
40.3897
 21
15.0758
  0
LINE
  8
0
 10
40.3897
 20
15.0758
 11
40.3959
 21
15.2391
  0
LINE
  8
0
 10
40.3959
 20
15.2391
 11
40.3959
 21
16.8198
  0
LINE
  8
0
 10
40.3959
 20
16.8198
 11
40.389
 21
16.9484
  0
LINE
  8
0
 10
40.389
 20
16.9484
 11
40.3867
 21
16.9914
  0
LINE
  8
0
 10
40.3867
 20
16.9914
 11
40.3663
 21
17.1159
  0
LINE
  8
0
 10
40.3663
 20
17.1159
 11
40.3592
 21
17.1589
  0
LINE
  8
0
 10
40.3592
 20
17.1589
 11
40.326
 21
17.2762
  0
LINE
  8
0
 10
40.326
 20
17.2762
 11
40.3142
 21
17.318
  0
LINE
  8
0
 10
40.3142
 20
17.318
 11
40.2692
 21
17.4254
  0
LINE
  8
0
 10
40.2692
 20
17.4254
 11
40.2527
 21
17.4648
  0
LINE
  8
0
 10
40.2527
 20
17.4648
 11
40.1971
 21
17.56
  0
LINE
  8
0
 10
40.1971
 20
17.56
 11
40.1762
 21
17.5957
  0
LINE
  8
0
 10
40.1762
 20
17.5957
 11
40.1116
 21
17.6766
  0
LINE
  8
0
 10
40.1116
 20
17.6766
 11
40.0868
 21
17.7076
  0
LINE
  8
0
 10
40.0868
 20
17.7076
 11
40.0146
 21
17.7723
  0
LINE
  8
0
 10
40.0146
 20
17.7723
 11
39.9864
 21
17.7975
  0
LINE
  8
0
 10
39.9864
 20
17.7975
 11
39.9085
 21
17.8448
  0
LINE
  8
0
 10
39.9085
 20
17.8448
 11
39.8777
 21
17.8634
  0
LINE
  8
0
 10
39.8777
 20
17.8634
 11
39.7959
 21
17.8922
  0
LINE
  8
0
 10
39.7959
 20
17.8922
 11
39.7632
 21
17.9036
  0
LINE
  8
0
 10
39.7632
 20
17.9036
 11
39.6459
 21
17.9172
  0
LINE
  8
0
 10
39.6459
 20
17.9172
 11
36.5
 21
17.9172
  0
LINE
  8
0
 10
36.5
 20
17.9172
 11
36.5
 21
0
  0
LINE
  8
0
 10
36.5
 20
25.233
 11
39.6459
 21
25.233
  0
LINE
  8
0
 10
39.6459
 20
25.233
 11
39.7632
 21
25.2465
  0
LINE
  8
0
 10
39.7632
 20
25.2465
 11
39.8143
 21
25.2644
  0
LINE
  8
0
 10
39.8143
 20
25.2644
 11
39.8777
 21
25.2867
  0
LINE
  8
0
 10
39.8777
 20
25.2867
 11
39.9259
 21
25.316
  0
LINE
  8
0
 10
39.9259
 20
25.316
 11
39.9864
 21
25.3526
  0
LINE
  8
0
 10
39.9864
 20
25.3526
 11
40.0868
 21
25.4426
  0
LINE
  8
0
 10
40.0868
 20
25.4426
 11
40.1762
 21
25.5544
  0
LINE
  8
0
 10
40.1762
 20
25.5544
 11
40.2093
 21
25.6111
  0
LINE
  8
0
 10
40.2093
 20
25.6111
 11
40.2527
 21
25.6854
  0
LINE
  8
0
 10
40.2527
 20
25.6854
 11
40.279
 21
25.7482
  0
LINE
  8
0
 10
40.279
 20
25.7482
 11
40.3142
 21
25.8322
  0
LINE
  8
0
 10
40.3142
 20
25.8322
 11
40.3332
 21
25.8994
  0
LINE
  8
0
 10
40.3332
 20
25.8994
 11
40.3592
 21
25.9913
  0
LINE
  8
0
 10
40.3592
 20
25.9913
 11
40.3707
 21
26.061
  0
LINE
  8
0
 10
40.3707
 20
26.061
 11
40.3867
 21
26.1587
  0
LINE
  8
0
 10
40.3867
 20
26.1587
 11
40.3905
 21
26.2292
  0
LINE
  8
0
 10
40.3905
 20
26.2292
 11
40.3959
 21
26.3304
  0
LINE
  8
0
 10
40.3959
 20
26.3304
 11
40.3959
 21
27.7698
  0
LINE
  8
0
 10
40.3959
 20
27.7698
 11
40.3945
 21
27.7968
  0
LINE
  8
0
 10
40.3945
 20
27.7968
 11
40.3867
 21
27.9414
  0
LINE
  8
0
 10
40.3867
 20
27.9414
 11
40.3827
 21
27.9657
  0
LINE
  8
0
 10
40.3827
 20
27.9657
 11
40.3592
 21
28.1089
  0
LINE
  8
0
 10
40.3592
 20
28.1089
 11
40.3142
 21
28.268
  0
LINE
  8
0
 10
40.3142
 20
28.268
 11
40.3067
 21
28.2858
  0
LINE
  8
0
 10
40.3067
 20
28.2858
 11
40.2527
 21
28.4148
  0
LINE
  8
0
 10
40.2527
 20
28.4148
 11
40.1762
 21
28.5457
  0
LINE
  8
0
 10
40.1762
 20
28.5457
 11
40.0868
 21
28.6576
  0
LINE
  8
0
 10
40.0868
 20
28.6576
 11
40.0773
 21
28.666
  0
LINE
  8
0
 10
40.0773
 20
28.666
 11
39.9864
 21
28.7475
  0
LINE
  8
0
 10
39.9864
 20
28.7475
 11
39.9769
 21
28.7533
  0
LINE
  8
0
 10
39.9769
 20
28.7533
 11
39.8777
 21
28.8134
  0
LINE
  8
0
 10
39.8777
 20
28.8134
 11
39.8682
 21
28.8168
  0
LINE
  8
0
 10
39.8682
 20
28.8168
 11
39.7632
 21
28.8536
  0
LINE
  8
0
 10
39.7632
 20
28.8536
 11
39.6459
 21
28.8671
  0
LINE
  8
0
 10
39.6459
 20
28.8671
 11
36.5
 21
28.8671
  0
LINE
  8
0
 10
36.5
 20
28.8671
 11
36.5
 21
25.233
  0
LINE
  8
0
 10
36.5
 20
33.2933
 11
39.6459
 21
33.2933
  0
LINE
  8
0
 10
39.6459
 20
33.2933
 11
39.671
 21
33.2957
  0
LINE
  8
0
 10
39.671
 20
33.2957
 11
39.7632
 21
33.3044
  0
LINE
  8
0
 10
39.7632
 20
33.3044
 11
39.7855
 21
33.3108
  0
LINE
  8
0
 10
39.7855
 20
33.3108
 11
39.8777
 21
33.3373
  0
LINE
  8
0
 10
39.8777
 20
33.3373
 11
39.8941
 21
33.3454
  0
LINE
  8
0
 10
39.8941
 20
33.3454
 11
39.9864
 21
33.3912
  0
LINE
  8
0
 10
39.9864
 20
33.3912
 11
39.9954
 21
33.3978
  0
LINE
  8
0
 10
39.9954
 20
33.3978
 11
40.0868
 21
33.4648
  0
LINE
  8
0
 10
40.0868
 20
33.4648
 11
40.088
 21
33.466
  0
LINE
  8
0
 10
40.088
 20
33.466
 11
40.1003
 21
33.4786
  0
LINE
  8
0
 10
40.1003
 20
33.4786
 11
40.1698
 21
33.5435
  0
LINE
  8
0
 10
40.1698
 20
33.5435
 11
40.1762
 21
33.5495
  0
LINE
  8
0
 10
40.1762
 20
33.5495
 11
40.2401
 21
33.6311
  0
LINE
  8
0
 10
40.2401
 20
33.6311
 11
40.2527
 21
33.6472
  0
LINE
  8
0
 10
40.2527
 20
33.6472
 11
40.2981
 21
33.7282
  0
LINE
  8
0
 10
40.2981
 20
33.7282
 11
40.3142
 21
33.7568
  0
LINE
  8
0
 10
40.3142
 20
33.7568
 11
40.3431
 21
33.8331
  0
LINE
  8
0
 10
40.3431
 20
33.8331
 11
40.3592
 21
33.8756
  0
LINE
  8
0
 10
40.3592
 20
33.8756
 11
40.3742
 21
33.944
  0
LINE
  8
0
 10
40.3742
 20
33.944
 11
40.3867
 21
34.0006
  0
LINE
  8
0
 10
40.3867
 20
34.0006
 11
40.3909
 21
34.059
  0
LINE
  8
0
 10
40.3909
 20
34.059
 11
40.3959
 21
34.1288
  0
LINE
  8
0
 10
40.3959
 20
34.1288
 11
40.3959
 21
40
  0
LINE
  8
0
 10
40.3959
 20
40
 11
41.8959
 21
41.5
  0
LINE
  8
0
 10
41.8959
 20
41.5
 11
47
 21
41.5
  0
LINE
  8
0
 10
47
 20
41.5
 11
47.5
 21
42
  0
LINE
  8
0
 10
47.5
 20
42
 11
47.5
 21
45.5
  0
LINE
  8
0
 10
47.5
 20
45.5
 11
36.5
 21
45.5
  0
LINE
  8
0
 10
36.5
 20
45.5
 11
36.5
 21
33.2933
  0
ENDSEC
  0
SECTION
  2
OBJECTS
  0
DICTIONARY
  0
ENDSEC
  0
EOF
