  0
SECTION
  2
BLOCKS
  0
ENDSEC
  0
SECTION
  2
ENTITIES
  0
LINE
  8
0
 10
0
 20
0
 11
11
 21
0
  0
LINE
  8
0
 10
11
 20
0
 11
11
 21
16.849
  0
LINE
  8
0
 10
11
 20
16.849
 11
7.85409
 21
16.849
  0
LINE
  8
0
 10
7.85409
 20
16.849
 11
7.73676
 21
16.8355
  0
LINE
  8
0
 10
7.73676
 20
16.8355
 11
7.64649
 21
16.8038
  0
LINE
  8
0
 10
7.64649
 20
16.8038
 11
7.62232
 21
16.7953
  0
LINE
  8
0
 10
7.62232
 20
16.7953
 11
7.53632
 21
16.7432
  0
LINE
  8
0
 10
7.53632
 20
16.7432
 11
7.51359
 21
16.7294
  0
LINE
  8
0
 10
7.51359
 20
16.7294
 11
7.43391
 21
16.658
  0
LINE
  8
0
 10
7.43391
 20
16.658
 11
7.41325
 21
16.6395
  0
LINE
  8
0
 10
7.41325
 20
16.6395
 11
7.34183
 21
16.5502
  0
LINE
  8
0
 10
7.34183
 20
16.5502
 11
7.32376
 21
16.5276
  0
LINE
  8
0
 10
7.32376
 20
16.5276
 11
7.2624
 21
16.4225
  0
LINE
  8
0
 10
7.2624
 20
16.4225
 11
7.24732
 21
16.3967
  0
LINE
  8
0
 10
7.24732
 20
16.3967
 11
7.19764
 21
16.2781
  0
LINE
  8
0
 10
7.19764
 20
16.2781
 11
7.18583
 21
16.2499
  0
LINE
  8
0
 10
7.18583
 20
16.2499
 11
7.14918
 21
16.1204
  0
LINE
  8
0
 10
7.14918
 20
16.1204
 11
7.14079
 21
16.0908
  0
LINE
  8
0
 10
7.14079
 20
16.0908
 11
7.11827
 21
15.9535
  0
LINE
  8
0
 10
7.11827
 20
15.9535
 11
7.11332
 21
15.9233
  0
LINE
  8
0
 10
7.11332
 20
15.9233
 11
7.10569
 21
15.7815
  0
LINE
  8
0
 10
7.10569
 20
15.7815
 11
7.10409
 21
15.7517
  0
LINE
  8
0
 10
7.10409
 20
15.7517
 11
7.10409
 21
5.5
  0
LINE
  8
0
 10
7.10409
 20
5.5
 11
5.60409
 21
4
  0
LINE
  8
0
 10
5.60409
 20
4
 11
0.499999
 21
4
  0
LINE
  8
0
 10
0.499999
 20
4
 11
0
 21
3.5
  0
LINE
  8
0
 10
0
 20
3.5
 11
0
 21
0
  0
LINE
  8
0
 10
0
 20
42
 11
0.499999
 21
41.5
  0
LINE
  8
0
 10
0.499999
 20
41.5
 11
5.60409
 21
41.5
  0
LINE
  8
0
 10
5.60409
 20
41.5
 11
7.10409
 21
40
  0
LINE
  8
0
 10
7.10409
 20
40
 11
7.10409
 21
34.381
  0
LINE
  8
0
 10
7.10409
 20
34.381
 11
7.10868
 21
34.3226
  0
LINE
  8
0
 10
7.10868
 20
34.3226
 11
7.11332
 21
34.2636
  0
LINE
  8
0
 10
7.11332
 20
34.2636
 11
7.12756
 21
34.2043
  0
LINE
  8
0
 10
7.12756
 20
34.2043
 11
7.14079
 21
34.1491
  0
LINE
  8
0
 10
7.14079
 20
34.1491
 11
7.1651
 21
34.0904
  0
LINE
  8
0
 10
7.1651
 20
34.0904
 11
7.18583
 21
34.0403
  0
LINE
  8
0
 10
7.18583
 20
34.0403
 11
7.22032
 21
33.984
  0
LINE
  8
0
 10
7.22032
 20
33.984
 11
7.24732
 21
33.9399
  0
LINE
  8
0
 10
7.24732
 20
33.9399
 11
7.29174
 21
33.8878
  0
LINE
  8
0
 10
7.29174
 20
33.8878
 11
7.32376
 21
33.8503
  0
LINE
  8
0
 10
7.32376
 20
33.8503
 11
7.37741
 21
33.8045
  0
LINE
  8
0
 10
7.37741
 20
33.8045
 11
7.41325
 21
33.7738
  0
LINE
  8
0
 10
7.41325
 20
33.7738
 11
7.47498
 21
33.736
  0
LINE
  8
0
 10
7.47498
 20
33.736
 11
7.51359
 21
33.7123
  0
LINE
  8
0
 10
7.51359
 20
33.7123
 11
7.58179
 21
33.684
  0
LINE
  8
0
 10
7.58179
 20
33.684
 11
7.62232
 21
33.6672
  0
LINE
  8
0
 10
7.62232
 20
33.6672
 11
7.69496
 21
33.6498
  0
LINE
  8
0
 10
7.69496
 20
33.6498
 11
7.73676
 21
33.6397
  0
LINE
  8
0
 10
7.73676
 20
33.6397
 11
7.81154
 21
33.6338
  0
LINE
  8
0
 10
7.81154
 20
33.6338
 11
7.85409
 21
33.6305
  0
LINE
  8
0
 10
7.85409
 20
33.6305
 11
11
 21
33.6305
  0
LINE
  8
0
 10
11
 20
33.6305
 11
11
 21
45.5
  0
LINE
  8
0
 10
11
 20
45.5
 11
0
 21
45.5
  0
LINE
  8
0
 10
0
 20
45.5
 11
0
 21
42
  0
LINE
  8
0
 10
7.10409
 20
25.2623
 11
7.10855
 21
25.1793
  0
LINE
  8
0
 10
7.10855
 20
25.1793
 11
7.11332
 21
25.0906
  0
LINE
  8
0
 10
7.11332
 20
25.0906
 11
7.12676
 21
25.0087
  0
LINE
  8
0
 10
7.12676
 20
25.0087
 11
7.14079
 21
24.9232
  0
LINE
  8
0
 10
7.14079
 20
24.9232
 11
7.1631
 21
24.8444
  0
LINE
  8
0
 10
7.1631
 20
24.8444
 11
7.18583
 21
24.7641
  0
LINE
  8
0
 10
7.18583
 20
24.7641
 11
7.21664
 21
24.6905
  0
LINE
  8
0
 10
7.21664
 20
24.6905
 11
7.24732
 21
24.6172
  0
LINE
  8
0
 10
7.24732
 20
24.6172
 11
7.286
 21
24.551
  0
LINE
  8
0
 10
7.286
 20
24.551
 11
7.32376
 21
24.4863
  0
LINE
  8
0
 10
7.32376
 20
24.4863
 11
7.41325
 21
24.3745
  0
LINE
  8
0
 10
7.41325
 20
24.3745
 11
7.51359
 21
24.2845
  0
LINE
  8
0
 10
7.51359
 20
24.2845
 11
7.56981
 21
24.2504
  0
LINE
  8
0
 10
7.56981
 20
24.2504
 11
7.62232
 21
24.2186
  0
LINE
  8
0
 10
7.62232
 20
24.2186
 11
7.68171
 21
24.1977
  0
LINE
  8
0
 10
7.68171
 20
24.1977
 11
7.73676
 21
24.1784
  0
LINE
  8
0
 10
7.73676
 20
24.1784
 11
7.85409
 21
24.1649
  0
LINE
  8
0
 10
7.85409
 20
24.1649
 11
11
 21
24.1649
  0
LINE
  8
0
 10
11
 20
24.1649
 11
11
 21
27.799
  0
LINE
  8
0
 10
11
 20
27.799
 11
7.85409
 21
27.799
  0
LINE
  8
0
 10
7.85409
 20
27.799
 11
7.73676
 21
27.7855
  0
LINE
  8
0
 10
7.73676
 20
27.7855
 11
7.71076
 21
27.7764
  0
LINE
  8
0
 10
7.71076
 20
27.7764
 11
7.62232
 21
27.7453
  0
LINE
  8
0
 10
7.62232
 20
27.7453
 11
7.59725
 21
27.7301
  0
LINE
  8
0
 10
7.59725
 20
27.7301
 11
7.51359
 21
27.6794
  0
LINE
  8
0
 10
7.51359
 20
27.6794
 11
7.48992
 21
27.6582
  0
LINE
  8
0
 10
7.48992
 20
27.6582
 11
7.41325
 21
27.5894
  0
LINE
  8
0
 10
7.41325
 20
27.5894
 11
7.32376
 21
27.4776
  0
LINE
  8
0
 10
7.32376
 20
27.4776
 11
7.24732
 21
27.3467
  0
LINE
  8
0
 10
7.24732
 20
27.3467
 11
7.23125
 21
27.3083
  0
LINE
  8
0
 10
7.23125
 20
27.3083
 11
7.18583
 21
27.1999
  0
LINE
  8
0
 10
7.18583
 20
27.1999
 11
7.14079
 21
27.0408
  0
LINE
  8
0
 10
7.14079
 20
27.0408
 11
7.13298
 21
26.9931
  0
LINE
  8
0
 10
7.13298
 20
26.9931
 11
7.11332
 21
26.8733
  0
LINE
  8
0
 10
7.11332
 20
26.8733
 11
7.11058
 21
26.8224
  0
LINE
  8
0
 10
7.11058
 20
26.8224
 11
7.10409
 21
26.7017
  0
LINE
  8
0
 10
7.10409
 20
26.7017
 11
7.10409
 21
25.2623
  0
LINE
  8
0
 10
36.5
 20
0
 11
47.5
 21
0
  0
LINE
  8
0
 10
47.5
 20
0
 11
47.5
 21
3.5
  0
LINE
  8
0
 10
47.5
 20
3.5
 11
47
 21
4
  0
LINE
  8
0
 10
47
 20
4
 11
41.8959
 21
4
  0
LINE
  8
0
 10
41.8959
 20
4
 11
40.3959
 21
5.5
  0
LINE
  8
0
 10
40.3959
 20
5.5
 11
40.3959
 21
15.7517
  0
LINE
  8
0
 10
40.3959
 20
15.7517
 11
40.3883
 21
15.8928
  0
LINE
  8
0
 10
40.3883
 20
15.8928
 11
40.3867
 21
15.9233
  0
LINE
  8
0
 10
40.3867
 20
15.9233
 11
40.3643
 21
16.06
  0
LINE
  8
0
 10
40.3643
 20
16.06
 11
40.3592
 21
16.0908
  0
LINE
  8
0
 10
40.3592
 20
16.0908
 11
40.3227
 21
16.2197
  0
LINE
  8
0
 10
40.3227
 20
16.2197
 11
40.3142
 21
16.2499
  0
LINE
  8
0
 10
40.3142
 20
16.2499
 11
40.2647
 21
16.368
  0
LINE
  8
0
 10
40.2647
 20
16.368
 11
40.2527
 21
16.3967
  0
LINE
  8
0
 10
40.2527
 20
16.3967
 11
40.1915
 21
16.5014
  0
LINE
  8
0
 10
40.1915
 20
16.5014
 11
40.1762
 21
16.5276
  0
LINE
  8
0
 10
40.1762
 20
16.5276
 11
40.105
 21
16.6166
  0
LINE
  8
0
 10
40.105
 20
16.6166
 11
40.0868
 21
16.6395
  0
LINE
  8
0
 10
40.0868
 20
16.6395
 11
40.0073
 21
16.7107
  0
LINE
  8
0
 10
40.0073
 20
16.7107
 11
39.9864
 21
16.7294
  0
LINE
  8
0
 10
39.9864
 20
16.7294
 11
39.9005
 21
16.7815
  0
LINE
  8
0
 10
39.9005
 20
16.7815
 11
39.8777
 21
16.7953
  0
LINE
  8
0
 10
39.8777
 20
16.7953
 11
39.7875
 21
16.827
  0
LINE
  8
0
 10
39.7875
 20
16.827
 11
39.7632
 21
16.8355
  0
LINE
  8
0
 10
39.7632
 20
16.8355
 11
39.6459
 21
16.849
  0
LINE
  8
0
 10
39.6459
 20
16.849
 11
36.5
 21
16.849
  0
LINE
  8
0
 10
36.5
 20
16.849
 11
36.5
 21
0
  0
LINE
  8
0
 10
36.5
 20
24.1649
 11
39.6459
 21
24.1649
  0
LINE
  8
0
 10
39.6459
 20
24.1649
 11
39.7632
 21
24.1784
  0
LINE
  8
0
 10
39.7632
 20
24.1784
 11
39.8226
 21
24.1993
  0
LINE
  8
0
 10
39.8226
 20
24.1993
 11
39.8777
 21
24.2186
  0
LINE
  8
0
 10
39.8777
 20
24.2186
 11
39.9339
 21
24.2527
  0
LINE
  8
0
 10
39.9339
 20
24.2527
 11
39.9864
 21
24.2845
  0
LINE
  8
0
 10
39.9864
 20
24.2845
 11
40.0868
 21
24.3745
  0
LINE
  8
0
 10
40.0868
 20
24.3745
 11
40.1762
 21
24.4863
  0
LINE
  8
0
 10
40.1762
 20
24.4863
 11
40.2149
 21
24.5526
  0
LINE
  8
0
 10
40.2149
 20
24.5526
 11
40.2527
 21
24.6172
  0
LINE
  8
0
 10
40.2527
 20
24.6172
 11
40.2835
 21
24.6908
  0
LINE
  8
0
 10
40.2835
 20
24.6908
 11
40.3142
 21
24.7641
  0
LINE
  8
0
 10
40.3142
 20
24.7641
 11
40.3365
 21
24.8429
  0
LINE
  8
0
 10
40.3365
 20
24.8429
 11
40.3592
 21
24.9232
  0
LINE
  8
0
 10
40.3592
 20
24.9232
 11
40.3727
 21
25.0051
  0
LINE
  8
0
 10
40.3727
 20
25.0051
 11
40.3867
 21
25.0906
  0
LINE
  8
0
 10
40.3867
 20
25.0906
 11
40.3911
 21
25.1736
  0
LINE
  8
0
 10
40.3911
 20
25.1736
 11
40.3959
 21
25.2623
  0
LINE
  8
0
 10
40.3959
 20
25.2623
 11
40.3959
 21
26.7017
  0
LINE
  8
0
 10
40.3959
 20
26.7017
 11
40.3931
 21
26.7535
  0
LINE
  8
0
 10
40.3931
 20
26.7535
 11
40.3867
 21
26.8733
  0
LINE
  8
0
 10
40.3867
 20
26.8733
 11
40.3787
 21
26.9218
  0
LINE
  8
0
 10
40.3787
 20
26.9218
 11
40.3592
 21
27.0408
  0
LINE
  8
0
 10
40.3592
 20
27.0408
 11
40.3142
 21
27.1999
  0
LINE
  8
0
 10
40.3142
 20
27.1999
 11
40.2978
 21
27.239
  0
LINE
  8
0
 10
40.2978
 20
27.239
 11
40.2527
 21
27.3467
  0
LINE
  8
0
 10
40.2527
 20
27.3467
 11
40.1762
 21
27.4776
  0
LINE
  8
0
 10
40.1762
 20
27.4776
 11
40.0868
 21
27.5894
  0
LINE
  8
0
 10
40.0868
 20
27.5894
 11
40.0627
 21
27.611
  0
LINE
  8
0
 10
40.0627
 20
27.611
 11
39.9864
 21
27.6794
  0
LINE
  8
0
 10
39.9864
 20
27.6794
 11
39.961
 21
27.6948
  0
LINE
  8
0
 10
39.961
 20
27.6948
 11
39.8777
 21
27.7453
  0
LINE
  8
0
 10
39.8777
 20
27.7453
 11
39.8515
 21
27.7545
  0
LINE
  8
0
 10
39.8515
 20
27.7545
 11
39.7632
 21
27.7855
  0
LINE
  8
0
 10
39.7632
 20
27.7855
 11
39.6459
 21
27.799
  0
LINE
  8
0
 10
39.6459
 20
27.799
 11
36.5
 21
27.799
  0
LINE
  8
0
 10
36.5
 20
27.799
 11
36.5
 21
24.1649
  0
LINE
  8
0
 10
36.5
 20
33.6305
 11
39.6459
 21
33.6305
  0
LINE
  8
0
 10
39.6459
 20
33.6305
 11
39.7204
 21
33.6363
  0
LINE
  8
0
 10
39.7204
 20
33.6363
 11
39.7632
 21
33.6397
  0
LINE
  8
0
 10
39.7632
 20
33.6397
 11
39.8351
 21
33.657
  0
LINE
  8
0
 10
39.8351
 20
33.657
 11
39.8777
 21
33.6672
  0
LINE
  8
0
 10
39.8777
 20
33.6672
 11
39.9447
 21
33.695
  0
LINE
  8
0
 10
39.9447
 20
33.695
 11
39.9864
 21
33.7123
  0
LINE
  8
0
 10
39.9864
 20
33.7123
 11
40.0467
 21
33.7492
  0
LINE
  8
0
 10
40.0467
 20
33.7492
 11
40.0868
 21
33.7738
  0
LINE
  8
0
 10
40.0868
 20
33.7738
 11
40.1389
 21
33.8184
  0
LINE
  8
0
 10
40.1389
 20
33.8184
 11
40.1762
 21
33.8503
  0
LINE
  8
0
 10
40.1762
 20
33.8503
 11
40.2192
 21
33.9007
  0
LINE
  8
0
 10
40.2192
 20
33.9007
 11
40.2527
 21
33.9399
  0
LINE
  8
0
 10
40.2527
 20
33.9399
 11
40.286
 21
33.9942
  0
LINE
  8
0
 10
40.286
 20
33.9942
 11
40.3142
 21
34.0403
  0
LINE
  8
0
 10
40.3142
 20
34.0403
 11
40.3376
 21
34.0969
  0
LINE
  8
0
 10
40.3376
 20
34.0969
 11
40.3592
 21
34.1491
  0
LINE
  8
0
 10
40.3592
 20
34.1491
 11
40.3729
 21
34.2063
  0
LINE
  8
0
 10
40.3729
 20
34.2063
 11
40.3867
 21
34.2636
  0
LINE
  8
0
 10
40.3867
 20
34.2636
 11
40.3911
 21
34.3199
  0
LINE
  8
0
 10
40.3911
 20
34.3199
 11
40.3959
 21
34.381
  0
LINE
  8
0
 10
40.3959
 20
34.381
 11
40.3959
 21
40
  0
LINE
  8
0
 10
40.3959
 20
40
 11
41.8959
 21
41.5
  0
LINE
  8
0
 10
41.8959
 20
41.5
 11
47
 21
41.5
  0
LINE
  8
0
 10
47
 20
41.5
 11
47.5
 21
42
  0
LINE
  8
0
 10
47.5
 20
42
 11
47.5
 21
45.5
  0
LINE
  8
0
 10
47.5
 20
45.5
 11
36.5
 21
45.5
  0
LINE
  8
0
 10
36.5
 20
45.5
 11
36.5
 21
33.6305
  0
ENDSEC
  0
SECTION
  2
OBJECTS
  0
DICTIONARY
  0
ENDSEC
  0
EOF
