  0
SECTION
  2
BLOCKS
  0
ENDSEC
  0
SECTION
  2
ENTITIES
  0
LINE
  8
0
 10
0
 20
0
 11
11
 21
0
  0
LINE
  8
0
 10
11
 20
0
 11
11
 21
16.315
  0
LINE
  8
0
 10
11
 20
16.315
 11
7.85409
 21
16.315
  0
LINE
  8
0
 10
7.85409
 20
16.315
 11
7.73676
 21
16.3015
  0
LINE
  8
0
 10
7.73676
 20
16.3015
 11
7.6423
 21
16.2683
  0
LINE
  8
0
 10
7.6423
 20
16.2683
 11
7.62232
 21
16.2613
  0
LINE
  8
0
 10
7.62232
 20
16.2613
 11
7.53233
 21
16.2067
  0
LINE
  8
0
 10
7.53233
 20
16.2067
 11
7.51359
 21
16.1954
  0
LINE
  8
0
 10
7.51359
 20
16.1954
 11
7.43023
 21
16.1206
  0
LINE
  8
0
 10
7.43023
 20
16.1206
 11
7.41325
 21
16.1054
  0
LINE
  8
0
 10
7.41325
 20
16.1054
 11
7.33854
 21
16.0121
  0
LINE
  8
0
 10
7.33854
 20
16.0121
 11
7.32376
 21
15.9936
  0
LINE
  8
0
 10
7.32376
 20
15.9936
 11
7.25959
 21
15.8837
  0
LINE
  8
0
 10
7.25959
 20
15.8837
 11
7.24732
 21
15.8626
  0
LINE
  8
0
 10
7.24732
 20
15.8626
 11
7.19538
 21
15.7386
  0
LINE
  8
0
 10
7.19538
 20
15.7386
 11
7.18583
 21
15.7158
  0
LINE
  8
0
 10
7.18583
 20
15.7158
 11
7.14753
 21
15.5805
  0
LINE
  8
0
 10
7.14753
 20
15.5805
 11
7.14079
 21
15.5567
  0
LINE
  8
0
 10
7.14079
 20
15.5567
 11
7.11726
 21
15.4133
  0
LINE
  8
0
 10
7.11726
 20
15.4133
 11
7.11332
 21
15.3893
  0
LINE
  8
0
 10
7.11332
 20
15.3893
 11
7.10535
 21
15.2411
  0
LINE
  8
0
 10
7.10535
 20
15.2411
 11
7.10409
 21
15.2176
  0
LINE
  8
0
 10
7.10409
 20
15.2176
 11
7.10409
 21
5.5
  0
LINE
  8
0
 10
7.10409
 20
5.5
 11
5.60409
 21
4
  0
LINE
  8
0
 10
5.60409
 20
4
 11
0.499999
 21
4
  0
LINE
  8
0
 10
0.499999
 20
4
 11
0
 21
3.5
  0
LINE
  8
0
 10
0
 20
3.5
 11
0
 21
0
  0
LINE
  8
0
 10
0
 20
42
 11
0.499999
 21
41.5
  0
LINE
  8
0
 10
0.499999
 20
41.5
 11
5.60409
 21
41.5
  0
LINE
  8
0
 10
5.60409
 20
41.5
 11
7.10409
 21
40
  0
LINE
  8
0
 10
7.10409
 20
40
 11
7.10409
 21
34.3862
  0
LINE
  8
0
 10
7.10409
 20
34.3862
 11
7.10912
 21
34.3224
  0
LINE
  8
0
 10
7.10912
 20
34.3224
 11
7.11332
 21
34.269
  0
LINE
  8
0
 10
7.11332
 20
34.269
 11
7.12787
 21
34.2084
  0
LINE
  8
0
 10
7.12787
 20
34.2084
 11
7.14079
 21
34.1546
  0
LINE
  8
0
 10
7.14079
 20
34.1546
 11
7.16393
 21
34.0988
  0
LINE
  8
0
 10
7.16393
 20
34.0988
 11
7.18583
 21
34.046
  0
LINE
  8
0
 10
7.18583
 20
34.046
 11
7.21641
 21
33.9961
  0
LINE
  8
0
 10
7.21641
 20
33.9961
 11
7.24732
 21
33.9457
  0
LINE
  8
0
 10
7.24732
 20
33.9457
 11
7.28409
 21
33.9027
  0
LINE
  8
0
 10
7.28409
 20
33.9027
 11
7.32376
 21
33.8563
  0
LINE
  8
0
 10
7.32376
 20
33.8563
 11
7.36541
 21
33.8207
  0
LINE
  8
0
 10
7.36541
 20
33.8207
 11
7.41325
 21
33.7799
  0
LINE
  8
0
 10
7.41325
 20
33.7799
 11
7.45854
 21
33.7521
  0
LINE
  8
0
 10
7.45854
 20
33.7521
 11
7.51359
 21
33.7184
  0
LINE
  8
0
 10
7.51359
 20
33.7184
 11
7.56136
 21
33.6986
  0
LINE
  8
0
 10
7.56136
 20
33.6986
 11
7.62232
 21
33.6734
  0
LINE
  8
0
 10
7.62232
 20
33.6734
 11
7.67155
 21
33.6616
  0
LINE
  8
0
 10
7.67155
 20
33.6616
 11
7.73676
 21
33.646
  0
LINE
  8
0
 10
7.73676
 20
33.646
 11
7.78654
 21
33.642
  0
LINE
  8
0
 10
7.78654
 20
33.642
 11
7.85409
 21
33.6367
  0
LINE
  8
0
 10
7.85409
 20
33.6367
 11
11
 21
33.6367
  0
LINE
  8
0
 10
11
 20
33.6367
 11
11
 21
45.5
  0
LINE
  8
0
 10
11
 20
45.5
 11
0
 21
45.5
  0
LINE
  8
0
 10
0
 20
45.5
 11
0
 21
42
  0
LINE
  8
0
 10
7.10409
 20
24.7282
 11
7.10889
 21
24.639
  0
LINE
  8
0
 10
7.10889
 20
24.639
 11
7.11332
 21
24.5565
  0
LINE
  8
0
 10
7.11332
 20
24.5565
 11
7.12778
 21
24.4684
  0
LINE
  8
0
 10
7.12778
 20
24.4684
 11
7.14079
 21
24.3891
  0
LINE
  8
0
 10
7.14079
 20
24.3891
 11
7.16476
 21
24.3044
  0
LINE
  8
0
 10
7.16476
 20
24.3044
 11
7.18583
 21
24.23
  0
LINE
  8
0
 10
7.18583
 20
24.23
 11
7.2189
 21
24.1511
  0
LINE
  8
0
 10
7.2189
 20
24.1511
 11
7.24732
 21
24.0832
  0
LINE
  8
0
 10
7.24732
 20
24.0832
 11
7.28881
 21
24.0121
  0
LINE
  8
0
 10
7.28881
 20
24.0121
 11
7.32376
 21
23.9522
  0
LINE
  8
0
 10
7.32376
 20
23.9522
 11
7.41325
 21
23.8404
  0
LINE
  8
0
 10
7.41325
 20
23.8404
 11
7.51359
 21
23.7504
  0
LINE
  8
0
 10
7.51359
 20
23.7504
 11
7.57379
 21
23.714
  0
LINE
  8
0
 10
7.57379
 20
23.714
 11
7.62232
 21
23.6845
  0
LINE
  8
0
 10
7.62232
 20
23.6845
 11
7.6859
 21
23.6622
  0
LINE
  8
0
 10
7.6859
 20
23.6622
 11
7.73676
 21
23.6443
  0
LINE
  8
0
 10
7.73676
 20
23.6443
 11
7.85409
 21
23.6308
  0
LINE
  8
0
 10
7.85409
 20
23.6308
 11
11
 21
23.6308
  0
LINE
  8
0
 10
11
 20
23.6308
 11
11
 21
27.265
  0
LINE
  8
0
 10
11
 20
27.265
 11
7.85409
 21
27.265
  0
LINE
  8
0
 10
7.85409
 20
27.265
 11
7.73676
 21
27.2515
  0
LINE
  8
0
 10
7.73676
 20
27.2515
 11
7.70236
 21
27.2394
  0
LINE
  8
0
 10
7.70236
 20
27.2394
 11
7.62232
 21
27.2113
  0
LINE
  8
0
 10
7.62232
 20
27.2113
 11
7.58925
 21
27.1912
  0
LINE
  8
0
 10
7.58925
 20
27.1912
 11
7.51359
 21
27.1454
  0
LINE
  8
0
 10
7.51359
 20
27.1454
 11
7.48253
 21
27.1175
  0
LINE
  8
0
 10
7.48253
 20
27.1175
 11
7.41325
 21
27.0554
  0
LINE
  8
0
 10
7.41325
 20
27.0554
 11
7.32376
 21
26.9436
  0
LINE
  8
0
 10
7.32376
 20
26.9436
 11
7.24732
 21
26.8126
  0
LINE
  8
0
 10
7.24732
 20
26.8126
 11
7.2267
 21
26.7634
  0
LINE
  8
0
 10
7.2267
 20
26.7634
 11
7.18583
 21
26.6658
  0
LINE
  8
0
 10
7.18583
 20
26.6658
 11
7.14079
 21
26.5067
  0
LINE
  8
0
 10
7.14079
 20
26.5067
 11
7.13095
 21
26.4467
  0
LINE
  8
0
 10
7.13095
 20
26.4467
 11
7.11332
 21
26.3393
  0
LINE
  8
0
 10
7.11332
 20
26.3393
 11
7.1099
 21
26.2756
  0
LINE
  8
0
 10
7.1099
 20
26.2756
 11
7.10409
 21
26.1676
  0
LINE
  8
0
 10
7.10409
 20
26.1676
 11
7.10409
 21
24.7282
  0
LINE
  8
0
 10
36.5
 20
0
 11
47.5
 21
0
  0
LINE
  8
0
 10
47.5
 20
0
 11
47.5
 21
3.5
  0
LINE
  8
0
 10
47.5
 20
3.5
 11
47
 21
4
  0
LINE
  8
0
 10
47
 20
4
 11
41.8959
 21
4
  0
LINE
  8
0
 10
41.8959
 20
4
 11
40.3959
 21
5.5
  0
LINE
  8
0
 10
40.3959
 20
5.5
 11
40.3959
 21
15.2176
  0
LINE
  8
0
 10
40.3959
 20
15.2176
 11
40.388
 21
15.365
  0
LINE
  8
0
 10
40.388
 20
15.365
 11
40.3867
 21
15.3893
  0
LINE
  8
0
 10
40.3867
 20
15.3893
 11
40.3633
 21
15.532
  0
LINE
  8
0
 10
40.3633
 20
15.532
 11
40.3592
 21
15.5567
  0
LINE
  8
0
 10
40.3592
 20
15.5567
 11
40.3211
 21
15.6914
  0
LINE
  8
0
 10
40.3211
 20
15.6914
 11
40.3142
 21
15.7158
  0
LINE
  8
0
 10
40.3142
 20
15.7158
 11
40.2624
 21
15.8393
  0
LINE
  8
0
 10
40.2624
 20
15.8393
 11
40.2527
 21
15.8626
  0
LINE
  8
0
 10
40.2527
 20
15.8626
 11
40.1888
 21
15.9721
  0
LINE
  8
0
 10
40.1888
 20
15.9721
 11
40.1762
 21
15.9936
  0
LINE
  8
0
 10
40.1762
 20
15.9936
 11
40.1018
 21
16.0866
  0
LINE
  8
0
 10
40.1018
 20
16.0866
 11
40.0868
 21
16.1054
  0
LINE
  8
0
 10
40.0868
 20
16.1054
 11
40.0036
 21
16.18
  0
LINE
  8
0
 10
40.0036
 20
16.18
 11
39.9864
 21
16.1954
  0
LINE
  8
0
 10
39.9864
 20
16.1954
 11
39.8966
 21
16.2498
  0
LINE
  8
0
 10
39.8966
 20
16.2498
 11
39.8777
 21
16.2613
  0
LINE
  8
0
 10
39.8777
 20
16.2613
 11
39.7833
 21
16.2944
  0
LINE
  8
0
 10
39.7833
 20
16.2944
 11
39.7632
 21
16.3015
  0
LINE
  8
0
 10
39.7632
 20
16.3015
 11
39.6459
 21
16.315
  0
LINE
  8
0
 10
39.6459
 20
16.315
 11
36.5
 21
16.315
  0
LINE
  8
0
 10
36.5
 20
16.315
 11
36.5
 21
0
  0
LINE
  8
0
 10
36.5
 20
23.6308
 11
39.6459
 21
23.6308
  0
LINE
  8
0
 10
39.6459
 20
23.6308
 11
39.7632
 21
23.6443
  0
LINE
  8
0
 10
39.7632
 20
23.6443
 11
39.8268
 21
23.6667
  0
LINE
  8
0
 10
39.8268
 20
23.6667
 11
39.8777
 21
23.6845
  0
LINE
  8
0
 10
39.8777
 20
23.6845
 11
39.9378
 21
23.721
  0
LINE
  8
0
 10
39.9378
 20
23.721
 11
39.9864
 21
23.7504
  0
LINE
  8
0
 10
39.9864
 20
23.7504
 11
40.0868
 21
23.8404
  0
LINE
  8
0
 10
40.0868
 20
23.8404
 11
40.1762
 21
23.9522
  0
LINE
  8
0
 10
40.1762
 20
23.9522
 11
40.2177
 21
24.0233
  0
LINE
  8
0
 10
40.2177
 20
24.0233
 11
40.2527
 21
24.0832
  0
LINE
  8
0
 10
40.2527
 20
24.0832
 11
40.2857
 21
24.1621
  0
LINE
  8
0
 10
40.2857
 20
24.1621
 11
40.3142
 21
24.23
  0
LINE
  8
0
 10
40.3142
 20
24.23
 11
40.3381
 21
24.3146
  0
LINE
  8
0
 10
40.3381
 20
24.3146
 11
40.3592
 21
24.3891
  0
LINE
  8
0
 10
40.3592
 20
24.3891
 11
40.3736
 21
24.4771
  0
LINE
  8
0
 10
40.3736
 20
24.4771
 11
40.3867
 21
24.5565
  0
LINE
  8
0
 10
40.3867
 20
24.5565
 11
40.3915
 21
24.6457
  0
LINE
  8
0
 10
40.3915
 20
24.6457
 11
40.3959
 21
24.7282
  0
LINE
  8
0
 10
40.3959
 20
24.7282
 11
40.3959
 21
26.1676
  0
LINE
  8
0
 10
40.3959
 20
26.1676
 11
40.3925
 21
26.2318
  0
LINE
  8
0
 10
40.3925
 20
26.2318
 11
40.3867
 21
26.3393
  0
LINE
  8
0
 10
40.3867
 20
26.3393
 11
40.3767
 21
26.3999
  0
LINE
  8
0
 10
40.3767
 20
26.3999
 11
40.3592
 21
26.5067
  0
LINE
  8
0
 10
40.3592
 20
26.5067
 11
40.3142
 21
26.6658
  0
LINE
  8
0
 10
40.3142
 20
26.6658
 11
40.2933
 21
26.7156
  0
LINE
  8
0
 10
40.2933
 20
26.7156
 11
40.2527
 21
26.8126
  0
LINE
  8
0
 10
40.2527
 20
26.8126
 11
40.1762
 21
26.9436
  0
LINE
  8
0
 10
40.1762
 20
26.9436
 11
40.0868
 21
27.0554
  0
LINE
  8
0
 10
40.0868
 20
27.0554
 11
40.0554
 21
27.0835
  0
LINE
  8
0
 10
40.0554
 20
27.0835
 11
39.9864
 21
27.1454
  0
LINE
  8
0
 10
39.9864
 20
27.1454
 11
39.9531
 21
27.1655
  0
LINE
  8
0
 10
39.9531
 20
27.1655
 11
39.8777
 21
27.2113
  0
LINE
  8
0
 10
39.8777
 20
27.2113
 11
39.8431
 21
27.2234
  0
LINE
  8
0
 10
39.8431
 20
27.2234
 11
39.7632
 21
27.2515
  0
LINE
  8
0
 10
39.7632
 20
27.2515
 11
39.6459
 21
27.265
  0
LINE
  8
0
 10
39.6459
 20
27.265
 11
36.5
 21
27.265
  0
LINE
  8
0
 10
36.5
 20
27.265
 11
36.5
 21
23.6308
  0
LINE
  8
0
 10
36.5
 20
33.6367
 11
39.6459
 21
33.6367
  0
LINE
  8
0
 10
39.6459
 20
33.6367
 11
39.6954
 21
33.6406
  0
LINE
  8
0
 10
39.6954
 20
33.6406
 11
39.7632
 21
33.646
  0
LINE
  8
0
 10
39.7632
 20
33.646
 11
39.8118
 21
33.6576
  0
LINE
  8
0
 10
39.8118
 20
33.6576
 11
39.8777
 21
33.6734
  0
LINE
  8
0
 10
39.8777
 20
33.6734
 11
39.9244
 21
33.6927
  0
LINE
  8
0
 10
39.9244
 20
33.6927
 11
39.9864
 21
33.7184
  0
LINE
  8
0
 10
39.9864
 20
33.7184
 11
40.0304
 21
33.7454
  0
LINE
  8
0
 10
40.0304
 20
33.7454
 11
40.0868
 21
33.7799
  0
LINE
  8
0
 10
40.0868
 20
33.7799
 11
40.127
 21
33.8143
  0
LINE
  8
0
 10
40.127
 20
33.8143
 11
40.1762
 21
33.8563
  0
LINE
  8
0
 10
40.1762
 20
33.8563
 11
40.2117
 21
33.8977
  0
LINE
  8
0
 10
40.2117
 20
33.8977
 11
40.2527
 21
33.9457
  0
LINE
  8
0
 10
40.2527
 20
33.9457
 11
40.2822
 21
33.9938
  0
LINE
  8
0
 10
40.2822
 20
33.9938
 11
40.3142
 21
34.046
  0
LINE
  8
0
 10
40.3142
 20
34.046
 11
40.3365
 21
34.0998
  0
LINE
  8
0
 10
40.3365
 20
34.0998
 11
40.3592
 21
34.1546
  0
LINE
  8
0
 10
40.3592
 20
34.1546
 11
40.3733
 21
34.2131
  0
LINE
  8
0
 10
40.3733
 20
34.2131
 11
40.3867
 21
34.269
  0
LINE
  8
0
 10
40.3867
 20
34.269
 11
40.3915
 21
34.3308
  0
LINE
  8
0
 10
40.3915
 20
34.3308
 11
40.3959
 21
34.3862
  0
LINE
  8
0
 10
40.3959
 20
34.3862
 11
40.3959
 21
40
  0
LINE
  8
0
 10
40.3959
 20
40
 11
41.8959
 21
41.5
  0
LINE
  8
0
 10
41.8959
 20
41.5
 11
47
 21
41.5
  0
LINE
  8
0
 10
47
 20
41.5
 11
47.5
 21
42
  0
LINE
  8
0
 10
47.5
 20
42
 11
47.5
 21
45.5
  0
LINE
  8
0
 10
47.5
 20
45.5
 11
36.5
 21
45.5
  0
LINE
  8
0
 10
36.5
 20
45.5
 11
36.5
 21
33.6367
  0
ENDSEC
  0
SECTION
  2
OBJECTS
  0
DICTIONARY
  0
ENDSEC
  0
EOF
