  0
SECTION
  2
BLOCKS
  0
ENDSEC
  0
SECTION
  2
ENTITIES
  0
LINE
  8
0
 10
0
 20
0
 11
11
 21
0
  0
LINE
  8
0
 10
11
 20
0
 11
11
 21
15.2469
  0
LINE
  8
0
 10
11
 20
15.2469
 11
7.85409
 21
15.2469
  0
LINE
  8
0
 10
7.85409
 20
15.2469
 11
7.73676
 21
15.2334
  0
LINE
  8
0
 10
7.73676
 20
15.2334
 11
7.63392
 21
15.1972
  0
LINE
  8
0
 10
7.63392
 20
15.1972
 11
7.62232
 21
15.1932
  0
LINE
  8
0
 10
7.62232
 20
15.1932
 11
7.52436
 21
15.1338
  0
LINE
  8
0
 10
7.52436
 20
15.1338
 11
7.51359
 21
15.1273
  0
LINE
  8
0
 10
7.51359
 20
15.1273
 11
7.42286
 21
15.0459
  0
LINE
  8
0
 10
7.42286
 20
15.0459
 11
7.41325
 21
15.0373
  0
LINE
  8
0
 10
7.41325
 20
15.0373
 11
7.33197
 21
14.9357
  0
LINE
  8
0
 10
7.33197
 20
14.9357
 11
7.32376
 21
14.9255
  0
LINE
  8
0
 10
7.32376
 20
14.9255
 11
7.25398
 21
14.8059
  0
LINE
  8
0
 10
7.25398
 20
14.8059
 11
7.24732
 21
14.7945
  0
LINE
  8
0
 10
7.24732
 20
14.7945
 11
7.19085
 21
14.6597
  0
LINE
  8
0
 10
7.19085
 20
14.6597
 11
7.18583
 21
14.6477
  0
LINE
  8
0
 10
7.18583
 20
14.6477
 11
7.14421
 21
14.5007
  0
LINE
  8
0
 10
7.14421
 20
14.5007
 11
7.14079
 21
14.4886
  0
LINE
  8
0
 10
7.14079
 20
14.4886
 11
7.11524
 21
14.3328
  0
LINE
  8
0
 10
7.11524
 20
14.3328
 11
7.11332
 21
14.3212
  0
LINE
  8
0
 10
7.11332
 20
14.3212
 11
7.10467
 21
14.1604
  0
LINE
  8
0
 10
7.10467
 20
14.1604
 11
7.10409
 21
14.1495
  0
LINE
  8
0
 10
7.10409
 20
14.1495
 11
7.10409
 21
5.5
  0
LINE
  8
0
 10
7.10409
 20
5.5
 11
5.60409
 21
4
  0
LINE
  8
0
 10
5.60409
 20
4
 11
0.499999
 21
4
  0
LINE
  8
0
 10
0.499999
 20
4
 11
0
 21
3.5
  0
LINE
  8
0
 10
0
 20
3.5
 11
0
 21
0
  0
LINE
  8
0
 10
0
 20
42
 11
0.499999
 21
41.5
  0
LINE
  8
0
 10
0.499999
 20
41.5
 11
5.60409
 21
41.5
  0
LINE
  8
0
 10
5.60409
 20
41.5
 11
7.10409
 21
40
  0
LINE
  8
0
 10
7.10409
 20
40
 11
7.10409
 21
34.1568
  0
LINE
  8
0
 10
7.10409
 20
34.1568
 11
7.10941
 21
34.0835
  0
LINE
  8
0
 10
7.10941
 20
34.0835
 11
7.11332
 21
34.0296
  0
LINE
  8
0
 10
7.11332
 20
34.0296
 11
7.12679
 21
33.9688
  0
LINE
  8
0
 10
7.12679
 20
33.9688
 11
7.14079
 21
33.9055
  0
LINE
  8
0
 10
7.14079
 20
33.9055
 11
7.15883
 21
33.8583
  0
LINE
  8
0
 10
7.15883
 20
33.8583
 11
7.18583
 21
33.7876
  0
LINE
  8
0
 10
7.18583
 20
33.7876
 11
7.20484
 21
33.754
  0
LINE
  8
0
 10
7.20484
 20
33.754
 11
7.24732
 21
33.6788
  0
LINE
  8
0
 10
7.24732
 20
33.6788
 11
7.26402
 21
33.6576
  0
LINE
  8
0
 10
7.26402
 20
33.6576
 11
7.32376
 21
33.5818
  0
LINE
  8
0
 10
7.32376
 20
33.5818
 11
7.33551
 21
33.5709
  0
LINE
  8
0
 10
7.33551
 20
33.5709
 11
7.41325
 21
33.4989
  0
LINE
  8
0
 10
7.41325
 20
33.4989
 11
7.4184
 21
33.4955
  0
LINE
  8
0
 10
7.4184
 20
33.4955
 11
7.48844
 21
33.449
  0
LINE
  8
0
 10
7.48844
 20
33.449
 11
7.51177
 21
33.432
  0
LINE
  8
0
 10
7.51177
 20
33.432
 11
7.51359
 21
33.4307
  0
LINE
  8
0
 10
7.51359
 20
33.4307
 11
7.61422
 21
33.3814
  0
LINE
  8
0
 10
7.61422
 20
33.3814
 11
7.62232
 21
33.3774
  0
LINE
  8
0
 10
7.62232
 20
33.3774
 11
7.72386
 21
33.3485
  0
LINE
  8
0
 10
7.72386
 20
33.3485
 11
7.73676
 21
33.3449
  0
LINE
  8
0
 10
7.73676
 20
33.3449
 11
7.83896
 21
33.3353
  0
LINE
  8
0
 10
7.83896
 20
33.3353
 11
7.85409
 21
33.3339
  0
LINE
  8
0
 10
7.85409
 20
33.3339
 11
11
 21
33.3339
  0
LINE
  8
0
 10
11
 20
33.3339
 11
11
 21
45.5
  0
LINE
  8
0
 10
11
 20
45.5
 11
0
 21
45.5
  0
LINE
  8
0
 10
0
 20
45.5
 11
0
 21
42
  0
LINE
  8
0
 10
7.10409
 20
23.6601
 11
7.10957
 21
23.5582
  0
LINE
  8
0
 10
7.10957
 20
23.5582
 11
7.11332
 21
23.4884
  0
LINE
  8
0
 10
7.11332
 20
23.4884
 11
7.1298
 21
23.388
  0
LINE
  8
0
 10
7.1298
 20
23.388
 11
7.14079
 21
23.321
  0
LINE
  8
0
 10
7.14079
 20
23.321
 11
7.16807
 21
23.2246
  0
LINE
  8
0
 10
7.16807
 20
23.2246
 11
7.18583
 21
23.1619
  0
LINE
  8
0
 10
7.18583
 20
23.1619
 11
7.22342
 21
23.0722
  0
LINE
  8
0
 10
7.22342
 20
23.0722
 11
7.24732
 21
23.0151
  0
LINE
  8
0
 10
7.24732
 20
23.0151
 11
7.29443
 21
22.9344
  0
LINE
  8
0
 10
7.29443
 20
22.9344
 11
7.32376
 21
22.8841
  0
LINE
  8
0
 10
7.32376
 20
22.8841
 11
7.41325
 21
22.7723
  0
LINE
  8
0
 10
7.41325
 20
22.7723
 11
7.51359
 21
22.6823
  0
LINE
  8
0
 10
7.51359
 20
22.6823
 11
7.58177
 21
22.641
  0
LINE
  8
0
 10
7.58177
 20
22.641
 11
7.62232
 21
22.6164
  0
LINE
  8
0
 10
7.62232
 20
22.6164
 11
7.69428
 21
22.5912
  0
LINE
  8
0
 10
7.69428
 20
22.5912
 11
7.73676
 21
22.5762
  0
LINE
  8
0
 10
7.73676
 20
22.5762
 11
7.85409
 21
22.5627
  0
LINE
  8
0
 10
7.85409
 20
22.5627
 11
11
 21
22.5627
  0
LINE
  8
0
 10
11
 20
22.5627
 11
11
 21
26.1969
  0
LINE
  8
0
 10
11
 20
26.1969
 11
7.85409
 21
26.1969
  0
LINE
  8
0
 10
7.85409
 20
26.1969
 11
7.73676
 21
26.1833
  0
LINE
  8
0
 10
7.73676
 20
26.1833
 11
7.68557
 21
26.1654
  0
LINE
  8
0
 10
7.68557
 20
26.1654
 11
7.62232
 21
26.1432
  0
LINE
  8
0
 10
7.62232
 20
26.1432
 11
7.57327
 21
26.1134
  0
LINE
  8
0
 10
7.57327
 20
26.1134
 11
7.51359
 21
26.0773
  0
LINE
  8
0
 10
7.51359
 20
26.0773
 11
7.46776
 21
26.0362
  0
LINE
  8
0
 10
7.46776
 20
26.0362
 11
7.41325
 21
25.9873
  0
LINE
  8
0
 10
7.41325
 20
25.9873
 11
7.32376
 21
25.8754
  0
LINE
  8
0
 10
7.32376
 20
25.8754
 11
7.24732
 21
25.7445
  0
LINE
  8
0
 10
7.24732
 20
25.7445
 11
7.21761
 21
25.6736
  0
LINE
  8
0
 10
7.21761
 20
25.6736
 11
7.18583
 21
25.5977
  0
LINE
  8
0
 10
7.18583
 20
25.5977
 11
7.14079
 21
25.4386
  0
LINE
  8
0
 10
7.14079
 20
25.4386
 11
7.12688
 21
25.3538
  0
LINE
  8
0
 10
7.12688
 20
25.3538
 11
7.11332
 21
25.2712
  0
LINE
  8
0
 10
7.11332
 20
25.2712
 11
7.10853
 21
25.182
  0
LINE
  8
0
 10
7.10853
 20
25.182
 11
7.10409
 21
25.0995
  0
LINE
  8
0
 10
7.10409
 20
25.0995
 11
7.10409
 21
23.6601
  0
LINE
  8
0
 10
36.5
 20
0
 11
47.5
 21
0
  0
LINE
  8
0
 10
47.5
 20
0
 11
47.5
 21
3.5
  0
LINE
  8
0
 10
47.5
 20
3.5
 11
47
 21
4
  0
LINE
  8
0
 10
47
 20
4
 11
41.8959
 21
4
  0
LINE
  8
0
 10
41.8959
 20
4
 11
40.3959
 21
5.5
  0
LINE
  8
0
 10
40.3959
 20
5.5
 11
40.3959
 21
14.1495
  0
LINE
  8
0
 10
40.3959
 20
14.1495
 11
40.3873
 21
14.3093
  0
LINE
  8
0
 10
40.3873
 20
14.3093
 11
40.3867
 21
14.3212
  0
LINE
  8
0
 10
40.3867
 20
14.3212
 11
40.3613
 21
14.4761
  0
LINE
  8
0
 10
40.3613
 20
14.4761
 11
40.3592
 21
14.4886
  0
LINE
  8
0
 10
40.3592
 20
14.4886
 11
40.3178
 21
14.6348
  0
LINE
  8
0
 10
40.3178
 20
14.6348
 11
40.3142
 21
14.6477
  0
LINE
  8
0
 10
40.3142
 20
14.6477
 11
40.258
 21
14.7819
  0
LINE
  8
0
 10
40.258
 20
14.7819
 11
40.2527
 21
14.7945
  0
LINE
  8
0
 10
40.2527
 20
14.7945
 11
40.1832
 21
14.9136
  0
LINE
  8
0
 10
40.1832
 20
14.9136
 11
40.1762
 21
14.9255
  0
LINE
  8
0
 10
40.1762
 20
14.9255
 11
40.0953
 21
15.0267
  0
LINE
  8
0
 10
40.0953
 20
15.0267
 11
40.0868
 21
15.0373
  0
LINE
  8
0
 10
40.0868
 20
15.0373
 11
39.9963
 21
15.1184
  0
LINE
  8
0
 10
39.9963
 20
15.1184
 11
39.9864
 21
15.1273
  0
LINE
  8
0
 10
39.9864
 20
15.1273
 11
39.8886
 21
15.1865
  0
LINE
  8
0
 10
39.8886
 20
15.1865
 11
39.8777
 21
15.1932
  0
LINE
  8
0
 10
39.8777
 20
15.1932
 11
39.775
 21
15.2292
  0
LINE
  8
0
 10
39.775
 20
15.2292
 11
39.7632
 21
15.2334
  0
LINE
  8
0
 10
39.7632
 20
15.2334
 11
39.6459
 21
15.2469
  0
LINE
  8
0
 10
39.6459
 20
15.2469
 11
36.5
 21
15.2469
  0
LINE
  8
0
 10
36.5
 20
15.2469
 11
36.5
 21
0
  0
LINE
  8
0
 10
36.5
 20
22.5627
 11
39.6459
 21
22.5627
  0
LINE
  8
0
 10
39.6459
 20
22.5627
 11
39.7632
 21
22.5762
  0
LINE
  8
0
 10
39.7632
 20
22.5762
 11
39.8352
 21
22.6015
  0
LINE
  8
0
 10
39.8352
 20
22.6015
 11
39.8777
 21
22.6164
  0
LINE
  8
0
 10
39.8777
 20
22.6164
 11
39.9458
 21
22.6577
  0
LINE
  8
0
 10
39.9458
 20
22.6577
 11
39.9864
 21
22.6823
  0
LINE
  8
0
 10
39.9864
 20
22.6823
 11
40.0868
 21
22.7723
  0
LINE
  8
0
 10
40.0868
 20
22.7723
 11
40.1762
 21
22.8841
  0
LINE
  8
0
 10
40.1762
 20
22.8841
 11
40.2233
 21
22.9647
  0
LINE
  8
0
 10
40.2233
 20
22.9647
 11
40.2527
 21
23.0151
  0
LINE
  8
0
 10
40.2527
 20
23.0151
 11
40.2902
 21
23.1046
  0
LINE
  8
0
 10
40.2902
 20
23.1046
 11
40.3142
 21
23.1619
  0
LINE
  8
0
 10
40.3142
 20
23.1619
 11
40.3414
 21
23.2581
  0
LINE
  8
0
 10
40.3414
 20
23.2581
 11
40.3592
 21
23.321
  0
LINE
  8
0
 10
40.3592
 20
23.321
 11
40.3756
 21
23.4212
  0
LINE
  8
0
 10
40.3756
 20
23.4212
 11
40.3867
 21
23.4884
  0
LINE
  8
0
 10
40.3867
 20
23.4884
 11
40.3921
 21
23.5901
  0
LINE
  8
0
 10
40.3921
 20
23.5901
 11
40.3959
 21
23.6601
  0
LINE
  8
0
 10
40.3959
 20
23.6601
 11
40.3959
 21
25.0995
  0
LINE
  8
0
 10
40.3959
 20
25.0995
 11
40.3911
 21
25.1885
  0
LINE
  8
0
 10
40.3911
 20
25.1885
 11
40.3867
 21
25.2712
  0
LINE
  8
0
 10
40.3867
 20
25.2712
 11
40.3728
 21
25.356
  0
LINE
  8
0
 10
40.3728
 20
25.356
 11
40.3592
 21
25.4386
  0
LINE
  8
0
 10
40.3592
 20
25.4386
 11
40.3142
 21
25.5977
  0
LINE
  8
0
 10
40.3142
 20
25.5977
 11
40.2844
 21
25.6687
  0
LINE
  8
0
 10
40.2844
 20
25.6687
 11
40.2527
 21
25.7445
  0
LINE
  8
0
 10
40.2527
 20
25.7445
 11
40.1762
 21
25.8754
  0
LINE
  8
0
 10
40.1762
 20
25.8754
 11
40.0868
 21
25.9873
  0
LINE
  8
0
 10
40.0868
 20
25.9873
 11
40.0409
 21
26.0284
  0
LINE
  8
0
 10
40.0409
 20
26.0284
 11
39.9864
 21
26.0773
  0
LINE
  8
0
 10
39.9864
 20
26.0773
 11
39.9373
 21
26.107
  0
LINE
  8
0
 10
39.9373
 20
26.107
 11
39.8777
 21
26.1432
  0
LINE
  8
0
 10
39.8777
 20
26.1432
 11
39.8264
 21
26.1611
  0
LINE
  8
0
 10
39.8264
 20
26.1611
 11
39.7632
 21
26.1833
  0
LINE
  8
0
 10
39.7632
 20
26.1833
 11
39.6459
 21
26.1969
  0
LINE
  8
0
 10
39.6459
 20
26.1969
 11
36.5
 21
26.1969
  0
LINE
  8
0
 10
36.5
 20
26.1969
 11
36.5
 21
22.5627
  0
LINE
  8
0
 10
36.5
 20
33.3339
 11
39.6459
 21
33.3339
  0
LINE
  8
0
 10
39.6459
 20
33.3339
 11
39.7492
 21
33.3436
  0
LINE
  8
0
 10
39.7492
 20
33.3436
 11
39.7632
 21
33.3449
  0
LINE
  8
0
 10
39.7632
 20
33.3449
 11
39.868
 21
33.3746
  0
LINE
  8
0
 10
39.868
 20
33.3746
 11
39.8777
 21
33.3774
  0
LINE
  8
0
 10
39.8777
 20
33.3774
 11
39.984
 21
33.4296
  0
LINE
  8
0
 10
39.984
 20
33.4296
 11
39.9864
 21
33.4307
  0
LINE
  8
0
 10
39.9864
 20
33.4307
 11
40.0116
 21
33.449
  0
LINE
  8
0
 10
40.0116
 20
33.449
 11
40.0868
 21
33.4989
  0
LINE
  8
0
 10
40.0868
 20
33.4989
 11
40.0919
 21
33.5037
  0
LINE
  8
0
 10
40.0919
 20
33.5037
 11
40.1762
 21
33.5818
  0
LINE
  8
0
 10
40.1762
 20
33.5818
 11
40.1877
 21
33.5963
  0
LINE
  8
0
 10
40.1877
 20
33.5963
 11
40.2527
 21
33.6788
  0
LINE
  8
0
 10
40.2527
 20
33.6788
 11
40.2682
 21
33.7062
  0
LINE
  8
0
 10
40.2682
 20
33.7062
 11
40.3142
 21
33.7876
  0
LINE
  8
0
 10
40.3142
 20
33.7876
 11
40.3304
 21
33.83
  0
LINE
  8
0
 10
40.3304
 20
33.83
 11
40.3592
 21
33.9055
  0
LINE
  8
0
 10
40.3592
 20
33.9055
 11
40.372
 21
33.9636
  0
LINE
  8
0
 10
40.372
 20
33.9636
 11
40.3867
 21
34.0296
  0
LINE
  8
0
 10
40.3867
 20
34.0296
 11
40.392
 21
34.1024
  0
LINE
  8
0
 10
40.392
 20
34.1024
 11
40.3959
 21
34.1568
  0
LINE
  8
0
 10
40.3959
 20
34.1568
 11
40.3959
 21
40
  0
LINE
  8
0
 10
40.3959
 20
40
 11
41.8959
 21
41.5
  0
LINE
  8
0
 10
41.8959
 20
41.5
 11
47
 21
41.5
  0
LINE
  8
0
 10
47
 20
41.5
 11
47.5
 21
42
  0
LINE
  8
0
 10
47.5
 20
42
 11
47.5
 21
45.5
  0
LINE
  8
0
 10
47.5
 20
45.5
 11
36.5
 21
45.5
  0
LINE
  8
0
 10
36.5
 20
45.5
 11
36.5
 21
33.3339
  0
ENDSEC
  0
SECTION
  2
OBJECTS
  0
DICTIONARY
  0
ENDSEC
  0
EOF
