  0
SECTION
  2
BLOCKS
  0
ENDSEC
  0
SECTION
  2
ENTITIES
  0
LINE
  8
0
 10
0
 20
0
 11
11
 21
0
  0
LINE
  8
0
 10
11
 20
0
 11
11
 21
14.7128
  0
LINE
  8
0
 10
11
 20
14.7128
 11
7.85409
 21
14.7128
  0
LINE
  8
0
 10
7.85409
 20
14.7128
 11
7.73676
 21
14.6993
  0
LINE
  8
0
 10
7.73676
 20
14.6993
 11
7.62972
 21
14.6617
  0
LINE
  8
0
 10
7.62972
 20
14.6617
 11
7.62232
 21
14.6591
  0
LINE
  8
0
 10
7.62232
 20
14.6591
 11
7.52037
 21
14.5973
  0
LINE
  8
0
 10
7.52037
 20
14.5973
 11
7.51359
 21
14.5932
  0
LINE
  8
0
 10
7.51359
 20
14.5932
 11
7.41918
 21
14.5086
  0
LINE
  8
0
 10
7.41918
 20
14.5086
 11
7.41325
 21
14.5032
  0
LINE
  8
0
 10
7.41325
 20
14.5032
 11
7.32868
 21
14.3976
  0
LINE
  8
0
 10
7.32868
 20
14.3976
 11
7.32376
 21
14.3914
  0
LINE
  8
0
 10
7.32376
 20
14.3914
 11
7.25117
 21
14.267
  0
LINE
  8
0
 10
7.25117
 20
14.267
 11
7.24732
 21
14.2605
  0
LINE
  8
0
 10
7.24732
 20
14.2605
 11
7.18859
 21
14.1202
  0
LINE
  8
0
 10
7.18859
 20
14.1202
 11
7.18583
 21
14.1136
  0
LINE
  8
0
 10
7.18583
 20
14.1136
 11
7.14256
 21
13.9608
  0
LINE
  8
0
 10
7.14256
 20
13.9608
 11
7.14079
 21
13.9546
  0
LINE
  8
0
 10
7.14079
 20
13.9546
 11
7.11423
 21
13.7926
  0
LINE
  8
0
 10
7.11423
 20
13.7926
 11
7.11332
 21
13.7871
  0
LINE
  8
0
 10
7.11332
 20
13.7871
 11
7.10433
 21
13.62
  0
LINE
  8
0
 10
7.10433
 20
13.62
 11
7.10409
 21
13.6154
  0
LINE
  8
0
 10
7.10409
 20
13.6154
 11
7.10409
 21
5.5
  0
LINE
  8
0
 10
7.10409
 20
5.5
 11
5.60409
 21
4
  0
LINE
  8
0
 10
5.60409
 20
4
 11
0.499999
 21
4
  0
LINE
  8
0
 10
0.499999
 20
4
 11
0
 21
3.5
  0
LINE
  8
0
 10
0
 20
3.5
 11
0
 21
0
  0
LINE
  8
0
 10
0
 20
42
 11
0.499999
 21
41.5
  0
LINE
  8
0
 10
0.499999
 20
41.5
 11
5.60409
 21
41.5
  0
LINE
  8
0
 10
5.60409
 20
41.5
 11
7.10409
 21
40
  0
LINE
  8
0
 10
7.10409
 20
40
 11
7.10409
 21
33.9012
  0
LINE
  8
0
 10
7.10409
 20
33.9012
 11
7.10878
 21
33.8306
  0
LINE
  8
0
 10
7.10878
 20
33.8306
 11
7.11332
 21
33.7623
  0
LINE
  8
0
 10
7.11332
 20
33.7623
 11
7.12379
 21
33.7107
  0
LINE
  8
0
 10
7.12379
 20
33.7107
 11
7.14079
 21
33.6268
  0
LINE
  8
0
 10
7.14079
 20
33.6268
 11
7.15198
 21
33.5948
  0
LINE
  8
0
 10
7.15198
 20
33.5948
 11
7.18583
 21
33.4981
  0
LINE
  8
0
 10
7.18583
 20
33.4981
 11
7.19275
 21
33.4847
  0
LINE
  8
0
 10
7.19275
 20
33.4847
 11
7.2371
 21
33.399
  0
LINE
  8
0
 10
7.2371
 20
33.399
 11
7.24583
 21
33.3799
  0
LINE
  8
0
 10
7.24583
 20
33.3799
 11
7.24732
 21
33.3766
  0
LINE
  8
0
 10
7.24732
 20
33.3766
 11
7.31138
 21
33.2758
  0
LINE
  8
0
 10
7.31138
 20
33.2758
 11
7.32376
 21
33.2563
  0
LINE
  8
0
 10
7.32376
 20
33.2563
 11
7.38708
 21
33.1836
  0
LINE
  8
0
 10
7.38708
 20
33.1836
 11
7.41325
 21
33.1536
  0
LINE
  8
0
 10
7.41325
 20
33.1536
 11
7.47237
 21
33.1049
  0
LINE
  8
0
 10
7.47237
 20
33.1049
 11
7.51359
 21
33.0709
  0
LINE
  8
0
 10
7.51359
 20
33.0709
 11
7.56672
 21
33.0413
  0
LINE
  8
0
 10
7.56672
 20
33.0413
 11
7.62232
 21
33.0104
  0
LINE
  8
0
 10
7.62232
 20
33.0104
 11
7.66951
 21
32.9951
  0
LINE
  8
0
 10
7.66951
 20
32.9951
 11
7.73676
 21
32.9734
  0
LINE
  8
0
 10
7.73676
 20
32.9734
 11
7.77985
 21
32.9689
  0
LINE
  8
0
 10
7.77985
 20
32.9689
 11
7.85409
 21
32.961
  0
LINE
  8
0
 10
7.85409
 20
32.961
 11
11
 21
32.961
  0
LINE
  8
0
 10
11
 20
32.961
 11
11
 21
45.5
  0
LINE
  8
0
 10
11
 20
45.5
 11
0
 21
45.5
  0
LINE
  8
0
 10
0
 20
45.5
 11
0
 21
42
  0
LINE
  8
0
 10
7.10409
 20
23.126
 11
7.10991
 21
23.0178
  0
LINE
  8
0
 10
7.10991
 20
23.0178
 11
7.11332
 21
22.9544
  0
LINE
  8
0
 10
7.11332
 20
22.9544
 11
7.13081
 21
22.8478
  0
LINE
  8
0
 10
7.13081
 20
22.8478
 11
7.14079
 21
22.7869
  0
LINE
  8
0
 10
7.14079
 20
22.7869
 11
7.16973
 21
22.6847
  0
LINE
  8
0
 10
7.16973
 20
22.6847
 11
7.18583
 21
22.6278
  0
LINE
  8
0
 10
7.18583
 20
22.6278
 11
7.22568
 21
22.5327
  0
LINE
  8
0
 10
7.22568
 20
22.5327
 11
7.24732
 21
22.481
  0
LINE
  8
0
 10
7.24732
 20
22.481
 11
7.29724
 21
22.3955
  0
LINE
  8
0
 10
7.29724
 20
22.3955
 11
7.32376
 21
22.3501
  0
LINE
  8
0
 10
7.32376
 20
22.3501
 11
7.41325
 21
22.2382
  0
LINE
  8
0
 10
7.41325
 20
22.2382
 11
7.51359
 21
22.1483
  0
LINE
  8
0
 10
7.51359
 20
22.1483
 11
7.58575
 21
22.1045
  0
LINE
  8
0
 10
7.58575
 20
22.1045
 11
7.62232
 21
22.0824
  0
LINE
  8
0
 10
7.62232
 20
22.0824
 11
7.69848
 21
22.0556
  0
LINE
  8
0
 10
7.69848
 20
22.0556
 11
7.73676
 21
22.0422
  0
LINE
  8
0
 10
7.73676
 20
22.0422
 11
7.85409
 21
22.0287
  0
LINE
  8
0
 10
7.85409
 20
22.0287
 11
11
 21
22.0287
  0
LINE
  8
0
 10
11
 20
22.0287
 11
11
 21
25.6628
  0
LINE
  8
0
 10
11
 20
25.6628
 11
7.85409
 21
25.6628
  0
LINE
  8
0
 10
7.85409
 20
25.6628
 11
7.73676
 21
25.6493
  0
LINE
  8
0
 10
7.73676
 20
25.6493
 11
7.67717
 21
25.6284
  0
LINE
  8
0
 10
7.67717
 20
25.6284
 11
7.62232
 21
25.6091
  0
LINE
  8
0
 10
7.62232
 20
25.6091
 11
7.56528
 21
25.5745
  0
LINE
  8
0
 10
7.56528
 20
25.5745
 11
7.51359
 21
25.5432
  0
LINE
  8
0
 10
7.51359
 20
25.5432
 11
7.46037
 21
25.4955
  0
LINE
  8
0
 10
7.46037
 20
25.4955
 11
7.41325
 21
25.4532
  0
LINE
  8
0
 10
7.41325
 20
25.4532
 11
7.32376
 21
25.3414
  0
LINE
  8
0
 10
7.32376
 20
25.3414
 11
7.24732
 21
25.2105
  0
LINE
  8
0
 10
7.24732
 20
25.2105
 11
7.21306
 21
25.1286
  0
LINE
  8
0
 10
7.21306
 20
25.1286
 11
7.18583
 21
25.0636
  0
LINE
  8
0
 10
7.18583
 20
25.0636
 11
7.14079
 21
24.9045
  0
LINE
  8
0
 10
7.14079
 20
24.9045
 11
7.12484
 21
24.8073
  0
LINE
  8
0
 10
7.12484
 20
24.8073
 11
7.11332
 21
24.7371
  0
LINE
  8
0
 10
7.11332
 20
24.7371
 11
7.10784
 21
24.6353
  0
LINE
  8
0
 10
7.10784
 20
24.6353
 11
7.10409
 21
24.5654
  0
LINE
  8
0
 10
7.10409
 20
24.5654
 11
7.10409
 21
23.126
  0
LINE
  8
0
 10
36.5
 20
0
 11
47.5
 21
0
  0
LINE
  8
0
 10
47.5
 20
0
 11
47.5
 21
3.5
  0
LINE
  8
0
 10
47.5
 20
3.5
 11
47
 21
4
  0
LINE
  8
0
 10
47
 20
4
 11
41.8959
 21
4
  0
LINE
  8
0
 10
41.8959
 20
4
 11
40.3959
 21
5.5
  0
LINE
  8
0
 10
40.3959
 20
5.5
 11
40.3959
 21
13.6154
  0
LINE
  8
0
 10
40.3959
 20
13.6154
 11
40.387
 21
13.7815
  0
LINE
  8
0
 10
40.387
 20
13.7815
 11
40.3867
 21
13.7871
  0
LINE
  8
0
 10
40.3867
 20
13.7871
 11
40.3603
 21
13.9481
  0
LINE
  8
0
 10
40.3603
 20
13.9481
 11
40.3592
 21
13.9546
  0
LINE
  8
0
 10
40.3592
 20
13.9546
 11
40.3162
 21
14.1066
  0
LINE
  8
0
 10
40.3162
 20
14.1066
 11
40.3142
 21
14.1136
  0
LINE
  8
0
 10
40.3142
 20
14.1136
 11
40.2557
 21
14.2532
  0
LINE
  8
0
 10
40.2557
 20
14.2532
 11
40.2527
 21
14.2605
  0
LINE
  8
0
 10
40.2527
 20
14.2605
 11
40.1804
 21
14.3843
  0
LINE
  8
0
 10
40.1804
 20
14.3843
 11
40.1762
 21
14.3914
  0
LINE
  8
0
 10
40.1762
 20
14.3914
 11
40.092
 21
14.4967
  0
LINE
  8
0
 10
40.092
 20
14.4967
 11
40.0868
 21
14.5032
  0
LINE
  8
0
 10
40.0868
 20
14.5032
 11
39.9926
 21
14.5876
  0
LINE
  8
0
 10
39.9926
 20
14.5876
 11
39.9864
 21
14.5932
  0
LINE
  8
0
 10
39.9864
 20
14.5932
 11
39.8847
 21
14.6549
  0
LINE
  8
0
 10
39.8847
 20
14.6549
 11
39.8777
 21
14.6591
  0
LINE
  8
0
 10
39.8777
 20
14.6591
 11
39.7708
 21
14.6967
  0
LINE
  8
0
 10
39.7708
 20
14.6967
 11
39.7632
 21
14.6993
  0
LINE
  8
0
 10
39.7632
 20
14.6993
 11
39.6459
 21
14.7128
  0
LINE
  8
0
 10
39.6459
 20
14.7128
 11
36.5
 21
14.7128
  0
LINE
  8
0
 10
36.5
 20
14.7128
 11
36.5
 21
0
  0
LINE
  8
0
 10
36.5
 20
22.0287
 11
39.6459
 21
22.0287
  0
LINE
  8
0
 10
39.6459
 20
22.0287
 11
39.7632
 21
22.0422
  0
LINE
  8
0
 10
39.7632
 20
22.0422
 11
39.8393
 21
22.0689
  0
LINE
  8
0
 10
39.8393
 20
22.0689
 11
39.8777
 21
22.0824
  0
LINE
  8
0
 10
39.8777
 20
22.0824
 11
39.9497
 21
22.1261
  0
LINE
  8
0
 10
39.9497
 20
22.1261
 11
39.9864
 21
22.1483
  0
LINE
  8
0
 10
39.9864
 20
22.1483
 11
40.0868
 21
22.2382
  0
LINE
  8
0
 10
40.0868
 20
22.2382
 11
40.1762
 21
22.3501
  0
LINE
  8
0
 10
40.1762
 20
22.3501
 11
40.226
 21
22.4354
  0
LINE
  8
0
 10
40.226
 20
22.4354
 11
40.2527
 21
22.481
  0
LINE
  8
0
 10
40.2527
 20
22.481
 11
40.2924
 21
22.5759
  0
LINE
  8
0
 10
40.2924
 20
22.5759
 11
40.3142
 21
22.6278
  0
LINE
  8
0
 10
40.3142
 20
22.6278
 11
40.343
 21
22.7298
  0
LINE
  8
0
 10
40.343
 20
22.7298
 11
40.3592
 21
22.7869
  0
LINE
  8
0
 10
40.3592
 20
22.7869
 11
40.3766
 21
22.8932
  0
LINE
  8
0
 10
40.3766
 20
22.8932
 11
40.3867
 21
22.9544
  0
LINE
  8
0
 10
40.3867
 20
22.9544
 11
40.3925
 21
23.0623
  0
LINE
  8
0
 10
40.3925
 20
23.0623
 11
40.3959
 21
23.126
  0
LINE
  8
0
 10
40.3959
 20
23.126
 11
40.3959
 21
24.5654
  0
LINE
  8
0
 10
40.3959
 20
24.5654
 11
40.3905
 21
24.6669
  0
LINE
  8
0
 10
40.3905
 20
24.6669
 11
40.3867
 21
24.7371
  0
LINE
  8
0
 10
40.3867
 20
24.7371
 11
40.3708
 21
24.834
  0
LINE
  8
0
 10
40.3708
 20
24.834
 11
40.3592
 21
24.9045
  0
LINE
  8
0
 10
40.3592
 20
24.9045
 11
40.3142
 21
25.0636
  0
LINE
  8
0
 10
40.3142
 20
25.0636
 11
40.28
 21
25.1453
  0
LINE
  8
0
 10
40.28
 20
25.1453
 11
40.2527
 21
25.2105
  0
LINE
  8
0
 10
40.2527
 20
25.2105
 11
40.1762
 21
25.3414
  0
LINE
  8
0
 10
40.1762
 20
25.3414
 11
40.0868
 21
25.4532
  0
LINE
  8
0
 10
40.0868
 20
25.4532
 11
40.0336
 21
25.5009
  0
LINE
  8
0
 10
40.0336
 20
25.5009
 11
39.9864
 21
25.5432
  0
LINE
  8
0
 10
39.9864
 20
25.5432
 11
39.9294
 21
25.5778
  0
LINE
  8
0
 10
39.9294
 20
25.5778
 11
39.8777
 21
25.6091
  0
LINE
  8
0
 10
39.8777
 20
25.6091
 11
39.8181
 21
25.63
  0
LINE
  8
0
 10
39.8181
 20
25.63
 11
39.7632
 21
25.6493
  0
LINE
  8
0
 10
39.7632
 20
25.6493
 11
39.6459
 21
25.6628
  0
LINE
  8
0
 10
39.6459
 20
25.6628
 11
36.5
 21
25.6628
  0
LINE
  8
0
 10
36.5
 20
25.6628
 11
36.5
 21
22.0287
  0
LINE
  8
0
 10
36.5
 20
32.961
 11
39.6459
 21
32.961
  0
LINE
  8
0
 10
39.6459
 20
32.961
 11
39.6881
 21
32.9655
  0
LINE
  8
0
 10
39.6881
 20
32.9655
 11
39.7632
 21
32.9734
  0
LINE
  8
0
 10
39.7632
 20
32.9734
 11
39.8085
 21
32.988
  0
LINE
  8
0
 10
39.8085
 20
32.988
 11
39.8777
 21
33.0104
  0
LINE
  8
0
 10
39.8777
 20
33.0104
 11
39.9295
 21
33.0392
  0
LINE
  8
0
 10
39.9295
 20
33.0392
 11
39.9864
 21
33.0709
  0
LINE
  8
0
 10
39.9864
 20
33.0709
 11
40.0468
 21
33.1207
  0
LINE
  8
0
 10
40.0468
 20
33.1207
 11
40.0868
 21
33.1536
  0
LINE
  8
0
 10
40.0868
 20
33.1536
 11
40.1554
 21
33.2324
  0
LINE
  8
0
 10
40.1554
 20
33.2324
 11
40.1762
 21
33.2563
  0
LINE
  8
0
 10
40.1762
 20
33.2563
 11
40.2499
 21
33.3722
  0
LINE
  8
0
 10
40.2499
 20
33.3722
 11
40.2527
 21
33.3766
  0
LINE
  8
0
 10
40.2527
 20
33.3766
 11
40.2629
 21
33.399
  0
LINE
  8
0
 10
40.2629
 20
33.399
 11
40.3142
 21
33.4981
  0
LINE
  8
0
 10
40.3142
 20
33.4981
 11
40.3206
 21
33.5166
  0
LINE
  8
0
 10
40.3206
 20
33.5166
 11
40.3592
 21
33.6268
  0
LINE
  8
0
 10
40.3592
 20
33.6268
 11
40.368
 21
33.6701
  0
LINE
  8
0
 10
40.368
 20
33.6701
 11
40.3867
 21
33.7623
  0
LINE
  8
0
 10
40.3867
 20
33.7623
 11
40.3912
 21
33.8303
  0
LINE
  8
0
 10
40.3912
 20
33.8303
 11
40.3959
 21
33.9012
  0
LINE
  8
0
 10
40.3959
 20
33.9012
 11
40.3959
 21
40
  0
LINE
  8
0
 10
40.3959
 20
40
 11
41.8959
 21
41.5
  0
LINE
  8
0
 10
41.8959
 20
41.5
 11
47
 21
41.5
  0
LINE
  8
0
 10
47
 20
41.5
 11
47.5
 21
42
  0
LINE
  8
0
 10
47.5
 20
42
 11
47.5
 21
45.5
  0
LINE
  8
0
 10
47.5
 20
45.5
 11
36.5
 21
45.5
  0
LINE
  8
0
 10
36.5
 20
45.5
 11
36.5
 21
32.961
  0
ENDSEC
  0
SECTION
  2
OBJECTS
  0
DICTIONARY
  0
ENDSEC
  0
EOF
