  0
SECTION
  2
BLOCKS
  0
ENDSEC
  0
SECTION
  2
ENTITIES
  0
LINE
  8
0
 10
0
 20
0
 11
11
 21
0
  0
LINE
  8
0
 10
11
 20
0
 11
11
 21
14.1788
  0
LINE
  8
0
 10
11
 20
14.1788
 11
7.85409
 21
14.1788
  0
LINE
  8
0
 10
7.85409
 20
14.1788
 11
7.73676
 21
14.1653
  0
LINE
  8
0
 10
7.73676
 20
14.1653
 11
7.62553
 21
14.1262
  0
LINE
  8
0
 10
7.62553
 20
14.1262
 11
7.62232
 21
14.1251
  0
LINE
  8
0
 10
7.62232
 20
14.1251
 11
7.51638
 21
14.0609
  0
LINE
  8
0
 10
7.51638
 20
14.0609
 11
7.51359
 21
14.0592
  0
LINE
  8
0
 10
7.51359
 20
14.0592
 11
7.41549
 21
13.9712
  0
LINE
  8
0
 10
7.41549
 20
13.9712
 11
7.41325
 21
13.9692
  0
LINE
  8
0
 10
7.41325
 20
13.9692
 11
7.32539
 21
13.8594
  0
LINE
  8
0
 10
7.32539
 20
13.8594
 11
7.32376
 21
13.8574
  0
LINE
  8
0
 10
7.32376
 20
13.8574
 11
7.24836
 21
13.7282
  0
LINE
  8
0
 10
7.24836
 20
13.7282
 11
7.24732
 21
13.7264
  0
LINE
  8
0
 10
7.24732
 20
13.7264
 11
7.18633
 21
13.5808
  0
LINE
  8
0
 10
7.18633
 20
13.5808
 11
7.18583
 21
13.5796
  0
LINE
  8
0
 10
7.18583
 20
13.5796
 11
7.1409
 21
13.4209
  0
LINE
  8
0
 10
7.1409
 20
13.4209
 11
7.14079
 21
13.4205
  0
LINE
  8
0
 10
7.14079
 20
13.4205
 11
7.13054
 21
13.358
  0
LINE
  8
0
 10
7.13054
 20
13.358
 11
7.1165
 21
13.2794
  0
LINE
  8
0
 10
7.1165
 20
13.2794
 11
7.11332
 21
13.2616
  0
LINE
  8
0
 10
7.11332
 20
13.2616
 11
7.1068
 21
13.1503
  0
LINE
  8
0
 10
7.1068
 20
13.1503
 11
7.10409
 21
13.1039
  0
LINE
  8
0
 10
7.10409
 20
13.1039
 11
7.10409
 21
5.5
  0
LINE
  8
0
 10
7.10409
 20
5.5
 11
5.60409
 21
4
  0
LINE
  8
0
 10
5.60409
 20
4
 11
0.499999
 21
4
  0
LINE
  8
0
 10
0.499999
 20
4
 11
0
 21
3.5
  0
LINE
  8
0
 10
0
 20
3.5
 11
0
 21
0
  0
LINE
  8
0
 10
0
 20
42
 11
0.499999
 21
41.5
  0
LINE
  8
0
 10
0.499999
 20
41.5
 11
5.60409
 21
41.5
  0
LINE
  8
0
 10
5.60409
 20
41.5
 11
7.10409
 21
40
  0
LINE
  8
0
 10
7.10409
 20
40
 11
7.10409
 21
33.5166
  0
LINE
  8
0
 10
7.10409
 20
33.5166
 11
7.10715
 21
33.4643
  0
LINE
  8
0
 10
7.10715
 20
33.4643
 11
7.11332
 21
33.3589
  0
LINE
  8
0
 10
7.11332
 20
33.3589
 11
7.11756
 21
33.3351
  0
LINE
  8
0
 10
7.11756
 20
33.3351
 11
7.13634
 21
33.23
  0
LINE
  8
0
 10
7.13634
 20
33.23
 11
7.14079
 21
33.2029
  0
LINE
  8
0
 10
7.14079
 20
33.2029
 11
7.14089
 21
33.2025
  0
LINE
  8
0
 10
7.14089
 20
33.2025
 11
7.18583
 21
33.0438
  0
LINE
  8
0
 10
7.18583
 20
33.0438
 11
7.18668
 21
33.0418
  0
LINE
  8
0
 10
7.18668
 20
33.0418
 11
7.24732
 21
32.8969
  0
LINE
  8
0
 10
7.24732
 20
32.8969
 11
7.2492
 21
32.8937
  0
LINE
  8
0
 10
7.2492
 20
32.8937
 11
7.32376
 21
32.766
  0
LINE
  8
0
 10
7.32376
 20
32.766
 11
7.32681
 21
32.7622
  0
LINE
  8
0
 10
7.32681
 20
32.7622
 11
7.41325
 21
32.6542
  0
LINE
  8
0
 10
7.41325
 20
32.6542
 11
7.51359
 21
32.5642
  0
LINE
  8
0
 10
7.51359
 20
32.5642
 11
7.5189
 21
32.561
  0
LINE
  8
0
 10
7.5189
 20
32.561
 11
7.62232
 21
32.4983
  0
LINE
  8
0
 10
7.62232
 20
32.4983
 11
7.62845
 21
32.4961
  0
LINE
  8
0
 10
7.62845
 20
32.4961
 11
7.73676
 21
32.4581
  0
LINE
  8
0
 10
7.73676
 20
32.4581
 11
7.74338
 21
32.4573
  0
LINE
  8
0
 10
7.74338
 20
32.4573
 11
7.85409
 21
32.4446
  0
LINE
  8
0
 10
7.85409
 20
32.4446
 11
11
 21
32.4446
  0
LINE
  8
0
 10
11
 20
32.4446
 11
11
 21
45.5
  0
LINE
  8
0
 10
11
 20
45.5
 11
0
 21
45.5
  0
LINE
  8
0
 10
0
 20
45.5
 11
0
 21
42
  0
LINE
  8
0
 10
7.10409
 20
22.592
 11
7.11025
 21
22.4775
  0
LINE
  8
0
 10
7.11025
 20
22.4775
 11
7.11332
 21
22.4203
  0
LINE
  8
0
 10
7.11332
 20
22.4203
 11
7.13182
 21
22.3076
  0
LINE
  8
0
 10
7.13182
 20
22.3076
 11
7.14079
 21
22.2529
  0
LINE
  8
0
 10
7.14079
 20
22.2529
 11
7.17139
 21
22.1448
  0
LINE
  8
0
 10
7.17139
 20
22.1448
 11
7.18583
 21
22.0938
  0
LINE
  8
0
 10
7.18583
 20
22.0938
 11
7.22794
 21
21.9932
  0
LINE
  8
0
 10
7.22794
 20
21.9932
 11
7.24732
 21
21.947
  0
LINE
  8
0
 10
7.24732
 20
21.947
 11
7.30005
 21
21.8566
  0
LINE
  8
0
 10
7.30005
 20
21.8566
 11
7.32376
 21
21.816
  0
LINE
  8
0
 10
7.32376
 20
21.816
 11
7.41325
 21
21.7042
  0
LINE
  8
0
 10
7.41325
 20
21.7042
 11
7.51359
 21
21.6142
  0
LINE
  8
0
 10
7.51359
 20
21.6142
 11
7.58974
 21
21.5681
  0
LINE
  8
0
 10
7.58974
 20
21.5681
 11
7.62232
 21
21.5483
  0
LINE
  8
0
 10
7.62232
 20
21.5483
 11
7.70267
 21
21.5201
  0
LINE
  8
0
 10
7.70267
 20
21.5201
 11
7.73676
 21
21.5081
  0
LINE
  8
0
 10
7.73676
 20
21.5081
 11
7.85409
 21
21.4946
  0
LINE
  8
0
 10
7.85409
 20
21.4946
 11
11
 21
21.4946
  0
LINE
  8
0
 10
11
 20
21.4946
 11
11
 21
25.1287
  0
LINE
  8
0
 10
11
 20
25.1287
 11
7.85409
 21
25.1287
  0
LINE
  8
0
 10
7.85409
 20
25.1287
 11
7.73676
 21
25.1152
  0
LINE
  8
0
 10
7.73676
 20
25.1152
 11
7.66877
 21
25.0914
  0
LINE
  8
0
 10
7.66877
 20
25.0914
 11
7.62232
 21
25.075
  0
LINE
  8
0
 10
7.62232
 20
25.075
 11
7.55728
 21
25.0356
  0
LINE
  8
0
 10
7.55728
 20
25.0356
 11
7.51359
 21
25.0091
  0
LINE
  8
0
 10
7.51359
 20
25.0091
 11
7.45298
 21
24.9548
  0
LINE
  8
0
 10
7.45298
 20
24.9548
 11
7.41325
 21
24.9192
  0
LINE
  8
0
 10
7.41325
 20
24.9192
 11
7.32376
 21
24.8073
  0
LINE
  8
0
 10
7.32376
 20
24.8073
 11
7.24732
 21
24.6764
  0
LINE
  8
0
 10
7.24732
 20
24.6764
 11
7.20851
 21
24.5837
  0
LINE
  8
0
 10
7.20851
 20
24.5837
 11
7.18583
 21
24.5296
  0
LINE
  8
0
 10
7.18583
 20
24.5296
 11
7.14079
 21
24.3705
  0
LINE
  8
0
 10
7.14079
 20
24.3705
 11
7.12281
 21
24.2609
  0
LINE
  8
0
 10
7.12281
 20
24.2609
 11
7.11332
 21
24.203
  0
LINE
  8
0
 10
7.11332
 20
24.203
 11
7.10716
 21
24.0885
  0
LINE
  8
0
 10
7.10716
 20
24.0885
 11
7.10409
 21
24.0314
  0
LINE
  8
0
 10
7.10409
 20
24.0314
 11
7.10409
 21
22.592
  0
LINE
  8
0
 10
36.5
 20
0
 11
47.5
 21
0
  0
LINE
  8
0
 10
47.5
 20
0
 11
47.5
 21
3.5
  0
LINE
  8
0
 10
47.5
 20
3.5
 11
47
 21
4
  0
LINE
  8
0
 10
47
 20
4
 11
41.8959
 21
4
  0
LINE
  8
0
 10
41.8959
 20
4
 11
40.3959
 21
5.5
  0
LINE
  8
0
 10
40.3959
 20
5.5
 11
40.3959
 21
13.1039
  0
LINE
  8
0
 10
40.3959
 20
13.1039
 11
40.3882
 21
13.2351
  0
LINE
  8
0
 10
40.3882
 20
13.2351
 11
40.3867
 21
13.2616
  0
LINE
  8
0
 10
40.3867
 20
13.2616
 11
40.3695
 21
13.358
  0
LINE
  8
0
 10
40.3695
 20
13.358
 11
40.3593
 21
13.4201
  0
LINE
  8
0
 10
40.3593
 20
13.4201
 11
40.3592
 21
13.4205
  0
LINE
  8
0
 10
40.3592
 20
13.4205
 11
40.3145
 21
13.5783
  0
LINE
  8
0
 10
40.3145
 20
13.5783
 11
40.3142
 21
13.5796
  0
LINE
  8
0
 10
40.3142
 20
13.5796
 11
40.2535
 21
13.7244
  0
LINE
  8
0
 10
40.2535
 20
13.7244
 11
40.2527
 21
13.7264
  0
LINE
  8
0
 10
40.2527
 20
13.7264
 11
40.1776
 21
13.855
  0
LINE
  8
0
 10
40.1776
 20
13.855
 11
40.1762
 21
13.8574
  0
LINE
  8
0
 10
40.1762
 20
13.8574
 11
40.0887
 21
13.9667
  0
LINE
  8
0
 10
40.0887
 20
13.9667
 11
40.0868
 21
13.9692
  0
LINE
  8
0
 10
40.0868
 20
13.9692
 11
39.989
 21
14.0569
  0
LINE
  8
0
 10
39.989
 20
14.0569
 11
39.9864
 21
14.0592
  0
LINE
  8
0
 10
39.9864
 20
14.0592
 11
39.8807
 21
14.1232
  0
LINE
  8
0
 10
39.8807
 20
14.1232
 11
39.8777
 21
14.1251
  0
LINE
  8
0
 10
39.8777
 20
14.1251
 11
39.7666
 21
14.1641
  0
LINE
  8
0
 10
39.7666
 20
14.1641
 11
39.7632
 21
14.1653
  0
LINE
  8
0
 10
39.7632
 20
14.1653
 11
39.6459
 21
14.1788
  0
LINE
  8
0
 10
39.6459
 20
14.1788
 11
36.5
 21
14.1788
  0
LINE
  8
0
 10
36.5
 20
14.1788
 11
36.5
 21
0
  0
LINE
  8
0
 10
36.5
 20
21.4946
 11
39.6459
 21
21.4946
  0
LINE
  8
0
 10
39.6459
 20
21.4946
 11
39.7632
 21
21.5081
  0
LINE
  8
0
 10
39.7632
 20
21.5081
 11
39.8435
 21
21.5363
  0
LINE
  8
0
 10
39.8435
 20
21.5363
 11
39.8777
 21
21.5483
  0
LINE
  8
0
 10
39.8777
 20
21.5483
 11
39.9537
 21
21.5944
  0
LINE
  8
0
 10
39.9537
 20
21.5944
 11
39.9864
 21
21.6142
  0
LINE
  8
0
 10
39.9864
 20
21.6142
 11
40.0868
 21
21.7042
  0
LINE
  8
0
 10
40.0868
 20
21.7042
 11
40.1762
 21
21.816
  0
LINE
  8
0
 10
40.1762
 20
21.816
 11
40.2288
 21
21.9061
  0
LINE
  8
0
 10
40.2288
 20
21.9061
 11
40.2527
 21
21.947
  0
LINE
  8
0
 10
40.2527
 20
21.947
 11
40.2947
 21
22.0472
  0
LINE
  8
0
 10
40.2947
 20
22.0472
 11
40.3142
 21
22.0938
  0
LINE
  8
0
 10
40.3142
 20
22.0938
 11
40.3447
 21
22.2015
  0
LINE
  8
0
 10
40.3447
 20
22.2015
 11
40.3592
 21
22.2529
  0
LINE
  8
0
 10
40.3592
 20
22.2529
 11
40.3776
 21
22.3653
  0
LINE
  8
0
 10
40.3776
 20
22.3653
 11
40.3867
 21
22.4203
  0
LINE
  8
0
 10
40.3867
 20
22.4203
 11
40.3928
 21
22.5345
  0
LINE
  8
0
 10
40.3928
 20
22.5345
 11
40.3959
 21
22.592
  0
LINE
  8
0
 10
40.3959
 20
22.592
 11
40.3959
 21
24.0314
  0
LINE
  8
0
 10
40.3959
 20
24.0314
 11
40.3898
 21
24.1452
  0
LINE
  8
0
 10
40.3898
 20
24.1452
 11
40.3867
 21
24.203
  0
LINE
  8
0
 10
40.3867
 20
24.203
 11
40.3688
 21
24.312
  0
LINE
  8
0
 10
40.3688
 20
24.312
 11
40.3592
 21
24.3705
  0
LINE
  8
0
 10
40.3592
 20
24.3705
 11
40.3142
 21
24.5296
  0
LINE
  8
0
 10
40.3142
 20
24.5296
 11
40.2755
 21
24.6218
  0
LINE
  8
0
 10
40.2755
 20
24.6218
 11
40.2527
 21
24.6764
  0
LINE
  8
0
 10
40.2527
 20
24.6764
 11
40.1762
 21
24.8073
  0
LINE
  8
0
 10
40.1762
 20
24.8073
 11
40.0868
 21
24.9192
  0
LINE
  8
0
 10
40.0868
 20
24.9192
 11
40.0263
 21
24.9734
  0
LINE
  8
0
 10
40.0263
 20
24.9734
 11
39.9864
 21
25.0091
  0
LINE
  8
0
 10
39.9864
 20
25.0091
 11
39.9215
 21
25.0485
  0
LINE
  8
0
 10
39.9215
 20
25.0485
 11
39.8777
 21
25.075
  0
LINE
  8
0
 10
39.8777
 20
25.075
 11
39.8097
 21
25.0989
  0
LINE
  8
0
 10
39.8097
 20
25.0989
 11
39.7632
 21
25.1152
  0
LINE
  8
0
 10
39.7632
 20
25.1152
 11
39.6459
 21
25.1287
  0
LINE
  8
0
 10
39.6459
 20
25.1287
 11
36.5
 21
25.1287
  0
LINE
  8
0
 10
36.5
 20
25.1287
 11
36.5
 21
21.4946
  0
LINE
  8
0
 10
36.5
 20
32.4446
 11
39.6459
 21
32.4446
  0
LINE
  8
0
 10
39.6459
 20
32.4446
 11
39.6526
 21
32.4454
  0
LINE
  8
0
 10
39.6526
 20
32.4454
 11
39.7632
 21
32.4581
  0
LINE
  8
0
 10
39.7632
 20
32.4581
 11
39.7697
 21
32.4604
  0
LINE
  8
0
 10
39.7697
 20
32.4604
 11
39.8777
 21
32.4983
  0
LINE
  8
0
 10
39.8777
 20
32.4983
 11
39.8835
 21
32.5018
  0
LINE
  8
0
 10
39.8835
 20
32.5018
 11
39.9864
 21
32.5642
  0
LINE
  8
0
 10
39.9864
 20
32.5642
 11
40.0868
 21
32.6542
  0
LINE
  8
0
 10
40.0868
 20
32.6542
 11
40.0905
 21
32.6588
  0
LINE
  8
0
 10
40.0905
 20
32.6588
 11
40.1762
 21
32.766
  0
LINE
  8
0
 10
40.1762
 20
32.766
 11
40.1788
 21
32.7704
  0
LINE
  8
0
 10
40.1788
 20
32.7704
 11
40.2527
 21
32.8969
  0
LINE
  8
0
 10
40.2527
 20
32.8969
 11
40.2542
 21
32.9005
  0
LINE
  8
0
 10
40.2542
 20
32.9005
 11
40.3142
 21
33.0438
  0
LINE
  8
0
 10
40.3142
 20
33.0438
 11
40.3148
 21
33.0459
  0
LINE
  8
0
 10
40.3148
 20
33.0459
 11
40.3592
 21
33.2029
  0
LINE
  8
0
 10
40.3592
 20
33.2029
 11
40.3593
 21
33.2032
  0
LINE
  8
0
 10
40.3593
 20
33.2032
 11
40.3637
 21
33.23
  0
LINE
  8
0
 10
40.3637
 20
33.23
 11
40.3867
 21
33.3589
  0
LINE
  8
0
 10
40.3867
 20
33.3589
 11
40.3887
 21
33.3942
  0
LINE
  8
0
 10
40.3887
 20
33.3942
 11
40.3959
 21
33.5166
  0
LINE
  8
0
 10
40.3959
 20
33.5166
 11
40.3959
 21
40
  0
LINE
  8
0
 10
40.3959
 20
40
 11
41.8959
 21
41.5
  0
LINE
  8
0
 10
41.8959
 20
41.5
 11
47
 21
41.5
  0
LINE
  8
0
 10
47
 20
41.5
 11
47.5
 21
42
  0
LINE
  8
0
 10
47.5
 20
42
 11
47.5
 21
45.5
  0
LINE
  8
0
 10
47.5
 20
45.5
 11
36.5
 21
45.5
  0
LINE
  8
0
 10
36.5
 20
45.5
 11
36.5
 21
32.4446
  0
ENDSEC
  0
SECTION
  2
OBJECTS
  0
DICTIONARY
  0
ENDSEC
  0
EOF
