  0
SECTION
  2
BLOCKS
  0
ENDSEC
  0
SECTION
  2
ENTITIES
  0
LINE
  8
0
 10
0
 20
0
 11
11
 21
0
  0
LINE
  8
0
 10
11
 20
0
 11
11
 21
13.6595
  0
LINE
  8
0
 10
11
 20
13.6595
 11
7.85409
 21
13.6595
  0
LINE
  8
0
 10
7.85409
 20
13.6595
 11
7.77323
 21
13.6509
  0
LINE
  8
0
 10
7.77323
 20
13.6509
 11
7.73676
 21
13.6471
  0
LINE
  8
0
 10
7.73676
 20
13.6471
 11
7.66334
 21
13.6234
  0
LINE
  8
0
 10
7.66334
 20
13.6234
 11
7.62232
 21
13.6101
  0
LINE
  8
0
 10
7.62232
 20
13.6101
 11
7.56113
 21
13.5761
  0
LINE
  8
0
 10
7.56113
 20
13.5761
 11
7.51359
 21
13.5496
  0
LINE
  8
0
 10
7.51359
 20
13.5496
 11
7.46747
 21
13.5116
  0
LINE
  8
0
 10
7.46747
 20
13.5116
 11
7.41325
 21
13.4669
  0
LINE
  8
0
 10
7.41325
 20
13.4669
 11
7.38292
 21
13.4321
  0
LINE
  8
0
 10
7.38292
 20
13.4321
 11
7.32376
 21
13.3642
  0
LINE
  8
0
 10
7.32376
 20
13.3642
 11
7.30799
 21
13.3394
  0
LINE
  8
0
 10
7.30799
 20
13.3394
 11
7.24732
 21
13.2439
  0
LINE
  8
0
 10
7.24732
 20
13.2439
 11
7.24323
 21
13.2349
  0
LINE
  8
0
 10
7.24323
 20
13.2349
 11
7.21931
 21
13.1824
  0
LINE
  8
0
 10
7.21931
 20
13.1824
 11
7.19035
 21
13.1265
  0
LINE
  8
0
 10
7.19035
 20
13.1265
 11
7.18583
 21
13.1178
  0
LINE
  8
0
 10
7.18583
 20
13.1178
 11
7.15029
 21
13.0162
  0
LINE
  8
0
 10
7.15029
 20
13.0162
 11
7.14079
 21
12.989
  0
LINE
  8
0
 10
7.14079
 20
12.989
 11
7.1228
 21
12.9003
  0
LINE
  8
0
 10
7.1228
 20
12.9003
 11
7.11332
 21
12.8535
  0
LINE
  8
0
 10
7.11332
 20
12.8535
 11
7.10846
 21
12.7804
  0
LINE
  8
0
 10
7.10846
 20
12.7804
 11
7.10409
 21
12.7146
  0
LINE
  8
0
 10
7.10409
 20
12.7146
 11
7.10409
 21
5.5
  0
LINE
  8
0
 10
7.10409
 20
5.5
 11
5.60409
 21
4
  0
LINE
  8
0
 10
5.60409
 20
4
 11
0.499999
 21
4
  0
LINE
  8
0
 10
0.499999
 20
4
 11
0
 21
3.5
  0
LINE
  8
0
 10
0
 20
3.5
 11
0
 21
0
  0
LINE
  8
0
 10
0
 20
42
 11
0.499999
 21
41.5
  0
LINE
  8
0
 10
0.499999
 20
41.5
 11
5.60409
 21
41.5
  0
LINE
  8
0
 10
5.60409
 20
41.5
 11
7.10409
 21
40
  0
LINE
  8
0
 10
7.10409
 20
40
 11
7.10409
 21
33.0079
  0
LINE
  8
0
 10
7.10409
 20
33.0079
 11
7.10456
 21
32.9992
  0
LINE
  8
0
 10
7.10456
 20
32.9992
 11
7.11332
 21
32.8362
  0
LINE
  8
0
 10
7.11332
 20
32.8362
 11
7.11507
 21
32.8256
  0
LINE
  8
0
 10
7.11507
 20
32.8256
 11
7.14079
 21
32.6688
  0
LINE
  8
0
 10
7.14079
 20
32.6688
 11
7.14422
 21
32.6567
  0
LINE
  8
0
 10
7.14422
 20
32.6567
 11
7.18583
 21
32.5097
  0
LINE
  8
0
 10
7.18583
 20
32.5097
 11
7.19122
 21
32.4968
  0
LINE
  8
0
 10
7.19122
 20
32.4968
 11
7.24732
 21
32.3629
  0
LINE
  8
0
 10
7.24732
 20
32.3629
 11
7.25485
 21
32.35
  0
LINE
  8
0
 10
7.25485
 20
32.35
 11
7.32376
 21
32.2319
  0
LINE
  8
0
 10
7.32376
 20
32.2319
 11
7.33341
 21
32.2199
  0
LINE
  8
0
 10
7.33341
 20
32.2199
 11
7.41325
 21
32.1201
  0
LINE
  8
0
 10
7.41325
 20
32.1201
 11
7.51359
 21
32.0301
  0
LINE
  8
0
 10
7.51359
 20
32.0301
 11
7.5269
 21
32.0221
  0
LINE
  8
0
 10
7.5269
 20
32.0221
 11
7.62232
 21
31.9642
  0
LINE
  8
0
 10
7.62232
 20
31.9642
 11
7.63685
 21
31.9591
  0
LINE
  8
0
 10
7.63685
 20
31.9591
 11
7.73676
 21
31.924
  0
LINE
  8
0
 10
7.73676
 20
31.924
 11
7.75197
 21
31.9223
  0
LINE
  8
0
 10
7.75197
 20
31.9223
 11
7.85409
 21
31.9105
  0
LINE
  8
0
 10
7.85409
 20
31.9105
 11
11
 21
31.9105
  0
LINE
  8
0
 10
11
 20
31.9105
 11
11
 21
45.5
  0
LINE
  8
0
 10
11
 20
45.5
 11
0
 21
45.5
  0
LINE
  8
0
 10
0
 20
45.5
 11
0
 21
42
  0
LINE
  8
0
 10
7.10409
 20
22.0579
 11
7.11059
 21
21.9371
  0
LINE
  8
0
 10
7.11059
 20
21.9371
 11
7.11332
 21
21.8863
  0
LINE
  8
0
 10
7.11332
 20
21.8863
 11
7.13283
 21
21.7674
  0
LINE
  8
0
 10
7.13283
 20
21.7674
 11
7.14079
 21
21.7188
  0
LINE
  8
0
 10
7.14079
 20
21.7188
 11
7.17304
 21
21.6049
  0
LINE
  8
0
 10
7.17304
 20
21.6049
 11
7.18583
 21
21.5597
  0
LINE
  8
0
 10
7.18583
 20
21.5597
 11
7.2302
 21
21.4538
  0
LINE
  8
0
 10
7.2302
 20
21.4538
 11
7.24732
 21
21.4129
  0
LINE
  8
0
 10
7.24732
 20
21.4129
 11
7.30286
 21
21.3178
  0
LINE
  8
0
 10
7.30286
 20
21.3178
 11
7.32376
 21
21.282
  0
LINE
  8
0
 10
7.32376
 20
21.282
 11
7.41325
 21
21.1701
  0
LINE
  8
0
 10
7.41325
 20
21.1701
 11
7.51359
 21
21.0802
  0
LINE
  8
0
 10
7.51359
 20
21.0802
 11
7.59373
 21
21.0316
  0
LINE
  8
0
 10
7.59373
 20
21.0316
 11
7.62232
 21
21.0143
  0
LINE
  8
0
 10
7.62232
 20
21.0143
 11
7.70686
 21
20.9846
  0
LINE
  8
0
 10
7.70686
 20
20.9846
 11
7.73676
 21
20.9741
  0
LINE
  8
0
 10
7.73676
 20
20.9741
 11
7.85409
 21
20.9606
  0
LINE
  8
0
 10
7.85409
 20
20.9606
 11
11
 21
20.9606
  0
LINE
  8
0
 10
11
 20
20.9606
 11
11
 21
24.5947
  0
LINE
  8
0
 10
11
 20
24.5947
 11
7.85409
 21
24.5947
  0
LINE
  8
0
 10
7.85409
 20
24.5947
 11
7.73676
 21
24.5812
  0
LINE
  8
0
 10
7.73676
 20
24.5812
 11
7.66038
 21
24.5544
  0
LINE
  8
0
 10
7.66038
 20
24.5544
 11
7.62232
 21
24.541
  0
LINE
  8
0
 10
7.62232
 20
24.541
 11
7.54929
 21
24.4967
  0
LINE
  8
0
 10
7.54929
 20
24.4967
 11
7.51359
 21
24.4751
  0
LINE
  8
0
 10
7.51359
 20
24.4751
 11
7.44559
 21
24.4141
  0
LINE
  8
0
 10
7.44559
 20
24.4141
 11
7.41325
 21
24.3851
  0
LINE
  8
0
 10
7.41325
 20
24.3851
 11
7.32376
 21
24.2733
  0
LINE
  8
0
 10
7.32376
 20
24.2733
 11
7.24732
 21
24.1423
  0
LINE
  8
0
 10
7.24732
 20
24.1423
 11
7.20396
 21
24.0388
  0
LINE
  8
0
 10
7.20396
 20
24.0388
 11
7.18583
 21
23.9955
  0
LINE
  8
0
 10
7.18583
 20
23.9955
 11
7.14079
 21
23.8364
  0
LINE
  8
0
 10
7.14079
 20
23.8364
 11
7.12077
 21
23.7144
  0
LINE
  8
0
 10
7.12077
 20
23.7144
 11
7.11332
 21
23.669
  0
LINE
  8
0
 10
7.11332
 20
23.669
 11
7.10648
 21
23.5417
  0
LINE
  8
0
 10
7.10648
 20
23.5417
 11
7.10409
 21
23.4973
  0
LINE
  8
0
 10
7.10409
 20
23.4973
 11
7.10409
 21
22.0579
  0
LINE
  8
0
 10
36.5
 20
0
 11
47.5
 21
0
  0
LINE
  8
0
 10
47.5
 20
0
 11
47.5
 21
3.5
  0
LINE
  8
0
 10
47.5
 20
3.5
 11
47
 21
4
  0
LINE
  8
0
 10
47
 20
4
 11
41.8959
 21
4
  0
LINE
  8
0
 10
41.8959
 20
4
 11
40.3959
 21
5.5
  0
LINE
  8
0
 10
40.3959
 20
5.5
 11
40.3959
 21
12.7146
  0
LINE
  8
0
 10
40.3959
 20
12.7146
 11
40.3908
 21
12.7919
  0
LINE
  8
0
 10
40.3908
 20
12.7919
 11
40.3867
 21
12.8535
  0
LINE
  8
0
 10
40.3867
 20
12.8535
 11
40.3667
 21
12.9523
  0
LINE
  8
0
 10
40.3667
 20
12.9523
 11
40.3592
 21
12.989
  0
LINE
  8
0
 10
40.3592
 20
12.989
 11
40.3184
 21
13.1057
  0
LINE
  8
0
 10
40.3184
 20
13.1057
 11
40.3142
 21
13.1178
  0
LINE
  8
0
 10
40.3142
 20
13.1178
 11
40.2807
 21
13.1824
  0
LINE
  8
0
 10
40.2807
 20
13.1824
 11
40.2527
 21
13.2439
  0
LINE
  8
0
 10
40.2527
 20
13.2439
 11
40.2451
 21
13.2559
  0
LINE
  8
0
 10
40.2451
 20
13.2559
 11
40.1762
 21
13.3642
  0
LINE
  8
0
 10
40.1762
 20
13.3642
 11
40.1497
 21
13.3946
  0
LINE
  8
0
 10
40.1497
 20
13.3946
 11
40.0868
 21
13.4669
  0
LINE
  8
0
 10
40.0868
 20
13.4669
 11
40.0405
 21
13.505
  0
LINE
  8
0
 10
40.0405
 20
13.505
 11
39.9864
 21
13.5496
  0
LINE
  8
0
 10
39.9864
 20
13.5496
 11
39.9227
 21
13.585
  0
LINE
  8
0
 10
39.9227
 20
13.585
 11
39.8777
 21
13.6101
  0
LINE
  8
0
 10
39.8777
 20
13.6101
 11
39.8015
 21
13.6347
  0
LINE
  8
0
 10
39.8015
 20
13.6347
 11
39.7632
 21
13.6471
  0
LINE
  8
0
 10
39.7632
 20
13.6471
 11
39.6813
 21
13.6557
  0
LINE
  8
0
 10
39.6813
 20
13.6557
 11
39.6459
 21
13.6595
  0
LINE
  8
0
 10
39.6459
 20
13.6595
 11
36.5
 21
13.6595
  0
LINE
  8
0
 10
36.5
 20
13.6595
 11
36.5
 21
0
  0
LINE
  8
0
 10
36.5
 20
20.9606
 11
39.6459
 21
20.9606
  0
LINE
  8
0
 10
39.6459
 20
20.9606
 11
39.7632
 21
20.9741
  0
LINE
  8
0
 10
39.7632
 20
20.9741
 11
39.8477
 21
21.0037
  0
LINE
  8
0
 10
39.8477
 20
21.0037
 11
39.8777
 21
21.0143
  0
LINE
  8
0
 10
39.8777
 20
21.0143
 11
39.9577
 21
21.0628
  0
LINE
  8
0
 10
39.9577
 20
21.0628
 11
39.9864
 21
21.0802
  0
LINE
  8
0
 10
39.9864
 20
21.0802
 11
40.0868
 21
21.1701
  0
LINE
  8
0
 10
40.0868
 20
21.1701
 11
40.1762
 21
21.282
  0
LINE
  8
0
 10
40.1762
 20
21.282
 11
40.2316
 21
21.3768
  0
LINE
  8
0
 10
40.2316
 20
21.3768
 11
40.2527
 21
21.4129
  0
LINE
  8
0
 10
40.2527
 20
21.4129
 11
40.2969
 21
21.5185
  0
LINE
  8
0
 10
40.2969
 20
21.5185
 11
40.3142
 21
21.5597
  0
LINE
  8
0
 10
40.3142
 20
21.5597
 11
40.3463
 21
21.6733
  0
LINE
  8
0
 10
40.3463
 20
21.6733
 11
40.3592
 21
21.7188
  0
LINE
  8
0
 10
40.3592
 20
21.7188
 11
40.3786
 21
21.8373
  0
LINE
  8
0
 10
40.3786
 20
21.8373
 11
40.3867
 21
21.8863
  0
LINE
  8
0
 10
40.3867
 20
21.8863
 11
40.3932
 21
22.0067
  0
LINE
  8
0
 10
40.3932
 20
22.0067
 11
40.3959
 21
22.0579
  0
LINE
  8
0
 10
40.3959
 20
22.0579
 11
40.3959
 21
23.4973
  0
LINE
  8
0
 10
40.3959
 20
23.4973
 11
40.3891
 21
23.6236
  0
LINE
  8
0
 10
40.3891
 20
23.6236
 11
40.3867
 21
23.669
  0
LINE
  8
0
 10
40.3867
 20
23.669
 11
40.3668
 21
23.7901
  0
LINE
  8
0
 10
40.3668
 20
23.7901
 11
40.3592
 21
23.8364
  0
LINE
  8
0
 10
40.3592
 20
23.8364
 11
40.3142
 21
23.9955
  0
LINE
  8
0
 10
40.3142
 20
23.9955
 11
40.2711
 21
24.0984
  0
LINE
  8
0
 10
40.2711
 20
24.0984
 11
40.2527
 21
24.1423
  0
LINE
  8
0
 10
40.2527
 20
24.1423
 11
40.1762
 21
24.2733
  0
LINE
  8
0
 10
40.1762
 20
24.2733
 11
40.0868
 21
24.3851
  0
LINE
  8
0
 10
40.0868
 20
24.3851
 11
40.019
 21
24.4459
  0
LINE
  8
0
 10
40.019
 20
24.4459
 11
39.9864
 21
24.4751
  0
LINE
  8
0
 10
39.9864
 20
24.4751
 11
39.9135
 21
24.5192
  0
LINE
  8
0
 10
39.9135
 20
24.5192
 11
39.8777
 21
24.541
  0
LINE
  8
0
 10
39.8777
 20
24.541
 11
39.8014
 21
24.5678
  0
LINE
  8
0
 10
39.8014
 20
24.5678
 11
39.7632
 21
24.5812
  0
LINE
  8
0
 10
39.7632
 20
24.5812
 11
39.6459
 21
24.5947
  0
LINE
  8
0
 10
39.6459
 20
24.5947
 11
36.5
 21
24.5947
  0
LINE
  8
0
 10
36.5
 20
24.5947
 11
36.5
 21
20.9606
  0
LINE
  8
0
 10
36.5
 20
31.9105
 11
39.6459
 21
31.9105
  0
LINE
  8
0
 10
39.6459
 20
31.9105
 11
39.6612
 21
31.9123
  0
LINE
  8
0
 10
39.6612
 20
31.9123
 11
39.7632
 21
31.924
  0
LINE
  8
0
 10
39.7632
 20
31.924
 11
39.778
 21
31.9292
  0
LINE
  8
0
 10
39.778
 20
31.9292
 11
39.8777
 21
31.9642
  0
LINE
  8
0
 10
39.8777
 20
31.9642
 11
39.8914
 21
31.9725
  0
LINE
  8
0
 10
39.8914
 20
31.9725
 11
39.9864
 21
32.0301
  0
LINE
  8
0
 10
39.9864
 20
32.0301
 11
40.0868
 21
32.1201
  0
LINE
  8
0
 10
40.0868
 20
32.1201
 11
40.097
 21
32.1329
  0
LINE
  8
0
 10
40.097
 20
32.1329
 11
40.1762
 21
32.2319
  0
LINE
  8
0
 10
40.1762
 20
32.2319
 11
40.1843
 21
32.2458
  0
LINE
  8
0
 10
40.1843
 20
32.2458
 11
40.2527
 21
32.3629
  0
LINE
  8
0
 10
40.2527
 20
32.3629
 11
40.2586
 21
32.3771
  0
LINE
  8
0
 10
40.2586
 20
32.3771
 11
40.3142
 21
32.5097
  0
LINE
  8
0
 10
40.3142
 20
32.5097
 11
40.318
 21
32.5234
  0
LINE
  8
0
 10
40.318
 20
32.5234
 11
40.3592
 21
32.6688
  0
LINE
  8
0
 10
40.3592
 20
32.6688
 11
40.3612
 21
32.6812
  0
LINE
  8
0
 10
40.3612
 20
32.6812
 11
40.3867
 21
32.8362
  0
LINE
  8
0
 10
40.3867
 20
32.8362
 11
40.3873
 21
32.8469
  0
LINE
  8
0
 10
40.3873
 20
32.8469
 11
40.3959
 21
33.0079
  0
LINE
  8
0
 10
40.3959
 20
33.0079
 11
40.3959
 21
40
  0
LINE
  8
0
 10
40.3959
 20
40
 11
41.8959
 21
41.5
  0
LINE
  8
0
 10
41.8959
 20
41.5
 11
47
 21
41.5
  0
LINE
  8
0
 10
47
 20
41.5
 11
47.5
 21
42
  0
LINE
  8
0
 10
47.5
 20
42
 11
47.5
 21
45.5
  0
LINE
  8
0
 10
47.5
 20
45.5
 11
36.5
 21
45.5
  0
LINE
  8
0
 10
36.5
 20
45.5
 11
36.5
 21
31.9105
  0
ENDSEC
  0
SECTION
  2
OBJECTS
  0
DICTIONARY
  0
ENDSEC
  0
EOF
