  0
SECTION
  2
BLOCKS
  0
ENDSEC
  0
SECTION
  2
ENTITIES
  0
LINE
  8
0
 10
0
 20
0
 11
11
 21
0
  0
LINE
  8
0
 10
11
 20
0
 11
11
 21
13.2819
  0
LINE
  8
0
 10
11
 20
13.2819
 11
7.85409
 21
13.2819
  0
LINE
  8
0
 10
7.85409
 20
13.2819
 11
7.8331
 21
13.2799
  0
LINE
  8
0
 10
7.8331
 20
13.2799
 11
7.73676
 21
13.271
  0
LINE
  8
0
 10
7.73676
 20
13.271
 11
7.71834
 21
13.2657
  0
LINE
  8
0
 10
7.71834
 20
13.2657
 11
7.62232
 21
13.2384
  0
LINE
  8
0
 10
7.62232
 20
13.2384
 11
7.60917
 21
13.232
  0
LINE
  8
0
 10
7.60917
 20
13.232
 11
7.51359
 21
13.1851
  0
LINE
  8
0
 10
7.51359
 20
13.1851
 11
7.5073
 21
13.1806
  0
LINE
  8
0
 10
7.5073
 20
13.1806
 11
7.42702
 21
13.1223
  0
LINE
  8
0
 10
7.42702
 20
13.1223
 11
7.41419
 21
13.1138
  0
LINE
  8
0
 10
7.41419
 20
13.1138
 11
7.41325
 21
13.1132
  0
LINE
  8
0
 10
7.41325
 20
13.1132
 11
7.3319
 21
13.0378
  0
LINE
  8
0
 10
7.3319
 20
13.0378
 11
7.32376
 21
13.0303
  0
LINE
  8
0
 10
7.32376
 20
13.0303
 11
7.26105
 21
12.9507
  0
LINE
  8
0
 10
7.26105
 20
12.9507
 11
7.24732
 21
12.9332
  0
LINE
  8
0
 10
7.24732
 20
12.9332
 11
7.20255
 21
12.854
  0
LINE
  8
0
 10
7.20255
 20
12.854
 11
7.18583
 21
12.8244
  0
LINE
  8
0
 10
7.18583
 20
12.8244
 11
7.15722
 21
12.7495
  0
LINE
  8
0
 10
7.15722
 20
12.7495
 11
7.14079
 21
12.7065
  0
LINE
  8
0
 10
7.14079
 20
12.7065
 11
7.12584
 21
12.639
  0
LINE
  8
0
 10
7.12584
 20
12.639
 11
7.11332
 21
12.5825
  0
LINE
  8
0
 10
7.11332
 20
12.5825
 11
7.1091
 21
12.5244
  0
LINE
  8
0
 10
7.1091
 20
12.5244
 11
7.10409
 21
12.4553
  0
LINE
  8
0
 10
7.10409
 20
12.4553
 11
7.10409
 21
5.5
  0
LINE
  8
0
 10
7.10409
 20
5.5
 11
5.60409
 21
4
  0
LINE
  8
0
 10
5.60409
 20
4
 11
0.499999
 21
4
  0
LINE
  8
0
 10
0.499999
 20
4
 11
0
 21
3.5
  0
LINE
  8
0
 10
0
 20
3.5
 11
0
 21
0
  0
LINE
  8
0
 10
0
 20
42
 11
0.499999
 21
41.5
  0
LINE
  8
0
 10
0.499999
 20
41.5
 11
5.60409
 21
41.5
  0
LINE
  8
0
 10
5.60409
 20
41.5
 11
7.10409
 21
40
  0
LINE
  8
0
 10
7.10409
 20
40
 11
7.10409
 21
32.4739
  0
LINE
  8
0
 10
7.10409
 20
32.4739
 11
7.10524
 21
32.4524
  0
LINE
  8
0
 10
7.10524
 20
32.4524
 11
7.11332
 21
32.3022
  0
LINE
  8
0
 10
7.11332
 20
32.3022
 11
7.11711
 21
32.2791
  0
LINE
  8
0
 10
7.11711
 20
32.2791
 11
7.14079
 21
32.1348
  0
LINE
  8
0
 10
7.14079
 20
32.1348
 11
7.14755
 21
32.1109
  0
LINE
  8
0
 10
7.14755
 20
32.1109
 11
7.18583
 21
31.9757
  0
LINE
  8
0
 10
7.18583
 20
31.9757
 11
7.19577
 21
31.9519
  0
LINE
  8
0
 10
7.19577
 20
31.9519
 11
7.24732
 21
31.8288
  0
LINE
  8
0
 10
7.24732
 20
31.8288
 11
7.26049
 21
31.8063
  0
LINE
  8
0
 10
7.26049
 20
31.8063
 11
7.32376
 21
31.6979
  0
LINE
  8
0
 10
7.32376
 20
31.6979
 11
7.34001
 21
31.6776
  0
LINE
  8
0
 10
7.34001
 20
31.6776
 11
7.41325
 21
31.5861
  0
LINE
  8
0
 10
7.41325
 20
31.5861
 11
7.51359
 21
31.4961
  0
LINE
  8
0
 10
7.51359
 20
31.4961
 11
7.53489
 21
31.4832
  0
LINE
  8
0
 10
7.53489
 20
31.4832
 11
7.62232
 21
31.4302
  0
LINE
  8
0
 10
7.62232
 20
31.4302
 11
7.64525
 21
31.4221
  0
LINE
  8
0
 10
7.64525
 20
31.4221
 11
7.73676
 21
31.39
  0
LINE
  8
0
 10
7.73676
 20
31.39
 11
7.76056
 21
31.3873
  0
LINE
  8
0
 10
7.76056
 20
31.3873
 11
7.85409
 21
31.3765
  0
LINE
  8
0
 10
7.85409
 20
31.3765
 11
11
 21
31.3765
  0
LINE
  8
0
 10
11
 20
31.3765
 11
11
 21
45.5
  0
LINE
  8
0
 10
11
 20
45.5
 11
0
 21
45.5
  0
LINE
  8
0
 10
0
 20
45.5
 11
0
 21
42
  0
LINE
  8
0
 10
7.10409
 20
21.5239
 11
7.11093
 21
21.3967
  0
LINE
  8
0
 10
7.11093
 20
21.3967
 11
7.11332
 21
21.3522
  0
LINE
  8
0
 10
7.11332
 20
21.3522
 11
7.13384
 21
21.2271
  0
LINE
  8
0
 10
7.13384
 20
21.2271
 11
7.14079
 21
21.1848
  0
LINE
  8
0
 10
7.14079
 20
21.1848
 11
7.1747
 21
21.065
  0
LINE
  8
0
 10
7.1747
 20
21.065
 11
7.18583
 21
21.0257
  0
LINE
  8
0
 10
7.18583
 20
21.0257
 11
7.23247
 21
20.9143
  0
LINE
  8
0
 10
7.23247
 20
20.9143
 11
7.24732
 21
20.8789
  0
LINE
  8
0
 10
7.24732
 20
20.8789
 11
7.30567
 21
20.7789
  0
LINE
  8
0
 10
7.30567
 20
20.7789
 11
7.32376
 21
20.7479
  0
LINE
  8
0
 10
7.32376
 20
20.7479
 11
7.41325
 21
20.6361
  0
LINE
  8
0
 10
7.41325
 20
20.6361
 11
7.51359
 21
20.5461
  0
LINE
  8
0
 10
7.51359
 20
20.5461
 11
7.59771
 21
20.4951
  0
LINE
  8
0
 10
7.59771
 20
20.4951
 11
7.62232
 21
20.4802
  0
LINE
  8
0
 10
7.62232
 20
20.4802
 11
7.71105
 21
20.449
  0
LINE
  8
0
 10
7.71105
 20
20.449
 11
7.73676
 21
20.44
  0
LINE
  8
0
 10
7.73676
 20
20.44
 11
7.85409
 21
20.4265
  0
LINE
  8
0
 10
7.85409
 20
20.4265
 11
11
 21
20.4265
  0
LINE
  8
0
 10
11
 20
20.4265
 11
11
 21
24.0606
  0
LINE
  8
0
 10
11
 20
24.0606
 11
7.85409
 21
24.0606
  0
LINE
  8
0
 10
7.85409
 20
24.0606
 11
7.73676
 21
24.0471
  0
LINE
  8
0
 10
7.73676
 20
24.0471
 11
7.65198
 21
24.0173
  0
LINE
  8
0
 10
7.65198
 20
24.0173
 11
7.62232
 21
24.0069
  0
LINE
  8
0
 10
7.62232
 20
24.0069
 11
7.5413
 21
23.9578
  0
LINE
  8
0
 10
7.5413
 20
23.9578
 11
7.51359
 21
23.941
  0
LINE
  8
0
 10
7.51359
 20
23.941
 11
7.4382
 21
23.8734
  0
LINE
  8
0
 10
7.4382
 20
23.8734
 11
7.41325
 21
23.8511
  0
LINE
  8
0
 10
7.41325
 20
23.8511
 11
7.32376
 21
23.7392
  0
LINE
  8
0
 10
7.32376
 20
23.7392
 11
7.24732
 21
23.6083
  0
LINE
  8
0
 10
7.24732
 20
23.6083
 11
7.19942
 21
23.4939
  0
LINE
  8
0
 10
7.19942
 20
23.4939
 11
7.18583
 21
23.4615
  0
LINE
  8
0
 10
7.18583
 20
23.4615
 11
7.14079
 21
23.3024
  0
LINE
  8
0
 10
7.14079
 20
23.3024
 11
7.11874
 21
23.1679
  0
LINE
  8
0
 10
7.11874
 20
23.1679
 11
7.11332
 21
23.1349
  0
LINE
  8
0
 10
7.11332
 20
23.1349
 11
7.10579
 21
22.9949
  0
LINE
  8
0
 10
7.10579
 20
22.9949
 11
7.10409
 21
22.9633
  0
LINE
  8
0
 10
7.10409
 20
22.9633
 11
7.10409
 21
21.5239
  0
LINE
  8
0
 10
36.5
 20
0
 11
47.5
 21
0
  0
LINE
  8
0
 10
47.5
 20
0
 11
47.5
 21
3.5
  0
LINE
  8
0
 10
47.5
 20
3.5
 11
47
 21
4
  0
LINE
  8
0
 10
47
 20
4
 11
41.8959
 21
4
  0
LINE
  8
0
 10
41.8959
 20
4
 11
40.3959
 21
5.5
  0
LINE
  8
0
 10
40.3959
 20
5.5
 11
40.3959
 21
12.4553
  0
LINE
  8
0
 10
40.3959
 20
12.4553
 11
40.3916
 21
12.5148
  0
LINE
  8
0
 10
40.3916
 20
12.5148
 11
40.3867
 21
12.5825
  0
LINE
  8
0
 10
40.3867
 20
12.5825
 11
40.3709
 21
12.6537
  0
LINE
  8
0
 10
40.3709
 20
12.6537
 11
40.3592
 21
12.7065
  0
LINE
  8
0
 10
40.3592
 20
12.7065
 11
40.3284
 21
12.7872
  0
LINE
  8
0
 10
40.3284
 20
12.7872
 11
40.3142
 21
12.8244
  0
LINE
  8
0
 10
40.3142
 20
12.8244
 11
40.2654
 21
12.9107
  0
LINE
  8
0
 10
40.2654
 20
12.9107
 11
40.2527
 21
12.9332
  0
LINE
  8
0
 10
40.2527
 20
12.9332
 11
40.1841
 21
13.0202
  0
LINE
  8
0
 10
40.1841
 20
13.0202
 11
40.1762
 21
13.0303
  0
LINE
  8
0
 10
40.1762
 20
13.0303
 11
40.0877
 21
13.1123
  0
LINE
  8
0
 10
40.0877
 20
13.1123
 11
40.0868
 21
13.1132
  0
LINE
  8
0
 10
40.0868
 20
13.1132
 11
40.073
 21
13.1223
  0
LINE
  8
0
 10
40.073
 20
13.1223
 11
39.9864
 21
13.1851
  0
LINE
  8
0
 10
39.9864
 20
13.1851
 11
39.9783
 21
13.1891
  0
LINE
  8
0
 10
39.9783
 20
13.1891
 11
39.8777
 21
13.2384
  0
LINE
  8
0
 10
39.8777
 20
13.2384
 11
39.862
 21
13.2429
  0
LINE
  8
0
 10
39.862
 20
13.2429
 11
39.7632
 21
13.271
  0
LINE
  8
0
 10
39.7632
 20
13.271
 11
39.7431
 21
13.2728
  0
LINE
  8
0
 10
39.7431
 20
13.2728
 11
39.6459
 21
13.2819
  0
LINE
  8
0
 10
39.6459
 20
13.2819
 11
36.5
 21
13.2819
  0
LINE
  8
0
 10
36.5
 20
13.2819
 11
36.5
 21
0
  0
LINE
  8
0
 10
36.5
 20
20.4265
 11
39.6459
 21
20.4265
  0
LINE
  8
0
 10
39.6459
 20
20.4265
 11
39.7632
 21
20.44
  0
LINE
  8
0
 10
39.7632
 20
20.44
 11
39.8519
 21
20.4711
  0
LINE
  8
0
 10
39.8519
 20
20.4711
 11
39.8777
 21
20.4802
  0
LINE
  8
0
 10
39.8777
 20
20.4802
 11
39.9617
 21
20.5311
  0
LINE
  8
0
 10
39.9617
 20
20.5311
 11
39.9864
 21
20.5461
  0
LINE
  8
0
 10
39.9864
 20
20.5461
 11
40.0868
 21
20.6361
  0
LINE
  8
0
 10
40.0868
 20
20.6361
 11
40.1762
 21
20.7479
  0
LINE
  8
0
 10
40.1762
 20
20.7479
 11
40.2344
 21
20.8475
  0
LINE
  8
0
 10
40.2344
 20
20.8475
 11
40.2527
 21
20.8789
  0
LINE
  8
0
 10
40.2527
 20
20.8789
 11
40.2991
 21
20.9898
  0
LINE
  8
0
 10
40.2991
 20
20.9898
 11
40.3142
 21
21.0257
  0
LINE
  8
0
 10
40.3142
 20
21.0257
 11
40.3479
 21
21.145
  0
LINE
  8
0
 10
40.3479
 20
21.145
 11
40.3592
 21
21.1848
  0
LINE
  8
0
 10
40.3592
 20
21.1848
 11
40.3796
 21
21.3093
  0
LINE
  8
0
 10
40.3796
 20
21.3093
 11
40.3867
 21
21.3522
  0
LINE
  8
0
 10
40.3867
 20
21.3522
 11
40.3935
 21
21.4789
  0
LINE
  8
0
 10
40.3935
 20
21.4789
 11
40.3959
 21
21.5239
  0
LINE
  8
0
 10
40.3959
 20
21.5239
 11
40.3959
 21
22.9633
  0
LINE
  8
0
 10
40.3959
 20
22.9633
 11
40.3885
 21
23.1019
  0
LINE
  8
0
 10
40.3885
 20
23.1019
 11
40.3867
 21
23.1349
  0
LINE
  8
0
 10
40.3867
 20
23.1349
 11
40.3648
 21
23.2681
  0
LINE
  8
0
 10
40.3648
 20
23.2681
 11
40.3592
 21
23.3024
  0
LINE
  8
0
 10
40.3592
 20
23.3024
 11
40.3142
 21
23.4615
  0
LINE
  8
0
 10
40.3142
 20
23.4615
 11
40.2666
 21
23.575
  0
LINE
  8
0
 10
40.2666
 20
23.575
 11
40.2527
 21
23.6083
  0
LINE
  8
0
 10
40.2527
 20
23.6083
 11
40.1762
 21
23.7392
  0
LINE
  8
0
 10
40.1762
 20
23.7392
 11
40.0868
 21
23.8511
  0
LINE
  8
0
 10
40.0868
 20
23.8511
 11
40.0117
 21
23.9184
  0
LINE
  8
0
 10
40.0117
 20
23.9184
 11
39.9864
 21
23.941
  0
LINE
  8
0
 10
39.9864
 20
23.941
 11
39.9056
 21
23.99
  0
LINE
  8
0
 10
39.9056
 20
23.99
 11
39.8777
 21
24.0069
  0
LINE
  8
0
 10
39.8777
 20
24.0069
 11
39.7931
 21
24.0367
  0
LINE
  8
0
 10
39.7931
 20
24.0367
 11
39.7632
 21
24.0471
  0
LINE
  8
0
 10
39.7632
 20
24.0471
 11
39.6459
 21
24.0606
  0
LINE
  8
0
 10
39.6459
 20
24.0606
 11
36.5
 21
24.0606
  0
LINE
  8
0
 10
36.5
 20
24.0606
 11
36.5
 21
20.4265
  0
LINE
  8
0
 10
36.5
 20
31.3765
 11
39.6459
 21
31.3765
  0
LINE
  8
0
 10
39.6459
 20
31.3765
 11
39.6698
 21
31.3792
  0
LINE
  8
0
 10
39.6698
 20
31.3792
 11
39.7632
 21
31.39
  0
LINE
  8
0
 10
39.7632
 20
31.39
 11
39.7864
 21
31.3981
  0
LINE
  8
0
 10
39.7864
 20
31.3981
 11
39.8777
 21
31.4302
  0
LINE
  8
0
 10
39.8777
 20
31.4302
 11
39.8993
 21
31.4433
  0
LINE
  8
0
 10
39.8993
 20
31.4433
 11
39.9864
 21
31.4961
  0
LINE
  8
0
 10
39.9864
 20
31.4961
 11
40.0868
 21
31.5861
  0
LINE
  8
0
 10
40.0868
 20
31.5861
 11
40.1035
 21
31.607
  0
LINE
  8
0
 10
40.1035
 20
31.607
 11
40.1762
 21
31.6979
  0
LINE
  8
0
 10
40.1762
 20
31.6979
 11
40.1899
 21
31.7213
  0
LINE
  8
0
 10
40.1899
 20
31.7213
 11
40.2527
 21
31.8288
  0
LINE
  8
0
 10
40.2527
 20
31.8288
 11
40.2631
 21
31.8536
  0
LINE
  8
0
 10
40.2631
 20
31.8536
 11
40.3142
 21
31.9757
  0
LINE
  8
0
 10
40.3142
 20
31.9757
 11
40.3213
 21
32.0008
  0
LINE
  8
0
 10
40.3213
 20
32.0008
 11
40.3592
 21
32.1348
  0
LINE
  8
0
 10
40.3592
 20
32.1348
 11
40.3632
 21
32.1593
  0
LINE
  8
0
 10
40.3632
 20
32.1593
 11
40.3867
 21
32.3022
  0
LINE
  8
0
 10
40.3867
 20
32.3022
 11
40.3879
 21
32.3253
  0
LINE
  8
0
 10
40.3879
 20
32.3253
 11
40.3959
 21
32.4739
  0
LINE
  8
0
 10
40.3959
 20
32.4739
 11
40.3959
 21
40
  0
LINE
  8
0
 10
40.3959
 20
40
 11
41.8959
 21
41.5
  0
LINE
  8
0
 10
41.8959
 20
41.5
 11
47
 21
41.5
  0
LINE
  8
0
 10
47
 20
41.5
 11
47.5
 21
42
  0
LINE
  8
0
 10
47.5
 20
42
 11
47.5
 21
45.5
  0
LINE
  8
0
 10
47.5
 20
45.5
 11
36.5
 21
45.5
  0
LINE
  8
0
 10
36.5
 20
45.5
 11
36.5
 21
31.3765
  0
ENDSEC
  0
SECTION
  2
OBJECTS
  0
DICTIONARY
  0
ENDSEC
  0
EOF
