  0
SECTION
  2
BLOCKS
  0
ENDSEC
  0
SECTION
  2
ENTITIES
  0
LINE
  8
0
 10
0
 20
0
 11
11
 21
0
  0
LINE
  8
0
 10
11
 20
0
 11
11
 21
13.0647
  0
LINE
  8
0
 10
11
 20
13.0647
 11
7.85409
 21
13.0647
  0
LINE
  8
0
 10
7.85409
 20
13.0647
 11
7.75426
 21
13.0567
  0
LINE
  8
0
 10
7.75426
 20
13.0567
 11
7.73676
 21
13.0552
  0
LINE
  8
0
 10
7.73676
 20
13.0552
 11
7.64151
 21
13.0318
  0
LINE
  8
0
 10
7.64151
 20
13.0318
 11
7.62232
 21
13.0271
  0
LINE
  8
0
 10
7.62232
 20
13.0271
 11
7.53508
 21
12.99
  0
LINE
  8
0
 10
7.53508
 20
12.99
 11
7.51359
 21
12.9809
  0
LINE
  8
0
 10
7.51359
 20
12.9809
 11
7.43701
 21
12.9327
  0
LINE
  8
0
 10
7.43701
 20
12.9327
 11
7.41325
 21
12.9178
  0
LINE
  8
0
 10
7.41325
 20
12.9178
 11
7.34909
 21
12.8616
  0
LINE
  8
0
 10
7.34909
 20
12.8616
 11
7.32376
 21
12.8394
  0
LINE
  8
0
 10
7.32376
 20
12.8394
 11
7.27286
 21
12.7782
  0
LINE
  8
0
 10
7.27286
 20
12.7782
 11
7.24732
 21
12.7475
  0
LINE
  8
0
 10
7.24732
 20
12.7475
 11
7.20967
 21
12.6845
  0
LINE
  8
0
 10
7.20967
 20
12.6845
 11
7.18583
 21
12.6446
  0
LINE
  8
0
 10
7.18583
 20
12.6446
 11
7.16069
 21
12.5823
  0
LINE
  8
0
 10
7.16069
 20
12.5823
 11
7.14079
 21
12.5331
  0
LINE
  8
0
 10
7.14079
 20
12.5331
 11
7.12692
 21
12.4738
  0
LINE
  8
0
 10
7.12692
 20
12.4738
 11
7.11332
 21
12.4157
  0
LINE
  8
0
 10
7.11332
 20
12.4157
 11
7.10913
 21
12.3611
  0
LINE
  8
0
 10
7.10913
 20
12.3611
 11
7.10409
 21
12.2953
  0
LINE
  8
0
 10
7.10409
 20
12.2953
 11
7.10409
 21
5.5
  0
LINE
  8
0
 10
7.10409
 20
5.5
 11
5.60409
 21
4
  0
LINE
  8
0
 10
5.60409
 20
4
 11
0.499999
 21
4
  0
LINE
  8
0
 10
0.499999
 20
4
 11
0
 21
3.5
  0
LINE
  8
0
 10
0
 20
3.5
 11
0
 21
0
  0
LINE
  8
0
 10
0
 20
42
 11
0.499999
 21
41.5
  0
LINE
  8
0
 10
0.499999
 20
41.5
 11
5.60409
 21
41.5
  0
LINE
  8
0
 10
5.60409
 20
41.5
 11
7.10409
 21
40
  0
LINE
  8
0
 10
7.10409
 20
40
 11
7.10409
 21
31.9398
  0
LINE
  8
0
 10
7.10409
 20
31.9398
 11
7.10593
 21
31.9056
  0
LINE
  8
0
 10
7.10593
 20
31.9056
 11
7.11332
 21
31.7681
  0
LINE
  8
0
 10
7.11332
 20
31.7681
 11
7.11914
 21
31.7327
  0
LINE
  8
0
 10
7.11914
 20
31.7327
 11
7.14079
 21
31.6007
  0
LINE
  8
0
 10
7.14079
 20
31.6007
 11
7.15089
 21
31.5651
  0
LINE
  8
0
 10
7.15089
 20
31.5651
 11
7.18583
 21
31.4416
  0
LINE
  8
0
 10
7.18583
 20
31.4416
 11
7.20032
 21
31.407
  0
LINE
  8
0
 10
7.20032
 20
31.407
 11
7.24732
 21
31.2948
  0
LINE
  8
0
 10
7.24732
 20
31.2948
 11
7.26614
 21
31.2626
  0
LINE
  8
0
 10
7.26614
 20
31.2626
 11
7.32376
 21
31.1638
  0
LINE
  8
0
 10
7.32376
 20
31.1638
 11
7.34662
 21
31.1353
  0
LINE
  8
0
 10
7.34662
 20
31.1353
 11
7.41325
 21
31.052
  0
LINE
  8
0
 10
7.41325
 20
31.052
 11
7.51359
 21
30.962
  0
LINE
  8
0
 10
7.51359
 20
30.962
 11
7.54288
 21
30.9443
  0
LINE
  8
0
 10
7.54288
 20
30.9443
 11
7.62232
 21
30.8961
  0
LINE
  8
0
 10
7.62232
 20
30.8961
 11
7.65364
 21
30.8851
  0
LINE
  8
0
 10
7.65364
 20
30.8851
 11
7.73676
 21
30.8559
  0
LINE
  8
0
 10
7.73676
 20
30.8559
 11
7.76915
 21
30.8522
  0
LINE
  8
0
 10
7.76915
 20
30.8522
 11
7.85409
 21
30.8424
  0
LINE
  8
0
 10
7.85409
 20
30.8424
 11
11
 21
30.8424
  0
LINE
  8
0
 10
11
 20
30.8424
 11
11
 21
45.5
  0
LINE
  8
0
 10
11
 20
45.5
 11
0
 21
45.5
  0
LINE
  8
0
 10
0
 20
45.5
 11
0
 21
42
  0
LINE
  8
0
 10
7.10409
 20
20.9898
 11
7.11127
 21
20.8563
  0
LINE
  8
0
 10
7.11127
 20
20.8563
 11
7.11332
 21
20.8182
  0
LINE
  8
0
 10
7.11332
 20
20.8182
 11
7.13485
 21
20.6869
  0
LINE
  8
0
 10
7.13485
 20
20.6869
 11
7.14079
 21
20.6507
  0
LINE
  8
0
 10
7.14079
 20
20.6507
 11
7.17636
 21
20.5251
  0
LINE
  8
0
 10
7.17636
 20
20.5251
 11
7.18583
 21
20.4916
  0
LINE
  8
0
 10
7.18583
 20
20.4916
 11
7.23473
 21
20.3749
  0
LINE
  8
0
 10
7.23473
 20
20.3749
 11
7.24732
 21
20.3448
  0
LINE
  8
0
 10
7.24732
 20
20.3448
 11
7.30847
 21
20.24
  0
LINE
  8
0
 10
7.30847
 20
20.24
 11
7.32376
 21
20.2139
  0
LINE
  8
0
 10
7.32376
 20
20.2139
 11
7.41325
 21
20.102
  0
LINE
  8
0
 10
7.41325
 20
20.102
 11
7.51359
 21
20.012
  0
LINE
  8
0
 10
7.51359
 20
20.012
 11
7.6017
 21
19.9586
  0
LINE
  8
0
 10
7.6017
 20
19.9586
 11
7.62232
 21
19.9462
  0
LINE
  8
0
 10
7.62232
 20
19.9462
 11
7.71525
 21
19.9135
  0
LINE
  8
0
 10
7.71525
 20
19.9135
 11
7.73676
 21
19.906
  0
LINE
  8
0
 10
7.73676
 20
19.906
 11
7.85409
 21
19.8924
  0
LINE
  8
0
 10
7.85409
 20
19.8924
 11
11
 21
19.8924
  0
LINE
  8
0
 10
11
 20
19.8924
 11
11
 21
23.5266
  0
LINE
  8
0
 10
11
 20
23.5266
 11
7.85409
 21
23.5266
  0
LINE
  8
0
 10
7.85409
 20
23.5266
 11
7.73676
 21
23.5131
  0
LINE
  8
0
 10
7.73676
 20
23.5131
 11
7.64358
 21
23.4803
  0
LINE
  8
0
 10
7.64358
 20
23.4803
 11
7.62232
 21
23.4729
  0
LINE
  8
0
 10
7.62232
 20
23.4729
 11
7.5333
 21
23.4189
  0
LINE
  8
0
 10
7.5333
 20
23.4189
 11
7.51359
 21
23.407
  0
LINE
  8
0
 10
7.51359
 20
23.407
 11
7.43081
 21
23.3327
  0
LINE
  8
0
 10
7.43081
 20
23.3327
 11
7.41325
 21
23.317
  0
LINE
  8
0
 10
7.41325
 20
23.317
 11
7.32376
 21
23.2052
  0
LINE
  8
0
 10
7.32376
 20
23.2052
 11
7.24732
 21
23.0742
  0
LINE
  8
0
 10
7.24732
 20
23.0742
 11
7.19487
 21
22.949
  0
LINE
  8
0
 10
7.19487
 20
22.949
 11
7.18583
 21
22.9274
  0
LINE
  8
0
 10
7.18583
 20
22.9274
 11
7.14079
 21
22.7683
  0
LINE
  8
0
 10
7.14079
 20
22.7683
 11
7.1167
 21
22.6215
  0
LINE
  8
0
 10
7.1167
 20
22.6215
 11
7.11332
 21
22.6009
  0
LINE
  8
0
 10
7.11332
 20
22.6009
 11
7.10511
 21
22.4482
  0
LINE
  8
0
 10
7.10511
 20
22.4482
 11
7.10409
 21
22.4292
  0
LINE
  8
0
 10
7.10409
 20
22.4292
 11
7.10409
 21
20.9898
  0
LINE
  8
0
 10
36.5
 20
0
 11
47.5
 21
0
  0
LINE
  8
0
 10
47.5
 20
0
 11
47.5
 21
3.5
  0
LINE
  8
0
 10
47.5
 20
3.5
 11
47
 21
4
  0
LINE
  8
0
 10
47
 20
4
 11
41.8959
 21
4
  0
LINE
  8
0
 10
41.8959
 20
4
 11
40.3959
 21
5.5
  0
LINE
  8
0
 10
40.3959
 20
5.5
 11
40.3959
 21
12.2953
  0
LINE
  8
0
 10
40.3959
 20
12.2953
 11
40.3916
 21
12.3516
  0
LINE
  8
0
 10
40.3916
 20
12.3516
 11
40.3867
 21
12.4157
  0
LINE
  8
0
 10
40.3867
 20
12.4157
 11
40.3723
 21
12.4773
  0
LINE
  8
0
 10
40.3723
 20
12.4773
 11
40.3592
 21
12.5331
  0
LINE
  8
0
 10
40.3592
 20
12.5331
 11
40.3329
 21
12.5982
  0
LINE
  8
0
 10
40.3329
 20
12.5982
 11
40.3142
 21
12.6446
  0
LINE
  8
0
 10
40.3142
 20
12.6446
 11
40.2746
 21
12.7108
  0
LINE
  8
0
 10
40.2746
 20
12.7108
 11
40.2527
 21
12.7475
  0
LINE
  8
0
 10
40.2527
 20
12.7475
 11
40.1992
 21
12.8118
  0
LINE
  8
0
 10
40.1992
 20
12.8118
 11
40.1762
 21
12.8394
  0
LINE
  8
0
 10
40.1762
 20
12.8394
 11
40.1091
 21
12.8982
  0
LINE
  8
0
 10
40.1091
 20
12.8982
 11
40.0868
 21
12.9178
  0
LINE
  8
0
 10
40.0868
 20
12.9178
 11
40.007
 21
12.9679
  0
LINE
  8
0
 10
40.007
 20
12.9679
 11
39.9864
 21
12.9809
  0
LINE
  8
0
 10
39.9864
 20
12.9809
 11
39.8964
 21
13.0191
  0
LINE
  8
0
 10
39.8964
 20
13.0191
 11
39.8777
 21
13.0271
  0
LINE
  8
0
 10
39.8777
 20
13.0271
 11
39.7806
 21
13.051
  0
LINE
  8
0
 10
39.7806
 20
13.051
 11
39.7632
 21
13.0552
  0
LINE
  8
0
 10
39.7632
 20
13.0552
 11
39.6627
 21
13.0634
  0
LINE
  8
0
 10
39.6627
 20
13.0634
 11
39.6459
 21
13.0647
  0
LINE
  8
0
 10
39.6459
 20
13.0647
 11
36.5
 21
13.0647
  0
LINE
  8
0
 10
36.5
 20
13.0647
 11
36.5
 21
0
  0
LINE
  8
0
 10
36.5
 20
19.8924
 11
39.6459
 21
19.8924
  0
LINE
  8
0
 10
39.6459
 20
19.8924
 11
39.7632
 21
19.906
  0
LINE
  8
0
 10
39.7632
 20
19.906
 11
39.8561
 21
19.9386
  0
LINE
  8
0
 10
39.8561
 20
19.9386
 11
39.8777
 21
19.9462
  0
LINE
  8
0
 10
39.8777
 20
19.9462
 11
39.9656
 21
19.9995
  0
LINE
  8
0
 10
39.9656
 20
19.9995
 11
39.9864
 21
20.012
  0
LINE
  8
0
 10
39.9864
 20
20.012
 11
40.0868
 21
20.102
  0
LINE
  8
0
 10
40.0868
 20
20.102
 11
40.1762
 21
20.2139
  0
LINE
  8
0
 10
40.1762
 20
20.2139
 11
40.2372
 21
20.3182
  0
LINE
  8
0
 10
40.2372
 20
20.3182
 11
40.2527
 21
20.3448
  0
LINE
  8
0
 10
40.2527
 20
20.3448
 11
40.3014
 21
20.4611
  0
LINE
  8
0
 10
40.3014
 20
20.4611
 11
40.3142
 21
20.4916
  0
LINE
  8
0
 10
40.3142
 20
20.4916
 11
40.3496
 21
20.6167
  0
LINE
  8
0
 10
40.3496
 20
20.6167
 11
40.3592
 21
20.6507
  0
LINE
  8
0
 10
40.3592
 20
20.6507
 11
40.3806
 21
20.7814
  0
LINE
  8
0
 10
40.3806
 20
20.7814
 11
40.3867
 21
20.8182
  0
LINE
  8
0
 10
40.3867
 20
20.8182
 11
40.3938
 21
20.951
  0
LINE
  8
0
 10
40.3938
 20
20.951
 11
40.3959
 21
20.9898
  0
LINE
  8
0
 10
40.3959
 20
20.9898
 11
40.3959
 21
22.4292
  0
LINE
  8
0
 10
40.3959
 20
22.4292
 11
40.3878
 21
22.5803
  0
LINE
  8
0
 10
40.3878
 20
22.5803
 11
40.3867
 21
22.6009
  0
LINE
  8
0
 10
40.3867
 20
22.6009
 11
40.3628
 21
22.7462
  0
LINE
  8
0
 10
40.3628
 20
22.7462
 11
40.3592
 21
22.7683
  0
LINE
  8
0
 10
40.3592
 20
22.7683
 11
40.3142
 21
22.9274
  0
LINE
  8
0
 10
40.3142
 20
22.9274
 11
40.2622
 21
23.0516
  0
LINE
  8
0
 10
40.2622
 20
23.0516
 11
40.2527
 21
23.0742
  0
LINE
  8
0
 10
40.2527
 20
23.0742
 11
40.1762
 21
23.2052
  0
LINE
  8
0
 10
40.1762
 20
23.2052
 11
40.0868
 21
23.317
  0
LINE
  8
0
 10
40.0868
 20
23.317
 11
40.0044
 21
23.3908
  0
LINE
  8
0
 10
40.0044
 20
23.3908
 11
39.9864
 21
23.407
  0
LINE
  8
0
 10
39.9864
 20
23.407
 11
39.8977
 21
23.4607
  0
LINE
  8
0
 10
39.8977
 20
23.4607
 11
39.8777
 21
23.4729
  0
LINE
  8
0
 10
39.8777
 20
23.4729
 11
39.7847
 21
23.5055
  0
LINE
  8
0
 10
39.7847
 20
23.5055
 11
39.7632
 21
23.5131
  0
LINE
  8
0
 10
39.7632
 20
23.5131
 11
39.6459
 21
23.5266
  0
LINE
  8
0
 10
39.6459
 20
23.5266
 11
36.5
 21
23.5266
  0
LINE
  8
0
 10
36.5
 20
23.5266
 11
36.5
 21
19.8924
  0
LINE
  8
0
 10
36.5
 20
30.8424
 11
39.6459
 21
30.8424
  0
LINE
  8
0
 10
39.6459
 20
30.8424
 11
39.6784
 21
30.8462
  0
LINE
  8
0
 10
39.6784
 20
30.8462
 11
39.7632
 21
30.8559
  0
LINE
  8
0
 10
39.7632
 20
30.8559
 11
39.7947
 21
30.867
  0
LINE
  8
0
 10
39.7947
 20
30.867
 11
39.8777
 21
30.8961
  0
LINE
  8
0
 10
39.8777
 20
30.8961
 11
39.9072
 21
30.914
  0
LINE
  8
0
 10
39.9072
 20
30.914
 11
39.9864
 21
30.962
  0
LINE
  8
0
 10
39.9864
 20
30.962
 11
40.0868
 21
31.052
  0
LINE
  8
0
 10
40.0868
 20
31.052
 11
40.11
 21
31.081
  0
LINE
  8
0
 10
40.11
 20
31.081
 11
40.1762
 21
31.1638
  0
LINE
  8
0
 10
40.1762
 20
31.1638
 11
40.1954
 21
31.1967
  0
LINE
  8
0
 10
40.1954
 20
31.1967
 11
40.2527
 21
31.2948
  0
LINE
  8
0
 10
40.2527
 20
31.2948
 11
40.2675
 21
31.3302
  0
LINE
  8
0
 10
40.2675
 20
31.3302
 11
40.3142
 21
31.4416
  0
LINE
  8
0
 10
40.3142
 20
31.4416
 11
40.3245
 21
31.4783
  0
LINE
  8
0
 10
40.3245
 20
31.4783
 11
40.3592
 21
31.6007
  0
LINE
  8
0
 10
40.3592
 20
31.6007
 11
40.3652
 21
31.6373
  0
LINE
  8
0
 10
40.3652
 20
31.6373
 11
40.3867
 21
31.7681
  0
LINE
  8
0
 10
40.3867
 20
31.7681
 11
40.3886
 21
31.8036
  0
LINE
  8
0
 10
40.3886
 20
31.8036
 11
40.3959
 21
31.9398
  0
LINE
  8
0
 10
40.3959
 20
31.9398
 11
40.3959
 21
40
  0
LINE
  8
0
 10
40.3959
 20
40
 11
41.8959
 21
41.5
  0
LINE
  8
0
 10
41.8959
 20
41.5
 11
47
 21
41.5
  0
LINE
  8
0
 10
47
 20
41.5
 11
47.5
 21
42
  0
LINE
  8
0
 10
47.5
 20
42
 11
47.5
 21
45.5
  0
LINE
  8
0
 10
47.5
 20
45.5
 11
36.5
 21
45.5
  0
LINE
  8
0
 10
36.5
 20
45.5
 11
36.5
 21
30.8424
  0
ENDSEC
  0
SECTION
  2
OBJECTS
  0
DICTIONARY
  0
ENDSEC
  0
EOF
