  0
SECTION
  2
BLOCKS
  0
ENDSEC
  0
SECTION
  2
ENTITIES
  0
LINE
  8
0
 10
0
 20
0
 11
11
 21
0
  0
LINE
  8
0
 10
11
 20
0
 11
11
 21
12.9724
  0
LINE
  8
0
 10
11
 20
12.9724
 11
7.85409
 21
12.9724
  0
LINE
  8
0
 10
7.85409
 20
12.9724
 11
7.80651
 21
12.9687
  0
LINE
  8
0
 10
7.80651
 20
12.9687
 11
7.73676
 21
12.9632
  0
LINE
  8
0
 10
7.73676
 20
12.9632
 11
7.69007
 21
12.952
  0
LINE
  8
0
 10
7.69007
 20
12.952
 11
7.62232
 21
12.9357
  0
LINE
  8
0
 10
7.62232
 20
12.9357
 11
7.57718
 21
12.917
  0
LINE
  8
0
 10
7.57718
 20
12.917
 11
7.51359
 21
12.8906
  0
LINE
  8
0
 10
7.51359
 20
12.8906
 11
7.47081
 21
12.8644
  0
LINE
  8
0
 10
7.47081
 20
12.8644
 11
7.41325
 21
12.8291
  0
LINE
  8
0
 10
7.41325
 20
12.8291
 11
7.37378
 21
12.7954
  0
LINE
  8
0
 10
7.37378
 20
12.7954
 11
7.32376
 21
12.7526
  0
LINE
  8
0
 10
7.32376
 20
12.7526
 11
7.28872
 21
12.7116
  0
LINE
  8
0
 10
7.28872
 20
12.7116
 11
7.24732
 21
12.663
  0
LINE
  8
0
 10
7.24732
 20
12.663
 11
7.21797
 21
12.6151
  0
LINE
  8
0
 10
7.21797
 20
12.6151
 11
7.18583
 21
12.5626
  0
LINE
  8
0
 10
7.18583
 20
12.5626
 11
7.16344
 21
12.5085
  0
LINE
  8
0
 10
7.16344
 20
12.5085
 11
7.14079
 21
12.4538
  0
LINE
  8
0
 10
7.14079
 20
12.4538
 11
7.12658
 21
12.3946
  0
LINE
  8
0
 10
7.12658
 20
12.3946
 11
7.11332
 21
12.3393
  0
LINE
  8
0
 10
7.11332
 20
12.3393
 11
7.10836
 21
12.2763
  0
LINE
  8
0
 10
7.10836
 20
12.2763
 11
7.10409
 21
12.2219
  0
LINE
  8
0
 10
7.10409
 20
12.2219
 11
7.10409
 21
5.5
  0
LINE
  8
0
 10
7.10409
 20
5.5
 11
5.60409
 21
4
  0
LINE
  8
0
 10
5.60409
 20
4
 11
0.499999
 21
4
  0
LINE
  8
0
 10
0.499999
 20
4
 11
0
 21
3.5
  0
LINE
  8
0
 10
0
 20
3.5
 11
0
 21
0
  0
LINE
  8
0
 10
0
 20
42
 11
0.499999
 21
41.5
  0
LINE
  8
0
 10
0.499999
 20
41.5
 11
5.60409
 21
41.5
  0
LINE
  8
0
 10
5.60409
 20
41.5
 11
7.10409
 21
40
  0
LINE
  8
0
 10
7.10409
 20
40
 11
7.10409
 21
30.8717
  0
LINE
  8
0
 10
7.10409
 20
30.8717
 11
7.10729
 21
30.8121
  0
LINE
  8
0
 10
7.10729
 20
30.8121
 11
7.11332
 21
30.7
  0
LINE
  8
0
 10
7.11332
 20
30.7
 11
7.12321
 21
30.6398
  0
LINE
  8
0
 10
7.12321
 20
30.6398
 11
7.14079
 21
30.5326
  0
LINE
  8
0
 10
7.14079
 20
30.5326
 11
7.15755
 21
30.4734
  0
LINE
  8
0
 10
7.15755
 20
30.4734
 11
7.18583
 21
30.3735
  0
LINE
  8
0
 10
7.18583
 20
30.3735
 11
7.20941
 21
30.3172
  0
LINE
  8
0
 10
7.20941
 20
30.3172
 11
7.24732
 21
30.2267
  0
LINE
  8
0
 10
7.24732
 20
30.2267
 11
7.27743
 21
30.1751
  0
LINE
  8
0
 10
7.27743
 20
30.1751
 11
7.32376
 21
30.0957
  0
LINE
  8
0
 10
7.32376
 20
30.0957
 11
7.35982
 21
30.0507
  0
LINE
  8
0
 10
7.35982
 20
30.0507
 11
7.41325
 21
29.9839
  0
LINE
  8
0
 10
7.41325
 20
29.9839
 11
7.51359
 21
29.8939
  0
LINE
  8
0
 10
7.51359
 20
29.8939
 11
7.55887
 21
29.8665
  0
LINE
  8
0
 10
7.55887
 20
29.8665
 11
7.62232
 21
29.828
  0
LINE
  8
0
 10
7.62232
 20
29.828
 11
7.67044
 21
29.8111
  0
LINE
  8
0
 10
7.67044
 20
29.8111
 11
7.73676
 21
29.7878
  0
LINE
  8
0
 10
7.73676
 20
29.7878
 11
7.78634
 21
29.7821
  0
LINE
  8
0
 10
7.78634
 20
29.7821
 11
7.85409
 21
29.7743
  0
LINE
  8
0
 10
7.85409
 20
29.7743
 11
11
 21
29.7743
  0
LINE
  8
0
 10
11
 20
29.7743
 11
11
 21
45.5
  0
LINE
  8
0
 10
11
 20
45.5
 11
0
 21
45.5
  0
LINE
  8
0
 10
0
 20
45.5
 11
0
 21
42
  0
LINE
  8
0
 10
7.10409
 20
19.9217
 11
7.11195
 21
19.7756
  0
LINE
  8
0
 10
7.11195
 20
19.7756
 11
7.11332
 21
19.75
  0
LINE
  8
0
 10
7.11332
 20
19.75
 11
7.13688
 21
19.6065
  0
LINE
  8
0
 10
7.13688
 20
19.6065
 11
7.14079
 21
19.5826
  0
LINE
  8
0
 10
7.14079
 20
19.5826
 11
7.17967
 21
19.4453
  0
LINE
  8
0
 10
7.17967
 20
19.4453
 11
7.18583
 21
19.4235
  0
LINE
  8
0
 10
7.18583
 20
19.4235
 11
7.23925
 21
19.296
  0
LINE
  8
0
 10
7.23925
 20
19.296
 11
7.24732
 21
19.2767
  0
LINE
  8
0
 10
7.24732
 20
19.2767
 11
7.31409
 21
19.1623
  0
LINE
  8
0
 10
7.31409
 20
19.1623
 11
7.32376
 21
19.1457
  0
LINE
  8
0
 10
7.32376
 20
19.1457
 11
7.41325
 21
19.0339
  0
LINE
  8
0
 10
7.41325
 20
19.0339
 11
7.51359
 21
18.9439
  0
LINE
  8
0
 10
7.51359
 20
18.9439
 11
7.60968
 21
18.8857
  0
LINE
  8
0
 10
7.60968
 20
18.8857
 11
7.62232
 21
18.878
  0
LINE
  8
0
 10
7.62232
 20
18.878
 11
7.72363
 21
18.8425
  0
LINE
  8
0
 10
7.72363
 20
18.8425
 11
7.73676
 21
18.8378
  0
LINE
  8
0
 10
7.73676
 20
18.8378
 11
7.85409
 21
18.8243
  0
LINE
  8
0
 10
7.85409
 20
18.8243
 11
11
 21
18.8243
  0
LINE
  8
0
 10
11
 20
18.8243
 11
11
 21
22.4585
  0
LINE
  8
0
 10
11
 20
22.4585
 11
7.85409
 21
22.4585
  0
LINE
  8
0
 10
7.85409
 20
22.4585
 11
7.73676
 21
22.445
  0
LINE
  8
0
 10
7.73676
 20
22.445
 11
7.62679
 21
22.4063
  0
LINE
  8
0
 10
7.62679
 20
22.4063
 11
7.62232
 21
22.4048
  0
LINE
  8
0
 10
7.62232
 20
22.4048
 11
7.51732
 21
22.3411
  0
LINE
  8
0
 10
7.51732
 20
22.3411
 11
7.51359
 21
22.3389
  0
LINE
  8
0
 10
7.51359
 20
22.3389
 11
7.41603
 21
22.2514
  0
LINE
  8
0
 10
7.41603
 20
22.2514
 11
7.41325
 21
22.2489
  0
LINE
  8
0
 10
7.41325
 20
22.2489
 11
7.32376
 21
22.1371
  0
LINE
  8
0
 10
7.32376
 20
22.1371
 11
7.24732
 21
22.0061
  0
LINE
  8
0
 10
7.24732
 20
22.0061
 11
7.19112
 21
21.8719
  0
LINE
  8
0
 10
7.19112
 20
21.8719
 11
7.18676
 21
21.8624
  0
LINE
  8
0
 10
7.18676
 20
21.8624
 11
7.18583
 21
21.8603
  0
LINE
  8
0
 10
7.18583
 20
21.8603
 11
7.14965
 21
21.7429
  0
LINE
  8
0
 10
7.14965
 20
21.7429
 11
7.14079
 21
21.7142
  0
LINE
  8
0
 10
7.14079
 20
21.7142
 11
7.12358
 21
21.6178
  0
LINE
  8
0
 10
7.12358
 20
21.6178
 11
7.11332
 21
21.5603
  0
LINE
  8
0
 10
7.11332
 20
21.5603
 11
7.1091
 21
21.4883
  0
LINE
  8
0
 10
7.1091
 20
21.4883
 11
7.10409
 21
21.4026
  0
LINE
  8
0
 10
7.10409
 20
21.4026
 11
7.10409
 21
19.9217
  0
LINE
  8
0
 10
36.5
 20
0
 11
47.5
 21
0
  0
LINE
  8
0
 10
47.5
 20
0
 11
47.5
 21
3.5
  0
LINE
  8
0
 10
47.5
 20
3.5
 11
47
 21
4
  0
LINE
  8
0
 10
47
 20
4
 11
41.8959
 21
4
  0
LINE
  8
0
 10
41.8959
 20
4
 11
40.3959
 21
5.5
  0
LINE
  8
0
 10
40.3959
 20
5.5
 11
40.3959
 21
12.2219
  0
LINE
  8
0
 10
40.3959
 20
12.2219
 11
40.3908
 21
12.2869
  0
LINE
  8
0
 10
40.3908
 20
12.2869
 11
40.3867
 21
12.3393
  0
LINE
  8
0
 10
40.3867
 20
12.3393
 11
40.372
 21
12.4005
  0
LINE
  8
0
 10
40.372
 20
12.4005
 11
40.3592
 21
12.4538
  0
LINE
  8
0
 10
40.3592
 20
12.4538
 11
40.336
 21
12.5099
  0
LINE
  8
0
 10
40.336
 20
12.5099
 11
40.3142
 21
12.5626
  0
LINE
  8
0
 10
40.3142
 20
12.5626
 11
40.2837
 21
12.6124
  0
LINE
  8
0
 10
40.2837
 20
12.6124
 11
40.2527
 21
12.663
  0
LINE
  8
0
 10
40.2527
 20
12.663
 11
40.2163
 21
12.7056
  0
LINE
  8
0
 10
40.2163
 20
12.7056
 11
40.1762
 21
12.7526
  0
LINE
  8
0
 10
40.1762
 20
12.7526
 11
40.1354
 21
12.7875
  0
LINE
  8
0
 10
40.1354
 20
12.7875
 11
40.0868
 21
12.8291
  0
LINE
  8
0
 10
40.0868
 20
12.8291
 11
40.0426
 21
12.8562
  0
LINE
  8
0
 10
40.0426
 20
12.8562
 11
39.9864
 21
12.8906
  0
LINE
  8
0
 10
39.9864
 20
12.8906
 11
39.9401
 21
12.9098
  0
LINE
  8
0
 10
39.9401
 20
12.9098
 11
39.8777
 21
12.9357
  0
LINE
  8
0
 10
39.8777
 20
12.9357
 11
39.8302
 21
12.9471
  0
LINE
  8
0
 10
39.8302
 20
12.9471
 11
39.7632
 21
12.9632
  0
LINE
  8
0
 10
39.7632
 20
12.9632
 11
39.7154
 21
12.967
  0
LINE
  8
0
 10
39.7154
 20
12.967
 11
39.6459
 21
12.9724
  0
LINE
  8
0
 10
39.6459
 20
12.9724
 11
36.5
 21
12.9724
  0
LINE
  8
0
 10
36.5
 20
12.9724
 11
36.5
 21
0
  0
LINE
  8
0
 10
36.5
 20
18.8243
 11
39.6459
 21
18.8243
  0
LINE
  8
0
 10
39.6459
 20
18.8243
 11
39.7632
 21
18.8378
  0
LINE
  8
0
 10
39.7632
 20
18.8378
 11
39.8644
 21
18.8734
  0
LINE
  8
0
 10
39.8644
 20
18.8734
 11
39.8777
 21
18.878
  0
LINE
  8
0
 10
39.8777
 20
18.878
 11
39.9736
 21
18.9361
  0
LINE
  8
0
 10
39.9736
 20
18.9361
 11
39.9864
 21
18.9439
  0
LINE
  8
0
 10
39.9864
 20
18.9439
 11
40.0868
 21
19.0339
  0
LINE
  8
0
 10
40.0868
 20
19.0339
 11
40.1762
 21
19.1457
  0
LINE
  8
0
 10
40.1762
 20
19.1457
 11
40.2427
 21
19.2597
  0
LINE
  8
0
 10
40.2427
 20
19.2597
 11
40.2527
 21
19.2767
  0
LINE
  8
0
 10
40.2527
 20
19.2767
 11
40.3059
 21
19.4037
  0
LINE
  8
0
 10
40.3059
 20
19.4037
 11
40.3142
 21
19.4235
  0
LINE
  8
0
 10
40.3142
 20
19.4235
 11
40.3529
 21
19.5602
  0
LINE
  8
0
 10
40.3529
 20
19.5602
 11
40.3592
 21
19.5826
  0
LINE
  8
0
 10
40.3592
 20
19.5826
 11
40.3826
 21
19.7254
  0
LINE
  8
0
 10
40.3826
 20
19.7254
 11
40.3867
 21
19.75
  0
LINE
  8
0
 10
40.3867
 20
19.75
 11
40.3945
 21
19.8954
  0
LINE
  8
0
 10
40.3945
 20
19.8954
 11
40.3959
 21
19.9217
  0
LINE
  8
0
 10
40.3959
 20
19.9217
 11
40.3959
 21
21.4026
  0
LINE
  8
0
 10
40.3959
 20
21.4026
 11
40.3917
 21
21.4749
  0
LINE
  8
0
 10
40.3917
 20
21.4749
 11
40.3867
 21
21.5603
  0
LINE
  8
0
 10
40.3867
 20
21.5603
 11
40.367
 21
21.6702
  0
LINE
  8
0
 10
40.367
 20
21.6702
 11
40.3592
 21
21.7142
  0
LINE
  8
0
 10
40.3592
 20
21.7142
 11
40.3151
 21
21.8571
  0
LINE
  8
0
 10
40.3151
 20
21.8571
 11
40.3142
 21
21.8603
  0
LINE
  8
0
 10
40.3142
 20
21.8603
 11
40.3089
 21
21.8719
  0
LINE
  8
0
 10
40.3089
 20
21.8719
 11
40.2533
 21
22.0047
  0
LINE
  8
0
 10
40.2533
 20
22.0047
 11
40.2527
 21
22.0061
  0
LINE
  8
0
 10
40.2527
 20
22.0061
 11
40.1762
 21
22.1371
  0
LINE
  8
0
 10
40.1762
 20
22.1371
 11
40.0868
 21
22.2489
  0
LINE
  8
0
 10
40.0868
 20
22.2489
 11
39.9898
 21
22.3358
  0
LINE
  8
0
 10
39.9898
 20
22.3358
 11
39.9864
 21
22.3389
  0
LINE
  8
0
 10
39.9864
 20
22.3389
 11
39.8819
 21
22.4022
  0
LINE
  8
0
 10
39.8819
 20
22.4022
 11
39.8777
 21
22.4048
  0
LINE
  8
0
 10
39.8777
 20
22.4048
 11
39.768
 21
22.4433
  0
LINE
  8
0
 10
39.768
 20
22.4433
 11
39.7632
 21
22.445
  0
LINE
  8
0
 10
39.7632
 20
22.445
 11
39.6459
 21
22.4585
  0
LINE
  8
0
 10
39.6459
 20
22.4585
 11
36.5
 21
22.4585
  0
LINE
  8
0
 10
36.5
 20
22.4585
 11
36.5
 21
18.8243
  0
LINE
  8
0
 10
36.5
 20
29.7743
 11
39.6459
 21
29.7743
  0
LINE
  8
0
 10
39.6459
 20
29.7743
 11
39.6955
 21
29.78
  0
LINE
  8
0
 10
39.6955
 20
29.78
 11
39.7632
 21
29.7878
  0
LINE
  8
0
 10
39.7632
 20
29.7878
 11
39.8114
 21
29.8047
  0
LINE
  8
0
 10
39.8114
 20
29.8047
 11
39.8777
 21
29.828
  0
LINE
  8
0
 10
39.8777
 20
29.828
 11
39.923
 21
29.8555
  0
LINE
  8
0
 10
39.923
 20
29.8555
 11
39.9864
 21
29.8939
  0
LINE
  8
0
 10
39.9864
 20
29.8939
 11
40.0868
 21
29.9839
  0
LINE
  8
0
 10
40.0868
 20
29.9839
 11
40.123
 21
30.0291
  0
LINE
  8
0
 10
40.123
 20
30.0291
 11
40.1762
 21
30.0957
  0
LINE
  8
0
 10
40.1762
 20
30.0957
 11
40.2065
 21
30.1476
  0
LINE
  8
0
 10
40.2065
 20
30.1476
 11
40.2527
 21
30.2267
  0
LINE
  8
0
 10
40.2527
 20
30.2267
 11
40.2764
 21
30.2833
  0
LINE
  8
0
 10
40.2764
 20
30.2833
 11
40.3142
 21
30.3735
  0
LINE
  8
0
 10
40.3142
 20
30.3735
 11
40.3311
 21
30.4332
  0
LINE
  8
0
 10
40.3311
 20
30.4332
 11
40.3592
 21
30.5326
  0
LINE
  8
0
 10
40.3592
 20
30.5326
 11
40.3692
 21
30.5934
  0
LINE
  8
0
 10
40.3692
 20
30.5934
 11
40.3867
 21
30.7
  0
LINE
  8
0
 10
40.3867
 20
30.7
 11
40.3899
 21
30.7603
  0
LINE
  8
0
 10
40.3899
 20
30.7603
 11
40.3959
 21
30.8717
  0
LINE
  8
0
 10
40.3959
 20
30.8717
 11
40.3959
 21
40
  0
LINE
  8
0
 10
40.3959
 20
40
 11
41.8959
 21
41.5
  0
LINE
  8
0
 10
41.8959
 20
41.5
 11
47
 21
41.5
  0
LINE
  8
0
 10
47
 20
41.5
 11
47.5
 21
42
  0
LINE
  8
0
 10
47.5
 20
42
 11
47.5
 21
45.5
  0
LINE
  8
0
 10
47.5
 20
45.5
 11
36.5
 21
45.5
  0
LINE
  8
0
 10
36.5
 20
45.5
 11
36.5
 21
29.7743
  0
ENDSEC
  0
SECTION
  2
OBJECTS
  0
DICTIONARY
  0
ENDSEC
  0
EOF
