  0
SECTION
  2
BLOCKS
  0
ENDSEC
  0
SECTION
  2
ENTITIES
  0
LINE
  8
0
 10
0
 20
0
 11
11
 21
0
  0
LINE
  8
0
 10
11
 20
0
 11
11
 21
13.075
  0
LINE
  8
0
 10
11
 20
13.075
 11
7.85409
 21
13.075
  0
LINE
  8
0
 10
7.85409
 20
13.075
 11
7.83459
 21
13.0735
  0
LINE
  8
0
 10
7.83459
 20
13.0735
 11
7.73676
 21
13.0655
  0
LINE
  8
0
 10
7.73676
 20
13.0655
 11
7.71678
 21
13.0606
  0
LINE
  8
0
 10
7.71678
 20
13.0606
 11
7.62232
 21
13.0372
  0
LINE
  8
0
 10
7.62232
 20
13.0372
 11
7.6009
 21
13.0281
  0
LINE
  8
0
 10
7.6009
 20
13.0281
 11
7.51359
 21
12.9908
  0
LINE
  8
0
 10
7.51359
 20
12.9908
 11
7.4903
 21
12.9761
  0
LINE
  8
0
 10
7.4903
 20
12.9761
 11
7.41325
 21
12.9275
  0
LINE
  8
0
 10
7.41325
 20
12.9275
 11
7.38836
 21
12.9056
  0
LINE
  8
0
 10
7.38836
 20
12.9056
 11
7.32376
 21
12.8487
  0
LINE
  8
0
 10
7.32376
 20
12.8487
 11
7.29837
 21
12.8181
  0
LINE
  8
0
 10
7.29837
 20
12.8181
 11
7.24732
 21
12.7565
  0
LINE
  8
0
 10
7.24732
 20
12.7565
 11
7.22325
 21
12.716
  0
LINE
  8
0
 10
7.22325
 20
12.716
 11
7.18583
 21
12.6531
  0
LINE
  8
0
 10
7.18583
 20
12.6531
 11
7.1654
 21
12.6023
  0
LINE
  8
0
 10
7.1654
 20
12.6023
 11
7.14079
 21
12.5411
  0
LINE
  8
0
 10
7.14079
 20
12.5411
 11
7.12662
 21
12.4803
  0
LINE
  8
0
 10
7.12662
 20
12.4803
 11
7.11332
 21
12.4232
  0
LINE
  8
0
 10
7.11332
 20
12.4232
 11
7.108
 21
12.3536
  0
LINE
  8
0
 10
7.108
 20
12.3536
 11
7.10409
 21
12.3023
  0
LINE
  8
0
 10
7.10409
 20
12.3023
 11
7.10409
 21
5.5
  0
LINE
  8
0
 10
7.10409
 20
5.5
 11
5.60409
 21
4
  0
LINE
  8
0
 10
5.60409
 20
4
 11
0.499999
 21
4
  0
LINE
  8
0
 10
0.499999
 20
4
 11
0
 21
3.5
  0
LINE
  8
0
 10
0
 20
3.5
 11
0
 21
0
  0
LINE
  8
0
 10
0
 20
42
 11
0.499999
 21
41.5
  0
LINE
  8
0
 10
0.499999
 20
41.5
 11
5.60409
 21
41.5
  0
LINE
  8
0
 10
5.60409
 20
41.5
 11
7.10409
 21
40
  0
LINE
  8
0
 10
7.10409
 20
40
 11
7.10409
 21
30.3376
  0
LINE
  8
0
 10
7.10409
 20
30.3376
 11
7.10798
 21
30.2653
  0
LINE
  8
0
 10
7.10798
 20
30.2653
 11
7.11332
 21
30.166
  0
LINE
  8
0
 10
7.11332
 20
30.166
 11
7.12524
 21
30.0933
  0
LINE
  8
0
 10
7.12524
 20
30.0933
 11
7.14079
 21
29.9985
  0
LINE
  8
0
 10
7.14079
 20
29.9985
 11
7.16089
 21
29.9276
  0
LINE
  8
0
 10
7.16089
 20
29.9276
 11
7.18583
 21
29.8394
  0
LINE
  8
0
 10
7.18583
 20
29.8394
 11
7.21396
 21
29.7723
  0
LINE
  8
0
 10
7.21396
 20
29.7723
 11
7.24732
 21
29.6926
  0
LINE
  8
0
 10
7.24732
 20
29.6926
 11
7.28307
 21
29.6314
  0
LINE
  8
0
 10
7.28307
 20
29.6314
 11
7.32376
 21
29.5617
  0
LINE
  8
0
 10
7.32376
 20
29.5617
 11
7.36642
 21
29.5084
  0
LINE
  8
0
 10
7.36642
 20
29.5084
 11
7.41325
 21
29.4498
  0
LINE
  8
0
 10
7.41325
 20
29.4498
 11
7.51359
 21
29.3599
  0
LINE
  8
0
 10
7.51359
 20
29.3599
 11
7.56686
 21
29.3276
  0
LINE
  8
0
 10
7.56686
 20
29.3276
 11
7.62232
 21
29.294
  0
LINE
  8
0
 10
7.62232
 20
29.294
 11
7.67883
 21
29.2741
  0
LINE
  8
0
 10
7.67883
 20
29.2741
 11
7.73676
 21
29.2538
  0
LINE
  8
0
 10
7.73676
 20
29.2538
 11
7.79493
 21
29.2471
  0
LINE
  8
0
 10
7.79493
 20
29.2471
 11
7.85409
 21
29.2403
  0
LINE
  8
0
 10
7.85409
 20
29.2403
 11
11
 21
29.2403
  0
LINE
  8
0
 10
11
 20
29.2403
 11
11
 21
45.5
  0
LINE
  8
0
 10
11
 20
45.5
 11
0
 21
45.5
  0
LINE
  8
0
 10
0
 20
45.5
 11
0
 21
42
  0
LINE
  8
0
 10
7.10409
 20
19.3877
 11
7.11229
 21
19.2352
  0
LINE
  8
0
 10
7.11229
 20
19.2352
 11
7.11332
 21
19.216
  0
LINE
  8
0
 10
7.11332
 20
19.216
 11
7.13789
 21
19.0663
  0
LINE
  8
0
 10
7.13789
 20
19.0663
 11
7.14079
 21
19.0485
  0
LINE
  8
0
 10
7.14079
 20
19.0485
 11
7.18133
 21
18.9054
  0
LINE
  8
0
 10
7.18133
 20
18.9054
 11
7.18583
 21
18.8895
  0
LINE
  8
0
 10
7.18583
 20
18.8895
 11
7.24151
 21
18.7565
  0
LINE
  8
0
 10
7.24151
 20
18.7565
 11
7.24732
 21
18.7426
  0
LINE
  8
0
 10
7.24732
 20
18.7426
 11
7.3169
 21
18.6234
  0
LINE
  8
0
 10
7.3169
 20
18.6234
 11
7.32376
 21
18.6117
  0
LINE
  8
0
 10
7.32376
 20
18.6117
 11
7.41325
 21
18.4999
  0
LINE
  8
0
 10
7.41325
 20
18.4999
 11
7.51359
 21
18.4099
  0
LINE
  8
0
 10
7.51359
 20
18.4099
 11
7.61366
 21
18.3492
  0
LINE
  8
0
 10
7.61366
 20
18.3492
 11
7.62232
 21
18.344
  0
LINE
  8
0
 10
7.62232
 20
18.344
 11
7.72782
 21
18.3069
  0
LINE
  8
0
 10
7.72782
 20
18.3069
 11
7.73676
 21
18.3038
  0
LINE
  8
0
 10
7.73676
 20
18.3038
 11
7.85409
 21
18.2903
  0
LINE
  8
0
 10
7.85409
 20
18.2903
 11
11
 21
18.2903
  0
LINE
  8
0
 10
11
 20
18.2903
 11
11
 21
21.9582
  0
LINE
  8
0
 10
11
 20
21.9582
 11
7.85409
 21
21.9582
  0
LINE
  8
0
 10
7.85409
 20
21.9582
 11
7.81705
 21
21.9543
  0
LINE
  8
0
 10
7.81705
 20
21.9543
 11
7.73676
 21
21.9458
  0
LINE
  8
0
 10
7.73676
 20
21.9458
 11
7.70419
 21
21.9353
  0
LINE
  8
0
 10
7.70419
 20
21.9353
 11
7.62232
 21
21.9089
  0
LINE
  8
0
 10
7.62232
 20
21.9089
 11
7.59812
 21
21.8954
  0
LINE
  8
0
 10
7.59812
 20
21.8954
 11
7.51359
 21
21.8483
  0
LINE
  8
0
 10
7.51359
 20
21.8483
 11
7.49995
 21
21.8371
  0
LINE
  8
0
 10
7.49995
 20
21.8371
 11
7.41325
 21
21.7657
  0
LINE
  8
0
 10
7.41325
 20
21.7657
 11
7.41048
 21
21.7625
  0
LINE
  8
0
 10
7.41048
 20
21.7625
 11
7.39064
 21
21.7397
  0
LINE
  8
0
 10
7.39064
 20
21.7397
 11
7.33126
 21
21.6797
  0
LINE
  8
0
 10
7.33126
 20
21.6797
 11
7.32376
 21
21.6721
  0
LINE
  8
0
 10
7.32376
 20
21.6721
 11
7.26307
 21
21.588
  0
LINE
  8
0
 10
7.26307
 20
21.588
 11
7.24732
 21
21.5661
  0
LINE
  8
0
 10
7.24732
 20
21.5661
 11
7.20627
 21
21.4868
  0
LINE
  8
0
 10
7.20627
 20
21.4868
 11
7.18583
 21
21.4473
  0
LINE
  8
0
 10
7.18583
 20
21.4473
 11
7.16148
 21
21.3777
  0
LINE
  8
0
 10
7.16148
 20
21.3777
 11
7.14079
 21
21.3186
  0
LINE
  8
0
 10
7.14079
 20
21.3186
 11
7.12936
 21
21.2622
  0
LINE
  8
0
 10
7.12936
 20
21.2622
 11
7.11332
 21
21.1831
  0
LINE
  8
0
 10
7.11332
 20
21.1831
 11
7.11059
 21
21.142
  0
LINE
  8
0
 10
7.11059
 20
21.142
 11
7.10409
 21
21.0442
  0
LINE
  8
0
 10
7.10409
 20
21.0442
 11
7.10409
 21
19.3877
  0
LINE
  8
0
 10
36.5
 20
0
 11
47.5
 21
0
  0
LINE
  8
0
 10
47.5
 20
0
 11
47.5
 21
3.5
  0
LINE
  8
0
 10
47.5
 20
3.5
 11
47
 21
4
  0
LINE
  8
0
 10
47
 20
4
 11
41.8959
 21
4
  0
LINE
  8
0
 10
41.8959
 20
4
 11
40.3959
 21
5.5
  0
LINE
  8
0
 10
40.3959
 20
5.5
 11
40.3959
 21
12.3023
  0
LINE
  8
0
 10
40.3959
 20
12.3023
 11
40.3905
 21
12.3731
  0
LINE
  8
0
 10
40.3905
 20
12.3731
 11
40.3867
 21
12.4232
  0
LINE
  8
0
 10
40.3867
 20
12.4232
 11
40.3721
 21
12.4859
  0
LINE
  8
0
 10
40.3721
 20
12.4859
 11
40.3592
 21
12.5411
  0
LINE
  8
0
 10
40.3592
 20
12.5411
 11
40.3378
 21
12.5945
  0
LINE
  8
0
 10
40.3378
 20
12.5945
 11
40.3142
 21
12.6531
  0
LINE
  8
0
 10
40.3142
 20
12.6531
 11
40.2884
 21
12.6965
  0
LINE
  8
0
 10
40.2884
 20
12.6965
 11
40.2527
 21
12.7565
  0
LINE
  8
0
 10
40.2527
 20
12.7565
 11
40.2249
 21
12.7901
  0
LINE
  8
0
 10
40.2249
 20
12.7901
 11
40.1762
 21
12.8487
  0
LINE
  8
0
 10
40.1762
 20
12.8487
 11
40.1484
 21
12.8732
  0
LINE
  8
0
 10
40.1484
 20
12.8732
 11
40.0868
 21
12.9275
  0
LINE
  8
0
 10
40.0868
 20
12.9275
 11
40.0604
 21
12.9441
  0
LINE
  8
0
 10
40.0604
 20
12.9441
 11
39.9864
 21
12.9908
  0
LINE
  8
0
 10
39.9864
 20
12.9908
 11
39.9623
 21
13.0011
  0
LINE
  8
0
 10
39.9623
 20
13.0011
 11
39.8777
 21
13.0372
  0
LINE
  8
0
 10
39.8777
 20
13.0372
 11
39.8558
 21
13.0426
  0
LINE
  8
0
 10
39.8558
 20
13.0426
 11
39.7632
 21
13.0655
  0
LINE
  8
0
 10
39.7632
 20
13.0655
 11
39.7431
 21
13.0672
  0
LINE
  8
0
 10
39.7431
 20
13.0672
 11
39.6459
 21
13.075
  0
LINE
  8
0
 10
39.6459
 20
13.075
 11
36.5
 21
13.075
  0
LINE
  8
0
 10
36.5
 20
13.075
 11
36.5
 21
0
  0
LINE
  8
0
 10
36.5
 20
18.2903
 11
39.6459
 21
18.2903
  0
LINE
  8
0
 10
39.6459
 20
18.2903
 11
39.7632
 21
18.3038
  0
LINE
  8
0
 10
39.7632
 20
18.3038
 11
39.8686
 21
18.3408
  0
LINE
  8
0
 10
39.8686
 20
18.3408
 11
39.8777
 21
18.344
  0
LINE
  8
0
 10
39.8777
 20
18.344
 11
39.9775
 21
18.4045
  0
LINE
  8
0
 10
39.9775
 20
18.4045
 11
39.9864
 21
18.4099
  0
LINE
  8
0
 10
39.9864
 20
18.4099
 11
40.0868
 21
18.4999
  0
LINE
  8
0
 10
40.0868
 20
18.4999
 11
40.1762
 21
18.6117
  0
LINE
  8
0
 10
40.1762
 20
18.6117
 11
40.2455
 21
18.7304
  0
LINE
  8
0
 10
40.2455
 20
18.7304
 11
40.2527
 21
18.7426
  0
LINE
  8
0
 10
40.2527
 20
18.7426
 11
40.3081
 21
18.8749
  0
LINE
  8
0
 10
40.3081
 20
18.8749
 11
40.3142
 21
18.8895
  0
LINE
  8
0
 10
40.3142
 20
18.8895
 11
40.3545
 21
19.0319
  0
LINE
  8
0
 10
40.3545
 20
19.0319
 11
40.3592
 21
19.0485
  0
LINE
  8
0
 10
40.3592
 20
19.0485
 11
40.3836
 21
19.1975
  0
LINE
  8
0
 10
40.3836
 20
19.1975
 11
40.3867
 21
19.216
  0
LINE
  8
0
 10
40.3867
 20
19.216
 11
40.3948
 21
19.3676
  0
LINE
  8
0
 10
40.3948
 20
19.3676
 11
40.3959
 21
19.3877
  0
LINE
  8
0
 10
40.3959
 20
19.3877
 11
40.3959
 21
21.0442
  0
LINE
  8
0
 10
40.3959
 20
21.0442
 11
40.3936
 21
21.0788
  0
LINE
  8
0
 10
40.3936
 20
21.0788
 11
40.3867
 21
21.1831
  0
LINE
  8
0
 10
40.3867
 20
21.1831
 11
40.3754
 21
21.2386
  0
LINE
  8
0
 10
40.3754
 20
21.2386
 11
40.3592
 21
21.3186
  0
LINE
  8
0
 10
40.3592
 20
21.3186
 11
40.3333
 21
21.3927
  0
LINE
  8
0
 10
40.3333
 20
21.3927
 11
40.3142
 21
21.4473
  0
LINE
  8
0
 10
40.3142
 20
21.4473
 11
40.2686
 21
21.5353
  0
LINE
  8
0
 10
40.2686
 20
21.5353
 11
40.2527
 21
21.5661
  0
LINE
  8
0
 10
40.2527
 20
21.5661
 11
40.1841
 21
21.6611
  0
LINE
  8
0
 10
40.1841
 20
21.6611
 11
40.1762
 21
21.6721
  0
LINE
  8
0
 10
40.1762
 20
21.6721
 11
40.1094
 21
21.7397
  0
LINE
  8
0
 10
40.1094
 20
21.7397
 11
40.0868
 21
21.7657
  0
LINE
  8
0
 10
40.0868
 20
21.7657
 11
40.0825
 21
21.7691
  0
LINE
  8
0
 10
40.0825
 20
21.7691
 11
39.9864
 21
21.8483
  0
LINE
  8
0
 10
39.9864
 20
21.8483
 11
39.9676
 21
21.8588
  0
LINE
  8
0
 10
39.9676
 20
21.8588
 11
39.8777
 21
21.9089
  0
LINE
  8
0
 10
39.8777
 20
21.9089
 11
39.8476
 21
21.9186
  0
LINE
  8
0
 10
39.8476
 20
21.9186
 11
39.7632
 21
21.9458
  0
LINE
  8
0
 10
39.7632
 20
21.9458
 11
39.7269
 21
21.9496
  0
LINE
  8
0
 10
39.7269
 20
21.9496
 11
39.6459
 21
21.9582
  0
LINE
  8
0
 10
39.6459
 20
21.9582
 11
36.5
 21
21.9582
  0
LINE
  8
0
 10
36.5
 20
21.9582
 11
36.5
 21
18.2903
  0
LINE
  8
0
 10
36.5
 20
29.2403
 11
39.6459
 21
29.2403
  0
LINE
  8
0
 10
39.6459
 20
29.2403
 11
39.7041
 21
29.247
  0
LINE
  8
0
 10
39.7041
 20
29.247
 11
39.7632
 21
29.2538
  0
LINE
  8
0
 10
39.7632
 20
29.2538
 11
39.8198
 21
29.2736
  0
LINE
  8
0
 10
39.8198
 20
29.2736
 11
39.8777
 21
29.294
  0
LINE
  8
0
 10
39.8777
 20
29.294
 11
39.931
 21
29.3263
  0
LINE
  8
0
 10
39.931
 20
29.3263
 11
39.9864
 21
29.3599
  0
LINE
  8
0
 10
39.9864
 20
29.3599
 11
40.0868
 21
29.4498
  0
LINE
  8
0
 10
40.0868
 20
29.4498
 11
40.1294
 21
29.5032
  0
LINE
  8
0
 10
40.1294
 20
29.5032
 11
40.1762
 21
29.5617
  0
LINE
  8
0
 10
40.1762
 20
29.5617
 11
40.212
 21
29.623
  0
LINE
  8
0
 10
40.212
 20
29.623
 11
40.2527
 21
29.6926
  0
LINE
  8
0
 10
40.2527
 20
29.6926
 11
40.2809
 21
29.7599
  0
LINE
  8
0
 10
40.2809
 20
29.7599
 11
40.3142
 21
29.8394
  0
LINE
  8
0
 10
40.3142
 20
29.8394
 11
40.3343
 21
29.9106
  0
LINE
  8
0
 10
40.3343
 20
29.9106
 11
40.3592
 21
29.9985
  0
LINE
  8
0
 10
40.3592
 20
29.9985
 11
40.3712
 21
30.0715
  0
LINE
  8
0
 10
40.3712
 20
30.0715
 11
40.3867
 21
30.166
  0
LINE
  8
0
 10
40.3867
 20
30.166
 11
40.3906
 21
30.2387
  0
LINE
  8
0
 10
40.3906
 20
30.2387
 11
40.3959
 21
30.3376
  0
LINE
  8
0
 10
40.3959
 20
30.3376
 11
40.3959
 21
40
  0
LINE
  8
0
 10
40.3959
 20
40
 11
41.8959
 21
41.5
  0
LINE
  8
0
 10
41.8959
 20
41.5
 11
47
 21
41.5
  0
LINE
  8
0
 10
47
 20
41.5
 11
47.5
 21
42
  0
LINE
  8
0
 10
47.5
 20
42
 11
47.5
 21
45.5
  0
LINE
  8
0
 10
47.5
 20
45.5
 11
36.5
 21
45.5
  0
LINE
  8
0
 10
36.5
 20
45.5
 11
36.5
 21
29.2403
  0
ENDSEC
  0
SECTION
  2
OBJECTS
  0
DICTIONARY
  0
ENDSEC
  0
EOF
