  0
SECTION
  2
BLOCKS
  0
ENDSEC
  0
SECTION
  2
ENTITIES
  0
LINE
  8
0
 10
0
 20
0
 11
11
 21
0
  0
LINE
  8
0
 10
11
 20
0
 11
11
 21
14.4042
  0
LINE
  8
0
 10
11
 20
14.4042
 11
7.85409
 21
14.4042
  0
LINE
  8
0
 10
7.85409
 20
14.4042
 11
7.83369
 21
14.4008
  0
LINE
  8
0
 10
7.83369
 20
14.4008
 11
7.73676
 21
14.3846
  0
LINE
  8
0
 10
7.73676
 20
14.3846
 11
7.70948
 21
14.3706
  0
LINE
  8
0
 10
7.70948
 20
14.3706
 11
7.62232
 21
14.3261
  0
LINE
  8
0
 10
7.62232
 20
14.3261
 11
7.577
 21
14.2862
  0
LINE
  8
0
 10
7.577
 20
14.2862
 11
7.51359
 21
14.2303
  0
LINE
  8
0
 10
7.51359
 20
14.2303
 11
7.44077
 21
14.1354
  0
LINE
  8
0
 10
7.44077
 20
14.1354
 11
7.41325
 21
14.0995
  0
LINE
  8
0
 10
7.41325
 20
14.0995
 11
7.35677
 21
13.9969
  0
LINE
  8
0
 10
7.35677
 20
13.9969
 11
7.32376
 21
13.9507
  0
LINE
  8
0
 10
7.32376
 20
13.9507
 11
7.31497
 21
13.9338
  0
LINE
  8
0
 10
7.31497
 20
13.9338
 11
7.24732
 21
13.8039
  0
LINE
  8
0
 10
7.24732
 20
13.8039
 11
7.21796
 21
13.7253
  0
LINE
  8
0
 10
7.21796
 20
13.7253
 11
7.18583
 21
13.6393
  0
LINE
  8
0
 10
7.18583
 20
13.6393
 11
7.14672
 21
13.4844
  0
LINE
  8
0
 10
7.14672
 20
13.4844
 11
7.14079
 21
13.4609
  0
LINE
  8
0
 10
7.14079
 20
13.4609
 11
7.13179
 21
13.3994
  0
LINE
  8
0
 10
7.13179
 20
13.3994
 11
7.11332
 21
13.2944
  0
LINE
  8
0
 10
7.11332
 20
13.2944
 11
7.11159
 21
13.2644
  0
LINE
  8
0
 10
7.11159
 20
13.2644
 11
7.10409
 21
13.1342
  0
LINE
  8
0
 10
7.10409
 20
13.1342
 11
7.10409
 21
5.5
  0
LINE
  8
0
 10
7.10409
 20
5.5
 11
5.60409
 21
4
  0
LINE
  8
0
 10
5.60409
 20
4
 11
0.499999
 21
4
  0
LINE
  8
0
 10
0.499999
 20
4
 11
0
 21
3.5
  0
LINE
  8
0
 10
0
 20
3.5
 11
0
 21
0
  0
LINE
  8
0
 10
0
 20
42
 11
0.499999
 21
41.5
  0
LINE
  8
0
 10
0.499999
 20
41.5
 11
5.60409
 21
41.5
  0
LINE
  8
0
 10
5.60409
 20
41.5
 11
7.10409
 21
40
  0
LINE
  8
0
 10
7.10409
 20
40
 11
7.10409
 21
28.7355
  0
LINE
  8
0
 10
7.10409
 20
28.7355
 11
7.11003
 21
28.625
  0
LINE
  8
0
 10
7.11003
 20
28.625
 11
7.11332
 21
28.5638
  0
LINE
  8
0
 10
7.11332
 20
28.5638
 11
7.13135
 21
28.4539
  0
LINE
  8
0
 10
7.13135
 20
28.4539
 11
7.14079
 21
28.3964
  0
LINE
  8
0
 10
7.14079
 20
28.3964
 11
7.17089
 21
28.2901
  0
LINE
  8
0
 10
7.17089
 20
28.2901
 11
7.18583
 21
28.2373
  0
LINE
  8
0
 10
7.18583
 20
28.2373
 11
7.2276
 21
28.1375
  0
LINE
  8
0
 10
7.2276
 20
28.1375
 11
7.24732
 21
28.0904
  0
LINE
  8
0
 10
7.24732
 20
28.0904
 11
7.30001
 21
28.0002
  0
LINE
  8
0
 10
7.30001
 20
28.0002
 11
7.32376
 21
27.9595
  0
LINE
  8
0
 10
7.32376
 20
27.9595
 11
7.38622
 21
27.8814
  0
LINE
  8
0
 10
7.38622
 20
27.8814
 11
7.41325
 21
27.8477
  0
LINE
  8
0
 10
7.41325
 20
27.8477
 11
7.51359
 21
27.7577
  0
LINE
  8
0
 10
7.51359
 20
27.7577
 11
7.59084
 21
27.7109
  0
LINE
  8
0
 10
7.59084
 20
27.7109
 11
7.62232
 21
27.6918
  0
LINE
  8
0
 10
7.62232
 20
27.6918
 11
7.70402
 21
27.6631
  0
LINE
  8
0
 10
7.70402
 20
27.6631
 11
7.73676
 21
27.6516
  0
LINE
  8
0
 10
7.73676
 20
27.6516
 11
7.82071
 21
27.6419
  0
LINE
  8
0
 10
7.82071
 20
27.6419
 11
7.85409
 21
27.6381
  0
LINE
  8
0
 10
7.85409
 20
27.6381
 11
11
 21
27.6381
  0
LINE
  8
0
 10
11
 20
27.6381
 11
11
 21
45.5
  0
LINE
  8
0
 10
11
 20
45.5
 11
0
 21
45.5
  0
LINE
  8
0
 10
0
 20
45.5
 11
0
 21
42
  0
LINE
  8
0
 10
7.10409
 20
17.7855
 11
7.11331
 21
17.6141
  0
LINE
  8
0
 10
7.11331
 20
17.6141
 11
7.11332
 21
17.6138
  0
LINE
  8
0
 10
7.11332
 20
17.6138
 11
7.12034
 21
17.5711
  0
LINE
  8
0
 10
7.12034
 20
17.5711
 11
7.13657
 21
17.4625
  0
LINE
  8
0
 10
7.13657
 20
17.4625
 11
7.14079
 21
17.4343
  0
LINE
  8
0
 10
7.14079
 20
17.4343
 11
7.16943
 21
17.3233
  0
LINE
  8
0
 10
7.16943
 20
17.3233
 11
7.18583
 21
17.2597
  0
LINE
  8
0
 10
7.18583
 20
17.2597
 11
7.21177
 21
17.1918
  0
LINE
  8
0
 10
7.21177
 20
17.1918
 11
7.24732
 21
17.0987
  0
LINE
  8
0
 10
7.24732
 20
17.0987
 11
7.26316
 21
17.0689
  0
LINE
  8
0
 10
7.26316
 20
17.0689
 11
7.32243
 21
16.9575
  0
LINE
  8
0
 10
7.32243
 20
16.9575
 11
7.32342
 21
16.9551
  0
LINE
  8
0
 10
7.32342
 20
16.9551
 11
7.32376
 21
16.9543
  0
LINE
  8
0
 10
7.32376
 20
16.9543
 11
7.39255
 21
16.8331
  0
LINE
  8
0
 10
7.39255
 20
16.8331
 11
7.41325
 21
16.7967
  0
LINE
  8
0
 10
7.41325
 20
16.7967
 11
7.46915
 21
16.7261
  0
LINE
  8
0
 10
7.46915
 20
16.7261
 11
7.51359
 21
16.6699
  0
LINE
  8
0
 10
7.51359
 20
16.6699
 11
7.55375
 21
16.6356
  0
LINE
  8
0
 10
7.55375
 20
16.6356
 11
7.62232
 21
16.577
  0
LINE
  8
0
 10
7.62232
 20
16.577
 11
7.64714
 21
16.5647
  0
LINE
  8
0
 10
7.64714
 20
16.5647
 11
7.73676
 21
16.5204
  0
LINE
  8
0
 10
7.73676
 20
16.5204
 11
7.75019
 21
16.5182
  0
LINE
  8
0
 10
7.75019
 20
16.5182
 11
7.85409
 21
16.5013
  0
LINE
  8
0
 10
7.85409
 20
16.5013
 11
11
 21
16.5013
  0
LINE
  8
0
 10
11
 20
16.5013
 11
11
 21
21.3649
  0
LINE
  8
0
 10
11
 20
21.3649
 11
7.85409
 21
21.3649
  0
LINE
  8
0
 10
7.85409
 20
21.3649
 11
7.81471
 21
21.3618
  0
LINE
  8
0
 10
7.81471
 20
21.3618
 11
7.73676
 21
21.3557
  0
LINE
  8
0
 10
7.73676
 20
21.3557
 11
7.69874
 21
21.3466
  0
LINE
  8
0
 10
7.69874
 20
21.3466
 11
7.62232
 21
21.3282
  0
LINE
  8
0
 10
7.62232
 20
21.3282
 11
7.58675
 21
21.3135
  0
LINE
  8
0
 10
7.58675
 20
21.3135
 11
7.51359
 21
21.2832
  0
LINE
  8
0
 10
7.51359
 20
21.2832
 11
7.48143
 21
21.2635
  0
LINE
  8
0
 10
7.48143
 20
21.2635
 11
7.41325
 21
21.2218
  0
LINE
  8
0
 10
7.41325
 20
21.2218
 11
7.38526
 21
21.1979
  0
LINE
  8
0
 10
7.38526
 20
21.1979
 11
7.32376
 21
21.1454
  0
LINE
  8
0
 10
7.32376
 20
21.1454
 11
7.30051
 21
21.1182
  0
LINE
  8
0
 10
7.30051
 20
21.1182
 11
7.24732
 21
21.056
  0
LINE
  8
0
 10
7.24732
 20
21.056
 11
7.22916
 21
21.0264
  0
LINE
  8
0
 10
7.22916
 20
21.0264
 11
7.18583
 21
20.9557
  0
LINE
  8
0
 10
7.18583
 20
20.9557
 11
7.17293
 21
20.9246
  0
LINE
  8
0
 10
7.17293
 20
20.9246
 11
7.14079
 21
20.847
  0
LINE
  8
0
 10
7.14079
 20
20.847
 11
7.13316
 21
20.8153
  0
LINE
  8
0
 10
7.13316
 20
20.8153
 11
7.11332
 21
20.7327
  0
LINE
  8
0
 10
7.11332
 20
20.7327
 11
7.11083
 21
20.7011
  0
LINE
  8
0
 10
7.11083
 20
20.7011
 11
7.10409
 21
20.6154
  0
LINE
  8
0
 10
7.10409
 20
20.6154
 11
7.10409
 21
17.7855
  0
LINE
  8
0
 10
36.5
 20
0
 11
47.5
 21
0
  0
LINE
  8
0
 10
47.5
 20
0
 11
47.5
 21
3.5
  0
LINE
  8
0
 10
47.5
 20
3.5
 11
47
 21
4
  0
LINE
  8
0
 10
47
 20
4
 11
41.8959
 21
4
  0
LINE
  8
0
 10
41.8959
 20
4
 11
40.3959
 21
5.5
  0
LINE
  8
0
 10
40.3959
 20
5.5
 11
40.3959
 21
13.1342
  0
LINE
  8
0
 10
40.3959
 20
13.1342
 11
40.393
 21
13.1838
  0
LINE
  8
0
 10
40.393
 20
13.1838
 11
40.3867
 21
13.2944
  0
LINE
  8
0
 10
40.3867
 20
13.2944
 11
40.3832
 21
13.3142
  0
LINE
  8
0
 10
40.3832
 20
13.3142
 11
40.3682
 21
13.3994
  0
LINE
  8
0
 10
40.3682
 20
13.3994
 11
40.3611
 21
13.4478
  0
LINE
  8
0
 10
40.3611
 20
13.4478
 11
40.3592
 21
13.4609
  0
LINE
  8
0
 10
40.3592
 20
13.4609
 11
40.3269
 21
13.5889
  0
LINE
  8
0
 10
40.3269
 20
13.5889
 11
40.3142
 21
13.6393
  0
LINE
  8
0
 10
40.3142
 20
13.6393
 11
40.2834
 21
13.7217
  0
LINE
  8
0
 10
40.2834
 20
13.7217
 11
40.2527
 21
13.8039
  0
LINE
  8
0
 10
40.2527
 20
13.8039
 11
40.2309
 21
13.8456
  0
LINE
  8
0
 10
40.2309
 20
13.8456
 11
40.1762
 21
13.9507
  0
LINE
  8
0
 10
40.1762
 20
13.9507
 11
40.1698
 21
13.9597
  0
LINE
  8
0
 10
40.1698
 20
13.9597
 11
40.1432
 21
13.9969
  0
LINE
  8
0
 10
40.1432
 20
13.9969
 11
40.1
 21
14.0755
  0
LINE
  8
0
 10
40.1
 20
14.0755
 11
40.0868
 21
14.0995
  0
LINE
  8
0
 10
40.0868
 20
14.0995
 11
40.0226
 21
14.1832
  0
LINE
  8
0
 10
40.0226
 20
14.1832
 11
39.9864
 21
14.2303
  0
LINE
  8
0
 10
39.9864
 20
14.2303
 11
39.9373
 21
14.2736
  0
LINE
  8
0
 10
39.9373
 20
14.2736
 11
39.8777
 21
14.3261
  0
LINE
  8
0
 10
39.8777
 20
14.3261
 11
39.8432
 21
14.3437
  0
LINE
  8
0
 10
39.8432
 20
14.3437
 11
39.7632
 21
14.3846
  0
LINE
  8
0
 10
39.7632
 20
14.3846
 11
39.7395
 21
14.3885
  0
LINE
  8
0
 10
39.7395
 20
14.3885
 11
39.6459
 21
14.4042
  0
LINE
  8
0
 10
39.6459
 20
14.4042
 11
36.5
 21
14.4042
  0
LINE
  8
0
 10
36.5
 20
14.4042
 11
36.5
 21
0
  0
LINE
  8
0
 10
36.5
 20
16.5013
 11
39.6459
 21
16.5013
  0
LINE
  8
0
 10
39.6459
 20
16.5013
 11
39.6553
 21
16.5029
  0
LINE
  8
0
 10
39.6553
 20
16.5029
 11
39.7632
 21
16.5204
  0
LINE
  8
0
 10
39.7632
 20
16.5204
 11
39.7786
 21
16.528
  0
LINE
  8
0
 10
39.7786
 20
16.528
 11
39.8777
 21
16.577
  0
LINE
  8
0
 10
39.8777
 20
16.577
 11
39.9099
 21
16.6045
  0
LINE
  8
0
 10
39.9099
 20
16.6045
 11
39.9864
 21
16.6699
  0
LINE
  8
0
 10
39.9864
 20
16.6699
 11
40.0447
 21
16.7435
  0
LINE
  8
0
 10
40.0447
 20
16.7435
 11
40.0868
 21
16.7967
  0
LINE
  8
0
 10
40.0868
 20
16.7967
 11
40.1755
 21
16.9529
  0
LINE
  8
0
 10
40.1755
 20
16.9529
 11
40.1762
 21
16.9543
  0
LINE
  8
0
 10
40.1762
 20
16.9543
 11
40.1776
 21
16.9575
  0
LINE
  8
0
 10
40.1776
 20
16.9575
 11
40.2527
 21
17.0987
  0
LINE
  8
0
 10
40.2527
 20
17.0987
 11
40.2736
 21
17.1536
  0
LINE
  8
0
 10
40.2736
 20
17.1536
 11
40.3142
 21
17.2597
  0
LINE
  8
0
 10
40.3142
 20
17.2597
 11
40.3464
 21
17.3847
  0
LINE
  8
0
 10
40.3464
 20
17.3847
 11
40.3592
 21
17.4343
  0
LINE
  8
0
 10
40.3592
 20
17.4343
 11
40.3797
 21
17.5711
  0
LINE
  8
0
 10
40.3797
 20
17.5711
 11
40.3866
 21
17.6136
  0
LINE
  8
0
 10
40.3866
 20
17.6136
 11
40.3867
 21
17.6138
  0
LINE
  8
0
 10
40.3867
 20
17.6138
 11
40.3958
 21
17.7841
  0
LINE
  8
0
 10
40.3958
 20
17.7841
 11
40.3959
 21
17.7855
  0
LINE
  8
0
 10
40.3959
 20
17.7855
 11
40.3959
 21
20.6154
  0
LINE
  8
0
 10
40.3959
 20
20.6154
 11
40.3933
 21
20.6483
  0
LINE
  8
0
 10
40.3933
 20
20.6483
 11
40.3867
 21
20.7327
  0
LINE
  8
0
 10
40.3867
 20
20.7327
 11
40.3787
 21
20.7657
  0
LINE
  8
0
 10
40.3787
 20
20.7657
 11
40.3592
 21
20.847
  0
LINE
  8
0
 10
40.3592
 20
20.847
 11
40.3458
 21
20.8794
  0
LINE
  8
0
 10
40.3458
 20
20.8794
 11
40.3142
 21
20.9557
  0
LINE
  8
0
 10
40.3142
 20
20.9557
 11
40.2953
 21
20.9864
  0
LINE
  8
0
 10
40.2953
 20
20.9864
 11
40.2527
 21
21.056
  0
LINE
  8
0
 10
40.2527
 20
21.056
 11
40.2286
 21
21.0841
  0
LINE
  8
0
 10
40.2286
 20
21.0841
 11
40.1762
 21
21.1454
  0
LINE
  8
0
 10
40.1762
 20
21.1454
 11
40.1474
 21
21.17
  0
LINE
  8
0
 10
40.1474
 20
21.17
 11
40.0868
 21
21.2218
  0
LINE
  8
0
 10
40.0868
 20
21.2218
 11
40.0538
 21
21.242
  0
LINE
  8
0
 10
40.0538
 20
21.242
 11
39.9864
 21
21.2832
  0
LINE
  8
0
 10
39.9864
 20
21.2832
 11
39.9502
 21
21.2982
  0
LINE
  8
0
 10
39.9502
 20
21.2982
 11
39.8777
 21
21.3282
  0
LINE
  8
0
 10
39.8777
 20
21.3282
 11
39.8392
 21
21.3375
  0
LINE
  8
0
 10
39.8392
 20
21.3375
 11
39.7632
 21
21.3557
  0
LINE
  8
0
 10
39.7632
 20
21.3557
 11
39.7237
 21
21.3588
  0
LINE
  8
0
 10
39.7237
 20
21.3588
 11
39.6459
 21
21.3649
  0
LINE
  8
0
 10
39.6459
 20
21.3649
 11
36.5
 21
21.3649
  0
LINE
  8
0
 10
36.5
 20
21.3649
 11
36.5
 21
16.5013
  0
LINE
  8
0
 10
36.5
 20
27.6381
 11
39.6459
 21
27.6381
  0
LINE
  8
0
 10
39.6459
 20
27.6381
 11
39.7298
 21
27.6478
  0
LINE
  8
0
 10
39.7298
 20
27.6478
 11
39.7632
 21
27.6516
  0
LINE
  8
0
 10
39.7632
 20
27.6516
 11
39.8448
 21
27.6803
  0
LINE
  8
0
 10
39.8448
 20
27.6803
 11
39.8777
 21
27.6918
  0
LINE
  8
0
 10
39.8777
 20
27.6918
 11
39.9547
 21
27.7385
  0
LINE
  8
0
 10
39.9547
 20
27.7385
 11
39.9864
 21
27.7577
  0
LINE
  8
0
 10
39.9864
 20
27.7577
 11
40.0868
 21
27.8477
  0
LINE
  8
0
 10
40.0868
 20
27.8477
 11
40.1489
 21
27.9254
  0
LINE
  8
0
 10
40.1489
 20
27.9254
 11
40.1762
 21
27.9595
  0
LINE
  8
0
 10
40.1762
 20
27.9595
 11
40.2287
 21
28.0493
  0
LINE
  8
0
 10
40.2287
 20
28.0493
 11
40.2527
 21
28.0904
  0
LINE
  8
0
 10
40.2527
 20
28.0904
 11
40.2942
 21
28.1896
  0
LINE
  8
0
 10
40.2942
 20
28.1896
 11
40.3142
 21
28.2373
  0
LINE
  8
0
 10
40.3142
 20
28.2373
 11
40.3441
 21
28.343
  0
LINE
  8
0
 10
40.3441
 20
28.343
 11
40.3592
 21
28.3964
  0
LINE
  8
0
 10
40.3592
 20
28.3964
 11
40.3771
 21
28.5056
  0
LINE
  8
0
 10
40.3771
 20
28.5056
 11
40.3867
 21
28.5638
  0
LINE
  8
0
 10
40.3867
 20
28.5638
 11
40.3926
 21
28.6737
  0
LINE
  8
0
 10
40.3926
 20
28.6737
 11
40.3959
 21
28.7355
  0
LINE
  8
0
 10
40.3959
 20
28.7355
 11
40.3959
 21
40
  0
LINE
  8
0
 10
40.3959
 20
40
 11
41.8959
 21
41.5
  0
LINE
  8
0
 10
41.8959
 20
41.5
 11
47
 21
41.5
  0
LINE
  8
0
 10
47
 20
41.5
 11
47.5
 21
42
  0
LINE
  8
0
 10
47.5
 20
42
 11
47.5
 21
45.5
  0
LINE
  8
0
 10
47.5
 20
45.5
 11
36.5
 21
45.5
  0
LINE
  8
0
 10
36.5
 20
45.5
 11
36.5
 21
27.6381
  0
ENDSEC
  0
SECTION
  2
OBJECTS
  0
DICTIONARY
  0
ENDSEC
  0
EOF
