  0
SECTION
  2
BLOCKS
  0
ENDSEC
  0
SECTION
  2
ENTITIES
  0
LINE
  8
0
 10
0
 20
0
 11
11
 21
0
  0
LINE
  8
0
 10
11
 20
0
 11
11
 21
21.5197
  0
LINE
  8
0
 10
11
 20
21.5197
 11
7.85409
 21
21.5197
  0
LINE
  8
0
 10
7.85409
 20
21.5197
 11
7.75173
 21
21.5109
  0
LINE
  8
0
 10
7.75173
 20
21.5109
 11
7.73676
 21
21.5096
  0
LINE
  8
0
 10
7.73676
 20
21.5096
 11
7.63428
 21
21.4827
  0
LINE
  8
0
 10
7.63428
 20
21.4827
 11
7.62232
 21
21.4796
  0
LINE
  8
0
 10
7.62232
 20
21.4796
 11
7.52057
 21
21.4335
  0
LINE
  8
0
 10
7.52057
 20
21.4335
 11
7.51359
 21
21.4304
  0
LINE
  8
0
 10
7.51359
 20
21.4304
 11
7.41409
 21
21.3638
  0
LINE
  8
0
 10
7.41409
 20
21.3638
 11
7.41325
 21
21.3632
  0
LINE
  8
0
 10
7.41325
 20
21.3632
 11
7.40233
 21
21.353
  0
LINE
  8
0
 10
7.40233
 20
21.353
 11
7.32376
 21
21.2839
  0
LINE
  8
0
 10
7.32376
 20
21.2839
 11
7.31968
 21
21.279
  0
LINE
  8
0
 10
7.31968
 20
21.279
 11
7.24732
 21
21.1917
  0
LINE
  8
0
 10
7.24732
 20
21.1917
 11
7.2399
 21
21.1792
  0
LINE
  8
0
 10
7.2399
 20
21.1792
 11
7.18583
 21
21.0883
  0
LINE
  8
0
 10
7.18583
 20
21.0883
 11
7.1772
 21
21.0668
  0
LINE
  8
0
 10
7.1772
 20
21.0668
 11
7.14079
 21
20.9763
  0
LINE
  8
0
 10
7.14079
 20
20.9763
 11
7.13357
 21
20.9453
  0
LINE
  8
0
 10
7.13357
 20
20.9453
 11
7.11332
 21
20.8584
  0
LINE
  8
0
 10
7.11332
 20
20.8584
 11
7.11025
 21
20.8182
  0
LINE
  8
0
 10
7.11025
 20
20.8182
 11
7.10409
 21
20.7375
  0
LINE
  8
0
 10
7.10409
 20
20.7375
 11
7.10409
 21
5.5
  0
LINE
  8
0
 10
7.10409
 20
5.5
 11
5.60409
 21
4
  0
LINE
  8
0
 10
5.60409
 20
4
 11
0.499999
 21
4
  0
LINE
  8
0
 10
0.499999
 20
4
 11
0
 21
3.5
  0
LINE
  8
0
 10
0
 20
3.5
 11
0
 21
0
  0
LINE
  8
0
 10
0
 20
42
 11
0.499999
 21
41.5
  0
LINE
  8
0
 10
0.499999
 20
41.5
 11
5.60409
 21
41.5
  0
LINE
  8
0
 10
5.60409
 20
41.5
 11
7.10409
 21
40
  0
LINE
  8
0
 10
7.10409
 20
40
 11
7.10409
 21
27.6674
  0
LINE
  8
0
 10
7.10409
 20
27.6674
 11
7.1114
 21
27.5314
  0
LINE
  8
0
 10
7.1114
 20
27.5314
 11
7.11332
 21
27.4957
  0
LINE
  8
0
 10
7.11332
 20
27.4957
 11
7.13542
 21
27.361
  0
LINE
  8
0
 10
7.13542
 20
27.361
 11
7.14079
 21
27.3282
  0
LINE
  8
0
 10
7.14079
 20
27.3282
 11
7.17755
 21
27.1984
  0
LINE
  8
0
 10
7.17755
 20
27.1984
 11
7.18583
 21
27.1692
  0
LINE
  8
0
 10
7.18583
 20
27.1692
 11
7.2367
 21
27.0477
  0
LINE
  8
0
 10
7.2367
 20
27.0477
 11
7.24732
 21
27.0223
  0
LINE
  8
0
 10
7.24732
 20
27.0223
 11
7.3113
 21
26.9127
  0
LINE
  8
0
 10
7.3113
 20
26.9127
 11
7.32376
 21
26.8914
  0
LINE
  8
0
 10
7.32376
 20
26.8914
 11
7.39942
 21
26.7968
  0
LINE
  8
0
 10
7.39942
 20
26.7968
 11
7.41325
 21
26.7796
  0
LINE
  8
0
 10
7.41325
 20
26.7796
 11
7.51359
 21
26.6896
  0
LINE
  8
0
 10
7.51359
 20
26.6896
 11
7.60683
 21
26.6331
  0
LINE
  8
0
 10
7.60683
 20
26.6331
 11
7.62232
 21
26.6237
  0
LINE
  8
0
 10
7.62232
 20
26.6237
 11
7.72082
 21
26.5891
  0
LINE
  8
0
 10
7.72082
 20
26.5891
 11
7.73676
 21
26.5835
  0
LINE
  8
0
 10
7.73676
 20
26.5835
 11
7.83789
 21
26.5718
  0
LINE
  8
0
 10
7.83789
 20
26.5718
 11
7.85409
 21
26.57
  0
LINE
  8
0
 10
7.85409
 20
26.57
 11
11
 21
26.57
  0
LINE
  8
0
 10
11
 20
26.57
 11
11
 21
45.5
  0
LINE
  8
0
 10
11
 20
45.5
 11
0
 21
45.5
  0
LINE
  8
0
 10
0
 20
45.5
 11
0
 21
42
  0
LINE
  8
0
 10
36.5
 20
0
 11
47.5
 21
0
  0
LINE
  8
0
 10
47.5
 20
0
 11
47.5
 21
3.5
  0
LINE
  8
0
 10
47.5
 20
3.5
 11
47
 21
4
  0
LINE
  8
0
 10
47
 20
4
 11
41.8959
 21
4
  0
LINE
  8
0
 10
41.8959
 20
4
 11
40.3959
 21
5.5
  0
LINE
  8
0
 10
40.3959
 20
5.5
 11
40.3959
 21
20.7375
  0
LINE
  8
0
 10
40.3959
 20
20.7375
 11
40.3925
 21
20.782
  0
LINE
  8
0
 10
40.3925
 20
20.782
 11
40.3867
 21
20.8584
  0
LINE
  8
0
 10
40.3867
 20
20.8584
 11
40.3782
 21
20.8946
  0
LINE
  8
0
 10
40.3782
 20
20.8946
 11
40.3592
 21
20.9763
  0
LINE
  8
0
 10
40.3592
 20
20.9763
 11
40.3483
 21
21.0035
  0
LINE
  8
0
 10
40.3483
 20
21.0035
 11
40.3142
 21
21.0883
  0
LINE
  8
0
 10
40.3142
 20
21.0883
 11
40.3033
 21
21.1066
  0
LINE
  8
0
 10
40.3033
 20
21.1066
 11
40.2527
 21
21.1917
  0
LINE
  8
0
 10
40.2527
 20
21.1917
 11
40.2441
 21
21.202
  0
LINE
  8
0
 10
40.2441
 20
21.202
 11
40.1762
 21
21.2839
  0
LINE
  8
0
 10
40.1762
 20
21.2839
 11
40.1718
 21
21.2878
  0
LINE
  8
0
 10
40.1718
 20
21.2878
 11
40.0977
 21
21.353
  0
LINE
  8
0
 10
40.0977
 20
21.353
 11
40.0874
 21
21.3626
  0
LINE
  8
0
 10
40.0874
 20
21.3626
 11
40.0868
 21
21.3632
  0
LINE
  8
0
 10
40.0868
 20
21.3632
 11
39.992
 21
21.4266
  0
LINE
  8
0
 10
39.992
 20
21.4266
 11
39.9864
 21
21.4304
  0
LINE
  8
0
 10
39.9864
 20
21.4304
 11
39.888
 21
21.4749
  0
LINE
  8
0
 10
39.888
 20
21.4749
 11
39.8777
 21
21.4796
  0
LINE
  8
0
 10
39.8777
 20
21.4796
 11
39.7772
 21
21.5059
  0
LINE
  8
0
 10
39.7772
 20
21.5059
 11
39.7632
 21
21.5096
  0
LINE
  8
0
 10
39.7632
 20
21.5096
 11
39.6615
 21
21.5183
  0
LINE
  8
0
 10
39.6615
 20
21.5183
 11
39.6459
 21
21.5197
  0
LINE
  8
0
 10
39.6459
 20
21.5197
 11
36.5
 21
21.5197
  0
LINE
  8
0
 10
36.5
 20
21.5197
 11
36.5
 21
0
  0
LINE
  8
0
 10
36.5
 20
26.57
 11
39.6459
 21
26.57
  0
LINE
  8
0
 10
39.6459
 20
26.57
 11
39.747
 21
26.5816
  0
LINE
  8
0
 10
39.747
 20
26.5816
 11
39.7632
 21
26.5835
  0
LINE
  8
0
 10
39.7632
 20
26.5835
 11
39.8615
 21
26.618
  0
LINE
  8
0
 10
39.8615
 20
26.618
 11
39.8777
 21
26.6237
  0
LINE
  8
0
 10
39.8777
 20
26.6237
 11
39.9705
 21
26.68
  0
LINE
  8
0
 10
39.9705
 20
26.68
 11
39.9864
 21
26.6896
  0
LINE
  8
0
 10
39.9864
 20
26.6896
 11
40.0868
 21
26.7796
  0
LINE
  8
0
 10
40.0868
 20
26.7796
 11
40.1619
 21
26.8735
  0
LINE
  8
0
 10
40.1619
 20
26.8735
 11
40.1762
 21
26.8914
  0
LINE
  8
0
 10
40.1762
 20
26.8914
 11
40.2397
 21
27.0002
  0
LINE
  8
0
 10
40.2397
 20
27.0002
 11
40.2527
 21
27.0223
  0
LINE
  8
0
 10
40.2527
 20
27.0223
 11
40.3031
 21
27.1428
  0
LINE
  8
0
 10
40.3031
 20
27.1428
 11
40.3142
 21
27.1692
  0
LINE
  8
0
 10
40.3142
 20
27.1692
 11
40.3506
 21
27.2979
  0
LINE
  8
0
 10
40.3506
 20
27.2979
 11
40.3592
 21
27.3282
  0
LINE
  8
0
 10
40.3592
 20
27.3282
 11
40.3811
 21
27.4617
  0
LINE
  8
0
 10
40.3811
 20
27.4617
 11
40.3867
 21
27.4957
  0
LINE
  8
0
 10
40.3867
 20
27.4957
 11
40.3939
 21
27.6304
  0
LINE
  8
0
 10
40.3939
 20
27.6304
 11
40.3959
 21
27.6674
  0
LINE
  8
0
 10
40.3959
 20
27.6674
 11
40.3959
 21
40
  0
LINE
  8
0
 10
40.3959
 20
40
 11
41.8959
 21
41.5
  0
LINE
  8
0
 10
41.8959
 20
41.5
 11
47
 21
41.5
  0
LINE
  8
0
 10
47
 20
41.5
 11
47.5
 21
42
  0
LINE
  8
0
 10
47.5
 20
42
 11
47.5
 21
45.5
  0
LINE
  8
0
 10
47.5
 20
45.5
 11
36.5
 21
45.5
  0
LINE
  8
0
 10
36.5
 20
45.5
 11
36.5
 21
26.57
  0
ENDSEC
  0
SECTION
  2
OBJECTS
  0
DICTIONARY
  0
ENDSEC
  0
EOF
