  0
SECTION
  2
BLOCKS
  0
ENDSEC
  0
SECTION
  2
ENTITIES
  0
LINE
  8
0
 10
0
 20
0
 11
11
 21
0
  0
LINE
  8
0
 10
11
 20
0
 11
11
 21
21.7817
  0
LINE
  8
0
 10
11
 20
21.7817
 11
7.85409
 21
21.7817
  0
LINE
  8
0
 10
7.85409
 20
21.7817
 11
7.7954
 21
21.7762
  0
LINE
  8
0
 10
7.7954
 20
21.7762
 11
7.73676
 21
21.7707
  0
LINE
  8
0
 10
7.73676
 20
21.7707
 11
7.67624
 21
21.7533
  0
LINE
  8
0
 10
7.67624
 20
21.7533
 11
7.62232
 21
21.7378
  0
LINE
  8
0
 10
7.62232
 20
21.7378
 11
7.55832
 21
21.7061
  0
LINE
  8
0
 10
7.55832
 20
21.7061
 11
7.51359
 21
21.6839
  0
LINE
  8
0
 10
7.51359
 20
21.6839
 11
7.44558
 21
21.634
  0
LINE
  8
0
 10
7.44558
 20
21.634
 11
7.41325
 21
21.6103
  0
LINE
  8
0
 10
7.41325
 20
21.6103
 11
7.34236
 21
21.5378
  0
LINE
  8
0
 10
7.34236
 20
21.5378
 11
7.32376
 21
21.5188
  0
LINE
  8
0
 10
7.32376
 20
21.5188
 11
7.25301
 21
21.4196
  0
LINE
  8
0
 10
7.25301
 20
21.4196
 11
7.24732
 21
21.4117
  0
LINE
  8
0
 10
7.24732
 20
21.4117
 11
7.21612
 21
21.3507
  0
LINE
  8
0
 10
7.21612
 20
21.3507
 11
7.18583
 21
21.2967
  0
LINE
  8
0
 10
7.18583
 20
21.2967
 11
7.18316
 21
21.2897
  0
LINE
  8
0
 10
7.18316
 20
21.2897
 11
7.14079
 21
21.1779
  0
LINE
  8
0
 10
7.14079
 20
21.1779
 11
7.13576
 21
21.155
  0
LINE
  8
0
 10
7.13576
 20
21.155
 11
7.11332
 21
21.0529
  0
LINE
  8
0
 10
7.11332
 20
21.0529
 11
7.11051
 21
21.0139
  0
LINE
  8
0
 10
7.11051
 20
21.0139
 11
7.10409
 21
20.9248
  0
LINE
  8
0
 10
7.10409
 20
20.9248
 11
7.10409
 21
5.5
  0
LINE
  8
0
 10
7.10409
 20
5.5
 11
6.13231
 21
4.52822
  0
LINE
  8
0
 10
6.13231
 20
4.52822
 11
6.13231
 21
4
  0
LINE
  8
0
 10
6.13231
 20
4
 11
0.499999
 21
4
  0
LINE
  8
0
 10
0.499999
 20
4
 11
0
 21
3.5
  0
LINE
  8
0
 10
0
 20
3.5
 11
0
 21
0
  0
LINE
  8
0
 10
0
 20
42
 11
0.499999
 21
41.5
  0
LINE
  8
0
 10
0.499999
 20
41.5
 11
6.13231
 21
41.5
  0
LINE
  8
0
 10
6.13231
 20
41.5
 11
6.13231
 21
40.9718
  0
LINE
  8
0
 10
6.13231
 20
40.9718
 11
7.10409
 21
40
  0
LINE
  8
0
 10
7.10409
 20
40
 11
7.10409
 21
27.1333
  0
LINE
  8
0
 10
7.10409
 20
27.1333
 11
7.11208
 21
26.9846
  0
LINE
  8
0
 10
7.11208
 20
26.9846
 11
7.11332
 21
26.9616
  0
LINE
  8
0
 10
7.11332
 20
26.9616
 11
7.13745
 21
26.8146
  0
LINE
  8
0
 10
7.13745
 20
26.8146
 11
7.14079
 21
26.7942
  0
LINE
  8
0
 10
7.14079
 20
26.7942
 11
7.18089
 21
26.6526
  0
LINE
  8
0
 10
7.18089
 20
26.6526
 11
7.18583
 21
26.6351
  0
LINE
  8
0
 10
7.18583
 20
26.6351
 11
7.24125
 21
26.5028
  0
LINE
  8
0
 10
7.24125
 20
26.5028
 11
7.24732
 21
26.4883
  0
LINE
  8
0
 10
7.24732
 20
26.4883
 11
7.31695
 21
26.369
  0
LINE
  8
0
 10
7.31695
 20
26.369
 11
7.32376
 21
26.3573
  0
LINE
  8
0
 10
7.32376
 20
26.3573
 11
7.40602
 21
26.2545
  0
LINE
  8
0
 10
7.40602
 20
26.2545
 11
7.41325
 21
26.2455
  0
LINE
  8
0
 10
7.41325
 20
26.2455
 11
7.51359
 21
26.1555
  0
LINE
  8
0
 10
7.51359
 20
26.1555
 11
7.61482
 21
26.0942
  0
LINE
  8
0
 10
7.61482
 20
26.0942
 11
7.62232
 21
26.0896
  0
LINE
  8
0
 10
7.62232
 20
26.0896
 11
7.72921
 21
26.0521
  0
LINE
  8
0
 10
7.72921
 20
26.0521
 11
7.73676
 21
26.0494
  0
LINE
  8
0
 10
7.73676
 20
26.0494
 11
7.84648
 21
26.0368
  0
LINE
  8
0
 10
7.84648
 20
26.0368
 11
7.85409
 21
26.0359
  0
LINE
  8
0
 10
7.85409
 20
26.0359
 11
11
 21
26.0359
  0
LINE
  8
0
 10
11
 20
26.0359
 11
11
 21
45.5
  0
LINE
  8
0
 10
11
 20
45.5
 11
0
 21
45.5
  0
LINE
  8
0
 10
0
 20
45.5
 11
0
 21
42
  0
LINE
  8
0
 10
36.5
 20
0
 11
47.5
 21
0
  0
LINE
  8
0
 10
47.5
 20
0
 11
47.5
 21
3.5
  0
LINE
  8
0
 10
47.5
 20
3.5
 11
47
 21
4
  0
LINE
  8
0
 10
47
 20
4
 11
41.3677
 21
4
  0
LINE
  8
0
 10
41.3677
 20
4
 11
41.3677
 21
4.52822
  0
LINE
  8
0
 10
41.3677
 20
4.52822
 11
40.3959
 21
5.5
  0
LINE
  8
0
 10
40.3959
 20
5.5
 11
40.3959
 21
20.9248
  0
LINE
  8
0
 10
40.3959
 20
20.9248
 11
40.3926
 21
20.9705
  0
LINE
  8
0
 10
40.3926
 20
20.9705
 11
40.3867
 21
21.0529
  0
LINE
  8
0
 10
40.3867
 20
21.0529
 11
40.3796
 21
21.0852
  0
LINE
  8
0
 10
40.3796
 20
21.0852
 11
40.3592
 21
21.1779
  0
LINE
  8
0
 10
40.3592
 20
21.1779
 11
40.3522
 21
21.1964
  0
LINE
  8
0
 10
40.3522
 20
21.1964
 11
40.3142
 21
21.2967
  0
LINE
  8
0
 10
40.3142
 20
21.2967
 11
40.3111
 21
21.3023
  0
LINE
  8
0
 10
40.3111
 20
21.3023
 11
40.2839
 21
21.3507
  0
LINE
  8
0
 10
40.2839
 20
21.3507
 11
40.256
 21
21.4051
  0
LINE
  8
0
 10
40.256
 20
21.4051
 11
40.2527
 21
21.4117
  0
LINE
  8
0
 10
40.2527
 20
21.4117
 11
40.1883
 21
21.5019
  0
LINE
  8
0
 10
40.1883
 20
21.5019
 11
40.1762
 21
21.5188
  0
LINE
  8
0
 10
40.1762
 20
21.5188
 11
40.1096
 21
21.5869
  0
LINE
  8
0
 10
40.1096
 20
21.5869
 11
40.0868
 21
21.6103
  0
LINE
  8
0
 10
40.0868
 20
21.6103
 11
40.0207
 21
21.6587
  0
LINE
  8
0
 10
40.0207
 20
21.6587
 11
39.9864
 21
21.6839
  0
LINE
  8
0
 10
39.9864
 20
21.6839
 11
39.9228
 21
21.7154
  0
LINE
  8
0
 10
39.9228
 20
21.7154
 11
39.8777
 21
21.7378
  0
LINE
  8
0
 10
39.8777
 20
21.7378
 11
39.8168
 21
21.7553
  0
LINE
  8
0
 10
39.8168
 20
21.7553
 11
39.7632
 21
21.7707
  0
LINE
  8
0
 10
39.7632
 20
21.7707
 11
39.7043
 21
21.7762
  0
LINE
  8
0
 10
39.7043
 20
21.7762
 11
39.6459
 21
21.7817
  0
LINE
  8
0
 10
39.6459
 20
21.7817
 11
36.5
 21
21.7817
  0
LINE
  8
0
 10
36.5
 20
21.7817
 11
36.5
 21
0
  0
LINE
  8
0
 10
36.5
 20
26.0359
 11
39.6459
 21
26.0359
  0
LINE
  8
0
 10
39.6459
 20
26.0359
 11
39.7555
 21
26.0485
  0
LINE
  8
0
 10
39.7555
 20
26.0485
 11
39.7632
 21
26.0494
  0
LINE
  8
0
 10
39.7632
 20
26.0494
 11
39.8698
 21
26.0869
  0
LINE
  8
0
 10
39.8698
 20
26.0869
 11
39.8777
 21
26.0896
  0
LINE
  8
0
 10
39.8777
 20
26.0896
 11
39.9785
 21
26.1507
  0
LINE
  8
0
 10
39.9785
 20
26.1507
 11
39.9864
 21
26.1555
  0
LINE
  8
0
 10
39.9864
 20
26.1555
 11
40.0868
 21
26.2455
  0
LINE
  8
0
 10
40.0868
 20
26.2455
 11
40.1684
 21
26.3476
  0
LINE
  8
0
 10
40.1684
 20
26.3476
 11
40.1762
 21
26.3573
  0
LINE
  8
0
 10
40.1762
 20
26.3573
 11
40.2453
 21
26.4756
  0
LINE
  8
0
 10
40.2453
 20
26.4756
 11
40.2527
 21
26.4883
  0
LINE
  8
0
 10
40.2527
 20
26.4883
 11
40.3076
 21
26.6193
  0
LINE
  8
0
 10
40.3076
 20
26.6193
 11
40.3142
 21
26.6351
  0
LINE
  8
0
 10
40.3142
 20
26.6351
 11
40.3539
 21
26.7753
  0
LINE
  8
0
 10
40.3539
 20
26.7753
 11
40.3592
 21
26.7942
  0
LINE
  8
0
 10
40.3592
 20
26.7942
 11
40.3831
 21
26.9397
  0
LINE
  8
0
 10
40.3831
 20
26.9397
 11
40.3867
 21
26.9616
  0
LINE
  8
0
 10
40.3867
 20
26.9616
 11
40.3946
 21
27.1087
  0
LINE
  8
0
 10
40.3946
 20
27.1087
 11
40.3959
 21
27.1333
  0
LINE
  8
0
 10
40.3959
 20
27.1333
 11
40.3959
 21
40
  0
LINE
  8
0
 10
40.3959
 20
40
 11
41.3677
 21
40.9718
  0
LINE
  8
0
 10
41.3677
 20
40.9718
 11
41.3677
 21
41.5
  0
LINE
  8
0
 10
41.3677
 20
41.5
 11
47
 21
41.5
  0
LINE
  8
0
 10
47
 20
41.5
 11
47.5
 21
42
  0
LINE
  8
0
 10
47.5
 20
42
 11
47.5
 21
45.5
  0
LINE
  8
0
 10
47.5
 20
45.5
 11
36.5
 21
45.5
  0
LINE
  8
0
 10
36.5
 20
45.5
 11
36.5
 21
26.0359
  0
ENDSEC
  0
SECTION
  2
OBJECTS
  0
DICTIONARY
  0
ENDSEC
  0
EOF
