  0
SECTION
  2
BLOCKS
  0
ENDSEC
  0
SECTION
  2
ENTITIES
  0
LINE
  8
0
 10
0
 20
0
 11
2.65911
 21
0
  0
LINE
  8
0
 10
2.65911
 20
0
 11
2.65911
 21
4
  0
LINE
  8
0
 10
2.65911
 20
4
 11
0.499999
 21
4
  0
LINE
  8
0
 10
0.499999
 20
4
 11
0
 21
3.5
  0
LINE
  8
0
 10
0
 20
3.5
 11
0
 21
0
  0
LINE
  8
0
 10
0
 20
42
 11
0.499999
 21
41.5
  0
LINE
  8
0
 10
0.499999
 20
41.5
 11
2.65911
 21
41.5
  0
LINE
  8
0
 10
2.65911
 20
41.5
 11
2.65911
 21
45.5
  0
LINE
  8
0
 10
2.65911
 20
45.5
 11
0
 21
45.5
  0
LINE
  8
0
 10
0
 20
45.5
 11
0
 21
42
  0
LINE
  8
0
 10
4.83677
 20
0
 11
11
 21
0
  0
LINE
  8
0
 10
11
 20
0
 11
11
 21
22.2146
  0
LINE
  8
0
 10
11
 20
22.2146
 11
7.85409
 21
22.2146
  0
LINE
  8
0
 10
7.85409
 20
22.2146
 11
7.74735
 21
22.2008
  0
LINE
  8
0
 10
7.74735
 20
22.2008
 11
7.73676
 21
22.1995
  0
LINE
  8
0
 10
7.73676
 20
22.1995
 11
7.62314
 21
22.1547
  0
LINE
  8
0
 10
7.62314
 20
22.1547
 11
7.62232
 21
22.1544
  0
LINE
  8
0
 10
7.62232
 20
22.1544
 11
7.61693
 21
22.1507
  0
LINE
  8
0
 10
7.61693
 20
22.1507
 11
7.51359
 21
22.0923
  0
LINE
  8
0
 10
7.51359
 20
22.0923
 11
7.50193
 21
22.0825
  0
LINE
  8
0
 10
7.50193
 20
22.0825
 11
7.41325
 21
22.0083
  0
LINE
  8
0
 10
7.41325
 20
22.0083
 11
7.38774
 21
21.9786
  0
LINE
  8
0
 10
7.38774
 20
21.9786
 11
7.32376
 21
21.904
  0
LINE
  8
0
 10
7.32376
 20
21.904
 11
7.28615
 21
21.8439
  0
LINE
  8
0
 10
7.28615
 20
21.8439
 11
7.24732
 21
21.7818
  0
LINE
  8
0
 10
7.24732
 20
21.7818
 11
7.20275
 21
21.6825
  0
LINE
  8
0
 10
7.20275
 20
21.6825
 11
7.18583
 21
21.6448
  0
LINE
  8
0
 10
7.18583
 20
21.6448
 11
7.14215
 21
21.5009
  0
LINE
  8
0
 10
7.14215
 20
21.5009
 11
7.14079
 21
21.4964
  0
LINE
  8
0
 10
7.14079
 20
21.4964
 11
7.13749
 21
21.4776
  0
LINE
  8
0
 10
7.13749
 20
21.4776
 11
7.11332
 21
21.3571
  0
LINE
  8
0
 10
7.11332
 20
21.3571
 11
7.11178
 21
21.3336
  0
LINE
  8
0
 10
7.11178
 20
21.3336
 11
7.10409
 21
21.2167
  0
LINE
  8
0
 10
7.10409
 20
21.2167
 11
7.10409
 21
5.5
  0
LINE
  8
0
 10
7.10409
 20
5.5
 11
6.5
 21
4.89591
  0
LINE
  8
0
 10
6.5
 20
4.89591
 11
6.5
 21
4
  0
LINE
  8
0
 10
6.5
 20
4
 11
4.83677
 21
4
  0
LINE
  8
0
 10
4.83677
 20
4
 11
4.83677
 21
0
  0
LINE
  8
0
 10
4.83677
 20
41.5
 11
6.5
 21
41.5
  0
LINE
  8
0
 10
6.5
 20
41.5
 11
6.5
 21
40.6041
  0
LINE
  8
0
 10
6.5
 20
40.6041
 11
7.10409
 21
40
  0
LINE
  8
0
 10
7.10409
 20
40
 11
7.10409
 21
26.5992
  0
LINE
  8
0
 10
7.10409
 20
26.5992
 11
7.11277
 21
26.4379
  0
LINE
  8
0
 10
7.11277
 20
26.4379
 11
7.11332
 21
26.4276
  0
LINE
  8
0
 10
7.11332
 20
26.4276
 11
7.13949
 21
26.2681
  0
LINE
  8
0
 10
7.13949
 20
26.2681
 11
7.14079
 21
26.2601
  0
LINE
  8
0
 10
7.14079
 20
26.2601
 11
7.18422
 21
26.1067
  0
LINE
  8
0
 10
7.18422
 20
26.1067
 11
7.18583
 21
26.101
  0
LINE
  8
0
 10
7.18583
 20
26.101
 11
7.24579
 21
25.9579
  0
LINE
  8
0
 10
7.24579
 20
25.9579
 11
7.24732
 21
25.9542
  0
LINE
  8
0
 10
7.24732
 20
25.9542
 11
7.32259
 21
25.8253
  0
LINE
  8
0
 10
7.32259
 20
25.8253
 11
7.32376
 21
25.8233
  0
LINE
  8
0
 10
7.32376
 20
25.8233
 11
7.41263
 21
25.7122
  0
LINE
  8
0
 10
7.41263
 20
25.7122
 11
7.41325
 21
25.7114
  0
LINE
  8
0
 10
7.41325
 20
25.7114
 11
7.51359
 21
25.6215
  0
LINE
  8
0
 10
7.51359
 20
25.6215
 11
7.52122
 21
25.6169
  0
LINE
  8
0
 10
7.52122
 20
25.6169
 11
7.61116
 21
25.5571
  0
LINE
  8
0
 10
7.61116
 20
25.5571
 11
7.62232
 21
25.5496
  0
LINE
  8
0
 10
7.62232
 20
25.5496
 11
7.71608
 21
25.5135
  0
LINE
  8
0
 10
7.71608
 20
25.5135
 11
7.73676
 21
25.5055
  0
LINE
  8
0
 10
7.73676
 20
25.5055
 11
7.82859
 21
25.4939
  0
LINE
  8
0
 10
7.82859
 20
25.4939
 11
7.85409
 21
25.4907
  0
LINE
  8
0
 10
7.85409
 20
25.4907
 11
11
 21
25.4907
  0
LINE
  8
0
 10
11
 20
25.4907
 11
11
 21
45.5
  0
LINE
  8
0
 10
11
 20
45.5
 11
4.83677
 21
45.5
  0
LINE
  8
0
 10
4.83677
 20
45.5
 11
4.83677
 21
41.5
  0
LINE
  8
0
 10
36.5
 20
0
 11
42.6591
 21
0
  0
LINE
  8
0
 10
42.6591
 20
0
 11
42.6591
 21
4
  0
LINE
  8
0
 10
42.6591
 20
4
 11
41
 21
4
  0
LINE
  8
0
 10
41
 20
4
 11
41
 21
4.89591
  0
LINE
  8
0
 10
41
 20
4.89591
 11
40.3959
 21
5.5
  0
LINE
  8
0
 10
40.3959
 20
5.5
 11
40.3959
 21
21.2167
  0
LINE
  8
0
 10
40.3959
 20
21.2167
 11
40.3934
 21
21.2544
  0
LINE
  8
0
 10
40.3934
 20
21.2544
 11
40.3867
 21
21.3571
  0
LINE
  8
0
 10
40.3867
 20
21.3571
 11
40.3831
 21
21.3747
  0
LINE
  8
0
 10
40.3831
 20
21.3747
 11
40.3625
 21
21.4776
  0
LINE
  8
0
 10
40.3625
 20
21.4776
 11
40.3597
 21
21.4934
  0
LINE
  8
0
 10
40.3597
 20
21.4934
 11
40.3592
 21
21.4964
  0
LINE
  8
0
 10
40.3592
 20
21.4964
 11
40.3221
 21
21.6187
  0
LINE
  8
0
 10
40.3221
 20
21.6187
 11
40.3142
 21
21.6448
  0
LINE
  8
0
 10
40.3142
 20
21.6448
 11
40.2733
 21
21.7359
  0
LINE
  8
0
 10
40.2733
 20
21.7359
 11
40.2527
 21
21.7818
  0
LINE
  8
0
 10
40.2527
 20
21.7818
 11
40.2138
 21
21.8439
  0
LINE
  8
0
 10
40.2138
 20
21.8439
 11
40.1762
 21
21.904
  0
LINE
  8
0
 10
40.1762
 20
21.904
 11
40.1443
 21
21.9412
  0
LINE
  8
0
 10
40.1443
 20
21.9412
 11
40.0868
 21
22.0083
  0
LINE
  8
0
 10
40.0868
 20
22.0083
 11
40.065
 21
22.0265
  0
LINE
  8
0
 10
40.065
 20
22.0265
 11
39.9864
 21
22.0923
  0
LINE
  8
0
 10
39.9864
 20
22.0923
 11
39.9762
 21
22.098
  0
LINE
  8
0
 10
39.9762
 20
22.098
 11
39.8831
 21
22.1507
  0
LINE
  8
0
 10
39.8831
 20
22.1507
 11
39.8783
 21
22.154
  0
LINE
  8
0
 10
39.8783
 20
22.154
 11
39.8777
 21
22.1544
  0
LINE
  8
0
 10
39.8777
 20
22.1544
 11
39.7724
 21
22.1958
  0
LINE
  8
0
 10
39.7724
 20
22.1958
 11
39.7632
 21
22.1995
  0
LINE
  8
0
 10
39.7632
 20
22.1995
 11
39.659
 21
22.2129
  0
LINE
  8
0
 10
39.659
 20
22.2129
 11
39.6459
 21
22.2146
  0
LINE
  8
0
 10
39.6459
 20
22.2146
 11
36.5
 21
22.2146
  0
LINE
  8
0
 10
36.5
 20
22.2146
 11
36.5
 21
0
  0
LINE
  8
0
 10
36.5
 20
25.4907
 11
39.6459
 21
25.4907
  0
LINE
  8
0
 10
39.6459
 20
25.4907
 11
39.7394
 21
25.5025
  0
LINE
  8
0
 10
39.7394
 20
25.5025
 11
39.7632
 21
25.5055
  0
LINE
  8
0
 10
39.7632
 20
25.5055
 11
39.8629
 21
25.5439
  0
LINE
  8
0
 10
39.8629
 20
25.5439
 11
39.8777
 21
25.5496
  0
LINE
  8
0
 10
39.8777
 20
25.5496
 11
39.9788
 21
25.6169
  0
LINE
  8
0
 10
39.9788
 20
25.6169
 11
39.9864
 21
25.6215
  0
LINE
  8
0
 10
39.9864
 20
25.6215
 11
39.9864
 21
25.6215
  0
LINE
  8
0
 10
39.9864
 20
25.6215
 11
40.0868
 21
25.7114
  0
LINE
  8
0
 10
40.0868
 20
25.7114
 11
40.1749
 21
25.8216
  0
LINE
  8
0
 10
40.1749
 20
25.8216
 11
40.1762
 21
25.8233
  0
LINE
  8
0
 10
40.1762
 20
25.8233
 11
40.2508
 21
25.951
  0
LINE
  8
0
 10
40.2508
 20
25.951
 11
40.2527
 21
25.9542
  0
LINE
  8
0
 10
40.2527
 20
25.9542
 11
40.312
 21
26.0959
  0
LINE
  8
0
 10
40.312
 20
26.0959
 11
40.3142
 21
26.101
  0
LINE
  8
0
 10
40.3142
 20
26.101
 11
40.3571
 21
26.2528
  0
LINE
  8
0
 10
40.3571
 20
26.2528
 11
40.3592
 21
26.2601
  0
LINE
  8
0
 10
40.3592
 20
26.2601
 11
40.3851
 21
26.4178
  0
LINE
  8
0
 10
40.3851
 20
26.4178
 11
40.3867
 21
26.4276
  0
LINE
  8
0
 10
40.3867
 20
26.4276
 11
40.3953
 21
26.5871
  0
LINE
  8
0
 10
40.3953
 20
26.5871
 11
40.3959
 21
26.5992
  0
LINE
  8
0
 10
40.3959
 20
26.5992
 11
40.3959
 21
40
  0
LINE
  8
0
 10
40.3959
 20
40
 11
41
 21
40.6041
  0
LINE
  8
0
 10
41
 20
40.6041
 11
41
 21
41.5
  0
LINE
  8
0
 10
41
 20
41.5
 11
42.6591
 21
41.5
  0
LINE
  8
0
 10
42.6591
 20
41.5
 11
42.6591
 21
45.5
  0
LINE
  8
0
 10
42.6591
 20
45.5
 11
36.5
 21
45.5
  0
LINE
  8
0
 10
36.5
 20
45.5
 11
36.5
 21
25.4907
  0
LINE
  8
0
 10
44.8368
 20
0
 11
47.5
 21
0
  0
LINE
  8
0
 10
47.5
 20
0
 11
47.5
 21
3.5
  0
LINE
  8
0
 10
47.5
 20
3.5
 11
47
 21
4
  0
LINE
  8
0
 10
47
 20
4
 11
44.8368
 21
4
  0
LINE
  8
0
 10
44.8368
 20
4
 11
44.8368
 21
0
  0
LINE
  8
0
 10
44.8368
 20
41.5
 11
47
 21
41.5
  0
LINE
  8
0
 10
47
 20
41.5
 11
47.5
 21
42
  0
LINE
  8
0
 10
47.5
 20
42
 11
47.5
 21
45.5
  0
LINE
  8
0
 10
47.5
 20
45.5
 11
44.8368
 21
45.5
  0
LINE
  8
0
 10
44.8368
 20
45.5
 11
44.8368
 21
41.5
  0
ENDSEC
  0
SECTION
  2
OBJECTS
  0
DICTIONARY
  0
ENDSEC
  0
EOF
