  0
SECTION
  2
BLOCKS
  0
ENDSEC
  0
SECTION
  2
ENTITIES
  0
LINE
  8
0
 10
0
 20
0
 11
2.25273
 21
0
  0
LINE
  8
0
 10
2.25273
 20
0
 11
2.25273
 21
4
  0
LINE
  8
0
 10
2.25273
 20
4
 11
0.499999
 21
4
  0
LINE
  8
0
 10
0.499999
 20
4
 11
0
 21
3.5
  0
LINE
  8
0
 10
0
 20
3.5
 11
0
 21
0
  0
LINE
  8
0
 10
0
 20
42
 11
0.499999
 21
41.5
  0
LINE
  8
0
 10
0.499999
 20
41.5
 11
2.25273
 21
41.5
  0
LINE
  8
0
 10
2.25273
 20
41.5
 11
2.25273
 21
45.5
  0
LINE
  8
0
 10
2.25273
 20
45.5
 11
0
 21
45.5
  0
LINE
  8
0
 10
0
 20
45.5
 11
0
 21
42
  0
LINE
  8
0
 10
5.24335
 20
0
 11
11
 21
0
  0
LINE
  8
0
 10
11
 20
0
 11
11
 21
23.1228
  0
LINE
  8
0
 10
11
 20
23.1228
 11
7.85409
 21
23.1228
  0
LINE
  8
0
 10
7.85409
 20
23.1228
 11
7.80975
 21
23.1118
  0
LINE
  8
0
 10
7.80975
 20
23.1118
 11
7.73676
 21
23.0938
  0
LINE
  8
0
 10
7.73676
 20
23.0938
 11
7.67719
 21
23.0488
  0
LINE
  8
0
 10
7.67719
 20
23.0488
 11
7.62232
 21
23.0073
  0
LINE
  8
0
 10
7.62232
 20
23.0073
 11
7.52482
 21
22.8802
  0
LINE
  8
0
 10
7.52482
 20
22.8802
 11
7.51359
 21
22.8656
  0
LINE
  8
0
 10
7.51359
 20
22.8656
 11
7.49685
 21
22.8333
  0
LINE
  8
0
 10
7.49685
 20
22.8333
 11
7.41325
 21
22.7244
  0
LINE
  8
0
 10
7.41325
 20
22.7244
 11
7.38319
 21
22.6698
  0
LINE
  8
0
 10
7.38319
 20
22.6698
 11
7.32376
 21
22.5618
  0
LINE
  8
0
 10
7.32376
 20
22.5618
 11
7.25738
 21
22.3965
  0
LINE
  8
0
 10
7.25738
 20
22.3965
 11
7.24732
 21
22.3714
  0
LINE
  8
0
 10
7.24732
 20
22.3714
 11
7.23438
 21
22.3265
  0
LINE
  8
0
 10
7.23438
 20
22.3265
 11
7.18583
 21
22.1965
  0
LINE
  8
0
 10
7.18583
 20
22.1965
 11
7.17162
 21
22.1403
  0
LINE
  8
0
 10
7.17162
 20
22.1403
 11
7.14079
 21
22.0182
  0
LINE
  8
0
 10
7.14079
 20
22.0182
 11
7.12086
 21
21.882
  0
LINE
  8
0
 10
7.12086
 20
21.882
 11
7.11332
 21
21.8305
  0
LINE
  8
0
 10
7.11332
 20
21.8305
 11
7.10697
 21
21.6982
  0
LINE
  8
0
 10
7.10697
 20
21.6982
 11
7.10409
 21
21.6481
  0
LINE
  8
0
 10
7.10409
 20
21.6481
 11
7.10409
 21
5.5
  0
LINE
  8
0
 10
7.10409
 20
5.5
 11
6.5
 21
4.89591
  0
LINE
  8
0
 10
6.5
 20
4.89591
 11
6.5
 21
4
  0
LINE
  8
0
 10
6.5
 20
4
 11
5.24335
 21
4
  0
LINE
  8
0
 10
5.24335
 20
4
 11
5.24335
 21
0
  0
LINE
  8
0
 10
5.24335
 20
41.5
 11
6.5
 21
41.5
  0
LINE
  8
0
 10
6.5
 20
41.5
 11
6.5
 21
40.6041
  0
LINE
  8
0
 10
6.5
 20
40.6041
 11
7.10409
 21
40
  0
LINE
  8
0
 10
7.10409
 20
40
 11
7.10409
 21
26.0633
  0
LINE
  8
0
 10
7.10409
 20
26.0633
 11
7.11122
 21
25.9179
  0
LINE
  8
0
 10
7.11122
 20
25.9179
 11
7.11332
 21
25.8749
  0
LINE
  8
0
 10
7.11332
 20
25.8749
 11
7.12864
 21
25.7725
  0
LINE
  8
0
 10
7.12864
 20
25.7725
 11
7.14079
 21
25.6912
  0
LINE
  8
0
 10
7.14079
 20
25.6912
 11
7.1559
 21
25.6327
  0
LINE
  8
0
 10
7.1559
 20
25.6327
 11
7.18583
 21
25.5167
  0
LINE
  8
0
 10
7.18583
 20
25.5167
 11
7.19243
 21
25.4994
  0
LINE
  8
0
 10
7.19243
 20
25.4994
 11
7.2152
 21
25.4398
  0
LINE
  8
0
 10
7.2152
 20
25.4398
 11
7.23883
 21
25.3603
  0
LINE
  8
0
 10
7.23883
 20
25.3603
 11
7.24732
 21
25.3317
  0
LINE
  8
0
 10
7.24732
 20
25.3317
 11
7.29353
 21
25.2201
  0
LINE
  8
0
 10
7.29353
 20
25.2201
 11
7.32376
 21
25.1472
  0
LINE
  8
0
 10
7.32376
 20
25.1472
 11
7.3553
 21
25.0916
  0
LINE
  8
0
 10
7.3553
 20
25.0916
 11
7.41325
 21
24.9896
  0
LINE
  8
0
 10
7.41325
 20
24.9896
 11
7.42443
 21
24.9754
  0
LINE
  8
0
 10
7.42443
 20
24.9754
 11
7.46552
 21
24.9235
  0
LINE
  8
0
 10
7.46552
 20
24.9235
 11
7.5002
 21
24.8598
  0
LINE
  8
0
 10
7.5002
 20
24.8598
 11
7.51359
 21
24.8352
  0
LINE
  8
0
 10
7.51359
 20
24.8352
 11
7.58192
 21
24.7505
  0
LINE
  8
0
 10
7.58192
 20
24.7505
 11
7.62232
 21
24.7003
  0
LINE
  8
0
 10
7.62232
 20
24.7003
 11
7.67201
 21
24.6646
  0
LINE
  8
0
 10
7.67201
 20
24.6646
 11
7.73676
 21
24.618
  0
LINE
  8
0
 10
7.73676
 20
24.618
 11
7.77271
 21
24.6095
  0
LINE
  8
0
 10
7.77271
 20
24.6095
 11
7.85409
 21
24.5903
  0
LINE
  8
0
 10
7.85409
 20
24.5903
 11
11
 21
24.5903
  0
LINE
  8
0
 10
11
 20
24.5903
 11
11
 21
45.5
  0
LINE
  8
0
 10
11
 20
45.5
 11
5.24335
 21
45.5
  0
LINE
  8
0
 10
5.24335
 20
45.5
 11
5.24335
 21
41.5
  0
LINE
  8
0
 10
36.5
 20
0
 11
42.2527
 21
0
  0
LINE
  8
0
 10
42.2527
 20
0
 11
42.2527
 21
4
  0
LINE
  8
0
 10
42.2527
 20
4
 11
41
 21
4
  0
LINE
  8
0
 10
41
 20
4
 11
41
 21
4.89591
  0
LINE
  8
0
 10
41
 20
4.89591
 11
40.3959
 21
5.5
  0
LINE
  8
0
 10
40.3959
 20
5.5
 11
40.3959
 21
21.6481
  0
LINE
  8
0
 10
40.3959
 20
21.6481
 11
40.3954
 21
21.6575
  0
LINE
  8
0
 10
40.3954
 20
21.6575
 11
40.393
 21
21.6982
  0
LINE
  8
0
 10
40.393
 20
21.6982
 11
40.388
 21
21.8026
  0
LINE
  8
0
 10
40.388
 20
21.8026
 11
40.3867
 21
21.8305
  0
LINE
  8
0
 10
40.3867
 20
21.8305
 11
40.3692
 21
21.9502
  0
LINE
  8
0
 10
40.3692
 20
21.9502
 11
40.3592
 21
22.0182
  0
LINE
  8
0
 10
40.3592
 20
22.0182
 11
40.3406
 21
22.0918
  0
LINE
  8
0
 10
40.3406
 20
22.0918
 11
40.3142
 21
22.1965
  0
LINE
  8
0
 10
40.3142
 20
22.1965
 11
40.303
 21
22.2265
  0
LINE
  8
0
 10
40.303
 20
22.2265
 11
40.2656
 21
22.3265
  0
LINE
  8
0
 10
40.2656
 20
22.3265
 11
40.2562
 21
22.3592
  0
LINE
  8
0
 10
40.2562
 20
22.3592
 11
40.2527
 21
22.3714
  0
LINE
  8
0
 10
40.2527
 20
22.3714
 11
40.2006
 21
22.5012
  0
LINE
  8
0
 10
40.2006
 20
22.5012
 11
40.1762
 21
22.5618
  0
LINE
  8
0
 10
40.1762
 20
22.5618
 11
40.138
 21
22.6312
  0
LINE
  8
0
 10
40.138
 20
22.6312
 11
40.0868
 21
22.7244
  0
LINE
  8
0
 10
40.0868
 20
22.7244
 11
40.0683
 21
22.7484
  0
LINE
  8
0
 10
40.0683
 20
22.7484
 11
40.0031
 21
22.8333
  0
LINE
  8
0
 10
40.0031
 20
22.8333
 11
39.9913
 21
22.8562
  0
LINE
  8
0
 10
39.9913
 20
22.8562
 11
39.9864
 21
22.8656
  0
LINE
  8
0
 10
39.9864
 20
22.8656
 11
39.909
 21
22.9665
  0
LINE
  8
0
 10
39.909
 20
22.9665
 11
39.8777
 21
23.0073
  0
LINE
  8
0
 10
39.8777
 20
23.0073
 11
39.8184
 21
23.0521
  0
LINE
  8
0
 10
39.8184
 20
23.0521
 11
39.7632
 21
23.0938
  0
LINE
  8
0
 10
39.7632
 20
23.0938
 11
39.7169
 21
23.1052
  0
LINE
  8
0
 10
39.7169
 20
23.1052
 11
39.6459
 21
23.1228
  0
LINE
  8
0
 10
39.6459
 20
23.1228
 11
36.5
 21
23.1228
  0
LINE
  8
0
 10
36.5
 20
23.1228
 11
36.5
 21
0
  0
LINE
  8
0
 10
36.5
 20
24.5903
 11
39.6459
 21
24.5903
  0
LINE
  8
0
 10
39.6459
 20
24.5903
 11
39.6786
 21
24.598
  0
LINE
  8
0
 10
39.6786
 20
24.598
 11
39.7632
 21
24.618
  0
LINE
  8
0
 10
39.7632
 20
24.618
 11
39.8087
 21
24.6507
  0
LINE
  8
0
 10
39.8087
 20
24.6507
 11
39.8777
 21
24.7003
  0
LINE
  8
0
 10
39.8777
 20
24.7003
 11
39.9567
 21
24.7983
  0
LINE
  8
0
 10
39.9567
 20
24.7983
 11
39.9864
 21
24.8352
  0
LINE
  8
0
 10
39.9864
 20
24.8352
 11
40.0345
 21
24.9235
  0
LINE
  8
0
 10
40.0345
 20
24.9235
 11
40.0868
 21
24.9896
  0
LINE
  8
0
 10
40.0868
 20
24.9896
 11
40.1045
 21
25.0208
  0
LINE
  8
0
 10
40.1045
 20
25.0208
 11
40.1762
 21
25.1472
  0
LINE
  8
0
 10
40.1762
 20
25.1472
 11
40.2293
 21
25.2752
  0
LINE
  8
0
 10
40.2293
 20
25.2752
 11
40.2527
 21
25.3317
  0
LINE
  8
0
 10
40.2527
 20
25.3317
 11
40.2848
 21
25.4398
  0
LINE
  8
0
 10
40.2848
 20
25.4398
 11
40.3142
 21
25.5167
  0
LINE
  8
0
 10
40.3142
 20
25.5167
 11
40.3224
 21
25.5485
  0
LINE
  8
0
 10
40.3224
 20
25.5485
 11
40.3592
 21
25.6912
  0
LINE
  8
0
 10
40.3592
 20
25.6912
 11
40.3751
 21
25.7973
  0
LINE
  8
0
 10
40.3751
 20
25.7973
 11
40.3867
 21
25.8749
  0
LINE
  8
0
 10
40.3867
 20
25.8749
 11
40.3955
 21
26.0554
  0
LINE
  8
0
 10
40.3955
 20
26.0554
 11
40.3959
 21
26.0633
  0
LINE
  8
0
 10
40.3959
 20
26.0633
 11
40.3959
 21
40
  0
LINE
  8
0
 10
40.3959
 20
40
 11
41
 21
40.6041
  0
LINE
  8
0
 10
41
 20
40.6041
 11
41
 21
41.5
  0
LINE
  8
0
 10
41
 20
41.5
 11
42.2527
 21
41.5
  0
LINE
  8
0
 10
42.2527
 20
41.5
 11
42.2527
 21
45.5
  0
LINE
  8
0
 10
42.2527
 20
45.5
 11
36.5
 21
45.5
  0
LINE
  8
0
 10
36.5
 20
45.5
 11
36.5
 21
24.5903
  0
LINE
  8
0
 10
45.2434
 20
0
 11
47.5
 21
0
  0
LINE
  8
0
 10
47.5
 20
0
 11
47.5
 21
3.5
  0
LINE
  8
0
 10
47.5
 20
3.5
 11
47
 21
4
  0
LINE
  8
0
 10
47
 20
4
 11
45.2434
 21
4
  0
LINE
  8
0
 10
45.2434
 20
4
 11
45.2434
 21
0
  0
LINE
  8
0
 10
45.2434
 20
41.5
 11
47
 21
41.5
  0
LINE
  8
0
 10
47
 20
41.5
 11
47.5
 21
42
  0
LINE
  8
0
 10
47.5
 20
42
 11
47.5
 21
45.5
  0
LINE
  8
0
 10
47.5
 20
45.5
 11
45.2434
 21
45.5
  0
LINE
  8
0
 10
45.2434
 20
45.5
 11
45.2434
 21
41.5
  0
ENDSEC
  0
SECTION
  2
OBJECTS
  0
DICTIONARY
  0
ENDSEC
  0
EOF
