  0
SECTION
  2
BLOCKS
  0
ENDSEC
  0
SECTION
  2
ENTITIES
  0
LINE
  8
0
 10
0
 20
0
 11
2.07776
 21
0
  0
LINE
  8
0
 10
2.07776
 20
0
 11
2.07776
 21
4
  0
LINE
  8
0
 10
2.07776
 20
4
 11
0.499999
 21
4
  0
LINE
  8
0
 10
0.499999
 20
4
 11
0
 21
3.5
  0
LINE
  8
0
 10
0
 20
3.5
 11
0
 21
0
  0
LINE
  8
0
 10
0
 20
42
 11
0.499999
 21
41.5
  0
LINE
  8
0
 10
0.499999
 20
41.5
 11
2.07776
 21
41.5
  0
LINE
  8
0
 10
2.07776
 20
41.5
 11
2.07776
 21
45.5
  0
LINE
  8
0
 10
2.07776
 20
45.5
 11
0
 21
45.5
  0
LINE
  8
0
 10
0
 20
45.5
 11
0
 21
42
  0
LINE
  8
0
 10
5.41716
 20
0
 11
11
 21
0
  0
LINE
  8
0
 10
11
 20
0
 11
11
 21
45.5
  0
LINE
  8
0
 10
11
 20
45.5
 11
5.41716
 21
45.5
  0
LINE
  8
0
 10
5.41716
 20
45.5
 11
5.41716
 21
41.5
  0
LINE
  8
0
 10
5.41716
 20
41.5
 11
6.5
 21
41.5
  0
LINE
  8
0
 10
6.5
 20
41.5
 11
6.5
 21
40.6041
  0
LINE
  8
0
 10
6.5
 20
40.6041
 11
7.10409
 21
40
  0
LINE
  8
0
 10
7.10409
 20
40
 11
7.10409
 21
25.335
  0
LINE
  8
0
 10
7.10409
 20
25.335
 11
7.10623
 21
25.2789
  0
LINE
  8
0
 10
7.10623
 20
25.2789
 11
7.11123
 21
25.1479
  0
LINE
  8
0
 10
7.11123
 20
25.1479
 11
7.11254
 21
25.0981
  0
LINE
  8
0
 10
7.11254
 20
25.0981
 11
7.11332
 21
25.0683
  0
LINE
  8
0
 10
7.11332
 20
25.0683
 11
7.12801
 21
24.8849
  0
LINE
  8
0
 10
7.12801
 20
24.8849
 11
7.14079
 21
24.7254
  0
LINE
  8
0
 10
7.14079
 20
24.7254
 11
7.14711
 21
24.6798
  0
LINE
  8
0
 10
7.14711
 20
24.6798
 11
7.15671
 21
24.6103
  0
LINE
  8
0
 10
7.15671
 20
24.6103
 11
7.16983
 21
24.4278
  0
LINE
  8
0
 10
7.16983
 20
24.4278
 11
7.18583
 21
24.2051
  0
LINE
  8
0
 10
7.18583
 20
24.2051
 11
7.19098
 21
24.1567
  0
LINE
  8
0
 10
7.19098
 20
24.1567
 11
7.19511
 21
24.1178
  0
LINE
  8
0
 10
7.19511
 20
24.1178
 11
7.19714
 21
23.7254
  0
LINE
  8
0
 10
7.19714
 20
23.7254
 11
7.19758
 21
23.6401
  0
LINE
  8
0
 10
7.19758
 20
23.6401
 11
7.18583
 21
23.5178
  0
LINE
  8
0
 10
7.18583
 20
23.5178
 11
7.16196
 21
23.1504
  0
LINE
  8
0
 10
7.16196
 20
23.1504
 11
7.14079
 21
22.9896
  0
LINE
  8
0
 10
7.14079
 20
22.9896
 11
7.11491
 21
22.6504
  0
LINE
  8
0
 10
7.11491
 20
22.6504
 11
7.11332
 21
22.6295
  0
LINE
  8
0
 10
7.11332
 20
22.6295
 11
7.11306
 21
22.619
  0
LINE
  8
0
 10
7.11306
 20
22.619
 11
7.10409
 21
22.3765
  0
LINE
  8
0
 10
7.10409
 20
22.3765
 11
7.10409
 21
5.5
  0
LINE
  8
0
 10
7.10409
 20
5.5
 11
6.5
 21
4.89591
  0
LINE
  8
0
 10
6.5
 20
4.89591
 11
6.5
 21
4
  0
LINE
  8
0
 10
6.5
 20
4
 11
5.41716
 21
4
  0
LINE
  8
0
 10
5.41716
 20
4
 11
5.41716
 21
0
  0
LINE
  8
0
 10
36.5
 20
0
 11
42.0778
 21
0
  0
LINE
  8
0
 10
42.0778
 20
0
 11
42.0778
 21
4
  0
LINE
  8
0
 10
42.0778
 20
4
 11
41
 21
4
  0
LINE
  8
0
 10
41
 20
4
 11
41
 21
4.89591
  0
LINE
  8
0
 10
41
 20
4.89591
 11
40.3959
 21
5.5
  0
LINE
  8
0
 10
40.3959
 20
5.5
 11
40.3959
 21
22.3765
  0
LINE
  8
0
 10
40.3959
 20
22.3765
 11
40.3931
 21
22.4512
  0
LINE
  8
0
 10
40.3931
 20
22.4512
 11
40.3869
 21
22.619
  0
LINE
  8
0
 10
40.3869
 20
22.619
 11
40.3868
 21
22.6254
  0
LINE
  8
0
 10
40.3868
 20
22.6254
 11
40.3867
 21
22.6295
  0
LINE
  8
0
 10
40.3867
 20
22.6295
 11
40.3703
 21
22.8447
  0
LINE
  8
0
 10
40.3703
 20
22.8447
 11
40.3592
 21
22.9896
  0
LINE
  8
0
 10
40.3592
 20
22.9896
 11
40.3505
 21
23.0554
  0
LINE
  8
0
 10
40.3505
 20
23.0554
 11
40.338
 21
23.1504
  0
LINE
  8
0
 10
40.338
 20
23.1504
 11
40.3279
 21
23.3063
  0
LINE
  8
0
 10
40.3279
 20
23.3063
 11
40.3142
 21
23.5178
  0
LINE
  8
0
 10
40.3142
 20
23.5178
 11
40.3074
 21
23.5887
  0
LINE
  8
0
 10
40.3074
 20
23.5887
 11
40.3024
 21
23.6401
  0
LINE
  8
0
 10
40.3024
 20
23.6401
 11
40.3045
 21
24.0449
  0
LINE
  8
0
 10
40.3045
 20
24.0449
 11
40.3049
 21
24.1178
  0
LINE
  8
0
 10
40.3049
 20
24.1178
 11
40.3142
 21
24.2051
  0
LINE
  8
0
 10
40.3142
 20
24.2051
 11
40.3433
 21
24.6103
  0
LINE
  8
0
 10
40.3433
 20
24.6103
 11
40.3592
 21
24.7254
  0
LINE
  8
0
 10
40.3592
 20
24.7254
 11
40.3758
 21
24.933
  0
LINE
  8
0
 10
40.3758
 20
24.933
 11
40.3867
 21
25.0683
  0
LINE
  8
0
 10
40.3867
 20
25.0683
 11
40.3888
 21
25.1479
  0
LINE
  8
0
 10
40.3888
 20
25.1479
 11
40.3959
 21
25.335
  0
LINE
  8
0
 10
40.3959
 20
25.335
 11
40.3959
 21
40
  0
LINE
  8
0
 10
40.3959
 20
40
 11
41
 21
40.6041
  0
LINE
  8
0
 10
41
 20
40.6041
 11
41
 21
41.5
  0
LINE
  8
0
 10
41
 20
41.5
 11
42.0778
 21
41.5
  0
LINE
  8
0
 10
42.0778
 20
41.5
 11
42.0778
 21
45.5
  0
LINE
  8
0
 10
42.0778
 20
45.5
 11
36.5
 21
45.5
  0
LINE
  8
0
 10
36.5
 20
45.5
 11
36.5
 21
0
  0
LINE
  8
0
 10
45.4172
 20
0
 11
47.5
 21
0
  0
LINE
  8
0
 10
47.5
 20
0
 11
47.5
 21
3.5
  0
LINE
  8
0
 10
47.5
 20
3.5
 11
47
 21
4
  0
LINE
  8
0
 10
47
 20
4
 11
45.4172
 21
4
  0
LINE
  8
0
 10
45.4172
 20
4
 11
45.4172
 21
0
  0
LINE
  8
0
 10
45.4172
 20
41.5
 11
47
 21
41.5
  0
LINE
  8
0
 10
47
 20
41.5
 11
47.5
 21
42
  0
LINE
  8
0
 10
47.5
 20
42
 11
47.5
 21
45.5
  0
LINE
  8
0
 10
47.5
 20
45.5
 11
45.4172
 21
45.5
  0
LINE
  8
0
 10
45.4172
 20
45.5
 11
45.4172
 21
41.5
  0
ENDSEC
  0
SECTION
  2
OBJECTS
  0
DICTIONARY
  0
ENDSEC
  0
EOF
