  0
SECTION
  2
BLOCKS
  0
ENDSEC
  0
SECTION
  2
ENTITIES
  0
LINE
  8
0
 10
0
 20
0
 11
11
 21
0
  0
LINE
  8
0
 10
11
 20
0
 11
11
 21
17.5433
  0
LINE
  8
0
 10
11
 20
17.5433
 11
7.85409
 21
17.5433
  0
LINE
  8
0
 10
7.85409
 20
17.5433
 11
7.73676
 21
17.5298
  0
LINE
  8
0
 10
7.73676
 20
17.5298
 11
7.65194
 21
17.5
  0
LINE
  8
0
 10
7.65194
 20
17.5
 11
7.62232
 21
17.4896
  0
LINE
  8
0
 10
7.62232
 20
17.4896
 11
7.5415
 21
17.4406
  0
LINE
  8
0
 10
7.5415
 20
17.4406
 11
7.51359
 21
17.4237
  0
LINE
  8
0
 10
7.51359
 20
17.4237
 11
7.4387
 21
17.3566
  0
LINE
  8
0
 10
7.4387
 20
17.3566
 11
7.41325
 21
17.3337
  0
LINE
  8
0
 10
7.41325
 20
17.3337
 11
7.3461
 21
17.2498
  0
LINE
  8
0
 10
7.3461
 20
17.2498
 11
7.32376
 21
17.2219
  0
LINE
  8
0
 10
7.32376
 20
17.2219
 11
7.26606
 21
17.1231
  0
LINE
  8
0
 10
7.26606
 20
17.1231
 11
7.24732
 21
17.091
  0
LINE
  8
0
 10
7.24732
 20
17.091
 11
7.20058
 21
16.9794
  0
LINE
  8
0
 10
7.20058
 20
16.9794
 11
7.18583
 21
16.9441
  0
LINE
  8
0
 10
7.18583
 20
16.9441
 11
7.15134
 21
16.8223
  0
LINE
  8
0
 10
7.15134
 20
16.8223
 11
7.14079
 21
16.785
  0
LINE
  8
0
 10
7.14079
 20
16.785
 11
7.11958
 21
16.6558
  0
LINE
  8
0
 10
7.11958
 20
16.6558
 11
7.11332
 21
16.6176
  0
LINE
  8
0
 10
7.11332
 20
16.6176
 11
7.10614
 21
16.484
  0
LINE
  8
0
 10
7.10614
 20
16.484
 11
7.10409
 21
16.4459
  0
LINE
  8
0
 10
7.10409
 20
16.4459
 11
7.10409
 21
14.3645
  0
LINE
  8
0
 10
7.10409
 20
14.3645
 11
7.10757
 21
14.1091
  0
LINE
  8
0
 10
7.10757
 20
14.1091
 11
7.11024
 21
13.9135
  0
LINE
  8
0
 10
7.11024
 20
13.9135
 11
7.11036
 21
13.7412
  0
LINE
  8
0
 10
7.11036
 20
13.7412
 11
7.11059
 21
13.39
  0
LINE
  8
0
 10
7.11059
 20
13.39
 11
7.10409
 21
12.863
  0
LINE
  8
0
 10
7.10409
 20
12.863
 11
7.10409
 21
5.5
  0
LINE
  8
0
 10
7.10409
 20
5.5
 11
5.60409
 21
4
  0
LINE
  8
0
 10
5.60409
 20
4
 11
0.499999
 21
4
  0
LINE
  8
0
 10
0.499999
 20
4
 11
0
 21
3.5
  0
LINE
  8
0
 10
0
 20
3.5
 11
0
 21
0
  0
LINE
  8
0
 10
0
 20
42
 11
0.499999
 21
41.5
  0
LINE
  8
0
 10
0.499999
 20
41.5
 11
5.60409
 21
41.5
  0
LINE
  8
0
 10
5.60409
 20
41.5
 11
7.10409
 21
40
  0
LINE
  8
0
 10
7.10409
 20
40
 11
7.10409
 21
34.2582
  0
LINE
  8
0
 10
7.10409
 20
34.2582
 11
7.11123
 21
34.1648
  0
LINE
  8
0
 10
7.11123
 20
34.1648
 11
7.11332
 21
34.1373
  0
LINE
  8
0
 10
7.11332
 20
34.1373
 11
7.13658
 21
34.0375
  0
LINE
  8
0
 10
7.13658
 20
34.0375
 11
7.14079
 21
34.0194
  0
LINE
  8
0
 10
7.14079
 20
34.0194
 11
7.18233
 21
33.9161
  0
LINE
  8
0
 10
7.18233
 20
33.9161
 11
7.18583
 21
33.9074
  0
LINE
  8
0
 10
7.18583
 20
33.9074
 11
7.24714
 21
33.8043
  0
LINE
  8
0
 10
7.24714
 20
33.8043
 11
7.24732
 21
33.804
  0
LINE
  8
0
 10
7.24732
 20
33.804
 11
7.25067
 21
33.8
  0
LINE
  8
0
 10
7.25067
 20
33.8
 11
7.32376
 21
33.7065
  0
LINE
  8
0
 10
7.32376
 20
33.7065
 11
7.33059
 21
33.7002
  0
LINE
  8
0
 10
7.33059
 20
33.7002
 11
7.41325
 21
33.623
  0
LINE
  8
0
 10
7.41325
 20
33.623
 11
7.42792
 21
33.6132
  0
LINE
  8
0
 10
7.42792
 20
33.6132
 11
7.51359
 21
33.5559
  0
LINE
  8
0
 10
7.51359
 20
33.5559
 11
7.5356
 21
33.5459
  0
LINE
  8
0
 10
7.5356
 20
33.5459
 11
7.62232
 21
33.5067
  0
LINE
  8
0
 10
7.62232
 20
33.5067
 11
7.65003
 21
33.4994
  0
LINE
  8
0
 10
7.65003
 20
33.4994
 11
7.73676
 21
33.4767
  0
LINE
  8
0
 10
7.73676
 20
33.4767
 11
7.76768
 21
33.474
  0
LINE
  8
0
 10
7.76768
 20
33.474
 11
7.85409
 21
33.4666
  0
LINE
  8
0
 10
7.85409
 20
33.4666
 11
11
 21
33.4666
  0
LINE
  8
0
 10
11
 20
33.4666
 11
11
 21
45.5
  0
LINE
  8
0
 10
11
 20
45.5
 11
0
 21
45.5
  0
LINE
  8
0
 10
0
 20
45.5
 11
0
 21
42
  0
LINE
  8
0
 10
7.10409
 20
25.9565
 11
7.10811
 21
25.8818
  0
LINE
  8
0
 10
7.10811
 20
25.8818
 11
7.11332
 21
25.7849
  0
LINE
  8
0
 10
7.11332
 20
25.7849
 11
7.12545
 21
25.7109
  0
LINE
  8
0
 10
7.12545
 20
25.7109
 11
7.14079
 21
25.6174
  0
LINE
  8
0
 10
7.14079
 20
25.6174
 11
7.16095
 21
25.5462
  0
LINE
  8
0
 10
7.16095
 20
25.5462
 11
7.18583
 21
25.4583
  0
LINE
  8
0
 10
7.18583
 20
25.4583
 11
7.2137
 21
25.3918
  0
LINE
  8
0
 10
7.2137
 20
25.3918
 11
7.24732
 21
25.3115
  0
LINE
  8
0
 10
7.24732
 20
25.3115
 11
7.28235
 21
25.2515
  0
LINE
  8
0
 10
7.28235
 20
25.2515
 11
7.32376
 21
25.1806
  0
LINE
  8
0
 10
7.32376
 20
25.1806
 11
7.41325
 21
25.0687
  0
LINE
  8
0
 10
7.41325
 20
25.0687
 11
7.51359
 21
24.9788
  0
LINE
  8
0
 10
7.51359
 20
24.9788
 11
7.56462
 21
24.9478
  0
LINE
  8
0
 10
7.56462
 20
24.9478
 11
7.62232
 21
24.9129
  0
LINE
  8
0
 10
7.62232
 20
24.9129
 11
7.67626
 21
24.8939
  0
LINE
  8
0
 10
7.67626
 20
24.8939
 11
7.73676
 21
24.8727
  0
LINE
  8
0
 10
7.73676
 20
24.8727
 11
7.85409
 21
24.8592
  0
LINE
  8
0
 10
7.85409
 20
24.8592
 11
11
 21
24.8592
  0
LINE
  8
0
 10
11
 20
24.8592
 11
11
 21
28.4933
  0
LINE
  8
0
 10
11
 20
28.4933
 11
7.85409
 21
28.4933
  0
LINE
  8
0
 10
7.85409
 20
28.4933
 11
7.73676
 21
28.4798
  0
LINE
  8
0
 10
7.73676
 20
28.4798
 11
7.72167
 21
28.4745
  0
LINE
  8
0
 10
7.72167
 20
28.4745
 11
7.62232
 21
28.4396
  0
LINE
  8
0
 10
7.62232
 20
28.4396
 11
7.60764
 21
28.4307
  0
LINE
  8
0
 10
7.60764
 20
28.4307
 11
7.51359
 21
28.3737
  0
LINE
  8
0
 10
7.51359
 20
28.3737
 11
7.49953
 21
28.3611
  0
LINE
  8
0
 10
7.49953
 20
28.3611
 11
7.41325
 21
28.2837
  0
LINE
  8
0
 10
7.41325
 20
28.2837
 11
7.32376
 21
28.1719
  0
LINE
  8
0
 10
7.32376
 20
28.1719
 11
7.24732
 21
28.0409
  0
LINE
  8
0
 10
7.24732
 20
28.0409
 11
7.23716
 21
28.0167
  0
LINE
  8
0
 10
7.23716
 20
28.0167
 11
7.18583
 21
27.8941
  0
LINE
  8
0
 10
7.18583
 20
27.8941
 11
7.14079
 21
27.735
  0
LINE
  8
0
 10
7.14079
 20
27.735
 11
7.13563
 21
27.7035
  0
LINE
  8
0
 10
7.13563
 20
27.7035
 11
7.11332
 21
27.5676
  0
LINE
  8
0
 10
7.11332
 20
27.5676
 11
7.11147
 21
27.5332
  0
LINE
  8
0
 10
7.11147
 20
27.5332
 11
7.10409
 21
27.3959
  0
LINE
  8
0
 10
7.10409
 20
27.3959
 11
7.10409
 21
25.9565
  0
LINE
  8
0
 10
36.5
 20
0
 11
47.5
 21
0
  0
LINE
  8
0
 10
47.5
 20
0
 11
47.5
 21
3.5
  0
LINE
  8
0
 10
47.5
 20
3.5
 11
47
 21
4
  0
LINE
  8
0
 10
47
 20
4
 11
41.8959
 21
4
  0
LINE
  8
0
 10
41.8959
 20
4
 11
40.3959
 21
5.5
  0
LINE
  8
0
 10
40.3959
 20
5.5
 11
40.3959
 21
12.863
  0
LINE
  8
0
 10
40.3959
 20
12.863
 11
40.3921
 21
13.1746
  0
LINE
  8
0
 10
40.3921
 20
13.1746
 11
40.3894
 21
13.39
  0
LINE
  8
0
 10
40.3894
 20
13.39
 11
40.3895
 21
13.5549
  0
LINE
  8
0
 10
40.3895
 20
13.5549
 11
40.3898
 21
13.9135
  0
LINE
  8
0
 10
40.3898
 20
13.9135
 11
40.3959
 21
14.3645
  0
LINE
  8
0
 10
40.3959
 20
14.3645
 11
40.3959
 21
16.4459
  0
LINE
  8
0
 10
40.3959
 20
16.4459
 11
40.3888
 21
16.5789
  0
LINE
  8
0
 10
40.3888
 20
16.5789
 11
40.3867
 21
16.6176
  0
LINE
  8
0
 10
40.3867
 20
16.6176
 11
40.3656
 21
16.7463
  0
LINE
  8
0
 10
40.3656
 20
16.7463
 11
40.3592
 21
16.785
  0
LINE
  8
0
 10
40.3592
 20
16.785
 11
40.3248
 21
16.9064
  0
LINE
  8
0
 10
40.3248
 20
16.9064
 11
40.3142
 21
16.9441
  0
LINE
  8
0
 10
40.3142
 20
16.9441
 11
40.2676
 21
17.0553
  0
LINE
  8
0
 10
40.2676
 20
17.0553
 11
40.2527
 21
17.091
  0
LINE
  8
0
 10
40.2527
 20
17.091
 11
40.1952
 21
17.1895
  0
LINE
  8
0
 10
40.1952
 20
17.1895
 11
40.1762
 21
17.2219
  0
LINE
  8
0
 10
40.1762
 20
17.2219
 11
40.1093
 21
17.3056
  0
LINE
  8
0
 10
40.1093
 20
17.3056
 11
40.0868
 21
17.3337
  0
LINE
  8
0
 10
40.0868
 20
17.3337
 11
40.012
 21
17.4007
  0
LINE
  8
0
 10
40.012
 20
17.4007
 11
39.9864
 21
17.4237
  0
LINE
  8
0
 10
39.9864
 20
17.4237
 11
39.9057
 21
17.4726
  0
LINE
  8
0
 10
39.9057
 20
17.4726
 11
39.8777
 21
17.4896
  0
LINE
  8
0
 10
39.8777
 20
17.4896
 11
39.7929
 21
17.5194
  0
LINE
  8
0
 10
39.7929
 20
17.5194
 11
39.7632
 21
17.5298
  0
LINE
  8
0
 10
39.7632
 20
17.5298
 11
39.6459
 21
17.5433
  0
LINE
  8
0
 10
39.6459
 20
17.5433
 11
36.5
 21
17.5433
  0
LINE
  8
0
 10
36.5
 20
17.5433
 11
36.5
 21
0
  0
LINE
  8
0
 10
36.5
 20
24.8592
 11
39.6459
 21
24.8592
  0
LINE
  8
0
 10
39.6459
 20
24.8592
 11
39.7632
 21
24.8727
  0
LINE
  8
0
 10
39.7632
 20
24.8727
 11
39.8172
 21
24.8916
  0
LINE
  8
0
 10
39.8172
 20
24.8916
 11
39.8777
 21
24.9129
  0
LINE
  8
0
 10
39.8777
 20
24.9129
 11
39.9287
 21
24.9438
  0
LINE
  8
0
 10
39.9287
 20
24.9438
 11
39.9864
 21
24.9788
  0
LINE
  8
0
 10
39.9864
 20
24.9788
 11
40.0868
 21
25.0687
  0
LINE
  8
0
 10
40.0868
 20
25.0687
 11
40.1762
 21
25.1806
  0
LINE
  8
0
 10
40.1762
 20
25.1806
 11
40.2113
 21
25.2406
  0
LINE
  8
0
 10
40.2113
 20
25.2406
 11
40.2527
 21
25.3115
  0
LINE
  8
0
 10
40.2527
 20
25.3115
 11
40.2806
 21
25.3781
  0
LINE
  8
0
 10
40.2806
 20
25.3781
 11
40.3142
 21
25.4583
  0
LINE
  8
0
 10
40.3142
 20
25.4583
 11
40.3343
 21
25.5296
  0
LINE
  8
0
 10
40.3343
 20
25.5296
 11
40.3592
 21
25.6174
  0
LINE
  8
0
 10
40.3592
 20
25.6174
 11
40.3714
 21
25.6915
  0
LINE
  8
0
 10
40.3714
 20
25.6915
 11
40.3867
 21
25.7849
  0
LINE
  8
0
 10
40.3867
 20
25.7849
 11
40.3907
 21
25.8597
  0
LINE
  8
0
 10
40.3907
 20
25.8597
 11
40.3959
 21
25.9565
  0
LINE
  8
0
 10
40.3959
 20
25.9565
 11
40.3959
 21
27.3959
  0
LINE
  8
0
 10
40.3959
 20
27.3959
 11
40.394
 21
27.4316
  0
LINE
  8
0
 10
40.394
 20
27.4316
 11
40.3867
 21
27.5676
  0
LINE
  8
0
 10
40.3867
 20
27.5676
 11
40.3813
 21
27.6004
  0
LINE
  8
0
 10
40.3813
 20
27.6004
 11
40.3592
 21
27.735
  0
LINE
  8
0
 10
40.3592
 20
27.735
 11
40.3142
 21
27.8941
  0
LINE
  8
0
 10
40.3142
 20
27.8941
 11
40.3036
 21
27.9194
  0
LINE
  8
0
 10
40.3036
 20
27.9194
 11
40.2527
 21
28.0409
  0
LINE
  8
0
 10
40.2527
 20
28.0409
 11
40.1762
 21
28.1719
  0
LINE
  8
0
 10
40.1762
 20
28.1719
 11
40.0868
 21
28.2837
  0
LINE
  8
0
 10
40.0868
 20
28.2837
 11
40.0722
 21
28.2968
  0
LINE
  8
0
 10
40.0722
 20
28.2968
 11
39.9864
 21
28.3737
  0
LINE
  8
0
 10
39.9864
 20
28.3737
 11
39.9713
 21
28.3828
  0
LINE
  8
0
 10
39.9713
 20
28.3828
 11
39.8777
 21
28.4396
  0
LINE
  8
0
 10
39.8777
 20
28.4396
 11
39.8623
 21
28.445
  0
LINE
  8
0
 10
39.8623
 20
28.445
 11
39.7632
 21
28.4798
  0
LINE
  8
0
 10
39.7632
 20
28.4798
 11
39.6459
 21
28.4933
  0
LINE
  8
0
 10
39.6459
 20
28.4933
 11
36.5
 21
28.4933
  0
LINE
  8
0
 10
36.5
 20
28.4933
 11
36.5
 21
24.8592
  0
LINE
  8
0
 10
36.5
 20
33.4666
 11
39.6459
 21
33.4666
  0
LINE
  8
0
 10
39.6459
 20
33.4666
 11
39.6772
 21
33.4693
  0
LINE
  8
0
 10
39.6772
 20
33.4693
 11
39.7632
 21
33.4767
  0
LINE
  8
0
 10
39.7632
 20
33.4767
 11
39.792
 21
33.4842
  0
LINE
  8
0
 10
39.792
 20
33.4842
 11
39.8777
 21
33.5067
  0
LINE
  8
0
 10
39.8777
 20
33.5067
 11
39.9017
 21
33.5176
  0
LINE
  8
0
 10
39.9017
 20
33.5176
 11
39.9864
 21
33.5559
  0
LINE
  8
0
 10
39.9864
 20
33.5559
 11
40.0042
 21
33.5678
  0
LINE
  8
0
 10
40.0042
 20
33.5678
 11
40.0868
 21
33.623
  0
LINE
  8
0
 10
40.0868
 20
33.623
 11
40.0978
 21
33.6334
  0
LINE
  8
0
 10
40.0978
 20
33.6334
 11
40.1762
 21
33.7065
  0
LINE
  8
0
 10
40.1762
 20
33.7065
 11
40.181
 21
33.7127
  0
LINE
  8
0
 10
40.181
 20
33.7127
 11
40.2493
 21
33.8
  0
LINE
  8
0
 10
40.2493
 20
33.8
 11
40.2525
 21
33.8038
  0
LINE
  8
0
 10
40.2525
 20
33.8038
 11
40.2527
 21
33.804
  0
LINE
  8
0
 10
40.2527
 20
33.804
 11
40.3097
 21
33.9
  0
LINE
  8
0
 10
40.3097
 20
33.9
 11
40.3142
 21
33.9074
  0
LINE
  8
0
 10
40.3142
 20
33.9074
 11
40.3528
 21
34.0036
  0
LINE
  8
0
 10
40.3528
 20
34.0036
 11
40.3592
 21
34.0194
  0
LINE
  8
0
 10
40.3592
 20
34.0194
 11
40.3809
 21
34.1127
  0
LINE
  8
0
 10
40.3809
 20
34.1127
 11
40.3867
 21
34.1373
  0
LINE
  8
0
 10
40.3867
 20
34.1373
 11
40.3934
 21
34.2251
  0
LINE
  8
0
 10
40.3934
 20
34.2251
 11
40.3959
 21
34.2582
  0
LINE
  8
0
 10
40.3959
 20
34.2582
 11
40.3959
 21
40
  0
LINE
  8
0
 10
40.3959
 20
40
 11
41.8959
 21
41.5
  0
LINE
  8
0
 10
41.8959
 20
41.5
 11
47
 21
41.5
  0
LINE
  8
0
 10
47
 20
41.5
 11
47.5
 21
42
  0
LINE
  8
0
 10
47.5
 20
42
 11
47.5
 21
45.5
  0
LINE
  8
0
 10
47.5
 20
45.5
 11
36.5
 21
45.5
  0
LINE
  8
0
 10
36.5
 20
45.5
 11
36.5
 21
33.4666
  0
ENDSEC
  0
SECTION
  2
OBJECTS
  0
DICTIONARY
  0
ENDSEC
  0
EOF
