  0
SECTION
  2
BLOCKS
  0
ENDSEC
  0
SECTION
  2
ENTITIES
  0
LINE
  8
0
 10
0
 20
0
 11
11
 21
0
  0
LINE
  8
0
 10
11
 20
0
 11
11
 21
17.3297
  0
LINE
  8
0
 10
11
 20
17.3297
 11
7.85409
 21
17.3297
  0
LINE
  8
0
 10
7.85409
 20
17.3297
 11
7.73676
 21
17.3162
  0
LINE
  8
0
 10
7.73676
 20
17.3162
 11
7.65027
 21
17.2858
  0
LINE
  8
0
 10
7.65027
 20
17.2858
 11
7.62232
 21
17.276
  0
LINE
  8
0
 10
7.62232
 20
17.276
 11
7.53991
 21
17.226
  0
LINE
  8
0
 10
7.53991
 20
17.226
 11
7.51359
 21
17.2101
  0
LINE
  8
0
 10
7.51359
 20
17.2101
 11
7.43722
 21
17.1416
  0
LINE
  8
0
 10
7.43722
 20
17.1416
 11
7.41325
 21
17.1201
  0
LINE
  8
0
 10
7.41325
 20
17.1201
 11
7.34479
 21
17.0346
  0
LINE
  8
0
 10
7.34479
 20
17.0346
 11
7.32376
 21
17.0083
  0
LINE
  8
0
 10
7.32376
 20
17.0083
 11
7.26493
 21
16.9075
  0
LINE
  8
0
 10
7.26493
 20
16.9075
 11
7.24732
 21
16.8773
  0
LINE
  8
0
 10
7.24732
 20
16.8773
 11
7.19967
 21
16.7636
  0
LINE
  8
0
 10
7.19967
 20
16.7636
 11
7.18583
 21
16.7305
  0
LINE
  8
0
 10
7.18583
 20
16.7305
 11
7.15067
 21
16.6063
  0
LINE
  8
0
 10
7.15067
 20
16.6063
 11
7.14079
 21
16.5714
  0
LINE
  8
0
 10
7.14079
 20
16.5714
 11
7.11918
 21
16.4397
  0
LINE
  8
0
 10
7.11918
 20
16.4397
 11
7.11332
 21
16.404
  0
LINE
  8
0
 10
7.11332
 20
16.404
 11
7.106
 21
16.2679
  0
LINE
  8
0
 10
7.106
 20
16.2679
 11
7.10409
 21
16.2323
  0
LINE
  8
0
 10
7.10409
 20
16.2323
 11
7.10409
 21
5.5
  0
LINE
  8
0
 10
7.10409
 20
5.5
 11
5.60409
 21
4
  0
LINE
  8
0
 10
5.60409
 20
4
 11
0.499999
 21
4
  0
LINE
  8
0
 10
0.499999
 20
4
 11
0
 21
3.5
  0
LINE
  8
0
 10
0
 20
3.5
 11
0
 21
0
  0
LINE
  8
0
 10
0
 20
42
 11
0.499999
 21
41.5
  0
LINE
  8
0
 10
0.499999
 20
41.5
 11
5.60409
 21
41.5
  0
LINE
  8
0
 10
5.60409
 20
41.5
 11
7.10409
 21
40
  0
LINE
  8
0
 10
7.10409
 20
40
 11
7.10409
 21
34.3107
  0
LINE
  8
0
 10
7.10409
 20
34.3107
 11
7.10738
 21
34.2675
  0
LINE
  8
0
 10
7.10738
 20
34.2675
 11
7.11332
 21
34.1898
  0
LINE
  8
0
 10
7.11332
 20
34.1898
 11
7.1247
 21
34.1409
  0
LINE
  8
0
 10
7.1247
 20
34.1409
 11
7.14079
 21
34.0719
  0
LINE
  8
0
 10
7.14079
 20
34.0719
 11
7.16213
 21
34.0188
  0
LINE
  8
0
 10
7.16213
 20
34.0188
 11
7.18583
 21
33.9599
  0
LINE
  8
0
 10
7.18583
 20
33.9599
 11
7.21863
 21
33.9047
  0
LINE
  8
0
 10
7.21863
 20
33.9047
 11
7.24732
 21
33.8565
  0
LINE
  8
0
 10
7.24732
 20
33.8565
 11
7.29247
 21
33.802
  0
LINE
  8
0
 10
7.29247
 20
33.802
 11
7.32376
 21
33.7643
  0
LINE
  8
0
 10
7.32376
 20
33.7643
 11
7.38128
 21
33.7137
  0
LINE
  8
0
 10
7.38128
 20
33.7137
 11
7.41325
 21
33.6855
  0
LINE
  8
0
 10
7.41325
 20
33.6855
 11
7.48221
 21
33.642
  0
LINE
  8
0
 10
7.48221
 20
33.642
 11
7.51359
 21
33.6222
  0
LINE
  8
0
 10
7.51359
 20
33.6222
 11
7.59205
 21
33.5887
  0
LINE
  8
0
 10
7.59205
 20
33.5887
 11
7.62232
 21
33.5758
  0
LINE
  8
0
 10
7.62232
 20
33.5758
 11
7.70743
 21
33.5547
  0
LINE
  8
0
 10
7.70743
 20
33.5547
 11
7.73676
 21
33.5475
  0
LINE
  8
0
 10
7.73676
 20
33.5475
 11
7.82505
 21
33.5403
  0
LINE
  8
0
 10
7.82505
 20
33.5403
 11
7.85409
 21
33.538
  0
LINE
  8
0
 10
7.85409
 20
33.538
 11
11
 21
33.538
  0
LINE
  8
0
 10
11
 20
33.538
 11
11
 21
45.5
  0
LINE
  8
0
 10
11
 20
45.5
 11
0
 21
45.5
  0
LINE
  8
0
 10
0
 20
45.5
 11
0
 21
42
  0
LINE
  8
0
 10
7.10409
 20
25.7429
 11
7.10824
 21
25.6657
  0
LINE
  8
0
 10
7.10824
 20
25.6657
 11
7.11332
 21
25.5712
  0
LINE
  8
0
 10
7.11332
 20
25.5712
 11
7.12585
 21
25.4949
  0
LINE
  8
0
 10
7.12585
 20
25.4949
 11
7.14079
 21
25.4038
  0
LINE
  8
0
 10
7.14079
 20
25.4038
 11
7.16161
 21
25.3303
  0
LINE
  8
0
 10
7.16161
 20
25.3303
 11
7.18583
 21
25.2447
  0
LINE
  8
0
 10
7.18583
 20
25.2447
 11
7.2146
 21
25.176
  0
LINE
  8
0
 10
7.2146
 20
25.176
 11
7.24732
 21
25.0979
  0
LINE
  8
0
 10
7.24732
 20
25.0979
 11
7.28347
 21
25.036
  0
LINE
  8
0
 10
7.28347
 20
25.036
 11
7.32376
 21
24.967
  0
LINE
  8
0
 10
7.32376
 20
24.967
 11
7.41325
 21
24.8551
  0
LINE
  8
0
 10
7.41325
 20
24.8551
 11
7.51359
 21
24.7651
  0
LINE
  8
0
 10
7.51359
 20
24.7651
 11
7.56622
 21
24.7333
  0
LINE
  8
0
 10
7.56622
 20
24.7333
 11
7.62232
 21
24.6992
  0
LINE
  8
0
 10
7.62232
 20
24.6992
 11
7.67793
 21
24.6797
  0
LINE
  8
0
 10
7.67793
 20
24.6797
 11
7.73676
 21
24.659
  0
LINE
  8
0
 10
7.73676
 20
24.659
 11
7.85409
 21
24.6455
  0
LINE
  8
0
 10
7.85409
 20
24.6455
 11
11
 21
24.6455
  0
LINE
  8
0
 10
11
 20
24.6455
 11
11
 21
28.2797
  0
LINE
  8
0
 10
11
 20
28.2797
 11
7.85409
 21
28.2797
  0
LINE
  8
0
 10
7.85409
 20
28.2797
 11
7.73676
 21
28.2662
  0
LINE
  8
0
 10
7.73676
 20
28.2662
 11
7.71831
 21
28.2597
  0
LINE
  8
0
 10
7.71831
 20
28.2597
 11
7.62232
 21
28.226
  0
LINE
  8
0
 10
7.62232
 20
28.226
 11
7.60444
 21
28.2151
  0
LINE
  8
0
 10
7.60444
 20
28.2151
 11
7.51359
 21
28.1601
  0
LINE
  8
0
 10
7.51359
 20
28.1601
 11
7.49658
 21
28.1448
  0
LINE
  8
0
 10
7.49658
 20
28.1448
 11
7.41325
 21
28.0701
  0
LINE
  8
0
 10
7.41325
 20
28.0701
 11
7.32376
 21
27.9583
  0
LINE
  8
0
 10
7.32376
 20
27.9583
 11
7.24732
 21
27.8273
  0
LINE
  8
0
 10
7.24732
 20
27.8273
 11
7.23534
 21
27.7987
  0
LINE
  8
0
 10
7.23534
 20
27.7987
 11
7.18583
 21
27.6805
  0
LINE
  8
0
 10
7.18583
 20
27.6805
 11
7.14079
 21
27.5214
  0
LINE
  8
0
 10
7.14079
 20
27.5214
 11
7.13481
 21
27.4849
  0
LINE
  8
0
 10
7.13481
 20
27.4849
 11
7.11332
 21
27.354
  0
LINE
  8
0
 10
7.11332
 20
27.354
 11
7.11119
 21
27.3144
  0
LINE
  8
0
 10
7.11119
 20
27.3144
 11
7.10409
 21
27.1823
  0
LINE
  8
0
 10
7.10409
 20
27.1823
 11
7.10409
 21
25.7429
  0
LINE
  8
0
 10
36.5
 20
0
 11
47.5
 21
0
  0
LINE
  8
0
 10
47.5
 20
0
 11
47.5
 21
3.5
  0
LINE
  8
0
 10
47.5
 20
3.5
 11
47
 21
4
  0
LINE
  8
0
 10
47
 20
4
 11
41.8959
 21
4
  0
LINE
  8
0
 10
41.8959
 20
4
 11
40.3959
 21
5.5
  0
LINE
  8
0
 10
40.3959
 20
5.5
 11
40.3959
 21
16.2323
  0
LINE
  8
0
 10
40.3959
 20
16.2323
 11
40.3886
 21
16.3678
  0
LINE
  8
0
 10
40.3886
 20
16.3678
 11
40.3867
 21
16.404
  0
LINE
  8
0
 10
40.3867
 20
16.404
 11
40.3652
 21
16.5351
  0
LINE
  8
0
 10
40.3652
 20
16.5351
 11
40.3592
 21
16.5714
  0
LINE
  8
0
 10
40.3592
 20
16.5714
 11
40.3242
 21
16.6951
  0
LINE
  8
0
 10
40.3242
 20
16.6951
 11
40.3142
 21
16.7305
  0
LINE
  8
0
 10
40.3142
 20
16.7305
 11
40.2667
 21
16.8439
  0
LINE
  8
0
 10
40.2667
 20
16.8439
 11
40.2527
 21
16.8773
  0
LINE
  8
0
 10
40.2527
 20
16.8773
 11
40.194
 21
16.9778
  0
LINE
  8
0
 10
40.194
 20
16.9778
 11
40.1762
 21
17.0083
  0
LINE
  8
0
 10
40.1762
 20
17.0083
 11
40.108
 21
17.0936
  0
LINE
  8
0
 10
40.108
 20
17.0936
 11
40.0868
 21
17.1201
  0
LINE
  8
0
 10
40.0868
 20
17.1201
 11
40.0105
 21
17.1884
  0
LINE
  8
0
 10
40.0105
 20
17.1884
 11
39.9864
 21
17.2101
  0
LINE
  8
0
 10
39.9864
 20
17.2101
 11
39.9041
 21
17.26
  0
LINE
  8
0
 10
39.9041
 20
17.26
 11
39.8777
 21
17.276
  0
LINE
  8
0
 10
39.8777
 20
17.276
 11
39.7913
 21
17.3063
  0
LINE
  8
0
 10
39.7913
 20
17.3063
 11
39.7632
 21
17.3162
  0
LINE
  8
0
 10
39.7632
 20
17.3162
 11
39.6459
 21
17.3297
  0
LINE
  8
0
 10
39.6459
 20
17.3297
 11
36.5
 21
17.3297
  0
LINE
  8
0
 10
36.5
 20
17.3297
 11
36.5
 21
0
  0
LINE
  8
0
 10
36.5
 20
24.6455
 11
39.6459
 21
24.6455
  0
LINE
  8
0
 10
39.6459
 20
24.6455
 11
39.7632
 21
24.659
  0
LINE
  8
0
 10
39.7632
 20
24.659
 11
39.8189
 21
24.6786
  0
LINE
  8
0
 10
39.8189
 20
24.6786
 11
39.8777
 21
24.6992
  0
LINE
  8
0
 10
39.8777
 20
24.6992
 11
39.9303
 21
24.7311
  0
LINE
  8
0
 10
39.9303
 20
24.7311
 11
39.9864
 21
24.7651
  0
LINE
  8
0
 10
39.9864
 20
24.7651
 11
40.0868
 21
24.8551
  0
LINE
  8
0
 10
40.0868
 20
24.8551
 11
40.1762
 21
24.967
  0
LINE
  8
0
 10
40.1762
 20
24.967
 11
40.2124
 21
25.0289
  0
LINE
  8
0
 10
40.2124
 20
25.0289
 11
40.2527
 21
25.0979
  0
LINE
  8
0
 10
40.2527
 20
25.0979
 11
40.2815
 21
25.1666
  0
LINE
  8
0
 10
40.2815
 20
25.1666
 11
40.3142
 21
25.2447
  0
LINE
  8
0
 10
40.3142
 20
25.2447
 11
40.335
 21
25.3183
  0
LINE
  8
0
 10
40.335
 20
25.3183
 11
40.3592
 21
25.4038
  0
LINE
  8
0
 10
40.3592
 20
25.4038
 11
40.3718
 21
25.4803
  0
LINE
  8
0
 10
40.3718
 20
25.4803
 11
40.3867
 21
25.5712
  0
LINE
  8
0
 10
40.3867
 20
25.5712
 11
40.3908
 21
25.6486
  0
LINE
  8
0
 10
40.3908
 20
25.6486
 11
40.3959
 21
25.7429
  0
LINE
  8
0
 10
40.3959
 20
25.7429
 11
40.3959
 21
27.1823
  0
LINE
  8
0
 10
40.3959
 20
27.1823
 11
40.3937
 21
27.223
  0
LINE
  8
0
 10
40.3937
 20
27.223
 11
40.3867
 21
27.354
  0
LINE
  8
0
 10
40.3867
 20
27.354
 11
40.3805
 21
27.3916
  0
LINE
  8
0
 10
40.3805
 20
27.3916
 11
40.3592
 21
27.5214
  0
LINE
  8
0
 10
40.3592
 20
27.5214
 11
40.3142
 21
27.6805
  0
LINE
  8
0
 10
40.3142
 20
27.6805
 11
40.3018
 21
27.7101
  0
LINE
  8
0
 10
40.3018
 20
27.7101
 11
40.2527
 21
27.8273
  0
LINE
  8
0
 10
40.2527
 20
27.8273
 11
40.1762
 21
27.9583
  0
LINE
  8
0
 10
40.1762
 20
27.9583
 11
40.0868
 21
28.0701
  0
LINE
  8
0
 10
40.0868
 20
28.0701
 11
40.0693
 21
28.0857
  0
LINE
  8
0
 10
40.0693
 20
28.0857
 11
39.9864
 21
28.1601
  0
LINE
  8
0
 10
39.9864
 20
28.1601
 11
39.9682
 21
28.1711
  0
LINE
  8
0
 10
39.9682
 20
28.1711
 11
39.8777
 21
28.226
  0
LINE
  8
0
 10
39.8777
 20
28.226
 11
39.859
 21
28.2325
  0
LINE
  8
0
 10
39.859
 20
28.2325
 11
39.7632
 21
28.2662
  0
LINE
  8
0
 10
39.7632
 20
28.2662
 11
39.6459
 21
28.2797
  0
LINE
  8
0
 10
39.6459
 20
28.2797
 11
36.5
 21
28.2797
  0
LINE
  8
0
 10
36.5
 20
28.2797
 11
36.5
 21
24.6455
  0
LINE
  8
0
 10
36.5
 20
33.538
 11
39.6459
 21
33.538
  0
LINE
  8
0
 10
39.6459
 20
33.538
 11
39.7336
 21
33.5451
  0
LINE
  8
0
 10
39.7336
 20
33.5451
 11
39.7632
 21
33.5475
  0
LINE
  8
0
 10
39.7632
 20
33.5475
 11
39.8468
 21
33.5681
  0
LINE
  8
0
 10
39.8468
 20
33.5681
 11
39.8777
 21
33.5758
  0
LINE
  8
0
 10
39.8777
 20
33.5758
 11
39.9539
 21
33.6083
  0
LINE
  8
0
 10
39.9539
 20
33.6083
 11
39.9864
 21
33.6222
  0
LINE
  8
0
 10
39.9864
 20
33.6222
 11
40.0529
 21
33.6641
  0
LINE
  8
0
 10
40.0529
 20
33.6641
 11
40.0868
 21
33.6855
  0
LINE
  8
0
 10
40.0868
 20
33.6855
 11
40.142
 21
33.7341
  0
LINE
  8
0
 10
40.142
 20
33.7341
 11
40.1762
 21
33.7643
  0
LINE
  8
0
 10
40.1762
 20
33.7643
 11
40.2195
 21
33.8165
  0
LINE
  8
0
 10
40.2195
 20
33.8165
 11
40.2527
 21
33.8565
  0
LINE
  8
0
 10
40.2527
 20
33.8565
 11
40.2842
 21
33.9095
  0
LINE
  8
0
 10
40.2842
 20
33.9095
 11
40.3142
 21
33.9599
  0
LINE
  8
0
 10
40.3142
 20
33.9599
 11
40.3349
 21
34.0113
  0
LINE
  8
0
 10
40.3349
 20
34.0113
 11
40.3592
 21
34.0719
  0
LINE
  8
0
 10
40.3592
 20
34.0719
 11
40.3704
 21
34.1198
  0
LINE
  8
0
 10
40.3704
 20
34.1198
 11
40.3867
 21
34.1898
  0
LINE
  8
0
 10
40.3867
 20
34.1898
 11
40.39
 21
34.2327
  0
LINE
  8
0
 10
40.39
 20
34.2327
 11
40.3959
 21
34.3107
  0
LINE
  8
0
 10
40.3959
 20
34.3107
 11
40.3959
 21
40
  0
LINE
  8
0
 10
40.3959
 20
40
 11
41.8959
 21
41.5
  0
LINE
  8
0
 10
41.8959
 20
41.5
 11
47
 21
41.5
  0
LINE
  8
0
 10
47
 20
41.5
 11
47.5
 21
42
  0
LINE
  8
0
 10
47.5
 20
42
 11
47.5
 21
45.5
  0
LINE
  8
0
 10
47.5
 20
45.5
 11
36.5
 21
45.5
  0
LINE
  8
0
 10
36.5
 20
45.5
 11
36.5
 21
33.538
  0
ENDSEC
  0
SECTION
  2
OBJECTS
  0
DICTIONARY
  0
ENDSEC
  0
EOF
