  0
SECTION
  2
BLOCKS
  0
ENDSEC
  0
SECTION
  2
ENTITIES
  0
LINE
  8
0
 10
0
 20
0
 11
11
 21
0
  0
LINE
  8
0
 10
11
 20
0
 11
11
 21
17.1161
  0
LINE
  8
0
 10
11
 20
17.1161
 11
7.85409
 21
17.1161
  0
LINE
  8
0
 10
7.85409
 20
17.1161
 11
7.73676
 21
17.1026
  0
LINE
  8
0
 10
7.73676
 20
17.1026
 11
7.64859
 21
17.0716
  0
LINE
  8
0
 10
7.64859
 20
17.0716
 11
7.62232
 21
17.0624
  0
LINE
  8
0
 10
7.62232
 20
17.0624
 11
7.53831
 21
17.0114
  0
LINE
  8
0
 10
7.53831
 20
17.0114
 11
7.51359
 21
16.9965
  0
LINE
  8
0
 10
7.51359
 20
16.9965
 11
7.43575
 21
16.9267
  0
LINE
  8
0
 10
7.43575
 20
16.9267
 11
7.41325
 21
16.9065
  0
LINE
  8
0
 10
7.41325
 20
16.9065
 11
7.34347
 21
16.8193
  0
LINE
  8
0
 10
7.34347
 20
16.8193
 11
7.32376
 21
16.7947
  0
LINE
  8
0
 10
7.32376
 20
16.7947
 11
7.26381
 21
16.692
  0
LINE
  8
0
 10
7.26381
 20
16.692
 11
7.24732
 21
16.6637
  0
LINE
  8
0
 10
7.24732
 20
16.6637
 11
7.19877
 21
16.5478
  0
LINE
  8
0
 10
7.19877
 20
16.5478
 11
7.18583
 21
16.5169
  0
LINE
  8
0
 10
7.18583
 20
16.5169
 11
7.15001
 21
16.3904
  0
LINE
  8
0
 10
7.15001
 20
16.3904
 11
7.14079
 21
16.3578
  0
LINE
  8
0
 10
7.14079
 20
16.3578
 11
7.11878
 21
16.2236
  0
LINE
  8
0
 10
7.11878
 20
16.2236
 11
7.11332
 21
16.1904
  0
LINE
  8
0
 10
7.11332
 20
16.1904
 11
7.10586
 21
16.0517
  0
LINE
  8
0
 10
7.10586
 20
16.0517
 11
7.10409
 21
16.0187
  0
LINE
  8
0
 10
7.10409
 20
16.0187
 11
7.10409
 21
5.5
  0
LINE
  8
0
 10
7.10409
 20
5.5
 11
5.60409
 21
4
  0
LINE
  8
0
 10
5.60409
 20
4
 11
0.499999
 21
4
  0
LINE
  8
0
 10
0.499999
 20
4
 11
0
 21
3.5
  0
LINE
  8
0
 10
0
 20
3.5
 11
0
 21
0
  0
LINE
  8
0
 10
0
 20
42
 11
0.499999
 21
41.5
  0
LINE
  8
0
 10
0.499999
 20
41.5
 11
5.60409
 21
41.5
  0
LINE
  8
0
 10
5.60409
 20
41.5
 11
7.10409
 21
40
  0
LINE
  8
0
 10
7.10409
 20
40
 11
7.10409
 21
34.3582
  0
LINE
  8
0
 10
7.10409
 20
34.3582
 11
7.11317
 21
34.2427
  0
LINE
  8
0
 10
7.11317
 20
34.2427
 11
7.11332
 21
34.2408
  0
LINE
  8
0
 10
7.11332
 20
34.2408
 11
7.12505
 21
34.1919
  0
LINE
  8
0
 10
7.12505
 20
34.1919
 11
7.14079
 21
34.1243
  0
LINE
  8
0
 10
7.14079
 20
34.1243
 11
7.14194
 21
34.1215
  0
LINE
  8
0
 10
7.14194
 20
34.1215
 11
7.18583
 21
34.0123
  0
LINE
  8
0
 10
7.18583
 20
34.0123
 11
7.19013
 21
34.0051
  0
LINE
  8
0
 10
7.19013
 20
34.0051
 11
7.24732
 21
33.9089
  0
LINE
  8
0
 10
7.24732
 20
33.9089
 11
7.25599
 21
33.8985
  0
LINE
  8
0
 10
7.25599
 20
33.8985
 11
7.32376
 21
33.8167
  0
LINE
  8
0
 10
7.32376
 20
33.8167
 11
7.33753
 21
33.8046
  0
LINE
  8
0
 10
7.33753
 20
33.8046
 11
7.41325
 21
33.738
  0
LINE
  8
0
 10
7.41325
 20
33.738
 11
7.43227
 21
33.726
  0
LINE
  8
0
 10
7.43227
 20
33.726
 11
7.51359
 21
33.6746
  0
LINE
  8
0
 10
7.51359
 20
33.6746
 11
7.53734
 21
33.6645
  0
LINE
  8
0
 10
7.53734
 20
33.6645
 11
7.62232
 21
33.6282
  0
LINE
  8
0
 10
7.62232
 20
33.6282
 11
7.64965
 21
33.6215
  0
LINE
  8
0
 10
7.64965
 20
33.6215
 11
7.73676
 21
33.5999
  0
LINE
  8
0
 10
7.73676
 20
33.5999
 11
7.76606
 21
33.5975
  0
LINE
  8
0
 10
7.76606
 20
33.5975
 11
7.85409
 21
33.5904
  0
LINE
  8
0
 10
7.85409
 20
33.5904
 11
11
 21
33.5904
  0
LINE
  8
0
 10
11
 20
33.5904
 11
11
 21
45.5
  0
LINE
  8
0
 10
11
 20
45.5
 11
0
 21
45.5
  0
LINE
  8
0
 10
0
 20
45.5
 11
0
 21
42
  0
LINE
  8
0
 10
7.10409
 20
25.5293
 11
7.10838
 21
25.4495
  0
LINE
  8
0
 10
7.10838
 20
25.4495
 11
7.11332
 21
25.3576
  0
LINE
  8
0
 10
7.11332
 20
25.3576
 11
7.12626
 21
25.2788
  0
LINE
  8
0
 10
7.12626
 20
25.2788
 11
7.14079
 21
25.1902
  0
LINE
  8
0
 10
7.14079
 20
25.1902
 11
7.16227
 21
25.1143
  0
LINE
  8
0
 10
7.16227
 20
25.1143
 11
7.18583
 21
25.0311
  0
LINE
  8
0
 10
7.18583
 20
25.0311
 11
7.2155
 21
24.9602
  0
LINE
  8
0
 10
7.2155
 20
24.9602
 11
7.24732
 21
24.8843
  0
LINE
  8
0
 10
7.24732
 20
24.8843
 11
7.2846
 21
24.8204
  0
LINE
  8
0
 10
7.2846
 20
24.8204
 11
7.32376
 21
24.7533
  0
LINE
  8
0
 10
7.32376
 20
24.7533
 11
7.41325
 21
24.6415
  0
LINE
  8
0
 10
7.41325
 20
24.6415
 11
7.51359
 21
24.5515
  0
LINE
  8
0
 10
7.51359
 20
24.5515
 11
7.56781
 21
24.5187
  0
LINE
  8
0
 10
7.56781
 20
24.5187
 11
7.62232
 21
24.4856
  0
LINE
  8
0
 10
7.62232
 20
24.4856
 11
7.67961
 21
24.4655
  0
LINE
  8
0
 10
7.67961
 20
24.4655
 11
7.73676
 21
24.4454
  0
LINE
  8
0
 10
7.73676
 20
24.4454
 11
7.85409
 21
24.4319
  0
LINE
  8
0
 10
7.85409
 20
24.4319
 11
11
 21
24.4319
  0
LINE
  8
0
 10
11
 20
24.4319
 11
11
 21
28.0661
  0
LINE
  8
0
 10
11
 20
28.0661
 11
7.85409
 21
28.0661
  0
LINE
  8
0
 10
7.85409
 20
28.0661
 11
7.73676
 21
28.0525
  0
LINE
  8
0
 10
7.73676
 20
28.0525
 11
7.71495
 21
28.0449
  0
LINE
  8
0
 10
7.71495
 20
28.0449
 11
7.62232
 21
28.0123
  0
LINE
  8
0
 10
7.62232
 20
28.0123
 11
7.60124
 21
27.9996
  0
LINE
  8
0
 10
7.60124
 20
27.9996
 11
7.51359
 21
27.9464
  0
LINE
  8
0
 10
7.51359
 20
27.9464
 11
7.49362
 21
27.9285
  0
LINE
  8
0
 10
7.49362
 20
27.9285
 11
7.41325
 21
27.8565
  0
LINE
  8
0
 10
7.41325
 20
27.8565
 11
7.32376
 21
27.7446
  0
LINE
  8
0
 10
7.32376
 20
27.7446
 11
7.24732
 21
27.6137
  0
LINE
  8
0
 10
7.24732
 20
27.6137
 11
7.23352
 21
27.5807
  0
LINE
  8
0
 10
7.23352
 20
27.5807
 11
7.18583
 21
27.4669
  0
LINE
  8
0
 10
7.18583
 20
27.4669
 11
7.14079
 21
27.3078
  0
LINE
  8
0
 10
7.14079
 20
27.3078
 11
7.134
 21
27.2664
  0
LINE
  8
0
 10
7.134
 20
27.2664
 11
7.11332
 21
27.1403
  0
LINE
  8
0
 10
7.11332
 20
27.1403
 11
7.11092
 21
27.0957
  0
LINE
  8
0
 10
7.11092
 20
27.0957
 11
7.10409
 21
26.9687
  0
LINE
  8
0
 10
7.10409
 20
26.9687
 11
7.10409
 21
25.5293
  0
LINE
  8
0
 10
36.5
 20
0
 11
47.5
 21
0
  0
LINE
  8
0
 10
47.5
 20
0
 11
47.5
 21
3.5
  0
LINE
  8
0
 10
47.5
 20
3.5
 11
47
 21
4
  0
LINE
  8
0
 10
47
 20
4
 11
41.8959
 21
4
  0
LINE
  8
0
 10
41.8959
 20
4
 11
40.3959
 21
5.5
  0
LINE
  8
0
 10
40.3959
 20
5.5
 11
40.3959
 21
16.0187
  0
LINE
  8
0
 10
40.3959
 20
16.0187
 11
40.3885
 21
16.1567
  0
LINE
  8
0
 10
40.3885
 20
16.1567
 11
40.3867
 21
16.1904
  0
LINE
  8
0
 10
40.3867
 20
16.1904
 11
40.3648
 21
16.3239
  0
LINE
  8
0
 10
40.3648
 20
16.3239
 11
40.3592
 21
16.3578
  0
LINE
  8
0
 10
40.3592
 20
16.3578
 11
40.3235
 21
16.4838
  0
LINE
  8
0
 10
40.3235
 20
16.4838
 11
40.3142
 21
16.5169
  0
LINE
  8
0
 10
40.3142
 20
16.5169
 11
40.2658
 21
16.6324
  0
LINE
  8
0
 10
40.2658
 20
16.6324
 11
40.2527
 21
16.6637
  0
LINE
  8
0
 10
40.2527
 20
16.6637
 11
40.1929
 21
16.7661
  0
LINE
  8
0
 10
40.1929
 20
16.7661
 11
40.1762
 21
16.7947
  0
LINE
  8
0
 10
40.1762
 20
16.7947
 11
40.1067
 21
16.8816
  0
LINE
  8
0
 10
40.1067
 20
16.8816
 11
40.0868
 21
16.9065
  0
LINE
  8
0
 10
40.0868
 20
16.9065
 11
40.0091
 21
16.9761
  0
LINE
  8
0
 10
40.0091
 20
16.9761
 11
39.9864
 21
16.9965
  0
LINE
  8
0
 10
39.9864
 20
16.9965
 11
39.9025
 21
17.0473
  0
LINE
  8
0
 10
39.9025
 20
17.0473
 11
39.8777
 21
17.0624
  0
LINE
  8
0
 10
39.8777
 20
17.0624
 11
39.7896
 21
17.0933
  0
LINE
  8
0
 10
39.7896
 20
17.0933
 11
39.7632
 21
17.1026
  0
LINE
  8
0
 10
39.7632
 20
17.1026
 11
39.6459
 21
17.1161
  0
LINE
  8
0
 10
39.6459
 20
17.1161
 11
36.5
 21
17.1161
  0
LINE
  8
0
 10
36.5
 20
17.1161
 11
36.5
 21
0
  0
LINE
  8
0
 10
36.5
 20
24.4319
 11
39.6459
 21
24.4319
  0
LINE
  8
0
 10
39.6459
 20
24.4319
 11
39.7632
 21
24.4454
  0
LINE
  8
0
 10
39.7632
 20
24.4454
 11
39.8205
 21
24.4656
  0
LINE
  8
0
 10
39.8205
 20
24.4656
 11
39.8777
 21
24.4856
  0
LINE
  8
0
 10
39.8777
 20
24.4856
 11
39.9319
 21
24.5185
  0
LINE
  8
0
 10
39.9319
 20
24.5185
 11
39.9864
 21
24.5515
  0
LINE
  8
0
 10
39.9864
 20
24.5515
 11
40.0868
 21
24.6415
  0
LINE
  8
0
 10
40.0868
 20
24.6415
 11
40.1762
 21
24.7533
  0
LINE
  8
0
 10
40.1762
 20
24.7533
 11
40.2135
 21
24.8172
  0
LINE
  8
0
 10
40.2135
 20
24.8172
 11
40.2527
 21
24.8843
  0
LINE
  8
0
 10
40.2527
 20
24.8843
 11
40.2824
 21
24.9551
  0
LINE
  8
0
 10
40.2824
 20
24.9551
 11
40.3142
 21
25.0311
  0
LINE
  8
0
 10
40.3142
 20
25.0311
 11
40.3357
 21
25.107
  0
LINE
  8
0
 10
40.3357
 20
25.107
 11
40.3592
 21
25.1902
  0
LINE
  8
0
 10
40.3592
 20
25.1902
 11
40.3722
 21
25.2691
  0
LINE
  8
0
 10
40.3722
 20
25.2691
 11
40.3867
 21
25.3576
  0
LINE
  8
0
 10
40.3867
 20
25.3576
 11
40.391
 21
25.4375
  0
LINE
  8
0
 10
40.391
 20
25.4375
 11
40.3959
 21
25.5293
  0
LINE
  8
0
 10
40.3959
 20
25.5293
 11
40.3959
 21
26.9687
  0
LINE
  8
0
 10
40.3959
 20
26.9687
 11
40.3935
 21
27.0143
  0
LINE
  8
0
 10
40.3935
 20
27.0143
 11
40.3867
 21
27.1403
  0
LINE
  8
0
 10
40.3867
 20
27.1403
 11
40.3797
 21
27.1828
  0
LINE
  8
0
 10
40.3797
 20
27.1828
 11
40.3592
 21
27.3078
  0
LINE
  8
0
 10
40.3592
 20
27.3078
 11
40.3142
 21
27.4669
  0
LINE
  8
0
 10
40.3142
 20
27.4669
 11
40.3
 21
27.5007
  0
LINE
  8
0
 10
40.3
 20
27.5007
 11
40.2527
 21
27.6137
  0
LINE
  8
0
 10
40.2527
 20
27.6137
 11
40.1762
 21
27.7446
  0
LINE
  8
0
 10
40.1762
 20
27.7446
 11
40.0868
 21
27.8565
  0
LINE
  8
0
 10
40.0868
 20
27.8565
 11
40.0664
 21
27.8747
  0
LINE
  8
0
 10
40.0664
 20
27.8747
 11
39.9864
 21
27.9464
  0
LINE
  8
0
 10
39.9864
 20
27.9464
 11
39.965
 21
27.9594
  0
LINE
  8
0
 10
39.965
 20
27.9594
 11
39.8777
 21
28.0123
  0
LINE
  8
0
 10
39.8777
 20
28.0123
 11
39.8557
 21
28.0201
  0
LINE
  8
0
 10
39.8557
 20
28.0201
 11
39.7632
 21
28.0525
  0
LINE
  8
0
 10
39.7632
 20
28.0525
 11
39.6459
 21
28.0661
  0
LINE
  8
0
 10
39.6459
 20
28.0661
 11
36.5
 21
28.0661
  0
LINE
  8
0
 10
36.5
 20
28.0661
 11
36.5
 21
24.4319
  0
LINE
  8
0
 10
36.5
 20
33.5904
 11
39.6459
 21
33.5904
  0
LINE
  8
0
 10
39.6459
 20
33.5904
 11
39.6753
 21
33.5928
  0
LINE
  8
0
 10
39.6753
 20
33.5928
 11
39.7632
 21
33.5999
  0
LINE
  8
0
 10
39.7632
 20
33.5999
 11
39.791
 21
33.6068
  0
LINE
  8
0
 10
39.791
 20
33.6068
 11
39.8777
 21
33.6282
  0
LINE
  8
0
 10
39.8777
 20
33.6282
 11
39.9021
 21
33.6387
  0
LINE
  8
0
 10
39.9021
 20
33.6387
 11
39.9864
 21
33.6746
  0
LINE
  8
0
 10
39.9864
 20
33.6746
 11
40.0065
 21
33.6873
  0
LINE
  8
0
 10
40.0065
 20
33.6873
 11
40.0868
 21
33.738
  0
LINE
  8
0
 10
40.0868
 20
33.738
 11
40.102
 21
33.7514
  0
LINE
  8
0
 10
40.102
 20
33.7514
 11
40.1762
 21
33.8167
  0
LINE
  8
0
 10
40.1762
 20
33.8167
 11
40.1866
 21
33.8292
  0
LINE
  8
0
 10
40.1866
 20
33.8292
 11
40.2527
 21
33.9089
  0
LINE
  8
0
 10
40.2527
 20
33.9089
 11
40.2587
 21
33.9191
  0
LINE
  8
0
 10
40.2587
 20
33.9191
 11
40.3142
 21
34.0123
  0
LINE
  8
0
 10
40.3142
 20
34.0123
 11
40.3169
 21
34.019
  0
LINE
  8
0
 10
40.3169
 20
34.019
 11
40.3592
 21
34.1243
  0
LINE
  8
0
 10
40.3592
 20
34.1243
 11
40.3598
 21
34.1269
  0
LINE
  8
0
 10
40.3598
 20
34.1269
 11
40.3749
 21
34.1919
  0
LINE
  8
0
 10
40.3749
 20
34.1919
 11
40.3862
 21
34.2389
  0
LINE
  8
0
 10
40.3862
 20
34.2389
 11
40.3867
 21
34.2408
  0
LINE
  8
0
 10
40.3867
 20
34.2408
 11
40.3954
 21
34.3519
  0
LINE
  8
0
 10
40.3954
 20
34.3519
 11
40.3959
 21
34.3582
  0
LINE
  8
0
 10
40.3959
 20
34.3582
 11
40.3959
 21
40
  0
LINE
  8
0
 10
40.3959
 20
40
 11
41.8959
 21
41.5
  0
LINE
  8
0
 10
41.8959
 20
41.5
 11
47
 21
41.5
  0
LINE
  8
0
 10
47
 20
41.5
 11
47.5
 21
42
  0
LINE
  8
0
 10
47.5
 20
42
 11
47.5
 21
45.5
  0
LINE
  8
0
 10
47.5
 20
45.5
 11
36.5
 21
45.5
  0
LINE
  8
0
 10
36.5
 20
45.5
 11
36.5
 21
33.5904
  0
ENDSEC
  0
SECTION
  2
OBJECTS
  0
DICTIONARY
  0
ENDSEC
  0
EOF
