  0
SECTION
  2
BLOCKS
  0
ENDSEC
  0
SECTION
  2
ENTITIES
  0
LINE
  8
0
 10
0
 20
0
 11
11
 21
0
  0
LINE
  8
0
 10
11
 20
0
 11
11
 21
16.9025
  0
LINE
  8
0
 10
11
 20
16.9025
 11
7.85409
 21
16.9025
  0
LINE
  8
0
 10
7.85409
 20
16.9025
 11
7.73676
 21
16.8889
  0
LINE
  8
0
 10
7.73676
 20
16.8889
 11
7.64691
 21
16.8574
  0
LINE
  8
0
 10
7.64691
 20
16.8574
 11
7.62232
 21
16.8487
  0
LINE
  8
0
 10
7.62232
 20
16.8487
 11
7.53672
 21
16.7969
  0
LINE
  8
0
 10
7.53672
 20
16.7969
 11
7.51359
 21
16.7828
  0
LINE
  8
0
 10
7.51359
 20
16.7828
 11
7.43428
 21
16.7117
  0
LINE
  8
0
 10
7.43428
 20
16.7117
 11
7.41325
 21
16.6929
  0
LINE
  8
0
 10
7.41325
 20
16.6929
 11
7.34216
 21
16.604
  0
LINE
  8
0
 10
7.34216
 20
16.604
 11
7.32376
 21
16.581
  0
LINE
  8
0
 10
7.32376
 20
16.581
 11
7.26268
 21
16.4764
  0
LINE
  8
0
 10
7.26268
 20
16.4764
 11
7.24732
 21
16.4501
  0
LINE
  8
0
 10
7.24732
 20
16.4501
 11
7.19786
 21
16.332
  0
LINE
  8
0
 10
7.19786
 20
16.332
 11
7.18583
 21
16.3033
  0
LINE
  8
0
 10
7.18583
 20
16.3033
 11
7.14935
 21
16.1744
  0
LINE
  8
0
 10
7.14935
 20
16.1744
 11
7.14079
 21
16.1442
  0
LINE
  8
0
 10
7.14079
 20
16.1442
 11
7.11837
 21
16.0075
  0
LINE
  8
0
 10
7.11837
 20
16.0075
 11
7.11332
 21
15.9767
  0
LINE
  8
0
 10
7.11332
 20
15.9767
 11
7.10573
 21
15.8356
  0
LINE
  8
0
 10
7.10573
 20
15.8356
 11
7.10409
 21
15.8051
  0
LINE
  8
0
 10
7.10409
 20
15.8051
 11
7.10409
 21
5.5
  0
LINE
  8
0
 10
7.10409
 20
5.5
 11
5.60409
 21
4
  0
LINE
  8
0
 10
5.60409
 20
4
 11
0.499999
 21
4
  0
LINE
  8
0
 10
0.499999
 20
4
 11
0
 21
3.5
  0
LINE
  8
0
 10
0
 20
3.5
 11
0
 21
0
  0
LINE
  8
0
 10
0
 20
42
 11
0.499999
 21
41.5
  0
LINE
  8
0
 10
0.499999
 20
41.5
 11
5.60409
 21
41.5
  0
LINE
  8
0
 10
5.60409
 20
41.5
 11
7.10409
 21
40
  0
LINE
  8
0
 10
7.10409
 20
40
 11
7.10409
 21
34.3765
  0
LINE
  8
0
 10
7.10409
 20
34.3765
 11
7.10958
 21
34.3066
  0
LINE
  8
0
 10
7.10958
 20
34.3066
 11
7.11332
 21
34.2591
  0
LINE
  8
0
 10
7.11332
 20
34.2591
 11
7.13033
 21
34.1881
  0
LINE
  8
0
 10
7.13033
 20
34.1881
 11
7.14079
 21
34.1445
  0
LINE
  8
0
 10
7.14079
 20
34.1445
 11
7.16981
 21
34.0744
  0
LINE
  8
0
 10
7.16981
 20
34.0744
 11
7.18583
 21
34.0357
  0
LINE
  8
0
 10
7.18583
 20
34.0357
 11
7.22699
 21
33.9685
  0
LINE
  8
0
 10
7.22699
 20
33.9685
 11
7.24732
 21
33.9353
  0
LINE
  8
0
 10
7.24732
 20
33.9353
 11
7.3003
 21
33.8732
  0
LINE
  8
0
 10
7.3003
 20
33.8732
 11
7.32376
 21
33.8457
  0
LINE
  8
0
 10
7.32376
 20
33.8457
 11
7.38772
 21
33.7911
  0
LINE
  8
0
 10
7.38772
 20
33.7911
 11
7.41325
 21
33.7693
  0
LINE
  8
0
 10
7.41325
 20
33.7693
 11
7.48681
 21
33.7241
  0
LINE
  8
0
 10
7.48681
 20
33.7241
 11
7.51359
 21
33.7077
  0
LINE
  8
0
 10
7.51359
 20
33.7077
 11
7.59483
 21
33.674
  0
LINE
  8
0
 10
7.59483
 20
33.674
 11
7.62232
 21
33.6627
  0
LINE
  8
0
 10
7.62232
 20
33.6627
 11
7.70883
 21
33.6419
  0
LINE
  8
0
 10
7.70883
 20
33.6419
 11
7.73676
 21
33.6352
  0
LINE
  8
0
 10
7.73676
 20
33.6352
 11
7.82581
 21
33.6281
  0
LINE
  8
0
 10
7.82581
 20
33.6281
 11
7.85409
 21
33.6259
  0
LINE
  8
0
 10
7.85409
 20
33.6259
 11
11
 21
33.6259
  0
LINE
  8
0
 10
11
 20
33.6259
 11
11
 21
45.5
  0
LINE
  8
0
 10
11
 20
45.5
 11
0
 21
45.5
  0
LINE
  8
0
 10
0
 20
45.5
 11
0
 21
42
  0
LINE
  8
0
 10
7.10409
 20
25.3157
 11
7.10851
 21
25.2334
  0
LINE
  8
0
 10
7.10851
 20
25.2334
 11
7.11332
 21
25.144
  0
LINE
  8
0
 10
7.11332
 20
25.144
 11
7.12666
 21
25.0627
  0
LINE
  8
0
 10
7.12666
 20
25.0627
 11
7.14079
 21
24.9766
  0
LINE
  8
0
 10
7.14079
 20
24.9766
 11
7.16294
 21
24.8983
  0
LINE
  8
0
 10
7.16294
 20
24.8983
 11
7.18583
 21
24.8175
  0
LINE
  8
0
 10
7.18583
 20
24.8175
 11
7.21641
 21
24.7445
  0
LINE
  8
0
 10
7.21641
 20
24.7445
 11
7.24732
 21
24.6706
  0
LINE
  8
0
 10
7.24732
 20
24.6706
 11
7.28572
 21
24.6049
  0
LINE
  8
0
 10
7.28572
 20
24.6049
 11
7.32376
 21
24.5397
  0
LINE
  8
0
 10
7.32376
 20
24.5397
 11
7.41325
 21
24.4279
  0
LINE
  8
0
 10
7.41325
 20
24.4279
 11
7.51359
 21
24.3379
  0
LINE
  8
0
 10
7.51359
 20
24.3379
 11
7.56941
 21
24.3041
  0
LINE
  8
0
 10
7.56941
 20
24.3041
 11
7.62232
 21
24.272
  0
LINE
  8
0
 10
7.62232
 20
24.272
 11
7.68129
 21
24.2513
  0
LINE
  8
0
 10
7.68129
 20
24.2513
 11
7.73676
 21
24.2318
  0
LINE
  8
0
 10
7.73676
 20
24.2318
 11
7.85409
 21
24.2183
  0
LINE
  8
0
 10
7.85409
 20
24.2183
 11
11
 21
24.2183
  0
LINE
  8
0
 10
11
 20
24.2183
 11
11
 21
27.8524
  0
LINE
  8
0
 10
11
 20
27.8524
 11
7.85409
 21
27.8524
  0
LINE
  8
0
 10
7.85409
 20
27.8524
 11
7.73676
 21
27.8389
  0
LINE
  8
0
 10
7.73676
 20
27.8389
 11
7.71159
 21
27.8301
  0
LINE
  8
0
 10
7.71159
 20
27.8301
 11
7.62232
 21
27.7987
  0
LINE
  8
0
 10
7.62232
 20
27.7987
 11
7.59805
 21
27.784
  0
LINE
  8
0
 10
7.59805
 20
27.784
 11
7.51359
 21
27.7328
  0
LINE
  8
0
 10
7.51359
 20
27.7328
 11
7.49066
 21
27.7123
  0
LINE
  8
0
 10
7.49066
 20
27.7123
 11
7.41325
 21
27.6429
  0
LINE
  8
0
 10
7.41325
 20
27.6429
 11
7.32376
 21
27.531
  0
LINE
  8
0
 10
7.32376
 20
27.531
 11
7.24732
 21
27.4001
  0
LINE
  8
0
 10
7.24732
 20
27.4001
 11
7.2317
 21
27.3628
  0
LINE
  8
0
 10
7.2317
 20
27.3628
 11
7.18583
 21
27.2533
  0
LINE
  8
0
 10
7.18583
 20
27.2533
 11
7.14079
 21
27.0942
  0
LINE
  8
0
 10
7.14079
 20
27.0942
 11
7.13318
 21
27.0478
  0
LINE
  8
0
 10
7.13318
 20
27.0478
 11
7.11332
 21
26.9267
  0
LINE
  8
0
 10
7.11332
 20
26.9267
 11
7.11065
 21
26.877
  0
LINE
  8
0
 10
7.11065
 20
26.877
 11
7.10409
 21
26.7551
  0
LINE
  8
0
 10
7.10409
 20
26.7551
 11
7.10409
 21
25.3157
  0
LINE
  8
0
 10
36.5
 20
0
 11
47.5
 21
0
  0
LINE
  8
0
 10
47.5
 20
0
 11
47.5
 21
3.5
  0
LINE
  8
0
 10
47.5
 20
3.5
 11
47
 21
4
  0
LINE
  8
0
 10
47
 20
4
 11
41.8959
 21
4
  0
LINE
  8
0
 10
41.8959
 20
4
 11
40.3959
 21
5.5
  0
LINE
  8
0
 10
40.3959
 20
5.5
 11
40.3959
 21
15.8051
  0
LINE
  8
0
 10
40.3959
 20
15.8051
 11
40.3884
 21
15.9456
  0
LINE
  8
0
 10
40.3884
 20
15.9456
 11
40.3867
 21
15.9767
  0
LINE
  8
0
 10
40.3867
 20
15.9767
 11
40.3644
 21
16.1128
  0
LINE
  8
0
 10
40.3644
 20
16.1128
 11
40.3592
 21
16.1442
  0
LINE
  8
0
 10
40.3592
 20
16.1442
 11
40.3229
 21
16.2725
  0
LINE
  8
0
 10
40.3229
 20
16.2725
 11
40.3142
 21
16.3033
  0
LINE
  8
0
 10
40.3142
 20
16.3033
 11
40.2649
 21
16.4209
  0
LINE
  8
0
 10
40.2649
 20
16.4209
 11
40.2527
 21
16.4501
  0
LINE
  8
0
 10
40.2527
 20
16.4501
 11
40.1918
 21
16.5543
  0
LINE
  8
0
 10
40.1918
 20
16.5543
 11
40.1762
 21
16.581
  0
LINE
  8
0
 10
40.1762
 20
16.581
 11
40.1054
 21
16.6696
  0
LINE
  8
0
 10
40.1054
 20
16.6696
 11
40.0868
 21
16.6929
  0
LINE
  8
0
 10
40.0868
 20
16.6929
 11
40.0076
 21
16.7638
  0
LINE
  8
0
 10
40.0076
 20
16.7638
 11
39.9864
 21
16.7828
  0
LINE
  8
0
 10
39.9864
 20
16.7828
 11
39.9009
 21
16.8346
  0
LINE
  8
0
 10
39.9009
 20
16.8346
 11
39.8777
 21
16.8487
  0
LINE
  8
0
 10
39.8777
 20
16.8487
 11
39.7879
 21
16.8803
  0
LINE
  8
0
 10
39.7879
 20
16.8803
 11
39.7632
 21
16.8889
  0
LINE
  8
0
 10
39.7632
 20
16.8889
 11
39.6459
 21
16.9025
  0
LINE
  8
0
 10
39.6459
 20
16.9025
 11
36.5
 21
16.9025
  0
LINE
  8
0
 10
36.5
 20
16.9025
 11
36.5
 21
0
  0
LINE
  8
0
 10
36.5
 20
24.2183
 11
39.6459
 21
24.2183
  0
LINE
  8
0
 10
39.6459
 20
24.2183
 11
39.7632
 21
24.2318
  0
LINE
  8
0
 10
39.7632
 20
24.2318
 11
39.8222
 21
24.2525
  0
LINE
  8
0
 10
39.8222
 20
24.2525
 11
39.8777
 21
24.272
  0
LINE
  8
0
 10
39.8777
 20
24.272
 11
39.9335
 21
24.3058
  0
LINE
  8
0
 10
39.9335
 20
24.3058
 11
39.9864
 21
24.3379
  0
LINE
  8
0
 10
39.9864
 20
24.3379
 11
40.0868
 21
24.4279
  0
LINE
  8
0
 10
40.0868
 20
24.4279
 11
40.1762
 21
24.5397
  0
LINE
  8
0
 10
40.1762
 20
24.5397
 11
40.2146
 21
24.6055
  0
LINE
  8
0
 10
40.2146
 20
24.6055
 11
40.2527
 21
24.6706
  0
LINE
  8
0
 10
40.2527
 20
24.6706
 11
40.2833
 21
24.7437
  0
LINE
  8
0
 10
40.2833
 20
24.7437
 11
40.3142
 21
24.8175
  0
LINE
  8
0
 10
40.3142
 20
24.8175
 11
40.3363
 21
24.8957
  0
LINE
  8
0
 10
40.3363
 20
24.8957
 11
40.3592
 21
24.9766
  0
LINE
  8
0
 10
40.3592
 20
24.9766
 11
40.3726
 21
25.0579
  0
LINE
  8
0
 10
40.3726
 20
25.0579
 11
40.3867
 21
25.144
  0
LINE
  8
0
 10
40.3867
 20
25.144
 11
40.3911
 21
25.2263
  0
LINE
  8
0
 10
40.3911
 20
25.2263
 11
40.3959
 21
25.3157
  0
LINE
  8
0
 10
40.3959
 20
25.3157
 11
40.3959
 21
26.7551
  0
LINE
  8
0
 10
40.3959
 20
26.7551
 11
40.3932
 21
26.8056
  0
LINE
  8
0
 10
40.3932
 20
26.8056
 11
40.3867
 21
26.9267
  0
LINE
  8
0
 10
40.3867
 20
26.9267
 11
40.3789
 21
26.974
  0
LINE
  8
0
 10
40.3789
 20
26.974
 11
40.3592
 21
27.0942
  0
LINE
  8
0
 10
40.3592
 20
27.0942
 11
40.3142
 21
27.2533
  0
LINE
  8
0
 10
40.3142
 20
27.2533
 11
40.2982
 21
27.2913
  0
LINE
  8
0
 10
40.2982
 20
27.2913
 11
40.2527
 21
27.4001
  0
LINE
  8
0
 10
40.2527
 20
27.4001
 11
40.1762
 21
27.531
  0
LINE
  8
0
 10
40.1762
 20
27.531
 11
40.0868
 21
27.6429
  0
LINE
  8
0
 10
40.0868
 20
27.6429
 11
40.0635
 21
27.6637
  0
LINE
  8
0
 10
40.0635
 20
27.6637
 11
39.9864
 21
27.7328
  0
LINE
  8
0
 10
39.9864
 20
27.7328
 11
39.9618
 21
27.7477
  0
LINE
  8
0
 10
39.9618
 20
27.7477
 11
39.8777
 21
27.7987
  0
LINE
  8
0
 10
39.8777
 20
27.7987
 11
39.8523
 21
27.8076
  0
LINE
  8
0
 10
39.8523
 20
27.8076
 11
39.7632
 21
27.8389
  0
LINE
  8
0
 10
39.7632
 20
27.8389
 11
39.6459
 21
27.8524
  0
LINE
  8
0
 10
39.6459
 20
27.8524
 11
36.5
 21
27.8524
  0
LINE
  8
0
 10
36.5
 20
27.8524
 11
36.5
 21
24.2183
  0
LINE
  8
0
 10
36.5
 20
33.6259
 11
39.6459
 21
33.6259
  0
LINE
  8
0
 10
39.6459
 20
33.6259
 11
39.7346
 21
33.6329
  0
LINE
  8
0
 10
39.7346
 20
33.6329
 11
39.7632
 21
33.6352
  0
LINE
  8
0
 10
39.7632
 20
33.6352
 11
39.8488
 21
33.6557
  0
LINE
  8
0
 10
39.8488
 20
33.6557
 11
39.8777
 21
33.6627
  0
LINE
  8
0
 10
39.8777
 20
33.6627
 11
39.9574
 21
33.6957
  0
LINE
  8
0
 10
39.9574
 20
33.6957
 11
39.9864
 21
33.7077
  0
LINE
  8
0
 10
39.9864
 20
33.7077
 11
40.0582
 21
33.7517
  0
LINE
  8
0
 10
40.0582
 20
33.7517
 11
40.0868
 21
33.7693
  0
LINE
  8
0
 10
40.0868
 20
33.7693
 11
40.1489
 21
33.8223
  0
LINE
  8
0
 10
40.1489
 20
33.8223
 11
40.1762
 21
33.8457
  0
LINE
  8
0
 10
40.1762
 20
33.8457
 11
40.2275
 21
33.9058
  0
LINE
  8
0
 10
40.2275
 20
33.9058
 11
40.2527
 21
33.9353
  0
LINE
  8
0
 10
40.2527
 20
33.9353
 11
40.2924
 21
34.0001
  0
LINE
  8
0
 10
40.2924
 20
34.0001
 11
40.3142
 21
34.0357
  0
LINE
  8
0
 10
40.3142
 20
34.0357
 11
40.3421
 21
34.1033
  0
LINE
  8
0
 10
40.3421
 20
34.1033
 11
40.3592
 21
34.1445
  0
LINE
  8
0
 10
40.3592
 20
34.1445
 11
40.3756
 21
34.2128
  0
LINE
  8
0
 10
40.3756
 20
34.2128
 11
40.3867
 21
34.2591
  0
LINE
  8
0
 10
40.3867
 20
34.2591
 11
40.392
 21
34.3263
  0
LINE
  8
0
 10
40.392
 20
34.3263
 11
40.3959
 21
34.3765
  0
LINE
  8
0
 10
40.3959
 20
34.3765
 11
40.3959
 21
40
  0
LINE
  8
0
 10
40.3959
 20
40
 11
41.8959
 21
41.5
  0
LINE
  8
0
 10
41.8959
 20
41.5
 11
47
 21
41.5
  0
LINE
  8
0
 10
47
 20
41.5
 11
47.5
 21
42
  0
LINE
  8
0
 10
47.5
 20
42
 11
47.5
 21
45.5
  0
LINE
  8
0
 10
47.5
 20
45.5
 11
36.5
 21
45.5
  0
LINE
  8
0
 10
36.5
 20
45.5
 11
36.5
 21
33.6259
  0
ENDSEC
  0
SECTION
  2
OBJECTS
  0
DICTIONARY
  0
ENDSEC
  0
EOF
