  0
SECTION
  2
BLOCKS
  0
ENDSEC
  0
SECTION
  2
ENTITIES
  0
LINE
  8
0
 10
0
 20
0
 11
11
 21
0
  0
LINE
  8
0
 10
11
 20
0
 11
11
 21
16.6888
  0
LINE
  8
0
 10
11
 20
16.6888
 11
7.85409
 21
16.6888
  0
LINE
  8
0
 10
7.85409
 20
16.6888
 11
7.73676
 21
16.6753
  0
LINE
  8
0
 10
7.73676
 20
16.6753
 11
7.64524
 21
16.6432
  0
LINE
  8
0
 10
7.64524
 20
16.6432
 11
7.62232
 21
16.6351
  0
LINE
  8
0
 10
7.62232
 20
16.6351
 11
7.53512
 21
16.5823
  0
LINE
  8
0
 10
7.53512
 20
16.5823
 11
7.51359
 21
16.5692
  0
LINE
  8
0
 10
7.51359
 20
16.5692
 11
7.4328
 21
16.4968
  0
LINE
  8
0
 10
7.4328
 20
16.4968
 11
7.41325
 21
16.4792
  0
LINE
  8
0
 10
7.41325
 20
16.4792
 11
7.34084
 21
16.3888
  0
LINE
  8
0
 10
7.34084
 20
16.3888
 11
7.32376
 21
16.3674
  0
LINE
  8
0
 10
7.32376
 20
16.3674
 11
7.26156
 21
16.2609
  0
LINE
  8
0
 10
7.26156
 20
16.2609
 11
7.24732
 21
16.2365
  0
LINE
  8
0
 10
7.24732
 20
16.2365
 11
7.19696
 21
16.1162
  0
LINE
  8
0
 10
7.19696
 20
16.1162
 11
7.18583
 21
16.0897
  0
LINE
  8
0
 10
7.18583
 20
16.0897
 11
7.14869
 21
15.9584
  0
LINE
  8
0
 10
7.14869
 20
15.9584
 11
7.14079
 21
15.9306
  0
LINE
  8
0
 10
7.14079
 20
15.9306
 11
7.11797
 21
15.7914
  0
LINE
  8
0
 10
7.11797
 20
15.7914
 11
7.11332
 21
15.7631
  0
LINE
  8
0
 10
7.11332
 20
15.7631
 11
7.10559
 21
15.6194
  0
LINE
  8
0
 10
7.10559
 20
15.6194
 11
7.10409
 21
15.5915
  0
LINE
  8
0
 10
7.10409
 20
15.5915
 11
7.10409
 21
5.5
  0
LINE
  8
0
 10
7.10409
 20
5.5
 11
5.60409
 21
4
  0
LINE
  8
0
 10
5.60409
 20
4
 11
0.499999
 21
4
  0
LINE
  8
0
 10
0.499999
 20
4
 11
0
 21
3.5
  0
LINE
  8
0
 10
0
 20
3.5
 11
0
 21
0
  0
LINE
  8
0
 10
0
 20
42
 11
0.499999
 21
41.5
  0
LINE
  8
0
 10
0.499999
 20
41.5
 11
5.60409
 21
41.5
  0
LINE
  8
0
 10
5.60409
 20
41.5
 11
7.10409
 21
40
  0
LINE
  8
0
 10
7.10409
 20
40
 11
7.10409
 21
34.3947
  0
LINE
  8
0
 10
7.10409
 20
34.3947
 11
7.10599
 21
34.3706
  0
LINE
  8
0
 10
7.10599
 20
34.3706
 11
7.11332
 21
34.2773
  0
LINE
  8
0
 10
7.11332
 20
34.2773
 11
7.11924
 21
34.2526
  0
LINE
  8
0
 10
7.11924
 20
34.2526
 11
7.14079
 21
34.1628
  0
LINE
  8
0
 10
7.14079
 20
34.1628
 11
7.15096
 21
34.1383
  0
LINE
  8
0
 10
7.15096
 20
34.1383
 11
7.18583
 21
34.054
  0
LINE
  8
0
 10
7.18583
 20
34.054
 11
7.20032
 21
34.0303
  0
LINE
  8
0
 10
7.20032
 20
34.0303
 11
7.24732
 21
33.9536
  0
LINE
  8
0
 10
7.24732
 20
33.9536
 11
7.26607
 21
33.9316
  0
LINE
  8
0
 10
7.26607
 20
33.9316
 11
7.32376
 21
33.864
  0
LINE
  8
0
 10
7.32376
 20
33.864
 11
7.34649
 21
33.8446
  0
LINE
  8
0
 10
7.34649
 20
33.8446
 11
7.41325
 21
33.7875
  0
LINE
  8
0
 10
7.41325
 20
33.7875
 11
7.43949
 21
33.7714
  0
LINE
  8
0
 10
7.43949
 20
33.7714
 11
7.51359
 21
33.726
  0
LINE
  8
0
 10
7.51359
 20
33.726
 11
7.54266
 21
33.7139
  0
LINE
  8
0
 10
7.54266
 20
33.7139
 11
7.62232
 21
33.6809
  0
LINE
  8
0
 10
7.62232
 20
33.6809
 11
7.65334
 21
33.6735
  0
LINE
  8
0
 10
7.65334
 20
33.6735
 11
7.73676
 21
33.6534
  0
LINE
  8
0
 10
7.73676
 20
33.6534
 11
7.76874
 21
33.6509
  0
LINE
  8
0
 10
7.76874
 20
33.6509
 11
7.85409
 21
33.6442
  0
LINE
  8
0
 10
7.85409
 20
33.6442
 11
11
 21
33.6442
  0
LINE
  8
0
 10
11
 20
33.6442
 11
11
 21
45.5
  0
LINE
  8
0
 10
11
 20
45.5
 11
0
 21
45.5
  0
LINE
  8
0
 10
0
 20
45.5
 11
0
 21
42
  0
LINE
  8
0
 10
7.10409
 20
25.102
 11
7.10865
 21
25.0172
  0
LINE
  8
0
 10
7.10865
 20
25.0172
 11
7.11332
 21
24.9304
  0
LINE
  8
0
 10
7.11332
 20
24.9304
 11
7.12707
 21
24.8466
  0
LINE
  8
0
 10
7.12707
 20
24.8466
 11
7.14079
 21
24.7629
  0
LINE
  8
0
 10
7.14079
 20
24.7629
 11
7.1636
 21
24.6824
  0
LINE
  8
0
 10
7.1636
 20
24.6824
 11
7.18583
 21
24.6038
  0
LINE
  8
0
 10
7.18583
 20
24.6038
 11
7.21731
 21
24.5287
  0
LINE
  8
0
 10
7.21731
 20
24.5287
 11
7.24732
 21
24.457
  0
LINE
  8
0
 10
7.24732
 20
24.457
 11
7.28684
 21
24.3893
  0
LINE
  8
0
 10
7.28684
 20
24.3893
 11
7.32376
 21
24.3261
  0
LINE
  8
0
 10
7.32376
 20
24.3261
 11
7.41325
 21
24.2143
  0
LINE
  8
0
 10
7.41325
 20
24.2143
 11
7.51359
 21
24.1243
  0
LINE
  8
0
 10
7.51359
 20
24.1243
 11
7.571
 21
24.0895
  0
LINE
  8
0
 10
7.571
 20
24.0895
 11
7.62232
 21
24.0584
  0
LINE
  8
0
 10
7.62232
 20
24.0584
 11
7.68297
 21
24.0371
  0
LINE
  8
0
 10
7.68297
 20
24.0371
 11
7.73676
 21
24.0182
  0
LINE
  8
0
 10
7.73676
 20
24.0182
 11
7.85409
 21
24.0047
  0
LINE
  8
0
 10
7.85409
 20
24.0047
 11
11
 21
24.0047
  0
LINE
  8
0
 10
11
 20
24.0047
 11
11
 21
27.6388
  0
LINE
  8
0
 10
11
 20
27.6388
 11
7.85409
 21
27.6388
  0
LINE
  8
0
 10
7.85409
 20
27.6388
 11
7.73676
 21
27.6253
  0
LINE
  8
0
 10
7.73676
 20
27.6253
 11
7.70824
 21
27.6153
  0
LINE
  8
0
 10
7.70824
 20
27.6153
 11
7.62232
 21
27.5851
  0
LINE
  8
0
 10
7.62232
 20
27.5851
 11
7.59485
 21
27.5685
  0
LINE
  8
0
 10
7.59485
 20
27.5685
 11
7.51359
 21
27.5192
  0
LINE
  8
0
 10
7.51359
 20
27.5192
 11
7.48771
 21
27.496
  0
LINE
  8
0
 10
7.48771
 20
27.496
 11
7.41325
 21
27.4292
  0
LINE
  8
0
 10
7.41325
 20
27.4292
 11
7.32376
 21
27.3174
  0
LINE
  8
0
 10
7.32376
 20
27.3174
 11
7.24732
 21
27.1865
  0
LINE
  8
0
 10
7.24732
 20
27.1865
 11
7.22988
 21
27.1448
  0
LINE
  8
0
 10
7.22988
 20
27.1448
 11
7.18583
 21
27.0396
  0
LINE
  8
0
 10
7.18583
 20
27.0396
 11
7.14079
 21
26.8805
  0
LINE
  8
0
 10
7.14079
 20
26.8805
 11
7.13237
 21
26.8292
  0
LINE
  8
0
 10
7.13237
 20
26.8292
 11
7.11332
 21
26.7131
  0
LINE
  8
0
 10
7.11332
 20
26.7131
 11
7.11037
 21
26.6583
  0
LINE
  8
0
 10
7.11037
 20
26.6583
 11
7.10409
 21
26.5414
  0
LINE
  8
0
 10
7.10409
 20
26.5414
 11
7.10409
 21
25.102
  0
LINE
  8
0
 10
36.5
 20
0
 11
47.5
 21
0
  0
LINE
  8
0
 10
47.5
 20
0
 11
47.5
 21
3.5
  0
LINE
  8
0
 10
47.5
 20
3.5
 11
47
 21
4
  0
LINE
  8
0
 10
47
 20
4
 11
41.8959
 21
4
  0
LINE
  8
0
 10
41.8959
 20
4
 11
40.3959
 21
5.5
  0
LINE
  8
0
 10
40.3959
 20
5.5
 11
40.3959
 21
15.5915
  0
LINE
  8
0
 10
40.3959
 20
15.5915
 11
40.3882
 21
15.7344
  0
LINE
  8
0
 10
40.3882
 20
15.7344
 11
40.3867
 21
15.7631
  0
LINE
  8
0
 10
40.3867
 20
15.7631
 11
40.364
 21
15.9016
  0
LINE
  8
0
 10
40.364
 20
15.9016
 11
40.3592
 21
15.9306
  0
LINE
  8
0
 10
40.3592
 20
15.9306
 11
40.3222
 21
16.0612
  0
LINE
  8
0
 10
40.3222
 20
16.0612
 11
40.3142
 21
16.0897
  0
LINE
  8
0
 10
40.3142
 20
16.0897
 11
40.264
 21
16.2094
  0
LINE
  8
0
 10
40.264
 20
16.2094
 11
40.2527
 21
16.2365
  0
LINE
  8
0
 10
40.2527
 20
16.2365
 11
40.1907
 21
16.3426
  0
LINE
  8
0
 10
40.1907
 20
16.3426
 11
40.1762
 21
16.3674
  0
LINE
  8
0
 10
40.1762
 20
16.3674
 11
40.1041
 21
16.4576
  0
LINE
  8
0
 10
40.1041
 20
16.4576
 11
40.0868
 21
16.4792
  0
LINE
  8
0
 10
40.0868
 20
16.4792
 11
40.0062
 21
16.5515
  0
LINE
  8
0
 10
40.0062
 20
16.5515
 11
39.9864
 21
16.5692
  0
LINE
  8
0
 10
39.9864
 20
16.5692
 11
39.8994
 21
16.622
  0
LINE
  8
0
 10
39.8994
 20
16.622
 11
39.8777
 21
16.6351
  0
LINE
  8
0
 10
39.8777
 20
16.6351
 11
39.7862
 21
16.6672
  0
LINE
  8
0
 10
39.7862
 20
16.6672
 11
39.7632
 21
16.6753
  0
LINE
  8
0
 10
39.7632
 20
16.6753
 11
39.6459
 21
16.6888
  0
LINE
  8
0
 10
39.6459
 20
16.6888
 11
36.5
 21
16.6888
  0
LINE
  8
0
 10
36.5
 20
16.6888
 11
36.5
 21
0
  0
LINE
  8
0
 10
36.5
 20
24.0047
 11
39.6459
 21
24.0047
  0
LINE
  8
0
 10
39.6459
 20
24.0047
 11
39.7632
 21
24.0182
  0
LINE
  8
0
 10
39.7632
 20
24.0182
 11
39.8239
 21
24.0395
  0
LINE
  8
0
 10
39.8239
 20
24.0395
 11
39.8777
 21
24.0584
  0
LINE
  8
0
 10
39.8777
 20
24.0584
 11
39.9351
 21
24.0932
  0
LINE
  8
0
 10
39.9351
 20
24.0932
 11
39.9864
 21
24.1243
  0
LINE
  8
0
 10
39.9864
 20
24.1243
 11
40.0868
 21
24.2143
  0
LINE
  8
0
 10
40.0868
 20
24.2143
 11
40.1762
 21
24.3261
  0
LINE
  8
0
 10
40.1762
 20
24.3261
 11
40.2157
 21
24.3938
  0
LINE
  8
0
 10
40.2157
 20
24.3938
 11
40.2527
 21
24.457
  0
LINE
  8
0
 10
40.2527
 20
24.457
 11
40.2841
 21
24.5322
  0
LINE
  8
0
 10
40.2841
 20
24.5322
 11
40.3142
 21
24.6038
  0
LINE
  8
0
 10
40.3142
 20
24.6038
 11
40.337
 21
24.6844
  0
LINE
  8
0
 10
40.337
 20
24.6844
 11
40.3592
 21
24.7629
  0
LINE
  8
0
 10
40.3592
 20
24.7629
 11
40.3729
 21
24.8467
  0
LINE
  8
0
 10
40.3729
 20
24.8467
 11
40.3867
 21
24.9304
  0
LINE
  8
0
 10
40.3867
 20
24.9304
 11
40.3912
 21
25.0152
  0
LINE
  8
0
 10
40.3912
 20
25.0152
 11
40.3959
 21
25.102
  0
LINE
  8
0
 10
40.3959
 20
25.102
 11
40.3959
 21
26.5414
  0
LINE
  8
0
 10
40.3959
 20
26.5414
 11
40.3929
 21
26.597
  0
LINE
  8
0
 10
40.3929
 20
26.597
 11
40.3867
 21
26.7131
  0
LINE
  8
0
 10
40.3867
 20
26.7131
 11
40.3781
 21
26.7652
  0
LINE
  8
0
 10
40.3781
 20
26.7652
 11
40.3592
 21
26.8805
  0
LINE
  8
0
 10
40.3592
 20
26.8805
 11
40.3142
 21
27.0396
  0
LINE
  8
0
 10
40.3142
 20
27.0396
 11
40.2964
 21
27.082
  0
LINE
  8
0
 10
40.2964
 20
27.082
 11
40.2527
 21
27.1865
  0
LINE
  8
0
 10
40.2527
 20
27.1865
 11
40.1762
 21
27.3174
  0
LINE
  8
0
 10
40.1762
 20
27.3174
 11
40.0868
 21
27.4292
  0
LINE
  8
0
 10
40.0868
 20
27.4292
 11
40.0605
 21
27.4527
  0
LINE
  8
0
 10
40.0605
 20
27.4527
 11
39.9864
 21
27.5192
  0
LINE
  8
0
 10
39.9864
 20
27.5192
 11
39.9587
 21
27.536
  0
LINE
  8
0
 10
39.9587
 20
27.536
 11
39.8777
 21
27.5851
  0
LINE
  8
0
 10
39.8777
 20
27.5851
 11
39.849
 21
27.5952
  0
LINE
  8
0
 10
39.849
 20
27.5952
 11
39.7632
 21
27.6253
  0
LINE
  8
0
 10
39.7632
 20
27.6253
 11
39.6459
 21
27.6388
  0
LINE
  8
0
 10
39.6459
 20
27.6388
 11
36.5
 21
27.6388
  0
LINE
  8
0
 10
36.5
 20
27.6388
 11
36.5
 21
24.0047
  0
LINE
  8
0
 10
36.5
 20
33.6442
 11
39.6459
 21
33.6442
  0
LINE
  8
0
 10
39.6459
 20
33.6442
 11
39.6778
 21
33.6467
  0
LINE
  8
0
 10
39.6778
 20
33.6467
 11
39.7632
 21
33.6534
  0
LINE
  8
0
 10
39.7632
 20
33.6534
 11
39.794
 21
33.6608
  0
LINE
  8
0
 10
39.794
 20
33.6608
 11
39.8777
 21
33.6809
  0
LINE
  8
0
 10
39.8777
 20
33.6809
 11
39.9063
 21
33.6928
  0
LINE
  8
0
 10
39.9063
 20
33.6928
 11
39.9864
 21
33.726
  0
LINE
  8
0
 10
39.9864
 20
33.726
 11
40.0121
 21
33.7417
  0
LINE
  8
0
 10
40.0121
 20
33.7417
 11
40.0868
 21
33.7875
  0
LINE
  8
0
 10
40.0868
 20
33.7875
 11
40.1089
 21
33.8065
  0
LINE
  8
0
 10
40.1089
 20
33.8065
 11
40.1762
 21
33.864
  0
LINE
  8
0
 10
40.1762
 20
33.864
 11
40.1945
 21
33.8854
  0
LINE
  8
0
 10
40.1945
 20
33.8854
 11
40.2527
 21
33.9536
  0
LINE
  8
0
 10
40.2527
 20
33.9536
 11
40.2667
 21
33.9765
  0
LINE
  8
0
 10
40.2667
 20
33.9765
 11
40.3142
 21
34.054
  0
LINE
  8
0
 10
40.3142
 20
34.054
 11
40.324
 21
34.0778
  0
LINE
  8
0
 10
40.324
 20
34.0778
 11
40.3592
 21
34.1628
  0
LINE
  8
0
 10
40.3592
 20
34.1628
 11
40.3649
 21
34.1867
  0
LINE
  8
0
 10
40.3649
 20
34.1867
 11
40.3867
 21
34.2773
  0
LINE
  8
0
 10
40.3867
 20
34.2773
 11
40.3885
 21
34.3007
  0
LINE
  8
0
 10
40.3885
 20
34.3007
 11
40.3959
 21
34.3947
  0
LINE
  8
0
 10
40.3959
 20
34.3947
 11
40.3959
 21
40
  0
LINE
  8
0
 10
40.3959
 20
40
 11
41.8959
 21
41.5
  0
LINE
  8
0
 10
41.8959
 20
41.5
 11
47
 21
41.5
  0
LINE
  8
0
 10
47
 20
41.5
 11
47.5
 21
42
  0
LINE
  8
0
 10
47.5
 20
42
 11
47.5
 21
45.5
  0
LINE
  8
0
 10
47.5
 20
45.5
 11
36.5
 21
45.5
  0
LINE
  8
0
 10
36.5
 20
45.5
 11
36.5
 21
33.6442
  0
ENDSEC
  0
SECTION
  2
OBJECTS
  0
DICTIONARY
  0
ENDSEC
  0
EOF
