  0
SECTION
  2
BLOCKS
  0
ENDSEC
  0
SECTION
  2
ENTITIES
  0
LINE
  8
0
 10
0
 20
0
 11
11
 21
0
  0
LINE
  8
0
 10
11
 20
0
 11
11
 21
16.2616
  0
LINE
  8
0
 10
11
 20
16.2616
 11
7.85409
 21
16.2616
  0
LINE
  8
0
 10
7.85409
 20
16.2616
 11
7.73676
 21
16.2481
  0
LINE
  8
0
 10
7.73676
 20
16.2481
 11
7.64188
 21
16.2147
  0
LINE
  8
0
 10
7.64188
 20
16.2147
 11
7.62232
 21
16.2079
  0
LINE
  8
0
 10
7.62232
 20
16.2079
 11
7.53193
 21
16.1531
  0
LINE
  8
0
 10
7.53193
 20
16.1531
 11
7.51359
 21
16.142
  0
LINE
  8
0
 10
7.51359
 20
16.142
 11
7.42986
 21
16.0669
  0
LINE
  8
0
 10
7.42986
 20
16.0669
 11
7.41325
 21
16.052
  0
LINE
  8
0
 10
7.41325
 20
16.052
 11
7.33821
 21
15.9582
  0
LINE
  8
0
 10
7.33821
 20
15.9582
 11
7.32376
 21
15.9402
  0
LINE
  8
0
 10
7.32376
 20
15.9402
 11
7.25931
 21
15.8298
  0
LINE
  8
0
 10
7.25931
 20
15.8298
 11
7.24732
 21
15.8092
  0
LINE
  8
0
 10
7.24732
 20
15.8092
 11
7.19515
 21
15.6847
  0
LINE
  8
0
 10
7.19515
 20
15.6847
 11
7.18583
 21
15.6624
  0
LINE
  8
0
 10
7.18583
 20
15.6624
 11
7.14736
 21
15.5265
  0
LINE
  8
0
 10
7.14736
 20
15.5265
 11
7.14079
 21
15.5033
  0
LINE
  8
0
 10
7.14079
 20
15.5033
 11
7.11716
 21
15.3593
  0
LINE
  8
0
 10
7.11716
 20
15.3593
 11
7.11332
 21
15.3359
  0
LINE
  8
0
 10
7.11332
 20
15.3359
 11
7.10532
 21
15.1871
  0
LINE
  8
0
 10
7.10532
 20
15.1871
 11
7.10409
 21
15.1642
  0
LINE
  8
0
 10
7.10409
 20
15.1642
 11
7.10409
 21
5.5
  0
LINE
  8
0
 10
7.10409
 20
5.5
 11
5.60409
 21
4
  0
LINE
  8
0
 10
5.60409
 20
4
 11
0.499999
 21
4
  0
LINE
  8
0
 10
0.499999
 20
4
 11
0
 21
3.5
  0
LINE
  8
0
 10
0
 20
3.5
 11
0
 21
0
  0
LINE
  8
0
 10
0
 20
42
 11
0.499999
 21
41.5
  0
LINE
  8
0
 10
0.499999
 20
41.5
 11
5.60409
 21
41.5
  0
LINE
  8
0
 10
5.60409
 20
41.5
 11
7.10409
 21
40
  0
LINE
  8
0
 10
7.10409
 20
40
 11
7.10409
 21
34.3825
  0
LINE
  8
0
 10
7.10409
 20
34.3825
 11
7.10825
 21
34.3296
  0
LINE
  8
0
 10
7.10825
 20
34.3296
 11
7.11332
 21
34.2653
  0
LINE
  8
0
 10
7.11332
 20
34.2653
 11
7.1252
 21
34.2158
  0
LINE
  8
0
 10
7.1252
 20
34.2158
 11
7.14079
 21
34.1509
  0
LINE
  8
0
 10
7.14079
 20
34.1509
 11
7.15939
 21
34.106
  0
LINE
  8
0
 10
7.15939
 20
34.106
 11
7.18583
 21
34.0422
  0
LINE
  8
0
 10
7.18583
 20
34.0422
 11
7.20998
 21
34.0029
  0
LINE
  8
0
 10
7.20998
 20
34.0029
 11
7.24732
 21
33.942
  0
LINE
  8
0
 10
7.24732
 20
33.942
 11
7.27582
 21
33.9086
  0
LINE
  8
0
 10
7.27582
 20
33.9086
 11
7.32376
 21
33.8525
  0
LINE
  8
0
 10
7.32376
 20
33.8525
 11
7.35541
 21
33.8255
  0
LINE
  8
0
 10
7.35541
 20
33.8255
 11
7.41325
 21
33.7761
  0
LINE
  8
0
 10
7.41325
 20
33.7761
 11
7.447
 21
33.7555
  0
LINE
  8
0
 10
7.447
 20
33.7555
 11
7.51359
 21
33.7147
  0
LINE
  8
0
 10
7.51359
 20
33.7147
 11
7.54857
 21
33.7002
  0
LINE
  8
0
 10
7.54857
 20
33.7002
 11
7.62232
 21
33.6697
  0
LINE
  8
0
 10
7.62232
 20
33.6697
 11
7.65784
 21
33.6612
  0
LINE
  8
0
 10
7.65784
 20
33.6612
 11
7.73676
 21
33.6422
  0
LINE
  8
0
 10
7.73676
 20
33.6422
 11
7.77234
 21
33.6394
  0
LINE
  8
0
 10
7.77234
 20
33.6394
 11
7.85409
 21
33.633
  0
LINE
  8
0
 10
7.85409
 20
33.633
 11
11
 21
33.633
  0
LINE
  8
0
 10
11
 20
33.633
 11
11
 21
45.5
  0
LINE
  8
0
 10
11
 20
45.5
 11
0
 21
45.5
  0
LINE
  8
0
 10
0
 20
45.5
 11
0
 21
42
  0
LINE
  8
0
 10
7.10409
 20
24.6748
 11
7.10892
 21
24.5849
  0
LINE
  8
0
 10
7.10892
 20
24.5849
 11
7.11332
 21
24.5031
  0
LINE
  8
0
 10
7.11332
 20
24.5031
 11
7.12788
 21
24.4144
  0
LINE
  8
0
 10
7.12788
 20
24.4144
 11
7.14079
 21
24.3357
  0
LINE
  8
0
 10
7.14079
 20
24.3357
 11
7.16492
 21
24.2505
  0
LINE
  8
0
 10
7.16492
 20
24.2505
 11
7.18583
 21
24.1766
  0
LINE
  8
0
 10
7.18583
 20
24.1766
 11
7.21912
 21
24.0971
  0
LINE
  8
0
 10
7.21912
 20
24.0971
 11
7.24732
 21
24.0298
  0
LINE
  8
0
 10
7.24732
 20
24.0298
 11
7.28909
 21
23.9582
  0
LINE
  8
0
 10
7.28909
 20
23.9582
 11
7.32376
 21
23.8988
  0
LINE
  8
0
 10
7.32376
 20
23.8988
 11
7.41325
 21
23.787
  0
LINE
  8
0
 10
7.41325
 20
23.787
 11
7.51359
 21
23.697
  0
LINE
  8
0
 10
7.51359
 20
23.697
 11
7.57419
 21
23.6603
  0
LINE
  8
0
 10
7.57419
 20
23.6603
 11
7.62232
 21
23.6311
  0
LINE
  8
0
 10
7.62232
 20
23.6311
 11
7.68632
 21
23.6087
  0
LINE
  8
0
 10
7.68632
 20
23.6087
 11
7.73676
 21
23.5909
  0
LINE
  8
0
 10
7.73676
 20
23.5909
 11
7.85409
 21
23.5774
  0
LINE
  8
0
 10
7.85409
 20
23.5774
 11
11
 21
23.5774
  0
LINE
  8
0
 10
11
 20
23.5774
 11
11
 21
27.2116
  0
LINE
  8
0
 10
11
 20
27.2116
 11
7.85409
 21
27.2116
  0
LINE
  8
0
 10
7.85409
 20
27.2116
 11
7.73676
 21
27.1981
  0
LINE
  8
0
 10
7.73676
 20
27.1981
 11
7.70152
 21
27.1857
  0
LINE
  8
0
 10
7.70152
 20
27.1857
 11
7.62232
 21
27.1579
  0
LINE
  8
0
 10
7.62232
 20
27.1579
 11
7.58846
 21
27.1373
  0
LINE
  8
0
 10
7.58846
 20
27.1373
 11
7.51359
 21
27.092
  0
LINE
  8
0
 10
7.51359
 20
27.092
 11
7.4818
 21
27.0635
  0
LINE
  8
0
 10
7.4818
 20
27.0635
 11
7.41325
 21
27.002
  0
LINE
  8
0
 10
7.41325
 20
27.002
 11
7.32376
 21
26.8902
  0
LINE
  8
0
 10
7.32376
 20
26.8902
 11
7.24732
 21
26.7592
  0
LINE
  8
0
 10
7.24732
 20
26.7592
 11
7.22625
 21
26.7089
  0
LINE
  8
0
 10
7.22625
 20
26.7089
 11
7.18583
 21
26.6124
  0
LINE
  8
0
 10
7.18583
 20
26.6124
 11
7.14079
 21
26.4533
  0
LINE
  8
0
 10
7.14079
 20
26.4533
 11
7.13074
 21
26.392
  0
LINE
  8
0
 10
7.13074
 20
26.392
 11
7.11332
 21
26.2859
  0
LINE
  8
0
 10
7.11332
 20
26.2859
 11
7.10983
 21
26.2209
  0
LINE
  8
0
 10
7.10983
 20
26.2209
 11
7.10409
 21
26.1142
  0
LINE
  8
0
 10
7.10409
 20
26.1142
 11
7.10409
 21
24.6748
  0
LINE
  8
0
 10
36.5
 20
0
 11
47.5
 21
0
  0
LINE
  8
0
 10
47.5
 20
0
 11
47.5
 21
3.5
  0
LINE
  8
0
 10
47.5
 20
3.5
 11
47
 21
4
  0
LINE
  8
0
 10
47
 20
4
 11
41.8959
 21
4
  0
LINE
  8
0
 10
41.8959
 20
4
 11
40.3959
 21
5.5
  0
LINE
  8
0
 10
40.3959
 20
5.5
 11
40.3959
 21
15.1642
  0
LINE
  8
0
 10
40.3959
 20
15.1642
 11
40.388
 21
15.3122
  0
LINE
  8
0
 10
40.388
 20
15.3122
 11
40.3867
 21
15.3359
  0
LINE
  8
0
 10
40.3867
 20
15.3359
 11
40.3632
 21
15.4792
  0
LINE
  8
0
 10
40.3632
 20
15.4792
 11
40.3592
 21
15.5033
  0
LINE
  8
0
 10
40.3592
 20
15.5033
 11
40.3209
 21
15.6386
  0
LINE
  8
0
 10
40.3209
 20
15.6386
 11
40.3142
 21
15.6624
  0
LINE
  8
0
 10
40.3142
 20
15.6624
 11
40.2622
 21
15.7864
  0
LINE
  8
0
 10
40.2622
 20
15.7864
 11
40.2527
 21
15.8092
  0
LINE
  8
0
 10
40.2527
 20
15.8092
 11
40.1885
 21
15.9192
  0
LINE
  8
0
 10
40.1885
 20
15.9192
 11
40.1762
 21
15.9402
  0
LINE
  8
0
 10
40.1762
 20
15.9402
 11
40.1015
 21
16.0336
  0
LINE
  8
0
 10
40.1015
 20
16.0336
 11
40.0868
 21
16.052
  0
LINE
  8
0
 10
40.0868
 20
16.052
 11
40.0032
 21
16.1269
  0
LINE
  8
0
 10
40.0032
 20
16.1269
 11
39.9864
 21
16.142
  0
LINE
  8
0
 10
39.9864
 20
16.142
 11
39.8962
 21
16.1967
  0
LINE
  8
0
 10
39.8962
 20
16.1967
 11
39.8777
 21
16.2079
  0
LINE
  8
0
 10
39.8777
 20
16.2079
 11
39.7829
 21
16.2412
  0
LINE
  8
0
 10
39.7829
 20
16.2412
 11
39.7632
 21
16.2481
  0
LINE
  8
0
 10
39.7632
 20
16.2481
 11
39.6459
 21
16.2616
  0
LINE
  8
0
 10
39.6459
 20
16.2616
 11
36.5
 21
16.2616
  0
LINE
  8
0
 10
36.5
 20
16.2616
 11
36.5
 21
0
  0
LINE
  8
0
 10
36.5
 20
23.5774
 11
39.6459
 21
23.5774
  0
LINE
  8
0
 10
39.6459
 20
23.5774
 11
39.7632
 21
23.5909
  0
LINE
  8
0
 10
39.7632
 20
23.5909
 11
39.8272
 21
23.6134
  0
LINE
  8
0
 10
39.8272
 20
23.6134
 11
39.8777
 21
23.6311
  0
LINE
  8
0
 10
39.8777
 20
23.6311
 11
39.9382
 21
23.6678
  0
LINE
  8
0
 10
39.9382
 20
23.6678
 11
39.9864
 21
23.697
  0
LINE
  8
0
 10
39.9864
 20
23.697
 11
40.0868
 21
23.787
  0
LINE
  8
0
 10
40.0868
 20
23.787
 11
40.1762
 21
23.8988
  0
LINE
  8
0
 10
40.1762
 20
23.8988
 11
40.218
 21
23.9703
  0
LINE
  8
0
 10
40.218
 20
23.9703
 11
40.2527
 21
24.0298
  0
LINE
  8
0
 10
40.2527
 20
24.0298
 11
40.2859
 21
24.1092
  0
LINE
  8
0
 10
40.2859
 20
24.1092
 11
40.3142
 21
24.1766
  0
LINE
  8
0
 10
40.3142
 20
24.1766
 11
40.3383
 21
24.2618
  0
LINE
  8
0
 10
40.3383
 20
24.2618
 11
40.3592
 21
24.3357
  0
LINE
  8
0
 10
40.3592
 20
24.3357
 11
40.3737
 21
24.4243
  0
LINE
  8
0
 10
40.3737
 20
24.4243
 11
40.3867
 21
24.5031
  0
LINE
  8
0
 10
40.3867
 20
24.5031
 11
40.3915
 21
24.593
  0
LINE
  8
0
 10
40.3915
 20
24.593
 11
40.3959
 21
24.6748
  0
LINE
  8
0
 10
40.3959
 20
24.6748
 11
40.3959
 21
26.1142
  0
LINE
  8
0
 10
40.3959
 20
26.1142
 11
40.3924
 21
26.1797
  0
LINE
  8
0
 10
40.3924
 20
26.1797
 11
40.3867
 21
26.2859
  0
LINE
  8
0
 10
40.3867
 20
26.2859
 11
40.3765
 21
26.3477
  0
LINE
  8
0
 10
40.3765
 20
26.3477
 11
40.3592
 21
26.4533
  0
LINE
  8
0
 10
40.3592
 20
26.4533
 11
40.3142
 21
26.6124
  0
LINE
  8
0
 10
40.3142
 20
26.6124
 11
40.2929
 21
26.6632
  0
LINE
  8
0
 10
40.2929
 20
26.6632
 11
40.2527
 21
26.7592
  0
LINE
  8
0
 10
40.2527
 20
26.7592
 11
40.1762
 21
26.8902
  0
LINE
  8
0
 10
40.1762
 20
26.8902
 11
40.0868
 21
27.002
  0
LINE
  8
0
 10
40.0868
 20
27.002
 11
40.0547
 21
27.0307
  0
LINE
  8
0
 10
40.0547
 20
27.0307
 11
39.9864
 21
27.092
  0
LINE
  8
0
 10
39.9864
 20
27.092
 11
39.9523
 21
27.1126
  0
LINE
  8
0
 10
39.9523
 20
27.1126
 11
39.8777
 21
27.1579
  0
LINE
  8
0
 10
39.8777
 20
27.1579
 11
39.8423
 21
27.1703
  0
LINE
  8
0
 10
39.8423
 20
27.1703
 11
39.7632
 21
27.1981
  0
LINE
  8
0
 10
39.7632
 20
27.1981
 11
39.6459
 21
27.2116
  0
LINE
  8
0
 10
39.6459
 20
27.2116
 11
36.5
 21
27.2116
  0
LINE
  8
0
 10
36.5
 20
27.2116
 11
36.5
 21
23.5774
  0
LINE
  8
0
 10
36.5
 20
33.633
 11
39.6459
 21
33.633
  0
LINE
  8
0
 10
39.6459
 20
33.633
 11
39.6812
 21
33.6358
  0
LINE
  8
0
 10
39.6812
 20
33.6358
 11
39.7632
 21
33.6422
  0
LINE
  8
0
 10
39.7632
 20
33.6422
 11
39.7979
 21
33.6506
  0
LINE
  8
0
 10
39.7979
 20
33.6506
 11
39.8777
 21
33.6697
  0
LINE
  8
0
 10
39.8777
 20
33.6697
 11
39.9114
 21
33.6836
  0
LINE
  8
0
 10
39.9114
 20
33.6836
 11
39.9864
 21
33.7147
  0
LINE
  8
0
 10
39.9864
 20
33.7147
 11
40.0186
 21
33.7344
  0
LINE
  8
0
 10
40.0186
 20
33.7344
 11
40.0868
 21
33.7761
  0
LINE
  8
0
 10
40.0868
 20
33.7761
 11
40.1168
 21
33.8018
  0
LINE
  8
0
 10
40.1168
 20
33.8018
 11
40.1762
 21
33.8525
  0
LINE
  8
0
 10
40.1762
 20
33.8525
 11
40.2032
 21
33.8841
  0
LINE
  8
0
 10
40.2032
 20
33.8841
 11
40.2527
 21
33.942
  0
LINE
  8
0
 10
40.2527
 20
33.942
 11
40.2755
 21
33.9792
  0
LINE
  8
0
 10
40.2755
 20
33.9792
 11
40.3142
 21
34.0422
  0
LINE
  8
0
 10
40.3142
 20
34.0422
 11
40.3318
 21
34.0848
  0
LINE
  8
0
 10
40.3318
 20
34.0848
 11
40.3592
 21
34.1509
  0
LINE
  8
0
 10
40.3592
 20
34.1509
 11
40.3705
 21
34.1979
  0
LINE
  8
0
 10
40.3705
 20
34.1979
 11
40.3867
 21
34.2653
  0
LINE
  8
0
 10
40.3867
 20
34.2653
 11
40.3907
 21
34.3158
  0
LINE
  8
0
 10
40.3907
 20
34.3158
 11
40.3959
 21
34.3825
  0
LINE
  8
0
 10
40.3959
 20
34.3825
 11
40.3959
 21
40
  0
LINE
  8
0
 10
40.3959
 20
40
 11
41.8959
 21
41.5
  0
LINE
  8
0
 10
41.8959
 20
41.5
 11
47
 21
41.5
  0
LINE
  8
0
 10
47
 20
41.5
 11
47.5
 21
42
  0
LINE
  8
0
 10
47.5
 20
42
 11
47.5
 21
45.5
  0
LINE
  8
0
 10
47.5
 20
45.5
 11
36.5
 21
45.5
  0
LINE
  8
0
 10
36.5
 20
45.5
 11
36.5
 21
33.633
  0
ENDSEC
  0
SECTION
  2
OBJECTS
  0
DICTIONARY
  0
ENDSEC
  0
EOF
