  0
SECTION
  2
BLOCKS
  0
ENDSEC
  0
SECTION
  2
ENTITIES
  0
LINE
  8
0
 10
0
 20
0
 11
11
 21
0
  0
LINE
  8
0
 10
11
 20
0
 11
11
 21
16.048
  0
LINE
  8
0
 10
11
 20
16.048
 11
7.85409
 21
16.048
  0
LINE
  8
0
 10
7.85409
 20
16.048
 11
7.73676
 21
16.0345
  0
LINE
  8
0
 10
7.73676
 20
16.0345
 11
7.64021
 21
16.0005
  0
LINE
  8
0
 10
7.64021
 20
16.0005
 11
7.62232
 21
15.9943
  0
LINE
  8
0
 10
7.62232
 20
15.9943
 11
7.53034
 21
15.9385
  0
LINE
  8
0
 10
7.53034
 20
15.9385
 11
7.51359
 21
15.9284
  0
LINE
  8
0
 10
7.51359
 20
15.9284
 11
7.42838
 21
15.852
  0
LINE
  8
0
 10
7.42838
 20
15.852
 11
7.41325
 21
15.8384
  0
LINE
  8
0
 10
7.41325
 20
15.8384
 11
7.3369
 21
15.743
  0
LINE
  8
0
 10
7.3369
 20
15.743
 11
7.32376
 21
15.7265
  0
LINE
  8
0
 10
7.32376
 20
15.7265
 11
7.25819
 21
15.6142
  0
LINE
  8
0
 10
7.25819
 20
15.6142
 11
7.24732
 21
15.5956
  0
LINE
  8
0
 10
7.24732
 20
15.5956
 11
7.19425
 21
15.4689
  0
LINE
  8
0
 10
7.19425
 20
15.4689
 11
7.18583
 21
15.4488
  0
LINE
  8
0
 10
7.18583
 20
15.4488
 11
7.1467
 21
15.3105
  0
LINE
  8
0
 10
7.1467
 20
15.3105
 11
7.14079
 21
15.2897
  0
LINE
  8
0
 10
7.14079
 20
15.2897
 11
7.11675
 21
15.1432
  0
LINE
  8
0
 10
7.11675
 20
15.1432
 11
7.11332
 21
15.1223
  0
LINE
  8
0
 10
7.11332
 20
15.1223
 11
7.10518
 21
14.971
  0
LINE
  8
0
 10
7.10518
 20
14.971
 11
7.10409
 21
14.9506
  0
LINE
  8
0
 10
7.10409
 20
14.9506
 11
7.10409
 21
5.5
  0
LINE
  8
0
 10
7.10409
 20
5.5
 11
5.60409
 21
4
  0
LINE
  8
0
 10
5.60409
 20
4
 11
0.499999
 21
4
  0
LINE
  8
0
 10
0.499999
 20
4
 11
0
 21
3.5
  0
LINE
  8
0
 10
0
 20
3.5
 11
0
 21
0
  0
LINE
  8
0
 10
0
 20
42
 11
0.499999
 21
41.5
  0
LINE
  8
0
 10
0.499999
 20
41.5
 11
5.60409
 21
41.5
  0
LINE
  8
0
 10
5.60409
 20
41.5
 11
7.10409
 21
40
  0
LINE
  8
0
 10
7.10409
 20
40
 11
7.10409
 21
34.3676
  0
LINE
  8
0
 10
7.10409
 20
34.3676
 11
7.1048
 21
34.3586
  0
LINE
  8
0
 10
7.1048
 20
34.3586
 11
7.11332
 21
34.2504
  0
LINE
  8
0
 10
7.11332
 20
34.2504
 11
7.11453
 21
34.2453
  0
LINE
  8
0
 10
7.11453
 20
34.2453
 11
7.14079
 21
34.136
  0
LINE
  8
0
 10
7.14079
 20
34.136
 11
7.14124
 21
34.135
  0
LINE
  8
0
 10
7.14124
 20
34.135
 11
7.1537
 21
34.1049
  0
LINE
  8
0
 10
7.1537
 20
34.1049
 11
7.18474
 21
34.028
  0
LINE
  8
0
 10
7.18474
 20
34.028
 11
7.18583
 21
34.0253
  0
LINE
  8
0
 10
7.18583
 20
34.0253
 11
7.24378
 21
33.9283
  0
LINE
  8
0
 10
7.24378
 20
33.9283
 11
7.24732
 21
33.9224
  0
LINE
  8
0
 10
7.24732
 20
33.9224
 11
7.31688
 21
33.8388
  0
LINE
  8
0
 10
7.31688
 20
33.8388
 11
7.32376
 21
33.8305
  0
LINE
  8
0
 10
7.32376
 20
33.8305
 11
7.40252
 21
33.7615
  0
LINE
  8
0
 10
7.40252
 20
33.7615
 11
7.41325
 21
33.7521
  0
LINE
  8
0
 10
7.41325
 20
33.7521
 11
7.49894
 21
33.6983
  0
LINE
  8
0
 10
7.49894
 20
33.6983
 11
7.51359
 21
33.6891
  0
LINE
  8
0
 10
7.51359
 20
33.6891
 11
7.60416
 21
33.6506
  0
LINE
  8
0
 10
7.60416
 20
33.6506
 11
7.62232
 21
33.6429
  0
LINE
  8
0
 10
7.62232
 20
33.6429
 11
7.71598
 21
33.6198
  0
LINE
  8
0
 10
7.71598
 20
33.6198
 11
7.73676
 21
33.6147
  0
LINE
  8
0
 10
7.73676
 20
33.6147
 11
7.83198
 21
33.607
  0
LINE
  8
0
 10
7.83198
 20
33.607
 11
7.85409
 21
33.6052
  0
LINE
  8
0
 10
7.85409
 20
33.6052
 11
11
 21
33.6052
  0
LINE
  8
0
 10
11
 20
33.6052
 11
11
 21
45.5
  0
LINE
  8
0
 10
11
 20
45.5
 11
0
 21
45.5
  0
LINE
  8
0
 10
0
 20
45.5
 11
0
 21
42
  0
LINE
  8
0
 10
7.10409
 20
24.4612
 11
7.10906
 21
24.3688
  0
LINE
  8
0
 10
7.10906
 20
24.3688
 11
7.11332
 21
24.2895
  0
LINE
  8
0
 10
7.11332
 20
24.2895
 11
7.12828
 21
24.1983
  0
LINE
  8
0
 10
7.12828
 20
24.1983
 11
7.14079
 21
24.1221
  0
LINE
  8
0
 10
7.14079
 20
24.1221
 11
7.16559
 21
24.0345
  0
LINE
  8
0
 10
7.16559
 20
24.0345
 11
7.18583
 21
23.963
  0
LINE
  8
0
 10
7.18583
 20
23.963
 11
7.22003
 21
23.8813
  0
LINE
  8
0
 10
7.22003
 20
23.8813
 11
7.24732
 21
23.8162
  0
LINE
  8
0
 10
7.24732
 20
23.8162
 11
7.29022
 21
23.7427
  0
LINE
  8
0
 10
7.29022
 20
23.7427
 11
7.32376
 21
23.6852
  0
LINE
  8
0
 10
7.32376
 20
23.6852
 11
7.41325
 21
23.5734
  0
LINE
  8
0
 10
7.41325
 20
23.5734
 11
7.51359
 21
23.4834
  0
LINE
  8
0
 10
7.51359
 20
23.4834
 11
7.57579
 21
23.4457
  0
LINE
  8
0
 10
7.57579
 20
23.4457
 11
7.62232
 21
23.4175
  0
LINE
  8
0
 10
7.62232
 20
23.4175
 11
7.688
 21
23.3944
  0
LINE
  8
0
 10
7.688
 20
23.3944
 11
7.73676
 21
23.3773
  0
LINE
  8
0
 10
7.73676
 20
23.3773
 11
7.85409
 21
23.3638
  0
LINE
  8
0
 10
7.85409
 20
23.3638
 11
11
 21
23.3638
  0
LINE
  8
0
 10
11
 20
23.3638
 11
11
 21
26.9979
  0
LINE
  8
0
 10
11
 20
26.9979
 11
7.85409
 21
26.9979
  0
LINE
  8
0
 10
7.85409
 20
26.9979
 11
7.73676
 21
26.9844
  0
LINE
  8
0
 10
7.73676
 20
26.9844
 11
7.69816
 21
26.9709
  0
LINE
  8
0
 10
7.69816
 20
26.9709
 11
7.62232
 21
26.9442
  0
LINE
  8
0
 10
7.62232
 20
26.9442
 11
7.58526
 21
26.9218
  0
LINE
  8
0
 10
7.58526
 20
26.9218
 11
7.51359
 21
26.8783
  0
LINE
  8
0
 10
7.51359
 20
26.8783
 11
7.47884
 21
26.8472
  0
LINE
  8
0
 10
7.47884
 20
26.8472
 11
7.41325
 21
26.7884
  0
LINE
  8
0
 10
7.41325
 20
26.7884
 11
7.32376
 21
26.6765
  0
LINE
  8
0
 10
7.32376
 20
26.6765
 11
7.24732
 21
26.5456
  0
LINE
  8
0
 10
7.24732
 20
26.5456
 11
7.22443
 21
26.4909
  0
LINE
  8
0
 10
7.22443
 20
26.4909
 11
7.18583
 21
26.3988
  0
LINE
  8
0
 10
7.18583
 20
26.3988
 11
7.14079
 21
26.2397
  0
LINE
  8
0
 10
7.14079
 20
26.2397
 11
7.12993
 21
26.1735
  0
LINE
  8
0
 10
7.12993
 20
26.1735
 11
7.11332
 21
26.0722
  0
LINE
  8
0
 10
7.11332
 20
26.0722
 11
7.10955
 21
26.0022
  0
LINE
  8
0
 10
7.10955
 20
26.0022
 11
7.10409
 21
25.9006
  0
LINE
  8
0
 10
7.10409
 20
25.9006
 11
7.10409
 21
24.4612
  0
LINE
  8
0
 10
36.5
 20
0
 11
47.5
 21
0
  0
LINE
  8
0
 10
47.5
 20
0
 11
47.5
 21
3.5
  0
LINE
  8
0
 10
47.5
 20
3.5
 11
47
 21
4
  0
LINE
  8
0
 10
47
 20
4
 11
41.8959
 21
4
  0
LINE
  8
0
 10
41.8959
 20
4
 11
40.3959
 21
5.5
  0
LINE
  8
0
 10
40.3959
 20
5.5
 11
40.3959
 21
14.9506
  0
LINE
  8
0
 10
40.3959
 20
14.9506
 11
40.3878
 21
15.1011
  0
LINE
  8
0
 10
40.3878
 20
15.1011
 11
40.3867
 21
15.1223
  0
LINE
  8
0
 10
40.3867
 20
15.1223
 11
40.3628
 21
15.268
  0
LINE
  8
0
 10
40.3628
 20
15.268
 11
40.3592
 21
15.2897
  0
LINE
  8
0
 10
40.3592
 20
15.2897
 11
40.3203
 21
15.4273
  0
LINE
  8
0
 10
40.3203
 20
15.4273
 11
40.3142
 21
15.4488
  0
LINE
  8
0
 10
40.3142
 20
15.4488
 11
40.2613
 21
15.5749
  0
LINE
  8
0
 10
40.2613
 20
15.5749
 11
40.2527
 21
15.5956
  0
LINE
  8
0
 10
40.2527
 20
15.5956
 11
40.1874
 21
15.7075
  0
LINE
  8
0
 10
40.1874
 20
15.7075
 11
40.1762
 21
15.7265
  0
LINE
  8
0
 10
40.1762
 20
15.7265
 11
40.1001
 21
15.8216
  0
LINE
  8
0
 10
40.1001
 20
15.8216
 11
40.0868
 21
15.8384
  0
LINE
  8
0
 10
40.0868
 20
15.8384
 11
40.0018
 21
15.9146
  0
LINE
  8
0
 10
40.0018
 20
15.9146
 11
39.9864
 21
15.9284
  0
LINE
  8
0
 10
39.9864
 20
15.9284
 11
39.8946
 21
15.984
  0
LINE
  8
0
 10
39.8946
 20
15.984
 11
39.8777
 21
15.9943
  0
LINE
  8
0
 10
39.8777
 20
15.9943
 11
39.7812
 21
16.0281
  0
LINE
  8
0
 10
39.7812
 20
16.0281
 11
39.7632
 21
16.0345
  0
LINE
  8
0
 10
39.7632
 20
16.0345
 11
39.6459
 21
16.048
  0
LINE
  8
0
 10
39.6459
 20
16.048
 11
36.5
 21
16.048
  0
LINE
  8
0
 10
36.5
 20
16.048
 11
36.5
 21
0
  0
LINE
  8
0
 10
36.5
 20
23.3638
 11
39.6459
 21
23.3638
  0
LINE
  8
0
 10
39.6459
 20
23.3638
 11
39.7632
 21
23.3773
  0
LINE
  8
0
 10
39.7632
 20
23.3773
 11
39.8289
 21
23.4004
  0
LINE
  8
0
 10
39.8289
 20
23.4004
 11
39.8777
 21
23.4175
  0
LINE
  8
0
 10
39.8777
 20
23.4175
 11
39.9398
 21
23.4552
  0
LINE
  8
0
 10
39.9398
 20
23.4552
 11
39.9864
 21
23.4834
  0
LINE
  8
0
 10
39.9864
 20
23.4834
 11
40.0868
 21
23.5734
  0
LINE
  8
0
 10
40.0868
 20
23.5734
 11
40.1762
 21
23.6852
  0
LINE
  8
0
 10
40.1762
 20
23.6852
 11
40.2191
 21
23.7586
  0
LINE
  8
0
 10
40.2191
 20
23.7586
 11
40.2527
 21
23.8162
  0
LINE
  8
0
 10
40.2527
 20
23.8162
 11
40.2868
 21
23.8977
  0
LINE
  8
0
 10
40.2868
 20
23.8977
 11
40.3142
 21
23.963
  0
LINE
  8
0
 10
40.3142
 20
23.963
 11
40.3389
 21
24.0505
  0
LINE
  8
0
 10
40.3389
 20
24.0505
 11
40.3592
 21
24.1221
  0
LINE
  8
0
 10
40.3592
 20
24.1221
 11
40.3741
 21
24.2132
  0
LINE
  8
0
 10
40.3741
 20
24.2132
 11
40.3867
 21
24.2895
  0
LINE
  8
0
 10
40.3867
 20
24.2895
 11
40.3916
 21
24.3818
  0
LINE
  8
0
 10
40.3916
 20
24.3818
 11
40.3959
 21
24.4612
  0
LINE
  8
0
 10
40.3959
 20
24.4612
 11
40.3959
 21
25.9006
  0
LINE
  8
0
 10
40.3959
 20
25.9006
 11
40.3921
 21
25.971
  0
LINE
  8
0
 10
40.3921
 20
25.971
 11
40.3867
 21
26.0722
  0
LINE
  8
0
 10
40.3867
 20
26.0722
 11
40.3757
 21
26.1389
  0
LINE
  8
0
 10
40.3757
 20
26.1389
 11
40.3592
 21
26.2397
  0
LINE
  8
0
 10
40.3592
 20
26.2397
 11
40.3142
 21
26.3988
  0
LINE
  8
0
 10
40.3142
 20
26.3988
 11
40.2911
 21
26.4538
  0
LINE
  8
0
 10
40.2911
 20
26.4538
 11
40.2527
 21
26.5456
  0
LINE
  8
0
 10
40.2527
 20
26.5456
 11
40.1762
 21
26.6765
  0
LINE
  8
0
 10
40.1762
 20
26.6765
 11
40.0868
 21
26.7884
  0
LINE
  8
0
 10
40.0868
 20
26.7884
 11
40.0518
 21
26.8197
  0
LINE
  8
0
 10
40.0518
 20
26.8197
 11
39.9864
 21
26.8783
  0
LINE
  8
0
 10
39.9864
 20
26.8783
 11
39.9492
 21
26.9009
  0
LINE
  8
0
 10
39.9492
 20
26.9009
 11
39.8777
 21
26.9442
  0
LINE
  8
0
 10
39.8777
 20
26.9442
 11
39.839
 21
26.9578
  0
LINE
  8
0
 10
39.839
 20
26.9578
 11
39.7632
 21
26.9844
  0
LINE
  8
0
 10
39.7632
 20
26.9844
 11
39.6459
 21
26.9979
  0
LINE
  8
0
 10
39.6459
 20
26.9979
 11
36.5
 21
26.9979
  0
LINE
  8
0
 10
36.5
 20
26.9979
 11
36.5
 21
23.3638
  0
LINE
  8
0
 10
36.5
 20
33.6052
 11
39.6459
 21
33.6052
  0
LINE
  8
0
 10
39.6459
 20
33.6052
 11
39.7413
 21
33.6129
  0
LINE
  8
0
 10
39.7413
 20
33.6129
 11
39.7632
 21
33.6147
  0
LINE
  8
0
 10
39.7632
 20
33.6147
 11
39.8575
 21
33.6379
  0
LINE
  8
0
 10
39.8575
 20
33.6379
 11
39.8777
 21
33.6429
  0
LINE
  8
0
 10
39.8777
 20
33.6429
 11
39.9692
 21
33.6817
  0
LINE
  8
0
 10
39.9692
 20
33.6817
 11
39.9864
 21
33.6891
  0
LINE
  8
0
 10
39.9864
 20
33.6891
 11
40.0734
 21
33.7438
  0
LINE
  8
0
 10
40.0734
 20
33.7438
 11
40.0868
 21
33.7521
  0
LINE
  8
0
 10
40.0868
 20
33.7521
 11
40.1672
 21
33.8226
  0
LINE
  8
0
 10
40.1672
 20
33.8226
 11
40.1762
 21
33.8305
  0
LINE
  8
0
 10
40.1762
 20
33.8305
 11
40.2476
 21
33.9163
  0
LINE
  8
0
 10
40.2476
 20
33.9163
 11
40.2527
 21
33.9224
  0
LINE
  8
0
 10
40.2527
 20
33.9224
 11
40.3125
 21
34.0224
  0
LINE
  8
0
 10
40.3125
 20
34.0224
 11
40.3142
 21
34.0253
  0
LINE
  8
0
 10
40.3142
 20
34.0253
 11
40.3463
 21
34.1049
  0
LINE
  8
0
 10
40.3463
 20
34.1049
 11
40.3592
 21
34.136
  0
LINE
  8
0
 10
40.3592
 20
34.136
 11
40.3595
 21
34.1371
  0
LINE
  8
0
 10
40.3595
 20
34.1371
 11
40.3867
 21
34.2504
  0
LINE
  8
0
 10
40.3867
 20
34.2504
 11
40.3871
 21
34.2555
  0
LINE
  8
0
 10
40.3871
 20
34.2555
 11
40.3959
 21
34.3676
  0
LINE
  8
0
 10
40.3959
 20
34.3676
 11
40.3959
 21
40
  0
LINE
  8
0
 10
40.3959
 20
40
 11
41.8959
 21
41.5
  0
LINE
  8
0
 10
41.8959
 20
41.5
 11
47
 21
41.5
  0
LINE
  8
0
 10
47
 20
41.5
 11
47.5
 21
42
  0
LINE
  8
0
 10
47.5
 20
42
 11
47.5
 21
45.5
  0
LINE
  8
0
 10
47.5
 20
45.5
 11
36.5
 21
45.5
  0
LINE
  8
0
 10
36.5
 20
45.5
 11
36.5
 21
33.6052
  0
ENDSEC
  0
SECTION
  2
OBJECTS
  0
DICTIONARY
  0
ENDSEC
  0
EOF
