  0
SECTION
  2
BLOCKS
  0
ENDSEC
  0
SECTION
  2
ENTITIES
  0
LINE
  8
0
 10
0
 20
0
 11
11
 21
0
  0
LINE
  8
0
 10
11
 20
0
 11
11
 21
15.4071
  0
LINE
  8
0
 10
11
 20
15.4071
 11
7.85409
 21
15.4071
  0
LINE
  8
0
 10
7.85409
 20
15.4071
 11
7.73676
 21
15.3936
  0
LINE
  8
0
 10
7.73676
 20
15.3936
 11
7.63517
 21
15.3579
  0
LINE
  8
0
 10
7.63517
 20
15.3579
 11
7.62232
 21
15.3534
  0
LINE
  8
0
 10
7.62232
 20
15.3534
 11
7.52555
 21
15.2947
  0
LINE
  8
0
 10
7.52555
 20
15.2947
 11
7.51359
 21
15.2875
  0
LINE
  8
0
 10
7.51359
 20
15.2875
 11
7.42396
 21
15.2071
  0
LINE
  8
0
 10
7.42396
 20
15.2071
 11
7.41325
 21
15.1975
  0
LINE
  8
0
 10
7.41325
 20
15.1975
 11
7.33295
 21
15.0972
  0
LINE
  8
0
 10
7.33295
 20
15.0972
 11
7.32376
 21
15.0857
  0
LINE
  8
0
 10
7.32376
 20
15.0857
 11
7.25482
 21
14.9676
  0
LINE
  8
0
 10
7.25482
 20
14.9676
 11
7.24732
 21
14.9547
  0
LINE
  8
0
 10
7.24732
 20
14.9547
 11
7.19153
 21
14.8215
  0
LINE
  8
0
 10
7.19153
 20
14.8215
 11
7.18583
 21
14.8079
  0
LINE
  8
0
 10
7.18583
 20
14.8079
 11
7.14471
 21
14.6627
  0
LINE
  8
0
 10
7.14471
 20
14.6627
 11
7.14079
 21
14.6488
  0
LINE
  8
0
 10
7.14079
 20
14.6488
 11
7.11554
 21
14.4949
  0
LINE
  8
0
 10
7.11554
 20
14.4949
 11
7.11332
 21
14.4814
  0
LINE
  8
0
 10
7.11332
 20
14.4814
 11
7.10478
 21
14.3225
  0
LINE
  8
0
 10
7.10478
 20
14.3225
 11
7.10409
 21
14.3097
  0
LINE
  8
0
 10
7.10409
 20
14.3097
 11
7.10409
 21
5.5
  0
LINE
  8
0
 10
7.10409
 20
5.5
 11
5.60409
 21
4
  0
LINE
  8
0
 10
5.60409
 20
4
 11
0.499999
 21
4
  0
LINE
  8
0
 10
0.499999
 20
4
 11
0
 21
3.5
  0
LINE
  8
0
 10
0
 20
3.5
 11
0
 21
0
  0
LINE
  8
0
 10
0
 20
42
 11
0.499999
 21
41.5
  0
LINE
  8
0
 10
0.499999
 20
41.5
 11
5.60409
 21
41.5
  0
LINE
  8
0
 10
5.60409
 20
41.5
 11
7.10409
 21
40
  0
LINE
  8
0
 10
7.10409
 20
40
 11
7.10409
 21
34.2211
  0
LINE
  8
0
 10
7.10409
 20
34.2211
 11
7.11202
 21
34.1118
  0
LINE
  8
0
 10
7.11202
 20
34.1118
 11
7.11332
 21
34.0939
  0
LINE
  8
0
 10
7.11332
 20
34.0939
 11
7.13484
 21
33.9967
  0
LINE
  8
0
 10
7.13484
 20
33.9967
 11
7.14079
 21
33.9698
  0
LINE
  8
0
 10
7.14079
 20
33.9698
 11
7.17255
 21
33.8867
  0
LINE
  8
0
 10
7.17255
 20
33.8867
 11
7.18583
 21
33.8519
  0
LINE
  8
0
 10
7.18583
 20
33.8519
 11
7.22432
 21
33.7838
  0
LINE
  8
0
 10
7.22432
 20
33.7838
 11
7.24732
 21
33.7431
  0
LINE
  8
0
 10
7.24732
 20
33.7431
 11
7.28923
 21
33.6899
  0
LINE
  8
0
 10
7.28923
 20
33.6899
 11
7.32376
 21
33.6461
  0
LINE
  8
0
 10
7.32376
 20
33.6461
 11
7.36622
 21
33.6068
  0
LINE
  8
0
 10
7.36622
 20
33.6068
 11
7.41325
 21
33.5632
  0
LINE
  8
0
 10
7.41325
 20
33.5632
 11
7.45417
 21
33.536
  0
LINE
  8
0
 10
7.45417
 20
33.536
 11
7.51359
 21
33.4965
  0
LINE
  8
0
 10
7.51359
 20
33.4965
 11
7.55181
 21
33.4794
  0
LINE
  8
0
 10
7.55181
 20
33.4794
 11
7.62232
 21
33.4477
  0
LINE
  8
0
 10
7.62232
 20
33.4477
 11
7.65769
 21
33.4385
  0
LINE
  8
0
 10
7.65769
 20
33.4385
 11
7.73676
 21
33.4179
  0
LINE
  8
0
 10
7.73676
 20
33.4179
 11
7.77002
 21
33.4151
  0
LINE
  8
0
 10
7.77002
 20
33.4151
 11
7.85409
 21
33.4079
  0
LINE
  8
0
 10
7.85409
 20
33.4079
 11
11
 21
33.4079
  0
LINE
  8
0
 10
11
 20
33.4079
 11
11
 21
45.5
  0
LINE
  8
0
 10
11
 20
45.5
 11
0
 21
45.5
  0
LINE
  8
0
 10
0
 20
45.5
 11
0
 21
42
  0
LINE
  8
0
 10
7.10409
 20
23.8203
 11
7.10947
 21
23.7203
  0
LINE
  8
0
 10
7.10947
 20
23.7203
 11
7.11332
 21
23.6486
  0
LINE
  8
0
 10
7.11332
 20
23.6486
 11
7.12949
 21
23.5501
  0
LINE
  8
0
 10
7.12949
 20
23.5501
 11
7.14079
 21
23.4812
  0
LINE
  8
0
 10
7.14079
 20
23.4812
 11
7.16758
 21
23.3866
  0
LINE
  8
0
 10
7.16758
 20
23.3866
 11
7.18583
 21
23.3221
  0
LINE
  8
0
 10
7.18583
 20
23.3221
 11
7.22274
 21
23.234
  0
LINE
  8
0
 10
7.22274
 20
23.234
 11
7.24732
 21
23.1753
  0
LINE
  8
0
 10
7.24732
 20
23.1753
 11
7.29359
 21
23.096
  0
LINE
  8
0
 10
7.29359
 20
23.096
 11
7.32376
 21
23.0444
  0
LINE
  8
0
 10
7.32376
 20
23.0444
 11
7.41325
 21
22.9325
  0
LINE
  8
0
 10
7.41325
 20
22.9325
 11
7.51359
 21
22.8425
  0
LINE
  8
0
 10
7.51359
 20
22.8425
 11
7.58057
 21
22.802
  0
LINE
  8
0
 10
7.58057
 20
22.802
 11
7.62232
 21
22.7766
  0
LINE
  8
0
 10
7.62232
 20
22.7766
 11
7.69303
 21
22.7518
  0
LINE
  8
0
 10
7.69303
 20
22.7518
 11
7.73676
 21
22.7364
  0
LINE
  8
0
 10
7.73676
 20
22.7364
 11
7.85409
 21
22.7229
  0
LINE
  8
0
 10
7.85409
 20
22.7229
 11
11
 21
22.7229
  0
LINE
  8
0
 10
11
 20
22.7229
 11
11
 21
26.3571
  0
LINE
  8
0
 10
11
 20
26.3571
 11
7.85409
 21
26.3571
  0
LINE
  8
0
 10
7.85409
 20
26.3571
 11
7.73676
 21
26.3436
  0
LINE
  8
0
 10
7.73676
 20
26.3436
 11
7.68808
 21
26.3265
  0
LINE
  8
0
 10
7.68808
 20
26.3265
 11
7.62232
 21
26.3034
  0
LINE
  8
0
 10
7.62232
 20
26.3034
 11
7.57567
 21
26.2751
  0
LINE
  8
0
 10
7.57567
 20
26.2751
 11
7.51359
 21
26.2375
  0
LINE
  8
0
 10
7.51359
 20
26.2375
 11
7.46997
 21
26.1984
  0
LINE
  8
0
 10
7.46997
 20
26.1984
 11
7.41325
 21
26.1475
  0
LINE
  8
0
 10
7.41325
 20
26.1475
 11
7.32376
 21
26.0357
  0
LINE
  8
0
 10
7.32376
 20
26.0357
 11
7.24732
 21
25.9047
  0
LINE
  8
0
 10
7.24732
 20
25.9047
 11
7.21897
 21
25.837
  0
LINE
  8
0
 10
7.21897
 20
25.837
 11
7.18583
 21
25.7579
  0
LINE
  8
0
 10
7.18583
 20
25.7579
 11
7.14079
 21
25.5988
  0
LINE
  8
0
 10
7.14079
 20
25.5988
 11
7.12749
 21
25.5177
  0
LINE
  8
0
 10
7.12749
 20
25.5177
 11
7.11332
 21
25.4314
  0
LINE
  8
0
 10
7.11332
 20
25.4314
 11
7.10873
 21
25.3461
  0
LINE
  8
0
 10
7.10873
 20
25.3461
 11
7.10409
 21
25.2597
  0
LINE
  8
0
 10
7.10409
 20
25.2597
 11
7.10409
 21
23.8203
  0
LINE
  8
0
 10
36.5
 20
0
 11
47.5
 21
0
  0
LINE
  8
0
 10
47.5
 20
0
 11
47.5
 21
3.5
  0
LINE
  8
0
 10
47.5
 20
3.5
 11
47
 21
4
  0
LINE
  8
0
 10
47
 20
4
 11
41.8959
 21
4
  0
LINE
  8
0
 10
41.8959
 20
4
 11
40.3959
 21
5.5
  0
LINE
  8
0
 10
40.3959
 20
5.5
 11
40.3959
 21
14.3097
  0
LINE
  8
0
 10
40.3959
 20
14.3097
 11
40.3874
 21
14.4677
  0
LINE
  8
0
 10
40.3874
 20
14.4677
 11
40.3867
 21
14.4814
  0
LINE
  8
0
 10
40.3867
 20
14.4814
 11
40.3616
 21
14.6344
  0
LINE
  8
0
 10
40.3616
 20
14.6344
 11
40.3592
 21
14.6488
  0
LINE
  8
0
 10
40.3592
 20
14.6488
 11
40.3183
 21
14.7933
  0
LINE
  8
0
 10
40.3183
 20
14.7933
 11
40.3142
 21
14.8079
  0
LINE
  8
0
 10
40.3142
 20
14.8079
 11
40.2586
 21
14.9405
  0
LINE
  8
0
 10
40.2586
 20
14.9405
 11
40.2527
 21
14.9547
  0
LINE
  8
0
 10
40.2527
 20
14.9547
 11
40.184
 21
15.0723
  0
LINE
  8
0
 10
40.184
 20
15.0723
 11
40.1762
 21
15.0857
  0
LINE
  8
0
 10
40.1762
 20
15.0857
 11
40.0962
 21
15.1857
  0
LINE
  8
0
 10
40.0962
 20
15.1857
 11
40.0868
 21
15.1975
  0
LINE
  8
0
 10
40.0868
 20
15.1975
 11
39.9974
 21
15.2776
  0
LINE
  8
0
 10
39.9974
 20
15.2776
 11
39.9864
 21
15.2875
  0
LINE
  8
0
 10
39.9864
 20
15.2875
 11
39.8898
 21
15.346
  0
LINE
  8
0
 10
39.8898
 20
15.346
 11
39.8777
 21
15.3534
  0
LINE
  8
0
 10
39.8777
 20
15.3534
 11
39.7762
 21
15.389
  0
LINE
  8
0
 10
39.7762
 20
15.389
 11
39.7632
 21
15.3936
  0
LINE
  8
0
 10
39.7632
 20
15.3936
 11
39.6459
 21
15.4071
  0
LINE
  8
0
 10
39.6459
 20
15.4071
 11
36.5
 21
15.4071
  0
LINE
  8
0
 10
36.5
 20
15.4071
 11
36.5
 21
0
  0
LINE
  8
0
 10
36.5
 20
22.7229
 11
39.6459
 21
22.7229
  0
LINE
  8
0
 10
39.6459
 20
22.7229
 11
39.7632
 21
22.7364
  0
LINE
  8
0
 10
39.7632
 20
22.7364
 11
39.8339
 21
22.7613
  0
LINE
  8
0
 10
39.8339
 20
22.7613
 11
39.8777
 21
22.7766
  0
LINE
  8
0
 10
39.8777
 20
22.7766
 11
39.9446
 21
22.8172
  0
LINE
  8
0
 10
39.9446
 20
22.8172
 11
39.9864
 21
22.8425
  0
LINE
  8
0
 10
39.9864
 20
22.8425
 11
40.0868
 21
22.9325
  0
LINE
  8
0
 10
40.0868
 20
22.9325
 11
40.1762
 21
23.0444
  0
LINE
  8
0
 10
40.1762
 20
23.0444
 11
40.2224
 21
23.1235
  0
LINE
  8
0
 10
40.2224
 20
23.1235
 11
40.2527
 21
23.1753
  0
LINE
  8
0
 10
40.2527
 20
23.1753
 11
40.2895
 21
23.2633
  0
LINE
  8
0
 10
40.2895
 20
23.2633
 11
40.3142
 21
23.3221
  0
LINE
  8
0
 10
40.3142
 20
23.3221
 11
40.3409
 21
23.4165
  0
LINE
  8
0
 10
40.3409
 20
23.4165
 11
40.3592
 21
23.4812
  0
LINE
  8
0
 10
40.3592
 20
23.4812
 11
40.3753
 21
23.5796
  0
LINE
  8
0
 10
40.3753
 20
23.5796
 11
40.3867
 21
23.6486
  0
LINE
  8
0
 10
40.3867
 20
23.6486
 11
40.392
 21
23.7485
  0
LINE
  8
0
 10
40.392
 20
23.7485
 11
40.3959
 21
23.8203
  0
LINE
  8
0
 10
40.3959
 20
23.8203
 11
40.3959
 21
25.2597
  0
LINE
  8
0
 10
40.3959
 20
25.2597
 11
40.3913
 21
25.345
  0
LINE
  8
0
 10
40.3913
 20
25.345
 11
40.3867
 21
25.4314
  0
LINE
  8
0
 10
40.3867
 20
25.4314
 11
40.3734
 21
25.5125
  0
LINE
  8
0
 10
40.3734
 20
25.5125
 11
40.3592
 21
25.5988
  0
LINE
  8
0
 10
40.3592
 20
25.5988
 11
40.3142
 21
25.7579
  0
LINE
  8
0
 10
40.3142
 20
25.7579
 11
40.2858
 21
25.8257
  0
LINE
  8
0
 10
40.2858
 20
25.8257
 11
40.2527
 21
25.9047
  0
LINE
  8
0
 10
40.2527
 20
25.9047
 11
40.1762
 21
26.0357
  0
LINE
  8
0
 10
40.1762
 20
26.0357
 11
40.0868
 21
26.1475
  0
LINE
  8
0
 10
40.0868
 20
26.1475
 11
40.043
 21
26.1867
  0
LINE
  8
0
 10
40.043
 20
26.1867
 11
39.9864
 21
26.2375
  0
LINE
  8
0
 10
39.9864
 20
26.2375
 11
39.9397
 21
26.2658
  0
LINE
  8
0
 10
39.9397
 20
26.2658
 11
39.8777
 21
26.3034
  0
LINE
  8
0
 10
39.8777
 20
26.3034
 11
39.8289
 21
26.3205
  0
LINE
  8
0
 10
39.8289
 20
26.3205
 11
39.7632
 21
26.3436
  0
LINE
  8
0
 10
39.7632
 20
26.3436
 11
39.6459
 21
26.3571
  0
LINE
  8
0
 10
39.6459
 20
26.3571
 11
36.5
 21
26.3571
  0
LINE
  8
0
 10
36.5
 20
26.3571
 11
36.5
 21
22.7229
  0
LINE
  8
0
 10
36.5
 20
33.4079
 11
39.6459
 21
33.4079
  0
LINE
  8
0
 10
39.6459
 20
33.4079
 11
39.6785
 21
33.4107
  0
LINE
  8
0
 10
39.6785
 20
33.4107
 11
39.7632
 21
33.4179
  0
LINE
  8
0
 10
39.7632
 20
33.4179
 11
39.7967
 21
33.4266
  0
LINE
  8
0
 10
39.7967
 20
33.4266
 11
39.8777
 21
33.4477
  0
LINE
  8
0
 10
39.8777
 20
33.4477
 11
39.9134
 21
33.4637
  0
LINE
  8
0
 10
39.9134
 20
33.4637
 11
39.9864
 21
33.4965
  0
LINE
  8
0
 10
39.9864
 20
33.4965
 11
40.0249
 21
33.5221
  0
LINE
  8
0
 10
40.0249
 20
33.5221
 11
40.0868
 21
33.5632
  0
LINE
  8
0
 10
40.0868
 20
33.5632
 11
40.1275
 21
33.6009
  0
LINE
  8
0
 10
40.1275
 20
33.6009
 11
40.1762
 21
33.6461
  0
LINE
  8
0
 10
40.1762
 20
33.6461
 11
40.2175
 21
33.6984
  0
LINE
  8
0
 10
40.2175
 20
33.6984
 11
40.2527
 21
33.7431
  0
LINE
  8
0
 10
40.2527
 20
33.7431
 11
40.2915
 21
33.8119
  0
LINE
  8
0
 10
40.2915
 20
33.8119
 11
40.3142
 21
33.8519
  0
LINE
  8
0
 10
40.3142
 20
33.8519
 11
40.3469
 21
33.9377
  0
LINE
  8
0
 10
40.3469
 20
33.9377
 11
40.3592
 21
33.9698
  0
LINE
  8
0
 10
40.3592
 20
33.9698
 11
40.3818
 21
34.072
  0
LINE
  8
0
 10
40.3818
 20
34.072
 11
40.3867
 21
34.0939
  0
LINE
  8
0
 10
40.3867
 20
34.0939
 11
40.3951
 21
34.2102
  0
LINE
  8
0
 10
40.3951
 20
34.2102
 11
40.3959
 21
34.2211
  0
LINE
  8
0
 10
40.3959
 20
34.2211
 11
40.3959
 21
40
  0
LINE
  8
0
 10
40.3959
 20
40
 11
41.8959
 21
41.5
  0
LINE
  8
0
 10
41.8959
 20
41.5
 11
47
 21
41.5
  0
LINE
  8
0
 10
47
 20
41.5
 11
47.5
 21
42
  0
LINE
  8
0
 10
47.5
 20
42
 11
47.5
 21
45.5
  0
LINE
  8
0
 10
47.5
 20
45.5
 11
36.5
 21
45.5
  0
LINE
  8
0
 10
36.5
 20
45.5
 11
36.5
 21
33.4079
  0
ENDSEC
  0
SECTION
  2
OBJECTS
  0
DICTIONARY
  0
ENDSEC
  0
EOF
