  0
SECTION
  2
BLOCKS
  0
ENDSEC
  0
SECTION
  2
ENTITIES
  0
LINE
  8
0
 10
0
 20
0
 11
11
 21
0
  0
LINE
  8
0
 10
11
 20
0
 11
11
 21
15.1935
  0
LINE
  8
0
 10
11
 20
15.1935
 11
7.85409
 21
15.1935
  0
LINE
  8
0
 10
7.85409
 20
15.1935
 11
7.73676
 21
15.18
  0
LINE
  8
0
 10
7.73676
 20
15.18
 11
7.6335
 21
15.1437
  0
LINE
  8
0
 10
7.6335
 20
15.1437
 11
7.62232
 21
15.1398
  0
LINE
  8
0
 10
7.62232
 20
15.1398
 11
7.52396
 21
15.0801
  0
LINE
  8
0
 10
7.52396
 20
15.0801
 11
7.51359
 21
15.0739
  0
LINE
  8
0
 10
7.51359
 20
15.0739
 11
7.42249
 21
14.9922
  0
LINE
  8
0
 10
7.42249
 20
14.9922
 11
7.41325
 21
14.9839
  0
LINE
  8
0
 10
7.41325
 20
14.9839
 11
7.33164
 21
14.8819
  0
LINE
  8
0
 10
7.33164
 20
14.8819
 11
7.32376
 21
14.8721
  0
LINE
  8
0
 10
7.32376
 20
14.8721
 11
7.2537
 21
14.752
  0
LINE
  8
0
 10
7.2537
 20
14.752
 11
7.24732
 21
14.7411
  0
LINE
  8
0
 10
7.24732
 20
14.7411
 11
7.19063
 21
14.6057
  0
LINE
  8
0
 10
7.19063
 20
14.6057
 11
7.18583
 21
14.5943
  0
LINE
  8
0
 10
7.18583
 20
14.5943
 11
7.14405
 21
14.4467
  0
LINE
  8
0
 10
7.14405
 20
14.4467
 11
7.14079
 21
14.4352
  0
LINE
  8
0
 10
7.14079
 20
14.4352
 11
7.11514
 21
14.2788
  0
LINE
  8
0
 10
7.11514
 20
14.2788
 11
7.11332
 21
14.2678
  0
LINE
  8
0
 10
7.11332
 20
14.2678
 11
7.10464
 21
14.1064
  0
LINE
  8
0
 10
7.10464
 20
14.1064
 11
7.10409
 21
14.0961
  0
LINE
  8
0
 10
7.10409
 20
14.0961
 11
7.10409
 21
5.5
  0
LINE
  8
0
 10
7.10409
 20
5.5
 11
5.60409
 21
4
  0
LINE
  8
0
 10
5.60409
 20
4
 11
0.499999
 21
4
  0
LINE
  8
0
 10
0.499999
 20
4
 11
0
 21
3.5
  0
LINE
  8
0
 10
0
 20
3.5
 11
0
 21
0
  0
LINE
  8
0
 10
0
 20
42
 11
0.499999
 21
41.5
  0
LINE
  8
0
 10
0.499999
 20
41.5
 11
5.60409
 21
41.5
  0
LINE
  8
0
 10
5.60409
 20
41.5
 11
7.10409
 21
40
  0
LINE
  8
0
 10
7.10409
 20
40
 11
7.10409
 21
34.1354
  0
LINE
  8
0
 10
7.10409
 20
34.1354
 11
7.10854
 21
34.074
  0
LINE
  8
0
 10
7.10854
 20
34.074
 11
7.11332
 21
34.0082
  0
LINE
  8
0
 10
7.11332
 20
34.0082
 11
7.12411
 21
33.9595
  0
LINE
  8
0
 10
7.12411
 20
33.9595
 11
7.14079
 21
33.8841
  0
LINE
  8
0
 10
7.14079
 20
33.8841
 11
7.15426
 21
33.8488
  0
LINE
  8
0
 10
7.15426
 20
33.8488
 11
7.18583
 21
33.7662
  0
LINE
  8
0
 10
7.18583
 20
33.7662
 11
7.19834
 21
33.7441
  0
LINE
  8
0
 10
7.19834
 20
33.7441
 11
7.24732
 21
33.6574
  0
LINE
  8
0
 10
7.24732
 20
33.6574
 11
7.25562
 21
33.6469
  0
LINE
  8
0
 10
7.25562
 20
33.6469
 11
7.32376
 21
33.5604
  0
LINE
  8
0
 10
7.32376
 20
33.5604
 11
7.32527
 21
33.559
  0
LINE
  8
0
 10
7.32527
 20
33.559
 11
7.34225
 21
33.5432
  0
LINE
  8
0
 10
7.34225
 20
33.5432
 11
7.40711
 21
33.4777
  0
LINE
  8
0
 10
7.40711
 20
33.4777
 11
7.41325
 21
33.4715
  0
LINE
  8
0
 10
7.41325
 20
33.4715
 11
7.4991
 21
33.4092
  0
LINE
  8
0
 10
7.4991
 20
33.4092
 11
7.51359
 21
33.3986
  0
LINE
  8
0
 10
7.51359
 20
33.3986
 11
7.59991
 21
33.3563
  0
LINE
  8
0
 10
7.59991
 20
33.3563
 11
7.62232
 21
33.3453
  0
LINE
  8
0
 10
7.62232
 20
33.3453
 11
7.70821
 21
33.3209
  0
LINE
  8
0
 10
7.70821
 20
33.3209
 11
7.73676
 21
33.3128
  0
LINE
  8
0
 10
7.73676
 20
33.3128
 11
7.82235
 21
33.3048
  0
LINE
  8
0
 10
7.82235
 20
33.3048
 11
7.85409
 21
33.3019
  0
LINE
  8
0
 10
7.85409
 20
33.3019
 11
11
 21
33.3019
  0
LINE
  8
0
 10
11
 20
33.3019
 11
11
 21
45.5
  0
LINE
  8
0
 10
11
 20
45.5
 11
0
 21
45.5
  0
LINE
  8
0
 10
0
 20
45.5
 11
0
 21
42
  0
LINE
  8
0
 10
7.10409
 20
23.6067
 11
7.1096
 21
23.5042
  0
LINE
  8
0
 10
7.1096
 20
23.5042
 11
7.11332
 21
23.435
  0
LINE
  8
0
 10
7.11332
 20
23.435
 11
7.1299
 21
23.334
  0
LINE
  8
0
 10
7.1299
 20
23.334
 11
7.14079
 21
23.2676
  0
LINE
  8
0
 10
7.14079
 20
23.2676
 11
7.16824
 21
23.1706
  0
LINE
  8
0
 10
7.16824
 20
23.1706
 11
7.18583
 21
23.1085
  0
LINE
  8
0
 10
7.18583
 20
23.1085
 11
7.22365
 21
23.0182
  0
LINE
  8
0
 10
7.22365
 20
23.0182
 11
7.24732
 21
22.9617
  0
LINE
  8
0
 10
7.24732
 20
22.9617
 11
7.29471
 21
22.8805
  0
LINE
  8
0
 10
7.29471
 20
22.8805
 11
7.32376
 21
22.8307
  0
LINE
  8
0
 10
7.32376
 20
22.8307
 11
7.41325
 21
22.7189
  0
LINE
  8
0
 10
7.41325
 20
22.7189
 11
7.51359
 21
22.6289
  0
LINE
  8
0
 10
7.51359
 20
22.6289
 11
7.58217
 21
22.5874
  0
LINE
  8
0
 10
7.58217
 20
22.5874
 11
7.62232
 21
22.563
  0
LINE
  8
0
 10
7.62232
 20
22.563
 11
7.6947
 21
22.5376
  0
LINE
  8
0
 10
7.6947
 20
22.5376
 11
7.73676
 21
22.5228
  0
LINE
  8
0
 10
7.73676
 20
22.5228
 11
7.85409
 21
22.5093
  0
LINE
  8
0
 10
7.85409
 20
22.5093
 11
11
 21
22.5093
  0
LINE
  8
0
 10
11
 20
22.5093
 11
11
 21
26.1435
  0
LINE
  8
0
 10
11
 20
26.1435
 11
7.85409
 21
26.1435
  0
LINE
  8
0
 10
7.85409
 20
26.1435
 11
7.73676
 21
26.1299
  0
LINE
  8
0
 10
7.73676
 20
26.1299
 11
7.68473
 21
26.1117
  0
LINE
  8
0
 10
7.68473
 20
26.1117
 11
7.62232
 21
26.0897
  0
LINE
  8
0
 10
7.62232
 20
26.0897
 11
7.57247
 21
26.0595
  0
LINE
  8
0
 10
7.57247
 20
26.0595
 11
7.51359
 21
26.0238
  0
LINE
  8
0
 10
7.51359
 20
26.0238
 11
7.46702
 21
25.9821
  0
LINE
  8
0
 10
7.46702
 20
25.9821
 11
7.41325
 21
25.9339
  0
LINE
  8
0
 10
7.41325
 20
25.9339
 11
7.32376
 21
25.822
  0
LINE
  8
0
 10
7.32376
 20
25.822
 11
7.24732
 21
25.6911
  0
LINE
  8
0
 10
7.24732
 20
25.6911
 11
7.21715
 21
25.6191
  0
LINE
  8
0
 10
7.21715
 20
25.6191
 11
7.18583
 21
25.5443
  0
LINE
  8
0
 10
7.18583
 20
25.5443
 11
7.14079
 21
25.3852
  0
LINE
  8
0
 10
7.14079
 20
25.3852
 11
7.12667
 21
25.2991
  0
LINE
  8
0
 10
7.12667
 20
25.2991
 11
7.11332
 21
25.2177
  0
LINE
  8
0
 10
7.11332
 20
25.2177
 11
7.10846
 21
25.1274
  0
LINE
  8
0
 10
7.10846
 20
25.1274
 11
7.10409
 21
25.0461
  0
LINE
  8
0
 10
7.10409
 20
25.0461
 11
7.10409
 21
23.6067
  0
LINE
  8
0
 10
36.5
 20
0
 11
47.5
 21
0
  0
LINE
  8
0
 10
47.5
 20
0
 11
47.5
 21
3.5
  0
LINE
  8
0
 10
47.5
 20
3.5
 11
47
 21
4
  0
LINE
  8
0
 10
47
 20
4
 11
41.8959
 21
4
  0
LINE
  8
0
 10
41.8959
 20
4
 11
40.3959
 21
5.5
  0
LINE
  8
0
 10
40.3959
 20
5.5
 11
40.3959
 21
14.0961
  0
LINE
  8
0
 10
40.3959
 20
14.0961
 11
40.3873
 21
14.2566
  0
LINE
  8
0
 10
40.3873
 20
14.2566
 11
40.3867
 21
14.2678
  0
LINE
  8
0
 10
40.3867
 20
14.2678
 11
40.3612
 21
14.4233
  0
LINE
  8
0
 10
40.3612
 20
14.4233
 11
40.3592
 21
14.4352
  0
LINE
  8
0
 10
40.3592
 20
14.4352
 11
40.3176
 21
14.582
  0
LINE
  8
0
 10
40.3176
 20
14.582
 11
40.3142
 21
14.5943
  0
LINE
  8
0
 10
40.3142
 20
14.5943
 11
40.2577
 21
14.729
  0
LINE
  8
0
 10
40.2577
 20
14.729
 11
40.2527
 21
14.7411
  0
LINE
  8
0
 10
40.2527
 20
14.7411
 11
40.1829
 21
14.8606
  0
LINE
  8
0
 10
40.1829
 20
14.8606
 11
40.1762
 21
14.8721
  0
LINE
  8
0
 10
40.1762
 20
14.8721
 11
40.0949
 21
14.9737
  0
LINE
  8
0
 10
40.0949
 20
14.9737
 11
40.0868
 21
14.9839
  0
LINE
  8
0
 10
40.0868
 20
14.9839
 11
39.9959
 21
15.0653
  0
LINE
  8
0
 10
39.9959
 20
15.0653
 11
39.9864
 21
15.0739
  0
LINE
  8
0
 10
39.9864
 20
15.0739
 11
39.8882
 21
15.1334
  0
LINE
  8
0
 10
39.8882
 20
15.1334
 11
39.8777
 21
15.1398
  0
LINE
  8
0
 10
39.8777
 20
15.1398
 11
39.7745
 21
15.176
  0
LINE
  8
0
 10
39.7745
 20
15.176
 11
39.7632
 21
15.18
  0
LINE
  8
0
 10
39.7632
 20
15.18
 11
39.6459
 21
15.1935
  0
LINE
  8
0
 10
39.6459
 20
15.1935
 11
36.5
 21
15.1935
  0
LINE
  8
0
 10
36.5
 20
15.1935
 11
36.5
 21
0
  0
LINE
  8
0
 10
36.5
 20
22.5093
 11
39.6459
 21
22.5093
  0
LINE
  8
0
 10
39.6459
 20
22.5093
 11
39.7632
 21
22.5228
  0
LINE
  8
0
 10
39.7632
 20
22.5228
 11
39.8356
 21
22.5482
  0
LINE
  8
0
 10
39.8356
 20
22.5482
 11
39.8777
 21
22.563
  0
LINE
  8
0
 10
39.8777
 20
22.563
 11
39.9462
 21
22.6045
  0
LINE
  8
0
 10
39.9462
 20
22.6045
 11
39.9864
 21
22.6289
  0
LINE
  8
0
 10
39.9864
 20
22.6289
 11
40.0868
 21
22.7189
  0
LINE
  8
0
 10
40.0868
 20
22.7189
 11
40.1762
 21
22.8307
  0
LINE
  8
0
 10
40.1762
 20
22.8307
 11
40.2235
 21
22.9118
  0
LINE
  8
0
 10
40.2235
 20
22.9118
 11
40.2527
 21
22.9617
  0
LINE
  8
0
 10
40.2527
 20
22.9617
 11
40.2904
 21
23.0518
  0
LINE
  8
0
 10
40.2904
 20
23.0518
 11
40.3142
 21
23.1085
  0
LINE
  8
0
 10
40.3142
 20
23.1085
 11
40.3416
 21
23.2052
  0
LINE
  8
0
 10
40.3416
 20
23.2052
 11
40.3592
 21
23.2676
  0
LINE
  8
0
 10
40.3592
 20
23.2676
 11
40.3757
 21
23.3684
  0
LINE
  8
0
 10
40.3757
 20
23.3684
 11
40.3867
 21
23.435
  0
LINE
  8
0
 10
40.3867
 20
23.435
 11
40.3922
 21
23.5373
  0
LINE
  8
0
 10
40.3922
 20
23.5373
 11
40.3959
 21
23.6067
  0
LINE
  8
0
 10
40.3959
 20
23.6067
 11
40.3959
 21
25.0461
  0
LINE
  8
0
 10
40.3959
 20
25.0461
 11
40.3911
 21
25.1364
  0
LINE
  8
0
 10
40.3911
 20
25.1364
 11
40.3867
 21
25.2177
  0
LINE
  8
0
 10
40.3867
 20
25.2177
 11
40.3726
 21
25.3038
  0
LINE
  8
0
 10
40.3726
 20
25.3038
 11
40.3592
 21
25.3852
  0
LINE
  8
0
 10
40.3592
 20
25.3852
 11
40.3142
 21
25.5443
  0
LINE
  8
0
 10
40.3142
 20
25.5443
 11
40.284
 21
25.6164
  0
LINE
  8
0
 10
40.284
 20
25.6164
 11
40.2527
 21
25.6911
  0
LINE
  8
0
 10
40.2527
 20
25.6911
 11
40.1762
 21
25.822
  0
LINE
  8
0
 10
40.1762
 20
25.822
 11
40.0868
 21
25.9339
  0
LINE
  8
0
 10
40.0868
 20
25.9339
 11
40.0401
 21
25.9757
  0
LINE
  8
0
 10
40.0401
 20
25.9757
 11
39.9864
 21
26.0238
  0
LINE
  8
0
 10
39.9864
 20
26.0238
 11
39.9365
 21
26.0541
  0
LINE
  8
0
 10
39.9365
 20
26.0541
 11
39.8777
 21
26.0897
  0
LINE
  8
0
 10
39.8777
 20
26.0897
 11
39.8256
 21
26.108
  0
LINE
  8
0
 10
39.8256
 20
26.108
 11
39.7632
 21
26.1299
  0
LINE
  8
0
 10
39.7632
 20
26.1299
 11
39.6459
 21
26.1435
  0
LINE
  8
0
 10
39.6459
 20
26.1435
 11
36.5
 21
26.1435
  0
LINE
  8
0
 10
36.5
 20
26.1435
 11
36.5
 21
22.5093
  0
LINE
  8
0
 10
36.5
 20
33.3019
 11
39.6459
 21
33.3019
  0
LINE
  8
0
 10
39.6459
 20
33.3019
 11
39.7321
 21
33.3099
  0
LINE
  8
0
 10
39.7321
 20
33.3099
 11
39.7632
 21
33.3128
  0
LINE
  8
0
 10
39.7632
 20
33.3128
 11
39.851
 21
33.3377
  0
LINE
  8
0
 10
39.851
 20
33.3377
 11
39.8777
 21
33.3453
  0
LINE
  8
0
 10
39.8777
 20
33.3453
 11
39.9676
 21
33.3894
  0
LINE
  8
0
 10
39.9676
 20
33.3894
 11
39.9864
 21
33.3986
  0
LINE
  8
0
 10
39.9864
 20
33.3986
 11
40.0781
 21
33.4652
  0
LINE
  8
0
 10
40.0781
 20
33.4652
 11
40.0868
 21
33.4715
  0
LINE
  8
0
 10
40.0868
 20
33.4715
 11
40.1578
 21
33.5432
  0
LINE
  8
0
 10
40.1578
 20
33.5432
 11
40.1762
 21
33.5604
  0
LINE
  8
0
 10
40.1762
 20
33.5604
 11
40.1777
 21
33.5622
  0
LINE
  8
0
 10
40.1777
 20
33.5622
 11
40.2527
 21
33.6574
  0
LINE
  8
0
 10
40.2527
 20
33.6574
 11
40.2604
 21
33.671
  0
LINE
  8
0
 10
40.2604
 20
33.671
 11
40.3142
 21
33.7662
  0
LINE
  8
0
 10
40.3142
 20
33.7662
 11
40.3248
 21
33.7941
  0
LINE
  8
0
 10
40.3248
 20
33.7941
 11
40.3592
 21
33.8841
  0
LINE
  8
0
 10
40.3592
 20
33.8841
 11
40.3688
 21
33.9274
  0
LINE
  8
0
 10
40.3688
 20
33.9274
 11
40.3867
 21
34.0082
  0
LINE
  8
0
 10
40.3867
 20
34.0082
 11
40.3909
 21
34.0665
  0
LINE
  8
0
 10
40.3909
 20
34.0665
 11
40.3959
 21
34.1354
  0
LINE
  8
0
 10
40.3959
 20
34.1354
 11
40.3959
 21
40
  0
LINE
  8
0
 10
40.3959
 20
40
 11
41.8959
 21
41.5
  0
LINE
  8
0
 10
41.8959
 20
41.5
 11
47
 21
41.5
  0
LINE
  8
0
 10
47
 20
41.5
 11
47.5
 21
42
  0
LINE
  8
0
 10
47.5
 20
42
 11
47.5
 21
45.5
  0
LINE
  8
0
 10
47.5
 20
45.5
 11
36.5
 21
45.5
  0
LINE
  8
0
 10
36.5
 20
45.5
 11
36.5
 21
33.3019
  0
ENDSEC
  0
SECTION
  2
OBJECTS
  0
DICTIONARY
  0
ENDSEC
  0
EOF
