  0
SECTION
  2
BLOCKS
  0
ENDSEC
  0
SECTION
  2
ENTITIES
  0
LINE
  8
0
 10
0
 20
0
 11
11
 21
0
  0
LINE
  8
0
 10
11
 20
0
 11
11
 21
14.9799
  0
LINE
  8
0
 10
11
 20
14.9799
 11
7.85409
 21
14.9799
  0
LINE
  8
0
 10
7.85409
 20
14.9799
 11
7.73676
 21
14.9663
  0
LINE
  8
0
 10
7.73676
 20
14.9663
 11
7.63182
 21
14.9295
  0
LINE
  8
0
 10
7.63182
 20
14.9295
 11
7.62232
 21
14.9261
  0
LINE
  8
0
 10
7.62232
 20
14.9261
 11
7.52236
 21
14.8656
  0
LINE
  8
0
 10
7.52236
 20
14.8656
 11
7.51359
 21
14.8602
  0
LINE
  8
0
 10
7.51359
 20
14.8602
 11
7.42102
 21
14.7772
  0
LINE
  8
0
 10
7.42102
 20
14.7772
 11
7.41325
 21
14.7703
  0
LINE
  8
0
 10
7.41325
 20
14.7703
 11
7.33032
 21
14.6666
  0
LINE
  8
0
 10
7.33032
 20
14.6666
 11
7.32376
 21
14.6584
  0
LINE
  8
0
 10
7.32376
 20
14.6584
 11
7.25257
 21
14.5365
  0
LINE
  8
0
 10
7.25257
 20
14.5365
 11
7.24732
 21
14.5275
  0
LINE
  8
0
 10
7.24732
 20
14.5275
 11
7.18972
 21
14.39
  0
LINE
  8
0
 10
7.18972
 20
14.39
 11
7.18583
 21
14.3807
  0
LINE
  8
0
 10
7.18583
 20
14.3807
 11
7.14338
 21
14.2307
  0
LINE
  8
0
 10
7.14338
 20
14.2307
 11
7.14079
 21
14.2216
  0
LINE
  8
0
 10
7.14079
 20
14.2216
 11
7.11473
 21
14.0627
  0
LINE
  8
0
 10
7.11473
 20
14.0627
 11
7.11332
 21
14.0541
  0
LINE
  8
0
 10
7.11332
 20
14.0541
 11
7.1045
 21
13.8902
  0
LINE
  8
0
 10
7.1045
 20
13.8902
 11
7.10409
 21
13.8825
  0
LINE
  8
0
 10
7.10409
 20
13.8825
 11
7.10409
 21
5.5
  0
LINE
  8
0
 10
7.10409
 20
5.5
 11
5.60409
 21
4
  0
LINE
  8
0
 10
5.60409
 20
4
 11
0.499999
 21
4
  0
LINE
  8
0
 10
0.499999
 20
4
 11
0
 21
3.5
  0
LINE
  8
0
 10
0
 20
3.5
 11
0
 21
0
  0
LINE
  8
0
 10
0
 20
42
 11
0.499999
 21
41.5
  0
LINE
  8
0
 10
0.499999
 20
41.5
 11
5.60409
 21
41.5
  0
LINE
  8
0
 10
5.60409
 20
41.5
 11
7.10409
 21
40
  0
LINE
  8
0
 10
7.10409
 20
40
 11
7.10409
 21
34.0497
  0
LINE
  8
0
 10
7.10409
 20
34.0497
 11
7.10506
 21
34.0363
  0
LINE
  8
0
 10
7.10506
 20
34.0363
 11
7.11332
 21
33.9225
  0
LINE
  8
0
 10
7.11332
 20
33.9225
 11
7.11337
 21
33.9222
  0
LINE
  8
0
 10
7.11337
 20
33.9222
 11
7.11378
 21
33.9204
  0
LINE
  8
0
 10
7.11378
 20
33.9204
 11
7.13783
 21
33.8018
  0
LINE
  8
0
 10
7.13783
 20
33.8018
 11
7.14079
 21
33.7872
  0
LINE
  8
0
 10
7.14079
 20
33.7872
 11
7.17591
 21
33.6868
  0
LINE
  8
0
 10
7.17591
 20
33.6868
 11
7.18583
 21
33.6584
  0
LINE
  8
0
 10
7.18583
 20
33.6584
 11
7.2268
 21
33.5793
  0
LINE
  8
0
 10
7.2268
 20
33.5793
 11
7.24732
 21
33.5396
  0
LINE
  8
0
 10
7.24732
 20
33.5396
 11
7.28972
 21
33.4809
  0
LINE
  8
0
 10
7.28972
 20
33.4809
 11
7.32376
 21
33.4337
  0
LINE
  8
0
 10
7.32376
 20
33.4337
 11
7.36386
 21
33.3931
  0
LINE
  8
0
 10
7.36386
 20
33.3931
 11
7.41325
 21
33.3432
  0
LINE
  8
0
 10
7.41325
 20
33.3432
 11
7.44846
 21
33.3176
  0
LINE
  8
0
 10
7.44846
 20
33.3176
 11
7.51359
 21
33.2704
  0
LINE
  8
0
 10
7.51359
 20
33.2704
 11
7.54269
 21
33.2561
  0
LINE
  8
0
 10
7.54269
 20
33.2561
 11
7.62232
 21
33.217
  0
LINE
  8
0
 10
7.62232
 20
33.217
 11
7.6456
 21
33.2104
  0
LINE
  8
0
 10
7.6456
 20
33.2104
 11
7.73676
 21
33.1845
  0
LINE
  8
0
 10
7.73676
 20
33.1845
 11
7.75591
 21
33.1827
  0
LINE
  8
0
 10
7.75591
 20
33.1827
 11
7.85409
 21
33.1736
  0
LINE
  8
0
 10
7.85409
 20
33.1736
 11
11
 21
33.1736
  0
LINE
  8
0
 10
11
 20
33.1736
 11
11
 21
45.5
  0
LINE
  8
0
 10
11
 20
45.5
 11
0
 21
45.5
  0
LINE
  8
0
 10
0
 20
45.5
 11
0
 21
42
  0
LINE
  8
0
 10
7.10409
 20
23.3931
 11
7.10974
 21
23.288
  0
LINE
  8
0
 10
7.10974
 20
23.288
 11
7.11332
 21
23.2214
  0
LINE
  8
0
 10
7.11332
 20
23.2214
 11
7.1303
 21
23.1179
  0
LINE
  8
0
 10
7.1303
 20
23.1179
 11
7.14079
 21
23.054
  0
LINE
  8
0
 10
7.14079
 20
23.054
 11
7.1689
 21
22.9547
  0
LINE
  8
0
 10
7.1689
 20
22.9547
 11
7.18583
 21
22.8949
  0
LINE
  8
0
 10
7.18583
 20
22.8949
 11
7.22455
 21
22.8024
  0
LINE
  8
0
 10
7.22455
 20
22.8024
 11
7.24732
 21
22.748
  0
LINE
  8
0
 10
7.24732
 20
22.748
 11
7.29583
 21
22.6649
  0
LINE
  8
0
 10
7.29583
 20
22.6649
 11
7.32376
 21
22.6171
  0
LINE
  8
0
 10
7.32376
 20
22.6171
 11
7.41325
 21
22.5053
  0
LINE
  8
0
 10
7.41325
 20
22.5053
 11
7.51359
 21
22.4153
  0
LINE
  8
0
 10
7.51359
 20
22.4153
 11
7.58376
 21
22.3728
  0
LINE
  8
0
 10
7.58376
 20
22.3728
 11
7.62232
 21
22.3494
  0
LINE
  8
0
 10
7.62232
 20
22.3494
 11
7.69638
 21
22.3234
  0
LINE
  8
0
 10
7.69638
 20
22.3234
 11
7.73676
 21
22.3092
  0
LINE
  8
0
 10
7.73676
 20
22.3092
 11
7.85409
 21
22.2957
  0
LINE
  8
0
 10
7.85409
 20
22.2957
 11
11
 21
22.2957
  0
LINE
  8
0
 10
11
 20
22.2957
 11
11
 21
25.9298
  0
LINE
  8
0
 10
11
 20
25.9298
 11
7.85409
 21
25.9298
  0
LINE
  8
0
 10
7.85409
 20
25.9298
 11
7.73676
 21
25.9163
  0
LINE
  8
0
 10
7.73676
 20
25.9163
 11
7.68137
 21
25.8969
  0
LINE
  8
0
 10
7.68137
 20
25.8969
 11
7.62232
 21
25.8761
  0
LINE
  8
0
 10
7.62232
 20
25.8761
 11
7.56927
 21
25.844
  0
LINE
  8
0
 10
7.56927
 20
25.844
 11
7.51359
 21
25.8102
  0
LINE
  8
0
 10
7.51359
 20
25.8102
 11
7.46406
 21
25.7658
  0
LINE
  8
0
 10
7.46406
 20
25.7658
 11
7.41325
 21
25.7203
  0
LINE
  8
0
 10
7.41325
 20
25.7203
 11
7.32376
 21
25.6084
  0
LINE
  8
0
 10
7.32376
 20
25.6084
 11
7.24732
 21
25.4775
  0
LINE
  8
0
 10
7.24732
 20
25.4775
 11
7.21533
 21
25.4011
  0
LINE
  8
0
 10
7.21533
 20
25.4011
 11
7.18583
 21
25.3307
  0
LINE
  8
0
 10
7.18583
 20
25.3307
 11
7.14079
 21
25.1716
  0
LINE
  8
0
 10
7.14079
 20
25.1716
 11
7.12586
 21
25.0805
  0
LINE
  8
0
 10
7.12586
 20
25.0805
 11
7.11332
 21
25.0041
  0
LINE
  8
0
 10
7.11332
 20
25.0041
 11
7.10819
 21
24.9086
  0
LINE
  8
0
 10
7.10819
 20
24.9086
 11
7.10409
 21
24.8325
  0
LINE
  8
0
 10
7.10409
 20
24.8325
 11
7.10409
 21
23.3931
  0
LINE
  8
0
 10
36.5
 20
0
 11
47.5
 21
0
  0
LINE
  8
0
 10
47.5
 20
0
 11
47.5
 21
3.5
  0
LINE
  8
0
 10
47.5
 20
3.5
 11
47
 21
4
  0
LINE
  8
0
 10
47
 20
4
 11
41.8959
 21
4
  0
LINE
  8
0
 10
41.8959
 20
4
 11
40.3959
 21
5.5
  0
LINE
  8
0
 10
40.3959
 20
5.5
 11
40.3959
 21
13.8825
  0
LINE
  8
0
 10
40.3959
 20
13.8825
 11
40.3871
 21
14.0454
  0
LINE
  8
0
 10
40.3871
 20
14.0454
 11
40.3867
 21
14.0541
  0
LINE
  8
0
 10
40.3867
 20
14.0541
 11
40.3608
 21
14.2121
  0
LINE
  8
0
 10
40.3608
 20
14.2121
 11
40.3592
 21
14.2216
  0
LINE
  8
0
 10
40.3592
 20
14.2216
 11
40.317
 21
14.3707
  0
LINE
  8
0
 10
40.317
 20
14.3707
 11
40.3142
 21
14.3807
  0
LINE
  8
0
 10
40.3142
 20
14.3807
 11
40.2569
 21
14.5175
  0
LINE
  8
0
 10
40.2569
 20
14.5175
 11
40.2527
 21
14.5275
  0
LINE
  8
0
 10
40.2527
 20
14.5275
 11
40.1818
 21
14.6489
  0
LINE
  8
0
 10
40.1818
 20
14.6489
 11
40.1762
 21
14.6584
  0
LINE
  8
0
 10
40.1762
 20
14.6584
 11
40.0936
 21
14.7617
  0
LINE
  8
0
 10
40.0936
 20
14.7617
 11
40.0868
 21
14.7703
  0
LINE
  8
0
 10
40.0868
 20
14.7703
 11
39.9945
 21
14.853
  0
LINE
  8
0
 10
39.9945
 20
14.853
 11
39.9864
 21
14.8602
  0
LINE
  8
0
 10
39.9864
 20
14.8602
 11
39.8867
 21
14.9207
  0
LINE
  8
0
 10
39.8867
 20
14.9207
 11
39.8777
 21
14.9261
  0
LINE
  8
0
 10
39.8777
 20
14.9261
 11
39.7729
 21
14.963
  0
LINE
  8
0
 10
39.7729
 20
14.963
 11
39.7632
 21
14.9663
  0
LINE
  8
0
 10
39.7632
 20
14.9663
 11
39.6459
 21
14.9799
  0
LINE
  8
0
 10
39.6459
 20
14.9799
 11
36.5
 21
14.9799
  0
LINE
  8
0
 10
36.5
 20
14.9799
 11
36.5
 21
0
  0
LINE
  8
0
 10
36.5
 20
22.2957
 11
39.6459
 21
22.2957
  0
LINE
  8
0
 10
39.6459
 20
22.2957
 11
39.7632
 21
22.3092
  0
LINE
  8
0
 10
39.7632
 20
22.3092
 11
39.8372
 21
22.3352
  0
LINE
  8
0
 10
39.8372
 20
22.3352
 11
39.8777
 21
22.3494
  0
LINE
  8
0
 10
39.8777
 20
22.3494
 11
39.9478
 21
22.3919
  0
LINE
  8
0
 10
39.9478
 20
22.3919
 11
39.9864
 21
22.4153
  0
LINE
  8
0
 10
39.9864
 20
22.4153
 11
40.0868
 21
22.5053
  0
LINE
  8
0
 10
40.0868
 20
22.5053
 11
40.1762
 21
22.6171
  0
LINE
  8
0
 10
40.1762
 20
22.6171
 11
40.2247
 21
22.7
  0
LINE
  8
0
 10
40.2247
 20
22.7
 11
40.2527
 21
22.748
  0
LINE
  8
0
 10
40.2527
 20
22.748
 11
40.2913
 21
22.8403
  0
LINE
  8
0
 10
40.2913
 20
22.8403
 11
40.3142
 21
22.8949
  0
LINE
  8
0
 10
40.3142
 20
22.8949
 11
40.3422
 21
22.9939
  0
LINE
  8
0
 10
40.3422
 20
22.9939
 11
40.3592
 21
23.054
  0
LINE
  8
0
 10
40.3592
 20
23.054
 11
40.3761
 21
23.1572
  0
LINE
  8
0
 10
40.3761
 20
23.1572
 11
40.3867
 21
23.2214
  0
LINE
  8
0
 10
40.3867
 20
23.2214
 11
40.3923
 21
23.3262
  0
LINE
  8
0
 10
40.3923
 20
23.3262
 11
40.3959
 21
23.3931
  0
LINE
  8
0
 10
40.3959
 20
23.3931
 11
40.3959
 21
24.8325
  0
LINE
  8
0
 10
40.3959
 20
24.8325
 11
40.3908
 21
24.9277
  0
LINE
  8
0
 10
40.3908
 20
24.9277
 11
40.3867
 21
25.0041
  0
LINE
  8
0
 10
40.3867
 20
25.0041
 11
40.3718
 21
25.095
  0
LINE
  8
0
 10
40.3718
 20
25.095
 11
40.3592
 21
25.1716
  0
LINE
  8
0
 10
40.3592
 20
25.1716
 11
40.3142
 21
25.3307
  0
LINE
  8
0
 10
40.3142
 20
25.3307
 11
40.2822
 21
25.407
  0
LINE
  8
0
 10
40.2822
 20
25.407
 11
40.2527
 21
25.4775
  0
LINE
  8
0
 10
40.2527
 20
25.4775
 11
40.1762
 21
25.6084
  0
LINE
  8
0
 10
40.1762
 20
25.6084
 11
40.0868
 21
25.7203
  0
LINE
  8
0
 10
40.0868
 20
25.7203
 11
40.0372
 21
25.7647
  0
LINE
  8
0
 10
40.0372
 20
25.7647
 11
39.9864
 21
25.8102
  0
LINE
  8
0
 10
39.9864
 20
25.8102
 11
39.9333
 21
25.8424
  0
LINE
  8
0
 10
39.9333
 20
25.8424
 11
39.8777
 21
25.8761
  0
LINE
  8
0
 10
39.8777
 20
25.8761
 11
39.8223
 21
25.8956
  0
LINE
  8
0
 10
39.8223
 20
25.8956
 11
39.7632
 21
25.9163
  0
LINE
  8
0
 10
39.7632
 20
25.9163
 11
39.6459
 21
25.9298
  0
LINE
  8
0
 10
39.6459
 20
25.9298
 11
36.5
 21
25.9298
  0
LINE
  8
0
 10
36.5
 20
25.9298
 11
36.5
 21
22.2957
  0
LINE
  8
0
 10
36.5
 20
33.1736
 11
39.6459
 21
33.1736
  0
LINE
  8
0
 10
39.6459
 20
33.1736
 11
39.6637
 21
33.1752
  0
LINE
  8
0
 10
39.6637
 20
33.1752
 11
39.7632
 21
33.1845
  0
LINE
  8
0
 10
39.7632
 20
33.1845
 11
39.7829
 21
33.1901
  0
LINE
  8
0
 10
39.7829
 20
33.1901
 11
39.8777
 21
33.217
  0
LINE
  8
0
 10
39.8777
 20
33.217
 11
39.9021
 21
33.229
  0
LINE
  8
0
 10
39.9021
 20
33.229
 11
39.9864
 21
33.2704
  0
LINE
  8
0
 10
39.9864
 20
33.2704
 11
40.0173
 21
33.2928
  0
LINE
  8
0
 10
40.0173
 20
33.2928
 11
40.0868
 21
33.3432
  0
LINE
  8
0
 10
40.0868
 20
33.3432
 11
40.1243
 21
33.3811
  0
LINE
  8
0
 10
40.1243
 20
33.3811
 11
40.1762
 21
33.4337
  0
LINE
  8
0
 10
40.1762
 20
33.4337
 11
40.2184
 21
33.4921
  0
LINE
  8
0
 10
40.2184
 20
33.4921
 11
40.2527
 21
33.5396
  0
LINE
  8
0
 10
40.2527
 20
33.5396
 11
40.2956
 21
33.6226
  0
LINE
  8
0
 10
40.2956
 20
33.6226
 11
40.3142
 21
33.6584
  0
LINE
  8
0
 10
40.3142
 20
33.6584
 11
40.3525
 21
33.768
  0
LINE
  8
0
 10
40.3525
 20
33.768
 11
40.3592
 21
33.7872
  0
LINE
  8
0
 10
40.3592
 20
33.7872
 11
40.3862
 21
33.9204
  0
LINE
  8
0
 10
40.3862
 20
33.9204
 11
40.3867
 21
33.9225
  0
LINE
  8
0
 10
40.3867
 20
33.9225
 11
40.3867
 21
33.9227
  0
LINE
  8
0
 10
40.3867
 20
33.9227
 11
40.3959
 21
34.0497
  0
LINE
  8
0
 10
40.3959
 20
34.0497
 11
40.3959
 21
40
  0
LINE
  8
0
 10
40.3959
 20
40
 11
41.8959
 21
41.5
  0
LINE
  8
0
 10
41.8959
 20
41.5
 11
47
 21
41.5
  0
LINE
  8
0
 10
47
 20
41.5
 11
47.5
 21
42
  0
LINE
  8
0
 10
47.5
 20
42
 11
47.5
 21
45.5
  0
LINE
  8
0
 10
47.5
 20
45.5
 11
36.5
 21
45.5
  0
LINE
  8
0
 10
36.5
 20
45.5
 11
36.5
 21
33.1736
  0
ENDSEC
  0
SECTION
  2
OBJECTS
  0
DICTIONARY
  0
ENDSEC
  0
EOF
