  0
SECTION
  2
BLOCKS
  0
ENDSEC
  0
SECTION
  2
ENTITIES
  0
LINE
  8
0
 10
0
 20
0
 11
11
 21
0
  0
LINE
  8
0
 10
11
 20
0
 11
11
 21
14.7662
  0
LINE
  8
0
 10
11
 20
14.7662
 11
7.85409
 21
14.7662
  0
LINE
  8
0
 10
7.85409
 20
14.7662
 11
7.73676
 21
14.7527
  0
LINE
  8
0
 10
7.73676
 20
14.7527
 11
7.63014
 21
14.7153
  0
LINE
  8
0
 10
7.63014
 20
14.7153
 11
7.62232
 21
14.7125
  0
LINE
  8
0
 10
7.62232
 20
14.7125
 11
7.52077
 21
14.651
  0
LINE
  8
0
 10
7.52077
 20
14.651
 11
7.51359
 21
14.6466
  0
LINE
  8
0
 10
7.51359
 20
14.6466
 11
7.41955
 21
14.5623
  0
LINE
  8
0
 10
7.41955
 20
14.5623
 11
7.41325
 21
14.5566
  0
LINE
  8
0
 10
7.41325
 20
14.5566
 11
7.32901
 21
14.4514
  0
LINE
  8
0
 10
7.32901
 20
14.4514
 11
7.32376
 21
14.4448
  0
LINE
  8
0
 10
7.32376
 20
14.4448
 11
7.25145
 21
14.3209
  0
LINE
  8
0
 10
7.25145
 20
14.3209
 11
7.24732
 21
14.3139
  0
LINE
  8
0
 10
7.24732
 20
14.3139
 11
7.18882
 21
14.1742
  0
LINE
  8
0
 10
7.18882
 20
14.1742
 11
7.18583
 21
14.167
  0
LINE
  8
0
 10
7.18583
 20
14.167
 11
7.14272
 21
14.0148
  0
LINE
  8
0
 10
7.14272
 20
14.0148
 11
7.14079
 21
14.008
  0
LINE
  8
0
 10
7.14079
 20
14.008
 11
7.11433
 21
13.8467
  0
LINE
  8
0
 10
7.11433
 20
13.8467
 11
7.11332
 21
13.8405
  0
LINE
  8
0
 10
7.11332
 20
13.8405
 11
7.10437
 21
13.6741
  0
LINE
  8
0
 10
7.10437
 20
13.6741
 11
7.10409
 21
13.6689
  0
LINE
  8
0
 10
7.10409
 20
13.6689
 11
7.10409
 21
5.5
  0
LINE
  8
0
 10
7.10409
 20
5.5
 11
5.60409
 21
4
  0
LINE
  8
0
 10
5.60409
 20
4
 11
0.499999
 21
4
  0
LINE
  8
0
 10
0.499999
 20
4
 11
0
 21
3.5
  0
LINE
  8
0
 10
0
 20
3.5
 11
0
 21
0
  0
LINE
  8
0
 10
0
 20
42
 11
0.499999
 21
41.5
  0
LINE
  8
0
 10
0.499999
 20
41.5
 11
5.60409
 21
41.5
  0
LINE
  8
0
 10
5.60409
 20
41.5
 11
7.10409
 21
40
  0
LINE
  8
0
 10
7.10409
 20
40
 11
7.10409
 21
33.9333
  0
LINE
  8
0
 10
7.10409
 20
33.9333
 11
7.10969
 21
33.8489
  0
LINE
  8
0
 10
7.10969
 20
33.8489
 11
7.11332
 21
33.7944
  0
LINE
  8
0
 10
7.11332
 20
33.7944
 11
7.1266
 21
33.7289
  0
LINE
  8
0
 10
7.1266
 20
33.7289
 11
7.14079
 21
33.6589
  0
LINE
  8
0
 10
7.14079
 20
33.6589
 11
7.15677
 21
33.6132
  0
LINE
  8
0
 10
7.15677
 20
33.6132
 11
7.18583
 21
33.5301
  0
LINE
  8
0
 10
7.18583
 20
33.5301
 11
7.19956
 21
33.5036
  0
LINE
  8
0
 10
7.19956
 20
33.5036
 11
7.24732
 21
33.4113
  0
LINE
  8
0
 10
7.24732
 20
33.4113
 11
7.25437
 21
33.4016
  0
LINE
  8
0
 10
7.25437
 20
33.4016
 11
7.30336
 21
33.3337
  0
LINE
  8
0
 10
7.30336
 20
33.3337
 11
7.32097
 21
33.3059
  0
LINE
  8
0
 10
7.32097
 20
33.3059
 11
7.32376
 21
33.3016
  0
LINE
  8
0
 10
7.32376
 20
33.3016
 11
7.39888
 21
33.2153
  0
LINE
  8
0
 10
7.39888
 20
33.2153
 11
7.41325
 21
33.1988
  0
LINE
  8
0
 10
7.41325
 20
33.1988
 11
7.48627
 21
33.1387
  0
LINE
  8
0
 10
7.48627
 20
33.1387
 11
7.51359
 21
33.1162
  0
LINE
  8
0
 10
7.51359
 20
33.1162
 11
7.58254
 21
33.0778
  0
LINE
  8
0
 10
7.58254
 20
33.0778
 11
7.62232
 21
33.0556
  0
LINE
  8
0
 10
7.62232
 20
33.0556
 11
7.68699
 21
33.0348
  0
LINE
  8
0
 10
7.68699
 20
33.0348
 11
7.73676
 21
33.0187
  0
LINE
  8
0
 10
7.73676
 20
33.0187
 11
7.7986
 21
33.0121
  0
LINE
  8
0
 10
7.7986
 20
33.0121
 11
7.85409
 21
33.0063
  0
LINE
  8
0
 10
7.85409
 20
33.0063
 11
11
 21
33.0063
  0
LINE
  8
0
 10
11
 20
33.0063
 11
11
 21
45.5
  0
LINE
  8
0
 10
11
 20
45.5
 11
0
 21
45.5
  0
LINE
  8
0
 10
0
 20
45.5
 11
0
 21
42
  0
LINE
  8
0
 10
7.10409
 20
23.1794
 11
7.10987
 21
23.0719
  0
LINE
  8
0
 10
7.10987
 20
23.0719
 11
7.11332
 21
23.0078
  0
LINE
  8
0
 10
7.11332
 20
23.0078
 11
7.13071
 21
22.9018
  0
LINE
  8
0
 10
7.13071
 20
22.9018
 11
7.14079
 21
22.8403
  0
LINE
  8
0
 10
7.14079
 20
22.8403
 11
7.16956
 21
22.7387
  0
LINE
  8
0
 10
7.16956
 20
22.7387
 11
7.18583
 21
22.6812
  0
LINE
  8
0
 10
7.18583
 20
22.6812
 11
7.22546
 21
22.5866
  0
LINE
  8
0
 10
7.22546
 20
22.5866
 11
7.24732
 21
22.5344
  0
LINE
  8
0
 10
7.24732
 20
22.5344
 11
7.29696
 21
22.4494
  0
LINE
  8
0
 10
7.29696
 20
22.4494
 11
7.32376
 21
22.4035
  0
LINE
  8
0
 10
7.32376
 20
22.4035
 11
7.41325
 21
22.2917
  0
LINE
  8
0
 10
7.41325
 20
22.2917
 11
7.51359
 21
22.2017
  0
LINE
  8
0
 10
7.51359
 20
22.2017
 11
7.58536
 21
22.1582
  0
LINE
  8
0
 10
7.58536
 20
22.1582
 11
7.62232
 21
22.1358
  0
LINE
  8
0
 10
7.62232
 20
22.1358
 11
7.69806
 21
22.1092
  0
LINE
  8
0
 10
7.69806
 20
22.1092
 11
7.73676
 21
22.0956
  0
LINE
  8
0
 10
7.73676
 20
22.0956
 11
7.85409
 21
22.0821
  0
LINE
  8
0
 10
7.85409
 20
22.0821
 11
11
 21
22.0821
  0
LINE
  8
0
 10
11
 20
22.0821
 11
11
 21
25.7162
  0
LINE
  8
0
 10
11
 20
25.7162
 11
7.85409
 21
25.7162
  0
LINE
  8
0
 10
7.85409
 20
25.7162
 11
7.73676
 21
25.7027
  0
LINE
  8
0
 10
7.73676
 20
25.7027
 11
7.67801
 21
25.6821
  0
LINE
  8
0
 10
7.67801
 20
25.6821
 11
7.62232
 21
25.6625
  0
LINE
  8
0
 10
7.62232
 20
25.6625
 11
7.56608
 21
25.6284
  0
LINE
  8
0
 10
7.56608
 20
25.6284
 11
7.51359
 21
25.5966
  0
LINE
  8
0
 10
7.51359
 20
25.5966
 11
7.46111
 21
25.5495
  0
LINE
  8
0
 10
7.46111
 20
25.5495
 11
7.41325
 21
25.5066
  0
LINE
  8
0
 10
7.41325
 20
25.5066
 11
7.32376
 21
25.3948
  0
LINE
  8
0
 10
7.32376
 20
25.3948
 11
7.24732
 21
25.2639
  0
LINE
  8
0
 10
7.24732
 20
25.2639
 11
7.21351
 21
25.1831
  0
LINE
  8
0
 10
7.21351
 20
25.1831
 11
7.18583
 21
25.117
  0
LINE
  8
0
 10
7.18583
 20
25.117
 11
7.14079
 21
24.9579
  0
LINE
  8
0
 10
7.14079
 20
24.9579
 11
7.12504
 21
24.862
  0
LINE
  8
0
 10
7.12504
 20
24.862
 11
7.11332
 21
24.7905
  0
LINE
  8
0
 10
7.11332
 20
24.7905
 11
7.10791
 21
24.6899
  0
LINE
  8
0
 10
7.10791
 20
24.6899
 11
7.10409
 21
24.6188
  0
LINE
  8
0
 10
7.10409
 20
24.6188
 11
7.10409
 21
23.1794
  0
LINE
  8
0
 10
36.5
 20
0
 11
47.5
 21
0
  0
LINE
  8
0
 10
47.5
 20
0
 11
47.5
 21
3.5
  0
LINE
  8
0
 10
47.5
 20
3.5
 11
47
 21
4
  0
LINE
  8
0
 10
47
 20
4
 11
41.8959
 21
4
  0
LINE
  8
0
 10
41.8959
 20
4
 11
40.3959
 21
5.5
  0
LINE
  8
0
 10
40.3959
 20
5.5
 11
40.3959
 21
13.6689
  0
LINE
  8
0
 10
40.3959
 20
13.6689
 11
40.387
 21
13.8343
  0
LINE
  8
0
 10
40.387
 20
13.8343
 11
40.3867
 21
13.8405
  0
LINE
  8
0
 10
40.3867
 20
13.8405
 11
40.3604
 21
14.0009
  0
LINE
  8
0
 10
40.3604
 20
14.0009
 11
40.3592
 21
14.008
  0
LINE
  8
0
 10
40.3592
 20
14.008
 11
40.3163
 21
14.1594
  0
LINE
  8
0
 10
40.3163
 20
14.1594
 11
40.3142
 21
14.167
  0
LINE
  8
0
 10
40.3142
 20
14.167
 11
40.256
 21
14.306
  0
LINE
  8
0
 10
40.256
 20
14.306
 11
40.2527
 21
14.3139
  0
LINE
  8
0
 10
40.2527
 20
14.3139
 11
40.1807
 21
14.4372
  0
LINE
  8
0
 10
40.1807
 20
14.4372
 11
40.1762
 21
14.4448
  0
LINE
  8
0
 10
40.1762
 20
14.4448
 11
40.0923
 21
14.5497
  0
LINE
  8
0
 10
40.0923
 20
14.5497
 11
40.0868
 21
14.5566
  0
LINE
  8
0
 10
40.0868
 20
14.5566
 11
39.993
 21
14.6407
  0
LINE
  8
0
 10
39.993
 20
14.6407
 11
39.9864
 21
14.6466
  0
LINE
  8
0
 10
39.9864
 20
14.6466
 11
39.8851
 21
14.708
  0
LINE
  8
0
 10
39.8851
 20
14.708
 11
39.8777
 21
14.7125
  0
LINE
  8
0
 10
39.8777
 20
14.7125
 11
39.7712
 21
14.7499
  0
LINE
  8
0
 10
39.7712
 20
14.7499
 11
39.7632
 21
14.7527
  0
LINE
  8
0
 10
39.7632
 20
14.7527
 11
39.6459
 21
14.7662
  0
LINE
  8
0
 10
39.6459
 20
14.7662
 11
36.5
 21
14.7662
  0
LINE
  8
0
 10
36.5
 20
14.7662
 11
36.5
 21
0
  0
LINE
  8
0
 10
36.5
 20
22.0821
 11
39.6459
 21
22.0821
  0
LINE
  8
0
 10
39.6459
 20
22.0821
 11
39.7632
 21
22.0956
  0
LINE
  8
0
 10
39.7632
 20
22.0956
 11
39.8389
 21
22.1222
  0
LINE
  8
0
 10
39.8389
 20
22.1222
 11
39.8777
 21
22.1358
  0
LINE
  8
0
 10
39.8777
 20
22.1358
 11
39.9494
 21
22.1792
  0
LINE
  8
0
 10
39.9494
 20
22.1792
 11
39.9864
 21
22.2017
  0
LINE
  8
0
 10
39.9864
 20
22.2017
 11
40.0868
 21
22.2917
  0
LINE
  8
0
 10
40.0868
 20
22.2917
 11
40.1762
 21
22.4035
  0
LINE
  8
0
 10
40.1762
 20
22.4035
 11
40.2258
 21
22.4883
  0
LINE
  8
0
 10
40.2258
 20
22.4883
 11
40.2527
 21
22.5344
  0
LINE
  8
0
 10
40.2527
 20
22.5344
 11
40.2922
 21
22.6288
  0
LINE
  8
0
 10
40.2922
 20
22.6288
 11
40.3142
 21
22.6812
  0
LINE
  8
0
 10
40.3142
 20
22.6812
 11
40.3429
 21
22.7826
  0
LINE
  8
0
 10
40.3429
 20
22.7826
 11
40.3592
 21
22.8403
  0
LINE
  8
0
 10
40.3592
 20
22.8403
 11
40.3765
 21
22.946
  0
LINE
  8
0
 10
40.3765
 20
22.946
 11
40.3867
 21
23.0078
  0
LINE
  8
0
 10
40.3867
 20
23.0078
 11
40.3924
 21
23.1151
  0
LINE
  8
0
 10
40.3924
 20
23.1151
 11
40.3959
 21
23.1794
  0
LINE
  8
0
 10
40.3959
 20
23.1794
 11
40.3959
 21
24.6188
  0
LINE
  8
0
 10
40.3959
 20
24.6188
 11
40.3905
 21
24.719
  0
LINE
  8
0
 10
40.3905
 20
24.719
 11
40.3867
 21
24.7905
  0
LINE
  8
0
 10
40.3867
 20
24.7905
 11
40.371
 21
24.8862
  0
LINE
  8
0
 10
40.371
 20
24.8862
 11
40.3592
 21
24.9579
  0
LINE
  8
0
 10
40.3592
 20
24.9579
 11
40.3142
 21
25.117
  0
LINE
  8
0
 10
40.3142
 20
25.117
 11
40.2804
 21
25.1976
  0
LINE
  8
0
 10
40.2804
 20
25.1976
 11
40.2527
 21
25.2639
  0
LINE
  8
0
 10
40.2527
 20
25.2639
 11
40.1762
 21
25.3948
  0
LINE
  8
0
 10
40.1762
 20
25.3948
 11
40.0868
 21
25.5066
  0
LINE
  8
0
 10
40.0868
 20
25.5066
 11
40.0343
 21
25.5537
  0
LINE
  8
0
 10
40.0343
 20
25.5537
 11
39.9864
 21
25.5966
  0
LINE
  8
0
 10
39.9864
 20
25.5966
 11
39.9302
 21
25.6307
  0
LINE
  8
0
 10
39.9302
 20
25.6307
 11
39.8777
 21
25.6625
  0
LINE
  8
0
 10
39.8777
 20
25.6625
 11
39.8189
 21
25.6831
  0
LINE
  8
0
 10
39.8189
 20
25.6831
 11
39.7632
 21
25.7027
  0
LINE
  8
0
 10
39.7632
 20
25.7027
 11
39.6459
 21
25.7162
  0
LINE
  8
0
 10
39.6459
 20
25.7162
 11
36.5
 21
25.7162
  0
LINE
  8
0
 10
36.5
 20
25.7162
 11
36.5
 21
22.0821
  0
LINE
  8
0
 10
36.5
 20
33.0063
 11
39.6459
 21
33.0063
  0
LINE
  8
0
 10
39.6459
 20
33.0063
 11
39.7077
 21
33.0128
  0
LINE
  8
0
 10
39.7077
 20
33.0128
 11
39.7632
 21
33.0187
  0
LINE
  8
0
 10
39.7632
 20
33.0187
 11
39.8282
 21
33.0396
  0
LINE
  8
0
 10
39.8282
 20
33.0396
 11
39.8777
 21
33.0556
  0
LINE
  8
0
 10
39.8777
 20
33.0556
 11
39.9487
 21
33.0952
  0
LINE
  8
0
 10
39.9487
 20
33.0952
 11
39.9864
 21
33.1162
  0
LINE
  8
0
 10
39.9864
 20
33.1162
 11
40.0648
 21
33.1807
  0
LINE
  8
0
 10
40.0648
 20
33.1807
 11
40.0868
 21
33.1988
  0
LINE
  8
0
 10
40.0868
 20
33.1988
 11
40.1716
 21
33.2962
  0
LINE
  8
0
 10
40.1716
 20
33.2962
 11
40.1762
 21
33.3016
  0
LINE
  8
0
 10
40.1762
 20
33.3016
 11
40.1966
 21
33.3337
  0
LINE
  8
0
 10
40.1966
 20
33.3337
 11
40.2527
 21
33.4113
  0
LINE
  8
0
 10
40.2527
 20
33.4113
 11
40.2598
 21
33.4251
  0
LINE
  8
0
 10
40.2598
 20
33.4251
 11
40.3142
 21
33.5301
  0
LINE
  8
0
 10
40.3142
 20
33.5301
 11
40.327
 21
33.5669
  0
LINE
  8
0
 10
40.327
 20
33.5669
 11
40.3592
 21
33.6589
  0
LINE
  8
0
 10
40.3592
 20
33.6589
 11
40.3717
 21
33.7207
  0
LINE
  8
0
 10
40.3717
 20
33.7207
 11
40.3867
 21
33.7944
  0
LINE
  8
0
 10
40.3867
 20
33.7944
 11
40.3924
 21
33.8807
  0
LINE
  8
0
 10
40.3924
 20
33.8807
 11
40.3959
 21
33.9333
  0
LINE
  8
0
 10
40.3959
 20
33.9333
 11
40.3959
 21
40
  0
LINE
  8
0
 10
40.3959
 20
40
 11
41.8959
 21
41.5
  0
LINE
  8
0
 10
41.8959
 20
41.5
 11
47
 21
41.5
  0
LINE
  8
0
 10
47
 20
41.5
 11
47.5
 21
42
  0
LINE
  8
0
 10
47.5
 20
42
 11
47.5
 21
45.5
  0
LINE
  8
0
 10
47.5
 20
45.5
 11
36.5
 21
45.5
  0
LINE
  8
0
 10
36.5
 20
45.5
 11
36.5
 21
33.0063
  0
ENDSEC
  0
SECTION
  2
OBJECTS
  0
DICTIONARY
  0
ENDSEC
  0
EOF
