  0
SECTION
  2
BLOCKS
  0
ENDSEC
  0
SECTION
  2
ENTITIES
  0
LINE
  8
0
 10
0
 20
0
 11
11
 21
0
  0
LINE
  8
0
 10
11
 20
0
 11
11
 21
14.5526
  0
LINE
  8
0
 10
11
 20
14.5526
 11
7.85409
 21
14.5526
  0
LINE
  8
0
 10
7.85409
 20
14.5526
 11
7.73676
 21
14.5391
  0
LINE
  8
0
 10
7.73676
 20
14.5391
 11
7.62847
 21
14.5011
  0
LINE
  8
0
 10
7.62847
 20
14.5011
 11
7.62232
 21
14.4989
  0
LINE
  8
0
 10
7.62232
 20
14.4989
 11
7.51917
 21
14.4364
  0
LINE
  8
0
 10
7.51917
 20
14.4364
 11
7.51359
 21
14.433
  0
LINE
  8
0
 10
7.51359
 20
14.433
 11
7.41807
 21
14.3473
  0
LINE
  8
0
 10
7.41807
 20
14.3473
 11
7.41325
 21
14.343
  0
LINE
  8
0
 10
7.41325
 20
14.343
 11
7.32769
 21
14.2361
  0
LINE
  8
0
 10
7.32769
 20
14.2361
 11
7.32376
 21
14.2312
  0
LINE
  8
0
 10
7.32376
 20
14.2312
 11
7.25032
 21
14.1054
  0
LINE
  8
0
 10
7.25032
 20
14.1054
 11
7.24732
 21
14.1002
  0
LINE
  8
0
 10
7.24732
 20
14.1002
 11
7.18791
 21
13.9584
  0
LINE
  8
0
 10
7.18791
 20
13.9584
 11
7.18583
 21
13.9534
  0
LINE
  8
0
 10
7.18583
 20
13.9534
 11
7.14206
 21
13.7988
  0
LINE
  8
0
 10
7.14206
 20
13.7988
 11
7.14079
 21
13.7943
  0
LINE
  8
0
 10
7.14079
 20
13.7943
 11
7.11392
 21
13.6306
  0
LINE
  8
0
 10
7.11392
 20
13.6306
 11
7.11332
 21
13.6269
  0
LINE
  8
0
 10
7.11332
 20
13.6269
 11
7.10423
 21
13.4579
  0
LINE
  8
0
 10
7.10423
 20
13.4579
 11
7.10409
 21
13.4552
  0
LINE
  8
0
 10
7.10409
 20
13.4552
 11
7.10409
 21
5.5
  0
LINE
  8
0
 10
7.10409
 20
5.5
 11
5.60409
 21
4
  0
LINE
  8
0
 10
5.60409
 20
4
 11
0.499999
 21
4
  0
LINE
  8
0
 10
0.499999
 20
4
 11
0
 21
3.5
  0
LINE
  8
0
 10
0
 20
3.5
 11
0
 21
0
  0
LINE
  8
0
 10
0
 20
42
 11
0.499999
 21
41.5
  0
LINE
  8
0
 10
0.499999
 20
41.5
 11
5.60409
 21
41.5
  0
LINE
  8
0
 10
5.60409
 20
41.5
 11
7.10409
 21
40
  0
LINE
  8
0
 10
7.10409
 20
40
 11
7.10409
 21
33.805
  0
LINE
  8
0
 10
7.10409
 20
33.805
 11
7.10605
 21
33.7755
  0
LINE
  8
0
 10
7.10605
 20
33.7755
 11
7.11332
 21
33.6661
  0
LINE
  8
0
 10
7.11332
 20
33.6661
 11
7.11537
 21
33.656
  0
LINE
  8
0
 10
7.11537
 20
33.656
 11
7.12771
 21
33.5951
  0
LINE
  8
0
 10
7.12771
 20
33.5951
 11
7.13879
 21
33.5331
  0
LINE
  8
0
 10
7.13879
 20
33.5331
 11
7.14079
 21
33.5219
  0
LINE
  8
0
 10
7.14079
 20
33.5219
 11
7.17558
 21
33.409
  0
LINE
  8
0
 10
7.17558
 20
33.409
 11
7.18583
 21
33.3757
  0
LINE
  8
0
 10
7.18583
 20
33.3757
 11
7.22372
 21
33.2926
  0
LINE
  8
0
 10
7.22372
 20
33.2926
 11
7.24732
 21
33.2408
  0
LINE
  8
0
 10
7.24732
 20
33.2408
 11
7.2826
 21
33.1853
  0
LINE
  8
0
 10
7.2826
 20
33.1853
 11
7.32376
 21
33.1205
  0
LINE
  8
0
 10
7.32376
 20
33.1205
 11
7.35171
 21
33.0884
  0
LINE
  8
0
 10
7.35171
 20
33.0884
 11
7.41325
 21
33.0178
  0
LINE
  8
0
 10
7.41325
 20
33.0178
 11
7.43068
 21
33.0034
  0
LINE
  8
0
 10
7.43068
 20
33.0034
 11
7.51359
 21
32.9351
  0
LINE
  8
0
 10
7.51359
 20
32.9351
 11
7.51924
 21
32.932
  0
LINE
  8
0
 10
7.51924
 20
32.932
 11
7.57254
 21
32.9023
  0
LINE
  8
0
 10
7.57254
 20
32.9023
 11
7.62232
 21
32.8721
  0
LINE
  8
0
 10
7.62232
 20
32.8721
 11
7.62258
 21
32.8721
  0
LINE
  8
0
 10
7.62258
 20
32.8721
 11
7.73676
 21
32.8319
  0
LINE
  8
0
 10
7.73676
 20
32.8319
 11
7.73736
 21
32.8319
  0
LINE
  8
0
 10
7.73736
 20
32.8319
 11
7.85409
 21
32.8184
  0
LINE
  8
0
 10
7.85409
 20
32.8184
 11
11
 21
32.8184
  0
LINE
  8
0
 10
11
 20
32.8184
 11
11
 21
45.5
  0
LINE
  8
0
 10
11
 20
45.5
 11
0
 21
45.5
  0
LINE
  8
0
 10
0
 20
45.5
 11
0
 21
42
  0
LINE
  8
0
 10
7.10409
 20
22.9658
 11
7.11001
 21
22.8557
  0
LINE
  8
0
 10
7.11001
 20
22.8557
 11
7.11332
 21
22.7942
  0
LINE
  8
0
 10
7.11332
 20
22.7942
 11
7.13111
 21
22.6857
  0
LINE
  8
0
 10
7.13111
 20
22.6857
 11
7.14079
 21
22.6267
  0
LINE
  8
0
 10
7.14079
 20
22.6267
 11
7.17023
 21
22.5227
  0
LINE
  8
0
 10
7.17023
 20
22.5227
 11
7.18583
 21
22.4676
  0
LINE
  8
0
 10
7.18583
 20
22.4676
 11
7.22636
 21
22.3709
  0
LINE
  8
0
 10
7.22636
 20
22.3709
 11
7.24732
 21
22.3208
  0
LINE
  8
0
 10
7.24732
 20
22.3208
 11
7.29808
 21
22.2338
  0
LINE
  8
0
 10
7.29808
 20
22.2338
 11
7.32376
 21
22.1899
  0
LINE
  8
0
 10
7.32376
 20
22.1899
 11
7.41325
 21
22.078
  0
LINE
  8
0
 10
7.41325
 20
22.078
 11
7.51359
 21
21.9881
  0
LINE
  8
0
 10
7.51359
 20
21.9881
 11
7.58695
 21
21.9436
  0
LINE
  8
0
 10
7.58695
 20
21.9436
 11
7.62232
 21
21.9222
  0
LINE
  8
0
 10
7.62232
 20
21.9222
 11
7.69973
 21
21.895
  0
LINE
  8
0
 10
7.69973
 20
21.895
 11
7.73676
 21
21.882
  0
LINE
  8
0
 10
7.73676
 20
21.882
 11
7.85409
 21
21.8684
  0
LINE
  8
0
 10
7.85409
 20
21.8684
 11
11
 21
21.8684
  0
LINE
  8
0
 10
11
 20
21.8684
 11
11
 21
25.5026
  0
LINE
  8
0
 10
11
 20
25.5026
 11
7.85409
 21
25.5026
  0
LINE
  8
0
 10
7.85409
 20
25.5026
 11
7.73676
 21
25.4891
  0
LINE
  8
0
 10
7.73676
 20
25.4891
 11
7.67465
 21
25.4673
  0
LINE
  8
0
 10
7.67465
 20
25.4673
 11
7.62232
 21
25.4489
  0
LINE
  8
0
 10
7.62232
 20
25.4489
 11
7.56288
 21
25.4129
  0
LINE
  8
0
 10
7.56288
 20
25.4129
 11
7.51359
 21
25.383
  0
LINE
  8
0
 10
7.51359
 20
25.383
 11
7.45815
 21
25.3333
  0
LINE
  8
0
 10
7.45815
 20
25.3333
 11
7.41325
 21
25.293
  0
LINE
  8
0
 10
7.41325
 20
25.293
 11
7.32376
 21
25.1812
  0
LINE
  8
0
 10
7.32376
 20
25.1812
 11
7.24732
 21
25.0502
  0
LINE
  8
0
 10
7.24732
 20
25.0502
 11
7.21169
 21
24.9652
  0
LINE
  8
0
 10
7.21169
 20
24.9652
 11
7.18583
 21
24.9034
  0
LINE
  8
0
 10
7.18583
 20
24.9034
 11
7.14079
 21
24.7443
  0
LINE
  8
0
 10
7.14079
 20
24.7443
 11
7.12423
 21
24.6434
  0
LINE
  8
0
 10
7.12423
 20
24.6434
 11
7.11332
 21
24.5769
  0
LINE
  8
0
 10
7.11332
 20
24.5769
 11
7.10764
 21
24.4712
  0
LINE
  8
0
 10
7.10764
 20
24.4712
 11
7.10409
 21
24.4052
  0
LINE
  8
0
 10
7.10409
 20
24.4052
 11
7.10409
 21
22.9658
  0
LINE
  8
0
 10
36.5
 20
0
 11
47.5
 21
0
  0
LINE
  8
0
 10
47.5
 20
0
 11
47.5
 21
3.5
  0
LINE
  8
0
 10
47.5
 20
3.5
 11
47
 21
4
  0
LINE
  8
0
 10
47
 20
4
 11
41.8959
 21
4
  0
LINE
  8
0
 10
41.8959
 20
4
 11
40.3959
 21
5.5
  0
LINE
  8
0
 10
40.3959
 20
5.5
 11
40.3959
 21
13.4552
  0
LINE
  8
0
 10
40.3959
 20
13.4552
 11
40.3869
 21
13.6232
  0
LINE
  8
0
 10
40.3869
 20
13.6232
 11
40.3867
 21
13.6269
  0
LINE
  8
0
 10
40.3867
 20
13.6269
 11
40.36
 21
13.7897
  0
LINE
  8
0
 10
40.36
 20
13.7897
 11
40.3592
 21
13.7943
  0
LINE
  8
0
 10
40.3592
 20
13.7943
 11
40.3157
 21
13.9481
  0
LINE
  8
0
 10
40.3157
 20
13.9481
 11
40.3142
 21
13.9534
  0
LINE
  8
0
 10
40.3142
 20
13.9534
 11
40.2551
 21
14.0945
  0
LINE
  8
0
 10
40.2551
 20
14.0945
 11
40.2527
 21
14.1002
  0
LINE
  8
0
 10
40.2527
 20
14.1002
 11
40.1796
 21
14.2255
  0
LINE
  8
0
 10
40.1796
 20
14.2255
 11
40.1762
 21
14.2312
  0
LINE
  8
0
 10
40.1762
 20
14.2312
 11
40.091
 21
14.3377
  0
LINE
  8
0
 10
40.091
 20
14.3377
 11
40.0868
 21
14.343
  0
LINE
  8
0
 10
40.0868
 20
14.343
 11
39.9915
 21
14.4284
  0
LINE
  8
0
 10
39.9915
 20
14.4284
 11
39.9864
 21
14.433
  0
LINE
  8
0
 10
39.9864
 20
14.433
 11
39.8835
 21
14.4954
  0
LINE
  8
0
 10
39.8835
 20
14.4954
 11
39.8777
 21
14.4989
  0
LINE
  8
0
 10
39.8777
 20
14.4989
 11
39.7695
 21
14.5369
  0
LINE
  8
0
 10
39.7695
 20
14.5369
 11
39.7632
 21
14.5391
  0
LINE
  8
0
 10
39.7632
 20
14.5391
 11
39.6459
 21
14.5526
  0
LINE
  8
0
 10
39.6459
 20
14.5526
 11
36.5
 21
14.5526
  0
LINE
  8
0
 10
36.5
 20
14.5526
 11
36.5
 21
0
  0
LINE
  8
0
 10
36.5
 20
21.8684
 11
39.6459
 21
21.8684
  0
LINE
  8
0
 10
39.6459
 20
21.8684
 11
39.7632
 21
21.882
  0
LINE
  8
0
 10
39.7632
 20
21.882
 11
39.8406
 21
21.9091
  0
LINE
  8
0
 10
39.8406
 20
21.9091
 11
39.8777
 21
21.9222
  0
LINE
  8
0
 10
39.8777
 20
21.9222
 11
39.9509
 21
21.9666
  0
LINE
  8
0
 10
39.9509
 20
21.9666
 11
39.9864
 21
21.9881
  0
LINE
  8
0
 10
39.9864
 20
21.9881
 11
40.0868
 21
22.078
  0
LINE
  8
0
 10
40.0868
 20
22.078
 11
40.1762
 21
22.1899
  0
LINE
  8
0
 10
40.1762
 20
22.1899
 11
40.2269
 21
22.2766
  0
LINE
  8
0
 10
40.2269
 20
22.2766
 11
40.2527
 21
22.3208
  0
LINE
  8
0
 10
40.2527
 20
22.3208
 11
40.2931
 21
22.4173
  0
LINE
  8
0
 10
40.2931
 20
22.4173
 11
40.3142
 21
22.4676
  0
LINE
  8
0
 10
40.3142
 20
22.4676
 11
40.3435
 21
22.5713
  0
LINE
  8
0
 10
40.3435
 20
22.5713
 11
40.3592
 21
22.6267
  0
LINE
  8
0
 10
40.3592
 20
22.6267
 11
40.3769
 21
22.7348
  0
LINE
  8
0
 10
40.3769
 20
22.7348
 11
40.3867
 21
22.7942
  0
LINE
  8
0
 10
40.3867
 20
22.7942
 11
40.3926
 21
22.904
  0
LINE
  8
0
 10
40.3926
 20
22.904
 11
40.3959
 21
22.9658
  0
LINE
  8
0
 10
40.3959
 20
22.9658
 11
40.3959
 21
24.4052
  0
LINE
  8
0
 10
40.3959
 20
24.4052
 11
40.3903
 21
24.5104
  0
LINE
  8
0
 10
40.3903
 20
24.5104
 11
40.3867
 21
24.5769
  0
LINE
  8
0
 10
40.3867
 20
24.5769
 11
40.3702
 21
24.6774
  0
LINE
  8
0
 10
40.3702
 20
24.6774
 11
40.3592
 21
24.7443
  0
LINE
  8
0
 10
40.3592
 20
24.7443
 11
40.3142
 21
24.9034
  0
LINE
  8
0
 10
40.3142
 20
24.9034
 11
40.2786
 21
24.9882
  0
LINE
  8
0
 10
40.2786
 20
24.9882
 11
40.2527
 21
25.0502
  0
LINE
  8
0
 10
40.2527
 20
25.0502
 11
40.1762
 21
25.1812
  0
LINE
  8
0
 10
40.1762
 20
25.1812
 11
40.0868
 21
25.293
  0
LINE
  8
0
 10
40.0868
 20
25.293
 11
40.0314
 21
25.3427
  0
LINE
  8
0
 10
40.0314
 20
25.3427
 11
39.9864
 21
25.383
  0
LINE
  8
0
 10
39.9864
 20
25.383
 11
39.927
 21
25.419
  0
LINE
  8
0
 10
39.927
 20
25.419
 11
39.8777
 21
25.4489
  0
LINE
  8
0
 10
39.8777
 20
25.4489
 11
39.8156
 21
25.4707
  0
LINE
  8
0
 10
39.8156
 20
25.4707
 11
39.7632
 21
25.4891
  0
LINE
  8
0
 10
39.7632
 20
25.4891
 11
39.6459
 21
25.5026
  0
LINE
  8
0
 10
39.6459
 20
25.5026
 11
36.5
 21
25.5026
  0
LINE
  8
0
 10
36.5
 20
25.5026
 11
36.5
 21
21.8684
  0
LINE
  8
0
 10
36.5
 20
32.8184
 11
39.6459
 21
32.8184
  0
LINE
  8
0
 10
39.6459
 20
32.8184
 11
39.6466
 21
32.8185
  0
LINE
  8
0
 10
39.6466
 20
32.8185
 11
39.7632
 21
32.8319
  0
LINE
  8
0
 10
39.7632
 20
32.8319
 11
39.7638
 21
32.8321
  0
LINE
  8
0
 10
39.7638
 20
32.8321
 11
39.8777
 21
32.8721
  0
LINE
  8
0
 10
39.8777
 20
32.8721
 11
39.8779
 21
32.8723
  0
LINE
  8
0
 10
39.8779
 20
32.8723
 11
39.9275
 21
32.9023
  0
LINE
  8
0
 10
39.9275
 20
32.9023
 11
39.9864
 21
32.9351
  0
LINE
  8
0
 10
39.9864
 20
32.9351
 11
39.9928
 21
32.9404
  0
LINE
  8
0
 10
39.9928
 20
32.9404
 11
40.0868
 21
33.0178
  0
LINE
  8
0
 10
40.0868
 20
33.0178
 11
40.107
 21
33.041
  0
LINE
  8
0
 10
40.107
 20
33.041
 11
40.1762
 21
33.1205
  0
LINE
  8
0
 10
40.1762
 20
33.1205
 11
40.2087
 21
33.1717
  0
LINE
  8
0
 10
40.2087
 20
33.1717
 11
40.2527
 21
33.2408
  0
LINE
  8
0
 10
40.2527
 20
33.2408
 11
40.2926
 21
33.3284
  0
LINE
  8
0
 10
40.2926
 20
33.3284
 11
40.3142
 21
33.3757
  0
LINE
  8
0
 10
40.3142
 20
33.3757
 11
40.3541
 21
33.5052
  0
LINE
  8
0
 10
40.3541
 20
33.5052
 11
40.3592
 21
33.5219
  0
LINE
  8
0
 10
40.3592
 20
33.5219
 11
40.3723
 21
33.5951
  0
LINE
  8
0
 10
40.3723
 20
33.5951
 11
40.3867
 21
33.6661
  0
LINE
  8
0
 10
40.3867
 20
33.6661
 11
40.3876
 21
33.6794
  0
LINE
  8
0
 10
40.3876
 20
33.6794
 11
40.3959
 21
33.805
  0
LINE
  8
0
 10
40.3959
 20
33.805
 11
40.3959
 21
40
  0
LINE
  8
0
 10
40.3959
 20
40
 11
41.8959
 21
41.5
  0
LINE
  8
0
 10
41.8959
 20
41.5
 11
47
 21
41.5
  0
LINE
  8
0
 10
47
 20
41.5
 11
47.5
 21
42
  0
LINE
  8
0
 10
47.5
 20
42
 11
47.5
 21
45.5
  0
LINE
  8
0
 10
47.5
 20
45.5
 11
36.5
 21
45.5
  0
LINE
  8
0
 10
36.5
 20
45.5
 11
36.5
 21
32.8184
  0
ENDSEC
  0
SECTION
  2
OBJECTS
  0
DICTIONARY
  0
ENDSEC
  0
EOF
