  0
SECTION
  2
BLOCKS
  0
ENDSEC
  0
SECTION
  2
ENTITIES
  0
LINE
  8
0
 10
0
 20
0
 11
11
 21
0
  0
LINE
  8
0
 10
11
 20
0
 11
11
 21
14.339
  0
LINE
  8
0
 10
11
 20
14.339
 11
7.85409
 21
14.339
  0
LINE
  8
0
 10
7.85409
 20
14.339
 11
7.73676
 21
14.3255
  0
LINE
  8
0
 10
7.73676
 20
14.3255
 11
7.62679
 21
14.2868
  0
LINE
  8
0
 10
7.62679
 20
14.2868
 11
7.62232
 21
14.2853
  0
LINE
  8
0
 10
7.62232
 20
14.2853
 11
7.51758
 21
14.2218
  0
LINE
  8
0
 10
7.51758
 20
14.2218
 11
7.51359
 21
14.2194
  0
LINE
  8
0
 10
7.51359
 20
14.2194
 11
7.4166
 21
14.1324
  0
LINE
  8
0
 10
7.4166
 20
14.1324
 11
7.41325
 21
14.1294
  0
LINE
  8
0
 10
7.41325
 20
14.1294
 11
7.32638
 21
14.0208
  0
LINE
  8
0
 10
7.32638
 20
14.0208
 11
7.32376
 21
14.0176
  0
LINE
  8
0
 10
7.32376
 20
14.0176
 11
7.2492
 21
13.8898
  0
LINE
  8
0
 10
7.2492
 20
13.8898
 11
7.24732
 21
13.8866
  0
LINE
  8
0
 10
7.24732
 20
13.8866
 11
7.18701
 21
13.7426
  0
LINE
  8
0
 10
7.18701
 20
13.7426
 11
7.18583
 21
13.7398
  0
LINE
  8
0
 10
7.18583
 20
13.7398
 11
7.1414
 21
13.5828
  0
LINE
  8
0
 10
7.1414
 20
13.5828
 11
7.14079
 21
13.5807
  0
LINE
  8
0
 10
7.14079
 20
13.5807
 11
7.11352
 21
13.4145
  0
LINE
  8
0
 10
7.11352
 20
13.4145
 11
7.11332
 21
13.4133
  0
LINE
  8
0
 10
7.11332
 20
13.4133
 11
7.1041
 21
13.2418
  0
LINE
  8
0
 10
7.1041
 20
13.2418
 11
7.10409
 21
13.2416
  0
LINE
  8
0
 10
7.10409
 20
13.2416
 11
7.10409
 21
5.5
  0
LINE
  8
0
 10
7.10409
 20
5.5
 11
5.60409
 21
4
  0
LINE
  8
0
 10
5.60409
 20
4
 11
0.499999
 21
4
  0
LINE
  8
0
 10
0.499999
 20
4
 11
0
 21
3.5
  0
LINE
  8
0
 10
0
 20
3.5
 11
0
 21
0
  0
LINE
  8
0
 10
0
 20
42
 11
0.499999
 21
41.5
  0
LINE
  8
0
 10
0.499999
 20
41.5
 11
5.60409
 21
41.5
  0
LINE
  8
0
 10
5.60409
 20
41.5
 11
7.10409
 21
40
  0
LINE
  8
0
 10
7.10409
 20
40
 11
7.10409
 21
33.6524
  0
LINE
  8
0
 10
7.10409
 20
33.6524
 11
7.1101
 21
33.5496
  0
LINE
  8
0
 10
7.1101
 20
33.5496
 11
7.11332
 21
33.4947
  0
LINE
  8
0
 10
7.11332
 20
33.4947
 11
7.12666
 21
33.42
  0
LINE
  8
0
 10
7.12666
 20
33.42
 11
7.14079
 21
33.3408
  0
LINE
  8
0
 10
7.14079
 20
33.3408
 11
7.1549
 21
33.2951
  0
LINE
  8
0
 10
7.1549
 20
33.2951
 11
7.18583
 21
33.1947
  0
LINE
  8
0
 10
7.18583
 20
33.1947
 11
7.19425
 21
33.1762
  0
LINE
  8
0
 10
7.19425
 20
33.1762
 11
7.23376
 21
33.0896
  0
LINE
  8
0
 10
7.23376
 20
33.0896
 11
7.24732
 21
33.0572
  0
LINE
  8
0
 10
7.24732
 20
33.0572
 11
7.24751
 21
33.0569
  0
LINE
  8
0
 10
7.24751
 20
33.0569
 11
7.32376
 21
32.9262
  0
LINE
  8
0
 10
7.32376
 20
32.9262
 11
7.32483
 21
32.9249
  0
LINE
  8
0
 10
7.32483
 20
32.9249
 11
7.41325
 21
32.8144
  0
LINE
  8
0
 10
7.41325
 20
32.8144
 11
7.51359
 21
32.7244
  0
LINE
  8
0
 10
7.51359
 20
32.7244
 11
7.51651
 21
32.7227
  0
LINE
  8
0
 10
7.51651
 20
32.7227
 11
7.62232
 21
32.6585
  0
LINE
  8
0
 10
7.62232
 20
32.6585
 11
7.62594
 21
32.6572
  0
LINE
  8
0
 10
7.62594
 20
32.6572
 11
7.73676
 21
32.6183
  0
LINE
  8
0
 10
7.73676
 20
32.6183
 11
7.7408
 21
32.6179
  0
LINE
  8
0
 10
7.7408
 20
32.6179
 11
7.85409
 21
32.6048
  0
LINE
  8
0
 10
7.85409
 20
32.6048
 11
11
 21
32.6048
  0
LINE
  8
0
 10
11
 20
32.6048
 11
11
 21
45.5
  0
LINE
  8
0
 10
11
 20
45.5
 11
0
 21
45.5
  0
LINE
  8
0
 10
0
 20
45.5
 11
0
 21
42
  0
LINE
  8
0
 10
7.10409
 20
22.7522
 11
7.11015
 21
22.6396
  0
LINE
  8
0
 10
7.11015
 20
22.6396
 11
7.11332
 21
22.5805
  0
LINE
  8
0
 10
7.11332
 20
22.5805
 11
7.13152
 21
22.4696
  0
LINE
  8
0
 10
7.13152
 20
22.4696
 11
7.14079
 21
22.4131
  0
LINE
  8
0
 10
7.14079
 20
22.4131
 11
7.17089
 21
22.3068
  0
LINE
  8
0
 10
7.17089
 20
22.3068
 11
7.18583
 21
22.254
  0
LINE
  8
0
 10
7.18583
 20
22.254
 11
7.22726
 21
22.1551
  0
LINE
  8
0
 10
7.22726
 20
22.1551
 11
7.24732
 21
22.1072
  0
LINE
  8
0
 10
7.24732
 20
22.1072
 11
7.2992
 21
22.0183
  0
LINE
  8
0
 10
7.2992
 20
22.0183
 11
7.32376
 21
21.9762
  0
LINE
  8
0
 10
7.32376
 20
21.9762
 11
7.41325
 21
21.8644
  0
LINE
  8
0
 10
7.41325
 20
21.8644
 11
7.51359
 21
21.7744
  0
LINE
  8
0
 10
7.51359
 20
21.7744
 11
7.58855
 21
21.729
  0
LINE
  8
0
 10
7.58855
 20
21.729
 11
7.62232
 21
21.7085
  0
LINE
  8
0
 10
7.62232
 20
21.7085
 11
7.70141
 21
21.6808
  0
LINE
  8
0
 10
7.70141
 20
21.6808
 11
7.73676
 21
21.6683
  0
LINE
  8
0
 10
7.73676
 20
21.6683
 11
7.85409
 21
21.6548
  0
LINE
  8
0
 10
7.85409
 20
21.6548
 11
11
 21
21.6548
  0
LINE
  8
0
 10
11
 20
21.6548
 11
11
 21
25.289
  0
LINE
  8
0
 10
11
 20
25.289
 11
7.85409
 21
25.289
  0
LINE
  8
0
 10
7.85409
 20
25.289
 11
7.73676
 21
25.2755
  0
LINE
  8
0
 10
7.73676
 20
25.2755
 11
7.67129
 21
25.2525
  0
LINE
  8
0
 10
7.67129
 20
25.2525
 11
7.62232
 21
25.2353
  0
LINE
  8
0
 10
7.62232
 20
25.2353
 11
7.55968
 21
25.1973
  0
LINE
  8
0
 10
7.55968
 20
25.1973
 11
7.51359
 21
25.1694
  0
LINE
  8
0
 10
7.51359
 20
25.1694
 11
7.45519
 21
25.117
  0
LINE
  8
0
 10
7.45519
 20
25.117
 11
7.41325
 21
25.0794
  0
LINE
  8
0
 10
7.41325
 20
25.0794
 11
7.32376
 21
24.9676
  0
LINE
  8
0
 10
7.32376
 20
24.9676
 11
7.24732
 21
24.8366
  0
LINE
  8
0
 10
7.24732
 20
24.8366
 11
7.20988
 21
24.7472
  0
LINE
  8
0
 10
7.20988
 20
24.7472
 11
7.18583
 21
24.6898
  0
LINE
  8
0
 10
7.18583
 20
24.6898
 11
7.14079
 21
24.5307
  0
LINE
  8
0
 10
7.14079
 20
24.5307
 11
7.12342
 21
24.4248
  0
LINE
  8
0
 10
7.12342
 20
24.4248
 11
7.11332
 21
24.3633
  0
LINE
  8
0
 10
7.11332
 20
24.3633
 11
7.10736
 21
24.2525
  0
LINE
  8
0
 10
7.10736
 20
24.2525
 11
7.10409
 21
24.1916
  0
LINE
  8
0
 10
7.10409
 20
24.1916
 11
7.10409
 21
22.7522
  0
LINE
  8
0
 10
36.5
 20
0
 11
47.5
 21
0
  0
LINE
  8
0
 10
47.5
 20
0
 11
47.5
 21
3.5
  0
LINE
  8
0
 10
47.5
 20
3.5
 11
47
 21
4
  0
LINE
  8
0
 10
47
 20
4
 11
41.8959
 21
4
  0
LINE
  8
0
 10
41.8959
 20
4
 11
40.3959
 21
5.5
  0
LINE
  8
0
 10
40.3959
 20
5.5
 11
40.3959
 21
13.2416
  0
LINE
  8
0
 10
40.3959
 20
13.2416
 11
40.3867
 21
13.4121
  0
LINE
  8
0
 10
40.3867
 20
13.4121
 11
40.3867
 21
13.4133
  0
LINE
  8
0
 10
40.3867
 20
13.4133
 11
40.3596
 21
13.5785
  0
LINE
  8
0
 10
40.3596
 20
13.5785
 11
40.3592
 21
13.5807
  0
LINE
  8
0
 10
40.3592
 20
13.5807
 11
40.315
 21
13.7368
  0
LINE
  8
0
 10
40.315
 20
13.7368
 11
40.3142
 21
13.7398
  0
LINE
  8
0
 10
40.3142
 20
13.7398
 11
40.2542
 21
13.8831
  0
LINE
  8
0
 10
40.2542
 20
13.8831
 11
40.2527
 21
13.8866
  0
LINE
  8
0
 10
40.2527
 20
13.8866
 11
40.1785
 21
14.0138
  0
LINE
  8
0
 10
40.1785
 20
14.0138
 11
40.1762
 21
14.0176
  0
LINE
  8
0
 10
40.1762
 20
14.0176
 11
40.0897
 21
14.1257
  0
LINE
  8
0
 10
40.0897
 20
14.1257
 11
40.0868
 21
14.1294
  0
LINE
  8
0
 10
40.0868
 20
14.1294
 11
39.9901
 21
14.2161
  0
LINE
  8
0
 10
39.9901
 20
14.2161
 11
39.9864
 21
14.2194
  0
LINE
  8
0
 10
39.9864
 20
14.2194
 11
39.8819
 21
14.2827
  0
LINE
  8
0
 10
39.8819
 20
14.2827
 11
39.8777
 21
14.2853
  0
LINE
  8
0
 10
39.8777
 20
14.2853
 11
39.7679
 21
14.3238
  0
LINE
  8
0
 10
39.7679
 20
14.3238
 11
39.7632
 21
14.3255
  0
LINE
  8
0
 10
39.7632
 20
14.3255
 11
39.6459
 21
14.339
  0
LINE
  8
0
 10
39.6459
 20
14.339
 11
36.5
 21
14.339
  0
LINE
  8
0
 10
36.5
 20
14.339
 11
36.5
 21
0
  0
LINE
  8
0
 10
36.5
 20
21.6548
 11
39.6459
 21
21.6548
  0
LINE
  8
0
 10
39.6459
 20
21.6548
 11
39.7632
 21
21.6683
  0
LINE
  8
0
 10
39.7632
 20
21.6683
 11
39.8423
 21
21.6961
  0
LINE
  8
0
 10
39.8423
 20
21.6961
 11
39.8777
 21
21.7085
  0
LINE
  8
0
 10
39.8777
 20
21.7085
 11
39.9525
 21
21.7539
  0
LINE
  8
0
 10
39.9525
 20
21.7539
 11
39.9864
 21
21.7744
  0
LINE
  8
0
 10
39.9864
 20
21.7744
 11
40.0868
 21
21.8644
  0
LINE
  8
0
 10
40.0868
 20
21.8644
 11
40.1762
 21
21.9762
  0
LINE
  8
0
 10
40.1762
 20
21.9762
 11
40.228
 21
22.0649
  0
LINE
  8
0
 10
40.228
 20
22.0649
 11
40.2527
 21
22.1072
  0
LINE
  8
0
 10
40.2527
 20
22.1072
 11
40.294
 21
22.2058
  0
LINE
  8
0
 10
40.294
 20
22.2058
 11
40.3142
 21
22.254
  0
LINE
  8
0
 10
40.3142
 20
22.254
 11
40.3442
 21
22.36
  0
LINE
  8
0
 10
40.3442
 20
22.36
 11
40.3592
 21
22.4131
  0
LINE
  8
0
 10
40.3592
 20
22.4131
 11
40.3773
 21
22.5237
  0
LINE
  8
0
 10
40.3773
 20
22.5237
 11
40.3867
 21
22.5805
  0
LINE
  8
0
 10
40.3867
 20
22.5805
 11
40.3927
 21
22.6928
  0
LINE
  8
0
 10
40.3927
 20
22.6928
 11
40.3959
 21
22.7522
  0
LINE
  8
0
 10
40.3959
 20
22.7522
 11
40.3959
 21
24.1916
  0
LINE
  8
0
 10
40.3959
 20
24.1916
 11
40.39
 21
24.3017
  0
LINE
  8
0
 10
40.39
 20
24.3017
 11
40.3867
 21
24.3633
  0
LINE
  8
0
 10
40.3867
 20
24.3633
 11
40.3694
 21
24.4686
  0
LINE
  8
0
 10
40.3694
 20
24.4686
 11
40.3592
 21
24.5307
  0
LINE
  8
0
 10
40.3592
 20
24.5307
 11
40.3142
 21
24.6898
  0
LINE
  8
0
 10
40.3142
 20
24.6898
 11
40.2769
 21
24.7789
  0
LINE
  8
0
 10
40.2769
 20
24.7789
 11
40.2527
 21
24.8366
  0
LINE
  8
0
 10
40.2527
 20
24.8366
 11
40.1762
 21
24.9676
  0
LINE
  8
0
 10
40.1762
 20
24.9676
 11
40.0868
 21
25.0794
  0
LINE
  8
0
 10
40.0868
 20
25.0794
 11
40.0285
 21
25.1317
  0
LINE
  8
0
 10
40.0285
 20
25.1317
 11
39.9864
 21
25.1694
  0
LINE
  8
0
 10
39.9864
 20
25.1694
 11
39.9238
 21
25.2073
  0
LINE
  8
0
 10
39.9238
 20
25.2073
 11
39.8777
 21
25.2353
  0
LINE
  8
0
 10
39.8777
 20
25.2353
 11
39.8123
 21
25.2582
  0
LINE
  8
0
 10
39.8123
 20
25.2582
 11
39.7632
 21
25.2755
  0
LINE
  8
0
 10
39.7632
 20
25.2755
 11
39.6459
 21
25.289
  0
LINE
  8
0
 10
39.6459
 20
25.289
 11
36.5
 21
25.289
  0
LINE
  8
0
 10
36.5
 20
25.289
 11
36.5
 21
21.6548
  0
LINE
  8
0
 10
36.5
 20
32.6048
 11
39.6459
 21
32.6048
  0
LINE
  8
0
 10
39.6459
 20
32.6048
 11
39.6501
 21
32.6053
  0
LINE
  8
0
 10
39.6501
 20
32.6053
 11
39.7632
 21
32.6183
  0
LINE
  8
0
 10
39.7632
 20
32.6183
 11
39.7672
 21
32.6197
  0
LINE
  8
0
 10
39.7672
 20
32.6197
 11
39.8777
 21
32.6585
  0
LINE
  8
0
 10
39.8777
 20
32.6585
 11
39.8811
 21
32.6606
  0
LINE
  8
0
 10
39.8811
 20
32.6606
 11
39.9864
 21
32.7244
  0
LINE
  8
0
 10
39.9864
 20
32.7244
 11
40.0868
 21
32.8144
  0
LINE
  8
0
 10
40.0868
 20
32.8144
 11
40.0885
 21
32.8166
  0
LINE
  8
0
 10
40.0885
 20
32.8166
 11
40.1762
 21
32.9262
  0
LINE
  8
0
 10
40.1762
 20
32.9262
 11
40.1771
 21
32.9278
  0
LINE
  8
0
 10
40.1771
 20
32.9278
 11
40.2527
 21
33.0572
  0
LINE
  8
0
 10
40.2527
 20
33.0572
 11
40.2528
 21
33.0575
  0
LINE
  8
0
 10
40.2528
 20
33.0575
 11
40.2662
 21
33.0896
  0
LINE
  8
0
 10
40.2662
 20
33.0896
 11
40.3142
 21
33.1947
  0
LINE
  8
0
 10
40.3142
 20
33.1947
 11
40.323
 21
33.2234
  0
LINE
  8
0
 10
40.323
 20
33.2234
 11
40.3592
 21
33.3408
  0
LINE
  8
0
 10
40.3592
 20
33.3408
 11
40.3717
 21
33.4108
  0
LINE
  8
0
 10
40.3717
 20
33.4108
 11
40.3867
 21
33.4947
  0
LINE
  8
0
 10
40.3867
 20
33.4947
 11
40.3932
 21
33.6058
  0
LINE
  8
0
 10
40.3932
 20
33.6058
 11
40.3959
 21
33.6524
  0
LINE
  8
0
 10
40.3959
 20
33.6524
 11
40.3959
 21
40
  0
LINE
  8
0
 10
40.3959
 20
40
 11
41.8959
 21
41.5
  0
LINE
  8
0
 10
41.8959
 20
41.5
 11
47
 21
41.5
  0
LINE
  8
0
 10
47
 20
41.5
 11
47.5
 21
42
  0
LINE
  8
0
 10
47.5
 20
42
 11
47.5
 21
45.5
  0
LINE
  8
0
 10
47.5
 20
45.5
 11
36.5
 21
45.5
  0
LINE
  8
0
 10
36.5
 20
45.5
 11
36.5
 21
32.6048
  0
ENDSEC
  0
SECTION
  2
OBJECTS
  0
DICTIONARY
  0
ENDSEC
  0
EOF
