  0
SECTION
  2
BLOCKS
  0
ENDSEC
  0
SECTION
  2
ENTITIES
  0
LINE
  8
0
 10
0
 20
0
 11
11
 21
0
  0
LINE
  8
0
 10
11
 20
0
 11
11
 21
13.9117
  0
LINE
  8
0
 10
11
 20
13.9117
 11
7.85409
 21
13.9117
  0
LINE
  8
0
 10
7.85409
 20
13.9117
 11
7.73676
 21
13.8982
  0
LINE
  8
0
 10
7.73676
 20
13.8982
 11
7.62344
 21
13.8584
  0
LINE
  8
0
 10
7.62344
 20
13.8584
 11
7.62232
 21
13.858
  0
LINE
  8
0
 10
7.62232
 20
13.858
 11
7.51439
 21
13.7926
  0
LINE
  8
0
 10
7.51439
 20
13.7926
 11
7.51359
 21
13.7921
  0
LINE
  8
0
 10
7.51359
 20
13.7921
 11
7.41365
 21
13.7025
  0
LINE
  8
0
 10
7.41365
 20
13.7025
 11
7.41325
 21
13.7022
  0
LINE
  8
0
 10
7.41325
 20
13.7022
 11
7.32516
 21
13.5921
  0
LINE
  8
0
 10
7.32516
 20
13.5921
 11
7.32396
 21
13.5907
  0
LINE
  8
0
 10
7.32396
 20
13.5907
 11
7.32376
 21
13.5905
  0
LINE
  8
0
 10
7.32376
 20
13.5905
 11
7.26003
 21
13.4902
  0
LINE
  8
0
 10
7.26003
 20
13.4902
 11
7.24732
 21
13.4702
  0
LINE
  8
0
 10
7.24732
 20
13.4702
 11
7.20638
 21
13.3804
  0
LINE
  8
0
 10
7.20638
 20
13.3804
 11
7.18583
 21
13.3353
  0
LINE
  8
0
 10
7.18583
 20
13.3353
 11
7.16342
 21
13.2625
  0
LINE
  8
0
 10
7.16342
 20
13.2625
 11
7.14079
 21
13.1891
  0
LINE
  8
0
 10
7.14079
 20
13.1891
 11
7.13165
 21
13.138
  0
LINE
  8
0
 10
7.13165
 20
13.138
 11
7.11332
 21
13.0353
  0
LINE
  8
0
 10
7.11332
 20
13.0353
 11
7.11172
 21
13.008
  0
LINE
  8
0
 10
7.11172
 20
13.008
 11
7.10409
 21
12.8776
  0
LINE
  8
0
 10
7.10409
 20
12.8776
 11
7.10409
 21
5.5
  0
LINE
  8
0
 10
7.10409
 20
5.5
 11
5.60409
 21
4
  0
LINE
  8
0
 10
5.60409
 20
4
 11
0.499999
 21
4
  0
LINE
  8
0
 10
0.499999
 20
4
 11
0
 21
3.5
  0
LINE
  8
0
 10
0
 20
3.5
 11
0
 21
0
  0
LINE
  8
0
 10
0
 20
42
 11
0.499999
 21
41.5
  0
LINE
  8
0
 10
0.499999
 20
41.5
 11
5.60409
 21
41.5
  0
LINE
  8
0
 10
5.60409
 20
41.5
 11
7.10409
 21
40
  0
LINE
  8
0
 10
7.10409
 20
40
 11
7.10409
 21
33.2749
  0
LINE
  8
0
 10
7.10409
 20
33.2749
 11
7.10422
 21
33.2725
  0
LINE
  8
0
 10
7.10422
 20
33.2725
 11
7.11332
 21
33.1033
  0
LINE
  8
0
 10
7.11332
 20
33.1033
 11
7.11405
 21
33.0988
  0
LINE
  8
0
 10
7.11405
 20
33.0988
 11
7.14079
 21
32.9358
  0
LINE
  8
0
 10
7.14079
 20
32.9358
 11
7.14255
 21
32.9296
  0
LINE
  8
0
 10
7.14255
 20
32.9296
 11
7.18583
 21
32.7767
  0
LINE
  8
0
 10
7.18583
 20
32.7767
 11
7.18895
 21
32.7693
  0
LINE
  8
0
 10
7.18895
 20
32.7693
 11
7.24732
 21
32.6299
  0
LINE
  8
0
 10
7.24732
 20
32.6299
 11
7.25202
 21
32.6219
  0
LINE
  8
0
 10
7.25202
 20
32.6219
 11
7.32376
 21
32.499
  0
LINE
  8
0
 10
7.32376
 20
32.499
 11
7.33011
 21
32.491
  0
LINE
  8
0
 10
7.33011
 20
32.491
 11
7.41325
 21
32.3871
  0
LINE
  8
0
 10
7.41325
 20
32.3871
 11
7.51359
 21
32.2972
  0
LINE
  8
0
 10
7.51359
 20
32.2972
 11
7.5229
 21
32.2915
  0
LINE
  8
0
 10
7.5229
 20
32.2915
 11
7.62232
 21
32.2313
  0
LINE
  8
0
 10
7.62232
 20
32.2313
 11
7.63265
 21
32.2276
  0
LINE
  8
0
 10
7.63265
 20
32.2276
 11
7.73676
 21
32.1911
  0
LINE
  8
0
 10
7.73676
 20
32.1911
 11
7.74767
 21
32.1898
  0
LINE
  8
0
 10
7.74767
 20
32.1898
 11
7.85409
 21
32.1776
  0
LINE
  8
0
 10
7.85409
 20
32.1776
 11
11
 21
32.1776
  0
LINE
  8
0
 10
11
 20
32.1776
 11
11
 21
45.5
  0
LINE
  8
0
 10
11
 20
45.5
 11
0
 21
45.5
  0
LINE
  8
0
 10
0
 20
45.5
 11
0
 21
42
  0
LINE
  8
0
 10
7.10409
 20
22.325
 11
7.11042
 21
22.2073
  0
LINE
  8
0
 10
7.11042
 20
22.2073
 11
7.11332
 21
22.1533
  0
LINE
  8
0
 10
7.11332
 20
22.1533
 11
7.13233
 21
22.0375
  0
LINE
  8
0
 10
7.13233
 20
22.0375
 11
7.14079
 21
21.9859
  0
LINE
  8
0
 10
7.14079
 20
21.9859
 11
7.17222
 21
21.8749
  0
LINE
  8
0
 10
7.17222
 20
21.8749
 11
7.18583
 21
21.8268
  0
LINE
  8
0
 10
7.18583
 20
21.8268
 11
7.22907
 21
21.7235
  0
LINE
  8
0
 10
7.22907
 20
21.7235
 11
7.24732
 21
21.6799
  0
LINE
  8
0
 10
7.24732
 20
21.6799
 11
7.30145
 21
21.5872
  0
LINE
  8
0
 10
7.30145
 20
21.5872
 11
7.32376
 21
21.549
  0
LINE
  8
0
 10
7.32376
 20
21.549
 11
7.41325
 21
21.4372
  0
LINE
  8
0
 10
7.41325
 20
21.4372
 11
7.51359
 21
21.3472
  0
LINE
  8
0
 10
7.51359
 20
21.3472
 11
7.59173
 21
21.2998
  0
LINE
  8
0
 10
7.59173
 20
21.2998
 11
7.62232
 21
21.2813
  0
LINE
  8
0
 10
7.62232
 20
21.2813
 11
7.70476
 21
21.2523
  0
LINE
  8
0
 10
7.70476
 20
21.2523
 11
7.73676
 21
21.2411
  0
LINE
  8
0
 10
7.73676
 20
21.2411
 11
7.85409
 21
21.2276
  0
LINE
  8
0
 10
7.85409
 20
21.2276
 11
11
 21
21.2276
  0
LINE
  8
0
 10
11
 20
21.2276
 11
11
 21
24.8617
  0
LINE
  8
0
 10
11
 20
24.8617
 11
7.85409
 21
24.8617
  0
LINE
  8
0
 10
7.85409
 20
24.8617
 11
7.73676
 21
24.8482
  0
LINE
  8
0
 10
7.73676
 20
24.8482
 11
7.66457
 21
24.8229
  0
LINE
  8
0
 10
7.66457
 20
24.8229
 11
7.62232
 21
24.808
  0
LINE
  8
0
 10
7.62232
 20
24.808
 11
7.55329
 21
24.7662
  0
LINE
  8
0
 10
7.55329
 20
24.7662
 11
7.51359
 21
24.7421
  0
LINE
  8
0
 10
7.51359
 20
24.7421
 11
7.44928
 21
24.6845
  0
LINE
  8
0
 10
7.44928
 20
24.6845
 11
7.41325
 21
24.6521
  0
LINE
  8
0
 10
7.41325
 20
24.6521
 11
7.32376
 21
24.5403
  0
LINE
  8
0
 10
7.32376
 20
24.5403
 11
7.24732
 21
24.4094
  0
LINE
  8
0
 10
7.24732
 20
24.4094
 11
7.20624
 21
24.3113
  0
LINE
  8
0
 10
7.20624
 20
24.3113
 11
7.18583
 21
24.2625
  0
LINE
  8
0
 10
7.18583
 20
24.2625
 11
7.14079
 21
24.1035
  0
LINE
  8
0
 10
7.14079
 20
24.1035
 11
7.12179
 21
23.9876
  0
LINE
  8
0
 10
7.12179
 20
23.9876
 11
7.11332
 21
23.936
  0
LINE
  8
0
 10
7.11332
 20
23.936
 11
7.10682
 21
23.8151
  0
LINE
  8
0
 10
7.10682
 20
23.8151
 11
7.10409
 21
23.7643
  0
LINE
  8
0
 10
7.10409
 20
23.7643
 11
7.10409
 21
22.325
  0
LINE
  8
0
 10
36.5
 20
0
 11
47.5
 21
0
  0
LINE
  8
0
 10
47.5
 20
0
 11
47.5
 21
3.5
  0
LINE
  8
0
 10
47.5
 20
3.5
 11
47
 21
4
  0
LINE
  8
0
 10
47
 20
4
 11
41.8959
 21
4
  0
LINE
  8
0
 10
41.8959
 20
4
 11
40.3959
 21
5.5
  0
LINE
  8
0
 10
40.3959
 20
5.5
 11
40.3959
 21
12.8776
  0
LINE
  8
0
 10
40.3959
 20
12.8776
 11
40.3956
 21
12.8826
  0
LINE
  8
0
 10
40.3956
 20
12.8826
 11
40.3867
 21
13.0353
  0
LINE
  8
0
 10
40.3867
 20
13.0353
 11
40.3792
 21
13.0769
  0
LINE
  8
0
 10
40.3792
 20
13.0769
 11
40.3592
 21
13.1891
  0
LINE
  8
0
 10
40.3592
 20
13.1891
 11
40.3358
 21
13.2651
  0
LINE
  8
0
 10
40.3358
 20
13.2651
 11
40.3142
 21
13.3353
  0
LINE
  8
0
 10
40.3142
 20
13.3353
 11
40.2671
 21
13.4386
  0
LINE
  8
0
 10
40.2671
 20
13.4386
 11
40.2527
 21
13.4702
  0
LINE
  8
0
 10
40.2527
 20
13.4702
 11
40.1765
 21
13.5901
  0
LINE
  8
0
 10
40.1765
 20
13.5901
 11
40.1762
 21
13.5905
  0
LINE
  8
0
 10
40.1762
 20
13.5905
 11
40.1748
 21
13.5921
  0
LINE
  8
0
 10
40.1748
 20
13.5921
 11
40.0871
 21
13.7017
  0
LINE
  8
0
 10
40.0871
 20
13.7017
 11
40.0868
 21
13.7022
  0
LINE
  8
0
 10
40.0868
 20
13.7022
 11
39.9871
 21
13.7915
  0
LINE
  8
0
 10
39.9871
 20
13.7915
 11
39.9864
 21
13.7921
  0
LINE
  8
0
 10
39.9864
 20
13.7921
 11
39.8787
 21
13.8574
  0
LINE
  8
0
 10
39.8787
 20
13.8574
 11
39.8777
 21
13.858
  0
LINE
  8
0
 10
39.8777
 20
13.858
 11
39.7645
 21
13.8978
  0
LINE
  8
0
 10
39.7645
 20
13.8978
 11
39.7632
 21
13.8982
  0
LINE
  8
0
 10
39.7632
 20
13.8982
 11
39.6459
 21
13.9117
  0
LINE
  8
0
 10
39.6459
 20
13.9117
 11
36.5
 21
13.9117
  0
LINE
  8
0
 10
36.5
 20
13.9117
 11
36.5
 21
0
  0
LINE
  8
0
 10
36.5
 20
21.2276
 11
39.6459
 21
21.2276
  0
LINE
  8
0
 10
39.6459
 20
21.2276
 11
39.7632
 21
21.2411
  0
LINE
  8
0
 10
39.7632
 20
21.2411
 11
39.8456
 21
21.27
  0
LINE
  8
0
 10
39.8456
 20
21.27
 11
39.8777
 21
21.2813
  0
LINE
  8
0
 10
39.8777
 20
21.2813
 11
39.9557
 21
21.3286
  0
LINE
  8
0
 10
39.9557
 20
21.3286
 11
39.9864
 21
21.3472
  0
LINE
  8
0
 10
39.9864
 20
21.3472
 11
40.0868
 21
21.4372
  0
LINE
  8
0
 10
40.0868
 20
21.4372
 11
40.1762
 21
21.549
  0
LINE
  8
0
 10
40.1762
 20
21.549
 11
40.2302
 21
21.6415
  0
LINE
  8
0
 10
40.2302
 20
21.6415
 11
40.2527
 21
21.6799
  0
LINE
  8
0
 10
40.2527
 20
21.6799
 11
40.2958
 21
21.7829
  0
LINE
  8
0
 10
40.2958
 20
21.7829
 11
40.3142
 21
21.8268
  0
LINE
  8
0
 10
40.3142
 20
21.8268
 11
40.3455
 21
21.9374
  0
LINE
  8
0
 10
40.3455
 20
21.9374
 11
40.3592
 21
21.9859
  0
LINE
  8
0
 10
40.3592
 20
21.9859
 11
40.3781
 21
22.1013
  0
LINE
  8
0
 10
40.3781
 20
22.1013
 11
40.3867
 21
22.1533
  0
LINE
  8
0
 10
40.3867
 20
22.1533
 11
40.393
 21
22.2706
  0
LINE
  8
0
 10
40.393
 20
22.2706
 11
40.3959
 21
22.325
  0
LINE
  8
0
 10
40.3959
 20
22.325
 11
40.3959
 21
23.7643
  0
LINE
  8
0
 10
40.3959
 20
23.7643
 11
40.3895
 21
23.8844
  0
LINE
  8
0
 10
40.3895
 20
23.8844
 11
40.3867
 21
23.936
  0
LINE
  8
0
 10
40.3867
 20
23.936
 11
40.3678
 21
24.0511
  0
LINE
  8
0
 10
40.3678
 20
24.0511
 11
40.3592
 21
24.1035
  0
LINE
  8
0
 10
40.3592
 20
24.1035
 11
40.3142
 21
24.2625
  0
LINE
  8
0
 10
40.3142
 20
24.2625
 11
40.2733
 21
24.3601
  0
LINE
  8
0
 10
40.2733
 20
24.3601
 11
40.2527
 21
24.4094
  0
LINE
  8
0
 10
40.2527
 20
24.4094
 11
40.1762
 21
24.5403
  0
LINE
  8
0
 10
40.1762
 20
24.5403
 11
40.0868
 21
24.6521
  0
LINE
  8
0
 10
40.0868
 20
24.6521
 11
40.0226
 21
24.7096
  0
LINE
  8
0
 10
40.0226
 20
24.7096
 11
39.9864
 21
24.7421
  0
LINE
  8
0
 10
39.9864
 20
24.7421
 11
39.9175
 21
24.7839
  0
LINE
  8
0
 10
39.9175
 20
24.7839
 11
39.8777
 21
24.808
  0
LINE
  8
0
 10
39.8777
 20
24.808
 11
39.8056
 21
24.8333
  0
LINE
  8
0
 10
39.8056
 20
24.8333
 11
39.7632
 21
24.8482
  0
LINE
  8
0
 10
39.7632
 20
24.8482
 11
39.6459
 21
24.8617
  0
LINE
  8
0
 10
39.6459
 20
24.8617
 11
36.5
 21
24.8617
  0
LINE
  8
0
 10
36.5
 20
24.8617
 11
36.5
 21
21.2276
  0
LINE
  8
0
 10
36.5
 20
32.1776
 11
39.6459
 21
32.1776
  0
LINE
  8
0
 10
39.6459
 20
32.1776
 11
39.6569
 21
32.1788
  0
LINE
  8
0
 10
39.6569
 20
32.1788
 11
39.7632
 21
32.1911
  0
LINE
  8
0
 10
39.7632
 20
32.1911
 11
39.7738
 21
32.1948
  0
LINE
  8
0
 10
39.7738
 20
32.1948
 11
39.8777
 21
32.2313
  0
LINE
  8
0
 10
39.8777
 20
32.2313
 11
39.8874
 21
32.2372
  0
LINE
  8
0
 10
39.8874
 20
32.2372
 11
39.9864
 21
32.2972
  0
LINE
  8
0
 10
39.9864
 20
32.2972
 11
40.0868
 21
32.3871
  0
LINE
  8
0
 10
40.0868
 20
32.3871
 11
40.0937
 21
32.3959
  0
LINE
  8
0
 10
40.0937
 20
32.3959
 11
40.1762
 21
32.499
  0
LINE
  8
0
 10
40.1762
 20
32.499
 11
40.1816
 21
32.5081
  0
LINE
  8
0
 10
40.1816
 20
32.5081
 11
40.2527
 21
32.6299
  0
LINE
  8
0
 10
40.2527
 20
32.6299
 11
40.2564
 21
32.6388
  0
LINE
  8
0
 10
40.2564
 20
32.6388
 11
40.3142
 21
32.7767
  0
LINE
  8
0
 10
40.3142
 20
32.7767
 11
40.3164
 21
32.7846
  0
LINE
  8
0
 10
40.3164
 20
32.7846
 11
40.3592
 21
32.9358
  0
LINE
  8
0
 10
40.3592
 20
32.9358
 11
40.3602
 21
32.9422
  0
LINE
  8
0
 10
40.3602
 20
32.9422
 11
40.3867
 21
33.1033
  0
LINE
  8
0
 10
40.3867
 20
33.1033
 11
40.3869
 21
33.1077
  0
LINE
  8
0
 10
40.3869
 20
33.1077
 11
40.3959
 21
33.2749
  0
LINE
  8
0
 10
40.3959
 20
33.2749
 11
40.3959
 21
40
  0
LINE
  8
0
 10
40.3959
 20
40
 11
41.8959
 21
41.5
  0
LINE
  8
0
 10
41.8959
 20
41.5
 11
47
 21
41.5
  0
LINE
  8
0
 10
47
 20
41.5
 11
47.5
 21
42
  0
LINE
  8
0
 10
47.5
 20
42
 11
47.5
 21
45.5
  0
LINE
  8
0
 10
47.5
 20
45.5
 11
36.5
 21
45.5
  0
LINE
  8
0
 10
36.5
 20
45.5
 11
36.5
 21
32.1776
  0
ENDSEC
  0
SECTION
  2
OBJECTS
  0
DICTIONARY
  0
ENDSEC
  0
EOF
