  0
SECTION
  2
BLOCKS
  0
ENDSEC
  0
SECTION
  2
ENTITIES
  0
LINE
  8
0
 10
0
 20
0
 11
11
 21
0
  0
LINE
  8
0
 10
11
 20
0
 11
11
 21
13.2498
  0
LINE
  8
0
 10
11
 20
13.2498
 11
7.85409
 21
13.2498
  0
LINE
  8
0
 10
7.85409
 20
13.2498
 11
7.84972
 21
13.2494
  0
LINE
  8
0
 10
7.84972
 20
13.2494
 11
7.73676
 21
13.2389
  0
LINE
  8
0
 10
7.73676
 20
13.2389
 11
7.734
 21
13.2381
  0
LINE
  8
0
 10
7.734
 20
13.2381
 11
7.65824
 21
13.2166
  0
LINE
  8
0
 10
7.65824
 20
13.2166
 11
7.6235
 21
13.2075
  0
LINE
  8
0
 10
7.6235
 20
13.2075
 11
7.62232
 21
13.2072
  0
LINE
  8
0
 10
7.62232
 20
13.2072
 11
7.52032
 21
13.1614
  0
LINE
  8
0
 10
7.52032
 20
13.1614
 11
7.51359
 21
13.1584
  0
LINE
  8
0
 10
7.51359
 20
13.1584
 11
7.42612
 21
13.1003
  0
LINE
  8
0
 10
7.42612
 20
13.1003
 11
7.41325
 21
13.0917
  0
LINE
  8
0
 10
7.41325
 20
13.0917
 11
7.34214
 21
13.0259
  0
LINE
  8
0
 10
7.34214
 20
13.0259
 11
7.32376
 21
13.0088
  0
LINE
  8
0
 10
7.32376
 20
13.0088
 11
7.26946
 21
12.9399
  0
LINE
  8
0
 10
7.26946
 20
12.9399
 11
7.24732
 21
12.9118
  0
LINE
  8
0
 10
7.24732
 20
12.9118
 11
7.20904
 21
12.8441
  0
LINE
  8
0
 10
7.20904
 20
12.8441
 11
7.18583
 21
12.803
  0
LINE
  8
0
 10
7.18583
 20
12.803
 11
7.16179
 21
12.7401
  0
LINE
  8
0
 10
7.16179
 20
12.7401
 11
7.14079
 21
12.6851
  0
LINE
  8
0
 10
7.14079
 20
12.6851
 11
7.12853
 21
12.6297
  0
LINE
  8
0
 10
7.12853
 20
12.6297
 11
7.11332
 21
12.561
  0
LINE
  8
0
 10
7.11332
 20
12.561
 11
7.10997
 21
12.5149
  0
LINE
  8
0
 10
7.10997
 20
12.5149
 11
7.10409
 21
12.4338
  0
LINE
  8
0
 10
7.10409
 20
12.4338
 11
7.10409
 21
5.5
  0
LINE
  8
0
 10
7.10409
 20
5.5
 11
5.60409
 21
4
  0
LINE
  8
0
 10
5.60409
 20
4
 11
0.499999
 21
4
  0
LINE
  8
0
 10
0.499999
 20
4
 11
0
 21
3.5
  0
LINE
  8
0
 10
0
 20
3.5
 11
0
 21
0
  0
LINE
  8
0
 10
0
 20
42
 11
0.499999
 21
41.5
  0
LINE
  8
0
 10
0.499999
 20
41.5
 11
5.60409
 21
41.5
  0
LINE
  8
0
 10
5.60409
 20
41.5
 11
7.10409
 21
40
  0
LINE
  8
0
 10
7.10409
 20
40
 11
7.10409
 21
32.4205
  0
LINE
  8
0
 10
7.10409
 20
32.4205
 11
7.10531
 21
32.3977
  0
LINE
  8
0
 10
7.10531
 20
32.3977
 11
7.11332
 21
32.2488
  0
LINE
  8
0
 10
7.11332
 20
32.2488
 11
7.11731
 21
32.2245
  0
LINE
  8
0
 10
7.11731
 20
32.2245
 11
7.14079
 21
32.0813
  0
LINE
  8
0
 10
7.14079
 20
32.0813
 11
7.14789
 21
32.0563
  0
LINE
  8
0
 10
7.14789
 20
32.0563
 11
7.18583
 21
31.9223
  0
LINE
  8
0
 10
7.18583
 20
31.9223
 11
7.19623
 21
31.8974
  0
LINE
  8
0
 10
7.19623
 20
31.8974
 11
7.24732
 21
31.7754
  0
LINE
  8
0
 10
7.24732
 20
31.7754
 11
7.26106
 21
31.7519
  0
LINE
  8
0
 10
7.26106
 20
31.7519
 11
7.32376
 21
31.6445
  0
LINE
  8
0
 10
7.32376
 20
31.6445
 11
7.34067
 21
31.6233
  0
LINE
  8
0
 10
7.34067
 20
31.6233
 11
7.41325
 21
31.5327
  0
LINE
  8
0
 10
7.41325
 20
31.5327
 11
7.51359
 21
31.4427
  0
LINE
  8
0
 10
7.51359
 20
31.4427
 11
7.53569
 21
31.4293
  0
LINE
  8
0
 10
7.53569
 20
31.4293
 11
7.62232
 21
31.3768
  0
LINE
  8
0
 10
7.62232
 20
31.3768
 11
7.64609
 21
31.3684
  0
LINE
  8
0
 10
7.64609
 20
31.3684
 11
7.73676
 21
31.3366
  0
LINE
  8
0
 10
7.73676
 20
31.3366
 11
7.76142
 21
31.3337
  0
LINE
  8
0
 10
7.76142
 20
31.3337
 11
7.85409
 21
31.3231
  0
LINE
  8
0
 10
7.85409
 20
31.3231
 11
11
 21
31.3231
  0
LINE
  8
0
 10
11
 20
31.3231
 11
11
 21
45.5
  0
LINE
  8
0
 10
11
 20
45.5
 11
0
 21
45.5
  0
LINE
  8
0
 10
0
 20
45.5
 11
0
 21
42
  0
LINE
  8
0
 10
7.10409
 20
21.4705
 11
7.11096
 21
21.3427
  0
LINE
  8
0
 10
7.11096
 20
21.3427
 11
7.11332
 21
21.2988
  0
LINE
  8
0
 10
7.11332
 20
21.2988
 11
7.13394
 21
21.1731
  0
LINE
  8
0
 10
7.13394
 20
21.1731
 11
7.14079
 21
21.1314
  0
LINE
  8
0
 10
7.14079
 20
21.1314
 11
7.17487
 21
21.011
  0
LINE
  8
0
 10
7.17487
 20
21.011
 11
7.18583
 21
20.9723
  0
LINE
  8
0
 10
7.18583
 20
20.9723
 11
7.23269
 21
20.8604
  0
LINE
  8
0
 10
7.23269
 20
20.8604
 11
7.24732
 21
20.8254
  0
LINE
  8
0
 10
7.24732
 20
20.8254
 11
7.30595
 21
20.725
  0
LINE
  8
0
 10
7.30595
 20
20.725
 11
7.32376
 21
20.6945
  0
LINE
  8
0
 10
7.32376
 20
20.6945
 11
7.41325
 21
20.5827
  0
LINE
  8
0
 10
7.41325
 20
20.5827
 11
7.51359
 21
20.4927
  0
LINE
  8
0
 10
7.51359
 20
20.4927
 11
7.59811
 21
20.4415
  0
LINE
  8
0
 10
7.59811
 20
20.4415
 11
7.62232
 21
20.4268
  0
LINE
  8
0
 10
7.62232
 20
20.4268
 11
7.71147
 21
20.3955
  0
LINE
  8
0
 10
7.71147
 20
20.3955
 11
7.73676
 21
20.3866
  0
LINE
  8
0
 10
7.73676
 20
20.3866
 11
7.85409
 21
20.3731
  0
LINE
  8
0
 10
7.85409
 20
20.3731
 11
11
 21
20.3731
  0
LINE
  8
0
 10
11
 20
20.3731
 11
11
 21
24.0072
  0
LINE
  8
0
 10
11
 20
24.0072
 11
7.85409
 21
24.0072
  0
LINE
  8
0
 10
7.85409
 20
24.0072
 11
7.73676
 21
23.9937
  0
LINE
  8
0
 10
7.73676
 20
23.9937
 11
7.65114
 21
23.9636
  0
LINE
  8
0
 10
7.65114
 20
23.9636
 11
7.62232
 21
23.9535
  0
LINE
  8
0
 10
7.62232
 20
23.9535
 11
7.5405
 21
23.9039
  0
LINE
  8
0
 10
7.5405
 20
23.9039
 11
7.51359
 21
23.8876
  0
LINE
  8
0
 10
7.51359
 20
23.8876
 11
7.43746
 21
23.8194
  0
LINE
  8
0
 10
7.43746
 20
23.8194
 11
7.41325
 21
23.7977
  0
LINE
  8
0
 10
7.41325
 20
23.7977
 11
7.32376
 21
23.6858
  0
LINE
  8
0
 10
7.32376
 20
23.6858
 11
7.24732
 21
23.5549
  0
LINE
  8
0
 10
7.24732
 20
23.5549
 11
7.19896
 21
23.4394
  0
LINE
  8
0
 10
7.19896
 20
23.4394
 11
7.18583
 21
23.4081
  0
LINE
  8
0
 10
7.18583
 20
23.4081
 11
7.14079
 21
23.249
  0
LINE
  8
0
 10
7.14079
 20
23.249
 11
7.11853
 21
23.1133
  0
LINE
  8
0
 10
7.11853
 20
23.1133
 11
7.11332
 21
23.0815
  0
LINE
  8
0
 10
7.11332
 20
23.0815
 11
7.10572
 21
22.9403
  0
LINE
  8
0
 10
7.10572
 20
22.9403
 11
7.10409
 21
22.9099
  0
LINE
  8
0
 10
7.10409
 20
22.9099
 11
7.10409
 21
21.4705
  0
LINE
  8
0
 10
36.5
 20
0
 11
47.5
 21
0
  0
LINE
  8
0
 10
47.5
 20
0
 11
47.5
 21
3.5
  0
LINE
  8
0
 10
47.5
 20
3.5
 11
47
 21
4
  0
LINE
  8
0
 10
47
 20
4
 11
41.8959
 21
4
  0
LINE
  8
0
 10
41.8959
 20
4
 11
40.3959
 21
5.5
  0
LINE
  8
0
 10
40.3959
 20
5.5
 11
40.3959
 21
12.4338
  0
LINE
  8
0
 10
40.3959
 20
12.4338
 11
40.3926
 21
12.4788
  0
LINE
  8
0
 10
40.3926
 20
12.4788
 11
40.3867
 21
12.561
  0
LINE
  8
0
 10
40.3867
 20
12.561
 11
40.3742
 21
12.6176
  0
LINE
  8
0
 10
40.3742
 20
12.6176
 11
40.3592
 21
12.6851
  0
LINE
  8
0
 10
40.3592
 20
12.6851
 11
40.3339
 21
12.7513
  0
LINE
  8
0
 10
40.3339
 20
12.7513
 11
40.3142
 21
12.803
  0
LINE
  8
0
 10
40.3142
 20
12.803
 11
40.2732
 21
12.8755
  0
LINE
  8
0
 10
40.2732
 20
12.8755
 11
40.2527
 21
12.9118
  0
LINE
  8
0
 10
40.2527
 20
12.9118
 11
40.1941
 21
12.9862
  0
LINE
  8
0
 10
40.1941
 20
12.9862
 11
40.1762
 21
13.0088
  0
LINE
  8
0
 10
40.1762
 20
13.0088
 11
40.0996
 21
13.0799
  0
LINE
  8
0
 10
40.0996
 20
13.0799
 11
40.0868
 21
13.0917
  0
LINE
  8
0
 10
40.0868
 20
13.0917
 11
39.9932
 21
13.1539
  0
LINE
  8
0
 10
39.9932
 20
13.1539
 11
39.9864
 21
13.1584
  0
LINE
  8
0
 10
39.9864
 20
13.1584
 11
39.8789
 21
13.2067
  0
LINE
  8
0
 10
39.8789
 20
13.2067
 11
39.8777
 21
13.2072
  0
LINE
  8
0
 10
39.8777
 20
13.2072
 11
39.8418
 21
13.2166
  0
LINE
  8
0
 10
39.8418
 20
13.2166
 11
39.7632
 21
13.2389
  0
LINE
  8
0
 10
39.7632
 20
13.2389
 11
39.7602
 21
13.2392
  0
LINE
  8
0
 10
39.7602
 20
13.2392
 11
39.6459
 21
13.2498
  0
LINE
  8
0
 10
39.6459
 20
13.2498
 11
36.5
 21
13.2498
  0
LINE
  8
0
 10
36.5
 20
13.2498
 11
36.5
 21
0
  0
LINE
  8
0
 10
36.5
 20
20.3731
 11
39.6459
 21
20.3731
  0
LINE
  8
0
 10
39.6459
 20
20.3731
 11
39.7632
 21
20.3866
  0
LINE
  8
0
 10
39.7632
 20
20.3866
 11
39.8523
 21
20.4179
  0
LINE
  8
0
 10
39.8523
 20
20.4179
 11
39.8777
 21
20.4268
  0
LINE
  8
0
 10
39.8777
 20
20.4268
 11
39.962
 21
20.4779
  0
LINE
  8
0
 10
39.962
 20
20.4779
 11
39.9864
 21
20.4927
  0
LINE
  8
0
 10
39.9864
 20
20.4927
 11
40.0868
 21
20.5827
  0
LINE
  8
0
 10
40.0868
 20
20.5827
 11
40.1762
 21
20.6945
  0
LINE
  8
0
 10
40.1762
 20
20.6945
 11
40.2347
 21
20.7946
  0
LINE
  8
0
 10
40.2347
 20
20.7946
 11
40.2527
 21
20.8254
  0
LINE
  8
0
 10
40.2527
 20
20.8254
 11
40.2994
 21
20.9369
  0
LINE
  8
0
 10
40.2994
 20
20.9369
 11
40.3142
 21
20.9723
  0
LINE
  8
0
 10
40.3142
 20
20.9723
 11
40.3481
 21
21.0922
  0
LINE
  8
0
 10
40.3481
 20
21.0922
 11
40.3592
 21
21.1314
  0
LINE
  8
0
 10
40.3592
 20
21.1314
 11
40.3797
 21
21.2565
  0
LINE
  8
0
 10
40.3797
 20
21.2565
 11
40.3867
 21
21.2988
  0
LINE
  8
0
 10
40.3867
 20
21.2988
 11
40.3935
 21
21.4261
  0
LINE
  8
0
 10
40.3935
 20
21.4261
 11
40.3959
 21
21.4705
  0
LINE
  8
0
 10
40.3959
 20
21.4705
 11
40.3959
 21
22.9099
  0
LINE
  8
0
 10
40.3959
 20
22.9099
 11
40.3884
 21
23.0498
  0
LINE
  8
0
 10
40.3884
 20
23.0498
 11
40.3867
 21
23.0815
  0
LINE
  8
0
 10
40.3867
 20
23.0815
 11
40.3646
 21
23.2159
  0
LINE
  8
0
 10
40.3646
 20
23.2159
 11
40.3592
 21
23.249
  0
LINE
  8
0
 10
40.3592
 20
23.249
 11
40.3142
 21
23.4081
  0
LINE
  8
0
 10
40.3142
 20
23.4081
 11
40.2662
 21
23.5226
  0
LINE
  8
0
 10
40.2662
 20
23.5226
 11
40.2527
 21
23.5549
  0
LINE
  8
0
 10
40.2527
 20
23.5549
 11
40.1762
 21
23.6858
  0
LINE
  8
0
 10
40.1762
 20
23.6858
 11
40.0868
 21
23.7977
  0
LINE
  8
0
 10
40.0868
 20
23.7977
 11
40.011
 21
23.8656
  0
LINE
  8
0
 10
40.011
 20
23.8656
 11
39.9864
 21
23.8876
  0
LINE
  8
0
 10
39.9864
 20
23.8876
 11
39.9048
 21
23.9371
  0
LINE
  8
0
 10
39.9048
 20
23.9371
 11
39.8777
 21
23.9535
  0
LINE
  8
0
 10
39.8777
 20
23.9535
 11
39.7922
 21
23.9835
  0
LINE
  8
0
 10
39.7922
 20
23.9835
 11
39.7632
 21
23.9937
  0
LINE
  8
0
 10
39.7632
 20
23.9937
 11
39.6459
 21
24.0072
  0
LINE
  8
0
 10
39.6459
 20
24.0072
 11
36.5
 21
24.0072
  0
LINE
  8
0
 10
36.5
 20
24.0072
 11
36.5
 21
20.3731
  0
LINE
  8
0
 10
36.5
 20
31.3231
 11
39.6459
 21
31.3231
  0
LINE
  8
0
 10
39.6459
 20
31.3231
 11
39.6706
 21
31.3259
  0
LINE
  8
0
 10
39.6706
 20
31.3259
 11
39.7632
 21
31.3366
  0
LINE
  8
0
 10
39.7632
 20
31.3366
 11
39.7872
 21
31.345
  0
LINE
  8
0
 10
39.7872
 20
31.345
 11
39.8777
 21
31.3768
  0
LINE
  8
0
 10
39.8777
 20
31.3768
 11
39.9001
 21
31.3904
  0
LINE
  8
0
 10
39.9001
 20
31.3904
 11
39.9864
 21
31.4427
  0
LINE
  8
0
 10
39.9864
 20
31.4427
 11
40.0868
 21
31.5327
  0
LINE
  8
0
 10
40.0868
 20
31.5327
 11
40.1041
 21
31.5544
  0
LINE
  8
0
 10
40.1041
 20
31.5544
 11
40.1762
 21
31.6445
  0
LINE
  8
0
 10
40.1762
 20
31.6445
 11
40.1904
 21
31.6688
  0
LINE
  8
0
 10
40.1904
 20
31.6688
 11
40.2527
 21
31.7754
  0
LINE
  8
0
 10
40.2527
 20
31.7754
 11
40.2635
 21
31.8013
  0
LINE
  8
0
 10
40.2635
 20
31.8013
 11
40.3142
 21
31.9223
  0
LINE
  8
0
 10
40.3142
 20
31.9223
 11
40.3216
 21
31.9486
  0
LINE
  8
0
 10
40.3216
 20
31.9486
 11
40.3592
 21
32.0813
  0
LINE
  8
0
 10
40.3592
 20
32.0813
 11
40.3634
 21
32.1071
  0
LINE
  8
0
 10
40.3634
 20
32.1071
 11
40.3867
 21
32.2488
  0
LINE
  8
0
 10
40.3867
 20
32.2488
 11
40.388
 21
32.2731
  0
LINE
  8
0
 10
40.388
 20
32.2731
 11
40.3959
 21
32.4205
  0
LINE
  8
0
 10
40.3959
 20
32.4205
 11
40.3959
 21
40
  0
LINE
  8
0
 10
40.3959
 20
40
 11
41.8959
 21
41.5
  0
LINE
  8
0
 10
41.8959
 20
41.5
 11
47
 21
41.5
  0
LINE
  8
0
 10
47
 20
41.5
 11
47.5
 21
42
  0
LINE
  8
0
 10
47.5
 20
42
 11
47.5
 21
45.5
  0
LINE
  8
0
 10
47.5
 20
45.5
 11
36.5
 21
45.5
  0
LINE
  8
0
 10
36.5
 20
45.5
 11
36.5
 21
31.3231
  0
ENDSEC
  0
SECTION
  2
OBJECTS
  0
DICTIONARY
  0
ENDSEC
  0
EOF
