  0
SECTION
  2
BLOCKS
  0
ENDSEC
  0
SECTION
  2
ENTITIES
  0
LINE
  8
0
 10
0
 20
0
 11
11
 21
0
  0
LINE
  8
0
 10
11
 20
0
 11
11
 21
13.1613
  0
LINE
  8
0
 10
11
 20
13.1613
 11
7.85409
 21
13.1613
  0
LINE
  8
0
 10
7.85409
 20
13.1613
 11
7.7952
 21
13.1563
  0
LINE
  8
0
 10
7.7952
 20
13.1563
 11
7.73676
 21
13.1513
  0
LINE
  8
0
 10
7.73676
 20
13.1513
 11
7.68162
 21
13.1369
  0
LINE
  8
0
 10
7.68162
 20
13.1369
 11
7.62232
 21
13.1215
  0
LINE
  8
0
 10
7.62232
 20
13.1215
 11
7.57386
 21
13.0997
  0
LINE
  8
0
 10
7.57386
 20
13.0997
 11
7.51359
 21
13.0727
  0
LINE
  8
0
 10
7.51359
 20
13.0727
 11
7.47382
 21
13.0462
  0
LINE
  8
0
 10
7.47382
 20
13.0462
 11
7.41325
 21
13.006
  0
LINE
  8
0
 10
7.41325
 20
13.006
 11
7.38309
 21
12.9781
  0
LINE
  8
0
 10
7.38309
 20
12.9781
 11
7.32376
 21
12.9231
  0
LINE
  8
0
 10
7.32376
 20
12.9231
 11
7.30307
 21
12.8969
  0
LINE
  8
0
 10
7.30307
 20
12.8969
 11
7.24732
 21
12.8261
  0
LINE
  8
0
 10
7.24732
 20
12.8261
 11
7.23502
 21
12.8043
  0
LINE
  8
0
 10
7.23502
 20
12.8043
 11
7.18583
 21
12.7173
  0
LINE
  8
0
 10
7.18583
 20
12.7173
 11
7.18008
 21
12.7022
  0
LINE
  8
0
 10
7.18008
 20
12.7022
 11
7.14079
 21
12.5994
  0
LINE
  8
0
 10
7.14079
 20
12.5994
 11
7.13926
 21
12.5925
  0
LINE
  8
0
 10
7.13926
 20
12.5925
 11
7.11918
 21
12.5018
  0
LINE
  8
0
 10
7.11918
 20
12.5018
 11
7.11373
 21
12.4785
  0
LINE
  8
0
 10
7.11373
 20
12.4785
 11
7.11332
 21
12.4767
  0
LINE
  8
0
 10
7.11332
 20
12.4767
 11
7.10486
 21
12.3664
  0
LINE
  8
0
 10
7.10486
 20
12.3664
 11
7.10409
 21
12.3564
  0
LINE
  8
0
 10
7.10409
 20
12.3564
 11
7.10409
 21
5.5
  0
LINE
  8
0
 10
7.10409
 20
5.5
 11
5.60409
 21
4
  0
LINE
  8
0
 10
5.60409
 20
4
 11
0.499999
 21
4
  0
LINE
  8
0
 10
0.499999
 20
4
 11
0
 21
3.5
  0
LINE
  8
0
 10
0
 20
3.5
 11
0
 21
0
  0
LINE
  8
0
 10
0
 20
42
 11
0.499999
 21
41.5
  0
LINE
  8
0
 10
0.499999
 20
41.5
 11
5.60409
 21
41.5
  0
LINE
  8
0
 10
5.60409
 20
41.5
 11
7.10409
 21
40
  0
LINE
  8
0
 10
7.10409
 20
40
 11
7.10409
 21
32.2068
  0
LINE
  8
0
 10
7.10409
 20
32.2068
 11
7.10558
 21
32.179
  0
LINE
  8
0
 10
7.10558
 20
32.179
 11
7.11332
 21
32.0352
  0
LINE
  8
0
 10
7.11332
 20
32.0352
 11
7.11812
 21
32.0059
  0
LINE
  8
0
 10
7.11812
 20
32.0059
 11
7.14079
 21
31.8677
  0
LINE
  8
0
 10
7.14079
 20
31.8677
 11
7.14922
 21
31.838
  0
LINE
  8
0
 10
7.14922
 20
31.838
 11
7.18583
 21
31.7086
  0
LINE
  8
0
 10
7.18583
 20
31.7086
 11
7.19804
 21
31.6795
  0
LINE
  8
0
 10
7.19804
 20
31.6795
 11
7.24732
 21
31.5618
  0
LINE
  8
0
 10
7.24732
 20
31.5618
 11
7.26331
 21
31.5344
  0
LINE
  8
0
 10
7.26331
 20
31.5344
 11
7.32376
 21
31.4309
  0
LINE
  8
0
 10
7.32376
 20
31.4309
 11
7.34331
 21
31.4064
  0
LINE
  8
0
 10
7.34331
 20
31.4064
 11
7.41325
 21
31.319
  0
LINE
  8
0
 10
7.41325
 20
31.319
 11
7.51359
 21
31.2291
  0
LINE
  8
0
 10
7.51359
 20
31.2291
 11
7.53889
 21
31.2137
  0
LINE
  8
0
 10
7.53889
 20
31.2137
 11
7.62232
 21
31.1632
  0
LINE
  8
0
 10
7.62232
 20
31.1632
 11
7.64945
 21
31.1536
  0
LINE
  8
0
 10
7.64945
 20
31.1536
 11
7.73676
 21
31.123
  0
LINE
  8
0
 10
7.73676
 20
31.123
 11
7.76486
 21
31.1197
  0
LINE
  8
0
 10
7.76486
 20
31.1197
 11
7.85409
 21
31.1095
  0
LINE
  8
0
 10
7.85409
 20
31.1095
 11
11
 21
31.1095
  0
LINE
  8
0
 10
11
 20
31.1095
 11
11
 21
45.5
  0
LINE
  8
0
 10
11
 20
45.5
 11
0
 21
45.5
  0
LINE
  8
0
 10
0
 20
45.5
 11
0
 21
42
  0
LINE
  8
0
 10
7.10409
 20
21.2568
 11
7.1111
 21
21.1265
  0
LINE
  8
0
 10
7.1111
 20
21.1265
 11
7.11332
 21
21.0852
  0
LINE
  8
0
 10
7.11332
 20
21.0852
 11
7.13435
 21
20.957
  0
LINE
  8
0
 10
7.13435
 20
20.957
 11
7.14079
 21
20.9177
  0
LINE
  8
0
 10
7.14079
 20
20.9177
 11
7.17553
 21
20.795
  0
LINE
  8
0
 10
7.17553
 20
20.795
 11
7.18583
 21
20.7586
  0
LINE
  8
0
 10
7.18583
 20
20.7586
 11
7.2336
 21
20.6446
  0
LINE
  8
0
 10
7.2336
 20
20.6446
 11
7.24732
 21
20.6118
  0
LINE
  8
0
 10
7.24732
 20
20.6118
 11
7.30707
 21
20.5095
  0
LINE
  8
0
 10
7.30707
 20
20.5095
 11
7.32376
 21
20.4809
  0
LINE
  8
0
 10
7.32376
 20
20.4809
 11
7.41325
 21
20.3691
  0
LINE
  8
0
 10
7.41325
 20
20.3691
 11
7.51359
 21
20.2791
  0
LINE
  8
0
 10
7.51359
 20
20.2791
 11
7.59971
 21
20.2269
  0
LINE
  8
0
 10
7.59971
 20
20.2269
 11
7.62232
 21
20.2132
  0
LINE
  8
0
 10
7.62232
 20
20.2132
 11
7.71315
 21
20.1813
  0
LINE
  8
0
 10
7.71315
 20
20.1813
 11
7.73676
 21
20.173
  0
LINE
  8
0
 10
7.73676
 20
20.173
 11
7.85409
 21
20.1595
  0
LINE
  8
0
 10
7.85409
 20
20.1595
 11
11
 21
20.1595
  0
LINE
  8
0
 10
11
 20
20.1595
 11
11
 21
23.7936
  0
LINE
  8
0
 10
11
 20
23.7936
 11
7.85409
 21
23.7936
  0
LINE
  8
0
 10
7.85409
 20
23.7936
 11
7.73676
 21
23.7801
  0
LINE
  8
0
 10
7.73676
 20
23.7801
 11
7.64778
 21
23.7488
  0
LINE
  8
0
 10
7.64778
 20
23.7488
 11
7.62232
 21
23.7399
  0
LINE
  8
0
 10
7.62232
 20
23.7399
 11
7.5373
 21
23.6884
  0
LINE
  8
0
 10
7.5373
 20
23.6884
 11
7.51359
 21
23.674
  0
LINE
  8
0
 10
7.51359
 20
23.674
 11
7.4345
 21
23.6031
  0
LINE
  8
0
 10
7.4345
 20
23.6031
 11
7.41325
 21
23.584
  0
LINE
  8
0
 10
7.41325
 20
23.584
 11
7.32376
 21
23.4722
  0
LINE
  8
0
 10
7.32376
 20
23.4722
 11
7.24732
 21
23.3413
  0
LINE
  8
0
 10
7.24732
 20
23.3413
 11
7.19714
 21
23.2214
  0
LINE
  8
0
 10
7.19714
 20
23.2214
 11
7.18583
 21
23.1944
  0
LINE
  8
0
 10
7.18583
 20
23.1944
 11
7.14079
 21
23.0353
  0
LINE
  8
0
 10
7.14079
 20
23.0353
 11
7.11772
 21
22.8947
  0
LINE
  8
0
 10
7.11772
 20
22.8947
 11
7.11332
 21
22.8679
  0
LINE
  8
0
 10
7.11332
 20
22.8679
 11
7.10545
 21
22.7215
  0
LINE
  8
0
 10
7.10545
 20
22.7215
 11
7.10409
 21
22.6962
  0
LINE
  8
0
 10
7.10409
 20
22.6962
 11
7.10409
 21
21.2568
  0
LINE
  8
0
 10
36.5
 20
0
 11
47.5
 21
0
  0
LINE
  8
0
 10
47.5
 20
0
 11
47.5
 21
3.5
  0
LINE
  8
0
 10
47.5
 20
3.5
 11
47
 21
4
  0
LINE
  8
0
 10
47
 20
4
 11
41.8959
 21
4
  0
LINE
  8
0
 10
41.8959
 20
4
 11
40.3959
 21
5.5
  0
LINE
  8
0
 10
40.3959
 20
5.5
 11
40.3959
 21
12.3564
  0
LINE
  8
0
 10
40.3959
 20
12.3564
 11
40.3868
 21
12.4748
  0
LINE
  8
0
 10
40.3868
 20
12.4748
 11
40.3867
 21
12.4767
  0
LINE
  8
0
 10
40.3867
 20
12.4767
 11
40.3808
 21
12.5018
  0
LINE
  8
0
 10
40.3808
 20
12.5018
 11
40.3592
 21
12.5994
  0
LINE
  8
0
 10
40.3592
 20
12.5994
 11
40.356
 21
12.6076
  0
LINE
  8
0
 10
40.356
 20
12.6076
 11
40.3142
 21
12.7173
  0
LINE
  8
0
 10
40.3142
 20
12.7173
 11
40.3044
 21
12.7346
  0
LINE
  8
0
 10
40.3044
 20
12.7346
 11
40.2527
 21
12.8261
  0
LINE
  8
0
 10
40.2527
 20
12.8261
 11
40.2338
 21
12.85
  0
LINE
  8
0
 10
40.2338
 20
12.85
 11
40.1762
 21
12.9231
  0
LINE
  8
0
 10
40.1762
 20
12.9231
 11
40.147
 21
12.9502
  0
LINE
  8
0
 10
40.147
 20
12.9502
 11
40.0868
 21
13.006
  0
LINE
  8
0
 10
40.0868
 20
13.006
 11
40.0471
 21
13.0324
  0
LINE
  8
0
 10
40.0471
 20
13.0324
 11
39.9864
 21
13.0727
  0
LINE
  8
0
 10
39.9864
 20
13.0727
 11
39.9375
 21
13.0946
  0
LINE
  8
0
 10
39.9375
 20
13.0946
 11
39.8777
 21
13.1215
  0
LINE
  8
0
 10
39.8777
 20
13.1215
 11
39.822
 21
13.136
  0
LINE
  8
0
 10
39.822
 20
13.136
 11
39.7632
 21
13.1513
  0
LINE
  8
0
 10
39.7632
 20
13.1513
 11
39.7041
 21
13.1563
  0
LINE
  8
0
 10
39.7041
 20
13.1563
 11
39.6459
 21
13.1613
  0
LINE
  8
0
 10
39.6459
 20
13.1613
 11
36.5
 21
13.1613
  0
LINE
  8
0
 10
36.5
 20
13.1613
 11
36.5
 21
0
  0
LINE
  8
0
 10
36.5
 20
20.1595
 11
39.6459
 21
20.1595
  0
LINE
  8
0
 10
39.6459
 20
20.1595
 11
39.7632
 21
20.173
  0
LINE
  8
0
 10
39.7632
 20
20.173
 11
39.854
 21
20.2049
  0
LINE
  8
0
 10
39.854
 20
20.2049
 11
39.8777
 21
20.2132
  0
LINE
  8
0
 10
39.8777
 20
20.2132
 11
39.9636
 21
20.2653
  0
LINE
  8
0
 10
39.9636
 20
20.2653
 11
39.9864
 21
20.2791
  0
LINE
  8
0
 10
39.9864
 20
20.2791
 11
40.0868
 21
20.3691
  0
LINE
  8
0
 10
40.0868
 20
20.3691
 11
40.1762
 21
20.4809
  0
LINE
  8
0
 10
40.1762
 20
20.4809
 11
40.2358
 21
20.5829
  0
LINE
  8
0
 10
40.2358
 20
20.5829
 11
40.2527
 21
20.6118
  0
LINE
  8
0
 10
40.2527
 20
20.6118
 11
40.3003
 21
20.7254
  0
LINE
  8
0
 10
40.3003
 20
20.7254
 11
40.3142
 21
20.7586
  0
LINE
  8
0
 10
40.3142
 20
20.7586
 11
40.3488
 21
20.8809
  0
LINE
  8
0
 10
40.3488
 20
20.8809
 11
40.3592
 21
20.9177
  0
LINE
  8
0
 10
40.3592
 20
20.9177
 11
40.3801
 21
21.0454
  0
LINE
  8
0
 10
40.3801
 20
21.0454
 11
40.3867
 21
21.0852
  0
LINE
  8
0
 10
40.3867
 20
21.0852
 11
40.3937
 21
21.2149
  0
LINE
  8
0
 10
40.3937
 20
21.2149
 11
40.3959
 21
21.2568
  0
LINE
  8
0
 10
40.3959
 20
21.2568
 11
40.3959
 21
22.6962
  0
LINE
  8
0
 10
40.3959
 20
22.6962
 11
40.3881
 21
22.8411
  0
LINE
  8
0
 10
40.3881
 20
22.8411
 11
40.3867
 21
22.8679
  0
LINE
  8
0
 10
40.3867
 20
22.8679
 11
40.3638
 21
23.0072
  0
LINE
  8
0
 10
40.3638
 20
23.0072
 11
40.3592
 21
23.0353
  0
LINE
  8
0
 10
40.3592
 20
23.0353
 11
40.3142
 21
23.1944
  0
LINE
  8
0
 10
40.3142
 20
23.1944
 11
40.2644
 21
23.3133
  0
LINE
  8
0
 10
40.2644
 20
23.3133
 11
40.2527
 21
23.3413
  0
LINE
  8
0
 10
40.2527
 20
23.3413
 11
40.1762
 21
23.4722
  0
LINE
  8
0
 10
40.1762
 20
23.4722
 11
40.0868
 21
23.584
  0
LINE
  8
0
 10
40.0868
 20
23.584
 11
40.008
 21
23.6546
  0
LINE
  8
0
 10
40.008
 20
23.6546
 11
39.9864
 21
23.674
  0
LINE
  8
0
 10
39.9864
 20
23.674
 11
39.9017
 21
23.7254
  0
LINE
  8
0
 10
39.9017
 20
23.7254
 11
39.8777
 21
23.7399
  0
LINE
  8
0
 10
39.8777
 20
23.7399
 11
39.7889
 21
23.7711
  0
LINE
  8
0
 10
39.7889
 20
23.7711
 11
39.7632
 21
23.7801
  0
LINE
  8
0
 10
39.7632
 20
23.7801
 11
39.6459
 21
23.7936
  0
LINE
  8
0
 10
39.6459
 20
23.7936
 11
36.5
 21
23.7936
  0
LINE
  8
0
 10
36.5
 20
23.7936
 11
36.5
 21
20.1595
  0
LINE
  8
0
 10
36.5
 20
31.1095
 11
39.6459
 21
31.1095
  0
LINE
  8
0
 10
39.6459
 20
31.1095
 11
39.6741
 21
31.1127
  0
LINE
  8
0
 10
39.6741
 20
31.1127
 11
39.7632
 21
31.123
  0
LINE
  8
0
 10
39.7632
 20
31.123
 11
39.7905
 21
31.1326
  0
LINE
  8
0
 10
39.7905
 20
31.1326
 11
39.8777
 21
31.1632
  0
LINE
  8
0
 10
39.8777
 20
31.1632
 11
39.9032
 21
31.1787
  0
LINE
  8
0
 10
39.9032
 20
31.1787
 11
39.9864
 21
31.2291
  0
LINE
  8
0
 10
39.9864
 20
31.2291
 11
40.0868
 21
31.319
  0
LINE
  8
0
 10
40.0868
 20
31.319
 11
40.1067
 21
31.344
  0
LINE
  8
0
 10
40.1067
 20
31.344
 11
40.1762
 21
31.4309
  0
LINE
  8
0
 10
40.1762
 20
31.4309
 11
40.1927
 21
31.459
  0
LINE
  8
0
 10
40.1927
 20
31.459
 11
40.2527
 21
31.5618
  0
LINE
  8
0
 10
40.2527
 20
31.5618
 11
40.2653
 21
31.5919
  0
LINE
  8
0
 10
40.2653
 20
31.5919
 11
40.3142
 21
31.7086
  0
LINE
  8
0
 10
40.3142
 20
31.7086
 11
40.3229
 21
31.7395
  0
LINE
  8
0
 10
40.3229
 20
31.7395
 11
40.3592
 21
31.8677
  0
LINE
  8
0
 10
40.3592
 20
31.8677
 11
40.3642
 21
31.8983
  0
LINE
  8
0
 10
40.3642
 20
31.8983
 11
40.3867
 21
32.0352
  0
LINE
  8
0
 10
40.3867
 20
32.0352
 11
40.3883
 21
32.0644
  0
LINE
  8
0
 10
40.3883
 20
32.0644
 11
40.3959
 21
32.2068
  0
LINE
  8
0
 10
40.3959
 20
32.2068
 11
40.3959
 21
40
  0
LINE
  8
0
 10
40.3959
 20
40
 11
41.8959
 21
41.5
  0
LINE
  8
0
 10
41.8959
 20
41.5
 11
47
 21
41.5
  0
LINE
  8
0
 10
47
 20
41.5
 11
47.5
 21
42
  0
LINE
  8
0
 10
47.5
 20
42
 11
47.5
 21
45.5
  0
LINE
  8
0
 10
47.5
 20
45.5
 11
36.5
 21
45.5
  0
LINE
  8
0
 10
36.5
 20
45.5
 11
36.5
 21
31.1095
  0
ENDSEC
  0
SECTION
  2
OBJECTS
  0
DICTIONARY
  0
ENDSEC
  0
EOF
