  0
SECTION
  2
BLOCKS
  0
ENDSEC
  0
SECTION
  2
ENTITIES
  0
LINE
  8
0
 10
0
 20
0
 11
11
 21
0
  0
LINE
  8
0
 10
11
 20
0
 11
11
 21
13.0281
  0
LINE
  8
0
 10
11
 20
13.0281
 11
7.85409
 21
13.0281
  0
LINE
  8
0
 10
7.85409
 20
13.0281
 11
7.79782
 21
13.0235
  0
LINE
  8
0
 10
7.79782
 20
13.0235
 11
7.73676
 21
13.0186
  0
LINE
  8
0
 10
7.73676
 20
13.0186
 11
7.68325
 21
13.0054
  0
LINE
  8
0
 10
7.68325
 20
13.0054
 11
7.62232
 21
12.9904
  0
LINE
  8
0
 10
7.62232
 20
12.9904
 11
7.57379
 21
12.9698
  0
LINE
  8
0
 10
7.57379
 20
12.9698
 11
7.51359
 21
12.9442
  0
LINE
  8
0
 10
7.51359
 20
12.9442
 11
7.47172
 21
12.9179
  0
LINE
  8
0
 10
7.47172
 20
12.9179
 11
7.41325
 21
12.8811
  0
LINE
  8
0
 10
7.41325
 20
12.8811
 11
7.37904
 21
12.8511
  0
LINE
  8
0
 10
7.37904
 20
12.8511
 11
7.32376
 21
12.8027
  0
LINE
  8
0
 10
7.32376
 20
12.8027
 11
7.29753
 21
12.7712
  0
LINE
  8
0
 10
7.29753
 20
12.7712
 11
7.24732
 21
12.7109
  0
LINE
  8
0
 10
7.24732
 20
12.7109
 11
7.22879
 21
12.6799
  0
LINE
  8
0
 10
7.22879
 20
12.6799
 11
7.18583
 21
12.608
  0
LINE
  8
0
 10
7.18583
 20
12.608
 11
7.17417
 21
12.5791
  0
LINE
  8
0
 10
7.17417
 20
12.5791
 11
7.14079
 21
12.4964
  0
LINE
  8
0
 10
7.14079
 20
12.4964
 11
7.13484
 21
12.471
  0
LINE
  8
0
 10
7.13484
 20
12.471
 11
7.11332
 21
12.379
  0
LINE
  8
0
 10
7.11332
 20
12.379
 11
7.1117
 21
12.3579
  0
LINE
  8
0
 10
7.1117
 20
12.3579
 11
7.10409
 21
12.2586
  0
LINE
  8
0
 10
7.10409
 20
12.2586
 11
7.10409
 21
5.5
  0
LINE
  8
0
 10
7.10409
 20
5.5
 11
5.60409
 21
4
  0
LINE
  8
0
 10
5.60409
 20
4
 11
0.499999
 21
4
  0
LINE
  8
0
 10
0.499999
 20
4
 11
0
 21
3.5
  0
LINE
  8
0
 10
0
 20
3.5
 11
0
 21
0
  0
LINE
  8
0
 10
0
 20
42
 11
0.499999
 21
41.5
  0
LINE
  8
0
 10
0.499999
 20
41.5
 11
5.60409
 21
41.5
  0
LINE
  8
0
 10
5.60409
 20
41.5
 11
7.10409
 21
40
  0
LINE
  8
0
 10
7.10409
 20
40
 11
7.10409
 21
31.7796
  0
LINE
  8
0
 10
7.10409
 20
31.7796
 11
7.10613
 21
31.7416
  0
LINE
  8
0
 10
7.10613
 20
31.7416
 11
7.11332
 21
31.6079
  0
LINE
  8
0
 10
7.11332
 20
31.6079
 11
7.11975
 21
31.5687
  0
LINE
  8
0
 10
7.11975
 20
31.5687
 11
7.14079
 21
31.4405
  0
LINE
  8
0
 10
7.14079
 20
31.4405
 11
7.15189
 21
31.4013
  0
LINE
  8
0
 10
7.15189
 20
31.4013
 11
7.18583
 21
31.2814
  0
LINE
  8
0
 10
7.18583
 20
31.2814
 11
7.20168
 21
31.2435
  0
LINE
  8
0
 10
7.20168
 20
31.2435
 11
7.24732
 21
31.1346
  0
LINE
  8
0
 10
7.24732
 20
31.1346
 11
7.26783
 21
31.0994
  0
LINE
  8
0
 10
7.26783
 20
31.0994
 11
7.32376
 21
31.0036
  0
LINE
  8
0
 10
7.32376
 20
31.0036
 11
7.3486
 21
30.9726
  0
LINE
  8
0
 10
7.3486
 20
30.9726
 11
7.41325
 21
30.8918
  0
LINE
  8
0
 10
7.41325
 20
30.8918
 11
7.51359
 21
30.8018
  0
LINE
  8
0
 10
7.51359
 20
30.8018
 11
7.54528
 21
30.7826
  0
LINE
  8
0
 10
7.54528
 20
30.7826
 11
7.62232
 21
30.7359
  0
LINE
  8
0
 10
7.62232
 20
30.7359
 11
7.65616
 21
30.724
  0
LINE
  8
0
 10
7.65616
 20
30.724
 11
7.73676
 21
30.6957
  0
LINE
  8
0
 10
7.73676
 20
30.6957
 11
7.77173
 21
30.6917
  0
LINE
  8
0
 10
7.77173
 20
30.6917
 11
7.85409
 21
30.6822
  0
LINE
  8
0
 10
7.85409
 20
30.6822
 11
11
 21
30.6822
  0
LINE
  8
0
 10
11
 20
30.6822
 11
11
 21
45.5
  0
LINE
  8
0
 10
11
 20
45.5
 11
0
 21
45.5
  0
LINE
  8
0
 10
0
 20
45.5
 11
0
 21
42
  0
LINE
  8
0
 10
7.10409
 20
20.8296
 11
7.11137
 21
20.6942
  0
LINE
  8
0
 10
7.11137
 20
20.6942
 11
7.11332
 21
20.6579
  0
LINE
  8
0
 10
7.11332
 20
20.6579
 11
7.13516
 21
20.5249
  0
LINE
  8
0
 10
7.13516
 20
20.5249
 11
7.14079
 21
20.4905
  0
LINE
  8
0
 10
7.14079
 20
20.4905
 11
7.17686
 21
20.3631
  0
LINE
  8
0
 10
7.17686
 20
20.3631
 11
7.18583
 21
20.3314
  0
LINE
  8
0
 10
7.18583
 20
20.3314
 11
7.23541
 21
20.213
  0
LINE
  8
0
 10
7.23541
 20
20.213
 11
7.24732
 21
20.1846
  0
LINE
  8
0
 10
7.24732
 20
20.1846
 11
7.30932
 21
20.0784
  0
LINE
  8
0
 10
7.30932
 20
20.0784
 11
7.32376
 21
20.0536
  0
LINE
  8
0
 10
7.32376
 20
20.0536
 11
7.41325
 21
19.9418
  0
LINE
  8
0
 10
7.41325
 20
19.9418
 11
7.51359
 21
19.8518
  0
LINE
  8
0
 10
7.51359
 20
19.8518
 11
7.6029
 21
19.7977
  0
LINE
  8
0
 10
7.6029
 20
19.7977
 11
7.62232
 21
19.7859
  0
LINE
  8
0
 10
7.62232
 20
19.7859
 11
7.7165
 21
19.7529
  0
LINE
  8
0
 10
7.7165
 20
19.7529
 11
7.73676
 21
19.7457
  0
LINE
  8
0
 10
7.73676
 20
19.7457
 11
7.85409
 21
19.7322
  0
LINE
  8
0
 10
7.85409
 20
19.7322
 11
11
 21
19.7322
  0
LINE
  8
0
 10
11
 20
19.7322
 11
11
 21
23.3664
  0
LINE
  8
0
 10
11
 20
23.3664
 11
7.85409
 21
23.3664
  0
LINE
  8
0
 10
7.85409
 20
23.3664
 11
7.73676
 21
23.3529
  0
LINE
  8
0
 10
7.73676
 20
23.3529
 11
7.64106
 21
23.3192
  0
LINE
  8
0
 10
7.64106
 20
23.3192
 11
7.62232
 21
23.3127
  0
LINE
  8
0
 10
7.62232
 20
23.3127
 11
7.53091
 21
23.2573
  0
LINE
  8
0
 10
7.53091
 20
23.2573
 11
7.51359
 21
23.2468
  0
LINE
  8
0
 10
7.51359
 20
23.2468
 11
7.42859
 21
23.1705
  0
LINE
  8
0
 10
7.42859
 20
23.1705
 11
7.41325
 21
23.1568
  0
LINE
  8
0
 10
7.41325
 20
23.1568
 11
7.32376
 21
23.045
  0
LINE
  8
0
 10
7.32376
 20
23.045
 11
7.24732
 21
22.914
  0
LINE
  8
0
 10
7.24732
 20
22.914
 11
7.1935
 21
22.7855
  0
LINE
  8
0
 10
7.1935
 20
22.7855
 11
7.18583
 21
22.7672
  0
LINE
  8
0
 10
7.18583
 20
22.7672
 11
7.14079
 21
22.6081
  0
LINE
  8
0
 10
7.14079
 20
22.6081
 11
7.11609
 21
22.4575
  0
LINE
  8
0
 10
7.11609
 20
22.4575
 11
7.11332
 21
22.4407
  0
LINE
  8
0
 10
7.11332
 20
22.4407
 11
7.1049
 21
22.2841
  0
LINE
  8
0
 10
7.1049
 20
22.2841
 11
7.10409
 21
22.269
  0
LINE
  8
0
 10
7.10409
 20
22.269
 11
7.10409
 21
20.8296
  0
LINE
  8
0
 10
36.5
 20
0
 11
47.5
 21
0
  0
LINE
  8
0
 10
47.5
 20
0
 11
47.5
 21
3.5
  0
LINE
  8
0
 10
47.5
 20
3.5
 11
47
 21
4
  0
LINE
  8
0
 10
47
 20
4
 11
41.8959
 21
4
  0
LINE
  8
0
 10
41.8959
 20
4
 11
40.3959
 21
5.5
  0
LINE
  8
0
 10
40.3959
 20
5.5
 11
40.3959
 21
12.2586
  0
LINE
  8
0
 10
40.3959
 20
12.2586
 11
40.3945
 21
12.2777
  0
LINE
  8
0
 10
40.3945
 20
12.2777
 11
40.3867
 21
12.379
  0
LINE
  8
0
 10
40.3867
 20
12.379
 11
40.3811
 21
12.4029
  0
LINE
  8
0
 10
40.3811
 20
12.4029
 11
40.3592
 21
12.4964
  0
LINE
  8
0
 10
40.3592
 20
12.4964
 11
40.3479
 21
12.5244
  0
LINE
  8
0
 10
40.3479
 20
12.5244
 11
40.3142
 21
12.608
  0
LINE
  8
0
 10
40.3142
 20
12.608
 11
40.2958
 21
12.6387
  0
LINE
  8
0
 10
40.2958
 20
12.6387
 11
40.2527
 21
12.7109
  0
LINE
  8
0
 10
40.2527
 20
12.7109
 11
40.2264
 21
12.7425
  0
LINE
  8
0
 10
40.2264
 20
12.7425
 11
40.1762
 21
12.8027
  0
LINE
  8
0
 10
40.1762
 20
12.8027
 11
40.1416
 21
12.833
  0
LINE
  8
0
 10
40.1416
 20
12.833
 11
40.0868
 21
12.8811
  0
LINE
  8
0
 10
40.0868
 20
12.8811
 11
40.0442
 21
12.9078
  0
LINE
  8
0
 10
40.0442
 20
12.9078
 11
39.9864
 21
12.9442
  0
LINE
  8
0
 10
39.9864
 20
12.9442
 11
39.9372
 21
12.9651
  0
LINE
  8
0
 10
39.9372
 20
12.9651
 11
39.8777
 21
12.9904
  0
LINE
  8
0
 10
39.8777
 20
12.9904
 11
39.8237
 21
13.0037
  0
LINE
  8
0
 10
39.8237
 20
13.0037
 11
39.7632
 21
13.0186
  0
LINE
  8
0
 10
39.7632
 20
13.0186
 11
39.7068
 21
13.0232
  0
LINE
  8
0
 10
39.7068
 20
13.0232
 11
39.6459
 21
13.0281
  0
LINE
  8
0
 10
39.6459
 20
13.0281
 11
36.5
 21
13.0281
  0
LINE
  8
0
 10
36.5
 20
13.0281
 11
36.5
 21
0
  0
LINE
  8
0
 10
36.5
 20
19.7322
 11
39.6459
 21
19.7322
  0
LINE
  8
0
 10
39.6459
 20
19.7322
 11
39.7632
 21
19.7457
  0
LINE
  8
0
 10
39.7632
 20
19.7457
 11
39.8573
 21
19.7788
  0
LINE
  8
0
 10
39.8573
 20
19.7788
 11
39.8777
 21
19.7859
  0
LINE
  8
0
 10
39.8777
 20
19.7859
 11
39.9668
 21
19.84
  0
LINE
  8
0
 10
39.9668
 20
19.84
 11
39.9864
 21
19.8518
  0
LINE
  8
0
 10
39.9864
 20
19.8518
 11
40.0868
 21
19.9418
  0
LINE
  8
0
 10
40.0868
 20
19.9418
 11
40.1762
 21
20.0536
  0
LINE
  8
0
 10
40.1762
 20
20.0536
 11
40.238
 21
20.1595
  0
LINE
  8
0
 10
40.238
 20
20.1595
 11
40.2527
 21
20.1846
  0
LINE
  8
0
 10
40.2527
 20
20.1846
 11
40.302
 21
20.3025
  0
LINE
  8
0
 10
40.302
 20
20.3025
 11
40.3142
 21
20.3314
  0
LINE
  8
0
 10
40.3142
 20
20.3314
 11
40.3501
 21
20.4582
  0
LINE
  8
0
 10
40.3501
 20
20.4582
 11
40.3592
 21
20.4905
  0
LINE
  8
0
 10
40.3592
 20
20.4905
 11
40.3809
 21
20.623
  0
LINE
  8
0
 10
40.3809
 20
20.623
 11
40.3867
 21
20.6579
  0
LINE
  8
0
 10
40.3867
 20
20.6579
 11
40.3939
 21
20.7927
  0
LINE
  8
0
 10
40.3939
 20
20.7927
 11
40.3959
 21
20.8296
  0
LINE
  8
0
 10
40.3959
 20
20.8296
 11
40.3959
 21
22.269
  0
LINE
  8
0
 10
40.3959
 20
22.269
 11
40.3876
 21
22.4238
  0
LINE
  8
0
 10
40.3876
 20
22.4238
 11
40.3867
 21
22.4407
  0
LINE
  8
0
 10
40.3867
 20
22.4407
 11
40.3622
 21
22.5896
  0
LINE
  8
0
 10
40.3622
 20
22.5896
 11
40.3592
 21
22.6081
  0
LINE
  8
0
 10
40.3592
 20
22.6081
 11
40.3142
 21
22.7672
  0
LINE
  8
0
 10
40.3142
 20
22.7672
 11
40.2608
 21
22.8945
  0
LINE
  8
0
 10
40.2608
 20
22.8945
 11
40.2527
 21
22.914
  0
LINE
  8
0
 10
40.2527
 20
22.914
 11
40.1762
 21
23.045
  0
LINE
  8
0
 10
40.1762
 20
23.045
 11
40.0868
 21
23.1568
  0
LINE
  8
0
 10
40.0868
 20
23.1568
 11
40.0022
 21
23.2326
  0
LINE
  8
0
 10
40.0022
 20
23.2326
 11
39.9864
 21
23.2468
  0
LINE
  8
0
 10
39.9864
 20
23.2468
 11
39.8953
 21
23.302
  0
LINE
  8
0
 10
39.8953
 20
23.302
 11
39.8777
 21
23.3127
  0
LINE
  8
0
 10
39.8777
 20
23.3127
 11
39.7822
 21
23.3462
  0
LINE
  8
0
 10
39.7822
 20
23.3462
 11
39.7632
 21
23.3529
  0
LINE
  8
0
 10
39.7632
 20
23.3529
 11
39.6459
 21
23.3664
  0
LINE
  8
0
 10
39.6459
 20
23.3664
 11
36.5
 21
23.3664
  0
LINE
  8
0
 10
36.5
 20
23.3664
 11
36.5
 21
19.7322
  0
LINE
  8
0
 10
36.5
 20
30.6822
 11
39.6459
 21
30.6822
  0
LINE
  8
0
 10
39.6459
 20
30.6822
 11
39.6809
 21
30.6862
  0
LINE
  8
0
 10
39.6809
 20
30.6862
 11
39.7632
 21
30.6957
  0
LINE
  8
0
 10
39.7632
 20
30.6957
 11
39.7972
 21
30.7077
  0
LINE
  8
0
 10
39.7972
 20
30.7077
 11
39.8777
 21
30.7359
  0
LINE
  8
0
 10
39.8777
 20
30.7359
 11
39.9096
 21
30.7553
  0
LINE
  8
0
 10
39.9096
 20
30.7553
 11
39.9864
 21
30.8018
  0
LINE
  8
0
 10
39.9864
 20
30.8018
 11
40.0868
 21
30.8918
  0
LINE
  8
0
 10
40.0868
 20
30.8918
 11
40.1119
 21
30.9232
  0
LINE
  8
0
 10
40.1119
 20
30.9232
 11
40.1762
 21
31.0036
  0
LINE
  8
0
 10
40.1762
 20
31.0036
 11
40.1971
 21
31.0393
  0
LINE
  8
0
 10
40.1971
 20
31.0393
 11
40.2527
 21
31.1346
  0
LINE
  8
0
 10
40.2527
 20
31.1346
 11
40.2688
 21
31.1732
  0
LINE
  8
0
 10
40.2688
 20
31.1732
 11
40.3142
 21
31.2814
  0
LINE
  8
0
 10
40.3142
 20
31.2814
 11
40.3255
 21
31.3215
  0
LINE
  8
0
 10
40.3255
 20
31.3215
 11
40.3592
 21
31.4405
  0
LINE
  8
0
 10
40.3592
 20
31.4405
 11
40.3658
 21
31.4807
  0
LINE
  8
0
 10
40.3658
 20
31.4807
 11
40.3867
 21
31.6079
  0
LINE
  8
0
 10
40.3867
 20
31.6079
 11
40.3888
 21
31.6471
  0
LINE
  8
0
 10
40.3888
 20
31.6471
 11
40.3959
 21
31.7796
  0
LINE
  8
0
 10
40.3959
 20
31.7796
 11
40.3959
 21
40
  0
LINE
  8
0
 10
40.3959
 20
40
 11
41.8959
 21
41.5
  0
LINE
  8
0
 10
41.8959
 20
41.5
 11
47
 21
41.5
  0
LINE
  8
0
 10
47
 20
41.5
 11
47.5
 21
42
  0
LINE
  8
0
 10
47.5
 20
42
 11
47.5
 21
45.5
  0
LINE
  8
0
 10
47.5
 20
45.5
 11
36.5
 21
45.5
  0
LINE
  8
0
 10
36.5
 20
45.5
 11
36.5
 21
30.6822
  0
ENDSEC
  0
SECTION
  2
OBJECTS
  0
DICTIONARY
  0
ENDSEC
  0
EOF
