  0
SECTION
  2
BLOCKS
  0
ENDSEC
  0
SECTION
  2
ENTITIES
  0
LINE
  8
0
 10
0
 20
0
 11
11
 21
0
  0
LINE
  8
0
 10
11
 20
0
 11
11
 21
12.9803
  0
LINE
  8
0
 10
11
 20
12.9803
 11
7.85409
 21
12.9803
  0
LINE
  8
0
 10
7.85409
 20
12.9803
 11
7.73894
 21
12.9712
  0
LINE
  8
0
 10
7.73894
 20
12.9712
 11
7.73676
 21
12.971
  0
LINE
  8
0
 10
7.73676
 20
12.971
 11
7.62561
 21
12.9444
  0
LINE
  8
0
 10
7.62561
 20
12.9444
 11
7.62232
 21
12.9436
  0
LINE
  8
0
 10
7.62232
 20
12.9436
 11
7.51846
 21
12.9006
  0
LINE
  8
0
 10
7.51846
 20
12.9006
 11
7.51359
 21
12.8986
  0
LINE
  8
0
 10
7.51359
 20
12.8986
 11
7.41985
 21
12.8412
  0
LINE
  8
0
 10
7.41985
 20
12.8412
 11
7.41325
 21
12.8371
  0
LINE
  8
0
 10
7.41325
 20
12.8371
 11
7.33187
 21
12.7677
  0
LINE
  8
0
 10
7.33187
 20
12.7677
 11
7.32376
 21
12.7607
  0
LINE
  8
0
 10
7.32376
 20
12.7607
 11
7.25635
 21
12.6819
  0
LINE
  8
0
 10
7.25635
 20
12.6819
 11
7.24732
 21
12.6713
  0
LINE
  8
0
 10
7.24732
 20
12.6713
 11
7.19486
 21
12.5858
  0
LINE
  8
0
 10
7.19486
 20
12.5858
 11
7.18583
 21
12.571
  0
LINE
  8
0
 10
7.18583
 20
12.571
 11
7.14871
 21
12.4815
  0
LINE
  8
0
 10
7.14871
 20
12.4815
 11
7.14079
 21
12.4624
  0
LINE
  8
0
 10
7.14079
 20
12.4624
 11
7.11893
 21
12.3714
  0
LINE
  8
0
 10
7.11893
 20
12.3714
 11
7.11332
 21
12.348
  0
LINE
  8
0
 10
7.11332
 20
12.348
 11
7.10622
 21
12.2579
  0
LINE
  8
0
 10
7.10622
 20
12.2579
 11
7.10409
 21
12.2308
  0
LINE
  8
0
 10
7.10409
 20
12.2308
 11
7.10409
 21
5.5
  0
LINE
  8
0
 10
7.10409
 20
5.5
 11
5.60409
 21
4
  0
LINE
  8
0
 10
5.60409
 20
4
 11
0.499999
 21
4
  0
LINE
  8
0
 10
0.499999
 20
4
 11
0
 21
3.5
  0
LINE
  8
0
 10
0
 20
3.5
 11
0
 21
0
  0
LINE
  8
0
 10
0
 20
42
 11
0.499999
 21
41.5
  0
LINE
  8
0
 10
0.499999
 20
41.5
 11
5.60409
 21
41.5
  0
LINE
  8
0
 10
5.60409
 20
41.5
 11
7.10409
 21
40
  0
LINE
  8
0
 10
7.10409
 20
40
 11
7.10409
 21
31.566
  0
LINE
  8
0
 10
7.10409
 20
31.566
 11
7.10641
 21
31.5229
  0
LINE
  8
0
 10
7.10641
 20
31.5229
 11
7.11332
 21
31.3943
  0
LINE
  8
0
 10
7.11332
 20
31.3943
 11
7.12056
 21
31.3501
  0
LINE
  8
0
 10
7.12056
 20
31.3501
 11
7.14079
 21
31.2269
  0
LINE
  8
0
 10
7.14079
 20
31.2269
 11
7.15322
 21
31.183
  0
LINE
  8
0
 10
7.15322
 20
31.183
 11
7.18583
 21
31.0678
  0
LINE
  8
0
 10
7.18583
 20
31.0678
 11
7.2035
 21
31.0256
  0
LINE
  8
0
 10
7.2035
 20
31.0256
 11
7.24732
 21
30.9209
  0
LINE
  8
0
 10
7.24732
 20
30.9209
 11
7.27009
 21
30.8819
  0
LINE
  8
0
 10
7.27009
 20
30.8819
 11
7.32376
 21
30.79
  0
LINE
  8
0
 10
7.32376
 20
30.79
 11
7.35124
 21
30.7557
  0
LINE
  8
0
 10
7.35124
 20
30.7557
 11
7.41325
 21
30.6782
  0
LINE
  8
0
 10
7.41325
 20
30.6782
 11
7.51359
 21
30.5882
  0
LINE
  8
0
 10
7.51359
 20
30.5882
 11
7.54848
 21
30.5671
  0
LINE
  8
0
 10
7.54848
 20
30.5671
 11
7.62232
 21
30.5223
  0
LINE
  8
0
 10
7.62232
 20
30.5223
 11
7.65952
 21
30.5092
  0
LINE
  8
0
 10
7.65952
 20
30.5092
 11
7.73676
 21
30.4821
  0
LINE
  8
0
 10
7.73676
 20
30.4821
 11
7.77517
 21
30.4777
  0
LINE
  8
0
 10
7.77517
 20
30.4777
 11
7.85409
 21
30.4686
  0
LINE
  8
0
 10
7.85409
 20
30.4686
 11
11
 21
30.4686
  0
LINE
  8
0
 10
11
 20
30.4686
 11
11
 21
45.5
  0
LINE
  8
0
 10
11
 20
45.5
 11
0
 21
45.5
  0
LINE
  8
0
 10
0
 20
45.5
 11
0
 21
42
  0
LINE
  8
0
 10
7.10409
 20
20.616
 11
7.1115
 21
20.4781
  0
LINE
  8
0
 10
7.1115
 20
20.4781
 11
7.11332
 21
20.4443
  0
LINE
  8
0
 10
7.11332
 20
20.4443
 11
7.13556
 21
20.3088
  0
LINE
  8
0
 10
7.13556
 20
20.3088
 11
7.14079
 21
20.2769
  0
LINE
  8
0
 10
7.14079
 20
20.2769
 11
7.17752
 21
20.1471
  0
LINE
  8
0
 10
7.17752
 20
20.1471
 11
7.18583
 21
20.1178
  0
LINE
  8
0
 10
7.18583
 20
20.1178
 11
7.23631
 21
19.9973
  0
LINE
  8
0
 10
7.23631
 20
19.9973
 11
7.24732
 21
19.971
  0
LINE
  8
0
 10
7.24732
 20
19.971
 11
7.31044
 21
19.8628
  0
LINE
  8
0
 10
7.31044
 20
19.8628
 11
7.32376
 21
19.84
  0
LINE
  8
0
 10
7.32376
 20
19.84
 11
7.41325
 21
19.7282
  0
LINE
  8
0
 10
7.41325
 20
19.7282
 11
7.51359
 21
19.6382
  0
LINE
  8
0
 10
7.51359
 20
19.6382
 11
7.60449
 21
19.5831
  0
LINE
  8
0
 10
7.60449
 20
19.5831
 11
7.62232
 21
19.5723
  0
LINE
  8
0
 10
7.62232
 20
19.5723
 11
7.71818
 21
19.5386
  0
LINE
  8
0
 10
7.71818
 20
19.5386
 11
7.73676
 21
19.5321
  0
LINE
  8
0
 10
7.73676
 20
19.5321
 11
7.85409
 21
19.5186
  0
LINE
  8
0
 10
7.85409
 20
19.5186
 11
11
 21
19.5186
  0
LINE
  8
0
 10
11
 20
19.5186
 11
11
 21
23.1527
  0
LINE
  8
0
 10
11
 20
23.1527
 11
7.85409
 21
23.1527
  0
LINE
  8
0
 10
7.85409
 20
23.1527
 11
7.73676
 21
23.1392
  0
LINE
  8
0
 10
7.73676
 20
23.1392
 11
7.6377
 21
23.1044
  0
LINE
  8
0
 10
7.6377
 20
23.1044
 11
7.62232
 21
23.099
  0
LINE
  8
0
 10
7.62232
 20
23.099
 11
7.52771
 21
23.0417
  0
LINE
  8
0
 10
7.52771
 20
23.0417
 11
7.51359
 21
23.0331
  0
LINE
  8
0
 10
7.51359
 20
23.0331
 11
7.42564
 21
22.9543
  0
LINE
  8
0
 10
7.42564
 20
22.9543
 11
7.41325
 21
22.9432
  0
LINE
  8
0
 10
7.41325
 20
22.9432
 11
7.32376
 21
22.8313
  0
LINE
  8
0
 10
7.32376
 20
22.8313
 11
7.24732
 21
22.7004
  0
LINE
  8
0
 10
7.24732
 20
22.7004
 11
7.19169
 21
22.5675
  0
LINE
  8
0
 10
7.19169
 20
22.5675
 11
7.18583
 21
22.5536
  0
LINE
  8
0
 10
7.18583
 20
22.5536
 11
7.14079
 21
22.3945
  0
LINE
  8
0
 10
7.14079
 20
22.3945
 11
7.11528
 21
22.239
  0
LINE
  8
0
 10
7.11528
 20
22.239
 11
7.11332
 21
22.227
  0
LINE
  8
0
 10
7.11332
 20
22.227
 11
7.10463
 21
22.0654
  0
LINE
  8
0
 10
7.10463
 20
22.0654
 11
7.10409
 21
22.0554
  0
LINE
  8
0
 10
7.10409
 20
22.0554
 11
7.10409
 21
20.616
  0
LINE
  8
0
 10
36.5
 20
0
 11
47.5
 21
0
  0
LINE
  8
0
 10
47.5
 20
0
 11
47.5
 21
3.5
  0
LINE
  8
0
 10
47.5
 20
3.5
 11
47
 21
4
  0
LINE
  8
0
 10
47
 20
4
 11
41.8959
 21
4
  0
LINE
  8
0
 10
41.8959
 20
4
 11
40.3959
 21
5.5
  0
LINE
  8
0
 10
40.3959
 20
5.5
 11
40.3959
 21
12.2308
  0
LINE
  8
0
 10
40.3959
 20
12.2308
 11
40.3886
 21
12.3242
  0
LINE
  8
0
 10
40.3886
 20
12.3242
 11
40.3867
 21
12.348
  0
LINE
  8
0
 10
40.3867
 20
12.348
 11
40.364
 21
12.4423
  0
LINE
  8
0
 10
40.364
 20
12.4423
 11
40.3592
 21
12.4624
  0
LINE
  8
0
 10
40.3592
 20
12.4624
 11
40.3208
 21
12.5551
  0
LINE
  8
0
 10
40.3208
 20
12.5551
 11
40.3142
 21
12.571
  0
LINE
  8
0
 10
40.3142
 20
12.571
 11
40.2599
 21
12.6595
  0
LINE
  8
0
 10
40.2599
 20
12.6595
 11
40.2527
 21
12.6713
  0
LINE
  8
0
 10
40.2527
 20
12.6713
 11
40.1832
 21
12.7527
  0
LINE
  8
0
 10
40.1832
 20
12.7527
 11
40.1762
 21
12.7607
  0
LINE
  8
0
 10
40.1762
 20
12.7607
 11
40.0926
 21
12.8321
  0
LINE
  8
0
 10
40.0926
 20
12.8321
 11
40.0868
 21
12.8371
  0
LINE
  8
0
 10
40.0868
 20
12.8371
 11
39.9909
 21
12.8958
  0
LINE
  8
0
 10
39.9909
 20
12.8958
 11
39.9864
 21
12.8986
  0
LINE
  8
0
 10
39.9864
 20
12.8986
 11
39.8808
 21
12.9423
  0
LINE
  8
0
 10
39.8808
 20
12.9423
 11
39.8777
 21
12.9436
  0
LINE
  8
0
 10
39.8777
 20
12.9436
 11
39.7654
 21
12.9705
  0
LINE
  8
0
 10
39.7654
 20
12.9705
 11
39.7632
 21
12.971
  0
LINE
  8
0
 10
39.7632
 20
12.971
 11
39.6477
 21
12.9801
  0
LINE
  8
0
 10
39.6477
 20
12.9801
 11
39.6459
 21
12.9803
  0
LINE
  8
0
 10
39.6459
 20
12.9803
 11
36.5
 21
12.9803
  0
LINE
  8
0
 10
36.5
 20
12.9803
 11
36.5
 21
0
  0
LINE
  8
0
 10
36.5
 20
19.5186
 11
39.6459
 21
19.5186
  0
LINE
  8
0
 10
39.6459
 20
19.5186
 11
39.7632
 21
19.5321
  0
LINE
  8
0
 10
39.7632
 20
19.5321
 11
39.859
 21
19.5657
  0
LINE
  8
0
 10
39.859
 20
19.5657
 11
39.8777
 21
19.5723
  0
LINE
  8
0
 10
39.8777
 20
19.5723
 11
39.9684
 21
19.6273
  0
LINE
  8
0
 10
39.9684
 20
19.6273
 11
39.9864
 21
19.6382
  0
LINE
  8
0
 10
39.9864
 20
19.6382
 11
40.0868
 21
19.7282
  0
LINE
  8
0
 10
40.0868
 20
19.7282
 11
40.1762
 21
19.84
  0
LINE
  8
0
 10
40.1762
 20
19.84
 11
40.2391
 21
19.9477
  0
LINE
  8
0
 10
40.2391
 20
19.9477
 11
40.2527
 21
19.971
  0
LINE
  8
0
 10
40.2527
 20
19.971
 11
40.3029
 21
20.091
  0
LINE
  8
0
 10
40.3029
 20
20.091
 11
40.3142
 21
20.1178
  0
LINE
  8
0
 10
40.3142
 20
20.1178
 11
40.3507
 21
20.2469
  0
LINE
  8
0
 10
40.3507
 20
20.2469
 11
40.3592
 21
20.2769
  0
LINE
  8
0
 10
40.3592
 20
20.2769
 11
40.3813
 21
20.4118
  0
LINE
  8
0
 10
40.3813
 20
20.4118
 11
40.3867
 21
20.4443
  0
LINE
  8
0
 10
40.3867
 20
20.4443
 11
40.3941
 21
20.5816
  0
LINE
  8
0
 10
40.3941
 20
20.5816
 11
40.3959
 21
20.616
  0
LINE
  8
0
 10
40.3959
 20
20.616
 11
40.3959
 21
22.0554
  0
LINE
  8
0
 10
40.3959
 20
22.0554
 11
40.3873
 21
22.2151
  0
LINE
  8
0
 10
40.3873
 20
22.2151
 11
40.3867
 21
22.227
  0
LINE
  8
0
 10
40.3867
 20
22.227
 11
40.3614
 21
22.3808
  0
LINE
  8
0
 10
40.3614
 20
22.3808
 11
40.3592
 21
22.3945
  0
LINE
  8
0
 10
40.3592
 20
22.3945
 11
40.3142
 21
22.5536
  0
LINE
  8
0
 10
40.3142
 20
22.5536
 11
40.2591
 21
22.6852
  0
LINE
  8
0
 10
40.2591
 20
22.6852
 11
40.2527
 21
22.7004
  0
LINE
  8
0
 10
40.2527
 20
22.7004
 11
40.1762
 21
22.8313
  0
LINE
  8
0
 10
40.1762
 20
22.8313
 11
40.0868
 21
22.9432
  0
LINE
  8
0
 10
40.0868
 20
22.9432
 11
39.9993
 21
23.0216
  0
LINE
  8
0
 10
39.9993
 20
23.0216
 11
39.9864
 21
23.0331
  0
LINE
  8
0
 10
39.9864
 20
23.0331
 11
39.8922
 21
23.0902
  0
LINE
  8
0
 10
39.8922
 20
23.0902
 11
39.8777
 21
23.099
  0
LINE
  8
0
 10
39.8777
 20
23.099
 11
39.7789
 21
23.1337
  0
LINE
  8
0
 10
39.7789
 20
23.1337
 11
39.7632
 21
23.1392
  0
LINE
  8
0
 10
39.7632
 20
23.1392
 11
39.6459
 21
23.1527
  0
LINE
  8
0
 10
39.6459
 20
23.1527
 11
36.5
 21
23.1527
  0
LINE
  8
0
 10
36.5
 20
23.1527
 11
36.5
 21
19.5186
  0
LINE
  8
0
 10
36.5
 20
30.4686
 11
39.6459
 21
30.4686
  0
LINE
  8
0
 10
39.6459
 20
30.4686
 11
39.6844
 21
30.473
  0
LINE
  8
0
 10
39.6844
 20
30.473
 11
39.7632
 21
30.4821
  0
LINE
  8
0
 10
39.7632
 20
30.4821
 11
39.8006
 21
30.4952
  0
LINE
  8
0
 10
39.8006
 20
30.4952
 11
39.8777
 21
30.5223
  0
LINE
  8
0
 10
39.8777
 20
30.5223
 11
39.9127
 21
30.5435
  0
LINE
  8
0
 10
39.9127
 20
30.5435
 11
39.9864
 21
30.5882
  0
LINE
  8
0
 10
39.9864
 20
30.5882
 11
40.0868
 21
30.6782
  0
LINE
  8
0
 10
40.0868
 20
30.6782
 11
40.1145
 21
30.7129
  0
LINE
  8
0
 10
40.1145
 20
30.7129
 11
40.1762
 21
30.79
  0
LINE
  8
0
 10
40.1762
 20
30.79
 11
40.1993
 21
30.8295
  0
LINE
  8
0
 10
40.1993
 20
30.8295
 11
40.2527
 21
30.9209
  0
LINE
  8
0
 10
40.2527
 20
30.9209
 11
40.2706
 21
30.9638
  0
LINE
  8
0
 10
40.2706
 20
30.9638
 11
40.3142
 21
31.0678
  0
LINE
  8
0
 10
40.3142
 20
31.0678
 11
40.3268
 21
31.1125
  0
LINE
  8
0
 10
40.3268
 20
31.1125
 11
40.3592
 21
31.2269
  0
LINE
  8
0
 10
40.3592
 20
31.2269
 11
40.3666
 21
31.272
  0
LINE
  8
0
 10
40.3666
 20
31.272
 11
40.3867
 21
31.3943
  0
LINE
  8
0
 10
40.3867
 20
31.3943
 11
40.3891
 21
31.4385
  0
LINE
  8
0
 10
40.3891
 20
31.4385
 11
40.3959
 21
31.566
  0
LINE
  8
0
 10
40.3959
 20
31.566
 11
40.3959
 21
40
  0
LINE
  8
0
 10
40.3959
 20
40
 11
41.8959
 21
41.5
  0
LINE
  8
0
 10
41.8959
 20
41.5
 11
47
 21
41.5
  0
LINE
  8
0
 10
47
 20
41.5
 11
47.5
 21
42
  0
LINE
  8
0
 10
47.5
 20
42
 11
47.5
 21
45.5
  0
LINE
  8
0
 10
47.5
 20
45.5
 11
36.5
 21
45.5
  0
LINE
  8
0
 10
36.5
 20
45.5
 11
36.5
 21
30.4686
  0
ENDSEC
  0
SECTION
  2
OBJECTS
  0
DICTIONARY
  0
ENDSEC
  0
EOF
