  0
SECTION
  2
BLOCKS
  0
ENDSEC
  0
SECTION
  2
ENTITIES
  0
LINE
  8
0
 10
0
 20
0
 11
11
 21
0
  0
LINE
  8
0
 10
11
 20
0
 11
11
 21
12.9654
  0
LINE
  8
0
 10
11
 20
12.9654
 11
7.85409
 21
12.9654
  0
LINE
  8
0
 10
7.85409
 20
12.9654
 11
7.79573
 21
12.9608
  0
LINE
  8
0
 10
7.79573
 20
12.9608
 11
7.73676
 21
12.9562
  0
LINE
  8
0
 10
7.73676
 20
12.9562
 11
7.68042
 21
12.9426
  0
LINE
  8
0
 10
7.68042
 20
12.9426
 11
7.62232
 21
12.9287
  0
LINE
  8
0
 10
7.62232
 20
12.9287
 11
7.56965
 21
12.9069
  0
LINE
  8
0
 10
7.56965
 20
12.9069
 11
7.51359
 21
12.8837
  0
LINE
  8
0
 10
7.51359
 20
12.8837
 11
7.46601
 21
12.8546
  0
LINE
  8
0
 10
7.46601
 20
12.8546
 11
7.41325
 21
12.8222
  0
LINE
  8
0
 10
7.41325
 20
12.8222
 11
7.37189
 21
12.7869
  0
LINE
  8
0
 10
7.37189
 20
12.7869
 11
7.32376
 21
12.7459
  0
LINE
  8
0
 10
7.32376
 20
12.7459
 11
7.28944
 21
12.7057
  0
LINE
  8
0
 10
7.28944
 20
12.7057
 11
7.24732
 21
12.6564
  0
LINE
  8
0
 10
7.24732
 20
12.6564
 11
7.22057
 21
12.6128
  0
LINE
  8
0
 10
7.22057
 20
12.6128
 11
7.18583
 21
12.5562
  0
LINE
  8
0
 10
7.18583
 20
12.5562
 11
7.16686
 21
12.5104
  0
LINE
  8
0
 10
7.16686
 20
12.5104
 11
7.14079
 21
12.4475
  0
LINE
  8
0
 10
7.14079
 20
12.4475
 11
7.1296
 21
12.4009
  0
LINE
  8
0
 10
7.1296
 20
12.4009
 11
7.11332
 21
12.3331
  0
LINE
  8
0
 10
7.11332
 20
12.3331
 11
7.10968
 21
12.2869
  0
LINE
  8
0
 10
7.10968
 20
12.2869
 11
7.10409
 21
12.2159
  0
LINE
  8
0
 10
7.10409
 20
12.2159
 11
7.10409
 21
5.5
  0
LINE
  8
0
 10
7.10409
 20
5.5
 11
5.60409
 21
4
  0
LINE
  8
0
 10
5.60409
 20
4
 11
0.499999
 21
4
  0
LINE
  8
0
 10
0.499999
 20
4
 11
0
 21
3.5
  0
LINE
  8
0
 10
0
 20
3.5
 11
0
 21
0
  0
LINE
  8
0
 10
0
 20
42
 11
0.499999
 21
41.5
  0
LINE
  8
0
 10
0.499999
 20
41.5
 11
5.60409
 21
41.5
  0
LINE
  8
0
 10
5.60409
 20
41.5
 11
7.10409
 21
40
  0
LINE
  8
0
 10
7.10409
 20
40
 11
7.10409
 21
31.3523
  0
LINE
  8
0
 10
7.10409
 20
31.3523
 11
7.10668
 21
31.3042
  0
LINE
  8
0
 10
7.10668
 20
31.3042
 11
7.11332
 21
31.1807
  0
LINE
  8
0
 10
7.11332
 20
31.1807
 11
7.12138
 21
31.1316
  0
LINE
  8
0
 10
7.12138
 20
31.1316
 11
7.14079
 21
31.0132
  0
LINE
  8
0
 10
7.14079
 20
31.0132
 11
7.15455
 21
30.9646
  0
LINE
  8
0
 10
7.15455
 20
30.9646
 11
7.18583
 21
30.8541
  0
LINE
  8
0
 10
7.18583
 20
30.8541
 11
7.20532
 21
30.8076
  0
LINE
  8
0
 10
7.20532
 20
30.8076
 11
7.24732
 21
30.7073
  0
LINE
  8
0
 10
7.24732
 20
30.7073
 11
7.27235
 21
30.6645
  0
LINE
  8
0
 10
7.27235
 20
30.6645
 11
7.32376
 21
30.5764
  0
LINE
  8
0
 10
7.32376
 20
30.5764
 11
7.35388
 21
30.5387
  0
LINE
  8
0
 10
7.35388
 20
30.5387
 11
7.41325
 21
30.4645
  0
LINE
  8
0
 10
7.41325
 20
30.4645
 11
7.51359
 21
30.3746
  0
LINE
  8
0
 10
7.51359
 20
30.3746
 11
7.55168
 21
30.3515
  0
LINE
  8
0
 10
7.55168
 20
30.3515
 11
7.62232
 21
30.3087
  0
LINE
  8
0
 10
7.62232
 20
30.3087
 11
7.66288
 21
30.2944
  0
LINE
  8
0
 10
7.66288
 20
30.2944
 11
7.73676
 21
30.2685
  0
LINE
  8
0
 10
7.73676
 20
30.2685
 11
7.77861
 21
30.2637
  0
LINE
  8
0
 10
7.77861
 20
30.2637
 11
7.85409
 21
30.255
  0
LINE
  8
0
 10
7.85409
 20
30.255
 11
11
 21
30.255
  0
LINE
  8
0
 10
11
 20
30.255
 11
11
 21
45.5
  0
LINE
  8
0
 10
11
 20
45.5
 11
0
 21
45.5
  0
LINE
  8
0
 10
0
 20
45.5
 11
0
 21
42
  0
LINE
  8
0
 10
7.10409
 20
20.4024
 11
7.11164
 21
20.2619
  0
LINE
  8
0
 10
7.11164
 20
20.2619
 11
7.11332
 21
20.2307
  0
LINE
  8
0
 10
7.11332
 20
20.2307
 11
7.13597
 21
20.0927
  0
LINE
  8
0
 10
7.13597
 20
20.0927
 11
7.14079
 21
20.0632
  0
LINE
  8
0
 10
7.14079
 20
20.0632
 11
7.17818
 21
19.9312
  0
LINE
  8
0
 10
7.17818
 20
19.9312
 11
7.18583
 21
19.9042
  0
LINE
  8
0
 10
7.18583
 20
19.9042
 11
7.23722
 21
19.7815
  0
LINE
  8
0
 10
7.23722
 20
19.7815
 11
7.24732
 21
19.7573
  0
LINE
  8
0
 10
7.24732
 20
19.7573
 11
7.31157
 21
19.6473
  0
LINE
  8
0
 10
7.31157
 20
19.6473
 11
7.32376
 21
19.6264
  0
LINE
  8
0
 10
7.32376
 20
19.6264
 11
7.41325
 21
19.5146
  0
LINE
  8
0
 10
7.41325
 20
19.5146
 11
7.51359
 21
19.4246
  0
LINE
  8
0
 10
7.51359
 20
19.4246
 11
7.60609
 21
19.3685
  0
LINE
  8
0
 10
7.60609
 20
19.3685
 11
7.62232
 21
19.3587
  0
LINE
  8
0
 10
7.62232
 20
19.3587
 11
7.71986
 21
19.3244
  0
LINE
  8
0
 10
7.71986
 20
19.3244
 11
7.73676
 21
19.3185
  0
LINE
  8
0
 10
7.73676
 20
19.3185
 11
7.85409
 21
19.305
  0
LINE
  8
0
 10
7.85409
 20
19.305
 11
11
 21
19.305
  0
LINE
  8
0
 10
11
 20
19.305
 11
11
 21
22.9391
  0
LINE
  8
0
 10
11
 20
22.9391
 11
7.85409
 21
22.9391
  0
LINE
  8
0
 10
7.85409
 20
22.9391
 11
7.73676
 21
22.9256
  0
LINE
  8
0
 10
7.73676
 20
22.9256
 11
7.63435
 21
22.8896
  0
LINE
  8
0
 10
7.63435
 20
22.8896
 11
7.62232
 21
22.8854
  0
LINE
  8
0
 10
7.62232
 20
22.8854
 11
7.52451
 21
22.8261
  0
LINE
  8
0
 10
7.52451
 20
22.8261
 11
7.51359
 21
22.8195
  0
LINE
  8
0
 10
7.51359
 20
22.8195
 11
7.42268
 21
22.738
  0
LINE
  8
0
 10
7.42268
 20
22.738
 11
7.41325
 21
22.7295
  0
LINE
  8
0
 10
7.41325
 20
22.7295
 11
7.32376
 21
22.6177
  0
LINE
  8
0
 10
7.32376
 20
22.6177
 11
7.24732
 21
22.4868
  0
LINE
  8
0
 10
7.24732
 20
22.4868
 11
7.18987
 21
22.3496
  0
LINE
  8
0
 10
7.18987
 20
22.3496
 11
7.18583
 21
22.3399
  0
LINE
  8
0
 10
7.18583
 20
22.3399
 11
7.14079
 21
22.1809
  0
LINE
  8
0
 10
7.14079
 20
22.1809
 11
7.11446
 21
22.0204
  0
LINE
  8
0
 10
7.11446
 20
22.0204
 11
7.11332
 21
22.0134
  0
LINE
  8
0
 10
7.11332
 20
22.0134
 11
7.10435
 21
21.8467
  0
LINE
  8
0
 10
7.10435
 20
21.8467
 11
7.10409
 21
21.8417
  0
LINE
  8
0
 10
7.10409
 20
21.8417
 11
7.10409
 21
20.4024
  0
LINE
  8
0
 10
36.5
 20
0
 11
47.5
 21
0
  0
LINE
  8
0
 10
47.5
 20
0
 11
47.5
 21
3.5
  0
LINE
  8
0
 10
47.5
 20
3.5
 11
47
 21
4
  0
LINE
  8
0
 10
47
 20
4
 11
41.8959
 21
4
  0
LINE
  8
0
 10
41.8959
 20
4
 11
40.3959
 21
5.5
  0
LINE
  8
0
 10
40.3959
 20
5.5
 11
40.3959
 21
12.2159
  0
LINE
  8
0
 10
40.3959
 20
12.2159
 11
40.3921
 21
12.2639
  0
LINE
  8
0
 10
40.3921
 20
12.2639
 11
40.3867
 21
12.3331
  0
LINE
  8
0
 10
40.3867
 20
12.3331
 11
40.375
 21
12.3815
  0
LINE
  8
0
 10
40.375
 20
12.3815
 11
40.3592
 21
12.4475
  0
LINE
  8
0
 10
40.3592
 20
12.4475
 11
40.3395
 21
12.495
  0
LINE
  8
0
 10
40.3395
 20
12.495
 11
40.3142
 21
12.5562
  0
LINE
  8
0
 10
40.3142
 20
12.5562
 11
40.2864
 21
12.6014
  0
LINE
  8
0
 10
40.2864
 20
12.6014
 11
40.2527
 21
12.6564
  0
LINE
  8
0
 10
40.2527
 20
12.6564
 11
40.2172
 21
12.6979
  0
LINE
  8
0
 10
40.2172
 20
12.6979
 11
40.1762
 21
12.7459
  0
LINE
  8
0
 10
40.1762
 20
12.7459
 11
40.1337
 21
12.7822
  0
LINE
  8
0
 10
40.1337
 20
12.7822
 11
40.0868
 21
12.8222
  0
LINE
  8
0
 10
40.0868
 20
12.8222
 11
40.038
 21
12.8521
  0
LINE
  8
0
 10
40.038
 20
12.8521
 11
39.9864
 21
12.8837
  0
LINE
  8
0
 10
39.9864
 20
12.8837
 11
39.9328
 21
12.9059
  0
LINE
  8
0
 10
39.9328
 20
12.9059
 11
39.8777
 21
12.9287
  0
LINE
  8
0
 10
39.8777
 20
12.9287
 11
39.8207
 21
12.9424
  0
LINE
  8
0
 10
39.8207
 20
12.9424
 11
39.7632
 21
12.9562
  0
LINE
  8
0
 10
39.7632
 20
12.9562
 11
39.7047
 21
12.9608
  0
LINE
  8
0
 10
39.7047
 20
12.9608
 11
39.6459
 21
12.9654
  0
LINE
  8
0
 10
39.6459
 20
12.9654
 11
36.5
 21
12.9654
  0
LINE
  8
0
 10
36.5
 20
12.9654
 11
36.5
 21
0
  0
LINE
  8
0
 10
36.5
 20
19.305
 11
39.6459
 21
19.305
  0
LINE
  8
0
 10
39.6459
 20
19.305
 11
39.7632
 21
19.3185
  0
LINE
  8
0
 10
39.7632
 20
19.3185
 11
39.8607
 21
19.3527
  0
LINE
  8
0
 10
39.8607
 20
19.3527
 11
39.8777
 21
19.3587
  0
LINE
  8
0
 10
39.8777
 20
19.3587
 11
39.97
 21
19.4146
  0
LINE
  8
0
 10
39.97
 20
19.4146
 11
39.9864
 21
19.4246
  0
LINE
  8
0
 10
39.9864
 20
19.4246
 11
40.0868
 21
19.5146
  0
LINE
  8
0
 10
40.0868
 20
19.5146
 11
40.1762
 21
19.6264
  0
LINE
  8
0
 10
40.1762
 20
19.6264
 11
40.2402
 21
19.736
  0
LINE
  8
0
 10
40.2402
 20
19.736
 11
40.2527
 21
19.7573
  0
LINE
  8
0
 10
40.2527
 20
19.7573
 11
40.3038
 21
19.8795
  0
LINE
  8
0
 10
40.3038
 20
19.8795
 11
40.3142
 21
19.9042
  0
LINE
  8
0
 10
40.3142
 20
19.9042
 11
40.3514
 21
20.0356
  0
LINE
  8
0
 10
40.3514
 20
20.0356
 11
40.3592
 21
20.0632
  0
LINE
  8
0
 10
40.3592
 20
20.0632
 11
40.3817
 21
20.2006
  0
LINE
  8
0
 10
40.3817
 20
20.2006
 11
40.3867
 21
20.2307
  0
LINE
  8
0
 10
40.3867
 20
20.2307
 11
40.3942
 21
20.3704
  0
LINE
  8
0
 10
40.3942
 20
20.3704
 11
40.3959
 21
20.4024
  0
LINE
  8
0
 10
40.3959
 20
20.4024
 11
40.3959
 21
21.8417
  0
LINE
  8
0
 10
40.3959
 20
21.8417
 11
40.3871
 21
22.0064
  0
LINE
  8
0
 10
40.3871
 20
22.0064
 11
40.3867
 21
22.0134
  0
LINE
  8
0
 10
40.3867
 20
22.0134
 11
40.3607
 21
22.172
  0
LINE
  8
0
 10
40.3607
 20
22.172
 11
40.3592
 21
22.1809
  0
LINE
  8
0
 10
40.3592
 20
22.1809
 11
40.3142
 21
22.3399
  0
LINE
  8
0
 10
40.3142
 20
22.3399
 11
40.2573
 21
22.4758
  0
LINE
  8
0
 10
40.2573
 20
22.4758
 11
40.2527
 21
22.4868
  0
LINE
  8
0
 10
40.2527
 20
22.4868
 11
40.1762
 21
22.6177
  0
LINE
  8
0
 10
40.1762
 20
22.6177
 11
40.0868
 21
22.7295
  0
LINE
  8
0
 10
40.0868
 20
22.7295
 11
39.9964
 21
22.8106
  0
LINE
  8
0
 10
39.9964
 20
22.8106
 11
39.9864
 21
22.8195
  0
LINE
  8
0
 10
39.9864
 20
22.8195
 11
39.889
 21
22.8785
  0
LINE
  8
0
 10
39.889
 20
22.8785
 11
39.8777
 21
22.8854
  0
LINE
  8
0
 10
39.8777
 20
22.8854
 11
39.7755
 21
22.9213
  0
LINE
  8
0
 10
39.7755
 20
22.9213
 11
39.7632
 21
22.9256
  0
LINE
  8
0
 10
39.7632
 20
22.9256
 11
39.6459
 21
22.9391
  0
LINE
  8
0
 10
39.6459
 20
22.9391
 11
36.5
 21
22.9391
  0
LINE
  8
0
 10
36.5
 20
22.9391
 11
36.5
 21
19.305
  0
LINE
  8
0
 10
36.5
 20
30.255
 11
39.6459
 21
30.255
  0
LINE
  8
0
 10
39.6459
 20
30.255
 11
39.6878
 21
30.2598
  0
LINE
  8
0
 10
39.6878
 20
30.2598
 11
39.7632
 21
30.2685
  0
LINE
  8
0
 10
39.7632
 20
30.2685
 11
39.8039
 21
30.2828
  0
LINE
  8
0
 10
39.8039
 20
30.2828
 11
39.8777
 21
30.3087
  0
LINE
  8
0
 10
39.8777
 20
30.3087
 11
39.9159
 21
30.3318
  0
LINE
  8
0
 10
39.9159
 20
30.3318
 11
39.9864
 21
30.3746
  0
LINE
  8
0
 10
39.9864
 20
30.3746
 11
40.0868
 21
30.4645
  0
LINE
  8
0
 10
40.0868
 20
30.4645
 11
40.1171
 21
30.5025
  0
LINE
  8
0
 10
40.1171
 20
30.5025
 11
40.1762
 21
30.5764
  0
LINE
  8
0
 10
40.1762
 20
30.5764
 11
40.2015
 21
30.6197
  0
LINE
  8
0
 10
40.2015
 20
30.6197
 11
40.2527
 21
30.7073
  0
LINE
  8
0
 10
40.2527
 20
30.7073
 11
40.2724
 21
30.7544
  0
LINE
  8
0
 10
40.2724
 20
30.7544
 11
40.3142
 21
30.8541
  0
LINE
  8
0
 10
40.3142
 20
30.8541
 11
40.3281
 21
30.9035
  0
LINE
  8
0
 10
40.3281
 20
30.9035
 11
40.3592
 21
31.0132
  0
LINE
  8
0
 10
40.3592
 20
31.0132
 11
40.3674
 21
31.0632
  0
LINE
  8
0
 10
40.3674
 20
31.0632
 11
40.3867
 21
31.1807
  0
LINE
  8
0
 10
40.3867
 20
31.1807
 11
40.3893
 21
31.2298
  0
LINE
  8
0
 10
40.3893
 20
31.2298
 11
40.3959
 21
31.3523
  0
LINE
  8
0
 10
40.3959
 20
31.3523
 11
40.3959
 21
40
  0
LINE
  8
0
 10
40.3959
 20
40
 11
41.8959
 21
41.5
  0
LINE
  8
0
 10
41.8959
 20
41.5
 11
47
 21
41.5
  0
LINE
  8
0
 10
47
 20
41.5
 11
47.5
 21
42
  0
LINE
  8
0
 10
47.5
 20
42
 11
47.5
 21
45.5
  0
LINE
  8
0
 10
47.5
 20
45.5
 11
36.5
 21
45.5
  0
LINE
  8
0
 10
36.5
 20
45.5
 11
36.5
 21
30.255
  0
ENDSEC
  0
SECTION
  2
OBJECTS
  0
DICTIONARY
  0
ENDSEC
  0
EOF
