  0
SECTION
  2
BLOCKS
  0
ENDSEC
  0
SECTION
  2
ENTITIES
  0
LINE
  8
0
 10
0
 20
0
 11
11
 21
0
  0
LINE
  8
0
 10
11
 20
0
 11
11
 21
12.9505
  0
LINE
  8
0
 10
11
 20
12.9505
 11
7.85409
 21
12.9505
  0
LINE
  8
0
 10
7.85409
 20
12.9505
 11
7.85252
 21
12.9504
  0
LINE
  8
0
 10
7.85252
 20
12.9504
 11
7.73676
 21
12.9413
  0
LINE
  8
0
 10
7.73676
 20
12.9413
 11
7.73523
 21
12.9409
  0
LINE
  8
0
 10
7.73523
 20
12.9409
 11
7.62232
 21
12.9138
  0
LINE
  8
0
 10
7.62232
 20
12.9138
 11
7.62083
 21
12.9132
  0
LINE
  8
0
 10
7.62083
 20
12.9132
 11
7.51359
 21
12.8688
  0
LINE
  8
0
 10
7.51359
 20
12.8688
 11
7.51216
 21
12.8679
  0
LINE
  8
0
 10
7.51216
 20
12.8679
 11
7.41325
 21
12.8074
  0
LINE
  8
0
 10
7.41325
 20
12.8074
 11
7.4119
 21
12.8062
  0
LINE
  8
0
 10
7.4119
 20
12.8062
 11
7.32376
 21
12.731
  0
LINE
  8
0
 10
7.32376
 20
12.731
 11
7.32254
 21
12.7296
  0
LINE
  8
0
 10
7.32254
 20
12.7296
 11
7.24732
 21
12.6416
  0
LINE
  8
0
 10
7.24732
 20
12.6416
 11
7.24628
 21
12.6399
  0
LINE
  8
0
 10
7.24628
 20
12.6399
 11
7.18583
 21
12.5413
  0
LINE
  8
0
 10
7.18583
 20
12.5413
 11
7.18502
 21
12.5393
  0
LINE
  8
0
 10
7.18502
 20
12.5393
 11
7.14079
 21
12.4326
  0
LINE
  8
0
 10
7.14079
 20
12.4326
 11
7.14027
 21
12.4304
  0
LINE
  8
0
 10
7.14027
 20
12.4304
 11
7.11332
 21
12.3183
  0
LINE
  8
0
 10
7.11332
 20
12.3183
 11
7.11313
 21
12.3159
  0
LINE
  8
0
 10
7.11313
 20
12.3159
 11
7.10409
 21
12.201
  0
LINE
  8
0
 10
7.10409
 20
12.201
 11
7.10409
 21
5.5
  0
LINE
  8
0
 10
7.10409
 20
5.5
 11
5.60409
 21
4
  0
LINE
  8
0
 10
5.60409
 20
4
 11
0.499999
 21
4
  0
LINE
  8
0
 10
0.499999
 20
4
 11
0
 21
3.5
  0
LINE
  8
0
 10
0
 20
3.5
 11
0
 21
0
  0
LINE
  8
0
 10
0
 20
42
 11
0.499999
 21
41.5
  0
LINE
  8
0
 10
0.499999
 20
41.5
 11
5.60409
 21
41.5
  0
LINE
  8
0
 10
5.60409
 20
41.5
 11
7.10409
 21
40
  0
LINE
  8
0
 10
7.10409
 20
40
 11
7.10409
 21
31.1387
  0
LINE
  8
0
 10
7.10409
 20
31.1387
 11
7.10695
 21
31.0854
  0
LINE
  8
0
 10
7.10695
 20
31.0854
 11
7.11332
 21
30.9671
  0
LINE
  8
0
 10
7.11332
 20
30.9671
 11
7.12219
 21
30.913
  0
LINE
  8
0
 10
7.12219
 20
30.913
 11
7.14079
 21
30.7996
  0
LINE
  8
0
 10
7.14079
 20
30.7996
 11
7.15589
 21
30.7463
  0
LINE
  8
0
 10
7.15589
 20
30.7463
 11
7.18583
 21
30.6405
  0
LINE
  8
0
 10
7.18583
 20
30.6405
 11
7.20714
 21
30.5896
  0
LINE
  8
0
 10
7.20714
 20
30.5896
 11
7.24732
 21
30.4937
  0
LINE
  8
0
 10
7.24732
 20
30.4937
 11
7.27461
 21
30.447
  0
LINE
  8
0
 10
7.27461
 20
30.447
 11
7.32376
 21
30.3628
  0
LINE
  8
0
 10
7.32376
 20
30.3628
 11
7.35652
 21
30.3218
  0
LINE
  8
0
 10
7.35652
 20
30.3218
 11
7.41325
 21
30.2509
  0
LINE
  8
0
 10
7.41325
 20
30.2509
 11
7.51359
 21
30.1609
  0
LINE
  8
0
 10
7.51359
 20
30.1609
 11
7.55487
 21
30.1359
  0
LINE
  8
0
 10
7.55487
 20
30.1359
 11
7.62232
 21
30.0951
  0
LINE
  8
0
 10
7.62232
 20
30.0951
 11
7.66624
 21
30.0796
  0
LINE
  8
0
 10
7.66624
 20
30.0796
 11
7.73676
 21
30.0549
  0
LINE
  8
0
 10
7.73676
 20
30.0549
 11
7.78204
 21
30.0496
  0
LINE
  8
0
 10
7.78204
 20
30.0496
 11
7.85409
 21
30.0413
  0
LINE
  8
0
 10
7.85409
 20
30.0413
 11
11
 21
30.0413
  0
LINE
  8
0
 10
11
 20
30.0413
 11
11
 21
45.5
  0
LINE
  8
0
 10
11
 20
45.5
 11
0
 21
45.5
  0
LINE
  8
0
 10
0
 20
45.5
 11
0
 21
42
  0
LINE
  8
0
 10
7.10409
 20
20.1887
 11
7.11178
 21
20.0458
  0
LINE
  8
0
 10
7.11178
 20
20.0458
 11
7.11332
 21
20.0171
  0
LINE
  8
0
 10
7.11332
 20
20.0171
 11
7.13637
 21
19.8766
  0
LINE
  8
0
 10
7.13637
 20
19.8766
 11
7.14079
 21
19.8496
  0
LINE
  8
0
 10
7.14079
 20
19.8496
 11
7.17884
 21
19.7152
  0
LINE
  8
0
 10
7.17884
 20
19.7152
 11
7.18583
 21
19.6905
  0
LINE
  8
0
 10
7.18583
 20
19.6905
 11
7.23812
 21
19.5657
  0
LINE
  8
0
 10
7.23812
 20
19.5657
 11
7.24732
 21
19.5437
  0
LINE
  8
0
 10
7.24732
 20
19.5437
 11
7.31269
 21
19.4317
  0
LINE
  8
0
 10
7.31269
 20
19.4317
 11
7.32376
 21
19.4128
  0
LINE
  8
0
 10
7.32376
 20
19.4128
 11
7.41325
 21
19.3009
  0
LINE
  8
0
 10
7.41325
 20
19.3009
 11
7.51359
 21
19.211
  0
LINE
  8
0
 10
7.51359
 20
19.211
 11
7.60768
 21
19.1539
  0
LINE
  8
0
 10
7.60768
 20
19.1539
 11
7.62232
 21
19.1451
  0
LINE
  8
0
 10
7.62232
 20
19.1451
 11
7.72153
 21
19.1102
  0
LINE
  8
0
 10
7.72153
 20
19.1102
 11
7.73676
 21
19.1049
  0
LINE
  8
0
 10
7.73676
 20
19.1049
 11
7.85409
 21
19.0914
  0
LINE
  8
0
 10
7.85409
 20
19.0914
 11
11
 21
19.0914
  0
LINE
  8
0
 10
11
 20
19.0914
 11
11
 21
22.7255
  0
LINE
  8
0
 10
11
 20
22.7255
 11
7.85409
 21
22.7255
  0
LINE
  8
0
 10
7.85409
 20
22.7255
 11
7.73676
 21
22.712
  0
LINE
  8
0
 10
7.73676
 20
22.712
 11
7.63099
 21
22.6748
  0
LINE
  8
0
 10
7.63099
 20
22.6748
 11
7.62232
 21
22.6718
  0
LINE
  8
0
 10
7.62232
 20
22.6718
 11
7.52131
 21
22.6106
  0
LINE
  8
0
 10
7.52131
 20
22.6106
 11
7.51359
 21
22.6059
  0
LINE
  8
0
 10
7.51359
 20
22.6059
 11
7.41972
 21
22.5217
  0
LINE
  8
0
 10
7.41972
 20
22.5217
 11
7.41325
 21
22.5159
  0
LINE
  8
0
 10
7.41325
 20
22.5159
 11
7.32376
 21
22.4041
  0
LINE
  8
0
 10
7.32376
 20
22.4041
 11
7.24732
 21
22.2731
  0
LINE
  8
0
 10
7.24732
 20
22.2731
 11
7.18805
 21
22.1316
  0
LINE
  8
0
 10
7.18805
 20
22.1316
 11
7.18583
 21
22.1263
  0
LINE
  8
0
 10
7.18583
 20
22.1263
 11
7.14079
 21
21.9672
  0
LINE
  8
0
 10
7.14079
 20
21.9672
 11
7.11365
 21
21.8018
  0
LINE
  8
0
 10
7.11365
 20
21.8018
 11
7.11332
 21
21.7998
  0
LINE
  8
0
 10
7.11332
 20
21.7998
 11
7.10461
 21
21.6379
  0
LINE
  8
0
 10
7.10461
 20
21.6379
 11
7.10418
 21
21.6305
  0
LINE
  8
0
 10
7.10418
 20
21.6305
 11
7.10409
 21
21.6289
  0
LINE
  8
0
 10
7.10409
 20
21.6289
 11
7.10409
 21
20.1887
  0
LINE
  8
0
 10
36.5
 20
0
 11
47.5
 21
0
  0
LINE
  8
0
 10
47.5
 20
0
 11
47.5
 21
3.5
  0
LINE
  8
0
 10
47.5
 20
3.5
 11
47
 21
4
  0
LINE
  8
0
 10
47
 20
4
 11
41.8959
 21
4
  0
LINE
  8
0
 10
41.8959
 20
4
 11
40.3959
 21
5.5
  0
LINE
  8
0
 10
40.3959
 20
5.5
 11
40.3959
 21
12.201
  0
LINE
  8
0
 10
40.3959
 20
12.201
 11
40.3957
 21
12.2037
  0
LINE
  8
0
 10
40.3957
 20
12.2037
 11
40.3867
 21
12.3183
  0
LINE
  8
0
 10
40.3867
 20
12.3183
 11
40.3861
 21
12.3207
  0
LINE
  8
0
 10
40.3861
 20
12.3207
 11
40.3592
 21
12.4326
  0
LINE
  8
0
 10
40.3592
 20
12.4326
 11
40.3583
 21
12.4349
  0
LINE
  8
0
 10
40.3583
 20
12.4349
 11
40.3142
 21
12.5413
  0
LINE
  8
0
 10
40.3142
 20
12.5413
 11
40.313
 21
12.5432
  0
LINE
  8
0
 10
40.313
 20
12.5432
 11
40.2527
 21
12.6416
  0
LINE
  8
0
 10
40.2527
 20
12.6416
 11
40.2513
 21
12.6432
  0
LINE
  8
0
 10
40.2513
 20
12.6432
 11
40.1762
 21
12.731
  0
LINE
  8
0
 10
40.1762
 20
12.731
 11
40.1747
 21
12.7323
  0
LINE
  8
0
 10
40.1747
 20
12.7323
 11
40.0868
 21
12.8074
  0
LINE
  8
0
 10
40.0868
 20
12.8074
 11
40.0852
 21
12.8083
  0
LINE
  8
0
 10
40.0852
 20
12.8083
 11
39.9864
 21
12.8688
  0
LINE
  8
0
 10
39.9864
 20
12.8688
 11
39.9848
 21
12.8695
  0
LINE
  8
0
 10
39.9848
 20
12.8695
 11
39.8777
 21
12.9138
  0
LINE
  8
0
 10
39.8777
 20
12.9138
 11
39.8761
 21
12.9142
  0
LINE
  8
0
 10
39.8761
 20
12.9142
 11
39.7632
 21
12.9413
  0
LINE
  8
0
 10
39.7632
 20
12.9413
 11
39.7616
 21
12.9414
  0
LINE
  8
0
 10
39.7616
 20
12.9414
 11
39.6459
 21
12.9505
  0
LINE
  8
0
 10
39.6459
 20
12.9505
 11
36.5
 21
12.9505
  0
LINE
  8
0
 10
36.5
 20
12.9505
 11
36.5
 21
0
  0
LINE
  8
0
 10
36.5
 20
19.0914
 11
39.6459
 21
19.0914
  0
LINE
  8
0
 10
39.6459
 20
19.0914
 11
39.7632
 21
19.1049
  0
LINE
  8
0
 10
39.7632
 20
19.1049
 11
39.8623
 21
19.1397
  0
LINE
  8
0
 10
39.8623
 20
19.1397
 11
39.8777
 21
19.1451
  0
LINE
  8
0
 10
39.8777
 20
19.1451
 11
39.9716
 21
19.202
  0
LINE
  8
0
 10
39.9716
 20
19.202
 11
39.9864
 21
19.211
  0
LINE
  8
0
 10
39.9864
 20
19.211
 11
40.0868
 21
19.3009
  0
LINE
  8
0
 10
40.0868
 20
19.3009
 11
40.1762
 21
19.4128
  0
LINE
  8
0
 10
40.1762
 20
19.4128
 11
40.2413
 21
19.5243
  0
LINE
  8
0
 10
40.2413
 20
19.5243
 11
40.2527
 21
19.5437
  0
LINE
  8
0
 10
40.2527
 20
19.5437
 11
40.3047
 21
19.668
  0
LINE
  8
0
 10
40.3047
 20
19.668
 11
40.3142
 21
19.6905
  0
LINE
  8
0
 10
40.3142
 20
19.6905
 11
40.352
 21
19.8243
  0
LINE
  8
0
 10
40.352
 20
19.8243
 11
40.3592
 21
19.8496
  0
LINE
  8
0
 10
40.3592
 20
19.8496
 11
40.3821
 21
19.9894
  0
LINE
  8
0
 10
40.3821
 20
19.9894
 11
40.3867
 21
20.0171
  0
LINE
  8
0
 10
40.3867
 20
20.0171
 11
40.3943
 21
20.1593
  0
LINE
  8
0
 10
40.3943
 20
20.1593
 11
40.3959
 21
20.1887
  0
LINE
  8
0
 10
40.3959
 20
20.1887
 11
40.3959
 21
21.6289
  0
LINE
  8
0
 10
40.3959
 20
21.6289
 11
40.3954
 21
21.6379
  0
LINE
  8
0
 10
40.3954
 20
21.6379
 11
40.3868
 21
21.7978
  0
LINE
  8
0
 10
40.3868
 20
21.7978
 11
40.3867
 21
21.7998
  0
LINE
  8
0
 10
40.3867
 20
21.7998
 11
40.3599
 21
21.9633
  0
LINE
  8
0
 10
40.3599
 20
21.9633
 11
40.3592
 21
21.9672
  0
LINE
  8
0
 10
40.3592
 20
21.9672
 11
40.3142
 21
22.1263
  0
LINE
  8
0
 10
40.3142
 20
22.1263
 11
40.2555
 21
22.2664
  0
LINE
  8
0
 10
40.2555
 20
22.2664
 11
40.2527
 21
22.2731
  0
LINE
  8
0
 10
40.2527
 20
22.2731
 11
40.1762
 21
22.4041
  0
LINE
  8
0
 10
40.1762
 20
22.4041
 11
40.0868
 21
22.5159
  0
LINE
  8
0
 10
40.0868
 20
22.5159
 11
39.9934
 21
22.5996
  0
LINE
  8
0
 10
39.9934
 20
22.5996
 11
39.9864
 21
22.6059
  0
LINE
  8
0
 10
39.9864
 20
22.6059
 11
39.8858
 21
22.6668
  0
LINE
  8
0
 10
39.8858
 20
22.6668
 11
39.8777
 21
22.6718
  0
LINE
  8
0
 10
39.8777
 20
22.6718
 11
39.7722
 21
22.7088
  0
LINE
  8
0
 10
39.7722
 20
22.7088
 11
39.7632
 21
22.712
  0
LINE
  8
0
 10
39.7632
 20
22.712
 11
39.6459
 21
22.7255
  0
LINE
  8
0
 10
39.6459
 20
22.7255
 11
36.5
 21
22.7255
  0
LINE
  8
0
 10
36.5
 20
22.7255
 11
36.5
 21
19.0914
  0
LINE
  8
0
 10
36.5
 20
30.0413
 11
39.6459
 21
30.0413
  0
LINE
  8
0
 10
39.6459
 20
30.0413
 11
39.6912
 21
30.0466
  0
LINE
  8
0
 10
39.6912
 20
30.0466
 11
39.7632
 21
30.0549
  0
LINE
  8
0
 10
39.7632
 20
30.0549
 11
39.8072
 21
30.0703
  0
LINE
  8
0
 10
39.8072
 20
30.0703
 11
39.8777
 21
30.0951
  0
LINE
  8
0
 10
39.8777
 20
30.0951
 11
39.9191
 21
30.1201
  0
LINE
  8
0
 10
39.9191
 20
30.1201
 11
39.9864
 21
30.1609
  0
LINE
  8
0
 10
39.9864
 20
30.1609
 11
40.0868
 21
30.2509
  0
LINE
  8
0
 10
40.0868
 20
30.2509
 11
40.1197
 21
30.2921
  0
LINE
  8
0
 10
40.1197
 20
30.2921
 11
40.1762
 21
30.3628
  0
LINE
  8
0
 10
40.1762
 20
30.3628
 11
40.2037
 21
30.4098
  0
LINE
  8
0
 10
40.2037
 20
30.4098
 11
40.2527
 21
30.4937
  0
LINE
  8
0
 10
40.2527
 20
30.4937
 11
40.2742
 21
30.5451
  0
LINE
  8
0
 10
40.2742
 20
30.5451
 11
40.3142
 21
30.6405
  0
LINE
  8
0
 10
40.3142
 20
30.6405
 11
40.3294
 21
30.6944
  0
LINE
  8
0
 10
40.3294
 20
30.6944
 11
40.3592
 21
30.7996
  0
LINE
  8
0
 10
40.3592
 20
30.7996
 11
40.3682
 21
30.8544
  0
LINE
  8
0
 10
40.3682
 20
30.8544
 11
40.3867
 21
30.9671
  0
LINE
  8
0
 10
40.3867
 20
30.9671
 11
40.3896
 21
31.0211
  0
LINE
  8
0
 10
40.3896
 20
31.0211
 11
40.3959
 21
31.1387
  0
LINE
  8
0
 10
40.3959
 20
31.1387
 11
40.3959
 21
40
  0
LINE
  8
0
 10
40.3959
 20
40
 11
41.8959
 21
41.5
  0
LINE
  8
0
 10
41.8959
 20
41.5
 11
47
 21
41.5
  0
LINE
  8
0
 10
47
 20
41.5
 11
47.5
 21
42
  0
LINE
  8
0
 10
47.5
 20
42
 11
47.5
 21
45.5
  0
LINE
  8
0
 10
47.5
 20
45.5
 11
36.5
 21
45.5
  0
LINE
  8
0
 10
36.5
 20
45.5
 11
36.5
 21
30.0413
  0
ENDSEC
  0
SECTION
  2
OBJECTS
  0
DICTIONARY
  0
ENDSEC
  0
EOF
