  0
SECTION
  2
BLOCKS
  0
ENDSEC
  0
SECTION
  2
ENTITIES
  0
LINE
  8
0
 10
0
 20
0
 11
11
 21
0
  0
LINE
  8
0
 10
11
 20
0
 11
11
 21
12.9861
  0
LINE
  8
0
 10
11
 20
12.9861
 11
7.85409
 21
12.9861
  0
LINE
  8
0
 10
7.85409
 20
12.9861
 11
7.84932
 21
12.9858
  0
LINE
  8
0
 10
7.84932
 20
12.9858
 11
7.73676
 21
12.9769
  0
LINE
  8
0
 10
7.73676
 20
12.9769
 11
7.73168
 21
12.9757
  0
LINE
  8
0
 10
7.73168
 20
12.9757
 11
7.62232
 21
12.9494
  0
LINE
  8
0
 10
7.62232
 20
12.9494
 11
7.61631
 21
12.9469
  0
LINE
  8
0
 10
7.61631
 20
12.9469
 11
7.51359
 21
12.9043
  0
LINE
  8
0
 10
7.51359
 20
12.9043
 11
7.5063
 21
12.8999
  0
LINE
  8
0
 10
7.5063
 20
12.8999
 11
7.41325
 21
12.8428
  0
LINE
  8
0
 10
7.41325
 20
12.8428
 11
7.4047
 21
12.8355
  0
LINE
  8
0
 10
7.4047
 20
12.8355
 11
7.32376
 21
12.7663
  0
LINE
  8
0
 10
7.32376
 20
12.7663
 11
7.3144
 21
12.7553
  0
LINE
  8
0
 10
7.3144
 20
12.7553
 11
7.24732
 21
12.6767
  0
LINE
  8
0
 10
7.24732
 20
12.6767
 11
7.23797
 21
12.6615
  0
LINE
  8
0
 10
7.23797
 20
12.6615
 11
7.18583
 21
12.5763
  0
LINE
  8
0
 10
7.18583
 20
12.5763
 11
7.17758
 21
12.5564
  0
LINE
  8
0
 10
7.17758
 20
12.5564
 11
7.14079
 21
12.4675
  0
LINE
  8
0
 10
7.14079
 20
12.4675
 11
7.1349
 21
12.4429
  0
LINE
  8
0
 10
7.1349
 20
12.4429
 11
7.11332
 21
12.353
  0
LINE
  8
0
 10
7.11332
 20
12.353
 11
7.11106
 21
12.3242
  0
LINE
  8
0
 10
7.11106
 20
12.3242
 11
7.10409
 21
12.2356
  0
LINE
  8
0
 10
7.10409
 20
12.2356
 11
7.10409
 21
5.5
  0
LINE
  8
0
 10
7.10409
 20
5.5
 11
5.60409
 21
4
  0
LINE
  8
0
 10
5.60409
 20
4
 11
0.499999
 21
4
  0
LINE
  8
0
 10
0.499999
 20
4
 11
0
 21
3.5
  0
LINE
  8
0
 10
0
 20
3.5
 11
0
 21
0
  0
LINE
  8
0
 10
0
 20
42
 11
0.499999
 21
41.5
  0
LINE
  8
0
 10
0.499999
 20
41.5
 11
5.60409
 21
41.5
  0
LINE
  8
0
 10
5.60409
 20
41.5
 11
7.10409
 21
40
  0
LINE
  8
0
 10
7.10409
 20
40
 11
7.10409
 21
30.7115
  0
LINE
  8
0
 10
7.10409
 20
30.7115
 11
7.1075
 21
30.648
  0
LINE
  8
0
 10
7.1075
 20
30.648
 11
7.11332
 21
30.5398
  0
LINE
  8
0
 10
7.11332
 20
30.5398
 11
7.12382
 21
30.4758
  0
LINE
  8
0
 10
7.12382
 20
30.4758
 11
7.14079
 21
30.3724
  0
LINE
  8
0
 10
7.14079
 20
30.3724
 11
7.15855
 21
30.3096
  0
LINE
  8
0
 10
7.15855
 20
30.3096
 11
7.18583
 21
30.2133
  0
LINE
  8
0
 10
7.18583
 20
30.2133
 11
7.21078
 21
30.1537
  0
LINE
  8
0
 10
7.21078
 20
30.1537
 11
7.24732
 21
30.0665
  0
LINE
  8
0
 10
7.24732
 20
30.0665
 11
7.27912
 21
30.012
  0
LINE
  8
0
 10
7.27912
 20
30.012
 11
7.32376
 21
29.9355
  0
LINE
  8
0
 10
7.32376
 20
29.9355
 11
7.3618
 21
29.888
  0
LINE
  8
0
 10
7.3618
 20
29.888
 11
7.41325
 21
29.8237
  0
LINE
  8
0
 10
7.41325
 20
29.8237
 11
7.51359
 21
29.7337
  0
LINE
  8
0
 10
7.51359
 20
29.7337
 11
7.56127
 21
29.7048
  0
LINE
  8
0
 10
7.56127
 20
29.7048
 11
7.62232
 21
29.6678
  0
LINE
  8
0
 10
7.62232
 20
29.6678
 11
7.67296
 21
29.65
  0
LINE
  8
0
 10
7.67296
 20
29.65
 11
7.73676
 21
29.6276
  0
LINE
  8
0
 10
7.73676
 20
29.6276
 11
7.78892
 21
29.6216
  0
LINE
  8
0
 10
7.78892
 20
29.6216
 11
7.85409
 21
29.6141
  0
LINE
  8
0
 10
7.85409
 20
29.6141
 11
11
 21
29.6141
  0
LINE
  8
0
 10
11
 20
29.6141
 11
11
 21
45.5
  0
LINE
  8
0
 10
11
 20
45.5
 11
0
 21
45.5
  0
LINE
  8
0
 10
0
 20
45.5
 11
0
 21
42
  0
LINE
  8
0
 10
7.10409
 20
19.7615
 11
7.11205
 21
19.6135
  0
LINE
  8
0
 10
7.11205
 20
19.6135
 11
7.11332
 21
19.5898
  0
LINE
  8
0
 10
7.11332
 20
19.5898
 11
7.13718
 21
19.4444
  0
LINE
  8
0
 10
7.13718
 20
19.4444
 11
7.14079
 21
19.4224
  0
LINE
  8
0
 10
7.14079
 20
19.4224
 11
7.18017
 21
19.2833
  0
LINE
  8
0
 10
7.18017
 20
19.2833
 11
7.18583
 21
19.2633
  0
LINE
  8
0
 10
7.18583
 20
19.2633
 11
7.23993
 21
19.1341
  0
LINE
  8
0
 10
7.23993
 20
19.1341
 11
7.24732
 21
19.1165
  0
LINE
  8
0
 10
7.24732
 20
19.1165
 11
7.31494
 21
19.0006
  0
LINE
  8
0
 10
7.31494
 20
19.0006
 11
7.32376
 21
18.9855
  0
LINE
  8
0
 10
7.32376
 20
18.9855
 11
7.41325
 21
18.8737
  0
LINE
  8
0
 10
7.41325
 20
18.8737
 11
7.51359
 21
18.7837
  0
LINE
  8
0
 10
7.51359
 20
18.7837
 11
7.61087
 21
18.7248
  0
LINE
  8
0
 10
7.61087
 20
18.7248
 11
7.62232
 21
18.7178
  0
LINE
  8
0
 10
7.62232
 20
18.7178
 11
7.72489
 21
18.6818
  0
LINE
  8
0
 10
7.72489
 20
18.6818
 11
7.73676
 21
18.6776
  0
LINE
  8
0
 10
7.73676
 20
18.6776
 11
7.85409
 21
18.6641
  0
LINE
  8
0
 10
7.85409
 20
18.6641
 11
11
 21
18.6641
  0
LINE
  8
0
 10
11
 20
18.6641
 11
11
 21
22.2983
  0
LINE
  8
0
 10
11
 20
22.2983
 11
7.85409
 21
22.2983
  0
LINE
  8
0
 10
7.85409
 20
22.2983
 11
7.73676
 21
22.2847
  0
LINE
  8
0
 10
7.73676
 20
22.2847
 11
7.62427
 21
22.2452
  0
LINE
  8
0
 10
7.62427
 20
22.2452
 11
7.62232
 21
22.2445
  0
LINE
  8
0
 10
7.62232
 20
22.2445
 11
7.51492
 21
22.1795
  0
LINE
  8
0
 10
7.51492
 20
22.1795
 11
7.51359
 21
22.1786
  0
LINE
  8
0
 10
7.51359
 20
22.1786
 11
7.41381
 21
22.0892
  0
LINE
  8
0
 10
7.41381
 20
22.0892
 11
7.41325
 21
22.0887
  0
LINE
  8
0
 10
7.41325
 20
22.0887
 11
7.35218
 21
22.0124
  0
LINE
  8
0
 10
7.35218
 20
22.0124
 11
7.32794
 21
21.9845
  0
LINE
  8
0
 10
7.32794
 20
21.9845
 11
7.32376
 21
21.9797
  0
LINE
  8
0
 10
7.32376
 20
21.9797
 11
7.26326
 21
21.8845
  0
LINE
  8
0
 10
7.26326
 20
21.8845
 11
7.24732
 21
21.8594
  0
LINE
  8
0
 10
7.24732
 20
21.8594
 11
7.20887
 21
21.7751
  0
LINE
  8
0
 10
7.20887
 20
21.7751
 11
7.18583
 21
21.7246
  0
LINE
  8
0
 10
7.18583
 20
21.7246
 11
7.16516
 21
21.6575
  0
LINE
  8
0
 10
7.16516
 20
21.6575
 11
7.14079
 21
21.5784
  0
LINE
  8
0
 10
7.14079
 20
21.5784
 11
7.13268
 21
21.5329
  0
LINE
  8
0
 10
7.13268
 20
21.5329
 11
7.11332
 21
21.4246
  0
LINE
  8
0
 10
7.11332
 20
21.4246
 11
7.11205
 21
21.4029
  0
LINE
  8
0
 10
7.11205
 20
21.4029
 11
7.10498
 21
21.2821
  0
LINE
  8
0
 10
7.10498
 20
21.2821
 11
7.10421
 21
21.2706
  0
LINE
  8
0
 10
7.10421
 20
21.2706
 11
7.10409
 21
21.2687
  0
LINE
  8
0
 10
7.10409
 20
21.2687
 11
7.10409
 21
19.7615
  0
LINE
  8
0
 10
36.5
 20
0
 11
47.5
 21
0
  0
LINE
  8
0
 10
47.5
 20
0
 11
47.5
 21
3.5
  0
LINE
  8
0
 10
47.5
 20
3.5
 11
47
 21
4
  0
LINE
  8
0
 10
47
 20
4
 11
41.8959
 21
4
  0
LINE
  8
0
 10
41.8959
 20
4
 11
40.3959
 21
5.5
  0
LINE
  8
0
 10
40.3959
 20
5.5
 11
40.3959
 21
12.2356
  0
LINE
  8
0
 10
40.3959
 20
12.2356
 11
40.3934
 21
12.2677
  0
LINE
  8
0
 10
40.3934
 20
12.2677
 11
40.3867
 21
12.353
  0
LINE
  8
0
 10
40.3867
 20
12.353
 11
40.38
 21
12.381
  0
LINE
  8
0
 10
40.38
 20
12.381
 11
40.3592
 21
12.4675
  0
LINE
  8
0
 10
40.3592
 20
12.4675
 11
40.3496
 21
12.4908
  0
LINE
  8
0
 10
40.3496
 20
12.4908
 11
40.3142
 21
12.5763
  0
LINE
  8
0
 10
40.3142
 20
12.5763
 11
40.3029
 21
12.5947
  0
LINE
  8
0
 10
40.3029
 20
12.5947
 11
40.2527
 21
12.6767
  0
LINE
  8
0
 10
40.2527
 20
12.6767
 11
40.2411
 21
12.6903
  0
LINE
  8
0
 10
40.2411
 20
12.6903
 11
40.1762
 21
12.7663
  0
LINE
  8
0
 10
40.1762
 20
12.7663
 11
40.1653
 21
12.7756
  0
LINE
  8
0
 10
40.1653
 20
12.7756
 11
40.0868
 21
12.8428
  0
LINE
  8
0
 10
40.0868
 20
12.8428
 11
40.0772
 21
12.8487
  0
LINE
  8
0
 10
40.0772
 20
12.8487
 11
39.9864
 21
12.9043
  0
LINE
  8
0
 10
39.9864
 20
12.9043
 11
39.9785
 21
12.9076
  0
LINE
  8
0
 10
39.9785
 20
12.9076
 11
39.8777
 21
12.9494
  0
LINE
  8
0
 10
39.8777
 20
12.9494
 11
39.8714
 21
12.9509
  0
LINE
  8
0
 10
39.8714
 20
12.9509
 11
39.7632
 21
12.9769
  0
LINE
  8
0
 10
39.7632
 20
12.9769
 11
39.758
 21
12.9773
  0
LINE
  8
0
 10
39.758
 20
12.9773
 11
39.6459
 21
12.9861
  0
LINE
  8
0
 10
39.6459
 20
12.9861
 11
36.5
 21
12.9861
  0
LINE
  8
0
 10
36.5
 20
12.9861
 11
36.5
 21
0
  0
LINE
  8
0
 10
36.5
 20
18.6641
 11
39.6459
 21
18.6641
  0
LINE
  8
0
 10
39.6459
 20
18.6641
 11
39.7632
 21
18.6776
  0
LINE
  8
0
 10
39.7632
 20
18.6776
 11
39.8657
 21
18.7136
  0
LINE
  8
0
 10
39.8657
 20
18.7136
 11
39.8777
 21
18.7178
  0
LINE
  8
0
 10
39.8777
 20
18.7178
 11
39.9747
 21
18.7767
  0
LINE
  8
0
 10
39.9747
 20
18.7767
 11
39.9864
 21
18.7837
  0
LINE
  8
0
 10
39.9864
 20
18.7837
 11
40.0868
 21
18.8737
  0
LINE
  8
0
 10
40.0868
 20
18.8737
 11
40.1762
 21
18.9855
  0
LINE
  8
0
 10
40.1762
 20
18.9855
 11
40.2436
 21
19.1009
  0
LINE
  8
0
 10
40.2436
 20
19.1009
 11
40.2527
 21
19.1165
  0
LINE
  8
0
 10
40.2527
 20
19.1165
 11
40.3065
 21
19.245
  0
LINE
  8
0
 10
40.3065
 20
19.245
 11
40.3142
 21
19.2633
  0
LINE
  8
0
 10
40.3142
 20
19.2633
 11
40.3533
 21
19.4017
  0
LINE
  8
0
 10
40.3533
 20
19.4017
 11
40.3592
 21
19.4224
  0
LINE
  8
0
 10
40.3592
 20
19.4224
 11
40.3829
 21
19.567
  0
LINE
  8
0
 10
40.3829
 20
19.567
 11
40.3867
 21
19.5898
  0
LINE
  8
0
 10
40.3867
 20
19.5898
 11
40.3946
 21
19.7371
  0
LINE
  8
0
 10
40.3946
 20
19.7371
 11
40.3959
 21
19.7615
  0
LINE
  8
0
 10
40.3959
 20
19.7615
 11
40.3959
 21
21.2687
  0
LINE
  8
0
 10
40.3959
 20
21.2687
 11
40.395
 21
21.2821
  0
LINE
  8
0
 10
40.395
 20
21.2821
 11
40.3867
 21
21.4246
  0
LINE
  8
0
 10
40.3867
 20
21.4246
 11
40.3808
 21
21.4576
  0
LINE
  8
0
 10
40.3808
 20
21.4576
 11
40.3592
 21
21.5784
  0
LINE
  8
0
 10
40.3592
 20
21.5784
 11
40.3384
 21
21.6458
  0
LINE
  8
0
 10
40.3384
 20
21.6458
 11
40.3142
 21
21.7246
  0
LINE
  8
0
 10
40.3142
 20
21.7246
 11
40.2707
 21
21.8199
  0
LINE
  8
0
 10
40.2707
 20
21.8199
 11
40.2527
 21
21.8594
  0
LINE
  8
0
 10
40.2527
 20
21.8594
 11
40.1811
 21
21.9721
  0
LINE
  8
0
 10
40.1811
 20
21.9721
 11
40.1762
 21
21.9797
  0
LINE
  8
0
 10
40.1762
 20
21.9797
 11
40.1478
 21
22.0124
  0
LINE
  8
0
 10
40.1478
 20
22.0124
 11
40.0872
 21
22.0881
  0
LINE
  8
0
 10
40.0872
 20
22.0881
 11
40.0868
 21
22.0887
  0
LINE
  8
0
 10
40.0868
 20
22.0887
 11
39.9876
 21
22.1776
  0
LINE
  8
0
 10
39.9876
 20
22.1776
 11
39.9864
 21
22.1786
  0
LINE
  8
0
 10
39.9864
 20
22.1786
 11
39.8795
 21
22.2434
  0
LINE
  8
0
 10
39.8795
 20
22.2434
 11
39.8777
 21
22.2445
  0
LINE
  8
0
 10
39.8777
 20
22.2445
 11
39.7655
 21
22.2839
  0
LINE
  8
0
 10
39.7655
 20
22.2839
 11
39.7632
 21
22.2847
  0
LINE
  8
0
 10
39.7632
 20
22.2847
 11
39.6459
 21
22.2983
  0
LINE
  8
0
 10
39.6459
 20
22.2983
 11
36.5
 21
22.2983
  0
LINE
  8
0
 10
36.5
 20
22.2983
 11
36.5
 21
18.6641
  0
LINE
  8
0
 10
36.5
 20
29.6141
 11
39.6459
 21
29.6141
  0
LINE
  8
0
 10
39.6459
 20
29.6141
 11
39.6981
 21
29.6201
  0
LINE
  8
0
 10
39.6981
 20
29.6201
 11
39.7632
 21
29.6276
  0
LINE
  8
0
 10
39.7632
 20
29.6276
 11
39.8139
 21
29.6454
  0
LINE
  8
0
 10
39.8139
 20
29.6454
 11
39.8777
 21
29.6678
  0
LINE
  8
0
 10
39.8777
 20
29.6678
 11
39.9254
 21
29.6967
  0
LINE
  8
0
 10
39.9254
 20
29.6967
 11
39.9864
 21
29.7337
  0
LINE
  8
0
 10
39.9864
 20
29.7337
 11
40.0868
 21
29.8237
  0
LINE
  8
0
 10
40.0868
 20
29.8237
 11
40.1249
 21
29.8714
  0
LINE
  8
0
 10
40.1249
 20
29.8714
 11
40.1762
 21
29.9355
  0
LINE
  8
0
 10
40.1762
 20
29.9355
 11
40.2082
 21
29.9902
  0
LINE
  8
0
 10
40.2082
 20
29.9902
 11
40.2527
 21
30.0665
  0
LINE
  8
0
 10
40.2527
 20
30.0665
 11
40.2777
 21
30.1263
  0
LINE
  8
0
 10
40.2777
 20
30.1263
 11
40.3142
 21
30.2133
  0
LINE
  8
0
 10
40.3142
 20
30.2133
 11
40.332
 21
30.2764
  0
LINE
  8
0
 10
40.332
 20
30.2764
 11
40.3592
 21
30.3724
  0
LINE
  8
0
 10
40.3592
 20
30.3724
 11
40.3698
 21
30.4368
  0
LINE
  8
0
 10
40.3698
 20
30.4368
 11
40.3867
 21
30.5398
  0
LINE
  8
0
 10
40.3867
 20
30.5398
 11
40.3901
 21
30.6038
  0
LINE
  8
0
 10
40.3901
 20
30.6038
 11
40.3959
 21
30.7115
  0
LINE
  8
0
 10
40.3959
 20
30.7115
 11
40.3959
 21
40
  0
LINE
  8
0
 10
40.3959
 20
40
 11
41.8959
 21
41.5
  0
LINE
  8
0
 10
41.8959
 20
41.5
 11
47
 21
41.5
  0
LINE
  8
0
 10
47
 20
41.5
 11
47.5
 21
42
  0
LINE
  8
0
 10
47.5
 20
42
 11
47.5
 21
45.5
  0
LINE
  8
0
 10
47.5
 20
45.5
 11
36.5
 21
45.5
  0
LINE
  8
0
 10
36.5
 20
45.5
 11
36.5
 21
29.6141
  0
ENDSEC
  0
SECTION
  2
OBJECTS
  0
DICTIONARY
  0
ENDSEC
  0
EOF
