  0
SECTION
  2
BLOCKS
  0
ENDSEC
  0
SECTION
  2
ENTITIES
  0
LINE
  8
0
 10
0
 20
0
 11
11
 21
0
  0
LINE
  8
0
 10
11
 20
0
 11
11
 21
13.0357
  0
LINE
  8
0
 10
11
 20
13.0357
 11
7.85409
 21
13.0357
  0
LINE
  8
0
 10
7.85409
 20
13.0357
 11
7.79035
 21
13.0306
  0
LINE
  8
0
 10
7.79035
 20
13.0306
 11
7.73676
 21
13.0262
  0
LINE
  8
0
 10
7.73676
 20
13.0262
 11
7.67344
 21
13.0105
  0
LINE
  8
0
 10
7.67344
 20
13.0105
 11
7.62232
 21
12.9979
  0
LINE
  8
0
 10
7.62232
 20
12.9979
 11
7.55987
 21
12.9712
  0
LINE
  8
0
 10
7.55987
 20
12.9712
 11
7.51359
 21
12.9515
  0
LINE
  8
0
 10
7.51359
 20
12.9515
 11
7.45284
 21
12.9131
  0
LINE
  8
0
 10
7.45284
 20
12.9131
 11
7.41325
 21
12.8881
  0
LINE
  8
0
 10
7.41325
 20
12.8881
 11
7.35555
 21
12.8374
  0
LINE
  8
0
 10
7.35555
 20
12.8374
 11
7.32376
 21
12.8094
  0
LINE
  8
0
 10
7.32376
 20
12.8094
 11
7.27101
 21
12.7458
  0
LINE
  8
0
 10
7.27101
 20
12.7458
 11
7.24732
 21
12.7172
  0
LINE
  8
0
 10
7.24732
 20
12.7172
 11
7.20187
 21
12.6408
  0
LINE
  8
0
 10
7.20187
 20
12.6408
 11
7.18583
 21
12.6138
  0
LINE
  8
0
 10
7.18583
 20
12.6138
 11
7.15026
 21
12.5253
  0
LINE
  8
0
 10
7.15026
 20
12.5253
 11
7.14079
 21
12.5018
  0
LINE
  8
0
 10
7.14079
 20
12.5018
 11
7.11771
 21
12.4027
  0
LINE
  8
0
 10
7.11771
 20
12.4027
 11
7.11332
 21
12.3839
  0
LINE
  8
0
 10
7.11332
 20
12.3839
 11
7.10512
 21
12.2765
  0
LINE
  8
0
 10
7.10512
 20
12.2765
 11
7.10409
 21
12.263
  0
LINE
  8
0
 10
7.10409
 20
12.263
 11
7.10409
 21
5.5
  0
LINE
  8
0
 10
7.10409
 20
5.5
 11
5.60409
 21
4
  0
LINE
  8
0
 10
5.60409
 20
4
 11
0.499999
 21
4
  0
LINE
  8
0
 10
0.499999
 20
4
 11
0
 21
3.5
  0
LINE
  8
0
 10
0
 20
3.5
 11
0
 21
0
  0
LINE
  8
0
 10
0
 20
42
 11
0.499999
 21
41.5
  0
LINE
  8
0
 10
0.499999
 20
41.5
 11
5.60409
 21
41.5
  0
LINE
  8
0
 10
5.60409
 20
41.5
 11
7.10409
 21
40
  0
LINE
  8
0
 10
7.10409
 20
40
 11
7.10409
 21
30.4979
  0
LINE
  8
0
 10
7.10409
 20
30.4979
 11
7.10777
 21
30.4293
  0
LINE
  8
0
 10
7.10777
 20
30.4293
 11
7.11332
 21
30.3262
  0
LINE
  8
0
 10
7.11332
 20
30.3262
 11
7.12463
 21
30.2572
  0
LINE
  8
0
 10
7.12463
 20
30.2572
 11
7.14079
 21
30.1587
  0
LINE
  8
0
 10
7.14079
 20
30.1587
 11
7.15989
 21
30.0913
  0
LINE
  8
0
 10
7.15989
 20
30.0913
 11
7.18583
 21
29.9997
  0
LINE
  8
0
 10
7.18583
 20
29.9997
 11
7.2126
 21
29.9357
  0
LINE
  8
0
 10
7.2126
 20
29.9357
 11
7.24732
 21
29.8528
  0
LINE
  8
0
 10
7.24732
 20
29.8528
 11
7.28138
 21
29.7945
  0
LINE
  8
0
 10
7.28138
 20
29.7945
 11
7.32376
 21
29.7219
  0
LINE
  8
0
 10
7.32376
 20
29.7219
 11
7.36444
 21
29.6711
  0
LINE
  8
0
 10
7.36444
 20
29.6711
 11
7.41325
 21
29.6101
  0
LINE
  8
0
 10
7.41325
 20
29.6101
 11
7.51359
 21
29.5201
  0
LINE
  8
0
 10
7.51359
 20
29.5201
 11
7.56446
 21
29.4893
  0
LINE
  8
0
 10
7.56446
 20
29.4893
 11
7.62232
 21
29.4542
  0
LINE
  8
0
 10
7.62232
 20
29.4542
 11
7.67632
 21
29.4352
  0
LINE
  8
0
 10
7.67632
 20
29.4352
 11
7.73676
 21
29.414
  0
LINE
  8
0
 10
7.73676
 20
29.414
 11
7.79235
 21
29.4076
  0
LINE
  8
0
 10
7.79235
 20
29.4076
 11
7.85409
 21
29.4005
  0
LINE
  8
0
 10
7.85409
 20
29.4005
 11
11
 21
29.4005
  0
LINE
  8
0
 10
11
 20
29.4005
 11
11
 21
45.5
  0
LINE
  8
0
 10
11
 20
45.5
 11
0
 21
45.5
  0
LINE
  8
0
 10
0
 20
45.5
 11
0
 21
42
  0
LINE
  8
0
 10
7.10409
 20
19.5479
 11
7.11218
 21
19.3973
  0
LINE
  8
0
 10
7.11218
 20
19.3973
 11
7.11332
 21
19.3762
  0
LINE
  8
0
 10
7.11332
 20
19.3762
 11
7.13758
 21
19.2283
  0
LINE
  8
0
 10
7.13758
 20
19.2283
 11
7.14079
 21
19.2088
  0
LINE
  8
0
 10
7.14079
 20
19.2088
 11
7.18083
 21
19.0673
  0
LINE
  8
0
 10
7.18083
 20
19.0673
 11
7.18583
 21
19.0497
  0
LINE
  8
0
 10
7.18583
 20
19.0497
 11
7.24083
 21
18.9183
  0
LINE
  8
0
 10
7.24083
 20
18.9183
 11
7.24732
 21
18.9028
  0
LINE
  8
0
 10
7.24732
 20
18.9028
 11
7.31606
 21
18.7851
  0
LINE
  8
0
 10
7.31606
 20
18.7851
 11
7.32376
 21
18.7719
  0
LINE
  8
0
 10
7.32376
 20
18.7719
 11
7.41325
 21
18.6601
  0
LINE
  8
0
 10
7.41325
 20
18.6601
 11
7.51359
 21
18.5701
  0
LINE
  8
0
 10
7.51359
 20
18.5701
 11
7.61247
 21
18.5102
  0
LINE
  8
0
 10
7.61247
 20
18.5102
 11
7.62232
 21
18.5042
  0
LINE
  8
0
 10
7.62232
 20
18.5042
 11
7.72656
 21
18.4676
  0
LINE
  8
0
 10
7.72656
 20
18.4676
 11
7.73676
 21
18.464
  0
LINE
  8
0
 10
7.73676
 20
18.464
 11
7.85409
 21
18.4505
  0
LINE
  8
0
 10
7.85409
 20
18.4505
 11
11
 21
18.4505
  0
LINE
  8
0
 10
11
 20
18.4505
 11
11
 21
22.094
  0
LINE
  8
0
 10
11
 20
22.094
 11
7.85409
 21
22.094
  0
LINE
  8
0
 10
7.85409
 20
22.094
 11
7.7608
 21
22.0841
  0
LINE
  8
0
 10
7.7608
 20
22.0841
 11
7.73676
 21
22.0816
  0
LINE
  8
0
 10
7.73676
 20
22.0816
 11
7.65175
 21
22.0541
  0
LINE
  8
0
 10
7.65175
 20
22.0541
 11
7.62232
 21
22.0446
  0
LINE
  8
0
 10
7.62232
 20
22.0446
 11
7.55064
 21
22.0047
  0
LINE
  8
0
 10
7.55064
 20
22.0047
 11
7.51359
 21
21.9841
  0
LINE
  8
0
 10
7.51359
 20
21.9841
 11
7.45826
 21
21.9385
  0
LINE
  8
0
 10
7.45826
 20
21.9385
 11
7.41325
 21
21.9014
  0
LINE
  8
0
 10
7.41325
 20
21.9014
 11
7.3751
 21
21.8577
  0
LINE
  8
0
 10
7.3751
 20
21.8577
 11
7.32376
 21
21.7987
  0
LINE
  8
0
 10
7.32376
 20
21.7987
 11
7.30163
 21
21.7639
  0
LINE
  8
0
 10
7.30163
 20
21.7639
 11
7.24732
 21
21.6784
  0
LINE
  8
0
 10
7.24732
 20
21.6784
 11
7.23835
 21
21.6587
  0
LINE
  8
0
 10
7.23835
 20
21.6587
 11
7.18587
 21
21.5436
  0
LINE
  8
0
 10
7.18587
 20
21.5436
 11
7.18584
 21
21.5435
  0
LINE
  8
0
 10
7.18584
 20
21.5435
 11
7.18583
 21
21.5435
  0
LINE
  8
0
 10
7.18583
 20
21.5435
 11
7.14712
 21
21.4329
  0
LINE
  8
0
 10
7.14712
 20
21.4329
 11
7.14079
 21
21.4148
  0
LINE
  8
0
 10
7.14079
 20
21.4148
 11
7.12094
 21
21.3169
  0
LINE
  8
0
 10
7.12094
 20
21.3169
 11
7.11332
 21
21.2793
  0
LINE
  8
0
 10
7.11332
 20
21.2793
 11
7.10786
 21
21.1971
  0
LINE
  8
0
 10
7.10786
 20
21.1971
 11
7.10409
 21
21.1404
  0
LINE
  8
0
 10
7.10409
 20
21.1404
 11
7.10409
 21
19.5479
  0
LINE
  8
0
 10
36.5
 20
0
 11
47.5
 21
0
  0
LINE
  8
0
 10
47.5
 20
0
 11
47.5
 21
3.5
  0
LINE
  8
0
 10
47.5
 20
3.5
 11
47
 21
4
  0
LINE
  8
0
 10
47
 20
4
 11
41.8959
 21
4
  0
LINE
  8
0
 10
41.8959
 20
4
 11
40.3959
 21
5.5
  0
LINE
  8
0
 10
40.3959
 20
5.5
 11
40.3959
 21
12.263
  0
LINE
  8
0
 10
40.3959
 20
12.263
 11
40.3879
 21
12.3673
  0
LINE
  8
0
 10
40.3879
 20
12.3673
 11
40.3867
 21
12.3839
  0
LINE
  8
0
 10
40.3867
 20
12.3839
 11
40.3642
 21
12.4806
  0
LINE
  8
0
 10
40.3642
 20
12.4806
 11
40.3592
 21
12.5018
  0
LINE
  8
0
 10
40.3592
 20
12.5018
 11
40.3243
 21
12.5887
  0
LINE
  8
0
 10
40.3243
 20
12.5887
 11
40.3142
 21
12.6138
  0
LINE
  8
0
 10
40.3142
 20
12.6138
 11
40.2692
 21
12.6894
  0
LINE
  8
0
 10
40.2692
 20
12.6894
 11
40.2527
 21
12.7172
  0
LINE
  8
0
 10
40.2527
 20
12.7172
 11
40.2002
 21
12.7805
  0
LINE
  8
0
 10
40.2002
 20
12.7805
 11
40.1762
 21
12.8094
  0
LINE
  8
0
 10
40.1762
 20
12.8094
 11
40.1184
 21
12.8603
  0
LINE
  8
0
 10
40.1184
 20
12.8603
 11
40.0868
 21
12.8881
  0
LINE
  8
0
 10
40.0868
 20
12.8881
 11
40.0256
 21
12.9267
  0
LINE
  8
0
 10
40.0256
 20
12.9267
 11
39.9864
 21
12.9515
  0
LINE
  8
0
 10
39.9864
 20
12.9515
 11
39.9235
 21
12.9784
  0
LINE
  8
0
 10
39.9235
 20
12.9784
 11
39.8777
 21
12.9979
  0
LINE
  8
0
 10
39.8777
 20
12.9979
 11
39.814
 21
13.0137
  0
LINE
  8
0
 10
39.814
 20
13.0137
 11
39.7632
 21
13.0262
  0
LINE
  8
0
 10
39.7632
 20
13.0262
 11
39.6993
 21
13.0314
  0
LINE
  8
0
 10
39.6993
 20
13.0314
 11
39.6459
 21
13.0357
  0
LINE
  8
0
 10
39.6459
 20
13.0357
 11
36.5
 21
13.0357
  0
LINE
  8
0
 10
36.5
 20
13.0357
 11
36.5
 21
0
  0
LINE
  8
0
 10
36.5
 20
18.4505
 11
39.6459
 21
18.4505
  0
LINE
  8
0
 10
39.6459
 20
18.4505
 11
39.7632
 21
18.464
  0
LINE
  8
0
 10
39.7632
 20
18.464
 11
39.8673
 21
18.5006
  0
LINE
  8
0
 10
39.8673
 20
18.5006
 11
39.8777
 21
18.5042
  0
LINE
  8
0
 10
39.8777
 20
18.5042
 11
39.9763
 21
18.564
  0
LINE
  8
0
 10
39.9763
 20
18.564
 11
39.9864
 21
18.5701
  0
LINE
  8
0
 10
39.9864
 20
18.5701
 11
40.0868
 21
18.6601
  0
LINE
  8
0
 10
40.0868
 20
18.6601
 11
40.1762
 21
18.7719
  0
LINE
  8
0
 10
40.1762
 20
18.7719
 11
40.2447
 21
18.8892
  0
LINE
  8
0
 10
40.2447
 20
18.8892
 11
40.2527
 21
18.9028
  0
LINE
  8
0
 10
40.2527
 20
18.9028
 11
40.3074
 21
19.0336
  0
LINE
  8
0
 10
40.3074
 20
19.0336
 11
40.3142
 21
19.0497
  0
LINE
  8
0
 10
40.3142
 20
19.0497
 11
40.354
 21
19.1904
  0
LINE
  8
0
 10
40.354
 20
19.1904
 11
40.3592
 21
19.2088
  0
LINE
  8
0
 10
40.3592
 20
19.2088
 11
40.3833
 21
19.3559
  0
LINE
  8
0
 10
40.3833
 20
19.3559
 11
40.3867
 21
19.3762
  0
LINE
  8
0
 10
40.3867
 20
19.3762
 11
40.3947
 21
19.5259
  0
LINE
  8
0
 10
40.3947
 20
19.5259
 11
40.3959
 21
19.5479
  0
LINE
  8
0
 10
40.3959
 20
19.5479
 11
40.3959
 21
21.1404
  0
LINE
  8
0
 10
40.3959
 20
21.1404
 11
40.39
 21
21.2298
  0
LINE
  8
0
 10
40.39
 20
21.2298
 11
40.3867
 21
21.2793
  0
LINE
  8
0
 10
40.3867
 20
21.2793
 11
40.3642
 21
21.3903
  0
LINE
  8
0
 10
40.3642
 20
21.3903
 11
40.3592
 21
21.4148
  0
LINE
  8
0
 10
40.3592
 20
21.4148
 11
40.3142
 21
21.5435
  0
LINE
  8
0
 10
40.3142
 20
21.5435
 11
40.3142
 21
21.5435
  0
LINE
  8
0
 10
40.3142
 20
21.5435
 11
40.3141
 21
21.5436
  0
LINE
  8
0
 10
40.3141
 20
21.5436
 11
40.2527
 21
21.6784
  0
LINE
  8
0
 10
40.2527
 20
21.6784
 11
40.236
 21
21.7047
  0
LINE
  8
0
 10
40.236
 20
21.7047
 11
40.1762
 21
21.7987
  0
LINE
  8
0
 10
40.1762
 20
21.7987
 11
40.139
 21
21.8414
  0
LINE
  8
0
 10
40.139
 20
21.8414
 11
40.0868
 21
21.9014
  0
LINE
  8
0
 10
40.0868
 20
21.9014
 11
40.0285
 21
21.9494
  0
LINE
  8
0
 10
40.0285
 20
21.9494
 11
39.9864
 21
21.9841
  0
LINE
  8
0
 10
39.9864
 20
21.9841
 11
39.91
 21
22.0267
  0
LINE
  8
0
 10
39.91
 20
22.0267
 11
39.8777
 21
22.0446
  0
LINE
  8
0
 10
39.8777
 20
22.0446
 11
39.7885
 21
22.0734
  0
LINE
  8
0
 10
39.7885
 20
22.0734
 11
39.7632
 21
22.0816
  0
LINE
  8
0
 10
39.7632
 20
22.0816
 11
39.6683
 21
22.0916
  0
LINE
  8
0
 10
39.6683
 20
22.0916
 11
39.6459
 21
22.094
  0
LINE
  8
0
 10
39.6459
 20
22.094
 11
36.5
 21
22.094
  0
LINE
  8
0
 10
36.5
 20
22.094
 11
36.5
 21
18.4505
  0
LINE
  8
0
 10
36.5
 20
29.4005
 11
39.6459
 21
29.4005
  0
LINE
  8
0
 10
39.6459
 20
29.4005
 11
39.7015
 21
29.4069
  0
LINE
  8
0
 10
39.7015
 20
29.4069
 11
39.7632
 21
29.414
  0
LINE
  8
0
 10
39.7632
 20
29.414
 11
39.8172
 21
29.433
  0
LINE
  8
0
 10
39.8172
 20
29.433
 11
39.8777
 21
29.4542
  0
LINE
  8
0
 10
39.8777
 20
29.4542
 11
39.9286
 21
29.485
  0
LINE
  8
0
 10
39.9286
 20
29.485
 11
39.9864
 21
29.5201
  0
LINE
  8
0
 10
39.9864
 20
29.5201
 11
40.0868
 21
29.6101
  0
LINE
  8
0
 10
40.0868
 20
29.6101
 11
40.1275
 21
29.661
  0
LINE
  8
0
 10
40.1275
 20
29.661
 11
40.1762
 21
29.7219
  0
LINE
  8
0
 10
40.1762
 20
29.7219
 11
40.2104
 21
29.7804
  0
LINE
  8
0
 10
40.2104
 20
29.7804
 11
40.2527
 21
29.8528
  0
LINE
  8
0
 10
40.2527
 20
29.8528
 11
40.2795
 21
29.9169
  0
LINE
  8
0
 10
40.2795
 20
29.9169
 11
40.3142
 21
29.9997
  0
LINE
  8
0
 10
40.3142
 20
29.9997
 11
40.3333
 21
30.0674
  0
LINE
  8
0
 10
40.3333
 20
30.0674
 11
40.3592
 21
30.1587
  0
LINE
  8
0
 10
40.3592
 20
30.1587
 11
40.3706
 21
30.2281
  0
LINE
  8
0
 10
40.3706
 20
30.2281
 11
40.3867
 21
30.3262
  0
LINE
  8
0
 10
40.3867
 20
30.3262
 11
40.3904
 21
30.3951
  0
LINE
  8
0
 10
40.3904
 20
30.3951
 11
40.3959
 21
30.4979
  0
LINE
  8
0
 10
40.3959
 20
30.4979
 11
40.3959
 21
40
  0
LINE
  8
0
 10
40.3959
 20
40
 11
41.8959
 21
41.5
  0
LINE
  8
0
 10
41.8959
 20
41.5
 11
47
 21
41.5
  0
LINE
  8
0
 10
47
 20
41.5
 11
47.5
 21
42
  0
LINE
  8
0
 10
47.5
 20
42
 11
47.5
 21
45.5
  0
LINE
  8
0
 10
47.5
 20
45.5
 11
36.5
 21
45.5
  0
LINE
  8
0
 10
36.5
 20
45.5
 11
36.5
 21
29.4005
  0
ENDSEC
  0
SECTION
  2
OBJECTS
  0
DICTIONARY
  0
ENDSEC
  0
EOF
