  0
SECTION
  2
BLOCKS
  0
ENDSEC
  0
SECTION
  2
ENTITIES
  0
LINE
  8
0
 10
0
 20
0
 11
11
 21
0
  0
LINE
  8
0
 10
11
 20
0
 11
11
 21
13.0882
  0
LINE
  8
0
 10
11
 20
13.0882
 11
7.85409
 21
13.0882
  0
LINE
  8
0
 10
7.85409
 20
13.0882
 11
7.84934
 21
13.0878
  0
LINE
  8
0
 10
7.84934
 20
13.0878
 11
7.73676
 21
13.0786
  0
LINE
  8
0
 10
7.73676
 20
13.0786
 11
7.73122
 21
13.0773
  0
LINE
  8
0
 10
7.73122
 20
13.0773
 11
7.62232
 21
13.0503
  0
LINE
  8
0
 10
7.62232
 20
13.0503
 11
7.61458
 21
13.047
  0
LINE
  8
0
 10
7.61458
 20
13.047
 11
7.51359
 21
13.0039
  0
LINE
  8
0
 10
7.51359
 20
13.0039
 11
7.50278
 21
12.9971
  0
LINE
  8
0
 10
7.50278
 20
12.9971
 11
7.41325
 21
12.9406
  0
LINE
  8
0
 10
7.41325
 20
12.9406
 11
7.3993
 21
12.9283
  0
LINE
  8
0
 10
7.3993
 20
12.9283
 11
7.32376
 21
12.8618
  0
LINE
  8
0
 10
7.32376
 20
12.8618
 11
7.30749
 21
12.8422
  0
LINE
  8
0
 10
7.30749
 20
12.8422
 11
7.24732
 21
12.7696
  0
LINE
  8
0
 10
7.24732
 20
12.7696
 11
7.23037
 21
12.7411
  0
LINE
  8
0
 10
7.23037
 20
12.7411
 11
7.18583
 21
12.6663
  0
LINE
  8
0
 10
7.18583
 20
12.6663
 11
7.17045
 21
12.628
  0
LINE
  8
0
 10
7.17045
 20
12.628
 11
7.14079
 21
12.5542
  0
LINE
  8
0
 10
7.14079
 20
12.5542
 11
7.1296
 21
12.5062
  0
LINE
  8
0
 10
7.1296
 20
12.5062
 11
7.11332
 21
12.4363
  0
LINE
  8
0
 10
7.11332
 20
12.4363
 11
7.10896
 21
12.3793
  0
LINE
  8
0
 10
7.10896
 20
12.3793
 11
7.10409
 21
12.3155
  0
LINE
  8
0
 10
7.10409
 20
12.3155
 11
7.10409
 21
5.5
  0
LINE
  8
0
 10
7.10409
 20
5.5
 11
5.60409
 21
4
  0
LINE
  8
0
 10
5.60409
 20
4
 11
0.499999
 21
4
  0
LINE
  8
0
 10
0.499999
 20
4
 11
0
 21
3.5
  0
LINE
  8
0
 10
0
 20
3.5
 11
0
 21
0
  0
LINE
  8
0
 10
0
 20
42
 11
0.499999
 21
41.5
  0
LINE
  8
0
 10
0.499999
 20
41.5
 11
5.60409
 21
41.5
  0
LINE
  8
0
 10
5.60409
 20
41.5
 11
7.10409
 21
40
  0
LINE
  8
0
 10
7.10409
 20
40
 11
7.10409
 21
30.2842
  0
LINE
  8
0
 10
7.10409
 20
30.2842
 11
7.10805
 21
30.2106
  0
LINE
  8
0
 10
7.10805
 20
30.2106
 11
7.11332
 21
30.1126
  0
LINE
  8
0
 10
7.11332
 20
30.1126
 11
7.12545
 21
30.0387
  0
LINE
  8
0
 10
7.12545
 20
30.0387
 11
7.14079
 21
29.9451
  0
LINE
  8
0
 10
7.14079
 20
29.9451
 11
7.16122
 21
29.873
  0
LINE
  8
0
 10
7.16122
 20
29.873
 11
7.18583
 21
29.786
  0
LINE
  8
0
 10
7.18583
 20
29.786
 11
7.21442
 21
29.7178
  0
LINE
  8
0
 10
7.21442
 20
29.7178
 11
7.24732
 21
29.6392
  0
LINE
  8
0
 10
7.24732
 20
29.6392
 11
7.28364
 21
29.577
  0
LINE
  8
0
 10
7.28364
 20
29.577
 11
7.32376
 21
29.5083
  0
LINE
  8
0
 10
7.32376
 20
29.5083
 11
7.36708
 21
29.4541
  0
LINE
  8
0
 10
7.36708
 20
29.4541
 11
7.41325
 21
29.3964
  0
LINE
  8
0
 10
7.41325
 20
29.3964
 11
7.51359
 21
29.3065
  0
LINE
  8
0
 10
7.51359
 20
29.3065
 11
7.56766
 21
29.2737
  0
LINE
  8
0
 10
7.56766
 20
29.2737
 11
7.62232
 21
29.2406
  0
LINE
  8
0
 10
7.62232
 20
29.2406
 11
7.67967
 21
29.2204
  0
LINE
  8
0
 10
7.67967
 20
29.2204
 11
7.73676
 21
29.2004
  0
LINE
  8
0
 10
7.73676
 20
29.2004
 11
7.79579
 21
29.1936
  0
LINE
  8
0
 10
7.79579
 20
29.1936
 11
7.85409
 21
29.1869
  0
LINE
  8
0
 10
7.85409
 20
29.1869
 11
11
 21
29.1869
  0
LINE
  8
0
 10
11
 20
29.1869
 11
11
 21
45.5
  0
LINE
  8
0
 10
11
 20
45.5
 11
0
 21
45.5
  0
LINE
  8
0
 10
0
 20
45.5
 11
0
 21
42
  0
LINE
  8
0
 10
7.10409
 20
19.3342
 11
7.11232
 21
19.1812
  0
LINE
  8
0
 10
7.11232
 20
19.1812
 11
7.11332
 21
19.1626
  0
LINE
  8
0
 10
7.11332
 20
19.1626
 11
7.13799
 21
19.0122
  0
LINE
  8
0
 10
7.13799
 20
19.0122
 11
7.14079
 21
18.9951
  0
LINE
  8
0
 10
7.14079
 20
18.9951
 11
7.18149
 21
18.8514
  0
LINE
  8
0
 10
7.18149
 20
18.8514
 11
7.18583
 21
18.836
  0
LINE
  8
0
 10
7.18583
 20
18.836
 11
7.24174
 21
18.7026
  0
LINE
  8
0
 10
7.24174
 20
18.7026
 11
7.24732
 21
18.6892
  0
LINE
  8
0
 10
7.24732
 20
18.6892
 11
7.31718
 21
18.5695
  0
LINE
  8
0
 10
7.31718
 20
18.5695
 11
7.32376
 21
18.5583
  0
LINE
  8
0
 10
7.32376
 20
18.5583
 11
7.41325
 21
18.4464
  0
LINE
  8
0
 10
7.41325
 20
18.4464
 11
7.51359
 21
18.3565
  0
LINE
  8
0
 10
7.51359
 20
18.3565
 11
7.61406
 21
18.2956
  0
LINE
  8
0
 10
7.61406
 20
18.2956
 11
7.62232
 21
18.2906
  0
LINE
  8
0
 10
7.62232
 20
18.2906
 11
7.72824
 21
18.2534
  0
LINE
  8
0
 10
7.72824
 20
18.2534
 11
7.73676
 21
18.2504
  0
LINE
  8
0
 10
7.73676
 20
18.2504
 11
7.85409
 21
18.2369
  0
LINE
  8
0
 10
7.85409
 20
18.2369
 11
11
 21
18.2369
  0
LINE
  8
0
 10
11
 20
18.2369
 11
11
 21
21.913
  0
LINE
  8
0
 10
11
 20
21.913
 11
7.85409
 21
21.913
  0
LINE
  8
0
 10
7.85409
 20
21.913
 11
7.8358
 21
21.911
  0
LINE
  8
0
 10
7.8358
 20
21.911
 11
7.73676
 21
21.9005
  0
LINE
  8
0
 10
7.73676
 20
21.9005
 11
7.72167
 21
21.8957
  0
LINE
  8
0
 10
7.72167
 20
21.8957
 11
7.62232
 21
21.8636
  0
LINE
  8
0
 10
7.62232
 20
21.8636
 11
7.61395
 21
21.8589
  0
LINE
  8
0
 10
7.61395
 20
21.8589
 11
7.51719
 21
21.8051
  0
LINE
  8
0
 10
7.51719
 20
21.8051
 11
7.51385
 21
21.8034
  0
LINE
  8
0
 10
7.51385
 20
21.8034
 11
7.51359
 21
21.8033
  0
LINE
  8
0
 10
7.51359
 20
21.8033
 11
7.42294
 21
21.7375
  0
LINE
  8
0
 10
7.42294
 20
21.7375
 11
7.41325
 21
21.7305
  0
LINE
  8
0
 10
7.41325
 20
21.7305
 11
7.34207
 21
21.6585
  0
LINE
  8
0
 10
7.34207
 20
21.6585
 11
7.32376
 21
21.64
  0
LINE
  8
0
 10
7.32376
 20
21.64
 11
7.2719
 21
21.5681
  0
LINE
  8
0
 10
7.2719
 20
21.5681
 11
7.24732
 21
21.5341
  0
LINE
  8
0
 10
7.24732
 20
21.5341
 11
7.21308
 21
21.4679
  0
LINE
  8
0
 10
7.21308
 20
21.4679
 11
7.18583
 21
21.4153
  0
LINE
  8
0
 10
7.18583
 20
21.4153
 11
7.16626
 21
21.3593
  0
LINE
  8
0
 10
7.16626
 20
21.3593
 11
7.14079
 21
21.2865
  0
LINE
  8
0
 10
7.14079
 20
21.2865
 11
7.13217
 21
21.244
  0
LINE
  8
0
 10
7.13217
 20
21.244
 11
7.11332
 21
21.151
  0
LINE
  8
0
 10
7.11332
 20
21.151
 11
7.1115
 21
21.1237
  0
LINE
  8
0
 10
7.1115
 20
21.1237
 11
7.10409
 21
21.0121
  0
LINE
  8
0
 10
7.10409
 20
21.0121
 11
7.10409
 21
19.3342
  0
LINE
  8
0
 10
36.5
 20
0
 11
47.5
 21
0
  0
LINE
  8
0
 10
47.5
 20
0
 11
47.5
 21
3.5
  0
LINE
  8
0
 10
47.5
 20
3.5
 11
47
 21
4
  0
LINE
  8
0
 10
47
 20
4
 11
41.8959
 21
4
  0
LINE
  8
0
 10
41.8959
 20
4
 11
40.3959
 21
5.5
  0
LINE
  8
0
 10
40.3959
 20
5.5
 11
40.3959
 21
12.3155
  0
LINE
  8
0
 10
40.3959
 20
12.3155
 11
40.3914
 21
12.375
  0
LINE
  8
0
 10
40.3914
 20
12.375
 11
40.3867
 21
12.4363
  0
LINE
  8
0
 10
40.3867
 20
12.4363
 11
40.3747
 21
12.4877
  0
LINE
  8
0
 10
40.3747
 20
12.4877
 11
40.3592
 21
12.5542
  0
LINE
  8
0
 10
40.3592
 20
12.5542
 11
40.3423
 21
12.5964
  0
LINE
  8
0
 10
40.3423
 20
12.5964
 11
40.3142
 21
12.6663
  0
LINE
  8
0
 10
40.3142
 20
12.6663
 11
40.2947
 21
12.6989
  0
LINE
  8
0
 10
40.2947
 20
12.6989
 11
40.2527
 21
12.7696
  0
LINE
  8
0
 10
40.2527
 20
12.7696
 11
40.2331
 21
12.7933
  0
LINE
  8
0
 10
40.2331
 20
12.7933
 11
40.1762
 21
12.8618
  0
LINE
  8
0
 10
40.1762
 20
12.8618
 11
40.1584
 21
12.8775
  0
LINE
  8
0
 10
40.1584
 20
12.8775
 11
40.0868
 21
12.9406
  0
LINE
  8
0
 10
40.0868
 20
12.9406
 11
40.072
 21
12.9499
  0
LINE
  8
0
 10
40.072
 20
12.9499
 11
39.9864
 21
13.0039
  0
LINE
  8
0
 10
39.9864
 20
13.0039
 11
39.9752
 21
13.0087
  0
LINE
  8
0
 10
39.9752
 20
13.0087
 11
39.8777
 21
13.0503
  0
LINE
  8
0
 10
39.8777
 20
13.0503
 11
39.8698
 21
13.0523
  0
LINE
  8
0
 10
39.8698
 20
13.0523
 11
39.7632
 21
13.0786
  0
LINE
  8
0
 10
39.7632
 20
13.0786
 11
39.7576
 21
13.0791
  0
LINE
  8
0
 10
39.7576
 20
13.0791
 11
39.6459
 21
13.0882
  0
LINE
  8
0
 10
39.6459
 20
13.0882
 11
36.5
 21
13.0882
  0
LINE
  8
0
 10
36.5
 20
13.0882
 11
36.5
 21
0
  0
LINE
  8
0
 10
36.5
 20
18.2369
 11
39.6459
 21
18.2369
  0
LINE
  8
0
 10
39.6459
 20
18.2369
 11
39.7632
 21
18.2504
  0
LINE
  8
0
 10
39.7632
 20
18.2504
 11
39.869
 21
18.2875
  0
LINE
  8
0
 10
39.869
 20
18.2875
 11
39.8777
 21
18.2906
  0
LINE
  8
0
 10
39.8777
 20
18.2906
 11
39.9779
 21
18.3513
  0
LINE
  8
0
 10
39.9779
 20
18.3513
 11
39.9864
 21
18.3565
  0
LINE
  8
0
 10
39.9864
 20
18.3565
 11
40.0868
 21
18.4464
  0
LINE
  8
0
 10
40.0868
 20
18.4464
 11
40.1762
 21
18.5583
  0
LINE
  8
0
 10
40.1762
 20
18.5583
 11
40.2458
 21
18.6774
  0
LINE
  8
0
 10
40.2458
 20
18.6774
 11
40.2527
 21
18.6892
  0
LINE
  8
0
 10
40.2527
 20
18.6892
 11
40.3083
 21
18.8221
  0
LINE
  8
0
 10
40.3083
 20
18.8221
 11
40.3142
 21
18.836
  0
LINE
  8
0
 10
40.3142
 20
18.836
 11
40.3547
 21
18.9791
  0
LINE
  8
0
 10
40.3547
 20
18.9791
 11
40.3592
 21
18.9951
  0
LINE
  8
0
 10
40.3592
 20
18.9951
 11
40.3837
 21
19.1447
  0
LINE
  8
0
 10
40.3837
 20
19.1447
 11
40.3867
 21
19.1626
  0
LINE
  8
0
 10
40.3867
 20
19.1626
 11
40.3949
 21
19.3148
  0
LINE
  8
0
 10
40.3949
 20
19.3148
 11
40.3959
 21
19.3342
  0
LINE
  8
0
 10
40.3959
 20
19.3342
 11
40.3959
 21
21.0121
  0
LINE
  8
0
 10
40.3959
 20
21.0121
 11
40.3948
 21
21.0285
  0
LINE
  8
0
 10
40.3948
 20
21.0285
 11
40.3867
 21
21.151
  0
LINE
  8
0
 10
40.3867
 20
21.151
 11
40.3792
 21
21.188
  0
LINE
  8
0
 10
40.3792
 20
21.188
 11
40.3592
 21
21.2865
  0
LINE
  8
0
 10
40.3592
 20
21.2865
 11
40.3396
 21
21.3424
  0
LINE
  8
0
 10
40.3396
 20
21.3424
 11
40.3142
 21
21.4153
  0
LINE
  8
0
 10
40.3142
 20
21.4153
 11
40.2776
 21
21.486
  0
LINE
  8
0
 10
40.2776
 20
21.486
 11
40.2527
 21
21.5341
  0
LINE
  8
0
 10
40.2527
 20
21.5341
 11
40.1955
 21
21.6133
  0
LINE
  8
0
 10
40.1955
 20
21.6133
 11
40.1762
 21
21.64
  0
LINE
  8
0
 10
40.1762
 20
21.64
 11
40.0971
 21
21.7201
  0
LINE
  8
0
 10
40.0971
 20
21.7201
 11
40.0868
 21
21.7305
  0
LINE
  8
0
 10
40.0868
 20
21.7305
 11
39.9867
 21
21.8031
  0
LINE
  8
0
 10
39.9867
 20
21.8031
 11
39.9864
 21
21.8033
  0
LINE
  8
0
 10
39.9864
 20
21.8033
 11
39.9828
 21
21.8051
  0
LINE
  8
0
 10
39.9828
 20
21.8051
 11
39.8777
 21
21.8636
  0
LINE
  8
0
 10
39.8777
 20
21.8636
 11
39.8673
 21
21.867
  0
LINE
  8
0
 10
39.8673
 20
21.867
 11
39.7632
 21
21.9005
  0
LINE
  8
0
 10
39.7632
 20
21.9005
 11
39.7464
 21
21.9023
  0
LINE
  8
0
 10
39.7464
 20
21.9023
 11
39.6459
 21
21.913
  0
LINE
  8
0
 10
39.6459
 20
21.913
 11
36.5
 21
21.913
  0
LINE
  8
0
 10
36.5
 20
21.913
 11
36.5
 21
18.2369
  0
LINE
  8
0
 10
36.5
 20
29.1869
 11
39.6459
 21
29.1869
  0
LINE
  8
0
 10
39.6459
 20
29.1869
 11
39.7049
 21
29.1937
  0
LINE
  8
0
 10
39.7049
 20
29.1937
 11
39.7632
 21
29.2004
  0
LINE
  8
0
 10
39.7632
 20
29.2004
 11
39.8206
 21
29.2205
  0
LINE
  8
0
 10
39.8206
 20
29.2205
 11
39.8777
 21
29.2406
  0
LINE
  8
0
 10
39.8777
 20
29.2406
 11
39.9317
 21
29.2733
  0
LINE
  8
0
 10
39.9317
 20
29.2733
 11
39.9864
 21
29.3065
  0
LINE
  8
0
 10
39.9864
 20
29.3065
 11
40.0868
 21
29.3964
  0
LINE
  8
0
 10
40.0868
 20
29.3964
 11
40.1301
 21
29.4506
  0
LINE
  8
0
 10
40.1301
 20
29.4506
 11
40.1762
 21
29.5083
  0
LINE
  8
0
 10
40.1762
 20
29.5083
 11
40.2126
 21
29.5705
  0
LINE
  8
0
 10
40.2126
 20
29.5705
 11
40.2527
 21
29.6392
  0
LINE
  8
0
 10
40.2527
 20
29.6392
 11
40.2813
 21
29.7076
  0
LINE
  8
0
 10
40.2813
 20
29.7076
 11
40.3142
 21
29.786
  0
LINE
  8
0
 10
40.3142
 20
29.786
 11
40.3346
 21
29.8584
  0
LINE
  8
0
 10
40.3346
 20
29.8584
 11
40.3592
 21
29.9451
  0
LINE
  8
0
 10
40.3592
 20
29.9451
 11
40.3714
 21
30.0193
  0
LINE
  8
0
 10
40.3714
 20
30.0193
 11
40.3867
 21
30.1126
  0
LINE
  8
0
 10
40.3867
 20
30.1126
 11
40.3907
 21
30.1865
  0
LINE
  8
0
 10
40.3907
 20
30.1865
 11
40.3959
 21
30.2842
  0
LINE
  8
0
 10
40.3959
 20
30.2842
 11
40.3959
 21
40
  0
LINE
  8
0
 10
40.3959
 20
40
 11
41.8959
 21
41.5
  0
LINE
  8
0
 10
41.8959
 20
41.5
 11
47
 21
41.5
  0
LINE
  8
0
 10
47
 20
41.5
 11
47.5
 21
42
  0
LINE
  8
0
 10
47.5
 20
42
 11
47.5
 21
45.5
  0
LINE
  8
0
 10
47.5
 20
45.5
 11
36.5
 21
45.5
  0
LINE
  8
0
 10
36.5
 20
45.5
 11
36.5
 21
29.1869
  0
ENDSEC
  0
SECTION
  2
OBJECTS
  0
DICTIONARY
  0
ENDSEC
  0
EOF
