  0
SECTION
  2
BLOCKS
  0
ENDSEC
  0
SECTION
  2
ENTITIES
  0
LINE
  8
0
 10
0
 20
0
 11
11
 21
0
  0
LINE
  8
0
 10
11
 20
0
 11
11
 21
13.1749
  0
LINE
  8
0
 10
11
 20
13.1749
 11
7.85409
 21
13.1749
  0
LINE
  8
0
 10
7.85409
 20
13.1749
 11
7.79354
 21
13.1697
  0
LINE
  8
0
 10
7.79354
 20
13.1697
 11
7.73676
 21
13.1648
  0
LINE
  8
0
 10
7.73676
 20
13.1648
 11
7.67558
 21
13.1488
  0
LINE
  8
0
 10
7.67558
 20
13.1488
 11
7.62232
 21
13.1348
  0
LINE
  8
0
 10
7.62232
 20
13.1348
 11
7.55999
 21
13.1066
  0
LINE
  8
0
 10
7.55999
 20
13.1066
 11
7.51359
 21
13.0856
  0
LINE
  8
0
 10
7.51359
 20
13.0856
 11
7.45034
 21
13.0433
  0
LINE
  8
0
 10
7.45034
 20
13.0433
 11
7.41325
 21
13.0184
  0
LINE
  8
0
 10
7.41325
 20
13.0184
 11
7.35036
 21
12.9598
  0
LINE
  8
0
 10
7.35036
 20
12.9598
 11
7.32376
 21
12.935
  0
LINE
  8
0
 10
7.32376
 20
12.935
 11
7.26363
 21
12.858
  0
LINE
  8
0
 10
7.26363
 20
12.858
 11
7.24732
 21
12.8372
  0
LINE
  8
0
 10
7.24732
 20
12.8372
 11
7.19335
 21
12.741
  0
LINE
  8
0
 10
7.19335
 20
12.741
 11
7.18583
 21
12.7276
  0
LINE
  8
0
 10
7.18583
 20
12.7276
 11
7.14208
 21
12.6122
  0
LINE
  8
0
 10
7.14208
 20
12.6122
 11
7.14079
 21
12.6088
  0
LINE
  8
0
 10
7.14079
 20
12.6088
 11
7.13249
 21
12.571
  0
LINE
  8
0
 10
7.13249
 20
12.571
 11
7.11332
 21
12.4888
  0
LINE
  8
0
 10
7.11332
 20
12.4888
 11
7.11281
 21
12.4821
  0
LINE
  8
0
 10
7.11281
 20
12.4821
 11
7.10409
 21
12.3679
  0
LINE
  8
0
 10
7.10409
 20
12.3679
 11
7.10409
 21
5.5
  0
LINE
  8
0
 10
7.10409
 20
5.5
 11
5.60409
 21
4
  0
LINE
  8
0
 10
5.60409
 20
4
 11
0.499999
 21
4
  0
LINE
  8
0
 10
0.499999
 20
4
 11
0
 21
3.5
  0
LINE
  8
0
 10
0
 20
3.5
 11
0
 21
0
  0
LINE
  8
0
 10
0
 20
42
 11
0.499999
 21
41.5
  0
LINE
  8
0
 10
0.499999
 20
41.5
 11
5.60409
 21
41.5
  0
LINE
  8
0
 10
5.60409
 20
41.5
 11
7.10409
 21
40
  0
LINE
  8
0
 10
7.10409
 20
40
 11
7.10409
 21
30.0706
  0
LINE
  8
0
 10
7.10409
 20
30.0706
 11
7.10832
 21
29.9919
  0
LINE
  8
0
 10
7.10832
 20
29.9919
 11
7.11332
 21
29.8989
  0
LINE
  8
0
 10
7.11332
 20
29.8989
 11
7.12626
 21
29.8201
  0
LINE
  8
0
 10
7.12626
 20
29.8201
 11
7.14079
 21
29.7315
  0
LINE
  8
0
 10
7.14079
 20
29.7315
 11
7.16255
 21
29.6546
  0
LINE
  8
0
 10
7.16255
 20
29.6546
 11
7.18583
 21
29.5724
  0
LINE
  8
0
 10
7.18583
 20
29.5724
 11
7.21624
 21
29.4998
  0
LINE
  8
0
 10
7.21624
 20
29.4998
 11
7.24732
 21
29.4256
  0
LINE
  8
0
 10
7.24732
 20
29.4256
 11
7.2859
 21
29.3595
  0
LINE
  8
0
 10
7.2859
 20
29.3595
 11
7.32376
 21
29.2946
  0
LINE
  8
0
 10
7.32376
 20
29.2946
 11
7.36972
 21
29.2372
  0
LINE
  8
0
 10
7.36972
 20
29.2372
 11
7.41325
 21
29.1828
  0
LINE
  8
0
 10
7.41325
 20
29.1828
 11
7.51359
 21
29.0928
  0
LINE
  8
0
 10
7.51359
 20
29.0928
 11
7.57086
 21
29.0581
  0
LINE
  8
0
 10
7.57086
 20
29.0581
 11
7.62232
 21
29.0269
  0
LINE
  8
0
 10
7.62232
 20
29.0269
 11
7.68303
 21
29.0056
  0
LINE
  8
0
 10
7.68303
 20
29.0056
 11
7.73676
 21
28.9867
  0
LINE
  8
0
 10
7.73676
 20
28.9867
 11
7.79923
 21
28.9795
  0
LINE
  8
0
 10
7.79923
 20
28.9795
 11
7.85409
 21
28.9732
  0
LINE
  8
0
 10
7.85409
 20
28.9732
 11
11
 21
28.9732
  0
LINE
  8
0
 10
11
 20
28.9732
 11
11
 21
45.5
  0
LINE
  8
0
 10
11
 20
45.5
 11
0
 21
45.5
  0
LINE
  8
0
 10
0
 20
45.5
 11
0
 21
42
  0
LINE
  8
0
 10
7.10409
 20
19.1206
 11
7.11246
 21
18.965
  0
LINE
  8
0
 10
7.11246
 20
18.965
 11
7.11332
 21
18.949
  0
LINE
  8
0
 10
7.11332
 20
18.949
 11
7.13839
 21
18.7962
  0
LINE
  8
0
 10
7.13839
 20
18.7962
 11
7.14079
 21
18.7815
  0
LINE
  8
0
 10
7.14079
 20
18.7815
 11
7.18216
 21
18.6354
  0
LINE
  8
0
 10
7.18216
 20
18.6354
 11
7.18583
 21
18.6224
  0
LINE
  8
0
 10
7.18583
 20
18.6224
 11
7.24264
 21
18.4868
  0
LINE
  8
0
 10
7.24264
 20
18.4868
 11
7.24732
 21
18.4756
  0
LINE
  8
0
 10
7.24732
 20
18.4756
 11
7.31831
 21
18.354
  0
LINE
  8
0
 10
7.31831
 20
18.354
 11
7.32376
 21
18.3447
  0
LINE
  8
0
 10
7.32376
 20
18.3447
 11
7.41325
 21
18.2328
  0
LINE
  8
0
 10
7.41325
 20
18.2328
 11
7.51359
 21
18.1429
  0
LINE
  8
0
 10
7.51359
 20
18.1429
 11
7.61566
 21
18.081
  0
LINE
  8
0
 10
7.61566
 20
18.081
 11
7.62232
 21
18.077
  0
LINE
  8
0
 10
7.62232
 20
18.077
 11
7.72992
 21
18.0392
  0
LINE
  8
0
 10
7.72992
 20
18.0392
 11
7.73676
 21
18.0368
  0
LINE
  8
0
 10
7.73676
 20
18.0368
 11
7.85409
 21
18.0232
  0
LINE
  8
0
 10
7.85409
 20
18.0232
 11
11
 21
18.0232
  0
LINE
  8
0
 10
11
 20
18.0232
 11
11
 21
21.7718
  0
LINE
  8
0
 10
11
 20
21.7718
 11
7.85409
 21
21.7718
  0
LINE
  8
0
 10
7.85409
 20
21.7718
 11
7.78887
 21
21.7657
  0
LINE
  8
0
 10
7.78887
 20
21.7657
 11
7.73676
 21
21.7609
  0
LINE
  8
0
 10
7.73676
 20
21.7609
 11
7.67666
 21
21.7438
  0
LINE
  8
0
 10
7.67666
 20
21.7438
 11
7.62232
 21
21.7284
  0
LINE
  8
0
 10
7.62232
 20
21.7284
 11
7.57108
 21
21.7032
  0
LINE
  8
0
 10
7.57108
 20
21.7032
 11
7.51359
 21
21.675
  0
LINE
  8
0
 10
7.51359
 20
21.675
 11
7.47358
 21
21.646
  0
LINE
  8
0
 10
7.47358
 20
21.646
 11
7.41325
 21
21.6022
  0
LINE
  8
0
 10
7.41325
 20
21.6022
 11
7.38531
 21
21.574
  0
LINE
  8
0
 10
7.38531
 20
21.574
 11
7.32376
 21
21.5117
  0
LINE
  8
0
 10
7.32376
 20
21.5117
 11
7.30725
 21
21.4889
  0
LINE
  8
0
 10
7.30725
 20
21.4889
 11
7.24732
 21
21.4058
  0
LINE
  8
0
 10
7.24732
 20
21.4058
 11
7.24032
 21
21.3922
  0
LINE
  8
0
 10
7.24032
 20
21.3922
 11
7.18583
 21
21.287
  0
LINE
  8
0
 10
7.18583
 20
21.287
 11
7.18541
 21
21.2858
  0
LINE
  8
0
 10
7.18541
 20
21.2858
 11
7.1819
 21
21.2757
  0
LINE
  8
0
 10
7.1819
 20
21.2757
 11
7.14505
 21
21.1793
  0
LINE
  8
0
 10
7.14505
 20
21.1793
 11
7.14079
 21
21.1681
  0
LINE
  8
0
 10
7.14079
 20
21.1681
 11
7.11869
 21
21.0683
  0
LINE
  8
0
 10
7.11869
 20
21.0683
 11
7.11332
 21
21.0441
  0
LINE
  8
0
 10
7.11332
 20
21.0441
 11
7.10679
 21
20.954
  0
LINE
  8
0
 10
7.10679
 20
20.954
 11
7.10409
 21
20.9168
  0
LINE
  8
0
 10
7.10409
 20
20.9168
 11
7.10409
 21
19.1206
  0
LINE
  8
0
 10
36.5
 20
0
 11
47.5
 21
0
  0
LINE
  8
0
 10
47.5
 20
0
 11
47.5
 21
3.5
  0
LINE
  8
0
 10
47.5
 20
3.5
 11
47
 21
4
  0
LINE
  8
0
 10
47
 20
4
 11
41.8959
 21
4
  0
LINE
  8
0
 10
41.8959
 20
4
 11
40.3959
 21
5.5
  0
LINE
  8
0
 10
40.3959
 20
5.5
 11
40.3959
 21
12.3679
  0
LINE
  8
0
 10
40.3959
 20
12.3679
 11
40.3948
 21
12.3826
  0
LINE
  8
0
 10
40.3948
 20
12.3826
 11
40.3867
 21
12.4888
  0
LINE
  8
0
 10
40.3867
 20
12.4888
 11
40.3853
 21
12.4948
  0
LINE
  8
0
 10
40.3853
 20
12.4948
 11
40.3675
 21
12.571
  0
LINE
  8
0
 10
40.3675
 20
12.571
 11
40.3598
 21
12.606
  0
LINE
  8
0
 10
40.3598
 20
12.606
 11
40.3592
 21
12.6088
  0
LINE
  8
0
 10
40.3592
 20
12.6088
 11
40.3185
 21
12.7161
  0
LINE
  8
0
 10
40.3185
 20
12.7161
 11
40.3142
 21
12.7276
  0
LINE
  8
0
 10
40.3142
 20
12.7276
 11
40.2632
 21
12.8184
  0
LINE
  8
0
 10
40.2632
 20
12.8184
 11
40.2527
 21
12.8372
  0
LINE
  8
0
 10
40.2527
 20
12.8372
 11
40.1949
 21
12.911
  0
LINE
  8
0
 10
40.1949
 20
12.911
 11
40.1762
 21
12.935
  0
LINE
  8
0
 10
40.1762
 20
12.935
 11
40.1148
 21
12.9923
  0
LINE
  8
0
 10
40.1148
 20
12.9923
 11
40.0868
 21
13.0184
  0
LINE
  8
0
 10
40.0868
 20
13.0184
 11
40.024
 21
13.0605
  0
LINE
  8
0
 10
40.024
 20
13.0605
 11
39.9864
 21
13.0856
  0
LINE
  8
0
 10
39.9864
 20
13.0856
 11
39.9239
 21
13.1139
  0
LINE
  8
0
 10
39.9239
 20
13.1139
 11
39.8777
 21
13.1348
  0
LINE
  8
0
 10
39.8777
 20
13.1348
 11
39.8161
 21
13.1509
  0
LINE
  8
0
 10
39.8161
 20
13.1509
 11
39.7632
 21
13.1648
  0
LINE
  8
0
 10
39.7632
 20
13.1648
 11
39.7025
 21
13.17
  0
LINE
  8
0
 10
39.7025
 20
13.17
 11
39.6459
 21
13.1749
  0
LINE
  8
0
 10
39.6459
 20
13.1749
 11
36.5
 21
13.1749
  0
LINE
  8
0
 10
36.5
 20
13.1749
 11
36.5
 21
0
  0
LINE
  8
0
 10
36.5
 20
18.0232
 11
39.6459
 21
18.0232
  0
LINE
  8
0
 10
39.6459
 20
18.0232
 11
39.7632
 21
18.0368
  0
LINE
  8
0
 10
39.7632
 20
18.0368
 11
39.8707
 21
18.0745
  0
LINE
  8
0
 10
39.8707
 20
18.0745
 11
39.8777
 21
18.077
  0
LINE
  8
0
 10
39.8777
 20
18.077
 11
39.9795
 21
18.1387
  0
LINE
  8
0
 10
39.9795
 20
18.1387
 11
39.9864
 21
18.1429
  0
LINE
  8
0
 10
39.9864
 20
18.1429
 11
40.0868
 21
18.2328
  0
LINE
  8
0
 10
40.0868
 20
18.2328
 11
40.1762
 21
18.3447
  0
LINE
  8
0
 10
40.1762
 20
18.3447
 11
40.2469
 21
18.4657
  0
LINE
  8
0
 10
40.2469
 20
18.4657
 11
40.2527
 21
18.4756
  0
LINE
  8
0
 10
40.2527
 20
18.4756
 11
40.3092
 21
18.6106
  0
LINE
  8
0
 10
40.3092
 20
18.6106
 11
40.3142
 21
18.6224
  0
LINE
  8
0
 10
40.3142
 20
18.6224
 11
40.3553
 21
18.7678
  0
LINE
  8
0
 10
40.3553
 20
18.7678
 11
40.3592
 21
18.7815
  0
LINE
  8
0
 10
40.3592
 20
18.7815
 11
40.3841
 21
18.9335
  0
LINE
  8
0
 10
40.3841
 20
18.9335
 11
40.3867
 21
18.949
  0
LINE
  8
0
 10
40.3867
 20
18.949
 11
40.395
 21
19.1037
  0
LINE
  8
0
 10
40.395
 20
19.1037
 11
40.3959
 21
19.1206
  0
LINE
  8
0
 10
40.3959
 20
19.1206
 11
40.3959
 21
20.9168
  0
LINE
  8
0
 10
40.3959
 20
20.9168
 11
40.3888
 21
21.015
  0
LINE
  8
0
 10
40.3888
 20
21.015
 11
40.3867
 21
21.0441
  0
LINE
  8
0
 10
40.3867
 20
21.0441
 11
40.3622
 21
21.1545
  0
LINE
  8
0
 10
40.3622
 20
21.1545
 11
40.3592
 21
21.1681
  0
LINE
  8
0
 10
40.3592
 20
21.1681
 11
40.3181
 21
21.2757
  0
LINE
  8
0
 10
40.3181
 20
21.2757
 11
40.3142
 21
21.287
  0
LINE
  8
0
 10
40.3142
 20
21.287
 11
40.3134
 21
21.2885
  0
LINE
  8
0
 10
40.3134
 20
21.2885
 11
40.2527
 21
21.4058
  0
LINE
  8
0
 10
40.2527
 20
21.4058
 11
40.241
 21
21.422
  0
LINE
  8
0
 10
40.241
 20
21.422
 11
40.1762
 21
21.5117
  0
LINE
  8
0
 10
40.1762
 20
21.5117
 11
40.151
 21
21.5372
  0
LINE
  8
0
 10
40.151
 20
21.5372
 11
40.0868
 21
21.6022
  0
LINE
  8
0
 10
40.0868
 20
21.6022
 11
40.0475
 21
21.6307
  0
LINE
  8
0
 10
40.0475
 20
21.6307
 11
39.9864
 21
21.675
  0
LINE
  8
0
 10
39.9864
 20
21.675
 11
39.9346
 21
21.7004
  0
LINE
  8
0
 10
39.9346
 20
21.7004
 11
39.8777
 21
21.7284
  0
LINE
  8
0
 10
39.8777
 20
21.7284
 11
39.8167
 21
21.7457
  0
LINE
  8
0
 10
39.8167
 20
21.7457
 11
39.7632
 21
21.7609
  0
LINE
  8
0
 10
39.7632
 20
21.7609
 11
39.6976
 21
21.767
  0
LINE
  8
0
 10
39.6976
 20
21.767
 11
39.6459
 21
21.7718
  0
LINE
  8
0
 10
39.6459
 20
21.7718
 11
36.5
 21
21.7718
  0
LINE
  8
0
 10
36.5
 20
21.7718
 11
36.5
 21
18.0232
  0
LINE
  8
0
 10
36.5
 20
28.9732
 11
39.6459
 21
28.9732
  0
LINE
  8
0
 10
39.6459
 20
28.9732
 11
39.7084
 21
28.9804
  0
LINE
  8
0
 10
39.7084
 20
28.9804
 11
39.7632
 21
28.9867
  0
LINE
  8
0
 10
39.7632
 20
28.9867
 11
39.8239
 21
29.0081
  0
LINE
  8
0
 10
39.8239
 20
29.0081
 11
39.8777
 21
29.0269
  0
LINE
  8
0
 10
39.8777
 20
29.0269
 11
39.9349
 21
29.0616
  0
LINE
  8
0
 10
39.9349
 20
29.0616
 11
39.9864
 21
29.0928
  0
LINE
  8
0
 10
39.9864
 20
29.0928
 11
40.0868
 21
29.1828
  0
LINE
  8
0
 10
40.0868
 20
29.1828
 11
40.1327
 21
29.2402
  0
LINE
  8
0
 10
40.1327
 20
29.2402
 11
40.1762
 21
29.2946
  0
LINE
  8
0
 10
40.1762
 20
29.2946
 11
40.2148
 21
29.3607
  0
LINE
  8
0
 10
40.2148
 20
29.3607
 11
40.2527
 21
29.4256
  0
LINE
  8
0
 10
40.2527
 20
29.4256
 11
40.2831
 21
29.4982
  0
LINE
  8
0
 10
40.2831
 20
29.4982
 11
40.3142
 21
29.5724
  0
LINE
  8
0
 10
40.3142
 20
29.5724
 11
40.3359
 21
29.6493
  0
LINE
  8
0
 10
40.3359
 20
29.6493
 11
40.3592
 21
29.7315
  0
LINE
  8
0
 10
40.3592
 20
29.7315
 11
40.3722
 21
29.8105
  0
LINE
  8
0
 10
40.3722
 20
29.8105
 11
40.3867
 21
29.8989
  0
LINE
  8
0
 10
40.3867
 20
29.8989
 11
40.3909
 21
29.9778
  0
LINE
  8
0
 10
40.3909
 20
29.9778
 11
40.3959
 21
30.0706
  0
LINE
  8
0
 10
40.3959
 20
30.0706
 11
40.3959
 21
40
  0
LINE
  8
0
 10
40.3959
 20
40
 11
41.8959
 21
41.5
  0
LINE
  8
0
 10
41.8959
 20
41.5
 11
47
 21
41.5
  0
LINE
  8
0
 10
47
 20
41.5
 11
47.5
 21
42
  0
LINE
  8
0
 10
47.5
 20
42
 11
47.5
 21
45.5
  0
LINE
  8
0
 10
47.5
 20
45.5
 11
36.5
 21
45.5
  0
LINE
  8
0
 10
36.5
 20
45.5
 11
36.5
 21
28.9732
  0
ENDSEC
  0
SECTION
  2
OBJECTS
  0
DICTIONARY
  0
ENDSEC
  0
EOF
