  0
SECTION
  2
BLOCKS
  0
ENDSEC
  0
SECTION
  2
ENTITIES
  0
LINE
  8
0
 10
0
 20
0
 11
11
 21
0
  0
LINE
  8
0
 10
11
 20
0
 11
11
 21
13.2662
  0
LINE
  8
0
 10
11
 20
13.2662
 11
7.85409
 21
13.2662
  0
LINE
  8
0
 10
7.85409
 20
13.2662
 11
7.7377
 21
13.2552
  0
LINE
  8
0
 10
7.7377
 20
13.2552
 11
7.73676
 21
13.2551
  0
LINE
  8
0
 10
7.73676
 20
13.2551
 11
7.71326
 21
13.2484
  0
LINE
  8
0
 10
7.71326
 20
13.2484
 11
7.62232
 21
13.2245
  0
LINE
  8
0
 10
7.62232
 20
13.2245
 11
7.6192
 21
13.2231
  0
LINE
  8
0
 10
7.6192
 20
13.2231
 11
7.51359
 21
13.1754
  0
LINE
  8
0
 10
7.51359
 20
13.1754
 11
7.50479
 21
13.1695
  0
LINE
  8
0
 10
7.50479
 20
13.1695
 11
7.41325
 21
13.1082
  0
LINE
  8
0
 10
7.41325
 20
13.1082
 11
7.39836
 21
13.0943
  0
LINE
  8
0
 10
7.39836
 20
13.0943
 11
7.32376
 21
13.0247
  0
LINE
  8
0
 10
7.32376
 20
13.0247
 11
7.30385
 21
12.9992
  0
LINE
  8
0
 10
7.30385
 20
12.9992
 11
7.24732
 21
12.9269
  0
LINE
  8
0
 10
7.24732
 20
12.9269
 11
7.22489
 21
12.887
  0
LINE
  8
0
 10
7.22489
 20
12.887
 11
7.18583
 21
12.8173
  0
LINE
  8
0
 10
7.18583
 20
12.8173
 11
7.16448
 21
12.761
  0
LINE
  8
0
 10
7.16448
 20
12.761
 11
7.14079
 21
12.6986
  0
LINE
  8
0
 10
7.14079
 20
12.6986
 11
7.12476
 21
12.6256
  0
LINE
  8
0
 10
7.12476
 20
12.6256
 11
7.11332
 21
12.5736
  0
LINE
  8
0
 10
7.11332
 20
12.5736
 11
7.10695
 21
12.4852
  0
LINE
  8
0
 10
7.10695
 20
12.4852
 11
7.10409
 21
12.4454
  0
LINE
  8
0
 10
7.10409
 20
12.4454
 11
7.10409
 21
5.5
  0
LINE
  8
0
 10
7.10409
 20
5.5
 11
5.60409
 21
4
  0
LINE
  8
0
 10
5.60409
 20
4
 11
0.499999
 21
4
  0
LINE
  8
0
 10
0.499999
 20
4
 11
0
 21
3.5
  0
LINE
  8
0
 10
0
 20
3.5
 11
0
 21
0
  0
LINE
  8
0
 10
0
 20
42
 11
0.499999
 21
41.5
  0
LINE
  8
0
 10
0.499999
 20
41.5
 11
5.60409
 21
41.5
  0
LINE
  8
0
 10
5.60409
 20
41.5
 11
7.10409
 21
40
  0
LINE
  8
0
 10
7.10409
 20
40
 11
7.10409
 21
29.857
  0
LINE
  8
0
 10
7.10409
 20
29.857
 11
7.10859
 21
29.7732
  0
LINE
  8
0
 10
7.10859
 20
29.7732
 11
7.11332
 21
29.6853
  0
LINE
  8
0
 10
7.11332
 20
29.6853
 11
7.12708
 21
29.6015
  0
LINE
  8
0
 10
7.12708
 20
29.6015
 11
7.14079
 21
29.5179
  0
LINE
  8
0
 10
7.14079
 20
29.5179
 11
7.16389
 21
29.4363
  0
LINE
  8
0
 10
7.16389
 20
29.4363
 11
7.18583
 21
29.3588
  0
LINE
  8
0
 10
7.18583
 20
29.3588
 11
7.21805
 21
29.2818
  0
LINE
  8
0
 10
7.21805
 20
29.2818
 11
7.24732
 21
29.212
  0
LINE
  8
0
 10
7.24732
 20
29.212
 11
7.28816
 21
29.142
  0
LINE
  8
0
 10
7.28816
 20
29.142
 11
7.32376
 21
29.081
  0
LINE
  8
0
 10
7.32376
 20
29.081
 11
7.37236
 21
29.0203
  0
LINE
  8
0
 10
7.37236
 20
29.0203
 11
7.41325
 21
28.9692
  0
LINE
  8
0
 10
7.41325
 20
28.9692
 11
7.51359
 21
28.8792
  0
LINE
  8
0
 10
7.51359
 20
28.8792
 11
7.57406
 21
28.8426
  0
LINE
  8
0
 10
7.57406
 20
28.8426
 11
7.62232
 21
28.8133
  0
LINE
  8
0
 10
7.62232
 20
28.8133
 11
7.68639
 21
28.7908
  0
LINE
  8
0
 10
7.68639
 20
28.7908
 11
7.73676
 21
28.7731
  0
LINE
  8
0
 10
7.73676
 20
28.7731
 11
7.80266
 21
28.7655
  0
LINE
  8
0
 10
7.80266
 20
28.7655
 11
7.85409
 21
28.7596
  0
LINE
  8
0
 10
7.85409
 20
28.7596
 11
11
 21
28.7596
  0
LINE
  8
0
 10
11
 20
28.7596
 11
11
 21
45.5
  0
LINE
  8
0
 10
11
 20
45.5
 11
0
 21
45.5
  0
LINE
  8
0
 10
0
 20
45.5
 11
0
 21
42
  0
LINE
  8
0
 10
7.10409
 20
18.907
 11
7.11259
 21
18.7489
  0
LINE
  8
0
 10
7.11259
 20
18.7489
 11
7.11332
 21
18.7353
  0
LINE
  8
0
 10
7.11332
 20
18.7353
 11
7.1388
 21
18.5801
  0
LINE
  8
0
 10
7.1388
 20
18.5801
 11
7.14079
 21
18.5679
  0
LINE
  8
0
 10
7.14079
 20
18.5679
 11
7.18282
 21
18.4194
  0
LINE
  8
0
 10
7.18282
 20
18.4194
 11
7.18583
 21
18.4088
  0
LINE
  8
0
 10
7.18583
 20
18.4088
 11
7.24355
 21
18.271
  0
LINE
  8
0
 10
7.24355
 20
18.271
 11
7.24732
 21
18.262
  0
LINE
  8
0
 10
7.24732
 20
18.262
 11
7.31943
 21
18.1384
  0
LINE
  8
0
 10
7.31943
 20
18.1384
 11
7.32376
 21
18.131
  0
LINE
  8
0
 10
7.32376
 20
18.131
 11
7.41325
 21
18.0192
  0
LINE
  8
0
 10
7.41325
 20
18.0192
 11
7.51359
 21
17.9292
  0
LINE
  8
0
 10
7.51359
 20
17.9292
 11
7.61725
 21
17.8664
  0
LINE
  8
0
 10
7.61725
 20
17.8664
 11
7.62232
 21
17.8633
  0
LINE
  8
0
 10
7.62232
 20
17.8633
 11
7.73159
 21
17.8249
  0
LINE
  8
0
 10
7.73159
 20
17.8249
 11
7.73676
 21
17.8231
  0
LINE
  8
0
 10
7.73676
 20
17.8231
 11
7.85409
 21
17.8096
  0
LINE
  8
0
 10
7.85409
 20
17.8096
 11
11
 21
17.8096
  0
LINE
  8
0
 10
11
 20
17.8096
 11
11
 21
21.6443
  0
LINE
  8
0
 10
11
 20
21.6443
 11
7.85409
 21
21.6443
  0
LINE
  8
0
 10
7.85409
 20
21.6443
 11
7.73921
 21
21.6345
  0
LINE
  8
0
 10
7.73921
 20
21.6345
 11
7.73676
 21
21.6343
  0
LINE
  8
0
 10
7.73676
 20
21.6343
 11
7.62839
 21
21.6061
  0
LINE
  8
0
 10
7.62839
 20
21.6061
 11
7.62232
 21
21.6045
  0
LINE
  8
0
 10
7.62232
 20
21.6045
 11
7.52483
 21
21.5607
  0
LINE
  8
0
 10
7.52483
 20
21.5607
 11
7.51359
 21
21.5557
  0
LINE
  8
0
 10
7.51359
 20
21.5557
 11
7.43014
 21
21.5002
  0
LINE
  8
0
 10
7.43014
 20
21.5002
 11
7.41325
 21
21.489
  0
LINE
  8
0
 10
7.41325
 20
21.489
 11
7.34559
 21
21.4264
  0
LINE
  8
0
 10
7.34559
 20
21.4264
 11
7.32376
 21
21.4061
  0
LINE
  8
0
 10
7.32376
 20
21.4061
 11
7.27229
 21
21.3408
  0
LINE
  8
0
 10
7.27229
 20
21.3408
 11
7.24732
 21
21.3091
  0
LINE
  8
0
 10
7.24732
 20
21.3091
 11
7.21123
 21
21.2452
  0
LINE
  8
0
 10
7.21123
 20
21.2452
 11
7.18583
 21
21.2003
  0
LINE
  8
0
 10
7.18583
 20
21.2003
 11
7.16333
 21
21.1414
  0
LINE
  8
0
 10
7.16333
 20
21.1414
 11
7.14079
 21
21.0824
  0
LINE
  8
0
 10
7.14079
 20
21.0824
 11
7.12943
 21
21.0311
  0
LINE
  8
0
 10
7.12943
 20
21.0311
 11
7.11332
 21
20.9583
  0
LINE
  8
0
 10
7.11332
 20
20.9583
 11
7.11027
 21
20.9163
  0
LINE
  8
0
 10
7.11027
 20
20.9163
 11
7.10409
 21
20.8311
  0
LINE
  8
0
 10
7.10409
 20
20.8311
 11
7.10409
 21
18.907
  0
LINE
  8
0
 10
36.5
 20
0
 11
47.5
 21
0
  0
LINE
  8
0
 10
47.5
 20
0
 11
47.5
 21
3.5
  0
LINE
  8
0
 10
47.5
 20
3.5
 11
47
 21
4
  0
LINE
  8
0
 10
47
 20
4
 11
41.8959
 21
4
  0
LINE
  8
0
 10
41.8959
 20
4
 11
40.3959
 21
5.5
  0
LINE
  8
0
 10
40.3959
 20
5.5
 11
40.3959
 21
12.4454
  0
LINE
  8
0
 10
40.3959
 20
12.4454
 11
40.3897
 21
12.5315
  0
LINE
  8
0
 10
40.3897
 20
12.5315
 11
40.3867
 21
12.5736
  0
LINE
  8
0
 10
40.3867
 20
12.5736
 11
40.3706
 21
12.6467
  0
LINE
  8
0
 10
40.3706
 20
12.6467
 11
40.3592
 21
12.6986
  0
LINE
  8
0
 10
40.3592
 20
12.6986
 11
40.3369
 21
12.7574
  0
LINE
  8
0
 10
40.3369
 20
12.7574
 11
40.3142
 21
12.8173
  0
LINE
  8
0
 10
40.3142
 20
12.8173
 11
40.2893
 21
12.8616
  0
LINE
  8
0
 10
40.2893
 20
12.8616
 11
40.2527
 21
12.9269
  0
LINE
  8
0
 10
40.2527
 20
12.9269
 11
40.2287
 21
12.9576
  0
LINE
  8
0
 10
40.2287
 20
12.9576
 11
40.1762
 21
13.0247
  0
LINE
  8
0
 10
40.1762
 20
13.0247
 11
40.1559
 21
13.0437
  0
LINE
  8
0
 10
40.1559
 20
13.0437
 11
40.0868
 21
13.1082
  0
LINE
  8
0
 10
40.0868
 20
13.1082
 11
40.0719
 21
13.1181
  0
LINE
  8
0
 10
40.0719
 20
13.1181
 11
39.9864
 21
13.1754
  0
LINE
  8
0
 10
39.9864
 20
13.1754
 11
39.9777
 21
13.1793
  0
LINE
  8
0
 10
39.9777
 20
13.1793
 11
39.8777
 21
13.2245
  0
LINE
  8
0
 10
39.8777
 20
13.2245
 11
39.8746
 21
13.2254
  0
LINE
  8
0
 10
39.8746
 20
13.2254
 11
39.7867
 21
13.2484
  0
LINE
  8
0
 10
39.7867
 20
13.2484
 11
39.7641
 21
13.2549
  0
LINE
  8
0
 10
39.7641
 20
13.2549
 11
39.7632
 21
13.2551
  0
LINE
  8
0
 10
39.7632
 20
13.2551
 11
39.6483
 21
13.266
  0
LINE
  8
0
 10
39.6483
 20
13.266
 11
39.6459
 21
13.2662
  0
LINE
  8
0
 10
39.6459
 20
13.2662
 11
36.5
 21
13.2662
  0
LINE
  8
0
 10
36.5
 20
13.2662
 11
36.5
 21
0
  0
LINE
  8
0
 10
36.5
 20
17.8096
 11
39.6459
 21
17.8096
  0
LINE
  8
0
 10
39.6459
 20
17.8096
 11
39.7632
 21
17.8231
  0
LINE
  8
0
 10
39.7632
 20
17.8231
 11
39.8724
 21
17.8615
  0
LINE
  8
0
 10
39.8724
 20
17.8615
 11
39.8777
 21
17.8633
  0
LINE
  8
0
 10
39.8777
 20
17.8633
 11
39.9811
 21
17.926
  0
LINE
  8
0
 10
39.9811
 20
17.926
 11
39.9864
 21
17.9292
  0
LINE
  8
0
 10
39.9864
 20
17.9292
 11
40.0868
 21
18.0192
  0
LINE
  8
0
 10
40.0868
 20
18.0192
 11
40.1762
 21
18.131
  0
LINE
  8
0
 10
40.1762
 20
18.131
 11
40.248
 21
18.254
  0
LINE
  8
0
 10
40.248
 20
18.254
 11
40.2527
 21
18.262
  0
LINE
  8
0
 10
40.2527
 20
18.262
 11
40.3101
 21
18.3991
  0
LINE
  8
0
 10
40.3101
 20
18.3991
 11
40.3142
 21
18.4088
  0
LINE
  8
0
 10
40.3142
 20
18.4088
 11
40.356
 21
18.5565
  0
LINE
  8
0
 10
40.356
 20
18.5565
 11
40.3592
 21
18.5679
  0
LINE
  8
0
 10
40.3592
 20
18.5679
 11
40.3845
 21
18.7223
  0
LINE
  8
0
 10
40.3845
 20
18.7223
 11
40.3867
 21
18.7353
  0
LINE
  8
0
 10
40.3867
 20
18.7353
 11
40.3951
 21
18.8926
  0
LINE
  8
0
 10
40.3951
 20
18.8926
 11
40.3959
 21
18.907
  0
LINE
  8
0
 10
40.3959
 20
18.907
 11
40.3959
 21
20.8311
  0
LINE
  8
0
 10
40.3959
 20
20.8311
 11
40.393
 21
20.8712
  0
LINE
  8
0
 10
40.393
 20
20.8712
 11
40.3867
 21
20.9583
  0
LINE
  8
0
 10
40.3867
 20
20.9583
 11
40.3753
 21
21.0099
  0
LINE
  8
0
 10
40.3753
 20
21.0099
 11
40.3592
 21
21.0824
  0
LINE
  8
0
 10
40.3592
 20
21.0824
 11
40.3358
 21
21.1437
  0
LINE
  8
0
 10
40.3358
 20
21.1437
 11
40.3142
 21
21.2003
  0
LINE
  8
0
 10
40.3142
 20
21.2003
 11
40.2758
 21
21.2682
  0
LINE
  8
0
 10
40.2758
 20
21.2682
 11
40.2527
 21
21.3091
  0
LINE
  8
0
 10
40.2527
 20
21.3091
 11
40.1974
 21
21.3792
  0
LINE
  8
0
 10
40.1974
 20
21.3792
 11
40.1762
 21
21.4061
  0
LINE
  8
0
 10
40.1762
 20
21.4061
 11
40.1036
 21
21.4734
  0
LINE
  8
0
 10
40.1036
 20
21.4734
 11
40.0868
 21
21.489
  0
LINE
  8
0
 10
40.0868
 20
21.489
 11
39.9977
 21
21.5482
  0
LINE
  8
0
 10
39.9977
 20
21.5482
 11
39.9864
 21
21.5557
  0
LINE
  8
0
 10
39.9864
 20
21.5557
 11
39.8838
 21
21.6018
  0
LINE
  8
0
 10
39.8838
 20
21.6018
 11
39.8777
 21
21.6045
  0
LINE
  8
0
 10
39.8777
 20
21.6045
 11
39.7657
 21
21.6337
  0
LINE
  8
0
 10
39.7657
 20
21.6337
 11
39.7632
 21
21.6343
  0
LINE
  8
0
 10
39.7632
 20
21.6343
 11
39.6471
 21
21.6442
  0
LINE
  8
0
 10
39.6471
 20
21.6442
 11
39.6459
 21
21.6443
  0
LINE
  8
0
 10
39.6459
 20
21.6443
 11
36.5
 21
21.6443
  0
LINE
  8
0
 10
36.5
 20
21.6443
 11
36.5
 21
17.8096
  0
LINE
  8
0
 10
36.5
 20
28.7596
 11
39.6459
 21
28.7596
  0
LINE
  8
0
 10
39.6459
 20
28.7596
 11
39.7118
 21
28.7672
  0
LINE
  8
0
 10
39.7118
 20
28.7672
 11
39.7632
 21
28.7731
  0
LINE
  8
0
 10
39.7632
 20
28.7731
 11
39.8273
 21
28.7956
  0
LINE
  8
0
 10
39.8273
 20
28.7956
 11
39.8777
 21
28.8133
  0
LINE
  8
0
 10
39.8777
 20
28.8133
 11
39.9381
 21
28.8499
  0
LINE
  8
0
 10
39.9381
 20
28.8499
 11
39.9864
 21
28.8792
  0
LINE
  8
0
 10
39.9864
 20
28.8792
 11
40.0868
 21
28.9692
  0
LINE
  8
0
 10
40.0868
 20
28.9692
 11
40.1353
 21
29.0298
  0
LINE
  8
0
 10
40.1353
 20
29.0298
 11
40.1762
 21
29.081
  0
LINE
  8
0
 10
40.1762
 20
29.081
 11
40.217
 21
29.1509
  0
LINE
  8
0
 10
40.217
 20
29.1509
 11
40.2527
 21
29.212
  0
LINE
  8
0
 10
40.2527
 20
29.212
 11
40.2849
 21
29.2888
  0
LINE
  8
0
 10
40.2849
 20
29.2888
 11
40.3142
 21
29.3588
  0
LINE
  8
0
 10
40.3142
 20
29.3588
 11
40.3372
 21
29.4403
  0
LINE
  8
0
 10
40.3372
 20
29.4403
 11
40.3592
 21
29.5179
  0
LINE
  8
0
 10
40.3592
 20
29.5179
 11
40.373
 21
29.6017
  0
LINE
  8
0
 10
40.373
 20
29.6017
 11
40.3867
 21
29.6853
  0
LINE
  8
0
 10
40.3867
 20
29.6853
 11
40.3912
 21
29.7692
  0
LINE
  8
0
 10
40.3912
 20
29.7692
 11
40.3959
 21
29.857
  0
LINE
  8
0
 10
40.3959
 20
29.857
 11
40.3959
 21
40
  0
LINE
  8
0
 10
40.3959
 20
40
 11
41.8959
 21
41.5
  0
LINE
  8
0
 10
41.8959
 20
41.5
 11
47
 21
41.5
  0
LINE
  8
0
 10
47
 20
41.5
 11
47.5
 21
42
  0
LINE
  8
0
 10
47.5
 20
42
 11
47.5
 21
45.5
  0
LINE
  8
0
 10
47.5
 20
45.5
 11
36.5
 21
45.5
  0
LINE
  8
0
 10
36.5
 20
45.5
 11
36.5
 21
28.7596
  0
ENDSEC
  0
SECTION
  2
OBJECTS
  0
DICTIONARY
  0
ENDSEC
  0
EOF
