  0
SECTION
  2
BLOCKS
  0
ENDSEC
  0
SECTION
  2
ENTITIES
  0
LINE
  8
0
 10
0
 20
0
 11
11
 21
0
  0
LINE
  8
0
 10
11
 20
0
 11
11
 21
13.3993
  0
LINE
  8
0
 10
11
 20
13.3993
 11
7.85409
 21
13.3993
  0
LINE
  8
0
 10
7.85409
 20
13.3993
 11
7.80686
 21
13.3948
  0
LINE
  8
0
 10
7.80686
 20
13.3948
 11
7.73676
 21
13.3882
  0
LINE
  8
0
 10
7.73676
 20
13.3882
 11
7.68768
 21
13.3741
  0
LINE
  8
0
 10
7.68768
 20
13.3741
 11
7.62232
 21
13.3553
  0
LINE
  8
0
 10
7.62232
 20
13.3553
 11
7.56934
 21
13.3291
  0
LINE
  8
0
 10
7.56934
 20
13.3291
 11
7.51359
 21
13.3014
  0
LINE
  8
0
 10
7.51359
 20
13.3014
 11
7.45581
 21
13.259
  0
LINE
  8
0
 10
7.45581
 20
13.259
 11
7.41325
 21
13.2278
  0
LINE
  8
0
 10
7.41325
 20
13.2278
 11
7.35144
 21
13.1646
  0
LINE
  8
0
 10
7.35144
 20
13.1646
 11
7.32376
 21
13.1363
  0
LINE
  8
0
 10
7.32376
 20
13.1363
 11
7.26067
 21
13.0479
  0
LINE
  8
0
 10
7.26067
 20
13.0479
 11
7.24732
 21
13.0292
  0
LINE
  8
0
 10
7.24732
 20
13.0292
 11
7.18752
 21
12.9124
  0
LINE
  8
0
 10
7.18752
 20
12.9124
 11
7.18583
 21
12.9091
  0
LINE
  8
0
 10
7.18583
 20
12.9091
 11
7.17789
 21
12.8861
  0
LINE
  8
0
 10
7.17789
 20
12.8861
 11
7.14079
 21
12.7883
  0
LINE
  8
0
 10
7.14079
 20
12.7883
 11
7.13794
 21
12.7753
  0
LINE
  8
0
 10
7.13794
 20
12.7753
 11
7.11332
 21
12.6633
  0
LINE
  8
0
 10
7.11332
 20
12.6633
 11
7.11122
 21
12.6341
  0
LINE
  8
0
 10
7.11122
 20
12.6341
 11
7.10409
 21
12.5351
  0
LINE
  8
0
 10
7.10409
 20
12.5351
 11
7.10409
 21
5.5
  0
LINE
  8
0
 10
7.10409
 20
5.5
 11
5.60409
 21
4
  0
LINE
  8
0
 10
5.60409
 20
4
 11
0.499999
 21
4
  0
LINE
  8
0
 10
0.499999
 20
4
 11
0
 21
3.5
  0
LINE
  8
0
 10
0
 20
3.5
 11
0
 21
0
  0
LINE
  8
0
 10
0
 20
42
 11
0.499999
 21
41.5
  0
LINE
  8
0
 10
0.499999
 20
41.5
 11
5.60409
 21
41.5
  0
LINE
  8
0
 10
5.60409
 20
41.5
 11
7.10409
 21
40
  0
LINE
  8
0
 10
7.10409
 20
40
 11
7.10409
 21
29.6434
  0
LINE
  8
0
 10
7.10409
 20
29.6434
 11
7.10887
 21
29.5545
  0
LINE
  8
0
 10
7.10887
 20
29.5545
 11
7.11332
 21
29.4717
  0
LINE
  8
0
 10
7.11332
 20
29.4717
 11
7.12789
 21
29.3829
  0
LINE
  8
0
 10
7.12789
 20
29.3829
 11
7.14079
 21
29.3043
  0
LINE
  8
0
 10
7.14079
 20
29.3043
 11
7.16522
 21
29.218
  0
LINE
  8
0
 10
7.16522
 20
29.218
 11
7.18583
 21
29.1452
  0
LINE
  8
0
 10
7.18583
 20
29.1452
 11
7.21987
 21
29.0639
  0
LINE
  8
0
 10
7.21987
 20
29.0639
 11
7.24732
 21
28.9983
  0
LINE
  8
0
 10
7.24732
 20
28.9983
 11
7.29041
 21
28.9245
  0
LINE
  8
0
 10
7.29041
 20
28.9245
 11
7.32376
 21
28.8674
  0
LINE
  8
0
 10
7.32376
 20
28.8674
 11
7.375
 21
28.8034
  0
LINE
  8
0
 10
7.375
 20
28.8034
 11
7.41325
 21
28.7556
  0
LINE
  8
0
 10
7.41325
 20
28.7556
 11
7.51359
 21
28.6656
  0
LINE
  8
0
 10
7.51359
 20
28.6656
 11
7.57725
 21
28.627
  0
LINE
  8
0
 10
7.57725
 20
28.627
 11
7.62232
 21
28.5997
  0
LINE
  8
0
 10
7.62232
 20
28.5997
 11
7.68975
 21
28.576
  0
LINE
  8
0
 10
7.68975
 20
28.576
 11
7.73676
 21
28.5595
  0
LINE
  8
0
 10
7.73676
 20
28.5595
 11
7.8061
 21
28.5515
  0
LINE
  8
0
 10
7.8061
 20
28.5515
 11
7.85409
 21
28.546
  0
LINE
  8
0
 10
7.85409
 20
28.546
 11
11
 21
28.546
  0
LINE
  8
0
 10
11
 20
28.546
 11
11
 21
45.5
  0
LINE
  8
0
 10
11
 20
45.5
 11
0
 21
45.5
  0
LINE
  8
0
 10
0
 20
45.5
 11
0
 21
42
  0
LINE
  8
0
 10
7.10409
 20
18.6934
 11
7.11273
 21
18.5327
  0
LINE
  8
0
 10
7.11273
 20
18.5327
 11
7.11332
 21
18.5217
  0
LINE
  8
0
 10
7.11332
 20
18.5217
 11
7.1392
 21
18.364
  0
LINE
  8
0
 10
7.1392
 20
18.364
 11
7.14079
 21
18.3543
  0
LINE
  8
0
 10
7.14079
 20
18.3543
 11
7.18348
 21
18.2035
  0
LINE
  8
0
 10
7.18348
 20
18.2035
 11
7.18583
 21
18.1952
  0
LINE
  8
0
 10
7.18583
 20
18.1952
 11
7.24445
 21
18.0552
  0
LINE
  8
0
 10
7.24445
 20
18.0552
 11
7.24732
 21
18.0484
  0
LINE
  8
0
 10
7.24732
 20
18.0484
 11
7.32055
 21
17.9229
  0
LINE
  8
0
 10
7.32055
 20
17.9229
 11
7.32376
 21
17.9174
  0
LINE
  8
0
 10
7.32376
 20
17.9174
 11
7.41325
 21
17.8056
  0
LINE
  8
0
 10
7.41325
 20
17.8056
 11
7.51359
 21
17.7156
  0
LINE
  8
0
 10
7.51359
 20
17.7156
 11
7.61885
 21
17.6518
  0
LINE
  8
0
 10
7.61885
 20
17.6518
 11
7.62232
 21
17.6497
  0
LINE
  8
0
 10
7.62232
 20
17.6497
 11
7.73327
 21
17.6107
  0
LINE
  8
0
 10
7.73327
 20
17.6107
 11
7.73676
 21
17.6095
  0
LINE
  8
0
 10
7.73676
 20
17.6095
 11
7.85409
 21
17.596
  0
LINE
  8
0
 10
7.85409
 20
17.596
 11
11
 21
17.596
  0
LINE
  8
0
 10
11
 20
17.596
 11
11
 21
21.5586
  0
LINE
  8
0
 10
11
 20
21.5586
 11
7.85409
 21
21.5586
  0
LINE
  8
0
 10
7.85409
 20
21.5586
 11
7.80035
 21
21.554
  0
LINE
  8
0
 10
7.80035
 20
21.554
 11
7.73676
 21
21.5486
  0
LINE
  8
0
 10
7.73676
 20
21.5486
 11
7.68652
 21
21.5355
  0
LINE
  8
0
 10
7.68652
 20
21.5355
 11
7.62232
 21
21.5188
  0
LINE
  8
0
 10
7.62232
 20
21.5188
 11
7.57837
 21
21.4991
  0
LINE
  8
0
 10
7.57837
 20
21.4991
 11
7.51359
 21
21.47
  0
LINE
  8
0
 10
7.51359
 20
21.47
 11
7.47784
 21
21.4462
  0
LINE
  8
0
 10
7.47784
 20
21.4462
 11
7.41325
 21
21.4033
  0
LINE
  8
0
 10
7.41325
 20
21.4033
 11
7.38654
 21
21.3785
  0
LINE
  8
0
 10
7.38654
 20
21.3785
 11
7.32376
 21
21.3204
  0
LINE
  8
0
 10
7.32376
 20
21.3204
 11
7.3059
 21
21.2977
  0
LINE
  8
0
 10
7.3059
 20
21.2977
 11
7.24732
 21
21.2234
  0
LINE
  8
0
 10
7.24732
 20
21.2234
 11
7.23721
 21
21.2055
  0
LINE
  8
0
 10
7.23721
 20
21.2055
 11
7.18583
 21
21.1146
  0
LINE
  8
0
 10
7.18583
 20
21.1146
 11
7.18162
 21
21.1035
  0
LINE
  8
0
 10
7.18162
 20
21.1035
 11
7.14079
 21
20.9967
  0
LINE
  8
0
 10
7.14079
 20
20.9967
 11
7.14017
 21
20.9938
  0
LINE
  8
0
 10
7.14017
 20
20.9938
 11
7.13195
 21
20.9567
  0
LINE
  8
0
 10
7.13195
 20
20.9567
 11
7.11462
 21
20.8827
  0
LINE
  8
0
 10
7.11462
 20
20.8827
 11
7.11332
 21
20.8771
  0
LINE
  8
0
 10
7.11332
 20
20.8771
 11
7.10514
 21
20.7705
  0
LINE
  8
0
 10
7.10514
 20
20.7705
 11
7.10409
 21
20.7568
  0
LINE
  8
0
 10
7.10409
 20
20.7568
 11
7.10409
 21
18.6934
  0
LINE
  8
0
 10
36.5
 20
0
 11
47.5
 21
0
  0
LINE
  8
0
 10
47.5
 20
0
 11
47.5
 21
3.5
  0
LINE
  8
0
 10
47.5
 20
3.5
 11
47
 21
4
  0
LINE
  8
0
 10
47
 20
4
 11
41.8959
 21
4
  0
LINE
  8
0
 10
41.8959
 20
4
 11
40.3959
 21
5.5
  0
LINE
  8
0
 10
40.3959
 20
5.5
 11
40.3959
 21
12.5351
  0
LINE
  8
0
 10
40.3959
 20
12.5351
 11
40.3932
 21
12.5728
  0
LINE
  8
0
 10
40.3932
 20
12.5728
 11
40.3867
 21
12.6633
  0
LINE
  8
0
 10
40.3867
 20
12.6633
 11
40.3814
 21
12.6875
  0
LINE
  8
0
 10
40.3814
 20
12.6875
 11
40.3592
 21
12.7883
  0
LINE
  8
0
 10
40.3592
 20
12.7883
 11
40.3552
 21
12.7988
  0
LINE
  8
0
 10
40.3552
 20
12.7988
 11
40.3221
 21
12.8861
  0
LINE
  8
0
 10
40.3221
 20
12.8861
 11
40.3151
 21
12.9065
  0
LINE
  8
0
 10
40.3151
 20
12.9065
 11
40.3142
 21
12.9091
  0
LINE
  8
0
 10
40.3142
 20
12.9091
 11
40.2606
 21
13.0137
  0
LINE
  8
0
 10
40.2606
 20
13.0137
 11
40.2527
 21
13.0292
  0
LINE
  8
0
 10
40.2527
 20
13.0292
 11
40.1942
 21
13.1111
  0
LINE
  8
0
 10
40.1942
 20
13.1111
 11
40.1762
 21
13.1363
  0
LINE
  8
0
 10
40.1762
 20
13.1363
 11
40.1168
 21
13.1971
  0
LINE
  8
0
 10
40.1168
 20
13.1971
 11
40.0868
 21
13.2278
  0
LINE
  8
0
 10
40.0868
 20
13.2278
 11
40.0292
 21
13.27
  0
LINE
  8
0
 10
40.0292
 20
13.27
 11
39.9864
 21
13.3014
  0
LINE
  8
0
 10
39.9864
 20
13.3014
 11
39.9323
 21
13.3282
  0
LINE
  8
0
 10
39.9323
 20
13.3282
 11
39.8777
 21
13.3553
  0
LINE
  8
0
 10
39.8777
 20
13.3553
 11
39.8273
 21
13.3698
  0
LINE
  8
0
 10
39.8273
 20
13.3698
 11
39.7632
 21
13.3882
  0
LINE
  8
0
 10
39.7632
 20
13.3882
 11
39.7155
 21
13.3927
  0
LINE
  8
0
 10
39.7155
 20
13.3927
 11
39.6459
 21
13.3993
  0
LINE
  8
0
 10
39.6459
 20
13.3993
 11
36.5
 21
13.3993
  0
LINE
  8
0
 10
36.5
 20
13.3993
 11
36.5
 21
0
  0
LINE
  8
0
 10
36.5
 20
17.596
 11
39.6459
 21
17.596
  0
LINE
  8
0
 10
39.6459
 20
17.596
 11
39.7632
 21
17.6095
  0
LINE
  8
0
 10
39.7632
 20
17.6095
 11
39.874
 21
17.6484
  0
LINE
  8
0
 10
39.874
 20
17.6484
 11
39.8777
 21
17.6497
  0
LINE
  8
0
 10
39.8777
 20
17.6497
 11
39.9827
 21
17.7134
  0
LINE
  8
0
 10
39.9827
 20
17.7134
 11
39.9864
 21
17.7156
  0
LINE
  8
0
 10
39.9864
 20
17.7156
 11
40.0868
 21
17.8056
  0
LINE
  8
0
 10
40.0868
 20
17.8056
 11
40.1762
 21
17.9174
  0
LINE
  8
0
 10
40.1762
 20
17.9174
 11
40.2491
 21
18.0423
  0
LINE
  8
0
 10
40.2491
 20
18.0423
 11
40.2527
 21
18.0484
  0
LINE
  8
0
 10
40.2527
 20
18.0484
 11
40.311
 21
18.1876
  0
LINE
  8
0
 10
40.311
 20
18.1876
 11
40.3142
 21
18.1952
  0
LINE
  8
0
 10
40.3142
 20
18.1952
 11
40.3566
 21
18.3452
  0
LINE
  8
0
 10
40.3566
 20
18.3452
 11
40.3592
 21
18.3543
  0
LINE
  8
0
 10
40.3592
 20
18.3543
 11
40.3849
 21
18.5111
  0
LINE
  8
0
 10
40.3849
 20
18.5111
 11
40.3867
 21
18.5217
  0
LINE
  8
0
 10
40.3867
 20
18.5217
 11
40.3953
 21
18.6814
  0
LINE
  8
0
 10
40.3953
 20
18.6814
 11
40.3959
 21
18.6934
  0
LINE
  8
0
 10
40.3959
 20
18.6934
 11
40.3959
 21
20.7568
  0
LINE
  8
0
 10
40.3959
 20
20.7568
 11
40.3871
 21
20.871
  0
LINE
  8
0
 10
40.3871
 20
20.871
 11
40.3867
 21
20.8771
  0
LINE
  8
0
 10
40.3867
 20
20.8771
 11
40.368
 21
20.9567
  0
LINE
  8
0
 10
40.368
 20
20.9567
 11
40.3592
 21
20.9967
  0
LINE
  8
0
 10
40.3592
 20
20.9967
 11
40.3579
 21
21.0001
  0
LINE
  8
0
 10
40.3579
 20
21.0001
 11
40.3142
 21
21.1146
  0
LINE
  8
0
 10
40.3142
 20
21.1146
 11
40.307
 21
21.1273
  0
LINE
  8
0
 10
40.307
 20
21.1273
 11
40.2527
 21
21.2234
  0
LINE
  8
0
 10
40.2527
 20
21.2234
 11
40.2372
 21
21.243
  0
LINE
  8
0
 10
40.2372
 20
21.243
 11
40.1762
 21
21.3204
  0
LINE
  8
0
 10
40.1762
 20
21.3204
 11
40.151
 21
21.3438
  0
LINE
  8
0
 10
40.151
 20
21.3438
 11
40.0868
 21
21.4033
  0
LINE
  8
0
 10
40.0868
 20
21.4033
 11
40.0516
 21
21.4266
  0
LINE
  8
0
 10
40.0516
 20
21.4266
 11
39.9864
 21
21.47
  0
LINE
  8
0
 10
39.9864
 20
21.47
 11
39.9424
 21
21.4897
  0
LINE
  8
0
 10
39.9424
 20
21.4897
 11
39.8777
 21
21.5188
  0
LINE
  8
0
 10
39.8777
 20
21.5188
 11
39.8272
 21
21.5319
  0
LINE
  8
0
 10
39.8272
 20
21.5319
 11
39.7632
 21
21.5486
  0
LINE
  8
0
 10
39.7632
 20
21.5486
 11
39.7094
 21
21.5532
  0
LINE
  8
0
 10
39.7094
 20
21.5532
 11
39.6459
 21
21.5586
  0
LINE
  8
0
 10
39.6459
 20
21.5586
 11
36.5
 21
21.5586
  0
LINE
  8
0
 10
36.5
 20
21.5586
 11
36.5
 21
17.596
  0
LINE
  8
0
 10
36.5
 20
28.546
 11
39.6459
 21
28.546
  0
LINE
  8
0
 10
39.6459
 20
28.546
 11
39.7152
 21
28.554
  0
LINE
  8
0
 10
39.7152
 20
28.554
 11
39.7632
 21
28.5595
  0
LINE
  8
0
 10
39.7632
 20
28.5595
 11
39.8306
 21
28.5832
  0
LINE
  8
0
 10
39.8306
 20
28.5832
 11
39.8777
 21
28.5997
  0
LINE
  8
0
 10
39.8777
 20
28.5997
 11
39.9412
 21
28.6382
  0
LINE
  8
0
 10
39.9412
 20
28.6382
 11
39.9864
 21
28.6656
  0
LINE
  8
0
 10
39.9864
 20
28.6656
 11
40.0868
 21
28.7556
  0
LINE
  8
0
 10
40.0868
 20
28.7556
 11
40.1379
 21
28.8195
  0
LINE
  8
0
 10
40.1379
 20
28.8195
 11
40.1762
 21
28.8674
  0
LINE
  8
0
 10
40.1762
 20
28.8674
 11
40.2192
 21
28.9411
  0
LINE
  8
0
 10
40.2192
 20
28.9411
 11
40.2527
 21
28.9983
  0
LINE
  8
0
 10
40.2527
 20
28.9983
 11
40.2866
 21
29.0795
  0
LINE
  8
0
 10
40.2866
 20
29.0795
 11
40.3142
 21
29.1452
  0
LINE
  8
0
 10
40.3142
 20
29.1452
 11
40.3385
 21
29.2313
  0
LINE
  8
0
 10
40.3385
 20
29.2313
 11
40.3592
 21
29.3043
  0
LINE
  8
0
 10
40.3592
 20
29.3043
 11
40.3738
 21
29.3929
  0
LINE
  8
0
 10
40.3738
 20
29.3929
 11
40.3867
 21
29.4717
  0
LINE
  8
0
 10
40.3867
 20
29.4717
 11
40.3915
 21
29.5605
  0
LINE
  8
0
 10
40.3915
 20
29.5605
 11
40.3959
 21
29.6434
  0
LINE
  8
0
 10
40.3959
 20
29.6434
 11
40.3959
 21
40
  0
LINE
  8
0
 10
40.3959
 20
40
 11
41.8959
 21
41.5
  0
LINE
  8
0
 10
41.8959
 20
41.5
 11
47
 21
41.5
  0
LINE
  8
0
 10
47
 20
41.5
 11
47.5
 21
42
  0
LINE
  8
0
 10
47.5
 20
42
 11
47.5
 21
45.5
  0
LINE
  8
0
 10
47.5
 20
45.5
 11
36.5
 21
45.5
  0
LINE
  8
0
 10
36.5
 20
45.5
 11
36.5
 21
28.546
  0
ENDSEC
  0
SECTION
  2
OBJECTS
  0
DICTIONARY
  0
ENDSEC
  0
EOF
