  0
SECTION
  2
BLOCKS
  0
ENDSEC
  0
SECTION
  2
ENTITIES
  0
LINE
  8
0
 10
0
 20
0
 11
11
 21
0
  0
LINE
  8
0
 10
11
 20
0
 11
11
 21
13.5495
  0
LINE
  8
0
 10
11
 20
13.5495
 11
7.85409
 21
13.5495
  0
LINE
  8
0
 10
7.85409
 20
13.5495
 11
7.75966
 21
13.5394
  0
LINE
  8
0
 10
7.75966
 20
13.5394
 11
7.73676
 21
13.5369
  0
LINE
  8
0
 10
7.73676
 20
13.5369
 11
7.63862
 21
13.5048
  0
LINE
  8
0
 10
7.63862
 20
13.5048
 11
7.62232
 21
13.4994
  0
LINE
  8
0
 10
7.62232
 20
13.4994
 11
7.51856
 21
13.4408
  0
LINE
  8
0
 10
7.51856
 20
13.4408
 11
7.51359
 21
13.4379
  0
LINE
  8
0
 10
7.51359
 20
13.4379
 11
7.48024
 21
13.41
  0
LINE
  8
0
 10
7.48024
 20
13.41
 11
7.41325
 21
13.3609
  0
LINE
  8
0
 10
7.41325
 20
13.3609
 11
7.40626
 21
13.3538
  0
LINE
  8
0
 10
7.40626
 20
13.3538
 11
7.32376
 21
13.2694
  0
LINE
  8
0
 10
7.32376
 20
13.2694
 11
7.3069
 21
13.2458
  0
LINE
  8
0
 10
7.3069
 20
13.2458
 11
7.24732
 21
13.1623
  0
LINE
  8
0
 10
7.24732
 20
13.1623
 11
7.22393
 21
13.1166
  0
LINE
  8
0
 10
7.22393
 20
13.1166
 11
7.18583
 21
13.0422
  0
LINE
  8
0
 10
7.18583
 20
13.0422
 11
7.1611
 21
12.9707
  0
LINE
  8
0
 10
7.1611
 20
12.9707
 11
7.14079
 21
12.912
  0
LINE
  8
0
 10
7.14079
 20
12.912
 11
7.12107
 21
12.8136
  0
LINE
  8
0
 10
7.12107
 20
12.8136
 11
7.11332
 21
12.775
  0
LINE
  8
0
 10
7.11332
 20
12.775
 11
7.10519
 21
12.6514
  0
LINE
  8
0
 10
7.10519
 20
12.6514
 11
7.10409
 21
12.6346
  0
LINE
  8
0
 10
7.10409
 20
12.6346
 11
7.10409
 21
5.5
  0
LINE
  8
0
 10
7.10409
 20
5.5
 11
5.60409
 21
4
  0
LINE
  8
0
 10
5.60409
 20
4
 11
0.499999
 21
4
  0
LINE
  8
0
 10
0.499999
 20
4
 11
0
 21
3.5
  0
LINE
  8
0
 10
0
 20
3.5
 11
0
 21
0
  0
LINE
  8
0
 10
0
 20
42
 11
0.499999
 21
41.5
  0
LINE
  8
0
 10
0.499999
 20
41.5
 11
5.60409
 21
41.5
  0
LINE
  8
0
 10
5.60409
 20
41.5
 11
7.10409
 21
40
  0
LINE
  8
0
 10
7.10409
 20
40
 11
7.10409
 21
29.4297
  0
LINE
  8
0
 10
7.10409
 20
29.4297
 11
7.10914
 21
29.3358
  0
LINE
  8
0
 10
7.10914
 20
29.3358
 11
7.11332
 21
29.2581
  0
LINE
  8
0
 10
7.11332
 20
29.2581
 11
7.1287
 21
29.1643
  0
LINE
  8
0
 10
7.1287
 20
29.1643
 11
7.14079
 21
29.0906
  0
LINE
  8
0
 10
7.14079
 20
29.0906
 11
7.16655
 21
28.9996
  0
LINE
  8
0
 10
7.16655
 20
28.9996
 11
7.18583
 21
28.9315
  0
LINE
  8
0
 10
7.18583
 20
28.9315
 11
7.22169
 21
28.8459
  0
LINE
  8
0
 10
7.22169
 20
28.8459
 11
7.24732
 21
28.7847
  0
LINE
  8
0
 10
7.24732
 20
28.7847
 11
7.29267
 21
28.707
  0
LINE
  8
0
 10
7.29267
 20
28.707
 11
7.32376
 21
28.6538
  0
LINE
  8
0
 10
7.32376
 20
28.6538
 11
7.37764
 21
28.5864
  0
LINE
  8
0
 10
7.37764
 20
28.5864
 11
7.41325
 21
28.5419
  0
LINE
  8
0
 10
7.41325
 20
28.5419
 11
7.51359
 21
28.452
  0
LINE
  8
0
 10
7.51359
 20
28.452
 11
7.58045
 21
28.4115
  0
LINE
  8
0
 10
7.58045
 20
28.4115
 11
7.62232
 21
28.3861
  0
LINE
  8
0
 10
7.62232
 20
28.3861
 11
7.69311
 21
28.3612
  0
LINE
  8
0
 10
7.69311
 20
28.3612
 11
7.73676
 21
28.3459
  0
LINE
  8
0
 10
7.73676
 20
28.3459
 11
7.80954
 21
28.3375
  0
LINE
  8
0
 10
7.80954
 20
28.3375
 11
7.85409
 21
28.3324
  0
LINE
  8
0
 10
7.85409
 20
28.3324
 11
11
 21
28.3324
  0
LINE
  8
0
 10
11
 20
28.3324
 11
11
 21
45.5
  0
LINE
  8
0
 10
11
 20
45.5
 11
0
 21
45.5
  0
LINE
  8
0
 10
0
 20
45.5
 11
0
 21
42
  0
LINE
  8
0
 10
7.10409
 20
18.4798
 11
7.11286
 21
18.3166
  0
LINE
  8
0
 10
7.11286
 20
18.3166
 11
7.11332
 21
18.3081
  0
LINE
  8
0
 10
7.11332
 20
18.3081
 11
7.13961
 21
18.1479
  0
LINE
  8
0
 10
7.13961
 20
18.1479
 11
7.14079
 21
18.1406
  0
LINE
  8
0
 10
7.14079
 20
18.1406
 11
7.18415
 21
17.9875
  0
LINE
  8
0
 10
7.18415
 20
17.9875
 11
7.18583
 21
17.9816
  0
LINE
  8
0
 10
7.18583
 20
17.9816
 11
7.24536
 21
17.8394
  0
LINE
  8
0
 10
7.24536
 20
17.8394
 11
7.24732
 21
17.8347
  0
LINE
  8
0
 10
7.24732
 20
17.8347
 11
7.32168
 21
17.7074
  0
LINE
  8
0
 10
7.32168
 20
17.7074
 11
7.32376
 21
17.7038
  0
LINE
  8
0
 10
7.32376
 20
17.7038
 11
7.41325
 21
17.592
  0
LINE
  8
0
 10
7.41325
 20
17.592
 11
7.51359
 21
17.502
  0
LINE
  8
0
 10
7.51359
 20
17.502
 11
7.62044
 21
17.4372
  0
LINE
  8
0
 10
7.62044
 20
17.4372
 11
7.62232
 21
17.4361
  0
LINE
  8
0
 10
7.62232
 20
17.4361
 11
7.73495
 21
17.3965
  0
LINE
  8
0
 10
7.73495
 20
17.3965
 11
7.73676
 21
17.3959
  0
LINE
  8
0
 10
7.73676
 20
17.3959
 11
7.85409
 21
17.3824
  0
LINE
  8
0
 10
7.85409
 20
17.3824
 11
11
 21
17.3824
  0
LINE
  8
0
 10
11
 20
17.3824
 11
11
 21
21.4773
  0
LINE
  8
0
 10
11
 20
21.4773
 11
7.85409
 21
21.4773
  0
LINE
  8
0
 10
7.85409
 20
21.4773
 11
7.74463
 21
21.4685
  0
LINE
  8
0
 10
7.74463
 20
21.4685
 11
7.73676
 21
21.4679
  0
LINE
  8
0
 10
7.73676
 20
21.4679
 11
7.63229
 21
21.4421
  0
LINE
  8
0
 10
7.63229
 20
21.4421
 11
7.62232
 21
21.4397
  0
LINE
  8
0
 10
7.62232
 20
21.4397
 11
7.52652
 21
21.399
  0
LINE
  8
0
 10
7.52652
 20
21.399
 11
7.51359
 21
21.3935
  0
LINE
  8
0
 10
7.51359
 20
21.3935
 11
7.42934
 21
21.3405
  0
LINE
  8
0
 10
7.42934
 20
21.3405
 11
7.41325
 21
21.3304
  0
LINE
  8
0
 10
7.41325
 20
21.3304
 11
7.34247
 21
21.2684
  0
LINE
  8
0
 10
7.34247
 20
21.2684
 11
7.32376
 21
21.252
  0
LINE
  8
0
 10
7.32376
 20
21.252
 11
7.26741
 21
21.1843
  0
LINE
  8
0
 10
7.26741
 20
21.1843
 11
7.24732
 21
21.1602
  0
LINE
  8
0
 10
7.24732
 20
21.1602
 11
7.20544
 21
21.09
  0
LINE
  8
0
 10
7.20544
 20
21.09
 11
7.18583
 21
21.0572
  0
LINE
  8
0
 10
7.18583
 20
21.0572
 11
7.15772
 21
20.9876
  0
LINE
  8
0
 10
7.15772
 20
20.9876
 11
7.14079
 21
20.9457
  0
LINE
  8
0
 10
7.14079
 20
20.9457
 11
7.12517
 21
20.8789
  0
LINE
  8
0
 10
7.12517
 20
20.8789
 11
7.11332
 21
20.8283
  0
LINE
  8
0
 10
7.11332
 20
20.8283
 11
7.10856
 21
20.7663
  0
LINE
  8
0
 10
7.10856
 20
20.7663
 11
7.10409
 21
20.7079
  0
LINE
  8
0
 10
7.10409
 20
20.7079
 11
7.10409
 21
18.4798
  0
LINE
  8
0
 10
36.5
 20
0
 11
47.5
 21
0
  0
LINE
  8
0
 10
47.5
 20
0
 11
47.5
 21
3.5
  0
LINE
  8
0
 10
47.5
 20
3.5
 11
47
 21
4
  0
LINE
  8
0
 10
47
 20
4
 11
41.8959
 21
4
  0
LINE
  8
0
 10
41.8959
 20
4
 11
40.3959
 21
5.5
  0
LINE
  8
0
 10
40.3959
 20
5.5
 11
40.3959
 21
12.6346
  0
LINE
  8
0
 10
40.3959
 20
12.6346
 11
40.3885
 21
12.7467
  0
LINE
  8
0
 10
40.3885
 20
12.7467
 11
40.3867
 21
12.775
  0
LINE
  8
0
 10
40.3867
 20
12.775
 11
40.3681
 21
12.8678
  0
LINE
  8
0
 10
40.3681
 20
12.8678
 11
40.3592
 21
12.912
  0
LINE
  8
0
 10
40.3592
 20
12.912
 11
40.3343
 21
12.9839
  0
LINE
  8
0
 10
40.3343
 20
12.9839
 11
40.3142
 21
13.0422
  0
LINE
  8
0
 10
40.3142
 20
13.0422
 11
40.288
 21
13.0933
  0
LINE
  8
0
 10
40.288
 20
13.0933
 11
40.2527
 21
13.1623
  0
LINE
  8
0
 10
40.2527
 20
13.1623
 11
40.2298
 21
13.1943
  0
LINE
  8
0
 10
40.2298
 20
13.1943
 11
40.1762
 21
13.2694
  0
LINE
  8
0
 10
40.1762
 20
13.2694
 11
40.1604
 21
13.2856
  0
LINE
  8
0
 10
40.1604
 20
13.2856
 11
40.0868
 21
13.3609
  0
LINE
  8
0
 10
40.0868
 20
13.3609
 11
40.0802
 21
13.3657
  0
LINE
  8
0
 10
40.0802
 20
13.3657
 11
40.0198
 21
13.41
  0
LINE
  8
0
 10
40.0198
 20
13.41
 11
39.99
 21
13.435
  0
LINE
  8
0
 10
39.99
 20
13.435
 11
39.9864
 21
13.4379
  0
LINE
  8
0
 10
39.9864
 20
13.4379
 11
39.8907
 21
13.4921
  0
LINE
  8
0
 10
39.8907
 20
13.4921
 11
39.8777
 21
13.4994
  0
LINE
  8
0
 10
39.8777
 20
13.4994
 11
39.7837
 21
13.5302
  0
LINE
  8
0
 10
39.7837
 20
13.5302
 11
39.7632
 21
13.5369
  0
LINE
  8
0
 10
39.7632
 20
13.5369
 11
39.6701
 21
13.5469
  0
LINE
  8
0
 10
39.6701
 20
13.5469
 11
39.6459
 21
13.5495
  0
LINE
  8
0
 10
39.6459
 20
13.5495
 11
36.5
 21
13.5495
  0
LINE
  8
0
 10
36.5
 20
13.5495
 11
36.5
 21
0
  0
LINE
  8
0
 10
36.5
 20
17.3824
 11
39.6459
 21
17.3824
  0
LINE
  8
0
 10
39.6459
 20
17.3824
 11
39.7632
 21
17.3959
  0
LINE
  8
0
 10
39.7632
 20
17.3959
 11
39.8757
 21
17.4354
  0
LINE
  8
0
 10
39.8757
 20
17.4354
 11
39.8777
 21
17.4361
  0
LINE
  8
0
 10
39.8777
 20
17.4361
 11
39.9843
 21
17.5007
  0
LINE
  8
0
 10
39.9843
 20
17.5007
 11
39.9864
 21
17.502
  0
LINE
  8
0
 10
39.9864
 20
17.502
 11
40.0868
 21
17.592
  0
LINE
  8
0
 10
40.0868
 20
17.592
 11
40.1762
 21
17.7038
  0
LINE
  8
0
 10
40.1762
 20
17.7038
 11
40.2503
 21
17.8306
  0
LINE
  8
0
 10
40.2503
 20
17.8306
 11
40.2527
 21
17.8347
  0
LINE
  8
0
 10
40.2527
 20
17.8347
 11
40.3119
 21
17.9761
  0
LINE
  8
0
 10
40.3119
 20
17.9761
 11
40.3142
 21
17.9816
  0
LINE
  8
0
 10
40.3142
 20
17.9816
 11
40.3573
 21
18.1338
  0
LINE
  8
0
 10
40.3573
 20
18.1338
 11
40.3592
 21
18.1406
  0
LINE
  8
0
 10
40.3592
 20
18.1406
 11
40.3853
 21
18.2999
  0
LINE
  8
0
 10
40.3853
 20
18.2999
 11
40.3867
 21
18.3081
  0
LINE
  8
0
 10
40.3867
 20
18.3081
 11
40.3954
 21
18.4703
  0
LINE
  8
0
 10
40.3954
 20
18.4703
 11
40.3959
 21
18.4798
  0
LINE
  8
0
 10
40.3959
 20
18.4798
 11
40.3959
 21
20.7079
  0
LINE
  8
0
 10
40.3959
 20
20.7079
 11
40.391
 21
20.7725
  0
LINE
  8
0
 10
40.391
 20
20.7725
 11
40.3867
 21
20.8283
  0
LINE
  8
0
 10
40.3867
 20
20.8283
 11
40.3703
 21
20.8983
  0
LINE
  8
0
 10
40.3703
 20
20.8983
 11
40.3592
 21
20.9457
  0
LINE
  8
0
 10
40.3592
 20
20.9457
 11
40.3296
 21
21.0191
  0
LINE
  8
0
 10
40.3296
 20
21.0191
 11
40.3142
 21
21.0572
  0
LINE
  8
0
 10
40.3142
 20
21.0572
 11
40.2699
 21
21.1313
  0
LINE
  8
0
 10
40.2699
 20
21.1313
 11
40.2527
 21
21.1602
  0
LINE
  8
0
 10
40.2527
 20
21.1602
 11
40.1932
 21
21.2316
  0
LINE
  8
0
 10
40.1932
 20
21.2316
 11
40.1762
 21
21.252
  0
LINE
  8
0
 10
40.1762
 20
21.252
 11
40.1019
 21
21.3171
  0
LINE
  8
0
 10
40.1019
 20
21.3171
 11
40.0868
 21
21.3304
  0
LINE
  8
0
 10
40.0868
 20
21.3304
 11
39.9988
 21
21.3857
  0
LINE
  8
0
 10
39.9988
 20
21.3857
 11
39.9864
 21
21.3935
  0
LINE
  8
0
 10
39.9864
 20
21.3935
 11
39.8874
 21
21.4355
  0
LINE
  8
0
 10
39.8874
 20
21.4355
 11
39.8777
 21
21.4397
  0
LINE
  8
0
 10
39.8777
 20
21.4397
 11
39.771
 21
21.4659
  0
LINE
  8
0
 10
39.771
 20
21.4659
 11
39.7632
 21
21.4679
  0
LINE
  8
0
 10
39.7632
 20
21.4679
 11
39.653
 21
21.4768
  0
LINE
  8
0
 10
39.653
 20
21.4768
 11
39.6459
 21
21.4773
  0
LINE
  8
0
 10
39.6459
 20
21.4773
 11
36.5
 21
21.4773
  0
LINE
  8
0
 10
36.5
 20
21.4773
 11
36.5
 21
17.3824
  0
LINE
  8
0
 10
36.5
 20
28.3324
 11
39.6459
 21
28.3324
  0
LINE
  8
0
 10
39.6459
 20
28.3324
 11
39.7187
 21
28.3407
  0
LINE
  8
0
 10
39.7187
 20
28.3407
 11
39.7632
 21
28.3459
  0
LINE
  8
0
 10
39.7632
 20
28.3459
 11
39.8339
 21
28.3707
  0
LINE
  8
0
 10
39.8339
 20
28.3707
 11
39.8777
 21
28.3861
  0
LINE
  8
0
 10
39.8777
 20
28.3861
 11
39.9444
 21
28.4265
  0
LINE
  8
0
 10
39.9444
 20
28.4265
 11
39.9864
 21
28.452
  0
LINE
  8
0
 10
39.9864
 20
28.452
 11
40.0868
 21
28.5419
  0
LINE
  8
0
 10
40.0868
 20
28.5419
 11
40.1405
 21
28.6091
  0
LINE
  8
0
 10
40.1405
 20
28.6091
 11
40.1762
 21
28.6538
  0
LINE
  8
0
 10
40.1762
 20
28.6538
 11
40.2215
 21
28.7312
  0
LINE
  8
0
 10
40.2215
 20
28.7312
 11
40.2527
 21
28.7847
  0
LINE
  8
0
 10
40.2527
 20
28.7847
 11
40.2884
 21
28.8701
  0
LINE
  8
0
 10
40.2884
 20
28.8701
 11
40.3142
 21
28.9315
  0
LINE
  8
0
 10
40.3142
 20
28.9315
 11
40.3399
 21
29.0223
  0
LINE
  8
0
 10
40.3399
 20
29.0223
 11
40.3592
 21
29.0906
  0
LINE
  8
0
 10
40.3592
 20
29.0906
 11
40.3745
 21
29.1841
  0
LINE
  8
0
 10
40.3745
 20
29.1841
 11
40.3867
 21
29.2581
  0
LINE
  8
0
 10
40.3867
 20
29.2581
 11
40.3917
 21
29.3518
  0
LINE
  8
0
 10
40.3917
 20
29.3518
 11
40.3959
 21
29.4297
  0
LINE
  8
0
 10
40.3959
 20
29.4297
 11
40.3959
 21
40
  0
LINE
  8
0
 10
40.3959
 20
40
 11
41.8959
 21
41.5
  0
LINE
  8
0
 10
41.8959
 20
41.5
 11
47
 21
41.5
  0
LINE
  8
0
 10
47
 20
41.5
 11
47.5
 21
42
  0
LINE
  8
0
 10
47.5
 20
42
 11
47.5
 21
45.5
  0
LINE
  8
0
 10
47.5
 20
45.5
 11
36.5
 21
45.5
  0
LINE
  8
0
 10
36.5
 20
45.5
 11
36.5
 21
28.3324
  0
ENDSEC
  0
SECTION
  2
OBJECTS
  0
DICTIONARY
  0
ENDSEC
  0
EOF
