  0
SECTION
  2
BLOCKS
  0
ENDSEC
  0
SECTION
  2
ENTITIES
  0
LINE
  8
0
 10
0
 20
0
 11
11
 21
0
  0
LINE
  8
0
 10
11
 20
0
 11
11
 21
13.7368
  0
LINE
  8
0
 10
11
 20
13.7368
 11
7.85409
 21
13.7368
  0
LINE
  8
0
 10
7.85409
 20
13.7368
 11
7.83902
 21
13.7352
  0
LINE
  8
0
 10
7.83902
 20
13.7352
 11
7.73676
 21
13.7242
  0
LINE
  8
0
 10
7.73676
 20
13.7242
 11
7.71879
 21
13.7183
  0
LINE
  8
0
 10
7.71879
 20
13.7183
 11
7.62232
 21
13.6867
  0
LINE
  8
0
 10
7.62232
 20
13.6867
 11
7.59682
 21
13.6723
  0
LINE
  8
0
 10
7.59682
 20
13.6723
 11
7.51359
 21
13.6252
  0
LINE
  8
0
 10
7.51359
 20
13.6252
 11
7.47737
 21
13.5949
  0
LINE
  8
0
 10
7.47737
 20
13.5949
 11
7.41325
 21
13.5412
  0
LINE
  8
0
 10
7.41325
 20
13.5412
 11
7.36568
 21
13.4858
  0
LINE
  8
0
 10
7.36568
 20
13.4858
 11
7.32376
 21
13.4369
  0
LINE
  8
0
 10
7.32376
 20
13.4369
 11
7.26739
 21
13.3468
  0
LINE
  8
0
 10
7.26739
 20
13.3468
 11
7.24732
 21
13.3147
  0
LINE
  8
0
 10
7.24732
 20
13.3147
 11
7.18788
 21
13.1823
  0
LINE
  8
0
 10
7.18788
 20
13.1823
 11
7.18583
 21
13.1777
  0
LINE
  8
0
 10
7.18583
 20
13.1777
 11
7.17969
 21
13.1575
  0
LINE
  8
0
 10
7.17969
 20
13.1575
 11
7.14079
 21
13.0451
  0
LINE
  8
0
 10
7.14079
 20
13.0451
 11
7.13634
 21
13.0229
  0
LINE
  8
0
 10
7.13634
 20
13.0229
 11
7.11332
 21
12.9081
  0
LINE
  8
0
 10
7.11332
 20
12.9081
 11
7.11013
 21
12.8595
  0
LINE
  8
0
 10
7.11013
 20
12.8595
 11
7.10409
 21
12.7677
  0
LINE
  8
0
 10
7.10409
 20
12.7677
 11
7.10409
 21
5.5
  0
LINE
  8
0
 10
7.10409
 20
5.5
 11
5.60409
 21
4
  0
LINE
  8
0
 10
5.60409
 20
4
 11
0.499999
 21
4
  0
LINE
  8
0
 10
0.499999
 20
4
 11
0
 21
3.5
  0
LINE
  8
0
 10
0
 20
3.5
 11
0
 21
0
  0
LINE
  8
0
 10
0
 20
42
 11
0.499999
 21
41.5
  0
LINE
  8
0
 10
0.499999
 20
41.5
 11
5.60409
 21
41.5
  0
LINE
  8
0
 10
5.60409
 20
41.5
 11
7.10409
 21
40
  0
LINE
  8
0
 10
7.10409
 20
40
 11
7.10409
 21
29.2161
  0
LINE
  8
0
 10
7.10409
 20
29.2161
 11
7.10942
 21
29.1171
  0
LINE
  8
0
 10
7.10942
 20
29.1171
 11
7.11332
 21
29.0444
  0
LINE
  8
0
 10
7.11332
 20
29.0444
 11
7.12952
 21
28.9457
  0
LINE
  8
0
 10
7.12952
 20
28.9457
 11
7.14079
 21
28.877
  0
LINE
  8
0
 10
7.14079
 20
28.877
 11
7.16789
 21
28.7813
  0
LINE
  8
0
 10
7.16789
 20
28.7813
 11
7.18583
 21
28.7179
  0
LINE
  8
0
 10
7.18583
 20
28.7179
 11
7.22351
 21
28.628
  0
LINE
  8
0
 10
7.22351
 20
28.628
 11
7.24732
 21
28.5711
  0
LINE
  8
0
 10
7.24732
 20
28.5711
 11
7.29493
 21
28.4895
  0
LINE
  8
0
 10
7.29493
 20
28.4895
 11
7.32376
 21
28.4402
  0
LINE
  8
0
 10
7.32376
 20
28.4402
 11
7.38028
 21
28.3695
  0
LINE
  8
0
 10
7.38028
 20
28.3695
 11
7.41325
 21
28.3283
  0
LINE
  8
0
 10
7.41325
 20
28.3283
 11
7.51359
 21
28.2383
  0
LINE
  8
0
 10
7.51359
 20
28.2383
 11
7.58365
 21
28.1959
  0
LINE
  8
0
 10
7.58365
 20
28.1959
 11
7.62232
 21
28.1725
  0
LINE
  8
0
 10
7.62232
 20
28.1725
 11
7.69647
 21
28.1464
  0
LINE
  8
0
 10
7.69647
 20
28.1464
 11
7.73676
 21
28.1323
  0
LINE
  8
0
 10
7.73676
 20
28.1323
 11
7.81297
 21
28.1235
  0
LINE
  8
0
 10
7.81297
 20
28.1235
 11
7.85409
 21
28.1187
  0
LINE
  8
0
 10
7.85409
 20
28.1187
 11
11
 21
28.1187
  0
LINE
  8
0
 10
11
 20
28.1187
 11
11
 21
45.5
  0
LINE
  8
0
 10
11
 20
45.5
 11
0
 21
45.5
  0
LINE
  8
0
 10
0
 20
45.5
 11
0
 21
42
  0
LINE
  8
0
 10
7.10409
 20
18.2661
 11
7.113
 21
18.1004
  0
LINE
  8
0
 10
7.113
 20
18.1004
 11
7.11332
 21
18.0945
  0
LINE
  8
0
 10
7.11332
 20
18.0945
 11
7.14001
 21
17.9318
  0
LINE
  8
0
 10
7.14001
 20
17.9318
 11
7.14079
 21
17.927
  0
LINE
  8
0
 10
7.14079
 20
17.927
 11
7.18481
 21
17.7715
  0
LINE
  8
0
 10
7.18481
 20
17.7715
 11
7.18583
 21
17.7679
  0
LINE
  8
0
 10
7.18583
 20
17.7679
 11
7.24626
 21
17.6237
  0
LINE
  8
0
 10
7.24626
 20
17.6237
 11
7.24732
 21
17.6211
  0
LINE
  8
0
 10
7.24732
 20
17.6211
 11
7.3228
 21
17.4918
  0
LINE
  8
0
 10
7.3228
 20
17.4918
 11
7.32376
 21
17.4902
  0
LINE
  8
0
 10
7.32376
 20
17.4902
 11
7.41325
 21
17.3783
  0
LINE
  8
0
 10
7.41325
 20
17.3783
 11
7.51359
 21
17.2884
  0
LINE
  8
0
 10
7.51359
 20
17.2884
 11
7.62203
 21
17.2226
  0
LINE
  8
0
 10
7.62203
 20
17.2226
 11
7.62232
 21
17.2225
  0
LINE
  8
0
 10
7.62232
 20
17.2225
 11
7.73663
 21
17.1823
  0
LINE
  8
0
 10
7.73663
 20
17.1823
 11
7.73676
 21
17.1823
  0
LINE
  8
0
 10
7.73676
 20
17.1823
 11
7.85409
 21
17.1688
  0
LINE
  8
0
 10
7.85409
 20
17.1688
 11
11
 21
17.1688
  0
LINE
  8
0
 10
11
 20
17.1688
 11
11
 21
21.4285
  0
LINE
  8
0
 10
11
 20
21.4285
 11
7.85409
 21
21.4285
  0
LINE
  8
0
 10
7.85409
 20
21.4285
 11
7.80271
 21
21.4243
  0
LINE
  8
0
 10
7.80271
 20
21.4243
 11
7.73676
 21
21.419
  0
LINE
  8
0
 10
7.73676
 20
21.419
 11
7.68794
 21
21.407
  0
LINE
  8
0
 10
7.68794
 20
21.407
 11
7.62232
 21
21.3908
  0
LINE
  8
0
 10
7.62232
 20
21.3908
 11
7.57814
 21
21.372
  0
LINE
  8
0
 10
7.57814
 20
21.372
 11
7.51359
 21
21.3446
  0
LINE
  8
0
 10
7.51359
 20
21.3446
 11
7.47562
 21
21.3207
  0
LINE
  8
0
 10
7.47562
 20
21.3207
 11
7.41325
 21
21.2815
  0
LINE
  8
0
 10
7.41325
 20
21.2815
 11
7.3824
 21
21.2545
  0
LINE
  8
0
 10
7.3824
 20
21.2545
 11
7.32376
 21
21.2031
  0
LINE
  8
0
 10
7.32376
 20
21.2031
 11
7.3003
 21
21.1749
  0
LINE
  8
0
 10
7.3003
 20
21.1749
 11
7.24732
 21
21.1113
  0
LINE
  8
0
 10
7.24732
 20
21.1113
 11
7.23094
 21
21.0839
  0
LINE
  8
0
 10
7.23094
 20
21.0839
 11
7.18583
 21
21.0084
  0
LINE
  8
0
 10
7.18583
 20
21.0084
 11
7.17569
 21
20.9832
  0
LINE
  8
0
 10
7.17569
 20
20.9832
 11
7.14079
 21
20.8968
  0
LINE
  8
0
 10
7.14079
 20
20.8968
 11
7.13573
 21
20.8752
  0
LINE
  8
0
 10
7.13573
 20
20.8752
 11
7.11332
 21
20.7794
  0
LINE
  8
0
 10
7.11332
 20
20.7794
 11
7.11199
 21
20.762
  0
LINE
  8
0
 10
7.11199
 20
20.762
 11
7.10409
 21
20.659
  0
LINE
  8
0
 10
7.10409
 20
20.659
 11
7.10409
 21
18.2661
  0
LINE
  8
0
 10
36.5
 20
0
 11
47.5
 21
0
  0
LINE
  8
0
 10
47.5
 20
0
 11
47.5
 21
3.5
  0
LINE
  8
0
 10
47.5
 20
3.5
 11
47
 21
4
  0
LINE
  8
0
 10
47
 20
4
 11
41.8959
 21
4
  0
LINE
  8
0
 10
41.8959
 20
4
 11
40.3959
 21
5.5
  0
LINE
  8
0
 10
40.3959
 20
5.5
 11
40.3959
 21
12.7677
  0
LINE
  8
0
 10
40.3959
 20
12.7677
 11
40.3922
 21
12.824
  0
LINE
  8
0
 10
40.3922
 20
12.824
 11
40.3867
 21
12.9081
  0
LINE
  8
0
 10
40.3867
 20
12.9081
 11
40.3794
 21
12.9446
  0
LINE
  8
0
 10
40.3794
 20
12.9446
 11
40.3592
 21
13.0451
  0
LINE
  8
0
 10
40.3592
 20
13.0451
 11
40.3536
 21
13.0613
  0
LINE
  8
0
 10
40.3536
 20
13.0613
 11
40.3203
 21
13.1575
  0
LINE
  8
0
 10
40.3203
 20
13.1575
 11
40.3151
 21
13.1746
  0
LINE
  8
0
 10
40.3151
 20
13.1746
 11
40.3142
 21
13.1777
  0
LINE
  8
0
 10
40.3142
 20
13.1777
 11
40.2633
 21
13.291
  0
LINE
  8
0
 10
40.2633
 20
13.291
 11
40.2527
 21
13.3147
  0
LINE
  8
0
 10
40.2527
 20
13.3147
 11
40.2009
 21
13.3975
  0
LINE
  8
0
 10
40.2009
 20
13.3975
 11
40.1762
 21
13.4369
  0
LINE
  8
0
 10
40.1762
 20
13.4369
 11
40.1284
 21
13.4927
  0
LINE
  8
0
 10
40.1284
 20
13.4927
 11
40.0868
 21
13.5412
  0
LINE
  8
0
 10
40.0868
 20
13.5412
 11
40.0462
 21
13.5752
  0
LINE
  8
0
 10
40.0462
 20
13.5752
 11
39.9864
 21
13.6252
  0
LINE
  8
0
 10
39.9864
 20
13.6252
 11
39.9548
 21
13.6431
  0
LINE
  8
0
 10
39.9548
 20
13.6431
 11
39.8777
 21
13.6867
  0
LINE
  8
0
 10
39.8777
 20
13.6867
 11
39.8546
 21
13.6942
  0
LINE
  8
0
 10
39.8546
 20
13.6942
 11
39.7632
 21
13.7242
  0
LINE
  8
0
 10
39.7632
 20
13.7242
 11
39.7462
 21
13.726
  0
LINE
  8
0
 10
39.7462
 20
13.726
 11
39.6459
 21
13.7368
  0
LINE
  8
0
 10
39.6459
 20
13.7368
 11
36.5
 21
13.7368
  0
LINE
  8
0
 10
36.5
 20
13.7368
 11
36.5
 21
0
  0
LINE
  8
0
 10
36.5
 20
17.1688
 11
39.6459
 21
17.1688
  0
LINE
  8
0
 10
39.6459
 20
17.1688
 11
39.7632
 21
17.1823
  0
LINE
  8
0
 10
39.7632
 20
17.1823
 11
39.8774
 21
17.2224
  0
LINE
  8
0
 10
39.8774
 20
17.2224
 11
39.8777
 21
17.2225
  0
LINE
  8
0
 10
39.8777
 20
17.2225
 11
39.9859
 21
17.288
  0
LINE
  8
0
 10
39.9859
 20
17.288
 11
39.9864
 21
17.2884
  0
LINE
  8
0
 10
39.9864
 20
17.2884
 11
40.0868
 21
17.3783
  0
LINE
  8
0
 10
40.0868
 20
17.3783
 11
40.1762
 21
17.4902
  0
LINE
  8
0
 10
40.1762
 20
17.4902
 11
40.2514
 21
17.6189
  0
LINE
  8
0
 10
40.2514
 20
17.6189
 11
40.2527
 21
17.6211
  0
LINE
  8
0
 10
40.2527
 20
17.6211
 11
40.3128
 21
17.7646
  0
LINE
  8
0
 10
40.3128
 20
17.7646
 11
40.3142
 21
17.7679
  0
LINE
  8
0
 10
40.3142
 20
17.7679
 11
40.3579
 21
17.9225
  0
LINE
  8
0
 10
40.3579
 20
17.9225
 11
40.3592
 21
17.927
  0
LINE
  8
0
 10
40.3592
 20
17.927
 11
40.3857
 21
18.0887
  0
LINE
  8
0
 10
40.3857
 20
18.0887
 11
40.3867
 21
18.0945
  0
LINE
  8
0
 10
40.3867
 20
18.0945
 11
40.3955
 21
18.2592
  0
LINE
  8
0
 10
40.3955
 20
18.2592
 11
40.3959
 21
18.2661
  0
LINE
  8
0
 10
40.3959
 20
18.2661
 11
40.3959
 21
20.659
  0
LINE
  8
0
 10
40.3959
 20
20.659
 11
40.3948
 21
20.6739
  0
LINE
  8
0
 10
40.3948
 20
20.6739
 11
40.3867
 21
20.7794
  0
LINE
  8
0
 10
40.3867
 20
20.7794
 11
40.3821
 21
20.7991
  0
LINE
  8
0
 10
40.3821
 20
20.7991
 11
40.3592
 21
20.8968
  0
LINE
  8
0
 10
40.3592
 20
20.8968
 11
40.3496
 21
20.9206
  0
LINE
  8
0
 10
40.3496
 20
20.9206
 11
40.3142
 21
21.0084
  0
LINE
  8
0
 10
40.3142
 20
21.0084
 11
40.2982
 21
21.0351
  0
LINE
  8
0
 10
40.2982
 20
21.0351
 11
40.2527
 21
21.1113
  0
LINE
  8
0
 10
40.2527
 20
21.1113
 11
40.2294
 21
21.1393
  0
LINE
  8
0
 10
40.2294
 20
21.1393
 11
40.1762
 21
21.2031
  0
LINE
  8
0
 10
40.1762
 20
21.2031
 11
40.1453
 21
21.2302
  0
LINE
  8
0
 10
40.1453
 20
21.2302
 11
40.0868
 21
21.2815
  0
LINE
  8
0
 10
40.0868
 20
21.2815
 11
40.0484
 21
21.3056
  0
LINE
  8
0
 10
40.0484
 20
21.3056
 11
39.9864
 21
21.3446
  0
LINE
  8
0
 10
39.9864
 20
21.3446
 11
39.9418
 21
21.3636
  0
LINE
  8
0
 10
39.9418
 20
21.3636
 11
39.8777
 21
21.3908
  0
LINE
  8
0
 10
39.8777
 20
21.3908
 11
39.8285
 21
21.4029
  0
LINE
  8
0
 10
39.8285
 20
21.4029
 11
39.7632
 21
21.419
  0
LINE
  8
0
 10
39.7632
 20
21.419
 11
39.7117
 21
21.4231
  0
LINE
  8
0
 10
39.7117
 20
21.4231
 11
39.6459
 21
21.4285
  0
LINE
  8
0
 10
39.6459
 20
21.4285
 11
36.5
 21
21.4285
  0
LINE
  8
0
 10
36.5
 20
21.4285
 11
36.5
 21
17.1688
  0
LINE
  8
0
 10
36.5
 20
28.1187
 11
39.6459
 21
28.1187
  0
LINE
  8
0
 10
39.6459
 20
28.1187
 11
39.7221
 21
28.1275
  0
LINE
  8
0
 10
39.7221
 20
28.1275
 11
39.7632
 21
28.1323
  0
LINE
  8
0
 10
39.7632
 20
28.1323
 11
39.8373
 21
28.1583
  0
LINE
  8
0
 10
39.8373
 20
28.1583
 11
39.8777
 21
28.1725
  0
LINE
  8
0
 10
39.8777
 20
28.1725
 11
39.9476
 21
28.2148
  0
LINE
  8
0
 10
39.9476
 20
28.2148
 11
39.9864
 21
28.2383
  0
LINE
  8
0
 10
39.9864
 20
28.2383
 11
40.0868
 21
28.3283
  0
LINE
  8
0
 10
40.0868
 20
28.3283
 11
40.1431
 21
28.3987
  0
LINE
  8
0
 10
40.1431
 20
28.3987
 11
40.1762
 21
28.4402
  0
LINE
  8
0
 10
40.1762
 20
28.4402
 11
40.2237
 21
28.5214
  0
LINE
  8
0
 10
40.2237
 20
28.5214
 11
40.2527
 21
28.5711
  0
LINE
  8
0
 10
40.2527
 20
28.5711
 11
40.2902
 21
28.6607
  0
LINE
  8
0
 10
40.2902
 20
28.6607
 11
40.3142
 21
28.7179
  0
LINE
  8
0
 10
40.3142
 20
28.7179
 11
40.3412
 21
28.8132
  0
LINE
  8
0
 10
40.3412
 20
28.8132
 11
40.3592
 21
28.877
  0
LINE
  8
0
 10
40.3592
 20
28.877
 11
40.3753
 21
28.9754
  0
LINE
  8
0
 10
40.3753
 20
28.9754
 11
40.3867
 21
29.0444
  0
LINE
  8
0
 10
40.3867
 20
29.0444
 11
40.392
 21
29.1432
  0
LINE
  8
0
 10
40.392
 20
29.1432
 11
40.3959
 21
29.2161
  0
LINE
  8
0
 10
40.3959
 20
29.2161
 11
40.3959
 21
40
  0
LINE
  8
0
 10
40.3959
 20
40
 11
41.8959
 21
41.5
  0
LINE
  8
0
 10
41.8959
 20
41.5
 11
47
 21
41.5
  0
LINE
  8
0
 10
47
 20
41.5
 11
47.5
 21
42
  0
LINE
  8
0
 10
47.5
 20
42
 11
47.5
 21
45.5
  0
LINE
  8
0
 10
47.5
 20
45.5
 11
36.5
 21
45.5
  0
LINE
  8
0
 10
36.5
 20
45.5
 11
36.5
 21
28.1187
  0
ENDSEC
  0
SECTION
  2
OBJECTS
  0
DICTIONARY
  0
ENDSEC
  0
EOF
