  0
SECTION
  2
BLOCKS
  0
ENDSEC
  0
SECTION
  2
ENTITIES
  0
LINE
  8
0
 10
0
 20
0
 11
11
 21
0
  0
LINE
  8
0
 10
11
 20
0
 11
11
 21
13.9842
  0
LINE
  8
0
 10
11
 20
13.9842
 11
7.85409
 21
13.9842
  0
LINE
  8
0
 10
7.85409
 20
13.9842
 11
7.81137
 21
13.9787
  0
LINE
  8
0
 10
7.81137
 20
13.9787
 11
7.73676
 21
13.969
  0
LINE
  8
0
 10
7.73676
 20
13.969
 11
7.68899
 21
13.9502
  0
LINE
  8
0
 10
7.68899
 20
13.9502
 11
7.62232
 21
13.924
  0
LINE
  8
0
 10
7.62232
 20
13.924
 11
7.56346
 21
13.884
  0
LINE
  8
0
 10
7.56346
 20
13.884
 11
7.51359
 21
13.8501
  0
LINE
  8
0
 10
7.51359
 20
13.8501
 11
7.43949
 21
13.7756
  0
LINE
  8
0
 10
7.43949
 20
13.7756
 11
7.41325
 21
13.7492
  0
LINE
  8
0
 10
7.41325
 20
13.7492
 11
7.32508
 21
13.6257
  0
LINE
  8
0
 10
7.32508
 20
13.6257
 11
7.32376
 21
13.6241
  0
LINE
  8
0
 10
7.32376
 20
13.6241
 11
7.32352
 21
13.6238
  0
LINE
  8
0
 10
7.32352
 20
13.6238
 11
7.24732
 21
13.502
  0
LINE
  8
0
 10
7.24732
 20
13.502
 11
7.23238
 21
13.4687
  0
LINE
  8
0
 10
7.23238
 20
13.4687
 11
7.18583
 21
13.365
  0
LINE
  8
0
 10
7.18583
 20
13.365
 11
7.16332
 21
13.2908
  0
LINE
  8
0
 10
7.16332
 20
13.2908
 11
7.14079
 21
13.2165
  0
LINE
  8
0
 10
7.14079
 20
13.2165
 11
7.11995
 21
13.098
  0
LINE
  8
0
 10
7.11995
 20
13.098
 11
7.11332
 21
13.0603
  0
LINE
  8
0
 10
7.11332
 20
13.0603
 11
7.10436
 21
12.9049
  0
LINE
  8
0
 10
7.10436
 20
12.9049
 11
7.10409
 21
12.9007
  0
LINE
  8
0
 10
7.10409
 20
12.9007
 11
7.10409
 21
5.5
  0
LINE
  8
0
 10
7.10409
 20
5.5
 11
5.60409
 21
4
  0
LINE
  8
0
 10
5.60409
 20
4
 11
0.499999
 21
4
  0
LINE
  8
0
 10
0.499999
 20
4
 11
0
 21
3.5
  0
LINE
  8
0
 10
0
 20
3.5
 11
0
 21
0
  0
LINE
  8
0
 10
0
 20
42
 11
0.499999
 21
41.5
  0
LINE
  8
0
 10
0.499999
 20
41.5
 11
5.60409
 21
41.5
  0
LINE
  8
0
 10
5.60409
 20
41.5
 11
7.10409
 21
40
  0
LINE
  8
0
 10
7.10409
 20
40
 11
7.10409
 21
29.0025
  0
LINE
  8
0
 10
7.10409
 20
29.0025
 11
7.10969
 21
28.8983
  0
LINE
  8
0
 10
7.10969
 20
28.8983
 11
7.11332
 21
28.8308
  0
LINE
  8
0
 10
7.11332
 20
28.8308
 11
7.13033
 21
28.7272
  0
LINE
  8
0
 10
7.13033
 20
28.7272
 11
7.14079
 21
28.6634
  0
LINE
  8
0
 10
7.14079
 20
28.6634
 11
7.16922
 21
28.563
  0
LINE
  8
0
 10
7.16922
 20
28.563
 11
7.18583
 21
28.5043
  0
LINE
  8
0
 10
7.18583
 20
28.5043
 11
7.22533
 21
28.41
  0
LINE
  8
0
 10
7.22533
 20
28.41
 11
7.24732
 21
28.3575
  0
LINE
  8
0
 10
7.24732
 20
28.3575
 11
7.29719
 21
28.272
  0
LINE
  8
0
 10
7.29719
 20
28.272
 11
7.32376
 21
28.2265
  0
LINE
  8
0
 10
7.32376
 20
28.2265
 11
7.38292
 21
28.1526
  0
LINE
  8
0
 10
7.38292
 20
28.1526
 11
7.41325
 21
28.1147
  0
LINE
  8
0
 10
7.41325
 20
28.1147
 11
7.51359
 21
28.0247
  0
LINE
  8
0
 10
7.51359
 20
28.0247
 11
7.58684
 21
27.9803
  0
LINE
  8
0
 10
7.58684
 20
27.9803
 11
7.62232
 21
27.9588
  0
LINE
  8
0
 10
7.62232
 20
27.9588
 11
7.69983
 21
27.9316
  0
LINE
  8
0
 10
7.69983
 20
27.9316
 11
7.73676
 21
27.9186
  0
LINE
  8
0
 10
7.73676
 20
27.9186
 11
7.81641
 21
27.9095
  0
LINE
  8
0
 10
7.81641
 20
27.9095
 11
7.85409
 21
27.9051
  0
LINE
  8
0
 10
7.85409
 20
27.9051
 11
11
 21
27.9051
  0
LINE
  8
0
 10
11
 20
27.9051
 11
11
 21
45.5
  0
LINE
  8
0
 10
11
 20
45.5
 11
0
 21
45.5
  0
LINE
  8
0
 10
0
 20
45.5
 11
0
 21
42
  0
LINE
  8
0
 10
7.10409
 20
18.0525
 11
7.11314
 21
17.8843
  0
LINE
  8
0
 10
7.11314
 20
17.8843
 11
7.11332
 21
17.8808
  0
LINE
  8
0
 10
7.11332
 20
17.8808
 11
7.14041
 21
17.7157
  0
LINE
  8
0
 10
7.14041
 20
17.7157
 11
7.14079
 21
17.7134
  0
LINE
  8
0
 10
7.14079
 20
17.7134
 11
7.18547
 21
17.5556
  0
LINE
  8
0
 10
7.18547
 20
17.5556
 11
7.18583
 21
17.5543
  0
LINE
  8
0
 10
7.18583
 20
17.5543
 11
7.24717
 21
17.4079
  0
LINE
  8
0
 10
7.24717
 20
17.4079
 11
7.24732
 21
17.4075
  0
LINE
  8
0
 10
7.24732
 20
17.4075
 11
7.28847
 21
17.337
  0
LINE
  8
0
 10
7.28847
 20
17.337
 11
7.31723
 21
17.2829
  0
LINE
  8
0
 10
7.31723
 20
17.2829
 11
7.32376
 21
17.2707
  0
LINE
  8
0
 10
7.32376
 20
17.2707
 11
7.39026
 21
17.1795
  0
LINE
  8
0
 10
7.39026
 20
17.1795
 11
7.41325
 21
17.148
  0
LINE
  8
0
 10
7.41325
 20
17.148
 11
7.47203
 21
17.0902
  0
LINE
  8
0
 10
7.47203
 20
17.0902
 11
7.51359
 21
17.0493
  0
LINE
  8
0
 10
7.51359
 20
17.0493
 11
7.56251
 21
17.0168
  0
LINE
  8
0
 10
7.56251
 20
17.0168
 11
7.62232
 21
16.977
  0
LINE
  8
0
 10
7.62232
 20
16.977
 11
7.66169
 21
16.9618
  0
LINE
  8
0
 10
7.66169
 20
16.9618
 11
7.73676
 21
16.9329
  0
LINE
  8
0
 10
7.73676
 20
16.9329
 11
7.76943
 21
16.9288
  0
LINE
  8
0
 10
7.76943
 20
16.9288
 11
7.85409
 21
16.9181
  0
LINE
  8
0
 10
7.85409
 20
16.9181
 11
11
 21
16.9181
  0
LINE
  8
0
 10
11
 20
16.9181
 11
11
 21
21.3835
  0
LINE
  8
0
 10
11
 20
21.3835
 11
7.85409
 21
21.3835
  0
LINE
  8
0
 10
7.85409
 20
21.3835
 11
7.74373
 21
21.3748
  0
LINE
  8
0
 10
7.74373
 20
21.3748
 11
7.73676
 21
21.3743
  0
LINE
  8
0
 10
7.73676
 20
21.3743
 11
7.63022
 21
21.3487
  0
LINE
  8
0
 10
7.63022
 20
21.3487
 11
7.62232
 21
21.3468
  0
LINE
  8
0
 10
7.62232
 20
21.3468
 11
7.52277
 21
21.3056
  0
LINE
  8
0
 10
7.52277
 20
21.3056
 11
7.51359
 21
21.3018
  0
LINE
  8
0
 10
7.51359
 20
21.3018
 11
7.42374
 21
21.2468
  0
LINE
  8
0
 10
7.42374
 20
21.2468
 11
7.41325
 21
21.2404
  0
LINE
  8
0
 10
7.41325
 20
21.2404
 11
7.33524
 21
21.1738
  0
LINE
  8
0
 10
7.33524
 20
21.1738
 11
7.32376
 21
21.164
  0
LINE
  8
0
 10
7.32376
 20
21.164
 11
7.25914
 21
21.0884
  0
LINE
  8
0
 10
7.25914
 20
21.0884
 11
7.24732
 21
21.0746
  0
LINE
  8
0
 10
7.24732
 20
21.0746
 11
7.19703
 21
20.9925
  0
LINE
  8
0
 10
7.19703
 20
20.9925
 11
7.18583
 21
20.9743
  0
LINE
  8
0
 10
7.18583
 20
20.9743
 11
7.15024
 21
20.8884
  0
LINE
  8
0
 10
7.15024
 20
20.8884
 11
7.14079
 21
20.8656
  0
LINE
  8
0
 10
7.14079
 20
20.8656
 11
7.11983
 21
20.7784
  0
LINE
  8
0
 10
7.11983
 20
20.7784
 11
7.11332
 21
20.7513
  0
LINE
  8
0
 10
7.11332
 20
20.7513
 11
7.10651
 21
20.6648
  0
LINE
  8
0
 10
7.10651
 20
20.6648
 11
7.10409
 21
20.634
  0
LINE
  8
0
 10
7.10409
 20
20.634
 11
7.10409
 21
18.0525
  0
LINE
  8
0
 10
36.5
 20
0
 11
47.5
 21
0
  0
LINE
  8
0
 10
47.5
 20
0
 11
47.5
 21
3.5
  0
LINE
  8
0
 10
47.5
 20
3.5
 11
47
 21
4
  0
LINE
  8
0
 10
47
 20
4
 11
41.8959
 21
4
  0
LINE
  8
0
 10
41.8959
 20
4
 11
40.3959
 21
5.5
  0
LINE
  8
0
 10
40.3959
 20
5.5
 11
40.3959
 21
12.9007
  0
LINE
  8
0
 10
40.3959
 20
12.9007
 11
40.3959
 21
12.9013
  0
LINE
  8
0
 10
40.3959
 20
12.9013
 11
40.3956
 21
12.9049
  0
LINE
  8
0
 10
40.3956
 20
12.9049
 11
40.3881
 21
13.036
  0
LINE
  8
0
 10
40.3881
 20
13.036
 11
40.3867
 21
13.0603
  0
LINE
  8
0
 10
40.3867
 20
13.0603
 11
40.3679
 21
13.1672
  0
LINE
  8
0
 10
40.3679
 20
13.1672
 11
40.3592
 21
13.2165
  0
LINE
  8
0
 10
40.3592
 20
13.2165
 11
40.336
 21
13.293
  0
LINE
  8
0
 10
40.336
 20
13.293
 11
40.3142
 21
13.365
  0
LINE
  8
0
 10
40.3142
 20
13.365
 11
40.2931
 21
13.4119
  0
LINE
  8
0
 10
40.2931
 20
13.4119
 11
40.2527
 21
13.502
  0
LINE
  8
0
 10
40.2527
 20
13.502
 11
40.2396
 21
13.5228
  0
LINE
  8
0
 10
40.2396
 20
13.5228
 11
40.1762
 21
13.6241
  0
LINE
  8
0
 10
40.1762
 20
13.6241
 11
40.176
 21
13.6244
  0
LINE
  8
0
 10
40.176
 20
13.6244
 11
40.1749
 21
13.6257
  0
LINE
  8
0
 10
40.1749
 20
13.6257
 11
40.1019
 21
13.728
  0
LINE
  8
0
 10
40.1019
 20
13.728
 11
40.0868
 21
13.7492
  0
LINE
  8
0
 10
40.0868
 20
13.7492
 11
40.0191
 21
13.8172
  0
LINE
  8
0
 10
40.0191
 20
13.8172
 11
39.9864
 21
13.8501
  0
LINE
  8
0
 10
39.9864
 20
13.8501
 11
39.9278
 21
13.8899
  0
LINE
  8
0
 10
39.9278
 20
13.8899
 11
39.8777
 21
13.924
  0
LINE
  8
0
 10
39.8777
 20
13.924
 11
39.8278
 21
13.9436
  0
LINE
  8
0
 10
39.8278
 20
13.9436
 11
39.7632
 21
13.969
  0
LINE
  8
0
 10
39.7632
 20
13.969
 11
39.7194
 21
13.9747
  0
LINE
  8
0
 10
39.7194
 20
13.9747
 11
39.6459
 21
13.9842
  0
LINE
  8
0
 10
39.6459
 20
13.9842
 11
36.5
 21
13.9842
  0
LINE
  8
0
 10
36.5
 20
13.9842
 11
36.5
 21
0
  0
LINE
  8
0
 10
36.5
 20
16.9181
 11
39.6459
 21
16.9181
  0
LINE
  8
0
 10
39.6459
 20
16.9181
 11
39.6769
 21
16.922
  0
LINE
  8
0
 10
39.6769
 20
16.922
 11
39.7632
 21
16.9329
  0
LINE
  8
0
 10
39.7632
 20
16.9329
 11
39.7987
 21
16.9465
  0
LINE
  8
0
 10
39.7987
 20
16.9465
 11
39.8777
 21
16.977
  0
LINE
  8
0
 10
39.8777
 20
16.977
 11
39.9238
 21
17.0076
  0
LINE
  8
0
 10
39.9238
 20
17.0076
 11
39.9864
 21
17.0493
  0
LINE
  8
0
 10
39.9864
 20
17.0493
 11
40.0475
 21
17.1094
  0
LINE
  8
0
 10
40.0475
 20
17.1094
 11
40.0868
 21
17.148
  0
LINE
  8
0
 10
40.0868
 20
17.148
 11
40.1637
 21
17.2535
  0
LINE
  8
0
 10
40.1637
 20
17.2535
 11
40.1762
 21
17.2707
  0
LINE
  8
0
 10
40.1762
 20
17.2707
 11
40.2115
 21
17.337
  0
LINE
  8
0
 10
40.2115
 20
17.337
 11
40.2525
 21
17.4072
  0
LINE
  8
0
 10
40.2525
 20
17.4072
 11
40.2527
 21
17.4075
  0
LINE
  8
0
 10
40.2527
 20
17.4075
 11
40.3137
 21
17.5532
  0
LINE
  8
0
 10
40.3137
 20
17.5532
 11
40.3142
 21
17.5543
  0
LINE
  8
0
 10
40.3142
 20
17.5543
 11
40.3586
 21
17.7112
  0
LINE
  8
0
 10
40.3586
 20
17.7112
 11
40.3592
 21
17.7134
  0
LINE
  8
0
 10
40.3592
 20
17.7134
 11
40.3861
 21
17.8775
  0
LINE
  8
0
 10
40.3861
 20
17.8775
 11
40.3867
 21
17.8808
  0
LINE
  8
0
 10
40.3867
 20
17.8808
 11
40.3957
 21
18.0481
  0
LINE
  8
0
 10
40.3957
 20
18.0481
 11
40.3959
 21
18.0525
  0
LINE
  8
0
 10
40.3959
 20
18.0525
 11
40.3959
 21
20.634
  0
LINE
  8
0
 10
40.3959
 20
20.634
 11
40.3889
 21
20.7236
  0
LINE
  8
0
 10
40.3889
 20
20.7236
 11
40.3867
 21
20.7513
  0
LINE
  8
0
 10
40.3867
 20
20.7513
 11
40.3649
 21
20.8417
  0
LINE
  8
0
 10
40.3649
 20
20.8417
 11
40.3592
 21
20.8656
  0
LINE
  8
0
 10
40.3592
 20
20.8656
 11
40.3223
 21
20.9546
  0
LINE
  8
0
 10
40.3223
 20
20.9546
 11
40.3142
 21
20.9743
  0
LINE
  8
0
 10
40.3142
 20
20.9743
 11
40.2621
 21
21.0591
  0
LINE
  8
0
 10
40.2621
 20
21.0591
 11
40.2527
 21
21.0746
  0
LINE
  8
0
 10
40.2527
 20
21.0746
 11
40.186
 21
21.1526
  0
LINE
  8
0
 10
40.186
 20
21.1526
 11
40.1762
 21
21.164
  0
LINE
  8
0
 10
40.1762
 20
21.164
 11
40.0961
 21
21.2324
  0
LINE
  8
0
 10
40.0961
 20
21.2324
 11
40.0868
 21
21.2404
  0
LINE
  8
0
 10
40.0868
 20
21.2404
 11
39.9949
 21
21.2967
  0
LINE
  8
0
 10
39.9949
 20
21.2967
 11
39.9864
 21
21.3018
  0
LINE
  8
0
 10
39.9864
 20
21.3018
 11
39.8852
 21
21.3437
  0
LINE
  8
0
 10
39.8852
 20
21.3437
 11
39.8777
 21
21.3468
  0
LINE
  8
0
 10
39.8777
 20
21.3468
 11
39.77
 21
21.3727
  0
LINE
  8
0
 10
39.77
 20
21.3727
 11
39.7632
 21
21.3743
  0
LINE
  8
0
 10
39.7632
 20
21.3743
 11
39.6525
 21
21.383
  0
LINE
  8
0
 10
39.6525
 20
21.383
 11
39.6459
 21
21.3835
  0
LINE
  8
0
 10
39.6459
 20
21.3835
 11
36.5
 21
21.3835
  0
LINE
  8
0
 10
36.5
 20
21.3835
 11
36.5
 21
16.9181
  0
LINE
  8
0
 10
36.5
 20
27.9051
 11
39.6459
 21
27.9051
  0
LINE
  8
0
 10
39.6459
 20
27.9051
 11
39.7255
 21
27.9143
  0
LINE
  8
0
 10
39.7255
 20
27.9143
 11
39.7632
 21
27.9186
  0
LINE
  8
0
 10
39.7632
 20
27.9186
 11
39.8406
 21
27.9458
  0
LINE
  8
0
 10
39.8406
 20
27.9458
 11
39.8777
 21
27.9588
  0
LINE
  8
0
 10
39.8777
 20
27.9588
 11
39.9507
 21
28.0031
  0
LINE
  8
0
 10
39.9507
 20
28.0031
 11
39.9864
 21
28.0247
  0
LINE
  8
0
 10
39.9864
 20
28.0247
 11
40.0868
 21
28.1147
  0
LINE
  8
0
 10
40.0868
 20
28.1147
 11
40.1457
 21
28.1883
  0
LINE
  8
0
 10
40.1457
 20
28.1883
 11
40.1762
 21
28.2265
  0
LINE
  8
0
 10
40.1762
 20
28.2265
 11
40.2259
 21
28.3116
  0
LINE
  8
0
 10
40.2259
 20
28.3116
 11
40.2527
 21
28.3575
  0
LINE
  8
0
 10
40.2527
 20
28.3575
 11
40.292
 21
28.4513
  0
LINE
  8
0
 10
40.292
 20
28.4513
 11
40.3142
 21
28.5043
  0
LINE
  8
0
 10
40.3142
 20
28.5043
 11
40.3425
 21
28.6042
  0
LINE
  8
0
 10
40.3425
 20
28.6042
 11
40.3592
 21
28.6634
  0
LINE
  8
0
 10
40.3592
 20
28.6634
 11
40.3761
 21
28.7666
  0
LINE
  8
0
 10
40.3761
 20
28.7666
 11
40.3867
 21
28.8308
  0
LINE
  8
0
 10
40.3867
 20
28.8308
 11
40.3923
 21
28.9345
  0
LINE
  8
0
 10
40.3923
 20
28.9345
 11
40.3959
 21
29.0025
  0
LINE
  8
0
 10
40.3959
 20
29.0025
 11
40.3959
 21
40
  0
LINE
  8
0
 10
40.3959
 20
40
 11
41.8959
 21
41.5
  0
LINE
  8
0
 10
41.8959
 20
41.5
 11
47
 21
41.5
  0
LINE
  8
0
 10
47
 20
41.5
 11
47.5
 21
42
  0
LINE
  8
0
 10
47.5
 20
42
 11
47.5
 21
45.5
  0
LINE
  8
0
 10
47.5
 20
45.5
 11
36.5
 21
45.5
  0
LINE
  8
0
 10
36.5
 20
45.5
 11
36.5
 21
27.9051
  0
ENDSEC
  0
SECTION
  2
OBJECTS
  0
DICTIONARY
  0
ENDSEC
  0
EOF
