  0
SECTION
  2
BLOCKS
  0
ENDSEC
  0
SECTION
  2
ENTITIES
  0
LINE
  8
0
 10
0
 20
0
 11
11
 21
0
  0
LINE
  8
0
 10
11
 20
0
 11
11
 21
14.3099
  0
LINE
  8
0
 10
11
 20
14.3099
 11
7.85409
 21
14.3099
  0
LINE
  8
0
 10
7.85409
 20
14.3099
 11
7.80209
 21
14.3012
  0
LINE
  8
0
 10
7.80209
 20
14.3012
 11
7.73676
 21
14.2903
  0
LINE
  8
0
 10
7.73676
 20
14.2903
 11
7.67603
 21
14.2593
  0
LINE
  8
0
 10
7.67603
 20
14.2593
 11
7.62232
 21
14.2318
  0
LINE
  8
0
 10
7.62232
 20
14.2318
 11
7.54267
 21
14.1617
  0
LINE
  8
0
 10
7.54267
 20
14.1617
 11
7.51359
 21
14.136
  0
LINE
  8
0
 10
7.51359
 20
14.136
 11
7.43147
 21
14.029
  0
LINE
  8
0
 10
7.43147
 20
14.029
 11
7.41325
 21
14.0107
  0
LINE
  8
0
 10
7.41325
 20
14.0107
 11
7.40922
 21
14.005
  0
LINE
  8
0
 10
7.40922
 20
14.005
 11
7.32376
 21
13.8853
  0
LINE
  8
0
 10
7.32376
 20
13.8853
 11
7.29647
 21
13.8329
  0
LINE
  8
0
 10
7.29647
 20
13.8329
 11
7.24732
 21
13.7385
  0
LINE
  8
0
 10
7.24732
 20
13.7385
 11
7.20315
 21
13.6203
  0
LINE
  8
0
 10
7.20315
 20
13.6203
 11
7.18583
 21
13.5739
  0
LINE
  8
0
 10
7.18583
 20
13.5739
 11
7.15319
 21
13.4447
  0
LINE
  8
0
 10
7.15319
 20
13.4447
 11
7.14079
 21
13.4038
  0
LINE
  8
0
 10
7.14079
 20
13.4038
 11
7.13871
 21
13.392
  0
LINE
  8
0
 10
7.13871
 20
13.392
 11
7.11332
 21
13.2476
  0
LINE
  8
0
 10
7.11332
 20
13.2476
 11
7.11008
 21
13.1913
  0
LINE
  8
0
 10
7.11008
 20
13.1913
 11
7.10409
 21
13.0874
  0
LINE
  8
0
 10
7.10409
 20
13.0874
 11
7.10409
 21
5.5
  0
LINE
  8
0
 10
7.10409
 20
5.5
 11
5.60409
 21
4
  0
LINE
  8
0
 10
5.60409
 20
4
 11
0.499999
 21
4
  0
LINE
  8
0
 10
0.499999
 20
4
 11
0
 21
3.5
  0
LINE
  8
0
 10
0
 20
3.5
 11
0
 21
0
  0
LINE
  8
0
 10
0
 20
42
 11
0.499999
 21
41.5
  0
LINE
  8
0
 10
0.499999
 20
41.5
 11
5.60409
 21
41.5
  0
LINE
  8
0
 10
5.60409
 20
41.5
 11
7.10409
 21
40
  0
LINE
  8
0
 10
7.10409
 20
40
 11
7.10409
 21
28.7889
  0
LINE
  8
0
 10
7.10409
 20
28.7889
 11
7.10996
 21
28.6796
  0
LINE
  8
0
 10
7.10996
 20
28.6796
 11
7.11332
 21
28.6172
  0
LINE
  8
0
 10
7.11332
 20
28.6172
 11
7.13115
 21
28.5086
  0
LINE
  8
0
 10
7.13115
 20
28.5086
 11
7.14079
 21
28.4498
  0
LINE
  8
0
 10
7.14079
 20
28.4498
 11
7.17055
 21
28.3446
  0
LINE
  8
0
 10
7.17055
 20
28.3446
 11
7.18583
 21
28.2907
  0
LINE
  8
0
 10
7.18583
 20
28.2907
 11
7.22715
 21
28.192
  0
LINE
  8
0
 10
7.22715
 20
28.192
 11
7.24732
 21
28.1439
  0
LINE
  8
0
 10
7.24732
 20
28.1439
 11
7.29945
 21
28.0546
  0
LINE
  8
0
 10
7.29945
 20
28.0546
 11
7.32376
 21
28.0129
  0
LINE
  8
0
 10
7.32376
 20
28.0129
 11
7.38556
 21
27.9357
  0
LINE
  8
0
 10
7.38556
 20
27.9357
 11
7.41325
 21
27.9011
  0
LINE
  8
0
 10
7.41325
 20
27.9011
 11
7.51359
 21
27.8111
  0
LINE
  8
0
 10
7.51359
 20
27.8111
 11
7.59004
 21
27.7648
  0
LINE
  8
0
 10
7.59004
 20
27.7648
 11
7.62232
 21
27.7452
  0
LINE
  8
0
 10
7.62232
 20
27.7452
 11
7.70318
 21
27.7168
  0
LINE
  8
0
 10
7.70318
 20
27.7168
 11
7.73676
 21
27.705
  0
LINE
  8
0
 10
7.73676
 20
27.705
 11
7.81985
 21
27.6954
  0
LINE
  8
0
 10
7.81985
 20
27.6954
 11
7.85409
 21
27.6915
  0
LINE
  8
0
 10
7.85409
 20
27.6915
 11
11
 21
27.6915
  0
LINE
  8
0
 10
11
 20
27.6915
 11
11
 21
45.5
  0
LINE
  8
0
 10
11
 20
45.5
 11
0
 21
45.5
  0
LINE
  8
0
 10
0
 20
45.5
 11
0
 21
42
  0
LINE
  8
0
 10
7.10409
 20
17.8389
 11
7.11327
 21
17.6681
  0
LINE
  8
0
 10
7.11327
 20
17.6681
 11
7.11332
 21
17.6672
  0
LINE
  8
0
 10
7.11332
 20
17.6672
 11
7.13678
 21
17.5242
  0
LINE
  8
0
 10
7.13678
 20
17.5242
 11
7.13997
 21
17.5029
  0
LINE
  8
0
 10
7.13997
 20
17.5029
 11
7.14079
 21
17.4974
  0
LINE
  8
0
 10
7.14079
 20
17.4974
 11
7.17522
 21
17.364
  0
LINE
  8
0
 10
7.17522
 20
17.364
 11
7.18583
 21
17.3229
  0
LINE
  8
0
 10
7.18583
 20
17.3229
 11
7.22005
 21
17.2332
  0
LINE
  8
0
 10
7.22005
 20
17.2332
 11
7.24732
 21
17.1618
  0
LINE
  8
0
 10
7.24732
 20
17.1618
 11
7.27397
 21
17.1117
  0
LINE
  8
0
 10
7.27397
 20
17.1117
 11
7.32376
 21
17.0181
  0
LINE
  8
0
 10
7.32376
 20
17.0181
 11
7.33678
 21
17.0003
  0
LINE
  8
0
 10
7.33678
 20
17.0003
 11
7.39225
 21
16.9242
  0
LINE
  8
0
 10
7.39225
 20
16.9242
 11
7.40849
 21
16.8956
  0
LINE
  8
0
 10
7.40849
 20
16.8956
 11
7.41325
 21
16.8873
  0
LINE
  8
0
 10
7.41325
 20
16.8873
 11
7.48829
 21
16.7924
  0
LINE
  8
0
 10
7.48829
 20
16.7924
 11
7.51359
 21
16.7605
  0
LINE
  8
0
 10
7.51359
 20
16.7605
 11
7.57607
 21
16.7071
  0
LINE
  8
0
 10
7.57607
 20
16.7071
 11
7.62232
 21
16.6676
  0
LINE
  8
0
 10
7.62232
 20
16.6676
 11
7.67253
 21
16.6427
  0
LINE
  8
0
 10
7.67253
 20
16.6427
 11
7.73676
 21
16.6109
  0
LINE
  8
0
 10
7.73676
 20
16.6109
 11
7.7784
 21
16.6042
  0
LINE
  8
0
 10
7.7784
 20
16.6042
 11
7.85409
 21
16.5919
  0
LINE
  8
0
 10
7.85409
 20
16.5919
 11
11
 21
16.5919
  0
LINE
  8
0
 10
11
 20
16.5919
 11
11
 21
21.3686
  0
LINE
  8
0
 10
11
 20
21.3686
 11
7.85409
 21
21.3686
  0
LINE
  8
0
 10
7.85409
 20
21.3686
 11
7.80051
 21
21.3644
  0
LINE
  8
0
 10
7.80051
 20
21.3644
 11
7.73676
 21
21.3594
  0
LINE
  8
0
 10
7.73676
 20
21.3594
 11
7.68503
 21
21.347
  0
LINE
  8
0
 10
7.68503
 20
21.347
 11
7.62232
 21
21.332
  0
LINE
  8
0
 10
7.62232
 20
21.332
 11
7.57396
 21
21.3119
  0
LINE
  8
0
 10
7.57396
 20
21.3119
 11
7.51359
 21
21.287
  0
LINE
  8
0
 10
7.51359
 20
21.287
 11
7.4699
 21
21.2602
  0
LINE
  8
0
 10
7.4699
 20
21.2602
 11
7.41325
 21
21.2255
  0
LINE
  8
0
 10
7.41325
 20
21.2255
 11
7.37526
 21
21.1931
  0
LINE
  8
0
 10
7.37526
 20
21.1931
 11
7.32376
 21
21.1491
  0
LINE
  8
0
 10
7.32376
 20
21.1491
 11
7.29223
 21
21.1122
  0
LINE
  8
0
 10
7.29223
 20
21.1122
 11
7.24732
 21
21.0597
  0
LINE
  8
0
 10
7.24732
 20
21.0597
 11
7.22274
 21
21.0196
  0
LINE
  8
0
 10
7.22274
 20
21.0196
 11
7.18583
 21
20.9594
  0
LINE
  8
0
 10
7.18583
 20
20.9594
 11
7.16839
 21
20.9173
  0
LINE
  8
0
 10
7.16839
 20
20.9173
 11
7.14079
 21
20.8508
  0
LINE
  8
0
 10
7.14079
 20
20.8508
 11
7.1305
 21
20.8079
  0
LINE
  8
0
 10
7.1305
 20
20.8079
 11
7.11332
 21
20.7364
  0
LINE
  8
0
 10
7.11332
 20
20.7364
 11
7.10997
 21
20.6938
  0
LINE
  8
0
 10
7.10997
 20
20.6938
 11
7.10409
 21
20.6191
  0
LINE
  8
0
 10
7.10409
 20
20.6191
 11
7.10409
 21
17.8389
  0
LINE
  8
0
 10
36.5
 20
0
 11
47.5
 21
0
  0
LINE
  8
0
 10
47.5
 20
0
 11
47.5
 21
3.5
  0
LINE
  8
0
 10
47.5
 20
3.5
 11
47
 21
4
  0
LINE
  8
0
 10
47
 20
4
 11
41.8959
 21
4
  0
LINE
  8
0
 10
41.8959
 20
4
 11
40.3959
 21
5.5
  0
LINE
  8
0
 10
40.3959
 20
5.5
 11
40.3959
 21
13.0874
  0
LINE
  8
0
 10
40.3959
 20
13.0874
 11
40.3921
 21
13.1543
  0
LINE
  8
0
 10
40.3921
 20
13.1543
 11
40.3867
 21
13.2476
  0
LINE
  8
0
 10
40.3867
 20
13.2476
 11
40.3801
 21
13.2848
  0
LINE
  8
0
 10
40.3801
 20
13.2848
 11
40.3592
 21
13.4038
  0
LINE
  8
0
 10
40.3592
 20
13.4038
 11
40.3569
 21
13.4114
  0
LINE
  8
0
 10
40.3569
 20
13.4114
 11
40.3468
 21
13.4447
  0
LINE
  8
0
 10
40.3468
 20
13.4447
 11
40.321
 21
13.5467
  0
LINE
  8
0
 10
40.321
 20
13.5467
 11
40.3142
 21
13.5739
  0
LINE
  8
0
 10
40.3142
 20
13.5739
 11
40.275
 21
13.6788
  0
LINE
  8
0
 10
40.275
 20
13.6788
 11
40.2527
 21
13.7385
  0
LINE
  8
0
 10
40.2527
 20
13.7385
 11
40.22
 21
13.8013
  0
LINE
  8
0
 10
40.22
 20
13.8013
 11
40.1762
 21
13.8853
  0
LINE
  8
0
 10
40.1762
 20
13.8853
 11
40.1562
 21
13.9134
  0
LINE
  8
0
 10
40.1562
 20
13.9134
 11
40.0868
 21
14.0107
  0
LINE
  8
0
 10
40.0868
 20
14.0107
 11
40.0837
 21
14.0137
  0
LINE
  8
0
 10
40.0837
 20
14.0137
 11
40.0685
 21
14.029
  0
LINE
  8
0
 10
40.0685
 20
14.029
 11
40.003
 21
14.1144
  0
LINE
  8
0
 10
40.003
 20
14.1144
 11
39.9864
 21
14.136
  0
LINE
  8
0
 10
39.9864
 20
14.136
 11
39.9144
 21
14.1995
  0
LINE
  8
0
 10
39.9144
 20
14.1995
 11
39.8777
 21
14.2318
  0
LINE
  8
0
 10
39.8777
 20
14.2318
 11
39.8172
 21
14.2627
  0
LINE
  8
0
 10
39.8172
 20
14.2627
 11
39.7632
 21
14.2903
  0
LINE
  8
0
 10
39.7632
 20
14.2903
 11
39.7105
 21
14.2991
  0
LINE
  8
0
 10
39.7105
 20
14.2991
 11
39.6459
 21
14.3099
  0
LINE
  8
0
 10
39.6459
 20
14.3099
 11
36.5
 21
14.3099
  0
LINE
  8
0
 10
36.5
 20
14.3099
 11
36.5
 21
0
  0
LINE
  8
0
 10
36.5
 20
16.5919
 11
39.6459
 21
16.5919
  0
LINE
  8
0
 10
39.6459
 20
16.5919
 11
39.6859
 21
16.5984
  0
LINE
  8
0
 10
39.6859
 20
16.5984
 11
39.7632
 21
16.6109
  0
LINE
  8
0
 10
39.7632
 20
16.6109
 11
39.8108
 21
16.6345
  0
LINE
  8
0
 10
39.8108
 20
16.6345
 11
39.8777
 21
16.6676
  0
LINE
  8
0
 10
39.8777
 20
16.6676
 11
39.9428
 21
16.7232
  0
LINE
  8
0
 10
39.9428
 20
16.7232
 11
39.9864
 21
16.7605
  0
LINE
  8
0
 10
39.9864
 20
16.7605
 11
40.0771
 21
16.875
  0
LINE
  8
0
 10
40.0771
 20
16.875
 11
40.0868
 21
16.8873
  0
LINE
  8
0
 10
40.0868
 20
16.8873
 11
40.1077
 21
16.9242
  0
LINE
  8
0
 10
40.1077
 20
16.9242
 11
40.1762
 21
17.0181
  0
LINE
  8
0
 10
40.1762
 20
17.0181
 11
40.1937
 21
17.0509
  0
LINE
  8
0
 10
40.1937
 20
17.0509
 11
40.2527
 21
17.1618
  0
LINE
  8
0
 10
40.2527
 20
17.1618
 11
40.2879
 21
17.2542
  0
LINE
  8
0
 10
40.2879
 20
17.2542
 11
40.3142
 21
17.3229
  0
LINE
  8
0
 10
40.3142
 20
17.3229
 11
40.3567
 21
17.4877
  0
LINE
  8
0
 10
40.3567
 20
17.4877
 11
40.3592
 21
17.4974
  0
LINE
  8
0
 10
40.3592
 20
17.4974
 11
40.3632
 21
17.5242
  0
LINE
  8
0
 10
40.3632
 20
17.5242
 11
40.3865
 21
17.6664
  0
LINE
  8
0
 10
40.3865
 20
17.6664
 11
40.3867
 21
17.6672
  0
LINE
  8
0
 10
40.3867
 20
17.6672
 11
40.3958
 21
17.8369
  0
LINE
  8
0
 10
40.3958
 20
17.8369
 11
40.3959
 21
17.8389
  0
LINE
  8
0
 10
40.3959
 20
17.8389
 11
40.3959
 21
20.6191
  0
LINE
  8
0
 10
40.3959
 20
20.6191
 11
40.3924
 21
20.6634
  0
LINE
  8
0
 10
40.3924
 20
20.6634
 11
40.3867
 21
20.7364
  0
LINE
  8
0
 10
40.3867
 20
20.7364
 11
40.376
 21
20.7809
  0
LINE
  8
0
 10
40.376
 20
20.7809
 11
40.3592
 21
20.8508
  0
LINE
  8
0
 10
40.3592
 20
20.8508
 11
40.3411
 21
20.8944
  0
LINE
  8
0
 10
40.3411
 20
20.8944
 11
40.3142
 21
20.9594
  0
LINE
  8
0
 10
40.3142
 20
20.9594
 11
40.2887
 21
21.001
  0
LINE
  8
0
 10
40.2887
 20
21.001
 11
40.2527
 21
21.0597
  0
LINE
  8
0
 10
40.2527
 20
21.0597
 11
40.2201
 21
21.0978
  0
LINE
  8
0
 10
40.2201
 20
21.0978
 11
40.1762
 21
21.1491
  0
LINE
  8
0
 10
40.1762
 20
21.1491
 11
40.1371
 21
21.1825
  0
LINE
  8
0
 10
40.1371
 20
21.1825
 11
40.0868
 21
21.2255
  0
LINE
  8
0
 10
40.0868
 20
21.2255
 11
40.042
 21
21.2529
  0
LINE
  8
0
 10
40.042
 20
21.2529
 11
39.9864
 21
21.287
  0
LINE
  8
0
 10
39.9864
 20
21.287
 11
39.9372
 21
21.3073
  0
LINE
  8
0
 10
39.9372
 20
21.3073
 11
39.8777
 21
21.332
  0
LINE
  8
0
 10
39.8777
 20
21.332
 11
39.8254
 21
21.3445
  0
LINE
  8
0
 10
39.8254
 20
21.3445
 11
39.7632
 21
21.3594
  0
LINE
  8
0
 10
39.7632
 20
21.3594
 11
39.7095
 21
21.3636
  0
LINE
  8
0
 10
39.7095
 20
21.3636
 11
39.6459
 21
21.3686
  0
LINE
  8
0
 10
39.6459
 20
21.3686
 11
36.5
 21
21.3686
  0
LINE
  8
0
 10
36.5
 20
21.3686
 11
36.5
 21
16.5919
  0
LINE
  8
0
 10
36.5
 20
27.6915
 11
39.6459
 21
27.6915
  0
LINE
  8
0
 10
39.6459
 20
27.6915
 11
39.7289
 21
27.7011
  0
LINE
  8
0
 10
39.7289
 20
27.7011
 11
39.7632
 21
27.705
  0
LINE
  8
0
 10
39.7632
 20
27.705
 11
39.844
 21
27.7334
  0
LINE
  8
0
 10
39.844
 20
27.7334
 11
39.8777
 21
27.7452
  0
LINE
  8
0
 10
39.8777
 20
27.7452
 11
39.9539
 21
27.7914
  0
LINE
  8
0
 10
39.9539
 20
27.7914
 11
39.9864
 21
27.8111
  0
LINE
  8
0
 10
39.9864
 20
27.8111
 11
40.0868
 21
27.9011
  0
LINE
  8
0
 10
40.0868
 20
27.9011
 11
40.1483
 21
27.978
  0
LINE
  8
0
 10
40.1483
 20
27.978
 11
40.1762
 21
28.0129
  0
LINE
  8
0
 10
40.1762
 20
28.0129
 11
40.2281
 21
28.1018
  0
LINE
  8
0
 10
40.2281
 20
28.1018
 11
40.2527
 21
28.1439
  0
LINE
  8
0
 10
40.2527
 20
28.1439
 11
40.2938
 21
28.242
  0
LINE
  8
0
 10
40.2938
 20
28.242
 11
40.3142
 21
28.2907
  0
LINE
  8
0
 10
40.3142
 20
28.2907
 11
40.3438
 21
28.3952
  0
LINE
  8
0
 10
40.3438
 20
28.3952
 11
40.3592
 21
28.4498
  0
LINE
  8
0
 10
40.3592
 20
28.4498
 11
40.3769
 21
28.5578
  0
LINE
  8
0
 10
40.3769
 20
28.5578
 11
40.3867
 21
28.6172
  0
LINE
  8
0
 10
40.3867
 20
28.6172
 11
40.3925
 21
28.7259
  0
LINE
  8
0
 10
40.3925
 20
28.7259
 11
40.3959
 21
28.7889
  0
LINE
  8
0
 10
40.3959
 20
28.7889
 11
40.3959
 21
40
  0
LINE
  8
0
 10
40.3959
 20
40
 11
41.8959
 21
41.5
  0
LINE
  8
0
 10
41.8959
 20
41.5
 11
47
 21
41.5
  0
LINE
  8
0
 10
47
 20
41.5
 11
47.5
 21
42
  0
LINE
  8
0
 10
47.5
 20
42
 11
47.5
 21
45.5
  0
LINE
  8
0
 10
47.5
 20
45.5
 11
36.5
 21
45.5
  0
LINE
  8
0
 10
36.5
 20
45.5
 11
36.5
 21
27.6915
  0
ENDSEC
  0
SECTION
  2
OBJECTS
  0
DICTIONARY
  0
ENDSEC
  0
EOF
