  0
SECTION
  2
BLOCKS
  0
ENDSEC
  0
SECTION
  2
ENTITIES
  0
LINE
  8
0
 10
0
 20
0
 11
11
 21
0
  0
LINE
  8
0
 10
11
 20
0
 11
11
 21
14.8176
  0
LINE
  8
0
 10
11
 20
14.8176
 11
7.85409
 21
14.8176
  0
LINE
  8
0
 10
7.85409
 20
14.8176
 11
7.84155
 21
14.8145
  0
LINE
  8
0
 10
7.84155
 20
14.8145
 11
7.73676
 21
14.7885
  0
LINE
  8
0
 10
7.73676
 20
14.7885
 11
7.71298
 21
14.7706
  0
LINE
  8
0
 10
7.71298
 20
14.7706
 11
7.62232
 21
14.7021
  0
LINE
  8
0
 10
7.62232
 20
14.7021
 11
7.5643
 21
14.6265
  0
LINE
  8
0
 10
7.5643
 20
14.6265
 11
7.51359
 21
14.5604
  0
LINE
  8
0
 10
7.51359
 20
14.5604
 11
7.438
 21
14.4146
  0
LINE
  8
0
 10
7.438
 20
14.4146
 11
7.41325
 21
14.3824
  0
LINE
  8
0
 10
7.41325
 20
14.3824
 11
7.40435
 21
14.3662
  0
LINE
  8
0
 10
7.40435
 20
14.3662
 11
7.32376
 21
14.2198
  0
LINE
  8
0
 10
7.32376
 20
14.2198
 11
7.27614
 21
14.1012
  0
LINE
  8
0
 10
7.27614
 20
14.1012
 11
7.24732
 21
14.0294
  0
LINE
  8
0
 10
7.24732
 20
14.0294
 11
7.21024
 21
13.9007
  0
LINE
  8
0
 10
7.21024
 20
13.9007
 11
7.18583
 21
13.8354
  0
LINE
  8
0
 10
7.18583
 20
13.8354
 11
7.17869
 21
13.8071
  0
LINE
  8
0
 10
7.17869
 20
13.8071
 11
7.14079
 21
13.657
  0
LINE
  8
0
 10
7.14079
 20
13.657
 11
7.12504
 21
13.5494
  0
LINE
  8
0
 10
7.12504
 20
13.5494
 11
7.11332
 21
13.4693
  0
LINE
  8
0
 10
7.11332
 20
13.4693
 11
7.10433
 21
13.2819
  0
LINE
  8
0
 10
7.10433
 20
13.2819
 11
7.10409
 21
13.2769
  0
LINE
  8
0
 10
7.10409
 20
13.2769
 11
7.10409
 21
5.5
  0
LINE
  8
0
 10
7.10409
 20
5.5
 11
5.60409
 21
4
  0
LINE
  8
0
 10
5.60409
 20
4
 11
0.499999
 21
4
  0
LINE
  8
0
 10
0.499999
 20
4
 11
0
 21
3.5
  0
LINE
  8
0
 10
0
 20
3.5
 11
0
 21
0
  0
LINE
  8
0
 10
0
 20
42
 11
0.499999
 21
41.5
  0
LINE
  8
0
 10
0.499999
 20
41.5
 11
5.60409
 21
41.5
  0
LINE
  8
0
 10
5.60409
 20
41.5
 11
7.10409
 21
40
  0
LINE
  8
0
 10
7.10409
 20
40
 11
7.10409
 21
28.5753
  0
LINE
  8
0
 10
7.10409
 20
28.5753
 11
7.11024
 21
28.4609
  0
LINE
  8
0
 10
7.11024
 20
28.4609
 11
7.11332
 21
28.4036
  0
LINE
  8
0
 10
7.11332
 20
28.4036
 11
7.13196
 21
28.29
  0
LINE
  8
0
 10
7.13196
 20
28.29
 11
7.14079
 21
28.2361
  0
LINE
  8
0
 10
7.14079
 20
28.2361
 11
7.17189
 21
28.1263
  0
LINE
  8
0
 10
7.17189
 20
28.1263
 11
7.18583
 21
28.0771
  0
LINE
  8
0
 10
7.18583
 20
28.0771
 11
7.22897
 21
27.9741
  0
LINE
  8
0
 10
7.22897
 20
27.9741
 11
7.24732
 21
27.9302
  0
LINE
  8
0
 10
7.24732
 20
27.9302
 11
7.3017
 21
27.8371
  0
LINE
  8
0
 10
7.3017
 20
27.8371
 11
7.32376
 21
27.7993
  0
LINE
  8
0
 10
7.32376
 20
27.7993
 11
7.3882
 21
27.7188
  0
LINE
  8
0
 10
7.3882
 20
27.7188
 11
7.41325
 21
27.6875
  0
LINE
  8
0
 10
7.41325
 20
27.6875
 11
7.51359
 21
27.5975
  0
LINE
  8
0
 10
7.51359
 20
27.5975
 11
7.59324
 21
27.5492
  0
LINE
  8
0
 10
7.59324
 20
27.5492
 11
7.62232
 21
27.5316
  0
LINE
  8
0
 10
7.62232
 20
27.5316
 11
7.70654
 21
27.502
  0
LINE
  8
0
 10
7.70654
 20
27.502
 11
7.73676
 21
27.4914
  0
LINE
  8
0
 10
7.73676
 20
27.4914
 11
7.82328
 21
27.4814
  0
LINE
  8
0
 10
7.82328
 20
27.4814
 11
7.85409
 21
27.4779
  0
LINE
  8
0
 10
7.85409
 20
27.4779
 11
11
 21
27.4779
  0
LINE
  8
0
 10
11
 20
27.4779
 11
11
 21
45.5
  0
LINE
  8
0
 10
11
 20
45.5
 11
0
 21
45.5
  0
LINE
  8
0
 10
0
 20
45.5
 11
0
 21
42
  0
LINE
  8
0
 10
7.10409
 20
17.6169
 11
7.11048
 21
17.4864
  0
LINE
  8
0
 10
7.11048
 20
17.4864
 11
7.11332
 21
17.4286
  0
LINE
  8
0
 10
7.11332
 20
17.4286
 11
7.12639
 21
17.3412
  0
LINE
  8
0
 10
7.12639
 20
17.3412
 11
7.14079
 21
17.2449
  0
LINE
  8
0
 10
7.14079
 20
17.2449
 11
7.15206
 21
17.2012
  0
LINE
  8
0
 10
7.15206
 20
17.2012
 11
7.18583
 21
17.0703
  0
LINE
  8
0
 10
7.18583
 20
17.0703
 11
7.18695
 21
17.0674
  0
LINE
  8
0
 10
7.18695
 20
17.0674
 11
7.1908
 21
17.0573
  0
LINE
  8
0
 10
7.1908
 20
17.0573
 11
7.23237
 21
16.9174
  0
LINE
  8
0
 10
7.23237
 20
16.9174
 11
7.24732
 21
16.8671
  0
LINE
  8
0
 10
7.24732
 20
16.8671
 11
7.28505
 21
16.776
  0
LINE
  8
0
 10
7.28505
 20
16.776
 11
7.32376
 21
16.6826
  0
LINE
  8
0
 10
7.32376
 20
16.6826
 11
7.34473
 21
16.6457
  0
LINE
  8
0
 10
7.34473
 20
16.6457
 11
7.4082
 21
16.5339
  0
LINE
  8
0
 10
7.4082
 20
16.5339
 11
7.41164
 21
16.5251
  0
LINE
  8
0
 10
7.41164
 20
16.5251
 11
7.41325
 21
16.521
  0
LINE
  8
0
 10
7.41325
 20
16.521
 11
7.48367
 21
16.3917
  0
LINE
  8
0
 10
7.48367
 20
16.3917
 11
7.51359
 21
16.3367
  0
LINE
  8
0
 10
7.51359
 20
16.3367
 11
7.56222
 21
16.2764
  0
LINE
  8
0
 10
7.56222
 20
16.2764
 11
7.62232
 21
16.2018
  0
LINE
  8
0
 10
7.62232
 20
16.2018
 11
7.64894
 21
16.1827
  0
LINE
  8
0
 10
7.64894
 20
16.1827
 11
7.73676
 21
16.1195
  0
LINE
  8
0
 10
7.73676
 20
16.1195
 11
7.74612
 21
16.1173
  0
LINE
  8
0
 10
7.74612
 20
16.1173
 11
7.85409
 21
16.0918
  0
LINE
  8
0
 10
7.85409
 20
16.0918
 11
11
 21
16.0918
  0
LINE
  8
0
 10
11
 20
16.0918
 11
11
 21
21.3556
  0
LINE
  8
0
 10
11
 20
21.3556
 11
7.85409
 21
21.3556
  0
LINE
  8
0
 10
7.85409
 20
21.3556
 11
7.73997
 21
21.3467
  0
LINE
  8
0
 10
7.73997
 20
21.3467
 11
7.73676
 21
21.3464
  0
LINE
  8
0
 10
7.73676
 20
21.3464
 11
7.62538
 21
21.3196
  0
LINE
  8
0
 10
7.62538
 20
21.3196
 11
7.62232
 21
21.3189
  0
LINE
  8
0
 10
7.62232
 20
21.3189
 11
7.51637
 21
21.275
  0
LINE
  8
0
 10
7.51637
 20
21.275
 11
7.51359
 21
21.2738
  0
LINE
  8
0
 10
7.51359
 20
21.2738
 11
7.41564
 21
21.2138
  0
LINE
  8
0
 10
7.41564
 20
21.2138
 11
7.41325
 21
21.2123
  0
LINE
  8
0
 10
7.41325
 20
21.2123
 11
7.32571
 21
21.1375
  0
LINE
  8
0
 10
7.32571
 20
21.1375
 11
7.32376
 21
21.1358
  0
LINE
  8
0
 10
7.32376
 20
21.1358
 11
7.24882
 21
21.048
  0
LINE
  8
0
 10
7.24882
 20
21.048
 11
7.24732
 21
21.0463
  0
LINE
  8
0
 10
7.24732
 20
21.0463
 11
7.18688
 21
20.9476
  0
LINE
  8
0
 10
7.18688
 20
20.9476
 11
7.18583
 21
20.9458
  0
LINE
  8
0
 10
7.18583
 20
20.9458
 11
7.14145
 21
20.8386
  0
LINE
  8
0
 10
7.14145
 20
20.8386
 11
7.14079
 21
20.837
  0
LINE
  8
0
 10
7.14079
 20
20.837
 11
7.11365
 21
20.7239
  0
LINE
  8
0
 10
7.11365
 20
20.7239
 11
7.11332
 21
20.7225
  0
LINE
  8
0
 10
7.11332
 20
20.7225
 11
7.10418
 21
20.6062
  0
LINE
  8
0
 10
7.10418
 20
20.6062
 11
7.10409
 21
20.6051
  0
LINE
  8
0
 10
7.10409
 20
20.6051
 11
7.10409
 21
17.6169
  0
LINE
  8
0
 10
36.5
 20
0
 11
47.5
 21
0
  0
LINE
  8
0
 10
47.5
 20
0
 11
47.5
 21
3.5
  0
LINE
  8
0
 10
47.5
 20
3.5
 11
47
 21
4
  0
LINE
  8
0
 10
47
 20
4
 11
41.8959
 21
4
  0
LINE
  8
0
 10
41.8959
 20
4
 11
40.3959
 21
5.5
  0
LINE
  8
0
 10
40.3959
 20
5.5
 11
40.3959
 21
13.2769
  0
LINE
  8
0
 10
40.3959
 20
13.2769
 11
40.3888
 21
13.426
  0
LINE
  8
0
 10
40.3888
 20
13.426
 11
40.3867
 21
13.4693
  0
LINE
  8
0
 10
40.3867
 20
13.4693
 11
40.3714
 21
13.5734
  0
LINE
  8
0
 10
40.3714
 20
13.5734
 11
40.3592
 21
13.657
  0
LINE
  8
0
 10
40.3592
 20
13.657
 11
40.3445
 21
13.7152
  0
LINE
  8
0
 10
40.3445
 20
13.7152
 11
40.3142
 21
13.8354
  0
LINE
  8
0
 10
40.3142
 20
13.8354
 11
40.3085
 21
13.8504
  0
LINE
  8
0
 10
40.3085
 20
13.8504
 11
40.2898
 21
13.9007
  0
LINE
  8
0
 10
40.2898
 20
13.9007
 11
40.2628
 21
13.9943
  0
LINE
  8
0
 10
40.2628
 20
13.9943
 11
40.2527
 21
14.0294
  0
LINE
  8
0
 10
40.2527
 20
14.0294
 11
40.2092
 21
14.1377
  0
LINE
  8
0
 10
40.2092
 20
14.1377
 11
40.1762
 21
14.2198
  0
LINE
  8
0
 10
40.1762
 20
14.2198
 11
40.1488
 21
14.2696
  0
LINE
  8
0
 10
40.1488
 20
14.2696
 11
40.0868
 21
14.3824
  0
LINE
  8
0
 10
40.0868
 20
14.3824
 11
40.0813
 21
14.3895
  0
LINE
  8
0
 10
40.0813
 20
14.3895
 11
40.062
 21
14.4146
  0
LINE
  8
0
 10
40.062
 20
14.4146
 11
40.0083
 21
14.5181
  0
LINE
  8
0
 10
40.0083
 20
14.5181
 11
39.9864
 21
14.5604
  0
LINE
  8
0
 10
39.9864
 20
14.5604
 11
39.9294
 21
14.6347
  0
LINE
  8
0
 10
39.9294
 20
14.6347
 11
39.8777
 21
14.7021
  0
LINE
  8
0
 10
39.8777
 20
14.7021
 11
39.8424
 21
14.7288
  0
LINE
  8
0
 10
39.8424
 20
14.7288
 11
39.7632
 21
14.7885
  0
LINE
  8
0
 10
39.7632
 20
14.7885
 11
39.7447
 21
14.7931
  0
LINE
  8
0
 10
39.7447
 20
14.7931
 11
39.6459
 21
14.8176
  0
LINE
  8
0
 10
39.6459
 20
14.8176
 11
36.5
 21
14.8176
  0
LINE
  8
0
 10
36.5
 20
14.8176
 11
36.5
 21
0
  0
LINE
  8
0
 10
36.5
 20
16.0918
 11
39.6459
 21
16.0918
  0
LINE
  8
0
 10
39.6459
 20
16.0918
 11
39.6484
 21
16.0924
  0
LINE
  8
0
 10
39.6484
 20
16.0924
 11
39.7632
 21
16.1195
  0
LINE
  8
0
 10
39.7632
 20
16.1195
 11
39.7751
 21
16.128
  0
LINE
  8
0
 10
39.7751
 20
16.128
 11
39.8777
 21
16.2018
  0
LINE
  8
0
 10
39.8777
 20
16.2018
 11
39.92
 21
16.2543
  0
LINE
  8
0
 10
39.92
 20
16.2543
 11
39.9864
 21
16.3367
  0
LINE
  8
0
 10
39.9864
 20
16.3367
 11
40.0821
 21
16.5125
  0
LINE
  8
0
 10
40.0821
 20
16.5125
 11
40.0868
 21
16.521
  0
LINE
  8
0
 10
40.0868
 20
16.521
 11
40.0918
 21
16.5339
  0
LINE
  8
0
 10
40.0918
 20
16.5339
 11
40.1762
 21
16.6826
  0
LINE
  8
0
 10
40.1762
 20
16.6826
 11
40.2115
 21
16.7677
  0
LINE
  8
0
 10
40.2115
 20
16.7677
 11
40.2527
 21
16.8671
  0
LINE
  8
0
 10
40.2527
 20
16.8671
 11
40.3092
 21
17.0573
  0
LINE
  8
0
 10
40.3092
 20
17.0573
 11
40.3142
 21
17.0703
  0
LINE
  8
0
 10
40.3142
 20
17.0703
 11
40.3156
 21
17.0757
  0
LINE
  8
0
 10
40.3156
 20
17.0757
 11
40.3592
 21
17.2449
  0
LINE
  8
0
 10
40.3592
 20
17.2449
 11
40.371
 21
17.3239
  0
LINE
  8
0
 10
40.371
 20
17.3239
 11
40.3867
 21
17.4286
  0
LINE
  8
0
 10
40.3867
 20
17.4286
 11
40.3942
 21
17.5825
  0
LINE
  8
0
 10
40.3942
 20
17.5825
 11
40.3959
 21
17.6169
  0
LINE
  8
0
 10
40.3959
 20
17.6169
 11
40.3959
 21
20.6051
  0
LINE
  8
0
 10
40.3959
 20
20.6051
 11
40.3868
 21
20.7212
  0
LINE
  8
0
 10
40.3868
 20
20.7212
 11
40.3867
 21
20.7225
  0
LINE
  8
0
 10
40.3867
 20
20.7225
 11
40.3596
 21
20.8355
  0
LINE
  8
0
 10
40.3596
 20
20.8355
 11
40.3592
 21
20.837
  0
LINE
  8
0
 10
40.3592
 20
20.837
 11
40.3149
 21
20.9441
  0
LINE
  8
0
 10
40.3149
 20
20.9441
 11
40.3142
 21
20.9458
  0
LINE
  8
0
 10
40.3142
 20
20.9458
 11
40.2538
 21
21.0444
  0
LINE
  8
0
 10
40.2538
 20
21.0444
 11
40.2527
 21
21.0463
  0
LINE
  8
0
 10
40.2527
 20
21.0463
 11
40.1778
 21
21.134
  0
LINE
  8
0
 10
40.1778
 20
21.134
 11
40.1762
 21
21.1358
  0
LINE
  8
0
 10
40.1762
 20
21.1358
 11
40.0888
 21
21.2106
  0
LINE
  8
0
 10
40.0888
 20
21.2106
 11
40.0868
 21
21.2123
  0
LINE
  8
0
 10
40.0868
 20
21.2123
 11
39.9889
 21
21.2723
  0
LINE
  8
0
 10
39.9889
 20
21.2723
 11
39.9864
 21
21.2738
  0
LINE
  8
0
 10
39.9864
 20
21.2738
 11
39.8805
 21
21.3177
  0
LINE
  8
0
 10
39.8805
 20
21.3177
 11
39.8777
 21
21.3189
  0
LINE
  8
0
 10
39.8777
 20
21.3189
 11
39.7663
 21
21.3457
  0
LINE
  8
0
 10
39.7663
 20
21.3457
 11
39.7632
 21
21.3464
  0
LINE
  8
0
 10
39.7632
 20
21.3464
 11
39.6491
 21
21.3554
  0
LINE
  8
0
 10
39.6491
 20
21.3554
 11
39.6459
 21
21.3556
  0
LINE
  8
0
 10
39.6459
 20
21.3556
 11
36.5
 21
21.3556
  0
LINE
  8
0
 10
36.5
 20
21.3556
 11
36.5
 21
16.0918
  0
LINE
  8
0
 10
36.5
 20
27.4779
 11
39.6459
 21
27.4779
  0
LINE
  8
0
 10
39.6459
 20
27.4779
 11
39.7324
 21
27.4878
  0
LINE
  8
0
 10
39.7324
 20
27.4878
 11
39.7632
 21
27.4914
  0
LINE
  8
0
 10
39.7632
 20
27.4914
 11
39.8473
 21
27.5209
  0
LINE
  8
0
 10
39.8473
 20
27.5209
 11
39.8777
 21
27.5316
  0
LINE
  8
0
 10
39.8777
 20
27.5316
 11
39.9571
 21
27.5797
  0
LINE
  8
0
 10
39.9571
 20
27.5797
 11
39.9864
 21
27.5975
  0
LINE
  8
0
 10
39.9864
 20
27.5975
 11
40.0868
 21
27.6875
  0
LINE
  8
0
 10
40.0868
 20
27.6875
 11
40.1509
 21
27.7676
  0
LINE
  8
0
 10
40.1509
 20
27.7676
 11
40.1762
 21
27.7993
  0
LINE
  8
0
 10
40.1762
 20
27.7993
 11
40.2303
 21
27.8919
  0
LINE
  8
0
 10
40.2303
 20
27.8919
 11
40.2527
 21
27.9302
  0
LINE
  8
0
 10
40.2527
 20
27.9302
 11
40.2955
 21
28.0326
  0
LINE
  8
0
 10
40.2955
 20
28.0326
 11
40.3142
 21
28.0771
  0
LINE
  8
0
 10
40.3142
 20
28.0771
 11
40.3451
 21
28.1862
  0
LINE
  8
0
 10
40.3451
 20
28.1862
 11
40.3592
 21
28.2361
  0
LINE
  8
0
 10
40.3592
 20
28.2361
 11
40.3777
 21
28.349
  0
LINE
  8
0
 10
40.3777
 20
28.349
 11
40.3867
 21
28.4036
  0
LINE
  8
0
 10
40.3867
 20
28.4036
 11
40.3928
 21
28.5172
  0
LINE
  8
0
 10
40.3928
 20
28.5172
 11
40.3959
 21
28.5753
  0
LINE
  8
0
 10
40.3959
 20
28.5753
 11
40.3959
 21
40
  0
LINE
  8
0
 10
40.3959
 20
40
 11
41.8959
 21
41.5
  0
LINE
  8
0
 10
41.8959
 20
41.5
 11
47
 21
41.5
  0
LINE
  8
0
 10
47
 20
41.5
 11
47.5
 21
42
  0
LINE
  8
0
 10
47.5
 20
42
 11
47.5
 21
45.5
  0
LINE
  8
0
 10
47.5
 20
45.5
 11
36.5
 21
45.5
  0
LINE
  8
0
 10
36.5
 20
45.5
 11
36.5
 21
27.4779
  0
ENDSEC
  0
SECTION
  2
OBJECTS
  0
DICTIONARY
  0
ENDSEC
  0
EOF
