  0
SECTION
  2
BLOCKS
  0
ENDSEC
  0
SECTION
  2
ENTITIES
  0
LINE
  8
0
 10
0
 20
0
 11
11
 21
0
  0
LINE
  8
0
 10
11
 20
0
 11
11
 21
21.4446
  0
LINE
  8
0
 10
11
 20
21.4446
 11
7.85409
 21
21.4446
  0
LINE
  8
0
 10
7.85409
 20
21.4446
 11
7.79532
 21
21.4399
  0
LINE
  8
0
 10
7.79532
 20
21.4399
 11
7.73676
 21
21.4351
  0
LINE
  8
0
 10
7.73676
 20
21.4351
 11
7.67831
 21
21.4207
  0
LINE
  8
0
 10
7.67831
 20
21.4207
 11
7.62232
 21
21.4068
  0
LINE
  8
0
 10
7.62232
 20
21.4068
 11
7.56448
 21
21.3821
  0
LINE
  8
0
 10
7.56448
 20
21.3821
 11
7.51359
 21
21.3604
  0
LINE
  8
0
 10
7.51359
 20
21.3604
 11
7.45705
 21
21.3247
  0
LINE
  8
0
 10
7.45705
 20
21.3247
 11
7.41325
 21
21.2971
  0
LINE
  8
0
 10
7.41325
 20
21.2971
 11
7.35923
 21
21.2495
  0
LINE
  8
0
 10
7.35923
 20
21.2495
 11
7.32376
 21
21.2183
  0
LINE
  8
0
 10
7.32376
 20
21.2183
 11
7.27408
 21
21.1584
  0
LINE
  8
0
 10
7.27408
 20
21.1584
 11
7.24732
 21
21.1261
  0
LINE
  8
0
 10
7.24732
 20
21.1261
 11
7.20427
 21
21.0537
  0
LINE
  8
0
 10
7.20427
 20
21.0537
 11
7.18583
 21
21.0227
  0
LINE
  8
0
 10
7.18583
 20
21.0227
 11
7.15196
 21
20.9385
  0
LINE
  8
0
 10
7.15196
 20
20.9385
 11
7.14079
 21
20.9107
  0
LINE
  8
0
 10
7.14079
 20
20.9107
 11
7.11871
 21
20.816
  0
LINE
  8
0
 10
7.11871
 20
20.816
 11
7.11332
 21
20.7928
  0
LINE
  8
0
 10
7.11332
 20
20.7928
 11
7.10544
 21
20.6897
  0
LINE
  8
0
 10
7.10544
 20
20.6897
 11
7.10409
 21
20.6719
  0
LINE
  8
0
 10
7.10409
 20
20.6719
 11
7.10409
 21
16.6378
  0
LINE
  8
0
 10
7.10409
 20
16.6378
 11
7.10823
 21
16.48
  0
LINE
  8
0
 10
7.10823
 20
16.48
 11
7.11332
 21
16.2863
  0
LINE
  8
0
 10
7.11332
 20
16.2863
 11
7.11478
 21
16.268
  0
LINE
  8
0
 10
7.11478
 20
16.268
 11
7.11697
 21
16.2407
  0
LINE
  8
0
 10
7.11697
 20
16.2407
 11
7.12762
 21
15.9851
  0
LINE
  8
0
 10
7.12762
 20
15.9851
 11
7.13843
 21
15.7255
  0
LINE
  8
0
 10
7.13843
 20
15.7255
 11
7.13852
 21
15.6826
  0
LINE
  8
0
 10
7.13852
 20
15.6826
 11
7.13945
 21
15.2257
  0
LINE
  8
0
 10
7.13945
 20
15.2257
 11
7.13617
 21
15.1386
  0
LINE
  8
0
 10
7.13617
 20
15.1386
 11
7.12016
 21
14.7133
  0
LINE
  8
0
 10
7.12016
 20
14.7133
 11
7.11332
 21
14.6237
  0
LINE
  8
0
 10
7.11332
 20
14.6237
 11
7.10876
 21
14.4415
  0
LINE
  8
0
 10
7.10876
 20
14.4415
 11
7.10409
 21
14.2546
  0
LINE
  8
0
 10
7.10409
 20
14.2546
 11
7.10409
 21
5.5
  0
LINE
  8
0
 10
7.10409
 20
5.5
 11
5.60409
 21
4
  0
LINE
  8
0
 10
5.60409
 20
4
 11
0.499999
 21
4
  0
LINE
  8
0
 10
0.499999
 20
4
 11
0
 21
3.5
  0
LINE
  8
0
 10
0
 20
3.5
 11
0
 21
0
  0
LINE
  8
0
 10
0
 20
42
 11
0.499999
 21
41.5
  0
LINE
  8
0
 10
0.499999
 20
41.5
 11
5.60409
 21
41.5
  0
LINE
  8
0
 10
5.60409
 20
41.5
 11
7.10409
 21
40
  0
LINE
  8
0
 10
7.10409
 20
40
 11
7.10409
 21
27.9344
  0
LINE
  8
0
 10
7.10409
 20
27.9344
 11
7.11106
 21
27.8048
  0
LINE
  8
0
 10
7.11106
 20
27.8048
 11
7.11332
 21
27.7627
  0
LINE
  8
0
 10
7.11332
 20
27.7627
 11
7.1344
 21
27.6342
  0
LINE
  8
0
 10
7.1344
 20
27.6342
 11
7.14079
 21
27.5953
  0
LINE
  8
0
 10
7.14079
 20
27.5953
 11
7.17589
 21
27.4713
  0
LINE
  8
0
 10
7.17589
 20
27.4713
 11
7.18583
 21
27.4362
  0
LINE
  8
0
 10
7.18583
 20
27.4362
 11
7.23443
 21
27.3202
  0
LINE
  8
0
 10
7.23443
 20
27.3202
 11
7.24732
 21
27.2894
  0
LINE
  8
0
 10
7.24732
 20
27.2894
 11
7.30848
 21
27.1846
  0
LINE
  8
0
 10
7.30848
 20
27.1846
 11
7.32376
 21
27.1584
  0
LINE
  8
0
 10
7.32376
 20
27.1584
 11
7.39612
 21
27.068
  0
LINE
  8
0
 10
7.39612
 20
27.068
 11
7.41325
 21
27.0466
  0
LINE
  8
0
 10
7.41325
 20
27.0466
 11
7.51359
 21
26.9566
  0
LINE
  8
0
 10
7.51359
 20
26.9566
 11
7.60283
 21
26.9025
  0
LINE
  8
0
 10
7.60283
 20
26.9025
 11
7.62232
 21
26.8907
  0
LINE
  8
0
 10
7.62232
 20
26.8907
 11
7.71662
 21
26.8576
  0
LINE
  8
0
 10
7.71662
 20
26.8576
 11
7.73676
 21
26.8505
  0
LINE
  8
0
 10
7.73676
 20
26.8505
 11
7.83359
 21
26.8394
  0
LINE
  8
0
 10
7.83359
 20
26.8394
 11
7.85409
 21
26.837
  0
LINE
  8
0
 10
7.85409
 20
26.837
 11
11
 21
26.837
  0
LINE
  8
0
 10
11
 20
26.837
 11
11
 21
45.5
  0
LINE
  8
0
 10
11
 20
45.5
 11
0
 21
45.5
  0
LINE
  8
0
 10
0
 20
45.5
 11
0
 21
42
  0
LINE
  8
0
 10
36.5
 20
0
 11
47.5
 21
0
  0
LINE
  8
0
 10
47.5
 20
0
 11
47.5
 21
3.5
  0
LINE
  8
0
 10
47.5
 20
3.5
 11
47
 21
4
  0
LINE
  8
0
 10
47
 20
4
 11
41.8959
 21
4
  0
LINE
  8
0
 10
41.8959
 20
4
 11
40.3959
 21
5.5
  0
LINE
  8
0
 10
40.3959
 20
5.5
 11
40.3959
 21
14.2546
  0
LINE
  8
0
 10
40.3959
 20
14.2546
 11
40.3912
 21
14.4427
  0
LINE
  8
0
 10
40.3912
 20
14.4427
 11
40.3867
 21
14.6237
  0
LINE
  8
0
 10
40.3867
 20
14.6237
 11
40.3839
 21
14.6607
  0
LINE
  8
0
 10
40.3839
 20
14.6607
 11
40.3798
 21
14.7133
  0
LINE
  8
0
 10
40.3798
 20
14.7133
 11
40.3712
 21
14.9441
  0
LINE
  8
0
 10
40.3712
 20
14.9441
 11
40.3606
 21
15.2257
  0
LINE
  8
0
 10
40.3606
 20
15.2257
 11
40.3606
 21
15.252
  0
LINE
  8
0
 10
40.3606
 20
15.252
 11
40.3616
 21
15.7255
  0
LINE
  8
0
 10
40.3616
 20
15.7255
 11
40.3702
 21
15.9323
  0
LINE
  8
0
 10
40.3702
 20
15.9323
 11
40.383
 21
16.2407
  0
LINE
  8
0
 10
40.383
 20
16.2407
 11
40.3867
 21
16.2863
  0
LINE
  8
0
 10
40.3867
 20
16.2863
 11
40.3888
 21
16.3658
  0
LINE
  8
0
 10
40.3888
 20
16.3658
 11
40.3959
 21
16.6378
  0
LINE
  8
0
 10
40.3959
 20
16.6378
 11
40.3959
 21
20.6719
  0
LINE
  8
0
 10
40.3959
 20
20.6719
 11
40.3882
 21
20.7725
  0
LINE
  8
0
 10
40.3882
 20
20.7725
 11
40.3867
 21
20.7928
  0
LINE
  8
0
 10
40.3867
 20
20.7928
 11
40.365
 21
20.8857
  0
LINE
  8
0
 10
40.365
 20
20.8857
 11
40.3592
 21
20.9107
  0
LINE
  8
0
 10
40.3592
 20
20.9107
 11
40.3258
 21
20.9938
  0
LINE
  8
0
 10
40.3258
 20
20.9938
 11
40.3142
 21
21.0227
  0
LINE
  8
0
 10
40.3142
 20
21.0227
 11
40.2714
 21
21.0947
  0
LINE
  8
0
 10
40.2714
 20
21.0947
 11
40.2527
 21
21.1261
  0
LINE
  8
0
 10
40.2527
 20
21.1261
 11
40.2029
 21
21.1861
  0
LINE
  8
0
 10
40.2029
 20
21.1861
 11
40.1762
 21
21.2183
  0
LINE
  8
0
 10
40.1762
 20
21.2183
 11
40.1218
 21
21.2662
  0
LINE
  8
0
 10
40.1218
 20
21.2662
 11
40.0868
 21
21.2971
  0
LINE
  8
0
 10
40.0868
 20
21.2971
 11
40.0295
 21
21.3332
  0
LINE
  8
0
 10
40.0295
 20
21.3332
 11
39.9864
 21
21.3604
  0
LINE
  8
0
 10
39.9864
 20
21.3604
 11
39.9278
 21
21.3854
  0
LINE
  8
0
 10
39.9278
 20
21.3854
 11
39.8777
 21
21.4068
  0
LINE
  8
0
 10
39.8777
 20
21.4068
 11
39.8187
 21
21.4214
  0
LINE
  8
0
 10
39.8187
 20
21.4214
 11
39.7632
 21
21.4351
  0
LINE
  8
0
 10
39.7632
 20
21.4351
 11
39.7043
 21
21.4399
  0
LINE
  8
0
 10
39.7043
 20
21.4399
 11
39.6459
 21
21.4446
  0
LINE
  8
0
 10
39.6459
 20
21.4446
 11
36.5
 21
21.4446
  0
LINE
  8
0
 10
36.5
 20
21.4446
 11
36.5
 21
0
  0
LINE
  8
0
 10
36.5
 20
26.837
 11
39.6459
 21
26.837
  0
LINE
  8
0
 10
39.6459
 20
26.837
 11
39.7427
 21
26.8481
  0
LINE
  8
0
 10
39.7427
 20
26.8481
 11
39.7632
 21
26.8505
  0
LINE
  8
0
 10
39.7632
 20
26.8505
 11
39.8573
 21
26.8836
  0
LINE
  8
0
 10
39.8573
 20
26.8836
 11
39.8777
 21
26.8907
  0
LINE
  8
0
 10
39.8777
 20
26.8907
 11
39.9666
 21
26.9446
  0
LINE
  8
0
 10
39.9666
 20
26.9446
 11
39.9864
 21
26.9566
  0
LINE
  8
0
 10
39.9864
 20
26.9566
 11
40.0868
 21
27.0466
  0
LINE
  8
0
 10
40.0868
 20
27.0466
 11
40.1587
 21
27.1365
  0
LINE
  8
0
 10
40.1587
 20
27.1365
 11
40.1762
 21
27.1584
  0
LINE
  8
0
 10
40.1762
 20
27.1584
 11
40.237
 21
27.2624
  0
LINE
  8
0
 10
40.237
 20
27.2624
 11
40.2527
 21
27.2894
  0
LINE
  8
0
 10
40.2527
 20
27.2894
 11
40.3009
 21
27.4045
  0
LINE
  8
0
 10
40.3009
 20
27.4045
 11
40.3142
 21
27.4362
  0
LINE
  8
0
 10
40.3142
 20
27.4362
 11
40.349
 21
27.5591
  0
LINE
  8
0
 10
40.349
 20
27.5591
 11
40.3592
 21
27.5953
  0
LINE
  8
0
 10
40.3592
 20
27.5953
 11
40.3801
 21
27.7227
  0
LINE
  8
0
 10
40.3801
 20
27.7227
 11
40.3867
 21
27.7627
  0
LINE
  8
0
 10
40.3867
 20
27.7627
 11
40.3936
 21
27.8912
  0
LINE
  8
0
 10
40.3936
 20
27.8912
 11
40.3959
 21
27.9344
  0
LINE
  8
0
 10
40.3959
 20
27.9344
 11
40.3959
 21
40
  0
LINE
  8
0
 10
40.3959
 20
40
 11
41.8959
 21
41.5
  0
LINE
  8
0
 10
41.8959
 20
41.5
 11
47
 21
41.5
  0
LINE
  8
0
 10
47
 20
41.5
 11
47.5
 21
42
  0
LINE
  8
0
 10
47.5
 20
42
 11
47.5
 21
45.5
  0
LINE
  8
0
 10
47.5
 20
45.5
 11
36.5
 21
45.5
  0
LINE
  8
0
 10
36.5
 20
45.5
 11
36.5
 21
26.837
  0
ENDSEC
  0
SECTION
  2
OBJECTS
  0
DICTIONARY
  0
ENDSEC
  0
EOF
