  0
SECTION
  2
BLOCKS
  0
ENDSEC
  0
SECTION
  2
ENTITIES
  0
LINE
  8
0
 10
0
 20
0
 11
11
 21
0
  0
LINE
  8
0
 10
11
 20
0
 11
11
 21
21.587
  0
LINE
  8
0
 10
11
 20
21.587
 11
7.85409
 21
21.587
  0
LINE
  8
0
 10
7.85409
 20
21.587
 11
7.79883
 21
21.5822
  0
LINE
  8
0
 10
7.79883
 20
21.5822
 11
7.73676
 21
21.5769
  0
LINE
  8
0
 10
7.73676
 20
21.5769
 11
7.6808
 21
21.5622
  0
LINE
  8
0
 10
7.6808
 20
21.5622
 11
7.62232
 21
21.5469
  0
LINE
  8
0
 10
7.62232
 20
21.5469
 11
7.56498
 21
21.5209
  0
LINE
  8
0
 10
7.56498
 20
21.5209
 11
7.51359
 21
21.4977
  0
LINE
  8
0
 10
7.51359
 20
21.4977
 11
7.45493
 21
21.4584
  0
LINE
  8
0
 10
7.45493
 20
21.4584
 11
7.41325
 21
21.4305
  0
LINE
  8
0
 10
7.41325
 20
21.4305
 11
7.3544
 21
21.3756
  0
LINE
  8
0
 10
7.3544
 20
21.3756
 11
7.32376
 21
21.347
  0
LINE
  8
0
 10
7.32376
 20
21.347
 11
7.26702
 21
21.2745
  0
LINE
  8
0
 10
7.26702
 20
21.2745
 11
7.24732
 21
21.2493
  0
LINE
  8
0
 10
7.24732
 20
21.2493
 11
7.19601
 21
21.1578
  0
LINE
  8
0
 10
7.19601
 20
21.1578
 11
7.18583
 21
21.1397
  0
LINE
  8
0
 10
7.18583
 20
21.1397
 11
7.14397
 21
21.0293
  0
LINE
  8
0
 10
7.14397
 20
21.0293
 11
7.14079
 21
21.0209
  0
LINE
  8
0
 10
7.14079
 20
21.0209
 11
7.12033
 21
20.9278
  0
LINE
  8
0
 10
7.12033
 20
20.9278
 11
7.11332
 21
20.8977
  0
LINE
  8
0
 10
7.11332
 20
20.8977
 11
7.11313
 21
20.8953
  0
LINE
  8
0
 10
7.11313
 20
20.8953
 11
7.10409
 21
20.7768
  0
LINE
  8
0
 10
7.10409
 20
20.7768
 11
7.10409
 21
5.5
  0
LINE
  8
0
 10
7.10409
 20
5.5
 11
5.60409
 21
4
  0
LINE
  8
0
 10
5.60409
 20
4
 11
0.499999
 21
4
  0
LINE
  8
0
 10
0.499999
 20
4
 11
0
 21
3.5
  0
LINE
  8
0
 10
0
 20
3.5
 11
0
 21
0
  0
LINE
  8
0
 10
0
 20
42
 11
0.499999
 21
41.5
  0
LINE
  8
0
 10
0.499999
 20
41.5
 11
5.60409
 21
41.5
  0
LINE
  8
0
 10
5.60409
 20
41.5
 11
7.10409
 21
40
  0
LINE
  8
0
 10
7.10409
 20
40
 11
7.10409
 21
27.5071
  0
LINE
  8
0
 10
7.10409
 20
27.5071
 11
7.1116
 21
27.3674
  0
LINE
  8
0
 10
7.1116
 20
27.3674
 11
7.11332
 21
27.3355
  0
LINE
  8
0
 10
7.11332
 20
27.3355
 11
7.13603
 21
27.1971
  0
LINE
  8
0
 10
7.13603
 20
27.1971
 11
7.14079
 21
27.168
  0
LINE
  8
0
 10
7.14079
 20
27.168
 11
7.17855
 21
27.0347
  0
LINE
  8
0
 10
7.17855
 20
27.0347
 11
7.18583
 21
27.0089
  0
LINE
  8
0
 10
7.18583
 20
27.0089
 11
7.23806
 21
26.8842
  0
LINE
  8
0
 10
7.23806
 20
26.8842
 11
7.24732
 21
26.8621
  0
LINE
  8
0
 10
7.24732
 20
26.8621
 11
7.313
 21
26.7496
  0
LINE
  8
0
 10
7.313
 20
26.7496
 11
7.32376
 21
26.7312
  0
LINE
  8
0
 10
7.32376
 20
26.7312
 11
7.4014
 21
26.6341
  0
LINE
  8
0
 10
7.4014
 20
26.6341
 11
7.41325
 21
26.6193
  0
LINE
  8
0
 10
7.41325
 20
26.6193
 11
7.51359
 21
26.5294
  0
LINE
  8
0
 10
7.51359
 20
26.5294
 11
7.60922
 21
26.4714
  0
LINE
  8
0
 10
7.60922
 20
26.4714
 11
7.62232
 21
26.4635
  0
LINE
  8
0
 10
7.62232
 20
26.4635
 11
7.72334
 21
26.428
  0
LINE
  8
0
 10
7.72334
 20
26.428
 11
7.73676
 21
26.4233
  0
LINE
  8
0
 10
7.73676
 20
26.4233
 11
7.84047
 21
26.4113
  0
LINE
  8
0
 10
7.84047
 20
26.4113
 11
7.85409
 21
26.4098
  0
LINE
  8
0
 10
7.85409
 20
26.4098
 11
11
 21
26.4098
  0
LINE
  8
0
 10
11
 20
26.4098
 11
11
 21
45.5
  0
LINE
  8
0
 10
11
 20
45.5
 11
0
 21
45.5
  0
LINE
  8
0
 10
0
 20
45.5
 11
0
 21
42
  0
LINE
  8
0
 10
36.5
 20
0
 11
47.5
 21
0
  0
LINE
  8
0
 10
47.5
 20
0
 11
47.5
 21
3.5
  0
LINE
  8
0
 10
47.5
 20
3.5
 11
47
 21
4
  0
LINE
  8
0
 10
47
 20
4
 11
41.8959
 21
4
  0
LINE
  8
0
 10
41.8959
 20
4
 11
40.3959
 21
5.5
  0
LINE
  8
0
 10
40.3959
 20
5.5
 11
40.3959
 21
20.7768
  0
LINE
  8
0
 10
40.3959
 20
20.7768
 11
40.3951
 21
20.7877
  0
LINE
  8
0
 10
40.3951
 20
20.7877
 11
40.3867
 21
20.8977
  0
LINE
  8
0
 10
40.3867
 20
20.8977
 11
40.3862
 21
20.8999
  0
LINE
  8
0
 10
40.3862
 20
20.8999
 11
40.3797
 21
20.9278
  0
LINE
  8
0
 10
40.3797
 20
20.9278
 11
40.3607
 21
21.0139
  0
LINE
  8
0
 10
40.3607
 20
21.0139
 11
40.3592
 21
21.0209
  0
LINE
  8
0
 10
40.3592
 20
21.0209
 11
40.3201
 21
21.1241
  0
LINE
  8
0
 10
40.3201
 20
21.1241
 11
40.3142
 21
21.1397
  0
LINE
  8
0
 10
40.3142
 20
21.1397
 11
40.2654
 21
21.2265
  0
LINE
  8
0
 10
40.2654
 20
21.2265
 11
40.2527
 21
21.2493
  0
LINE
  8
0
 10
40.2527
 20
21.2493
 11
40.1978
 21
21.3195
  0
LINE
  8
0
 10
40.1978
 20
21.3195
 11
40.1762
 21
21.347
  0
LINE
  8
0
 10
40.1762
 20
21.347
 11
40.1182
 21
21.4011
  0
LINE
  8
0
 10
40.1182
 20
21.4011
 11
40.0868
 21
21.4305
  0
LINE
  8
0
 10
40.0868
 20
21.4305
 11
40.028
 21
21.4698
  0
LINE
  8
0
 10
40.028
 20
21.4698
 11
39.9864
 21
21.4977
  0
LINE
  8
0
 10
39.9864
 20
21.4977
 11
39.9284
 21
21.5239
  0
LINE
  8
0
 10
39.9284
 20
21.5239
 11
39.8777
 21
21.5469
  0
LINE
  8
0
 10
39.8777
 20
21.5469
 11
39.821
 21
21.5617
  0
LINE
  8
0
 10
39.821
 20
21.5617
 11
39.7632
 21
21.5769
  0
LINE
  8
0
 10
39.7632
 20
21.5769
 11
39.7077
 21
21.5817
  0
LINE
  8
0
 10
39.7077
 20
21.5817
 11
39.6459
 21
21.587
  0
LINE
  8
0
 10
39.6459
 20
21.587
 11
36.5
 21
21.587
  0
LINE
  8
0
 10
36.5
 20
21.587
 11
36.5
 21
0
  0
LINE
  8
0
 10
36.5
 20
26.4098
 11
39.6459
 21
26.4098
  0
LINE
  8
0
 10
39.6459
 20
26.4098
 11
39.7495
 21
26.4217
  0
LINE
  8
0
 10
39.7495
 20
26.4217
 11
39.7632
 21
26.4233
  0
LINE
  8
0
 10
39.7632
 20
26.4233
 11
39.864
 21
26.4587
  0
LINE
  8
0
 10
39.864
 20
26.4587
 11
39.8777
 21
26.4635
  0
LINE
  8
0
 10
39.8777
 20
26.4635
 11
39.9729
 21
26.5212
  0
LINE
  8
0
 10
39.9729
 20
26.5212
 11
39.9864
 21
26.5294
  0
LINE
  8
0
 10
39.9864
 20
26.5294
 11
40.0868
 21
26.6193
  0
LINE
  8
0
 10
40.0868
 20
26.6193
 11
40.1639
 21
26.7157
  0
LINE
  8
0
 10
40.1639
 20
26.7157
 11
40.1762
 21
26.7312
  0
LINE
  8
0
 10
40.1762
 20
26.7312
 11
40.2414
 21
26.8428
  0
LINE
  8
0
 10
40.2414
 20
26.8428
 11
40.2527
 21
26.8621
  0
LINE
  8
0
 10
40.2527
 20
26.8621
 11
40.3044
 21
26.9857
  0
LINE
  8
0
 10
40.3044
 20
26.9857
 11
40.3142
 21
27.0089
  0
LINE
  8
0
 10
40.3142
 20
27.0089
 11
40.3516
 21
27.1411
  0
LINE
  8
0
 10
40.3516
 20
27.1411
 11
40.3592
 21
27.168
  0
LINE
  8
0
 10
40.3592
 20
27.168
 11
40.3817
 21
27.3051
  0
LINE
  8
0
 10
40.3817
 20
27.3051
 11
40.3867
 21
27.3355
  0
LINE
  8
0
 10
40.3867
 20
27.3355
 11
40.3941
 21
27.4739
  0
LINE
  8
0
 10
40.3941
 20
27.4739
 11
40.3959
 21
27.5071
  0
LINE
  8
0
 10
40.3959
 20
27.5071
 11
40.3959
 21
40
  0
LINE
  8
0
 10
40.3959
 20
40
 11
41.8959
 21
41.5
  0
LINE
  8
0
 10
41.8959
 20
41.5
 11
47
 21
41.5
  0
LINE
  8
0
 10
47
 20
41.5
 11
47.5
 21
42
  0
LINE
  8
0
 10
47.5
 20
42
 11
47.5
 21
45.5
  0
LINE
  8
0
 10
47.5
 20
45.5
 11
36.5
 21
45.5
  0
LINE
  8
0
 10
36.5
 20
45.5
 11
36.5
 21
26.4098
  0
ENDSEC
  0
SECTION
  2
OBJECTS
  0
DICTIONARY
  0
ENDSEC
  0
EOF
