  0
SECTION
  2
BLOCKS
  0
ENDSEC
  0
SECTION
  2
ENTITIES
  0
LINE
  8
0
 10
0
 20
0
 11
2.72671
 21
0
  0
LINE
  8
0
 10
2.72671
 20
0
 11
2.72671
 21
4
  0
LINE
  8
0
 10
2.72671
 20
4
 11
0.499999
 21
4
  0
LINE
  8
0
 10
0.499999
 20
4
 11
0
 21
3.5
  0
LINE
  8
0
 10
0
 20
3.5
 11
0
 21
0
  0
LINE
  8
0
 10
0
 20
42
 11
0.499999
 21
41.5
  0
LINE
  8
0
 10
0.499999
 20
41.5
 11
2.72671
 21
41.5
  0
LINE
  8
0
 10
2.72671
 20
41.5
 11
2.72671
 21
45.5
  0
LINE
  8
0
 10
2.72671
 20
45.5
 11
0
 21
45.5
  0
LINE
  8
0
 10
0
 20
45.5
 11
0
 21
42
  0
LINE
  8
0
 10
4.77996
 20
0
 11
11
 21
0
  0
LINE
  8
0
 10
11
 20
0
 11
11
 21
22.1571
  0
LINE
  8
0
 10
11
 20
22.1571
 11
7.85409
 21
22.1571
  0
LINE
  8
0
 10
7.85409
 20
22.1571
 11
7.8457
 21
22.1562
  0
LINE
  8
0
 10
7.8457
 20
22.1562
 11
7.73676
 21
22.1445
  0
LINE
  8
0
 10
7.73676
 20
22.1445
 11
7.72555
 21
22.1408
  0
LINE
  8
0
 10
7.72555
 20
22.1408
 11
7.62232
 21
22.107
  0
LINE
  8
0
 10
7.62232
 20
22.107
 11
7.60341
 21
22.0963
  0
LINE
  8
0
 10
7.60341
 20
22.0963
 11
7.51359
 21
22.0455
  0
LINE
  8
0
 10
7.51359
 20
22.0455
 11
7.48356
 21
22.0204
  0
LINE
  8
0
 10
7.48356
 20
22.0204
 11
7.41325
 21
21.9615
  0
LINE
  8
0
 10
7.41325
 20
21.9615
 11
7.37124
 21
21.9125
  0
LINE
  8
0
 10
7.37124
 20
21.9125
 11
7.32376
 21
21.8572
  0
LINE
  8
0
 10
7.32376
 20
21.8572
 11
7.27212
 21
21.7746
  0
LINE
  8
0
 10
7.27212
 20
21.7746
 11
7.24732
 21
21.735
  0
LINE
  8
0
 10
7.24732
 20
21.735
 11
7.19163
 21
21.6109
  0
LINE
  8
0
 10
7.19163
 20
21.6109
 11
7.18583
 21
21.598
  0
LINE
  8
0
 10
7.18583
 20
21.598
 11
7.16845
 21
21.5407
  0
LINE
  8
0
 10
7.16845
 20
21.5407
 11
7.14079
 21
21.4608
  0
LINE
  8
0
 10
7.14079
 20
21.4608
 11
7.13763
 21
21.445
  0
LINE
  8
0
 10
7.13763
 20
21.445
 11
7.11332
 21
21.3238
  0
LINE
  8
0
 10
7.11332
 20
21.3238
 11
7.11054
 21
21.2816
  0
LINE
  8
0
 10
7.11054
 20
21.2816
 11
7.10409
 21
21.1834
  0
LINE
  8
0
 10
7.10409
 20
21.1834
 11
7.10409
 21
5.5
  0
LINE
  8
0
 10
7.10409
 20
5.5
 11
6.5
 21
4.89591
  0
LINE
  8
0
 10
6.5
 20
4.89591
 11
6.5
 21
4
  0
LINE
  8
0
 10
6.5
 20
4
 11
4.77996
 21
4
  0
LINE
  8
0
 10
4.77996
 20
4
 11
4.77996
 21
0
  0
LINE
  8
0
 10
4.77996
 20
41.5
 11
6.5
 21
41.5
  0
LINE
  8
0
 10
6.5
 20
41.5
 11
6.5
 21
40.6041
  0
LINE
  8
0
 10
6.5
 20
40.6041
 11
7.10409
 21
40
  0
LINE
  8
0
 10
7.10409
 20
40
 11
7.10409
 21
26.6527
  0
LINE
  8
0
 10
7.10409
 20
26.6527
 11
7.1127
 21
26.4925
  0
LINE
  8
0
 10
7.1127
 20
26.4925
 11
7.11332
 21
26.481
  0
LINE
  8
0
 10
7.11332
 20
26.481
 11
7.13929
 21
26.3227
  0
LINE
  8
0
 10
7.13929
 20
26.3227
 11
7.14079
 21
26.3135
  0
LINE
  8
0
 10
7.14079
 20
26.3135
 11
7.18389
 21
26.1613
  0
LINE
  8
0
 10
7.18389
 20
26.1613
 11
7.18583
 21
26.1545
  0
LINE
  8
0
 10
7.18583
 20
26.1545
 11
7.24534
 21
26.0124
  0
LINE
  8
0
 10
7.24534
 20
26.0124
 11
7.24732
 21
26.0076
  0
LINE
  8
0
 10
7.24732
 20
26.0076
 11
7.32203
 21
25.8796
  0
LINE
  8
0
 10
7.32203
 20
25.8796
 11
7.32376
 21
25.8767
  0
LINE
  8
0
 10
7.32376
 20
25.8767
 11
7.41197
 21
25.7665
  0
LINE
  8
0
 10
7.41197
 20
25.7665
 11
7.41325
 21
25.7649
  0
LINE
  8
0
 10
7.41325
 20
25.7649
 11
7.51359
 21
25.6749
  0
LINE
  8
0
 10
7.51359
 20
25.6749
 11
7.62201
 21
25.6092
  0
LINE
  8
0
 10
7.62201
 20
25.6092
 11
7.62232
 21
25.609
  0
LINE
  8
0
 10
7.62232
 20
25.609
 11
7.73319
 21
25.57
  0
LINE
  8
0
 10
7.73319
 20
25.57
 11
7.73651
 21
25.5688
  0
LINE
  8
0
 10
7.73651
 20
25.5688
 11
7.73676
 21
25.5687
  0
LINE
  8
0
 10
7.73676
 20
25.5687
 11
7.85081
 21
25.5543
  0
LINE
  8
0
 10
7.85081
 20
25.5543
 11
7.85409
 21
25.5538
  0
LINE
  8
0
 10
7.85409
 20
25.5538
 11
11
 21
25.5538
  0
LINE
  8
0
 10
11
 20
25.5538
 11
11
 21
45.5
  0
LINE
  8
0
 10
11
 20
45.5
 11
4.77996
 21
45.5
  0
LINE
  8
0
 10
4.77996
 20
45.5
 11
4.77996
 21
41.5
  0
LINE
  8
0
 10
36.5
 20
0
 11
42.7267
 21
0
  0
LINE
  8
0
 10
42.7267
 20
0
 11
42.7267
 21
4
  0
LINE
  8
0
 10
42.7267
 20
4
 11
41
 21
4
  0
LINE
  8
0
 10
41
 20
4
 11
41
 21
4.89591
  0
LINE
  8
0
 10
41
 20
4.89591
 11
40.3959
 21
5.5
  0
LINE
  8
0
 10
40.3959
 20
5.5
 11
40.3959
 21
21.1834
  0
LINE
  8
0
 10
40.3959
 20
21.1834
 11
40.3925
 21
21.2351
  0
LINE
  8
0
 10
40.3925
 20
21.2351
 11
40.3867
 21
21.3238
  0
LINE
  8
0
 10
40.3867
 20
21.3238
 11
40.3803
 21
21.3555
  0
LINE
  8
0
 10
40.3803
 20
21.3555
 11
40.3592
 21
21.4608
  0
LINE
  8
0
 10
40.3592
 20
21.4608
 11
40.3552
 21
21.4723
  0
LINE
  8
0
 10
40.3552
 20
21.4723
 11
40.3315
 21
21.5407
  0
LINE
  8
0
 10
40.3315
 20
21.5407
 11
40.3169
 21
21.5891
  0
LINE
  8
0
 10
40.3169
 20
21.5891
 11
40.3142
 21
21.598
  0
LINE
  8
0
 10
40.3142
 20
21.598
 11
40.2658
 21
21.7057
  0
LINE
  8
0
 10
40.2658
 20
21.7057
 11
40.2527
 21
21.735
  0
LINE
  8
0
 10
40.2527
 20
21.735
 11
40.2041
 21
21.8126
  0
LINE
  8
0
 10
40.2041
 20
21.8126
 11
40.1762
 21
21.8572
  0
LINE
  8
0
 10
40.1762
 20
21.8572
 11
40.1324
 21
21.9083
  0
LINE
  8
0
 10
40.1324
 20
21.9083
 11
40.0868
 21
21.9615
  0
LINE
  8
0
 10
40.0868
 20
21.9615
 11
40.0509
 21
21.9915
  0
LINE
  8
0
 10
40.0509
 20
21.9915
 11
39.9864
 21
22.0455
  0
LINE
  8
0
 10
39.9864
 20
22.0455
 11
39.9602
 21
22.0603
  0
LINE
  8
0
 10
39.9602
 20
22.0603
 11
39.8777
 21
22.107
  0
LINE
  8
0
 10
39.8777
 20
22.107
 11
39.8605
 21
22.1126
  0
LINE
  8
0
 10
39.8605
 20
22.1126
 11
39.7632
 21
22.1445
  0
LINE
  8
0
 10
39.7632
 20
22.1445
 11
39.7526
 21
22.1456
  0
LINE
  8
0
 10
39.7526
 20
22.1456
 11
39.6459
 21
22.1571
  0
LINE
  8
0
 10
39.6459
 20
22.1571
 11
36.5
 21
22.1571
  0
LINE
  8
0
 10
36.5
 20
22.1571
 11
36.5
 21
0
  0
LINE
  8
0
 10
36.5
 20
25.5538
 11
39.6459
 21
25.5538
  0
LINE
  8
0
 10
39.6459
 20
25.5538
 11
39.7629
 21
25.5686
  0
LINE
  8
0
 10
39.7629
 20
25.5686
 11
39.7632
 21
25.5687
  0
LINE
  8
0
 10
39.7632
 20
25.5687
 11
39.7668
 21
25.57
  0
LINE
  8
0
 10
39.7668
 20
25.57
 11
39.8773
 21
25.6089
  0
LINE
  8
0
 10
39.8773
 20
25.6089
 11
39.8777
 21
25.609
  0
LINE
  8
0
 10
39.8777
 20
25.609
 11
39.9856
 21
25.6744
  0
LINE
  8
0
 10
39.9856
 20
25.6744
 11
39.9864
 21
25.6749
  0
LINE
  8
0
 10
39.9864
 20
25.6749
 11
40.0868
 21
25.7649
  0
LINE
  8
0
 10
40.0868
 20
25.7649
 11
40.1743
 21
25.8742
  0
LINE
  8
0
 10
40.1743
 20
25.8742
 11
40.1762
 21
25.8767
  0
LINE
  8
0
 10
40.1762
 20
25.8767
 11
40.2503
 21
26.0035
  0
LINE
  8
0
 10
40.2503
 20
26.0035
 11
40.2527
 21
26.0076
  0
LINE
  8
0
 10
40.2527
 20
26.0076
 11
40.3116
 21
26.1483
  0
LINE
  8
0
 10
40.3116
 20
26.1483
 11
40.3142
 21
26.1545
  0
LINE
  8
0
 10
40.3142
 20
26.1545
 11
40.3568
 21
26.305
  0
LINE
  8
0
 10
40.3568
 20
26.305
 11
40.3592
 21
26.3135
  0
LINE
  8
0
 10
40.3592
 20
26.3135
 11
40.3849
 21
26.47
  0
LINE
  8
0
 10
40.3849
 20
26.47
 11
40.3867
 21
26.481
  0
LINE
  8
0
 10
40.3867
 20
26.481
 11
40.3952
 21
26.6393
  0
LINE
  8
0
 10
40.3952
 20
26.6393
 11
40.3959
 21
26.6527
  0
LINE
  8
0
 10
40.3959
 20
26.6527
 11
40.3959
 21
40
  0
LINE
  8
0
 10
40.3959
 20
40
 11
41
 21
40.6041
  0
LINE
  8
0
 10
41
 20
40.6041
 11
41
 21
41.5
  0
LINE
  8
0
 10
41
 20
41.5
 11
42.7267
 21
41.5
  0
LINE
  8
0
 10
42.7267
 20
41.5
 11
42.7267
 21
45.5
  0
LINE
  8
0
 10
42.7267
 20
45.5
 11
36.5
 21
45.5
  0
LINE
  8
0
 10
36.5
 20
45.5
 11
36.5
 21
25.5538
  0
LINE
  8
0
 10
44.78
 20
0
 11
47.5
 21
0
  0
LINE
  8
0
 10
47.5
 20
0
 11
47.5
 21
3.5
  0
LINE
  8
0
 10
47.5
 20
3.5
 11
47
 21
4
  0
LINE
  8
0
 10
47
 20
4
 11
44.78
 21
4
  0
LINE
  8
0
 10
44.78
 20
4
 11
44.78
 21
0
  0
LINE
  8
0
 10
44.78
 20
41.5
 11
47
 21
41.5
  0
LINE
  8
0
 10
47
 20
41.5
 11
47.5
 21
42
  0
LINE
  8
0
 10
47.5
 20
42
 11
47.5
 21
45.5
  0
LINE
  8
0
 10
47.5
 20
45.5
 11
44.78
 21
45.5
  0
LINE
  8
0
 10
44.78
 20
45.5
 11
44.78
 21
41.5
  0
ENDSEC
  0
SECTION
  2
OBJECTS
  0
DICTIONARY
  0
ENDSEC
  0
EOF
