  0
SECTION
  2
BLOCKS
  0
ENDSEC
  0
SECTION
  2
ENTITIES
  0
LINE
  8
0
 10
0
 20
0
 11
2.50596
 21
0
  0
LINE
  8
0
 10
2.50596
 20
0
 11
2.50596
 21
4
  0
LINE
  8
0
 10
2.50596
 20
4
 11
0.499999
 21
4
  0
LINE
  8
0
 10
0.499999
 20
4
 11
0
 21
3.5
  0
LINE
  8
0
 10
0
 20
3.5
 11
0
 21
0
  0
LINE
  8
0
 10
0
 20
42
 11
0.499999
 21
41.5
  0
LINE
  8
0
 10
0.499999
 20
41.5
 11
2.50596
 21
41.5
  0
LINE
  8
0
 10
2.50596
 20
41.5
 11
2.50596
 21
45.5
  0
LINE
  8
0
 10
2.50596
 20
45.5
 11
0
 21
45.5
  0
LINE
  8
0
 10
0
 20
45.5
 11
0
 21
42
  0
LINE
  8
0
 10
4.99856
 20
0
 11
11
 21
0
  0
LINE
  8
0
 10
11
 20
0
 11
11
 21
22.4107
  0
LINE
  8
0
 10
11
 20
22.4107
 11
7.85409
 21
22.4107
  0
LINE
  8
0
 10
7.85409
 20
22.4107
 11
7.81948
 21
22.4062
  0
LINE
  8
0
 10
7.81948
 20
22.4062
 11
7.73676
 21
22.3956
  0
LINE
  8
0
 10
7.73676
 20
22.3956
 11
7.69732
 21
22.38
  0
LINE
  8
0
 10
7.69732
 20
22.38
 11
7.62232
 21
22.3505
  0
LINE
  8
0
 10
7.62232
 20
22.3505
 11
7.57174
 21
22.3161
  0
LINE
  8
0
 10
7.57174
 20
22.3161
 11
7.51359
 21
22.2766
  0
LINE
  8
0
 10
7.51359
 20
22.2766
 11
7.44741
 21
22.2101
  0
LINE
  8
0
 10
7.44741
 20
22.2101
 11
7.41325
 21
22.1757
  0
LINE
  8
0
 10
7.41325
 20
22.1757
 11
7.33063
 21
22.06
  0
LINE
  8
0
 10
7.33063
 20
22.06
 11
7.32376
 21
22.0504
  0
LINE
  8
0
 10
7.32376
 20
22.0504
 11
7.30531
 21
22.015
  0
LINE
  8
0
 10
7.30531
 20
22.015
 11
7.24732
 21
21.9223
  0
LINE
  8
0
 10
7.24732
 20
21.9223
 11
7.23613
 21
21.8973
  0
LINE
  8
0
 10
7.23613
 20
21.8973
 11
7.18583
 21
21.7853
  0
LINE
  8
0
 10
7.18583
 20
21.7853
 11
7.166
 21
21.7199
  0
LINE
  8
0
 10
7.166
 20
21.7199
 11
7.14079
 21
21.6368
  0
LINE
  8
0
 10
7.14079
 20
21.6368
 11
7.12153
 21
21.5273
  0
LINE
  8
0
 10
7.12153
 20
21.5273
 11
7.11332
 21
21.4806
  0
LINE
  8
0
 10
7.11332
 20
21.4806
 11
7.10453
 21
21.3281
  0
LINE
  8
0
 10
7.10453
 20
21.3281
 11
7.10409
 21
21.3204
  0
LINE
  8
0
 10
7.10409
 20
21.3204
 11
7.10409
 21
5.5
  0
LINE
  8
0
 10
7.10409
 20
5.5
 11
6.5
 21
4.89591
  0
LINE
  8
0
 10
6.5
 20
4.89591
 11
6.5
 21
4
  0
LINE
  8
0
 10
6.5
 20
4
 11
4.99856
 21
4
  0
LINE
  8
0
 10
4.99856
 20
4
 11
4.99856
 21
0
  0
LINE
  8
0
 10
4.99856
 20
41.5
 11
6.5
 21
41.5
  0
LINE
  8
0
 10
6.5
 20
41.5
 11
6.5
 21
40.6041
  0
LINE
  8
0
 10
6.5
 20
40.6041
 11
7.10409
 21
40
  0
LINE
  8
0
 10
7.10409
 20
40
 11
7.10409
 21
26.439
  0
LINE
  8
0
 10
7.10409
 20
26.439
 11
7.11297
 21
26.2738
  0
LINE
  8
0
 10
7.11297
 20
26.2738
 11
7.11332
 21
26.2674
  0
LINE
  8
0
 10
7.11332
 20
26.2674
 11
7.1401
 21
26.1042
  0
LINE
  8
0
 10
7.1401
 20
26.1042
 11
7.14079
 21
26.0999
  0
LINE
  8
0
 10
7.14079
 20
26.0999
 11
7.18522
 21
25.943
  0
LINE
  8
0
 10
7.18522
 20
25.943
 11
7.18583
 21
25.9408
  0
LINE
  8
0
 10
7.18583
 20
25.9408
 11
7.24716
 21
25.7944
  0
LINE
  8
0
 10
7.24716
 20
25.7944
 11
7.24732
 21
25.794
  0
LINE
  8
0
 10
7.24732
 20
25.794
 11
7.26876
 21
25.7573
  0
LINE
  8
0
 10
7.26876
 20
25.7573
 11
7.31359
 21
25.673
  0
LINE
  8
0
 10
7.31359
 20
25.673
 11
7.32376
 21
25.6539
  0
LINE
  8
0
 10
7.32376
 20
25.6539
 11
7.38576
 21
25.5689
  0
LINE
  8
0
 10
7.38576
 20
25.5689
 11
7.41325
 21
25.5312
  0
LINE
  8
0
 10
7.41325
 20
25.5312
 11
7.46668
 21
25.4787
  0
LINE
  8
0
 10
7.46668
 20
25.4787
 11
7.51359
 21
25.4325
  0
LINE
  8
0
 10
7.51359
 20
25.4325
 11
7.55635
 21
25.4041
  0
LINE
  8
0
 10
7.55635
 20
25.4041
 11
7.62232
 21
25.3602
  0
LINE
  8
0
 10
7.62232
 20
25.3602
 11
7.65481
 21
25.3477
  0
LINE
  8
0
 10
7.65481
 20
25.3477
 11
7.73676
 21
25.3161
  0
LINE
  8
0
 10
7.73676
 20
25.3161
 11
7.76194
 21
25.3129
  0
LINE
  8
0
 10
7.76194
 20
25.3129
 11
7.85409
 21
25.3013
  0
LINE
  8
0
 10
7.85409
 20
25.3013
 11
11
 21
25.3013
  0
LINE
  8
0
 10
11
 20
25.3013
 11
11
 21
45.5
  0
LINE
  8
0
 10
11
 20
45.5
 11
4.99856
 21
45.5
  0
LINE
  8
0
 10
4.99856
 20
45.5
 11
4.99856
 21
41.5
  0
LINE
  8
0
 10
36.5
 20
0
 11
42.506
 21
0
  0
LINE
  8
0
 10
42.506
 20
0
 11
42.506
 21
4
  0
LINE
  8
0
 10
42.506
 20
4
 11
41
 21
4
  0
LINE
  8
0
 10
41
 20
4
 11
41
 21
4.89591
  0
LINE
  8
0
 10
41
 20
4.89591
 11
40.3959
 21
5.5
  0
LINE
  8
0
 10
40.3959
 20
5.5
 11
40.3959
 21
21.3204
  0
LINE
  8
0
 10
40.3959
 20
21.3204
 11
40.3884
 21
21.4504
  0
LINE
  8
0
 10
40.3884
 20
21.4504
 11
40.3867
 21
21.4806
  0
LINE
  8
0
 10
40.3867
 20
21.4806
 11
40.3689
 21
21.5816
  0
LINE
  8
0
 10
40.3689
 20
21.5816
 11
40.3592
 21
21.6368
  0
LINE
  8
0
 10
40.3592
 20
21.6368
 11
40.3378
 21
21.7075
  0
LINE
  8
0
 10
40.3378
 20
21.7075
 11
40.3142
 21
21.7853
  0
LINE
  8
0
 10
40.3142
 20
21.7853
 11
40.2956
 21
21.8266
  0
LINE
  8
0
 10
40.2956
 20
21.8266
 11
40.2527
 21
21.9223
  0
LINE
  8
0
 10
40.2527
 20
21.9223
 11
40.2429
 21
21.9379
  0
LINE
  8
0
 10
40.2429
 20
21.9379
 11
40.1947
 21
22.015
  0
LINE
  8
0
 10
40.1947
 20
22.015
 11
40.1798
 21
22.0436
  0
LINE
  8
0
 10
40.1798
 20
22.0436
 11
40.1762
 21
22.0504
  0
LINE
  8
0
 10
40.1762
 20
22.0504
 11
40.1065
 21
22.1481
  0
LINE
  8
0
 10
40.1065
 20
22.1481
 11
40.0868
 21
22.1757
  0
LINE
  8
0
 10
40.0868
 20
22.1757
 11
40.0246
 21
22.2382
  0
LINE
  8
0
 10
40.0246
 20
22.2382
 11
39.9864
 21
22.2766
  0
LINE
  8
0
 10
39.9864
 20
22.2766
 11
39.9341
 21
22.3122
  0
LINE
  8
0
 10
39.9341
 20
22.3122
 11
39.8777
 21
22.3505
  0
LINE
  8
0
 10
39.8777
 20
22.3505
 11
39.8348
 21
22.3674
  0
LINE
  8
0
 10
39.8348
 20
22.3674
 11
39.7632
 21
22.3956
  0
LINE
  8
0
 10
39.7632
 20
22.3956
 11
39.7271
 21
22.4002
  0
LINE
  8
0
 10
39.7271
 20
22.4002
 11
39.6459
 21
22.4107
  0
LINE
  8
0
 10
39.6459
 20
22.4107
 11
36.5
 21
22.4107
  0
LINE
  8
0
 10
36.5
 20
22.4107
 11
36.5
 21
0
  0
LINE
  8
0
 10
36.5
 20
25.3013
 11
39.6459
 21
25.3013
  0
LINE
  8
0
 10
39.6459
 20
25.3013
 11
39.6689
 21
25.3042
  0
LINE
  8
0
 10
39.6689
 20
25.3042
 11
39.7632
 21
25.3161
  0
LINE
  8
0
 10
39.7632
 20
25.3161
 11
39.7906
 21
25.3266
  0
LINE
  8
0
 10
39.7906
 20
25.3266
 11
39.8777
 21
25.3602
  0
LINE
  8
0
 10
39.8777
 20
25.3602
 11
39.9157
 21
25.3855
  0
LINE
  8
0
 10
39.9157
 20
25.3855
 11
39.9864
 21
25.4325
  0
LINE
  8
0
 10
39.9864
 20
25.4325
 11
40.0398
 21
25.4851
  0
LINE
  8
0
 10
40.0398
 20
25.4851
 11
40.0868
 21
25.5312
  0
LINE
  8
0
 10
40.0868
 20
25.5312
 11
40.1567
 21
25.6271
  0
LINE
  8
0
 10
40.1567
 20
25.6271
 11
40.1762
 21
25.6539
  0
LINE
  8
0
 10
40.1762
 20
25.6539
 11
40.2312
 21
25.7573
  0
LINE
  8
0
 10
40.2312
 20
25.7573
 11
40.2525
 21
25.7937
  0
LINE
  8
0
 10
40.2525
 20
25.7937
 11
40.2527
 21
25.794
  0
LINE
  8
0
 10
40.2527
 20
25.794
 11
40.3134
 21
25.9389
  0
LINE
  8
0
 10
40.3134
 20
25.9389
 11
40.3142
 21
25.9408
  0
LINE
  8
0
 10
40.3142
 20
25.9408
 11
40.3581
 21
26.096
  0
LINE
  8
0
 10
40.3581
 20
26.096
 11
40.3592
 21
26.0999
  0
LINE
  8
0
 10
40.3592
 20
26.0999
 11
40.3857
 21
26.2612
  0
LINE
  8
0
 10
40.3857
 20
26.2612
 11
40.3867
 21
26.2674
  0
LINE
  8
0
 10
40.3867
 20
26.2674
 11
40.3955
 21
26.4306
  0
LINE
  8
0
 10
40.3955
 20
26.4306
 11
40.3959
 21
26.439
  0
LINE
  8
0
 10
40.3959
 20
26.439
 11
40.3959
 21
40
  0
LINE
  8
0
 10
40.3959
 20
40
 11
41
 21
40.6041
  0
LINE
  8
0
 10
41
 20
40.6041
 11
41
 21
41.5
  0
LINE
  8
0
 10
41
 20
41.5
 11
42.506
 21
41.5
  0
LINE
  8
0
 10
42.506
 20
41.5
 11
42.506
 21
45.5
  0
LINE
  8
0
 10
42.506
 20
45.5
 11
36.5
 21
45.5
  0
LINE
  8
0
 10
36.5
 20
45.5
 11
36.5
 21
25.3013
  0
LINE
  8
0
 10
44.9986
 20
0
 11
47.5
 21
0
  0
LINE
  8
0
 10
47.5
 20
0
 11
47.5
 21
3.5
  0
LINE
  8
0
 10
47.5
 20
3.5
 11
47
 21
4
  0
LINE
  8
0
 10
47
 20
4
 11
44.9986
 21
4
  0
LINE
  8
0
 10
44.9986
 20
4
 11
44.9986
 21
0
  0
LINE
  8
0
 10
44.9986
 20
41.5
 11
47
 21
41.5
  0
LINE
  8
0
 10
47
 20
41.5
 11
47.5
 21
42
  0
LINE
  8
0
 10
47.5
 20
42
 11
47.5
 21
45.5
  0
LINE
  8
0
 10
47.5
 20
45.5
 11
44.9986
 21
45.5
  0
LINE
  8
0
 10
44.9986
 20
45.5
 11
44.9986
 21
41.5
  0
ENDSEC
  0
SECTION
  2
OBJECTS
  0
DICTIONARY
  0
ENDSEC
  0
EOF
