  0
SECTION
  2
BLOCKS
  0
ENDSEC
  0
SECTION
  2
ENTITIES
  0
LINE
  8
0
 10
0
 20
0
 11
2.3476
 21
0
  0
LINE
  8
0
 10
2.3476
 20
0
 11
2.3476
 21
4
  0
LINE
  8
0
 10
2.3476
 20
4
 11
0.499999
 21
4
  0
LINE
  8
0
 10
0.499999
 20
4
 11
0
 21
3.5
  0
LINE
  8
0
 10
0
 20
3.5
 11
0
 21
0
  0
LINE
  8
0
 10
0
 20
42
 11
0.499999
 21
41.5
  0
LINE
  8
0
 10
0.499999
 20
41.5
 11
2.3476
 21
41.5
  0
LINE
  8
0
 10
2.3476
 20
41.5
 11
2.3476
 21
45.5
  0
LINE
  8
0
 10
2.3476
 20
45.5
 11
0
 21
45.5
  0
LINE
  8
0
 10
0
 20
45.5
 11
0
 21
42
  0
LINE
  8
0
 10
5.15956
 20
0
 11
11
 21
0
  0
LINE
  8
0
 10
11
 20
0
 11
11
 21
22.7462
  0
LINE
  8
0
 10
11
 20
22.7462
 11
7.85409
 21
22.7462
  0
LINE
  8
0
 10
7.85409
 20
22.7462
 11
7.81274
 21
22.7393
  0
LINE
  8
0
 10
7.81274
 20
22.7393
 11
7.73676
 21
22.7266
  0
LINE
  8
0
 10
7.73676
 20
22.7266
 11
7.6873
 21
22.7013
  0
LINE
  8
0
 10
7.6873
 20
22.7013
 11
7.62232
 21
22.6681
  0
LINE
  8
0
 10
7.62232
 20
22.6681
 11
7.55424
 21
22.6081
  0
LINE
  8
0
 10
7.55424
 20
22.6081
 11
7.51359
 21
22.5723
  0
LINE
  8
0
 10
7.51359
 20
22.5723
 11
7.4183
 21
22.4481
  0
LINE
  8
0
 10
7.4183
 20
22.4481
 11
7.41325
 21
22.4415
  0
LINE
  8
0
 10
7.41325
 20
22.4415
 11
7.40289
 21
22.4227
  0
LINE
  8
0
 10
7.40289
 20
22.4227
 11
7.32376
 21
22.3118
  0
LINE
  8
0
 10
7.32376
 20
22.3118
 11
7.30271
 21
22.2714
  0
LINE
  8
0
 10
7.30271
 20
22.2714
 11
7.24732
 21
22.165
  0
LINE
  8
0
 10
7.24732
 20
22.165
 11
7.20814
 21
22.0602
  0
LINE
  8
0
 10
7.20814
 20
22.0602
 11
7.18583
 21
22.0004
  0
LINE
  8
0
 10
7.18583
 20
22.0004
 11
7.14378
 21
21.8339
  0
LINE
  8
0
 10
7.14378
 20
21.8339
 11
7.14079
 21
21.8241
  0
LINE
  8
0
 10
7.14079
 20
21.8241
 11
7.14029
 21
21.8212
  0
LINE
  8
0
 10
7.14029
 20
21.8212
 11
7.11332
 21
21.6679
  0
LINE
  8
0
 10
7.11332
 20
21.6679
 11
7.11059
 21
21.6205
  0
LINE
  8
0
 10
7.11059
 20
21.6205
 11
7.10409
 21
21.5077
  0
LINE
  8
0
 10
7.10409
 20
21.5077
 11
7.10409
 21
5.5
  0
LINE
  8
0
 10
7.10409
 20
5.5
 11
6.5
 21
4.89591
  0
LINE
  8
0
 10
6.5
 20
4.89591
 11
6.5
 21
4
  0
LINE
  8
0
 10
6.5
 20
4
 11
5.15956
 21
4
  0
LINE
  8
0
 10
5.15956
 20
4
 11
5.15956
 21
0
  0
LINE
  8
0
 10
5.15956
 20
41.5
 11
6.5
 21
41.5
  0
LINE
  8
0
 10
6.5
 20
41.5
 11
6.5
 21
40.6041
  0
LINE
  8
0
 10
6.5
 20
40.6041
 11
7.10409
 21
40
  0
LINE
  8
0
 10
7.10409
 20
40
 11
7.10409
 21
26.2254
  0
LINE
  8
0
 10
7.10409
 20
26.2254
 11
7.11325
 21
26.0551
  0
LINE
  8
0
 10
7.11325
 20
26.0551
 11
7.11332
 21
26.0537
  0
LINE
  8
0
 10
7.11332
 20
26.0537
 11
7.13124
 21
25.9445
  0
LINE
  8
0
 10
7.13124
 20
25.9445
 11
7.13882
 21
25.8938
  0
LINE
  8
0
 10
7.13882
 20
25.8938
 11
7.14079
 21
25.8806
  0
LINE
  8
0
 10
7.14079
 20
25.8806
 11
7.17327
 21
25.7548
  0
LINE
  8
0
 10
7.17327
 20
25.7548
 11
7.18583
 21
25.7061
  0
LINE
  8
0
 10
7.18583
 20
25.7061
 11
7.21726
 21
25.6238
  0
LINE
  8
0
 10
7.21726
 20
25.6238
 11
7.24732
 21
25.545
  0
LINE
  8
0
 10
7.24732
 20
25.545
 11
7.27033
 21
25.5018
  0
LINE
  8
0
 10
7.27033
 20
25.5018
 11
7.32376
 21
25.4014
  0
LINE
  8
0
 10
7.32376
 20
25.4014
 11
7.33227
 21
25.3897
  0
LINE
  8
0
 10
7.33227
 20
25.3897
 11
7.36856
 21
25.34
  0
LINE
  8
0
 10
7.36856
 20
25.34
 11
7.40312
 21
25.2791
  0
LINE
  8
0
 10
7.40312
 20
25.2791
 11
7.41325
 21
25.2612
  0
LINE
  8
0
 10
7.41325
 20
25.2612
 11
7.48184
 21
25.1746
  0
LINE
  8
0
 10
7.48184
 20
25.1746
 11
7.51359
 21
25.1345
  0
LINE
  8
0
 10
7.51359
 20
25.1345
 11
7.56855
 21
25.0875
  0
LINE
  8
0
 10
7.56855
 20
25.0875
 11
7.62232
 21
25.0416
  0
LINE
  8
0
 10
7.62232
 20
25.0416
 11
7.66398
 21
25.021
  0
LINE
  8
0
 10
7.66398
 20
25.021
 11
7.73676
 21
24.9849
  0
LINE
  8
0
 10
7.73676
 20
24.9849
 11
7.76889
 21
24.9797
  0
LINE
  8
0
 10
7.76889
 20
24.9797
 11
7.85409
 21
24.9659
  0
LINE
  8
0
 10
7.85409
 20
24.9659
 11
11
 21
24.9659
  0
LINE
  8
0
 10
11
 20
24.9659
 11
11
 21
45.5
  0
LINE
  8
0
 10
11
 20
45.5
 11
5.15956
 21
45.5
  0
LINE
  8
0
 10
5.15956
 20
45.5
 11
5.15956
 21
41.5
  0
LINE
  8
0
 10
36.5
 20
0
 11
42.3476
 21
0
  0
LINE
  8
0
 10
42.3476
 20
0
 11
42.3476
 21
4
  0
LINE
  8
0
 10
42.3476
 20
4
 11
41
 21
4
  0
LINE
  8
0
 10
41
 20
4
 11
41
 21
4.89591
  0
LINE
  8
0
 10
41
 20
4.89591
 11
40.3959
 21
5.5
  0
LINE
  8
0
 10
40.3959
 20
5.5
 11
40.3959
 21
21.5077
  0
LINE
  8
0
 10
40.3959
 20
21.5077
 11
40.3924
 21
21.5687
  0
LINE
  8
0
 10
40.3924
 20
21.5687
 11
40.3867
 21
21.6679
  0
LINE
  8
0
 10
40.3867
 20
21.6679
 11
40.3812
 21
21.6992
  0
LINE
  8
0
 10
40.3812
 20
21.6992
 11
40.3592
 21
21.8241
  0
LINE
  8
0
 10
40.3592
 20
21.8241
 11
40.3586
 21
21.8259
  0
LINE
  8
0
 10
40.3586
 20
21.8259
 11
40.3562
 21
21.8339
  0
LINE
  8
0
 10
40.3562
 20
21.8339
 11
40.323
 21
21.9654
  0
LINE
  8
0
 10
40.323
 20
21.9654
 11
40.3142
 21
22.0004
  0
LINE
  8
0
 10
40.3142
 20
22.0004
 11
40.2778
 21
22.0978
  0
LINE
  8
0
 10
40.2778
 20
22.0978
 11
40.2527
 21
22.165
  0
LINE
  8
0
 10
40.2527
 20
22.165
 11
40.2237
 21
22.2208
  0
LINE
  8
0
 10
40.2237
 20
22.2208
 11
40.1762
 21
22.3118
  0
LINE
  8
0
 10
40.1762
 20
22.3118
 11
40.1608
 21
22.3335
  0
LINE
  8
0
 10
40.1608
 20
22.3335
 11
40.0971
 21
22.4227
  0
LINE
  8
0
 10
40.0971
 20
22.4227
 11
40.0892
 21
22.4371
  0
LINE
  8
0
 10
40.0892
 20
22.4371
 11
40.0868
 21
22.4415
  0
LINE
  8
0
 10
40.0868
 20
22.4415
 11
40.0096
 21
22.5421
  0
LINE
  8
0
 10
40.0096
 20
22.5421
 11
39.9864
 21
22.5723
  0
LINE
  8
0
 10
39.9864
 20
22.5723
 11
39.9221
 21
22.629
  0
LINE
  8
0
 10
39.9221
 20
22.629
 11
39.8777
 21
22.6681
  0
LINE
  8
0
 10
39.8777
 20
22.6681
 11
39.8259
 21
22.6945
  0
LINE
  8
0
 10
39.8259
 20
22.6945
 11
39.7632
 21
22.7266
  0
LINE
  8
0
 10
39.7632
 20
22.7266
 11
39.7203
 21
22.7337
  0
LINE
  8
0
 10
39.7203
 20
22.7337
 11
39.6459
 21
22.7462
  0
LINE
  8
0
 10
39.6459
 20
22.7462
 11
36.5
 21
22.7462
  0
LINE
  8
0
 10
36.5
 20
22.7462
 11
36.5
 21
0
  0
LINE
  8
0
 10
36.5
 20
24.9659
 11
39.6459
 21
24.9659
  0
LINE
  8
0
 10
39.6459
 20
24.9659
 11
39.6756
 21
24.9707
  0
LINE
  8
0
 10
39.6756
 20
24.9707
 11
39.7632
 21
24.9849
  0
LINE
  8
0
 10
39.7632
 20
24.9849
 11
39.8
 21
25.0031
  0
LINE
  8
0
 10
39.8
 20
25.0031
 11
39.8777
 21
25.0416
  0
LINE
  8
0
 10
39.8777
 20
25.0416
 11
39.9317
 21
25.0878
  0
LINE
  8
0
 10
39.9317
 20
25.0878
 11
39.9864
 21
25.1345
  0
LINE
  8
0
 10
39.9864
 20
25.1345
 11
40.0662
 21
25.2352
  0
LINE
  8
0
 10
40.0662
 20
25.2352
 11
40.0868
 21
25.2612
  0
LINE
  8
0
 10
40.0868
 20
25.2612
 11
40.1314
 21
25.34
  0
LINE
  8
0
 10
40.1314
 20
25.34
 11
40.1762
 21
25.4014
  0
LINE
  8
0
 10
40.1762
 20
25.4014
 11
40.1876
 21
25.4228
  0
LINE
  8
0
 10
40.1876
 20
25.4228
 11
40.2527
 21
25.545
  0
LINE
  8
0
 10
40.2527
 20
25.545
 11
40.2831
 21
25.6248
  0
LINE
  8
0
 10
40.2831
 20
25.6248
 11
40.3142
 21
25.7061
  0
LINE
  8
0
 10
40.3142
 20
25.7061
 11
40.3532
 21
25.8575
  0
LINE
  8
0
 10
40.3532
 20
25.8575
 11
40.3592
 21
25.8806
  0
LINE
  8
0
 10
40.3592
 20
25.8806
 11
40.3688
 21
25.9445
  0
LINE
  8
0
 10
40.3688
 20
25.9445
 11
40.3865
 21
26.0524
  0
LINE
  8
0
 10
40.3865
 20
26.0524
 11
40.3867
 21
26.0537
  0
LINE
  8
0
 10
40.3867
 20
26.0537
 11
40.3957
 21
26.2219
  0
LINE
  8
0
 10
40.3957
 20
26.2219
 11
40.3959
 21
26.2254
  0
LINE
  8
0
 10
40.3959
 20
26.2254
 11
40.3959
 21
40
  0
LINE
  8
0
 10
40.3959
 20
40
 11
41
 21
40.6041
  0
LINE
  8
0
 10
41
 20
40.6041
 11
41
 21
41.5
  0
LINE
  8
0
 10
41
 20
41.5
 11
42.3476
 21
41.5
  0
LINE
  8
0
 10
42.3476
 20
41.5
 11
42.3476
 21
45.5
  0
LINE
  8
0
 10
42.3476
 20
45.5
 11
36.5
 21
45.5
  0
LINE
  8
0
 10
36.5
 20
45.5
 11
36.5
 21
24.9659
  0
LINE
  8
0
 10
45.1596
 20
0
 11
47.5
 21
0
  0
LINE
  8
0
 10
47.5
 20
0
 11
47.5
 21
3.5
  0
LINE
  8
0
 10
47.5
 20
3.5
 11
47
 21
4
  0
LINE
  8
0
 10
47
 20
4
 11
45.1596
 21
4
  0
LINE
  8
0
 10
45.1596
 20
4
 11
45.1596
 21
0
  0
LINE
  8
0
 10
45.1596
 20
41.5
 11
47
 21
41.5
  0
LINE
  8
0
 10
47
 20
41.5
 11
47.5
 21
42
  0
LINE
  8
0
 10
47.5
 20
42
 11
47.5
 21
45.5
  0
LINE
  8
0
 10
47.5
 20
45.5
 11
45.1596
 21
45.5
  0
LINE
  8
0
 10
45.1596
 20
45.5
 11
45.1596
 21
41.5
  0
ENDSEC
  0
SECTION
  2
OBJECTS
  0
DICTIONARY
  0
ENDSEC
  0
EOF
