  0
SECTION
  2
BLOCKS
  0
ENDSEC
  0
SECTION
  2
ENTITIES
  0
LINE
  8
0
 10
0
 20
0
 11
2.23013
 21
0
  0
LINE
  8
0
 10
2.23013
 20
0
 11
2.23013
 21
4
  0
LINE
  8
0
 10
2.23013
 20
4
 11
0.499999
 21
4
  0
LINE
  8
0
 10
0.499999
 20
4
 11
0
 21
3.5
  0
LINE
  8
0
 10
0
 20
3.5
 11
0
 21
0
  0
LINE
  8
0
 10
0
 20
42
 11
0.499999
 21
41.5
  0
LINE
  8
0
 10
0.499999
 20
41.5
 11
2.23013
 21
41.5
  0
LINE
  8
0
 10
2.23013
 20
41.5
 11
2.23013
 21
45.5
  0
LINE
  8
0
 10
2.23013
 20
45.5
 11
0
 21
45.5
  0
LINE
  8
0
 10
0
 20
45.5
 11
0
 21
42
  0
LINE
  8
0
 10
5.27128
 20
0
 11
11
 21
0
  0
LINE
  8
0
 10
11
 20
0
 11
11
 21
23.2851
  0
LINE
  8
0
 10
11
 20
23.2851
 11
7.85409
 21
23.2851
  0
LINE
  8
0
 10
7.85409
 20
23.2851
 11
7.80459
 21
23.2603
  0
LINE
  8
0
 10
7.80459
 20
23.2603
 11
7.73676
 21
23.2435
  0
LINE
  8
0
 10
7.73676
 20
23.2435
 11
7.73116
 21
23.2393
  0
LINE
  8
0
 10
7.73116
 20
23.2393
 11
7.62232
 21
23.1571
  0
LINE
  8
0
 10
7.62232
 20
23.1571
 11
7.58437
 21
23.1076
  0
LINE
  8
0
 10
7.58437
 20
23.1076
 11
7.51359
 21
23.0153
  0
LINE
  8
0
 10
7.51359
 20
23.0153
 11
7.41697
 21
22.829
  0
LINE
  8
0
 10
7.41697
 20
22.829
 11
7.41325
 21
22.8219
  0
LINE
  8
0
 10
7.41325
 20
22.8219
 11
7.40954
 21
22.8119
  0
LINE
  8
0
 10
7.40954
 20
22.8119
 11
7.32376
 21
22.6561
  0
LINE
  8
0
 10
7.32376
 20
22.6561
 11
7.28567
 21
22.5612
  0
LINE
  8
0
 10
7.28567
 20
22.5612
 11
7.24732
 21
22.4657
  0
LINE
  8
0
 10
7.24732
 20
22.4657
 11
7.19798
 21
22.2944
  0
LINE
  8
0
 10
7.19798
 20
22.2944
 11
7.18583
 21
22.2619
  0
LINE
  8
0
 10
7.18583
 20
22.2619
 11
7.18228
 21
22.2478
  0
LINE
  8
0
 10
7.18228
 20
22.2478
 11
7.14079
 21
22.0836
  0
LINE
  8
0
 10
7.14079
 20
22.0836
 11
7.12716
 21
21.9904
  0
LINE
  8
0
 10
7.12716
 20
21.9904
 11
7.11332
 21
21.8958
  0
LINE
  8
0
 10
7.11332
 20
21.8958
 11
7.10501
 21
21.7227
  0
LINE
  8
0
 10
7.10501
 20
21.7227
 11
7.10409
 21
21.7034
  0
LINE
  8
0
 10
7.10409
 20
21.7034
 11
7.10409
 21
5.5
  0
LINE
  8
0
 10
7.10409
 20
5.5
 11
6.5
 21
4.89591
  0
LINE
  8
0
 10
6.5
 20
4.89591
 11
6.5
 21
4
  0
LINE
  8
0
 10
6.5
 20
4
 11
5.27128
 21
4
  0
LINE
  8
0
 10
5.27128
 20
4
 11
5.27128
 21
0
  0
LINE
  8
0
 10
5.27128
 20
41.5
 11
6.5
 21
41.5
  0
LINE
  8
0
 10
6.5
 20
41.5
 11
6.5
 21
40.6041
  0
LINE
  8
0
 10
6.5
 20
40.6041
 11
7.10409
 21
40
  0
LINE
  8
0
 10
7.10409
 20
40
 11
7.10409
 21
26.0001
  0
LINE
  8
0
 10
7.10409
 20
26.0001
 11
7.11011
 21
25.8772
  0
LINE
  8
0
 10
7.11011
 20
25.8772
 11
7.11332
 21
25.8118
  0
LINE
  8
0
 10
7.11332
 20
25.8118
 11
7.12525
 21
25.7321
  0
LINE
  8
0
 10
7.12525
 20
25.7321
 11
7.14079
 21
25.6281
  0
LINE
  8
0
 10
7.14079
 20
25.6281
 11
7.15011
 21
25.592
  0
LINE
  8
0
 10
7.15011
 20
25.592
 11
7.18081
 21
25.473
  0
LINE
  8
0
 10
7.18081
 20
25.473
 11
7.18446
 21
25.4549
  0
LINE
  8
0
 10
7.18446
 20
25.4549
 11
7.18583
 21
25.448
  0
LINE
  8
0
 10
7.18583
 20
25.448
 11
7.22909
 21
25.3025
  0
LINE
  8
0
 10
7.22909
 20
25.3025
 11
7.24732
 21
25.2411
  0
LINE
  8
0
 10
7.24732
 20
25.2411
 11
7.28074
 21
25.1604
  0
LINE
  8
0
 10
7.28074
 20
25.1604
 11
7.32376
 21
25.0566
  0
LINE
  8
0
 10
7.32376
 20
25.0566
 11
7.33936
 21
25.0291
  0
LINE
  8
0
 10
7.33936
 20
25.0291
 11
7.38659
 21
24.946
  0
LINE
  8
0
 10
7.38659
 20
24.946
 11
7.40476
 21
24.8994
  0
LINE
  8
0
 10
7.40476
 20
24.8994
 11
7.41325
 21
24.8777
  0
LINE
  8
0
 10
7.41325
 20
24.8777
 11
7.47527
 21
24.7639
  0
LINE
  8
0
 10
7.47527
 20
24.7639
 11
7.51359
 21
24.6935
  0
LINE
  8
0
 10
7.51359
 20
24.6935
 11
7.5522
 21
24.6456
  0
LINE
  8
0
 10
7.5522
 20
24.6456
 11
7.62232
 21
24.5586
  0
LINE
  8
0
 10
7.62232
 20
24.5586
 11
7.63721
 21
24.5479
  0
LINE
  8
0
 10
7.63721
 20
24.5479
 11
7.71445
 21
24.4923
  0
LINE
  8
0
 10
7.71445
 20
24.4923
 11
7.73077
 21
24.4697
  0
LINE
  8
0
 10
7.73077
 20
24.4697
 11
7.73676
 21
24.4614
  0
LINE
  8
0
 10
7.73676
 20
24.4614
 11
7.83354
 21
24.4175
  0
LINE
  8
0
 10
7.83354
 20
24.4175
 11
7.85409
 21
24.4082
  0
LINE
  8
0
 10
7.85409
 20
24.4082
 11
11
 21
24.4082
  0
LINE
  8
0
 10
11
 20
24.4082
 11
11
 21
45.5
  0
LINE
  8
0
 10
11
 20
45.5
 11
5.27128
 21
45.5
  0
LINE
  8
0
 10
5.27128
 20
45.5
 11
5.27128
 21
41.5
  0
LINE
  8
0
 10
36.5
 20
0
 11
42.2301
 21
0
  0
LINE
  8
0
 10
42.2301
 20
0
 11
42.2301
 21
4
  0
LINE
  8
0
 10
42.2301
 20
4
 11
41
 21
4
  0
LINE
  8
0
 10
41
 20
4
 11
41
 21
4.89591
  0
LINE
  8
0
 10
41
 20
4.89591
 11
40.3959
 21
5.5
  0
LINE
  8
0
 10
40.3959
 20
5.5
 11
40.3959
 21
21.7034
  0
LINE
  8
0
 10
40.3959
 20
21.7034
 11
40.3891
 21
21.8447
  0
LINE
  8
0
 10
40.3891
 20
21.8447
 11
40.3867
 21
21.8958
  0
LINE
  8
0
 10
40.3867
 20
21.8958
 11
40.3726
 21
21.992
  0
LINE
  8
0
 10
40.3726
 20
21.992
 11
40.3592
 21
22.0836
  0
LINE
  8
0
 10
40.3592
 20
22.0836
 11
40.3465
 21
22.1339
  0
LINE
  8
0
 10
40.3465
 20
22.1339
 11
40.3142
 21
22.2619
  0
LINE
  8
0
 10
40.3142
 20
22.2619
 11
40.3114
 21
22.2694
  0
LINE
  8
0
 10
40.3114
 20
22.2694
 11
40.302
 21
22.2944
  0
LINE
  8
0
 10
40.302
 20
22.2944
 11
40.2661
 21
22.419
  0
LINE
  8
0
 10
40.2661
 20
22.419
 11
40.2527
 21
22.4657
  0
LINE
  8
0
 10
40.2527
 20
22.4657
 11
40.2136
 21
22.563
  0
LINE
  8
0
 10
40.2136
 20
22.563
 11
40.1762
 21
22.6561
  0
LINE
  8
0
 10
40.1762
 20
22.6561
 11
40.1543
 21
22.6959
  0
LINE
  8
0
 10
40.1543
 20
22.6959
 11
40.0905
 21
22.8119
  0
LINE
  8
0
 10
40.0905
 20
22.8119
 11
40.088
 21
22.8186
  0
LINE
  8
0
 10
40.088
 20
22.8186
 11
40.0868
 21
22.8219
  0
LINE
  8
0
 10
40.0868
 20
22.8219
 11
40.017
 21
22.9563
  0
LINE
  8
0
 10
40.017
 20
22.9563
 11
39.9864
 21
23.0153
  0
LINE
  8
0
 10
39.9864
 20
23.0153
 11
39.9398
 21
23.0761
  0
LINE
  8
0
 10
39.9398
 20
23.0761
 11
39.8777
 21
23.1571
  0
LINE
  8
0
 10
39.8777
 20
23.1571
 11
39.8546
 21
23.1745
  0
LINE
  8
0
 10
39.8546
 20
23.1745
 11
39.7632
 21
23.2435
  0
LINE
  8
0
 10
39.7632
 20
23.2435
 11
39.7589
 21
23.2446
  0
LINE
  8
0
 10
39.7589
 20
23.2446
 11
39.6954
 21
23.2603
  0
LINE
  8
0
 10
39.6954
 20
23.2603
 11
39.6519
 21
23.2821
  0
LINE
  8
0
 10
39.6519
 20
23.2821
 11
39.6459
 21
23.2851
  0
LINE
  8
0
 10
39.6459
 20
23.2851
 11
36.5
 21
23.2851
  0
LINE
  8
0
 10
36.5
 20
23.2851
 11
36.5
 21
0
  0
LINE
  8
0
 10
36.5
 20
24.4082
 11
39.6459
 21
24.4082
  0
LINE
  8
0
 10
39.6459
 20
24.4082
 11
39.7535
 21
24.457
  0
LINE
  8
0
 10
39.7535
 20
24.457
 11
39.7632
 21
24.4614
  0
LINE
  8
0
 10
39.7632
 20
24.4614
 11
39.7856
 21
24.4923
  0
LINE
  8
0
 10
39.7856
 20
24.4923
 11
39.8777
 21
24.5586
  0
LINE
  8
0
 10
39.8777
 20
24.5586
 11
39.9013
 21
24.5879
  0
LINE
  8
0
 10
39.9013
 20
24.5879
 11
39.9864
 21
24.6935
  0
LINE
  8
0
 10
39.9864
 20
24.6935
 11
40.0624
 21
24.8331
  0
LINE
  8
0
 10
40.0624
 20
24.8331
 11
40.0868
 21
24.8777
  0
LINE
  8
0
 10
40.0868
 20
24.8777
 11
40.1134
 21
24.946
  0
LINE
  8
0
 10
40.1134
 20
24.946
 11
40.1762
 21
25.0566
  0
LINE
  8
0
 10
40.1762
 20
25.0566
 11
40.2025
 21
25.1199
  0
LINE
  8
0
 10
40.2025
 20
25.1199
 11
40.2527
 21
25.2411
  0
LINE
  8
0
 10
40.2527
 20
25.2411
 11
40.3098
 21
25.4332
  0
LINE
  8
0
 10
40.3098
 20
25.4332
 11
40.3142
 21
25.448
  0
LINE
  8
0
 10
40.3142
 20
25.448
 11
40.3192
 21
25.473
  0
LINE
  8
0
 10
40.3192
 20
25.473
 11
40.3592
 21
25.6281
  0
LINE
  8
0
 10
40.3592
 20
25.6281
 11
40.369
 21
25.6935
  0
LINE
  8
0
 10
40.369
 20
25.6935
 11
40.3867
 21
25.8118
  0
LINE
  8
0
 10
40.3867
 20
25.8118
 11
40.3936
 21
25.9523
  0
LINE
  8
0
 10
40.3936
 20
25.9523
 11
40.3959
 21
26.0001
  0
LINE
  8
0
 10
40.3959
 20
26.0001
 11
40.3959
 21
40
  0
LINE
  8
0
 10
40.3959
 20
40
 11
41
 21
40.6041
  0
LINE
  8
0
 10
41
 20
40.6041
 11
41
 21
41.5
  0
LINE
  8
0
 10
41
 20
41.5
 11
42.2301
 21
41.5
  0
LINE
  8
0
 10
42.2301
 20
41.5
 11
42.2301
 21
45.5
  0
LINE
  8
0
 10
42.2301
 20
45.5
 11
36.5
 21
45.5
  0
LINE
  8
0
 10
36.5
 20
45.5
 11
36.5
 21
24.4082
  0
LINE
  8
0
 10
45.2713
 20
0
 11
47.5
 21
0
  0
LINE
  8
0
 10
47.5
 20
0
 11
47.5
 21
3.5
  0
LINE
  8
0
 10
47.5
 20
3.5
 11
47
 21
4
  0
LINE
  8
0
 10
47
 20
4
 11
45.2713
 21
4
  0
LINE
  8
0
 10
45.2713
 20
4
 11
45.2713
 21
0
  0
LINE
  8
0
 10
45.2713
 20
41.5
 11
47
 21
41.5
  0
LINE
  8
0
 10
47
 20
41.5
 11
47.5
 21
42
  0
LINE
  8
0
 10
47.5
 20
42
 11
47.5
 21
45.5
  0
LINE
  8
0
 10
47.5
 20
45.5
 11
45.2713
 21
45.5
  0
LINE
  8
0
 10
45.2713
 20
45.5
 11
45.2713
 21
41.5
  0
ENDSEC
  0
SECTION
  2
OBJECTS
  0
DICTIONARY
  0
ENDSEC
  0
EOF
