  0
SECTION
  2
BLOCKS
  0
ENDSEC
  0
SECTION
  2
ENTITIES
  0
LINE
  8
0
 10
0
 20
0
 11
2.09078
 21
0
  0
LINE
  8
0
 10
2.09078
 20
0
 11
2.09078
 21
4
  0
LINE
  8
0
 10
2.09078
 20
4
 11
0.499999
 21
4
  0
LINE
  8
0
 10
0.499999
 20
4
 11
0
 21
3.5
  0
LINE
  8
0
 10
0
 20
3.5
 11
0
 21
0
  0
LINE
  8
0
 10
0
 20
42
 11
0.499999
 21
41.5
  0
LINE
  8
0
 10
0.499999
 20
41.5
 11
2.09078
 21
41.5
  0
LINE
  8
0
 10
2.09078
 20
41.5
 11
2.09078
 21
45.5
  0
LINE
  8
0
 10
2.09078
 20
45.5
 11
0
 21
45.5
  0
LINE
  8
0
 10
0
 20
45.5
 11
0
 21
42
  0
LINE
  8
0
 10
5.40858
 20
0
 11
11
 21
0
  0
LINE
  8
0
 10
11
 20
0
 11
11
 21
45.5
  0
LINE
  8
0
 10
11
 20
45.5
 11
5.40858
 21
45.5
  0
LINE
  8
0
 10
5.40858
 20
45.5
 11
5.40858
 21
41.5
  0
LINE
  8
0
 10
5.40858
 20
41.5
 11
6.5
 21
41.5
  0
LINE
  8
0
 10
6.5
 20
41.5
 11
6.5
 21
40.6041
  0
LINE
  8
0
 10
6.5
 20
40.6041
 11
7.10409
 21
40
  0
LINE
  8
0
 10
7.10409
 20
40
 11
7.10409
 21
25.4256
  0
LINE
  8
0
 10
7.10409
 20
25.4256
 11
7.10752
 21
25.3356
  0
LINE
  8
0
 10
7.10752
 20
25.3356
 11
7.11332
 21
25.1837
  0
LINE
  8
0
 10
7.11332
 20
25.1837
 11
7.11537
 21
25.1661
  0
LINE
  8
0
 10
7.11537
 20
25.1661
 11
7.1201
 21
25.1254
  0
LINE
  8
0
 10
7.1201
 20
25.1254
 11
7.13298
 21
24.9647
  0
LINE
  8
0
 10
7.13298
 20
24.9647
 11
7.14079
 21
24.8672
  0
LINE
  8
0
 10
7.14079
 20
24.8672
 11
7.15561
 21
24.76
  0
LINE
  8
0
 10
7.15561
 20
24.76
 11
7.17812
 21
24.5972
  0
LINE
  8
0
 10
7.17812
 20
24.5972
 11
7.1816
 21
24.5489
  0
LINE
  8
0
 10
7.1816
 20
24.5489
 11
7.18583
 21
24.4899
  0
LINE
  8
0
 10
7.18583
 20
24.4899
 11
7.20805
 21
24.281
  0
LINE
  8
0
 10
7.20805
 20
24.281
 11
7.22588
 21
24.1132
  0
LINE
  8
0
 10
7.22588
 20
24.1132
 11
7.22671
 21
23.9521
  0
LINE
  8
0
 10
7.22671
 20
23.9521
 11
7.22831
 21
23.6438
  0
LINE
  8
0
 10
7.22831
 20
23.6438
 11
7.18583
 21
23.2018
  0
LINE
  8
0
 10
7.18583
 20
23.2018
 11
7.18328
 21
23.1626
  0
LINE
  8
0
 10
7.18328
 20
23.1626
 11
7.14079
 21
22.8398
  0
LINE
  8
0
 10
7.14079
 20
22.8398
 11
7.12558
 21
22.6404
  0
LINE
  8
0
 10
7.12558
 20
22.6404
 11
7.11332
 21
22.5318
  0
LINE
  8
0
 10
7.11332
 20
22.5318
 11
7.1103
 21
22.4503
  0
LINE
  8
0
 10
7.1103
 20
22.4503
 11
7.10409
 21
22.2823
  0
LINE
  8
0
 10
7.10409
 20
22.2823
 11
7.10409
 21
5.5
  0
LINE
  8
0
 10
7.10409
 20
5.5
 11
6.5
 21
4.89591
  0
LINE
  8
0
 10
6.5
 20
4.89591
 11
6.5
 21
4
  0
LINE
  8
0
 10
6.5
 20
4
 11
5.40858
 21
4
  0
LINE
  8
0
 10
5.40858
 20
4
 11
5.40858
 21
0
  0
LINE
  8
0
 10
36.5
 20
0
 11
42.0908
 21
0
  0
LINE
  8
0
 10
42.0908
 20
0
 11
42.0908
 21
4
  0
LINE
  8
0
 10
42.0908
 20
4
 11
41
 21
4
  0
LINE
  8
0
 10
41
 20
4
 11
41
 21
4.89591
  0
LINE
  8
0
 10
41
 20
4.89591
 11
40.3959
 21
5.5
  0
LINE
  8
0
 10
40.3959
 20
5.5
 11
40.3959
 21
22.2823
  0
LINE
  8
0
 10
40.3959
 20
22.2823
 11
40.3918
 21
22.3925
  0
LINE
  8
0
 10
40.3918
 20
22.3925
 11
40.3867
 21
22.5318
  0
LINE
  8
0
 10
40.3867
 20
22.5318
 11
40.3829
 21
22.5655
  0
LINE
  8
0
 10
40.3829
 20
22.5655
 11
40.3744
 21
22.6404
  0
LINE
  8
0
 10
40.3744
 20
22.6404
 11
40.3652
 21
22.7619
  0
LINE
  8
0
 10
40.3652
 20
22.7619
 11
40.3592
 21
22.8398
  0
LINE
  8
0
 10
40.3592
 20
22.8398
 11
40.3418
 21
22.972
  0
LINE
  8
0
 10
40.3418
 20
22.972
 11
40.3167
 21
23.1626
  0
LINE
  8
0
 10
40.3167
 20
23.1626
 11
40.3156
 21
23.1792
  0
LINE
  8
0
 10
40.3156
 20
23.1792
 11
40.3142
 21
23.2018
  0
LINE
  8
0
 10
40.3142
 20
23.2018
 11
40.2895
 21
23.4581
  0
LINE
  8
0
 10
40.2895
 20
23.4581
 11
40.2717
 21
23.6438
  0
LINE
  8
0
 10
40.2717
 20
23.6438
 11
40.2725
 21
23.7986
  0
LINE
  8
0
 10
40.2725
 20
23.7986
 11
40.2741
 21
24.1132
  0
LINE
  8
0
 10
40.2741
 20
24.1132
 11
40.3142
 21
24.4899
  0
LINE
  8
0
 10
40.3142
 20
24.4899
 11
40.3219
 21
24.5972
  0
LINE
  8
0
 10
40.3219
 20
24.5972
 11
40.3592
 21
24.8672
  0
LINE
  8
0
 10
40.3592
 20
24.8672
 11
40.3799
 21
25.1254
  0
LINE
  8
0
 10
40.3799
 20
25.1254
 11
40.3867
 21
25.1837
  0
LINE
  8
0
 10
40.3867
 20
25.1837
 11
40.3882
 21
25.2246
  0
LINE
  8
0
 10
40.3882
 20
25.2246
 11
40.3959
 21
25.4256
  0
LINE
  8
0
 10
40.3959
 20
25.4256
 11
40.3959
 21
40
  0
LINE
  8
0
 10
40.3959
 20
40
 11
41
 21
40.6041
  0
LINE
  8
0
 10
41
 20
40.6041
 11
41
 21
41.5
  0
LINE
  8
0
 10
41
 20
41.5
 11
42.0908
 21
41.5
  0
LINE
  8
0
 10
42.0908
 20
41.5
 11
42.0908
 21
45.5
  0
LINE
  8
0
 10
42.0908
 20
45.5
 11
36.5
 21
45.5
  0
LINE
  8
0
 10
36.5
 20
45.5
 11
36.5
 21
0
  0
LINE
  8
0
 10
45.4086
 20
0
 11
47.5
 21
0
  0
LINE
  8
0
 10
47.5
 20
0
 11
47.5
 21
3.5
  0
LINE
  8
0
 10
47.5
 20
3.5
 11
47
 21
4
  0
LINE
  8
0
 10
47
 20
4
 11
45.4086
 21
4
  0
LINE
  8
0
 10
45.4086
 20
4
 11
45.4086
 21
0
  0
LINE
  8
0
 10
45.4086
 20
41.5
 11
47
 21
41.5
  0
LINE
  8
0
 10
47
 20
41.5
 11
47.5
 21
42
  0
LINE
  8
0
 10
47.5
 20
42
 11
47.5
 21
45.5
  0
LINE
  8
0
 10
47.5
 20
45.5
 11
45.4086
 21
45.5
  0
LINE
  8
0
 10
45.4086
 20
45.5
 11
45.4086
 21
41.5
  0
ENDSEC
  0
SECTION
  2
OBJECTS
  0
DICTIONARY
  0
ENDSEC
  0
EOF
