  0
SECTION
  2
BLOCKS
  0
ENDSEC
  0
SECTION
  2
ENTITIES
  0
LINE
  8
0
 10
0
 20
0
 11
2.05425
 21
0
  0
LINE
  8
0
 10
2.05425
 20
0
 11
2.05425
 21
4
  0
LINE
  8
0
 10
2.05425
 20
4
 11
0.499999
 21
4
  0
LINE
  8
0
 10
0.499999
 20
4
 11
0
 21
3.5
  0
LINE
  8
0
 10
0
 20
3.5
 11
0
 21
0
  0
LINE
  8
0
 10
0
 20
42
 11
0.499999
 21
41.5
  0
LINE
  8
0
 10
0.499999
 20
41.5
 11
2.05425
 21
41.5
  0
LINE
  8
0
 10
2.05425
 20
41.5
 11
2.05425
 21
45.5
  0
LINE
  8
0
 10
2.05425
 20
45.5
 11
0
 21
45.5
  0
LINE
  8
0
 10
0
 20
45.5
 11
0
 21
42
  0
LINE
  8
0
 10
5.44387
 20
4
 11
5.44787
 21
1.38722
  0
LINE
  8
0
 10
5.44787
 20
1.38722
 11
5.44787
 21
0
  0
LINE
  8
0
 10
5.44787
 20
0
 11
11
 21
0
  0
LINE
  8
0
 10
11
 20
0
 11
11
 21
45.5
  0
LINE
  8
0
 10
11
 20
45.5
 11
5.44787
 21
45.5
  0
LINE
  8
0
 10
5.44787
 20
45.5
 11
5.44787
 21
41.5
  0
LINE
  8
0
 10
5.44787
 20
41.5
 11
6.5
 21
41.5
  0
LINE
  8
0
 10
6.5
 20
41.5
 11
6.5
 21
40.6041
  0
LINE
  8
0
 10
6.5
 20
40.6041
 11
7.10409
 21
40
  0
LINE
  8
0
 10
7.10409
 20
40
 11
7.10409
 21
24.1739
  0
LINE
  8
0
 10
7.10409
 20
24.1739
 11
7.10427
 21
24.1602
  0
LINE
  8
0
 10
7.10427
 20
24.1602
 11
7.10442
 21
24.1498
  0
LINE
  8
0
 10
7.10442
 20
24.1498
 11
7.10475
 21
23.651
  0
LINE
  8
0
 10
7.10475
 20
23.651
 11
7.10477
 21
23.614
  0
LINE
  8
0
 10
7.10477
 20
23.614
 11
7.10409
 21
23.5586
  0
LINE
  8
0
 10
7.10409
 20
23.5586
 11
7.10409
 21
5.5
  0
LINE
  8
0
 10
7.10409
 20
5.5
 11
6.5
 21
4.89591
  0
LINE
  8
0
 10
6.5
 20
4.89591
 11
6.5
 21
4
  0
LINE
  8
0
 10
6.5
 20
4
 11
5.44387
 21
4
  0
LINE
  8
0
 10
36.5
 20
0
 11
42.0543
 21
0
  0
LINE
  8
0
 10
42.0543
 20
0
 11
42.0543
 21
4
  0
LINE
  8
0
 10
42.0543
 20
4
 11
41
 21
4
  0
LINE
  8
0
 10
41
 20
4
 11
41
 21
4.89591
  0
LINE
  8
0
 10
41
 20
4.89591
 11
40.3959
 21
5.5
  0
LINE
  8
0
 10
40.3959
 20
5.5
 11
40.3959
 21
23.5586
  0
LINE
  8
0
 10
40.3959
 20
23.5586
 11
40.3955
 21
23.5914
  0
LINE
  8
0
 10
40.3955
 20
23.5914
 11
40.3952
 21
23.614
  0
LINE
  8
0
 10
40.3952
 20
23.614
 11
40.3956
 21
24.1306
  0
LINE
  8
0
 10
40.3956
 20
24.1306
 11
40.3956
 21
24.1498
  0
LINE
  8
0
 10
40.3956
 20
24.1498
 11
40.3959
 21
24.1739
  0
LINE
  8
0
 10
40.3959
 20
24.1739
 11
40.3959
 21
40
  0
LINE
  8
0
 10
40.3959
 20
40
 11
41
 21
40.6041
  0
LINE
  8
0
 10
41
 20
40.6041
 11
41
 21
41.5
  0
LINE
  8
0
 10
41
 20
41.5
 11
42.0543
 21
41.5
  0
LINE
  8
0
 10
42.0543
 20
41.5
 11
42.0543
 21
45.5
  0
LINE
  8
0
 10
42.0543
 20
45.5
 11
36.5
 21
45.5
  0
LINE
  8
0
 10
36.5
 20
45.5
 11
36.5
 21
0
  0
LINE
  8
0
 10
45.4439
 20
4
 11
45.4479
 21
1.38722
  0
LINE
  8
0
 10
45.4479
 20
1.38722
 11
45.4479
 21
0
  0
LINE
  8
0
 10
45.4479
 20
0
 11
47.5
 21
0
  0
LINE
  8
0
 10
47.5
 20
0
 11
47.5
 21
3.5
  0
LINE
  8
0
 10
47.5
 20
3.5
 11
47
 21
4
  0
LINE
  8
0
 10
47
 20
4
 11
45.4439
 21
4
  0
LINE
  8
0
 10
45.4479
 20
41.5
 11
47
 21
41.5
  0
LINE
  8
0
 10
47
 20
41.5
 11
47.5
 21
42
  0
LINE
  8
0
 10
47.5
 20
42
 11
47.5
 21
45.5
  0
LINE
  8
0
 10
47.5
 20
45.5
 11
45.4479
 21
45.5
  0
LINE
  8
0
 10
45.4479
 20
45.5
 11
45.4479
 21
41.5
  0
ENDSEC
  0
SECTION
  2
OBJECTS
  0
DICTIONARY
  0
ENDSEC
  0
EOF
