  0
SECTION
  2
BLOCKS
  0
ENDSEC
  0
SECTION
  2
ENTITIES
  0
LINE
  8
0
 10
0
 20
0
 11
2.41519
 21
0
  0
LINE
  8
0
 10
2.41519
 20
0
 11
2.41519
 21
4
  0
LINE
  8
0
 10
2.41519
 20
4
 11
0.499999
 21
4
  0
LINE
  8
0
 10
0.499999
 20
4
 11
0
 21
3.5
  0
LINE
  8
0
 10
0
 20
3.5
 11
0
 21
0
  0
LINE
  8
0
 10
0
 20
42
 11
0.499999
 21
41.5
  0
LINE
  8
0
 10
0.499999
 20
41.5
 11
2.41519
 21
41.5
  0
LINE
  8
0
 10
2.41519
 20
41.5
 11
2.41519
 21
45.5
  0
LINE
  8
0
 10
2.41519
 20
45.5
 11
0
 21
45.5
  0
LINE
  8
0
 10
0
 20
45.5
 11
0
 21
42
  0
LINE
  8
0
 10
5.0793
 20
0
 11
11
 21
0
  0
LINE
  8
0
 10
11
 20
0
 11
11
 21
45.5
  0
LINE
  8
0
 10
11
 20
45.5
 11
5.0793
 21
45.5
  0
LINE
  8
0
 10
5.0793
 20
45.5
 11
5.0793
 21
41.5
  0
LINE
  8
0
 10
5.0793
 20
41.5
 11
6.5
 21
41.5
  0
LINE
  8
0
 10
6.5
 20
41.5
 11
6.5
 21
40.6041
  0
LINE
  8
0
 10
6.5
 20
40.6041
 11
7.10409
 21
40
  0
LINE
  8
0
 10
7.10409
 20
40
 11
7.10409
 21
5.5
  0
LINE
  8
0
 10
7.10409
 20
5.5
 11
6.5
 21
4.89591
  0
LINE
  8
0
 10
6.5
 20
4.89591
 11
6.5
 21
4
  0
LINE
  8
0
 10
6.5
 20
4
 11
5.0793
 21
4
  0
LINE
  8
0
 10
5.0793
 20
4
 11
5.0793
 21
0
  0
LINE
  8
0
 10
36.5
 20
0
 11
42.4152
 21
0
  0
LINE
  8
0
 10
42.4152
 20
0
 11
42.4152
 21
4
  0
LINE
  8
0
 10
42.4152
 20
4
 11
41
 21
4
  0
LINE
  8
0
 10
41
 20
4
 11
41
 21
4.89591
  0
LINE
  8
0
 10
41
 20
4.89591
 11
40.3959
 21
5.5
  0
LINE
  8
0
 10
40.3959
 20
5.5
 11
40.3959
 21
40
  0
LINE
  8
0
 10
40.3959
 20
40
 11
41
 21
40.6041
  0
LINE
  8
0
 10
41
 20
40.6041
 11
41
 21
41.5
  0
LINE
  8
0
 10
41
 20
41.5
 11
42.4152
 21
41.5
  0
LINE
  8
0
 10
42.4152
 20
41.5
 11
42.4152
 21
45.5
  0
LINE
  8
0
 10
42.4152
 20
45.5
 11
36.5
 21
45.5
  0
LINE
  8
0
 10
36.5
 20
45.5
 11
36.5
 21
0
  0
LINE
  8
0
 10
45.0793
 20
0
 11
47.5
 21
0
  0
LINE
  8
0
 10
47.5
 20
0
 11
47.5
 21
3.5
  0
LINE
  8
0
 10
47.5
 20
3.5
 11
47
 21
4
  0
LINE
  8
0
 10
47
 20
4
 11
45.0793
 21
4
  0
LINE
  8
0
 10
45.0793
 20
4
 11
45.0793
 21
0
  0
LINE
  8
0
 10
45.0793
 20
41.5
 11
47
 21
41.5
  0
LINE
  8
0
 10
47
 20
41.5
 11
47.5
 21
42
  0
LINE
  8
0
 10
47.5
 20
42
 11
47.5
 21
45.5
  0
LINE
  8
0
 10
47.5
 20
45.5
 11
45.0793
 21
45.5
  0
LINE
  8
0
 10
45.0793
 20
45.5
 11
45.0793
 21
41.5
  0
ENDSEC
  0
SECTION
  2
OBJECTS
  0
DICTIONARY
  0
ENDSEC
  0
EOF
