  0
SECTION
  2
BLOCKS
  0
ENDSEC
  0
SECTION
  2
ENTITIES
  0
LINE
  8
0
 10
0
 20
0
 11
3.35317
 21
0
  0
LINE
  8
0
 10
3.35317
 20
0
 11
3.35317
 21
4
  0
LINE
  8
0
 10
3.35317
 20
4
 11
0.499999
 21
4
  0
LINE
  8
0
 10
0.499999
 20
4
 11
0
 21
3.5
  0
LINE
  8
0
 10
0
 20
3.5
 11
0
 21
0
  0
LINE
  8
0
 10
0
 20
42
 11
0.499999
 21
41.5
  0
LINE
  8
0
 10
0.499999
 20
41.5
 11
3.35317
 21
41.5
  0
LINE
  8
0
 10
3.35317
 20
41.5
 11
3.35317
 21
45.5
  0
LINE
  8
0
 10
3.35317
 20
45.5
 11
0
 21
45.5
  0
LINE
  8
0
 10
0
 20
45.5
 11
0
 21
42
  0
LINE
  8
0
 10
4.13404
 20
0
 11
11
 21
0
  0
LINE
  8
0
 10
11
 20
0
 11
11
 21
45.5
  0
LINE
  8
0
 10
11
 20
45.5
 11
4.13404
 21
45.5
  0
LINE
  8
0
 10
4.13404
 20
45.5
 11
4.13404
 21
41.5
  0
LINE
  8
0
 10
4.13404
 20
41.5
 11
6.39212
 21
41.5
  0
LINE
  8
0
 10
6.39212
 20
41.5
 11
6.39212
 21
40.712
  0
LINE
  8
0
 10
6.39212
 20
40.712
 11
7.10409
 21
40
  0
LINE
  8
0
 10
7.10409
 20
40
 11
7.10409
 21
5.5
  0
LINE
  8
0
 10
7.10409
 20
5.5
 11
6.39212
 21
4.78803
  0
LINE
  8
0
 10
6.39212
 20
4.78803
 11
6.39212
 21
4
  0
LINE
  8
0
 10
6.39212
 20
4
 11
4.13404
 21
4
  0
LINE
  8
0
 10
4.13404
 20
4
 11
4.13404
 21
0
  0
LINE
  8
0
 10
36.5
 20
0
 11
43.3532
 21
0
  0
LINE
  8
0
 10
43.3532
 20
0
 11
43.3532
 21
4
  0
LINE
  8
0
 10
43.3532
 20
4
 11
41.1079
 21
4
  0
LINE
  8
0
 10
41.1079
 20
4
 11
41.1079
 21
4.78803
  0
LINE
  8
0
 10
41.1079
 20
4.78803
 11
40.3959
 21
5.5
  0
LINE
  8
0
 10
40.3959
 20
5.5
 11
40.3959
 21
40
  0
LINE
  8
0
 10
40.3959
 20
40
 11
41.1079
 21
40.712
  0
LINE
  8
0
 10
41.1079
 20
40.712
 11
41.1079
 21
41.5
  0
LINE
  8
0
 10
41.1079
 20
41.5
 11
43.3532
 21
41.5
  0
LINE
  8
0
 10
43.3532
 20
41.5
 11
43.3532
 21
45.5
  0
LINE
  8
0
 10
43.3532
 20
45.5
 11
36.5
 21
45.5
  0
LINE
  8
0
 10
36.5
 20
45.5
 11
36.5
 21
0
  0
LINE
  8
0
 10
44.134
 20
0
 11
47.5
 21
0
  0
LINE
  8
0
 10
47.5
 20
0
 11
47.5
 21
3.5
  0
LINE
  8
0
 10
47.5
 20
3.5
 11
47
 21
4
  0
LINE
  8
0
 10
47
 20
4
 11
44.134
 21
4
  0
LINE
  8
0
 10
44.134
 20
4
 11
44.134
 21
0
  0
LINE
  8
0
 10
44.134
 20
41.5
 11
47
 21
41.5
  0
LINE
  8
0
 10
47
 20
41.5
 11
47.5
 21
42
  0
LINE
  8
0
 10
47.5
 20
42
 11
47.5
 21
45.5
  0
LINE
  8
0
 10
47.5
 20
45.5
 11
44.134
 21
45.5
  0
LINE
  8
0
 10
44.134
 20
45.5
 11
44.134
 21
41.5
  0
ENDSEC
  0
SECTION
  2
OBJECTS
  0
DICTIONARY
  0
ENDSEC
  0
EOF
