  0
SECTION
  2
BLOCKS
  0
ENDSEC
  0
SECTION
  2
ENTITIES
  0
LINE
  8
0
 10
0
 20
0
 11
11
 21
0
  0
LINE
  8
0
 10
11
 20
0
 11
11.2652
 21
11.4276
  0
LINE
  8
0
 10
11.2652
 20
11.4276
 11
16.75
 21
16.5252
  0
LINE
  8
0
 10
16.75
 20
16.5252
 11
16.75
 21
20.55
  0
LINE
  8
0
 10
16.75
 20
20.55
 11
16.25
 21
21.05
  0
LINE
  8
0
 10
16.25
 20
21.05
 11
13
 21
21.05
  0
LINE
  8
0
 10
13
 20
21.05
 11
13
 21
27.55
  0
LINE
  8
0
 10
13
 20
27.55
 11
14
 21
28.55
  0
LINE
  8
0
 10
14
 20
28.55
 11
14
 21
40.55
  0
LINE
  8
0
 10
14
 20
40.55
 11
33.5
 21
40.55
  0
LINE
  8
0
 10
33.5
 20
40.55
 11
33.5
 21
28.55
  0
LINE
  8
0
 10
33.5
 20
28.55
 11
34.5
 21
27.55
  0
LINE
  8
0
 10
34.5
 20
27.55
 11
34.5
 21
21.05
  0
LINE
  8
0
 10
34.5
 20
21.05
 11
31.25
 21
21.05
  0
LINE
  8
0
 10
31.25
 20
21.05
 11
30.75
 21
20.55
  0
LINE
  8
0
 10
30.75
 20
20.55
 11
30.75
 21
16.5252
  0
LINE
  8
0
 10
30.75
 20
16.5252
 11
36.2348
 21
11.4276
  0
LINE
  8
0
 10
36.2348
 20
11.4276
 11
36.5
 21
0
  0
LINE
  8
0
 10
36.5
 20
0
 11
47.5
 21
0
  0
LINE
  8
0
 10
47.5
 20
0
 11
47.5
 21
3.5
  0
LINE
  8
0
 10
47.5
 20
3.5
 11
47
 21
4
  0
LINE
  8
0
 10
47
 20
4
 11
41.8959
 21
4
  0
LINE
  8
0
 10
41.8959
 20
4
 11
40.3959
 21
5.5
  0
LINE
  8
0
 10
40.3959
 20
5.5
 11
40.3959
 21
40
  0
LINE
  8
0
 10
40.3959
 20
40
 11
41.8959
 21
41.5
  0
LINE
  8
0
 10
41.8959
 20
41.5
 11
47
 21
41.5
  0
LINE
  8
0
 10
47
 20
41.5
 11
47.5
 21
42
  0
LINE
  8
0
 10
47.5
 20
42
 11
47.5
 21
45.5
  0
LINE
  8
0
 10
47.5
 20
45.5
 11
0
 21
45.5
  0
LINE
  8
0
 10
0
 20
45.5
 11
0
 21
42
  0
LINE
  8
0
 10
0
 20
42
 11
0.499999
 21
41.5
  0
LINE
  8
0
 10
0.499999
 20
41.5
 11
5.60409
 21
41.5
  0
LINE
  8
0
 10
5.60409
 20
41.5
 11
7.10409
 21
40
  0
LINE
  8
0
 10
7.10409
 20
40
 11
7.10409
 21
5.5
  0
LINE
  8
0
 10
7.10409
 20
5.5
 11
5.60409
 21
4
  0
LINE
  8
0
 10
5.60409
 20
4
 11
0.499999
 21
4
  0
LINE
  8
0
 10
0.499999
 20
4
 11
0
 21
3.5
  0
LINE
  8
0
 10
0
 20
3.5
 11
0
 21
0
  0
LINE
  8
0
 10
12.6019
 20
18.4542
 11
12.6019
 21
18.5458
  0
LINE
  8
0
 10
12.6019
 20
18.5458
 11
12.6032
 21
18.5763
  0
LINE
  8
0
 10
12.6032
 20
18.5763
 11
12.629
 21
18.7268
  0
LINE
  8
0
 10
12.629
 20
18.7268
 11
12.6799
 21
18.8707
  0
LINE
  8
0
 10
12.6799
 20
18.8707
 11
12.7543
 21
19.004
  0
LINE
  8
0
 10
12.7543
 20
19.004
 11
12.8502
 21
19.1227
  0
LINE
  8
0
 10
12.8502
 20
19.1227
 11
12.9648
 21
19.2236
  0
LINE
  8
0
 10
12.9648
 20
19.2236
 11
13.0948
 21
19.3036
  0
LINE
  8
0
 10
13.0948
 20
19.3036
 11
13.2365
 21
19.3605
  0
LINE
  8
0
 10
13.2365
 20
19.3605
 11
13.3857
 21
19.3927
  0
LINE
  8
0
 10
13.3857
 20
19.3927
 11
13.5382
 21
19.3992
  0
LINE
  8
0
 10
13.5382
 20
19.3992
 11
13.6896
 21
19.3798
  0
LINE
  8
0
 10
13.6896
 20
19.3798
 11
13.8356
 21
19.3351
  0
LINE
  8
0
 10
13.8356
 20
19.3351
 11
13.9719
 21
19.2664
  0
LINE
  8
0
 10
13.9719
 20
19.2664
 11
14.0946
 21
19.1756
  0
LINE
  8
0
 10
14.0946
 20
19.1756
 11
14.2002
 21
19.0654
  0
LINE
  8
0
 10
14.2002
 20
19.0654
 11
14.2857
 21
18.9389
  0
LINE
  8
0
 10
14.2857
 20
18.9389
 11
14.3486
 21
18.7998
  0
LINE
  8
0
 10
14.3486
 20
18.7998
 11
14.3871
 21
18.6521
  0
LINE
  8
0
 10
14.3871
 20
18.6521
 11
14.4
 21
18.5
  0
LINE
  8
0
 10
14.4
 20
18.5
 11
14.3871
 21
18.3479
  0
LINE
  8
0
 10
14.3871
 20
18.3479
 11
14.3486
 21
18.2002
  0
LINE
  8
0
 10
14.3486
 20
18.2002
 11
14.2857
 21
18.0611
  0
LINE
  8
0
 10
14.2857
 20
18.0611
 11
14.2002
 21
17.9346
  0
LINE
  8
0
 10
14.2002
 20
17.9346
 11
14.0946
 21
17.8244
  0
LINE
  8
0
 10
14.0946
 20
17.8244
 11
13.9719
 21
17.7336
  0
LINE
  8
0
 10
13.9719
 20
17.7336
 11
13.8356
 21
17.6649
  0
LINE
  8
0
 10
13.8356
 20
17.6649
 11
13.6896
 21
17.6202
  0
LINE
  8
0
 10
13.6896
 20
17.6202
 11
13.5382
 21
17.6008
  0
LINE
  8
0
 10
13.5382
 20
17.6008
 11
13.3857
 21
17.6073
  0
LINE
  8
0
 10
13.3857
 20
17.6073
 11
13.2365
 21
17.6395
  0
LINE
  8
0
 10
13.2365
 20
17.6395
 11
13.0948
 21
17.6964
  0
LINE
  8
0
 10
13.0948
 20
17.6964
 11
12.9648
 21
17.7764
  0
LINE
  8
0
 10
12.9648
 20
17.7764
 11
12.8502
 21
17.8773
  0
LINE
  8
0
 10
12.8502
 20
17.8773
 11
12.7543
 21
17.996
  0
LINE
  8
0
 10
12.7543
 20
17.996
 11
12.6799
 21
18.1293
  0
LINE
  8
0
 10
12.6799
 20
18.1293
 11
12.629
 21
18.2732
  0
LINE
  8
0
 10
12.629
 20
18.2732
 11
12.6032
 21
18.4237
  0
LINE
  8
0
 10
12.6032
 20
18.4237
 11
12.6019
 21
18.4542
  0
LINE
  8
0
 10
12.6019
 20
42.9542
 11
12.6019
 21
43.0458
  0
LINE
  8
0
 10
12.6019
 20
43.0458
 11
12.6032
 21
43.0763
  0
LINE
  8
0
 10
12.6032
 20
43.0763
 11
12.629
 21
43.2268
  0
LINE
  8
0
 10
12.629
 20
43.2268
 11
12.6799
 21
43.3707
  0
LINE
  8
0
 10
12.6799
 20
43.3707
 11
12.7543
 21
43.504
  0
LINE
  8
0
 10
12.7543
 20
43.504
 11
12.8502
 21
43.6227
  0
LINE
  8
0
 10
12.8502
 20
43.6227
 11
12.9648
 21
43.7236
  0
LINE
  8
0
 10
12.9648
 20
43.7236
 11
13.0948
 21
43.8036
  0
LINE
  8
0
 10
13.0948
 20
43.8036
 11
13.2365
 21
43.8605
  0
LINE
  8
0
 10
13.2365
 20
43.8605
 11
13.3857
 21
43.8927
  0
LINE
  8
0
 10
13.3857
 20
43.8927
 11
13.5382
 21
43.8992
  0
LINE
  8
0
 10
13.5382
 20
43.8992
 11
13.6896
 21
43.8798
  0
LINE
  8
0
 10
13.6896
 20
43.8798
 11
13.8356
 21
43.8351
  0
LINE
  8
0
 10
13.8356
 20
43.8351
 11
13.9719
 21
43.7664
  0
LINE
  8
0
 10
13.9719
 20
43.7664
 11
14.0946
 21
43.6756
  0
LINE
  8
0
 10
14.0946
 20
43.6756
 11
14.2002
 21
43.5654
  0
LINE
  8
0
 10
14.2002
 20
43.5654
 11
14.2857
 21
43.4389
  0
LINE
  8
0
 10
14.2857
 20
43.4389
 11
14.3486
 21
43.2998
  0
LINE
  8
0
 10
14.3486
 20
43.2998
 11
14.3871
 21
43.1521
  0
LINE
  8
0
 10
14.3871
 20
43.1521
 11
14.4
 21
43
  0
LINE
  8
0
 10
14.4
 20
43
 11
14.3871
 21
42.8479
  0
LINE
  8
0
 10
14.3871
 20
42.8479
 11
14.3486
 21
42.7002
  0
LINE
  8
0
 10
14.3486
 20
42.7002
 11
14.2857
 21
42.5611
  0
LINE
  8
0
 10
14.2857
 20
42.5611
 11
14.2002
 21
42.4346
  0
LINE
  8
0
 10
14.2002
 20
42.4346
 11
14.0946
 21
42.3244
  0
LINE
  8
0
 10
14.0946
 20
42.3244
 11
13.9719
 21
42.2336
  0
LINE
  8
0
 10
13.9719
 20
42.2336
 11
13.8356
 21
42.1649
  0
LINE
  8
0
 10
13.8356
 20
42.1649
 11
13.6896
 21
42.1202
  0
LINE
  8
0
 10
13.6896
 20
42.1202
 11
13.5382
 21
42.1008
  0
LINE
  8
0
 10
13.5382
 20
42.1008
 11
13.3857
 21
42.1073
  0
LINE
  8
0
 10
13.3857
 20
42.1073
 11
13.2365
 21
42.1395
  0
LINE
  8
0
 10
13.2365
 20
42.1395
 11
13.0948
 21
42.1964
  0
LINE
  8
0
 10
13.0948
 20
42.1964
 11
12.9648
 21
42.2764
  0
LINE
  8
0
 10
12.9648
 20
42.2764
 11
12.8502
 21
42.3773
  0
LINE
  8
0
 10
12.8502
 20
42.3773
 11
12.7543
 21
42.496
  0
LINE
  8
0
 10
12.7543
 20
42.496
 11
12.6799
 21
42.6293
  0
LINE
  8
0
 10
12.6799
 20
42.6293
 11
12.629
 21
42.7732
  0
LINE
  8
0
 10
12.629
 20
42.7732
 11
12.6032
 21
42.9237
  0
LINE
  8
0
 10
12.6032
 20
42.9237
 11
12.6019
 21
42.9542
  0
LINE
  8
0
 10
33.1
 20
18.5
 11
33.1032
 21
18.5763
  0
LINE
  8
0
 10
33.1032
 20
18.5763
 11
33.129
 21
18.7268
  0
LINE
  8
0
 10
33.129
 20
18.7268
 11
33.1799
 21
18.8707
  0
LINE
  8
0
 10
33.1799
 20
18.8707
 11
33.2543
 21
19.004
  0
LINE
  8
0
 10
33.2543
 20
19.004
 11
33.3502
 21
19.1227
  0
LINE
  8
0
 10
33.3502
 20
19.1227
 11
33.4648
 21
19.2236
  0
LINE
  8
0
 10
33.4648
 20
19.2236
 11
33.5948
 21
19.3036
  0
LINE
  8
0
 10
33.5948
 20
19.3036
 11
33.7365
 21
19.3605
  0
LINE
  8
0
 10
33.7365
 20
19.3605
 11
33.8857
 21
19.3927
  0
LINE
  8
0
 10
33.8857
 20
19.3927
 11
34.0382
 21
19.3992
  0
LINE
  8
0
 10
34.0382
 20
19.3992
 11
34.1896
 21
19.3798
  0
LINE
  8
0
 10
34.1896
 20
19.3798
 11
34.3356
 21
19.3351
  0
LINE
  8
0
 10
34.3356
 20
19.3351
 11
34.4719
 21
19.2664
  0
LINE
  8
0
 10
34.4719
 20
19.2664
 11
34.5946
 21
19.1756
  0
LINE
  8
0
 10
34.5946
 20
19.1756
 11
34.7002
 21
19.0654
  0
LINE
  8
0
 10
34.7002
 20
19.0654
 11
34.7857
 21
18.9389
  0
LINE
  8
0
 10
34.7857
 20
18.9389
 11
34.8486
 21
18.7998
  0
LINE
  8
0
 10
34.8486
 20
18.7998
 11
34.8871
 21
18.6521
  0
LINE
  8
0
 10
34.8871
 20
18.6521
 11
34.9
 21
18.5
  0
LINE
  8
0
 10
34.9
 20
18.5
 11
34.8871
 21
18.3479
  0
LINE
  8
0
 10
34.8871
 20
18.3479
 11
34.8486
 21
18.2002
  0
LINE
  8
0
 10
34.8486
 20
18.2002
 11
34.7857
 21
18.0611
  0
LINE
  8
0
 10
34.7857
 20
18.0611
 11
34.7002
 21
17.9346
  0
LINE
  8
0
 10
34.7002
 20
17.9346
 11
34.5946
 21
17.8244
  0
LINE
  8
0
 10
34.5946
 20
17.8244
 11
34.4719
 21
17.7336
  0
LINE
  8
0
 10
34.4719
 20
17.7336
 11
34.3356
 21
17.6649
  0
LINE
  8
0
 10
34.3356
 20
17.6649
 11
34.1896
 21
17.6202
  0
LINE
  8
0
 10
34.1896
 20
17.6202
 11
34.0382
 21
17.6008
  0
LINE
  8
0
 10
34.0382
 20
17.6008
 11
33.8857
 21
17.6073
  0
LINE
  8
0
 10
33.8857
 20
17.6073
 11
33.7365
 21
17.6395
  0
LINE
  8
0
 10
33.7365
 20
17.6395
 11
33.5948
 21
17.6964
  0
LINE
  8
0
 10
33.5948
 20
17.6964
 11
33.4648
 21
17.7764
  0
LINE
  8
0
 10
33.4648
 20
17.7764
 11
33.3502
 21
17.8773
  0
LINE
  8
0
 10
33.3502
 20
17.8773
 11
33.2543
 21
17.996
  0
LINE
  8
0
 10
33.2543
 20
17.996
 11
33.1799
 21
18.1293
  0
LINE
  8
0
 10
33.1799
 20
18.1293
 11
33.129
 21
18.2732
  0
LINE
  8
0
 10
33.129
 20
18.2732
 11
33.1032
 21
18.4237
  0
LINE
  8
0
 10
33.1032
 20
18.4237
 11
33.1
 21
18.5
  0
LINE
  8
0
 10
33.1019
 20
42.9542
 11
33.1019
 21
43.0458
  0
LINE
  8
0
 10
33.1019
 20
43.0458
 11
33.1032
 21
43.0763
  0
LINE
  8
0
 10
33.1032
 20
43.0763
 11
33.129
 21
43.2268
  0
LINE
  8
0
 10
33.129
 20
43.2268
 11
33.1799
 21
43.3707
  0
LINE
  8
0
 10
33.1799
 20
43.3707
 11
33.2543
 21
43.504
  0
LINE
  8
0
 10
33.2543
 20
43.504
 11
33.3502
 21
43.6227
  0
LINE
  8
0
 10
33.3502
 20
43.6227
 11
33.4648
 21
43.7236
  0
LINE
  8
0
 10
33.4648
 20
43.7236
 11
33.5948
 21
43.8036
  0
LINE
  8
0
 10
33.5948
 20
43.8036
 11
33.7365
 21
43.8605
  0
LINE
  8
0
 10
33.7365
 20
43.8605
 11
33.8857
 21
43.8927
  0
LINE
  8
0
 10
33.8857
 20
43.8927
 11
34.0382
 21
43.8992
  0
LINE
  8
0
 10
34.0382
 20
43.8992
 11
34.1896
 21
43.8798
  0
LINE
  8
0
 10
34.1896
 20
43.8798
 11
34.3356
 21
43.8351
  0
LINE
  8
0
 10
34.3356
 20
43.8351
 11
34.4719
 21
43.7664
  0
LINE
  8
0
 10
34.4719
 20
43.7664
 11
34.5946
 21
43.6756
  0
LINE
  8
0
 10
34.5946
 20
43.6756
 11
34.7002
 21
43.5654
  0
LINE
  8
0
 10
34.7002
 20
43.5654
 11
34.7857
 21
43.4389
  0
LINE
  8
0
 10
34.7857
 20
43.4389
 11
34.8486
 21
43.2998
  0
LINE
  8
0
 10
34.8486
 20
43.2998
 11
34.8871
 21
43.1521
  0
LINE
  8
0
 10
34.8871
 20
43.1521
 11
34.9
 21
43
  0
LINE
  8
0
 10
34.9
 20
43
 11
34.8871
 21
42.8479
  0
LINE
  8
0
 10
34.8871
 20
42.8479
 11
34.8486
 21
42.7002
  0
LINE
  8
0
 10
34.8486
 20
42.7002
 11
34.7857
 21
42.5611
  0
LINE
  8
0
 10
34.7857
 20
42.5611
 11
34.7002
 21
42.4346
  0
LINE
  8
0
 10
34.7002
 20
42.4346
 11
34.5946
 21
42.3244
  0
LINE
  8
0
 10
34.5946
 20
42.3244
 11
34.4719
 21
42.2336
  0
LINE
  8
0
 10
34.4719
 20
42.2336
 11
34.3356
 21
42.1649
  0
LINE
  8
0
 10
34.3356
 20
42.1649
 11
34.1896
 21
42.1202
  0
LINE
  8
0
 10
34.1896
 20
42.1202
 11
34.0382
 21
42.1008
  0
LINE
  8
0
 10
34.0382
 20
42.1008
 11
33.8857
 21
42.1073
  0
LINE
  8
0
 10
33.8857
 20
42.1073
 11
33.7365
 21
42.1395
  0
LINE
  8
0
 10
33.7365
 20
42.1395
 11
33.5948
 21
42.1964
  0
LINE
  8
0
 10
33.5948
 20
42.1964
 11
33.4648
 21
42.2764
  0
LINE
  8
0
 10
33.4648
 20
42.2764
 11
33.3502
 21
42.3773
  0
LINE
  8
0
 10
33.3502
 20
42.3773
 11
33.2543
 21
42.496
  0
LINE
  8
0
 10
33.2543
 20
42.496
 11
33.1799
 21
42.6293
  0
LINE
  8
0
 10
33.1799
 20
42.6293
 11
33.129
 21
42.7732
  0
LINE
  8
0
 10
33.129
 20
42.7732
 11
33.1032
 21
42.9237
  0
LINE
  8
0
 10
33.1032
 20
42.9237
 11
33.1019
 21
42.9542
  0
ENDSEC
  0
SECTION
  2
OBJECTS
  0
DICTIONARY
  0
ENDSEC
  0
EOF
