  0
SECTION
  2
BLOCKS
  0
ENDSEC
  0
SECTION
  2
ENTITIES
  0
LINE
  8
0
 10
0
 20
0
 11
11
 21
0
  0
LINE
  8
0
 10
11
 20
0
 11
11
 21
45.5
  0
LINE
  8
0
 10
11
 20
45.5
 11
0
 21
45.5
  0
LINE
  8
0
 10
0
 20
45.5
 11
0
 21
42
  0
LINE
  8
0
 10
0
 20
42
 11
0.499999
 21
41.5
  0
LINE
  8
0
 10
0.499999
 20
41.5
 11
5.60409
 21
41.5
  0
LINE
  8
0
 10
5.60409
 20
41.5
 11
7.10409
 21
40
  0
LINE
  8
0
 10
7.10409
 20
40
 11
7.10409
 21
22.848
  0
LINE
  8
0
 10
7.10409
 20
22.848
 11
7.1121
 21
22.6809
  0
LINE
  8
0
 10
7.1121
 20
22.6809
 11
7.11332
 21
22.6555
  0
LINE
  8
0
 10
7.11332
 20
22.6555
 11
7.12188
 21
22.597
  0
LINE
  8
0
 10
7.12188
 20
22.597
 11
7.14079
 21
22.4294
  0
LINE
  8
0
 10
7.14079
 20
22.4294
 11
7.16315
 21
22.3146
  0
LINE
  8
0
 10
7.16315
 20
22.3146
 11
7.18583
 21
22.1982
  0
LINE
  8
0
 10
7.18583
 20
22.1982
 11
7.2307
 21
22.0424
  0
LINE
  8
0
 10
7.2307
 20
22.0424
 11
7.24732
 21
21.9571
  0
LINE
  8
0
 10
7.24732
 20
21.9571
 11
7.27908
 21
21.8401
  0
LINE
  8
0
 10
7.27908
 20
21.8401
 11
7.32376
 21
21.6755
  0
LINE
  8
0
 10
7.32376
 20
21.6755
 11
7.36603
 21
21.5619
  0
LINE
  8
0
 10
7.36603
 20
21.5619
 11
7.41325
 21
21.3047
  0
LINE
  8
0
 10
7.41325
 20
21.3047
 11
7.46079
 21
21.1189
  0
LINE
  8
0
 10
7.46079
 20
21.1189
 11
7.45817
 21
20.9282
  0
LINE
  8
0
 10
7.45817
 20
20.9282
 11
7.45484
 21
20.6869
  0
LINE
  8
0
 10
7.45484
 20
20.6869
 11
7.43212
 21
20.6066
  0
LINE
  8
0
 10
7.43212
 20
20.6066
 11
7.41325
 21
20.54
  0
LINE
  8
0
 10
7.41325
 20
20.54
 11
7.38368
 21
20.3944
  0
LINE
  8
0
 10
7.38368
 20
20.3944
 11
7.35261
 21
20.2415
  0
LINE
  8
0
 10
7.35261
 20
20.2415
 11
7.33349
 21
20.1925
  0
LINE
  8
0
 10
7.33349
 20
20.1925
 11
7.32376
 21
20.1676
  0
LINE
  8
0
 10
7.32376
 20
20.1676
 11
7.28308
 21
20.0249
  0
LINE
  8
0
 10
7.28308
 20
20.0249
 11
7.24732
 21
19.8995
  0
LINE
  8
0
 10
7.24732
 20
19.8995
 11
7.23658
 21
19.847
  0
LINE
  8
0
 10
7.23658
 20
19.847
 11
7.21782
 21
19.7553
  0
LINE
  8
0
 10
7.21782
 20
19.7553
 11
7.1951
 21
19.6788
  0
LINE
  8
0
 10
7.1951
 20
19.6788
 11
7.18583
 21
19.6476
  0
LINE
  8
0
 10
7.18583
 20
19.6476
 11
7.16074
 21
19.5227
  0
LINE
  8
0
 10
7.16074
 20
19.5227
 11
7.14079
 21
19.4234
  0
LINE
  8
0
 10
7.14079
 20
19.4234
 11
7.13331
 21
19.3591
  0
LINE
  8
0
 10
7.13331
 20
19.3591
 11
7.11366
 21
19.1904
  0
LINE
  8
0
 10
7.11366
 20
19.1904
 11
7.1134
 21
19.1886
  0
LINE
  8
0
 10
7.1134
 20
19.1886
 11
7.11332
 21
19.1881
  0
LINE
  8
0
 10
7.11332
 20
19.1881
 11
7.10627
 21
19.0442
  0
LINE
  8
0
 10
7.10627
 20
19.0442
 11
7.10409
 21
18.9998
  0
LINE
  8
0
 10
7.10409
 20
18.9998
 11
7.10409
 21
5.5
  0
LINE
  8
0
 10
7.10409
 20
5.5
 11
5.60409
 21
4
  0
LINE
  8
0
 10
5.60409
 20
4
 11
0.499999
 21
4
  0
LINE
  8
0
 10
0.499999
 20
4
 11
0
 21
3.5
  0
LINE
  8
0
 10
0
 20
3.5
 11
0
 21
0
  0
LINE
  8
0
 10
36.5
 20
0
 11
47.5
 21
0
  0
LINE
  8
0
 10
47.5
 20
0
 11
47.5
 21
3.5
  0
LINE
  8
0
 10
47.5
 20
3.5
 11
47
 21
4
  0
LINE
  8
0
 10
47
 20
4
 11
41.8959
 21
4
  0
LINE
  8
0
 10
41.8959
 20
4
 11
40.3959
 21
5.5
  0
LINE
  8
0
 10
40.3959
 20
5.5
 11
40.3959
 21
18.9998
  0
LINE
  8
0
 10
40.3959
 20
18.9998
 11
40.3867
 21
19.1872
  0
LINE
  8
0
 10
40.3867
 20
19.1872
 11
40.3867
 21
19.1881
  0
LINE
  8
0
 10
40.3867
 20
19.1881
 11
40.3863
 21
19.1904
  0
LINE
  8
0
 10
40.3863
 20
19.1904
 11
40.3592
 21
19.4234
  0
LINE
  8
0
 10
40.3592
 20
19.4234
 11
40.3293
 21
19.5723
  0
LINE
  8
0
 10
40.3293
 20
19.5723
 11
40.3142
 21
19.6476
  0
LINE
  8
0
 10
40.3142
 20
19.6476
 11
40.2822
 21
19.7553
  0
LINE
  8
0
 10
40.2822
 20
19.7553
 11
40.2527
 21
19.8995
  0
LINE
  8
0
 10
40.2527
 20
19.8995
 11
40.2031
 21
20.0733
  0
LINE
  8
0
 10
40.2031
 20
20.0733
 11
40.1762
 21
20.1676
  0
LINE
  8
0
 10
40.1762
 20
20.1676
 11
40.1474
 21
20.2415
  0
LINE
  8
0
 10
40.1474
 20
20.2415
 11
40.0868
 21
20.54
  0
LINE
  8
0
 10
40.0868
 20
20.54
 11
40.0452
 21
20.6869
  0
LINE
  8
0
 10
40.0452
 20
20.6869
 11
40.0426
 21
20.8748
  0
LINE
  8
0
 10
40.0426
 20
20.8748
 11
40.0392
 21
21.1189
  0
LINE
  8
0
 10
40.0392
 20
21.1189
 11
40.064
 21
21.2157
  0
LINE
  8
0
 10
40.064
 20
21.2157
 11
40.0868
 21
21.3047
  0
LINE
  8
0
 10
40.0868
 20
21.3047
 11
40.111
 21
21.4369
  0
LINE
  8
0
 10
40.111
 20
21.4369
 11
40.134
 21
21.5619
  0
LINE
  8
0
 10
40.134
 20
21.5619
 11
40.1615
 21
21.6358
  0
LINE
  8
0
 10
40.1615
 20
21.6358
 11
40.1762
 21
21.6755
  0
LINE
  8
0
 10
40.1762
 20
21.6755
 11
40.212
 21
21.8072
  0
LINE
  8
0
 10
40.212
 20
21.8072
 11
40.2527
 21
21.9571
  0
LINE
  8
0
 10
40.2527
 20
21.9571
 11
40.2589
 21
21.9893
  0
LINE
  8
0
 10
40.2589
 20
21.9893
 11
40.2693
 21
22.0424
  0
LINE
  8
0
 10
40.2693
 20
22.0424
 11
40.3008
 21
22.1518
  0
LINE
  8
0
 10
40.3008
 20
22.1518
 11
40.3142
 21
22.1982
  0
LINE
  8
0
 10
40.3142
 20
22.1982
 11
40.336
 21
22.3105
  0
LINE
  8
0
 10
40.336
 20
22.3105
 11
40.3592
 21
22.4294
  0
LINE
  8
0
 10
40.3592
 20
22.4294
 11
40.3646
 21
22.4771
  0
LINE
  8
0
 10
40.3646
 20
22.4771
 11
40.3781
 21
22.597
  0
LINE
  8
0
 10
40.3781
 20
22.597
 11
40.3846
 21
22.6414
  0
LINE
  8
0
 10
40.3846
 20
22.6414
 11
40.3867
 21
22.6555
  0
LINE
  8
0
 10
40.3867
 20
22.6555
 11
40.393
 21
22.788
  0
LINE
  8
0
 10
40.393
 20
22.788
 11
40.3959
 21
22.848
  0
LINE
  8
0
 10
40.3959
 20
22.848
 11
40.3959
 21
40
  0
LINE
  8
0
 10
40.3959
 20
40
 11
41.8959
 21
41.5
  0
LINE
  8
0
 10
41.8959
 20
41.5
 11
47
 21
41.5
  0
LINE
  8
0
 10
47
 20
41.5
 11
47.5
 21
42
  0
LINE
  8
0
 10
47.5
 20
42
 11
47.5
 21
45.5
  0
LINE
  8
0
 10
47.5
 20
45.5
 11
36.5
 21
45.5
  0
LINE
  8
0
 10
36.5
 20
45.5
 11
36.5
 21
0
  0
ENDSEC
  0
SECTION
  2
OBJECTS
  0
DICTIONARY
  0
ENDSEC
  0
EOF
