  0
SECTION
  2
BLOCKS
  0
ENDSEC
  0
SECTION
  2
ENTITIES
  0
LINE
  8
0
 10
0
 20
0
 11
11
 21
0
  0
LINE
  8
0
 10
11
 20
0
 11
11
 21
20.2587
  0
LINE
  8
0
 10
11
 20
20.2587
 11
7.85409
 21
20.2587
  0
LINE
  8
0
 10
7.85409
 20
20.2587
 11
7.75303
 21
20.2349
  0
LINE
  8
0
 10
7.75303
 20
20.2349
 11
7.73676
 21
20.2311
  0
LINE
  8
0
 10
7.73676
 20
20.2311
 11
7.65494
 21
20.1722
  0
LINE
  8
0
 10
7.65494
 20
20.1722
 11
7.62232
 21
20.1488
  0
LINE
  8
0
 10
7.62232
 20
20.1488
 11
7.56734
 21
20.0805
  0
LINE
  8
0
 10
7.56734
 20
20.0805
 11
7.51359
 21
20.0138
  0
LINE
  8
0
 10
7.51359
 20
20.0138
 11
7.48797
 21
19.9668
  0
LINE
  8
0
 10
7.48797
 20
19.9668
 11
7.42164
 21
19.845
  0
LINE
  8
0
 10
7.42164
 20
19.845
 11
7.41504
 21
19.8367
  0
LINE
  8
0
 10
7.41504
 20
19.8367
 11
7.41325
 21
19.8344
  0
LINE
  8
0
 10
7.41325
 20
19.8344
 11
7.34748
 21
19.7186
  0
LINE
  8
0
 10
7.34748
 20
19.7186
 11
7.32376
 21
19.6768
  0
LINE
  8
0
 10
7.32376
 20
19.6768
 11
7.28725
 21
19.5887
  0
LINE
  8
0
 10
7.28725
 20
19.5887
 11
7.24732
 21
19.4923
  0
LINE
  8
0
 10
7.24732
 20
19.4923
 11
7.23405
 21
19.4476
  0
LINE
  8
0
 10
7.23405
 20
19.4476
 11
7.19714
 21
19.3234
  0
LINE
  8
0
 10
7.19714
 20
19.3234
 11
7.18837
 21
19.3005
  0
LINE
  8
0
 10
7.18837
 20
19.3005
 11
7.18583
 21
19.2938
  0
LINE
  8
0
 10
7.18583
 20
19.2938
 11
7.15306
 21
19.1668
  0
LINE
  8
0
 10
7.15306
 20
19.1668
 11
7.14079
 21
19.1193
  0
LINE
  8
0
 10
7.14079
 20
19.1193
 11
7.12698
 21
19.0269
  0
LINE
  8
0
 10
7.12698
 20
19.0269
 11
7.11332
 21
18.9356
  0
LINE
  8
0
 10
7.11332
 20
18.9356
 11
7.11067
 21
18.8816
  0
LINE
  8
0
 10
7.11067
 20
18.8816
 11
7.10409
 21
18.7472
  0
LINE
  8
0
 10
7.10409
 20
18.7472
 11
7.10409
 21
5.5
  0
LINE
  8
0
 10
7.10409
 20
5.5
 11
5.60409
 21
4
  0
LINE
  8
0
 10
5.60409
 20
4
 11
0.499999
 21
4
  0
LINE
  8
0
 10
0.499999
 20
4
 11
0
 21
3.5
  0
LINE
  8
0
 10
0
 20
3.5
 11
0
 21
0
  0
LINE
  8
0
 10
0
 20
42
 11
0.499999
 21
41.5
  0
LINE
  8
0
 10
0.499999
 20
41.5
 11
5.60409
 21
41.5
  0
LINE
  8
0
 10
5.60409
 20
41.5
 11
7.10409
 21
40
  0
LINE
  8
0
 10
7.10409
 20
40
 11
7.10409
 21
23.1084
  0
LINE
  8
0
 10
7.10409
 20
23.1084
 11
7.10437
 21
23.1036
  0
LINE
  8
0
 10
7.10437
 20
23.1036
 11
7.11332
 21
22.917
  0
LINE
  8
0
 10
7.11332
 20
22.917
 11
7.12395
 21
22.8444
  0
LINE
  8
0
 10
7.12395
 20
22.8444
 11
7.14079
 21
22.7293
  0
LINE
  8
0
 10
7.14079
 20
22.7293
 11
7.17685
 21
22.5865
  0
LINE
  8
0
 10
7.17685
 20
22.5865
 11
7.18583
 21
22.5509
  0
LINE
  8
0
 10
7.18583
 20
22.5509
 11
7.21652
 21
22.4688
  0
LINE
  8
0
 10
7.21652
 20
22.4688
 11
7.24732
 21
22.3618
  0
LINE
  8
0
 10
7.24732
 20
22.3618
 11
7.27126
 21
22.3022
  0
LINE
  8
0
 10
7.27126
 20
22.3022
 11
7.32376
 21
22.1715
  0
LINE
  8
0
 10
7.32376
 20
22.1715
 11
7.39885
 21
22.0351
  0
LINE
  8
0
 10
7.39885
 20
22.0351
 11
7.41325
 21
22.0089
  0
LINE
  8
0
 10
7.41325
 20
22.0089
 11
7.4533
 21
21.9567
  0
LINE
  8
0
 10
7.4533
 20
21.9567
 11
7.51359
 21
21.8404
  0
LINE
  8
0
 10
7.51359
 20
21.8404
 11
7.55404
 21
21.7877
  0
LINE
  8
0
 10
7.55404
 20
21.7877
 11
7.62232
 21
21.6987
  0
LINE
  8
0
 10
7.62232
 20
21.6987
 11
7.70367
 21
21.6373
  0
LINE
  8
0
 10
7.70367
 20
21.6373
 11
7.73676
 21
21.6123
  0
LINE
  8
0
 10
7.73676
 20
21.6123
 11
7.83329
 21
21.5884
  0
LINE
  8
0
 10
7.83329
 20
21.5884
 11
7.85409
 21
21.5832
  0
LINE
  8
0
 10
7.85409
 20
21.5832
 11
11
 21
21.5832
  0
LINE
  8
0
 10
11
 20
21.5832
 11
11
 21
45.5
  0
LINE
  8
0
 10
11
 20
45.5
 11
0
 21
45.5
  0
LINE
  8
0
 10
0
 20
45.5
 11
0
 21
42
  0
LINE
  8
0
 10
36.5
 20
0
 11
47.5
 21
0
  0
LINE
  8
0
 10
47.5
 20
0
 11
47.5
 21
3.5
  0
LINE
  8
0
 10
47.5
 20
3.5
 11
47
 21
4
  0
LINE
  8
0
 10
47
 20
4
 11
41.8959
 21
4
  0
LINE
  8
0
 10
41.8959
 20
4
 11
40.3959
 21
5.5
  0
LINE
  8
0
 10
40.3959
 20
5.5
 11
40.3959
 21
18.7472
  0
LINE
  8
0
 10
40.3959
 20
18.7472
 11
40.3946
 21
18.7747
  0
LINE
  8
0
 10
40.3946
 20
18.7747
 11
40.3867
 21
18.9356
  0
LINE
  8
0
 10
40.3867
 20
18.9356
 11
40.3721
 21
19.0332
  0
LINE
  8
0
 10
40.3721
 20
19.0332
 11
40.3592
 21
19.1193
  0
LINE
  8
0
 10
40.3592
 20
19.1193
 11
40.3173
 21
19.2816
  0
LINE
  8
0
 10
40.3173
 20
19.2816
 11
40.3142
 21
19.2938
  0
LINE
  8
0
 10
40.3142
 20
19.2938
 11
40.3029
 21
19.3234
  0
LINE
  8
0
 10
40.3029
 20
19.3234
 11
40.2527
 21
19.4923
  0
LINE
  8
0
 10
40.2527
 20
19.4923
 11
40.2161
 21
19.5805
  0
LINE
  8
0
 10
40.2161
 20
19.5805
 11
40.1762
 21
19.6768
  0
LINE
  8
0
 10
40.1762
 20
19.6768
 11
40.0896
 21
19.8294
  0
LINE
  8
0
 10
40.0896
 20
19.8294
 11
40.0868
 21
19.8344
  0
LINE
  8
0
 10
40.0868
 20
19.8344
 11
40.0784
 21
19.845
  0
LINE
  8
0
 10
40.0784
 20
19.845
 11
39.9864
 21
20.0138
  0
LINE
  8
0
 10
39.9864
 20
20.0138
 11
39.9295
 21
20.0844
  0
LINE
  8
0
 10
39.9295
 20
20.0844
 11
39.8777
 21
20.1488
  0
LINE
  8
0
 10
39.8777
 20
20.1488
 11
39.7838
 21
20.2163
  0
LINE
  8
0
 10
39.7838
 20
20.2163
 11
39.7632
 21
20.2311
  0
LINE
  8
0
 10
39.7632
 20
20.2311
 11
39.6562
 21
20.2563
  0
LINE
  8
0
 10
39.6562
 20
20.2563
 11
39.6459
 21
20.2587
  0
LINE
  8
0
 10
39.6459
 20
20.2587
 11
36.5
 21
20.2587
  0
LINE
  8
0
 10
36.5
 20
20.2587
 11
36.5
 21
0
  0
LINE
  8
0
 10
36.5
 20
21.5832
 11
39.6459
 21
21.5832
  0
LINE
  8
0
 10
39.6459
 20
21.5832
 11
39.7375
 21
21.6059
  0
LINE
  8
0
 10
39.7375
 20
21.6059
 11
39.7632
 21
21.6123
  0
LINE
  8
0
 10
39.7632
 20
21.6123
 11
39.8361
 21
21.6673
  0
LINE
  8
0
 10
39.8361
 20
21.6673
 11
39.8777
 21
21.6987
  0
LINE
  8
0
 10
39.8777
 20
21.6987
 11
39.9241
 21
21.7593
  0
LINE
  8
0
 10
39.9241
 20
21.7593
 11
39.9864
 21
21.8404
  0
LINE
  8
0
 10
39.9864
 20
21.8404
 11
40.0039
 21
21.8742
  0
LINE
  8
0
 10
40.0039
 20
21.8742
 11
40.0467
 21
21.9567
  0
LINE
  8
0
 10
40.0467
 20
21.9567
 11
40.0779
 21
21.9974
  0
LINE
  8
0
 10
40.0779
 20
21.9974
 11
40.0868
 21
22.0089
  0
LINE
  8
0
 10
40.0868
 20
22.0089
 11
40.146
 21
22.1166
  0
LINE
  8
0
 10
40.146
 20
22.1166
 11
40.1762
 21
22.1715
  0
LINE
  8
0
 10
40.1762
 20
22.1715
 11
40.207
 21
22.248
  0
LINE
  8
0
 10
40.207
 20
22.248
 11
40.2527
 21
22.3618
  0
LINE
  8
0
 10
40.2527
 20
22.3618
 11
40.2611
 21
22.391
  0
LINE
  8
0
 10
40.2611
 20
22.391
 11
40.2835
 21
22.4688
  0
LINE
  8
0
 10
40.2835
 20
22.4688
 11
40.3071
 21
22.532
  0
LINE
  8
0
 10
40.3071
 20
22.532
 11
40.3142
 21
22.5509
  0
LINE
  8
0
 10
40.3142
 20
22.5509
 11
40.3435
 21
22.6671
  0
LINE
  8
0
 10
40.3435
 20
22.6671
 11
40.3592
 21
22.7293
  0
LINE
  8
0
 10
40.3592
 20
22.7293
 11
40.3708
 21
22.8088
  0
LINE
  8
0
 10
40.3708
 20
22.8088
 11
40.3867
 21
22.917
  0
LINE
  8
0
 10
40.3867
 20
22.917
 11
40.3886
 21
22.9563
  0
LINE
  8
0
 10
40.3886
 20
22.9563
 11
40.3956
 21
23.1036
  0
LINE
  8
0
 10
40.3956
 20
23.1036
 11
40.3959
 21
23.1075
  0
LINE
  8
0
 10
40.3959
 20
23.1075
 11
40.3959
 21
23.1084
  0
LINE
  8
0
 10
40.3959
 20
23.1084
 11
40.3959
 21
40
  0
LINE
  8
0
 10
40.3959
 20
40
 11
41.8959
 21
41.5
  0
LINE
  8
0
 10
41.8959
 20
41.5
 11
47
 21
41.5
  0
LINE
  8
0
 10
47
 20
41.5
 11
47.5
 21
42
  0
LINE
  8
0
 10
47.5
 20
42
 11
47.5
 21
45.5
  0
LINE
  8
0
 10
47.5
 20
45.5
 11
36.5
 21
45.5
  0
LINE
  8
0
 10
36.5
 20
45.5
 11
36.5
 21
21.5832
  0
ENDSEC
  0
SECTION
  2
OBJECTS
  0
DICTIONARY
  0
ENDSEC
  0
EOF
