  0
SECTION
  2
BLOCKS
  0
ENDSEC
  0
SECTION
  2
ENTITIES
  0
LINE
  8
0
 10
0
 20
0
 11
11
 21
0
  0
LINE
  8
0
 10
11
 20
0
 11
11
 21
19.7675
  0
LINE
  8
0
 10
11
 20
19.7675
 11
7.85409
 21
19.7675
  0
LINE
  8
0
 10
7.85409
 20
19.7675
 11
7.78326
 21
19.756
  0
LINE
  8
0
 10
7.78326
 20
19.756
 11
7.73676
 21
19.7485
  0
LINE
  8
0
 10
7.73676
 20
19.7485
 11
7.67691
 21
19.7188
  0
LINE
  8
0
 10
7.67691
 20
19.7188
 11
7.62232
 21
19.6918
  0
LINE
  8
0
 10
7.62232
 20
19.6918
 11
7.57992
 21
19.6556
  0
LINE
  8
0
 10
7.57992
 20
19.6556
 11
7.51359
 21
19.5989
  0
LINE
  8
0
 10
7.51359
 20
19.5989
 11
7.49159
 21
19.5711
  0
LINE
  8
0
 10
7.49159
 20
19.5711
 11
7.41325
 21
19.4721
  0
LINE
  8
0
 10
7.41325
 20
19.4721
 11
7.41124
 21
19.4686
  0
LINE
  8
0
 10
7.41124
 20
19.4686
 11
7.40438
 21
19.4565
  0
LINE
  8
0
 10
7.40438
 20
19.4565
 11
7.33908
 21
19.367
  0
LINE
  8
0
 10
7.33908
 20
19.367
 11
7.32376
 21
19.346
  0
LINE
  8
0
 10
7.32376
 20
19.346
 11
7.27584
 21
19.2559
  0
LINE
  8
0
 10
7.27584
 20
19.2559
 11
7.24732
 21
19.2023
  0
LINE
  8
0
 10
7.24732
 20
19.2023
 11
7.22147
 21
19.1346
  0
LINE
  8
0
 10
7.22147
 20
19.1346
 11
7.18583
 21
19.0413
  0
LINE
  8
0
 10
7.18583
 20
19.0413
 11
7.17622
 21
19.004
  0
LINE
  8
0
 10
7.17622
 20
19.004
 11
7.14079
 21
18.8667
  0
LINE
  8
0
 10
7.14079
 20
18.8667
 11
7.14055
 21
18.8651
  0
LINE
  8
0
 10
7.14055
 20
18.8651
 11
7.13962
 21
18.8588
  0
LINE
  8
0
 10
7.13962
 20
18.8588
 11
7.11332
 21
18.6986
  0
LINE
  8
0
 10
7.11332
 20
18.6986
 11
7.11321
 21
18.6966
  0
LINE
  8
0
 10
7.11321
 20
18.6966
 11
7.10409
 21
18.5269
  0
LINE
  8
0
 10
7.10409
 20
18.5269
 11
7.10409
 21
5.5
  0
LINE
  8
0
 10
7.10409
 20
5.5
 11
5.60409
 21
4
  0
LINE
  8
0
 10
5.60409
 20
4
 11
0.499999
 21
4
  0
LINE
  8
0
 10
0.499999
 20
4
 11
0
 21
3.5
  0
LINE
  8
0
 10
0
 20
3.5
 11
0
 21
0
  0
LINE
  8
0
 10
0
 20
42
 11
0.499999
 21
41.5
  0
LINE
  8
0
 10
0.499999
 20
41.5
 11
5.60409
 21
41.5
  0
LINE
  8
0
 10
5.60409
 20
41.5
 11
7.10409
 21
40
  0
LINE
  8
0
 10
7.10409
 20
40
 11
7.10409
 21
23.2957
  0
LINE
  8
0
 10
7.10409
 20
23.2957
 11
7.10982
 21
23.1963
  0
LINE
  8
0
 10
7.10982
 20
23.1963
 11
7.11332
 21
23.1355
  0
LINE
  8
0
 10
7.11332
 20
23.1355
 11
7.1379
 21
22.9957
  0
LINE
  8
0
 10
7.1379
 20
22.9957
 11
7.14079
 21
22.9793
  0
LINE
  8
0
 10
7.14079
 20
22.9793
 11
7.15801
 21
22.9226
  0
LINE
  8
0
 10
7.15801
 20
22.9226
 11
7.18583
 21
22.8124
  0
LINE
  8
0
 10
7.18583
 20
22.8124
 11
7.20059
 21
22.7729
  0
LINE
  8
0
 10
7.20059
 20
22.7729
 11
7.24732
 21
22.6478
  0
LINE
  8
0
 10
7.24732
 20
22.6478
 11
7.29328
 21
22.5595
  0
LINE
  8
0
 10
7.29328
 20
22.5595
 11
7.32376
 21
22.501
  0
LINE
  8
0
 10
7.32376
 20
22.501
 11
7.40552
 21
22.3864
  0
LINE
  8
0
 10
7.40552
 20
22.3864
 11
7.41325
 21
22.3756
  0
LINE
  8
0
 10
7.41325
 20
22.3756
 11
7.44818
 21
22.3405
  0
LINE
  8
0
 10
7.44818
 20
22.3405
 11
7.51359
 21
22.2552
  0
LINE
  8
0
 10
7.51359
 20
22.2552
 11
7.53676
 21
22.2348
  0
LINE
  8
0
 10
7.53676
 20
22.2348
 11
7.62232
 21
22.1594
  0
LINE
  8
0
 10
7.62232
 20
22.1594
 11
7.67026
 21
22.1349
  0
LINE
  8
0
 10
7.67026
 20
22.1349
 11
7.73676
 21
22.101
  0
LINE
  8
0
 10
7.73676
 20
22.101
 11
7.79665
 21
22.091
  0
LINE
  8
0
 10
7.79665
 20
22.091
 11
7.85409
 21
22.0813
  0
LINE
  8
0
 10
7.85409
 20
22.0813
 11
11
 21
22.0813
  0
LINE
  8
0
 10
11
 20
22.0813
 11
11
 21
45.5
  0
LINE
  8
0
 10
11
 20
45.5
 11
0
 21
45.5
  0
LINE
  8
0
 10
0
 20
45.5
 11
0
 21
42
  0
LINE
  8
0
 10
36.5
 20
0
 11
47.5
 21
0
  0
LINE
  8
0
 10
47.5
 20
0
 11
47.5
 21
3.5
  0
LINE
  8
0
 10
47.5
 20
3.5
 11
47
 21
4
  0
LINE
  8
0
 10
47
 20
4
 11
41.8959
 21
4
  0
LINE
  8
0
 10
41.8959
 20
4
 11
40.3959
 21
5.5
  0
LINE
  8
0
 10
40.3959
 20
5.5
 11
40.3959
 21
18.5269
  0
LINE
  8
0
 10
40.3959
 20
18.5269
 11
40.3957
 21
18.531
  0
LINE
  8
0
 10
40.3957
 20
18.531
 11
40.3867
 21
18.6986
  0
LINE
  8
0
 10
40.3867
 20
18.6986
 11
40.3864
 21
18.7005
  0
LINE
  8
0
 10
40.3864
 20
18.7005
 11
40.3604
 21
18.8588
  0
LINE
  8
0
 10
40.3604
 20
18.8588
 11
40.3592
 21
18.8667
  0
LINE
  8
0
 10
40.3592
 20
18.8667
 11
40.3585
 21
18.8696
  0
LINE
  8
0
 10
40.3585
 20
18.8696
 11
40.3142
 21
19.0413
  0
LINE
  8
0
 10
40.3142
 20
19.0413
 11
40.2904
 21
19.1035
  0
LINE
  8
0
 10
40.2904
 20
19.1035
 11
40.2527
 21
19.2023
  0
LINE
  8
0
 10
40.2527
 20
19.2023
 11
40.1968
 21
19.3074
  0
LINE
  8
0
 10
40.1968
 20
19.3074
 11
40.1762
 21
19.346
  0
LINE
  8
0
 10
40.1762
 20
19.346
 11
40.0956
 21
19.4565
  0
LINE
  8
0
 10
40.0956
 20
19.4565
 11
40.0868
 21
19.4721
  0
LINE
  8
0
 10
40.0868
 20
19.4721
 11
40.0827
 21
19.4773
  0
LINE
  8
0
 10
40.0827
 20
19.4773
 11
39.9864
 21
19.5989
  0
LINE
  8
0
 10
39.9864
 20
19.5989
 11
39.9485
 21
19.6313
  0
LINE
  8
0
 10
39.9485
 20
19.6313
 11
39.8777
 21
19.6918
  0
LINE
  8
0
 10
39.8777
 20
19.6918
 11
39.8164
 21
19.7221
  0
LINE
  8
0
 10
39.8164
 20
19.7221
 11
39.7632
 21
19.7485
  0
LINE
  8
0
 10
39.7632
 20
19.7485
 11
39.6912
 21
19.7602
  0
LINE
  8
0
 10
39.6912
 20
19.7602
 11
39.6459
 21
19.7675
  0
LINE
  8
0
 10
39.6459
 20
19.7675
 11
36.5
 21
19.7675
  0
LINE
  8
0
 10
36.5
 20
19.7675
 11
36.5
 21
0
  0
LINE
  8
0
 10
36.5
 20
22.0813
 11
39.6459
 21
22.0813
  0
LINE
  8
0
 10
39.6459
 20
22.0813
 11
39.7055
 21
22.0913
  0
LINE
  8
0
 10
39.7055
 20
22.0913
 11
39.7632
 21
22.101
  0
LINE
  8
0
 10
39.7632
 20
22.101
 11
39.8127
 21
22.1262
  0
LINE
  8
0
 10
39.8127
 20
22.1262
 11
39.8777
 21
22.1594
  0
LINE
  8
0
 10
39.8777
 20
22.1594
 11
39.9105
 21
22.1883
  0
LINE
  8
0
 10
39.9105
 20
22.1883
 11
39.9864
 21
22.2552
  0
LINE
  8
0
 10
39.9864
 20
22.2552
 11
39.9996
 21
22.2724
  0
LINE
  8
0
 10
39.9996
 20
22.2724
 11
40.0518
 21
22.3405
  0
LINE
  8
0
 10
40.0518
 20
22.3405
 11
40.0809
 21
22.3698
  0
LINE
  8
0
 10
40.0809
 20
22.3698
 11
40.0868
 21
22.3756
  0
LINE
  8
0
 10
40.0868
 20
22.3756
 11
40.1539
 21
22.4696
  0
LINE
  8
0
 10
40.1539
 20
22.4696
 11
40.1762
 21
22.501
  0
LINE
  8
0
 10
40.1762
 20
22.501
 11
40.2181
 21
22.5813
  0
LINE
  8
0
 10
40.2181
 20
22.5813
 11
40.2527
 21
22.6478
  0
LINE
  8
0
 10
40.2527
 20
22.6478
 11
40.2735
 21
22.7036
  0
LINE
  8
0
 10
40.2735
 20
22.7036
 11
40.3142
 21
22.8124
  0
LINE
  8
0
 10
40.3142
 20
22.8124
 11
40.32
 21
22.8355
  0
LINE
  8
0
 10
40.32
 20
22.8355
 11
40.342
 21
22.9226
  0
LINE
  8
0
 10
40.342
 20
22.9226
 11
40.356
 21
22.9687
  0
LINE
  8
0
 10
40.356
 20
22.9687
 11
40.3592
 21
22.9793
  0
LINE
  8
0
 10
40.3592
 20
22.9793
 11
40.3796
 21
23.0953
  0
LINE
  8
0
 10
40.3796
 20
23.0953
 11
40.3867
 21
23.1355
  0
LINE
  8
0
 10
40.3867
 20
23.1355
 11
40.3919
 21
23.2258
  0
LINE
  8
0
 10
40.3919
 20
23.2258
 11
40.3959
 21
23.2957
  0
LINE
  8
0
 10
40.3959
 20
23.2957
 11
40.3959
 21
40
  0
LINE
  8
0
 10
40.3959
 20
40
 11
41.8959
 21
41.5
  0
LINE
  8
0
 10
41.8959
 20
41.5
 11
47
 21
41.5
  0
LINE
  8
0
 10
47
 20
41.5
 11
47.5
 21
42
  0
LINE
  8
0
 10
47.5
 20
42
 11
47.5
 21
45.5
  0
LINE
  8
0
 10
47.5
 20
45.5
 11
36.5
 21
45.5
  0
LINE
  8
0
 10
36.5
 20
45.5
 11
36.5
 21
22.0813
  0
ENDSEC
  0
SECTION
  2
OBJECTS
  0
DICTIONARY
  0
ENDSEC
  0
EOF
