  0
SECTION
  2
BLOCKS
  0
ENDSEC
  0
SECTION
  2
ENTITIES
  0
LINE
  8
0
 10
0
 20
0
 11
11
 21
0
  0
LINE
  8
0
 10
11
 20
0
 11
11
 21
18.7698
  0
LINE
  8
0
 10
11
 20
18.7698
 11
7.85409
 21
18.7698
  0
LINE
  8
0
 10
7.85409
 20
18.7698
 11
7.8469
 21
18.769
  0
LINE
  8
0
 10
7.8469
 20
18.769
 11
7.73676
 21
18.7563
  0
LINE
  8
0
 10
7.73676
 20
18.7563
 11
7.72963
 21
18.7538
  0
LINE
  8
0
 10
7.72963
 20
18.7538
 11
7.62232
 21
18.7161
  0
LINE
  8
0
 10
7.62232
 20
18.7161
 11
7.61521
 21
18.7118
  0
LINE
  8
0
 10
7.61521
 20
18.7118
 11
7.51359
 21
18.6502
  0
LINE
  8
0
 10
7.51359
 20
18.6502
 11
7.41325
 21
18.5602
  0
LINE
  8
0
 10
7.41325
 20
18.5602
 11
7.40635
 21
18.5516
  0
LINE
  8
0
 10
7.40635
 20
18.5516
 11
7.32376
 21
18.4484
  0
LINE
  8
0
 10
7.32376
 20
18.4484
 11
7.31722
 21
18.4372
  0
LINE
  8
0
 10
7.31722
 20
18.4372
 11
7.24732
 21
18.3175
  0
LINE
  8
0
 10
7.24732
 20
18.3175
 11
7.24147
 21
18.3035
  0
LINE
  8
0
 10
7.24147
 20
18.3035
 11
7.18583
 21
18.1706
  0
LINE
  8
0
 10
7.18583
 20
18.1706
 11
7.18105
 21
18.1537
  0
LINE
  8
0
 10
7.18105
 20
18.1537
 11
7.14079
 21
18.0115
  0
LINE
  8
0
 10
7.14079
 20
18.0115
 11
7.13755
 21
17.9918
  0
LINE
  8
0
 10
7.13755
 20
17.9918
 11
7.11332
 21
17.8441
  0
LINE
  8
0
 10
7.11332
 20
17.8441
 11
7.11212
 21
17.8217
  0
LINE
  8
0
 10
7.11212
 20
17.8217
 11
7.10409
 21
17.6724
  0
LINE
  8
0
 10
7.10409
 20
17.6724
 11
7.10409
 21
5.5
  0
LINE
  8
0
 10
7.10409
 20
5.5
 11
5.60409
 21
4
  0
LINE
  8
0
 10
5.60409
 20
4
 11
0.499999
 21
4
  0
LINE
  8
0
 10
0.499999
 20
4
 11
0
 21
3.5
  0
LINE
  8
0
 10
0
 20
3.5
 11
0
 21
0
  0
LINE
  8
0
 10
0
 20
42
 11
0.499999
 21
41.5
  0
LINE
  8
0
 10
0.499999
 20
41.5
 11
5.60409
 21
41.5
  0
LINE
  8
0
 10
5.60409
 20
41.5
 11
7.10409
 21
40
  0
LINE
  8
0
 10
7.10409
 20
40
 11
7.10409
 21
30.946
  0
LINE
  8
0
 10
7.10409
 20
30.946
 11
7.10746
 21
30.8111
  0
LINE
  8
0
 10
7.10746
 20
30.8111
 11
7.11332
 21
30.3363
  0
LINE
  8
0
 10
7.11332
 20
30.3363
 11
7.11537
 21
30.2818
  0
LINE
  8
0
 10
7.11537
 20
30.2818
 11
7.1153
 21
30.2459
  0
LINE
  8
0
 10
7.1153
 20
30.2459
 11
7.11433
 21
29.7654
  0
LINE
  8
0
 10
7.11433
 20
29.7654
 11
7.11389
 21
29.755
  0
LINE
  8
0
 10
7.11389
 20
29.755
 11
7.11332
 21
29.7413
  0
LINE
  8
0
 10
7.11332
 20
29.7413
 11
7.1095
 21
29.4617
  0
LINE
  8
0
 10
7.1095
 20
29.4617
 11
7.10638
 21
29.2331
  0
LINE
  8
0
 10
7.10638
 20
29.2331
 11
7.105
 21
29.1804
  0
LINE
  8
0
 10
7.105
 20
29.1804
 11
7.10409
 21
29.1457
  0
LINE
  8
0
 10
7.10409
 20
29.1457
 11
7.10409
 21
23.8437
  0
LINE
  8
0
 10
7.10409
 20
23.8437
 11
7.11103
 21
23.7473
  0
LINE
  8
0
 10
7.11103
 20
23.7473
 11
7.11332
 21
23.7156
  0
LINE
  8
0
 10
7.11332
 20
23.7156
 11
7.13737
 21
23.6061
  0
LINE
  8
0
 10
7.13737
 20
23.6061
 11
7.14079
 21
23.5906
  0
LINE
  8
0
 10
7.14079
 20
23.5906
 11
7.18528
 21
23.4733
  0
LINE
  8
0
 10
7.18528
 20
23.4733
 11
7.18583
 21
23.4717
  0
LINE
  8
0
 10
7.18583
 20
23.4717
 11
7.18595
 21
23.4714
  0
LINE
  8
0
 10
7.18595
 20
23.4714
 11
7.24732
 21
23.3515
  0
LINE
  8
0
 10
7.24732
 20
23.3515
 11
7.25868
 21
23.3356
  0
LINE
  8
0
 10
7.25868
 20
23.3356
 11
7.32376
 21
23.2444
  0
LINE
  8
0
 10
7.32376
 20
23.2444
 11
7.34908
 21
23.2185
  0
LINE
  8
0
 10
7.34908
 20
23.2185
 11
7.41325
 21
23.1529
  0
LINE
  8
0
 10
7.41325
 20
23.1529
 11
7.45315
 21
23.1237
  0
LINE
  8
0
 10
7.45315
 20
23.1237
 11
7.51359
 21
23.0793
  0
LINE
  8
0
 10
7.51359
 20
23.0793
 11
7.56648
 21
23.0531
  0
LINE
  8
0
 10
7.56648
 20
23.0531
 11
7.62232
 21
23.0254
  0
LINE
  8
0
 10
7.62232
 20
23.0254
 11
7.6847
 21
23.0075
  0
LINE
  8
0
 10
7.6847
 20
23.0075
 11
7.73676
 21
22.9925
  0
LINE
  8
0
 10
7.73676
 20
22.9925
 11
7.80388
 21
22.9862
  0
LINE
  8
0
 10
7.80388
 20
22.9862
 11
7.85409
 21
22.9815
  0
LINE
  8
0
 10
7.85409
 20
22.9815
 11
11
 21
22.9815
  0
LINE
  8
0
 10
11
 20
22.9815
 11
11
 21
45.5
  0
LINE
  8
0
 10
11
 20
45.5
 11
0
 21
45.5
  0
LINE
  8
0
 10
0
 20
45.5
 11
0
 21
42
  0
LINE
  8
0
 10
36.5
 20
0
 11
47.5
 21
0
  0
LINE
  8
0
 10
47.5
 20
0
 11
47.5
 21
3.5
  0
LINE
  8
0
 10
47.5
 20
3.5
 11
47
 21
4
  0
LINE
  8
0
 10
47
 20
4
 11
41.8959
 21
4
  0
LINE
  8
0
 10
41.8959
 20
4
 11
40.3959
 21
5.5
  0
LINE
  8
0
 10
40.3959
 20
5.5
 11
40.3959
 21
17.6724
  0
LINE
  8
0
 10
40.3959
 20
17.6724
 11
40.3946
 21
17.6964
  0
LINE
  8
0
 10
40.3946
 20
17.6964
 11
40.3867
 21
17.8441
  0
LINE
  8
0
 10
40.3867
 20
17.8441
 11
40.3832
 21
17.8654
  0
LINE
  8
0
 10
40.3832
 20
17.8654
 11
40.3592
 21
18.0115
  0
LINE
  8
0
 10
40.3592
 20
18.0115
 11
40.354
 21
18.0299
  0
LINE
  8
0
 10
40.354
 20
18.0299
 11
40.3142
 21
18.1706
  0
LINE
  8
0
 10
40.3142
 20
18.1706
 11
40.3078
 21
18.1859
  0
LINE
  8
0
 10
40.3078
 20
18.1859
 11
40.2527
 21
18.3175
  0
LINE
  8
0
 10
40.2527
 20
18.3175
 11
40.2455
 21
18.3297
  0
LINE
  8
0
 10
40.2455
 20
18.3297
 11
40.1762
 21
18.4484
  0
LINE
  8
0
 10
40.1762
 20
18.4484
 11
40.1687
 21
18.4578
  0
LINE
  8
0
 10
40.1687
 20
18.4578
 11
40.0868
 21
18.5602
  0
LINE
  8
0
 10
40.0868
 20
18.5602
 11
39.9864
 21
18.6502
  0
LINE
  8
0
 10
39.9864
 20
18.6502
 11
39.9788
 21
18.6548
  0
LINE
  8
0
 10
39.9788
 20
18.6548
 11
39.8777
 21
18.7161
  0
LINE
  8
0
 10
39.8777
 20
18.7161
 11
39.8702
 21
18.7187
  0
LINE
  8
0
 10
39.8702
 20
18.7187
 11
39.7632
 21
18.7563
  0
LINE
  8
0
 10
39.7632
 20
18.7563
 11
39.756
 21
18.7571
  0
LINE
  8
0
 10
39.756
 20
18.7571
 11
39.6459
 21
18.7698
  0
LINE
  8
0
 10
39.6459
 20
18.7698
 11
36.5
 21
18.7698
  0
LINE
  8
0
 10
36.5
 20
18.7698
 11
36.5
 21
0
  0
LINE
  8
0
 10
36.5
 20
22.9815
 11
39.6459
 21
22.9815
  0
LINE
  8
0
 10
39.6459
 20
22.9815
 11
39.7126
 21
22.9877
  0
LINE
  8
0
 10
39.7126
 20
22.9877
 11
39.7632
 21
22.9925
  0
LINE
  8
0
 10
39.7632
 20
22.9925
 11
39.8246
 21
23.0102
  0
LINE
  8
0
 10
39.8246
 20
23.0102
 11
39.8777
 21
23.0254
  0
LINE
  8
0
 10
39.8777
 20
23.0254
 11
39.9299
 21
23.0513
  0
LINE
  8
0
 10
39.9299
 20
23.0513
 11
39.9864
 21
23.0793
  0
LINE
  8
0
 10
39.9864
 20
23.0793
 11
40.027
 21
23.1091
  0
LINE
  8
0
 10
40.027
 20
23.1091
 11
40.0868
 21
23.1529
  0
LINE
  8
0
 10
40.0868
 20
23.1529
 11
40.1149
 21
23.1817
  0
LINE
  8
0
 10
40.1149
 20
23.1817
 11
40.1762
 21
23.2444
  0
LINE
  8
0
 10
40.1762
 20
23.2444
 11
40.1927
 21
23.2675
  0
LINE
  8
0
 10
40.1927
 20
23.2675
 11
40.2527
 21
23.3515
  0
LINE
  8
0
 10
40.2527
 20
23.3515
 11
40.2594
 21
23.3647
  0
LINE
  8
0
 10
40.2594
 20
23.3647
 11
40.3142
 21
23.4717
  0
LINE
  8
0
 10
40.3142
 20
23.4717
 11
40.3142
 21
23.4718
  0
LINE
  8
0
 10
40.3142
 20
23.4718
 11
40.3147
 21
23.4733
  0
LINE
  8
0
 10
40.3147
 20
23.4733
 11
40.3544
 21
23.578
  0
LINE
  8
0
 10
40.3544
 20
23.578
 11
40.3592
 21
23.5906
  0
LINE
  8
0
 10
40.3592
 20
23.5906
 11
40.3809
 21
23.6893
  0
LINE
  8
0
 10
40.3809
 20
23.6893
 11
40.3867
 21
23.7156
  0
LINE
  8
0
 10
40.3867
 20
23.7156
 11
40.393
 21
23.804
  0
LINE
  8
0
 10
40.393
 20
23.804
 11
40.3959
 21
23.8437
  0
LINE
  8
0
 10
40.3959
 20
23.8437
 11
40.3959
 21
29.1457
  0
LINE
  8
0
 10
40.3959
 20
29.1457
 11
40.3936
 21
29.2331
  0
LINE
  8
0
 10
40.3936
 20
29.2331
 11
40.3867
 21
29.7413
  0
LINE
  8
0
 10
40.3867
 20
29.7413
 11
40.3857
 21
29.7654
  0
LINE
  8
0
 10
40.3857
 20
29.7654
 11
40.3856
 21
29.7844
  0
LINE
  8
0
 10
40.3856
 20
29.7844
 11
40.3846
 21
30.2818
  0
LINE
  8
0
 10
40.3846
 20
30.2818
 11
40.3855
 21
30.3039
  0
LINE
  8
0
 10
40.3855
 20
30.3039
 11
40.3867
 21
30.3363
  0
LINE
  8
0
 10
40.3867
 20
30.3363
 11
40.3901
 21
30.6098
  0
LINE
  8
0
 10
40.3901
 20
30.6098
 11
40.3925
 21
30.8111
  0
LINE
  8
0
 10
40.3925
 20
30.8111
 11
40.3945
 21
30.8906
  0
LINE
  8
0
 10
40.3945
 20
30.8906
 11
40.3959
 21
30.946
  0
LINE
  8
0
 10
40.3959
 20
30.946
 11
40.3959
 21
40
  0
LINE
  8
0
 10
40.3959
 20
40
 11
41.8959
 21
41.5
  0
LINE
  8
0
 10
41.8959
 20
41.5
 11
47
 21
41.5
  0
LINE
  8
0
 10
47
 20
41.5
 11
47.5
 21
42
  0
LINE
  8
0
 10
47.5
 20
42
 11
47.5
 21
45.5
  0
LINE
  8
0
 10
47.5
 20
45.5
 11
36.5
 21
45.5
  0
LINE
  8
0
 10
36.5
 20
45.5
 11
36.5
 21
22.9815
  0
ENDSEC
  0
SECTION
  2
OBJECTS
  0
DICTIONARY
  0
ENDSEC
  0
EOF
