  0
SECTION
  2
BLOCKS
  0
ENDSEC
  0
SECTION
  2
ENTITIES
  0
LINE
  8
0
 10
0
 20
0
 11
11
 21
0
  0
LINE
  8
0
 10
11
 20
0
 11
11
 21
18.3426
  0
LINE
  8
0
 10
11
 20
18.3426
 11
7.85409
 21
18.3426
  0
LINE
  8
0
 10
7.85409
 20
18.3426
 11
7.84003
 21
18.3409
  0
LINE
  8
0
 10
7.84003
 20
18.3409
 11
7.73676
 21
18.329
  0
LINE
  8
0
 10
7.73676
 20
18.329
 11
7.72291
 21
18.3242
  0
LINE
  8
0
 10
7.72291
 20
18.3242
 11
7.62232
 21
18.2889
  0
LINE
  8
0
 10
7.62232
 20
18.2889
 11
7.60882
 21
18.2807
  0
LINE
  8
0
 10
7.60882
 20
18.2807
 11
7.51359
 21
18.223
  0
LINE
  8
0
 10
7.51359
 20
18.223
 11
7.41325
 21
18.133
  0
LINE
  8
0
 10
7.41325
 20
18.133
 11
7.40107
 21
18.1178
  0
LINE
  8
0
 10
7.40107
 20
18.1178
 11
7.32376
 21
18.0211
  0
LINE
  8
0
 10
7.32376
 20
18.0211
 11
7.31271
 21
18.0022
  0
LINE
  8
0
 10
7.31271
 20
18.0022
 11
7.24732
 21
17.8902
  0
LINE
  8
0
 10
7.24732
 20
17.8902
 11
7.23783
 21
17.8675
  0
LINE
  8
0
 10
7.23783
 20
17.8675
 11
7.18583
 21
17.7434
  0
LINE
  8
0
 10
7.18583
 20
17.7434
 11
7.17838
 21
17.7171
  0
LINE
  8
0
 10
7.17838
 20
17.7171
 11
7.14079
 21
17.5843
  0
LINE
  8
0
 10
7.14079
 20
17.5843
 11
7.13593
 21
17.5546
  0
LINE
  8
0
 10
7.13593
 20
17.5546
 11
7.11332
 21
17.4169
  0
LINE
  8
0
 10
7.11332
 20
17.4169
 11
7.11157
 21
17.3843
  0
LINE
  8
0
 10
7.11157
 20
17.3843
 11
7.10409
 21
17.2452
  0
LINE
  8
0
 10
7.10409
 20
17.2452
 11
7.10409
 21
5.5
  0
LINE
  8
0
 10
7.10409
 20
5.5
 11
5.8725
 21
4.26841
  0
LINE
  8
0
 10
5.8725
 20
4.26841
 11
5.8725
 21
4
  0
LINE
  8
0
 10
5.8725
 20
4
 11
0.499999
 21
4
  0
LINE
  8
0
 10
0.499999
 20
4
 11
0
 21
3.5
  0
LINE
  8
0
 10
0
 20
3.5
 11
0
 21
0
  0
LINE
  8
0
 10
0
 20
42
 11
0.499999
 21
41.5
  0
LINE
  8
0
 10
0.499999
 20
41.5
 11
5.8725
 21
41.5
  0
LINE
  8
0
 10
5.8725
 20
41.5
 11
5.8725
 21
41.2316
  0
LINE
  8
0
 10
5.8725
 20
41.2316
 11
7.10409
 21
40
  0
LINE
  8
0
 10
7.10409
 20
40
 11
7.10409
 21
31.8309
  0
LINE
  8
0
 10
7.10409
 20
31.8309
 11
7.10597
 21
31.7917
  0
LINE
  8
0
 10
7.10597
 20
31.7917
 11
7.11332
 21
31.593
  0
LINE
  8
0
 10
7.11332
 20
31.593
 11
7.12906
 21
31.4536
  0
LINE
  8
0
 10
7.12906
 20
31.4536
 11
7.14079
 21
31.3496
  0
LINE
  8
0
 10
7.14079
 20
31.3496
 11
7.16721
 21
31.214
  0
LINE
  8
0
 10
7.16721
 20
31.214
 11
7.18583
 21
31.0725
  0
LINE
  8
0
 10
7.18583
 20
31.0725
 11
7.23228
 21
30.834
  0
LINE
  8
0
 10
7.23228
 20
30.834
 11
7.24732
 21
30.7568
  0
LINE
  8
0
 10
7.24732
 20
30.7568
 11
7.2591
 21
30.7134
  0
LINE
  8
0
 10
7.2591
 20
30.7134
 11
7.30849
 21
30.3446
  0
LINE
  8
0
 10
7.30849
 20
30.3446
 11
7.32089
 21
30.252
  0
LINE
  8
0
 10
7.32089
 20
30.252
 11
7.3179
 21
29.8375
  0
LINE
  8
0
 10
7.3179
 20
29.8375
 11
7.31765
 21
29.802
  0
LINE
  8
0
 10
7.31765
 20
29.802
 11
7.2849
 21
29.5809
  0
LINE
  8
0
 10
7.2849
 20
29.5809
 11
7.2489
 21
29.338
  0
LINE
  8
0
 10
7.2489
 20
29.338
 11
7.2479
 21
29.3345
  0
LINE
  8
0
 10
7.2479
 20
29.3345
 11
7.24732
 21
29.3324
  0
LINE
  8
0
 10
7.24732
 20
29.3324
 11
7.21001
 21
29.15
  0
LINE
  8
0
 10
7.21001
 20
29.15
 11
7.18583
 21
29.0318
  0
LINE
  8
0
 10
7.18583
 20
29.0318
 11
7.17547
 21
28.9568
  0
LINE
  8
0
 10
7.17547
 20
28.9568
 11
7.15814
 21
28.8315
  0
LINE
  8
0
 10
7.15814
 20
28.8315
 11
7.14599
 21
28.771
  0
LINE
  8
0
 10
7.14599
 20
28.771
 11
7.14079
 21
28.7452
  0
LINE
  8
0
 10
7.14079
 20
28.7452
 11
7.12467
 21
28.6066
  0
LINE
  8
0
 10
7.12467
 20
28.6066
 11
7.11332
 21
28.5092
  0
LINE
  8
0
 10
7.11332
 20
28.5092
 11
7.11054
 21
28.4364
  0
LINE
  8
0
 10
7.11054
 20
28.4364
 11
7.10409
 21
28.2673
  0
LINE
  8
0
 10
7.10409
 20
28.2673
 11
7.10409
 21
24.0094
  0
LINE
  8
0
 10
7.10409
 20
24.0094
 11
7.11264
 21
23.8974
  0
LINE
  8
0
 10
7.11264
 20
23.8974
 11
7.11332
 21
23.8885
  0
LINE
  8
0
 10
7.11332
 20
23.8885
 11
7.13871
 21
23.7796
  0
LINE
  8
0
 10
7.13871
 20
23.7796
 11
7.14079
 21
23.7701
  0
LINE
  8
0
 10
7.14079
 20
23.7701
 11
7.14112
 21
23.7692
  0
LINE
  8
0
 10
7.14112
 20
23.7692
 11
7.18583
 21
23.6513
  0
LINE
  8
0
 10
7.18583
 20
23.6513
 11
7.19199
 21
23.6403
  0
LINE
  8
0
 10
7.19199
 20
23.6403
 11
7.24732
 21
23.5417
  0
LINE
  8
0
 10
7.24732
 20
23.5417
 11
7.26189
 21
23.523
  0
LINE
  8
0
 10
7.26189
 20
23.523
 11
7.32376
 21
23.4439
  0
LINE
  8
0
 10
7.32376
 20
23.4439
 11
7.34829
 21
23.421
  0
LINE
  8
0
 10
7.34829
 20
23.421
 11
7.41325
 21
23.3604
  0
LINE
  8
0
 10
7.41325
 20
23.3604
 11
7.448
 21
23.3372
  0
LINE
  8
0
 10
7.448
 20
23.3372
 11
7.51359
 21
23.2933
  0
LINE
  8
0
 10
7.51359
 20
23.2933
 11
7.55744
 21
23.2734
  0
LINE
  8
0
 10
7.55744
 20
23.2734
 11
7.62232
 21
23.2441
  0
LINE
  8
0
 10
7.62232
 20
23.2441
 11
7.6729
 21
23.2308
  0
LINE
  8
0
 10
7.6729
 20
23.2308
 11
7.73676
 21
23.2141
  0
LINE
  8
0
 10
7.73676
 20
23.2141
 11
7.79084
 21
23.2094
  0
LINE
  8
0
 10
7.79084
 20
23.2094
 11
7.85409
 21
23.204
  0
LINE
  8
0
 10
7.85409
 20
23.204
 11
11
 21
23.204
  0
LINE
  8
0
 10
11
 20
23.204
 11
11
 21
45.5
  0
LINE
  8
0
 10
11
 20
45.5
 11
0
 21
45.5
  0
LINE
  8
0
 10
0
 20
45.5
 11
0
 21
42
  0
LINE
  8
0
 10
36.5
 20
0
 11
47.5
 21
0
  0
LINE
  8
0
 10
47.5
 20
0
 11
47.5
 21
3.5
  0
LINE
  8
0
 10
47.5
 20
3.5
 11
47
 21
4
  0
LINE
  8
0
 10
47
 20
4
 11
41.6275
 21
4
  0
LINE
  8
0
 10
41.6275
 20
4
 11
41.6275
 21
4.26841
  0
LINE
  8
0
 10
41.6275
 20
4.26841
 11
40.3959
 21
5.5
  0
LINE
  8
0
 10
40.3959
 20
5.5
 11
40.3959
 21
17.2452
  0
LINE
  8
0
 10
40.3959
 20
17.2452
 11
40.3941
 21
17.2791
  0
LINE
  8
0
 10
40.3941
 20
17.2791
 11
40.3867
 21
17.4169
  0
LINE
  8
0
 10
40.3867
 20
17.4169
 11
40.3816
 21
17.4478
  0
LINE
  8
0
 10
40.3816
 20
17.4478
 11
40.3592
 21
17.5843
  0
LINE
  8
0
 10
40.3592
 20
17.5843
 11
40.3514
 21
17.6118
  0
LINE
  8
0
 10
40.3514
 20
17.6118
 11
40.3142
 21
17.7434
  0
LINE
  8
0
 10
40.3142
 20
17.7434
 11
40.3042
 21
17.7671
  0
LINE
  8
0
 10
40.3042
 20
17.7671
 11
40.2527
 21
17.8902
  0
LINE
  8
0
 10
40.2527
 20
17.8902
 11
40.2411
 21
17.91
  0
LINE
  8
0
 10
40.2411
 20
17.91
 11
40.1762
 21
18.0211
  0
LINE
  8
0
 10
40.1762
 20
18.0211
 11
40.1635
 21
18.037
  0
LINE
  8
0
 10
40.1635
 20
18.037
 11
40.0868
 21
18.133
  0
LINE
  8
0
 10
40.0868
 20
18.133
 11
39.9864
 21
18.223
  0
LINE
  8
0
 10
39.9864
 20
18.223
 11
39.9725
 21
18.2314
  0
LINE
  8
0
 10
39.9725
 20
18.2314
 11
39.8777
 21
18.2889
  0
LINE
  8
0
 10
39.8777
 20
18.2889
 11
39.8636
 21
18.2938
  0
LINE
  8
0
 10
39.8636
 20
18.2938
 11
39.7632
 21
18.329
  0
LINE
  8
0
 10
39.7632
 20
18.329
 11
39.7491
 21
18.3307
  0
LINE
  8
0
 10
39.7491
 20
18.3307
 11
39.6459
 21
18.3426
  0
LINE
  8
0
 10
39.6459
 20
18.3426
 11
36.5
 21
18.3426
  0
LINE
  8
0
 10
36.5
 20
18.3426
 11
36.5
 21
0
  0
LINE
  8
0
 10
36.5
 20
23.204
 11
39.6459
 21
23.204
  0
LINE
  8
0
 10
39.6459
 20
23.204
 11
39.6999
 21
23.2086
  0
LINE
  8
0
 10
39.6999
 20
23.2086
 11
39.7632
 21
23.2141
  0
LINE
  8
0
 10
39.7632
 20
23.2141
 11
39.8136
 21
23.2273
  0
LINE
  8
0
 10
39.8136
 20
23.2273
 11
39.8777
 21
23.2441
  0
LINE
  8
0
 10
39.8777
 20
23.2441
 11
39.9216
 21
23.2639
  0
LINE
  8
0
 10
39.9216
 20
23.2639
 11
39.9864
 21
23.2933
  0
LINE
  8
0
 10
39.9864
 20
23.2933
 11
40.0219
 21
23.317
  0
LINE
  8
0
 10
40.0219
 20
23.317
 11
40.0868
 21
23.3604
  0
LINE
  8
0
 10
40.0868
 20
23.3604
 11
40.113
 21
23.3849
  0
LINE
  8
0
 10
40.113
 20
23.3849
 11
40.1762
 21
23.4439
  0
LINE
  8
0
 10
40.1762
 20
23.4439
 11
40.1935
 21
23.466
  0
LINE
  8
0
 10
40.1935
 20
23.466
 11
40.2527
 21
23.5417
  0
LINE
  8
0
 10
40.2527
 20
23.5417
 11
40.2621
 21
23.5585
  0
LINE
  8
0
 10
40.2621
 20
23.5585
 11
40.3142
 21
23.6513
  0
LINE
  8
0
 10
40.3142
 20
23.6513
 11
40.3177
 21
23.6607
  0
LINE
  8
0
 10
40.3177
 20
23.6607
 11
40.3592
 21
23.7701
  0
LINE
  8
0
 10
40.3592
 20
23.7701
 11
40.3594
 21
23.7708
  0
LINE
  8
0
 10
40.3594
 20
23.7708
 11
40.3613
 21
23.7796
  0
LINE
  8
0
 10
40.3613
 20
23.7796
 11
40.3848
 21
23.8805
  0
LINE
  8
0
 10
40.3848
 20
23.8805
 11
40.3867
 21
23.8885
  0
LINE
  8
0
 10
40.3867
 20
23.8885
 11
40.3946
 21
23.9928
  0
LINE
  8
0
 10
40.3946
 20
23.9928
 11
40.3959
 21
24.0094
  0
LINE
  8
0
 10
40.3959
 20
24.0094
 11
40.3959
 21
28.2673
  0
LINE
  8
0
 10
40.3959
 20
28.2673
 11
40.3953
 21
28.2828
  0
LINE
  8
0
 10
40.3953
 20
28.2828
 11
40.3867
 21
28.5092
  0
LINE
  8
0
 10
40.3867
 20
28.5092
 11
40.3664
 21
28.6833
  0
LINE
  8
0
 10
40.3664
 20
28.6833
 11
40.3592
 21
28.7452
  0
LINE
  8
0
 10
40.3592
 20
28.7452
 11
40.3419
 21
28.8315
  0
LINE
  8
0
 10
40.3419
 20
28.8315
 11
40.3142
 21
29.0318
  0
LINE
  8
0
 10
40.3142
 20
29.0318
 11
40.2544
 21
29.3239
  0
LINE
  8
0
 10
40.2544
 20
29.3239
 11
40.2527
 21
29.3324
  0
LINE
  8
0
 10
40.2527
 20
29.3324
 11
40.2511
 21
29.338
  0
LINE
  8
0
 10
40.2511
 20
29.338
 11
40.2374
 21
29.4307
  0
LINE
  8
0
 10
40.2374
 20
29.4307
 11
40.1824
 21
29.802
  0
LINE
  8
0
 10
40.1824
 20
29.802
 11
40.1792
 21
30.2339
  0
LINE
  8
0
 10
40.1792
 20
30.2339
 11
40.1791
 21
30.252
  0
LINE
  8
0
 10
40.1791
 20
30.252
 11
40.2115
 21
30.4938
  0
LINE
  8
0
 10
40.2115
 20
30.4938
 11
40.2409
 21
30.7134
  0
LINE
  8
0
 10
40.2409
 20
30.7134
 11
40.2482
 21
30.7403
  0
LINE
  8
0
 10
40.2482
 20
30.7403
 11
40.2527
 21
30.7568
  0
LINE
  8
0
 10
40.2527
 20
30.7568
 11
40.2863
 21
30.9293
  0
LINE
  8
0
 10
40.2863
 20
30.9293
 11
40.3142
 21
31.0725
  0
LINE
  8
0
 10
40.3142
 20
31.0725
 11
40.3214
 21
31.1273
  0
LINE
  8
0
 10
40.3214
 20
31.1273
 11
40.3328
 21
31.214
  0
LINE
  8
0
 10
40.3328
 20
31.214
 11
40.3511
 21
31.3079
  0
LINE
  8
0
 10
40.3511
 20
31.3079
 11
40.3592
 21
31.3496
  0
LINE
  8
0
 10
40.3592
 20
31.3496
 11
40.3734
 21
31.4753
  0
LINE
  8
0
 10
40.3734
 20
31.4753
 11
40.3867
 21
31.593
  0
LINE
  8
0
 10
40.3867
 20
31.593
 11
40.3887
 21
31.649
  0
LINE
  8
0
 10
40.3887
 20
31.649
 11
40.394
 21
31.7917
  0
LINE
  8
0
 10
40.394
 20
31.7917
 11
40.3955
 21
31.8216
  0
LINE
  8
0
 10
40.3955
 20
31.8216
 11
40.3959
 21
31.8309
  0
LINE
  8
0
 10
40.3959
 20
31.8309
 11
40.3959
 21
40
  0
LINE
  8
0
 10
40.3959
 20
40
 11
41.6275
 21
41.2316
  0
LINE
  8
0
 10
41.6275
 20
41.2316
 11
41.6275
 21
41.5
  0
LINE
  8
0
 10
41.6275
 20
41.5
 11
47
 21
41.5
  0
LINE
  8
0
 10
47
 20
41.5
 11
47.5
 21
42
  0
LINE
  8
0
 10
47.5
 20
42
 11
47.5
 21
45.5
  0
LINE
  8
0
 10
47.5
 20
45.5
 11
36.5
 21
45.5
  0
LINE
  8
0
 10
36.5
 20
45.5
 11
36.5
 21
23.204
  0
ENDSEC
  0
SECTION
  2
OBJECTS
  0
DICTIONARY
  0
ENDSEC
  0
EOF
