  0
SECTION
  2
BLOCKS
  0
ENDSEC
  0
SECTION
  2
ENTITIES
  0
LINE
  8
0
 10
0
 20
0
 11
11
 21
0
  0
LINE
  8
0
 10
11
 20
0
 11
11
 21
18.1289
  0
LINE
  8
0
 10
11
 20
18.1289
 11
7.85409
 21
18.1289
  0
LINE
  8
0
 10
7.85409
 20
18.1289
 11
7.83659
 21
18.1269
  0
LINE
  8
0
 10
7.83659
 20
18.1269
 11
7.73676
 21
18.1154
  0
LINE
  8
0
 10
7.73676
 20
18.1154
 11
7.71955
 21
18.1094
  0
LINE
  8
0
 10
7.71955
 20
18.1094
 11
7.62232
 21
18.0752
  0
LINE
  8
0
 10
7.62232
 20
18.0752
 11
7.60562
 21
18.0651
  0
LINE
  8
0
 10
7.60562
 20
18.0651
 11
7.51359
 21
18.0093
  0
LINE
  8
0
 10
7.51359
 20
18.0093
 11
7.41325
 21
17.9194
  0
LINE
  8
0
 10
7.41325
 20
17.9194
 11
7.39843
 21
17.9008
  0
LINE
  8
0
 10
7.39843
 20
17.9008
 11
7.32376
 21
17.8075
  0
LINE
  8
0
 10
7.32376
 20
17.8075
 11
7.31045
 21
17.7847
  0
LINE
  8
0
 10
7.31045
 20
17.7847
 11
7.24732
 21
17.6766
  0
LINE
  8
0
 10
7.24732
 20
17.6766
 11
7.23601
 21
17.6496
  0
LINE
  8
0
 10
7.23601
 20
17.6496
 11
7.18583
 21
17.5298
  0
LINE
  8
0
 10
7.18583
 20
17.5298
 11
7.17705
 21
17.4987
  0
LINE
  8
0
 10
7.17705
 20
17.4987
 11
7.14079
 21
17.3707
  0
LINE
  8
0
 10
7.14079
 20
17.3707
 11
7.13511
 21
17.336
  0
LINE
  8
0
 10
7.13511
 20
17.336
 11
7.11332
 21
17.2032
  0
LINE
  8
0
 10
7.11332
 20
17.2032
 11
7.1113
 21
17.1656
  0
LINE
  8
0
 10
7.1113
 20
17.1656
 11
7.10409
 21
17.0316
  0
LINE
  8
0
 10
7.10409
 20
17.0316
 11
7.10409
 21
5.5
  0
LINE
  8
0
 10
7.10409
 20
5.5
 11
6.21891
 21
4.61482
  0
LINE
  8
0
 10
6.21891
 20
4.61482
 11
6.21891
 21
4
  0
LINE
  8
0
 10
6.21891
 20
4
 11
0.499999
 21
4
  0
LINE
  8
0
 10
0.499999
 20
4
 11
0
 21
3.5
  0
LINE
  8
0
 10
0
 20
3.5
 11
0
 21
0
  0
LINE
  8
0
 10
0
 20
42
 11
0.499999
 21
41.5
  0
LINE
  8
0
 10
0.499999
 20
41.5
 11
6.21891
 21
41.5
  0
LINE
  8
0
 10
6.21891
 20
41.5
 11
6.21891
 21
40.8852
  0
LINE
  8
0
 10
6.21891
 20
40.8852
 11
7.10409
 21
40
  0
LINE
  8
0
 10
7.10409
 20
40
 11
7.10409
 21
32.0924
  0
LINE
  8
0
 10
7.10409
 20
32.0924
 11
7.10839
 21
32.0027
  0
LINE
  8
0
 10
7.10839
 20
32.0027
 11
7.11332
 21
31.9
  0
LINE
  8
0
 10
7.11332
 20
31.9
 11
7.13764
 21
31.7338
  0
LINE
  8
0
 10
7.13764
 20
31.7338
 11
7.14079
 21
31.7122
  0
LINE
  8
0
 10
7.14079
 20
31.7122
 11
7.15312
 21
31.6634
  0
LINE
  8
0
 10
7.15312
 20
31.6634
 11
7.18583
 21
31.4954
  0
LINE
  8
0
 10
7.18583
 20
31.4954
 11
7.21659
 21
31.3887
  0
LINE
  8
0
 10
7.21659
 20
31.3887
 11
7.24732
 21
31.282
  0
LINE
  8
0
 10
7.24732
 20
31.282
 11
7.30906
 21
31.1282
  0
LINE
  8
0
 10
7.30906
 20
31.1282
 11
7.32376
 21
31.0741
  0
LINE
  8
0
 10
7.32376
 20
31.0741
 11
7.34456
 21
31.0182
  0
LINE
  8
0
 10
7.34456
 20
31.0182
 11
7.41325
 21
30.8336
  0
LINE
  8
0
 10
7.41325
 20
30.8336
 11
7.50095
 21
30.6645
  0
LINE
  8
0
 10
7.50095
 20
30.6645
 11
7.51359
 21
30.6151
  0
LINE
  8
0
 10
7.51359
 20
30.6151
 11
7.55127
 21
30.5156
  0
LINE
  8
0
 10
7.55127
 20
30.5156
 11
7.62232
 21
30.3279
  0
LINE
  8
0
 10
7.62232
 20
30.3279
 11
7.68163
 21
30.2371
  0
LINE
  8
0
 10
7.68163
 20
30.2371
 11
7.67493
 21
30.0467
  0
LINE
  8
0
 10
7.67493
 20
30.0467
 11
7.66697
 21
29.8202
  0
LINE
  8
0
 10
7.66697
 20
29.8202
 11
7.63466
 21
29.7755
  0
LINE
  8
0
 10
7.63466
 20
29.7755
 11
7.62232
 21
29.7584
  0
LINE
  8
0
 10
7.62232
 20
29.7584
 11
7.56507
 21
29.6217
  0
LINE
  8
0
 10
7.56507
 20
29.6217
 11
7.51359
 21
29.4988
  0
LINE
  8
0
 10
7.51359
 20
29.4988
 11
7.50006
 21
29.451
  0
LINE
  8
0
 10
7.50006
 20
29.451
 11
7.4829
 21
29.3904
  0
LINE
  8
0
 10
7.4829
 20
29.3904
 11
7.43383
 21
29.3003
  0
LINE
  8
0
 10
7.43383
 20
29.3003
 11
7.41325
 21
29.2625
  0
LINE
  8
0
 10
7.41325
 20
29.2625
 11
7.37081
 21
29.1539
  0
LINE
  8
0
 10
7.37081
 20
29.1539
 11
7.32376
 21
29.0335
  0
LINE
  8
0
 10
7.32376
 20
29.0335
 11
7.31268
 21
28.9947
  0
LINE
  8
0
 10
7.31268
 20
28.9947
 11
7.29174
 21
28.9212
  0
LINE
  8
0
 10
7.29174
 20
28.9212
 11
7.25946
 21
28.8433
  0
LINE
  8
0
 10
7.25946
 20
28.8433
 11
7.24732
 21
28.814
  0
LINE
  8
0
 10
7.24732
 20
28.814
 11
7.2129
 21
28.6982
  0
LINE
  8
0
 10
7.2129
 20
28.6982
 11
7.18583
 21
28.6071
  0
LINE
  8
0
 10
7.18583
 20
28.6071
 11
7.17316
 21
28.544
  0
LINE
  8
0
 10
7.17316
 20
28.544
 11
7.14079
 21
28.3829
  0
LINE
  8
0
 10
7.14079
 20
28.3829
 11
7.14058
 21
28.381
  0
LINE
  8
0
 10
7.14058
 20
28.381
 11
7.14001
 21
28.3762
  0
LINE
  8
0
 10
7.14001
 20
28.3762
 11
7.1196
 21
28.2397
  0
LINE
  8
0
 10
7.1196
 20
28.2397
 11
7.11332
 21
28.1977
  0
LINE
  8
0
 10
7.11332
 20
28.1977
 11
7.10828
 21
28.0949
  0
LINE
  8
0
 10
7.10828
 20
28.0949
 11
7.10409
 21
28.0094
  0
LINE
  8
0
 10
7.10409
 20
28.0094
 11
7.10409
 21
24.0618
  0
LINE
  8
0
 10
7.10409
 20
24.0618
 11
7.1088
 21
24.0001
  0
LINE
  8
0
 10
7.1088
 20
24.0001
 11
7.11332
 21
23.9409
  0
LINE
  8
0
 10
7.11332
 20
23.9409
 11
7.12908
 21
23.8733
  0
LINE
  8
0
 10
7.12908
 20
23.8733
 11
7.14079
 21
23.823
  0
LINE
  8
0
 10
7.14079
 20
23.823
 11
7.16958
 21
23.7514
  0
LINE
  8
0
 10
7.16958
 20
23.7514
 11
7.18583
 21
23.711
  0
LINE
  8
0
 10
7.18583
 20
23.711
 11
7.22914
 21
23.6382
  0
LINE
  8
0
 10
7.22914
 20
23.6382
 11
7.24732
 21
23.6076
  0
LINE
  8
0
 10
7.24732
 20
23.6076
 11
7.30592
 21
23.537
  0
LINE
  8
0
 10
7.30592
 20
23.537
 11
7.32376
 21
23.5154
  0
LINE
  8
0
 10
7.32376
 20
23.5154
 11
7.39742
 21
23.4506
  0
LINE
  8
0
 10
7.39742
 20
23.4506
 11
7.41325
 21
23.4367
  0
LINE
  8
0
 10
7.41325
 20
23.4367
 11
7.50063
 21
23.3815
  0
LINE
  8
0
 10
7.50063
 20
23.3815
 11
7.51359
 21
23.3733
  0
LINE
  8
0
 10
7.51359
 20
23.3733
 11
7.61222
 21
23.3312
  0
LINE
  8
0
 10
7.61222
 20
23.3312
 11
7.62232
 21
23.3269
  0
LINE
  8
0
 10
7.62232
 20
23.3269
 11
7.72873
 21
23.3006
  0
LINE
  8
0
 10
7.72873
 20
23.3006
 11
7.73676
 21
23.2986
  0
LINE
  8
0
 10
7.73676
 20
23.2986
 11
7.8468
 21
23.2897
  0
LINE
  8
0
 10
7.8468
 20
23.2897
 11
7.85409
 21
23.2891
  0
LINE
  8
0
 10
7.85409
 20
23.2891
 11
11
 21
23.2891
  0
LINE
  8
0
 10
11
 20
23.2891
 11
11
 21
45.5
  0
LINE
  8
0
 10
11
 20
45.5
 11
0
 21
45.5
  0
LINE
  8
0
 10
0
 20
45.5
 11
0
 21
42
  0
LINE
  8
0
 10
36.5
 20
0
 11
47.5
 21
0
  0
LINE
  8
0
 10
47.5
 20
0
 11
47.5
 21
3.5
  0
LINE
  8
0
 10
47.5
 20
3.5
 11
47
 21
4
  0
LINE
  8
0
 10
47
 20
4
 11
41.2811
 21
4
  0
LINE
  8
0
 10
41.2811
 20
4
 11
41.2811
 21
4.61482
  0
LINE
  8
0
 10
41.2811
 20
4.61482
 11
40.3959
 21
5.5
  0
LINE
  8
0
 10
40.3959
 20
5.5
 11
40.3959
 21
17.0316
  0
LINE
  8
0
 10
40.3959
 20
17.0316
 11
40.3938
 21
17.0704
  0
LINE
  8
0
 10
40.3938
 20
17.0704
 11
40.3867
 21
17.2032
  0
LINE
  8
0
 10
40.3867
 20
17.2032
 11
40.3808
 21
17.239
  0
LINE
  8
0
 10
40.3808
 20
17.239
 11
40.3592
 21
17.3707
  0
LINE
  8
0
 10
40.3592
 20
17.3707
 11
40.3501
 21
17.4028
  0
LINE
  8
0
 10
40.3501
 20
17.4028
 11
40.3142
 21
17.5298
  0
LINE
  8
0
 10
40.3142
 20
17.5298
 11
40.3024
 21
17.5578
  0
LINE
  8
0
 10
40.3024
 20
17.5578
 11
40.2527
 21
17.6766
  0
LINE
  8
0
 10
40.2527
 20
17.6766
 11
40.2389
 21
17.7002
  0
LINE
  8
0
 10
40.2389
 20
17.7002
 11
40.1762
 21
17.8075
  0
LINE
  8
0
 10
40.1762
 20
17.8075
 11
40.1609
 21
17.8267
  0
LINE
  8
0
 10
40.1609
 20
17.8267
 11
40.0868
 21
17.9194
  0
LINE
  8
0
 10
40.0868
 20
17.9194
 11
39.9864
 21
18.0093
  0
LINE
  8
0
 10
39.9864
 20
18.0093
 11
39.9693
 21
18.0197
  0
LINE
  8
0
 10
39.9693
 20
18.0197
 11
39.8777
 21
18.0752
  0
LINE
  8
0
 10
39.8777
 20
18.0752
 11
39.8602
 21
18.0814
  0
LINE
  8
0
 10
39.8602
 20
18.0814
 11
39.7632
 21
18.1154
  0
LINE
  8
0
 10
39.7632
 20
18.1154
 11
39.7457
 21
18.1174
  0
LINE
  8
0
 10
39.7457
 20
18.1174
 11
39.6459
 21
18.1289
  0
LINE
  8
0
 10
39.6459
 20
18.1289
 11
36.5
 21
18.1289
  0
LINE
  8
0
 10
36.5
 20
18.1289
 11
36.5
 21
0
  0
LINE
  8
0
 10
36.5
 20
23.2891
 11
39.6459
 21
23.2891
  0
LINE
  8
0
 10
39.6459
 20
23.2891
 11
39.7551
 21
23.298
  0
LINE
  8
0
 10
39.7551
 20
23.298
 11
39.7632
 21
23.2986
  0
LINE
  8
0
 10
39.7632
 20
23.2986
 11
39.8674
 21
23.3244
  0
LINE
  8
0
 10
39.8674
 20
23.3244
 11
39.8777
 21
23.3269
  0
LINE
  8
0
 10
39.8777
 20
23.3269
 11
39.973
 21
23.3676
  0
LINE
  8
0
 10
39.973
 20
23.3676
 11
39.9864
 21
23.3733
  0
LINE
  8
0
 10
39.9864
 20
23.3733
 11
40.07
 21
23.4261
  0
LINE
  8
0
 10
40.07
 20
23.4261
 11
40.0868
 21
23.4367
  0
LINE
  8
0
 10
40.0868
 20
23.4367
 11
40.1567
 21
23.4982
  0
LINE
  8
0
 10
40.1567
 20
23.4982
 11
40.1762
 21
23.5154
  0
LINE
  8
0
 10
40.1762
 20
23.5154
 11
40.2317
 21
23.5823
  0
LINE
  8
0
 10
40.2317
 20
23.5823
 11
40.2527
 21
23.6076
  0
LINE
  8
0
 10
40.2527
 20
23.6076
 11
40.2936
 21
23.6765
  0
LINE
  8
0
 10
40.2936
 20
23.6765
 11
40.3142
 21
23.711
  0
LINE
  8
0
 10
40.3142
 20
23.711
 11
40.3415
 21
23.779
  0
LINE
  8
0
 10
40.3415
 20
23.779
 11
40.3592
 21
23.823
  0
LINE
  8
0
 10
40.3592
 20
23.823
 11
40.3743
 21
23.8876
  0
LINE
  8
0
 10
40.3743
 20
23.8876
 11
40.3867
 21
23.9409
  0
LINE
  8
0
 10
40.3867
 20
23.9409
 11
40.3912
 21
24.0004
  0
LINE
  8
0
 10
40.3912
 20
24.0004
 11
40.3959
 21
24.0618
  0
LINE
  8
0
 10
40.3959
 20
24.0618
 11
40.3959
 21
28.0094
  0
LINE
  8
0
 10
40.3959
 20
28.0094
 11
40.3903
 21
28.1237
  0
LINE
  8
0
 10
40.3903
 20
28.1237
 11
40.3867
 21
28.1977
  0
LINE
  8
0
 10
40.3867
 20
28.1977
 11
40.36
 21
28.3762
  0
LINE
  8
0
 10
40.36
 20
28.3762
 11
40.3592
 21
28.3829
  0
LINE
  8
0
 10
40.3592
 20
28.3829
 11
40.3583
 21
28.3872
  0
LINE
  8
0
 10
40.3583
 20
28.3872
 11
40.3142
 21
28.6071
  0
LINE
  8
0
 10
40.3142
 20
28.6071
 11
40.2734
 21
28.7442
  0
LINE
  8
0
 10
40.2734
 20
28.7442
 11
40.2527
 21
28.814
  0
LINE
  8
0
 10
40.2527
 20
28.814
 11
40.2083
 21
28.9212
  0
LINE
  8
0
 10
40.2083
 20
28.9212
 11
40.1762
 21
29.0335
  0
LINE
  8
0
 10
40.1762
 20
29.0335
 11
40.1357
 21
29.1373
  0
LINE
  8
0
 10
40.1357
 20
29.1373
 11
40.0868
 21
29.2625
  0
LINE
  8
0
 10
40.0868
 20
29.2625
 11
40.0171
 21
29.3904
  0
LINE
  8
0
 10
40.0171
 20
29.3904
 11
39.9864
 21
29.4988
  0
LINE
  8
0
 10
39.9864
 20
29.4988
 11
39.9179
 21
29.6625
  0
LINE
  8
0
 10
39.9179
 20
29.6625
 11
39.8777
 21
29.7584
  0
LINE
  8
0
 10
39.8777
 20
29.7584
 11
39.833
 21
29.8202
  0
LINE
  8
0
 10
39.833
 20
29.8202
 11
39.8265
 21
30.0056
  0
LINE
  8
0
 10
39.8265
 20
30.0056
 11
39.8184
 21
30.2371
  0
LINE
  8
0
 10
39.8184
 20
30.2371
 11
39.86
 21
30.3009
  0
LINE
  8
0
 10
39.86
 20
30.3009
 11
39.8777
 21
30.3279
  0
LINE
  8
0
 10
39.8777
 20
30.3279
 11
39.9282
 21
30.4613
  0
LINE
  8
0
 10
39.9282
 20
30.4613
 11
39.9864
 21
30.6151
  0
LINE
  8
0
 10
39.9864
 20
30.6151
 11
39.9923
 21
30.6382
  0
LINE
  8
0
 10
39.9923
 20
30.6382
 11
39.9991
 21
30.6645
  0
LINE
  8
0
 10
39.9991
 20
30.6645
 11
40.0599
 21
30.7818
  0
LINE
  8
0
 10
40.0599
 20
30.7818
 11
40.0868
 21
30.8336
  0
LINE
  8
0
 10
40.0868
 20
30.8336
 11
40.123
 21
30.931
  0
LINE
  8
0
 10
40.123
 20
30.931
 11
40.1762
 21
31.0741
  0
LINE
  8
0
 10
40.1762
 20
31.0741
 11
40.1815
 21
31.0935
  0
LINE
  8
0
 10
40.1815
 20
31.0935
 11
40.1909
 21
31.1282
  0
LINE
  8
0
 10
40.1909
 20
31.1282
 11
40.2353
 21
31.2388
  0
LINE
  8
0
 10
40.2353
 20
31.2388
 11
40.2527
 21
31.282
  0
LINE
  8
0
 10
40.2527
 20
31.282
 11
40.2827
 21
31.3861
  0
LINE
  8
0
 10
40.2827
 20
31.3861
 11
40.3142
 21
31.4954
  0
LINE
  8
0
 10
40.3142
 20
31.4954
 11
40.3234
 21
31.5427
  0
LINE
  8
0
 10
40.3234
 20
31.5427
 11
40.3469
 21
31.6634
  0
LINE
  8
0
 10
40.3469
 20
31.6634
 11
40.3563
 21
31.7006
  0
LINE
  8
0
 10
40.3563
 20
31.7006
 11
40.3592
 21
31.7122
  0
LINE
  8
0
 10
40.3592
 20
31.7122
 11
40.3783
 21
31.8429
  0
LINE
  8
0
 10
40.3783
 20
31.8429
 11
40.3867
 21
31.9
  0
LINE
  8
0
 10
40.3867
 20
31.9
 11
40.391
 21
31.9899
  0
LINE
  8
0
 10
40.391
 20
31.9899
 11
40.3959
 21
32.0924
  0
LINE
  8
0
 10
40.3959
 20
32.0924
 11
40.3959
 21
40
  0
LINE
  8
0
 10
40.3959
 20
40
 11
41.2811
 21
40.8852
  0
LINE
  8
0
 10
41.2811
 20
40.8852
 11
41.2811
 21
41.5
  0
LINE
  8
0
 10
41.2811
 20
41.5
 11
47
 21
41.5
  0
LINE
  8
0
 10
47
 20
41.5
 11
47.5
 21
42
  0
LINE
  8
0
 10
47.5
 20
42
 11
47.5
 21
45.5
  0
LINE
  8
0
 10
47.5
 20
45.5
 11
36.5
 21
45.5
  0
LINE
  8
0
 10
36.5
 20
45.5
 11
36.5
 21
23.2891
  0
ENDSEC
  0
SECTION
  2
OBJECTS
  0
DICTIONARY
  0
ENDSEC
  0
EOF
