  0
SECTION
  2
BLOCKS
  0
ENDSEC
  0
SECTION
  2
ENTITIES
  0
LINE
  8
0
 10
0
 20
0
 11
3.06178
 21
0
  0
LINE
  8
0
 10
3.06178
 20
0
 11
3.06178
 21
4
  0
LINE
  8
0
 10
3.06178
 20
4
 11
0.499999
 21
4
  0
LINE
  8
0
 10
0.499999
 20
4
 11
0
 21
3.5
  0
LINE
  8
0
 10
0
 20
3.5
 11
0
 21
0
  0
LINE
  8
0
 10
0
 20
42
 11
0.499999
 21
41.5
  0
LINE
  8
0
 10
0.499999
 20
41.5
 11
3.06178
 21
41.5
  0
LINE
  8
0
 10
3.06178
 20
41.5
 11
3.06178
 21
45.5
  0
LINE
  8
0
 10
3.06178
 20
45.5
 11
0
 21
45.5
  0
LINE
  8
0
 10
0
 20
45.5
 11
0
 21
42
  0
LINE
  8
0
 10
4.43564
 20
0
 11
11
 21
0
  0
LINE
  8
0
 10
11
 20
0
 11
11
 21
17.9153
  0
LINE
  8
0
 10
11
 20
17.9153
 11
7.85409
 21
17.9153
  0
LINE
  8
0
 10
7.85409
 20
17.9153
 11
7.83316
 21
17.9129
  0
LINE
  8
0
 10
7.83316
 20
17.9129
 11
7.73676
 21
17.9018
  0
LINE
  8
0
 10
7.73676
 20
17.9018
 11
7.71619
 21
17.8946
  0
LINE
  8
0
 10
7.71619
 20
17.8946
 11
7.62232
 21
17.8616
  0
LINE
  8
0
 10
7.62232
 20
17.8616
 11
7.60242
 21
17.8495
  0
LINE
  8
0
 10
7.60242
 20
17.8495
 11
7.51359
 21
17.7957
  0
LINE
  8
0
 10
7.51359
 20
17.7957
 11
7.41325
 21
17.7057
  0
LINE
  8
0
 10
7.41325
 20
17.7057
 11
7.39579
 21
17.6839
  0
LINE
  8
0
 10
7.39579
 20
17.6839
 11
7.32376
 21
17.5939
  0
LINE
  8
0
 10
7.32376
 20
17.5939
 11
7.30819
 21
17.5672
  0
LINE
  8
0
 10
7.30819
 20
17.5672
 11
7.24732
 21
17.463
  0
LINE
  8
0
 10
7.24732
 20
17.463
 11
7.23419
 21
17.4316
  0
LINE
  8
0
 10
7.23419
 20
17.4316
 11
7.18583
 21
17.3161
  0
LINE
  8
0
 10
7.18583
 20
17.3161
 11
7.17572
 21
17.2804
  0
LINE
  8
0
 10
7.17572
 20
17.2804
 11
7.14079
 21
17.157
  0
LINE
  8
0
 10
7.14079
 20
17.157
 11
7.1343
 21
17.1175
  0
LINE
  8
0
 10
7.1343
 20
17.1175
 11
7.11332
 21
16.9896
  0
LINE
  8
0
 10
7.11332
 20
16.9896
 11
7.11102
 21
16.9469
  0
LINE
  8
0
 10
7.11102
 20
16.9469
 11
7.10409
 21
16.8179
  0
LINE
  8
0
 10
7.10409
 20
16.8179
 11
7.10409
 21
5.5
  0
LINE
  8
0
 10
7.10409
 20
5.5
 11
6.5
 21
4.89591
  0
LINE
  8
0
 10
6.5
 20
4.89591
 11
6.5
 21
4
  0
LINE
  8
0
 10
6.5
 20
4
 11
4.43564
 21
4
  0
LINE
  8
0
 10
4.43564
 20
4
 11
4.43564
 21
0
  0
LINE
  8
0
 10
4.43564
 20
41.5
 11
6.5
 21
41.5
  0
LINE
  8
0
 10
6.5
 20
41.5
 11
6.5
 21
40.6041
  0
LINE
  8
0
 10
6.5
 20
40.6041
 11
7.10409
 21
40
  0
LINE
  8
0
 10
7.10409
 20
40
 11
7.10409
 21
32.319
  0
LINE
  8
0
 10
7.10409
 20
32.319
 11
7.11311
 21
32.1625
  0
LINE
  8
0
 10
7.11311
 20
32.1625
 11
7.11332
 21
32.1588
  0
LINE
  8
0
 10
7.11332
 20
32.1588
 11
7.1156
 21
32.1459
  0
LINE
  8
0
 10
7.1156
 20
32.1459
 11
7.14079
 21
31.9737
  0
LINE
  8
0
 10
7.14079
 20
31.9737
 11
7.15738
 21
31.908
  0
LINE
  8
0
 10
7.15738
 20
31.908
 11
7.18583
 21
31.7954
  0
LINE
  8
0
 10
7.18583
 20
31.7954
 11
7.23278
 21
31.6697
  0
LINE
  8
0
 10
7.23278
 20
31.6697
 11
7.24732
 21
31.6308
  0
LINE
  8
0
 10
7.24732
 20
31.6308
 11
7.29711
 21
31.5351
  0
LINE
  8
0
 10
7.29711
 20
31.5351
 11
7.32376
 21
31.4688
  0
LINE
  8
0
 10
7.32376
 20
31.4688
 11
7.34052
 21
31.4383
  0
LINE
  8
0
 10
7.34052
 20
31.4383
 11
7.41325
 21
31.3062
  0
LINE
  8
0
 10
7.41325
 20
31.3062
 11
7.47467
 21
31.2261
  0
LINE
  8
0
 10
7.47467
 20
31.2261
 11
7.51359
 21
31.1754
  0
LINE
  8
0
 10
7.51359
 20
31.1754
 11
7.61132
 21
31.0893
  0
LINE
  8
0
 10
7.61132
 20
31.0893
 11
7.62232
 21
31.0796
  0
LINE
  8
0
 10
7.62232
 20
31.0796
 11
7.69494
 21
31.0425
  0
LINE
  8
0
 10
7.69494
 20
31.0425
 11
7.73676
 21
31.0109
  0
LINE
  8
0
 10
7.73676
 20
31.0109
 11
7.74561
 21
31.0087
  0
LINE
  8
0
 10
7.74561
 20
31.0087
 11
7.85409
 21
30.9819
  0
LINE
  8
0
 10
7.85409
 20
30.9819
 11
11
 21
30.9819
  0
LINE
  8
0
 10
11
 20
30.9819
 11
11
 21
45.5
  0
LINE
  8
0
 10
11
 20
45.5
 11
4.43564
 21
45.5
  0
LINE
  8
0
 10
4.43564
 20
45.5
 11
4.43564
 21
41.5
  0
LINE
  8
0
 10
7.10409
 20
24.1143
 11
7.10495
 21
24.1029
  0
LINE
  8
0
 10
7.10495
 20
24.1029
 11
7.11332
 21
23.9934
  0
LINE
  8
0
 10
7.11332
 20
23.9934
 11
7.1172
 21
23.9767
  0
LINE
  8
0
 10
7.1172
 20
23.9767
 11
7.14079
 21
23.8755
  0
LINE
  8
0
 10
7.14079
 20
23.8755
 11
7.14939
 21
23.8541
  0
LINE
  8
0
 10
7.14939
 20
23.8541
 11
7.18583
 21
23.7635
  0
LINE
  8
0
 10
7.18583
 20
23.7635
 11
7.20064
 21
23.7386
  0
LINE
  8
0
 10
7.20064
 20
23.7386
 11
7.24732
 21
23.6601
  0
LINE
  8
0
 10
7.24732
 20
23.6601
 11
7.26944
 21
23.6334
  0
LINE
  8
0
 10
7.26944
 20
23.6334
 11
7.32376
 21
23.5679
  0
LINE
  8
0
 10
7.32376
 20
23.5679
 11
7.35366
 21
23.5416
  0
LINE
  8
0
 10
7.35366
 20
23.5416
 11
7.41325
 21
23.4891
  0
LINE
  8
0
 10
7.41325
 20
23.4891
 11
7.45069
 21
23.4655
  0
LINE
  8
0
 10
7.45069
 20
23.4655
 11
7.51359
 21
23.4258
  0
LINE
  8
0
 10
7.51359
 20
23.4258
 11
7.55751
 21
23.407
  0
LINE
  8
0
 10
7.55751
 20
23.407
 11
7.62232
 21
23.3794
  0
LINE
  8
0
 10
7.62232
 20
23.3794
 11
7.67095
 21
23.3673
  0
LINE
  8
0
 10
7.67095
 20
23.3673
 11
7.73676
 21
23.3511
  0
LINE
  8
0
 10
7.73676
 20
23.3511
 11
7.78781
 21
23.3469
  0
LINE
  8
0
 10
7.78781
 20
23.3469
 11
7.85409
 21
23.3416
  0
LINE
  8
0
 10
7.85409
 20
23.3416
 11
11
 21
23.3416
  0
LINE
  8
0
 10
11
 20
23.3416
 11
11
 21
29.1247
  0
LINE
  8
0
 10
11
 20
29.1247
 11
7.85409
 21
29.1247
  0
LINE
  8
0
 10
7.85409
 20
29.1247
 11
7.82632
 21
29.1181
  0
LINE
  8
0
 10
7.82632
 20
29.1181
 11
7.73676
 21
29.097
  0
LINE
  8
0
 10
7.73676
 20
29.097
 11
7.71853
 21
29.0839
  0
LINE
  8
0
 10
7.71853
 20
29.0839
 11
7.62232
 21
29.0147
  0
LINE
  8
0
 10
7.62232
 20
29.0147
 11
7.62166
 21
29.0139
  0
LINE
  8
0
 10
7.62166
 20
29.0139
 11
7.61935
 21
29.011
  0
LINE
  8
0
 10
7.61935
 20
29.011
 11
7.53143
 21
28.9359
  0
LINE
  8
0
 10
7.53143
 20
28.9359
 11
7.51359
 21
28.9207
  0
LINE
  8
0
 10
7.51359
 20
28.9207
 11
7.45002
 21
28.8403
  0
LINE
  8
0
 10
7.45002
 20
28.8403
 11
7.41325
 21
28.7939
  0
LINE
  8
0
 10
7.41325
 20
28.7939
 11
7.37661
 21
28.7294
  0
LINE
  8
0
 10
7.37661
 20
28.7294
 11
7.32376
 21
28.6363
  0
LINE
  8
0
 10
7.32376
 20
28.6363
 11
7.31063
 21
28.6046
  0
LINE
  8
0
 10
7.31063
 20
28.6046
 11
7.27113
 21
28.5092
  0
LINE
  8
0
 10
7.27113
 20
28.5092
 11
7.25234
 21
28.4739
  0
LINE
  8
0
 10
7.25234
 20
28.4739
 11
7.24732
 21
28.4645
  0
LINE
  8
0
 10
7.24732
 20
28.4645
 11
7.2035
 21
28.3497
  0
LINE
  8
0
 10
7.2035
 20
28.3497
 11
7.18583
 21
28.3034
  0
LINE
  8
0
 10
7.18583
 20
28.3034
 11
7.16364
 21
28.2174
  0
LINE
  8
0
 10
7.16364
 20
28.2174
 11
7.14079
 21
28.1289
  0
LINE
  8
0
 10
7.14079
 20
28.1289
 11
7.13318
 21
28.0779
  0
LINE
  8
0
 10
7.13318
 20
28.0779
 11
7.11332
 21
27.9452
  0
LINE
  8
0
 10
7.11332
 20
27.9452
 11
7.11269
 21
27.9323
  0
LINE
  8
0
 10
7.11269
 20
27.9323
 11
7.11023
 21
27.8821
  0
LINE
  8
0
 10
7.11023
 20
27.8821
 11
7.10409
 21
27.7679
  0
LINE
  8
0
 10
7.10409
 20
27.7679
 11
7.10409
 21
24.1143
  0
LINE
  8
0
 10
36.5
 20
0
 11
43.0618
 21
0
  0
LINE
  8
0
 10
43.0618
 20
0
 11
43.0618
 21
4
  0
LINE
  8
0
 10
43.0618
 20
4
 11
41
 21
4
  0
LINE
  8
0
 10
41
 20
4
 11
41
 21
4.89591
  0
LINE
  8
0
 10
41
 20
4.89591
 11
40.3959
 21
5.5
  0
LINE
  8
0
 10
40.3959
 20
5.5
 11
40.3959
 21
16.8179
  0
LINE
  8
0
 10
40.3959
 20
16.8179
 11
40.3936
 21
16.8617
  0
LINE
  8
0
 10
40.3936
 20
16.8617
 11
40.3867
 21
16.9896
  0
LINE
  8
0
 10
40.3867
 20
16.9896
 11
40.38
 21
17.0303
  0
LINE
  8
0
 10
40.38
 20
17.0303
 11
40.3592
 21
17.157
  0
LINE
  8
0
 10
40.3592
 20
17.157
 11
40.3488
 21
17.1938
  0
LINE
  8
0
 10
40.3488
 20
17.1938
 11
40.3142
 21
17.3161
  0
LINE
  8
0
 10
40.3142
 20
17.3161
 11
40.3007
 21
17.3484
  0
LINE
  8
0
 10
40.3007
 20
17.3484
 11
40.2527
 21
17.463
  0
LINE
  8
0
 10
40.2527
 20
17.463
 11
40.2367
 21
17.4904
  0
LINE
  8
0
 10
40.2367
 20
17.4904
 11
40.1762
 21
17.5939
  0
LINE
  8
0
 10
40.1762
 20
17.5939
 11
40.1583
 21
17.6163
  0
LINE
  8
0
 10
40.1583
 20
17.6163
 11
40.0868
 21
17.7057
  0
LINE
  8
0
 10
40.0868
 20
17.7057
 11
39.9864
 21
17.7957
  0
LINE
  8
0
 10
39.9864
 20
17.7957
 11
39.9662
 21
17.808
  0
LINE
  8
0
 10
39.9662
 20
17.808
 11
39.8777
 21
17.8616
  0
LINE
  8
0
 10
39.8777
 20
17.8616
 11
39.8569
 21
17.8689
  0
LINE
  8
0
 10
39.8569
 20
17.8689
 11
39.7632
 21
17.9018
  0
LINE
  8
0
 10
39.7632
 20
17.9018
 11
39.7422
 21
17.9042
  0
LINE
  8
0
 10
39.7422
 20
17.9042
 11
39.6459
 21
17.9153
  0
LINE
  8
0
 10
39.6459
 20
17.9153
 11
36.5
 21
17.9153
  0
LINE
  8
0
 10
36.5
 20
17.9153
 11
36.5
 21
0
  0
LINE
  8
0
 10
36.5
 20
23.3416
 11
39.6459
 21
23.3416
  0
LINE
  8
0
 10
39.6459
 20
23.3416
 11
39.6968
 21
23.3457
  0
LINE
  8
0
 10
39.6968
 20
23.3457
 11
39.7632
 21
23.3511
  0
LINE
  8
0
 10
39.7632
 20
23.3511
 11
39.8115
 21
23.363
  0
LINE
  8
0
 10
39.8115
 20
23.363
 11
39.8777
 21
23.3794
  0
LINE
  8
0
 10
39.8777
 20
23.3794
 11
39.9212
 21
23.398
  0
LINE
  8
0
 10
39.9212
 20
23.398
 11
39.9864
 21
23.4258
  0
LINE
  8
0
 10
39.9864
 20
23.4258
 11
40.0236
 21
23.4493
  0
LINE
  8
0
 10
40.0236
 20
23.4493
 11
40.0868
 21
23.4891
  0
LINE
  8
0
 10
40.0868
 20
23.4891
 11
40.1167
 21
23.5155
  0
LINE
  8
0
 10
40.1167
 20
23.5155
 11
40.1762
 21
23.5679
  0
LINE
  8
0
 10
40.1762
 20
23.5679
 11
40.1987
 21
23.595
  0
LINE
  8
0
 10
40.1987
 20
23.595
 11
40.2527
 21
23.6601
  0
LINE
  8
0
 10
40.2527
 20
23.6601
 11
40.2681
 21
23.6861
  0
LINE
  8
0
 10
40.2681
 20
23.6861
 11
40.3142
 21
23.7635
  0
LINE
  8
0
 10
40.3142
 20
23.7635
 11
40.3235
 21
23.7867
  0
LINE
  8
0
 10
40.3235
 20
23.7867
 11
40.3592
 21
23.8755
  0
LINE
  8
0
 10
40.3592
 20
23.8755
 11
40.3637
 21
23.8948
  0
LINE
  8
0
 10
40.3637
 20
23.8948
 11
40.3867
 21
23.9934
  0
LINE
  8
0
 10
40.3867
 20
23.9934
 11
40.3878
 21
24.008
  0
LINE
  8
0
 10
40.3878
 20
24.008
 11
40.3959
 21
24.1143
  0
LINE
  8
0
 10
40.3959
 20
24.1143
 11
40.3959
 21
27.7679
  0
LINE
  8
0
 10
40.3959
 20
27.7679
 11
40.3959
 21
27.7686
  0
LINE
  8
0
 10
40.3959
 20
27.7686
 11
40.3898
 21
27.8821
  0
LINE
  8
0
 10
40.3898
 20
27.8821
 11
40.3867
 21
27.9452
  0
LINE
  8
0
 10
40.3867
 20
27.9452
 11
40.3832
 21
27.9685
  0
LINE
  8
0
 10
40.3832
 20
27.9685
 11
40.3592
 21
28.1289
  0
LINE
  8
0
 10
40.3592
 20
28.1289
 11
40.3361
 21
28.2183
  0
LINE
  8
0
 10
40.3361
 20
28.2183
 11
40.3142
 21
28.3034
  0
LINE
  8
0
 10
40.3142
 20
28.3034
 11
40.2593
 21
28.4471
  0
LINE
  8
0
 10
40.2593
 20
28.4471
 11
40.2527
 21
28.4645
  0
LINE
  8
0
 10
40.2527
 20
28.4645
 11
40.2289
 21
28.5092
  0
LINE
  8
0
 10
40.2289
 20
28.5092
 11
40.1762
 21
28.6363
  0
LINE
  8
0
 10
40.1762
 20
28.6363
 11
40.1451
 21
28.6911
  0
LINE
  8
0
 10
40.1451
 20
28.6911
 11
40.0868
 21
28.7939
  0
LINE
  8
0
 10
40.0868
 20
28.7939
 11
40.0123
 21
28.888
  0
LINE
  8
0
 10
40.0123
 20
28.888
 11
39.9864
 21
28.9207
  0
LINE
  8
0
 10
39.9864
 20
28.9207
 11
39.8806
 21
29.011
  0
LINE
  8
0
 10
39.8806
 20
29.011
 11
39.8777
 21
29.0147
  0
LINE
  8
0
 10
39.8777
 20
29.0147
 11
39.8765
 21
29.0155
  0
LINE
  8
0
 10
39.8765
 20
29.0155
 11
39.7632
 21
29.097
  0
LINE
  8
0
 10
39.7632
 20
29.097
 11
39.7394
 21
29.1026
  0
LINE
  8
0
 10
39.7394
 20
29.1026
 11
39.6459
 21
29.1247
  0
LINE
  8
0
 10
39.6459
 20
29.1247
 11
36.5
 21
29.1247
  0
LINE
  8
0
 10
36.5
 20
29.1247
 11
36.5
 21
23.3416
  0
LINE
  8
0
 10
36.5
 20
30.9819
 11
39.6459
 21
30.9819
  0
LINE
  8
0
 10
39.6459
 20
30.9819
 11
39.6608
 21
30.9856
  0
LINE
  8
0
 10
39.6608
 20
30.9856
 11
39.7632
 21
31.0109
  0
LINE
  8
0
 10
39.7632
 20
31.0109
 11
39.7699
 21
31.016
  0
LINE
  8
0
 10
39.7699
 20
31.016
 11
39.8051
 21
31.0425
  0
LINE
  8
0
 10
39.8051
 20
31.0425
 11
39.8693
 21
31.0753
  0
LINE
  8
0
 10
39.8693
 20
31.0753
 11
39.8777
 21
31.0796
  0
LINE
  8
0
 10
39.8777
 20
31.0796
 11
39.9601
 21
31.1523
  0
LINE
  8
0
 10
39.9601
 20
31.1523
 11
39.9864
 21
31.1754
  0
LINE
  8
0
 10
39.9864
 20
31.1754
 11
40.0421
 21
31.2481
  0
LINE
  8
0
 10
40.0421
 20
31.2481
 11
40.0868
 21
31.3062
  0
LINE
  8
0
 10
40.0868
 20
31.3062
 11
40.1163
 21
31.3598
  0
LINE
  8
0
 10
40.1163
 20
31.3598
 11
40.1762
 21
31.4688
  0
LINE
  8
0
 10
40.1762
 20
31.4688
 11
40.1831
 21
31.4859
  0
LINE
  8
0
 10
40.1831
 20
31.4859
 11
40.2029
 21
31.5351
  0
LINE
  8
0
 10
40.2029
 20
31.5351
 11
40.2419
 21
31.6101
  0
LINE
  8
0
 10
40.2419
 20
31.6101
 11
40.2527
 21
31.6308
  0
LINE
  8
0
 10
40.2527
 20
31.6308
 11
40.2918
 21
31.7354
  0
LINE
  8
0
 10
40.2918
 20
31.7354
 11
40.3142
 21
31.7954
  0
LINE
  8
0
 10
40.3142
 20
31.7954
 11
40.3328
 21
31.869
  0
LINE
  8
0
 10
40.3328
 20
31.869
 11
40.3592
 21
31.9737
  0
LINE
  8
0
 10
40.3592
 20
31.9737
 11
40.3646
 21
32.0103
  0
LINE
  8
0
 10
40.3646
 20
32.0103
 11
40.3844
 21
32.1459
  0
LINE
  8
0
 10
40.3844
 20
32.1459
 11
40.3862
 21
32.1564
  0
LINE
  8
0
 10
40.3862
 20
32.1564
 11
40.3867
 21
32.1588
  0
LINE
  8
0
 10
40.3867
 20
32.1588
 11
40.394
 21
32.2866
  0
LINE
  8
0
 10
40.394
 20
32.2866
 11
40.3959
 21
32.319
  0
LINE
  8
0
 10
40.3959
 20
32.319
 11
40.3959
 21
40
  0
LINE
  8
0
 10
40.3959
 20
40
 11
41
 21
40.6041
  0
LINE
  8
0
 10
41
 20
40.6041
 11
41
 21
41.5
  0
LINE
  8
0
 10
41
 20
41.5
 11
43.0618
 21
41.5
  0
LINE
  8
0
 10
43.0618
 20
41.5
 11
43.0618
 21
45.5
  0
LINE
  8
0
 10
43.0618
 20
45.5
 11
36.5
 21
45.5
  0
LINE
  8
0
 10
36.5
 20
45.5
 11
36.5
 21
30.9819
  0
LINE
  8
0
 10
44.4356
 20
0
 11
47.5
 21
0
  0
LINE
  8
0
 10
47.5
 20
0
 11
47.5
 21
3.5
  0
LINE
  8
0
 10
47.5
 20
3.5
 11
47
 21
4
  0
LINE
  8
0
 10
47
 20
4
 11
44.4356
 21
4
  0
LINE
  8
0
 10
44.4356
 20
4
 11
44.4356
 21
0
  0
LINE
  8
0
 10
44.4356
 20
41.5
 11
47
 21
41.5
  0
LINE
  8
0
 10
47
 20
41.5
 11
47.5
 21
42
  0
LINE
  8
0
 10
47.5
 20
42
 11
47.5
 21
45.5
  0
LINE
  8
0
 10
47.5
 20
45.5
 11
44.4356
 21
45.5
  0
LINE
  8
0
 10
44.4356
 20
45.5
 11
44.4356
 21
41.5
  0
ENDSEC
  0
SECTION
  2
OBJECTS
  0
DICTIONARY
  0
ENDSEC
  0
EOF
