  0
SECTION
  2
BLOCKS
  0
ENDSEC
  0
SECTION
  2
ENTITIES
  0
LINE
  8
0
 10
0
 20
0
 11
2.72672
 21
0
  0
LINE
  8
0
 10
2.72672
 20
0
 11
2.72672
 21
4
  0
LINE
  8
0
 10
2.72672
 20
4
 11
0.499999
 21
4
  0
LINE
  8
0
 10
0.499999
 20
4
 11
0
 21
3.5
  0
LINE
  8
0
 10
0
 20
3.5
 11
0
 21
0
  0
LINE
  8
0
 10
0
 20
42
 11
0.499999
 21
41.5
  0
LINE
  8
0
 10
0.499999
 20
41.5
 11
2.72672
 21
41.5
  0
LINE
  8
0
 10
2.72672
 20
41.5
 11
2.72672
 21
45.5
  0
LINE
  8
0
 10
2.72672
 20
45.5
 11
0
 21
45.5
  0
LINE
  8
0
 10
0
 20
45.5
 11
0
 21
42
  0
LINE
  8
0
 10
4.77996
 20
0
 11
11
 21
0
  0
LINE
  8
0
 10
11
 20
0
 11
11
 21
17.7017
  0
LINE
  8
0
 10
11
 20
17.7017
 11
7.85409
 21
17.7017
  0
LINE
  8
0
 10
7.85409
 20
17.7017
 11
7.82972
 21
17.6989
  0
LINE
  8
0
 10
7.82972
 20
17.6989
 11
7.73676
 21
17.6882
  0
LINE
  8
0
 10
7.73676
 20
17.6882
 11
7.71283
 21
17.6798
  0
LINE
  8
0
 10
7.71283
 20
17.6798
 11
7.62232
 21
17.648
  0
LINE
  8
0
 10
7.62232
 20
17.648
 11
7.59923
 21
17.634
  0
LINE
  8
0
 10
7.59923
 20
17.634
 11
7.51359
 21
17.5821
  0
LINE
  8
0
 10
7.51359
 20
17.5821
 11
7.41325
 21
17.4921
  0
LINE
  8
0
 10
7.41325
 20
17.4921
 11
7.39315
 21
17.467
  0
LINE
  8
0
 10
7.39315
 20
17.467
 11
7.32376
 21
17.3803
  0
LINE
  8
0
 10
7.32376
 20
17.3803
 11
7.30593
 21
17.3497
  0
LINE
  8
0
 10
7.30593
 20
17.3497
 11
7.24732
 21
17.2493
  0
LINE
  8
0
 10
7.24732
 20
17.2493
 11
7.23237
 21
17.2136
  0
LINE
  8
0
 10
7.23237
 20
17.2136
 11
7.18583
 21
17.1025
  0
LINE
  8
0
 10
7.18583
 20
17.1025
 11
7.17438
 21
17.0621
  0
LINE
  8
0
 10
7.17438
 20
17.0621
 11
7.14079
 21
16.9434
  0
LINE
  8
0
 10
7.14079
 20
16.9434
 11
7.13348
 21
16.8989
  0
LINE
  8
0
 10
7.13348
 20
16.8989
 11
7.11332
 21
16.776
  0
LINE
  8
0
 10
7.11332
 20
16.776
 11
7.11075
 21
16.7282
  0
LINE
  8
0
 10
7.11075
 20
16.7282
 11
7.10409
 21
16.6043
  0
LINE
  8
0
 10
7.10409
 20
16.6043
 11
7.10409
 21
5.5
  0
LINE
  8
0
 10
7.10409
 20
5.5
 11
6.5
 21
4.89591
  0
LINE
  8
0
 10
6.5
 20
4.89591
 11
6.5
 21
4
  0
LINE
  8
0
 10
6.5
 20
4
 11
4.77996
 21
4
  0
LINE
  8
0
 10
4.77996
 20
4
 11
4.77996
 21
0
  0
LINE
  8
0
 10
4.77996
 20
41.5
 11
6.5
 21
41.5
  0
LINE
  8
0
 10
6.5
 20
41.5
 11
6.5
 21
40.6041
  0
LINE
  8
0
 10
6.5
 20
40.6041
 11
7.10409
 21
40
  0
LINE
  8
0
 10
7.10409
 20
40
 11
7.10409
 21
32.5062
  0
LINE
  8
0
 10
7.10409
 20
32.5062
 11
7.10705
 21
32.4548
  0
LINE
  8
0
 10
7.10705
 20
32.4548
 11
7.11332
 21
32.3461
  0
LINE
  8
0
 10
7.11332
 20
32.3461
 11
7.12933
 21
32.255
  0
LINE
  8
0
 10
7.12933
 20
32.255
 11
7.14079
 21
32.1898
  0
LINE
  8
0
 10
7.14079
 20
32.1898
 11
7.17922
 21
32.0632
  0
LINE
  8
0
 10
7.17922
 20
32.0632
 11
7.18583
 21
32.0414
  0
LINE
  8
0
 10
7.18583
 20
32.0414
 11
7.2202
 21
31.9648
  0
LINE
  8
0
 10
7.2202
 20
31.9648
 11
7.24732
 21
31.8922
  0
LINE
  8
0
 10
7.24732
 20
31.8922
 11
7.25947
 21
31.8689
  0
LINE
  8
0
 10
7.25947
 20
31.8689
 11
7.32376
 21
31.7454
  0
LINE
  8
0
 10
7.32376
 20
31.7454
 11
7.36631
 21
31.6858
  0
LINE
  8
0
 10
7.36631
 20
31.6858
 11
7.41325
 21
31.6201
  0
LINE
  8
0
 10
7.41325
 20
31.6201
 11
7.4865
 21
31.5464
  0
LINE
  8
0
 10
7.4865
 20
31.5464
 11
7.51359
 21
31.5192
  0
LINE
  8
0
 10
7.51359
 20
31.5192
 11
7.61262
 21
31.4519
  0
LINE
  8
0
 10
7.61262
 20
31.4519
 11
7.62232
 21
31.4453
  0
LINE
  8
0
 10
7.62232
 20
31.4453
 11
7.71995
 21
31.4069
  0
LINE
  8
0
 10
7.71995
 20
31.4069
 11
7.73676
 21
31.3983
  0
LINE
  8
0
 10
7.73676
 20
31.3983
 11
7.73891
 21
31.3979
  0
LINE
  8
0
 10
7.73891
 20
31.3979
 11
7.85409
 21
31.3786
  0
LINE
  8
0
 10
7.85409
 20
31.3786
 11
11
 21
31.3786
  0
LINE
  8
0
 10
11
 20
31.3786
 11
11
 21
45.5
  0
LINE
  8
0
 10
11
 20
45.5
 11
4.77996
 21
45.5
  0
LINE
  8
0
 10
4.77996
 20
45.5
 11
4.77996
 21
41.5
  0
LINE
  8
0
 10
7.10409
 20
24.1402
 11
7.1109
 21
24.0536
  0
LINE
  8
0
 10
7.1109
 20
24.0536
 11
7.11332
 21
24.0228
  0
LINE
  8
0
 10
7.11332
 20
24.0228
 11
7.13442
 21
23.9348
  0
LINE
  8
0
 10
7.13442
 20
23.9348
 11
7.14079
 21
23.9083
  0
LINE
  8
0
 10
7.14079
 20
23.9083
 11
7.17677
 21
23.8214
  0
LINE
  8
0
 10
7.17677
 20
23.8214
 11
7.18583
 21
23.7995
  0
LINE
  8
0
 10
7.18583
 20
23.7995
 11
7.23682
 21
23.7162
  0
LINE
  8
0
 10
7.23682
 20
23.7162
 11
7.24732
 21
23.6991
  0
LINE
  8
0
 10
7.24732
 20
23.6991
 11
7.31292
 21
23.6222
  0
LINE
  8
0
 10
7.31292
 20
23.6222
 11
7.32376
 21
23.6095
  0
LINE
  8
0
 10
7.32376
 20
23.6095
 11
7.40292
 21
23.5418
  0
LINE
  8
0
 10
7.40292
 20
23.5418
 11
7.41325
 21
23.533
  0
LINE
  8
0
 10
7.41325
 20
23.533
 11
7.50426
 21
23.4772
  0
LINE
  8
0
 10
7.50426
 20
23.4772
 11
7.51359
 21
23.4715
  0
LINE
  8
0
 10
7.51359
 20
23.4715
 11
7.61406
 21
23.4298
  0
LINE
  8
0
 10
7.61406
 20
23.4298
 11
7.62232
 21
23.4264
  0
LINE
  8
0
 10
7.62232
 20
23.4264
 11
7.72929
 21
23.4007
  0
LINE
  8
0
 10
7.72929
 20
23.4007
 11
7.73676
 21
23.3989
  0
LINE
  8
0
 10
7.73676
 20
23.3989
 11
7.84686
 21
23.3902
  0
LINE
  8
0
 10
7.84686
 20
23.3902
 11
7.85409
 21
23.3897
  0
LINE
  8
0
 10
7.85409
 20
23.3897
 11
11
 21
23.3897
  0
LINE
  8
0
 10
11
 20
23.3897
 11
11
 21
28.727
  0
LINE
  8
0
 10
11
 20
28.727
 11
7.85409
 21
28.727
  0
LINE
  8
0
 10
7.85409
 20
28.727
 11
7.83481
 21
28.7238
  0
LINE
  8
0
 10
7.83481
 20
28.7238
 11
7.73676
 21
28.7079
  0
LINE
  8
0
 10
7.73676
 20
28.7079
 11
7.72331
 21
28.7013
  0
LINE
  8
0
 10
7.72331
 20
28.7013
 11
7.62232
 21
28.6513
  0
LINE
  8
0
 10
7.62232
 20
28.6513
 11
7.62071
 21
28.6499
  0
LINE
  8
0
 10
7.62071
 20
28.6499
 11
7.61183
 21
28.6423
  0
LINE
  8
0
 10
7.61183
 20
28.6423
 11
7.52597
 21
28.5852
  0
LINE
  8
0
 10
7.52597
 20
28.5852
 11
7.51359
 21
28.577
  0
LINE
  8
0
 10
7.51359
 20
28.577
 11
7.44027
 21
28.5049
  0
LINE
  8
0
 10
7.44027
 20
28.5049
 11
7.41325
 21
28.4783
  0
LINE
  8
0
 10
7.41325
 20
28.4783
 11
7.36352
 21
28.4101
  0
LINE
  8
0
 10
7.36352
 20
28.4101
 11
7.32376
 21
28.3556
  0
LINE
  8
0
 10
7.32376
 20
28.3556
 11
7.2956
 21
28.3027
  0
LINE
  8
0
 10
7.2956
 20
28.3027
 11
7.24732
 21
28.2119
  0
LINE
  8
0
 10
7.24732
 20
28.2119
 11
7.2366
 21
28.1838
  0
LINE
  8
0
 10
7.2366
 20
28.1838
 11
7.1929
 21
28.0694
  0
LINE
  8
0
 10
7.1929
 20
28.0694
 11
7.18583
 21
28.0525
  0
LINE
  8
0
 10
7.18583
 20
28.0525
 11
7.1858
 21
28.0524
  0
LINE
  8
0
 10
7.1858
 20
28.0524
 11
7.14079
 21
27.8934
  0
LINE
  8
0
 10
7.14079
 20
27.8934
 11
7.14062
 21
27.8923
  0
LINE
  8
0
 10
7.14062
 20
27.8923
 11
7.11332
 21
27.726
  0
LINE
  8
0
 10
7.11332
 20
27.726
 11
7.1132
 21
27.7238
  0
LINE
  8
0
 10
7.1132
 20
27.7238
 11
7.10409
 21
27.5543
  0
LINE
  8
0
 10
7.10409
 20
27.5543
 11
7.10409
 21
24.1402
  0
LINE
  8
0
 10
36.5
 20
0
 11
42.7267
 21
0
  0
LINE
  8
0
 10
42.7267
 20
0
 11
42.7267
 21
4
  0
LINE
  8
0
 10
42.7267
 20
4
 11
41
 21
4
  0
LINE
  8
0
 10
41
 20
4
 11
41
 21
4.89591
  0
LINE
  8
0
 10
41
 20
4.89591
 11
40.3959
 21
5.5
  0
LINE
  8
0
 10
40.3959
 20
5.5
 11
40.3959
 21
16.6043
  0
LINE
  8
0
 10
40.3959
 20
16.6043
 11
40.3933
 21
16.6531
  0
LINE
  8
0
 10
40.3933
 20
16.6531
 11
40.3867
 21
16.776
  0
LINE
  8
0
 10
40.3867
 20
16.776
 11
40.3792
 21
16.8215
  0
LINE
  8
0
 10
40.3792
 20
16.8215
 11
40.3592
 21
16.9434
  0
LINE
  8
0
 10
40.3592
 20
16.9434
 11
40.3475
 21
16.9848
  0
LINE
  8
0
 10
40.3475
 20
16.9848
 11
40.3142
 21
17.1025
  0
LINE
  8
0
 10
40.3142
 20
17.1025
 11
40.2989
 21
17.139
  0
LINE
  8
0
 10
40.2989
 20
17.139
 11
40.2527
 21
17.2493
  0
LINE
  8
0
 10
40.2527
 20
17.2493
 11
40.2345
 21
17.2805
  0
LINE
  8
0
 10
40.2345
 20
17.2805
 11
40.1762
 21
17.3803
  0
LINE
  8
0
 10
40.1762
 20
17.3803
 11
40.1557
 21
17.4059
  0
LINE
  8
0
 10
40.1557
 20
17.4059
 11
40.0868
 21
17.4921
  0
LINE
  8
0
 10
40.0868
 20
17.4921
 11
39.9864
 21
17.5821
  0
LINE
  8
0
 10
39.9864
 20
17.5821
 11
39.963
 21
17.5963
  0
LINE
  8
0
 10
39.963
 20
17.5963
 11
39.8777
 21
17.648
  0
LINE
  8
0
 10
39.8777
 20
17.648
 11
39.8536
 21
17.6565
  0
LINE
  8
0
 10
39.8536
 20
17.6565
 11
39.7632
 21
17.6882
  0
LINE
  8
0
 10
39.7632
 20
17.6882
 11
39.7388
 21
17.691
  0
LINE
  8
0
 10
39.7388
 20
17.691
 11
39.6459
 21
17.7017
  0
LINE
  8
0
 10
39.6459
 20
17.7017
 11
36.5
 21
17.7017
  0
LINE
  8
0
 10
36.5
 20
17.7017
 11
36.5
 21
0
  0
LINE
  8
0
 10
36.5
 20
23.3897
 11
39.6459
 21
23.3897
  0
LINE
  8
0
 10
39.6459
 20
23.3897
 11
39.7556
 21
23.3983
  0
LINE
  8
0
 10
39.7556
 20
23.3983
 11
39.7632
 21
23.3989
  0
LINE
  8
0
 10
39.7632
 20
23.3989
 11
39.869
 21
23.4243
  0
LINE
  8
0
 10
39.869
 20
23.4243
 11
39.8777
 21
23.4264
  0
LINE
  8
0
 10
39.8777
 20
23.4264
 11
39.9763
 21
23.4673
  0
LINE
  8
0
 10
39.9763
 20
23.4673
 11
39.9864
 21
23.4715
  0
LINE
  8
0
 10
39.9864
 20
23.4715
 11
40.0752
 21
23.5259
  0
LINE
  8
0
 10
40.0752
 20
23.5259
 11
40.0868
 21
23.533
  0
LINE
  8
0
 10
40.0868
 20
23.533
 11
40.1636
 21
23.5987
  0
LINE
  8
0
 10
40.1636
 20
23.5987
 11
40.1762
 21
23.6095
  0
LINE
  8
0
 10
40.1762
 20
23.6095
 11
40.2397
 21
23.6838
  0
LINE
  8
0
 10
40.2397
 20
23.6838
 11
40.2527
 21
23.6991
  0
LINE
  8
0
 10
40.2527
 20
23.6991
 11
40.3018
 21
23.7793
  0
LINE
  8
0
 10
40.3018
 20
23.7793
 11
40.3142
 21
23.7995
  0
LINE
  8
0
 10
40.3142
 20
23.7995
 11
40.3488
 21
23.8831
  0
LINE
  8
0
 10
40.3488
 20
23.8831
 11
40.3592
 21
23.9083
  0
LINE
  8
0
 10
40.3592
 20
23.9083
 11
40.3795
 21
23.9929
  0
LINE
  8
0
 10
40.3795
 20
23.9929
 11
40.3867
 21
24.0228
  0
LINE
  8
0
 10
40.3867
 20
24.0228
 11
40.3932
 21
24.1062
  0
LINE
  8
0
 10
40.3932
 20
24.1062
 11
40.3959
 21
24.1402
  0
LINE
  8
0
 10
40.3959
 20
24.1402
 11
40.3959
 21
27.5543
  0
LINE
  8
0
 10
40.3959
 20
27.5543
 11
40.3957
 21
27.5575
  0
LINE
  8
0
 10
40.3957
 20
27.5575
 11
40.3867
 21
27.726
  0
LINE
  8
0
 10
40.3867
 20
27.726
 11
40.3863
 21
27.7281
  0
LINE
  8
0
 10
40.3863
 20
27.7281
 11
40.3592
 21
27.8934
  0
LINE
  8
0
 10
40.3592
 20
27.8934
 11
40.3589
 21
27.8944
  0
LINE
  8
0
 10
40.3589
 20
27.8944
 11
40.3142
 21
28.0525
  0
LINE
  8
0
 10
40.3142
 20
28.0525
 11
40.3141
 21
28.0526
  0
LINE
  8
0
 10
40.3141
 20
28.0526
 11
40.3071
 21
28.0694
  0
LINE
  8
0
 10
40.3071
 20
28.0694
 11
40.2527
 21
28.2119
  0
LINE
  8
0
 10
40.2527
 20
28.2119
 11
40.2295
 21
28.2556
  0
LINE
  8
0
 10
40.2295
 20
28.2556
 11
40.1762
 21
28.3556
  0
LINE
  8
0
 10
40.1762
 20
28.3556
 11
40.1221
 21
28.4298
  0
LINE
  8
0
 10
40.1221
 20
28.4298
 11
40.0868
 21
28.4783
  0
LINE
  8
0
 10
40.0868
 20
28.4783
 11
40.0019
 21
28.5618
  0
LINE
  8
0
 10
40.0019
 20
28.5618
 11
39.9864
 21
28.577
  0
LINE
  8
0
 10
39.9864
 20
28.577
 11
39.8882
 21
28.6423
  0
LINE
  8
0
 10
39.8882
 20
28.6423
 11
39.8777
 21
28.6513
  0
LINE
  8
0
 10
39.8777
 20
28.6513
 11
39.8753
 21
28.6524
  0
LINE
  8
0
 10
39.8753
 20
28.6524
 11
39.7632
 21
28.7079
  0
LINE
  8
0
 10
39.7632
 20
28.7079
 11
39.747
 21
28.7106
  0
LINE
  8
0
 10
39.747
 20
28.7106
 11
39.6459
 21
28.727
  0
LINE
  8
0
 10
39.6459
 20
28.727
 11
36.5
 21
28.727
  0
LINE
  8
0
 10
36.5
 20
28.727
 11
36.5
 21
23.3897
  0
LINE
  8
0
 10
36.5
 20
31.3786
 11
39.6459
 21
31.3786
  0
LINE
  8
0
 10
39.6459
 20
31.3786
 11
39.6524
 21
31.3797
  0
LINE
  8
0
 10
39.6524
 20
31.3797
 11
39.7632
 21
31.3983
  0
LINE
  8
0
 10
39.7632
 20
31.3983
 11
39.765
 21
31.3992
  0
LINE
  8
0
 10
39.765
 20
31.3992
 11
39.78
 21
31.4069
  0
LINE
  8
0
 10
39.78
 20
31.4069
 11
39.8695
 21
31.4421
  0
LINE
  8
0
 10
39.8695
 20
31.4421
 11
39.8777
 21
31.4453
  0
LINE
  8
0
 10
39.8777
 20
31.4453
 11
39.965
 21
31.5046
  0
LINE
  8
0
 10
39.965
 20
31.5046
 11
39.9864
 21
31.5192
  0
LINE
  8
0
 10
39.9864
 20
31.5192
 11
40.0514
 21
31.5846
  0
LINE
  8
0
 10
40.0514
 20
31.5846
 11
40.0868
 21
31.6201
  0
LINE
  8
0
 10
40.0868
 20
31.6201
 11
40.1291
 21
31.6793
  0
LINE
  8
0
 10
40.1291
 20
31.6793
 11
40.1762
 21
31.7454
  0
LINE
  8
0
 10
40.1762
 20
31.7454
 11
40.198
 21
31.7872
  0
LINE
  8
0
 10
40.198
 20
31.7872
 11
40.2527
 21
31.8922
  0
LINE
  8
0
 10
40.2527
 20
31.8922
 11
40.2582
 21
31.907
  0
LINE
  8
0
 10
40.2582
 20
31.907
 11
40.2798
 21
31.9648
  0
LINE
  8
0
 10
40.2798
 20
31.9648
 11
40.308
 21
32.0276
  0
LINE
  8
0
 10
40.308
 20
32.0276
 11
40.3142
 21
32.0414
  0
LINE
  8
0
 10
40.3142
 20
32.0414
 11
40.3464
 21
32.1478
  0
LINE
  8
0
 10
40.3464
 20
32.1478
 11
40.3592
 21
32.1898
  0
LINE
  8
0
 10
40.3592
 20
32.1898
 11
40.374
 21
32.274
  0
LINE
  8
0
 10
40.374
 20
32.274
 11
40.3867
 21
32.3461
  0
LINE
  8
0
 10
40.3867
 20
32.3461
 11
40.3901
 21
32.4049
  0
LINE
  8
0
 10
40.3901
 20
32.4049
 11
40.3959
 21
32.5062
  0
LINE
  8
0
 10
40.3959
 20
32.5062
 11
40.3959
 21
40
  0
LINE
  8
0
 10
40.3959
 20
40
 11
41
 21
40.6041
  0
LINE
  8
0
 10
41
 20
40.6041
 11
41
 21
41.5
  0
LINE
  8
0
 10
41
 20
41.5
 11
42.7267
 21
41.5
  0
LINE
  8
0
 10
42.7267
 20
41.5
 11
42.7267
 21
45.5
  0
LINE
  8
0
 10
42.7267
 20
45.5
 11
36.5
 21
45.5
  0
LINE
  8
0
 10
36.5
 20
45.5
 11
36.5
 21
31.3786
  0
LINE
  8
0
 10
44.78
 20
0
 11
47.5
 21
0
  0
LINE
  8
0
 10
47.5
 20
0
 11
47.5
 21
3.5
  0
LINE
  8
0
 10
47.5
 20
3.5
 11
47
 21
4
  0
LINE
  8
0
 10
47
 20
4
 11
44.78
 21
4
  0
LINE
  8
0
 10
44.78
 20
4
 11
44.78
 21
0
  0
LINE
  8
0
 10
44.78
 20
41.5
 11
47
 21
41.5
  0
LINE
  8
0
 10
47
 20
41.5
 11
47.5
 21
42
  0
LINE
  8
0
 10
47.5
 20
42
 11
47.5
 21
45.5
  0
LINE
  8
0
 10
47.5
 20
45.5
 11
44.78
 21
45.5
  0
LINE
  8
0
 10
44.78
 20
45.5
 11
44.78
 21
41.5
  0
ENDSEC
  0
SECTION
  2
OBJECTS
  0
DICTIONARY
  0
ENDSEC
  0
EOF
