  0
SECTION
  2
BLOCKS
  0
ENDSEC
  0
SECTION
  2
ENTITIES
  0
LINE
  8
0
 10
0
 20
0
 11
2.50596
 21
0
  0
LINE
  8
0
 10
2.50596
 20
0
 11
2.50596
 21
4
  0
LINE
  8
0
 10
2.50596
 20
4
 11
0.499999
 21
4
  0
LINE
  8
0
 10
0.499999
 20
4
 11
0
 21
3.5
  0
LINE
  8
0
 10
0
 20
3.5
 11
0
 21
0
  0
LINE
  8
0
 10
0
 20
42
 11
0.499999
 21
41.5
  0
LINE
  8
0
 10
0.499999
 20
41.5
 11
2.50596
 21
41.5
  0
LINE
  8
0
 10
2.50596
 20
41.5
 11
2.50596
 21
45.5
  0
LINE
  8
0
 10
2.50596
 20
45.5
 11
0
 21
45.5
  0
LINE
  8
0
 10
0
 20
45.5
 11
0
 21
42
  0
LINE
  8
0
 10
4.99856
 20
0
 11
11
 21
0
  0
LINE
  8
0
 10
11
 20
0
 11
11
 21
17.4881
  0
LINE
  8
0
 10
11
 20
17.4881
 11
7.85409
 21
17.4881
  0
LINE
  8
0
 10
7.85409
 20
17.4881
 11
7.82628
 21
17.4849
  0
LINE
  8
0
 10
7.82628
 20
17.4849
 11
7.73676
 21
17.4746
  0
LINE
  8
0
 10
7.73676
 20
17.4746
 11
7.70947
 21
17.465
  0
LINE
  8
0
 10
7.70947
 20
17.465
 11
7.62232
 21
17.4344
  0
LINE
  8
0
 10
7.62232
 20
17.4344
 11
7.59603
 21
17.4184
  0
LINE
  8
0
 10
7.59603
 20
17.4184
 11
7.51359
 21
17.3685
  0
LINE
  8
0
 10
7.51359
 20
17.3685
 11
7.41325
 21
17.2785
  0
LINE
  8
0
 10
7.41325
 20
17.2785
 11
7.39051
 21
17.2501
  0
LINE
  8
0
 10
7.39051
 20
17.2501
 11
7.32376
 21
17.1667
  0
LINE
  8
0
 10
7.32376
 20
17.1667
 11
7.30368
 21
17.1323
  0
LINE
  8
0
 10
7.30368
 20
17.1323
 11
7.24732
 21
17.0357
  0
LINE
  8
0
 10
7.24732
 20
17.0357
 11
7.23056
 21
16.9957
  0
LINE
  8
0
 10
7.23056
 20
16.9957
 11
7.18583
 21
16.8889
  0
LINE
  8
0
 10
7.18583
 20
16.8889
 11
7.17305
 21
16.8437
  0
LINE
  8
0
 10
7.17305
 20
16.8437
 11
7.14079
 21
16.7298
  0
LINE
  8
0
 10
7.14079
 20
16.7298
 11
7.13267
 21
16.6803
  0
LINE
  8
0
 10
7.13267
 20
16.6803
 11
7.11332
 21
16.5624
  0
LINE
  8
0
 10
7.11332
 20
16.5624
 11
7.11047
 21
16.5095
  0
LINE
  8
0
 10
7.11047
 20
16.5095
 11
7.10409
 21
16.3907
  0
LINE
  8
0
 10
7.10409
 20
16.3907
 11
7.10409
 21
5.5
  0
LINE
  8
0
 10
7.10409
 20
5.5
 11
6.5
 21
4.89591
  0
LINE
  8
0
 10
6.5
 20
4.89591
 11
6.5
 21
4
  0
LINE
  8
0
 10
6.5
 20
4
 11
4.99856
 21
4
  0
LINE
  8
0
 10
4.99856
 20
4
 11
4.99856
 21
0
  0
LINE
  8
0
 10
4.99856
 20
41.5
 11
6.5
 21
41.5
  0
LINE
  8
0
 10
6.5
 20
41.5
 11
6.5
 21
40.6041
  0
LINE
  8
0
 10
6.5
 20
40.6041
 11
7.10409
 21
40
  0
LINE
  8
0
 10
7.10409
 20
40
 11
7.10409
 21
32.6658
  0
LINE
  8
0
 10
7.10409
 20
32.6658
 11
7.1126
 21
32.5364
  0
LINE
  8
0
 10
7.1126
 20
32.5364
 11
7.11332
 21
32.5254
  0
LINE
  8
0
 10
7.11332
 20
32.5254
 11
7.12467
 21
32.4688
  0
LINE
  8
0
 10
7.12467
 20
32.4688
 11
7.14079
 21
32.3771
  0
LINE
  8
0
 10
7.14079
 20
32.3771
 11
7.14742
 21
32.3552
  0
LINE
  8
0
 10
7.14742
 20
32.3552
 11
7.18583
 21
32.2286
  0
LINE
  8
0
 10
7.18583
 20
32.2286
 11
7.21013
 21
32.1745
  0
LINE
  8
0
 10
7.21013
 20
32.1745
 11
7.24732
 21
32.0916
  0
LINE
  8
0
 10
7.24732
 20
32.0916
 11
7.29546
 21
32.0147
  0
LINE
  8
0
 10
7.29546
 20
32.0147
 11
7.32376
 21
31.9695
  0
LINE
  8
0
 10
7.32376
 20
31.9695
 11
7.39868
 21
31.8821
  0
LINE
  8
0
 10
7.39868
 20
31.8821
 11
7.41325
 21
31.8651
  0
LINE
  8
0
 10
7.41325
 20
31.8651
 11
7.51047
 21
31.7838
  0
LINE
  8
0
 10
7.51047
 20
31.7838
 11
7.51359
 21
31.7807
  0
LINE
  8
0
 10
7.51359
 20
31.7807
 11
7.51429
 21
31.7802
  0
LINE
  8
0
 10
7.51429
 20
31.7802
 11
7.62232
 21
31.7068
  0
LINE
  8
0
 10
7.62232
 20
31.7068
 11
7.63954
 21
31.7
  0
LINE
  8
0
 10
7.63954
 20
31.7
 11
7.73676
 21
31.6617
  0
LINE
  8
0
 10
7.73676
 20
31.6617
 11
7.76329
 21
31.6583
  0
LINE
  8
0
 10
7.76329
 20
31.6583
 11
7.85409
 21
31.6466
  0
LINE
  8
0
 10
7.85409
 20
31.6466
 11
11
 21
31.6466
  0
LINE
  8
0
 10
11
 20
31.6466
 11
11
 21
45.5
  0
LINE
  8
0
 10
11
 20
45.5
 11
4.99856
 21
45.5
  0
LINE
  8
0
 10
4.99856
 20
45.5
 11
4.99856
 21
41.5
  0
LINE
  8
0
 10
7.10409
 20
24.1585
 11
7.10731
 21
24.1175
  0
LINE
  8
0
 10
7.10731
 20
24.1175
 11
7.11332
 21
24.0411
  0
LINE
  8
0
 10
7.11332
 20
24.0411
 11
7.12333
 21
23.9993
  0
LINE
  8
0
 10
7.12333
 20
23.9993
 11
7.14079
 21
23.9266
  0
LINE
  8
0
 10
7.14079
 20
23.9266
 11
7.15791
 21
23.8852
  0
LINE
  8
0
 10
7.15791
 20
23.8852
 11
7.18583
 21
23.8177
  0
LINE
  8
0
 10
7.18583
 20
23.8177
 11
7.21015
 21
23.778
  0
LINE
  8
0
 10
7.21015
 20
23.778
 11
7.24732
 21
23.7173
  0
LINE
  8
0
 10
7.24732
 20
23.7173
 11
7.27869
 21
23.6806
  0
LINE
  8
0
 10
7.27869
 20
23.6806
 11
7.32376
 21
23.6278
  0
LINE
  8
0
 10
7.32376
 20
23.6278
 11
7.36169
 21
23.5953
  0
LINE
  8
0
 10
7.36169
 20
23.5953
 11
7.41325
 21
23.5513
  0
LINE
  8
0
 10
7.41325
 20
23.5513
 11
7.45694
 21
23.5245
  0
LINE
  8
0
 10
7.45694
 20
23.5245
 11
7.51359
 21
23.4897
  0
LINE
  8
0
 10
7.51359
 20
23.4897
 11
7.56189
 21
23.4697
  0
LINE
  8
0
 10
7.56189
 20
23.4697
 11
7.62232
 21
23.4447
  0
LINE
  8
0
 10
7.62232
 20
23.4447
 11
7.6738
 21
23.4323
  0
LINE
  8
0
 10
7.6738
 20
23.4323
 11
7.73676
 21
23.4172
  0
LINE
  8
0
 10
7.73676
 20
23.4172
 11
7.78978
 21
23.413
  0
LINE
  8
0
 10
7.78978
 20
23.413
 11
7.85409
 21
23.4079
  0
LINE
  8
0
 10
7.85409
 20
23.4079
 11
11
 21
23.4079
  0
LINE
  8
0
 10
11
 20
23.4079
 11
11
 21
28.4557
  0
LINE
  8
0
 10
11
 20
28.4557
 11
7.85409
 21
28.4557
  0
LINE
  8
0
 10
7.85409
 20
28.4557
 11
7.81386
 21
28.4506
  0
LINE
  8
0
 10
7.81386
 20
28.4506
 11
7.73676
 21
28.4408
  0
LINE
  8
0
 10
7.73676
 20
28.4408
 11
7.70254
 21
28.4277
  0
LINE
  8
0
 10
7.70254
 20
28.4277
 11
7.62232
 21
28.3967
  0
LINE
  8
0
 10
7.62232
 20
28.3967
 11
7.59904
 21
28.3813
  0
LINE
  8
0
 10
7.59904
 20
28.3813
 11
7.51359
 21
28.3244
  0
LINE
  8
0
 10
7.51359
 20
28.3244
 11
7.5038
 21
28.3148
  0
LINE
  8
0
 10
7.5038
 20
28.3148
 11
7.44464
 21
28.2566
  0
LINE
  8
0
 10
7.44464
 20
28.2566
 11
7.41325
 21
28.2285
  0
LINE
  8
0
 10
7.41325
 20
28.2285
 11
7.41316
 21
28.2284
  0
LINE
  8
0
 10
7.41316
 20
28.2284
 11
7.32376
 21
28.1166
  0
LINE
  8
0
 10
7.32376
 20
28.1166
 11
7.32336
 21
28.116
  0
LINE
  8
0
 10
7.32336
 20
28.116
 11
7.24732
 21
27.9857
  0
LINE
  8
0
 10
7.24732
 20
27.9857
 11
7.24671
 21
27.9842
  0
LINE
  8
0
 10
7.24671
 20
27.9842
 11
7.18583
 21
27.8389
  0
LINE
  8
0
 10
7.18583
 20
27.8389
 11
7.18514
 21
27.8364
  0
LINE
  8
0
 10
7.18514
 20
27.8364
 11
7.14079
 21
27.6798
  0
LINE
  8
0
 10
7.14079
 20
27.6798
 11
7.14021
 21
27.6762
  0
LINE
  8
0
 10
7.14021
 20
27.6762
 11
7.11332
 21
27.5123
  0
LINE
  8
0
 10
7.11332
 20
27.5123
 11
7.11307
 21
27.5077
  0
LINE
  8
0
 10
7.11307
 20
27.5077
 11
7.10409
 21
27.3407
  0
LINE
  8
0
 10
7.10409
 20
27.3407
 11
7.10409
 21
24.1585
  0
LINE
  8
0
 10
36.5
 20
0
 11
42.506
 21
0
  0
LINE
  8
0
 10
42.506
 20
0
 11
42.506
 21
4
  0
LINE
  8
0
 10
42.506
 20
4
 11
41
 21
4
  0
LINE
  8
0
 10
41
 20
4
 11
41
 21
4.89591
  0
LINE
  8
0
 10
41
 20
4.89591
 11
40.3959
 21
5.5
  0
LINE
  8
0
 10
40.3959
 20
5.5
 11
40.3959
 21
16.3907
  0
LINE
  8
0
 10
40.3959
 20
16.3907
 11
40.393
 21
16.4444
  0
LINE
  8
0
 10
40.393
 20
16.4444
 11
40.3867
 21
16.5624
  0
LINE
  8
0
 10
40.3867
 20
16.5624
 11
40.3784
 21
16.6127
  0
LINE
  8
0
 10
40.3784
 20
16.6127
 11
40.3592
 21
16.7298
  0
LINE
  8
0
 10
40.3592
 20
16.7298
 11
40.3462
 21
16.7757
  0
LINE
  8
0
 10
40.3462
 20
16.7757
 11
40.3142
 21
16.8889
  0
LINE
  8
0
 10
40.3142
 20
16.8889
 11
40.2971
 21
16.9296
  0
LINE
  8
0
 10
40.2971
 20
16.9296
 11
40.2527
 21
17.0357
  0
LINE
  8
0
 10
40.2527
 20
17.0357
 11
40.2322
 21
17.0707
  0
LINE
  8
0
 10
40.2322
 20
17.0707
 11
40.1762
 21
17.1667
  0
LINE
  8
0
 10
40.1762
 20
17.1667
 11
40.1531
 21
17.1955
  0
LINE
  8
0
 10
40.1531
 20
17.1955
 11
40.0868
 21
17.2785
  0
LINE
  8
0
 10
40.0868
 20
17.2785
 11
39.9864
 21
17.3685
  0
LINE
  8
0
 10
39.9864
 20
17.3685
 11
39.9598
 21
17.3846
  0
LINE
  8
0
 10
39.9598
 20
17.3846
 11
39.8777
 21
17.4344
  0
LINE
  8
0
 10
39.8777
 20
17.4344
 11
39.8502
 21
17.444
  0
LINE
  8
0
 10
39.8502
 20
17.444
 11
39.7632
 21
17.4746
  0
LINE
  8
0
 10
39.7632
 20
17.4746
 11
39.7354
 21
17.4778
  0
LINE
  8
0
 10
39.7354
 20
17.4778
 11
39.6459
 21
17.4881
  0
LINE
  8
0
 10
39.6459
 20
17.4881
 11
36.5
 21
17.4881
  0
LINE
  8
0
 10
36.5
 20
17.4881
 11
36.5
 21
0
  0
LINE
  8
0
 10
36.5
 20
23.4079
 11
39.6459
 21
23.4079
  0
LINE
  8
0
 10
39.6459
 20
23.4079
 11
39.6987
 21
23.4121
  0
LINE
  8
0
 10
39.6987
 20
23.4121
 11
39.7632
 21
23.4172
  0
LINE
  8
0
 10
39.7632
 20
23.4172
 11
39.8142
 21
23.4294
  0
LINE
  8
0
 10
39.8142
 20
23.4294
 11
39.8777
 21
23.4447
  0
LINE
  8
0
 10
39.8777
 20
23.4447
 11
39.9251
 21
23.4643
  0
LINE
  8
0
 10
39.9251
 20
23.4643
 11
39.9864
 21
23.4897
  0
LINE
  8
0
 10
39.9864
 20
23.4897
 11
40.0291
 21
23.5159
  0
LINE
  8
0
 10
40.0291
 20
23.5159
 11
40.0868
 21
23.5513
  0
LINE
  8
0
 10
40.0868
 20
23.5513
 11
40.1236
 21
23.5828
  0
LINE
  8
0
 10
40.1236
 20
23.5828
 11
40.1762
 21
23.6278
  0
LINE
  8
0
 10
40.1762
 20
23.6278
 11
40.2066
 21
23.6634
  0
LINE
  8
0
 10
40.2066
 20
23.6634
 11
40.2527
 21
23.7173
  0
LINE
  8
0
 10
40.2527
 20
23.7173
 11
40.2762
 21
23.7557
  0
LINE
  8
0
 10
40.2762
 20
23.7557
 11
40.3142
 21
23.8177
  0
LINE
  8
0
 10
40.3142
 20
23.8177
 11
40.3307
 21
23.8577
  0
LINE
  8
0
 10
40.3307
 20
23.8577
 11
40.3592
 21
23.9266
  0
LINE
  8
0
 10
40.3592
 20
23.9266
 11
40.3689
 21
23.9668
  0
LINE
  8
0
 10
40.3689
 20
23.9668
 11
40.3867
 21
24.0411
  0
LINE
  8
0
 10
40.3867
 20
24.0411
 11
40.3898
 21
24.0807
  0
LINE
  8
0
 10
40.3898
 20
24.0807
 11
40.3959
 21
24.1585
  0
LINE
  8
0
 10
40.3959
 20
24.1585
 11
40.3959
 21
27.3407
  0
LINE
  8
0
 10
40.3959
 20
27.3407
 11
40.3956
 21
27.3464
  0
LINE
  8
0
 10
40.3956
 20
27.3464
 11
40.3867
 21
27.5123
  0
LINE
  8
0
 10
40.3867
 20
27.5123
 11
40.3859
 21
27.5169
  0
LINE
  8
0
 10
40.3859
 20
27.5169
 11
40.3592
 21
27.6798
  0
LINE
  8
0
 10
40.3592
 20
27.6798
 11
40.3583
 21
27.6831
  0
LINE
  8
0
 10
40.3583
 20
27.6831
 11
40.3142
 21
27.8389
  0
LINE
  8
0
 10
40.3142
 20
27.8389
 11
40.3132
 21
27.8411
  0
LINE
  8
0
 10
40.3132
 20
27.8411
 11
40.2527
 21
27.9857
  0
LINE
  8
0
 10
40.2527
 20
27.9857
 11
40.2519
 21
27.987
  0
LINE
  8
0
 10
40.2519
 20
27.987
 11
40.1762
 21
28.1166
  0
LINE
  8
0
 10
40.1762
 20
28.1166
 11
40.1758
 21
28.1172
  0
LINE
  8
0
 10
40.1758
 20
28.1172
 11
40.0868
 21
28.2285
  0
LINE
  8
0
 10
40.0868
 20
28.2285
 11
40.0866
 21
28.2286
  0
LINE
  8
0
 10
40.0866
 20
28.2286
 11
40.0554
 21
28.2566
  0
LINE
  8
0
 10
40.0554
 20
28.2566
 11
39.9864
 21
28.3244
  0
LINE
  8
0
 10
39.9864
 20
28.3244
 11
39.9716
 21
28.3343
  0
LINE
  8
0
 10
39.9716
 20
28.3343
 11
39.8777
 21
28.3967
  0
LINE
  8
0
 10
39.8777
 20
28.3967
 11
39.8469
 21
28.4086
  0
LINE
  8
0
 10
39.8469
 20
28.4086
 11
39.7632
 21
28.4408
  0
LINE
  8
0
 10
39.7632
 20
28.4408
 11
39.7239
 21
28.4458
  0
LINE
  8
0
 10
39.7239
 20
28.4458
 11
39.6459
 21
28.4557
  0
LINE
  8
0
 10
39.6459
 20
28.4557
 11
36.5
 21
28.4557
  0
LINE
  8
0
 10
36.5
 20
28.4557
 11
36.5
 21
23.4079
  0
LINE
  8
0
 10
36.5
 20
31.6466
 11
39.6459
 21
31.6466
  0
LINE
  8
0
 10
39.6459
 20
31.6466
 11
39.674
 21
31.6502
  0
LINE
  8
0
 10
39.674
 20
31.6502
 11
39.7632
 21
31.6617
  0
LINE
  8
0
 10
39.7632
 20
31.6617
 11
39.7862
 21
31.6708
  0
LINE
  8
0
 10
39.7862
 20
31.6708
 11
39.8777
 21
31.7068
  0
LINE
  8
0
 10
39.8777
 20
31.7068
 11
39.8906
 21
31.7156
  0
LINE
  8
0
 10
39.8906
 20
31.7156
 11
39.9864
 21
31.7807
  0
LINE
  8
0
 10
39.9864
 20
31.7807
 11
39.9869
 21
31.7811
  0
LINE
  8
0
 10
39.9869
 20
31.7811
 11
39.9895
 21
31.7838
  0
LINE
  8
0
 10
39.9895
 20
31.7838
 11
40.0743
 21
31.8547
  0
LINE
  8
0
 10
40.0743
 20
31.8547
 11
40.0868
 21
31.8651
  0
LINE
  8
0
 10
40.0868
 20
31.8651
 11
40.1522
 21
31.9414
  0
LINE
  8
0
 10
40.1522
 20
31.9414
 11
40.1762
 21
31.9695
  0
LINE
  8
0
 10
40.1762
 20
31.9695
 11
40.2203
 21
32.0398
  0
LINE
  8
0
 10
40.2203
 20
32.0398
 11
40.2527
 21
32.0916
  0
LINE
  8
0
 10
40.2527
 20
32.0916
 11
40.2782
 21
32.1485
  0
LINE
  8
0
 10
40.2782
 20
32.1485
 11
40.3142
 21
32.2286
  0
LINE
  8
0
 10
40.3142
 20
32.2286
 11
40.3256
 21
32.2662
  0
LINE
  8
0
 10
40.3256
 20
32.2662
 11
40.3592
 21
32.3771
  0
LINE
  8
0
 10
40.3592
 20
32.3771
 11
40.3618
 21
32.3916
  0
LINE
  8
0
 10
40.3618
 20
32.3916
 11
40.3753
 21
32.4688
  0
LINE
  8
0
 10
40.3753
 20
32.4688
 11
40.385
 21
32.5171
  0
LINE
  8
0
 10
40.385
 20
32.5171
 11
40.3867
 21
32.5254
  0
LINE
  8
0
 10
40.3867
 20
32.5254
 11
40.394
 21
32.6373
  0
LINE
  8
0
 10
40.394
 20
32.6373
 11
40.3959
 21
32.6658
  0
LINE
  8
0
 10
40.3959
 20
32.6658
 11
40.3959
 21
40
  0
LINE
  8
0
 10
40.3959
 20
40
 11
41
 21
40.6041
  0
LINE
  8
0
 10
41
 20
40.6041
 11
41
 21
41.5
  0
LINE
  8
0
 10
41
 20
41.5
 11
42.506
 21
41.5
  0
LINE
  8
0
 10
42.506
 20
41.5
 11
42.506
 21
45.5
  0
LINE
  8
0
 10
42.506
 20
45.5
 11
36.5
 21
45.5
  0
LINE
  8
0
 10
36.5
 20
45.5
 11
36.5
 21
31.6466
  0
LINE
  8
0
 10
44.9986
 20
0
 11
47.5
 21
0
  0
LINE
  8
0
 10
47.5
 20
0
 11
47.5
 21
3.5
  0
LINE
  8
0
 10
47.5
 20
3.5
 11
47
 21
4
  0
LINE
  8
0
 10
47
 20
4
 11
44.9986
 21
4
  0
LINE
  8
0
 10
44.9986
 20
4
 11
44.9986
 21
0
  0
LINE
  8
0
 10
44.9986
 20
41.5
 11
47
 21
41.5
  0
LINE
  8
0
 10
47
 20
41.5
 11
47.5
 21
42
  0
LINE
  8
0
 10
47.5
 20
42
 11
47.5
 21
45.5
  0
LINE
  8
0
 10
47.5
 20
45.5
 11
44.9986
 21
45.5
  0
LINE
  8
0
 10
44.9986
 20
45.5
 11
44.9986
 21
41.5
  0
ENDSEC
  0
SECTION
  2
OBJECTS
  0
DICTIONARY
  0
ENDSEC
  0
EOF
