  0
SECTION
  2
BLOCKS
  0
ENDSEC
  0
SECTION
  2
ENTITIES
  0
LINE
  8
0
 10
0
 20
0
 11
2.14285
 21
0
  0
LINE
  8
0
 10
2.14285
 20
0
 11
2.14285
 21
4
  0
LINE
  8
0
 10
2.14285
 20
4
 11
0.499999
 21
4
  0
LINE
  8
0
 10
0.499999
 20
4
 11
0
 21
3.5
  0
LINE
  8
0
 10
0
 20
3.5
 11
0
 21
0
  0
LINE
  8
0
 10
0
 20
42
 11
0.499999
 21
41.5
  0
LINE
  8
0
 10
0.499999
 20
41.5
 11
2.14285
 21
41.5
  0
LINE
  8
0
 10
2.14285
 20
41.5
 11
2.14285
 21
45.5
  0
LINE
  8
0
 10
2.14285
 20
45.5
 11
0
 21
45.5
  0
LINE
  8
0
 10
0
 20
45.5
 11
0
 21
42
  0
LINE
  8
0
 10
5.35217
 20
0
 11
11
 21
0
  0
LINE
  8
0
 10
11
 20
0
 11
11
 21
16.8472
  0
LINE
  8
0
 10
11
 20
16.8472
 11
7.85409
 21
16.8472
  0
LINE
  8
0
 10
7.85409
 20
16.8472
 11
7.81597
 21
16.8428
  0
LINE
  8
0
 10
7.81597
 20
16.8428
 11
7.73676
 21
16.8337
  0
LINE
  8
0
 10
7.73676
 20
16.8337
 11
7.6994
 21
16.8206
  0
LINE
  8
0
 10
7.6994
 20
16.8206
 11
7.62232
 21
16.7935
  0
LINE
  8
0
 10
7.62232
 20
16.7935
 11
7.58644
 21
16.7717
  0
LINE
  8
0
 10
7.58644
 20
16.7717
 11
7.51359
 21
16.7276
  0
LINE
  8
0
 10
7.51359
 20
16.7276
 11
7.41325
 21
16.6376
  0
LINE
  8
0
 10
7.41325
 20
16.6376
 11
7.38259
 21
16.5993
  0
LINE
  8
0
 10
7.38259
 20
16.5993
 11
7.32376
 21
16.5258
  0
LINE
  8
0
 10
7.32376
 20
16.5258
 11
7.2969
 21
16.4798
  0
LINE
  8
0
 10
7.2969
 20
16.4798
 11
7.24732
 21
16.3948
  0
LINE
  8
0
 10
7.24732
 20
16.3948
 11
7.2251
 21
16.3418
  0
LINE
  8
0
 10
7.2251
 20
16.3418
 11
7.18583
 21
16.248
  0
LINE
  8
0
 10
7.18583
 20
16.248
 11
7.16905
 21
16.1887
  0
LINE
  8
0
 10
7.16905
 20
16.1887
 11
7.14079
 21
16.0889
  0
LINE
  8
0
 10
7.14079
 20
16.0889
 11
7.13023
 21
16.0245
  0
LINE
  8
0
 10
7.13023
 20
16.0245
 11
7.11332
 21
15.9215
  0
LINE
  8
0
 10
7.11332
 20
15.9215
 11
7.10965
 21
15.8533
  0
LINE
  8
0
 10
7.10965
 20
15.8533
 11
7.10409
 21
15.7498
  0
LINE
  8
0
 10
7.10409
 20
15.7498
 11
7.10409
 21
5.5
  0
LINE
  8
0
 10
7.10409
 20
5.5
 11
6.5
 21
4.89591
  0
LINE
  8
0
 10
6.5
 20
4.89591
 11
6.5
 21
4
  0
LINE
  8
0
 10
6.5
 20
4
 11
5.35217
 21
4
  0
LINE
  8
0
 10
5.35217
 20
4
 11
5.35217
 21
0
  0
LINE
  8
0
 10
5.35217
 20
41.5
 11
6.5
 21
41.5
  0
LINE
  8
0
 10
6.5
 20
41.5
 11
6.5
 21
40.6041
  0
LINE
  8
0
 10
6.5
 20
40.6041
 11
7.10409
 21
40
  0
LINE
  8
0
 10
7.10409
 20
40
 11
7.10409
 21
33.0097
  0
LINE
  8
0
 10
7.10409
 20
33.0097
 11
7.10909
 21
32.9403
  0
LINE
  8
0
 10
7.10909
 20
32.9403
 11
7.11332
 21
32.8816
  0
LINE
  8
0
 10
7.11332
 20
32.8816
 11
7.13135
 21
32.7995
  0
LINE
  8
0
 10
7.13135
 20
32.7995
 11
7.14079
 21
32.7566
  0
LINE
  8
0
 10
7.14079
 20
32.7566
 11
7.17567
 21
32.6646
  0
LINE
  8
0
 10
7.17567
 20
32.6646
 11
7.18583
 21
32.6378
  0
LINE
  8
0
 10
7.18583
 20
32.6378
 11
7.24066
 21
32.5401
  0
LINE
  8
0
 10
7.24066
 20
32.5401
 11
7.24732
 21
32.5282
  0
LINE
  8
0
 10
7.24732
 20
32.5282
 11
7.32196
 21
32.4327
  0
LINE
  8
0
 10
7.32196
 20
32.4327
 11
7.32376
 21
32.4302
  0
LINE
  8
0
 10
7.32376
 20
32.4302
 11
7.32404
 21
32.4299
  0
LINE
  8
0
 10
7.32404
 20
32.4299
 11
7.41325
 21
32.3387
  0
LINE
  8
0
 10
7.41325
 20
32.3387
 11
7.42496
 21
32.3301
  0
LINE
  8
0
 10
7.42496
 20
32.3301
 11
7.51359
 21
32.2651
  0
LINE
  8
0
 10
7.51359
 20
32.2651
 11
7.5361
 21
32.254
  0
LINE
  8
0
 10
7.5361
 20
32.254
 11
7.62232
 21
32.2112
  0
LINE
  8
0
 10
7.62232
 20
32.2112
 11
7.65318
 21
32.2023
  0
LINE
  8
0
 10
7.65318
 20
32.2023
 11
7.73676
 21
32.1783
  0
LINE
  8
0
 10
7.73676
 20
32.1783
 11
7.77228
 21
32.175
  0
LINE
  8
0
 10
7.77228
 20
32.175
 11
7.85409
 21
32.1673
  0
LINE
  8
0
 10
7.85409
 20
32.1673
 11
11
 21
32.1673
  0
LINE
  8
0
 10
11
 20
32.1673
 11
11
 21
45.5
  0
LINE
  8
0
 10
11
 20
45.5
 11
5.35217
 21
45.5
  0
LINE
  8
0
 10
5.35217
 20
45.5
 11
5.35217
 21
41.5
  0
LINE
  8
0
 10
7.10409
 20
24.1436
 11
7.10607
 21
24.1184
  0
LINE
  8
0
 10
7.10607
 20
24.1184
 11
7.11332
 21
24.0264
  0
LINE
  8
0
 10
7.11332
 20
24.0264
 11
7.11847
 21
24.0049
  0
LINE
  8
0
 10
7.11847
 20
24.0049
 11
7.14079
 21
23.912
  0
LINE
  8
0
 10
7.14079
 20
23.912
 11
7.14793
 21
23.8948
  0
LINE
  8
0
 10
7.14793
 20
23.8948
 11
7.18583
 21
23.8033
  0
LINE
  8
0
 10
7.18583
 20
23.8033
 11
7.19375
 21
23.7904
  0
LINE
  8
0
 10
7.19375
 20
23.7904
 11
7.24732
 21
23.7031
  0
LINE
  8
0
 10
7.24732
 20
23.7031
 11
7.25493
 21
23.6942
  0
LINE
  8
0
 10
7.25493
 20
23.6942
 11
7.32376
 21
23.6136
  0
LINE
  8
0
 10
7.32376
 20
23.6136
 11
7.33015
 21
23.6082
  0
LINE
  8
0
 10
7.33015
 20
23.6082
 11
7.41325
 21
23.5372
  0
LINE
  8
0
 10
7.41325
 20
23.5372
 11
7.41787
 21
23.5344
  0
LINE
  8
0
 10
7.41787
 20
23.5344
 11
7.51359
 21
23.4758
  0
LINE
  8
0
 10
7.51359
 20
23.4758
 11
7.51625
 21
23.4747
  0
LINE
  8
0
 10
7.51625
 20
23.4747
 11
7.62232
 21
23.4308
  0
LINE
  8
0
 10
7.62232
 20
23.4308
 11
7.62324
 21
23.4306
  0
LINE
  8
0
 10
7.62324
 20
23.4306
 11
7.71178
 21
23.4093
  0
LINE
  8
0
 10
7.71178
 20
23.4093
 11
7.7365
 21
23.4032
  0
LINE
  8
0
 10
7.7365
 20
23.4032
 11
7.73676
 21
23.4032
  0
LINE
  8
0
 10
7.73676
 20
23.4032
 11
7.8534
 21
23.3938
  0
LINE
  8
0
 10
7.8534
 20
23.3938
 11
7.85409
 21
23.3937
  0
LINE
  8
0
 10
7.85409
 20
23.3937
 11
11
 21
23.3937
  0
LINE
  8
0
 10
11
 20
23.3937
 11
11
 21
27.7972
  0
LINE
  8
0
 10
11
 20
27.7972
 11
7.85409
 21
27.7972
  0
LINE
  8
0
 10
7.85409
 20
27.7972
 11
7.73676
 21
27.7837
  0
LINE
  8
0
 10
7.73676
 20
27.7837
 11
7.73243
 21
27.7822
  0
LINE
  8
0
 10
7.73243
 20
27.7822
 11
7.62232
 21
27.7435
  0
LINE
  8
0
 10
7.62232
 20
27.7435
 11
7.61805
 21
27.7409
  0
LINE
  8
0
 10
7.61805
 20
27.7409
 11
7.51359
 21
27.6776
  0
LINE
  8
0
 10
7.51359
 20
27.6776
 11
7.5094
 21
27.6738
  0
LINE
  8
0
 10
7.5094
 20
27.6738
 11
7.41325
 21
27.5876
  0
LINE
  8
0
 10
7.41325
 20
27.5876
 11
7.40921
 21
27.5826
  0
LINE
  8
0
 10
7.40921
 20
27.5826
 11
7.32376
 21
27.4758
  0
LINE
  8
0
 10
7.32376
 20
27.4758
 11
7.31999
 21
27.4693
  0
LINE
  8
0
 10
7.31999
 20
27.4693
 11
7.24732
 21
27.3448
  0
LINE
  8
0
 10
7.24732
 20
27.3448
 11
7.244
 21
27.3369
  0
LINE
  8
0
 10
7.244
 20
27.3369
 11
7.18583
 21
27.198
  0
LINE
  8
0
 10
7.18583
 20
27.198
 11
7.18315
 21
27.1885
  0
LINE
  8
0
 10
7.18315
 20
27.1885
 11
7.14079
 21
27.0389
  0
LINE
  8
0
 10
7.14079
 20
27.0389
 11
7.139
 21
27.028
  0
LINE
  8
0
 10
7.139
 20
27.028
 11
7.11332
 21
26.8715
  0
LINE
  8
0
 10
7.11332
 20
26.8715
 11
7.11266
 21
26.8592
  0
LINE
  8
0
 10
7.11266
 20
26.8592
 11
7.10409
 21
26.6998
  0
LINE
  8
0
 10
7.10409
 20
26.6998
 11
7.10409
 21
24.1436
  0
LINE
  8
0
 10
36.5
 20
0
 11
42.1429
 21
0
  0
LINE
  8
0
 10
42.1429
 20
0
 11
42.1429
 21
4
  0
LINE
  8
0
 10
42.1429
 20
4
 11
41
 21
4
  0
LINE
  8
0
 10
41
 20
4
 11
41
 21
4.89591
  0
LINE
  8
0
 10
41
 20
4.89591
 11
40.3959
 21
5.5
  0
LINE
  8
0
 10
40.3959
 20
5.5
 11
40.3959
 21
15.7498
  0
LINE
  8
0
 10
40.3959
 20
15.7498
 11
40.3922
 21
15.8184
  0
LINE
  8
0
 10
40.3922
 20
15.8184
 11
40.3867
 21
15.9215
  0
LINE
  8
0
 10
40.3867
 20
15.9215
 11
40.376
 21
15.9864
  0
LINE
  8
0
 10
40.376
 20
15.9864
 11
40.3592
 21
16.0889
  0
LINE
  8
0
 10
40.3592
 20
16.0889
 11
40.3423
 21
16.1487
  0
LINE
  8
0
 10
40.3423
 20
16.1487
 11
40.3142
 21
16.248
  0
LINE
  8
0
 10
40.3142
 20
16.248
 11
40.2918
 21
16.3015
  0
LINE
  8
0
 10
40.2918
 20
16.3015
 11
40.2527
 21
16.3948
  0
LINE
  8
0
 10
40.2527
 20
16.3948
 11
40.2256
 21
16.4412
  0
LINE
  8
0
 10
40.2256
 20
16.4412
 11
40.1762
 21
16.5258
  0
LINE
  8
0
 10
40.1762
 20
16.5258
 11
40.1454
 21
16.5644
  0
LINE
  8
0
 10
40.1454
 20
16.5644
 11
40.0868
 21
16.6376
  0
LINE
  8
0
 10
40.0868
 20
16.6376
 11
39.9864
 21
16.7276
  0
LINE
  8
0
 10
39.9864
 20
16.7276
 11
39.9503
 21
16.7495
  0
LINE
  8
0
 10
39.9503
 20
16.7495
 11
39.8777
 21
16.7935
  0
LINE
  8
0
 10
39.8777
 20
16.7935
 11
39.8402
 21
16.8067
  0
LINE
  8
0
 10
39.8402
 20
16.8067
 11
39.7632
 21
16.8337
  0
LINE
  8
0
 10
39.7632
 20
16.8337
 11
39.7251
 21
16.8381
  0
LINE
  8
0
 10
39.7251
 20
16.8381
 11
39.6459
 21
16.8472
  0
LINE
  8
0
 10
39.6459
 20
16.8472
 11
36.5
 21
16.8472
  0
LINE
  8
0
 10
36.5
 20
16.8472
 11
36.5
 21
0
  0
LINE
  8
0
 10
36.5
 20
23.3937
 11
39.6459
 21
23.3937
  0
LINE
  8
0
 10
39.6459
 20
23.3937
 11
39.763
 21
23.4031
  0
LINE
  8
0
 10
39.763
 20
23.4031
 11
39.7632
 21
23.4032
  0
LINE
  8
0
 10
39.7632
 20
23.4032
 11
39.7882
 21
23.4093
  0
LINE
  8
0
 10
39.7882
 20
23.4093
 11
39.8777
 21
23.4308
  0
LINE
  8
0
 10
39.8777
 20
23.4308
 11
39.8785
 21
23.4311
  0
LINE
  8
0
 10
39.8785
 20
23.4311
 11
39.9864
 21
23.4758
  0
LINE
  8
0
 10
39.9864
 20
23.4758
 11
39.9889
 21
23.4773
  0
LINE
  8
0
 10
39.9889
 20
23.4773
 11
40.0868
 21
23.5372
  0
LINE
  8
0
 10
40.0868
 20
23.5372
 11
40.0909
 21
23.5408
  0
LINE
  8
0
 10
40.0909
 20
23.5408
 11
40.1762
 21
23.6136
  0
LINE
  8
0
 10
40.1762
 20
23.6136
 11
40.1817
 21
23.62
  0
LINE
  8
0
 10
40.1817
 20
23.62
 11
40.2527
 21
23.7031
  0
LINE
  8
0
 10
40.2527
 20
23.7031
 11
40.2588
 21
23.713
  0
LINE
  8
0
 10
40.2588
 20
23.713
 11
40.3142
 21
23.8033
  0
LINE
  8
0
 10
40.3142
 20
23.8033
 11
40.3199
 21
23.8173
  0
LINE
  8
0
 10
40.3199
 20
23.8173
 11
40.3592
 21
23.912
  0
LINE
  8
0
 10
40.3592
 20
23.912
 11
40.3635
 21
23.93
  0
LINE
  8
0
 10
40.3635
 20
23.93
 11
40.3867
 21
24.0264
  0
LINE
  8
0
 10
40.3867
 20
24.0264
 11
40.3884
 21
24.0482
  0
LINE
  8
0
 10
40.3884
 20
24.0482
 11
40.3959
 21
24.1436
  0
LINE
  8
0
 10
40.3959
 20
24.1436
 11
40.3959
 21
26.6998
  0
LINE
  8
0
 10
40.3959
 20
26.6998
 11
40.3952
 21
26.713
  0
LINE
  8
0
 10
40.3952
 20
26.713
 11
40.3867
 21
26.8715
  0
LINE
  8
0
 10
40.3867
 20
26.8715
 11
40.3847
 21
26.8833
  0
LINE
  8
0
 10
40.3847
 20
26.8833
 11
40.3592
 21
27.0389
  0
LINE
  8
0
 10
40.3592
 20
27.0389
 11
40.3563
 21
27.0492
  0
LINE
  8
0
 10
40.3563
 20
27.0492
 11
40.3142
 21
27.198
  0
LINE
  8
0
 10
40.3142
 20
27.198
 11
40.3105
 21
27.2066
  0
LINE
  8
0
 10
40.3105
 20
27.2066
 11
40.2527
 21
27.3448
  0
LINE
  8
0
 10
40.2527
 20
27.3448
 11
40.2486
 21
27.3518
  0
LINE
  8
0
 10
40.2486
 20
27.3518
 11
40.1762
 21
27.4758
  0
LINE
  8
0
 10
40.1762
 20
27.4758
 11
40.1719
 21
27.4812
  0
LINE
  8
0
 10
40.1719
 20
27.4812
 11
40.0868
 21
27.5876
  0
LINE
  8
0
 10
40.0868
 20
27.5876
 11
40.0823
 21
27.5916
  0
LINE
  8
0
 10
40.0823
 20
27.5916
 11
39.9864
 21
27.6776
  0
LINE
  8
0
 10
39.9864
 20
27.6776
 11
39.9819
 21
27.6803
  0
LINE
  8
0
 10
39.9819
 20
27.6803
 11
39.8777
 21
27.7435
  0
LINE
  8
0
 10
39.8777
 20
27.7435
 11
39.8732
 21
27.7451
  0
LINE
  8
0
 10
39.8732
 20
27.7451
 11
39.7632
 21
27.7837
  0
LINE
  8
0
 10
39.7632
 20
27.7837
 11
39.6459
 21
27.7972
  0
LINE
  8
0
 10
39.6459
 20
27.7972
 11
36.5
 21
27.7972
  0
LINE
  8
0
 10
36.5
 20
27.7972
 11
36.5
 21
23.3937
  0
LINE
  8
0
 10
36.5
 20
32.1673
 11
39.6459
 21
32.1673
  0
LINE
  8
0
 10
39.6459
 20
32.1673
 11
39.6819
 21
32.1706
  0
LINE
  8
0
 10
39.6819
 20
32.1706
 11
39.7632
 21
32.1783
  0
LINE
  8
0
 10
39.7632
 20
32.1783
 11
39.7957
 21
32.1876
  0
LINE
  8
0
 10
39.7957
 20
32.1876
 11
39.8777
 21
32.2112
  0
LINE
  8
0
 10
39.8777
 20
32.2112
 11
39.9035
 21
32.224
  0
LINE
  8
0
 10
39.9035
 20
32.224
 11
39.9864
 21
32.2651
  0
LINE
  8
0
 10
39.9864
 20
32.2651
 11
40.0037
 21
32.2778
  0
LINE
  8
0
 10
40.0037
 20
32.2778
 11
40.0868
 21
32.3387
  0
LINE
  8
0
 10
40.0868
 20
32.3387
 11
40.095
 21
32.3472
  0
LINE
  8
0
 10
40.095
 20
32.3472
 11
40.1762
 21
32.4302
  0
LINE
  8
0
 10
40.1762
 20
32.4302
 11
40.1764
 21
32.4305
  0
LINE
  8
0
 10
40.1764
 20
32.4305
 11
40.178
 21
32.4327
  0
LINE
  8
0
 10
40.178
 20
32.4327
 11
40.2455
 21
32.5191
  0
LINE
  8
0
 10
40.2455
 20
32.5191
 11
40.2527
 21
32.5282
  0
LINE
  8
0
 10
40.2527
 20
32.5282
 11
40.3023
 21
32.6167
  0
LINE
  8
0
 10
40.3023
 20
32.6167
 11
40.3142
 21
32.6378
  0
LINE
  8
0
 10
40.3142
 20
32.6378
 11
40.3461
 21
32.7219
  0
LINE
  8
0
 10
40.3461
 20
32.7219
 11
40.3592
 21
32.7566
  0
LINE
  8
0
 10
40.3592
 20
32.7566
 11
40.376
 21
32.8329
  0
LINE
  8
0
 10
40.376
 20
32.8329
 11
40.3867
 21
32.8816
  0
LINE
  8
0
 10
40.3867
 20
32.8816
 11
40.3915
 21
32.9478
  0
LINE
  8
0
 10
40.3915
 20
32.9478
 11
40.3959
 21
33.0097
  0
LINE
  8
0
 10
40.3959
 20
33.0097
 11
40.3959
 21
40
  0
LINE
  8
0
 10
40.3959
 20
40
 11
41
 21
40.6041
  0
LINE
  8
0
 10
41
 20
40.6041
 11
41
 21
41.5
  0
LINE
  8
0
 10
41
 20
41.5
 11
42.1429
 21
41.5
  0
LINE
  8
0
 10
42.1429
 20
41.5
 11
42.1429
 21
45.5
  0
LINE
  8
0
 10
42.1429
 20
45.5
 11
36.5
 21
45.5
  0
LINE
  8
0
 10
36.5
 20
45.5
 11
36.5
 21
32.1673
  0
LINE
  8
0
 10
45.3522
 20
0
 11
47.5
 21
0
  0
LINE
  8
0
 10
47.5
 20
0
 11
47.5
 21
3.5
  0
LINE
  8
0
 10
47.5
 20
3.5
 11
47
 21
4
  0
LINE
  8
0
 10
47
 20
4
 11
45.3522
 21
4
  0
LINE
  8
0
 10
45.3522
 20
4
 11
45.3522
 21
0
  0
LINE
  8
0
 10
45.3522
 20
41.5
 11
47
 21
41.5
  0
LINE
  8
0
 10
47
 20
41.5
 11
47.5
 21
42
  0
LINE
  8
0
 10
47.5
 20
42
 11
47.5
 21
45.5
  0
LINE
  8
0
 10
47.5
 20
45.5
 11
45.3522
 21
45.5
  0
LINE
  8
0
 10
45.3522
 20
45.5
 11
45.3522
 21
41.5
  0
ENDSEC
  0
SECTION
  2
OBJECTS
  0
DICTIONARY
  0
ENDSEC
  0
EOF
