  0
SECTION
  2
BLOCKS
  0
ENDSEC
  0
SECTION
  2
ENTITIES
  0
LINE
  8
0
 10
0
 20
0
 11
2.09078
 21
0
  0
LINE
  8
0
 10
2.09078
 20
0
 11
2.09078
 21
4
  0
LINE
  8
0
 10
2.09078
 20
4
 11
0.499999
 21
4
  0
LINE
  8
0
 10
0.499999
 20
4
 11
0
 21
3.5
  0
LINE
  8
0
 10
0
 20
3.5
 11
0
 21
0
  0
LINE
  8
0
 10
0
 20
42
 11
0.499999
 21
41.5
  0
LINE
  8
0
 10
0.499999
 20
41.5
 11
2.09078
 21
41.5
  0
LINE
  8
0
 10
2.09078
 20
41.5
 11
2.09078
 21
45.5
  0
LINE
  8
0
 10
2.09078
 20
45.5
 11
0
 21
45.5
  0
LINE
  8
0
 10
0
 20
45.5
 11
0
 21
42
  0
LINE
  8
0
 10
5.40858
 20
0
 11
11
 21
0
  0
LINE
  8
0
 10
11
 20
0
 11
11
 21
16.6336
  0
LINE
  8
0
 10
11
 20
16.6336
 11
7.85409
 21
16.6336
  0
LINE
  8
0
 10
7.85409
 20
16.6336
 11
7.81253
 21
16.6288
  0
LINE
  8
0
 10
7.81253
 20
16.6288
 11
7.73676
 21
16.6201
  0
LINE
  8
0
 10
7.73676
 20
16.6201
 11
7.69604
 21
16.6058
  0
LINE
  8
0
 10
7.69604
 20
16.6058
 11
7.62232
 21
16.5799
  0
LINE
  8
0
 10
7.62232
 20
16.5799
 11
7.58324
 21
16.5562
  0
LINE
  8
0
 10
7.58324
 20
16.5562
 11
7.51359
 21
16.514
  0
LINE
  8
0
 10
7.51359
 20
16.514
 11
7.41325
 21
16.424
  0
LINE
  8
0
 10
7.41325
 20
16.424
 11
7.37994
 21
16.3824
  0
LINE
  8
0
 10
7.37994
 20
16.3824
 11
7.32376
 21
16.3122
  0
LINE
  8
0
 10
7.32376
 20
16.3122
 11
7.29464
 21
16.2623
  0
LINE
  8
0
 10
7.29464
 20
16.2623
 11
7.24732
 21
16.1812
  0
LINE
  8
0
 10
7.24732
 20
16.1812
 11
7.22328
 21
16.1238
  0
LINE
  8
0
 10
7.22328
 20
16.1238
 11
7.18583
 21
16.0344
  0
LINE
  8
0
 10
7.18583
 20
16.0344
 11
7.16772
 21
15.9704
  0
LINE
  8
0
 10
7.16772
 20
15.9704
 11
7.14079
 21
15.8753
  0
LINE
  8
0
 10
7.14079
 20
15.8753
 11
7.12941
 21
15.806
  0
LINE
  8
0
 10
7.12941
 20
15.806
 11
7.11332
 21
15.7079
  0
LINE
  8
0
 10
7.11332
 20
15.7079
 11
7.10938
 21
15.6346
  0
LINE
  8
0
 10
7.10938
 20
15.6346
 11
7.10409
 21
15.5362
  0
LINE
  8
0
 10
7.10409
 20
15.5362
 11
7.10409
 21
5.5
  0
LINE
  8
0
 10
7.10409
 20
5.5
 11
6.5
 21
4.89591
  0
LINE
  8
0
 10
6.5
 20
4.89591
 11
6.5
 21
4
  0
LINE
  8
0
 10
6.5
 20
4
 11
5.40858
 21
4
  0
LINE
  8
0
 10
5.40858
 20
4
 11
5.40858
 21
0
  0
LINE
  8
0
 10
5.40858
 20
41.5
 11
6.5
 21
41.5
  0
LINE
  8
0
 10
6.5
 20
41.5
 11
6.5
 21
40.6041
  0
LINE
  8
0
 10
6.5
 20
40.6041
 11
7.10409
 21
40
  0
LINE
  8
0
 10
7.10409
 20
40
 11
7.10409
 21
33.0995
  0
LINE
  8
0
 10
7.10409
 20
33.0995
 11
7.10482
 21
33.0893
  0
LINE
  8
0
 10
7.10482
 20
33.0893
 11
7.11332
 21
32.9713
  0
LINE
  8
0
 10
7.11332
 20
32.9713
 11
7.11816
 21
32.9493
  0
LINE
  8
0
 10
7.11816
 20
32.9493
 11
7.14079
 21
32.8463
  0
LINE
  8
0
 10
7.14079
 20
32.8463
 11
7.15328
 21
32.8134
  0
LINE
  8
0
 10
7.15328
 20
32.8134
 11
7.18583
 21
32.7275
  0
LINE
  8
0
 10
7.18583
 20
32.7275
 11
7.20912
 21
32.686
  0
LINE
  8
0
 10
7.20912
 20
32.686
 11
7.24732
 21
32.6179
  0
LINE
  8
0
 10
7.24732
 20
32.6179
 11
7.28374
 21
32.5714
  0
LINE
  8
0
 10
7.28374
 20
32.5714
 11
7.32376
 21
32.5202
  0
LINE
  8
0
 10
7.32376
 20
32.5202
 11
7.37436
 21
32.473
  0
LINE
  8
0
 10
7.37436
 20
32.473
 11
7.41325
 21
32.4367
  0
LINE
  8
0
 10
7.41325
 20
32.4367
 11
7.47757
 21
32.3936
  0
LINE
  8
0
 10
7.47757
 20
32.3936
 11
7.51359
 21
32.3695
  0
LINE
  8
0
 10
7.51359
 20
32.3695
 11
7.58959
 21
32.3351
  0
LINE
  8
0
 10
7.58959
 20
32.3351
 11
7.62232
 21
32.3203
  0
LINE
  8
0
 10
7.62232
 20
32.3203
 11
7.70659
 21
32.2982
  0
LINE
  8
0
 10
7.70659
 20
32.2982
 11
7.73676
 21
32.2903
  0
LINE
  8
0
 10
7.73676
 20
32.2903
 11
7.82494
 21
32.2827
  0
LINE
  8
0
 10
7.82494
 20
32.2827
 11
7.85409
 21
32.2802
  0
LINE
  8
0
 10
7.85409
 20
32.2802
 11
11
 21
32.2802
  0
LINE
  8
0
 10
11
 20
32.2802
 11
11
 21
45.5
  0
LINE
  8
0
 10
11
 20
45.5
 11
5.40858
 21
45.5
  0
LINE
  8
0
 10
5.40858
 20
45.5
 11
5.40858
 21
41.5
  0
LINE
  8
0
 10
7.10409
 20
24.1143
 11
7.11155
 21
24.017
  0
LINE
  8
0
 10
7.11155
 20
24.017
 11
7.11332
 21
23.9939
  0
LINE
  8
0
 10
7.11332
 20
23.9939
 11
7.13439
 21
23.9039
  0
LINE
  8
0
 10
7.13439
 20
23.9039
 11
7.14079
 21
23.8765
  0
LINE
  8
0
 10
7.14079
 20
23.8765
 11
7.1734
 21
23.7957
  0
LINE
  8
0
 10
7.1734
 20
23.7957
 11
7.18583
 21
23.7649
  0
LINE
  8
0
 10
7.18583
 20
23.7649
 11
7.22769
 21
23.6949
  0
LINE
  8
0
 10
7.22769
 20
23.6949
 11
7.24732
 21
23.662
  0
LINE
  8
0
 10
7.24732
 20
23.662
 11
7.29612
 21
23.6034
  0
LINE
  8
0
 10
7.29612
 20
23.6034
 11
7.32376
 21
23.5702
  0
LINE
  8
0
 10
7.32376
 20
23.5702
 11
7.37732
 21
23.5233
  0
LINE
  8
0
 10
7.37732
 20
23.5233
 11
7.41325
 21
23.4918
  0
LINE
  8
0
 10
7.41325
 20
23.4918
 11
7.46972
 21
23.4563
  0
LINE
  8
0
 10
7.46972
 20
23.4563
 11
7.51359
 21
23.4287
  0
LINE
  8
0
 10
7.51359
 20
23.4287
 11
7.57157
 21
23.4041
  0
LINE
  8
0
 10
7.57157
 20
23.4041
 11
7.62232
 21
23.3825
  0
LINE
  8
0
 10
7.62232
 20
23.3825
 11
7.68085
 21
23.3681
  0
LINE
  8
0
 10
7.68085
 20
23.3681
 11
7.73676
 21
23.3543
  0
LINE
  8
0
 10
7.73676
 20
23.3543
 11
7.79532
 21
23.3496
  0
LINE
  8
0
 10
7.79532
 20
23.3496
 11
7.85409
 21
23.3448
  0
LINE
  8
0
 10
7.85409
 20
23.3448
 11
11
 21
23.3448
  0
LINE
  8
0
 10
11
 20
23.3448
 11
11
 21
27.5836
  0
LINE
  8
0
 10
11
 20
27.5836
 11
7.85409
 21
27.5836
  0
LINE
  8
0
 10
7.85409
 20
27.5836
 11
7.73676
 21
27.5701
  0
LINE
  8
0
 10
7.73676
 20
27.5701
 11
7.73076
 21
27.5679
  0
LINE
  8
0
 10
7.73076
 20
27.5679
 11
7.62232
 21
27.5299
  0
LINE
  8
0
 10
7.62232
 20
27.5299
 11
7.61645
 21
27.5263
  0
LINE
  8
0
 10
7.61645
 20
27.5263
 11
7.51359
 21
27.464
  0
LINE
  8
0
 10
7.51359
 20
27.464
 11
7.50793
 21
27.4589
  0
LINE
  8
0
 10
7.50793
 20
27.4589
 11
7.41325
 21
27.374
  0
LINE
  8
0
 10
7.41325
 20
27.374
 11
7.4079
 21
27.3673
  0
LINE
  8
0
 10
7.4079
 20
27.3673
 11
7.32376
 21
27.2622
  0
LINE
  8
0
 10
7.32376
 20
27.2622
 11
7.31887
 21
27.2538
  0
LINE
  8
0
 10
7.31887
 20
27.2538
 11
7.24732
 21
27.1312
  0
LINE
  8
0
 10
7.24732
 20
27.1312
 11
7.2431
 21
27.1211
  0
LINE
  8
0
 10
7.2431
 20
27.1211
 11
7.18583
 21
26.9844
  0
LINE
  8
0
 10
7.18583
 20
26.9844
 11
7.18249
 21
26.9726
  0
LINE
  8
0
 10
7.18249
 20
26.9726
 11
7.14079
 21
26.8253
  0
LINE
  8
0
 10
7.14079
 20
26.8253
 11
7.13859
 21
26.8119
  0
LINE
  8
0
 10
7.13859
 20
26.8119
 11
7.11332
 21
26.6579
  0
LINE
  8
0
 10
7.11332
 20
26.6579
 11
7.11252
 21
26.6431
  0
LINE
  8
0
 10
7.11252
 20
26.6431
 11
7.10409
 21
26.4862
  0
LINE
  8
0
 10
7.10409
 20
26.4862
 11
7.10409
 21
24.1143
  0
LINE
  8
0
 10
36.5
 20
0
 11
42.0908
 21
0
  0
LINE
  8
0
 10
42.0908
 20
0
 11
42.0908
 21
4
  0
LINE
  8
0
 10
42.0908
 20
4
 11
41
 21
4
  0
LINE
  8
0
 10
41
 20
4
 11
41
 21
4.89591
  0
LINE
  8
0
 10
41
 20
4.89591
 11
40.3959
 21
5.5
  0
LINE
  8
0
 10
40.3959
 20
5.5
 11
40.3959
 21
15.5362
  0
LINE
  8
0
 10
40.3959
 20
15.5362
 11
40.392
 21
15.6098
  0
LINE
  8
0
 10
40.392
 20
15.6098
 11
40.3867
 21
15.7079
  0
LINE
  8
0
 10
40.3867
 20
15.7079
 11
40.3752
 21
15.7776
  0
LINE
  8
0
 10
40.3752
 20
15.7776
 11
40.3592
 21
15.8753
  0
LINE
  8
0
 10
40.3592
 20
15.8753
 11
40.341
 21
15.9397
  0
LINE
  8
0
 10
40.341
 20
15.9397
 11
40.3142
 21
16.0344
  0
LINE
  8
0
 10
40.3142
 20
16.0344
 11
40.29
 21
16.0922
  0
LINE
  8
0
 10
40.29
 20
16.0922
 11
40.2527
 21
16.1812
  0
LINE
  8
0
 10
40.2527
 20
16.1812
 11
40.2234
 21
16.2314
  0
LINE
  8
0
 10
40.2234
 20
16.2314
 11
40.1762
 21
16.3122
  0
LINE
  8
0
 10
40.1762
 20
16.3122
 11
40.1428
 21
16.354
  0
LINE
  8
0
 10
40.1428
 20
16.354
 11
40.0868
 21
16.424
  0
LINE
  8
0
 10
40.0868
 20
16.424
 11
39.9864
 21
16.514
  0
LINE
  8
0
 10
39.9864
 20
16.514
 11
39.9472
 21
16.5378
  0
LINE
  8
0
 10
39.9472
 20
16.5378
 11
39.8777
 21
16.5799
  0
LINE
  8
0
 10
39.8777
 20
16.5799
 11
39.8369
 21
16.5942
  0
LINE
  8
0
 10
39.8369
 20
16.5942
 11
39.7632
 21
16.6201
  0
LINE
  8
0
 10
39.7632
 20
16.6201
 11
39.7217
 21
16.6249
  0
LINE
  8
0
 10
39.7217
 20
16.6249
 11
39.6459
 21
16.6336
  0
LINE
  8
0
 10
39.6459
 20
16.6336
 11
36.5
 21
16.6336
  0
LINE
  8
0
 10
36.5
 20
16.6336
 11
36.5
 21
0
  0
LINE
  8
0
 10
36.5
 20
23.3448
 11
39.6459
 21
23.3448
  0
LINE
  8
0
 10
39.6459
 20
23.3448
 11
39.7042
 21
23.3495
  0
LINE
  8
0
 10
39.7042
 20
23.3495
 11
39.7632
 21
23.3543
  0
LINE
  8
0
 10
39.7632
 20
23.3543
 11
39.8212
 21
23.3686
  0
LINE
  8
0
 10
39.8212
 20
23.3686
 11
39.8777
 21
23.3825
  0
LINE
  8
0
 10
39.8777
 20
23.3825
 11
39.9349
 21
23.4068
  0
LINE
  8
0
 10
39.9349
 20
23.4068
 11
39.9864
 21
23.4287
  0
LINE
  8
0
 10
39.9864
 20
23.4287
 11
40.0421
 21
23.4637
  0
LINE
  8
0
 10
40.0421
 20
23.4637
 11
40.0868
 21
23.4918
  0
LINE
  8
0
 10
40.0868
 20
23.4918
 11
40.1398
 21
23.5382
  0
LINE
  8
0
 10
40.1398
 20
23.5382
 11
40.1762
 21
23.5702
  0
LINE
  8
0
 10
40.1762
 20
23.5702
 11
40.2248
 21
23.6285
  0
LINE
  8
0
 10
40.2248
 20
23.6285
 11
40.2527
 21
23.662
  0
LINE
  8
0
 10
40.2527
 20
23.662
 11
40.2946
 21
23.7322
  0
LINE
  8
0
 10
40.2946
 20
23.7322
 11
40.3142
 21
23.7649
  0
LINE
  8
0
 10
40.3142
 20
23.7649
 11
40.347
 21
23.8464
  0
LINE
  8
0
 10
40.347
 20
23.8464
 11
40.3592
 21
23.8765
  0
LINE
  8
0
 10
40.3592
 20
23.8765
 11
40.3806
 21
23.9678
  0
LINE
  8
0
 10
40.3806
 20
23.9678
 11
40.3867
 21
23.9939
  0
LINE
  8
0
 10
40.3867
 20
23.9939
 11
40.3943
 21
24.0931
  0
LINE
  8
0
 10
40.3943
 20
24.0931
 11
40.3959
 21
24.1143
  0
LINE
  8
0
 10
40.3959
 20
24.1143
 11
40.3959
 21
26.4862
  0
LINE
  8
0
 10
40.3959
 20
26.4862
 11
40.3951
 21
26.5019
  0
LINE
  8
0
 10
40.3951
 20
26.5019
 11
40.3867
 21
26.6579
  0
LINE
  8
0
 10
40.3867
 20
26.6579
 11
40.3843
 21
26.6721
  0
LINE
  8
0
 10
40.3843
 20
26.6721
 11
40.3592
 21
26.8253
  0
LINE
  8
0
 10
40.3592
 20
26.8253
 11
40.3556
 21
26.8379
  0
LINE
  8
0
 10
40.3556
 20
26.8379
 11
40.3142
 21
26.9844
  0
LINE
  8
0
 10
40.3142
 20
26.9844
 11
40.3097
 21
26.9952
  0
LINE
  8
0
 10
40.3097
 20
26.9952
 11
40.2527
 21
27.1312
  0
LINE
  8
0
 10
40.2527
 20
27.1312
 11
40.2475
 21
27.1401
  0
LINE
  8
0
 10
40.2475
 20
27.1401
 11
40.1762
 21
27.2622
  0
LINE
  8
0
 10
40.1762
 20
27.2622
 11
40.1706
 21
27.2692
  0
LINE
  8
0
 10
40.1706
 20
27.2692
 11
40.0868
 21
27.374
  0
LINE
  8
0
 10
40.0868
 20
27.374
 11
40.0808
 21
27.3793
  0
LINE
  8
0
 10
40.0808
 20
27.3793
 11
39.9864
 21
27.464
  0
LINE
  8
0
 10
39.9864
 20
27.464
 11
39.9803
 21
27.4677
  0
LINE
  8
0
 10
39.9803
 20
27.4677
 11
39.8777
 21
27.5299
  0
LINE
  8
0
 10
39.8777
 20
27.5299
 11
39.8715
 21
27.532
  0
LINE
  8
0
 10
39.8715
 20
27.532
 11
39.7632
 21
27.5701
  0
LINE
  8
0
 10
39.7632
 20
27.5701
 11
39.6459
 21
27.5836
  0
LINE
  8
0
 10
39.6459
 20
27.5836
 11
36.5
 21
27.5836
  0
LINE
  8
0
 10
36.5
 20
27.5836
 11
36.5
 21
23.3448
  0
LINE
  8
0
 10
36.5
 20
32.2802
 11
39.6459
 21
32.2802
  0
LINE
  8
0
 10
39.6459
 20
32.2802
 11
39.7333
 21
32.2877
  0
LINE
  8
0
 10
39.7333
 20
32.2877
 11
39.7632
 21
32.2903
  0
LINE
  8
0
 10
39.7632
 20
32.2903
 11
39.8453
 21
32.3118
  0
LINE
  8
0
 10
39.8453
 20
32.3118
 11
39.8777
 21
32.3203
  0
LINE
  8
0
 10
39.8777
 20
32.3203
 11
39.9508
 21
32.3534
  0
LINE
  8
0
 10
39.9508
 20
32.3534
 11
39.9864
 21
32.3695
  0
LINE
  8
0
 10
39.9864
 20
32.3695
 11
40.0479
 21
32.4107
  0
LINE
  8
0
 10
40.0479
 20
32.4107
 11
40.0868
 21
32.4367
  0
LINE
  8
0
 10
40.0868
 20
32.4367
 11
40.1353
 21
32.482
  0
LINE
  8
0
 10
40.1353
 20
32.482
 11
40.1762
 21
32.5202
  0
LINE
  8
0
 10
40.1762
 20
32.5202
 11
40.2118
 21
32.5657
  0
LINE
  8
0
 10
40.2118
 20
32.5657
 11
40.2527
 21
32.6179
  0
LINE
  8
0
 10
40.2527
 20
32.6179
 11
40.2763
 21
32.66
  0
LINE
  8
0
 10
40.2763
 20
32.66
 11
40.3142
 21
32.7275
  0
LINE
  8
0
 10
40.3142
 20
32.7275
 11
40.3277
 21
32.7633
  0
LINE
  8
0
 10
40.3277
 20
32.7633
 11
40.3592
 21
32.8463
  0
LINE
  8
0
 10
40.3592
 20
32.8463
 11
40.3652
 21
32.8736
  0
LINE
  8
0
 10
40.3652
 20
32.8736
 11
40.3867
 21
32.9713
  0
LINE
  8
0
 10
40.3867
 20
32.9713
 11
40.388
 21
32.9891
  0
LINE
  8
0
 10
40.388
 20
32.9891
 11
40.3959
 21
33.0995
  0
LINE
  8
0
 10
40.3959
 20
33.0995
 11
40.3959
 21
40
  0
LINE
  8
0
 10
40.3959
 20
40
 11
41
 21
40.6041
  0
LINE
  8
0
 10
41
 20
40.6041
 11
41
 21
41.5
  0
LINE
  8
0
 10
41
 20
41.5
 11
42.0908
 21
41.5
  0
LINE
  8
0
 10
42.0908
 20
41.5
 11
42.0908
 21
45.5
  0
LINE
  8
0
 10
42.0908
 20
45.5
 11
36.5
 21
45.5
  0
LINE
  8
0
 10
36.5
 20
45.5
 11
36.5
 21
32.2802
  0
LINE
  8
0
 10
45.4086
 20
0
 11
47.5
 21
0
  0
LINE
  8
0
 10
47.5
 20
0
 11
47.5
 21
3.5
  0
LINE
  8
0
 10
47.5
 20
3.5
 11
47
 21
4
  0
LINE
  8
0
 10
47
 20
4
 11
45.4086
 21
4
  0
LINE
  8
0
 10
45.4086
 20
4
 11
45.4086
 21
0
  0
LINE
  8
0
 10
45.4086
 20
41.5
 11
47
 21
41.5
  0
LINE
  8
0
 10
47
 20
41.5
 11
47.5
 21
42
  0
LINE
  8
0
 10
47.5
 20
42
 11
47.5
 21
45.5
  0
LINE
  8
0
 10
47.5
 20
45.5
 11
45.4086
 21
45.5
  0
LINE
  8
0
 10
45.4086
 20
45.5
 11
45.4086
 21
41.5
  0
ENDSEC
  0
SECTION
  2
OBJECTS
  0
DICTIONARY
  0
ENDSEC
  0
EOF
