  0
SECTION
  2
BLOCKS
  0
ENDSEC
  0
SECTION
  2
ENTITIES
  0
LINE
  8
0
 10
0
 20
0
 11
2.05425
 21
0
  0
LINE
  8
0
 10
2.05425
 20
0
 11
2.05425
 21
4
  0
LINE
  8
0
 10
2.05425
 20
4
 11
0.499999
 21
4
  0
LINE
  8
0
 10
0.499999
 20
4
 11
0
 21
3.5
  0
LINE
  8
0
 10
0
 20
3.5
 11
0
 21
0
  0
LINE
  8
0
 10
0
 20
42
 11
0.499999
 21
41.5
  0
LINE
  8
0
 10
0.499999
 20
41.5
 11
2.05425
 21
41.5
  0
LINE
  8
0
 10
2.05425
 20
41.5
 11
2.05425
 21
45.5
  0
LINE
  8
0
 10
2.05425
 20
45.5
 11
0
 21
45.5
  0
LINE
  8
0
 10
0
 20
45.5
 11
0
 21
42
  0
LINE
  8
0
 10
5.44387
 20
4
 11
5.44787
 21
1.38722
  0
LINE
  8
0
 10
5.44787
 20
1.38722
 11
5.44787
 21
0
  0
LINE
  8
0
 10
5.44787
 20
0
 11
11
 21
0
  0
LINE
  8
0
 10
11
 20
0
 11
11
 21
16.2063
  0
LINE
  8
0
 10
11
 20
16.2063
 11
7.85409
 21
16.2063
  0
LINE
  8
0
 10
7.85409
 20
16.2063
 11
7.80566
 21
16.2008
  0
LINE
  8
0
 10
7.80566
 20
16.2008
 11
7.73676
 21
16.1928
  0
LINE
  8
0
 10
7.73676
 20
16.1928
 11
7.68932
 21
16.1762
  0
LINE
  8
0
 10
7.68932
 20
16.1762
 11
7.62232
 21
16.1526
  0
LINE
  8
0
 10
7.62232
 20
16.1526
 11
7.57685
 21
16.1251
  0
LINE
  8
0
 10
7.57685
 20
16.1251
 11
7.51359
 21
16.0867
  0
LINE
  8
0
 10
7.51359
 20
16.0867
 11
7.41325
 21
15.9968
  0
LINE
  8
0
 10
7.41325
 20
15.9968
 11
7.37466
 21
15.9485
  0
LINE
  8
0
 10
7.37466
 20
15.9485
 11
7.32376
 21
15.8849
  0
LINE
  8
0
 10
7.32376
 20
15.8849
 11
7.29013
 21
15.8273
  0
LINE
  8
0
 10
7.29013
 20
15.8273
 11
7.24732
 21
15.754
  0
LINE
  8
0
 10
7.24732
 20
15.754
 11
7.21964
 21
15.6879
  0
LINE
  8
0
 10
7.21964
 20
15.6879
 11
7.18583
 21
15.6072
  0
LINE
  8
0
 10
7.18583
 20
15.6072
 11
7.16505
 21
15.5337
  0
LINE
  8
0
 10
7.16505
 20
15.5337
 11
7.14079
 21
15.4481
  0
LINE
  8
0
 10
7.14079
 20
15.4481
 11
7.12779
 21
15.3688
  0
LINE
  8
0
 10
7.12779
 20
15.3688
 11
7.11332
 21
15.2806
  0
LINE
  8
0
 10
7.11332
 20
15.2806
 11
7.10883
 21
15.1972
  0
LINE
  8
0
 10
7.10883
 20
15.1972
 11
7.10409
 21
15.109
  0
LINE
  8
0
 10
7.10409
 20
15.109
 11
7.10409
 21
5.5
  0
LINE
  8
0
 10
7.10409
 20
5.5
 11
6.5
 21
4.89591
  0
LINE
  8
0
 10
6.5
 20
4.89591
 11
6.5
 21
4
  0
LINE
  8
0
 10
6.5
 20
4
 11
5.44387
 21
4
  0
LINE
  8
0
 10
5.44787
 20
41.5
 11
6.5
 21
41.5
  0
LINE
  8
0
 10
6.5
 20
41.5
 11
6.5
 21
40.6041
  0
LINE
  8
0
 10
6.5
 20
40.6041
 11
7.10409
 21
40
  0
LINE
  8
0
 10
7.10409
 20
40
 11
7.10409
 21
33.2108
  0
LINE
  8
0
 10
7.10409
 20
33.2108
 11
7.10704
 21
33.1721
  0
LINE
  8
0
 10
7.10704
 20
33.1721
 11
7.11332
 21
33.0899
  0
LINE
  8
0
 10
7.11332
 20
33.0899
 11
7.12365
 21
33.0455
  0
LINE
  8
0
 10
7.12365
 20
33.0455
 11
7.14079
 21
32.972
  0
LINE
  8
0
 10
7.14079
 20
32.972
 11
7.16035
 21
32.9233
  0
LINE
  8
0
 10
7.16035
 20
32.9233
 11
7.18583
 21
32.86
  0
LINE
  8
0
 10
7.18583
 20
32.86
 11
7.21612
 21
32.809
  0
LINE
  8
0
 10
7.21612
 20
32.809
 11
7.24732
 21
32.7566
  0
LINE
  8
0
 10
7.24732
 20
32.7566
 11
7.28925
 21
32.706
  0
LINE
  8
0
 10
7.28925
 20
32.706
 11
7.32376
 21
32.6644
  0
LINE
  8
0
 10
7.32376
 20
32.6644
 11
7.37743
 21
32.6172
  0
LINE
  8
0
 10
7.37743
 20
32.6172
 11
7.41325
 21
32.5856
  0
LINE
  8
0
 10
7.41325
 20
32.5856
 11
7.47781
 21
32.5449
  0
LINE
  8
0
 10
7.47781
 20
32.5449
 11
7.51359
 21
32.5223
  0
LINE
  8
0
 10
7.51359
 20
32.5223
 11
7.58722
 21
32.4909
  0
LINE
  8
0
 10
7.58722
 20
32.4909
 11
7.62232
 21
32.4759
  0
LINE
  8
0
 10
7.62232
 20
32.4759
 11
7.70233
 21
32.4561
  0
LINE
  8
0
 10
7.70233
 20
32.4561
 11
7.73676
 21
32.4476
  0
LINE
  8
0
 10
7.73676
 20
32.4476
 11
7.81985
 21
32.4408
  0
LINE
  8
0
 10
7.81985
 20
32.4408
 11
7.85409
 21
32.4381
  0
LINE
  8
0
 10
7.85409
 20
32.4381
 11
11
 21
32.4381
  0
LINE
  8
0
 10
11
 20
32.4381
 11
11
 21
45.5
  0
LINE
  8
0
 10
11
 20
45.5
 11
5.44787
 21
45.5
  0
LINE
  8
0
 10
5.44787
 20
45.5
 11
5.44787
 21
41.5
  0
LINE
  8
0
 10
7.10409
 20
24.0165
 11
7.10471
 21
24.0085
  0
LINE
  8
0
 10
7.10471
 20
24.0085
 11
7.1131
 21
23.8991
  0
LINE
  8
0
 10
7.1131
 20
23.8991
 11
7.1133
 21
23.8962
  0
LINE
  8
0
 10
7.1133
 20
23.8962
 11
7.11332
 21
23.896
  0
LINE
  8
0
 10
7.11332
 20
23.896
 11
7.1388
 21
23.7809
  0
LINE
  8
0
 10
7.1388
 20
23.7809
 11
7.14079
 21
23.7719
  0
LINE
  8
0
 10
7.14079
 20
23.7719
 11
7.17929
 21
23.6712
  0
LINE
  8
0
 10
7.17929
 20
23.6712
 11
7.18583
 21
23.654
  0
LINE
  8
0
 10
7.18583
 20
23.654
 11
7.2339
 21
23.569
  0
LINE
  8
0
 10
7.2339
 20
23.569
 11
7.24732
 21
23.5452
  0
LINE
  8
0
 10
7.24732
 20
23.5452
 11
7.30162
 21
23.4763
  0
LINE
  8
0
 10
7.30162
 20
23.4763
 11
7.32376
 21
23.4482
  0
LINE
  8
0
 10
7.32376
 20
23.4482
 11
7.38132
 21
23.3949
  0
LINE
  8
0
 10
7.38132
 20
23.3949
 11
7.41325
 21
23.3653
  0
LINE
  8
0
 10
7.41325
 20
23.3653
 11
7.47176
 21
23.3264
  0
LINE
  8
0
 10
7.47176
 20
23.3264
 11
7.51359
 21
23.2987
  0
LINE
  8
0
 10
7.51359
 20
23.2987
 11
7.57156
 21
23.2726
  0
LINE
  8
0
 10
7.57156
 20
23.2726
 11
7.62232
 21
23.2498
  0
LINE
  8
0
 10
7.62232
 20
23.2498
 11
7.67912
 21
23.235
  0
LINE
  8
0
 10
7.67912
 20
23.235
 11
7.73676
 21
23.22
  0
LINE
  8
0
 10
7.73676
 20
23.22
 11
7.79256
 21
23.2153
  0
LINE
  8
0
 10
7.79256
 20
23.2153
 11
7.85409
 21
23.21
  0
LINE
  8
0
 10
7.85409
 20
23.21
 11
11
 21
23.21
  0
LINE
  8
0
 10
11
 20
23.21
 11
11
 21
27.1563
  0
LINE
  8
0
 10
11
 20
27.1563
 11
7.85409
 21
27.1563
  0
LINE
  8
0
 10
7.85409
 20
27.1563
 11
7.73676
 21
27.1428
  0
LINE
  8
0
 10
7.73676
 20
27.1428
 11
7.7274
 21
27.1395
  0
LINE
  8
0
 10
7.7274
 20
27.1395
 11
7.62232
 21
27.1026
  0
LINE
  8
0
 10
7.62232
 20
27.1026
 11
7.61326
 21
27.0971
  0
LINE
  8
0
 10
7.61326
 20
27.0971
 11
7.51359
 21
27.0367
  0
LINE
  8
0
 10
7.51359
 20
27.0367
 11
7.50498
 21
27.029
  0
LINE
  8
0
 10
7.50498
 20
27.029
 11
7.41325
 21
26.9467
  0
LINE
  8
0
 10
7.41325
 20
26.9467
 11
7.40527
 21
26.9368
  0
LINE
  8
0
 10
7.40527
 20
26.9368
 11
7.32376
 21
26.8349
  0
LINE
  8
0
 10
7.32376
 20
26.8349
 11
7.31662
 21
26.8227
  0
LINE
  8
0
 10
7.31662
 20
26.8227
 11
7.24732
 21
26.704
  0
LINE
  8
0
 10
7.24732
 20
26.704
 11
7.24129
 21
26.6895
  0
LINE
  8
0
 10
7.24129
 20
26.6895
 11
7.18583
 21
26.5571
  0
LINE
  8
0
 10
7.18583
 20
26.5571
 11
7.18116
 21
26.5407
  0
LINE
  8
0
 10
7.18116
 20
26.5407
 11
7.14079
 21
26.3981
  0
LINE
  8
0
 10
7.14079
 20
26.3981
 11
7.13779
 21
26.3797
  0
LINE
  8
0
 10
7.13779
 20
26.3797
 11
7.11332
 21
26.2306
  0
LINE
  8
0
 10
7.11332
 20
26.2306
 11
7.11225
 21
26.2108
  0
LINE
  8
0
 10
7.11225
 20
26.2108
 11
7.10409
 21
26.0589
  0
LINE
  8
0
 10
7.10409
 20
26.0589
 11
7.10409
 21
24.0165
  0
LINE
  8
0
 10
36.5
 20
0
 11
42.0543
 21
0
  0
LINE
  8
0
 10
42.0543
 20
0
 11
42.0543
 21
4
  0
LINE
  8
0
 10
42.0543
 20
4
 11
41
 21
4
  0
LINE
  8
0
 10
41
 20
4
 11
41
 21
4.89591
  0
LINE
  8
0
 10
41
 20
4.89591
 11
40.3959
 21
5.5
  0
LINE
  8
0
 10
40.3959
 20
5.5
 11
40.3959
 21
15.109
  0
LINE
  8
0
 10
40.3959
 20
15.109
 11
40.3914
 21
15.1925
  0
LINE
  8
0
 10
40.3914
 20
15.1925
 11
40.3867
 21
15.2806
  0
LINE
  8
0
 10
40.3867
 20
15.2806
 11
40.3737
 21
15.36
  0
LINE
  8
0
 10
40.3737
 20
15.36
 11
40.3592
 21
15.4481
  0
LINE
  8
0
 10
40.3592
 20
15.4481
 11
40.3384
 21
15.5216
  0
LINE
  8
0
 10
40.3384
 20
15.5216
 11
40.3142
 21
15.6072
  0
LINE
  8
0
 10
40.3142
 20
15.6072
 11
40.2864
 21
15.6734
  0
LINE
  8
0
 10
40.2864
 20
15.6734
 11
40.2527
 21
15.754
  0
LINE
  8
0
 10
40.2527
 20
15.754
 11
40.219
 21
15.8117
  0
LINE
  8
0
 10
40.219
 20
15.8117
 11
40.1762
 21
15.8849
  0
LINE
  8
0
 10
40.1762
 20
15.8849
 11
40.1376
 21
15.9333
  0
LINE
  8
0
 10
40.1376
 20
15.9333
 11
40.0868
 21
15.9968
  0
LINE
  8
0
 10
40.0868
 20
15.9968
 11
39.9864
 21
16.0867
  0
LINE
  8
0
 10
39.9864
 20
16.0867
 11
39.9408
 21
16.1143
  0
LINE
  8
0
 10
39.9408
 20
16.1143
 11
39.8777
 21
16.1526
  0
LINE
  8
0
 10
39.8777
 20
16.1526
 11
39.8302
 21
16.1693
  0
LINE
  8
0
 10
39.8302
 20
16.1693
 11
39.7632
 21
16.1928
  0
LINE
  8
0
 10
39.7632
 20
16.1928
 11
39.7148
 21
16.1984
  0
LINE
  8
0
 10
39.7148
 20
16.1984
 11
39.6459
 21
16.2063
  0
LINE
  8
0
 10
39.6459
 20
16.2063
 11
36.5
 21
16.2063
  0
LINE
  8
0
 10
36.5
 20
16.2063
 11
36.5
 21
0
  0
LINE
  8
0
 10
36.5
 20
23.21
 11
39.6459
 21
23.21
  0
LINE
  8
0
 10
39.6459
 20
23.21
 11
39.7014
 21
23.2148
  0
LINE
  8
0
 10
39.7014
 20
23.2148
 11
39.7632
 21
23.22
  0
LINE
  8
0
 10
39.7632
 20
23.22
 11
39.8194
 21
23.2346
  0
LINE
  8
0
 10
39.8194
 20
23.2346
 11
39.8777
 21
23.2498
  0
LINE
  8
0
 10
39.8777
 20
23.2498
 11
39.935
 21
23.2756
  0
LINE
  8
0
 10
39.935
 20
23.2756
 11
39.9864
 21
23.2987
  0
LINE
  8
0
 10
39.9864
 20
23.2987
 11
40.0447
 21
23.3374
  0
LINE
  8
0
 10
40.0447
 20
23.3374
 11
40.0868
 21
23.3653
  0
LINE
  8
0
 10
40.0868
 20
23.3653
 11
40.145
 21
23.4192
  0
LINE
  8
0
 10
40.145
 20
23.4192
 11
40.1762
 21
23.4482
  0
LINE
  8
0
 10
40.1762
 20
23.4482
 11
40.2321
 21
23.5191
  0
LINE
  8
0
 10
40.2321
 20
23.5191
 11
40.2527
 21
23.5452
  0
LINE
  8
0
 10
40.2527
 20
23.5452
 11
40.303
 21
23.6343
  0
LINE
  8
0
 10
40.303
 20
23.6343
 11
40.3142
 21
23.654
  0
LINE
  8
0
 10
40.3142
 20
23.654
 11
40.3551
 21
23.7612
  0
LINE
  8
0
 10
40.3551
 20
23.7612
 11
40.3592
 21
23.7719
  0
LINE
  8
0
 10
40.3592
 20
23.7719
 11
40.3866
 21
23.8958
  0
LINE
  8
0
 10
40.3866
 20
23.8958
 11
40.3867
 21
23.896
  0
LINE
  8
0
 10
40.3867
 20
23.896
 11
40.3869
 21
23.8991
  0
LINE
  8
0
 10
40.3869
 20
23.8991
 11
40.3959
 21
24.0165
  0
LINE
  8
0
 10
40.3959
 20
24.0165
 11
40.3959
 21
26.0589
  0
LINE
  8
0
 10
40.3959
 20
26.0589
 11
40.3948
 21
26.0796
  0
LINE
  8
0
 10
40.3948
 20
26.0796
 11
40.3867
 21
26.2306
  0
LINE
  8
0
 10
40.3867
 20
26.2306
 11
40.3835
 21
26.2497
  0
LINE
  8
0
 10
40.3835
 20
26.2497
 11
40.3592
 21
26.3981
  0
LINE
  8
0
 10
40.3592
 20
26.3981
 11
40.3543
 21
26.4153
  0
LINE
  8
0
 10
40.3543
 20
26.4153
 11
40.3142
 21
26.5571
  0
LINE
  8
0
 10
40.3142
 20
26.5571
 11
40.3079
 21
26.5722
  0
LINE
  8
0
 10
40.3079
 20
26.5722
 11
40.2527
 21
26.704
  0
LINE
  8
0
 10
40.2527
 20
26.704
 11
40.2452
 21
26.7167
  0
LINE
  8
0
 10
40.2452
 20
26.7167
 11
40.1762
 21
26.8349
  0
LINE
  8
0
 10
40.1762
 20
26.8349
 11
40.168
 21
26.8453
  0
LINE
  8
0
 10
40.168
 20
26.8453
 11
40.0868
 21
26.9467
  0
LINE
  8
0
 10
40.0868
 20
26.9467
 11
40.0779
 21
26.9547
  0
LINE
  8
0
 10
40.0779
 20
26.9547
 11
39.9864
 21
27.0367
  0
LINE
  8
0
 10
39.9864
 20
27.0367
 11
39.9771
 21
27.0423
  0
LINE
  8
0
 10
39.9771
 20
27.0423
 11
39.8777
 21
27.1026
  0
LINE
  8
0
 10
39.8777
 20
27.1026
 11
39.8682
 21
27.106
  0
LINE
  8
0
 10
39.8682
 20
27.106
 11
39.7632
 21
27.1428
  0
LINE
  8
0
 10
39.7632
 20
27.1428
 11
39.6459
 21
27.1563
  0
LINE
  8
0
 10
39.6459
 20
27.1563
 11
36.5
 21
27.1563
  0
LINE
  8
0
 10
36.5
 20
27.1563
 11
36.5
 21
23.21
  0
LINE
  8
0
 10
36.5
 20
32.4381
 11
39.6459
 21
32.4381
  0
LINE
  8
0
 10
39.6459
 20
32.4381
 11
39.7285
 21
32.4448
  0
LINE
  8
0
 10
39.7285
 20
32.4448
 11
39.7632
 21
32.4476
  0
LINE
  8
0
 10
39.7632
 20
32.4476
 11
39.8419
 21
32.467
  0
LINE
  8
0
 10
39.8419
 20
32.467
 11
39.8777
 21
32.4759
  0
LINE
  8
0
 10
39.8777
 20
32.4759
 11
39.9493
 21
32.5065
  0
LINE
  8
0
 10
39.9493
 20
32.5065
 11
39.9864
 21
32.5223
  0
LINE
  8
0
 10
39.9864
 20
32.5223
 11
40.0488
 21
32.5617
  0
LINE
  8
0
 10
40.0488
 20
32.5617
 11
40.0868
 21
32.5856
  0
LINE
  8
0
 10
40.0868
 20
32.5856
 11
40.1384
 21
32.6311
  0
LINE
  8
0
 10
40.1384
 20
32.6311
 11
40.1762
 21
32.6644
  0
LINE
  8
0
 10
40.1762
 20
32.6644
 11
40.2166
 21
32.7131
  0
LINE
  8
0
 10
40.2166
 20
32.7131
 11
40.2527
 21
32.7566
  0
LINE
  8
0
 10
40.2527
 20
32.7566
 11
40.282
 21
32.8059
  0
LINE
  8
0
 10
40.282
 20
32.8059
 11
40.3142
 21
32.86
  0
LINE
  8
0
 10
40.3142
 20
32.86
 11
40.3333
 21
32.9075
  0
LINE
  8
0
 10
40.3333
 20
32.9075
 11
40.3592
 21
32.972
  0
LINE
  8
0
 10
40.3592
 20
32.972
 11
40.3694
 21
33.0159
  0
LINE
  8
0
 10
40.3694
 20
33.0159
 11
40.3867
 21
33.0899
  0
LINE
  8
0
 10
40.3867
 20
33.0899
 11
40.3897
 21
33.1289
  0
LINE
  8
0
 10
40.3897
 20
33.1289
 11
40.3959
 21
33.2108
  0
LINE
  8
0
 10
40.3959
 20
33.2108
 11
40.3959
 21
40
  0
LINE
  8
0
 10
40.3959
 20
40
 11
41
 21
40.6041
  0
LINE
  8
0
 10
41
 20
40.6041
 11
41
 21
41.5
  0
LINE
  8
0
 10
41
 20
41.5
 11
42.0543
 21
41.5
  0
LINE
  8
0
 10
42.0543
 20
41.5
 11
42.0543
 21
45.5
  0
LINE
  8
0
 10
42.0543
 20
45.5
 11
36.5
 21
45.5
  0
LINE
  8
0
 10
36.5
 20
45.5
 11
36.5
 21
32.4381
  0
LINE
  8
0
 10
45.4439
 20
4
 11
45.4479
 21
1.38722
  0
LINE
  8
0
 10
45.4479
 20
1.38722
 11
45.4479
 21
0
  0
LINE
  8
0
 10
45.4479
 20
0
 11
47.5
 21
0
  0
LINE
  8
0
 10
47.5
 20
0
 11
47.5
 21
3.5
  0
LINE
  8
0
 10
47.5
 20
3.5
 11
47
 21
4
  0
LINE
  8
0
 10
47
 20
4
 11
45.4439
 21
4
  0
LINE
  8
0
 10
45.4479
 20
41.5
 11
47
 21
41.5
  0
LINE
  8
0
 10
47
 20
41.5
 11
47.5
 21
42
  0
LINE
  8
0
 10
47.5
 20
42
 11
47.5
 21
45.5
  0
LINE
  8
0
 10
47.5
 20
45.5
 11
45.4479
 21
45.5
  0
LINE
  8
0
 10
45.4479
 20
45.5
 11
45.4479
 21
41.5
  0
ENDSEC
  0
SECTION
  2
OBJECTS
  0
DICTIONARY
  0
ENDSEC
  0
EOF
