  0
SECTION
  2
BLOCKS
  0
ENDSEC
  0
SECTION
  2
ENTITIES
  0
LINE
  8
0
 10
0
 20
0
 11
2.07128
 21
0
  0
LINE
  8
0
 10
2.07128
 20
0
 11
2.07128
 21
4
  0
LINE
  8
0
 10
2.07128
 20
4
 11
0.499999
 21
4
  0
LINE
  8
0
 10
0.499999
 20
4
 11
0
 21
3.5
  0
LINE
  8
0
 10
0
 20
3.5
 11
0
 21
0
  0
LINE
  8
0
 10
0
 20
42
 11
0.499999
 21
41.5
  0
LINE
  8
0
 10
0.499999
 20
41.5
 11
2.07128
 21
41.5
  0
LINE
  8
0
 10
2.07128
 20
41.5
 11
2.07128
 21
45.5
  0
LINE
  8
0
 10
2.07128
 20
45.5
 11
0
 21
45.5
  0
LINE
  8
0
 10
0
 20
45.5
 11
0
 21
42
  0
LINE
  8
0
 10
5.42573
 20
0
 11
11
 21
0
  0
LINE
  8
0
 10
11
 20
0
 11
11
 21
15.9927
  0
LINE
  8
0
 10
11
 20
15.9927
 11
7.85409
 21
15.9927
  0
LINE
  8
0
 10
7.85409
 20
15.9927
 11
7.80222
 21
15.9867
  0
LINE
  8
0
 10
7.80222
 20
15.9867
 11
7.73676
 21
15.9792
  0
LINE
  8
0
 10
7.73676
 20
15.9792
 11
7.68596
 21
15.9614
  0
LINE
  8
0
 10
7.68596
 20
15.9614
 11
7.62232
 21
15.939
  0
LINE
  8
0
 10
7.62232
 20
15.939
 11
7.57365
 21
15.9095
  0
LINE
  8
0
 10
7.57365
 20
15.9095
 11
7.51359
 21
15.8731
  0
LINE
  8
0
 10
7.51359
 20
15.8731
 11
7.41325
 21
15.7831
  0
LINE
  8
0
 10
7.41325
 20
15.7831
 11
7.37202
 21
15.7316
  0
LINE
  8
0
 10
7.37202
 20
15.7316
 11
7.32376
 21
15.6713
  0
LINE
  8
0
 10
7.32376
 20
15.6713
 11
7.28787
 21
15.6098
  0
LINE
  8
0
 10
7.28787
 20
15.6098
 11
7.24732
 21
15.5404
  0
LINE
  8
0
 10
7.24732
 20
15.5404
 11
7.21782
 21
15.4699
  0
LINE
  8
0
 10
7.21782
 20
15.4699
 11
7.18583
 21
15.3935
  0
LINE
  8
0
 10
7.18583
 20
15.3935
 11
7.16372
 21
15.3154
  0
LINE
  8
0
 10
7.16372
 20
15.3154
 11
7.14079
 21
15.2344
  0
LINE
  8
0
 10
7.14079
 20
15.2344
 11
7.12697
 21
15.1502
  0
LINE
  8
0
 10
7.12697
 20
15.1502
 11
7.11332
 21
15.067
  0
LINE
  8
0
 10
7.11332
 20
15.067
 11
7.10856
 21
14.9785
  0
LINE
  8
0
 10
7.10856
 20
14.9785
 11
7.10409
 21
14.8953
  0
LINE
  8
0
 10
7.10409
 20
14.8953
 11
7.10409
 21
5.5
  0
LINE
  8
0
 10
7.10409
 20
5.5
 11
6.5
 21
4.89591
  0
LINE
  8
0
 10
6.5
 20
4.89591
 11
6.5
 21
4
  0
LINE
  8
0
 10
6.5
 20
4
 11
5.42573
 21
4
  0
LINE
  8
0
 10
5.42573
 20
4
 11
5.42573
 21
0
  0
LINE
  8
0
 10
5.42573
 20
41.5
 11
6.5
 21
41.5
  0
LINE
  8
0
 10
6.5
 20
41.5
 11
6.5
 21
40.6041
  0
LINE
  8
0
 10
6.5
 20
40.6041
 11
7.10409
 21
40
  0
LINE
  8
0
 10
7.10409
 20
40
 11
7.10409
 21
33.2553
  0
LINE
  8
0
 10
7.10409
 20
33.2553
 11
7.11285
 21
33.1438
  0
LINE
  8
0
 10
7.11285
 20
33.1438
 11
7.11332
 21
33.1379
  0
LINE
  8
0
 10
7.11332
 20
33.1379
 11
7.14045
 21
33.0248
  0
LINE
  8
0
 10
7.14045
 20
33.0248
 11
7.14079
 21
33.0234
  0
LINE
  8
0
 10
7.14079
 20
33.0234
 11
7.15589
 21
32.9869
  0
LINE
  8
0
 10
7.15589
 20
32.9869
 11
7.18583
 21
32.9124
  0
LINE
  8
0
 10
7.18583
 20
32.9124
 11
7.18761
 21
32.9094
  0
LINE
  8
0
 10
7.18761
 20
32.9094
 11
7.24732
 21
32.809
  0
LINE
  8
0
 10
7.24732
 20
32.809
 11
7.25277
 21
32.8025
  0
LINE
  8
0
 10
7.25277
 20
32.8025
 11
7.32376
 21
32.7168
  0
LINE
  8
0
 10
7.32376
 20
32.7168
 11
7.33367
 21
32.7081
  0
LINE
  8
0
 10
7.33367
 20
32.7081
 11
7.41325
 21
32.6381
  0
LINE
  8
0
 10
7.41325
 20
32.6381
 11
7.42787
 21
32.6288
  0
LINE
  8
0
 10
7.42787
 20
32.6288
 11
7.51359
 21
32.5747
  0
LINE
  8
0
 10
7.51359
 20
32.5747
 11
7.53251
 21
32.5666
  0
LINE
  8
0
 10
7.53251
 20
32.5666
 11
7.62232
 21
32.5283
  0
LINE
  8
0
 10
7.62232
 20
32.5283
 11
7.64455
 21
32.5228
  0
LINE
  8
0
 10
7.64455
 20
32.5228
 11
7.73676
 21
32.5
  0
LINE
  8
0
 10
7.73676
 20
32.5
 11
7.76086
 21
32.4981
  0
LINE
  8
0
 10
7.76086
 20
32.4981
 11
7.85409
 21
32.4905
  0
LINE
  8
0
 10
7.85409
 20
32.4905
 11
11
 21
32.4905
  0
LINE
  8
0
 10
11
 20
32.4905
 11
11
 21
45.5
  0
LINE
  8
0
 10
11
 20
45.5
 11
5.42573
 21
45.5
  0
LINE
  8
0
 10
5.42573
 20
45.5
 11
5.42573
 21
41.5
  0
LINE
  8
0
 10
7.10409
 20
23.9375
 11
7.10982
 21
23.8585
  0
LINE
  8
0
 10
7.10982
 20
23.8585
 11
7.11332
 21
23.8103
  0
LINE
  8
0
 10
7.11332
 20
23.8103
 11
7.12806
 21
23.7437
  0
LINE
  8
0
 10
7.12806
 20
23.7437
 11
7.14079
 21
23.6862
  0
LINE
  8
0
 10
7.14079
 20
23.6862
 11
7.161
 21
23.6333
  0
LINE
  8
0
 10
7.161
 20
23.6333
 11
7.18583
 21
23.5683
  0
LINE
  8
0
 10
7.18583
 20
23.5683
 11
7.20792
 21
23.5292
  0
LINE
  8
0
 10
7.20792
 20
23.5292
 11
7.24732
 21
23.4595
  0
LINE
  8
0
 10
7.24732
 20
23.4595
 11
7.26801
 21
23.4332
  0
LINE
  8
0
 10
7.26801
 20
23.4332
 11
7.32376
 21
23.3625
  0
LINE
  8
0
 10
7.32376
 20
23.3625
 11
7.34037
 21
23.3471
  0
LINE
  8
0
 10
7.34037
 20
23.3471
 11
7.41325
 21
23.2796
  0
LINE
  8
0
 10
7.41325
 20
23.2796
 11
7.42406
 21
23.2724
  0
LINE
  8
0
 10
7.42406
 20
23.2724
 11
7.51359
 21
23.2129
  0
LINE
  8
0
 10
7.51359
 20
23.2129
 11
7.51802
 21
23.2109
  0
LINE
  8
0
 10
7.51802
 20
23.2109
 11
7.59873
 21
23.1747
  0
LINE
  8
0
 10
7.59873
 20
23.1747
 11
7.62101
 21
23.1638
  0
LINE
  8
0
 10
7.62101
 20
23.1638
 11
7.62232
 21
23.1631
  0
LINE
  8
0
 10
7.62232
 20
23.1631
 11
7.7313
 21
23.1321
  0
LINE
  8
0
 10
7.7313
 20
23.1321
 11
7.73676
 21
23.1306
  0
LINE
  8
0
 10
7.73676
 20
23.1306
 11
7.84685
 21
23.1203
  0
LINE
  8
0
 10
7.84685
 20
23.1203
 11
7.85409
 21
23.1197
  0
LINE
  8
0
 10
7.85409
 20
23.1197
 11
11
 21
23.1197
  0
LINE
  8
0
 10
11
 20
23.1197
 11
11
 21
26.9427
  0
LINE
  8
0
 10
11
 20
26.9427
 11
7.85409
 21
26.9427
  0
LINE
  8
0
 10
7.85409
 20
26.9427
 11
7.73676
 21
26.9292
  0
LINE
  8
0
 10
7.73676
 20
26.9292
 11
7.72573
 21
26.9253
  0
LINE
  8
0
 10
7.72573
 20
26.9253
 11
7.62232
 21
26.889
  0
LINE
  8
0
 10
7.62232
 20
26.889
 11
7.61167
 21
26.8825
  0
LINE
  8
0
 10
7.61167
 20
26.8825
 11
7.51359
 21
26.8231
  0
LINE
  8
0
 10
7.51359
 20
26.8231
 11
7.50351
 21
26.814
  0
LINE
  8
0
 10
7.50351
 20
26.814
 11
7.41325
 21
26.7331
  0
LINE
  8
0
 10
7.41325
 20
26.7331
 11
7.40395
 21
26.7215
  0
LINE
  8
0
 10
7.40395
 20
26.7215
 11
7.32376
 21
26.6213
  0
LINE
  8
0
 10
7.32376
 20
26.6213
 11
7.3155
 21
26.6071
  0
LINE
  8
0
 10
7.3155
 20
26.6071
 11
7.24732
 21
26.4903
  0
LINE
  8
0
 10
7.24732
 20
26.4903
 11
7.24038
 21
26.4738
  0
LINE
  8
0
 10
7.24038
 20
26.4738
 11
7.18583
 21
26.3435
  0
LINE
  8
0
 10
7.18583
 20
26.3435
 11
7.1805
 21
26.3247
  0
LINE
  8
0
 10
7.1805
 20
26.3247
 11
7.14079
 21
26.1844
  0
LINE
  8
0
 10
7.14079
 20
26.1844
 11
7.13738
 21
26.1636
  0
LINE
  8
0
 10
7.13738
 20
26.1636
 11
7.11332
 21
26.017
  0
LINE
  8
0
 10
7.11332
 20
26.017
 11
7.11212
 21
25.9946
  0
LINE
  8
0
 10
7.11212
 20
25.9946
 11
7.10409
 21
25.8453
  0
LINE
  8
0
 10
7.10409
 20
25.8453
 11
7.10409
 21
23.9375
  0
LINE
  8
0
 10
36.5
 20
0
 11
42.0713
 21
0
  0
LINE
  8
0
 10
42.0713
 20
0
 11
42.0713
 21
4
  0
LINE
  8
0
 10
42.0713
 20
4
 11
41
 21
4
  0
LINE
  8
0
 10
41
 20
4
 11
41
 21
4.89591
  0
LINE
  8
0
 10
41
 20
4.89591
 11
40.3959
 21
5.5
  0
LINE
  8
0
 10
40.3959
 20
5.5
 11
40.3959
 21
14.8953
  0
LINE
  8
0
 10
40.3959
 20
14.8953
 11
40.3912
 21
14.9838
  0
LINE
  8
0
 10
40.3912
 20
14.9838
 11
40.3867
 21
15.067
  0
LINE
  8
0
 10
40.3867
 20
15.067
 11
40.3729
 21
15.1512
  0
LINE
  8
0
 10
40.3729
 20
15.1512
 11
40.3592
 21
15.2344
  0
LINE
  8
0
 10
40.3592
 20
15.2344
 11
40.3371
 21
15.3126
  0
LINE
  8
0
 10
40.3371
 20
15.3126
 11
40.3142
 21
15.3935
  0
LINE
  8
0
 10
40.3142
 20
15.3935
 11
40.2846
 21
15.464
  0
LINE
  8
0
 10
40.2846
 20
15.464
 11
40.2527
 21
15.5404
  0
LINE
  8
0
 10
40.2527
 20
15.5404
 11
40.2167
 21
15.6019
  0
LINE
  8
0
 10
40.2167
 20
15.6019
 11
40.1762
 21
15.6713
  0
LINE
  8
0
 10
40.1762
 20
15.6713
 11
40.135
 21
15.7229
  0
LINE
  8
0
 10
40.135
 20
15.7229
 11
40.0868
 21
15.7831
  0
LINE
  8
0
 10
40.0868
 20
15.7831
 11
39.9864
 21
15.8731
  0
LINE
  8
0
 10
39.9864
 20
15.8731
 11
39.9377
 21
15.9026
  0
LINE
  8
0
 10
39.9377
 20
15.9026
 11
39.8777
 21
15.939
  0
LINE
  8
0
 10
39.8777
 20
15.939
 11
39.8268
 21
15.9569
  0
LINE
  8
0
 10
39.8268
 20
15.9569
 11
39.7632
 21
15.9792
  0
LINE
  8
0
 10
39.7632
 20
15.9792
 11
39.7114
 21
15.9852
  0
LINE
  8
0
 10
39.7114
 20
15.9852
 11
39.6459
 21
15.9927
  0
LINE
  8
0
 10
39.6459
 20
15.9927
 11
36.5
 21
15.9927
  0
LINE
  8
0
 10
36.5
 20
15.9927
 11
36.5
 21
0
  0
LINE
  8
0
 10
36.5
 20
23.1197
 11
39.6459
 21
23.1197
  0
LINE
  8
0
 10
39.6459
 20
23.1197
 11
39.7573
 21
23.13
  0
LINE
  8
0
 10
39.7573
 20
23.13
 11
39.7632
 21
23.1306
  0
LINE
  8
0
 10
39.7632
 20
23.1306
 11
39.8761
 21
23.1627
  0
LINE
  8
0
 10
39.8761
 20
23.1627
 11
39.8777
 21
23.1631
  0
LINE
  8
0
 10
39.8777
 20
23.1631
 11
39.9013
 21
23.1747
  0
LINE
  8
0
 10
39.9013
 20
23.1747
 11
39.9864
 21
23.2129
  0
LINE
  8
0
 10
39.9864
 20
23.2129
 11
39.9909
 21
23.2159
  0
LINE
  8
0
 10
39.9909
 20
23.2159
 11
40.0868
 21
23.2796
  0
LINE
  8
0
 10
40.0868
 20
23.2796
 11
40.0975
 21
23.2896
  0
LINE
  8
0
 10
40.0975
 20
23.2896
 11
40.1762
 21
23.3625
  0
LINE
  8
0
 10
40.1762
 20
23.3625
 11
40.1924
 21
23.3829
  0
LINE
  8
0
 10
40.1924
 20
23.3829
 11
40.2527
 21
23.4595
  0
LINE
  8
0
 10
40.2527
 20
23.4595
 11
40.2719
 21
23.4934
  0
LINE
  8
0
 10
40.2719
 20
23.4934
 11
40.3142
 21
23.5683
  0
LINE
  8
0
 10
40.3142
 20
23.5683
 11
40.333
 21
23.6175
  0
LINE
  8
0
 10
40.333
 20
23.6175
 11
40.3592
 21
23.6862
  0
LINE
  8
0
 10
40.3592
 20
23.6862
 11
40.3736
 21
23.7512
  0
LINE
  8
0
 10
40.3736
 20
23.7512
 11
40.3867
 21
23.8103
  0
LINE
  8
0
 10
40.3867
 20
23.8103
 11
40.3925
 21
23.89
  0
LINE
  8
0
 10
40.3925
 20
23.89
 11
40.3959
 21
23.9375
  0
LINE
  8
0
 10
40.3959
 20
23.9375
 11
40.3959
 21
25.8453
  0
LINE
  8
0
 10
40.3959
 20
25.8453
 11
40.3947
 21
25.8685
  0
LINE
  8
0
 10
40.3947
 20
25.8685
 11
40.3867
 21
26.017
  0
LINE
  8
0
 10
40.3867
 20
26.017
 11
40.3831
 21
26.0386
  0
LINE
  8
0
 10
40.3831
 20
26.0386
 11
40.3592
 21
26.1844
  0
LINE
  8
0
 10
40.3592
 20
26.1844
 11
40.3537
 21
26.204
  0
LINE
  8
0
 10
40.3537
 20
26.204
 11
40.3142
 21
26.3435
  0
LINE
  8
0
 10
40.3142
 20
26.3435
 11
40.307
 21
26.3607
  0
LINE
  8
0
 10
40.307
 20
26.3607
 11
40.2527
 21
26.4903
  0
LINE
  8
0
 10
40.2527
 20
26.4903
 11
40.2441
 21
26.505
  0
LINE
  8
0
 10
40.2441
 20
26.505
 11
40.1762
 21
26.6213
  0
LINE
  8
0
 10
40.1762
 20
26.6213
 11
40.1667
 21
26.6333
  0
LINE
  8
0
 10
40.1667
 20
26.6333
 11
40.0868
 21
26.7331
  0
LINE
  8
0
 10
40.0868
 20
26.7331
 11
40.0764
 21
26.7424
  0
LINE
  8
0
 10
40.0764
 20
26.7424
 11
39.9864
 21
26.8231
  0
LINE
  8
0
 10
39.9864
 20
26.8231
 11
39.9755
 21
26.8297
  0
LINE
  8
0
 10
39.9755
 20
26.8297
 11
39.8777
 21
26.889
  0
LINE
  8
0
 10
39.8777
 20
26.889
 11
39.8665
 21
26.8929
  0
LINE
  8
0
 10
39.8665
 20
26.8929
 11
39.7632
 21
26.9292
  0
LINE
  8
0
 10
39.7632
 20
26.9292
 11
39.6459
 21
26.9427
  0
LINE
  8
0
 10
39.6459
 20
26.9427
 11
36.5
 21
26.9427
  0
LINE
  8
0
 10
36.5
 20
26.9427
 11
36.5
 21
23.1197
  0
LINE
  8
0
 10
36.5
 20
32.4905
 11
39.6459
 21
32.4905
  0
LINE
  8
0
 10
39.6459
 20
32.4905
 11
39.6702
 21
32.4925
  0
LINE
  8
0
 10
39.6702
 20
32.4925
 11
39.7632
 21
32.5
  0
LINE
  8
0
 10
39.7632
 20
32.5
 11
39.786
 21
32.5057
  0
LINE
  8
0
 10
39.786
 20
32.5057
 11
39.8777
 21
32.5283
  0
LINE
  8
0
 10
39.8777
 20
32.5283
 11
39.8976
 21
32.5368
  0
LINE
  8
0
 10
39.8976
 20
32.5368
 11
39.9864
 21
32.5747
  0
LINE
  8
0
 10
39.9864
 20
32.5747
 11
40.0024
 21
32.5848
  0
LINE
  8
0
 10
40.0024
 20
32.5848
 11
40.0868
 21
32.6381
  0
LINE
  8
0
 10
40.0868
 20
32.6381
 11
40.0985
 21
32.6484
  0
LINE
  8
0
 10
40.0985
 20
32.6484
 11
40.1762
 21
32.7168
  0
LINE
  8
0
 10
40.1762
 20
32.7168
 11
40.1837
 21
32.7258
  0
LINE
  8
0
 10
40.1837
 20
32.7258
 11
40.2527
 21
32.809
  0
LINE
  8
0
 10
40.2527
 20
32.809
 11
40.2565
 21
32.8154
  0
LINE
  8
0
 10
40.2565
 20
32.8154
 11
40.3142
 21
32.9124
  0
LINE
  8
0
 10
40.3142
 20
32.9124
 11
40.3153
 21
32.9152
  0
LINE
  8
0
 10
40.3153
 20
32.9152
 11
40.3441
 21
32.9869
  0
LINE
  8
0
 10
40.3441
 20
32.9869
 11
40.3586
 21
33.022
  0
LINE
  8
0
 10
40.3586
 20
33.022
 11
40.3592
 21
33.0234
  0
LINE
  8
0
 10
40.3592
 20
33.0234
 11
40.3853
 21
33.1321
  0
LINE
  8
0
 10
40.3853
 20
33.1321
 11
40.3867
 21
33.1379
  0
LINE
  8
0
 10
40.3867
 20
33.1379
 11
40.3951
 21
33.2451
  0
LINE
  8
0
 10
40.3951
 20
33.2451
 11
40.3959
 21
33.2553
  0
LINE
  8
0
 10
40.3959
 20
33.2553
 11
40.3959
 21
40
  0
LINE
  8
0
 10
40.3959
 20
40
 11
41
 21
40.6041
  0
LINE
  8
0
 10
41
 20
40.6041
 11
41
 21
41.5
  0
LINE
  8
0
 10
41
 20
41.5
 11
42.0713
 21
41.5
  0
LINE
  8
0
 10
42.0713
 20
41.5
 11
42.0713
 21
45.5
  0
LINE
  8
0
 10
42.0713
 20
45.5
 11
36.5
 21
45.5
  0
LINE
  8
0
 10
36.5
 20
45.5
 11
36.5
 21
32.4905
  0
LINE
  8
0
 10
45.4257
 20
0
 11
47.5
 21
0
  0
LINE
  8
0
 10
47.5
 20
0
 11
47.5
 21
3.5
  0
LINE
  8
0
 10
47.5
 20
3.5
 11
47
 21
4
  0
LINE
  8
0
 10
47
 20
4
 11
45.4257
 21
4
  0
LINE
  8
0
 10
45.4257
 20
4
 11
45.4257
 21
0
  0
LINE
  8
0
 10
45.4257
 20
41.5
 11
47
 21
41.5
  0
LINE
  8
0
 10
47
 20
41.5
 11
47.5
 21
42
  0
LINE
  8
0
 10
47.5
 20
42
 11
47.5
 21
45.5
  0
LINE
  8
0
 10
47.5
 20
45.5
 11
45.4257
 21
45.5
  0
LINE
  8
0
 10
45.4257
 20
45.5
 11
45.4257
 21
41.5
  0
ENDSEC
  0
SECTION
  2
OBJECTS
  0
DICTIONARY
  0
ENDSEC
  0
EOF
