  0
SECTION
  2
BLOCKS
  0
ENDSEC
  0
SECTION
  2
ENTITIES
  0
LINE
  8
0
 10
0
 20
0
 11
2.11682
 21
0
  0
LINE
  8
0
 10
2.11682
 20
0
 11
2.11682
 21
4
  0
LINE
  8
0
 10
2.11682
 20
4
 11
0.499999
 21
4
  0
LINE
  8
0
 10
0.499999
 20
4
 11
0
 21
3.5
  0
LINE
  8
0
 10
0
 20
3.5
 11
0
 21
0
  0
LINE
  8
0
 10
0
 20
42
 11
0.499999
 21
41.5
  0
LINE
  8
0
 10
0.499999
 20
41.5
 11
2.11682
 21
41.5
  0
LINE
  8
0
 10
2.11682
 20
41.5
 11
2.11682
 21
45.5
  0
LINE
  8
0
 10
2.11682
 20
45.5
 11
0
 21
45.5
  0
LINE
  8
0
 10
0
 20
45.5
 11
0
 21
42
  0
LINE
  8
0
 10
5.3875
 20
0
 11
11
 21
0
  0
LINE
  8
0
 10
11
 20
0
 11
11
 21
15.7791
  0
LINE
  8
0
 10
11
 20
15.7791
 11
7.85409
 21
15.7791
  0
LINE
  8
0
 10
7.85409
 20
15.7791
 11
7.79879
 21
15.7727
  0
LINE
  8
0
 10
7.79879
 20
15.7727
 11
7.73676
 21
15.7656
  0
LINE
  8
0
 10
7.73676
 20
15.7656
 11
7.68261
 21
15.7466
  0
LINE
  8
0
 10
7.68261
 20
15.7466
 11
7.62232
 21
15.7254
  0
LINE
  8
0
 10
7.62232
 20
15.7254
 11
7.57045
 21
15.6939
  0
LINE
  8
0
 10
7.57045
 20
15.6939
 11
7.51359
 21
15.6595
  0
LINE
  8
0
 10
7.51359
 20
15.6595
 11
7.41325
 21
15.5695
  0
LINE
  8
0
 10
7.41325
 20
15.5695
 11
7.36938
 21
15.5147
  0
LINE
  8
0
 10
7.36938
 20
15.5147
 11
7.32376
 21
15.4577
  0
LINE
  8
0
 10
7.32376
 20
15.4577
 11
7.28561
 21
15.3923
  0
LINE
  8
0
 10
7.28561
 20
15.3923
 11
7.24732
 21
15.3267
  0
LINE
  8
0
 10
7.24732
 20
15.3267
 11
7.216
 21
15.252
  0
LINE
  8
0
 10
7.216
 20
15.252
 11
7.18583
 21
15.1799
  0
LINE
  8
0
 10
7.18583
 20
15.1799
 11
7.16238
 21
15.0971
  0
LINE
  8
0
 10
7.16238
 20
15.0971
 11
7.14079
 21
15.0208
  0
LINE
  8
0
 10
7.14079
 20
15.0208
 11
7.12616
 21
14.9316
  0
LINE
  8
0
 10
7.12616
 20
14.9316
 11
7.11332
 21
14.8534
  0
LINE
  8
0
 10
7.11332
 20
14.8534
 11
7.10829
 21
14.7598
  0
LINE
  8
0
 10
7.10829
 20
14.7598
 11
7.10409
 21
14.6817
  0
LINE
  8
0
 10
7.10409
 20
14.6817
 11
7.10409
 21
5.5
  0
LINE
  8
0
 10
7.10409
 20
5.5
 11
6.5
 21
4.89591
  0
LINE
  8
0
 10
6.5
 20
4.89591
 11
6.5
 21
4
  0
LINE
  8
0
 10
6.5
 20
4
 11
5.3875
 21
4
  0
LINE
  8
0
 10
5.3875
 20
4
 11
5.3875
 21
0
  0
LINE
  8
0
 10
5.3875
 20
41.5
 11
6.5
 21
41.5
  0
LINE
  8
0
 10
6.5
 20
41.5
 11
6.5
 21
40.6041
  0
LINE
  8
0
 10
6.5
 20
40.6041
 11
7.10409
 21
40
  0
LINE
  8
0
 10
7.10409
 20
40
 11
7.10409
 21
33.2736
  0
LINE
  8
0
 10
7.10409
 20
33.2736
 11
7.10926
 21
33.2078
  0
LINE
  8
0
 10
7.10926
 20
33.2078
 11
7.11332
 21
33.1561
  0
LINE
  8
0
 10
7.11332
 20
33.1561
 11
7.12935
 21
33.0893
  0
LINE
  8
0
 10
7.12935
 20
33.0893
 11
7.14079
 21
33.0416
  0
LINE
  8
0
 10
7.14079
 20
33.0416
 11
7.16815
 21
32.9755
  0
LINE
  8
0
 10
7.16815
 20
32.9755
 11
7.18583
 21
32.9328
  0
LINE
  8
0
 10
7.18583
 20
32.9328
 11
7.22464
 21
32.8694
  0
LINE
  8
0
 10
7.22464
 20
32.8694
 11
7.24732
 21
32.8324
  0
LINE
  8
0
 10
7.24732
 20
32.8324
 11
7.29728
 21
32.7739
  0
LINE
  8
0
 10
7.29728
 20
32.7739
 11
7.32376
 21
32.7428
  0
LINE
  8
0
 10
7.32376
 20
32.7428
 11
7.38408
 21
32.6913
  0
LINE
  8
0
 10
7.38408
 20
32.6913
 11
7.41325
 21
32.6663
  0
LINE
  8
0
 10
7.41325
 20
32.6663
 11
7.48264
 21
32.6238
  0
LINE
  8
0
 10
7.48264
 20
32.6238
 11
7.51359
 21
32.6048
  0
LINE
  8
0
 10
7.51359
 20
32.6048
 11
7.59023
 21
32.573
  0
LINE
  8
0
 10
7.59023
 20
32.573
 11
7.62232
 21
32.5597
  0
LINE
  8
0
 10
7.62232
 20
32.5597
 11
7.70394
 21
32.5401
  0
LINE
  8
0
 10
7.70394
 20
32.5401
 11
7.73676
 21
32.5322
  0
LINE
  8
0
 10
7.73676
 20
32.5322
 11
7.82078
 21
32.5256
  0
LINE
  8
0
 10
7.82078
 20
32.5256
 11
7.85409
 21
32.523
  0
LINE
  8
0
 10
7.85409
 20
32.523
 11
11
 21
32.523
  0
LINE
  8
0
 10
11
 20
32.523
 11
11
 21
45.5
  0
LINE
  8
0
 10
11
 20
45.5
 11
5.3875
 21
45.5
  0
LINE
  8
0
 10
5.3875
 20
45.5
 11
5.3875
 21
41.5
  0
LINE
  8
0
 10
7.10409
 20
23.8518
 11
7.10634
 21
23.8207
  0
LINE
  8
0
 10
7.10634
 20
23.8207
 11
7.11332
 21
23.7246
  0
LINE
  8
0
 10
7.11332
 20
23.7246
 11
7.11733
 21
23.7065
  0
LINE
  8
0
 10
7.11733
 20
23.7065
 11
7.14079
 21
23.6005
  0
LINE
  8
0
 10
7.14079
 20
23.6005
 11
7.14272
 21
23.5954
  0
LINE
  8
0
 10
7.14272
 20
23.5954
 11
7.15939
 21
23.5518
  0
LINE
  8
0
 10
7.15939
 20
23.5518
 11
7.18297
 21
23.4844
  0
LINE
  8
0
 10
7.18297
 20
23.4844
 11
7.18583
 21
23.4762
  0
LINE
  8
0
 10
7.18583
 20
23.4762
 11
7.23685
 21
23.3777
  0
LINE
  8
0
 10
7.23685
 20
23.3777
 11
7.24732
 21
23.3574
  0
LINE
  8
0
 10
7.24732
 20
23.3574
 11
7.30275
 21
23.2806
  0
LINE
  8
0
 10
7.30275
 20
23.2806
 11
7.32376
 21
23.2515
  0
LINE
  8
0
 10
7.32376
 20
23.2515
 11
7.37981
 21
23.1948
  0
LINE
  8
0
 10
7.37981
 20
23.1948
 11
7.41325
 21
23.161
  0
LINE
  8
0
 10
7.41325
 20
23.161
 11
7.46713
 21
23.1219
  0
LINE
  8
0
 10
7.46713
 20
23.1219
 11
7.51359
 21
23.0882
  0
LINE
  8
0
 10
7.51359
 20
23.0882
 11
7.56379
 21
23.0635
  0
LINE
  8
0
 10
7.56379
 20
23.0635
 11
7.62232
 21
23.0348
  0
LINE
  8
0
 10
7.62232
 20
23.0348
 11
7.66868
 21
23.0217
  0
LINE
  8
0
 10
7.66868
 20
23.0217
 11
7.73676
 21
23.0023
  0
LINE
  8
0
 10
7.73676
 20
23.0023
 11
7.78041
 21
22.9982
  0
LINE
  8
0
 10
7.78041
 20
22.9982
 11
7.85409
 21
22.9914
  0
LINE
  8
0
 10
7.85409
 20
22.9914
 11
11
 21
22.9914
  0
LINE
  8
0
 10
11
 20
22.9914
 11
11
 21
26.7291
  0
LINE
  8
0
 10
11
 20
26.7291
 11
7.85409
 21
26.7291
  0
LINE
  8
0
 10
7.85409
 20
26.7291
 11
7.73676
 21
26.7156
  0
LINE
  8
0
 10
7.73676
 20
26.7156
 11
7.72405
 21
26.7111
  0
LINE
  8
0
 10
7.72405
 20
26.7111
 11
7.62232
 21
26.6754
  0
LINE
  8
0
 10
7.62232
 20
26.6754
 11
7.61007
 21
26.6679
  0
LINE
  8
0
 10
7.61007
 20
26.6679
 11
7.51359
 21
26.6095
  0
LINE
  8
0
 10
7.51359
 20
26.6095
 11
7.50204
 21
26.5991
  0
LINE
  8
0
 10
7.50204
 20
26.5991
 11
7.41325
 21
26.5195
  0
LINE
  8
0
 10
7.41325
 20
26.5195
 11
7.40264
 21
26.5062
  0
LINE
  8
0
 10
7.40264
 20
26.5062
 11
7.32376
 21
26.4077
  0
LINE
  8
0
 10
7.32376
 20
26.4077
 11
7.31437
 21
26.3916
  0
LINE
  8
0
 10
7.31437
 20
26.3916
 11
7.24732
 21
26.2767
  0
LINE
  8
0
 10
7.24732
 20
26.2767
 11
7.23948
 21
26.258
  0
LINE
  8
0
 10
7.23948
 20
26.258
 11
7.18583
 21
26.1299
  0
LINE
  8
0
 10
7.18583
 20
26.1299
 11
7.17984
 21
26.1087
  0
LINE
  8
0
 10
7.17984
 20
26.1087
 11
7.14079
 21
25.9708
  0
LINE
  8
0
 10
7.14079
 20
25.9708
 11
7.13698
 21
25.9475
  0
LINE
  8
0
 10
7.13698
 20
25.9475
 11
7.11332
 21
25.8034
  0
LINE
  8
0
 10
7.11332
 20
25.8034
 11
7.11198
 21
25.7785
  0
LINE
  8
0
 10
7.11198
 20
25.7785
 11
7.10409
 21
25.6317
  0
LINE
  8
0
 10
7.10409
 20
25.6317
 11
7.10409
 21
23.8518
  0
LINE
  8
0
 10
36.5
 20
0
 11
42.1168
 21
0
  0
LINE
  8
0
 10
42.1168
 20
0
 11
42.1168
 21
4
  0
LINE
  8
0
 10
42.1168
 20
4
 11
41
 21
4
  0
LINE
  8
0
 10
41
 20
4
 11
41
 21
4.89591
  0
LINE
  8
0
 10
41
 20
4.89591
 11
40.3959
 21
5.5
  0
LINE
  8
0
 10
40.3959
 20
5.5
 11
40.3959
 21
14.6817
  0
LINE
  8
0
 10
40.3959
 20
14.6817
 11
40.3909
 21
14.7751
  0
LINE
  8
0
 10
40.3909
 20
14.7751
 11
40.3867
 21
14.8534
  0
LINE
  8
0
 10
40.3867
 20
14.8534
 11
40.3721
 21
14.9425
  0
LINE
  8
0
 10
40.3721
 20
14.9425
 11
40.3592
 21
15.0208
  0
LINE
  8
0
 10
40.3592
 20
15.0208
 11
40.3358
 21
15.1036
  0
LINE
  8
0
 10
40.3358
 20
15.1036
 11
40.3142
 21
15.1799
  0
LINE
  8
0
 10
40.3142
 20
15.1799
 11
40.2829
 21
15.2547
  0
LINE
  8
0
 10
40.2829
 20
15.2547
 11
40.2527
 21
15.3267
  0
LINE
  8
0
 10
40.2527
 20
15.3267
 11
40.2145
 21
15.3921
  0
LINE
  8
0
 10
40.2145
 20
15.3921
 11
40.1762
 21
15.4577
  0
LINE
  8
0
 10
40.1762
 20
15.4577
 11
40.1324
 21
15.5125
  0
LINE
  8
0
 10
40.1324
 20
15.5125
 11
40.0868
 21
15.5695
  0
LINE
  8
0
 10
40.0868
 20
15.5695
 11
39.9864
 21
15.6595
  0
LINE
  8
0
 10
39.9864
 20
15.6595
 11
39.9345
 21
15.6909
  0
LINE
  8
0
 10
39.9345
 20
15.6909
 11
39.8777
 21
15.7254
  0
LINE
  8
0
 10
39.8777
 20
15.7254
 11
39.8235
 21
15.7444
  0
LINE
  8
0
 10
39.8235
 20
15.7444
 11
39.7632
 21
15.7656
  0
LINE
  8
0
 10
39.7632
 20
15.7656
 11
39.7079
 21
15.7719
  0
LINE
  8
0
 10
39.7079
 20
15.7719
 11
39.6459
 21
15.7791
  0
LINE
  8
0
 10
39.6459
 20
15.7791
 11
36.5
 21
15.7791
  0
LINE
  8
0
 10
36.5
 20
15.7791
 11
36.5
 21
0
  0
LINE
  8
0
 10
36.5
 20
22.9914
 11
39.6459
 21
22.9914
  0
LINE
  8
0
 10
39.6459
 20
22.9914
 11
39.6889
 21
22.9954
  0
LINE
  8
0
 10
39.6889
 20
22.9954
 11
39.7632
 21
23.0023
  0
LINE
  8
0
 10
39.7632
 20
23.0023
 11
39.808
 21
23.015
  0
LINE
  8
0
 10
39.808
 20
23.015
 11
39.8777
 21
23.0348
  0
LINE
  8
0
 10
39.8777
 20
23.0348
 11
39.9262
 21
23.0587
  0
LINE
  8
0
 10
39.9262
 20
23.0587
 11
39.9864
 21
23.0882
  0
LINE
  8
0
 10
39.9864
 20
23.0882
 11
40.0397
 21
23.1269
  0
LINE
  8
0
 10
40.0397
 20
23.1269
 11
40.0868
 21
23.161
  0
LINE
  8
0
 10
40.0868
 20
23.161
 11
40.1442
 21
23.219
  0
LINE
  8
0
 10
40.1442
 20
23.219
 11
40.1762
 21
23.2515
  0
LINE
  8
0
 10
40.1762
 20
23.2515
 11
40.2352
 21
23.3332
  0
LINE
  8
0
 10
40.2352
 20
23.3332
 11
40.2527
 21
23.3574
  0
LINE
  8
0
 10
40.2527
 20
23.3574
 11
40.3088
 21
23.4659
  0
LINE
  8
0
 10
40.3088
 20
23.4659
 11
40.3142
 21
23.4762
  0
LINE
  8
0
 10
40.3142
 20
23.4762
 11
40.3406
 21
23.5518
  0
LINE
  8
0
 10
40.3406
 20
23.5518
 11
40.3592
 21
23.6005
  0
LINE
  8
0
 10
40.3592
 20
23.6005
 11
40.3606
 21
23.6067
  0
LINE
  8
0
 10
40.3606
 20
23.6067
 11
40.3867
 21
23.7246
  0
LINE
  8
0
 10
40.3867
 20
23.7246
 11
40.3882
 21
23.7462
  0
LINE
  8
0
 10
40.3882
 20
23.7462
 11
40.3959
 21
23.8518
  0
LINE
  8
0
 10
40.3959
 20
23.8518
 11
40.3959
 21
25.6317
  0
LINE
  8
0
 10
40.3959
 20
25.6317
 11
40.3945
 21
25.6574
  0
LINE
  8
0
 10
40.3945
 20
25.6574
 11
40.3867
 21
25.8034
  0
LINE
  8
0
 10
40.3867
 20
25.8034
 11
40.3827
 21
25.8274
  0
LINE
  8
0
 10
40.3827
 20
25.8274
 11
40.3592
 21
25.9708
  0
LINE
  8
0
 10
40.3592
 20
25.9708
 11
40.353
 21
25.9927
  0
LINE
  8
0
 10
40.353
 20
25.9927
 11
40.3142
 21
26.1299
  0
LINE
  8
0
 10
40.3142
 20
26.1299
 11
40.3061
 21
26.1492
  0
LINE
  8
0
 10
40.3061
 20
26.1492
 11
40.2527
 21
26.2767
  0
LINE
  8
0
 10
40.2527
 20
26.2767
 11
40.243
 21
26.2933
  0
LINE
  8
0
 10
40.243
 20
26.2933
 11
40.1762
 21
26.4077
  0
LINE
  8
0
 10
40.1762
 20
26.4077
 11
40.1654
 21
26.4213
  0
LINE
  8
0
 10
40.1654
 20
26.4213
 11
40.0868
 21
26.5195
  0
LINE
  8
0
 10
40.0868
 20
26.5195
 11
40.0749
 21
26.5301
  0
LINE
  8
0
 10
40.0749
 20
26.5301
 11
39.9864
 21
26.6095
  0
LINE
  8
0
 10
39.9864
 20
26.6095
 11
39.974
 21
26.617
  0
LINE
  8
0
 10
39.974
 20
26.617
 11
39.8777
 21
26.6754
  0
LINE
  8
0
 10
39.8777
 20
26.6754
 11
39.8648
 21
26.6799
  0
LINE
  8
0
 10
39.8648
 20
26.6799
 11
39.7632
 21
26.7156
  0
LINE
  8
0
 10
39.7632
 20
26.7156
 11
39.6459
 21
26.7291
  0
LINE
  8
0
 10
39.6459
 20
26.7291
 11
36.5
 21
26.7291
  0
LINE
  8
0
 10
36.5
 20
26.7291
 11
36.5
 21
22.9914
  0
LINE
  8
0
 10
36.5
 20
32.523
 11
39.6459
 21
32.523
  0
LINE
  8
0
 10
39.6459
 20
32.523
 11
39.7296
 21
32.5296
  0
LINE
  8
0
 10
39.7296
 20
32.5296
 11
39.7632
 21
32.5322
  0
LINE
  8
0
 10
39.7632
 20
32.5322
 11
39.8439
 21
32.5516
  0
LINE
  8
0
 10
39.8439
 20
32.5516
 11
39.8777
 21
32.5597
  0
LINE
  8
0
 10
39.8777
 20
32.5597
 11
39.9529
 21
32.5909
  0
LINE
  8
0
 10
39.9529
 20
32.5909
 11
39.9864
 21
32.6048
  0
LINE
  8
0
 10
39.9864
 20
32.6048
 11
40.0541
 21
32.6463
  0
LINE
  8
0
 10
40.0541
 20
32.6463
 11
40.0868
 21
32.6663
  0
LINE
  8
0
 10
40.0868
 20
32.6663
 11
40.1453
 21
32.7164
  0
LINE
  8
0
 10
40.1453
 20
32.7164
 11
40.1762
 21
32.7428
  0
LINE
  8
0
 10
40.1762
 20
32.7428
 11
40.2246
 21
32.7995
  0
LINE
  8
0
 10
40.2246
 20
32.7995
 11
40.2527
 21
32.8324
  0
LINE
  8
0
 10
40.2527
 20
32.8324
 11
40.2901
 21
32.8935
  0
LINE
  8
0
 10
40.2901
 20
32.8935
 11
40.3142
 21
32.9328
  0
LINE
  8
0
 10
40.3142
 20
32.9328
 11
40.3405
 21
32.9965
  0
LINE
  8
0
 10
40.3405
 20
32.9965
 11
40.3592
 21
33.0416
  0
LINE
  8
0
 10
40.3592
 20
33.0416
 11
40.3746
 21
33.106
  0
LINE
  8
0
 10
40.3746
 20
33.106
 11
40.3867
 21
33.1561
  0
LINE
  8
0
 10
40.3867
 20
33.1561
 11
40.3917
 21
33.2195
  0
LINE
  8
0
 10
40.3917
 20
33.2195
 11
40.3959
 21
33.2736
  0
LINE
  8
0
 10
40.3959
 20
33.2736
 11
40.3959
 21
40
  0
LINE
  8
0
 10
40.3959
 20
40
 11
41
 21
40.6041
  0
LINE
  8
0
 10
41
 20
40.6041
 11
41
 21
41.5
  0
LINE
  8
0
 10
41
 20
41.5
 11
42.1168
 21
41.5
  0
LINE
  8
0
 10
42.1168
 20
41.5
 11
42.1168
 21
45.5
  0
LINE
  8
0
 10
42.1168
 20
45.5
 11
36.5
 21
45.5
  0
LINE
  8
0
 10
36.5
 20
45.5
 11
36.5
 21
32.523
  0
LINE
  8
0
 10
45.3875
 20
0
 11
47.5
 21
0
  0
LINE
  8
0
 10
47.5
 20
0
 11
47.5
 21
3.5
  0
LINE
  8
0
 10
47.5
 20
3.5
 11
47
 21
4
  0
LINE
  8
0
 10
47
 20
4
 11
45.3875
 21
4
  0
LINE
  8
0
 10
45.3875
 20
4
 11
45.3875
 21
0
  0
LINE
  8
0
 10
45.3875
 20
41.5
 11
47
 21
41.5
  0
LINE
  8
0
 10
47
 20
41.5
 11
47.5
 21
42
  0
LINE
  8
0
 10
47.5
 20
42
 11
47.5
 21
45.5
  0
LINE
  8
0
 10
47.5
 20
45.5
 11
45.3875
 21
45.5
  0
LINE
  8
0
 10
45.3875
 20
45.5
 11
45.3875
 21
41.5
  0
ENDSEC
  0
SECTION
  2
OBJECTS
  0
DICTIONARY
  0
ENDSEC
  0
EOF
