  0
SECTION
  2
BLOCKS
  0
ENDSEC
  0
SECTION
  2
ENTITIES
  0
LINE
  8
0
 10
0
 20
0
 11
2.18493
 21
0
  0
LINE
  8
0
 10
2.18493
 20
0
 11
2.18493
 21
4
  0
LINE
  8
0
 10
2.18493
 20
4
 11
0.499999
 21
4
  0
LINE
  8
0
 10
0.499999
 20
4
 11
0
 21
3.5
  0
LINE
  8
0
 10
0
 20
3.5
 11
0
 21
0
  0
LINE
  8
0
 10
0
 20
42
 11
0.499999
 21
41.5
  0
LINE
  8
0
 10
0.499999
 20
41.5
 11
2.18493
 21
41.5
  0
LINE
  8
0
 10
2.18493
 20
41.5
 11
2.18493
 21
45.5
  0
LINE
  8
0
 10
2.18493
 20
45.5
 11
0
 21
45.5
  0
LINE
  8
0
 10
0
 20
45.5
 11
0
 21
42
  0
LINE
  8
0
 10
5.31684
 20
0
 11
11
 21
0
  0
LINE
  8
0
 10
11
 20
0
 11
11
 21
15.5655
  0
LINE
  8
0
 10
11
 20
15.5655
 11
7.85409
 21
15.5655
  0
LINE
  8
0
 10
7.85409
 20
15.5655
 11
7.79535
 21
15.5587
  0
LINE
  8
0
 10
7.79535
 20
15.5587
 11
7.73676
 21
15.552
  0
LINE
  8
0
 10
7.73676
 20
15.552
 11
7.67925
 21
15.5318
  0
LINE
  8
0
 10
7.67925
 20
15.5318
 11
7.62232
 21
15.5118
  0
LINE
  8
0
 10
7.62232
 20
15.5118
 11
7.56725
 21
15.4784
  0
LINE
  8
0
 10
7.56725
 20
15.4784
 11
7.51359
 21
15.4459
  0
LINE
  8
0
 10
7.51359
 20
15.4459
 11
7.41325
 21
15.3559
  0
LINE
  8
0
 10
7.41325
 20
15.3559
 11
7.36674
 21
15.2978
  0
LINE
  8
0
 10
7.36674
 20
15.2978
 11
7.32376
 21
15.2441
  0
LINE
  8
0
 10
7.32376
 20
15.2441
 11
7.28335
 21
15.1748
  0
LINE
  8
0
 10
7.28335
 20
15.1748
 11
7.24732
 21
15.1131
  0
LINE
  8
0
 10
7.24732
 20
15.1131
 11
7.21418
 21
15.034
  0
LINE
  8
0
 10
7.21418
 20
15.034
 11
7.18583
 21
14.9663
  0
LINE
  8
0
 10
7.18583
 20
14.9663
 11
7.16105
 21
14.8788
  0
LINE
  8
0
 10
7.16105
 20
14.8788
 11
7.14079
 21
14.8072
  0
LINE
  8
0
 10
7.14079
 20
14.8072
 11
7.12534
 21
14.713
  0
LINE
  8
0
 10
7.12534
 20
14.713
 11
7.11332
 21
14.6398
  0
LINE
  8
0
 10
7.11332
 20
14.6398
 11
7.10801
 21
14.5411
  0
LINE
  8
0
 10
7.10801
 20
14.5411
 11
7.10409
 21
14.4681
  0
LINE
  8
0
 10
7.10409
 20
14.4681
 11
7.10409
 21
5.5
  0
LINE
  8
0
 10
7.10409
 20
5.5
 11
6.5
 21
4.89591
  0
LINE
  8
0
 10
6.5
 20
4.89591
 11
6.5
 21
4
  0
LINE
  8
0
 10
6.5
 20
4
 11
5.31684
 21
4
  0
LINE
  8
0
 10
5.31684
 20
4
 11
5.31684
 21
0
  0
LINE
  8
0
 10
5.31684
 20
41.5
 11
6.5
 21
41.5
  0
LINE
  8
0
 10
6.5
 20
41.5
 11
6.5
 21
40.6041
  0
LINE
  8
0
 10
6.5
 20
40.6041
 11
7.10409
 21
40
  0
LINE
  8
0
 10
7.10409
 20
40
 11
7.10409
 21
33.2918
  0
LINE
  8
0
 10
7.10409
 20
33.2918
 11
7.10567
 21
33.2717
  0
LINE
  8
0
 10
7.10567
 20
33.2717
 11
7.11332
 21
33.1744
  0
LINE
  8
0
 10
7.11332
 20
33.1744
 11
7.11826
 21
33.1538
  0
LINE
  8
0
 10
7.11826
 20
33.1538
 11
7.14079
 21
33.0599
  0
LINE
  8
0
 10
7.14079
 20
33.0599
 11
7.14929
 21
33.0394
  0
LINE
  8
0
 10
7.14929
 20
33.0394
 11
7.18583
 21
32.9511
  0
LINE
  8
0
 10
7.18583
 20
32.9511
 11
7.19797
 21
32.9313
  0
LINE
  8
0
 10
7.19797
 20
32.9313
 11
7.24732
 21
32.8507
  0
LINE
  8
0
 10
7.24732
 20
32.8507
 11
7.26305
 21
32.8322
  0
LINE
  8
0
 10
7.26305
 20
32.8322
 11
7.32376
 21
32.7611
  0
LINE
  8
0
 10
7.32376
 20
32.7611
 11
7.34285
 21
32.7448
  0
LINE
  8
0
 10
7.34285
 20
32.7448
 11
7.41325
 21
32.6846
  0
LINE
  8
0
 10
7.41325
 20
32.6846
 11
7.43532
 21
32.6711
  0
LINE
  8
0
 10
7.43532
 20
32.6711
 11
7.51359
 21
32.6231
  0
LINE
  8
0
 10
7.51359
 20
32.6231
 11
7.53806
 21
32.6129
  0
LINE
  8
0
 10
7.53806
 20
32.6129
 11
7.62232
 21
32.578
  0
LINE
  8
0
 10
7.62232
 20
32.578
 11
7.64845
 21
32.5717
  0
LINE
  8
0
 10
7.64845
 20
32.5717
 11
7.73676
 21
32.5505
  0
LINE
  8
0
 10
7.73676
 20
32.5505
 11
7.7637
 21
32.5484
  0
LINE
  8
0
 10
7.7637
 20
32.5484
 11
7.85409
 21
32.5413
  0
LINE
  8
0
 10
7.85409
 20
32.5413
 11
11
 21
32.5413
  0
LINE
  8
0
 10
11
 20
32.5413
 11
11
 21
45.5
  0
LINE
  8
0
 10
11
 20
45.5
 11
5.31684
 21
45.5
  0
LINE
  8
0
 10
5.31684
 20
45.5
 11
5.31684
 21
41.5
  0
LINE
  8
0
 10
7.10409
 20
23.7511
 11
7.11104
 21
23.6465
  0
LINE
  8
0
 10
7.11104
 20
23.6465
 11
7.11332
 21
23.6122
  0
LINE
  8
0
 10
7.11332
 20
23.6122
 11
7.13074
 21
23.5262
  0
LINE
  8
0
 10
7.13074
 20
23.5262
 11
7.14079
 21
23.4767
  0
LINE
  8
0
 10
7.14079
 20
23.4767
 11
7.16383
 21
23.4108
  0
LINE
  8
0
 10
7.16383
 20
23.4108
 11
7.18583
 21
23.3479
  0
LINE
  8
0
 10
7.18583
 20
23.3479
 11
7.20961
 21
23.302
  0
LINE
  8
0
 10
7.20961
 20
23.302
 11
7.24732
 21
23.2291
  0
LINE
  8
0
 10
7.24732
 20
23.2291
 11
7.2674
 21
23.2013
  0
LINE
  8
0
 10
7.2674
 20
23.2013
 11
7.32376
 21
23.1232
  0
LINE
  8
0
 10
7.32376
 20
23.1232
 11
7.33656
 21
23.1102
  0
LINE
  8
0
 10
7.33656
 20
23.1102
 11
7.41325
 21
23.0327
  0
LINE
  8
0
 10
7.41325
 20
23.0327
 11
7.41649
 21
23.0303
  0
LINE
  8
0
 10
7.41649
 20
23.0303
 11
7.44762
 21
23.0077
  0
LINE
  8
0
 10
7.44762
 20
23.0077
 11
7.50677
 21
22.959
  0
LINE
  8
0
 10
7.50677
 20
22.959
 11
7.51359
 21
22.9534
  0
LINE
  8
0
 10
7.51359
 20
22.9534
 11
7.60589
 21
22.902
  0
LINE
  8
0
 10
7.60589
 20
22.902
 11
7.62232
 21
22.8929
  0
LINE
  8
0
 10
7.62232
 20
22.8929
 11
7.71277
 21
22.8637
  0
LINE
  8
0
 10
7.71277
 20
22.8637
 11
7.73676
 21
22.8559
  0
LINE
  8
0
 10
7.73676
 20
22.8559
 11
7.82625
 21
22.8465
  0
LINE
  8
0
 10
7.82625
 20
22.8465
 11
7.85409
 21
22.8435
  0
LINE
  8
0
 10
7.85409
 20
22.8435
 11
11
 21
22.8435
  0
LINE
  8
0
 10
11
 20
22.8435
 11
11
 21
26.5155
  0
LINE
  8
0
 10
11
 20
26.5155
 11
7.85409
 21
26.5155
  0
LINE
  8
0
 10
7.85409
 20
26.5155
 11
7.73676
 21
26.5019
  0
LINE
  8
0
 10
7.73676
 20
26.5019
 11
7.72237
 21
26.4969
  0
LINE
  8
0
 10
7.72237
 20
26.4969
 11
7.62232
 21
26.4617
  0
LINE
  8
0
 10
7.62232
 20
26.4617
 11
7.60848
 21
26.4534
  0
LINE
  8
0
 10
7.60848
 20
26.4534
 11
7.51359
 21
26.3958
  0
LINE
  8
0
 10
7.51359
 20
26.3958
 11
7.50056
 21
26.3842
  0
LINE
  8
0
 10
7.50056
 20
26.3842
 11
7.41325
 21
26.3059
  0
LINE
  8
0
 10
7.41325
 20
26.3059
 11
7.40132
 21
26.291
  0
LINE
  8
0
 10
7.40132
 20
26.291
 11
7.32376
 21
26.194
  0
LINE
  8
0
 10
7.32376
 20
26.194
 11
7.31325
 21
26.176
  0
LINE
  8
0
 10
7.31325
 20
26.176
 11
7.24732
 21
26.0631
  0
LINE
  8
0
 10
7.24732
 20
26.0631
 11
7.23857
 21
26.0422
  0
LINE
  8
0
 10
7.23857
 20
26.0422
 11
7.18583
 21
25.9163
  0
LINE
  8
0
 10
7.18583
 20
25.9163
 11
7.17918
 21
25.8928
  0
LINE
  8
0
 10
7.17918
 20
25.8928
 11
7.14079
 21
25.7572
  0
LINE
  8
0
 10
7.14079
 20
25.7572
 11
7.13657
 21
25.7315
  0
LINE
  8
0
 10
7.13657
 20
25.7315
 11
7.11332
 21
25.5897
  0
LINE
  8
0
 10
7.11332
 20
25.5897
 11
7.11184
 21
25.5623
  0
LINE
  8
0
 10
7.11184
 20
25.5623
 11
7.10409
 21
25.4181
  0
LINE
  8
0
 10
7.10409
 20
25.4181
 11
7.10409
 21
23.7511
  0
LINE
  8
0
 10
36.5
 20
0
 11
42.1849
 21
0
  0
LINE
  8
0
 10
42.1849
 20
0
 11
42.1849
 21
4
  0
LINE
  8
0
 10
42.1849
 20
4
 11
41
 21
4
  0
LINE
  8
0
 10
41
 20
4
 11
41
 21
4.89591
  0
LINE
  8
0
 10
41
 20
4.89591
 11
40.3959
 21
5.5
  0
LINE
  8
0
 10
40.3959
 20
5.5
 11
40.3959
 21
14.4681
  0
LINE
  8
0
 10
40.3959
 20
14.4681
 11
40.3906
 21
14.5665
  0
LINE
  8
0
 10
40.3906
 20
14.5665
 11
40.3867
 21
14.6398
  0
LINE
  8
0
 10
40.3867
 20
14.6398
 11
40.3713
 21
14.7337
  0
LINE
  8
0
 10
40.3713
 20
14.7337
 11
40.3592
 21
14.8072
  0
LINE
  8
0
 10
40.3592
 20
14.8072
 11
40.3345
 21
14.8946
  0
LINE
  8
0
 10
40.3345
 20
14.8946
 11
40.3142
 21
14.9663
  0
LINE
  8
0
 10
40.3142
 20
14.9663
 11
40.2811
 21
15.0453
  0
LINE
  8
0
 10
40.2811
 20
15.0453
 11
40.2527
 21
15.1131
  0
LINE
  8
0
 10
40.2527
 20
15.1131
 11
40.2123
 21
15.1823
  0
LINE
  8
0
 10
40.2123
 20
15.1823
 11
40.1762
 21
15.2441
  0
LINE
  8
0
 10
40.1762
 20
15.2441
 11
40.1298
 21
15.3021
  0
LINE
  8
0
 10
40.1298
 20
15.3021
 11
40.0868
 21
15.3559
  0
LINE
  8
0
 10
40.0868
 20
15.3559
 11
39.9864
 21
15.4459
  0
LINE
  8
0
 10
39.9864
 20
15.4459
 11
39.9313
 21
15.4792
  0
LINE
  8
0
 10
39.9313
 20
15.4792
 11
39.8777
 21
15.5118
  0
LINE
  8
0
 10
39.8777
 20
15.5118
 11
39.8202
 21
15.532
  0
LINE
  8
0
 10
39.8202
 20
15.532
 11
39.7632
 21
15.552
  0
LINE
  8
0
 10
39.7632
 20
15.552
 11
39.7045
 21
15.5587
  0
LINE
  8
0
 10
39.7045
 20
15.5587
 11
39.6459
 21
15.5655
  0
LINE
  8
0
 10
39.6459
 20
15.5655
 11
36.5
 21
15.5655
  0
LINE
  8
0
 10
36.5
 20
15.5655
 11
36.5
 21
0
  0
LINE
  8
0
 10
36.5
 20
22.8435
 11
39.6459
 21
22.8435
  0
LINE
  8
0
 10
39.6459
 20
22.8435
 11
39.7364
 21
22.8531
  0
LINE
  8
0
 10
39.7364
 20
22.8531
 11
39.7632
 21
22.8559
  0
LINE
  8
0
 10
39.7632
 20
22.8559
 11
39.8572
 21
22.8863
  0
LINE
  8
0
 10
39.8572
 20
22.8863
 11
39.8777
 21
22.8929
  0
LINE
  8
0
 10
39.8777
 20
22.8929
 11
39.977
 21
22.9482
  0
LINE
  8
0
 10
39.977
 20
22.9482
 11
39.9864
 21
22.9534
  0
LINE
  8
0
 10
39.9864
 20
22.9534
 11
40.0524
 21
23.0077
  0
LINE
  8
0
 10
40.0524
 20
23.0077
 11
40.0868
 21
23.0327
  0
LINE
  8
0
 10
40.0868
 20
23.0327
 11
40.0902
 21
23.0362
  0
LINE
  8
0
 10
40.0902
 20
23.0362
 11
40.1762
 21
23.1232
  0
LINE
  8
0
 10
40.1762
 20
23.1232
 11
40.1897
 21
23.1418
  0
LINE
  8
0
 10
40.1897
 20
23.1418
 11
40.2527
 21
23.2291
  0
LINE
  8
0
 10
40.2527
 20
23.2291
 11
40.273
 21
23.2684
  0
LINE
  8
0
 10
40.273
 20
23.2684
 11
40.3142
 21
23.3479
  0
LINE
  8
0
 10
40.3142
 20
23.3479
 11
40.3364
 21
23.4115
  0
LINE
  8
0
 10
40.3364
 20
23.4115
 11
40.3592
 21
23.4767
  0
LINE
  8
0
 10
40.3592
 20
23.4767
 11
40.3773
 21
23.5658
  0
LINE
  8
0
 10
40.3773
 20
23.5658
 11
40.3867
 21
23.6122
  0
LINE
  8
0
 10
40.3867
 20
23.6122
 11
40.3942
 21
23.7254
  0
LINE
  8
0
 10
40.3942
 20
23.7254
 11
40.3959
 21
23.7511
  0
LINE
  8
0
 10
40.3959
 20
23.7511
 11
40.3959
 21
25.4181
  0
LINE
  8
0
 10
40.3959
 20
25.4181
 11
40.3944
 21
25.4462
  0
LINE
  8
0
 10
40.3944
 20
25.4462
 11
40.3867
 21
25.5897
  0
LINE
  8
0
 10
40.3867
 20
25.5897
 11
40.3823
 21
25.6162
  0
LINE
  8
0
 10
40.3823
 20
25.6162
 11
40.3592
 21
25.7572
  0
LINE
  8
0
 10
40.3592
 20
25.7572
 11
40.3524
 21
25.7813
  0
LINE
  8
0
 10
40.3524
 20
25.7813
 11
40.3142
 21
25.9163
  0
LINE
  8
0
 10
40.3142
 20
25.9163
 11
40.3052
 21
25.9377
  0
LINE
  8
0
 10
40.3052
 20
25.9377
 11
40.2527
 21
26.0631
  0
LINE
  8
0
 10
40.2527
 20
26.0631
 11
40.2419
 21
26.0815
  0
LINE
  8
0
 10
40.2419
 20
26.0815
 11
40.1762
 21
26.194
  0
LINE
  8
0
 10
40.1762
 20
26.194
 11
40.1641
 21
26.2093
  0
LINE
  8
0
 10
40.1641
 20
26.2093
 11
40.0868
 21
26.3059
  0
LINE
  8
0
 10
40.0868
 20
26.3059
 11
40.0735
 21
26.3178
  0
LINE
  8
0
 10
40.0735
 20
26.3178
 11
39.9864
 21
26.3958
  0
LINE
  8
0
 10
39.9864
 20
26.3958
 11
39.9724
 21
26.4044
  0
LINE
  8
0
 10
39.9724
 20
26.4044
 11
39.8777
 21
26.4617
  0
LINE
  8
0
 10
39.8777
 20
26.4617
 11
39.8632
 21
26.4668
  0
LINE
  8
0
 10
39.8632
 20
26.4668
 11
39.7632
 21
26.5019
  0
LINE
  8
0
 10
39.7632
 20
26.5019
 11
39.6459
 21
26.5155
  0
LINE
  8
0
 10
39.6459
 20
26.5155
 11
36.5
 21
26.5155
  0
LINE
  8
0
 10
36.5
 20
26.5155
 11
36.5
 21
22.8435
  0
LINE
  8
0
 10
36.5
 20
32.5413
 11
39.6459
 21
32.5413
  0
LINE
  8
0
 10
39.6459
 20
32.5413
 11
39.6728
 21
32.5434
  0
LINE
  8
0
 10
39.6728
 20
32.5434
 11
39.7632
 21
32.5505
  0
LINE
  8
0
 10
39.7632
 20
32.5505
 11
39.7891
 21
32.5567
  0
LINE
  8
0
 10
39.7891
 20
32.5567
 11
39.8777
 21
32.578
  0
LINE
  8
0
 10
39.8777
 20
32.578
 11
39.9018
 21
32.588
  0
LINE
  8
0
 10
39.9018
 20
32.588
 11
39.9864
 21
32.6231
  0
LINE
  8
0
 10
39.9864
 20
32.6231
 11
40.008
 21
32.6363
  0
LINE
  8
0
 10
40.008
 20
32.6363
 11
40.0868
 21
32.6846
  0
LINE
  8
0
 10
40.0868
 20
32.6846
 11
40.1054
 21
32.7005
  0
LINE
  8
0
 10
40.1054
 20
32.7005
 11
40.1762
 21
32.7611
  0
LINE
  8
0
 10
40.1762
 20
32.7611
 11
40.1915
 21
32.779
  0
LINE
  8
0
 10
40.1915
 20
32.779
 11
40.2527
 21
32.8507
  0
LINE
  8
0
 10
40.2527
 20
32.8507
 11
40.2645
 21
32.8699
  0
LINE
  8
0
 10
40.2645
 20
32.8699
 11
40.3142
 21
32.9511
  0
LINE
  8
0
 10
40.3142
 20
32.9511
 11
40.3224
 21
32.971
  0
LINE
  8
0
 10
40.3224
 20
32.971
 11
40.3592
 21
33.0599
  0
LINE
  8
0
 10
40.3592
 20
33.0599
 11
40.364
 21
33.0799
  0
LINE
  8
0
 10
40.364
 20
33.0799
 11
40.3867
 21
33.1744
  0
LINE
  8
0
 10
40.3867
 20
33.1744
 11
40.3882
 21
33.194
  0
LINE
  8
0
 10
40.3882
 20
33.194
 11
40.3959
 21
33.2918
  0
LINE
  8
0
 10
40.3959
 20
33.2918
 11
40.3959
 21
40
  0
LINE
  8
0
 10
40.3959
 20
40
 11
41
 21
40.6041
  0
LINE
  8
0
 10
41
 20
40.6041
 11
41
 21
41.5
  0
LINE
  8
0
 10
41
 20
41.5
 11
42.1849
 21
41.5
  0
LINE
  8
0
 10
42.1849
 20
41.5
 11
42.1849
 21
45.5
  0
LINE
  8
0
 10
42.1849
 20
45.5
 11
36.5
 21
45.5
  0
LINE
  8
0
 10
36.5
 20
45.5
 11
36.5
 21
32.5413
  0
LINE
  8
0
 10
45.3168
 20
0
 11
47.5
 21
0
  0
LINE
  8
0
 10
47.5
 20
0
 11
47.5
 21
3.5
  0
LINE
  8
0
 10
47.5
 20
3.5
 11
47
 21
4
  0
LINE
  8
0
 10
47
 20
4
 11
45.3168
 21
4
  0
LINE
  8
0
 10
45.3168
 20
4
 11
45.3168
 21
0
  0
LINE
  8
0
 10
45.3168
 20
41.5
 11
47
 21
41.5
  0
LINE
  8
0
 10
47
 20
41.5
 11
47.5
 21
42
  0
LINE
  8
0
 10
47.5
 20
42
 11
47.5
 21
45.5
  0
LINE
  8
0
 10
47.5
 20
45.5
 11
45.3168
 21
45.5
  0
LINE
  8
0
 10
45.3168
 20
45.5
 11
45.3168
 21
41.5
  0
ENDSEC
  0
SECTION
  2
OBJECTS
  0
DICTIONARY
  0
ENDSEC
  0
EOF
