  0
SECTION
  2
BLOCKS
  0
ENDSEC
  0
SECTION
  2
ENTITIES
  0
LINE
  8
0
 10
0
 20
0
 11
2.28001
 21
0
  0
LINE
  8
0
 10
2.28001
 20
0
 11
2.28001
 21
4
  0
LINE
  8
0
 10
2.28001
 20
4
 11
0.499999
 21
4
  0
LINE
  8
0
 10
0.499999
 20
4
 11
0
 21
3.5
  0
LINE
  8
0
 10
0
 20
3.5
 11
0
 21
0
  0
LINE
  8
0
 10
0
 20
42
 11
0.499999
 21
41.5
  0
LINE
  8
0
 10
0.499999
 20
41.5
 11
2.28001
 21
41.5
  0
LINE
  8
0
 10
2.28001
 20
41.5
 11
2.28001
 21
45.5
  0
LINE
  8
0
 10
2.28001
 20
45.5
 11
0
 21
45.5
  0
LINE
  8
0
 10
0
 20
45.5
 11
0
 21
42
  0
LINE
  8
0
 10
5.21542
 20
0
 11
11
 21
0
  0
LINE
  8
0
 10
11
 20
0
 11
11
 21
15.3518
  0
LINE
  8
0
 10
11
 20
15.3518
 11
7.85409
 21
15.3518
  0
LINE
  8
0
 10
7.85409
 20
15.3518
 11
7.79191
 21
15.3447
  0
LINE
  8
0
 10
7.79191
 20
15.3447
 11
7.73676
 21
15.3383
  0
LINE
  8
0
 10
7.73676
 20
15.3383
 11
7.67589
 21
15.317
  0
LINE
  8
0
 10
7.67589
 20
15.317
 11
7.62232
 21
15.2981
  0
LINE
  8
0
 10
7.62232
 20
15.2981
 11
7.56406
 21
15.2628
  0
LINE
  8
0
 10
7.56406
 20
15.2628
 11
7.51359
 21
15.2322
  0
LINE
  8
0
 10
7.51359
 20
15.2322
 11
7.41325
 21
15.1423
  0
LINE
  8
0
 10
7.41325
 20
15.1423
 11
7.3641
 21
15.0809
  0
LINE
  8
0
 10
7.3641
 20
15.0809
 11
7.32376
 21
15.0304
  0
LINE
  8
0
 10
7.32376
 20
15.0304
 11
7.28109
 21
14.9573
  0
LINE
  8
0
 10
7.28109
 20
14.9573
 11
7.24732
 21
14.8995
  0
LINE
  8
0
 10
7.24732
 20
14.8995
 11
7.21237
 21
14.816
  0
LINE
  8
0
 10
7.21237
 20
14.816
 11
7.18583
 21
14.7527
  0
LINE
  8
0
 10
7.18583
 20
14.7527
 11
7.15972
 21
14.6604
  0
LINE
  8
0
 10
7.15972
 20
14.6604
 11
7.14079
 21
14.5936
  0
LINE
  8
0
 10
7.14079
 20
14.5936
 11
7.12453
 21
14.4945
  0
LINE
  8
0
 10
7.12453
 20
14.4945
 11
7.11332
 21
14.4261
  0
LINE
  8
0
 10
7.11332
 20
14.4261
 11
7.10774
 21
14.3224
  0
LINE
  8
0
 10
7.10774
 20
14.3224
 11
7.10409
 21
14.2545
  0
LINE
  8
0
 10
7.10409
 20
14.2545
 11
7.10409
 21
5.5
  0
LINE
  8
0
 10
7.10409
 20
5.5
 11
6.5
 21
4.89591
  0
LINE
  8
0
 10
6.5
 20
4.89591
 11
6.5
 21
4
  0
LINE
  8
0
 10
6.5
 20
4
 11
5.21542
 21
4
  0
LINE
  8
0
 10
5.21542
 20
4
 11
5.21542
 21
0
  0
LINE
  8
0
 10
5.21542
 20
41.5
 11
6.5
 21
41.5
  0
LINE
  8
0
 10
6.5
 20
41.5
 11
6.5
 21
40.6041
  0
LINE
  8
0
 10
6.5
 20
40.6041
 11
7.10409
 21
40
  0
LINE
  8
0
 10
7.10409
 20
40
 11
7.10409
 21
33.2916
  0
LINE
  8
0
 10
7.10409
 20
33.2916
 11
7.11141
 21
33.1986
  0
LINE
  8
0
 10
7.11141
 20
33.1986
 11
7.11332
 21
33.1743
  0
LINE
  8
0
 10
7.11332
 20
33.1743
 11
7.13493
 21
33.0843
  0
LINE
  8
0
 10
7.13493
 20
33.0843
 11
7.14079
 21
33.0599
  0
LINE
  8
0
 10
7.14079
 20
33.0599
 11
7.17594
 21
32.9751
  0
LINE
  8
0
 10
7.17594
 20
32.9751
 11
7.18583
 21
32.9513
  0
LINE
  8
0
 10
7.18583
 20
32.9513
 11
7.23343
 21
32.8737
  0
LINE
  8
0
 10
7.23343
 20
32.8737
 11
7.24732
 21
32.851
  0
LINE
  8
0
 10
7.24732
 20
32.851
 11
7.30599
 21
32.7824
  0
LINE
  8
0
 10
7.30599
 20
32.7824
 11
7.32376
 21
32.7616
  0
LINE
  8
0
 10
7.32376
 20
32.7616
 11
7.3919
 21
32.7034
  0
LINE
  8
0
 10
7.3919
 20
32.7034
 11
7.41325
 21
32.6852
  0
LINE
  8
0
 10
7.41325
 20
32.6852
 11
7.48908
 21
32.6387
  0
LINE
  8
0
 10
7.48908
 20
32.6387
 11
7.51359
 21
32.6237
  0
LINE
  8
0
 10
7.51359
 20
32.6237
 11
7.59524
 21
32.5899
  0
LINE
  8
0
 10
7.59524
 20
32.5899
 11
7.62232
 21
32.5787
  0
LINE
  8
0
 10
7.62232
 20
32.5787
 11
7.70782
 21
32.5582
  0
LINE
  8
0
 10
7.70782
 20
32.5582
 11
7.73676
 21
32.5513
  0
LINE
  8
0
 10
7.73676
 20
32.5513
 11
7.82413
 21
32.5444
  0
LINE
  8
0
 10
7.82413
 20
32.5444
 11
7.85409
 21
32.542
  0
LINE
  8
0
 10
7.85409
 20
32.542
 11
11
 21
32.542
  0
LINE
  8
0
 10
11
 20
32.542
 11
11
 21
45.5
  0
LINE
  8
0
 10
11
 20
45.5
 11
5.21542
 21
45.5
  0
LINE
  8
0
 10
5.21542
 20
45.5
 11
5.21542
 21
41.5
  0
LINE
  8
0
 10
7.10409
 20
23.6228
 11
7.10739
 21
23.5731
  0
LINE
  8
0
 10
7.10739
 20
23.5731
 11
7.11332
 21
23.4839
  0
LINE
  8
0
 10
7.11332
 20
23.4839
 11
7.11951
 21
23.4534
  0
LINE
  8
0
 10
7.11951
 20
23.4534
 11
7.14079
 21
23.3484
  0
LINE
  8
0
 10
7.14079
 20
23.3484
 11
7.14468
 21
23.3373
  0
LINE
  8
0
 10
7.14468
 20
23.3373
 11
7.16849
 21
23.2692
  0
LINE
  8
0
 10
7.16849
 20
23.2692
 11
7.1832
 21
23.2215
  0
LINE
  8
0
 10
7.1832
 20
23.2215
 11
7.18583
 21
23.213
  0
LINE
  8
0
 10
7.18583
 20
23.213
 11
7.23459
 21
23.106
  0
LINE
  8
0
 10
7.23459
 20
23.106
 11
7.24732
 21
23.0781
  0
LINE
  8
0
 10
7.24732
 20
23.0781
 11
7.29675
 21
23.0003
  0
LINE
  8
0
 10
7.29675
 20
23.0003
 11
7.32376
 21
22.9578
  0
LINE
  8
0
 10
7.32376
 20
22.9578
 11
7.3691
 21
22.9057
  0
LINE
  8
0
 10
7.3691
 20
22.9057
 11
7.41325
 21
22.855
  0
LINE
  8
0
 10
7.41325
 20
22.855
 11
7.45118
 21
22.8238
  0
LINE
  8
0
 10
7.45118
 20
22.8238
 11
7.51359
 21
22.7724
  0
LINE
  8
0
 10
7.51359
 20
22.7724
 11
7.54258
 21
22.7562
  0
LINE
  8
0
 10
7.54258
 20
22.7562
 11
7.62232
 21
22.7118
  0
LINE
  8
0
 10
7.62232
 20
22.7118
 11
7.64284
 21
22.7052
  0
LINE
  8
0
 10
7.64284
 20
22.7052
 11
7.73676
 21
22.6749
  0
LINE
  8
0
 10
7.73676
 20
22.6749
 11
7.75125
 21
22.6734
  0
LINE
  8
0
 10
7.75125
 20
22.6734
 11
7.85409
 21
22.6625
  0
LINE
  8
0
 10
7.85409
 20
22.6625
 11
11
 21
22.6625
  0
LINE
  8
0
 10
11
 20
22.6625
 11
11
 21
26.3018
  0
LINE
  8
0
 10
11
 20
26.3018
 11
7.85409
 21
26.3018
  0
LINE
  8
0
 10
7.85409
 20
26.3018
 11
7.73676
 21
26.2883
  0
LINE
  8
0
 10
7.73676
 20
26.2883
 11
7.72069
 21
26.2827
  0
LINE
  8
0
 10
7.72069
 20
26.2827
 11
7.62232
 21
26.2481
  0
LINE
  8
0
 10
7.62232
 20
26.2481
 11
7.60688
 21
26.2388
  0
LINE
  8
0
 10
7.60688
 20
26.2388
 11
7.51359
 21
26.1822
  0
LINE
  8
0
 10
7.51359
 20
26.1822
 11
7.49909
 21
26.1692
  0
LINE
  8
0
 10
7.49909
 20
26.1692
 11
7.41325
 21
26.0923
  0
LINE
  8
0
 10
7.41325
 20
26.0923
 11
7.40001
 21
26.0757
  0
LINE
  8
0
 10
7.40001
 20
26.0757
 11
7.32376
 21
25.9804
  0
LINE
  8
0
 10
7.32376
 20
25.9804
 11
7.31213
 21
25.9605
  0
LINE
  8
0
 10
7.31213
 20
25.9605
 11
7.24732
 21
25.8495
  0
LINE
  8
0
 10
7.24732
 20
25.8495
 11
7.23767
 21
25.8264
  0
LINE
  8
0
 10
7.23767
 20
25.8264
 11
7.18583
 21
25.7027
  0
LINE
  8
0
 10
7.18583
 20
25.7027
 11
7.17851
 21
25.6768
  0
LINE
  8
0
 10
7.17851
 20
25.6768
 11
7.14079
 21
25.5436
  0
LINE
  8
0
 10
7.14079
 20
25.5436
 11
7.13617
 21
25.5154
  0
LINE
  8
0
 10
7.13617
 20
25.5154
 11
7.11332
 21
25.3761
  0
LINE
  8
0
 10
7.11332
 20
25.3761
 11
7.11171
 21
25.3462
  0
LINE
  8
0
 10
7.11171
 20
25.3462
 11
7.10409
 21
25.2045
  0
LINE
  8
0
 10
7.10409
 20
25.2045
 11
7.10409
 21
23.6228
  0
LINE
  8
0
 10
36.5
 20
0
 11
42.28
 21
0
  0
LINE
  8
0
 10
42.28
 20
0
 11
42.28
 21
4
  0
LINE
  8
0
 10
42.28
 20
4
 11
41
 21
4
  0
LINE
  8
0
 10
41
 20
4
 11
41
 21
4.89591
  0
LINE
  8
0
 10
41
 20
4.89591
 11
40.3959
 21
5.5
  0
LINE
  8
0
 10
40.3959
 20
5.5
 11
40.3959
 21
14.2545
  0
LINE
  8
0
 10
40.3959
 20
14.2545
 11
40.3904
 21
14.3578
  0
LINE
  8
0
 10
40.3904
 20
14.3578
 11
40.3867
 21
14.4261
  0
LINE
  8
0
 10
40.3867
 20
14.4261
 11
40.3705
 21
14.5249
  0
LINE
  8
0
 10
40.3705
 20
14.5249
 11
40.3592
 21
14.5936
  0
LINE
  8
0
 10
40.3592
 20
14.5936
 11
40.3332
 21
14.6855
  0
LINE
  8
0
 10
40.3332
 20
14.6855
 11
40.3142
 21
14.7527
  0
LINE
  8
0
 10
40.3142
 20
14.7527
 11
40.2793
 21
14.8359
  0
LINE
  8
0
 10
40.2793
 20
14.8359
 11
40.2527
 21
14.8995
  0
LINE
  8
0
 10
40.2527
 20
14.8995
 11
40.2101
 21
14.9724
  0
LINE
  8
0
 10
40.2101
 20
14.9724
 11
40.1762
 21
15.0304
  0
LINE
  8
0
 10
40.1762
 20
15.0304
 11
40.1272
 21
15.0918
  0
LINE
  8
0
 10
40.1272
 20
15.0918
 11
40.0868
 21
15.1423
  0
LINE
  8
0
 10
40.0868
 20
15.1423
 11
39.9864
 21
15.2322
  0
LINE
  8
0
 10
39.9864
 20
15.2322
 11
39.9282
 21
15.2675
  0
LINE
  8
0
 10
39.9282
 20
15.2675
 11
39.8777
 21
15.2981
  0
LINE
  8
0
 10
39.8777
 20
15.2981
 11
39.8168
 21
15.3195
  0
LINE
  8
0
 10
39.8168
 20
15.3195
 11
39.7632
 21
15.3383
  0
LINE
  8
0
 10
39.7632
 20
15.3383
 11
39.7011
 21
15.3455
  0
LINE
  8
0
 10
39.7011
 20
15.3455
 11
39.6459
 21
15.3518
  0
LINE
  8
0
 10
39.6459
 20
15.3518
 11
36.5
 21
15.3518
  0
LINE
  8
0
 10
36.5
 20
15.3518
 11
36.5
 21
0
  0
LINE
  8
0
 10
36.5
 20
22.6625
 11
39.6459
 21
22.6625
  0
LINE
  8
0
 10
39.6459
 20
22.6625
 11
39.6584
 21
22.6638
  0
LINE
  8
0
 10
39.6584
 20
22.6638
 11
39.7632
 21
22.6749
  0
LINE
  8
0
 10
39.7632
 20
22.6749
 11
39.7785
 21
22.6798
  0
LINE
  8
0
 10
39.7785
 20
22.6798
 11
39.8777
 21
22.7118
  0
LINE
  8
0
 10
39.8777
 20
22.7118
 11
39.9002
 21
22.7244
  0
LINE
  8
0
 10
39.9002
 20
22.7244
 11
39.9864
 21
22.7724
  0
LINE
  8
0
 10
39.9864
 20
22.7724
 11
40.0194
 21
22.7995
  0
LINE
  8
0
 10
40.0194
 20
22.7995
 11
40.0868
 21
22.855
  0
LINE
  8
0
 10
40.0868
 20
22.855
 11
40.1308
 21
22.9056
  0
LINE
  8
0
 10
40.1308
 20
22.9056
 11
40.1762
 21
22.9578
  0
LINE
  8
0
 10
40.1762
 20
22.9578
 11
40.229
 21
23.0408
  0
LINE
  8
0
 10
40.229
 20
23.0408
 11
40.2527
 21
23.0781
  0
LINE
  8
0
 10
40.2527
 20
23.0781
 11
40.3086
 21
23.2008
  0
LINE
  8
0
 10
40.3086
 20
23.2008
 11
40.3142
 21
23.213
  0
LINE
  8
0
 10
40.3142
 20
23.213
 11
40.3315
 21
23.2692
  0
LINE
  8
0
 10
40.3315
 20
23.2692
 11
40.3592
 21
23.3484
  0
LINE
  8
0
 10
40.3592
 20
23.3484
 11
40.3623
 21
23.3634
  0
LINE
  8
0
 10
40.3623
 20
23.3634
 11
40.3867
 21
23.4839
  0
LINE
  8
0
 10
40.3867
 20
23.4839
 11
40.3894
 21
23.5241
  0
LINE
  8
0
 10
40.3894
 20
23.5241
 11
40.3959
 21
23.6228
  0
LINE
  8
0
 10
40.3959
 20
23.6228
 11
40.3959
 21
25.2045
  0
LINE
  8
0
 10
40.3959
 20
25.2045
 11
40.3943
 21
25.2351
  0
LINE
  8
0
 10
40.3943
 20
25.2351
 11
40.3867
 21
25.3761
  0
LINE
  8
0
 10
40.3867
 20
25.3761
 11
40.3819
 21
25.405
  0
LINE
  8
0
 10
40.3819
 20
25.405
 11
40.3592
 21
25.5436
  0
LINE
  8
0
 10
40.3592
 20
25.5436
 11
40.3517
 21
25.57
  0
LINE
  8
0
 10
40.3517
 20
25.57
 11
40.3142
 21
25.7027
  0
LINE
  8
0
 10
40.3142
 20
25.7027
 11
40.3043
 21
25.7262
  0
LINE
  8
0
 10
40.3043
 20
25.7262
 11
40.2527
 21
25.8495
  0
LINE
  8
0
 10
40.2527
 20
25.8495
 11
40.2408
 21
25.8698
  0
LINE
  8
0
 10
40.2408
 20
25.8698
 11
40.1762
 21
25.9804
  0
LINE
  8
0
 10
40.1762
 20
25.9804
 11
40.1627
 21
25.9973
  0
LINE
  8
0
 10
40.1627
 20
25.9973
 11
40.0868
 21
26.0923
  0
LINE
  8
0
 10
40.0868
 20
26.0923
 11
40.072
 21
26.1055
  0
LINE
  8
0
 10
40.072
 20
26.1055
 11
39.9864
 21
26.1822
  0
LINE
  8
0
 10
39.9864
 20
26.1822
 11
39.9708
 21
26.1917
  0
LINE
  8
0
 10
39.9708
 20
26.1917
 11
39.8777
 21
26.2481
  0
LINE
  8
0
 10
39.8777
 20
26.2481
 11
39.8615
 21
26.2538
  0
LINE
  8
0
 10
39.8615
 20
26.2538
 11
39.7632
 21
26.2883
  0
LINE
  8
0
 10
39.7632
 20
26.2883
 11
39.6459
 21
26.3018
  0
LINE
  8
0
 10
39.6459
 20
26.3018
 11
36.5
 21
26.3018
  0
LINE
  8
0
 10
36.5
 20
26.3018
 11
36.5
 21
22.6625
  0
LINE
  8
0
 10
36.5
 20
32.542
 11
39.6459
 21
32.542
  0
LINE
  8
0
 10
39.6459
 20
32.542
 11
39.7332
 21
32.5489
  0
LINE
  8
0
 10
39.7332
 20
32.5489
 11
39.7632
 21
32.5513
  0
LINE
  8
0
 10
39.7632
 20
32.5513
 11
39.8484
 21
32.5717
  0
LINE
  8
0
 10
39.8484
 20
32.5717
 11
39.8777
 21
32.5787
  0
LINE
  8
0
 10
39.8777
 20
32.5787
 11
39.9588
 21
32.6123
  0
LINE
  8
0
 10
39.9588
 20
32.6123
 11
39.9864
 21
32.6237
  0
LINE
  8
0
 10
39.9864
 20
32.6237
 11
40.0616
 21
32.6698
  0
LINE
  8
0
 10
40.0616
 20
32.6698
 11
40.0868
 21
32.6852
  0
LINE
  8
0
 10
40.0868
 20
32.6852
 11
40.1542
 21
32.7428
  0
LINE
  8
0
 10
40.1542
 20
32.7428
 11
40.1762
 21
32.7616
  0
LINE
  8
0
 10
40.1762
 20
32.7616
 11
40.2343
 21
32.8295
  0
LINE
  8
0
 10
40.2343
 20
32.8295
 11
40.2527
 21
32.851
  0
LINE
  8
0
 10
40.2527
 20
32.851
 11
40.2997
 21
32.9277
  0
LINE
  8
0
 10
40.2997
 20
32.9277
 11
40.3142
 21
32.9513
  0
LINE
  8
0
 10
40.3142
 20
32.9513
 11
40.3489
 21
33.0351
  0
LINE
  8
0
 10
40.3489
 20
33.0351
 11
40.3592
 21
33.0599
  0
LINE
  8
0
 10
40.3592
 20
33.0599
 11
40.3806
 21
33.1489
  0
LINE
  8
0
 10
40.3806
 20
33.1489
 11
40.3867
 21
33.1743
  0
LINE
  8
0
 10
40.3867
 20
33.1743
 11
40.3939
 21
33.2662
  0
LINE
  8
0
 10
40.3939
 20
33.2662
 11
40.3959
 21
33.2916
  0
LINE
  8
0
 10
40.3959
 20
33.2916
 11
40.3959
 21
40
  0
LINE
  8
0
 10
40.3959
 20
40
 11
41
 21
40.6041
  0
LINE
  8
0
 10
41
 20
40.6041
 11
41
 21
41.5
  0
LINE
  8
0
 10
41
 20
41.5
 11
42.28
 21
41.5
  0
LINE
  8
0
 10
42.28
 20
41.5
 11
42.28
 21
45.5
  0
LINE
  8
0
 10
42.28
 20
45.5
 11
36.5
 21
45.5
  0
LINE
  8
0
 10
36.5
 20
45.5
 11
36.5
 21
32.542
  0
LINE
  8
0
 10
45.2154
 20
0
 11
47.5
 21
0
  0
LINE
  8
0
 10
47.5
 20
0
 11
47.5
 21
3.5
  0
LINE
  8
0
 10
47.5
 20
3.5
 11
47
 21
4
  0
LINE
  8
0
 10
47
 20
4
 11
45.2154
 21
4
  0
LINE
  8
0
 10
45.2154
 20
4
 11
45.2154
 21
0
  0
LINE
  8
0
 10
45.2154
 20
41.5
 11
47
 21
41.5
  0
LINE
  8
0
 10
47
 20
41.5
 11
47.5
 21
42
  0
LINE
  8
0
 10
47.5
 20
42
 11
47.5
 21
45.5
  0
LINE
  8
0
 10
47.5
 20
45.5
 11
45.2154
 21
45.5
  0
LINE
  8
0
 10
45.2154
 20
45.5
 11
45.2154
 21
41.5
  0
ENDSEC
  0
SECTION
  2
OBJECTS
  0
DICTIONARY
  0
ENDSEC
  0
EOF
