  0
SECTION
  2
BLOCKS
  0
ENDSEC
  0
SECTION
  2
ENTITIES
  0
LINE
  8
0
 10
0
 20
0
 11
2.41519
 21
0
  0
LINE
  8
0
 10
2.41519
 20
0
 11
2.41519
 21
4
  0
LINE
  8
0
 10
2.41519
 20
4
 11
0.499999
 21
4
  0
LINE
  8
0
 10
0.499999
 20
4
 11
0
 21
3.5
  0
LINE
  8
0
 10
0
 20
3.5
 11
0
 21
0
  0
LINE
  8
0
 10
0
 20
42
 11
0.499999
 21
41.5
  0
LINE
  8
0
 10
0.499999
 20
41.5
 11
2.41519
 21
41.5
  0
LINE
  8
0
 10
2.41519
 20
41.5
 11
2.41519
 21
45.5
  0
LINE
  8
0
 10
2.41519
 20
45.5
 11
0
 21
45.5
  0
LINE
  8
0
 10
0
 20
45.5
 11
0
 21
42
  0
LINE
  8
0
 10
5.0793
 20
0
 11
11
 21
0
  0
LINE
  8
0
 10
11
 20
0
 11
11
 21
15.1382
  0
LINE
  8
0
 10
11
 20
15.1382
 11
7.85409
 21
15.1382
  0
LINE
  8
0
 10
7.85409
 20
15.1382
 11
7.78848
 21
15.1307
  0
LINE
  8
0
 10
7.78848
 20
15.1307
 11
7.73676
 21
15.1247
  0
LINE
  8
0
 10
7.73676
 20
15.1247
 11
7.67253
 21
15.1022
  0
LINE
  8
0
 10
7.67253
 20
15.1022
 11
7.62232
 21
15.0845
  0
LINE
  8
0
 10
7.62232
 20
15.0845
 11
7.56086
 21
15.0473
  0
LINE
  8
0
 10
7.56086
 20
15.0473
 11
7.51359
 21
15.0186
  0
LINE
  8
0
 10
7.51359
 20
15.0186
 11
7.41325
 21
14.9286
  0
LINE
  8
0
 10
7.41325
 20
14.9286
 11
7.36146
 21
14.8639
  0
LINE
  8
0
 10
7.36146
 20
14.8639
 11
7.32376
 21
14.8168
  0
LINE
  8
0
 10
7.32376
 20
14.8168
 11
7.27883
 21
14.7399
  0
LINE
  8
0
 10
7.27883
 20
14.7399
 11
7.24732
 21
14.6859
  0
LINE
  8
0
 10
7.24732
 20
14.6859
 11
7.21055
 21
14.5981
  0
LINE
  8
0
 10
7.21055
 20
14.5981
 11
7.18583
 21
14.539
  0
LINE
  8
0
 10
7.18583
 20
14.539
 11
7.15838
 21
14.4421
  0
LINE
  8
0
 10
7.15838
 20
14.4421
 11
7.14079
 21
14.38
  0
LINE
  8
0
 10
7.14079
 20
14.38
 11
7.12372
 21
14.2759
  0
LINE
  8
0
 10
7.12372
 20
14.2759
 11
7.11332
 21
14.2125
  0
LINE
  8
0
 10
7.11332
 20
14.2125
 11
7.10747
 21
14.1036
  0
LINE
  8
0
 10
7.10747
 20
14.1036
 11
7.10409
 21
14.0408
  0
LINE
  8
0
 10
7.10409
 20
14.0408
 11
7.10409
 21
5.5
  0
LINE
  8
0
 10
7.10409
 20
5.5
 11
6.5
 21
4.89591
  0
LINE
  8
0
 10
6.5
 20
4.89591
 11
6.5
 21
4
  0
LINE
  8
0
 10
6.5
 20
4
 11
5.0793
 21
4
  0
LINE
  8
0
 10
5.0793
 20
4
 11
5.0793
 21
0
  0
LINE
  8
0
 10
5.0793
 20
41.5
 11
6.5
 21
41.5
  0
LINE
  8
0
 10
6.5
 20
41.5
 11
6.5
 21
40.6041
  0
LINE
  8
0
 10
6.5
 20
40.6041
 11
7.10409
 21
40
  0
LINE
  8
0
 10
7.10409
 20
40
 11
7.10409
 21
33.2767
  0
LINE
  8
0
 10
7.10409
 20
33.2767
 11
7.10795
 21
33.2276
  0
LINE
  8
0
 10
7.10795
 20
33.2276
 11
7.11332
 21
33.1594
  0
LINE
  8
0
 10
7.11332
 20
33.1594
 11
7.12426
 21
33.1139
  0
LINE
  8
0
 10
7.12426
 20
33.1139
 11
7.14079
 21
33.0451
  0
LINE
  8
0
 10
7.14079
 20
33.0451
 11
7.15779
 21
33.0041
  0
LINE
  8
0
 10
7.15779
 20
33.0041
 11
7.18583
 21
32.9364
  0
LINE
  8
0
 10
7.18583
 20
32.9364
 11
7.20772
 21
32.9007
  0
LINE
  8
0
 10
7.20772
 20
32.9007
 11
7.24732
 21
32.8361
  0
LINE
  8
0
 10
7.24732
 20
32.8361
 11
7.2729
 21
32.8062
  0
LINE
  8
0
 10
7.2729
 20
32.8062
 11
7.32376
 21
32.7467
  0
LINE
  8
0
 10
7.32376
 20
32.7467
 11
7.35188
 21
32.7227
  0
LINE
  8
0
 10
7.35188
 20
32.7227
 11
7.41325
 21
32.6703
  0
LINE
  8
0
 10
7.41325
 20
32.6703
 11
7.44293
 21
32.6521
  0
LINE
  8
0
 10
7.44293
 20
32.6521
 11
7.51359
 21
32.6089
  0
LINE
  8
0
 10
7.51359
 20
32.6089
 11
7.54405
 21
32.5963
  0
LINE
  8
0
 10
7.54405
 20
32.5963
 11
7.62232
 21
32.5639
  0
LINE
  8
0
 10
7.62232
 20
32.5639
 11
7.65301
 21
32.5565
  0
LINE
  8
0
 10
7.65301
 20
32.5565
 11
7.73676
 21
32.5364
  0
LINE
  8
0
 10
7.73676
 20
32.5364
 11
7.76734
 21
32.534
  0
LINE
  8
0
 10
7.76734
 20
32.534
 11
7.85409
 21
32.5272
  0
LINE
  8
0
 10
7.85409
 20
32.5272
 11
11
 21
32.5272
  0
LINE
  8
0
 10
11
 20
32.5272
 11
11
 21
45.5
  0
LINE
  8
0
 10
11
 20
45.5
 11
5.0793
 21
45.5
  0
LINE
  8
0
 10
5.0793
 20
45.5
 11
5.0793
 21
41.5
  0
LINE
  8
0
 10
7.10409
 20
23.4896
 11
7.11155
 21
23.3621
  0
LINE
  8
0
 10
7.11155
 20
23.3621
 11
7.11332
 21
23.3319
  0
LINE
  8
0
 10
7.11332
 20
23.3319
 11
7.13113
 21
23.2322
  0
LINE
  8
0
 10
7.13113
 20
23.2322
 11
7.14079
 21
23.1781
  0
LINE
  8
0
 10
7.14079
 20
23.1781
 11
7.16253
 21
23.1076
  0
LINE
  8
0
 10
7.16253
 20
23.1076
 11
7.18583
 21
23.0319
  0
LINE
  8
0
 10
7.18583
 20
23.0319
 11
7.20511
 21
22.9896
  0
LINE
  8
0
 10
7.20511
 20
22.9896
 11
7.24732
 21
22.897
  0
LINE
  8
0
 10
7.24732
 20
22.897
 11
7.25837
 21
22.8796
  0
LINE
  8
0
 10
7.25837
 20
22.8796
 11
7.31469
 21
22.791
  0
LINE
  8
0
 10
7.31469
 20
22.791
 11
7.32376
 21
22.7755
  0
LINE
  8
0
 10
7.32376
 20
22.7755
 11
7.32386
 21
22.7754
  0
LINE
  8
0
 10
7.32386
 20
22.7754
 11
7.41325
 21
22.6636
  0
LINE
  8
0
 10
7.41325
 20
22.6636
 11
7.41419
 21
22.6628
  0
LINE
  8
0
 10
7.41419
 20
22.6628
 11
7.51359
 21
22.5737
  0
LINE
  8
0
 10
7.51359
 20
22.5737
 11
7.51533
 21
22.5726
  0
LINE
  8
0
 10
7.51533
 20
22.5726
 11
7.62232
 21
22.5078
  0
LINE
  8
0
 10
7.62232
 20
22.5078
 11
7.6247
 21
22.5069
  0
LINE
  8
0
 10
7.6247
 20
22.5069
 11
7.73676
 21
22.4676
  0
LINE
  8
0
 10
7.73676
 20
22.4676
 11
7.85409
 21
22.4541
  0
LINE
  8
0
 10
7.85409
 20
22.4541
 11
11
 21
22.4541
  0
LINE
  8
0
 10
11
 20
22.4541
 11
11
 21
26.0882
  0
LINE
  8
0
 10
11
 20
26.0882
 11
7.85409
 21
26.0882
  0
LINE
  8
0
 10
7.85409
 20
26.0882
 11
7.73676
 21
26.0747
  0
LINE
  8
0
 10
7.73676
 20
26.0747
 11
7.71902
 21
26.0685
  0
LINE
  8
0
 10
7.71902
 20
26.0685
 11
7.62232
 21
26.0345
  0
LINE
  8
0
 10
7.62232
 20
26.0345
 11
7.60529
 21
26.0242
  0
LINE
  8
0
 10
7.60529
 20
26.0242
 11
7.51359
 21
25.9686
  0
LINE
  8
0
 10
7.51359
 20
25.9686
 11
7.49762
 21
25.9543
  0
LINE
  8
0
 10
7.49762
 20
25.9543
 11
7.41325
 21
25.8786
  0
LINE
  8
0
 10
7.41325
 20
25.8786
 11
7.39869
 21
25.8604
  0
LINE
  8
0
 10
7.39869
 20
25.8604
 11
7.32376
 21
25.7668
  0
LINE
  8
0
 10
7.32376
 20
25.7668
 11
7.311
 21
25.7449
  0
LINE
  8
0
 10
7.311
 20
25.7449
 11
7.24732
 21
25.6359
  0
LINE
  8
0
 10
7.24732
 20
25.6359
 11
7.23676
 21
25.6106
  0
LINE
  8
0
 10
7.23676
 20
25.6106
 11
7.18583
 21
25.489
  0
LINE
  8
0
 10
7.18583
 20
25.489
 11
7.17785
 21
25.4608
  0
LINE
  8
0
 10
7.17785
 20
25.4608
 11
7.14079
 21
25.3299
  0
LINE
  8
0
 10
7.14079
 20
25.3299
 11
7.13576
 21
25.2993
  0
LINE
  8
0
 10
7.13576
 20
25.2993
 11
7.11332
 21
25.1625
  0
LINE
  8
0
 10
7.11332
 20
25.1625
 11
7.11157
 21
25.13
  0
LINE
  8
0
 10
7.11157
 20
25.13
 11
7.10409
 21
24.9908
  0
LINE
  8
0
 10
7.10409
 20
24.9908
 11
7.10409
 21
23.4896
  0
LINE
  8
0
 10
36.5
 20
0
 11
42.4152
 21
0
  0
LINE
  8
0
 10
42.4152
 20
0
 11
42.4152
 21
4
  0
LINE
  8
0
 10
42.4152
 20
4
 11
41
 21
4
  0
LINE
  8
0
 10
41
 20
4
 11
41
 21
4.89591
  0
LINE
  8
0
 10
41
 20
4.89591
 11
40.3959
 21
5.5
  0
LINE
  8
0
 10
40.3959
 20
5.5
 11
40.3959
 21
14.0408
  0
LINE
  8
0
 10
40.3959
 20
14.0408
 11
40.3901
 21
14.1491
  0
LINE
  8
0
 10
40.3901
 20
14.1491
 11
40.3867
 21
14.2125
  0
LINE
  8
0
 10
40.3867
 20
14.2125
 11
40.3697
 21
14.3161
  0
LINE
  8
0
 10
40.3697
 20
14.3161
 11
40.3592
 21
14.38
  0
LINE
  8
0
 10
40.3592
 20
14.38
 11
40.3319
 21
14.4765
  0
LINE
  8
0
 10
40.3319
 20
14.4765
 11
40.3142
 21
14.539
  0
LINE
  8
0
 10
40.3142
 20
14.539
 11
40.2775
 21
14.6266
  0
LINE
  8
0
 10
40.2775
 20
14.6266
 11
40.2527
 21
14.6859
  0
LINE
  8
0
 10
40.2527
 20
14.6859
 11
40.2079
 21
14.7626
  0
LINE
  8
0
 10
40.2079
 20
14.7626
 11
40.1762
 21
14.8168
  0
LINE
  8
0
 10
40.1762
 20
14.8168
 11
40.1246
 21
14.8814
  0
LINE
  8
0
 10
40.1246
 20
14.8814
 11
40.0868
 21
14.9286
  0
LINE
  8
0
 10
40.0868
 20
14.9286
 11
39.9864
 21
15.0186
  0
LINE
  8
0
 10
39.9864
 20
15.0186
 11
39.925
 21
15.0558
  0
LINE
  8
0
 10
39.925
 20
15.0558
 11
39.8777
 21
15.0845
  0
LINE
  8
0
 10
39.8777
 20
15.0845
 11
39.8135
 21
15.1071
  0
LINE
  8
0
 10
39.8135
 20
15.1071
 11
39.7632
 21
15.1247
  0
LINE
  8
0
 10
39.7632
 20
15.1247
 11
39.6976
 21
15.1323
  0
LINE
  8
0
 10
39.6976
 20
15.1323
 11
39.6459
 21
15.1382
  0
LINE
  8
0
 10
39.6459
 20
15.1382
 11
36.5
 21
15.1382
  0
LINE
  8
0
 10
36.5
 20
15.1382
 11
36.5
 21
0
  0
LINE
  8
0
 10
36.5
 20
22.4541
 11
39.6459
 21
22.4541
  0
LINE
  8
0
 10
39.6459
 20
22.4541
 11
39.7632
 21
22.4676
  0
LINE
  8
0
 10
39.7632
 20
22.4676
 11
39.7659
 21
22.4685
  0
LINE
  8
0
 10
39.7659
 20
22.4685
 11
39.8777
 21
22.5078
  0
LINE
  8
0
 10
39.8777
 20
22.5078
 11
39.8799
 21
22.5091
  0
LINE
  8
0
 10
39.8799
 20
22.5091
 11
39.9864
 21
22.5737
  0
LINE
  8
0
 10
39.9864
 20
22.5737
 11
39.988
 21
22.5751
  0
LINE
  8
0
 10
39.988
 20
22.5751
 11
40.0868
 21
22.6636
  0
LINE
  8
0
 10
40.0868
 20
22.6636
 11
40.0876
 21
22.6647
  0
LINE
  8
0
 10
40.0876
 20
22.6647
 11
40.1762
 21
22.7755
  0
LINE
  8
0
 10
40.1762
 20
22.7755
 11
40.1763
 21
22.7756
  0
LINE
  8
0
 10
40.1763
 20
22.7756
 11
40.1853
 21
22.791
  0
LINE
  8
0
 10
40.1853
 20
22.791
 11
40.2527
 21
22.897
  0
LINE
  8
0
 10
40.2527
 20
22.897
 11
40.2652
 21
22.9245
  0
LINE
  8
0
 10
40.2652
 20
22.9245
 11
40.3142
 21
23.0319
  0
LINE
  8
0
 10
40.3142
 20
23.0319
 11
40.3345
 21
23.0978
  0
LINE
  8
0
 10
40.3345
 20
23.0978
 11
40.3592
 21
23.1781
  0
LINE
  8
0
 10
40.3592
 20
23.1781
 11
40.3785
 21
23.2858
  0
LINE
  8
0
 10
40.3785
 20
23.2858
 11
40.3867
 21
23.3319
  0
LINE
  8
0
 10
40.3867
 20
23.3319
 11
40.3954
 21
23.4802
  0
LINE
  8
0
 10
40.3954
 20
23.4802
 11
40.3959
 21
23.4896
  0
LINE
  8
0
 10
40.3959
 20
23.4896
 11
40.3959
 21
24.9908
  0
LINE
  8
0
 10
40.3959
 20
24.9908
 11
40.3941
 21
25.024
  0
LINE
  8
0
 10
40.3941
 20
25.024
 11
40.3867
 21
25.1625
  0
LINE
  8
0
 10
40.3867
 20
25.1625
 11
40.3815
 21
25.1938
  0
LINE
  8
0
 10
40.3815
 20
25.1938
 11
40.3592
 21
25.3299
  0
LINE
  8
0
 10
40.3592
 20
25.3299
 11
40.3511
 21
25.3587
  0
LINE
  8
0
 10
40.3511
 20
25.3587
 11
40.3142
 21
25.489
  0
LINE
  8
0
 10
40.3142
 20
25.489
 11
40.3034
 21
25.5148
  0
LINE
  8
0
 10
40.3034
 20
25.5148
 11
40.2527
 21
25.6359
  0
LINE
  8
0
 10
40.2527
 20
25.6359
 11
40.2397
 21
25.6581
  0
LINE
  8
0
 10
40.2397
 20
25.6581
 11
40.1762
 21
25.7668
  0
LINE
  8
0
 10
40.1762
 20
25.7668
 11
40.1614
 21
25.7853
  0
LINE
  8
0
 10
40.1614
 20
25.7853
 11
40.0868
 21
25.8786
  0
LINE
  8
0
 10
40.0868
 20
25.8786
 11
40.0705
 21
25.8932
  0
LINE
  8
0
 10
40.0705
 20
25.8932
 11
39.9864
 21
25.9686
  0
LINE
  8
0
 10
39.9864
 20
25.9686
 11
39.9692
 21
25.979
  0
LINE
  8
0
 10
39.9692
 20
25.979
 11
39.8777
 21
26.0345
  0
LINE
  8
0
 10
39.8777
 20
26.0345
 11
39.8598
 21
26.0408
  0
LINE
  8
0
 10
39.8598
 20
26.0408
 11
39.7632
 21
26.0747
  0
LINE
  8
0
 10
39.7632
 20
26.0747
 11
39.6459
 21
26.0882
  0
LINE
  8
0
 10
39.6459
 20
26.0882
 11
36.5
 21
26.0882
  0
LINE
  8
0
 10
36.5
 20
26.0882
 11
36.5
 21
22.4541
  0
LINE
  8
0
 10
36.5
 20
32.5272
 11
39.6459
 21
32.5272
  0
LINE
  8
0
 10
39.6459
 20
32.5272
 11
39.6762
 21
32.5295
  0
LINE
  8
0
 10
39.6762
 20
32.5295
 11
39.7632
 21
32.5364
  0
LINE
  8
0
 10
39.7632
 20
32.5364
 11
39.793
 21
32.5436
  0
LINE
  8
0
 10
39.793
 20
32.5436
 11
39.8777
 21
32.5639
  0
LINE
  8
0
 10
39.8777
 20
32.5639
 11
39.9068
 21
32.5759
  0
LINE
  8
0
 10
39.9068
 20
32.5759
 11
39.9864
 21
32.6089
  0
LINE
  8
0
 10
39.9864
 20
32.6089
 11
40.0145
 21
32.626
  0
LINE
  8
0
 10
40.0145
 20
32.626
 11
40.0868
 21
32.6703
  0
LINE
  8
0
 10
40.0868
 20
32.6703
 11
40.1132
 21
32.6928
  0
LINE
  8
0
 10
40.1132
 20
32.6928
 11
40.1762
 21
32.7467
  0
LINE
  8
0
 10
40.1762
 20
32.7467
 11
40.2002
 21
32.7747
  0
LINE
  8
0
 10
40.2002
 20
32.7747
 11
40.2527
 21
32.8361
  0
LINE
  8
0
 10
40.2527
 20
32.8361
 11
40.2732
 21
32.8696
  0
LINE
  8
0
 10
40.2732
 20
32.8696
 11
40.3142
 21
32.9364
  0
LINE
  8
0
 10
40.3142
 20
32.9364
 11
40.3301
 21
32.9749
  0
LINE
  8
0
 10
40.3301
 20
32.9749
 11
40.3592
 21
33.0451
  0
LINE
  8
0
 10
40.3592
 20
33.0451
 11
40.3695
 21
33.0881
  0
LINE
  8
0
 10
40.3695
 20
33.0881
 11
40.3867
 21
33.1594
  0
LINE
  8
0
 10
40.3867
 20
33.1594
 11
40.3903
 21
33.206
  0
LINE
  8
0
 10
40.3903
 20
33.206
 11
40.3959
 21
33.2767
  0
LINE
  8
0
 10
40.3959
 20
33.2767
 11
40.3959
 21
40
  0
LINE
  8
0
 10
40.3959
 20
40
 11
41
 21
40.6041
  0
LINE
  8
0
 10
41
 20
40.6041
 11
41
 21
41.5
  0
LINE
  8
0
 10
41
 20
41.5
 11
42.4152
 21
41.5
  0
LINE
  8
0
 10
42.4152
 20
41.5
 11
42.4152
 21
45.5
  0
LINE
  8
0
 10
42.4152
 20
45.5
 11
36.5
 21
45.5
  0
LINE
  8
0
 10
36.5
 20
45.5
 11
36.5
 21
32.5272
  0
LINE
  8
0
 10
45.0793
 20
0
 11
47.5
 21
0
  0
LINE
  8
0
 10
47.5
 20
0
 11
47.5
 21
3.5
  0
LINE
  8
0
 10
47.5
 20
3.5
 11
47
 21
4
  0
LINE
  8
0
 10
47
 20
4
 11
45.0793
 21
4
  0
LINE
  8
0
 10
45.0793
 20
4
 11
45.0793
 21
0
  0
LINE
  8
0
 10
45.0793
 20
41.5
 11
47
 21
41.5
  0
LINE
  8
0
 10
47
 20
41.5
 11
47.5
 21
42
  0
LINE
  8
0
 10
47.5
 20
42
 11
47.5
 21
45.5
  0
LINE
  8
0
 10
47.5
 20
45.5
 11
45.0793
 21
45.5
  0
LINE
  8
0
 10
45.0793
 20
45.5
 11
45.0793
 21
41.5
  0
ENDSEC
  0
SECTION
  2
OBJECTS
  0
DICTIONARY
  0
ENDSEC
  0
EOF
