  0
SECTION
  2
BLOCKS
  0
ENDSEC
  0
SECTION
  2
ENTITIES
  0
LINE
  8
0
 10
0
 20
0
 11
2.6018
 21
0
  0
LINE
  8
0
 10
2.6018
 20
0
 11
2.6018
 21
4
  0
LINE
  8
0
 10
2.6018
 20
4
 11
0.499999
 21
4
  0
LINE
  8
0
 10
0.499999
 20
4
 11
0
 21
3.5
  0
LINE
  8
0
 10
0
 20
3.5
 11
0
 21
0
  0
LINE
  8
0
 10
0
 20
42
 11
0.499999
 21
41.5
  0
LINE
  8
0
 10
0.499999
 20
41.5
 11
2.6018
 21
41.5
  0
LINE
  8
0
 10
2.6018
 20
41.5
 11
2.6018
 21
45.5
  0
LINE
  8
0
 10
2.6018
 20
45.5
 11
0
 21
45.5
  0
LINE
  8
0
 10
0
 20
45.5
 11
0
 21
42
  0
LINE
  8
0
 10
4.89358
 20
0
 11
11
 21
0
  0
LINE
  8
0
 10
11
 20
0
 11
11
 21
14.9246
  0
LINE
  8
0
 10
11
 20
14.9246
 11
7.85409
 21
14.9246
  0
LINE
  8
0
 10
7.85409
 20
14.9246
 11
7.78504
 21
14.9167
  0
LINE
  8
0
 10
7.78504
 20
14.9167
 11
7.73676
 21
14.9111
  0
LINE
  8
0
 10
7.73676
 20
14.9111
 11
7.66917
 21
14.8873
  0
LINE
  8
0
 10
7.66917
 20
14.8873
 11
7.62232
 21
14.8709
  0
LINE
  8
0
 10
7.62232
 20
14.8709
 11
7.55766
 21
14.8317
  0
LINE
  8
0
 10
7.55766
 20
14.8317
 11
7.51359
 21
14.805
  0
LINE
  8
0
 10
7.51359
 20
14.805
 11
7.41325
 21
14.715
  0
LINE
  8
0
 10
7.41325
 20
14.715
 11
7.35882
 21
14.647
  0
LINE
  8
0
 10
7.35882
 20
14.647
 11
7.32376
 21
14.6032
  0
LINE
  8
0
 10
7.32376
 20
14.6032
 11
7.27658
 21
14.5224
  0
LINE
  8
0
 10
7.27658
 20
14.5224
 11
7.24732
 21
14.4722
  0
LINE
  8
0
 10
7.24732
 20
14.4722
 11
7.20873
 21
14.3801
  0
LINE
  8
0
 10
7.20873
 20
14.3801
 11
7.18583
 21
14.3254
  0
LINE
  8
0
 10
7.18583
 20
14.3254
 11
7.15705
 21
14.2238
  0
LINE
  8
0
 10
7.15705
 20
14.2238
 11
7.14079
 21
14.1663
  0
LINE
  8
0
 10
7.14079
 20
14.1663
 11
7.1229
 21
14.0573
  0
LINE
  8
0
 10
7.1229
 20
14.0573
 11
7.11332
 21
13.9989
  0
LINE
  8
0
 10
7.11332
 20
13.9989
 11
7.10719
 21
13.8849
  0
LINE
  8
0
 10
7.10719
 20
13.8849
 11
7.10409
 21
13.8272
  0
LINE
  8
0
 10
7.10409
 20
13.8272
 11
7.10409
 21
5.5
  0
LINE
  8
0
 10
7.10409
 20
5.5
 11
6.5
 21
4.89591
  0
LINE
  8
0
 10
6.5
 20
4.89591
 11
6.5
 21
4
  0
LINE
  8
0
 10
6.5
 20
4
 11
4.89358
 21
4
  0
LINE
  8
0
 10
4.89358
 20
4
 11
4.89358
 21
0
  0
LINE
  8
0
 10
4.89358
 20
41.5
 11
6.5
 21
41.5
  0
LINE
  8
0
 10
6.5
 20
41.5
 11
6.5
 21
40.6041
  0
LINE
  8
0
 10
6.5
 20
40.6041
 11
7.10409
 21
40
  0
LINE
  8
0
 10
7.10409
 20
40
 11
7.10409
 21
33.2618
  0
LINE
  8
0
 10
7.10409
 20
33.2618
 11
7.10449
 21
33.2566
  0
LINE
  8
0
 10
7.10449
 20
33.2566
 11
7.11332
 21
33.1445
  0
LINE
  8
0
 10
7.11332
 20
33.1445
 11
7.11359
 21
33.1434
  0
LINE
  8
0
 10
7.11359
 20
33.1434
 11
7.12119
 21
33.1118
  0
LINE
  8
0
 10
7.12119
 20
33.1118
 11
7.14012
 21
33.0309
  0
LINE
  8
0
 10
7.14012
 20
33.0309
 11
7.14079
 21
33.028
  0
LINE
  8
0
 10
7.14079
 20
33.028
 11
7.18316
 21
32.9231
  0
LINE
  8
0
 10
7.18316
 20
32.9231
 11
7.18583
 21
32.9165
  0
LINE
  8
0
 10
7.18583
 20
32.9165
 11
7.24153
 21
32.8232
  0
LINE
  8
0
 10
7.24153
 20
32.8232
 11
7.24732
 21
32.8135
  0
LINE
  8
0
 10
7.24732
 20
32.8135
 11
7.31398
 21
32.7335
  0
LINE
  8
0
 10
7.31398
 20
32.7335
 11
7.32376
 21
32.7217
  0
LINE
  8
0
 10
7.32376
 20
32.7217
 11
7.399
 21
32.6558
  0
LINE
  8
0
 10
7.399
 20
32.6558
 11
7.41325
 21
32.6433
  0
LINE
  8
0
 10
7.41325
 20
32.6433
 11
7.49486
 21
32.592
  0
LINE
  8
0
 10
7.49486
 20
32.592
 11
7.51359
 21
32.5802
  0
LINE
  8
0
 10
7.51359
 20
32.5802
 11
7.5996
 21
32.5437
  0
LINE
  8
0
 10
7.5996
 20
32.5437
 11
7.62232
 21
32.534
  0
LINE
  8
0
 10
7.62232
 20
32.534
 11
7.71108
 21
32.5122
  0
LINE
  8
0
 10
7.71108
 20
32.5122
 11
7.73676
 21
32.5058
  0
LINE
  8
0
 10
7.73676
 20
32.5058
 11
7.82686
 21
32.4986
  0
LINE
  8
0
 10
7.82686
 20
32.4986
 11
7.85409
 21
32.4964
  0
LINE
  8
0
 10
7.85409
 20
32.4964
 11
11
 21
32.4964
  0
LINE
  8
0
 10
11
 20
32.4964
 11
11
 21
45.5
  0
LINE
  8
0
 10
11
 20
45.5
 11
4.89358
 21
45.5
  0
LINE
  8
0
 10
4.89358
 20
45.5
 11
4.89358
 21
41.5
  0
LINE
  8
0
 10
7.10409
 20
23.3086
 11
7.10762
 21
23.2483
  0
LINE
  8
0
 10
7.10762
 20
23.2483
 11
7.11332
 21
23.1509
  0
LINE
  8
0
 10
7.11332
 20
23.1509
 11
7.119
 21
23.1191
  0
LINE
  8
0
 10
7.119
 20
23.1191
 11
7.14079
 21
22.997
  0
LINE
  8
0
 10
7.14079
 20
22.997
 11
7.14185
 21
22.9936
  0
LINE
  8
0
 10
7.14185
 20
22.9936
 11
7.14659
 21
22.9783
  0
LINE
  8
0
 10
7.14659
 20
22.9783
 11
7.18583
 21
22.8396
  0
LINE
  8
0
 10
7.18583
 20
22.8396
 11
7.18646
 21
22.8381
  0
LINE
  8
0
 10
7.18646
 20
22.8381
 11
7.24732
 21
22.6928
  0
LINE
  8
0
 10
7.24732
 20
22.6928
 11
7.24893
 21
22.69
  0
LINE
  8
0
 10
7.24893
 20
22.69
 11
7.32376
 21
22.5619
  0
LINE
  8
0
 10
7.32376
 20
22.5619
 11
7.3265
 21
22.5584
  0
LINE
  8
0
 10
7.3265
 20
22.5584
 11
7.41325
 21
22.45
  0
LINE
  8
0
 10
7.41325
 20
22.45
 11
7.41714
 21
22.4465
  0
LINE
  8
0
 10
7.41714
 20
22.4465
 11
7.51359
 21
22.3601
  0
LINE
  8
0
 10
7.51359
 20
22.3601
 11
7.51852
 21
22.3571
  0
LINE
  8
0
 10
7.51852
 20
22.3571
 11
7.62232
 21
22.2942
  0
LINE
  8
0
 10
7.62232
 20
22.2942
 11
7.62806
 21
22.2921
  0
LINE
  8
0
 10
7.62806
 20
22.2921
 11
7.73676
 21
22.254
  0
LINE
  8
0
 10
7.73676
 20
22.254
 11
7.85409
 21
22.2404
  0
LINE
  8
0
 10
7.85409
 20
22.2404
 11
11
 21
22.2404
  0
LINE
  8
0
 10
11
 20
22.2404
 11
11
 21
25.8746
  0
LINE
  8
0
 10
11
 20
25.8746
 11
7.85409
 21
25.8746
  0
LINE
  8
0
 10
7.85409
 20
25.8746
 11
7.73676
 21
25.8611
  0
LINE
  8
0
 10
7.73676
 20
25.8611
 11
7.71734
 21
25.8543
  0
LINE
  8
0
 10
7.71734
 20
25.8543
 11
7.62232
 21
25.8209
  0
LINE
  8
0
 10
7.62232
 20
25.8209
 11
7.6037
 21
25.8096
  0
LINE
  8
0
 10
7.6037
 20
25.8096
 11
7.51359
 21
25.755
  0
LINE
  8
0
 10
7.51359
 20
25.755
 11
7.49614
 21
25.7393
  0
LINE
  8
0
 10
7.49614
 20
25.7393
 11
7.41325
 21
25.665
  0
LINE
  8
0
 10
7.41325
 20
25.665
 11
7.39738
 21
25.6452
  0
LINE
  8
0
 10
7.39738
 20
25.6452
 11
7.32376
 21
25.5532
  0
LINE
  8
0
 10
7.32376
 20
25.5532
 11
7.30988
 21
25.5294
  0
LINE
  8
0
 10
7.30988
 20
25.5294
 11
7.24732
 21
25.4222
  0
LINE
  8
0
 10
7.24732
 20
25.4222
 11
7.23586
 21
25.3949
  0
LINE
  8
0
 10
7.23586
 20
25.3949
 11
7.18583
 21
25.2754
  0
LINE
  8
0
 10
7.18583
 20
25.2754
 11
7.17719
 21
25.2449
  0
LINE
  8
0
 10
7.17719
 20
25.2449
 11
7.14079
 21
25.1163
  0
LINE
  8
0
 10
7.14079
 20
25.1163
 11
7.13536
 21
25.0832
  0
LINE
  8
0
 10
7.13536
 20
25.0832
 11
7.11332
 21
24.9489
  0
LINE
  8
0
 10
7.11332
 20
24.9489
 11
7.11144
 21
24.9139
  0
LINE
  8
0
 10
7.11144
 20
24.9139
 11
7.10409
 21
24.7772
  0
LINE
  8
0
 10
7.10409
 20
24.7772
 11
7.10409
 21
23.3086
  0
LINE
  8
0
 10
36.5
 20
0
 11
42.6018
 21
0
  0
LINE
  8
0
 10
42.6018
 20
0
 11
42.6018
 21
4
  0
LINE
  8
0
 10
42.6018
 20
4
 11
41
 21
4
  0
LINE
  8
0
 10
41
 20
4
 11
41
 21
4.89591
  0
LINE
  8
0
 10
41
 20
4.89591
 11
40.3959
 21
5.5
  0
LINE
  8
0
 10
40.3959
 20
5.5
 11
40.3959
 21
13.8272
  0
LINE
  8
0
 10
40.3959
 20
13.8272
 11
40.3898
 21
13.9405
  0
LINE
  8
0
 10
40.3898
 20
13.9405
 11
40.3867
 21
13.9989
  0
LINE
  8
0
 10
40.3867
 20
13.9989
 11
40.3689
 21
14.1073
  0
LINE
  8
0
 10
40.3689
 20
14.1073
 11
40.3592
 21
14.1663
  0
LINE
  8
0
 10
40.3592
 20
14.1663
 11
40.3306
 21
14.2675
  0
LINE
  8
0
 10
40.3306
 20
14.2675
 11
40.3142
 21
14.3254
  0
LINE
  8
0
 10
40.3142
 20
14.3254
 11
40.2757
 21
14.4172
  0
LINE
  8
0
 10
40.2757
 20
14.4172
 11
40.2527
 21
14.4722
  0
LINE
  8
0
 10
40.2527
 20
14.4722
 11
40.2057
 21
14.5528
  0
LINE
  8
0
 10
40.2057
 20
14.5528
 11
40.1762
 21
14.6032
  0
LINE
  8
0
 10
40.1762
 20
14.6032
 11
40.122
 21
14.671
  0
LINE
  8
0
 10
40.122
 20
14.671
 11
40.0868
 21
14.715
  0
LINE
  8
0
 10
40.0868
 20
14.715
 11
39.9864
 21
14.805
  0
LINE
  8
0
 10
39.9864
 20
14.805
 11
39.9218
 21
14.8441
  0
LINE
  8
0
 10
39.9218
 20
14.8441
 11
39.8777
 21
14.8709
  0
LINE
  8
0
 10
39.8777
 20
14.8709
 11
39.8101
 21
14.8946
  0
LINE
  8
0
 10
39.8101
 20
14.8946
 11
39.7632
 21
14.9111
  0
LINE
  8
0
 10
39.7632
 20
14.9111
 11
39.6942
 21
14.919
  0
LINE
  8
0
 10
39.6942
 20
14.919
 11
39.6459
 21
14.9246
  0
LINE
  8
0
 10
39.6459
 20
14.9246
 11
36.5
 21
14.9246
  0
LINE
  8
0
 10
36.5
 20
14.9246
 11
36.5
 21
0
  0
LINE
  8
0
 10
36.5
 20
22.2404
 11
39.6459
 21
22.2404
  0
LINE
  8
0
 10
39.6459
 20
22.2404
 11
39.7632
 21
22.254
  0
LINE
  8
0
 10
39.7632
 20
22.254
 11
39.7693
 21
22.2561
  0
LINE
  8
0
 10
39.7693
 20
22.2561
 11
39.8777
 21
22.2942
  0
LINE
  8
0
 10
39.8777
 20
22.2942
 11
39.8831
 21
22.2974
  0
LINE
  8
0
 10
39.8831
 20
22.2974
 11
39.9864
 21
22.3601
  0
LINE
  8
0
 10
39.9864
 20
22.3601
 11
39.9909
 21
22.3641
  0
LINE
  8
0
 10
39.9909
 20
22.3641
 11
40.0868
 21
22.45
  0
LINE
  8
0
 10
40.0868
 20
22.45
 11
40.0902
 21
22.4543
  0
LINE
  8
0
 10
40.0902
 20
22.4543
 11
40.1762
 21
22.5619
  0
LINE
  8
0
 10
40.1762
 20
22.5619
 11
40.1785
 21
22.5658
  0
LINE
  8
0
 10
40.1785
 20
22.5658
 11
40.2527
 21
22.6928
  0
LINE
  8
0
 10
40.2527
 20
22.6928
 11
40.2539
 21
22.6958
  0
LINE
  8
0
 10
40.2539
 20
22.6958
 11
40.3142
 21
22.8396
  0
LINE
  8
0
 10
40.3142
 20
22.8396
 11
40.3534
 21
22.9783
  0
LINE
  8
0
 10
40.3534
 20
22.9783
 11
40.3592
 21
22.997
  0
LINE
  8
0
 10
40.3592
 20
22.997
 11
40.3601
 21
23.0023
  0
LINE
  8
0
 10
40.3601
 20
23.0023
 11
40.3867
 21
23.1509
  0
LINE
  8
0
 10
40.3867
 20
23.1509
 11
40.3894
 21
23.1982
  0
LINE
  8
0
 10
40.3894
 20
23.1982
 11
40.3959
 21
23.3086
  0
LINE
  8
0
 10
40.3959
 20
23.3086
 11
40.3959
 21
24.7772
  0
LINE
  8
0
 10
40.3959
 20
24.7772
 11
40.394
 21
24.8129
  0
LINE
  8
0
 10
40.394
 20
24.8129
 11
40.3867
 21
24.9489
  0
LINE
  8
0
 10
40.3867
 20
24.9489
 11
40.3811
 21
24.9826
  0
LINE
  8
0
 10
40.3811
 20
24.9826
 11
40.3592
 21
25.1163
  0
LINE
  8
0
 10
40.3592
 20
25.1163
 11
40.3504
 21
25.1474
  0
LINE
  8
0
 10
40.3504
 20
25.1474
 11
40.3142
 21
25.2754
  0
LINE
  8
0
 10
40.3142
 20
25.2754
 11
40.3025
 21
25.3033
  0
LINE
  8
0
 10
40.3025
 20
25.3033
 11
40.2527
 21
25.4222
  0
LINE
  8
0
 10
40.2527
 20
25.4222
 11
40.2386
 21
25.4464
  0
LINE
  8
0
 10
40.2386
 20
25.4464
 11
40.1762
 21
25.5532
  0
LINE
  8
0
 10
40.1762
 20
25.5532
 11
40.1601
 21
25.5733
  0
LINE
  8
0
 10
40.1601
 20
25.5733
 11
40.0868
 21
25.665
  0
LINE
  8
0
 10
40.0868
 20
25.665
 11
40.0691
 21
25.6808
  0
LINE
  8
0
 10
40.0691
 20
25.6808
 11
39.9864
 21
25.755
  0
LINE
  8
0
 10
39.9864
 20
25.755
 11
39.9676
 21
25.7664
  0
LINE
  8
0
 10
39.9676
 20
25.7664
 11
39.8777
 21
25.8209
  0
LINE
  8
0
 10
39.8777
 20
25.8209
 11
39.8581
 21
25.8277
  0
LINE
  8
0
 10
39.8581
 20
25.8277
 11
39.7632
 21
25.8611
  0
LINE
  8
0
 10
39.7632
 20
25.8611
 11
39.6459
 21
25.8746
  0
LINE
  8
0
 10
39.6459
 20
25.8746
 11
36.5
 21
25.8746
  0
LINE
  8
0
 10
36.5
 20
25.8746
 11
36.5
 21
22.2404
  0
LINE
  8
0
 10
36.5
 20
32.4964
 11
39.6459
 21
32.4964
  0
LINE
  8
0
 10
39.6459
 20
32.4964
 11
39.7361
 21
32.5036
  0
LINE
  8
0
 10
39.7361
 20
32.5036
 11
39.7632
 21
32.5058
  0
LINE
  8
0
 10
39.7632
 20
32.5058
 11
39.8524
 21
32.5278
  0
LINE
  8
0
 10
39.8524
 20
32.5278
 11
39.8777
 21
32.534
  0
LINE
  8
0
 10
39.8777
 20
32.534
 11
39.9644
 21
32.5709
  0
LINE
  8
0
 10
39.9644
 20
32.5709
 11
39.9864
 21
32.5802
  0
LINE
  8
0
 10
39.9864
 20
32.5802
 11
40.069
 21
32.6322
  0
LINE
  8
0
 10
40.069
 20
32.6322
 11
40.0868
 21
32.6433
  0
LINE
  8
0
 10
40.0868
 20
32.6433
 11
40.1633
 21
32.7104
  0
LINE
  8
0
 10
40.1633
 20
32.7104
 11
40.1762
 21
32.7217
  0
LINE
  8
0
 10
40.1762
 20
32.7217
 11
40.2445
 21
32.8036
  0
LINE
  8
0
 10
40.2445
 20
32.8036
 11
40.2527
 21
32.8135
  0
LINE
  8
0
 10
40.2527
 20
32.8135
 11
40.31
 21
32.9094
  0
LINE
  8
0
 10
40.31
 20
32.9094
 11
40.3142
 21
32.9165
  0
LINE
  8
0
 10
40.3142
 20
32.9165
 11
40.3579
 21
33.0249
  0
LINE
  8
0
 10
40.3579
 20
33.0249
 11
40.3592
 21
33.028
  0
LINE
  8
0
 10
40.3592
 20
33.028
 11
40.3788
 21
33.1118
  0
LINE
  8
0
 10
40.3788
 20
33.1118
 11
40.3867
 21
33.1445
  0
LINE
  8
0
 10
40.3867
 20
33.1445
 11
40.3868
 21
33.1457
  0
LINE
  8
0
 10
40.3868
 20
33.1457
 11
40.3959
 21
33.2618
  0
LINE
  8
0
 10
40.3959
 20
33.2618
 11
40.3959
 21
40
  0
LINE
  8
0
 10
40.3959
 20
40
 11
41
 21
40.6041
  0
LINE
  8
0
 10
41
 20
40.6041
 11
41
 21
41.5
  0
LINE
  8
0
 10
41
 20
41.5
 11
42.6018
 21
41.5
  0
LINE
  8
0
 10
42.6018
 20
41.5
 11
42.6018
 21
45.5
  0
LINE
  8
0
 10
42.6018
 20
45.5
 11
36.5
 21
45.5
  0
LINE
  8
0
 10
36.5
 20
45.5
 11
36.5
 21
32.4964
  0
LINE
  8
0
 10
44.8936
 20
0
 11
47.5
 21
0
  0
LINE
  8
0
 10
47.5
 20
0
 11
47.5
 21
3.5
  0
LINE
  8
0
 10
47.5
 20
3.5
 11
47
 21
4
  0
LINE
  8
0
 10
47
 20
4
 11
44.8936
 21
4
  0
LINE
  8
0
 10
44.8936
 20
4
 11
44.8936
 21
0
  0
LINE
  8
0
 10
44.8936
 20
41.5
 11
47
 21
41.5
  0
LINE
  8
0
 10
47
 20
41.5
 11
47.5
 21
42
  0
LINE
  8
0
 10
47.5
 20
42
 11
47.5
 21
45.5
  0
LINE
  8
0
 10
47.5
 20
45.5
 11
44.8936
 21
45.5
  0
LINE
  8
0
 10
44.8936
 20
45.5
 11
44.8936
 21
41.5
  0
ENDSEC
  0
SECTION
  2
OBJECTS
  0
DICTIONARY
  0
ENDSEC
  0
EOF
