  0
SECTION
  2
BLOCKS
  0
ENDSEC
  0
SECTION
  2
ENTITIES
  0
LINE
  8
0
 10
0
 20
0
 11
2.86344
 21
0
  0
LINE
  8
0
 10
2.86344
 20
0
 11
2.86344
 21
4
  0
LINE
  8
0
 10
2.86344
 20
4
 11
0.499999
 21
4
  0
LINE
  8
0
 10
0.499999
 20
4
 11
0
 21
3.5
  0
LINE
  8
0
 10
0
 20
3.5
 11
0
 21
0
  0
LINE
  8
0
 10
0
 20
42
 11
0.499999
 21
41.5
  0
LINE
  8
0
 10
0.499999
 20
41.5
 11
2.86344
 21
41.5
  0
LINE
  8
0
 10
2.86344
 20
41.5
 11
2.86344
 21
45.5
  0
LINE
  8
0
 10
2.86344
 20
45.5
 11
0
 21
45.5
  0
LINE
  8
0
 10
0
 20
45.5
 11
0
 21
42
  0
LINE
  8
0
 10
4.62574
 20
0
 11
11
 21
0
  0
LINE
  8
0
 10
11
 20
0
 11
11
 21
14.711
  0
LINE
  8
0
 10
11
 20
14.711
 11
7.85409
 21
14.711
  0
LINE
  8
0
 10
7.85409
 20
14.711
 11
7.7816
 21
14.7026
  0
LINE
  8
0
 10
7.7816
 20
14.7026
 11
7.73676
 21
14.6975
  0
LINE
  8
0
 10
7.73676
 20
14.6975
 11
7.66581
 21
14.6725
  0
LINE
  8
0
 10
7.66581
 20
14.6725
 11
7.62232
 21
14.6573
  0
LINE
  8
0
 10
7.62232
 20
14.6573
 11
7.55447
 21
14.6161
  0
LINE
  8
0
 10
7.55447
 20
14.6161
 11
7.51359
 21
14.5914
  0
LINE
  8
0
 10
7.51359
 20
14.5914
 11
7.41325
 21
14.5014
  0
LINE
  8
0
 10
7.41325
 20
14.5014
 11
7.35618
 21
14.4301
  0
LINE
  8
0
 10
7.35618
 20
14.4301
 11
7.32376
 21
14.3896
  0
LINE
  8
0
 10
7.32376
 20
14.3896
 11
7.27432
 21
14.3049
  0
LINE
  8
0
 10
7.27432
 20
14.3049
 11
7.24732
 21
14.2586
  0
LINE
  8
0
 10
7.24732
 20
14.2586
 11
7.20691
 21
14.1621
  0
LINE
  8
0
 10
7.20691
 20
14.1621
 11
7.18583
 21
14.1118
  0
LINE
  8
0
 10
7.18583
 20
14.1118
 11
7.15572
 21
14.0054
  0
LINE
  8
0
 10
7.15572
 20
14.0054
 11
7.14079
 21
13.9527
  0
LINE
  8
0
 10
7.14079
 20
13.9527
 11
7.12209
 21
13.8387
  0
LINE
  8
0
 10
7.12209
 20
13.8387
 11
7.11332
 21
13.7853
  0
LINE
  8
0
 10
7.11332
 20
13.7853
 11
7.10692
 21
13.6662
  0
LINE
  8
0
 10
7.10692
 20
13.6662
 11
7.10409
 21
13.6136
  0
LINE
  8
0
 10
7.10409
 20
13.6136
 11
7.10409
 21
5.5
  0
LINE
  8
0
 10
7.10409
 20
5.5
 11
6.5
 21
4.89591
  0
LINE
  8
0
 10
6.5
 20
4.89591
 11
6.5
 21
4
  0
LINE
  8
0
 10
6.5
 20
4
 11
4.62574
 21
4
  0
LINE
  8
0
 10
4.62574
 20
4
 11
4.62574
 21
0
  0
LINE
  8
0
 10
4.62574
 20
41.5
 11
6.5
 21
41.5
  0
LINE
  8
0
 10
6.5
 20
41.5
 11
6.5
 21
40.6041
  0
LINE
  8
0
 10
6.5
 20
40.6041
 11
7.10409
 21
40
  0
LINE
  8
0
 10
7.10409
 20
40
 11
7.10409
 21
33.2169
  0
LINE
  8
0
 10
7.10409
 20
33.2169
 11
7.10999
 21
33.14
  0
LINE
  8
0
 10
7.10999
 20
33.14
 11
7.11332
 21
33.0966
  0
LINE
  8
0
 10
7.11332
 20
33.0966
 11
7.12956
 21
33.0271
  0
LINE
  8
0
 10
7.12956
 20
33.0271
 11
7.14079
 21
32.9792
  0
LINE
  8
0
 10
7.14079
 20
32.9792
 11
7.16519
 21
32.9187
  0
LINE
  8
0
 10
7.16519
 20
32.9187
 11
7.18583
 21
32.8676
  0
LINE
  8
0
 10
7.18583
 20
32.8676
 11
7.21604
 21
32.817
  0
LINE
  8
0
 10
7.21604
 20
32.817
 11
7.24732
 21
32.7647
  0
LINE
  8
0
 10
7.24732
 20
32.7647
 11
7.28109
 21
32.7241
  0
LINE
  8
0
 10
7.28109
 20
32.7241
 11
7.32376
 21
32.6729
  0
LINE
  8
0
 10
7.32376
 20
32.6729
 11
7.35907
 21
32.6419
  0
LINE
  8
0
 10
7.35907
 20
32.6419
 11
7.41325
 21
32.5944
  0
LINE
  8
0
 10
7.41325
 20
32.5944
 11
7.44858
 21
32.5722
  0
LINE
  8
0
 10
7.44858
 20
32.5722
 11
7.51359
 21
32.5314
  0
LINE
  8
0
 10
7.51359
 20
32.5314
 11
7.54798
 21
32.5167
  0
LINE
  8
0
 10
7.54798
 20
32.5167
 11
7.62232
 21
32.4852
  0
LINE
  8
0
 10
7.62232
 20
32.4852
 11
7.65543
 21
32.477
  0
LINE
  8
0
 10
7.65543
 20
32.477
 11
7.73676
 21
32.457
  0
LINE
  8
0
 10
7.73676
 20
32.457
 11
7.76878
 21
32.4544
  0
LINE
  8
0
 10
7.76878
 20
32.4544
 11
7.85409
 21
32.4475
  0
LINE
  8
0
 10
7.85409
 20
32.4475
 11
11
 21
32.4475
  0
LINE
  8
0
 10
11
 20
32.4475
 11
11
 21
45.5
  0
LINE
  8
0
 10
11
 20
45.5
 11
4.62574
 21
45.5
  0
LINE
  8
0
 10
4.62574
 20
45.5
 11
4.62574
 21
41.5
  0
LINE
  8
0
 10
7.10409
 20
23.1242
 11
7.10412
 21
23.1237
  0
LINE
  8
0
 10
7.10412
 20
23.1237
 11
7.11332
 21
22.9525
  0
LINE
  8
0
 10
7.11332
 20
22.9525
 11
7.11375
 21
22.9499
  0
LINE
  8
0
 10
7.11375
 20
22.9499
 11
7.14079
 21
22.7851
  0
LINE
  8
0
 10
7.14079
 20
22.7851
 11
7.14206
 21
22.7806
  0
LINE
  8
0
 10
7.14206
 20
22.7806
 11
7.18583
 21
22.626
  0
LINE
  8
0
 10
7.18583
 20
22.626
 11
7.18828
 21
22.6202
  0
LINE
  8
0
 10
7.18828
 20
22.6202
 11
7.24732
 21
22.4792
  0
LINE
  8
0
 10
7.24732
 20
22.4792
 11
7.25119
 21
22.4726
  0
LINE
  8
0
 10
7.25119
 20
22.4726
 11
7.32376
 21
22.3482
  0
LINE
  8
0
 10
7.32376
 20
22.3482
 11
7.32914
 21
22.3415
  0
LINE
  8
0
 10
7.32914
 20
22.3415
 11
7.41325
 21
22.2364
  0
LINE
  8
0
 10
7.41325
 20
22.2364
 11
7.4201
 21
22.2303
  0
LINE
  8
0
 10
7.4201
 20
22.2303
 11
7.51359
 21
22.1464
  0
LINE
  8
0
 10
7.51359
 20
22.1464
 11
7.52172
 21
22.1415
  0
LINE
  8
0
 10
7.52172
 20
22.1415
 11
7.62232
 21
22.0805
  0
LINE
  8
0
 10
7.62232
 20
22.0805
 11
7.63141
 21
22.0773
  0
LINE
  8
0
 10
7.63141
 20
22.0773
 11
7.73676
 21
22.0403
  0
LINE
  8
0
 10
7.73676
 20
22.0403
 11
7.85409
 21
22.0268
  0
LINE
  8
0
 10
7.85409
 20
22.0268
 11
11
 21
22.0268
  0
LINE
  8
0
 10
11
 20
22.0268
 11
11
 21
25.661
  0
LINE
  8
0
 10
11
 20
25.661
 11
7.85409
 21
25.661
  0
LINE
  8
0
 10
7.85409
 20
25.661
 11
7.73676
 21
25.6475
  0
LINE
  8
0
 10
7.73676
 20
25.6475
 11
7.71566
 21
25.64
  0
LINE
  8
0
 10
7.71566
 20
25.64
 11
7.62232
 21
25.6073
  0
LINE
  8
0
 10
7.62232
 20
25.6073
 11
7.6021
 21
25.595
  0
LINE
  8
0
 10
7.6021
 20
25.595
 11
7.51359
 21
25.5414
  0
LINE
  8
0
 10
7.51359
 20
25.5414
 11
7.49467
 21
25.5244
  0
LINE
  8
0
 10
7.49467
 20
25.5244
 11
7.41325
 21
25.4514
  0
LINE
  8
0
 10
7.41325
 20
25.4514
 11
7.39606
 21
25.4299
  0
LINE
  8
0
 10
7.39606
 20
25.4299
 11
7.32376
 21
25.3396
  0
LINE
  8
0
 10
7.32376
 20
25.3396
 11
7.30876
 21
25.3139
  0
LINE
  8
0
 10
7.30876
 20
25.3139
 11
7.24732
 21
25.2086
  0
LINE
  8
0
 10
7.24732
 20
25.2086
 11
7.23495
 21
25.1791
  0
LINE
  8
0
 10
7.23495
 20
25.1791
 11
7.18583
 21
25.0618
  0
LINE
  8
0
 10
7.18583
 20
25.0618
 11
7.17652
 21
25.0289
  0
LINE
  8
0
 10
7.17652
 20
25.0289
 11
7.14079
 21
24.9027
  0
LINE
  8
0
 10
7.14079
 20
24.9027
 11
7.13495
 21
24.8671
  0
LINE
  8
0
 10
7.13495
 20
24.8671
 11
7.11332
 21
24.7353
  0
LINE
  8
0
 10
7.11332
 20
24.7353
 11
7.1113
 21
24.6977
  0
LINE
  8
0
 10
7.1113
 20
24.6977
 11
7.10409
 21
24.5636
  0
LINE
  8
0
 10
7.10409
 20
24.5636
 11
7.10409
 21
23.1242
  0
LINE
  8
0
 10
36.5
 20
0
 11
42.8634
 21
0
  0
LINE
  8
0
 10
42.8634
 20
0
 11
42.8634
 21
4
  0
LINE
  8
0
 10
42.8634
 20
4
 11
41
 21
4
  0
LINE
  8
0
 10
41
 20
4
 11
41
 21
4.89591
  0
LINE
  8
0
 10
41
 20
4.89591
 11
40.3959
 21
5.5
  0
LINE
  8
0
 10
40.3959
 20
5.5
 11
40.3959
 21
13.6136
  0
LINE
  8
0
 10
40.3959
 20
13.6136
 11
40.3896
 21
13.7318
  0
LINE
  8
0
 10
40.3896
 20
13.7318
 11
40.3867
 21
13.7853
  0
LINE
  8
0
 10
40.3867
 20
13.7853
 11
40.3681
 21
13.8985
  0
LINE
  8
0
 10
40.3681
 20
13.8985
 11
40.3592
 21
13.9527
  0
LINE
  8
0
 10
40.3592
 20
13.9527
 11
40.3293
 21
14.0585
  0
LINE
  8
0
 10
40.3293
 20
14.0585
 11
40.3142
 21
14.1118
  0
LINE
  8
0
 10
40.3142
 20
14.1118
 11
40.274
 21
14.2078
  0
LINE
  8
0
 10
40.274
 20
14.2078
 11
40.2527
 21
14.2586
  0
LINE
  8
0
 10
40.2527
 20
14.2586
 11
40.2034
 21
14.343
  0
LINE
  8
0
 10
40.2034
 20
14.343
 11
40.1762
 21
14.3896
  0
LINE
  8
0
 10
40.1762
 20
14.3896
 11
40.1194
 21
14.4606
  0
LINE
  8
0
 10
40.1194
 20
14.4606
 11
40.0868
 21
14.5014
  0
LINE
  8
0
 10
40.0868
 20
14.5014
 11
39.9864
 21
14.5914
  0
LINE
  8
0
 10
39.9864
 20
14.5914
 11
39.9187
 21
14.6324
  0
LINE
  8
0
 10
39.9187
 20
14.6324
 11
39.8777
 21
14.6573
  0
LINE
  8
0
 10
39.8777
 20
14.6573
 11
39.8068
 21
14.6822
  0
LINE
  8
0
 10
39.8068
 20
14.6822
 11
39.7632
 21
14.6975
  0
LINE
  8
0
 10
39.7632
 20
14.6975
 11
39.6908
 21
14.7058
  0
LINE
  8
0
 10
39.6908
 20
14.7058
 11
39.6459
 21
14.711
  0
LINE
  8
0
 10
39.6459
 20
14.711
 11
36.5
 21
14.711
  0
LINE
  8
0
 10
36.5
 20
14.711
 11
36.5
 21
0
  0
LINE
  8
0
 10
36.5
 20
22.0268
 11
39.6459
 21
22.0268
  0
LINE
  8
0
 10
39.6459
 20
22.0268
 11
39.7632
 21
22.0403
  0
LINE
  8
0
 10
39.7632
 20
22.0403
 11
39.7726
 21
22.0436
  0
LINE
  8
0
 10
39.7726
 20
22.0436
 11
39.8777
 21
22.0805
  0
LINE
  8
0
 10
39.8777
 20
22.0805
 11
39.8862
 21
22.0857
  0
LINE
  8
0
 10
39.8862
 20
22.0857
 11
39.9864
 21
22.1464
  0
LINE
  8
0
 10
39.9864
 20
22.1464
 11
39.9938
 21
22.1531
  0
LINE
  8
0
 10
39.9938
 20
22.1531
 11
40.0868
 21
22.2364
  0
LINE
  8
0
 10
40.0868
 20
22.2364
 11
40.0928
 21
22.2439
  0
LINE
  8
0
 10
40.0928
 20
22.2439
 11
40.1762
 21
22.3482
  0
LINE
  8
0
 10
40.1762
 20
22.3482
 11
40.1808
 21
22.356
  0
LINE
  8
0
 10
40.1808
 20
22.356
 11
40.2527
 21
22.4792
  0
LINE
  8
0
 10
40.2527
 20
22.4792
 11
40.2557
 21
22.4865
  0
LINE
  8
0
 10
40.2557
 20
22.4865
 11
40.3142
 21
22.626
  0
LINE
  8
0
 10
40.3142
 20
22.626
 11
40.3159
 21
22.6322
  0
LINE
  8
0
 10
40.3159
 20
22.6322
 11
40.3592
 21
22.7851
  0
LINE
  8
0
 10
40.3592
 20
22.7851
 11
40.36
 21
22.7897
  0
LINE
  8
0
 10
40.36
 20
22.7897
 11
40.3867
 21
22.9525
  0
LINE
  8
0
 10
40.3867
 20
22.9525
 11
40.3868
 21
22.9552
  0
LINE
  8
0
 10
40.3868
 20
22.9552
 11
40.3959
 21
23.1242
  0
LINE
  8
0
 10
40.3959
 20
23.1242
 11
40.3959
 21
24.5636
  0
LINE
  8
0
 10
40.3959
 20
24.5636
 11
40.3939
 21
24.6017
  0
LINE
  8
0
 10
40.3939
 20
24.6017
 11
40.3867
 21
24.7353
  0
LINE
  8
0
 10
40.3867
 20
24.7353
 11
40.3807
 21
24.7714
  0
LINE
  8
0
 10
40.3807
 20
24.7714
 11
40.3592
 21
24.9027
  0
LINE
  8
0
 10
40.3592
 20
24.9027
 11
40.3497
 21
24.9361
  0
LINE
  8
0
 10
40.3497
 20
24.9361
 11
40.3142
 21
25.0618
  0
LINE
  8
0
 10
40.3142
 20
25.0618
 11
40.3016
 21
25.0918
  0
LINE
  8
0
 10
40.3016
 20
25.0918
 11
40.2527
 21
25.2086
  0
LINE
  8
0
 10
40.2527
 20
25.2086
 11
40.2375
 21
25.2347
  0
LINE
  8
0
 10
40.2375
 20
25.2347
 11
40.1762
 21
25.3396
  0
LINE
  8
0
 10
40.1762
 20
25.3396
 11
40.1588
 21
25.3613
  0
LINE
  8
0
 10
40.1588
 20
25.3613
 11
40.0868
 21
25.4514
  0
LINE
  8
0
 10
40.0868
 20
25.4514
 11
40.0676
 21
25.4685
  0
LINE
  8
0
 10
40.0676
 20
25.4685
 11
39.9864
 21
25.5414
  0
LINE
  8
0
 10
39.9864
 20
25.5414
 11
39.966
 21
25.5537
  0
LINE
  8
0
 10
39.966
 20
25.5537
 11
39.8777
 21
25.6073
  0
LINE
  8
0
 10
39.8777
 20
25.6073
 11
39.8565
 21
25.6147
  0
LINE
  8
0
 10
39.8565
 20
25.6147
 11
39.7632
 21
25.6475
  0
LINE
  8
0
 10
39.7632
 20
25.6475
 11
39.6459
 21
25.661
  0
LINE
  8
0
 10
39.6459
 20
25.661
 11
36.5
 21
25.661
  0
LINE
  8
0
 10
36.5
 20
25.661
 11
36.5
 21
22.0268
  0
LINE
  8
0
 10
36.5
 20
32.4475
 11
39.6459
 21
32.4475
  0
LINE
  8
0
 10
39.6459
 20
32.4475
 11
39.6774
 21
32.45
  0
LINE
  8
0
 10
39.6774
 20
32.45
 11
39.7632
 21
32.457
  0
LINE
  8
0
 10
39.7632
 20
32.457
 11
39.7949
 21
32.4648
  0
LINE
  8
0
 10
39.7949
 20
32.4648
 11
39.8777
 21
32.4852
  0
LINE
  8
0
 10
39.8777
 20
32.4852
 11
39.91
 21
32.4989
  0
LINE
  8
0
 10
39.91
 20
32.4989
 11
39.9864
 21
32.5314
  0
LINE
  8
0
 10
39.9864
 20
32.5314
 11
40.0194
 21
32.5521
  0
LINE
  8
0
 10
40.0194
 20
32.5521
 11
40.0868
 21
32.5944
  0
LINE
  8
0
 10
40.0868
 20
32.5944
 11
40.1199
 21
32.6235
  0
LINE
  8
0
 10
40.1199
 20
32.6235
 11
40.1762
 21
32.6729
  0
LINE
  8
0
 10
40.1762
 20
32.6729
 11
40.2083
 21
32.7113
  0
LINE
  8
0
 10
40.2083
 20
32.7113
 11
40.2527
 21
32.7647
  0
LINE
  8
0
 10
40.2527
 20
32.7647
 11
40.2817
 21
32.8132
  0
LINE
  8
0
 10
40.2817
 20
32.8132
 11
40.3142
 21
32.8676
  0
LINE
  8
0
 10
40.3142
 20
32.8676
 11
40.3379
 21
32.9264
  0
LINE
  8
0
 10
40.3379
 20
32.9264
 11
40.3592
 21
32.9792
  0
LINE
  8
0
 10
40.3592
 20
32.9792
 11
40.3752
 21
33.0475
  0
LINE
  8
0
 10
40.3752
 20
33.0475
 11
40.3867
 21
33.0966
  0
LINE
  8
0
 10
40.3867
 20
33.0966
 11
40.3925
 21
33.173
  0
LINE
  8
0
 10
40.3925
 20
33.173
 11
40.3959
 21
33.2169
  0
LINE
  8
0
 10
40.3959
 20
33.2169
 11
40.3959
 21
40
  0
LINE
  8
0
 10
40.3959
 20
40
 11
41
 21
40.6041
  0
LINE
  8
0
 10
41
 20
40.6041
 11
41
 21
41.5
  0
LINE
  8
0
 10
41
 20
41.5
 11
42.8634
 21
41.5
  0
LINE
  8
0
 10
42.8634
 20
41.5
 11
42.8634
 21
45.5
  0
LINE
  8
0
 10
42.8634
 20
45.5
 11
36.5
 21
45.5
  0
LINE
  8
0
 10
36.5
 20
45.5
 11
36.5
 21
32.4475
  0
LINE
  8
0
 10
44.6257
 20
0
 11
47.5
 21
0
  0
LINE
  8
0
 10
47.5
 20
0
 11
47.5
 21
3.5
  0
LINE
  8
0
 10
47.5
 20
3.5
 11
47
 21
4
  0
LINE
  8
0
 10
47
 20
4
 11
44.6257
 21
4
  0
LINE
  8
0
 10
44.6257
 20
4
 11
44.6257
 21
0
  0
LINE
  8
0
 10
44.6257
 20
41.5
 11
47
 21
41.5
  0
LINE
  8
0
 10
47
 20
41.5
 11
47.5
 21
42
  0
LINE
  8
0
 10
47.5
 20
42
 11
47.5
 21
45.5
  0
LINE
  8
0
 10
47.5
 20
45.5
 11
44.6257
 21
45.5
  0
LINE
  8
0
 10
44.6257
 20
45.5
 11
44.6257
 21
41.5
  0
ENDSEC
  0
SECTION
  2
OBJECTS
  0
DICTIONARY
  0
ENDSEC
  0
EOF
