  0
SECTION
  2
BLOCKS
  0
ENDSEC
  0
SECTION
  2
ENTITIES
  0
LINE
  8
0
 10
0
 20
0
 11
3.35317
 21
0
  0
LINE
  8
0
 10
3.35317
 20
0
 11
3.35317
 21
4
  0
LINE
  8
0
 10
3.35317
 20
4
 11
0.499999
 21
4
  0
LINE
  8
0
 10
0.499999
 20
4
 11
0
 21
3.5
  0
LINE
  8
0
 10
0
 20
3.5
 11
0
 21
0
  0
LINE
  8
0
 10
0
 20
42
 11
0.499999
 21
41.5
  0
LINE
  8
0
 10
0.499999
 20
41.5
 11
3.35317
 21
41.5
  0
LINE
  8
0
 10
3.35317
 20
41.5
 11
3.35317
 21
45.5
  0
LINE
  8
0
 10
3.35317
 20
45.5
 11
0
 21
45.5
  0
LINE
  8
0
 10
0
 20
45.5
 11
0
 21
42
  0
LINE
  8
0
 10
4.13404
 20
0
 11
11
 21
0
  0
LINE
  8
0
 10
11
 20
0
 11
11
 21
14.4974
  0
LINE
  8
0
 10
11
 20
14.4974
 11
7.85409
 21
14.4974
  0
LINE
  8
0
 10
7.85409
 20
14.4974
 11
7.77817
 21
14.4886
  0
LINE
  8
0
 10
7.77817
 20
14.4886
 11
7.73676
 21
14.4838
  0
LINE
  8
0
 10
7.73676
 20
14.4838
 11
7.66245
 21
14.4577
  0
LINE
  8
0
 10
7.66245
 20
14.4577
 11
7.62232
 21
14.4436
  0
LINE
  8
0
 10
7.62232
 20
14.4436
 11
7.55127
 21
14.4006
  0
LINE
  8
0
 10
7.55127
 20
14.4006
 11
7.51359
 21
14.3778
  0
LINE
  8
0
 10
7.51359
 20
14.3778
 11
7.41325
 21
14.2878
  0
LINE
  8
0
 10
7.41325
 20
14.2878
 11
7.35354
 21
14.2132
  0
LINE
  8
0
 10
7.35354
 20
14.2132
 11
7.32376
 21
14.1759
  0
LINE
  8
0
 10
7.32376
 20
14.1759
 11
7.27206
 21
14.0874
  0
LINE
  8
0
 10
7.27206
 20
14.0874
 11
7.24732
 21
14.045
  0
LINE
  8
0
 10
7.24732
 20
14.045
 11
7.20509
 21
13.9442
  0
LINE
  8
0
 10
7.20509
 20
13.9442
 11
7.18583
 21
13.8982
  0
LINE
  8
0
 10
7.18583
 20
13.8982
 11
7.15438
 21
13.7871
  0
LINE
  8
0
 10
7.15438
 20
13.7871
 11
7.14079
 21
13.7391
  0
LINE
  8
0
 10
7.14079
 20
13.7391
 11
7.12127
 21
13.6201
  0
LINE
  8
0
 10
7.12127
 20
13.6201
 11
7.11332
 21
13.5716
  0
LINE
  8
0
 10
7.11332
 20
13.5716
 11
7.10664
 21
13.4475
  0
LINE
  8
0
 10
7.10664
 20
13.4475
 11
7.10409
 21
13.4
  0
LINE
  8
0
 10
7.10409
 20
13.4
 11
7.10409
 21
5.5
  0
LINE
  8
0
 10
7.10409
 20
5.5
 11
6.39212
 21
4.78803
  0
LINE
  8
0
 10
6.39212
 20
4.78803
 11
6.39212
 21
4
  0
LINE
  8
0
 10
6.39212
 20
4
 11
4.13404
 21
4
  0
LINE
  8
0
 10
4.13404
 20
4
 11
4.13404
 21
0
  0
LINE
  8
0
 10
4.13404
 20
41.5
 11
6.39212
 21
41.5
  0
LINE
  8
0
 10
6.39212
 20
41.5
 11
6.39212
 21
40.712
  0
LINE
  8
0
 10
6.39212
 20
40.712
 11
7.10409
 21
40
  0
LINE
  8
0
 10
7.10409
 20
40
 11
7.10409
 21
33.1681
  0
LINE
  8
0
 10
7.10409
 20
33.1681
 11
7.10657
 21
33.1358
  0
LINE
  8
0
 10
7.10657
 20
33.1358
 11
7.11332
 21
33.0477
  0
LINE
  8
0
 10
7.11332
 20
33.0477
 11
7.11901
 21
33.0234
  0
LINE
  8
0
 10
7.11901
 20
33.0234
 11
7.14079
 21
32.9303
  0
LINE
  8
0
 10
7.14079
 20
32.9303
 11
7.14722
 21
32.9144
  0
LINE
  8
0
 10
7.14722
 20
32.9144
 11
7.18583
 21
32.8188
  0
LINE
  8
0
 10
7.18583
 20
32.8188
 11
7.19055
 21
32.8108
  0
LINE
  8
0
 10
7.19055
 20
32.8108
 11
7.24732
 21
32.7158
  0
LINE
  8
0
 10
7.24732
 20
32.7158
 11
7.24819
 21
32.7148
  0
LINE
  8
0
 10
7.24819
 20
32.7148
 11
7.26151
 21
32.6988
  0
LINE
  8
0
 10
7.26151
 20
32.6988
 11
7.31988
 21
32.6247
  0
LINE
  8
0
 10
7.31988
 20
32.6247
 11
7.32376
 21
32.6197
  0
LINE
  8
0
 10
7.32376
 20
32.6197
 11
7.40357
 21
32.5458
  0
LINE
  8
0
 10
7.40357
 20
32.5458
 11
7.41325
 21
32.5369
  0
LINE
  8
0
 10
7.41325
 20
32.5369
 11
7.49767
 21
32.4808
  0
LINE
  8
0
 10
7.49767
 20
32.4808
 11
7.51359
 21
32.4702
  0
LINE
  8
0
 10
7.51359
 20
32.4702
 11
7.60063
 21
32.4311
  0
LINE
  8
0
 10
7.60063
 20
32.4311
 11
7.62232
 21
32.4214
  0
LINE
  8
0
 10
7.62232
 20
32.4214
 11
7.71068
 21
32.3984
  0
LINE
  8
0
 10
7.71068
 20
32.3984
 11
7.73676
 21
32.3916
  0
LINE
  8
0
 10
7.73676
 20
32.3916
 11
7.82576
 21
32.384
  0
LINE
  8
0
 10
7.82576
 20
32.384
 11
7.85409
 21
32.3816
  0
LINE
  8
0
 10
7.85409
 20
32.3816
 11
11
 21
32.3816
  0
LINE
  8
0
 10
11
 20
32.3816
 11
11
 21
45.5
  0
LINE
  8
0
 10
11
 20
45.5
 11
4.13404
 21
45.5
  0
LINE
  8
0
 10
4.13404
 20
45.5
 11
4.13404
 21
41.5
  0
LINE
  8
0
 10
7.10409
 20
22.9106
 11
7.10439
 21
22.905
  0
LINE
  8
0
 10
7.10439
 20
22.905
 11
7.11332
 21
22.7389
  0
LINE
  8
0
 10
7.11332
 20
22.7389
 11
7.11457
 21
22.7313
  0
LINE
  8
0
 10
7.11457
 20
22.7313
 11
7.14079
 21
22.5715
  0
LINE
  8
0
 10
7.14079
 20
22.5715
 11
7.14339
 21
22.5623
  0
LINE
  8
0
 10
7.14339
 20
22.5623
 11
7.18583
 21
22.4124
  0
LINE
  8
0
 10
7.18583
 20
22.4124
 11
7.1901
 21
22.4022
  0
LINE
  8
0
 10
7.1901
 20
22.4022
 11
7.24732
 21
22.2656
  0
LINE
  8
0
 10
7.24732
 20
22.2656
 11
7.25345
 21
22.2551
  0
LINE
  8
0
 10
7.25345
 20
22.2551
 11
7.32376
 21
22.1346
  0
LINE
  8
0
 10
7.32376
 20
22.1346
 11
7.33178
 21
22.1246
  0
LINE
  8
0
 10
7.33178
 20
22.1246
 11
7.41325
 21
22.0228
  0
LINE
  8
0
 10
7.41325
 20
22.0228
 11
7.42306
 21
22.014
  0
LINE
  8
0
 10
7.42306
 20
22.014
 11
7.51359
 21
21.9328
  0
LINE
  8
0
 10
7.51359
 20
21.9328
 11
7.52492
 21
21.9259
  0
LINE
  8
0
 10
7.52492
 20
21.9259
 11
7.62232
 21
21.8669
  0
LINE
  8
0
 10
7.62232
 20
21.8669
 11
7.63477
 21
21.8625
  0
LINE
  8
0
 10
7.63477
 20
21.8625
 11
7.73676
 21
21.8267
  0
LINE
  8
0
 10
7.73676
 20
21.8267
 11
7.85409
 21
21.8132
  0
LINE
  8
0
 10
7.85409
 20
21.8132
 11
11
 21
21.8132
  0
LINE
  8
0
 10
11
 20
21.8132
 11
11
 21
25.4473
  0
LINE
  8
0
 10
11
 20
25.4473
 11
7.85409
 21
25.4473
  0
LINE
  8
0
 10
7.85409
 20
25.4473
 11
7.73676
 21
25.4338
  0
LINE
  8
0
 10
7.73676
 20
25.4338
 11
7.71399
 21
25.4258
  0
LINE
  8
0
 10
7.71399
 20
25.4258
 11
7.62232
 21
25.3936
  0
LINE
  8
0
 10
7.62232
 20
25.3936
 11
7.60051
 21
25.3804
  0
LINE
  8
0
 10
7.60051
 20
25.3804
 11
7.51359
 21
25.3277
  0
LINE
  8
0
 10
7.51359
 20
25.3277
 11
7.4932
 21
25.3094
  0
LINE
  8
0
 10
7.4932
 20
25.3094
 11
7.41325
 21
25.2378
  0
LINE
  8
0
 10
7.41325
 20
25.2378
 11
7.39475
 21
25.2146
  0
LINE
  8
0
 10
7.39475
 20
25.2146
 11
7.32376
 21
25.1259
  0
LINE
  8
0
 10
7.32376
 20
25.1259
 11
7.30763
 21
25.0983
  0
LINE
  8
0
 10
7.30763
 20
25.0983
 11
7.24732
 21
24.995
  0
LINE
  8
0
 10
7.24732
 20
24.995
 11
7.23405
 21
24.9633
  0
LINE
  8
0
 10
7.23405
 20
24.9633
 11
7.18583
 21
24.8482
  0
LINE
  8
0
 10
7.18583
 20
24.8482
 11
7.17586
 21
24.8129
  0
LINE
  8
0
 10
7.17586
 20
24.8129
 11
7.14079
 21
24.6891
  0
LINE
  8
0
 10
7.14079
 20
24.6891
 11
7.13455
 21
24.651
  0
LINE
  8
0
 10
7.13455
 20
24.651
 11
7.11332
 21
24.5216
  0
LINE
  8
0
 10
7.11332
 20
24.5216
 11
7.11116
 21
24.4816
  0
LINE
  8
0
 10
7.11116
 20
24.4816
 11
7.10409
 21
24.35
  0
LINE
  8
0
 10
7.10409
 20
24.35
 11
7.10409
 21
22.9106
  0
LINE
  8
0
 10
36.5
 20
0
 11
43.3532
 21
0
  0
LINE
  8
0
 10
43.3532
 20
0
 11
43.3532
 21
4
  0
LINE
  8
0
 10
43.3532
 20
4
 11
41.1079
 21
4
  0
LINE
  8
0
 10
41.1079
 20
4
 11
41.1079
 21
4.78803
  0
LINE
  8
0
 10
41.1079
 20
4.78803
 11
40.3959
 21
5.5
  0
LINE
  8
0
 10
40.3959
 20
5.5
 11
40.3959
 21
13.4
  0
LINE
  8
0
 10
40.3959
 20
13.4
 11
40.3893
 21
13.5232
  0
LINE
  8
0
 10
40.3893
 20
13.5232
 11
40.3867
 21
13.5716
  0
LINE
  8
0
 10
40.3867
 20
13.5716
 11
40.3673
 21
13.6898
  0
LINE
  8
0
 10
40.3673
 20
13.6898
 11
40.3592
 21
13.7391
  0
LINE
  8
0
 10
40.3592
 20
13.7391
 11
40.328
 21
13.8495
  0
LINE
  8
0
 10
40.328
 20
13.8495
 11
40.3142
 21
13.8982
  0
LINE
  8
0
 10
40.3142
 20
13.8982
 11
40.2722
 21
13.9984
  0
LINE
  8
0
 10
40.2722
 20
13.9984
 11
40.2527
 21
14.045
  0
LINE
  8
0
 10
40.2527
 20
14.045
 11
40.2012
 21
14.1331
  0
LINE
  8
0
 10
40.2012
 20
14.1331
 11
40.1762
 21
14.1759
  0
LINE
  8
0
 10
40.1762
 20
14.1759
 11
40.1168
 21
14.2503
  0
LINE
  8
0
 10
40.1168
 20
14.2503
 11
40.0868
 21
14.2878
  0
LINE
  8
0
 10
40.0868
 20
14.2878
 11
39.9864
 21
14.3778
  0
LINE
  8
0
 10
39.9864
 20
14.3778
 11
39.9155
 21
14.4207
  0
LINE
  8
0
 10
39.9155
 20
14.4207
 11
39.8777
 21
14.4436
  0
LINE
  8
0
 10
39.8777
 20
14.4436
 11
39.8035
 21
14.4697
  0
LINE
  8
0
 10
39.8035
 20
14.4697
 11
39.7632
 21
14.4838
  0
LINE
  8
0
 10
39.7632
 20
14.4838
 11
39.6874
 21
14.4926
  0
LINE
  8
0
 10
39.6874
 20
14.4926
 11
39.6459
 21
14.4974
  0
LINE
  8
0
 10
39.6459
 20
14.4974
 11
36.5
 21
14.4974
  0
LINE
  8
0
 10
36.5
 20
14.4974
 11
36.5
 21
0
  0
LINE
  8
0
 10
36.5
 20
21.8132
 11
39.6459
 21
21.8132
  0
LINE
  8
0
 10
39.6459
 20
21.8132
 11
39.7632
 21
21.8267
  0
LINE
  8
0
 10
39.7632
 20
21.8267
 11
39.7759
 21
21.8312
  0
LINE
  8
0
 10
39.7759
 20
21.8312
 11
39.8777
 21
21.8669
  0
LINE
  8
0
 10
39.8777
 20
21.8669
 11
39.8894
 21
21.874
  0
LINE
  8
0
 10
39.8894
 20
21.874
 11
39.9864
 21
21.9328
  0
LINE
  8
0
 10
39.9864
 20
21.9328
 11
39.9967
 21
21.9421
  0
LINE
  8
0
 10
39.9967
 20
21.9421
 11
40.0868
 21
22.0228
  0
LINE
  8
0
 10
40.0868
 20
22.0228
 11
40.0954
 21
22.0336
  0
LINE
  8
0
 10
40.0954
 20
22.0336
 11
40.1762
 21
22.1346
  0
LINE
  8
0
 10
40.1762
 20
22.1346
 11
40.183
 21
22.1461
  0
LINE
  8
0
 10
40.183
 20
22.1461
 11
40.2527
 21
22.2656
  0
LINE
  8
0
 10
40.2527
 20
22.2656
 11
40.2575
 21
22.2771
  0
LINE
  8
0
 10
40.2575
 20
22.2771
 11
40.3142
 21
22.4124
  0
LINE
  8
0
 10
40.3142
 20
22.4124
 11
40.3172
 21
22.4232
  0
LINE
  8
0
 10
40.3172
 20
22.4232
 11
40.3592
 21
22.5715
  0
LINE
  8
0
 10
40.3592
 20
22.5715
 11
40.3608
 21
22.5809
  0
LINE
  8
0
 10
40.3608
 20
22.5809
 11
40.3867
 21
22.7389
  0
LINE
  8
0
 10
40.3867
 20
22.7389
 11
40.3871
 21
22.7465
  0
LINE
  8
0
 10
40.3871
 20
22.7465
 11
40.3959
 21
22.9106
  0
LINE
  8
0
 10
40.3959
 20
22.9106
 11
40.3959
 21
24.35
  0
LINE
  8
0
 10
40.3959
 20
24.35
 11
40.3937
 21
24.3906
  0
LINE
  8
0
 10
40.3937
 20
24.3906
 11
40.3867
 21
24.5216
  0
LINE
  8
0
 10
40.3867
 20
24.5216
 11
40.3803
 21
24.5602
  0
LINE
  8
0
 10
40.3803
 20
24.5602
 11
40.3592
 21
24.6891
  0
LINE
  8
0
 10
40.3592
 20
24.6891
 11
40.3491
 21
24.7248
  0
LINE
  8
0
 10
40.3491
 20
24.7248
 11
40.3142
 21
24.8482
  0
LINE
  8
0
 10
40.3142
 20
24.8482
 11
40.3007
 21
24.8803
  0
LINE
  8
0
 10
40.3007
 20
24.8803
 11
40.2527
 21
24.995
  0
LINE
  8
0
 10
40.2527
 20
24.995
 11
40.2363
 21
25.023
  0
LINE
  8
0
 10
40.2363
 20
25.023
 11
40.1762
 21
25.1259
  0
LINE
  8
0
 10
40.1762
 20
25.1259
 11
40.1575
 21
25.1493
  0
LINE
  8
0
 10
40.1575
 20
25.1493
 11
40.0868
 21
25.2378
  0
LINE
  8
0
 10
40.0868
 20
25.2378
 11
40.0662
 21
25.2562
  0
LINE
  8
0
 10
40.0662
 20
25.2562
 11
39.9864
 21
25.3277
  0
LINE
  8
0
 10
39.9864
 20
25.3277
 11
39.9644
 21
25.3411
  0
LINE
  8
0
 10
39.9644
 20
25.3411
 11
39.8777
 21
25.3936
  0
LINE
  8
0
 10
39.8777
 20
25.3936
 11
39.8548
 21
25.4017
  0
LINE
  8
0
 10
39.8548
 20
25.4017
 11
39.7632
 21
25.4338
  0
LINE
  8
0
 10
39.7632
 20
25.4338
 11
39.6459
 21
25.4473
  0
LINE
  8
0
 10
39.6459
 20
25.4473
 11
36.5
 21
25.4473
  0
LINE
  8
0
 10
36.5
 20
25.4473
 11
36.5
 21
21.8132
  0
LINE
  8
0
 10
36.5
 20
32.3816
 11
39.6459
 21
32.3816
  0
LINE
  8
0
 10
39.6459
 20
32.3816
 11
39.7353
 21
32.3892
  0
LINE
  8
0
 10
39.7353
 20
32.3892
 11
39.7632
 21
32.3916
  0
LINE
  8
0
 10
39.7632
 20
32.3916
 11
39.8528
 21
32.4149
  0
LINE
  8
0
 10
39.8528
 20
32.4149
 11
39.8777
 21
32.4214
  0
LINE
  8
0
 10
39.8777
 20
32.4214
 11
39.9668
 21
32.4614
  0
LINE
  8
0
 10
39.9668
 20
32.4614
 11
39.9864
 21
32.4702
  0
LINE
  8
0
 10
39.9864
 20
32.4702
 11
40.074
 21
32.5284
  0
LINE
  8
0
 10
40.074
 20
32.5284
 11
40.0868
 21
32.5369
  0
LINE
  8
0
 10
40.0868
 20
32.5369
 11
40.1708
 21
32.6147
  0
LINE
  8
0
 10
40.1708
 20
32.6147
 11
40.1762
 21
32.6197
  0
LINE
  8
0
 10
40.1762
 20
32.6197
 11
40.2385
 21
32.6988
  0
LINE
  8
0
 10
40.2385
 20
32.6988
 11
40.2527
 21
32.7158
  0
LINE
  8
0
 10
40.2527
 20
32.7158
 11
40.2534
 21
32.7171
  0
LINE
  8
0
 10
40.2534
 20
32.7171
 11
40.3142
 21
32.8188
  0
LINE
  8
0
 10
40.3142
 20
32.8188
 11
40.3179
 21
32.8279
  0
LINE
  8
0
 10
40.3179
 20
32.8279
 11
40.3592
 21
32.9303
  0
LINE
  8
0
 10
40.3592
 20
32.9303
 11
40.3634
 21
32.9483
  0
LINE
  8
0
 10
40.3634
 20
32.9483
 11
40.3867
 21
33.0477
  0
LINE
  8
0
 10
40.3867
 20
33.0477
 11
40.3887
 21
33.0745
  0
LINE
  8
0
 10
40.3887
 20
33.0745
 11
40.3959
 21
33.1681
  0
LINE
  8
0
 10
40.3959
 20
33.1681
 11
40.3959
 21
40
  0
LINE
  8
0
 10
40.3959
 20
40
 11
41.1079
 21
40.712
  0
LINE
  8
0
 10
41.1079
 20
40.712
 11
41.1079
 21
41.5
  0
LINE
  8
0
 10
41.1079
 20
41.5
 11
43.3532
 21
41.5
  0
LINE
  8
0
 10
43.3532
 20
41.5
 11
43.3532
 21
45.5
  0
LINE
  8
0
 10
43.3532
 20
45.5
 11
36.5
 21
45.5
  0
LINE
  8
0
 10
36.5
 20
45.5
 11
36.5
 21
32.3816
  0
LINE
  8
0
 10
44.134
 20
0
 11
47.5
 21
0
  0
LINE
  8
0
 10
47.5
 20
0
 11
47.5
 21
3.5
  0
LINE
  8
0
 10
47.5
 20
3.5
 11
47
 21
4
  0
LINE
  8
0
 10
47
 20
4
 11
44.134
 21
4
  0
LINE
  8
0
 10
44.134
 20
4
 11
44.134
 21
0
  0
LINE
  8
0
 10
44.134
 20
41.5
 11
47
 21
41.5
  0
LINE
  8
0
 10
47
 20
41.5
 11
47.5
 21
42
  0
LINE
  8
0
 10
47.5
 20
42
 11
47.5
 21
45.5
  0
LINE
  8
0
 10
47.5
 20
45.5
 11
44.134
 21
45.5
  0
LINE
  8
0
 10
44.134
 20
45.5
 11
44.134
 21
41.5
  0
ENDSEC
  0
SECTION
  2
OBJECTS
  0
DICTIONARY
  0
ENDSEC
  0
EOF
