  0
SECTION
  2
BLOCKS
  0
ENDSEC
  0
SECTION
  2
ENTITIES
  0
LINE
  8
0
 10
0
 20
0
 11
11
 21
0
  0
LINE
  8
0
 10
11
 20
0
 11
11
 21
14.2837
  0
LINE
  8
0
 10
11
 20
14.2837
 11
7.85409
 21
14.2837
  0
LINE
  8
0
 10
7.85409
 20
14.2837
 11
7.77473
 21
14.2746
  0
LINE
  8
0
 10
7.77473
 20
14.2746
 11
7.73676
 21
14.2702
  0
LINE
  8
0
 10
7.73676
 20
14.2702
 11
7.65909
 21
14.2429
  0
LINE
  8
0
 10
7.65909
 20
14.2429
 11
7.62232
 21
14.23
  0
LINE
  8
0
 10
7.62232
 20
14.23
 11
7.54807
 21
14.185
  0
LINE
  8
0
 10
7.54807
 20
14.185
 11
7.51359
 21
14.1641
  0
LINE
  8
0
 10
7.51359
 20
14.1641
 11
7.41325
 21
14.0742
  0
LINE
  8
0
 10
7.41325
 20
14.0742
 11
7.3509
 21
13.9962
  0
LINE
  8
0
 10
7.3509
 20
13.9962
 11
7.32376
 21
13.9623
  0
LINE
  8
0
 10
7.32376
 20
13.9623
 11
7.2698
 21
13.8699
  0
LINE
  8
0
 10
7.2698
 20
13.8699
 11
7.24732
 21
13.8314
  0
LINE
  8
0
 10
7.24732
 20
13.8314
 11
7.20327
 21
13.7262
  0
LINE
  8
0
 10
7.20327
 20
13.7262
 11
7.18583
 21
13.6846
  0
LINE
  8
0
 10
7.18583
 20
13.6846
 11
7.15305
 21
13.5688
  0
LINE
  8
0
 10
7.15305
 20
13.5688
 11
7.14079
 21
13.5255
  0
LINE
  8
0
 10
7.14079
 20
13.5255
 11
7.12046
 21
13.4015
  0
LINE
  8
0
 10
7.12046
 20
13.4015
 11
7.11332
 21
13.358
  0
LINE
  8
0
 10
7.11332
 20
13.358
 11
7.10637
 21
13.2288
  0
LINE
  8
0
 10
7.10637
 20
13.2288
 11
7.10409
 21
13.1864
  0
LINE
  8
0
 10
7.10409
 20
13.1864
 11
7.10409
 21
5.5
  0
LINE
  8
0
 10
7.10409
 20
5.5
 11
6.04571
 21
4.44162
  0
LINE
  8
0
 10
6.04571
 20
4.44162
 11
6.04571
 21
4
  0
LINE
  8
0
 10
6.04571
 20
4
 11
0.499999
 21
4
  0
LINE
  8
0
 10
0.499999
 20
4
 11
0
 21
3.5
  0
LINE
  8
0
 10
0
 20
3.5
 11
0
 21
0
  0
LINE
  8
0
 10
0
 20
42
 11
0.499999
 21
41.5
  0
LINE
  8
0
 10
0.499999
 20
41.5
 11
6.04571
 21
41.5
  0
LINE
  8
0
 10
6.04571
 20
41.5
 11
6.04571
 21
41.0584
  0
LINE
  8
0
 10
6.04571
 20
41.0584
 11
7.10409
 21
40
  0
LINE
  8
0
 10
7.10409
 20
40
 11
7.10409
 21
33.109
  0
LINE
  8
0
 10
7.10409
 20
33.109
 11
7.11171
 21
33.004
  0
LINE
  8
0
 10
7.11171
 20
33.004
 11
7.11332
 21
32.9818
  0
LINE
  8
0
 10
7.11332
 20
32.9818
 11
7.1339
 21
32.8889
  0
LINE
  8
0
 10
7.1339
 20
32.8889
 11
7.14079
 21
32.8577
  0
LINE
  8
0
 10
7.14079
 20
32.8577
 11
7.17093
 21
32.7789
  0
LINE
  8
0
 10
7.17093
 20
32.7789
 11
7.18583
 21
32.7399
  0
LINE
  8
0
 10
7.18583
 20
32.7399
 11
7.22203
 21
32.6758
  0
LINE
  8
0
 10
7.22203
 20
32.6758
 11
7.24732
 21
32.631
  0
LINE
  8
0
 10
7.24732
 20
32.631
 11
7.28626
 21
32.5816
  0
LINE
  8
0
 10
7.28626
 20
32.5816
 11
7.32376
 21
32.534
  0
LINE
  8
0
 10
7.32376
 20
32.534
 11
7.36261
 21
32.498
  0
LINE
  8
0
 10
7.36261
 20
32.498
 11
7.41325
 21
32.4511
  0
LINE
  8
0
 10
7.41325
 20
32.4511
 11
7.44997
 21
32.4267
  0
LINE
  8
0
 10
7.44997
 20
32.4267
 11
7.51359
 21
32.3845
  0
LINE
  8
0
 10
7.51359
 20
32.3845
 11
7.54709
 21
32.3694
  0
LINE
  8
0
 10
7.54709
 20
32.3694
 11
7.62232
 21
32.3356
  0
LINE
  8
0
 10
7.62232
 20
32.3356
 11
7.65256
 21
32.3278
  0
LINE
  8
0
 10
7.65256
 20
32.3278
 11
7.73676
 21
32.3058
  0
LINE
  8
0
 10
7.73676
 20
32.3058
 11
7.76463
 21
32.3035
  0
LINE
  8
0
 10
7.76463
 20
32.3035
 11
7.85409
 21
32.2958
  0
LINE
  8
0
 10
7.85409
 20
32.2958
 11
11
 21
32.2958
  0
LINE
  8
0
 10
11
 20
32.2958
 11
11
 21
45.5
  0
LINE
  8
0
 10
11
 20
45.5
 11
0
 21
45.5
  0
LINE
  8
0
 10
0
 20
45.5
 11
0
 21
42
  0
LINE
  8
0
 10
7.10409
 20
22.697
 11
7.10466
 21
22.6863
  0
LINE
  8
0
 10
7.10466
 20
22.6863
 11
7.11332
 21
22.5253
  0
LINE
  8
0
 10
7.11332
 20
22.5253
 11
7.11538
 21
22.5127
  0
LINE
  8
0
 10
7.11538
 20
22.5127
 11
7.14079
 21
22.3578
  0
LINE
  8
0
 10
7.14079
 20
22.3578
 11
7.14473
 21
22.344
  0
LINE
  8
0
 10
7.14473
 20
22.344
 11
7.18583
 21
22.1988
  0
LINE
  8
0
 10
7.18583
 20
22.1988
 11
7.19192
 21
22.1842
  0
LINE
  8
0
 10
7.19192
 20
22.1842
 11
7.24732
 21
22.0519
  0
LINE
  8
0
 10
7.24732
 20
22.0519
 11
7.25571
 21
22.0376
  0
LINE
  8
0
 10
7.25571
 20
22.0376
 11
7.32376
 21
21.921
  0
LINE
  8
0
 10
7.32376
 20
21.921
 11
7.33442
 21
21.9077
  0
LINE
  8
0
 10
7.33442
 20
21.9077
 11
7.41325
 21
21.8092
  0
LINE
  8
0
 10
7.41325
 20
21.8092
 11
7.42601
 21
21.7977
  0
LINE
  8
0
 10
7.42601
 20
21.7977
 11
7.51359
 21
21.7192
  0
LINE
  8
0
 10
7.51359
 20
21.7192
 11
7.52812
 21
21.7104
  0
LINE
  8
0
 10
7.52812
 20
21.7104
 11
7.62232
 21
21.6533
  0
LINE
  8
0
 10
7.62232
 20
21.6533
 11
7.63813
 21
21.6477
  0
LINE
  8
0
 10
7.63813
 20
21.6477
 11
7.73676
 21
21.6131
  0
LINE
  8
0
 10
7.73676
 20
21.6131
 11
7.85409
 21
21.5996
  0
LINE
  8
0
 10
7.85409
 20
21.5996
 11
11
 21
21.5996
  0
LINE
  8
0
 10
11
 20
21.5996
 11
11
 21
25.2337
  0
LINE
  8
0
 10
11
 20
25.2337
 11
7.85409
 21
25.2337
  0
LINE
  8
0
 10
7.85409
 20
25.2337
 11
7.73676
 21
25.2202
  0
LINE
  8
0
 10
7.73676
 20
25.2202
 11
7.71231
 21
25.2116
  0
LINE
  8
0
 10
7.71231
 20
25.2116
 11
7.62232
 21
25.18
  0
LINE
  8
0
 10
7.62232
 20
25.18
 11
7.59891
 21
25.1658
  0
LINE
  8
0
 10
7.59891
 20
25.1658
 11
7.51359
 21
25.1141
  0
LINE
  8
0
 10
7.51359
 20
25.1141
 11
7.49173
 21
25.0945
  0
LINE
  8
0
 10
7.49173
 20
25.0945
 11
7.41325
 21
25.0241
  0
LINE
  8
0
 10
7.41325
 20
25.0241
 11
7.39343
 21
24.9994
  0
LINE
  8
0
 10
7.39343
 20
24.9994
 11
7.32376
 21
24.9123
  0
LINE
  8
0
 10
7.32376
 20
24.9123
 11
7.30651
 21
24.8828
  0
LINE
  8
0
 10
7.30651
 20
24.8828
 11
7.24732
 21
24.7814
  0
LINE
  8
0
 10
7.24732
 20
24.7814
 11
7.23314
 21
24.7475
  0
LINE
  8
0
 10
7.23314
 20
24.7475
 11
7.18583
 21
24.6345
  0
LINE
  8
0
 10
7.18583
 20
24.6345
 11
7.1752
 21
24.597
  0
LINE
  8
0
 10
7.1752
 20
24.597
 11
7.14079
 21
24.4755
  0
LINE
  8
0
 10
7.14079
 20
24.4755
 11
7.13415
 21
24.4349
  0
LINE
  8
0
 10
7.13415
 20
24.4349
 11
7.11332
 21
24.308
  0
LINE
  8
0
 10
7.11332
 20
24.308
 11
7.11103
 21
24.2654
  0
LINE
  8
0
 10
7.11103
 20
24.2654
 11
7.10409
 21
24.1363
  0
LINE
  8
0
 10
7.10409
 20
24.1363
 11
7.10409
 21
22.697
  0
LINE
  8
0
 10
36.5
 20
0
 11
47.5
 21
0
  0
LINE
  8
0
 10
47.5
 20
0
 11
47.5
 21
3.5
  0
LINE
  8
0
 10
47.5
 20
3.5
 11
47
 21
4
  0
LINE
  8
0
 10
47
 20
4
 11
41.4543
 21
4
  0
LINE
  8
0
 10
41.4543
 20
4
 11
41.4543
 21
4.44162
  0
LINE
  8
0
 10
41.4543
 20
4.44162
 11
40.3959
 21
5.5
  0
LINE
  8
0
 10
40.3959
 20
5.5
 11
40.3959
 21
13.1864
  0
LINE
  8
0
 10
40.3959
 20
13.1864
 11
40.389
 21
13.3145
  0
LINE
  8
0
 10
40.389
 20
13.3145
 11
40.3867
 21
13.358
  0
LINE
  8
0
 10
40.3867
 20
13.358
 11
40.3665
 21
13.481
  0
LINE
  8
0
 10
40.3665
 20
13.481
 11
40.3592
 21
13.5255
  0
LINE
  8
0
 10
40.3592
 20
13.5255
 11
40.3267
 21
13.6404
  0
LINE
  8
0
 10
40.3267
 20
13.6404
 11
40.3142
 21
13.6846
  0
LINE
  8
0
 10
40.3142
 20
13.6846
 11
40.2704
 21
13.7891
  0
LINE
  8
0
 10
40.2704
 20
13.7891
 11
40.2527
 21
13.8314
  0
LINE
  8
0
 10
40.2527
 20
13.8314
 11
40.199
 21
13.9233
  0
LINE
  8
0
 10
40.199
 20
13.9233
 11
40.1762
 21
13.9623
  0
LINE
  8
0
 10
40.1762
 20
13.9623
 11
40.1142
 21
14.0399
  0
LINE
  8
0
 10
40.1142
 20
14.0399
 11
40.0868
 21
14.0742
  0
LINE
  8
0
 10
40.0868
 20
14.0742
 11
39.9864
 21
14.1641
  0
LINE
  8
0
 10
39.9864
 20
14.1641
 11
39.9123
 21
14.209
  0
LINE
  8
0
 10
39.9123
 20
14.209
 11
39.8777
 21
14.23
  0
LINE
  8
0
 10
39.8777
 20
14.23
 11
39.8001
 21
14.2573
  0
LINE
  8
0
 10
39.8001
 20
14.2573
 11
39.7632
 21
14.2702
  0
LINE
  8
0
 10
39.7632
 20
14.2702
 11
39.6839
 21
14.2794
  0
LINE
  8
0
 10
39.6839
 20
14.2794
 11
39.6459
 21
14.2837
  0
LINE
  8
0
 10
39.6459
 20
14.2837
 11
36.5
 21
14.2837
  0
LINE
  8
0
 10
36.5
 20
14.2837
 11
36.5
 21
0
  0
LINE
  8
0
 10
36.5
 20
21.5996
 11
39.6459
 21
21.5996
  0
LINE
  8
0
 10
39.6459
 20
21.5996
 11
39.7632
 21
21.6131
  0
LINE
  8
0
 10
39.7632
 20
21.6131
 11
39.7793
 21
21.6187
  0
LINE
  8
0
 10
39.7793
 20
21.6187
 11
39.8777
 21
21.6533
  0
LINE
  8
0
 10
39.8777
 20
21.6533
 11
39.8926
 21
21.6623
  0
LINE
  8
0
 10
39.8926
 20
21.6623
 11
39.9864
 21
21.7192
  0
LINE
  8
0
 10
39.9864
 20
21.7192
 11
39.9997
 21
21.7311
  0
LINE
  8
0
 10
39.9997
 20
21.7311
 11
40.0868
 21
21.8092
  0
LINE
  8
0
 10
40.0868
 20
21.8092
 11
40.098
 21
21.8232
  0
LINE
  8
0
 10
40.098
 20
21.8232
 11
40.1762
 21
21.921
  0
LINE
  8
0
 10
40.1762
 20
21.921
 11
40.1852
 21
21.9363
  0
LINE
  8
0
 10
40.1852
 20
21.9363
 11
40.2527
 21
22.0519
  0
LINE
  8
0
 10
40.2527
 20
22.0519
 11
40.2593
 21
22.0677
  0
LINE
  8
0
 10
40.2593
 20
22.0677
 11
40.3142
 21
22.1988
  0
LINE
  8
0
 10
40.3142
 20
22.1988
 11
40.3185
 21
22.2142
  0
LINE
  8
0
 10
40.3185
 20
22.2142
 11
40.3592
 21
22.3578
  0
LINE
  8
0
 10
40.3592
 20
22.3578
 11
40.3615
 21
22.3721
  0
LINE
  8
0
 10
40.3615
 20
22.3721
 11
40.3867
 21
22.5253
  0
LINE
  8
0
 10
40.3867
 20
22.5253
 11
40.3874
 21
22.5378
  0
LINE
  8
0
 10
40.3874
 20
22.5378
 11
40.3959
 21
22.697
  0
LINE
  8
0
 10
40.3959
 20
22.697
 11
40.3959
 21
24.1363
  0
LINE
  8
0
 10
40.3959
 20
24.1363
 11
40.3936
 21
24.1795
  0
LINE
  8
0
 10
40.3936
 20
24.1795
 11
40.3867
 21
24.308
  0
LINE
  8
0
 10
40.3867
 20
24.308
 11
40.3799
 21
24.3491
  0
LINE
  8
0
 10
40.3799
 20
24.3491
 11
40.3592
 21
24.4755
  0
LINE
  8
0
 10
40.3592
 20
24.4755
 11
40.3484
 21
24.5135
  0
LINE
  8
0
 10
40.3484
 20
24.5135
 11
40.3142
 21
24.6345
  0
LINE
  8
0
 10
40.3142
 20
24.6345
 11
40.2998
 21
24.6688
  0
LINE
  8
0
 10
40.2998
 20
24.6688
 11
40.2527
 21
24.7814
  0
LINE
  8
0
 10
40.2527
 20
24.7814
 11
40.2352
 21
24.8113
  0
LINE
  8
0
 10
40.2352
 20
24.8113
 11
40.1762
 21
24.9123
  0
LINE
  8
0
 10
40.1762
 20
24.9123
 11
40.1562
 21
24.9373
  0
LINE
  8
0
 10
40.1562
 20
24.9373
 11
40.0868
 21
25.0241
  0
LINE
  8
0
 10
40.0868
 20
25.0241
 11
40.0647
 21
25.0439
  0
LINE
  8
0
 10
40.0647
 20
25.0439
 11
39.9864
 21
25.1141
  0
LINE
  8
0
 10
39.9864
 20
25.1141
 11
39.9628
 21
25.1284
  0
LINE
  8
0
 10
39.9628
 20
25.1284
 11
39.8777
 21
25.18
  0
LINE
  8
0
 10
39.8777
 20
25.18
 11
39.8531
 21
25.1886
  0
LINE
  8
0
 10
39.8531
 20
25.1886
 11
39.7632
 21
25.2202
  0
LINE
  8
0
 10
39.7632
 20
25.2202
 11
39.6459
 21
25.2337
  0
LINE
  8
0
 10
39.6459
 20
25.2337
 11
36.5
 21
25.2337
  0
LINE
  8
0
 10
36.5
 20
25.2337
 11
36.5
 21
21.5996
  0
LINE
  8
0
 10
36.5
 20
32.2958
 11
39.6459
 21
32.2958
  0
LINE
  8
0
 10
39.6459
 20
32.2958
 11
39.673
 21
32.2981
  0
LINE
  8
0
 10
39.673
 20
32.2981
 11
39.7632
 21
32.3058
  0
LINE
  8
0
 10
39.7632
 20
32.3058
 11
39.7913
 21
32.3131
  0
LINE
  8
0
 10
39.7913
 20
32.3131
 11
39.8777
 21
32.3356
  0
LINE
  8
0
 10
39.8777
 20
32.3356
 11
39.9082
 21
32.3493
  0
LINE
  8
0
 10
39.9082
 20
32.3493
 11
39.9864
 21
32.3845
  0
LINE
  8
0
 10
39.9864
 20
32.3845
 11
40.0201
 21
32.4069
  0
LINE
  8
0
 10
40.0201
 20
32.4069
 11
40.0868
 21
32.4511
  0
LINE
  8
0
 10
40.0868
 20
32.4511
 11
40.1233
 21
32.485
  0
LINE
  8
0
 10
40.1233
 20
32.485
 11
40.1762
 21
32.534
  0
LINE
  8
0
 10
40.1762
 20
32.534
 11
40.214
 21
32.5819
  0
LINE
  8
0
 10
40.214
 20
32.5819
 11
40.2527
 21
32.631
  0
LINE
  8
0
 10
40.2527
 20
32.631
 11
40.2888
 21
32.6949
  0
LINE
  8
0
 10
40.2888
 20
32.6949
 11
40.3142
 21
32.7399
  0
LINE
  8
0
 10
40.3142
 20
32.7399
 11
40.345
 21
32.8205
  0
LINE
  8
0
 10
40.345
 20
32.8205
 11
40.3592
 21
32.8577
  0
LINE
  8
0
 10
40.3592
 20
32.8577
 11
40.3807
 21
32.9547
  0
LINE
  8
0
 10
40.3807
 20
32.9547
 11
40.3867
 21
32.9818
  0
LINE
  8
0
 10
40.3867
 20
32.9818
 11
40.3948
 21
33.093
  0
LINE
  8
0
 10
40.3948
 20
33.093
 11
40.3959
 21
33.109
  0
LINE
  8
0
 10
40.3959
 20
33.109
 11
40.3959
 21
40
  0
LINE
  8
0
 10
40.3959
 20
40
 11
41.4543
 21
41.0584
  0
LINE
  8
0
 10
41.4543
 20
41.0584
 11
41.4543
 21
41.5
  0
LINE
  8
0
 10
41.4543
 20
41.5
 11
47
 21
41.5
  0
LINE
  8
0
 10
47
 20
41.5
 11
47.5
 21
42
  0
LINE
  8
0
 10
47.5
 20
42
 11
47.5
 21
45.5
  0
LINE
  8
0
 10
47.5
 20
45.5
 11
36.5
 21
45.5
  0
LINE
  8
0
 10
36.5
 20
45.5
 11
36.5
 21
32.2958
  0
ENDSEC
  0
SECTION
  2
OBJECTS
  0
DICTIONARY
  0
ENDSEC
  0
EOF
