  0
SECTION
  2
BLOCKS
  0
ENDSEC
  0
SECTION
  2
ENTITIES
  0
LINE
  8
0
 10
0
 20
0
 11
11
 21
0
  0
LINE
  8
0
 10
11
 20
0
 11
11
 21
14.0701
  0
LINE
  8
0
 10
11
 20
14.0701
 11
7.85409
 21
14.0701
  0
LINE
  8
0
 10
7.85409
 20
14.0701
 11
7.77129
 21
14.0606
  0
LINE
  8
0
 10
7.77129
 20
14.0606
 11
7.73676
 21
14.0566
  0
LINE
  8
0
 10
7.73676
 20
14.0566
 11
7.65574
 21
14.0281
  0
LINE
  8
0
 10
7.65574
 20
14.0281
 11
7.62232
 21
14.0164
  0
LINE
  8
0
 10
7.62232
 20
14.0164
 11
7.54487
 21
13.9695
  0
LINE
  8
0
 10
7.54487
 20
13.9695
 11
7.51359
 21
13.9505
  0
LINE
  8
0
 10
7.51359
 20
13.9505
 11
7.41325
 21
13.8605
  0
LINE
  8
0
 10
7.41325
 20
13.8605
 11
7.34826
 21
13.7793
  0
LINE
  8
0
 10
7.34826
 20
13.7793
 11
7.32376
 21
13.7487
  0
LINE
  8
0
 10
7.32376
 20
13.7487
 11
7.26754
 21
13.6524
  0
LINE
  8
0
 10
7.26754
 20
13.6524
 11
7.24732
 21
13.6178
  0
LINE
  8
0
 10
7.24732
 20
13.6178
 11
7.20145
 21
13.5082
  0
LINE
  8
0
 10
7.20145
 20
13.5082
 11
7.18583
 21
13.4709
  0
LINE
  8
0
 10
7.18583
 20
13.4709
 11
7.15172
 21
13.3504
  0
LINE
  8
0
 10
7.15172
 20
13.3504
 11
7.14079
 21
13.3118
  0
LINE
  8
0
 10
7.14079
 20
13.3118
 11
7.11965
 21
13.183
  0
LINE
  8
0
 10
7.11965
 20
13.183
 11
7.11332
 21
13.1444
  0
LINE
  8
0
 10
7.11332
 20
13.1444
 11
7.1061
 21
13.0101
  0
LINE
  8
0
 10
7.1061
 20
13.0101
 11
7.10409
 21
12.9727
  0
LINE
  8
0
 10
7.10409
 20
12.9727
 11
7.10409
 21
5.5
  0
LINE
  8
0
 10
7.10409
 20
5.5
 11
5.6993
 21
4.09521
  0
LINE
  8
0
 10
5.6993
 20
4.09521
 11
5.6993
 21
4
  0
LINE
  8
0
 10
5.6993
 20
4
 11
0.499999
 21
4
  0
LINE
  8
0
 10
0.499999
 20
4
 11
0
 21
3.5
  0
LINE
  8
0
 10
0
 20
3.5
 11
0
 21
0
  0
LINE
  8
0
 10
0
 20
42
 11
0.499999
 21
41.5
  0
LINE
  8
0
 10
0.499999
 20
41.5
 11
5.6993
 21
41.5
  0
LINE
  8
0
 10
5.6993
 20
41.5
 11
5.6993
 21
41.4048
  0
LINE
  8
0
 10
5.6993
 20
41.4048
 11
7.10409
 21
40
  0
LINE
  8
0
 10
7.10409
 20
40
 11
7.10409
 21
33.0233
  0
LINE
  8
0
 10
7.10409
 20
33.0233
 11
7.10823
 21
32.9662
  0
LINE
  8
0
 10
7.10823
 20
32.9662
 11
7.11332
 21
32.8961
  0
LINE
  8
0
 10
7.11332
 20
32.8961
 11
7.12316
 21
32.8517
  0
LINE
  8
0
 10
7.12316
 20
32.8517
 11
7.14079
 21
32.772
  0
LINE
  8
0
 10
7.14079
 20
32.772
 11
7.15265
 21
32.741
  0
LINE
  8
0
 10
7.15265
 20
32.741
 11
7.18583
 21
32.6541
  0
LINE
  8
0
 10
7.18583
 20
32.6541
 11
7.19605
 21
32.636
  0
LINE
  8
0
 10
7.19605
 20
32.636
 11
7.24732
 21
32.5453
  0
LINE
  8
0
 10
7.24732
 20
32.5453
 11
7.25265
 21
32.5386
  0
LINE
  8
0
 10
7.25265
 20
32.5386
 11
7.3051
 21
32.472
  0
LINE
  8
0
 10
7.3051
 20
32.472
 11
7.32195
 21
32.4486
  0
LINE
  8
0
 10
7.32195
 20
32.4486
 11
7.32376
 21
32.4461
  0
LINE
  8
0
 10
7.32376
 20
32.4461
 11
7.40329
 21
32.3657
  0
LINE
  8
0
 10
7.40329
 20
32.3657
 11
7.41325
 21
32.3556
  0
LINE
  8
0
 10
7.41325
 20
32.3556
 11
7.49464
 21
32.2966
  0
LINE
  8
0
 10
7.49464
 20
32.2966
 11
7.51359
 21
32.2828
  0
LINE
  8
0
 10
7.51359
 20
32.2828
 11
7.59487
 21
32.243
  0
LINE
  8
0
 10
7.59487
 20
32.243
 11
7.62232
 21
32.2295
  0
LINE
  8
0
 10
7.62232
 20
32.2295
 11
7.70269
 21
32.2066
  0
LINE
  8
0
 10
7.70269
 20
32.2066
 11
7.73676
 21
32.197
  0
LINE
  8
0
 10
7.73676
 20
32.197
 11
7.81649
 21
32.1895
  0
LINE
  8
0
 10
7.81649
 20
32.1895
 11
7.85409
 21
32.186
  0
LINE
  8
0
 10
7.85409
 20
32.186
 11
11
 21
32.186
  0
LINE
  8
0
 10
11
 20
32.186
 11
11
 21
45.5
  0
LINE
  8
0
 10
11
 20
45.5
 11
0
 21
45.5
  0
LINE
  8
0
 10
0
 20
45.5
 11
0
 21
42
  0
LINE
  8
0
 10
7.10409
 20
22.4833
 11
7.10494
 21
22.4675
  0
LINE
  8
0
 10
7.10494
 20
22.4675
 11
7.11332
 21
22.3117
  0
LINE
  8
0
 10
7.11332
 20
22.3117
 11
7.11619
 21
22.2941
  0
LINE
  8
0
 10
7.11619
 20
22.2941
 11
7.14079
 21
22.1442
  0
LINE
  8
0
 10
7.14079
 20
22.1442
 11
7.14606
 21
22.1256
  0
LINE
  8
0
 10
7.14606
 20
22.1256
 11
7.18583
 21
21.9851
  0
LINE
  8
0
 10
7.18583
 20
21.9851
 11
7.19374
 21
21.9663
  0
LINE
  8
0
 10
7.19374
 20
21.9663
 11
7.24732
 21
21.8383
  0
LINE
  8
0
 10
7.24732
 20
21.8383
 11
7.25797
 21
21.8201
  0
LINE
  8
0
 10
7.25797
 20
21.8201
 11
7.32376
 21
21.7074
  0
LINE
  8
0
 10
7.32376
 20
21.7074
 11
7.33706
 21
21.6907
  0
LINE
  8
0
 10
7.33706
 20
21.6907
 11
7.41325
 21
21.5955
  0
LINE
  8
0
 10
7.41325
 20
21.5955
 11
7.42897
 21
21.5814
  0
LINE
  8
0
 10
7.42897
 20
21.5814
 11
7.51359
 21
21.5056
  0
LINE
  8
0
 10
7.51359
 20
21.5056
 11
7.53131
 21
21.4948
  0
LINE
  8
0
 10
7.53131
 20
21.4948
 11
7.62232
 21
21.4397
  0
LINE
  8
0
 10
7.62232
 20
21.4397
 11
7.64149
 21
21.4329
  0
LINE
  8
0
 10
7.64149
 20
21.4329
 11
7.73676
 21
21.3995
  0
LINE
  8
0
 10
7.73676
 20
21.3995
 11
7.85409
 21
21.386
  0
LINE
  8
0
 10
7.85409
 20
21.386
 11
11
 21
21.386
  0
LINE
  8
0
 10
11
 20
21.386
 11
11
 21
25.0201
  0
LINE
  8
0
 10
11
 20
25.0201
 11
7.85409
 21
25.0201
  0
LINE
  8
0
 10
7.85409
 20
25.0201
 11
7.73676
 21
25.0066
  0
LINE
  8
0
 10
7.73676
 20
25.0066
 11
7.71063
 21
24.9974
  0
LINE
  8
0
 10
7.71063
 20
24.9974
 11
7.62232
 21
24.9664
  0
LINE
  8
0
 10
7.62232
 20
24.9664
 11
7.59732
 21
24.9512
  0
LINE
  8
0
 10
7.59732
 20
24.9512
 11
7.51359
 21
24.9005
  0
LINE
  8
0
 10
7.51359
 20
24.9005
 11
7.49025
 21
24.8796
  0
LINE
  8
0
 10
7.49025
 20
24.8796
 11
7.41325
 21
24.8105
  0
LINE
  8
0
 10
7.41325
 20
24.8105
 11
7.39212
 21
24.7841
  0
LINE
  8
0
 10
7.39212
 20
24.7841
 11
7.32376
 21
24.6987
  0
LINE
  8
0
 10
7.32376
 20
24.6987
 11
7.30538
 21
24.6672
  0
LINE
  8
0
 10
7.30538
 20
24.6672
 11
7.24732
 21
24.5677
  0
LINE
  8
0
 10
7.24732
 20
24.5677
 11
7.23224
 21
24.5317
  0
LINE
  8
0
 10
7.23224
 20
24.5317
 11
7.18583
 21
24.4209
  0
LINE
  8
0
 10
7.18583
 20
24.4209
 11
7.17454
 21
24.381
  0
LINE
  8
0
 10
7.17454
 20
24.381
 11
7.14079
 21
24.2618
  0
LINE
  8
0
 10
7.14079
 20
24.2618
 11
7.13374
 21
24.2188
  0
LINE
  8
0
 10
7.13374
 20
24.2188
 11
7.11332
 21
24.0944
  0
LINE
  8
0
 10
7.11332
 20
24.0944
 11
7.11089
 21
24.0493
  0
LINE
  8
0
 10
7.11089
 20
24.0493
 11
7.10409
 21
23.9227
  0
LINE
  8
0
 10
7.10409
 20
23.9227
 11
7.10409
 21
22.4833
  0
LINE
  8
0
 10
36.5
 20
0
 11
47.5
 21
0
  0
LINE
  8
0
 10
47.5
 20
0
 11
47.5
 21
3.5
  0
LINE
  8
0
 10
47.5
 20
3.5
 11
47
 21
4
  0
LINE
  8
0
 10
47
 20
4
 11
41.8007
 21
4
  0
LINE
  8
0
 10
41.8007
 20
4
 11
41.8007
 21
4.09521
  0
LINE
  8
0
 10
41.8007
 20
4.09521
 11
40.3959
 21
5.5
  0
LINE
  8
0
 10
40.3959
 20
5.5
 11
40.3959
 21
12.9727
  0
LINE
  8
0
 10
40.3959
 20
12.9727
 11
40.3888
 21
13.1058
  0
LINE
  8
0
 10
40.3888
 20
13.1058
 11
40.3867
 21
13.1444
  0
LINE
  8
0
 10
40.3867
 20
13.1444
 11
40.3657
 21
13.2722
  0
LINE
  8
0
 10
40.3657
 20
13.2722
 11
40.3592
 21
13.3118
  0
LINE
  8
0
 10
40.3592
 20
13.3118
 11
40.3254
 21
13.4314
  0
LINE
  8
0
 10
40.3254
 20
13.4314
 11
40.3142
 21
13.4709
  0
LINE
  8
0
 10
40.3142
 20
13.4709
 11
40.2686
 21
13.5797
  0
LINE
  8
0
 10
40.2686
 20
13.5797
 11
40.2527
 21
13.6178
  0
LINE
  8
0
 10
40.2527
 20
13.6178
 11
40.1968
 21
13.7135
  0
LINE
  8
0
 10
40.1968
 20
13.7135
 11
40.1762
 21
13.7487
  0
LINE
  8
0
 10
40.1762
 20
13.7487
 11
40.1116
 21
13.8295
  0
LINE
  8
0
 10
40.1116
 20
13.8295
 11
40.0868
 21
13.8605
  0
LINE
  8
0
 10
40.0868
 20
13.8605
 11
39.9864
 21
13.9505
  0
LINE
  8
0
 10
39.9864
 20
13.9505
 11
39.9092
 21
13.9973
  0
LINE
  8
0
 10
39.9092
 20
13.9973
 11
39.8777
 21
14.0164
  0
LINE
  8
0
 10
39.8777
 20
14.0164
 11
39.7968
 21
14.0448
  0
LINE
  8
0
 10
39.7968
 20
14.0448
 11
39.7632
 21
14.0566
  0
LINE
  8
0
 10
39.7632
 20
14.0566
 11
39.6805
 21
14.0661
  0
LINE
  8
0
 10
39.6805
 20
14.0661
 11
39.6459
 21
14.0701
  0
LINE
  8
0
 10
39.6459
 20
14.0701
 11
36.5
 21
14.0701
  0
LINE
  8
0
 10
36.5
 20
14.0701
 11
36.5
 21
0
  0
LINE
  8
0
 10
36.5
 20
21.386
 11
39.6459
 21
21.386
  0
LINE
  8
0
 10
39.6459
 20
21.386
 11
39.7632
 21
21.3995
  0
LINE
  8
0
 10
39.7632
 20
21.3995
 11
39.7826
 21
21.4063
  0
LINE
  8
0
 10
39.7826
 20
21.4063
 11
39.8777
 21
21.4397
  0
LINE
  8
0
 10
39.8777
 20
21.4397
 11
39.8957
 21
21.4506
  0
LINE
  8
0
 10
39.8957
 20
21.4506
 11
39.9864
 21
21.5056
  0
LINE
  8
0
 10
39.9864
 20
21.5056
 11
40.0026
 21
21.5201
  0
LINE
  8
0
 10
40.0026
 20
21.5201
 11
40.0868
 21
21.5955
  0
LINE
  8
0
 10
40.0868
 20
21.5955
 11
40.1006
 21
21.6128
  0
LINE
  8
0
 10
40.1006
 20
21.6128
 11
40.1762
 21
21.7074
  0
LINE
  8
0
 10
40.1762
 20
21.7074
 11
40.1874
 21
21.7265
  0
LINE
  8
0
 10
40.1874
 20
21.7265
 11
40.2527
 21
21.8383
  0
LINE
  8
0
 10
40.2527
 20
21.8383
 11
40.2611
 21
21.8583
  0
LINE
  8
0
 10
40.2611
 20
21.8583
 11
40.3142
 21
21.9851
  0
LINE
  8
0
 10
40.3142
 20
21.9851
 11
40.3198
 21
22.0051
  0
LINE
  8
0
 10
40.3198
 20
22.0051
 11
40.3592
 21
22.1442
  0
LINE
  8
0
 10
40.3592
 20
22.1442
 11
40.3623
 21
22.1633
  0
LINE
  8
0
 10
40.3623
 20
22.1633
 11
40.3867
 21
22.3117
  0
LINE
  8
0
 10
40.3867
 20
22.3117
 11
40.3876
 21
22.3292
  0
LINE
  8
0
 10
40.3876
 20
22.3292
 11
40.3959
 21
22.4833
  0
LINE
  8
0
 10
40.3959
 20
22.4833
 11
40.3959
 21
23.9227
  0
LINE
  8
0
 10
40.3959
 20
23.9227
 11
40.3935
 21
23.9684
  0
LINE
  8
0
 10
40.3935
 20
23.9684
 11
40.3867
 21
24.0944
  0
LINE
  8
0
 10
40.3867
 20
24.0944
 11
40.3795
 21
24.1379
  0
LINE
  8
0
 10
40.3795
 20
24.1379
 11
40.3592
 21
24.2618
  0
LINE
  8
0
 10
40.3592
 20
24.2618
 11
40.3478
 21
24.3022
  0
LINE
  8
0
 10
40.3478
 20
24.3022
 11
40.3142
 21
24.4209
  0
LINE
  8
0
 10
40.3142
 20
24.4209
 11
40.2989
 21
24.4573
  0
LINE
  8
0
 10
40.2989
 20
24.4573
 11
40.2527
 21
24.5677
  0
LINE
  8
0
 10
40.2527
 20
24.5677
 11
40.2341
 21
24.5995
  0
LINE
  8
0
 10
40.2341
 20
24.5995
 11
40.1762
 21
24.6987
  0
LINE
  8
0
 10
40.1762
 20
24.6987
 11
40.1549
 21
24.7253
  0
LINE
  8
0
 10
40.1549
 20
24.7253
 11
40.0868
 21
24.8105
  0
LINE
  8
0
 10
40.0868
 20
24.8105
 11
40.0632
 21
24.8316
  0
LINE
  8
0
 10
40.0632
 20
24.8316
 11
39.9864
 21
24.9005
  0
LINE
  8
0
 10
39.9864
 20
24.9005
 11
39.9613
 21
24.9157
  0
LINE
  8
0
 10
39.9613
 20
24.9157
 11
39.8777
 21
24.9664
  0
LINE
  8
0
 10
39.8777
 20
24.9664
 11
39.8515
 21
24.9756
  0
LINE
  8
0
 10
39.8515
 20
24.9756
 11
39.7632
 21
25.0066
  0
LINE
  8
0
 10
39.7632
 20
25.0066
 11
39.6459
 21
25.0201
  0
LINE
  8
0
 10
39.6459
 20
25.0201
 11
36.5
 21
25.0201
  0
LINE
  8
0
 10
36.5
 20
25.0201
 11
36.5
 21
21.386
  0
LINE
  8
0
 10
36.5
 20
32.186
 11
39.6459
 21
32.186
  0
LINE
  8
0
 10
39.6459
 20
32.186
 11
39.726
 21
32.1935
  0
LINE
  8
0
 10
39.726
 20
32.1935
 11
39.7632
 21
32.197
  0
LINE
  8
0
 10
39.7632
 20
32.197
 11
39.845
 21
32.2202
  0
LINE
  8
0
 10
39.845
 20
32.2202
 11
39.8777
 21
32.2295
  0
LINE
  8
0
 10
39.8777
 20
32.2295
 11
39.9619
 21
32.2708
  0
LINE
  8
0
 10
39.9619
 20
32.2708
 11
39.9864
 21
32.2828
  0
LINE
  8
0
 10
39.9864
 20
32.2828
 11
40.0728
 21
32.3455
  0
LINE
  8
0
 10
40.0728
 20
32.3455
 11
40.0868
 21
32.3556
  0
LINE
  8
0
 10
40.0868
 20
32.3556
 11
40.1735
 21
32.4433
  0
LINE
  8
0
 10
40.1735
 20
32.4433
 11
40.1762
 21
32.4461
  0
LINE
  8
0
 10
40.1762
 20
32.4461
 11
40.1949
 21
32.472
  0
LINE
  8
0
 10
40.1949
 20
32.472
 11
40.2527
 21
32.5453
  0
LINE
  8
0
 10
40.2527
 20
32.5453
 11
40.2576
 21
32.5541
  0
LINE
  8
0
 10
40.2576
 20
32.5541
 11
40.3142
 21
32.6541
  0
LINE
  8
0
 10
40.3142
 20
32.6541
 11
40.3229
 21
32.6769
  0
LINE
  8
0
 10
40.3229
 20
32.6769
 11
40.3592
 21
32.772
  0
LINE
  8
0
 10
40.3592
 20
32.772
 11
40.3676
 21
32.8101
  0
LINE
  8
0
 10
40.3676
 20
32.8101
 11
40.3867
 21
32.8961
  0
LINE
  8
0
 10
40.3867
 20
32.8961
 11
40.3905
 21
32.9493
  0
LINE
  8
0
 10
40.3905
 20
32.9493
 11
40.3959
 21
33.0233
  0
LINE
  8
0
 10
40.3959
 20
33.0233
 11
40.3959
 21
40
  0
LINE
  8
0
 10
40.3959
 20
40
 11
41.8007
 21
41.4048
  0
LINE
  8
0
 10
41.8007
 20
41.4048
 11
41.8007
 21
41.5
  0
LINE
  8
0
 10
41.8007
 20
41.5
 11
47
 21
41.5
  0
LINE
  8
0
 10
47
 20
41.5
 11
47.5
 21
42
  0
LINE
  8
0
 10
47.5
 20
42
 11
47.5
 21
45.5
  0
LINE
  8
0
 10
47.5
 20
45.5
 11
36.5
 21
45.5
  0
LINE
  8
0
 10
36.5
 20
45.5
 11
36.5
 21
32.186
  0
ENDSEC
  0
SECTION
  2
OBJECTS
  0
DICTIONARY
  0
ENDSEC
  0
EOF
