  0
SECTION
  2
BLOCKS
  0
ENDSEC
  0
SECTION
  2
ENTITIES
  0
LINE
  8
0
 10
0
 20
0
 11
11
 21
0
  0
LINE
  8
0
 10
11
 20
0
 11
11
 21
13.8565
  0
LINE
  8
0
 10
11
 20
13.8565
 11
7.85409
 21
13.8565
  0
LINE
  8
0
 10
7.85409
 20
13.8565
 11
7.76786
 21
13.8466
  0
LINE
  8
0
 10
7.76786
 20
13.8466
 11
7.73676
 21
13.843
  0
LINE
  8
0
 10
7.73676
 20
13.843
 11
7.65238
 21
13.8133
  0
LINE
  8
0
 10
7.65238
 20
13.8133
 11
7.62232
 21
13.8028
  0
LINE
  8
0
 10
7.62232
 20
13.8028
 11
7.54168
 21
13.7539
  0
LINE
  8
0
 10
7.54168
 20
13.7539
 11
7.51359
 21
13.7369
  0
LINE
  8
0
 10
7.51359
 20
13.7369
 11
7.41325
 21
13.6469
  0
LINE
  8
0
 10
7.41325
 20
13.6469
 11
7.34562
 21
13.5624
  0
LINE
  8
0
 10
7.34562
 20
13.5624
 11
7.32376
 21
13.5351
  0
LINE
  8
0
 10
7.32376
 20
13.5351
 11
7.26529
 21
13.4349
  0
LINE
  8
0
 10
7.26529
 20
13.4349
 11
7.24732
 21
13.4041
  0
LINE
  8
0
 10
7.24732
 20
13.4041
 11
7.19963
 21
13.2903
  0
LINE
  8
0
 10
7.19963
 20
13.2903
 11
7.18583
 21
13.2573
  0
LINE
  8
0
 10
7.18583
 20
13.2573
 11
7.15038
 21
13.1321
  0
LINE
  8
0
 10
7.15038
 20
13.1321
 11
7.14079
 21
13.0982
  0
LINE
  8
0
 10
7.14079
 20
13.0982
 11
7.11883
 21
12.9644
  0
LINE
  8
0
 10
7.11883
 20
12.9644
 11
7.11332
 21
12.9308
  0
LINE
  8
0
 10
7.11332
 20
12.9308
 11
7.10582
 21
12.7914
  0
LINE
  8
0
 10
7.10582
 20
12.7914
 11
7.10409
 21
12.7591
  0
LINE
  8
0
 10
7.10409
 20
12.7591
 11
7.10409
 21
5.5
  0
LINE
  8
0
 10
7.10409
 20
5.5
 11
5.60409
 21
4
  0
LINE
  8
0
 10
5.60409
 20
4
 11
0.499999
 21
4
  0
LINE
  8
0
 10
0.499999
 20
4
 11
0
 21
3.5
  0
LINE
  8
0
 10
0
 20
3.5
 11
0
 21
0
  0
LINE
  8
0
 10
0
 20
42
 11
0.499999
 21
41.5
  0
LINE
  8
0
 10
0.499999
 20
41.5
 11
5.60409
 21
41.5
  0
LINE
  8
0
 10
5.60409
 20
41.5
 11
7.10409
 21
40
  0
LINE
  8
0
 10
7.10409
 20
40
 11
7.10409
 21
32.9376
  0
LINE
  8
0
 10
7.10409
 20
32.9376
 11
7.10475
 21
32.9284
  0
LINE
  8
0
 10
7.10475
 20
32.9284
 11
7.11051
 21
32.8491
  0
LINE
  8
0
 10
7.11051
 20
32.8491
 11
7.11302
 21
32.8114
  0
LINE
  8
0
 10
7.11302
 20
32.8114
 11
7.11332
 21
32.8068
  0
LINE
  8
0
 10
7.11332
 20
32.8068
 11
7.13684
 21
32.6908
  0
LINE
  8
0
 10
7.13684
 20
32.6908
 11
7.14079
 21
32.6713
  0
LINE
  8
0
 10
7.14079
 20
32.6713
 11
7.17422
 21
32.5758
  0
LINE
  8
0
 10
7.17422
 20
32.5758
 11
7.18583
 21
32.5426
  0
LINE
  8
0
 10
7.18583
 20
32.5426
 11
7.2244
 21
32.4681
  0
LINE
  8
0
 10
7.2244
 20
32.4681
 11
7.24732
 21
32.4238
  0
LINE
  8
0
 10
7.24732
 20
32.4238
 11
7.2866
 21
32.3693
  0
LINE
  8
0
 10
7.2866
 20
32.3693
 11
7.32376
 21
32.3178
  0
LINE
  8
0
 10
7.32376
 20
32.3178
 11
7.36005
 21
32.2811
  0
LINE
  8
0
 10
7.36005
 20
32.2811
 11
7.41325
 21
32.2273
  0
LINE
  8
0
 10
7.41325
 20
32.2273
 11
7.44399
 21
32.205
  0
LINE
  8
0
 10
7.44399
 20
32.205
 11
7.51359
 21
32.1545
  0
LINE
  8
0
 10
7.51359
 20
32.1545
 11
7.53764
 21
32.1427
  0
LINE
  8
0
 10
7.53764
 20
32.1427
 11
7.62232
 21
32.1012
  0
LINE
  8
0
 10
7.62232
 20
32.1012
 11
7.64007
 21
32.0962
  0
LINE
  8
0
 10
7.64007
 20
32.0962
 11
7.73676
 21
32.0687
  0
LINE
  8
0
 10
7.73676
 20
32.0687
 11
7.75005
 21
32.0674
  0
LINE
  8
0
 10
7.75005
 20
32.0674
 11
7.85409
 21
32.0578
  0
LINE
  8
0
 10
7.85409
 20
32.0578
 11
11
 21
32.0578
  0
LINE
  8
0
 10
11
 20
32.0578
 11
11
 21
45.5
  0
LINE
  8
0
 10
11
 20
45.5
 11
0
 21
45.5
  0
LINE
  8
0
 10
0
 20
45.5
 11
0
 21
42
  0
LINE
  8
0
 10
7.10409
 20
22.2697
 11
7.10521
 21
22.2488
  0
LINE
  8
0
 10
7.10521
 20
22.2488
 11
7.11332
 21
22.098
  0
LINE
  8
0
 10
7.11332
 20
22.098
 11
7.11701
 21
22.0756
  0
LINE
  8
0
 10
7.11701
 20
22.0756
 11
7.14079
 21
21.9306
  0
LINE
  8
0
 10
7.14079
 20
21.9306
 11
7.14739
 21
21.9073
  0
LINE
  8
0
 10
7.14739
 20
21.9073
 11
7.18583
 21
21.7715
  0
LINE
  8
0
 10
7.18583
 20
21.7715
 11
7.19556
 21
21.7483
  0
LINE
  8
0
 10
7.19556
 20
21.7483
 11
7.24732
 21
21.6247
  0
LINE
  8
0
 10
7.24732
 20
21.6247
 11
7.26022
 21
21.6026
  0
LINE
  8
0
 10
7.26022
 20
21.6026
 11
7.32376
 21
21.4937
  0
LINE
  8
0
 10
7.32376
 20
21.4937
 11
7.3397
 21
21.4738
  0
LINE
  8
0
 10
7.3397
 20
21.4738
 11
7.41325
 21
21.3819
  0
LINE
  8
0
 10
7.41325
 20
21.3819
 11
7.43192
 21
21.3652
  0
LINE
  8
0
 10
7.43192
 20
21.3652
 11
7.51359
 21
21.2919
  0
LINE
  8
0
 10
7.51359
 20
21.2919
 11
7.53451
 21
21.2793
  0
LINE
  8
0
 10
7.53451
 20
21.2793
 11
7.62232
 21
21.226
  0
LINE
  8
0
 10
7.62232
 20
21.226
 11
7.64485
 21
21.2181
  0
LINE
  8
0
 10
7.64485
 20
21.2181
 11
7.73676
 21
21.1858
  0
LINE
  8
0
 10
7.73676
 20
21.1858
 11
7.85409
 21
21.1723
  0
LINE
  8
0
 10
7.85409
 20
21.1723
 11
11
 21
21.1723
  0
LINE
  8
0
 10
11
 20
21.1723
 11
11
 21
24.8065
  0
LINE
  8
0
 10
11
 20
24.8065
 11
7.85409
 21
24.8065
  0
LINE
  8
0
 10
7.85409
 20
24.8065
 11
7.73676
 21
24.793
  0
LINE
  8
0
 10
7.73676
 20
24.793
 11
7.70896
 21
24.7832
  0
LINE
  8
0
 10
7.70896
 20
24.7832
 11
7.62232
 21
24.7528
  0
LINE
  8
0
 10
7.62232
 20
24.7528
 11
7.59572
 21
24.7366
  0
LINE
  8
0
 10
7.59572
 20
24.7366
 11
7.51359
 21
24.6869
  0
LINE
  8
0
 10
7.51359
 20
24.6869
 11
7.48878
 21
24.6646
  0
LINE
  8
0
 10
7.48878
 20
24.6646
 11
7.41325
 21
24.5969
  0
LINE
  8
0
 10
7.41325
 20
24.5969
 11
7.39081
 21
24.5688
  0
LINE
  8
0
 10
7.39081
 20
24.5688
 11
7.32376
 21
24.4851
  0
LINE
  8
0
 10
7.32376
 20
24.4851
 11
7.30426
 21
24.4517
  0
LINE
  8
0
 10
7.30426
 20
24.4517
 11
7.24732
 21
24.3541
  0
LINE
  8
0
 10
7.24732
 20
24.3541
 11
7.23134
 21
24.3159
  0
LINE
  8
0
 10
7.23134
 20
24.3159
 11
7.18583
 21
24.2073
  0
LINE
  8
0
 10
7.18583
 20
24.2073
 11
7.17387
 21
24.1651
  0
LINE
  8
0
 10
7.17387
 20
24.1651
 11
7.14079
 21
24.0482
  0
LINE
  8
0
 10
7.14079
 20
24.0482
 11
7.13334
 21
24.0028
  0
LINE
  8
0
 10
7.13334
 20
24.0028
 11
7.11332
 21
23.8808
  0
LINE
  8
0
 10
7.11332
 20
23.8808
 11
7.11076
 21
23.8331
  0
LINE
  8
0
 10
7.11076
 20
23.8331
 11
7.10409
 21
23.7091
  0
LINE
  8
0
 10
7.10409
 20
23.7091
 11
7.10409
 21
22.2697
  0
LINE
  8
0
 10
36.5
 20
0
 11
47.5
 21
0
  0
LINE
  8
0
 10
47.5
 20
0
 11
47.5
 21
3.5
  0
LINE
  8
0
 10
47.5
 20
3.5
 11
47
 21
4
  0
LINE
  8
0
 10
47
 20
4
 11
41.8959
 21
4
  0
LINE
  8
0
 10
41.8959
 20
4
 11
40.3959
 21
5.5
  0
LINE
  8
0
 10
40.3959
 20
5.5
 11
40.3959
 21
12.7591
  0
LINE
  8
0
 10
40.3959
 20
12.7591
 11
40.3885
 21
12.8972
  0
LINE
  8
0
 10
40.3885
 20
12.8972
 11
40.3867
 21
12.9308
  0
LINE
  8
0
 10
40.3867
 20
12.9308
 11
40.3649
 21
13.0634
  0
LINE
  8
0
 10
40.3649
 20
13.0634
 11
40.3592
 21
13.0982
  0
LINE
  8
0
 10
40.3592
 20
13.0982
 11
40.3241
 21
13.2224
  0
LINE
  8
0
 10
40.3241
 20
13.2224
 11
40.3142
 21
13.2573
  0
LINE
  8
0
 10
40.3142
 20
13.2573
 11
40.2668
 21
13.3703
  0
LINE
  8
0
 10
40.2668
 20
13.3703
 11
40.2527
 21
13.4041
  0
LINE
  8
0
 10
40.2527
 20
13.4041
 11
40.1946
 21
13.5036
  0
LINE
  8
0
 10
40.1946
 20
13.5036
 11
40.1762
 21
13.5351
  0
LINE
  8
0
 10
40.1762
 20
13.5351
 11
40.109
 21
13.6191
  0
LINE
  8
0
 10
40.109
 20
13.6191
 11
40.0868
 21
13.6469
  0
LINE
  8
0
 10
40.0868
 20
13.6469
 11
39.9864
 21
13.7369
  0
LINE
  8
0
 10
39.9864
 20
13.7369
 11
39.906
 21
13.7856
  0
LINE
  8
0
 10
39.906
 20
13.7856
 11
39.8777
 21
13.8028
  0
LINE
  8
0
 10
39.8777
 20
13.8028
 11
39.7934
 21
13.8324
  0
LINE
  8
0
 10
39.7934
 20
13.8324
 11
39.7632
 21
13.843
  0
LINE
  8
0
 10
39.7632
 20
13.843
 11
39.6771
 21
13.8529
  0
LINE
  8
0
 10
39.6771
 20
13.8529
 11
39.6459
 21
13.8565
  0
LINE
  8
0
 10
39.6459
 20
13.8565
 11
36.5
 21
13.8565
  0
LINE
  8
0
 10
36.5
 20
13.8565
 11
36.5
 21
0
  0
LINE
  8
0
 10
36.5
 20
21.1723
 11
39.6459
 21
21.1723
  0
LINE
  8
0
 10
39.6459
 20
21.1723
 11
39.7632
 21
21.1858
  0
LINE
  8
0
 10
39.7632
 20
21.1858
 11
39.786
 21
21.1938
  0
LINE
  8
0
 10
39.786
 20
21.1938
 11
39.8777
 21
21.226
  0
LINE
  8
0
 10
39.8777
 20
21.226
 11
39.8989
 21
21.2389
  0
LINE
  8
0
 10
39.8989
 20
21.2389
 11
39.9864
 21
21.2919
  0
LINE
  8
0
 10
39.9864
 20
21.2919
 11
40.0055
 21
21.3091
  0
LINE
  8
0
 10
40.0055
 20
21.3091
 11
40.0868
 21
21.3819
  0
LINE
  8
0
 10
40.0868
 20
21.3819
 11
40.1032
 21
21.4024
  0
LINE
  8
0
 10
40.1032
 20
21.4024
 11
40.1762
 21
21.4937
  0
LINE
  8
0
 10
40.1762
 20
21.4937
 11
40.1896
 21
21.5167
  0
LINE
  8
0
 10
40.1896
 20
21.5167
 11
40.2527
 21
21.6247
  0
LINE
  8
0
 10
40.2527
 20
21.6247
 11
40.2628
 21
21.649
  0
LINE
  8
0
 10
40.2628
 20
21.649
 11
40.3142
 21
21.7715
  0
LINE
  8
0
 10
40.3142
 20
21.7715
 11
40.3211
 21
21.7961
  0
LINE
  8
0
 10
40.3211
 20
21.7961
 11
40.3592
 21
21.9306
  0
LINE
  8
0
 10
40.3592
 20
21.9306
 11
40.3631
 21
21.9546
  0
LINE
  8
0
 10
40.3631
 20
21.9546
 11
40.3867
 21
22.098
  0
LINE
  8
0
 10
40.3867
 20
22.098
 11
40.3879
 21
22.1205
  0
LINE
  8
0
 10
40.3879
 20
22.1205
 11
40.3959
 21
22.2697
  0
LINE
  8
0
 10
40.3959
 20
22.2697
 11
40.3959
 21
23.7091
  0
LINE
  8
0
 10
40.3959
 20
23.7091
 11
40.3933
 21
23.7572
  0
LINE
  8
0
 10
40.3933
 20
23.7572
 11
40.3867
 21
23.8808
  0
LINE
  8
0
 10
40.3867
 20
23.8808
 11
40.3791
 21
23.9267
  0
LINE
  8
0
 10
40.3791
 20
23.9267
 11
40.3592
 21
24.0482
  0
LINE
  8
0
 10
40.3592
 20
24.0482
 11
40.3471
 21
24.0909
  0
LINE
  8
0
 10
40.3471
 20
24.0909
 11
40.3142
 21
24.2073
  0
LINE
  8
0
 10
40.3142
 20
24.2073
 11
40.298
 21
24.2459
  0
LINE
  8
0
 10
40.298
 20
24.2459
 11
40.2527
 21
24.3541
  0
LINE
  8
0
 10
40.2527
 20
24.3541
 11
40.233
 21
24.3878
  0
LINE
  8
0
 10
40.233
 20
24.3878
 11
40.1762
 21
24.4851
  0
LINE
  8
0
 10
40.1762
 20
24.4851
 11
40.1536
 21
24.5133
  0
LINE
  8
0
 10
40.1536
 20
24.5133
 11
40.0868
 21
24.5969
  0
LINE
  8
0
 10
40.0868
 20
24.5969
 11
40.0618
 21
24.6193
  0
LINE
  8
0
 10
40.0618
 20
24.6193
 11
39.9864
 21
24.6869
  0
LINE
  8
0
 10
39.9864
 20
24.6869
 11
39.9597
 21
24.7031
  0
LINE
  8
0
 10
39.9597
 20
24.7031
 11
39.8777
 21
24.7528
  0
LINE
  8
0
 10
39.8777
 20
24.7528
 11
39.8498
 21
24.7626
  0
LINE
  8
0
 10
39.8498
 20
24.7626
 11
39.7632
 21
24.793
  0
LINE
  8
0
 10
39.7632
 20
24.793
 11
39.6459
 21
24.8065
  0
LINE
  8
0
 10
39.6459
 20
24.8065
 11
36.5
 21
24.8065
  0
LINE
  8
0
 10
36.5
 20
24.8065
 11
36.5
 21
21.1723
  0
LINE
  8
0
 10
36.5
 20
32.0578
 11
39.6459
 21
32.0578
  0
LINE
  8
0
 10
39.6459
 20
32.0578
 11
39.6577
 21
32.0588
  0
LINE
  8
0
 10
39.6577
 20
32.0588
 11
39.7632
 21
32.0687
  0
LINE
  8
0
 10
39.7632
 20
32.0687
 11
39.7769
 21
32.0726
  0
LINE
  8
0
 10
39.7769
 20
32.0726
 11
39.8777
 21
32.1012
  0
LINE
  8
0
 10
39.8777
 20
32.1012
 11
39.8963
 21
32.1103
  0
LINE
  8
0
 10
39.8963
 20
32.1103
 11
39.9864
 21
32.1545
  0
LINE
  8
0
 10
39.9864
 20
32.1545
 11
40.012
 21
32.1731
  0
LINE
  8
0
 10
40.012
 20
32.1731
 11
40.0868
 21
32.2273
  0
LINE
  8
0
 10
40.0868
 20
32.2273
 11
40.1195
 21
32.2605
  0
LINE
  8
0
 10
40.1195
 20
32.2605
 11
40.1762
 21
32.3178
  0
LINE
  8
0
 10
40.1762
 20
32.3178
 11
40.2144
 21
32.3707
  0
LINE
  8
0
 10
40.2144
 20
32.3707
 11
40.2527
 21
32.4238
  0
LINE
  8
0
 10
40.2527
 20
32.4238
 11
40.2925
 21
32.5006
  0
LINE
  8
0
 10
40.2925
 20
32.5006
 11
40.3142
 21
32.5426
  0
LINE
  8
0
 10
40.3142
 20
32.5426
 11
40.3502
 21
32.6457
  0
LINE
  8
0
 10
40.3502
 20
32.6457
 11
40.3592
 21
32.6713
  0
LINE
  8
0
 10
40.3592
 20
32.6713
 11
40.3854
 21
32.8006
  0
LINE
  8
0
 10
40.3854
 20
32.8006
 11
40.3867
 21
32.8068
  0
LINE
  8
0
 10
40.3867
 20
32.8068
 11
40.3895
 21
32.8491
  0
LINE
  8
0
 10
40.3895
 20
32.8491
 11
40.3959
 21
32.9376
  0
LINE
  8
0
 10
40.3959
 20
32.9376
 11
40.3959
 21
40
  0
LINE
  8
0
 10
40.3959
 20
40
 11
41.8959
 21
41.5
  0
LINE
  8
0
 10
41.8959
 20
41.5
 11
47
 21
41.5
  0
LINE
  8
0
 10
47
 20
41.5
 11
47.5
 21
42
  0
LINE
  8
0
 10
47.5
 20
42
 11
47.5
 21
45.5
  0
LINE
  8
0
 10
47.5
 20
45.5
 11
36.5
 21
45.5
  0
LINE
  8
0
 10
36.5
 20
45.5
 11
36.5
 21
32.0578
  0
ENDSEC
  0
SECTION
  2
OBJECTS
  0
DICTIONARY
  0
ENDSEC
  0
EOF
