  0
SECTION
  2
BLOCKS
  0
ENDSEC
  0
SECTION
  2
ENTITIES
  0
LINE
  8
0
 10
0
 20
0
 11
11
 21
0
  0
LINE
  8
0
 10
11
 20
0
 11
11
 21
13.4292
  0
LINE
  8
0
 10
11
 20
13.4292
 11
7.85409
 21
13.4292
  0
LINE
  8
0
 10
7.85409
 20
13.4292
 11
7.76098
 21
13.4185
  0
LINE
  8
0
 10
7.76098
 20
13.4185
 11
7.73676
 21
13.4157
  0
LINE
  8
0
 10
7.73676
 20
13.4157
 11
7.64566
 21
13.3837
  0
LINE
  8
0
 10
7.64566
 20
13.3837
 11
7.62232
 21
13.3755
  0
LINE
  8
0
 10
7.62232
 20
13.3755
 11
7.53528
 21
13.3228
  0
LINE
  8
0
 10
7.53528
 20
13.3228
 11
7.51359
 21
13.3096
  0
LINE
  8
0
 10
7.51359
 20
13.3096
 11
7.41325
 21
13.2197
  0
LINE
  8
0
 10
7.41325
 20
13.2197
 11
7.34034
 21
13.1286
  0
LINE
  8
0
 10
7.34034
 20
13.1286
 11
7.32376
 21
13.1078
  0
LINE
  8
0
 10
7.32376
 20
13.1078
 11
7.26077
 21
12.9999
  0
LINE
  8
0
 10
7.26077
 20
12.9999
 11
7.24732
 21
12.9769
  0
LINE
  8
0
 10
7.24732
 20
12.9769
 11
7.19599
 21
12.8543
  0
LINE
  8
0
 10
7.19599
 20
12.8543
 11
7.18583
 21
12.8301
  0
LINE
  8
0
 10
7.18583
 20
12.8301
 11
7.14772
 21
12.6954
  0
LINE
  8
0
 10
7.14772
 20
12.6954
 11
7.14079
 21
12.671
  0
LINE
  8
0
 10
7.14079
 20
12.671
 11
7.11721
 21
12.5272
  0
LINE
  8
0
 10
7.11721
 20
12.5272
 11
7.11332
 21
12.5035
  0
LINE
  8
0
 10
7.11332
 20
12.5035
 11
7.10528
 21
12.354
  0
LINE
  8
0
 10
7.10528
 20
12.354
 11
7.10409
 21
12.3319
  0
LINE
  8
0
 10
7.10409
 20
12.3319
 11
7.10409
 21
5.5
  0
LINE
  8
0
 10
7.10409
 20
5.5
 11
5.60409
 21
4
  0
LINE
  8
0
 10
5.60409
 20
4
 11
0.499999
 21
4
  0
LINE
  8
0
 10
0.499999
 20
4
 11
0
 21
3.5
  0
LINE
  8
0
 10
0
 20
3.5
 11
0
 21
0
  0
LINE
  8
0
 10
0
 20
42
 11
0.499999
 21
41.5
  0
LINE
  8
0
 10
0.499999
 20
41.5
 11
5.60409
 21
41.5
  0
LINE
  8
0
 10
5.60409
 20
41.5
 11
7.10409
 21
40
  0
LINE
  8
0
 10
7.10409
 20
40
 11
7.10409
 21
32.6892
  0
LINE
  8
0
 10
7.10409
 20
32.6892
 11
7.10573
 21
32.6645
  0
LINE
  8
0
 10
7.10573
 20
32.6645
 11
7.11332
 21
32.5503
  0
LINE
  8
0
 10
7.11332
 20
32.5503
 11
7.11438
 21
32.5451
  0
LINE
  8
0
 10
7.11438
 20
32.5451
 11
7.12074
 21
32.5137
  0
LINE
  8
0
 10
7.12074
 20
32.5137
 11
7.13772
 21
32.4186
  0
LINE
  8
0
 10
7.13772
 20
32.4186
 11
7.14079
 21
32.4014
  0
LINE
  8
0
 10
7.14079
 20
32.4014
 11
7.17376
 21
32.2944
  0
LINE
  8
0
 10
7.17376
 20
32.2944
 11
7.18583
 21
32.2552
  0
LINE
  8
0
 10
7.18583
 20
32.2552
 11
7.22112
 21
32.1778
  0
LINE
  8
0
 10
7.22112
 20
32.1778
 11
7.24732
 21
32.1203
  0
LINE
  8
0
 10
7.24732
 20
32.1203
 11
7.27921
 21
32.0702
  0
LINE
  8
0
 10
7.27921
 20
32.0702
 11
7.32376
 21
32
  0
LINE
  8
0
 10
7.32376
 20
32
 11
7.34755
 21
31.9727
  0
LINE
  8
0
 10
7.34755
 20
31.9727
 11
7.41325
 21
31.8973
  0
LINE
  8
0
 10
7.41325
 20
31.8973
 11
7.42578
 21
31.887
  0
LINE
  8
0
 10
7.42578
 20
31.887
 11
7.51359
 21
31.8146
  0
LINE
  8
0
 10
7.51359
 20
31.8146
 11
7.51365
 21
31.8146
  0
LINE
  8
0
 10
7.51365
 20
31.8146
 11
7.51422
 21
31.8143
  0
LINE
  8
0
 10
7.51422
 20
31.8143
 11
7.62232
 21
31.7488
  0
LINE
  8
0
 10
7.62232
 20
31.7488
 11
7.6226
 21
31.7487
  0
LINE
  8
0
 10
7.6226
 20
31.7487
 11
7.73676
 21
31.7086
  0
LINE
  8
0
 10
7.73676
 20
31.7086
 11
7.85409
 21
31.6951
  0
LINE
  8
0
 10
7.85409
 20
31.6951
 11
11
 21
31.6951
  0
LINE
  8
0
 10
11
 20
31.6951
 11
11
 21
45.5
  0
LINE
  8
0
 10
11
 20
45.5
 11
0
 21
45.5
  0
LINE
  8
0
 10
0
 20
45.5
 11
0
 21
42
  0
LINE
  8
0
 10
7.10409
 20
21.8425
 11
7.10576
 21
21.8114
  0
LINE
  8
0
 10
7.10576
 20
21.8114
 11
7.11332
 21
21.6708
  0
LINE
  8
0
 10
7.11332
 20
21.6708
 11
7.11864
 21
21.6384
  0
LINE
  8
0
 10
7.11864
 20
21.6384
 11
7.14079
 21
21.5034
  0
LINE
  8
0
 10
7.14079
 20
21.5034
 11
7.15006
 21
21.4706
  0
LINE
  8
0
 10
7.15006
 20
21.4706
 11
7.18583
 21
21.3443
  0
LINE
  8
0
 10
7.18583
 20
21.3443
 11
7.19919
 21
21.3124
  0
LINE
  8
0
 10
7.19919
 20
21.3124
 11
7.24732
 21
21.1974
  0
LINE
  8
0
 10
7.24732
 20
21.1974
 11
7.26474
 21
21.1676
  0
LINE
  8
0
 10
7.26474
 20
21.1676
 11
7.32376
 21
21.0665
  0
LINE
  8
0
 10
7.32376
 20
21.0665
 11
7.34498
 21
21.04
  0
LINE
  8
0
 10
7.34498
 20
21.04
 11
7.41325
 21
20.9547
  0
LINE
  8
0
 10
7.41325
 20
20.9547
 11
7.43783
 21
20.9326
  0
LINE
  8
0
 10
7.43783
 20
20.9326
 11
7.51359
 21
20.8647
  0
LINE
  8
0
 10
7.51359
 20
20.8647
 11
7.5409
 21
20.8481
  0
LINE
  8
0
 10
7.5409
 20
20.8481
 11
7.62232
 21
20.7988
  0
LINE
  8
0
 10
7.62232
 20
20.7988
 11
7.65157
 21
20.7885
  0
LINE
  8
0
 10
7.65157
 20
20.7885
 11
7.73676
 21
20.7586
  0
LINE
  8
0
 10
7.73676
 20
20.7586
 11
7.85409
 21
20.7451
  0
LINE
  8
0
 10
7.85409
 20
20.7451
 11
11
 21
20.7451
  0
LINE
  8
0
 10
11
 20
20.7451
 11
11
 21
24.3792
  0
LINE
  8
0
 10
11
 20
24.3792
 11
7.85409
 21
24.3792
  0
LINE
  8
0
 10
7.85409
 20
24.3792
 11
7.73676
 21
24.3657
  0
LINE
  8
0
 10
7.73676
 20
24.3657
 11
7.7056
 21
24.3548
  0
LINE
  8
0
 10
7.7056
 20
24.3548
 11
7.62232
 21
24.3255
  0
LINE
  8
0
 10
7.62232
 20
24.3255
 11
7.59253
 21
24.3075
  0
LINE
  8
0
 10
7.59253
 20
24.3075
 11
7.51359
 21
24.2596
  0
LINE
  8
0
 10
7.51359
 20
24.2596
 11
7.48583
 21
24.2347
  0
LINE
  8
0
 10
7.48583
 20
24.2347
 11
7.41325
 21
24.1697
  0
LINE
  8
0
 10
7.41325
 20
24.1697
 11
7.38818
 21
24.1383
  0
LINE
  8
0
 10
7.38818
 20
24.1383
 11
7.32376
 21
24.0578
  0
LINE
  8
0
 10
7.32376
 20
24.0578
 11
7.30201
 21
24.0206
  0
LINE
  8
0
 10
7.30201
 20
24.0206
 11
7.24732
 21
23.9269
  0
LINE
  8
0
 10
7.24732
 20
23.9269
 11
7.22953
 21
23.8844
  0
LINE
  8
0
 10
7.22953
 20
23.8844
 11
7.18583
 21
23.7801
  0
LINE
  8
0
 10
7.18583
 20
23.7801
 11
7.17255
 21
23.7331
  0
LINE
  8
0
 10
7.17255
 20
23.7331
 11
7.14079
 21
23.621
  0
LINE
  8
0
 10
7.14079
 20
23.621
 11
7.13253
 21
23.5706
  0
LINE
  8
0
 10
7.13253
 20
23.5706
 11
7.11332
 21
23.4535
  0
LINE
  8
0
 10
7.11332
 20
23.4535
 11
7.11049
 21
23.4008
  0
LINE
  8
0
 10
7.11049
 20
23.4008
 11
7.10409
 21
23.2819
  0
LINE
  8
0
 10
7.10409
 20
23.2819
 11
7.10409
 21
21.8425
  0
LINE
  8
0
 10
36.5
 20
0
 11
47.5
 21
0
  0
LINE
  8
0
 10
47.5
 20
0
 11
47.5
 21
3.5
  0
LINE
  8
0
 10
47.5
 20
3.5
 11
47
 21
4
  0
LINE
  8
0
 10
47
 20
4
 11
41.8959
 21
4
  0
LINE
  8
0
 10
41.8959
 20
4
 11
40.3959
 21
5.5
  0
LINE
  8
0
 10
40.3959
 20
5.5
 11
40.3959
 21
12.3319
  0
LINE
  8
0
 10
40.3959
 20
12.3319
 11
40.388
 21
12.4799
  0
LINE
  8
0
 10
40.388
 20
12.4799
 11
40.3867
 21
12.5035
  0
LINE
  8
0
 10
40.3867
 20
12.5035
 11
40.3633
 21
12.6459
  0
LINE
  8
0
 10
40.3633
 20
12.6459
 11
40.3592
 21
12.671
  0
LINE
  8
0
 10
40.3592
 20
12.671
 11
40.3214
 21
12.8044
  0
LINE
  8
0
 10
40.3214
 20
12.8044
 11
40.3142
 21
12.8301
  0
LINE
  8
0
 10
40.3142
 20
12.8301
 11
40.2633
 21
12.9516
  0
LINE
  8
0
 10
40.2633
 20
12.9516
 11
40.2527
 21
12.9769
  0
LINE
  8
0
 10
40.2527
 20
12.9769
 11
40.1902
 21
13.084
  0
LINE
  8
0
 10
40.1902
 20
13.084
 11
40.1762
 21
13.1078
  0
LINE
  8
0
 10
40.1762
 20
13.1078
 11
40.1038
 21
13.1984
  0
LINE
  8
0
 10
40.1038
 20
13.1984
 11
40.0868
 21
13.2197
  0
LINE
  8
0
 10
40.0868
 20
13.2197
 11
39.9864
 21
13.3096
  0
LINE
  8
0
 10
39.9864
 20
13.3096
 11
39.8997
 21
13.3622
  0
LINE
  8
0
 10
39.8997
 20
13.3622
 11
39.8777
 21
13.3755
  0
LINE
  8
0
 10
39.8777
 20
13.3755
 11
39.7868
 21
13.4075
  0
LINE
  8
0
 10
39.7868
 20
13.4075
 11
39.7632
 21
13.4157
  0
LINE
  8
0
 10
39.7632
 20
13.4157
 11
39.6702
 21
13.4264
  0
LINE
  8
0
 10
39.6702
 20
13.4264
 11
39.6459
 21
13.4292
  0
LINE
  8
0
 10
39.6459
 20
13.4292
 11
36.5
 21
13.4292
  0
LINE
  8
0
 10
36.5
 20
13.4292
 11
36.5
 21
0
  0
LINE
  8
0
 10
36.5
 20
20.7451
 11
39.6459
 21
20.7451
  0
LINE
  8
0
 10
39.6459
 20
20.7451
 11
39.7632
 21
20.7586
  0
LINE
  8
0
 10
39.7632
 20
20.7586
 11
39.7926
 21
20.7689
  0
LINE
  8
0
 10
39.7926
 20
20.7689
 11
39.8777
 21
20.7988
  0
LINE
  8
0
 10
39.8777
 20
20.7988
 11
39.9052
 21
20.8155
  0
LINE
  8
0
 10
39.9052
 20
20.8155
 11
39.9864
 21
20.8647
  0
LINE
  8
0
 10
39.9864
 20
20.8647
 11
40.0113
 21
20.887
  0
LINE
  8
0
 10
40.0113
 20
20.887
 11
40.0868
 21
20.9547
  0
LINE
  8
0
 10
40.0868
 20
20.9547
 11
40.1084
 21
20.9817
  0
LINE
  8
0
 10
40.1084
 20
20.9817
 11
40.1762
 21
21.0665
  0
LINE
  8
0
 10
40.1762
 20
21.0665
 11
40.1941
 21
21.097
  0
LINE
  8
0
 10
40.1941
 20
21.097
 11
40.2527
 21
21.1974
  0
LINE
  8
0
 10
40.2527
 20
21.1974
 11
40.2664
 21
21.2302
  0
LINE
  8
0
 10
40.2664
 20
21.2302
 11
40.3142
 21
21.3443
  0
LINE
  8
0
 10
40.3142
 20
21.3443
 11
40.3237
 21
21.3781
  0
LINE
  8
0
 10
40.3237
 20
21.3781
 11
40.3592
 21
21.5034
  0
LINE
  8
0
 10
40.3592
 20
21.5034
 11
40.3647
 21
21.537
  0
LINE
  8
0
 10
40.3647
 20
21.537
 11
40.3867
 21
21.6708
  0
LINE
  8
0
 10
40.3867
 20
21.6708
 11
40.3884
 21
21.7032
  0
LINE
  8
0
 10
40.3884
 20
21.7032
 11
40.3959
 21
21.8425
  0
LINE
  8
0
 10
40.3959
 20
21.8425
 11
40.3959
 21
23.2819
  0
LINE
  8
0
 10
40.3959
 20
23.2819
 11
40.3931
 21
23.335
  0
LINE
  8
0
 10
40.3931
 20
23.335
 11
40.3867
 21
23.4535
  0
LINE
  8
0
 10
40.3867
 20
23.4535
 11
40.3783
 21
23.5043
  0
LINE
  8
0
 10
40.3783
 20
23.5043
 11
40.3592
 21
23.621
  0
LINE
  8
0
 10
40.3592
 20
23.621
 11
40.3458
 21
23.6683
  0
LINE
  8
0
 10
40.3458
 20
23.6683
 11
40.3142
 21
23.7801
  0
LINE
  8
0
 10
40.3142
 20
23.7801
 11
40.2962
 21
23.8229
  0
LINE
  8
0
 10
40.2962
 20
23.8229
 11
40.2527
 21
23.9269
  0
LINE
  8
0
 10
40.2527
 20
23.9269
 11
40.2308
 21
23.9644
  0
LINE
  8
0
 10
40.2308
 20
23.9644
 11
40.1762
 21
24.0578
  0
LINE
  8
0
 10
40.1762
 20
24.0578
 11
40.151
 21
24.0893
  0
LINE
  8
0
 10
40.151
 20
24.0893
 11
40.0868
 21
24.1697
  0
LINE
  8
0
 10
40.0868
 20
24.1697
 11
40.0588
 21
24.1947
  0
LINE
  8
0
 10
40.0588
 20
24.1947
 11
39.9864
 21
24.2596
  0
LINE
  8
0
 10
39.9864
 20
24.2596
 11
39.9565
 21
24.2778
  0
LINE
  8
0
 10
39.9565
 20
24.2778
 11
39.8777
 21
24.3255
  0
LINE
  8
0
 10
39.8777
 20
24.3255
 11
39.8464
 21
24.3365
  0
LINE
  8
0
 10
39.8464
 20
24.3365
 11
39.7632
 21
24.3657
  0
LINE
  8
0
 10
39.7632
 20
24.3657
 11
39.6459
 21
24.3792
  0
LINE
  8
0
 10
39.6459
 20
24.3792
 11
36.5
 21
24.3792
  0
LINE
  8
0
 10
36.5
 20
24.3792
 11
36.5
 21
20.7451
  0
LINE
  8
0
 10
36.5
 20
31.6951
 11
39.6459
 21
31.6951
  0
LINE
  8
0
 10
39.6459
 20
31.6951
 11
39.7632
 21
31.7086
  0
LINE
  8
0
 10
39.7632
 20
31.7086
 11
39.7637
 21
31.7087
  0
LINE
  8
0
 10
39.7637
 20
31.7087
 11
39.8777
 21
31.7488
  0
LINE
  8
0
 10
39.8777
 20
31.7488
 11
39.8779
 21
31.7489
  0
LINE
  8
0
 10
39.8779
 20
31.7489
 11
39.9858
 21
31.8143
  0
LINE
  8
0
 10
39.9858
 20
31.8143
 11
39.9864
 21
31.8146
  0
LINE
  8
0
 10
39.9864
 20
31.8146
 11
39.9865
 21
31.8147
  0
LINE
  8
0
 10
39.9865
 20
31.8147
 11
40.0868
 21
31.8973
  0
LINE
  8
0
 10
40.0868
 20
31.8973
 11
40.1013
 21
31.914
  0
LINE
  8
0
 10
40.1013
 20
31.914
 11
40.1762
 21
32
  0
LINE
  8
0
 10
40.1762
 20
32
 11
40.2039
 21
32.0436
  0
LINE
  8
0
 10
40.2039
 20
32.0436
 11
40.2527
 21
32.1203
  0
LINE
  8
0
 10
40.2527
 20
32.1203
 11
40.2888
 21
32.1996
  0
LINE
  8
0
 10
40.2888
 20
32.1996
 11
40.3142
 21
32.2552
  0
LINE
  8
0
 10
40.3142
 20
32.2552
 11
40.3513
 21
32.3758
  0
LINE
  8
0
 10
40.3513
 20
32.3758
 11
40.3592
 21
32.4014
  0
LINE
  8
0
 10
40.3592
 20
32.4014
 11
40.3793
 21
32.5137
  0
LINE
  8
0
 10
40.3793
 20
32.5137
 11
40.3867
 21
32.5503
  0
LINE
  8
0
 10
40.3867
 20
32.5503
 11
40.3871
 21
32.5571
  0
LINE
  8
0
 10
40.3871
 20
32.5571
 11
40.3959
 21
32.6892
  0
LINE
  8
0
 10
40.3959
 20
32.6892
 11
40.3959
 21
40
  0
LINE
  8
0
 10
40.3959
 20
40
 11
41.8959
 21
41.5
  0
LINE
  8
0
 10
41.8959
 20
41.5
 11
47
 21
41.5
  0
LINE
  8
0
 10
47
 20
41.5
 11
47.5
 21
42
  0
LINE
  8
0
 10
47.5
 20
42
 11
47.5
 21
45.5
  0
LINE
  8
0
 10
47.5
 20
45.5
 11
36.5
 21
45.5
  0
LINE
  8
0
 10
36.5
 20
45.5
 11
36.5
 21
31.6951
  0
ENDSEC
  0
SECTION
  2
OBJECTS
  0
DICTIONARY
  0
ENDSEC
  0
EOF
