  0
SECTION
  2
BLOCKS
  0
ENDSEC
  0
SECTION
  2
ENTITIES
  0
LINE
  8
0
 10
0
 20
0
 11
11
 21
0
  0
LINE
  8
0
 10
11
 20
0
 11
11
 21
13.2156
  0
LINE
  8
0
 10
11
 20
13.2156
 11
7.85409
 21
13.2156
  0
LINE
  8
0
 10
7.85409
 20
13.2156
 11
7.75755
 21
13.2045
  0
LINE
  8
0
 10
7.75755
 20
13.2045
 11
7.73676
 21
13.2021
  0
LINE
  8
0
 10
7.73676
 20
13.2021
 11
7.6423
 21
13.1689
  0
LINE
  8
0
 10
7.6423
 20
13.1689
 11
7.62232
 21
13.1619
  0
LINE
  8
0
 10
7.62232
 20
13.1619
 11
7.53208
 21
13.1072
  0
LINE
  8
0
 10
7.53208
 20
13.1072
 11
7.51359
 21
13.096
  0
LINE
  8
0
 10
7.51359
 20
13.096
 11
7.41325
 21
13.006
  0
LINE
  8
0
 10
7.41325
 20
13.006
 11
7.3377
 21
12.9116
  0
LINE
  8
0
 10
7.3377
 20
12.9116
 11
7.32376
 21
12.8942
  0
LINE
  8
0
 10
7.32376
 20
12.8942
 11
7.25851
 21
12.7824
  0
LINE
  8
0
 10
7.25851
 20
12.7824
 11
7.24732
 21
12.7633
  0
LINE
  8
0
 10
7.24732
 20
12.7633
 11
7.19418
 21
12.6364
  0
LINE
  8
0
 10
7.19418
 20
12.6364
 11
7.18583
 21
12.6164
  0
LINE
  8
0
 10
7.18583
 20
12.6164
 11
7.14638
 21
12.4771
  0
LINE
  8
0
 10
7.14638
 20
12.4771
 11
7.14079
 21
12.4574
  0
LINE
  8
0
 10
7.14079
 20
12.4574
 11
7.11639
 21
12.3086
  0
LINE
  8
0
 10
7.11639
 20
12.3086
 11
7.11332
 21
12.2899
  0
LINE
  8
0
 10
7.11332
 20
12.2899
 11
7.105
 21
12.1353
  0
LINE
  8
0
 10
7.105
 20
12.1353
 11
7.10409
 21
12.1182
  0
LINE
  8
0
 10
7.10409
 20
12.1182
 11
7.10409
 21
5.5
  0
LINE
  8
0
 10
7.10409
 20
5.5
 11
5.60409
 21
4
  0
LINE
  8
0
 10
5.60409
 20
4
 11
0.499999
 21
4
  0
LINE
  8
0
 10
0.499999
 20
4
 11
0
 21
3.5
  0
LINE
  8
0
 10
0
 20
3.5
 11
0
 21
0
  0
LINE
  8
0
 10
0
 20
42
 11
0.499999
 21
41.5
  0
LINE
  8
0
 10
0.499999
 20
41.5
 11
5.60409
 21
41.5
  0
LINE
  8
0
 10
5.60409
 20
41.5
 11
7.10409
 21
40
  0
LINE
  8
0
 10
7.10409
 20
40
 11
7.10409
 21
32.5319
  0
LINE
  8
0
 10
7.10409
 20
32.5319
 11
7.10975
 21
32.4351
  0
LINE
  8
0
 10
7.10975
 20
32.4351
 11
7.11332
 21
32.3742
  0
LINE
  8
0
 10
7.11332
 20
32.3742
 11
7.12559
 21
32.3055
  0
LINE
  8
0
 10
7.12559
 20
32.3055
 11
7.14079
 21
32.2204
  0
LINE
  8
0
 10
7.14079
 20
32.2204
 11
7.15308
 21
32.1805
  0
LINE
  8
0
 10
7.15308
 20
32.1805
 11
7.18583
 21
32.0742
  0
LINE
  8
0
 10
7.18583
 20
32.0742
 11
7.19165
 21
32.0614
  0
LINE
  8
0
 10
7.19165
 20
32.0614
 11
7.21895
 21
32.0015
  0
LINE
  8
0
 10
7.21895
 20
32.0015
 11
7.24732
 21
31.9338
  0
LINE
  8
0
 10
7.24732
 20
31.9338
 11
7.24751
 21
31.9335
  0
LINE
  8
0
 10
7.24751
 20
31.9335
 11
7.32376
 21
31.8029
  0
LINE
  8
0
 10
7.32376
 20
31.8029
 11
7.41325
 21
31.691
  0
LINE
  8
0
 10
7.41325
 20
31.691
 11
7.51359
 21
31.6011
  0
LINE
  8
0
 10
7.51359
 20
31.6011
 11
7.51519
 21
31.6001
  0
LINE
  8
0
 10
7.51519
 20
31.6001
 11
7.62232
 21
31.5352
  0
LINE
  8
0
 10
7.62232
 20
31.5352
 11
7.62427
 21
31.5345
  0
LINE
  8
0
 10
7.62427
 20
31.5345
 11
7.73676
 21
31.495
  0
LINE
  8
0
 10
7.73676
 20
31.495
 11
7.85409
 21
31.4815
  0
LINE
  8
0
 10
7.85409
 20
31.4815
 11
11
 21
31.4815
  0
LINE
  8
0
 10
11
 20
31.4815
 11
11
 21
45.5
  0
LINE
  8
0
 10
11
 20
45.5
 11
0
 21
45.5
  0
LINE
  8
0
 10
0
 20
45.5
 11
0
 21
42
  0
LINE
  8
0
 10
7.10409
 20
21.6288
 11
7.10603
 21
21.5927
  0
LINE
  8
0
 10
7.10603
 20
21.5927
 11
7.11332
 21
21.4572
  0
LINE
  8
0
 10
7.11332
 20
21.4572
 11
7.11945
 21
21.4198
  0
LINE
  8
0
 10
7.11945
 20
21.4198
 11
7.14079
 21
21.2897
  0
LINE
  8
0
 10
7.14079
 20
21.2897
 11
7.15139
 21
21.2523
  0
LINE
  8
0
 10
7.15139
 20
21.2523
 11
7.18583
 21
21.1306
  0
LINE
  8
0
 10
7.18583
 20
21.1306
 11
7.20101
 21
21.0944
  0
LINE
  8
0
 10
7.20101
 20
21.0944
 11
7.24732
 21
20.9838
  0
LINE
  8
0
 10
7.24732
 20
20.9838
 11
7.267
 21
20.9501
  0
LINE
  8
0
 10
7.267
 20
20.9501
 11
7.32376
 21
20.8529
  0
LINE
  8
0
 10
7.32376
 20
20.8529
 11
7.34762
 21
20.8231
  0
LINE
  8
0
 10
7.34762
 20
20.8231
 11
7.41325
 21
20.741
  0
LINE
  8
0
 10
7.41325
 20
20.741
 11
7.44079
 21
20.7164
  0
LINE
  8
0
 10
7.44079
 20
20.7164
 11
7.51359
 21
20.6511
  0
LINE
  8
0
 10
7.51359
 20
20.6511
 11
7.5441
 21
20.6326
  0
LINE
  8
0
 10
7.5441
 20
20.6326
 11
7.62232
 21
20.5852
  0
LINE
  8
0
 10
7.62232
 20
20.5852
 11
7.65493
 21
20.5737
  0
LINE
  8
0
 10
7.65493
 20
20.5737
 11
7.73676
 21
20.545
  0
LINE
  8
0
 10
7.73676
 20
20.545
 11
7.85409
 21
20.5315
  0
LINE
  8
0
 10
7.85409
 20
20.5315
 11
11
 21
20.5315
  0
LINE
  8
0
 10
11
 20
20.5315
 11
11
 21
24.1656
  0
LINE
  8
0
 10
11
 20
24.1656
 11
7.85409
 21
24.1656
  0
LINE
  8
0
 10
7.85409
 20
24.1656
 11
7.73676
 21
24.1521
  0
LINE
  8
0
 10
7.73676
 20
24.1521
 11
7.70393
 21
24.1406
  0
LINE
  8
0
 10
7.70393
 20
24.1406
 11
7.62232
 21
24.1119
  0
LINE
  8
0
 10
7.62232
 20
24.1119
 11
7.59094
 21
24.0929
  0
LINE
  8
0
 10
7.59094
 20
24.0929
 11
7.51359
 21
24.046
  0
LINE
  8
0
 10
7.51359
 20
24.046
 11
7.48436
 21
24.0198
  0
LINE
  8
0
 10
7.48436
 20
24.0198
 11
7.41325
 21
23.956
  0
LINE
  8
0
 10
7.41325
 20
23.956
 11
7.38686
 21
23.9231
  0
LINE
  8
0
 10
7.38686
 20
23.9231
 11
7.32376
 21
23.8442
  0
LINE
  8
0
 10
7.32376
 20
23.8442
 11
7.30089
 21
23.805
  0
LINE
  8
0
 10
7.30089
 20
23.805
 11
7.24732
 21
23.7133
  0
LINE
  8
0
 10
7.24732
 20
23.7133
 11
7.22862
 21
23.6686
  0
LINE
  8
0
 10
7.22862
 20
23.6686
 11
7.18583
 21
23.5664
  0
LINE
  8
0
 10
7.18583
 20
23.5664
 11
7.17188
 21
23.5172
  0
LINE
  8
0
 10
7.17188
 20
23.5172
 11
7.14079
 21
23.4073
  0
LINE
  8
0
 10
7.14079
 20
23.4073
 11
7.13212
 21
23.3545
  0
LINE
  8
0
 10
7.13212
 20
23.3545
 11
7.11332
 21
23.2399
  0
LINE
  8
0
 10
7.11332
 20
23.2399
 11
7.11035
 21
23.1847
  0
LINE
  8
0
 10
7.11035
 20
23.1847
 11
7.10409
 21
23.0682
  0
LINE
  8
0
 10
7.10409
 20
23.0682
 11
7.10409
 21
21.6288
  0
LINE
  8
0
 10
36.5
 20
0
 11
47.5
 21
0
  0
LINE
  8
0
 10
47.5
 20
0
 11
47.5
 21
3.5
  0
LINE
  8
0
 10
47.5
 20
3.5
 11
47
 21
4
  0
LINE
  8
0
 10
47
 20
4
 11
41.8959
 21
4
  0
LINE
  8
0
 10
41.8959
 20
4
 11
40.3959
 21
5.5
  0
LINE
  8
0
 10
40.3959
 20
5.5
 11
40.3959
 21
12.1182
  0
LINE
  8
0
 10
40.3959
 20
12.1182
 11
40.3877
 21
12.2712
  0
LINE
  8
0
 10
40.3877
 20
12.2712
 11
40.3867
 21
12.2899
  0
LINE
  8
0
 10
40.3867
 20
12.2899
 11
40.3625
 21
12.4371
  0
LINE
  8
0
 10
40.3625
 20
12.4371
 11
40.3592
 21
12.4574
  0
LINE
  8
0
 10
40.3592
 20
12.4574
 11
40.3201
 21
12.5953
  0
LINE
  8
0
 10
40.3201
 20
12.5953
 11
40.3142
 21
12.6164
  0
LINE
  8
0
 10
40.3142
 20
12.6164
 11
40.2615
 21
12.7422
  0
LINE
  8
0
 10
40.2615
 20
12.7422
 11
40.2527
 21
12.7633
  0
LINE
  8
0
 10
40.2527
 20
12.7633
 11
40.1879
 21
12.8742
  0
LINE
  8
0
 10
40.1879
 20
12.8742
 11
40.1762
 21
12.8942
  0
LINE
  8
0
 10
40.1762
 20
12.8942
 11
40.1012
 21
12.988
  0
LINE
  8
0
 10
40.1012
 20
12.988
 11
40.0868
 21
13.006
  0
LINE
  8
0
 10
40.0868
 20
13.006
 11
39.9864
 21
13.096
  0
LINE
  8
0
 10
39.9864
 20
13.096
 11
39.8965
 21
13.1505
  0
LINE
  8
0
 10
39.8965
 20
13.1505
 11
39.8777
 21
13.1619
  0
LINE
  8
0
 10
39.8777
 20
13.1619
 11
39.7834
 21
13.195
  0
LINE
  8
0
 10
39.7834
 20
13.195
 11
39.7632
 21
13.2021
  0
LINE
  8
0
 10
39.7632
 20
13.2021
 11
39.6668
 21
13.2132
  0
LINE
  8
0
 10
39.6668
 20
13.2132
 11
39.6459
 21
13.2156
  0
LINE
  8
0
 10
39.6459
 20
13.2156
 11
36.5
 21
13.2156
  0
LINE
  8
0
 10
36.5
 20
13.2156
 11
36.5
 21
0
  0
LINE
  8
0
 10
36.5
 20
20.5315
 11
39.6459
 21
20.5315
  0
LINE
  8
0
 10
39.6459
 20
20.5315
 11
39.7632
 21
20.545
  0
LINE
  8
0
 10
39.7632
 20
20.545
 11
39.796
 21
20.5565
  0
LINE
  8
0
 10
39.796
 20
20.5565
 11
39.8777
 21
20.5852
  0
LINE
  8
0
 10
39.8777
 20
20.5852
 11
39.9084
 21
20.6038
  0
LINE
  8
0
 10
39.9084
 20
20.6038
 11
39.9864
 21
20.6511
  0
LINE
  8
0
 10
39.9864
 20
20.6511
 11
40.0142
 21
20.676
  0
LINE
  8
0
 10
40.0142
 20
20.676
 11
40.0868
 21
20.741
  0
LINE
  8
0
 10
40.0868
 20
20.741
 11
40.111
 21
20.7713
  0
LINE
  8
0
 10
40.111
 20
20.7713
 11
40.1762
 21
20.8529
  0
LINE
  8
0
 10
40.1762
 20
20.8529
 11
40.1963
 21
20.8872
  0
LINE
  8
0
 10
40.1963
 20
20.8872
 11
40.2527
 21
20.9838
  0
LINE
  8
0
 10
40.2527
 20
20.9838
 11
40.2682
 21
21.0209
  0
LINE
  8
0
 10
40.2682
 20
21.0209
 11
40.3142
 21
21.1306
  0
LINE
  8
0
 10
40.3142
 20
21.1306
 11
40.325
 21
21.1691
  0
LINE
  8
0
 10
40.325
 20
21.1691
 11
40.3592
 21
21.2897
  0
LINE
  8
0
 10
40.3592
 20
21.2897
 11
40.3655
 21
21.3282
  0
LINE
  8
0
 10
40.3655
 20
21.3282
 11
40.3867
 21
21.4572
  0
LINE
  8
0
 10
40.3867
 20
21.4572
 11
40.3887
 21
21.4945
  0
LINE
  8
0
 10
40.3887
 20
21.4945
 11
40.3959
 21
21.6288
  0
LINE
  8
0
 10
40.3959
 20
21.6288
 11
40.3959
 21
23.0682
  0
LINE
  8
0
 10
40.3959
 20
23.0682
 11
40.3929
 21
23.1239
  0
LINE
  8
0
 10
40.3929
 20
23.1239
 11
40.3867
 21
23.2399
  0
LINE
  8
0
 10
40.3867
 20
23.2399
 11
40.3779
 21
23.2931
  0
LINE
  8
0
 10
40.3779
 20
23.2931
 11
40.3592
 21
23.4073
  0
LINE
  8
0
 10
40.3592
 20
23.4073
 11
40.3452
 21
23.457
  0
LINE
  8
0
 10
40.3452
 20
23.457
 11
40.3142
 21
23.5664
  0
LINE
  8
0
 10
40.3142
 20
23.5664
 11
40.2953
 21
23.6114
  0
LINE
  8
0
 10
40.2953
 20
23.6114
 11
40.2527
 21
23.7133
  0
LINE
  8
0
 10
40.2527
 20
23.7133
 11
40.2297
 21
23.7527
  0
LINE
  8
0
 10
40.2297
 20
23.7527
 11
40.1762
 21
23.8442
  0
LINE
  8
0
 10
40.1762
 20
23.8442
 11
40.1497
 21
23.8774
  0
LINE
  8
0
 10
40.1497
 20
23.8774
 11
40.0868
 21
23.956
  0
LINE
  8
0
 10
40.0868
 20
23.956
 11
40.0574
 21
23.9824
  0
LINE
  8
0
 10
40.0574
 20
23.9824
 11
39.9864
 21
24.046
  0
LINE
  8
0
 10
39.9864
 20
24.046
 11
39.9549
 21
24.0651
  0
LINE
  8
0
 10
39.9549
 20
24.0651
 11
39.8777
 21
24.1119
  0
LINE
  8
0
 10
39.8777
 20
24.1119
 11
39.8448
 21
24.1235
  0
LINE
  8
0
 10
39.8448
 20
24.1235
 11
39.7632
 21
24.1521
  0
LINE
  8
0
 10
39.7632
 20
24.1521
 11
39.6459
 21
24.1656
  0
LINE
  8
0
 10
39.6459
 20
24.1656
 11
36.5
 21
24.1656
  0
LINE
  8
0
 10
36.5
 20
24.1656
 11
36.5
 21
20.5315
  0
LINE
  8
0
 10
36.5
 20
31.4815
 11
39.6459
 21
31.4815
  0
LINE
  8
0
 10
39.6459
 20
31.4815
 11
39.7632
 21
31.495
  0
LINE
  8
0
 10
39.7632
 20
31.495
 11
39.7653
 21
31.4957
  0
LINE
  8
0
 10
39.7653
 20
31.4957
 11
39.8777
 21
31.5352
  0
LINE
  8
0
 10
39.8777
 20
31.5352
 11
39.8795
 21
31.5363
  0
LINE
  8
0
 10
39.8795
 20
31.5363
 11
39.9864
 21
31.6011
  0
LINE
  8
0
 10
39.9864
 20
31.6011
 11
40.0868
 21
31.691
  0
LINE
  8
0
 10
40.0868
 20
31.691
 11
40.1762
 21
31.8029
  0
LINE
  8
0
 10
40.1762
 20
31.8029
 11
40.1768
 21
31.8038
  0
LINE
  8
0
 10
40.1768
 20
31.8038
 11
40.2527
 21
31.9338
  0
LINE
  8
0
 10
40.2527
 20
31.9338
 11
40.2528
 21
31.9342
  0
LINE
  8
0
 10
40.2528
 20
31.9342
 11
40.281
 21
32.0015
  0
LINE
  8
0
 10
40.281
 20
32.0015
 11
40.3142
 21
32.0742
  0
LINE
  8
0
 10
40.3142
 20
32.0742
 11
40.3203
 21
32.0941
  0
LINE
  8
0
 10
40.3203
 20
32.0941
 11
40.3592
 21
32.2204
  0
LINE
  8
0
 10
40.3592
 20
32.2204
 11
40.3701
 21
32.2813
  0
LINE
  8
0
 10
40.3701
 20
32.2813
 11
40.3867
 21
32.3742
  0
LINE
  8
0
 10
40.3867
 20
32.3742
 11
40.3927
 21
32.4764
  0
LINE
  8
0
 10
40.3927
 20
32.4764
 11
40.3959
 21
32.5319
  0
LINE
  8
0
 10
40.3959
 20
32.5319
 11
40.3959
 21
40
  0
LINE
  8
0
 10
40.3959
 20
40
 11
41.8959
 21
41.5
  0
LINE
  8
0
 10
41.8959
 20
41.5
 11
47
 21
41.5
  0
LINE
  8
0
 10
47
 20
41.5
 11
47.5
 21
42
  0
LINE
  8
0
 10
47.5
 20
42
 11
47.5
 21
45.5
  0
LINE
  8
0
 10
47.5
 20
45.5
 11
36.5
 21
45.5
  0
LINE
  8
0
 10
36.5
 20
45.5
 11
36.5
 21
31.4815
  0
ENDSEC
  0
SECTION
  2
OBJECTS
  0
DICTIONARY
  0
ENDSEC
  0
EOF
