  0
SECTION
  2
BLOCKS
  0
ENDSEC
  0
SECTION
  2
ENTITIES
  0
LINE
  8
0
 10
0
 20
0
 11
11
 21
0
  0
LINE
  8
0
 10
11
 20
0
 11
11
 21
12.7884
  0
LINE
  8
0
 10
11
 20
12.7884
 11
7.85409
 21
12.7884
  0
LINE
  8
0
 10
7.85409
 20
12.7884
 11
7.75067
 21
12.7765
  0
LINE
  8
0
 10
7.75067
 20
12.7765
 11
7.73676
 21
12.7749
  0
LINE
  8
0
 10
7.73676
 20
12.7749
 11
7.63558
 21
12.7393
  0
LINE
  8
0
 10
7.63558
 20
12.7393
 11
7.62232
 21
12.7347
  0
LINE
  8
0
 10
7.62232
 20
12.7347
 11
7.52569
 21
12.6761
  0
LINE
  8
0
 10
7.52569
 20
12.6761
 11
7.51359
 21
12.6688
  0
LINE
  8
0
 10
7.51359
 20
12.6688
 11
7.41325
 21
12.5788
  0
LINE
  8
0
 10
7.41325
 20
12.5788
 11
7.33242
 21
12.4778
  0
LINE
  8
0
 10
7.33242
 20
12.4778
 11
7.32376
 21
12.467
  0
LINE
  8
0
 10
7.32376
 20
12.467
 11
7.25399
 21
12.3475
  0
LINE
  8
0
 10
7.25399
 20
12.3475
 11
7.24732
 21
12.336
  0
LINE
  8
0
 10
7.24732
 20
12.336
 11
7.19054
 21
12.2004
  0
LINE
  8
0
 10
7.19054
 20
12.2004
 11
7.18583
 21
12.1892
  0
LINE
  8
0
 10
7.18583
 20
12.1892
 11
7.14372
 21
12.0404
  0
LINE
  8
0
 10
7.14372
 20
12.0404
 11
7.14079
 21
12.0301
  0
LINE
  8
0
 10
7.14079
 20
12.0301
 11
7.11476
 21
11.8715
  0
LINE
  8
0
 10
7.11476
 20
11.8715
 11
7.11332
 21
11.8627
  0
LINE
  8
0
 10
7.11332
 20
11.8627
 11
7.10446
 21
11.6978
  0
LINE
  8
0
 10
7.10446
 20
11.6978
 11
7.10409
 21
11.691
  0
LINE
  8
0
 10
7.10409
 20
11.691
 11
7.10409
 21
5.5
  0
LINE
  8
0
 10
7.10409
 20
5.5
 11
5.60409
 21
4
  0
LINE
  8
0
 10
5.60409
 20
4
 11
0.499999
 21
4
  0
LINE
  8
0
 10
0.499999
 20
4
 11
0
 21
3.5
  0
LINE
  8
0
 10
0
 20
3.5
 11
0
 21
0
  0
LINE
  8
0
 10
0
 20
42
 11
0.499999
 21
41.5
  0
LINE
  8
0
 10
0.499999
 20
41.5
 11
5.60409
 21
41.5
  0
LINE
  8
0
 10
5.60409
 20
41.5
 11
7.10409
 21
40
  0
LINE
  8
0
 10
7.10409
 20
40
 11
7.10409
 21
32.1516
  0
LINE
  8
0
 10
7.10409
 20
32.1516
 11
7.10416
 21
32.1502
  0
LINE
  8
0
 10
7.10416
 20
32.1502
 11
7.11332
 21
31.9799
  0
LINE
  8
0
 10
7.11332
 20
31.9799
 11
7.11372
 21
31.9775
  0
LINE
  8
0
 10
7.11372
 20
31.9775
 11
7.14079
 21
31.8125
  0
LINE
  8
0
 10
7.14079
 20
31.8125
 11
7.14173
 21
31.8092
  0
LINE
  8
0
 10
7.14173
 20
31.8092
 11
7.18583
 21
31.6534
  0
LINE
  8
0
 10
7.18583
 20
31.6534
 11
7.18746
 21
31.6495
  0
LINE
  8
0
 10
7.18746
 20
31.6495
 11
7.24732
 21
31.5066
  0
LINE
  8
0
 10
7.24732
 20
31.5066
 11
7.24976
 21
31.5024
  0
LINE
  8
0
 10
7.24976
 20
31.5024
 11
7.32376
 21
31.3756
  0
LINE
  8
0
 10
7.32376
 20
31.3756
 11
7.41325
 21
31.2638
  0
LINE
  8
0
 10
7.41325
 20
31.2638
 11
7.51359
 21
31.1738
  0
LINE
  8
0
 10
7.51359
 20
31.1738
 11
7.51838
 21
31.1709
  0
LINE
  8
0
 10
7.51838
 20
31.1709
 11
7.62232
 21
31.1079
  0
LINE
  8
0
 10
7.62232
 20
31.1079
 11
7.62763
 21
31.1061
  0
LINE
  8
0
 10
7.62763
 20
31.1061
 11
7.73676
 21
31.0677
  0
LINE
  8
0
 10
7.73676
 20
31.0677
 11
7.85409
 21
31.0542
  0
LINE
  8
0
 10
7.85409
 20
31.0542
 11
11
 21
31.0542
  0
LINE
  8
0
 10
11
 20
31.0542
 11
11
 21
45.5
  0
LINE
  8
0
 10
11
 20
45.5
 11
0
 21
45.5
  0
LINE
  8
0
 10
0
 20
45.5
 11
0
 21
42
  0
LINE
  8
0
 10
7.10409
 20
21.2016
 11
7.10658
 21
21.1553
  0
LINE
  8
0
 10
7.10658
 20
21.1553
 11
7.11332
 21
21.0299
  0
LINE
  8
0
 10
7.11332
 20
21.0299
 11
7.12108
 21
20.9827
  0
LINE
  8
0
 10
7.12108
 20
20.9827
 11
7.14079
 21
20.8625
  0
LINE
  8
0
 10
7.14079
 20
20.8625
 11
7.15406
 21
20.8156
  0
LINE
  8
0
 10
7.15406
 20
20.8156
 11
7.18583
 21
20.7034
  0
LINE
  8
0
 10
7.18583
 20
20.7034
 11
7.20465
 21
20.6585
  0
LINE
  8
0
 10
7.20465
 20
20.6585
 11
7.24732
 21
20.5566
  0
LINE
  8
0
 10
7.24732
 20
20.5566
 11
7.27152
 21
20.5151
  0
LINE
  8
0
 10
7.27152
 20
20.5151
 11
7.32376
 21
20.4256
  0
LINE
  8
0
 10
7.32376
 20
20.4256
 11
7.3529
 21
20.3892
  0
LINE
  8
0
 10
7.3529
 20
20.3892
 11
7.41325
 21
20.3138
  0
LINE
  8
0
 10
7.41325
 20
20.3138
 11
7.4467
 21
20.2838
  0
LINE
  8
0
 10
7.4467
 20
20.2838
 11
7.51359
 21
20.2238
  0
LINE
  8
0
 10
7.51359
 20
20.2238
 11
7.5505
 21
20.2015
  0
LINE
  8
0
 10
7.5505
 20
20.2015
 11
7.62232
 21
20.1579
  0
LINE
  8
0
 10
7.62232
 20
20.1579
 11
7.66164
 21
20.1441
  0
LINE
  8
0
 10
7.66164
 20
20.1441
 11
7.73676
 21
20.1177
  0
LINE
  8
0
 10
7.73676
 20
20.1177
 11
7.85409
 21
20.1042
  0
LINE
  8
0
 10
7.85409
 20
20.1042
 11
11
 21
20.1042
  0
LINE
  8
0
 10
11
 20
20.1042
 11
11
 21
23.7384
  0
LINE
  8
0
 10
11
 20
23.7384
 11
7.85409
 21
23.7384
  0
LINE
  8
0
 10
7.85409
 20
23.7384
 11
7.73676
 21
23.7249
  0
LINE
  8
0
 10
7.73676
 20
23.7249
 11
7.70057
 21
23.7121
  0
LINE
  8
0
 10
7.70057
 20
23.7121
 11
7.62232
 21
23.6847
  0
LINE
  8
0
 10
7.62232
 20
23.6847
 11
7.58775
 21
23.6637
  0
LINE
  8
0
 10
7.58775
 20
23.6637
 11
7.51359
 21
23.6188
  0
LINE
  8
0
 10
7.51359
 20
23.6188
 11
7.48141
 21
23.5899
  0
LINE
  8
0
 10
7.48141
 20
23.5899
 11
7.41325
 21
23.5288
  0
LINE
  8
0
 10
7.41325
 20
23.5288
 11
7.38423
 21
23.4925
  0
LINE
  8
0
 10
7.38423
 20
23.4925
 11
7.32376
 21
23.4169
  0
LINE
  8
0
 10
7.32376
 20
23.4169
 11
7.29864
 21
23.3739
  0
LINE
  8
0
 10
7.29864
 20
23.3739
 11
7.24732
 21
23.286
  0
LINE
  8
0
 10
7.24732
 20
23.286
 11
7.22681
 21
23.237
  0
LINE
  8
0
 10
7.22681
 20
23.237
 11
7.18583
 21
23.1392
  0
LINE
  8
0
 10
7.18583
 20
23.1392
 11
7.17056
 21
23.0852
  0
LINE
  8
0
 10
7.17056
 20
23.0852
 11
7.14079
 21
22.9801
  0
LINE
  8
0
 10
7.14079
 20
22.9801
 11
7.13131
 21
22.9223
  0
LINE
  8
0
 10
7.13131
 20
22.9223
 11
7.11332
 21
22.8127
  0
LINE
  8
0
 10
7.11332
 20
22.8127
 11
7.11008
 21
22.7524
  0
LINE
  8
0
 10
7.11008
 20
22.7524
 11
7.10409
 21
22.641
  0
LINE
  8
0
 10
7.10409
 20
22.641
 11
7.10409
 21
21.2016
  0
LINE
  8
0
 10
36.5
 20
0
 11
47.5
 21
0
  0
LINE
  8
0
 10
47.5
 20
0
 11
47.5
 21
3.5
  0
LINE
  8
0
 10
47.5
 20
3.5
 11
47
 21
4
  0
LINE
  8
0
 10
47
 20
4
 11
41.8959
 21
4
  0
LINE
  8
0
 10
41.8959
 20
4
 11
40.3959
 21
5.5
  0
LINE
  8
0
 10
40.3959
 20
5.5
 11
40.3959
 21
11.691
  0
LINE
  8
0
 10
40.3959
 20
11.691
 11
40.3871
 21
11.8539
  0
LINE
  8
0
 10
40.3871
 20
11.8539
 11
40.3867
 21
11.8627
  0
LINE
  8
0
 10
40.3867
 20
11.8627
 11
40.3609
 21
12.0195
  0
LINE
  8
0
 10
40.3609
 20
12.0195
 11
40.3592
 21
12.0301
  0
LINE
  8
0
 10
40.3592
 20
12.0301
 11
40.3175
 21
12.1773
  0
LINE
  8
0
 10
40.3175
 20
12.1773
 11
40.3142
 21
12.1892
  0
LINE
  8
0
 10
40.3142
 20
12.1892
 11
40.2579
 21
12.3235
  0
LINE
  8
0
 10
40.2579
 20
12.3235
 11
40.2527
 21
12.336
  0
LINE
  8
0
 10
40.2527
 20
12.336
 11
40.1835
 21
12.4545
  0
LINE
  8
0
 10
40.1835
 20
12.4545
 11
40.1762
 21
12.467
  0
LINE
  8
0
 10
40.1762
 20
12.467
 11
40.096
 21
12.5672
  0
LINE
  8
0
 10
40.096
 20
12.5672
 11
40.0868
 21
12.5788
  0
LINE
  8
0
 10
40.0868
 20
12.5788
 11
39.9864
 21
12.6688
  0
LINE
  8
0
 10
39.9864
 20
12.6688
 11
39.8902
 21
12.7271
  0
LINE
  8
0
 10
39.8902
 20
12.7271
 11
39.8777
 21
12.7347
  0
LINE
  8
0
 10
39.8777
 20
12.7347
 11
39.7768
 21
12.7701
  0
LINE
  8
0
 10
39.7768
 20
12.7701
 11
39.7632
 21
12.7749
  0
LINE
  8
0
 10
39.7632
 20
12.7749
 11
39.6599
 21
12.7868
  0
LINE
  8
0
 10
39.6599
 20
12.7868
 11
39.6459
 21
12.7884
  0
LINE
  8
0
 10
39.6459
 20
12.7884
 11
36.5
 21
12.7884
  0
LINE
  8
0
 10
36.5
 20
12.7884
 11
36.5
 21
0
  0
LINE
  8
0
 10
36.5
 20
20.1042
 11
39.6459
 21
20.1042
  0
LINE
  8
0
 10
39.6459
 20
20.1042
 11
39.7632
 21
20.1177
  0
LINE
  8
0
 10
39.7632
 20
20.1177
 11
39.8027
 21
20.1316
  0
LINE
  8
0
 10
39.8027
 20
20.1316
 11
39.8777
 21
20.1579
  0
LINE
  8
0
 10
39.8777
 20
20.1579
 11
39.9147
 21
20.1804
  0
LINE
  8
0
 10
39.9147
 20
20.1804
 11
39.9864
 21
20.2238
  0
LINE
  8
0
 10
39.9864
 20
20.2238
 11
40.0201
 21
20.254
  0
LINE
  8
0
 10
40.0201
 20
20.254
 11
40.0868
 21
20.3138
  0
LINE
  8
0
 10
40.0868
 20
20.3138
 11
40.1161
 21
20.3505
  0
LINE
  8
0
 10
40.1161
 20
20.3505
 11
40.1762
 21
20.4256
  0
LINE
  8
0
 10
40.1762
 20
20.4256
 11
40.2007
 21
20.4675
  0
LINE
  8
0
 10
40.2007
 20
20.4675
 11
40.2527
 21
20.5566
  0
LINE
  8
0
 10
40.2527
 20
20.5566
 11
40.2717
 21
20.6021
  0
LINE
  8
0
 10
40.2717
 20
20.6021
 11
40.3142
 21
20.7034
  0
LINE
  8
0
 10
40.3142
 20
20.7034
 11
40.3276
 21
20.751
  0
LINE
  8
0
 10
40.3276
 20
20.751
 11
40.3592
 21
20.8625
  0
LINE
  8
0
 10
40.3592
 20
20.8625
 11
40.3671
 21
20.9107
  0
LINE
  8
0
 10
40.3671
 20
20.9107
 11
40.3867
 21
21.0299
  0
LINE
  8
0
 10
40.3867
 20
21.0299
 11
40.3892
 21
21.0772
  0
LINE
  8
0
 10
40.3892
 20
21.0772
 11
40.3959
 21
21.2016
  0
LINE
  8
0
 10
40.3959
 20
21.2016
 11
40.3959
 21
22.641
  0
LINE
  8
0
 10
40.3959
 20
22.641
 11
40.3927
 21
22.7016
  0
LINE
  8
0
 10
40.3927
 20
22.7016
 11
40.3867
 21
22.8127
  0
LINE
  8
0
 10
40.3867
 20
22.8127
 11
40.3771
 21
22.8707
  0
LINE
  8
0
 10
40.3771
 20
22.8707
 11
40.3592
 21
22.9801
  0
LINE
  8
0
 10
40.3592
 20
22.9801
 11
40.3438
 21
23.0343
  0
LINE
  8
0
 10
40.3438
 20
23.0343
 11
40.3142
 21
23.1392
  0
LINE
  8
0
 10
40.3142
 20
23.1392
 11
40.2935
 21
23.1884
  0
LINE
  8
0
 10
40.2935
 20
23.1884
 11
40.2527
 21
23.286
  0
LINE
  8
0
 10
40.2527
 20
23.286
 11
40.2274
 21
23.3292
  0
LINE
  8
0
 10
40.2274
 20
23.3292
 11
40.1762
 21
23.4169
  0
LINE
  8
0
 10
40.1762
 20
23.4169
 11
40.1471
 21
23.4534
  0
LINE
  8
0
 10
40.1471
 20
23.4534
 11
40.0868
 21
23.5288
  0
LINE
  8
0
 10
40.0868
 20
23.5288
 11
40.0545
 21
23.5577
  0
LINE
  8
0
 10
40.0545
 20
23.5577
 11
39.9864
 21
23.6188
  0
LINE
  8
0
 10
39.9864
 20
23.6188
 11
39.9517
 21
23.6398
  0
LINE
  8
0
 10
39.9517
 20
23.6398
 11
39.8777
 21
23.6847
  0
LINE
  8
0
 10
39.8777
 20
23.6847
 11
39.8414
 21
23.6974
  0
LINE
  8
0
 10
39.8414
 20
23.6974
 11
39.7632
 21
23.7249
  0
LINE
  8
0
 10
39.7632
 20
23.7249
 11
39.6459
 21
23.7384
  0
LINE
  8
0
 10
39.6459
 20
23.7384
 11
36.5
 21
23.7384
  0
LINE
  8
0
 10
36.5
 20
23.7384
 11
36.5
 21
20.1042
  0
LINE
  8
0
 10
36.5
 20
31.0542
 11
39.6459
 21
31.0542
  0
LINE
  8
0
 10
39.6459
 20
31.0542
 11
39.7632
 21
31.0677
  0
LINE
  8
0
 10
39.7632
 20
31.0677
 11
39.7687
 21
31.0696
  0
LINE
  8
0
 10
39.7687
 20
31.0696
 11
39.8777
 21
31.1079
  0
LINE
  8
0
 10
39.8777
 20
31.1079
 11
39.8827
 21
31.111
  0
LINE
  8
0
 10
39.8827
 20
31.111
 11
39.9864
 21
31.1738
  0
LINE
  8
0
 10
39.9864
 20
31.1738
 11
40.0868
 21
31.2638
  0
LINE
  8
0
 10
40.0868
 20
31.2638
 11
40.1762
 21
31.3756
  0
LINE
  8
0
 10
40.1762
 20
31.3756
 11
40.179
 21
31.3804
  0
LINE
  8
0
 10
40.179
 20
31.3804
 11
40.2527
 21
31.5066
  0
LINE
  8
0
 10
40.2527
 20
31.5066
 11
40.2546
 21
31.5112
  0
LINE
  8
0
 10
40.2546
 20
31.5112
 11
40.3142
 21
31.6534
  0
LINE
  8
0
 10
40.3142
 20
31.6534
 11
40.3153
 21
31.6576
  0
LINE
  8
0
 10
40.3153
 20
31.6576
 11
40.3592
 21
31.8125
  0
LINE
  8
0
 10
40.3592
 20
31.8125
 11
40.3598
 21
31.8159
  0
LINE
  8
0
 10
40.3598
 20
31.8159
 11
40.3867
 21
31.9799
  0
LINE
  8
0
 10
40.3867
 20
31.9799
 11
40.3868
 21
31.9824
  0
LINE
  8
0
 10
40.3868
 20
31.9824
 11
40.3959
 21
32.1516
  0
LINE
  8
0
 10
40.3959
 20
32.1516
 11
40.3959
 21
40
  0
LINE
  8
0
 10
40.3959
 20
40
 11
41.8959
 21
41.5
  0
LINE
  8
0
 10
41.8959
 20
41.5
 11
47
 21
41.5
  0
LINE
  8
0
 10
47
 20
41.5
 11
47.5
 21
42
  0
LINE
  8
0
 10
47.5
 20
42
 11
47.5
 21
45.5
  0
LINE
  8
0
 10
47.5
 20
45.5
 11
36.5
 21
45.5
  0
LINE
  8
0
 10
36.5
 20
45.5
 11
36.5
 21
31.0542
  0
ENDSEC
  0
SECTION
  2
OBJECTS
  0
DICTIONARY
  0
ENDSEC
  0
EOF
