  0
SECTION
  2
BLOCKS
  0
ENDSEC
  0
SECTION
  2
ENTITIES
  0
LINE
  8
0
 10
0
 20
0
 11
11
 21
0
  0
LINE
  8
0
 10
11
 20
0
 11
11
 21
12.5748
  0
LINE
  8
0
 10
11
 20
12.5748
 11
7.85409
 21
12.5748
  0
LINE
  8
0
 10
7.85409
 20
12.5748
 11
7.74724
 21
12.5625
  0
LINE
  8
0
 10
7.74724
 20
12.5625
 11
7.73676
 21
12.5612
  0
LINE
  8
0
 10
7.73676
 20
12.5612
 11
7.63223
 21
12.5245
  0
LINE
  8
0
 10
7.63223
 20
12.5245
 11
7.62232
 21
12.521
  0
LINE
  8
0
 10
7.62232
 20
12.521
 11
7.52249
 21
12.4605
  0
LINE
  8
0
 10
7.52249
 20
12.4605
 11
7.51359
 21
12.4552
  0
LINE
  8
0
 10
7.51359
 20
12.4552
 11
7.41325
 21
12.3652
  0
LINE
  8
0
 10
7.41325
 20
12.3652
 11
7.32978
 21
12.2609
  0
LINE
  8
0
 10
7.32978
 20
12.2609
 11
7.32376
 21
12.2533
  0
LINE
  8
0
 10
7.32376
 20
12.2533
 11
7.25174
 21
12.13
  0
LINE
  8
0
 10
7.25174
 20
12.13
 11
7.24732
 21
12.1224
  0
LINE
  8
0
 10
7.24732
 20
12.1224
 11
7.18872
 21
11.9825
  0
LINE
  8
0
 10
7.18872
 20
11.9825
 11
7.18583
 21
11.9756
  0
LINE
  8
0
 10
7.18583
 20
11.9756
 11
7.14238
 21
11.8221
  0
LINE
  8
0
 10
7.14238
 20
11.8221
 11
7.14079
 21
11.8165
  0
LINE
  8
0
 10
7.14079
 20
11.8165
 11
7.11395
 21
11.6529
  0
LINE
  8
0
 10
7.11395
 20
11.6529
 11
7.11332
 21
11.649
  0
LINE
  8
0
 10
7.11332
 20
11.649
 11
7.10418
 21
11.4791
  0
LINE
  8
0
 10
7.10418
 20
11.4791
 11
7.10409
 21
11.4774
  0
LINE
  8
0
 10
7.10409
 20
11.4774
 11
7.10409
 21
5.5
  0
LINE
  8
0
 10
7.10409
 20
5.5
 11
5.60409
 21
4
  0
LINE
  8
0
 10
5.60409
 20
4
 11
0.499999
 21
4
  0
LINE
  8
0
 10
0.499999
 20
4
 11
0
 21
3.5
  0
LINE
  8
0
 10
0
 20
3.5
 11
0
 21
0
  0
LINE
  8
0
 10
0
 20
42
 11
0.499999
 21
41.5
  0
LINE
  8
0
 10
0.499999
 20
41.5
 11
5.60409
 21
41.5
  0
LINE
  8
0
 10
5.60409
 20
41.5
 11
7.10409
 21
40
  0
LINE
  8
0
 10
7.10409
 20
40
 11
7.10409
 21
31.938
  0
LINE
  8
0
 10
7.10409
 20
31.938
 11
7.1043
 21
31.934
  0
LINE
  8
0
 10
7.1043
 20
31.934
 11
7.11332
 21
31.7663
  0
LINE
  8
0
 10
7.11332
 20
31.7663
 11
7.11412
 21
31.7614
  0
LINE
  8
0
 10
7.11412
 20
31.7614
 11
7.14079
 21
31.5989
  0
LINE
  8
0
 10
7.14079
 20
31.5989
 11
7.14239
 21
31.5932
  0
LINE
  8
0
 10
7.14239
 20
31.5932
 11
7.18583
 21
31.4398
  0
LINE
  8
0
 10
7.18583
 20
31.4398
 11
7.18837
 21
31.4337
  0
LINE
  8
0
 10
7.18837
 20
31.4337
 11
7.24732
 21
31.2929
  0
LINE
  8
0
 10
7.24732
 20
31.2929
 11
7.25089
 21
31.2868
  0
LINE
  8
0
 10
7.25089
 20
31.2868
 11
7.32376
 21
31.162
  0
LINE
  8
0
 10
7.32376
 20
31.162
 11
7.41325
 21
31.0502
  0
LINE
  8
0
 10
7.41325
 20
31.0502
 11
7.51359
 21
30.9602
  0
LINE
  8
0
 10
7.51359
 20
30.9602
 11
7.51997
 21
30.9563
  0
LINE
  8
0
 10
7.51997
 20
30.9563
 11
7.62232
 21
30.8943
  0
LINE
  8
0
 10
7.62232
 20
30.8943
 11
7.62931
 21
30.8918
  0
LINE
  8
0
 10
7.62931
 20
30.8918
 11
7.73676
 21
30.8541
  0
LINE
  8
0
 10
7.73676
 20
30.8541
 11
7.85409
 21
30.8406
  0
LINE
  8
0
 10
7.85409
 20
30.8406
 11
11
 21
30.8406
  0
LINE
  8
0
 10
11
 20
30.8406
 11
11
 21
45.5
  0
LINE
  8
0
 10
11
 20
45.5
 11
0
 21
45.5
  0
LINE
  8
0
 10
0
 20
45.5
 11
0
 21
42
  0
LINE
  8
0
 10
7.10409
 20
20.988
 11
7.10685
 21
20.9366
  0
LINE
  8
0
 10
7.10685
 20
20.9366
 11
7.11332
 21
20.8163
  0
LINE
  8
0
 10
7.11332
 20
20.8163
 11
7.12189
 21
20.7641
  0
LINE
  8
0
 10
7.12189
 20
20.7641
 11
7.14079
 21
20.6489
  0
LINE
  8
0
 10
7.14079
 20
20.6489
 11
7.15539
 21
20.5973
  0
LINE
  8
0
 10
7.15539
 20
20.5973
 11
7.18583
 21
20.4898
  0
LINE
  8
0
 10
7.18583
 20
20.4898
 11
7.20647
 21
20.4405
  0
LINE
  8
0
 10
7.20647
 20
20.4405
 11
7.24732
 21
20.343
  0
LINE
  8
0
 10
7.24732
 20
20.343
 11
7.27377
 21
20.2976
  0
LINE
  8
0
 10
7.27377
 20
20.2976
 11
7.32376
 21
20.212
  0
LINE
  8
0
 10
7.32376
 20
20.212
 11
7.35554
 21
20.1723
  0
LINE
  8
0
 10
7.35554
 20
20.1723
 11
7.41325
 21
20.1002
  0
LINE
  8
0
 10
7.41325
 20
20.1002
 11
7.44966
 21
20.0675
  0
LINE
  8
0
 10
7.44966
 20
20.0675
 11
7.51359
 21
20.0102
  0
LINE
  8
0
 10
7.51359
 20
20.0102
 11
7.55369
 21
19.9859
  0
LINE
  8
0
 10
7.55369
 20
19.9859
 11
7.62232
 21
19.9443
  0
LINE
  8
0
 10
7.62232
 20
19.9443
 11
7.665
 21
19.9293
  0
LINE
  8
0
 10
7.665
 20
19.9293
 11
7.73676
 21
19.9041
  0
LINE
  8
0
 10
7.73676
 20
19.9041
 11
7.85409
 21
19.8906
  0
LINE
  8
0
 10
7.85409
 20
19.8906
 11
11
 21
19.8906
  0
LINE
  8
0
 10
11
 20
19.8906
 11
11
 21
23.5247
  0
LINE
  8
0
 10
11
 20
23.5247
 11
7.85409
 21
23.5247
  0
LINE
  8
0
 10
7.85409
 20
23.5247
 11
7.73676
 21
23.5112
  0
LINE
  8
0
 10
7.73676
 20
23.5112
 11
7.6989
 21
23.4979
  0
LINE
  8
0
 10
7.6989
 20
23.4979
 11
7.62232
 21
23.471
  0
LINE
  8
0
 10
7.62232
 20
23.471
 11
7.58615
 21
23.4491
  0
LINE
  8
0
 10
7.58615
 20
23.4491
 11
7.51359
 21
23.4051
  0
LINE
  8
0
 10
7.51359
 20
23.4051
 11
7.47994
 21
23.375
  0
LINE
  8
0
 10
7.47994
 20
23.375
 11
7.41325
 21
23.3152
  0
LINE
  8
0
 10
7.41325
 20
23.3152
 11
7.38292
 21
23.2773
  0
LINE
  8
0
 10
7.38292
 20
23.2773
 11
7.32376
 21
23.2033
  0
LINE
  8
0
 10
7.32376
 20
23.2033
 11
7.29752
 21
23.1584
  0
LINE
  8
0
 10
7.29752
 20
23.1584
 11
7.24732
 21
23.0724
  0
LINE
  8
0
 10
7.24732
 20
23.0724
 11
7.22591
 21
23.0213
  0
LINE
  8
0
 10
7.22591
 20
23.0213
 11
7.18583
 21
22.9256
  0
LINE
  8
0
 10
7.18583
 20
22.9256
 11
7.1699
 21
22.8693
  0
LINE
  8
0
 10
7.1699
 20
22.8693
 11
7.14079
 21
22.7665
  0
LINE
  8
0
 10
7.14079
 20
22.7665
 11
7.13091
 21
22.7062
  0
LINE
  8
0
 10
7.13091
 20
22.7062
 11
7.11332
 21
22.599
  0
LINE
  8
0
 10
7.11332
 20
22.599
 11
7.10994
 21
22.5362
  0
LINE
  8
0
 10
7.10994
 20
22.5362
 11
7.10409
 21
22.4274
  0
LINE
  8
0
 10
7.10409
 20
22.4274
 11
7.10409
 21
20.988
  0
LINE
  8
0
 10
36.5
 20
0
 11
47.5
 21
0
  0
LINE
  8
0
 10
47.5
 20
0
 11
47.5
 21
3.5
  0
LINE
  8
0
 10
47.5
 20
3.5
 11
47
 21
4
  0
LINE
  8
0
 10
47
 20
4
 11
41.8959
 21
4
  0
LINE
  8
0
 10
41.8959
 20
4
 11
40.3959
 21
5.5
  0
LINE
  8
0
 10
40.3959
 20
5.5
 11
40.3959
 21
11.4774
  0
LINE
  8
0
 10
40.3959
 20
11.4774
 11
40.3869
 21
11.6452
  0
LINE
  8
0
 10
40.3869
 20
11.6452
 11
40.3867
 21
11.649
  0
LINE
  8
0
 10
40.3867
 20
11.649
 11
40.3601
 21
11.8107
  0
LINE
  8
0
 10
40.3601
 20
11.8107
 11
40.3592
 21
11.8165
  0
LINE
  8
0
 10
40.3592
 20
11.8165
 11
40.3162
 21
11.9683
  0
LINE
  8
0
 10
40.3162
 20
11.9683
 11
40.3142
 21
11.9756
  0
LINE
  8
0
 10
40.3142
 20
11.9756
 11
40.2562
 21
12.1141
  0
LINE
  8
0
 10
40.2562
 20
12.1141
 11
40.2527
 21
12.1224
  0
LINE
  8
0
 10
40.2527
 20
12.1224
 11
40.1813
 21
12.2447
  0
LINE
  8
0
 10
40.1813
 20
12.2447
 11
40.1762
 21
12.2533
  0
LINE
  8
0
 10
40.1762
 20
12.2533
 11
40.0934
 21
12.3569
  0
LINE
  8
0
 10
40.0934
 20
12.3569
 11
40.0868
 21
12.3652
  0
LINE
  8
0
 10
40.0868
 20
12.3652
 11
39.9864
 21
12.4552
  0
LINE
  8
0
 10
39.9864
 20
12.4552
 11
39.887
 21
12.5154
  0
LINE
  8
0
 10
39.887
 20
12.5154
 11
39.8777
 21
12.521
  0
LINE
  8
0
 10
39.8777
 20
12.521
 11
39.7734
 21
12.5577
  0
LINE
  8
0
 10
39.7734
 20
12.5577
 11
39.7632
 21
12.5612
  0
LINE
  8
0
 10
39.7632
 20
12.5612
 11
39.6565
 21
12.5735
  0
LINE
  8
0
 10
39.6565
 20
12.5735
 11
39.6459
 21
12.5748
  0
LINE
  8
0
 10
39.6459
 20
12.5748
 11
36.5
 21
12.5748
  0
LINE
  8
0
 10
36.5
 20
12.5748
 11
36.5
 21
0
  0
LINE
  8
0
 10
36.5
 20
19.8906
 11
39.6459
 21
19.8906
  0
LINE
  8
0
 10
39.6459
 20
19.8906
 11
39.7632
 21
19.9041
  0
LINE
  8
0
 10
39.7632
 20
19.9041
 11
39.806
 21
19.9191
  0
LINE
  8
0
 10
39.806
 20
19.9191
 11
39.8777
 21
19.9443
  0
LINE
  8
0
 10
39.8777
 20
19.9443
 11
39.9179
 21
19.9687
  0
LINE
  8
0
 10
39.9179
 20
19.9687
 11
39.9864
 21
20.0102
  0
LINE
  8
0
 10
39.9864
 20
20.0102
 11
40.023
 21
20.043
  0
LINE
  8
0
 10
40.023
 20
20.043
 11
40.0868
 21
20.1002
  0
LINE
  8
0
 10
40.0868
 20
20.1002
 11
40.1187
 21
20.1402
  0
LINE
  8
0
 10
40.1187
 20
20.1402
 11
40.1762
 21
20.212
  0
LINE
  8
0
 10
40.1762
 20
20.212
 11
40.2029
 21
20.2577
  0
LINE
  8
0
 10
40.2029
 20
20.2577
 11
40.2527
 21
20.343
  0
LINE
  8
0
 10
40.2527
 20
20.343
 11
40.2735
 21
20.3927
  0
LINE
  8
0
 10
40.2735
 20
20.3927
 11
40.3142
 21
20.4898
  0
LINE
  8
0
 10
40.3142
 20
20.4898
 11
40.3289
 21
20.542
  0
LINE
  8
0
 10
40.3289
 20
20.542
 11
40.3592
 21
20.6489
  0
LINE
  8
0
 10
40.3592
 20
20.6489
 11
40.3679
 21
20.7019
  0
LINE
  8
0
 10
40.3679
 20
20.7019
 11
40.3867
 21
20.8163
  0
LINE
  8
0
 10
40.3867
 20
20.8163
 11
40.3895
 21
20.8686
  0
LINE
  8
0
 10
40.3895
 20
20.8686
 11
40.3959
 21
20.988
  0
LINE
  8
0
 10
40.3959
 20
20.988
 11
40.3959
 21
22.4274
  0
LINE
  8
0
 10
40.3959
 20
22.4274
 11
40.3925
 21
22.4905
  0
LINE
  8
0
 10
40.3925
 20
22.4905
 11
40.3867
 21
22.599
  0
LINE
  8
0
 10
40.3867
 20
22.599
 11
40.3767
 21
22.6596
  0
LINE
  8
0
 10
40.3767
 20
22.6596
 11
40.3592
 21
22.7665
  0
LINE
  8
0
 10
40.3592
 20
22.7665
 11
40.3432
 21
22.823
  0
LINE
  8
0
 10
40.3432
 20
22.823
 11
40.3142
 21
22.9256
  0
LINE
  8
0
 10
40.3142
 20
22.9256
 11
40.2927
 21
22.9769
  0
LINE
  8
0
 10
40.2927
 20
22.9769
 11
40.2527
 21
23.0724
  0
LINE
  8
0
 10
40.2527
 20
23.0724
 11
40.2263
 21
23.1175
  0
LINE
  8
0
 10
40.2263
 20
23.1175
 11
40.1762
 21
23.2033
  0
LINE
  8
0
 10
40.1762
 20
23.2033
 11
40.1458
 21
23.2414
  0
LINE
  8
0
 10
40.1458
 20
23.2414
 11
40.0868
 21
23.3152
  0
LINE
  8
0
 10
40.0868
 20
23.3152
 11
40.053
 21
23.3454
  0
LINE
  8
0
 10
40.053
 20
23.3454
 11
39.9864
 21
23.4051
  0
LINE
  8
0
 10
39.9864
 20
23.4051
 11
39.9501
 21
23.4271
  0
LINE
  8
0
 10
39.9501
 20
23.4271
 11
39.8777
 21
23.471
  0
LINE
  8
0
 10
39.8777
 20
23.471
 11
39.8398
 21
23.4844
  0
LINE
  8
0
 10
39.8398
 20
23.4844
 11
39.7632
 21
23.5112
  0
LINE
  8
0
 10
39.7632
 20
23.5112
 11
39.6459
 21
23.5247
  0
LINE
  8
0
 10
39.6459
 20
23.5247
 11
36.5
 21
23.5247
  0
LINE
  8
0
 10
36.5
 20
23.5247
 11
36.5
 21
19.8906
  0
LINE
  8
0
 10
36.5
 20
30.8406
 11
39.6459
 21
30.8406
  0
LINE
  8
0
 10
39.6459
 20
30.8406
 11
39.7632
 21
30.8541
  0
LINE
  8
0
 10
39.7632
 20
30.8541
 11
39.7704
 21
30.8566
  0
LINE
  8
0
 10
39.7704
 20
30.8566
 11
39.8777
 21
30.8943
  0
LINE
  8
0
 10
39.8777
 20
30.8943
 11
39.8843
 21
30.8983
  0
LINE
  8
0
 10
39.8843
 20
30.8983
 11
39.9864
 21
30.9602
  0
LINE
  8
0
 10
39.9864
 20
30.9602
 11
40.0868
 21
31.0502
  0
LINE
  8
0
 10
40.0868
 20
31.0502
 11
40.1762
 21
31.162
  0
LINE
  8
0
 10
40.1762
 20
31.162
 11
40.1801
 21
31.1687
  0
LINE
  8
0
 10
40.1801
 20
31.1687
 11
40.2527
 21
31.2929
  0
LINE
  8
0
 10
40.2527
 20
31.2929
 11
40.2555
 21
31.2997
  0
LINE
  8
0
 10
40.2555
 20
31.2997
 11
40.3142
 21
31.4398
  0
LINE
  8
0
 10
40.3142
 20
31.4398
 11
40.316
 21
31.4462
  0
LINE
  8
0
 10
40.316
 20
31.4462
 11
40.3592
 21
31.5989
  0
LINE
  8
0
 10
40.3592
 20
31.5989
 11
40.3602
 21
31.6047
  0
LINE
  8
0
 10
40.3602
 20
31.6047
 11
40.3867
 21
31.7663
  0
LINE
  8
0
 10
40.3867
 20
31.7663
 11
40.3869
 21
31.7713
  0
LINE
  8
0
 10
40.3869
 20
31.7713
 11
40.3959
 21
31.938
  0
LINE
  8
0
 10
40.3959
 20
31.938
 11
40.3959
 21
40
  0
LINE
  8
0
 10
40.3959
 20
40
 11
41.8959
 21
41.5
  0
LINE
  8
0
 10
41.8959
 20
41.5
 11
47
 21
41.5
  0
LINE
  8
0
 10
47
 20
41.5
 11
47.5
 21
42
  0
LINE
  8
0
 10
47.5
 20
42
 11
47.5
 21
45.5
  0
LINE
  8
0
 10
47.5
 20
45.5
 11
36.5
 21
45.5
  0
LINE
  8
0
 10
36.5
 20
45.5
 11
36.5
 21
30.8406
  0
ENDSEC
  0
SECTION
  2
OBJECTS
  0
DICTIONARY
  0
ENDSEC
  0
EOF
