  0
SECTION
  2
BLOCKS
  0
ENDSEC
  0
SECTION
  2
ENTITIES
  0
LINE
  8
0
 10
0
 20
0
 11
11
 21
0
  0
LINE
  8
0
 10
11
 20
0
 11
11
 21
12.3611
  0
LINE
  8
0
 10
11
 20
12.3611
 11
7.85409
 21
12.3611
  0
LINE
  8
0
 10
7.85409
 20
12.3611
 11
7.7438
 21
12.3484
  0
LINE
  8
0
 10
7.7438
 20
12.3484
 11
7.73676
 21
12.3476
  0
LINE
  8
0
 10
7.73676
 20
12.3476
 11
7.62887
 21
12.3097
  0
LINE
  8
0
 10
7.62887
 20
12.3097
 11
7.62232
 21
12.3074
  0
LINE
  8
0
 10
7.62232
 20
12.3074
 11
7.5193
 21
12.245
  0
LINE
  8
0
 10
7.5193
 20
12.245
 11
7.51359
 21
12.2415
  0
LINE
  8
0
 10
7.51359
 20
12.2415
 11
7.41325
 21
12.1516
  0
LINE
  8
0
 10
7.41325
 20
12.1516
 11
7.32714
 21
12.0439
  0
LINE
  8
0
 10
7.32714
 20
12.0439
 11
7.32376
 21
12.0397
  0
LINE
  8
0
 10
7.32376
 20
12.0397
 11
7.24948
 21
11.9125
  0
LINE
  8
0
 10
7.24948
 20
11.9125
 11
7.24732
 21
11.9088
  0
LINE
  8
0
 10
7.24732
 20
11.9088
 11
7.1869
 21
11.7645
  0
LINE
  8
0
 10
7.1869
 20
11.7645
 11
7.18583
 21
11.762
  0
LINE
  8
0
 10
7.18583
 20
11.762
 11
7.14105
 21
11.6038
  0
LINE
  8
0
 10
7.14105
 20
11.6038
 11
7.14079
 21
11.6029
  0
LINE
  8
0
 10
7.14079
 20
11.6029
 11
7.12827
 21
11.5266
  0
LINE
  8
0
 10
7.12827
 20
11.5266
 11
7.11608
 21
11.4583
  0
LINE
  8
0
 10
7.11608
 20
11.4583
 11
7.11332
 21
11.4428
  0
LINE
  8
0
 10
7.11332
 20
11.4428
 11
7.10667
 21
11.3292
  0
LINE
  8
0
 10
7.10667
 20
11.3292
 11
7.10409
 21
11.2851
  0
LINE
  8
0
 10
7.10409
 20
11.2851
 11
7.10409
 21
5.5
  0
LINE
  8
0
 10
7.10409
 20
5.5
 11
5.60409
 21
4
  0
LINE
  8
0
 10
5.60409
 20
4
 11
0.499999
 21
4
  0
LINE
  8
0
 10
0.499999
 20
4
 11
0
 21
3.5
  0
LINE
  8
0
 10
0
 20
3.5
 11
0
 21
0
  0
LINE
  8
0
 10
0
 20
42
 11
0.499999
 21
41.5
  0
LINE
  8
0
 10
0.499999
 20
41.5
 11
5.60409
 21
41.5
  0
LINE
  8
0
 10
5.60409
 20
41.5
 11
7.10409
 21
40
  0
LINE
  8
0
 10
7.10409
 20
40
 11
7.10409
 21
31.7243
  0
LINE
  8
0
 10
7.10409
 20
31.7243
 11
7.10444
 21
31.7179
  0
LINE
  8
0
 10
7.10444
 20
31.7179
 11
7.11332
 21
31.5527
  0
LINE
  8
0
 10
7.11332
 20
31.5527
 11
7.11453
 21
31.5453
  0
LINE
  8
0
 10
7.11453
 20
31.5453
 11
7.14079
 21
31.3852
  0
LINE
  8
0
 10
7.14079
 20
31.3852
 11
7.14305
 21
31.3773
  0
LINE
  8
0
 10
7.14305
 20
31.3773
 11
7.18583
 21
31.2261
  0
LINE
  8
0
 10
7.18583
 20
31.2261
 11
7.18927
 21
31.2179
  0
LINE
  8
0
 10
7.18927
 20
31.2179
 11
7.24732
 21
31.0793
  0
LINE
  8
0
 10
7.24732
 20
31.0793
 11
7.25201
 21
31.0713
  0
LINE
  8
0
 10
7.25201
 20
31.0713
 11
7.32376
 21
30.9484
  0
LINE
  8
0
 10
7.32376
 20
30.9484
 11
7.41325
 21
30.8365
  0
LINE
  8
0
 10
7.41325
 20
30.8365
 11
7.51359
 21
30.7466
  0
LINE
  8
0
 10
7.51359
 20
30.7466
 11
7.52157
 21
30.7417
  0
LINE
  8
0
 10
7.52157
 20
30.7417
 11
7.62232
 21
30.6807
  0
LINE
  8
0
 10
7.62232
 20
30.6807
 11
7.63098
 21
30.6776
  0
LINE
  8
0
 10
7.63098
 20
30.6776
 11
7.73676
 21
30.6405
  0
LINE
  8
0
 10
7.73676
 20
30.6405
 11
7.85409
 21
30.627
  0
LINE
  8
0
 10
7.85409
 20
30.627
 11
11
 21
30.627
  0
LINE
  8
0
 10
11
 20
30.627
 11
11
 21
45.5
  0
LINE
  8
0
 10
11
 20
45.5
 11
0
 21
45.5
  0
LINE
  8
0
 10
0
 20
45.5
 11
0
 21
42
  0
LINE
  8
0
 10
7.10409
 20
20.7744
 11
7.10713
 21
20.7179
  0
LINE
  8
0
 10
7.10713
 20
20.7179
 11
7.11332
 21
20.6027
  0
LINE
  8
0
 10
7.11332
 20
20.6027
 11
7.12271
 21
20.5455
  0
LINE
  8
0
 10
7.12271
 20
20.5455
 11
7.14079
 21
20.4352
  0
LINE
  8
0
 10
7.14079
 20
20.4352
 11
7.15673
 21
20.379
  0
LINE
  8
0
 10
7.15673
 20
20.379
 11
7.18583
 21
20.2762
  0
LINE
  8
0
 10
7.18583
 20
20.2762
 11
7.20829
 21
20.2225
  0
LINE
  8
0
 10
7.20829
 20
20.2225
 11
7.24732
 21
20.1293
  0
LINE
  8
0
 10
7.24732
 20
20.1293
 11
7.27603
 21
20.0802
  0
LINE
  8
0
 10
7.27603
 20
20.0802
 11
7.32376
 21
19.9984
  0
LINE
  8
0
 10
7.32376
 20
19.9984
 11
7.35818
 21
19.9554
  0
LINE
  8
0
 10
7.35818
 20
19.9554
 11
7.41325
 21
19.8866
  0
LINE
  8
0
 10
7.41325
 20
19.8866
 11
7.45261
 21
19.8513
  0
LINE
  8
0
 10
7.45261
 20
19.8513
 11
7.51359
 21
19.7966
  0
LINE
  8
0
 10
7.51359
 20
19.7966
 11
7.55689
 21
19.7703
  0
LINE
  8
0
 10
7.55689
 20
19.7703
 11
7.62232
 21
19.7307
  0
LINE
  8
0
 10
7.62232
 20
19.7307
 11
7.66836
 21
19.7145
  0
LINE
  8
0
 10
7.66836
 20
19.7145
 11
7.73676
 21
19.6905
  0
LINE
  8
0
 10
7.73676
 20
19.6905
 11
7.85409
 21
19.677
  0
LINE
  8
0
 10
7.85409
 20
19.677
 11
11
 21
19.677
  0
LINE
  8
0
 10
11
 20
19.677
 11
11
 21
23.3111
  0
LINE
  8
0
 10
11
 20
23.3111
 11
7.85409
 21
23.3111
  0
LINE
  8
0
 10
7.85409
 20
23.3111
 11
7.73676
 21
23.2976
  0
LINE
  8
0
 10
7.73676
 20
23.2976
 11
7.69722
 21
23.2837
  0
LINE
  8
0
 10
7.69722
 20
23.2837
 11
7.62232
 21
23.2574
  0
LINE
  8
0
 10
7.62232
 20
23.2574
 11
7.58456
 21
23.2345
  0
LINE
  8
0
 10
7.58456
 20
23.2345
 11
7.51359
 21
23.1915
  0
LINE
  8
0
 10
7.51359
 20
23.1915
 11
7.47847
 21
23.16
  0
LINE
  8
0
 10
7.47847
 20
23.16
 11
7.41325
 21
23.1015
  0
LINE
  8
0
 10
7.41325
 20
23.1015
 11
7.3816
 21
23.062
  0
LINE
  8
0
 10
7.3816
 20
23.062
 11
7.32376
 21
22.9897
  0
LINE
  8
0
 10
7.32376
 20
22.9897
 11
7.2964
 21
22.9428
  0
LINE
  8
0
 10
7.2964
 20
22.9428
 11
7.24732
 21
22.8588
  0
LINE
  8
0
 10
7.24732
 20
22.8588
 11
7.225
 21
22.8055
  0
LINE
  8
0
 10
7.225
 20
22.8055
 11
7.18583
 21
22.7119
  0
LINE
  8
0
 10
7.18583
 20
22.7119
 11
7.16923
 21
22.6533
  0
LINE
  8
0
 10
7.16923
 20
22.6533
 11
7.14079
 21
22.5529
  0
LINE
  8
0
 10
7.14079
 20
22.5529
 11
7.13051
 21
22.4901
  0
LINE
  8
0
 10
7.13051
 20
22.4901
 11
7.11332
 21
22.3854
  0
LINE
  8
0
 10
7.11332
 20
22.3854
 11
7.10981
 21
22.3201
  0
LINE
  8
0
 10
7.10981
 20
22.3201
 11
7.10409
 21
22.2137
  0
LINE
  8
0
 10
7.10409
 20
22.2137
 11
7.10409
 21
20.7744
  0
LINE
  8
0
 10
36.5
 20
0
 11
47.5
 21
0
  0
LINE
  8
0
 10
47.5
 20
0
 11
47.5
 21
3.5
  0
LINE
  8
0
 10
47.5
 20
3.5
 11
47
 21
4
  0
LINE
  8
0
 10
47
 20
4
 11
41.8959
 21
4
  0
LINE
  8
0
 10
41.8959
 20
4
 11
40.3959
 21
5.5
  0
LINE
  8
0
 10
40.3959
 20
5.5
 11
40.3959
 21
11.2851
  0
LINE
  8
0
 10
40.3959
 20
11.2851
 11
40.388
 21
11.4199
  0
LINE
  8
0
 10
40.388
 20
11.4199
 11
40.3867
 21
11.4428
  0
LINE
  8
0
 10
40.3867
 20
11.4428
 11
40.3717
 21
11.5266
  0
LINE
  8
0
 10
40.3717
 20
11.5266
 11
40.3594
 21
11.6019
  0
LINE
  8
0
 10
40.3594
 20
11.6019
 11
40.3592
 21
11.6029
  0
LINE
  8
0
 10
40.3592
 20
11.6029
 11
40.3149
 21
11.7593
  0
LINE
  8
0
 10
40.3149
 20
11.7593
 11
40.3142
 21
11.762
  0
LINE
  8
0
 10
40.3142
 20
11.762
 11
40.2544
 21
11.9047
  0
LINE
  8
0
 10
40.2544
 20
11.9047
 11
40.2527
 21
11.9088
  0
LINE
  8
0
 10
40.2527
 20
11.9088
 11
40.1791
 21
12.0349
  0
LINE
  8
0
 10
40.1791
 20
12.0349
 11
40.1762
 21
12.0397
  0
LINE
  8
0
 10
40.1762
 20
12.0397
 11
40.0908
 21
12.1465
  0
LINE
  8
0
 10
40.0908
 20
12.1465
 11
40.0868
 21
12.1516
  0
LINE
  8
0
 10
40.0868
 20
12.1516
 11
39.9864
 21
12.2415
  0
LINE
  8
0
 10
39.9864
 20
12.2415
 11
39.8838
 21
12.3037
  0
LINE
  8
0
 10
39.8838
 20
12.3037
 11
39.8777
 21
12.3074
  0
LINE
  8
0
 10
39.8777
 20
12.3074
 11
39.7701
 21
12.3452
  0
LINE
  8
0
 10
39.7701
 20
12.3452
 11
39.7632
 21
12.3476
  0
LINE
  8
0
 10
39.7632
 20
12.3476
 11
39.6531
 21
12.3603
  0
LINE
  8
0
 10
39.6531
 20
12.3603
 11
39.6459
 21
12.3611
  0
LINE
  8
0
 10
39.6459
 20
12.3611
 11
36.5
 21
12.3611
  0
LINE
  8
0
 10
36.5
 20
12.3611
 11
36.5
 21
0
  0
LINE
  8
0
 10
36.5
 20
19.677
 11
39.6459
 21
19.677
  0
LINE
  8
0
 10
39.6459
 20
19.677
 11
39.7632
 21
19.6905
  0
LINE
  8
0
 10
39.7632
 20
19.6905
 11
39.8093
 21
19.7067
  0
LINE
  8
0
 10
39.8093
 20
19.7067
 11
39.8777
 21
19.7307
  0
LINE
  8
0
 10
39.8777
 20
19.7307
 11
39.9211
 21
19.757
  0
LINE
  8
0
 10
39.9211
 20
19.757
 11
39.9864
 21
19.7966
  0
LINE
  8
0
 10
39.9864
 20
19.7966
 11
40.0259
 21
19.832
  0
LINE
  8
0
 10
40.0259
 20
19.832
 11
40.0868
 21
19.8866
  0
LINE
  8
0
 10
40.0868
 20
19.8866
 11
40.1213
 21
19.9298
  0
LINE
  8
0
 10
40.1213
 20
19.9298
 11
40.1762
 21
19.9984
  0
LINE
  8
0
 10
40.1762
 20
19.9984
 11
40.2051
 21
20.0479
  0
LINE
  8
0
 10
40.2051
 20
20.0479
 11
40.2527
 21
20.1293
  0
LINE
  8
0
 10
40.2527
 20
20.1293
 11
40.2753
 21
20.1834
  0
LINE
  8
0
 10
40.2753
 20
20.1834
 11
40.3142
 21
20.2762
  0
LINE
  8
0
 10
40.3142
 20
20.2762
 11
40.3303
 21
20.333
  0
LINE
  8
0
 10
40.3303
 20
20.333
 11
40.3592
 21
20.4352
  0
LINE
  8
0
 10
40.3592
 20
20.4352
 11
40.3687
 21
20.4931
  0
LINE
  8
0
 10
40.3687
 20
20.4931
 11
40.3867
 21
20.6027
  0
LINE
  8
0
 10
40.3867
 20
20.6027
 11
40.3898
 21
20.6599
  0
LINE
  8
0
 10
40.3898
 20
20.6599
 11
40.3959
 21
20.7744
  0
LINE
  8
0
 10
40.3959
 20
20.7744
 11
40.3959
 21
22.2137
  0
LINE
  8
0
 10
40.3959
 20
22.2137
 11
40.3924
 21
22.2794
  0
LINE
  8
0
 10
40.3924
 20
22.2794
 11
40.3867
 21
22.3854
  0
LINE
  8
0
 10
40.3867
 20
22.3854
 11
40.3763
 21
22.4484
  0
LINE
  8
0
 10
40.3763
 20
22.4484
 11
40.3592
 21
22.5529
  0
LINE
  8
0
 10
40.3592
 20
22.5529
 11
40.3425
 21
22.6117
  0
LINE
  8
0
 10
40.3425
 20
22.6117
 11
40.3142
 21
22.7119
  0
LINE
  8
0
 10
40.3142
 20
22.7119
 11
40.2918
 21
22.7655
  0
LINE
  8
0
 10
40.2918
 20
22.7655
 11
40.2527
 21
22.8588
  0
LINE
  8
0
 10
40.2527
 20
22.8588
 11
40.2252
 21
22.9058
  0
LINE
  8
0
 10
40.2252
 20
22.9058
 11
40.1762
 21
22.9897
  0
LINE
  8
0
 10
40.1762
 20
22.9897
 11
40.1445
 21
23.0294
  0
LINE
  8
0
 10
40.1445
 20
23.0294
 11
40.0868
 21
23.1015
  0
LINE
  8
0
 10
40.0868
 20
23.1015
 11
40.0515
 21
23.1331
  0
LINE
  8
0
 10
40.0515
 20
23.1331
 11
39.9864
 21
23.1915
  0
LINE
  8
0
 10
39.9864
 20
23.1915
 11
39.9486
 21
23.2144
  0
LINE
  8
0
 10
39.9486
 20
23.2144
 11
39.8777
 21
23.2574
  0
LINE
  8
0
 10
39.8777
 20
23.2574
 11
39.8381
 21
23.2713
  0
LINE
  8
0
 10
39.8381
 20
23.2713
 11
39.7632
 21
23.2976
  0
LINE
  8
0
 10
39.7632
 20
23.2976
 11
39.6459
 21
23.3111
  0
LINE
  8
0
 10
39.6459
 20
23.3111
 11
36.5
 21
23.3111
  0
LINE
  8
0
 10
36.5
 20
23.3111
 11
36.5
 21
19.677
  0
LINE
  8
0
 10
36.5
 20
30.627
 11
39.6459
 21
30.627
  0
LINE
  8
0
 10
39.6459
 20
30.627
 11
39.7632
 21
30.6405
  0
LINE
  8
0
 10
39.7632
 20
30.6405
 11
39.772
 21
30.6436
  0
LINE
  8
0
 10
39.772
 20
30.6436
 11
39.8777
 21
30.6807
  0
LINE
  8
0
 10
39.8777
 20
30.6807
 11
39.8859
 21
30.6856
  0
LINE
  8
0
 10
39.8859
 20
30.6856
 11
39.9864
 21
30.7466
  0
LINE
  8
0
 10
39.9864
 20
30.7466
 11
40.0868
 21
30.8365
  0
LINE
  8
0
 10
40.0868
 20
30.8365
 11
40.1762
 21
30.9484
  0
LINE
  8
0
 10
40.1762
 20
30.9484
 11
40.1812
 21
30.9569
  0
LINE
  8
0
 10
40.1812
 20
30.9569
 11
40.2527
 21
31.0793
  0
LINE
  8
0
 10
40.2527
 20
31.0793
 11
40.2564
 21
31.0882
  0
LINE
  8
0
 10
40.2564
 20
31.0882
 11
40.3142
 21
31.2261
  0
LINE
  8
0
 10
40.3142
 20
31.2261
 11
40.3167
 21
31.2349
  0
LINE
  8
0
 10
40.3167
 20
31.2349
 11
40.3592
 21
31.3852
  0
LINE
  8
0
 10
40.3592
 20
31.3852
 11
40.3606
 21
31.3935
  0
LINE
  8
0
 10
40.3606
 20
31.3935
 11
40.3867
 21
31.5527
  0
LINE
  8
0
 10
40.3867
 20
31.5527
 11
40.3871
 21
31.5601
  0
LINE
  8
0
 10
40.3871
 20
31.5601
 11
40.3959
 21
31.7243
  0
LINE
  8
0
 10
40.3959
 20
31.7243
 11
40.3959
 21
40
  0
LINE
  8
0
 10
40.3959
 20
40
 11
41.8959
 21
41.5
  0
LINE
  8
0
 10
41.8959
 20
41.5
 11
47
 21
41.5
  0
LINE
  8
0
 10
47
 20
41.5
 11
47.5
 21
42
  0
LINE
  8
0
 10
47.5
 20
42
 11
47.5
 21
45.5
  0
LINE
  8
0
 10
47.5
 20
45.5
 11
36.5
 21
45.5
  0
LINE
  8
0
 10
36.5
 20
45.5
 11
36.5
 21
30.627
  0
ENDSEC
  0
SECTION
  2
OBJECTS
  0
DICTIONARY
  0
ENDSEC
  0
EOF
