  0
SECTION
  2
BLOCKS
  0
ENDSEC
  0
SECTION
  2
ENTITIES
  0
LINE
  8
0
 10
0
 20
0
 11
11
 21
0
  0
LINE
  8
0
 10
11
 20
0
 11
11
 21
12.1475
  0
LINE
  8
0
 10
11
 20
12.1475
 11
7.85409
 21
12.1475
  0
LINE
  8
0
 10
7.85409
 20
12.1475
 11
7.74036
 21
12.1344
  0
LINE
  8
0
 10
7.74036
 20
12.1344
 11
7.73676
 21
12.134
  0
LINE
  8
0
 10
7.73676
 20
12.134
 11
7.62551
 21
12.0949
  0
LINE
  8
0
 10
7.62551
 20
12.0949
 11
7.62232
 21
12.0938
  0
LINE
  8
0
 10
7.62232
 20
12.0938
 11
7.5161
 21
12.0294
  0
LINE
  8
0
 10
7.5161
 20
12.0294
 11
7.51359
 21
12.0279
  0
LINE
  8
0
 10
7.51359
 20
12.0279
 11
7.41325
 21
11.9379
  0
LINE
  8
0
 10
7.41325
 20
11.9379
 11
7.3245
 21
11.827
  0
LINE
  8
0
 10
7.3245
 20
11.827
 11
7.32376
 21
11.8261
  0
LINE
  8
0
 10
7.32376
 20
11.8261
 11
7.25821
 21
11.7138
  0
LINE
  8
0
 10
7.25821
 20
11.7138
 11
7.24911
 21
11.6995
  0
LINE
  8
0
 10
7.24911
 20
11.6995
 11
7.24732
 21
11.6967
  0
LINE
  8
0
 10
7.24732
 20
11.6967
 11
7.198
 21
11.5885
  0
LINE
  8
0
 10
7.198
 20
11.5885
 11
7.18583
 21
11.5618
  0
LINE
  8
0
 10
7.18583
 20
11.5618
 11
7.15754
 21
11.47
  0
LINE
  8
0
 10
7.15754
 20
11.47
 11
7.14079
 21
11.4156
  0
LINE
  8
0
 10
7.14079
 20
11.4156
 11
7.1282
 21
11.3451
  0
LINE
  8
0
 10
7.1282
 20
11.3451
 11
7.11332
 21
11.2618
  0
LINE
  8
0
 10
7.11332
 20
11.2618
 11
7.1106
 21
11.2154
  0
LINE
  8
0
 10
7.1106
 20
11.2154
 11
7.10409
 21
11.1041
  0
LINE
  8
0
 10
7.10409
 20
11.1041
 11
7.10409
 21
5.5
  0
LINE
  8
0
 10
7.10409
 20
5.5
 11
5.60409
 21
4
  0
LINE
  8
0
 10
5.60409
 20
4
 11
0.499999
 21
4
  0
LINE
  8
0
 10
0.499999
 20
4
 11
0
 21
3.5
  0
LINE
  8
0
 10
0
 20
3.5
 11
0
 21
0
  0
LINE
  8
0
 10
0
 20
42
 11
0.499999
 21
41.5
  0
LINE
  8
0
 10
0.499999
 20
41.5
 11
5.60409
 21
41.5
  0
LINE
  8
0
 10
5.60409
 20
41.5
 11
7.10409
 21
40
  0
LINE
  8
0
 10
7.10409
 20
40
 11
7.10409
 21
31.5107
  0
LINE
  8
0
 10
7.10409
 20
31.5107
 11
7.10457
 21
31.5017
  0
LINE
  8
0
 10
7.10457
 20
31.5017
 11
7.11332
 21
31.339
  0
LINE
  8
0
 10
7.11332
 20
31.339
 11
7.11493
 21
31.3292
  0
LINE
  8
0
 10
7.11493
 20
31.3292
 11
7.14079
 21
31.1716
  0
LINE
  8
0
 10
7.14079
 20
31.1716
 11
7.14371
 21
31.1613
  0
LINE
  8
0
 10
7.14371
 20
31.1613
 11
7.18583
 21
31.0125
  0
LINE
  8
0
 10
7.18583
 20
31.0125
 11
7.19018
 21
31.0021
  0
LINE
  8
0
 10
7.19018
 20
31.0021
 11
7.24732
 21
30.8657
  0
LINE
  8
0
 10
7.24732
 20
30.8657
 11
7.25313
 21
30.8557
  0
LINE
  8
0
 10
7.25313
 20
30.8557
 11
7.32376
 21
30.7348
  0
LINE
  8
0
 10
7.32376
 20
30.7348
 11
7.41325
 21
30.6229
  0
LINE
  8
0
 10
7.41325
 20
30.6229
 11
7.51359
 21
30.5329
  0
LINE
  8
0
 10
7.51359
 20
30.5329
 11
7.52316
 21
30.5271
  0
LINE
  8
0
 10
7.52316
 20
30.5271
 11
7.62232
 21
30.467
  0
LINE
  8
0
 10
7.62232
 20
30.467
 11
7.63266
 21
30.4634
  0
LINE
  8
0
 10
7.63266
 20
30.4634
 11
7.73676
 21
30.4269
  0
LINE
  8
0
 10
7.73676
 20
30.4269
 11
7.85409
 21
30.4133
  0
LINE
  8
0
 10
7.85409
 20
30.4133
 11
11
 21
30.4133
  0
LINE
  8
0
 10
11
 20
30.4133
 11
11
 21
45.5
  0
LINE
  8
0
 10
11
 20
45.5
 11
0
 21
45.5
  0
LINE
  8
0
 10
0
 20
45.5
 11
0
 21
42
  0
LINE
  8
0
 10
7.10409
 20
20.5607
 11
7.1074
 21
20.4992
  0
LINE
  8
0
 10
7.1074
 20
20.4992
 11
7.11332
 21
20.3891
  0
LINE
  8
0
 10
7.11332
 20
20.3891
 11
7.12352
 21
20.3269
  0
LINE
  8
0
 10
7.12352
 20
20.3269
 11
7.14079
 21
20.2216
  0
LINE
  8
0
 10
7.14079
 20
20.2216
 11
7.15806
 21
20.1606
  0
LINE
  8
0
 10
7.15806
 20
20.1606
 11
7.18583
 21
20.0625
  0
LINE
  8
0
 10
7.18583
 20
20.0625
 11
7.21011
 21
20.0046
  0
LINE
  8
0
 10
7.21011
 20
20.0046
 11
7.24732
 21
19.9157
  0
LINE
  8
0
 10
7.24732
 20
19.9157
 11
7.27829
 21
19.8627
  0
LINE
  8
0
 10
7.27829
 20
19.8627
 11
7.32376
 21
19.7848
  0
LINE
  8
0
 10
7.32376
 20
19.7848
 11
7.36082
 21
19.7384
  0
LINE
  8
0
 10
7.36082
 20
19.7384
 11
7.41325
 21
19.6729
  0
LINE
  8
0
 10
7.41325
 20
19.6729
 11
7.45557
 21
19.635
  0
LINE
  8
0
 10
7.45557
 20
19.635
 11
7.51359
 21
19.583
  0
LINE
  8
0
 10
7.51359
 20
19.583
 11
7.56009
 21
19.5548
  0
LINE
  8
0
 10
7.56009
 20
19.5548
 11
7.62232
 21
19.5171
  0
LINE
  8
0
 10
7.62232
 20
19.5171
 11
7.67172
 21
19.4997
  0
LINE
  8
0
 10
7.67172
 20
19.4997
 11
7.73676
 21
19.4769
  0
LINE
  8
0
 10
7.73676
 20
19.4769
 11
7.85409
 21
19.4634
  0
LINE
  8
0
 10
7.85409
 20
19.4634
 11
11
 21
19.4634
  0
LINE
  8
0
 10
11
 20
19.4634
 11
11
 21
23.0975
  0
LINE
  8
0
 10
11
 20
23.0975
 11
7.85409
 21
23.0975
  0
LINE
  8
0
 10
7.85409
 20
23.0975
 11
7.73676
 21
23.084
  0
LINE
  8
0
 10
7.73676
 20
23.084
 11
7.69554
 21
23.0695
  0
LINE
  8
0
 10
7.69554
 20
23.0695
 11
7.62232
 21
23.0438
  0
LINE
  8
0
 10
7.62232
 20
23.0438
 11
7.58296
 21
23.0199
  0
LINE
  8
0
 10
7.58296
 20
23.0199
 11
7.51359
 21
22.9779
  0
LINE
  8
0
 10
7.51359
 20
22.9779
 11
7.47699
 21
22.9451
  0
LINE
  8
0
 10
7.47699
 20
22.9451
 11
7.41325
 21
22.8879
  0
LINE
  8
0
 10
7.41325
 20
22.8879
 11
7.38029
 21
22.8467
  0
LINE
  8
0
 10
7.38029
 20
22.8467
 11
7.32376
 21
22.7761
  0
LINE
  8
0
 10
7.32376
 20
22.7761
 11
7.29527
 21
22.7273
  0
LINE
  8
0
 10
7.29527
 20
22.7273
 11
7.24732
 21
22.6451
  0
LINE
  8
0
 10
7.24732
 20
22.6451
 11
7.2241
 21
22.5897
  0
LINE
  8
0
 10
7.2241
 20
22.5897
 11
7.18583
 21
22.4983
  0
LINE
  8
0
 10
7.18583
 20
22.4983
 11
7.16857
 21
22.4373
  0
LINE
  8
0
 10
7.16857
 20
22.4373
 11
7.14079
 21
22.3392
  0
LINE
  8
0
 10
7.14079
 20
22.3392
 11
7.1301
 21
22.2741
  0
LINE
  8
0
 10
7.1301
 20
22.2741
 11
7.11332
 21
22.1718
  0
LINE
  8
0
 10
7.11332
 20
22.1718
 11
7.10967
 21
22.1039
  0
LINE
  8
0
 10
7.10967
 20
22.1039
 11
7.10409
 21
22.0001
  0
LINE
  8
0
 10
7.10409
 20
22.0001
 11
7.10409
 21
20.5607
  0
LINE
  8
0
 10
36.5
 20
0
 11
47.5
 21
0
  0
LINE
  8
0
 10
47.5
 20
0
 11
47.5
 21
3.5
  0
LINE
  8
0
 10
47.5
 20
3.5
 11
47
 21
4
  0
LINE
  8
0
 10
47
 20
4
 11
41.8959
 21
4
  0
LINE
  8
0
 10
41.8959
 20
4
 11
40.3959
 21
5.5
  0
LINE
  8
0
 10
40.3959
 20
5.5
 11
40.3959
 21
11.1041
  0
LINE
  8
0
 10
40.3959
 20
11.1041
 11
40.3939
 21
11.1379
  0
LINE
  8
0
 10
40.3939
 20
11.1379
 11
40.3867
 21
11.2618
  0
LINE
  8
0
 10
40.3867
 20
11.2618
 11
40.374
 21
11.3326
  0
LINE
  8
0
 10
40.374
 20
11.3326
 11
40.3592
 21
11.4156
  0
LINE
  8
0
 10
40.3592
 20
11.4156
 11
40.327
 21
11.5202
  0
LINE
  8
0
 10
40.327
 20
11.5202
 11
40.3142
 21
11.5618
  0
LINE
  8
0
 10
40.3142
 20
11.5618
 11
40.2547
 21
11.6922
  0
LINE
  8
0
 10
40.2547
 20
11.6922
 11
40.2527
 21
11.6967
  0
LINE
  8
0
 10
40.2527
 20
11.6967
 11
40.2418
 21
11.7138
  0
LINE
  8
0
 10
40.2418
 20
11.7138
 11
40.1769
 21
11.825
  0
LINE
  8
0
 10
40.1769
 20
11.825
 11
40.1762
 21
11.8261
  0
LINE
  8
0
 10
40.1762
 20
11.8261
 11
40.0882
 21
11.9361
  0
LINE
  8
0
 10
40.0882
 20
11.9361
 11
40.0868
 21
11.9379
  0
LINE
  8
0
 10
40.0868
 20
11.9379
 11
39.9864
 21
12.0279
  0
LINE
  8
0
 10
39.9864
 20
12.0279
 11
39.8807
 21
12.092
  0
LINE
  8
0
 10
39.8807
 20
12.092
 11
39.8777
 21
12.0938
  0
LINE
  8
0
 10
39.8777
 20
12.0938
 11
39.7667
 21
12.1328
  0
LINE
  8
0
 10
39.7667
 20
12.1328
 11
39.7632
 21
12.134
  0
LINE
  8
0
 10
39.7632
 20
12.134
 11
39.6496
 21
12.1471
  0
LINE
  8
0
 10
39.6496
 20
12.1471
 11
39.6459
 21
12.1475
  0
LINE
  8
0
 10
39.6459
 20
12.1475
 11
36.5
 21
12.1475
  0
LINE
  8
0
 10
36.5
 20
12.1475
 11
36.5
 21
0
  0
LINE
  8
0
 10
36.5
 20
19.4634
 11
39.6459
 21
19.4634
  0
LINE
  8
0
 10
39.6459
 20
19.4634
 11
39.7632
 21
19.4769
  0
LINE
  8
0
 10
39.7632
 20
19.4769
 11
39.8127
 21
19.4942
  0
LINE
  8
0
 10
39.8127
 20
19.4942
 11
39.8777
 21
19.5171
  0
LINE
  8
0
 10
39.8777
 20
19.5171
 11
39.9242
 21
19.5453
  0
LINE
  8
0
 10
39.9242
 20
19.5453
 11
39.9864
 21
19.583
  0
LINE
  8
0
 10
39.9864
 20
19.583
 11
40.0288
 21
19.621
  0
LINE
  8
0
 10
40.0288
 20
19.621
 11
40.0868
 21
19.6729
  0
LINE
  8
0
 10
40.0868
 20
19.6729
 11
40.1239
 21
19.7194
  0
LINE
  8
0
 10
40.1239
 20
19.7194
 11
40.1762
 21
19.7848
  0
LINE
  8
0
 10
40.1762
 20
19.7848
 11
40.2073
 21
19.8381
  0
LINE
  8
0
 10
40.2073
 20
19.8381
 11
40.2527
 21
19.9157
  0
LINE
  8
0
 10
40.2527
 20
19.9157
 11
40.2771
 21
19.974
  0
LINE
  8
0
 10
40.2771
 20
19.974
 11
40.3142
 21
20.0625
  0
LINE
  8
0
 10
40.3142
 20
20.0625
 11
40.3316
 21
20.124
  0
LINE
  8
0
 10
40.3316
 20
20.124
 11
40.3592
 21
20.2216
  0
LINE
  8
0
 10
40.3592
 20
20.2216
 11
40.3695
 21
20.2843
  0
LINE
  8
0
 10
40.3695
 20
20.2843
 11
40.3867
 21
20.3891
  0
LINE
  8
0
 10
40.3867
 20
20.3891
 11
40.39
 21
20.4512
  0
LINE
  8
0
 10
40.39
 20
20.4512
 11
40.3959
 21
20.5607
  0
LINE
  8
0
 10
40.3959
 20
20.5607
 11
40.3959
 21
22.0001
  0
LINE
  8
0
 10
40.3959
 20
22.0001
 11
40.3922
 21
22.0682
  0
LINE
  8
0
 10
40.3922
 20
22.0682
 11
40.3867
 21
22.1718
  0
LINE
  8
0
 10
40.3867
 20
22.1718
 11
40.3759
 21
22.2372
  0
LINE
  8
0
 10
40.3759
 20
22.2372
 11
40.3592
 21
22.3392
  0
LINE
  8
0
 10
40.3592
 20
22.3392
 11
40.3419
 21
22.4004
  0
LINE
  8
0
 10
40.3419
 20
22.4004
 11
40.3142
 21
22.4983
  0
LINE
  8
0
 10
40.3142
 20
22.4983
 11
40.2909
 21
22.554
  0
LINE
  8
0
 10
40.2909
 20
22.554
 11
40.2527
 21
22.6451
  0
LINE
  8
0
 10
40.2527
 20
22.6451
 11
40.2241
 21
22.6941
  0
LINE
  8
0
 10
40.2241
 20
22.6941
 11
40.1762
 21
22.7761
  0
LINE
  8
0
 10
40.1762
 20
22.7761
 11
40.1432
 21
22.8174
  0
LINE
  8
0
 10
40.1432
 20
22.8174
 11
40.0868
 21
22.8879
  0
LINE
  8
0
 10
40.0868
 20
22.8879
 11
40.0501
 21
22.9208
  0
LINE
  8
0
 10
40.0501
 20
22.9208
 11
39.9864
 21
22.9779
  0
LINE
  8
0
 10
39.9864
 20
22.9779
 11
39.947
 21
23.0018
  0
LINE
  8
0
 10
39.947
 20
23.0018
 11
39.8777
 21
23.0438
  0
LINE
  8
0
 10
39.8777
 20
23.0438
 11
39.8364
 21
23.0583
  0
LINE
  8
0
 10
39.8364
 20
23.0583
 11
39.7632
 21
23.084
  0
LINE
  8
0
 10
39.7632
 20
23.084
 11
39.6459
 21
23.0975
  0
LINE
  8
0
 10
39.6459
 20
23.0975
 11
36.5
 21
23.0975
  0
LINE
  8
0
 10
36.5
 20
23.0975
 11
36.5
 21
19.4634
  0
LINE
  8
0
 10
36.5
 20
30.4133
 11
39.6459
 21
30.4133
  0
LINE
  8
0
 10
39.6459
 20
30.4133
 11
39.7632
 21
30.4269
  0
LINE
  8
0
 10
39.7632
 20
30.4269
 11
39.7737
 21
30.4305
  0
LINE
  8
0
 10
39.7737
 20
30.4305
 11
39.8777
 21
30.467
  0
LINE
  8
0
 10
39.8777
 20
30.467
 11
39.8875
 21
30.473
  0
LINE
  8
0
 10
39.8875
 20
30.473
 11
39.9864
 21
30.5329
  0
LINE
  8
0
 10
39.9864
 20
30.5329
 11
40.0868
 21
30.6229
  0
LINE
  8
0
 10
40.0868
 20
30.6229
 11
40.1762
 21
30.7348
  0
LINE
  8
0
 10
40.1762
 20
30.7348
 11
40.1824
 21
30.7452
  0
LINE
  8
0
 10
40.1824
 20
30.7452
 11
40.2527
 21
30.8657
  0
LINE
  8
0
 10
40.2527
 20
30.8657
 11
40.2573
 21
30.8767
  0
LINE
  8
0
 10
40.2573
 20
30.8767
 11
40.3142
 21
31.0125
  0
LINE
  8
0
 10
40.3142
 20
31.0125
 11
40.3173
 21
31.0236
  0
LINE
  8
0
 10
40.3173
 20
31.0236
 11
40.3592
 21
31.1716
  0
LINE
  8
0
 10
40.3592
 20
31.1716
 11
40.361
 21
31.1823
  0
LINE
  8
0
 10
40.361
 20
31.1823
 11
40.3867
 21
31.339
  0
LINE
  8
0
 10
40.3867
 20
31.339
 11
40.3872
 21
31.349
  0
LINE
  8
0
 10
40.3872
 20
31.349
 11
40.3959
 21
31.5107
  0
LINE
  8
0
 10
40.3959
 20
31.5107
 11
40.3959
 21
40
  0
LINE
  8
0
 10
40.3959
 20
40
 11
41.8959
 21
41.5
  0
LINE
  8
0
 10
41.8959
 20
41.5
 11
47
 21
41.5
  0
LINE
  8
0
 10
47
 20
41.5
 11
47.5
 21
42
  0
LINE
  8
0
 10
47.5
 20
42
 11
47.5
 21
45.5
  0
LINE
  8
0
 10
47.5
 20
45.5
 11
36.5
 21
45.5
  0
LINE
  8
0
 10
36.5
 20
45.5
 11
36.5
 21
30.4133
  0
ENDSEC
  0
SECTION
  2
OBJECTS
  0
DICTIONARY
  0
ENDSEC
  0
EOF
