  0
SECTION
  2
BLOCKS
  0
ENDSEC
  0
SECTION
  2
ENTITIES
  0
LINE
  8
0
 10
0
 20
0
 11
11
 21
0
  0
LINE
  8
0
 10
11
 20
0
 11
11
 21
11.9339
  0
LINE
  8
0
 10
11
 20
11.9339
 11
7.85409
 21
11.9339
  0
LINE
  8
0
 10
7.85409
 20
11.9339
 11
7.73693
 21
11.9204
  0
LINE
  8
0
 10
7.73693
 20
11.9204
 11
7.73676
 21
11.9204
  0
LINE
  8
0
 10
7.73676
 20
11.9204
 11
7.68174
 21
11.9011
  0
LINE
  8
0
 10
7.68174
 20
11.9011
 11
7.62596
 21
11.8831
  0
LINE
  8
0
 10
7.62596
 20
11.8831
 11
7.62232
 21
11.8819
  0
LINE
  8
0
 10
7.62232
 20
11.8819
 11
7.5273
 21
11.829
  0
LINE
  8
0
 10
7.5273
 20
11.829
 11
7.51359
 21
11.8213
  0
LINE
  8
0
 10
7.51359
 20
11.8213
 11
7.43776
 21
11.7589
  0
LINE
  8
0
 10
7.43776
 20
11.7589
 11
7.41325
 21
11.7387
  0
LINE
  8
0
 10
7.41325
 20
11.7387
 11
7.35771
 21
11.6749
  0
LINE
  8
0
 10
7.35771
 20
11.6749
 11
7.32376
 21
11.6359
  0
LINE
  8
0
 10
7.32376
 20
11.6359
 11
7.28748
 21
11.5789
  0
LINE
  8
0
 10
7.28748
 20
11.5789
 11
7.24732
 21
11.5156
  0
LINE
  8
0
 10
7.24732
 20
11.5156
 11
7.22748
 21
11.4721
  0
LINE
  8
0
 10
7.22748
 20
11.4721
 11
7.18583
 21
11.3808
  0
LINE
  8
0
 10
7.18583
 20
11.3808
 11
7.17821
 21
11.356
  0
LINE
  8
0
 10
7.17821
 20
11.356
 11
7.14079
 21
11.2346
  0
LINE
  8
0
 10
7.14079
 20
11.2346
 11
7.14033
 21
11.232
  0
LINE
  8
0
 10
7.14033
 20
11.232
 11
7.13777
 21
11.2177
  0
LINE
  8
0
 10
7.13777
 20
11.2177
 11
7.1168
 21
11.1142
  0
LINE
  8
0
 10
7.1168
 20
11.1142
 11
7.11332
 21
11.0971
  0
LINE
  8
0
 10
7.11332
 20
11.0971
 11
7.10651
 21
10.9947
  0
LINE
  8
0
 10
7.10651
 20
10.9947
 11
7.10409
 21
10.9582
  0
LINE
  8
0
 10
7.10409
 20
10.9582
 11
7.10409
 21
5.5
  0
LINE
  8
0
 10
7.10409
 20
5.5
 11
5.60409
 21
4
  0
LINE
  8
0
 10
5.60409
 20
4
 11
0.499999
 21
4
  0
LINE
  8
0
 10
0.499999
 20
4
 11
0
 21
3.5
  0
LINE
  8
0
 10
0
 20
3.5
 11
0
 21
0
  0
LINE
  8
0
 10
0
 20
42
 11
0.499999
 21
41.5
  0
LINE
  8
0
 10
0.499999
 20
41.5
 11
5.60409
 21
41.5
  0
LINE
  8
0
 10
5.60409
 20
41.5
 11
7.10409
 21
40
  0
LINE
  8
0
 10
7.10409
 20
40
 11
7.10409
 21
31.2971
  0
LINE
  8
0
 10
7.10409
 20
31.2971
 11
7.10471
 21
31.2856
  0
LINE
  8
0
 10
7.10471
 20
31.2856
 11
7.11332
 21
31.1254
  0
LINE
  8
0
 10
7.11332
 20
31.1254
 11
7.11534
 21
31.1131
  0
LINE
  8
0
 10
7.11534
 20
31.1131
 11
7.14079
 21
30.958
  0
LINE
  8
0
 10
7.14079
 20
30.958
 11
7.14438
 21
30.9453
  0
LINE
  8
0
 10
7.14438
 20
30.9453
 11
7.18583
 21
30.7989
  0
LINE
  8
0
 10
7.18583
 20
30.7989
 11
7.19108
 21
30.7864
  0
LINE
  8
0
 10
7.19108
 20
30.7864
 11
7.24732
 21
30.6521
  0
LINE
  8
0
 10
7.24732
 20
30.6521
 11
7.25426
 21
30.6402
  0
LINE
  8
0
 10
7.25426
 20
30.6402
 11
7.32376
 21
30.5211
  0
LINE
  8
0
 10
7.32376
 20
30.5211
 11
7.41325
 21
30.4093
  0
LINE
  8
0
 10
7.41325
 20
30.4093
 11
7.51359
 21
30.3193
  0
LINE
  8
0
 10
7.51359
 20
30.3193
 11
7.52476
 21
30.3126
  0
LINE
  8
0
 10
7.52476
 20
30.3126
 11
7.62232
 21
30.2534
  0
LINE
  8
0
 10
7.62232
 20
30.2534
 11
7.63434
 21
30.2492
  0
LINE
  8
0
 10
7.63434
 20
30.2492
 11
7.73676
 21
30.2132
  0
LINE
  8
0
 10
7.73676
 20
30.2132
 11
7.85409
 21
30.1997
  0
LINE
  8
0
 10
7.85409
 20
30.1997
 11
11
 21
30.1997
  0
LINE
  8
0
 10
11
 20
30.1997
 11
11
 21
45.5
  0
LINE
  8
0
 10
11
 20
45.5
 11
0
 21
45.5
  0
LINE
  8
0
 10
0
 20
45.5
 11
0
 21
42
  0
LINE
  8
0
 10
7.10409
 20
20.3471
 11
7.10767
 21
20.2805
  0
LINE
  8
0
 10
7.10767
 20
20.2805
 11
7.11332
 21
20.1754
  0
LINE
  8
0
 10
7.11332
 20
20.1754
 11
7.12433
 21
20.1083
  0
LINE
  8
0
 10
7.12433
 20
20.1083
 11
7.14079
 21
20.008
  0
LINE
  8
0
 10
7.14079
 20
20.008
 11
7.15939
 21
19.9423
  0
LINE
  8
0
 10
7.15939
 20
19.9423
 11
7.18583
 21
19.8489
  0
LINE
  8
0
 10
7.18583
 20
19.8489
 11
7.21193
 21
19.7866
  0
LINE
  8
0
 10
7.21193
 20
19.7866
 11
7.24732
 21
19.7021
  0
LINE
  8
0
 10
7.24732
 20
19.7021
 11
7.28055
 21
19.6452
  0
LINE
  8
0
 10
7.28055
 20
19.6452
 11
7.32376
 21
19.5711
  0
LINE
  8
0
 10
7.32376
 20
19.5711
 11
7.36346
 21
19.5215
  0
LINE
  8
0
 10
7.36346
 20
19.5215
 11
7.41325
 21
19.4593
  0
LINE
  8
0
 10
7.41325
 20
19.4593
 11
7.45853
 21
19.4187
  0
LINE
  8
0
 10
7.45853
 20
19.4187
 11
7.51359
 21
19.3693
  0
LINE
  8
0
 10
7.51359
 20
19.3693
 11
7.56328
 21
19.3392
  0
LINE
  8
0
 10
7.56328
 20
19.3392
 11
7.62232
 21
19.3034
  0
LINE
  8
0
 10
7.62232
 20
19.3034
 11
7.67508
 21
19.2849
  0
LINE
  8
0
 10
7.67508
 20
19.2849
 11
7.73676
 21
19.2632
  0
LINE
  8
0
 10
7.73676
 20
19.2632
 11
7.85409
 21
19.2497
  0
LINE
  8
0
 10
7.85409
 20
19.2497
 11
11
 21
19.2497
  0
LINE
  8
0
 10
11
 20
19.2497
 11
11
 21
22.8839
  0
LINE
  8
0
 10
11
 20
22.8839
 11
7.85409
 21
22.8839
  0
LINE
  8
0
 10
7.85409
 20
22.8839
 11
7.73676
 21
22.8704
  0
LINE
  8
0
 10
7.73676
 20
22.8704
 11
7.69386
 21
22.8553
  0
LINE
  8
0
 10
7.69386
 20
22.8553
 11
7.62232
 21
22.8302
  0
LINE
  8
0
 10
7.62232
 20
22.8302
 11
7.58137
 21
22.8053
  0
LINE
  8
0
 10
7.58137
 20
22.8053
 11
7.51359
 21
22.7643
  0
LINE
  8
0
 10
7.51359
 20
22.7643
 11
7.47552
 21
22.7301
  0
LINE
  8
0
 10
7.47552
 20
22.7301
 11
7.41325
 21
22.6743
  0
LINE
  8
0
 10
7.41325
 20
22.6743
 11
7.37897
 21
22.6315
  0
LINE
  8
0
 10
7.37897
 20
22.6315
 11
7.32376
 21
22.5625
  0
LINE
  8
0
 10
7.32376
 20
22.5625
 11
7.29415
 21
22.5117
  0
LINE
  8
0
 10
7.29415
 20
22.5117
 11
7.24732
 21
22.4315
  0
LINE
  8
0
 10
7.24732
 20
22.4315
 11
7.22319
 21
22.3739
  0
LINE
  8
0
 10
7.22319
 20
22.3739
 11
7.18583
 21
22.2847
  0
LINE
  8
0
 10
7.18583
 20
22.2847
 11
7.16791
 21
22.2214
  0
LINE
  8
0
 10
7.16791
 20
22.2214
 11
7.14079
 21
22.1256
  0
LINE
  8
0
 10
7.14079
 20
22.1256
 11
7.1297
 21
22.058
  0
LINE
  8
0
 10
7.1297
 20
22.058
 11
7.11332
 21
21.9582
  0
LINE
  8
0
 10
7.11332
 20
21.9582
 11
7.10953
 21
21.8878
  0
LINE
  8
0
 10
7.10953
 20
21.8878
 11
7.10409
 21
21.7865
  0
LINE
  8
0
 10
7.10409
 20
21.7865
 11
7.10409
 21
20.3471
  0
LINE
  8
0
 10
36.5
 20
0
 11
47.5
 21
0
  0
LINE
  8
0
 10
47.5
 20
0
 11
47.5
 21
3.5
  0
LINE
  8
0
 10
47.5
 20
3.5
 11
47
 21
4
  0
LINE
  8
0
 10
47
 20
4
 11
41.8959
 21
4
  0
LINE
  8
0
 10
41.8959
 20
4
 11
40.3959
 21
5.5
  0
LINE
  8
0
 10
40.3959
 20
5.5
 11
40.3959
 21
10.9582
  0
LINE
  8
0
 10
40.3959
 20
10.9582
 11
40.3882
 21
11.0745
  0
LINE
  8
0
 10
40.3882
 20
11.0745
 11
40.3867
 21
11.0971
  0
LINE
  8
0
 10
40.3867
 20
11.0971
 11
40.3622
 21
11.2177
  0
LINE
  8
0
 10
40.3622
 20
11.2177
 11
40.3592
 21
11.2346
  0
LINE
  8
0
 10
40.3592
 20
11.2346
 11
40.358
 21
11.2385
  0
LINE
  8
0
 10
40.358
 20
11.2385
 11
40.3142
 21
11.3808
  0
LINE
  8
0
 10
40.3142
 20
11.3808
 11
40.2982
 21
11.4159
  0
LINE
  8
0
 10
40.2982
 20
11.4159
 11
40.2527
 21
11.5156
  0
LINE
  8
0
 10
40.2527
 20
11.5156
 11
40.2157
 21
11.5738
  0
LINE
  8
0
 10
40.2157
 20
11.5738
 11
40.1762
 21
11.6359
  0
LINE
  8
0
 10
40.1762
 20
11.6359
 11
40.1152
 21
11.706
  0
LINE
  8
0
 10
40.1152
 20
11.706
 11
40.0868
 21
11.7387
  0
LINE
  8
0
 10
40.0868
 20
11.7387
 11
40.002
 21
11.8085
  0
LINE
  8
0
 10
40.002
 20
11.8085
 11
39.9864
 21
11.8213
  0
LINE
  8
0
 10
39.9864
 20
11.8213
 11
39.8817
 21
11.8797
  0
LINE
  8
0
 10
39.8817
 20
11.8797
 11
39.8777
 21
11.8819
  0
LINE
  8
0
 10
39.8777
 20
11.8819
 11
39.8183
 21
11.9011
  0
LINE
  8
0
 10
39.8183
 20
11.9011
 11
39.7634
 21
11.9203
  0
LINE
  8
0
 10
39.7634
 20
11.9203
 11
39.7632
 21
11.9204
  0
LINE
  8
0
 10
39.7632
 20
11.9204
 11
39.6462
 21
11.9339
  0
LINE
  8
0
 10
39.6462
 20
11.9339
 11
39.6459
 21
11.9339
  0
LINE
  8
0
 10
39.6459
 20
11.9339
 11
36.5
 21
11.9339
  0
LINE
  8
0
 10
36.5
 20
11.9339
 11
36.5
 21
0
  0
LINE
  8
0
 10
36.5
 20
19.2497
 11
39.6459
 21
19.2497
  0
LINE
  8
0
 10
39.6459
 20
19.2497
 11
39.7632
 21
19.2632
  0
LINE
  8
0
 10
39.7632
 20
19.2632
 11
39.816
 21
19.2818
  0
LINE
  8
0
 10
39.816
 20
19.2818
 11
39.8777
 21
19.3034
  0
LINE
  8
0
 10
39.8777
 20
19.3034
 11
39.9274
 21
19.3336
  0
LINE
  8
0
 10
39.9274
 20
19.3336
 11
39.9864
 21
19.3693
  0
LINE
  8
0
 10
39.9864
 20
19.3693
 11
40.0317
 21
19.41
  0
LINE
  8
0
 10
40.0317
 20
19.41
 11
40.0868
 21
19.4593
  0
LINE
  8
0
 10
40.0868
 20
19.4593
 11
40.1265
 21
19.509
  0
LINE
  8
0
 10
40.1265
 20
19.509
 11
40.1762
 21
19.5711
  0
LINE
  8
0
 10
40.1762
 20
19.5711
 11
40.2096
 21
19.6282
  0
LINE
  8
0
 10
40.2096
 20
19.6282
 11
40.2527
 21
19.7021
  0
LINE
  8
0
 10
40.2527
 20
19.7021
 11
40.2789
 21
19.7646
  0
LINE
  8
0
 10
40.2789
 20
19.7646
 11
40.3142
 21
19.8489
  0
LINE
  8
0
 10
40.3142
 20
19.8489
 11
40.3329
 21
19.9149
  0
LINE
  8
0
 10
40.3329
 20
19.9149
 11
40.3592
 21
20.008
  0
LINE
  8
0
 10
40.3592
 20
20.008
 11
40.3703
 21
20.0755
  0
LINE
  8
0
 10
40.3703
 20
20.0755
 11
40.3867
 21
20.1754
  0
LINE
  8
0
 10
40.3867
 20
20.1754
 11
40.3903
 21
20.2426
  0
LINE
  8
0
 10
40.3903
 20
20.2426
 11
40.3959
 21
20.3471
  0
LINE
  8
0
 10
40.3959
 20
20.3471
 11
40.3959
 21
21.7865
  0
LINE
  8
0
 10
40.3959
 20
21.7865
 11
40.3921
 21
21.8571
  0
LINE
  8
0
 10
40.3921
 20
21.8571
 11
40.3867
 21
21.9582
  0
LINE
  8
0
 10
40.3867
 20
21.9582
 11
40.3755
 21
22.026
  0
LINE
  8
0
 10
40.3755
 20
22.026
 11
40.3592
 21
22.1256
  0
LINE
  8
0
 10
40.3592
 20
22.1256
 11
40.3412
 21
22.1891
  0
LINE
  8
0
 10
40.3412
 20
22.1891
 11
40.3142
 21
22.2847
  0
LINE
  8
0
 10
40.3142
 20
22.2847
 11
40.29
 21
22.3425
  0
LINE
  8
0
 10
40.29
 20
22.3425
 11
40.2527
 21
22.4315
  0
LINE
  8
0
 10
40.2527
 20
22.4315
 11
40.223
 21
22.4824
  0
LINE
  8
0
 10
40.223
 20
22.4824
 11
40.1762
 21
22.5625
  0
LINE
  8
0
 10
40.1762
 20
22.5625
 11
40.1419
 21
22.6054
  0
LINE
  8
0
 10
40.1419
 20
22.6054
 11
40.0868
 21
22.6743
  0
LINE
  8
0
 10
40.0868
 20
22.6743
 11
40.0486
 21
22.7085
  0
LINE
  8
0
 10
40.0486
 20
22.7085
 11
39.9864
 21
22.7643
  0
LINE
  8
0
 10
39.9864
 20
22.7643
 11
39.9454
 21
22.7891
  0
LINE
  8
0
 10
39.9454
 20
22.7891
 11
39.8777
 21
22.8302
  0
LINE
  8
0
 10
39.8777
 20
22.8302
 11
39.8347
 21
22.8453
  0
LINE
  8
0
 10
39.8347
 20
22.8453
 11
39.7632
 21
22.8704
  0
LINE
  8
0
 10
39.7632
 20
22.8704
 11
39.6459
 21
22.8839
  0
LINE
  8
0
 10
39.6459
 20
22.8839
 11
36.5
 21
22.8839
  0
LINE
  8
0
 10
36.5
 20
22.8839
 11
36.5
 21
19.2497
  0
LINE
  8
0
 10
36.5
 20
30.1997
 11
39.6459
 21
30.1997
  0
LINE
  8
0
 10
39.6459
 20
30.1997
 11
39.7632
 21
30.2132
  0
LINE
  8
0
 10
39.7632
 20
30.2132
 11
39.7754
 21
30.2175
  0
LINE
  8
0
 10
39.7754
 20
30.2175
 11
39.8777
 21
30.2534
  0
LINE
  8
0
 10
39.8777
 20
30.2534
 11
39.889
 21
30.2603
  0
LINE
  8
0
 10
39.889
 20
30.2603
 11
39.9864
 21
30.3193
  0
LINE
  8
0
 10
39.9864
 20
30.3193
 11
40.0868
 21
30.4093
  0
LINE
  8
0
 10
40.0868
 20
30.4093
 11
40.1762
 21
30.5211
  0
LINE
  8
0
 10
40.1762
 20
30.5211
 11
40.1835
 21
30.5335
  0
LINE
  8
0
 10
40.1835
 20
30.5335
 11
40.2527
 21
30.6521
  0
LINE
  8
0
 10
40.2527
 20
30.6521
 11
40.2582
 21
30.6653
  0
LINE
  8
0
 10
40.2582
 20
30.6653
 11
40.3142
 21
30.7989
  0
LINE
  8
0
 10
40.3142
 20
30.7989
 11
40.318
 21
30.8123
  0
LINE
  8
0
 10
40.318
 20
30.8123
 11
40.3592
 21
30.958
  0
LINE
  8
0
 10
40.3592
 20
30.958
 11
40.3614
 21
30.9712
  0
LINE
  8
0
 10
40.3614
 20
30.9712
 11
40.3867
 21
31.1254
  0
LINE
  8
0
 10
40.3867
 20
31.1254
 11
40.3873
 21
31.1379
  0
LINE
  8
0
 10
40.3873
 20
31.1379
 11
40.3959
 21
31.2971
  0
LINE
  8
0
 10
40.3959
 20
31.2971
 11
40.3959
 21
40
  0
LINE
  8
0
 10
40.3959
 20
40
 11
41.8959
 21
41.5
  0
LINE
  8
0
 10
41.8959
 20
41.5
 11
47
 21
41.5
  0
LINE
  8
0
 10
47
 20
41.5
 11
47.5
 21
42
  0
LINE
  8
0
 10
47.5
 20
42
 11
47.5
 21
45.5
  0
LINE
  8
0
 10
47.5
 20
45.5
 11
36.5
 21
45.5
  0
LINE
  8
0
 10
36.5
 20
45.5
 11
36.5
 21
30.1997
  0
ENDSEC
  0
SECTION
  2
OBJECTS
  0
DICTIONARY
  0
ENDSEC
  0
EOF
