  0
SECTION
  2
BLOCKS
  0
ENDSEC
  0
SECTION
  2
ENTITIES
  0
LINE
  8
0
 10
0
 20
0
 11
11
 21
0
  0
LINE
  8
0
 10
11
 20
0
 11
11
 21
11.7502
  0
LINE
  8
0
 10
11
 20
11.7502
 11
7.85409
 21
11.7502
  0
LINE
  8
0
 10
7.85409
 20
11.7502
 11
7.80815
 21
11.7453
  0
LINE
  8
0
 10
7.80815
 20
11.7453
 11
7.73676
 21
11.7378
  0
LINE
  8
0
 10
7.73676
 20
11.7378
 11
7.69589
 21
11.7246
  0
LINE
  8
0
 10
7.69589
 20
11.7246
 11
7.62232
 21
11.7009
  0
LINE
  8
0
 10
7.62232
 20
11.7009
 11
7.59061
 21
11.6832
  0
LINE
  8
0
 10
7.59061
 20
11.6832
 11
7.51359
 21
11.6403
  0
LINE
  8
0
 10
7.51359
 20
11.6403
 11
7.49335
 21
11.6236
  0
LINE
  8
0
 10
7.49335
 20
11.6236
 11
7.41325
 21
11.5577
  0
LINE
  8
0
 10
7.41325
 20
11.5577
 11
7.40488
 21
11.548
  0
LINE
  8
0
 10
7.40488
 20
11.548
 11
7.34487
 21
11.4792
  0
LINE
  8
0
 10
7.34487
 20
11.4792
 11
7.32613
 21
11.4602
  0
LINE
  8
0
 10
7.32613
 20
11.4602
 11
7.32376
 21
11.4578
  0
LINE
  8
0
 10
7.32376
 20
11.4578
 11
7.25887
 21
11.3679
  0
LINE
  8
0
 10
7.25887
 20
11.3679
 11
7.24732
 21
11.3519
  0
LINE
  8
0
 10
7.24732
 20
11.3519
 11
7.20303
 21
11.2663
  0
LINE
  8
0
 10
7.20303
 20
11.2663
 11
7.18583
 21
11.233
  0
LINE
  8
0
 10
7.18583
 20
11.233
 11
7.15921
 21
11.1569
  0
LINE
  8
0
 10
7.15921
 20
11.1569
 11
7.14079
 21
11.1043
  0
LINE
  8
0
 10
7.14079
 20
11.1043
 11
7.12803
 21
11.0414
  0
LINE
  8
0
 10
7.12803
 20
11.0414
 11
7.11332
 21
10.9688
  0
LINE
  8
0
 10
7.11332
 20
10.9688
 11
7.11016
 21
10.9212
  0
LINE
  8
0
 10
7.11016
 20
10.9212
 11
7.10409
 21
10.8299
  0
LINE
  8
0
 10
7.10409
 20
10.8299
 11
7.10409
 21
5.5
  0
LINE
  8
0
 10
7.10409
 20
5.5
 11
5.60409
 21
4
  0
LINE
  8
0
 10
5.60409
 20
4
 11
0.499999
 21
4
  0
LINE
  8
0
 10
0.499999
 20
4
 11
0
 21
3.5
  0
LINE
  8
0
 10
0
 20
3.5
 11
0
 21
0
  0
LINE
  8
0
 10
0
 20
42
 11
0.499999
 21
41.5
  0
LINE
  8
0
 10
0.499999
 20
41.5
 11
5.60409
 21
41.5
  0
LINE
  8
0
 10
5.60409
 20
41.5
 11
7.10409
 21
40
  0
LINE
  8
0
 10
7.10409
 20
40
 11
7.10409
 21
31.0835
  0
LINE
  8
0
 10
7.10409
 20
31.0835
 11
7.10484
 21
31.0694
  0
LINE
  8
0
 10
7.10484
 20
31.0694
 11
7.11332
 21
30.9118
  0
LINE
  8
0
 10
7.11332
 20
30.9118
 11
7.11574
 21
30.897
  0
LINE
  8
0
 10
7.11574
 20
30.897
 11
7.14079
 21
30.7444
  0
LINE
  8
0
 10
7.14079
 20
30.7444
 11
7.14504
 21
30.7294
  0
LINE
  8
0
 10
7.14504
 20
30.7294
 11
7.18583
 21
30.5853
  0
LINE
  8
0
 10
7.18583
 20
30.5853
 11
7.19198
 21
30.5706
  0
LINE
  8
0
 10
7.19198
 20
30.5706
 11
7.24732
 21
30.4385
  0
LINE
  8
0
 10
7.24732
 20
30.4385
 11
7.25538
 21
30.4246
  0
LINE
  8
0
 10
7.25538
 20
30.4246
 11
7.32376
 21
30.3075
  0
LINE
  8
0
 10
7.32376
 20
30.3075
 11
7.41325
 21
30.1957
  0
LINE
  8
0
 10
7.41325
 20
30.1957
 11
7.51359
 21
30.1057
  0
LINE
  8
0
 10
7.51359
 20
30.1057
 11
7.52635
 21
30.098
  0
LINE
  8
0
 10
7.52635
 20
30.098
 11
7.62232
 21
30.0398
  0
LINE
  8
0
 10
7.62232
 20
30.0398
 11
7.63601
 21
30.035
  0
LINE
  8
0
 10
7.63601
 20
30.035
 11
7.73676
 21
29.9996
  0
LINE
  8
0
 10
7.73676
 20
29.9996
 11
7.85409
 21
29.9861
  0
LINE
  8
0
 10
7.85409
 20
29.9861
 11
11
 21
29.9861
  0
LINE
  8
0
 10
11
 20
29.9861
 11
11
 21
45.5
  0
LINE
  8
0
 10
11
 20
45.5
 11
0
 21
45.5
  0
LINE
  8
0
 10
0
 20
45.5
 11
0
 21
42
  0
LINE
  8
0
 10
7.10409
 20
20.1335
 11
7.10795
 21
20.0617
  0
LINE
  8
0
 10
7.10795
 20
20.0617
 11
7.11332
 21
19.9618
  0
LINE
  8
0
 10
7.11332
 20
19.9618
 11
7.12515
 21
19.8897
  0
LINE
  8
0
 10
7.12515
 20
19.8897
 11
7.14079
 21
19.7944
  0
LINE
  8
0
 10
7.14079
 20
19.7944
 11
7.16073
 21
19.724
  0
LINE
  8
0
 10
7.16073
 20
19.724
 11
7.18583
 21
19.6353
  0
LINE
  8
0
 10
7.18583
 20
19.6353
 11
7.21375
 21
19.5686
  0
LINE
  8
0
 10
7.21375
 20
19.5686
 11
7.24732
 21
19.4885
  0
LINE
  8
0
 10
7.24732
 20
19.4885
 11
7.28281
 21
19.4277
  0
LINE
  8
0
 10
7.28281
 20
19.4277
 11
7.32376
 21
19.3575
  0
LINE
  8
0
 10
7.32376
 20
19.3575
 11
7.36611
 21
19.3046
  0
LINE
  8
0
 10
7.36611
 20
19.3046
 11
7.41325
 21
19.2457
  0
LINE
  8
0
 10
7.41325
 20
19.2457
 11
7.46148
 21
19.2024
  0
LINE
  8
0
 10
7.46148
 20
19.2024
 11
7.51359
 21
19.1557
  0
LINE
  8
0
 10
7.51359
 20
19.1557
 11
7.56648
 21
19.1237
  0
LINE
  8
0
 10
7.56648
 20
19.1237
 11
7.62232
 21
19.0898
  0
LINE
  8
0
 10
7.62232
 20
19.0898
 11
7.67844
 21
19.0701
  0
LINE
  8
0
 10
7.67844
 20
19.0701
 11
7.73676
 21
19.0496
  0
LINE
  8
0
 10
7.73676
 20
19.0496
 11
7.85409
 21
19.0361
  0
LINE
  8
0
 10
7.85409
 20
19.0361
 11
11
 21
19.0361
  0
LINE
  8
0
 10
11
 20
19.0361
 11
11
 21
22.6703
  0
LINE
  8
0
 10
11
 20
22.6703
 11
7.85409
 21
22.6703
  0
LINE
  8
0
 10
7.85409
 20
22.6703
 11
7.73676
 21
22.6567
  0
LINE
  8
0
 10
7.73676
 20
22.6567
 11
7.69219
 21
22.6411
  0
LINE
  8
0
 10
7.69219
 20
22.6411
 11
7.62232
 21
22.6165
  0
LINE
  8
0
 10
7.62232
 20
22.6165
 11
7.57977
 21
22.5908
  0
LINE
  8
0
 10
7.57977
 20
22.5908
 11
7.51359
 21
22.5506
  0
LINE
  8
0
 10
7.51359
 20
22.5506
 11
7.47405
 21
22.5152
  0
LINE
  8
0
 10
7.47405
 20
22.5152
 11
7.41325
 21
22.4607
  0
LINE
  8
0
 10
7.41325
 20
22.4607
 11
7.37766
 21
22.4162
  0
LINE
  8
0
 10
7.37766
 20
22.4162
 11
7.32376
 21
22.3488
  0
LINE
  8
0
 10
7.32376
 20
22.3488
 11
7.29302
 21
22.2962
  0
LINE
  8
0
 10
7.29302
 20
22.2962
 11
7.24732
 21
22.2179
  0
LINE
  8
0
 10
7.24732
 20
22.2179
 11
7.22229
 21
22.1581
  0
LINE
  8
0
 10
7.22229
 20
22.1581
 11
7.18583
 21
22.0711
  0
LINE
  8
0
 10
7.18583
 20
22.0711
 11
7.16724
 21
22.0054
  0
LINE
  8
0
 10
7.16724
 20
22.0054
 11
7.14079
 21
21.912
  0
LINE
  8
0
 10
7.14079
 20
21.912
 11
7.12929
 21
21.8419
  0
LINE
  8
0
 10
7.12929
 20
21.8419
 11
7.11332
 21
21.7445
  0
LINE
  8
0
 10
7.11332
 20
21.7445
 11
7.1094
 21
21.6716
  0
LINE
  8
0
 10
7.1094
 20
21.6716
 11
7.10409
 21
21.5729
  0
LINE
  8
0
 10
7.10409
 20
21.5729
 11
7.10409
 21
20.1335
  0
LINE
  8
0
 10
36.5
 20
0
 11
47.5
 21
0
  0
LINE
  8
0
 10
47.5
 20
0
 11
47.5
 21
3.5
  0
LINE
  8
0
 10
47.5
 20
3.5
 11
47
 21
4
  0
LINE
  8
0
 10
47
 20
4
 11
41.8959
 21
4
  0
LINE
  8
0
 10
41.8959
 20
4
 11
40.3959
 21
5.5
  0
LINE
  8
0
 10
40.3959
 20
5.5
 11
40.3959
 21
10.8299
  0
LINE
  8
0
 10
40.3959
 20
10.8299
 11
40.393
 21
10.8732
  0
LINE
  8
0
 10
40.393
 20
10.8732
 11
40.3867
 21
10.9688
  0
LINE
  8
0
 10
40.3867
 20
10.9688
 11
40.3736
 21
11.0331
  0
LINE
  8
0
 10
40.3736
 20
11.0331
 11
40.3592
 21
11.1043
  0
LINE
  8
0
 10
40.3592
 20
11.1043
 11
40.3303
 21
11.1871
  0
LINE
  8
0
 10
40.3303
 20
11.1871
 11
40.3142
 21
11.233
  0
LINE
  8
0
 10
40.3142
 20
11.233
 11
40.2644
 21
11.3293
  0
LINE
  8
0
 10
40.2644
 20
11.3293
 11
40.2527
 21
11.3519
  0
LINE
  8
0
 10
40.2527
 20
11.3519
 11
40.1787
 21
11.4544
  0
LINE
  8
0
 10
40.1787
 20
11.4544
 11
40.1762
 21
11.4578
  0
LINE
  8
0
 10
40.1762
 20
11.4578
 11
40.1551
 21
11.4792
  0
LINE
  8
0
 10
40.1551
 20
11.4792
 11
40.0868
 21
11.5577
  0
LINE
  8
0
 10
40.0868
 20
11.5577
 11
40.074
 21
11.5682
  0
LINE
  8
0
 10
40.074
 20
11.5682
 11
39.9864
 21
11.6403
  0
LINE
  8
0
 10
39.9864
 20
11.6403
 11
39.9584
 21
11.6559
  0
LINE
  8
0
 10
39.9584
 20
11.6559
 11
39.8777
 21
11.7009
  0
LINE
  8
0
 10
39.8777
 20
11.7009
 11
39.8382
 21
11.7136
  0
LINE
  8
0
 10
39.8382
 20
11.7136
 11
39.7632
 21
11.7378
  0
LINE
  8
0
 10
39.7632
 20
11.7378
 11
39.7176
 21
11.7426
  0
LINE
  8
0
 10
39.7176
 20
11.7426
 11
39.6459
 21
11.7502
  0
LINE
  8
0
 10
39.6459
 20
11.7502
 11
36.5
 21
11.7502
  0
LINE
  8
0
 10
36.5
 20
11.7502
 11
36.5
 21
0
  0
LINE
  8
0
 10
36.5
 20
19.0361
 11
39.6459
 21
19.0361
  0
LINE
  8
0
 10
39.6459
 20
19.0361
 11
39.7632
 21
19.0496
  0
LINE
  8
0
 10
39.7632
 20
19.0496
 11
39.8194
 21
19.0693
  0
LINE
  8
0
 10
39.8194
 20
19.0693
 11
39.8777
 21
19.0898
  0
LINE
  8
0
 10
39.8777
 20
19.0898
 11
39.9306
 21
19.1219
  0
LINE
  8
0
 10
39.9306
 20
19.1219
 11
39.9864
 21
19.1557
  0
LINE
  8
0
 10
39.9864
 20
19.1557
 11
40.0347
 21
19.199
  0
LINE
  8
0
 10
40.0347
 20
19.199
 11
40.0868
 21
19.2457
  0
LINE
  8
0
 10
40.0868
 20
19.2457
 11
40.1291
 21
19.2987
  0
LINE
  8
0
 10
40.1291
 20
19.2987
 11
40.1762
 21
19.3575
  0
LINE
  8
0
 10
40.1762
 20
19.3575
 11
40.2118
 21
19.4184
  0
LINE
  8
0
 10
40.2118
 20
19.4184
 11
40.2527
 21
19.4885
  0
LINE
  8
0
 10
40.2527
 20
19.4885
 11
40.2806
 21
19.5553
  0
LINE
  8
0
 10
40.2806
 20
19.5553
 11
40.3142
 21
19.6353
  0
LINE
  8
0
 10
40.3142
 20
19.6353
 11
40.3342
 21
19.7059
  0
LINE
  8
0
 10
40.3342
 20
19.7059
 11
40.3592
 21
19.7944
  0
LINE
  8
0
 10
40.3592
 20
19.7944
 11
40.3711
 21
19.8667
  0
LINE
  8
0
 10
40.3711
 20
19.8667
 11
40.3867
 21
19.9618
  0
LINE
  8
0
 10
40.3867
 20
19.9618
 11
40.3906
 21
20.0339
  0
LINE
  8
0
 10
40.3906
 20
20.0339
 11
40.3959
 21
20.1335
  0
LINE
  8
0
 10
40.3959
 20
20.1335
 11
40.3959
 21
21.5729
  0
LINE
  8
0
 10
40.3959
 20
21.5729
 11
40.392
 21
21.646
  0
LINE
  8
0
 10
40.392
 20
21.646
 11
40.3867
 21
21.7445
  0
LINE
  8
0
 10
40.3867
 20
21.7445
 11
40.3751
 21
21.8148
  0
LINE
  8
0
 10
40.3751
 20
21.8148
 11
40.3592
 21
21.912
  0
LINE
  8
0
 10
40.3592
 20
21.912
 11
40.3406
 21
21.9778
  0
LINE
  8
0
 10
40.3406
 20
21.9778
 11
40.3142
 21
22.0711
  0
LINE
  8
0
 10
40.3142
 20
22.0711
 11
40.2891
 21
22.131
  0
LINE
  8
0
 10
40.2891
 20
22.131
 11
40.2527
 21
22.2179
  0
LINE
  8
0
 10
40.2527
 20
22.2179
 11
40.2219
 21
22.2707
  0
LINE
  8
0
 10
40.2219
 20
22.2707
 11
40.1762
 21
22.3488
  0
LINE
  8
0
 10
40.1762
 20
22.3488
 11
40.1406
 21
22.3934
  0
LINE
  8
0
 10
40.1406
 20
22.3934
 11
40.0868
 21
22.4607
  0
LINE
  8
0
 10
40.0868
 20
22.4607
 11
40.0471
 21
22.4962
  0
LINE
  8
0
 10
40.0471
 20
22.4962
 11
39.9864
 21
22.5506
  0
LINE
  8
0
 10
39.9864
 20
22.5506
 11
39.9438
 21
22.5765
  0
LINE
  8
0
 10
39.9438
 20
22.5765
 11
39.8777
 21
22.6165
  0
LINE
  8
0
 10
39.8777
 20
22.6165
 11
39.8331
 21
22.6322
  0
LINE
  8
0
 10
39.8331
 20
22.6322
 11
39.7632
 21
22.6567
  0
LINE
  8
0
 10
39.7632
 20
22.6567
 11
39.6459
 21
22.6703
  0
LINE
  8
0
 10
39.6459
 20
22.6703
 11
36.5
 21
22.6703
  0
LINE
  8
0
 10
36.5
 20
22.6703
 11
36.5
 21
19.0361
  0
LINE
  8
0
 10
36.5
 20
29.9861
 11
39.6459
 21
29.9861
  0
LINE
  8
0
 10
39.6459
 20
29.9861
 11
39.7632
 21
29.9996
  0
LINE
  8
0
 10
39.7632
 20
29.9996
 11
39.7771
 21
30.0045
  0
LINE
  8
0
 10
39.7771
 20
30.0045
 11
39.8777
 21
30.0398
  0
LINE
  8
0
 10
39.8777
 20
30.0398
 11
39.8906
 21
30.0477
  0
LINE
  8
0
 10
39.8906
 20
30.0477
 11
39.9864
 21
30.1057
  0
LINE
  8
0
 10
39.9864
 20
30.1057
 11
40.0868
 21
30.1957
  0
LINE
  8
0
 10
40.0868
 20
30.1957
 11
40.1762
 21
30.3075
  0
LINE
  8
0
 10
40.1762
 20
30.3075
 11
40.1846
 21
30.3218
  0
LINE
  8
0
 10
40.1846
 20
30.3218
 11
40.2527
 21
30.4385
  0
LINE
  8
0
 10
40.2527
 20
30.4385
 11
40.2591
 21
30.4538
  0
LINE
  8
0
 10
40.2591
 20
30.4538
 11
40.3142
 21
30.5853
  0
LINE
  8
0
 10
40.3142
 20
30.5853
 11
40.3186
 21
30.601
  0
LINE
  8
0
 10
40.3186
 20
30.601
 11
40.3592
 21
30.7444
  0
LINE
  8
0
 10
40.3592
 20
30.7444
 11
40.3618
 21
30.76
  0
LINE
  8
0
 10
40.3618
 20
30.76
 11
40.3867
 21
30.9118
  0
LINE
  8
0
 10
40.3867
 20
30.9118
 11
40.3875
 21
30.9268
  0
LINE
  8
0
 10
40.3875
 20
30.9268
 11
40.3959
 21
31.0835
  0
LINE
  8
0
 10
40.3959
 20
31.0835
 11
40.3959
 21
40
  0
LINE
  8
0
 10
40.3959
 20
40
 11
41.8959
 21
41.5
  0
LINE
  8
0
 10
41.8959
 20
41.5
 11
47
 21
41.5
  0
LINE
  8
0
 10
47
 20
41.5
 11
47.5
 21
42
  0
LINE
  8
0
 10
47.5
 20
42
 11
47.5
 21
45.5
  0
LINE
  8
0
 10
47.5
 20
45.5
 11
36.5
 21
45.5
  0
LINE
  8
0
 10
36.5
 20
45.5
 11
36.5
 21
29.9861
  0
ENDSEC
  0
SECTION
  2
OBJECTS
  0
DICTIONARY
  0
ENDSEC
  0
EOF
