  0
SECTION
  2
BLOCKS
  0
ENDSEC
  0
SECTION
  2
ENTITIES
  0
LINE
  8
0
 10
0
 20
0
 11
11
 21
0
  0
LINE
  8
0
 10
11
 20
0
 11
11
 21
11.5896
  0
LINE
  8
0
 10
11
 20
11.5896
 11
7.85409
 21
11.5896
  0
LINE
  8
0
 10
7.85409
 20
11.5896
 11
7.76437
 21
11.5812
  0
LINE
  8
0
 10
7.76437
 20
11.5812
 11
7.73676
 21
11.5787
  0
LINE
  8
0
 10
7.73676
 20
11.5787
 11
7.65357
 21
11.555
  0
LINE
  8
0
 10
7.65357
 20
11.555
 11
7.62232
 21
11.5461
  0
LINE
  8
0
 10
7.62232
 20
11.5461
 11
7.54998
 21
11.5107
  0
LINE
  8
0
 10
7.54998
 20
11.5107
 11
7.51359
 21
11.4928
  0
LINE
  8
0
 10
7.51359
 20
11.4928
 11
7.45491
 21
11.4502
  0
LINE
  8
0
 10
7.45491
 20
11.4502
 11
7.41325
 21
11.42
  0
LINE
  8
0
 10
7.41325
 20
11.42
 11
7.36937
 21
11.3756
  0
LINE
  8
0
 10
7.36937
 20
11.3756
 11
7.32376
 21
11.3295
  0
LINE
  8
0
 10
7.32376
 20
11.3295
 11
7.29422
 21
11.2886
  0
LINE
  8
0
 10
7.29422
 20
11.2886
 11
7.24732
 21
11.2236
  0
LINE
  8
0
 10
7.24732
 20
11.2236
 11
7.23027
 21
11.1906
  0
LINE
  8
0
 10
7.23027
 20
11.1906
 11
7.18583
 21
11.1048
  0
LINE
  8
0
 10
7.18583
 20
11.1048
 11
7.17835
 21
11.0834
  0
LINE
  8
0
 10
7.17835
 20
11.0834
 11
7.14079
 21
10.976
  0
LINE
  8
0
 10
7.14079
 20
10.976
 11
7.13926
 21
10.9685
  0
LINE
  8
0
 10
7.13926
 20
10.9685
 11
7.12683
 21
10.9072
  0
LINE
  8
0
 10
7.12683
 20
10.9072
 11
7.11474
 21
10.8525
  0
LINE
  8
0
 10
7.11474
 20
10.8525
 11
7.11332
 21
10.8462
  0
LINE
  8
0
 10
7.11332
 20
10.8462
 11
7.1055
 21
10.7384
  0
LINE
  8
0
 10
7.1055
 20
10.7384
 11
7.10409
 21
10.7189
  0
LINE
  8
0
 10
7.10409
 20
10.7189
 11
7.10409
 21
5.5
  0
LINE
  8
0
 10
7.10409
 20
5.5
 11
5.60409
 21
4
  0
LINE
  8
0
 10
5.60409
 20
4
 11
0.499999
 21
4
  0
LINE
  8
0
 10
0.499999
 20
4
 11
0
 21
3.5
  0
LINE
  8
0
 10
0
 20
3.5
 11
0
 21
0
  0
LINE
  8
0
 10
0
 20
42
 11
0.499999
 21
41.5
  0
LINE
  8
0
 10
0.499999
 20
41.5
 11
5.60409
 21
41.5
  0
LINE
  8
0
 10
5.60409
 20
41.5
 11
7.10409
 21
40
  0
LINE
  8
0
 10
7.10409
 20
40
 11
7.10409
 21
30.8698
  0
LINE
  8
0
 10
7.10409
 20
30.8698
 11
7.10498
 21
30.8533
  0
LINE
  8
0
 10
7.10498
 20
30.8533
 11
7.11332
 21
30.6982
  0
LINE
  8
0
 10
7.11332
 20
30.6982
 11
7.11615
 21
30.681
  0
LINE
  8
0
 10
7.11615
 20
30.681
 11
7.14079
 21
30.5307
  0
LINE
  8
0
 10
7.14079
 20
30.5307
 11
7.1457
 21
30.5134
  0
LINE
  8
0
 10
7.1457
 20
30.5134
 11
7.18583
 21
30.3717
  0
LINE
  8
0
 10
7.18583
 20
30.3717
 11
7.19289
 21
30.3548
  0
LINE
  8
0
 10
7.19289
 20
30.3548
 11
7.24732
 21
30.2248
  0
LINE
  8
0
 10
7.24732
 20
30.2248
 11
7.2565
 21
30.2091
  0
LINE
  8
0
 10
7.2565
 20
30.2091
 11
7.32376
 21
30.0939
  0
LINE
  8
0
 10
7.32376
 20
30.0939
 11
7.41325
 21
29.9821
  0
LINE
  8
0
 10
7.41325
 20
29.9821
 11
7.51359
 21
29.8921
  0
LINE
  8
0
 10
7.51359
 20
29.8921
 11
7.52794
 21
29.8834
  0
LINE
  8
0
 10
7.52794
 20
29.8834
 11
7.62232
 21
29.8262
  0
LINE
  8
0
 10
7.62232
 20
29.8262
 11
7.63769
 21
29.8208
  0
LINE
  8
0
 10
7.63769
 20
29.8208
 11
7.73676
 21
29.786
  0
LINE
  8
0
 10
7.73676
 20
29.786
 11
7.85409
 21
29.7725
  0
LINE
  8
0
 10
7.85409
 20
29.7725
 11
11
 21
29.7725
  0
LINE
  8
0
 10
11
 20
29.7725
 11
11
 21
45.5
  0
LINE
  8
0
 10
11
 20
45.5
 11
0
 21
45.5
  0
LINE
  8
0
 10
0
 20
45.5
 11
0
 21
42
  0
LINE
  8
0
 10
7.10409
 20
19.9199
 11
7.10822
 21
19.843
  0
LINE
  8
0
 10
7.10822
 20
19.843
 11
7.11332
 21
19.7482
  0
LINE
  8
0
 10
7.11332
 20
19.7482
 11
7.12596
 21
19.6712
  0
LINE
  8
0
 10
7.12596
 20
19.6712
 11
7.14079
 21
19.5808
  0
LINE
  8
0
 10
7.14079
 20
19.5808
 11
7.16206
 21
19.5056
  0
LINE
  8
0
 10
7.16206
 20
19.5056
 11
7.18583
 21
19.4217
  0
LINE
  8
0
 10
7.18583
 20
19.4217
 11
7.21556
 21
19.3507
  0
LINE
  8
0
 10
7.21556
 20
19.3507
 11
7.24732
 21
19.2748
  0
LINE
  8
0
 10
7.24732
 20
19.2748
 11
7.28506
 21
19.2102
  0
LINE
  8
0
 10
7.28506
 20
19.2102
 11
7.32376
 21
19.1439
  0
LINE
  8
0
 10
7.32376
 20
19.1439
 11
7.36875
 21
19.0877
  0
LINE
  8
0
 10
7.36875
 20
19.0877
 11
7.41325
 21
19.0321
  0
LINE
  8
0
 10
7.41325
 20
19.0321
 11
7.46444
 21
18.9862
  0
LINE
  8
0
 10
7.46444
 20
18.9862
 11
7.51359
 21
18.9421
  0
LINE
  8
0
 10
7.51359
 20
18.9421
 11
7.56968
 21
18.9081
  0
LINE
  8
0
 10
7.56968
 20
18.9081
 11
7.62232
 21
18.8762
  0
LINE
  8
0
 10
7.62232
 20
18.8762
 11
7.68179
 21
18.8553
  0
LINE
  8
0
 10
7.68179
 20
18.8553
 11
7.73676
 21
18.836
  0
LINE
  8
0
 10
7.73676
 20
18.836
 11
7.85409
 21
18.8225
  0
LINE
  8
0
 10
7.85409
 20
18.8225
 11
11
 21
18.8225
  0
LINE
  8
0
 10
11
 20
18.8225
 11
11
 21
22.4566
  0
LINE
  8
0
 10
11
 20
22.4566
 11
7.85409
 21
22.4566
  0
LINE
  8
0
 10
7.85409
 20
22.4566
 11
7.73676
 21
22.4431
  0
LINE
  8
0
 10
7.73676
 20
22.4431
 11
7.69051
 21
22.4269
  0
LINE
  8
0
 10
7.69051
 20
22.4269
 11
7.62232
 21
22.4029
  0
LINE
  8
0
 10
7.62232
 20
22.4029
 11
7.57818
 21
22.3762
  0
LINE
  8
0
 10
7.57818
 20
22.3762
 11
7.51359
 21
22.337
  0
LINE
  8
0
 10
7.51359
 20
22.337
 11
7.47258
 21
22.3002
  0
LINE
  8
0
 10
7.47258
 20
22.3002
 11
7.41325
 21
22.247
  0
LINE
  8
0
 10
7.41325
 20
22.247
 11
7.37634
 21
22.2009
  0
LINE
  8
0
 10
7.37634
 20
22.2009
 11
7.32376
 21
22.1352
  0
LINE
  8
0
 10
7.32376
 20
22.1352
 11
7.2919
 21
22.0806
  0
LINE
  8
0
 10
7.2919
 20
22.0806
 11
7.24732
 21
22.0043
  0
LINE
  8
0
 10
7.24732
 20
22.0043
 11
7.22138
 21
21.9423
  0
LINE
  8
0
 10
7.22138
 20
21.9423
 11
7.18583
 21
21.8575
  0
LINE
  8
0
 10
7.18583
 20
21.8575
 11
7.16658
 21
21.7895
  0
LINE
  8
0
 10
7.16658
 20
21.7895
 11
7.14079
 21
21.6984
  0
LINE
  8
0
 10
7.14079
 20
21.6984
 11
7.12889
 21
21.6258
  0
LINE
  8
0
 10
7.12889
 20
21.6258
 11
7.11332
 21
21.5309
  0
LINE
  8
0
 10
7.11332
 20
21.5309
 11
7.10926
 21
21.4555
  0
LINE
  8
0
 10
7.10926
 20
21.4555
 11
7.10409
 21
21.3593
  0
LINE
  8
0
 10
7.10409
 20
21.3593
 11
7.10409
 21
19.9199
  0
LINE
  8
0
 10
36.5
 20
0
 11
47.5
 21
0
  0
LINE
  8
0
 10
47.5
 20
0
 11
47.5
 21
3.5
  0
LINE
  8
0
 10
47.5
 20
3.5
 11
47
 21
4
  0
LINE
  8
0
 10
47
 20
4
 11
41.8959
 21
4
  0
LINE
  8
0
 10
41.8959
 20
4
 11
40.3959
 21
5.5
  0
LINE
  8
0
 10
40.3959
 20
5.5
 11
40.3959
 21
10.7189
  0
LINE
  8
0
 10
40.3959
 20
10.7189
 11
40.3872
 21
10.8385
  0
LINE
  8
0
 10
40.3872
 20
10.8385
 11
40.3867
 21
10.8462
  0
LINE
  8
0
 10
40.3867
 20
10.8462
 11
40.3732
 21
10.9072
  0
LINE
  8
0
 10
40.3732
 20
10.9072
 11
40.3592
 21
10.976
  0
LINE
  8
0
 10
40.3592
 20
10.976
 11
40.3557
 21
10.986
  0
LINE
  8
0
 10
40.3557
 20
10.986
 11
40.3142
 21
11.1048
  0
LINE
  8
0
 10
40.3142
 20
11.1048
 11
40.3002
 21
11.1318
  0
LINE
  8
0
 10
40.3002
 20
11.1318
 11
40.2527
 21
11.2236
  0
LINE
  8
0
 10
40.2527
 20
11.2236
 11
40.2242
 21
11.263
  0
LINE
  8
0
 10
40.2242
 20
11.263
 11
40.1762
 21
11.3295
  0
LINE
  8
0
 10
40.1762
 20
11.3295
 11
40.1311
 21
11.3751
  0
LINE
  8
0
 10
40.1311
 20
11.3751
 11
40.0868
 21
11.42
  0
LINE
  8
0
 10
40.0868
 20
11.42
 11
40.0251
 21
11.4648
  0
LINE
  8
0
 10
40.0251
 20
11.4648
 11
39.9864
 21
11.4928
  0
LINE
  8
0
 10
39.9864
 20
11.4928
 11
39.9104
 21
11.5301
  0
LINE
  8
0
 10
39.9104
 20
11.5301
 11
39.8777
 21
11.5461
  0
LINE
  8
0
 10
39.8777
 20
11.5461
 11
39.7915
 21
11.5706
  0
LINE
  8
0
 10
39.7915
 20
11.5706
 11
39.7632
 21
11.5787
  0
LINE
  8
0
 10
39.7632
 20
11.5787
 11
39.6724
 21
11.5871
  0
LINE
  8
0
 10
39.6724
 20
11.5871
 11
39.6459
 21
11.5896
  0
LINE
  8
0
 10
39.6459
 20
11.5896
 11
36.5
 21
11.5896
  0
LINE
  8
0
 10
36.5
 20
11.5896
 11
36.5
 21
0
  0
LINE
  8
0
 10
36.5
 20
18.8225
 11
39.6459
 21
18.8225
  0
LINE
  8
0
 10
39.6459
 20
18.8225
 11
39.7632
 21
18.836
  0
LINE
  8
0
 10
39.7632
 20
18.836
 11
39.8227
 21
18.8569
  0
LINE
  8
0
 10
39.8227
 20
18.8569
 11
39.8777
 21
18.8762
  0
LINE
  8
0
 10
39.8777
 20
18.8762
 11
39.9337
 21
18.9102
  0
LINE
  8
0
 10
39.9337
 20
18.9102
 11
39.9864
 21
18.9421
  0
LINE
  8
0
 10
39.9864
 20
18.9421
 11
40.0376
 21
18.988
  0
LINE
  8
0
 10
40.0376
 20
18.988
 11
40.0868
 21
19.0321
  0
LINE
  8
0
 10
40.0868
 20
19.0321
 11
40.1317
 21
19.0883
  0
LINE
  8
0
 10
40.1317
 20
19.0883
 11
40.1762
 21
19.1439
  0
LINE
  8
0
 10
40.1762
 20
19.1439
 11
40.214
 21
19.2086
  0
LINE
  8
0
 10
40.214
 20
19.2086
 11
40.2527
 21
19.2748
  0
LINE
  8
0
 10
40.2527
 20
19.2748
 11
40.2824
 21
19.3459
  0
LINE
  8
0
 10
40.2824
 20
19.3459
 11
40.3142
 21
19.4217
  0
LINE
  8
0
 10
40.3142
 20
19.4217
 11
40.3355
 21
19.4969
  0
LINE
  8
0
 10
40.3355
 20
19.4969
 11
40.3592
 21
19.5808
  0
LINE
  8
0
 10
40.3592
 20
19.5808
 11
40.3719
 21
19.658
  0
LINE
  8
0
 10
40.3719
 20
19.658
 11
40.3867
 21
19.7482
  0
LINE
  8
0
 10
40.3867
 20
19.7482
 11
40.3908
 21
19.8253
  0
LINE
  8
0
 10
40.3908
 20
19.8253
 11
40.3959
 21
19.9199
  0
LINE
  8
0
 10
40.3959
 20
19.9199
 11
40.3959
 21
21.3593
  0
LINE
  8
0
 10
40.3959
 20
21.3593
 11
40.3918
 21
21.4348
  0
LINE
  8
0
 10
40.3918
 20
21.4348
 11
40.3867
 21
21.5309
  0
LINE
  8
0
 10
40.3867
 20
21.5309
 11
40.3747
 21
21.6036
  0
LINE
  8
0
 10
40.3747
 20
21.6036
 11
40.3592
 21
21.6984
  0
LINE
  8
0
 10
40.3592
 20
21.6984
 11
40.3399
 21
21.7665
  0
LINE
  8
0
 10
40.3399
 20
21.7665
 11
40.3142
 21
21.8575
  0
LINE
  8
0
 10
40.3142
 20
21.8575
 11
40.2882
 21
21.9195
  0
LINE
  8
0
 10
40.2882
 20
21.9195
 11
40.2527
 21
22.0043
  0
LINE
  8
0
 10
40.2527
 20
22.0043
 11
40.2208
 21
22.059
  0
LINE
  8
0
 10
40.2208
 20
22.059
 11
40.1762
 21
22.1352
  0
LINE
  8
0
 10
40.1762
 20
22.1352
 11
40.1393
 21
22.1814
  0
LINE
  8
0
 10
40.1393
 20
22.1814
 11
40.0868
 21
22.247
  0
LINE
  8
0
 10
40.0868
 20
22.247
 11
40.0457
 21
22.2839
  0
LINE
  8
0
 10
40.0457
 20
22.2839
 11
39.9864
 21
22.337
  0
LINE
  8
0
 10
39.9864
 20
22.337
 11
39.9422
 21
22.3638
  0
LINE
  8
0
 10
39.9422
 20
22.3638
 11
39.8777
 21
22.4029
  0
LINE
  8
0
 10
39.8777
 20
22.4029
 11
39.8314
 21
22.4192
  0
LINE
  8
0
 10
39.8314
 20
22.4192
 11
39.7632
 21
22.4431
  0
LINE
  8
0
 10
39.7632
 20
22.4431
 11
39.6459
 21
22.4566
  0
LINE
  8
0
 10
39.6459
 20
22.4566
 11
36.5
 21
22.4566
  0
LINE
  8
0
 10
36.5
 20
22.4566
 11
36.5
 21
18.8225
  0
LINE
  8
0
 10
36.5
 20
29.7725
 11
39.6459
 21
29.7725
  0
LINE
  8
0
 10
39.6459
 20
29.7725
 11
39.7632
 21
29.786
  0
LINE
  8
0
 10
39.7632
 20
29.786
 11
39.7787
 21
29.7914
  0
LINE
  8
0
 10
39.7787
 20
29.7914
 11
39.8777
 21
29.8262
  0
LINE
  8
0
 10
39.8777
 20
29.8262
 11
39.8922
 21
29.835
  0
LINE
  8
0
 10
39.8922
 20
29.835
 11
39.9864
 21
29.8921
  0
LINE
  8
0
 10
39.9864
 20
29.8921
 11
40.0868
 21
29.9821
  0
LINE
  8
0
 10
40.0868
 20
29.9821
 11
40.1762
 21
30.0939
  0
LINE
  8
0
 10
40.1762
 20
30.0939
 11
40.1857
 21
30.1101
  0
LINE
  8
0
 10
40.1857
 20
30.1101
 11
40.2527
 21
30.2248
  0
LINE
  8
0
 10
40.2527
 20
30.2248
 11
40.26
 21
30.2423
  0
LINE
  8
0
 10
40.26
 20
30.2423
 11
40.3142
 21
30.3717
  0
LINE
  8
0
 10
40.3142
 20
30.3717
 11
40.3193
 21
30.3897
  0
LINE
  8
0
 10
40.3193
 20
30.3897
 11
40.3592
 21
30.5307
  0
LINE
  8
0
 10
40.3592
 20
30.5307
 11
40.3622
 21
30.5488
  0
LINE
  8
0
 10
40.3622
 20
30.5488
 11
40.3867
 21
30.6982
  0
LINE
  8
0
 10
40.3867
 20
30.6982
 11
40.3876
 21
30.7156
  0
LINE
  8
0
 10
40.3876
 20
30.7156
 11
40.3959
 21
30.8698
  0
LINE
  8
0
 10
40.3959
 20
30.8698
 11
40.3959
 21
40
  0
LINE
  8
0
 10
40.3959
 20
40
 11
41.8959
 21
41.5
  0
LINE
  8
0
 10
41.8959
 20
41.5
 11
47
 21
41.5
  0
LINE
  8
0
 10
47
 20
41.5
 11
47.5
 21
42
  0
LINE
  8
0
 10
47.5
 20
42
 11
47.5
 21
45.5
  0
LINE
  8
0
 10
47.5
 20
45.5
 11
36.5
 21
45.5
  0
LINE
  8
0
 10
36.5
 20
45.5
 11
36.5
 21
29.7725
  0
ENDSEC
  0
SECTION
  2
OBJECTS
  0
DICTIONARY
  0
ENDSEC
  0
EOF
