  0
SECTION
  2
BLOCKS
  0
ENDSEC
  0
SECTION
  2
ENTITIES
  0
LINE
  8
0
 10
0
 20
0
 11
11
 21
0
  0
LINE
  8
0
 10
11
 20
0
 11
11
 21
11.4613
  0
LINE
  8
0
 10
11
 20
11.4613
 11
7.85409
 21
11.4613
  0
LINE
  8
0
 10
7.85409
 20
11.4613
 11
7.83081
 21
11.4592
  0
LINE
  8
0
 10
7.83081
 20
11.4592
 11
7.73676
 21
11.4504
  0
LINE
  8
0
 10
7.73676
 20
11.4504
 11
7.71618
 21
11.4445
  0
LINE
  8
0
 10
7.71618
 20
11.4445
 11
7.62232
 21
11.4179
  0
LINE
  8
0
 10
7.62232
 20
11.4179
 11
7.6072
 21
11.4104
  0
LINE
  8
0
 10
7.6072
 20
11.4104
 11
7.51359
 21
11.3645
  0
LINE
  8
0
 10
7.51359
 20
11.3645
 11
7.50555
 21
11.3587
  0
LINE
  8
0
 10
7.50555
 20
11.3587
 11
7.41325
 21
11.2917
  0
LINE
  8
0
 10
7.41325
 20
11.2917
 11
7.41261
 21
11.2911
  0
LINE
  8
0
 10
7.41261
 20
11.2911
 11
7.4059
 21
11.2843
  0
LINE
  8
0
 10
7.4059
 20
11.2843
 11
7.33049
 21
11.2145
  0
LINE
  8
0
 10
7.33049
 20
11.2145
 11
7.32376
 21
11.2082
  0
LINE
  8
0
 10
7.32376
 20
11.2082
 11
7.2599
 21
11.1272
  0
LINE
  8
0
 10
7.2599
 20
11.1272
 11
7.24732
 21
11.1112
  0
LINE
  8
0
 10
7.24732
 20
11.1112
 11
7.20165
 21
11.0304
  0
LINE
  8
0
 10
7.20165
 20
11.0304
 11
7.18583
 21
11.0024
  0
LINE
  8
0
 10
7.18583
 20
11.0024
 11
7.15659
 21
10.9259
  0
LINE
  8
0
 10
7.15659
 20
10.9259
 11
7.14079
 21
10.8845
  0
LINE
  8
0
 10
7.14079
 20
10.8845
 11
7.12547
 21
10.8153
  0
LINE
  8
0
 10
7.12547
 20
10.8153
 11
7.11332
 21
10.7604
  0
LINE
  8
0
 10
7.11332
 20
10.7604
 11
7.10898
 21
10.7007
  0
LINE
  8
0
 10
7.10898
 20
10.7007
 11
7.10409
 21
10.6332
  0
LINE
  8
0
 10
7.10409
 20
10.6332
 11
7.10409
 21
5.5
  0
LINE
  8
0
 10
7.10409
 20
5.5
 11
5.60409
 21
4
  0
LINE
  8
0
 10
5.60409
 20
4
 11
0.499999
 21
4
  0
LINE
  8
0
 10
0.499999
 20
4
 11
0
 21
3.5
  0
LINE
  8
0
 10
0
 20
3.5
 11
0
 21
0
  0
LINE
  8
0
 10
0
 20
42
 11
0.499999
 21
41.5
  0
LINE
  8
0
 10
0.499999
 20
41.5
 11
5.60409
 21
41.5
  0
LINE
  8
0
 10
5.60409
 20
41.5
 11
7.10409
 21
40
  0
LINE
  8
0
 10
7.10409
 20
40
 11
7.10409
 21
30.6562
  0
LINE
  8
0
 10
7.10409
 20
30.6562
 11
7.10512
 21
30.6371
  0
LINE
  8
0
 10
7.10512
 20
30.6371
 11
7.11332
 21
30.4846
  0
LINE
  8
0
 10
7.11332
 20
30.4846
 11
7.11655
 21
30.4649
  0
LINE
  8
0
 10
7.11655
 20
30.4649
 11
7.14079
 21
30.3171
  0
LINE
  8
0
 10
7.14079
 20
30.3171
 11
7.14637
 21
30.2974
  0
LINE
  8
0
 10
7.14637
 20
30.2974
 11
7.18583
 21
30.158
  0
LINE
  8
0
 10
7.18583
 20
30.158
 11
7.19379
 21
30.139
  0
LINE
  8
0
 10
7.19379
 20
30.139
 11
7.24732
 21
30.0112
  0
LINE
  8
0
 10
7.24732
 20
30.0112
 11
7.25763
 21
29.9936
  0
LINE
  8
0
 10
7.25763
 20
29.9936
 11
7.32376
 21
29.8803
  0
LINE
  8
0
 10
7.32376
 20
29.8803
 11
7.41325
 21
29.7684
  0
LINE
  8
0
 10
7.41325
 20
29.7684
 11
7.51359
 21
29.6785
  0
LINE
  8
0
 10
7.51359
 20
29.6785
 11
7.52954
 21
29.6688
  0
LINE
  8
0
 10
7.52954
 20
29.6688
 11
7.62232
 21
29.6126
  0
LINE
  8
0
 10
7.62232
 20
29.6126
 11
7.63937
 21
29.6066
  0
LINE
  8
0
 10
7.63937
 20
29.6066
 11
7.73676
 21
29.5724
  0
LINE
  8
0
 10
7.73676
 20
29.5724
 11
7.85409
 21
29.5589
  0
LINE
  8
0
 10
7.85409
 20
29.5589
 11
11
 21
29.5589
  0
LINE
  8
0
 10
11
 20
29.5589
 11
11
 21
45.5
  0
LINE
  8
0
 10
11
 20
45.5
 11
0
 21
45.5
  0
LINE
  8
0
 10
0
 20
45.5
 11
0
 21
42
  0
LINE
  8
0
 10
7.10409
 20
19.7062
 11
7.10849
 21
19.6243
  0
LINE
  8
0
 10
7.10849
 20
19.6243
 11
7.11332
 21
19.5346
  0
LINE
  8
0
 10
7.11332
 20
19.5346
 11
7.12678
 21
19.4526
  0
LINE
  8
0
 10
7.12678
 20
19.4526
 11
7.14079
 21
19.3671
  0
LINE
  8
0
 10
7.14079
 20
19.3671
 11
7.16339
 21
19.2873
  0
LINE
  8
0
 10
7.16339
 20
19.2873
 11
7.18583
 21
19.208
  0
LINE
  8
0
 10
7.18583
 20
19.208
 11
7.21738
 21
19.1327
  0
LINE
  8
0
 10
7.21738
 20
19.1327
 11
7.24732
 21
19.0612
  0
LINE
  8
0
 10
7.24732
 20
19.0612
 11
7.28732
 21
18.9927
  0
LINE
  8
0
 10
7.28732
 20
18.9927
 11
7.32376
 21
18.9303
  0
LINE
  8
0
 10
7.32376
 20
18.9303
 11
7.37139
 21
18.8708
  0
LINE
  8
0
 10
7.37139
 20
18.8708
 11
7.41325
 21
18.8184
  0
LINE
  8
0
 10
7.41325
 20
18.8184
 11
7.46739
 21
18.7699
  0
LINE
  8
0
 10
7.46739
 20
18.7699
 11
7.51359
 21
18.7285
  0
LINE
  8
0
 10
7.51359
 20
18.7285
 11
7.57288
 21
18.6925
  0
LINE
  8
0
 10
7.57288
 20
18.6925
 11
7.62232
 21
18.6626
  0
LINE
  8
0
 10
7.62232
 20
18.6626
 11
7.68515
 21
18.6405
  0
LINE
  8
0
 10
7.68515
 20
18.6405
 11
7.73676
 21
18.6224
  0
LINE
  8
0
 10
7.73676
 20
18.6224
 11
7.85409
 21
18.6089
  0
LINE
  8
0
 10
7.85409
 20
18.6089
 11
11
 21
18.6089
  0
LINE
  8
0
 10
11
 20
18.6089
 11
11
 21
22.243
  0
LINE
  8
0
 10
11
 20
22.243
 11
7.85409
 21
22.243
  0
LINE
  8
0
 10
7.85409
 20
22.243
 11
7.73676
 21
22.2295
  0
LINE
  8
0
 10
7.73676
 20
22.2295
 11
7.68883
 21
22.2127
  0
LINE
  8
0
 10
7.68883
 20
22.2127
 11
7.62232
 21
22.1893
  0
LINE
  8
0
 10
7.62232
 20
22.1893
 11
7.57658
 21
22.1616
  0
LINE
  8
0
 10
7.57658
 20
22.1616
 11
7.51359
 21
22.1234
  0
LINE
  8
0
 10
7.51359
 20
22.1234
 11
7.4711
 21
22.0853
  0
LINE
  8
0
 10
7.4711
 20
22.0853
 11
7.41325
 21
22.0334
  0
LINE
  8
0
 10
7.41325
 20
22.0334
 11
7.37503
 21
21.9857
  0
LINE
  8
0
 10
7.37503
 20
21.9857
 11
7.32376
 21
21.9216
  0
LINE
  8
0
 10
7.32376
 20
21.9216
 11
7.29078
 21
21.8651
  0
LINE
  8
0
 10
7.29078
 20
21.8651
 11
7.24732
 21
21.7907
  0
LINE
  8
0
 10
7.24732
 20
21.7907
 11
7.22048
 21
21.7266
  0
LINE
  8
0
 10
7.22048
 20
21.7266
 11
7.18583
 21
21.6438
  0
LINE
  8
0
 10
7.18583
 20
21.6438
 11
7.16592
 21
21.5735
  0
LINE
  8
0
 10
7.16592
 20
21.5735
 11
7.14079
 21
21.4847
  0
LINE
  8
0
 10
7.14079
 20
21.4847
 11
7.12848
 21
21.4097
  0
LINE
  8
0
 10
7.12848
 20
21.4097
 11
7.11332
 21
21.3173
  0
LINE
  8
0
 10
7.11332
 20
21.3173
 11
7.10913
 21
21.2393
  0
LINE
  8
0
 10
7.10913
 20
21.2393
 11
7.10409
 21
21.1456
  0
LINE
  8
0
 10
7.10409
 20
21.1456
 11
7.10409
 21
19.7062
  0
LINE
  8
0
 10
36.5
 20
0
 11
47.5
 21
0
  0
LINE
  8
0
 10
47.5
 20
0
 11
47.5
 21
3.5
  0
LINE
  8
0
 10
47.5
 20
3.5
 11
47
 21
4
  0
LINE
  8
0
 10
47
 20
4
 11
41.8959
 21
4
  0
LINE
  8
0
 10
41.8959
 20
4
 11
40.3959
 21
5.5
  0
LINE
  8
0
 10
40.3959
 20
5.5
 11
40.3959
 21
10.6332
  0
LINE
  8
0
 10
40.3959
 20
10.6332
 11
40.3914
 21
10.6947
  0
LINE
  8
0
 10
40.3914
 20
10.6947
 11
40.3867
 21
10.7604
  0
LINE
  8
0
 10
40.3867
 20
10.7604
 11
40.3705
 21
10.8337
  0
LINE
  8
0
 10
40.3705
 20
10.8337
 11
40.3592
 21
10.8845
  0
LINE
  8
0
 10
40.3592
 20
10.8845
 11
40.3276
 21
10.9671
  0
LINE
  8
0
 10
40.3276
 20
10.9671
 11
40.3142
 21
11.0024
  0
LINE
  8
0
 10
40.3142
 20
11.0024
 11
40.2643
 21
11.0906
  0
LINE
  8
0
 10
40.2643
 20
11.0906
 11
40.2527
 21
11.1112
  0
LINE
  8
0
 10
40.2527
 20
11.1112
 11
40.1828
 21
11.1999
  0
LINE
  8
0
 10
40.1828
 20
11.1999
 11
40.1762
 21
11.2082
  0
LINE
  8
0
 10
40.1762
 20
11.2082
 11
40.0941
 21
11.2843
  0
LINE
  8
0
 10
40.0941
 20
11.2843
 11
40.0868
 21
11.2917
  0
LINE
  8
0
 10
40.0868
 20
11.2917
 11
40.0859
 21
11.2924
  0
LINE
  8
0
 10
40.0859
 20
11.2924
 11
39.9864
 21
11.3645
  0
LINE
  8
0
 10
39.9864
 20
11.3645
 11
39.976
 21
11.3697
  0
LINE
  8
0
 10
39.976
 20
11.3697
 11
39.8777
 21
11.4179
  0
LINE
  8
0
 10
39.8777
 20
11.4179
 11
39.8597
 21
11.423
  0
LINE
  8
0
 10
39.8597
 20
11.423
 11
39.7632
 21
11.4504
  0
LINE
  8
0
 10
39.7632
 20
11.4504
 11
39.7408
 21
11.4525
  0
LINE
  8
0
 10
39.7408
 20
11.4525
 11
39.6459
 21
11.4613
  0
LINE
  8
0
 10
39.6459
 20
11.4613
 11
36.5
 21
11.4613
  0
LINE
  8
0
 10
36.5
 20
11.4613
 11
36.5
 21
0
  0
LINE
  8
0
 10
36.5
 20
18.6089
 11
39.6459
 21
18.6089
  0
LINE
  8
0
 10
39.6459
 20
18.6089
 11
39.7632
 21
18.6224
  0
LINE
  8
0
 10
39.7632
 20
18.6224
 11
39.826
 21
18.6444
  0
LINE
  8
0
 10
39.826
 20
18.6444
 11
39.8777
 21
18.6626
  0
LINE
  8
0
 10
39.8777
 20
18.6626
 11
39.9369
 21
18.6985
  0
LINE
  8
0
 10
39.9369
 20
18.6985
 11
39.9864
 21
18.7285
  0
LINE
  8
0
 10
39.9864
 20
18.7285
 11
40.0405
 21
18.777
  0
LINE
  8
0
 10
40.0405
 20
18.777
 11
40.0868
 21
18.8184
  0
LINE
  8
0
 10
40.0868
 20
18.8184
 11
40.1343
 21
18.8779
  0
LINE
  8
0
 10
40.1343
 20
18.8779
 11
40.1762
 21
18.9303
  0
LINE
  8
0
 10
40.1762
 20
18.9303
 11
40.2162
 21
18.9987
  0
LINE
  8
0
 10
40.2162
 20
18.9987
 11
40.2527
 21
19.0612
  0
LINE
  8
0
 10
40.2527
 20
19.0612
 11
40.2842
 21
19.1365
  0
LINE
  8
0
 10
40.2842
 20
19.1365
 11
40.3142
 21
19.208
  0
LINE
  8
0
 10
40.3142
 20
19.208
 11
40.3368
 21
19.2879
  0
LINE
  8
0
 10
40.3368
 20
19.2879
 11
40.3592
 21
19.3671
  0
LINE
  8
0
 10
40.3592
 20
19.3671
 11
40.3727
 21
19.4492
  0
LINE
  8
0
 10
40.3727
 20
19.4492
 11
40.3867
 21
19.5346
  0
LINE
  8
0
 10
40.3867
 20
19.5346
 11
40.3911
 21
19.6166
  0
LINE
  8
0
 10
40.3911
 20
19.6166
 11
40.3959
 21
19.7062
  0
LINE
  8
0
 10
40.3959
 20
19.7062
 11
40.3959
 21
21.1456
  0
LINE
  8
0
 10
40.3959
 20
21.1456
 11
40.3917
 21
21.2237
  0
LINE
  8
0
 10
40.3917
 20
21.2237
 11
40.3867
 21
21.3173
  0
LINE
  8
0
 10
40.3867
 20
21.3173
 11
40.3743
 21
21.3924
  0
LINE
  8
0
 10
40.3743
 20
21.3924
 11
40.3592
 21
21.4847
  0
LINE
  8
0
 10
40.3592
 20
21.4847
 11
40.3393
 21
21.5552
  0
LINE
  8
0
 10
40.3393
 20
21.5552
 11
40.3142
 21
21.6438
  0
LINE
  8
0
 10
40.3142
 20
21.6438
 11
40.2873
 21
21.708
  0
LINE
  8
0
 10
40.2873
 20
21.708
 11
40.2527
 21
21.7907
  0
LINE
  8
0
 10
40.2527
 20
21.7907
 11
40.2196
 21
21.8472
  0
LINE
  8
0
 10
40.2196
 20
21.8472
 11
40.1762
 21
21.9216
  0
LINE
  8
0
 10
40.1762
 20
21.9216
 11
40.138
 21
21.9694
  0
LINE
  8
0
 10
40.138
 20
21.9694
 11
40.0868
 21
22.0334
  0
LINE
  8
0
 10
40.0868
 20
22.0334
 11
40.0442
 21
22.0716
  0
LINE
  8
0
 10
40.0442
 20
22.0716
 11
39.9864
 21
22.1234
  0
LINE
  8
0
 10
39.9864
 20
22.1234
 11
39.9406
 21
22.1511
  0
LINE
  8
0
 10
39.9406
 20
22.1511
 11
39.8777
 21
22.1893
  0
LINE
  8
0
 10
39.8777
 20
22.1893
 11
39.8297
 21
22.2061
  0
LINE
  8
0
 10
39.8297
 20
22.2061
 11
39.7632
 21
22.2295
  0
LINE
  8
0
 10
39.7632
 20
22.2295
 11
39.6459
 21
22.243
  0
LINE
  8
0
 10
39.6459
 20
22.243
 11
36.5
 21
22.243
  0
LINE
  8
0
 10
36.5
 20
22.243
 11
36.5
 21
18.6089
  0
LINE
  8
0
 10
36.5
 20
29.5589
 11
39.6459
 21
29.5589
  0
LINE
  8
0
 10
39.6459
 20
29.5589
 11
39.7632
 21
29.5724
  0
LINE
  8
0
 10
39.7632
 20
29.5724
 11
39.7804
 21
29.5784
  0
LINE
  8
0
 10
39.7804
 20
29.5784
 11
39.8777
 21
29.6126
  0
LINE
  8
0
 10
39.8777
 20
29.6126
 11
39.8938
 21
29.6223
  0
LINE
  8
0
 10
39.8938
 20
29.6223
 11
39.9864
 21
29.6785
  0
LINE
  8
0
 10
39.9864
 20
29.6785
 11
40.0868
 21
29.7684
  0
LINE
  8
0
 10
40.0868
 20
29.7684
 11
40.1762
 21
29.8803
  0
LINE
  8
0
 10
40.1762
 20
29.8803
 11
40.1868
 21
29.8984
  0
LINE
  8
0
 10
40.1868
 20
29.8984
 11
40.2527
 21
30.0112
  0
LINE
  8
0
 10
40.2527
 20
30.0112
 11
40.2609
 21
30.0308
  0
LINE
  8
0
 10
40.2609
 20
30.0308
 11
40.3142
 21
30.158
  0
LINE
  8
0
 10
40.3142
 20
30.158
 11
40.3199
 21
30.1784
  0
LINE
  8
0
 10
40.3199
 20
30.1784
 11
40.3592
 21
30.3171
  0
LINE
  8
0
 10
40.3592
 20
30.3171
 11
40.3626
 21
30.3376
  0
LINE
  8
0
 10
40.3626
 20
30.3376
 11
40.3867
 21
30.4846
  0
LINE
  8
0
 10
40.3867
 20
30.4846
 11
40.3877
 21
30.5045
  0
LINE
  8
0
 10
40.3877
 20
30.5045
 11
40.3959
 21
30.6562
  0
LINE
  8
0
 10
40.3959
 20
30.6562
 11
40.3959
 21
40
  0
LINE
  8
0
 10
40.3959
 20
40
 11
41.8959
 21
41.5
  0
LINE
  8
0
 10
41.8959
 20
41.5
 11
47
 21
41.5
  0
LINE
  8
0
 10
47
 20
41.5
 11
47.5
 21
42
  0
LINE
  8
0
 10
47.5
 20
42
 11
47.5
 21
45.5
  0
LINE
  8
0
 10
47.5
 20
45.5
 11
36.5
 21
45.5
  0
LINE
  8
0
 10
36.5
 20
45.5
 11
36.5
 21
29.5589
  0
ENDSEC
  0
SECTION
  2
OBJECTS
  0
DICTIONARY
  0
ENDSEC
  0
EOF
