  0
SECTION
  2
BLOCKS
  0
ENDSEC
  0
SECTION
  2
ENTITIES
  0
LINE
  8
0
 10
0
 20
0
 11
11
 21
0
  0
LINE
  8
0
 10
11
 20
0
 11
11
 21
11.275
  0
LINE
  8
0
 10
11
 20
11.275
 11
7.85409
 21
11.275
  0
LINE
  8
0
 10
7.85409
 20
11.275
 11
7.83894
 21
11.2737
  0
LINE
  8
0
 10
7.83894
 20
11.2737
 11
7.73676
 21
11.265
  0
LINE
  8
0
 10
7.73676
 20
11.265
 11
7.72321
 21
11.2614
  0
LINE
  8
0
 10
7.72321
 20
11.2614
 11
7.62232
 21
11.2352
  0
LINE
  8
0
 10
7.62232
 20
11.2352
 11
7.61217
 21
11.2306
  0
LINE
  8
0
 10
7.61217
 20
11.2306
 11
7.51359
 21
11.1863
  0
LINE
  8
0
 10
7.51359
 20
11.1863
 11
7.50795
 21
11.1826
  0
LINE
  8
0
 10
7.50795
 20
11.1826
 11
7.41325
 21
11.1197
  0
LINE
  8
0
 10
7.41325
 20
11.1197
 11
7.41239
 21
11.1189
  0
LINE
  8
0
 10
7.41239
 20
11.1189
 11
7.39776
 21
11.1053
  0
LINE
  8
0
 10
7.39776
 20
11.1053
 11
7.32775
 21
11.044
  0
LINE
  8
0
 10
7.32775
 20
11.044
 11
7.32376
 21
11.0405
  0
LINE
  8
0
 10
7.32376
 20
11.0405
 11
7.25528
 21
10.9582
  0
LINE
  8
0
 10
7.25528
 20
10.9582
 11
7.24732
 21
10.9487
  0
LINE
  8
0
 10
7.24732
 20
10.9487
 11
7.19605
 21
10.8628
  0
LINE
  8
0
 10
7.19605
 20
10.8628
 11
7.18583
 21
10.8457
  0
LINE
  8
0
 10
7.18583
 20
10.8457
 11
7.15109
 21
10.7597
  0
LINE
  8
0
 10
7.15109
 20
10.7597
 11
7.14079
 21
10.7342
  0
LINE
  8
0
 10
7.14079
 20
10.7342
 11
7.12128
 21
10.6508
  0
LINE
  8
0
 10
7.12128
 20
10.6508
 11
7.11332
 21
10.6168
  0
LINE
  8
0
 10
7.11332
 20
10.6168
 11
7.1073
 21
10.5383
  0
LINE
  8
0
 10
7.1073
 20
10.5383
 11
7.10409
 21
10.4964
  0
LINE
  8
0
 10
7.10409
 20
10.4964
 11
7.10409
 21
5.5
  0
LINE
  8
0
 10
7.10409
 20
5.5
 11
5.60409
 21
4
  0
LINE
  8
0
 10
5.60409
 20
4
 11
0.499999
 21
4
  0
LINE
  8
0
 10
0.499999
 20
4
 11
0
 21
3.5
  0
LINE
  8
0
 10
0
 20
3.5
 11
0
 21
0
  0
LINE
  8
0
 10
0
 20
42
 11
0.499999
 21
41.5
  0
LINE
  8
0
 10
0.499999
 20
41.5
 11
5.60409
 21
41.5
  0
LINE
  8
0
 10
5.60409
 20
41.5
 11
7.10409
 21
40
  0
LINE
  8
0
 10
7.10409
 20
40
 11
7.10409
 21
30.229
  0
LINE
  8
0
 10
7.10409
 20
30.229
 11
7.10539
 21
30.2048
  0
LINE
  8
0
 10
7.10539
 20
30.2048
 11
7.11332
 21
30.0573
  0
LINE
  8
0
 10
7.11332
 20
30.0573
 11
7.11736
 21
30.0327
  0
LINE
  8
0
 10
7.11736
 20
30.0327
 11
7.14079
 21
29.8899
  0
LINE
  8
0
 10
7.14079
 20
29.8899
 11
7.14769
 21
29.8655
  0
LINE
  8
0
 10
7.14769
 20
29.8655
 11
7.18583
 21
29.7308
  0
LINE
  8
0
 10
7.18583
 20
29.7308
 11
7.1956
 21
29.7075
  0
LINE
  8
0
 10
7.1956
 20
29.7075
 11
7.24732
 21
29.584
  0
LINE
  8
0
 10
7.24732
 20
29.584
 11
7.25988
 21
29.5625
  0
LINE
  8
0
 10
7.25988
 20
29.5625
 11
7.32376
 21
29.453
  0
LINE
  8
0
 10
7.32376
 20
29.453
 11
7.41325
 21
29.3412
  0
LINE
  8
0
 10
7.41325
 20
29.3412
 11
7.51359
 21
29.2512
  0
LINE
  8
0
 10
7.51359
 20
29.2512
 11
7.53273
 21
29.2396
  0
LINE
  8
0
 10
7.53273
 20
29.2396
 11
7.62232
 21
29.1853
  0
LINE
  8
0
 10
7.62232
 20
29.1853
 11
7.64272
 21
29.1782
  0
LINE
  8
0
 10
7.64272
 20
29.1782
 11
7.73676
 21
29.1451
  0
LINE
  8
0
 10
7.73676
 20
29.1451
 11
7.85409
 21
29.1316
  0
LINE
  8
0
 10
7.85409
 20
29.1316
 11
11
 21
29.1316
  0
LINE
  8
0
 10
11
 20
29.1316
 11
11
 21
45.5
  0
LINE
  8
0
 10
11
 20
45.5
 11
0
 21
45.5
  0
LINE
  8
0
 10
0
 20
45.5
 11
0
 21
42
  0
LINE
  8
0
 10
7.10409
 20
19.279
 11
7.10904
 21
19.1869
  0
LINE
  8
0
 10
7.10904
 20
19.1869
 11
7.11332
 21
19.1073
  0
LINE
  8
0
 10
7.11332
 20
19.1073
 11
7.1284
 21
19.0154
  0
LINE
  8
0
 10
7.1284
 20
19.0154
 11
7.14079
 21
18.9399
  0
LINE
  8
0
 10
7.14079
 20
18.9399
 11
7.16606
 21
18.8506
  0
LINE
  8
0
 10
7.16606
 20
18.8506
 11
7.18583
 21
18.7808
  0
LINE
  8
0
 10
7.18583
 20
18.7808
 11
7.22102
 21
18.6968
  0
LINE
  8
0
 10
7.22102
 20
18.6968
 11
7.24732
 21
18.634
  0
LINE
  8
0
 10
7.24732
 20
18.634
 11
7.29184
 21
18.5577
  0
LINE
  8
0
 10
7.29184
 20
18.5577
 11
7.32376
 21
18.503
  0
LINE
  8
0
 10
7.32376
 20
18.503
 11
7.37667
 21
18.4369
  0
LINE
  8
0
 10
7.37667
 20
18.4369
 11
7.41325
 21
18.3912
  0
LINE
  8
0
 10
7.41325
 20
18.3912
 11
7.4733
 21
18.3374
  0
LINE
  8
0
 10
7.4733
 20
18.3374
 11
7.51359
 21
18.3012
  0
LINE
  8
0
 10
7.51359
 20
18.3012
 11
7.57927
 21
18.2614
  0
LINE
  8
0
 10
7.57927
 20
18.2614
 11
7.62232
 21
18.2353
  0
LINE
  8
0
 10
7.62232
 20
18.2353
 11
7.69187
 21
18.2109
  0
LINE
  8
0
 10
7.69187
 20
18.2109
 11
7.73676
 21
18.1951
  0
LINE
  8
0
 10
7.73676
 20
18.1951
 11
7.85409
 21
18.1816
  0
LINE
  8
0
 10
7.85409
 20
18.1816
 11
11
 21
18.1816
  0
LINE
  8
0
 10
11
 20
18.1816
 11
11
 21
21.8158
  0
LINE
  8
0
 10
11
 20
21.8158
 11
7.85409
 21
21.8158
  0
LINE
  8
0
 10
7.85409
 20
21.8158
 11
7.73676
 21
21.8023
  0
LINE
  8
0
 10
7.73676
 20
21.8023
 11
7.68548
 21
21.7842
  0
LINE
  8
0
 10
7.68548
 20
21.7842
 11
7.62232
 21
21.7621
  0
LINE
  8
0
 10
7.62232
 20
21.7621
 11
7.5734
 21
21.7324
  0
LINE
  8
0
 10
7.5734
 20
21.7324
 11
7.51359
 21
21.6962
  0
LINE
  8
0
 10
7.51359
 20
21.6962
 11
7.46816
 21
21.6554
  0
LINE
  8
0
 10
7.46816
 20
21.6554
 11
7.41325
 21
21.6062
  0
LINE
  8
0
 10
7.41325
 20
21.6062
 11
7.3724
 21
21.5551
  0
LINE
  8
0
 10
7.3724
 20
21.5551
 11
7.32376
 21
21.4943
  0
LINE
  8
0
 10
7.32376
 20
21.4943
 11
7.28853
 21
21.434
  0
LINE
  8
0
 10
7.28853
 20
21.434
 11
7.24732
 21
21.3634
  0
LINE
  8
0
 10
7.24732
 20
21.3634
 11
7.21867
 21
21.295
  0
LINE
  8
0
 10
7.21867
 20
21.295
 11
7.18583
 21
21.2166
  0
LINE
  8
0
 10
7.18583
 20
21.2166
 11
7.16459
 21
21.1416
  0
LINE
  8
0
 10
7.16459
 20
21.1416
 11
7.14079
 21
21.0575
  0
LINE
  8
0
 10
7.14079
 20
21.0575
 11
7.12767
 21
20.9775
  0
LINE
  8
0
 10
7.12767
 20
20.9775
 11
7.11332
 21
20.8901
  0
LINE
  8
0
 10
7.11332
 20
20.8901
 11
7.10885
 21
20.807
  0
LINE
  8
0
 10
7.10885
 20
20.807
 11
7.10409
 21
20.7184
  0
LINE
  8
0
 10
7.10409
 20
20.7184
 11
7.10409
 21
19.279
  0
LINE
  8
0
 10
36.5
 20
0
 11
47.5
 21
0
  0
LINE
  8
0
 10
47.5
 20
0
 11
47.5
 21
3.5
  0
LINE
  8
0
 10
47.5
 20
3.5
 11
47
 21
4
  0
LINE
  8
0
 10
47
 20
4
 11
41.8959
 21
4
  0
LINE
  8
0
 10
41.8959
 20
4
 11
40.3959
 21
5.5
  0
LINE
  8
0
 10
40.3959
 20
5.5
 11
40.3959
 21
10.4964
  0
LINE
  8
0
 10
40.3959
 20
10.4964
 11
40.3896
 21
10.5793
  0
LINE
  8
0
 10
40.3896
 20
10.5793
 11
40.3867
 21
10.6168
  0
LINE
  8
0
 10
40.3867
 20
10.6168
 11
40.366
 21
10.7053
  0
LINE
  8
0
 10
40.366
 20
10.7053
 11
40.3592
 21
10.7342
  0
LINE
  8
0
 10
40.3592
 20
10.7342
 11
40.3222
 21
10.8258
  0
LINE
  8
0
 10
40.3222
 20
10.8258
 11
40.3142
 21
10.8457
  0
LINE
  8
0
 10
40.3142
 20
10.8457
 11
40.2595
 21
10.9372
  0
LINE
  8
0
 10
40.2595
 20
10.9372
 11
40.2527
 21
10.9487
  0
LINE
  8
0
 10
40.2527
 20
10.9487
 11
40.1799
 21
11.0361
  0
LINE
  8
0
 10
40.1799
 20
11.0361
 11
40.1762
 21
11.0405
  0
LINE
  8
0
 10
40.1762
 20
11.0405
 11
40.1022
 21
11.1053
  0
LINE
  8
0
 10
40.1022
 20
11.1053
 11
40.0868
 21
11.1197
  0
LINE
  8
0
 10
40.0868
 20
11.1197
 11
40.0856
 21
11.1204
  0
LINE
  8
0
 10
40.0856
 20
11.1204
 11
39.9864
 21
11.1863
  0
LINE
  8
0
 10
39.9864
 20
11.1863
 11
39.9795
 21
11.1894
  0
LINE
  8
0
 10
39.9795
 20
11.1894
 11
39.8777
 21
11.2352
  0
LINE
  8
0
 10
39.8777
 20
11.2352
 11
39.866
 21
11.2382
  0
LINE
  8
0
 10
39.866
 20
11.2382
 11
39.7632
 21
11.265
  0
LINE
  8
0
 10
39.7632
 20
11.265
 11
39.7487
 21
11.2662
  0
LINE
  8
0
 10
39.7487
 20
11.2662
 11
39.6459
 21
11.275
  0
LINE
  8
0
 10
39.6459
 20
11.275
 11
36.5
 21
11.275
  0
LINE
  8
0
 10
36.5
 20
11.275
 11
36.5
 21
0
  0
LINE
  8
0
 10
36.5
 20
18.1816
 11
39.6459
 21
18.1816
  0
LINE
  8
0
 10
39.6459
 20
18.1816
 11
39.7632
 21
18.1951
  0
LINE
  8
0
 10
39.7632
 20
18.1951
 11
39.8327
 21
18.2195
  0
LINE
  8
0
 10
39.8327
 20
18.2195
 11
39.8777
 21
18.2353
  0
LINE
  8
0
 10
39.8777
 20
18.2353
 11
39.9432
 21
18.2751
  0
LINE
  8
0
 10
39.9432
 20
18.2751
 11
39.9864
 21
18.3012
  0
LINE
  8
0
 10
39.9864
 20
18.3012
 11
40.0463
 21
18.355
  0
LINE
  8
0
 10
40.0463
 20
18.355
 11
40.0868
 21
18.3912
  0
LINE
  8
0
 10
40.0868
 20
18.3912
 11
40.1395
 21
18.4572
  0
LINE
  8
0
 10
40.1395
 20
18.4572
 11
40.1762
 21
18.503
  0
LINE
  8
0
 10
40.1762
 20
18.503
 11
40.2206
 21
18.5791
  0
LINE
  8
0
 10
40.2206
 20
18.5791
 11
40.2527
 21
18.634
  0
LINE
  8
0
 10
40.2527
 20
18.634
 11
40.2878
 21
18.7178
  0
LINE
  8
0
 10
40.2878
 20
18.7178
 11
40.3142
 21
18.7808
  0
LINE
  8
0
 10
40.3142
 20
18.7808
 11
40.3394
 21
18.8698
  0
LINE
  8
0
 10
40.3394
 20
18.8698
 11
40.3592
 21
18.9399
  0
LINE
  8
0
 10
40.3592
 20
18.9399
 11
40.3743
 21
19.0316
  0
LINE
  8
0
 10
40.3743
 20
19.0316
 11
40.3867
 21
19.1073
  0
LINE
  8
0
 10
40.3867
 20
19.1073
 11
40.3916
 21
19.1993
  0
LINE
  8
0
 10
40.3916
 20
19.1993
 11
40.3959
 21
19.279
  0
LINE
  8
0
 10
40.3959
 20
19.279
 11
40.3959
 21
20.7184
  0
LINE
  8
0
 10
40.3959
 20
20.7184
 11
40.3914
 21
20.8015
  0
LINE
  8
0
 10
40.3914
 20
20.8015
 11
40.3867
 21
20.8901
  0
LINE
  8
0
 10
40.3867
 20
20.8901
 11
40.3735
 21
20.9701
  0
LINE
  8
0
 10
40.3735
 20
20.9701
 11
40.3592
 21
21.0575
  0
LINE
  8
0
 10
40.3592
 20
21.0575
 11
40.338
 21
21.1326
  0
LINE
  8
0
 10
40.338
 20
21.1326
 11
40.3142
 21
21.2166
  0
LINE
  8
0
 10
40.3142
 20
21.2166
 11
40.2855
 21
21.2851
  0
LINE
  8
0
 10
40.2855
 20
21.2851
 11
40.2527
 21
21.3634
  0
LINE
  8
0
 10
40.2527
 20
21.3634
 11
40.2174
 21
21.4238
  0
LINE
  8
0
 10
40.2174
 20
21.4238
 11
40.1762
 21
21.4943
  0
LINE
  8
0
 10
40.1762
 20
21.4943
 11
40.1354
 21
21.5454
  0
LINE
  8
0
 10
40.1354
 20
21.5454
 11
40.0868
 21
21.6062
  0
LINE
  8
0
 10
40.0868
 20
21.6062
 11
40.0413
 21
21.647
  0
LINE
  8
0
 10
40.0413
 20
21.647
 11
39.9864
 21
21.6962
  0
LINE
  8
0
 10
39.9864
 20
21.6962
 11
39.9374
 21
21.7258
  0
LINE
  8
0
 10
39.9374
 20
21.7258
 11
39.8777
 21
21.7621
  0
LINE
  8
0
 10
39.8777
 20
21.7621
 11
39.8264
 21
21.7801
  0
LINE
  8
0
 10
39.8264
 20
21.7801
 11
39.7632
 21
21.8023
  0
LINE
  8
0
 10
39.7632
 20
21.8023
 11
39.6459
 21
21.8158
  0
LINE
  8
0
 10
39.6459
 20
21.8158
 11
36.5
 21
21.8158
  0
LINE
  8
0
 10
36.5
 20
21.8158
 11
36.5
 21
18.1816
  0
LINE
  8
0
 10
36.5
 20
29.1316
 11
39.6459
 21
29.1316
  0
LINE
  8
0
 10
39.6459
 20
29.1316
 11
39.7632
 21
29.1451
  0
LINE
  8
0
 10
39.7632
 20
29.1451
 11
39.7837
 21
29.1523
  0
LINE
  8
0
 10
39.7837
 20
29.1523
 11
39.8777
 21
29.1853
  0
LINE
  8
0
 10
39.8777
 20
29.1853
 11
39.897
 21
29.197
  0
LINE
  8
0
 10
39.897
 20
29.197
 11
39.9864
 21
29.2512
  0
LINE
  8
0
 10
39.9864
 20
29.2512
 11
40.0868
 21
29.3412
  0
LINE
  8
0
 10
40.0868
 20
29.3412
 11
40.1762
 21
29.453
  0
LINE
  8
0
 10
40.1762
 20
29.453
 11
40.189
 21
29.4749
  0
LINE
  8
0
 10
40.189
 20
29.4749
 11
40.2527
 21
29.584
  0
LINE
  8
0
 10
40.2527
 20
29.584
 11
40.2627
 21
29.6078
  0
LINE
  8
0
 10
40.2627
 20
29.6078
 11
40.3142
 21
29.7308
  0
LINE
  8
0
 10
40.3142
 20
29.7308
 11
40.3212
 21
29.7558
  0
LINE
  8
0
 10
40.3212
 20
29.7558
 11
40.3592
 21
29.8899
  0
LINE
  8
0
 10
40.3592
 20
29.8899
 11
40.3634
 21
29.9152
  0
LINE
  8
0
 10
40.3634
 20
29.9152
 11
40.3867
 21
30.0573
  0
LINE
  8
0
 10
40.3867
 20
30.0573
 11
40.388
 21
30.0822
  0
LINE
  8
0
 10
40.388
 20
30.0822
 11
40.3959
 21
30.229
  0
LINE
  8
0
 10
40.3959
 20
30.229
 11
40.3959
 21
40
  0
LINE
  8
0
 10
40.3959
 20
40
 11
41.8959
 21
41.5
  0
LINE
  8
0
 10
41.8959
 20
41.5
 11
47
 21
41.5
  0
LINE
  8
0
 10
47
 20
41.5
 11
47.5
 21
42
  0
LINE
  8
0
 10
47.5
 20
42
 11
47.5
 21
45.5
  0
LINE
  8
0
 10
47.5
 20
45.5
 11
36.5
 21
45.5
  0
LINE
  8
0
 10
36.5
 20
45.5
 11
36.5
 21
29.1316
  0
ENDSEC
  0
SECTION
  2
OBJECTS
  0
DICTIONARY
  0
ENDSEC
  0
EOF
