  0
SECTION
  2
BLOCKS
  0
ENDSEC
  0
SECTION
  2
ENTITIES
  0
LINE
  8
0
 10
0
 20
0
 11
11
 21
0
  0
LINE
  8
0
 10
11
 20
0
 11
11
 21
11.217
  0
LINE
  8
0
 10
11
 20
11.217
 11
7.85409
 21
11.217
  0
LINE
  8
0
 10
7.85409
 20
11.217
 11
7.7813
 21
11.2111
  0
LINE
  8
0
 10
7.7813
 20
11.2111
 11
7.73676
 21
11.2075
  0
LINE
  8
0
 10
7.73676
 20
11.2075
 11
7.66742
 21
11.1904
  0
LINE
  8
0
 10
7.66742
 20
11.1904
 11
7.62232
 21
11.1793
  0
LINE
  8
0
 10
7.62232
 20
11.1793
 11
7.55911
 21
11.1524
  0
LINE
  8
0
 10
7.55911
 20
11.1524
 11
7.51359
 21
11.1331
  0
LINE
  8
0
 10
7.51359
 20
11.1331
 11
7.45855
 21
11.0985
  0
LINE
  8
0
 10
7.45855
 20
11.0985
 11
7.41325
 21
11.07
  0
LINE
  8
0
 10
7.41325
 20
11.07
 11
7.36768
 21
11.0301
  0
LINE
  8
0
 10
7.36768
 20
11.0301
 11
7.32376
 21
10.9916
  0
LINE
  8
0
 10
7.32376
 20
10.9916
 11
7.28818
 21
10.9489
  0
LINE
  8
0
 10
7.28818
 20
10.9489
 11
7.24732
 21
10.8998
  0
LINE
  8
0
 10
7.24732
 20
10.8998
 11
7.22154
 21
10.8566
  0
LINE
  8
0
 10
7.22154
 20
10.8566
 11
7.18583
 21
10.7969
  0
LINE
  8
0
 10
7.18583
 20
10.7969
 11
7.16906
 21
10.7553
  0
LINE
  8
0
 10
7.16906
 20
10.7553
 11
7.14079
 21
10.6853
  0
LINE
  8
0
 10
7.14079
 20
10.6853
 11
7.13184
 21
10.647
  0
LINE
  8
0
 10
7.13184
 20
10.647
 11
7.11332
 21
10.5679
  0
LINE
  8
0
 10
7.11332
 20
10.5679
 11
7.11072
 21
10.5341
  0
LINE
  8
0
 10
7.11072
 20
10.5341
 11
7.10409
 21
10.4476
  0
LINE
  8
0
 10
7.10409
 20
10.4476
 11
7.10409
 21
5.5
  0
LINE
  8
0
 10
7.10409
 20
5.5
 11
5.60409
 21
4
  0
LINE
  8
0
 10
5.60409
 20
4
 11
0.499999
 21
4
  0
LINE
  8
0
 10
0.499999
 20
4
 11
0
 21
3.5
  0
LINE
  8
0
 10
0
 20
3.5
 11
0
 21
0
  0
LINE
  8
0
 10
0
 20
42
 11
0.499999
 21
41.5
  0
LINE
  8
0
 10
0.499999
 20
41.5
 11
5.60409
 21
41.5
  0
LINE
  8
0
 10
5.60409
 20
41.5
 11
7.10409
 21
40
  0
LINE
  8
0
 10
7.10409
 20
40
 11
7.10409
 21
30.0154
  0
LINE
  8
0
 10
7.10409
 20
30.0154
 11
7.10552
 21
29.9887
  0
LINE
  8
0
 10
7.10552
 20
29.9887
 11
7.11332
 21
29.8437
  0
LINE
  8
0
 10
7.11332
 20
29.8437
 11
7.11776
 21
29.8166
  0
LINE
  8
0
 10
7.11776
 20
29.8166
 11
7.14079
 21
29.6763
  0
LINE
  8
0
 10
7.14079
 20
29.6763
 11
7.14835
 21
29.6495
  0
LINE
  8
0
 10
7.14835
 20
29.6495
 11
7.18583
 21
29.5172
  0
LINE
  8
0
 10
7.18583
 20
29.5172
 11
7.19651
 21
29.4917
  0
LINE
  8
0
 10
7.19651
 20
29.4917
 11
7.24732
 21
29.3703
  0
LINE
  8
0
 10
7.24732
 20
29.3703
 11
7.261
 21
29.3469
  0
LINE
  8
0
 10
7.261
 20
29.3469
 11
7.32376
 21
29.2394
  0
LINE
  8
0
 10
7.32376
 20
29.2394
 11
7.41325
 21
29.1276
  0
LINE
  8
0
 10
7.41325
 20
29.1276
 11
7.51359
 21
29.0376
  0
LINE
  8
0
 10
7.51359
 20
29.0376
 11
7.53432
 21
29.025
  0
LINE
  8
0
 10
7.53432
 20
29.025
 11
7.62232
 21
28.9717
  0
LINE
  8
0
 10
7.62232
 20
28.9717
 11
7.6444
 21
28.9639
  0
LINE
  8
0
 10
7.6444
 20
28.9639
 11
7.73676
 21
28.9315
  0
LINE
  8
0
 10
7.73676
 20
28.9315
 11
7.85409
 21
28.918
  0
LINE
  8
0
 10
7.85409
 20
28.918
 11
11
 21
28.918
  0
LINE
  8
0
 10
11
 20
28.918
 11
11
 21
45.5
  0
LINE
  8
0
 10
11
 20
45.5
 11
0
 21
45.5
  0
LINE
  8
0
 10
0
 20
45.5
 11
0
 21
42
  0
LINE
  8
0
 10
7.10409
 20
19.0654
 11
7.10931
 21
18.9682
  0
LINE
  8
0
 10
7.10931
 20
18.9682
 11
7.11332
 21
18.8937
  0
LINE
  8
0
 10
7.11332
 20
18.8937
 11
7.12922
 21
18.7968
  0
LINE
  8
0
 10
7.12922
 20
18.7968
 11
7.14079
 21
18.7263
  0
LINE
  8
0
 10
7.14079
 20
18.7263
 11
7.16739
 21
18.6323
  0
LINE
  8
0
 10
7.16739
 20
18.6323
 11
7.18583
 21
18.5672
  0
LINE
  8
0
 10
7.18583
 20
18.5672
 11
7.22284
 21
18.4788
  0
LINE
  8
0
 10
7.22284
 20
18.4788
 11
7.24732
 21
18.4204
  0
LINE
  8
0
 10
7.24732
 20
18.4204
 11
7.2941
 21
18.3402
  0
LINE
  8
0
 10
7.2941
 20
18.3402
 11
7.32376
 21
18.2894
  0
LINE
  8
0
 10
7.32376
 20
18.2894
 11
7.37931
 21
18.22
  0
LINE
  8
0
 10
7.37931
 20
18.22
 11
7.41325
 21
18.1776
  0
LINE
  8
0
 10
7.41325
 20
18.1776
 11
7.47626
 21
18.1211
  0
LINE
  8
0
 10
7.47626
 20
18.1211
 11
7.51359
 21
18.0876
  0
LINE
  8
0
 10
7.51359
 20
18.0876
 11
7.58247
 21
18.0459
  0
LINE
  8
0
 10
7.58247
 20
18.0459
 11
7.62232
 21
18.0217
  0
LINE
  8
0
 10
7.62232
 20
18.0217
 11
7.69523
 21
17.9961
  0
LINE
  8
0
 10
7.69523
 20
17.9961
 11
7.73676
 21
17.9815
  0
LINE
  8
0
 10
7.73676
 20
17.9815
 11
7.85409
 21
17.968
  0
LINE
  8
0
 10
7.85409
 20
17.968
 11
11
 21
17.968
  0
LINE
  8
0
 10
11
 20
17.968
 11
11
 21
21.6021
  0
LINE
  8
0
 10
11
 20
21.6021
 11
7.85409
 21
21.6021
  0
LINE
  8
0
 10
7.85409
 20
21.6021
 11
7.73676
 21
21.5886
  0
LINE
  8
0
 10
7.73676
 20
21.5886
 11
7.6838
 21
21.57
  0
LINE
  8
0
 10
7.6838
 20
21.57
 11
7.62232
 21
21.5484
  0
LINE
  8
0
 10
7.62232
 20
21.5484
 11
7.5718
 21
21.5178
  0
LINE
  8
0
 10
7.5718
 20
21.5178
 11
7.51359
 21
21.4825
  0
LINE
  8
0
 10
7.51359
 20
21.4825
 11
7.46668
 21
21.4405
  0
LINE
  8
0
 10
7.46668
 20
21.4405
 11
7.41325
 21
21.3926
  0
LINE
  8
0
 10
7.41325
 20
21.3926
 11
7.37108
 21
21.3399
  0
LINE
  8
0
 10
7.37108
 20
21.3399
 11
7.32376
 21
21.2807
  0
LINE
  8
0
 10
7.32376
 20
21.2807
 11
7.28741
 21
21.2185
  0
LINE
  8
0
 10
7.28741
 20
21.2185
 11
7.24732
 21
21.1498
  0
LINE
  8
0
 10
7.24732
 20
21.1498
 11
7.21777
 21
21.0792
  0
LINE
  8
0
 10
7.21777
 20
21.0792
 11
7.18583
 21
21.003
  0
LINE
  8
0
 10
7.18583
 20
21.003
 11
7.16393
 21
20.9256
  0
LINE
  8
0
 10
7.16393
 20
20.9256
 11
7.14079
 21
20.8439
  0
LINE
  8
0
 10
7.14079
 20
20.8439
 11
7.12727
 21
20.7614
  0
LINE
  8
0
 10
7.12727
 20
20.7614
 11
7.11332
 21
20.6764
  0
LINE
  8
0
 10
7.11332
 20
20.6764
 11
7.10872
 21
20.5909
  0
LINE
  8
0
 10
7.10872
 20
20.5909
 11
7.10409
 21
20.5048
  0
LINE
  8
0
 10
7.10409
 20
20.5048
 11
7.10409
 21
19.0654
  0
LINE
  8
0
 10
36.5
 20
0
 11
47.5
 21
0
  0
LINE
  8
0
 10
47.5
 20
0
 11
47.5
 21
3.5
  0
LINE
  8
0
 10
47.5
 20
3.5
 11
47
 21
4
  0
LINE
  8
0
 10
47
 20
4
 11
41.8959
 21
4
  0
LINE
  8
0
 10
41.8959
 20
4
 11
40.3959
 21
5.5
  0
LINE
  8
0
 10
40.3959
 20
5.5
 11
40.3959
 21
10.4476
  0
LINE
  8
0
 10
40.3959
 20
10.4476
 11
40.3934
 21
10.4807
  0
LINE
  8
0
 10
40.3934
 20
10.4807
 11
40.3867
 21
10.5679
  0
LINE
  8
0
 10
40.3867
 20
10.5679
 11
40.3777
 21
10.6061
  0
LINE
  8
0
 10
40.3777
 20
10.6061
 11
40.3592
 21
10.6853
  0
LINE
  8
0
 10
40.3592
 20
10.6853
 11
40.3422
 21
10.7274
  0
LINE
  8
0
 10
40.3422
 20
10.7274
 11
40.3142
 21
10.7969
  0
LINE
  8
0
 10
40.3142
 20
10.7969
 11
40.2878
 21
10.841
  0
LINE
  8
0
 10
40.2878
 20
10.841
 11
40.2527
 21
10.8998
  0
LINE
  8
0
 10
40.2527
 20
10.8998
 11
40.2161
 21
10.9438
  0
LINE
  8
0
 10
40.2161
 20
10.9438
 11
40.1762
 21
10.9916
  0
LINE
  8
0
 10
40.1762
 20
10.9916
 11
40.1293
 21
11.0328
  0
LINE
  8
0
 10
40.1293
 20
11.0328
 11
40.0868
 21
11.07
  0
LINE
  8
0
 10
40.0868
 20
11.07
 11
40.0301
 21
11.1056
  0
LINE
  8
0
 10
40.0301
 20
11.1056
 11
39.9864
 21
11.1331
  0
LINE
  8
0
 10
39.9864
 20
11.1331
 11
39.9217
 21
11.1606
  0
LINE
  8
0
 10
39.9217
 20
11.1606
 11
39.8777
 21
11.1793
  0
LINE
  8
0
 10
39.8777
 20
11.1793
 11
39.8073
 21
11.1966
  0
LINE
  8
0
 10
39.8073
 20
11.1966
 11
39.7632
 21
11.2075
  0
LINE
  8
0
 10
39.7632
 20
11.2075
 11
39.6901
 21
11.2134
  0
LINE
  8
0
 10
39.6901
 20
11.2134
 11
39.6459
 21
11.217
  0
LINE
  8
0
 10
39.6459
 20
11.217
 11
36.5
 21
11.217
  0
LINE
  8
0
 10
36.5
 20
11.217
 11
36.5
 21
0
  0
LINE
  8
0
 10
36.5
 20
17.968
 11
39.6459
 21
17.968
  0
LINE
  8
0
 10
39.6459
 20
17.968
 11
39.7632
 21
17.9815
  0
LINE
  8
0
 10
39.7632
 20
17.9815
 11
39.8361
 21
18.0071
  0
LINE
  8
0
 10
39.8361
 20
18.0071
 11
39.8777
 21
18.0217
  0
LINE
  8
0
 10
39.8777
 20
18.0217
 11
39.9464
 21
18.0634
  0
LINE
  8
0
 10
39.9464
 20
18.0634
 11
39.9864
 21
18.0876
  0
LINE
  8
0
 10
39.9864
 20
18.0876
 11
40.0492
 21
18.144
  0
LINE
  8
0
 10
40.0492
 20
18.144
 11
40.0868
 21
18.1776
  0
LINE
  8
0
 10
40.0868
 20
18.1776
 11
40.1421
 21
18.2468
  0
LINE
  8
0
 10
40.1421
 20
18.2468
 11
40.1762
 21
18.2894
  0
LINE
  8
0
 10
40.1762
 20
18.2894
 11
40.2229
 21
18.3693
  0
LINE
  8
0
 10
40.2229
 20
18.3693
 11
40.2527
 21
18.4204
  0
LINE
  8
0
 10
40.2527
 20
18.4204
 11
40.2896
 21
18.5084
  0
LINE
  8
0
 10
40.2896
 20
18.5084
 11
40.3142
 21
18.5672
  0
LINE
  8
0
 10
40.3142
 20
18.5672
 11
40.3407
 21
18.6608
  0
LINE
  8
0
 10
40.3407
 20
18.6608
 11
40.3592
 21
18.7263
  0
LINE
  8
0
 10
40.3592
 20
18.7263
 11
40.375
 21
18.8228
  0
LINE
  8
0
 10
40.375
 20
18.8228
 11
40.3867
 21
18.8937
  0
LINE
  8
0
 10
40.3867
 20
18.8937
 11
40.3919
 21
18.9906
  0
LINE
  8
0
 10
40.3919
 20
18.9906
 11
40.3959
 21
19.0654
  0
LINE
  8
0
 10
40.3959
 20
19.0654
 11
40.3959
 21
20.5048
  0
LINE
  8
0
 10
40.3959
 20
20.5048
 11
40.3913
 21
20.5903
  0
LINE
  8
0
 10
40.3913
 20
20.5903
 11
40.3867
 21
20.6764
  0
LINE
  8
0
 10
40.3867
 20
20.6764
 11
40.3731
 21
20.7589
  0
LINE
  8
0
 10
40.3731
 20
20.7589
 11
40.3592
 21
20.8439
  0
LINE
  8
0
 10
40.3592
 20
20.8439
 11
40.3373
 21
20.9213
  0
LINE
  8
0
 10
40.3373
 20
20.9213
 11
40.3142
 21
21.003
  0
LINE
  8
0
 10
40.3142
 20
21.003
 11
40.2846
 21
21.0736
  0
LINE
  8
0
 10
40.2846
 20
21.0736
 11
40.2527
 21
21.1498
  0
LINE
  8
0
 10
40.2527
 20
21.1498
 11
40.2163
 21
21.2121
  0
LINE
  8
0
 10
40.2163
 20
21.2121
 11
40.1762
 21
21.2807
  0
LINE
  8
0
 10
40.1762
 20
21.2807
 11
40.1341
 21
21.3334
  0
LINE
  8
0
 10
40.1341
 20
21.3334
 11
40.0868
 21
21.3926
  0
LINE
  8
0
 10
40.0868
 20
21.3926
 11
40.0398
 21
21.4346
  0
LINE
  8
0
 10
40.0398
 20
21.4346
 11
39.9864
 21
21.4825
  0
LINE
  8
0
 10
39.9864
 20
21.4825
 11
39.9359
 21
21.5132
  0
LINE
  8
0
 10
39.9359
 20
21.5132
 11
39.8777
 21
21.5484
  0
LINE
  8
0
 10
39.8777
 20
21.5484
 11
39.8247
 21
21.567
  0
LINE
  8
0
 10
39.8247
 20
21.567
 11
39.7632
 21
21.5886
  0
LINE
  8
0
 10
39.7632
 20
21.5886
 11
39.6459
 21
21.6021
  0
LINE
  8
0
 10
39.6459
 20
21.6021
 11
36.5
 21
21.6021
  0
LINE
  8
0
 10
36.5
 20
21.6021
 11
36.5
 21
17.968
  0
LINE
  8
0
 10
36.5
 20
28.918
 11
39.6459
 21
28.918
  0
LINE
  8
0
 10
39.6459
 20
28.918
 11
39.7632
 21
28.9315
  0
LINE
  8
0
 10
39.7632
 20
28.9315
 11
39.7854
 21
28.9393
  0
LINE
  8
0
 10
39.7854
 20
28.9393
 11
39.8777
 21
28.9717
  0
LINE
  8
0
 10
39.8777
 20
28.9717
 11
39.8986
 21
28.9844
  0
LINE
  8
0
 10
39.8986
 20
28.9844
 11
39.9864
 21
29.0376
  0
LINE
  8
0
 10
39.9864
 20
29.0376
 11
40.0868
 21
29.1276
  0
LINE
  8
0
 10
40.0868
 20
29.1276
 11
40.1762
 21
29.2394
  0
LINE
  8
0
 10
40.1762
 20
29.2394
 11
40.1902
 21
29.2632
  0
LINE
  8
0
 10
40.1902
 20
29.2632
 11
40.2527
 21
29.3703
  0
LINE
  8
0
 10
40.2527
 20
29.3703
 11
40.2636
 21
29.3963
  0
LINE
  8
0
 10
40.2636
 20
29.3963
 11
40.3142
 21
29.5172
  0
LINE
  8
0
 10
40.3142
 20
29.5172
 11
40.3219
 21
29.5445
  0
LINE
  8
0
 10
40.3219
 20
29.5445
 11
40.3592
 21
29.6763
  0
LINE
  8
0
 10
40.3592
 20
29.6763
 11
40.3638
 21
29.704
  0
LINE
  8
0
 10
40.3638
 20
29.704
 11
40.3867
 21
29.8437
  0
LINE
  8
0
 10
40.3867
 20
29.8437
 11
40.3882
 21
29.8711
  0
LINE
  8
0
 10
40.3882
 20
29.8711
 11
40.3959
 21
30.0154
  0
LINE
  8
0
 10
40.3959
 20
30.0154
 11
40.3959
 21
40
  0
LINE
  8
0
 10
40.3959
 20
40
 11
41.8959
 21
41.5
  0
LINE
  8
0
 10
41.8959
 20
41.5
 11
47
 21
41.5
  0
LINE
  8
0
 10
47
 20
41.5
 11
47.5
 21
42
  0
LINE
  8
0
 10
47.5
 20
42
 11
47.5
 21
45.5
  0
LINE
  8
0
 10
47.5
 20
45.5
 11
36.5
 21
45.5
  0
LINE
  8
0
 10
36.5
 20
45.5
 11
36.5
 21
28.918
  0
ENDSEC
  0
SECTION
  2
OBJECTS
  0
DICTIONARY
  0
ENDSEC
  0
EOF
