  0
SECTION
  2
BLOCKS
  0
ENDSEC
  0
SECTION
  2
ENTITIES
  0
LINE
  8
0
 10
0
 20
0
 11
11
 21
0
  0
LINE
  8
0
 10
11
 20
0
 11
11
 21
11.1681
  0
LINE
  8
0
 10
11
 20
11.1681
 11
7.85409
 21
11.1681
  0
LINE
  8
0
 10
7.85409
 20
11.1681
 11
7.83938
 21
11.1669
  0
LINE
  8
0
 10
7.83938
 20
11.1669
 11
7.73676
 21
11.1586
  0
LINE
  8
0
 10
7.73676
 20
11.1586
 11
7.72307
 21
11.1553
  0
LINE
  8
0
 10
7.72307
 20
11.1553
 11
7.62232
 21
11.1305
  0
LINE
  8
0
 10
7.62232
 20
11.1305
 11
7.61073
 21
11.1255
  0
LINE
  8
0
 10
7.61073
 20
11.1255
 11
7.51359
 21
11.0842
  0
LINE
  8
0
 10
7.51359
 20
11.0842
 11
7.50483
 21
11.0787
  0
LINE
  8
0
 10
7.50483
 20
11.0787
 11
7.41325
 21
11.0212
  0
LINE
  8
0
 10
7.41325
 20
11.0212
 11
7.40761
 21
11.0162
  0
LINE
  8
0
 10
7.40761
 20
11.0162
 11
7.32376
 21
10.9428
  0
LINE
  8
0
 10
7.32376
 20
10.9428
 11
7.32107
 21
10.9395
  0
LINE
  8
0
 10
7.32107
 20
10.9395
 11
7.24732
 21
10.8509
  0
LINE
  8
0
 10
7.24732
 20
10.8509
 11
7.24703
 21
10.8504
  0
LINE
  8
0
 10
7.24703
 20
10.8504
 11
7.23816
 21
10.8356
  0
LINE
  8
0
 10
7.23816
 20
10.8356
 11
7.18755
 21
10.7531
  0
LINE
  8
0
 10
7.18755
 20
10.7531
 11
7.18583
 21
10.7503
  0
LINE
  8
0
 10
7.18583
 20
10.7503
 11
7.14355
 21
10.6483
  0
LINE
  8
0
 10
7.14355
 20
10.6483
 11
7.14079
 21
10.6416
  0
LINE
  8
0
 10
7.14079
 20
10.6416
 11
7.11589
 21
10.538
  0
LINE
  8
0
 10
7.11589
 20
10.538
 11
7.11332
 21
10.5272
  0
LINE
  8
0
 10
7.11332
 20
10.5272
 11
7.10524
 21
10.4246
  0
LINE
  8
0
 10
7.10524
 20
10.4246
 11
7.10409
 21
10.41
  0
LINE
  8
0
 10
7.10409
 20
10.41
 11
7.10409
 21
5.5
  0
LINE
  8
0
 10
7.10409
 20
5.5
 11
5.60409
 21
4
  0
LINE
  8
0
 10
5.60409
 20
4
 11
0.499999
 21
4
  0
LINE
  8
0
 10
0.499999
 20
4
 11
0
 21
3.5
  0
LINE
  8
0
 10
0
 20
3.5
 11
0
 21
0
  0
LINE
  8
0
 10
0
 20
42
 11
0.499999
 21
41.5
  0
LINE
  8
0
 10
0.499999
 20
41.5
 11
5.60409
 21
41.5
  0
LINE
  8
0
 10
5.60409
 20
41.5
 11
7.10409
 21
40
  0
LINE
  8
0
 10
7.10409
 20
40
 11
7.10409
 21
29.8017
  0
LINE
  8
0
 10
7.10409
 20
29.8017
 11
7.10566
 21
29.7725
  0
LINE
  8
0
 10
7.10566
 20
29.7725
 11
7.11332
 21
29.6301
  0
LINE
  8
0
 10
7.11332
 20
29.6301
 11
7.11817
 21
29.6005
  0
LINE
  8
0
 10
7.11817
 20
29.6005
 11
7.14079
 21
29.4626
  0
LINE
  8
0
 10
7.14079
 20
29.4626
 11
7.14902
 21
29.4336
  0
LINE
  8
0
 10
7.14902
 20
29.4336
 11
7.18583
 21
29.3035
  0
LINE
  8
0
 10
7.18583
 20
29.3035
 11
7.19741
 21
29.2759
  0
LINE
  8
0
 10
7.19741
 20
29.2759
 11
7.24732
 21
29.1567
  0
LINE
  8
0
 10
7.24732
 20
29.1567
 11
7.26212
 21
29.1314
  0
LINE
  8
0
 10
7.26212
 20
29.1314
 11
7.32376
 21
29.0258
  0
LINE
  8
0
 10
7.32376
 20
29.0258
 11
7.41325
 21
28.9139
  0
LINE
  8
0
 10
7.41325
 20
28.9139
 11
7.51359
 21
28.824
  0
LINE
  8
0
 10
7.51359
 20
28.824
 11
7.53592
 21
28.8104
  0
LINE
  8
0
 10
7.53592
 20
28.8104
 11
7.62232
 21
28.7581
  0
LINE
  8
0
 10
7.62232
 20
28.7581
 11
7.64607
 21
28.7497
  0
LINE
  8
0
 10
7.64607
 20
28.7497
 11
7.73676
 21
28.7179
  0
LINE
  8
0
 10
7.73676
 20
28.7179
 11
7.85409
 21
28.7044
  0
LINE
  8
0
 10
7.85409
 20
28.7044
 11
11
 21
28.7044
  0
LINE
  8
0
 10
11
 20
28.7044
 11
11
 21
45.5
  0
LINE
  8
0
 10
11
 20
45.5
 11
0
 21
45.5
  0
LINE
  8
0
 10
0
 20
45.5
 11
0
 21
42
  0
LINE
  8
0
 10
7.10409
 20
18.8518
 11
7.10959
 21
18.7495
  0
LINE
  8
0
 10
7.10959
 20
18.7495
 11
7.11332
 21
18.6801
  0
LINE
  8
0
 10
7.11332
 20
18.6801
 11
7.13003
 21
18.5782
  0
LINE
  8
0
 10
7.13003
 20
18.5782
 11
7.14079
 21
18.5126
  0
LINE
  8
0
 10
7.14079
 20
18.5126
 11
7.16873
 21
18.414
  0
LINE
  8
0
 10
7.16873
 20
18.414
 11
7.18583
 21
18.3536
  0
LINE
  8
0
 10
7.18583
 20
18.3536
 11
7.22466
 21
18.2608
  0
LINE
  8
0
 10
7.22466
 20
18.2608
 11
7.24732
 21
18.2067
  0
LINE
  8
0
 10
7.24732
 20
18.2067
 11
7.29636
 21
18.1227
  0
LINE
  8
0
 10
7.29636
 20
18.1227
 11
7.32376
 21
18.0758
  0
LINE
  8
0
 10
7.32376
 20
18.0758
 11
7.38195
 21
18.0031
  0
LINE
  8
0
 10
7.38195
 20
18.0031
 11
7.41325
 21
17.964
  0
LINE
  8
0
 10
7.41325
 20
17.964
 11
7.47922
 21
17.9048
  0
LINE
  8
0
 10
7.47922
 20
17.9048
 11
7.51359
 21
17.874
  0
LINE
  8
0
 10
7.51359
 20
17.874
 11
7.58567
 21
17.8303
  0
LINE
  8
0
 10
7.58567
 20
17.8303
 11
7.62232
 21
17.8081
  0
LINE
  8
0
 10
7.62232
 20
17.8081
 11
7.69859
 21
17.7813
  0
LINE
  8
0
 10
7.69859
 20
17.7813
 11
7.73676
 21
17.7679
  0
LINE
  8
0
 10
7.73676
 20
17.7679
 11
7.85409
 21
17.7544
  0
LINE
  8
0
 10
7.85409
 20
17.7544
 11
11
 21
17.7544
  0
LINE
  8
0
 10
11
 20
17.7544
 11
11
 21
21.3885
  0
LINE
  8
0
 10
11
 20
21.3885
 11
7.85409
 21
21.3885
  0
LINE
  8
0
 10
7.85409
 20
21.3885
 11
7.73676
 21
21.375
  0
LINE
  8
0
 10
7.73676
 20
21.375
 11
7.68213
 21
21.3558
  0
LINE
  8
0
 10
7.68213
 20
21.3558
 11
7.62232
 21
21.3348
  0
LINE
  8
0
 10
7.62232
 20
21.3348
 11
7.57021
 21
21.3032
  0
LINE
  8
0
 10
7.57021
 20
21.3032
 11
7.51359
 21
21.2689
  0
LINE
  8
0
 10
7.51359
 20
21.2689
 11
7.46521
 21
21.2255
  0
LINE
  8
0
 10
7.46521
 20
21.2255
 11
7.41325
 21
21.1789
  0
LINE
  8
0
 10
7.41325
 20
21.1789
 11
7.36977
 21
21.1246
  0
LINE
  8
0
 10
7.36977
 20
21.1246
 11
7.32376
 21
21.0671
  0
LINE
  8
0
 10
7.32376
 20
21.0671
 11
7.28628
 21
21.0029
  0
LINE
  8
0
 10
7.28628
 20
21.0029
 11
7.24732
 21
20.9362
  0
LINE
  8
0
 10
7.24732
 20
20.9362
 11
7.21686
 21
20.8634
  0
LINE
  8
0
 10
7.21686
 20
20.8634
 11
7.18583
 21
20.7893
  0
LINE
  8
0
 10
7.18583
 20
20.7893
 11
7.16327
 21
20.7096
  0
LINE
  8
0
 10
7.16327
 20
20.7096
 11
7.14079
 21
20.6303
  0
LINE
  8
0
 10
7.14079
 20
20.6303
 11
7.12687
 21
20.5454
  0
LINE
  8
0
 10
7.12687
 20
20.5454
 11
7.11332
 21
20.4628
  0
LINE
  8
0
 10
7.11332
 20
20.4628
 11
7.10858
 21
20.3747
  0
LINE
  8
0
 10
7.10858
 20
20.3747
 11
7.10409
 21
20.2911
  0
LINE
  8
0
 10
7.10409
 20
20.2911
 11
7.10409
 21
18.8518
  0
LINE
  8
0
 10
36.5
 20
0
 11
47.5
 21
0
  0
LINE
  8
0
 10
47.5
 20
0
 11
47.5
 21
3.5
  0
LINE
  8
0
 10
47.5
 20
3.5
 11
47
 21
4
  0
LINE
  8
0
 10
47
 20
4
 11
41.8959
 21
4
  0
LINE
  8
0
 10
41.8959
 20
4
 11
40.3959
 21
5.5
  0
LINE
  8
0
 10
40.3959
 20
5.5
 11
40.3959
 21
10.41
  0
LINE
  8
0
 10
40.3959
 20
10.41
 11
40.3875
 21
10.5163
  0
LINE
  8
0
 10
40.3875
 20
10.5163
 11
40.3867
 21
10.5272
  0
LINE
  8
0
 10
40.3867
 20
10.5272
 11
40.3609
 21
10.6346
  0
LINE
  8
0
 10
40.3609
 20
10.6346
 11
40.3592
 21
10.6416
  0
LINE
  8
0
 10
40.3592
 20
10.6416
 11
40.3154
 21
10.7472
  0
LINE
  8
0
 10
40.3154
 20
10.7472
 11
40.3142
 21
10.7503
  0
LINE
  8
0
 10
40.3142
 20
10.7503
 11
40.2618
 21
10.8356
  0
LINE
  8
0
 10
40.2618
 20
10.8356
 11
40.2527
 21
10.8509
  0
LINE
  8
0
 10
40.2527
 20
10.8509
 11
40.2523
 21
10.8515
  0
LINE
  8
0
 10
40.2523
 20
10.8515
 11
40.1762
 21
10.9428
  0
LINE
  8
0
 10
40.1762
 20
10.9428
 11
40.1727
 21
10.9459
  0
LINE
  8
0
 10
40.1727
 20
10.9459
 11
40.0868
 21
11.0212
  0
LINE
  8
0
 10
40.0868
 20
11.0212
 11
40.0797
 21
11.0256
  0
LINE
  8
0
 10
40.0797
 20
11.0256
 11
39.9864
 21
11.0842
  0
LINE
  8
0
 10
39.9864
 20
11.0842
 11
39.9761
 21
11.0886
  0
LINE
  8
0
 10
39.9761
 20
11.0886
 11
39.8777
 21
11.1305
  0
LINE
  8
0
 10
39.8777
 20
11.1305
 11
39.8648
 21
11.1336
  0
LINE
  8
0
 10
39.8648
 20
11.1336
 11
39.7632
 21
11.1586
  0
LINE
  8
0
 10
39.7632
 20
11.1586
 11
39.7488
 21
11.1598
  0
LINE
  8
0
 10
39.7488
 20
11.1598
 11
39.6459
 21
11.1681
  0
LINE
  8
0
 10
39.6459
 20
11.1681
 11
36.5
 21
11.1681
  0
LINE
  8
0
 10
36.5
 20
11.1681
 11
36.5
 21
0
  0
LINE
  8
0
 10
36.5
 20
17.7544
 11
39.6459
 21
17.7544
  0
LINE
  8
0
 10
39.6459
 20
17.7544
 11
39.7632
 21
17.7679
  0
LINE
  8
0
 10
39.7632
 20
17.7679
 11
39.8394
 21
17.7946
  0
LINE
  8
0
 10
39.8394
 20
17.7946
 11
39.8777
 21
17.8081
  0
LINE
  8
0
 10
39.8777
 20
17.8081
 11
39.9496
 21
17.8517
  0
LINE
  8
0
 10
39.9496
 20
17.8517
 11
39.9864
 21
17.874
  0
LINE
  8
0
 10
39.9864
 20
17.874
 11
40.0522
 21
17.9329
  0
LINE
  8
0
 10
40.0522
 20
17.9329
 11
40.0868
 21
17.964
  0
LINE
  8
0
 10
40.0868
 20
17.964
 11
40.1447
 21
18.0364
  0
LINE
  8
0
 10
40.1447
 20
18.0364
 11
40.1762
 21
18.0758
  0
LINE
  8
0
 10
40.1762
 20
18.0758
 11
40.2251
 21
18.1594
  0
LINE
  8
0
 10
40.2251
 20
18.1594
 11
40.2527
 21
18.2067
  0
LINE
  8
0
 10
40.2527
 20
18.2067
 11
40.2913
 21
18.299
  0
LINE
  8
0
 10
40.2913
 20
18.299
 11
40.3142
 21
18.3536
  0
LINE
  8
0
 10
40.3142
 20
18.3536
 11
40.342
 21
18.4518
  0
LINE
  8
0
 10
40.342
 20
18.4518
 11
40.3592
 21
18.5126
  0
LINE
  8
0
 10
40.3592
 20
18.5126
 11
40.3758
 21
18.6141
  0
LINE
  8
0
 10
40.3758
 20
18.6141
 11
40.3867
 21
18.6801
  0
LINE
  8
0
 10
40.3867
 20
18.6801
 11
40.3922
 21
18.782
  0
LINE
  8
0
 10
40.3922
 20
18.782
 11
40.3959
 21
18.8518
  0
LINE
  8
0
 10
40.3959
 20
18.8518
 11
40.3959
 21
20.2911
  0
LINE
  8
0
 10
40.3959
 20
20.2911
 11
40.3912
 21
20.3792
  0
LINE
  8
0
 10
40.3912
 20
20.3792
 11
40.3867
 21
20.4628
  0
LINE
  8
0
 10
40.3867
 20
20.4628
 11
40.3728
 21
20.5477
  0
LINE
  8
0
 10
40.3728
 20
20.5477
 11
40.3592
 21
20.6303
  0
LINE
  8
0
 10
40.3592
 20
20.6303
 11
40.3366
 21
20.71
  0
LINE
  8
0
 10
40.3366
 20
20.71
 11
40.3142
 21
20.7893
  0
LINE
  8
0
 10
40.3142
 20
20.7893
 11
40.2837
 21
20.8621
  0
LINE
  8
0
 10
40.2837
 20
20.8621
 11
40.2527
 21
20.9362
  0
LINE
  8
0
 10
40.2527
 20
20.9362
 11
40.2152
 21
21.0004
  0
LINE
  8
0
 10
40.2152
 20
21.0004
 11
40.1762
 21
21.0671
  0
LINE
  8
0
 10
40.1762
 20
21.0671
 11
40.1328
 21
21.1215
  0
LINE
  8
0
 10
40.1328
 20
21.1215
 11
40.0868
 21
21.1789
  0
LINE
  8
0
 10
40.0868
 20
21.1789
 11
40.0384
 21
21.2223
  0
LINE
  8
0
 10
40.0384
 20
21.2223
 11
39.9864
 21
21.2689
  0
LINE
  8
0
 10
39.9864
 20
21.2689
 11
39.9343
 21
21.3005
  0
LINE
  8
0
 10
39.9343
 20
21.3005
 11
39.8777
 21
21.3348
  0
LINE
  8
0
 10
39.8777
 20
21.3348
 11
39.823
 21
21.354
  0
LINE
  8
0
 10
39.823
 20
21.354
 11
39.7632
 21
21.375
  0
LINE
  8
0
 10
39.7632
 20
21.375
 11
39.6459
 21
21.3885
  0
LINE
  8
0
 10
39.6459
 20
21.3885
 11
36.5
 21
21.3885
  0
LINE
  8
0
 10
36.5
 20
21.3885
 11
36.5
 21
17.7544
  0
LINE
  8
0
 10
36.5
 20
28.7044
 11
39.6459
 21
28.7044
  0
LINE
  8
0
 10
39.6459
 20
28.7044
 11
39.7632
 21
28.7179
  0
LINE
  8
0
 10
39.7632
 20
28.7179
 11
39.7871
 21
28.7262
  0
LINE
  8
0
 10
39.7871
 20
28.7262
 11
39.8777
 21
28.7581
  0
LINE
  8
0
 10
39.8777
 20
28.7581
 11
39.9002
 21
28.7717
  0
LINE
  8
0
 10
39.9002
 20
28.7717
 11
39.9864
 21
28.824
  0
LINE
  8
0
 10
39.9864
 20
28.824
 11
40.0868
 21
28.9139
  0
LINE
  8
0
 10
40.0868
 20
28.9139
 11
40.1762
 21
29.0258
  0
LINE
  8
0
 10
40.1762
 20
29.0258
 11
40.1913
 21
29.0515
  0
LINE
  8
0
 10
40.1913
 20
29.0515
 11
40.2527
 21
29.1567
  0
LINE
  8
0
 10
40.2527
 20
29.1567
 11
40.2645
 21
29.1849
  0
LINE
  8
0
 10
40.2645
 20
29.1849
 11
40.3142
 21
29.3035
  0
LINE
  8
0
 10
40.3142
 20
29.3035
 11
40.3226
 21
29.3332
  0
LINE
  8
0
 10
40.3226
 20
29.3332
 11
40.3592
 21
29.4626
  0
LINE
  8
0
 10
40.3592
 20
29.4626
 11
40.3642
 21
29.4928
  0
LINE
  8
0
 10
40.3642
 20
29.4928
 11
40.3867
 21
29.6301
  0
LINE
  8
0
 10
40.3867
 20
29.6301
 11
40.3883
 21
29.66
  0
LINE
  8
0
 10
40.3883
 20
29.66
 11
40.3959
 21
29.8017
  0
LINE
  8
0
 10
40.3959
 20
29.8017
 11
40.3959
 21
40
  0
LINE
  8
0
 10
40.3959
 20
40
 11
41.8959
 21
41.5
  0
LINE
  8
0
 10
41.8959
 20
41.5
 11
47
 21
41.5
  0
LINE
  8
0
 10
47
 20
41.5
 11
47.5
 21
42
  0
LINE
  8
0
 10
47.5
 20
42
 11
47.5
 21
45.5
  0
LINE
  8
0
 10
47.5
 20
45.5
 11
36.5
 21
45.5
  0
LINE
  8
0
 10
36.5
 20
45.5
 11
36.5
 21
28.7044
  0
ENDSEC
  0
SECTION
  2
OBJECTS
  0
DICTIONARY
  0
ENDSEC
  0
EOF
