  0
SECTION
  2
BLOCKS
  0
ENDSEC
  0
SECTION
  2
ENTITIES
  0
LINE
  8
0
 10
0
 20
0
 11
11
 21
0
  0
LINE
  8
0
 10
11
 20
0
 11
11
 21
11.1446
  0
LINE
  8
0
 10
11
 20
11.1446
 11
7.85409
 21
11.1446
  0
LINE
  8
0
 10
7.85409
 20
11.1446
 11
7.77958
 21
11.1388
  0
LINE
  8
0
 10
7.77958
 20
11.1388
 11
7.73676
 21
11.1354
  0
LINE
  8
0
 10
7.73676
 20
11.1354
 11
7.66482
 21
11.1181
  0
LINE
  8
0
 10
7.66482
 20
11.1181
 11
7.62232
 21
11.1079
  0
LINE
  8
0
 10
7.62232
 20
11.1079
 11
7.55508
 21
11.0801
  0
LINE
  8
0
 10
7.55508
 20
11.0801
 11
7.51359
 21
11.0629
  0
LINE
  8
0
 10
7.51359
 20
11.0629
 11
7.45288
 21
11.0258
  0
LINE
  8
0
 10
7.45288
 20
11.0258
 11
7.41325
 21
11.0015
  0
LINE
  8
0
 10
7.41325
 20
11.0015
 11
7.36051
 21
10.9565
  0
LINE
  8
0
 10
7.36051
 20
10.9565
 11
7.32376
 21
10.9251
  0
LINE
  8
0
 10
7.32376
 20
10.9251
 11
7.28003
 21
10.8739
  0
LINE
  8
0
 10
7.28003
 20
10.8739
 11
7.24732
 21
10.8357
  0
LINE
  8
0
 10
7.24732
 20
10.8357
 11
7.21326
 21
10.7801
  0
LINE
  8
0
 10
7.21326
 20
10.7801
 11
7.18583
 21
10.7354
  0
LINE
  8
0
 10
7.18583
 20
10.7354
 11
7.1617
 21
10.6772
  0
LINE
  8
0
 10
7.1617
 20
10.6772
 11
7.14079
 21
10.6267
  0
LINE
  8
0
 10
7.14079
 20
10.6267
 11
7.12656
 21
10.5675
  0
LINE
  8
0
 10
7.12656
 20
10.5675
 11
7.11332
 21
10.5124
  0
LINE
  8
0
 10
7.11332
 20
10.5124
 11
7.10869
 21
10.4536
  0
LINE
  8
0
 10
7.10869
 20
10.4536
 11
7.10409
 21
10.3951
  0
LINE
  8
0
 10
7.10409
 20
10.3951
 11
7.10409
 21
5.5
  0
LINE
  8
0
 10
7.10409
 20
5.5
 11
5.60409
 21
4
  0
LINE
  8
0
 10
5.60409
 20
4
 11
0.499999
 21
4
  0
LINE
  8
0
 10
0.499999
 20
4
 11
0
 21
3.5
  0
LINE
  8
0
 10
0
 20
3.5
 11
0
 21
0
  0
LINE
  8
0
 10
0
 20
42
 11
0.499999
 21
41.5
  0
LINE
  8
0
 10
0.499999
 20
41.5
 11
5.60409
 21
41.5
  0
LINE
  8
0
 10
5.60409
 20
41.5
 11
7.10409
 21
40
  0
LINE
  8
0
 10
7.10409
 20
40
 11
7.10409
 21
29.5881
  0
LINE
  8
0
 10
7.10409
 20
29.5881
 11
7.1058
 21
29.5564
  0
LINE
  8
0
 10
7.1058
 20
29.5564
 11
7.11332
 21
29.4164
  0
LINE
  8
0
 10
7.11332
 20
29.4164
 11
7.11857
 21
29.3844
  0
LINE
  8
0
 10
7.11857
 20
29.3844
 11
7.14079
 21
29.249
  0
LINE
  8
0
 10
7.14079
 20
29.249
 11
7.14968
 21
29.2176
  0
LINE
  8
0
 10
7.14968
 20
29.2176
 11
7.18583
 21
29.0899
  0
LINE
  8
0
 10
7.18583
 20
29.0899
 11
7.19832
 21
29.0601
  0
LINE
  8
0
 10
7.19832
 20
29.0601
 11
7.24732
 21
28.9431
  0
LINE
  8
0
 10
7.24732
 20
28.9431
 11
7.26325
 21
28.9158
  0
LINE
  8
0
 10
7.26325
 20
28.9158
 11
7.32376
 21
28.8122
  0
LINE
  8
0
 10
7.32376
 20
28.8122
 11
7.41325
 21
28.7003
  0
LINE
  8
0
 10
7.41325
 20
28.7003
 11
7.51359
 21
28.6103
  0
LINE
  8
0
 10
7.51359
 20
28.6103
 11
7.53751
 21
28.5958
  0
LINE
  8
0
 10
7.53751
 20
28.5958
 11
7.62232
 21
28.5444
  0
LINE
  8
0
 10
7.62232
 20
28.5444
 11
7.64775
 21
28.5355
  0
LINE
  8
0
 10
7.64775
 20
28.5355
 11
7.73676
 21
28.5043
  0
LINE
  8
0
 10
7.73676
 20
28.5043
 11
7.85409
 21
28.4907
  0
LINE
  8
0
 10
7.85409
 20
28.4907
 11
11
 21
28.4907
  0
LINE
  8
0
 10
11
 20
28.4907
 11
11
 21
45.5
  0
LINE
  8
0
 10
11
 20
45.5
 11
0
 21
45.5
  0
LINE
  8
0
 10
0
 20
45.5
 11
0
 21
42
  0
LINE
  8
0
 10
7.10409
 20
18.6381
 11
7.10986
 21
18.5308
  0
LINE
  8
0
 10
7.10986
 20
18.5308
 11
7.11332
 21
18.4665
  0
LINE
  8
0
 10
7.11332
 20
18.4665
 11
7.13085
 21
18.3597
  0
LINE
  8
0
 10
7.13085
 20
18.3597
 11
7.14079
 21
18.299
  0
LINE
  8
0
 10
7.14079
 20
18.299
 11
7.17006
 21
18.1956
  0
LINE
  8
0
 10
7.17006
 20
18.1956
 11
7.18583
 21
18.1399
  0
LINE
  8
0
 10
7.18583
 20
18.1399
 11
7.22648
 21
18.0429
  0
LINE
  8
0
 10
7.22648
 20
18.0429
 11
7.24732
 21
17.9931
  0
LINE
  8
0
 10
7.24732
 20
17.9931
 11
7.29861
 21
17.9052
  0
LINE
  8
0
 10
7.29861
 20
17.9052
 11
7.32376
 21
17.8622
  0
LINE
  8
0
 10
7.32376
 20
17.8622
 11
7.38459
 21
17.7861
  0
LINE
  8
0
 10
7.38459
 20
17.7861
 11
7.41325
 21
17.7503
  0
LINE
  8
0
 10
7.41325
 20
17.7503
 11
7.48217
 21
17.6885
  0
LINE
  8
0
 10
7.48217
 20
17.6885
 11
7.51359
 21
17.6604
  0
LINE
  8
0
 10
7.51359
 20
17.6604
 11
7.58886
 21
17.6147
  0
LINE
  8
0
 10
7.58886
 20
17.6147
 11
7.62232
 21
17.5945
  0
LINE
  8
0
 10
7.62232
 20
17.5945
 11
7.70195
 21
17.5665
  0
LINE
  8
0
 10
7.70195
 20
17.5665
 11
7.73676
 21
17.5543
  0
LINE
  8
0
 10
7.73676
 20
17.5543
 11
7.85409
 21
17.5408
  0
LINE
  8
0
 10
7.85409
 20
17.5408
 11
11
 21
17.5408
  0
LINE
  8
0
 10
11
 20
17.5408
 11
11
 21
21.1749
  0
LINE
  8
0
 10
11
 20
21.1749
 11
7.85409
 21
21.1749
  0
LINE
  8
0
 10
7.85409
 20
21.1749
 11
7.73676
 21
21.1614
  0
LINE
  8
0
 10
7.73676
 20
21.1614
 11
7.68045
 21
21.1416
  0
LINE
  8
0
 10
7.68045
 20
21.1416
 11
7.62232
 21
21.1212
  0
LINE
  8
0
 10
7.62232
 20
21.1212
 11
7.56861
 21
21.0886
  0
LINE
  8
0
 10
7.56861
 20
21.0886
 11
7.51359
 21
21.0553
  0
LINE
  8
0
 10
7.51359
 20
21.0553
 11
7.46374
 21
21.0106
  0
LINE
  8
0
 10
7.46374
 20
21.0106
 11
7.41325
 21
20.9653
  0
LINE
  8
0
 10
7.41325
 20
20.9653
 11
7.36845
 21
20.9093
  0
LINE
  8
0
 10
7.36845
 20
20.9093
 11
7.32376
 21
20.8535
  0
LINE
  8
0
 10
7.32376
 20
20.8535
 11
7.28516
 21
20.7874
  0
LINE
  8
0
 10
7.28516
 20
20.7874
 11
7.24732
 21
20.7225
  0
LINE
  8
0
 10
7.24732
 20
20.7225
 11
7.21596
 21
20.6476
  0
LINE
  8
0
 10
7.21596
 20
20.6476
 11
7.18583
 21
20.5757
  0
LINE
  8
0
 10
7.18583
 20
20.5757
 11
7.1626
 21
20.4937
  0
LINE
  8
0
 10
7.1626
 20
20.4937
 11
7.14079
 21
20.4166
  0
LINE
  8
0
 10
7.14079
 20
20.4166
 11
7.12646
 21
20.3293
  0
LINE
  8
0
 10
7.12646
 20
20.3293
 11
7.11332
 21
20.2492
  0
LINE
  8
0
 10
7.11332
 20
20.2492
 11
7.10845
 21
20.1586
  0
LINE
  8
0
 10
7.10845
 20
20.1586
 11
7.10409
 21
20.0775
  0
LINE
  8
0
 10
7.10409
 20
20.0775
 11
7.10409
 21
18.6381
  0
LINE
  8
0
 10
36.5
 20
0
 11
47.5
 21
0
  0
LINE
  8
0
 10
47.5
 20
0
 11
47.5
 21
3.5
  0
LINE
  8
0
 10
47.5
 20
3.5
 11
47
 21
4
  0
LINE
  8
0
 10
47
 20
4
 11
41.8959
 21
4
  0
LINE
  8
0
 10
41.8959
 20
4
 11
40.3959
 21
5.5
  0
LINE
  8
0
 10
40.3959
 20
5.5
 11
40.3959
 21
10.3951
  0
LINE
  8
0
 10
40.3959
 20
10.3951
 11
40.3911
 21
10.4561
  0
LINE
  8
0
 10
40.3911
 20
10.4561
 11
40.3867
 21
10.5124
  0
LINE
  8
0
 10
40.3867
 20
10.5124
 11
40.3719
 21
10.5738
  0
LINE
  8
0
 10
40.3719
 20
10.5738
 11
40.3592
 21
10.6267
  0
LINE
  8
0
 10
40.3592
 20
10.6267
 11
40.3342
 21
10.6871
  0
LINE
  8
0
 10
40.3342
 20
10.6871
 11
40.3142
 21
10.7354
  0
LINE
  8
0
 10
40.3142
 20
10.7354
 11
40.2789
 21
10.7929
  0
LINE
  8
0
 10
40.2789
 20
10.7929
 11
40.2527
 21
10.8357
  0
LINE
  8
0
 10
40.2527
 20
10.8357
 11
40.2075
 21
10.8885
  0
LINE
  8
0
 10
40.2075
 20
10.8885
 11
40.1762
 21
10.9251
  0
LINE
  8
0
 10
40.1762
 20
10.9251
 11
40.122
 21
10.9714
  0
LINE
  8
0
 10
40.122
 20
10.9714
 11
40.0868
 21
11.0015
  0
LINE
  8
0
 10
40.0868
 20
11.0015
 11
40.0246
 21
11.0395
  0
LINE
  8
0
 10
40.0246
 20
11.0395
 11
39.9864
 21
11.0629
  0
LINE
  8
0
 10
39.9864
 20
11.0629
 11
39.918
 21
11.0913
  0
LINE
  8
0
 10
39.918
 20
11.0913
 11
39.8777
 21
11.1079
  0
LINE
  8
0
 10
39.8777
 20
11.1079
 11
39.805
 21
11.1254
  0
LINE
  8
0
 10
39.805
 20
11.1254
 11
39.7632
 21
11.1354
  0
LINE
  8
0
 10
39.7632
 20
11.1354
 11
39.6885
 21
11.1413
  0
LINE
  8
0
 10
39.6885
 20
11.1413
 11
39.6459
 21
11.1446
  0
LINE
  8
0
 10
39.6459
 20
11.1446
 11
36.5
 21
11.1446
  0
LINE
  8
0
 10
36.5
 20
11.1446
 11
36.5
 21
0
  0
LINE
  8
0
 10
36.5
 20
17.5408
 11
39.6459
 21
17.5408
  0
LINE
  8
0
 10
39.6459
 20
17.5408
 11
39.7632
 21
17.5543
  0
LINE
  8
0
 10
39.7632
 20
17.5543
 11
39.8427
 21
17.5822
  0
LINE
  8
0
 10
39.8427
 20
17.5822
 11
39.8777
 21
17.5945
  0
LINE
  8
0
 10
39.8777
 20
17.5945
 11
39.9527
 21
17.64
  0
LINE
  8
0
 10
39.9527
 20
17.64
 11
39.9864
 21
17.6604
  0
LINE
  8
0
 10
39.9864
 20
17.6604
 11
40.0551
 21
17.7219
  0
LINE
  8
0
 10
40.0551
 20
17.7219
 11
40.0868
 21
17.7503
  0
LINE
  8
0
 10
40.0868
 20
17.7503
 11
40.1473
 21
17.826
  0
LINE
  8
0
 10
40.1473
 20
17.826
 11
40.1762
 21
17.8622
  0
LINE
  8
0
 10
40.1762
 20
17.8622
 11
40.2273
 21
17.9496
  0
LINE
  8
0
 10
40.2273
 20
17.9496
 11
40.2527
 21
17.9931
  0
LINE
  8
0
 10
40.2527
 20
17.9931
 11
40.2931
 21
18.0897
  0
LINE
  8
0
 10
40.2931
 20
18.0897
 11
40.3142
 21
18.1399
  0
LINE
  8
0
 10
40.3142
 20
18.1399
 11
40.3433
 21
18.2428
  0
LINE
  8
0
 10
40.3433
 20
18.2428
 11
40.3592
 21
18.299
  0
LINE
  8
0
 10
40.3592
 20
18.299
 11
40.3766
 21
18.4053
  0
LINE
  8
0
 10
40.3766
 20
18.4053
 11
40.3867
 21
18.4665
  0
LINE
  8
0
 10
40.3867
 20
18.4665
 11
40.3924
 21
18.5733
  0
LINE
  8
0
 10
40.3924
 20
18.5733
 11
40.3959
 21
18.6381
  0
LINE
  8
0
 10
40.3959
 20
18.6381
 11
40.3959
 21
20.0775
  0
LINE
  8
0
 10
40.3959
 20
20.0775
 11
40.391
 21
20.1681
  0
LINE
  8
0
 10
40.391
 20
20.1681
 11
40.3867
 21
20.2492
  0
LINE
  8
0
 10
40.3867
 20
20.2492
 11
40.3724
 21
20.3365
  0
LINE
  8
0
 10
40.3724
 20
20.3365
 11
40.3592
 21
20.4166
  0
LINE
  8
0
 10
40.3592
 20
20.4166
 11
40.336
 21
20.4986
  0
LINE
  8
0
 10
40.336
 20
20.4986
 11
40.3142
 21
20.5757
  0
LINE
  8
0
 10
40.3142
 20
20.5757
 11
40.2828
 21
20.6506
  0
LINE
  8
0
 10
40.2828
 20
20.6506
 11
40.2527
 21
20.7225
  0
LINE
  8
0
 10
40.2527
 20
20.7225
 11
40.2141
 21
20.7887
  0
LINE
  8
0
 10
40.2141
 20
20.7887
 11
40.1762
 21
20.8535
  0
LINE
  8
0
 10
40.1762
 20
20.8535
 11
40.1314
 21
20.9095
  0
LINE
  8
0
 10
40.1314
 20
20.9095
 11
40.0868
 21
20.9653
  0
LINE
  8
0
 10
40.0868
 20
20.9653
 11
40.0369
 21
21.01
  0
LINE
  8
0
 10
40.0369
 20
21.01
 11
39.9864
 21
21.0553
  0
LINE
  8
0
 10
39.9864
 20
21.0553
 11
39.9327
 21
21.0878
  0
LINE
  8
0
 10
39.9327
 20
21.0878
 11
39.8777
 21
21.1212
  0
LINE
  8
0
 10
39.8777
 20
21.1212
 11
39.8214
 21
21.141
  0
LINE
  8
0
 10
39.8214
 20
21.141
 11
39.7632
 21
21.1614
  0
LINE
  8
0
 10
39.7632
 20
21.1614
 11
39.6459
 21
21.1749
  0
LINE
  8
0
 10
39.6459
 20
21.1749
 11
36.5
 21
21.1749
  0
LINE
  8
0
 10
36.5
 20
21.1749
 11
36.5
 21
17.5408
  0
LINE
  8
0
 10
36.5
 20
28.4907
 11
39.6459
 21
28.4907
  0
LINE
  8
0
 10
39.6459
 20
28.4907
 11
39.7632
 21
28.5043
  0
LINE
  8
0
 10
39.7632
 20
28.5043
 11
39.7888
 21
28.5132
  0
LINE
  8
0
 10
39.7888
 20
28.5132
 11
39.8777
 21
28.5444
  0
LINE
  8
0
 10
39.8777
 20
28.5444
 11
39.9017
 21
28.559
  0
LINE
  8
0
 10
39.9017
 20
28.559
 11
39.9864
 21
28.6103
  0
LINE
  8
0
 10
39.9864
 20
28.6103
 11
40.0868
 21
28.7003
  0
LINE
  8
0
 10
40.0868
 20
28.7003
 11
40.1762
 21
28.8122
  0
LINE
  8
0
 10
40.1762
 20
28.8122
 11
40.1924
 21
28.8398
  0
LINE
  8
0
 10
40.1924
 20
28.8398
 11
40.2527
 21
28.9431
  0
LINE
  8
0
 10
40.2527
 20
28.9431
 11
40.2654
 21
28.9734
  0
LINE
  8
0
 10
40.2654
 20
28.9734
 11
40.3142
 21
29.0899
  0
LINE
  8
0
 10
40.3142
 20
29.0899
 11
40.3232
 21
29.1219
  0
LINE
  8
0
 10
40.3232
 20
29.1219
 11
40.3592
 21
29.249
  0
LINE
  8
0
 10
40.3592
 20
29.249
 11
40.3646
 21
29.2817
  0
LINE
  8
0
 10
40.3646
 20
29.2817
 11
40.3867
 21
29.4164
  0
LINE
  8
0
 10
40.3867
 20
29.4164
 11
40.3884
 21
29.4489
  0
LINE
  8
0
 10
40.3884
 20
29.4489
 11
40.3959
 21
29.5881
  0
LINE
  8
0
 10
40.3959
 20
29.5881
 11
40.3959
 21
40
  0
LINE
  8
0
 10
40.3959
 20
40
 11
41.8959
 21
41.5
  0
LINE
  8
0
 10
41.8959
 20
41.5
 11
47
 21
41.5
  0
LINE
  8
0
 10
47
 20
41.5
 11
47.5
 21
42
  0
LINE
  8
0
 10
47.5
 20
42
 11
47.5
 21
45.5
  0
LINE
  8
0
 10
47.5
 20
45.5
 11
36.5
 21
45.5
  0
LINE
  8
0
 10
36.5
 20
45.5
 11
36.5
 21
28.4907
  0
ENDSEC
  0
SECTION
  2
OBJECTS
  0
DICTIONARY
  0
ENDSEC
  0
EOF
