  0
SECTION
  2
BLOCKS
  0
ENDSEC
  0
SECTION
  2
ENTITIES
  0
LINE
  8
0
 10
0
 20
0
 11
11
 21
0
  0
LINE
  8
0
 10
11
 20
0
 11
11
 21
11.1297
  0
LINE
  8
0
 10
11
 20
11.1297
 11
7.85409
 21
11.1297
  0
LINE
  8
0
 10
7.85409
 20
11.1297
 11
7.83636
 21
11.1284
  0
LINE
  8
0
 10
7.83636
 20
11.1284
 11
7.73676
 21
11.1205
  0
LINE
  8
0
 10
7.73676
 20
11.1205
 11
7.71963
 21
11.1164
  0
LINE
  8
0
 10
7.71963
 20
11.1164
 11
7.62232
 21
11.0931
  0
LINE
  8
0
 10
7.62232
 20
11.0931
 11
7.60627
 21
11.0864
  0
LINE
  8
0
 10
7.60627
 20
11.0864
 11
7.51359
 21
11.0481
  0
LINE
  8
0
 10
7.51359
 20
11.0481
 11
7.49903
 21
11.0391
  0
LINE
  8
0
 10
7.49903
 20
11.0391
 11
7.41325
 21
10.9866
  0
LINE
  8
0
 10
7.41325
 20
10.9866
 11
7.40052
 21
10.9757
  0
LINE
  8
0
 10
7.40052
 20
10.9757
 11
7.32376
 21
10.9102
  0
LINE
  8
0
 10
7.32376
 20
10.9102
 11
7.31312
 21
10.8978
  0
LINE
  8
0
 10
7.31312
 20
10.8978
 11
7.24732
 21
10.8208
  0
LINE
  8
0
 10
7.24732
 20
10.8208
 11
7.23897
 21
10.8072
  0
LINE
  8
0
 10
7.23897
 20
10.8072
 11
7.18583
 21
10.7205
  0
LINE
  8
0
 10
7.18583
 20
10.7205
 11
7.17985
 21
10.7061
  0
LINE
  8
0
 10
7.17985
 20
10.7061
 11
7.14079
 21
10.6119
  0
LINE
  8
0
 10
7.14079
 20
10.6119
 11
7.13723
 21
10.597
  0
LINE
  8
0
 10
7.13723
 20
10.597
 11
7.11332
 21
10.4975
  0
LINE
  8
0
 10
7.11332
 20
10.4975
 11
7.11215
 21
10.4826
  0
LINE
  8
0
 10
7.11215
 20
10.4826
 11
7.10409
 21
10.3802
  0
LINE
  8
0
 10
7.10409
 20
10.3802
 11
7.10409
 21
5.5
  0
LINE
  8
0
 10
7.10409
 20
5.5
 11
5.60409
 21
4
  0
LINE
  8
0
 10
5.60409
 20
4
 11
0.499999
 21
4
  0
LINE
  8
0
 10
0.499999
 20
4
 11
0
 21
3.5
  0
LINE
  8
0
 10
0
 20
3.5
 11
0
 21
0
  0
LINE
  8
0
 10
0
 20
42
 11
0.499999
 21
41.5
  0
LINE
  8
0
 10
0.499999
 20
41.5
 11
5.60409
 21
41.5
  0
LINE
  8
0
 10
5.60409
 20
41.5
 11
7.10409
 21
40
  0
LINE
  8
0
 10
7.10409
 20
40
 11
7.10409
 21
29.3745
  0
LINE
  8
0
 10
7.10409
 20
29.3745
 11
7.10593
 21
29.3402
  0
LINE
  8
0
 10
7.10593
 20
29.3402
 11
7.11332
 21
29.2028
  0
LINE
  8
0
 10
7.11332
 20
29.2028
 11
7.11898
 21
29.1683
  0
LINE
  8
0
 10
7.11898
 20
29.1683
 11
7.14079
 21
29.0354
  0
LINE
  8
0
 10
7.14079
 20
29.0354
 11
7.15034
 21
29.0017
  0
LINE
  8
0
 10
7.15034
 20
29.0017
 11
7.18583
 21
28.8763
  0
LINE
  8
0
 10
7.18583
 20
28.8763
 11
7.19922
 21
28.8443
  0
LINE
  8
0
 10
7.19922
 20
28.8443
 11
7.24732
 21
28.7295
  0
LINE
  8
0
 10
7.24732
 20
28.7295
 11
7.26437
 21
28.7003
  0
LINE
  8
0
 10
7.26437
 20
28.7003
 11
7.32376
 21
28.5985
  0
LINE
  8
0
 10
7.32376
 20
28.5985
 11
7.41325
 21
28.4867
  0
LINE
  8
0
 10
7.41325
 20
28.4867
 11
7.51359
 21
28.3967
  0
LINE
  8
0
 10
7.51359
 20
28.3967
 11
7.53911
 21
28.3813
  0
LINE
  8
0
 10
7.53911
 20
28.3813
 11
7.62232
 21
28.3308
  0
LINE
  8
0
 10
7.62232
 20
28.3308
 11
7.64943
 21
28.3213
  0
LINE
  8
0
 10
7.64943
 20
28.3213
 11
7.73676
 21
28.2906
  0
LINE
  8
0
 10
7.73676
 20
28.2906
 11
7.85409
 21
28.2771
  0
LINE
  8
0
 10
7.85409
 20
28.2771
 11
11
 21
28.2771
  0
LINE
  8
0
 10
11
 20
28.2771
 11
11
 21
45.5
  0
LINE
  8
0
 10
11
 20
45.5
 11
0
 21
45.5
  0
LINE
  8
0
 10
0
 20
45.5
 11
0
 21
42
  0
LINE
  8
0
 10
7.10409
 20
18.4245
 11
7.11014
 21
18.3121
  0
LINE
  8
0
 10
7.11014
 20
18.3121
 11
7.11332
 21
18.2528
  0
LINE
  8
0
 10
7.11332
 20
18.2528
 11
7.13166
 21
18.1411
  0
LINE
  8
0
 10
7.13166
 20
18.1411
 11
7.14079
 21
18.0854
  0
LINE
  8
0
 10
7.14079
 20
18.0854
 11
7.17139
 21
17.9773
  0
LINE
  8
0
 10
7.17139
 20
17.9773
 11
7.18583
 21
17.9263
  0
LINE
  8
0
 10
7.18583
 20
17.9263
 11
7.2283
 21
17.8249
  0
LINE
  8
0
 10
7.2283
 20
17.8249
 11
7.24732
 21
17.7795
  0
LINE
  8
0
 10
7.24732
 20
17.7795
 11
7.30087
 21
17.6878
  0
LINE
  8
0
 10
7.30087
 20
17.6878
 11
7.32376
 21
17.6485
  0
LINE
  8
0
 10
7.32376
 20
17.6485
 11
7.38723
 21
17.5692
  0
LINE
  8
0
 10
7.38723
 20
17.5692
 11
7.41325
 21
17.5367
  0
LINE
  8
0
 10
7.41325
 20
17.5367
 11
7.48513
 21
17.4723
  0
LINE
  8
0
 10
7.48513
 20
17.4723
 11
7.51359
 21
17.4467
  0
LINE
  8
0
 10
7.51359
 20
17.4467
 11
7.59206
 21
17.3992
  0
LINE
  8
0
 10
7.59206
 20
17.3992
 11
7.62232
 21
17.3808
  0
LINE
  8
0
 10
7.62232
 20
17.3808
 11
7.70531
 21
17.3517
  0
LINE
  8
0
 10
7.70531
 20
17.3517
 11
7.73676
 21
17.3406
  0
LINE
  8
0
 10
7.73676
 20
17.3406
 11
7.85409
 21
17.3271
  0
LINE
  8
0
 10
7.85409
 20
17.3271
 11
11
 21
17.3271
  0
LINE
  8
0
 10
11
 20
17.3271
 11
11
 21
20.9613
  0
LINE
  8
0
 10
11
 20
20.9613
 11
7.85409
 21
20.9613
  0
LINE
  8
0
 10
7.85409
 20
20.9613
 11
7.73676
 21
20.9478
  0
LINE
  8
0
 10
7.73676
 20
20.9478
 11
7.67877
 21
20.9274
  0
LINE
  8
0
 10
7.67877
 20
20.9274
 11
7.62232
 21
20.9076
  0
LINE
  8
0
 10
7.62232
 20
20.9076
 11
7.56702
 21
20.874
  0
LINE
  8
0
 10
7.56702
 20
20.874
 11
7.51359
 21
20.8417
  0
LINE
  8
0
 10
7.51359
 20
20.8417
 11
7.46226
 21
20.7956
  0
LINE
  8
0
 10
7.46226
 20
20.7956
 11
7.41325
 21
20.7517
  0
LINE
  8
0
 10
7.41325
 20
20.7517
 11
7.36714
 21
20.6941
  0
LINE
  8
0
 10
7.36714
 20
20.6941
 11
7.32376
 21
20.6399
  0
LINE
  8
0
 10
7.32376
 20
20.6399
 11
7.28403
 21
20.5718
  0
LINE
  8
0
 10
7.28403
 20
20.5718
 11
7.24732
 21
20.5089
  0
LINE
  8
0
 10
7.24732
 20
20.5089
 11
7.21505
 21
20.4319
  0
LINE
  8
0
 10
7.21505
 20
20.4319
 11
7.18583
 21
20.3621
  0
LINE
  8
0
 10
7.18583
 20
20.3621
 11
7.16194
 21
20.2777
  0
LINE
  8
0
 10
7.16194
 20
20.2777
 11
7.14079
 21
20.203
  0
LINE
  8
0
 10
7.14079
 20
20.203
 11
7.12606
 21
20.1132
  0
LINE
  8
0
 10
7.12606
 20
20.1132
 11
7.11332
 21
20.0356
  0
LINE
  8
0
 10
7.11332
 20
20.0356
 11
7.10831
 21
19.9424
  0
LINE
  8
0
 10
7.10831
 20
19.9424
 11
7.10409
 21
19.8639
  0
LINE
  8
0
 10
7.10409
 20
19.8639
 11
7.10409
 21
18.4245
  0
LINE
  8
0
 10
36.5
 20
0
 11
47.5
 21
0
  0
LINE
  8
0
 10
47.5
 20
0
 11
47.5
 21
3.5
  0
LINE
  8
0
 10
47.5
 20
3.5
 11
47
 21
4
  0
LINE
  8
0
 10
47
 20
4
 11
41.8959
 21
4
  0
LINE
  8
0
 10
41.8959
 20
4
 11
40.3959
 21
5.5
  0
LINE
  8
0
 10
40.3959
 20
5.5
 11
40.3959
 21
10.3802
  0
LINE
  8
0
 10
40.3959
 20
10.3802
 11
40.3947
 21
10.3958
  0
LINE
  8
0
 10
40.3947
 20
10.3958
 11
40.3867
 21
10.4975
  0
LINE
  8
0
 10
40.3867
 20
10.4975
 11
40.3829
 21
10.513
  0
LINE
  8
0
 10
40.3829
 20
10.513
 11
40.3592
 21
10.6119
  0
LINE
  8
0
 10
40.3592
 20
10.6119
 11
40.3529
 21
10.627
  0
LINE
  8
0
 10
40.3529
 20
10.627
 11
40.3142
 21
10.7205
  0
LINE
  8
0
 10
40.3142
 20
10.7205
 11
40.3054
 21
10.7348
  0
LINE
  8
0
 10
40.3054
 20
10.7348
 11
40.2527
 21
10.8208
  0
LINE
  8
0
 10
40.2527
 20
10.8208
 11
40.2416
 21
10.8337
  0
LINE
  8
0
 10
40.2416
 20
10.8337
 11
40.1762
 21
10.9102
  0
LINE
  8
0
 10
40.1762
 20
10.9102
 11
40.1631
 21
10.9215
  0
LINE
  8
0
 10
40.1631
 20
10.9215
 11
40.0868
 21
10.9866
  0
LINE
  8
0
 10
40.0868
 20
10.9866
 11
40.0718
 21
10.9958
  0
LINE
  8
0
 10
40.0718
 20
10.9958
 11
39.9864
 21
11.0481
  0
LINE
  8
0
 10
39.9864
 20
11.0481
 11
39.97
 21
11.0548
  0
LINE
  8
0
 10
39.97
 20
11.0548
 11
39.8777
 21
11.0931
  0
LINE
  8
0
 10
39.8777
 20
11.0931
 11
39.8603
 21
11.0972
  0
LINE
  8
0
 10
39.8603
 20
11.0972
 11
39.7632
 21
11.1205
  0
LINE
  8
0
 10
39.7632
 20
11.1205
 11
39.7454
 21
11.1219
  0
LINE
  8
0
 10
39.7454
 20
11.1219
 11
39.6459
 21
11.1297
  0
LINE
  8
0
 10
39.6459
 20
11.1297
 11
36.5
 21
11.1297
  0
LINE
  8
0
 10
36.5
 20
11.1297
 11
36.5
 21
0
  0
LINE
  8
0
 10
36.5
 20
17.3271
 11
39.6459
 21
17.3271
  0
LINE
  8
0
 10
39.6459
 20
17.3271
 11
39.7632
 21
17.3406
  0
LINE
  8
0
 10
39.7632
 20
17.3406
 11
39.8461
 21
17.3697
  0
LINE
  8
0
 10
39.8461
 20
17.3697
 11
39.8777
 21
17.3808
  0
LINE
  8
0
 10
39.8777
 20
17.3808
 11
39.9559
 21
17.4283
  0
LINE
  8
0
 10
39.9559
 20
17.4283
 11
39.9864
 21
17.4467
  0
LINE
  8
0
 10
39.9864
 20
17.4467
 11
40.058
 21
17.5109
  0
LINE
  8
0
 10
40.058
 20
17.5109
 11
40.0868
 21
17.5367
  0
LINE
  8
0
 10
40.0868
 20
17.5367
 11
40.1499
 21
17.6157
  0
LINE
  8
0
 10
40.1499
 20
17.6157
 11
40.1762
 21
17.6485
  0
LINE
  8
0
 10
40.1762
 20
17.6485
 11
40.2295
 21
17.7398
  0
LINE
  8
0
 10
40.2295
 20
17.7398
 11
40.2527
 21
17.7795
  0
LINE
  8
0
 10
40.2527
 20
17.7795
 11
40.2949
 21
17.8803
  0
LINE
  8
0
 10
40.2949
 20
17.8803
 11
40.3142
 21
17.9263
  0
LINE
  8
0
 10
40.3142
 20
17.9263
 11
40.3446
 21
18.0337
  0
LINE
  8
0
 10
40.3446
 20
18.0337
 11
40.3592
 21
18.0854
  0
LINE
  8
0
 10
40.3592
 20
18.0854
 11
40.3774
 21
18.1965
  0
LINE
  8
0
 10
40.3774
 20
18.1965
 11
40.3867
 21
18.2528
  0
LINE
  8
0
 10
40.3867
 20
18.2528
 11
40.3927
 21
18.3646
  0
LINE
  8
0
 10
40.3927
 20
18.3646
 11
40.3959
 21
18.4245
  0
LINE
  8
0
 10
40.3959
 20
18.4245
 11
40.3959
 21
19.8639
  0
LINE
  8
0
 10
40.3959
 20
19.8639
 11
40.3909
 21
19.957
  0
LINE
  8
0
 10
40.3909
 20
19.957
 11
40.3867
 21
20.0356
  0
LINE
  8
0
 10
40.3867
 20
20.0356
 11
40.372
 21
20.1253
  0
LINE
  8
0
 10
40.372
 20
20.1253
 11
40.3592
 21
20.203
  0
LINE
  8
0
 10
40.3592
 20
20.203
 11
40.3353
 21
20.2873
  0
LINE
  8
0
 10
40.3353
 20
20.2873
 11
40.3142
 21
20.3621
  0
LINE
  8
0
 10
40.3142
 20
20.3621
 11
40.2819
 21
20.4391
  0
LINE
  8
0
 10
40.2819
 20
20.4391
 11
40.2527
 21
20.5089
  0
LINE
  8
0
 10
40.2527
 20
20.5089
 11
40.213
 21
20.5769
  0
LINE
  8
0
 10
40.213
 20
20.5769
 11
40.1762
 21
20.6399
  0
LINE
  8
0
 10
40.1762
 20
20.6399
 11
40.1301
 21
20.6975
  0
LINE
  8
0
 10
40.1301
 20
20.6975
 11
40.0868
 21
20.7517
  0
LINE
  8
0
 10
40.0868
 20
20.7517
 11
40.0354
 21
20.7977
  0
LINE
  8
0
 10
40.0354
 20
20.7977
 11
39.9864
 21
20.8417
  0
LINE
  8
0
 10
39.9864
 20
20.8417
 11
39.9311
 21
20.8752
  0
LINE
  8
0
 10
39.9311
 20
20.8752
 11
39.8777
 21
20.9076
  0
LINE
  8
0
 10
39.8777
 20
20.9076
 11
39.8197
 21
20.9279
  0
LINE
  8
0
 10
39.8197
 20
20.9279
 11
39.7632
 21
20.9478
  0
LINE
  8
0
 10
39.7632
 20
20.9478
 11
39.6459
 21
20.9613
  0
LINE
  8
0
 10
39.6459
 20
20.9613
 11
36.5
 21
20.9613
  0
LINE
  8
0
 10
36.5
 20
20.9613
 11
36.5
 21
17.3271
  0
LINE
  8
0
 10
36.5
 20
28.2771
 11
39.6459
 21
28.2771
  0
LINE
  8
0
 10
39.6459
 20
28.2771
 11
39.7632
 21
28.2906
  0
LINE
  8
0
 10
39.7632
 20
28.2906
 11
39.7904
 21
28.3002
  0
LINE
  8
0
 10
39.7904
 20
28.3002
 11
39.8777
 21
28.3308
  0
LINE
  8
0
 10
39.8777
 20
28.3308
 11
39.9033
 21
28.3464
  0
LINE
  8
0
 10
39.9033
 20
28.3464
 11
39.9864
 21
28.3967
  0
LINE
  8
0
 10
39.9864
 20
28.3967
 11
40.0868
 21
28.4867
  0
LINE
  8
0
 10
40.0868
 20
28.4867
 11
40.1762
 21
28.5985
  0
LINE
  8
0
 10
40.1762
 20
28.5985
 11
40.1935
 21
28.6281
  0
LINE
  8
0
 10
40.1935
 20
28.6281
 11
40.2527
 21
28.7295
  0
LINE
  8
0
 10
40.2527
 20
28.7295
 11
40.2662
 21
28.7619
  0
LINE
  8
0
 10
40.2662
 20
28.7619
 11
40.3142
 21
28.8763
  0
LINE
  8
0
 10
40.3142
 20
28.8763
 11
40.3239
 21
28.9106
  0
LINE
  8
0
 10
40.3239
 20
28.9106
 11
40.3592
 21
29.0354
  0
LINE
  8
0
 10
40.3592
 20
29.0354
 11
40.365
 21
29.0705
  0
LINE
  8
0
 10
40.365
 20
29.0705
 11
40.3867
 21
29.2028
  0
LINE
  8
0
 10
40.3867
 20
29.2028
 11
40.3886
 21
29.2377
  0
LINE
  8
0
 10
40.3886
 20
29.2377
 11
40.3959
 21
29.3745
  0
LINE
  8
0
 10
40.3959
 20
29.3745
 11
40.3959
 21
40
  0
LINE
  8
0
 10
40.3959
 20
40
 11
41.8959
 21
41.5
  0
LINE
  8
0
 10
41.8959
 20
41.5
 11
47
 21
41.5
  0
LINE
  8
0
 10
47
 20
41.5
 11
47.5
 21
42
  0
LINE
  8
0
 10
47.5
 20
42
 11
47.5
 21
45.5
  0
LINE
  8
0
 10
47.5
 20
45.5
 11
36.5
 21
45.5
  0
LINE
  8
0
 10
36.5
 20
45.5
 11
36.5
 21
28.2771
  0
ENDSEC
  0
SECTION
  2
OBJECTS
  0
DICTIONARY
  0
ENDSEC
  0
EOF
