  0
SECTION
  2
BLOCKS
  0
ENDSEC
  0
SECTION
  2
ENTITIES
  0
LINE
  8
0
 10
0
 20
0
 11
11
 21
0
  0
LINE
  8
0
 10
11
 20
0
 11
11
 21
11.1559
  0
LINE
  8
0
 10
11
 20
11.1559
 11
7.85409
 21
11.1559
  0
LINE
  8
0
 10
7.85409
 20
11.1559
 11
7.83308
 21
11.1543
  0
LINE
  8
0
 10
7.83308
 20
11.1543
 11
7.73676
 21
11.1467
  0
LINE
  8
0
 10
7.73676
 20
11.1467
 11
7.7159
 21
11.1417
  0
LINE
  8
0
 10
7.7159
 20
11.1417
 11
7.62232
 21
11.1192
  0
LINE
  8
0
 10
7.62232
 20
11.1192
 11
7.60147
 21
11.1106
  0
LINE
  8
0
 10
7.60147
 20
11.1106
 11
7.51359
 21
11.0741
  0
LINE
  8
0
 10
7.51359
 20
11.0741
 11
7.49284
 21
11.0614
  0
LINE
  8
0
 10
7.49284
 20
11.0614
 11
7.41325
 21
11.0126
  0
LINE
  8
0
 10
7.41325
 20
11.0126
 11
7.39297
 21
10.9953
  0
LINE
  8
0
 10
7.39297
 20
10.9953
 11
7.32376
 21
10.9361
  0
LINE
  8
0
 10
7.32376
 20
10.9361
 11
7.30466
 21
10.9137
  0
LINE
  8
0
 10
7.30466
 20
10.9137
 11
7.24732
 21
10.8465
  0
LINE
  8
0
 10
7.24732
 20
10.8465
 11
7.23038
 21
10.8189
  0
LINE
  8
0
 10
7.23038
 20
10.8189
 11
7.18583
 21
10.7461
  0
LINE
  8
0
 10
7.18583
 20
10.7461
 11
7.17222
 21
10.7132
  0
LINE
  8
0
 10
7.17222
 20
10.7132
 11
7.14079
 21
10.6373
  0
LINE
  8
0
 10
7.14079
 20
10.6373
 11
7.13175
 21
10.5996
  0
LINE
  8
0
 10
7.13175
 20
10.5996
 11
7.11332
 21
10.5228
  0
LINE
  8
0
 10
7.11332
 20
10.5228
 11
7.11004
 21
10.481
  0
LINE
  8
0
 10
7.11004
 20
10.481
 11
7.10409
 21
10.4054
  0
LINE
  8
0
 10
7.10409
 20
10.4054
 11
7.10409
 21
5.5
  0
LINE
  8
0
 10
7.10409
 20
5.5
 11
5.60409
 21
4
  0
LINE
  8
0
 10
5.60409
 20
4
 11
0.499999
 21
4
  0
LINE
  8
0
 10
0.499999
 20
4
 11
0
 21
3.5
  0
LINE
  8
0
 10
0
 20
3.5
 11
0
 21
0
  0
LINE
  8
0
 10
0
 20
42
 11
0.499999
 21
41.5
  0
LINE
  8
0
 10
0.499999
 20
41.5
 11
5.60409
 21
41.5
  0
LINE
  8
0
 10
5.60409
 20
41.5
 11
7.10409
 21
40
  0
LINE
  8
0
 10
7.10409
 20
40
 11
7.10409
 21
28.9472
  0
LINE
  8
0
 10
7.10409
 20
28.9472
 11
7.1062
 21
28.9079
  0
LINE
  8
0
 10
7.1062
 20
28.9079
 11
7.11332
 21
28.7756
  0
LINE
  8
0
 10
7.11332
 20
28.7756
 11
7.11979
 21
28.7362
  0
LINE
  8
0
 10
7.11979
 20
28.7362
 11
7.14079
 21
28.6081
  0
LINE
  8
0
 10
7.14079
 20
28.6081
 11
7.15167
 21
28.5697
  0
LINE
  8
0
 10
7.15167
 20
28.5697
 11
7.18583
 21
28.4491
  0
LINE
  8
0
 10
7.18583
 20
28.4491
 11
7.20103
 21
28.4128
  0
LINE
  8
0
 10
7.20103
 20
28.4128
 11
7.24732
 21
28.3022
  0
LINE
  8
0
 10
7.24732
 20
28.3022
 11
7.26662
 21
28.2692
  0
LINE
  8
0
 10
7.26662
 20
28.2692
 11
7.32376
 21
28.1713
  0
LINE
  8
0
 10
7.32376
 20
28.1713
 11
7.41325
 21
28.0595
  0
LINE
  8
0
 10
7.41325
 20
28.0595
 11
7.51359
 21
27.9695
  0
LINE
  8
0
 10
7.51359
 20
27.9695
 11
7.5423
 21
27.9521
  0
LINE
  8
0
 10
7.5423
 20
27.9521
 11
7.62232
 21
27.9036
  0
LINE
  8
0
 10
7.62232
 20
27.9036
 11
7.65278
 21
27.8929
  0
LINE
  8
0
 10
7.65278
 20
27.8929
 11
7.73676
 21
27.8634
  0
LINE
  8
0
 10
7.73676
 20
27.8634
 11
7.85409
 21
27.8499
  0
LINE
  8
0
 10
7.85409
 20
27.8499
 11
11
 21
27.8499
  0
LINE
  8
0
 10
11
 20
27.8499
 11
11
 21
45.5
  0
LINE
  8
0
 10
11
 20
45.5
 11
0
 21
45.5
  0
LINE
  8
0
 10
0
 20
45.5
 11
0
 21
42
  0
LINE
  8
0
 10
7.10409
 20
17.9973
 11
7.11068
 21
17.8746
  0
LINE
  8
0
 10
7.11068
 20
17.8746
 11
7.11332
 21
17.8256
  0
LINE
  8
0
 10
7.11332
 20
17.8256
 11
7.13329
 21
17.7039
  0
LINE
  8
0
 10
7.13329
 20
17.7039
 11
7.14079
 21
17.6582
  0
LINE
  8
0
 10
7.14079
 20
17.6582
 11
7.17406
 21
17.5406
  0
LINE
  8
0
 10
7.17406
 20
17.5406
 11
7.18583
 21
17.4991
  0
LINE
  8
0
 10
7.18583
 20
17.4991
 11
7.23194
 21
17.389
  0
LINE
  8
0
 10
7.23194
 20
17.389
 11
7.24732
 21
17.3522
  0
LINE
  8
0
 10
7.24732
 20
17.3522
 11
7.30539
 21
17.2528
  0
LINE
  8
0
 10
7.30539
 20
17.2528
 11
7.32376
 21
17.2213
  0
LINE
  8
0
 10
7.32376
 20
17.2213
 11
7.39251
 21
17.1354
  0
LINE
  8
0
 10
7.39251
 20
17.1354
 11
7.41325
 21
17.1095
  0
LINE
  8
0
 10
7.41325
 20
17.1095
 11
7.49104
 21
17.0397
  0
LINE
  8
0
 10
7.49104
 20
17.0397
 11
7.51359
 21
17.0195
  0
LINE
  8
0
 10
7.51359
 20
17.0195
 11
7.59845
 21
16.9681
  0
LINE
  8
0
 10
7.59845
 20
16.9681
 11
7.62232
 21
16.9536
  0
LINE
  8
0
 10
7.62232
 20
16.9536
 11
7.71202
 21
16.9221
  0
LINE
  8
0
 10
7.71202
 20
16.9221
 11
7.73676
 21
16.9134
  0
LINE
  8
0
 10
7.73676
 20
16.9134
 11
7.85409
 21
16.8999
  0
LINE
  8
0
 10
7.85409
 20
16.8999
 11
11
 21
16.8999
  0
LINE
  8
0
 10
11
 20
16.8999
 11
11
 21
20.534
  0
LINE
  8
0
 10
11
 20
20.534
 11
7.85409
 21
20.534
  0
LINE
  8
0
 10
7.85409
 20
20.534
 11
7.73676
 21
20.5205
  0
LINE
  8
0
 10
7.73676
 20
20.5205
 11
7.67542
 21
20.499
  0
LINE
  8
0
 10
7.67542
 20
20.499
 11
7.62232
 21
20.4803
  0
LINE
  8
0
 10
7.62232
 20
20.4803
 11
7.56383
 21
20.4449
  0
LINE
  8
0
 10
7.56383
 20
20.4449
 11
7.51359
 21
20.4144
  0
LINE
  8
0
 10
7.51359
 20
20.4144
 11
7.45932
 21
20.3658
  0
LINE
  8
0
 10
7.45932
 20
20.3658
 11
7.41325
 21
20.3244
  0
LINE
  8
0
 10
7.41325
 20
20.3244
 11
7.36451
 21
20.2635
  0
LINE
  8
0
 10
7.36451
 20
20.2635
 11
7.32376
 21
20.2126
  0
LINE
  8
0
 10
7.32376
 20
20.2126
 11
7.28179
 21
20.1407
  0
LINE
  8
0
 10
7.28179
 20
20.1407
 11
7.24732
 21
20.0817
  0
LINE
  8
0
 10
7.24732
 20
20.0817
 11
7.21324
 21
20.0003
  0
LINE
  8
0
 10
7.21324
 20
20.0003
 11
7.18583
 21
19.9349
  0
LINE
  8
0
 10
7.18583
 20
19.9349
 11
7.16062
 21
19.8458
  0
LINE
  8
0
 10
7.16062
 20
19.8458
 11
7.14079
 21
19.7758
  0
LINE
  8
0
 10
7.14079
 20
19.7758
 11
7.12525
 21
19.681
  0
LINE
  8
0
 10
7.12525
 20
19.681
 11
7.11332
 21
19.6083
  0
LINE
  8
0
 10
7.11332
 20
19.6083
 11
7.10804
 21
19.5101
  0
LINE
  8
0
 10
7.10804
 20
19.5101
 11
7.10409
 21
19.4367
  0
LINE
  8
0
 10
7.10409
 20
19.4367
 11
7.10409
 21
17.9973
  0
LINE
  8
0
 10
36.5
 20
0
 11
47.5
 21
0
  0
LINE
  8
0
 10
47.5
 20
0
 11
47.5
 21
3.5
  0
LINE
  8
0
 10
47.5
 20
3.5
 11
47
 21
4
  0
LINE
  8
0
 10
47
 20
4
 11
41.8959
 21
4
  0
LINE
  8
0
 10
41.8959
 20
4
 11
40.3959
 21
5.5
  0
LINE
  8
0
 10
40.3959
 20
5.5
 11
40.3959
 21
10.4054
  0
LINE
  8
0
 10
40.3959
 20
10.4054
 11
40.3924
 21
10.45
  0
LINE
  8
0
 10
40.3924
 20
10.45
 11
40.3867
 21
10.5228
  0
LINE
  8
0
 10
40.3867
 20
10.5228
 11
40.3769
 21
10.5634
  0
LINE
  8
0
 10
40.3769
 20
10.5634
 11
40.3592
 21
10.6373
  0
LINE
  8
0
 10
40.3592
 20
10.6373
 11
40.3444
 21
10.673
  0
LINE
  8
0
 10
40.3444
 20
10.673
 11
40.3142
 21
10.7461
  0
LINE
  8
0
 10
40.3142
 20
10.7461
 11
40.2956
 21
10.7764
  0
LINE
  8
0
 10
40.2956
 20
10.7764
 11
40.2527
 21
10.8465
  0
LINE
  8
0
 10
40.2527
 20
10.8465
 11
40.2317
 21
10.8711
  0
LINE
  8
0
 10
40.2317
 20
10.8711
 11
40.1762
 21
10.9361
  0
LINE
  8
0
 10
40.1762
 20
10.9361
 11
40.154
 21
10.9552
  0
LINE
  8
0
 10
40.154
 20
10.9552
 11
40.0868
 21
11.0126
  0
LINE
  8
0
 10
40.0868
 20
11.0126
 11
40.0641
 21
11.0265
  0
LINE
  8
0
 10
40.0641
 20
11.0265
 11
39.9864
 21
11.0741
  0
LINE
  8
0
 10
39.9864
 20
11.0741
 11
39.964
 21
11.0834
  0
LINE
  8
0
 10
39.964
 20
11.0834
 11
39.8777
 21
11.1192
  0
LINE
  8
0
 10
39.8777
 20
11.1192
 11
39.8558
 21
11.1245
  0
LINE
  8
0
 10
39.8558
 20
11.1245
 11
39.7632
 21
11.1467
  0
LINE
  8
0
 10
39.7632
 20
11.1467
 11
39.7419
 21
11.1484
  0
LINE
  8
0
 10
39.7419
 20
11.1484
 11
39.6459
 21
11.1559
  0
LINE
  8
0
 10
39.6459
 20
11.1559
 11
36.5
 21
11.1559
  0
LINE
  8
0
 10
36.5
 20
11.1559
 11
36.5
 21
0
  0
LINE
  8
0
 10
36.5
 20
16.8999
 11
39.6459
 21
16.8999
  0
LINE
  8
0
 10
39.6459
 20
16.8999
 11
39.7632
 21
16.9134
  0
LINE
  8
0
 10
39.7632
 20
16.9134
 11
39.8527
 21
16.9448
  0
LINE
  8
0
 10
39.8527
 20
16.9448
 11
39.8777
 21
16.9536
  0
LINE
  8
0
 10
39.8777
 20
16.9536
 11
39.9622
 21
17.0049
  0
LINE
  8
0
 10
39.9622
 20
17.0049
 11
39.9864
 21
17.0195
  0
LINE
  8
0
 10
39.9864
 20
17.0195
 11
40.0638
 21
17.0889
  0
LINE
  8
0
 10
40.0638
 20
17.0889
 11
40.0868
 21
17.1095
  0
LINE
  8
0
 10
40.0868
 20
17.1095
 11
40.1551
 21
17.1949
  0
LINE
  8
0
 10
40.1551
 20
17.1949
 11
40.1762
 21
17.2213
  0
LINE
  8
0
 10
40.1762
 20
17.2213
 11
40.2339
 21
17.3201
  0
LINE
  8
0
 10
40.2339
 20
17.3201
 11
40.2527
 21
17.3522
  0
LINE
  8
0
 10
40.2527
 20
17.3522
 11
40.2985
 21
17.4615
  0
LINE
  8
0
 10
40.2985
 20
17.4615
 11
40.3142
 21
17.4991
  0
LINE
  8
0
 10
40.3142
 20
17.4991
 11
40.3472
 21
17.6157
  0
LINE
  8
0
 10
40.3472
 20
17.6157
 11
40.3592
 21
17.6582
  0
LINE
  8
0
 10
40.3592
 20
17.6582
 11
40.379
 21
17.7789
  0
LINE
  8
0
 10
40.379
 20
17.7789
 11
40.3867
 21
17.8256
  0
LINE
  8
0
 10
40.3867
 20
17.8256
 11
40.3932
 21
17.9473
  0
LINE
  8
0
 10
40.3932
 20
17.9473
 11
40.3959
 21
17.9973
  0
LINE
  8
0
 10
40.3959
 20
17.9973
 11
40.3959
 21
19.4367
  0
LINE
  8
0
 10
40.3959
 20
19.4367
 11
40.3906
 21
19.5347
  0
LINE
  8
0
 10
40.3906
 20
19.5347
 11
40.3867
 21
19.6083
  0
LINE
  8
0
 10
40.3867
 20
19.6083
 11
40.3712
 21
19.7029
  0
LINE
  8
0
 10
40.3712
 20
19.7029
 11
40.3592
 21
19.7758
  0
LINE
  8
0
 10
40.3592
 20
19.7758
 11
40.334
 21
19.8647
  0
LINE
  8
0
 10
40.334
 20
19.8647
 11
40.3142
 21
19.9349
  0
LINE
  8
0
 10
40.3142
 20
19.9349
 11
40.2801
 21
20.0161
  0
LINE
  8
0
 10
40.2801
 20
20.0161
 11
40.2527
 21
20.0817
  0
LINE
  8
0
 10
40.2527
 20
20.0817
 11
40.2107
 21
20.1535
  0
LINE
  8
0
 10
40.2107
 20
20.1535
 11
40.1762
 21
20.2126
  0
LINE
  8
0
 10
40.1762
 20
20.2126
 11
40.1275
 21
20.2735
  0
LINE
  8
0
 10
40.1275
 20
20.2735
 11
40.0868
 21
20.3244
  0
LINE
  8
0
 10
40.0868
 20
20.3244
 11
40.0325
 21
20.3731
  0
LINE
  8
0
 10
40.0325
 20
20.3731
 11
39.9864
 21
20.4144
  0
LINE
  8
0
 10
39.9864
 20
20.4144
 11
39.9279
 21
20.4499
  0
LINE
  8
0
 10
39.9279
 20
20.4499
 11
39.8777
 21
20.4803
  0
LINE
  8
0
 10
39.8777
 20
20.4803
 11
39.8163
 21
20.5019
  0
LINE
  8
0
 10
39.8163
 20
20.5019
 11
39.7632
 21
20.5205
  0
LINE
  8
0
 10
39.7632
 20
20.5205
 11
39.6459
 21
20.534
  0
LINE
  8
0
 10
39.6459
 20
20.534
 11
36.5
 21
20.534
  0
LINE
  8
0
 10
36.5
 20
20.534
 11
36.5
 21
16.8999
  0
LINE
  8
0
 10
36.5
 20
27.8499
 11
39.6459
 21
27.8499
  0
LINE
  8
0
 10
39.6459
 20
27.8499
 11
39.7632
 21
27.8634
  0
LINE
  8
0
 10
39.7632
 20
27.8634
 11
39.7938
 21
27.8741
  0
LINE
  8
0
 10
39.7938
 20
27.8741
 11
39.8777
 21
27.9036
  0
LINE
  8
0
 10
39.8777
 20
27.9036
 11
39.9065
 21
27.9211
  0
LINE
  8
0
 10
39.9065
 20
27.9211
 11
39.9864
 21
27.9695
  0
LINE
  8
0
 10
39.9864
 20
27.9695
 11
40.0868
 21
28.0595
  0
LINE
  8
0
 10
40.0868
 20
28.0595
 11
40.1762
 21
28.1713
  0
LINE
  8
0
 10
40.1762
 20
28.1713
 11
40.1957
 21
28.2046
  0
LINE
  8
0
 10
40.1957
 20
28.2046
 11
40.2527
 21
28.3022
  0
LINE
  8
0
 10
40.2527
 20
28.3022
 11
40.268
 21
28.3389
  0
LINE
  8
0
 10
40.268
 20
28.3389
 11
40.3142
 21
28.4491
  0
LINE
  8
0
 10
40.3142
 20
28.4491
 11
40.3252
 21
28.4879
  0
LINE
  8
0
 10
40.3252
 20
28.4879
 11
40.3592
 21
28.6081
  0
LINE
  8
0
 10
40.3592
 20
28.6081
 11
40.3658
 21
28.6481
  0
LINE
  8
0
 10
40.3658
 20
28.6481
 11
40.3867
 21
28.7756
  0
LINE
  8
0
 10
40.3867
 20
28.7756
 11
40.3888
 21
28.8155
  0
LINE
  8
0
 10
40.3888
 20
28.8155
 11
40.3959
 21
28.9472
  0
LINE
  8
0
 10
40.3959
 20
28.9472
 11
40.3959
 21
40
  0
LINE
  8
0
 10
40.3959
 20
40
 11
41.8959
 21
41.5
  0
LINE
  8
0
 10
41.8959
 20
41.5
 11
47
 21
41.5
  0
LINE
  8
0
 10
47
 20
41.5
 11
47.5
 21
42
  0
LINE
  8
0
 10
47.5
 20
42
 11
47.5
 21
45.5
  0
LINE
  8
0
 10
47.5
 20
45.5
 11
36.5
 21
45.5
  0
LINE
  8
0
 10
36.5
 20
45.5
 11
36.5
 21
27.8499
  0
ENDSEC
  0
SECTION
  2
OBJECTS
  0
DICTIONARY
  0
ENDSEC
  0
EOF
