  0
SECTION
  2
BLOCKS
  0
ENDSEC
  0
SECTION
  2
ENTITIES
  0
LINE
  8
0
 10
0
 20
0
 11
11
 21
0
  0
LINE
  8
0
 10
11
 20
0
 11
11
 21
11.1958
  0
LINE
  8
0
 10
11
 20
11.1958
 11
7.85409
 21
11.1958
  0
LINE
  8
0
 10
7.85409
 20
11.1958
 11
7.77357
 21
11.1893
  0
LINE
  8
0
 10
7.77357
 20
11.1893
 11
7.73676
 21
11.1863
  0
LINE
  8
0
 10
7.73676
 20
11.1863
 11
7.65701
 21
11.1666
  0
LINE
  8
0
 10
7.65701
 20
11.1666
 11
7.62232
 21
11.158
  0
LINE
  8
0
 10
7.62232
 20
11.158
 11
7.5443
 21
11.1247
  0
LINE
  8
0
 10
7.5443
 20
11.1247
 11
7.51359
 21
11.1116
  0
LINE
  8
0
 10
7.51359
 20
11.1116
 11
7.43863
 21
11.0643
  0
LINE
  8
0
 10
7.43863
 20
11.0643
 11
7.41325
 21
11.0482
  0
LINE
  8
0
 10
7.41325
 20
11.0482
 11
7.3431
 21
10.9865
  0
LINE
  8
0
 10
7.3431
 20
10.9865
 11
7.32376
 21
10.9695
  0
LINE
  8
0
 10
7.32376
 20
10.9695
 11
7.26063
 21
10.8933
  0
LINE
  8
0
 10
7.26063
 20
10.8933
 11
7.24732
 21
10.8773
  0
LINE
  8
0
 10
7.24732
 20
10.8773
 11
7.19376
 21
10.7872
  0
LINE
  8
0
 10
7.19376
 20
10.7872
 11
7.18583
 21
10.7739
  0
LINE
  8
0
 10
7.18583
 20
10.7739
 11
7.14451
 21
10.6711
  0
LINE
  8
0
 10
7.14451
 20
10.6711
 11
7.14079
 21
10.6619
  0
LINE
  8
0
 10
7.14079
 20
10.6619
 11
7.11433
 21
10.5483
  0
LINE
  8
0
 10
7.11433
 20
10.5483
 11
7.11332
 21
10.544
  0
LINE
  8
0
 10
7.11332
 20
10.544
 11
7.10557
 21
10.4426
  0
LINE
  8
0
 10
7.10557
 20
10.4426
 11
7.10409
 21
10.4237
  0
LINE
  8
0
 10
7.10409
 20
10.4237
 11
7.10409
 21
5.5
  0
LINE
  8
0
 10
7.10409
 20
5.5
 11
5.60409
 21
4
  0
LINE
  8
0
 10
5.60409
 20
4
 11
0.499999
 21
4
  0
LINE
  8
0
 10
0.499999
 20
4
 11
0
 21
3.5
  0
LINE
  8
0
 10
0
 20
3.5
 11
0
 21
0
  0
LINE
  8
0
 10
0
 20
42
 11
0.499999
 21
41.5
  0
LINE
  8
0
 10
0.499999
 20
41.5
 11
5.60409
 21
41.5
  0
LINE
  8
0
 10
5.60409
 20
41.5
 11
7.10409
 21
40
  0
LINE
  8
0
 10
7.10409
 20
40
 11
7.10409
 21
28.7336
  0
LINE
  8
0
 10
7.10409
 20
28.7336
 11
7.10634
 21
28.6918
  0
LINE
  8
0
 10
7.10634
 20
28.6918
 11
7.11332
 21
28.562
  0
LINE
  8
0
 10
7.11332
 20
28.562
 11
7.12019
 21
28.5201
  0
LINE
  8
0
 10
7.12019
 20
28.5201
 11
7.14079
 21
28.3945
  0
LINE
  8
0
 10
7.14079
 20
28.3945
 11
7.15233
 21
28.3538
  0
LINE
  8
0
 10
7.15233
 20
28.3538
 11
7.18583
 21
28.2354
  0
LINE
  8
0
 10
7.18583
 20
28.2354
 11
7.20194
 21
28.197
  0
LINE
  8
0
 10
7.20194
 20
28.197
 11
7.24732
 21
28.0886
  0
LINE
  8
0
 10
7.24732
 20
28.0886
 11
7.26774
 21
28.0536
  0
LINE
  8
0
 10
7.26774
 20
28.0536
 11
7.32376
 21
27.9577
  0
LINE
  8
0
 10
7.32376
 20
27.9577
 11
7.41325
 21
27.8458
  0
LINE
  8
0
 10
7.41325
 20
27.8458
 11
7.51359
 21
27.7559
  0
LINE
  8
0
 10
7.51359
 20
27.7559
 11
7.54389
 21
27.7375
  0
LINE
  8
0
 10
7.54389
 20
27.7375
 11
7.62232
 21
27.69
  0
LINE
  8
0
 10
7.62232
 20
27.69
 11
7.65446
 21
27.6787
  0
LINE
  8
0
 10
7.65446
 20
27.6787
 11
7.73676
 21
27.6498
  0
LINE
  8
0
 10
7.73676
 20
27.6498
 11
7.85409
 21
27.6362
  0
LINE
  8
0
 10
7.85409
 20
27.6362
 11
11
 21
27.6362
  0
LINE
  8
0
 10
11
 20
27.6362
 11
11
 21
45.5
  0
LINE
  8
0
 10
11
 20
45.5
 11
0
 21
45.5
  0
LINE
  8
0
 10
0
 20
45.5
 11
0
 21
42
  0
LINE
  8
0
 10
7.10409
 20
17.7836
 11
7.11096
 21
17.6559
  0
LINE
  8
0
 10
7.11096
 20
17.6559
 11
7.11332
 21
17.612
  0
LINE
  8
0
 10
7.11332
 20
17.612
 11
7.1341
 21
17.4853
  0
LINE
  8
0
 10
7.1341
 20
17.4853
 11
7.14079
 21
17.4445
  0
LINE
  8
0
 10
7.14079
 20
17.4445
 11
7.1754
 21
17.3223
  0
LINE
  8
0
 10
7.1754
 20
17.3223
 11
7.18583
 21
17.2854
  0
LINE
  8
0
 10
7.18583
 20
17.2854
 11
7.23375
 21
17.171
  0
LINE
  8
0
 10
7.23375
 20
17.171
 11
7.24732
 21
17.1386
  0
LINE
  8
0
 10
7.24732
 20
17.1386
 11
7.30765
 21
17.0353
  0
LINE
  8
0
 10
7.30765
 20
17.0353
 11
7.32376
 21
17.0077
  0
LINE
  8
0
 10
7.32376
 20
17.0077
 11
7.39515
 21
16.9185
  0
LINE
  8
0
 10
7.39515
 20
16.9185
 11
7.41325
 21
16.8958
  0
LINE
  8
0
 10
7.41325
 20
16.8958
 11
7.494
 21
16.8234
  0
LINE
  8
0
 10
7.494
 20
16.8234
 11
7.51359
 21
16.8059
  0
LINE
  8
0
 10
7.51359
 20
16.8059
 11
7.60165
 21
16.7525
  0
LINE
  8
0
 10
7.60165
 20
16.7525
 11
7.62232
 21
16.74
  0
LINE
  8
0
 10
7.62232
 20
16.74
 11
7.71538
 21
16.7073
  0
LINE
  8
0
 10
7.71538
 20
16.7073
 11
7.73676
 21
16.6998
  0
LINE
  8
0
 10
7.73676
 20
16.6998
 11
7.85409
 21
16.6863
  0
LINE
  8
0
 10
7.85409
 20
16.6863
 11
11
 21
16.6863
  0
LINE
  8
0
 10
11
 20
16.6863
 11
11
 21
20.3204
  0
LINE
  8
0
 10
11
 20
20.3204
 11
7.85409
 21
20.3204
  0
LINE
  8
0
 10
7.85409
 20
20.3204
 11
7.73676
 21
20.3069
  0
LINE
  8
0
 10
7.73676
 20
20.3069
 11
7.67374
 21
20.2848
  0
LINE
  8
0
 10
7.67374
 20
20.2848
 11
7.62232
 21
20.2667
  0
LINE
  8
0
 10
7.62232
 20
20.2667
 11
7.56223
 21
20.2303
  0
LINE
  8
0
 10
7.56223
 20
20.2303
 11
7.51359
 21
20.2008
  0
LINE
  8
0
 10
7.51359
 20
20.2008
 11
7.45785
 21
20.1508
  0
LINE
  8
0
 10
7.45785
 20
20.1508
 11
7.41325
 21
20.1108
  0
LINE
  8
0
 10
7.41325
 20
20.1108
 11
7.36319
 21
20.0483
  0
LINE
  8
0
 10
7.36319
 20
20.0483
 11
7.32376
 21
19.999
  0
LINE
  8
0
 10
7.32376
 20
19.999
 11
7.28066
 21
19.9252
  0
LINE
  8
0
 10
7.28066
 20
19.9252
 11
7.24732
 21
19.8681
  0
LINE
  8
0
 10
7.24732
 20
19.8681
 11
7.21234
 21
19.7845
  0
LINE
  8
0
 10
7.21234
 20
19.7845
 11
7.18583
 21
19.7212
  0
LINE
  8
0
 10
7.18583
 20
19.7212
 11
7.15995
 21
19.6298
  0
LINE
  8
0
 10
7.15995
 20
19.6298
 11
7.14079
 21
19.5621
  0
LINE
  8
0
 10
7.14079
 20
19.5621
 11
7.12484
 21
19.4649
  0
LINE
  8
0
 10
7.12484
 20
19.4649
 11
7.11332
 21
19.3947
  0
LINE
  8
0
 10
7.11332
 20
19.3947
 11
7.1079
 21
19.294
  0
LINE
  8
0
 10
7.1079
 20
19.294
 11
7.10409
 21
19.223
  0
LINE
  8
0
 10
7.10409
 20
19.223
 11
7.10409
 21
17.7836
  0
LINE
  8
0
 10
36.5
 20
0
 11
47.5
 21
0
  0
LINE
  8
0
 10
47.5
 20
0
 11
47.5
 21
3.5
  0
LINE
  8
0
 10
47.5
 20
3.5
 11
47
 21
4
  0
LINE
  8
0
 10
47
 20
4
 11
41.8959
 21
4
  0
LINE
  8
0
 10
41.8959
 20
4
 11
40.3959
 21
5.5
  0
LINE
  8
0
 10
40.3959
 20
5.5
 11
40.3959
 21
10.4237
  0
LINE
  8
0
 10
40.3959
 20
10.4237
 11
40.3959
 21
10.4244
  0
LINE
  8
0
 10
40.3959
 20
10.4244
 11
40.3944
 21
10.4426
  0
LINE
  8
0
 10
40.3944
 20
10.4426
 11
40.387
 21
10.5402
  0
LINE
  8
0
 10
40.387
 20
10.5402
 11
40.3867
 21
10.544
  0
LINE
  8
0
 10
40.3867
 20
10.544
 11
40.3611
 21
10.6535
  0
LINE
  8
0
 10
40.3611
 20
10.6535
 11
40.3592
 21
10.6619
  0
LINE
  8
0
 10
40.3592
 20
10.6619
 11
40.3192
 21
10.7615
  0
LINE
  8
0
 10
40.3192
 20
10.7615
 11
40.3142
 21
10.7739
  0
LINE
  8
0
 10
40.3142
 20
10.7739
 11
40.262
 21
10.8616
  0
LINE
  8
0
 10
40.262
 20
10.8616
 11
40.2527
 21
10.8773
  0
LINE
  8
0
 10
40.2527
 20
10.8773
 11
40.1908
 21
10.9519
  0
LINE
  8
0
 10
40.1908
 20
10.9519
 11
40.1762
 21
10.9695
  0
LINE
  8
0
 10
40.1762
 20
10.9695
 11
40.1071
 21
11.0304
  0
LINE
  8
0
 10
40.1071
 20
11.0304
 11
40.0868
 21
11.0482
  0
LINE
  8
0
 10
40.0868
 20
11.0482
 11
40.0124
 21
11.0952
  0
LINE
  8
0
 10
40.0124
 20
11.0952
 11
39.9864
 21
11.1116
  0
LINE
  8
0
 10
39.9864
 20
11.1116
 11
39.9087
 21
11.1447
  0
LINE
  8
0
 10
39.9087
 20
11.1447
 11
39.8777
 21
11.158
  0
LINE
  8
0
 10
39.8777
 20
11.158
 11
39.7981
 21
11.1777
  0
LINE
  8
0
 10
39.7981
 20
11.1777
 11
39.7632
 21
11.1863
  0
LINE
  8
0
 10
39.7632
 20
11.1863
 11
39.6828
 21
11.1928
  0
LINE
  8
0
 10
39.6828
 20
11.1928
 11
39.6459
 21
11.1958
  0
LINE
  8
0
 10
39.6459
 20
11.1958
 11
36.5
 21
11.1958
  0
LINE
  8
0
 10
36.5
 20
11.1958
 11
36.5
 21
0
  0
LINE
  8
0
 10
36.5
 20
16.6863
 11
39.6459
 21
16.6863
  0
LINE
  8
0
 10
39.6459
 20
16.6863
 11
39.7632
 21
16.6998
  0
LINE
  8
0
 10
39.7632
 20
16.6998
 11
39.8561
 21
16.7324
  0
LINE
  8
0
 10
39.8561
 20
16.7324
 11
39.8777
 21
16.74
  0
LINE
  8
0
 10
39.8777
 20
16.74
 11
39.9654
 21
16.7931
  0
LINE
  8
0
 10
39.9654
 20
16.7931
 11
39.9864
 21
16.8059
  0
LINE
  8
0
 10
39.9864
 20
16.8059
 11
40.0668
 21
16.8779
  0
LINE
  8
0
 10
40.0668
 20
16.8779
 11
40.0868
 21
16.8958
  0
LINE
  8
0
 10
40.0868
 20
16.8958
 11
40.1577
 21
16.9845
  0
LINE
  8
0
 10
40.1577
 20
16.9845
 11
40.1762
 21
17.0077
  0
LINE
  8
0
 10
40.1762
 20
17.0077
 11
40.2361
 21
17.1103
  0
LINE
  8
0
 10
40.2361
 20
17.1103
 11
40.2527
 21
17.1386
  0
LINE
  8
0
 10
40.2527
 20
17.1386
 11
40.3002
 21
17.2522
  0
LINE
  8
0
 10
40.3002
 20
17.2522
 11
40.3142
 21
17.2854
  0
LINE
  8
0
 10
40.3142
 20
17.2854
 11
40.3485
 21
17.4067
  0
LINE
  8
0
 10
40.3485
 20
17.4067
 11
40.3592
 21
17.4445
  0
LINE
  8
0
 10
40.3592
 20
17.4445
 11
40.3798
 21
17.5701
  0
LINE
  8
0
 10
40.3798
 20
17.5701
 11
40.3867
 21
17.612
  0
LINE
  8
0
 10
40.3867
 20
17.612
 11
40.3935
 21
17.7386
  0
LINE
  8
0
 10
40.3935
 20
17.7386
 11
40.3959
 21
17.7836
  0
LINE
  8
0
 10
40.3959
 20
17.7836
 11
40.3959
 21
19.223
  0
LINE
  8
0
 10
40.3959
 20
19.223
 11
40.3905
 21
19.3236
  0
LINE
  8
0
 10
40.3905
 20
19.3236
 11
40.3867
 21
19.3947
  0
LINE
  8
0
 10
40.3867
 20
19.3947
 11
40.3708
 21
19.4918
  0
LINE
  8
0
 10
40.3708
 20
19.4918
 11
40.3592
 21
19.5621
  0
LINE
  8
0
 10
40.3592
 20
19.5621
 11
40.3334
 21
19.6534
  0
LINE
  8
0
 10
40.3334
 20
19.6534
 11
40.3142
 21
19.7212
  0
LINE
  8
0
 10
40.3142
 20
19.7212
 11
40.2792
 21
19.8047
  0
LINE
  8
0
 10
40.2792
 20
19.8047
 11
40.2527
 21
19.8681
  0
LINE
  8
0
 10
40.2527
 20
19.8681
 11
40.2096
 21
19.9418
  0
LINE
  8
0
 10
40.2096
 20
19.9418
 11
40.1762
 21
19.999
  0
LINE
  8
0
 10
40.1762
 20
19.999
 11
40.1262
 21
20.0615
  0
LINE
  8
0
 10
40.1262
 20
20.0615
 11
40.0868
 21
20.1108
  0
LINE
  8
0
 10
40.0868
 20
20.1108
 11
40.031
 21
20.1608
  0
LINE
  8
0
 10
40.031
 20
20.1608
 11
39.9864
 21
20.2008
  0
LINE
  8
0
 10
39.9864
 20
20.2008
 11
39.9263
 21
20.2372
  0
LINE
  8
0
 10
39.9263
 20
20.2372
 11
39.8777
 21
20.2667
  0
LINE
  8
0
 10
39.8777
 20
20.2667
 11
39.8147
 21
20.2888
  0
LINE
  8
0
 10
39.8147
 20
20.2888
 11
39.7632
 21
20.3069
  0
LINE
  8
0
 10
39.7632
 20
20.3069
 11
39.6459
 21
20.3204
  0
LINE
  8
0
 10
39.6459
 20
20.3204
 11
36.5
 21
20.3204
  0
LINE
  8
0
 10
36.5
 20
20.3204
 11
36.5
 21
16.6863
  0
LINE
  8
0
 10
36.5
 20
27.6362
 11
39.6459
 21
27.6362
  0
LINE
  8
0
 10
39.6459
 20
27.6362
 11
39.7632
 21
27.6498
  0
LINE
  8
0
 10
39.7632
 20
27.6498
 11
39.7954
 21
27.6611
  0
LINE
  8
0
 10
39.7954
 20
27.6611
 11
39.8777
 21
27.69
  0
LINE
  8
0
 10
39.8777
 20
27.69
 11
39.9081
 21
27.7084
  0
LINE
  8
0
 10
39.9081
 20
27.7084
 11
39.9864
 21
27.7559
  0
LINE
  8
0
 10
39.9864
 20
27.7559
 11
40.0868
 21
27.8458
  0
LINE
  8
0
 10
40.0868
 20
27.8458
 11
40.1762
 21
27.9577
  0
LINE
  8
0
 10
40.1762
 20
27.9577
 11
40.1968
 21
27.9929
  0
LINE
  8
0
 10
40.1968
 20
27.9929
 11
40.2527
 21
28.0886
  0
LINE
  8
0
 10
40.2527
 20
28.0886
 11
40.2689
 21
28.1274
  0
LINE
  8
0
 10
40.2689
 20
28.1274
 11
40.3142
 21
28.2354
  0
LINE
  8
0
 10
40.3142
 20
28.2354
 11
40.3258
 21
28.2766
  0
LINE
  8
0
 10
40.3258
 20
28.2766
 11
40.3592
 21
28.3945
  0
LINE
  8
0
 10
40.3592
 20
28.3945
 11
40.3662
 21
28.4369
  0
LINE
  8
0
 10
40.3662
 20
28.4369
 11
40.3867
 21
28.562
  0
LINE
  8
0
 10
40.3867
 20
28.562
 11
40.389
 21
28.6044
  0
LINE
  8
0
 10
40.389
 20
28.6044
 11
40.3959
 21
28.7336
  0
LINE
  8
0
 10
40.3959
 20
28.7336
 11
40.3959
 21
40
  0
LINE
  8
0
 10
40.3959
 20
40
 11
41.8959
 21
41.5
  0
LINE
  8
0
 10
41.8959
 20
41.5
 11
47
 21
41.5
  0
LINE
  8
0
 10
47
 20
41.5
 11
47.5
 21
42
  0
LINE
  8
0
 10
47.5
 20
42
 11
47.5
 21
45.5
  0
LINE
  8
0
 10
47.5
 20
45.5
 11
36.5
 21
45.5
  0
LINE
  8
0
 10
36.5
 20
45.5
 11
36.5
 21
27.6362
  0
ENDSEC
  0
SECTION
  2
OBJECTS
  0
DICTIONARY
  0
ENDSEC
  0
EOF
