  0
SECTION
  2
BLOCKS
  0
ENDSEC
  0
SECTION
  2
ENTITIES
  0
LINE
  8
0
 10
0
 20
0
 11
11
 21
0
  0
LINE
  8
0
 10
11
 20
0
 11
11
 21
11.2482
  0
LINE
  8
0
 10
11
 20
11.2482
 11
7.85409
 21
11.2482
  0
LINE
  8
0
 10
7.85409
 20
11.2482
 11
7.83256
 21
11.2465
  0
LINE
  8
0
 10
7.83256
 20
11.2465
 11
7.73676
 21
11.2387
  0
LINE
  8
0
 10
7.73676
 20
11.2387
 11
7.71479
 21
11.2333
  0
LINE
  8
0
 10
7.71479
 20
11.2333
 11
7.62232
 21
11.2104
  0
LINE
  8
0
 10
7.62232
 20
11.2104
 11
7.59902
 21
11.2005
  0
LINE
  8
0
 10
7.59902
 20
11.2005
 11
7.51359
 21
11.164
  0
LINE
  8
0
 10
7.51359
 20
11.164
 11
7.48857
 21
11.1482
  0
LINE
  8
0
 10
7.48857
 20
11.1482
 11
7.41325
 21
11.1007
  0
LINE
  8
0
 10
7.41325
 20
11.1007
 11
7.38686
 21
11.0774
  0
LINE
  8
0
 10
7.38686
 20
11.0774
 11
7.32376
 21
11.0219
  0
LINE
  8
0
 10
7.32376
 20
11.0219
 11
7.29711
 21
10.9898
  0
LINE
  8
0
 10
7.29711
 20
10.9898
 11
7.24732
 21
10.9297
  0
LINE
  8
0
 10
7.24732
 20
10.9297
 11
7.22226
 21
10.8876
  0
LINE
  8
0
 10
7.22226
 20
10.8876
 11
7.18583
 21
10.8263
  0
LINE
  8
0
 10
7.18583
 20
10.8263
 11
7.16471
 21
10.7738
  0
LINE
  8
0
 10
7.16471
 20
10.7738
 11
7.14079
 21
10.7143
  0
LINE
  8
0
 10
7.14079
 20
10.7143
 11
7.12621
 21
10.6518
  0
LINE
  8
0
 10
7.12621
 20
10.6518
 11
7.11332
 21
10.5964
  0
LINE
  8
0
 10
7.11332
 20
10.5964
 11
7.10787
 21
10.5251
  0
LINE
  8
0
 10
7.10787
 20
10.5251
 11
7.10409
 21
10.4755
  0
LINE
  8
0
 10
7.10409
 20
10.4755
 11
7.10409
 21
5.5
  0
LINE
  8
0
 10
7.10409
 20
5.5
 11
5.60409
 21
4
  0
LINE
  8
0
 10
5.60409
 20
4
 11
0.499999
 21
4
  0
LINE
  8
0
 10
0.499999
 20
4
 11
0
 21
3.5
  0
LINE
  8
0
 10
0
 20
3.5
 11
0
 21
0
  0
LINE
  8
0
 10
0
 20
42
 11
0.499999
 21
41.5
  0
LINE
  8
0
 10
0.499999
 20
41.5
 11
5.60409
 21
41.5
  0
LINE
  8
0
 10
5.60409
 20
41.5
 11
7.10409
 21
40
  0
LINE
  8
0
 10
7.10409
 20
40
 11
7.10409
 21
28.52
  0
LINE
  8
0
 10
7.10409
 20
28.52
 11
7.10647
 21
28.4756
  0
LINE
  8
0
 10
7.10647
 20
28.4756
 11
7.11332
 21
28.3483
  0
LINE
  8
0
 10
7.11332
 20
28.3483
 11
7.1206
 21
28.304
  0
LINE
  8
0
 10
7.1206
 20
28.304
 11
7.14079
 21
28.1809
  0
LINE
  8
0
 10
7.14079
 20
28.1809
 11
7.15299
 21
28.1378
  0
LINE
  8
0
 10
7.15299
 20
28.1378
 11
7.18583
 21
28.0218
  0
LINE
  8
0
 10
7.18583
 20
28.0218
 11
7.20284
 21
27.9812
  0
LINE
  8
0
 10
7.20284
 20
27.9812
 11
7.24732
 21
27.875
  0
LINE
  8
0
 10
7.24732
 20
27.875
 11
7.26886
 21
27.8381
  0
LINE
  8
0
 10
7.26886
 20
27.8381
 11
7.32376
 21
27.744
  0
LINE
  8
0
 10
7.32376
 20
27.744
 11
7.41325
 21
27.6322
  0
LINE
  8
0
 10
7.41325
 20
27.6322
 11
7.51359
 21
27.5422
  0
LINE
  8
0
 10
7.51359
 20
27.5422
 11
7.54549
 21
27.5229
  0
LINE
  8
0
 10
7.54549
 20
27.5229
 11
7.62232
 21
27.4763
  0
LINE
  8
0
 10
7.62232
 20
27.4763
 11
7.65614
 21
27.4645
  0
LINE
  8
0
 10
7.65614
 20
27.4645
 11
7.73676
 21
27.4361
  0
LINE
  8
0
 10
7.73676
 20
27.4361
 11
7.85409
 21
27.4226
  0
LINE
  8
0
 10
7.85409
 20
27.4226
 11
11
 21
27.4226
  0
LINE
  8
0
 10
11
 20
27.4226
 11
11
 21
45.5
  0
LINE
  8
0
 10
11
 20
45.5
 11
0
 21
45.5
  0
LINE
  8
0
 10
0
 20
45.5
 11
0
 21
42
  0
LINE
  8
0
 10
7.10409
 20
17.57
 11
7.11123
 21
17.4372
  0
LINE
  8
0
 10
7.11123
 20
17.4372
 11
7.11332
 21
17.3984
  0
LINE
  8
0
 10
7.11332
 20
17.3984
 11
7.13492
 21
17.2667
  0
LINE
  8
0
 10
7.13492
 20
17.2667
 11
7.14079
 21
17.2309
  0
LINE
  8
0
 10
7.14079
 20
17.2309
 11
7.17673
 21
17.104
  0
LINE
  8
0
 10
7.17673
 20
17.104
 11
7.18583
 21
17.0718
  0
LINE
  8
0
 10
7.18583
 20
17.0718
 11
7.23557
 21
16.9531
  0
LINE
  8
0
 10
7.23557
 20
16.9531
 11
7.24732
 21
16.925
  0
LINE
  8
0
 10
7.24732
 20
16.925
 11
7.30991
 21
16.8178
  0
LINE
  8
0
 10
7.30991
 20
16.8178
 11
7.32376
 21
16.7941
  0
LINE
  8
0
 10
7.32376
 20
16.7941
 11
7.39779
 21
16.7015
  0
LINE
  8
0
 10
7.39779
 20
16.7015
 11
7.41325
 21
16.6822
  0
LINE
  8
0
 10
7.41325
 20
16.6822
 11
7.49695
 21
16.6072
  0
LINE
  8
0
 10
7.49695
 20
16.6072
 11
7.51359
 21
16.5923
  0
LINE
  8
0
 10
7.51359
 20
16.5923
 11
7.60485
 21
16.5369
  0
LINE
  8
0
 10
7.60485
 20
16.5369
 11
7.62232
 21
16.5264
  0
LINE
  8
0
 10
7.62232
 20
16.5264
 11
7.71874
 21
16.4925
  0
LINE
  8
0
 10
7.71874
 20
16.4925
 11
7.73676
 21
16.4862
  0
LINE
  8
0
 10
7.73676
 20
16.4862
 11
7.85409
 21
16.4726
  0
LINE
  8
0
 10
7.85409
 20
16.4726
 11
11
 21
16.4726
  0
LINE
  8
0
 10
11
 20
16.4726
 11
11
 21
20.1068
  0
LINE
  8
0
 10
11
 20
20.1068
 11
7.85409
 21
20.1068
  0
LINE
  8
0
 10
7.85409
 20
20.1068
 11
7.73676
 21
20.0933
  0
LINE
  8
0
 10
7.73676
 20
20.0933
 11
7.67207
 21
20.0705
  0
LINE
  8
0
 10
7.67207
 20
20.0705
 11
7.62232
 21
20.0531
  0
LINE
  8
0
 10
7.62232
 20
20.0531
 11
7.56064
 21
20.0157
  0
LINE
  8
0
 10
7.56064
 20
20.0157
 11
7.51359
 21
19.9872
  0
LINE
  8
0
 10
7.51359
 20
19.9872
 11
7.45637
 21
19.9359
  0
LINE
  8
0
 10
7.45637
 20
19.9359
 11
7.41325
 21
19.8972
  0
LINE
  8
0
 10
7.41325
 20
19.8972
 11
7.36188
 21
19.833
  0
LINE
  8
0
 10
7.36188
 20
19.833
 11
7.32376
 21
19.7854
  0
LINE
  8
0
 10
7.32376
 20
19.7854
 11
7.27954
 21
19.7096
  0
LINE
  8
0
 10
7.27954
 20
19.7096
 11
7.24732
 21
19.6544
  0
LINE
  8
0
 10
7.24732
 20
19.6544
 11
7.21143
 21
19.5687
  0
LINE
  8
0
 10
7.21143
 20
19.5687
 11
7.18583
 21
19.5076
  0
LINE
  8
0
 10
7.18583
 20
19.5076
 11
7.15929
 21
19.4139
  0
LINE
  8
0
 10
7.15929
 20
19.4139
 11
7.14079
 21
19.3485
  0
LINE
  8
0
 10
7.14079
 20
19.3485
 11
7.12444
 21
19.2488
  0
LINE
  8
0
 10
7.12444
 20
19.2488
 11
7.11332
 21
19.1811
  0
LINE
  8
0
 10
7.11332
 20
19.1811
 11
7.10777
 21
19.0778
  0
LINE
  8
0
 10
7.10777
 20
19.0778
 11
7.10409
 21
19.0094
  0
LINE
  8
0
 10
7.10409
 20
19.0094
 11
7.10409
 21
17.57
  0
LINE
  8
0
 10
36.5
 20
0
 11
47.5
 21
0
  0
LINE
  8
0
 10
47.5
 20
0
 11
47.5
 21
3.5
  0
LINE
  8
0
 10
47.5
 20
3.5
 11
47
 21
4
  0
LINE
  8
0
 10
47
 20
4
 11
41.8959
 21
4
  0
LINE
  8
0
 10
41.8959
 20
4
 11
40.3959
 21
5.5
  0
LINE
  8
0
 10
40.3959
 20
5.5
 11
40.3959
 21
10.4755
  0
LINE
  8
0
 10
40.3959
 20
10.4755
 11
40.3904
 21
10.5478
  0
LINE
  8
0
 10
40.3904
 20
10.5478
 11
40.3867
 21
10.5964
  0
LINE
  8
0
 10
40.3867
 20
10.5964
 11
40.3717
 21
10.6607
  0
LINE
  8
0
 10
40.3717
 20
10.6607
 11
40.3592
 21
10.7143
  0
LINE
  8
0
 10
40.3592
 20
10.7143
 11
40.3371
 21
10.7692
  0
LINE
  8
0
 10
40.3371
 20
10.7692
 11
40.3142
 21
10.8263
  0
LINE
  8
0
 10
40.3142
 20
10.8263
 11
40.2875
 21
10.8712
  0
LINE
  8
0
 10
40.2875
 20
10.8712
 11
40.2527
 21
10.9297
  0
LINE
  8
0
 10
40.2527
 20
10.9297
 11
40.2237
 21
10.9646
  0
LINE
  8
0
 10
40.2237
 20
10.9646
 11
40.1762
 21
11.0219
  0
LINE
  8
0
 10
40.1762
 20
11.0219
 11
40.147
 21
11.0476
  0
LINE
  8
0
 10
40.147
 20
11.0476
 11
40.0868
 21
11.1007
  0
LINE
  8
0
 10
40.0868
 20
11.1007
 11
40.0588
 21
11.1183
  0
LINE
  8
0
 10
40.0588
 20
11.1183
 11
39.9864
 21
11.164
  0
LINE
  8
0
 10
39.9864
 20
11.164
 11
39.9605
 21
11.1751
  0
LINE
  8
0
 10
39.9605
 20
11.1751
 11
39.8777
 21
11.2104
  0
LINE
  8
0
 10
39.8777
 20
11.2104
 11
39.8539
 21
11.2163
  0
LINE
  8
0
 10
39.8539
 20
11.2163
 11
39.7632
 21
11.2387
  0
LINE
  8
0
 10
39.7632
 20
11.2387
 11
39.7411
 21
11.2405
  0
LINE
  8
0
 10
39.7411
 20
11.2405
 11
39.6459
 21
11.2482
  0
LINE
  8
0
 10
39.6459
 20
11.2482
 11
36.5
 21
11.2482
  0
LINE
  8
0
 10
36.5
 20
11.2482
 11
36.5
 21
0
  0
LINE
  8
0
 10
36.5
 20
16.4726
 11
39.6459
 21
16.4726
  0
LINE
  8
0
 10
39.6459
 20
16.4726
 11
39.7632
 21
16.4862
  0
LINE
  8
0
 10
39.7632
 20
16.4862
 11
39.8594
 21
16.5199
  0
LINE
  8
0
 10
39.8594
 20
16.5199
 11
39.8777
 21
16.5264
  0
LINE
  8
0
 10
39.8777
 20
16.5264
 11
39.9686
 21
16.5814
  0
LINE
  8
0
 10
39.9686
 20
16.5814
 11
39.9864
 21
16.5923
  0
LINE
  8
0
 10
39.9864
 20
16.5923
 11
40.0697
 21
16.6669
  0
LINE
  8
0
 10
40.0697
 20
16.6669
 11
40.0868
 21
16.6822
  0
LINE
  8
0
 10
40.0868
 20
16.6822
 11
40.1603
 21
16.7741
  0
LINE
  8
0
 10
40.1603
 20
16.7741
 11
40.1762
 21
16.7941
  0
LINE
  8
0
 10
40.1762
 20
16.7941
 11
40.2384
 21
16.9005
  0
LINE
  8
0
 10
40.2384
 20
16.9005
 11
40.2527
 21
16.925
  0
LINE
  8
0
 10
40.2527
 20
16.925
 11
40.302
 21
17.0428
  0
LINE
  8
0
 10
40.302
 20
17.0428
 11
40.3142
 21
17.0718
  0
LINE
  8
0
 10
40.3142
 20
17.0718
 11
40.3498
 21
17.1977
  0
LINE
  8
0
 10
40.3498
 20
17.1977
 11
40.3592
 21
17.2309
  0
LINE
  8
0
 10
40.3592
 20
17.2309
 11
40.3806
 21
17.3614
  0
LINE
  8
0
 10
40.3806
 20
17.3614
 11
40.3867
 21
17.3984
  0
LINE
  8
0
 10
40.3867
 20
17.3984
 11
40.3938
 21
17.53
  0
LINE
  8
0
 10
40.3938
 20
17.53
 11
40.3959
 21
17.57
  0
LINE
  8
0
 10
40.3959
 20
17.57
 11
40.3959
 21
19.0094
  0
LINE
  8
0
 10
40.3959
 20
19.0094
 11
40.3904
 21
19.1125
  0
LINE
  8
0
 10
40.3904
 20
19.1125
 11
40.3867
 21
19.1811
  0
LINE
  8
0
 10
40.3867
 20
19.1811
 11
40.3704
 21
19.2806
  0
LINE
  8
0
 10
40.3704
 20
19.2806
 11
40.3592
 21
19.3485
  0
LINE
  8
0
 10
40.3592
 20
19.3485
 11
40.3327
 21
19.4421
  0
LINE
  8
0
 10
40.3327
 20
19.4421
 11
40.3142
 21
19.5076
  0
LINE
  8
0
 10
40.3142
 20
19.5076
 11
40.2783
 21
19.5932
  0
LINE
  8
0
 10
40.2783
 20
19.5932
 11
40.2527
 21
19.6544
  0
LINE
  8
0
 10
40.2527
 20
19.6544
 11
40.2085
 21
19.7301
  0
LINE
  8
0
 10
40.2085
 20
19.7301
 11
40.1762
 21
19.7854
  0
LINE
  8
0
 10
40.1762
 20
19.7854
 11
40.1249
 21
19.8495
  0
LINE
  8
0
 10
40.1249
 20
19.8495
 11
40.0868
 21
19.8972
  0
LINE
  8
0
 10
40.0868
 20
19.8972
 11
40.0296
 21
19.9485
  0
LINE
  8
0
 10
40.0296
 20
19.9485
 11
39.9864
 21
19.9872
  0
LINE
  8
0
 10
39.9864
 20
19.9872
 11
39.9248
 21
20.0245
  0
LINE
  8
0
 10
39.9248
 20
20.0245
 11
39.8777
 21
20.0531
  0
LINE
  8
0
 10
39.8777
 20
20.0531
 11
39.813
 21
20.0758
  0
LINE
  8
0
 10
39.813
 20
20.0758
 11
39.7632
 21
20.0933
  0
LINE
  8
0
 10
39.7632
 20
20.0933
 11
39.6459
 21
20.1068
  0
LINE
  8
0
 10
39.6459
 20
20.1068
 11
36.5
 21
20.1068
  0
LINE
  8
0
 10
36.5
 20
20.1068
 11
36.5
 21
16.4726
  0
LINE
  8
0
 10
36.5
 20
27.4226
 11
39.6459
 21
27.4226
  0
LINE
  8
0
 10
39.6459
 20
27.4226
 11
39.7632
 21
27.4361
  0
LINE
  8
0
 10
39.7632
 20
27.4361
 11
39.7971
 21
27.448
  0
LINE
  8
0
 10
39.7971
 20
27.448
 11
39.8777
 21
27.4763
  0
LINE
  8
0
 10
39.8777
 20
27.4763
 11
39.9097
 21
27.4957
  0
LINE
  8
0
 10
39.9097
 20
27.4957
 11
39.9864
 21
27.5422
  0
LINE
  8
0
 10
39.9864
 20
27.5422
 11
40.0868
 21
27.6322
  0
LINE
  8
0
 10
40.0868
 20
27.6322
 11
40.1762
 21
27.744
  0
LINE
  8
0
 10
40.1762
 20
27.744
 11
40.1979
 21
27.7812
  0
LINE
  8
0
 10
40.1979
 20
27.7812
 11
40.2527
 21
27.875
  0
LINE
  8
0
 10
40.2527
 20
27.875
 11
40.2698
 21
27.9159
  0
LINE
  8
0
 10
40.2698
 20
27.9159
 11
40.3142
 21
28.0218
  0
LINE
  8
0
 10
40.3142
 20
28.0218
 11
40.3265
 21
28.0653
  0
LINE
  8
0
 10
40.3265
 20
28.0653
 11
40.3592
 21
28.1809
  0
LINE
  8
0
 10
40.3592
 20
28.1809
 11
40.3666
 21
28.2257
  0
LINE
  8
0
 10
40.3666
 20
28.2257
 11
40.3867
 21
28.3483
  0
LINE
  8
0
 10
40.3867
 20
28.3483
 11
40.3891
 21
28.3932
  0
LINE
  8
0
 10
40.3891
 20
28.3932
 11
40.3959
 21
28.52
  0
LINE
  8
0
 10
40.3959
 20
28.52
 11
40.3959
 21
40
  0
LINE
  8
0
 10
40.3959
 20
40
 11
41.8959
 21
41.5
  0
LINE
  8
0
 10
41.8959
 20
41.5
 11
47
 21
41.5
  0
LINE
  8
0
 10
47
 20
41.5
 11
47.5
 21
42
  0
LINE
  8
0
 10
47.5
 20
42
 11
47.5
 21
45.5
  0
LINE
  8
0
 10
47.5
 20
45.5
 11
36.5
 21
45.5
  0
LINE
  8
0
 10
36.5
 20
45.5
 11
36.5
 21
27.4226
  0
ENDSEC
  0
SECTION
  2
OBJECTS
  0
DICTIONARY
  0
ENDSEC
  0
EOF
