  0
SECTION
  2
BLOCKS
  0
ENDSEC
  0
SECTION
  2
ENTITIES
  0
LINE
  8
0
 10
0
 20
0
 11
11
 21
0
  0
LINE
  8
0
 10
11
 20
0
 11
11
 21
11.3244
  0
LINE
  8
0
 10
11
 20
11.3244
 11
7.85409
 21
11.3244
  0
LINE
  8
0
 10
7.85409
 20
11.3244
 11
7.77568
 21
11.3176
  0
LINE
  8
0
 10
7.77568
 20
11.3176
 11
7.73676
 21
11.3143
  0
LINE
  8
0
 10
7.73676
 20
11.3143
 11
7.65793
 21
11.2936
  0
LINE
  8
0
 10
7.65793
 20
11.2936
 11
7.62232
 21
11.2843
  0
LINE
  8
0
 10
7.62232
 20
11.2843
 11
7.54314
 21
11.2485
  0
LINE
  8
0
 10
7.54314
 20
11.2485
 11
7.51359
 21
11.2351
  0
LINE
  8
0
 10
7.51359
 20
11.2351
 11
7.43485
 21
11.1824
  0
LINE
  8
0
 10
7.43485
 20
11.1824
 11
7.41325
 21
11.1679
  0
LINE
  8
0
 10
7.41325
 20
11.1679
 11
7.3367
 21
11.0965
  0
LINE
  8
0
 10
7.3367
 20
11.0965
 11
7.32376
 21
11.0844
  0
LINE
  8
0
 10
7.32376
 20
11.0844
 11
7.25218
 21
10.9929
  0
LINE
  8
0
 10
7.25218
 20
10.9929
 11
7.24732
 21
10.9867
  0
LINE
  8
0
 10
7.24732
 20
10.9867
 11
7.20281
 21
10.9073
  0
LINE
  8
0
 10
7.20281
 20
10.9073
 11
7.18583
 21
10.8788
  0
LINE
  8
0
 10
7.18583
 20
10.8788
 11
7.1849
 21
10.8765
  0
LINE
  8
0
 10
7.1849
 20
10.8765
 11
7.14079
 21
10.7668
  0
LINE
  8
0
 10
7.14079
 20
10.7668
 11
7.1381
 21
10.7552
  0
LINE
  8
0
 10
7.1381
 20
10.7552
 11
7.11332
 21
10.6489
  0
LINE
  8
0
 10
7.11332
 20
10.6489
 11
7.11172
 21
10.6279
  0
LINE
  8
0
 10
7.11172
 20
10.6279
 11
7.10409
 21
10.528
  0
LINE
  8
0
 10
7.10409
 20
10.528
 11
7.10409
 21
5.5
  0
LINE
  8
0
 10
7.10409
 20
5.5
 11
5.60409
 21
4
  0
LINE
  8
0
 10
5.60409
 20
4
 11
0.499999
 21
4
  0
LINE
  8
0
 10
0.499999
 20
4
 11
0
 21
3.5
  0
LINE
  8
0
 10
0
 20
3.5
 11
0
 21
0
  0
LINE
  8
0
 10
0
 20
42
 11
0.499999
 21
41.5
  0
LINE
  8
0
 10
0.499999
 20
41.5
 11
5.60409
 21
41.5
  0
LINE
  8
0
 10
5.60409
 20
41.5
 11
7.10409
 21
40
  0
LINE
  8
0
 10
7.10409
 20
40
 11
7.10409
 21
31.9977
  0
LINE
  8
0
 10
7.10409
 20
31.9977
 11
7.10603
 21
31.9199
  0
LINE
  8
0
 10
7.10603
 20
31.9199
 11
7.11078
 21
31.5352
  0
LINE
  8
0
 10
7.11078
 20
31.5352
 11
7.1126
 21
31.3876
  0
LINE
  8
0
 10
7.1126
 20
31.3876
 11
7.1123
 21
30.9279
  0
LINE
  8
0
 10
7.1123
 20
30.9279
 11
7.11226
 21
30.8683
  0
LINE
  8
0
 10
7.11226
 20
30.8683
 11
7.10871
 21
30.6089
  0
LINE
  8
0
 10
7.10871
 20
30.6089
 11
7.10495
 21
30.333
  0
LINE
  8
0
 10
7.10495
 20
30.333
 11
7.10443
 21
30.3132
  0
LINE
  8
0
 10
7.10443
 20
30.3132
 11
7.10409
 21
30.3002
  0
LINE
  8
0
 10
7.10409
 20
30.3002
 11
7.10409
 21
28.3064
  0
LINE
  8
0
 10
7.10409
 20
28.3064
 11
7.10661
 21
28.2595
  0
LINE
  8
0
 10
7.10661
 20
28.2595
 11
7.11332
 21
28.1347
  0
LINE
  8
0
 10
7.11332
 20
28.1347
 11
7.121
 21
28.0879
  0
LINE
  8
0
 10
7.121
 20
28.0879
 11
7.14079
 21
27.9673
  0
LINE
  8
0
 10
7.14079
 20
27.9673
 11
7.15366
 21
27.9218
  0
LINE
  8
0
 10
7.15366
 20
27.9218
 11
7.18583
 21
27.8082
  0
LINE
  8
0
 10
7.18583
 20
27.8082
 11
7.20374
 21
27.7654
  0
LINE
  8
0
 10
7.20374
 20
27.7654
 11
7.24732
 21
27.6614
  0
LINE
  8
0
 10
7.24732
 20
27.6614
 11
7.26999
 21
27.6225
  0
LINE
  8
0
 10
7.26999
 20
27.6225
 11
7.32376
 21
27.5304
  0
LINE
  8
0
 10
7.32376
 20
27.5304
 11
7.41325
 21
27.4186
  0
LINE
  8
0
 10
7.41325
 20
27.4186
 11
7.51359
 21
27.3286
  0
LINE
  8
0
 10
7.51359
 20
27.3286
 11
7.54708
 21
27.3083
  0
LINE
  8
0
 10
7.54708
 20
27.3083
 11
7.62232
 21
27.2627
  0
LINE
  8
0
 10
7.62232
 20
27.2627
 11
7.65781
 21
27.2502
  0
LINE
  8
0
 10
7.65781
 20
27.2502
 11
7.73676
 21
27.2225
  0
LINE
  8
0
 10
7.73676
 20
27.2225
 11
7.85409
 21
27.209
  0
LINE
  8
0
 10
7.85409
 20
27.209
 11
11
 21
27.209
  0
LINE
  8
0
 10
11
 20
27.209
 11
11
 21
45.5
  0
LINE
  8
0
 10
11
 20
45.5
 11
0
 21
45.5
  0
LINE
  8
0
 10
0
 20
45.5
 11
0
 21
42
  0
LINE
  8
0
 10
7.10409
 20
17.3564
 11
7.1115
 21
17.2185
  0
LINE
  8
0
 10
7.1115
 20
17.2185
 11
7.11332
 21
17.1847
  0
LINE
  8
0
 10
7.11332
 20
17.1847
 11
7.13573
 21
17.0482
  0
LINE
  8
0
 10
7.13573
 20
17.0482
 11
7.14079
 21
17.0173
  0
LINE
  8
0
 10
7.14079
 20
17.0173
 11
7.17806
 21
16.8856
  0
LINE
  8
0
 10
7.17806
 20
16.8856
 11
7.18583
 21
16.8582
  0
LINE
  8
0
 10
7.18583
 20
16.8582
 11
7.23739
 21
16.7351
  0
LINE
  8
0
 10
7.23739
 20
16.7351
 11
7.24732
 21
16.7114
  0
LINE
  8
0
 10
7.24732
 20
16.7114
 11
7.31216
 21
16.6003
  0
LINE
  8
0
 10
7.31216
 20
16.6003
 11
7.32376
 21
16.5804
  0
LINE
  8
0
 10
7.32376
 20
16.5804
 11
7.40043
 21
16.4846
  0
LINE
  8
0
 10
7.40043
 20
16.4846
 11
7.41325
 21
16.4686
  0
LINE
  8
0
 10
7.41325
 20
16.4686
 11
7.49991
 21
16.3909
  0
LINE
  8
0
 10
7.49991
 20
16.3909
 11
7.51359
 21
16.3786
  0
LINE
  8
0
 10
7.51359
 20
16.3786
 11
7.60805
 21
16.3214
  0
LINE
  8
0
 10
7.60805
 20
16.3214
 11
7.62232
 21
16.3127
  0
LINE
  8
0
 10
7.62232
 20
16.3127
 11
7.7221
 21
16.2777
  0
LINE
  8
0
 10
7.7221
 20
16.2777
 11
7.73676
 21
16.2725
  0
LINE
  8
0
 10
7.73676
 20
16.2725
 11
7.85409
 21
16.259
  0
LINE
  8
0
 10
7.85409
 20
16.259
 11
11
 21
16.259
  0
LINE
  8
0
 10
11
 20
16.259
 11
11
 21
19.8932
  0
LINE
  8
0
 10
11
 20
19.8932
 11
7.85409
 21
19.8932
  0
LINE
  8
0
 10
7.85409
 20
19.8932
 11
7.73676
 21
19.8797
  0
LINE
  8
0
 10
7.73676
 20
19.8797
 11
7.67039
 21
19.8563
  0
LINE
  8
0
 10
7.67039
 20
19.8563
 11
7.62232
 21
19.8395
  0
LINE
  8
0
 10
7.62232
 20
19.8395
 11
7.55904
 21
19.8011
  0
LINE
  8
0
 10
7.55904
 20
19.8011
 11
7.51359
 21
19.7736
  0
LINE
  8
0
 10
7.51359
 20
19.7736
 11
7.4549
 21
19.7209
  0
LINE
  8
0
 10
7.4549
 20
19.7209
 11
7.41325
 21
19.6836
  0
LINE
  8
0
 10
7.41325
 20
19.6836
 11
7.36056
 21
19.6177
  0
LINE
  8
0
 10
7.36056
 20
19.6177
 11
7.32376
 21
19.5717
  0
LINE
  8
0
 10
7.32376
 20
19.5717
 11
7.27842
 21
19.4941
  0
LINE
  8
0
 10
7.27842
 20
19.4941
 11
7.24732
 21
19.4408
  0
LINE
  8
0
 10
7.24732
 20
19.4408
 11
7.21053
 21
19.353
  0
LINE
  8
0
 10
7.21053
 20
19.353
 11
7.18583
 21
19.294
  0
LINE
  8
0
 10
7.18583
 20
19.294
 11
7.15863
 21
19.1979
  0
LINE
  8
0
 10
7.15863
 20
19.1979
 11
7.14079
 21
19.1349
  0
LINE
  8
0
 10
7.14079
 20
19.1349
 11
7.12403
 21
19.0327
  0
LINE
  8
0
 10
7.12403
 20
19.0327
 11
7.11332
 21
18.9675
  0
LINE
  8
0
 10
7.11332
 20
18.9675
 11
7.10763
 21
18.8617
  0
LINE
  8
0
 10
7.10763
 20
18.8617
 11
7.10409
 21
18.7958
  0
LINE
  8
0
 10
7.10409
 20
18.7958
 11
7.10409
 21
17.3564
  0
LINE
  8
0
 10
36.5
 20
0
 11
47.5
 21
0
  0
LINE
  8
0
 10
47.5
 20
0
 11
47.5
 21
3.5
  0
LINE
  8
0
 10
47.5
 20
3.5
 11
47
 21
4
  0
LINE
  8
0
 10
47
 20
4
 11
41.8959
 21
4
  0
LINE
  8
0
 10
41.8959
 20
4
 11
40.3959
 21
5.5
  0
LINE
  8
0
 10
40.3959
 20
5.5
 11
40.3959
 21
10.528
  0
LINE
  8
0
 10
40.3959
 20
10.528
 11
40.3938
 21
10.5554
  0
LINE
  8
0
 10
40.3938
 20
10.5554
 11
40.3867
 21
10.6489
  0
LINE
  8
0
 10
40.3867
 20
10.6489
 11
40.3823
 21
10.6678
  0
LINE
  8
0
 10
40.3823
 20
10.6678
 11
40.3592
 21
10.7668
  0
LINE
  8
0
 10
40.3592
 20
10.7668
 11
40.3551
 21
10.7769
  0
LINE
  8
0
 10
40.3551
 20
10.7769
 11
40.3142
 21
10.8788
  0
LINE
  8
0
 10
40.3142
 20
10.8788
 11
40.313
 21
10.8808
  0
LINE
  8
0
 10
40.313
 20
10.8808
 11
40.2972
 21
10.9073
  0
LINE
  8
0
 10
40.2972
 20
10.9073
 11
40.2558
 21
10.9811
  0
LINE
  8
0
 10
40.2558
 20
10.9811
 11
40.2527
 21
10.9867
  0
LINE
  8
0
 10
40.2527
 20
10.9867
 11
40.1853
 21
11.0728
  0
LINE
  8
0
 10
40.1853
 20
11.0728
 11
40.1762
 21
11.0844
  0
LINE
  8
0
 10
40.1762
 20
11.0844
 11
40.1031
 21
11.1527
  0
LINE
  8
0
 10
40.1031
 20
11.1527
 11
40.0868
 21
11.1679
  0
LINE
  8
0
 10
40.0868
 20
11.1679
 11
40.0103
 21
11.2191
  0
LINE
  8
0
 10
40.0103
 20
11.2191
 11
39.9864
 21
11.2351
  0
LINE
  8
0
 10
39.9864
 20
11.2351
 11
39.9086
 21
11.2703
  0
LINE
  8
0
 10
39.9086
 20
11.2703
 11
39.8777
 21
11.2843
  0
LINE
  8
0
 10
39.8777
 20
11.2843
 11
39.7995
 21
11.3048
  0
LINE
  8
0
 10
39.7995
 20
11.3048
 11
39.7632
 21
11.3143
  0
LINE
  8
0
 10
39.7632
 20
11.3143
 11
39.685
 21
11.321
  0
LINE
  8
0
 10
39.685
 20
11.321
 11
39.6459
 21
11.3244
  0
LINE
  8
0
 10
39.6459
 20
11.3244
 11
36.5
 21
11.3244
  0
LINE
  8
0
 10
36.5
 20
11.3244
 11
36.5
 21
0
  0
LINE
  8
0
 10
36.5
 20
16.259
 11
39.6459
 21
16.259
  0
LINE
  8
0
 10
39.6459
 20
16.259
 11
39.7632
 21
16.2725
  0
LINE
  8
0
 10
39.7632
 20
16.2725
 11
39.8628
 21
16.3075
  0
LINE
  8
0
 10
39.8628
 20
16.3075
 11
39.8777
 21
16.3127
  0
LINE
  8
0
 10
39.8777
 20
16.3127
 11
39.9717
 21
16.3697
  0
LINE
  8
0
 10
39.9717
 20
16.3697
 11
39.9864
 21
16.3786
  0
LINE
  8
0
 10
39.9864
 20
16.3786
 11
40.0726
 21
16.4559
  0
LINE
  8
0
 10
40.0726
 20
16.4559
 11
40.0868
 21
16.4686
  0
LINE
  8
0
 10
40.0868
 20
16.4686
 11
40.1629
 21
16.5638
  0
LINE
  8
0
 10
40.1629
 20
16.5638
 11
40.1762
 21
16.5804
  0
LINE
  8
0
 10
40.1762
 20
16.5804
 11
40.2406
 21
16.6907
  0
LINE
  8
0
 10
40.2406
 20
16.6907
 11
40.2527
 21
16.7114
  0
LINE
  8
0
 10
40.2527
 20
16.7114
 11
40.3038
 21
16.8334
  0
LINE
  8
0
 10
40.3038
 20
16.8334
 11
40.3142
 21
16.8582
  0
LINE
  8
0
 10
40.3142
 20
16.8582
 11
40.3511
 21
16.9886
  0
LINE
  8
0
 10
40.3511
 20
16.9886
 11
40.3592
 21
17.0173
  0
LINE
  8
0
 10
40.3592
 20
17.0173
 11
40.3814
 21
17.1526
  0
LINE
  8
0
 10
40.3814
 20
17.1526
 11
40.3867
 21
17.1847
  0
LINE
  8
0
 10
40.3867
 20
17.1847
 11
40.394
 21
17.3213
  0
LINE
  8
0
 10
40.394
 20
17.3213
 11
40.3959
 21
17.3564
  0
LINE
  8
0
 10
40.3959
 20
17.3564
 11
40.3959
 21
18.7958
  0
LINE
  8
0
 10
40.3959
 20
18.7958
 11
40.3902
 21
18.9013
  0
LINE
  8
0
 10
40.3902
 20
18.9013
 11
40.3867
 21
18.9675
  0
LINE
  8
0
 10
40.3867
 20
18.9675
 11
40.37
 21
19.0694
  0
LINE
  8
0
 10
40.37
 20
19.0694
 11
40.3592
 21
19.1349
  0
LINE
  8
0
 10
40.3592
 20
19.1349
 11
40.3321
 21
19.2308
  0
LINE
  8
0
 10
40.3321
 20
19.2308
 11
40.3142
 21
19.294
  0
LINE
  8
0
 10
40.3142
 20
19.294
 11
40.2774
 21
19.3817
  0
LINE
  8
0
 10
40.2774
 20
19.3817
 11
40.2527
 21
19.4408
  0
LINE
  8
0
 10
40.2527
 20
19.4408
 11
40.2074
 21
19.5184
  0
LINE
  8
0
 10
40.2074
 20
19.5184
 11
40.1762
 21
19.5717
  0
LINE
  8
0
 10
40.1762
 20
19.5717
 11
40.1236
 21
19.6375
  0
LINE
  8
0
 10
40.1236
 20
19.6375
 11
40.0868
 21
19.6836
  0
LINE
  8
0
 10
40.0868
 20
19.6836
 11
40.0281
 21
19.7362
  0
LINE
  8
0
 10
40.0281
 20
19.7362
 11
39.9864
 21
19.7736
  0
LINE
  8
0
 10
39.9864
 20
19.7736
 11
39.9232
 21
19.8119
  0
LINE
  8
0
 10
39.9232
 20
19.8119
 11
39.8777
 21
19.8395
  0
LINE
  8
0
 10
39.8777
 20
19.8395
 11
39.8113
 21
19.8628
  0
LINE
  8
0
 10
39.8113
 20
19.8628
 11
39.7632
 21
19.8797
  0
LINE
  8
0
 10
39.7632
 20
19.8797
 11
39.6459
 21
19.8932
  0
LINE
  8
0
 10
39.6459
 20
19.8932
 11
36.5
 21
19.8932
  0
LINE
  8
0
 10
36.5
 20
19.8932
 11
36.5
 21
16.259
  0
LINE
  8
0
 10
36.5
 20
27.209
 11
39.6459
 21
27.209
  0
LINE
  8
0
 10
39.6459
 20
27.209
 11
39.7632
 21
27.2225
  0
LINE
  8
0
 10
39.7632
 20
27.2225
 11
39.7988
 21
27.235
  0
LINE
  8
0
 10
39.7988
 20
27.235
 11
39.8777
 21
27.2627
  0
LINE
  8
0
 10
39.8777
 20
27.2627
 11
39.9113
 21
27.2831
  0
LINE
  8
0
 10
39.9113
 20
27.2831
 11
39.9864
 21
27.3286
  0
LINE
  8
0
 10
39.9864
 20
27.3286
 11
40.0868
 21
27.4186
  0
LINE
  8
0
 10
40.0868
 20
27.4186
 11
40.1762
 21
27.5304
  0
LINE
  8
0
 10
40.1762
 20
27.5304
 11
40.1991
 21
27.5695
  0
LINE
  8
0
 10
40.1991
 20
27.5695
 11
40.2527
 21
27.6614
  0
LINE
  8
0
 10
40.2527
 20
27.6614
 11
40.2707
 21
27.7045
  0
LINE
  8
0
 10
40.2707
 20
27.7045
 11
40.3142
 21
27.8082
  0
LINE
  8
0
 10
40.3142
 20
27.8082
 11
40.3271
 21
27.854
  0
LINE
  8
0
 10
40.3271
 20
27.854
 11
40.3592
 21
27.9673
  0
LINE
  8
0
 10
40.3592
 20
27.9673
 11
40.367
 21
28.0145
  0
LINE
  8
0
 10
40.367
 20
28.0145
 11
40.3867
 21
28.1347
  0
LINE
  8
0
 10
40.3867
 20
28.1347
 11
40.3892
 21
28.1821
  0
LINE
  8
0
 10
40.3892
 20
28.1821
 11
40.3959
 21
28.3064
  0
LINE
  8
0
 10
40.3959
 20
28.3064
 11
40.3959
 21
30.3002
  0
LINE
  8
0
 10
40.3959
 20
30.3002
 11
40.3951
 21
30.333
  0
LINE
  8
0
 10
40.3951
 20
30.333
 11
40.3919
 21
30.5674
  0
LINE
  8
0
 10
40.3919
 20
30.5674
 11
40.3877
 21
30.8683
  0
LINE
  8
0
 10
40.3877
 20
30.8683
 11
40.3874
 21
31.3442
  0
LINE
  8
0
 10
40.3874
 20
31.3442
 11
40.3874
 21
31.3876
  0
LINE
  8
0
 10
40.3874
 20
31.3876
 11
40.3909
 21
31.6695
  0
LINE
  8
0
 10
40.3909
 20
31.6695
 11
40.394
 21
31.9199
  0
LINE
  8
0
 10
40.394
 20
31.9199
 11
40.3951
 21
31.9658
  0
LINE
  8
0
 10
40.3951
 20
31.9658
 11
40.3959
 21
31.9977
  0
LINE
  8
0
 10
40.3959
 20
31.9977
 11
40.3959
 21
40
  0
LINE
  8
0
 10
40.3959
 20
40
 11
41.8959
 21
41.5
  0
LINE
  8
0
 10
41.8959
 20
41.5
 11
47
 21
41.5
  0
LINE
  8
0
 10
47
 20
41.5
 11
47.5
 21
42
  0
LINE
  8
0
 10
47.5
 20
42
 11
47.5
 21
45.5
  0
LINE
  8
0
 10
47.5
 20
45.5
 11
36.5
 21
45.5
  0
LINE
  8
0
 10
36.5
 20
45.5
 11
36.5
 21
27.209
  0
ENDSEC
  0
SECTION
  2
OBJECTS
  0
DICTIONARY
  0
ENDSEC
  0
EOF
