  0
SECTION
  2
BLOCKS
  0
ENDSEC
  0
SECTION
  2
ENTITIES
  0
LINE
  8
0
 10
0
 20
0
 11
11
 21
0
  0
LINE
  8
0
 10
11
 20
0
 11
11
 21
11.4141
  0
LINE
  8
0
 10
11
 20
11.4141
 11
7.85409
 21
11.4141
  0
LINE
  8
0
 10
7.85409
 20
11.4141
 11
7.83848
 21
11.4128
  0
LINE
  8
0
 10
7.83848
 20
11.4128
 11
7.73676
 21
11.404
  0
LINE
  8
0
 10
7.73676
 20
11.404
 11
7.71996
 21
11.3996
  0
LINE
  8
0
 10
7.71996
 20
11.3996
 11
7.62232
 21
11.374
  0
LINE
  8
0
 10
7.62232
 20
11.374
 11
7.60236
 21
11.365
  0
LINE
  8
0
 10
7.60236
 20
11.365
 11
7.51359
 21
11.3248
  0
LINE
  8
0
 10
7.51359
 20
11.3248
 11
7.4893
 21
11.3086
  0
LINE
  8
0
 10
7.4893
 20
11.3086
 11
7.41325
 21
11.2577
  0
LINE
  8
0
 10
7.41325
 20
11.2577
 11
7.3847
 21
11.231
  0
LINE
  8
0
 10
7.3847
 20
11.231
 11
7.32376
 21
11.1742
  0
LINE
  8
0
 10
7.32376
 20
11.1742
 11
7.29241
 21
11.1341
  0
LINE
  8
0
 10
7.29241
 20
11.1341
 11
7.24732
 21
11.0764
  0
LINE
  8
0
 10
7.24732
 20
11.0764
 11
7.21592
 21
11.0204
  0
LINE
  8
0
 10
7.21592
 20
11.0204
 11
7.18583
 21
10.9668
  0
LINE
  8
0
 10
7.18583
 20
10.9668
 11
7.15811
 21
10.8937
  0
LINE
  8
0
 10
7.15811
 20
10.8937
 11
7.14079
 21
10.848
  0
LINE
  8
0
 10
7.14079
 20
10.848
 11
7.121
 21
10.758
  0
LINE
  8
0
 10
7.121
 20
10.758
 11
7.11332
 21
10.723
  0
LINE
  8
0
 10
7.11332
 20
10.723
 11
7.10574
 21
10.6178
  0
LINE
  8
0
 10
7.10574
 20
10.6178
 11
7.10409
 21
10.5949
  0
LINE
  8
0
 10
7.10409
 20
10.5949
 11
7.10409
 21
5.5
  0
LINE
  8
0
 10
7.10409
 20
5.5
 11
5.60409
 21
4
  0
LINE
  8
0
 10
5.60409
 20
4
 11
0.499999
 21
4
  0
LINE
  8
0
 10
0.499999
 20
4
 11
0
 21
3.5
  0
LINE
  8
0
 10
0
 20
3.5
 11
0
 21
0
  0
LINE
  8
0
 10
0
 20
42
 11
0.499999
 21
41.5
  0
LINE
  8
0
 10
0.499999
 20
41.5
 11
5.60409
 21
41.5
  0
LINE
  8
0
 10
5.60409
 20
41.5
 11
7.10409
 21
40
  0
LINE
  8
0
 10
7.10409
 20
40
 11
7.10409
 21
32.5367
  0
LINE
  8
0
 10
7.10409
 20
32.5367
 11
7.10871
 21
32.4118
  0
LINE
  8
0
 10
7.10871
 20
32.4118
 11
7.11332
 21
32.2275
  0
LINE
  8
0
 10
7.11332
 20
32.2275
 11
7.14051
 21
31.8711
  0
LINE
  8
0
 10
7.14051
 20
31.8711
 11
7.14079
 21
31.8636
  0
LINE
  8
0
 10
7.14079
 20
31.8636
 11
7.17268
 21
31.3727
  0
LINE
  8
0
 10
7.17268
 20
31.3727
 11
7.17153
 21
31.045
  0
LINE
  8
0
 10
7.17153
 20
31.045
 11
7.17098
 21
30.8866
  0
LINE
  8
0
 10
7.17098
 20
30.8866
 11
7.15787
 21
30.7042
  0
LINE
  8
0
 10
7.15787
 20
30.7042
 11
7.14079
 21
30.4665
  0
LINE
  8
0
 10
7.14079
 20
30.4665
 11
7.13893
 21
30.4217
  0
LINE
  8
0
 10
7.13893
 20
30.4217
 11
7.13742
 21
30.3854
  0
LINE
  8
0
 10
7.13742
 20
30.3854
 11
7.12297
 21
30.2051
  0
LINE
  8
0
 10
7.12297
 20
30.2051
 11
7.11332
 21
30.0847
  0
LINE
  8
0
 10
7.11332
 20
30.0847
 11
7.1109
 21
29.9924
  0
LINE
  8
0
 10
7.1109
 20
29.9924
 11
7.10685
 21
29.8384
  0
LINE
  8
0
 10
7.10685
 20
29.8384
 11
7.10492
 21
29.7877
  0
LINE
  8
0
 10
7.10492
 20
29.7877
 11
7.10409
 21
29.766
  0
LINE
  8
0
 10
7.10409
 20
29.766
 11
7.10409
 21
28.0928
  0
LINE
  8
0
 10
7.10409
 20
28.0928
 11
7.10675
 21
28.0433
  0
LINE
  8
0
 10
7.10675
 20
28.0433
 11
7.11332
 21
27.9211
  0
LINE
  8
0
 10
7.11332
 20
27.9211
 11
7.1214
 21
27.8718
  0
LINE
  8
0
 10
7.1214
 20
27.8718
 11
7.14079
 21
27.7537
  0
LINE
  8
0
 10
7.14079
 20
27.7537
 11
7.15432
 21
27.7059
  0
LINE
  8
0
 10
7.15432
 20
27.7059
 11
7.18583
 21
27.5946
  0
LINE
  8
0
 10
7.18583
 20
27.5946
 11
7.20465
 21
27.5496
  0
LINE
  8
0
 10
7.20465
 20
27.5496
 11
7.24732
 21
27.4477
  0
LINE
  8
0
 10
7.24732
 20
27.4477
 11
7.27111
 21
27.407
  0
LINE
  8
0
 10
7.27111
 20
27.407
 11
7.32376
 21
27.3168
  0
LINE
  8
0
 10
7.32376
 20
27.3168
 11
7.41325
 21
27.205
  0
LINE
  8
0
 10
7.41325
 20
27.205
 11
7.51359
 21
27.115
  0
LINE
  8
0
 10
7.51359
 20
27.115
 11
7.54868
 21
27.0937
  0
LINE
  8
0
 10
7.54868
 20
27.0937
 11
7.62232
 21
27.0491
  0
LINE
  8
0
 10
7.62232
 20
27.0491
 11
7.65949
 21
27.036
  0
LINE
  8
0
 10
7.65949
 20
27.036
 11
7.73676
 21
27.0089
  0
LINE
  8
0
 10
7.73676
 20
27.0089
 11
7.85409
 21
26.9954
  0
LINE
  8
0
 10
7.85409
 20
26.9954
 11
11
 21
26.9954
  0
LINE
  8
0
 10
11
 20
26.9954
 11
11
 21
45.5
  0
LINE
  8
0
 10
11
 20
45.5
 11
0
 21
45.5
  0
LINE
  8
0
 10
0
 20
45.5
 11
0
 21
42
  0
LINE
  8
0
 10
7.10409
 20
17.1428
 11
7.11178
 21
16.9998
  0
LINE
  8
0
 10
7.11178
 20
16.9998
 11
7.11332
 21
16.9711
  0
LINE
  8
0
 10
7.11332
 20
16.9711
 11
7.13654
 21
16.8296
  0
LINE
  8
0
 10
7.13654
 20
16.8296
 11
7.14079
 21
16.8037
  0
LINE
  8
0
 10
7.14079
 20
16.8037
 11
7.1794
 21
16.6673
  0
LINE
  8
0
 10
7.1794
 20
16.6673
 11
7.18583
 21
16.6446
  0
LINE
  8
0
 10
7.18583
 20
16.6446
 11
7.23921
 21
16.5171
  0
LINE
  8
0
 10
7.23921
 20
16.5171
 11
7.24732
 21
16.4978
  0
LINE
  8
0
 10
7.24732
 20
16.4978
 11
7.31442
 21
16.3828
  0
LINE
  8
0
 10
7.31442
 20
16.3828
 11
7.32376
 21
16.3668
  0
LINE
  8
0
 10
7.32376
 20
16.3668
 11
7.40307
 21
16.2677
  0
LINE
  8
0
 10
7.40307
 20
16.2677
 11
7.41325
 21
16.255
  0
LINE
  8
0
 10
7.41325
 20
16.255
 11
7.50286
 21
16.1746
  0
LINE
  8
0
 10
7.50286
 20
16.1746
 11
7.51359
 21
16.165
  0
LINE
  8
0
 10
7.51359
 20
16.165
 11
7.61124
 21
16.1058
  0
LINE
  8
0
 10
7.61124
 20
16.1058
 11
7.62232
 21
16.0991
  0
LINE
  8
0
 10
7.62232
 20
16.0991
 11
7.72546
 21
16.0629
  0
LINE
  8
0
 10
7.72546
 20
16.0629
 11
7.73676
 21
16.0589
  0
LINE
  8
0
 10
7.73676
 20
16.0589
 11
7.85409
 21
16.0454
  0
LINE
  8
0
 10
7.85409
 20
16.0454
 11
11
 21
16.0454
  0
LINE
  8
0
 10
11
 20
16.0454
 11
11
 21
19.6795
  0
LINE
  8
0
 10
11
 20
19.6795
 11
7.85409
 21
19.6795
  0
LINE
  8
0
 10
7.85409
 20
19.6795
 11
7.73676
 21
19.666
  0
LINE
  8
0
 10
7.73676
 20
19.666
 11
7.66871
 21
19.6421
  0
LINE
  8
0
 10
7.66871
 20
19.6421
 11
7.62232
 21
19.6258
  0
LINE
  8
0
 10
7.62232
 20
19.6258
 11
7.55745
 21
19.5865
  0
LINE
  8
0
 10
7.55745
 20
19.5865
 11
7.51359
 21
19.5599
  0
LINE
  8
0
 10
7.51359
 20
19.5599
 11
7.45343
 21
19.506
  0
LINE
  8
0
 10
7.45343
 20
19.506
 11
7.41325
 21
19.47
  0
LINE
  8
0
 10
7.41325
 20
19.47
 11
7.35925
 21
19.4025
  0
LINE
  8
0
 10
7.35925
 20
19.4025
 11
7.32376
 21
19.3581
  0
LINE
  8
0
 10
7.32376
 20
19.3581
 11
7.27729
 21
19.2785
  0
LINE
  8
0
 10
7.27729
 20
19.2785
 11
7.24732
 21
19.2272
  0
LINE
  8
0
 10
7.24732
 20
19.2272
 11
7.20962
 21
19.1372
  0
LINE
  8
0
 10
7.20962
 20
19.1372
 11
7.18583
 21
19.0804
  0
LINE
  8
0
 10
7.18583
 20
19.0804
 11
7.15797
 21
18.9819
  0
LINE
  8
0
 10
7.15797
 20
18.9819
 11
7.14079
 21
18.9213
  0
LINE
  8
0
 10
7.14079
 20
18.9213
 11
7.12363
 21
18.8167
  0
LINE
  8
0
 10
7.12363
 20
18.8167
 11
7.11332
 21
18.7538
  0
LINE
  8
0
 10
7.11332
 20
18.7538
 11
7.10749
 21
18.6455
  0
LINE
  8
0
 10
7.10749
 20
18.6455
 11
7.10409
 21
18.5822
  0
LINE
  8
0
 10
7.10409
 20
18.5822
 11
7.10409
 21
17.1428
  0
LINE
  8
0
 10
36.5
 20
0
 11
47.5
 21
0
  0
LINE
  8
0
 10
47.5
 20
0
 11
47.5
 21
3.5
  0
LINE
  8
0
 10
47.5
 20
3.5
 11
47
 21
4
  0
LINE
  8
0
 10
47
 20
4
 11
41.8959
 21
4
  0
LINE
  8
0
 10
41.8959
 20
4
 11
40.3959
 21
5.5
  0
LINE
  8
0
 10
40.3959
 20
5.5
 11
40.3959
 21
10.5949
  0
LINE
  8
0
 10
40.3959
 20
10.5949
 11
40.3887
 21
10.6948
  0
LINE
  8
0
 10
40.3887
 20
10.6948
 11
40.3867
 21
10.723
  0
LINE
  8
0
 10
40.3867
 20
10.723
 11
40.3675
 21
10.8101
  0
LINE
  8
0
 10
40.3675
 20
10.8101
 11
40.3592
 21
10.848
  0
LINE
  8
0
 10
40.3592
 20
10.848
 11
40.3317
 21
10.9207
  0
LINE
  8
0
 10
40.3317
 20
10.9207
 11
40.3142
 21
10.9668
  0
LINE
  8
0
 10
40.3142
 20
10.9668
 11
40.2819
 21
11.0243
  0
LINE
  8
0
 10
40.2819
 20
11.0243
 11
40.2527
 21
11.0764
  0
LINE
  8
0
 10
40.2527
 20
11.0764
 11
40.2191
 21
11.1194
  0
LINE
  8
0
 10
40.2191
 20
11.1194
 11
40.1762
 21
11.1742
  0
LINE
  8
0
 10
40.1762
 20
11.1742
 11
40.1442
 21
11.2041
  0
LINE
  8
0
 10
40.1442
 20
11.2041
 11
40.0868
 21
11.2577
  0
LINE
  8
0
 10
40.0868
 20
11.2577
 11
40.0582
 21
11.2767
  0
LINE
  8
0
 10
40.0582
 20
11.2767
 11
39.9864
 21
11.3248
  0
LINE
  8
0
 10
39.9864
 20
11.3248
 11
39.9624
 21
11.3357
  0
LINE
  8
0
 10
39.9624
 20
11.3357
 11
39.8777
 21
11.374
  0
LINE
  8
0
 10
39.8777
 20
11.374
 11
39.858
 21
11.3792
  0
LINE
  8
0
 10
39.858
 20
11.3792
 11
39.7632
 21
11.404
  0
LINE
  8
0
 10
39.7632
 20
11.404
 11
39.7466
 21
11.4055
  0
LINE
  8
0
 10
39.7466
 20
11.4055
 11
39.6459
 21
11.4141
  0
LINE
  8
0
 10
39.6459
 20
11.4141
 11
36.5
 21
11.4141
  0
LINE
  8
0
 10
36.5
 20
11.4141
 11
36.5
 21
0
  0
LINE
  8
0
 10
36.5
 20
16.0454
 11
39.6459
 21
16.0454
  0
LINE
  8
0
 10
39.6459
 20
16.0454
 11
39.7632
 21
16.0589
  0
LINE
  8
0
 10
39.7632
 20
16.0589
 11
39.8661
 21
16.095
  0
LINE
  8
0
 10
39.8661
 20
16.095
 11
39.8777
 21
16.0991
  0
LINE
  8
0
 10
39.8777
 20
16.0991
 11
39.9749
 21
16.158
  0
LINE
  8
0
 10
39.9749
 20
16.158
 11
39.9864
 21
16.165
  0
LINE
  8
0
 10
39.9864
 20
16.165
 11
40.0755
 21
16.2449
  0
LINE
  8
0
 10
40.0755
 20
16.2449
 11
40.0868
 21
16.255
  0
LINE
  8
0
 10
40.0868
 20
16.255
 11
40.1655
 21
16.3534
  0
LINE
  8
0
 10
40.1655
 20
16.3534
 11
40.1762
 21
16.3668
  0
LINE
  8
0
 10
40.1762
 20
16.3668
 11
40.2428
 21
16.4808
  0
LINE
  8
0
 10
40.2428
 20
16.4808
 11
40.2527
 21
16.4978
  0
LINE
  8
0
 10
40.2527
 20
16.4978
 11
40.3056
 21
16.6241
  0
LINE
  8
0
 10
40.3056
 20
16.6241
 11
40.3142
 21
16.6446
  0
LINE
  8
0
 10
40.3142
 20
16.6446
 11
40.3524
 21
16.7796
  0
LINE
  8
0
 10
40.3524
 20
16.7796
 11
40.3592
 21
16.8037
  0
LINE
  8
0
 10
40.3592
 20
16.8037
 11
40.3822
 21
16.9438
  0
LINE
  8
0
 10
40.3822
 20
16.9438
 11
40.3867
 21
16.9711
  0
LINE
  8
0
 10
40.3867
 20
16.9711
 11
40.3943
 21
17.1127
  0
LINE
  8
0
 10
40.3943
 20
17.1127
 11
40.3959
 21
17.1428
  0
LINE
  8
0
 10
40.3959
 20
17.1428
 11
40.3959
 21
18.5822
  0
LINE
  8
0
 10
40.3959
 20
18.5822
 11
40.3901
 21
18.6902
  0
LINE
  8
0
 10
40.3901
 20
18.6902
 11
40.3867
 21
18.7538
  0
LINE
  8
0
 10
40.3867
 20
18.7538
 11
40.3696
 21
18.8582
  0
LINE
  8
0
 10
40.3696
 20
18.8582
 11
40.3592
 21
18.9213
  0
LINE
  8
0
 10
40.3592
 20
18.9213
 11
40.3314
 21
19.0195
  0
LINE
  8
0
 10
40.3314
 20
19.0195
 11
40.3142
 21
19.0804
  0
LINE
  8
0
 10
40.3142
 20
19.0804
 11
40.2765
 21
19.1702
  0
LINE
  8
0
 10
40.2765
 20
19.1702
 11
40.2527
 21
19.2272
  0
LINE
  8
0
 10
40.2527
 20
19.2272
 11
40.2063
 21
19.3067
  0
LINE
  8
0
 10
40.2063
 20
19.3067
 11
40.1762
 21
19.3581
  0
LINE
  8
0
 10
40.1762
 20
19.3581
 11
40.1223
 21
19.4255
  0
LINE
  8
0
 10
40.1223
 20
19.4255
 11
40.0868
 21
19.47
  0
LINE
  8
0
 10
40.0868
 20
19.47
 11
40.0266
 21
19.5239
  0
LINE
  8
0
 10
40.0266
 20
19.5239
 11
39.9864
 21
19.5599
  0
LINE
  8
0
 10
39.9864
 20
19.5599
 11
39.9216
 21
19.5992
  0
LINE
  8
0
 10
39.9216
 20
19.5992
 11
39.8777
 21
19.6258
  0
LINE
  8
0
 10
39.8777
 20
19.6258
 11
39.8097
 21
19.6497
  0
LINE
  8
0
 10
39.8097
 20
19.6497
 11
39.7632
 21
19.666
  0
LINE
  8
0
 10
39.7632
 20
19.666
 11
39.6459
 21
19.6795
  0
LINE
  8
0
 10
39.6459
 20
19.6795
 11
36.5
 21
19.6795
  0
LINE
  8
0
 10
36.5
 20
19.6795
 11
36.5
 21
16.0454
  0
LINE
  8
0
 10
36.5
 20
26.9954
 11
39.6459
 21
26.9954
  0
LINE
  8
0
 10
39.6459
 20
26.9954
 11
39.7632
 21
27.0089
  0
LINE
  8
0
 10
39.7632
 20
27.0089
 11
39.8005
 21
27.022
  0
LINE
  8
0
 10
39.8005
 20
27.022
 11
39.8777
 21
27.0491
  0
LINE
  8
0
 10
39.8777
 20
27.0491
 11
39.9128
 21
27.0704
  0
LINE
  8
0
 10
39.9128
 20
27.0704
 11
39.9864
 21
27.115
  0
LINE
  8
0
 10
39.9864
 20
27.115
 11
40.0868
 21
27.205
  0
LINE
  8
0
 10
40.0868
 20
27.205
 11
40.1762
 21
27.3168
  0
LINE
  8
0
 10
40.1762
 20
27.3168
 11
40.2002
 21
27.3578
  0
LINE
  8
0
 10
40.2002
 20
27.3578
 11
40.2527
 21
27.4477
  0
LINE
  8
0
 10
40.2527
 20
27.4477
 11
40.2716
 21
27.493
  0
LINE
  8
0
 10
40.2716
 20
27.493
 11
40.3142
 21
27.5946
  0
LINE
  8
0
 10
40.3142
 20
27.5946
 11
40.3278
 21
27.6427
  0
LINE
  8
0
 10
40.3278
 20
27.6427
 11
40.3592
 21
27.7537
  0
LINE
  8
0
 10
40.3592
 20
27.7537
 11
40.3674
 21
27.8033
  0
LINE
  8
0
 10
40.3674
 20
27.8033
 11
40.3867
 21
27.9211
  0
LINE
  8
0
 10
40.3867
 20
27.9211
 11
40.3894
 21
27.971
  0
LINE
  8
0
 10
40.3894
 20
27.971
 11
40.3959
 21
28.0928
  0
LINE
  8
0
 10
40.3959
 20
28.0928
 11
40.3959
 21
29.766
  0
LINE
  8
0
 10
40.3959
 20
29.766
 11
40.3931
 21
29.8384
  0
LINE
  8
0
 10
40.3931
 20
29.8384
 11
40.3867
 21
30.0847
  0
LINE
  8
0
 10
40.3867
 20
30.0847
 11
40.3626
 21
30.3854
  0
LINE
  8
0
 10
40.3626
 20
30.3854
 11
40.3592
 21
30.4665
  0
LINE
  8
0
 10
40.3592
 20
30.4665
 11
40.329
 21
30.8866
  0
LINE
  8
0
 10
40.329
 20
30.8866
 11
40.3278
 21
31.2214
  0
LINE
  8
0
 10
40.3278
 20
31.2214
 11
40.3273
 21
31.3727
  0
LINE
  8
0
 10
40.3273
 20
31.3727
 11
40.3404
 21
31.5736
  0
LINE
  8
0
 10
40.3404
 20
31.5736
 11
40.3592
 21
31.8636
  0
LINE
  8
0
 10
40.3592
 20
31.8636
 11
40.3594
 21
31.8679
  0
LINE
  8
0
 10
40.3594
 20
31.8679
 11
40.3595
 21
31.8711
  0
LINE
  8
0
 10
40.3595
 20
31.8711
 11
40.3754
 21
32.0802
  0
LINE
  8
0
 10
40.3754
 20
32.0802
 11
40.3867
 21
32.2275
  0
LINE
  8
0
 10
40.3867
 20
32.2275
 11
40.3885
 21
32.299
  0
LINE
  8
0
 10
40.3885
 20
32.299
 11
40.3913
 21
32.4118
  0
LINE
  8
0
 10
40.3913
 20
32.4118
 11
40.3945
 21
32.4983
  0
LINE
  8
0
 10
40.3945
 20
32.4983
 11
40.3959
 21
32.5367
  0
LINE
  8
0
 10
40.3959
 20
32.5367
 11
40.3959
 21
40
  0
LINE
  8
0
 10
40.3959
 20
40
 11
41.8959
 21
41.5
  0
LINE
  8
0
 10
41.8959
 20
41.5
 11
47
 21
41.5
  0
LINE
  8
0
 10
47
 20
41.5
 11
47.5
 21
42
  0
LINE
  8
0
 10
47.5
 20
42
 11
47.5
 21
45.5
  0
LINE
  8
0
 10
47.5
 20
45.5
 11
36.5
 21
45.5
  0
LINE
  8
0
 10
36.5
 20
45.5
 11
36.5
 21
26.9954
  0
ENDSEC
  0
SECTION
  2
OBJECTS
  0
DICTIONARY
  0
ENDSEC
  0
EOF
