  0
SECTION
  2
BLOCKS
  0
ENDSEC
  0
SECTION
  2
ENTITIES
  0
LINE
  8
0
 10
0
 20
0
 11
11
 21
0
  0
LINE
  8
0
 10
11
 20
0
 11
11
 21
11.5364
  0
LINE
  8
0
 10
11
 20
11.5364
 11
7.85409
 21
11.5364
  0
LINE
  8
0
 10
7.85409
 20
11.5364
 11
7.78719
 21
11.5301
  0
LINE
  8
0
 10
7.78719
 20
11.5301
 11
7.73676
 21
11.5254
  0
LINE
  8
0
 10
7.73676
 20
11.5254
 11
7.66805
 21
11.5056
  0
LINE
  8
0
 10
7.66805
 20
11.5056
 11
7.62232
 21
11.4925
  0
LINE
  8
0
 10
7.62232
 20
11.4925
 11
7.55043
 21
11.4568
  0
LINE
  8
0
 10
7.55043
 20
11.4568
 11
7.51359
 21
11.4386
  0
LINE
  8
0
 10
7.51359
 20
11.4386
 11
7.43826
 21
11.3833
  0
LINE
  8
0
 10
7.43826
 20
11.3833
 11
7.41325
 21
11.365
  0
LINE
  8
0
 10
7.41325
 20
11.365
 11
7.33585
 21
11.2858
  0
LINE
  8
0
 10
7.33585
 20
11.2858
 11
7.32376
 21
11.2735
  0
LINE
  8
0
 10
7.32376
 20
11.2735
 11
7.24753
 21
11.1666
  0
LINE
  8
0
 10
7.24753
 20
11.1666
 11
7.24732
 21
11.1663
  0
LINE
  8
0
 10
7.24732
 20
11.1663
 11
7.24623
 21
11.1642
  0
LINE
  8
0
 10
7.24623
 20
11.1642
 11
7.18583
 21
11.0565
  0
LINE
  8
0
 10
7.18583
 20
11.0565
 11
7.1805
 21
11.0425
  0
LINE
  8
0
 10
7.1805
 20
11.0425
 11
7.14079
 21
10.9378
  0
LINE
  8
0
 10
7.14079
 20
10.9378
 11
7.13419
 21
10.9077
  0
LINE
  8
0
 10
7.13419
 20
10.9077
 11
7.11332
 21
10.8128
  0
LINE
  8
0
 10
7.11332
 20
10.8128
 11
7.11
 21
10.7668
  0
LINE
  8
0
 10
7.11
 20
10.7668
 11
7.10409
 21
10.6846
  0
LINE
  8
0
 10
7.10409
 20
10.6846
 11
7.10409
 21
5.5
  0
LINE
  8
0
 10
7.10409
 20
5.5
 11
5.60409
 21
4
  0
LINE
  8
0
 10
5.60409
 20
4
 11
0.499999
 21
4
  0
LINE
  8
0
 10
0.499999
 20
4
 11
0
 21
3.5
  0
LINE
  8
0
 10
0
 20
3.5
 11
0
 21
0
  0
LINE
  8
0
 10
0
 20
42
 11
0.499999
 21
41.5
  0
LINE
  8
0
 10
0.499999
 20
41.5
 11
5.60409
 21
41.5
  0
LINE
  8
0
 10
5.60409
 20
41.5
 11
7.10409
 21
40
  0
LINE
  8
0
 10
7.10409
 20
40
 11
7.10409
 21
32.9124
  0
LINE
  8
0
 10
7.10409
 20
32.9124
 11
7.10432
 21
32.9075
  0
LINE
  8
0
 10
7.10432
 20
32.9075
 11
7.11332
 21
32.6643
  0
LINE
  8
0
 10
7.11332
 20
32.6643
 11
7.13259
 21
32.4936
  0
LINE
  8
0
 10
7.13259
 20
32.4936
 11
7.14079
 21
32.4209
  0
LINE
  8
0
 10
7.14079
 20
32.4209
 11
7.15926
 21
32.3261
  0
LINE
  8
0
 10
7.15926
 20
32.3261
 11
7.18583
 21
32.1242
  0
LINE
  8
0
 10
7.18583
 20
32.1242
 11
7.24465
 21
31.8222
  0
LINE
  8
0
 10
7.24465
 20
31.8222
 11
7.24732
 21
31.7944
  0
LINE
  8
0
 10
7.24732
 20
31.7944
 11
7.30579
 21
31.3578
  0
LINE
  8
0
 10
7.30579
 20
31.3578
 11
7.30341
 21
31.0284
  0
LINE
  8
0
 10
7.30341
 20
31.0284
 11
7.30252
 21
30.9049
  0
LINE
  8
0
 10
7.30252
 20
30.9049
 11
7.27682
 21
30.7314
  0
LINE
  8
0
 10
7.27682
 20
30.7314
 11
7.24732
 21
30.5323
  0
LINE
  8
0
 10
7.24732
 20
30.5323
 11
7.24191
 21
30.4814
  0
LINE
  8
0
 10
7.24191
 20
30.4814
 11
7.23728
 21
30.4379
  0
LINE
  8
0
 10
7.23728
 20
30.4379
 11
7.2057
 21
30.2834
  0
LINE
  8
0
 10
7.2057
 20
30.2834
 11
7.18583
 21
30.1863
  0
LINE
  8
0
 10
7.18583
 20
30.1863
 11
7.17247
 21
30.0897
  0
LINE
  8
0
 10
7.17247
 20
30.0897
 11
7.15013
 21
29.9281
  0
LINE
  8
0
 10
7.15013
 20
29.9281
 11
7.14359
 21
29.8955
  0
LINE
  8
0
 10
7.14359
 20
29.8955
 11
7.14079
 21
29.8816
  0
LINE
  8
0
 10
7.14079
 20
29.8816
 11
7.12326
 21
29.7311
  0
LINE
  8
0
 10
7.12326
 20
29.7311
 11
7.11332
 21
29.6457
  0
LINE
  8
0
 10
7.11332
 20
29.6457
 11
7.11009
 21
29.5609
  0
LINE
  8
0
 10
7.11009
 20
29.5609
 11
7.10409
 21
29.4038
  0
LINE
  8
0
 10
7.10409
 20
29.4038
 11
7.10409
 21
27.8791
  0
LINE
  8
0
 10
7.10409
 20
27.8791
 11
7.10688
 21
27.8272
  0
LINE
  8
0
 10
7.10688
 20
27.8272
 11
7.11332
 21
27.7075
  0
LINE
  8
0
 10
7.11332
 20
27.7075
 11
7.12181
 21
27.6557
  0
LINE
  8
0
 10
7.12181
 20
27.6557
 11
7.14079
 21
27.54
  0
LINE
  8
0
 10
7.14079
 20
27.54
 11
7.15498
 21
27.4899
  0
LINE
  8
0
 10
7.15498
 20
27.4899
 11
7.18583
 21
27.3809
  0
LINE
  8
0
 10
7.18583
 20
27.3809
 11
7.20555
 21
27.3338
  0
LINE
  8
0
 10
7.20555
 20
27.3338
 11
7.24732
 21
27.2341
  0
LINE
  8
0
 10
7.24732
 20
27.2341
 11
7.27224
 21
27.1914
  0
LINE
  8
0
 10
7.27224
 20
27.1914
 11
7.32376
 21
27.1032
  0
LINE
  8
0
 10
7.32376
 20
27.1032
 11
7.41325
 21
26.9913
  0
LINE
  8
0
 10
7.41325
 20
26.9913
 11
7.51359
 21
26.9014
  0
LINE
  8
0
 10
7.51359
 20
26.9014
 11
7.55027
 21
26.8791
  0
LINE
  8
0
 10
7.55027
 20
26.8791
 11
7.62232
 21
26.8355
  0
LINE
  8
0
 10
7.62232
 20
26.8355
 11
7.66117
 21
26.8218
  0
LINE
  8
0
 10
7.66117
 20
26.8218
 11
7.73676
 21
26.7953
  0
LINE
  8
0
 10
7.73676
 20
26.7953
 11
7.85409
 21
26.7818
  0
LINE
  8
0
 10
7.85409
 20
26.7818
 11
11
 21
26.7818
  0
LINE
  8
0
 10
11
 20
26.7818
 11
11
 21
45.5
  0
LINE
  8
0
 10
11
 20
45.5
 11
0
 21
45.5
  0
LINE
  8
0
 10
0
 20
45.5
 11
0
 21
42
  0
LINE
  8
0
 10
7.10409
 20
16.9292
 11
7.11205
 21
16.7811
  0
LINE
  8
0
 10
7.11205
 20
16.7811
 11
7.11332
 21
16.7575
  0
LINE
  8
0
 10
7.11332
 20
16.7575
 11
7.13736
 21
16.611
  0
LINE
  8
0
 10
7.13736
 20
16.611
 11
7.14079
 21
16.59
  0
LINE
  8
0
 10
7.14079
 20
16.59
 11
7.18073
 21
16.449
  0
LINE
  8
0
 10
7.18073
 20
16.449
 11
7.18583
 21
16.431
  0
LINE
  8
0
 10
7.18583
 20
16.431
 11
7.24103
 21
16.2992
  0
LINE
  8
0
 10
7.24103
 20
16.2992
 11
7.24732
 21
16.2841
  0
LINE
  8
0
 10
7.24732
 20
16.2841
 11
7.31668
 21
16.1653
  0
LINE
  8
0
 10
7.31668
 20
16.1653
 11
7.32376
 21
16.1532
  0
LINE
  8
0
 10
7.32376
 20
16.1532
 11
7.40571
 21
16.0508
  0
LINE
  8
0
 10
7.40571
 20
16.0508
 11
7.41325
 21
16.0414
  0
LINE
  8
0
 10
7.41325
 20
16.0414
 11
7.50582
 21
15.9584
  0
LINE
  8
0
 10
7.50582
 20
15.9584
 11
7.51359
 21
15.9514
  0
LINE
  8
0
 10
7.51359
 20
15.9514
 11
7.61444
 21
15.8903
  0
LINE
  8
0
 10
7.61444
 20
15.8903
 11
7.62232
 21
15.8855
  0
LINE
  8
0
 10
7.62232
 20
15.8855
 11
7.72882
 21
15.8481
  0
LINE
  8
0
 10
7.72882
 20
15.8481
 11
7.73676
 21
15.8453
  0
LINE
  8
0
 10
7.73676
 20
15.8453
 11
7.85409
 21
15.8318
  0
LINE
  8
0
 10
7.85409
 20
15.8318
 11
11
 21
15.8318
  0
LINE
  8
0
 10
11
 20
15.8318
 11
11
 21
19.4659
  0
LINE
  8
0
 10
11
 20
19.4659
 11
7.85409
 21
19.4659
  0
LINE
  8
0
 10
7.85409
 20
19.4659
 11
7.73676
 21
19.4524
  0
LINE
  8
0
 10
7.73676
 20
19.4524
 11
7.66704
 21
19.4279
  0
LINE
  8
0
 10
7.66704
 20
19.4279
 11
7.62232
 21
19.4122
  0
LINE
  8
0
 10
7.62232
 20
19.4122
 11
7.55585
 21
19.3719
  0
LINE
  8
0
 10
7.55585
 20
19.3719
 11
7.51359
 21
19.3463
  0
LINE
  8
0
 10
7.51359
 20
19.3463
 11
7.45195
 21
19.291
  0
LINE
  8
0
 10
7.45195
 20
19.291
 11
7.41325
 21
19.2563
  0
LINE
  8
0
 10
7.41325
 20
19.2563
 11
7.35794
 21
19.1872
  0
LINE
  8
0
 10
7.35794
 20
19.1872
 11
7.32376
 21
19.1445
  0
LINE
  8
0
 10
7.32376
 20
19.1445
 11
7.27617
 21
19.063
  0
LINE
  8
0
 10
7.27617
 20
19.063
 11
7.24732
 21
19.0136
  0
LINE
  8
0
 10
7.24732
 20
19.0136
 11
7.20872
 21
18.9214
  0
LINE
  8
0
 10
7.20872
 20
18.9214
 11
7.18583
 21
18.8667
  0
LINE
  8
0
 10
7.18583
 20
18.8667
 11
7.1573
 21
18.766
  0
LINE
  8
0
 10
7.1573
 20
18.766
 11
7.14079
 21
18.7077
  0
LINE
  8
0
 10
7.14079
 20
18.7077
 11
7.12323
 21
18.6006
  0
LINE
  8
0
 10
7.12323
 20
18.6006
 11
7.11332
 21
18.5402
  0
LINE
  8
0
 10
7.11332
 20
18.5402
 11
7.10736
 21
18.4294
  0
LINE
  8
0
 10
7.10736
 20
18.4294
 11
7.10409
 21
18.3685
  0
LINE
  8
0
 10
7.10409
 20
18.3685
 11
7.10409
 21
16.9292
  0
LINE
  8
0
 10
36.5
 20
0
 11
47.5
 21
0
  0
LINE
  8
0
 10
47.5
 20
0
 11
47.5
 21
3.5
  0
LINE
  8
0
 10
47.5
 20
3.5
 11
47
 21
4
  0
LINE
  8
0
 10
47
 20
4
 11
41.8959
 21
4
  0
LINE
  8
0
 10
41.8959
 20
4
 11
40.3959
 21
5.5
  0
LINE
  8
0
 10
40.3959
 20
5.5
 11
40.3959
 21
10.6846
  0
LINE
  8
0
 10
40.3959
 20
10.6846
 11
40.3922
 21
10.7361
  0
LINE
  8
0
 10
40.3922
 20
10.7361
 11
40.3867
 21
10.8128
  0
LINE
  8
0
 10
40.3867
 20
10.8128
 11
40.3783
 21
10.8509
  0
LINE
  8
0
 10
40.3783
 20
10.8509
 11
40.3592
 21
10.9378
  0
LINE
  8
0
 10
40.3592
 20
10.9378
 11
40.35
 21
10.962
  0
LINE
  8
0
 10
40.35
 20
10.962
 11
40.3142
 21
11.0565
  0
LINE
  8
0
 10
40.3142
 20
11.0565
 11
40.308
 21
11.0676
  0
LINE
  8
0
 10
40.308
 20
11.0676
 11
40.2538
 21
11.1642
  0
LINE
  8
0
 10
40.2538
 20
11.1642
 11
40.2528
 21
11.1661
  0
LINE
  8
0
 10
40.2528
 20
11.1661
 11
40.2527
 21
11.1663
  0
LINE
  8
0
 10
40.2527
 20
11.1663
 11
40.1841
 21
11.2625
  0
LINE
  8
0
 10
40.1841
 20
11.2625
 11
40.1762
 21
11.2735
  0
LINE
  8
0
 10
40.1762
 20
11.2735
 11
40.1044
 21
11.3469
  0
LINE
  8
0
 10
40.1044
 20
11.3469
 11
40.0868
 21
11.365
  0
LINE
  8
0
 10
40.0868
 20
11.365
 11
40.0147
 21
11.4178
  0
LINE
  8
0
 10
40.0147
 20
11.4178
 11
39.9864
 21
11.4386
  0
LINE
  8
0
 10
39.9864
 20
11.4386
 11
39.9159
 21
11.4735
  0
LINE
  8
0
 10
39.9159
 20
11.4735
 11
39.8777
 21
11.4925
  0
LINE
  8
0
 10
39.8777
 20
11.4925
 11
39.8093
 21
11.5121
  0
LINE
  8
0
 10
39.8093
 20
11.5121
 11
39.7632
 21
11.5254
  0
LINE
  8
0
 10
39.7632
 20
11.5254
 11
39.6964
 21
11.5317
  0
LINE
  8
0
 10
39.6964
 20
11.5317
 11
39.6459
 21
11.5364
  0
LINE
  8
0
 10
39.6459
 20
11.5364
 11
36.5
 21
11.5364
  0
LINE
  8
0
 10
36.5
 20
11.5364
 11
36.5
 21
0
  0
LINE
  8
0
 10
36.5
 20
15.8318
 11
39.6459
 21
15.8318
  0
LINE
  8
0
 10
39.6459
 20
15.8318
 11
39.7632
 21
15.8453
  0
LINE
  8
0
 10
39.7632
 20
15.8453
 11
39.8694
 21
15.8826
  0
LINE
  8
0
 10
39.8694
 20
15.8826
 11
39.8777
 21
15.8855
  0
LINE
  8
0
 10
39.8777
 20
15.8855
 11
39.9781
 21
15.9463
  0
LINE
  8
0
 10
39.9781
 20
15.9463
 11
39.9864
 21
15.9514
  0
LINE
  8
0
 10
39.9864
 20
15.9514
 11
40.0784
 21
16.0339
  0
LINE
  8
0
 10
40.0784
 20
16.0339
 11
40.0868
 21
16.0414
  0
LINE
  8
0
 10
40.0868
 20
16.0414
 11
40.1681
 21
16.143
  0
LINE
  8
0
 10
40.1681
 20
16.143
 11
40.1762
 21
16.1532
  0
LINE
  8
0
 10
40.1762
 20
16.1532
 11
40.245
 21
16.271
  0
LINE
  8
0
 10
40.245
 20
16.271
 11
40.2527
 21
16.2841
  0
LINE
  8
0
 10
40.2527
 20
16.2841
 11
40.3074
 21
16.4147
  0
LINE
  8
0
 10
40.3074
 20
16.4147
 11
40.3142
 21
16.431
  0
LINE
  8
0
 10
40.3142
 20
16.431
 11
40.3537
 21
16.5706
  0
LINE
  8
0
 10
40.3537
 20
16.5706
 11
40.3592
 21
16.59
  0
LINE
  8
0
 10
40.3592
 20
16.59
 11
40.383
 21
16.735
  0
LINE
  8
0
 10
40.383
 20
16.735
 11
40.3867
 21
16.7575
  0
LINE
  8
0
 10
40.3867
 20
16.7575
 11
40.3946
 21
16.904
  0
LINE
  8
0
 10
40.3946
 20
16.904
 11
40.3959
 21
16.9292
  0
LINE
  8
0
 10
40.3959
 20
16.9292
 11
40.3959
 21
18.3685
  0
LINE
  8
0
 10
40.3959
 20
18.3685
 11
40.39
 21
18.4791
  0
LINE
  8
0
 10
40.39
 20
18.4791
 11
40.3867
 21
18.5402
  0
LINE
  8
0
 10
40.3867
 20
18.5402
 11
40.3692
 21
18.647
  0
LINE
  8
0
 10
40.3692
 20
18.647
 11
40.3592
 21
18.7077
  0
LINE
  8
0
 10
40.3592
 20
18.7077
 11
40.3307
 21
18.8082
  0
LINE
  8
0
 10
40.3307
 20
18.8082
 11
40.3142
 21
18.8667
  0
LINE
  8
0
 10
40.3142
 20
18.8667
 11
40.2756
 21
18.9587
  0
LINE
  8
0
 10
40.2756
 20
18.9587
 11
40.2527
 21
19.0136
  0
LINE
  8
0
 10
40.2527
 20
19.0136
 11
40.2052
 21
19.0949
  0
LINE
  8
0
 10
40.2052
 20
19.0949
 11
40.1762
 21
19.1445
  0
LINE
  8
0
 10
40.1762
 20
19.1445
 11
40.121
 21
19.2135
  0
LINE
  8
0
 10
40.121
 20
19.2135
 11
40.0868
 21
19.2563
  0
LINE
  8
0
 10
40.0868
 20
19.2563
 11
40.0252
 21
19.3115
  0
LINE
  8
0
 10
40.0252
 20
19.3115
 11
39.9864
 21
19.3463
  0
LINE
  8
0
 10
39.9864
 20
19.3463
 11
39.92
 21
19.3866
  0
LINE
  8
0
 10
39.92
 20
19.3866
 11
39.8777
 21
19.4122
  0
LINE
  8
0
 10
39.8777
 20
19.4122
 11
39.808
 21
19.4367
  0
LINE
  8
0
 10
39.808
 20
19.4367
 11
39.7632
 21
19.4524
  0
LINE
  8
0
 10
39.7632
 20
19.4524
 11
39.6459
 21
19.4659
  0
LINE
  8
0
 10
39.6459
 20
19.4659
 11
36.5
 21
19.4659
  0
LINE
  8
0
 10
36.5
 20
19.4659
 11
36.5
 21
15.8318
  0
LINE
  8
0
 10
36.5
 20
26.7818
 11
39.6459
 21
26.7818
  0
LINE
  8
0
 10
39.6459
 20
26.7818
 11
39.7632
 21
26.7953
  0
LINE
  8
0
 10
39.7632
 20
26.7953
 11
39.8021
 21
26.8089
  0
LINE
  8
0
 10
39.8021
 20
26.8089
 11
39.8777
 21
26.8355
  0
LINE
  8
0
 10
39.8777
 20
26.8355
 11
39.9144
 21
26.8578
  0
LINE
  8
0
 10
39.9144
 20
26.8578
 11
39.9864
 21
26.9014
  0
LINE
  8
0
 10
39.9864
 20
26.9014
 11
40.0868
 21
26.9913
  0
LINE
  8
0
 10
40.0868
 20
26.9913
 11
40.1762
 21
27.1032
  0
LINE
  8
0
 10
40.1762
 20
27.1032
 11
40.2013
 21
27.1461
  0
LINE
  8
0
 10
40.2013
 20
27.1461
 11
40.2527
 21
27.2341
  0
LINE
  8
0
 10
40.2527
 20
27.2341
 11
40.2725
 21
27.2815
  0
LINE
  8
0
 10
40.2725
 20
27.2815
 11
40.3142
 21
27.3809
  0
LINE
  8
0
 10
40.3142
 20
27.3809
 11
40.3285
 21
27.4314
  0
LINE
  8
0
 10
40.3285
 20
27.4314
 11
40.3592
 21
27.54
  0
LINE
  8
0
 10
40.3592
 20
27.54
 11
40.3678
 21
27.5922
  0
LINE
  8
0
 10
40.3678
 20
27.5922
 11
40.3867
 21
27.7075
  0
LINE
  8
0
 10
40.3867
 20
27.7075
 11
40.3895
 21
27.7599
  0
LINE
  8
0
 10
40.3895
 20
27.7599
 11
40.3959
 21
27.8791
  0
LINE
  8
0
 10
40.3959
 20
27.8791
 11
40.3959
 21
29.4038
  0
LINE
  8
0
 10
40.3959
 20
29.4038
 11
40.3943
 21
29.4473
  0
LINE
  8
0
 10
40.3943
 20
29.4473
 11
40.3867
 21
29.6457
  0
LINE
  8
0
 10
40.3867
 20
29.6457
 11
40.3631
 21
29.8483
  0
LINE
  8
0
 10
40.3631
 20
29.8483
 11
40.3592
 21
29.8816
  0
LINE
  8
0
 10
40.3592
 20
29.8816
 11
40.3499
 21
29.9281
  0
LINE
  8
0
 10
40.3499
 20
29.9281
 11
40.3142
 21
30.1863
  0
LINE
  8
0
 10
40.3142
 20
30.1863
 11
40.2627
 21
30.4379
  0
LINE
  8
0
 10
40.2627
 20
30.4379
 11
40.2527
 21
30.5323
  0
LINE
  8
0
 10
40.2527
 20
30.5323
 11
40.1975
 21
30.9049
  0
LINE
  8
0
 10
40.1975
 20
30.9049
 11
40.195
 21
31.2439
  0
LINE
  8
0
 10
40.195
 20
31.2439
 11
40.1942
 21
31.3578
  0
LINE
  8
0
 10
40.1942
 20
31.3578
 11
40.22
 21
31.55
  0
LINE
  8
0
 10
40.22
 20
31.55
 11
40.2527
 21
31.7944
  0
LINE
  8
0
 10
40.2527
 20
31.7944
 11
40.2542
 21
31.8101
  0
LINE
  8
0
 10
40.2542
 20
31.8101
 11
40.2554
 21
31.8222
  0
LINE
  8
0
 10
40.2554
 20
31.8222
 11
40.2907
 21
32.0038
  0
LINE
  8
0
 10
40.2907
 20
32.0038
 11
40.3142
 21
32.1242
  0
LINE
  8
0
 10
40.3142
 20
32.1242
 11
40.3245
 21
32.2024
  0
LINE
  8
0
 10
40.3245
 20
32.2024
 11
40.3407
 21
32.3261
  0
LINE
  8
0
 10
40.3407
 20
32.3261
 11
40.3535
 21
32.3917
  0
LINE
  8
0
 10
40.3535
 20
32.3917
 11
40.3592
 21
32.4209
  0
LINE
  8
0
 10
40.3592
 20
32.4209
 11
40.3748
 21
32.5593
  0
LINE
  8
0
 10
40.3748
 20
32.5593
 11
40.3867
 21
32.6643
  0
LINE
  8
0
 10
40.3867
 20
32.6643
 11
40.3892
 21
32.7329
  0
LINE
  8
0
 10
40.3892
 20
32.7329
 11
40.3957
 21
32.9075
  0
LINE
  8
0
 10
40.3957
 20
32.9075
 11
40.3959
 21
32.9112
  0
LINE
  8
0
 10
40.3959
 20
32.9112
 11
40.3959
 21
32.9124
  0
LINE
  8
0
 10
40.3959
 20
32.9124
 11
40.3959
 21
40
  0
LINE
  8
0
 10
40.3959
 20
40
 11
41.8959
 21
41.5
  0
LINE
  8
0
 10
41.8959
 20
41.5
 11
47
 21
41.5
  0
LINE
  8
0
 10
47
 20
41.5
 11
47.5
 21
42
  0
LINE
  8
0
 10
47.5
 20
42
 11
47.5
 21
45.5
  0
LINE
  8
0
 10
47.5
 20
45.5
 11
36.5
 21
45.5
  0
LINE
  8
0
 10
36.5
 20
45.5
 11
36.5
 21
26.7818
  0
ENDSEC
  0
SECTION
  2
OBJECTS
  0
DICTIONARY
  0
ENDSEC
  0
EOF
