  0
SECTION
  2
BLOCKS
  0
ENDSEC
  0
SECTION
  2
ENTITIES
  0
LINE
  8
0
 10
0
 20
0
 11
11
 21
0
  0
LINE
  8
0
 10
11
 20
0
 11
11
 21
11.6713
  0
LINE
  8
0
 10
11
 20
11.6713
 11
7.85409
 21
11.6713
  0
LINE
  8
0
 10
7.85409
 20
11.6713
 11
7.73708
 21
11.6587
  0
LINE
  8
0
 10
7.73708
 20
11.6587
 11
7.73676
 21
11.6587
  0
LINE
  8
0
 10
7.73676
 20
11.6587
 11
7.73132
 21
11.6569
  0
LINE
  8
0
 10
7.73132
 20
11.6569
 11
7.62232
 21
11.6256
  0
LINE
  8
0
 10
7.62232
 20
11.6256
 11
7.61692
 21
11.6229
  0
LINE
  8
0
 10
7.61692
 20
11.6229
 11
7.51359
 21
11.5717
  0
LINE
  8
0
 10
7.51359
 20
11.5717
 11
7.49996
 21
11.5617
  0
LINE
  8
0
 10
7.49996
 20
11.5617
 11
7.41325
 21
11.498
  0
LINE
  8
0
 10
7.41325
 20
11.498
 11
7.39067
 21
11.475
  0
LINE
  8
0
 10
7.39067
 20
11.475
 11
7.32376
 21
11.4066
  0
LINE
  8
0
 10
7.32376
 20
11.4066
 11
7.29375
 21
11.3645
  0
LINE
  8
0
 10
7.29375
 20
11.3645
 11
7.24732
 21
11.2994
  0
LINE
  8
0
 10
7.24732
 20
11.2994
 11
7.21357
 21
11.2335
  0
LINE
  8
0
 10
7.21357
 20
11.2335
 11
7.18583
 21
11.1793
  0
LINE
  8
0
 10
7.18583
 20
11.1793
 11
7.15373
 21
11.0865
  0
LINE
  8
0
 10
7.15373
 20
11.0865
 11
7.14079
 21
11.0492
  0
LINE
  8
0
 10
7.14079
 20
11.0492
 11
7.11672
 21
10.9291
  0
LINE
  8
0
 10
7.11672
 20
10.9291
 11
7.11332
 21
10.9122
  0
LINE
  8
0
 10
7.11332
 20
10.9122
 11
7.10607
 21
10.8019
  0
LINE
  8
0
 10
7.10607
 20
10.8019
 11
7.10409
 21
10.7744
  0
LINE
  8
0
 10
7.10409
 20
10.7744
 11
7.10409
 21
5.5
  0
LINE
  8
0
 10
7.10409
 20
5.5
 11
5.60409
 21
4
  0
LINE
  8
0
 10
5.60409
 20
4
 11
0.499999
 21
4
  0
LINE
  8
0
 10
0.499999
 20
4
 11
0
 21
3.5
  0
LINE
  8
0
 10
0
 20
3.5
 11
0
 21
0
  0
LINE
  8
0
 10
0
 20
42
 11
0.499999
 21
41.5
  0
LINE
  8
0
 10
0.499999
 20
41.5
 11
5.60409
 21
41.5
  0
LINE
  8
0
 10
5.60409
 20
41.5
 11
7.10409
 21
40
  0
LINE
  8
0
 10
7.10409
 20
40
 11
7.10409
 21
33.1739
  0
LINE
  8
0
 10
7.10409
 20
33.1739
 11
7.10911
 21
33.0692
  0
LINE
  8
0
 10
7.10911
 20
33.0692
 11
7.11332
 21
32.9814
  0
LINE
  8
0
 10
7.11332
 20
32.9814
 11
7.13986
 21
32.8001
  0
LINE
  8
0
 10
7.13986
 20
32.8001
 11
7.14079
 21
32.7937
  0
LINE
  8
0
 10
7.14079
 20
32.7937
 11
7.14444
 21
32.7793
  0
LINE
  8
0
 10
7.14444
 20
32.7793
 11
7.18583
 21
32.5667
  0
LINE
  8
0
 10
7.18583
 20
32.5667
 11
7.22474
 21
32.4317
  0
LINE
  8
0
 10
7.22474
 20
32.4317
 11
7.24732
 21
32.3533
  0
LINE
  8
0
 10
7.24732
 20
32.3533
 11
7.29268
 21
32.2403
  0
LINE
  8
0
 10
7.29268
 20
32.2403
 11
7.32376
 21
32.1258
  0
LINE
  8
0
 10
7.32376
 20
32.1258
 11
7.36776
 21
32.0076
  0
LINE
  8
0
 10
7.36776
 20
32.0076
 11
7.41325
 21
31.8853
  0
LINE
  8
0
 10
7.41325
 20
31.8853
 11
7.47132
 21
31.7734
  0
LINE
  8
0
 10
7.47132
 20
31.7734
 11
7.51359
 21
31.6082
  0
LINE
  8
0
 10
7.51359
 20
31.6082
 11
7.614
 21
31.343
  0
LINE
  8
0
 10
7.614
 20
31.343
 11
7.6067
 21
30.9845
  0
LINE
  8
0
 10
7.6067
 20
30.9845
 11
7.60545
 21
30.9231
  0
LINE
  8
0
 10
7.60545
 20
30.9231
 11
7.54872
 21
30.7877
  0
LINE
  8
0
 10
7.54872
 20
30.7877
 11
7.51359
 21
30.7038
  0
LINE
  8
0
 10
7.51359
 20
30.7038
 11
7.48695
 21
30.6097
  0
LINE
  8
0
 10
7.48695
 20
30.6097
 11
7.45315
 21
30.4903
  0
LINE
  8
0
 10
7.45315
 20
30.4903
 11
7.42504
 21
30.4387
  0
LINE
  8
0
 10
7.42504
 20
30.4387
 11
7.41325
 21
30.417
  0
LINE
  8
0
 10
7.41325
 20
30.417
 11
7.36361
 21
30.29
  0
LINE
  8
0
 10
7.36361
 20
30.29
 11
7.32376
 21
30.1881
  0
LINE
  8
0
 10
7.32376
 20
30.1881
 11
7.30697
 21
30.1292
  0
LINE
  8
0
 10
7.30697
 20
30.1292
 11
7.27524
 21
30.0179
  0
LINE
  8
0
 10
7.27524
 20
30.0179
 11
7.25495
 21
29.9689
  0
LINE
  8
0
 10
7.25495
 20
29.9689
 11
7.24732
 21
29.9505
  0
LINE
  8
0
 10
7.24732
 20
29.9505
 11
7.20946
 21
29.8231
  0
LINE
  8
0
 10
7.20946
 20
29.8231
 11
7.18583
 21
29.7436
  0
LINE
  8
0
 10
7.18583
 20
29.7436
 11
7.17076
 21
29.6686
  0
LINE
  8
0
 10
7.17076
 20
29.6686
 11
7.14079
 21
29.5194
  0
LINE
  8
0
 10
7.14079
 20
29.5194
 11
7.13917
 21
29.5055
  0
LINE
  8
0
 10
7.13917
 20
29.5055
 11
7.13492
 21
29.4689
  0
LINE
  8
0
 10
7.13492
 20
29.4689
 11
7.11841
 21
29.3585
  0
LINE
  8
0
 10
7.11841
 20
29.3585
 11
7.11332
 21
29.3245
  0
LINE
  8
0
 10
7.11332
 20
29.3245
 11
7.10789
 21
29.2138
  0
LINE
  8
0
 10
7.10789
 20
29.2138
 11
7.10409
 21
29.1362
  0
LINE
  8
0
 10
7.10409
 20
29.1362
 11
7.10409
 21
27.6655
  0
LINE
  8
0
 10
7.10409
 20
27.6655
 11
7.10702
 21
27.611
  0
LINE
  8
0
 10
7.10702
 20
27.611
 11
7.11332
 21
27.4938
  0
LINE
  8
0
 10
7.11332
 20
27.4938
 11
7.12221
 21
27.4396
  0
LINE
  8
0
 10
7.12221
 20
27.4396
 11
7.14079
 21
27.3264
  0
LINE
  8
0
 10
7.14079
 20
27.3264
 11
7.15565
 21
27.2739
  0
LINE
  8
0
 10
7.15565
 20
27.2739
 11
7.18583
 21
27.1673
  0
LINE
  8
0
 10
7.18583
 20
27.1673
 11
7.20646
 21
27.1181
  0
LINE
  8
0
 10
7.20646
 20
27.1181
 11
7.24732
 21
27.0205
  0
LINE
  8
0
 10
7.24732
 20
27.0205
 11
7.27336
 21
26.9759
  0
LINE
  8
0
 10
7.27336
 20
26.9759
 11
7.32376
 21
26.8896
  0
LINE
  8
0
 10
7.32376
 20
26.8896
 11
7.41325
 21
26.7777
  0
LINE
  8
0
 10
7.41325
 20
26.7777
 11
7.51359
 21
26.6877
  0
LINE
  8
0
 10
7.51359
 20
26.6877
 11
7.55187
 21
26.6645
  0
LINE
  8
0
 10
7.55187
 20
26.6645
 11
7.62232
 21
26.6218
  0
LINE
  8
0
 10
7.62232
 20
26.6218
 11
7.66284
 21
26.6076
  0
LINE
  8
0
 10
7.66284
 20
26.6076
 11
7.73676
 21
26.5816
  0
LINE
  8
0
 10
7.73676
 20
26.5816
 11
7.85409
 21
26.5681
  0
LINE
  8
0
 10
7.85409
 20
26.5681
 11
11
 21
26.5681
  0
LINE
  8
0
 10
11
 20
26.5681
 11
11
 21
45.5
  0
LINE
  8
0
 10
11
 20
45.5
 11
0
 21
45.5
  0
LINE
  8
0
 10
0
 20
45.5
 11
0
 21
42
  0
LINE
  8
0
 10
7.10409
 20
16.7155
 11
7.11232
 21
16.5624
  0
LINE
  8
0
 10
7.11232
 20
16.5624
 11
7.11332
 21
16.5439
  0
LINE
  8
0
 10
7.11332
 20
16.5439
 11
7.13817
 21
16.3924
  0
LINE
  8
0
 10
7.13817
 20
16.3924
 11
7.14079
 21
16.3764
  0
LINE
  8
0
 10
7.14079
 20
16.3764
 11
7.18206
 21
16.2306
  0
LINE
  8
0
 10
7.18206
 20
16.2306
 11
7.18583
 21
16.2173
  0
LINE
  8
0
 10
7.18583
 20
16.2173
 11
7.24285
 21
16.0812
  0
LINE
  8
0
 10
7.24285
 20
16.0812
 11
7.24732
 21
16.0705
  0
LINE
  8
0
 10
7.24732
 20
16.0705
 11
7.31894
 21
15.9478
  0
LINE
  8
0
 10
7.31894
 20
15.9478
 11
7.32376
 21
15.9396
  0
LINE
  8
0
 10
7.32376
 20
15.9396
 11
7.40835
 21
15.8339
  0
LINE
  8
0
 10
7.40835
 20
15.8339
 11
7.41325
 21
15.8277
  0
LINE
  8
0
 10
7.41325
 20
15.8277
 11
7.50877
 21
15.7421
  0
LINE
  8
0
 10
7.50877
 20
15.7421
 11
7.51359
 21
15.7378
  0
LINE
  8
0
 10
7.51359
 20
15.7378
 11
7.61764
 21
15.6747
  0
LINE
  8
0
 10
7.61764
 20
15.6747
 11
7.62232
 21
15.6719
  0
LINE
  8
0
 10
7.62232
 20
15.6719
 11
7.73217
 21
15.6333
  0
LINE
  8
0
 10
7.73217
 20
15.6333
 11
7.73676
 21
15.6317
  0
LINE
  8
0
 10
7.73676
 20
15.6317
 11
7.85409
 21
15.6182
  0
LINE
  8
0
 10
7.85409
 20
15.6182
 11
11
 21
15.6182
  0
LINE
  8
0
 10
11
 20
15.6182
 11
11
 21
19.2523
  0
LINE
  8
0
 10
11
 20
19.2523
 11
7.85409
 21
19.2523
  0
LINE
  8
0
 10
7.85409
 20
19.2523
 11
7.73676
 21
19.2388
  0
LINE
  8
0
 10
7.73676
 20
19.2388
 11
7.66536
 21
19.2137
  0
LINE
  8
0
 10
7.66536
 20
19.2137
 11
7.62232
 21
19.1986
  0
LINE
  8
0
 10
7.62232
 20
19.1986
 11
7.55426
 21
19.1573
  0
LINE
  8
0
 10
7.55426
 20
19.1573
 11
7.51359
 21
19.1327
  0
LINE
  8
0
 10
7.51359
 20
19.1327
 11
7.45048
 21
19.0761
  0
LINE
  8
0
 10
7.45048
 20
19.0761
 11
7.41325
 21
19.0427
  0
LINE
  8
0
 10
7.41325
 20
19.0427
 11
7.35662
 21
18.9719
  0
LINE
  8
0
 10
7.35662
 20
18.9719
 11
7.32376
 21
18.9309
  0
LINE
  8
0
 10
7.32376
 20
18.9309
 11
7.27505
 21
18.8474
  0
LINE
  8
0
 10
7.27505
 20
18.8474
 11
7.24732
 21
18.7999
  0
LINE
  8
0
 10
7.24732
 20
18.7999
 11
7.20782
 21
18.7056
  0
LINE
  8
0
 10
7.20782
 20
18.7056
 11
7.18583
 21
18.6531
  0
LINE
  8
0
 10
7.18583
 20
18.6531
 11
7.15664
 21
18.55
  0
LINE
  8
0
 10
7.15664
 20
18.55
 11
7.14079
 21
18.494
  0
LINE
  8
0
 10
7.14079
 20
18.494
 11
7.12282
 21
18.3845
  0
LINE
  8
0
 10
7.12282
 20
18.3845
 11
7.11332
 21
18.3266
  0
LINE
  8
0
 10
7.11332
 20
18.3266
 11
7.10722
 21
18.2132
  0
LINE
  8
0
 10
7.10722
 20
18.2132
 11
7.10409
 21
18.1549
  0
LINE
  8
0
 10
7.10409
 20
18.1549
 11
7.10409
 21
16.7155
  0
LINE
  8
0
 10
36.5
 20
0
 11
47.5
 21
0
  0
LINE
  8
0
 10
47.5
 20
0
 11
47.5
 21
3.5
  0
LINE
  8
0
 10
47.5
 20
3.5
 11
47
 21
4
  0
LINE
  8
0
 10
47
 20
4
 11
41.8959
 21
4
  0
LINE
  8
0
 10
41.8959
 20
4
 11
40.3959
 21
5.5
  0
LINE
  8
0
 10
40.3959
 20
5.5
 11
40.3959
 21
10.7744
  0
LINE
  8
0
 10
40.3959
 20
10.7744
 11
40.3957
 21
10.7773
  0
LINE
  8
0
 10
40.3957
 20
10.7773
 11
40.3939
 21
10.8019
  0
LINE
  8
0
 10
40.3939
 20
10.8019
 11
40.3875
 21
10.8998
  0
LINE
  8
0
 10
40.3875
 20
10.8998
 11
40.3867
 21
10.9122
  0
LINE
  8
0
 10
40.3867
 20
10.9122
 11
40.3648
 21
11.021
  0
LINE
  8
0
 10
40.3648
 20
11.021
 11
40.3592
 21
11.0492
  0
LINE
  8
0
 10
40.3592
 20
11.0492
 11
40.3288
 21
11.1369
  0
LINE
  8
0
 10
40.3288
 20
11.1369
 11
40.3142
 21
11.1793
  0
LINE
  8
0
 10
40.3142
 20
11.1793
 11
40.2802
 21
11.2456
  0
LINE
  8
0
 10
40.2802
 20
11.2456
 11
40.2527
 21
11.2994
  0
LINE
  8
0
 10
40.2527
 20
11.2994
 11
40.2197
 21
11.3457
  0
LINE
  8
0
 10
40.2197
 20
11.3457
 11
40.1762
 21
11.4066
  0
LINE
  8
0
 10
40.1762
 20
11.4066
 11
40.148
 21
11.4355
  0
LINE
  8
0
 10
40.148
 20
11.4355
 11
40.0868
 21
11.498
  0
LINE
  8
0
 10
40.0868
 20
11.498
 11
40.0657
 21
11.5135
  0
LINE
  8
0
 10
40.0657
 20
11.5135
 11
39.9864
 21
11.5717
  0
LINE
  8
0
 10
39.9864
 20
11.5717
 11
39.9736
 21
11.578
  0
LINE
  8
0
 10
39.9736
 20
11.578
 11
39.8777
 21
11.6256
  0
LINE
  8
0
 10
39.8777
 20
11.6256
 11
39.8725
 21
11.627
  0
LINE
  8
0
 10
39.8725
 20
11.627
 11
39.7687
 21
11.6569
  0
LINE
  8
0
 10
39.7687
 20
11.6569
 11
39.7635
 21
11.6586
  0
LINE
  8
0
 10
39.7635
 20
11.6586
 11
39.7632
 21
11.6587
  0
LINE
  8
0
 10
39.7632
 20
11.6587
 11
39.6484
 21
11.671
  0
LINE
  8
0
 10
39.6484
 20
11.671
 11
39.6459
 21
11.6713
  0
LINE
  8
0
 10
39.6459
 20
11.6713
 11
36.5
 21
11.6713
  0
LINE
  8
0
 10
36.5
 20
11.6713
 11
36.5
 21
0
  0
LINE
  8
0
 10
36.5
 20
15.6182
 11
39.6459
 21
15.6182
  0
LINE
  8
0
 10
39.6459
 20
15.6182
 11
39.7632
 21
15.6317
  0
LINE
  8
0
 10
39.7632
 20
15.6317
 11
39.8728
 21
15.6701
  0
LINE
  8
0
 10
39.8728
 20
15.6701
 11
39.8777
 21
15.6719
  0
LINE
  8
0
 10
39.8777
 20
15.6719
 11
39.9812
 21
15.7346
  0
LINE
  8
0
 10
39.9812
 20
15.7346
 11
39.9864
 21
15.7378
  0
LINE
  8
0
 10
39.9864
 20
15.7378
 11
40.0813
 21
15.8229
  0
LINE
  8
0
 10
40.0813
 20
15.8229
 11
40.0868
 21
15.8277
  0
LINE
  8
0
 10
40.0868
 20
15.8277
 11
40.1707
 21
15.9326
  0
LINE
  8
0
 10
40.1707
 20
15.9326
 11
40.1762
 21
15.9396
  0
LINE
  8
0
 10
40.1762
 20
15.9396
 11
40.2472
 21
16.0612
  0
LINE
  8
0
 10
40.2472
 20
16.0612
 11
40.2527
 21
16.0705
  0
LINE
  8
0
 10
40.2527
 20
16.0705
 11
40.3091
 21
16.2053
  0
LINE
  8
0
 10
40.3091
 20
16.2053
 11
40.3142
 21
16.2173
  0
LINE
  8
0
 10
40.3142
 20
16.2173
 11
40.355
 21
16.3616
  0
LINE
  8
0
 10
40.355
 20
16.3616
 11
40.3592
 21
16.3764
  0
LINE
  8
0
 10
40.3592
 20
16.3764
 11
40.3838
 21
16.5262
  0
LINE
  8
0
 10
40.3838
 20
16.5262
 11
40.3867
 21
16.5439
  0
LINE
  8
0
 10
40.3867
 20
16.5439
 11
40.3948
 21
16.6953
  0
LINE
  8
0
 10
40.3948
 20
16.6953
 11
40.3959
 21
16.7155
  0
LINE
  8
0
 10
40.3959
 20
16.7155
 11
40.3959
 21
18.1549
  0
LINE
  8
0
 10
40.3959
 20
18.1549
 11
40.3898
 21
18.268
  0
LINE
  8
0
 10
40.3898
 20
18.268
 11
40.3867
 21
18.3266
  0
LINE
  8
0
 10
40.3867
 20
18.3266
 11
40.3688
 21
18.4358
  0
LINE
  8
0
 10
40.3688
 20
18.4358
 11
40.3592
 21
18.494
  0
LINE
  8
0
 10
40.3592
 20
18.494
 11
40.3301
 21
18.5969
  0
LINE
  8
0
 10
40.3301
 20
18.5969
 11
40.3142
 21
18.6531
  0
LINE
  8
0
 10
40.3142
 20
18.6531
 11
40.2748
 21
18.7472
  0
LINE
  8
0
 10
40.2748
 20
18.7472
 11
40.2527
 21
18.7999
  0
LINE
  8
0
 10
40.2527
 20
18.7999
 11
40.2041
 21
18.8832
  0
LINE
  8
0
 10
40.2041
 20
18.8832
 11
40.1762
 21
18.9309
  0
LINE
  8
0
 10
40.1762
 20
18.9309
 11
40.1197
 21
19.0015
  0
LINE
  8
0
 10
40.1197
 20
19.0015
 11
40.0868
 21
19.0427
  0
LINE
  8
0
 10
40.0868
 20
19.0427
 11
40.0237
 21
19.0992
  0
LINE
  8
0
 10
40.0237
 20
19.0992
 11
39.9864
 21
19.1327
  0
LINE
  8
0
 10
39.9864
 20
19.1327
 11
39.9184
 21
19.1739
  0
LINE
  8
0
 10
39.9184
 20
19.1739
 11
39.8777
 21
19.1986
  0
LINE
  8
0
 10
39.8777
 20
19.1986
 11
39.8063
 21
19.2237
  0
LINE
  8
0
 10
39.8063
 20
19.2237
 11
39.7632
 21
19.2388
  0
LINE
  8
0
 10
39.7632
 20
19.2388
 11
39.6459
 21
19.2523
  0
LINE
  8
0
 10
39.6459
 20
19.2523
 11
36.5
 21
19.2523
  0
LINE
  8
0
 10
36.5
 20
19.2523
 11
36.5
 21
15.6182
  0
LINE
  8
0
 10
36.5
 20
26.5681
 11
39.6459
 21
26.5681
  0
LINE
  8
0
 10
39.6459
 20
26.5681
 11
39.7632
 21
26.5816
  0
LINE
  8
0
 10
39.7632
 20
26.5816
 11
39.8038
 21
26.5959
  0
LINE
  8
0
 10
39.8038
 20
26.5959
 11
39.8777
 21
26.6218
  0
LINE
  8
0
 10
39.8777
 20
26.6218
 11
39.916
 21
26.6451
  0
LINE
  8
0
 10
39.916
 20
26.6451
 11
39.9864
 21
26.6877
  0
LINE
  8
0
 10
39.9864
 20
26.6877
 11
40.0868
 21
26.7777
  0
LINE
  8
0
 10
40.0868
 20
26.7777
 11
40.1762
 21
26.8896
  0
LINE
  8
0
 10
40.1762
 20
26.8896
 11
40.2024
 21
26.9344
  0
LINE
  8
0
 10
40.2024
 20
26.9344
 11
40.2527
 21
27.0205
  0
LINE
  8
0
 10
40.2527
 20
27.0205
 11
40.2734
 21
27.07
  0
LINE
  8
0
 10
40.2734
 20
27.07
 11
40.3142
 21
27.1673
  0
LINE
  8
0
 10
40.3142
 20
27.1673
 11
40.3291
 21
27.2201
  0
LINE
  8
0
 10
40.3291
 20
27.2201
 11
40.3592
 21
27.3264
  0
LINE
  8
0
 10
40.3592
 20
27.3264
 11
40.3682
 21
27.381
  0
LINE
  8
0
 10
40.3682
 20
27.381
 11
40.3867
 21
27.4938
  0
LINE
  8
0
 10
40.3867
 20
27.4938
 11
40.3896
 21
27.5487
  0
LINE
  8
0
 10
40.3896
 20
27.5487
 11
40.3959
 21
27.6655
  0
LINE
  8
0
 10
40.3959
 20
27.6655
 11
40.3959
 21
29.1362
  0
LINE
  8
0
 10
40.3959
 20
29.1362
 11
40.3896
 21
29.2646
  0
LINE
  8
0
 10
40.3896
 20
29.2646
 11
40.3867
 21
29.3245
  0
LINE
  8
0
 10
40.3867
 20
29.3245
 11
40.3651
 21
29.4689
  0
LINE
  8
0
 10
40.3651
 20
29.4689
 11
40.3592
 21
29.5194
  0
LINE
  8
0
 10
40.3592
 20
29.5194
 11
40.3527
 21
29.5516
  0
LINE
  8
0
 10
40.3527
 20
29.5516
 11
40.3142
 21
29.7436
  0
LINE
  8
0
 10
40.3142
 20
29.7436
 11
40.2657
 21
29.9066
  0
LINE
  8
0
 10
40.2657
 20
29.9066
 11
40.2527
 21
29.9505
  0
LINE
  8
0
 10
40.2527
 20
29.9505
 11
40.2248
 21
30.0179
  0
LINE
  8
0
 10
40.2248
 20
30.0179
 11
40.1762
 21
30.1881
  0
LINE
  8
0
 10
40.1762
 20
30.1881
 11
40.1148
 21
30.3453
  0
LINE
  8
0
 10
40.1148
 20
30.3453
 11
40.0868
 21
30.417
  0
LINE
  8
0
 10
40.0868
 20
30.417
 11
40.0468
 21
30.4903
  0
LINE
  8
0
 10
40.0468
 20
30.4903
 11
39.9864
 21
30.7038
  0
LINE
  8
0
 10
39.9864
 20
30.7038
 11
39.8946
 21
30.9231
  0
LINE
  8
0
 10
39.8946
 20
30.9231
 11
39.8867
 21
31.3075
  0
LINE
  8
0
 10
39.8867
 20
31.3075
 11
39.886
 21
31.343
  0
LINE
  8
0
 10
39.886
 20
31.343
 11
39.9456
 21
31.5003
  0
LINE
  8
0
 10
39.9456
 20
31.5003
 11
39.9864
 21
31.6082
  0
LINE
  8
0
 10
39.9864
 20
31.6082
 11
40.0061
 21
31.6853
  0
LINE
  8
0
 10
40.0061
 20
31.6853
 11
40.0287
 21
31.7734
  0
LINE
  8
0
 10
40.0287
 20
31.7734
 11
40.0689
 21
31.851
  0
LINE
  8
0
 10
40.0689
 20
31.851
 11
40.0868
 21
31.8853
  0
LINE
  8
0
 10
40.0868
 20
31.8853
 11
40.1304
 21
32.0027
  0
LINE
  8
0
 10
40.1304
 20
32.0027
 11
40.1762
 21
32.1258
  0
LINE
  8
0
 10
40.1762
 20
32.1258
 11
40.1874
 21
32.1669
  0
LINE
  8
0
 10
40.1874
 20
32.1669
 11
40.2073
 21
32.2403
  0
LINE
  8
0
 10
40.2073
 20
32.2403
 11
40.2399
 21
32.3215
  0
LINE
  8
0
 10
40.2399
 20
32.3215
 11
40.2527
 21
32.3533
  0
LINE
  8
0
 10
40.2527
 20
32.3533
 11
40.2862
 21
32.4695
  0
LINE
  8
0
 10
40.2862
 20
32.4695
 11
40.3142
 21
32.5667
  0
LINE
  8
0
 10
40.3142
 20
32.5667
 11
40.3258
 21
32.6266
  0
LINE
  8
0
 10
40.3258
 20
32.6266
 11
40.3556
 21
32.7793
  0
LINE
  8
0
 10
40.3556
 20
32.7793
 11
40.3583
 21
32.7903
  0
LINE
  8
0
 10
40.3583
 20
32.7903
 11
40.3592
 21
32.7937
  0
LINE
  8
0
 10
40.3592
 20
32.7937
 11
40.3795
 21
32.9326
  0
LINE
  8
0
 10
40.3795
 20
32.9326
 11
40.3867
 21
32.9814
  0
LINE
  8
0
 10
40.3867
 20
32.9814
 11
40.3914
 21
33.0795
  0
LINE
  8
0
 10
40.3914
 20
33.0795
 11
40.3959
 21
33.1739
  0
LINE
  8
0
 10
40.3959
 20
33.1739
 11
40.3959
 21
40
  0
LINE
  8
0
 10
40.3959
 20
40
 11
41.8959
 21
41.5
  0
LINE
  8
0
 10
41.8959
 20
41.5
 11
47
 21
41.5
  0
LINE
  8
0
 10
47
 20
41.5
 11
47.5
 21
42
  0
LINE
  8
0
 10
47.5
 20
42
 11
47.5
 21
45.5
  0
LINE
  8
0
 10
47.5
 20
45.5
 11
36.5
 21
45.5
  0
LINE
  8
0
 10
36.5
 20
45.5
 11
36.5
 21
26.5681
  0
ENDSEC
  0
SECTION
  2
OBJECTS
  0
DICTIONARY
  0
ENDSEC
  0
EOF
