  0
SECTION
  2
BLOCKS
  0
ENDSEC
  0
SECTION
  2
ENTITIES
  0
LINE
  8
0
 10
0
 20
0
 11
11
 21
0
  0
LINE
  8
0
 10
11
 20
0
 11
11
 21
11.8585
  0
LINE
  8
0
 10
11
 20
11.8585
 11
7.85409
 21
11.8585
  0
LINE
  8
0
 10
7.85409
 20
11.8585
 11
7.81644
 21
11.8545
  0
LINE
  8
0
 10
7.81644
 20
11.8545
 11
7.73676
 21
11.8459
  0
LINE
  8
0
 10
7.73676
 20
11.8459
 11
7.69599
 21
11.8326
  0
LINE
  8
0
 10
7.69599
 20
11.8326
 11
7.62232
 21
11.8084
  0
LINE
  8
0
 10
7.62232
 20
11.8084
 11
7.57455
 21
11.7814
  0
LINE
  8
0
 10
7.57455
 20
11.7814
 11
7.51359
 21
11.7469
  0
LINE
  8
0
 10
7.51359
 20
11.7469
 11
7.45647
 21
11.6991
  0
LINE
  8
0
 10
7.45647
 20
11.6991
 11
7.41325
 21
11.663
  0
LINE
  8
0
 10
7.41325
 20
11.663
 11
7.34691
 21
11.5856
  0
LINE
  8
0
 10
7.34691
 20
11.5856
 11
7.32376
 21
11.5586
  0
LINE
  8
0
 10
7.32376
 20
11.5586
 11
7.25142
 21
11.443
  0
LINE
  8
0
 10
7.25142
 20
11.443
 11
7.24732
 21
11.4365
  0
LINE
  8
0
 10
7.24732
 20
11.4365
 11
7.23291
 21
11.4043
  0
LINE
  8
0
 10
7.23291
 20
11.4043
 11
7.18583
 21
11.3124
  0
LINE
  8
0
 10
7.18583
 20
11.3124
 11
7.17965
 21
11.2945
  0
LINE
  8
0
 10
7.17965
 20
11.2945
 11
7.14079
 21
11.1822
  0
LINE
  8
0
 10
7.14079
 20
11.1822
 11
7.132
 21
11.1384
  0
LINE
  8
0
 10
7.132
 20
11.1384
 11
7.11332
 21
11.0452
  0
LINE
  8
0
 10
7.11332
 20
11.0452
 11
7.10872
 21
10.9753
  0
LINE
  8
0
 10
7.10872
 20
10.9753
 11
7.10409
 21
10.9048
  0
LINE
  8
0
 10
7.10409
 20
10.9048
 11
7.10409
 21
5.5
  0
LINE
  8
0
 10
7.10409
 20
5.5
 11
5.60409
 21
4
  0
LINE
  8
0
 10
5.60409
 20
4
 11
0.499999
 21
4
  0
LINE
  8
0
 10
0.499999
 20
4
 11
0
 21
3.5
  0
LINE
  8
0
 10
0
 20
3.5
 11
0
 21
0
  0
LINE
  8
0
 10
0
 20
42
 11
0.499999
 21
41.5
  0
LINE
  8
0
 10
0.499999
 20
41.5
 11
5.60409
 21
41.5
  0
LINE
  8
0
 10
5.60409
 20
41.5
 11
7.10409
 21
40
  0
LINE
  8
0
 10
7.10409
 20
40
 11
7.10409
 21
33.407
  0
LINE
  8
0
 10
7.10409
 20
33.407
 11
7.1122
 21
33.2663
  0
LINE
  8
0
 10
7.1122
 20
33.2663
 11
7.11332
 21
33.2429
  0
LINE
  8
0
 10
7.11332
 20
33.2429
 11
7.11466
 21
33.2338
  0
LINE
  8
0
 10
7.11466
 20
33.2338
 11
7.14079
 21
33.0552
  0
LINE
  8
0
 10
7.14079
 20
33.0552
 11
7.16113
 21
32.9746
  0
LINE
  8
0
 10
7.16113
 20
32.9746
 11
7.18583
 21
32.8768
  0
LINE
  8
0
 10
7.18583
 20
32.8768
 11
7.23801
 21
32.7372
  0
LINE
  8
0
 10
7.23801
 20
32.7372
 11
7.24732
 21
32.7122
  0
LINE
  8
0
 10
7.24732
 20
32.7122
 11
7.27921
 21
32.651
  0
LINE
  8
0
 10
7.27921
 20
32.651
 11
7.32376
 21
32.54
  0
LINE
  8
0
 10
7.32376
 20
32.54
 11
7.35178
 21
32.4891
  0
LINE
  8
0
 10
7.35178
 20
32.4891
 11
7.41325
 21
32.3775
  0
LINE
  8
0
 10
7.41325
 20
32.3775
 11
7.48662
 21
32.2818
  0
LINE
  8
0
 10
7.48662
 20
32.2818
 11
7.51359
 21
32.2467
  0
LINE
  8
0
 10
7.51359
 20
32.2467
 11
7.61809
 21
32.1546
  0
LINE
  8
0
 10
7.61809
 20
32.1546
 11
7.62232
 21
32.1491
  0
LINE
  8
0
 10
7.62232
 20
32.1491
 11
7.62406
 21
32.1478
  0
LINE
  8
0
 10
7.62406
 20
32.1478
 11
7.73676
 21
32.0626
  0
LINE
  8
0
 10
7.73676
 20
32.0626
 11
7.76253
 21
32.0563
  0
LINE
  8
0
 10
7.76253
 20
32.0563
 11
7.85409
 21
32.0336
  0
LINE
  8
0
 10
7.85409
 20
32.0336
 11
11
 21
32.0336
  0
LINE
  8
0
 10
11
 20
32.0336
 11
11
 21
45.5
  0
LINE
  8
0
 10
11
 20
45.5
 11
0
 21
45.5
  0
LINE
  8
0
 10
0
 20
45.5
 11
0
 21
42
  0
LINE
  8
0
 10
7.10409
 20
16.5019
 11
7.1126
 21
16.3437
  0
LINE
  8
0
 10
7.1126
 20
16.3437
 11
7.11332
 21
16.3302
  0
LINE
  8
0
 10
7.11332
 20
16.3302
 11
7.13898
 21
16.1738
  0
LINE
  8
0
 10
7.13898
 20
16.1738
 11
7.14079
 21
16.1628
  0
LINE
  8
0
 10
7.14079
 20
16.1628
 11
7.1834
 21
16.0123
  0
LINE
  8
0
 10
7.1834
 20
16.0123
 11
7.18583
 21
16.0037
  0
LINE
  8
0
 10
7.18583
 20
16.0037
 11
7.24467
 21
15.8632
  0
LINE
  8
0
 10
7.24467
 20
15.8632
 11
7.24732
 21
15.8569
  0
LINE
  8
0
 10
7.24732
 20
15.8569
 11
7.3212
 21
15.7303
  0
LINE
  8
0
 10
7.3212
 20
15.7303
 11
7.32376
 21
15.7259
  0
LINE
  8
0
 10
7.32376
 20
15.7259
 11
7.41099
 21
15.6169
  0
LINE
  8
0
 10
7.41099
 20
15.6169
 11
7.41325
 21
15.6141
  0
LINE
  8
0
 10
7.41325
 20
15.6141
 11
7.51173
 21
15.5258
  0
LINE
  8
0
 10
7.51173
 20
15.5258
 11
7.51359
 21
15.5241
  0
LINE
  8
0
 10
7.51359
 20
15.5241
 11
7.62083
 21
15.4591
  0
LINE
  8
0
 10
7.62083
 20
15.4591
 11
7.62232
 21
15.4582
  0
LINE
  8
0
 10
7.62232
 20
15.4582
 11
7.73553
 21
15.4185
  0
LINE
  8
0
 10
7.73553
 20
15.4185
 11
7.73676
 21
15.418
  0
LINE
  8
0
 10
7.73676
 20
15.418
 11
7.85409
 21
15.4045
  0
LINE
  8
0
 10
7.85409
 20
15.4045
 11
11
 21
15.4045
  0
LINE
  8
0
 10
11
 20
15.4045
 11
11
 21
19.0387
  0
LINE
  8
0
 10
11
 20
19.0387
 11
7.85409
 21
19.0387
  0
LINE
  8
0
 10
7.85409
 20
19.0387
 11
7.73676
 21
19.0252
  0
LINE
  8
0
 10
7.73676
 20
19.0252
 11
7.66368
 21
18.9995
  0
LINE
  8
0
 10
7.66368
 20
18.9995
 11
7.62232
 21
18.985
  0
LINE
  8
0
 10
7.62232
 20
18.985
 11
7.55266
 21
18.9427
  0
LINE
  8
0
 10
7.55266
 20
18.9427
 11
7.51359
 21
18.9191
  0
LINE
  8
0
 10
7.51359
 20
18.9191
 11
7.44901
 21
18.8612
  0
LINE
  8
0
 10
7.44901
 20
18.8612
 11
7.41325
 21
18.8291
  0
LINE
  8
0
 10
7.41325
 20
18.8291
 11
7.35531
 21
18.7567
  0
LINE
  8
0
 10
7.35531
 20
18.7567
 11
7.32376
 21
18.7173
  0
LINE
  8
0
 10
7.32376
 20
18.7173
 11
7.27392
 21
18.6319
  0
LINE
  8
0
 10
7.27392
 20
18.6319
 11
7.24732
 21
18.5863
  0
LINE
  8
0
 10
7.24732
 20
18.5863
 11
7.20691
 21
18.4898
  0
LINE
  8
0
 10
7.20691
 20
18.4898
 11
7.18583
 21
18.4395
  0
LINE
  8
0
 10
7.18583
 20
18.4395
 11
7.15598
 21
18.334
  0
LINE
  8
0
 10
7.15598
 20
18.334
 11
7.14079
 21
18.2804
  0
LINE
  8
0
 10
7.14079
 20
18.2804
 11
7.12242
 21
18.1684
  0
LINE
  8
0
 10
7.12242
 20
18.1684
 11
7.11332
 21
18.113
  0
LINE
  8
0
 10
7.11332
 20
18.113
 11
7.10709
 21
17.9971
  0
LINE
  8
0
 10
7.10709
 20
17.9971
 11
7.10409
 21
17.9413
  0
LINE
  8
0
 10
7.10409
 20
17.9413
 11
7.10409
 21
16.5019
  0
LINE
  8
0
 10
7.10409
 20
27.4519
 11
7.10715
 21
27.3949
  0
LINE
  8
0
 10
7.10715
 20
27.3949
 11
7.11332
 21
27.2802
  0
LINE
  8
0
 10
7.11332
 20
27.2802
 11
7.12262
 21
27.2236
  0
LINE
  8
0
 10
7.12262
 20
27.2236
 11
7.14079
 21
27.1128
  0
LINE
  8
0
 10
7.14079
 20
27.1128
 11
7.15631
 21
27.058
  0
LINE
  8
0
 10
7.15631
 20
27.058
 11
7.18583
 21
26.9537
  0
LINE
  8
0
 10
7.18583
 20
26.9537
 11
7.20736
 21
26.9023
  0
LINE
  8
0
 10
7.20736
 20
26.9023
 11
7.24732
 21
26.8069
  0
LINE
  8
0
 10
7.24732
 20
26.8069
 11
7.27448
 21
26.7603
  0
LINE
  8
0
 10
7.27448
 20
26.7603
 11
7.32376
 21
26.6759
  0
LINE
  8
0
 10
7.32376
 20
26.6759
 11
7.41325
 21
26.5641
  0
LINE
  8
0
 10
7.41325
 20
26.5641
 11
7.51359
 21
26.4741
  0
LINE
  8
0
 10
7.51359
 20
26.4741
 11
7.55346
 21
26.45
  0
LINE
  8
0
 10
7.55346
 20
26.45
 11
7.62232
 21
26.4082
  0
LINE
  8
0
 10
7.62232
 20
26.4082
 11
7.66452
 21
26.3934
  0
LINE
  8
0
 10
7.66452
 20
26.3934
 11
7.73676
 21
26.368
  0
LINE
  8
0
 10
7.73676
 20
26.368
 11
7.85409
 21
26.3545
  0
LINE
  8
0
 10
7.85409
 20
26.3545
 11
11
 21
26.3545
  0
LINE
  8
0
 10
11
 20
26.3545
 11
11
 21
30.2792
  0
LINE
  8
0
 10
11
 20
30.2792
 11
7.85409
 21
30.2792
  0
LINE
  8
0
 10
7.85409
 20
30.2792
 11
7.81218
 21
30.2693
  0
LINE
  8
0
 10
7.81218
 20
30.2693
 11
7.73676
 21
30.2515
  0
LINE
  8
0
 10
7.73676
 20
30.2515
 11
7.70626
 21
30.2296
  0
LINE
  8
0
 10
7.70626
 20
30.2296
 11
7.62232
 21
30.1692
  0
LINE
  8
0
 10
7.62232
 20
30.1692
 11
7.61117
 21
30.1554
  0
LINE
  8
0
 10
7.61117
 20
30.1554
 11
7.57268
 21
30.1076
  0
LINE
  8
0
 10
7.57268
 20
30.1076
 11
7.52356
 21
30.0656
  0
LINE
  8
0
 10
7.52356
 20
30.0656
 11
7.51359
 21
30.0571
  0
LINE
  8
0
 10
7.51359
 20
30.0571
 11
7.44327
 21
29.9683
  0
LINE
  8
0
 10
7.44327
 20
29.9683
 11
7.41325
 21
29.9303
  0
LINE
  8
0
 10
7.41325
 20
29.9303
 11
7.37099
 21
29.8559
  0
LINE
  8
0
 10
7.37099
 20
29.8559
 11
7.32376
 21
29.7727
  0
LINE
  8
0
 10
7.32376
 20
29.7727
 11
7.30612
 21
29.7302
  0
LINE
  8
0
 10
7.30612
 20
29.7302
 11
7.25304
 21
29.602
  0
LINE
  8
0
 10
7.25304
 20
29.602
 11
7.24853
 21
29.5935
  0
LINE
  8
0
 10
7.24853
 20
29.5935
 11
7.24732
 21
29.5913
  0
LINE
  8
0
 10
7.24732
 20
29.5913
 11
7.20058
 21
29.4688
  0
LINE
  8
0
 10
7.20058
 20
29.4688
 11
7.18583
 21
29.4302
  0
LINE
  8
0
 10
7.18583
 20
29.4302
 11
7.1616
 21
29.3363
  0
LINE
  8
0
 10
7.1616
 20
29.3363
 11
7.14079
 21
29.2557
  0
LINE
  8
0
 10
7.14079
 20
29.2557
 11
7.13198
 21
29.1967
  0
LINE
  8
0
 10
7.13198
 20
29.1967
 11
7.11332
 21
29.072
  0
LINE
  8
0
 10
7.11332
 20
29.072
 11
7.1123
 21
29.0511
  0
LINE
  8
0
 10
7.1123
 20
29.0511
 11
7.10833
 21
28.9701
  0
LINE
  8
0
 10
7.10833
 20
28.9701
 11
7.10409
 21
28.8913
  0
LINE
  8
0
 10
7.10409
 20
28.8913
 11
7.10409
 21
27.4519
  0
LINE
  8
0
 10
36.5
 20
0
 11
47.5
 21
0
  0
LINE
  8
0
 10
47.5
 20
0
 11
47.5
 21
3.5
  0
LINE
  8
0
 10
47.5
 20
3.5
 11
47
 21
4
  0
LINE
  8
0
 10
47
 20
4
 11
41.8959
 21
4
  0
LINE
  8
0
 10
41.8959
 20
4
 11
40.3959
 21
5.5
  0
LINE
  8
0
 10
40.3959
 20
5.5
 11
40.3959
 21
10.9048
  0
LINE
  8
0
 10
40.3959
 20
10.9048
 11
40.3912
 21
10.9771
  0
LINE
  8
0
 10
40.3912
 20
10.9771
 11
40.3867
 21
11.0452
  0
LINE
  8
0
 10
40.3867
 20
11.0452
 11
40.3761
 21
11.0977
  0
LINE
  8
0
 10
40.3761
 20
11.0977
 11
40.3592
 21
11.1822
  0
LINE
  8
0
 10
40.3592
 20
11.1822
 11
40.3481
 21
11.2143
  0
LINE
  8
0
 10
40.3481
 20
11.2143
 11
40.3142
 21
11.3124
  0
LINE
  8
0
 10
40.3142
 20
11.3124
 11
40.3076
 21
11.3252
  0
LINE
  8
0
 10
40.3076
 20
11.3252
 11
40.2671
 21
11.4043
  0
LINE
  8
0
 10
40.2671
 20
11.4043
 11
40.2548
 21
11.4316
  0
LINE
  8
0
 10
40.2548
 20
11.4316
 11
40.2527
 21
11.4365
  0
LINE
  8
0
 10
40.2527
 20
11.4365
 11
40.1898
 21
11.5369
  0
LINE
  8
0
 10
40.1898
 20
11.5369
 11
40.1762
 21
11.5586
  0
LINE
  8
0
 10
40.1762
 20
11.5586
 11
40.1148
 21
11.6303
  0
LINE
  8
0
 10
40.1148
 20
11.6303
 11
40.0868
 21
11.663
  0
LINE
  8
0
 10
40.0868
 20
11.663
 11
40.0302
 21
11.7103
  0
LINE
  8
0
 10
40.0302
 20
11.7103
 11
39.9864
 21
11.7469
  0
LINE
  8
0
 10
39.9864
 20
11.7469
 11
39.9366
 21
11.7751
  0
LINE
  8
0
 10
39.9366
 20
11.7751
 11
39.8777
 21
11.8084
  0
LINE
  8
0
 10
39.8777
 20
11.8084
 11
39.8344
 21
11.8226
  0
LINE
  8
0
 10
39.8344
 20
11.8226
 11
39.7632
 21
11.8459
  0
LINE
  8
0
 10
39.7632
 20
11.8459
 11
39.7245
 21
11.8501
  0
LINE
  8
0
 10
39.7245
 20
11.8501
 11
39.6459
 21
11.8585
  0
LINE
  8
0
 10
39.6459
 20
11.8585
 11
36.5
 21
11.8585
  0
LINE
  8
0
 10
36.5
 20
11.8585
 11
36.5
 21
0
  0
LINE
  8
0
 10
36.5
 20
15.4045
 11
39.6459
 21
15.4045
  0
LINE
  8
0
 10
39.6459
 20
15.4045
 11
39.7632
 21
15.418
  0
LINE
  8
0
 10
39.7632
 20
15.418
 11
39.8761
 21
15.4577
  0
LINE
  8
0
 10
39.8761
 20
15.4577
 11
39.8777
 21
15.4582
  0
LINE
  8
0
 10
39.8777
 20
15.4582
 11
39.9844
 21
15.5229
  0
LINE
  8
0
 10
39.9844
 20
15.5229
 11
39.9864
 21
15.5241
  0
LINE
  8
0
 10
39.9864
 20
15.5241
 11
40.0843
 21
15.6119
  0
LINE
  8
0
 10
40.0843
 20
15.6119
 11
40.0868
 21
15.6141
  0
LINE
  8
0
 10
40.0868
 20
15.6141
 11
40.1733
 21
15.7223
  0
LINE
  8
0
 10
40.1733
 20
15.7223
 11
40.1762
 21
15.7259
  0
LINE
  8
0
 10
40.1762
 20
15.7259
 11
40.2494
 21
15.8513
  0
LINE
  8
0
 10
40.2494
 20
15.8513
 11
40.2527
 21
15.8569
  0
LINE
  8
0
 10
40.2527
 20
15.8569
 11
40.3109
 21
15.9959
  0
LINE
  8
0
 10
40.3109
 20
15.9959
 11
40.3142
 21
16.0037
  0
LINE
  8
0
 10
40.3142
 20
16.0037
 11
40.3563
 21
16.1526
  0
LINE
  8
0
 10
40.3563
 20
16.1526
 11
40.3592
 21
16.1628
  0
LINE
  8
0
 10
40.3592
 20
16.1628
 11
40.3846
 21
16.3175
  0
LINE
  8
0
 10
40.3846
 20
16.3175
 11
40.3867
 21
16.3302
  0
LINE
  8
0
 10
40.3867
 20
16.3302
 11
40.3951
 21
16.4867
  0
LINE
  8
0
 10
40.3951
 20
16.4867
 11
40.3959
 21
16.5019
  0
LINE
  8
0
 10
40.3959
 20
16.5019
 11
40.3959
 21
17.9413
  0
LINE
  8
0
 10
40.3959
 20
17.9413
 11
40.3897
 21
18.0568
  0
LINE
  8
0
 10
40.3897
 20
18.0568
 11
40.3867
 21
18.113
  0
LINE
  8
0
 10
40.3867
 20
18.113
 11
40.3684
 21
18.2246
  0
LINE
  8
0
 10
40.3684
 20
18.2246
 11
40.3592
 21
18.2804
  0
LINE
  8
0
 10
40.3592
 20
18.2804
 11
40.3294
 21
18.3856
  0
LINE
  8
0
 10
40.3294
 20
18.3856
 11
40.3142
 21
18.4395
  0
LINE
  8
0
 10
40.3142
 20
18.4395
 11
40.2739
 21
18.5357
  0
LINE
  8
0
 10
40.2739
 20
18.5357
 11
40.2527
 21
18.5863
  0
LINE
  8
0
 10
40.2527
 20
18.5863
 11
40.2029
 21
18.6715
  0
LINE
  8
0
 10
40.2029
 20
18.6715
 11
40.1762
 21
18.7173
  0
LINE
  8
0
 10
40.1762
 20
18.7173
 11
40.1184
 21
18.7895
  0
LINE
  8
0
 10
40.1184
 20
18.7895
 11
40.0868
 21
18.8291
  0
LINE
  8
0
 10
40.0868
 20
18.8291
 11
40.0223
 21
18.8869
  0
LINE
  8
0
 10
40.0223
 20
18.8869
 11
39.9864
 21
18.9191
  0
LINE
  8
0
 10
39.9864
 20
18.9191
 11
39.9168
 21
18.9612
  0
LINE
  8
0
 10
39.9168
 20
18.9612
 11
39.8777
 21
18.985
  0
LINE
  8
0
 10
39.8777
 20
18.985
 11
39.8046
 21
19.0106
  0
LINE
  8
0
 10
39.8046
 20
19.0106
 11
39.7632
 21
19.0252
  0
LINE
  8
0
 10
39.7632
 20
19.0252
 11
39.6459
 21
19.0387
  0
LINE
  8
0
 10
39.6459
 20
19.0387
 11
36.5
 21
19.0387
  0
LINE
  8
0
 10
36.5
 20
19.0387
 11
36.5
 21
15.4045
  0
LINE
  8
0
 10
36.5
 20
26.3545
 11
39.6459
 21
26.3545
  0
LINE
  8
0
 10
39.6459
 20
26.3545
 11
39.7632
 21
26.368
  0
LINE
  8
0
 10
39.7632
 20
26.368
 11
39.8055
 21
26.3829
  0
LINE
  8
0
 10
39.8055
 20
26.3829
 11
39.8777
 21
26.4082
  0
LINE
  8
0
 10
39.8777
 20
26.4082
 11
39.9176
 21
26.4324
  0
LINE
  8
0
 10
39.9176
 20
26.4324
 11
39.9864
 21
26.4741
  0
LINE
  8
0
 10
39.9864
 20
26.4741
 11
40.0868
 21
26.5641
  0
LINE
  8
0
 10
40.0868
 20
26.5641
 11
40.1762
 21
26.6759
  0
LINE
  8
0
 10
40.1762
 20
26.6759
 11
40.2035
 21
26.7226
  0
LINE
  8
0
 10
40.2035
 20
26.7226
 11
40.2527
 21
26.8069
  0
LINE
  8
0
 10
40.2527
 20
26.8069
 11
40.2743
 21
26.8585
  0
LINE
  8
0
 10
40.2743
 20
26.8585
 11
40.3142
 21
26.9537
  0
LINE
  8
0
 10
40.3142
 20
26.9537
 11
40.3298
 21
27.0088
  0
LINE
  8
0
 10
40.3298
 20
27.0088
 11
40.3592
 21
27.1128
  0
LINE
  8
0
 10
40.3592
 20
27.1128
 11
40.3686
 21
27.1698
  0
LINE
  8
0
 10
40.3686
 20
27.1698
 11
40.3867
 21
27.2802
  0
LINE
  8
0
 10
40.3867
 20
27.2802
 11
40.3898
 21
27.3376
  0
LINE
  8
0
 10
40.3898
 20
27.3376
 11
40.3959
 21
27.4519
  0
LINE
  8
0
 10
40.3959
 20
27.4519
 11
40.3959
 21
28.8913
  0
LINE
  8
0
 10
40.3959
 20
28.8913
 11
40.3959
 21
28.8923
  0
LINE
  8
0
 10
40.3959
 20
28.8923
 11
40.3917
 21
28.9701
  0
LINE
  8
0
 10
40.3917
 20
28.9701
 11
40.3867
 21
29.072
  0
LINE
  8
0
 10
40.3867
 20
29.072
 11
40.381
 21
29.1096
  0
LINE
  8
0
 10
40.381
 20
29.1096
 11
40.3592
 21
29.2557
  0
LINE
  8
0
 10
40.3592
 20
29.2557
 11
40.3325
 21
29.3592
  0
LINE
  8
0
 10
40.3325
 20
29.3592
 11
40.3142
 21
29.4302
  0
LINE
  8
0
 10
40.3142
 20
29.4302
 11
40.2543
 21
29.5871
  0
LINE
  8
0
 10
40.2543
 20
29.5871
 11
40.2527
 21
29.5913
  0
LINE
  8
0
 10
40.2527
 20
29.5913
 11
40.247
 21
29.602
  0
LINE
  8
0
 10
40.247
 20
29.602
 11
40.1762
 21
29.7727
  0
LINE
  8
0
 10
40.1762
 20
29.7727
 11
40.1344
 21
29.8465
  0
LINE
  8
0
 10
40.1344
 20
29.8465
 11
40.0868
 21
29.9303
  0
LINE
  8
0
 10
40.0868
 20
29.9303
 11
40.0009
 21
30.0389
  0
LINE
  8
0
 10
40.0009
 20
30.0389
 11
39.9864
 21
30.0571
  0
LINE
  8
0
 10
39.9864
 20
30.0571
 11
39.9273
 21
30.1076
  0
LINE
  8
0
 10
39.9273
 20
30.1076
 11
39.8777
 21
30.1692
  0
LINE
  8
0
 10
39.8777
 20
30.1692
 11
39.8586
 21
30.1829
  0
LINE
  8
0
 10
39.8586
 20
30.1829
 11
39.7632
 21
30.2515
  0
LINE
  8
0
 10
39.7632
 20
30.2515
 11
39.7234
 21
30.2609
  0
LINE
  8
0
 10
39.7234
 20
30.2609
 11
39.6459
 21
30.2792
  0
LINE
  8
0
 10
39.6459
 20
30.2792
 11
36.5
 21
30.2792
  0
LINE
  8
0
 10
36.5
 20
30.2792
 11
36.5
 21
26.3545
  0
LINE
  8
0
 10
36.5
 20
32.0336
 11
39.6459
 21
32.0336
  0
LINE
  8
0
 10
39.6459
 20
32.0336
 11
39.6756
 21
32.0409
  0
LINE
  8
0
 10
39.6756
 20
32.0409
 11
39.7632
 21
32.0626
  0
LINE
  8
0
 10
39.7632
 20
32.0626
 11
39.7827
 21
32.0773
  0
LINE
  8
0
 10
39.7827
 20
32.0773
 11
39.8777
 21
32.1491
  0
LINE
  8
0
 10
39.8777
 20
32.1491
 11
39.8787
 21
32.1504
  0
LINE
  8
0
 10
39.8787
 20
32.1504
 11
39.8819
 21
32.1546
  0
LINE
  8
0
 10
39.8819
 20
32.1546
 11
39.9682
 21
32.2306
  0
LINE
  8
0
 10
39.9682
 20
32.2306
 11
39.9864
 21
32.2467
  0
LINE
  8
0
 10
39.9864
 20
32.2467
 11
40.049
 21
32.3283
  0
LINE
  8
0
 10
40.049
 20
32.3283
 11
40.0868
 21
32.3775
  0
LINE
  8
0
 10
40.0868
 20
32.3775
 11
40.122
 21
32.4415
  0
LINE
  8
0
 10
40.122
 20
32.4415
 11
40.1762
 21
32.54
  0
LINE
  8
0
 10
40.1762
 20
32.54
 11
40.1877
 21
32.5686
  0
LINE
  8
0
 10
40.1877
 20
32.5686
 11
40.2208
 21
32.651
  0
LINE
  8
0
 10
40.2208
 20
32.651
 11
40.2458
 21
32.699
  0
LINE
  8
0
 10
40.2458
 20
32.699
 11
40.2527
 21
32.7122
  0
LINE
  8
0
 10
40.2527
 20
32.7122
 11
40.2947
 21
32.8248
  0
LINE
  8
0
 10
40.2947
 20
32.8248
 11
40.3142
 21
32.8768
  0
LINE
  8
0
 10
40.3142
 20
32.8768
 11
40.3348
 21
32.9587
  0
LINE
  8
0
 10
40.3348
 20
32.9587
 11
40.3592
 21
33.0552
  0
LINE
  8
0
 10
40.3592
 20
33.0552
 11
40.3658
 21
33.1001
  0
LINE
  8
0
 10
40.3658
 20
33.1001
 11
40.3867
 21
33.2429
  0
LINE
  8
0
 10
40.3867
 20
33.2429
 11
40.3869
 21
33.2478
  0
LINE
  8
0
 10
40.3869
 20
33.2478
 11
40.3878
 21
33.2663
  0
LINE
  8
0
 10
40.3878
 20
33.2663
 11
40.3944
 21
33.3807
  0
LINE
  8
0
 10
40.3944
 20
33.3807
 11
40.3959
 21
33.407
  0
LINE
  8
0
 10
40.3959
 20
33.407
 11
40.3959
 21
40
  0
LINE
  8
0
 10
40.3959
 20
40
 11
41.8959
 21
41.5
  0
LINE
  8
0
 10
41.8959
 20
41.5
 11
47
 21
41.5
  0
LINE
  8
0
 10
47
 20
41.5
 11
47.5
 21
42
  0
LINE
  8
0
 10
47.5
 20
42
 11
47.5
 21
45.5
  0
LINE
  8
0
 10
47.5
 20
45.5
 11
36.5
 21
45.5
  0
LINE
  8
0
 10
36.5
 20
45.5
 11
36.5
 21
32.0336
  0
ENDSEC
  0
SECTION
  2
OBJECTS
  0
DICTIONARY
  0
ENDSEC
  0
EOF
