  0
SECTION
  2
BLOCKS
  0
ENDSEC
  0
SECTION
  2
ENTITIES
  0
LINE
  8
0
 10
0
 20
0
 11
11
 21
0
  0
LINE
  8
0
 10
11
 20
0
 11
11
 21
12.0848
  0
LINE
  8
0
 10
11
 20
12.0848
 11
7.85409
 21
12.0848
  0
LINE
  8
0
 10
7.85409
 20
12.0848
 11
7.78402
 21
12.0757
  0
LINE
  8
0
 10
7.78402
 20
12.0757
 11
7.73676
 21
12.0696
  0
LINE
  8
0
 10
7.73676
 20
12.0696
 11
7.66085
 21
12.0397
  0
LINE
  8
0
 10
7.66085
 20
12.0397
 11
7.62232
 21
12.0246
  0
LINE
  8
0
 10
7.62232
 20
12.0246
 11
7.53548
 21
11.9656
  0
LINE
  8
0
 10
7.53548
 20
11.9656
 11
7.51359
 21
11.9507
  0
LINE
  8
0
 10
7.51359
 20
11.9507
 11
7.4156
 21
11.8522
  0
LINE
  8
0
 10
7.4156
 20
11.8522
 11
7.41325
 21
11.8502
  0
LINE
  8
0
 10
7.41325
 20
11.8502
 11
7.4129
 21
11.8498
  0
LINE
  8
0
 10
7.4129
 20
11.8498
 11
7.32376
 21
11.7459
  0
LINE
  8
0
 10
7.32376
 20
11.7459
 11
7.30755
 21
11.72
  0
LINE
  8
0
 10
7.30755
 20
11.72
 11
7.24732
 21
11.6237
  0
LINE
  8
0
 10
7.24732
 20
11.6237
 11
7.21972
 21
11.5622
  0
LINE
  8
0
 10
7.21972
 20
11.5622
 11
7.18583
 21
11.4867
  0
LINE
  8
0
 10
7.18583
 20
11.4867
 11
7.15428
 21
11.3827
  0
LINE
  8
0
 10
7.15428
 20
11.3827
 11
7.14079
 21
11.3383
  0
LINE
  8
0
 10
7.14079
 20
11.3383
 11
7.11461
 21
11.1894
  0
LINE
  8
0
 10
7.11461
 20
11.1894
 11
7.11332
 21
11.1821
  0
LINE
  8
0
 10
7.11332
 20
11.1821
 11
7.11158
 21
11.1518
  0
LINE
  8
0
 10
7.11158
 20
11.1518
 11
7.10409
 21
11.0379
  0
LINE
  8
0
 10
7.10409
 20
11.0379
 11
7.10409
 21
5.5
  0
LINE
  8
0
 10
7.10409
 20
5.5
 11
5.60409
 21
4
  0
LINE
  8
0
 10
5.60409
 20
4
 11
0.499999
 21
4
  0
LINE
  8
0
 10
0.499999
 20
4
 11
0
 21
3.5
  0
LINE
  8
0
 10
0
 20
3.5
 11
0
 21
0
  0
LINE
  8
0
 10
0
 20
42
 11
0.499999
 21
41.5
  0
LINE
  8
0
 10
0.499999
 20
41.5
 11
5.60409
 21
41.5
  0
LINE
  8
0
 10
5.60409
 20
41.5
 11
7.10409
 21
40
  0
LINE
  8
0
 10
7.10409
 20
40
 11
7.10409
 21
33.5942
  0
LINE
  8
0
 10
7.10409
 20
33.5942
 11
7.10758
 21
33.5336
  0
LINE
  8
0
 10
7.10758
 20
33.5336
 11
7.11332
 21
33.4341
  0
LINE
  8
0
 10
7.11332
 20
33.4341
 11
7.13099
 21
33.3336
  0
LINE
  8
0
 10
7.13099
 20
33.3336
 11
7.14079
 21
33.2778
  0
LINE
  8
0
 10
7.14079
 20
33.2778
 11
7.18202
 21
33.142
  0
LINE
  8
0
 10
7.18202
 20
33.142
 11
7.18583
 21
33.1294
  0
LINE
  8
0
 10
7.18583
 20
33.1294
 11
7.20562
 21
33.0853
  0
LINE
  8
0
 10
7.20562
 20
33.0853
 11
7.24732
 21
32.9737
  0
LINE
  8
0
 10
7.24732
 20
32.9737
 11
7.26599
 21
32.9378
  0
LINE
  8
0
 10
7.26599
 20
32.9378
 11
7.32376
 21
32.8269
  0
LINE
  8
0
 10
7.32376
 20
32.8269
 11
7.37387
 21
32.7567
  0
LINE
  8
0
 10
7.37387
 20
32.7567
 11
7.41325
 21
32.7015
  0
LINE
  8
0
 10
7.41325
 20
32.7015
 11
7.49479
 21
32.6196
  0
LINE
  8
0
 10
7.49479
 20
32.6196
 11
7.51359
 21
32.6007
  0
LINE
  8
0
 10
7.51359
 20
32.6007
 11
7.6213
 21
32.5275
  0
LINE
  8
0
 10
7.6213
 20
32.5275
 11
7.62232
 21
32.5268
  0
LINE
  8
0
 10
7.62232
 20
32.5268
 11
7.63268
 21
32.5227
  0
LINE
  8
0
 10
7.63268
 20
32.5227
 11
7.73676
 21
32.4696
  0
LINE
  8
0
 10
7.73676
 20
32.4696
 11
7.75005
 21
32.4673
  0
LINE
  8
0
 10
7.75005
 20
32.4673
 11
7.85409
 21
32.4499
  0
LINE
  8
0
 10
7.85409
 20
32.4499
 11
11
 21
32.4499
  0
LINE
  8
0
 10
11
 20
32.4499
 11
11
 21
45.5
  0
LINE
  8
0
 10
11
 20
45.5
 11
0
 21
45.5
  0
LINE
  8
0
 10
0
 20
45.5
 11
0
 21
42
  0
LINE
  8
0
 10
7.10409
 20
16.2883
 11
7.11287
 21
16.125
  0
LINE
  8
0
 10
7.11287
 20
16.125
 11
7.11332
 21
16.1166
  0
LINE
  8
0
 10
7.11332
 20
16.1166
 11
7.1398
 21
15.9552
  0
LINE
  8
0
 10
7.1398
 20
15.9552
 11
7.14079
 21
15.9492
  0
LINE
  8
0
 10
7.14079
 20
15.9492
 11
7.18473
 21
15.794
  0
LINE
  8
0
 10
7.18473
 20
15.794
 11
7.18583
 21
15.7901
  0
LINE
  8
0
 10
7.18583
 20
15.7901
 11
7.24649
 21
15.6453
  0
LINE
  8
0
 10
7.24649
 20
15.6453
 11
7.24732
 21
15.6433
  0
LINE
  8
0
 10
7.24732
 20
15.6433
 11
7.32345
 21
15.5128
  0
LINE
  8
0
 10
7.32345
 20
15.5128
 11
7.32376
 21
15.5123
  0
LINE
  8
0
 10
7.32376
 20
15.5123
 11
7.36664
 21
15.4587
  0
LINE
  8
0
 10
7.36664
 20
15.4587
 11
7.40548
 21
15.4055
  0
LINE
  8
0
 10
7.40548
 20
15.4055
 11
7.41325
 21
15.3948
  0
LINE
  8
0
 10
7.41325
 20
15.3948
 11
7.49011
 21
15.3192
  0
LINE
  8
0
 10
7.49011
 20
15.3192
 11
7.51359
 21
15.2961
  0
LINE
  8
0
 10
7.51359
 20
15.2961
 11
7.58329
 21
15.2498
  0
LINE
  8
0
 10
7.58329
 20
15.2498
 11
7.62232
 21
15.2238
  0
LINE
  8
0
 10
7.62232
 20
15.2238
 11
7.68493
 21
15.1997
  0
LINE
  8
0
 10
7.68493
 20
15.1997
 11
7.73676
 21
15.1797
  0
LINE
  8
0
 10
7.73676
 20
15.1797
 11
7.79471
 21
15.1724
  0
LINE
  8
0
 10
7.79471
 20
15.1724
 11
7.85409
 21
15.1649
  0
LINE
  8
0
 10
7.85409
 20
15.1649
 11
11
 21
15.1649
  0
LINE
  8
0
 10
11
 20
15.1649
 11
11
 21
18.8251
  0
LINE
  8
0
 10
11
 20
18.8251
 11
7.85409
 21
18.8251
  0
LINE
  8
0
 10
7.85409
 20
18.8251
 11
7.73676
 21
18.8115
  0
LINE
  8
0
 10
7.73676
 20
18.8115
 11
7.662
 21
18.7853
  0
LINE
  8
0
 10
7.662
 20
18.7853
 11
7.62232
 21
18.7713
  0
LINE
  8
0
 10
7.62232
 20
18.7713
 11
7.55107
 21
18.7282
  0
LINE
  8
0
 10
7.55107
 20
18.7282
 11
7.51359
 21
18.7054
  0
LINE
  8
0
 10
7.51359
 20
18.7054
 11
7.44753
 21
18.6462
  0
LINE
  8
0
 10
7.44753
 20
18.6462
 11
7.41325
 21
18.6155
  0
LINE
  8
0
 10
7.41325
 20
18.6155
 11
7.35399
 21
18.5414
  0
LINE
  8
0
 10
7.35399
 20
18.5414
 11
7.32376
 21
18.5036
  0
LINE
  8
0
 10
7.32376
 20
18.5036
 11
7.2728
 21
18.4163
  0
LINE
  8
0
 10
7.2728
 20
18.4163
 11
7.24732
 21
18.3727
  0
LINE
  8
0
 10
7.24732
 20
18.3727
 11
7.20601
 21
18.274
  0
LINE
  8
0
 10
7.20601
 20
18.274
 11
7.18583
 21
18.2259
  0
LINE
  8
0
 10
7.18583
 20
18.2259
 11
7.15531
 21
18.1181
  0
LINE
  8
0
 10
7.15531
 20
18.1181
 11
7.14079
 21
18.0668
  0
LINE
  8
0
 10
7.14079
 20
18.0668
 11
7.12201
 21
17.9523
  0
LINE
  8
0
 10
7.12201
 20
17.9523
 11
7.11332
 21
17.8993
  0
LINE
  8
0
 10
7.11332
 20
17.8993
 11
7.10695
 21
17.7809
  0
LINE
  8
0
 10
7.10695
 20
17.7809
 11
7.10409
 21
17.7277
  0
LINE
  8
0
 10
7.10409
 20
17.7277
 11
7.10409
 21
16.2883
  0
LINE
  8
0
 10
7.10409
 20
27.2383
 11
7.10729
 21
27.1787
  0
LINE
  8
0
 10
7.10729
 20
27.1787
 11
7.11332
 21
27.0666
  0
LINE
  8
0
 10
7.11332
 20
27.0666
 11
7.12302
 21
27.0075
  0
LINE
  8
0
 10
7.12302
 20
27.0075
 11
7.14079
 21
26.8992
  0
LINE
  8
0
 10
7.14079
 20
26.8992
 11
7.15697
 21
26.842
  0
LINE
  8
0
 10
7.15697
 20
26.842
 11
7.18583
 21
26.7401
  0
LINE
  8
0
 10
7.18583
 20
26.7401
 11
7.20827
 21
26.6865
  0
LINE
  8
0
 10
7.20827
 20
26.6865
 11
7.24732
 21
26.5932
  0
LINE
  8
0
 10
7.24732
 20
26.5932
 11
7.27561
 21
26.5448
  0
LINE
  8
0
 10
7.27561
 20
26.5448
 11
7.32376
 21
26.4623
  0
LINE
  8
0
 10
7.32376
 20
26.4623
 11
7.41325
 21
26.3505
  0
LINE
  8
0
 10
7.41325
 20
26.3505
 11
7.51359
 21
26.2605
  0
LINE
  8
0
 10
7.51359
 20
26.2605
 11
7.55506
 21
26.2354
  0
LINE
  8
0
 10
7.55506
 20
26.2354
 11
7.62232
 21
26.1946
  0
LINE
  8
0
 10
7.62232
 20
26.1946
 11
7.6662
 21
26.1792
  0
LINE
  8
0
 10
7.6662
 20
26.1792
 11
7.73676
 21
26.1544
  0
LINE
  8
0
 10
7.73676
 20
26.1544
 11
7.85409
 21
26.1409
  0
LINE
  8
0
 10
7.85409
 20
26.1409
 11
11
 21
26.1409
  0
LINE
  8
0
 10
11
 20
26.1409
 11
11
 21
29.8634
  0
LINE
  8
0
 10
11
 20
29.8634
 11
7.85409
 21
29.8634
  0
LINE
  8
0
 10
7.85409
 20
29.8634
 11
7.82486
 21
29.8587
  0
LINE
  8
0
 10
7.82486
 20
29.8587
 11
7.73676
 21
29.8444
  0
LINE
  8
0
 10
7.73676
 20
29.8444
 11
7.71435
 21
29.8333
  0
LINE
  8
0
 10
7.71435
 20
29.8333
 11
7.62232
 21
29.7877
  0
LINE
  8
0
 10
7.62232
 20
29.7877
 11
7.61284
 21
29.7796
  0
LINE
  8
0
 10
7.61284
 20
29.7796
 11
7.56068
 21
29.7351
  0
LINE
  8
0
 10
7.56068
 20
29.7351
 11
7.51953
 21
29.7077
  0
LINE
  8
0
 10
7.51953
 20
29.7077
 11
7.51359
 21
29.7038
  0
LINE
  8
0
 10
7.51359
 20
29.7038
 11
7.43467
 21
29.6261
  0
LINE
  8
0
 10
7.43467
 20
29.6261
 11
7.41325
 21
29.6051
  0
LINE
  8
0
 10
7.41325
 20
29.6051
 11
7.35881
 21
29.5304
  0
LINE
  8
0
 10
7.35881
 20
29.5304
 11
7.32376
 21
29.4824
  0
LINE
  8
0
 10
7.32376
 20
29.4824
 11
7.29179
 21
29.4223
  0
LINE
  8
0
 10
7.29179
 20
29.4223
 11
7.24732
 21
29.3387
  0
LINE
  8
0
 10
7.24732
 20
29.3387
 11
7.23368
 21
29.303
  0
LINE
  8
0
 10
7.23368
 20
29.303
 11
7.18583
 21
29.1777
  0
LINE
  8
0
 10
7.18583
 20
29.1777
 11
7.18476
 21
29.1735
  0
LINE
  8
0
 10
7.18476
 20
29.1735
 11
7.1806
 21
29.1574
  0
LINE
  8
0
 10
7.1806
 20
29.1574
 11
7.14079
 21
29.0168
  0
LINE
  8
0
 10
7.14079
 20
29.0168
 11
7.14051
 21
29.015
  0
LINE
  8
0
 10
7.14051
 20
29.015
 11
7.11332
 21
28.8493
  0
LINE
  8
0
 10
7.11332
 20
28.8493
 11
7.11311
 21
28.8454
  0
LINE
  8
0
 10
7.11311
 20
28.8454
 11
7.10409
 21
28.6777
  0
LINE
  8
0
 10
7.10409
 20
28.6777
 11
7.10409
 21
27.2383
  0
LINE
  8
0
 10
36.5
 20
0
 11
47.5
 21
0
  0
LINE
  8
0
 10
47.5
 20
0
 11
47.5
 21
3.5
  0
LINE
  8
0
 10
47.5
 20
3.5
 11
47
 21
4
  0
LINE
  8
0
 10
47
 20
4
 11
41.8959
 21
4
  0
LINE
  8
0
 10
41.8959
 20
4
 11
40.3959
 21
5.5
  0
LINE
  8
0
 10
40.3959
 20
5.5
 11
40.3959
 21
11.0379
  0
LINE
  8
0
 10
40.3959
 20
11.0379
 11
40.3948
 21
11.0544
  0
LINE
  8
0
 10
40.3948
 20
11.0544
 11
40.3884
 21
11.1518
  0
LINE
  8
0
 10
40.3884
 20
11.1518
 11
40.387
 21
11.1773
  0
LINE
  8
0
 10
40.387
 20
11.1773
 11
40.3867
 21
11.1821
  0
LINE
  8
0
 10
40.3867
 20
11.1821
 11
40.3644
 21
11.3088
  0
LINE
  8
0
 10
40.3644
 20
11.3088
 11
40.3592
 21
11.3383
  0
LINE
  8
0
 10
40.3592
 20
11.3383
 11
40.3301
 21
11.4343
  0
LINE
  8
0
 10
40.3301
 20
11.4343
 11
40.3142
 21
11.4867
  0
LINE
  8
0
 10
40.3142
 20
11.4867
 11
40.2846
 21
11.5525
  0
LINE
  8
0
 10
40.2846
 20
11.5525
 11
40.2527
 21
11.6237
  0
LINE
  8
0
 10
40.2527
 20
11.6237
 11
40.2286
 21
11.6622
  0
LINE
  8
0
 10
40.2286
 20
11.6622
 11
40.1762
 21
11.7459
  0
LINE
  8
0
 10
40.1762
 20
11.7459
 11
40.1625
 21
11.7619
  0
LINE
  8
0
 10
40.1625
 20
11.7619
 11
40.0868
 21
11.8502
  0
LINE
  8
0
 10
40.0868
 20
11.8502
 11
40.0864
 21
11.8505
  0
LINE
  8
0
 10
40.0864
 20
11.8505
 11
40.0844
 21
11.8522
  0
LINE
  8
0
 10
40.0844
 20
11.8522
 11
40.0008
 21
11.9362
  0
LINE
  8
0
 10
40.0008
 20
11.9362
 11
39.9864
 21
11.9507
  0
LINE
  8
0
 10
39.9864
 20
11.9507
 11
39.9066
 21
12.0049
  0
LINE
  8
0
 10
39.9066
 20
12.0049
 11
39.8777
 21
12.0246
  0
LINE
  8
0
 10
39.8777
 20
12.0246
 11
39.8041
 21
12.0535
  0
LINE
  8
0
 10
39.8041
 20
12.0535
 11
39.7632
 21
12.0696
  0
LINE
  8
0
 10
39.7632
 20
12.0696
 11
39.6936
 21
12.0786
  0
LINE
  8
0
 10
39.6936
 20
12.0786
 11
39.6459
 21
12.0848
  0
LINE
  8
0
 10
39.6459
 20
12.0848
 11
36.5
 21
12.0848
  0
LINE
  8
0
 10
36.5
 20
12.0848
 11
36.5
 21
0
  0
LINE
  8
0
 10
36.5
 20
15.1649
 11
39.6459
 21
15.1649
  0
LINE
  8
0
 10
39.6459
 20
15.1649
 11
39.7036
 21
15.1722
  0
LINE
  8
0
 10
39.7036
 20
15.1722
 11
39.7632
 21
15.1797
  0
LINE
  8
0
 10
39.7632
 20
15.1797
 11
39.8261
 21
15.204
  0
LINE
  8
0
 10
39.8261
 20
15.204
 11
39.8777
 21
15.2238
  0
LINE
  8
0
 10
39.8777
 20
15.2238
 11
39.951
 21
15.2726
  0
LINE
  8
0
 10
39.951
 20
15.2726
 11
39.9864
 21
15.2961
  0
LINE
  8
0
 10
39.9864
 20
15.2961
 11
40.0735
 21
15.3818
  0
LINE
  8
0
 10
40.0735
 20
15.3818
 11
40.0868
 21
15.3948
  0
LINE
  8
0
 10
40.0868
 20
15.3948
 11
40.1334
 21
15.4587
  0
LINE
  8
0
 10
40.1334
 20
15.4587
 11
40.1759
 21
15.5119
  0
LINE
  8
0
 10
40.1759
 20
15.5119
 11
40.1762
 21
15.5123
  0
LINE
  8
0
 10
40.1762
 20
15.5123
 11
40.2517
 21
15.6415
  0
LINE
  8
0
 10
40.2517
 20
15.6415
 11
40.2527
 21
15.6433
  0
LINE
  8
0
 10
40.2527
 20
15.6433
 11
40.3127
 21
15.7866
  0
LINE
  8
0
 10
40.3127
 20
15.7866
 11
40.3142
 21
15.7901
  0
LINE
  8
0
 10
40.3142
 20
15.7901
 11
40.3576
 21
15.9435
  0
LINE
  8
0
 10
40.3576
 20
15.9435
 11
40.3592
 21
15.9492
  0
LINE
  8
0
 10
40.3592
 20
15.9492
 11
40.3854
 21
16.1087
  0
LINE
  8
0
 10
40.3854
 20
16.1087
 11
40.3867
 21
16.1166
  0
LINE
  8
0
 10
40.3867
 20
16.1166
 11
40.3954
 21
16.278
  0
LINE
  8
0
 10
40.3954
 20
16.278
 11
40.3959
 21
16.2883
  0
LINE
  8
0
 10
40.3959
 20
16.2883
 11
40.3959
 21
17.7277
  0
LINE
  8
0
 10
40.3959
 20
17.7277
 11
40.3896
 21
17.8457
  0
LINE
  8
0
 10
40.3896
 20
17.8457
 11
40.3867
 21
17.8993
  0
LINE
  8
0
 10
40.3867
 20
17.8993
 11
40.368
 21
18.0134
  0
LINE
  8
0
 10
40.368
 20
18.0134
 11
40.3592
 21
18.0668
  0
LINE
  8
0
 10
40.3592
 20
18.0668
 11
40.3288
 21
18.1743
  0
LINE
  8
0
 10
40.3288
 20
18.1743
 11
40.3142
 21
18.2259
  0
LINE
  8
0
 10
40.3142
 20
18.2259
 11
40.273
 21
18.3243
  0
LINE
  8
0
 10
40.273
 20
18.3243
 11
40.2527
 21
18.3727
  0
LINE
  8
0
 10
40.2527
 20
18.3727
 11
40.2018
 21
18.4598
  0
LINE
  8
0
 10
40.2018
 20
18.4598
 11
40.1762
 21
18.5036
  0
LINE
  8
0
 10
40.1762
 20
18.5036
 11
40.1171
 21
18.5775
  0
LINE
  8
0
 10
40.1171
 20
18.5775
 11
40.0868
 21
18.6155
  0
LINE
  8
0
 10
40.0868
 20
18.6155
 11
40.0208
 21
18.6746
  0
LINE
  8
0
 10
40.0208
 20
18.6746
 11
39.9864
 21
18.7054
  0
LINE
  8
0
 10
39.9864
 20
18.7054
 11
39.9152
 21
18.7486
  0
LINE
  8
0
 10
39.9152
 20
18.7486
 11
39.8777
 21
18.7713
  0
LINE
  8
0
 10
39.8777
 20
18.7713
 11
39.803
 21
18.7976
  0
LINE
  8
0
 10
39.803
 20
18.7976
 11
39.7632
 21
18.8115
  0
LINE
  8
0
 10
39.7632
 20
18.8115
 11
39.6459
 21
18.8251
  0
LINE
  8
0
 10
39.6459
 20
18.8251
 11
36.5
 21
18.8251
  0
LINE
  8
0
 10
36.5
 20
18.8251
 11
36.5
 21
15.1649
  0
LINE
  8
0
 10
36.5
 20
26.1409
 11
39.6459
 21
26.1409
  0
LINE
  8
0
 10
39.6459
 20
26.1409
 11
39.7632
 21
26.1544
  0
LINE
  8
0
 10
39.7632
 20
26.1544
 11
39.8071
 21
26.1698
  0
LINE
  8
0
 10
39.8071
 20
26.1698
 11
39.8777
 21
26.1946
  0
LINE
  8
0
 10
39.8777
 20
26.1946
 11
39.9192
 21
26.2198
  0
LINE
  8
0
 10
39.9192
 20
26.2198
 11
39.9864
 21
26.2605
  0
LINE
  8
0
 10
39.9864
 20
26.2605
 11
40.0868
 21
26.3505
  0
LINE
  8
0
 10
40.0868
 20
26.3505
 11
40.1762
 21
26.4623
  0
LINE
  8
0
 10
40.1762
 20
26.4623
 11
40.2046
 21
26.5109
  0
LINE
  8
0
 10
40.2046
 20
26.5109
 11
40.2527
 21
26.5932
  0
LINE
  8
0
 10
40.2527
 20
26.5932
 11
40.2752
 21
26.647
  0
LINE
  8
0
 10
40.2752
 20
26.647
 11
40.3142
 21
26.7401
  0
LINE
  8
0
 10
40.3142
 20
26.7401
 11
40.3304
 21
26.7975
  0
LINE
  8
0
 10
40.3304
 20
26.7975
 11
40.3592
 21
26.8992
  0
LINE
  8
0
 10
40.3592
 20
26.8992
 11
40.369
 21
26.9586
  0
LINE
  8
0
 10
40.369
 20
26.9586
 11
40.3867
 21
27.0666
  0
LINE
  8
0
 10
40.3867
 20
27.0666
 11
40.3899
 21
27.1265
  0
LINE
  8
0
 10
40.3899
 20
27.1265
 11
40.3959
 21
27.2383
  0
LINE
  8
0
 10
40.3959
 20
27.2383
 11
40.3959
 21
28.6777
  0
LINE
  8
0
 10
40.3959
 20
28.6777
 11
40.3956
 21
28.6836
  0
LINE
  8
0
 10
40.3956
 20
28.6836
 11
40.3867
 21
28.8493
  0
LINE
  8
0
 10
40.3867
 20
28.8493
 11
40.3861
 21
28.853
  0
LINE
  8
0
 10
40.3861
 20
28.853
 11
40.3592
 21
29.0168
  0
LINE
  8
0
 10
40.3592
 20
29.0168
 11
40.3587
 21
29.0184
  0
LINE
  8
0
 10
40.3587
 20
29.0184
 11
40.3194
 21
29.1574
  0
LINE
  8
0
 10
40.3194
 20
29.1574
 11
40.3142
 21
29.1777
  0
LINE
  8
0
 10
40.3142
 20
29.1777
 11
40.3115
 21
29.1846
  0
LINE
  8
0
 10
40.3115
 20
29.1846
 11
40.2527
 21
29.3387
  0
LINE
  8
0
 10
40.2527
 20
29.3387
 11
40.2232
 21
29.3942
  0
LINE
  8
0
 10
40.2232
 20
29.3942
 11
40.1762
 21
29.4824
  0
LINE
  8
0
 10
40.1762
 20
29.4824
 11
40.1148
 21
29.5666
  0
LINE
  8
0
 10
40.1148
 20
29.5666
 11
40.0868
 21
29.6051
  0
LINE
  8
0
 10
40.0868
 20
29.6051
 11
39.9938
 21
29.6965
  0
LINE
  8
0
 10
39.9938
 20
29.6965
 11
39.9864
 21
29.7038
  0
LINE
  8
0
 10
39.9864
 20
29.7038
 11
39.9393
 21
29.7351
  0
LINE
  8
0
 10
39.9393
 20
29.7351
 11
39.8777
 21
29.7877
  0
LINE
  8
0
 10
39.8777
 20
29.7877
 11
39.864
 21
29.7945
  0
LINE
  8
0
 10
39.864
 20
29.7945
 11
39.7632
 21
29.8444
  0
LINE
  8
0
 10
39.7632
 20
29.8444
 11
39.7363
 21
29.8488
  0
LINE
  8
0
 10
39.7363
 20
29.8488
 11
39.6459
 21
29.8634
  0
LINE
  8
0
 10
39.6459
 20
29.8634
 11
36.5
 21
29.8634
  0
LINE
  8
0
 10
36.5
 20
29.8634
 11
36.5
 21
26.1409
  0
LINE
  8
0
 10
36.5
 20
32.4499
 11
39.6459
 21
32.4499
  0
LINE
  8
0
 10
39.6459
 20
32.4499
 11
39.6626
 21
32.4527
  0
LINE
  8
0
 10
39.6626
 20
32.4527
 11
39.7632
 21
32.4696
  0
LINE
  8
0
 10
39.7632
 20
32.4696
 11
39.7742
 21
32.4752
  0
LINE
  8
0
 10
39.7742
 20
32.4752
 11
39.8673
 21
32.5227
  0
LINE
  8
0
 10
39.8673
 20
32.5227
 11
39.8768
 21
32.5264
  0
LINE
  8
0
 10
39.8768
 20
32.5264
 11
39.8777
 21
32.5268
  0
LINE
  8
0
 10
39.8777
 20
32.5268
 11
39.9715
 21
32.5905
  0
LINE
  8
0
 10
39.9715
 20
32.5905
 11
39.9864
 21
32.6007
  0
LINE
  8
0
 10
39.9864
 20
32.6007
 11
40.0571
 21
32.6717
  0
LINE
  8
0
 10
40.0571
 20
32.6717
 11
40.0868
 21
32.7015
  0
LINE
  8
0
 10
40.0868
 20
32.7015
 11
40.1339
 21
32.7675
  0
LINE
  8
0
 10
40.1339
 20
32.7675
 11
40.1762
 21
32.8269
  0
LINE
  8
0
 10
40.1762
 20
32.8269
 11
40.2019
 21
32.8761
  0
LINE
  8
0
 10
40.2019
 20
32.8761
 11
40.2527
 21
32.9737
  0
LINE
  8
0
 10
40.2527
 20
32.9737
 11
40.2611
 21
32.9964
  0
LINE
  8
0
 10
40.2611
 20
32.9964
 11
40.2944
 21
33.0853
  0
LINE
  8
0
 10
40.2944
 20
33.0853
 11
40.3106
 21
33.1215
  0
LINE
  8
0
 10
40.3106
 20
33.1215
 11
40.3142
 21
33.1294
  0
LINE
  8
0
 10
40.3142
 20
33.1294
 11
40.3483
 21
33.2419
  0
LINE
  8
0
 10
40.3483
 20
33.2419
 11
40.3592
 21
33.2778
  0
LINE
  8
0
 10
40.3592
 20
33.2778
 11
40.3751
 21
33.3681
  0
LINE
  8
0
 10
40.3751
 20
33.3681
 11
40.3867
 21
33.4341
  0
LINE
  8
0
 10
40.3867
 20
33.4341
 11
40.3904
 21
33.499
  0
LINE
  8
0
 10
40.3904
 20
33.499
 11
40.3959
 21
33.5942
  0
LINE
  8
0
 10
40.3959
 20
33.5942
 11
40.3959
 21
40
  0
LINE
  8
0
 10
40.3959
 20
40
 11
41.8959
 21
41.5
  0
LINE
  8
0
 10
41.8959
 20
41.5
 11
47
 21
41.5
  0
LINE
  8
0
 10
47
 20
41.5
 11
47.5
 21
42
  0
LINE
  8
0
 10
47.5
 20
42
 11
47.5
 21
45.5
  0
LINE
  8
0
 10
47.5
 20
45.5
 11
36.5
 21
45.5
  0
LINE
  8
0
 10
36.5
 20
45.5
 11
36.5
 21
32.4499
  0
ENDSEC
  0
SECTION
  2
OBJECTS
  0
DICTIONARY
  0
ENDSEC
  0
EOF
