  0
SECTION
  2
BLOCKS
  0
ENDSEC
  0
SECTION
  2
ENTITIES
  0
LINE
  8
0
 10
0
 20
0
 11
11
 21
0
  0
LINE
  8
0
 10
11
 20
0
 11
11
 21
12.3776
  0
LINE
  8
0
 10
11
 20
12.3776
 11
7.85409
 21
12.3776
  0
LINE
  8
0
 10
7.85409
 20
12.3776
 11
7.76614
 21
12.3629
  0
LINE
  8
0
 10
7.76614
 20
12.3629
 11
7.73676
 21
12.358
  0
LINE
  8
0
 10
7.73676
 20
12.358
 11
7.63796
 21
12.3075
  0
LINE
  8
0
 10
7.63796
 20
12.3075
 11
7.62232
 21
12.2996
  0
LINE
  8
0
 10
7.62232
 20
12.2996
 11
7.55528
 21
12.2405
  0
LINE
  8
0
 10
7.55528
 20
12.2405
 11
7.51359
 21
12.2122
  0
LINE
  8
0
 10
7.51359
 20
12.2122
 11
7.50676
 21
12.2053
  0
LINE
  8
0
 10
7.50676
 20
12.2053
 11
7.41325
 21
12.1113
  0
LINE
  8
0
 10
7.41325
 20
12.1113
 11
7.3848
 21
12.0714
  0
LINE
  8
0
 10
7.3848
 20
12.0714
 11
7.32376
 21
11.9859
  0
LINE
  8
0
 10
7.32376
 20
11.9859
 11
7.27542
 21
11.8931
  0
LINE
  8
0
 10
7.27542
 20
11.8931
 11
7.24732
 21
11.8391
  0
LINE
  8
0
 10
7.24732
 20
11.8391
 11
7.18628
 21
11.6757
  0
LINE
  8
0
 10
7.18628
 20
11.6757
 11
7.18583
 21
11.6745
  0
LINE
  8
0
 10
7.18583
 20
11.6745
 11
7.18498
 21
11.6712
  0
LINE
  8
0
 10
7.18498
 20
11.6712
 11
7.14079
 21
11.5255
  0
LINE
  8
0
 10
7.14079
 20
11.5255
 11
7.13337
 21
11.4833
  0
LINE
  8
0
 10
7.13337
 20
11.4833
 11
7.11332
 21
11.3693
  0
LINE
  8
0
 10
7.11332
 20
11.3693
 11
7.10836
 21
11.2832
  0
LINE
  8
0
 10
7.10836
 20
11.2832
 11
7.10409
 21
11.2091
  0
LINE
  8
0
 10
7.10409
 20
11.2091
 11
7.10409
 21
5.5
  0
LINE
  8
0
 10
7.10409
 20
5.5
 11
5.60409
 21
4
  0
LINE
  8
0
 10
5.60409
 20
4
 11
0.499999
 21
4
  0
LINE
  8
0
 10
0.499999
 20
4
 11
0
 21
3.5
  0
LINE
  8
0
 10
0
 20
3.5
 11
0
 21
0
  0
LINE
  8
0
 10
0
 20
42
 11
0.499999
 21
41.5
  0
LINE
  8
0
 10
0.499999
 20
41.5
 11
5.60409
 21
41.5
  0
LINE
  8
0
 10
5.60409
 20
41.5
 11
7.10409
 21
40
  0
LINE
  8
0
 10
7.10409
 20
40
 11
7.10409
 21
33.7586
  0
LINE
  8
0
 10
7.10409
 20
33.7586
 11
7.11303
 21
33.6225
  0
LINE
  8
0
 10
7.11303
 20
33.6225
 11
7.11332
 21
33.6181
  0
LINE
  8
0
 10
7.11332
 20
33.6181
 11
7.11785
 21
33.5956
  0
LINE
  8
0
 10
7.11785
 20
33.5956
 11
7.14079
 21
33.4651
  0
LINE
  8
0
 10
7.14079
 20
33.4651
 11
7.15023
 21
33.434
  0
LINE
  8
0
 10
7.15023
 20
33.434
 11
7.18583
 21
33.3167
  0
LINE
  8
0
 10
7.18583
 20
33.3167
 11
7.21405
 21
33.2538
  0
LINE
  8
0
 10
7.21405
 20
33.2538
 11
7.24732
 21
33.1797
  0
LINE
  8
0
 10
7.24732
 20
33.1797
 11
7.30041
 21
33.0948
  0
LINE
  8
0
 10
7.30041
 20
33.0948
 11
7.32376
 21
33.0575
  0
LINE
  8
0
 10
7.32376
 20
33.0575
 11
7.40449
 21
32.9633
  0
LINE
  8
0
 10
7.40449
 20
32.9633
 11
7.41325
 21
32.9531
  0
LINE
  8
0
 10
7.41325
 20
32.9531
 11
7.47165
 21
32.9043
  0
LINE
  8
0
 10
7.47165
 20
32.9043
 11
7.51359
 21
32.8621
  0
LINE
  8
0
 10
7.51359
 20
32.8621
 11
7.52296
 21
32.8558
  0
LINE
  8
0
 10
7.52296
 20
32.8558
 11
7.62232
 21
32.7882
  0
LINE
  8
0
 10
7.62232
 20
32.7882
 11
7.64826
 21
32.778
  0
LINE
  8
0
 10
7.64826
 20
32.778
 11
7.73676
 21
32.7432
  0
LINE
  8
0
 10
7.73676
 20
32.7432
 11
7.77177
 21
32.7387
  0
LINE
  8
0
 10
7.77177
 20
32.7387
 11
7.85409
 21
32.728
  0
LINE
  8
0
 10
7.85409
 20
32.728
 11
11
 21
32.728
  0
LINE
  8
0
 10
11
 20
32.728
 11
11
 21
45.5
  0
LINE
  8
0
 10
11
 20
45.5
 11
0
 21
45.5
  0
LINE
  8
0
 10
0
 20
45.5
 11
0
 21
42
  0
LINE
  8
0
 10
7.10409
 20
16.0747
 11
7.11314
 21
15.9063
  0
LINE
  8
0
 10
7.11314
 20
15.9063
 11
7.11332
 21
15.903
  0
LINE
  8
0
 10
7.11332
 20
15.903
 11
7.14061
 21
15.7367
  0
LINE
  8
0
 10
7.14061
 20
15.7367
 11
7.14079
 21
15.7356
  0
LINE
  8
0
 10
7.14079
 20
15.7356
 11
7.16615
 21
15.646
  0
LINE
  8
0
 10
7.16615
 20
15.646
 11
7.18181
 21
15.5853
  0
LINE
  8
0
 10
7.18181
 20
15.5853
 11
7.18583
 21
15.5697
  0
LINE
  8
0
 10
7.18583
 20
15.5697
 11
7.22946
 21
15.4554
  0
LINE
  8
0
 10
7.22946
 20
15.4554
 11
7.24732
 21
15.4086
  0
LINE
  8
0
 10
7.24732
 20
15.4086
 11
7.28628
 21
15.3354
  0
LINE
  8
0
 10
7.28628
 20
15.3354
 11
7.32376
 21
15.265
  0
LINE
  8
0
 10
7.32376
 20
15.265
 11
7.35199
 21
15.2263
  0
LINE
  8
0
 10
7.35199
 20
15.2263
 11
7.41325
 21
15.1423
  0
LINE
  8
0
 10
7.41325
 20
15.1423
 11
7.42658
 21
15.1292
  0
LINE
  8
0
 10
7.42658
 20
15.1292
 11
7.49551
 21
15.0614
  0
LINE
  8
0
 10
7.49551
 20
15.0614
 11
7.51006
 21
15.043
  0
LINE
  8
0
 10
7.51006
 20
15.043
 11
7.51359
 21
15.0385
  0
LINE
  8
0
 10
7.51359
 20
15.0385
 11
7.60147
 21
14.9635
  0
LINE
  8
0
 10
7.60147
 20
14.9635
 11
7.62232
 21
14.9457
  0
LINE
  8
0
 10
7.62232
 20
14.9457
 11
7.70142
 21
14.9065
  0
LINE
  8
0
 10
7.70142
 20
14.9065
 11
7.73676
 21
14.889
  0
LINE
  8
0
 10
7.73676
 20
14.889
 11
7.81049
 21
14.877
  0
LINE
  8
0
 10
7.81049
 20
14.877
 11
7.85409
 21
14.87
  0
LINE
  8
0
 10
7.85409
 20
14.87
 11
11
 21
14.87
  0
LINE
  8
0
 10
11
 20
14.87
 11
11
 21
18.6114
  0
LINE
  8
0
 10
11
 20
18.6114
 11
7.85409
 21
18.6114
  0
LINE
  8
0
 10
7.85409
 20
18.6114
 11
7.73676
 21
18.5979
  0
LINE
  8
0
 10
7.73676
 20
18.5979
 11
7.66033
 21
18.5711
  0
LINE
  8
0
 10
7.66033
 20
18.5711
 11
7.62232
 21
18.5577
  0
LINE
  8
0
 10
7.62232
 20
18.5577
 11
7.54947
 21
18.5136
  0
LINE
  8
0
 10
7.54947
 20
18.5136
 11
7.51359
 21
18.4918
  0
LINE
  8
0
 10
7.51359
 20
18.4918
 11
7.44606
 21
18.4313
  0
LINE
  8
0
 10
7.44606
 20
18.4313
 11
7.41325
 21
18.4018
  0
LINE
  8
0
 10
7.41325
 20
18.4018
 11
7.35268
 21
18.3262
  0
LINE
  8
0
 10
7.35268
 20
18.3262
 11
7.32376
 21
18.29
  0
LINE
  8
0
 10
7.32376
 20
18.29
 11
7.27167
 21
18.2008
  0
LINE
  8
0
 10
7.27167
 20
18.2008
 11
7.24732
 21
18.1591
  0
LINE
  8
0
 10
7.24732
 20
18.1591
 11
7.2051
 21
18.0583
  0
LINE
  8
0
 10
7.2051
 20
18.0583
 11
7.18583
 21
18.0123
  0
LINE
  8
0
 10
7.18583
 20
18.0123
 11
7.15465
 21
17.9021
  0
LINE
  8
0
 10
7.15465
 20
17.9021
 11
7.14079
 21
17.8532
  0
LINE
  8
0
 10
7.14079
 20
17.8532
 11
7.12161
 21
17.7362
  0
LINE
  8
0
 10
7.12161
 20
17.7362
 11
7.11332
 21
17.6857
  0
LINE
  8
0
 10
7.11332
 20
17.6857
 11
7.10681
 21
17.5648
  0
LINE
  8
0
 10
7.10681
 20
17.5648
 11
7.10409
 21
17.5141
  0
LINE
  8
0
 10
7.10409
 20
17.5141
 11
7.10409
 21
16.0747
  0
LINE
  8
0
 10
7.10409
 20
27.0246
 11
7.10743
 21
26.9626
  0
LINE
  8
0
 10
7.10743
 20
26.9626
 11
7.11332
 21
26.853
  0
LINE
  8
0
 10
7.11332
 20
26.853
 11
7.12343
 21
26.7914
  0
LINE
  8
0
 10
7.12343
 20
26.7914
 11
7.14079
 21
26.6855
  0
LINE
  8
0
 10
7.14079
 20
26.6855
 11
7.15763
 21
26.6261
  0
LINE
  8
0
 10
7.15763
 20
26.6261
 11
7.18583
 21
26.5265
  0
LINE
  8
0
 10
7.18583
 20
26.5265
 11
7.20917
 21
26.4707
  0
LINE
  8
0
 10
7.20917
 20
26.4707
 11
7.24732
 21
26.3796
  0
LINE
  8
0
 10
7.24732
 20
26.3796
 11
7.27673
 21
26.3292
  0
LINE
  8
0
 10
7.27673
 20
26.3292
 11
7.32376
 21
26.2487
  0
LINE
  8
0
 10
7.32376
 20
26.2487
 11
7.41325
 21
26.1369
  0
LINE
  8
0
 10
7.41325
 20
26.1369
 11
7.51359
 21
26.0469
  0
LINE
  8
0
 10
7.51359
 20
26.0469
 11
7.55665
 21
26.0208
  0
LINE
  8
0
 10
7.55665
 20
26.0208
 11
7.62232
 21
25.981
  0
LINE
  8
0
 10
7.62232
 20
25.981
 11
7.66787
 21
25.965
  0
LINE
  8
0
 10
7.66787
 20
25.965
 11
7.73676
 21
25.9408
  0
LINE
  8
0
 10
7.73676
 20
25.9408
 11
7.85409
 21
25.9273
  0
LINE
  8
0
 10
7.85409
 20
25.9273
 11
11
 21
25.9273
  0
LINE
  8
0
 10
11
 20
25.9273
 11
11
 21
29.5825
  0
LINE
  8
0
 10
11
 20
29.5825
 11
7.85409
 21
29.5825
  0
LINE
  8
0
 10
7.85409
 20
29.5825
 11
7.80603
 21
29.5764
  0
LINE
  8
0
 10
7.80603
 20
29.5764
 11
7.73676
 21
29.5676
  0
LINE
  8
0
 10
7.73676
 20
29.5676
 11
7.69534
 21
29.5517
  0
LINE
  8
0
 10
7.69534
 20
29.5517
 11
7.62232
 21
29.5235
  0
LINE
  8
0
 10
7.62232
 20
29.5235
 11
7.5926
 21
29.5038
  0
LINE
  8
0
 10
7.5926
 20
29.5038
 11
7.51359
 21
29.4512
  0
LINE
  8
0
 10
7.51359
 20
29.4512
 11
7.49819
 21
29.4361
  0
LINE
  8
0
 10
7.49819
 20
29.4361
 11
7.41325
 21
29.3525
  0
LINE
  8
0
 10
7.41325
 20
29.3525
 11
7.41229
 21
29.3512
  0
LINE
  8
0
 10
7.41229
 20
29.3512
 11
7.40749
 21
29.3446
  0
LINE
  8
0
 10
7.40749
 20
29.3446
 11
7.32376
 21
29.24
  0
LINE
  8
0
 10
7.32376
 20
29.24
 11
7.24732
 21
29.1091
  0
LINE
  8
0
 10
7.24732
 20
29.1091
 11
7.24626
 21
29.1065
  0
LINE
  8
0
 10
7.24626
 20
29.1065
 11
7.18583
 21
28.9622
  0
LINE
  8
0
 10
7.18583
 20
28.9622
 11
7.14079
 21
28.8031
  0
LINE
  8
0
 10
7.14079
 20
28.8031
 11
7.1397
 21
28.7964
  0
LINE
  8
0
 10
7.1397
 20
28.7964
 11
7.11332
 21
28.6357
  0
LINE
  8
0
 10
7.11332
 20
28.6357
 11
7.11284
 21
28.6267
  0
LINE
  8
0
 10
7.11284
 20
28.6267
 11
7.10409
 21
28.464
  0
LINE
  8
0
 10
7.10409
 20
28.464
 11
7.10409
 21
27.0246
  0
LINE
  8
0
 10
36.5
 20
0
 11
47.5
 21
0
  0
LINE
  8
0
 10
47.5
 20
0
 11
47.5
 21
3.5
  0
LINE
  8
0
 10
47.5
 20
3.5
 11
47
 21
4
  0
LINE
  8
0
 10
47
 20
4
 11
41.8959
 21
4
  0
LINE
  8
0
 10
41.8959
 20
4
 11
40.3959
 21
5.5
  0
LINE
  8
0
 10
40.3959
 20
5.5
 11
40.3959
 21
11.2091
  0
LINE
  8
0
 10
40.3959
 20
11.2091
 11
40.3909
 21
11.2956
  0
LINE
  8
0
 10
40.3909
 20
11.2956
 11
40.3867
 21
11.3693
  0
LINE
  8
0
 10
40.3867
 20
11.3693
 11
40.3766
 21
11.4264
  0
LINE
  8
0
 10
40.3766
 20
11.4264
 11
40.3592
 21
11.5255
  0
LINE
  8
0
 10
40.3592
 20
11.5255
 11
40.3509
 21
11.5527
  0
LINE
  8
0
 10
40.3509
 20
11.5527
 11
40.315
 21
11.6712
  0
LINE
  8
0
 10
40.315
 20
11.6712
 11
40.3143
 21
11.6738
  0
LINE
  8
0
 10
40.3143
 20
11.6738
 11
40.3142
 21
11.6745
  0
LINE
  8
0
 10
40.3142
 20
11.6745
 11
40.2654
 21
11.805
  0
LINE
  8
0
 10
40.2654
 20
11.805
 11
40.2527
 21
11.8391
  0
LINE
  8
0
 10
40.2527
 20
11.8391
 11
40.2075
 21
11.926
  0
LINE
  8
0
 10
40.2075
 20
11.926
 11
40.1762
 21
11.9859
  0
LINE
  8
0
 10
40.1762
 20
11.9859
 11
40.1408
 21
12.0356
  0
LINE
  8
0
 10
40.1408
 20
12.0356
 11
40.0868
 21
12.1113
  0
LINE
  8
0
 10
40.0868
 20
12.1113
 11
40.0653
 21
12.1328
  0
LINE
  8
0
 10
40.0653
 20
12.1328
 11
39.9864
 21
12.2122
  0
LINE
  8
0
 10
39.9864
 20
12.2122
 11
39.981
 21
12.2158
  0
LINE
  8
0
 10
39.981
 20
12.2158
 11
39.9447
 21
12.2405
  0
LINE
  8
0
 10
39.9447
 20
12.2405
 11
39.8884
 21
12.2901
  0
LINE
  8
0
 10
39.8884
 20
12.2901
 11
39.8777
 21
12.2996
  0
LINE
  8
0
 10
39.8777
 20
12.2996
 11
39.7875
 21
12.3456
  0
LINE
  8
0
 10
39.7875
 20
12.3456
 11
39.7632
 21
12.358
  0
LINE
  8
0
 10
39.7632
 20
12.358
 11
39.6774
 21
12.3724
  0
LINE
  8
0
 10
39.6774
 20
12.3724
 11
39.6459
 21
12.3776
  0
LINE
  8
0
 10
39.6459
 20
12.3776
 11
36.5
 21
12.3776
  0
LINE
  8
0
 10
36.5
 20
12.3776
 11
36.5
 21
0
  0
LINE
  8
0
 10
36.5
 20
14.87
 11
39.6459
 21
14.87
  0
LINE
  8
0
 10
39.6459
 20
14.87
 11
39.7207
 21
14.8821
  0
LINE
  8
0
 10
39.7207
 20
14.8821
 11
39.7632
 21
14.889
  0
LINE
  8
0
 10
39.7632
 20
14.889
 11
39.8475
 21
14.9307
  0
LINE
  8
0
 10
39.8475
 20
14.9307
 11
39.8777
 21
14.9457
  0
LINE
  8
0
 10
39.8777
 20
14.9457
 11
39.9803
 21
15.0333
  0
LINE
  8
0
 10
39.9803
 20
15.0333
 11
39.9864
 21
15.0385
  0
LINE
  8
0
 10
39.9864
 20
15.0385
 11
40.0045
 21
15.0614
  0
LINE
  8
0
 10
40.0045
 20
15.0614
 11
40.0868
 21
15.1423
  0
LINE
  8
0
 10
40.0868
 20
15.1423
 11
40.1042
 21
15.1662
  0
LINE
  8
0
 10
40.1042
 20
15.1662
 11
40.1762
 21
15.265
  0
LINE
  8
0
 10
40.1762
 20
15.265
 11
40.214
 21
15.336
  0
LINE
  8
0
 10
40.214
 20
15.336
 11
40.2527
 21
15.4086
  0
LINE
  8
0
 10
40.2527
 20
15.4086
 11
40.3042
 21
15.5437
  0
LINE
  8
0
 10
40.3042
 20
15.5437
 11
40.3142
 21
15.5697
  0
LINE
  8
0
 10
40.3142
 20
15.5697
 11
40.3338
 21
15.646
  0
LINE
  8
0
 10
40.3338
 20
15.646
 11
40.3589
 21
15.7345
  0
LINE
  8
0
 10
40.3589
 20
15.7345
 11
40.3592
 21
15.7356
  0
LINE
  8
0
 10
40.3592
 20
15.7356
 11
40.3862
 21
15.8999
  0
LINE
  8
0
 10
40.3862
 20
15.8999
 11
40.3867
 21
15.903
  0
LINE
  8
0
 10
40.3867
 20
15.903
 11
40.3956
 21
16.0694
  0
LINE
  8
0
 10
40.3956
 20
16.0694
 11
40.3959
 21
16.0747
  0
LINE
  8
0
 10
40.3959
 20
16.0747
 11
40.3959
 21
17.5141
  0
LINE
  8
0
 10
40.3959
 20
17.5141
 11
40.3894
 21
17.6346
  0
LINE
  8
0
 10
40.3894
 20
17.6346
 11
40.3867
 21
17.6857
  0
LINE
  8
0
 10
40.3867
 20
17.6857
 11
40.3676
 21
17.8023
  0
LINE
  8
0
 10
40.3676
 20
17.8023
 11
40.3592
 21
17.8532
  0
LINE
  8
0
 10
40.3592
 20
17.8532
 11
40.3281
 21
17.963
  0
LINE
  8
0
 10
40.3281
 20
17.963
 11
40.3142
 21
18.0123
  0
LINE
  8
0
 10
40.3142
 20
18.0123
 11
40.2721
 21
18.1128
  0
LINE
  8
0
 10
40.2721
 20
18.1128
 11
40.2527
 21
18.1591
  0
LINE
  8
0
 10
40.2527
 20
18.1591
 11
40.2007
 21
18.2481
  0
LINE
  8
0
 10
40.2007
 20
18.2481
 11
40.1762
 21
18.29
  0
LINE
  8
0
 10
40.1762
 20
18.29
 11
40.1158
 21
18.3655
  0
LINE
  8
0
 10
40.1158
 20
18.3655
 11
40.0868
 21
18.4018
  0
LINE
  8
0
 10
40.0868
 20
18.4018
 11
40.0193
 21
18.4623
  0
LINE
  8
0
 10
40.0193
 20
18.4623
 11
39.9864
 21
18.4918
  0
LINE
  8
0
 10
39.9864
 20
18.4918
 11
39.9136
 21
18.5359
  0
LINE
  8
0
 10
39.9136
 20
18.5359
 11
39.8777
 21
18.5577
  0
LINE
  8
0
 10
39.8777
 20
18.5577
 11
39.8013
 21
18.5845
  0
LINE
  8
0
 10
39.8013
 20
18.5845
 11
39.7632
 21
18.5979
  0
LINE
  8
0
 10
39.7632
 20
18.5979
 11
39.6459
 21
18.6114
  0
LINE
  8
0
 10
39.6459
 20
18.6114
 11
36.5
 21
18.6114
  0
LINE
  8
0
 10
36.5
 20
18.6114
 11
36.5
 21
14.87
  0
LINE
  8
0
 10
36.5
 20
25.9273
 11
39.6459
 21
25.9273
  0
LINE
  8
0
 10
39.6459
 20
25.9273
 11
39.7632
 21
25.9408
  0
LINE
  8
0
 10
39.7632
 20
25.9408
 11
39.8088
 21
25.9568
  0
LINE
  8
0
 10
39.8088
 20
25.9568
 11
39.8777
 21
25.981
  0
LINE
  8
0
 10
39.8777
 20
25.981
 11
39.9208
 21
26.0071
  0
LINE
  8
0
 10
39.9208
 20
26.0071
 11
39.9864
 21
26.0469
  0
LINE
  8
0
 10
39.9864
 20
26.0469
 11
40.0868
 21
26.1369
  0
LINE
  8
0
 10
40.0868
 20
26.1369
 11
40.1762
 21
26.2487
  0
LINE
  8
0
 10
40.1762
 20
26.2487
 11
40.2057
 21
26.2992
  0
LINE
  8
0
 10
40.2057
 20
26.2992
 11
40.2527
 21
26.3796
  0
LINE
  8
0
 10
40.2527
 20
26.3796
 11
40.2761
 21
26.4355
  0
LINE
  8
0
 10
40.2761
 20
26.4355
 11
40.3142
 21
26.5265
  0
LINE
  8
0
 10
40.3142
 20
26.5265
 11
40.3311
 21
26.5862
  0
LINE
  8
0
 10
40.3311
 20
26.5862
 11
40.3592
 21
26.6855
  0
LINE
  8
0
 10
40.3592
 20
26.6855
 11
40.3694
 21
26.7474
  0
LINE
  8
0
 10
40.3694
 20
26.7474
 11
40.3867
 21
26.853
  0
LINE
  8
0
 10
40.3867
 20
26.853
 11
40.39
 21
26.9154
  0
LINE
  8
0
 10
40.39
 20
26.9154
 11
40.3959
 21
27.0246
  0
LINE
  8
0
 10
40.3959
 20
27.0246
 11
40.3959
 21
28.464
  0
LINE
  8
0
 10
40.3959
 20
28.464
 11
40.3953
 21
28.4749
  0
LINE
  8
0
 10
40.3953
 20
28.4749
 11
40.3867
 21
28.6357
  0
LINE
  8
0
 10
40.3867
 20
28.6357
 11
40.3853
 21
28.6443
  0
LINE
  8
0
 10
40.3853
 20
28.6443
 11
40.3592
 21
28.8031
  0
LINE
  8
0
 10
40.3592
 20
28.8031
 11
40.3142
 21
28.9622
  0
LINE
  8
0
 10
40.3142
 20
28.9622
 11
40.3125
 21
28.9663
  0
LINE
  8
0
 10
40.3125
 20
28.9663
 11
40.2527
 21
29.1091
  0
LINE
  8
0
 10
40.2527
 20
29.1091
 11
40.1762
 21
29.24
  0
LINE
  8
0
 10
40.1762
 20
29.24
 11
40.1756
 21
29.2408
  0
LINE
  8
0
 10
40.1756
 20
29.2408
 11
40.0925
 21
29.3446
  0
LINE
  8
0
 10
40.0925
 20
29.3446
 11
40.0868
 21
29.3525
  0
LINE
  8
0
 10
40.0868
 20
29.3525
 11
40.0851
 21
29.3541
  0
LINE
  8
0
 10
40.0851
 20
29.3541
 11
39.9864
 21
29.4512
  0
LINE
  8
0
 10
39.9864
 20
29.4512
 11
39.9632
 21
29.4667
  0
LINE
  8
0
 10
39.9632
 20
29.4667
 11
39.8777
 21
29.5235
  0
LINE
  8
0
 10
39.8777
 20
29.5235
 11
39.8384
 21
29.5387
  0
LINE
  8
0
 10
39.8384
 20
29.5387
 11
39.7632
 21
29.5676
  0
LINE
  8
0
 10
39.7632
 20
29.5676
 11
39.7156
 21
29.5737
  0
LINE
  8
0
 10
39.7156
 20
29.5737
 11
39.6459
 21
29.5825
  0
LINE
  8
0
 10
39.6459
 20
29.5825
 11
36.5
 21
29.5825
  0
LINE
  8
0
 10
36.5
 20
29.5825
 11
36.5
 21
25.9273
  0
LINE
  8
0
 10
36.5
 20
32.728
 11
39.6459
 21
32.728
  0
LINE
  8
0
 10
39.6459
 20
32.728
 11
39.682
 21
32.7327
  0
LINE
  8
0
 10
39.682
 20
32.7327
 11
39.7632
 21
32.7432
  0
LINE
  8
0
 10
39.7632
 20
32.7432
 11
39.7935
 21
32.7551
  0
LINE
  8
0
 10
39.7935
 20
32.7551
 11
39.8777
 21
32.7882
  0
LINE
  8
0
 10
39.8777
 20
32.7882
 11
39.8972
 21
32.8015
  0
LINE
  8
0
 10
39.8972
 20
32.8015
 11
39.9864
 21
32.8621
  0
LINE
  8
0
 10
39.9864
 20
32.8621
 11
39.9926
 21
32.8683
  0
LINE
  8
0
 10
39.9926
 20
32.8683
 11
40.0283
 21
32.9043
  0
LINE
  8
0
 10
40.0283
 20
32.9043
 11
40.0793
 21
32.9469
  0
LINE
  8
0
 10
40.0793
 20
32.9469
 11
40.0868
 21
32.9531
  0
LINE
  8
0
 10
40.0868
 20
32.9531
 11
40.1564
 21
33.0344
  0
LINE
  8
0
 10
40.1564
 20
33.0344
 11
40.1762
 21
33.0575
  0
LINE
  8
0
 10
40.1762
 20
33.0575
 11
40.2237
 21
33.1333
  0
LINE
  8
0
 10
40.2237
 20
33.1333
 11
40.2527
 21
33.1797
  0
LINE
  8
0
 10
40.2527
 20
33.1797
 11
40.2808
 21
33.2424
  0
LINE
  8
0
 10
40.2808
 20
33.2424
 11
40.3142
 21
33.3167
  0
LINE
  8
0
 10
40.3142
 20
33.3167
 11
40.3274
 21
33.3603
  0
LINE
  8
0
 10
40.3274
 20
33.3603
 11
40.3592
 21
33.4651
  0
LINE
  8
0
 10
40.3592
 20
33.4651
 11
40.3628
 21
33.4857
  0
LINE
  8
0
 10
40.3628
 20
33.4857
 11
40.3821
 21
33.5956
  0
LINE
  8
0
 10
40.3821
 20
33.5956
 11
40.386
 21
33.6148
  0
LINE
  8
0
 10
40.386
 20
33.6148
 11
40.3867
 21
33.6181
  0
LINE
  8
0
 10
40.3867
 20
33.6181
 11
40.3944
 21
33.735
  0
LINE
  8
0
 10
40.3944
 20
33.735
 11
40.3959
 21
33.7586
  0
LINE
  8
0
 10
40.3959
 20
33.7586
 11
40.3959
 21
40
  0
LINE
  8
0
 10
40.3959
 20
40
 11
41.8959
 21
41.5
  0
LINE
  8
0
 10
41.8959
 20
41.5
 11
47
 21
41.5
  0
LINE
  8
0
 10
47
 20
41.5
 11
47.5
 21
42
  0
LINE
  8
0
 10
47.5
 20
42
 11
47.5
 21
45.5
  0
LINE
  8
0
 10
47.5
 20
45.5
 11
36.5
 21
45.5
  0
LINE
  8
0
 10
36.5
 20
45.5
 11
36.5
 21
32.728
  0
ENDSEC
  0
SECTION
  2
OBJECTS
  0
DICTIONARY
  0
ENDSEC
  0
EOF
