  0
SECTION
  2
BLOCKS
  0
ENDSEC
  0
SECTION
  2
ENTITIES
  0
LINE
  8
0
 10
0
 20
0
 11
11
 21
0
  0
LINE
  8
0
 10
11
 20
0
 11
11
 21
12.8222
  0
LINE
  8
0
 10
11
 20
12.8222
 11
7.85409
 21
12.8222
  0
LINE
  8
0
 10
7.85409
 20
12.8222
 11
7.78697
 21
12.8056
  0
LINE
  8
0
 10
7.78697
 20
12.8056
 11
7.73676
 21
12.7932
  0
LINE
  8
0
 10
7.73676
 20
12.7932
 11
7.65156
 21
12.7288
  0
LINE
  8
0
 10
7.65156
 20
12.7288
 11
7.62232
 21
12.7067
  0
LINE
  8
0
 10
7.62232
 20
12.7067
 11
7.5512
 21
12.614
  0
LINE
  8
0
 10
7.5512
 20
12.614
 11
7.51359
 21
12.5809
  0
LINE
  8
0
 10
7.51359
 20
12.5809
 11
7.50389
 21
12.5682
  0
LINE
  8
0
 10
7.50389
 20
12.5682
 11
7.41325
 21
12.4501
  0
LINE
  8
0
 10
7.41325
 20
12.4501
 11
7.36803
 21
12.3679
  0
LINE
  8
0
 10
7.36803
 20
12.3679
 11
7.32376
 21
12.2875
  0
LINE
  8
0
 10
7.32376
 20
12.2875
 11
7.25337
 21
12.1122
  0
LINE
  8
0
 10
7.25337
 20
12.1122
 11
7.24732
 21
12.1006
  0
LINE
  8
0
 10
7.24732
 20
12.1006
 11
7.24556
 21
12.0959
  0
LINE
  8
0
 10
7.24556
 20
12.0959
 11
7.18583
 21
11.936
  0
LINE
  8
0
 10
7.18583
 20
11.936
 11
7.16656
 21
11.8597
  0
LINE
  8
0
 10
7.16656
 20
11.8597
 11
7.14079
 21
11.7576
  0
LINE
  8
0
 10
7.14079
 20
11.7576
 11
7.11787
 21
11.601
  0
LINE
  8
0
 10
7.11787
 20
11.601
 11
7.11332
 21
11.5699
  0
LINE
  8
0
 10
7.11332
 20
11.5699
 11
7.10949
 21
11.4901
  0
LINE
  8
0
 10
7.10949
 20
11.4901
 11
7.10409
 21
11.3964
  0
LINE
  8
0
 10
7.10409
 20
11.3964
 11
7.10409
 21
5.5
  0
LINE
  8
0
 10
7.10409
 20
5.5
 11
5.60409
 21
4
  0
LINE
  8
0
 10
5.60409
 20
4
 11
0.499999
 21
4
  0
LINE
  8
0
 10
0.499999
 20
4
 11
0
 21
3.5
  0
LINE
  8
0
 10
0
 20
3.5
 11
0
 21
0
  0
LINE
  8
0
 10
0
 20
42
 11
0.499999
 21
41.5
  0
LINE
  8
0
 10
0.499999
 20
41.5
 11
5.60409
 21
41.5
  0
LINE
  8
0
 10
5.60409
 20
41.5
 11
7.10409
 21
40
  0
LINE
  8
0
 10
7.10409
 20
40
 11
7.10409
 21
33.8917
  0
LINE
  8
0
 10
7.10409
 20
33.8917
 11
7.10809
 21
33.8307
  0
LINE
  8
0
 10
7.10809
 20
33.8307
 11
7.11332
 21
33.7512
  0
LINE
  8
0
 10
7.11332
 20
33.7512
 11
7.13005
 21
33.6678
  0
LINE
  8
0
 10
7.13005
 20
33.6678
 11
7.14079
 21
33.6142
  0
LINE
  8
0
 10
7.14079
 20
33.6142
 11
7.17635
 21
33.5115
  0
LINE
  8
0
 10
7.17635
 20
33.5115
 11
7.18583
 21
33.4841
  0
LINE
  8
0
 10
7.18583
 20
33.4841
 11
7.24535
 21
33.3678
  0
LINE
  8
0
 10
7.24535
 20
33.3678
 11
7.24732
 21
33.364
  0
LINE
  8
0
 10
7.24732
 20
33.364
 11
7.26227
 21
33.343
  0
LINE
  8
0
 10
7.26227
 20
33.343
 11
7.32376
 21
33.2447
  0
LINE
  8
0
 10
7.32376
 20
33.2447
 11
7.3385
 21
33.2275
  0
LINE
  8
0
 10
7.3385
 20
33.2275
 11
7.41325
 21
33.1404
  0
LINE
  8
0
 10
7.41325
 20
33.1404
 11
7.44711
 21
33.1121
  0
LINE
  8
0
 10
7.44711
 20
33.1121
 11
7.51359
 21
33.0564
  0
LINE
  8
0
 10
7.51359
 20
33.0564
 11
7.56459
 21
33.0276
  0
LINE
  8
0
 10
7.56459
 20
33.0276
 11
7.62232
 21
32.995
  0
LINE
  8
0
 10
7.62232
 20
32.995
 11
7.68578
 21
32.9742
  0
LINE
  8
0
 10
7.68578
 20
32.9742
 11
7.73676
 21
32.9575
  0
LINE
  8
0
 10
7.73676
 20
32.9575
 11
7.80634
 21
32.95
  0
LINE
  8
0
 10
7.80634
 20
32.95
 11
7.85409
 21
32.9448
  0
LINE
  8
0
 10
7.85409
 20
32.9448
 11
11
 21
32.9448
  0
LINE
  8
0
 10
11
 20
32.9448
 11
11
 21
45.5
  0
LINE
  8
0
 10
11
 20
45.5
 11
0
 21
45.5
  0
LINE
  8
0
 10
0
 20
45.5
 11
0
 21
42
  0
LINE
  8
0
 10
7.10409
 20
15.861
 11
7.10558
 21
15.8332
  0
LINE
  8
0
 10
7.10558
 20
15.8332
 11
7.11174
 21
15.7077
  0
LINE
  8
0
 10
7.11174
 20
15.7077
 11
7.11332
 21
15.6754
  0
LINE
  8
0
 10
7.11332
 20
15.6754
 11
7.13025
 21
15.5622
  0
LINE
  8
0
 10
7.13025
 20
15.5622
 11
7.14079
 21
15.4917
  0
LINE
  8
0
 10
7.14079
 20
15.4917
 11
7.15865
 21
15.4225
  0
LINE
  8
0
 10
7.15865
 20
15.4225
 11
7.18583
 21
15.3172
  0
LINE
  8
0
 10
7.18583
 20
15.3172
 11
7.19636
 21
15.2896
  0
LINE
  8
0
 10
7.19636
 20
15.2896
 11
7.23268
 21
15.1945
  0
LINE
  8
0
 10
7.23268
 20
15.1945
 11
7.24345
 21
15.1582
  0
LINE
  8
0
 10
7.24345
 20
15.1582
 11
7.24732
 21
15.1452
  0
LINE
  8
0
 10
7.24732
 20
15.1452
 11
7.29961
 21
15.019
  0
LINE
  8
0
 10
7.29961
 20
15.019
 11
7.32376
 21
14.9607
  0
LINE
  8
0
 10
7.32376
 20
14.9607
 11
7.36287
 21
14.8918
  0
LINE
  8
0
 10
7.36287
 20
14.8918
 11
7.41325
 21
14.8031
  0
LINE
  8
0
 10
7.41325
 20
14.8031
 11
7.43352
 21
14.7774
  0
LINE
  8
0
 10
7.43352
 20
14.7774
 11
7.50799
 21
14.6834
  0
LINE
  8
0
 10
7.50799
 20
14.6834
 11
7.51203
 21
14.6759
  0
LINE
  8
0
 10
7.51203
 20
14.6759
 11
7.51359
 21
14.6731
  0
LINE
  8
0
 10
7.51359
 20
14.6731
 11
7.59604
 21
14.5707
  0
LINE
  8
0
 10
7.59604
 20
14.5707
 11
7.62232
 21
14.5381
  0
LINE
  8
0
 10
7.62232
 20
14.5381
 11
7.68854
 21
14.4905
  0
LINE
  8
0
 10
7.68854
 20
14.4905
 11
7.73676
 21
14.4558
  0
LINE
  8
0
 10
7.73676
 20
14.4558
 11
7.79175
 21
14.4428
  0
LINE
  8
0
 10
7.79175
 20
14.4428
 11
7.85409
 21
14.4282
  0
LINE
  8
0
 10
7.85409
 20
14.4282
 11
11
 21
14.4282
  0
LINE
  8
0
 10
11
 20
14.4282
 11
11
 21
18.3978
  0
LINE
  8
0
 10
11
 20
18.3978
 11
7.85409
 21
18.3978
  0
LINE
  8
0
 10
7.85409
 20
18.3978
 11
7.73676
 21
18.3843
  0
LINE
  8
0
 10
7.73676
 20
18.3843
 11
7.65865
 21
18.3569
  0
LINE
  8
0
 10
7.65865
 20
18.3569
 11
7.62232
 21
18.3441
  0
LINE
  8
0
 10
7.62232
 20
18.3441
 11
7.54788
 21
18.299
  0
LINE
  8
0
 10
7.54788
 20
18.299
 11
7.51359
 21
18.2782
  0
LINE
  8
0
 10
7.51359
 20
18.2782
 11
7.44459
 21
18.2163
  0
LINE
  8
0
 10
7.44459
 20
18.2163
 11
7.41325
 21
18.1882
  0
LINE
  8
0
 10
7.41325
 20
18.1882
 11
7.35136
 21
18.1109
  0
LINE
  8
0
 10
7.35136
 20
18.1109
 11
7.32376
 21
18.0764
  0
LINE
  8
0
 10
7.32376
 20
18.0764
 11
7.27055
 21
17.9852
  0
LINE
  8
0
 10
7.27055
 20
17.9852
 11
7.24732
 21
17.9455
  0
LINE
  8
0
 10
7.24732
 20
17.9455
 11
7.2042
 21
17.8425
  0
LINE
  8
0
 10
7.2042
 20
17.8425
 11
7.18583
 21
17.7986
  0
LINE
  8
0
 10
7.18583
 20
17.7986
 11
7.15399
 21
17.6861
  0
LINE
  8
0
 10
7.15399
 20
17.6861
 11
7.14079
 21
17.6395
  0
LINE
  8
0
 10
7.14079
 20
17.6395
 11
7.1212
 21
17.5201
  0
LINE
  8
0
 10
7.1212
 20
17.5201
 11
7.11332
 21
17.4721
  0
LINE
  8
0
 10
7.11332
 20
17.4721
 11
7.10668
 21
17.3486
  0
LINE
  8
0
 10
7.10668
 20
17.3486
 11
7.10409
 21
17.3004
  0
LINE
  8
0
 10
7.10409
 20
17.3004
 11
7.10409
 21
15.861
  0
LINE
  8
0
 10
7.10409
 20
26.811
 11
7.10756
 21
26.7464
  0
LINE
  8
0
 10
7.10756
 20
26.7464
 11
7.11332
 21
26.6394
  0
LINE
  8
0
 10
7.11332
 20
26.6394
 11
7.12383
 21
26.5753
  0
LINE
  8
0
 10
7.12383
 20
26.5753
 11
7.14079
 21
26.4719
  0
LINE
  8
0
 10
7.14079
 20
26.4719
 11
7.1583
 21
26.4101
  0
LINE
  8
0
 10
7.1583
 20
26.4101
 11
7.18583
 21
26.3128
  0
LINE
  8
0
 10
7.18583
 20
26.3128
 11
7.21008
 21
26.2549
  0
LINE
  8
0
 10
7.21008
 20
26.2549
 11
7.24732
 21
26.166
  0
LINE
  8
0
 10
7.24732
 20
26.166
 11
7.27785
 21
26.1137
  0
LINE
  8
0
 10
7.27785
 20
26.1137
 11
7.32376
 21
26.0351
  0
LINE
  8
0
 10
7.32376
 20
26.0351
 11
7.41325
 21
25.9232
  0
LINE
  8
0
 10
7.41325
 20
25.9232
 11
7.51359
 21
25.8333
  0
LINE
  8
0
 10
7.51359
 20
25.8333
 11
7.55824
 21
25.8062
  0
LINE
  8
0
 10
7.55824
 20
25.8062
 11
7.62232
 21
25.7674
  0
LINE
  8
0
 10
7.62232
 20
25.7674
 11
7.66955
 21
25.7508
  0
LINE
  8
0
 10
7.66955
 20
25.7508
 11
7.73676
 21
25.7272
  0
LINE
  8
0
 10
7.73676
 20
25.7272
 11
7.85409
 21
25.7136
  0
LINE
  8
0
 10
7.85409
 20
25.7136
 11
11
 21
25.7136
  0
LINE
  8
0
 10
11
 20
25.7136
 11
11
 21
29.3478
  0
LINE
  8
0
 10
11
 20
29.3478
 11
7.85409
 21
29.3478
  0
LINE
  8
0
 10
7.85409
 20
29.3478
 11
7.73676
 21
29.3343
  0
LINE
  8
0
 10
7.73676
 20
29.3343
 11
7.73511
 21
29.3337
  0
LINE
  8
0
 10
7.73511
 20
29.3337
 11
7.62232
 21
29.2941
  0
LINE
  8
0
 10
7.62232
 20
29.2941
 11
7.62043
 21
29.2929
  0
LINE
  8
0
 10
7.62043
 20
29.2929
 11
7.51359
 21
29.2282
  0
LINE
  8
0
 10
7.51359
 20
29.2282
 11
7.51135
 21
29.2262
  0
LINE
  8
0
 10
7.51135
 20
29.2262
 11
7.41325
 21
29.1382
  0
LINE
  8
0
 10
7.41325
 20
29.1382
 11
7.32376
 21
29.0264
  0
LINE
  8
0
 10
7.32376
 20
29.0264
 11
7.24732
 21
28.8954
  0
LINE
  8
0
 10
7.24732
 20
28.8954
 11
7.24444
 21
28.8885
  0
LINE
  8
0
 10
7.24444
 20
28.8885
 11
7.18583
 21
28.7486
  0
LINE
  8
0
 10
7.18583
 20
28.7486
 11
7.14079
 21
28.5895
  0
LINE
  8
0
 10
7.14079
 20
28.5895
 11
7.13888
 21
28.5779
  0
LINE
  8
0
 10
7.13888
 20
28.5779
 11
7.11332
 21
28.4221
  0
LINE
  8
0
 10
7.11332
 20
28.4221
 11
7.11256
 21
28.408
  0
LINE
  8
0
 10
7.11256
 20
28.408
 11
7.10409
 21
28.2504
  0
LINE
  8
0
 10
7.10409
 20
28.2504
 11
7.10409
 21
26.811
  0
LINE
  8
0
 10
36.5
 20
0
 11
47.5
 21
0
  0
LINE
  8
0
 10
47.5
 20
0
 11
47.5
 21
3.5
  0
LINE
  8
0
 10
47.5
 20
3.5
 11
47
 21
4
  0
LINE
  8
0
 10
47
 20
4
 11
41.8959
 21
4
  0
LINE
  8
0
 10
41.8959
 20
4
 11
40.3959
 21
5.5
  0
LINE
  8
0
 10
40.3959
 20
5.5
 11
40.3959
 21
11.3964
  0
LINE
  8
0
 10
40.3959
 20
11.3964
 11
40.3949
 21
11.4139
  0
LINE
  8
0
 10
40.3949
 20
11.4139
 11
40.3905
 21
11.4901
  0
LINE
  8
0
 10
40.3905
 20
11.4901
 11
40.3875
 21
11.5531
  0
LINE
  8
0
 10
40.3875
 20
11.5531
 11
40.3867
 21
11.5699
  0
LINE
  8
0
 10
40.3867
 20
11.5699
 11
40.3675
 21
11.7008
  0
LINE
  8
0
 10
40.3675
 20
11.7008
 11
40.3592
 21
11.7576
  0
LINE
  8
0
 10
40.3592
 20
11.7576
 11
40.3378
 21
11.8423
  0
LINE
  8
0
 10
40.3378
 20
11.8423
 11
40.3142
 21
11.936
  0
LINE
  8
0
 10
40.3142
 20
11.936
 11
40.299
 21
11.9766
  0
LINE
  8
0
 10
40.299
 20
11.9766
 11
40.2527
 21
12.1006
  0
LINE
  8
0
 10
40.2527
 20
12.1006
 11
40.2514
 21
12.1031
  0
LINE
  8
0
 10
40.2514
 20
12.1031
 11
40.2466
 21
12.1122
  0
LINE
  8
0
 10
40.2466
 20
12.1122
 11
40.1944
 21
12.2424
  0
LINE
  8
0
 10
40.1944
 20
12.2424
 11
40.1762
 21
12.2875
  0
LINE
  8
0
 10
40.1762
 20
12.2875
 11
40.1303
 21
12.371
  0
LINE
  8
0
 10
40.1303
 20
12.371
 11
40.0868
 21
12.4501
  0
LINE
  8
0
 10
40.0868
 20
12.4501
 11
40.059
 21
12.4862
  0
LINE
  8
0
 10
40.059
 20
12.4862
 11
39.9864
 21
12.5809
  0
LINE
  8
0
 10
39.9864
 20
12.5809
 11
39.9799
 21
12.5866
  0
LINE
  8
0
 10
39.9799
 20
12.5866
 11
39.9488
 21
12.614
  0
LINE
  8
0
 10
39.9488
 20
12.614
 11
39.8944
 21
12.685
  0
LINE
  8
0
 10
39.8944
 20
12.685
 11
39.8777
 21
12.7067
  0
LINE
  8
0
 10
39.8777
 20
12.7067
 11
39.8012
 21
12.7645
  0
LINE
  8
0
 10
39.8012
 20
12.7645
 11
39.7632
 21
12.7932
  0
LINE
  8
0
 10
39.7632
 20
12.7932
 11
39.697
 21
12.8096
  0
LINE
  8
0
 10
39.697
 20
12.8096
 11
39.6459
 21
12.8222
  0
LINE
  8
0
 10
39.6459
 20
12.8222
 11
36.5
 21
12.8222
  0
LINE
  8
0
 10
36.5
 20
12.8222
 11
36.5
 21
0
  0
LINE
  8
0
 10
36.5
 20
14.4282
 11
39.6459
 21
14.4282
  0
LINE
  8
0
 10
39.6459
 20
14.4282
 11
39.7002
 21
14.4409
  0
LINE
  8
0
 10
39.7002
 20
14.4409
 11
39.7632
 21
14.4558
  0
LINE
  8
0
 10
39.7632
 20
14.4558
 11
39.8328
 21
14.5058
  0
LINE
  8
0
 10
39.8328
 20
14.5058
 11
39.8777
 21
14.5381
  0
LINE
  8
0
 10
39.8777
 20
14.5381
 11
39.9829
 21
14.6688
  0
LINE
  8
0
 10
39.9829
 20
14.6688
 11
39.9864
 21
14.6731
  0
LINE
  8
0
 10
39.9864
 20
14.6731
 11
39.992
 21
14.6834
  0
LINE
  8
0
 10
39.992
 20
14.6834
 11
40.0868
 21
14.8031
  0
LINE
  8
0
 10
40.0868
 20
14.8031
 11
40.1189
 21
14.8597
  0
LINE
  8
0
 10
40.1189
 20
14.8597
 11
40.1762
 21
14.9607
  0
LINE
  8
0
 10
40.1762
 20
14.9607
 11
40.242
 21
15.1194
  0
LINE
  8
0
 10
40.242
 20
15.1194
 11
40.2527
 21
15.1452
  0
LINE
  8
0
 10
40.2527
 20
15.1452
 11
40.2673
 21
15.1945
  0
LINE
  8
0
 10
40.2673
 20
15.1945
 11
40.3142
 21
15.3172
  0
LINE
  8
0
 10
40.3142
 20
15.3172
 11
40.3273
 21
15.3679
  0
LINE
  8
0
 10
40.3273
 20
15.3679
 11
40.3592
 21
15.4917
  0
LINE
  8
0
 10
40.3592
 20
15.4917
 11
40.3779
 21
15.6171
  0
LINE
  8
0
 10
40.3779
 20
15.6171
 11
40.3867
 21
15.6754
  0
LINE
  8
0
 10
40.3867
 20
15.6754
 11
40.3944
 21
15.8332
  0
LINE
  8
0
 10
40.3944
 20
15.8332
 11
40.3959
 21
15.8607
  0
LINE
  8
0
 10
40.3959
 20
15.8607
 11
40.3959
 21
15.861
  0
LINE
  8
0
 10
40.3959
 20
15.861
 11
40.3959
 21
17.3004
  0
LINE
  8
0
 10
40.3959
 20
17.3004
 11
40.3893
 21
17.4235
  0
LINE
  8
0
 10
40.3893
 20
17.4235
 11
40.3867
 21
17.4721
  0
LINE
  8
0
 10
40.3867
 20
17.4721
 11
40.3672
 21
17.5911
  0
LINE
  8
0
 10
40.3672
 20
17.5911
 11
40.3592
 21
17.6395
  0
LINE
  8
0
 10
40.3592
 20
17.6395
 11
40.3275
 21
17.7516
  0
LINE
  8
0
 10
40.3275
 20
17.7516
 11
40.3142
 21
17.7986
  0
LINE
  8
0
 10
40.3142
 20
17.7986
 11
40.2712
 21
17.9013
  0
LINE
  8
0
 10
40.2712
 20
17.9013
 11
40.2527
 21
17.9455
  0
LINE
  8
0
 10
40.2527
 20
17.9455
 11
40.1996
 21
18.0364
  0
LINE
  8
0
 10
40.1996
 20
18.0364
 11
40.1762
 21
18.0764
  0
LINE
  8
0
 10
40.1762
 20
18.0764
 11
40.1145
 21
18.1536
  0
LINE
  8
0
 10
40.1145
 20
18.1536
 11
40.0868
 21
18.1882
  0
LINE
  8
0
 10
40.0868
 20
18.1882
 11
40.0179
 21
18.25
  0
LINE
  8
0
 10
40.0179
 20
18.25
 11
39.9864
 21
18.2782
  0
LINE
  8
0
 10
39.9864
 20
18.2782
 11
39.9121
 21
18.3233
  0
LINE
  8
0
 10
39.9121
 20
18.3233
 11
39.8777
 21
18.3441
  0
LINE
  8
0
 10
39.8777
 20
18.3441
 11
39.7996
 21
18.3715
  0
LINE
  8
0
 10
39.7996
 20
18.3715
 11
39.7632
 21
18.3843
  0
LINE
  8
0
 10
39.7632
 20
18.3843
 11
39.6459
 21
18.3978
  0
LINE
  8
0
 10
39.6459
 20
18.3978
 11
36.5
 21
18.3978
  0
LINE
  8
0
 10
36.5
 20
18.3978
 11
36.5
 21
14.4282
  0
LINE
  8
0
 10
36.5
 20
25.7136
 11
39.6459
 21
25.7136
  0
LINE
  8
0
 10
39.6459
 20
25.7136
 11
39.7632
 21
25.7272
  0
LINE
  8
0
 10
39.7632
 20
25.7272
 11
39.8105
 21
25.7438
  0
LINE
  8
0
 10
39.8105
 20
25.7438
 11
39.8777
 21
25.7674
  0
LINE
  8
0
 10
39.8777
 20
25.7674
 11
39.9224
 21
25.7944
  0
LINE
  8
0
 10
39.9224
 20
25.7944
 11
39.9864
 21
25.8333
  0
LINE
  8
0
 10
39.9864
 20
25.8333
 11
40.0868
 21
25.9232
  0
LINE
  8
0
 10
40.0868
 20
25.9232
 11
40.1762
 21
26.0351
  0
LINE
  8
0
 10
40.1762
 20
26.0351
 11
40.2068
 21
26.0875
  0
LINE
  8
0
 10
40.2068
 20
26.0875
 11
40.2527
 21
26.166
  0
LINE
  8
0
 10
40.2527
 20
26.166
 11
40.277
 21
26.2241
  0
LINE
  8
0
 10
40.277
 20
26.2241
 11
40.3142
 21
26.3128
  0
LINE
  8
0
 10
40.3142
 20
26.3128
 11
40.3317
 21
26.3749
  0
LINE
  8
0
 10
40.3317
 20
26.3749
 11
40.3592
 21
26.4719
  0
LINE
  8
0
 10
40.3592
 20
26.4719
 11
40.3698
 21
26.5362
  0
LINE
  8
0
 10
40.3698
 20
26.5362
 11
40.3867
 21
26.6394
  0
LINE
  8
0
 10
40.3867
 20
26.6394
 11
40.3902
 21
26.7042
  0
LINE
  8
0
 10
40.3902
 20
26.7042
 11
40.3959
 21
26.811
  0
LINE
  8
0
 10
40.3959
 20
26.811
 11
40.3959
 21
28.2504
  0
LINE
  8
0
 10
40.3959
 20
28.2504
 11
40.3951
 21
28.2663
  0
LINE
  8
0
 10
40.3951
 20
28.2663
 11
40.3867
 21
28.4221
  0
LINE
  8
0
 10
40.3867
 20
28.4221
 11
40.3845
 21
28.4355
  0
LINE
  8
0
 10
40.3845
 20
28.4355
 11
40.3592
 21
28.5895
  0
LINE
  8
0
 10
40.3592
 20
28.5895
 11
40.3142
 21
28.7486
  0
LINE
  8
0
 10
40.3142
 20
28.7486
 11
40.3107
 21
28.7569
  0
LINE
  8
0
 10
40.3107
 20
28.7569
 11
40.2527
 21
28.8954
  0
LINE
  8
0
 10
40.2527
 20
28.8954
 11
40.1762
 21
29.0264
  0
LINE
  8
0
 10
40.1762
 20
29.0264
 11
40.0868
 21
29.1382
  0
LINE
  8
0
 10
40.0868
 20
29.1382
 11
40.0839
 21
29.1408
  0
LINE
  8
0
 10
40.0839
 20
29.1408
 11
39.9864
 21
29.2282
  0
LINE
  8
0
 10
39.9864
 20
29.2282
 11
39.984
 21
29.2296
  0
LINE
  8
0
 10
39.984
 20
29.2296
 11
39.8777
 21
29.2941
  0
LINE
  8
0
 10
39.8777
 20
29.2941
 11
39.8757
 21
29.2948
  0
LINE
  8
0
 10
39.8757
 20
29.2948
 11
39.7632
 21
29.3343
  0
LINE
  8
0
 10
39.7632
 20
29.3343
 11
39.6459
 21
29.3478
  0
LINE
  8
0
 10
39.6459
 20
29.3478
 11
36.5
 21
29.3478
  0
LINE
  8
0
 10
36.5
 20
29.3478
 11
36.5
 21
25.7136
  0
LINE
  8
0
 10
36.5
 20
32.9448
 11
39.6459
 21
32.9448
  0
LINE
  8
0
 10
39.6459
 20
32.9448
 11
39.7148
 21
32.9522
  0
LINE
  8
0
 10
39.7148
 20
32.9522
 11
39.7632
 21
32.9575
  0
LINE
  8
0
 10
39.7632
 20
32.9575
 11
39.8254
 21
32.9778
  0
LINE
  8
0
 10
39.8254
 20
32.9778
 11
39.8777
 21
32.995
  0
LINE
  8
0
 10
39.8777
 20
32.995
 11
39.9284
 21
33.0236
  0
LINE
  8
0
 10
39.9284
 20
33.0236
 11
39.9864
 21
33.0564
  0
LINE
  8
0
 10
39.9864
 20
33.0564
 11
40.0231
 21
33.0871
  0
LINE
  8
0
 10
40.0231
 20
33.0871
 11
40.0868
 21
33.1404
  0
LINE
  8
0
 10
40.0868
 20
33.1404
 11
40.1087
 21
33.166
  0
LINE
  8
0
 10
40.1087
 20
33.166
 11
40.1762
 21
33.2447
  0
LINE
  8
0
 10
40.1762
 20
33.2447
 11
40.1849
 21
33.2586
  0
LINE
  8
0
 10
40.1849
 20
33.2586
 11
40.2377
 21
33.343
  0
LINE
  8
0
 10
40.2377
 20
33.343
 11
40.2507
 21
33.3613
  0
LINE
  8
0
 10
40.2507
 20
33.3613
 11
40.2527
 21
33.364
  0
LINE
  8
0
 10
40.2527
 20
33.364
 11
40.3041
 21
33.4645
  0
LINE
  8
0
 10
40.3041
 20
33.4645
 11
40.3142
 21
33.4841
  0
LINE
  8
0
 10
40.3142
 20
33.4841
 11
40.3457
 21
33.5751
  0
LINE
  8
0
 10
40.3457
 20
33.5751
 11
40.3592
 21
33.6142
  0
LINE
  8
0
 10
40.3592
 20
33.6142
 11
40.3747
 21
33.6916
  0
LINE
  8
0
 10
40.3747
 20
33.6916
 11
40.3867
 21
33.7512
  0
LINE
  8
0
 10
40.3867
 20
33.7512
 11
40.3907
 21
33.8123
  0
LINE
  8
0
 10
40.3907
 20
33.8123
 11
40.3959
 21
33.8917
  0
LINE
  8
0
 10
40.3959
 20
33.8917
 11
40.3959
 21
40
  0
LINE
  8
0
 10
40.3959
 20
40
 11
41.8959
 21
41.5
  0
LINE
  8
0
 10
41.8959
 20
41.5
 11
47
 21
41.5
  0
LINE
  8
0
 10
47
 20
41.5
 11
47.5
 21
42
  0
LINE
  8
0
 10
47.5
 20
42
 11
47.5
 21
45.5
  0
LINE
  8
0
 10
47.5
 20
45.5
 11
36.5
 21
45.5
  0
LINE
  8
0
 10
36.5
 20
45.5
 11
36.5
 21
32.9448
  0
ENDSEC
  0
SECTION
  2
OBJECTS
  0
DICTIONARY
  0
ENDSEC
  0
EOF
