  0
SECTION
  2
BLOCKS
  0
ENDSEC
  0
SECTION
  2
ENTITIES
  0
LINE
  8
0
 10
0
 20
0
 11
11
 21
0
  0
LINE
  8
0
 10
11
 20
0
 11
11
 21
18.1842
  0
LINE
  8
0
 10
11
 20
18.1842
 11
7.85409
 21
18.1842
  0
LINE
  8
0
 10
7.85409
 20
18.1842
 11
7.73676
 21
18.1707
  0
LINE
  8
0
 10
7.73676
 20
18.1707
 11
7.65697
 21
18.1426
  0
LINE
  8
0
 10
7.65697
 20
18.1426
 11
7.62232
 21
18.1305
  0
LINE
  8
0
 10
7.62232
 20
18.1305
 11
7.54628
 21
18.0844
  0
LINE
  8
0
 10
7.54628
 20
18.0844
 11
7.51359
 21
18.0646
  0
LINE
  8
0
 10
7.51359
 20
18.0646
 11
7.44311
 21
18.0014
  0
LINE
  8
0
 10
7.44311
 20
18.0014
 11
7.41325
 21
17.9746
  0
LINE
  8
0
 10
7.41325
 20
17.9746
 11
7.35005
 21
17.8956
  0
LINE
  8
0
 10
7.35005
 20
17.8956
 11
7.32376
 21
17.8628
  0
LINE
  8
0
 10
7.32376
 20
17.8628
 11
7.26943
 21
17.7697
  0
LINE
  8
0
 10
7.26943
 20
17.7697
 11
7.24732
 21
17.7318
  0
LINE
  8
0
 10
7.24732
 20
17.7318
 11
7.20329
 21
17.6267
  0
LINE
  8
0
 10
7.20329
 20
17.6267
 11
7.18583
 21
17.585
  0
LINE
  8
0
 10
7.18583
 20
17.585
 11
7.15333
 21
17.4702
  0
LINE
  8
0
 10
7.15333
 20
17.4702
 11
7.14079
 21
17.4259
  0
LINE
  8
0
 10
7.14079
 20
17.4259
 11
7.1208
 21
17.304
  0
LINE
  8
0
 10
7.1208
 20
17.304
 11
7.11332
 21
17.2585
  0
LINE
  8
0
 10
7.11332
 20
17.2585
 11
7.10654
 21
17.1325
  0
LINE
  8
0
 10
7.10654
 20
17.1325
 11
7.10409
 21
17.0868
  0
LINE
  8
0
 10
7.10409
 20
17.0868
 11
7.10409
 21
15.6112
  0
LINE
  8
0
 10
7.10409
 20
15.6112
 11
7.10733
 21
15.5451
  0
LINE
  8
0
 10
7.10733
 20
15.5451
 11
7.11332
 21
15.4229
  0
LINE
  8
0
 10
7.11332
 20
15.4229
 11
7.11668
 21
15.4004
  0
LINE
  8
0
 10
7.11668
 20
15.4004
 11
7.12758
 21
15.3275
  0
LINE
  8
0
 10
7.12758
 20
15.3275
 11
7.13715
 21
15.2453
  0
LINE
  8
0
 10
7.13715
 20
15.2453
 11
7.14079
 21
15.214
  0
LINE
  8
0
 10
7.14079
 20
15.214
 11
7.1673
 21
15.0821
  0
LINE
  8
0
 10
7.1673
 20
15.0821
 11
7.18583
 21
14.9898
  0
LINE
  8
0
 10
7.18583
 20
14.9898
 11
7.20451
 21
14.927
  0
LINE
  8
0
 10
7.20451
 20
14.927
 11
7.24732
 21
14.7829
  0
LINE
  8
0
 10
7.24732
 20
14.7829
 11
7.24844
 21
14.7802
  0
LINE
  8
0
 10
7.24844
 20
14.7802
 11
7.2514
 21
14.7731
  0
LINE
  8
0
 10
7.2514
 20
14.7731
 11
7.29872
 21
14.6071
  0
LINE
  8
0
 10
7.29872
 20
14.6071
 11
7.32376
 21
14.5193
  0
LINE
  8
0
 10
7.32376
 20
14.5193
 11
7.35321
 21
14.4439
  0
LINE
  8
0
 10
7.35321
 20
14.4439
 11
7.41105
 21
14.2959
  0
LINE
  8
0
 10
7.41105
 20
14.2959
 11
7.41218
 21
14.2904
  0
LINE
  8
0
 10
7.41218
 20
14.2904
 11
7.41325
 21
14.2851
  0
LINE
  8
0
 10
7.41325
 20
14.2851
 11
7.46802
 21
14.0916
  0
LINE
  8
0
 10
7.46802
 20
14.0916
 11
7.51359
 21
13.9306
  0
LINE
  8
0
 10
7.51359
 20
13.9306
 11
7.52511
 21
13.9031
  0
LINE
  8
0
 10
7.52511
 20
13.9031
 11
7.54371
 21
13.8587
  0
LINE
  8
0
 10
7.54371
 20
13.8587
 11
7.54953
 21
13.573
  0
LINE
  8
0
 10
7.54953
 20
13.573
 11
7.55235
 21
13.4347
  0
LINE
  8
0
 10
7.55235
 20
13.4347
 11
7.51359
 21
13.3323
  0
LINE
  8
0
 10
7.51359
 20
13.3323
 11
7.42854
 21
12.9999
  0
LINE
  8
0
 10
7.42854
 20
12.9999
 11
7.41325
 21
12.9705
  0
LINE
  8
0
 10
7.41325
 20
12.9705
 11
7.40127
 21
12.9383
  0
LINE
  8
0
 10
7.40127
 20
12.9383
 11
7.32376
 21
12.73
  0
LINE
  8
0
 10
7.32376
 20
12.73
 11
7.26901
 21
12.5283
  0
LINE
  8
0
 10
7.26901
 20
12.5283
 11
7.24732
 21
12.4743
  0
LINE
  8
0
 10
7.24732
 20
12.4743
 11
7.23653
 21
12.4368
  0
LINE
  8
0
 10
7.23653
 20
12.4368
 11
7.18583
 21
12.2608
  0
LINE
  8
0
 10
7.18583
 20
12.2608
 11
7.14688
 21
12.0608
  0
LINE
  8
0
 10
7.14688
 20
12.0608
 11
7.14079
 21
12.0296
  0
LINE
  8
0
 10
7.14079
 20
12.0296
 11
7.13565
 21
11.9839
  0
LINE
  8
0
 10
7.13565
 20
11.9839
 11
7.11332
 21
11.8314
  0
LINE
  8
0
 10
7.11332
 20
11.8314
 11
7.11014
 21
11.7651
  0
LINE
  8
0
 10
7.11014
 20
11.7651
 11
7.10409
 21
11.6389
  0
LINE
  8
0
 10
7.10409
 20
11.6389
 11
7.10409
 21
5.5
  0
LINE
  8
0
 10
7.10409
 20
5.5
 11
5.60409
 21
4
  0
LINE
  8
0
 10
5.60409
 20
4
 11
0.499999
 21
4
  0
LINE
  8
0
 10
0.499999
 20
4
 11
0
 21
3.5
  0
LINE
  8
0
 10
0
 20
3.5
 11
0
 21
0
  0
LINE
  8
0
 10
0
 20
42
 11
0.499999
 21
41.5
  0
LINE
  8
0
 10
0.499999
 20
41.5
 11
5.60409
 21
41.5
  0
LINE
  8
0
 10
5.60409
 20
41.5
 11
7.10409
 21
40
  0
LINE
  8
0
 10
7.10409
 20
40
 11
7.10409
 21
34.0166
  0
LINE
  8
0
 10
7.10409
 20
34.0166
 11
7.11022
 21
33.9315
  0
LINE
  8
0
 10
7.11022
 20
33.9315
 11
7.11332
 21
33.8843
  0
LINE
  8
0
 10
7.11332
 20
33.8843
 11
7.11477
 21
33.8771
  0
LINE
  8
0
 10
7.11477
 20
33.8771
 11
7.14079
 21
33.7473
  0
LINE
  8
0
 10
7.14079
 20
33.7473
 11
7.15043
 21
33.7195
  0
LINE
  8
0
 10
7.15043
 20
33.7195
 11
7.18583
 21
33.6172
  0
LINE
  8
0
 10
7.18583
 20
33.6172
 11
7.20893
 21
33.572
  0
LINE
  8
0
 10
7.20893
 20
33.572
 11
7.24732
 21
33.497
  0
LINE
  8
0
 10
7.24732
 20
33.497
 11
7.28786
 21
33.4402
  0
LINE
  8
0
 10
7.28786
 20
33.4402
 11
7.32376
 21
33.3899
  0
LINE
  8
0
 10
7.32376
 20
33.3899
 11
7.38369
 21
33.3286
  0
LINE
  8
0
 10
7.38369
 20
33.3286
 11
7.41325
 21
33.2984
  0
LINE
  8
0
 10
7.41325
 20
33.2984
 11
7.4921
 21
33.2406
  0
LINE
  8
0
 10
7.4921
 20
33.2406
 11
7.51359
 21
33.2248
  0
LINE
  8
0
 10
7.51359
 20
33.2248
 11
7.60846
 21
33.1778
  0
LINE
  8
0
 10
7.60846
 20
33.1778
 11
7.62232
 21
33.1709
  0
LINE
  8
0
 10
7.62232
 20
33.1709
 11
7.72826
 21
33.1405
  0
LINE
  8
0
 10
7.72826
 20
33.1405
 11
7.73676
 21
33.138
  0
LINE
  8
0
 10
7.73676
 20
33.138
 11
7.84754
 21
33.1276
  0
LINE
  8
0
 10
7.84754
 20
33.1276
 11
7.85409
 21
33.127
  0
LINE
  8
0
 10
7.85409
 20
33.127
 11
11
 21
33.127
  0
LINE
  8
0
 10
11
 20
33.127
 11
11
 21
45.5
  0
LINE
  8
0
 10
11
 20
45.5
 11
0
 21
45.5
  0
LINE
  8
0
 10
0
 20
45.5
 11
0
 21
42
  0
LINE
  8
0
 10
7.10409
 20
26.5974
 11
7.1077
 21
26.5303
  0
LINE
  8
0
 10
7.1077
 20
26.5303
 11
7.11332
 21
26.4257
  0
LINE
  8
0
 10
7.11332
 20
26.4257
 11
7.12424
 21
26.3592
  0
LINE
  8
0
 10
7.12424
 20
26.3592
 11
7.14079
 21
26.2583
  0
LINE
  8
0
 10
7.14079
 20
26.2583
 11
7.15896
 21
26.1941
  0
LINE
  8
0
 10
7.15896
 20
26.1941
 11
7.18583
 21
26.0992
  0
LINE
  8
0
 10
7.18583
 20
26.0992
 11
7.21098
 21
26.0392
  0
LINE
  8
0
 10
7.21098
 20
26.0392
 11
7.24732
 21
25.9524
  0
LINE
  8
0
 10
7.24732
 20
25.9524
 11
7.27898
 21
25.8982
  0
LINE
  8
0
 10
7.27898
 20
25.8982
 11
7.32376
 21
25.8214
  0
LINE
  8
0
 10
7.32376
 20
25.8214
 11
7.41325
 21
25.7096
  0
LINE
  8
0
 10
7.41325
 20
25.7096
 11
7.51359
 21
25.6196
  0
LINE
  8
0
 10
7.51359
 20
25.6196
 11
7.55984
 21
25.5916
  0
LINE
  8
0
 10
7.55984
 20
25.5916
 11
7.62232
 21
25.5537
  0
LINE
  8
0
 10
7.62232
 20
25.5537
 11
7.67123
 21
25.5366
  0
LINE
  8
0
 10
7.67123
 20
25.5366
 11
7.73676
 21
25.5135
  0
LINE
  8
0
 10
7.73676
 20
25.5135
 11
7.85409
 21
25.5
  0
LINE
  8
0
 10
7.85409
 20
25.5
 11
11
 21
25.5
  0
LINE
  8
0
 10
11
 20
25.5
 11
11
 21
29.1342
  0
LINE
  8
0
 10
11
 20
29.1342
 11
7.85409
 21
29.1342
  0
LINE
  8
0
 10
7.85409
 20
29.1342
 11
7.73676
 21
29.1207
  0
LINE
  8
0
 10
7.73676
 20
29.1207
 11
7.73175
 21
29.1189
  0
LINE
  8
0
 10
7.73175
 20
29.1189
 11
7.62232
 21
29.0805
  0
LINE
  8
0
 10
7.62232
 20
29.0805
 11
7.61723
 21
29.0774
  0
LINE
  8
0
 10
7.61723
 20
29.0774
 11
7.51359
 21
29.0146
  0
LINE
  8
0
 10
7.51359
 20
29.0146
 11
7.5084
 21
29.0099
  0
LINE
  8
0
 10
7.5084
 20
29.0099
 11
7.41325
 21
28.9246
  0
LINE
  8
0
 10
7.41325
 20
28.9246
 11
7.32376
 21
28.8128
  0
LINE
  8
0
 10
7.32376
 20
28.8128
 11
7.24732
 21
28.6818
  0
LINE
  8
0
 10
7.24732
 20
28.6818
 11
7.24262
 21
28.6706
  0
LINE
  8
0
 10
7.24262
 20
28.6706
 11
7.18583
 21
28.535
  0
LINE
  8
0
 10
7.18583
 20
28.535
 11
7.14079
 21
28.3759
  0
LINE
  8
0
 10
7.14079
 20
28.3759
 11
7.13807
 21
28.3593
  0
LINE
  8
0
 10
7.13807
 20
28.3593
 11
7.11332
 21
28.2085
  0
LINE
  8
0
 10
7.11332
 20
28.2085
 11
7.11229
 21
28.1893
  0
LINE
  8
0
 10
7.11229
 20
28.1893
 11
7.10409
 21
28.0368
  0
LINE
  8
0
 10
7.10409
 20
28.0368
 11
7.10409
 21
26.5974
  0
LINE
  8
0
 10
36.5
 20
0
 11
47.5
 21
0
  0
LINE
  8
0
 10
47.5
 20
0
 11
47.5
 21
3.5
  0
LINE
  8
0
 10
47.5
 20
3.5
 11
47
 21
4
  0
LINE
  8
0
 10
47
 20
4
 11
41.8959
 21
4
  0
LINE
  8
0
 10
41.8959
 20
4
 11
40.3959
 21
5.5
  0
LINE
  8
0
 10
40.3959
 20
5.5
 11
40.3959
 21
11.6389
  0
LINE
  8
0
 10
40.3959
 20
11.6389
 11
40.392
 21
11.7214
  0
LINE
  8
0
 10
40.392
 20
11.7214
 11
40.3867
 21
11.8314
  0
LINE
  8
0
 10
40.3867
 20
11.8314
 11
40.3813
 21
11.8682
  0
LINE
  8
0
 10
40.3813
 20
11.8682
 11
40.3644
 21
11.9839
  0
LINE
  8
0
 10
40.3644
 20
11.9839
 11
40.3607
 21
12.0166
  0
LINE
  8
0
 10
40.3607
 20
12.0166
 11
40.3592
 21
12.0296
  0
LINE
  8
0
 10
40.3592
 20
12.0296
 11
40.3293
 21
12.1829
  0
LINE
  8
0
 10
40.3293
 20
12.1829
 11
40.3142
 21
12.2608
  0
LINE
  8
0
 10
40.3142
 20
12.2608
 11
40.2912
 21
12.3405
  0
LINE
  8
0
 10
40.2912
 20
12.3405
 11
40.2527
 21
12.4743
  0
LINE
  8
0
 10
40.2527
 20
12.4743
 11
40.2466
 21
12.4894
  0
LINE
  8
0
 10
40.2466
 20
12.4894
 11
40.231
 21
12.5283
  0
LINE
  8
0
 10
40.231
 20
12.5283
 11
40.1959
 21
12.6576
  0
LINE
  8
0
 10
40.1959
 20
12.6576
 11
40.1762
 21
12.73
  0
LINE
  8
0
 10
40.1762
 20
12.73
 11
40.1411
 21
12.8243
  0
LINE
  8
0
 10
40.1411
 20
12.8243
 11
40.0868
 21
12.9705
  0
LINE
  8
0
 10
40.0868
 20
12.9705
 11
40.0821
 21
12.9795
  0
LINE
  8
0
 10
40.0821
 20
12.9795
 11
40.0715
 21
12.9999
  0
LINE
  8
0
 10
40.0715
 20
12.9999
 11
40.0261
 21
13.1771
  0
LINE
  8
0
 10
40.0261
 20
13.1771
 11
39.9864
 21
13.3323
  0
LINE
  8
0
 10
39.9864
 20
13.3323
 11
39.9706
 21
13.3739
  0
LINE
  8
0
 10
39.9706
 20
13.3739
 11
39.9476
 21
13.4347
  0
LINE
  8
0
 10
39.9476
 20
13.4347
 11
39.9537
 21
13.7327
  0
LINE
  8
0
 10
39.9537
 20
13.7327
 11
39.9563
 21
13.8587
  0
LINE
  8
0
 10
39.9563
 20
13.8587
 11
39.9864
 21
13.9306
  0
LINE
  8
0
 10
39.9864
 20
13.9306
 11
40.074
 21
14.2399
  0
LINE
  8
0
 10
40.074
 20
14.2399
 11
40.0868
 21
14.2851
  0
LINE
  8
0
 10
40.0868
 20
14.2851
 11
40.0889
 21
14.2959
  0
LINE
  8
0
 10
40.0889
 20
14.2959
 11
40.1762
 21
14.5193
  0
LINE
  8
0
 10
40.1762
 20
14.5193
 11
40.2486
 21
14.7731
  0
LINE
  8
0
 10
40.2486
 20
14.7731
 11
40.2527
 21
14.7829
  0
LINE
  8
0
 10
40.2527
 20
14.7829
 11
40.2546
 21
14.7893
  0
LINE
  8
0
 10
40.2546
 20
14.7893
 11
40.3142
 21
14.9898
  0
LINE
  8
0
 10
40.3142
 20
14.9898
 11
40.3446
 21
15.1415
  0
LINE
  8
0
 10
40.3446
 20
15.1415
 11
40.3592
 21
15.214
  0
LINE
  8
0
 10
40.3592
 20
15.214
 11
40.3724
 21
15.3275
  0
LINE
  8
0
 10
40.3724
 20
15.3275
 11
40.3867
 21
15.4229
  0
LINE
  8
0
 10
40.3867
 20
15.4229
 11
40.3886
 21
15.4624
  0
LINE
  8
0
 10
40.3886
 20
15.4624
 11
40.3959
 21
15.6112
  0
LINE
  8
0
 10
40.3959
 20
15.6112
 11
40.3959
 21
17.0868
  0
LINE
  8
0
 10
40.3959
 20
17.0868
 11
40.3892
 21
17.2123
  0
LINE
  8
0
 10
40.3892
 20
17.2123
 11
40.3867
 21
17.2585
  0
LINE
  8
0
 10
40.3867
 20
17.2585
 11
40.3668
 21
17.3799
  0
LINE
  8
0
 10
40.3668
 20
17.3799
 11
40.3592
 21
17.4259
  0
LINE
  8
0
 10
40.3592
 20
17.4259
 11
40.3268
 21
17.5403
  0
LINE
  8
0
 10
40.3268
 20
17.5403
 11
40.3142
 21
17.585
  0
LINE
  8
0
 10
40.3142
 20
17.585
 11
40.2703
 21
17.6898
  0
LINE
  8
0
 10
40.2703
 20
17.6898
 11
40.2527
 21
17.7318
  0
LINE
  8
0
 10
40.2527
 20
17.7318
 11
40.1985
 21
17.8246
  0
LINE
  8
0
 10
40.1985
 20
17.8246
 11
40.1762
 21
17.8628
  0
LINE
  8
0
 10
40.1762
 20
17.8628
 11
40.1132
 21
17.9416
  0
LINE
  8
0
 10
40.1132
 20
17.9416
 11
40.0868
 21
17.9746
  0
LINE
  8
0
 10
40.0868
 20
17.9746
 11
40.0164
 21
18.0377
  0
LINE
  8
0
 10
40.0164
 20
18.0377
 11
39.9864
 21
18.0646
  0
LINE
  8
0
 10
39.9864
 20
18.0646
 11
39.9105
 21
18.1106
  0
LINE
  8
0
 10
39.9105
 20
18.1106
 11
39.8777
 21
18.1305
  0
LINE
  8
0
 10
39.8777
 20
18.1305
 11
39.798
 21
18.1585
  0
LINE
  8
0
 10
39.798
 20
18.1585
 11
39.7632
 21
18.1707
  0
LINE
  8
0
 10
39.7632
 20
18.1707
 11
39.6459
 21
18.1842
  0
LINE
  8
0
 10
39.6459
 20
18.1842
 11
36.5
 21
18.1842
  0
LINE
  8
0
 10
36.5
 20
18.1842
 11
36.5
 21
0
  0
LINE
  8
0
 10
36.5
 20
25.5
 11
39.6459
 21
25.5
  0
LINE
  8
0
 10
39.6459
 20
25.5
 11
39.7632
 21
25.5135
  0
LINE
  8
0
 10
39.7632
 20
25.5135
 11
39.8122
 21
25.5307
  0
LINE
  8
0
 10
39.8122
 20
25.5307
 11
39.8777
 21
25.5537
  0
LINE
  8
0
 10
39.8777
 20
25.5537
 11
39.924
 21
25.5818
  0
LINE
  8
0
 10
39.924
 20
25.5818
 11
39.9864
 21
25.6196
  0
LINE
  8
0
 10
39.9864
 20
25.6196
 11
40.0868
 21
25.7096
  0
LINE
  8
0
 10
40.0868
 20
25.7096
 11
40.1762
 21
25.8214
  0
LINE
  8
0
 10
40.1762
 20
25.8214
 11
40.208
 21
25.8758
  0
LINE
  8
0
 10
40.208
 20
25.8758
 11
40.2527
 21
25.9524
  0
LINE
  8
0
 10
40.2527
 20
25.9524
 11
40.2779
 21
26.0126
  0
LINE
  8
0
 10
40.2779
 20
26.0126
 11
40.3142
 21
26.0992
  0
LINE
  8
0
 10
40.3142
 20
26.0992
 11
40.3324
 21
26.1635
  0
LINE
  8
0
 10
40.3324
 20
26.1635
 11
40.3592
 21
26.2583
  0
LINE
  8
0
 10
40.3592
 20
26.2583
 11
40.3702
 21
26.325
  0
LINE
  8
0
 10
40.3702
 20
26.325
 11
40.3867
 21
26.4257
  0
LINE
  8
0
 10
40.3867
 20
26.4257
 11
40.3903
 21
26.4931
  0
LINE
  8
0
 10
40.3903
 20
26.4931
 11
40.3959
 21
26.5974
  0
LINE
  8
0
 10
40.3959
 20
26.5974
 11
40.3959
 21
28.0368
  0
LINE
  8
0
 10
40.3959
 20
28.0368
 11
40.3948
 21
28.0576
  0
LINE
  8
0
 10
40.3948
 20
28.0576
 11
40.3867
 21
28.2085
  0
LINE
  8
0
 10
40.3867
 20
28.2085
 11
40.3837
 21
28.2267
  0
LINE
  8
0
 10
40.3837
 20
28.2267
 11
40.3592
 21
28.3759
  0
LINE
  8
0
 10
40.3592
 20
28.3759
 11
40.3142
 21
28.535
  0
LINE
  8
0
 10
40.3142
 20
28.535
 11
40.3089
 21
28.5475
  0
LINE
  8
0
 10
40.3089
 20
28.5475
 11
40.2527
 21
28.6818
  0
LINE
  8
0
 10
40.2527
 20
28.6818
 11
40.1762
 21
28.8128
  0
LINE
  8
0
 10
40.1762
 20
28.8128
 11
40.0868
 21
28.9246
  0
LINE
  8
0
 10
40.0868
 20
28.9246
 11
40.081
 21
28.9298
  0
LINE
  8
0
 10
40.081
 20
28.9298
 11
39.9864
 21
29.0146
  0
LINE
  8
0
 10
39.9864
 20
29.0146
 11
39.9808
 21
29.0179
  0
LINE
  8
0
 10
39.9808
 20
29.0179
 11
39.8777
 21
29.0805
  0
LINE
  8
0
 10
39.8777
 20
29.0805
 11
39.8724
 21
29.0823
  0
LINE
  8
0
 10
39.8724
 20
29.0823
 11
39.7632
 21
29.1207
  0
LINE
  8
0
 10
39.7632
 20
29.1207
 11
39.6459
 21
29.1342
  0
LINE
  8
0
 10
39.6459
 20
29.1342
 11
36.5
 21
29.1342
  0
LINE
  8
0
 10
36.5
 20
29.1342
 11
36.5
 21
25.5
  0
LINE
  8
0
 10
36.5
 20
33.127
 11
39.6459
 21
33.127
  0
LINE
  8
0
 10
39.6459
 20
33.127
 11
39.755
 21
33.1372
  0
LINE
  8
0
 10
39.755
 20
33.1372
 11
39.7632
 21
33.138
  0
LINE
  8
0
 10
39.7632
 20
33.138
 11
39.8645
 21
33.1671
  0
LINE
  8
0
 10
39.8645
 20
33.1671
 11
39.8777
 21
33.1709
  0
LINE
  8
0
 10
39.8777
 20
33.1709
 11
39.9663
 21
33.2148
  0
LINE
  8
0
 10
39.9663
 20
33.2148
 11
39.9864
 21
33.2248
  0
LINE
  8
0
 10
39.9864
 20
33.2248
 11
40.0592
 21
33.2782
  0
LINE
  8
0
 10
40.0592
 20
33.2782
 11
40.0868
 21
33.2984
  0
LINE
  8
0
 10
40.0868
 20
33.2984
 11
40.1424
 21
33.3553
  0
LINE
  8
0
 10
40.1424
 20
33.3553
 11
40.1762
 21
33.3899
  0
LINE
  8
0
 10
40.1762
 20
33.3899
 11
40.2152
 21
33.4445
  0
LINE
  8
0
 10
40.2152
 20
33.4445
 11
40.2527
 21
33.497
  0
LINE
  8
0
 10
40.2527
 20
33.497
 11
40.2767
 21
33.544
  0
LINE
  8
0
 10
40.2767
 20
33.544
 11
40.3142
 21
33.6172
  0
LINE
  8
0
 10
40.3142
 20
33.6172
 11
40.3264
 21
33.6525
  0
LINE
  8
0
 10
40.3264
 20
33.6525
 11
40.3592
 21
33.7473
  0
LINE
  8
0
 10
40.3592
 20
33.7473
 11
40.3634
 21
33.7683
  0
LINE
  8
0
 10
40.3634
 20
33.7683
 11
40.3867
 21
33.8843
  0
LINE
  8
0
 10
40.3867
 20
33.8843
 11
40.387
 21
33.8896
  0
LINE
  8
0
 10
40.387
 20
33.8896
 11
40.3898
 21
33.9315
  0
LINE
  8
0
 10
40.3898
 20
33.9315
 11
40.3953
 21
34.0075
  0
LINE
  8
0
 10
40.3953
 20
34.0075
 11
40.3959
 21
34.0166
  0
LINE
  8
0
 10
40.3959
 20
34.0166
 11
40.3959
 21
40
  0
LINE
  8
0
 10
40.3959
 20
40
 11
41.8959
 21
41.5
  0
LINE
  8
0
 10
41.8959
 20
41.5
 11
47
 21
41.5
  0
LINE
  8
0
 10
47
 20
41.5
 11
47.5
 21
42
  0
LINE
  8
0
 10
47.5
 20
42
 11
47.5
 21
45.5
  0
LINE
  8
0
 10
47.5
 20
45.5
 11
36.5
 21
45.5
  0
LINE
  8
0
 10
36.5
 20
45.5
 11
36.5
 21
33.127
  0
ENDSEC
  0
SECTION
  2
OBJECTS
  0
DICTIONARY
  0
ENDSEC
  0
EOF
