0
SECTION
2
ENTITIES
0
LINE
8
0
10
-39.1551971
20
59.0107765
11
-39.1343845
21
59.0610228
0
LINE
8
0
10
-39.1343845
20
59.0610228
11
-38.9054451
21
59.6137314
0
LINE
8
0
10
-38.9054451
20
59.6137314
11
-38.872337
21
59.6568785
0
LINE
8
0
10
-38.872337
20
59.6568785
11
-38.5081482
21
60.1314964
0
LINE
8
0
10
-38.5081482
20
60.1314964
11
-38.4650008
21
60.1646045
0
LINE
8
0
10
-38.4650008
20
60.1646045
11
-37.9903793
21
60.5287933
0
LINE
8
0
10
-37.9903793
20
60.5287933
11
-37.9401334
21
60.549606
0
LINE
8
0
10
-37.9401334
20
60.549606
11
-37.3874283
21
60.7785454
0
LINE
8
0
10
-37.3874283
20
60.7785454
11
-37.3335075
21
60.7856442
0
LINE
8
0
10
-37.3335075
20
60.7856442
11
-36.7403793
21
60.8637314
0
LINE
8
0
10
-36.7403793
20
60.8637314
11
-36.6864589
21
60.8566326
0
LINE
8
0
10
-36.6864589
20
60.8566326
11
-36.0933342
21
60.7785454
0
LINE
8
0
10
-36.0933342
20
60.7785454
11
-36.043088
21
60.7577327
0
LINE
8
0
10
-36.043088
20
60.7577327
11
-35.4903793
21
60.5287933
0
LINE
8
0
10
-35.4903793
20
60.5287933
11
-35.4472322
21
60.4956853
0
LINE
8
0
10
-35.4472322
20
60.4956853
11
-34.9726143
21
60.1314964
0
LINE
8
0
10
-34.9726143
20
60.1314964
11
-34.9395062
21
60.0883493
0
LINE
8
0
10
-34.9395062
20
60.0883493
11
-34.5753174
21
59.6137314
0
LINE
8
0
10
-34.5753174
20
59.6137314
11
-34.5545047
21
59.5634851
0
LINE
8
0
10
-34.5545047
20
59.5634851
11
-34.3255653
21
59.0107765
0
LINE
8
0
10
-34.3255653
20
59.0107765
11
-34.3184665
21
58.9568561
0
LINE
8
0
10
-34.3184665
20
58.9568561
11
-34.2403793
21
58.3637314
0
LINE
8
0
10
-34.2403793
20
58.3637314
11
-34.2474782
21
58.3098106
0
LINE
8
0
10
-34.2474782
20
58.3098106
11
-34.3255653
21
57.7166824
0
LINE
8
0
10
-34.3255653
20
57.7166824
11
-34.346378
21
57.6664365
0
LINE
8
0
10
-34.346378
20
57.6664365
11
-34.5753174
21
57.1137314
0
LINE
8
0
10
-34.5753174
20
57.1137314
11
-34.6084255
21
57.070584
0
LINE
8
0
10
-34.6084255
20
57.070584
11
-34.9726143
21
56.5959625
0
LINE
8
0
10
-34.9726143
20
56.5959625
11
-35.0157614
21
56.5628544
0
LINE
8
0
10
-35.0157614
20
56.5628544
11
-35.4903793
21
56.1986656
0
LINE
8
0
10
-35.4903793
20
56.1986656
11
-35.5406256
21
56.1778533
0
LINE
8
0
10
-35.5406256
20
56.1778533
11
-36.0933342
21
55.9489174
0
LINE
8
0
10
-36.0933342
20
55.9489174
11
-36.1472546
21
55.9418186
0
LINE
8
0
10
-36.1472546
20
55.9418186
11
-36.7403793
21
55.8637314
0
LINE
8
0
10
-36.7403793
20
55.8637314
11
-36.7943001
21
55.8708302
0
LINE
8
0
10
-36.7943001
20
55.8708302
11
-37.3874283
21
55.9489174
0
LINE
8
0
10
-37.3874283
20
55.9489174
11
-37.4376742
21
55.9697297
0
LINE
8
0
10
-37.4376742
20
55.9697297
11
-37.9903793
21
56.1986656
0
LINE
8
0
10
-37.9903793
20
56.1986656
11
-38.0335267
21
56.2317737
0
LINE
8
0
10
-38.0335267
20
56.2317737
11
-38.5081482
21
56.5959625
0
LINE
8
0
10
-38.5081482
20
56.5959625
11
-38.5412563
21
56.6391099
0
LINE
8
0
10
-38.5412563
20
56.6391099
11
-38.9054451
21
57.1137314
0
LINE
8
0
10
-38.9054451
20
57.1137314
11
-38.9262578
21
57.1639773
0
LINE
8
0
10
-38.9262578
20
57.1639773
11
-39.1551971
21
57.7166824
0
LINE
8
0
10
-39.1551971
20
57.7166824
11
-39.1622957
21
57.7706032
0
LINE
8
0
10
-39.1622957
20
57.7706032
11
-39.2403793
21
58.3637314
0
LINE
8
0
10
-39.2403793
20
58.3637314
11
-39.2332808
21
58.4176518
0
LINE
8
0
10
-39.2332808
20
58.4176518
11
-39.1551971
21
59.0107765
0
LINE
8
0
10
-39.1551971
20
59.0107765
11
-39.1551971
21
59.0107765
0
LINE
8
0
10
-49.2646405
20
65.6568788
11
-49.2977486
21
65.6137314
0
LINE
8
0
10
-49.2977486
20
65.6137314
11
-49.5266879
21
65.0610263
0
LINE
8
0
10
-49.5266879
20
65.0610263
11
-49.5475006
21
65.0107803
0
LINE
8
0
10
-49.5475006
20
65.0107803
11
-49.6255878
21
64.4176521
0
LINE
8
0
10
-49.6255878
20
64.4176521
11
-49.6326866
21
64.3637314
0
LINE
8
0
10
-49.6326866
20
64.3637314
11
-49.5545994
21
63.7706032
0
LINE
8
0
10
-49.5545994
20
63.7706032
11
-49.5475006
21
63.7166824
0
LINE
8
0
10
-49.5475006
20
63.7166824
11
-49.3185612
21
63.1639773
0
LINE
8
0
10
-49.3185612
20
63.1639773
11
-49.2977486
21
63.1137314
0
LINE
8
0
10
-49.2977486
20
63.1137314
11
-48.9335597
21
62.6391099
0
LINE
8
0
10
-48.9335597
20
62.6391099
11
-48.9004517
21
62.5959625
0
LINE
8
0
10
-48.9004517
20
62.5959625
11
-48.4258337
21
62.2317737
0
LINE
8
0
10
-48.4258337
20
62.2317737
11
-48.3826866
21
62.1986656
0
LINE
8
0
10
-48.3826866
20
62.1986656
11
-47.829978
21
61.9697297
0
LINE
8
0
10
-47.829978
20
61.9697297
11
-47.7797318
21
61.9489174
0
LINE
8
0
10
-47.7797318
20
61.9489174
11
-47.186607
21
61.8708302
0
LINE
8
0
10
-47.186607
20
61.8708302
11
-47.1326866
21
61.8637314
0
LINE
8
0
10
-47.1326866
20
61.8637314
11
-46.5395584
21
61.9418186
0
LINE
8
0
10
-46.5395584
20
61.9418186
11
-46.4856377
21
61.9489174
0
LINE
8
0
10
-46.4856377
20
61.9489174
11
-45.9329325
21
62.1778533
0
LINE
8
0
10
-45.9329325
20
62.1778533
11
-45.8826866
21
62.1986656
0
LINE
8
0
10
-45.8826866
20
62.1986656
11
-45.4080652
21
62.5628544
0
LINE
8
0
10
-45.4080652
20
62.5628544
11
-45.3649178
21
62.5959625
0
LINE
8
0
10
-45.3649178
20
62.5959625
11
-45.0007289
21
63.070584
0
LINE
8
0
10
-45.0007289
20
63.070584
11
-44.9676208
21
63.1137314
0
LINE
8
0
10
-44.9676208
20
63.1137314
11
-44.738685
21
63.6664365
0
LINE
8
0
10
-44.738685
20
63.6664365
11
-44.7178726
21
63.7166824
0
LINE
8
0
10
-44.7178726
20
63.7166824
11
-44.6397854
21
64.3098106
0
LINE
8
0
10
-44.6397854
20
64.3098106
11
-44.6326866
21
64.3637314
0
LINE
8
0
10
-44.6326866
20
64.3637314
11
-44.7107738
21
64.9568596
0
LINE
8
0
10
-44.7107738
20
64.9568596
11
-44.7178726
21
65.0107803
0
LINE
8
0
10
-44.7178726
20
65.0107803
11
-44.9468085
21
65.5634855
0
LINE
8
0
10
-44.9468085
20
65.5634855
11
-44.9676208
21
65.6137314
0
LINE
8
0
10
-44.9676208
20
65.6137314
11
-45.3318097
21
66.0883528
0
LINE
8
0
10
-45.3318097
20
66.0883528
11
-45.3649178
21
66.1315002
0
LINE
8
0
10
-45.3649178
20
66.1315002
11
-45.8395392
21
66.4956856
0
LINE
8
0
10
-45.8395392
20
66.4956856
11
-45.8826866
21
66.5287933
0
LINE
8
0
10
-45.8826866
20
66.5287933
11
-46.4353917
21
66.7577292
0
LINE
8
0
10
-46.4353917
20
66.7577292
11
-46.4856377
21
66.7785416
0
LINE
8
0
10
-46.4856377
20
66.7785416
11
-47.0787659
21
66.8566322
0
LINE
8
0
10
-47.0787659
20
66.8566322
11
-47.1326866
21
66.8637314
0
LINE
8
0
10
-47.1326866
20
66.8637314
11
-47.7258113
21
66.7856407
0
LINE
8
0
10
-47.7258113
20
66.7856407
11
-47.7797318
21
66.7785416
0
LINE
8
0
10
-47.7797318
20
66.7785416
11
-48.3324404
21
66.5496057
0
LINE
8
0
10
-48.3324404
20
66.5496057
11
-48.3826866
21
66.5287933
0
LINE
8
0
10
-48.3826866
20
66.5287933
11
-48.8573046
21
66.164608
0
LINE
8
0
10
-48.8573046
20
66.164608
11
-48.9004517
21
66.1315002
0
LINE
8
0
10
-48.9004517
20
66.1315002
11
-49.2646405
21
65.6568788
0
LINE
8
0
10
-49.2646405
20
65.6568788
11
-49.2646405
21
65.6568788
0
LINE
8
0
10
24.266246
20
63.6257003
11
24.3229485
21
63.5990181
0
LINE
8
0
10
24.3229485
20
63.5990181
11
25.0000717
21
63.4698496
0
LINE
8
0
10
25.0000717
20
63.4698496
11
25.0616283
21
63.458107
0
LINE
8
0
10
25.0616283
20
63.458107
11
25.7496004
21
63.5013905
0
LINE
8
0
10
25.7496004
20
63.5013905
11
25.8121433
21
63.5053253
0
LINE
8
0
10
25.8121433
20
63.5053253
11
26.4677385
21
63.7183402
0
LINE
8
0
10
26.4677385
20
63.7183402
11
26.527338
21
63.7377052
0
LINE
8
0
10
26.527338
20
63.7377052
11
27.1093604
21
64.1070693
0
LINE
8
0
10
27.1093604
20
64.1070693
11
27.1622715
21
64.1406479
0
LINE
8
0
10
27.1622715
20
64.1406479
11
27.6341532
21
64.6431529
0
LINE
8
0
10
27.6341532
20
64.6431529
11
27.6770515
21
64.6888351
0
LINE
8
0
10
27.6770515
20
64.6888351
11
28.0091397
21
65.2929014
0
LINE
8
0
10
28.0091397
20
65.2929014
11
28.0393295
21
65.3478165
0
LINE
8
0
10
28.0393295
20
65.3478165
11
28.2107587
21
66.0154896
0
LINE
8
0
10
28.2107587
20
66.0154896
11
28.2263432
21
66.0761871
0
LINE
8
0
10
28.2263432
20
66.0761871
11
28.2263432
21
66.7655195
0
LINE
8
0
10
28.2263432
20
66.7655195
11
28.2263432
21
66.828186
0
LINE
8
0
10
28.2263432
20
66.828186
11
28.054914
21
67.4958661
0
LINE
8
0
10
28.054914
20
67.4958661
11
28.0393295
21
67.5565643
0
LINE
8
0
10
28.0393295
20
67.5565643
11
27.7072414
21
68.1606305
0
LINE
8
0
10
27.7072414
20
68.1606305
11
27.6770515
21
68.2155457
0
LINE
8
0
10
27.6770515
20
68.2155457
11
27.2051698
21
68.7180436
0
LINE
8
0
10
27.2051698
20
68.7180436
11
27.1622715
21
68.7637253
0
LINE
8
0
10
27.1622715
20
68.7637253
11
26.5802492
21
69.1330929
0
LINE
8
0
10
26.5802492
20
69.1330929
11
26.527338
21
69.1666718
0
LINE
8
0
10
26.527338
20
69.1666718
11
25.8717429
21
69.3796832
0
LINE
8
0
10
25.8717429
20
69.3796832
11
25.8121433
21
69.3990479
0
LINE
8
0
10
25.8121433
20
69.3990479
11
25.1241713
21
69.4423313
0
LINE
8
0
10
25.1241713
20
69.4423313
11
25.0616283
21
69.4462662
0
LINE
8
0
10
25.0616283
20
69.4462662
11
24.3845051
21
69.3171012
0
LINE
8
0
10
24.3845051
20
69.3171012
11
24.3229485
21
69.3053589
0
LINE
8
0
10
24.3229485
20
69.3053589
11
23.6992215
21
69.011851
0
LINE
8
0
10
23.6992215
20
69.011851
11
23.642519
21
68.9851685
0
LINE
8
0
10
23.642519
20
68.9851685
11
23.1113787
21
68.5457738
0
LINE
8
0
10
23.1113787
20
68.5457738
11
23.0630932
21
68.5058289
0
LINE
8
0
10
23.0630932
20
68.5058289
11
22.6579148
21
67.9481443
0
LINE
8
0
10
22.6579148
20
67.9481443
11
22.6210804
21
67.8974457
0
LINE
8
0
10
22.6210804
20
67.8974457
11
22.3673189
21
67.2565231
0
LINE
8
0
10
22.3673189
20
67.2565231
11
22.3442497
21
67.1982574
0
LINE
8
0
10
22.3442497
20
67.1982574
11
22.2578541
21
66.5143592
0
LINE
8
0
10
22.2578541
20
66.5143592
11
22.25
21
66.4521866
0
LINE
8
0
10
22.25
20
66.4521866
11
22.3363956
21
65.7682883
0
LINE
8
0
10
22.3363956
20
65.7682883
11
22.3442497
21
65.7061157
0
LINE
8
0
10
22.3442497
20
65.7061157
11
22.5980112
21
65.0651932
0
LINE
8
0
10
22.5980112
20
65.0651932
11
22.6210804
21
65.0069275
0
LINE
8
0
10
22.6210804
20
65.0069275
11
23.0262588
21
64.4492429
0
LINE
8
0
10
23.0262588
20
64.4492429
11
23.0630932
21
64.3985443
0
LINE
8
0
10
23.0630932
20
64.3985443
11
23.5942335
21
63.9591497
0
LINE
8
0
10
23.5942335
20
63.9591497
11
23.642519
21
63.9192047
0
LINE
8
0
10
23.642519
20
63.9192047
11
24.266246
21
63.6257003
0
LINE
8
0
10
24.266246
20
63.6257003
11
24.266246
21
63.6257003
0
LINE
8
0
10
49.4054451
20
57.1137314
11
49.372337
21
57.070584
0
LINE
8
0
10
49.372337
20
57.070584
11
49.0081482
21
56.5959625
0
LINE
8
0
10
49.0081482
20
56.5959625
11
48.9650008
21
56.5628544
0
LINE
8
0
10
48.9650008
20
56.5628544
11
48.4903793
21
56.1986656
0
LINE
8
0
10
48.4903793
20
56.1986656
11
48.4401334
21
56.1778533
0
LINE
8
0
10
48.4401334
20
56.1778533
11
47.8874283
21
55.9489174
0
LINE
8
0
10
47.8874283
20
55.9489174
11
47.8335075
21
55.9418186
0
LINE
8
0
10
47.8335075
20
55.9418186
11
47.2403793
21
55.8637314
0
LINE
8
0
10
47.2403793
20
55.8637314
11
47.1864589
21
55.8708302
0
LINE
8
0
10
47.1864589
20
55.8708302
11
46.5933342
21
55.9489174
0
LINE
8
0
10
46.5933342
20
55.9489174
11
46.543088
21
55.9697297
0
LINE
8
0
10
46.543088
20
55.9697297
11
45.9903793
21
56.1986656
0
LINE
8
0
10
45.9903793
20
56.1986656
11
45.9472322
21
56.2317737
0
LINE
8
0
10
45.9472322
20
56.2317737
11
45.4726143
21
56.5959625
0
LINE
8
0
10
45.4726143
20
56.5959625
11
45.4395062
21
56.6391099
0
LINE
8
0
10
45.4395062
20
56.6391099
11
45.0753174
21
57.1137314
0
LINE
8
0
10
45.0753174
20
57.1137314
11
45.0545047
21
57.1639773
0
LINE
8
0
10
45.0545047
20
57.1639773
11
44.8255653
21
57.7166824
0
LINE
8
0
10
44.8255653
20
57.7166824
11
44.8184665
21
57.7706032
0
LINE
8
0
10
44.8184665
20
57.7706032
11
44.7403793
21
58.3637314
0
LINE
8
0
10
44.7403793
20
58.3637314
11
44.7474782
21
58.4176518
0
LINE
8
0
10
44.7474782
20
58.4176518
11
44.8255653
21
59.0107765
0
LINE
8
0
10
44.8255653
20
59.0107765
11
44.846378
21
59.0610228
0
LINE
8
0
10
44.846378
20
59.0610228
11
45.0753174
21
59.6137314
0
LINE
8
0
10
45.0753174
20
59.6137314
11
45.1084255
21
59.6568785
0
LINE
8
0
10
45.1084255
20
59.6568785
11
45.4726143
21
60.1314964
0
LINE
8
0
10
45.4726143
20
60.1314964
11
45.5157614
21
60.1646045
0
LINE
8
0
10
45.5157614
20
60.1646045
11
45.9903793
21
60.5287933
0
LINE
8
0
10
45.9903793
20
60.5287933
11
46.0406256
21
60.549606
0
LINE
8
0
10
46.0406256
20
60.549606
11
46.5933342
21
60.7785454
0
LINE
8
0
10
46.5933342
20
60.7785454
11
46.6472546
21
60.7856442
0
LINE
8
0
10
46.6472546
20
60.7856442
11
47.2403793
21
60.8637314
0
LINE
8
0
10
47.2403793
20
60.8637314
11
47.2943001
21
60.8566326
0
LINE
8
0
10
47.2943001
20
60.8566326
11
47.8874283
21
60.7785454
0
LINE
8
0
10
47.8874283
20
60.7785454
11
47.9376742
21
60.7577327
0
LINE
8
0
10
47.9376742
20
60.7577327
11
48.4903793
21
60.5287933
0
LINE
8
0
10
48.4903793
20
60.5287933
11
48.5335267
21
60.4956853
0
LINE
8
0
10
48.5335267
20
60.4956853
11
49.0081482
21
60.1314964
0
LINE
8
0
10
49.0081482
20
60.1314964
11
49.0412563
21
60.0883493
0
LINE
8
0
10
49.0412563
20
60.0883493
11
49.4054451
21
59.6137314
0
LINE
8
0
10
49.4054451
20
59.6137314
11
49.4262578
21
59.5634851
0
LINE
8
0
10
49.4262578
20
59.5634851
11
49.6551971
21
59.0107765
0
LINE
8
0
10
49.6551971
20
59.0107765
11
49.6622957
21
58.9568561
0
LINE
8
0
10
49.6622957
20
58.9568561
11
49.7403793
21
58.3637314
0
LINE
8
0
10
49.7403793
20
58.3637314
11
49.7332808
21
58.3098106
0
LINE
8
0
10
49.7332808
20
58.3098106
11
49.6551971
21
57.7166824
0
LINE
8
0
10
49.6551971
20
57.7166824
11
49.6343845
21
57.6664365
0
LINE
8
0
10
49.6343845
20
57.6664365
11
49.4054451
21
57.1137314
0
LINE
8
0
10
49.4054451
20
57.1137314
11
49.4054451
21
57.1137314
0
LINE
8
0
10
-15.7337531
20
63.6257003
11
-15.6770506
21
63.5990181
0
LINE
8
0
10
-15.6770506
20
63.5990181
11
-14.9999282
21
63.4698496
0
LINE
8
0
10
-14.9999282
20
63.4698496
11
-14.9383717
21
63.458107
0
LINE
8
0
10
-14.9383717
20
63.458107
11
-14.2503987
21
63.5013905
0
LINE
8
0
10
-14.2503987
20
63.5013905
11
-14.1878557
21
63.5053253
0
LINE
8
0
10
-14.1878557
20
63.5053253
11
-13.5322615
21
63.7183402
0
LINE
8
0
10
-13.5322615
20
63.7183402
11
-13.472662
21
63.7377052
0
LINE
8
0
10
-13.472662
20
63.7377052
11
-12.8906396
21
64.1070693
0
LINE
8
0
10
-12.8906396
20
64.1070693
11
-12.8377285
21
64.1406479
0
LINE
8
0
10
-12.8377285
20
64.1406479
11
-12.3658477
21
64.6431529
0
LINE
8
0
10
-12.3658477
20
64.6431529
11
-12.3229494
21
64.6888351
0
LINE
8
0
10
-12.3229494
20
64.6888351
11
-11.9908604
21
65.2929014
0
LINE
8
0
10
-11.9908604
20
65.2929014
11
-11.9606705
21
65.3478165
0
LINE
8
0
10
-11.9606705
20
65.3478165
11
-11.7892404
21
66.0154896
0
LINE
8
0
10
-11.7892404
20
66.0154896
11
-11.7736559
21
66.0761871
0
LINE
8
0
10
-11.7736559
20
66.0761871
11
-11.7736559
21
66.7655195
0
LINE
8
0
10
-11.7736559
20
66.7655195
11
-11.7736559
21
66.828186
0
LINE
8
0
10
-11.7736559
20
66.828186
11
-11.9450859
21
67.4958661
0
LINE
8
0
10
-11.9450859
20
67.4958661
11
-11.9606705
21
67.5565643
0
LINE
8
0
10
-11.9606705
20
67.5565643
11
-12.2927595
21
68.1606305
0
LINE
8
0
10
-12.2927595
20
68.1606305
11
-12.3229494
21
68.2155457
0
LINE
8
0
10
-12.3229494
20
68.2155457
11
-12.7948302
21
68.7180436
0
LINE
8
0
10
-12.7948302
20
68.7180436
11
-12.8377285
21
68.7637253
0
LINE
8
0
10
-12.8377285
20
68.7637253
11
-13.4197508
21
69.1330929
0
LINE
8
0
10
-13.4197508
20
69.1330929
11
-13.472662
21
69.1666718
0
LINE
8
0
10
-13.472662
20
69.1666718
11
-14.1282562
21
69.3796832
0
LINE
8
0
10
-14.1282562
20
69.3796832
11
-14.1878557
21
69.3990479
0
LINE
8
0
10
-14.1878557
20
69.3990479
11
-14.8758287
21
69.4423313
0
LINE
8
0
10
-14.8758287
20
69.4423313
11
-14.9383717
21
69.4462662
0
LINE
8
0
10
-14.9383717
20
69.4462662
11
-15.615494
21
69.3171012
0
LINE
8
0
10
-15.615494
20
69.3171012
11
-15.6770506
21
69.3053589
0
LINE
8
0
10
-15.6770506
20
69.3053589
11
-16.3007785
21
69.011851
0
LINE
8
0
10
-16.3007785
20
69.011851
11
-16.357481
21
68.9851685
0
LINE
8
0
10
-16.357481
20
68.9851685
11
-16.8886213
21
68.5457738
0
LINE
8
0
10
-16.8886213
20
68.5457738
11
-16.9369068
21
68.5058289
0
LINE
8
0
10
-16.9369068
20
68.5058289
11
-17.3420852
21
67.9481443
0
LINE
8
0
10
-17.3420852
20
67.9481443
11
-17.3789196
21
67.8974457
0
LINE
8
0
10
-17.3789196
20
67.8974457
11
-17.6326811
21
67.2565231
0
LINE
8
0
10
-17.6326811
20
67.2565231
11
-17.6557503
21
67.1982574
0
LINE
8
0
10
-17.6557503
20
67.1982574
11
-17.7421459
21
66.5143592
0
LINE
8
0
10
-17.7421459
20
66.5143592
11
-17.75
21
66.4521866
0
LINE
8
0
10
-17.75
20
66.4521866
11
-17.6636044
21
65.7682883
0
LINE
8
0
10
-17.6636044
20
65.7682883
11
-17.6557503
21
65.7061157
0
LINE
8
0
10
-17.6557503
20
65.7061157
11
-17.4019888
21
65.0651932
0
LINE
8
0
10
-17.4019888
20
65.0651932
11
-17.3789196
21
65.0069275
0
LINE
8
0
10
-17.3789196
20
65.0069275
11
-16.9737412
21
64.4492429
0
LINE
8
0
10
-16.9737412
20
64.4492429
11
-16.9369068
21
64.3985443
0
LINE
8
0
10
-16.9369068
20
64.3985443
11
-16.4057665
21
63.9591497
0
LINE
8
0
10
-16.4057665
20
63.9591497
11
-16.357481
21
63.9192047
0
LINE
8
0
10
-16.357481
20
63.9192047
11
-15.7337531
21
63.6257003
0
LINE
8
0
10
-15.7337531
20
63.6257003
11
-15.7337531
21
63.6257003
0
LINE
8
0
10
-4.375
20
108.952187
11
-9.25
21
108.952187
0
LINE
8
0
10
-9.25
20
108.952187
11
-9.25
21
108.202187
0
LINE
8
0
10
-9.25
20
108.202187
11
-12.75
21
108.202187
0
LINE
8
0
10
-12.75
20
108.202187
11
-13.25
21
108.202187
0
LINE
8
0
10
-13.25
20
108.202187
11
-13.25
21
125.702193
0
LINE
8
0
10
-13.25
20
125.702193
11
-13.25
21
128.952194
0
LINE
8
0
10
-13.25
20
128.952194
11
-12.25
21
128.952194
0
LINE
8
0
10
-12.25
20
128.952194
11
-5
21
128.952194
0
LINE
8
0
10
-5
20
128.952194
11
22.75
21
128.952194
0
LINE
8
0
10
22.75
20
128.952194
11
23.75
21
128.952194
0
LINE
8
0
10
23.75
20
128.952194
11
23.75
21
125.702193
0
LINE
8
0
10
23.75
20
125.702193
11
23.75
21
108.202187
0
LINE
8
0
10
23.75
20
108.202187
11
20.25
21
108.202187
0
LINE
8
0
10
20.25
20
108.202187
11
19.75
21
108.202187
0
LINE
8
0
10
19.75
20
108.202187
11
19.75
21
108.952187
0
LINE
8
0
10
19.75
20
108.952187
11
18.125
21
108.952187
0
LINE
8
0
10
18.125
20
108.952187
11
13.25
21
108.952187
0
LINE
8
0
10
13.25
20
108.952187
11
13.25
21
105.952187
0
LINE
8
0
10
13.25
20
105.952187
11
13.25
21
96.9521866
0
LINE
8
0
10
13.25
20
96.9521866
11
14.875
21
96.9521866
0
LINE
8
0
10
14.875
20
96.9521866
11
19.75
21
96.9521866
0
LINE
8
0
10
19.75
20
96.9521866
11
19.75
21
97.7021866
0
LINE
8
0
10
19.75
20
97.7021866
11
23.25
21
97.7021866
0
LINE
8
0
10
23.25
20
97.7021866
11
23.75
21
97.7021866
0
LINE
8
0
10
23.75
20
97.7021866
11
23.75
21
86.3271866
0
LINE
8
0
10
23.75
20
86.3271866
11
23.75
21
83.9521866
0
LINE
8
0
10
23.75
20
83.9521866
11
26.9166667
21
83.9521866
0
LINE
8
0
10
26.9166667
20
83.9521866
11
61.75
21
83.9521866
0
LINE
8
0
10
61.75
20
83.9521866
11
70.9166667
21
74.7855199
0
LINE
8
0
10
70.9166667
20
74.7855199
11
71.75
21
73.9521866
0
LINE
8
0
10
71.75
20
73.9521866
11
71.75
21
72.7021866
0
LINE
8
0
10
71.75
20
72.7021866
11
71.75
21
58.9521866
0
LINE
8
0
10
71.75
20
58.9521866
11
62.5833333
21
49.7855199
0
LINE
8
0
10
62.5833333
20
49.7855199
11
61.75
21
48.9521866
0
LINE
8
0
10
61.75
20
48.9521866
11
51.25
21
48.9521866
0
LINE
8
0
10
51.25
20
48.9521866
11
44
21
48.9521866
0
LINE
8
0
10
44
20
48.9521866
11
-40.75
21
48.9521866
0
LINE
8
0
10
-40.75
20
48.9521866
11
-51.25
21
48.9521866
0
LINE
8
0
10
-51.25
20
48.9521866
11
-60.4166667
21
58.1188533
0
LINE
8
0
10
-60.4166667
20
58.1188533
11
-61.25
21
58.9521866
0
LINE
8
0
10
-61.25
20
58.9521866
11
-61.25
21
60.2021866
0
LINE
8
0
10
-61.25
20
60.2021866
11
-61.25
21
73.9521866
0
LINE
8
0
10
-61.25
20
73.9521866
11
-52.0833333
21
83.1188533
0
LINE
8
0
10
-52.0833333
20
83.1188533
11
-51.25
21
83.9521866
0
LINE
8
0
10
-51.25
20
83.9521866
11
-48.0833333
21
83.9521866
0
LINE
8
0
10
-48.0833333
20
83.9521866
11
-13.25
21
83.9521866
0
LINE
8
0
10
-13.25
20
83.9521866
11
-13.25
21
86.3271866
0
LINE
8
0
10
-13.25
20
86.3271866
11
-13.25
21
97.7021866
0
LINE
8
0
10
-13.25
20
97.7021866
11
-9.75
21
97.7021866
0
LINE
8
0
10
-9.75
20
97.7021866
11
-9.25
21
97.7021866
0
LINE
8
0
10
-9.25
20
97.7021866
11
-9.25
21
96.9521866
0
LINE
8
0
10
-9.25
20
96.9521866
11
-7.625
21
96.9521866
0
LINE
8
0
10
-7.625
20
96.9521866
11
-2.75
21
96.9521866
0
LINE
8
0
10
-2.75
20
96.9521866
11
-2.75
21
99.9521866
0
LINE
8
0
10
-2.75
20
99.9521866
11
-2.75
21
108.952187
0
LINE
8
0
10
-2.75
20
108.952187
11
-4.375
21
108.952187
0
LINE
8
0
10
-4.375
20
108.952187
11
-4.375
21
108.952187
0
LINE
8
0
10
56.9856377
20
66.7785416
11
57.0395584
21
66.7856407
0
LINE
8
0
10
57.0395584
20
66.7856407
11
57.6326866
21
66.8637314
0
LINE
8
0
10
57.6326866
20
66.8637314
11
57.686607
21
66.8566322
0
LINE
8
0
10
57.686607
20
66.8566322
11
58.2797318
21
66.7785416
0
LINE
8
0
10
58.2797318
20
66.7785416
11
58.329978
21
66.7577292
0
LINE
8
0
10
58.329978
20
66.7577292
11
58.8826866
21
66.5287933
0
LINE
8
0
10
58.8826866
20
66.5287933
11
58.9258337
21
66.4956856
0
LINE
8
0
10
58.9258337
20
66.4956856
11
59.4004517
21
66.1315002
0
LINE
8
0
10
59.4004517
20
66.1315002
11
59.4335597
21
66.0883528
0
LINE
8
0
10
59.4335597
20
66.0883528
11
59.7977486
21
65.6137314
0
LINE
8
0
10
59.7977486
20
65.6137314
11
59.8185612
21
65.5634855
0
LINE
8
0
10
59.8185612
20
65.5634855
11
60.0475006
21
65.0107803
0
LINE
8
0
10
60.0475006
20
65.0107803
11
60.0545994
21
64.9568596
0
LINE
8
0
10
60.0545994
20
64.9568596
11
60.1326866
21
64.3637314
0
LINE
8
0
10
60.1326866
20
64.3637314
11
60.1255878
21
64.3098106
0
LINE
8
0
10
60.1255878
20
64.3098106
11
60.0475006
21
63.7166824
0
LINE
8
0
10
60.0475006
20
63.7166824
11
60.0266879
21
63.6664365
0
LINE
8
0
10
60.0266879
20
63.6664365
11
59.7977486
21
63.1137314
0
LINE
8
0
10
59.7977486
20
63.1137314
11
59.7646405
21
63.070584
0
LINE
8
0
10
59.7646405
20
63.070584
11
59.4004517
21
62.5959625
0
LINE
8
0
10
59.4004517
20
62.5959625
11
59.3573046
21
62.5628544
0
LINE
8
0
10
59.3573046
20
62.5628544
11
58.8826866
21
62.1986656
0
LINE
8
0
10
58.8826866
20
62.1986656
11
58.8324404
21
62.1778533
0
LINE
8
0
10
58.8324404
20
62.1778533
11
58.2797318
21
61.9489174
0
LINE
8
0
10
58.2797318
20
61.9489174
11
58.2258113
21
61.9418186
0
LINE
8
0
10
58.2258113
20
61.9418186
11
57.6326866
21
61.8637314
0
LINE
8
0
10
57.6326866
20
61.8637314
11
57.5787659
21
61.8708302
0
LINE
8
0
10
57.5787659
20
61.8708302
11
56.9856377
21
61.9489174
0
LINE
8
0
10
56.9856377
20
61.9489174
11
56.9353917
21
61.9697297
0
LINE
8
0
10
56.9353917
20
61.9697297
11
56.3826866
21
62.1986656
0
LINE
8
0
10
56.3826866
20
62.1986656
11
56.3395392
21
62.2317737
0
LINE
8
0
10
56.3395392
20
62.2317737
11
55.8649178
21
62.5959625
0
LINE
8
0
10
55.8649178
20
62.5959625
11
55.8318097
21
62.6391099
0
LINE
8
0
10
55.8318097
20
62.6391099
11
55.4676208
21
63.1137314
0
LINE
8
0
10
55.4676208
20
63.1137314
11
55.4468085
21
63.1639773
0
LINE
8
0
10
55.4468085
20
63.1639773
11
55.2178726
21
63.7166824
0
LINE
8
0
10
55.2178726
20
63.7166824
11
55.2107738
21
63.7706032
0
LINE
8
0
10
55.2107738
20
63.7706032
11
55.1326866
21
64.3637314
0
LINE
8
0
10
55.1326866
20
64.3637314
11
55.1397854
21
64.4176521
0
LINE
8
0
10
55.1397854
20
64.4176521
11
55.2178726
21
65.0107803
0
LINE
8
0
10
55.2178726
20
65.0107803
11
55.238685
21
65.0610263
0
LINE
8
0
10
55.238685
20
65.0610263
11
55.4676208
21
65.6137314
0
LINE
8
0
10
55.4676208
20
65.6137314
11
55.5007289
21
65.6568788
0
LINE
8
0
10
55.5007289
20
65.6568788
11
55.8649178
21
66.1315002
0
LINE
8
0
10
55.8649178
20
66.1315002
11
55.9080652
21
66.164608
0
LINE
8
0
10
55.9080652
20
66.164608
11
56.3826866
21
66.5287933
0
LINE
8
0
10
56.3826866
20
66.5287933
11
56.4329325
21
66.5496057
0
LINE
8
0
10
56.4329325
20
66.5496057
11
56.9856377
21
66.7785416
0
LINE
8
0
10
56.9856377
20
66.7785416
11
56.9856377
21
66.7785416
0
LINE
8
0
10
14.5459677
20
87.1045809
11
14.6624653
21
87.1939735
0
LINE
8
0
10
14.6624653
20
87.1939735
11
15.1023256
21
87.4479275
0
LINE
8
0
10
15.1023256
20
87.4479275
11
15.2379899
21
87.5041208
0
LINE
8
0
10
15.2379899
20
87.5041208
11
15.7245587
21
87.6497898
0
LINE
8
0
10
15.7245587
20
87.6497898
11
15.8701444
21
87.6689558
0
LINE
8
0
10
15.8701444
20
87.6689558
11
16.3771915
21
87.6984863
0
LINE
8
0
10
16.3771915
20
87.6984863
11
16.5227776
21
87.6793203
0
LINE
8
0
10
16.5227776
20
87.6793203
11
17.0229678
21
87.5911245
0
LINE
8
0
10
17.0229678
20
87.5911245
11
17.1586318
21
87.5349312
0
LINE
8
0
10
17.1586318
20
87.5349312
11
17.625
21
87.3337584
0
LINE
8
0
10
17.625
20
87.3337584
11
18.0324037
21
87.0304565
0
LINE
8
0
10
18.0324037
20
87.0304565
11
18.148901
21
86.9410639
0
LINE
8
0
10
18.148901
20
86.9410639
11
18.4753771
21
86.5519838
0
LINE
8
0
10
18.4753771
20
86.5519838
11
18.564769
21
86.4354858
0
LINE
8
0
10
18.564769
20
86.4354858
11
18.7927163
21
85.9816084
0
LINE
8
0
10
18.7927163
20
85.9816084
11
18.8489103
21
85.8459444
0
LINE
8
0
10
18.8489103
20
85.8459444
11
18.9660418
21
85.3517265
0
LINE
8
0
10
18.9660418
20
85.3517265
11
18.9852085
21
85.2061405
0
LINE
8
0
10
18.9852085
20
85.2061405
11
18.9852085
21
84.6982327
0
LINE
8
0
10
18.9852085
20
84.6982327
11
18.9660418
21
84.5526466
0
LINE
8
0
10
18.9660418
20
84.5526466
11
18.8489103
21
84.0584335
0
LINE
8
0
10
18.8489103
20
84.0584335
11
18.7927163
21
83.9227695
0
LINE
8
0
10
18.7927163
20
83.9227695
11
18.564769
21
83.4688873
0
LINE
8
0
10
18.564769
20
83.4688873
11
18.4753771
21
83.3523893
0
LINE
8
0
10
18.4753771
20
83.3523893
11
18.148901
21
82.9633093
0
LINE
8
0
10
18.148901
20
82.9633093
11
18.0324037
21
82.8739195
0
LINE
8
0
10
18.0324037
20
82.8739195
11
17.625
21
82.5706177
0
LINE
8
0
10
17.625
20
82.5706177
11
17.1586318
21
82.3694448
0
LINE
8
0
10
17.1586318
20
82.3694448
11
17.0229678
21
82.3132486
0
LINE
8
0
10
17.0229678
20
82.3132486
11
16.5227776
21
82.2250528
0
LINE
8
0
10
16.5227776
20
82.2250528
11
16.3771915
21
82.2058868
0
LINE
8
0
10
16.3771915
20
82.2058868
11
15.8701444
21
82.2354221
0
LINE
8
0
10
15.8701444
20
82.2354221
11
15.7245587
21
82.2545881
0
LINE
8
0
10
15.7245587
20
82.2545881
11
15.2379899
21
82.4002571
0
LINE
8
0
10
15.2379899
20
82.4002571
11
15.1023256
21
82.4564533
0
LINE
8
0
10
15.1023256
20
82.4564533
11
14.6624653
21
82.7104025
0
LINE
8
0
10
14.6624653
20
82.7104025
11
14.5459677
21
82.7997923
0
LINE
8
0
10
14.5459677
20
82.7997923
11
14.1765304
21
83.1483412
0
LINE
8
0
10
14.1765304
20
83.1483412
11
14.0871388
21
83.2648392
0
LINE
8
0
10
14.0871388
20
83.2648392
11
13.8080394
21
83.6891909
0
LINE
8
0
10
13.8080394
20
83.6891909
11
13.7518454
21
83.8248549
0
LINE
8
0
10
13.7518454
20
83.8248549
11
13.5781312
21
84.3021307
0
LINE
8
0
10
13.5781312
20
84.3021307
11
13.5589645
21
84.4477167
0
LINE
8
0
10
13.5589645
20
84.4477167
11
13.5
21
84.9521866
0
LINE
8
0
10
13.5
20
84.9521866
11
13.5589645
21
85.4566612
0
LINE
8
0
10
13.5589645
20
85.4566612
11
13.5781312
21
85.6022472
0
LINE
8
0
10
13.5781312
20
85.6022472
11
13.7518454
21
86.0795231
0
LINE
8
0
10
13.7518454
20
86.0795231
11
13.8080394
21
86.2151871
0
LINE
8
0
10
13.8080394
20
86.2151871
11
14.0871388
21
86.639534
0
LINE
8
0
10
14.0871388
20
86.639534
11
14.1765304
21
86.756032
0
LINE
8
0
10
14.1765304
20
86.756032
11
14.5459677
21
87.1045809
0
LINE
8
0
10
14.5459677
20
87.1045809
11
14.5459677
21
87.1045809
0
LINE
8
0
10
14.5459677
20
127.104581
11
14.6624653
21
127.193974
0
LINE
8
0
10
14.6624653
20
127.193974
11
15.1023256
21
127.447923
0
LINE
8
0
10
15.1023256
20
127.447923
11
15.2379899
21
127.504116
0
LINE
8
0
10
15.2379899
20
127.504116
11
15.7245587
21
127.64979
0
LINE
8
0
10
15.7245587
20
127.64979
11
15.8701444
21
127.668956
0
LINE
8
0
10
15.8701444
20
127.668956
11
16.3771915
21
127.698482
0
LINE
8
0
10
16.3771915
20
127.698482
11
16.5227776
21
127.679316
0
LINE
8
0
10
16.5227776
20
127.679316
11
17.0229678
21
127.59112
0
LINE
8
0
10
17.0229678
20
127.59112
11
17.1586318
21
127.534926
0
LINE
8
0
10
17.1586318
20
127.534926
11
17.625
21
127.333758
0
LINE
8
0
10
17.625
20
127.333758
11
18.0324037
21
127.030457
0
LINE
8
0
10
18.0324037
20
127.030457
11
18.148901
21
126.941064
0
LINE
8
0
10
18.148901
20
126.941064
11
18.4753771
21
126.551984
0
LINE
8
0
10
18.4753771
20
126.551984
11
18.564769
21
126.435486
0
LINE
8
0
10
18.564769
20
126.435486
11
18.7927163
21
125.981608
0
LINE
8
0
10
18.7927163
20
125.981608
11
18.8489103
21
125.845944
0
LINE
8
0
10
18.8489103
20
125.845944
11
18.9660418
21
125.351727
0
LINE
8
0
10
18.9660418
20
125.351727
11
18.9852085
21
125.206141
0
LINE
8
0
10
18.9852085
20
125.206141
11
18.9852085
21
124.698233
0
LINE
8
0
10
18.9852085
20
124.698233
11
18.9660418
21
124.552647
0
LINE
8
0
10
18.9660418
20
124.552647
11
18.8489103
21
124.058434
0
LINE
8
0
10
18.8489103
20
124.058434
11
18.7927163
21
123.92277
0
LINE
8
0
10
18.7927163
20
123.92277
11
18.564769
21
123.468887
0
LINE
8
0
10
18.564769
20
123.468887
11
18.4753771
21
123.352389
0
LINE
8
0
10
18.4753771
20
123.352389
11
18.148901
21
122.963309
0
LINE
8
0
10
18.148901
20
122.963309
11
18.0324037
21
122.873919
0
LINE
8
0
10
18.0324037
20
122.873919
11
17.625
21
122.570618
0
LINE
8
0
10
17.625
20
122.570618
11
17.1586318
21
122.369445
0
LINE
8
0
10
17.1586318
20
122.369445
11
17.0229678
21
122.313249
0
LINE
8
0
10
17.0229678
20
122.313249
11
16.5227776
21
122.225053
0
LINE
8
0
10
16.5227776
20
122.225053
11
16.3771915
21
122.205887
0
LINE
8
0
10
16.3771915
20
122.205887
11
15.8701444
21
122.235422
0
LINE
8
0
10
15.8701444
20
122.235422
11
15.7245587
21
122.254588
0
LINE
8
0
10
15.7245587
20
122.254588
11
15.2379899
21
122.400257
0
LINE
8
0
10
15.2379899
20
122.400257
11
15.1023256
21
122.456453
0
LINE
8
0
10
15.1023256
20
122.456453
11
14.6624653
21
122.710402
0
LINE
8
0
10
14.6624653
20
122.710402
11
14.5459677
21
122.799792
0
LINE
8
0
10
14.5459677
20
122.799792
11
14.1765304
21
123.148341
0
LINE
8
0
10
14.1765304
20
123.148341
11
14.0871388
21
123.264839
0
LINE
8
0
10
14.0871388
20
123.264839
11
13.8080394
21
123.689191
0
LINE
8
0
10
13.8080394
20
123.689191
11
13.7518454
21
123.824855
0
LINE
8
0
10
13.7518454
20
123.824855
11
13.5781312
21
124.302131
0
LINE
8
0
10
13.5781312
20
124.302131
11
13.5589645
21
124.447717
0
LINE
8
0
10
13.5589645
20
124.447717
11
13.5
21
124.952187
0
LINE
8
0
10
13.5
20
124.952187
11
13.5589645
21
125.456661
0
LINE
8
0
10
13.5589645
20
125.456661
11
13.5781312
21
125.602247
0
LINE
8
0
10
13.5781312
20
125.602247
11
13.7518454
21
126.079523
0
LINE
8
0
10
13.7518454
20
126.079523
11
13.8080394
21
126.215187
0
LINE
8
0
10
13.8080394
20
126.215187
11
14.0871388
21
126.639534
0
LINE
8
0
10
14.0871388
20
126.639534
11
14.1765304
21
126.756032
0
LINE
8
0
10
14.1765304
20
126.756032
11
14.5459677
21
127.104581
0
LINE
8
0
10
14.5459677
20
127.104581
11
14.5459677
21
127.104581
0
LINE
8
0
10
-4.16246563
20
87.1939735
11
-4.60232556
21
87.4479275
0
LINE
8
0
10
-4.60232556
20
87.4479275
11
-4.7379899
21
87.5041208
0
LINE
8
0
10
-4.7379899
20
87.5041208
11
-5.22455901
21
87.6497898
0
LINE
8
0
10
-5.22455901
20
87.6497898
11
-5.37014467
21
87.6689558
0
LINE
8
0
10
-5.37014467
20
87.6689558
11
-5.87719184
21
87.6984863
0
LINE
8
0
10
-5.87719184
20
87.6984863
11
-6.0227775
21
87.6793203
0
LINE
8
0
10
-6.0227775
20
87.6793203
11
-6.52296776
21
87.5911245
0
LINE
8
0
10
-6.52296776
20
87.5911245
11
-6.6586321
21
87.5349312
0
LINE
8
0
10
-6.6586321
20
87.5349312
11
-7.125
21
87.3337584
0
LINE
8
0
10
-7.125
20
87.3337584
11
-7.53240371
21
87.0304565
0
LINE
8
0
10
-7.53240371
20
87.0304565
11
-7.64890134
21
86.9410639
0
LINE
8
0
10
-7.64890134
20
86.9410639
11
-7.97537744
21
86.5519838
0
LINE
8
0
10
-7.97537744
20
86.5519838
11
-8.06476903
21
86.4354858
0
LINE
8
0
10
-8.06476903
20
86.4354858
11
-8.29271686
21
85.9816084
0
LINE
8
0
10
-8.29271686
20
85.9816084
11
-8.34891093
21
85.8459444
0
LINE
8
0
10
-8.34891093
20
85.8459444
11
-8.4660424
21
85.3517265
0
LINE
8
0
10
-8.4660424
20
85.3517265
11
-8.48520911
21
85.2061405
0
LINE
8
0
10
-8.48520911
20
85.2061405
11
-8.48520911
21
84.6982327
0
LINE
8
0
10
-8.48520911
20
84.6982327
11
-8.4660424
21
84.5526466
0
LINE
8
0
10
-8.4660424
20
84.5526466
11
-8.34891093
21
84.0584335
0
LINE
8
0
10
-8.34891093
20
84.0584335
11
-8.29271686
21
83.9227695
0
LINE
8
0
10
-8.29271686
20
83.9227695
11
-8.06476903
21
83.4688873
0
LINE
8
0
10
-8.06476903
20
83.4688873
11
-7.97537744
21
83.3523893
0
LINE
8
0
10
-7.97537744
20
83.3523893
11
-7.64890134
21
82.9633093
0
LINE
8
0
10
-7.64890134
20
82.9633093
11
-7.53240371
21
82.8739195
0
LINE
8
0
10
-7.53240371
20
82.8739195
11
-7.125
21
82.5706177
0
LINE
8
0
10
-7.125
20
82.5706177
11
-6.6586321
21
82.3694448
0
LINE
8
0
10
-6.6586321
20
82.3694448
11
-6.52296776
21
82.3132486
0
LINE
8
0
10
-6.52296776
20
82.3132486
11
-6.0227775
21
82.2250528
0
LINE
8
0
10
-6.0227775
20
82.2250528
11
-5.87719184
21
82.2058868
0
LINE
8
0
10
-5.87719184
20
82.2058868
11
-5.37014467
21
82.2354221
0
LINE
8
0
10
-5.37014467
20
82.2354221
11
-5.22455901
21
82.2545881
0
LINE
8
0
10
-5.22455901
20
82.2545881
11
-4.7379899
21
82.4002571
0
LINE
8
0
10
-4.7379899
20
82.4002571
11
-4.60232556
21
82.4564533
0
LINE
8
0
10
-4.60232556
20
82.4564533
11
-4.16246563
21
82.7104025
0
LINE
8
0
10
-4.16246563
20
82.7104025
11
-4.045968
21
82.7997923
0
LINE
8
0
10
-4.045968
20
82.7997923
11
-3.67653021
21
83.1483412
0
LINE
8
0
10
-3.67653021
20
83.1483412
11
-3.58713862
21
83.2648392
0
LINE
8
0
10
-3.58713862
20
83.2648392
11
-3.30803943
21
83.6891909
0
LINE
8
0
10
-3.30803943
20
83.6891909
11
-3.25184536
21
83.8248549
0
LINE
8
0
10
-3.25184536
20
83.8248549
11
-3.07813105
21
84.3021307
0
LINE
8
0
10
-3.07813105
20
84.3021307
11
-3.05896434
21
84.4477167
0
LINE
8
0
10
-3.05896434
20
84.4477167
11
-3
21
84.9521866
0
LINE
8
0
10
-3
20
84.9521866
11
-3.05896434
21
85.4566612
0
LINE
8
0
10
-3.05896434
20
85.4566612
11
-3.07813105
21
85.6022472
0
LINE
8
0
10
-3.07813105
20
85.6022472
11
-3.25184536
21
86.0795231
0
LINE
8
0
10
-3.25184536
20
86.0795231
11
-3.30803943
21
86.2151871
0
LINE
8
0
10
-3.30803943
20
86.2151871
11
-3.58713862
21
86.639534
0
LINE
8
0
10
-3.58713862
20
86.639534
11
-3.67653021
21
86.756032
0
LINE
8
0
10
-3.67653021
20
86.756032
11
-4.045968
21
87.1045809
0
LINE
8
0
10
-4.045968
20
87.1045809
11
-4.16246563
21
87.1939735
0
LINE
8
0
10
-4.16246563
20
87.1939735
11
-4.16246563
21
87.1939735
0
LINE
8
0
10
-4.16246563
20
127.193974
11
-4.60232556
21
127.447923
0
LINE
8
0
10
-4.60232556
20
127.447923
11
-4.7379899
21
127.504116
0
LINE
8
0
10
-4.7379899
20
127.504116
11
-5.22455901
21
127.64979
0
LINE
8
0
10
-5.22455901
20
127.64979
11
-5.37014467
21
127.668956
0
LINE
8
0
10
-5.37014467
20
127.668956
11
-5.87719184
21
127.698482
0
LINE
8
0
10
-5.87719184
20
127.698482
11
-6.0227775
21
127.679316
0
LINE
8
0
10
-6.0227775
20
127.679316
11
-6.52296776
21
127.59112
0
LINE
8
0
10
-6.52296776
20
127.59112
11
-6.6586321
21
127.534926
0
LINE
8
0
10
-6.6586321
20
127.534926
11
-7.125
21
127.333758
0
LINE
8
0
10
-7.125
20
127.333758
11
-7.53240371
21
127.030457
0
LINE
8
0
10
-7.53240371
20
127.030457
11
-7.64890134
21
126.941064
0
LINE
8
0
10
-7.64890134
20
126.941064
11
-7.97537744
21
126.551984
0
LINE
8
0
10
-7.97537744
20
126.551984
11
-8.06476903
21
126.435486
0
LINE
8
0
10
-8.06476903
20
126.435486
11
-8.29271686
21
125.981608
0
LINE
8
0
10
-8.29271686
20
125.981608
11
-8.34891093
21
125.845944
0
LINE
8
0
10
-8.34891093
20
125.845944
11
-8.4660424
21
125.351727
0
LINE
8
0
10
-8.4660424
20
125.351727
11
-8.48520911
21
125.206141
0
LINE
8
0
10
-8.48520911
20
125.206141
11
-8.48520911
21
124.698233
0
LINE
8
0
10
-8.48520911
20
124.698233
11
-8.4660424
21
124.552647
0
LINE
8
0
10
-8.4660424
20
124.552647
11
-8.34891093
21
124.058434
0
LINE
8
0
10
-8.34891093
20
124.058434
11
-8.29271686
21
123.92277
0
LINE
8
0
10
-8.29271686
20
123.92277
11
-8.06476903
21
123.468887
0
LINE
8
0
10
-8.06476903
20
123.468887
11
-7.97537744
21
123.352389
0
LINE
8
0
10
-7.97537744
20
123.352389
11
-7.64890134
21
122.963309
0
LINE
8
0
10
-7.64890134
20
122.963309
11
-7.53240371
21
122.873919
0
LINE
8
0
10
-7.53240371
20
122.873919
11
-7.125
21
122.570618
0
LINE
8
0
10
-7.125
20
122.570618
11
-6.6586321
21
122.369445
0
LINE
8
0
10
-6.6586321
20
122.369445
11
-6.52296776
21
122.313249
0
LINE
8
0
10
-6.52296776
20
122.313249
11
-6.0227775
21
122.225053
0
LINE
8
0
10
-6.0227775
20
122.225053
11
-5.87719184
21
122.205887
0
LINE
8
0
10
-5.87719184
20
122.205887
11
-5.37014467
21
122.235422
0
LINE
8
0
10
-5.37014467
20
122.235422
11
-5.22455901
21
122.254588
0
LINE
8
0
10
-5.22455901
20
122.254588
11
-4.7379899
21
122.400257
0
LINE
8
0
10
-4.7379899
20
122.400257
11
-4.60232556
21
122.456453
0
LINE
8
0
10
-4.60232556
20
122.456453
11
-4.16246563
21
122.710402
0
LINE
8
0
10
-4.16246563
20
122.710402
11
-4.045968
21
122.799792
0
LINE
8
0
10
-4.045968
20
122.799792
11
-3.67653021
21
123.148341
0
LINE
8
0
10
-3.67653021
20
123.148341
11
-3.58713862
21
123.264839
0
LINE
8
0
10
-3.58713862
20
123.264839
11
-3.30803943
21
123.689191
0
LINE
8
0
10
-3.30803943
20
123.689191
11
-3.25184536
21
123.824855
0
LINE
8
0
10
-3.25184536
20
123.824855
11
-3.07813105
21
124.302131
0
LINE
8
0
10
-3.07813105
20
124.302131
11
-3.05896434
21
124.447717
0
LINE
8
0
10
-3.05896434
20
124.447717
11
-3
21
124.952187
0
LINE
8
0
10
-3
20
124.952187
11
-3.05896434
21
125.456661
0
LINE
8
0
10
-3.05896434
20
125.456661
11
-3.07813105
21
125.602247
0
LINE
8
0
10
-3.07813105
20
125.602247
11
-3.25184536
21
126.079523
0
LINE
8
0
10
-3.25184536
20
126.079523
11
-3.30803943
21
126.215187
0
LINE
8
0
10
-3.30803943
20
126.215187
11
-3.58713862
21
126.639534
0
LINE
8
0
10
-3.58713862
20
126.639534
11
-3.67653021
21
126.756032
0
LINE
8
0
10
-3.67653021
20
126.756032
11
-4.045968
21
127.104581
0
LINE
8
0
10
-4.045968
20
127.104581
11
-4.16246563
21
127.193974
0
LINE
8
0
10
-4.16246563
20
127.193974
11
-4.16246563
21
127.193974
0
ENDSEC
0
EOF
