0
SECTION
2
ENTITIES
0
LINE
8
0
10
-39.1551971
20
59.0107765
11
-38.9470704
21
59.5132389
0
LINE
8
0
10
-38.9470704
20
59.5132389
11
-38.9054451
21
59.6137314
0
LINE
8
0
10
-38.9054451
20
59.6137314
11
-38.5743643
21
60.0452023
0
LINE
8
0
10
-38.5743643
20
60.0452023
11
-38.5081482
21
60.1314964
0
LINE
8
0
10
-38.5081482
20
60.1314964
11
-38.0766741
21
60.4625772
0
LINE
8
0
10
-38.0766741
20
60.4625772
11
-37.9903793
21
60.5287933
0
LINE
8
0
10
-37.9903793
20
60.5287933
11
-37.4879201
21
60.73692
0
LINE
8
0
10
-37.4879201
20
60.73692
11
-37.3874283
21
60.7785454
0
LINE
8
0
10
-37.3874283
20
60.7785454
11
-36.8482208
21
60.8495337
0
LINE
8
0
10
-36.8482208
20
60.8495337
11
-36.7403793
21
60.8637314
0
LINE
8
0
10
-36.7403793
20
60.8637314
11
-36.2011751
21
60.792743
0
LINE
8
0
10
-36.2011751
20
60.792743
11
-36.0933342
21
60.7785454
0
LINE
8
0
10
-36.0933342
20
60.7785454
11
-35.5908718
21
60.5704187
0
LINE
8
0
10
-35.5908718
20
60.5704187
11
-35.4903793
21
60.5287933
0
LINE
8
0
10
-35.4903793
20
60.5287933
11
-35.0589085
21
60.1977126
0
LINE
8
0
10
-35.0589085
20
60.1977126
11
-34.9726143
21
60.1314964
0
LINE
8
0
10
-34.9726143
20
60.1314964
11
-34.6415335
21
59.7000256
0
LINE
8
0
10
-34.6415335
20
59.7000256
11
-34.5753174
21
59.6137314
0
LINE
8
0
10
-34.5753174
20
59.6137314
11
-34.3671907
21
59.111269
0
LINE
8
0
10
-34.3671907
20
59.111269
11
-34.3255653
21
59.0107765
0
LINE
8
0
10
-34.3255653
20
59.0107765
11
-34.254577
21
58.4715722
0
LINE
8
0
10
-34.254577
20
58.4715722
11
-34.2403793
21
58.3637314
0
LINE
8
0
10
-34.2403793
20
58.3637314
11
-34.3113677
21
57.8245239
0
LINE
8
0
10
-34.3113677
20
57.8245239
11
-34.3255653
21
57.7166824
0
LINE
8
0
10
-34.3255653
20
57.7166824
11
-34.533692
21
57.2142232
0
LINE
8
0
10
-34.533692
20
57.2142232
11
-34.5753174
21
57.1137314
0
LINE
8
0
10
-34.5753174
20
57.1137314
11
-34.9063981
21
56.6822573
0
LINE
8
0
10
-34.9063981
20
56.6822573
11
-34.9726143
21
56.5959625
0
LINE
8
0
10
-34.9726143
20
56.5959625
11
-35.4040852
21
56.2648818
0
LINE
8
0
10
-35.4040852
20
56.2648818
11
-35.4903793
21
56.1986656
0
LINE
8
0
10
-35.4903793
20
56.1986656
11
-35.9928417
21
55.9905421
0
LINE
8
0
10
-35.9928417
20
55.9905421
11
-36.0933342
21
55.9489174
0
LINE
8
0
10
-36.0933342
20
55.9489174
11
-36.6325385
21
55.8779291
0
LINE
8
0
10
-36.6325385
20
55.8779291
11
-36.7403793
21
55.8637314
0
LINE
8
0
10
-36.7403793
20
55.8637314
11
-37.2795868
21
55.9347197
0
LINE
8
0
10
-37.2795868
20
55.9347197
11
-37.3874283
21
55.9489174
0
LINE
8
0
10
-37.3874283
20
55.9489174
11
-37.8898875
21
56.1570409
0
LINE
8
0
10
-37.8898875
20
56.1570409
11
-37.9903793
21
56.1986656
0
LINE
8
0
10
-37.9903793
20
56.1986656
11
-38.4218534
21
56.5297464
0
LINE
8
0
10
-38.4218534
20
56.5297464
11
-38.5081482
21
56.5959625
0
LINE
8
0
10
-38.5081482
20
56.5959625
11
-38.8392289
21
57.0274366
0
LINE
8
0
10
-38.8392289
20
57.0274366
11
-38.9054451
21
57.1137314
0
LINE
8
0
10
-38.9054451
20
57.1137314
11
-39.1135718
21
57.6161906
0
LINE
8
0
10
-39.1135718
20
57.6161906
11
-39.1551971
21
57.7166824
0
LINE
8
0
10
-39.1551971
20
57.7166824
11
-39.2261823
21
58.2558899
0
LINE
8
0
10
-39.2261823
20
58.2558899
11
-39.2403793
21
58.3637314
0
LINE
8
0
10
-39.2403793
20
58.3637314
11
-39.1693942
21
58.9029357
0
LINE
8
0
10
-39.1693942
20
58.9029357
11
-39.1551971
21
59.0107765
0
LINE
8
0
10
-39.1551971
20
59.0107765
11
-39.1551971
21
59.0107765
0
LINE
8
0
10
49.4054451
20
57.1137314
11
49.4470704
21
57.2142232
0
LINE
8
0
10
49.4470704
20
57.2142232
11
49.6551971
21
57.7166824
0
LINE
8
0
10
49.6551971
20
57.7166824
11
49.6693942
21
57.8245239
0
LINE
8
0
10
49.6693942
20
57.8245239
11
49.7403793
21
58.3637314
0
LINE
8
0
10
49.7403793
20
58.3637314
11
49.7261823
21
58.4715722
0
LINE
8
0
10
49.7261823
20
58.4715722
11
49.6551971
21
59.0107765
0
LINE
8
0
10
49.6551971
20
59.0107765
11
49.6135718
21
59.111269
0
LINE
8
0
10
49.6135718
20
59.111269
11
49.4054451
21
59.6137314
0
LINE
8
0
10
49.4054451
20
59.6137314
11
49.3392289
21
59.7000256
0
LINE
8
0
10
49.3392289
20
59.7000256
11
49.0081482
21
60.1314964
0
LINE
8
0
10
49.0081482
20
60.1314964
11
48.9218534
21
60.1977126
0
LINE
8
0
10
48.9218534
20
60.1977126
11
48.4903793
21
60.5287933
0
LINE
8
0
10
48.4903793
20
60.5287933
11
48.3898875
21
60.5704187
0
LINE
8
0
10
48.3898875
20
60.5704187
11
47.8874283
21
60.7785454
0
LINE
8
0
10
47.8874283
20
60.7785454
11
47.7795868
21
60.792743
0
LINE
8
0
10
47.7795868
20
60.792743
11
47.2403793
21
60.8637314
0
LINE
8
0
10
47.2403793
20
60.8637314
11
47.1325385
21
60.8495337
0
LINE
8
0
10
47.1325385
20
60.8495337
11
46.5933342
21
60.7785454
0
LINE
8
0
10
46.5933342
20
60.7785454
11
46.4928417
21
60.73692
0
LINE
8
0
10
46.4928417
20
60.73692
11
45.9903793
21
60.5287933
0
LINE
8
0
10
45.9903793
20
60.5287933
11
45.9040852
21
60.4625772
0
LINE
8
0
10
45.9040852
20
60.4625772
11
45.4726143
21
60.1314964
0
LINE
8
0
10
45.4726143
20
60.1314964
11
45.4063981
21
60.0452023
0
LINE
8
0
10
45.4063981
20
60.0452023
11
45.0753174
21
59.6137314
0
LINE
8
0
10
45.0753174
20
59.6137314
11
45.033692
21
59.5132389
0
LINE
8
0
10
45.033692
20
59.5132389
11
44.8255653
21
59.0107765
0
LINE
8
0
10
44.8255653
20
59.0107765
11
44.8113677
21
58.9029357
0
LINE
8
0
10
44.8113677
20
58.9029357
11
44.7403793
21
58.3637314
0
LINE
8
0
10
44.7403793
20
58.3637314
11
44.754577
21
58.2558899
0
LINE
8
0
10
44.754577
20
58.2558899
11
44.8255653
21
57.7166824
0
LINE
8
0
10
44.8255653
20
57.7166824
11
44.8671907
21
57.6161906
0
LINE
8
0
10
44.8671907
20
57.6161906
11
45.0753174
21
57.1137314
0
LINE
8
0
10
45.0753174
20
57.1137314
11
45.1415335
21
57.0274366
0
LINE
8
0
10
45.1415335
20
57.0274366
11
45.4726143
21
56.5959625
0
LINE
8
0
10
45.4726143
20
56.5959625
11
45.5589085
21
56.5297464
0
LINE
8
0
10
45.5589085
20
56.5297464
11
45.9903793
21
56.1986656
0
LINE
8
0
10
45.9903793
20
56.1986656
11
46.0908718
21
56.1570409
0
LINE
8
0
10
46.0908718
20
56.1570409
11
46.5933342
21
55.9489174
0
LINE
8
0
10
46.5933342
20
55.9489174
11
46.7011751
21
55.9347197
0
LINE
8
0
10
46.7011751
20
55.9347197
11
47.2403793
21
55.8637314
0
LINE
8
0
10
47.2403793
20
55.8637314
11
47.3482208
21
55.8779291
0
LINE
8
0
10
47.3482208
20
55.8779291
11
47.8874283
21
55.9489174
0
LINE
8
0
10
47.8874283
20
55.9489174
11
47.9879201
21
55.9905421
0
LINE
8
0
10
47.9879201
20
55.9905421
11
48.4903793
21
56.1986656
0
LINE
8
0
10
48.4903793
20
56.1986656
11
48.5766741
21
56.2648818
0
LINE
8
0
10
48.5766741
20
56.2648818
11
49.0081482
21
56.5959625
0
LINE
8
0
10
49.0081482
20
56.5959625
11
49.0743643
21
56.6822573
0
LINE
8
0
10
49.0743643
20
56.6822573
11
49.4054451
21
57.1137314
0
LINE
8
0
10
49.4054451
20
57.1137314
11
49.4054451
21
57.1137314
0
LINE
8
0
10
-14.3129417
20
69.4069176
11
-14.9383717
21
69.4462662
0
LINE
8
0
10
-14.9383717
20
69.4462662
11
-15.0614848
21
69.4227816
0
LINE
8
0
10
-15.0614848
20
69.4227816
11
-15.6770506
21
69.3053589
0
LINE
8
0
10
-15.6770506
20
69.3053589
11
-15.7904557
21
69.2519938
0
LINE
8
0
10
-15.7904557
20
69.2519938
11
-16.357481
21
68.9851685
0
LINE
8
0
10
-16.357481
20
68.9851685
11
-16.454052
21
68.9052785
0
LINE
8
0
10
-16.454052
20
68.9052785
11
-16.9369068
21
68.5058289
0
LINE
8
0
10
-16.9369068
20
68.5058289
11
-17.0105756
21
68.4044317
0
LINE
8
0
10
-17.0105756
20
68.4044317
11
-17.3789196
21
67.8974457
0
LINE
8
0
10
-17.3789196
20
67.8974457
11
-17.425058
21
67.7809143
0
LINE
8
0
10
-17.425058
20
67.7809143
11
-17.6557503
21
67.1982574
0
LINE
8
0
10
-17.6557503
20
67.1982574
11
-17.6714586
21
67.0739123
0
LINE
8
0
10
-17.6714586
20
67.0739123
11
-17.75
21
66.4521866
0
LINE
8
0
10
-17.75
20
66.4521866
11
-17.7342917
21
66.3278414
0
LINE
8
0
10
-17.7342917
20
66.3278414
11
-17.6557503
21
65.7061157
0
LINE
8
0
10
-17.6557503
20
65.7061157
11
-17.6096118
21
65.5895844
0
LINE
8
0
10
-17.6096118
20
65.5895844
11
-17.3789196
21
65.0069275
0
LINE
8
0
10
-17.3789196
20
65.0069275
11
-17.3052508
21
64.9055303
0
LINE
8
0
10
-17.3052508
20
64.9055303
11
-16.9369068
21
64.3985443
0
LINE
8
0
10
-16.9369068
20
64.3985443
11
-16.8403358
21
64.3186544
0
LINE
8
0
10
-16.8403358
20
64.3186544
11
-16.357481
21
63.9192047
0
LINE
8
0
10
-16.357481
20
63.9192047
11
-16.2440759
21
63.8658403
0
LINE
8
0
10
-16.2440759
20
63.8658403
11
-15.6770506
21
63.5990181
0
LINE
8
0
10
-15.6770506
20
63.5990181
11
-15.5539374
21
63.5755329
0
LINE
8
0
10
-15.5539374
20
63.5755329
11
-14.9383717
21
63.458107
0
LINE
8
0
10
-14.9383717
20
63.458107
11
-14.8132857
21
63.4659767
0
LINE
8
0
10
-14.8132857
20
63.4659767
11
-14.1878557
21
63.5053253
0
LINE
8
0
10
-14.1878557
20
63.5053253
11
-14.0686568
21
63.5440553
0
LINE
8
0
10
-14.0686568
20
63.5440553
11
-13.472662
21
63.7377052
0
LINE
8
0
10
-13.472662
20
63.7377052
11
-13.3668397
21
63.8048623
0
LINE
8
0
10
-13.3668397
20
63.8048623
11
-12.8377285
21
64.1406479
0
LINE
8
0
10
-12.8377285
20
64.1406479
11
-12.751932
21
64.2320124
0
LINE
8
0
10
-12.751932
20
64.2320124
11
-12.3229494
21
64.6888351
0
LINE
8
0
10
-12.3229494
20
64.6888351
11
-12.2625696
21
64.7986654
0
LINE
8
0
10
-12.2625696
20
64.7986654
11
-11.9606705
21
65.3478165
0
LINE
8
0
10
-11.9606705
20
65.3478165
11
-11.9295014
21
65.4692116
0
LINE
8
0
10
-11.9295014
20
65.4692116
11
-11.7736559
21
66.0761871
0
LINE
8
0
10
-11.7736559
20
66.0761871
11
-11.7736559
21
66.2015203
0
LINE
8
0
10
-11.7736559
20
66.2015203
11
-11.7736559
21
66.828186
0
LINE
8
0
10
-11.7736559
20
66.828186
11
-11.804825
21
66.9495824
0
LINE
8
0
10
-11.804825
20
66.9495824
11
-11.9606705
21
67.5565643
0
LINE
8
0
10
-11.9606705
20
67.5565643
11
-12.0210503
21
67.6663946
0
LINE
8
0
10
-12.0210503
20
67.6663946
11
-12.3229494
21
68.2155457
0
LINE
8
0
10
-12.3229494
20
68.2155457
11
-12.4087459
21
68.3069089
0
LINE
8
0
10
-12.4087459
20
68.3069089
11
-12.8377285
21
68.7637253
0
LINE
8
0
10
-12.8377285
20
68.7637253
11
-12.9435507
21
68.830883
0
LINE
8
0
10
-12.9435507
20
68.830883
11
-13.472662
21
69.1666718
0
LINE
8
0
10
-13.472662
20
69.1666718
11
-13.5918609
21
69.2054011
0
LINE
8
0
10
-13.5918609
20
69.2054011
11
-14.1878557
21
69.3990479
0
LINE
8
0
10
-14.1878557
20
69.3990479
11
-14.3129417
21
69.4069176
0
LINE
8
0
10
-14.3129417
20
69.4069176
11
-14.3129417
21
69.4069176
0
LINE
8
0
10
25.6870575
20
69.4069176
11
25.0616283
21
69.4462662
0
LINE
8
0
10
25.0616283
20
69.4462662
11
24.938515
21
69.4227816
0
LINE
8
0
10
24.938515
20
69.4227816
11
24.3229485
21
69.3053589
0
LINE
8
0
10
24.3229485
20
69.3053589
11
24.2095435
21
69.2519938
0
LINE
8
0
10
24.2095435
20
69.2519938
11
23.642519
21
68.9851685
0
LINE
8
0
10
23.642519
20
68.9851685
11
23.545948
21
68.9052785
0
LINE
8
0
10
23.545948
20
68.9052785
11
23.0630932
21
68.5058289
0
LINE
8
0
10
23.0630932
20
68.5058289
11
22.9894244
21
68.4044317
0
LINE
8
0
10
22.9894244
20
68.4044317
11
22.6210804
21
67.8974457
0
LINE
8
0
10
22.6210804
20
67.8974457
11
22.574942
21
67.7809143
0
LINE
8
0
10
22.574942
20
67.7809143
11
22.3442497
21
67.1982574
0
LINE
8
0
10
22.3442497
20
67.1982574
11
22.3285414
21
67.0739123
0
LINE
8
0
10
22.3285414
20
67.0739123
11
22.25
21
66.4521866
0
LINE
8
0
10
22.25
20
66.4521866
11
22.2657083
21
66.3278414
0
LINE
8
0
10
22.2657083
20
66.3278414
11
22.3442497
21
65.7061157
0
LINE
8
0
10
22.3442497
20
65.7061157
11
22.3903882
21
65.5895844
0
LINE
8
0
10
22.3903882
20
65.5895844
11
22.6210804
21
65.0069275
0
LINE
8
0
10
22.6210804
20
65.0069275
11
22.6947492
21
64.9055303
0
LINE
8
0
10
22.6947492
20
64.9055303
11
23.0630932
21
64.3985443
0
LINE
8
0
10
23.0630932
20
64.3985443
11
23.1596642
21
64.3186544
0
LINE
8
0
10
23.1596642
20
64.3186544
11
23.642519
21
63.9192047
0
LINE
8
0
10
23.642519
20
63.9192047
11
23.7559239
21
63.8658403
0
LINE
8
0
10
23.7559239
20
63.8658403
11
24.3229485
21
63.5990181
0
LINE
8
0
10
24.3229485
20
63.5990181
11
24.4460618
21
63.5755329
0
LINE
8
0
10
24.4460618
20
63.5755329
11
25.0616283
21
63.458107
0
LINE
8
0
10
25.0616283
20
63.458107
11
25.1867142
21
63.4659767
0
LINE
8
0
10
25.1867142
20
63.4659767
11
25.8121433
21
63.5053253
0
LINE
8
0
10
25.8121433
20
63.5053253
11
25.9313424
21
63.5440553
0
LINE
8
0
10
25.9313424
20
63.5440553
11
26.527338
21
63.7377052
0
LINE
8
0
10
26.527338
20
63.7377052
11
26.6331603
21
63.8048623
0
LINE
8
0
10
26.6331603
20
63.8048623
11
27.1622715
21
64.1406479
0
LINE
8
0
10
27.1622715
20
64.1406479
11
27.2480682
21
64.2320124
0
LINE
8
0
10
27.2480682
20
64.2320124
11
27.6770515
21
64.6888351
0
LINE
8
0
10
27.6770515
20
64.6888351
11
27.7374312
21
64.7986654
0
LINE
8
0
10
27.7374312
20
64.7986654
11
28.0393295
21
65.3478165
0
LINE
8
0
10
28.0393295
20
65.3478165
11
28.0704985
21
65.4692116
0
LINE
8
0
10
28.0704985
20
65.4692116
11
28.2263432
21
66.0761871
0
LINE
8
0
10
28.2263432
20
66.0761871
11
28.2263432
21
66.2015203
0
LINE
8
0
10
28.2263432
20
66.2015203
11
28.2263432
21
66.828186
0
LINE
8
0
10
28.2263432
20
66.828186
11
28.1951742
21
66.9495824
0
LINE
8
0
10
28.1951742
20
66.9495824
11
28.0393295
21
67.5565643
0
LINE
8
0
10
28.0393295
20
67.5565643
11
27.9789499
21
67.6663946
0
LINE
8
0
10
27.9789499
20
67.6663946
11
27.6770515
21
68.2155457
0
LINE
8
0
10
27.6770515
20
68.2155457
11
27.5912549
21
68.3069089
0
LINE
8
0
10
27.5912549
20
68.3069089
11
27.1622715
21
68.7637253
0
LINE
8
0
10
27.1622715
20
68.7637253
11
27.0564493
21
68.830883
0
LINE
8
0
10
27.0564493
20
68.830883
11
26.527338
21
69.1666718
0
LINE
8
0
10
26.527338
20
69.1666718
11
26.4081389
21
69.2054011
0
LINE
8
0
10
26.4081389
20
69.2054011
11
25.8121433
21
69.3990479
0
LINE
8
0
10
25.8121433
20
69.3990479
11
25.6870575
21
69.4069176
0
LINE
8
0
10
25.6870575
20
69.4069176
11
25.6870575
21
69.4069176
0
LINE
8
0
10
56.9856377
20
66.7785416
11
57.5248451
21
66.8495331
0
LINE
8
0
10
57.5248451
20
66.8495331
11
57.6326866
21
66.8637314
0
LINE
8
0
10
57.6326866
20
66.8637314
11
58.1718909
21
66.7927399
0
LINE
8
0
10
58.1718909
20
66.7927399
11
58.2797318
21
66.7785416
0
LINE
8
0
10
58.2797318
20
66.7785416
11
58.7821941
21
66.570418
0
LINE
8
0
10
58.7821941
20
66.570418
11
58.8826866
21
66.5287933
0
LINE
8
0
10
58.8826866
20
66.5287933
11
59.3141575
21
66.1977158
0
LINE
8
0
10
59.3141575
20
66.1977158
11
59.4004517
21
66.1315002
0
LINE
8
0
10
59.4004517
20
66.1315002
11
59.7315324
21
65.7000262
0
LINE
8
0
10
59.7315324
20
65.7000262
11
59.7977486
21
65.6137314
0
LINE
8
0
10
59.7977486
20
65.6137314
11
60.0058753
21
65.1112722
0
LINE
8
0
10
60.0058753
20
65.1112722
11
60.0475006
21
65.0107803
0
LINE
8
0
10
60.0475006
20
65.0107803
11
60.1184889
21
64.4715729
0
LINE
8
0
10
60.1184889
20
64.4715729
11
60.1326866
21
64.3637314
0
LINE
8
0
10
60.1326866
20
64.3637314
11
60.0616983
21
63.8245239
0
LINE
8
0
10
60.0616983
20
63.8245239
11
60.0475006
21
63.7166824
0
LINE
8
0
10
60.0475006
20
63.7166824
11
59.8393739
21
63.2142232
0
LINE
8
0
10
59.8393739
20
63.2142232
11
59.7977486
21
63.1137314
0
LINE
8
0
10
59.7977486
20
63.1137314
11
59.4666678
21
62.6822573
0
LINE
8
0
10
59.4666678
20
62.6822573
11
59.4004517
21
62.5959625
0
LINE
8
0
10
59.4004517
20
62.5959625
11
58.9689808
21
62.2648818
0
LINE
8
0
10
58.9689808
20
62.2648818
11
58.8826866
21
62.1986656
0
LINE
8
0
10
58.8826866
20
62.1986656
11
58.3802242
21
61.9905421
0
LINE
8
0
10
58.3802242
20
61.9905421
11
58.2797318
21
61.9489174
0
LINE
8
0
10
58.2797318
20
61.9489174
11
57.7405275
21
61.8779291
0
LINE
8
0
10
57.7405275
20
61.8779291
11
57.6326866
21
61.8637314
0
LINE
8
0
10
57.6326866
20
61.8637314
11
57.0934792
21
61.9347197
0
LINE
8
0
10
57.0934792
20
61.9347197
11
56.9856377
21
61.9489174
0
LINE
8
0
10
56.9856377
20
61.9489174
11
56.4831785
21
62.1570409
0
LINE
8
0
10
56.4831785
20
62.1570409
11
56.3826866
21
62.1986656
0
LINE
8
0
10
56.3826866
20
62.1986656
11
55.9512126
21
62.5297464
0
LINE
8
0
10
55.9512126
20
62.5297464
11
55.8649178
21
62.5959625
0
LINE
8
0
10
55.8649178
20
62.5959625
11
55.533837
21
63.0274366
0
LINE
8
0
10
55.533837
20
63.0274366
11
55.4676208
21
63.1137314
0
LINE
8
0
10
55.4676208
20
63.1137314
11
55.2594973
21
63.6161906
0
LINE
8
0
10
55.2594973
20
63.6161906
11
55.2178726
21
63.7166824
0
LINE
8
0
10
55.2178726
20
63.7166824
11
55.1468843
21
64.2558899
0
LINE
8
0
10
55.1468843
20
64.2558899
11
55.1326866
21
64.3637314
0
LINE
8
0
10
55.1326866
20
64.3637314
11
55.203675
21
64.9029388
0
LINE
8
0
10
55.203675
20
64.9029388
11
55.2178726
21
65.0107803
0
LINE
8
0
10
55.2178726
20
65.0107803
11
55.4259961
21
65.5132395
0
LINE
8
0
10
55.4259961
20
65.5132395
11
55.4676208
21
65.6137314
0
LINE
8
0
10
55.4676208
20
65.6137314
11
55.7987016
21
66.0452054
0
LINE
8
0
10
55.7987016
20
66.0452054
11
55.8649178
21
66.1315002
0
LINE
8
0
10
55.8649178
20
66.1315002
11
56.2963918
21
66.4625778
0
LINE
8
0
10
56.2963918
20
66.4625778
11
56.3826866
21
66.5287933
0
LINE
8
0
10
56.3826866
20
66.5287933
11
56.8851458
21
66.7369169
0
LINE
8
0
10
56.8851458
20
66.7369169
11
56.9856377
21
66.7785416
0
LINE
8
0
10
56.9856377
20
66.7785416
11
56.9856377
21
66.7785416
0
LINE
8
0
10
-40.75
20
48.9521866
11
-51.25
21
48.9521866
0
LINE
8
0
10
-51.25
20
48.9521866
11
-52.9166667
21
50.6188533
0
LINE
8
0
10
-52.9166667
20
50.6188533
11
-61.25
21
58.9521866
0
LINE
8
0
10
-61.25
20
58.9521866
11
-61.25
21
71.4521866
0
LINE
8
0
10
-61.25
20
71.4521866
11
-61.25
21
73.9521866
0
LINE
8
0
10
-61.25
20
73.9521866
11
-59.5833333
21
75.6188533
0
LINE
8
0
10
-59.5833333
20
75.6188533
11
-51.25
21
83.9521866
0
LINE
8
0
10
-51.25
20
83.9521866
11
-19.5833333
21
83.9521866
0
LINE
8
0
10
-19.5833333
20
83.9521866
11
-13.25
21
83.9521866
0
LINE
8
0
10
-13.25
20
83.9521866
11
-13.25
21
93.4521866
0
LINE
8
0
10
-13.25
20
93.4521866
11
-13.25
21
115.95219
0
LINE
8
0
10
-13.25
20
115.95219
11
-13.25
21
128.952194
0
LINE
8
0
10
-13.25
20
128.952194
11
-12.25
21
128.952194
0
LINE
8
0
10
-12.25
20
128.952194
11
-9.25
21
128.952194
0
LINE
8
0
10
-9.25
20
128.952194
11
-9.25
21
115.95219
0
LINE
8
0
10
-9.25
20
115.95219
11
-9.25
21
75.9521866
0
LINE
8
0
10
-9.25
20
75.9521866
11
-9.25
21
48.9521866
0
LINE
8
0
10
-9.25
20
48.9521866
11
-40.75
21
48.9521866
0
LINE
8
0
10
-40.75
20
48.9521866
11
-40.75
21
48.9521866
0
LINE
8
0
10
-47.7797318
20
66.7785416
11
-47.2405275
21
66.8495331
0
LINE
8
0
10
-47.2405275
20
66.8495331
11
-47.1326866
21
66.8637314
0
LINE
8
0
10
-47.1326866
20
66.8637314
11
-46.5934792
21
66.7927399
0
LINE
8
0
10
-46.5934792
20
66.7927399
11
-46.4856377
21
66.7785416
0
LINE
8
0
10
-46.4856377
20
66.7785416
11
-45.9831785
21
66.570418
0
LINE
8
0
10
-45.9831785
20
66.570418
11
-45.8826866
21
66.5287933
0
LINE
8
0
10
-45.8826866
20
66.5287933
11
-45.4512126
21
66.1977158
0
LINE
8
0
10
-45.4512126
20
66.1977158
11
-45.3649178
21
66.1315002
0
LINE
8
0
10
-45.3649178
20
66.1315002
11
-45.033837
21
65.7000262
0
LINE
8
0
10
-45.033837
20
65.7000262
11
-44.9676208
21
65.6137314
0
LINE
8
0
10
-44.9676208
20
65.6137314
11
-44.7594973
21
65.1112722
0
LINE
8
0
10
-44.7594973
20
65.1112722
11
-44.7178726
21
65.0107803
0
LINE
8
0
10
-44.7178726
20
65.0107803
11
-44.6468843
21
64.4715729
0
LINE
8
0
10
-44.6468843
20
64.4715729
11
-44.6326866
21
64.3637314
0
LINE
8
0
10
-44.6326866
20
64.3637314
11
-44.703675
21
63.8245239
0
LINE
8
0
10
-44.703675
20
63.8245239
11
-44.7178726
21
63.7166824
0
LINE
8
0
10
-44.7178726
20
63.7166824
11
-44.9259961
21
63.2142232
0
LINE
8
0
10
-44.9259961
20
63.2142232
11
-44.9676208
21
63.1137314
0
LINE
8
0
10
-44.9676208
20
63.1137314
11
-45.2987016
21
62.6822573
0
LINE
8
0
10
-45.2987016
20
62.6822573
11
-45.3649178
21
62.5959625
0
LINE
8
0
10
-45.3649178
20
62.5959625
11
-45.7963918
21
62.2648818
0
LINE
8
0
10
-45.7963918
20
62.2648818
11
-45.8826866
21
62.1986656
0
LINE
8
0
10
-45.8826866
20
62.1986656
11
-46.3851458
21
61.9905421
0
LINE
8
0
10
-46.3851458
20
61.9905421
11
-46.4856377
21
61.9489174
0
LINE
8
0
10
-46.4856377
20
61.9489174
11
-47.0248451
21
61.8779291
0
LINE
8
0
10
-47.0248451
20
61.8779291
11
-47.1326866
21
61.8637314
0
LINE
8
0
10
-47.1326866
20
61.8637314
11
-47.6718909
21
61.9347197
0
LINE
8
0
10
-47.6718909
20
61.9347197
11
-47.7797318
21
61.9489174
0
LINE
8
0
10
-47.7797318
20
61.9489174
11
-48.2821941
21
62.1570409
0
LINE
8
0
10
-48.2821941
20
62.1570409
11
-48.3826866
21
62.1986656
0
LINE
8
0
10
-48.3826866
20
62.1986656
11
-48.8141575
21
62.5297464
0
LINE
8
0
10
-48.8141575
20
62.5297464
11
-48.9004517
21
62.5959625
0
LINE
8
0
10
-48.9004517
20
62.5959625
11
-49.2315324
21
63.0274366
0
LINE
8
0
10
-49.2315324
20
63.0274366
11
-49.2977486
21
63.1137314
0
LINE
8
0
10
-49.2977486
20
63.1137314
11
-49.5058753
21
63.6161906
0
LINE
8
0
10
-49.5058753
20
63.6161906
11
-49.5475006
21
63.7166824
0
LINE
8
0
10
-49.5475006
20
63.7166824
11
-49.6184889
21
64.2558899
0
LINE
8
0
10
-49.6184889
20
64.2558899
11
-49.6326866
21
64.3637314
0
LINE
8
0
10
-49.6326866
20
64.3637314
11
-49.5616983
21
64.9029388
0
LINE
8
0
10
-49.5616983
20
64.9029388
11
-49.5475006
21
65.0107803
0
LINE
8
0
10
-49.5475006
20
65.0107803
11
-49.3393739
21
65.5132395
0
LINE
8
0
10
-49.3393739
20
65.5132395
11
-49.2977486
21
65.6137314
0
LINE
8
0
10
-49.2977486
20
65.6137314
11
-48.9666678
21
66.0452054
0
LINE
8
0
10
-48.9666678
20
66.0452054
11
-48.9004517
21
66.1315002
0
LINE
8
0
10
-48.9004517
20
66.1315002
11
-48.4689808
21
66.4625778
0
LINE
8
0
10
-48.4689808
20
66.4625778
11
-48.3826866
21
66.5287933
0
LINE
8
0
10
-48.3826866
20
66.5287933
11
-47.8802242
21
66.7369169
0
LINE
8
0
10
-47.8802242
20
66.7369169
11
-47.7797318
21
66.7785416
0
LINE
8
0
10
-47.7797318
20
66.7785416
11
-47.7797318
21
66.7785416
0
LINE
8
0
10
61.75
20
83.9521866
11
55.4166667
21
83.9521866
0
LINE
8
0
10
55.4166667
20
83.9521866
11
23.75
21
83.9521866
0
LINE
8
0
10
23.75
20
83.9521866
11
23.75
21
93.4521866
0
LINE
8
0
10
23.75
20
93.4521866
11
23.75
21
115.95219
0
LINE
8
0
10
23.75
20
115.95219
11
23.75
21
128.952194
0
LINE
8
0
10
23.75
20
128.952194
11
22.75
21
128.952194
0
LINE
8
0
10
22.75
20
128.952194
11
19.75
21
128.952194
0
LINE
8
0
10
19.75
20
128.952194
11
19.75
21
115.95219
0
LINE
8
0
10
19.75
20
115.95219
11
19.75
21
75.9521866
0
LINE
8
0
10
19.75
20
75.9521866
11
19.75
21
48.9521866
0
LINE
8
0
10
19.75
20
48.9521866
11
51.25
21
48.9521866
0
LINE
8
0
10
51.25
20
48.9521866
11
61.75
21
48.9521866
0
LINE
8
0
10
61.75
20
48.9521866
11
70.0833333
21
57.2855199
0
LINE
8
0
10
70.0833333
20
57.2855199
11
71.75
21
58.9521866
0
LINE
8
0
10
71.75
20
58.9521866
11
71.75
21
61.4521866
0
LINE
8
0
10
71.75
20
61.4521866
11
71.75
21
73.9521866
0
LINE
8
0
10
71.75
20
73.9521866
11
63.4166667
21
82.2855199
0
LINE
8
0
10
63.4166667
20
82.2855199
11
61.75
21
83.9521866
0
LINE
8
0
10
61.75
20
83.9521866
11
61.75
21
83.9521866
0
ENDSEC
0
EOF
