0
SECTION
2
ENTITIES
0
LINE
8
0
10
-39.1551971
20
59.0107765
11
-39.1637154
21
58.946072
0
LINE
8
0
10
-39.1637154
20
58.946072
11
-39.2403793
21
58.3637314
0
LINE
8
0
10
-39.2403793
20
58.3637314
11
-39.2318611
21
58.2990265
0
LINE
8
0
10
-39.2318611
20
58.2990265
11
-39.1551971
21
57.7166824
0
LINE
8
0
10
-39.1551971
20
57.7166824
11
-39.1302219
21
57.6563873
0
LINE
8
0
10
-39.1302219
20
57.6563873
11
-38.9054451
21
57.1137314
0
LINE
8
0
10
-38.9054451
20
57.1137314
11
-38.8657154
21
57.0619545
0
LINE
8
0
10
-38.8657154
20
57.0619545
11
-38.5081482
21
56.5959625
0
LINE
8
0
10
-38.5081482
20
56.5959625
11
-38.4563713
21
56.5562328
0
LINE
8
0
10
-38.4563713
20
56.5562328
11
-37.9903793
21
56.1986656
0
LINE
8
0
10
-37.9903793
20
56.1986656
11
-37.9300842
21
56.1736908
0
LINE
8
0
10
-37.9300842
20
56.1736908
11
-37.3874283
21
55.9489174
0
LINE
8
0
10
-37.3874283
20
55.9489174
11
-37.3227234
21
55.9403988
0
LINE
8
0
10
-37.3227234
20
55.9403988
11
-36.7403793
21
55.8637314
0
LINE
8
0
10
-36.7403793
20
55.8637314
11
-36.6756748
21
55.87225
0
LINE
8
0
10
-36.6756748
20
55.87225
11
-36.0933342
21
55.9489174
0
LINE
8
0
10
-36.0933342
20
55.9489174
11
-36.0330387
21
55.9738922
0
LINE
8
0
10
-36.0330387
20
55.9738922
11
-35.4903793
21
56.1986656
0
LINE
8
0
10
-35.4903793
20
56.1986656
11
-35.4386028
21
56.2383953
0
LINE
8
0
10
-35.4386028
20
56.2383953
11
-34.9726143
21
56.5959625
0
LINE
8
0
10
-34.9726143
20
56.5959625
11
-34.9328846
21
56.6477394
0
LINE
8
0
10
-34.9328846
20
56.6477394
11
-34.5753174
21
57.1137314
0
LINE
8
0
10
-34.5753174
20
57.1137314
11
-34.5503422
21
57.1740265
0
LINE
8
0
10
-34.5503422
20
57.1740265
11
-34.3255653
21
57.7166824
0
LINE
8
0
10
-34.3255653
20
57.7166824
11
-34.3170467
21
57.7813873
0
LINE
8
0
10
-34.3170467
20
57.7813873
11
-34.2403793
21
58.3637314
0
LINE
8
0
10
-34.2403793
20
58.3637314
11
-34.2488979
21
58.4284359
0
LINE
8
0
10
-34.2488979
20
58.4284359
11
-34.3255653
21
59.0107765
0
LINE
8
0
10
-34.3255653
20
59.0107765
11
-34.3505405
21
59.071072
0
LINE
8
0
10
-34.3505405
20
59.071072
11
-34.5753174
21
59.6137314
0
LINE
8
0
10
-34.5753174
20
59.6137314
11
-34.6150471
21
59.6655079
0
LINE
8
0
10
-34.6150471
20
59.6655079
11
-34.9726143
21
60.1314964
0
LINE
8
0
10
-34.9726143
20
60.1314964
11
-35.0243908
21
60.1712261
0
LINE
8
0
10
-35.0243908
20
60.1712261
11
-35.4903793
21
60.5287933
0
LINE
8
0
10
-35.4903793
20
60.5287933
11
-35.5506748
21
60.5537685
0
LINE
8
0
10
-35.5506748
20
60.5537685
11
-36.0933342
21
60.7785454
0
LINE
8
0
10
-36.0933342
20
60.7785454
11
-36.1580387
21
60.787064
0
LINE
8
0
10
-36.1580387
20
60.787064
11
-36.7403793
21
60.8637314
0
LINE
8
0
10
-36.7403793
20
60.8637314
11
-36.8050842
21
60.8552128
0
LINE
8
0
10
-36.8050842
20
60.8552128
11
-37.3874283
21
60.7785454
0
LINE
8
0
10
-37.3874283
20
60.7785454
11
-37.4477234
21
60.7535702
0
LINE
8
0
10
-37.4477234
20
60.7535702
11
-37.9903793
21
60.5287933
0
LINE
8
0
10
-37.9903793
20
60.5287933
11
-38.0421562
21
60.4890636
0
LINE
8
0
10
-38.0421562
20
60.4890636
11
-38.5081482
21
60.1314964
0
LINE
8
0
10
-38.5081482
20
60.1314964
11
-38.5478779
21
60.0797199
0
LINE
8
0
10
-38.5478779
20
60.0797199
11
-38.9054451
21
59.6137314
0
LINE
8
0
10
-38.9054451
20
59.6137314
11
-38.9304203
21
59.5534359
0
LINE
8
0
10
-38.9304203
20
59.5534359
11
-39.1551971
21
59.0107765
0
LINE
8
0
10
-39.1551971
20
59.0107765
11
-39.1551971
21
59.0107765
0
LINE
8
0
10
48.4300842
20
60.5537685
11
47.8874283
21
60.7785454
0
LINE
8
0
10
47.8874283
20
60.7785454
11
47.8227234
21
60.787064
0
LINE
8
0
10
47.8227234
20
60.787064
11
47.2403793
21
60.8637314
0
LINE
8
0
10
47.2403793
20
60.8637314
11
47.1756748
21
60.8552128
0
LINE
8
0
10
47.1756748
20
60.8552128
11
46.5933342
21
60.7785454
0
LINE
8
0
10
46.5933342
20
60.7785454
11
46.5330387
21
60.7535702
0
LINE
8
0
10
46.5330387
20
60.7535702
11
45.9903793
21
60.5287933
0
LINE
8
0
10
45.9903793
20
60.5287933
11
45.9386028
21
60.4890636
0
LINE
8
0
10
45.9386028
20
60.4890636
11
45.4726143
21
60.1314964
0
LINE
8
0
10
45.4726143
20
60.1314964
11
45.4328846
21
60.0797199
0
LINE
8
0
10
45.4328846
20
60.0797199
11
45.0753174
21
59.6137314
0
LINE
8
0
10
45.0753174
20
59.6137314
11
45.0503422
21
59.5534359
0
LINE
8
0
10
45.0503422
20
59.5534359
11
44.8255653
21
59.0107765
0
LINE
8
0
10
44.8255653
20
59.0107765
11
44.8170467
21
58.946072
0
LINE
8
0
10
44.8170467
20
58.946072
11
44.7403793
21
58.3637314
0
LINE
8
0
10
44.7403793
20
58.3637314
11
44.7488979
21
58.2990265
0
LINE
8
0
10
44.7488979
20
58.2990265
11
44.8255653
21
57.7166824
0
LINE
8
0
10
44.8255653
20
57.7166824
11
44.8505405
21
57.6563873
0
LINE
8
0
10
44.8505405
20
57.6563873
11
45.0753174
21
57.1137314
0
LINE
8
0
10
45.0753174
20
57.1137314
11
45.1150471
21
57.0619545
0
LINE
8
0
10
45.1150471
20
57.0619545
11
45.4726143
21
56.5959625
0
LINE
8
0
10
45.4726143
20
56.5959625
11
45.5243908
21
56.5562328
0
LINE
8
0
10
45.5243908
20
56.5562328
11
45.9903793
21
56.1986656
0
LINE
8
0
10
45.9903793
20
56.1986656
11
46.0506748
21
56.1736908
0
LINE
8
0
10
46.0506748
20
56.1736908
11
46.5933342
21
55.9489174
0
LINE
8
0
10
46.5933342
20
55.9489174
11
46.6580387
21
55.9403988
0
LINE
8
0
10
46.6580387
20
55.9403988
11
47.2403793
21
55.8637314
0
LINE
8
0
10
47.2403793
20
55.8637314
11
47.3050842
21
55.87225
0
LINE
8
0
10
47.3050842
20
55.87225
11
47.8874283
21
55.9489174
0
LINE
8
0
10
47.8874283
20
55.9489174
11
47.9477234
21
55.9738922
0
LINE
8
0
10
47.9477234
20
55.9738922
11
48.4903793
21
56.1986656
0
LINE
8
0
10
48.4903793
20
56.1986656
11
48.5421562
21
56.2383953
0
LINE
8
0
10
48.5421562
20
56.2383953
11
49.0081482
21
56.5959625
0
LINE
8
0
10
49.0081482
20
56.5959625
11
49.0478779
21
56.6477394
0
LINE
8
0
10
49.0478779
20
56.6477394
11
49.4054451
21
57.1137314
0
LINE
8
0
10
49.4054451
20
57.1137314
11
49.4304203
21
57.1740265
0
LINE
8
0
10
49.4304203
20
57.1740265
11
49.6551971
21
57.7166824
0
LINE
8
0
10
49.6551971
20
57.7166824
11
49.6637154
21
57.7813873
0
LINE
8
0
10
49.6637154
20
57.7813873
11
49.7403793
21
58.3637314
0
LINE
8
0
10
49.7403793
20
58.3637314
11
49.7318611
21
58.4284359
0
LINE
8
0
10
49.7318611
20
58.4284359
11
49.6551971
21
59.0107765
0
LINE
8
0
10
49.6551971
20
59.0107765
11
49.6302219
21
59.071072
0
LINE
8
0
10
49.6302219
20
59.071072
11
49.4054451
21
59.6137314
0
LINE
8
0
10
49.4054451
20
59.6137314
11
49.3657154
21
59.6655079
0
LINE
8
0
10
49.3657154
20
59.6655079
11
49.0081482
21
60.1314964
0
LINE
8
0
10
49.0081482
20
60.1314964
11
48.9563713
21
60.1712261
0
LINE
8
0
10
48.9563713
20
60.1712261
11
48.4903793
21
60.5287933
0
LINE
8
0
10
48.4903793
20
60.5287933
11
48.4300842
21
60.5537685
0
LINE
8
0
10
48.4300842
20
60.5537685
11
48.4300842
21
60.5537685
0
LINE
8
0
10
-45.0073505
20
65.6655083
11
-45.3649178
21
66.1315002
0
LINE
8
0
10
-45.3649178
20
66.1315002
11
-45.4166946
21
66.1712296
0
LINE
8
0
10
-45.4166946
20
66.1712296
11
-45.8826866
21
66.5287933
0
LINE
8
0
10
-45.8826866
20
66.5287933
11
-45.9429817
21
66.5537682
0
LINE
8
0
10
-45.9429817
20
66.5537682
11
-46.4856377
21
66.7785416
0
LINE
8
0
10
-46.4856377
20
66.7785416
11
-46.5503426
21
66.7870605
0
LINE
8
0
10
-46.5503426
20
66.7870605
11
-47.1326866
21
66.8637314
0
LINE
8
0
10
-47.1326866
20
66.8637314
11
-47.1973911
21
66.8552124
0
LINE
8
0
10
-47.1973911
20
66.8552124
11
-47.7797318
21
66.7785416
0
LINE
8
0
10
-47.7797318
20
66.7785416
11
-47.8400272
21
66.7535667
0
LINE
8
0
10
-47.8400272
20
66.7535667
11
-48.3826866
21
66.5287933
0
LINE
8
0
10
-48.3826866
20
66.5287933
11
-48.4344631
21
66.489064
0
LINE
8
0
10
-48.4344631
20
66.489064
11
-48.9004517
21
66.1315002
0
LINE
8
0
10
-48.9004517
20
66.1315002
11
-48.9401814
21
66.0797234
0
LINE
8
0
10
-48.9401814
20
66.0797234
11
-49.2977486
21
65.6137314
0
LINE
8
0
10
-49.2977486
20
65.6137314
11
-49.3227238
21
65.5534363
0
LINE
8
0
10
-49.3227238
20
65.5534363
11
-49.5475006
21
65.0107803
0
LINE
8
0
10
-49.5475006
20
65.0107803
11
-49.5560192
21
64.9460754
0
LINE
8
0
10
-49.5560192
20
64.9460754
11
-49.6326866
21
64.3637314
0
LINE
8
0
10
-49.6326866
20
64.3637314
11
-49.624168
21
64.2990265
0
LINE
8
0
10
-49.624168
20
64.2990265
11
-49.5475006
21
63.7166824
0
LINE
8
0
10
-49.5475006
20
63.7166824
11
-49.5225254
21
63.6563873
0
LINE
8
0
10
-49.5225254
20
63.6563873
11
-49.2977486
21
63.1137314
0
LINE
8
0
10
-49.2977486
20
63.1137314
11
-49.2580189
21
63.0619545
0
LINE
8
0
10
-49.2580189
20
63.0619545
11
-48.9004517
21
62.5959625
0
LINE
8
0
10
-48.9004517
20
62.5959625
11
-48.8486752
21
62.5562328
0
LINE
8
0
10
-48.8486752
20
62.5562328
11
-48.3826866
21
62.1986656
0
LINE
8
0
10
-48.3826866
20
62.1986656
11
-48.3223911
21
62.1736908
0
LINE
8
0
10
-48.3223911
20
62.1736908
11
-47.7797318
21
61.9489174
0
LINE
8
0
10
-47.7797318
20
61.9489174
11
-47.7150272
21
61.9403988
0
LINE
8
0
10
-47.7150272
20
61.9403988
11
-47.1326866
21
61.8637314
0
LINE
8
0
10
-47.1326866
20
61.8637314
11
-47.0679817
21
61.87225
0
LINE
8
0
10
-47.0679817
20
61.87225
11
-46.4856377
21
61.9489174
0
LINE
8
0
10
-46.4856377
20
61.9489174
11
-46.4253426
21
61.9738922
0
LINE
8
0
10
-46.4253426
20
61.9738922
11
-45.8826866
21
62.1986656
0
LINE
8
0
10
-45.8826866
20
62.1986656
11
-45.8309097
21
62.2383953
0
LINE
8
0
10
-45.8309097
20
62.2383953
11
-45.3649178
21
62.5959625
0
LINE
8
0
10
-45.3649178
20
62.5959625
11
-45.3251881
21
62.6477394
0
LINE
8
0
10
-45.3251881
20
62.6477394
11
-44.9676208
21
63.1137314
0
LINE
8
0
10
-44.9676208
20
63.1137314
11
-44.942646
21
63.1740265
0
LINE
8
0
10
-44.942646
20
63.1740265
11
-44.7178726
21
63.7166824
0
LINE
8
0
10
-44.7178726
20
63.7166824
11
-44.709354
21
63.7813873
0
LINE
8
0
10
-44.709354
20
63.7813873
11
-44.6326866
21
64.3637314
0
LINE
8
0
10
-44.6326866
20
64.3637314
11
-44.6412052
21
64.4284363
0
LINE
8
0
10
-44.6412052
20
64.4284363
11
-44.7178726
21
65.0107803
0
LINE
8
0
10
-44.7178726
20
65.0107803
11
-44.7428474
21
65.0710754
0
LINE
8
0
10
-44.7428474
20
65.0710754
11
-44.9676208
21
65.6137314
0
LINE
8
0
10
-44.9676208
20
65.6137314
11
-45.0073505
21
65.6655083
0
LINE
8
0
10
-45.0073505
20
65.6655083
11
-45.0073505
21
65.6655083
0
LINE
8
0
10
60.124168
20
64.4284363
11
60.0475006
21
65.0107803
0
LINE
8
0
10
60.0475006
20
65.0107803
11
60.0225254
21
65.0710754
0
LINE
8
0
10
60.0225254
20
65.0710754
11
59.7977486
21
65.6137314
0
LINE
8
0
10
59.7977486
20
65.6137314
11
59.7580189
21
65.6655083
0
LINE
8
0
10
59.7580189
20
65.6655083
11
59.4004517
21
66.1315002
0
LINE
8
0
10
59.4004517
20
66.1315002
11
59.3486752
21
66.1712296
0
LINE
8
0
10
59.3486752
20
66.1712296
11
58.8826866
21
66.5287933
0
LINE
8
0
10
58.8826866
20
66.5287933
11
58.8223911
21
66.5537682
0
LINE
8
0
10
58.8223911
20
66.5537682
11
58.2797318
21
66.7785416
0
LINE
8
0
10
58.2797318
20
66.7785416
11
58.2150272
21
66.7870605
0
LINE
8
0
10
58.2150272
20
66.7870605
11
57.6326866
21
66.8637314
0
LINE
8
0
10
57.6326866
20
66.8637314
11
57.5679817
21
66.8552124
0
LINE
8
0
10
57.5679817
20
66.8552124
11
56.9856377
21
66.7785416
0
LINE
8
0
10
56.9856377
20
66.7785416
11
56.9253426
21
66.7535667
0
LINE
8
0
10
56.9253426
20
66.7535667
11
56.3826866
21
66.5287933
0
LINE
8
0
10
56.3826866
20
66.5287933
11
56.3309097
21
66.489064
0
LINE
8
0
10
56.3309097
20
66.489064
11
55.8649178
21
66.1315002
0
LINE
8
0
10
55.8649178
20
66.1315002
11
55.8251881
21
66.0797234
0
LINE
8
0
10
55.8251881
20
66.0797234
11
55.4676208
21
65.6137314
0
LINE
8
0
10
55.4676208
20
65.6137314
11
55.442646
21
65.5534363
0
LINE
8
0
10
55.442646
20
65.5534363
11
55.2178726
21
65.0107803
0
LINE
8
0
10
55.2178726
20
65.0107803
11
55.209354
21
64.9460754
0
LINE
8
0
10
55.209354
20
64.9460754
11
55.1326866
21
64.3637314
0
LINE
8
0
10
55.1326866
20
64.3637314
11
55.1412052
21
64.2990265
0
LINE
8
0
10
55.1412052
20
64.2990265
11
55.2178726
21
63.7166824
0
LINE
8
0
10
55.2178726
20
63.7166824
11
55.2428474
21
63.6563873
0
LINE
8
0
10
55.2428474
20
63.6563873
11
55.4676208
21
63.1137314
0
LINE
8
0
10
55.4676208
20
63.1137314
11
55.5073505
21
63.0619545
0
LINE
8
0
10
55.5073505
20
63.0619545
11
55.8649178
21
62.5959625
0
LINE
8
0
10
55.8649178
20
62.5959625
11
55.9166946
21
62.5562328
0
LINE
8
0
10
55.9166946
20
62.5562328
11
56.3826866
21
62.1986656
0
LINE
8
0
10
56.3826866
20
62.1986656
11
56.4429817
21
62.1736908
0
LINE
8
0
10
56.4429817
20
62.1736908
11
56.9856377
21
61.9489174
0
LINE
8
0
10
56.9856377
20
61.9489174
11
57.0503426
21
61.9403988
0
LINE
8
0
10
57.0503426
20
61.9403988
11
57.6326866
21
61.8637314
0
LINE
8
0
10
57.6326866
20
61.8637314
11
57.6973911
21
61.87225
0
LINE
8
0
10
57.6973911
20
61.87225
11
58.2797318
21
61.9489174
0
LINE
8
0
10
58.2797318
20
61.9489174
11
58.3400272
21
61.9738922
0
LINE
8
0
10
58.3400272
20
61.9738922
11
58.8826866
21
62.1986656
0
LINE
8
0
10
58.8826866
20
62.1986656
11
58.9344631
21
62.2383953
0
LINE
8
0
10
58.9344631
20
62.2383953
11
59.4004517
21
62.5959625
0
LINE
8
0
10
59.4004517
20
62.5959625
11
59.4401814
21
62.6477394
0
LINE
8
0
10
59.4401814
20
62.6477394
11
59.7977486
21
63.1137314
0
LINE
8
0
10
59.7977486
20
63.1137314
11
59.8227238
21
63.1740265
0
LINE
8
0
10
59.8227238
20
63.1740265
11
60.0475006
21
63.7166824
0
LINE
8
0
10
60.0475006
20
63.7166824
11
60.0560192
21
63.7813873
0
LINE
8
0
10
60.0560192
20
63.7813873
11
60.1326866
21
64.3637314
0
LINE
8
0
10
60.1326866
20
64.3637314
11
60.124168
21
64.4284363
0
LINE
8
0
10
60.124168
20
64.4284363
11
60.124168
21
64.4284363
0
LINE
8
0
10
-15.6031827
20
63.584927
11
-15.6770506
21
63.5990181
0
LINE
8
0
10
-15.6770506
20
63.5990181
11
-16.289438
21
63.8871861
0
LINE
8
0
10
-16.289438
20
63.8871861
11
-16.357481
21
63.9192047
0
LINE
8
0
10
-16.357481
20
63.9192047
11
-16.8789642
21
64.3506104
0
LINE
8
0
10
-16.8789642
20
64.3506104
11
-16.9369068
21
64.3985443
0
LINE
8
0
10
-16.9369068
20
64.3985443
11
-17.3347183
21
64.9460892
0
LINE
8
0
10
-17.3347183
20
64.9460892
11
-17.3789196
21
65.0069275
0
LINE
8
0
10
-17.3789196
20
65.0069275
11
-17.6280672
21
65.6361969
0
LINE
8
0
10
-17.6280672
20
65.6361969
11
-17.6557503
21
65.7061157
0
LINE
8
0
10
-17.6557503
20
65.7061157
11
-17.740575
21
66.3775795
0
LINE
8
0
10
-17.740575
20
66.3775795
11
-17.75
21
66.4521866
0
LINE
8
0
10
-17.75
20
66.4521866
11
-17.6651752
21
67.1236504
0
LINE
8
0
10
-17.6651752
20
67.1236504
11
-17.6557503
21
67.1982574
0
LINE
8
0
10
-17.6557503
20
67.1982574
11
-17.4066027
21
67.8275269
0
LINE
8
0
10
-17.4066027
20
67.8275269
11
-17.3789196
21
67.8974457
0
LINE
8
0
10
-17.3789196
20
67.8974457
11
-16.9811081
21
68.4449905
0
LINE
8
0
10
-16.9811081
20
68.4449905
11
-16.9369068
21
68.5058289
0
LINE
8
0
10
-16.9369068
20
68.5058289
11
-16.4154236
21
68.9372345
0
LINE
8
0
10
-16.4154236
20
68.9372345
11
-16.357481
21
68.9851685
0
LINE
8
0
10
-16.357481
20
68.9851685
11
-15.7450936
21
69.2733398
0
LINE
8
0
10
-15.7450936
20
69.2733398
11
-15.6770506
21
69.3053589
0
LINE
8
0
10
-15.6770506
20
69.3053589
11
-15.0122396
21
69.4321754
0
LINE
8
0
10
-15.0122396
20
69.4321754
11
-14.9383717
21
69.4462662
0
LINE
8
0
10
-14.9383717
20
69.4462662
11
-14.2629073
21
69.4037697
0
LINE
8
0
10
-14.2629073
20
69.4037697
11
-14.1878557
21
69.3990479
0
LINE
8
0
10
-14.1878557
20
69.3990479
11
-13.5441813
21
69.1899094
0
LINE
8
0
10
-13.5441813
20
69.1899094
11
-13.472662
21
69.1666718
0
LINE
8
0
10
-13.472662
20
69.1666718
11
-12.9012218
21
68.8040199
0
LINE
8
0
10
-12.9012218
20
68.8040199
11
-12.8377285
21
68.7637253
0
LINE
8
0
10
-12.8377285
20
68.7637253
11
-12.3744273
21
68.2703636
0
LINE
8
0
10
-12.3744273
20
68.2703636
11
-12.3229494
21
68.2155457
0
LINE
8
0
10
-12.3229494
20
68.2155457
11
-11.9968984
21
67.6224625
0
LINE
8
0
10
-11.9968984
20
67.6224625
11
-11.9606705
21
67.5565643
0
LINE
8
0
10
-11.9606705
20
67.5565643
11
-11.7923573
21
66.9010239
0
LINE
8
0
10
-11.7923573
20
66.9010239
11
-11.7736559
21
66.828186
0
LINE
8
0
10
-11.7736559
20
66.828186
11
-11.7736559
21
66.151387
0
LINE
8
0
10
-11.7736559
20
66.151387
11
-11.7736559
21
66.0761871
0
LINE
8
0
10
-11.7736559
20
66.0761871
11
-11.941969
21
65.4206535
0
LINE
8
0
10
-11.941969
20
65.4206535
11
-11.9606705
21
65.3478165
0
LINE
8
0
10
-11.9606705
20
65.3478165
11
-12.2867215
21
64.7547333
0
LINE
8
0
10
-12.2867215
20
64.7547333
11
-12.3229494
21
64.6888351
0
LINE
8
0
10
-12.3229494
20
64.6888351
11
-12.7862506
21
64.1954666
0
LINE
8
0
10
-12.7862506
20
64.1954666
11
-12.8377285
21
64.1406479
0
LINE
8
0
10
-12.8377285
20
64.1406479
11
-13.4091686
21
63.7779995
0
LINE
8
0
10
-13.4091686
20
63.7779995
11
-13.472662
21
63.7377052
0
LINE
8
0
10
-13.472662
20
63.7377052
11
-14.1163363
21
63.5285633
0
LINE
8
0
10
-14.1163363
20
63.5285633
11
-14.1878557
21
63.5053253
0
LINE
8
0
10
-14.1878557
20
63.5053253
11
-14.8633201
21
63.4628288
0
LINE
8
0
10
-14.8633201
20
63.4628288
11
-14.9383717
21
63.458107
0
LINE
8
0
10
-14.9383717
20
63.458107
11
-15.6031827
21
63.584927
0
LINE
8
0
10
-15.6031827
20
63.584927
11
-15.6031827
21
63.584927
0
LINE
8
0
10
24.3968164
20
63.584927
11
24.3229485
21
63.5990181
0
LINE
8
0
10
24.3229485
20
63.5990181
11
23.7105619
21
63.8871861
0
LINE
8
0
10
23.7105619
20
63.8871861
11
23.642519
21
63.9192047
0
LINE
8
0
10
23.642519
20
63.9192047
11
23.1210358
21
64.3506104
0
LINE
8
0
10
23.1210358
20
64.3506104
11
23.0630932
21
64.3985443
0
LINE
8
0
10
23.0630932
20
64.3985443
11
22.6652817
21
64.9460892
0
LINE
8
0
10
22.6652817
20
64.9460892
11
22.6210804
21
65.0069275
0
LINE
8
0
10
22.6210804
20
65.0069275
11
22.3719328
21
65.6361969
0
LINE
8
0
10
22.3719328
20
65.6361969
11
22.3442497
21
65.7061157
0
LINE
8
0
10
22.3442497
20
65.7061157
11
22.259425
21
66.3775795
0
LINE
8
0
10
22.259425
20
66.3775795
11
22.25
21
66.4521866
0
LINE
8
0
10
22.25
20
66.4521866
11
22.3348248
21
67.1236504
0
LINE
8
0
10
22.3348248
20
67.1236504
11
22.3442497
21
67.1982574
0
LINE
8
0
10
22.3442497
20
67.1982574
11
22.5933973
21
67.8275269
0
LINE
8
0
10
22.5933973
20
67.8275269
11
22.6210804
21
67.8974457
0
LINE
8
0
10
22.6210804
20
67.8974457
11
23.0188919
21
68.4449905
0
LINE
8
0
10
23.0188919
20
68.4449905
11
23.0630932
21
68.5058289
0
LINE
8
0
10
23.0630932
20
68.5058289
11
23.5845764
21
68.9372345
0
LINE
8
0
10
23.5845764
20
68.9372345
11
23.642519
21
68.9851685
0
LINE
8
0
10
23.642519
20
68.9851685
11
24.2549055
21
69.2733398
0
LINE
8
0
10
24.2549055
20
69.2733398
11
24.3229485
21
69.3053589
0
LINE
8
0
10
24.3229485
20
69.3053589
11
24.9877604
21
69.4321754
0
LINE
8
0
10
24.9877604
20
69.4321754
11
25.0616283
21
69.4462662
0
LINE
8
0
10
25.0616283
20
69.4462662
11
25.7370918
21
69.4037697
0
LINE
8
0
10
25.7370918
20
69.4037697
11
25.8121433
21
69.3990479
0
LINE
8
0
10
25.8121433
20
69.3990479
11
26.4558186
21
69.1899094
0
LINE
8
0
10
26.4558186
20
69.1899094
11
26.527338
21
69.1666718
0
LINE
8
0
10
26.527338
20
69.1666718
11
27.0987782
21
68.8040199
0
LINE
8
0
10
27.0987782
20
68.8040199
11
27.1622715
21
68.7637253
0
LINE
8
0
10
27.1622715
20
68.7637253
11
27.6255735
21
68.2703636
0
LINE
8
0
10
27.6255735
20
68.2703636
11
27.6770515
21
68.2155457
0
LINE
8
0
10
27.6770515
20
68.2155457
11
28.0031017
21
67.6224625
0
LINE
8
0
10
28.0031017
20
67.6224625
11
28.0393295
21
67.5565643
0
LINE
8
0
10
28.0393295
20
67.5565643
11
28.2076418
21
66.9010239
0
LINE
8
0
10
28.2076418
20
66.9010239
11
28.2263432
21
66.828186
0
LINE
8
0
10
28.2263432
20
66.828186
11
28.2263432
21
66.151387
0
LINE
8
0
10
28.2263432
20
66.151387
11
28.2263432
21
66.0761871
0
LINE
8
0
10
28.2263432
20
66.0761871
11
28.0580309
21
65.4206535
0
LINE
8
0
10
28.0580309
20
65.4206535
11
28.0393295
21
65.3478165
0
LINE
8
0
10
28.0393295
20
65.3478165
11
27.7132793
21
64.7547333
0
LINE
8
0
10
27.7132793
20
64.7547333
11
27.6770515
21
64.6888351
0
LINE
8
0
10
27.6770515
20
64.6888351
11
27.2137495
21
64.1954666
0
LINE
8
0
10
27.2137495
20
64.1954666
11
27.1622715
21
64.1406479
0
LINE
8
0
10
27.1622715
20
64.1406479
11
26.5908314
21
63.7779995
0
LINE
8
0
10
26.5908314
20
63.7779995
11
26.527338
21
63.7377052
0
LINE
8
0
10
26.527338
20
63.7377052
11
25.8836628
21
63.5285633
0
LINE
8
0
10
25.8836628
20
63.5285633
11
25.8121433
21
63.5053253
0
LINE
8
0
10
25.8121433
20
63.5053253
11
25.1366798
21
63.4628288
0
LINE
8
0
10
25.1366798
20
63.4628288
11
25.0616283
21
63.458107
0
LINE
8
0
10
25.0616283
20
63.458107
11
24.3968164
21
63.584927
0
LINE
8
0
10
24.3968164
20
63.584927
11
24.3968164
21
63.584927
0
LINE
8
0
10
61.75
20
83.9521866
11
57.95
21
83.9521866
0
LINE
8
0
10
57.95
20
83.9521866
11
23.75
21
83.9521866
0
LINE
8
0
10
23.75
20
83.9521866
11
23.75
21
89.6521866
0
LINE
8
0
10
23.75
20
89.6521866
11
23.75
21
121.152192
0
LINE
8
0
10
23.75
20
121.152192
11
23.75
21
128.952194
0
LINE
8
0
10
23.75
20
128.952194
11
23.15
21
128.952194
0
LINE
8
0
10
23.15
20
128.952194
11
19.75
21
128.952194
0
LINE
8
0
10
19.75
20
128.952194
11
19.75
21
121.152192
0
LINE
8
0
10
19.75
20
121.152192
11
19.75
21
65.1521866
0
LINE
8
0
10
19.75
20
65.1521866
11
19.75
21
48.9521866
0
LINE
8
0
10
19.75
20
48.9521866
11
55.45
21
48.9521866
0
LINE
8
0
10
55.45
20
48.9521866
11
61.75
21
48.9521866
0
LINE
8
0
10
61.75
20
48.9521866
11
70.75
21
57.9521866
0
LINE
8
0
10
70.75
20
57.9521866
11
71.75
21
58.9521866
0
LINE
8
0
10
71.75
20
58.9521866
11
71.75
21
60.4521866
0
LINE
8
0
10
71.75
20
60.4521866
11
71.75
21
73.9521866
0
LINE
8
0
10
71.75
20
73.9521866
11
62.75
21
82.9521866
0
LINE
8
0
10
62.75
20
82.9521866
11
61.75
21
83.9521866
0
LINE
8
0
10
61.75
20
83.9521866
11
61.75
21
83.9521866
0
LINE
8
0
10
-61.25
20
58.9521866
11
-61.25
21
72.4521866
0
LINE
8
0
10
-61.25
20
72.4521866
11
-61.25
21
73.9521866
0
LINE
8
0
10
-61.25
20
73.9521866
11
-60.25
21
74.9521866
0
LINE
8
0
10
-60.25
20
74.9521866
11
-51.25
21
83.9521866
0
LINE
8
0
10
-51.25
20
83.9521866
11
-17.05
21
83.9521866
0
LINE
8
0
10
-17.05
20
83.9521866
11
-13.25
21
83.9521866
0
LINE
8
0
10
-13.25
20
83.9521866
11
-13.25
21
89.6521866
0
LINE
8
0
10
-13.25
20
89.6521866
11
-13.25
21
121.152192
0
LINE
8
0
10
-13.25
20
121.152192
11
-13.25
21
128.952194
0
LINE
8
0
10
-13.25
20
128.952194
11
-12.65
21
128.952194
0
LINE
8
0
10
-12.65
20
128.952194
11
-9.25
21
128.952194
0
LINE
8
0
10
-9.25
20
128.952194
11
-9.25
21
121.152192
0
LINE
8
0
10
-9.25
20
121.152192
11
-9.25
21
65.1521866
0
LINE
8
0
10
-9.25
20
65.1521866
11
-9.25
21
48.9521866
0
LINE
8
0
10
-9.25
20
48.9521866
11
-44.95
21
48.9521866
0
LINE
8
0
10
-44.95
20
48.9521866
11
-51.25
21
48.9521866
0
LINE
8
0
10
-51.25
20
48.9521866
11
-52.25
21
49.9521866
0
LINE
8
0
10
-52.25
20
49.9521866
11
-61.25
21
58.9521866
0
LINE
8
0
10
-61.25
20
58.9521866
11
-61.25
21
58.9521866
0
ENDSEC
0
EOF
