0
SECTION
2
ENTITIES
0
LINE
8
0
10
-39.1551971
20
59.0107765
11
-38.9137702
21
59.5936329
0
LINE
8
0
10
-38.9137702
20
59.5936329
11
-38.9054451
21
59.6137314
0
LINE
8
0
10
-38.9054451
20
59.6137314
11
-38.5213914
21
60.1142376
0
LINE
8
0
10
-38.5213914
20
60.1142376
11
-38.5081482
21
60.1314964
0
LINE
8
0
10
-38.5081482
20
60.1314964
11
-38.0076383
21
60.5155501
0
LINE
8
0
10
-38.0076383
20
60.5155501
11
-37.9903793
21
60.5287933
0
LINE
8
0
10
-37.9903793
20
60.5287933
11
-37.4075267
21
60.7702203
0
LINE
8
0
10
-37.4075267
20
60.7702203
11
-37.3874283
21
60.7785454
0
LINE
8
0
10
-37.3874283
20
60.7785454
11
-36.7619476
21
60.8608919
0
LINE
8
0
10
-36.7619476
20
60.8608919
11
-36.7403793
21
60.8637314
0
LINE
8
0
10
-36.7403793
20
60.8637314
11
-36.1149024
21
60.7813849
0
LINE
8
0
10
-36.1149024
20
60.7813849
11
-36.0933342
21
60.7785454
0
LINE
8
0
10
-36.0933342
20
60.7785454
11
-35.5104778
21
60.5371184
0
LINE
8
0
10
-35.5104778
20
60.5371184
11
-35.4903793
21
60.5287933
0
LINE
8
0
10
-35.4903793
20
60.5287933
11
-34.9898731
21
60.1447397
0
LINE
8
0
10
-34.9898731
20
60.1447397
11
-34.9726143
21
60.1314964
0
LINE
8
0
10
-34.9726143
20
60.1314964
11
-34.5885606
21
59.6309902
0
LINE
8
0
10
-34.5885606
20
59.6309902
11
-34.5753174
21
59.6137314
0
LINE
8
0
10
-34.5753174
20
59.6137314
11
-34.3338904
21
59.030875
0
LINE
8
0
10
-34.3338904
20
59.030875
11
-34.3255653
21
59.0107765
0
LINE
8
0
10
-34.3255653
20
59.0107765
11
-34.2432189
21
58.3852996
0
LINE
8
0
10
-34.2432189
20
58.3852996
11
-34.2403793
21
58.3637314
0
LINE
8
0
10
-34.2403793
20
58.3637314
11
-34.3227258
21
57.7382507
0
LINE
8
0
10
-34.3227258
20
57.7382507
11
-34.3255653
21
57.7166824
0
LINE
8
0
10
-34.3255653
20
57.7166824
11
-34.5669923
21
57.1338298
0
LINE
8
0
10
-34.5669923
20
57.1338298
11
-34.5753174
21
57.1137314
0
LINE
8
0
10
-34.5753174
20
57.1137314
11
-34.9593711
21
56.6132215
0
LINE
8
0
10
-34.9593711
20
56.6132215
11
-34.9726143
21
56.5959625
0
LINE
8
0
10
-34.9726143
20
56.5959625
11
-35.4731205
21
56.2119088
0
LINE
8
0
10
-35.4731205
20
56.2119088
11
-35.4903793
21
56.1986656
0
LINE
8
0
10
-35.4903793
20
56.1986656
11
-36.0732357
21
55.9572423
0
LINE
8
0
10
-36.0732357
20
55.9572423
11
-36.0933342
21
55.9489174
0
LINE
8
0
10
-36.0933342
20
55.9489174
11
-36.7188112
21
55.8665709
0
LINE
8
0
10
-36.7188112
20
55.8665709
11
-36.7403793
21
55.8637314
0
LINE
8
0
10
-36.7403793
20
55.8637314
11
-37.36586
21
55.9460779
0
LINE
8
0
10
-37.36586
20
55.9460779
11
-37.3874283
21
55.9489174
0
LINE
8
0
10
-37.3874283
20
55.9489174
11
-37.970281
21
56.1903407
0
LINE
8
0
10
-37.970281
20
56.1903407
11
-37.9903793
21
56.1986656
0
LINE
8
0
10
-37.9903793
20
56.1986656
11
-38.4908892
21
56.5827193
0
LINE
8
0
10
-38.4908892
20
56.5827193
11
-38.5081482
21
56.5959625
0
LINE
8
0
10
-38.5081482
20
56.5959625
11
-38.8922019
21
57.0964724
0
LINE
8
0
10
-38.8922019
20
57.0964724
11
-38.9054451
21
57.1137314
0
LINE
8
0
10
-38.9054451
20
57.1137314
11
-39.1468721
21
57.6965841
0
LINE
8
0
10
-39.1468721
20
57.6965841
11
-39.1551971
21
57.7166824
0
LINE
8
0
10
-39.1551971
20
57.7166824
11
-39.2375399
21
58.3421631
0
LINE
8
0
10
-39.2375399
20
58.3421631
11
-39.2403793
21
58.3637314
0
LINE
8
0
10
-39.2403793
20
58.3637314
11
-39.1580365
21
58.9892083
0
LINE
8
0
10
-39.1580365
20
58.9892083
11
-39.1551971
21
59.0107765
0
LINE
8
0
10
-39.1551971
20
59.0107765
11
-39.1551971
21
59.0107765
0
LINE
8
0
10
49.4054451
20
57.1137314
11
49.4137702
21
57.1338298
0
LINE
8
0
10
49.4137702
20
57.1338298
11
49.6551971
21
57.7166824
0
LINE
8
0
10
49.6551971
20
57.7166824
11
49.6580365
21
57.7382507
0
LINE
8
0
10
49.6580365
20
57.7382507
11
49.7403793
21
58.3637314
0
LINE
8
0
10
49.7403793
20
58.3637314
11
49.7375399
21
58.3852996
0
LINE
8
0
10
49.7375399
20
58.3852996
11
49.6551971
21
59.0107765
0
LINE
8
0
10
49.6551971
20
59.0107765
11
49.6468721
21
59.030875
0
LINE
8
0
10
49.6468721
20
59.030875
11
49.4054451
21
59.6137314
0
LINE
8
0
10
49.4054451
20
59.6137314
11
49.3922019
21
59.6309902
0
LINE
8
0
10
49.3922019
20
59.6309902
11
49.0081482
21
60.1314964
0
LINE
8
0
10
49.0081482
20
60.1314964
11
48.9908892
21
60.1447397
0
LINE
8
0
10
48.9908892
20
60.1447397
11
48.4903793
21
60.5287933
0
LINE
8
0
10
48.4903793
20
60.5287933
11
48.470281
21
60.5371184
0
LINE
8
0
10
48.470281
20
60.5371184
11
47.8874283
21
60.7785454
0
LINE
8
0
10
47.8874283
20
60.7785454
11
47.86586
21
60.7813849
0
LINE
8
0
10
47.86586
20
60.7813849
11
47.2403793
21
60.8637314
0
LINE
8
0
10
47.2403793
20
60.8637314
11
47.2188112
21
60.8608919
0
LINE
8
0
10
47.2188112
20
60.8608919
11
46.5933342
21
60.7785454
0
LINE
8
0
10
46.5933342
20
60.7785454
11
46.5732357
21
60.7702203
0
LINE
8
0
10
46.5732357
20
60.7702203
11
45.9903793
21
60.5287933
0
LINE
8
0
10
45.9903793
20
60.5287933
11
45.9731205
21
60.5155501
0
LINE
8
0
10
45.9731205
20
60.5155501
11
45.4726143
21
60.1314964
0
LINE
8
0
10
45.4726143
20
60.1314964
11
45.4593711
21
60.1142376
0
LINE
8
0
10
45.4593711
20
60.1142376
11
45.0753174
21
59.6137314
0
LINE
8
0
10
45.0753174
20
59.6137314
11
45.0669923
21
59.5936329
0
LINE
8
0
10
45.0669923
20
59.5936329
11
44.8255653
21
59.0107765
0
LINE
8
0
10
44.8255653
20
59.0107765
11
44.8227258
21
58.9892083
0
LINE
8
0
10
44.8227258
20
58.9892083
11
44.7403793
21
58.3637314
0
LINE
8
0
10
44.7403793
20
58.3637314
11
44.7432189
21
58.3421631
0
LINE
8
0
10
44.7432189
20
58.3421631
11
44.8255653
21
57.7166824
0
LINE
8
0
10
44.8255653
20
57.7166824
11
44.8338904
21
57.6965841
0
LINE
8
0
10
44.8338904
20
57.6965841
11
45.0753174
21
57.1137314
0
LINE
8
0
10
45.0753174
20
57.1137314
11
45.0885606
21
57.0964724
0
LINE
8
0
10
45.0885606
20
57.0964724
11
45.4726143
21
56.5959625
0
LINE
8
0
10
45.4726143
20
56.5959625
11
45.4898731
21
56.5827193
0
LINE
8
0
10
45.4898731
20
56.5827193
11
45.9903793
21
56.1986656
0
LINE
8
0
10
45.9903793
20
56.1986656
11
46.0104778
21
56.1903407
0
LINE
8
0
10
46.0104778
20
56.1903407
11
46.5933342
21
55.9489174
0
LINE
8
0
10
46.5933342
20
55.9489174
11
46.6149024
21
55.9460779
0
LINE
8
0
10
46.6149024
20
55.9460779
11
47.2403793
21
55.8637314
0
LINE
8
0
10
47.2403793
20
55.8637314
11
47.2619476
21
55.8665709
0
LINE
8
0
10
47.2619476
20
55.8665709
11
47.8874283
21
55.9489174
0
LINE
8
0
10
47.8874283
20
55.9489174
11
47.9075267
21
55.9572423
0
LINE
8
0
10
47.9075267
20
55.9572423
11
48.4903793
21
56.1986656
0
LINE
8
0
10
48.4903793
20
56.1986656
11
48.5076383
21
56.2119088
0
LINE
8
0
10
48.5076383
20
56.2119088
11
49.0081482
21
56.5959625
0
LINE
8
0
10
49.0081482
20
56.5959625
11
49.0213914
21
56.6132215
0
LINE
8
0
10
49.0213914
20
56.6132215
11
49.4054451
21
57.1137314
0
LINE
8
0
10
49.4054451
20
57.1137314
11
49.4054451
21
57.1137314
0
LINE
8
0
10
-48.8831928
20
62.5827193
11
-48.9004517
21
62.5959625
0
LINE
8
0
10
-48.9004517
20
62.5959625
11
-49.2845053
21
63.0964724
0
LINE
8
0
10
-49.2845053
20
63.0964724
11
-49.2977486
21
63.1137314
0
LINE
8
0
10
-49.2977486
20
63.1137314
11
-49.5391755
21
63.6965841
0
LINE
8
0
10
-49.5391755
20
63.6965841
11
-49.5475006
21
63.7166824
0
LINE
8
0
10
-49.5475006
20
63.7166824
11
-49.6298471
21
64.3421631
0
LINE
8
0
10
-49.6298471
20
64.3421631
11
-49.6326866
21
64.3637314
0
LINE
8
0
10
-49.6326866
20
64.3637314
11
-49.5503401
21
64.989212
0
LINE
8
0
10
-49.5503401
20
64.989212
11
-49.5475006
21
65.0107803
0
LINE
8
0
10
-49.5475006
20
65.0107803
11
-49.3060736
21
65.593633
0
LINE
8
0
10
-49.3060736
20
65.593633
11
-49.2977486
21
65.6137314
0
LINE
8
0
10
-49.2977486
20
65.6137314
11
-48.9136949
21
66.1142413
0
LINE
8
0
10
-48.9136949
20
66.1142413
11
-48.9004517
21
66.1315002
0
LINE
8
0
10
-48.9004517
20
66.1315002
11
-48.3999454
21
66.5155502
0
LINE
8
0
10
-48.3999454
20
66.5155502
11
-48.3826866
21
66.5287933
0
LINE
8
0
10
-48.3826866
20
66.5287933
11
-47.7998302
21
66.7702166
0
LINE
8
0
10
-47.7998302
20
66.7702166
11
-47.7797318
21
66.7785416
0
LINE
8
0
10
-47.7797318
20
66.7785416
11
-47.1542548
21
66.8608917
0
LINE
8
0
10
-47.1542548
20
66.8608917
11
-47.1326866
21
66.8637314
0
LINE
8
0
10
-47.1326866
20
66.8637314
11
-46.507206
21
66.7813812
0
LINE
8
0
10
-46.507206
20
66.7813812
11
-46.4856377
21
66.7785416
0
LINE
8
0
10
-46.4856377
20
66.7785416
11
-45.902785
21
66.5371183
0
LINE
8
0
10
-45.902785
20
66.5371183
11
-45.8826866
21
66.5287933
0
LINE
8
0
10
-45.8826866
20
66.5287933
11
-45.3821767
21
66.1447433
0
LINE
8
0
10
-45.3821767
20
66.1447433
11
-45.3649178
21
66.1315002
0
LINE
8
0
10
-45.3649178
20
66.1315002
11
-44.9808641
21
65.6309903
0
LINE
8
0
10
-44.9808641
20
65.6309903
11
-44.9676208
21
65.6137314
0
LINE
8
0
10
-44.9676208
20
65.6137314
11
-44.7261976
21
65.0308787
0
LINE
8
0
10
-44.7261976
20
65.0308787
11
-44.7178726
21
65.0107803
0
LINE
8
0
10
-44.7178726
20
65.0107803
11
-44.6355261
21
64.3852997
0
LINE
8
0
10
-44.6355261
20
64.3852997
11
-44.6326866
21
64.3637314
0
LINE
8
0
10
-44.6326866
20
64.3637314
11
-44.7150331
21
63.7382507
0
LINE
8
0
10
-44.7150331
20
63.7382507
11
-44.7178726
21
63.7166824
0
LINE
8
0
10
-44.7178726
20
63.7166824
11
-44.9592959
21
63.1338298
0
LINE
8
0
10
-44.9592959
20
63.1338298
11
-44.9676208
21
63.1137314
0
LINE
8
0
10
-44.9676208
20
63.1137314
11
-45.3516745
21
62.6132215
0
LINE
8
0
10
-45.3516745
20
62.6132215
11
-45.3649178
21
62.5959625
0
LINE
8
0
10
-45.3649178
20
62.5959625
11
-45.8654277
21
62.2119088
0
LINE
8
0
10
-45.8654277
20
62.2119088
11
-45.8826866
21
62.1986656
0
LINE
8
0
10
-45.8826866
20
62.1986656
11
-46.4655393
21
61.9572423
0
LINE
8
0
10
-46.4655393
20
61.9572423
11
-46.4856377
21
61.9489174
0
LINE
8
0
10
-46.4856377
20
61.9489174
11
-47.1111183
21
61.8665709
0
LINE
8
0
10
-47.1111183
20
61.8665709
11
-47.1326866
21
61.8637314
0
LINE
8
0
10
-47.1326866
20
61.8637314
11
-47.7581636
21
61.9460779
0
LINE
8
0
10
-47.7581636
20
61.9460779
11
-47.7797318
21
61.9489174
0
LINE
8
0
10
-47.7797318
20
61.9489174
11
-48.3625881
21
62.1903407
0
LINE
8
0
10
-48.3625881
20
62.1903407
11
-48.3826866
21
62.1986656
0
LINE
8
0
10
-48.3826866
20
62.1986656
11
-48.8831928
21
62.5827193
0
LINE
8
0
10
-48.8831928
20
62.5827193
11
-48.8831928
21
62.5827193
0
LINE
8
0
10
56.9856377
20
66.7785416
11
56.9655393
21
66.7702166
0
LINE
8
0
10
56.9655393
20
66.7702166
11
56.3826866
21
66.5287933
0
LINE
8
0
10
56.3826866
20
66.5287933
11
56.3654277
21
66.5155502
0
LINE
8
0
10
56.3654277
20
66.5155502
11
55.8649178
21
66.1315002
0
LINE
8
0
10
55.8649178
20
66.1315002
11
55.8516745
21
66.1142413
0
LINE
8
0
10
55.8516745
20
66.1142413
11
55.4676208
21
65.6137314
0
LINE
8
0
10
55.4676208
20
65.6137314
11
55.4592959
21
65.593633
0
LINE
8
0
10
55.4592959
20
65.593633
11
55.2178726
21
65.0107803
0
LINE
8
0
10
55.2178726
20
65.0107803
11
55.2150331
21
64.989212
0
LINE
8
0
10
55.2150331
20
64.989212
11
55.1326866
21
64.3637314
0
LINE
8
0
10
55.1326866
20
64.3637314
11
55.1355261
21
64.3421631
0
LINE
8
0
10
55.1355261
20
64.3421631
11
55.2178726
21
63.7166824
0
LINE
8
0
10
55.2178726
20
63.7166824
11
55.2261976
21
63.6965841
0
LINE
8
0
10
55.2261976
20
63.6965841
11
55.4676208
21
63.1137314
0
LINE
8
0
10
55.4676208
20
63.1137314
11
55.4808641
21
63.0964724
0
LINE
8
0
10
55.4808641
20
63.0964724
11
55.8649178
21
62.5959625
0
LINE
8
0
10
55.8649178
20
62.5959625
11
55.8821767
21
62.5827193
0
LINE
8
0
10
55.8821767
20
62.5827193
11
56.3826866
21
62.1986656
0
LINE
8
0
10
56.3826866
20
62.1986656
11
56.402785
21
62.1903407
0
LINE
8
0
10
56.402785
20
62.1903407
11
56.9856377
21
61.9489174
0
LINE
8
0
10
56.9856377
20
61.9489174
11
57.007206
21
61.9460779
0
LINE
8
0
10
57.007206
20
61.9460779
11
57.6326866
21
61.8637314
0
LINE
8
0
10
57.6326866
20
61.8637314
11
57.6542548
21
61.8665709
0
LINE
8
0
10
57.6542548
20
61.8665709
11
58.2797318
21
61.9489174
0
LINE
8
0
10
58.2797318
20
61.9489174
11
58.2998302
21
61.9572423
0
LINE
8
0
10
58.2998302
20
61.9572423
11
58.8826866
21
62.1986656
0
LINE
8
0
10
58.8826866
20
62.1986656
11
58.8999454
21
62.2119088
0
LINE
8
0
10
58.8999454
20
62.2119088
11
59.4004517
21
62.5959625
0
LINE
8
0
10
59.4004517
20
62.5959625
11
59.4136949
21
62.6132215
0
LINE
8
0
10
59.4136949
20
62.6132215
11
59.7977486
21
63.1137314
0
LINE
8
0
10
59.7977486
20
63.1137314
11
59.8060736
21
63.1338298
0
LINE
8
0
10
59.8060736
20
63.1338298
11
60.0475006
21
63.7166824
0
LINE
8
0
10
60.0475006
20
63.7166824
11
60.0503401
21
63.7382507
0
LINE
8
0
10
60.0503401
20
63.7382507
11
60.1326866
21
64.3637314
0
LINE
8
0
10
60.1326866
20
64.3637314
11
60.1298471
21
64.3852997
0
LINE
8
0
10
60.1298471
20
64.3852997
11
60.0475006
21
65.0107803
0
LINE
8
0
10
60.0475006
20
65.0107803
11
60.0391755
21
65.0308787
0
LINE
8
0
10
60.0391755
20
65.0308787
11
59.7977486
21
65.6137314
0
LINE
8
0
10
59.7977486
20
65.6137314
11
59.7845053
21
65.6309903
0
LINE
8
0
10
59.7845053
20
65.6309903
11
59.4004517
21
66.1315002
0
LINE
8
0
10
59.4004517
20
66.1315002
11
59.3831928
21
66.1447433
0
LINE
8
0
10
59.3831928
20
66.1447433
11
58.8826866
21
66.5287933
0
LINE
8
0
10
58.8826866
20
66.5287933
11
58.8625881
21
66.5371183
0
LINE
8
0
10
58.8625881
20
66.5371183
11
58.2797318
21
66.7785416
0
LINE
8
0
10
58.2797318
20
66.7785416
11
58.2581636
21
66.7813812
0
LINE
8
0
10
58.2581636
20
66.7813812
11
57.6326866
21
66.8637314
0
LINE
8
0
10
57.6326866
20
66.8637314
11
57.6111183
21
66.8608917
0
LINE
8
0
10
57.6111183
20
66.8608917
11
56.9856377
21
66.7785416
0
LINE
8
0
10
56.9856377
20
66.7785416
11
56.9856377
21
66.7785416
0
LINE
8
0
10
-16.9369068
20
68.5058289
11
-16.9516406
21
68.4855494
0
LINE
8
0
10
-16.9516406
20
68.4855494
11
-17.3789196
21
67.8974457
0
LINE
8
0
10
-17.3789196
20
67.8974457
11
-17.3881473
21
67.8741394
0
LINE
8
0
10
-17.3881473
20
67.8741394
11
-17.6557503
21
67.1982574
0
LINE
8
0
10
-17.6557503
20
67.1982574
11
-17.6588919
21
67.1733884
0
LINE
8
0
10
-17.6588919
20
67.1733884
11
-17.75
21
66.4521866
0
LINE
8
0
10
-17.75
20
66.4521866
11
-17.7468583
21
66.4273176
0
LINE
8
0
10
-17.7468583
20
66.4273176
11
-17.6557503
21
65.7061157
0
LINE
8
0
10
-17.6557503
20
65.7061157
11
-17.6465226
21
65.6828094
0
LINE
8
0
10
-17.6465226
20
65.6828094
11
-17.3789196
21
65.0069275
0
LINE
8
0
10
-17.3789196
20
65.0069275
11
-17.3641858
21
64.9866481
0
LINE
8
0
10
-17.3641858
20
64.9866481
11
-16.9369068
21
64.3985443
0
LINE
8
0
10
-16.9369068
20
64.3985443
11
-16.9175926
21
64.3825663
0
LINE
8
0
10
-16.9175926
20
64.3825663
11
-16.357481
21
63.9192047
0
LINE
8
0
10
-16.357481
20
63.9192047
11
-16.3348
21
63.9085318
0
LINE
8
0
10
-16.3348
20
63.9085318
11
-15.6770506
21
63.5990181
0
LINE
8
0
10
-15.6770506
20
63.5990181
11
-15.652428
21
63.5943211
0
LINE
8
0
10
-15.652428
20
63.5943211
11
-14.9383717
21
63.458107
0
LINE
8
0
10
-14.9383717
20
63.458107
11
-14.9133545
21
63.4596809
0
LINE
8
0
10
-14.9133545
20
63.4596809
11
-14.1878557
21
63.5053253
0
LINE
8
0
10
-14.1878557
20
63.5053253
11
-14.1640159
21
63.5130713
0
LINE
8
0
10
-14.1640159
20
63.5130713
11
-13.472662
21
63.7377052
0
LINE
8
0
10
-13.472662
20
63.7377052
11
-13.4514975
21
63.7511367
0
LINE
8
0
10
-13.4514975
20
63.7511367
11
-12.8377285
21
64.1406479
0
LINE
8
0
10
-12.8377285
20
64.1406479
11
-12.8205692
21
64.1589208
0
LINE
8
0
10
-12.8205692
20
64.1589208
11
-12.3229494
21
64.6888351
0
LINE
8
0
10
-12.3229494
20
64.6888351
11
-12.3108734
21
64.7108012
0
LINE
8
0
10
-12.3108734
20
64.7108012
11
-11.9606705
21
65.3478165
0
LINE
8
0
10
-11.9606705
20
65.3478165
11
-11.9544367
21
65.3720955
0
LINE
8
0
10
-11.9544367
20
65.3720955
11
-11.7736559
21
66.0761871
0
LINE
8
0
10
-11.7736559
20
66.0761871
11
-11.7736559
21
66.1012538
0
LINE
8
0
10
-11.7736559
20
66.1012538
11
-11.7736559
21
66.828186
0
LINE
8
0
10
-11.7736559
20
66.828186
11
-11.7798897
21
66.8524653
0
LINE
8
0
10
-11.7798897
20
66.8524653
11
-11.9606705
21
67.5565643
0
LINE
8
0
10
-11.9606705
20
67.5565643
11
-11.9727464
21
67.5785304
0
LINE
8
0
10
-11.9727464
20
67.5785304
11
-12.3229494
21
68.2155457
0
LINE
8
0
10
-12.3229494
20
68.2155457
11
-12.3401087
21
68.2338183
0
LINE
8
0
10
-12.3401087
20
68.2338183
11
-12.8377285
21
68.7637253
0
LINE
8
0
10
-12.8377285
20
68.7637253
11
-12.8588929
21
68.7771568
0
LINE
8
0
10
-12.8588929
20
68.7771568
11
-13.472662
21
69.1666718
0
LINE
8
0
10
-13.472662
20
69.1666718
11
-13.4965018
21
69.1744176
0
LINE
8
0
10
-13.4965018
20
69.1744176
11
-14.1878557
21
69.3990479
0
LINE
8
0
10
-14.1878557
20
69.3990479
11
-14.2128729
21
69.4006218
0
LINE
8
0
10
-14.2128729
20
69.4006218
11
-14.9383717
21
69.4462662
0
LINE
8
0
10
-14.9383717
20
69.4462662
11
-14.9629943
21
69.4415693
0
LINE
8
0
10
-14.9629943
20
69.4415693
11
-15.6770506
21
69.3053589
0
LINE
8
0
10
-15.6770506
20
69.3053589
11
-15.6997316
21
69.2946859
0
LINE
8
0
10
-15.6997316
20
69.2946859
11
-16.357481
21
68.9851685
0
LINE
8
0
10
-16.357481
20
68.9851685
11
-16.3767952
21
68.9691905
0
LINE
8
0
10
-16.3767952
20
68.9691905
11
-16.9369068
21
68.5058289
0
LINE
8
0
10
-16.9369068
20
68.5058289
11
-16.9369068
21
68.5058289
0
LINE
8
0
10
23.0630932
20
68.5058289
11
23.0483594
21
68.4855494
0
LINE
8
0
10
23.0483594
20
68.4855494
11
22.6210804
21
67.8974457
0
LINE
8
0
10
22.6210804
20
67.8974457
11
22.6118527
21
67.8741394
0
LINE
8
0
10
22.6118527
20
67.8741394
11
22.3442497
21
67.1982574
0
LINE
8
0
10
22.3442497
20
67.1982574
11
22.3411081
21
67.1733884
0
LINE
8
0
10
22.3411081
20
67.1733884
11
22.25
21
66.4521866
0
LINE
8
0
10
22.25
20
66.4521866
11
22.2531417
21
66.4273176
0
LINE
8
0
10
22.2531417
20
66.4273176
11
22.3442497
21
65.7061157
0
LINE
8
0
10
22.3442497
20
65.7061157
11
22.3534774
21
65.6828094
0
LINE
8
0
10
22.3534774
20
65.6828094
11
22.6210804
21
65.0069275
0
LINE
8
0
10
22.6210804
20
65.0069275
11
22.6358142
21
64.9866481
0
LINE
8
0
10
22.6358142
20
64.9866481
11
23.0630932
21
64.3985443
0
LINE
8
0
10
23.0630932
20
64.3985443
11
23.0824074
21
64.3825663
0
LINE
8
0
10
23.0824074
20
64.3825663
11
23.642519
21
63.9192047
0
LINE
8
0
10
23.642519
20
63.9192047
11
23.6652
21
63.9085318
0
LINE
8
0
10
23.6652
20
63.9085318
11
24.3229485
21
63.5990181
0
LINE
8
0
10
24.3229485
20
63.5990181
11
24.3475711
21
63.5943211
0
LINE
8
0
10
24.3475711
20
63.5943211
11
25.0616283
21
63.458107
0
LINE
8
0
10
25.0616283
20
63.458107
11
25.0866455
21
63.4596809
0
LINE
8
0
10
25.0866455
20
63.4596809
11
25.8121433
21
63.5053253
0
LINE
8
0
10
25.8121433
20
63.5053253
11
25.8359831
21
63.5130713
0
LINE
8
0
10
25.8359831
20
63.5130713
11
26.527338
21
63.7377052
0
LINE
8
0
10
26.527338
20
63.7377052
11
26.5485025
21
63.7511367
0
LINE
8
0
10
26.5485025
20
63.7511367
11
27.1622715
21
64.1406479
0
LINE
8
0
10
27.1622715
20
64.1406479
11
27.1794308
21
64.1589208
0
LINE
8
0
10
27.1794308
20
64.1589208
11
27.6770515
21
64.6888351
0
LINE
8
0
10
27.6770515
20
64.6888351
11
27.6891275
21
64.7108012
0
LINE
8
0
10
27.6891275
20
64.7108012
11
28.0393295
21
65.3478165
0
LINE
8
0
10
28.0393295
20
65.3478165
11
28.0455633
21
65.3720955
0
LINE
8
0
10
28.0455633
20
65.3720955
11
28.2263432
21
66.0761871
0
LINE
8
0
10
28.2263432
20
66.0761871
11
28.2263432
21
66.1012538
0
LINE
8
0
10
28.2263432
20
66.1012538
11
28.2263432
21
66.828186
0
LINE
8
0
10
28.2263432
20
66.828186
11
28.2201094
21
66.8524653
0
LINE
8
0
10
28.2201094
20
66.8524653
11
28.0393295
21
67.5565643
0
LINE
8
0
10
28.0393295
20
67.5565643
11
28.0272536
21
67.5785304
0
LINE
8
0
10
28.0272536
20
67.5785304
11
27.6770515
21
68.2155457
0
LINE
8
0
10
27.6770515
20
68.2155457
11
27.6598922
21
68.2338183
0
LINE
8
0
10
27.6598922
20
68.2338183
11
27.1622715
21
68.7637253
0
LINE
8
0
10
27.1622715
20
68.7637253
11
27.1411071
21
68.7771568
0
LINE
8
0
10
27.1411071
20
68.7771568
11
26.527338
21
69.1666718
0
LINE
8
0
10
26.527338
20
69.1666718
11
26.5034982
21
69.1744176
0
LINE
8
0
10
26.5034982
20
69.1744176
11
25.8121433
21
69.3990479
0
LINE
8
0
10
25.8121433
20
69.3990479
11
25.7871262
21
69.4006218
0
LINE
8
0
10
25.7871262
20
69.4006218
11
25.0616283
21
69.4462662
0
LINE
8
0
10
25.0616283
20
69.4462662
11
25.0370057
21
69.4415693
0
LINE
8
0
10
25.0370057
20
69.4415693
11
24.3229485
21
69.3053589
0
LINE
8
0
10
24.3229485
20
69.3053589
11
24.3002675
21
69.2946859
0
LINE
8
0
10
24.3002675
20
69.2946859
11
23.642519
21
68.9851685
0
LINE
8
0
10
23.642519
20
68.9851685
11
23.6232048
21
68.9691905
0
LINE
8
0
10
23.6232048
20
68.9691905
11
23.0630932
21
68.5058289
0
LINE
8
0
10
23.0630932
20
68.5058289
11
23.0630932
21
68.5058289
0
LINE
8
0
10
61.75
20
83.9521866
11
60.4833333
21
83.9521866
0
LINE
8
0
10
60.4833333
20
83.9521866
11
23.75
21
83.9521866
0
LINE
8
0
10
23.75
20
83.9521866
11
23.75
21
85.8521866
0
LINE
8
0
10
23.75
20
85.8521866
11
23.75
21
126.352193
0
LINE
8
0
10
23.75
20
126.352193
11
23.75
21
128.952194
0
LINE
8
0
10
23.75
20
128.952194
11
23.55
21
128.952194
0
LINE
8
0
10
23.55
20
128.952194
11
19.75
21
128.952194
0
LINE
8
0
10
19.75
20
128.952194
11
19.75
21
126.352193
0
LINE
8
0
10
19.75
20
126.352193
11
19.75
21
54.3521866
0
LINE
8
0
10
19.75
20
54.3521866
11
19.75
21
48.9521866
0
LINE
8
0
10
19.75
20
48.9521866
11
59.65
21
48.9521866
0
LINE
8
0
10
59.65
20
48.9521866
11
61.75
21
48.9521866
0
LINE
8
0
10
61.75
20
48.9521866
11
71.4166667
21
58.6188533
0
LINE
8
0
10
71.4166667
20
58.6188533
11
71.75
21
58.9521866
0
LINE
8
0
10
71.75
20
58.9521866
11
71.75
21
59.4521866
0
LINE
8
0
10
71.75
20
59.4521866
11
71.75
21
73.9521866
0
LINE
8
0
10
71.75
20
73.9521866
11
62.0833333
21
83.6188533
0
LINE
8
0
10
62.0833333
20
83.6188533
11
61.75
21
83.9521866
0
LINE
8
0
10
61.75
20
83.9521866
11
61.75
21
83.9521866
0
LINE
8
0
10
-61.25
20
58.9521866
11
-61.25
21
73.4521866
0
LINE
8
0
10
-61.25
20
73.4521866
11
-61.25
21
73.9521866
0
LINE
8
0
10
-61.25
20
73.9521866
11
-60.9166667
21
74.2855199
0
LINE
8
0
10
-60.9166667
20
74.2855199
11
-51.25
21
83.9521866
0
LINE
8
0
10
-51.25
20
83.9521866
11
-14.5166667
21
83.9521866
0
LINE
8
0
10
-14.5166667
20
83.9521866
11
-13.25
21
83.9521866
0
LINE
8
0
10
-13.25
20
83.9521866
11
-13.25
21
85.8521866
0
LINE
8
0
10
-13.25
20
85.8521866
11
-13.25
21
126.352193
0
LINE
8
0
10
-13.25
20
126.352193
11
-13.25
21
128.952194
0
LINE
8
0
10
-13.25
20
128.952194
11
-13.05
21
128.952194
0
LINE
8
0
10
-13.05
20
128.952194
11
-9.25
21
128.952194
0
LINE
8
0
10
-9.25
20
128.952194
11
-9.25
21
126.352193
0
LINE
8
0
10
-9.25
20
126.352193
11
-9.25
21
54.3521866
0
LINE
8
0
10
-9.25
20
54.3521866
11
-9.25
21
48.9521866
0
LINE
8
0
10
-9.25
20
48.9521866
11
-49.15
21
48.9521866
0
LINE
8
0
10
-49.15
20
48.9521866
11
-51.25
21
48.9521866
0
LINE
8
0
10
-51.25
20
48.9521866
11
-51.5833333
21
49.2855199
0
LINE
8
0
10
-51.5833333
20
49.2855199
11
-61.25
21
58.9521866
0
LINE
8
0
10
-61.25
20
58.9521866
11
-61.25
21
58.9521866
0
ENDSEC
0
EOF
