0
SECTION
2
ENTITIES
0
LINE
8
0
10
-39.1551971
20
59.0107765
11
-39.2285485
21
58.4535988
0
LINE
8
0
10
-39.2285485
20
58.4535988
11
-39.2403793
21
58.3637314
0
LINE
8
0
10
-39.2403793
20
58.3637314
11
-39.167028
21
57.8065503
0
LINE
8
0
10
-39.167028
20
57.8065503
11
-39.1551971
21
57.7166824
0
LINE
8
0
10
-39.1551971
20
57.7166824
11
-38.9401329
21
57.1974746
0
LINE
8
0
10
-38.9401329
20
57.1974746
11
-38.9054451
21
57.1137314
0
LINE
8
0
10
-38.9054451
20
57.1137314
11
-38.5633283
21
56.6678749
0
LINE
8
0
10
-38.5633283
20
56.6678749
11
-38.5081482
21
56.5959625
0
LINE
8
0
10
-38.5081482
20
56.5959625
11
-38.0622917
21
56.2538457
0
LINE
8
0
10
-38.0622917
20
56.2538457
11
-37.9903793
21
56.1986656
0
LINE
8
0
10
-37.9903793
20
56.1986656
11
-37.4711715
21
55.9836046
0
LINE
8
0
10
-37.4711715
20
55.9836046
11
-37.3874283
21
55.9489174
0
LINE
8
0
10
-37.3874283
20
55.9489174
11
-36.8302472
21
55.8755628
0
LINE
8
0
10
-36.8302472
20
55.8755628
11
-36.7403793
21
55.8637314
0
LINE
8
0
10
-36.7403793
20
55.8637314
11
-36.1832016
21
55.937086
0
LINE
8
0
10
-36.1832016
20
55.937086
11
-36.0933342
21
55.9489174
0
LINE
8
0
10
-36.0933342
20
55.9489174
11
-35.5741231
21
56.1639784
0
LINE
8
0
10
-35.5741231
20
56.1639784
11
-35.4903793
21
56.1986656
0
LINE
8
0
10
-35.4903793
20
56.1986656
11
-35.0445261
21
56.5407824
0
LINE
8
0
10
-35.0445261
20
56.5407824
11
-34.9726143
21
56.5959625
0
LINE
8
0
10
-34.9726143
20
56.5959625
11
-34.6304975
21
57.041819
0
LINE
8
0
10
-34.6304975
20
57.041819
11
-34.5753174
21
57.1137314
0
LINE
8
0
10
-34.5753174
20
57.1137314
11
-34.3602531
21
57.6329392
0
LINE
8
0
10
-34.3602531
20
57.6329392
11
-34.3255653
21
57.7166824
0
LINE
8
0
10
-34.3255653
20
57.7166824
11
-34.2522107
21
58.2738635
0
LINE
8
0
10
-34.2522107
20
58.2738635
11
-34.2403793
21
58.3637314
0
LINE
8
0
10
-34.2403793
20
58.3637314
11
-34.3137339
21
58.9209091
0
LINE
8
0
10
-34.3137339
20
58.9209091
11
-34.3255653
21
59.0107765
0
LINE
8
0
10
-34.3255653
20
59.0107765
11
-34.5406296
21
59.5299877
0
LINE
8
0
10
-34.5406296
20
59.5299877
11
-34.5753174
21
59.6137314
0
LINE
8
0
10
-34.5753174
20
59.6137314
11
-34.9174342
21
60.0595846
0
LINE
8
0
10
-34.9174342
20
60.0595846
11
-34.9726143
21
60.1314964
0
LINE
8
0
10
-34.9726143
20
60.1314964
11
-35.4184675
21
60.4736132
0
LINE
8
0
10
-35.4184675
20
60.4736132
11
-35.4903793
21
60.5287933
0
LINE
8
0
10
-35.4903793
20
60.5287933
11
-36.0095905
21
60.7438576
0
LINE
8
0
10
-36.0095905
20
60.7438576
11
-36.0933342
21
60.7785454
0
LINE
8
0
10
-36.0933342
20
60.7785454
11
-36.650512
21
60.8519
0
LINE
8
0
10
-36.650512
20
60.8519
11
-36.7403793
21
60.8637314
0
LINE
8
0
10
-36.7403793
20
60.8637314
11
-37.2975604
21
60.7903768
0
LINE
8
0
10
-37.2975604
20
60.7903768
11
-37.3874283
21
60.7785454
0
LINE
8
0
10
-37.3874283
20
60.7785454
11
-37.9066361
21
60.5634811
0
LINE
8
0
10
-37.9066361
20
60.5634811
11
-37.9903793
21
60.5287933
0
LINE
8
0
10
-37.9903793
20
60.5287933
11
-38.4362359
21
60.1866766
0
LINE
8
0
10
-38.4362359
20
60.1866766
11
-38.5081482
21
60.1314964
0
LINE
8
0
10
-38.5081482
20
60.1314964
11
-38.850265
21
59.6856432
0
LINE
8
0
10
-38.850265
20
59.6856432
11
-38.9054451
21
59.6137314
0
LINE
8
0
10
-38.9054451
20
59.6137314
11
-39.1205094
21
59.0945203
0
LINE
8
0
10
-39.1205094
20
59.0945203
11
-39.1551971
21
59.0107765
0
LINE
8
0
10
-39.1551971
20
59.0107765
11
-39.1551971
21
59.0107765
0
LINE
8
0
10
-12.2726329
20
68.1240205
11
-12.3229494
21
68.2155457
0
LINE
8
0
10
-12.3229494
20
68.2155457
11
-12.7662314
21
68.6875892
0
LINE
8
0
10
-12.7662314
20
68.6875892
11
-12.8377285
21
68.7637253
0
LINE
8
0
10
-12.8377285
20
68.7637253
11
-13.3844768
21
69.110707
0
LINE
8
0
10
-13.3844768
20
69.110707
11
-13.472662
21
69.1666718
0
LINE
8
0
10
-13.472662
20
69.1666718
11
-14.0885233
21
69.3667734
0
LINE
8
0
10
-14.0885233
20
69.3667734
11
-14.1878557
21
69.3990479
0
LINE
8
0
10
-14.1878557
20
69.3990479
11
-14.8341333
21
69.4397081
0
LINE
8
0
10
-14.8341333
20
69.4397081
11
-14.9383717
21
69.4462662
0
LINE
8
0
10
-14.9383717
20
69.4462662
11
-15.5744563
21
69.3249293
0
LINE
8
0
10
-15.5744563
20
69.3249293
11
-15.6770506
21
69.3053589
0
LINE
8
0
10
-15.6770506
20
69.3053589
11
-16.2629768
21
69.0296394
0
LINE
8
0
10
-16.2629768
20
69.0296394
11
-16.357481
21
68.9851685
0
LINE
8
0
10
-16.357481
20
68.9851685
11
-16.856431
21
68.5724038
0
LINE
8
0
10
-16.856431
20
68.5724038
11
-16.9369068
21
68.5058289
0
LINE
8
0
10
-16.9369068
20
68.5058289
11
-17.3175289
21
67.9819433
0
LINE
8
0
10
-17.3175289
20
67.9819433
11
-17.3789196
21
67.8974457
0
LINE
8
0
10
-17.3789196
20
67.8974457
11
-17.6173016
21
67.2953669
0
LINE
8
0
10
-17.6173016
20
67.2953669
11
-17.6557503
21
67.1982574
0
LINE
8
0
10
-17.6557503
20
67.1982574
11
-17.7369098
21
66.5558075
0
LINE
8
0
10
-17.7369098
20
66.5558075
11
-17.75
21
66.4521866
0
LINE
8
0
10
-17.75
20
66.4521866
11
-17.6688405
21
65.8097367
0
LINE
8
0
10
-17.6688405
20
65.8097367
11
-17.6557503
21
65.7061157
0
LINE
8
0
10
-17.6557503
20
65.7061157
11
-17.4173683
21
65.104037
0
LINE
8
0
10
-17.4173683
20
65.104037
11
-17.3789196
21
65.0069275
0
LINE
8
0
10
-17.3789196
20
65.0069275
11
-16.9982975
21
64.483042
0
LINE
8
0
10
-16.9982975
20
64.483042
11
-16.9369068
21
64.3985443
0
LINE
8
0
10
-16.9369068
20
64.3985443
11
-16.4379568
21
63.9857797
0
LINE
8
0
10
-16.4379568
20
63.9857797
11
-16.357481
21
63.9192047
0
LINE
8
0
10
-16.357481
20
63.9192047
11
-15.7715548
21
63.6434885
0
LINE
8
0
10
-15.7715548
20
63.6434885
11
-15.6770506
21
63.5990181
0
LINE
8
0
10
-15.6770506
20
63.5990181
11
-15.040966
21
63.477678
0
LINE
8
0
10
-15.040966
20
63.477678
11
-14.9383717
21
63.458107
0
LINE
8
0
10
-14.9383717
20
63.458107
11
-14.292094
21
63.4987672
0
LINE
8
0
10
-14.292094
20
63.4987672
11
-14.1878557
21
63.5053253
0
LINE
8
0
10
-14.1878557
20
63.5053253
11
-13.5719944
21
63.7054302
0
LINE
8
0
10
-13.5719944
20
63.7054302
11
-13.472662
21
63.7377052
0
LINE
8
0
10
-13.472662
20
63.7377052
11
-12.9259137
21
64.0846836
0
LINE
8
0
10
-12.9259137
20
64.0846836
11
-12.8377285
21
64.1406479
0
LINE
8
0
10
-12.8377285
20
64.1406479
11
-12.3944465
21
64.612698
0
LINE
8
0
10
-12.3944465
20
64.612698
11
-12.3229494
21
64.6888351
0
LINE
8
0
10
-12.3229494
20
64.6888351
11
-12.010987
21
65.2562913
0
LINE
8
0
10
-12.010987
20
65.2562913
11
-11.9606705
21
65.3478165
0
LINE
8
0
10
-11.9606705
20
65.3478165
11
-11.7996301
21
65.9750245
0
LINE
8
0
10
-11.7996301
20
65.9750245
11
-11.7736559
21
66.0761871
0
LINE
8
0
10
-11.7736559
20
66.0761871
11
-11.7736559
21
66.7237417
0
LINE
8
0
10
-11.7736559
20
66.7237417
11
-11.7736559
21
66.828186
0
LINE
8
0
10
-11.7736559
20
66.828186
11
-11.9346962
21
67.4554007
0
LINE
8
0
10
-11.9346962
20
67.4554007
11
-11.9606705
21
67.5565643
0
LINE
8
0
10
-11.9606705
20
67.5565643
11
-12.2726329
21
68.1240205
0
LINE
8
0
10
-12.2726329
20
68.1240205
11
-12.2726329
21
68.1240205
0
LINE
8
0
10
27.7273679
20
68.1240205
11
27.6770515
21
68.2155457
0
LINE
8
0
10
27.6770515
20
68.2155457
11
27.2337687
21
68.6875892
0
LINE
8
0
10
27.2337687
20
68.6875892
11
27.1622715
21
68.7637253
0
LINE
8
0
10
27.1622715
20
68.7637253
11
26.6155232
21
69.110707
0
LINE
8
0
10
26.6155232
20
69.110707
11
26.527338
21
69.1666718
0
LINE
8
0
10
26.527338
20
69.1666718
11
25.9114759
21
69.3667734
0
LINE
8
0
10
25.9114759
20
69.3667734
11
25.8121433
21
69.3990479
0
LINE
8
0
10
25.8121433
20
69.3990479
11
25.1658665
21
69.4397081
0
LINE
8
0
10
25.1658665
20
69.4397081
11
25.0616283
21
69.4462662
0
LINE
8
0
10
25.0616283
20
69.4462662
11
24.4255429
21
69.3249293
0
LINE
8
0
10
24.4255429
20
69.3249293
11
24.3229485
21
69.3053589
0
LINE
8
0
10
24.3229485
20
69.3053589
11
23.7370231
21
69.0296394
0
LINE
8
0
10
23.7370231
20
69.0296394
11
23.642519
21
68.9851685
0
LINE
8
0
10
23.642519
20
68.9851685
11
23.143569
21
68.5724038
0
LINE
8
0
10
23.143569
20
68.5724038
11
23.0630932
21
68.5058289
0
LINE
8
0
10
23.0630932
20
68.5058289
11
22.6824711
21
67.9819433
0
LINE
8
0
10
22.6824711
20
67.9819433
11
22.6210804
21
67.8974457
0
LINE
8
0
10
22.6210804
20
67.8974457
11
22.3826984
21
67.2953669
0
LINE
8
0
10
22.3826984
20
67.2953669
11
22.3442497
21
67.1982574
0
LINE
8
0
10
22.3442497
20
67.1982574
11
22.2630902
21
66.5558075
0
LINE
8
0
10
22.2630902
20
66.5558075
11
22.25
21
66.4521866
0
LINE
8
0
10
22.25
20
66.4521866
11
22.3311595
21
65.8097367
0
LINE
8
0
10
22.3311595
20
65.8097367
11
22.3442497
21
65.7061157
0
LINE
8
0
10
22.3442497
20
65.7061157
11
22.5826317
21
65.104037
0
LINE
8
0
10
22.5826317
20
65.104037
11
22.6210804
21
65.0069275
0
LINE
8
0
10
22.6210804
20
65.0069275
11
23.0017025
21
64.483042
0
LINE
8
0
10
23.0017025
20
64.483042
11
23.0630932
21
64.3985443
0
LINE
8
0
10
23.0630932
20
64.3985443
11
23.5620432
21
63.9857797
0
LINE
8
0
10
23.5620432
20
63.9857797
11
23.642519
21
63.9192047
0
LINE
8
0
10
23.642519
20
63.9192047
11
24.2284444
21
63.6434885
0
LINE
8
0
10
24.2284444
20
63.6434885
11
24.3229485
21
63.5990181
0
LINE
8
0
10
24.3229485
20
63.5990181
11
24.9590339
21
63.477678
0
LINE
8
0
10
24.9590339
20
63.477678
11
25.0616283
21
63.458107
0
LINE
8
0
10
25.0616283
20
63.458107
11
25.7079051
21
63.4987672
0
LINE
8
0
10
25.7079051
20
63.4987672
11
25.8121433
21
63.5053253
0
LINE
8
0
10
25.8121433
20
63.5053253
11
26.4280054
21
63.7054302
0
LINE
8
0
10
26.4280054
20
63.7054302
11
26.527338
21
63.7377052
0
LINE
8
0
10
26.527338
20
63.7377052
11
27.0740863
21
64.0846836
0
LINE
8
0
10
27.0740863
20
64.0846836
11
27.1622715
21
64.1406479
0
LINE
8
0
10
27.1622715
20
64.1406479
11
27.6055543
21
64.612698
0
LINE
8
0
10
27.6055543
20
64.612698
11
27.6770515
21
64.6888351
0
LINE
8
0
10
27.6770515
20
64.6888351
11
27.9890131
21
65.2562913
0
LINE
8
0
10
27.9890131
20
65.2562913
11
28.0393295
21
65.3478165
0
LINE
8
0
10
28.0393295
20
65.3478165
11
28.200369
21
65.9750245
0
LINE
8
0
10
28.200369
20
65.9750245
11
28.2263432
21
66.0761871
0
LINE
8
0
10
28.2263432
20
66.0761871
11
28.2263432
21
66.7237417
0
LINE
8
0
10
28.2263432
20
66.7237417
11
28.2263432
21
66.828186
0
LINE
8
0
10
28.2263432
20
66.828186
11
28.0653036
21
67.4554007
0
LINE
8
0
10
28.0653036
20
67.4554007
11
28.0393295
21
67.5565643
0
LINE
8
0
10
28.0393295
20
67.5565643
11
27.7273679
21
68.1240205
0
LINE
8
0
10
27.7273679
20
68.1240205
11
27.7273679
21
68.1240205
0
LINE
8
0
10
49.4054451
20
57.1137314
11
49.6205094
21
57.6329392
0
LINE
8
0
10
49.6205094
20
57.6329392
11
49.6551971
21
57.7166824
0
LINE
8
0
10
49.6551971
20
57.7166824
11
49.7285485
21
58.2738635
0
LINE
8
0
10
49.7285485
20
58.2738635
11
49.7403793
21
58.3637314
0
LINE
8
0
10
49.7403793
20
58.3637314
11
49.667028
21
58.9209091
0
LINE
8
0
10
49.667028
20
58.9209091
11
49.6551971
21
59.0107765
0
LINE
8
0
10
49.6551971
20
59.0107765
11
49.4401329
21
59.5299877
0
LINE
8
0
10
49.4401329
20
59.5299877
11
49.4054451
21
59.6137314
0
LINE
8
0
10
49.4054451
20
59.6137314
11
49.0633283
21
60.0595846
0
LINE
8
0
10
49.0633283
20
60.0595846
11
49.0081482
21
60.1314964
0
LINE
8
0
10
49.0081482
20
60.1314964
11
48.5622917
21
60.4736132
0
LINE
8
0
10
48.5622917
20
60.4736132
11
48.4903793
21
60.5287933
0
LINE
8
0
10
48.4903793
20
60.5287933
11
47.9711715
21
60.7438576
0
LINE
8
0
10
47.9711715
20
60.7438576
11
47.8874283
21
60.7785454
0
LINE
8
0
10
47.8874283
20
60.7785454
11
47.3302472
21
60.8519
0
LINE
8
0
10
47.3302472
20
60.8519
11
47.2403793
21
60.8637314
0
LINE
8
0
10
47.2403793
20
60.8637314
11
46.6832016
21
60.7903768
0
LINE
8
0
10
46.6832016
20
60.7903768
11
46.5933342
21
60.7785454
0
LINE
8
0
10
46.5933342
20
60.7785454
11
46.0741231
21
60.5634811
0
LINE
8
0
10
46.0741231
20
60.5634811
11
45.9903793
21
60.5287933
0
LINE
8
0
10
45.9903793
20
60.5287933
11
45.5445261
21
60.1866766
0
LINE
8
0
10
45.5445261
20
60.1866766
11
45.4726143
21
60.1314964
0
LINE
8
0
10
45.4726143
20
60.1314964
11
45.1304975
21
59.6856432
0
LINE
8
0
10
45.1304975
20
59.6856432
11
45.0753174
21
59.6137314
0
LINE
8
0
10
45.0753174
20
59.6137314
11
44.8602531
21
59.0945203
0
LINE
8
0
10
44.8602531
20
59.0945203
11
44.8255653
21
59.0107765
0
LINE
8
0
10
44.8255653
20
59.0107765
11
44.7522107
21
58.4535988
0
LINE
8
0
10
44.7522107
20
58.4535988
11
44.7403793
21
58.3637314
0
LINE
8
0
10
44.7403793
20
58.3637314
11
44.8137339
21
57.8065503
0
LINE
8
0
10
44.8137339
20
57.8065503
11
44.8255653
21
57.7166824
0
LINE
8
0
10
44.8255653
20
57.7166824
11
45.0406296
21
57.1974746
0
LINE
8
0
10
45.0406296
20
57.1974746
11
45.0753174
21
57.1137314
0
LINE
8
0
10
45.0753174
20
57.1137314
11
45.4174342
21
56.6678749
0
LINE
8
0
10
45.4174342
20
56.6678749
11
45.4726143
21
56.5959625
0
LINE
8
0
10
45.4726143
20
56.5959625
11
45.9184675
21
56.2538457
0
LINE
8
0
10
45.9184675
20
56.2538457
11
45.9903793
21
56.1986656
0
LINE
8
0
10
45.9903793
20
56.1986656
11
46.5095905
21
55.9836046
0
LINE
8
0
10
46.5095905
20
55.9836046
11
46.5933342
21
55.9489174
0
LINE
8
0
10
46.5933342
20
55.9489174
11
47.150512
21
55.8755628
0
LINE
8
0
10
47.150512
20
55.8755628
11
47.2403793
21
55.8637314
0
LINE
8
0
10
47.2403793
20
55.8637314
11
47.7975604
21
55.937086
0
LINE
8
0
10
47.7975604
20
55.937086
11
47.8874283
21
55.9489174
0
LINE
8
0
10
47.8874283
20
55.9489174
11
48.4066361
21
56.1639784
0
LINE
8
0
10
48.4066361
20
56.1639784
11
48.4903793
21
56.1986656
0
LINE
8
0
10
48.4903793
20
56.1986656
11
48.9362359
21
56.5407824
0
LINE
8
0
10
48.9362359
20
56.5407824
11
49.0081482
21
56.5959625
0
LINE
8
0
10
49.0081482
20
56.5959625
11
49.350265
21
57.041819
0
LINE
8
0
10
49.350265
20
57.041819
11
49.4054451
21
57.1137314
0
LINE
8
0
10
49.4054451
20
57.1137314
11
49.4054451
21
57.1137314
0
LINE
8
0
10
-4.30331665
20
83.2364855
11
-4.49747938
21
83.0875025
0
LINE
8
0
10
-4.49747938
20
83.0875025
11
-4.76139534
21
82.935133
0
LINE
8
0
10
-4.76139534
20
82.935133
11
-4.98750257
21
82.8414726
0
LINE
8
0
10
-4.98750257
20
82.8414726
11
-5.27944404
21
82.7540712
0
LINE
8
0
10
-5.27944404
20
82.7540712
11
-5.5220868
21
82.7221279
0
LINE
8
0
10
-5.5220868
20
82.7221279
11
-5.8263151
21
82.7044067
0
LINE
8
0
10
-5.8263151
20
82.7044067
11
-6.06895787
21
82.7363501
0
LINE
8
0
10
-6.06895787
20
82.7363501
11
-6.36907202
21
82.7892675
0
LINE
8
0
10
-6.36907202
20
82.7892675
11
-6.59517926
21
82.8829279
0
LINE
8
0
10
-6.59517926
20
82.8829279
11
-6.875
21
83.0036316
0
LINE
8
0
10
-6.875
20
83.0036316
11
-7.11944222
21
83.1856127
0
LINE
8
0
10
-7.11944222
20
83.1856127
11
-7.31360495
21
83.3345957
0
LINE
8
0
10
-7.31360495
20
83.3345957
11
-7.50949061
21
83.5680437
0
LINE
8
0
10
-7.50949061
20
83.5680437
11
-7.65847659
21
83.762207
0
LINE
8
0
10
-7.65847659
20
83.762207
11
-7.79524529
21
84.0345364
0
LINE
8
0
10
-7.79524529
20
84.0345364
11
-7.88890207
21
84.260643
0
LINE
8
0
10
-7.88890207
20
84.260643
11
-7.95918095
21
84.5571709
0
LINE
8
0
10
-7.95918095
20
84.5571709
11
-7.99112546
21
84.7998142
0
LINE
8
0
10
-7.99112546
20
84.7998142
11
-7.99112546
21
85.1045589
0
LINE
8
0
10
-7.99112546
20
85.1045589
11
-7.95918095
21
85.3472023
0
LINE
8
0
10
-7.95918095
20
85.3472023
11
-7.88890207
21
85.643733
0
LINE
8
0
10
-7.88890207
20
85.643733
11
-7.79524529
21
85.8698397
0
LINE
8
0
10
-7.79524529
20
85.8698397
11
-7.65847659
21
86.1421661
0
LINE
8
0
10
-7.65847659
20
86.1421661
11
-7.50949061
21
86.3363295
0
LINE
8
0
10
-7.50949061
20
86.3363295
11
-7.31360495
21
86.5697775
0
LINE
8
0
10
-7.31360495
20
86.5697775
11
-7.11944222
21
86.7187653
0
LINE
8
0
10
-7.11944222
20
86.7187653
11
-6.875
21
86.9007463
0
LINE
8
0
10
-6.875
20
86.9007463
11
-6.59517926
21
87.02145
0
LINE
8
0
10
-6.59517926
20
87.02145
11
-6.36907202
21
87.1151056
0
LINE
8
0
10
-6.36907202
20
87.1151056
11
-6.06895787
21
87.1680231
0
LINE
8
0
10
-6.06895787
20
87.1680231
11
-5.8263151
21
87.1999664
0
LINE
8
0
10
-5.8263151
20
87.1999664
11
-5.5220868
21
87.1822481
0
LINE
8
0
10
-5.5220868
20
87.1822481
11
-5.27944404
21
87.1503048
0
LINE
8
0
10
-5.27944404
20
87.1503048
11
-4.98750257
21
87.0629034
0
LINE
8
0
10
-4.98750257
20
87.0629034
11
-4.76139534
21
86.9692478
0
LINE
8
0
10
-4.76139534
20
86.9692478
11
-4.49747938
21
86.8168755
0
LINE
8
0
10
-4.49747938
20
86.8168755
11
-4.30331665
21
86.6678877
0
LINE
8
0
10
-4.30331665
20
86.6678877
11
-4.08165398
21
86.4587584
0
LINE
8
0
10
-4.08165398
20
86.4587584
11
-3.932668
21
86.264595
0
LINE
8
0
10
-3.932668
20
86.264595
11
-3.76520848
21
86.0099869
0
LINE
8
0
10
-3.76520848
20
86.0099869
11
-3.6715517
21
85.7838802
0
LINE
8
0
10
-3.6715517
20
85.7838802
11
-3.56732312
21
85.4975147
0
LINE
8
0
10
-3.56732312
20
85.4975147
11
-3.53537861
21
85.2548714
0
LINE
8
0
10
-3.53537861
20
85.2548714
11
-3.5
21
84.9521866
0
LINE
8
0
10
-3.5
20
84.9521866
11
-3.53537861
21
84.6495047
0
LINE
8
0
10
-3.53537861
20
84.6495047
11
-3.56732312
21
84.4068613
0
LINE
8
0
10
-3.56732312
20
84.4068613
11
-3.6715517
21
84.1204958
0
LINE
8
0
10
-3.6715517
20
84.1204958
11
-3.76520848
21
83.8943892
0
LINE
8
0
10
-3.76520848
20
83.8943892
11
-3.932668
21
83.6397781
0
LINE
8
0
10
-3.932668
20
83.6397781
11
-4.08165398
21
83.4456148
0
LINE
8
0
10
-4.08165398
20
83.4456148
11
-4.30331665
21
83.2364855
0
LINE
8
0
10
-4.30331665
20
83.2364855
11
-4.30331665
21
83.2364855
0
LINE
8
0
10
-4.30331665
20
123.236485
11
-4.49747938
21
123.087502
0
LINE
8
0
10
-4.49747938
20
123.087502
11
-4.76139534
21
122.935133
0
LINE
8
0
10
-4.76139534
20
122.935133
11
-4.98750257
21
122.841473
0
LINE
8
0
10
-4.98750257
20
122.841473
11
-5.27944404
21
122.754071
0
LINE
8
0
10
-5.27944404
20
122.754071
11
-5.5220868
21
122.722128
0
LINE
8
0
10
-5.5220868
20
122.722128
11
-5.8263151
21
122.704407
0
LINE
8
0
10
-5.8263151
20
122.704407
11
-6.06895787
21
122.73635
0
LINE
8
0
10
-6.06895787
20
122.73635
11
-6.36907202
21
122.789268
0
LINE
8
0
10
-6.36907202
20
122.789268
11
-6.59517926
21
122.882928
0
LINE
8
0
10
-6.59517926
20
122.882928
11
-6.875
21
123.003632
0
LINE
8
0
10
-6.875
20
123.003632
11
-7.11944222
21
123.185613
0
LINE
8
0
10
-7.11944222
20
123.185613
11
-7.31360495
21
123.334596
0
LINE
8
0
10
-7.31360495
20
123.334596
11
-7.50949061
21
123.568044
0
LINE
8
0
10
-7.50949061
20
123.568044
11
-7.65847659
21
123.762207
0
LINE
8
0
10
-7.65847659
20
123.762207
11
-7.79524529
21
124.034536
0
LINE
8
0
10
-7.79524529
20
124.034536
11
-7.88890207
21
124.260643
0
LINE
8
0
10
-7.88890207
20
124.260643
11
-7.95918095
21
124.557171
0
LINE
8
0
10
-7.95918095
20
124.557171
11
-7.99112546
21
124.799814
0
LINE
8
0
10
-7.99112546
20
124.799814
11
-7.99112546
21
125.104559
0
LINE
8
0
10
-7.99112546
20
125.104559
11
-7.95918095
21
125.347202
0
LINE
8
0
10
-7.95918095
20
125.347202
11
-7.88890207
21
125.643733
0
LINE
8
0
10
-7.88890207
20
125.643733
11
-7.79524529
21
125.86984
0
LINE
8
0
10
-7.79524529
20
125.86984
11
-7.65847659
21
126.142166
0
LINE
8
0
10
-7.65847659
20
126.142166
11
-7.50949061
21
126.336329
0
LINE
8
0
10
-7.50949061
20
126.336329
11
-7.31360495
21
126.569777
0
LINE
8
0
10
-7.31360495
20
126.569777
11
-7.11944222
21
126.718765
0
LINE
8
0
10
-7.11944222
20
126.718765
11
-6.875
21
126.900746
0
LINE
8
0
10
-6.875
20
126.900746
11
-6.59517926
21
127.021447
0
LINE
8
0
10
-6.59517926
20
127.021447
11
-6.36907202
21
127.115103
0
LINE
8
0
10
-6.36907202
20
127.115103
11
-6.06895787
21
127.16802
0
LINE
8
0
10
-6.06895787
20
127.16802
11
-5.8263151
21
127.199964
0
LINE
8
0
10
-5.8263151
20
127.199964
11
-5.5220868
21
127.182248
0
LINE
8
0
10
-5.5220868
20
127.182248
11
-5.27944404
21
127.150305
0
LINE
8
0
10
-5.27944404
20
127.150305
11
-4.98750257
21
127.062901
0
LINE
8
0
10
-4.98750257
20
127.062901
11
-4.76139534
21
126.969245
0
LINE
8
0
10
-4.76139534
20
126.969245
11
-4.49747938
21
126.816875
0
LINE
8
0
10
-4.49747938
20
126.816875
11
-4.30331665
21
126.667888
0
LINE
8
0
10
-4.30331665
20
126.667888
11
-4.08165398
21
126.458758
0
LINE
8
0
10
-4.08165398
20
126.458758
11
-3.932668
21
126.264595
0
LINE
8
0
10
-3.932668
20
126.264595
11
-3.76520848
21
126.009987
0
LINE
8
0
10
-3.76520848
20
126.009987
11
-3.6715517
21
125.78388
0
LINE
8
0
10
-3.6715517
20
125.78388
11
-3.56732312
21
125.497515
0
LINE
8
0
10
-3.56732312
20
125.497515
11
-3.53537861
21
125.254871
0
LINE
8
0
10
-3.53537861
20
125.254871
11
-3.5
21
124.952187
0
LINE
8
0
10
-3.5
20
124.952187
11
-3.53537861
21
124.649505
0
LINE
8
0
10
-3.53537861
20
124.649505
11
-3.56732312
21
124.406861
0
LINE
8
0
10
-3.56732312
20
124.406861
11
-3.6715517
21
124.120496
0
LINE
8
0
10
-3.6715517
20
124.120496
11
-3.76520848
21
123.894389
0
LINE
8
0
10
-3.76520848
20
123.894389
11
-3.932668
21
123.639778
0
LINE
8
0
10
-3.932668
20
123.639778
11
-4.08165398
21
123.445615
0
LINE
8
0
10
-4.08165398
20
123.445615
11
-4.30331665
21
123.236485
0
LINE
8
0
10
-4.30331665
20
123.236485
11
-4.30331665
21
123.236485
0
LINE
8
0
10
56.9856377
20
66.7785416
11
57.0755056
21
66.7903735
0
LINE
8
0
10
57.0755056
20
66.7903735
11
57.6326866
21
66.8637314
0
LINE
8
0
10
57.6326866
20
66.8637314
11
57.722554
21
66.8518995
0
LINE
8
0
10
57.722554
20
66.8518995
11
58.2797318
21
66.7785416
0
LINE
8
0
10
58.2797318
20
66.7785416
11
58.3634755
21
66.7438543
0
LINE
8
0
10
58.3634755
20
66.7438543
11
58.8826866
21
66.5287933
0
LINE
8
0
10
58.8826866
20
66.5287933
11
58.9545984
21
66.4736137
0
LINE
8
0
10
58.9545984
20
66.4736137
11
59.4004517
21
66.1315002
0
LINE
8
0
10
59.4004517
20
66.1315002
11
59.4556318
21
66.0595879
0
LINE
8
0
10
59.4556318
20
66.0595879
11
59.7977486
21
65.6137314
0
LINE
8
0
10
59.7977486
20
65.6137314
11
59.8324363
21
65.5299882
0
LINE
8
0
10
59.8324363
20
65.5299882
11
60.0475006
21
65.0107803
0
LINE
8
0
10
60.0475006
20
65.0107803
11
60.059332
21
64.9209124
0
LINE
8
0
10
60.059332
20
64.9209124
11
60.1326866
21
64.3637314
0
LINE
8
0
10
60.1326866
20
64.3637314
11
60.1208552
21
64.2738635
0
LINE
8
0
10
60.1208552
20
64.2738635
11
60.0475006
21
63.7166824
0
LINE
8
0
10
60.0475006
20
63.7166824
11
60.0128128
21
63.6329392
0
LINE
8
0
10
60.0128128
20
63.6329392
11
59.7977486
21
63.1137314
0
LINE
8
0
10
59.7977486
20
63.1137314
11
59.7425684
21
63.041819
0
LINE
8
0
10
59.7425684
20
63.041819
11
59.4004517
21
62.5959625
0
LINE
8
0
10
59.4004517
20
62.5959625
11
59.3285398
21
62.5407824
0
LINE
8
0
10
59.3285398
20
62.5407824
11
58.8826866
21
62.1986656
0
LINE
8
0
10
58.8826866
20
62.1986656
11
58.7989429
21
62.1639784
0
LINE
8
0
10
58.7989429
20
62.1639784
11
58.2797318
21
61.9489174
0
LINE
8
0
10
58.2797318
20
61.9489174
11
58.1898644
21
61.937086
0
LINE
8
0
10
58.1898644
20
61.937086
11
57.6326866
21
61.8637314
0
LINE
8
0
10
57.6326866
20
61.8637314
11
57.5428187
21
61.8755628
0
LINE
8
0
10
57.5428187
20
61.8755628
11
56.9856377
21
61.9489174
0
LINE
8
0
10
56.9856377
20
61.9489174
11
56.9018945
21
61.9836046
0
LINE
8
0
10
56.9018945
20
61.9836046
11
56.3826866
21
62.1986656
0
LINE
8
0
10
56.3826866
20
62.1986656
11
56.3107743
21
62.2538457
0
LINE
8
0
10
56.3107743
20
62.2538457
11
55.8649178
21
62.5959625
0
LINE
8
0
10
55.8649178
20
62.5959625
11
55.8097376
21
62.6678749
0
LINE
8
0
10
55.8097376
20
62.6678749
11
55.4676208
21
63.1137314
0
LINE
8
0
10
55.4676208
20
63.1137314
11
55.4329336
21
63.1974746
0
LINE
8
0
10
55.4329336
20
63.1974746
11
55.2178726
21
63.7166824
0
LINE
8
0
10
55.2178726
20
63.7166824
11
55.2060412
21
63.8065503
0
LINE
8
0
10
55.2060412
20
63.8065503
11
55.1326866
21
64.3637314
0
LINE
8
0
10
55.1326866
20
64.3637314
11
55.144518
21
64.4535993
0
LINE
8
0
10
55.144518
20
64.4535993
11
55.2178726
21
65.0107803
0
LINE
8
0
10
55.2178726
20
65.0107803
11
55.2525599
21
65.0945235
0
LINE
8
0
10
55.2525599
20
65.0945235
11
55.4676208
21
65.6137314
0
LINE
8
0
10
55.4676208
20
65.6137314
11
55.522801
21
65.6856437
0
LINE
8
0
10
55.522801
20
65.6856437
11
55.8649178
21
66.1315002
0
LINE
8
0
10
55.8649178
20
66.1315002
11
55.9368301
21
66.1866798
0
LINE
8
0
10
55.9368301
20
66.1866798
11
56.3826866
21
66.5287933
0
LINE
8
0
10
56.3826866
20
66.5287933
11
56.4664298
21
66.5634806
0
LINE
8
0
10
56.4664298
20
66.5634806
11
56.9856377
21
66.7785416
0
LINE
8
0
10
56.9856377
20
66.7785416
11
56.9856377
21
66.7785416
0
LINE
8
0
10
-47.7797318
20
66.7785416
11
-47.6898644
21
66.7903735
0
LINE
8
0
10
-47.6898644
20
66.7903735
11
-47.1326866
21
66.8637314
0
LINE
8
0
10
-47.1326866
20
66.8637314
11
-47.0428187
21
66.8518995
0
LINE
8
0
10
-47.0428187
20
66.8518995
11
-46.4856377
21
66.7785416
0
LINE
8
0
10
-46.4856377
20
66.7785416
11
-46.4018945
21
66.7438543
0
LINE
8
0
10
-46.4018945
20
66.7438543
11
-45.8826866
21
66.5287933
0
LINE
8
0
10
-45.8826866
20
66.5287933
11
-45.8107743
21
66.4736137
0
LINE
8
0
10
-45.8107743
20
66.4736137
11
-45.3649178
21
66.1315002
0
LINE
8
0
10
-45.3649178
20
66.1315002
11
-45.3097376
21
66.0595879
0
LINE
8
0
10
-45.3097376
20
66.0595879
11
-44.9676208
21
65.6137314
0
LINE
8
0
10
-44.9676208
20
65.6137314
11
-44.9329336
21
65.5299882
0
LINE
8
0
10
-44.9329336
20
65.5299882
11
-44.7178726
21
65.0107803
0
LINE
8
0
10
-44.7178726
20
65.0107803
11
-44.7060412
21
64.9209124
0
LINE
8
0
10
-44.7060412
20
64.9209124
11
-44.6326866
21
64.3637314
0
LINE
8
0
10
-44.6326866
20
64.3637314
11
-44.644518
21
64.2738635
0
LINE
8
0
10
-44.644518
20
64.2738635
11
-44.7178726
21
63.7166824
0
LINE
8
0
10
-44.7178726
20
63.7166824
11
-44.7525599
21
63.6329392
0
LINE
8
0
10
-44.7525599
20
63.6329392
11
-44.9676208
21
63.1137314
0
LINE
8
0
10
-44.9676208
20
63.1137314
11
-45.022801
21
63.041819
0
LINE
8
0
10
-45.022801
20
63.041819
11
-45.3649178
21
62.5959625
0
LINE
8
0
10
-45.3649178
20
62.5959625
11
-45.4368301
21
62.5407824
0
LINE
8
0
10
-45.4368301
20
62.5407824
11
-45.8826866
21
62.1986656
0
LINE
8
0
10
-45.8826866
20
62.1986656
11
-45.9664298
21
62.1639784
0
LINE
8
0
10
-45.9664298
20
62.1639784
11
-46.4856377
21
61.9489174
0
LINE
8
0
10
-46.4856377
20
61.9489174
11
-46.5755056
21
61.937086
0
LINE
8
0
10
-46.5755056
20
61.937086
11
-47.1326866
21
61.8637314
0
LINE
8
0
10
-47.1326866
20
61.8637314
11
-47.222554
21
61.8755628
0
LINE
8
0
10
-47.222554
20
61.8755628
11
-47.7797318
21
61.9489174
0
LINE
8
0
10
-47.7797318
20
61.9489174
11
-47.8634755
21
61.9836046
0
LINE
8
0
10
-47.8634755
20
61.9836046
11
-48.3826866
21
62.1986656
0
LINE
8
0
10
-48.3826866
20
62.1986656
11
-48.4545984
21
62.2538457
0
LINE
8
0
10
-48.4545984
20
62.2538457
11
-48.9004517
21
62.5959625
0
LINE
8
0
10
-48.9004517
20
62.5959625
11
-48.9556318
21
62.6678749
0
LINE
8
0
10
-48.9556318
20
62.6678749
11
-49.2977486
21
63.1137314
0
LINE
8
0
10
-49.2977486
20
63.1137314
11
-49.3324363
21
63.1974746
0
LINE
8
0
10
-49.3324363
20
63.1974746
11
-49.5475006
21
63.7166824
0
LINE
8
0
10
-49.5475006
20
63.7166824
11
-49.559332
21
63.8065503
0
LINE
8
0
10
-49.559332
20
63.8065503
11
-49.6326866
21
64.3637314
0
LINE
8
0
10
-49.6326866
20
64.3637314
11
-49.6208552
21
64.4535993
0
LINE
8
0
10
-49.6208552
20
64.4535993
11
-49.5475006
21
65.0107803
0
LINE
8
0
10
-49.5475006
20
65.0107803
11
-49.5128128
21
65.0945235
0
LINE
8
0
10
-49.5128128
20
65.0945235
11
-49.2977486
21
65.6137314
0
LINE
8
0
10
-49.2977486
20
65.6137314
11
-49.2425684
21
65.6856437
0
LINE
8
0
10
-49.2425684
20
65.6856437
11
-48.9004517
21
66.1315002
0
LINE
8
0
10
-48.9004517
20
66.1315002
11
-48.8285398
21
66.1866798
0
LINE
8
0
10
-48.8285398
20
66.1866798
11
-48.3826866
21
66.5287933
0
LINE
8
0
10
-48.3826866
20
66.5287933
11
-48.2989429
21
66.5634806
0
LINE
8
0
10
-48.2989429
20
66.5634806
11
-47.7797318
21
66.7785416
0
LINE
8
0
10
-47.7797318
20
66.7785416
11
-47.7797318
21
66.7785416
0
LINE
8
0
10
14.0673232
20
84.4068613
11
14.0353787
21
84.6495047
0
LINE
8
0
10
14.0353787
20
84.6495047
11
14
21
84.9521866
0
LINE
8
0
10
14
20
84.9521866
11
14.0353787
21
85.2548714
0
LINE
8
0
10
14.0353787
20
85.2548714
11
14.0673232
21
85.4975147
0
LINE
8
0
10
14.0673232
20
85.4975147
11
14.1715517
21
85.7838802
0
LINE
8
0
10
14.1715517
20
85.7838802
11
14.2652085
21
86.0099869
0
LINE
8
0
10
14.2652085
20
86.0099869
11
14.4326681
21
86.264595
0
LINE
8
0
10
14.4326681
20
86.264595
11
14.5816541
21
86.4587584
0
LINE
8
0
10
14.5816541
20
86.4587584
11
14.8033165
21
86.6678877
0
LINE
8
0
10
14.8033165
20
86.6678877
11
14.9974792
21
86.8168755
0
LINE
8
0
10
14.9974792
20
86.8168755
11
15.2613953
21
86.9692478
0
LINE
8
0
10
15.2613953
20
86.9692478
11
15.4875026
21
87.0629034
0
LINE
8
0
10
15.4875026
20
87.0629034
11
15.7794439
21
87.1503048
0
LINE
8
0
10
15.7794439
20
87.1503048
11
16.0220866
21
87.1822481
0
LINE
8
0
10
16.0220866
20
87.1822481
11
16.3263149
21
87.1999664
0
LINE
8
0
10
16.3263149
20
87.1999664
11
16.5689583
21
87.1680231
0
LINE
8
0
10
16.5689583
20
87.1680231
11
16.8690724
21
87.1151056
0
LINE
8
0
10
16.8690724
20
87.1151056
11
17.0951791
21
87.02145
0
LINE
8
0
10
17.0951791
20
87.02145
11
17.375
21
86.9007463
0
LINE
8
0
10
17.375
20
86.9007463
11
17.6194422
21
86.7187653
0
LINE
8
0
10
17.6194422
20
86.7187653
11
17.8136044
21
86.5697775
0
LINE
8
0
10
17.8136044
20
86.5697775
11
18.00949
21
86.3363295
0
LINE
8
0
10
18.00949
20
86.3363295
11
18.1584766
21
86.1421661
0
LINE
8
0
10
18.1584766
20
86.1421661
11
18.2952449
21
85.8698397
0
LINE
8
0
10
18.2952449
20
85.8698397
11
18.3889017
21
85.643733
0
LINE
8
0
10
18.3889017
20
85.643733
11
18.4591806
21
85.3472023
0
LINE
8
0
10
18.4591806
20
85.3472023
11
18.4911251
21
85.1045589
0
LINE
8
0
10
18.4911251
20
85.1045589
11
18.4911251
21
84.7998142
0
LINE
8
0
10
18.4911251
20
84.7998142
11
18.4591806
21
84.5571709
0
LINE
8
0
10
18.4591806
20
84.5571709
11
18.3889017
21
84.260643
0
LINE
8
0
10
18.3889017
20
84.260643
11
18.2952449
21
84.0345364
0
LINE
8
0
10
18.2952449
20
84.0345364
11
18.1584766
21
83.762207
0
LINE
8
0
10
18.1584766
20
83.762207
11
18.00949
21
83.5680437
0
LINE
8
0
10
18.00949
20
83.5680437
11
17.8136044
21
83.3345957
0
LINE
8
0
10
17.8136044
20
83.3345957
11
17.6194422
21
83.1856127
0
LINE
8
0
10
17.6194422
20
83.1856127
11
17.375
21
83.0036316
0
LINE
8
0
10
17.375
20
83.0036316
11
17.0951791
21
82.8829279
0
LINE
8
0
10
17.0951791
20
82.8829279
11
16.8690724
21
82.7892675
0
LINE
8
0
10
16.8690724
20
82.7892675
11
16.5689583
21
82.7363501
0
LINE
8
0
10
16.5689583
20
82.7363501
11
16.3263149
21
82.7044067
0
LINE
8
0
10
16.3263149
20
82.7044067
11
16.0220866
21
82.7221279
0
LINE
8
0
10
16.0220866
20
82.7221279
11
15.7794439
21
82.7540712
0
LINE
8
0
10
15.7794439
20
82.7540712
11
15.4875026
21
82.8414726
0
LINE
8
0
10
15.4875026
20
82.8414726
11
15.2613953
21
82.935133
0
LINE
8
0
10
15.2613953
20
82.935133
11
14.9974792
21
83.0875025
0
LINE
8
0
10
14.9974792
20
83.0875025
11
14.8033165
21
83.2364855
0
LINE
8
0
10
14.8033165
20
83.2364855
11
14.5816541
21
83.4456148
0
LINE
8
0
10
14.5816541
20
83.4456148
11
14.4326681
21
83.6397781
0
LINE
8
0
10
14.4326681
20
83.6397781
11
14.2652085
21
83.8943892
0
LINE
8
0
10
14.2652085
20
83.8943892
11
14.1715517
21
84.1204958
0
LINE
8
0
10
14.1715517
20
84.1204958
11
14.0673232
21
84.4068613
0
LINE
8
0
10
14.0673232
20
84.4068613
11
14.0673232
21
84.4068613
0
LINE
8
0
10
14.0673232
20
124.406861
11
14.0353787
21
124.649505
0
LINE
8
0
10
14.0353787
20
124.649505
11
14
21
124.952187
0
LINE
8
0
10
14
20
124.952187
11
14.0353787
21
125.254871
0
LINE
8
0
10
14.0353787
20
125.254871
11
14.0673232
21
125.497515
0
LINE
8
0
10
14.0673232
20
125.497515
11
14.1715517
21
125.78388
0
LINE
8
0
10
14.1715517
20
125.78388
11
14.2652085
21
126.009987
0
LINE
8
0
10
14.2652085
20
126.009987
11
14.4326681
21
126.264595
0
LINE
8
0
10
14.4326681
20
126.264595
11
14.5816541
21
126.458758
0
LINE
8
0
10
14.5816541
20
126.458758
11
14.8033165
21
126.667888
0
LINE
8
0
10
14.8033165
20
126.667888
11
14.9974792
21
126.816875
0
LINE
8
0
10
14.9974792
20
126.816875
11
15.2613953
21
126.969245
0
LINE
8
0
10
15.2613953
20
126.969245
11
15.4875026
21
127.062901
0
LINE
8
0
10
15.4875026
20
127.062901
11
15.7794439
21
127.150305
0
LINE
8
0
10
15.7794439
20
127.150305
11
16.0220866
21
127.182248
0
LINE
8
0
10
16.0220866
20
127.182248
11
16.3263149
21
127.199964
0
LINE
8
0
10
16.3263149
20
127.199964
11
16.5689583
21
127.16802
0
LINE
8
0
10
16.5689583
20
127.16802
11
16.8690724
21
127.115103
0
LINE
8
0
10
16.8690724
20
127.115103
11
17.0951791
21
127.021447
0
LINE
8
0
10
17.0951791
20
127.021447
11
17.375
21
126.900746
0
LINE
8
0
10
17.375
20
126.900746
11
17.6194422
21
126.718765
0
LINE
8
0
10
17.6194422
20
126.718765
11
17.8136044
21
126.569777
0
LINE
8
0
10
17.8136044
20
126.569777
11
18.00949
21
126.336329
0
LINE
8
0
10
18.00949
20
126.336329
11
18.1584766
21
126.142166
0
LINE
8
0
10
18.1584766
20
126.142166
11
18.2952449
21
125.86984
0
LINE
8
0
10
18.2952449
20
125.86984
11
18.3889017
21
125.643733
0
LINE
8
0
10
18.3889017
20
125.643733
11
18.4591806
21
125.347202
0
LINE
8
0
10
18.4591806
20
125.347202
11
18.4911251
21
125.104559
0
LINE
8
0
10
18.4911251
20
125.104559
11
18.4911251
21
124.799814
0
LINE
8
0
10
18.4911251
20
124.799814
11
18.4591806
21
124.557171
0
LINE
8
0
10
18.4591806
20
124.557171
11
18.3889017
21
124.260643
0
LINE
8
0
10
18.3889017
20
124.260643
11
18.2952449
21
124.034536
0
LINE
8
0
10
18.2952449
20
124.034536
11
18.1584766
21
123.762207
0
LINE
8
0
10
18.1584766
20
123.762207
11
18.00949
21
123.568044
0
LINE
8
0
10
18.00949
20
123.568044
11
17.8136044
21
123.334596
0
LINE
8
0
10
17.8136044
20
123.334596
11
17.6194422
21
123.185613
0
LINE
8
0
10
17.6194422
20
123.185613
11
17.375
21
123.003632
0
LINE
8
0
10
17.375
20
123.003632
11
17.0951791
21
122.882928
0
LINE
8
0
10
17.0951791
20
122.882928
11
16.8690724
21
122.789268
0
LINE
8
0
10
16.8690724
20
122.789268
11
16.5689583
21
122.73635
0
LINE
8
0
10
16.5689583
20
122.73635
11
16.3263149
21
122.704407
0
LINE
8
0
10
16.3263149
20
122.704407
11
16.0220866
21
122.722128
0
LINE
8
0
10
16.0220866
20
122.722128
11
15.7794439
21
122.754071
0
LINE
8
0
10
15.7794439
20
122.754071
11
15.4875026
21
122.841473
0
LINE
8
0
10
15.4875026
20
122.841473
11
15.2613953
21
122.935133
0
LINE
8
0
10
15.2613953
20
122.935133
11
14.9974792
21
123.087502
0
LINE
8
0
10
14.9974792
20
123.087502
11
14.8033165
21
123.236485
0
LINE
8
0
10
14.8033165
20
123.236485
11
14.5816541
21
123.445615
0
LINE
8
0
10
14.5816541
20
123.445615
11
14.4326681
21
123.639778
0
LINE
8
0
10
14.4326681
20
123.639778
11
14.2652085
21
123.894389
0
LINE
8
0
10
14.2652085
20
123.894389
11
14.1715517
21
124.120496
0
LINE
8
0
10
14.1715517
20
124.120496
11
14.0673232
21
124.406861
0
LINE
8
0
10
14.0673232
20
124.406861
11
14.0673232
21
124.406861
0
LINE
8
0
10
61.75
20
83.9521866
11
70.3611111
21
75.3410755
0
LINE
8
0
10
70.3611111
20
75.3410755
11
71.75
21
73.9521866
0
LINE
8
0
10
71.75
20
73.9521866
11
71.75
21
71.8688533
0
LINE
8
0
10
71.75
20
71.8688533
11
71.75
21
58.9521866
0
LINE
8
0
10
71.75
20
58.9521866
11
63.1388889
21
50.3410755
0
LINE
8
0
10
63.1388889
20
50.3410755
11
61.75
21
48.9521866
0
LINE
8
0
10
61.75
20
48.9521866
11
44.25
21
48.9521866
0
LINE
8
0
10
44.25
20
48.9521866
11
32.1666667
21
48.9521866
0
LINE
8
0
10
32.1666667
20
48.9521866
11
-33.75
21
48.9521866
0
LINE
8
0
10
-33.75
20
48.9521866
11
-51.25
21
48.9521866
0
LINE
8
0
10
-51.25
20
48.9521866
11
-59.8611111
21
57.5632977
0
LINE
8
0
10
-59.8611111
20
57.5632977
11
-61.25
21
58.9521866
0
LINE
8
0
10
-61.25
20
58.9521866
11
-61.25
21
61.0355199
0
LINE
8
0
10
-61.25
20
61.0355199
11
-61.25
21
73.9521866
0
LINE
8
0
10
-61.25
20
73.9521866
11
-52.6388889
21
82.5632977
0
LINE
8
0
10
-52.6388889
20
82.5632977
11
-51.25
21
83.9521866
0
LINE
8
0
10
-51.25
20
83.9521866
11
-45.9722222
21
83.9521866
0
LINE
8
0
10
-45.9722222
20
83.9521866
11
-13.25
21
83.9521866
0
LINE
8
0
10
-13.25
20
83.9521866
11
-13.25
21
87.9105199
0
LINE
8
0
10
-13.25
20
87.9105199
11
-13.25
21
98.2021866
0
LINE
8
0
10
-13.25
20
98.2021866
11
-10.0833333
21
98.2021866
0
LINE
8
0
10
-10.0833333
20
98.2021866
11
-9.25
21
98.2021866
0
LINE
8
0
10
-9.25
20
98.2021866
11
-9.25
21
96.9521866
0
LINE
8
0
10
-9.25
20
96.9521866
11
-6.54166667
21
96.9521866
0
LINE
8
0
10
-6.54166667
20
96.9521866
11
-2.75
21
96.9521866
0
LINE
8
0
10
-2.75
20
96.9521866
11
-2.75
21
101.952187
0
LINE
8
0
10
-2.75
20
101.952187
11
-2.75
21
108.952187
0
LINE
8
0
10
-2.75
20
108.952187
11
-5.45833333
21
108.952187
0
LINE
8
0
10
-5.45833333
20
108.952187
11
-9.25
21
108.952187
0
LINE
8
0
10
-9.25
20
108.952187
11
-9.25
21
107.702187
0
LINE
8
0
10
-9.25
20
107.702187
11
-12.4166667
21
107.702187
0
LINE
8
0
10
-12.4166667
20
107.702187
11
-13.25
21
107.702187
0
LINE
8
0
10
-13.25
20
107.702187
11
-13.25
21
123.535526
0
LINE
8
0
10
-13.25
20
123.535526
11
-13.25
21
128.952194
0
LINE
8
0
10
-13.25
20
128.952194
11
-11.5833333
21
128.952194
0
LINE
8
0
10
-11.5833333
20
128.952194
11
0.5
21
128.952194
0
LINE
8
0
10
0.5
20
128.952194
11
22.0833333
21
128.952194
0
LINE
8
0
10
22.0833333
20
128.952194
11
23.75
21
128.952194
0
LINE
8
0
10
23.75
20
128.952194
11
23.75
21
123.535526
0
LINE
8
0
10
23.75
20
123.535526
11
23.75
21
107.702187
0
LINE
8
0
10
23.75
20
107.702187
11
20.5833333
21
107.702187
0
LINE
8
0
10
20.5833333
20
107.702187
11
19.75
21
107.702187
0
LINE
8
0
10
19.75
20
107.702187
11
19.75
21
108.952187
0
LINE
8
0
10
19.75
20
108.952187
11
17.0416667
21
108.952187
0
LINE
8
0
10
17.0416667
20
108.952187
11
13.25
21
108.952187
0
LINE
8
0
10
13.25
20
108.952187
11
13.25
21
103.952187
0
LINE
8
0
10
13.25
20
103.952187
11
13.25
21
96.9521866
0
LINE
8
0
10
13.25
20
96.9521866
11
15.9583333
21
96.9521866
0
LINE
8
0
10
15.9583333
20
96.9521866
11
19.75
21
96.9521866
0
LINE
8
0
10
19.75
20
96.9521866
11
19.75
21
98.2021866
0
LINE
8
0
10
19.75
20
98.2021866
11
22.9166667
21
98.2021866
0
LINE
8
0
10
22.9166667
20
98.2021866
11
23.75
21
98.2021866
0
LINE
8
0
10
23.75
20
98.2021866
11
23.75
21
87.9105199
0
LINE
8
0
10
23.75
20
87.9105199
11
23.75
21
83.9521866
0
LINE
8
0
10
23.75
20
83.9521866
11
29.0277778
21
83.9521866
0
LINE
8
0
10
29.0277778
20
83.9521866
11
61.75
21
83.9521866
0
LINE
8
0
10
61.75
20
83.9521866
11
61.75
21
83.9521866
0
ENDSEC
0
EOF
