0
SECTION
2
ENTITIES
0
LINE
8
0
10
-39.1551971
20
59.0107765
11
-39.2190838
21
58.5254927
0
LINE
8
0
10
-39.2190838
20
58.5254927
11
-39.2403793
21
58.3637314
0
LINE
8
0
10
-39.2403793
20
58.3637314
11
-39.1764927
21
57.8784447
0
LINE
8
0
10
-39.1764927
20
57.8784447
11
-39.1551971
21
57.7166824
0
LINE
8
0
10
-39.1551971
20
57.7166824
11
-38.9678831
21
57.2644691
0
LINE
8
0
10
-38.9678831
20
57.2644691
11
-38.9054451
21
57.1137314
0
LINE
8
0
10
-38.9054451
20
57.1137314
11
-38.6074724
21
56.7254047
0
LINE
8
0
10
-38.6074724
20
56.7254047
11
-38.5081482
21
56.5959625
0
LINE
8
0
10
-38.5081482
20
56.5959625
11
-38.1198215
21
56.2979898
0
LINE
8
0
10
-38.1198215
20
56.2979898
11
-37.9903793
21
56.1986656
0
LINE
8
0
10
-37.9903793
20
56.1986656
11
-37.538166
21
56.0113544
0
LINE
8
0
10
-37.538166
20
56.0113544
11
-37.3874283
21
55.9489174
0
LINE
8
0
10
-37.3874283
20
55.9489174
11
-36.9021416
21
55.8850279
0
LINE
8
0
10
-36.9021416
20
55.8850279
11
-36.7403793
21
55.8637314
0
LINE
8
0
10
-36.7403793
20
55.8637314
11
-36.2550955
21
55.9276209
0
LINE
8
0
10
-36.2550955
20
55.9276209
11
-36.0933342
21
55.9489174
0
LINE
8
0
10
-36.0933342
20
55.9489174
11
-35.641118
21
56.1362286
0
LINE
8
0
10
-35.641118
20
56.1362286
11
-35.4903793
21
56.1986656
0
LINE
8
0
10
-35.4903793
20
56.1986656
11
-35.1020555
21
56.4966383
0
LINE
8
0
10
-35.1020555
20
56.4966383
11
-34.9726143
21
56.5959625
0
LINE
8
0
10
-34.9726143
20
56.5959625
11
-34.6746416
21
56.9842892
0
LINE
8
0
10
-34.6746416
20
56.9842892
11
-34.5753174
21
57.1137314
0
LINE
8
0
10
-34.5753174
20
57.1137314
11
-34.3880033
21
57.5659447
0
LINE
8
0
10
-34.3880033
20
57.5659447
11
-34.3255653
21
57.7166824
0
LINE
8
0
10
-34.3255653
20
57.7166824
11
-34.2616758
21
58.2019691
0
LINE
8
0
10
-34.2616758
20
58.2019691
11
-34.2403793
21
58.3637314
0
LINE
8
0
10
-34.2403793
20
58.3637314
11
-34.3042688
21
58.8490152
0
LINE
8
0
10
-34.3042688
20
58.8490152
11
-34.3255653
21
59.0107765
0
LINE
8
0
10
-34.3255653
20
59.0107765
11
-34.5128794
21
59.4629927
0
LINE
8
0
10
-34.5128794
20
59.4629927
11
-34.5753174
21
59.6137314
0
LINE
8
0
10
-34.5753174
20
59.6137314
11
-34.8732901
21
60.0020552
0
LINE
8
0
10
-34.8732901
20
60.0020552
11
-34.9726143
21
60.1314964
0
LINE
8
0
10
-34.9726143
20
60.1314964
11
-35.3609381
21
60.4294691
0
LINE
8
0
10
-35.3609381
20
60.4294691
11
-35.4903793
21
60.5287933
0
LINE
8
0
10
-35.4903793
20
60.5287933
11
-35.9425955
21
60.7161074
0
LINE
8
0
10
-35.9425955
20
60.7161074
11
-36.0933342
21
60.7785454
0
LINE
8
0
10
-36.0933342
20
60.7785454
11
-36.578618
21
60.8424349
0
LINE
8
0
10
-36.578618
20
60.8424349
11
-36.7403793
21
60.8637314
0
LINE
8
0
10
-36.7403793
20
60.8637314
11
-37.225666
21
60.7998419
0
LINE
8
0
10
-37.225666
20
60.7998419
11
-37.3874283
21
60.7785454
0
LINE
8
0
10
-37.3874283
20
60.7785454
11
-37.8396416
21
60.5912313
0
LINE
8
0
10
-37.8396416
20
60.5912313
11
-37.9903793
21
60.5287933
0
LINE
8
0
10
-37.9903793
20
60.5287933
11
-38.378706
21
60.2308207
0
LINE
8
0
10
-38.378706
20
60.2308207
11
-38.5081482
21
60.1314964
0
LINE
8
0
10
-38.5081482
20
60.1314964
11
-38.8061209
21
59.7431726
0
LINE
8
0
10
-38.8061209
20
59.7431726
11
-38.9054451
21
59.6137314
0
LINE
8
0
10
-38.9054451
20
59.6137314
11
-39.0927591
21
59.1615152
0
LINE
8
0
10
-39.0927591
20
59.1615152
11
-39.1551971
21
59.0107765
0
LINE
8
0
10
-39.1551971
20
59.0107765
11
-39.1551971
21
59.0107765
0
LINE
8
0
10
15.8617716
20
86.4010773
11
15.5904429
21
86.2886906
0
LINE
8
0
10
15.5904429
20
86.2886906
11
15.5
21
86.2512283
0
LINE
8
0
10
15.5
20
86.2512283
11
15.2670047
21
86.072443
0
LINE
8
0
10
15.2670047
20
86.072443
11
15.1893396
21
86.0128479
0
LINE
8
0
10
15.1893396
20
86.0128479
11
15.0105565
21
85.7798519
0
LINE
8
0
10
15.0105565
20
85.7798519
11
14.9509621
21
85.7021866
0
LINE
8
0
10
14.9509621
20
85.7021866
11
14.8385739
21
85.4308586
0
LINE
8
0
10
14.8385739
20
85.4308586
11
14.8011112
21
85.340416
0
LINE
8
0
10
14.8011112
20
85.340416
11
14.7627778
21
85.0492439
0
LINE
8
0
10
14.7627778
20
85.0492439
11
14.75
21
84.9521866
0
LINE
8
0
10
14.75
20
84.9521866
11
14.7883334
21
84.6610146
0
LINE
8
0
10
14.7883334
20
84.6610146
11
14.8011112
21
84.5639572
0
LINE
8
0
10
14.8011112
20
84.5639572
11
14.9134994
21
84.2926292
0
LINE
8
0
10
14.9134994
20
84.2926292
11
14.9509621
21
84.2021866
0
LINE
8
0
10
14.9509621
20
84.2021866
11
15.1297452
21
83.9691906
0
LINE
8
0
10
15.1297452
20
83.9691906
11
15.1893396
21
83.8915253
0
LINE
8
0
10
15.1893396
20
83.8915253
11
15.4223349
21
83.7127457
0
LINE
8
0
10
15.4223349
20
83.7127457
11
15.5
21
83.6531525
0
LINE
8
0
10
15.5
20
83.6531525
11
15.7713287
21
83.54076
0
LINE
8
0
10
15.7713287
20
83.54076
11
15.8617716
21
83.5032959
0
LINE
8
0
10
15.8617716
20
83.5032959
11
16.1529429
21
83.4649639
0
LINE
8
0
10
16.1529429
20
83.4649639
11
16.25
21
83.4521866
0
LINE
8
0
10
16.25
20
83.4521866
11
16.541172
21
83.4905186
0
LINE
8
0
10
16.541172
20
83.4905186
11
16.6382294
21
83.5032959
0
LINE
8
0
10
16.6382294
20
83.5032959
11
16.9095573
21
83.6156883
0
LINE
8
0
10
16.9095573
20
83.6156883
11
17
21
83.6531525
0
LINE
8
0
10
17
20
83.6531525
11
17.2329946
21
83.8319321
0
LINE
8
0
10
17.2329946
20
83.8319321
11
17.3106594
21
83.8915253
0
LINE
8
0
10
17.3106594
20
83.8915253
11
17.4894433
21
84.1245213
0
LINE
8
0
10
17.4894433
20
84.1245213
11
17.5490379
21
84.2021866
0
LINE
8
0
10
17.5490379
20
84.2021866
11
17.6614261
21
84.4735146
0
LINE
8
0
10
17.6614261
20
84.4735146
11
17.6988888
21
84.5639572
0
LINE
8
0
10
17.6988888
20
84.5639572
11
17.7372222
21
84.8551292
0
LINE
8
0
10
17.7372222
20
84.8551292
11
17.75
21
84.9521866
0
LINE
8
0
10
17.75
20
84.9521866
11
17.7116666
21
85.2433586
0
LINE
8
0
10
17.7116666
20
85.2433586
11
17.6988888
21
85.340416
0
LINE
8
0
10
17.6988888
20
85.340416
11
17.5865006
21
85.6117439
0
LINE
8
0
10
17.5865006
20
85.6117439
11
17.5490379
21
85.7021866
0
LINE
8
0
10
17.5490379
20
85.7021866
11
17.370254
21
85.9351826
0
LINE
8
0
10
17.370254
20
85.9351826
11
17.3106594
21
86.0128479
0
LINE
8
0
10
17.3106594
20
86.0128479
11
17.0776649
21
86.1916332
0
LINE
8
0
10
17.0776649
20
86.1916332
11
17
21
86.2512283
0
LINE
8
0
10
17
20
86.2512283
11
16.728672
21
86.363615
0
LINE
8
0
10
16.728672
20
86.363615
11
16.6382294
21
86.4010773
0
LINE
8
0
10
16.6382294
20
86.4010773
11
16.3470573
21
86.4394093
0
LINE
8
0
10
16.3470573
20
86.4394093
11
16.25
21
86.4521866
0
LINE
8
0
10
16.25
20
86.4521866
11
15.9588287
21
86.4138546
0
LINE
8
0
10
15.9588287
20
86.4138546
11
15.8617716
21
86.4010773
0
LINE
8
0
10
15.8617716
20
86.4010773
11
15.8617716
21
86.4010773
0
LINE
8
0
10
15.8617716
20
126.401077
11
15.5904429
21
126.288691
0
LINE
8
0
10
15.5904429
20
126.288691
11
15.5
21
126.251228
0
LINE
8
0
10
15.5
20
126.251228
11
15.2670047
21
126.072443
0
LINE
8
0
10
15.2670047
20
126.072443
11
15.1893396
21
126.012848
0
LINE
8
0
10
15.1893396
20
126.012848
11
15.0105565
21
125.779852
0
LINE
8
0
10
15.0105565
20
125.779852
11
14.9509621
21
125.702187
0
LINE
8
0
10
14.9509621
20
125.702187
11
14.8385739
21
125.430859
0
LINE
8
0
10
14.8385739
20
125.430859
11
14.8011112
21
125.340416
0
LINE
8
0
10
14.8011112
20
125.340416
11
14.7627778
21
125.049244
0
LINE
8
0
10
14.7627778
20
125.049244
11
14.75
21
124.952187
0
LINE
8
0
10
14.75
20
124.952187
11
14.7883334
21
124.661015
0
LINE
8
0
10
14.7883334
20
124.661015
11
14.8011112
21
124.563957
0
LINE
8
0
10
14.8011112
20
124.563957
11
14.9134994
21
124.292629
0
LINE
8
0
10
14.9134994
20
124.292629
11
14.9509621
21
124.202187
0
LINE
8
0
10
14.9509621
20
124.202187
11
15.1297452
21
123.969191
0
LINE
8
0
10
15.1297452
20
123.969191
11
15.1893396
21
123.891525
0
LINE
8
0
10
15.1893396
20
123.891525
11
15.4223349
21
123.712746
0
LINE
8
0
10
15.4223349
20
123.712746
11
15.5
21
123.653152
0
LINE
8
0
10
15.5
20
123.653152
11
15.7713287
21
123.54076
0
LINE
8
0
10
15.7713287
20
123.54076
11
15.8617716
21
123.503296
0
LINE
8
0
10
15.8617716
20
123.503296
11
16.1529429
21
123.464964
0
LINE
8
0
10
16.1529429
20
123.464964
11
16.25
21
123.452187
0
LINE
8
0
10
16.25
20
123.452187
11
16.541172
21
123.490519
0
LINE
8
0
10
16.541172
20
123.490519
11
16.6382294
21
123.503296
0
LINE
8
0
10
16.6382294
20
123.503296
11
16.9095573
21
123.615688
0
LINE
8
0
10
16.9095573
20
123.615688
11
17
21
123.653152
0
LINE
8
0
10
17
20
123.653152
11
17.2329946
21
123.831932
0
LINE
8
0
10
17.2329946
20
123.831932
11
17.3106594
21
123.891525
0
LINE
8
0
10
17.3106594
20
123.891525
11
17.4894433
21
124.124521
0
LINE
8
0
10
17.4894433
20
124.124521
11
17.5490379
21
124.202187
0
LINE
8
0
10
17.5490379
20
124.202187
11
17.6614261
21
124.473515
0
LINE
8
0
10
17.6614261
20
124.473515
11
17.6988888
21
124.563957
0
LINE
8
0
10
17.6988888
20
124.563957
11
17.7372222
21
124.855129
0
LINE
8
0
10
17.7372222
20
124.855129
11
17.75
21
124.952187
0
LINE
8
0
10
17.75
20
124.952187
11
17.7116666
21
125.243359
0
LINE
8
0
10
17.7116666
20
125.243359
11
17.6988888
21
125.340416
0
LINE
8
0
10
17.6988888
20
125.340416
11
17.5865006
21
125.611744
0
LINE
8
0
10
17.5865006
20
125.611744
11
17.5490379
21
125.702187
0
LINE
8
0
10
17.5490379
20
125.702187
11
17.370254
21
125.935183
0
LINE
8
0
10
17.370254
20
125.935183
11
17.3106594
21
126.012848
0
LINE
8
0
10
17.3106594
20
126.012848
11
17.0776649
21
126.191633
0
LINE
8
0
10
17.0776649
20
126.191633
11
17
21
126.251228
0
LINE
8
0
10
17
20
126.251228
11
16.728672
21
126.363615
0
LINE
8
0
10
16.728672
20
126.363615
11
16.6382294
21
126.401077
0
LINE
8
0
10
16.6382294
20
126.401077
11
16.3470573
21
126.439409
0
LINE
8
0
10
16.3470573
20
126.439409
11
16.25
21
126.452187
0
LINE
8
0
10
16.25
20
126.452187
11
15.9588287
21
126.413855
0
LINE
8
0
10
15.9588287
20
126.413855
11
15.8617716
21
126.401077
0
LINE
8
0
10
15.8617716
20
126.401077
11
15.8617716
21
126.401077
0
LINE
8
0
10
49.4054451
20
57.1137314
11
49.5927591
21
57.5659447
0
LINE
8
0
10
49.5927591
20
57.5659447
11
49.6551971
21
57.7166824
0
LINE
8
0
10
49.6551971
20
57.7166824
11
49.7190838
21
58.2019691
0
LINE
8
0
10
49.7190838
20
58.2019691
11
49.7403793
21
58.3637314
0
LINE
8
0
10
49.7403793
20
58.3637314
11
49.6764927
21
58.8490152
0
LINE
8
0
10
49.6764927
20
58.8490152
11
49.6551971
21
59.0107765
0
LINE
8
0
10
49.6551971
20
59.0107765
11
49.4678831
21
59.4629927
0
LINE
8
0
10
49.4678831
20
59.4629927
11
49.4054451
21
59.6137314
0
LINE
8
0
10
49.4054451
20
59.6137314
11
49.1074724
21
60.0020552
0
LINE
8
0
10
49.1074724
20
60.0020552
11
49.0081482
21
60.1314964
0
LINE
8
0
10
49.0081482
20
60.1314964
11
48.6198215
21
60.4294691
0
LINE
8
0
10
48.6198215
20
60.4294691
11
48.4903793
21
60.5287933
0
LINE
8
0
10
48.4903793
20
60.5287933
11
48.038166
21
60.7161074
0
LINE
8
0
10
48.038166
20
60.7161074
11
47.8874283
21
60.7785454
0
LINE
8
0
10
47.8874283
20
60.7785454
11
47.4021416
21
60.8424349
0
LINE
8
0
10
47.4021416
20
60.8424349
11
47.2403793
21
60.8637314
0
LINE
8
0
10
47.2403793
20
60.8637314
11
46.7550955
21
60.7998419
0
LINE
8
0
10
46.7550955
20
60.7998419
11
46.5933342
21
60.7785454
0
LINE
8
0
10
46.5933342
20
60.7785454
11
46.141118
21
60.5912313
0
LINE
8
0
10
46.141118
20
60.5912313
11
45.9903793
21
60.5287933
0
LINE
8
0
10
45.9903793
20
60.5287933
11
45.6020555
21
60.2308207
0
LINE
8
0
10
45.6020555
20
60.2308207
11
45.4726143
21
60.1314964
0
LINE
8
0
10
45.4726143
20
60.1314964
11
45.1746416
21
59.7431726
0
LINE
8
0
10
45.1746416
20
59.7431726
11
45.0753174
21
59.6137314
0
LINE
8
0
10
45.0753174
20
59.6137314
11
44.8880033
21
59.1615152
0
LINE
8
0
10
44.8880033
20
59.1615152
11
44.8255653
21
59.0107765
0
LINE
8
0
10
44.8255653
20
59.0107765
11
44.7616758
21
58.5254927
0
LINE
8
0
10
44.7616758
20
58.5254927
11
44.7403793
21
58.3637314
0
LINE
8
0
10
44.7403793
20
58.3637314
11
44.8042688
21
57.8784447
0
LINE
8
0
10
44.8042688
20
57.8784447
11
44.8255653
21
57.7166824
0
LINE
8
0
10
44.8255653
20
57.7166824
11
45.0128794
21
57.2644691
0
LINE
8
0
10
45.0128794
20
57.2644691
11
45.0753174
21
57.1137314
0
LINE
8
0
10
45.0753174
20
57.1137314
11
45.3732901
21
56.7254047
0
LINE
8
0
10
45.3732901
20
56.7254047
11
45.4726143
21
56.5959625
0
LINE
8
0
10
45.4726143
20
56.5959625
11
45.8609381
21
56.2979898
0
LINE
8
0
10
45.8609381
20
56.2979898
11
45.9903793
21
56.1986656
0
LINE
8
0
10
45.9903793
20
56.1986656
11
46.4425955
21
56.0113544
0
LINE
8
0
10
46.4425955
20
56.0113544
11
46.5933342
21
55.9489174
0
LINE
8
0
10
46.5933342
20
55.9489174
11
47.078618
21
55.8850279
0
LINE
8
0
10
47.078618
20
55.8850279
11
47.2403793
21
55.8637314
0
LINE
8
0
10
47.2403793
20
55.8637314
11
47.725666
21
55.9276209
0
LINE
8
0
10
47.725666
20
55.9276209
11
47.8874283
21
55.9489174
0
LINE
8
0
10
47.8874283
20
55.9489174
11
48.3396416
21
56.1362286
0
LINE
8
0
10
48.3396416
20
56.1362286
11
48.4903793
21
56.1986656
0
LINE
8
0
10
48.4903793
20
56.1986656
11
48.878706
21
56.4966383
0
LINE
8
0
10
48.878706
20
56.4966383
11
49.0081482
21
56.5959625
0
LINE
8
0
10
49.0081482
20
56.5959625
11
49.3061209
21
56.9842892
0
LINE
8
0
10
49.3061209
20
56.9842892
11
49.4054451
21
57.1137314
0
LINE
8
0
10
49.4054451
20
57.1137314
11
49.4054451
21
57.1137314
0
LINE
8
0
10
60.1113901
20
64.2019691
11
60.0475006
21
63.7166824
0
LINE
8
0
10
60.0475006
20
63.7166824
11
59.9850626
21
63.5659447
0
LINE
8
0
10
59.9850626
20
63.5659447
11
59.7977486
21
63.1137314
0
LINE
8
0
10
59.7977486
20
63.1137314
11
59.6984243
21
62.9842892
0
LINE
8
0
10
59.6984243
20
62.9842892
11
59.4004517
21
62.5959625
0
LINE
8
0
10
59.4004517
20
62.5959625
11
59.2710104
21
62.4966383
0
LINE
8
0
10
59.2710104
20
62.4966383
11
58.8826866
21
62.1986656
0
LINE
8
0
10
58.8826866
20
62.1986656
11
58.7319479
21
62.1362286
0
LINE
8
0
10
58.7319479
20
62.1362286
11
58.2797318
21
61.9489174
0
LINE
8
0
10
58.2797318
20
61.9489174
11
58.1179705
21
61.9276209
0
LINE
8
0
10
58.1179705
20
61.9276209
11
57.6326866
21
61.8637314
0
LINE
8
0
10
57.6326866
20
61.8637314
11
57.4709244
21
61.8850279
0
LINE
8
0
10
57.4709244
20
61.8850279
11
56.9856377
21
61.9489174
0
LINE
8
0
10
56.9856377
20
61.9489174
11
56.8348999
21
62.0113544
0
LINE
8
0
10
56.8348999
20
62.0113544
11
56.3826866
21
62.1986656
0
LINE
8
0
10
56.3826866
20
62.1986656
11
56.2532444
21
62.2979898
0
LINE
8
0
10
56.2532444
20
62.2979898
11
55.8649178
21
62.5959625
0
LINE
8
0
10
55.8649178
20
62.5959625
11
55.7655935
21
62.7254047
0
LINE
8
0
10
55.7655935
20
62.7254047
11
55.4676208
21
63.1137314
0
LINE
8
0
10
55.4676208
20
63.1137314
11
55.4051838
21
63.2644691
0
LINE
8
0
10
55.4051838
20
63.2644691
11
55.2178726
21
63.7166824
0
LINE
8
0
10
55.2178726
20
63.7166824
11
55.1965761
21
63.8784447
0
LINE
8
0
10
55.1965761
20
63.8784447
11
55.1326866
21
64.3637314
0
LINE
8
0
10
55.1326866
20
64.3637314
11
55.1539831
21
64.5254936
0
LINE
8
0
10
55.1539831
20
64.5254936
11
55.2178726
21
65.0107803
0
LINE
8
0
10
55.2178726
20
65.0107803
11
55.2803097
21
65.1615181
0
LINE
8
0
10
55.2803097
20
65.1615181
11
55.4676208
21
65.6137314
0
LINE
8
0
10
55.4676208
20
65.6137314
11
55.5669451
21
65.7431736
0
LINE
8
0
10
55.5669451
20
65.7431736
11
55.8649178
21
66.1315002
0
LINE
8
0
10
55.8649178
20
66.1315002
11
55.99436
21
66.2308235
0
LINE
8
0
10
55.99436
20
66.2308235
11
56.3826866
21
66.5287933
0
LINE
8
0
10
56.3826866
20
66.5287933
11
56.5334244
21
66.5912304
0
LINE
8
0
10
56.5334244
20
66.5912304
11
56.9856377
21
66.7785416
0
LINE
8
0
10
56.9856377
20
66.7785416
11
57.1473999
21
66.799839
0
LINE
8
0
10
57.1473999
20
66.799839
11
57.6326866
21
66.8637314
0
LINE
8
0
10
57.6326866
20
66.8637314
11
57.7944479
21
66.8424339
0
LINE
8
0
10
57.7944479
20
66.8424339
11
58.2797318
21
66.7785416
0
LINE
8
0
10
58.2797318
20
66.7785416
11
58.4304705
21
66.7161045
0
LINE
8
0
10
58.4304705
20
66.7161045
11
58.8826866
21
66.5287933
0
LINE
8
0
10
58.8826866
20
66.5287933
11
59.0121279
21
66.4294701
0
LINE
8
0
10
59.0121279
20
66.4294701
11
59.4004517
21
66.1315002
0
LINE
8
0
10
59.4004517
20
66.1315002
11
59.4997759
21
66.002058
0
LINE
8
0
10
59.4997759
20
66.002058
11
59.7977486
21
65.6137314
0
LINE
8
0
10
59.7977486
20
65.6137314
11
59.8601866
21
65.4629936
0
LINE
8
0
10
59.8601866
20
65.4629936
11
60.0475006
21
65.0107803
0
LINE
8
0
10
60.0475006
20
65.0107803
11
60.0687971
21
64.8490181
0
LINE
8
0
10
60.0687971
20
64.8490181
11
60.1326866
21
64.3637314
0
LINE
8
0
10
60.1326866
20
64.3637314
11
60.1113901
21
64.2019691
0
LINE
8
0
10
60.1113901
20
64.2019691
11
60.1113901
21
64.2019691
0
LINE
8
0
10
-4.375
20
96.9521866
11
-9.25
21
96.9521866
0
LINE
8
0
10
-9.25
20
96.9521866
11
-9.25
21
99.2021866
0
LINE
8
0
10
-9.25
20
99.2021866
11
-10.75
21
99.2021866
0
LINE
8
0
10
-10.75
20
99.2021866
11
-13.25
21
99.2021866
0
LINE
8
0
10
-13.25
20
99.2021866
11
-13.25
21
91.0771866
0
LINE
8
0
10
-13.25
20
91.0771866
11
-13.25
21
83.9521866
0
LINE
8
0
10
-13.25
20
83.9521866
11
-41.75
21
83.9521866
0
LINE
8
0
10
-41.75
20
83.9521866
11
-51.25
21
83.9521866
0
LINE
8
0
10
-51.25
20
83.9521866
11
-53.75
21
81.4521866
0
LINE
8
0
10
-53.75
20
81.4521866
11
-61.25
21
73.9521866
0
LINE
8
0
10
-61.25
20
73.9521866
11
-61.25
21
62.7021866
0
LINE
8
0
10
-61.25
20
62.7021866
11
-61.25
21
58.9521866
0
LINE
8
0
10
-61.25
20
58.9521866
11
-58.75
21
56.4521866
0
LINE
8
0
10
-58.75
20
56.4521866
11
-51.25
21
48.9521866
0
LINE
8
0
10
-51.25
20
48.9521866
11
-19.75
21
48.9521866
0
LINE
8
0
10
-19.75
20
48.9521866
11
8.5
21
48.9521866
0
LINE
8
0
10
8.5
20
48.9521866
11
30.25
21
48.9521866
0
LINE
8
0
10
30.25
20
48.9521866
11
61.75
21
48.9521866
0
LINE
8
0
10
61.75
20
48.9521866
11
64.25
21
51.4521866
0
LINE
8
0
10
64.25
20
51.4521866
11
71.75
21
58.9521866
0
LINE
8
0
10
71.75
20
58.9521866
11
71.75
21
70.2021866
0
LINE
8
0
10
71.75
20
70.2021866
11
71.75
21
73.9521866
0
LINE
8
0
10
71.75
20
73.9521866
11
69.25
21
76.4521866
0
LINE
8
0
10
69.25
20
76.4521866
11
61.75
21
83.9521866
0
LINE
8
0
10
61.75
20
83.9521866
11
33.25
21
83.9521866
0
LINE
8
0
10
33.25
20
83.9521866
11
23.75
21
83.9521866
0
LINE
8
0
10
23.75
20
83.9521866
11
23.75
21
91.0771866
0
LINE
8
0
10
23.75
20
91.0771866
11
23.75
21
99.2021866
0
LINE
8
0
10
23.75
20
99.2021866
11
22.25
21
99.2021866
0
LINE
8
0
10
22.25
20
99.2021866
11
19.75
21
99.2021866
0
LINE
8
0
10
19.75
20
99.2021866
11
19.75
21
96.9521866
0
LINE
8
0
10
19.75
20
96.9521866
11
18.125
21
96.9521866
0
LINE
8
0
10
18.125
20
96.9521866
11
13.25
21
96.9521866
0
LINE
8
0
10
13.25
20
96.9521866
11
13.25
21
99.9521866
0
LINE
8
0
10
13.25
20
99.9521866
11
13.25
21
108.952187
0
LINE
8
0
10
13.25
20
108.952187
11
14.875
21
108.952187
0
LINE
8
0
10
14.875
20
108.952187
11
19.75
21
108.952187
0
LINE
8
0
10
19.75
20
108.952187
11
19.75
21
106.702187
0
LINE
8
0
10
19.75
20
106.702187
11
21.25
21
106.702187
0
LINE
8
0
10
21.25
20
106.702187
11
23.75
21
106.702187
0
LINE
8
0
10
23.75
20
106.702187
11
23.75
21
119.202191
0
LINE
8
0
10
23.75
20
119.202191
11
23.75
21
128.952194
0
LINE
8
0
10
23.75
20
128.952194
11
20.75
21
128.952194
0
LINE
8
0
10
20.75
20
128.952194
11
11.5
21
128.952194
0
LINE
8
0
10
11.5
20
128.952194
11
-10.25
21
128.952194
0
LINE
8
0
10
-10.25
20
128.952194
11
-13.25
21
128.952194
0
LINE
8
0
10
-13.25
20
128.952194
11
-13.25
21
119.202191
0
LINE
8
0
10
-13.25
20
119.202191
11
-13.25
21
106.702187
0
LINE
8
0
10
-13.25
20
106.702187
11
-11.75
21
106.702187
0
LINE
8
0
10
-11.75
20
106.702187
11
-9.25
21
106.702187
0
LINE
8
0
10
-9.25
20
106.702187
11
-9.25
21
108.952187
0
LINE
8
0
10
-9.25
20
108.952187
11
-7.625
21
108.952187
0
LINE
8
0
10
-7.625
20
108.952187
11
-2.75
21
108.952187
0
LINE
8
0
10
-2.75
20
108.952187
11
-2.75
21
105.952187
0
LINE
8
0
10
-2.75
20
105.952187
11
-2.75
21
96.9521866
0
LINE
8
0
10
-2.75
20
96.9521866
11
-4.375
21
96.9521866
0
LINE
8
0
10
-4.375
20
96.9521866
11
-4.375
21
96.9521866
0
LINE
8
0
10
-17.6793127
20
65.8926334
11
-17.6557503
21
65.7061157
0
LINE
8
0
10
-17.6557503
20
65.7061157
11
-17.4481273
21
65.1817245
0
LINE
8
0
10
-17.4481273
20
65.1817245
11
-17.3789196
21
65.0069275
0
LINE
8
0
10
-17.3789196
20
65.0069275
11
-17.04741
21
64.5506401
0
LINE
8
0
10
-17.04741
20
64.5506401
11
-16.9369068
21
64.3985443
0
LINE
8
0
10
-16.9369068
20
64.3985443
11
-16.5023375
21
64.0390396
0
LINE
8
0
10
-16.5023375
20
64.0390396
11
-16.357481
21
63.9192047
0
LINE
8
0
10
-16.357481
20
63.9192047
11
-15.8471582
21
63.6790648
0
LINE
8
0
10
-15.8471582
20
63.6790648
11
-15.6770506
21
63.5990181
0
LINE
8
0
10
-15.6770506
20
63.5990181
11
-15.1230414
21
63.4933348
0
LINE
8
0
10
-15.1230414
20
63.4933348
11
-14.9383717
21
63.458107
0
LINE
8
0
10
-14.9383717
20
63.458107
11
-14.3754847
21
63.4935207
0
LINE
8
0
10
-14.3754847
20
63.4935207
11
-14.1878557
21
63.5053253
0
LINE
8
0
10
-14.1878557
20
63.5053253
11
-13.6514604
21
63.6796103
0
LINE
8
0
10
-13.6514604
20
63.6796103
11
-13.472662
21
63.7377052
0
LINE
8
0
10
-13.472662
20
63.7377052
11
-12.9964619
21
64.0399122
0
LINE
8
0
10
-12.9964619
20
64.0399122
11
-12.8377285
21
64.1406479
0
LINE
8
0
10
-12.8377285
20
64.1406479
11
-12.4516442
21
64.5517883
0
LINE
8
0
10
-12.4516442
20
64.5517883
11
-12.3229494
21
64.6888351
0
LINE
8
0
10
-12.3229494
20
64.6888351
11
-12.0512402
21
65.1830711
0
LINE
8
0
10
-12.0512402
20
65.1830711
11
-11.9606705
21
65.3478165
0
LINE
8
0
10
-11.9606705
20
65.3478165
11
-11.8204095
21
65.8940945
0
LINE
8
0
10
-11.8204095
20
65.8940945
11
-11.7736559
21
66.0761871
0
LINE
8
0
10
-11.7736559
20
66.0761871
11
-11.7736559
21
66.6401863
0
LINE
8
0
10
-11.7736559
20
66.6401863
11
-11.7736559
21
66.828186
0
LINE
8
0
10
-11.7736559
20
66.828186
11
-11.9139168
21
67.3744698
0
LINE
8
0
10
-11.9139168
20
67.3744698
11
-11.9606705
21
67.5565643
0
LINE
8
0
10
-11.9606705
20
67.5565643
11
-12.2323797
21
68.0508003
0
LINE
8
0
10
-12.2323797
20
68.0508003
11
-12.3229494
21
68.2155457
0
LINE
8
0
10
-12.3229494
20
68.2155457
11
-12.7090337
21
68.6266804
0
LINE
8
0
10
-12.7090337
20
68.6266804
11
-12.8377285
21
68.7637253
0
LINE
8
0
10
-12.8377285
20
68.7637253
11
-13.3139286
21
69.0659351
0
LINE
8
0
10
-13.3139286
20
69.0659351
11
-13.472662
21
69.1666718
0
LINE
8
0
10
-13.472662
20
69.1666718
11
-14.0090573
21
69.3409538
0
LINE
8
0
10
-14.0090573
20
69.3409538
11
-14.1878557
21
69.3990479
0
LINE
8
0
10
-14.1878557
20
69.3990479
11
-14.7507427
21
69.4344616
0
LINE
8
0
10
-14.7507427
20
69.4344616
11
-14.9383717
21
69.4462662
0
LINE
8
0
10
-14.9383717
20
69.4462662
11
-15.4923809
21
69.3405857
0
LINE
8
0
10
-15.4923809
20
69.3405857
11
-15.6770506
21
69.3053589
0
LINE
8
0
10
-15.6770506
20
69.3053589
11
-16.1873734
21
69.0652161
0
LINE
8
0
10
-16.1873734
20
69.0652161
11
-16.357481
21
68.9851685
0
LINE
8
0
10
-16.357481
20
68.9851685
11
-16.7920504
21
68.6256638
0
LINE
8
0
10
-16.7920504
20
68.6256638
11
-16.9369068
21
68.5058289
0
LINE
8
0
10
-16.9369068
20
68.5058289
11
-17.2684164
21
68.0495415
0
LINE
8
0
10
-17.2684164
20
68.0495415
11
-17.3789196
21
67.8974457
0
LINE
8
0
10
-17.3789196
20
67.8974457
11
-17.5865426
21
67.3730545
0
LINE
8
0
10
-17.5865426
20
67.3730545
11
-17.6557503
21
67.1982574
0
LINE
8
0
10
-17.6557503
20
67.1982574
11
-17.7264376
21
66.6387043
0
LINE
8
0
10
-17.7264376
20
66.6387043
11
-17.75
21
66.4521866
0
LINE
8
0
10
-17.75
20
66.4521866
11
-17.6793127
21
65.8926334
0
LINE
8
0
10
-17.6793127
20
65.8926334
11
-17.6793127
21
65.8926334
0
LINE
8
0
10
22.3206873
20
65.8926334
11
22.3442497
21
65.7061157
0
LINE
8
0
10
22.3442497
20
65.7061157
11
22.5518727
21
65.1817245
0
LINE
8
0
10
22.5518727
20
65.1817245
11
22.6210804
21
65.0069275
0
LINE
8
0
10
22.6210804
20
65.0069275
11
22.95259
21
64.5506401
0
LINE
8
0
10
22.95259
20
64.5506401
11
23.0630932
21
64.3985443
0
LINE
8
0
10
23.0630932
20
64.3985443
11
23.4976625
21
64.0390396
0
LINE
8
0
10
23.4976625
20
64.0390396
11
23.642519
21
63.9192047
0
LINE
8
0
10
23.642519
20
63.9192047
11
24.1528411
21
63.6790648
0
LINE
8
0
10
24.1528411
20
63.6790648
11
24.3229485
21
63.5990181
0
LINE
8
0
10
24.3229485
20
63.5990181
11
24.8769584
21
63.4933348
0
LINE
8
0
10
24.8769584
20
63.4933348
11
25.0616283
21
63.458107
0
LINE
8
0
10
25.0616283
20
63.458107
11
25.6245146
21
63.4935207
0
LINE
8
0
10
25.6245146
20
63.4935207
11
25.8121433
21
63.5053253
0
LINE
8
0
10
25.8121433
20
63.5053253
11
26.3485394
21
63.6796103
0
LINE
8
0
10
26.3485394
20
63.6796103
11
26.527338
21
63.7377052
0
LINE
8
0
10
26.527338
20
63.7377052
11
27.0035381
21
64.0399122
0
LINE
8
0
10
27.0035381
20
64.0399122
11
27.1622715
21
64.1406479
0
LINE
8
0
10
27.1622715
20
64.1406479
11
27.5483565
21
64.5517883
0
LINE
8
0
10
27.5483565
20
64.5517883
11
27.6770515
21
64.6888351
0
LINE
8
0
10
27.6770515
20
64.6888351
11
27.94876
21
65.1830711
0
LINE
8
0
10
27.94876
20
65.1830711
11
28.0393295
21
65.3478165
0
LINE
8
0
10
28.0393295
20
65.3478165
11
28.1795897
21
65.8940945
0
LINE
8
0
10
28.1795897
20
65.8940945
11
28.2263432
21
66.0761871
0
LINE
8
0
10
28.2263432
20
66.0761871
11
28.2263432
21
66.6401863
0
LINE
8
0
10
28.2263432
20
66.6401863
11
28.2263432
21
66.828186
0
LINE
8
0
10
28.2263432
20
66.828186
11
28.0860829
21
67.3744698
0
LINE
8
0
10
28.0860829
20
67.3744698
11
28.0393295
21
67.5565643
0
LINE
8
0
10
28.0393295
20
67.5565643
11
27.767621
21
68.0508003
0
LINE
8
0
10
27.767621
20
68.0508003
11
27.6770515
21
68.2155457
0
LINE
8
0
10
27.6770515
20
68.2155457
11
27.2909665
21
68.6266804
0
LINE
8
0
10
27.2909665
20
68.6266804
11
27.1622715
21
68.7637253
0
LINE
8
0
10
27.1622715
20
68.7637253
11
26.6860714
21
69.0659351
0
LINE
8
0
10
26.6860714
20
69.0659351
11
26.527338
21
69.1666718
0
LINE
8
0
10
26.527338
20
69.1666718
11
25.990942
21
69.3409538
0
LINE
8
0
10
25.990942
20
69.3409538
11
25.8121433
21
69.3990479
0
LINE
8
0
10
25.8121433
20
69.3990479
11
25.2492571
21
69.4344616
0
LINE
8
0
10
25.2492571
20
69.4344616
11
25.0616283
21
69.4462662
0
LINE
8
0
10
25.0616283
20
69.4462662
11
24.5076184
21
69.3405857
0
LINE
8
0
10
24.5076184
20
69.3405857
11
24.3229485
21
69.3053589
0
LINE
8
0
10
24.3229485
20
69.3053589
11
23.8126264
21
69.0652161
0
LINE
8
0
10
23.8126264
20
69.0652161
11
23.642519
21
68.9851685
0
LINE
8
0
10
23.642519
20
68.9851685
11
23.2079496
21
68.6256638
0
LINE
8
0
10
23.2079496
20
68.6256638
11
23.0630932
21
68.5058289
0
LINE
8
0
10
23.0630932
20
68.5058289
11
22.7315836
21
68.0495415
0
LINE
8
0
10
22.7315836
20
68.0495415
11
22.6210804
21
67.8974457
0
LINE
8
0
10
22.6210804
20
67.8974457
11
22.4134574
21
67.3730545
0
LINE
8
0
10
22.4134574
20
67.3730545
11
22.3442497
21
67.1982574
0
LINE
8
0
10
22.3442497
20
67.1982574
11
22.2735624
21
66.6387043
0
LINE
8
0
10
22.2735624
20
66.6387043
11
22.25
21
66.4521866
0
LINE
8
0
10
22.25
20
66.4521866
11
22.3206873
21
65.8926334
0
LINE
8
0
10
22.3206873
20
65.8926334
11
22.3206873
21
65.8926334
0
LINE
8
0
10
-44.6539831
20
64.2019691
11
-44.7178726
21
63.7166824
0
LINE
8
0
10
-44.7178726
20
63.7166824
11
-44.7803097
21
63.5659447
0
LINE
8
0
10
-44.7803097
20
63.5659447
11
-44.9676208
21
63.1137314
0
LINE
8
0
10
-44.9676208
20
63.1137314
11
-45.0669451
21
62.9842892
0
LINE
8
0
10
-45.0669451
20
62.9842892
11
-45.3649178
21
62.5959625
0
LINE
8
0
10
-45.3649178
20
62.5959625
11
-45.49436
21
62.4966383
0
LINE
8
0
10
-45.49436
20
62.4966383
11
-45.8826866
21
62.1986656
0
LINE
8
0
10
-45.8826866
20
62.1986656
11
-46.0334244
21
62.1362286
0
LINE
8
0
10
-46.0334244
20
62.1362286
11
-46.4856377
21
61.9489174
0
LINE
8
0
10
-46.4856377
20
61.9489174
11
-46.6473999
21
61.9276209
0
LINE
8
0
10
-46.6473999
20
61.9276209
11
-47.1326866
21
61.8637314
0
LINE
8
0
10
-47.1326866
20
61.8637314
11
-47.2944479
21
61.8850279
0
LINE
8
0
10
-47.2944479
20
61.8850279
11
-47.7797318
21
61.9489174
0
LINE
8
0
10
-47.7797318
20
61.9489174
11
-47.9304705
21
62.0113544
0
LINE
8
0
10
-47.9304705
20
62.0113544
11
-48.3826866
21
62.1986656
0
LINE
8
0
10
-48.3826866
20
62.1986656
11
-48.5121279
21
62.2979898
0
LINE
8
0
10
-48.5121279
20
62.2979898
11
-48.9004517
21
62.5959625
0
LINE
8
0
10
-48.9004517
20
62.5959625
11
-48.9997759
21
62.7254047
0
LINE
8
0
10
-48.9997759
20
62.7254047
11
-49.2977486
21
63.1137314
0
LINE
8
0
10
-49.2977486
20
63.1137314
11
-49.3601866
21
63.2644691
0
LINE
8
0
10
-49.3601866
20
63.2644691
11
-49.5475006
21
63.7166824
0
LINE
8
0
10
-49.5475006
20
63.7166824
11
-49.5687971
21
63.8784447
0
LINE
8
0
10
-49.5687971
20
63.8784447
11
-49.6326866
21
64.3637314
0
LINE
8
0
10
-49.6326866
20
64.3637314
11
-49.6113901
21
64.5254936
0
LINE
8
0
10
-49.6113901
20
64.5254936
11
-49.5475006
21
65.0107803
0
LINE
8
0
10
-49.5475006
20
65.0107803
11
-49.4850626
21
65.1615181
0
LINE
8
0
10
-49.4850626
20
65.1615181
11
-49.2977486
21
65.6137314
0
LINE
8
0
10
-49.2977486
20
65.6137314
11
-49.1984243
21
65.7431736
0
LINE
8
0
10
-49.1984243
20
65.7431736
11
-48.9004517
21
66.1315002
0
LINE
8
0
10
-48.9004517
20
66.1315002
11
-48.7710104
21
66.2308235
0
LINE
8
0
10
-48.7710104
20
66.2308235
11
-48.3826866
21
66.5287933
0
LINE
8
0
10
-48.3826866
20
66.5287933
11
-48.2319479
21
66.5912304
0
LINE
8
0
10
-48.2319479
20
66.5912304
11
-47.7797318
21
66.7785416
0
LINE
8
0
10
-47.7797318
20
66.7785416
11
-47.6179705
21
66.799839
0
LINE
8
0
10
-47.6179705
20
66.799839
11
-47.1326866
21
66.8637314
0
LINE
8
0
10
-47.1326866
20
66.8637314
11
-46.9709244
21
66.8424339
0
LINE
8
0
10
-46.9709244
20
66.8424339
11
-46.4856377
21
66.7785416
0
LINE
8
0
10
-46.4856377
20
66.7785416
11
-46.3348999
21
66.7161045
0
LINE
8
0
10
-46.3348999
20
66.7161045
11
-45.8826866
21
66.5287933
0
LINE
8
0
10
-45.8826866
20
66.5287933
11
-45.7532444
21
66.4294701
0
LINE
8
0
10
-45.7532444
20
66.4294701
11
-45.3649178
21
66.1315002
0
LINE
8
0
10
-45.3649178
20
66.1315002
11
-45.2655935
21
66.002058
0
LINE
8
0
10
-45.2655935
20
66.002058
11
-44.9676208
21
65.6137314
0
LINE
8
0
10
-44.9676208
20
65.6137314
11
-44.9051838
21
65.4629936
0
LINE
8
0
10
-44.9051838
20
65.4629936
11
-44.7178726
21
65.0107803
0
LINE
8
0
10
-44.7178726
20
65.0107803
11
-44.6965761
21
64.8490181
0
LINE
8
0
10
-44.6965761
20
64.8490181
11
-44.6326866
21
64.3637314
0
LINE
8
0
10
-44.6326866
20
64.3637314
11
-44.6539831
21
64.2019691
0
LINE
8
0
10
-44.6539831
20
64.2019691
11
-44.6539831
21
64.2019691
0
LINE
8
0
10
-4.51055646
20
84.1245213
11
-4.68933964
21
83.8915253
0
LINE
8
0
10
-4.68933964
20
83.8915253
11
-4.76700473
21
83.8319321
0
LINE
8
0
10
-4.76700473
20
83.8319321
11
-5
21
83.6531525
0
LINE
8
0
10
-5
20
83.6531525
11
-5.0904429
21
83.6156883
0
LINE
8
0
10
-5.0904429
20
83.6156883
11
-5.36177158
21
83.5032959
0
LINE
8
0
10
-5.36177158
20
83.5032959
11
-5.45882869
21
83.4905186
0
LINE
8
0
10
-5.45882869
20
83.4905186
11
-5.75
21
83.4521866
0
LINE
8
0
10
-5.75
20
83.4521866
11
-5.8470571
21
83.4649639
0
LINE
8
0
10
-5.8470571
20
83.4649639
11
-6.13822842
21
83.5032959
0
LINE
8
0
10
-6.13822842
20
83.5032959
11
-6.22867131
21
83.54076
0
LINE
8
0
10
-6.22867131
20
83.54076
11
-6.5
21
83.6531525
0
LINE
8
0
10
-6.5
20
83.6531525
11
-6.57766509
21
83.7127457
0
LINE
8
0
10
-6.57766509
20
83.7127457
11
-6.81066036
21
83.8915253
0
LINE
8
0
10
-6.81066036
20
83.8915253
11
-6.87025476
21
83.9691906
0
LINE
8
0
10
-6.87025476
20
83.9691906
11
-7.04903793
21
84.2021866
0
LINE
8
0
10
-7.04903793
20
84.2021866
11
-7.08650064
21
84.2926292
0
LINE
8
0
10
-7.08650064
20
84.2926292
11
-7.19888878
21
84.5639572
0
LINE
8
0
10
-7.19888878
20
84.5639572
11
-7.21166658
21
84.6610146
0
LINE
8
0
10
-7.21166658
20
84.6610146
11
-7.25
21
84.9521866
0
LINE
8
0
10
-7.25
20
84.9521866
11
-7.23722219
21
85.0492439
0
LINE
8
0
10
-7.23722219
20
85.0492439
11
-7.19888878
21
85.340416
0
LINE
8
0
10
-7.19888878
20
85.340416
11
-7.16142607
21
85.4308586
0
LINE
8
0
10
-7.16142607
20
85.4308586
11
-7.04903793
21
85.7021866
0
LINE
8
0
10
-7.04903793
20
85.7021866
11
-6.98944354
21
85.7798519
0
LINE
8
0
10
-6.98944354
20
85.7798519
11
-6.81066036
21
86.0128479
0
LINE
8
0
10
-6.81066036
20
86.0128479
11
-6.73299527
21
86.072443
0
LINE
8
0
10
-6.73299527
20
86.072443
11
-6.5
21
86.2512283
0
LINE
8
0
10
-6.5
20
86.2512283
11
-6.4095571
21
86.2886906
0
LINE
8
0
10
-6.4095571
20
86.2886906
11
-6.13822842
21
86.4010773
0
LINE
8
0
10
-6.13822842
20
86.4010773
11
-6.04117131
21
86.4138546
0
LINE
8
0
10
-6.04117131
20
86.4138546
11
-5.75
21
86.4521866
0
LINE
8
0
10
-5.75
20
86.4521866
11
-5.6529429
21
86.4394093
0
LINE
8
0
10
-5.6529429
20
86.4394093
11
-5.36177158
21
86.4010773
0
LINE
8
0
10
-5.36177158
20
86.4010773
11
-5.27132869
21
86.363615
0
LINE
8
0
10
-5.27132869
20
86.363615
11
-5
21
86.2512283
0
LINE
8
0
10
-5
20
86.2512283
11
-4.92233491
21
86.1916332
0
LINE
8
0
10
-4.92233491
20
86.1916332
11
-4.68933964
21
86.0128479
0
LINE
8
0
10
-4.68933964
20
86.0128479
11
-4.62974524
21
85.9351826
0
LINE
8
0
10
-4.62974524
20
85.9351826
11
-4.45096207
21
85.7021866
0
LINE
8
0
10
-4.45096207
20
85.7021866
11
-4.41349936
21
85.6117439
0
LINE
8
0
10
-4.41349936
20
85.6117439
11
-4.30111122
21
85.340416
0
LINE
8
0
10
-4.30111122
20
85.340416
11
-4.28833342
21
85.2433586
0
LINE
8
0
10
-4.28833342
20
85.2433586
11
-4.25
21
84.9521866
0
LINE
8
0
10
-4.25
20
84.9521866
11
-4.26277781
21
84.8551292
0
LINE
8
0
10
-4.26277781
20
84.8551292
11
-4.30111122
21
84.5639572
0
LINE
8
0
10
-4.30111122
20
84.5639572
11
-4.33857393
21
84.4735146
0
LINE
8
0
10
-4.33857393
20
84.4735146
11
-4.45096207
21
84.2021866
0
LINE
8
0
10
-4.45096207
20
84.2021866
11
-4.51055646
21
84.1245213
0
LINE
8
0
10
-4.51055646
20
84.1245213
11
-4.51055646
21
84.1245213
0
LINE
8
0
10
-4.51055646
20
124.124521
11
-4.68933964
21
123.891525
0
LINE
8
0
10
-4.68933964
20
123.891525
11
-4.76700473
21
123.831932
0
LINE
8
0
10
-4.76700473
20
123.831932
11
-5
21
123.653152
0
LINE
8
0
10
-5
20
123.653152
11
-5.0904429
21
123.615688
0
LINE
8
0
10
-5.0904429
20
123.615688
11
-5.36177158
21
123.503296
0
LINE
8
0
10
-5.36177158
20
123.503296
11
-5.45882869
21
123.490519
0
LINE
8
0
10
-5.45882869
20
123.490519
11
-5.75
21
123.452187
0
LINE
8
0
10
-5.75
20
123.452187
11
-5.8470571
21
123.464964
0
LINE
8
0
10
-5.8470571
20
123.464964
11
-6.13822842
21
123.503296
0
LINE
8
0
10
-6.13822842
20
123.503296
11
-6.22867131
21
123.54076
0
LINE
8
0
10
-6.22867131
20
123.54076
11
-6.5
21
123.653152
0
LINE
8
0
10
-6.5
20
123.653152
11
-6.57766509
21
123.712746
0
LINE
8
0
10
-6.57766509
20
123.712746
11
-6.81066036
21
123.891525
0
LINE
8
0
10
-6.81066036
20
123.891525
11
-6.87025476
21
123.969191
0
LINE
8
0
10
-6.87025476
20
123.969191
11
-7.04903793
21
124.202187
0
LINE
8
0
10
-7.04903793
20
124.202187
11
-7.08650064
21
124.292629
0
LINE
8
0
10
-7.08650064
20
124.292629
11
-7.19888878
21
124.563957
0
LINE
8
0
10
-7.19888878
20
124.563957
11
-7.21166658
21
124.661015
0
LINE
8
0
10
-7.21166658
20
124.661015
11
-7.25
21
124.952187
0
LINE
8
0
10
-7.25
20
124.952187
11
-7.23722219
21
125.049244
0
LINE
8
0
10
-7.23722219
20
125.049244
11
-7.19888878
21
125.340416
0
LINE
8
0
10
-7.19888878
20
125.340416
11
-7.16142607
21
125.430859
0
LINE
8
0
10
-7.16142607
20
125.430859
11
-7.04903793
21
125.702187
0
LINE
8
0
10
-7.04903793
20
125.702187
11
-6.98944354
21
125.779852
0
LINE
8
0
10
-6.98944354
20
125.779852
11
-6.81066036
21
126.012848
0
LINE
8
0
10
-6.81066036
20
126.012848
11
-6.73299527
21
126.072443
0
LINE
8
0
10
-6.73299527
20
126.072443
11
-6.5
21
126.251228
0
LINE
8
0
10
-6.5
20
126.251228
11
-6.4095571
21
126.288691
0
LINE
8
0
10
-6.4095571
20
126.288691
11
-6.13822842
21
126.401077
0
LINE
8
0
10
-6.13822842
20
126.401077
11
-6.04117131
21
126.413855
0
LINE
8
0
10
-6.04117131
20
126.413855
11
-5.75
21
126.452187
0
LINE
8
0
10
-5.75
20
126.452187
11
-5.6529429
21
126.439409
0
LINE
8
0
10
-5.6529429
20
126.439409
11
-5.36177158
21
126.401077
0
LINE
8
0
10
-5.36177158
20
126.401077
11
-5.27132869
21
126.363615
0
LINE
8
0
10
-5.27132869
20
126.363615
11
-5
21
126.251228
0
LINE
8
0
10
-5
20
126.251228
11
-4.92233491
21
126.191633
0
LINE
8
0
10
-4.92233491
20
126.191633
11
-4.68933964
21
126.012848
0
LINE
8
0
10
-4.68933964
20
126.012848
11
-4.62974524
21
125.935183
0
LINE
8
0
10
-4.62974524
20
125.935183
11
-4.45096207
21
125.702187
0
LINE
8
0
10
-4.45096207
20
125.702187
11
-4.41349936
21
125.611744
0
LINE
8
0
10
-4.41349936
20
125.611744
11
-4.30111122
21
125.340416
0
LINE
8
0
10
-4.30111122
20
125.340416
11
-4.28833342
21
125.243359
0
LINE
8
0
10
-4.28833342
20
125.243359
11
-4.25
21
124.952187
0
LINE
8
0
10
-4.25
20
124.952187
11
-4.26277781
21
124.855129
0
LINE
8
0
10
-4.26277781
20
124.855129
11
-4.30111122
21
124.563957
0
LINE
8
0
10
-4.30111122
20
124.563957
11
-4.33857393
21
124.473515
0
LINE
8
0
10
-4.33857393
20
124.473515
11
-4.45096207
21
124.202187
0
LINE
8
0
10
-4.45096207
20
124.202187
11
-4.51055646
21
124.124521
0
LINE
8
0
10
-4.51055646
20
124.124521
11
-4.51055646
21
124.124521
0
ENDSEC
0
EOF
