0
SECTION
2
ENTITIES
0
LINE
8
0
10
-39.1551971
20
59.0107765
11
-39.1977882
21
58.687254
0
LINE
8
0
10
-39.1977882
20
58.687254
11
-39.2403793
21
58.3637314
0
LINE
8
0
10
-39.2403793
20
58.3637314
11
-39.1977882
21
58.0402069
0
LINE
8
0
10
-39.1977882
20
58.0402069
11
-39.1551971
21
57.7166824
0
LINE
8
0
10
-39.1551971
20
57.7166824
11
-39.0303211
21
57.4152069
0
LINE
8
0
10
-39.0303211
20
57.4152069
11
-38.9054451
21
57.1137314
0
LINE
8
0
10
-38.9054451
20
57.1137314
11
-38.7067966
21
56.854847
0
LINE
8
0
10
-38.7067966
20
56.854847
11
-38.5081482
21
56.5959625
0
LINE
8
0
10
-38.5081482
20
56.5959625
11
-38.2492638
21
56.3973141
0
LINE
8
0
10
-38.2492638
20
56.3973141
11
-37.9903793
21
56.1986656
0
LINE
8
0
10
-37.9903793
20
56.1986656
11
-37.6889038
21
56.0737915
0
LINE
8
0
10
-37.6889038
20
56.0737915
11
-37.3874283
21
55.9489174
0
LINE
8
0
10
-37.3874283
20
55.9489174
11
-37.0639038
21
55.9063244
0
LINE
8
0
10
-37.0639038
20
55.9063244
11
-36.7403793
21
55.8637314
0
LINE
8
0
10
-36.7403793
20
55.8637314
11
-36.4168568
21
55.9063244
0
LINE
8
0
10
-36.4168568
20
55.9063244
11
-36.0933342
21
55.9489174
0
LINE
8
0
10
-36.0933342
20
55.9489174
11
-35.7918568
21
56.0737915
0
LINE
8
0
10
-35.7918568
20
56.0737915
11
-35.4903793
21
56.1986656
0
LINE
8
0
10
-35.4903793
20
56.1986656
11
-35.2314968
21
56.3973141
0
LINE
8
0
10
-35.2314968
20
56.3973141
11
-34.9726143
21
56.5959625
0
LINE
8
0
10
-34.9726143
20
56.5959625
11
-34.7739658
21
56.854847
0
LINE
8
0
10
-34.7739658
20
56.854847
11
-34.5753174
21
57.1137314
0
LINE
8
0
10
-34.5753174
20
57.1137314
11
-34.4504414
21
57.4152069
0
LINE
8
0
10
-34.4504414
20
57.4152069
11
-34.3255653
21
57.7166824
0
LINE
8
0
10
-34.3255653
20
57.7166824
11
-34.2829723
21
58.0402069
0
LINE
8
0
10
-34.2829723
20
58.0402069
11
-34.2403793
21
58.3637314
0
LINE
8
0
10
-34.2403793
20
58.3637314
11
-34.2829723
21
58.687254
0
LINE
8
0
10
-34.2829723
20
58.687254
11
-34.3255653
21
59.0107765
0
LINE
8
0
10
-34.3255653
20
59.0107765
11
-34.4504414
21
59.312254
0
LINE
8
0
10
-34.4504414
20
59.312254
11
-34.5753174
21
59.6137314
0
LINE
8
0
10
-34.5753174
20
59.6137314
11
-34.7739658
21
59.8726139
0
LINE
8
0
10
-34.7739658
20
59.8726139
11
-34.9726143
21
60.1314964
0
LINE
8
0
10
-34.9726143
20
60.1314964
11
-35.2314968
21
60.3301449
0
LINE
8
0
10
-35.2314968
20
60.3301449
11
-35.4903793
21
60.5287933
0
LINE
8
0
10
-35.4903793
20
60.5287933
11
-35.7918568
21
60.6536694
0
LINE
8
0
10
-35.7918568
20
60.6536694
11
-36.0933342
21
60.7785454
0
LINE
8
0
10
-36.0933342
20
60.7785454
11
-36.4168568
21
60.8211384
0
LINE
8
0
10
-36.4168568
20
60.8211384
11
-36.7403793
21
60.8637314
0
LINE
8
0
10
-36.7403793
20
60.8637314
11
-37.0639038
21
60.8211384
0
LINE
8
0
10
-37.0639038
20
60.8211384
11
-37.3874283
21
60.7785454
0
LINE
8
0
10
-37.3874283
20
60.7785454
11
-37.6889038
21
60.6536694
0
LINE
8
0
10
-37.6889038
20
60.6536694
11
-37.9903793
21
60.5287933
0
LINE
8
0
10
-37.9903793
20
60.5287933
11
-38.2492638
21
60.3301449
0
LINE
8
0
10
-38.2492638
20
60.3301449
11
-38.5081482
21
60.1314964
0
LINE
8
0
10
-38.5081482
20
60.1314964
11
-38.7067966
21
59.8726139
0
LINE
8
0
10
-38.7067966
20
59.8726139
11
-38.9054451
21
59.6137314
0
LINE
8
0
10
-38.9054451
20
59.6137314
11
-39.0303211
21
59.312254
0
LINE
8
0
10
-39.0303211
20
59.312254
11
-39.1551971
21
59.0107765
0
LINE
8
0
10
-39.1551971
20
59.0107765
11
-39.1551971
21
59.0107765
0
LINE
8
0
10
49.4054451
20
57.1137314
11
49.2067966
21
56.854847
0
LINE
8
0
10
49.2067966
20
56.854847
11
49.0081482
21
56.5959625
0
LINE
8
0
10
49.0081482
20
56.5959625
11
48.7492638
21
56.3973141
0
LINE
8
0
10
48.7492638
20
56.3973141
11
48.4903793
21
56.1986656
0
LINE
8
0
10
48.4903793
20
56.1986656
11
48.1889038
21
56.0737915
0
LINE
8
0
10
48.1889038
20
56.0737915
11
47.8874283
21
55.9489174
0
LINE
8
0
10
47.8874283
20
55.9489174
11
47.5639038
21
55.9063244
0
LINE
8
0
10
47.5639038
20
55.9063244
11
47.2403793
21
55.8637314
0
LINE
8
0
10
47.2403793
20
55.8637314
11
46.9168568
21
55.9063244
0
LINE
8
0
10
46.9168568
20
55.9063244
11
46.5933342
21
55.9489174
0
LINE
8
0
10
46.5933342
20
55.9489174
11
46.2918568
21
56.0737915
0
LINE
8
0
10
46.2918568
20
56.0737915
11
45.9903793
21
56.1986656
0
LINE
8
0
10
45.9903793
20
56.1986656
11
45.7314968
21
56.3973141
0
LINE
8
0
10
45.7314968
20
56.3973141
11
45.4726143
21
56.5959625
0
LINE
8
0
10
45.4726143
20
56.5959625
11
45.2739658
21
56.854847
0
LINE
8
0
10
45.2739658
20
56.854847
11
45.0753174
21
57.1137314
0
LINE
8
0
10
45.0753174
20
57.1137314
11
44.9504414
21
57.4152069
0
LINE
8
0
10
44.9504414
20
57.4152069
11
44.8255653
21
57.7166824
0
LINE
8
0
10
44.8255653
20
57.7166824
11
44.7829723
21
58.0402069
0
LINE
8
0
10
44.7829723
20
58.0402069
11
44.7403793
21
58.3637314
0
LINE
8
0
10
44.7403793
20
58.3637314
11
44.7829723
21
58.687254
0
LINE
8
0
10
44.7829723
20
58.687254
11
44.8255653
21
59.0107765
0
LINE
8
0
10
44.8255653
20
59.0107765
11
44.9504414
21
59.312254
0
LINE
8
0
10
44.9504414
20
59.312254
11
45.0753174
21
59.6137314
0
LINE
8
0
10
45.0753174
20
59.6137314
11
45.2739658
21
59.8726139
0
LINE
8
0
10
45.2739658
20
59.8726139
11
45.4726143
21
60.1314964
0
LINE
8
0
10
45.4726143
20
60.1314964
11
45.7314968
21
60.3301449
0
LINE
8
0
10
45.7314968
20
60.3301449
11
45.9903793
21
60.5287933
0
LINE
8
0
10
45.9903793
20
60.5287933
11
46.2918568
21
60.6536694
0
LINE
8
0
10
46.2918568
20
60.6536694
11
46.5933342
21
60.7785454
0
LINE
8
0
10
46.5933342
20
60.7785454
11
46.9168568
21
60.8211384
0
LINE
8
0
10
46.9168568
20
60.8211384
11
47.2403793
21
60.8637314
0
LINE
8
0
10
47.2403793
20
60.8637314
11
47.5639038
21
60.8211384
0
LINE
8
0
10
47.5639038
20
60.8211384
11
47.8874283
21
60.7785454
0
LINE
8
0
10
47.8874283
20
60.7785454
11
48.1889038
21
60.6536694
0
LINE
8
0
10
48.1889038
20
60.6536694
11
48.4903793
21
60.5287933
0
LINE
8
0
10
48.4903793
20
60.5287933
11
48.7492638
21
60.3301449
0
LINE
8
0
10
48.7492638
20
60.3301449
11
49.0081482
21
60.1314964
0
LINE
8
0
10
49.0081482
20
60.1314964
11
49.2067966
21
59.8726139
0
LINE
8
0
10
49.2067966
20
59.8726139
11
49.4054451
21
59.6137314
0
LINE
8
0
10
49.4054451
20
59.6137314
11
49.5303211
21
59.312254
0
LINE
8
0
10
49.5303211
20
59.312254
11
49.6551971
21
59.0107765
0
LINE
8
0
10
49.6551971
20
59.0107765
11
49.6977882
21
58.687254
0
LINE
8
0
10
49.6977882
20
58.687254
11
49.7403793
21
58.3637314
0
LINE
8
0
10
49.7403793
20
58.3637314
11
49.6977882
21
58.0402069
0
LINE
8
0
10
49.6977882
20
58.0402069
11
49.6551971
21
57.7166824
0
LINE
8
0
10
49.6551971
20
57.7166824
11
49.5303211
21
57.4152069
0
LINE
8
0
10
49.5303211
20
57.4152069
11
49.4054451
21
57.1137314
0
LINE
8
0
10
49.4054451
20
57.1137314
11
49.4054451
21
57.1137314
0
LINE
8
0
10
56.9856377
20
66.7785416
11
56.6841621
21
66.6536674
0
LINE
8
0
10
56.6841621
20
66.6536674
11
56.3826866
21
66.5287933
0
LINE
8
0
10
56.3826866
20
66.5287933
11
56.1238022
21
66.3301468
0
LINE
8
0
10
56.1238022
20
66.3301468
11
55.8649178
21
66.1315002
0
LINE
8
0
10
55.8649178
20
66.1315002
11
55.6662693
21
65.8726158
0
LINE
8
0
10
55.6662693
20
65.8726158
11
55.4676208
21
65.6137314
0
LINE
8
0
10
55.4676208
20
65.6137314
11
55.3427467
21
65.3122559
0
LINE
8
0
10
55.3427467
20
65.3122559
11
55.2178726
21
65.0107803
0
LINE
8
0
10
55.2178726
20
65.0107803
11
55.1752796
21
64.6872559
0
LINE
8
0
10
55.1752796
20
64.6872559
11
55.1326866
21
64.3637314
0
LINE
8
0
10
55.1326866
20
64.3637314
11
55.1752796
21
64.0402069
0
LINE
8
0
10
55.1752796
20
64.0402069
11
55.2178726
21
63.7166824
0
LINE
8
0
10
55.2178726
20
63.7166824
11
55.3427467
21
63.4152069
0
LINE
8
0
10
55.3427467
20
63.4152069
11
55.4676208
21
63.1137314
0
LINE
8
0
10
55.4676208
20
63.1137314
11
55.6662693
21
62.854847
0
LINE
8
0
10
55.6662693
20
62.854847
11
55.8649178
21
62.5959625
0
LINE
8
0
10
55.8649178
20
62.5959625
11
56.1238022
21
62.3973141
0
LINE
8
0
10
56.1238022
20
62.3973141
11
56.3826866
21
62.1986656
0
LINE
8
0
10
56.3826866
20
62.1986656
11
56.6841621
21
62.0737915
0
LINE
8
0
10
56.6841621
20
62.0737915
11
56.9856377
21
61.9489174
0
LINE
8
0
10
56.9856377
20
61.9489174
11
57.3091621
21
61.9063244
0
LINE
8
0
10
57.3091621
20
61.9063244
11
57.6326866
21
61.8637314
0
LINE
8
0
10
57.6326866
20
61.8637314
11
57.9562092
21
61.9063244
0
LINE
8
0
10
57.9562092
20
61.9063244
11
58.2797318
21
61.9489174
0
LINE
8
0
10
58.2797318
20
61.9489174
11
58.5812092
21
62.0737915
0
LINE
8
0
10
58.5812092
20
62.0737915
11
58.8826866
21
62.1986656
0
LINE
8
0
10
58.8826866
20
62.1986656
11
59.1415691
21
62.3973141
0
LINE
8
0
10
59.1415691
20
62.3973141
11
59.4004517
21
62.5959625
0
LINE
8
0
10
59.4004517
20
62.5959625
11
59.5991001
21
62.854847
0
LINE
8
0
10
59.5991001
20
62.854847
11
59.7977486
21
63.1137314
0
LINE
8
0
10
59.7977486
20
63.1137314
11
59.9226246
21
63.4152069
0
LINE
8
0
10
59.9226246
20
63.4152069
11
60.0475006
21
63.7166824
0
LINE
8
0
10
60.0475006
20
63.7166824
11
60.0900936
21
64.0402069
0
LINE
8
0
10
60.0900936
20
64.0402069
11
60.1326866
21
64.3637314
0
LINE
8
0
10
60.1326866
20
64.3637314
11
60.0900936
21
64.6872559
0
LINE
8
0
10
60.0900936
20
64.6872559
11
60.0475006
21
65.0107803
0
LINE
8
0
10
60.0475006
20
65.0107803
11
59.9226246
21
65.3122559
0
LINE
8
0
10
59.9226246
20
65.3122559
11
59.7977486
21
65.6137314
0
LINE
8
0
10
59.7977486
20
65.6137314
11
59.5991001
21
65.8726158
0
LINE
8
0
10
59.5991001
20
65.8726158
11
59.4004517
21
66.1315002
0
LINE
8
0
10
59.4004517
20
66.1315002
11
59.1415691
21
66.3301468
0
LINE
8
0
10
59.1415691
20
66.3301468
11
58.8826866
21
66.5287933
0
LINE
8
0
10
58.8826866
20
66.5287933
11
58.5812092
21
66.6536674
0
LINE
8
0
10
58.5812092
20
66.6536674
11
58.2797318
21
66.7785416
0
LINE
8
0
10
58.2797318
20
66.7785416
11
57.9562092
21
66.8211365
0
LINE
8
0
10
57.9562092
20
66.8211365
11
57.6326866
21
66.8637314
0
LINE
8
0
10
57.6326866
20
66.8637314
11
57.3091621
21
66.8211365
0
LINE
8
0
10
57.3091621
20
66.8211365
11
56.9856377
21
66.7785416
0
LINE
8
0
10
56.9856377
20
66.7785416
11
56.9856377
21
66.7785416
0
LINE
8
0
10
-16.9369068
20
68.5058289
11
-16.6471939
21
68.7454987
0
LINE
8
0
10
-16.6471939
20
68.7454987
11
-16.357481
21
68.9851685
0
LINE
8
0
10
-16.357481
20
68.9851685
11
-16.0172658
21
69.1452637
0
LINE
8
0
10
-16.0172658
20
69.1452637
11
-15.6770506
21
69.3053589
0
LINE
8
0
10
-15.6770506
20
69.3053589
11
-15.3077111
21
69.3758125
0
LINE
8
0
10
-15.3077111
20
69.3758125
11
-14.9383717
21
69.4462662
0
LINE
8
0
10
-14.9383717
20
69.4462662
11
-14.5631137
21
69.422657
0
LINE
8
0
10
-14.5631137
20
69.422657
11
-14.1878557
21
69.3990479
0
LINE
8
0
10
-14.1878557
20
69.3990479
11
-13.8302588
21
69.2828598
0
LINE
8
0
10
-13.8302588
20
69.2828598
11
-13.472662
21
69.1666718
0
LINE
8
0
10
-13.472662
20
69.1666718
11
-13.1551952
21
68.9651985
0
LINE
8
0
10
-13.1551952
20
68.9651985
11
-12.8377285
21
68.7637253
0
LINE
8
0
10
-12.8377285
20
68.7637253
11
-12.580339
21
68.4896355
0
LINE
8
0
10
-12.580339
20
68.4896355
11
-12.3229494
21
68.2155457
0
LINE
8
0
10
-12.3229494
20
68.2155457
11
-12.1418099
21
67.886055
0
LINE
8
0
10
-12.1418099
20
67.886055
11
-11.9606705
21
67.5565643
0
LINE
8
0
10
-11.9606705
20
67.5565643
11
-11.8671632
21
67.1923752
0
LINE
8
0
10
-11.8671632
20
67.1923752
11
-11.7736559
21
66.828186
0
LINE
8
0
10
-11.7736559
20
66.828186
11
-11.7736559
21
66.4521866
0
LINE
8
0
10
-11.7736559
20
66.4521866
11
-11.7736559
21
66.0761871
0
LINE
8
0
10
-11.7736559
20
66.0761871
11
-11.8671632
21
65.7120018
0
LINE
8
0
10
-11.8671632
20
65.7120018
11
-11.9606705
21
65.3478165
0
LINE
8
0
10
-11.9606705
20
65.3478165
11
-12.1418099
21
65.0183258
0
LINE
8
0
10
-12.1418099
20
65.0183258
11
-12.3229494
21
64.6888351
0
LINE
8
0
10
-12.3229494
20
64.6888351
11
-12.580339
21
64.4147415
0
LINE
8
0
10
-12.580339
20
64.4147415
11
-12.8377285
21
64.1406479
0
LINE
8
0
10
-12.8377285
20
64.1406479
11
-13.1551952
21
63.9391766
0
LINE
8
0
10
-13.1551952
20
63.9391766
11
-13.472662
21
63.7377052
0
LINE
8
0
10
-13.472662
20
63.7377052
11
-13.8302588
21
63.6215153
0
LINE
8
0
10
-13.8302588
20
63.6215153
11
-14.1878557
21
63.5053253
0
LINE
8
0
10
-14.1878557
20
63.5053253
11
-14.5631137
21
63.4817162
0
LINE
8
0
10
-14.5631137
20
63.4817162
11
-14.9383717
21
63.458107
0
LINE
8
0
10
-14.9383717
20
63.458107
11
-15.3077111
21
63.5285625
0
LINE
8
0
10
-15.3077111
20
63.5285625
11
-15.6770506
21
63.5990181
0
LINE
8
0
10
-15.6770506
20
63.5990181
11
-16.0172658
21
63.7591114
0
LINE
8
0
10
-16.0172658
20
63.7591114
11
-16.357481
21
63.9192047
0
LINE
8
0
10
-16.357481
20
63.9192047
11
-16.6471939
21
64.1588745
0
LINE
8
0
10
-16.6471939
20
64.1588745
11
-16.9369068
21
64.3985443
0
LINE
8
0
10
-16.9369068
20
64.3985443
11
-17.1579132
21
64.7027359
0
LINE
8
0
10
-17.1579132
20
64.7027359
11
-17.3789196
21
65.0069275
0
LINE
8
0
10
-17.3789196
20
65.0069275
11
-17.5173349
21
65.3565216
0
LINE
8
0
10
-17.5173349
20
65.3565216
11
-17.6557503
21
65.7061157
0
LINE
8
0
10
-17.6557503
20
65.7061157
11
-17.7028751
21
66.0791512
0
LINE
8
0
10
-17.7028751
20
66.0791512
11
-17.75
21
66.4521866
0
LINE
8
0
10
-17.75
20
66.4521866
11
-17.7028751
21
66.825222
0
LINE
8
0
10
-17.7028751
20
66.825222
11
-17.6557503
21
67.1982574
0
LINE
8
0
10
-17.6557503
20
67.1982574
11
-17.5173349
21
67.5478516
0
LINE
8
0
10
-17.5173349
20
67.5478516
11
-17.3789196
21
67.8974457
0
LINE
8
0
10
-17.3789196
20
67.8974457
11
-17.1579132
21
68.2016373
0
LINE
8
0
10
-17.1579132
20
68.2016373
11
-16.9369068
21
68.5058289
0
LINE
8
0
10
-16.9369068
20
68.5058289
11
-16.9369068
21
68.5058289
0
LINE
8
0
10
23.0630932
20
68.5058289
11
23.3528061
21
68.7454987
0
LINE
8
0
10
23.3528061
20
68.7454987
11
23.642519
21
68.9851685
0
LINE
8
0
10
23.642519
20
68.9851685
11
23.9827337
21
69.1452637
0
LINE
8
0
10
23.9827337
20
69.1452637
11
24.3229485
21
69.3053589
0
LINE
8
0
10
24.3229485
20
69.3053589
11
24.6922884
21
69.3758125
0
LINE
8
0
10
24.6922884
20
69.3758125
11
25.0616283
21
69.4462662
0
LINE
8
0
10
25.0616283
20
69.4462662
11
25.4368858
21
69.422657
0
LINE
8
0
10
25.4368858
20
69.422657
11
25.8121433
21
69.3990479
0
LINE
8
0
10
25.8121433
20
69.3990479
11
26.1697407
21
69.2828598
0
LINE
8
0
10
26.1697407
20
69.2828598
11
26.527338
21
69.1666718
0
LINE
8
0
10
26.527338
20
69.1666718
11
26.8448048
21
68.9651985
0
LINE
8
0
10
26.8448048
20
68.9651985
11
27.1622715
21
68.7637253
0
LINE
8
0
10
27.1622715
20
68.7637253
11
27.4196615
21
68.4896355
0
LINE
8
0
10
27.4196615
20
68.4896355
11
27.6770515
21
68.2155457
0
LINE
8
0
10
27.6770515
20
68.2155457
11
27.8581905
21
67.886055
0
LINE
8
0
10
27.8581905
20
67.886055
11
28.0393295
21
67.5565643
0
LINE
8
0
10
28.0393295
20
67.5565643
11
28.1328363
21
67.1923752
0
LINE
8
0
10
28.1328363
20
67.1923752
11
28.2263432
21
66.828186
0
LINE
8
0
10
28.2263432
20
66.828186
11
28.2263432
21
66.4521866
0
LINE
8
0
10
28.2263432
20
66.4521866
11
28.2263432
21
66.0761871
0
LINE
8
0
10
28.2263432
20
66.0761871
11
28.1328363
21
65.7120018
0
LINE
8
0
10
28.1328363
20
65.7120018
11
28.0393295
21
65.3478165
0
LINE
8
0
10
28.0393295
20
65.3478165
11
27.8581905
21
65.0183258
0
LINE
8
0
10
27.8581905
20
65.0183258
11
27.6770515
21
64.6888351
0
LINE
8
0
10
27.6770515
20
64.6888351
11
27.4196615
21
64.4147415
0
LINE
8
0
10
27.4196615
20
64.4147415
11
27.1622715
21
64.1406479
0
LINE
8
0
10
27.1622715
20
64.1406479
11
26.8448048
21
63.9391766
0
LINE
8
0
10
26.8448048
20
63.9391766
11
26.527338
21
63.7377052
0
LINE
8
0
10
26.527338
20
63.7377052
11
26.1697407
21
63.6215153
0
LINE
8
0
10
26.1697407
20
63.6215153
11
25.8121433
21
63.5053253
0
LINE
8
0
10
25.8121433
20
63.5053253
11
25.4368858
21
63.4817162
0
LINE
8
0
10
25.4368858
20
63.4817162
11
25.0616283
21
63.458107
0
LINE
8
0
10
25.0616283
20
63.458107
11
24.6922884
21
63.5285625
0
LINE
8
0
10
24.6922884
20
63.5285625
11
24.3229485
21
63.5990181
0
LINE
8
0
10
24.3229485
20
63.5990181
11
23.9827337
21
63.7591114
0
LINE
8
0
10
23.9827337
20
63.7591114
11
23.642519
21
63.9192047
0
LINE
8
0
10
23.642519
20
63.9192047
11
23.3528061
21
64.1588745
0
LINE
8
0
10
23.3528061
20
64.1588745
11
23.0630932
21
64.3985443
0
LINE
8
0
10
23.0630932
20
64.3985443
11
22.8420868
21
64.7027359
0
LINE
8
0
10
22.8420868
20
64.7027359
11
22.6210804
21
65.0069275
0
LINE
8
0
10
22.6210804
20
65.0069275
11
22.4826651
21
65.3565216
0
LINE
8
0
10
22.4826651
20
65.3565216
11
22.3442497
21
65.7061157
0
LINE
8
0
10
22.3442497
20
65.7061157
11
22.2971249
21
66.0791512
0
LINE
8
0
10
22.2971249
20
66.0791512
11
22.25
21
66.4521866
0
LINE
8
0
10
22.25
20
66.4521866
11
22.2971249
21
66.825222
0
LINE
8
0
10
22.2971249
20
66.825222
11
22.3442497
21
67.1982574
0
LINE
8
0
10
22.3442497
20
67.1982574
11
22.4826651
21
67.5478516
0
LINE
8
0
10
22.4826651
20
67.5478516
11
22.6210804
21
67.8974457
0
LINE
8
0
10
22.6210804
20
67.8974457
11
22.8420868
21
68.2016373
0
LINE
8
0
10
22.8420868
20
68.2016373
11
23.0630932
21
68.5058289
0
LINE
8
0
10
23.0630932
20
68.5058289
11
23.0630932
21
68.5058289
0
LINE
8
0
10
-47.7797318
20
66.7785416
11
-48.0812092
21
66.6536674
0
LINE
8
0
10
-48.0812092
20
66.6536674
11
-48.3826866
21
66.5287933
0
LINE
8
0
10
-48.3826866
20
66.5287933
11
-48.6415691
21
66.3301468
0
LINE
8
0
10
-48.6415691
20
66.3301468
11
-48.9004517
21
66.1315002
0
LINE
8
0
10
-48.9004517
20
66.1315002
11
-49.0991001
21
65.8726158
0
LINE
8
0
10
-49.0991001
20
65.8726158
11
-49.2977486
21
65.6137314
0
LINE
8
0
10
-49.2977486
20
65.6137314
11
-49.4226246
21
65.3122559
0
LINE
8
0
10
-49.4226246
20
65.3122559
11
-49.5475006
21
65.0107803
0
LINE
8
0
10
-49.5475006
20
65.0107803
11
-49.5900936
21
64.6872559
0
LINE
8
0
10
-49.5900936
20
64.6872559
11
-49.6326866
21
64.3637314
0
LINE
8
0
10
-49.6326866
20
64.3637314
11
-49.5900936
21
64.0402069
0
LINE
8
0
10
-49.5900936
20
64.0402069
11
-49.5475006
21
63.7166824
0
LINE
8
0
10
-49.5475006
20
63.7166824
11
-49.4226246
21
63.4152069
0
LINE
8
0
10
-49.4226246
20
63.4152069
11
-49.2977486
21
63.1137314
0
LINE
8
0
10
-49.2977486
20
63.1137314
11
-49.0991001
21
62.854847
0
LINE
8
0
10
-49.0991001
20
62.854847
11
-48.9004517
21
62.5959625
0
LINE
8
0
10
-48.9004517
20
62.5959625
11
-48.6415691
21
62.3973141
0
LINE
8
0
10
-48.6415691
20
62.3973141
11
-48.3826866
21
62.1986656
0
LINE
8
0
10
-48.3826866
20
62.1986656
11
-48.0812092
21
62.0737915
0
LINE
8
0
10
-48.0812092
20
62.0737915
11
-47.7797318
21
61.9489174
0
LINE
8
0
10
-47.7797318
20
61.9489174
11
-47.4562092
21
61.9063244
0
LINE
8
0
10
-47.4562092
20
61.9063244
11
-47.1326866
21
61.8637314
0
LINE
8
0
10
-47.1326866
20
61.8637314
11
-46.8091621
21
61.9063244
0
LINE
8
0
10
-46.8091621
20
61.9063244
11
-46.4856377
21
61.9489174
0
LINE
8
0
10
-46.4856377
20
61.9489174
11
-46.1841621
21
62.0737915
0
LINE
8
0
10
-46.1841621
20
62.0737915
11
-45.8826866
21
62.1986656
0
LINE
8
0
10
-45.8826866
20
62.1986656
11
-45.6238022
21
62.3973141
0
LINE
8
0
10
-45.6238022
20
62.3973141
11
-45.3649178
21
62.5959625
0
LINE
8
0
10
-45.3649178
20
62.5959625
11
-45.1662693
21
62.854847
0
LINE
8
0
10
-45.1662693
20
62.854847
11
-44.9676208
21
63.1137314
0
LINE
8
0
10
-44.9676208
20
63.1137314
11
-44.8427467
21
63.4152069
0
LINE
8
0
10
-44.8427467
20
63.4152069
11
-44.7178726
21
63.7166824
0
LINE
8
0
10
-44.7178726
20
63.7166824
11
-44.6752796
21
64.0402069
0
LINE
8
0
10
-44.6752796
20
64.0402069
11
-44.6326866
21
64.3637314
0
LINE
8
0
10
-44.6326866
20
64.3637314
11
-44.6752796
21
64.6872559
0
LINE
8
0
10
-44.6752796
20
64.6872559
11
-44.7178726
21
65.0107803
0
LINE
8
0
10
-44.7178726
20
65.0107803
11
-44.8427467
21
65.3122559
0
LINE
8
0
10
-44.8427467
20
65.3122559
11
-44.9676208
21
65.6137314
0
LINE
8
0
10
-44.9676208
20
65.6137314
11
-45.1662693
21
65.8726158
0
LINE
8
0
10
-45.1662693
20
65.8726158
11
-45.3649178
21
66.1315002
0
LINE
8
0
10
-45.3649178
20
66.1315002
11
-45.6238022
21
66.3301468
0
LINE
8
0
10
-45.6238022
20
66.3301468
11
-45.8826866
21
66.5287933
0
LINE
8
0
10
-45.8826866
20
66.5287933
11
-46.1841621
21
66.6536674
0
LINE
8
0
10
-46.1841621
20
66.6536674
11
-46.4856377
21
66.7785416
0
LINE
8
0
10
-46.4856377
20
66.7785416
11
-46.8091621
21
66.8211365
0
LINE
8
0
10
-46.8091621
20
66.8211365
11
-47.1326866
21
66.8637314
0
LINE
8
0
10
-47.1326866
20
66.8637314
11
-47.4562092
21
66.8211365
0
LINE
8
0
10
-47.4562092
20
66.8211365
11
-47.7797318
21
66.7785416
0
LINE
8
0
10
-47.7797318
20
66.7785416
11
-47.7797318
21
66.7785416
0
LINE
8
0
10
61.75
20
83.9521866
11
42.75
21
83.9521866
0
LINE
8
0
10
42.75
20
83.9521866
11
23.75
21
83.9521866
0
LINE
8
0
10
23.75
20
83.9521866
11
23.75
21
98.2021866
0
LINE
8
0
10
23.75
20
98.2021866
11
23.75
21
101.452187
0
LINE
8
0
10
23.75
20
101.452187
11
20.75
21
101.452187
0
LINE
8
0
10
20.75
20
101.452187
11
19.75
21
101.452187
0
LINE
8
0
10
19.75
20
101.452187
11
19.75
21
99.9521866
0
LINE
8
0
10
19.75
20
99.9521866
11
19.75
21
75.9521866
0
LINE
8
0
10
19.75
20
75.9521866
11
19.75
21
48.9521866
0
LINE
8
0
10
19.75
20
48.9521866
11
30.25
21
48.9521866
0
LINE
8
0
10
30.25
20
48.9521866
11
61.75
21
48.9521866
0
LINE
8
0
10
61.75
20
48.9521866
11
66.75
21
53.9521866
0
LINE
8
0
10
66.75
20
53.9521866
11
71.75
21
58.9521866
0
LINE
8
0
10
71.75
20
58.9521866
11
71.75
21
66.4521866
0
LINE
8
0
10
71.75
20
66.4521866
11
71.75
21
73.9521866
0
LINE
8
0
10
71.75
20
73.9521866
11
66.75
21
78.9521866
0
LINE
8
0
10
66.75
20
78.9521866
11
61.75
21
83.9521866
0
LINE
8
0
10
61.75
20
83.9521866
11
61.75
21
83.9521866
0
LINE
8
0
10
-10.25
20
104.452187
11
-13.25
21
104.452187
0
LINE
8
0
10
-13.25
20
104.452187
11
-13.25
21
109.452188
0
LINE
8
0
10
-13.25
20
109.452188
11
-13.25
21
128.952194
0
LINE
8
0
10
-13.25
20
128.952194
11
-10.25
21
128.952194
0
LINE
8
0
10
-10.25
20
128.952194
11
-9.25
21
128.952194
0
LINE
8
0
10
-9.25
20
128.952194
11
-9.25
21
115.95219
0
LINE
8
0
10
-9.25
20
115.95219
11
-9.25
21
105.952187
0
LINE
8
0
10
-9.25
20
105.952187
11
-9.25
21
104.452187
0
LINE
8
0
10
-9.25
20
104.452187
11
-10.25
21
104.452187
0
LINE
8
0
10
-10.25
20
104.452187
11
-10.25
21
104.452187
0
LINE
8
0
10
-19.75
20
48.9521866
11
-51.25
21
48.9521866
0
LINE
8
0
10
-51.25
20
48.9521866
11
-56.25
21
53.9521866
0
LINE
8
0
10
-56.25
20
53.9521866
11
-61.25
21
58.9521866
0
LINE
8
0
10
-61.25
20
58.9521866
11
-61.25
21
66.4521866
0
LINE
8
0
10
-61.25
20
66.4521866
11
-61.25
21
73.9521866
0
LINE
8
0
10
-61.25
20
73.9521866
11
-56.25
21
78.9521866
0
LINE
8
0
10
-56.25
20
78.9521866
11
-51.25
21
83.9521866
0
LINE
8
0
10
-51.25
20
83.9521866
11
-32.25
21
83.9521866
0
LINE
8
0
10
-32.25
20
83.9521866
11
-13.25
21
83.9521866
0
LINE
8
0
10
-13.25
20
83.9521866
11
-13.25
21
98.2021866
0
LINE
8
0
10
-13.25
20
98.2021866
11
-13.25
21
101.452187
0
LINE
8
0
10
-13.25
20
101.452187
11
-12.25
21
101.452187
0
LINE
8
0
10
-12.25
20
101.452187
11
-9.25
21
101.452187
0
LINE
8
0
10
-9.25
20
101.452187
11
-9.25
21
99.9521866
0
LINE
8
0
10
-9.25
20
99.9521866
11
-9.25
21
75.9521866
0
LINE
8
0
10
-9.25
20
75.9521866
11
-9.25
21
48.9521866
0
LINE
8
0
10
-9.25
20
48.9521866
11
-19.75
21
48.9521866
0
LINE
8
0
10
-19.75
20
48.9521866
11
-19.75
21
48.9521866
0
LINE
8
0
10
23.75
20
104.452187
11
23.75
21
109.452188
0
LINE
8
0
10
23.75
20
109.452188
11
23.75
21
128.952194
0
LINE
8
0
10
23.75
20
128.952194
11
20.75
21
128.952194
0
LINE
8
0
10
20.75
20
128.952194
11
19.75
21
128.952194
0
LINE
8
0
10
19.75
20
128.952194
11
19.75
21
115.95219
0
LINE
8
0
10
19.75
20
115.95219
11
19.75
21
105.952187
0
LINE
8
0
10
19.75
20
105.952187
11
19.75
21
104.452187
0
LINE
8
0
10
19.75
20
104.452187
11
22.75
21
104.452187
0
LINE
8
0
10
22.75
20
104.452187
11
23.75
21
104.452187
0
LINE
8
0
10
23.75
20
104.452187
11
23.75
21
104.452187
0
ENDSEC
0
EOF
