0
SECTION
2
ENTITIES
0
LINE
8
0
10
-39.1551971
20
59.0107765
11
-39.013671
21
59.3524509
0
LINE
8
0
10
-39.013671
20
59.3524509
11
-38.9054451
21
59.6137314
0
LINE
8
0
10
-38.9054451
20
59.6137314
11
-38.6803102
21
59.9071316
0
LINE
8
0
10
-38.6803102
20
59.9071316
11
-38.5081482
21
60.1314964
0
LINE
8
0
10
-38.5081482
20
60.1314964
11
-38.2147458
21
60.3566313
0
LINE
8
0
10
-38.2147458
20
60.3566313
11
-37.9903793
21
60.5287933
0
LINE
8
0
10
-37.9903793
20
60.5287933
11
-37.6487071
21
60.6703195
0
LINE
8
0
10
-37.6487071
20
60.6703195
11
-37.3874283
21
60.7785454
0
LINE
8
0
10
-37.3874283
20
60.7785454
11
-37.0207672
21
60.8268174
0
LINE
8
0
10
-37.0207672
20
60.8268174
11
-36.7403793
21
60.8637314
0
LINE
8
0
10
-36.7403793
20
60.8637314
11
-36.3737204
21
60.8154593
0
LINE
8
0
10
-36.3737204
20
60.8154593
11
-36.0933342
21
60.7785454
0
LINE
8
0
10
-36.0933342
20
60.7785454
11
-35.7516598
21
60.6370192
0
LINE
8
0
10
-35.7516598
20
60.6370192
11
-35.4903793
21
60.5287933
0
LINE
8
0
10
-35.4903793
20
60.5287933
11
-35.1969791
21
60.3036584
0
LINE
8
0
10
-35.1969791
20
60.3036584
11
-34.9726143
21
60.1314964
0
LINE
8
0
10
-34.9726143
20
60.1314964
11
-34.7474794
21
59.8380962
0
LINE
8
0
10
-34.7474794
20
59.8380962
11
-34.5753174
21
59.6137314
0
LINE
8
0
10
-34.5753174
20
59.6137314
11
-34.4337912
21
59.272057
0
LINE
8
0
10
-34.4337912
20
59.272057
11
-34.3255653
21
59.0107765
0
LINE
8
0
10
-34.3255653
20
59.0107765
11
-34.2772933
21
58.6441176
0
LINE
8
0
10
-34.2772933
20
58.6441176
11
-34.2403793
21
58.3637314
0
LINE
8
0
10
-34.2403793
20
58.3637314
11
-34.2886514
21
57.9970703
0
LINE
8
0
10
-34.2886514
20
57.9970703
11
-34.3255653
21
57.7166824
0
LINE
8
0
10
-34.3255653
20
57.7166824
11
-34.4670915
21
57.3750102
0
LINE
8
0
10
-34.4670915
20
57.3750102
11
-34.5753174
21
57.1137314
0
LINE
8
0
10
-34.5753174
20
57.1137314
11
-34.8004523
21
56.820329
0
LINE
8
0
10
-34.8004523
20
56.820329
11
-34.9726143
21
56.5959625
0
LINE
8
0
10
-34.9726143
20
56.5959625
11
-35.2660145
21
56.3708276
0
LINE
8
0
10
-35.2660145
20
56.3708276
11
-35.4903793
21
56.1986656
0
LINE
8
0
10
-35.4903793
20
56.1986656
11
-35.8320538
21
56.0571416
0
LINE
8
0
10
-35.8320538
20
56.0571416
11
-36.0933342
21
55.9489174
0
LINE
8
0
10
-36.0933342
20
55.9489174
11
-36.4599931
21
55.9006453
0
LINE
8
0
10
-36.4599931
20
55.9006453
11
-36.7403793
21
55.8637314
0
LINE
8
0
10
-36.7403793
20
55.8637314
11
-37.1070404
21
55.9120035
0
LINE
8
0
10
-37.1070404
20
55.9120035
11
-37.3874283
21
55.9489174
0
LINE
8
0
10
-37.3874283
20
55.9489174
11
-37.7291005
21
56.0904414
0
LINE
8
0
10
-37.7291005
20
56.0904414
11
-37.9903793
21
56.1986656
0
LINE
8
0
10
-37.9903793
20
56.1986656
11
-38.2837817
21
56.4238005
0
LINE
8
0
10
-38.2837817
20
56.4238005
11
-38.5081482
21
56.5959625
0
LINE
8
0
10
-38.5081482
20
56.5959625
11
-38.7332831
21
56.8893649
0
LINE
8
0
10
-38.7332831
20
56.8893649
11
-38.9054451
21
57.1137314
0
LINE
8
0
10
-38.9054451
20
57.1137314
11
-39.0469713
21
57.4554036
0
LINE
8
0
10
-39.0469713
20
57.4554036
11
-39.1551971
21
57.7166824
0
LINE
8
0
10
-39.1551971
20
57.7166824
11
-39.2034671
21
58.0833435
0
LINE
8
0
10
-39.2034671
20
58.0833435
11
-39.2403793
21
58.3637314
0
LINE
8
0
10
-39.2403793
20
58.3637314
11
-39.1921094
21
58.7303903
0
LINE
8
0
10
-39.1921094
20
58.7303903
11
-39.1551971
21
59.0107765
0
LINE
8
0
10
-39.1551971
20
59.0107765
11
-39.1551971
21
59.0107765
0
LINE
8
0
10
49.4054451
20
57.1137314
11
49.1803102
21
56.820329
0
LINE
8
0
10
49.1803102
20
56.820329
11
49.0081482
21
56.5959625
0
LINE
8
0
10
49.0081482
20
56.5959625
11
48.7147458
21
56.3708276
0
LINE
8
0
10
48.7147458
20
56.3708276
11
48.4903793
21
56.1986656
0
LINE
8
0
10
48.4903793
20
56.1986656
11
48.1487071
21
56.0571416
0
LINE
8
0
10
48.1487071
20
56.0571416
11
47.8874283
21
55.9489174
0
LINE
8
0
10
47.8874283
20
55.9489174
11
47.5207672
21
55.9006453
0
LINE
8
0
10
47.5207672
20
55.9006453
11
47.2403793
21
55.8637314
0
LINE
8
0
10
47.2403793
20
55.8637314
11
46.8737204
21
55.9120035
0
LINE
8
0
10
46.8737204
20
55.9120035
11
46.5933342
21
55.9489174
0
LINE
8
0
10
46.5933342
20
55.9489174
11
46.2516598
21
56.0904414
0
LINE
8
0
10
46.2516598
20
56.0904414
11
45.9903793
21
56.1986656
0
LINE
8
0
10
45.9903793
20
56.1986656
11
45.6969791
21
56.4238005
0
LINE
8
0
10
45.6969791
20
56.4238005
11
45.4726143
21
56.5959625
0
LINE
8
0
10
45.4726143
20
56.5959625
11
45.2474794
21
56.8893649
0
LINE
8
0
10
45.2474794
20
56.8893649
11
45.0753174
21
57.1137314
0
LINE
8
0
10
45.0753174
20
57.1137314
11
44.9337912
21
57.4554036
0
LINE
8
0
10
44.9337912
20
57.4554036
11
44.8255653
21
57.7166824
0
LINE
8
0
10
44.8255653
20
57.7166824
11
44.7772933
21
58.0833435
0
LINE
8
0
10
44.7772933
20
58.0833435
11
44.7403793
21
58.3637314
0
LINE
8
0
10
44.7403793
20
58.3637314
11
44.7886514
21
58.7303903
0
LINE
8
0
10
44.7886514
20
58.7303903
11
44.8255653
21
59.0107765
0
LINE
8
0
10
44.8255653
20
59.0107765
11
44.9670915
21
59.3524509
0
LINE
8
0
10
44.9670915
20
59.3524509
11
45.0753174
21
59.6137314
0
LINE
8
0
10
45.0753174
20
59.6137314
11
45.3004523
21
59.9071316
0
LINE
8
0
10
45.3004523
20
59.9071316
11
45.4726143
21
60.1314964
0
LINE
8
0
10
45.4726143
20
60.1314964
11
45.7660145
21
60.3566313
0
LINE
8
0
10
45.7660145
20
60.3566313
11
45.9903793
21
60.5287933
0
LINE
8
0
10
45.9903793
20
60.5287933
11
46.3320538
21
60.6703195
0
LINE
8
0
10
46.3320538
20
60.6703195
11
46.5933342
21
60.7785454
0
LINE
8
0
10
46.5933342
20
60.7785454
11
46.9599931
21
60.8268174
0
LINE
8
0
10
46.9599931
20
60.8268174
11
47.2403793
21
60.8637314
0
LINE
8
0
10
47.2403793
20
60.8637314
11
47.6070404
21
60.8154593
0
LINE
8
0
10
47.6070404
20
60.8154593
11
47.8874283
21
60.7785454
0
LINE
8
0
10
47.8874283
20
60.7785454
11
48.2291005
21
60.6370192
0
LINE
8
0
10
48.2291005
20
60.6370192
11
48.4903793
21
60.5287933
0
LINE
8
0
10
48.4903793
20
60.5287933
11
48.7837817
21
60.3036584
0
LINE
8
0
10
48.7837817
20
60.3036584
11
49.0081482
21
60.1314964
0
LINE
8
0
10
49.0081482
20
60.1314964
11
49.2332831
21
59.8380962
0
LINE
8
0
10
49.2332831
20
59.8380962
11
49.4054451
21
59.6137314
0
LINE
8
0
10
49.4054451
20
59.6137314
11
49.5469713
21
59.272057
0
LINE
8
0
10
49.5469713
20
59.272057
11
49.6551971
21
59.0107765
0
LINE
8
0
10
49.6551971
20
59.0107765
11
49.7034671
21
58.6441176
0
LINE
8
0
10
49.7034671
20
58.6441176
11
49.7403793
21
58.3637314
0
LINE
8
0
10
49.7403793
20
58.3637314
11
49.6921094
21
57.9970703
0
LINE
8
0
10
49.6921094
20
57.9970703
11
49.6551971
21
57.7166824
0
LINE
8
0
10
49.6551971
20
57.7166824
11
49.513671
21
57.3750102
0
LINE
8
0
10
49.513671
20
57.3750102
11
49.4054451
21
57.1137314
0
LINE
8
0
10
49.4054451
20
57.1137314
11
49.4054451
21
57.1137314
0
LINE
8
0
10
-49.0726137
20
65.9071337
11
-49.2977486
21
65.6137314
0
LINE
8
0
10
-49.2977486
20
65.6137314
11
-49.4059745
21
65.3524526
0
LINE
8
0
10
-49.4059745
20
65.3524526
11
-49.5475006
21
65.0107803
0
LINE
8
0
10
-49.5475006
20
65.0107803
11
-49.5844145
21
64.7303925
0
LINE
8
0
10
-49.5844145
20
64.7303925
11
-49.6326866
21
64.3637314
0
LINE
8
0
10
-49.6326866
20
64.3637314
11
-49.5957727
21
64.0833435
0
LINE
8
0
10
-49.5957727
20
64.0833435
11
-49.5475006
21
63.7166824
0
LINE
8
0
10
-49.5475006
20
63.7166824
11
-49.4392747
21
63.4554036
0
LINE
8
0
10
-49.4392747
20
63.4554036
11
-49.2977486
21
63.1137314
0
LINE
8
0
10
-49.2977486
20
63.1137314
11
-49.1255866
21
62.8893649
0
LINE
8
0
10
-49.1255866
20
62.8893649
11
-48.9004517
21
62.5959625
0
LINE
8
0
10
-48.9004517
20
62.5959625
11
-48.6760868
21
62.4238005
0
LINE
8
0
10
-48.6760868
20
62.4238005
11
-48.3826866
21
62.1986656
0
LINE
8
0
10
-48.3826866
20
62.1986656
11
-48.1214062
21
62.0904414
0
LINE
8
0
10
-48.1214062
20
62.0904414
11
-47.7797318
21
61.9489174
0
LINE
8
0
10
-47.7797318
20
61.9489174
11
-47.4993455
21
61.9120035
0
LINE
8
0
10
-47.4993455
20
61.9120035
11
-47.1326866
21
61.8637314
0
LINE
8
0
10
-47.1326866
20
61.8637314
11
-46.8522987
21
61.9006453
0
LINE
8
0
10
-46.8522987
20
61.9006453
11
-46.4856377
21
61.9489174
0
LINE
8
0
10
-46.4856377
20
61.9489174
11
-46.2243589
21
62.0571416
0
LINE
8
0
10
-46.2243589
20
62.0571416
11
-45.8826866
21
62.1986656
0
LINE
8
0
10
-45.8826866
20
62.1986656
11
-45.6583201
21
62.3708276
0
LINE
8
0
10
-45.6583201
20
62.3708276
11
-45.3649178
21
62.5959625
0
LINE
8
0
10
-45.3649178
20
62.5959625
11
-45.1927558
21
62.820329
0
LINE
8
0
10
-45.1927558
20
62.820329
11
-44.9676208
21
63.1137314
0
LINE
8
0
10
-44.9676208
20
63.1137314
11
-44.8593966
21
63.3750102
0
LINE
8
0
10
-44.8593966
20
63.3750102
11
-44.7178726
21
63.7166824
0
LINE
8
0
10
-44.7178726
20
63.7166824
11
-44.6809587
21
63.9970703
0
LINE
8
0
10
-44.6809587
20
63.9970703
11
-44.6326866
21
64.3637314
0
LINE
8
0
10
-44.6326866
20
64.3637314
11
-44.6696006
21
64.6441193
0
LINE
8
0
10
-44.6696006
20
64.6441193
11
-44.7178726
21
65.0107803
0
LINE
8
0
10
-44.7178726
20
65.0107803
11
-44.8260969
21
65.2720591
0
LINE
8
0
10
-44.8260969
20
65.2720591
11
-44.9676208
21
65.6137314
0
LINE
8
0
10
-44.9676208
20
65.6137314
11
-45.1397828
21
65.8380979
0
LINE
8
0
10
-45.1397828
20
65.8380979
11
-45.3649178
21
66.1315002
0
LINE
8
0
10
-45.3649178
20
66.1315002
11
-45.5892843
21
66.3036606
0
LINE
8
0
10
-45.5892843
20
66.3036606
11
-45.8826866
21
66.5287933
0
LINE
8
0
10
-45.8826866
20
66.5287933
11
-46.1439654
21
66.6370176
0
LINE
8
0
10
-46.1439654
20
66.6370176
11
-46.4856377
21
66.7785416
0
LINE
8
0
10
-46.4856377
20
66.7785416
11
-46.7660255
21
66.8154572
0
LINE
8
0
10
-46.7660255
20
66.8154572
11
-47.1326866
21
66.8637314
0
LINE
8
0
10
-47.1326866
20
66.8637314
11
-47.4130728
21
66.8268158
0
LINE
8
0
10
-47.4130728
20
66.8268158
11
-47.7797318
21
66.7785416
0
LINE
8
0
10
-47.7797318
20
66.7785416
11
-48.0410122
21
66.6703173
0
LINE
8
0
10
-48.0410122
20
66.6703173
11
-48.3826866
21
66.5287933
0
LINE
8
0
10
-48.3826866
20
66.5287933
11
-48.6070515
21
66.356633
0
LINE
8
0
10
-48.6070515
20
66.356633
11
-48.9004517
21
66.1315002
0
LINE
8
0
10
-48.9004517
20
66.1315002
11
-49.0726137
21
65.9071337
0
LINE
8
0
10
-49.0726137
20
65.9071337
11
-49.0726137
21
65.9071337
0
LINE
8
0
10
56.9856377
20
66.7785416
11
57.3522987
21
66.8268158
0
LINE
8
0
10
57.3522987
20
66.8268158
11
57.6326866
21
66.8637314
0
LINE
8
0
10
57.6326866
20
66.8637314
11
57.9993455
21
66.8154572
0
LINE
8
0
10
57.9993455
20
66.8154572
11
58.2797318
21
66.7785416
0
LINE
8
0
10
58.2797318
20
66.7785416
11
58.6214062
21
66.6370176
0
LINE
8
0
10
58.6214062
20
66.6370176
11
58.8826866
21
66.5287933
0
LINE
8
0
10
58.8826866
20
66.5287933
11
59.1760868
21
66.3036606
0
LINE
8
0
10
59.1760868
20
66.3036606
11
59.4004517
21
66.1315002
0
LINE
8
0
10
59.4004517
20
66.1315002
11
59.6255866
21
65.8380979
0
LINE
8
0
10
59.6255866
20
65.8380979
11
59.7977486
21
65.6137314
0
LINE
8
0
10
59.7977486
20
65.6137314
11
59.9392747
21
65.2720591
0
LINE
8
0
10
59.9392747
20
65.2720591
11
60.0475006
21
65.0107803
0
LINE
8
0
10
60.0475006
20
65.0107803
11
60.0957727
21
64.6441193
0
LINE
8
0
10
60.0957727
20
64.6441193
11
60.1326866
21
64.3637314
0
LINE
8
0
10
60.1326866
20
64.3637314
11
60.0844145
21
63.9970703
0
LINE
8
0
10
60.0844145
20
63.9970703
11
60.0475006
21
63.7166824
0
LINE
8
0
10
60.0475006
20
63.7166824
11
59.9059745
21
63.3750102
0
LINE
8
0
10
59.9059745
20
63.3750102
11
59.7977486
21
63.1137314
0
LINE
8
0
10
59.7977486
20
63.1137314
11
59.5726137
21
62.820329
0
LINE
8
0
10
59.5726137
20
62.820329
11
59.4004517
21
62.5959625
0
LINE
8
0
10
59.4004517
20
62.5959625
11
59.1070515
21
62.3708276
0
LINE
8
0
10
59.1070515
20
62.3708276
11
58.8826866
21
62.1986656
0
LINE
8
0
10
58.8826866
20
62.1986656
11
58.5410122
21
62.0571416
0
LINE
8
0
10
58.5410122
20
62.0571416
11
58.2797318
21
61.9489174
0
LINE
8
0
10
58.2797318
20
61.9489174
11
57.9130728
21
61.9006453
0
LINE
8
0
10
57.9130728
20
61.9006453
11
57.6326866
21
61.8637314
0
LINE
8
0
10
57.6326866
20
61.8637314
11
57.2660255
21
61.9120035
0
LINE
8
0
10
57.2660255
20
61.9120035
11
56.9856377
21
61.9489174
0
LINE
8
0
10
56.9856377
20
61.9489174
11
56.6439654
21
62.0904414
0
LINE
8
0
10
56.6439654
20
62.0904414
11
56.3826866
21
62.1986656
0
LINE
8
0
10
56.3826866
20
62.1986656
11
56.0892843
21
62.4238005
0
LINE
8
0
10
56.0892843
20
62.4238005
11
55.8649178
21
62.5959625
0
LINE
8
0
10
55.8649178
20
62.5959625
11
55.6397828
21
62.8893649
0
LINE
8
0
10
55.6397828
20
62.8893649
11
55.4676208
21
63.1137314
0
LINE
8
0
10
55.4676208
20
63.1137314
11
55.3260969
21
63.4554036
0
LINE
8
0
10
55.3260969
20
63.4554036
11
55.2178726
21
63.7166824
0
LINE
8
0
10
55.2178726
20
63.7166824
11
55.1696006
21
64.0833435
0
LINE
8
0
10
55.1696006
20
64.0833435
11
55.1326866
21
64.3637314
0
LINE
8
0
10
55.1326866
20
64.3637314
11
55.1809587
21
64.7303925
0
LINE
8
0
10
55.1809587
20
64.7303925
11
55.2178726
21
65.0107803
0
LINE
8
0
10
55.2178726
20
65.0107803
11
55.3593966
21
65.3524526
0
LINE
8
0
10
55.3593966
20
65.3524526
11
55.4676208
21
65.6137314
0
LINE
8
0
10
55.4676208
20
65.6137314
11
55.6927558
21
65.9071337
0
LINE
8
0
10
55.6927558
20
65.9071337
11
55.8649178
21
66.1315002
0
LINE
8
0
10
55.8649178
20
66.1315002
11
56.1583201
21
66.356633
0
LINE
8
0
10
56.1583201
20
66.356633
11
56.3826866
21
66.5287933
0
LINE
8
0
10
56.3826866
20
66.5287933
11
56.7243589
21
66.6703173
0
LINE
8
0
10
56.7243589
20
66.6703173
11
56.9856377
21
66.7785416
0
LINE
8
0
10
56.9856377
20
66.7785416
11
56.9856377
21
66.7785416
0
LINE
8
0
10
-16.9369068
20
68.5058289
11
-17.1284457
21
68.2421961
0
LINE
8
0
10
-17.1284457
20
68.2421961
11
-17.3789196
21
67.8974457
0
LINE
8
0
10
-17.3789196
20
67.8974457
11
-17.4988796
21
67.5944641
0
LINE
8
0
10
-17.4988796
20
67.5944641
11
-17.6557503
21
67.1982574
0
LINE
8
0
10
-17.6557503
20
67.1982574
11
-17.6965918
21
66.8749601
0
LINE
8
0
10
-17.6965918
20
66.8749601
11
-17.75
21
66.4521866
0
LINE
8
0
10
-17.75
20
66.4521866
11
-17.7091585
21
66.1288892
0
LINE
8
0
10
-17.7091585
20
66.1288892
11
-17.6557503
21
65.7061157
0
LINE
8
0
10
-17.6557503
20
65.7061157
11
-17.5357903
21
65.4031342
0
LINE
8
0
10
-17.5357903
20
65.4031342
11
-17.3789196
21
65.0069275
0
LINE
8
0
10
-17.3789196
20
65.0069275
11
-17.1873807
21
64.7432948
0
LINE
8
0
10
-17.1873807
20
64.7432948
11
-16.9369068
21
64.3985443
0
LINE
8
0
10
-16.9369068
20
64.3985443
11
-16.6858223
21
64.1908305
0
LINE
8
0
10
-16.6858223
20
64.1908305
11
-16.357481
21
63.9192047
0
LINE
8
0
10
-16.357481
20
63.9192047
11
-16.0626278
21
63.7804572
0
LINE
8
0
10
-16.0626278
20
63.7804572
11
-15.6770506
21
63.5990181
0
LINE
8
0
10
-15.6770506
20
63.5990181
11
-15.3569564
21
63.5379566
0
LINE
8
0
10
-15.3569564
20
63.5379566
11
-14.9383717
21
63.458107
0
LINE
8
0
10
-14.9383717
20
63.458107
11
-14.6131481
21
63.4785683
0
LINE
8
0
10
-14.6131481
20
63.4785683
11
-14.1878557
21
63.5053253
0
LINE
8
0
10
-14.1878557
20
63.5053253
11
-13.8779384
21
63.6060233
0
LINE
8
0
10
-13.8779384
20
63.6060233
11
-13.472662
21
63.7377052
0
LINE
8
0
10
-13.472662
20
63.7377052
11
-13.1975241
21
63.9123137
0
LINE
8
0
10
-13.1975241
20
63.9123137
11
-12.8377285
21
64.1406479
0
LINE
8
0
10
-12.8377285
20
64.1406479
11
-12.6146576
21
64.3781957
0
LINE
8
0
10
-12.6146576
20
64.3781957
11
-12.3229494
21
64.6888351
0
LINE
8
0
10
-12.3229494
20
64.6888351
11
-12.1659619
21
64.9743937
0
LINE
8
0
10
-12.1659619
20
64.9743937
11
-11.9606705
21
65.3478165
0
LINE
8
0
10
-11.9606705
20
65.3478165
11
-11.8796308
21
65.6634438
0
LINE
8
0
10
-11.8796308
20
65.6634438
11
-11.7736559
21
66.0761871
0
LINE
8
0
10
-11.7736559
20
66.0761871
11
-11.7736559
21
66.4020533
0
LINE
8
0
10
-11.7736559
20
66.4020533
11
-11.7736559
21
66.828186
0
LINE
8
0
10
-11.7736559
20
66.828186
11
-11.8546955
21
67.1438166
0
LINE
8
0
10
-11.8546955
20
67.1438166
11
-11.9606705
21
67.5565643
0
LINE
8
0
10
-11.9606705
20
67.5565643
11
-12.117658
21
67.8421229
0
LINE
8
0
10
-12.117658
20
67.8421229
11
-12.3229494
21
68.2155457
0
LINE
8
0
10
-12.3229494
20
68.2155457
11
-12.5460203
21
68.4530902
0
LINE
8
0
10
-12.5460203
20
68.4530902
11
-12.8377285
21
68.7637253
0
LINE
8
0
10
-12.8377285
20
68.7637253
11
-13.1128663
21
68.9383354
0
LINE
8
0
10
-13.1128663
20
68.9383354
11
-13.472662
21
69.1666718
0
LINE
8
0
10
-13.472662
20
69.1666718
11
-13.7825793
21
69.2673681
0
LINE
8
0
10
-13.7825793
20
69.2673681
11
-14.1878557
21
69.3990479
0
LINE
8
0
10
-14.1878557
20
69.3990479
11
-14.5130793
21
69.4195091
0
LINE
8
0
10
-14.5130793
20
69.4195091
11
-14.9383717
21
69.4462662
0
LINE
8
0
10
-14.9383717
20
69.4462662
11
-15.2584659
21
69.3852063
0
LINE
8
0
10
-15.2584659
20
69.3852063
11
-15.6770506
21
69.3053589
0
LINE
8
0
10
-15.6770506
20
69.3053589
11
-15.9719038
21
69.1666097
0
LINE
8
0
10
-15.9719038
20
69.1666097
11
-16.357481
21
68.9851685
0
LINE
8
0
10
-16.357481
20
68.9851685
11
-16.6085655
21
68.7774546
0
LINE
8
0
10
-16.6085655
20
68.7774546
11
-16.9369068
21
68.5058289
0
LINE
8
0
10
-16.9369068
20
68.5058289
11
-16.9369068
21
68.5058289
0
LINE
8
0
10
23.0630932
20
68.5058289
11
22.8715543
21
68.2421961
0
LINE
8
0
10
22.8715543
20
68.2421961
11
22.6210804
21
67.8974457
0
LINE
8
0
10
22.6210804
20
67.8974457
11
22.5011204
21
67.5944641
0
LINE
8
0
10
22.5011204
20
67.5944641
11
22.3442497
21
67.1982574
0
LINE
8
0
10
22.3442497
20
67.1982574
11
22.3034082
21
66.8749601
0
LINE
8
0
10
22.3034082
20
66.8749601
11
22.25
21
66.4521866
0
LINE
8
0
10
22.25
20
66.4521866
11
22.2908415
21
66.1288892
0
LINE
8
0
10
22.2908415
20
66.1288892
11
22.3442497
21
65.7061157
0
LINE
8
0
10
22.3442497
20
65.7061157
11
22.4642097
21
65.4031342
0
LINE
8
0
10
22.4642097
20
65.4031342
11
22.6210804
21
65.0069275
0
LINE
8
0
10
22.6210804
20
65.0069275
11
22.8126193
21
64.7432948
0
LINE
8
0
10
22.8126193
20
64.7432948
11
23.0630932
21
64.3985443
0
LINE
8
0
10
23.0630932
20
64.3985443
11
23.3141777
21
64.1908305
0
LINE
8
0
10
23.3141777
20
64.1908305
11
23.642519
21
63.9192047
0
LINE
8
0
10
23.642519
20
63.9192047
11
23.9373718
21
63.7804572
0
LINE
8
0
10
23.9373718
20
63.7804572
11
24.3229485
21
63.5990181
0
LINE
8
0
10
24.3229485
20
63.5990181
11
24.6430431
21
63.5379566
0
LINE
8
0
10
24.6430431
20
63.5379566
11
25.0616283
21
63.458107
0
LINE
8
0
10
25.0616283
20
63.458107
11
25.3868515
21
63.4785683
0
LINE
8
0
10
25.3868515
20
63.4785683
11
25.8121433
21
63.5053253
0
LINE
8
0
10
25.8121433
20
63.5053253
11
26.122061
21
63.6060233
0
LINE
8
0
10
26.122061
20
63.6060233
11
26.527338
21
63.7377052
0
LINE
8
0
10
26.527338
20
63.7377052
11
26.8024759
21
63.9123137
0
LINE
8
0
10
26.8024759
20
63.9123137
11
27.1622715
21
64.1406479
0
LINE
8
0
10
27.1622715
20
64.1406479
11
27.3853429
21
64.3781957
0
LINE
8
0
10
27.3853429
20
64.3781957
11
27.6770515
21
64.6888351
0
LINE
8
0
10
27.6770515
20
64.6888351
11
27.8340387
21
64.9743937
0
LINE
8
0
10
27.8340387
20
64.9743937
11
28.0393295
21
65.3478165
0
LINE
8
0
10
28.0393295
20
65.3478165
11
28.1203688
21
65.6634438
0
LINE
8
0
10
28.1203688
20
65.6634438
11
28.2263432
21
66.0761871
0
LINE
8
0
10
28.2263432
20
66.0761871
11
28.2263432
21
66.4020533
0
LINE
8
0
10
28.2263432
20
66.4020533
11
28.2263432
21
66.828186
0
LINE
8
0
10
28.2263432
20
66.828186
11
28.1453039
21
67.1438166
0
LINE
8
0
10
28.1453039
20
67.1438166
11
28.0393295
21
67.5565643
0
LINE
8
0
10
28.0393295
20
67.5565643
11
27.8823424
21
67.8421229
0
LINE
8
0
10
27.8823424
20
67.8421229
11
27.6770515
21
68.2155457
0
LINE
8
0
10
27.6770515
20
68.2155457
11
27.4539802
21
68.4530902
0
LINE
8
0
10
27.4539802
20
68.4530902
11
27.1622715
21
68.7637253
0
LINE
8
0
10
27.1622715
20
68.7637253
11
26.8871337
21
68.9383354
0
LINE
8
0
10
26.8871337
20
68.9383354
11
26.527338
21
69.1666718
0
LINE
8
0
10
26.527338
20
69.1666718
11
26.2174203
21
69.2673681
0
LINE
8
0
10
26.2174203
20
69.2673681
11
25.8121433
21
69.3990479
0
LINE
8
0
10
25.8121433
20
69.3990479
11
25.4869202
21
69.4195091
0
LINE
8
0
10
25.4869202
20
69.4195091
11
25.0616283
21
69.4462662
0
LINE
8
0
10
25.0616283
20
69.4462662
11
24.7415337
21
69.3852063
0
LINE
8
0
10
24.7415337
20
69.3852063
11
24.3229485
21
69.3053589
0
LINE
8
0
10
24.3229485
20
69.3053589
11
24.0280957
21
69.1666097
0
LINE
8
0
10
24.0280957
20
69.1666097
11
23.642519
21
68.9851685
0
LINE
8
0
10
23.642519
20
68.9851685
11
23.3914345
21
68.7774546
0
LINE
8
0
10
23.3914345
20
68.7774546
11
23.0630932
21
68.5058289
0
LINE
8
0
10
23.0630932
20
68.5058289
11
23.0630932
21
68.5058289
0
LINE
8
0
10
34.45
20
48.9521866
11
61.75
21
48.9521866
0
LINE
8
0
10
61.75
20
48.9521866
11
67.4166667
21
54.6188533
0
LINE
8
0
10
67.4166667
20
54.6188533
11
71.75
21
58.9521866
0
LINE
8
0
10
71.75
20
58.9521866
11
71.75
21
65.4521866
0
LINE
8
0
10
71.75
20
65.4521866
11
71.75
21
73.9521866
0
LINE
8
0
10
71.75
20
73.9521866
11
66.0833333
21
79.6188533
0
LINE
8
0
10
66.0833333
20
79.6188533
11
61.75
21
83.9521866
0
LINE
8
0
10
61.75
20
83.9521866
11
45.2833333
21
83.9521866
0
LINE
8
0
10
45.2833333
20
83.9521866
11
23.75
21
83.9521866
0
LINE
8
0
10
23.75
20
83.9521866
11
23.75
21
100.102187
0
LINE
8
0
10
23.75
20
100.102187
11
23.75
21
102.052187
0
LINE
8
0
10
23.75
20
102.052187
11
20.35
21
102.052187
0
LINE
8
0
10
20.35
20
102.052187
11
19.75
21
102.052187
0
LINE
8
0
10
19.75
20
102.052187
11
19.75
21
101.152187
0
LINE
8
0
10
19.75
20
101.152187
11
19.75
21
86.7521866
0
LINE
8
0
10
19.75
20
86.7521866
11
19.75
21
48.9521866
0
LINE
8
0
10
19.75
20
48.9521866
11
34.45
21
48.9521866
0
LINE
8
0
10
34.45
20
48.9521866
11
34.45
21
48.9521866
0
LINE
8
0
10
-61.25
20
58.9521866
11
-61.25
21
67.4521866
0
LINE
8
0
10
-61.25
20
67.4521866
11
-61.25
21
73.9521866
0
LINE
8
0
10
-61.25
20
73.9521866
11
-56.9166667
21
78.2855199
0
LINE
8
0
10
-56.9166667
20
78.2855199
11
-51.25
21
83.9521866
0
LINE
8
0
10
-51.25
20
83.9521866
11
-29.7166667
21
83.9521866
0
LINE
8
0
10
-29.7166667
20
83.9521866
11
-13.25
21
83.9521866
0
LINE
8
0
10
-13.25
20
83.9521866
11
-13.25
21
100.102187
0
LINE
8
0
10
-13.25
20
100.102187
11
-13.25
21
102.052187
0
LINE
8
0
10
-13.25
20
102.052187
11
-12.65
21
102.052187
0
LINE
8
0
10
-12.65
20
102.052187
11
-9.25
21
102.052187
0
LINE
8
0
10
-9.25
20
102.052187
11
-9.25
21
101.152187
0
LINE
8
0
10
-9.25
20
101.152187
11
-9.25
21
86.7521866
0
LINE
8
0
10
-9.25
20
86.7521866
11
-9.25
21
48.9521866
0
LINE
8
0
10
-9.25
20
48.9521866
11
-23.95
21
48.9521866
0
LINE
8
0
10
-23.95
20
48.9521866
11
-51.25
21
48.9521866
0
LINE
8
0
10
-51.25
20
48.9521866
11
-55.5833333
21
53.2855199
0
LINE
8
0
10
-55.5833333
20
53.2855199
11
-61.25
21
58.9521866
0
LINE
8
0
10
-61.25
20
58.9521866
11
-61.25
21
58.9521866
0
LINE
8
0
10
-13.25
20
106.852188
11
-13.25
21
103.852187
0
LINE
8
0
10
-13.25
20
103.852187
11
-9.85
21
103.852187
0
LINE
8
0
10
-9.85
20
103.852187
11
-9.25
21
103.852187
0
LINE
8
0
10
-9.25
20
103.852187
11
-9.25
21
104.752187
0
LINE
8
0
10
-9.25
20
104.752187
11
-9.25
21
110.752189
0
LINE
8
0
10
-9.25
20
110.752189
11
-9.25
21
128.952194
0
LINE
8
0
10
-9.25
20
128.952194
11
-10.65
21
128.952194
0
LINE
8
0
10
-10.65
20
128.952194
11
-13.25
21
128.952194
0
LINE
8
0
10
-13.25
20
128.952194
11
-13.25
21
106.852188
0
LINE
8
0
10
-13.25
20
106.852188
11
-13.25
21
106.852188
0
LINE
8
0
10
23.75
20
106.852188
11
23.75
21
103.852187
0
LINE
8
0
10
23.75
20
103.852187
11
23.15
21
103.852187
0
LINE
8
0
10
23.15
20
103.852187
11
19.75
21
103.852187
0
LINE
8
0
10
19.75
20
103.852187
11
19.75
21
104.752187
0
LINE
8
0
10
19.75
20
104.752187
11
19.75
21
110.752189
0
LINE
8
0
10
19.75
20
110.752189
11
19.75
21
128.952194
0
LINE
8
0
10
19.75
20
128.952194
11
21.15
21
128.952194
0
LINE
8
0
10
21.15
20
128.952194
11
23.75
21
128.952194
0
LINE
8
0
10
23.75
20
128.952194
11
23.75
21
106.852188
0
LINE
8
0
10
23.75
20
106.852188
11
23.75
21
106.852188
0
ENDSEC
0
EOF
