  0
SECTION
  2
BLOCKS
  0
ENDSEC
  0
SECTION
  2
ENTITIES
  0
LINE
  8
0
 10
-107.935
 20
-0.0716496
 11
-107.749
 21
-6.33945
  0
LINE
  8
0
 10
-107.749
 20
-6.33945
 11
-107.199
 21
-12.5859
  0
LINE
  8
0
 10
-107.199
 20
-12.5859
 11
-106.287
 21
-18.7898
  0
LINE
  8
0
 10
-106.287
 20
-18.7898
 11
-105.017
 21
-24.9303
  0
LINE
  8
0
 10
-105.017
 20
-24.9303
 11
-103.392
 21
-30.9867
  0
LINE
  8
0
 10
-103.392
 20
-30.9867
 11
-101.418
 21
-36.9384
  0
LINE
  8
0
 10
-101.418
 20
-36.9384
 11
-99.1015
 21
-42.7656
  0
LINE
  8
0
 10
-99.1015
 20
-42.7656
 11
-96.4508
 21
-48.4483
  0
LINE
  8
0
 10
-96.4508
 20
-48.4483
 11
-93.4746
 21
-53.9676
  0
LINE
  8
0
 10
-93.4746
 20
-53.9676
 11
-90.1829
 21
-59.3047
  0
LINE
  8
0
 10
-90.1829
 20
-59.3047
 11
-86.5868
 21
-64.4416
  0
LINE
  8
0
 10
-86.5868
 20
-64.4416
 11
-82.6985
 21
-69.3611
  0
LINE
  8
0
 10
-82.6985
 20
-69.3611
 11
-78.531
 21
-74.0464
  0
LINE
  8
0
 10
-78.531
 20
-74.0464
 11
-74.0986
 21
-78.4819
  0
LINE
  8
0
 10
-74.0986
 20
-78.4819
 11
-69.416
 21
-82.6524
  0
LINE
  8
0
 10
-69.416
 20
-82.6524
 11
-64.4991
 21
-86.544
  0
LINE
  8
0
 10
-64.4991
 20
-86.544
 11
-59.3645
 21
-90.1435
  0
LINE
  8
0
 10
-59.3645
 20
-90.1435
 11
-54.0296
 21
-93.4388
  0
LINE
  8
0
 10
-54.0296
 20
-93.4388
 11
-48.5123
 21
-96.4186
  0
LINE
  8
0
 10
-48.5123
 20
-96.4186
 11
-42.8313
 21
-99.0731
  0
LINE
  8
0
 10
-42.8313
 20
-99.0731
 11
-37.0058
 21
-101.393
  0
LINE
  8
0
 10
-37.0058
 20
-101.393
 11
-31.0553
 21
-103.371
  0
LINE
  8
0
 10
-31.0553
 20
-103.371
 11
-25
 21
-105
  0
LINE
  8
0
 10
-25
 20
-105
 11
25
 21
-105
  0
LINE
  8
0
 10
25
 20
-105
 11
31.0553
 21
-103.371
  0
LINE
  8
0
 10
31.0553
 20
-103.371
 11
37.0058
 21
-101.393
  0
LINE
  8
0
 10
37.0058
 20
-101.393
 11
42.8313
 21
-99.0731
  0
LINE
  8
0
 10
42.8313
 20
-99.0731
 11
48.5123
 21
-96.4186
  0
LINE
  8
0
 10
48.5123
 20
-96.4186
 11
54.0296
 21
-93.4388
  0
LINE
  8
0
 10
54.0296
 20
-93.4388
 11
59.3645
 21
-90.1435
  0
LINE
  8
0
 10
59.3645
 20
-90.1435
 11
64.4991
 21
-86.544
  0
LINE
  8
0
 10
64.4991
 20
-86.544
 11
69.416
 21
-82.6524
  0
LINE
  8
0
 10
69.416
 20
-82.6524
 11
74.0986
 21
-78.4819
  0
LINE
  8
0
 10
74.0986
 20
-78.4819
 11
78.531
 21
-74.0464
  0
LINE
  8
0
 10
78.531
 20
-74.0464
 11
82.6985
 21
-69.3611
  0
LINE
  8
0
 10
82.6985
 20
-69.3611
 11
86.5868
 21
-64.4416
  0
LINE
  8
0
 10
86.5868
 20
-64.4416
 11
90.1829
 21
-59.3047
  0
LINE
  8
0
 10
90.1829
 20
-59.3047
 11
93.4746
 21
-53.9676
  0
LINE
  8
0
 10
93.4746
 20
-53.9676
 11
96.4508
 21
-48.4483
  0
LINE
  8
0
 10
96.4508
 20
-48.4483
 11
99.1015
 21
-42.7656
  0
LINE
  8
0
 10
99.1015
 20
-42.7656
 11
101.418
 21
-36.9384
  0
LINE
  8
0
 10
101.418
 20
-36.9384
 11
103.392
 21
-30.9867
  0
LINE
  8
0
 10
103.392
 20
-30.9867
 11
105.017
 21
-24.9303
  0
LINE
  8
0
 10
105.017
 20
-24.9303
 11
106.287
 21
-18.7898
  0
LINE
  8
0
 10
106.287
 20
-18.7898
 11
107.199
 21
-12.5859
  0
LINE
  8
0
 10
107.199
 20
-12.5859
 11
107.749
 21
-6.33945
  0
LINE
  8
0
 10
107.749
 20
-6.33945
 11
107.935
 21
-0.0716496
  0
LINE
  8
0
 10
107.935
 20
-0.0716496
 11
107.757
 21
6.19639
  0
LINE
  8
0
 10
107.757
 20
6.19639
 11
107.215
 21
12.4435
  0
LINE
  8
0
 10
107.215
 20
12.4435
 11
106.312
 21
18.6487
  0
LINE
  8
0
 10
106.312
 20
18.6487
 11
105.05
 21
24.7908
  0
LINE
  8
0
 10
105.05
 20
24.7908
 11
103.433
 21
30.8494
  0
LINE
  8
0
 10
103.433
 20
30.8494
 11
78.4327
 21
74.1506
  0
LINE
  8
0
 10
78.4327
 20
74.1506
 11
73.9943
 21
78.5802
  0
LINE
  8
0
 10
73.9943
 20
78.5802
 11
69.3062
 21
82.7445
  0
LINE
  8
0
 10
69.3062
 20
82.7445
 11
64.3841
 21
86.6296
  0
LINE
  8
0
 10
64.3841
 20
86.6296
 11
59.2448
 21
90.2222
  0
LINE
  8
0
 10
59.2448
 20
90.2222
 11
53.9055
 21
93.5104
  0
LINE
  8
0
 10
53.9055
 20
93.5104
 11
48.3843
 21
96.483
  0
LINE
  8
0
 10
48.3843
 20
96.483
 11
42.6998
 21
99.1299
  0
LINE
  8
0
 10
42.6998
 20
99.1299
 11
36.8711
 21
101.442
  0
LINE
  8
0
 10
36.8711
 20
101.442
 11
30.918
 21
103.412
  0
LINE
  8
0
 10
30.918
 20
103.412
 11
24.8606
 21
105.033
  0
LINE
  8
0
 10
24.8606
 20
105.033
 11
18.7192
 21
106.3
  0
LINE
  8
0
 10
18.7192
 20
106.3
 11
12.5147
 21
107.207
  0
LINE
  8
0
 10
12.5147
 20
107.207
 11
6.26792
 21
107.753
  0
LINE
  8
0
 10
6.26792
 20
107.753
 11
0
 21
107.935
  0
LINE
  8
0
 10
0
 20
107.935
 11
-6.26792
 21
107.753
  0
LINE
  8
0
 10
-6.26792
 20
107.753
 11
-12.5147
 21
107.207
  0
LINE
  8
0
 10
-12.5147
 20
107.207
 11
-18.7192
 21
106.3
  0
LINE
  8
0
 10
-18.7192
 20
106.3
 11
-24.8606
 21
105.033
  0
LINE
  8
0
 10
-24.8606
 20
105.033
 11
-30.918
 21
103.412
  0
LINE
  8
0
 10
-30.918
 20
103.412
 11
-36.8711
 21
101.442
  0
LINE
  8
0
 10
-36.8711
 20
101.442
 11
-42.6998
 21
99.1299
  0
LINE
  8
0
 10
-42.6998
 20
99.1299
 11
-48.3843
 21
96.483
  0
LINE
  8
0
 10
-48.3843
 20
96.483
 11
-53.9055
 21
93.5104
  0
LINE
  8
0
 10
-53.9055
 20
93.5104
 11
-59.2448
 21
90.2222
  0
LINE
  8
0
 10
-59.2448
 20
90.2222
 11
-64.3841
 21
86.6296
  0
LINE
  8
0
 10
-64.3841
 20
86.6296
 11
-69.3062
 21
82.7445
  0
LINE
  8
0
 10
-69.3062
 20
82.7445
 11
-73.9943
 21
78.5802
  0
LINE
  8
0
 10
-73.9943
 20
78.5802
 11
-78.4327
 21
74.1506
  0
LINE
  8
0
 10
-78.4327
 20
74.1506
 11
-103.433
 21
30.8494
  0
LINE
  8
0
 10
-103.433
 20
30.8494
 11
-105.05
 21
24.7908
  0
LINE
  8
0
 10
-105.05
 20
24.7908
 11
-106.312
 21
18.6487
  0
LINE
  8
0
 10
-106.312
 20
18.6487
 11
-107.215
 21
12.4435
  0
LINE
  8
0
 10
-107.215
 20
12.4435
 11
-107.757
 21
6.19639
  0
LINE
  8
0
 10
-107.757
 20
6.19639
 11
-107.935
 21
-0.0716496
  0
LINE
  8
0
 10
-101.75
 20
-20
 11
-101.577
 21
-19.2407
  0
LINE
  8
0
 10
-101.577
 20
-19.2407
 11
-101.091
 21
-18.6318
  0
LINE
  8
0
 10
-101.091
 20
-18.6318
 11
-100.389
 21
-18.2939
  0
LINE
  8
0
 10
-100.389
 20
-18.2939
 11
-99.6106
 21
-18.2939
  0
LINE
  8
0
 10
-99.6106
 20
-18.2939
 11
-98.9089
 21
-18.6318
  0
LINE
  8
0
 10
-98.9089
 20
-18.6318
 11
-98.4233
 21
-19.2407
  0
LINE
  8
0
 10
-98.4233
 20
-19.2407
 11
-98.25
 21
-20
  0
LINE
  8
0
 10
-98.25
 20
-20
 11
-98.4233
 21
-20.7593
  0
LINE
  8
0
 10
-98.4233
 20
-20.7593
 11
-98.9089
 21
-21.3682
  0
LINE
  8
0
 10
-98.9089
 20
-21.3682
 11
-99.6106
 21
-21.7061
  0
LINE
  8
0
 10
-99.6106
 20
-21.7061
 11
-100.389
 21
-21.7061
  0
LINE
  8
0
 10
-100.389
 20
-21.7061
 11
-101.091
 21
-21.3682
  0
LINE
  8
0
 10
-101.091
 20
-21.3682
 11
-101.577
 21
-20.7593
  0
LINE
  8
0
 10
-101.577
 20
-20.7593
 11
-101.75
 21
-20
  0
LINE
  8
0
 10
-101.75
 20
0
 11
-101.577
 21
0.759296
  0
LINE
  8
0
 10
-101.577
 20
0.759296
 11
-101.091
 21
1.36821
  0
LINE
  8
0
 10
-101.091
 20
1.36821
 11
-100.389
 21
1.70612
  0
LINE
  8
0
 10
-100.389
 20
1.70612
 11
-99.6106
 21
1.70612
  0
LINE
  8
0
 10
-99.6106
 20
1.70612
 11
-98.9089
 21
1.36821
  0
LINE
  8
0
 10
-98.9089
 20
1.36821
 11
-98.4233
 21
0.759296
  0
LINE
  8
0
 10
-98.4233
 20
0.759296
 11
-98.25
 21
0
  0
LINE
  8
0
 10
-98.25
 20
0
 11
-98.4233
 21
-0.759296
  0
LINE
  8
0
 10
-98.4233
 20
-0.759296
 11
-98.9089
 21
-1.36821
  0
LINE
  8
0
 10
-98.9089
 20
-1.36821
 11
-99.6106
 21
-1.70612
  0
LINE
  8
0
 10
-99.6106
 20
-1.70612
 11
-100.389
 21
-1.70612
  0
LINE
  8
0
 10
-100.389
 20
-1.70612
 11
-101.091
 21
-1.36821
  0
LINE
  8
0
 10
-101.091
 20
-1.36821
 11
-101.577
 21
-0.759296
  0
LINE
  8
0
 10
-101.577
 20
-0.759296
 11
-101.75
 21
0
  0
LINE
  8
0
 10
-101.75
 20
20
 11
-101.577
 21
20.7593
  0
LINE
  8
0
 10
-101.577
 20
20.7593
 11
-101.091
 21
21.3682
  0
LINE
  8
0
 10
-101.091
 20
21.3682
 11
-100.389
 21
21.7061
  0
LINE
  8
0
 10
-100.389
 20
21.7061
 11
-99.6106
 21
21.7061
  0
LINE
  8
0
 10
-99.6106
 20
21.7061
 11
-98.9089
 21
21.3682
  0
LINE
  8
0
 10
-98.9089
 20
21.3682
 11
-98.4233
 21
20.7593
  0
LINE
  8
0
 10
-98.4233
 20
20.7593
 11
-98.25
 21
20
  0
LINE
  8
0
 10
-98.25
 20
20
 11
-98.4233
 21
19.2407
  0
LINE
  8
0
 10
-98.4233
 20
19.2407
 11
-98.9089
 21
18.6318
  0
LINE
  8
0
 10
-98.9089
 20
18.6318
 11
-99.6106
 21
18.2939
  0
LINE
  8
0
 10
-99.6106
 20
18.2939
 11
-100.389
 21
18.2939
  0
LINE
  8
0
 10
-100.389
 20
18.2939
 11
-101.091
 21
18.6318
  0
LINE
  8
0
 10
-101.091
 20
18.6318
 11
-101.577
 21
19.2407
  0
LINE
  8
0
 10
-101.577
 20
19.2407
 11
-101.75
 21
20
  0
LINE
  8
0
 10
-98.333
 20
32.4187
 11
-98.2748
 21
33.1953
  0
LINE
  8
0
 10
-98.2748
 20
33.1953
 11
-97.8854
 21
33.8698
  0
LINE
  8
0
 10
-97.8854
 20
33.8698
 11
-97.2419
 21
34.3085
  0
LINE
  8
0
 10
-97.2419
 20
34.3085
 11
-96.4718
 21
34.4246
  0
LINE
  8
0
 10
-96.4718
 20
34.4246
 11
-95.7275
 21
34.195
  0
LINE
  8
0
 10
-95.7275
 20
34.195
 11
-95.1566
 21
33.6653
  0
LINE
  8
0
 10
-95.1566
 20
33.6653
 11
-94.8721
 21
32.9403
  0
LINE
  8
0
 10
-94.8721
 20
32.9403
 11
-94.9303
 21
32.1637
  0
LINE
  8
0
 10
-94.9303
 20
32.1637
 11
-95.3197
 21
31.4892
  0
LINE
  8
0
 10
-95.3197
 20
31.4892
 11
-95.9632
 21
31.0505
  0
LINE
  8
0
 10
-95.9632
 20
31.0505
 11
-96.7333
 21
30.9344
  0
LINE
  8
0
 10
-96.7333
 20
30.9344
 11
-97.4775
 21
31.1639
  0
LINE
  8
0
 10
-97.4775
 20
31.1639
 11
-98.0485
 21
31.6937
  0
LINE
  8
0
 10
-98.0485
 20
31.6937
 11
-98.333
 21
32.4187
  0
LINE
  8
0
 10
-88.3525
 20
50
 11
-88.1792
 21
50.7593
  0
LINE
  8
0
 10
-88.1792
 20
50.7593
 11
-87.6936
 21
51.3682
  0
LINE
  8
0
 10
-87.6936
 20
51.3682
 11
-86.992
 21
51.7061
  0
LINE
  8
0
 10
-86.992
 20
51.7061
 11
-86.2131
 21
51.7061
  0
LINE
  8
0
 10
-86.2131
 20
51.7061
 11
-85.5114
 21
51.3682
  0
LINE
  8
0
 10
-85.5114
 20
51.3682
 11
-85.0258
 21
50.7593
  0
LINE
  8
0
 10
-85.0258
 20
50.7593
 11
-84.8525
 21
50
  0
LINE
  8
0
 10
-84.8525
 20
50
 11
-85.0258
 21
49.2407
  0
LINE
  8
0
 10
-85.0258
 20
49.2407
 11
-85.5114
 21
48.6318
  0
LINE
  8
0
 10
-85.5114
 20
48.6318
 11
-86.2131
 21
48.2939
  0
LINE
  8
0
 10
-86.2131
 20
48.2939
 11
-86.992
 21
48.2939
  0
LINE
  8
0
 10
-86.992
 20
48.2939
 11
-87.6936
 21
48.6318
  0
LINE
  8
0
 10
-87.6936
 20
48.6318
 11
-88.1792
 21
49.2407
  0
LINE
  8
0
 10
-88.1792
 20
49.2407
 11
-88.3525
 21
50
  0
LINE
  8
0
 10
-81.75
 20
-60
 11
-81.5767
 21
-59.2407
  0
LINE
  8
0
 10
-81.5767
 20
-59.2407
 11
-81.0911
 21
-58.6318
  0
LINE
  8
0
 10
-81.0911
 20
-58.6318
 11
-80.3894
 21
-58.2939
  0
LINE
  8
0
 10
-80.3894
 20
-58.2939
 11
-79.6106
 21
-58.2939
  0
LINE
  8
0
 10
-79.6106
 20
-58.2939
 11
-78.9089
 21
-58.6318
  0
LINE
  8
0
 10
-78.9089
 20
-58.6318
 11
-78.4233
 21
-59.2407
  0
LINE
  8
0
 10
-78.4233
 20
-59.2407
 11
-78.25
 21
-60
  0
LINE
  8
0
 10
-78.25
 20
-60
 11
-78.4233
 21
-60.7593
  0
LINE
  8
0
 10
-78.4233
 20
-60.7593
 11
-78.9089
 21
-61.3682
  0
LINE
  8
0
 10
-78.9089
 20
-61.3682
 11
-79.6106
 21
-61.7061
  0
LINE
  8
0
 10
-79.6106
 20
-61.7061
 11
-80.3894
 21
-61.7061
  0
LINE
  8
0
 10
-80.3894
 20
-61.7061
 11
-81.0911
 21
-61.3682
  0
LINE
  8
0
 10
-81.0911
 20
-61.3682
 11
-81.5767
 21
-60.7593
  0
LINE
  8
0
 10
-81.5767
 20
-60.7593
 11
-81.75
 21
-60
  0
LINE
  8
0
 10
-81.75
 20
-40
 11
-81.5767
 21
-39.2407
  0
LINE
  8
0
 10
-81.5767
 20
-39.2407
 11
-81.0911
 21
-38.6318
  0
LINE
  8
0
 10
-81.0911
 20
-38.6318
 11
-80.3894
 21
-38.2939
  0
LINE
  8
0
 10
-80.3894
 20
-38.2939
 11
-79.6106
 21
-38.2939
  0
LINE
  8
0
 10
-79.6106
 20
-38.2939
 11
-78.9089
 21
-38.6318
  0
LINE
  8
0
 10
-78.9089
 20
-38.6318
 11
-78.4233
 21
-39.2407
  0
LINE
  8
0
 10
-78.4233
 20
-39.2407
 11
-78.25
 21
-40
  0
LINE
  8
0
 10
-78.25
 20
-40
 11
-78.4233
 21
-40.7593
  0
LINE
  8
0
 10
-78.4233
 20
-40.7593
 11
-78.9089
 21
-41.3682
  0
LINE
  8
0
 10
-78.9089
 20
-41.3682
 11
-79.6106
 21
-41.7061
  0
LINE
  8
0
 10
-79.6106
 20
-41.7061
 11
-80.3894
 21
-41.7061
  0
LINE
  8
0
 10
-80.3894
 20
-41.7061
 11
-81.0911
 21
-41.3682
  0
LINE
  8
0
 10
-81.0911
 20
-41.3682
 11
-81.5767
 21
-40.7593
  0
LINE
  8
0
 10
-81.5767
 20
-40.7593
 11
-81.75
 21
-40
  0
LINE
  8
0
 10
-81.75
 20
-20
 11
-81.5767
 21
-19.2407
  0
LINE
  8
0
 10
-81.5767
 20
-19.2407
 11
-81.0911
 21
-18.6318
  0
LINE
  8
0
 10
-81.0911
 20
-18.6318
 11
-80.3894
 21
-18.2939
  0
LINE
  8
0
 10
-80.3894
 20
-18.2939
 11
-79.6106
 21
-18.2939
  0
LINE
  8
0
 10
-79.6106
 20
-18.2939
 11
-78.9089
 21
-18.6318
  0
LINE
  8
0
 10
-78.9089
 20
-18.6318
 11
-78.4233
 21
-19.2407
  0
LINE
  8
0
 10
-78.4233
 20
-19.2407
 11
-78.25
 21
-20
  0
LINE
  8
0
 10
-78.25
 20
-20
 11
-78.4233
 21
-20.7593
  0
LINE
  8
0
 10
-78.4233
 20
-20.7593
 11
-78.9089
 21
-21.3682
  0
LINE
  8
0
 10
-78.9089
 20
-21.3682
 11
-79.6106
 21
-21.7061
  0
LINE
  8
0
 10
-79.6106
 20
-21.7061
 11
-80.3894
 21
-21.7061
  0
LINE
  8
0
 10
-80.3894
 20
-21.7061
 11
-81.0911
 21
-21.3682
  0
LINE
  8
0
 10
-81.0911
 20
-21.3682
 11
-81.5767
 21
-20.7593
  0
LINE
  8
0
 10
-81.5767
 20
-20.7593
 11
-81.75
 21
-20
  0
LINE
  8
0
 10
-81.75
 20
0
 11
-81.5767
 21
0.759296
  0
LINE
  8
0
 10
-81.5767
 20
0.759296
 11
-81.0911
 21
1.36821
  0
LINE
  8
0
 10
-81.0911
 20
1.36821
 11
-80.3894
 21
1.70612
  0
LINE
  8
0
 10
-80.3894
 20
1.70612
 11
-79.6106
 21
1.70612
  0
LINE
  8
0
 10
-79.6106
 20
1.70612
 11
-78.9089
 21
1.36821
  0
LINE
  8
0
 10
-78.9089
 20
1.36821
 11
-78.4233
 21
0.759296
  0
LINE
  8
0
 10
-78.4233
 20
0.759296
 11
-78.25
 21
0
  0
LINE
  8
0
 10
-78.25
 20
0
 11
-78.4233
 21
-0.759296
  0
LINE
  8
0
 10
-78.4233
 20
-0.759296
 11
-78.9089
 21
-1.36821
  0
LINE
  8
0
 10
-78.9089
 20
-1.36821
 11
-79.6106
 21
-1.70612
  0
LINE
  8
0
 10
-79.6106
 20
-1.70612
 11
-80.3894
 21
-1.70612
  0
LINE
  8
0
 10
-80.3894
 20
-1.70612
 11
-81.0911
 21
-1.36821
  0
LINE
  8
0
 10
-81.0911
 20
-1.36821
 11
-81.5767
 21
-0.759296
  0
LINE
  8
0
 10
-81.5767
 20
-0.759296
 11
-81.75
 21
0
  0
LINE
  8
0
 10
-81.0125
 20
22.4187
 11
-80.9543
 21
23.1953
  0
LINE
  8
0
 10
-80.9543
 20
23.1953
 11
-80.5649
 21
23.8698
  0
LINE
  8
0
 10
-80.5649
 20
23.8698
 11
-79.9214
 21
24.3085
  0
LINE
  8
0
 10
-79.9214
 20
24.3085
 11
-79.1513
 21
24.4246
  0
LINE
  8
0
 10
-79.1513
 20
24.4246
 11
-78.407
 21
24.195
  0
LINE
  8
0
 10
-78.407
 20
24.195
 11
-77.8361
 21
23.6653
  0
LINE
  8
0
 10
-77.8361
 20
23.6653
 11
-77.5516
 21
22.9403
  0
LINE
  8
0
 10
-77.5516
 20
22.9403
 11
-77.6098
 21
22.1637
  0
LINE
  8
0
 10
-77.6098
 20
22.1637
 11
-77.9992
 21
21.4892
  0
LINE
  8
0
 10
-77.9992
 20
21.4892
 11
-78.6427
 21
21.0505
  0
LINE
  8
0
 10
-78.6427
 20
21.0505
 11
-79.4128
 21
20.9344
  0
LINE
  8
0
 10
-79.4128
 20
20.9344
 11
-80.157
 21
21.1639
  0
LINE
  8
0
 10
-80.157
 20
21.1639
 11
-80.728
 21
21.6937
  0
LINE
  8
0
 10
-80.728
 20
21.6937
 11
-81.0125
 21
22.4187
  0
LINE
  8
0
 10
-78.333
 20
67.0597
 11
-78.2748
 21
67.8363
  0
LINE
  8
0
 10
-78.2748
 20
67.8363
 11
-77.8854
 21
68.5108
  0
LINE
  8
0
 10
-77.8854
 20
68.5108
 11
-77.2419
 21
68.9495
  0
LINE
  8
0
 10
-77.2419
 20
68.9495
 11
-76.4718
 21
69.0656
  0
LINE
  8
0
 10
-76.4718
 20
69.0656
 11
-75.7275
 21
68.8361
  0
LINE
  8
0
 10
-75.7275
 20
68.8361
 11
-75.1566
 21
68.3063
  0
LINE
  8
0
 10
-75.1566
 20
68.3063
 11
-74.8721
 21
67.5813
  0
LINE
  8
0
 10
-74.8721
 20
67.5813
 11
-74.9303
 21
66.8047
  0
LINE
  8
0
 10
-74.9303
 20
66.8047
 11
-75.3197
 21
66.1302
  0
LINE
  8
0
 10
-75.3197
 20
66.1302
 11
-75.9632
 21
65.6915
  0
LINE
  8
0
 10
-75.9632
 20
65.6915
 11
-76.7333
 21
65.5754
  0
LINE
  8
0
 10
-76.7333
 20
65.5754
 11
-77.4775
 21
65.805
  0
LINE
  8
0
 10
-77.4775
 20
65.805
 11
-78.0485
 21
66.3347
  0
LINE
  8
0
 10
-78.0485
 20
66.3347
 11
-78.333
 21
67.0597
  0
LINE
  8
0
 10
-71.0125
 20
39.7392
 11
-70.9543
 21
40.5158
  0
LINE
  8
0
 10
-70.9543
 20
40.5158
 11
-70.5649
 21
41.1903
  0
LINE
  8
0
 10
-70.5649
 20
41.1903
 11
-69.9214
 21
41.629
  0
LINE
  8
0
 10
-69.9214
 20
41.629
 11
-69.1513
 21
41.7451
  0
LINE
  8
0
 10
-69.1513
 20
41.7451
 11
-68.407
 21
41.5155
  0
LINE
  8
0
 10
-68.407
 20
41.5155
 11
-67.8361
 21
40.9858
  0
LINE
  8
0
 10
-67.8361
 20
40.9858
 11
-67.5516
 21
40.2608
  0
LINE
  8
0
 10
-67.5516
 20
40.2608
 11
-67.6098
 21
39.4842
  0
LINE
  8
0
 10
-67.6098
 20
39.4842
 11
-67.9992
 21
38.8097
  0
LINE
  8
0
 10
-67.9992
 20
38.8097
 11
-68.6427
 21
38.371
  0
LINE
  8
0
 10
-68.6427
 20
38.371
 11
-69.4128
 21
38.2549
  0
LINE
  8
0
 10
-69.4128
 20
38.2549
 11
-70.157
 21
38.4845
  0
LINE
  8
0
 10
-70.157
 20
38.4845
 11
-70.728
 21
39.0142
  0
LINE
  8
0
 10
-70.728
 20
39.0142
 11
-71.0125
 21
39.7392
  0
LINE
  8
0
 10
-61.75
 20
-80
 11
-61.5767
 21
-79.2407
  0
LINE
  8
0
 10
-61.5767
 20
-79.2407
 11
-61.0911
 21
-78.6318
  0
LINE
  8
0
 10
-61.0911
 20
-78.6318
 11
-60.3894
 21
-78.2939
  0
LINE
  8
0
 10
-60.3894
 20
-78.2939
 11
-59.6106
 21
-78.2939
  0
LINE
  8
0
 10
-59.6106
 20
-78.2939
 11
-58.9089
 21
-78.6318
  0
LINE
  8
0
 10
-58.9089
 20
-78.6318
 11
-58.4233
 21
-79.2407
  0
LINE
  8
0
 10
-58.4233
 20
-79.2407
 11
-58.25
 21
-80
  0
LINE
  8
0
 10
-58.25
 20
-80
 11
-58.4233
 21
-80.7593
  0
LINE
  8
0
 10
-58.4233
 20
-80.7593
 11
-58.9089
 21
-81.3682
  0
LINE
  8
0
 10
-58.9089
 20
-81.3682
 11
-59.6106
 21
-81.7061
  0
LINE
  8
0
 10
-59.6106
 20
-81.7061
 11
-60.3894
 21
-81.7061
  0
LINE
  8
0
 10
-60.3894
 20
-81.7061
 11
-61.0911
 21
-81.3682
  0
LINE
  8
0
 10
-61.0911
 20
-81.3682
 11
-61.5767
 21
-80.7593
  0
LINE
  8
0
 10
-61.5767
 20
-80.7593
 11
-61.75
 21
-80
  0
LINE
  8
0
 10
-61.75
 20
-60
 11
-61.5767
 21
-59.2407
  0
LINE
  8
0
 10
-61.5767
 20
-59.2407
 11
-61.0911
 21
-58.6318
  0
LINE
  8
0
 10
-61.0911
 20
-58.6318
 11
-60.3894
 21
-58.2939
  0
LINE
  8
0
 10
-60.3894
 20
-58.2939
 11
-59.6106
 21
-58.2939
  0
LINE
  8
0
 10
-59.6106
 20
-58.2939
 11
-58.9089
 21
-58.6318
  0
LINE
  8
0
 10
-58.9089
 20
-58.6318
 11
-58.4233
 21
-59.2407
  0
LINE
  8
0
 10
-58.4233
 20
-59.2407
 11
-58.25
 21
-60
  0
LINE
  8
0
 10
-58.25
 20
-60
 11
-58.4233
 21
-60.7593
  0
LINE
  8
0
 10
-58.4233
 20
-60.7593
 11
-58.9089
 21
-61.3682
  0
LINE
  8
0
 10
-58.9089
 20
-61.3682
 11
-59.6106
 21
-61.7061
  0
LINE
  8
0
 10
-59.6106
 20
-61.7061
 11
-60.3894
 21
-61.7061
  0
LINE
  8
0
 10
-60.3894
 20
-61.7061
 11
-61.0911
 21
-61.3682
  0
LINE
  8
0
 10
-61.0911
 20
-61.3682
 11
-61.5767
 21
-60.7593
  0
LINE
  8
0
 10
-61.5767
 20
-60.7593
 11
-61.75
 21
-60
  0
LINE
  8
0
 10
-61.75
 20
-40
 11
-61.5767
 21
-39.2407
  0
LINE
  8
0
 10
-61.5767
 20
-39.2407
 11
-61.0911
 21
-38.6318
  0
LINE
  8
0
 10
-61.0911
 20
-38.6318
 11
-60.3894
 21
-38.2939
  0
LINE
  8
0
 10
-60.3894
 20
-38.2939
 11
-59.6106
 21
-38.2939
  0
LINE
  8
0
 10
-59.6106
 20
-38.2939
 11
-58.9089
 21
-38.6318
  0
LINE
  8
0
 10
-58.9089
 20
-38.6318
 11
-58.4233
 21
-39.2407
  0
LINE
  8
0
 10
-58.4233
 20
-39.2407
 11
-58.25
 21
-40
  0
LINE
  8
0
 10
-58.25
 20
-40
 11
-58.4233
 21
-40.7593
  0
LINE
  8
0
 10
-58.4233
 20
-40.7593
 11
-58.9089
 21
-41.3682
  0
LINE
  8
0
 10
-58.9089
 20
-41.3682
 11
-59.6106
 21
-41.7061
  0
LINE
  8
0
 10
-59.6106
 20
-41.7061
 11
-60.3894
 21
-41.7061
  0
LINE
  8
0
 10
-60.3894
 20
-41.7061
 11
-61.0911
 21
-41.3682
  0
LINE
  8
0
 10
-61.0911
 20
-41.3682
 11
-61.5767
 21
-40.7593
  0
LINE
  8
0
 10
-61.5767
 20
-40.7593
 11
-61.75
 21
-40
  0
LINE
  8
0
 10
-61.75
 20
-20
 11
-61.5767
 21
-19.2407
  0
LINE
  8
0
 10
-61.5767
 20
-19.2407
 11
-61.0911
 21
-18.6318
  0
LINE
  8
0
 10
-61.0911
 20
-18.6318
 11
-60.3894
 21
-18.2939
  0
LINE
  8
0
 10
-60.3894
 20
-18.2939
 11
-59.6106
 21
-18.2939
  0
LINE
  8
0
 10
-59.6106
 20
-18.2939
 11
-58.9089
 21
-18.6318
  0
LINE
  8
0
 10
-58.9089
 20
-18.6318
 11
-58.4233
 21
-19.2407
  0
LINE
  8
0
 10
-58.4233
 20
-19.2407
 11
-58.25
 21
-20
  0
LINE
  8
0
 10
-58.25
 20
-20
 11
-58.4233
 21
-20.7593
  0
LINE
  8
0
 10
-58.4233
 20
-20.7593
 11
-58.9089
 21
-21.3682
  0
LINE
  8
0
 10
-58.9089
 20
-21.3682
 11
-59.6106
 21
-21.7061
  0
LINE
  8
0
 10
-59.6106
 20
-21.7061
 11
-60.3894
 21
-21.7061
  0
LINE
  8
0
 10
-60.3894
 20
-21.7061
 11
-61.0911
 21
-21.3682
  0
LINE
  8
0
 10
-61.0911
 20
-21.3682
 11
-61.5767
 21
-20.7593
  0
LINE
  8
0
 10
-61.5767
 20
-20.7593
 11
-61.75
 21
-20
  0
LINE
  8
0
 10
-61.75
 20
0
 11
-61.5767
 21
0.759296
  0
LINE
  8
0
 10
-61.5767
 20
0.759296
 11
-61.0911
 21
1.36821
  0
LINE
  8
0
 10
-61.0911
 20
1.36821
 11
-60.3894
 21
1.70612
  0
LINE
  8
0
 10
-60.3894
 20
1.70612
 11
-59.6106
 21
1.70612
  0
LINE
  8
0
 10
-59.6106
 20
1.70612
 11
-58.9089
 21
1.36821
  0
LINE
  8
0
 10
-58.9089
 20
1.36821
 11
-58.4233
 21
0.759296
  0
LINE
  8
0
 10
-58.4233
 20
0.759296
 11
-58.25
 21
0
  0
LINE
  8
0
 10
-58.25
 20
0
 11
-58.4233
 21
-0.759296
  0
LINE
  8
0
 10
-58.4233
 20
-0.759296
 11
-58.9089
 21
-1.36821
  0
LINE
  8
0
 10
-58.9089
 20
-1.36821
 11
-59.6106
 21
-1.70612
  0
LINE
  8
0
 10
-59.6106
 20
-1.70612
 11
-60.3894
 21
-1.70612
  0
LINE
  8
0
 10
-60.3894
 20
-1.70612
 11
-61.0911
 21
-1.36821
  0
LINE
  8
0
 10
-61.0911
 20
-1.36821
 11
-61.5767
 21
-0.759296
  0
LINE
  8
0
 10
-61.5767
 20
-0.759296
 11
-61.75
 21
0
  0
LINE
  8
0
 10
-61.75
 20
20
 11
-61.5767
 21
20.7593
  0
LINE
  8
0
 10
-61.5767
 20
20.7593
 11
-61.0911
 21
21.3682
  0
LINE
  8
0
 10
-61.0911
 20
21.3682
 11
-60.3894
 21
21.7061
  0
LINE
  8
0
 10
-60.3894
 20
21.7061
 11
-59.6106
 21
21.7061
  0
LINE
  8
0
 10
-59.6106
 20
21.7061
 11
-58.9089
 21
21.3682
  0
LINE
  8
0
 10
-58.9089
 20
21.3682
 11
-58.4233
 21
20.7593
  0
LINE
  8
0
 10
-58.4233
 20
20.7593
 11
-58.25
 21
20
  0
LINE
  8
0
 10
-58.25
 20
20
 11
-58.4233
 21
19.2407
  0
LINE
  8
0
 10
-58.4233
 20
19.2407
 11
-58.9089
 21
18.6318
  0
LINE
  8
0
 10
-58.9089
 20
18.6318
 11
-59.6106
 21
18.2939
  0
LINE
  8
0
 10
-59.6106
 20
18.2939
 11
-60.3894
 21
18.2939
  0
LINE
  8
0
 10
-60.3894
 20
18.2939
 11
-61.0911
 21
18.6318
  0
LINE
  8
0
 10
-61.0911
 20
18.6318
 11
-61.5767
 21
19.2407
  0
LINE
  8
0
 10
-61.5767
 20
19.2407
 11
-61.75
 21
20
  0
LINE
  8
0
 10
-61.75
 20
80
 11
-61.5767
 21
80.7593
  0
LINE
  8
0
 10
-61.5767
 20
80.7593
 11
-61.0911
 21
81.3682
  0
LINE
  8
0
 10
-61.0911
 20
81.3682
 11
-60.3894
 21
81.7061
  0
LINE
  8
0
 10
-60.3894
 20
81.7061
 11
-59.6106
 21
81.7061
  0
LINE
  8
0
 10
-59.6106
 20
81.7061
 11
-58.9089
 21
81.3682
  0
LINE
  8
0
 10
-58.9089
 20
81.3682
 11
-58.4233
 21
80.7593
  0
LINE
  8
0
 10
-58.4233
 20
80.7593
 11
-58.25
 21
80
  0
LINE
  8
0
 10
-58.25
 20
80
 11
-58.4233
 21
79.2407
  0
LINE
  8
0
 10
-58.4233
 20
79.2407
 11
-58.9089
 21
78.6318
  0
LINE
  8
0
 10
-58.9089
 20
78.6318
 11
-59.6106
 21
78.2939
  0
LINE
  8
0
 10
-59.6106
 20
78.2939
 11
-60.3894
 21
78.2939
  0
LINE
  8
0
 10
-60.3894
 20
78.2939
 11
-61.0911
 21
78.6318
  0
LINE
  8
0
 10
-61.0911
 20
78.6318
 11
-61.5767
 21
79.2407
  0
LINE
  8
0
 10
-61.5767
 20
79.2407
 11
-61.75
 21
80
  0
LINE
  8
0
 10
-61.0125
 20
57.0597
 11
-60.9543
 21
57.8363
  0
LINE
  8
0
 10
-60.9543
 20
57.8363
 11
-60.5649
 21
58.5108
  0
LINE
  8
0
 10
-60.5649
 20
58.5108
 11
-59.9214
 21
58.9495
  0
LINE
  8
0
 10
-59.9214
 20
58.9495
 11
-59.1513
 21
59.0656
  0
LINE
  8
0
 10
-59.1513
 20
59.0656
 11
-58.407
 21
58.8361
  0
LINE
  8
0
 10
-58.407
 20
58.8361
 11
-57.8361
 21
58.3063
  0
LINE
  8
0
 10
-57.8361
 20
58.3063
 11
-57.5516
 21
57.5813
  0
LINE
  8
0
 10
-57.5516
 20
57.5813
 11
-57.6098
 21
56.8047
  0
LINE
  8
0
 10
-57.6098
 20
56.8047
 11
-57.9992
 21
56.1302
  0
LINE
  8
0
 10
-57.9992
 20
56.1302
 11
-58.6427
 21
55.6915
  0
LINE
  8
0
 10
-58.6427
 20
55.6915
 11
-59.4128
 21
55.5754
  0
LINE
  8
0
 10
-59.4128
 20
55.5754
 11
-60.157
 21
55.805
  0
LINE
  8
0
 10
-60.157
 20
55.805
 11
-60.728
 21
56.3347
  0
LINE
  8
0
 10
-60.728
 20
56.3347
 11
-61.0125
 21
57.0597
  0
LINE
  8
0
 10
-41.75
 20
-80
 11
-41.5767
 21
-79.2407
  0
LINE
  8
0
 10
-41.5767
 20
-79.2407
 11
-41.0911
 21
-78.6318
  0
LINE
  8
0
 10
-41.0911
 20
-78.6318
 11
-40.3894
 21
-78.2939
  0
LINE
  8
0
 10
-40.3894
 20
-78.2939
 11
-39.6106
 21
-78.2939
  0
LINE
  8
0
 10
-39.6106
 20
-78.2939
 11
-38.9089
 21
-78.6318
  0
LINE
  8
0
 10
-38.9089
 20
-78.6318
 11
-38.4233
 21
-79.2407
  0
LINE
  8
0
 10
-38.4233
 20
-79.2407
 11
-38.25
 21
-80
  0
LINE
  8
0
 10
-38.25
 20
-80
 11
-38.4233
 21
-80.7593
  0
LINE
  8
0
 10
-38.4233
 20
-80.7593
 11
-38.9089
 21
-81.3682
  0
LINE
  8
0
 10
-38.9089
 20
-81.3682
 11
-39.6106
 21
-81.7061
  0
LINE
  8
0
 10
-39.6106
 20
-81.7061
 11
-40.3894
 21
-81.7061
  0
LINE
  8
0
 10
-40.3894
 20
-81.7061
 11
-41.0911
 21
-81.3682
  0
LINE
  8
0
 10
-41.0911
 20
-81.3682
 11
-41.5767
 21
-80.7593
  0
LINE
  8
0
 10
-41.5767
 20
-80.7593
 11
-41.75
 21
-80
  0
LINE
  8
0
 10
-41.75
 20
-60
 11
-41.5767
 21
-59.2407
  0
LINE
  8
0
 10
-41.5767
 20
-59.2407
 11
-41.0911
 21
-58.6318
  0
LINE
  8
0
 10
-41.0911
 20
-58.6318
 11
-40.3894
 21
-58.2939
  0
LINE
  8
0
 10
-40.3894
 20
-58.2939
 11
-39.6106
 21
-58.2939
  0
LINE
  8
0
 10
-39.6106
 20
-58.2939
 11
-38.9089
 21
-58.6318
  0
LINE
  8
0
 10
-38.9089
 20
-58.6318
 11
-38.4233
 21
-59.2407
  0
LINE
  8
0
 10
-38.4233
 20
-59.2407
 11
-38.25
 21
-60
  0
LINE
  8
0
 10
-38.25
 20
-60
 11
-38.4233
 21
-60.7593
  0
LINE
  8
0
 10
-38.4233
 20
-60.7593
 11
-38.9089
 21
-61.3682
  0
LINE
  8
0
 10
-38.9089
 20
-61.3682
 11
-39.6106
 21
-61.7061
  0
LINE
  8
0
 10
-39.6106
 20
-61.7061
 11
-40.3894
 21
-61.7061
  0
LINE
  8
0
 10
-40.3894
 20
-61.7061
 11
-41.0911
 21
-61.3682
  0
LINE
  8
0
 10
-41.0911
 20
-61.3682
 11
-41.5767
 21
-60.7593
  0
LINE
  8
0
 10
-41.5767
 20
-60.7593
 11
-41.75
 21
-60
  0
LINE
  8
0
 10
-41.75
 20
-40
 11
-41.5767
 21
-39.2407
  0
LINE
  8
0
 10
-41.5767
 20
-39.2407
 11
-41.0911
 21
-38.6318
  0
LINE
  8
0
 10
-41.0911
 20
-38.6318
 11
-40.3894
 21
-38.2939
  0
LINE
  8
0
 10
-40.3894
 20
-38.2939
 11
-39.6106
 21
-38.2939
  0
LINE
  8
0
 10
-39.6106
 20
-38.2939
 11
-38.9089
 21
-38.6318
  0
LINE
  8
0
 10
-38.9089
 20
-38.6318
 11
-38.4233
 21
-39.2407
  0
LINE
  8
0
 10
-38.4233
 20
-39.2407
 11
-38.25
 21
-40
  0
LINE
  8
0
 10
-38.25
 20
-40
 11
-38.4233
 21
-40.7593
  0
LINE
  8
0
 10
-38.4233
 20
-40.7593
 11
-38.9089
 21
-41.3682
  0
LINE
  8
0
 10
-38.9089
 20
-41.3682
 11
-39.6106
 21
-41.7061
  0
LINE
  8
0
 10
-39.6106
 20
-41.7061
 11
-40.3894
 21
-41.7061
  0
LINE
  8
0
 10
-40.3894
 20
-41.7061
 11
-41.0911
 21
-41.3682
  0
LINE
  8
0
 10
-41.0911
 20
-41.3682
 11
-41.5767
 21
-40.7593
  0
LINE
  8
0
 10
-41.5767
 20
-40.7593
 11
-41.75
 21
-40
  0
LINE
  8
0
 10
-41.75
 20
-20
 11
-41.5767
 21
-19.2407
  0
LINE
  8
0
 10
-41.5767
 20
-19.2407
 11
-41.0911
 21
-18.6318
  0
LINE
  8
0
 10
-41.0911
 20
-18.6318
 11
-40.3894
 21
-18.2939
  0
LINE
  8
0
 10
-40.3894
 20
-18.2939
 11
-39.6106
 21
-18.2939
  0
LINE
  8
0
 10
-39.6106
 20
-18.2939
 11
-38.9089
 21
-18.6318
  0
LINE
  8
0
 10
-38.9089
 20
-18.6318
 11
-38.4233
 21
-19.2407
  0
LINE
  8
0
 10
-38.4233
 20
-19.2407
 11
-38.25
 21
-20
  0
LINE
  8
0
 10
-38.25
 20
-20
 11
-38.4233
 21
-20.7593
  0
LINE
  8
0
 10
-38.4233
 20
-20.7593
 11
-38.9089
 21
-21.3682
  0
LINE
  8
0
 10
-38.9089
 20
-21.3682
 11
-39.6106
 21
-21.7061
  0
LINE
  8
0
 10
-39.6106
 20
-21.7061
 11
-40.3894
 21
-21.7061
  0
LINE
  8
0
 10
-40.3894
 20
-21.7061
 11
-41.0911
 21
-21.3682
  0
LINE
  8
0
 10
-41.0911
 20
-21.3682
 11
-41.5767
 21
-20.7593
  0
LINE
  8
0
 10
-41.5767
 20
-20.7593
 11
-41.75
 21
-20
  0
LINE
  8
0
 10
-41.75
 20
0
 11
-41.5767
 21
0.759296
  0
LINE
  8
0
 10
-41.5767
 20
0.759296
 11
-41.0911
 21
1.36821
  0
LINE
  8
0
 10
-41.0911
 20
1.36821
 11
-40.3894
 21
1.70612
  0
LINE
  8
0
 10
-40.3894
 20
1.70612
 11
-39.6106
 21
1.70612
  0
LINE
  8
0
 10
-39.6106
 20
1.70612
 11
-38.9089
 21
1.36821
  0
LINE
  8
0
 10
-38.9089
 20
1.36821
 11
-38.4233
 21
0.759296
  0
LINE
  8
0
 10
-38.4233
 20
0.759296
 11
-38.25
 21
0
  0
LINE
  8
0
 10
-38.25
 20
0
 11
-38.4233
 21
-0.759296
  0
LINE
  8
0
 10
-38.4233
 20
-0.759296
 11
-38.9089
 21
-1.36821
  0
LINE
  8
0
 10
-38.9089
 20
-1.36821
 11
-39.6106
 21
-1.70612
  0
LINE
  8
0
 10
-39.6106
 20
-1.70612
 11
-40.3894
 21
-1.70612
  0
LINE
  8
0
 10
-40.3894
 20
-1.70612
 11
-41.0911
 21
-1.36821
  0
LINE
  8
0
 10
-41.0911
 20
-1.36821
 11
-41.5767
 21
-0.759296
  0
LINE
  8
0
 10
-41.5767
 20
-0.759296
 11
-41.75
 21
0
  0
LINE
  8
0
 10
-41.75
 20
20
 11
-41.5767
 21
20.7593
  0
LINE
  8
0
 10
-41.5767
 20
20.7593
 11
-41.0911
 21
21.3682
  0
LINE
  8
0
 10
-41.0911
 20
21.3682
 11
-40.3894
 21
21.7061
  0
LINE
  8
0
 10
-40.3894
 20
21.7061
 11
-39.6106
 21
21.7061
  0
LINE
  8
0
 10
-39.6106
 20
21.7061
 11
-38.9089
 21
21.3682
  0
LINE
  8
0
 10
-38.9089
 20
21.3682
 11
-38.4233
 21
20.7593
  0
LINE
  8
0
 10
-38.4233
 20
20.7593
 11
-38.25
 21
20
  0
LINE
  8
0
 10
-38.25
 20
20
 11
-38.4233
 21
19.2407
  0
LINE
  8
0
 10
-38.4233
 20
19.2407
 11
-38.9089
 21
18.6318
  0
LINE
  8
0
 10
-38.9089
 20
18.6318
 11
-39.6106
 21
18.2939
  0
LINE
  8
0
 10
-39.6106
 20
18.2939
 11
-40.3894
 21
18.2939
  0
LINE
  8
0
 10
-40.3894
 20
18.2939
 11
-41.0911
 21
18.6318
  0
LINE
  8
0
 10
-41.0911
 20
18.6318
 11
-41.5767
 21
19.2407
  0
LINE
  8
0
 10
-41.5767
 20
19.2407
 11
-41.75
 21
20
  0
LINE
  8
0
 10
-41.75
 20
40
 11
-41.5767
 21
40.7593
  0
LINE
  8
0
 10
-41.5767
 20
40.7593
 11
-41.0911
 21
41.3682
  0
LINE
  8
0
 10
-41.0911
 20
41.3682
 11
-40.3894
 21
41.7061
  0
LINE
  8
0
 10
-40.3894
 20
41.7061
 11
-39.6106
 21
41.7061
  0
LINE
  8
0
 10
-39.6106
 20
41.7061
 11
-38.9089
 21
41.3682
  0
LINE
  8
0
 10
-38.9089
 20
41.3682
 11
-38.4233
 21
40.7593
  0
LINE
  8
0
 10
-38.4233
 20
40.7593
 11
-38.25
 21
40
  0
LINE
  8
0
 10
-38.25
 20
40
 11
-38.4233
 21
39.2407
  0
LINE
  8
0
 10
-38.4233
 20
39.2407
 11
-38.9089
 21
38.6318
  0
LINE
  8
0
 10
-38.9089
 20
38.6318
 11
-39.6106
 21
38.2939
  0
LINE
  8
0
 10
-39.6106
 20
38.2939
 11
-40.3894
 21
38.2939
  0
LINE
  8
0
 10
-40.3894
 20
38.2939
 11
-41.0911
 21
38.6318
  0
LINE
  8
0
 10
-41.0911
 20
38.6318
 11
-41.5767
 21
39.2407
  0
LINE
  8
0
 10
-41.5767
 20
39.2407
 11
-41.75
 21
40
  0
LINE
  8
0
 10
-41.75
 20
60
 11
-41.5767
 21
60.7593
  0
LINE
  8
0
 10
-41.5767
 20
60.7593
 11
-41.0911
 21
61.3682
  0
LINE
  8
0
 10
-41.0911
 20
61.3682
 11
-40.3894
 21
61.7061
  0
LINE
  8
0
 10
-40.3894
 20
61.7061
 11
-39.6106
 21
61.7061
  0
LINE
  8
0
 10
-39.6106
 20
61.7061
 11
-38.9089
 21
61.3682
  0
LINE
  8
0
 10
-38.9089
 20
61.3682
 11
-38.4233
 21
60.7593
  0
LINE
  8
0
 10
-38.4233
 20
60.7593
 11
-38.25
 21
60
  0
LINE
  8
0
 10
-38.25
 20
60
 11
-38.4233
 21
59.2407
  0
LINE
  8
0
 10
-38.4233
 20
59.2407
 11
-38.9089
 21
58.6318
  0
LINE
  8
0
 10
-38.9089
 20
58.6318
 11
-39.6106
 21
58.2939
  0
LINE
  8
0
 10
-39.6106
 20
58.2939
 11
-40.3894
 21
58.2939
  0
LINE
  8
0
 10
-40.3894
 20
58.2939
 11
-41.0911
 21
58.6318
  0
LINE
  8
0
 10
-41.0911
 20
58.6318
 11
-41.5767
 21
59.2407
  0
LINE
  8
0
 10
-41.5767
 20
59.2407
 11
-41.75
 21
60
  0
LINE
  8
0
 10
-41.75
 20
80
 11
-41.5767
 21
80.7593
  0
LINE
  8
0
 10
-41.5767
 20
80.7593
 11
-41.0911
 21
81.3682
  0
LINE
  8
0
 10
-41.0911
 20
81.3682
 11
-40.3894
 21
81.7061
  0
LINE
  8
0
 10
-40.3894
 20
81.7061
 11
-39.6106
 21
81.7061
  0
LINE
  8
0
 10
-39.6106
 20
81.7061
 11
-38.9089
 21
81.3682
  0
LINE
  8
0
 10
-38.9089
 20
81.3682
 11
-38.4233
 21
80.7593
  0
LINE
  8
0
 10
-38.4233
 20
80.7593
 11
-38.25
 21
80
  0
LINE
  8
0
 10
-38.25
 20
80
 11
-38.4233
 21
79.2407
  0
LINE
  8
0
 10
-38.4233
 20
79.2407
 11
-38.9089
 21
78.6318
  0
LINE
  8
0
 10
-38.9089
 20
78.6318
 11
-39.6106
 21
78.2939
  0
LINE
  8
0
 10
-39.6106
 20
78.2939
 11
-40.3894
 21
78.2939
  0
LINE
  8
0
 10
-40.3894
 20
78.2939
 11
-41.0911
 21
78.6318
  0
LINE
  8
0
 10
-41.0911
 20
78.6318
 11
-41.5767
 21
79.2407
  0
LINE
  8
0
 10
-41.5767
 20
79.2407
 11
-41.75
 21
80
  0
LINE
  8
0
 10
-21.75
 20
-100
 11
-21.5767
 21
-99.2407
  0
LINE
  8
0
 10
-21.5767
 20
-99.2407
 11
-21.0911
 21
-98.6318
  0
LINE
  8
0
 10
-21.0911
 20
-98.6318
 11
-20.3894
 21
-98.2939
  0
LINE
  8
0
 10
-20.3894
 20
-98.2939
 11
-19.6106
 21
-98.2939
  0
LINE
  8
0
 10
-19.6106
 20
-98.2939
 11
-18.9089
 21
-98.6318
  0
LINE
  8
0
 10
-18.9089
 20
-98.6318
 11
-18.4233
 21
-99.2407
  0
LINE
  8
0
 10
-18.4233
 20
-99.2407
 11
-18.25
 21
-100
  0
LINE
  8
0
 10
-18.25
 20
-100
 11
-18.4233
 21
-100.759
  0
LINE
  8
0
 10
-18.4233
 20
-100.759
 11
-18.9089
 21
-101.368
  0
LINE
  8
0
 10
-18.9089
 20
-101.368
 11
-19.6106
 21
-101.706
  0
LINE
  8
0
 10
-19.6106
 20
-101.706
 11
-20.3894
 21
-101.706
  0
LINE
  8
0
 10
-20.3894
 20
-101.706
 11
-21.0911
 21
-101.368
  0
LINE
  8
0
 10
-21.0911
 20
-101.368
 11
-21.5767
 21
-100.759
  0
LINE
  8
0
 10
-21.5767
 20
-100.759
 11
-21.75
 21
-100
  0
LINE
  8
0
 10
-21.75
 20
-80
 11
-21.5767
 21
-79.2407
  0
LINE
  8
0
 10
-21.5767
 20
-79.2407
 11
-21.0911
 21
-78.6318
  0
LINE
  8
0
 10
-21.0911
 20
-78.6318
 11
-20.3894
 21
-78.2939
  0
LINE
  8
0
 10
-20.3894
 20
-78.2939
 11
-19.6106
 21
-78.2939
  0
LINE
  8
0
 10
-19.6106
 20
-78.2939
 11
-18.9089
 21
-78.6318
  0
LINE
  8
0
 10
-18.9089
 20
-78.6318
 11
-18.4233
 21
-79.2407
  0
LINE
  8
0
 10
-18.4233
 20
-79.2407
 11
-18.25
 21
-80
  0
LINE
  8
0
 10
-18.25
 20
-80
 11
-18.4233
 21
-80.7593
  0
LINE
  8
0
 10
-18.4233
 20
-80.7593
 11
-18.9089
 21
-81.3682
  0
LINE
  8
0
 10
-18.9089
 20
-81.3682
 11
-19.6106
 21
-81.7061
  0
LINE
  8
0
 10
-19.6106
 20
-81.7061
 11
-20.3894
 21
-81.7061
  0
LINE
  8
0
 10
-20.3894
 20
-81.7061
 11
-21.0911
 21
-81.3682
  0
LINE
  8
0
 10
-21.0911
 20
-81.3682
 11
-21.5767
 21
-80.7593
  0
LINE
  8
0
 10
-21.5767
 20
-80.7593
 11
-21.75
 21
-80
  0
LINE
  8
0
 10
-21.75
 20
-60
 11
-21.5767
 21
-59.2407
  0
LINE
  8
0
 10
-21.5767
 20
-59.2407
 11
-21.0911
 21
-58.6318
  0
LINE
  8
0
 10
-21.0911
 20
-58.6318
 11
-20.3894
 21
-58.2939
  0
LINE
  8
0
 10
-20.3894
 20
-58.2939
 11
-19.6106
 21
-58.2939
  0
LINE
  8
0
 10
-19.6106
 20
-58.2939
 11
-18.9089
 21
-58.6318
  0
LINE
  8
0
 10
-18.9089
 20
-58.6318
 11
-18.4233
 21
-59.2407
  0
LINE
  8
0
 10
-18.4233
 20
-59.2407
 11
-18.25
 21
-60
  0
LINE
  8
0
 10
-18.25
 20
-60
 11
-18.4233
 21
-60.7593
  0
LINE
  8
0
 10
-18.4233
 20
-60.7593
 11
-18.9089
 21
-61.3682
  0
LINE
  8
0
 10
-18.9089
 20
-61.3682
 11
-19.6106
 21
-61.7061
  0
LINE
  8
0
 10
-19.6106
 20
-61.7061
 11
-20.3894
 21
-61.7061
  0
LINE
  8
0
 10
-20.3894
 20
-61.7061
 11
-21.0911
 21
-61.3682
  0
LINE
  8
0
 10
-21.0911
 20
-61.3682
 11
-21.5767
 21
-60.7593
  0
LINE
  8
0
 10
-21.5767
 20
-60.7593
 11
-21.75
 21
-60
  0
LINE
  8
0
 10
-21.75
 20
-40
 11
-21.5767
 21
-39.2407
  0
LINE
  8
0
 10
-21.5767
 20
-39.2407
 11
-21.0911
 21
-38.6318
  0
LINE
  8
0
 10
-21.0911
 20
-38.6318
 11
-20.3894
 21
-38.2939
  0
LINE
  8
0
 10
-20.3894
 20
-38.2939
 11
-19.6106
 21
-38.2939
  0
LINE
  8
0
 10
-19.6106
 20
-38.2939
 11
-18.9089
 21
-38.6318
  0
LINE
  8
0
 10
-18.9089
 20
-38.6318
 11
-18.4233
 21
-39.2407
  0
LINE
  8
0
 10
-18.4233
 20
-39.2407
 11
-18.25
 21
-40
  0
LINE
  8
0
 10
-18.25
 20
-40
 11
-18.4233
 21
-40.7593
  0
LINE
  8
0
 10
-18.4233
 20
-40.7593
 11
-18.9089
 21
-41.3682
  0
LINE
  8
0
 10
-18.9089
 20
-41.3682
 11
-19.6106
 21
-41.7061
  0
LINE
  8
0
 10
-19.6106
 20
-41.7061
 11
-20.3894
 21
-41.7061
  0
LINE
  8
0
 10
-20.3894
 20
-41.7061
 11
-21.0911
 21
-41.3682
  0
LINE
  8
0
 10
-21.0911
 20
-41.3682
 11
-21.5767
 21
-40.7593
  0
LINE
  8
0
 10
-21.5767
 20
-40.7593
 11
-21.75
 21
-40
  0
LINE
  8
0
 10
-21.75
 20
-20
 11
-21.5767
 21
-19.2407
  0
LINE
  8
0
 10
-21.5767
 20
-19.2407
 11
-21.0911
 21
-18.6318
  0
LINE
  8
0
 10
-21.0911
 20
-18.6318
 11
-20.3894
 21
-18.2939
  0
LINE
  8
0
 10
-20.3894
 20
-18.2939
 11
-19.6106
 21
-18.2939
  0
LINE
  8
0
 10
-19.6106
 20
-18.2939
 11
-18.9089
 21
-18.6318
  0
LINE
  8
0
 10
-18.9089
 20
-18.6318
 11
-18.4233
 21
-19.2407
  0
LINE
  8
0
 10
-18.4233
 20
-19.2407
 11
-18.25
 21
-20
  0
LINE
  8
0
 10
-18.25
 20
-20
 11
-18.4233
 21
-20.7593
  0
LINE
  8
0
 10
-18.4233
 20
-20.7593
 11
-18.9089
 21
-21.3682
  0
LINE
  8
0
 10
-18.9089
 20
-21.3682
 11
-19.6106
 21
-21.7061
  0
LINE
  8
0
 10
-19.6106
 20
-21.7061
 11
-20.3894
 21
-21.7061
  0
LINE
  8
0
 10
-20.3894
 20
-21.7061
 11
-21.0911
 21
-21.3682
  0
LINE
  8
0
 10
-21.0911
 20
-21.3682
 11
-21.5767
 21
-20.7593
  0
LINE
  8
0
 10
-21.5767
 20
-20.7593
 11
-21.75
 21
-20
  0
LINE
  8
0
 10
-21.75
 20
0
 11
-21.5767
 21
0.759296
  0
LINE
  8
0
 10
-21.5767
 20
0.759296
 11
-21.0911
 21
1.36821
  0
LINE
  8
0
 10
-21.0911
 20
1.36821
 11
-20.3894
 21
1.70612
  0
LINE
  8
0
 10
-20.3894
 20
1.70612
 11
-19.6106
 21
1.70612
  0
LINE
  8
0
 10
-19.6106
 20
1.70612
 11
-18.9089
 21
1.36821
  0
LINE
  8
0
 10
-18.9089
 20
1.36821
 11
-18.4233
 21
0.759296
  0
LINE
  8
0
 10
-18.4233
 20
0.759296
 11
-18.25
 21
0
  0
LINE
  8
0
 10
-18.25
 20
0
 11
-18.4233
 21
-0.759296
  0
LINE
  8
0
 10
-18.4233
 20
-0.759296
 11
-18.9089
 21
-1.36821
  0
LINE
  8
0
 10
-18.9089
 20
-1.36821
 11
-19.6106
 21
-1.70612
  0
LINE
  8
0
 10
-19.6106
 20
-1.70612
 11
-20.3894
 21
-1.70612
  0
LINE
  8
0
 10
-20.3894
 20
-1.70612
 11
-21.0911
 21
-1.36821
  0
LINE
  8
0
 10
-21.0911
 20
-1.36821
 11
-21.5767
 21
-0.759296
  0
LINE
  8
0
 10
-21.5767
 20
-0.759296
 11
-21.75
 21
0
  0
LINE
  8
0
 10
-21.75
 20
20
 11
-21.5767
 21
20.7593
  0
LINE
  8
0
 10
-21.5767
 20
20.7593
 11
-21.0911
 21
21.3682
  0
LINE
  8
0
 10
-21.0911
 20
21.3682
 11
-20.3894
 21
21.7061
  0
LINE
  8
0
 10
-20.3894
 20
21.7061
 11
-19.6106
 21
21.7061
  0
LINE
  8
0
 10
-19.6106
 20
21.7061
 11
-18.9089
 21
21.3682
  0
LINE
  8
0
 10
-18.9089
 20
21.3682
 11
-18.4233
 21
20.7593
  0
LINE
  8
0
 10
-18.4233
 20
20.7593
 11
-18.25
 21
20
  0
LINE
  8
0
 10
-18.25
 20
20
 11
-18.4233
 21
19.2407
  0
LINE
  8
0
 10
-18.4233
 20
19.2407
 11
-18.9089
 21
18.6318
  0
LINE
  8
0
 10
-18.9089
 20
18.6318
 11
-19.6106
 21
18.2939
  0
LINE
  8
0
 10
-19.6106
 20
18.2939
 11
-20.3894
 21
18.2939
  0
LINE
  8
0
 10
-20.3894
 20
18.2939
 11
-21.0911
 21
18.6318
  0
LINE
  8
0
 10
-21.0911
 20
18.6318
 11
-21.5767
 21
19.2407
  0
LINE
  8
0
 10
-21.5767
 20
19.2407
 11
-21.75
 21
20
  0
LINE
  8
0
 10
-21.75
 20
40
 11
-21.5767
 21
40.7593
  0
LINE
  8
0
 10
-21.5767
 20
40.7593
 11
-21.0911
 21
41.3682
  0
LINE
  8
0
 10
-21.0911
 20
41.3682
 11
-20.3894
 21
41.7061
  0
LINE
  8
0
 10
-20.3894
 20
41.7061
 11
-19.6106
 21
41.7061
  0
LINE
  8
0
 10
-19.6106
 20
41.7061
 11
-18.9089
 21
41.3682
  0
LINE
  8
0
 10
-18.9089
 20
41.3682
 11
-18.4233
 21
40.7593
  0
LINE
  8
0
 10
-18.4233
 20
40.7593
 11
-18.25
 21
40
  0
LINE
  8
0
 10
-18.25
 20
40
 11
-18.4233
 21
39.2407
  0
LINE
  8
0
 10
-18.4233
 20
39.2407
 11
-18.9089
 21
38.6318
  0
LINE
  8
0
 10
-18.9089
 20
38.6318
 11
-19.6106
 21
38.2939
  0
LINE
  8
0
 10
-19.6106
 20
38.2939
 11
-20.3894
 21
38.2939
  0
LINE
  8
0
 10
-20.3894
 20
38.2939
 11
-21.0911
 21
38.6318
  0
LINE
  8
0
 10
-21.0911
 20
38.6318
 11
-21.5767
 21
39.2407
  0
LINE
  8
0
 10
-21.5767
 20
39.2407
 11
-21.75
 21
40
  0
LINE
  8
0
 10
-21.75
 20
60
 11
-21.5767
 21
60.7593
  0
LINE
  8
0
 10
-21.5767
 20
60.7593
 11
-21.0911
 21
61.3682
  0
LINE
  8
0
 10
-21.0911
 20
61.3682
 11
-20.3894
 21
61.7061
  0
LINE
  8
0
 10
-20.3894
 20
61.7061
 11
-19.6106
 21
61.7061
  0
LINE
  8
0
 10
-19.6106
 20
61.7061
 11
-18.9089
 21
61.3682
  0
LINE
  8
0
 10
-18.9089
 20
61.3682
 11
-18.4233
 21
60.7593
  0
LINE
  8
0
 10
-18.4233
 20
60.7593
 11
-18.25
 21
60
  0
LINE
  8
0
 10
-18.25
 20
60
 11
-18.4233
 21
59.2407
  0
LINE
  8
0
 10
-18.4233
 20
59.2407
 11
-18.9089
 21
58.6318
  0
LINE
  8
0
 10
-18.9089
 20
58.6318
 11
-19.6106
 21
58.2939
  0
LINE
  8
0
 10
-19.6106
 20
58.2939
 11
-20.3894
 21
58.2939
  0
LINE
  8
0
 10
-20.3894
 20
58.2939
 11
-21.0911
 21
58.6318
  0
LINE
  8
0
 10
-21.0911
 20
58.6318
 11
-21.5767
 21
59.2407
  0
LINE
  8
0
 10
-21.5767
 20
59.2407
 11
-21.75
 21
60
  0
LINE
  8
0
 10
-21.75
 20
80
 11
-21.5767
 21
80.7593
  0
LINE
  8
0
 10
-21.5767
 20
80.7593
 11
-21.0911
 21
81.3682
  0
LINE
  8
0
 10
-21.0911
 20
81.3682
 11
-20.3894
 21
81.7061
  0
LINE
  8
0
 10
-20.3894
 20
81.7061
 11
-19.6106
 21
81.7061
  0
LINE
  8
0
 10
-19.6106
 20
81.7061
 11
-18.9089
 21
81.3682
  0
LINE
  8
0
 10
-18.9089
 20
81.3682
 11
-18.4233
 21
80.7593
  0
LINE
  8
0
 10
-18.4233
 20
80.7593
 11
-18.25
 21
80
  0
LINE
  8
0
 10
-18.25
 20
80
 11
-18.4233
 21
79.2407
  0
LINE
  8
0
 10
-18.4233
 20
79.2407
 11
-18.9089
 21
78.6318
  0
LINE
  8
0
 10
-18.9089
 20
78.6318
 11
-19.6106
 21
78.2939
  0
LINE
  8
0
 10
-19.6106
 20
78.2939
 11
-20.3894
 21
78.2939
  0
LINE
  8
0
 10
-20.3894
 20
78.2939
 11
-21.0911
 21
78.6318
  0
LINE
  8
0
 10
-21.0911
 20
78.6318
 11
-21.5767
 21
79.2407
  0
LINE
  8
0
 10
-21.5767
 20
79.2407
 11
-21.75
 21
80
  0
LINE
  8
0
 10
-21.75
 20
100
 11
-21.5767
 21
100.759
  0
LINE
  8
0
 10
-21.5767
 20
100.759
 11
-21.0911
 21
101.368
  0
LINE
  8
0
 10
-21.0911
 20
101.368
 11
-20.3894
 21
101.706
  0
LINE
  8
0
 10
-20.3894
 20
101.706
 11
-19.6106
 21
101.706
  0
LINE
  8
0
 10
-19.6106
 20
101.706
 11
-18.9089
 21
101.368
  0
LINE
  8
0
 10
-18.9089
 20
101.368
 11
-18.4233
 21
100.759
  0
LINE
  8
0
 10
-18.4233
 20
100.759
 11
-18.25
 21
100
  0
LINE
  8
0
 10
-18.25
 20
100
 11
-18.4233
 21
99.2407
  0
LINE
  8
0
 10
-18.4233
 20
99.2407
 11
-18.9089
 21
98.6318
  0
LINE
  8
0
 10
-18.9089
 20
98.6318
 11
-19.6106
 21
98.2939
  0
LINE
  8
0
 10
-19.6106
 20
98.2939
 11
-20.3894
 21
98.2939
  0
LINE
  8
0
 10
-20.3894
 20
98.2939
 11
-21.0911
 21
98.6318
  0
LINE
  8
0
 10
-21.0911
 20
98.6318
 11
-21.5767
 21
99.2407
  0
LINE
  8
0
 10
-21.5767
 20
99.2407
 11
-21.75
 21
100
  0
LINE
  8
0
 10
-1.75
 20
-100
 11
-1.5767
 21
-99.2407
  0
LINE
  8
0
 10
-1.5767
 20
-99.2407
 11
-1.09111
 21
-98.6318
  0
LINE
  8
0
 10
-1.09111
 20
-98.6318
 11
-0.389411
 21
-98.2939
  0
LINE
  8
0
 10
-0.389411
 20
-98.2939
 11
0.389411
 21
-98.2939
  0
LINE
  8
0
 10
0.389411
 20
-98.2939
 11
1.09111
 21
-98.6318
  0
LINE
  8
0
 10
1.09111
 20
-98.6318
 11
1.5767
 21
-99.2407
  0
LINE
  8
0
 10
1.5767
 20
-99.2407
 11
1.75
 21
-100
  0
LINE
  8
0
 10
1.75
 20
-100
 11
1.5767
 21
-100.759
  0
LINE
  8
0
 10
1.5767
 20
-100.759
 11
1.09111
 21
-101.368
  0
LINE
  8
0
 10
1.09111
 20
-101.368
 11
0.389411
 21
-101.706
  0
LINE
  8
0
 10
0.389411
 20
-101.706
 11
-0.389411
 21
-101.706
  0
LINE
  8
0
 10
-0.389411
 20
-101.706
 11
-1.09111
 21
-101.368
  0
LINE
  8
0
 10
-1.09111
 20
-101.368
 11
-1.5767
 21
-100.759
  0
LINE
  8
0
 10
-1.5767
 20
-100.759
 11
-1.75
 21
-100
  0
LINE
  8
0
 10
-1.75
 20
-80
 11
-1.5767
 21
-79.2407
  0
LINE
  8
0
 10
-1.5767
 20
-79.2407
 11
-1.09111
 21
-78.6318
  0
LINE
  8
0
 10
-1.09111
 20
-78.6318
 11
-0.389411
 21
-78.2939
  0
LINE
  8
0
 10
-0.389411
 20
-78.2939
 11
0.389411
 21
-78.2939
  0
LINE
  8
0
 10
0.389411
 20
-78.2939
 11
1.09111
 21
-78.6318
  0
LINE
  8
0
 10
1.09111
 20
-78.6318
 11
1.5767
 21
-79.2407
  0
LINE
  8
0
 10
1.5767
 20
-79.2407
 11
1.75
 21
-80
  0
LINE
  8
0
 10
1.75
 20
-80
 11
1.5767
 21
-80.7593
  0
LINE
  8
0
 10
1.5767
 20
-80.7593
 11
1.09111
 21
-81.3682
  0
LINE
  8
0
 10
1.09111
 20
-81.3682
 11
0.389411
 21
-81.7061
  0
LINE
  8
0
 10
0.389411
 20
-81.7061
 11
-0.389411
 21
-81.7061
  0
LINE
  8
0
 10
-0.389411
 20
-81.7061
 11
-1.09111
 21
-81.3682
  0
LINE
  8
0
 10
-1.09111
 20
-81.3682
 11
-1.5767
 21
-80.7593
  0
LINE
  8
0
 10
-1.5767
 20
-80.7593
 11
-1.75
 21
-80
  0
LINE
  8
0
 10
-1.75
 20
-60
 11
-1.5767
 21
-59.2407
  0
LINE
  8
0
 10
-1.5767
 20
-59.2407
 11
-1.09111
 21
-58.6318
  0
LINE
  8
0
 10
-1.09111
 20
-58.6318
 11
-0.389411
 21
-58.2939
  0
LINE
  8
0
 10
-0.389411
 20
-58.2939
 11
0.389411
 21
-58.2939
  0
LINE
  8
0
 10
0.389411
 20
-58.2939
 11
1.09111
 21
-58.6318
  0
LINE
  8
0
 10
1.09111
 20
-58.6318
 11
1.5767
 21
-59.2407
  0
LINE
  8
0
 10
1.5767
 20
-59.2407
 11
1.75
 21
-60
  0
LINE
  8
0
 10
1.75
 20
-60
 11
1.5767
 21
-60.7593
  0
LINE
  8
0
 10
1.5767
 20
-60.7593
 11
1.09111
 21
-61.3682
  0
LINE
  8
0
 10
1.09111
 20
-61.3682
 11
0.389411
 21
-61.7061
  0
LINE
  8
0
 10
0.389411
 20
-61.7061
 11
-0.389411
 21
-61.7061
  0
LINE
  8
0
 10
-0.389411
 20
-61.7061
 11
-1.09111
 21
-61.3682
  0
LINE
  8
0
 10
-1.09111
 20
-61.3682
 11
-1.5767
 21
-60.7593
  0
LINE
  8
0
 10
-1.5767
 20
-60.7593
 11
-1.75
 21
-60
  0
LINE
  8
0
 10
-1.75
 20
-40
 11
-1.5767
 21
-39.2407
  0
LINE
  8
0
 10
-1.5767
 20
-39.2407
 11
-1.09111
 21
-38.6318
  0
LINE
  8
0
 10
-1.09111
 20
-38.6318
 11
-0.389411
 21
-38.2939
  0
LINE
  8
0
 10
-0.389411
 20
-38.2939
 11
0.389411
 21
-38.2939
  0
LINE
  8
0
 10
0.389411
 20
-38.2939
 11
1.09111
 21
-38.6318
  0
LINE
  8
0
 10
1.09111
 20
-38.6318
 11
1.5767
 21
-39.2407
  0
LINE
  8
0
 10
1.5767
 20
-39.2407
 11
1.75
 21
-40
  0
LINE
  8
0
 10
1.75
 20
-40
 11
1.5767
 21
-40.7593
  0
LINE
  8
0
 10
1.5767
 20
-40.7593
 11
1.09111
 21
-41.3682
  0
LINE
  8
0
 10
1.09111
 20
-41.3682
 11
0.389411
 21
-41.7061
  0
LINE
  8
0
 10
0.389411
 20
-41.7061
 11
-0.389411
 21
-41.7061
  0
LINE
  8
0
 10
-0.389411
 20
-41.7061
 11
-1.09111
 21
-41.3682
  0
LINE
  8
0
 10
-1.09111
 20
-41.3682
 11
-1.5767
 21
-40.7593
  0
LINE
  8
0
 10
-1.5767
 20
-40.7593
 11
-1.75
 21
-40
  0
LINE
  8
0
 10
-1.75
 20
-20
 11
-1.5767
 21
-19.2407
  0
LINE
  8
0
 10
-1.5767
 20
-19.2407
 11
-1.09111
 21
-18.6318
  0
LINE
  8
0
 10
-1.09111
 20
-18.6318
 11
-0.389411
 21
-18.2939
  0
LINE
  8
0
 10
-0.389411
 20
-18.2939
 11
0.389411
 21
-18.2939
  0
LINE
  8
0
 10
0.389411
 20
-18.2939
 11
1.09111
 21
-18.6318
  0
LINE
  8
0
 10
1.09111
 20
-18.6318
 11
1.5767
 21
-19.2407
  0
LINE
  8
0
 10
1.5767
 20
-19.2407
 11
1.75
 21
-20
  0
LINE
  8
0
 10
1.75
 20
-20
 11
1.5767
 21
-20.7593
  0
LINE
  8
0
 10
1.5767
 20
-20.7593
 11
1.09111
 21
-21.3682
  0
LINE
  8
0
 10
1.09111
 20
-21.3682
 11
0.389411
 21
-21.7061
  0
LINE
  8
0
 10
0.389411
 20
-21.7061
 11
-0.389411
 21
-21.7061
  0
LINE
  8
0
 10
-0.389411
 20
-21.7061
 11
-1.09111
 21
-21.3682
  0
LINE
  8
0
 10
-1.09111
 20
-21.3682
 11
-1.5767
 21
-20.7593
  0
LINE
  8
0
 10
-1.5767
 20
-20.7593
 11
-1.75
 21
-20
  0
LINE
  8
0
 10
-1.75
 20
0
 11
-1.5767
 21
0.759296
  0
LINE
  8
0
 10
-1.5767
 20
0.759296
 11
-1.09111
 21
1.36821
  0
LINE
  8
0
 10
-1.09111
 20
1.36821
 11
-0.389411
 21
1.70612
  0
LINE
  8
0
 10
-0.389411
 20
1.70612
 11
0.389411
 21
1.70612
  0
LINE
  8
0
 10
0.389411
 20
1.70612
 11
1.09111
 21
1.36821
  0
LINE
  8
0
 10
1.09111
 20
1.36821
 11
1.5767
 21
0.759296
  0
LINE
  8
0
 10
1.5767
 20
0.759296
 11
1.75
 21
0
  0
LINE
  8
0
 10
1.75
 20
0
 11
1.5767
 21
-0.759296
  0
LINE
  8
0
 10
1.5767
 20
-0.759296
 11
1.09111
 21
-1.36821
  0
LINE
  8
0
 10
1.09111
 20
-1.36821
 11
0.389411
 21
-1.70612
  0
LINE
  8
0
 10
0.389411
 20
-1.70612
 11
-0.389411
 21
-1.70612
  0
LINE
  8
0
 10
-0.389411
 20
-1.70612
 11
-1.09111
 21
-1.36821
  0
LINE
  8
0
 10
-1.09111
 20
-1.36821
 11
-1.5767
 21
-0.759296
  0
LINE
  8
0
 10
-1.5767
 20
-0.759296
 11
-1.75
 21
0
  0
LINE
  8
0
 10
-1.75
 20
20
 11
-1.5767
 21
20.7593
  0
LINE
  8
0
 10
-1.5767
 20
20.7593
 11
-1.09111
 21
21.3682
  0
LINE
  8
0
 10
-1.09111
 20
21.3682
 11
-0.389411
 21
21.7061
  0
LINE
  8
0
 10
-0.389411
 20
21.7061
 11
0.389411
 21
21.7061
  0
LINE
  8
0
 10
0.389411
 20
21.7061
 11
1.09111
 21
21.3682
  0
LINE
  8
0
 10
1.09111
 20
21.3682
 11
1.5767
 21
20.7593
  0
LINE
  8
0
 10
1.5767
 20
20.7593
 11
1.75
 21
20
  0
LINE
  8
0
 10
1.75
 20
20
 11
1.5767
 21
19.2407
  0
LINE
  8
0
 10
1.5767
 20
19.2407
 11
1.09111
 21
18.6318
  0
LINE
  8
0
 10
1.09111
 20
18.6318
 11
0.389411
 21
18.2939
  0
LINE
  8
0
 10
0.389411
 20
18.2939
 11
-0.389411
 21
18.2939
  0
LINE
  8
0
 10
-0.389411
 20
18.2939
 11
-1.09111
 21
18.6318
  0
LINE
  8
0
 10
-1.09111
 20
18.6318
 11
-1.5767
 21
19.2407
  0
LINE
  8
0
 10
-1.5767
 20
19.2407
 11
-1.75
 21
20
  0
LINE
  8
0
 10
-1.75
 20
40
 11
-1.5767
 21
40.7593
  0
LINE
  8
0
 10
-1.5767
 20
40.7593
 11
-1.09111
 21
41.3682
  0
LINE
  8
0
 10
-1.09111
 20
41.3682
 11
-0.389411
 21
41.7061
  0
LINE
  8
0
 10
-0.389411
 20
41.7061
 11
0.389411
 21
41.7061
  0
LINE
  8
0
 10
0.389411
 20
41.7061
 11
1.09111
 21
41.3682
  0
LINE
  8
0
 10
1.09111
 20
41.3682
 11
1.5767
 21
40.7593
  0
LINE
  8
0
 10
1.5767
 20
40.7593
 11
1.75
 21
40
  0
LINE
  8
0
 10
1.75
 20
40
 11
1.5767
 21
39.2407
  0
LINE
  8
0
 10
1.5767
 20
39.2407
 11
1.09111
 21
38.6318
  0
LINE
  8
0
 10
1.09111
 20
38.6318
 11
0.389411
 21
38.2939
  0
LINE
  8
0
 10
0.389411
 20
38.2939
 11
-0.389411
 21
38.2939
  0
LINE
  8
0
 10
-0.389411
 20
38.2939
 11
-1.09111
 21
38.6318
  0
LINE
  8
0
 10
-1.09111
 20
38.6318
 11
-1.5767
 21
39.2407
  0
LINE
  8
0
 10
-1.5767
 20
39.2407
 11
-1.75
 21
40
  0
LINE
  8
0
 10
-1.75
 20
60
 11
-1.5767
 21
60.7593
  0
LINE
  8
0
 10
-1.5767
 20
60.7593
 11
-1.09111
 21
61.3682
  0
LINE
  8
0
 10
-1.09111
 20
61.3682
 11
-0.389411
 21
61.7061
  0
LINE
  8
0
 10
-0.389411
 20
61.7061
 11
0.389411
 21
61.7061
  0
LINE
  8
0
 10
0.389411
 20
61.7061
 11
1.09111
 21
61.3682
  0
LINE
  8
0
 10
1.09111
 20
61.3682
 11
1.5767
 21
60.7593
  0
LINE
  8
0
 10
1.5767
 20
60.7593
 11
1.75
 21
60
  0
LINE
  8
0
 10
1.75
 20
60
 11
1.5767
 21
59.2407
  0
LINE
  8
0
 10
1.5767
 20
59.2407
 11
1.09111
 21
58.6318
  0
LINE
  8
0
 10
1.09111
 20
58.6318
 11
0.389411
 21
58.2939
  0
LINE
  8
0
 10
0.389411
 20
58.2939
 11
-0.389411
 21
58.2939
  0
LINE
  8
0
 10
-0.389411
 20
58.2939
 11
-1.09111
 21
58.6318
  0
LINE
  8
0
 10
-1.09111
 20
58.6318
 11
-1.5767
 21
59.2407
  0
LINE
  8
0
 10
-1.5767
 20
59.2407
 11
-1.75
 21
60
  0
LINE
  8
0
 10
-1.75
 20
80
 11
-1.5767
 21
80.7593
  0
LINE
  8
0
 10
-1.5767
 20
80.7593
 11
-1.09111
 21
81.3682
  0
LINE
  8
0
 10
-1.09111
 20
81.3682
 11
-0.389411
 21
81.7061
  0
LINE
  8
0
 10
-0.389411
 20
81.7061
 11
0.389411
 21
81.7061
  0
LINE
  8
0
 10
0.389411
 20
81.7061
 11
1.09111
 21
81.3682
  0
LINE
  8
0
 10
1.09111
 20
81.3682
 11
1.5767
 21
80.7593
  0
LINE
  8
0
 10
1.5767
 20
80.7593
 11
1.75
 21
80
  0
LINE
  8
0
 10
1.75
 20
80
 11
1.5767
 21
79.2407
  0
LINE
  8
0
 10
1.5767
 20
79.2407
 11
1.09111
 21
78.6318
  0
LINE
  8
0
 10
1.09111
 20
78.6318
 11
0.389411
 21
78.2939
  0
LINE
  8
0
 10
0.389411
 20
78.2939
 11
-0.389411
 21
78.2939
  0
LINE
  8
0
 10
-0.389411
 20
78.2939
 11
-1.09111
 21
78.6318
  0
LINE
  8
0
 10
-1.09111
 20
78.6318
 11
-1.5767
 21
79.2407
  0
LINE
  8
0
 10
-1.5767
 20
79.2407
 11
-1.75
 21
80
  0
LINE
  8
0
 10
-1.75
 20
100
 11
-1.5767
 21
100.759
  0
LINE
  8
0
 10
-1.5767
 20
100.759
 11
-1.09111
 21
101.368
  0
LINE
  8
0
 10
-1.09111
 20
101.368
 11
-0.389411
 21
101.706
  0
LINE
  8
0
 10
-0.389411
 20
101.706
 11
0.389411
 21
101.706
  0
LINE
  8
0
 10
0.389411
 20
101.706
 11
1.09111
 21
101.368
  0
LINE
  8
0
 10
1.09111
 20
101.368
 11
1.5767
 21
100.759
  0
LINE
  8
0
 10
1.5767
 20
100.759
 11
1.75
 21
100
  0
LINE
  8
0
 10
1.75
 20
100
 11
1.5767
 21
99.2407
  0
LINE
  8
0
 10
1.5767
 20
99.2407
 11
1.09111
 21
98.6318
  0
LINE
  8
0
 10
1.09111
 20
98.6318
 11
0.389411
 21
98.2939
  0
LINE
  8
0
 10
0.389411
 20
98.2939
 11
-0.389411
 21
98.2939
  0
LINE
  8
0
 10
-0.389411
 20
98.2939
 11
-1.09111
 21
98.6318
  0
LINE
  8
0
 10
-1.09111
 20
98.6318
 11
-1.5767
 21
99.2407
  0
LINE
  8
0
 10
-1.5767
 20
99.2407
 11
-1.75
 21
100
  0
LINE
  8
0
 10
18.25
 20
-100
 11
18.4233
 21
-99.2407
  0
LINE
  8
0
 10
18.4233
 20
-99.2407
 11
18.9089
 21
-98.6318
  0
LINE
  8
0
 10
18.9089
 20
-98.6318
 11
19.6106
 21
-98.2939
  0
LINE
  8
0
 10
19.6106
 20
-98.2939
 11
20.3894
 21
-98.2939
  0
LINE
  8
0
 10
20.3894
 20
-98.2939
 11
21.0911
 21
-98.6318
  0
LINE
  8
0
 10
21.0911
 20
-98.6318
 11
21.5767
 21
-99.2407
  0
LINE
  8
0
 10
21.5767
 20
-99.2407
 11
21.75
 21
-100
  0
LINE
  8
0
 10
21.75
 20
-100
 11
21.5767
 21
-100.759
  0
LINE
  8
0
 10
21.5767
 20
-100.759
 11
21.0911
 21
-101.368
  0
LINE
  8
0
 10
21.0911
 20
-101.368
 11
20.3894
 21
-101.706
  0
LINE
  8
0
 10
20.3894
 20
-101.706
 11
19.6106
 21
-101.706
  0
LINE
  8
0
 10
19.6106
 20
-101.706
 11
18.9089
 21
-101.368
  0
LINE
  8
0
 10
18.9089
 20
-101.368
 11
18.4233
 21
-100.759
  0
LINE
  8
0
 10
18.4233
 20
-100.759
 11
18.25
 21
-100
  0
LINE
  8
0
 10
18.25
 20
-80
 11
18.4233
 21
-79.2407
  0
LINE
  8
0
 10
18.4233
 20
-79.2407
 11
18.9089
 21
-78.6318
  0
LINE
  8
0
 10
18.9089
 20
-78.6318
 11
19.6106
 21
-78.2939
  0
LINE
  8
0
 10
19.6106
 20
-78.2939
 11
20.3894
 21
-78.2939
  0
LINE
  8
0
 10
20.3894
 20
-78.2939
 11
21.0911
 21
-78.6318
  0
LINE
  8
0
 10
21.0911
 20
-78.6318
 11
21.5767
 21
-79.2407
  0
LINE
  8
0
 10
21.5767
 20
-79.2407
 11
21.75
 21
-80
  0
LINE
  8
0
 10
21.75
 20
-80
 11
21.5767
 21
-80.7593
  0
LINE
  8
0
 10
21.5767
 20
-80.7593
 11
21.0911
 21
-81.3682
  0
LINE
  8
0
 10
21.0911
 20
-81.3682
 11
20.3894
 21
-81.7061
  0
LINE
  8
0
 10
20.3894
 20
-81.7061
 11
19.6106
 21
-81.7061
  0
LINE
  8
0
 10
19.6106
 20
-81.7061
 11
18.9089
 21
-81.3682
  0
LINE
  8
0
 10
18.9089
 20
-81.3682
 11
18.4233
 21
-80.7593
  0
LINE
  8
0
 10
18.4233
 20
-80.7593
 11
18.25
 21
-80
  0
LINE
  8
0
 10
18.25
 20
-60
 11
18.4233
 21
-59.2407
  0
LINE
  8
0
 10
18.4233
 20
-59.2407
 11
18.9089
 21
-58.6318
  0
LINE
  8
0
 10
18.9089
 20
-58.6318
 11
19.6106
 21
-58.2939
  0
LINE
  8
0
 10
19.6106
 20
-58.2939
 11
20.3894
 21
-58.2939
  0
LINE
  8
0
 10
20.3894
 20
-58.2939
 11
21.0911
 21
-58.6318
  0
LINE
  8
0
 10
21.0911
 20
-58.6318
 11
21.5767
 21
-59.2407
  0
LINE
  8
0
 10
21.5767
 20
-59.2407
 11
21.75
 21
-60
  0
LINE
  8
0
 10
21.75
 20
-60
 11
21.5767
 21
-60.7593
  0
LINE
  8
0
 10
21.5767
 20
-60.7593
 11
21.0911
 21
-61.3682
  0
LINE
  8
0
 10
21.0911
 20
-61.3682
 11
20.3894
 21
-61.7061
  0
LINE
  8
0
 10
20.3894
 20
-61.7061
 11
19.6106
 21
-61.7061
  0
LINE
  8
0
 10
19.6106
 20
-61.7061
 11
18.9089
 21
-61.3682
  0
LINE
  8
0
 10
18.9089
 20
-61.3682
 11
18.4233
 21
-60.7593
  0
LINE
  8
0
 10
18.4233
 20
-60.7593
 11
18.25
 21
-60
  0
LINE
  8
0
 10
18.25
 20
-40
 11
18.4233
 21
-39.2407
  0
LINE
  8
0
 10
18.4233
 20
-39.2407
 11
18.9089
 21
-38.6318
  0
LINE
  8
0
 10
18.9089
 20
-38.6318
 11
19.6106
 21
-38.2939
  0
LINE
  8
0
 10
19.6106
 20
-38.2939
 11
20.3894
 21
-38.2939
  0
LINE
  8
0
 10
20.3894
 20
-38.2939
 11
21.0911
 21
-38.6318
  0
LINE
  8
0
 10
21.0911
 20
-38.6318
 11
21.5767
 21
-39.2407
  0
LINE
  8
0
 10
21.5767
 20
-39.2407
 11
21.75
 21
-40
  0
LINE
  8
0
 10
21.75
 20
-40
 11
21.5767
 21
-40.7593
  0
LINE
  8
0
 10
21.5767
 20
-40.7593
 11
21.0911
 21
-41.3682
  0
LINE
  8
0
 10
21.0911
 20
-41.3682
 11
20.3894
 21
-41.7061
  0
LINE
  8
0
 10
20.3894
 20
-41.7061
 11
19.6106
 21
-41.7061
  0
LINE
  8
0
 10
19.6106
 20
-41.7061
 11
18.9089
 21
-41.3682
  0
LINE
  8
0
 10
18.9089
 20
-41.3682
 11
18.4233
 21
-40.7593
  0
LINE
  8
0
 10
18.4233
 20
-40.7593
 11
18.25
 21
-40
  0
LINE
  8
0
 10
18.25
 20
-20
 11
18.4233
 21
-19.2407
  0
LINE
  8
0
 10
18.4233
 20
-19.2407
 11
18.9089
 21
-18.6318
  0
LINE
  8
0
 10
18.9089
 20
-18.6318
 11
19.6106
 21
-18.2939
  0
LINE
  8
0
 10
19.6106
 20
-18.2939
 11
20.3894
 21
-18.2939
  0
LINE
  8
0
 10
20.3894
 20
-18.2939
 11
21.0911
 21
-18.6318
  0
LINE
  8
0
 10
21.0911
 20
-18.6318
 11
21.5767
 21
-19.2407
  0
LINE
  8
0
 10
21.5767
 20
-19.2407
 11
21.75
 21
-20
  0
LINE
  8
0
 10
21.75
 20
-20
 11
21.5767
 21
-20.7593
  0
LINE
  8
0
 10
21.5767
 20
-20.7593
 11
21.0911
 21
-21.3682
  0
LINE
  8
0
 10
21.0911
 20
-21.3682
 11
20.3894
 21
-21.7061
  0
LINE
  8
0
 10
20.3894
 20
-21.7061
 11
19.6106
 21
-21.7061
  0
LINE
  8
0
 10
19.6106
 20
-21.7061
 11
18.9089
 21
-21.3682
  0
LINE
  8
0
 10
18.9089
 20
-21.3682
 11
18.4233
 21
-20.7593
  0
LINE
  8
0
 10
18.4233
 20
-20.7593
 11
18.25
 21
-20
  0
LINE
  8
0
 10
18.25
 20
0
 11
18.4233
 21
0.759296
  0
LINE
  8
0
 10
18.4233
 20
0.759296
 11
18.9089
 21
1.36821
  0
LINE
  8
0
 10
18.9089
 20
1.36821
 11
19.6106
 21
1.70612
  0
LINE
  8
0
 10
19.6106
 20
1.70612
 11
20.3894
 21
1.70612
  0
LINE
  8
0
 10
20.3894
 20
1.70612
 11
21.0911
 21
1.36821
  0
LINE
  8
0
 10
21.0911
 20
1.36821
 11
21.5767
 21
0.759296
  0
LINE
  8
0
 10
21.5767
 20
0.759296
 11
21.75
 21
0
  0
LINE
  8
0
 10
21.75
 20
0
 11
21.5767
 21
-0.759296
  0
LINE
  8
0
 10
21.5767
 20
-0.759296
 11
21.0911
 21
-1.36821
  0
LINE
  8
0
 10
21.0911
 20
-1.36821
 11
20.3894
 21
-1.70612
  0
LINE
  8
0
 10
20.3894
 20
-1.70612
 11
19.6106
 21
-1.70612
  0
LINE
  8
0
 10
19.6106
 20
-1.70612
 11
18.9089
 21
-1.36821
  0
LINE
  8
0
 10
18.9089
 20
-1.36821
 11
18.4233
 21
-0.759296
  0
LINE
  8
0
 10
18.4233
 20
-0.759296
 11
18.25
 21
0
  0
LINE
  8
0
 10
18.25
 20
20
 11
18.4233
 21
20.7593
  0
LINE
  8
0
 10
18.4233
 20
20.7593
 11
18.9089
 21
21.3682
  0
LINE
  8
0
 10
18.9089
 20
21.3682
 11
19.6106
 21
21.7061
  0
LINE
  8
0
 10
19.6106
 20
21.7061
 11
20.3894
 21
21.7061
  0
LINE
  8
0
 10
20.3894
 20
21.7061
 11
21.0911
 21
21.3682
  0
LINE
  8
0
 10
21.0911
 20
21.3682
 11
21.5767
 21
20.7593
  0
LINE
  8
0
 10
21.5767
 20
20.7593
 11
21.75
 21
20
  0
LINE
  8
0
 10
21.75
 20
20
 11
21.5767
 21
19.2407
  0
LINE
  8
0
 10
21.5767
 20
19.2407
 11
21.0911
 21
18.6318
  0
LINE
  8
0
 10
21.0911
 20
18.6318
 11
20.3894
 21
18.2939
  0
LINE
  8
0
 10
20.3894
 20
18.2939
 11
19.6106
 21
18.2939
  0
LINE
  8
0
 10
19.6106
 20
18.2939
 11
18.9089
 21
18.6318
  0
LINE
  8
0
 10
18.9089
 20
18.6318
 11
18.4233
 21
19.2407
  0
LINE
  8
0
 10
18.4233
 20
19.2407
 11
18.25
 21
20
  0
LINE
  8
0
 10
18.25
 20
40
 11
18.4233
 21
40.7593
  0
LINE
  8
0
 10
18.4233
 20
40.7593
 11
18.9089
 21
41.3682
  0
LINE
  8
0
 10
18.9089
 20
41.3682
 11
19.6106
 21
41.7061
  0
LINE
  8
0
 10
19.6106
 20
41.7061
 11
20.3894
 21
41.7061
  0
LINE
  8
0
 10
20.3894
 20
41.7061
 11
21.0911
 21
41.3682
  0
LINE
  8
0
 10
21.0911
 20
41.3682
 11
21.5767
 21
40.7593
  0
LINE
  8
0
 10
21.5767
 20
40.7593
 11
21.75
 21
40
  0
LINE
  8
0
 10
21.75
 20
40
 11
21.5767
 21
39.2407
  0
LINE
  8
0
 10
21.5767
 20
39.2407
 11
21.0911
 21
38.6318
  0
LINE
  8
0
 10
21.0911
 20
38.6318
 11
20.3894
 21
38.2939
  0
LINE
  8
0
 10
20.3894
 20
38.2939
 11
19.6106
 21
38.2939
  0
LINE
  8
0
 10
19.6106
 20
38.2939
 11
18.9089
 21
38.6318
  0
LINE
  8
0
 10
18.9089
 20
38.6318
 11
18.4233
 21
39.2407
  0
LINE
  8
0
 10
18.4233
 20
39.2407
 11
18.25
 21
40
  0
LINE
  8
0
 10
18.25
 20
60
 11
18.4233
 21
60.7593
  0
LINE
  8
0
 10
18.4233
 20
60.7593
 11
18.9089
 21
61.3682
  0
LINE
  8
0
 10
18.9089
 20
61.3682
 11
19.6106
 21
61.7061
  0
LINE
  8
0
 10
19.6106
 20
61.7061
 11
20.3894
 21
61.7061
  0
LINE
  8
0
 10
20.3894
 20
61.7061
 11
21.0911
 21
61.3682
  0
LINE
  8
0
 10
21.0911
 20
61.3682
 11
21.5767
 21
60.7593
  0
LINE
  8
0
 10
21.5767
 20
60.7593
 11
21.75
 21
60
  0
LINE
  8
0
 10
21.75
 20
60
 11
21.5767
 21
59.2407
  0
LINE
  8
0
 10
21.5767
 20
59.2407
 11
21.0911
 21
58.6318
  0
LINE
  8
0
 10
21.0911
 20
58.6318
 11
20.3894
 21
58.2939
  0
LINE
  8
0
 10
20.3894
 20
58.2939
 11
19.6106
 21
58.2939
  0
LINE
  8
0
 10
19.6106
 20
58.2939
 11
18.9089
 21
58.6318
  0
LINE
  8
0
 10
18.9089
 20
58.6318
 11
18.4233
 21
59.2407
  0
LINE
  8
0
 10
18.4233
 20
59.2407
 11
18.25
 21
60
  0
LINE
  8
0
 10
18.25
 20
80
 11
18.4233
 21
80.7593
  0
LINE
  8
0
 10
18.4233
 20
80.7593
 11
18.9089
 21
81.3682
  0
LINE
  8
0
 10
18.9089
 20
81.3682
 11
19.6106
 21
81.7061
  0
LINE
  8
0
 10
19.6106
 20
81.7061
 11
20.3894
 21
81.7061
  0
LINE
  8
0
 10
20.3894
 20
81.7061
 11
21.0911
 21
81.3682
  0
LINE
  8
0
 10
21.0911
 20
81.3682
 11
21.5767
 21
80.7593
  0
LINE
  8
0
 10
21.5767
 20
80.7593
 11
21.75
 21
80
  0
LINE
  8
0
 10
21.75
 20
80
 11
21.5767
 21
79.2407
  0
LINE
  8
0
 10
21.5767
 20
79.2407
 11
21.0911
 21
78.6318
  0
LINE
  8
0
 10
21.0911
 20
78.6318
 11
20.3894
 21
78.2939
  0
LINE
  8
0
 10
20.3894
 20
78.2939
 11
19.6106
 21
78.2939
  0
LINE
  8
0
 10
19.6106
 20
78.2939
 11
18.9089
 21
78.6318
  0
LINE
  8
0
 10
18.9089
 20
78.6318
 11
18.4233
 21
79.2407
  0
LINE
  8
0
 10
18.4233
 20
79.2407
 11
18.25
 21
80
  0
LINE
  8
0
 10
18.25
 20
100
 11
18.4233
 21
100.759
  0
LINE
  8
0
 10
18.4233
 20
100.759
 11
18.9089
 21
101.368
  0
LINE
  8
0
 10
18.9089
 20
101.368
 11
19.6106
 21
101.706
  0
LINE
  8
0
 10
19.6106
 20
101.706
 11
20.3894
 21
101.706
  0
LINE
  8
0
 10
20.3894
 20
101.706
 11
21.0911
 21
101.368
  0
LINE
  8
0
 10
21.0911
 20
101.368
 11
21.5767
 21
100.759
  0
LINE
  8
0
 10
21.5767
 20
100.759
 11
21.75
 21
100
  0
LINE
  8
0
 10
21.75
 20
100
 11
21.5767
 21
99.2407
  0
LINE
  8
0
 10
21.5767
 20
99.2407
 11
21.0911
 21
98.6318
  0
LINE
  8
0
 10
21.0911
 20
98.6318
 11
20.3894
 21
98.2939
  0
LINE
  8
0
 10
20.3894
 20
98.2939
 11
19.6106
 21
98.2939
  0
LINE
  8
0
 10
19.6106
 20
98.2939
 11
18.9089
 21
98.6318
  0
LINE
  8
0
 10
18.9089
 20
98.6318
 11
18.4233
 21
99.2407
  0
LINE
  8
0
 10
18.4233
 20
99.2407
 11
18.25
 21
100
  0
LINE
  8
0
 10
38.25
 20
-80
 11
38.4233
 21
-79.2407
  0
LINE
  8
0
 10
38.4233
 20
-79.2407
 11
38.9089
 21
-78.6318
  0
LINE
  8
0
 10
38.9089
 20
-78.6318
 11
39.6106
 21
-78.2939
  0
LINE
  8
0
 10
39.6106
 20
-78.2939
 11
40.3894
 21
-78.2939
  0
LINE
  8
0
 10
40.3894
 20
-78.2939
 11
41.0911
 21
-78.6318
  0
LINE
  8
0
 10
41.0911
 20
-78.6318
 11
41.5767
 21
-79.2407
  0
LINE
  8
0
 10
41.5767
 20
-79.2407
 11
41.75
 21
-80
  0
LINE
  8
0
 10
41.75
 20
-80
 11
41.5767
 21
-80.7593
  0
LINE
  8
0
 10
41.5767
 20
-80.7593
 11
41.0911
 21
-81.3682
  0
LINE
  8
0
 10
41.0911
 20
-81.3682
 11
40.3894
 21
-81.7061
  0
LINE
  8
0
 10
40.3894
 20
-81.7061
 11
39.6106
 21
-81.7061
  0
LINE
  8
0
 10
39.6106
 20
-81.7061
 11
38.9089
 21
-81.3682
  0
LINE
  8
0
 10
38.9089
 20
-81.3682
 11
38.4233
 21
-80.7593
  0
LINE
  8
0
 10
38.4233
 20
-80.7593
 11
38.25
 21
-80
  0
LINE
  8
0
 10
38.25
 20
-60
 11
38.4233
 21
-59.2407
  0
LINE
  8
0
 10
38.4233
 20
-59.2407
 11
38.9089
 21
-58.6318
  0
LINE
  8
0
 10
38.9089
 20
-58.6318
 11
39.6106
 21
-58.2939
  0
LINE
  8
0
 10
39.6106
 20
-58.2939
 11
40.3894
 21
-58.2939
  0
LINE
  8
0
 10
40.3894
 20
-58.2939
 11
41.0911
 21
-58.6318
  0
LINE
  8
0
 10
41.0911
 20
-58.6318
 11
41.5767
 21
-59.2407
  0
LINE
  8
0
 10
41.5767
 20
-59.2407
 11
41.75
 21
-60
  0
LINE
  8
0
 10
41.75
 20
-60
 11
41.5767
 21
-60.7593
  0
LINE
  8
0
 10
41.5767
 20
-60.7593
 11
41.0911
 21
-61.3682
  0
LINE
  8
0
 10
41.0911
 20
-61.3682
 11
40.3894
 21
-61.7061
  0
LINE
  8
0
 10
40.3894
 20
-61.7061
 11
39.6106
 21
-61.7061
  0
LINE
  8
0
 10
39.6106
 20
-61.7061
 11
38.9089
 21
-61.3682
  0
LINE
  8
0
 10
38.9089
 20
-61.3682
 11
38.4233
 21
-60.7593
  0
LINE
  8
0
 10
38.4233
 20
-60.7593
 11
38.25
 21
-60
  0
LINE
  8
0
 10
38.25
 20
-40
 11
38.4233
 21
-39.2407
  0
LINE
  8
0
 10
38.4233
 20
-39.2407
 11
38.9089
 21
-38.6318
  0
LINE
  8
0
 10
38.9089
 20
-38.6318
 11
39.6106
 21
-38.2939
  0
LINE
  8
0
 10
39.6106
 20
-38.2939
 11
40.3894
 21
-38.2939
  0
LINE
  8
0
 10
40.3894
 20
-38.2939
 11
41.0911
 21
-38.6318
  0
LINE
  8
0
 10
41.0911
 20
-38.6318
 11
41.5767
 21
-39.2407
  0
LINE
  8
0
 10
41.5767
 20
-39.2407
 11
41.75
 21
-40
  0
LINE
  8
0
 10
41.75
 20
-40
 11
41.5767
 21
-40.7593
  0
LINE
  8
0
 10
41.5767
 20
-40.7593
 11
41.0911
 21
-41.3682
  0
LINE
  8
0
 10
41.0911
 20
-41.3682
 11
40.3894
 21
-41.7061
  0
LINE
  8
0
 10
40.3894
 20
-41.7061
 11
39.6106
 21
-41.7061
  0
LINE
  8
0
 10
39.6106
 20
-41.7061
 11
38.9089
 21
-41.3682
  0
LINE
  8
0
 10
38.9089
 20
-41.3682
 11
38.4233
 21
-40.7593
  0
LINE
  8
0
 10
38.4233
 20
-40.7593
 11
38.25
 21
-40
  0
LINE
  8
0
 10
38.25
 20
-20
 11
38.4233
 21
-19.2407
  0
LINE
  8
0
 10
38.4233
 20
-19.2407
 11
38.9089
 21
-18.6318
  0
LINE
  8
0
 10
38.9089
 20
-18.6318
 11
39.6106
 21
-18.2939
  0
LINE
  8
0
 10
39.6106
 20
-18.2939
 11
40.3894
 21
-18.2939
  0
LINE
  8
0
 10
40.3894
 20
-18.2939
 11
41.0911
 21
-18.6318
  0
LINE
  8
0
 10
41.0911
 20
-18.6318
 11
41.5767
 21
-19.2407
  0
LINE
  8
0
 10
41.5767
 20
-19.2407
 11
41.75
 21
-20
  0
LINE
  8
0
 10
41.75
 20
-20
 11
41.5767
 21
-20.7593
  0
LINE
  8
0
 10
41.5767
 20
-20.7593
 11
41.0911
 21
-21.3682
  0
LINE
  8
0
 10
41.0911
 20
-21.3682
 11
40.3894
 21
-21.7061
  0
LINE
  8
0
 10
40.3894
 20
-21.7061
 11
39.6106
 21
-21.7061
  0
LINE
  8
0
 10
39.6106
 20
-21.7061
 11
38.9089
 21
-21.3682
  0
LINE
  8
0
 10
38.9089
 20
-21.3682
 11
38.4233
 21
-20.7593
  0
LINE
  8
0
 10
38.4233
 20
-20.7593
 11
38.25
 21
-20
  0
LINE
  8
0
 10
38.25
 20
0
 11
38.4233
 21
0.759296
  0
LINE
  8
0
 10
38.4233
 20
0.759296
 11
38.9089
 21
1.36821
  0
LINE
  8
0
 10
38.9089
 20
1.36821
 11
39.6106
 21
1.70612
  0
LINE
  8
0
 10
39.6106
 20
1.70612
 11
40.3894
 21
1.70612
  0
LINE
  8
0
 10
40.3894
 20
1.70612
 11
41.0911
 21
1.36821
  0
LINE
  8
0
 10
41.0911
 20
1.36821
 11
41.5767
 21
0.759296
  0
LINE
  8
0
 10
41.5767
 20
0.759296
 11
41.75
 21
0
  0
LINE
  8
0
 10
41.75
 20
0
 11
41.5767
 21
-0.759296
  0
LINE
  8
0
 10
41.5767
 20
-0.759296
 11
41.0911
 21
-1.36821
  0
LINE
  8
0
 10
41.0911
 20
-1.36821
 11
40.3894
 21
-1.70612
  0
LINE
  8
0
 10
40.3894
 20
-1.70612
 11
39.6106
 21
-1.70612
  0
LINE
  8
0
 10
39.6106
 20
-1.70612
 11
38.9089
 21
-1.36821
  0
LINE
  8
0
 10
38.9089
 20
-1.36821
 11
38.4233
 21
-0.759296
  0
LINE
  8
0
 10
38.4233
 20
-0.759296
 11
38.25
 21
0
  0
LINE
  8
0
 10
38.25
 20
20
 11
38.4233
 21
20.7593
  0
LINE
  8
0
 10
38.4233
 20
20.7593
 11
38.9089
 21
21.3682
  0
LINE
  8
0
 10
38.9089
 20
21.3682
 11
39.6106
 21
21.7061
  0
LINE
  8
0
 10
39.6106
 20
21.7061
 11
40.3894
 21
21.7061
  0
LINE
  8
0
 10
40.3894
 20
21.7061
 11
41.0911
 21
21.3682
  0
LINE
  8
0
 10
41.0911
 20
21.3682
 11
41.5767
 21
20.7593
  0
LINE
  8
0
 10
41.5767
 20
20.7593
 11
41.75
 21
20
  0
LINE
  8
0
 10
41.75
 20
20
 11
41.5767
 21
19.2407
  0
LINE
  8
0
 10
41.5767
 20
19.2407
 11
41.0911
 21
18.6318
  0
LINE
  8
0
 10
41.0911
 20
18.6318
 11
40.3894
 21
18.2939
  0
LINE
  8
0
 10
40.3894
 20
18.2939
 11
39.6106
 21
18.2939
  0
LINE
  8
0
 10
39.6106
 20
18.2939
 11
38.9089
 21
18.6318
  0
LINE
  8
0
 10
38.9089
 20
18.6318
 11
38.4233
 21
19.2407
  0
LINE
  8
0
 10
38.4233
 20
19.2407
 11
38.25
 21
20
  0
LINE
  8
0
 10
38.25
 20
40
 11
38.4233
 21
40.7593
  0
LINE
  8
0
 10
38.4233
 20
40.7593
 11
38.9089
 21
41.3682
  0
LINE
  8
0
 10
38.9089
 20
41.3682
 11
39.6106
 21
41.7061
  0
LINE
  8
0
 10
39.6106
 20
41.7061
 11
40.3894
 21
41.7061
  0
LINE
  8
0
 10
40.3894
 20
41.7061
 11
41.0911
 21
41.3682
  0
LINE
  8
0
 10
41.0911
 20
41.3682
 11
41.5767
 21
40.7593
  0
LINE
  8
0
 10
41.5767
 20
40.7593
 11
41.75
 21
40
  0
LINE
  8
0
 10
41.75
 20
40
 11
41.5767
 21
39.2407
  0
LINE
  8
0
 10
41.5767
 20
39.2407
 11
41.0911
 21
38.6318
  0
LINE
  8
0
 10
41.0911
 20
38.6318
 11
40.3894
 21
38.2939
  0
LINE
  8
0
 10
40.3894
 20
38.2939
 11
39.6106
 21
38.2939
  0
LINE
  8
0
 10
39.6106
 20
38.2939
 11
38.9089
 21
38.6318
  0
LINE
  8
0
 10
38.9089
 20
38.6318
 11
38.4233
 21
39.2407
  0
LINE
  8
0
 10
38.4233
 20
39.2407
 11
38.25
 21
40
  0
LINE
  8
0
 10
38.25
 20
60
 11
38.4233
 21
60.7593
  0
LINE
  8
0
 10
38.4233
 20
60.7593
 11
38.9089
 21
61.3682
  0
LINE
  8
0
 10
38.9089
 20
61.3682
 11
39.6106
 21
61.7061
  0
LINE
  8
0
 10
39.6106
 20
61.7061
 11
40.3894
 21
61.7061
  0
LINE
  8
0
 10
40.3894
 20
61.7061
 11
41.0911
 21
61.3682
  0
LINE
  8
0
 10
41.0911
 20
61.3682
 11
41.5767
 21
60.7593
  0
LINE
  8
0
 10
41.5767
 20
60.7593
 11
41.75
 21
60
  0
LINE
  8
0
 10
41.75
 20
60
 11
41.5767
 21
59.2407
  0
LINE
  8
0
 10
41.5767
 20
59.2407
 11
41.0911
 21
58.6318
  0
LINE
  8
0
 10
41.0911
 20
58.6318
 11
40.3894
 21
58.2939
  0
LINE
  8
0
 10
40.3894
 20
58.2939
 11
39.6106
 21
58.2939
  0
LINE
  8
0
 10
39.6106
 20
58.2939
 11
38.9089
 21
58.6318
  0
LINE
  8
0
 10
38.9089
 20
58.6318
 11
38.4233
 21
59.2407
  0
LINE
  8
0
 10
38.4233
 20
59.2407
 11
38.25
 21
60
  0
LINE
  8
0
 10
38.25
 20
80
 11
38.4233
 21
80.7593
  0
LINE
  8
0
 10
38.4233
 20
80.7593
 11
38.9089
 21
81.3682
  0
LINE
  8
0
 10
38.9089
 20
81.3682
 11
39.6106
 21
81.7061
  0
LINE
  8
0
 10
39.6106
 20
81.7061
 11
40.3894
 21
81.7061
  0
LINE
  8
0
 10
40.3894
 20
81.7061
 11
41.0911
 21
81.3682
  0
LINE
  8
0
 10
41.0911
 20
81.3682
 11
41.5767
 21
80.7593
  0
LINE
  8
0
 10
41.5767
 20
80.7593
 11
41.75
 21
80
  0
LINE
  8
0
 10
41.75
 20
80
 11
41.5767
 21
79.2407
  0
LINE
  8
0
 10
41.5767
 20
79.2407
 11
41.0911
 21
78.6318
  0
LINE
  8
0
 10
41.0911
 20
78.6318
 11
40.3894
 21
78.2939
  0
LINE
  8
0
 10
40.3894
 20
78.2939
 11
39.6106
 21
78.2939
  0
LINE
  8
0
 10
39.6106
 20
78.2939
 11
38.9089
 21
78.6318
  0
LINE
  8
0
 10
38.9089
 20
78.6318
 11
38.4233
 21
79.2407
  0
LINE
  8
0
 10
38.4233
 20
79.2407
 11
38.25
 21
80
  0
LINE
  8
0
 10
57.5516
 20
57.5813
 11
57.8361
 21
58.3063
  0
LINE
  8
0
 10
57.8361
 20
58.3063
 11
58.407
 21
58.8361
  0
LINE
  8
0
 10
58.407
 20
58.8361
 11
59.1513
 21
59.0656
  0
LINE
  8
0
 10
59.1513
 20
59.0656
 11
59.9214
 21
58.9495
  0
LINE
  8
0
 10
59.9214
 20
58.9495
 11
60.5649
 21
58.5108
  0
LINE
  8
0
 10
60.5649
 20
58.5108
 11
60.9543
 21
57.8363
  0
LINE
  8
0
 10
60.9543
 20
57.8363
 11
61.0125
 21
57.0597
  0
LINE
  8
0
 10
61.0125
 20
57.0597
 11
60.728
 21
56.3347
  0
LINE
  8
0
 10
60.728
 20
56.3347
 11
60.157
 21
55.805
  0
LINE
  8
0
 10
60.157
 20
55.805
 11
59.4128
 21
55.5754
  0
LINE
  8
0
 10
59.4128
 20
55.5754
 11
58.6427
 21
55.6915
  0
LINE
  8
0
 10
58.6427
 20
55.6915
 11
57.9992
 21
56.1302
  0
LINE
  8
0
 10
57.9992
 20
56.1302
 11
57.6098
 21
56.8047
  0
LINE
  8
0
 10
57.6098
 20
56.8047
 11
57.5516
 21
57.5813
  0
LINE
  8
0
 10
58.25
 20
-80
 11
58.4233
 21
-79.2407
  0
LINE
  8
0
 10
58.4233
 20
-79.2407
 11
58.9089
 21
-78.6318
  0
LINE
  8
0
 10
58.9089
 20
-78.6318
 11
59.6106
 21
-78.2939
  0
LINE
  8
0
 10
59.6106
 20
-78.2939
 11
60.3894
 21
-78.2939
  0
LINE
  8
0
 10
60.3894
 20
-78.2939
 11
61.0911
 21
-78.6318
  0
LINE
  8
0
 10
61.0911
 20
-78.6318
 11
61.5767
 21
-79.2407
  0
LINE
  8
0
 10
61.5767
 20
-79.2407
 11
61.75
 21
-80
  0
LINE
  8
0
 10
61.75
 20
-80
 11
61.5767
 21
-80.7593
  0
LINE
  8
0
 10
61.5767
 20
-80.7593
 11
61.0911
 21
-81.3682
  0
LINE
  8
0
 10
61.0911
 20
-81.3682
 11
60.3894
 21
-81.7061
  0
LINE
  8
0
 10
60.3894
 20
-81.7061
 11
59.6106
 21
-81.7061
  0
LINE
  8
0
 10
59.6106
 20
-81.7061
 11
58.9089
 21
-81.3682
  0
LINE
  8
0
 10
58.9089
 20
-81.3682
 11
58.4233
 21
-80.7593
  0
LINE
  8
0
 10
58.4233
 20
-80.7593
 11
58.25
 21
-80
  0
LINE
  8
0
 10
58.25
 20
-60
 11
58.4233
 21
-59.2407
  0
LINE
  8
0
 10
58.4233
 20
-59.2407
 11
58.9089
 21
-58.6318
  0
LINE
  8
0
 10
58.9089
 20
-58.6318
 11
59.6106
 21
-58.2939
  0
LINE
  8
0
 10
59.6106
 20
-58.2939
 11
60.3894
 21
-58.2939
  0
LINE
  8
0
 10
60.3894
 20
-58.2939
 11
61.0911
 21
-58.6318
  0
LINE
  8
0
 10
61.0911
 20
-58.6318
 11
61.5767
 21
-59.2407
  0
LINE
  8
0
 10
61.5767
 20
-59.2407
 11
61.75
 21
-60
  0
LINE
  8
0
 10
61.75
 20
-60
 11
61.5767
 21
-60.7593
  0
LINE
  8
0
 10
61.5767
 20
-60.7593
 11
61.0911
 21
-61.3682
  0
LINE
  8
0
 10
61.0911
 20
-61.3682
 11
60.3894
 21
-61.7061
  0
LINE
  8
0
 10
60.3894
 20
-61.7061
 11
59.6106
 21
-61.7061
  0
LINE
  8
0
 10
59.6106
 20
-61.7061
 11
58.9089
 21
-61.3682
  0
LINE
  8
0
 10
58.9089
 20
-61.3682
 11
58.4233
 21
-60.7593
  0
LINE
  8
0
 10
58.4233
 20
-60.7593
 11
58.25
 21
-60
  0
LINE
  8
0
 10
58.25
 20
-40
 11
58.4233
 21
-39.2407
  0
LINE
  8
0
 10
58.4233
 20
-39.2407
 11
58.9089
 21
-38.6318
  0
LINE
  8
0
 10
58.9089
 20
-38.6318
 11
59.6106
 21
-38.2939
  0
LINE
  8
0
 10
59.6106
 20
-38.2939
 11
60.3894
 21
-38.2939
  0
LINE
  8
0
 10
60.3894
 20
-38.2939
 11
61.0911
 21
-38.6318
  0
LINE
  8
0
 10
61.0911
 20
-38.6318
 11
61.5767
 21
-39.2407
  0
LINE
  8
0
 10
61.5767
 20
-39.2407
 11
61.75
 21
-40
  0
LINE
  8
0
 10
61.75
 20
-40
 11
61.5767
 21
-40.7593
  0
LINE
  8
0
 10
61.5767
 20
-40.7593
 11
61.0911
 21
-41.3682
  0
LINE
  8
0
 10
61.0911
 20
-41.3682
 11
60.3894
 21
-41.7061
  0
LINE
  8
0
 10
60.3894
 20
-41.7061
 11
59.6106
 21
-41.7061
  0
LINE
  8
0
 10
59.6106
 20
-41.7061
 11
58.9089
 21
-41.3682
  0
LINE
  8
0
 10
58.9089
 20
-41.3682
 11
58.4233
 21
-40.7593
  0
LINE
  8
0
 10
58.4233
 20
-40.7593
 11
58.25
 21
-40
  0
LINE
  8
0
 10
58.25
 20
-20
 11
58.4233
 21
-19.2407
  0
LINE
  8
0
 10
58.4233
 20
-19.2407
 11
58.9089
 21
-18.6318
  0
LINE
  8
0
 10
58.9089
 20
-18.6318
 11
59.6106
 21
-18.2939
  0
LINE
  8
0
 10
59.6106
 20
-18.2939
 11
60.3894
 21
-18.2939
  0
LINE
  8
0
 10
60.3894
 20
-18.2939
 11
61.0911
 21
-18.6318
  0
LINE
  8
0
 10
61.0911
 20
-18.6318
 11
61.5767
 21
-19.2407
  0
LINE
  8
0
 10
61.5767
 20
-19.2407
 11
61.75
 21
-20
  0
LINE
  8
0
 10
61.75
 20
-20
 11
61.5767
 21
-20.7593
  0
LINE
  8
0
 10
61.5767
 20
-20.7593
 11
61.0911
 21
-21.3682
  0
LINE
  8
0
 10
61.0911
 20
-21.3682
 11
60.3894
 21
-21.7061
  0
LINE
  8
0
 10
60.3894
 20
-21.7061
 11
59.6106
 21
-21.7061
  0
LINE
  8
0
 10
59.6106
 20
-21.7061
 11
58.9089
 21
-21.3682
  0
LINE
  8
0
 10
58.9089
 20
-21.3682
 11
58.4233
 21
-20.7593
  0
LINE
  8
0
 10
58.4233
 20
-20.7593
 11
58.25
 21
-20
  0
LINE
  8
0
 10
58.25
 20
0
 11
58.4233
 21
0.759296
  0
LINE
  8
0
 10
58.4233
 20
0.759296
 11
58.9089
 21
1.36821
  0
LINE
  8
0
 10
58.9089
 20
1.36821
 11
59.6106
 21
1.70612
  0
LINE
  8
0
 10
59.6106
 20
1.70612
 11
60.3894
 21
1.70612
  0
LINE
  8
0
 10
60.3894
 20
1.70612
 11
61.0911
 21
1.36821
  0
LINE
  8
0
 10
61.0911
 20
1.36821
 11
61.5767
 21
0.759296
  0
LINE
  8
0
 10
61.5767
 20
0.759296
 11
61.75
 21
0
  0
LINE
  8
0
 10
61.75
 20
0
 11
61.5767
 21
-0.759296
  0
LINE
  8
0
 10
61.5767
 20
-0.759296
 11
61.0911
 21
-1.36821
  0
LINE
  8
0
 10
61.0911
 20
-1.36821
 11
60.3894
 21
-1.70612
  0
LINE
  8
0
 10
60.3894
 20
-1.70612
 11
59.6106
 21
-1.70612
  0
LINE
  8
0
 10
59.6106
 20
-1.70612
 11
58.9089
 21
-1.36821
  0
LINE
  8
0
 10
58.9089
 20
-1.36821
 11
58.4233
 21
-0.759296
  0
LINE
  8
0
 10
58.4233
 20
-0.759296
 11
58.25
 21
0
  0
LINE
  8
0
 10
58.25
 20
20
 11
58.4233
 21
20.7593
  0
LINE
  8
0
 10
58.4233
 20
20.7593
 11
58.9089
 21
21.3682
  0
LINE
  8
0
 10
58.9089
 20
21.3682
 11
59.6106
 21
21.7061
  0
LINE
  8
0
 10
59.6106
 20
21.7061
 11
60.3894
 21
21.7061
  0
LINE
  8
0
 10
60.3894
 20
21.7061
 11
61.0911
 21
21.3682
  0
LINE
  8
0
 10
61.0911
 20
21.3682
 11
61.5767
 21
20.7593
  0
LINE
  8
0
 10
61.5767
 20
20.7593
 11
61.75
 21
20
  0
LINE
  8
0
 10
61.75
 20
20
 11
61.5767
 21
19.2407
  0
LINE
  8
0
 10
61.5767
 20
19.2407
 11
61.0911
 21
18.6318
  0
LINE
  8
0
 10
61.0911
 20
18.6318
 11
60.3894
 21
18.2939
  0
LINE
  8
0
 10
60.3894
 20
18.2939
 11
59.6106
 21
18.2939
  0
LINE
  8
0
 10
59.6106
 20
18.2939
 11
58.9089
 21
18.6318
  0
LINE
  8
0
 10
58.9089
 20
18.6318
 11
58.4233
 21
19.2407
  0
LINE
  8
0
 10
58.4233
 20
19.2407
 11
58.25
 21
20
  0
LINE
  8
0
 10
58.25
 20
80
 11
58.4233
 21
80.7593
  0
LINE
  8
0
 10
58.4233
 20
80.7593
 11
58.9089
 21
81.3682
  0
LINE
  8
0
 10
58.9089
 20
81.3682
 11
59.6106
 21
81.7061
  0
LINE
  8
0
 10
59.6106
 20
81.7061
 11
60.3894
 21
81.7061
  0
LINE
  8
0
 10
60.3894
 20
81.7061
 11
61.0911
 21
81.3682
  0
LINE
  8
0
 10
61.0911
 20
81.3682
 11
61.5767
 21
80.7593
  0
LINE
  8
0
 10
61.5767
 20
80.7593
 11
61.75
 21
80
  0
LINE
  8
0
 10
61.75
 20
80
 11
61.5767
 21
79.2407
  0
LINE
  8
0
 10
61.5767
 20
79.2407
 11
61.0911
 21
78.6318
  0
LINE
  8
0
 10
61.0911
 20
78.6318
 11
60.3894
 21
78.2939
  0
LINE
  8
0
 10
60.3894
 20
78.2939
 11
59.6106
 21
78.2939
  0
LINE
  8
0
 10
59.6106
 20
78.2939
 11
58.9089
 21
78.6318
  0
LINE
  8
0
 10
58.9089
 20
78.6318
 11
58.4233
 21
79.2407
  0
LINE
  8
0
 10
58.4233
 20
79.2407
 11
58.25
 21
80
  0
LINE
  8
0
 10
67.5516
 20
40.2608
 11
67.8361
 21
40.9858
  0
LINE
  8
0
 10
67.8361
 20
40.9858
 11
68.407
 21
41.5155
  0
LINE
  8
0
 10
68.407
 20
41.5155
 11
69.1513
 21
41.7451
  0
LINE
  8
0
 10
69.1513
 20
41.7451
 11
69.9214
 21
41.629
  0
LINE
  8
0
 10
69.9214
 20
41.629
 11
70.5649
 21
41.1903
  0
LINE
  8
0
 10
70.5649
 20
41.1903
 11
70.9543
 21
40.5158
  0
LINE
  8
0
 10
70.9543
 20
40.5158
 11
71.0125
 21
39.7392
  0
LINE
  8
0
 10
71.0125
 20
39.7392
 11
70.728
 21
39.0142
  0
LINE
  8
0
 10
70.728
 20
39.0142
 11
70.157
 21
38.4845
  0
LINE
  8
0
 10
70.157
 20
38.4845
 11
69.4128
 21
38.2549
  0
LINE
  8
0
 10
69.4128
 20
38.2549
 11
68.6427
 21
38.371
  0
LINE
  8
0
 10
68.6427
 20
38.371
 11
67.9992
 21
38.8097
  0
LINE
  8
0
 10
67.9992
 20
38.8097
 11
67.6098
 21
39.4842
  0
LINE
  8
0
 10
67.6098
 20
39.4842
 11
67.5516
 21
40.2608
  0
LINE
  8
0
 10
74.8721
 20
67.5813
 11
75.1566
 21
68.3063
  0
LINE
  8
0
 10
75.1566
 20
68.3063
 11
75.7275
 21
68.8361
  0
LINE
  8
0
 10
75.7275
 20
68.8361
 11
76.4718
 21
69.0656
  0
LINE
  8
0
 10
76.4718
 20
69.0656
 11
77.2419
 21
68.9495
  0
LINE
  8
0
 10
77.2419
 20
68.9495
 11
77.8854
 21
68.5108
  0
LINE
  8
0
 10
77.8854
 20
68.5108
 11
78.2748
 21
67.8363
  0
LINE
  8
0
 10
78.2748
 20
67.8363
 11
78.333
 21
67.0597
  0
LINE
  8
0
 10
78.333
 20
67.0597
 11
78.0485
 21
66.3347
  0
LINE
  8
0
 10
78.0485
 20
66.3347
 11
77.4775
 21
65.805
  0
LINE
  8
0
 10
77.4775
 20
65.805
 11
76.7333
 21
65.5754
  0
LINE
  8
0
 10
76.7333
 20
65.5754
 11
75.9632
 21
65.6915
  0
LINE
  8
0
 10
75.9632
 20
65.6915
 11
75.3197
 21
66.1302
  0
LINE
  8
0
 10
75.3197
 20
66.1302
 11
74.9303
 21
66.8047
  0
LINE
  8
0
 10
74.9303
 20
66.8047
 11
74.8721
 21
67.5813
  0
LINE
  8
0
 10
77.5516
 20
22.9403
 11
77.8361
 21
23.6653
  0
LINE
  8
0
 10
77.8361
 20
23.6653
 11
78.407
 21
24.195
  0
LINE
  8
0
 10
78.407
 20
24.195
 11
79.1513
 21
24.4246
  0
LINE
  8
0
 10
79.1513
 20
24.4246
 11
79.9214
 21
24.3085
  0
LINE
  8
0
 10
79.9214
 20
24.3085
 11
80.5649
 21
23.8698
  0
LINE
  8
0
 10
80.5649
 20
23.8698
 11
80.9543
 21
23.1953
  0
LINE
  8
0
 10
80.9543
 20
23.1953
 11
81.0125
 21
22.4187
  0
LINE
  8
0
 10
81.0125
 20
22.4187
 11
80.728
 21
21.6937
  0
LINE
  8
0
 10
80.728
 20
21.6937
 11
80.157
 21
21.1639
  0
LINE
  8
0
 10
80.157
 20
21.1639
 11
79.4128
 21
20.9344
  0
LINE
  8
0
 10
79.4128
 20
20.9344
 11
78.6427
 21
21.0505
  0
LINE
  8
0
 10
78.6427
 20
21.0505
 11
77.9992
 21
21.4892
  0
LINE
  8
0
 10
77.9992
 20
21.4892
 11
77.6098
 21
22.1637
  0
LINE
  8
0
 10
77.6098
 20
22.1637
 11
77.5516
 21
22.9403
  0
LINE
  8
0
 10
78.25
 20
-60
 11
78.4233
 21
-59.2407
  0
LINE
  8
0
 10
78.4233
 20
-59.2407
 11
78.9089
 21
-58.6318
  0
LINE
  8
0
 10
78.9089
 20
-58.6318
 11
79.6106
 21
-58.2939
  0
LINE
  8
0
 10
79.6106
 20
-58.2939
 11
80.3894
 21
-58.2939
  0
LINE
  8
0
 10
80.3894
 20
-58.2939
 11
81.0911
 21
-58.6318
  0
LINE
  8
0
 10
81.0911
 20
-58.6318
 11
81.5767
 21
-59.2407
  0
LINE
  8
0
 10
81.5767
 20
-59.2407
 11
81.75
 21
-60
  0
LINE
  8
0
 10
81.75
 20
-60
 11
81.5767
 21
-60.7593
  0
LINE
  8
0
 10
81.5767
 20
-60.7593
 11
81.0911
 21
-61.3682
  0
LINE
  8
0
 10
81.0911
 20
-61.3682
 11
80.3894
 21
-61.7061
  0
LINE
  8
0
 10
80.3894
 20
-61.7061
 11
79.6106
 21
-61.7061
  0
LINE
  8
0
 10
79.6106
 20
-61.7061
 11
78.9089
 21
-61.3682
  0
LINE
  8
0
 10
78.9089
 20
-61.3682
 11
78.4233
 21
-60.7593
  0
LINE
  8
0
 10
78.4233
 20
-60.7593
 11
78.25
 21
-60
  0
LINE
  8
0
 10
78.25
 20
-40
 11
78.4233
 21
-39.2407
  0
LINE
  8
0
 10
78.4233
 20
-39.2407
 11
78.9089
 21
-38.6318
  0
LINE
  8
0
 10
78.9089
 20
-38.6318
 11
79.6106
 21
-38.2939
  0
LINE
  8
0
 10
79.6106
 20
-38.2939
 11
80.3894
 21
-38.2939
  0
LINE
  8
0
 10
80.3894
 20
-38.2939
 11
81.0911
 21
-38.6318
  0
LINE
  8
0
 10
81.0911
 20
-38.6318
 11
81.5767
 21
-39.2407
  0
LINE
  8
0
 10
81.5767
 20
-39.2407
 11
81.75
 21
-40
  0
LINE
  8
0
 10
81.75
 20
-40
 11
81.5767
 21
-40.7593
  0
LINE
  8
0
 10
81.5767
 20
-40.7593
 11
81.0911
 21
-41.3682
  0
LINE
  8
0
 10
81.0911
 20
-41.3682
 11
80.3894
 21
-41.7061
  0
LINE
  8
0
 10
80.3894
 20
-41.7061
 11
79.6106
 21
-41.7061
  0
LINE
  8
0
 10
79.6106
 20
-41.7061
 11
78.9089
 21
-41.3682
  0
LINE
  8
0
 10
78.9089
 20
-41.3682
 11
78.4233
 21
-40.7593
  0
LINE
  8
0
 10
78.4233
 20
-40.7593
 11
78.25
 21
-40
  0
LINE
  8
0
 10
78.25
 20
-20
 11
78.4233
 21
-19.2407
  0
LINE
  8
0
 10
78.4233
 20
-19.2407
 11
78.9089
 21
-18.6318
  0
LINE
  8
0
 10
78.9089
 20
-18.6318
 11
79.6106
 21
-18.2939
  0
LINE
  8
0
 10
79.6106
 20
-18.2939
 11
80.3894
 21
-18.2939
  0
LINE
  8
0
 10
80.3894
 20
-18.2939
 11
81.0911
 21
-18.6318
  0
LINE
  8
0
 10
81.0911
 20
-18.6318
 11
81.5767
 21
-19.2407
  0
LINE
  8
0
 10
81.5767
 20
-19.2407
 11
81.75
 21
-20
  0
LINE
  8
0
 10
81.75
 20
-20
 11
81.5767
 21
-20.7593
  0
LINE
  8
0
 10
81.5767
 20
-20.7593
 11
81.0911
 21
-21.3682
  0
LINE
  8
0
 10
81.0911
 20
-21.3682
 11
80.3894
 21
-21.7061
  0
LINE
  8
0
 10
80.3894
 20
-21.7061
 11
79.6106
 21
-21.7061
  0
LINE
  8
0
 10
79.6106
 20
-21.7061
 11
78.9089
 21
-21.3682
  0
LINE
  8
0
 10
78.9089
 20
-21.3682
 11
78.4233
 21
-20.7593
  0
LINE
  8
0
 10
78.4233
 20
-20.7593
 11
78.25
 21
-20
  0
LINE
  8
0
 10
78.25
 20
0
 11
78.4233
 21
0.759296
  0
LINE
  8
0
 10
78.4233
 20
0.759296
 11
78.9089
 21
1.36821
  0
LINE
  8
0
 10
78.9089
 20
1.36821
 11
79.6106
 21
1.70612
  0
LINE
  8
0
 10
79.6106
 20
1.70612
 11
80.3894
 21
1.70612
  0
LINE
  8
0
 10
80.3894
 20
1.70612
 11
81.0911
 21
1.36821
  0
LINE
  8
0
 10
81.0911
 20
1.36821
 11
81.5767
 21
0.759296
  0
LINE
  8
0
 10
81.5767
 20
0.759296
 11
81.75
 21
0
  0
LINE
  8
0
 10
81.75
 20
0
 11
81.5767
 21
-0.759296
  0
LINE
  8
0
 10
81.5767
 20
-0.759296
 11
81.0911
 21
-1.36821
  0
LINE
  8
0
 10
81.0911
 20
-1.36821
 11
80.3894
 21
-1.70612
  0
LINE
  8
0
 10
80.3894
 20
-1.70612
 11
79.6106
 21
-1.70612
  0
LINE
  8
0
 10
79.6106
 20
-1.70612
 11
78.9089
 21
-1.36821
  0
LINE
  8
0
 10
78.9089
 20
-1.36821
 11
78.4233
 21
-0.759296
  0
LINE
  8
0
 10
78.4233
 20
-0.759296
 11
78.25
 21
0
  0
LINE
  8
0
 10
84.8525
 20
50
 11
85.0258
 21
50.7593
  0
LINE
  8
0
 10
85.0258
 20
50.7593
 11
85.5114
 21
51.3682
  0
LINE
  8
0
 10
85.5114
 20
51.3682
 11
86.2131
 21
51.7061
  0
LINE
  8
0
 10
86.2131
 20
51.7061
 11
86.992
 21
51.7061
  0
LINE
  8
0
 10
86.992
 20
51.7061
 11
87.6936
 21
51.3682
  0
LINE
  8
0
 10
87.6936
 20
51.3682
 11
88.1792
 21
50.7593
  0
LINE
  8
0
 10
88.1792
 20
50.7593
 11
88.3525
 21
50
  0
LINE
  8
0
 10
88.3525
 20
50
 11
88.1792
 21
49.2407
  0
LINE
  8
0
 10
88.1792
 20
49.2407
 11
87.6936
 21
48.6318
  0
LINE
  8
0
 10
87.6936
 20
48.6318
 11
86.992
 21
48.2939
  0
LINE
  8
0
 10
86.992
 20
48.2939
 11
86.2131
 21
48.2939
  0
LINE
  8
0
 10
86.2131
 20
48.2939
 11
85.5114
 21
48.6318
  0
LINE
  8
0
 10
85.5114
 20
48.6318
 11
85.0258
 21
49.2407
  0
LINE
  8
0
 10
85.0258
 20
49.2407
 11
84.8525
 21
50
  0
LINE
  8
0
 10
94.8721
 20
32.9403
 11
95.1566
 21
33.6653
  0
LINE
  8
0
 10
95.1566
 20
33.6653
 11
95.7275
 21
34.195
  0
LINE
  8
0
 10
95.7275
 20
34.195
 11
96.4718
 21
34.4246
  0
LINE
  8
0
 10
96.4718
 20
34.4246
 11
97.2419
 21
34.3085
  0
LINE
  8
0
 10
97.2419
 20
34.3085
 11
97.8854
 21
33.8698
  0
LINE
  8
0
 10
97.8854
 20
33.8698
 11
98.2748
 21
33.1953
  0
LINE
  8
0
 10
98.2748
 20
33.1953
 11
98.333
 21
32.4187
  0
LINE
  8
0
 10
98.333
 20
32.4187
 11
98.0485
 21
31.6937
  0
LINE
  8
0
 10
98.0485
 20
31.6937
 11
97.4775
 21
31.1639
  0
LINE
  8
0
 10
97.4775
 20
31.1639
 11
96.7333
 21
30.9344
  0
LINE
  8
0
 10
96.7333
 20
30.9344
 11
95.9632
 21
31.0505
  0
LINE
  8
0
 10
95.9632
 20
31.0505
 11
95.3197
 21
31.4892
  0
LINE
  8
0
 10
95.3197
 20
31.4892
 11
94.9303
 21
32.1637
  0
LINE
  8
0
 10
94.9303
 20
32.1637
 11
94.8721
 21
32.9403
  0
LINE
  8
0
 10
98.25
 20
-20
 11
98.4233
 21
-19.2407
  0
LINE
  8
0
 10
98.4233
 20
-19.2407
 11
98.9089
 21
-18.6318
  0
LINE
  8
0
 10
98.9089
 20
-18.6318
 11
99.6106
 21
-18.2939
  0
LINE
  8
0
 10
99.6106
 20
-18.2939
 11
100.389
 21
-18.2939
  0
LINE
  8
0
 10
100.389
 20
-18.2939
 11
101.091
 21
-18.6318
  0
LINE
  8
0
 10
101.091
 20
-18.6318
 11
101.577
 21
-19.2407
  0
LINE
  8
0
 10
101.577
 20
-19.2407
 11
101.75
 21
-20
  0
LINE
  8
0
 10
101.75
 20
-20
 11
101.577
 21
-20.7593
  0
LINE
  8
0
 10
101.577
 20
-20.7593
 11
101.091
 21
-21.3682
  0
LINE
  8
0
 10
101.091
 20
-21.3682
 11
100.389
 21
-21.7061
  0
LINE
  8
0
 10
100.389
 20
-21.7061
 11
99.6106
 21
-21.7061
  0
LINE
  8
0
 10
99.6106
 20
-21.7061
 11
98.9089
 21
-21.3682
  0
LINE
  8
0
 10
98.9089
 20
-21.3682
 11
98.4233
 21
-20.7593
  0
LINE
  8
0
 10
98.4233
 20
-20.7593
 11
98.25
 21
-20
  0
LINE
  8
0
 10
98.25
 20
0
 11
98.4233
 21
0.759296
  0
LINE
  8
0
 10
98.4233
 20
0.759296
 11
98.9089
 21
1.36821
  0
LINE
  8
0
 10
98.9089
 20
1.36821
 11
99.6106
 21
1.70612
  0
LINE
  8
0
 10
99.6106
 20
1.70612
 11
100.389
 21
1.70612
  0
LINE
  8
0
 10
100.389
 20
1.70612
 11
101.091
 21
1.36821
  0
LINE
  8
0
 10
101.091
 20
1.36821
 11
101.577
 21
0.759296
  0
LINE
  8
0
 10
101.577
 20
0.759296
 11
101.75
 21
0
  0
LINE
  8
0
 10
101.75
 20
0
 11
101.577
 21
-0.759296
  0
LINE
  8
0
 10
101.577
 20
-0.759296
 11
101.091
 21
-1.36821
  0
LINE
  8
0
 10
101.091
 20
-1.36821
 11
100.389
 21
-1.70612
  0
LINE
  8
0
 10
100.389
 20
-1.70612
 11
99.6106
 21
-1.70612
  0
LINE
  8
0
 10
99.6106
 20
-1.70612
 11
98.9089
 21
-1.36821
  0
LINE
  8
0
 10
98.9089
 20
-1.36821
 11
98.4233
 21
-0.759296
  0
LINE
  8
0
 10
98.4233
 20
-0.759296
 11
98.25
 21
0
  0
LINE
  8
0
 10
98.25
 20
20
 11
98.4233
 21
20.7593
  0
LINE
  8
0
 10
98.4233
 20
20.7593
 11
98.9089
 21
21.3682
  0
LINE
  8
0
 10
98.9089
 20
21.3682
 11
99.6106
 21
21.7061
  0
LINE
  8
0
 10
99.6106
 20
21.7061
 11
100.389
 21
21.7061
  0
LINE
  8
0
 10
100.389
 20
21.7061
 11
101.091
 21
21.3682
  0
LINE
  8
0
 10
101.091
 20
21.3682
 11
101.577
 21
20.7593
  0
LINE
  8
0
 10
101.577
 20
20.7593
 11
101.75
 21
20
  0
LINE
  8
0
 10
101.75
 20
20
 11
101.577
 21
19.2407
  0
LINE
  8
0
 10
101.577
 20
19.2407
 11
101.091
 21
18.6318
  0
LINE
  8
0
 10
101.091
 20
18.6318
 11
100.389
 21
18.2939
  0
LINE
  8
0
 10
100.389
 20
18.2939
 11
99.6106
 21
18.2939
  0
LINE
  8
0
 10
99.6106
 20
18.2939
 11
98.9089
 21
18.6318
  0
LINE
  8
0
 10
98.9089
 20
18.6318
 11
98.4233
 21
19.2407
  0
LINE
  8
0
 10
98.4233
 20
19.2407
 11
98.25
 21
20
  0
ENDSEC
  0
SECTION
  2
OBJECTS
  0
DICTIONARY
  0
ENDSEC
  0
EOF
