  0
SECTION
  2
BLOCKS
  0
ENDSEC
  0
SECTION
  2
ENTITIES
  0
LINE
  8
0
 10
-26.6701
 20
8.04953
 11
-26.67
 21
7.99946
  0
LINE
  8
0
 10
-26.67
 20
7.99946
 11
-26.6698
 21
7.86029
  0
LINE
  8
0
 10
-26.6698
 20
7.86029
 11
-26.6598
 21
7.81179
  0
LINE
  8
0
 10
-26.6598
 20
7.81179
 11
-26.6316
 21
7.675
  0
LINE
  8
0
 10
-26.6316
 20
7.675
 11
-26.6126
 21
7.6304
  0
LINE
  8
0
 10
-26.6126
 20
7.6304
 11
-26.5575
 21
7.50139
  0
LINE
  8
0
 10
-26.5575
 20
7.50139
 11
-26.5306
 21
7.46249
  0
LINE
  8
0
 10
-26.5306
 20
7.46249
 11
-26.45
 21
7.34603
  0
LINE
  8
0
 10
-26.45
 20
7.34603
 11
-26.417
 21
7.31429
  0
LINE
  8
0
 10
-26.417
 20
7.31429
 11
-26.3139
 21
7.21507
  0
LINE
  8
0
 10
-26.3139
 20
7.21507
 11
-26.2766
 21
7.19149
  0
LINE
  8
0
 10
-26.2766
 20
7.19149
 11
-26.1539
 21
7.11393
  0
LINE
  8
0
 10
-26.1539
 20
7.11393
 11
-26.1143
 21
7.09886
  0
LINE
  8
0
 10
-26.1143
 20
7.09886
 11
-25.976
 21
7.04802
  0
LINE
  8
0
 10
-25.976
 20
7.04802
 11
-24.4213
 21
6.63144
  0
LINE
  8
0
 10
-24.4213
 20
6.63144
 11
-23.7957
 21
6.46382
  0
LINE
  8
0
 10
-23.7957
 20
6.46382
 11
-22.241
 21
6.04723
  0
LINE
  8
0
 10
-22.241
 20
6.04723
 11
-21.3119
 21
5.79826
  0
LINE
  8
0
 10
-21.3119
 20
5.79826
 11
-20.6863
 21
5.63064
  0
LINE
  8
0
 10
-20.6863
 20
5.63064
 11
-19.7571
 21
5.38168
  0
LINE
  8
0
 10
-19.7571
 20
5.38168
 11
-19.6115
 21
5.32202
  0
LINE
  8
0
 10
-19.6115
 20
5.32202
 11
-19.5089
 21
5.28002
  0
LINE
  8
0
 10
-19.5089
 20
5.28002
 11
-19.3829
 21
5.18569
  0
LINE
  8
0
 10
-19.3829
 20
5.18569
 11
-19.2942
 21
5.11927
  0
LINE
  8
0
 10
-19.2942
 20
5.11927
 11
-19.1959
 21
4.99632
  0
LINE
  8
0
 10
-19.1959
 20
4.99632
 11
-19.1267
 21
4.90975
  0
LINE
  8
0
 10
-19.1267
 20
4.90975
 11
-19.0625
 21
4.76606
  0
LINE
  8
0
 10
-19.0625
 20
4.76606
 11
-19.0173
 21
4.66489
  0
LINE
  8
0
 10
-19.0173
 20
4.66489
 11
-18.9912
 21
4.50967
  0
LINE
  8
0
 10
-18.9912
 20
4.50967
 11
-18.9728
 21
4.40037
  0
LINE
  8
0
 10
-18.9728
 20
4.40037
 11
-18.9865
 21
4.24358
  0
LINE
  8
0
 10
-18.9865
 20
4.24358
 11
-18.9962
 21
4.13317
  0
LINE
  8
0
 10
-18.9962
 20
4.13317
 11
-19.144
 21
3.31365
  0
LINE
  8
0
 10
-19.144
 20
3.31365
 11
-19.2432
 21
2.76323
  0
LINE
  8
0
 10
-19.2432
 20
2.76323
 11
-19.332
 21
1.93523
  0
LINE
  8
0
 10
-19.332
 20
1.93523
 11
-19.3916
 21
1.37912
  0
LINE
  8
0
 10
-19.3916
 20
1.37912
 11
-19.4209
 21
0.546891
  0
LINE
  8
0
 10
-19.4209
 20
0.546891
 11
-19.4406
 21
-0.0120569
  0
LINE
  8
0
 10
-19.4406
 20
-0.0120569
 11
-19.4103
 21
-0.844251
  0
LINE
  8
0
 10
-19.4103
 20
-0.844251
 11
-19.3899
 21
-1.40317
  0
LINE
  8
0
 10
-19.3899
 20
-1.40317
 11
-19.3001
 21
-2.23106
  0
LINE
  8
0
 10
-19.3001
 20
-2.23106
 11
-19.2398
 21
-2.7871
  0
LINE
  8
0
 10
-19.2398
 20
-2.7871
 11
-19.091
 21
-3.60644
  0
LINE
  8
0
 10
-19.091
 20
-3.60644
 11
-18.991
 21
-4.15673
  0
LINE
  8
0
 10
-18.991
 20
-4.15673
 11
-18.9771
 21
-4.31364
  0
LINE
  8
0
 10
-18.9771
 20
-4.31364
 11
-18.9673
 21
-4.42412
  0
LINE
  8
0
 10
-18.9673
 20
-4.42412
 11
-18.9933
 21
-4.57949
  0
LINE
  8
0
 10
-18.9933
 20
-4.57949
 11
-19.0116
 21
-4.68889
  0
LINE
  8
0
 10
-19.0116
 20
-4.68889
 11
-19.0758
 21
-4.83274
  0
LINE
  8
0
 10
-19.0758
 20
-4.83274
 11
-19.121
 21
-4.93403
  0
LINE
  8
0
 10
-19.121
 20
-4.93403
 11
-19.2193
 21
-5.05713
  0
LINE
  8
0
 10
-19.2193
 20
-5.05713
 11
-19.2885
 21
-5.14381
  0
LINE
  8
0
 10
-19.2885
 20
-5.14381
 11
-19.4146
 21
-5.23825
  0
LINE
  8
0
 10
-19.4146
 20
-5.23825
 11
-19.5033
 21
-5.30475
  0
LINE
  8
0
 10
-19.5033
 20
-5.30475
 11
-19.6491
 21
-5.36447
  0
LINE
  8
0
 10
-19.6491
 20
-5.36447
 11
-19.7517
 21
-5.40652
  0
LINE
  8
0
 10
-19.7517
 20
-5.40652
 11
-21.3059
 21
-5.82297
  0
LINE
  8
0
 10
-21.3059
 20
-5.82297
 11
-21.9313
 21
-5.99053
  0
LINE
  8
0
 10
-21.9313
 20
-5.99053
 11
-25.9685
 21
-7.0723
  0
LINE
  8
0
 10
-25.9685
 20
-7.0723
 11
-26.1063
 21
-7.12288
  0
LINE
  8
0
 10
-26.1063
 20
-7.12288
 11
-26.1459
 21
-7.13787
  0
LINE
  8
0
 10
-26.1459
 20
-7.13787
 11
-26.1821
 21
-7.16076
  0
LINE
  8
0
 10
-26.1821
 20
-7.16076
 11
-26.306
 21
-7.23901
  0
LINE
  8
0
 10
-26.306
 20
-7.23901
 11
-26.3382
 21
-7.27
  0
LINE
  8
0
 10
-26.3382
 20
-7.27
 11
-26.4425
 21
-7.37019
  0
LINE
  8
0
 10
-26.4425
 20
-7.37019
 11
-26.4688
 21
-7.40827
  0
LINE
  8
0
 10
-26.4688
 20
-7.40827
 11
-26.5499
 21
-7.52551
  0
LINE
  8
0
 10
-26.5499
 20
-7.52551
 11
-26.605
 21
-7.65472
  0
LINE
  8
0
 10
-26.605
 20
-7.65472
 11
-26.6241
 21
-7.69938
  0
LINE
  8
0
 10
-26.6241
 20
-7.69938
 11
-26.634
 21
-7.74726
  0
LINE
  8
0
 10
-26.634
 20
-7.74726
 11
-26.6623
 21
-7.88446
  0
LINE
  8
0
 10
-26.6623
 20
-7.88446
 11
-26.6624
 21
-8.02373
  0
LINE
  8
0
 10
-26.6624
 20
-8.02373
 11
-26.6625
 21
-8.07384
  0
LINE
  8
0
 10
-26.6625
 20
-8.07384
 11
-26.6421
 21
-8.18122
  0
LINE
  8
0
 10
-26.6421
 20
-8.18122
 11
-26.6252
 21
-8.26012
  0
LINE
  8
0
 10
-26.6252
 20
-8.26012
 11
-26.4866
 21
-8.66541
  0
LINE
  8
0
 10
-26.4866
 20
-8.66541
 11
-26.0827
 21
-9.83458
  0
LINE
  8
0
 10
-26.0827
 20
-9.83458
 11
-25.7293
 21
-10.6932
  0
LINE
  8
0
 10
-25.7293
 20
-10.6932
 11
-25.4489
 21
-11.3745
  0
LINE
  8
0
 10
-25.4489
 20
-11.3745
 11
-25.0449
 21
-12.2105
  0
LINE
  8
0
 10
-25.0449
 20
-12.2105
 11
-24.7243
 21
-12.8738
  0
LINE
  8
0
 10
-24.7243
 20
-12.8738
 11
-24.2711
 21
-13.6842
  0
LINE
  8
0
 10
-24.2711
 20
-13.6842
 11
-23.9115
 21
-14.3272
  0
LINE
  8
0
 10
-23.9115
 20
-14.3272
 11
-23.4106
 21
-15.1091
  0
LINE
  8
0
 10
-23.4106
 20
-15.1091
 11
-23.0133
 21
-15.7294
  0
LINE
  8
0
 10
-23.0133
 20
-15.7294
 11
-22.4667
 21
-16.48
  0
LINE
  8
0
 10
-22.4667
 20
-16.48
 11
-22.033
 21
-17.0755
  0
LINE
  8
0
 10
-22.033
 20
-17.0755
 11
-21.4425
 21
-17.7921
  0
LINE
  8
0
 10
-21.4425
 20
-17.7921
 11
-20.9741
 21
-18.3607
  0
LINE
  8
0
 10
-20.9741
 20
-18.3607
 11
-20.3419
 21
-19.0408
  0
LINE
  8
0
 10
-20.3419
 20
-19.0408
 11
-19.8403
 21
-19.5803
  0
LINE
  8
0
 10
-19.8403
 20
-19.5803
 11
-19.1686
 21
-20.2215
  0
LINE
  8
0
 10
-19.1686
 20
-20.2215
 11
-18.6357
 21
-20.7301
  0
LINE
  8
0
 10
-18.6357
 20
-20.7301
 11
-17.9269
 21
-21.33
  0
LINE
  8
0
 10
-17.9269
 20
-21.33
 11
-17.3646
 21
-21.8059
  0
LINE
  8
0
 10
-17.3646
 20
-21.8059
 11
-16.6213
 21
-22.3624
  0
LINE
  8
0
 10
-16.6213
 20
-22.3624
 11
-16.0315
 21
-22.8039
  0
LINE
  8
0
 10
-16.0315
 20
-22.8039
 11
-15.2563
 21
-23.315
  0
LINE
  8
0
 10
-15.2563
 20
-23.315
 11
-14.6413
 21
-23.7205
  0
LINE
  8
0
 10
-14.6413
 20
-23.7205
 11
-13.8369
 21
-24.1843
  0
LINE
  8
0
 10
-13.8369
 20
-24.1843
 11
-13.1987
 21
-24.5524
  0
LINE
  8
0
 10
-13.1987
 20
-24.5524
 11
-12.3681
 21
-24.9674
  0
LINE
  8
0
 10
-12.3681
 20
-24.9674
 11
-11.7091
 21
-25.2967
  0
LINE
  8
0
 10
-11.7091
 20
-25.2967
 11
-10.8552
 21
-25.6614
  0
LINE
  8
0
 10
-10.8552
 20
-25.6614
 11
-10.1777
 21
-25.9507
  0
LINE
  8
0
 10
-10.1777
 20
-25.9507
 11
-9.3035
 21
-26.2638
  0
LINE
  8
0
 10
-9.3035
 20
-26.2638
 11
-8.60994
 21
-26.5122
  0
LINE
  8
0
 10
-8.60994
 20
-26.5122
 11
-7.71863
 21
-26.7725
  0
LINE
  8
0
 10
-7.71863
 20
-26.7725
 11
-7.01148
 21
-26.979
  0
LINE
  8
0
 10
-7.01148
 20
-26.979
 11
-6.10621
 21
-27.1856
  0
LINE
  8
0
 10
-6.10621
 20
-27.1856
 11
-5.38799
 21
-27.3495
  0
LINE
  8
0
 10
-5.38799
 20
-27.3495
 11
-4.472
 21
-27.5017
  0
LINE
  8
0
 10
-4.472
 20
-27.5017
 11
-3.74527
 21
-27.6224
  0
LINE
  8
0
 10
-3.74527
 20
-27.6224
 11
-2.82183
 21
-27.7197
  0
LINE
  8
0
 10
-2.82183
 20
-27.7197
 11
-2.08919
 21
-27.7968
  0
LINE
  8
0
 10
-2.08919
 20
-27.7968
 11
-1.16159
 21
-27.8387
  0
LINE
  8
0
 10
-1.16159
 20
-27.8387
 11
-0.425656
 21
-27.8719
  0
LINE
  8
0
 10
-0.425656
 20
-27.8719
 11
0.50279
 21
-27.8584
  0
LINE
  8
0
 10
0.50279
 20
-27.8584
 11
1.2394
 21
-27.8476
  0
LINE
  8
0
 10
1.2394
 20
-27.8476
 11
2.16538
 21
-27.7787
  0
LINE
  8
0
 10
2.16538
 20
-27.7787
 11
2.90003
 21
-27.7239
  0
LINE
  8
0
 10
2.90003
 20
-27.7239
 11
3.82024
 21
-27.5998
  0
LINE
  8
0
 10
3.82024
 20
-27.5998
 11
4.55032
 21
-27.5013
  0
LINE
  8
0
 10
4.55032
 20
-27.5013
 11
5.76457
 21
-27.2654
  0
LINE
  8
0
 10
5.76457
 20
-27.2654
 11
6.18478
 21
-27.1823
  0
LINE
  8
0
 10
6.18478
 20
-27.1823
 11
6.26119
 21
-27.1576
  0
LINE
  8
0
 10
6.26119
 20
-27.1576
 11
6.36394
 21
-27.1217
  0
LINE
  8
0
 10
6.36394
 20
-27.1217
 11
6.40727
 21
-27.0966
  0
LINE
  8
0
 10
6.40727
 20
-27.0966
 11
6.5277
 21
-27.0269
  0
LINE
  8
0
 10
6.5277
 20
-27.0269
 11
6.56469
 21
-26.994
  0
LINE
  8
0
 10
6.56469
 20
-26.994
 11
6.66906
 21
-26.9011
  0
LINE
  8
0
 10
6.66906
 20
-26.9011
 11
6.69816
 21
-26.8623
  0
LINE
  8
0
 10
6.69816
 20
-26.8623
 11
6.78236
 21
-26.7502
  0
LINE
  8
0
 10
6.78236
 20
-26.7502
 11
6.80258
 21
-26.7074
  0
LINE
  8
0
 10
6.80258
 20
-26.7074
 11
6.86317
 21
-26.5794
  0
LINE
  8
0
 10
6.86317
 20
-26.5794
 11
6.87414
 21
-26.5349
  0
LINE
  8
0
 10
6.87414
 20
-26.5349
 11
6.90853
 21
-26.3961
  0
LINE
  8
0
 10
6.90853
 20
-26.3961
 11
6.91027
 21
-26.3519
  0
LINE
  8
0
 10
6.91027
 20
-26.3519
 11
6.91612
 21
-26.2069
  0
LINE
  8
0
 10
6.91612
 20
-26.2069
 11
6.90934
 21
-26.1651
  0
LINE
  8
0
 10
6.90934
 20
-26.1651
 11
6.88425
 21
-26.0199
  0
LINE
  8
0
 10
6.88425
 20
-26.0199
 11
6.71663
 21
-25.3943
  0
LINE
  8
0
 10
6.71663
 20
-25.3943
 11
6.05108
 21
-22.9105
  0
LINE
  8
0
 10
6.05108
 20
-22.9105
 11
5.63449
 21
-21.3558
  0
LINE
  8
0
 10
5.63449
 20
-21.3558
 11
5.2179
 21
-19.801
  0
LINE
  8
0
 10
5.2179
 20
-19.801
 11
5.19674
 21
-19.6451
  0
LINE
  8
0
 10
5.19674
 20
-19.6451
 11
5.18184
 21
-19.5352
  0
LINE
  8
0
 10
5.18184
 20
-19.5352
 11
5.20053
 21
-19.379
  0
LINE
  8
0
 10
5.20053
 20
-19.379
 11
5.21369
 21
-19.2689
  0
LINE
  8
0
 10
5.21369
 20
-19.2689
 11
5.27103
 21
-19.1223
  0
LINE
  8
0
 10
5.27103
 20
-19.1223
 11
5.3114
 21
-19.0191
  0
LINE
  8
0
 10
5.3114
 20
-19.0191
 11
5.40372
 21
-18.8916
  0
LINE
  8
0
 10
5.40372
 20
-18.8916
 11
5.46872
 21
-18.8019
  0
LINE
  8
0
 10
5.46872
 20
-18.8019
 11
5.5901
 21
-18.7017
  0
LINE
  8
0
 10
5.5901
 20
-18.7017
 11
5.67556
 21
-18.6311
  0
LINE
  8
0
 10
5.67556
 20
-18.6311
 11
5.81821
 21
-18.5646
  0
LINE
  8
0
 10
5.81821
 20
-18.5646
 11
5.91866
 21
-18.5178
  0
LINE
  8
0
 10
5.91866
 20
-18.5178
 11
6.70229
 21
-18.236
  0
LINE
  8
0
 10
6.70229
 20
-18.236
 11
7.22859
 21
-18.0468
  0
LINE
  8
0
 10
7.22859
 20
-18.0468
 11
7.99005
 21
-17.7096
  0
LINE
  8
0
 10
7.99005
 20
-17.7096
 11
8.50147
 21
-17.4832
  0
LINE
  8
0
 10
8.50147
 20
-17.4832
 11
9.23685
 21
-17.0925
  0
LINE
  8
0
 10
9.23685
 20
-17.0925
 11
9.73075
 21
-16.83
  0
LINE
  8
0
 10
9.73075
 20
-16.83
 11
10.4363
 21
-16.3877
  0
LINE
  8
0
 10
10.4363
 20
-16.3877
 11
10.9101
 21
-16.0906
  0
LINE
  8
0
 10
10.9101
 20
-16.0906
 11
11.5822
 21
-15.5989
  0
LINE
  8
0
 10
11.5822
 20
-15.5989
 11
12.0336
 21
-15.2686
  0
LINE
  8
0
 10
12.0336
 20
-15.2686
 11
12.6688
 21
-14.7301
  0
LINE
  8
0
 10
12.6688
 20
-14.7301
 11
13.0954
 21
-14.3684
  0
LINE
  8
0
 10
13.0954
 20
-14.3684
 11
13.2243
 21
-14.2779
  0
LINE
  8
0
 10
13.2243
 20
-14.2779
 11
13.3151
 21
-14.2141
  0
LINE
  8
0
 10
13.3151
 20
-14.2141
 11
13.4626
 21
-14.1589
  0
LINE
  8
0
 10
13.4626
 20
-14.1589
 11
13.5665
 21
-14.1201
  0
LINE
  8
0
 10
13.5665
 20
-14.1201
 11
13.7232
 21
-14.1037
  0
LINE
  8
0
 10
13.7232
 20
-14.1037
 11
13.8335
 21
-14.0922
  0
LINE
  8
0
 10
13.8335
 20
-14.0922
 11
13.9892
 21
-14.1158
  0
LINE
  8
0
 10
13.9892
 20
-14.1158
 11
14.0989
 21
-14.1324
  0
LINE
  8
0
 10
14.0989
 20
-14.1324
 11
14.2437
 21
-14.1944
  0
LINE
  8
0
 10
14.2437
 20
-14.1944
 11
14.3457
 21
-14.238
  0
LINE
  8
0
 10
14.3457
 20
-14.238
 11
14.4703
 21
-14.3344
  0
LINE
  8
0
 10
14.4703
 20
-14.3344
 11
14.558
 21
-14.4022
  0
LINE
  8
0
 10
14.558
 20
-14.4022
 11
15.0158
 21
-14.86
  0
LINE
  8
0
 10
15.0158
 20
-14.86
 11
15.6958
 21
-15.54
  0
LINE
  8
0
 10
15.6958
 20
-15.54
 11
18.4291
 21
-18.2733
  0
LINE
  8
0
 10
18.4291
 20
-18.2733
 11
19.1091
 21
-18.9532
  0
LINE
  8
0
 10
19.1091
 20
-18.9532
 11
19.2218
 21
-19.0473
  0
LINE
  8
0
 10
19.2218
 20
-19.0473
 11
19.2545
 21
-19.074
  0
LINE
  8
0
 10
19.2545
 20
-19.074
 11
19.2925
 21
-19.094
  0
LINE
  8
0
 10
19.2925
 20
-19.094
 11
19.4222
 21
-19.1621
  0
LINE
  8
0
 10
19.4222
 20
-19.1621
 11
19.4651
 21
-19.1746
  0
LINE
  8
0
 10
19.4651
 20
-19.1746
 11
19.604
 21
-19.2147
  0
LINE
  8
0
 10
19.604
 20
-19.2147
 11
19.6502
 21
-19.2185
  0
LINE
  8
0
 10
19.6502
 20
-19.2185
 11
19.7922
 21
-19.2301
  0
LINE
  8
0
 10
19.7922
 20
-19.2301
 11
19.9317
 21
-19.2133
  0
LINE
  8
0
 10
19.9317
 20
-19.2133
 11
19.9799
 21
-19.2074
  0
LINE
  8
0
 10
19.9799
 20
-19.2074
 11
20.0263
 21
-19.1921
  0
LINE
  8
0
 10
20.0263
 20
-19.1921
 11
20.1593
 21
-19.148
  0
LINE
  8
0
 10
20.1593
 20
-19.148
 11
20.28
 21
-19.0785
  0
LINE
  8
0
 10
20.28
 20
-19.0785
 11
20.3234
 21
-19.0535
  0
LINE
  8
0
 10
20.3234
 20
-19.0535
 11
20.4062
 21
-18.9821
  0
LINE
  8
0
 10
20.4062
 20
-18.9821
 11
20.4661
 21
-18.928
  0
LINE
  8
0
 10
20.4661
 20
-18.928
 11
20.7478
 21
-18.6054
  0
LINE
  8
0
 10
20.7478
 20
-18.6054
 11
21.5583
 21
-17.671
  0
LINE
  8
0
 10
21.5583
 20
-17.671
 11
22.1253
 21
-16.9356
  0
LINE
  8
0
 10
22.1253
 20
-16.9356
 11
22.5751
 21
-16.3522
  0
LINE
  8
0
 10
22.5751
 20
-16.3522
 11
23.0971
 21
-15.5842
  0
LINE
  8
0
 10
23.0971
 20
-15.5842
 11
23.5112
 21
-14.975
  0
LINE
  8
0
 10
23.5112
 20
-14.975
 11
23.9864
 21
-14.1773
  0
LINE
  8
0
 10
23.9864
 20
-14.1773
 11
24.3634
 21
-13.5444
  0
LINE
  8
0
 10
24.3634
 20
-13.5444
 11
24.7902
 21
-12.7197
  0
LINE
  8
0
 10
24.7902
 20
-12.7197
 11
25.1287
 21
-12.0654
  0
LINE
  8
0
 10
25.1287
 20
-12.0654
 11
25.5054
 21
-11.2167
  0
LINE
  8
0
 10
25.5054
 20
-11.2167
 11
25.8043
 21
-10.5434
  0
LINE
  8
0
 10
25.8043
 20
-10.5434
 11
26.1297
 21
-9.6737
  0
LINE
  8
0
 10
26.1297
 20
-9.6737
 11
26.3879
 21
-8.98372
  0
LINE
  8
0
 10
26.3879
 20
-8.98372
 11
26.6607
 21
-8.09617
  0
LINE
  8
0
 10
26.6607
 20
-8.09617
 11
26.8772
 21
-7.39201
  0
LINE
  8
0
 10
26.8772
 20
-7.39201
 11
27.0966
 21
-6.48976
  0
LINE
  8
0
 10
27.0966
 20
-6.48976
 11
27.2706
 21
-5.77392
  0
LINE
  8
0
 10
27.2706
 20
-5.77392
 11
27.4358
 21
-4.86018
  0
LINE
  8
0
 10
27.4358
 20
-4.86018
 11
27.5668
 21
-4.13523
  0
LINE
  8
0
 10
27.5668
 20
-4.13523
 11
27.677
 21
-3.21325
  0
LINE
  8
0
 10
27.677
 20
-3.21325
 11
27.7645
 21
-2.48178
  0
LINE
  8
0
 10
27.7645
 20
-2.48178
 11
27.8195
 21
-1.55486
  0
LINE
  8
0
 10
27.8195
 20
-1.55486
 11
27.8631
 21
-0.819469
  0
LINE
  8
0
 10
27.8631
 20
-0.819469
 11
27.8627
 21
0.109076
  0
LINE
  8
0
 10
27.8627
 20
0.109076
 11
27.8624
 21
0.845763
  0
LINE
  8
0
 10
27.8624
 20
0.845763
 11
27.8065
 21
1.77263
  0
LINE
  8
0
 10
27.8065
 20
1.77263
 11
27.7621
 21
2.50798
  0
LINE
  8
0
 10
27.7621
 20
2.50798
 11
27.651
 21
3.42985
  0
LINE
  8
0
 10
27.651
 20
3.42985
 11
27.5628
 21
4.16124
  0
LINE
  8
0
 10
27.5628
 20
4.16124
 11
27.3969
 21
5.07483
  0
LINE
  8
0
 10
27.3969
 20
5.07483
 11
27.2652
 21
5.79966
  0
LINE
  8
0
 10
27.2652
 20
5.79966
 11
27.045
 21
6.70171
  0
LINE
  8
0
 10
27.045
 20
6.70171
 11
26.8702
 21
7.41737
  0
LINE
  8
0
 10
26.8702
 20
7.41737
 11
26.5965
 21
8.30466
  0
LINE
  8
0
 10
26.5965
 20
8.30466
 11
26.3794
 21
9.00862
  0
LINE
  8
0
 10
26.3794
 20
9.00862
 11
26.0532
 21
9.87798
  0
LINE
  8
0
 10
26.0532
 20
9.87798
 11
25.7944
 21
10.5677
  0
LINE
  8
0
 10
25.7944
 20
10.5677
 11
25.4168
 21
11.4161
  0
LINE
  8
0
 10
25.4168
 20
11.4161
 11
25.1173
 21
12.0891
  0
LINE
  8
0
 10
25.1173
 20
12.0891
 11
24.6898
 21
12.9134
  0
LINE
  8
0
 10
24.6898
 20
12.9134
 11
24.3506
 21
13.5673
  0
LINE
  8
0
 10
24.3506
 20
13.5673
 11
23.8747
 21
14.3646
  0
LINE
  8
0
 10
23.8747
 20
14.3646
 11
23.4971
 21
14.9972
  0
LINE
  8
0
 10
23.4971
 20
14.9972
 11
22.9743
 21
15.7646
  0
LINE
  8
0
 10
22.9743
 20
15.7646
 11
22.5596
 21
16.3735
  0
LINE
  8
0
 10
22.5596
 20
16.3735
 11
21.992
 21
17.1083
  0
LINE
  8
0
 10
21.992
 20
17.1083
 11
21.5417
 21
17.6913
  0
LINE
  8
0
 10
21.5417
 20
17.6913
 11
20.7302
 21
18.6249
  0
LINE
  8
0
 10
20.7302
 20
18.6249
 11
20.4482
 21
18.9473
  0
LINE
  8
0
 10
20.4482
 20
18.9473
 11
20.3886
 21
19.0011
  0
LINE
  8
0
 10
20.3886
 20
19.0011
 11
20.3061
 21
19.0722
  0
LINE
  8
0
 10
20.3061
 20
19.0722
 11
20.2627
 21
19.0972
  0
LINE
  8
0
 10
20.2627
 20
19.0972
 11
20.1421
 21
19.1666
  0
LINE
  8
0
 10
20.1421
 20
19.1666
 11
20.0951
 21
19.1822
  0
LINE
  8
0
 10
20.0951
 20
19.1822
 11
19.9625
 21
19.2261
  0
LINE
  8
0
 10
19.9625
 20
19.2261
 11
19.9144
 21
19.2319
  0
LINE
  8
0
 10
19.9144
 20
19.2319
 11
19.7752
 21
19.2488
  0
LINE
  8
0
 10
19.7752
 20
19.2488
 11
19.728
 21
19.2449
  0
LINE
  8
0
 10
19.728
 20
19.2449
 11
19.5869
 21
19.2334
  0
LINE
  8
0
 10
19.5869
 20
19.2334
 11
19.5429
 21
19.2207
  0
LINE
  8
0
 10
19.5429
 20
19.2207
 11
19.4054
 21
19.181
  0
LINE
  8
0
 10
19.4054
 20
19.181
 11
19.3663
 21
19.1604
  0
LINE
  8
0
 10
19.3663
 20
19.1604
 11
19.2378
 21
19.093
  0
LINE
  8
0
 10
19.2378
 20
19.093
 11
19.2049
 21
19.0662
  0
LINE
  8
0
 10
19.2049
 20
19.0662
 11
19.0918
 21
18.9719
  0
LINE
  8
0
 10
19.0918
 20
18.9719
 11
15.2194
 21
15.0995
  0
LINE
  8
0
 10
15.2194
 20
15.0995
 11
14.5392
 21
14.4194
  0
LINE
  8
0
 10
14.5392
 20
14.4194
 11
14.4148
 21
14.323
  0
LINE
  8
0
 10
14.4148
 20
14.323
 11
14.3271
 21
14.2552
  0
LINE
  8
0
 10
14.3271
 20
14.2552
 11
14.1824
 21
14.1933
  0
LINE
  8
0
 10
14.1824
 20
14.1933
 11
14.0805
 21
14.1496
  0
LINE
  8
0
 10
14.0805
 20
14.1496
 11
13.9249
 21
14.126
  0
LINE
  8
0
 10
13.9249
 20
14.126
 11
13.8153
 21
14.1094
  0
LINE
  8
0
 10
13.8153
 20
14.1094
 11
13.6588
 21
14.1256
  0
LINE
  8
0
 10
13.6588
 20
14.1256
 11
13.5485
 21
14.137
  0
LINE
  8
0
 10
13.5485
 20
14.137
 11
13.4011
 21
14.192
  0
LINE
  8
0
 10
13.4011
 20
14.192
 11
13.2972
 21
14.2307
  0
LINE
  8
0
 10
13.2972
 20
14.2307
 11
13.1683
 21
14.321
  0
LINE
  8
0
 10
13.1683
 20
14.321
 11
13.0775
 21
14.3846
  0
LINE
  8
0
 10
13.0775
 20
14.3846
 11
12.4417
 21
14.9223
  0
LINE
  8
0
 10
12.4417
 20
14.9223
 11
12.0146
 21
15.2835
  0
LINE
  8
0
 10
12.0146
 20
15.2835
 11
11.342
 21
15.7744
  0
LINE
  8
0
 10
11.342
 20
15.7744
 11
10.8902
 21
16.1041
  0
LINE
  8
0
 10
10.8902
 20
16.1041
 11
10.1841
 21
16.5456
  0
LINE
  8
0
 10
10.1841
 20
16.5456
 11
9.70987
 21
16.8421
  0
LINE
  8
0
 10
9.70987
 20
16.8421
 11
8.974
 21
17.2319
  0
LINE
  8
0
 10
8.974
 20
17.2319
 11
8.47977
 21
17.4938
  0
LINE
  8
0
 10
8.47977
 20
17.4938
 11
7.7179
 21
17.8299
  0
LINE
  8
0
 10
7.7179
 20
17.8299
 11
7.2062
 21
18.0557
  0
LINE
  8
0
 10
7.2062
 20
18.0557
 11
6.42222
 21
18.3365
  0
LINE
  8
0
 10
6.42222
 20
18.3365
 11
5.89568
 21
18.5251
  0
LINE
  8
0
 10
5.89568
 20
18.5251
 11
5.75284
 21
18.5915
  0
LINE
  8
0
 10
5.75284
 20
18.5915
 11
5.65226
 21
18.6382
  0
LINE
  8
0
 10
5.65226
 20
18.6382
 11
5.53069
 21
18.7384
  0
LINE
  8
0
 10
5.53069
 20
18.7384
 11
5.44509
 21
18.809
  0
LINE
  8
0
 10
5.44509
 20
18.809
 11
5.35261
 21
18.9365
  0
LINE
  8
0
 10
5.35261
 20
18.9365
 11
5.28749
 21
19.0263
  0
LINE
  8
0
 10
5.28749
 20
19.0263
 11
5.23003
 21
19.1729
  0
LINE
  8
0
 10
5.23003
 20
19.1729
 11
5.18957
 21
19.2762
  0
LINE
  8
0
 10
5.18957
 20
19.2762
 11
5.17082
 21
19.4326
  0
LINE
  8
0
 10
5.17082
 20
19.4326
 11
5.15761
 21
19.5427
  0
LINE
  8
0
 10
5.15761
 20
19.5427
 11
5.17878
 21
19.6988
  0
LINE
  8
0
 10
5.17878
 20
19.6988
 11
5.19368
 21
19.8088
  0
LINE
  8
0
 10
5.19368
 20
19.8088
 11
5.77769
 21
21.9883
  0
LINE
  8
0
 10
5.77769
 20
21.9883
 11
6.02657
 21
22.9172
  0
LINE
  8
0
 10
6.02657
 20
22.9172
 11
6.85946
 21
26.0255
  0
LINE
  8
0
 10
6.85946
 20
26.0255
 11
6.88457
 21
26.1702
  0
LINE
  8
0
 10
6.88457
 20
26.1702
 11
6.89135
 21
26.2119
  0
LINE
  8
0
 10
6.89135
 20
26.2119
 11
6.88967
 21
26.2548
  0
LINE
  8
0
 10
6.88967
 20
26.2548
 11
6.88382
 21
26.4011
  0
LINE
  8
0
 10
6.88382
 20
26.4011
 11
6.87312
 21
26.4446
  0
LINE
  8
0
 10
6.87312
 20
26.4446
 11
6.83846
 21
26.5849
  0
LINE
  8
0
 10
6.83846
 20
26.5849
 11
6.81866
 21
26.6268
  0
LINE
  8
0
 10
6.81866
 20
26.6268
 11
6.75767
 21
26.7557
  0
LINE
  8
0
 10
6.75767
 20
26.7557
 11
6.67332
 21
26.868
  0
LINE
  8
0
 10
6.67332
 20
26.868
 11
6.64418
 21
26.9068
  0
LINE
  8
0
 10
6.64418
 20
26.9068
 11
6.60766
 21
26.9393
  0
LINE
  8
0
 10
6.60766
 20
26.9393
 11
6.503
 21
27.0325
  0
LINE
  8
0
 10
6.503
 20
27.0325
 11
6.38246
 21
27.1022
  0
LINE
  8
0
 10
6.38246
 20
27.1022
 11
6.33909
 21
27.1273
  0
LINE
  8
0
 10
6.33909
 20
27.1273
 11
6.23588
 21
27.1633
  0
LINE
  8
0
 10
6.23588
 20
27.1633
 11
6.15912
 21
27.1882
  0
LINE
  8
0
 10
6.15912
 20
27.1882
 11
5.73884
 21
27.2708
  0
LINE
  8
0
 10
5.73884
 20
27.2708
 11
4.52436
 21
27.5056
  0
LINE
  8
0
 10
4.52436
 20
27.5056
 11
3.60403
 21
27.6288
  0
LINE
  8
0
 10
3.60403
 20
27.6288
 11
2.87387
 21
27.7267
  0
LINE
  8
0
 10
2.87387
 20
27.7267
 11
1.94782
 21
27.7948
  0
LINE
  8
0
 10
1.94782
 20
27.7948
 11
1.21312
 21
27.8488
  0
LINE
  8
0
 10
1.21312
 20
27.8488
 11
0.28466
 21
27.8615
  0
LINE
  8
0
 10
0.28466
 20
27.8615
 11
-0.451959
 21
27.8715
  0
LINE
  8
0
 10
-0.451959
 20
27.8715
 11
-1.37952
 21
27.8287
  0
LINE
  8
0
 10
-1.37952
 20
27.8287
 11
-2.11542
 21
27.7948
  0
LINE
  8
0
 10
-2.11542
 20
27.7948
 11
-3.03877
 21
27.6967
  0
LINE
  8
0
 10
-3.03877
 20
27.6967
 11
-3.77134
 21
27.6189
  0
LINE
  8
0
 10
-3.77134
 20
27.6189
 11
-4.68719
 21
27.4658
  0
LINE
  8
0
 10
-4.68719
 20
27.4658
 11
-5.4138
 21
27.3444
  0
LINE
  8
0
 10
-5.4138
 20
27.3444
 11
-6.31887
 21
27.137
  0
LINE
  8
0
 10
-6.31887
 20
27.137
 11
-7.03693
 21
26.9724
  0
LINE
  8
0
 10
-7.03693
 20
26.9724
 11
-7.928
 21
26.7112
  0
LINE
  8
0
 10
-7.928
 20
26.7112
 11
-8.63496
 21
26.504
  0
LINE
  8
0
 10
-8.63496
 20
26.504
 11
-9.50884
 21
26.1902
  0
LINE
  8
0
 10
-9.50884
 20
26.1902
 11
-10.2022
 21
25.9411
  0
LINE
  8
0
 10
-10.2022
 20
25.9411
 11
-11.0557
 21
25.5756
  0
LINE
  8
0
 10
-11.0557
 20
25.5756
 11
-11.733
 21
25.2856
  0
LINE
  8
0
 10
-11.733
 20
25.2856
 11
-12.5632
 21
24.8698
  0
LINE
  8
0
 10
-12.5632
 20
24.8698
 11
-13.2219
 21
24.5399
  0
LINE
  8
0
 10
-13.2219
 20
24.5399
 11
-14.0258
 21
24.0753
  0
LINE
  8
0
 10
-14.0258
 20
24.0753
 11
-14.6636
 21
23.7066
  0
LINE
  8
0
 10
-14.6636
 20
23.7066
 11
-15.4384
 21
23.1948
  0
LINE
  8
0
 10
-15.4384
 20
23.1948
 11
-16.053
 21
22.7887
  0
LINE
  8
0
 10
-16.053
 20
22.7887
 11
-16.7958
 21
22.2316
  0
LINE
  8
0
 10
-16.7958
 20
22.2316
 11
-17.3852
 21
21.7895
  0
LINE
  8
0
 10
-17.3852
 20
21.7895
 11
-18.0934
 21
21.189
  0
LINE
  8
0
 10
-18.0934
 20
21.189
 11
-18.6552
 21
20.7125
  0
LINE
  8
0
 10
-18.6552
 20
20.7125
 11
-19.3263
 21
20.0708
  0
LINE
  8
0
 10
-19.3263
 20
20.0708
 11
-19.8587
 21
19.5616
  0
LINE
  8
0
 10
-19.8587
 20
19.5616
 11
-20.4903
 21
18.8809
  0
LINE
  8
0
 10
-20.4903
 20
18.8809
 11
-20.9914
 21
18.3409
  0
LINE
  8
0
 10
-20.9914
 20
18.3409
 11
-21.5812
 21
17.6237
  0
LINE
  8
0
 10
-21.5812
 20
17.6237
 11
-22.0491
 21
17.0547
  0
LINE
  8
0
 10
-22.0491
 20
17.0547
 11
-22.595
 21
16.3036
  0
LINE
  8
0
 10
-22.595
 20
16.3036
 11
-23.0281
 21
15.7077
  0
LINE
  8
0
 10
-23.0281
 20
15.7077
 11
-23.5282
 21
14.9253
  0
LINE
  8
0
 10
-23.5282
 20
14.9253
 11
-23.925
 21
14.3046
  0
LINE
  8
0
 10
-23.925
 20
14.3046
 11
-24.3775
 21
13.4938
  0
LINE
  8
0
 10
-24.3775
 20
13.4938
 11
-24.7365
 21
12.8505
  0
LINE
  8
0
 10
-24.7365
 20
12.8505
 11
-25.1397
 21
12.0141
  0
LINE
  8
0
 10
-25.1397
 20
12.0141
 11
-25.4596
 21
11.3505
  0
LINE
  8
0
 10
-25.4596
 20
11.3505
 11
-25.8122
 21
10.4915
  0
LINE
  8
0
 10
-25.8122
 20
10.4915
 11
-26.092
 21
9.80996
  0
LINE
  8
0
 10
-26.092
 20
9.80996
 11
-26.4948
 21
8.64041
  0
LINE
  8
0
 10
-26.4948
 20
8.64041
 11
-26.633
 21
8.23499
  0
LINE
  8
0
 10
-26.633
 20
8.23499
 11
-26.6498
 21
8.15644
  0
LINE
  8
0
 10
-26.6498
 20
8.15644
 11
-26.6701
 21
8.04953
  0
LINE
  8
0
 10
-22.7749
 20
-11.9062
 11
-22.7278
 21
-11.4587
  0
LINE
  8
0
 10
-22.7278
 20
-11.4587
 11
-22.5888
 21
-11.0307
  0
LINE
  8
0
 10
-22.5888
 20
-11.0307
 11
-22.3638
 21
-10.641
  0
LINE
  8
0
 10
-22.3638
 20
-10.641
 11
-22.0626
 21
-10.3065
  0
LINE
  8
0
 10
-22.0626
 20
-10.3065
 11
-21.6986
 21
-10.042
  0
LINE
  8
0
 10
-21.6986
 20
-10.042
 11
-21.2874
 21
-9.85896
  0
LINE
  8
0
 10
-21.2874
 20
-9.85896
 11
-20.8472
 21
-9.76539
  0
LINE
  8
0
 10
-20.8472
 20
-9.76539
 11
-20.3972
 21
-9.76539
  0
LINE
  8
0
 10
-20.3972
 20
-9.76539
 11
-19.957
 21
-9.85896
  0
LINE
  8
0
 10
-19.957
 20
-9.85896
 11
-19.5459
 21
-10.042
  0
LINE
  8
0
 10
-19.5459
 20
-10.042
 11
-19.1818
 21
-10.3065
  0
LINE
  8
0
 10
-19.1818
 20
-10.3065
 11
-18.8807
 21
-10.641
  0
LINE
  8
0
 10
-18.8807
 20
-10.641
 11
-18.6557
 21
-11.0307
  0
LINE
  8
0
 10
-18.6557
 20
-11.0307
 11
-18.5166
 21
-11.4587
  0
LINE
  8
0
 10
-18.5166
 20
-11.4587
 11
-18.4696
 21
-11.9062
  0
LINE
  8
0
 10
-18.4696
 20
-11.9062
 11
-18.5166
 21
-12.3538
  0
LINE
  8
0
 10
-18.5166
 20
-12.3538
 11
-18.6557
 21
-12.7818
  0
LINE
  8
0
 10
-18.6557
 20
-12.7818
 11
-18.8807
 21
-13.1715
  0
LINE
  8
0
 10
-18.8807
 20
-13.1715
 11
-19.1818
 21
-13.506
  0
LINE
  8
0
 10
-19.1818
 20
-13.506
 11
-19.5459
 21
-13.7705
  0
LINE
  8
0
 10
-19.5459
 20
-13.7705
 11
-19.957
 21
-13.9535
  0
LINE
  8
0
 10
-19.957
 20
-13.9535
 11
-20.3972
 21
-14.0471
  0
LINE
  8
0
 10
-20.3972
 20
-14.0471
 11
-20.8472
 21
-14.0471
  0
LINE
  8
0
 10
-20.8472
 20
-14.0471
 11
-21.2874
 21
-13.9535
  0
LINE
  8
0
 10
-21.2874
 20
-13.9535
 11
-21.6986
 21
-13.7705
  0
LINE
  8
0
 10
-21.6986
 20
-13.7705
 11
-22.0626
 21
-13.506
  0
LINE
  8
0
 10
-22.0626
 20
-13.506
 11
-22.3638
 21
-13.1715
  0
LINE
  8
0
 10
-22.3638
 20
-13.1715
 11
-22.5888
 21
-12.7818
  0
LINE
  8
0
 10
-22.5888
 20
-12.7818
 11
-22.7278
 21
-12.3538
  0
LINE
  8
0
 10
-22.7278
 20
-12.3538
 11
-22.7749
 21
-11.9062
  0
LINE
  8
0
 10
-22.7749
 20
11.9062
 11
-22.7278
 21
12.3538
  0
LINE
  8
0
 10
-22.7278
 20
12.3538
 11
-22.5888
 21
12.7818
  0
LINE
  8
0
 10
-22.5888
 20
12.7818
 11
-22.3638
 21
13.1715
  0
LINE
  8
0
 10
-22.3638
 20
13.1715
 11
-22.0626
 21
13.506
  0
LINE
  8
0
 10
-22.0626
 20
13.506
 11
-21.6986
 21
13.7705
  0
LINE
  8
0
 10
-21.6986
 20
13.7705
 11
-21.2874
 21
13.9535
  0
LINE
  8
0
 10
-21.2874
 20
13.9535
 11
-20.8472
 21
14.0471
  0
LINE
  8
0
 10
-20.8472
 20
14.0471
 11
-20.3972
 21
14.0471
  0
LINE
  8
0
 10
-20.3972
 20
14.0471
 11
-19.957
 21
13.9535
  0
LINE
  8
0
 10
-19.957
 20
13.9535
 11
-19.5459
 21
13.7705
  0
LINE
  8
0
 10
-19.5459
 20
13.7705
 11
-19.1818
 21
13.506
  0
LINE
  8
0
 10
-19.1818
 20
13.506
 11
-18.8807
 21
13.1715
  0
LINE
  8
0
 10
-18.8807
 20
13.1715
 11
-18.6557
 21
12.7818
  0
LINE
  8
0
 10
-18.6557
 20
12.7818
 11
-18.5166
 21
12.3538
  0
LINE
  8
0
 10
-18.5166
 20
12.3538
 11
-18.4696
 21
11.9062
  0
LINE
  8
0
 10
-18.4696
 20
11.9062
 11
-18.5166
 21
11.4587
  0
LINE
  8
0
 10
-18.5166
 20
11.4587
 11
-18.6557
 21
11.0307
  0
LINE
  8
0
 10
-18.6557
 20
11.0307
 11
-18.8807
 21
10.641
  0
LINE
  8
0
 10
-18.8807
 20
10.641
 11
-19.1818
 21
10.3065
  0
LINE
  8
0
 10
-19.1818
 20
10.3065
 11
-19.5459
 21
10.042
  0
LINE
  8
0
 10
-19.5459
 20
10.042
 11
-19.957
 21
9.85896
  0
LINE
  8
0
 10
-19.957
 20
9.85896
 11
-20.3972
 21
9.76539
  0
LINE
  8
0
 10
-20.3972
 20
9.76539
 11
-20.8472
 21
9.76539
  0
LINE
  8
0
 10
-20.8472
 20
9.76539
 11
-21.2874
 21
9.85896
  0
LINE
  8
0
 10
-21.2874
 20
9.85896
 11
-21.6986
 21
10.042
  0
LINE
  8
0
 10
-21.6986
 20
10.042
 11
-22.0626
 21
10.3065
  0
LINE
  8
0
 10
-22.0626
 20
10.3065
 11
-22.3638
 21
10.641
  0
LINE
  8
0
 10
-22.3638
 20
10.641
 11
-22.5888
 21
11.0307
  0
LINE
  8
0
 10
-22.5888
 20
11.0307
 11
-22.7278
 21
11.4587
  0
LINE
  8
0
 10
-22.7278
 20
11.4587
 11
-22.7749
 21
11.9062
  0
LINE
  8
0
 10
-8.75
 20
0
 11
-8.70283
 21
0.403577
  0
LINE
  8
0
 10
-8.70283
 20
0.403577
 11
-8.56386
 21
0.785398
  0
LINE
  8
0
 10
-8.56386
 20
0.785398
 11
-8.34058
 21
1.12488
  0
LINE
  8
0
 10
-8.34058
 20
1.12488
 11
-8.04503
 21
1.40372
  0
LINE
  8
0
 10
-8.04503
 20
1.40372
 11
-7.69314
 21
1.60688
  0
LINE
  8
0
 10
-7.69314
 20
1.60688
 11
-7.30388
 21
1.72341
  0
LINE
  8
0
 10
-7.30388
 20
1.72341
 11
-6.89825
 21
1.74704
  0
LINE
  8
0
 10
-6.89825
 20
1.74704
 11
-6.49809
 21
1.67648
  0
LINE
  8
0
 10
-6.49809
 20
1.67648
 11
-6.125
 21
1.51554
  0
LINE
  8
0
 10
-6.125
 20
1.51554
 11
-5.79908
 21
1.2729
  0
LINE
  8
0
 10
-5.79908
 20
1.2729
 11
-5.5379
 21
0.96164
  0
LINE
  8
0
 10
-5.5379
 20
0.96164
 11
-5.35554
 21
0.598535
  0
LINE
  8
0
 10
-5.35554
 20
0.598535
 11
-5.26183
 21
0.203162
  0
LINE
  8
0
 10
-5.26183
 20
0.203162
 11
-5.26183
 21
-0.203162
  0
LINE
  8
0
 10
-5.26183
 20
-0.203162
 11
-5.35554
 21
-0.598535
  0
LINE
  8
0
 10
-5.35554
 20
-0.598535
 11
-5.5379
 21
-0.96164
  0
LINE
  8
0
 10
-5.5379
 20
-0.96164
 11
-5.79908
 21
-1.2729
  0
LINE
  8
0
 10
-5.79908
 20
-1.2729
 11
-6.125
 21
-1.51554
  0
LINE
  8
0
 10
-6.125
 20
-1.51554
 11
-6.49809
 21
-1.67648
  0
LINE
  8
0
 10
-6.49809
 20
-1.67648
 11
-6.89825
 21
-1.74704
  0
LINE
  8
0
 10
-6.89825
 20
-1.74704
 11
-7.30388
 21
-1.72341
  0
LINE
  8
0
 10
-7.30388
 20
-1.72341
 11
-7.69314
 21
-1.60688
  0
LINE
  8
0
 10
-7.69314
 20
-1.60688
 11
-8.04503
 21
-1.40372
  0
LINE
  8
0
 10
-8.04503
 20
-1.40372
 11
-8.34058
 21
-1.12488
  0
LINE
  8
0
 10
-8.34058
 20
-1.12488
 11
-8.56386
 21
-0.785398
  0
LINE
  8
0
 10
-8.56386
 20
-0.785398
 11
-8.70283
 21
-0.403577
  0
LINE
  8
0
 10
-8.70283
 20
-0.403577
 11
-8.75
 21
0
  0
LINE
  8
0
 10
-3.5
 20
0
 11
-3.45226
 21
0.57608
  0
LINE
  8
0
 10
-3.45226
 20
0.57608
 11
-3.31036
 21
1.13645
  0
LINE
  8
0
 10
-3.31036
 20
1.13645
 11
-3.07816
 21
1.66582
  0
LINE
  8
0
 10
-3.07816
 20
1.66582
 11
-2.76199
 21
2.14974
  0
LINE
  8
0
 10
-2.76199
 20
2.14974
 11
-2.37049
 21
2.57503
  0
LINE
  8
0
 10
-2.37049
 20
2.57503
 11
-1.91432
 21
2.93008
  0
LINE
  8
0
 10
-1.91432
 20
2.93008
 11
-1.40593
 21
3.20521
  0
LINE
  8
0
 10
-1.40593
 20
3.20521
 11
-0.859199
 21
3.3929
  0
LINE
  8
0
 10
-0.859199
 20
3.3929
 11
-0.289027
 21
3.48805
  0
LINE
  8
0
 10
-0.289027
 20
3.48805
 11
0.289027
 21
3.48805
  0
LINE
  8
0
 10
0.289027
 20
3.48805
 11
0.859199
 21
3.3929
  0
LINE
  8
0
 10
0.859199
 20
3.3929
 11
1.40593
 21
3.20521
  0
LINE
  8
0
 10
1.40593
 20
3.20521
 11
1.91432
 21
2.93008
  0
LINE
  8
0
 10
1.91432
 20
2.93008
 11
2.37049
 21
2.57503
  0
LINE
  8
0
 10
2.37049
 20
2.57503
 11
2.76199
 21
2.14974
  0
LINE
  8
0
 10
2.76199
 20
2.14974
 11
3.07816
 21
1.66582
  0
LINE
  8
0
 10
3.07816
 20
1.66582
 11
3.31036
 21
1.13645
  0
LINE
  8
0
 10
3.31036
 20
1.13645
 11
3.45226
 21
0.57608
  0
LINE
  8
0
 10
3.45226
 20
0.57608
 11
3.5
 21
0
  0
LINE
  8
0
 10
3.5
 20
0
 11
3.45226
 21
-0.57608
  0
LINE
  8
0
 10
3.45226
 20
-0.57608
 11
3.31036
 21
-1.13645
  0
LINE
  8
0
 10
3.31036
 20
-1.13645
 11
3.07816
 21
-1.66582
  0
LINE
  8
0
 10
3.07816
 20
-1.66582
 11
2.76199
 21
-2.14974
  0
LINE
  8
0
 10
2.76199
 20
-2.14974
 11
2.37049
 21
-2.57503
  0
LINE
  8
0
 10
2.37049
 20
-2.57503
 11
1.91432
 21
-2.93008
  0
LINE
  8
0
 10
1.91432
 20
-2.93008
 11
1.40593
 21
-3.20521
  0
LINE
  8
0
 10
1.40593
 20
-3.20521
 11
0.859199
 21
-3.3929
  0
LINE
  8
0
 10
0.859199
 20
-3.3929
 11
0.289027
 21
-3.48805
  0
LINE
  8
0
 10
0.289027
 20
-3.48805
 11
-0.289027
 21
-3.48805
  0
LINE
  8
0
 10
-0.289027
 20
-3.48805
 11
-0.859199
 21
-3.3929
  0
LINE
  8
0
 10
-0.859199
 20
-3.3929
 11
-1.40593
 21
-3.20521
  0
LINE
  8
0
 10
-1.40593
 20
-3.20521
 11
-1.91432
 21
-2.93008
  0
LINE
  8
0
 10
-1.91432
 20
-2.93008
 11
-2.37049
 21
-2.57503
  0
LINE
  8
0
 10
-2.37049
 20
-2.57503
 11
-2.76199
 21
-2.14974
  0
LINE
  8
0
 10
-2.76199
 20
-2.14974
 11
-3.07816
 21
-1.66582
  0
LINE
  8
0
 10
-3.07816
 20
-1.66582
 11
-3.31036
 21
-1.13645
  0
LINE
  8
0
 10
-3.31036
 20
-1.13645
 11
-3.45226
 21
-0.57608
  0
LINE
  8
0
 10
-3.45226
 20
-0.57608
 11
-3.5
 21
0
  0
LINE
  8
0
 10
-2.15265
 20
-23.8125
 11
-2.10561
 21
-23.3649
  0
LINE
  8
0
 10
-2.10561
 20
-23.3649
 11
-1.96654
 21
-22.9369
  0
LINE
  8
0
 10
-1.96654
 20
-22.9369
 11
-1.74153
 21
-22.5472
  0
LINE
  8
0
 10
-1.74153
 20
-22.5472
 11
-1.4404
 21
-22.2128
  0
LINE
  8
0
 10
-1.4404
 20
-22.2128
 11
-1.07632
 21
-21.9482
  0
LINE
  8
0
 10
-1.07632
 20
-21.9482
 11
-0.665205
 21
-21.7652
  0
LINE
  8
0
 10
-0.665205
 20
-21.7652
 11
-0.225013
 21
-21.6716
  0
LINE
  8
0
 10
-0.225013
 20
-21.6716
 11
0.225013
 21
-21.6716
  0
LINE
  8
0
 10
0.225013
 20
-21.6716
 11
0.665205
 21
-21.7652
  0
LINE
  8
0
 10
0.665205
 20
-21.7652
 11
1.07632
 21
-21.9482
  0
LINE
  8
0
 10
1.07632
 20
-21.9482
 11
1.4404
 21
-22.2128
  0
LINE
  8
0
 10
1.4404
 20
-22.2128
 11
1.74153
 21
-22.5472
  0
LINE
  8
0
 10
1.74153
 20
-22.5472
 11
1.96654
 21
-22.9369
  0
LINE
  8
0
 10
1.96654
 20
-22.9369
 11
2.10561
 21
-23.3649
  0
LINE
  8
0
 10
2.10561
 20
-23.3649
 11
2.15265
 21
-23.8125
  0
LINE
  8
0
 10
2.15265
 20
-23.8125
 11
2.10561
 21
-24.2601
  0
LINE
  8
0
 10
2.10561
 20
-24.2601
 11
1.96654
 21
-24.6881
  0
LINE
  8
0
 10
1.96654
 20
-24.6881
 11
1.74153
 21
-25.0778
  0
LINE
  8
0
 10
1.74153
 20
-25.0778
 11
1.4404
 21
-25.4122
  0
LINE
  8
0
 10
1.4404
 20
-25.4122
 11
1.07632
 21
-25.6768
  0
LINE
  8
0
 10
1.07632
 20
-25.6768
 11
0.665205
 21
-25.8598
  0
LINE
  8
0
 10
0.665205
 20
-25.8598
 11
0.225013
 21
-25.9534
  0
LINE
  8
0
 10
0.225013
 20
-25.9534
 11
-0.225013
 21
-25.9534
  0
LINE
  8
0
 10
-0.225013
 20
-25.9534
 11
-0.665205
 21
-25.8598
  0
LINE
  8
0
 10
-0.665205
 20
-25.8598
 11
-1.07632
 21
-25.6768
  0
LINE
  8
0
 10
-1.07632
 20
-25.6768
 11
-1.4404
 21
-25.4122
  0
LINE
  8
0
 10
-1.4404
 20
-25.4122
 11
-1.74153
 21
-25.0778
  0
LINE
  8
0
 10
-1.74153
 20
-25.0778
 11
-1.96654
 21
-24.6881
  0
LINE
  8
0
 10
-1.96654
 20
-24.6881
 11
-2.10561
 21
-24.2601
  0
LINE
  8
0
 10
-2.10561
 20
-24.2601
 11
-2.15265
 21
-23.8125
  0
LINE
  8
0
 10
-2.15265
 20
23.8125
 11
-2.10561
 21
24.2601
  0
LINE
  8
0
 10
-2.10561
 20
24.2601
 11
-1.96654
 21
24.6881
  0
LINE
  8
0
 10
-1.96654
 20
24.6881
 11
-1.74153
 21
25.0778
  0
LINE
  8
0
 10
-1.74153
 20
25.0778
 11
-1.4404
 21
25.4122
  0
LINE
  8
0
 10
-1.4404
 20
25.4122
 11
-1.07632
 21
25.6768
  0
LINE
  8
0
 10
-1.07632
 20
25.6768
 11
-0.665205
 21
25.8598
  0
LINE
  8
0
 10
-0.665205
 20
25.8598
 11
-0.225013
 21
25.9534
  0
LINE
  8
0
 10
-0.225013
 20
25.9534
 11
0.225013
 21
25.9534
  0
LINE
  8
0
 10
0.225013
 20
25.9534
 11
0.665205
 21
25.8598
  0
LINE
  8
0
 10
0.665205
 20
25.8598
 11
1.07632
 21
25.6768
  0
LINE
  8
0
 10
1.07632
 20
25.6768
 11
1.4404
 21
25.4122
  0
LINE
  8
0
 10
1.4404
 20
25.4122
 11
1.74153
 21
25.0778
  0
LINE
  8
0
 10
1.74153
 20
25.0778
 11
1.96654
 21
24.6881
  0
LINE
  8
0
 10
1.96654
 20
24.6881
 11
2.10561
 21
24.2601
  0
LINE
  8
0
 10
2.10561
 20
24.2601
 11
2.15265
 21
23.8125
  0
LINE
  8
0
 10
2.15265
 20
23.8125
 11
2.10561
 21
23.3649
  0
LINE
  8
0
 10
2.10561
 20
23.3649
 11
1.96654
 21
22.9369
  0
LINE
  8
0
 10
1.96654
 20
22.9369
 11
1.74153
 21
22.5472
  0
LINE
  8
0
 10
1.74153
 20
22.5472
 11
1.4404
 21
22.2128
  0
LINE
  8
0
 10
1.4404
 20
22.2128
 11
1.07632
 21
21.9482
  0
LINE
  8
0
 10
1.07632
 20
21.9482
 11
0.665205
 21
21.7652
  0
LINE
  8
0
 10
0.665205
 20
21.7652
 11
0.225013
 21
21.6716
  0
LINE
  8
0
 10
0.225013
 20
21.6716
 11
-0.225013
 21
21.6716
  0
LINE
  8
0
 10
-0.225013
 20
21.6716
 11
-0.665205
 21
21.7652
  0
LINE
  8
0
 10
-0.665205
 20
21.7652
 11
-1.07632
 21
21.9482
  0
LINE
  8
0
 10
-1.07632
 20
21.9482
 11
-1.4404
 21
22.2128
  0
LINE
  8
0
 10
-1.4404
 20
22.2128
 11
-1.74153
 21
22.5472
  0
LINE
  8
0
 10
-1.74153
 20
22.5472
 11
-1.96654
 21
22.9369
  0
LINE
  8
0
 10
-1.96654
 20
22.9369
 11
-2.10561
 21
23.3649
  0
LINE
  8
0
 10
-2.10561
 20
23.3649
 11
-2.15265
 21
23.8125
  0
LINE
  8
0
 10
-1.75
 20
-7
 11
-1.70283
 21
-6.59642
  0
LINE
  8
0
 10
-1.70283
 20
-6.59642
 11
-1.56386
 21
-6.2146
  0
LINE
  8
0
 10
-1.56386
 20
-6.2146
 11
-1.34058
 21
-5.87512
  0
LINE
  8
0
 10
-1.34058
 20
-5.87512
 11
-1.04503
 21
-5.59628
  0
LINE
  8
0
 10
-1.04503
 20
-5.59628
 11
-0.693139
 21
-5.39312
  0
LINE
  8
0
 10
-0.693139
 20
-5.39312
 11
-0.303884
 21
-5.27659
  0
LINE
  8
0
 10
-0.303884
 20
-5.27659
 11
0.101753
 21
-5.25296
  0
LINE
  8
0
 10
0.101753
 20
-5.25296
 11
0.501905
 21
-5.32352
  0
LINE
  8
0
 10
0.501905
 20
-5.32352
 11
0.875
 21
-5.48446
  0
LINE
  8
0
 10
0.875
 20
-5.48446
 11
1.20092
 21
-5.7271
  0
LINE
  8
0
 10
1.20092
 20
-5.7271
 11
1.4621
 21
-6.03836
  0
LINE
  8
0
 10
1.4621
 20
-6.03836
 11
1.64446
 21
-6.40146
  0
LINE
  8
0
 10
1.64446
 20
-6.40146
 11
1.73817
 21
-6.79684
  0
LINE
  8
0
 10
1.73817
 20
-6.79684
 11
1.73817
 21
-7.20316
  0
LINE
  8
0
 10
1.73817
 20
-7.20316
 11
1.64446
 21
-7.59853
  0
LINE
  8
0
 10
1.64446
 20
-7.59853
 11
1.4621
 21
-7.96164
  0
LINE
  8
0
 10
1.4621
 20
-7.96164
 11
1.20092
 21
-8.2729
  0
LINE
  8
0
 10
1.20092
 20
-8.2729
 11
0.875
 21
-8.51554
  0
LINE
  8
0
 10
0.875
 20
-8.51554
 11
0.501905
 21
-8.67648
  0
LINE
  8
0
 10
0.501905
 20
-8.67648
 11
0.101753
 21
-8.74704
  0
LINE
  8
0
 10
0.101753
 20
-8.74704
 11
-0.303884
 21
-8.72341
  0
LINE
  8
0
 10
-0.303884
 20
-8.72341
 11
-0.693139
 21
-8.60688
  0
LINE
  8
0
 10
-0.693139
 20
-8.60688
 11
-1.04503
 21
-8.40372
  0
LINE
  8
0
 10
-1.04503
 20
-8.40372
 11
-1.34058
 21
-8.12488
  0
LINE
  8
0
 10
-1.34058
 20
-8.12488
 11
-1.56386
 21
-7.7854
  0
LINE
  8
0
 10
-1.56386
 20
-7.7854
 11
-1.70283
 21
-7.40358
  0
LINE
  8
0
 10
-1.70283
 20
-7.40358
 11
-1.75
 21
-7
  0
LINE
  8
0
 10
-1.75
 20
7
 11
-1.70283
 21
7.40358
  0
LINE
  8
0
 10
-1.70283
 20
7.40358
 11
-1.56386
 21
7.7854
  0
LINE
  8
0
 10
-1.56386
 20
7.7854
 11
-1.34058
 21
8.12488
  0
LINE
  8
0
 10
-1.34058
 20
8.12488
 11
-1.04503
 21
8.40372
  0
LINE
  8
0
 10
-1.04503
 20
8.40372
 11
-0.693139
 21
8.60688
  0
LINE
  8
0
 10
-0.693139
 20
8.60688
 11
-0.303884
 21
8.72341
  0
LINE
  8
0
 10
-0.303884
 20
8.72341
 11
0.101753
 21
8.74704
  0
LINE
  8
0
 10
0.101753
 20
8.74704
 11
0.501905
 21
8.67648
  0
LINE
  8
0
 10
0.501905
 20
8.67648
 11
0.875
 21
8.51554
  0
LINE
  8
0
 10
0.875
 20
8.51554
 11
1.20092
 21
8.2729
  0
LINE
  8
0
 10
1.20092
 20
8.2729
 11
1.4621
 21
7.96164
  0
LINE
  8
0
 10
1.4621
 20
7.96164
 11
1.64446
 21
7.59853
  0
LINE
  8
0
 10
1.64446
 20
7.59853
 11
1.73817
 21
7.20316
  0
LINE
  8
0
 10
1.73817
 20
7.20316
 11
1.73817
 21
6.79684
  0
LINE
  8
0
 10
1.73817
 20
6.79684
 11
1.64446
 21
6.40146
  0
LINE
  8
0
 10
1.64446
 20
6.40146
 11
1.4621
 21
6.03836
  0
LINE
  8
0
 10
1.4621
 20
6.03836
 11
1.20092
 21
5.7271
  0
LINE
  8
0
 10
1.20092
 20
5.7271
 11
0.875
 21
5.48446
  0
LINE
  8
0
 10
0.875
 20
5.48446
 11
0.501905
 21
5.32352
  0
LINE
  8
0
 10
0.501905
 20
5.32352
 11
0.101753
 21
5.25296
  0
LINE
  8
0
 10
0.101753
 20
5.25296
 11
-0.303884
 21
5.27659
  0
LINE
  8
0
 10
-0.303884
 20
5.27659
 11
-0.693139
 21
5.39312
  0
LINE
  8
0
 10
-0.693139
 20
5.39312
 11
-1.04503
 21
5.59628
  0
LINE
  8
0
 10
-1.04503
 20
5.59628
 11
-1.34058
 21
5.87512
  0
LINE
  8
0
 10
-1.34058
 20
5.87512
 11
-1.56386
 21
6.2146
  0
LINE
  8
0
 10
-1.56386
 20
6.2146
 11
-1.70283
 21
6.59642
  0
LINE
  8
0
 10
-1.70283
 20
6.59642
 11
-1.75
 21
7
  0
LINE
  8
0
 10
5.25
 20
0
 11
5.29717
 21
0.403577
  0
LINE
  8
0
 10
5.29717
 20
0.403577
 11
5.43614
 21
0.785398
  0
LINE
  8
0
 10
5.43614
 20
0.785398
 11
5.65942
 21
1.12488
  0
LINE
  8
0
 10
5.65942
 20
1.12488
 11
5.95497
 21
1.40372
  0
LINE
  8
0
 10
5.95497
 20
1.40372
 11
6.30686
 21
1.60688
  0
LINE
  8
0
 10
6.30686
 20
1.60688
 11
6.69612
 21
1.72341
  0
LINE
  8
0
 10
6.69612
 20
1.72341
 11
7.10175
 21
1.74704
  0
LINE
  8
0
 10
7.10175
 20
1.74704
 11
7.50191
 21
1.67648
  0
LINE
  8
0
 10
7.50191
 20
1.67648
 11
7.875
 21
1.51554
  0
LINE
  8
0
 10
7.875
 20
1.51554
 11
8.20092
 21
1.2729
  0
LINE
  8
0
 10
8.20092
 20
1.2729
 11
8.4621
 21
0.96164
  0
LINE
  8
0
 10
8.4621
 20
0.96164
 11
8.64446
 21
0.598535
  0
LINE
  8
0
 10
8.64446
 20
0.598535
 11
8.73817
 21
0.203162
  0
LINE
  8
0
 10
8.73817
 20
0.203162
 11
8.73817
 21
-0.203162
  0
LINE
  8
0
 10
8.73817
 20
-0.203162
 11
8.64446
 21
-0.598535
  0
LINE
  8
0
 10
8.64446
 20
-0.598535
 11
8.4621
 21
-0.96164
  0
LINE
  8
0
 10
8.4621
 20
-0.96164
 11
8.20092
 21
-1.2729
  0
LINE
  8
0
 10
8.20092
 20
-1.2729
 11
7.875
 21
-1.51554
  0
LINE
  8
0
 10
7.875
 20
-1.51554
 11
7.50191
 21
-1.67648
  0
LINE
  8
0
 10
7.50191
 20
-1.67648
 11
7.10175
 21
-1.74704
  0
LINE
  8
0
 10
7.10175
 20
-1.74704
 11
6.69612
 21
-1.72341
  0
LINE
  8
0
 10
6.69612
 20
-1.72341
 11
6.30686
 21
-1.60688
  0
LINE
  8
0
 10
6.30686
 20
-1.60688
 11
5.95497
 21
-1.40372
  0
LINE
  8
0
 10
5.95497
 20
-1.40372
 11
5.65942
 21
-1.12488
  0
LINE
  8
0
 10
5.65942
 20
-1.12488
 11
5.43614
 21
-0.785398
  0
LINE
  8
0
 10
5.43614
 20
-0.785398
 11
5.29717
 21
-0.403577
  0
LINE
  8
0
 10
5.29717
 20
-0.403577
 11
5.25
 21
0
  0
LINE
  8
0
 10
18.4696
 20
-11.9062
 11
18.5166
 21
-11.4587
  0
LINE
  8
0
 10
18.5166
 20
-11.4587
 11
18.6557
 21
-11.0307
  0
LINE
  8
0
 10
18.6557
 20
-11.0307
 11
18.8807
 21
-10.641
  0
LINE
  8
0
 10
18.8807
 20
-10.641
 11
19.1818
 21
-10.3065
  0
LINE
  8
0
 10
19.1818
 20
-10.3065
 11
19.5459
 21
-10.042
  0
LINE
  8
0
 10
19.5459
 20
-10.042
 11
19.957
 21
-9.85896
  0
LINE
  8
0
 10
19.957
 20
-9.85896
 11
20.3972
 21
-9.76539
  0
LINE
  8
0
 10
20.3972
 20
-9.76539
 11
20.8472
 21
-9.76539
  0
LINE
  8
0
 10
20.8472
 20
-9.76539
 11
21.2874
 21
-9.85896
  0
LINE
  8
0
 10
21.2874
 20
-9.85896
 11
21.6986
 21
-10.042
  0
LINE
  8
0
 10
21.6986
 20
-10.042
 11
22.0626
 21
-10.3065
  0
LINE
  8
0
 10
22.0626
 20
-10.3065
 11
22.3638
 21
-10.641
  0
LINE
  8
0
 10
22.3638
 20
-10.641
 11
22.5888
 21
-11.0307
  0
LINE
  8
0
 10
22.5888
 20
-11.0307
 11
22.7278
 21
-11.4587
  0
LINE
  8
0
 10
22.7278
 20
-11.4587
 11
22.7749
 21
-11.9062
  0
LINE
  8
0
 10
22.7749
 20
-11.9062
 11
22.7278
 21
-12.3538
  0
LINE
  8
0
 10
22.7278
 20
-12.3538
 11
22.5888
 21
-12.7818
  0
LINE
  8
0
 10
22.5888
 20
-12.7818
 11
22.3638
 21
-13.1715
  0
LINE
  8
0
 10
22.3638
 20
-13.1715
 11
22.0626
 21
-13.506
  0
LINE
  8
0
 10
22.0626
 20
-13.506
 11
21.6986
 21
-13.7705
  0
LINE
  8
0
 10
21.6986
 20
-13.7705
 11
21.2874
 21
-13.9535
  0
LINE
  8
0
 10
21.2874
 20
-13.9535
 11
20.8472
 21
-14.0471
  0
LINE
  8
0
 10
20.8472
 20
-14.0471
 11
20.3972
 21
-14.0471
  0
LINE
  8
0
 10
20.3972
 20
-14.0471
 11
19.957
 21
-13.9535
  0
LINE
  8
0
 10
19.957
 20
-13.9535
 11
19.5459
 21
-13.7705
  0
LINE
  8
0
 10
19.5459
 20
-13.7705
 11
19.1818
 21
-13.506
  0
LINE
  8
0
 10
19.1818
 20
-13.506
 11
18.8807
 21
-13.1715
  0
LINE
  8
0
 10
18.8807
 20
-13.1715
 11
18.6557
 21
-12.7818
  0
LINE
  8
0
 10
18.6557
 20
-12.7818
 11
18.5166
 21
-12.3538
  0
LINE
  8
0
 10
18.5166
 20
-12.3538
 11
18.4696
 21
-11.9062
  0
LINE
  8
0
 10
18.4696
 20
11.9062
 11
18.5166
 21
12.3538
  0
LINE
  8
0
 10
18.5166
 20
12.3538
 11
18.6557
 21
12.7818
  0
LINE
  8
0
 10
18.6557
 20
12.7818
 11
18.8807
 21
13.1715
  0
LINE
  8
0
 10
18.8807
 20
13.1715
 11
19.1818
 21
13.506
  0
LINE
  8
0
 10
19.1818
 20
13.506
 11
19.5459
 21
13.7705
  0
LINE
  8
0
 10
19.5459
 20
13.7705
 11
19.957
 21
13.9535
  0
LINE
  8
0
 10
19.957
 20
13.9535
 11
20.3972
 21
14.0471
  0
LINE
  8
0
 10
20.3972
 20
14.0471
 11
20.8472
 21
14.0471
  0
LINE
  8
0
 10
20.8472
 20
14.0471
 11
21.2874
 21
13.9535
  0
LINE
  8
0
 10
21.2874
 20
13.9535
 11
21.6986
 21
13.7705
  0
LINE
  8
0
 10
21.6986
 20
13.7705
 11
22.0626
 21
13.506
  0
LINE
  8
0
 10
22.0626
 20
13.506
 11
22.3638
 21
13.1715
  0
LINE
  8
0
 10
22.3638
 20
13.1715
 11
22.5888
 21
12.7818
  0
LINE
  8
0
 10
22.5888
 20
12.7818
 11
22.7278
 21
12.3538
  0
LINE
  8
0
 10
22.7278
 20
12.3538
 11
22.7749
 21
11.9062
  0
LINE
  8
0
 10
22.7749
 20
11.9062
 11
22.7278
 21
11.4587
  0
LINE
  8
0
 10
22.7278
 20
11.4587
 11
22.5888
 21
11.0307
  0
LINE
  8
0
 10
22.5888
 20
11.0307
 11
22.3638
 21
10.641
  0
LINE
  8
0
 10
22.3638
 20
10.641
 11
22.0626
 21
10.3065
  0
LINE
  8
0
 10
22.0626
 20
10.3065
 11
21.6986
 21
10.042
  0
LINE
  8
0
 10
21.6986
 20
10.042
 11
21.2874
 21
9.85896
  0
LINE
  8
0
 10
21.2874
 20
9.85896
 11
20.8472
 21
9.76539
  0
LINE
  8
0
 10
20.8472
 20
9.76539
 11
20.3972
 21
9.76539
  0
LINE
  8
0
 10
20.3972
 20
9.76539
 11
19.957
 21
9.85896
  0
LINE
  8
0
 10
19.957
 20
9.85896
 11
19.5459
 21
10.042
  0
LINE
  8
0
 10
19.5459
 20
10.042
 11
19.1818
 21
10.3065
  0
LINE
  8
0
 10
19.1818
 20
10.3065
 11
18.8807
 21
10.641
  0
LINE
  8
0
 10
18.8807
 20
10.641
 11
18.6557
 21
11.0307
  0
LINE
  8
0
 10
18.6557
 20
11.0307
 11
18.5166
 21
11.4587
  0
LINE
  8
0
 10
18.5166
 20
11.4587
 11
18.4696
 21
11.9062
  0
ENDSEC
  0
SECTION
  2
OBJECTS
  0
DICTIONARY
  0
ENDSEC
  0
EOF
