  0
SECTION
  2
BLOCKS
  0
ENDSEC
  0
SECTION
  2
ENTITIES
  0
LINE
  8
0
 10
-26.7182
 20
8.05218
 11
-26.7179
 21
7.89617
  0
LINE
  8
0
 10
-26.7179
 20
7.89617
 11
-26.7178
 21
7.85181
  0
LINE
  8
0
 10
-26.7178
 20
7.85181
 11
-26.6862
 21
7.69872
  0
LINE
  8
0
 10
-26.6862
 20
7.69872
 11
-26.6772
 21
7.65515
  0
LINE
  8
0
 10
-26.6772
 20
7.65515
 11
-26.616
 21
7.51175
  0
LINE
  8
0
 10
-26.616
 20
7.51175
 11
-26.5985
 21
7.47088
  0
LINE
  8
0
 10
-26.5985
 20
7.47088
 11
-26.5098
 21
7.34261
  0
LINE
  8
0
 10
-26.5098
 20
7.34261
 11
-26.4844
 21
7.306
  0
LINE
  8
0
 10
-26.4844
 20
7.306
 11
-26.372
 21
7.19794
  0
LINE
  8
0
 10
-26.372
 20
7.19794
 11
-26.3399
 21
7.16702
  0
LINE
  8
0
 10
-26.3399
 20
7.16702
 11
-26.2082
 21
7.0837
  0
LINE
  8
0
 10
-26.2082
 20
7.0837
 11
-26.1704
 21
7.05981
  0
LINE
  8
0
 10
-26.1704
 20
7.05981
 11
-26.0238
 21
7.00409
  0
LINE
  8
0
 10
-26.0238
 20
7.00409
 11
-25.9817
 21
6.98807
  0
LINE
  8
0
 10
-25.9817
 20
6.98807
 11
-21.1515
 21
5.69382
  0
LINE
  8
0
 10
-21.1515
 20
5.69382
 11
-19.7725
 21
5.32433
  0
LINE
  8
0
 10
-19.7725
 20
5.32433
 11
-19.5382
 21
5.22836
  0
LINE
  8
0
 10
-19.5382
 20
5.22836
 11
-19.3355
 21
5.07663
  0
LINE
  8
0
 10
-19.3355
 20
5.07663
 11
-19.1774
 21
4.87885
  0
LINE
  8
0
 10
-19.1774
 20
4.87885
 11
-19.0741
 21
4.64771
  0
LINE
  8
0
 10
-19.0741
 20
4.64771
 11
-19.0321
 21
4.39802
  0
LINE
  8
0
 10
-19.0321
 20
4.39802
 11
-19.0542
 21
4.14579
  0
LINE
  8
0
 10
-19.0542
 20
4.14579
 11
-19.302
 21
2.77167
  0
LINE
  8
0
 10
-19.302
 20
2.77167
 11
-19.4509
 21
1.38333
  0
LINE
  8
0
 10
-19.4509
 20
1.38333
 11
-19.5
 21
-0.0120935
  0
LINE
  8
0
 10
-19.5
 20
-0.0120935
 11
-19.4491
 21
-1.40746
  0
LINE
  8
0
 10
-19.4491
 20
-1.40746
 11
-19.2986
 21
-2.79561
  0
LINE
  8
0
 10
-19.2986
 20
-2.79561
 11
-19.049
 21
-4.16943
  0
LINE
  8
0
 10
-19.049
 20
-4.16943
 11
-19.0267
 21
-4.42183
  0
LINE
  8
0
 10
-19.0267
 20
-4.42183
 11
-19.0684
 21
-4.67176
  0
LINE
  8
0
 10
-19.0684
 20
-4.67176
 11
-19.1717
 21
-4.90316
  0
LINE
  8
0
 10
-19.1717
 20
-4.90316
 11
-19.3298
 21
-5.10118
  0
LINE
  8
0
 10
-19.3298
 20
-5.10118
 11
-19.5326
 21
-5.2531
  0
LINE
  8
0
 10
-19.5326
 20
-5.2531
 11
-19.7671
 21
-5.34917
  0
LINE
  8
0
 10
-19.7671
 20
-5.34917
 11
-21.1456
 21
-5.71854
  0
LINE
  8
0
 10
-21.1456
 20
-5.71854
 11
-25.9742
 21
-7.01235
  0
LINE
  8
0
 10
-25.9742
 20
-7.01235
 11
-26.0162
 21
-7.02829
  0
LINE
  8
0
 10
-26.0162
 20
-7.02829
 11
-26.1625
 21
-7.08377
  0
LINE
  8
0
 10
-26.1625
 20
-7.08377
 11
-26.2002
 21
-7.10765
  0
LINE
  8
0
 10
-26.2002
 20
-7.10765
 11
-26.3319
 21
-7.19094
  0
LINE
  8
0
 10
-26.3319
 20
-7.19094
 11
-26.3642
 21
-7.22191
  0
LINE
  8
0
 10
-26.3642
 20
-7.22191
 11
-26.4768
 21
-7.33015
  0
LINE
  8
0
 10
-26.4768
 20
-7.33015
 11
-26.5656
 21
-7.45841
  0
LINE
  8
0
 10
-26.5656
 20
-7.45841
 11
-26.5909
 21
-7.495
  0
LINE
  8
0
 10
-26.5909
 20
-7.495
 11
-26.6522
 21
-7.63863
  0
LINE
  8
0
 10
-26.6522
 20
-7.63863
 11
-26.6697
 21
-7.67953
  0
LINE
  8
0
 10
-26.6697
 20
-7.67953
 11
-26.7013
 21
-7.83248
  0
LINE
  8
0
 10
-26.7013
 20
-7.83248
 11
-26.7102
 21
-7.87598
  0
LINE
  8
0
 10
-26.7102
 20
-7.87598
 11
-26.7105
 21
-8.03221
  0
LINE
  8
0
 10
-26.7105
 20
-8.03221
 11
-26.7106
 21
-8.07662
  0
LINE
  8
0
 10
-26.7106
 20
-8.07662
 11
-26.6795
 21
-8.23081
  0
LINE
  8
0
 10
-26.6795
 20
-8.23081
 11
-26.6706
 21
-8.27463
  0
LINE
  8
0
 10
-26.6706
 20
-8.27463
 11
-26.2486
 21
-9.50376
  0
LINE
  8
0
 10
-26.2486
 20
-9.50376
 11
-26.1289
 21
-9.8524
  0
LINE
  8
0
 10
-26.1289
 20
-9.8524
 11
-25.6343
 21
-11.0541
  0
LINE
  8
0
 10
-25.6343
 20
-11.0541
 11
-25.494
 21
-11.395
  0
LINE
  8
0
 10
-25.494
 20
-11.395
 11
-24.9285
 21
-12.5651
  0
LINE
  8
0
 10
-24.9285
 20
-12.5651
 11
-24.7681
 21
-12.8969
  0
LINE
  8
0
 10
-24.7681
 20
-12.8969
 11
-24.1338
 21
-14.0312
  0
LINE
  8
0
 10
-24.1338
 20
-14.0312
 11
-23.9538
 21
-14.3529
  0
LINE
  8
0
 10
-23.9538
 20
-14.3529
 11
-23.2529
 21
-15.4472
  0
LINE
  8
0
 10
-23.2529
 20
-15.4472
 11
-23.0541
 21
-15.7576
  0
LINE
  8
0
 10
-23.0541
 20
-15.7576
 11
-22.289
 21
-16.8081
  0
LINE
  8
0
 10
-22.289
 20
-16.8081
 11
-22.072
 21
-17.106
  0
LINE
  8
0
 10
-22.072
 20
-17.106
 11
-21.2456
 21
-18.109
  0
LINE
  8
0
 10
-21.2456
 20
-18.109
 11
-21.0112
 21
-18.3935
  0
LINE
  8
0
 10
-21.0112
 20
-18.3935
 11
-20.1264
 21
-19.3453
  0
LINE
  8
0
 10
-20.1264
 20
-19.3453
 11
-19.8754
 21
-19.6152
  0
LINE
  8
0
 10
-19.8754
 20
-19.6152
 11
-18.9354
 21
-20.5125
  0
LINE
  8
0
 10
-18.9354
 20
-20.5125
 11
-18.6687
 21
-20.767
  0
LINE
  8
0
 10
-18.6687
 20
-20.767
 11
-17.6768
 21
-21.6066
  0
LINE
  8
0
 10
-17.6768
 20
-21.6066
 11
-17.3954
 21
-21.8447
  0
LINE
  8
0
 10
-17.3954
 20
-21.8447
 11
-16.3551
 21
-22.6235
  0
LINE
  8
0
 10
-16.3551
 20
-22.6235
 11
-16.06
 21
-22.8444
  0
LINE
  8
0
 10
-16.06
 20
-22.8444
 11
-14.975
 21
-23.5597
  0
LINE
  8
0
 10
-14.975
 20
-23.5597
 11
-14.6673
 21
-23.7626
  0
LINE
  8
0
 10
-14.6673
 20
-23.7626
 11
-13.5415
 21
-24.4119
  0
LINE
  8
0
 10
-13.5415
 20
-24.4119
 11
-13.2222
 21
-24.596
  0
LINE
  8
0
 10
-13.2222
 20
-24.596
 11
-12.8924
 21
-24.7608
  0
LINE
  8
0
 10
-12.8924
 20
-24.7608
 11
-11.7299
 21
-25.3416
  0
LINE
  8
0
 10
-11.7299
 20
-25.3416
 11
-11.3909
 21
-25.4864
  0
LINE
  8
0
 10
-11.3909
 20
-25.4864
 11
-10.1958
 21
-25.9968
  0
LINE
  8
0
 10
-10.1958
 20
-25.9968
 11
-9.8488
 21
-26.1211
  0
LINE
  8
0
 10
-9.8488
 20
-26.1211
 11
-8.62534
 21
-26.5593
  0
LINE
  8
0
 10
-8.62534
 20
-26.5593
 11
-8.2715
 21
-26.6626
  0
LINE
  8
0
 10
-8.2715
 20
-26.6626
 11
-7.02407
 21
-27.0269
  0
LINE
  8
0
 10
-7.02407
 20
-27.0269
 11
-6.66469
 21
-27.1089
  0
LINE
  8
0
 10
-6.66469
 20
-27.1089
 11
-5.39773
 21
-27.3981
  0
LINE
  8
0
 10
-5.39773
 20
-27.3981
 11
-5.03409
 21
-27.4585
  0
LINE
  8
0
 10
-5.03409
 20
-27.4585
 11
-3.75213
 21
-27.6715
  0
LINE
  8
0
 10
-3.75213
 20
-27.6715
 11
-3.38553
 21
-27.7101
  0
LINE
  8
0
 10
-3.38553
 20
-27.7101
 11
-2.09314
 21
-27.8462
  0
LINE
  8
0
 10
-2.09314
 20
-27.8462
 11
-1.72489
 21
-27.8628
  0
LINE
  8
0
 10
-1.72489
 20
-27.8628
 11
-0.426678
 21
-27.9215
  0
LINE
  8
0
 10
-0.426678
 20
-27.9215
 11
-0.0580945
 21
-27.9161
  0
LINE
  8
0
 10
-0.0580945
 20
-27.9161
 11
1.24131
 21
-27.8971
  0
LINE
  8
0
 10
1.24131
 20
-27.8971
 11
1.60891
 21
-27.8698
  0
LINE
  8
0
 10
1.60891
 20
-27.8698
 11
2.90486
 21
-27.7732
  0
LINE
  8
0
 10
2.90486
 20
-27.7732
 11
3.27017
 21
-27.724
  0
LINE
  8
0
 10
3.27017
 20
-27.724
 11
4.55805
 21
-27.5502
  0
LINE
  8
0
 10
4.55805
 20
-27.5502
 11
4.91977
 21
-27.4792
  0
LINE
  8
0
 10
4.91977
 20
-27.4792
 11
6.19497
 21
-27.2289
  0
LINE
  8
0
 10
6.19497
 20
-27.2289
 11
6.23718
 21
-27.2147
  0
LINE
  8
0
 10
6.23718
 20
-27.2147
 11
6.38572
 21
-27.1647
  0
LINE
  8
0
 10
6.38572
 20
-27.1647
 11
6.52065
 21
-27.0864
  0
LINE
  8
0
 10
6.52065
 20
-27.0864
 11
6.55902
 21
-27.0642
  0
LINE
  8
0
 10
6.55902
 20
-27.0642
 11
6.67581
 21
-26.9603
  0
LINE
  8
0
 10
6.67581
 20
-26.9603
 11
6.70905
 21
-26.9307
  0
LINE
  8
0
 10
6.70905
 20
-26.9307
 11
6.80262
 21
-26.806
  0
LINE
  8
0
 10
6.80262
 20
-26.806
 11
6.82929
 21
-26.7704
  0
LINE
  8
0
 10
6.82929
 20
-26.7704
 11
6.89598
 21
-26.6294
  0
LINE
  8
0
 10
6.89598
 20
-26.6294
 11
6.91502
 21
-26.5892
  0
LINE
  8
0
 10
6.91502
 20
-26.5892
 11
6.95243
 21
-26.4378
  0
LINE
  8
0
 10
6.95243
 20
-26.4378
 11
6.96313
 21
-26.3945
  0
LINE
  8
0
 10
6.96313
 20
-26.3945
 11
6.96943
 21
-26.2388
  0
LINE
  8
0
 10
6.96943
 20
-26.2388
 11
6.97124
 21
-26.1942
  0
LINE
  8
0
 10
6.97124
 20
-26.1942
 11
6.9462
 21
-26.0393
  0
LINE
  8
0
 10
6.9462
 20
-26.0393
 11
6.939
 21
-25.9948
  0
LINE
  8
0
 10
6.939
 20
-25.9948
 11
5.64475
 21
-21.1646
  0
LINE
  8
0
 10
5.64475
 20
-21.1646
 11
5.27526
 21
-19.7857
  0
LINE
  8
0
 10
5.27526
 20
-19.7857
 11
5.24121
 21
-19.5348
  0
LINE
  8
0
 10
5.24121
 20
-19.5348
 11
5.27127
 21
-19.2834
  0
LINE
  8
0
 10
5.27127
 20
-19.2834
 11
5.36351
 21
-19.0476
  0
LINE
  8
0
 10
5.36351
 20
-19.0476
 11
5.51201
 21
-18.8425
  0
LINE
  8
0
 10
5.51201
 20
-18.8425
 11
5.70726
 21
-18.6813
  0
LINE
  8
0
 10
5.70726
 20
-18.6813
 11
5.93673
 21
-18.5743
  0
LINE
  8
0
 10
5.93673
 20
-18.5743
 11
7.25067
 21
-18.1019
  0
LINE
  8
0
 10
7.25067
 20
-18.1019
 11
8.52743
 21
-17.5366
  0
LINE
  8
0
 10
8.52743
 20
-17.5366
 11
9.76047
 21
-16.8814
  0
LINE
  8
0
 10
9.76047
 20
-16.8814
 11
10.9435
 21
-16.1397
  0
LINE
  8
0
 10
10.9435
 20
-16.1397
 11
12.0704
 21
-15.3152
  0
LINE
  8
0
 10
12.0704
 20
-15.3152
 11
13.1353
 21
-14.4122
  0
LINE
  8
0
 10
13.1353
 20
-14.4122
 11
13.3427
 21
-14.2667
  0
LINE
  8
0
 10
13.3427
 20
-14.2667
 11
13.5801
 21
-14.1779
  0
LINE
  8
0
 10
13.5801
 20
-14.1779
 11
13.8321
 21
-14.1516
  0
LINE
  8
0
 10
13.8321
 20
-14.1516
 11
14.0827
 21
-14.1895
  0
LINE
  8
0
 10
14.0827
 20
-14.1895
 11
14.3156
 21
-14.2892
  0
LINE
  8
0
 10
14.3156
 20
-14.2892
 11
14.5161
 21
-14.4442
  0
LINE
  8
0
 10
14.5161
 20
-14.4442
 11
19.06
 21
-18.9881
  0
LINE
  8
0
 10
19.06
 20
-18.9881
 11
19.0948
 21
-19.0166
  0
LINE
  8
0
 10
19.0948
 20
-19.0166
 11
19.216
 21
-19.1155
  0
LINE
  8
0
 10
19.216
 20
-19.1155
 11
19.2555
 21
-19.1362
  0
LINE
  8
0
 10
19.2555
 20
-19.1362
 11
19.3935
 21
-19.2086
  0
LINE
  8
0
 10
19.3935
 20
-19.2086
 11
19.4364
 21
-19.2211
  0
LINE
  8
0
 10
19.4364
 20
-19.2211
 11
19.5865
 21
-19.2645
  0
LINE
  8
0
 10
19.5865
 20
-19.2645
 11
19.742
 21
-19.2773
  0
LINE
  8
0
 10
19.742
 20
-19.2773
 11
19.7863
 21
-19.2809
  0
LINE
  8
0
 10
19.7863
 20
-19.2809
 11
19.9414
 21
-19.2622
  0
LINE
  8
0
 10
19.9414
 20
-19.2622
 11
19.9855
 21
-19.2568
  0
LINE
  8
0
 10
19.9855
 20
-19.2568
 11
20.1338
 21
-19.2077
  0
LINE
  8
0
 10
20.1338
 20
-19.2077
 11
20.1759
 21
-19.1938
  0
LINE
  8
0
 10
20.1759
 20
-19.1938
 11
20.3114
 21
-19.1159
  0
LINE
  8
0
 10
20.3114
 20
-19.1159
 11
20.3499
 21
-19.0937
  0
LINE
  8
0
 10
20.3499
 20
-19.0937
 11
20.4678
 21
-18.9897
  0
LINE
  8
0
 10
20.4678
 20
-18.9897
 11
20.5013
 21
-18.9601
  0
LINE
  8
0
 10
20.5013
 20
-18.9601
 11
21.3548
 21
-17.9801
  0
LINE
  8
0
 10
21.3548
 20
-17.9801
 11
21.5969
 21
-17.7021
  0
LINE
  8
0
 10
21.5969
 20
-17.7021
 11
22.3903
 21
-16.6729
  0
LINE
  8
0
 10
22.3903
 20
-16.6729
 11
22.6154
 21
-16.381
  0
LINE
  8
0
 10
22.6154
 20
-16.381
 11
23.3459
 21
-15.3062
  0
LINE
  8
0
 10
23.3459
 20
-15.3062
 11
23.5531
 21
-15.0013
  0
LINE
  8
0
 10
23.5531
 20
-15.0013
 11
24.2182
 21
-13.8849
  0
LINE
  8
0
 10
24.2182
 20
-13.8849
 11
24.4069
 21
-13.5682
  0
LINE
  8
0
 10
24.4069
 20
-13.5682
 11
25.0041
 21
-12.414
  0
LINE
  8
0
 10
25.0041
 20
-12.414
 11
25.1735
 21
-12.0866
  0
LINE
  8
0
 10
25.1735
 20
-12.0866
 11
25.7007
 21
-10.8988
  0
LINE
  8
0
 10
25.7007
 20
-10.8988
 11
25.8503
 21
-10.5619
  0
LINE
  8
0
 10
25.8503
 20
-10.5619
 11
26.3056
 21
-9.34477
  0
LINE
  8
0
 10
26.3056
 20
-9.34477
 11
26.4348
 21
-8.99952
  0
LINE
  8
0
 10
26.4348
 20
-8.99952
 11
26.8167
 21
-7.75736
  0
LINE
  8
0
 10
26.8167
 20
-7.75736
 11
26.925
 21
-7.40501
  0
LINE
  8
0
 10
26.925
 20
-7.40501
 11
27.232
 21
-6.14226
  0
LINE
  8
0
 10
27.232
 20
-6.14226
 11
27.3191
 21
-5.78407
  0
LINE
  8
0
 10
27.3191
 20
-5.78407
 11
27.5502
 21
-4.50524
  0
LINE
  8
0
 10
27.5502
 20
-4.50524
 11
27.6158
 21
-4.14249
  0
LINE
  8
0
 10
27.6158
 20
-4.14249
 11
27.7701
 21
-2.85215
  0
LINE
  8
0
 10
27.7701
 20
-2.85215
 11
27.8138
 21
-2.48614
  0
LINE
  8
0
 10
27.8138
 20
-2.48614
 11
27.8908
 21
-1.18888
  0
LINE
  8
0
 10
27.8908
 20
-1.18888
 11
27.9127
 21
-0.820904
  0
LINE
  8
0
 10
27.9127
 20
-0.820904
 11
27.912
 21
0.478633
  0
LINE
  8
0
 10
27.912
 20
0.478633
 11
27.9119
 21
0.847256
  0
LINE
  8
0
 10
27.9119
 20
0.847256
 11
27.8897
 21
1.21521
  0
LINE
  8
0
 10
27.8897
 20
1.21521
 11
27.8115
 21
2.51239
  0
LINE
  8
0
 10
27.8115
 20
2.51239
 11
27.7674
 21
2.87837
  0
LINE
  8
0
 10
27.7674
 20
2.87837
 11
27.6118
 21
4.16856
  0
LINE
  8
0
 10
27.6118
 20
4.16856
 11
27.5459
 21
4.53125
  0
LINE
  8
0
 10
27.5459
 20
4.53125
 11
27.3137
 21
5.80986
  0
LINE
  8
0
 10
27.3137
 20
5.80986
 11
27.2262
 21
6.16797
  0
LINE
  8
0
 10
27.2262
 20
6.16797
 11
26.918
 21
7.43042
  0
LINE
  8
0
 10
26.918
 20
7.43042
 11
26.8094
 21
7.78267
  0
LINE
  8
0
 10
26.8094
 20
7.78267
 11
26.4263
 21
9.02447
  0
LINE
  8
0
 10
26.4263
 20
9.02447
 11
26.2968
 21
9.3696
  0
LINE
  8
0
 10
26.2968
 20
9.3696
 11
25.8403
 21
10.5863
  0
LINE
  8
0
 10
25.8403
 20
10.5863
 11
25.6904
 21
10.9231
  0
LINE
  8
0
 10
25.6904
 20
10.9231
 11
25.1621
 21
12.1104
  0
LINE
  8
0
 10
25.1621
 20
12.1104
 11
24.9924
 21
12.4376
  0
LINE
  8
0
 10
24.9924
 20
12.4376
 11
24.394
 21
13.5912
  0
LINE
  8
0
 10
24.394
 20
13.5912
 11
24.2051
 21
13.9077
  0
LINE
  8
0
 10
24.2051
 20
13.9077
 11
23.539
 21
15.0236
  0
LINE
  8
0
 10
23.539
 20
15.0236
 11
23.3315
 21
15.3282
  0
LINE
  8
0
 10
23.3315
 20
15.3282
 11
22.5999
 21
16.4023
  0
LINE
  8
0
 10
22.5999
 20
16.4023
 11
22.3746
 21
16.694
  0
LINE
  8
0
 10
22.3746
 20
16.694
 11
21.5802
 21
17.7225
  0
LINE
  8
0
 10
21.5802
 20
17.7225
 11
21.3378
 21
18.0003
  0
LINE
  8
0
 10
21.3378
 20
18.0003
 11
20.4834
 21
18.9794
  0
LINE
  8
0
 10
20.4834
 20
18.9794
 11
20.45
 21
19.0089
  0
LINE
  8
0
 10
20.45
 20
19.0089
 11
20.3325
 21
19.1126
  0
LINE
  8
0
 10
20.3325
 20
19.1126
 11
20.1972
 21
19.1903
  0
LINE
  8
0
 10
20.1972
 20
19.1903
 11
20.1588
 21
19.2124
  0
LINE
  8
0
 10
20.1588
 20
19.2124
 11
20.0104
 21
19.2616
  0
LINE
  8
0
 10
20.0104
 20
19.2616
 11
19.9682
 21
19.2756
  0
LINE
  8
0
 10
19.9682
 20
19.2756
 11
19.8134
 21
19.2942
  0
LINE
  8
0
 10
19.8134
 20
19.2942
 11
19.7692
 21
19.2996
  0
LINE
  8
0
 10
19.7692
 20
19.2996
 11
19.6138
 21
19.2868
  0
LINE
  8
0
 10
19.6138
 20
19.2868
 11
19.5694
 21
19.2832
  0
LINE
  8
0
 10
19.5694
 20
19.2832
 11
19.4196
 21
19.2399
  0
LINE
  8
0
 10
19.4196
 20
19.2399
 11
19.3768
 21
19.2275
  0
LINE
  8
0
 10
19.3768
 20
19.2275
 11
19.2388
 21
19.1551
  0
LINE
  8
0
 10
19.2388
 20
19.1551
 11
19.1992
 21
19.1344
  0
LINE
  8
0
 10
19.1992
 20
19.1344
 11
19.0776
 21
19.0353
  0
LINE
  8
0
 10
19.0776
 20
19.0353
 11
19.0427
 21
19.0068
  0
LINE
  8
0
 10
19.0427
 20
19.0068
 11
14.4973
 21
14.4613
  0
LINE
  8
0
 10
14.4973
 20
14.4613
 11
14.297
 21
14.3064
  0
LINE
  8
0
 10
14.297
 20
14.3064
 11
14.0643
 21
14.2067
  0
LINE
  8
0
 10
14.0643
 20
14.2067
 11
13.8139
 21
14.1687
  0
LINE
  8
0
 10
13.8139
 20
14.1687
 11
13.5621
 21
14.1948
  0
LINE
  8
0
 10
13.5621
 20
14.1948
 11
13.3249
 21
14.2833
  0
LINE
  8
0
 10
13.3249
 20
14.2833
 11
13.1175
 21
14.4285
  0
LINE
  8
0
 10
13.1175
 20
14.4285
 11
12.0513
 21
15.3302
  0
LINE
  8
0
 10
12.0513
 20
15.3302
 11
10.9234
 21
16.1533
  0
LINE
  8
0
 10
10.9234
 20
16.1533
 11
9.73952
 21
16.8935
  0
LINE
  8
0
 10
9.73952
 20
16.8935
 11
8.50567
 21
17.5472
  0
LINE
  8
0
 10
8.50567
 20
17.5472
 11
7.22821
 21
18.1109
  0
LINE
  8
0
 10
7.22821
 20
18.1109
 11
5.91369
 21
18.5817
  0
LINE
  8
0
 10
5.91369
 20
18.5817
 11
5.68391
 21
18.6885
  0
LINE
  8
0
 10
5.68391
 20
18.6885
 11
5.48835
 21
18.8496
  0
LINE
  8
0
 10
5.48835
 20
18.8496
 11
5.33958
 21
19.0548
  0
LINE
  8
0
 10
5.33958
 20
19.0548
 11
5.24715
 21
19.2907
  0
LINE
  8
0
 10
5.24715
 20
19.2907
 11
5.21699
 21
19.5423
  0
LINE
  8
0
 10
5.21699
 20
19.5423
 11
5.25103
 21
19.7934
  0
LINE
  8
0
 10
5.25103
 20
19.7934
 11
5.6204
 21
21.1719
  0
LINE
  8
0
 10
5.6204
 20
21.1719
 11
6.91421
 21
26.0005
  0
LINE
  8
0
 10
6.91421
 20
26.0005
 11
6.92142
 21
26.0448
  0
LINE
  8
0
 10
6.92142
 20
26.0448
 11
6.94651
 21
26.1993
  0
LINE
  8
0
 10
6.94651
 20
26.1993
 11
6.94471
 21
26.2439
  0
LINE
  8
0
 10
6.94471
 20
26.2439
 11
6.93842
 21
26.3996
  0
LINE
  8
0
 10
6.93842
 20
26.3996
 11
6.92772
 21
26.443
  0
LINE
  8
0
 10
6.92772
 20
26.443
 11
6.89032
 21
26.5947
  0
LINE
  8
0
 10
6.89032
 20
26.5947
 11
6.82362
 21
26.7357
  0
LINE
  8
0
 10
6.82362
 20
26.7357
 11
6.8046
 21
26.7759
  0
LINE
  8
0
 10
6.8046
 20
26.7759
 11
6.71086
 21
26.9008
  0
LINE
  8
0
 10
6.71086
 20
26.9008
 11
6.68416
 21
26.9364
  0
LINE
  8
0
 10
6.68416
 20
26.9364
 11
6.56751
 21
27.0402
  0
LINE
  8
0
 10
6.56751
 20
27.0402
 11
6.53433
 21
27.0697
  0
LINE
  8
0
 10
6.53433
 20
27.0697
 11
6.39916
 21
27.1481
  0
LINE
  8
0
 10
6.39916
 20
27.1481
 11
6.36074
 21
27.1704
  0
LINE
  8
0
 10
6.36074
 20
27.1704
 11
6.21163
 21
27.2205
  0
LINE
  8
0
 10
6.21163
 20
27.2205
 11
6.16926
 21
27.2347
  0
LINE
  8
0
 10
6.16926
 20
27.2347
 11
4.89382
 21
27.4839
  0
LINE
  8
0
 10
4.89382
 20
27.4839
 11
4.53203
 21
27.5545
  0
LINE
  8
0
 10
4.53203
 20
27.5545
 11
3.244
 21
27.727
  0
LINE
  8
0
 10
3.244
 20
27.727
 11
2.87864
 21
27.776
  0
LINE
  8
0
 10
2.87864
 20
27.776
 11
1.5826
 21
27.8713
  0
LINE
  8
0
 10
1.5826
 20
27.8713
 11
1.21497
 21
27.8983
  0
LINE
  8
0
 10
1.21497
 20
27.8983
 11
-0.0844487
 21
27.916
  0
LINE
  8
0
 10
-0.0844487
 20
27.916
 11
-0.453037
 21
27.9211
  0
LINE
  8
0
 10
-0.453037
 20
27.9211
 11
-1.7512
 21
27.8612
  0
LINE
  8
0
 10
-1.7512
 20
27.8612
 11
-2.11943
 21
27.8442
  0
LINE
  8
0
 10
-2.11943
 20
27.8442
 11
-3.41169
 21
27.7069
  0
LINE
  8
0
 10
-3.41169
 20
27.7069
 11
-3.77825
 21
27.6679
  0
LINE
  8
0
 10
-3.77825
 20
27.6679
 11
-5.06002
 21
27.4537
  0
LINE
  8
0
 10
-5.06002
 20
27.4537
 11
-5.42359
 21
27.393
  0
LINE
  8
0
 10
-5.42359
 20
27.393
 11
-6.69028
 21
27.1026
  0
LINE
  8
0
 10
-6.69028
 20
27.1026
 11
-7.04958
 21
27.0202
  0
LINE
  8
0
 10
-7.04958
 20
27.0202
 11
-8.29667
 21
26.6548
  0
LINE
  8
0
 10
-8.29667
 20
26.6548
 11
-8.65041
 21
26.5511
  0
LINE
  8
0
 10
-8.65041
 20
26.5511
 11
-9.87345
 21
26.1118
  0
LINE
  8
0
 10
-9.87345
 20
26.1118
 11
-10.2204
 21
25.9872
  0
LINE
  8
0
 10
-10.2204
 20
25.9872
 11
-11.415
 21
25.4757
  0
LINE
  8
0
 10
-11.415
 20
25.4757
 11
-11.7539
 21
25.3306
  0
LINE
  8
0
 10
-11.7539
 20
25.3306
 11
-12.9158
 21
24.7486
  0
LINE
  8
0
 10
-12.9158
 20
24.7486
 11
-13.2454
 21
24.5835
  0
LINE
  8
0
 10
-13.2454
 20
24.5835
 11
-14.3705
 21
23.9332
  0
LINE
  8
0
 10
-14.3705
 20
23.9332
 11
-14.6897
 21
23.7488
  0
LINE
  8
0
 10
-14.6897
 20
23.7488
 11
-14.9972
 21
23.5456
  0
LINE
  8
0
 10
-14.9972
 20
23.5456
 11
-16.0815
 21
22.8292
  0
LINE
  8
0
 10
-16.0815
 20
22.8292
 11
-16.3764
 21
22.6081
  0
LINE
  8
0
 10
-16.3764
 20
22.6081
 11
-17.416
 21
21.8283
  0
LINE
  8
0
 10
-17.416
 20
21.8283
 11
-17.6972
 21
21.5899
  0
LINE
  8
0
 10
-17.6972
 20
21.5899
 11
-18.6883
 21
20.7494
  0
LINE
  8
0
 10
-18.6883
 20
20.7494
 11
-18.9547
 21
20.4946
  0
LINE
  8
0
 10
-18.9547
 20
20.4946
 11
-19.8939
 21
19.5965
  0
LINE
  8
0
 10
-19.8939
 20
19.5965
 11
-20.1447
 21
19.3263
  0
LINE
  8
0
 10
-20.1447
 20
19.3263
 11
-21.0286
 21
18.3736
  0
LINE
  8
0
 10
-21.0286
 20
18.3736
 11
-21.2627
 21
18.0889
  0
LINE
  8
0
 10
-21.2627
 20
18.0889
 11
-22.0882
 21
17.0852
  0
LINE
  8
0
 10
-22.0882
 20
17.0852
 11
-22.3049
 21
16.787
  0
LINE
  8
0
 10
-22.3049
 20
16.787
 11
-23.0689
 21
15.7358
  0
LINE
  8
0
 10
-23.0689
 20
15.7358
 11
-23.2675
 21
15.4252
  0
LINE
  8
0
 10
-23.2675
 20
15.4252
 11
-23.9674
 21
14.3302
  0
LINE
  8
0
 10
-23.9674
 20
14.3302
 11
-24.147
 21
14.0084
  0
LINE
  8
0
 10
-24.147
 20
14.0084
 11
-24.7803
 21
12.8736
  0
LINE
  8
0
 10
-24.7803
 20
12.8736
 11
-24.9404
 21
12.5415
  0
LINE
  8
0
 10
-24.9404
 20
12.5415
 11
-25.5047
 21
11.3709
  0
LINE
  8
0
 10
-25.5047
 20
11.3709
 11
-25.6447
 21
11.0299
  0
LINE
  8
0
 10
-25.6447
 20
11.0299
 11
-26.1382
 21
9.82773
  0
LINE
  8
0
 10
-26.1382
 20
9.82773
 11
-26.2576
 21
9.47897
  0
LINE
  8
0
 10
-26.2576
 20
9.47897
 11
-26.6784
 21
8.24945
  0
LINE
  8
0
 10
-26.6784
 20
8.24945
 11
-26.6872
 21
8.2058
  0
LINE
  8
0
 10
-26.6872
 20
8.2058
 11
-26.7182
 21
8.05218
  0
LINE
  8
0
 10
-22.7749
 20
-11.9062
 11
-22.7278
 21
-11.4587
  0
LINE
  8
0
 10
-22.7278
 20
-11.4587
 11
-22.5888
 21
-11.0307
  0
LINE
  8
0
 10
-22.5888
 20
-11.0307
 11
-22.3638
 21
-10.641
  0
LINE
  8
0
 10
-22.3638
 20
-10.641
 11
-22.0626
 21
-10.3065
  0
LINE
  8
0
 10
-22.0626
 20
-10.3065
 11
-21.6986
 21
-10.042
  0
LINE
  8
0
 10
-21.6986
 20
-10.042
 11
-21.2874
 21
-9.85896
  0
LINE
  8
0
 10
-21.2874
 20
-9.85896
 11
-20.8472
 21
-9.76539
  0
LINE
  8
0
 10
-20.8472
 20
-9.76539
 11
-20.3972
 21
-9.76539
  0
LINE
  8
0
 10
-20.3972
 20
-9.76539
 11
-19.957
 21
-9.85896
  0
LINE
  8
0
 10
-19.957
 20
-9.85896
 11
-19.5459
 21
-10.042
  0
LINE
  8
0
 10
-19.5459
 20
-10.042
 11
-19.1818
 21
-10.3065
  0
LINE
  8
0
 10
-19.1818
 20
-10.3065
 11
-18.8807
 21
-10.641
  0
LINE
  8
0
 10
-18.8807
 20
-10.641
 11
-18.6557
 21
-11.0307
  0
LINE
  8
0
 10
-18.6557
 20
-11.0307
 11
-18.5166
 21
-11.4587
  0
LINE
  8
0
 10
-18.5166
 20
-11.4587
 11
-18.4696
 21
-11.9062
  0
LINE
  8
0
 10
-18.4696
 20
-11.9062
 11
-18.5166
 21
-12.3538
  0
LINE
  8
0
 10
-18.5166
 20
-12.3538
 11
-18.6557
 21
-12.7818
  0
LINE
  8
0
 10
-18.6557
 20
-12.7818
 11
-18.8807
 21
-13.1715
  0
LINE
  8
0
 10
-18.8807
 20
-13.1715
 11
-19.1818
 21
-13.506
  0
LINE
  8
0
 10
-19.1818
 20
-13.506
 11
-19.5459
 21
-13.7705
  0
LINE
  8
0
 10
-19.5459
 20
-13.7705
 11
-19.957
 21
-13.9535
  0
LINE
  8
0
 10
-19.957
 20
-13.9535
 11
-20.3972
 21
-14.0471
  0
LINE
  8
0
 10
-20.3972
 20
-14.0471
 11
-20.8472
 21
-14.0471
  0
LINE
  8
0
 10
-20.8472
 20
-14.0471
 11
-21.2874
 21
-13.9535
  0
LINE
  8
0
 10
-21.2874
 20
-13.9535
 11
-21.6986
 21
-13.7705
  0
LINE
  8
0
 10
-21.6986
 20
-13.7705
 11
-22.0626
 21
-13.506
  0
LINE
  8
0
 10
-22.0626
 20
-13.506
 11
-22.3638
 21
-13.1715
  0
LINE
  8
0
 10
-22.3638
 20
-13.1715
 11
-22.5888
 21
-12.7818
  0
LINE
  8
0
 10
-22.5888
 20
-12.7818
 11
-22.7278
 21
-12.3538
  0
LINE
  8
0
 10
-22.7278
 20
-12.3538
 11
-22.7749
 21
-11.9062
  0
LINE
  8
0
 10
-22.7749
 20
11.9062
 11
-22.7278
 21
12.3538
  0
LINE
  8
0
 10
-22.7278
 20
12.3538
 11
-22.5888
 21
12.7818
  0
LINE
  8
0
 10
-22.5888
 20
12.7818
 11
-22.3638
 21
13.1715
  0
LINE
  8
0
 10
-22.3638
 20
13.1715
 11
-22.0626
 21
13.506
  0
LINE
  8
0
 10
-22.0626
 20
13.506
 11
-21.6986
 21
13.7705
  0
LINE
  8
0
 10
-21.6986
 20
13.7705
 11
-21.2874
 21
13.9535
  0
LINE
  8
0
 10
-21.2874
 20
13.9535
 11
-20.8472
 21
14.0471
  0
LINE
  8
0
 10
-20.8472
 20
14.0471
 11
-20.3972
 21
14.0471
  0
LINE
  8
0
 10
-20.3972
 20
14.0471
 11
-19.957
 21
13.9535
  0
LINE
  8
0
 10
-19.957
 20
13.9535
 11
-19.5459
 21
13.7705
  0
LINE
  8
0
 10
-19.5459
 20
13.7705
 11
-19.1818
 21
13.506
  0
LINE
  8
0
 10
-19.1818
 20
13.506
 11
-18.8807
 21
13.1715
  0
LINE
  8
0
 10
-18.8807
 20
13.1715
 11
-18.6557
 21
12.7818
  0
LINE
  8
0
 10
-18.6557
 20
12.7818
 11
-18.5166
 21
12.3538
  0
LINE
  8
0
 10
-18.5166
 20
12.3538
 11
-18.4696
 21
11.9062
  0
LINE
  8
0
 10
-18.4696
 20
11.9062
 11
-18.5166
 21
11.4587
  0
LINE
  8
0
 10
-18.5166
 20
11.4587
 11
-18.6557
 21
11.0307
  0
LINE
  8
0
 10
-18.6557
 20
11.0307
 11
-18.8807
 21
10.641
  0
LINE
  8
0
 10
-18.8807
 20
10.641
 11
-19.1818
 21
10.3065
  0
LINE
  8
0
 10
-19.1818
 20
10.3065
 11
-19.5459
 21
10.042
  0
LINE
  8
0
 10
-19.5459
 20
10.042
 11
-19.957
 21
9.85896
  0
LINE
  8
0
 10
-19.957
 20
9.85896
 11
-20.3972
 21
9.76539
  0
LINE
  8
0
 10
-20.3972
 20
9.76539
 11
-20.8472
 21
9.76539
  0
LINE
  8
0
 10
-20.8472
 20
9.76539
 11
-21.2874
 21
9.85896
  0
LINE
  8
0
 10
-21.2874
 20
9.85896
 11
-21.6986
 21
10.042
  0
LINE
  8
0
 10
-21.6986
 20
10.042
 11
-22.0626
 21
10.3065
  0
LINE
  8
0
 10
-22.0626
 20
10.3065
 11
-22.3638
 21
10.641
  0
LINE
  8
0
 10
-22.3638
 20
10.641
 11
-22.5888
 21
11.0307
  0
LINE
  8
0
 10
-22.5888
 20
11.0307
 11
-22.7278
 21
11.4587
  0
LINE
  8
0
 10
-22.7278
 20
11.4587
 11
-22.7749
 21
11.9062
  0
LINE
  8
0
 10
-8.75
 20
0
 11
-8.70283
 21
0.403577
  0
LINE
  8
0
 10
-8.70283
 20
0.403577
 11
-8.56386
 21
0.785398
  0
LINE
  8
0
 10
-8.56386
 20
0.785398
 11
-8.34058
 21
1.12488
  0
LINE
  8
0
 10
-8.34058
 20
1.12488
 11
-8.04503
 21
1.40372
  0
LINE
  8
0
 10
-8.04503
 20
1.40372
 11
-7.69314
 21
1.60688
  0
LINE
  8
0
 10
-7.69314
 20
1.60688
 11
-7.30388
 21
1.72341
  0
LINE
  8
0
 10
-7.30388
 20
1.72341
 11
-6.89825
 21
1.74704
  0
LINE
  8
0
 10
-6.89825
 20
1.74704
 11
-6.49809
 21
1.67648
  0
LINE
  8
0
 10
-6.49809
 20
1.67648
 11
-6.125
 21
1.51554
  0
LINE
  8
0
 10
-6.125
 20
1.51554
 11
-5.79908
 21
1.2729
  0
LINE
  8
0
 10
-5.79908
 20
1.2729
 11
-5.5379
 21
0.96164
  0
LINE
  8
0
 10
-5.5379
 20
0.96164
 11
-5.35554
 21
0.598535
  0
LINE
  8
0
 10
-5.35554
 20
0.598535
 11
-5.26183
 21
0.203162
  0
LINE
  8
0
 10
-5.26183
 20
0.203162
 11
-5.26183
 21
-0.203162
  0
LINE
  8
0
 10
-5.26183
 20
-0.203162
 11
-5.35554
 21
-0.598535
  0
LINE
  8
0
 10
-5.35554
 20
-0.598535
 11
-5.5379
 21
-0.96164
  0
LINE
  8
0
 10
-5.5379
 20
-0.96164
 11
-5.79908
 21
-1.2729
  0
LINE
  8
0
 10
-5.79908
 20
-1.2729
 11
-6.125
 21
-1.51554
  0
LINE
  8
0
 10
-6.125
 20
-1.51554
 11
-6.49809
 21
-1.67648
  0
LINE
  8
0
 10
-6.49809
 20
-1.67648
 11
-6.89825
 21
-1.74704
  0
LINE
  8
0
 10
-6.89825
 20
-1.74704
 11
-7.30388
 21
-1.72341
  0
LINE
  8
0
 10
-7.30388
 20
-1.72341
 11
-7.69314
 21
-1.60688
  0
LINE
  8
0
 10
-7.69314
 20
-1.60688
 11
-8.04503
 21
-1.40372
  0
LINE
  8
0
 10
-8.04503
 20
-1.40372
 11
-8.34058
 21
-1.12488
  0
LINE
  8
0
 10
-8.34058
 20
-1.12488
 11
-8.56386
 21
-0.785398
  0
LINE
  8
0
 10
-8.56386
 20
-0.785398
 11
-8.70283
 21
-0.403577
  0
LINE
  8
0
 10
-8.70283
 20
-0.403577
 11
-8.75
 21
0
  0
LINE
  8
0
 10
-3.5
 20
0
 11
-3.45226
 21
0.57608
  0
LINE
  8
0
 10
-3.45226
 20
0.57608
 11
-3.31036
 21
1.13645
  0
LINE
  8
0
 10
-3.31036
 20
1.13645
 11
-3.07816
 21
1.66582
  0
LINE
  8
0
 10
-3.07816
 20
1.66582
 11
-2.76199
 21
2.14974
  0
LINE
  8
0
 10
-2.76199
 20
2.14974
 11
-2.37049
 21
2.57503
  0
LINE
  8
0
 10
-2.37049
 20
2.57503
 11
-1.91432
 21
2.93008
  0
LINE
  8
0
 10
-1.91432
 20
2.93008
 11
-1.40593
 21
3.20521
  0
LINE
  8
0
 10
-1.40593
 20
3.20521
 11
-0.859199
 21
3.3929
  0
LINE
  8
0
 10
-0.859199
 20
3.3929
 11
-0.289027
 21
3.48805
  0
LINE
  8
0
 10
-0.289027
 20
3.48805
 11
0.289027
 21
3.48805
  0
LINE
  8
0
 10
0.289027
 20
3.48805
 11
0.859199
 21
3.3929
  0
LINE
  8
0
 10
0.859199
 20
3.3929
 11
1.40593
 21
3.20521
  0
LINE
  8
0
 10
1.40593
 20
3.20521
 11
1.91432
 21
2.93008
  0
LINE
  8
0
 10
1.91432
 20
2.93008
 11
2.37049
 21
2.57503
  0
LINE
  8
0
 10
2.37049
 20
2.57503
 11
2.76199
 21
2.14974
  0
LINE
  8
0
 10
2.76199
 20
2.14974
 11
3.07816
 21
1.66582
  0
LINE
  8
0
 10
3.07816
 20
1.66582
 11
3.31036
 21
1.13645
  0
LINE
  8
0
 10
3.31036
 20
1.13645
 11
3.45226
 21
0.57608
  0
LINE
  8
0
 10
3.45226
 20
0.57608
 11
3.5
 21
0
  0
LINE
  8
0
 10
3.5
 20
0
 11
3.45226
 21
-0.57608
  0
LINE
  8
0
 10
3.45226
 20
-0.57608
 11
3.31036
 21
-1.13645
  0
LINE
  8
0
 10
3.31036
 20
-1.13645
 11
3.07816
 21
-1.66582
  0
LINE
  8
0
 10
3.07816
 20
-1.66582
 11
2.76199
 21
-2.14974
  0
LINE
  8
0
 10
2.76199
 20
-2.14974
 11
2.37049
 21
-2.57503
  0
LINE
  8
0
 10
2.37049
 20
-2.57503
 11
1.91432
 21
-2.93008
  0
LINE
  8
0
 10
1.91432
 20
-2.93008
 11
1.40593
 21
-3.20521
  0
LINE
  8
0
 10
1.40593
 20
-3.20521
 11
0.859199
 21
-3.3929
  0
LINE
  8
0
 10
0.859199
 20
-3.3929
 11
0.289027
 21
-3.48805
  0
LINE
  8
0
 10
0.289027
 20
-3.48805
 11
-0.289027
 21
-3.48805
  0
LINE
  8
0
 10
-0.289027
 20
-3.48805
 11
-0.859199
 21
-3.3929
  0
LINE
  8
0
 10
-0.859199
 20
-3.3929
 11
-1.40593
 21
-3.20521
  0
LINE
  8
0
 10
-1.40593
 20
-3.20521
 11
-1.91432
 21
-2.93008
  0
LINE
  8
0
 10
-1.91432
 20
-2.93008
 11
-2.37049
 21
-2.57503
  0
LINE
  8
0
 10
-2.37049
 20
-2.57503
 11
-2.76199
 21
-2.14974
  0
LINE
  8
0
 10
-2.76199
 20
-2.14974
 11
-3.07816
 21
-1.66582
  0
LINE
  8
0
 10
-3.07816
 20
-1.66582
 11
-3.31036
 21
-1.13645
  0
LINE
  8
0
 10
-3.31036
 20
-1.13645
 11
-3.45226
 21
-0.57608
  0
LINE
  8
0
 10
-3.45226
 20
-0.57608
 11
-3.5
 21
0
  0
LINE
  8
0
 10
-2.15265
 20
-23.8125
 11
-2.10561
 21
-23.3649
  0
LINE
  8
0
 10
-2.10561
 20
-23.3649
 11
-1.96654
 21
-22.9369
  0
LINE
  8
0
 10
-1.96654
 20
-22.9369
 11
-1.74153
 21
-22.5472
  0
LINE
  8
0
 10
-1.74153
 20
-22.5472
 11
-1.4404
 21
-22.2128
  0
LINE
  8
0
 10
-1.4404
 20
-22.2128
 11
-1.07632
 21
-21.9482
  0
LINE
  8
0
 10
-1.07632
 20
-21.9482
 11
-0.665205
 21
-21.7652
  0
LINE
  8
0
 10
-0.665205
 20
-21.7652
 11
-0.225013
 21
-21.6716
  0
LINE
  8
0
 10
-0.225013
 20
-21.6716
 11
0.225013
 21
-21.6716
  0
LINE
  8
0
 10
0.225013
 20
-21.6716
 11
0.665205
 21
-21.7652
  0
LINE
  8
0
 10
0.665205
 20
-21.7652
 11
1.07632
 21
-21.9482
  0
LINE
  8
0
 10
1.07632
 20
-21.9482
 11
1.4404
 21
-22.2128
  0
LINE
  8
0
 10
1.4404
 20
-22.2128
 11
1.74153
 21
-22.5472
  0
LINE
  8
0
 10
1.74153
 20
-22.5472
 11
1.96654
 21
-22.9369
  0
LINE
  8
0
 10
1.96654
 20
-22.9369
 11
2.10561
 21
-23.3649
  0
LINE
  8
0
 10
2.10561
 20
-23.3649
 11
2.15265
 21
-23.8125
  0
LINE
  8
0
 10
2.15265
 20
-23.8125
 11
2.10561
 21
-24.2601
  0
LINE
  8
0
 10
2.10561
 20
-24.2601
 11
1.96654
 21
-24.6881
  0
LINE
  8
0
 10
1.96654
 20
-24.6881
 11
1.74153
 21
-25.0778
  0
LINE
  8
0
 10
1.74153
 20
-25.0778
 11
1.4404
 21
-25.4122
  0
LINE
  8
0
 10
1.4404
 20
-25.4122
 11
1.07632
 21
-25.6768
  0
LINE
  8
0
 10
1.07632
 20
-25.6768
 11
0.665205
 21
-25.8598
  0
LINE
  8
0
 10
0.665205
 20
-25.8598
 11
0.225013
 21
-25.9534
  0
LINE
  8
0
 10
0.225013
 20
-25.9534
 11
-0.225013
 21
-25.9534
  0
LINE
  8
0
 10
-0.225013
 20
-25.9534
 11
-0.665205
 21
-25.8598
  0
LINE
  8
0
 10
-0.665205
 20
-25.8598
 11
-1.07632
 21
-25.6768
  0
LINE
  8
0
 10
-1.07632
 20
-25.6768
 11
-1.4404
 21
-25.4122
  0
LINE
  8
0
 10
-1.4404
 20
-25.4122
 11
-1.74153
 21
-25.0778
  0
LINE
  8
0
 10
-1.74153
 20
-25.0778
 11
-1.96654
 21
-24.6881
  0
LINE
  8
0
 10
-1.96654
 20
-24.6881
 11
-2.10561
 21
-24.2601
  0
LINE
  8
0
 10
-2.10561
 20
-24.2601
 11
-2.15265
 21
-23.8125
  0
LINE
  8
0
 10
-2.15265
 20
23.8125
 11
-2.10561
 21
24.2601
  0
LINE
  8
0
 10
-2.10561
 20
24.2601
 11
-1.96654
 21
24.6881
  0
LINE
  8
0
 10
-1.96654
 20
24.6881
 11
-1.74153
 21
25.0778
  0
LINE
  8
0
 10
-1.74153
 20
25.0778
 11
-1.4404
 21
25.4122
  0
LINE
  8
0
 10
-1.4404
 20
25.4122
 11
-1.07632
 21
25.6768
  0
LINE
  8
0
 10
-1.07632
 20
25.6768
 11
-0.665205
 21
25.8598
  0
LINE
  8
0
 10
-0.665205
 20
25.8598
 11
-0.225013
 21
25.9534
  0
LINE
  8
0
 10
-0.225013
 20
25.9534
 11
0.225013
 21
25.9534
  0
LINE
  8
0
 10
0.225013
 20
25.9534
 11
0.665205
 21
25.8598
  0
LINE
  8
0
 10
0.665205
 20
25.8598
 11
1.07632
 21
25.6768
  0
LINE
  8
0
 10
1.07632
 20
25.6768
 11
1.4404
 21
25.4122
  0
LINE
  8
0
 10
1.4404
 20
25.4122
 11
1.74153
 21
25.0778
  0
LINE
  8
0
 10
1.74153
 20
25.0778
 11
1.96654
 21
24.6881
  0
LINE
  8
0
 10
1.96654
 20
24.6881
 11
2.10561
 21
24.2601
  0
LINE
  8
0
 10
2.10561
 20
24.2601
 11
2.15265
 21
23.8125
  0
LINE
  8
0
 10
2.15265
 20
23.8125
 11
2.10561
 21
23.3649
  0
LINE
  8
0
 10
2.10561
 20
23.3649
 11
1.96654
 21
22.9369
  0
LINE
  8
0
 10
1.96654
 20
22.9369
 11
1.74153
 21
22.5472
  0
LINE
  8
0
 10
1.74153
 20
22.5472
 11
1.4404
 21
22.2128
  0
LINE
  8
0
 10
1.4404
 20
22.2128
 11
1.07632
 21
21.9482
  0
LINE
  8
0
 10
1.07632
 20
21.9482
 11
0.665205
 21
21.7652
  0
LINE
  8
0
 10
0.665205
 20
21.7652
 11
0.225013
 21
21.6716
  0
LINE
  8
0
 10
0.225013
 20
21.6716
 11
-0.225013
 21
21.6716
  0
LINE
  8
0
 10
-0.225013
 20
21.6716
 11
-0.665205
 21
21.7652
  0
LINE
  8
0
 10
-0.665205
 20
21.7652
 11
-1.07632
 21
21.9482
  0
LINE
  8
0
 10
-1.07632
 20
21.9482
 11
-1.4404
 21
22.2128
  0
LINE
  8
0
 10
-1.4404
 20
22.2128
 11
-1.74153
 21
22.5472
  0
LINE
  8
0
 10
-1.74153
 20
22.5472
 11
-1.96654
 21
22.9369
  0
LINE
  8
0
 10
-1.96654
 20
22.9369
 11
-2.10561
 21
23.3649
  0
LINE
  8
0
 10
-2.10561
 20
23.3649
 11
-2.15265
 21
23.8125
  0
LINE
  8
0
 10
-1.75
 20
-7
 11
-1.70283
 21
-6.59642
  0
LINE
  8
0
 10
-1.70283
 20
-6.59642
 11
-1.56386
 21
-6.2146
  0
LINE
  8
0
 10
-1.56386
 20
-6.2146
 11
-1.34058
 21
-5.87512
  0
LINE
  8
0
 10
-1.34058
 20
-5.87512
 11
-1.04503
 21
-5.59628
  0
LINE
  8
0
 10
-1.04503
 20
-5.59628
 11
-0.693139
 21
-5.39312
  0
LINE
  8
0
 10
-0.693139
 20
-5.39312
 11
-0.303884
 21
-5.27659
  0
LINE
  8
0
 10
-0.303884
 20
-5.27659
 11
0.101753
 21
-5.25296
  0
LINE
  8
0
 10
0.101753
 20
-5.25296
 11
0.501905
 21
-5.32352
  0
LINE
  8
0
 10
0.501905
 20
-5.32352
 11
0.875
 21
-5.48446
  0
LINE
  8
0
 10
0.875
 20
-5.48446
 11
1.20092
 21
-5.7271
  0
LINE
  8
0
 10
1.20092
 20
-5.7271
 11
1.4621
 21
-6.03836
  0
LINE
  8
0
 10
1.4621
 20
-6.03836
 11
1.64446
 21
-6.40146
  0
LINE
  8
0
 10
1.64446
 20
-6.40146
 11
1.73817
 21
-6.79684
  0
LINE
  8
0
 10
1.73817
 20
-6.79684
 11
1.73817
 21
-7.20316
  0
LINE
  8
0
 10
1.73817
 20
-7.20316
 11
1.64446
 21
-7.59853
  0
LINE
  8
0
 10
1.64446
 20
-7.59853
 11
1.4621
 21
-7.96164
  0
LINE
  8
0
 10
1.4621
 20
-7.96164
 11
1.20092
 21
-8.2729
  0
LINE
  8
0
 10
1.20092
 20
-8.2729
 11
0.875
 21
-8.51554
  0
LINE
  8
0
 10
0.875
 20
-8.51554
 11
0.501905
 21
-8.67648
  0
LINE
  8
0
 10
0.501905
 20
-8.67648
 11
0.101753
 21
-8.74704
  0
LINE
  8
0
 10
0.101753
 20
-8.74704
 11
-0.303884
 21
-8.72341
  0
LINE
  8
0
 10
-0.303884
 20
-8.72341
 11
-0.693139
 21
-8.60688
  0
LINE
  8
0
 10
-0.693139
 20
-8.60688
 11
-1.04503
 21
-8.40372
  0
LINE
  8
0
 10
-1.04503
 20
-8.40372
 11
-1.34058
 21
-8.12488
  0
LINE
  8
0
 10
-1.34058
 20
-8.12488
 11
-1.56386
 21
-7.7854
  0
LINE
  8
0
 10
-1.56386
 20
-7.7854
 11
-1.70283
 21
-7.40358
  0
LINE
  8
0
 10
-1.70283
 20
-7.40358
 11
-1.75
 21
-7
  0
LINE
  8
0
 10
-1.75
 20
7
 11
-1.70283
 21
7.40358
  0
LINE
  8
0
 10
-1.70283
 20
7.40358
 11
-1.56386
 21
7.7854
  0
LINE
  8
0
 10
-1.56386
 20
7.7854
 11
-1.34058
 21
8.12488
  0
LINE
  8
0
 10
-1.34058
 20
8.12488
 11
-1.04503
 21
8.40372
  0
LINE
  8
0
 10
-1.04503
 20
8.40372
 11
-0.693139
 21
8.60688
  0
LINE
  8
0
 10
-0.693139
 20
8.60688
 11
-0.303884
 21
8.72341
  0
LINE
  8
0
 10
-0.303884
 20
8.72341
 11
0.101753
 21
8.74704
  0
LINE
  8
0
 10
0.101753
 20
8.74704
 11
0.501905
 21
8.67648
  0
LINE
  8
0
 10
0.501905
 20
8.67648
 11
0.875
 21
8.51554
  0
LINE
  8
0
 10
0.875
 20
8.51554
 11
1.20092
 21
8.2729
  0
LINE
  8
0
 10
1.20092
 20
8.2729
 11
1.4621
 21
7.96164
  0
LINE
  8
0
 10
1.4621
 20
7.96164
 11
1.64446
 21
7.59853
  0
LINE
  8
0
 10
1.64446
 20
7.59853
 11
1.73817
 21
7.20316
  0
LINE
  8
0
 10
1.73817
 20
7.20316
 11
1.73817
 21
6.79684
  0
LINE
  8
0
 10
1.73817
 20
6.79684
 11
1.64446
 21
6.40146
  0
LINE
  8
0
 10
1.64446
 20
6.40146
 11
1.4621
 21
6.03836
  0
LINE
  8
0
 10
1.4621
 20
6.03836
 11
1.20092
 21
5.7271
  0
LINE
  8
0
 10
1.20092
 20
5.7271
 11
0.875
 21
5.48446
  0
LINE
  8
0
 10
0.875
 20
5.48446
 11
0.501905
 21
5.32352
  0
LINE
  8
0
 10
0.501905
 20
5.32352
 11
0.101753
 21
5.25296
  0
LINE
  8
0
 10
0.101753
 20
5.25296
 11
-0.303884
 21
5.27659
  0
LINE
  8
0
 10
-0.303884
 20
5.27659
 11
-0.693139
 21
5.39312
  0
LINE
  8
0
 10
-0.693139
 20
5.39312
 11
-1.04503
 21
5.59628
  0
LINE
  8
0
 10
-1.04503
 20
5.59628
 11
-1.34058
 21
5.87512
  0
LINE
  8
0
 10
-1.34058
 20
5.87512
 11
-1.56386
 21
6.2146
  0
LINE
  8
0
 10
-1.56386
 20
6.2146
 11
-1.70283
 21
6.59642
  0
LINE
  8
0
 10
-1.70283
 20
6.59642
 11
-1.75
 21
7
  0
LINE
  8
0
 10
5.25
 20
0
 11
5.29717
 21
0.403577
  0
LINE
  8
0
 10
5.29717
 20
0.403577
 11
5.43614
 21
0.785398
  0
LINE
  8
0
 10
5.43614
 20
0.785398
 11
5.65942
 21
1.12488
  0
LINE
  8
0
 10
5.65942
 20
1.12488
 11
5.95497
 21
1.40372
  0
LINE
  8
0
 10
5.95497
 20
1.40372
 11
6.30686
 21
1.60688
  0
LINE
  8
0
 10
6.30686
 20
1.60688
 11
6.69612
 21
1.72341
  0
LINE
  8
0
 10
6.69612
 20
1.72341
 11
7.10175
 21
1.74704
  0
LINE
  8
0
 10
7.10175
 20
1.74704
 11
7.50191
 21
1.67648
  0
LINE
  8
0
 10
7.50191
 20
1.67648
 11
7.875
 21
1.51554
  0
LINE
  8
0
 10
7.875
 20
1.51554
 11
8.20092
 21
1.2729
  0
LINE
  8
0
 10
8.20092
 20
1.2729
 11
8.4621
 21
0.96164
  0
LINE
  8
0
 10
8.4621
 20
0.96164
 11
8.64446
 21
0.598535
  0
LINE
  8
0
 10
8.64446
 20
0.598535
 11
8.73817
 21
0.203162
  0
LINE
  8
0
 10
8.73817
 20
0.203162
 11
8.73817
 21
-0.203162
  0
LINE
  8
0
 10
8.73817
 20
-0.203162
 11
8.64446
 21
-0.598535
  0
LINE
  8
0
 10
8.64446
 20
-0.598535
 11
8.4621
 21
-0.96164
  0
LINE
  8
0
 10
8.4621
 20
-0.96164
 11
8.20092
 21
-1.2729
  0
LINE
  8
0
 10
8.20092
 20
-1.2729
 11
7.875
 21
-1.51554
  0
LINE
  8
0
 10
7.875
 20
-1.51554
 11
7.50191
 21
-1.67648
  0
LINE
  8
0
 10
7.50191
 20
-1.67648
 11
7.10175
 21
-1.74704
  0
LINE
  8
0
 10
7.10175
 20
-1.74704
 11
6.69612
 21
-1.72341
  0
LINE
  8
0
 10
6.69612
 20
-1.72341
 11
6.30686
 21
-1.60688
  0
LINE
  8
0
 10
6.30686
 20
-1.60688
 11
5.95497
 21
-1.40372
  0
LINE
  8
0
 10
5.95497
 20
-1.40372
 11
5.65942
 21
-1.12488
  0
LINE
  8
0
 10
5.65942
 20
-1.12488
 11
5.43614
 21
-0.785398
  0
LINE
  8
0
 10
5.43614
 20
-0.785398
 11
5.29717
 21
-0.403577
  0
LINE
  8
0
 10
5.29717
 20
-0.403577
 11
5.25
 21
0
  0
LINE
  8
0
 10
18.4696
 20
-11.9062
 11
18.5166
 21
-11.4587
  0
LINE
  8
0
 10
18.5166
 20
-11.4587
 11
18.6557
 21
-11.0307
  0
LINE
  8
0
 10
18.6557
 20
-11.0307
 11
18.8807
 21
-10.641
  0
LINE
  8
0
 10
18.8807
 20
-10.641
 11
19.1818
 21
-10.3065
  0
LINE
  8
0
 10
19.1818
 20
-10.3065
 11
19.5459
 21
-10.042
  0
LINE
  8
0
 10
19.5459
 20
-10.042
 11
19.957
 21
-9.85896
  0
LINE
  8
0
 10
19.957
 20
-9.85896
 11
20.3972
 21
-9.76539
  0
LINE
  8
0
 10
20.3972
 20
-9.76539
 11
20.8472
 21
-9.76539
  0
LINE
  8
0
 10
20.8472
 20
-9.76539
 11
21.2874
 21
-9.85896
  0
LINE
  8
0
 10
21.2874
 20
-9.85896
 11
21.6986
 21
-10.042
  0
LINE
  8
0
 10
21.6986
 20
-10.042
 11
22.0626
 21
-10.3065
  0
LINE
  8
0
 10
22.0626
 20
-10.3065
 11
22.3638
 21
-10.641
  0
LINE
  8
0
 10
22.3638
 20
-10.641
 11
22.5888
 21
-11.0307
  0
LINE
  8
0
 10
22.5888
 20
-11.0307
 11
22.7278
 21
-11.4587
  0
LINE
  8
0
 10
22.7278
 20
-11.4587
 11
22.7749
 21
-11.9062
  0
LINE
  8
0
 10
22.7749
 20
-11.9062
 11
22.7278
 21
-12.3538
  0
LINE
  8
0
 10
22.7278
 20
-12.3538
 11
22.5888
 21
-12.7818
  0
LINE
  8
0
 10
22.5888
 20
-12.7818
 11
22.3638
 21
-13.1715
  0
LINE
  8
0
 10
22.3638
 20
-13.1715
 11
22.0626
 21
-13.506
  0
LINE
  8
0
 10
22.0626
 20
-13.506
 11
21.6986
 21
-13.7705
  0
LINE
  8
0
 10
21.6986
 20
-13.7705
 11
21.2874
 21
-13.9535
  0
LINE
  8
0
 10
21.2874
 20
-13.9535
 11
20.8472
 21
-14.0471
  0
LINE
  8
0
 10
20.8472
 20
-14.0471
 11
20.3972
 21
-14.0471
  0
LINE
  8
0
 10
20.3972
 20
-14.0471
 11
19.957
 21
-13.9535
  0
LINE
  8
0
 10
19.957
 20
-13.9535
 11
19.5459
 21
-13.7705
  0
LINE
  8
0
 10
19.5459
 20
-13.7705
 11
19.1818
 21
-13.506
  0
LINE
  8
0
 10
19.1818
 20
-13.506
 11
18.8807
 21
-13.1715
  0
LINE
  8
0
 10
18.8807
 20
-13.1715
 11
18.6557
 21
-12.7818
  0
LINE
  8
0
 10
18.6557
 20
-12.7818
 11
18.5166
 21
-12.3538
  0
LINE
  8
0
 10
18.5166
 20
-12.3538
 11
18.4696
 21
-11.9062
  0
LINE
  8
0
 10
18.4696
 20
11.9062
 11
18.5166
 21
12.3538
  0
LINE
  8
0
 10
18.5166
 20
12.3538
 11
18.6557
 21
12.7818
  0
LINE
  8
0
 10
18.6557
 20
12.7818
 11
18.8807
 21
13.1715
  0
LINE
  8
0
 10
18.8807
 20
13.1715
 11
19.1818
 21
13.506
  0
LINE
  8
0
 10
19.1818
 20
13.506
 11
19.5459
 21
13.7705
  0
LINE
  8
0
 10
19.5459
 20
13.7705
 11
19.957
 21
13.9535
  0
LINE
  8
0
 10
19.957
 20
13.9535
 11
20.3972
 21
14.0471
  0
LINE
  8
0
 10
20.3972
 20
14.0471
 11
20.8472
 21
14.0471
  0
LINE
  8
0
 10
20.8472
 20
14.0471
 11
21.2874
 21
13.9535
  0
LINE
  8
0
 10
21.2874
 20
13.9535
 11
21.6986
 21
13.7705
  0
LINE
  8
0
 10
21.6986
 20
13.7705
 11
22.0626
 21
13.506
  0
LINE
  8
0
 10
22.0626
 20
13.506
 11
22.3638
 21
13.1715
  0
LINE
  8
0
 10
22.3638
 20
13.1715
 11
22.5888
 21
12.7818
  0
LINE
  8
0
 10
22.5888
 20
12.7818
 11
22.7278
 21
12.3538
  0
LINE
  8
0
 10
22.7278
 20
12.3538
 11
22.7749
 21
11.9062
  0
LINE
  8
0
 10
22.7749
 20
11.9062
 11
22.7278
 21
11.4587
  0
LINE
  8
0
 10
22.7278
 20
11.4587
 11
22.5888
 21
11.0307
  0
LINE
  8
0
 10
22.5888
 20
11.0307
 11
22.3638
 21
10.641
  0
LINE
  8
0
 10
22.3638
 20
10.641
 11
22.0626
 21
10.3065
  0
LINE
  8
0
 10
22.0626
 20
10.3065
 11
21.6986
 21
10.042
  0
LINE
  8
0
 10
21.6986
 20
10.042
 11
21.2874
 21
9.85896
  0
LINE
  8
0
 10
21.2874
 20
9.85896
 11
20.8472
 21
9.76539
  0
LINE
  8
0
 10
20.8472
 20
9.76539
 11
20.3972
 21
9.76539
  0
LINE
  8
0
 10
20.3972
 20
9.76539
 11
19.957
 21
9.85896
  0
LINE
  8
0
 10
19.957
 20
9.85896
 11
19.5459
 21
10.042
  0
LINE
  8
0
 10
19.5459
 20
10.042
 11
19.1818
 21
10.3065
  0
LINE
  8
0
 10
19.1818
 20
10.3065
 11
18.8807
 21
10.641
  0
LINE
  8
0
 10
18.8807
 20
10.641
 11
18.6557
 21
11.0307
  0
LINE
  8
0
 10
18.6557
 20
11.0307
 11
18.5166
 21
11.4587
  0
LINE
  8
0
 10
18.5166
 20
11.4587
 11
18.4696
 21
11.9062
  0
ENDSEC
  0
SECTION
  2
OBJECTS
  0
DICTIONARY
  0
ENDSEC
  0
EOF
