  0
SECTION
  2
BLOCKS
  0
ENDSEC
  0
SECTION
  2
ENTITIES
  0
LINE
  8
0
 10
-26.7098
 20
8.04993
 11
-26.7095
 21
7.93282
  0
LINE
  8
0
 10
-26.7095
 20
7.93282
 11
-26.7093
 21
7.84956
  0
LINE
  8
0
 10
-26.7093
 20
7.84956
 11
-26.6856
 21
7.73465
  0
LINE
  8
0
 10
-26.6856
 20
7.73465
 11
-26.6688
 21
7.65289
  0
LINE
  8
0
 10
-26.6688
 20
7.65289
 11
-26.6228
 21
7.54527
  0
LINE
  8
0
 10
-26.6228
 20
7.54527
 11
-26.5901
 21
7.46862
  0
LINE
  8
0
 10
-26.5901
 20
7.46862
 11
-26.5235
 21
7.37237
  0
LINE
  8
0
 10
-26.5235
 20
7.37237
 11
-26.476
 21
7.30374
  0
LINE
  8
0
 10
-26.476
 20
7.30374
 11
-26.3917
 21
7.22265
  0
LINE
  8
0
 10
-26.3917
 20
7.22265
 11
-26.3315
 21
7.16477
  0
LINE
  8
0
 10
-26.3315
 20
7.16477
 11
-26.2327
 21
7.10225
  0
LINE
  8
0
 10
-26.2327
 20
7.10225
 11
-26.162
 21
7.05755
  0
LINE
  8
0
 10
-26.162
 20
7.05755
 11
-26.052
 21
7.01575
  0
LINE
  8
0
 10
-26.052
 20
7.01575
 11
-25.9733
 21
6.98581
  0
LINE
  8
0
 10
-25.9733
 20
6.98581
 11
-22.3506
 21
6.01512
  0
LINE
  8
0
 10
-22.3506
 20
6.01512
 11
-19.7725
 21
5.32433
  0
LINE
  8
0
 10
-19.7725
 20
5.32433
 11
-19.5382
 21
5.22836
  0
LINE
  8
0
 10
-19.5382
 20
5.22836
 11
-19.3355
 21
5.07663
  0
LINE
  8
0
 10
-19.3355
 20
5.07663
 11
-19.1774
 21
4.87885
  0
LINE
  8
0
 10
-19.1774
 20
4.87885
 11
-19.0741
 21
4.64771
  0
LINE
  8
0
 10
-19.0741
 20
4.64771
 11
-19.0321
 21
4.39802
  0
LINE
  8
0
 10
-19.0321
 20
4.39802
 11
-19.0542
 21
4.14579
  0
LINE
  8
0
 10
-19.0542
 20
4.14579
 11
-19.302
 21
2.77167
  0
LINE
  8
0
 10
-19.302
 20
2.77167
 11
-19.4509
 21
1.38333
  0
LINE
  8
0
 10
-19.4509
 20
1.38333
 11
-19.5
 21
-0.0120935
  0
LINE
  8
0
 10
-19.5
 20
-0.0120935
 11
-19.4491
 21
-1.40746
  0
LINE
  8
0
 10
-19.4491
 20
-1.40746
 11
-19.2986
 21
-2.79561
  0
LINE
  8
0
 10
-19.2986
 20
-2.79561
 11
-19.049
 21
-4.16943
  0
LINE
  8
0
 10
-19.049
 20
-4.16943
 11
-19.0267
 21
-4.42183
  0
LINE
  8
0
 10
-19.0267
 20
-4.42183
 11
-19.0684
 21
-4.67176
  0
LINE
  8
0
 10
-19.0684
 20
-4.67176
 11
-19.1717
 21
-4.90316
  0
LINE
  8
0
 10
-19.1717
 20
-4.90316
 11
-19.3298
 21
-5.10118
  0
LINE
  8
0
 10
-19.3298
 20
-5.10118
 11
-19.5326
 21
-5.2531
  0
LINE
  8
0
 10
-19.5326
 20
-5.2531
 11
-19.7671
 21
-5.34917
  0
LINE
  8
0
 10
-19.7671
 20
-5.34917
 11
-22.3443
 21
-6.03973
  0
LINE
  8
0
 10
-22.3443
 20
-6.03973
 11
-25.9657
 21
-7.01009
  0
LINE
  8
0
 10
-25.9657
 20
-7.01009
 11
-26.0443
 21
-7.0399
  0
LINE
  8
0
 10
-26.0443
 20
-7.0399
 11
-26.154
 21
-7.08151
  0
LINE
  8
0
 10
-26.154
 20
-7.08151
 11
-26.2247
 21
-7.12619
  0
LINE
  8
0
 10
-26.2247
 20
-7.12619
 11
-26.3235
 21
-7.18868
  0
LINE
  8
0
 10
-26.3235
 20
-7.18868
 11
-26.3838
 21
-7.24667
  0
LINE
  8
0
 10
-26.3838
 20
-7.24667
 11
-26.4684
 21
-7.32789
  0
LINE
  8
0
 10
-26.4684
 20
-7.32789
 11
-26.535
 21
-7.42414
  0
LINE
  8
0
 10
-26.535
 20
-7.42414
 11
-26.5825
 21
-7.49274
  0
LINE
  8
0
 10
-26.5825
 20
-7.49274
 11
-26.6285
 21
-7.60054
  0
LINE
  8
0
 10
-26.6285
 20
-7.60054
 11
-26.6612
 21
-7.67728
  0
LINE
  8
0
 10
-26.6612
 20
-7.67728
 11
-26.6849
 21
-7.79207
  0
LINE
  8
0
 10
-26.6849
 20
-7.79207
 11
-26.7018
 21
-7.87373
  0
LINE
  8
0
 10
-26.7018
 20
-7.87373
 11
-26.702
 21
-7.991
  0
LINE
  8
0
 10
-26.702
 20
-7.991
 11
-26.7022
 21
-8.07437
  0
LINE
  8
0
 10
-26.7022
 20
-8.07437
 11
-26.6788
 21
-8.19012
  0
LINE
  8
0
 10
-26.6788
 20
-8.19012
 11
-26.6622
 21
-8.27238
  0
LINE
  8
0
 10
-26.6622
 20
-8.27238
 11
-26.3454
 21
-9.19503
  0
LINE
  8
0
 10
-26.3454
 20
-9.19503
 11
-26.1206
 21
-9.84962
  0
LINE
  8
0
 10
-26.1206
 20
-9.84962
 11
-25.7494
 21
-10.7517
  0
LINE
  8
0
 10
-25.7494
 20
-10.7517
 11
-25.4859
 21
-11.3917
  0
LINE
  8
0
 10
-25.4859
 20
-11.3917
 11
-25.0614
 21
-12.27
  0
LINE
  8
0
 10
-25.0614
 20
-12.27
 11
-24.7602
 21
-12.8932
  0
LINE
  8
0
 10
-24.7602
 20
-12.8932
 11
-24.2841
 21
-13.7445
  0
LINE
  8
0
 10
-24.2841
 20
-13.7445
 11
-23.9462
 21
-14.3486
  0
LINE
  8
0
 10
-23.9462
 20
-14.3486
 11
-23.4201
 21
-15.17
  0
LINE
  8
0
 10
-23.4201
 20
-15.17
 11
-23.0467
 21
-15.7528
  0
LINE
  8
0
 10
-23.0467
 20
-15.7528
 11
-22.4725
 21
-16.5414
  0
LINE
  8
0
 10
-22.4725
 20
-16.5414
 11
-22.065
 21
-17.1008
  0
LINE
  8
0
 10
-22.065
 20
-17.1008
 11
-21.4447
 21
-17.8537
  0
LINE
  8
0
 10
-21.4447
 20
-17.8537
 11
-21.0045
 21
-18.3878
  0
LINE
  8
0
 10
-21.0045
 20
-18.3878
 11
-20.3404
 21
-19.1023
  0
LINE
  8
0
 10
-20.3404
 20
-19.1023
 11
-19.8691
 21
-19.6092
  0
LINE
  8
0
 10
-19.8691
 20
-19.6092
 11
-19.1635
 21
-20.2827
  0
LINE
  8
0
 10
-19.1635
 20
-20.2827
 11
-18.6628
 21
-20.7606
  0
LINE
  8
0
 10
-18.6628
 20
-20.7606
 11
-17.9182
 21
-21.3908
  0
LINE
  8
0
 10
-17.9182
 20
-21.3908
 11
-17.3899
 21
-21.8379
  0
LINE
  8
0
 10
-17.3899
 20
-21.8379
 11
-16.609
 21
-22.4225
  0
LINE
  8
0
 10
-16.609
 20
-22.4225
 11
-16.0549
 21
-22.8373
  0
LINE
  8
0
 10
-16.0549
 20
-22.8373
 11
-15.2405
 21
-23.3742
  0
LINE
  8
0
 10
-15.2405
 20
-23.3742
 11
-14.6627
 21
-23.7552
  0
LINE
  8
0
 10
-14.6627
 20
-23.7552
 11
-13.8176
 21
-24.2426
  0
LINE
  8
0
 10
-13.8176
 20
-24.2426
 11
-13.2181
 21
-24.5883
  0
LINE
  8
0
 10
-13.2181
 20
-24.5883
 11
-12.5989
 21
-24.8977
  0
LINE
  8
0
 10
-12.5989
 20
-24.8977
 11
-11.7263
 21
-25.3337
  0
LINE
  8
0
 10
-11.7263
 20
-25.3337
 11
-11.0898
 21
-25.6055
  0
LINE
  8
0
 10
-11.0898
 20
-25.6055
 11
-10.1927
 21
-25.9887
  0
LINE
  8
0
 10
-10.1927
 20
-25.9887
 11
-9.54112
 21
-26.222
  0
LINE
  8
0
 10
-9.54112
 20
-26.222
 11
-8.62274
 21
-26.5509
  0
LINE
  8
0
 10
-8.62274
 20
-26.5509
 11
-7.95838
 21
-26.745
  0
LINE
  8
0
 10
-7.95838
 20
-26.745
 11
-7.02199
 21
-27.0184
  0
LINE
  8
0
 10
-7.02199
 20
-27.0184
 11
-6.34724
 21
-27.1724
  0
LINE
  8
0
 10
-6.34724
 20
-27.1724
 11
-5.39619
 21
-27.3895
  0
LINE
  8
0
 10
-5.39619
 20
-27.3895
 11
-4.71344
 21
-27.5029
  0
LINE
  8
0
 10
-4.71344
 20
-27.5029
 11
-3.75113
 21
-27.6628
  0
LINE
  8
0
 10
-3.75113
 20
-27.6628
 11
-3.06283
 21
-27.7353
  0
LINE
  8
0
 10
-3.06283
 20
-27.7353
 11
-2.09269
 21
-27.8375
  0
LINE
  8
0
 10
-2.09269
 20
-27.8375
 11
-1.40129
 21
-27.8687
  0
LINE
  8
0
 10
-1.40129
 20
-27.8687
 11
-0.426778
 21
-27.9127
  0
LINE
  8
0
 10
-0.426778
 20
-27.9127
 11
0.265258
 21
-27.9027
  0
LINE
  8
0
 10
0.265258
 20
-27.9027
 11
1.24066
 21
-27.8884
  0
LINE
  8
0
 10
1.24066
 20
-27.8884
 11
1.93086
 21
-27.837
  0
LINE
  8
0
 10
1.93086
 20
-27.837
 11
2.90366
 21
-27.7646
  0
LINE
  8
0
 10
2.90366
 20
-27.7646
 11
3.58956
 21
-27.6721
  0
LINE
  8
0
 10
3.58956
 20
-27.6721
 11
4.55631
 21
-27.5417
  0
LINE
  8
0
 10
4.55631
 20
-27.5417
 11
5.23546
 21
-27.4084
  0
LINE
  8
0
 10
5.23546
 20
-27.4084
 11
6.19269
 21
-27.2205
  0
LINE
  8
0
 10
6.19269
 20
-27.2205
 11
6.27195
 21
-27.1938
  0
LINE
  8
0
 10
6.27195
 20
-27.1938
 11
6.38345
 21
-27.1563
  0
LINE
  8
0
 10
6.38345
 20
-27.1563
 11
6.48474
 21
-27.0975
  0
LINE
  8
0
 10
6.48474
 20
-27.0975
 11
6.55675
 21
-27.0558
  0
LINE
  8
0
 10
6.55675
 20
-27.0558
 11
6.64441
 21
-26.9778
  0
LINE
  8
0
 10
6.64441
 20
-26.9778
 11
6.70678
 21
-26.9223
  0
LINE
  8
0
 10
6.70678
 20
-26.9223
 11
6.77701
 21
-26.8287
  0
LINE
  8
0
 10
6.77701
 20
-26.8287
 11
6.82703
 21
-26.762
  0
LINE
  8
0
 10
6.82703
 20
-26.762
 11
6.87708
 21
-26.6562
  0
LINE
  8
0
 10
6.87708
 20
-26.6562
 11
6.91276
 21
-26.5807
  0
LINE
  8
0
 10
6.91276
 20
-26.5807
 11
6.94083
 21
-26.4672
  0
LINE
  8
0
 10
6.94083
 20
-26.4672
 11
6.96087
 21
-26.3861
  0
LINE
  8
0
 10
6.96087
 20
-26.3861
 11
6.9656
 21
-26.2693
  0
LINE
  8
0
 10
6.9656
 20
-26.2693
 11
6.96898
 21
-26.1857
  0
LINE
  8
0
 10
6.96898
 20
-26.1857
 11
6.95019
 21
-26.0696
  0
LINE
  8
0
 10
6.95019
 20
-26.0696
 11
6.93674
 21
-25.9864
  0
LINE
  8
0
 10
6.93674
 20
-25.9864
 11
5.96605
 21
-22.3638
  0
LINE
  8
0
 10
5.96605
 20
-22.3638
 11
5.27526
 21
-19.7857
  0
LINE
  8
0
 10
5.27526
 20
-19.7857
 11
5.24121
 21
-19.5348
  0
LINE
  8
0
 10
5.24121
 20
-19.5348
 11
5.27127
 21
-19.2834
  0
LINE
  8
0
 10
5.27127
 20
-19.2834
 11
5.36351
 21
-19.0476
  0
LINE
  8
0
 10
5.36351
 20
-19.0476
 11
5.51201
 21
-18.8425
  0
LINE
  8
0
 10
5.51201
 20
-18.8425
 11
5.70726
 21
-18.6813
  0
LINE
  8
0
 10
5.70726
 20
-18.6813
 11
5.93673
 21
-18.5743
  0
LINE
  8
0
 10
5.93673
 20
-18.5743
 11
7.25067
 21
-18.1019
  0
LINE
  8
0
 10
7.25067
 20
-18.1019
 11
8.52743
 21
-17.5366
  0
LINE
  8
0
 10
8.52743
 20
-17.5366
 11
9.76047
 21
-16.8814
  0
LINE
  8
0
 10
9.76047
 20
-16.8814
 11
10.9435
 21
-16.1397
  0
LINE
  8
0
 10
10.9435
 20
-16.1397
 11
12.0704
 21
-15.3152
  0
LINE
  8
0
 10
12.0704
 20
-15.3152
 11
13.1353
 21
-14.4122
  0
LINE
  8
0
 10
13.1353
 20
-14.4122
 11
13.3427
 21
-14.2667
  0
LINE
  8
0
 10
13.3427
 20
-14.2667
 11
13.5801
 21
-14.1779
  0
LINE
  8
0
 10
13.5801
 20
-14.1779
 11
13.8321
 21
-14.1516
  0
LINE
  8
0
 10
13.8321
 20
-14.1516
 11
14.0827
 21
-14.1895
  0
LINE
  8
0
 10
14.0827
 20
-14.1895
 11
14.3156
 21
-14.2892
  0
LINE
  8
0
 10
14.3156
 20
-14.2892
 11
14.5161
 21
-14.4442
  0
LINE
  8
0
 10
14.5161
 20
-14.4442
 11
19.0538
 21
-18.9819
  0
LINE
  8
0
 10
19.0538
 20
-18.9819
 11
19.1189
 21
-19.0351
  0
LINE
  8
0
 10
19.1189
 20
-19.0351
 11
19.2098
 21
-19.1093
  0
LINE
  8
0
 10
19.2098
 20
-19.1093
 11
19.2838
 21
-19.1481
  0
LINE
  8
0
 10
19.2838
 20
-19.1481
 11
19.3873
 21
-19.2025
  0
LINE
  8
0
 10
19.3873
 20
-19.2025
 11
19.4677
 21
-19.2257
  0
LINE
  8
0
 10
19.4677
 20
-19.2257
 11
19.5803
 21
-19.2584
  0
LINE
  8
0
 10
19.5803
 20
-19.2584
 11
19.697
 21
-19.2679
  0
LINE
  8
0
 10
19.697
 20
-19.2679
 11
19.7801
 21
-19.2747
  0
LINE
  8
0
 10
19.7801
 20
-19.2747
 11
19.8965
 21
-19.2607
  0
LINE
  8
0
 10
19.8965
 20
-19.2607
 11
19.9793
 21
-19.2507
  0
LINE
  8
0
 10
19.9793
 20
-19.2507
 11
20.0906
 21
-19.2138
  0
LINE
  8
0
 10
20.0906
 20
-19.2138
 11
20.1698
 21
-19.1876
  0
LINE
  8
0
 10
20.1698
 20
-19.1876
 11
20.2714
 21
-19.1291
  0
LINE
  8
0
 10
20.2714
 20
-19.1291
 11
20.3437
 21
-19.0876
  0
LINE
  8
0
 10
20.3437
 20
-19.0876
 11
20.4322
 21
-19.0094
  0
LINE
  8
0
 10
20.4322
 20
-19.0094
 11
20.4952
 21
-18.9539
  0
LINE
  8
0
 10
20.4952
 20
-18.9539
 11
21.1358
 21
-18.2183
  0
LINE
  8
0
 10
21.1358
 20
-18.2183
 11
21.5903
 21
-17.6963
  0
LINE
  8
0
 10
21.5903
 20
-17.6963
 11
22.1859
 21
-16.9238
  0
LINE
  8
0
 10
22.1859
 20
-16.9238
 11
22.6085
 21
-16.3756
  0
LINE
  8
0
 10
22.6085
 20
-16.3756
 11
23.1569
 21
-15.5688
  0
LINE
  8
0
 10
23.1569
 20
-15.5688
 11
23.5459
 21
-14.9964
  0
LINE
  8
0
 10
23.5459
 20
-14.9964
 11
24.0452
 21
-14.1583
  0
LINE
  8
0
 10
24.0452
 20
-14.1583
 11
24.3993
 21
-13.5637
  0
LINE
  8
0
 10
24.3993
 20
-13.5637
 11
24.8477
 21
-12.6973
  0
LINE
  8
0
 10
24.8477
 20
-12.6973
 11
25.1657
 21
-12.0826
  0
LINE
  8
0
 10
25.1657
 20
-12.0826
 11
25.5615
 21
-11.191
  0
LINE
  8
0
 10
25.5615
 20
-11.191
 11
25.8423
 21
-10.5584
  0
LINE
  8
0
 10
25.8423
 20
-10.5584
 11
26.1841
 21
-9.64479
  0
LINE
  8
0
 10
26.1841
 20
-9.64479
 11
26.4266
 21
-8.99655
  0
LINE
  8
0
 10
26.4266
 20
-8.99655
 11
26.7133
 21
-8.06412
  0
LINE
  8
0
 10
26.7133
 20
-8.06412
 11
26.9166
 21
-7.40257
  0
LINE
  8
0
 10
26.9166
 20
-7.40257
 11
27.1471
 21
-6.45468
  0
LINE
  8
0
 10
27.1471
 20
-6.45468
 11
27.3106
 21
-5.78216
  0
LINE
  8
0
 10
27.3106
 20
-5.78216
 11
27.4841
 21
-4.82221
  0
LINE
  8
0
 10
27.4841
 20
-4.82221
 11
27.6071
 21
-4.14113
  0
LINE
  8
0
 10
27.6071
 20
-4.14113
 11
27.723
 21
-3.17253
  0
LINE
  8
0
 10
27.723
 20
-3.17253
 11
27.8051
 21
-2.48531
  0
LINE
  8
0
 10
27.8051
 20
-2.48531
 11
27.8629
 21
-1.51152
  0
LINE
  8
0
 10
27.8629
 20
-1.51152
 11
27.9039
 21
-0.82063
  0
LINE
  8
0
 10
27.9039
 20
-0.82063
 11
27.9035
 21
0.154872
  0
LINE
  8
0
 10
27.9035
 20
0.154872
 11
27.9031
 21
0.846981
  0
LINE
  8
0
 10
27.9031
 20
0.846981
 11
27.8615
 21
1.53784
  0
LINE
  8
0
 10
27.8615
 20
1.53784
 11
27.8028
 21
2.51157
  0
LINE
  8
0
 10
27.8028
 20
2.51157
 11
27.72
 21
3.19871
  0
LINE
  8
0
 10
27.72
 20
3.19871
 11
27.6032
 21
4.1672
  0
LINE
  8
0
 10
27.6032
 20
4.1672
 11
27.4795
 21
4.84816
  0
LINE
  8
0
 10
27.4795
 20
4.84816
 11
27.3051
 21
5.80795
  0
LINE
  8
0
 10
27.3051
 20
5.80795
 11
27.141
 21
6.48032
  0
LINE
  8
0
 10
27.141
 20
6.48032
 11
26.9096
 21
7.42798
  0
LINE
  8
0
 10
26.9096
 20
7.42798
 11
26.7056
 21
8.08935
  0
LINE
  8
0
 10
26.7056
 20
8.08935
 11
26.4181
 21
9.02151
  0
LINE
  8
0
 10
26.4181
 20
9.02151
 11
26.175
 21
9.66951
  0
LINE
  8
0
 10
26.175
 20
9.66951
 11
25.8323
 21
10.5828
  0
LINE
  8
0
 10
25.8323
 20
10.5828
 11
25.5509
 21
11.2152
  0
LINE
  8
0
 10
25.5509
 20
11.2152
 11
25.1543
 21
12.1064
  0
LINE
  8
0
 10
25.1543
 20
12.1064
 11
24.8357
 21
12.7208
  0
LINE
  8
0
 10
24.8357
 20
12.7208
 11
24.3865
 21
13.5868
  0
LINE
  8
0
 10
24.3865
 20
13.5868
 11
24.0318
 21
14.1811
  0
LINE
  8
0
 10
24.0318
 20
14.1811
 11
23.5317
 21
15.0186
  0
LINE
  8
0
 10
23.5317
 20
15.0186
 11
23.1422
 21
15.5907
  0
LINE
  8
0
 10
23.1422
 20
15.5907
 11
22.593
 21
16.3969
  0
LINE
  8
0
 10
22.593
 20
16.3969
 11
22.1699
 21
16.9447
  0
LINE
  8
0
 10
22.1699
 20
16.9447
 11
21.5736
 21
17.7167
  0
LINE
  8
0
 10
21.5736
 20
17.7167
 11
21.1186
 21
18.2382
  0
LINE
  8
0
 10
21.1186
 20
18.2382
 11
20.4773
 21
18.9733
  0
LINE
  8
0
 10
20.4773
 20
18.9733
 11
20.4146
 21
19.0286
  0
LINE
  8
0
 10
20.4146
 20
19.0286
 11
20.3263
 21
19.1064
  0
LINE
  8
0
 10
20.3263
 20
19.1064
 11
20.2248
 21
19.1647
  0
LINE
  8
0
 10
20.2248
 20
19.1647
 11
20.1526
 21
19.2062
  0
LINE
  8
0
 10
20.1526
 20
19.2062
 11
20.0412
 21
19.2431
  0
LINE
  8
0
 10
20.0412
 20
19.2431
 11
19.962
 21
19.2694
  0
LINE
  8
0
 10
19.962
 20
19.2694
 11
19.8458
 21
19.2834
  0
LINE
  8
0
 10
19.8458
 20
19.2834
 11
19.7631
 21
19.2934
  0
LINE
  8
0
 10
19.7631
 20
19.2934
 11
19.6464
 21
19.2838
  0
LINE
  8
0
 10
19.6464
 20
19.2838
 11
19.5632
 21
19.277
  0
LINE
  8
0
 10
19.5632
 20
19.277
 11
19.4508
 21
19.2445
  0
LINE
  8
0
 10
19.4508
 20
19.2445
 11
19.3706
 21
19.2213
  0
LINE
  8
0
 10
19.3706
 20
19.2213
 11
19.2671
 21
19.167
  0
LINE
  8
0
 10
19.2671
 20
19.167
 11
19.193
 21
19.1282
  0
LINE
  8
0
 10
19.193
 20
19.1282
 11
19.1018
 21
19.0538
  0
LINE
  8
0
 10
19.1018
 20
19.0538
 11
19.0365
 21
19.0006
  0
LINE
  8
0
 10
19.0365
 20
19.0006
 11
14.4973
 21
14.4613
  0
LINE
  8
0
 10
14.4973
 20
14.4613
 11
14.297
 21
14.3064
  0
LINE
  8
0
 10
14.297
 20
14.3064
 11
14.0643
 21
14.2067
  0
LINE
  8
0
 10
14.0643
 20
14.2067
 11
13.8139
 21
14.1687
  0
LINE
  8
0
 10
13.8139
 20
14.1687
 11
13.5621
 21
14.1948
  0
LINE
  8
0
 10
13.5621
 20
14.1948
 11
13.3249
 21
14.2833
  0
LINE
  8
0
 10
13.3249
 20
14.2833
 11
13.1175
 21
14.4285
  0
LINE
  8
0
 10
13.1175
 20
14.4285
 11
12.0513
 21
15.3302
  0
LINE
  8
0
 10
12.0513
 20
15.3302
 11
10.9234
 21
16.1533
  0
LINE
  8
0
 10
10.9234
 20
16.1533
 11
9.73952
 21
16.8935
  0
LINE
  8
0
 10
9.73952
 20
16.8935
 11
8.50567
 21
17.5472
  0
LINE
  8
0
 10
8.50567
 20
17.5472
 11
7.22821
 21
18.1109
  0
LINE
  8
0
 10
7.22821
 20
18.1109
 11
5.91369
 21
18.5817
  0
LINE
  8
0
 10
5.91369
 20
18.5817
 11
5.68391
 21
18.6885
  0
LINE
  8
0
 10
5.68391
 20
18.6885
 11
5.48835
 21
18.8496
  0
LINE
  8
0
 10
5.48835
 20
18.8496
 11
5.33958
 21
19.0548
  0
LINE
  8
0
 10
5.33958
 20
19.0548
 11
5.24715
 21
19.2907
  0
LINE
  8
0
 10
5.24715
 20
19.2907
 11
5.21699
 21
19.5423
  0
LINE
  8
0
 10
5.21699
 20
19.5423
 11
5.25103
 21
19.7934
  0
LINE
  8
0
 10
5.25103
 20
19.7934
 11
5.94159
 21
22.3706
  0
LINE
  8
0
 10
5.94159
 20
22.3706
 11
6.91195
 21
25.992
  0
LINE
  8
0
 10
6.91195
 20
25.992
 11
6.92543
 21
26.075
  0
LINE
  8
0
 10
6.92543
 20
26.075
 11
6.94425
 21
26.1908
  0
LINE
  8
0
 10
6.94425
 20
26.1908
 11
6.94088
 21
26.2743
  0
LINE
  8
0
 10
6.94088
 20
26.2743
 11
6.93616
 21
26.3912
  0
LINE
  8
0
 10
6.93616
 20
26.3912
 11
6.91612
 21
26.4724
  0
LINE
  8
0
 10
6.91612
 20
26.4724
 11
6.88806
 21
26.5862
  0
LINE
  8
0
 10
6.88806
 20
26.5862
 11
6.83801
 21
26.6921
  0
LINE
  8
0
 10
6.83801
 20
26.6921
 11
6.80234
 21
26.7675
  0
LINE
  8
0
 10
6.80234
 20
26.7675
 11
6.73198
 21
26.8612
  0
LINE
  8
0
 10
6.73198
 20
26.8612
 11
6.68189
 21
26.9279
  0
LINE
  8
0
 10
6.68189
 20
26.9279
 11
6.59434
 21
27.0059
  0
LINE
  8
0
 10
6.59434
 20
27.0059
 11
6.53206
 21
27.0613
  0
LINE
  8
0
 10
6.53206
 20
27.0613
 11
6.4306
 21
27.1201
  0
LINE
  8
0
 10
6.4306
 20
27.1201
 11
6.35847
 21
27.1619
  0
LINE
  8
0
 10
6.35847
 20
27.1619
 11
6.24654
 21
27.1996
  0
LINE
  8
0
 10
6.24654
 20
27.1996
 11
6.16699
 21
27.2263
  0
LINE
  8
0
 10
6.16699
 20
27.2263
 11
5.20958
 21
27.4133
  0
LINE
  8
0
 10
5.20958
 20
27.4133
 11
4.5303
 21
27.546
  0
LINE
  8
0
 10
4.5303
 20
27.546
 11
3.56343
 21
27.6755
  0
LINE
  8
0
 10
3.56343
 20
27.6755
 11
2.87744
 21
27.7673
  0
LINE
  8
0
 10
2.87744
 20
27.7673
 11
1.90457
 21
27.8389
  0
LINE
  8
0
 10
1.90457
 20
27.8389
 11
1.21432
 21
27.8896
  0
LINE
  8
0
 10
1.21432
 20
27.8896
 11
0.238908
 21
27.9029
  0
LINE
  8
0
 10
0.238908
 20
27.9029
 11
-0.453137
 21
27.9123
  0
LINE
  8
0
 10
-0.453137
 20
27.9123
 11
-1.4276
 21
27.8674
  0
LINE
  8
0
 10
-1.4276
 20
27.8674
 11
-2.11898
 21
27.8355
  0
LINE
  8
0
 10
-2.11898
 20
27.8355
 11
-3.08902
 21
27.7324
  0
LINE
  8
0
 10
-3.08902
 20
27.7324
 11
-3.77726
 21
27.6593
  0
LINE
  8
0
 10
-3.77726
 20
27.6593
 11
-4.73941
 21
27.4985
  0
LINE
  8
0
 10
-4.73941
 20
27.4985
 11
-5.42205
 21
27.3844
  0
LINE
  8
0
 10
-5.42205
 20
27.3844
 11
-6.3729
 21
27.1664
  0
LINE
  8
0
 10
-6.3729
 20
27.1664
 11
-7.0475
 21
27.0118
  0
LINE
  8
0
 10
-7.0475
 20
27.0118
 11
-7.98363
 21
26.7374
  0
LINE
  8
0
 10
-7.98363
 20
26.7374
 11
-8.64781
 21
26.5428
  0
LINE
  8
0
 10
-8.64781
 20
26.5428
 11
-9.56588
 21
26.213
  0
LINE
  8
0
 10
-9.56588
 20
26.213
 11
-10.2172
 21
25.979
  0
LINE
  8
0
 10
-10.2172
 20
25.979
 11
-11.114
 21
25.5951
  0
LINE
  8
0
 10
-11.114
 20
25.5951
 11
-11.7502
 21
25.3226
  0
LINE
  8
0
 10
-11.7502
 20
25.3226
 11
-12.6225
 21
24.8858
  0
LINE
  8
0
 10
-12.6225
 20
24.8858
 11
-13.2413
 21
24.5758
  0
LINE
  8
0
 10
-13.2413
 20
24.5758
 11
-14.0859
 21
24.0877
  0
LINE
  8
0
 10
-14.0859
 20
24.0877
 11
-14.6851
 21
23.7413
  0
LINE
  8
0
 10
-14.6851
 20
23.7413
 11
-15.2626
 21
23.3598
  0
LINE
  8
0
 10
-15.2626
 20
23.3598
 11
-16.0765
 21
22.8221
  0
LINE
  8
0
 10
-16.0765
 20
22.8221
 11
-16.6301
 21
22.4068
  0
LINE
  8
0
 10
-16.6301
 20
22.4068
 11
-17.4105
 21
21.8215
  0
LINE
  8
0
 10
-17.4105
 20
21.8215
 11
-17.9384
 21
21.3739
  0
LINE
  8
0
 10
-17.9384
 20
21.3739
 11
-18.6824
 21
20.743
  0
LINE
  8
0
 10
-18.6824
 20
20.743
 11
-19.1826
 21
20.2646
  0
LINE
  8
0
 10
-19.1826
 20
20.2646
 11
-19.8876
 21
19.5904
  0
LINE
  8
0
 10
-19.8876
 20
19.5904
 11
-20.3584
 21
19.0831
  0
LINE
  8
0
 10
-20.3584
 20
19.0831
 11
-21.0219
 21
18.368
  0
LINE
  8
0
 10
-21.0219
 20
18.368
 11
-21.4615
 21
17.8334
  0
LINE
  8
0
 10
-21.4615
 20
17.8334
 11
-22.0811
 21
17.08
  0
LINE
  8
0
 10
-22.0811
 20
17.08
 11
-22.4881
 21
16.5201
  0
LINE
  8
0
 10
-22.4881
 20
16.5201
 11
-23.0616
 21
15.731
  0
LINE
  8
0
 10
-23.0616
 20
15.731
 11
-23.4344
 21
15.1479
  0
LINE
  8
0
 10
-23.4344
 20
15.1479
 11
-23.9598
 21
14.326
  0
LINE
  8
0
 10
-23.9598
 20
14.326
 11
-24.297
 21
13.7216
  0
LINE
  8
0
 10
-24.297
 20
13.7216
 11
-24.7724
 21
12.8698
  0
LINE
  8
0
 10
-24.7724
 20
12.8698
 11
-25.073
 21
12.2463
  0
LINE
  8
0
 10
-25.073
 20
12.2463
 11
-25.4967
 21
11.3676
  0
LINE
  8
0
 10
-25.4967
 20
11.3676
 11
-25.7595
 21
10.7274
  0
LINE
  8
0
 10
-25.7595
 20
10.7274
 11
-26.1299
 21
9.82495
  0
LINE
  8
0
 10
-26.1299
 20
9.82495
 11
-26.3541
 21
9.17014
  0
LINE
  8
0
 10
-26.3541
 20
9.17014
 11
-26.67
 21
8.2472
  0
LINE
  8
0
 10
-26.67
 20
8.2472
 11
-26.6865
 21
8.16524
  0
LINE
  8
0
 10
-26.6865
 20
8.16524
 11
-26.7098
 21
8.04993
  0
LINE
  8
0
 10
-22.7749
 20
-11.9062
 11
-22.7278
 21
-11.4587
  0
LINE
  8
0
 10
-22.7278
 20
-11.4587
 11
-22.5888
 21
-11.0307
  0
LINE
  8
0
 10
-22.5888
 20
-11.0307
 11
-22.3638
 21
-10.641
  0
LINE
  8
0
 10
-22.3638
 20
-10.641
 11
-22.0626
 21
-10.3065
  0
LINE
  8
0
 10
-22.0626
 20
-10.3065
 11
-21.6986
 21
-10.042
  0
LINE
  8
0
 10
-21.6986
 20
-10.042
 11
-21.2874
 21
-9.85896
  0
LINE
  8
0
 10
-21.2874
 20
-9.85896
 11
-20.8472
 21
-9.76539
  0
LINE
  8
0
 10
-20.8472
 20
-9.76539
 11
-20.3972
 21
-9.76539
  0
LINE
  8
0
 10
-20.3972
 20
-9.76539
 11
-19.957
 21
-9.85896
  0
LINE
  8
0
 10
-19.957
 20
-9.85896
 11
-19.5459
 21
-10.042
  0
LINE
  8
0
 10
-19.5459
 20
-10.042
 11
-19.1818
 21
-10.3065
  0
LINE
  8
0
 10
-19.1818
 20
-10.3065
 11
-18.8807
 21
-10.641
  0
LINE
  8
0
 10
-18.8807
 20
-10.641
 11
-18.6557
 21
-11.0307
  0
LINE
  8
0
 10
-18.6557
 20
-11.0307
 11
-18.5166
 21
-11.4587
  0
LINE
  8
0
 10
-18.5166
 20
-11.4587
 11
-18.4696
 21
-11.9062
  0
LINE
  8
0
 10
-18.4696
 20
-11.9062
 11
-18.5166
 21
-12.3538
  0
LINE
  8
0
 10
-18.5166
 20
-12.3538
 11
-18.6557
 21
-12.7818
  0
LINE
  8
0
 10
-18.6557
 20
-12.7818
 11
-18.8807
 21
-13.1715
  0
LINE
  8
0
 10
-18.8807
 20
-13.1715
 11
-19.1818
 21
-13.506
  0
LINE
  8
0
 10
-19.1818
 20
-13.506
 11
-19.5459
 21
-13.7705
  0
LINE
  8
0
 10
-19.5459
 20
-13.7705
 11
-19.957
 21
-13.9535
  0
LINE
  8
0
 10
-19.957
 20
-13.9535
 11
-20.3972
 21
-14.0471
  0
LINE
  8
0
 10
-20.3972
 20
-14.0471
 11
-20.8472
 21
-14.0471
  0
LINE
  8
0
 10
-20.8472
 20
-14.0471
 11
-21.2874
 21
-13.9535
  0
LINE
  8
0
 10
-21.2874
 20
-13.9535
 11
-21.6986
 21
-13.7705
  0
LINE
  8
0
 10
-21.6986
 20
-13.7705
 11
-22.0626
 21
-13.506
  0
LINE
  8
0
 10
-22.0626
 20
-13.506
 11
-22.3638
 21
-13.1715
  0
LINE
  8
0
 10
-22.3638
 20
-13.1715
 11
-22.5888
 21
-12.7818
  0
LINE
  8
0
 10
-22.5888
 20
-12.7818
 11
-22.7278
 21
-12.3538
  0
LINE
  8
0
 10
-22.7278
 20
-12.3538
 11
-22.7749
 21
-11.9062
  0
LINE
  8
0
 10
-22.7749
 20
11.9062
 11
-22.7278
 21
12.3538
  0
LINE
  8
0
 10
-22.7278
 20
12.3538
 11
-22.5888
 21
12.7818
  0
LINE
  8
0
 10
-22.5888
 20
12.7818
 11
-22.3638
 21
13.1715
  0
LINE
  8
0
 10
-22.3638
 20
13.1715
 11
-22.0626
 21
13.506
  0
LINE
  8
0
 10
-22.0626
 20
13.506
 11
-21.6986
 21
13.7705
  0
LINE
  8
0
 10
-21.6986
 20
13.7705
 11
-21.2874
 21
13.9535
  0
LINE
  8
0
 10
-21.2874
 20
13.9535
 11
-20.8472
 21
14.0471
  0
LINE
  8
0
 10
-20.8472
 20
14.0471
 11
-20.3972
 21
14.0471
  0
LINE
  8
0
 10
-20.3972
 20
14.0471
 11
-19.957
 21
13.9535
  0
LINE
  8
0
 10
-19.957
 20
13.9535
 11
-19.5459
 21
13.7705
  0
LINE
  8
0
 10
-19.5459
 20
13.7705
 11
-19.1818
 21
13.506
  0
LINE
  8
0
 10
-19.1818
 20
13.506
 11
-18.8807
 21
13.1715
  0
LINE
  8
0
 10
-18.8807
 20
13.1715
 11
-18.6557
 21
12.7818
  0
LINE
  8
0
 10
-18.6557
 20
12.7818
 11
-18.5166
 21
12.3538
  0
LINE
  8
0
 10
-18.5166
 20
12.3538
 11
-18.4696
 21
11.9062
  0
LINE
  8
0
 10
-18.4696
 20
11.9062
 11
-18.5166
 21
11.4587
  0
LINE
  8
0
 10
-18.5166
 20
11.4587
 11
-18.6557
 21
11.0307
  0
LINE
  8
0
 10
-18.6557
 20
11.0307
 11
-18.8807
 21
10.641
  0
LINE
  8
0
 10
-18.8807
 20
10.641
 11
-19.1818
 21
10.3065
  0
LINE
  8
0
 10
-19.1818
 20
10.3065
 11
-19.5459
 21
10.042
  0
LINE
  8
0
 10
-19.5459
 20
10.042
 11
-19.957
 21
9.85896
  0
LINE
  8
0
 10
-19.957
 20
9.85896
 11
-20.3972
 21
9.76539
  0
LINE
  8
0
 10
-20.3972
 20
9.76539
 11
-20.8472
 21
9.76539
  0
LINE
  8
0
 10
-20.8472
 20
9.76539
 11
-21.2874
 21
9.85896
  0
LINE
  8
0
 10
-21.2874
 20
9.85896
 11
-21.6986
 21
10.042
  0
LINE
  8
0
 10
-21.6986
 20
10.042
 11
-22.0626
 21
10.3065
  0
LINE
  8
0
 10
-22.0626
 20
10.3065
 11
-22.3638
 21
10.641
  0
LINE
  8
0
 10
-22.3638
 20
10.641
 11
-22.5888
 21
11.0307
  0
LINE
  8
0
 10
-22.5888
 20
11.0307
 11
-22.7278
 21
11.4587
  0
LINE
  8
0
 10
-22.7278
 20
11.4587
 11
-22.7749
 21
11.9062
  0
LINE
  8
0
 10
-8.75
 20
0
 11
-8.70283
 21
0.403577
  0
LINE
  8
0
 10
-8.70283
 20
0.403577
 11
-8.56386
 21
0.785398
  0
LINE
  8
0
 10
-8.56386
 20
0.785398
 11
-8.34058
 21
1.12488
  0
LINE
  8
0
 10
-8.34058
 20
1.12488
 11
-8.04503
 21
1.40372
  0
LINE
  8
0
 10
-8.04503
 20
1.40372
 11
-7.69314
 21
1.60688
  0
LINE
  8
0
 10
-7.69314
 20
1.60688
 11
-7.30388
 21
1.72341
  0
LINE
  8
0
 10
-7.30388
 20
1.72341
 11
-6.89825
 21
1.74704
  0
LINE
  8
0
 10
-6.89825
 20
1.74704
 11
-6.49809
 21
1.67648
  0
LINE
  8
0
 10
-6.49809
 20
1.67648
 11
-6.125
 21
1.51554
  0
LINE
  8
0
 10
-6.125
 20
1.51554
 11
-5.79908
 21
1.2729
  0
LINE
  8
0
 10
-5.79908
 20
1.2729
 11
-5.5379
 21
0.96164
  0
LINE
  8
0
 10
-5.5379
 20
0.96164
 11
-5.35554
 21
0.598535
  0
LINE
  8
0
 10
-5.35554
 20
0.598535
 11
-5.26183
 21
0.203162
  0
LINE
  8
0
 10
-5.26183
 20
0.203162
 11
-5.26183
 21
-0.203162
  0
LINE
  8
0
 10
-5.26183
 20
-0.203162
 11
-5.35554
 21
-0.598535
  0
LINE
  8
0
 10
-5.35554
 20
-0.598535
 11
-5.5379
 21
-0.96164
  0
LINE
  8
0
 10
-5.5379
 20
-0.96164
 11
-5.79908
 21
-1.2729
  0
LINE
  8
0
 10
-5.79908
 20
-1.2729
 11
-6.125
 21
-1.51554
  0
LINE
  8
0
 10
-6.125
 20
-1.51554
 11
-6.49809
 21
-1.67648
  0
LINE
  8
0
 10
-6.49809
 20
-1.67648
 11
-6.89825
 21
-1.74704
  0
LINE
  8
0
 10
-6.89825
 20
-1.74704
 11
-7.30388
 21
-1.72341
  0
LINE
  8
0
 10
-7.30388
 20
-1.72341
 11
-7.69314
 21
-1.60688
  0
LINE
  8
0
 10
-7.69314
 20
-1.60688
 11
-8.04503
 21
-1.40372
  0
LINE
  8
0
 10
-8.04503
 20
-1.40372
 11
-8.34058
 21
-1.12488
  0
LINE
  8
0
 10
-8.34058
 20
-1.12488
 11
-8.56386
 21
-0.785398
  0
LINE
  8
0
 10
-8.56386
 20
-0.785398
 11
-8.70283
 21
-0.403577
  0
LINE
  8
0
 10
-8.70283
 20
-0.403577
 11
-8.75
 21
0
  0
LINE
  8
0
 10
-3.5
 20
0
 11
-3.45226
 21
0.57608
  0
LINE
  8
0
 10
-3.45226
 20
0.57608
 11
-3.31036
 21
1.13645
  0
LINE
  8
0
 10
-3.31036
 20
1.13645
 11
-3.07816
 21
1.66582
  0
LINE
  8
0
 10
-3.07816
 20
1.66582
 11
-2.76199
 21
2.14974
  0
LINE
  8
0
 10
-2.76199
 20
2.14974
 11
-2.37049
 21
2.57503
  0
LINE
  8
0
 10
-2.37049
 20
2.57503
 11
-1.91432
 21
2.93008
  0
LINE
  8
0
 10
-1.91432
 20
2.93008
 11
-1.40593
 21
3.20521
  0
LINE
  8
0
 10
-1.40593
 20
3.20521
 11
-0.859199
 21
3.3929
  0
LINE
  8
0
 10
-0.859199
 20
3.3929
 11
-0.289027
 21
3.48805
  0
LINE
  8
0
 10
-0.289027
 20
3.48805
 11
0.289027
 21
3.48805
  0
LINE
  8
0
 10
0.289027
 20
3.48805
 11
0.859199
 21
3.3929
  0
LINE
  8
0
 10
0.859199
 20
3.3929
 11
1.40593
 21
3.20521
  0
LINE
  8
0
 10
1.40593
 20
3.20521
 11
1.91432
 21
2.93008
  0
LINE
  8
0
 10
1.91432
 20
2.93008
 11
2.37049
 21
2.57503
  0
LINE
  8
0
 10
2.37049
 20
2.57503
 11
2.76199
 21
2.14974
  0
LINE
  8
0
 10
2.76199
 20
2.14974
 11
3.07816
 21
1.66582
  0
LINE
  8
0
 10
3.07816
 20
1.66582
 11
3.31036
 21
1.13645
  0
LINE
  8
0
 10
3.31036
 20
1.13645
 11
3.45226
 21
0.57608
  0
LINE
  8
0
 10
3.45226
 20
0.57608
 11
3.5
 21
0
  0
LINE
  8
0
 10
3.5
 20
0
 11
3.45226
 21
-0.57608
  0
LINE
  8
0
 10
3.45226
 20
-0.57608
 11
3.31036
 21
-1.13645
  0
LINE
  8
0
 10
3.31036
 20
-1.13645
 11
3.07816
 21
-1.66582
  0
LINE
  8
0
 10
3.07816
 20
-1.66582
 11
2.76199
 21
-2.14974
  0
LINE
  8
0
 10
2.76199
 20
-2.14974
 11
2.37049
 21
-2.57503
  0
LINE
  8
0
 10
2.37049
 20
-2.57503
 11
1.91432
 21
-2.93008
  0
LINE
  8
0
 10
1.91432
 20
-2.93008
 11
1.40593
 21
-3.20521
  0
LINE
  8
0
 10
1.40593
 20
-3.20521
 11
0.859199
 21
-3.3929
  0
LINE
  8
0
 10
0.859199
 20
-3.3929
 11
0.289027
 21
-3.48805
  0
LINE
  8
0
 10
0.289027
 20
-3.48805
 11
-0.289027
 21
-3.48805
  0
LINE
  8
0
 10
-0.289027
 20
-3.48805
 11
-0.859199
 21
-3.3929
  0
LINE
  8
0
 10
-0.859199
 20
-3.3929
 11
-1.40593
 21
-3.20521
  0
LINE
  8
0
 10
-1.40593
 20
-3.20521
 11
-1.91432
 21
-2.93008
  0
LINE
  8
0
 10
-1.91432
 20
-2.93008
 11
-2.37049
 21
-2.57503
  0
LINE
  8
0
 10
-2.37049
 20
-2.57503
 11
-2.76199
 21
-2.14974
  0
LINE
  8
0
 10
-2.76199
 20
-2.14974
 11
-3.07816
 21
-1.66582
  0
LINE
  8
0
 10
-3.07816
 20
-1.66582
 11
-3.31036
 21
-1.13645
  0
LINE
  8
0
 10
-3.31036
 20
-1.13645
 11
-3.45226
 21
-0.57608
  0
LINE
  8
0
 10
-3.45226
 20
-0.57608
 11
-3.5
 21
0
  0
LINE
  8
0
 10
-2.15265
 20
-23.8125
 11
-2.10561
 21
-23.3649
  0
LINE
  8
0
 10
-2.10561
 20
-23.3649
 11
-1.96654
 21
-22.9369
  0
LINE
  8
0
 10
-1.96654
 20
-22.9369
 11
-1.74153
 21
-22.5472
  0
LINE
  8
0
 10
-1.74153
 20
-22.5472
 11
-1.4404
 21
-22.2128
  0
LINE
  8
0
 10
-1.4404
 20
-22.2128
 11
-1.07632
 21
-21.9482
  0
LINE
  8
0
 10
-1.07632
 20
-21.9482
 11
-0.665205
 21
-21.7652
  0
LINE
  8
0
 10
-0.665205
 20
-21.7652
 11
-0.225013
 21
-21.6716
  0
LINE
  8
0
 10
-0.225013
 20
-21.6716
 11
0.225013
 21
-21.6716
  0
LINE
  8
0
 10
0.225013
 20
-21.6716
 11
0.665205
 21
-21.7652
  0
LINE
  8
0
 10
0.665205
 20
-21.7652
 11
1.07632
 21
-21.9482
  0
LINE
  8
0
 10
1.07632
 20
-21.9482
 11
1.4404
 21
-22.2128
  0
LINE
  8
0
 10
1.4404
 20
-22.2128
 11
1.74153
 21
-22.5472
  0
LINE
  8
0
 10
1.74153
 20
-22.5472
 11
1.96654
 21
-22.9369
  0
LINE
  8
0
 10
1.96654
 20
-22.9369
 11
2.10561
 21
-23.3649
  0
LINE
  8
0
 10
2.10561
 20
-23.3649
 11
2.15265
 21
-23.8125
  0
LINE
  8
0
 10
2.15265
 20
-23.8125
 11
2.10561
 21
-24.2601
  0
LINE
  8
0
 10
2.10561
 20
-24.2601
 11
1.96654
 21
-24.6881
  0
LINE
  8
0
 10
1.96654
 20
-24.6881
 11
1.74153
 21
-25.0778
  0
LINE
  8
0
 10
1.74153
 20
-25.0778
 11
1.4404
 21
-25.4122
  0
LINE
  8
0
 10
1.4404
 20
-25.4122
 11
1.07632
 21
-25.6768
  0
LINE
  8
0
 10
1.07632
 20
-25.6768
 11
0.665205
 21
-25.8598
  0
LINE
  8
0
 10
0.665205
 20
-25.8598
 11
0.225013
 21
-25.9534
  0
LINE
  8
0
 10
0.225013
 20
-25.9534
 11
-0.225013
 21
-25.9534
  0
LINE
  8
0
 10
-0.225013
 20
-25.9534
 11
-0.665205
 21
-25.8598
  0
LINE
  8
0
 10
-0.665205
 20
-25.8598
 11
-1.07632
 21
-25.6768
  0
LINE
  8
0
 10
-1.07632
 20
-25.6768
 11
-1.4404
 21
-25.4122
  0
LINE
  8
0
 10
-1.4404
 20
-25.4122
 11
-1.74153
 21
-25.0778
  0
LINE
  8
0
 10
-1.74153
 20
-25.0778
 11
-1.96654
 21
-24.6881
  0
LINE
  8
0
 10
-1.96654
 20
-24.6881
 11
-2.10561
 21
-24.2601
  0
LINE
  8
0
 10
-2.10561
 20
-24.2601
 11
-2.15265
 21
-23.8125
  0
LINE
  8
0
 10
-2.15265
 20
23.8125
 11
-2.10561
 21
24.2601
  0
LINE
  8
0
 10
-2.10561
 20
24.2601
 11
-1.96654
 21
24.6881
  0
LINE
  8
0
 10
-1.96654
 20
24.6881
 11
-1.74153
 21
25.0778
  0
LINE
  8
0
 10
-1.74153
 20
25.0778
 11
-1.4404
 21
25.4122
  0
LINE
  8
0
 10
-1.4404
 20
25.4122
 11
-1.07632
 21
25.6768
  0
LINE
  8
0
 10
-1.07632
 20
25.6768
 11
-0.665205
 21
25.8598
  0
LINE
  8
0
 10
-0.665205
 20
25.8598
 11
-0.225013
 21
25.9534
  0
LINE
  8
0
 10
-0.225013
 20
25.9534
 11
0.225013
 21
25.9534
  0
LINE
  8
0
 10
0.225013
 20
25.9534
 11
0.665205
 21
25.8598
  0
LINE
  8
0
 10
0.665205
 20
25.8598
 11
1.07632
 21
25.6768
  0
LINE
  8
0
 10
1.07632
 20
25.6768
 11
1.4404
 21
25.4122
  0
LINE
  8
0
 10
1.4404
 20
25.4122
 11
1.74153
 21
25.0778
  0
LINE
  8
0
 10
1.74153
 20
25.0778
 11
1.96654
 21
24.6881
  0
LINE
  8
0
 10
1.96654
 20
24.6881
 11
2.10561
 21
24.2601
  0
LINE
  8
0
 10
2.10561
 20
24.2601
 11
2.15265
 21
23.8125
  0
LINE
  8
0
 10
2.15265
 20
23.8125
 11
2.10561
 21
23.3649
  0
LINE
  8
0
 10
2.10561
 20
23.3649
 11
1.96654
 21
22.9369
  0
LINE
  8
0
 10
1.96654
 20
22.9369
 11
1.74153
 21
22.5472
  0
LINE
  8
0
 10
1.74153
 20
22.5472
 11
1.4404
 21
22.2128
  0
LINE
  8
0
 10
1.4404
 20
22.2128
 11
1.07632
 21
21.9482
  0
LINE
  8
0
 10
1.07632
 20
21.9482
 11
0.665205
 21
21.7652
  0
LINE
  8
0
 10
0.665205
 20
21.7652
 11
0.225013
 21
21.6716
  0
LINE
  8
0
 10
0.225013
 20
21.6716
 11
-0.225013
 21
21.6716
  0
LINE
  8
0
 10
-0.225013
 20
21.6716
 11
-0.665205
 21
21.7652
  0
LINE
  8
0
 10
-0.665205
 20
21.7652
 11
-1.07632
 21
21.9482
  0
LINE
  8
0
 10
-1.07632
 20
21.9482
 11
-1.4404
 21
22.2128
  0
LINE
  8
0
 10
-1.4404
 20
22.2128
 11
-1.74153
 21
22.5472
  0
LINE
  8
0
 10
-1.74153
 20
22.5472
 11
-1.96654
 21
22.9369
  0
LINE
  8
0
 10
-1.96654
 20
22.9369
 11
-2.10561
 21
23.3649
  0
LINE
  8
0
 10
-2.10561
 20
23.3649
 11
-2.15265
 21
23.8125
  0
LINE
  8
0
 10
-1.75
 20
-7
 11
-1.70283
 21
-6.59642
  0
LINE
  8
0
 10
-1.70283
 20
-6.59642
 11
-1.56386
 21
-6.2146
  0
LINE
  8
0
 10
-1.56386
 20
-6.2146
 11
-1.34058
 21
-5.87512
  0
LINE
  8
0
 10
-1.34058
 20
-5.87512
 11
-1.04503
 21
-5.59628
  0
LINE
  8
0
 10
-1.04503
 20
-5.59628
 11
-0.693139
 21
-5.39312
  0
LINE
  8
0
 10
-0.693139
 20
-5.39312
 11
-0.303884
 21
-5.27659
  0
LINE
  8
0
 10
-0.303884
 20
-5.27659
 11
0.101753
 21
-5.25296
  0
LINE
  8
0
 10
0.101753
 20
-5.25296
 11
0.501905
 21
-5.32352
  0
LINE
  8
0
 10
0.501905
 20
-5.32352
 11
0.875
 21
-5.48446
  0
LINE
  8
0
 10
0.875
 20
-5.48446
 11
1.20092
 21
-5.7271
  0
LINE
  8
0
 10
1.20092
 20
-5.7271
 11
1.4621
 21
-6.03836
  0
LINE
  8
0
 10
1.4621
 20
-6.03836
 11
1.64446
 21
-6.40146
  0
LINE
  8
0
 10
1.64446
 20
-6.40146
 11
1.73817
 21
-6.79684
  0
LINE
  8
0
 10
1.73817
 20
-6.79684
 11
1.73817
 21
-7.20316
  0
LINE
  8
0
 10
1.73817
 20
-7.20316
 11
1.64446
 21
-7.59853
  0
LINE
  8
0
 10
1.64446
 20
-7.59853
 11
1.4621
 21
-7.96164
  0
LINE
  8
0
 10
1.4621
 20
-7.96164
 11
1.20092
 21
-8.2729
  0
LINE
  8
0
 10
1.20092
 20
-8.2729
 11
0.875
 21
-8.51554
  0
LINE
  8
0
 10
0.875
 20
-8.51554
 11
0.501905
 21
-8.67648
  0
LINE
  8
0
 10
0.501905
 20
-8.67648
 11
0.101753
 21
-8.74704
  0
LINE
  8
0
 10
0.101753
 20
-8.74704
 11
-0.303884
 21
-8.72341
  0
LINE
  8
0
 10
-0.303884
 20
-8.72341
 11
-0.693139
 21
-8.60688
  0
LINE
  8
0
 10
-0.693139
 20
-8.60688
 11
-1.04503
 21
-8.40372
  0
LINE
  8
0
 10
-1.04503
 20
-8.40372
 11
-1.34058
 21
-8.12488
  0
LINE
  8
0
 10
-1.34058
 20
-8.12488
 11
-1.56386
 21
-7.7854
  0
LINE
  8
0
 10
-1.56386
 20
-7.7854
 11
-1.70283
 21
-7.40358
  0
LINE
  8
0
 10
-1.70283
 20
-7.40358
 11
-1.75
 21
-7
  0
LINE
  8
0
 10
-1.75
 20
7
 11
-1.70283
 21
7.40358
  0
LINE
  8
0
 10
-1.70283
 20
7.40358
 11
-1.56386
 21
7.7854
  0
LINE
  8
0
 10
-1.56386
 20
7.7854
 11
-1.34058
 21
8.12488
  0
LINE
  8
0
 10
-1.34058
 20
8.12488
 11
-1.04503
 21
8.40372
  0
LINE
  8
0
 10
-1.04503
 20
8.40372
 11
-0.693139
 21
8.60688
  0
LINE
  8
0
 10
-0.693139
 20
8.60688
 11
-0.303884
 21
8.72341
  0
LINE
  8
0
 10
-0.303884
 20
8.72341
 11
0.101753
 21
8.74704
  0
LINE
  8
0
 10
0.101753
 20
8.74704
 11
0.501905
 21
8.67648
  0
LINE
  8
0
 10
0.501905
 20
8.67648
 11
0.875
 21
8.51554
  0
LINE
  8
0
 10
0.875
 20
8.51554
 11
1.20092
 21
8.2729
  0
LINE
  8
0
 10
1.20092
 20
8.2729
 11
1.4621
 21
7.96164
  0
LINE
  8
0
 10
1.4621
 20
7.96164
 11
1.64446
 21
7.59853
  0
LINE
  8
0
 10
1.64446
 20
7.59853
 11
1.73817
 21
7.20316
  0
LINE
  8
0
 10
1.73817
 20
7.20316
 11
1.73817
 21
6.79684
  0
LINE
  8
0
 10
1.73817
 20
6.79684
 11
1.64446
 21
6.40146
  0
LINE
  8
0
 10
1.64446
 20
6.40146
 11
1.4621
 21
6.03836
  0
LINE
  8
0
 10
1.4621
 20
6.03836
 11
1.20092
 21
5.7271
  0
LINE
  8
0
 10
1.20092
 20
5.7271
 11
0.875
 21
5.48446
  0
LINE
  8
0
 10
0.875
 20
5.48446
 11
0.501905
 21
5.32352
  0
LINE
  8
0
 10
0.501905
 20
5.32352
 11
0.101753
 21
5.25296
  0
LINE
  8
0
 10
0.101753
 20
5.25296
 11
-0.303884
 21
5.27659
  0
LINE
  8
0
 10
-0.303884
 20
5.27659
 11
-0.693139
 21
5.39312
  0
LINE
  8
0
 10
-0.693139
 20
5.39312
 11
-1.04503
 21
5.59628
  0
LINE
  8
0
 10
-1.04503
 20
5.59628
 11
-1.34058
 21
5.87512
  0
LINE
  8
0
 10
-1.34058
 20
5.87512
 11
-1.56386
 21
6.2146
  0
LINE
  8
0
 10
-1.56386
 20
6.2146
 11
-1.70283
 21
6.59642
  0
LINE
  8
0
 10
-1.70283
 20
6.59642
 11
-1.75
 21
7
  0
LINE
  8
0
 10
5.25
 20
0
 11
5.29717
 21
0.403577
  0
LINE
  8
0
 10
5.29717
 20
0.403577
 11
5.43614
 21
0.785398
  0
LINE
  8
0
 10
5.43614
 20
0.785398
 11
5.65942
 21
1.12488
  0
LINE
  8
0
 10
5.65942
 20
1.12488
 11
5.95497
 21
1.40372
  0
LINE
  8
0
 10
5.95497
 20
1.40372
 11
6.30686
 21
1.60688
  0
LINE
  8
0
 10
6.30686
 20
1.60688
 11
6.69612
 21
1.72341
  0
LINE
  8
0
 10
6.69612
 20
1.72341
 11
7.10175
 21
1.74704
  0
LINE
  8
0
 10
7.10175
 20
1.74704
 11
7.50191
 21
1.67648
  0
LINE
  8
0
 10
7.50191
 20
1.67648
 11
7.875
 21
1.51554
  0
LINE
  8
0
 10
7.875
 20
1.51554
 11
8.20092
 21
1.2729
  0
LINE
  8
0
 10
8.20092
 20
1.2729
 11
8.4621
 21
0.96164
  0
LINE
  8
0
 10
8.4621
 20
0.96164
 11
8.64446
 21
0.598535
  0
LINE
  8
0
 10
8.64446
 20
0.598535
 11
8.73817
 21
0.203162
  0
LINE
  8
0
 10
8.73817
 20
0.203162
 11
8.73817
 21
-0.203162
  0
LINE
  8
0
 10
8.73817
 20
-0.203162
 11
8.64446
 21
-0.598535
  0
LINE
  8
0
 10
8.64446
 20
-0.598535
 11
8.4621
 21
-0.96164
  0
LINE
  8
0
 10
8.4621
 20
-0.96164
 11
8.20092
 21
-1.2729
  0
LINE
  8
0
 10
8.20092
 20
-1.2729
 11
7.875
 21
-1.51554
  0
LINE
  8
0
 10
7.875
 20
-1.51554
 11
7.50191
 21
-1.67648
  0
LINE
  8
0
 10
7.50191
 20
-1.67648
 11
7.10175
 21
-1.74704
  0
LINE
  8
0
 10
7.10175
 20
-1.74704
 11
6.69612
 21
-1.72341
  0
LINE
  8
0
 10
6.69612
 20
-1.72341
 11
6.30686
 21
-1.60688
  0
LINE
  8
0
 10
6.30686
 20
-1.60688
 11
5.95497
 21
-1.40372
  0
LINE
  8
0
 10
5.95497
 20
-1.40372
 11
5.65942
 21
-1.12488
  0
LINE
  8
0
 10
5.65942
 20
-1.12488
 11
5.43614
 21
-0.785398
  0
LINE
  8
0
 10
5.43614
 20
-0.785398
 11
5.29717
 21
-0.403577
  0
LINE
  8
0
 10
5.29717
 20
-0.403577
 11
5.25
 21
0
  0
LINE
  8
0
 10
18.4696
 20
-11.9062
 11
18.5166
 21
-11.4587
  0
LINE
  8
0
 10
18.5166
 20
-11.4587
 11
18.6557
 21
-11.0307
  0
LINE
  8
0
 10
18.6557
 20
-11.0307
 11
18.8807
 21
-10.641
  0
LINE
  8
0
 10
18.8807
 20
-10.641
 11
19.1818
 21
-10.3065
  0
LINE
  8
0
 10
19.1818
 20
-10.3065
 11
19.5459
 21
-10.042
  0
LINE
  8
0
 10
19.5459
 20
-10.042
 11
19.957
 21
-9.85896
  0
LINE
  8
0
 10
19.957
 20
-9.85896
 11
20.3972
 21
-9.76539
  0
LINE
  8
0
 10
20.3972
 20
-9.76539
 11
20.8472
 21
-9.76539
  0
LINE
  8
0
 10
20.8472
 20
-9.76539
 11
21.2874
 21
-9.85896
  0
LINE
  8
0
 10
21.2874
 20
-9.85896
 11
21.6986
 21
-10.042
  0
LINE
  8
0
 10
21.6986
 20
-10.042
 11
22.0626
 21
-10.3065
  0
LINE
  8
0
 10
22.0626
 20
-10.3065
 11
22.3638
 21
-10.641
  0
LINE
  8
0
 10
22.3638
 20
-10.641
 11
22.5888
 21
-11.0307
  0
LINE
  8
0
 10
22.5888
 20
-11.0307
 11
22.7278
 21
-11.4587
  0
LINE
  8
0
 10
22.7278
 20
-11.4587
 11
22.7749
 21
-11.9062
  0
LINE
  8
0
 10
22.7749
 20
-11.9062
 11
22.7278
 21
-12.3538
  0
LINE
  8
0
 10
22.7278
 20
-12.3538
 11
22.5888
 21
-12.7818
  0
LINE
  8
0
 10
22.5888
 20
-12.7818
 11
22.3638
 21
-13.1715
  0
LINE
  8
0
 10
22.3638
 20
-13.1715
 11
22.0626
 21
-13.506
  0
LINE
  8
0
 10
22.0626
 20
-13.506
 11
21.6986
 21
-13.7705
  0
LINE
  8
0
 10
21.6986
 20
-13.7705
 11
21.2874
 21
-13.9535
  0
LINE
  8
0
 10
21.2874
 20
-13.9535
 11
20.8472
 21
-14.0471
  0
LINE
  8
0
 10
20.8472
 20
-14.0471
 11
20.3972
 21
-14.0471
  0
LINE
  8
0
 10
20.3972
 20
-14.0471
 11
19.957
 21
-13.9535
  0
LINE
  8
0
 10
19.957
 20
-13.9535
 11
19.5459
 21
-13.7705
  0
LINE
  8
0
 10
19.5459
 20
-13.7705
 11
19.1818
 21
-13.506
  0
LINE
  8
0
 10
19.1818
 20
-13.506
 11
18.8807
 21
-13.1715
  0
LINE
  8
0
 10
18.8807
 20
-13.1715
 11
18.6557
 21
-12.7818
  0
LINE
  8
0
 10
18.6557
 20
-12.7818
 11
18.5166
 21
-12.3538
  0
LINE
  8
0
 10
18.5166
 20
-12.3538
 11
18.4696
 21
-11.9062
  0
LINE
  8
0
 10
18.4696
 20
11.9062
 11
18.5166
 21
12.3538
  0
LINE
  8
0
 10
18.5166
 20
12.3538
 11
18.6557
 21
12.7818
  0
LINE
  8
0
 10
18.6557
 20
12.7818
 11
18.8807
 21
13.1715
  0
LINE
  8
0
 10
18.8807
 20
13.1715
 11
19.1818
 21
13.506
  0
LINE
  8
0
 10
19.1818
 20
13.506
 11
19.5459
 21
13.7705
  0
LINE
  8
0
 10
19.5459
 20
13.7705
 11
19.957
 21
13.9535
  0
LINE
  8
0
 10
19.957
 20
13.9535
 11
20.3972
 21
14.0471
  0
LINE
  8
0
 10
20.3972
 20
14.0471
 11
20.8472
 21
14.0471
  0
LINE
  8
0
 10
20.8472
 20
14.0471
 11
21.2874
 21
13.9535
  0
LINE
  8
0
 10
21.2874
 20
13.9535
 11
21.6986
 21
13.7705
  0
LINE
  8
0
 10
21.6986
 20
13.7705
 11
22.0626
 21
13.506
  0
LINE
  8
0
 10
22.0626
 20
13.506
 11
22.3638
 21
13.1715
  0
LINE
  8
0
 10
22.3638
 20
13.1715
 11
22.5888
 21
12.7818
  0
LINE
  8
0
 10
22.5888
 20
12.7818
 11
22.7278
 21
12.3538
  0
LINE
  8
0
 10
22.7278
 20
12.3538
 11
22.7749
 21
11.9062
  0
LINE
  8
0
 10
22.7749
 20
11.9062
 11
22.7278
 21
11.4587
  0
LINE
  8
0
 10
22.7278
 20
11.4587
 11
22.5888
 21
11.0307
  0
LINE
  8
0
 10
22.5888
 20
11.0307
 11
22.3638
 21
10.641
  0
LINE
  8
0
 10
22.3638
 20
10.641
 11
22.0626
 21
10.3065
  0
LINE
  8
0
 10
22.0626
 20
10.3065
 11
21.6986
 21
10.042
  0
LINE
  8
0
 10
21.6986
 20
10.042
 11
21.2874
 21
9.85896
  0
LINE
  8
0
 10
21.2874
 20
9.85896
 11
20.8472
 21
9.76539
  0
LINE
  8
0
 10
20.8472
 20
9.76539
 11
20.3972
 21
9.76539
  0
LINE
  8
0
 10
20.3972
 20
9.76539
 11
19.957
 21
9.85896
  0
LINE
  8
0
 10
19.957
 20
9.85896
 11
19.5459
 21
10.042
  0
LINE
  8
0
 10
19.5459
 20
10.042
 11
19.1818
 21
10.3065
  0
LINE
  8
0
 10
19.1818
 20
10.3065
 11
18.8807
 21
10.641
  0
LINE
  8
0
 10
18.8807
 20
10.641
 11
18.6557
 21
11.0307
  0
LINE
  8
0
 10
18.6557
 20
11.0307
 11
18.5166
 21
11.4587
  0
LINE
  8
0
 10
18.5166
 20
11.4587
 11
18.4696
 21
11.9062
  0
ENDSEC
  0
SECTION
  2
OBJECTS
  0
DICTIONARY
  0
ENDSEC
  0
EOF
