  0
SECTION
  2
BLOCKS
  0
ENDSEC
  0
SECTION
  2
ENTITIES
  0
LINE
  8
0
 10
-26.7013
 20
8.04768
 11
-26.7012
 21
7.96948
  0
LINE
  8
0
 10
-26.7012
 20
7.96948
 11
-26.7009
 21
7.84731
  0
LINE
  8
0
 10
-26.7009
 20
7.84731
 11
-26.6851
 21
7.77058
  0
LINE
  8
0
 10
-26.6851
 20
7.77058
 11
-26.6603
 21
7.65064
  0
LINE
  8
0
 10
-26.6603
 20
7.65064
 11
-26.6297
 21
7.57878
  0
LINE
  8
0
 10
-26.6297
 20
7.57878
 11
-26.5817
 21
7.46637
  0
LINE
  8
0
 10
-26.5817
 20
7.46637
 11
-26.5372
 21
7.40212
  0
LINE
  8
0
 10
-26.5372
 20
7.40212
 11
-26.4675
 21
7.30148
  0
LINE
  8
0
 10
-26.4675
 20
7.30148
 11
-26.4113
 21
7.24737
  0
LINE
  8
0
 10
-26.4113
 20
7.24737
 11
-26.323
 21
7.16251
  0
LINE
  8
0
 10
-26.323
 20
7.16251
 11
-26.2571
 21
7.1208
  0
LINE
  8
0
 10
-26.2571
 20
7.1208
 11
-26.1536
 21
7.0553
  0
LINE
  8
0
 10
-26.1536
 20
7.0553
 11
-26.0802
 21
7.02742
  0
LINE
  8
0
 10
-26.0802
 20
7.02742
 11
-25.9648
 21
6.98355
  0
LINE
  8
0
 10
-25.9648
 20
6.98355
 11
-23.5497
 21
6.33643
  0
LINE
  8
0
 10
-23.5497
 20
6.33643
 11
-19.7725
 21
5.32433
  0
LINE
  8
0
 10
-19.7725
 20
5.32433
 11
-19.5382
 21
5.22836
  0
LINE
  8
0
 10
-19.5382
 20
5.22836
 11
-19.3355
 21
5.07663
  0
LINE
  8
0
 10
-19.3355
 20
5.07663
 11
-19.1774
 21
4.87885
  0
LINE
  8
0
 10
-19.1774
 20
4.87885
 11
-19.0741
 21
4.64771
  0
LINE
  8
0
 10
-19.0741
 20
4.64771
 11
-19.0321
 21
4.39802
  0
LINE
  8
0
 10
-19.0321
 20
4.39802
 11
-19.0542
 21
4.14579
  0
LINE
  8
0
 10
-19.0542
 20
4.14579
 11
-19.302
 21
2.77167
  0
LINE
  8
0
 10
-19.302
 20
2.77167
 11
-19.4509
 21
1.38333
  0
LINE
  8
0
 10
-19.4509
 20
1.38333
 11
-19.5
 21
-0.0120935
  0
LINE
  8
0
 10
-19.5
 20
-0.0120935
 11
-19.4491
 21
-1.40746
  0
LINE
  8
0
 10
-19.4491
 20
-1.40746
 11
-19.2986
 21
-2.79561
  0
LINE
  8
0
 10
-19.2986
 20
-2.79561
 11
-19.049
 21
-4.16943
  0
LINE
  8
0
 10
-19.049
 20
-4.16943
 11
-19.0267
 21
-4.42183
  0
LINE
  8
0
 10
-19.0267
 20
-4.42183
 11
-19.0684
 21
-4.67176
  0
LINE
  8
0
 10
-19.0684
 20
-4.67176
 11
-19.1717
 21
-4.90316
  0
LINE
  8
0
 10
-19.1717
 20
-4.90316
 11
-19.3298
 21
-5.10118
  0
LINE
  8
0
 10
-19.3298
 20
-5.10118
 11
-19.5326
 21
-5.2531
  0
LINE
  8
0
 10
-19.5326
 20
-5.2531
 11
-19.7671
 21
-5.34917
  0
LINE
  8
0
 10
-19.7671
 20
-5.34917
 11
-23.543
 21
-6.36093
  0
LINE
  8
0
 10
-23.543
 20
-6.36093
 11
-25.9573
 21
-7.00783
  0
LINE
  8
0
 10
-25.9573
 20
-7.00783
 11
-26.0724
 21
-7.0515
  0
LINE
  8
0
 10
-26.0724
 20
-7.0515
 11
-26.1456
 21
-7.07925
  0
LINE
  8
0
 10
-26.1456
 20
-7.07925
 11
-26.2491
 21
-7.14474
  0
LINE
  8
0
 10
-26.2491
 20
-7.14474
 11
-26.3151
 21
-7.18643
  0
LINE
  8
0
 10
-26.3151
 20
-7.18643
 11
-26.4035
 21
-7.27143
  0
LINE
  8
0
 10
-26.4035
 20
-7.27143
 11
-26.46
 21
-7.32563
  0
LINE
  8
0
 10
-26.46
 20
-7.32563
 11
-26.5044
 21
-7.38986
  0
LINE
  8
0
 10
-26.5044
 20
-7.38986
 11
-26.574
 21
-7.49049
  0
LINE
  8
0
 10
-26.574
 20
-7.49049
 11
-26.6048
 21
-7.56244
  0
LINE
  8
0
 10
-26.6048
 20
-7.56244
 11
-26.6528
 21
-7.67503
  0
LINE
  8
0
 10
-26.6528
 20
-7.67503
 11
-26.6686
 21
-7.75167
  0
LINE
  8
0
 10
-26.6686
 20
-7.75167
 11
-26.6934
 21
-7.87148
  0
LINE
  8
0
 10
-26.6934
 20
-7.87148
 11
-26.6935
 21
-7.94978
  0
LINE
  8
0
 10
-26.6935
 20
-7.94978
 11
-26.6937
 21
-8.07212
  0
LINE
  8
0
 10
-26.6937
 20
-8.07212
 11
-26.6781
 21
-8.14942
  0
LINE
  8
0
 10
-26.6781
 20
-8.14942
 11
-26.6537
 21
-8.27013
  0
LINE
  8
0
 10
-26.6537
 20
-8.27013
 11
-26.4422
 21
-8.8863
  0
LINE
  8
0
 10
-26.4422
 20
-8.8863
 11
-26.1124
 21
-9.84685
  0
LINE
  8
0
 10
-26.1124
 20
-9.84685
 11
-25.8644
 21
-10.4493
  0
LINE
  8
0
 10
-25.8644
 20
-10.4493
 11
-25.4778
 21
-11.3884
  0
LINE
  8
0
 10
-25.4778
 20
-11.3884
 11
-25.1943
 21
-11.975
  0
LINE
  8
0
 10
-25.1943
 20
-11.975
 11
-24.7524
 21
-12.8894
  0
LINE
  8
0
 10
-24.7524
 20
-12.8894
 11
-24.4344
 21
-13.4579
  0
LINE
  8
0
 10
-24.4344
 20
-13.4579
 11
-23.9386
 21
-14.3443
  0
LINE
  8
0
 10
-23.9386
 20
-14.3443
 11
-23.5872
 21
-14.8929
  0
LINE
  8
0
 10
-23.5872
 20
-14.8929
 11
-23.0394
 21
-15.7481
  0
LINE
  8
0
 10
-23.0394
 20
-15.7481
 11
-22.6559
 21
-16.2747
  0
LINE
  8
0
 10
-22.6559
 20
-16.2747
 11
-22.058
 21
-17.0956
  0
LINE
  8
0
 10
-22.058
 20
-17.0956
 11
-21.6437
 21
-17.5984
  0
LINE
  8
0
 10
-21.6437
 20
-17.5984
 11
-20.9979
 21
-18.3822
  0
LINE
  8
0
 10
-20.9979
 20
-18.3822
 11
-20.5543
 21
-18.8593
  0
LINE
  8
0
 10
-20.5543
 20
-18.8593
 11
-19.8628
 21
-19.6032
  0
LINE
  8
0
 10
-19.8628
 20
-19.6032
 11
-19.3916
 21
-20.053
  0
LINE
  8
0
 10
-19.3916
 20
-20.053
 11
-18.6569
 21
-20.7542
  0
LINE
  8
0
 10
-18.6569
 20
-20.7542
 11
-18.1596
 21
-21.175
  0
LINE
  8
0
 10
-18.1596
 20
-21.175
 11
-17.3844
 21
-21.8311
  0
LINE
  8
0
 10
-17.3844
 20
-21.8311
 11
-16.8629
 21
-22.2216
  0
LINE
  8
0
 10
-16.8629
 20
-22.2216
 11
-16.0499
 21
-22.8302
  0
LINE
  8
0
 10
-16.0499
 20
-22.8302
 11
-15.506
 21
-23.1888
  0
LINE
  8
0
 10
-15.506
 20
-23.1888
 11
-14.6581
 21
-23.7478
  0
LINE
  8
0
 10
-14.6581
 20
-23.7478
 11
-14.0937
 21
-24.0733
  0
LINE
  8
0
 10
-14.0937
 20
-24.0733
 11
-13.2139
 21
-24.5806
  0
LINE
  8
0
 10
-13.2139
 20
-24.5806
 11
-12.3054
 21
-25.0346
  0
LINE
  8
0
 10
-12.3054
 20
-25.0346
 11
-11.7227
 21
-25.3258
  0
LINE
  8
0
 10
-11.7227
 20
-25.3258
 11
-10.7887
 21
-25.7247
  0
LINE
  8
0
 10
-10.7887
 20
-25.7247
 11
-10.1896
 21
-25.9805
  0
LINE
  8
0
 10
-10.1896
 20
-25.9805
 11
-9.23345
 21
-26.323
  0
LINE
  8
0
 10
-9.23345
 20
-26.323
 11
-8.62013
 21
-26.5426
  0
LINE
  8
0
 10
-8.62013
 20
-26.5426
 11
-7.64526
 21
-26.8273
  0
LINE
  8
0
 10
-7.64526
 20
-26.8273
 11
-7.01991
 21
-27.0099
  0
LINE
  8
0
 10
-7.01991
 20
-27.0099
 11
-6.02978
 21
-27.2359
  0
LINE
  8
0
 10
-6.02978
 20
-27.2359
 11
-5.39465
 21
-27.3809
  0
LINE
  8
0
 10
-5.39465
 20
-27.3809
 11
-4.39279
 21
-27.5474
  0
LINE
  8
0
 10
-4.39279
 20
-27.5474
 11
-3.75014
 21
-27.6542
  0
LINE
  8
0
 10
-3.75014
 20
-27.6542
 11
-2.74012
 21
-27.7605
  0
LINE
  8
0
 10
-2.74012
 20
-27.7605
 11
-2.09224
 21
-27.8287
  0
LINE
  8
0
 10
-2.09224
 20
-27.8287
 11
-1.07768
 21
-27.8746
  0
LINE
  8
0
 10
-1.07768
 20
-27.8746
 11
-0.426878
 21
-27.904
  0
LINE
  8
0
 10
-0.426878
 20
-27.904
 11
0.588611
 21
-27.8892
  0
LINE
  8
0
 10
0.588611
 20
-27.8892
 11
1.24001
 21
-27.8797
  0
LINE
  8
0
 10
1.24001
 20
-27.8797
 11
2.2528
 21
-27.8043
  0
LINE
  8
0
 10
2.2528
 20
-27.8043
 11
2.90247
 21
-27.7559
  0
LINE
  8
0
 10
2.90247
 20
-27.7559
 11
3.90895
 21
-27.6202
  0
LINE
  8
0
 10
3.90895
 20
-27.6202
 11
4.55457
 21
-27.5331
  0
LINE
  8
0
 10
4.55457
 20
-27.5331
 11
5.55116
 21
-27.3375
  0
LINE
  8
0
 10
5.55116
 20
-27.3375
 11
6.19042
 21
-27.212
  0
LINE
  8
0
 10
6.19042
 20
-27.212
 11
6.30671
 21
-27.1729
  0
LINE
  8
0
 10
6.30671
 20
-27.1729
 11
6.38117
 21
-27.1479
  0
LINE
  8
0
 10
6.38117
 20
-27.1479
 11
6.44882
 21
-27.1086
  0
LINE
  8
0
 10
6.44882
 20
-27.1086
 11
6.55449
 21
-27.0473
  0
LINE
  8
0
 10
6.55449
 20
-27.0473
 11
6.61302
 21
-26.9952
  0
LINE
  8
0
 10
6.61302
 20
-26.9952
 11
6.70451
 21
-26.9138
  0
LINE
  8
0
 10
6.70451
 20
-26.9138
 11
6.75141
 21
-26.8513
  0
LINE
  8
0
 10
6.75141
 20
-26.8513
 11
6.82476
 21
-26.7536
  0
LINE
  8
0
 10
6.82476
 20
-26.7536
 11
6.85817
 21
-26.6829
  0
LINE
  8
0
 10
6.85817
 20
-26.6829
 11
6.9105
 21
-26.5723
  0
LINE
  8
0
 10
6.9105
 20
-26.5723
 11
6.92923
 21
-26.4965
  0
LINE
  8
0
 10
6.92923
 20
-26.4965
 11
6.95861
 21
-26.3777
  0
LINE
  8
0
 10
6.95861
 20
-26.3777
 11
6.96176
 21
-26.2997
  0
LINE
  8
0
 10
6.96176
 20
-26.2997
 11
6.96672
 21
-26.1773
  0
LINE
  8
0
 10
6.96672
 20
-26.1773
 11
6.95419
 21
-26.0998
  0
LINE
  8
0
 10
6.95419
 20
-26.0998
 11
6.93448
 21
-25.978
  0
LINE
  8
0
 10
6.93448
 20
-25.978
 11
6.28736
 21
-23.5629
  0
LINE
  8
0
 10
6.28736
 20
-23.5629
 11
5.27526
 21
-19.7857
  0
LINE
  8
0
 10
5.27526
 20
-19.7857
 11
5.24121
 21
-19.5348
  0
LINE
  8
0
 10
5.24121
 20
-19.5348
 11
5.27127
 21
-19.2834
  0
LINE
  8
0
 10
5.27127
 20
-19.2834
 11
5.36351
 21
-19.0476
  0
LINE
  8
0
 10
5.36351
 20
-19.0476
 11
5.51201
 21
-18.8425
  0
LINE
  8
0
 10
5.51201
 20
-18.8425
 11
5.70726
 21
-18.6813
  0
LINE
  8
0
 10
5.70726
 20
-18.6813
 11
5.93673
 21
-18.5743
  0
LINE
  8
0
 10
5.93673
 20
-18.5743
 11
7.25067
 21
-18.1019
  0
LINE
  8
0
 10
7.25067
 20
-18.1019
 11
8.52743
 21
-17.5366
  0
LINE
  8
0
 10
8.52743
 20
-17.5366
 11
9.76047
 21
-16.8814
  0
LINE
  8
0
 10
9.76047
 20
-16.8814
 11
10.9435
 21
-16.1397
  0
LINE
  8
0
 10
10.9435
 20
-16.1397
 11
12.0704
 21
-15.3152
  0
LINE
  8
0
 10
12.0704
 20
-15.3152
 11
13.1353
 21
-14.4122
  0
LINE
  8
0
 10
13.1353
 20
-14.4122
 11
13.3427
 21
-14.2667
  0
LINE
  8
0
 10
13.3427
 20
-14.2667
 11
13.5801
 21
-14.1779
  0
LINE
  8
0
 10
13.5801
 20
-14.1779
 11
13.8321
 21
-14.1516
  0
LINE
  8
0
 10
13.8321
 20
-14.1516
 11
14.0827
 21
-14.1895
  0
LINE
  8
0
 10
14.0827
 20
-14.1895
 11
14.3156
 21
-14.2892
  0
LINE
  8
0
 10
14.3156
 20
-14.2892
 11
14.5161
 21
-14.4442
  0
LINE
  8
0
 10
14.5161
 20
-14.4442
 11
19.0476
 21
-18.9758
  0
LINE
  8
0
 10
19.0476
 20
-18.9758
 11
19.143
 21
-19.0536
  0
LINE
  8
0
 10
19.143
 20
-19.0536
 11
19.2036
 21
-19.1031
  0
LINE
  8
0
 10
19.2036
 20
-19.1031
 11
19.3121
 21
-19.1601
  0
LINE
  8
0
 10
19.3121
 20
-19.1601
 11
19.3812
 21
-19.1963
  0
LINE
  8
0
 10
19.3812
 20
-19.1963
 11
19.499
 21
-19.2304
  0
LINE
  8
0
 10
19.499
 20
-19.2304
 11
19.5742
 21
-19.2522
  0
LINE
  8
0
 10
19.5742
 20
-19.2522
 11
19.652
 21
-19.2586
  0
LINE
  8
0
 10
19.652
 20
-19.2586
 11
19.774
 21
-19.2686
  0
LINE
  8
0
 10
19.774
 20
-19.2686
 11
19.8516
 21
-19.2592
  0
LINE
  8
0
 10
19.8516
 20
-19.2592
 11
19.9732
 21
-19.2445
  0
LINE
  8
0
 10
19.9732
 20
-19.2445
 11
20.0475
 21
-19.2199
  0
LINE
  8
0
 10
20.0475
 20
-19.2199
 11
20.1636
 21
-19.1814
  0
LINE
  8
0
 10
20.1636
 20
-19.1814
 11
20.2315
 21
-19.1424
  0
LINE
  8
0
 10
20.2315
 20
-19.1424
 11
20.3375
 21
-19.0814
  0
LINE
  8
0
 10
20.3375
 20
-19.0814
 11
20.3967
 21
-19.0292
  0
LINE
  8
0
 10
20.3967
 20
-19.0292
 11
20.489
 21
-18.9477
  0
LINE
  8
0
 10
20.489
 20
-18.9477
 11
20.9169
 21
-18.4565
  0
LINE
  8
0
 10
20.9169
 20
-18.4565
 11
21.5838
 21
-17.6905
  0
LINE
  8
0
 10
21.5838
 20
-17.6905
 11
21.9816
 21
-17.1746
  0
LINE
  8
0
 10
21.9816
 20
-17.1746
 11
22.6016
 21
-16.3702
  0
LINE
  8
0
 10
22.6016
 20
-16.3702
 11
22.9678
 21
-15.8315
  0
LINE
  8
0
 10
22.9678
 20
-15.8315
 11
23.5387
 21
-14.9915
  0
LINE
  8
0
 10
23.5387
 20
-14.9915
 11
23.8721
 21
-14.4318
  0
LINE
  8
0
 10
23.8721
 20
-14.4318
 11
24.3918
 21
-13.5593
  0
LINE
  8
0
 10
24.3918
 20
-13.5593
 11
24.6912
 21
-12.9807
  0
LINE
  8
0
 10
24.6912
 20
-12.9807
 11
25.1579
 21
-12.0787
  0
LINE
  8
0
 10
25.1579
 20
-12.0787
 11
25.4222
 21
-11.4832
  0
LINE
  8
0
 10
25.4222
 20
-11.4832
 11
25.8343
 21
-10.555
  0
LINE
  8
0
 10
25.8343
 20
-10.555
 11
26.0625
 21
-9.9448
  0
LINE
  8
0
 10
26.0625
 20
-9.9448
 11
26.4184
 21
-8.99359
  0
LINE
  8
0
 10
26.4184
 20
-8.99359
 11
26.6098
 21
-8.37089
  0
LINE
  8
0
 10
26.6098
 20
-8.37089
 11
26.9083
 21
-7.40013
  0
LINE
  8
0
 10
26.9083
 20
-7.40013
 11
27.0622
 21
-6.7671
  0
LINE
  8
0
 10
27.0622
 20
-6.7671
 11
27.3021
 21
-5.78026
  0
LINE
  8
0
 10
27.3021
 20
-5.78026
 11
27.4179
 21
-5.13917
  0
LINE
  8
0
 10
27.4179
 20
-5.13917
 11
27.5985
 21
-4.13976
  0
LINE
  8
0
 10
27.5985
 20
-4.13976
 11
27.6759
 21
-3.4929
  0
LINE
  8
0
 10
27.6759
 20
-3.4929
 11
27.7965
 21
-2.48449
  0
LINE
  8
0
 10
27.7965
 20
-2.48449
 11
27.8351
 21
-1.83417
  0
LINE
  8
0
 10
27.8351
 20
-1.83417
 11
27.8952
 21
-0.820355
  0
LINE
  8
0
 10
27.8952
 20
-0.820355
 11
27.8949
 21
-0.168889
  0
LINE
  8
0
 10
27.8949
 20
-0.168889
 11
27.8944
 21
0.846706
  0
LINE
  8
0
 10
27.8944
 20
0.846706
 11
27.8333
 21
1.86046
  0
LINE
  8
0
 10
27.8333
 20
1.86046
 11
27.7941
 21
2.51075
  0
LINE
  8
0
 10
27.7941
 20
2.51075
 11
27.6726
 21
3.51905
  0
LINE
  8
0
 10
27.6726
 20
3.51905
 11
27.5946
 21
4.16583
  0
LINE
  8
0
 10
27.5946
 20
4.16583
 11
27.4131
 21
5.16507
  0
LINE
  8
0
 10
27.4131
 20
5.16507
 11
27.2966
 21
5.80605
  0
LINE
  8
0
 10
27.2966
 20
5.80605
 11
27.0558
 21
6.79267
  0
LINE
  8
0
 10
27.0558
 20
6.79267
 11
26.9012
 21
7.42554
  0
LINE
  8
0
 10
26.9012
 20
7.42554
 11
26.6019
 21
8.39602
  0
LINE
  8
0
 10
26.6019
 20
8.39602
 11
26.4099
 21
9.01854
  0
LINE
  8
0
 10
26.4099
 20
9.01854
 11
26.0531
 21
9.96942
  0
LINE
  8
0
 10
26.0531
 20
9.96942
 11
25.8243
 21
10.5794
  0
LINE
  8
0
 10
25.8243
 20
10.5794
 11
25.4114
 21
11.5072
  0
LINE
  8
0
 10
25.4114
 20
11.5072
 11
25.1465
 21
12.1024
  0
LINE
  8
0
 10
25.1465
 20
12.1024
 11
24.679
 21
13.004
  0
LINE
  8
0
 10
24.679
 20
13.004
 11
24.379
 21
13.5823
  0
LINE
  8
0
 10
24.379
 20
13.5823
 11
23.8585
 21
14.4544
  0
LINE
  8
0
 10
23.8585
 20
14.4544
 11
23.5245
 21
15.0137
  0
LINE
  8
0
 10
23.5245
 20
15.0137
 11
22.9528
 21
15.8531
  0
LINE
  8
0
 10
22.9528
 20
15.8531
 11
22.5861
 21
16.3916
  0
LINE
  8
0
 10
22.5861
 20
16.3916
 11
21.9653
 21
17.1954
  0
LINE
  8
0
 10
21.9653
 20
17.1954
 11
21.5671
 21
17.7109
  0
LINE
  8
0
 10
21.5671
 20
17.7109
 11
20.8994
 21
18.4762
  0
LINE
  8
0
 10
20.8994
 20
18.4762
 11
20.4711
 21
18.9671
  0
LINE
  8
0
 10
20.4711
 20
18.9671
 11
20.3791
 21
19.0482
  0
LINE
  8
0
 10
20.3791
 20
19.0482
 11
20.3202
 21
19.1002
  0
LINE
  8
0
 10
20.3202
 20
19.1002
 11
20.2524
 21
19.1392
  0
LINE
  8
0
 10
20.2524
 20
19.1392
 11
20.1464
 21
19.2
  0
LINE
  8
0
 10
20.1464
 20
19.2
 11
20.0721
 21
19.2247
  0
LINE
  8
0
 10
20.0721
 20
19.2247
 11
19.9558
 21
19.2632
  0
LINE
  8
0
 10
19.9558
 20
19.2632
 11
19.8782
 21
19.2726
  0
LINE
  8
0
 10
19.8782
 20
19.2726
 11
19.7569
 21
19.2872
  0
LINE
  8
0
 10
19.7569
 20
19.2872
 11
19.679
 21
19.2808
  0
LINE
  8
0
 10
19.679
 20
19.2808
 11
19.557
 21
19.2708
  0
LINE
  8
0
 10
19.557
 20
19.2708
 11
19.482
 21
19.2492
  0
LINE
  8
0
 10
19.482
 20
19.2492
 11
19.3644
 21
19.2152
  0
LINE
  8
0
 10
19.3644
 20
19.2152
 11
19.2954
 21
19.1789
  0
LINE
  8
0
 10
19.2954
 20
19.1789
 11
19.1868
 21
19.122
  0
LINE
  8
0
 10
19.1868
 20
19.122
 11
19.126
 21
19.0724
  0
LINE
  8
0
 10
19.126
 20
19.0724
 11
19.0303
 21
18.9944
  0
LINE
  8
0
 10
19.0303
 20
18.9944
 11
14.4973
 21
14.4613
  0
LINE
  8
0
 10
14.4973
 20
14.4613
 11
14.297
 21
14.3064
  0
LINE
  8
0
 10
14.297
 20
14.3064
 11
14.0643
 21
14.2067
  0
LINE
  8
0
 10
14.0643
 20
14.2067
 11
13.8139
 21
14.1687
  0
LINE
  8
0
 10
13.8139
 20
14.1687
 11
13.5621
 21
14.1948
  0
LINE
  8
0
 10
13.5621
 20
14.1948
 11
13.3249
 21
14.2833
  0
LINE
  8
0
 10
13.3249
 20
14.2833
 11
13.1175
 21
14.4285
  0
LINE
  8
0
 10
13.1175
 20
14.4285
 11
12.0513
 21
15.3302
  0
LINE
  8
0
 10
12.0513
 20
15.3302
 11
10.9234
 21
16.1533
  0
LINE
  8
0
 10
10.9234
 20
16.1533
 11
9.73952
 21
16.8935
  0
LINE
  8
0
 10
9.73952
 20
16.8935
 11
8.50567
 21
17.5472
  0
LINE
  8
0
 10
8.50567
 20
17.5472
 11
7.22821
 21
18.1109
  0
LINE
  8
0
 10
7.22821
 20
18.1109
 11
5.91369
 21
18.5817
  0
LINE
  8
0
 10
5.91369
 20
18.5817
 11
5.68391
 21
18.6885
  0
LINE
  8
0
 10
5.68391
 20
18.6885
 11
5.48835
 21
18.8496
  0
LINE
  8
0
 10
5.48835
 20
18.8496
 11
5.33958
 21
19.0548
  0
LINE
  8
0
 10
5.33958
 20
19.0548
 11
5.24715
 21
19.2907
  0
LINE
  8
0
 10
5.24715
 20
19.2907
 11
5.21699
 21
19.5423
  0
LINE
  8
0
 10
5.21699
 20
19.5423
 11
5.25103
 21
19.7934
  0
LINE
  8
0
 10
5.25103
 20
19.7934
 11
6.26279
 21
23.5693
  0
LINE
  8
0
 10
6.26279
 20
23.5693
 11
6.90969
 21
25.9836
  0
LINE
  8
0
 10
6.90969
 20
25.9836
 11
6.92944
 21
26.1051
  0
LINE
  8
0
 10
6.92944
 20
26.1051
 11
6.94199
 21
26.1824
  0
LINE
  8
0
 10
6.94199
 20
26.1824
 11
6.93705
 21
26.3048
  0
LINE
  8
0
 10
6.93705
 20
26.3048
 11
6.9339
 21
26.3827
  0
LINE
  8
0
 10
6.9339
 20
26.3827
 11
6.90453
 21
26.5019
  0
LINE
  8
0
 10
6.90453
 20
26.5019
 11
6.8858
 21
26.5778
  0
LINE
  8
0
 10
6.8858
 20
26.5778
 11
6.8524
 21
26.6484
  0
LINE
  8
0
 10
6.8524
 20
26.6484
 11
6.80007
 21
26.759
  0
LINE
  8
0
 10
6.80007
 20
26.759
 11
6.75311
 21
26.8216
  0
LINE
  8
0
 10
6.75311
 20
26.8216
 11
6.67963
 21
26.9195
  0
LINE
  8
0
 10
6.67963
 20
26.9195
 11
6.62117
 21
26.9715
  0
LINE
  8
0
 10
6.62117
 20
26.9715
 11
6.52979
 21
27.0529
  0
LINE
  8
0
 10
6.52979
 20
27.0529
 11
6.46204
 21
27.0922
  0
LINE
  8
0
 10
6.46204
 20
27.0922
 11
6.3562
 21
27.1535
  0
LINE
  8
0
 10
6.3562
 20
27.1535
 11
6.28145
 21
27.1786
  0
LINE
  8
0
 10
6.28145
 20
27.1786
 11
6.16471
 21
27.2179
  0
LINE
  8
0
 10
6.16471
 20
27.2179
 11
5.52533
 21
27.3428
  0
LINE
  8
0
 10
5.52533
 20
27.3428
 11
4.52856
 21
27.5374
  0
LINE
  8
0
 10
4.52856
 20
27.5374
 11
3.88286
 21
27.6239
  0
LINE
  8
0
 10
3.88286
 20
27.6239
 11
2.87625
 21
27.7587
  0
LINE
  8
0
 10
2.87625
 20
27.7587
 11
2.22653
 21
27.8064
  0
LINE
  8
0
 10
2.22653
 20
27.8064
 11
1.21367
 21
27.8809
  0
LINE
  8
0
 10
1.21367
 20
27.8809
 11
0.562265
 21
27.8898
  0
LINE
  8
0
 10
0.562265
 20
27.8898
 11
-0.453237
 21
27.9036
  0
LINE
  8
0
 10
-0.453237
 20
27.9036
 11
-1.10401
 21
27.8736
  0
LINE
  8
0
 10
-1.10401
 20
27.8736
 11
-2.11853
 21
27.8267
  0
LINE
  8
0
 10
-2.11853
 20
27.8267
 11
-2.76635
 21
27.7579
  0
LINE
  8
0
 10
-2.76635
 20
27.7579
 11
-3.77626
 21
27.6506
  0
LINE
  8
0
 10
-3.77626
 20
27.6506
 11
-4.41881
 21
27.5432
  0
LINE
  8
0
 10
-4.41881
 20
27.5432
 11
-5.42051
 21
27.3758
  0
LINE
  8
0
 10
-5.42051
 20
27.3758
 11
-6.05551
 21
27.2302
  0
LINE
  8
0
 10
-6.05551
 20
27.2302
 11
-7.04543
 21
27.0033
  0
LINE
  8
0
 10
-7.04543
 20
27.0033
 11
-7.6706
 21
26.8201
  0
LINE
  8
0
 10
-7.6706
 20
26.8201
 11
-8.6452
 21
26.5344
  0
LINE
  8
0
 10
-8.6452
 20
26.5344
 11
-9.25832
 21
26.3142
  0
LINE
  8
0
 10
-9.25832
 20
26.3142
 11
-10.2141
 21
25.9709
  0
LINE
  8
0
 10
-10.2141
 20
25.9709
 11
-10.813
 21
25.7145
  0
LINE
  8
0
 10
-10.813
 20
25.7145
 11
-11.7466
 21
25.3147
  0
LINE
  8
0
 10
-11.7466
 20
25.3147
 11
-12.3291
 21
25.0229
  0
LINE
  8
0
 10
-12.3291
 20
25.0229
 11
-13.2372
 21
24.5681
  0
LINE
  8
0
 10
-13.2372
 20
24.5681
 11
-13.8012
 21
24.2421
  0
LINE
  8
0
 10
-13.8012
 20
24.2421
 11
-14.6805
 21
23.7339
  0
LINE
  8
0
 10
-14.6805
 20
23.7339
 11
-15.5279
 21
23.1741
  0
LINE
  8
0
 10
-15.5279
 20
23.1741
 11
-16.0714
 21
22.815
  0
LINE
  8
0
 10
-16.0714
 20
22.815
 11
-16.8839
 21
22.2056
  0
LINE
  8
0
 10
-16.8839
 20
22.2056
 11
-17.405
 21
21.8147
  0
LINE
  8
0
 10
-17.405
 20
21.8147
 11
-18.1796
 21
21.1579
  0
LINE
  8
0
 10
-18.1796
 20
21.1579
 11
-18.6765
 21
20.7365
  0
LINE
  8
0
 10
-18.6765
 20
20.7365
 11
-19.4105
 21
20.0346
  0
LINE
  8
0
 10
-19.4105
 20
20.0346
 11
-19.8813
 21
19.5844
  0
LINE
  8
0
 10
-19.8813
 20
19.5844
 11
-20.5721
 21
18.8399
  0
LINE
  8
0
 10
-20.5721
 20
18.8399
 11
-21.0152
 21
18.3624
  0
LINE
  8
0
 10
-21.0152
 20
18.3624
 11
-21.6603
 21
17.578
  0
LINE
  8
0
 10
-21.6603
 20
17.578
 11
-22.0741
 21
17.0748
  0
LINE
  8
0
 10
-22.0741
 20
17.0748
 11
-22.6713
 21
16.2533
  0
LINE
  8
0
 10
-22.6713
 20
16.2533
 11
-23.0543
 21
15.7263
  0
LINE
  8
0
 10
-23.0543
 20
15.7263
 11
-23.6013
 21
14.8706
  0
LINE
  8
0
 10
-23.6013
 20
14.8706
 11
-23.9521
 21
14.3217
  0
LINE
  8
0
 10
-23.9521
 20
14.3217
 11
-24.4471
 21
13.4349
  0
LINE
  8
0
 10
-24.4471
 20
13.4349
 11
-24.7645
 21
12.866
  0
LINE
  8
0
 10
-24.7645
 20
12.866
 11
-25.2056
 21
11.9512
  0
LINE
  8
0
 10
-25.2056
 20
11.9512
 11
-25.4886
 21
11.3644
  0
LINE
  8
0
 10
-25.4886
 20
11.3644
 11
-25.8743
 21
10.4248
  0
LINE
  8
0
 10
-25.8743
 20
10.4248
 11
-26.1217
 21
9.82218
  0
LINE
  8
0
 10
-26.1217
 20
9.82218
 11
-26.4506
 21
8.86132
  0
LINE
  8
0
 10
-26.4506
 20
8.86132
 11
-26.6615
 21
8.24495
  0
LINE
  8
0
 10
-26.6615
 20
8.24495
 11
-26.6858
 21
8.12469
  0
LINE
  8
0
 10
-26.6858
 20
8.12469
 11
-26.7013
 21
8.04768
  0
LINE
  8
0
 10
-22.7749
 20
-11.9062
 11
-22.7278
 21
-11.4587
  0
LINE
  8
0
 10
-22.7278
 20
-11.4587
 11
-22.5888
 21
-11.0307
  0
LINE
  8
0
 10
-22.5888
 20
-11.0307
 11
-22.3638
 21
-10.641
  0
LINE
  8
0
 10
-22.3638
 20
-10.641
 11
-22.0626
 21
-10.3065
  0
LINE
  8
0
 10
-22.0626
 20
-10.3065
 11
-21.6986
 21
-10.042
  0
LINE
  8
0
 10
-21.6986
 20
-10.042
 11
-21.2874
 21
-9.85896
  0
LINE
  8
0
 10
-21.2874
 20
-9.85896
 11
-20.8472
 21
-9.76539
  0
LINE
  8
0
 10
-20.8472
 20
-9.76539
 11
-20.3972
 21
-9.76539
  0
LINE
  8
0
 10
-20.3972
 20
-9.76539
 11
-19.957
 21
-9.85896
  0
LINE
  8
0
 10
-19.957
 20
-9.85896
 11
-19.5459
 21
-10.042
  0
LINE
  8
0
 10
-19.5459
 20
-10.042
 11
-19.1818
 21
-10.3065
  0
LINE
  8
0
 10
-19.1818
 20
-10.3065
 11
-18.8807
 21
-10.641
  0
LINE
  8
0
 10
-18.8807
 20
-10.641
 11
-18.6557
 21
-11.0307
  0
LINE
  8
0
 10
-18.6557
 20
-11.0307
 11
-18.5166
 21
-11.4587
  0
LINE
  8
0
 10
-18.5166
 20
-11.4587
 11
-18.4696
 21
-11.9062
  0
LINE
  8
0
 10
-18.4696
 20
-11.9062
 11
-18.5166
 21
-12.3538
  0
LINE
  8
0
 10
-18.5166
 20
-12.3538
 11
-18.6557
 21
-12.7818
  0
LINE
  8
0
 10
-18.6557
 20
-12.7818
 11
-18.8807
 21
-13.1715
  0
LINE
  8
0
 10
-18.8807
 20
-13.1715
 11
-19.1818
 21
-13.506
  0
LINE
  8
0
 10
-19.1818
 20
-13.506
 11
-19.5459
 21
-13.7705
  0
LINE
  8
0
 10
-19.5459
 20
-13.7705
 11
-19.957
 21
-13.9535
  0
LINE
  8
0
 10
-19.957
 20
-13.9535
 11
-20.3972
 21
-14.0471
  0
LINE
  8
0
 10
-20.3972
 20
-14.0471
 11
-20.8472
 21
-14.0471
  0
LINE
  8
0
 10
-20.8472
 20
-14.0471
 11
-21.2874
 21
-13.9535
  0
LINE
  8
0
 10
-21.2874
 20
-13.9535
 11
-21.6986
 21
-13.7705
  0
LINE
  8
0
 10
-21.6986
 20
-13.7705
 11
-22.0626
 21
-13.506
  0
LINE
  8
0
 10
-22.0626
 20
-13.506
 11
-22.3638
 21
-13.1715
  0
LINE
  8
0
 10
-22.3638
 20
-13.1715
 11
-22.5888
 21
-12.7818
  0
LINE
  8
0
 10
-22.5888
 20
-12.7818
 11
-22.7278
 21
-12.3538
  0
LINE
  8
0
 10
-22.7278
 20
-12.3538
 11
-22.7749
 21
-11.9062
  0
LINE
  8
0
 10
-22.7749
 20
11.9062
 11
-22.7278
 21
12.3538
  0
LINE
  8
0
 10
-22.7278
 20
12.3538
 11
-22.5888
 21
12.7818
  0
LINE
  8
0
 10
-22.5888
 20
12.7818
 11
-22.3638
 21
13.1715
  0
LINE
  8
0
 10
-22.3638
 20
13.1715
 11
-22.0626
 21
13.506
  0
LINE
  8
0
 10
-22.0626
 20
13.506
 11
-21.6986
 21
13.7705
  0
LINE
  8
0
 10
-21.6986
 20
13.7705
 11
-21.2874
 21
13.9535
  0
LINE
  8
0
 10
-21.2874
 20
13.9535
 11
-20.8472
 21
14.0471
  0
LINE
  8
0
 10
-20.8472
 20
14.0471
 11
-20.3972
 21
14.0471
  0
LINE
  8
0
 10
-20.3972
 20
14.0471
 11
-19.957
 21
13.9535
  0
LINE
  8
0
 10
-19.957
 20
13.9535
 11
-19.5459
 21
13.7705
  0
LINE
  8
0
 10
-19.5459
 20
13.7705
 11
-19.1818
 21
13.506
  0
LINE
  8
0
 10
-19.1818
 20
13.506
 11
-18.8807
 21
13.1715
  0
LINE
  8
0
 10
-18.8807
 20
13.1715
 11
-18.6557
 21
12.7818
  0
LINE
  8
0
 10
-18.6557
 20
12.7818
 11
-18.5166
 21
12.3538
  0
LINE
  8
0
 10
-18.5166
 20
12.3538
 11
-18.4696
 21
11.9062
  0
LINE
  8
0
 10
-18.4696
 20
11.9062
 11
-18.5166
 21
11.4587
  0
LINE
  8
0
 10
-18.5166
 20
11.4587
 11
-18.6557
 21
11.0307
  0
LINE
  8
0
 10
-18.6557
 20
11.0307
 11
-18.8807
 21
10.641
  0
LINE
  8
0
 10
-18.8807
 20
10.641
 11
-19.1818
 21
10.3065
  0
LINE
  8
0
 10
-19.1818
 20
10.3065
 11
-19.5459
 21
10.042
  0
LINE
  8
0
 10
-19.5459
 20
10.042
 11
-19.957
 21
9.85896
  0
LINE
  8
0
 10
-19.957
 20
9.85896
 11
-20.3972
 21
9.76539
  0
LINE
  8
0
 10
-20.3972
 20
9.76539
 11
-20.8472
 21
9.76539
  0
LINE
  8
0
 10
-20.8472
 20
9.76539
 11
-21.2874
 21
9.85896
  0
LINE
  8
0
 10
-21.2874
 20
9.85896
 11
-21.6986
 21
10.042
  0
LINE
  8
0
 10
-21.6986
 20
10.042
 11
-22.0626
 21
10.3065
  0
LINE
  8
0
 10
-22.0626
 20
10.3065
 11
-22.3638
 21
10.641
  0
LINE
  8
0
 10
-22.3638
 20
10.641
 11
-22.5888
 21
11.0307
  0
LINE
  8
0
 10
-22.5888
 20
11.0307
 11
-22.7278
 21
11.4587
  0
LINE
  8
0
 10
-22.7278
 20
11.4587
 11
-22.7749
 21
11.9062
  0
LINE
  8
0
 10
-8.75
 20
0
 11
-8.70283
 21
0.403577
  0
LINE
  8
0
 10
-8.70283
 20
0.403577
 11
-8.56386
 21
0.785398
  0
LINE
  8
0
 10
-8.56386
 20
0.785398
 11
-8.34058
 21
1.12488
  0
LINE
  8
0
 10
-8.34058
 20
1.12488
 11
-8.04503
 21
1.40372
  0
LINE
  8
0
 10
-8.04503
 20
1.40372
 11
-7.69314
 21
1.60688
  0
LINE
  8
0
 10
-7.69314
 20
1.60688
 11
-7.30388
 21
1.72341
  0
LINE
  8
0
 10
-7.30388
 20
1.72341
 11
-6.89825
 21
1.74704
  0
LINE
  8
0
 10
-6.89825
 20
1.74704
 11
-6.49809
 21
1.67648
  0
LINE
  8
0
 10
-6.49809
 20
1.67648
 11
-6.125
 21
1.51554
  0
LINE
  8
0
 10
-6.125
 20
1.51554
 11
-5.79908
 21
1.2729
  0
LINE
  8
0
 10
-5.79908
 20
1.2729
 11
-5.5379
 21
0.96164
  0
LINE
  8
0
 10
-5.5379
 20
0.96164
 11
-5.35554
 21
0.598535
  0
LINE
  8
0
 10
-5.35554
 20
0.598535
 11
-5.26183
 21
0.203162
  0
LINE
  8
0
 10
-5.26183
 20
0.203162
 11
-5.26183
 21
-0.203162
  0
LINE
  8
0
 10
-5.26183
 20
-0.203162
 11
-5.35554
 21
-0.598535
  0
LINE
  8
0
 10
-5.35554
 20
-0.598535
 11
-5.5379
 21
-0.96164
  0
LINE
  8
0
 10
-5.5379
 20
-0.96164
 11
-5.79908
 21
-1.2729
  0
LINE
  8
0
 10
-5.79908
 20
-1.2729
 11
-6.125
 21
-1.51554
  0
LINE
  8
0
 10
-6.125
 20
-1.51554
 11
-6.49809
 21
-1.67648
  0
LINE
  8
0
 10
-6.49809
 20
-1.67648
 11
-6.89825
 21
-1.74704
  0
LINE
  8
0
 10
-6.89825
 20
-1.74704
 11
-7.30388
 21
-1.72341
  0
LINE
  8
0
 10
-7.30388
 20
-1.72341
 11
-7.69314
 21
-1.60688
  0
LINE
  8
0
 10
-7.69314
 20
-1.60688
 11
-8.04503
 21
-1.40372
  0
LINE
  8
0
 10
-8.04503
 20
-1.40372
 11
-8.34058
 21
-1.12488
  0
LINE
  8
0
 10
-8.34058
 20
-1.12488
 11
-8.56386
 21
-0.785398
  0
LINE
  8
0
 10
-8.56386
 20
-0.785398
 11
-8.70283
 21
-0.403577
  0
LINE
  8
0
 10
-8.70283
 20
-0.403577
 11
-8.75
 21
0
  0
LINE
  8
0
 10
-3.5
 20
0
 11
-3.45226
 21
0.57608
  0
LINE
  8
0
 10
-3.45226
 20
0.57608
 11
-3.31036
 21
1.13645
  0
LINE
  8
0
 10
-3.31036
 20
1.13645
 11
-3.07816
 21
1.66582
  0
LINE
  8
0
 10
-3.07816
 20
1.66582
 11
-2.76199
 21
2.14974
  0
LINE
  8
0
 10
-2.76199
 20
2.14974
 11
-2.37049
 21
2.57503
  0
LINE
  8
0
 10
-2.37049
 20
2.57503
 11
-1.91432
 21
2.93008
  0
LINE
  8
0
 10
-1.91432
 20
2.93008
 11
-1.40593
 21
3.20521
  0
LINE
  8
0
 10
-1.40593
 20
3.20521
 11
-0.859199
 21
3.3929
  0
LINE
  8
0
 10
-0.859199
 20
3.3929
 11
-0.289027
 21
3.48805
  0
LINE
  8
0
 10
-0.289027
 20
3.48805
 11
0.289027
 21
3.48805
  0
LINE
  8
0
 10
0.289027
 20
3.48805
 11
0.859199
 21
3.3929
  0
LINE
  8
0
 10
0.859199
 20
3.3929
 11
1.40593
 21
3.20521
  0
LINE
  8
0
 10
1.40593
 20
3.20521
 11
1.91432
 21
2.93008
  0
LINE
  8
0
 10
1.91432
 20
2.93008
 11
2.37049
 21
2.57503
  0
LINE
  8
0
 10
2.37049
 20
2.57503
 11
2.76199
 21
2.14974
  0
LINE
  8
0
 10
2.76199
 20
2.14974
 11
3.07816
 21
1.66582
  0
LINE
  8
0
 10
3.07816
 20
1.66582
 11
3.31036
 21
1.13645
  0
LINE
  8
0
 10
3.31036
 20
1.13645
 11
3.45226
 21
0.57608
  0
LINE
  8
0
 10
3.45226
 20
0.57608
 11
3.5
 21
0
  0
LINE
  8
0
 10
3.5
 20
0
 11
3.45226
 21
-0.57608
  0
LINE
  8
0
 10
3.45226
 20
-0.57608
 11
3.31036
 21
-1.13645
  0
LINE
  8
0
 10
3.31036
 20
-1.13645
 11
3.07816
 21
-1.66582
  0
LINE
  8
0
 10
3.07816
 20
-1.66582
 11
2.76199
 21
-2.14974
  0
LINE
  8
0
 10
2.76199
 20
-2.14974
 11
2.37049
 21
-2.57503
  0
LINE
  8
0
 10
2.37049
 20
-2.57503
 11
1.91432
 21
-2.93008
  0
LINE
  8
0
 10
1.91432
 20
-2.93008
 11
1.40593
 21
-3.20521
  0
LINE
  8
0
 10
1.40593
 20
-3.20521
 11
0.859199
 21
-3.3929
  0
LINE
  8
0
 10
0.859199
 20
-3.3929
 11
0.289027
 21
-3.48805
  0
LINE
  8
0
 10
0.289027
 20
-3.48805
 11
-0.289027
 21
-3.48805
  0
LINE
  8
0
 10
-0.289027
 20
-3.48805
 11
-0.859199
 21
-3.3929
  0
LINE
  8
0
 10
-0.859199
 20
-3.3929
 11
-1.40593
 21
-3.20521
  0
LINE
  8
0
 10
-1.40593
 20
-3.20521
 11
-1.91432
 21
-2.93008
  0
LINE
  8
0
 10
-1.91432
 20
-2.93008
 11
-2.37049
 21
-2.57503
  0
LINE
  8
0
 10
-2.37049
 20
-2.57503
 11
-2.76199
 21
-2.14974
  0
LINE
  8
0
 10
-2.76199
 20
-2.14974
 11
-3.07816
 21
-1.66582
  0
LINE
  8
0
 10
-3.07816
 20
-1.66582
 11
-3.31036
 21
-1.13645
  0
LINE
  8
0
 10
-3.31036
 20
-1.13645
 11
-3.45226
 21
-0.57608
  0
LINE
  8
0
 10
-3.45226
 20
-0.57608
 11
-3.5
 21
0
  0
LINE
  8
0
 10
-2.15265
 20
-23.8125
 11
-2.10561
 21
-23.3649
  0
LINE
  8
0
 10
-2.10561
 20
-23.3649
 11
-1.96654
 21
-22.9369
  0
LINE
  8
0
 10
-1.96654
 20
-22.9369
 11
-1.74153
 21
-22.5472
  0
LINE
  8
0
 10
-1.74153
 20
-22.5472
 11
-1.4404
 21
-22.2128
  0
LINE
  8
0
 10
-1.4404
 20
-22.2128
 11
-1.07632
 21
-21.9482
  0
LINE
  8
0
 10
-1.07632
 20
-21.9482
 11
-0.665205
 21
-21.7652
  0
LINE
  8
0
 10
-0.665205
 20
-21.7652
 11
-0.225013
 21
-21.6716
  0
LINE
  8
0
 10
-0.225013
 20
-21.6716
 11
0.225013
 21
-21.6716
  0
LINE
  8
0
 10
0.225013
 20
-21.6716
 11
0.665205
 21
-21.7652
  0
LINE
  8
0
 10
0.665205
 20
-21.7652
 11
1.07632
 21
-21.9482
  0
LINE
  8
0
 10
1.07632
 20
-21.9482
 11
1.4404
 21
-22.2128
  0
LINE
  8
0
 10
1.4404
 20
-22.2128
 11
1.74153
 21
-22.5472
  0
LINE
  8
0
 10
1.74153
 20
-22.5472
 11
1.96654
 21
-22.9369
  0
LINE
  8
0
 10
1.96654
 20
-22.9369
 11
2.10561
 21
-23.3649
  0
LINE
  8
0
 10
2.10561
 20
-23.3649
 11
2.15265
 21
-23.8125
  0
LINE
  8
0
 10
2.15265
 20
-23.8125
 11
2.10561
 21
-24.2601
  0
LINE
  8
0
 10
2.10561
 20
-24.2601
 11
1.96654
 21
-24.6881
  0
LINE
  8
0
 10
1.96654
 20
-24.6881
 11
1.74153
 21
-25.0778
  0
LINE
  8
0
 10
1.74153
 20
-25.0778
 11
1.4404
 21
-25.4122
  0
LINE
  8
0
 10
1.4404
 20
-25.4122
 11
1.07632
 21
-25.6768
  0
LINE
  8
0
 10
1.07632
 20
-25.6768
 11
0.665205
 21
-25.8598
  0
LINE
  8
0
 10
0.665205
 20
-25.8598
 11
0.225013
 21
-25.9534
  0
LINE
  8
0
 10
0.225013
 20
-25.9534
 11
-0.225013
 21
-25.9534
  0
LINE
  8
0
 10
-0.225013
 20
-25.9534
 11
-0.665205
 21
-25.8598
  0
LINE
  8
0
 10
-0.665205
 20
-25.8598
 11
-1.07632
 21
-25.6768
  0
LINE
  8
0
 10
-1.07632
 20
-25.6768
 11
-1.4404
 21
-25.4122
  0
LINE
  8
0
 10
-1.4404
 20
-25.4122
 11
-1.74153
 21
-25.0778
  0
LINE
  8
0
 10
-1.74153
 20
-25.0778
 11
-1.96654
 21
-24.6881
  0
LINE
  8
0
 10
-1.96654
 20
-24.6881
 11
-2.10561
 21
-24.2601
  0
LINE
  8
0
 10
-2.10561
 20
-24.2601
 11
-2.15265
 21
-23.8125
  0
LINE
  8
0
 10
-2.15265
 20
23.8125
 11
-2.10561
 21
24.2601
  0
LINE
  8
0
 10
-2.10561
 20
24.2601
 11
-1.96654
 21
24.6881
  0
LINE
  8
0
 10
-1.96654
 20
24.6881
 11
-1.74153
 21
25.0778
  0
LINE
  8
0
 10
-1.74153
 20
25.0778
 11
-1.4404
 21
25.4122
  0
LINE
  8
0
 10
-1.4404
 20
25.4122
 11
-1.07632
 21
25.6768
  0
LINE
  8
0
 10
-1.07632
 20
25.6768
 11
-0.665205
 21
25.8598
  0
LINE
  8
0
 10
-0.665205
 20
25.8598
 11
-0.225013
 21
25.9534
  0
LINE
  8
0
 10
-0.225013
 20
25.9534
 11
0.225013
 21
25.9534
  0
LINE
  8
0
 10
0.225013
 20
25.9534
 11
0.665205
 21
25.8598
  0
LINE
  8
0
 10
0.665205
 20
25.8598
 11
1.07632
 21
25.6768
  0
LINE
  8
0
 10
1.07632
 20
25.6768
 11
1.4404
 21
25.4122
  0
LINE
  8
0
 10
1.4404
 20
25.4122
 11
1.74153
 21
25.0778
  0
LINE
  8
0
 10
1.74153
 20
25.0778
 11
1.96654
 21
24.6881
  0
LINE
  8
0
 10
1.96654
 20
24.6881
 11
2.10561
 21
24.2601
  0
LINE
  8
0
 10
2.10561
 20
24.2601
 11
2.15265
 21
23.8125
  0
LINE
  8
0
 10
2.15265
 20
23.8125
 11
2.10561
 21
23.3649
  0
LINE
  8
0
 10
2.10561
 20
23.3649
 11
1.96654
 21
22.9369
  0
LINE
  8
0
 10
1.96654
 20
22.9369
 11
1.74153
 21
22.5472
  0
LINE
  8
0
 10
1.74153
 20
22.5472
 11
1.4404
 21
22.2128
  0
LINE
  8
0
 10
1.4404
 20
22.2128
 11
1.07632
 21
21.9482
  0
LINE
  8
0
 10
1.07632
 20
21.9482
 11
0.665205
 21
21.7652
  0
LINE
  8
0
 10
0.665205
 20
21.7652
 11
0.225013
 21
21.6716
  0
LINE
  8
0
 10
0.225013
 20
21.6716
 11
-0.225013
 21
21.6716
  0
LINE
  8
0
 10
-0.225013
 20
21.6716
 11
-0.665205
 21
21.7652
  0
LINE
  8
0
 10
-0.665205
 20
21.7652
 11
-1.07632
 21
21.9482
  0
LINE
  8
0
 10
-1.07632
 20
21.9482
 11
-1.4404
 21
22.2128
  0
LINE
  8
0
 10
-1.4404
 20
22.2128
 11
-1.74153
 21
22.5472
  0
LINE
  8
0
 10
-1.74153
 20
22.5472
 11
-1.96654
 21
22.9369
  0
LINE
  8
0
 10
-1.96654
 20
22.9369
 11
-2.10561
 21
23.3649
  0
LINE
  8
0
 10
-2.10561
 20
23.3649
 11
-2.15265
 21
23.8125
  0
LINE
  8
0
 10
-1.75
 20
-7
 11
-1.70283
 21
-6.59642
  0
LINE
  8
0
 10
-1.70283
 20
-6.59642
 11
-1.56386
 21
-6.2146
  0
LINE
  8
0
 10
-1.56386
 20
-6.2146
 11
-1.34058
 21
-5.87512
  0
LINE
  8
0
 10
-1.34058
 20
-5.87512
 11
-1.04503
 21
-5.59628
  0
LINE
  8
0
 10
-1.04503
 20
-5.59628
 11
-0.693139
 21
-5.39312
  0
LINE
  8
0
 10
-0.693139
 20
-5.39312
 11
-0.303884
 21
-5.27659
  0
LINE
  8
0
 10
-0.303884
 20
-5.27659
 11
0.101753
 21
-5.25296
  0
LINE
  8
0
 10
0.101753
 20
-5.25296
 11
0.501905
 21
-5.32352
  0
LINE
  8
0
 10
0.501905
 20
-5.32352
 11
0.875
 21
-5.48446
  0
LINE
  8
0
 10
0.875
 20
-5.48446
 11
1.20092
 21
-5.7271
  0
LINE
  8
0
 10
1.20092
 20
-5.7271
 11
1.4621
 21
-6.03836
  0
LINE
  8
0
 10
1.4621
 20
-6.03836
 11
1.64446
 21
-6.40146
  0
LINE
  8
0
 10
1.64446
 20
-6.40146
 11
1.73817
 21
-6.79684
  0
LINE
  8
0
 10
1.73817
 20
-6.79684
 11
1.73817
 21
-7.20316
  0
LINE
  8
0
 10
1.73817
 20
-7.20316
 11
1.64446
 21
-7.59853
  0
LINE
  8
0
 10
1.64446
 20
-7.59853
 11
1.4621
 21
-7.96164
  0
LINE
  8
0
 10
1.4621
 20
-7.96164
 11
1.20092
 21
-8.2729
  0
LINE
  8
0
 10
1.20092
 20
-8.2729
 11
0.875
 21
-8.51554
  0
LINE
  8
0
 10
0.875
 20
-8.51554
 11
0.501905
 21
-8.67648
  0
LINE
  8
0
 10
0.501905
 20
-8.67648
 11
0.101753
 21
-8.74704
  0
LINE
  8
0
 10
0.101753
 20
-8.74704
 11
-0.303884
 21
-8.72341
  0
LINE
  8
0
 10
-0.303884
 20
-8.72341
 11
-0.693139
 21
-8.60688
  0
LINE
  8
0
 10
-0.693139
 20
-8.60688
 11
-1.04503
 21
-8.40372
  0
LINE
  8
0
 10
-1.04503
 20
-8.40372
 11
-1.34058
 21
-8.12488
  0
LINE
  8
0
 10
-1.34058
 20
-8.12488
 11
-1.56386
 21
-7.7854
  0
LINE
  8
0
 10
-1.56386
 20
-7.7854
 11
-1.70283
 21
-7.40358
  0
LINE
  8
0
 10
-1.70283
 20
-7.40358
 11
-1.75
 21
-7
  0
LINE
  8
0
 10
-1.75
 20
7
 11
-1.70283
 21
7.40358
  0
LINE
  8
0
 10
-1.70283
 20
7.40358
 11
-1.56386
 21
7.7854
  0
LINE
  8
0
 10
-1.56386
 20
7.7854
 11
-1.34058
 21
8.12488
  0
LINE
  8
0
 10
-1.34058
 20
8.12488
 11
-1.04503
 21
8.40372
  0
LINE
  8
0
 10
-1.04503
 20
8.40372
 11
-0.693139
 21
8.60688
  0
LINE
  8
0
 10
-0.693139
 20
8.60688
 11
-0.303884
 21
8.72341
  0
LINE
  8
0
 10
-0.303884
 20
8.72341
 11
0.101753
 21
8.74704
  0
LINE
  8
0
 10
0.101753
 20
8.74704
 11
0.501905
 21
8.67648
  0
LINE
  8
0
 10
0.501905
 20
8.67648
 11
0.875
 21
8.51554
  0
LINE
  8
0
 10
0.875
 20
8.51554
 11
1.20092
 21
8.2729
  0
LINE
  8
0
 10
1.20092
 20
8.2729
 11
1.4621
 21
7.96164
  0
LINE
  8
0
 10
1.4621
 20
7.96164
 11
1.64446
 21
7.59853
  0
LINE
  8
0
 10
1.64446
 20
7.59853
 11
1.73817
 21
7.20316
  0
LINE
  8
0
 10
1.73817
 20
7.20316
 11
1.73817
 21
6.79684
  0
LINE
  8
0
 10
1.73817
 20
6.79684
 11
1.64446
 21
6.40146
  0
LINE
  8
0
 10
1.64446
 20
6.40146
 11
1.4621
 21
6.03836
  0
LINE
  8
0
 10
1.4621
 20
6.03836
 11
1.20092
 21
5.7271
  0
LINE
  8
0
 10
1.20092
 20
5.7271
 11
0.875
 21
5.48446
  0
LINE
  8
0
 10
0.875
 20
5.48446
 11
0.501905
 21
5.32352
  0
LINE
  8
0
 10
0.501905
 20
5.32352
 11
0.101753
 21
5.25296
  0
LINE
  8
0
 10
0.101753
 20
5.25296
 11
-0.303884
 21
5.27659
  0
LINE
  8
0
 10
-0.303884
 20
5.27659
 11
-0.693139
 21
5.39312
  0
LINE
  8
0
 10
-0.693139
 20
5.39312
 11
-1.04503
 21
5.59628
  0
LINE
  8
0
 10
-1.04503
 20
5.59628
 11
-1.34058
 21
5.87512
  0
LINE
  8
0
 10
-1.34058
 20
5.87512
 11
-1.56386
 21
6.2146
  0
LINE
  8
0
 10
-1.56386
 20
6.2146
 11
-1.70283
 21
6.59642
  0
LINE
  8
0
 10
-1.70283
 20
6.59642
 11
-1.75
 21
7
  0
LINE
  8
0
 10
5.25
 20
0
 11
5.29717
 21
0.403577
  0
LINE
  8
0
 10
5.29717
 20
0.403577
 11
5.43614
 21
0.785398
  0
LINE
  8
0
 10
5.43614
 20
0.785398
 11
5.65942
 21
1.12488
  0
LINE
  8
0
 10
5.65942
 20
1.12488
 11
5.95497
 21
1.40372
  0
LINE
  8
0
 10
5.95497
 20
1.40372
 11
6.30686
 21
1.60688
  0
LINE
  8
0
 10
6.30686
 20
1.60688
 11
6.69612
 21
1.72341
  0
LINE
  8
0
 10
6.69612
 20
1.72341
 11
7.10175
 21
1.74704
  0
LINE
  8
0
 10
7.10175
 20
1.74704
 11
7.50191
 21
1.67648
  0
LINE
  8
0
 10
7.50191
 20
1.67648
 11
7.875
 21
1.51554
  0
LINE
  8
0
 10
7.875
 20
1.51554
 11
8.20092
 21
1.2729
  0
LINE
  8
0
 10
8.20092
 20
1.2729
 11
8.4621
 21
0.96164
  0
LINE
  8
0
 10
8.4621
 20
0.96164
 11
8.64446
 21
0.598535
  0
LINE
  8
0
 10
8.64446
 20
0.598535
 11
8.73817
 21
0.203162
  0
LINE
  8
0
 10
8.73817
 20
0.203162
 11
8.73817
 21
-0.203162
  0
LINE
  8
0
 10
8.73817
 20
-0.203162
 11
8.64446
 21
-0.598535
  0
LINE
  8
0
 10
8.64446
 20
-0.598535
 11
8.4621
 21
-0.96164
  0
LINE
  8
0
 10
8.4621
 20
-0.96164
 11
8.20092
 21
-1.2729
  0
LINE
  8
0
 10
8.20092
 20
-1.2729
 11
7.875
 21
-1.51554
  0
LINE
  8
0
 10
7.875
 20
-1.51554
 11
7.50191
 21
-1.67648
  0
LINE
  8
0
 10
7.50191
 20
-1.67648
 11
7.10175
 21
-1.74704
  0
LINE
  8
0
 10
7.10175
 20
-1.74704
 11
6.69612
 21
-1.72341
  0
LINE
  8
0
 10
6.69612
 20
-1.72341
 11
6.30686
 21
-1.60688
  0
LINE
  8
0
 10
6.30686
 20
-1.60688
 11
5.95497
 21
-1.40372
  0
LINE
  8
0
 10
5.95497
 20
-1.40372
 11
5.65942
 21
-1.12488
  0
LINE
  8
0
 10
5.65942
 20
-1.12488
 11
5.43614
 21
-0.785398
  0
LINE
  8
0
 10
5.43614
 20
-0.785398
 11
5.29717
 21
-0.403577
  0
LINE
  8
0
 10
5.29717
 20
-0.403577
 11
5.25
 21
0
  0
LINE
  8
0
 10
18.4696
 20
-11.9062
 11
18.5166
 21
-11.4587
  0
LINE
  8
0
 10
18.5166
 20
-11.4587
 11
18.6557
 21
-11.0307
  0
LINE
  8
0
 10
18.6557
 20
-11.0307
 11
18.8807
 21
-10.641
  0
LINE
  8
0
 10
18.8807
 20
-10.641
 11
19.1818
 21
-10.3065
  0
LINE
  8
0
 10
19.1818
 20
-10.3065
 11
19.5459
 21
-10.042
  0
LINE
  8
0
 10
19.5459
 20
-10.042
 11
19.957
 21
-9.85896
  0
LINE
  8
0
 10
19.957
 20
-9.85896
 11
20.3972
 21
-9.76539
  0
LINE
  8
0
 10
20.3972
 20
-9.76539
 11
20.8472
 21
-9.76539
  0
LINE
  8
0
 10
20.8472
 20
-9.76539
 11
21.2874
 21
-9.85896
  0
LINE
  8
0
 10
21.2874
 20
-9.85896
 11
21.6986
 21
-10.042
  0
LINE
  8
0
 10
21.6986
 20
-10.042
 11
22.0626
 21
-10.3065
  0
LINE
  8
0
 10
22.0626
 20
-10.3065
 11
22.3638
 21
-10.641
  0
LINE
  8
0
 10
22.3638
 20
-10.641
 11
22.5888
 21
-11.0307
  0
LINE
  8
0
 10
22.5888
 20
-11.0307
 11
22.7278
 21
-11.4587
  0
LINE
  8
0
 10
22.7278
 20
-11.4587
 11
22.7749
 21
-11.9062
  0
LINE
  8
0
 10
22.7749
 20
-11.9062
 11
22.7278
 21
-12.3538
  0
LINE
  8
0
 10
22.7278
 20
-12.3538
 11
22.5888
 21
-12.7818
  0
LINE
  8
0
 10
22.5888
 20
-12.7818
 11
22.3638
 21
-13.1715
  0
LINE
  8
0
 10
22.3638
 20
-13.1715
 11
22.0626
 21
-13.506
  0
LINE
  8
0
 10
22.0626
 20
-13.506
 11
21.6986
 21
-13.7705
  0
LINE
  8
0
 10
21.6986
 20
-13.7705
 11
21.2874
 21
-13.9535
  0
LINE
  8
0
 10
21.2874
 20
-13.9535
 11
20.8472
 21
-14.0471
  0
LINE
  8
0
 10
20.8472
 20
-14.0471
 11
20.3972
 21
-14.0471
  0
LINE
  8
0
 10
20.3972
 20
-14.0471
 11
19.957
 21
-13.9535
  0
LINE
  8
0
 10
19.957
 20
-13.9535
 11
19.5459
 21
-13.7705
  0
LINE
  8
0
 10
19.5459
 20
-13.7705
 11
19.1818
 21
-13.506
  0
LINE
  8
0
 10
19.1818
 20
-13.506
 11
18.8807
 21
-13.1715
  0
LINE
  8
0
 10
18.8807
 20
-13.1715
 11
18.6557
 21
-12.7818
  0
LINE
  8
0
 10
18.6557
 20
-12.7818
 11
18.5166
 21
-12.3538
  0
LINE
  8
0
 10
18.5166
 20
-12.3538
 11
18.4696
 21
-11.9062
  0
LINE
  8
0
 10
18.4696
 20
11.9062
 11
18.5166
 21
12.3538
  0
LINE
  8
0
 10
18.5166
 20
12.3538
 11
18.6557
 21
12.7818
  0
LINE
  8
0
 10
18.6557
 20
12.7818
 11
18.8807
 21
13.1715
  0
LINE
  8
0
 10
18.8807
 20
13.1715
 11
19.1818
 21
13.506
  0
LINE
  8
0
 10
19.1818
 20
13.506
 11
19.5459
 21
13.7705
  0
LINE
  8
0
 10
19.5459
 20
13.7705
 11
19.957
 21
13.9535
  0
LINE
  8
0
 10
19.957
 20
13.9535
 11
20.3972
 21
14.0471
  0
LINE
  8
0
 10
20.3972
 20
14.0471
 11
20.8472
 21
14.0471
  0
LINE
  8
0
 10
20.8472
 20
14.0471
 11
21.2874
 21
13.9535
  0
LINE
  8
0
 10
21.2874
 20
13.9535
 11
21.6986
 21
13.7705
  0
LINE
  8
0
 10
21.6986
 20
13.7705
 11
22.0626
 21
13.506
  0
LINE
  8
0
 10
22.0626
 20
13.506
 11
22.3638
 21
13.1715
  0
LINE
  8
0
 10
22.3638
 20
13.1715
 11
22.5888
 21
12.7818
  0
LINE
  8
0
 10
22.5888
 20
12.7818
 11
22.7278
 21
12.3538
  0
LINE
  8
0
 10
22.7278
 20
12.3538
 11
22.7749
 21
11.9062
  0
LINE
  8
0
 10
22.7749
 20
11.9062
 11
22.7278
 21
11.4587
  0
LINE
  8
0
 10
22.7278
 20
11.4587
 11
22.5888
 21
11.0307
  0
LINE
  8
0
 10
22.5888
 20
11.0307
 11
22.3638
 21
10.641
  0
LINE
  8
0
 10
22.3638
 20
10.641
 11
22.0626
 21
10.3065
  0
LINE
  8
0
 10
22.0626
 20
10.3065
 11
21.6986
 21
10.042
  0
LINE
  8
0
 10
21.6986
 20
10.042
 11
21.2874
 21
9.85896
  0
LINE
  8
0
 10
21.2874
 20
9.85896
 11
20.8472
 21
9.76539
  0
LINE
  8
0
 10
20.8472
 20
9.76539
 11
20.3972
 21
9.76539
  0
LINE
  8
0
 10
20.3972
 20
9.76539
 11
19.957
 21
9.85896
  0
LINE
  8
0
 10
19.957
 20
9.85896
 11
19.5459
 21
10.042
  0
LINE
  8
0
 10
19.5459
 20
10.042
 11
19.1818
 21
10.3065
  0
LINE
  8
0
 10
19.1818
 20
10.3065
 11
18.8807
 21
10.641
  0
LINE
  8
0
 10
18.8807
 20
10.641
 11
18.6557
 21
11.0307
  0
LINE
  8
0
 10
18.6557
 20
11.0307
 11
18.5166
 21
11.4587
  0
LINE
  8
0
 10
18.5166
 20
11.4587
 11
18.4696
 21
11.9062
  0
ENDSEC
  0
SECTION
  2
OBJECTS
  0
DICTIONARY
  0
ENDSEC
  0
EOF
