  0
SECTION
  2
BLOCKS
  0
ENDSEC
  0
SECTION
  2
ENTITIES
  0
LINE
  8
0
 10
-26.6971
 20
8.04656
 11
-26.697
 21
7.9878
  0
LINE
  8
0
 10
-26.697
 20
7.9878
 11
-26.6967
 21
7.84618
  0
LINE
  8
0
 10
-26.6967
 20
7.84618
 11
-26.6848
 21
7.78854
  0
LINE
  8
0
 10
-26.6848
 20
7.78854
 11
-26.6561
 21
7.64951
  0
LINE
  8
0
 10
-26.6561
 20
7.64951
 11
-26.6331
 21
7.59554
  0
LINE
  8
0
 10
-26.6331
 20
7.59554
 11
-26.5774
 21
7.46524
  0
LINE
  8
0
 10
-26.5774
 20
7.46524
 11
-26.544
 21
7.41699
  0
LINE
  8
0
 10
-26.544
 20
7.41699
 11
-26.4633
 21
7.30035
  0
LINE
  8
0
 10
-26.4633
 20
7.30035
 11
-26.4211
 21
7.25973
  0
LINE
  8
0
 10
-26.4211
 20
7.25973
 11
-26.3188
 21
7.16138
  0
LINE
  8
0
 10
-26.3188
 20
7.16138
 11
-26.2693
 21
7.13008
  0
LINE
  8
0
 10
-26.2693
 20
7.13008
 11
-26.1493
 21
7.05417
  0
LINE
  8
0
 10
-26.1493
 20
7.05417
 11
-26.0943
 21
7.03325
  0
LINE
  8
0
 10
-26.0943
 20
7.03325
 11
-25.9606
 21
6.98242
  0
LINE
  8
0
 10
-25.9606
 20
6.98242
 11
-24.1493
 21
6.49708
  0
LINE
  8
0
 10
-24.1493
 20
6.49708
 11
-19.7725
 21
5.32433
  0
LINE
  8
0
 10
-19.7725
 20
5.32433
 11
-19.5382
 21
5.22836
  0
LINE
  8
0
 10
-19.5382
 20
5.22836
 11
-19.3355
 21
5.07663
  0
LINE
  8
0
 10
-19.3355
 20
5.07663
 11
-19.1774
 21
4.87885
  0
LINE
  8
0
 10
-19.1774
 20
4.87885
 11
-19.0741
 21
4.64771
  0
LINE
  8
0
 10
-19.0741
 20
4.64771
 11
-19.0321
 21
4.39802
  0
LINE
  8
0
 10
-19.0321
 20
4.39802
 11
-19.0542
 21
4.14579
  0
LINE
  8
0
 10
-19.0542
 20
4.14579
 11
-19.302
 21
2.77167
  0
LINE
  8
0
 10
-19.302
 20
2.77167
 11
-19.4509
 21
1.38333
  0
LINE
  8
0
 10
-19.4509
 20
1.38333
 11
-19.5
 21
-0.0120935
  0
LINE
  8
0
 10
-19.5
 20
-0.0120935
 11
-19.4491
 21
-1.40746
  0
LINE
  8
0
 10
-19.4491
 20
-1.40746
 11
-19.2986
 21
-2.79561
  0
LINE
  8
0
 10
-19.2986
 20
-2.79561
 11
-19.049
 21
-4.16943
  0
LINE
  8
0
 10
-19.049
 20
-4.16943
 11
-19.0267
 21
-4.42183
  0
LINE
  8
0
 10
-19.0267
 20
-4.42183
 11
-19.0684
 21
-4.67176
  0
LINE
  8
0
 10
-19.0684
 20
-4.67176
 11
-19.1717
 21
-4.90316
  0
LINE
  8
0
 10
-19.1717
 20
-4.90316
 11
-19.3298
 21
-5.10118
  0
LINE
  8
0
 10
-19.3298
 20
-5.10118
 11
-19.5326
 21
-5.2531
  0
LINE
  8
0
 10
-19.5326
 20
-5.2531
 11
-19.7671
 21
-5.34917
  0
LINE
  8
0
 10
-19.7671
 20
-5.34917
 11
-24.1424
 21
-6.52152
  0
LINE
  8
0
 10
-24.1424
 20
-6.52152
 11
-25.9531
 21
-7.0067
  0
LINE
  8
0
 10
-25.9531
 20
-7.0067
 11
-26.0865
 21
-7.0573
  0
LINE
  8
0
 10
-26.0865
 20
-7.0573
 11
-26.1414
 21
-7.07812
  0
LINE
  8
0
 10
-26.1414
 20
-7.07812
 11
-26.2614
 21
-7.15401
  0
LINE
  8
0
 10
-26.2614
 20
-7.15401
 11
-26.3108
 21
-7.1853
  0
LINE
  8
0
 10
-26.3108
 20
-7.1853
 11
-26.4134
 21
-7.28381
  0
LINE
  8
0
 10
-26.4134
 20
-7.28381
 11
-26.4557
 21
-7.3245
  0
LINE
  8
0
 10
-26.4557
 20
-7.3245
 11
-26.4891
 21
-7.37272
  0
LINE
  8
0
 10
-26.4891
 20
-7.37272
 11
-26.5698
 21
-7.48936
  0
LINE
  8
0
 10
-26.5698
 20
-7.48936
 11
-26.5929
 21
-7.54339
  0
LINE
  8
0
 10
-26.5929
 20
-7.54339
 11
-26.6486
 21
-7.6739
  0
LINE
  8
0
 10
-26.6486
 20
-7.6739
 11
-26.6605
 21
-7.73147
  0
LINE
  8
0
 10
-26.6605
 20
-7.73147
 11
-26.6892
 21
-7.87035
  0
LINE
  8
0
 10
-26.6892
 20
-7.87035
 11
-26.6893
 21
-7.92918
  0
LINE
  8
0
 10
-26.6893
 20
-7.92918
 11
-26.6895
 21
-8.07099
  0
LINE
  8
0
 10
-26.6895
 20
-8.07099
 11
-26.6778
 21
-8.12907
  0
LINE
  8
0
 10
-26.6778
 20
-8.12907
 11
-26.6495
 21
-8.26901
  0
LINE
  8
0
 10
-26.6495
 20
-8.26901
 11
-26.4906
 21
-8.73194
  0
LINE
  8
0
 10
-26.4906
 20
-8.73194
 11
-26.1082
 21
-9.84546
  0
LINE
  8
0
 10
-26.1082
 20
-9.84546
 11
-25.9219
 21
-10.2981
  0
LINE
  8
0
 10
-25.9219
 20
-10.2981
 11
-25.4738
 21
-11.3868
  0
LINE
  8
0
 10
-25.4738
 20
-11.3868
 11
-25.2608
 21
-11.8275
  0
LINE
  8
0
 10
-25.2608
 20
-11.8275
 11
-24.7484
 21
-12.8875
  0
LINE
  8
0
 10
-24.7484
 20
-12.8875
 11
-24.5095
 21
-13.3146
  0
LINE
  8
0
 10
-24.5095
 20
-13.3146
 11
-23.9348
 21
-14.3422
  0
LINE
  8
0
 10
-23.9348
 20
-14.3422
 11
-23.6708
 21
-14.7543
  0
LINE
  8
0
 10
-23.6708
 20
-14.7543
 11
-23.0357
 21
-15.7457
  0
LINE
  8
0
 10
-23.0357
 20
-15.7457
 11
-22.7476
 21
-16.1413
  0
LINE
  8
0
 10
-22.7476
 20
-16.1413
 11
-22.0545
 21
-17.093
  0
LINE
  8
0
 10
-22.0545
 20
-17.093
 11
-21.7432
 21
-17.4708
  0
LINE
  8
0
 10
-21.7432
 20
-17.4708
 11
-20.9945
 21
-18.3794
  0
LINE
  8
0
 10
-20.9945
 20
-18.3794
 11
-20.6613
 21
-18.7379
  0
LINE
  8
0
 10
-20.6613
 20
-18.7379
 11
-19.8597
 21
-19.6001
  0
LINE
  8
0
 10
-19.8597
 20
-19.6001
 11
-19.5056
 21
-19.9381
  0
LINE
  8
0
 10
-19.5056
 20
-19.9381
 11
-18.6539
 21
-20.751
  0
LINE
  8
0
 10
-18.6539
 20
-20.751
 11
-18.2803
 21
-21.0672
  0
LINE
  8
0
 10
-18.2803
 20
-21.0672
 11
-17.3816
 21
-21.8277
  0
LINE
  8
0
 10
-17.3816
 20
-21.8277
 11
-16.9898
 21
-22.1211
  0
LINE
  8
0
 10
-16.9898
 20
-22.1211
 11
-16.0473
 21
-22.8266
  0
LINE
  8
0
 10
-16.0473
 20
-22.8266
 11
-15.6387
 21
-23.096
  0
LINE
  8
0
 10
-15.6387
 20
-23.096
 11
-14.6558
 21
-23.7441
  0
LINE
  8
0
 10
-14.6558
 20
-23.7441
 11
-14.2318
 21
-23.9886
  0
LINE
  8
0
 10
-14.2318
 20
-23.9886
 11
-13.2119
 21
-24.5768
  0
LINE
  8
0
 10
-13.2119
 20
-24.5768
 11
-12.1587
 21
-25.103
  0
LINE
  8
0
 10
-12.1587
 20
-25.103
 11
-11.7209
 21
-25.3218
  0
LINE
  8
0
 10
-11.7209
 20
-25.3218
 11
-10.6381
 21
-25.7842
  0
LINE
  8
0
 10
-10.6381
 20
-25.7842
 11
-10.188
 21
-25.9765
  0
LINE
  8
0
 10
-10.188
 20
-25.9765
 11
-9.07962
 21
-26.3734
  0
LINE
  8
0
 10
-9.07962
 20
-26.3734
 11
-8.61883
 21
-26.5384
  0
LINE
  8
0
 10
-8.61883
 20
-26.5384
 11
-7.4887
 21
-26.8685
  0
LINE
  8
0
 10
-7.4887
 20
-26.8685
 11
-7.01887
 21
-27.0057
  0
LINE
  8
0
 10
-7.01887
 20
-27.0057
 11
-5.87106
 21
-27.2677
  0
LINE
  8
0
 10
-5.87106
 20
-27.2677
 11
-5.39388
 21
-27.3766
  0
LINE
  8
0
 10
-5.39388
 20
-27.3766
 11
-4.23247
 21
-27.5696
  0
LINE
  8
0
 10
-4.23247
 20
-27.5696
 11
-3.74964
 21
-27.6498
  0
LINE
  8
0
 10
-3.74964
 20
-27.6498
 11
-2.57877
 21
-27.7731
  0
LINE
  8
0
 10
-2.57877
 20
-27.7731
 11
-2.09202
 21
-27.8244
  0
LINE
  8
0
 10
-2.09202
 20
-27.8244
 11
-0.915876
 21
-27.8776
  0
LINE
  8
0
 10
-0.915876
 20
-27.8776
 11
-0.426927
 21
-27.8996
  0
LINE
  8
0
 10
-0.426927
 20
-27.8996
 11
0.750288
 21
-27.8825
  0
LINE
  8
0
 10
0.750288
 20
-27.8825
 11
1.23968
 21
-27.8754
  0
LINE
  8
0
 10
1.23968
 20
-27.8754
 11
2.41377
 21
-27.788
  0
LINE
  8
0
 10
2.41377
 20
-27.788
 11
2.90187
 21
-27.7516
  0
LINE
  8
0
 10
2.90187
 20
-27.7516
 11
4.06865
 21
-27.5943
  0
LINE
  8
0
 10
4.06865
 20
-27.5943
 11
4.5537
 21
-27.5288
  0
LINE
  8
0
 10
4.5537
 20
-27.5288
 11
5.70901
 21
-27.3021
  0
LINE
  8
0
 10
5.70901
 20
-27.3021
 11
6.18929
 21
-27.2078
  0
LINE
  8
0
 10
6.18929
 20
-27.2078
 11
6.3241
 21
-27.1625
  0
LINE
  8
0
 10
6.3241
 20
-27.1625
 11
6.38004
 21
-27.1437
  0
LINE
  8
0
 10
6.38004
 20
-27.1437
 11
6.43086
 21
-27.1142
  0
LINE
  8
0
 10
6.43086
 20
-27.1142
 11
6.55335
 21
-27.0431
  0
LINE
  8
0
 10
6.55335
 20
-27.0431
 11
6.59732
 21
-27.004
  0
LINE
  8
0
 10
6.59732
 20
-27.004
 11
6.70338
 21
-26.9096
  0
LINE
  8
0
 10
6.70338
 20
-26.9096
 11
6.7386
 21
-26.8627
  0
LINE
  8
0
 10
6.7386
 20
-26.8627
 11
6.82363
 21
-26.7494
  0
LINE
  8
0
 10
6.82363
 20
-26.7494
 11
6.84872
 21
-26.6963
  0
LINE
  8
0
 10
6.84872
 20
-26.6963
 11
6.90937
 21
-26.5681
  0
LINE
  8
0
 10
6.90937
 20
-26.5681
 11
6.92343
 21
-26.5112
  0
LINE
  8
0
 10
6.92343
 20
-26.5112
 11
6.95748
 21
-26.3735
  0
LINE
  8
0
 10
6.95748
 20
-26.3735
 11
6.95984
 21
-26.315
  0
LINE
  8
0
 10
6.95984
 20
-26.315
 11
6.96559
 21
-26.1731
  0
LINE
  8
0
 10
6.96559
 20
-26.1731
 11
6.95619
 21
-26.115
  0
LINE
  8
0
 10
6.95619
 20
-26.115
 11
6.93335
 21
-25.9738
  0
LINE
  8
0
 10
6.93335
 20
-25.9738
 11
6.44801
 21
-24.1624
  0
LINE
  8
0
 10
6.44801
 20
-24.1624
 11
5.27526
 21
-19.7857
  0
LINE
  8
0
 10
5.27526
 20
-19.7857
 11
5.24121
 21
-19.5348
  0
LINE
  8
0
 10
5.24121
 20
-19.5348
 11
5.27127
 21
-19.2834
  0
LINE
  8
0
 10
5.27127
 20
-19.2834
 11
5.36351
 21
-19.0476
  0
LINE
  8
0
 10
5.36351
 20
-19.0476
 11
5.51201
 21
-18.8425
  0
LINE
  8
0
 10
5.51201
 20
-18.8425
 11
5.70726
 21
-18.6813
  0
LINE
  8
0
 10
5.70726
 20
-18.6813
 11
5.93673
 21
-18.5743
  0
LINE
  8
0
 10
5.93673
 20
-18.5743
 11
7.25067
 21
-18.1019
  0
LINE
  8
0
 10
7.25067
 20
-18.1019
 11
8.52743
 21
-17.5366
  0
LINE
  8
0
 10
8.52743
 20
-17.5366
 11
9.76047
 21
-16.8814
  0
LINE
  8
0
 10
9.76047
 20
-16.8814
 11
10.9435
 21
-16.1397
  0
LINE
  8
0
 10
10.9435
 20
-16.1397
 11
12.0704
 21
-15.3152
  0
LINE
  8
0
 10
12.0704
 20
-15.3152
 11
13.1353
 21
-14.4122
  0
LINE
  8
0
 10
13.1353
 20
-14.4122
 11
13.3427
 21
-14.2667
  0
LINE
  8
0
 10
13.3427
 20
-14.2667
 11
13.5801
 21
-14.1779
  0
LINE
  8
0
 10
13.5801
 20
-14.1779
 11
13.8321
 21
-14.1516
  0
LINE
  8
0
 10
13.8321
 20
-14.1516
 11
14.0827
 21
-14.1895
  0
LINE
  8
0
 10
14.0827
 20
-14.1895
 11
14.3156
 21
-14.2892
  0
LINE
  8
0
 10
14.3156
 20
-14.2892
 11
14.5161
 21
-14.4442
  0
LINE
  8
0
 10
14.5161
 20
-14.4442
 11
19.0445
 21
-18.9727
  0
LINE
  8
0
 10
19.0445
 20
-18.9727
 11
19.155
 21
-19.0629
  0
LINE
  8
0
 10
19.155
 20
-19.0629
 11
19.2005
 21
-19.1
  0
LINE
  8
0
 10
19.2005
 20
-19.1
 11
19.3262
 21
-19.166
  0
LINE
  8
0
 10
19.3262
 20
-19.166
 11
19.3781
 21
-19.1932
  0
LINE
  8
0
 10
19.3781
 20
-19.1932
 11
19.5147
 21
-19.2328
  0
LINE
  8
0
 10
19.5147
 20
-19.2328
 11
19.5711
 21
-19.2491
  0
LINE
  8
0
 10
19.5711
 20
-19.2491
 11
19.6295
 21
-19.2539
  0
LINE
  8
0
 10
19.6295
 20
-19.2539
 11
19.7709
 21
-19.2655
  0
LINE
  8
0
 10
19.7709
 20
-19.2655
 11
19.8292
 21
-19.2584
  0
LINE
  8
0
 10
19.8292
 20
-19.2584
 11
19.9701
 21
-19.2414
  0
LINE
  8
0
 10
19.9701
 20
-19.2414
 11
20.0259
 21
-19.2229
  0
LINE
  8
0
 10
20.0259
 20
-19.2229
 11
20.1605
 21
-19.1783
  0
LINE
  8
0
 10
20.1605
 20
-19.1783
 11
20.2115
 21
-19.149
  0
LINE
  8
0
 10
20.2115
 20
-19.149
 11
20.3344
 21
-19.0783
  0
LINE
  8
0
 10
20.3344
 20
-19.0783
 11
20.3789
 21
-19.0391
  0
LINE
  8
0
 10
20.3789
 20
-19.0391
 11
20.4859
 21
-18.9446
  0
LINE
  8
0
 10
20.4859
 20
-18.9446
 11
20.8074
 21
-18.5755
  0
LINE
  8
0
 10
20.8074
 20
-18.5755
 11
21.5805
 21
-17.6877
  0
LINE
  8
0
 10
21.5805
 20
-17.6877
 11
21.8794
 21
-17.3
  0
LINE
  8
0
 10
21.8794
 20
-17.3
 11
22.5981
 21
-16.3676
  0
LINE
  8
0
 10
22.5981
 20
-16.3676
 11
22.8733
 21
-15.9628
  0
LINE
  8
0
 10
22.8733
 20
-15.9628
 11
23.5351
 21
-14.989
  0
LINE
  8
0
 10
23.5351
 20
-14.989
 11
23.7856
 21
-14.5686
  0
LINE
  8
0
 10
23.7856
 20
-14.5686
 11
24.3881
 21
-13.5571
  0
LINE
  8
0
 10
24.3881
 20
-13.5571
 11
24.613
 21
-13.1224
  0
LINE
  8
0
 10
24.613
 20
-13.1224
 11
25.154
 21
-12.0767
  0
LINE
  8
0
 10
25.154
 20
-12.0767
 11
25.3526
 21
-11.6293
  0
LINE
  8
0
 10
25.3526
 20
-11.6293
 11
25.8302
 21
-10.5532
  0
LINE
  8
0
 10
25.8302
 20
-10.5532
 11
26.0018
 21
-10.0948
  0
LINE
  8
0
 10
26.0018
 20
-10.0948
 11
26.4143
 21
-8.99211
  0
LINE
  8
0
 10
26.4143
 20
-8.99211
 11
26.5581
 21
-8.52427
  0
LINE
  8
0
 10
26.5581
 20
-8.52427
 11
26.9041
 21
-7.39891
  0
LINE
  8
0
 10
26.9041
 20
-7.39891
 11
27.0197
 21
-6.92332
  0
LINE
  8
0
 10
27.0197
 20
-6.92332
 11
27.2978
 21
-5.7793
  0
LINE
  8
0
 10
27.2978
 20
-5.7793
 11
27.3849
 21
-5.29765
  0
LINE
  8
0
 10
27.3849
 20
-5.29765
 11
27.5942
 21
-4.13907
  0
LINE
  8
0
 10
27.5942
 20
-4.13907
 11
27.6523
 21
-3.65309
  0
LINE
  8
0
 10
27.6523
 20
-3.65309
 11
27.7921
 21
-2.48408
  0
LINE
  8
0
 10
27.7921
 20
-2.48408
 11
27.8211
 21
-1.99549
  0
LINE
  8
0
 10
27.8211
 20
-1.99549
 11
27.8909
 21
-0.820217
  0
LINE
  8
0
 10
27.8909
 20
-0.820217
 11
27.8906
 21
-0.33077
  0
LINE
  8
0
 10
27.8906
 20
-0.33077
 11
27.8901
 21
0.846569
  0
LINE
  8
0
 10
27.8901
 20
0.846569
 11
27.8192
 21
2.02178
  0
LINE
  8
0
 10
27.8192
 20
2.02178
 11
27.7898
 21
2.51034
  0
LINE
  8
0
 10
27.7898
 20
2.51034
 11
27.6489
 21
3.67922
  0
LINE
  8
0
 10
27.6489
 20
3.67922
 11
27.5903
 21
4.16515
  0
LINE
  8
0
 10
27.5903
 20
4.16515
 11
27.3799
 21
5.32353
  0
LINE
  8
0
 10
27.3799
 20
5.32353
 11
27.2924
 21
5.80509
  0
LINE
  8
0
 10
27.2924
 20
5.80509
 11
27.0131
 21
6.94884
  0
LINE
  8
0
 10
27.0131
 20
6.94884
 11
26.8971
 21
7.42432
  0
LINE
  8
0
 10
26.8971
 20
7.42432
 11
26.55
 21
8.54936
  0
LINE
  8
0
 10
26.55
 20
8.54936
 11
26.4058
 21
9.01706
  0
LINE
  8
0
 10
26.4058
 20
9.01706
 11
25.9922
 21
10.1194
  0
LINE
  8
0
 10
25.9922
 20
10.1194
 11
25.8203
 21
10.5776
  0
LINE
  8
0
 10
25.8203
 20
10.5776
 11
25.3416
 21
11.6533
  0
LINE
  8
0
 10
25.3416
 20
11.6533
 11
25.1426
 21
12.1004
  0
LINE
  8
0
 10
25.1426
 20
12.1004
 11
24.6006
 21
13.1456
  0
LINE
  8
0
 10
24.6006
 20
13.1456
 11
24.3753
 21
13.5801
  0
LINE
  8
0
 10
24.3753
 20
13.5801
 11
23.7718
 21
14.591
  0
LINE
  8
0
 10
23.7718
 20
14.591
 11
23.5209
 21
15.0113
  0
LINE
  8
0
 10
23.5209
 20
15.0113
 11
22.8582
 21
15.9844
  0
LINE
  8
0
 10
22.8582
 20
15.9844
 11
22.5827
 21
16.3889
  0
LINE
  8
0
 10
22.5827
 20
16.3889
 11
21.863
 21
17.3207
  0
LINE
  8
0
 10
21.863
 20
17.3207
 11
21.5638
 21
17.708
  0
LINE
  8
0
 10
21.5638
 20
17.708
 11
20.7898
 21
18.5952
  0
LINE
  8
0
 10
20.7898
 20
18.5952
 11
20.468
 21
18.964
  0
LINE
  8
0
 10
20.468
 20
18.964
 11
20.3613
 21
19.0581
  0
LINE
  8
0
 10
20.3613
 20
19.0581
 11
20.3171
 21
19.0971
  0
LINE
  8
0
 10
20.3171
 20
19.0971
 11
20.2661
 21
19.1264
  0
LINE
  8
0
 10
20.2661
 20
19.1264
 11
20.1433
 21
19.1969
  0
LINE
  8
0
 10
20.1433
 20
19.1969
 11
20.0875
 21
19.2154
  0
LINE
  8
0
 10
20.0875
 20
19.2154
 11
19.9527
 21
19.2601
  0
LINE
  8
0
 10
19.9527
 20
19.2601
 11
19.8945
 21
19.2671
  0
LINE
  8
0
 10
19.8945
 20
19.2671
 11
19.7538
 21
19.2841
  0
LINE
  8
0
 10
19.7538
 20
19.2841
 11
19.6953
 21
19.2793
  0
LINE
  8
0
 10
19.6953
 20
19.2793
 11
19.554
 21
19.2677
  0
LINE
  8
0
 10
19.554
 20
19.2677
 11
19.4977
 21
19.2515
  0
LINE
  8
0
 10
19.4977
 20
19.2515
 11
19.3613
 21
19.2121
  0
LINE
  8
0
 10
19.3613
 20
19.2121
 11
19.3095
 21
19.1849
  0
LINE
  8
0
 10
19.3095
 20
19.1849
 11
19.1838
 21
19.1189
  0
LINE
  8
0
 10
19.1838
 20
19.1189
 11
19.1381
 21
19.0817
  0
LINE
  8
0
 10
19.1381
 20
19.0817
 11
19.0273
 21
18.9913
  0
LINE
  8
0
 10
19.0273
 20
18.9913
 11
14.4973
 21
14.4613
  0
LINE
  8
0
 10
14.4973
 20
14.4613
 11
14.297
 21
14.3064
  0
LINE
  8
0
 10
14.297
 20
14.3064
 11
14.0643
 21
14.2067
  0
LINE
  8
0
 10
14.0643
 20
14.2067
 11
13.8139
 21
14.1687
  0
LINE
  8
0
 10
13.8139
 20
14.1687
 11
13.5621
 21
14.1948
  0
LINE
  8
0
 10
13.5621
 20
14.1948
 11
13.3249
 21
14.2833
  0
LINE
  8
0
 10
13.3249
 20
14.2833
 11
13.1175
 21
14.4285
  0
LINE
  8
0
 10
13.1175
 20
14.4285
 11
12.0513
 21
15.3302
  0
LINE
  8
0
 10
12.0513
 20
15.3302
 11
10.9234
 21
16.1533
  0
LINE
  8
0
 10
10.9234
 20
16.1533
 11
9.73952
 21
16.8935
  0
LINE
  8
0
 10
9.73952
 20
16.8935
 11
8.50567
 21
17.5472
  0
LINE
  8
0
 10
8.50567
 20
17.5472
 11
7.22821
 21
18.1109
  0
LINE
  8
0
 10
7.22821
 20
18.1109
 11
5.91369
 21
18.5817
  0
LINE
  8
0
 10
5.91369
 20
18.5817
 11
5.68391
 21
18.6885
  0
LINE
  8
0
 10
5.68391
 20
18.6885
 11
5.48835
 21
18.8496
  0
LINE
  8
0
 10
5.48835
 20
18.8496
 11
5.33958
 21
19.0548
  0
LINE
  8
0
 10
5.33958
 20
19.0548
 11
5.24715
 21
19.2907
  0
LINE
  8
0
 10
5.24715
 20
19.2907
 11
5.21699
 21
19.5423
  0
LINE
  8
0
 10
5.21699
 20
19.5423
 11
5.25103
 21
19.7934
  0
LINE
  8
0
 10
5.25103
 20
19.7934
 11
6.42338
 21
24.1687
  0
LINE
  8
0
 10
6.42338
 20
24.1687
 11
6.90856
 21
25.9794
  0
LINE
  8
0
 10
6.90856
 20
25.9794
 11
6.93144
 21
26.1202
  0
LINE
  8
0
 10
6.93144
 20
26.1202
 11
6.94086
 21
26.1782
  0
LINE
  8
0
 10
6.94086
 20
26.1782
 11
6.93513
 21
26.32
  0
LINE
  8
0
 10
6.93513
 20
26.32
 11
6.93277
 21
26.3785
  0
LINE
  8
0
 10
6.93277
 20
26.3785
 11
6.89873
 21
26.5166
  0
LINE
  8
0
 10
6.89873
 20
26.5166
 11
6.88467
 21
26.5736
  0
LINE
  8
0
 10
6.88467
 20
26.5736
 11
6.85959
 21
26.6266
  0
LINE
  8
0
 10
6.85959
 20
26.6266
 11
6.79894
 21
26.7548
  0
LINE
  8
0
 10
6.79894
 20
26.7548
 11
6.76368
 21
26.8018
  0
LINE
  8
0
 10
6.76368
 20
26.8018
 11
6.6785
 21
26.9153
  0
LINE
  8
0
 10
6.6785
 20
26.9153
 11
6.63459
 21
26.9544
  0
LINE
  8
0
 10
6.63459
 20
26.9544
 11
6.52866
 21
27.0487
  0
LINE
  8
0
 10
6.52866
 20
27.0487
 11
6.47776
 21
27.0782
  0
LINE
  8
0
 10
6.47776
 20
27.0782
 11
6.35506
 21
27.1493
  0
LINE
  8
0
 10
6.35506
 20
27.1493
 11
6.29891
 21
27.1682
  0
LINE
  8
0
 10
6.29891
 20
27.1682
 11
6.16358
 21
27.2136
  0
LINE
  8
0
 10
6.16358
 20
27.2136
 11
5.68321
 21
27.3075
  0
LINE
  8
0
 10
5.68321
 20
27.3075
 11
4.52769
 21
27.5331
  0
LINE
  8
0
 10
4.52769
 20
27.5331
 11
4.04258
 21
27.5981
  0
LINE
  8
0
 10
4.04258
 20
27.5981
 11
2.87565
 21
27.7543
  0
LINE
  8
0
 10
2.87565
 20
27.7543
 11
2.38752
 21
27.7902
  0
LINE
  8
0
 10
2.38752
 20
27.7902
 11
1.21334
 21
27.8765
  0
LINE
  8
0
 10
1.21334
 20
27.8765
 11
0.723943
 21
27.8832
  0
LINE
  8
0
 10
0.723943
 20
27.8832
 11
-0.453287
 21
27.8992
  0
LINE
  8
0
 10
-0.453287
 20
27.8992
 11
-0.942215
 21
27.8767
  0
LINE
  8
0
 10
-0.942215
 20
27.8767
 11
-2.1183
 21
27.8224
  0
LINE
  8
0
 10
-2.1183
 20
27.8224
 11
-2.60501
 21
27.7707
  0
LINE
  8
0
 10
-2.60501
 20
27.7707
 11
-3.77576
 21
27.6463
  0
LINE
  8
0
 10
-3.77576
 20
27.6463
 11
-4.25851
 21
27.5656
  0
LINE
  8
0
 10
-4.25851
 20
27.5656
 11
-5.41974
 21
27.3715
  0
LINE
  8
0
 10
-5.41974
 20
27.3715
 11
-5.89682
 21
27.2621
  0
LINE
  8
0
 10
-5.89682
 20
27.2621
 11
-7.04439
 21
26.9991
  0
LINE
  8
0
 10
-7.04439
 20
26.9991
 11
-7.51408
 21
26.8614
  0
LINE
  8
0
 10
-7.51408
 20
26.8614
 11
-8.6439
 21
26.5303
  0
LINE
  8
0
 10
-8.6439
 20
26.5303
 11
-9.10453
 21
26.3648
  0
LINE
  8
0
 10
-9.10453
 20
26.3648
 11
-10.2126
 21
25.9668
  0
LINE
  8
0
 10
-10.2126
 20
25.9668
 11
-10.6625
 21
25.7742
  0
LINE
  8
0
 10
-10.6625
 20
25.7742
 11
-11.7448
 21
25.3107
  0
LINE
  8
0
 10
-11.7448
 20
25.3107
 11
-12.1824
 21
25.0915
  0
LINE
  8
0
 10
-12.1824
 20
25.0915
 11
-13.2351
 21
24.5643
  0
LINE
  8
0
 10
-13.2351
 20
24.5643
 11
-13.6589
 21
24.3194
  0
LINE
  8
0
 10
-13.6589
 20
24.3194
 11
-14.6782
 21
23.7302
  0
LINE
  8
0
 10
-14.6782
 20
23.7302
 11
-15.6605
 21
23.0813
  0
LINE
  8
0
 10
-15.6605
 20
23.0813
 11
-16.0689
 21
22.8115
  0
LINE
  8
0
 10
-16.0689
 20
22.8115
 11
-17.0107
 21
22.105
  0
LINE
  8
0
 10
-17.0107
 20
22.105
 11
-17.4023
 21
21.8113
  0
LINE
  8
0
 10
-17.4023
 20
21.8113
 11
-18.3002
 21
21.0499
  0
LINE
  8
0
 10
-18.3002
 20
21.0499
 11
-18.6735
 21
20.7333
  0
LINE
  8
0
 10
-18.6735
 20
20.7333
 11
-19.5244
 21
19.9196
  0
LINE
  8
0
 10
-19.5244
 20
19.9196
 11
-19.8782
 21
19.5814
  0
LINE
  8
0
 10
-19.8782
 20
19.5814
 11
-20.679
 21
18.7183
  0
LINE
  8
0
 10
-20.679
 20
18.7183
 11
-21.0119
 21
18.3595
  0
LINE
  8
0
 10
-21.0119
 20
18.3595
 11
-21.7597
 21
17.4502
  0
LINE
  8
0
 10
-21.7597
 20
17.4502
 11
-22.0706
 21
17.0722
  0
LINE
  8
0
 10
-22.0706
 20
17.0722
 11
-22.7628
 21
16.1198
  0
LINE
  8
0
 10
-22.7628
 20
16.1198
 11
-23.0506
 21
15.7239
  0
LINE
  8
0
 10
-23.0506
 20
15.7239
 11
-23.6847
 21
14.7319
  0
LINE
  8
0
 10
-23.6847
 20
14.7319
 11
-23.9483
 21
14.3196
  0
LINE
  8
0
 10
-23.9483
 20
14.3196
 11
-24.5221
 21
13.2915
  0
LINE
  8
0
 10
-24.5221
 20
13.2915
 11
-24.7606
 21
12.8641
  0
LINE
  8
0
 10
-24.7606
 20
12.8641
 11
-25.272
 21
11.8036
  0
LINE
  8
0
 10
-25.272
 20
11.8036
 11
-25.4845
 21
11.3627
  0
LINE
  8
0
 10
-25.4845
 20
11.3627
 11
-25.9317
 21
10.2736
  0
LINE
  8
0
 10
-25.9317
 20
10.2736
 11
-26.1175
 21
9.82079
  0
LINE
  8
0
 10
-26.1175
 20
9.82079
 11
-26.4988
 21
8.7069
  0
LINE
  8
0
 10
-26.4988
 20
8.7069
 11
-26.6573
 21
8.24383
  0
LINE
  8
0
 10
-26.6573
 20
8.24383
 11
-26.6854
 21
8.10441
  0
LINE
  8
0
 10
-26.6854
 20
8.10441
 11
-26.6971
 21
8.04656
  0
LINE
  8
0
 10
-22.7749
 20
-11.9062
 11
-22.7278
 21
-11.4587
  0
LINE
  8
0
 10
-22.7278
 20
-11.4587
 11
-22.5888
 21
-11.0307
  0
LINE
  8
0
 10
-22.5888
 20
-11.0307
 11
-22.3638
 21
-10.641
  0
LINE
  8
0
 10
-22.3638
 20
-10.641
 11
-22.0626
 21
-10.3065
  0
LINE
  8
0
 10
-22.0626
 20
-10.3065
 11
-21.6986
 21
-10.042
  0
LINE
  8
0
 10
-21.6986
 20
-10.042
 11
-21.2874
 21
-9.85896
  0
LINE
  8
0
 10
-21.2874
 20
-9.85896
 11
-20.8472
 21
-9.76539
  0
LINE
  8
0
 10
-20.8472
 20
-9.76539
 11
-20.3972
 21
-9.76539
  0
LINE
  8
0
 10
-20.3972
 20
-9.76539
 11
-19.957
 21
-9.85896
  0
LINE
  8
0
 10
-19.957
 20
-9.85896
 11
-19.5459
 21
-10.042
  0
LINE
  8
0
 10
-19.5459
 20
-10.042
 11
-19.1818
 21
-10.3065
  0
LINE
  8
0
 10
-19.1818
 20
-10.3065
 11
-18.8807
 21
-10.641
  0
LINE
  8
0
 10
-18.8807
 20
-10.641
 11
-18.6557
 21
-11.0307
  0
LINE
  8
0
 10
-18.6557
 20
-11.0307
 11
-18.5166
 21
-11.4587
  0
LINE
  8
0
 10
-18.5166
 20
-11.4587
 11
-18.4696
 21
-11.9062
  0
LINE
  8
0
 10
-18.4696
 20
-11.9062
 11
-18.5166
 21
-12.3538
  0
LINE
  8
0
 10
-18.5166
 20
-12.3538
 11
-18.6557
 21
-12.7818
  0
LINE
  8
0
 10
-18.6557
 20
-12.7818
 11
-18.8807
 21
-13.1715
  0
LINE
  8
0
 10
-18.8807
 20
-13.1715
 11
-19.1818
 21
-13.506
  0
LINE
  8
0
 10
-19.1818
 20
-13.506
 11
-19.5459
 21
-13.7705
  0
LINE
  8
0
 10
-19.5459
 20
-13.7705
 11
-19.957
 21
-13.9535
  0
LINE
  8
0
 10
-19.957
 20
-13.9535
 11
-20.3972
 21
-14.0471
  0
LINE
  8
0
 10
-20.3972
 20
-14.0471
 11
-20.8472
 21
-14.0471
  0
LINE
  8
0
 10
-20.8472
 20
-14.0471
 11
-21.2874
 21
-13.9535
  0
LINE
  8
0
 10
-21.2874
 20
-13.9535
 11
-21.6986
 21
-13.7705
  0
LINE
  8
0
 10
-21.6986
 20
-13.7705
 11
-22.0626
 21
-13.506
  0
LINE
  8
0
 10
-22.0626
 20
-13.506
 11
-22.3638
 21
-13.1715
  0
LINE
  8
0
 10
-22.3638
 20
-13.1715
 11
-22.5888
 21
-12.7818
  0
LINE
  8
0
 10
-22.5888
 20
-12.7818
 11
-22.7278
 21
-12.3538
  0
LINE
  8
0
 10
-22.7278
 20
-12.3538
 11
-22.7749
 21
-11.9062
  0
LINE
  8
0
 10
-22.7749
 20
11.9062
 11
-22.7278
 21
12.3538
  0
LINE
  8
0
 10
-22.7278
 20
12.3538
 11
-22.5888
 21
12.7818
  0
LINE
  8
0
 10
-22.5888
 20
12.7818
 11
-22.3638
 21
13.1715
  0
LINE
  8
0
 10
-22.3638
 20
13.1715
 11
-22.0626
 21
13.506
  0
LINE
  8
0
 10
-22.0626
 20
13.506
 11
-21.6986
 21
13.7705
  0
LINE
  8
0
 10
-21.6986
 20
13.7705
 11
-21.2874
 21
13.9535
  0
LINE
  8
0
 10
-21.2874
 20
13.9535
 11
-20.8472
 21
14.0471
  0
LINE
  8
0
 10
-20.8472
 20
14.0471
 11
-20.3972
 21
14.0471
  0
LINE
  8
0
 10
-20.3972
 20
14.0471
 11
-19.957
 21
13.9535
  0
LINE
  8
0
 10
-19.957
 20
13.9535
 11
-19.5459
 21
13.7705
  0
LINE
  8
0
 10
-19.5459
 20
13.7705
 11
-19.1818
 21
13.506
  0
LINE
  8
0
 10
-19.1818
 20
13.506
 11
-18.8807
 21
13.1715
  0
LINE
  8
0
 10
-18.8807
 20
13.1715
 11
-18.6557
 21
12.7818
  0
LINE
  8
0
 10
-18.6557
 20
12.7818
 11
-18.5166
 21
12.3538
  0
LINE
  8
0
 10
-18.5166
 20
12.3538
 11
-18.4696
 21
11.9062
  0
LINE
  8
0
 10
-18.4696
 20
11.9062
 11
-18.5166
 21
11.4587
  0
LINE
  8
0
 10
-18.5166
 20
11.4587
 11
-18.6557
 21
11.0307
  0
LINE
  8
0
 10
-18.6557
 20
11.0307
 11
-18.8807
 21
10.641
  0
LINE
  8
0
 10
-18.8807
 20
10.641
 11
-19.1818
 21
10.3065
  0
LINE
  8
0
 10
-19.1818
 20
10.3065
 11
-19.5459
 21
10.042
  0
LINE
  8
0
 10
-19.5459
 20
10.042
 11
-19.957
 21
9.85896
  0
LINE
  8
0
 10
-19.957
 20
9.85896
 11
-20.3972
 21
9.76539
  0
LINE
  8
0
 10
-20.3972
 20
9.76539
 11
-20.8472
 21
9.76539
  0
LINE
  8
0
 10
-20.8472
 20
9.76539
 11
-21.2874
 21
9.85896
  0
LINE
  8
0
 10
-21.2874
 20
9.85896
 11
-21.6986
 21
10.042
  0
LINE
  8
0
 10
-21.6986
 20
10.042
 11
-22.0626
 21
10.3065
  0
LINE
  8
0
 10
-22.0626
 20
10.3065
 11
-22.3638
 21
10.641
  0
LINE
  8
0
 10
-22.3638
 20
10.641
 11
-22.5888
 21
11.0307
  0
LINE
  8
0
 10
-22.5888
 20
11.0307
 11
-22.7278
 21
11.4587
  0
LINE
  8
0
 10
-22.7278
 20
11.4587
 11
-22.7749
 21
11.9062
  0
LINE
  8
0
 10
-8.75
 20
0
 11
-8.70283
 21
0.403577
  0
LINE
  8
0
 10
-8.70283
 20
0.403577
 11
-8.56386
 21
0.785398
  0
LINE
  8
0
 10
-8.56386
 20
0.785398
 11
-8.34058
 21
1.12488
  0
LINE
  8
0
 10
-8.34058
 20
1.12488
 11
-8.04503
 21
1.40372
  0
LINE
  8
0
 10
-8.04503
 20
1.40372
 11
-7.69314
 21
1.60688
  0
LINE
  8
0
 10
-7.69314
 20
1.60688
 11
-7.30388
 21
1.72341
  0
LINE
  8
0
 10
-7.30388
 20
1.72341
 11
-6.89825
 21
1.74704
  0
LINE
  8
0
 10
-6.89825
 20
1.74704
 11
-6.49809
 21
1.67648
  0
LINE
  8
0
 10
-6.49809
 20
1.67648
 11
-6.125
 21
1.51554
  0
LINE
  8
0
 10
-6.125
 20
1.51554
 11
-5.79908
 21
1.2729
  0
LINE
  8
0
 10
-5.79908
 20
1.2729
 11
-5.5379
 21
0.96164
  0
LINE
  8
0
 10
-5.5379
 20
0.96164
 11
-5.35554
 21
0.598535
  0
LINE
  8
0
 10
-5.35554
 20
0.598535
 11
-5.26183
 21
0.203162
  0
LINE
  8
0
 10
-5.26183
 20
0.203162
 11
-5.26183
 21
-0.203162
  0
LINE
  8
0
 10
-5.26183
 20
-0.203162
 11
-5.35554
 21
-0.598535
  0
LINE
  8
0
 10
-5.35554
 20
-0.598535
 11
-5.5379
 21
-0.96164
  0
LINE
  8
0
 10
-5.5379
 20
-0.96164
 11
-5.79908
 21
-1.2729
  0
LINE
  8
0
 10
-5.79908
 20
-1.2729
 11
-6.125
 21
-1.51554
  0
LINE
  8
0
 10
-6.125
 20
-1.51554
 11
-6.49809
 21
-1.67648
  0
LINE
  8
0
 10
-6.49809
 20
-1.67648
 11
-6.89825
 21
-1.74704
  0
LINE
  8
0
 10
-6.89825
 20
-1.74704
 11
-7.30388
 21
-1.72341
  0
LINE
  8
0
 10
-7.30388
 20
-1.72341
 11
-7.69314
 21
-1.60688
  0
LINE
  8
0
 10
-7.69314
 20
-1.60688
 11
-8.04503
 21
-1.40372
  0
LINE
  8
0
 10
-8.04503
 20
-1.40372
 11
-8.34058
 21
-1.12488
  0
LINE
  8
0
 10
-8.34058
 20
-1.12488
 11
-8.56386
 21
-0.785398
  0
LINE
  8
0
 10
-8.56386
 20
-0.785398
 11
-8.70283
 21
-0.403577
  0
LINE
  8
0
 10
-8.70283
 20
-0.403577
 11
-8.75
 21
0
  0
LINE
  8
0
 10
-3.5
 20
0
 11
-3.45226
 21
0.57608
  0
LINE
  8
0
 10
-3.45226
 20
0.57608
 11
-3.31036
 21
1.13645
  0
LINE
  8
0
 10
-3.31036
 20
1.13645
 11
-3.07816
 21
1.66582
  0
LINE
  8
0
 10
-3.07816
 20
1.66582
 11
-2.76199
 21
2.14974
  0
LINE
  8
0
 10
-2.76199
 20
2.14974
 11
-2.37049
 21
2.57503
  0
LINE
  8
0
 10
-2.37049
 20
2.57503
 11
-1.91432
 21
2.93008
  0
LINE
  8
0
 10
-1.91432
 20
2.93008
 11
-1.40593
 21
3.20521
  0
LINE
  8
0
 10
-1.40593
 20
3.20521
 11
-0.859199
 21
3.3929
  0
LINE
  8
0
 10
-0.859199
 20
3.3929
 11
-0.289027
 21
3.48805
  0
LINE
  8
0
 10
-0.289027
 20
3.48805
 11
0.289027
 21
3.48805
  0
LINE
  8
0
 10
0.289027
 20
3.48805
 11
0.859199
 21
3.3929
  0
LINE
  8
0
 10
0.859199
 20
3.3929
 11
1.40593
 21
3.20521
  0
LINE
  8
0
 10
1.40593
 20
3.20521
 11
1.91432
 21
2.93008
  0
LINE
  8
0
 10
1.91432
 20
2.93008
 11
2.37049
 21
2.57503
  0
LINE
  8
0
 10
2.37049
 20
2.57503
 11
2.76199
 21
2.14974
  0
LINE
  8
0
 10
2.76199
 20
2.14974
 11
3.07816
 21
1.66582
  0
LINE
  8
0
 10
3.07816
 20
1.66582
 11
3.31036
 21
1.13645
  0
LINE
  8
0
 10
3.31036
 20
1.13645
 11
3.45226
 21
0.57608
  0
LINE
  8
0
 10
3.45226
 20
0.57608
 11
3.5
 21
0
  0
LINE
  8
0
 10
3.5
 20
0
 11
3.45226
 21
-0.57608
  0
LINE
  8
0
 10
3.45226
 20
-0.57608
 11
3.31036
 21
-1.13645
  0
LINE
  8
0
 10
3.31036
 20
-1.13645
 11
3.07816
 21
-1.66582
  0
LINE
  8
0
 10
3.07816
 20
-1.66582
 11
2.76199
 21
-2.14974
  0
LINE
  8
0
 10
2.76199
 20
-2.14974
 11
2.37049
 21
-2.57503
  0
LINE
  8
0
 10
2.37049
 20
-2.57503
 11
1.91432
 21
-2.93008
  0
LINE
  8
0
 10
1.91432
 20
-2.93008
 11
1.40593
 21
-3.20521
  0
LINE
  8
0
 10
1.40593
 20
-3.20521
 11
0.859199
 21
-3.3929
  0
LINE
  8
0
 10
0.859199
 20
-3.3929
 11
0.289027
 21
-3.48805
  0
LINE
  8
0
 10
0.289027
 20
-3.48805
 11
-0.289027
 21
-3.48805
  0
LINE
  8
0
 10
-0.289027
 20
-3.48805
 11
-0.859199
 21
-3.3929
  0
LINE
  8
0
 10
-0.859199
 20
-3.3929
 11
-1.40593
 21
-3.20521
  0
LINE
  8
0
 10
-1.40593
 20
-3.20521
 11
-1.91432
 21
-2.93008
  0
LINE
  8
0
 10
-1.91432
 20
-2.93008
 11
-2.37049
 21
-2.57503
  0
LINE
  8
0
 10
-2.37049
 20
-2.57503
 11
-2.76199
 21
-2.14974
  0
LINE
  8
0
 10
-2.76199
 20
-2.14974
 11
-3.07816
 21
-1.66582
  0
LINE
  8
0
 10
-3.07816
 20
-1.66582
 11
-3.31036
 21
-1.13645
  0
LINE
  8
0
 10
-3.31036
 20
-1.13645
 11
-3.45226
 21
-0.57608
  0
LINE
  8
0
 10
-3.45226
 20
-0.57608
 11
-3.5
 21
0
  0
LINE
  8
0
 10
-2.15265
 20
-23.8125
 11
-2.10561
 21
-23.3649
  0
LINE
  8
0
 10
-2.10561
 20
-23.3649
 11
-1.96654
 21
-22.9369
  0
LINE
  8
0
 10
-1.96654
 20
-22.9369
 11
-1.74153
 21
-22.5472
  0
LINE
  8
0
 10
-1.74153
 20
-22.5472
 11
-1.4404
 21
-22.2128
  0
LINE
  8
0
 10
-1.4404
 20
-22.2128
 11
-1.07632
 21
-21.9482
  0
LINE
  8
0
 10
-1.07632
 20
-21.9482
 11
-0.665205
 21
-21.7652
  0
LINE
  8
0
 10
-0.665205
 20
-21.7652
 11
-0.225013
 21
-21.6716
  0
LINE
  8
0
 10
-0.225013
 20
-21.6716
 11
0.225013
 21
-21.6716
  0
LINE
  8
0
 10
0.225013
 20
-21.6716
 11
0.665205
 21
-21.7652
  0
LINE
  8
0
 10
0.665205
 20
-21.7652
 11
1.07632
 21
-21.9482
  0
LINE
  8
0
 10
1.07632
 20
-21.9482
 11
1.4404
 21
-22.2128
  0
LINE
  8
0
 10
1.4404
 20
-22.2128
 11
1.74153
 21
-22.5472
  0
LINE
  8
0
 10
1.74153
 20
-22.5472
 11
1.96654
 21
-22.9369
  0
LINE
  8
0
 10
1.96654
 20
-22.9369
 11
2.10561
 21
-23.3649
  0
LINE
  8
0
 10
2.10561
 20
-23.3649
 11
2.15265
 21
-23.8125
  0
LINE
  8
0
 10
2.15265
 20
-23.8125
 11
2.10561
 21
-24.2601
  0
LINE
  8
0
 10
2.10561
 20
-24.2601
 11
1.96654
 21
-24.6881
  0
LINE
  8
0
 10
1.96654
 20
-24.6881
 11
1.74153
 21
-25.0778
  0
LINE
  8
0
 10
1.74153
 20
-25.0778
 11
1.4404
 21
-25.4122
  0
LINE
  8
0
 10
1.4404
 20
-25.4122
 11
1.07632
 21
-25.6768
  0
LINE
  8
0
 10
1.07632
 20
-25.6768
 11
0.665205
 21
-25.8598
  0
LINE
  8
0
 10
0.665205
 20
-25.8598
 11
0.225013
 21
-25.9534
  0
LINE
  8
0
 10
0.225013
 20
-25.9534
 11
-0.225013
 21
-25.9534
  0
LINE
  8
0
 10
-0.225013
 20
-25.9534
 11
-0.665205
 21
-25.8598
  0
LINE
  8
0
 10
-0.665205
 20
-25.8598
 11
-1.07632
 21
-25.6768
  0
LINE
  8
0
 10
-1.07632
 20
-25.6768
 11
-1.4404
 21
-25.4122
  0
LINE
  8
0
 10
-1.4404
 20
-25.4122
 11
-1.74153
 21
-25.0778
  0
LINE
  8
0
 10
-1.74153
 20
-25.0778
 11
-1.96654
 21
-24.6881
  0
LINE
  8
0
 10
-1.96654
 20
-24.6881
 11
-2.10561
 21
-24.2601
  0
LINE
  8
0
 10
-2.10561
 20
-24.2601
 11
-2.15265
 21
-23.8125
  0
LINE
  8
0
 10
-2.15265
 20
23.8125
 11
-2.10561
 21
24.2601
  0
LINE
  8
0
 10
-2.10561
 20
24.2601
 11
-1.96654
 21
24.6881
  0
LINE
  8
0
 10
-1.96654
 20
24.6881
 11
-1.74153
 21
25.0778
  0
LINE
  8
0
 10
-1.74153
 20
25.0778
 11
-1.4404
 21
25.4122
  0
LINE
  8
0
 10
-1.4404
 20
25.4122
 11
-1.07632
 21
25.6768
  0
LINE
  8
0
 10
-1.07632
 20
25.6768
 11
-0.665205
 21
25.8598
  0
LINE
  8
0
 10
-0.665205
 20
25.8598
 11
-0.225013
 21
25.9534
  0
LINE
  8
0
 10
-0.225013
 20
25.9534
 11
0.225013
 21
25.9534
  0
LINE
  8
0
 10
0.225013
 20
25.9534
 11
0.665205
 21
25.8598
  0
LINE
  8
0
 10
0.665205
 20
25.8598
 11
1.07632
 21
25.6768
  0
LINE
  8
0
 10
1.07632
 20
25.6768
 11
1.4404
 21
25.4122
  0
LINE
  8
0
 10
1.4404
 20
25.4122
 11
1.74153
 21
25.0778
  0
LINE
  8
0
 10
1.74153
 20
25.0778
 11
1.96654
 21
24.6881
  0
LINE
  8
0
 10
1.96654
 20
24.6881
 11
2.10561
 21
24.2601
  0
LINE
  8
0
 10
2.10561
 20
24.2601
 11
2.15265
 21
23.8125
  0
LINE
  8
0
 10
2.15265
 20
23.8125
 11
2.10561
 21
23.3649
  0
LINE
  8
0
 10
2.10561
 20
23.3649
 11
1.96654
 21
22.9369
  0
LINE
  8
0
 10
1.96654
 20
22.9369
 11
1.74153
 21
22.5472
  0
LINE
  8
0
 10
1.74153
 20
22.5472
 11
1.4404
 21
22.2128
  0
LINE
  8
0
 10
1.4404
 20
22.2128
 11
1.07632
 21
21.9482
  0
LINE
  8
0
 10
1.07632
 20
21.9482
 11
0.665205
 21
21.7652
  0
LINE
  8
0
 10
0.665205
 20
21.7652
 11
0.225013
 21
21.6716
  0
LINE
  8
0
 10
0.225013
 20
21.6716
 11
-0.225013
 21
21.6716
  0
LINE
  8
0
 10
-0.225013
 20
21.6716
 11
-0.665205
 21
21.7652
  0
LINE
  8
0
 10
-0.665205
 20
21.7652
 11
-1.07632
 21
21.9482
  0
LINE
  8
0
 10
-1.07632
 20
21.9482
 11
-1.4404
 21
22.2128
  0
LINE
  8
0
 10
-1.4404
 20
22.2128
 11
-1.74153
 21
22.5472
  0
LINE
  8
0
 10
-1.74153
 20
22.5472
 11
-1.96654
 21
22.9369
  0
LINE
  8
0
 10
-1.96654
 20
22.9369
 11
-2.10561
 21
23.3649
  0
LINE
  8
0
 10
-2.10561
 20
23.3649
 11
-2.15265
 21
23.8125
  0
LINE
  8
0
 10
-1.75
 20
-7
 11
-1.70283
 21
-6.59642
  0
LINE
  8
0
 10
-1.70283
 20
-6.59642
 11
-1.56386
 21
-6.2146
  0
LINE
  8
0
 10
-1.56386
 20
-6.2146
 11
-1.34058
 21
-5.87512
  0
LINE
  8
0
 10
-1.34058
 20
-5.87512
 11
-1.04503
 21
-5.59628
  0
LINE
  8
0
 10
-1.04503
 20
-5.59628
 11
-0.693139
 21
-5.39312
  0
LINE
  8
0
 10
-0.693139
 20
-5.39312
 11
-0.303884
 21
-5.27659
  0
LINE
  8
0
 10
-0.303884
 20
-5.27659
 11
0.101753
 21
-5.25296
  0
LINE
  8
0
 10
0.101753
 20
-5.25296
 11
0.501905
 21
-5.32352
  0
LINE
  8
0
 10
0.501905
 20
-5.32352
 11
0.875
 21
-5.48446
  0
LINE
  8
0
 10
0.875
 20
-5.48446
 11
1.20092
 21
-5.7271
  0
LINE
  8
0
 10
1.20092
 20
-5.7271
 11
1.4621
 21
-6.03836
  0
LINE
  8
0
 10
1.4621
 20
-6.03836
 11
1.64446
 21
-6.40146
  0
LINE
  8
0
 10
1.64446
 20
-6.40146
 11
1.73817
 21
-6.79684
  0
LINE
  8
0
 10
1.73817
 20
-6.79684
 11
1.73817
 21
-7.20316
  0
LINE
  8
0
 10
1.73817
 20
-7.20316
 11
1.64446
 21
-7.59853
  0
LINE
  8
0
 10
1.64446
 20
-7.59853
 11
1.4621
 21
-7.96164
  0
LINE
  8
0
 10
1.4621
 20
-7.96164
 11
1.20092
 21
-8.2729
  0
LINE
  8
0
 10
1.20092
 20
-8.2729
 11
0.875
 21
-8.51554
  0
LINE
  8
0
 10
0.875
 20
-8.51554
 11
0.501905
 21
-8.67648
  0
LINE
  8
0
 10
0.501905
 20
-8.67648
 11
0.101753
 21
-8.74704
  0
LINE
  8
0
 10
0.101753
 20
-8.74704
 11
-0.303884
 21
-8.72341
  0
LINE
  8
0
 10
-0.303884
 20
-8.72341
 11
-0.693139
 21
-8.60688
  0
LINE
  8
0
 10
-0.693139
 20
-8.60688
 11
-1.04503
 21
-8.40372
  0
LINE
  8
0
 10
-1.04503
 20
-8.40372
 11
-1.34058
 21
-8.12488
  0
LINE
  8
0
 10
-1.34058
 20
-8.12488
 11
-1.56386
 21
-7.7854
  0
LINE
  8
0
 10
-1.56386
 20
-7.7854
 11
-1.70283
 21
-7.40358
  0
LINE
  8
0
 10
-1.70283
 20
-7.40358
 11
-1.75
 21
-7
  0
LINE
  8
0
 10
-1.75
 20
7
 11
-1.70283
 21
7.40358
  0
LINE
  8
0
 10
-1.70283
 20
7.40358
 11
-1.56386
 21
7.7854
  0
LINE
  8
0
 10
-1.56386
 20
7.7854
 11
-1.34058
 21
8.12488
  0
LINE
  8
0
 10
-1.34058
 20
8.12488
 11
-1.04503
 21
8.40372
  0
LINE
  8
0
 10
-1.04503
 20
8.40372
 11
-0.693139
 21
8.60688
  0
LINE
  8
0
 10
-0.693139
 20
8.60688
 11
-0.303884
 21
8.72341
  0
LINE
  8
0
 10
-0.303884
 20
8.72341
 11
0.101753
 21
8.74704
  0
LINE
  8
0
 10
0.101753
 20
8.74704
 11
0.501905
 21
8.67648
  0
LINE
  8
0
 10
0.501905
 20
8.67648
 11
0.875
 21
8.51554
  0
LINE
  8
0
 10
0.875
 20
8.51554
 11
1.20092
 21
8.2729
  0
LINE
  8
0
 10
1.20092
 20
8.2729
 11
1.4621
 21
7.96164
  0
LINE
  8
0
 10
1.4621
 20
7.96164
 11
1.64446
 21
7.59853
  0
LINE
  8
0
 10
1.64446
 20
7.59853
 11
1.73817
 21
7.20316
  0
LINE
  8
0
 10
1.73817
 20
7.20316
 11
1.73817
 21
6.79684
  0
LINE
  8
0
 10
1.73817
 20
6.79684
 11
1.64446
 21
6.40146
  0
LINE
  8
0
 10
1.64446
 20
6.40146
 11
1.4621
 21
6.03836
  0
LINE
  8
0
 10
1.4621
 20
6.03836
 11
1.20092
 21
5.7271
  0
LINE
  8
0
 10
1.20092
 20
5.7271
 11
0.875
 21
5.48446
  0
LINE
  8
0
 10
0.875
 20
5.48446
 11
0.501905
 21
5.32352
  0
LINE
  8
0
 10
0.501905
 20
5.32352
 11
0.101753
 21
5.25296
  0
LINE
  8
0
 10
0.101753
 20
5.25296
 11
-0.303884
 21
5.27659
  0
LINE
  8
0
 10
-0.303884
 20
5.27659
 11
-0.693139
 21
5.39312
  0
LINE
  8
0
 10
-0.693139
 20
5.39312
 11
-1.04503
 21
5.59628
  0
LINE
  8
0
 10
-1.04503
 20
5.59628
 11
-1.34058
 21
5.87512
  0
LINE
  8
0
 10
-1.34058
 20
5.87512
 11
-1.56386
 21
6.2146
  0
LINE
  8
0
 10
-1.56386
 20
6.2146
 11
-1.70283
 21
6.59642
  0
LINE
  8
0
 10
-1.70283
 20
6.59642
 11
-1.75
 21
7
  0
LINE
  8
0
 10
5.25
 20
0
 11
5.29717
 21
0.403577
  0
LINE
  8
0
 10
5.29717
 20
0.403577
 11
5.43614
 21
0.785398
  0
LINE
  8
0
 10
5.43614
 20
0.785398
 11
5.65942
 21
1.12488
  0
LINE
  8
0
 10
5.65942
 20
1.12488
 11
5.95497
 21
1.40372
  0
LINE
  8
0
 10
5.95497
 20
1.40372
 11
6.30686
 21
1.60688
  0
LINE
  8
0
 10
6.30686
 20
1.60688
 11
6.69612
 21
1.72341
  0
LINE
  8
0
 10
6.69612
 20
1.72341
 11
7.10175
 21
1.74704
  0
LINE
  8
0
 10
7.10175
 20
1.74704
 11
7.50191
 21
1.67648
  0
LINE
  8
0
 10
7.50191
 20
1.67648
 11
7.875
 21
1.51554
  0
LINE
  8
0
 10
7.875
 20
1.51554
 11
8.20092
 21
1.2729
  0
LINE
  8
0
 10
8.20092
 20
1.2729
 11
8.4621
 21
0.96164
  0
LINE
  8
0
 10
8.4621
 20
0.96164
 11
8.64446
 21
0.598535
  0
LINE
  8
0
 10
8.64446
 20
0.598535
 11
8.73817
 21
0.203162
  0
LINE
  8
0
 10
8.73817
 20
0.203162
 11
8.73817
 21
-0.203162
  0
LINE
  8
0
 10
8.73817
 20
-0.203162
 11
8.64446
 21
-0.598535
  0
LINE
  8
0
 10
8.64446
 20
-0.598535
 11
8.4621
 21
-0.96164
  0
LINE
  8
0
 10
8.4621
 20
-0.96164
 11
8.20092
 21
-1.2729
  0
LINE
  8
0
 10
8.20092
 20
-1.2729
 11
7.875
 21
-1.51554
  0
LINE
  8
0
 10
7.875
 20
-1.51554
 11
7.50191
 21
-1.67648
  0
LINE
  8
0
 10
7.50191
 20
-1.67648
 11
7.10175
 21
-1.74704
  0
LINE
  8
0
 10
7.10175
 20
-1.74704
 11
6.69612
 21
-1.72341
  0
LINE
  8
0
 10
6.69612
 20
-1.72341
 11
6.30686
 21
-1.60688
  0
LINE
  8
0
 10
6.30686
 20
-1.60688
 11
5.95497
 21
-1.40372
  0
LINE
  8
0
 10
5.95497
 20
-1.40372
 11
5.65942
 21
-1.12488
  0
LINE
  8
0
 10
5.65942
 20
-1.12488
 11
5.43614
 21
-0.785398
  0
LINE
  8
0
 10
5.43614
 20
-0.785398
 11
5.29717
 21
-0.403577
  0
LINE
  8
0
 10
5.29717
 20
-0.403577
 11
5.25
 21
0
  0
LINE
  8
0
 10
18.4696
 20
-11.9062
 11
18.5166
 21
-11.4587
  0
LINE
  8
0
 10
18.5166
 20
-11.4587
 11
18.6557
 21
-11.0307
  0
LINE
  8
0
 10
18.6557
 20
-11.0307
 11
18.8807
 21
-10.641
  0
LINE
  8
0
 10
18.8807
 20
-10.641
 11
19.1818
 21
-10.3065
  0
LINE
  8
0
 10
19.1818
 20
-10.3065
 11
19.5459
 21
-10.042
  0
LINE
  8
0
 10
19.5459
 20
-10.042
 11
19.957
 21
-9.85896
  0
LINE
  8
0
 10
19.957
 20
-9.85896
 11
20.3972
 21
-9.76539
  0
LINE
  8
0
 10
20.3972
 20
-9.76539
 11
20.8472
 21
-9.76539
  0
LINE
  8
0
 10
20.8472
 20
-9.76539
 11
21.2874
 21
-9.85896
  0
LINE
  8
0
 10
21.2874
 20
-9.85896
 11
21.6986
 21
-10.042
  0
LINE
  8
0
 10
21.6986
 20
-10.042
 11
22.0626
 21
-10.3065
  0
LINE
  8
0
 10
22.0626
 20
-10.3065
 11
22.3638
 21
-10.641
  0
LINE
  8
0
 10
22.3638
 20
-10.641
 11
22.5888
 21
-11.0307
  0
LINE
  8
0
 10
22.5888
 20
-11.0307
 11
22.7278
 21
-11.4587
  0
LINE
  8
0
 10
22.7278
 20
-11.4587
 11
22.7749
 21
-11.9062
  0
LINE
  8
0
 10
22.7749
 20
-11.9062
 11
22.7278
 21
-12.3538
  0
LINE
  8
0
 10
22.7278
 20
-12.3538
 11
22.5888
 21
-12.7818
  0
LINE
  8
0
 10
22.5888
 20
-12.7818
 11
22.3638
 21
-13.1715
  0
LINE
  8
0
 10
22.3638
 20
-13.1715
 11
22.0626
 21
-13.506
  0
LINE
  8
0
 10
22.0626
 20
-13.506
 11
21.6986
 21
-13.7705
  0
LINE
  8
0
 10
21.6986
 20
-13.7705
 11
21.2874
 21
-13.9535
  0
LINE
  8
0
 10
21.2874
 20
-13.9535
 11
20.8472
 21
-14.0471
  0
LINE
  8
0
 10
20.8472
 20
-14.0471
 11
20.3972
 21
-14.0471
  0
LINE
  8
0
 10
20.3972
 20
-14.0471
 11
19.957
 21
-13.9535
  0
LINE
  8
0
 10
19.957
 20
-13.9535
 11
19.5459
 21
-13.7705
  0
LINE
  8
0
 10
19.5459
 20
-13.7705
 11
19.1818
 21
-13.506
  0
LINE
  8
0
 10
19.1818
 20
-13.506
 11
18.8807
 21
-13.1715
  0
LINE
  8
0
 10
18.8807
 20
-13.1715
 11
18.6557
 21
-12.7818
  0
LINE
  8
0
 10
18.6557
 20
-12.7818
 11
18.5166
 21
-12.3538
  0
LINE
  8
0
 10
18.5166
 20
-12.3538
 11
18.4696
 21
-11.9062
  0
LINE
  8
0
 10
18.4696
 20
11.9062
 11
18.5166
 21
12.3538
  0
LINE
  8
0
 10
18.5166
 20
12.3538
 11
18.6557
 21
12.7818
  0
LINE
  8
0
 10
18.6557
 20
12.7818
 11
18.8807
 21
13.1715
  0
LINE
  8
0
 10
18.8807
 20
13.1715
 11
19.1818
 21
13.506
  0
LINE
  8
0
 10
19.1818
 20
13.506
 11
19.5459
 21
13.7705
  0
LINE
  8
0
 10
19.5459
 20
13.7705
 11
19.957
 21
13.9535
  0
LINE
  8
0
 10
19.957
 20
13.9535
 11
20.3972
 21
14.0471
  0
LINE
  8
0
 10
20.3972
 20
14.0471
 11
20.8472
 21
14.0471
  0
LINE
  8
0
 10
20.8472
 20
14.0471
 11
21.2874
 21
13.9535
  0
LINE
  8
0
 10
21.2874
 20
13.9535
 11
21.6986
 21
13.7705
  0
LINE
  8
0
 10
21.6986
 20
13.7705
 11
22.0626
 21
13.506
  0
LINE
  8
0
 10
22.0626
 20
13.506
 11
22.3638
 21
13.1715
  0
LINE
  8
0
 10
22.3638
 20
13.1715
 11
22.5888
 21
12.7818
  0
LINE
  8
0
 10
22.5888
 20
12.7818
 11
22.7278
 21
12.3538
  0
LINE
  8
0
 10
22.7278
 20
12.3538
 11
22.7749
 21
11.9062
  0
LINE
  8
0
 10
22.7749
 20
11.9062
 11
22.7278
 21
11.4587
  0
LINE
  8
0
 10
22.7278
 20
11.4587
 11
22.5888
 21
11.0307
  0
LINE
  8
0
 10
22.5888
 20
11.0307
 11
22.3638
 21
10.641
  0
LINE
  8
0
 10
22.3638
 20
10.641
 11
22.0626
 21
10.3065
  0
LINE
  8
0
 10
22.0626
 20
10.3065
 11
21.6986
 21
10.042
  0
LINE
  8
0
 10
21.6986
 20
10.042
 11
21.2874
 21
9.85896
  0
LINE
  8
0
 10
21.2874
 20
9.85896
 11
20.8472
 21
9.76539
  0
LINE
  8
0
 10
20.8472
 20
9.76539
 11
20.3972
 21
9.76539
  0
LINE
  8
0
 10
20.3972
 20
9.76539
 11
19.957
 21
9.85896
  0
LINE
  8
0
 10
19.957
 20
9.85896
 11
19.5459
 21
10.042
  0
LINE
  8
0
 10
19.5459
 20
10.042
 11
19.1818
 21
10.3065
  0
LINE
  8
0
 10
19.1818
 20
10.3065
 11
18.8807
 21
10.641
  0
LINE
  8
0
 10
18.8807
 20
10.641
 11
18.6557
 21
11.0307
  0
LINE
  8
0
 10
18.6557
 20
11.0307
 11
18.5166
 21
11.4587
  0
LINE
  8
0
 10
18.5166
 20
11.4587
 11
18.4696
 21
11.9062
  0
ENDSEC
  0
SECTION
  2
OBJECTS
  0
DICTIONARY
  0
ENDSEC
  0
EOF
