  0
SECTION
  2
BLOCKS
  0
ENDSEC
  0
SECTION
  2
ENTITIES
  0
LINE
  8
0
 10
-26.6929
 20
8.04543
 11
-26.6928
 21
8.00613
  0
LINE
  8
0
 10
-26.6928
 20
8.00613
 11
-26.6925
 21
7.84506
  0
LINE
  8
0
 10
-26.6925
 20
7.84506
 11
-26.6845
 21
7.8065
  0
LINE
  8
0
 10
-26.6845
 20
7.8065
 11
-26.6519
 21
7.64839
  0
LINE
  8
0
 10
-26.6519
 20
7.64839
 11
-26.6365
 21
7.6123
  0
LINE
  8
0
 10
-26.6365
 20
7.6123
 11
-26.5732
 21
7.46411
  0
LINE
  8
0
 10
-26.5732
 20
7.46411
 11
-26.5509
 21
7.43187
  0
LINE
  8
0
 10
-26.5509
 20
7.43187
 11
-26.4591
 21
7.29923
  0
LINE
  8
0
 10
-26.4591
 20
7.29923
 11
-26.4309
 21
7.27209
  0
LINE
  8
0
 10
-26.4309
 20
7.27209
 11
-26.3146
 21
7.16025
  0
LINE
  8
0
 10
-26.3146
 20
7.16025
 11
-26.2816
 21
7.13935
  0
LINE
  8
0
 10
-26.2816
 20
7.13935
 11
-26.1451
 21
7.05304
  0
LINE
  8
0
 10
-26.1451
 20
7.05304
 11
-26.1084
 21
7.03908
  0
LINE
  8
0
 10
-26.1084
 20
7.03908
 11
-25.9564
 21
6.98129
  0
LINE
  8
0
 10
-25.9564
 20
6.98129
 11
-24.7488
 21
6.65773
  0
LINE
  8
0
 10
-24.7488
 20
6.65773
 11
-19.7725
 21
5.32433
  0
LINE
  8
0
 10
-19.7725
 20
5.32433
 11
-19.5382
 21
5.22836
  0
LINE
  8
0
 10
-19.5382
 20
5.22836
 11
-19.3355
 21
5.07663
  0
LINE
  8
0
 10
-19.3355
 20
5.07663
 11
-19.1774
 21
4.87885
  0
LINE
  8
0
 10
-19.1774
 20
4.87885
 11
-19.0741
 21
4.64771
  0
LINE
  8
0
 10
-19.0741
 20
4.64771
 11
-19.0321
 21
4.39802
  0
LINE
  8
0
 10
-19.0321
 20
4.39802
 11
-19.0542
 21
4.14579
  0
LINE
  8
0
 10
-19.0542
 20
4.14579
 11
-19.302
 21
2.77167
  0
LINE
  8
0
 10
-19.302
 20
2.77167
 11
-19.4509
 21
1.38333
  0
LINE
  8
0
 10
-19.4509
 20
1.38333
 11
-19.5
 21
-0.0120935
  0
LINE
  8
0
 10
-19.5
 20
-0.0120935
 11
-19.4491
 21
-1.40746
  0
LINE
  8
0
 10
-19.4491
 20
-1.40746
 11
-19.2986
 21
-2.79561
  0
LINE
  8
0
 10
-19.2986
 20
-2.79561
 11
-19.049
 21
-4.16943
  0
LINE
  8
0
 10
-19.049
 20
-4.16943
 11
-19.0267
 21
-4.42183
  0
LINE
  8
0
 10
-19.0267
 20
-4.42183
 11
-19.0684
 21
-4.67176
  0
LINE
  8
0
 10
-19.0684
 20
-4.67176
 11
-19.1717
 21
-4.90316
  0
LINE
  8
0
 10
-19.1717
 20
-4.90316
 11
-19.3298
 21
-5.10118
  0
LINE
  8
0
 10
-19.3298
 20
-5.10118
 11
-19.5326
 21
-5.2531
  0
LINE
  8
0
 10
-19.5326
 20
-5.2531
 11
-19.7671
 21
-5.34917
  0
LINE
  8
0
 10
-19.7671
 20
-5.34917
 11
-24.7417
 21
-6.68212
  0
LINE
  8
0
 10
-24.7417
 20
-6.68212
 11
-25.9489
 21
-7.00557
  0
LINE
  8
0
 10
-25.9489
 20
-7.00557
 11
-26.1005
 21
-7.0631
  0
LINE
  8
0
 10
-26.1005
 20
-7.0631
 11
-26.1372
 21
-7.07699
  0
LINE
  8
0
 10
-26.1372
 20
-7.07699
 11
-26.2736
 21
-7.16328
  0
LINE
  8
0
 10
-26.2736
 20
-7.16328
 11
-26.3066
 21
-7.18417
  0
LINE
  8
0
 10
-26.3066
 20
-7.18417
 11
-26.4232
 21
-7.29619
  0
LINE
  8
0
 10
-26.4232
 20
-7.29619
 11
-26.4515
 21
-7.32337
  0
LINE
  8
0
 10
-26.4515
 20
-7.32337
 11
-26.4738
 21
-7.35558
  0
LINE
  8
0
 10
-26.4738
 20
-7.35558
 11
-26.5656
 21
-7.48823
  0
LINE
  8
0
 10
-26.5656
 20
-7.48823
 11
-26.581
 21
-7.52434
  0
LINE
  8
0
 10
-26.581
 20
-7.52434
 11
-26.6444
 21
-7.67278
  0
LINE
  8
0
 10
-26.6444
 20
-7.67278
 11
-26.6523
 21
-7.71126
  0
LINE
  8
0
 10
-26.6523
 20
-7.71126
 11
-26.6849
 21
-7.86923
  0
LINE
  8
0
 10
-26.6849
 20
-7.86923
 11
-26.685
 21
-7.90857
  0
LINE
  8
0
 10
-26.685
 20
-7.90857
 11
-26.6853
 21
-8.06987
  0
LINE
  8
0
 10
-26.6853
 20
-8.06987
 11
-26.6774
 21
-8.10872
  0
LINE
  8
0
 10
-26.6774
 20
-8.10872
 11
-26.6453
 21
-8.26789
  0
LINE
  8
0
 10
-26.6453
 20
-8.26789
 11
-26.539
 21
-8.57757
  0
LINE
  8
0
 10
-26.539
 20
-8.57757
 11
-26.1041
 21
-9.84407
  0
LINE
  8
0
 10
-26.1041
 20
-9.84407
 11
-25.9795
 21
-10.1469
  0
LINE
  8
0
 10
-25.9795
 20
-10.1469
 11
-25.4697
 21
-11.3851
  0
LINE
  8
0
 10
-25.4697
 20
-11.3851
 11
-25.3273
 21
-11.6799
  0
LINE
  8
0
 10
-25.3273
 20
-11.6799
 11
-24.7445
 21
-12.8856
  0
LINE
  8
0
 10
-24.7445
 20
-12.8856
 11
-24.5847
 21
-13.1713
  0
LINE
  8
0
 10
-24.5847
 20
-13.1713
 11
-23.931
 21
-14.34
  0
LINE
  8
0
 10
-23.931
 20
-14.34
 11
-23.7544
 21
-14.6158
  0
LINE
  8
0
 10
-23.7544
 20
-14.6158
 11
-23.0321
 21
-15.7433
  0
LINE
  8
0
 10
-23.0321
 20
-15.7433
 11
-22.8393
 21
-16.008
  0
LINE
  8
0
 10
-22.8393
 20
-16.008
 11
-22.051
 21
-17.0904
  0
LINE
  8
0
 10
-22.051
 20
-17.0904
 11
-21.8428
 21
-17.3431
  0
LINE
  8
0
 10
-21.8428
 20
-17.3431
 11
-20.9912
 21
-18.3766
  0
LINE
  8
0
 10
-20.9912
 20
-18.3766
 11
-20.7683
 21
-18.6164
  0
LINE
  8
0
 10
-20.7683
 20
-18.6164
 11
-19.8565
 21
-19.5971
  0
LINE
  8
0
 10
-19.8565
 20
-19.5971
 11
-19.6197
 21
-19.8232
  0
LINE
  8
0
 10
-19.6197
 20
-19.8232
 11
-18.651
 21
-20.7478
  0
LINE
  8
0
 10
-18.651
 20
-20.7478
 11
-18.4011
 21
-20.9593
  0
LINE
  8
0
 10
-18.4011
 20
-20.9593
 11
-17.3789
 21
-21.8244
  0
LINE
  8
0
 10
-17.3789
 20
-21.8244
 11
-17.1168
 21
-22.0206
  0
LINE
  8
0
 10
-17.1168
 20
-22.0206
 11
-16.0448
 21
-22.8231
  0
LINE
  8
0
 10
-16.0448
 20
-22.8231
 11
-15.7714
 21
-23.0033
  0
LINE
  8
0
 10
-15.7714
 20
-23.0033
 11
-14.6535
 21
-23.7404
  0
LINE
  8
0
 10
-14.6535
 20
-23.7404
 11
-14.3698
 21
-23.9039
  0
LINE
  8
0
 10
-14.3698
 20
-23.9039
 11
-13.2098
 21
-24.5729
  0
LINE
  8
0
 10
-13.2098
 20
-24.5729
 11
-12.0119
 21
-25.1715
  0
LINE
  8
0
 10
-12.0119
 20
-25.1715
 11
-11.719
 21
-25.3178
  0
LINE
  8
0
 10
-11.719
 20
-25.3178
 11
-10.4876
 21
-25.8438
  0
LINE
  8
0
 10
-10.4876
 20
-25.8438
 11
-10.1865
 21
-25.9724
  0
LINE
  8
0
 10
-10.1865
 20
-25.9724
 11
-8.92578
 21
-26.4239
  0
LINE
  8
0
 10
-8.92578
 20
-26.4239
 11
-8.61752
 21
-26.5343
  0
LINE
  8
0
 10
-8.61752
 20
-26.5343
 11
-7.33214
 21
-26.9097
  0
LINE
  8
0
 10
-7.33214
 20
-26.9097
 11
-7.01784
 21
-27.0015
  0
LINE
  8
0
 10
-7.01784
 20
-27.0015
 11
-5.71233
 21
-27.2995
  0
LINE
  8
0
 10
-5.71233
 20
-27.2995
 11
-5.39311
 21
-27.3723
  0
LINE
  8
0
 10
-5.39311
 20
-27.3723
 11
-4.07214
 21
-27.5918
  0
LINE
  8
0
 10
-4.07214
 20
-27.5918
 11
-3.74914
 21
-27.6455
  0
LINE
  8
0
 10
-3.74914
 20
-27.6455
 11
-2.41742
 21
-27.7857
  0
LINE
  8
0
 10
-2.41742
 20
-27.7857
 11
-2.09179
 21
-27.82
  0
LINE
  8
0
 10
-2.09179
 20
-27.82
 11
-0.754073
 21
-27.8805
  0
LINE
  8
0
 10
-0.754073
 20
-27.8805
 11
-0.426977
 21
-27.8953
  0
LINE
  8
0
 10
-0.426977
 20
-27.8953
 11
0.911964
 21
-27.8758
  0
LINE
  8
0
 10
0.911964
 20
-27.8758
 11
1.23936
 21
-27.871
  0
LINE
  8
0
 10
1.23936
 20
-27.871
 11
2.57475
 21
-27.7716
  0
LINE
  8
0
 10
2.57475
 20
-27.7716
 11
2.90127
 21
-27.7473
  0
LINE
  8
0
 10
2.90127
 20
-27.7473
 11
4.22834
 21
-27.5683
  0
LINE
  8
0
 10
4.22834
 20
-27.5683
 11
4.55283
 21
-27.5245
  0
LINE
  8
0
 10
4.55283
 20
-27.5245
 11
5.86685
 21
-27.2667
  0
LINE
  8
0
 10
5.86685
 20
-27.2667
 11
6.18815
 21
-27.2036
  0
LINE
  8
0
 10
6.18815
 20
-27.2036
 11
6.34148
 21
-27.152
  0
LINE
  8
0
 10
6.34148
 20
-27.152
 11
6.3789
 21
-27.1395
  0
LINE
  8
0
 10
6.3789
 20
-27.1395
 11
6.4129
 21
-27.1197
  0
LINE
  8
0
 10
6.4129
 20
-27.1197
 11
6.55222
 21
-27.0389
  0
LINE
  8
0
 10
6.55222
 20
-27.0389
 11
6.58163
 21
-27.0127
  0
LINE
  8
0
 10
6.58163
 20
-27.0127
 11
6.70225
 21
-26.9054
  0
LINE
  8
0
 10
6.70225
 20
-26.9054
 11
6.7258
 21
-26.874
  0
LINE
  8
0
 10
6.7258
 20
-26.874
 11
6.8225
 21
-26.7451
  0
LINE
  8
0
 10
6.8225
 20
-26.7451
 11
6.83927
 21
-26.7097
  0
LINE
  8
0
 10
6.83927
 20
-26.7097
 11
6.90824
 21
-26.5639
  0
LINE
  8
0
 10
6.90824
 20
-26.5639
 11
6.91763
 21
-26.5259
  0
LINE
  8
0
 10
6.91763
 20
-26.5259
 11
6.95635
 21
-26.3692
  0
LINE
  8
0
 10
6.95635
 20
-26.3692
 11
6.95793
 21
-26.3302
  0
LINE
  8
0
 10
6.95793
 20
-26.3302
 11
6.96446
 21
-26.1689
  0
LINE
  8
0
 10
6.96446
 20
-26.1689
 11
6.95819
 21
-26.1301
  0
LINE
  8
0
 10
6.95819
 20
-26.1301
 11
6.93222
 21
-25.9695
  0
LINE
  8
0
 10
6.93222
 20
-25.9695
 11
6.60866
 21
-24.762
  0
LINE
  8
0
 10
6.60866
 20
-24.762
 11
5.27526
 21
-19.7857
  0
LINE
  8
0
 10
5.27526
 20
-19.7857
 11
5.24121
 21
-19.5348
  0
LINE
  8
0
 10
5.24121
 20
-19.5348
 11
5.27127
 21
-19.2834
  0
LINE
  8
0
 10
5.27127
 20
-19.2834
 11
5.36351
 21
-19.0476
  0
LINE
  8
0
 10
5.36351
 20
-19.0476
 11
5.51201
 21
-18.8425
  0
LINE
  8
0
 10
5.51201
 20
-18.8425
 11
5.70726
 21
-18.6813
  0
LINE
  8
0
 10
5.70726
 20
-18.6813
 11
5.93673
 21
-18.5743
  0
LINE
  8
0
 10
5.93673
 20
-18.5743
 11
7.25067
 21
-18.1019
  0
LINE
  8
0
 10
7.25067
 20
-18.1019
 11
8.52743
 21
-17.5366
  0
LINE
  8
0
 10
8.52743
 20
-17.5366
 11
9.76047
 21
-16.8814
  0
LINE
  8
0
 10
9.76047
 20
-16.8814
 11
10.9435
 21
-16.1397
  0
LINE
  8
0
 10
10.9435
 20
-16.1397
 11
12.0704
 21
-15.3152
  0
LINE
  8
0
 10
12.0704
 20
-15.3152
 11
13.1353
 21
-14.4122
  0
LINE
  8
0
 10
13.1353
 20
-14.4122
 11
13.3427
 21
-14.2667
  0
LINE
  8
0
 10
13.3427
 20
-14.2667
 11
13.5801
 21
-14.1779
  0
LINE
  8
0
 10
13.5801
 20
-14.1779
 11
13.8321
 21
-14.1516
  0
LINE
  8
0
 10
13.8321
 20
-14.1516
 11
14.0827
 21
-14.1895
  0
LINE
  8
0
 10
14.0827
 20
-14.1895
 11
14.3156
 21
-14.2892
  0
LINE
  8
0
 10
14.3156
 20
-14.2892
 11
14.5161
 21
-14.4442
  0
LINE
  8
0
 10
14.5161
 20
-14.4442
 11
19.0414
 21
-18.9696
  0
LINE
  8
0
 10
19.0414
 20
-18.9696
 11
19.1671
 21
-19.0722
  0
LINE
  8
0
 10
19.1671
 20
-19.0722
 11
19.1974
 21
-19.097
  0
LINE
  8
0
 10
19.1974
 20
-19.097
 11
19.3404
 21
-19.172
  0
LINE
  8
0
 10
19.3404
 20
-19.172
 11
19.375
 21
-19.1901
  0
LINE
  8
0
 10
19.375
 20
-19.1901
 11
19.5303
 21
-19.2351
  0
LINE
  8
0
 10
19.5303
 20
-19.2351
 11
19.568
 21
-19.246
  0
LINE
  8
0
 10
19.568
 20
-19.246
 11
19.607
 21
-19.2492
  0
LINE
  8
0
 10
19.607
 20
-19.2492
 11
19.7678
 21
-19.2624
  0
LINE
  8
0
 10
19.7678
 20
-19.2624
 11
19.8068
 21
-19.2577
  0
LINE
  8
0
 10
19.8068
 20
-19.2577
 11
19.967
 21
-19.2383
  0
LINE
  8
0
 10
19.967
 20
-19.2383
 11
20.0043
 21
-19.2259
  0
LINE
  8
0
 10
20.0043
 20
-19.2259
 11
20.1574
 21
-19.1752
  0
LINE
  8
0
 10
20.1574
 20
-19.1752
 11
20.1915
 21
-19.1556
  0
LINE
  8
0
 10
20.1915
 20
-19.1556
 11
20.3313
 21
-19.0752
  0
LINE
  8
0
 10
20.3313
 20
-19.0752
 11
20.3611
 21
-19.049
  0
LINE
  8
0
 10
20.3611
 20
-19.049
 11
20.4828
 21
-18.9415
  0
LINE
  8
0
 10
20.4828
 20
-18.9415
 11
20.6979
 21
-18.6946
  0
LINE
  8
0
 10
20.6979
 20
-18.6946
 11
21.5773
 21
-17.6848
  0
LINE
  8
0
 10
21.5773
 20
-17.6848
 11
21.7772
 21
-17.4254
  0
LINE
  8
0
 10
21.7772
 20
-17.4254
 11
22.5947
 21
-16.3649
  0
LINE
  8
0
 10
22.5947
 20
-16.3649
 11
22.7788
 21
-16.0941
  0
LINE
  8
0
 10
22.7788
 20
-16.0941
 11
23.5315
 21
-14.9866
  0
LINE
  8
0
 10
23.5315
 20
-14.9866
 11
23.6991
 21
-14.7053
  0
LINE
  8
0
 10
23.6991
 20
-14.7053
 11
24.3843
 21
-13.5548
  0
LINE
  8
0
 10
24.3843
 20
-13.5548
 11
24.5348
 21
-13.264
  0
LINE
  8
0
 10
24.5348
 20
-13.264
 11
25.1502
 21
-12.0747
  0
LINE
  8
0
 10
25.1502
 20
-12.0747
 11
25.283
 21
-11.7754
  0
LINE
  8
0
 10
25.283
 20
-11.7754
 11
25.8262
 21
-10.5515
  0
LINE
  8
0
 10
25.8262
 20
-10.5515
 11
25.941
 21
-10.2448
  0
LINE
  8
0
 10
25.941
 20
-10.2448
 11
26.4102
 21
-8.99063
  0
LINE
  8
0
 10
26.4102
 20
-8.99063
 11
26.5064
 21
-8.67766
  0
LINE
  8
0
 10
26.5064
 20
-8.67766
 11
26.8999
 21
-7.39769
  0
LINE
  8
0
 10
26.8999
 20
-7.39769
 11
26.9772
 21
-7.07953
  0
LINE
  8
0
 10
26.9772
 20
-7.07953
 11
27.2936
 21
-5.77835
  0
LINE
  8
0
 10
27.2936
 20
-5.77835
 11
27.3518
 21
-5.45614
  0
LINE
  8
0
 10
27.3518
 20
-5.45614
 11
27.5899
 21
-4.13839
  0
LINE
  8
0
 10
27.5899
 20
-4.13839
 11
27.6288
 21
-3.81328
  0
LINE
  8
0
 10
27.6288
 20
-3.81328
 11
27.7878
 21
-2.48367
  0
LINE
  8
0
 10
27.7878
 20
-2.48367
 11
27.8072
 21
-2.15681
  0
LINE
  8
0
 10
27.8072
 20
-2.15681
 11
27.8865
 21
-0.82008
  0
LINE
  8
0
 10
27.8865
 20
-0.82008
 11
27.8863
 21
-0.492651
  0
LINE
  8
0
 10
27.8863
 20
-0.492651
 11
27.8857
 21
0.846432
  0
LINE
  8
0
 10
27.8857
 20
0.846432
 11
27.8051
 21
2.18309
  0
LINE
  8
0
 10
27.8051
 20
2.18309
 11
27.7854
 21
2.50992
  0
LINE
  8
0
 10
27.7854
 20
2.50992
 11
27.6252
 21
3.83939
  0
LINE
  8
0
 10
27.6252
 20
3.83939
 11
27.586
 21
4.16446
  0
LINE
  8
0
 10
27.586
 20
4.16446
 11
27.3466
 21
5.48198
  0
LINE
  8
0
 10
27.3466
 20
5.48198
 11
27.2881
 21
5.80414
  0
LINE
  8
0
 10
27.2881
 20
5.80414
 11
26.9705
 21
7.10502
  0
LINE
  8
0
 10
26.9705
 20
7.10502
 11
26.8929
 21
7.4231
  0
LINE
  8
0
 10
26.8929
 20
7.4231
 11
26.4982
 21
8.7027
  0
LINE
  8
0
 10
26.4982
 20
8.7027
 11
26.4017
 21
9.01558
  0
LINE
  8
0
 10
26.4017
 20
9.01558
 11
25.9313
 21
10.2693
  0
LINE
  8
0
 10
25.9313
 20
10.2693
 11
25.8163
 21
10.5759
  0
LINE
  8
0
 10
25.8163
 20
10.5759
 11
25.2719
 21
11.7993
  0
LINE
  8
0
 10
25.2719
 20
11.7993
 11
25.1387
 21
12.0985
  0
LINE
  8
0
 10
25.1387
 20
12.0985
 11
24.5223
 21
13.2872
  0
LINE
  8
0
 10
24.5223
 20
13.2872
 11
24.3715
 21
13.5779
  0
LINE
  8
0
 10
24.3715
 20
13.5779
 11
23.6852
 21
14.7277
  0
LINE
  8
0
 10
23.6852
 20
14.7277
 11
23.5173
 21
15.0088
  0
LINE
  8
0
 10
23.5173
 20
15.0088
 11
22.7635
 21
16.1156
  0
LINE
  8
0
 10
22.7635
 20
16.1156
 11
22.5792
 21
16.3862
  0
LINE
  8
0
 10
22.5792
 20
16.3862
 11
21.7607
 21
17.446
  0
LINE
  8
0
 10
21.7607
 20
17.446
 11
21.5605
 21
17.7051
  0
LINE
  8
0
 10
21.5605
 20
17.7051
 11
20.6802
 21
18.7142
  0
LINE
  8
0
 10
20.6802
 20
18.7142
 11
20.4649
 21
18.9609
  0
LINE
  8
0
 10
20.4649
 20
18.9609
 11
20.3436
 21
19.0679
  0
LINE
  8
0
 10
20.3436
 20
19.0679
 11
20.314
 21
19.094
  0
LINE
  8
0
 10
20.314
 20
19.094
 11
20.2799
 21
19.1136
  0
LINE
  8
0
 10
20.2799
 20
19.1136
 11
20.1403
 21
19.1938
  0
LINE
  8
0
 10
20.1403
 20
19.1938
 11
20.1029
 21
19.2062
  0
LINE
  8
0
 10
20.1029
 20
19.2062
 11
19.9496
 21
19.257
  0
LINE
  8
0
 10
19.9496
 20
19.257
 11
19.9107
 21
19.2617
  0
LINE
  8
0
 10
19.9107
 20
19.2617
 11
19.7507
 21
19.281
  0
LINE
  8
0
 10
19.7507
 20
19.281
 11
19.7116
 21
19.2778
  0
LINE
  8
0
 10
19.7116
 20
19.2778
 11
19.5509
 21
19.2646
  0
LINE
  8
0
 10
19.5509
 20
19.2646
 11
19.5133
 21
19.2538
  0
LINE
  8
0
 10
19.5133
 20
19.2538
 11
19.3583
 21
19.209
  0
LINE
  8
0
 10
19.3583
 20
19.209
 11
19.3236
 21
19.1908
  0
LINE
  8
0
 10
19.3236
 20
19.1908
 11
19.1807
 21
19.1158
  0
LINE
  8
0
 10
19.1807
 20
19.1158
 11
19.1502
 21
19.091
  0
LINE
  8
0
 10
19.1502
 20
19.091
 11
19.0242
 21
18.9882
  0
LINE
  8
0
 10
19.0242
 20
18.9882
 11
14.4973
 21
14.4613
  0
LINE
  8
0
 10
14.4973
 20
14.4613
 11
14.297
 21
14.3064
  0
LINE
  8
0
 10
14.297
 20
14.3064
 11
14.0643
 21
14.2067
  0
LINE
  8
0
 10
14.0643
 20
14.2067
 11
13.8139
 21
14.1687
  0
LINE
  8
0
 10
13.8139
 20
14.1687
 11
13.5621
 21
14.1948
  0
LINE
  8
0
 10
13.5621
 20
14.1948
 11
13.3249
 21
14.2833
  0
LINE
  8
0
 10
13.3249
 20
14.2833
 11
13.1175
 21
14.4285
  0
LINE
  8
0
 10
13.1175
 20
14.4285
 11
12.0513
 21
15.3302
  0
LINE
  8
0
 10
12.0513
 20
15.3302
 11
10.9234
 21
16.1533
  0
LINE
  8
0
 10
10.9234
 20
16.1533
 11
9.73952
 21
16.8935
  0
LINE
  8
0
 10
9.73952
 20
16.8935
 11
8.50567
 21
17.5472
  0
LINE
  8
0
 10
8.50567
 20
17.5472
 11
7.22821
 21
18.1109
  0
LINE
  8
0
 10
7.22821
 20
18.1109
 11
5.91369
 21
18.5817
  0
LINE
  8
0
 10
5.91369
 20
18.5817
 11
5.68391
 21
18.6885
  0
LINE
  8
0
 10
5.68391
 20
18.6885
 11
5.48835
 21
18.8496
  0
LINE
  8
0
 10
5.48835
 20
18.8496
 11
5.33958
 21
19.0548
  0
LINE
  8
0
 10
5.33958
 20
19.0548
 11
5.24715
 21
19.2907
  0
LINE
  8
0
 10
5.24715
 20
19.2907
 11
5.21699
 21
19.5423
  0
LINE
  8
0
 10
5.21699
 20
19.5423
 11
5.25103
 21
19.7934
  0
LINE
  8
0
 10
5.25103
 20
19.7934
 11
6.58398
 21
24.768
  0
LINE
  8
0
 10
6.58398
 20
24.768
 11
6.90743
 21
25.9752
  0
LINE
  8
0
 10
6.90743
 20
25.9752
 11
6.93345
 21
26.1353
  0
LINE
  8
0
 10
6.93345
 20
26.1353
 11
6.93973
 21
26.1739
  0
LINE
  8
0
 10
6.93973
 20
26.1739
 11
6.93322
 21
26.3352
  0
LINE
  8
0
 10
6.93322
 20
26.3352
 11
6.93164
 21
26.3743
  0
LINE
  8
0
 10
6.93164
 20
26.3743
 11
6.89293
 21
26.5313
  0
LINE
  8
0
 10
6.89293
 20
26.5313
 11
6.88353
 21
26.5694
  0
LINE
  8
0
 10
6.88353
 20
26.5694
 11
6.86679
 21
26.6048
  0
LINE
  8
0
 10
6.86679
 20
26.6048
 11
6.79781
 21
26.7506
  0
LINE
  8
0
 10
6.79781
 20
26.7506
 11
6.77424
 21
26.782
  0
LINE
  8
0
 10
6.77424
 20
26.782
 11
6.67736
 21
26.9111
  0
LINE
  8
0
 10
6.67736
 20
26.9111
 11
6.64801
 21
26.9372
  0
LINE
  8
0
 10
6.64801
 20
26.9372
 11
6.52752
 21
27.0445
  0
LINE
  8
0
 10
6.52752
 20
27.0445
 11
6.49348
 21
27.0642
  0
LINE
  8
0
 10
6.49348
 20
27.0642
 11
6.35393
 21
27.1451
  0
LINE
  8
0
 10
6.35393
 20
27.1451
 11
6.31636
 21
27.1577
  0
LINE
  8
0
 10
6.31636
 20
27.1577
 11
6.16244
 21
27.2094
  0
LINE
  8
0
 10
6.16244
 20
27.2094
 11
5.84108
 21
27.2722
  0
LINE
  8
0
 10
5.84108
 20
27.2722
 11
4.52682
 21
27.5288
  0
LINE
  8
0
 10
4.52682
 20
27.5288
 11
4.20229
 21
27.5723
  0
LINE
  8
0
 10
4.20229
 20
27.5723
 11
2.87505
 21
27.75
  0
LINE
  8
0
 10
2.87505
 20
27.75
 11
2.5485
 21
27.774
  0
LINE
  8
0
 10
2.5485
 20
27.774
 11
1.21302
 21
27.8722
  0
LINE
  8
0
 10
1.21302
 20
27.8722
 11
0.885621
 21
27.8766
  0
LINE
  8
0
 10
0.885621
 20
27.8766
 11
-0.453338
 21
27.8949
  0
LINE
  8
0
 10
-0.453338
 20
27.8949
 11
-0.780419
 21
27.8798
  0
LINE
  8
0
 10
-0.780419
 20
27.8798
 11
-2.11808
 21
27.818
  0
LINE
  8
0
 10
-2.11808
 20
27.818
 11
-2.44368
 21
27.7834
  0
LINE
  8
0
 10
-2.44368
 20
27.7834
 11
-3.77526
 21
27.6419
  0
LINE
  8
0
 10
-3.77526
 20
27.6419
 11
-4.09821
 21
27.588
  0
LINE
  8
0
 10
-4.09821
 20
27.588
 11
-5.41897
 21
27.3672
  0
LINE
  8
0
 10
-5.41897
 20
27.3672
 11
-5.73813
 21
27.294
  0
LINE
  8
0
 10
-5.73813
 20
27.294
 11
-7.04335
 21
26.9948
  0
LINE
  8
0
 10
-7.04335
 20
26.9948
 11
-7.35756
 21
26.9027
  0
LINE
  8
0
 10
-7.35756
 20
26.9027
 11
-8.64259
 21
26.5261
  0
LINE
  8
0
 10
-8.64259
 20
26.5261
 11
-8.95075
 21
26.4154
  0
LINE
  8
0
 10
-8.95075
 20
26.4154
 11
-10.211
 21
25.9627
  0
LINE
  8
0
 10
-10.211
 20
25.9627
 11
-10.512
 21
25.8339
  0
LINE
  8
0
 10
-10.512
 20
25.8339
 11
-11.743
 21
25.3067
  0
LINE
  8
0
 10
-11.743
 20
25.3067
 11
-12.0357
 21
25.1601
  0
LINE
  8
0
 10
-12.0357
 20
25.1601
 11
-13.233
 21
24.5604
  0
LINE
  8
0
 10
-13.233
 20
24.5604
 11
-13.5165
 21
24.3966
  0
LINE
  8
0
 10
-13.5165
 20
24.3966
 11
-14.6759
 21
23.7265
  0
LINE
  8
0
 10
-14.6759
 20
23.7265
 11
-15.7932
 21
22.9884
  0
LINE
  8
0
 10
-15.7932
 20
22.9884
 11
-16.0664
 21
22.8079
  0
LINE
  8
0
 10
-16.0664
 20
22.8079
 11
-17.1376
 21
22.0044
  0
LINE
  8
0
 10
-17.1376
 20
22.0044
 11
-17.3995
 21
21.8079
  0
LINE
  8
0
 10
-17.3995
 20
21.8079
 11
-18.4209
 21
20.9419
  0
LINE
  8
0
 10
-18.4209
 20
20.9419
 11
-18.6706
 21
20.7301
  0
LINE
  8
0
 10
-18.6706
 20
20.7301
 11
-19.6384
 21
19.8047
  0
LINE
  8
0
 10
-19.6384
 20
19.8047
 11
-19.875
 21
19.5784
  0
LINE
  8
0
 10
-19.875
 20
19.5784
 11
-20.7859
 21
18.5967
  0
LINE
  8
0
 10
-20.7859
 20
18.5967
 11
-21.0086
 21
18.3567
  0
LINE
  8
0
 10
-21.0086
 20
18.3567
 11
-21.8591
 21
17.3225
  0
LINE
  8
0
 10
-21.8591
 20
17.3225
 11
-22.0671
 21
17.0696
  0
LINE
  8
0
 10
-22.0671
 20
17.0696
 11
-22.8544
 21
15.9864
  0
LINE
  8
0
 10
-22.8544
 20
15.9864
 11
-23.0469
 21
15.7216
  0
LINE
  8
0
 10
-23.0469
 20
15.7216
 11
-23.7682
 21
14.5933
  0
LINE
  8
0
 10
-23.7682
 20
14.5933
 11
-23.9445
 21
14.3174
  0
LINE
  8
0
 10
-23.9445
 20
14.3174
 11
-24.5971
 21
13.1481
  0
LINE
  8
0
 10
-24.5971
 20
13.1481
 11
-24.7567
 21
12.8622
  0
LINE
  8
0
 10
-24.7567
 20
12.8622
 11
-25.3383
 21
11.656
  0
LINE
  8
0
 10
-25.3383
 20
11.656
 11
-25.4805
 21
11.3611
  0
LINE
  8
0
 10
-25.4805
 20
11.3611
 11
-25.989
 21
10.1223
  0
LINE
  8
0
 10
-25.989
 20
10.1223
 11
-26.1134
 21
9.8194
  0
LINE
  8
0
 10
-26.1134
 20
9.8194
 11
-26.5471
 21
8.55249
  0
LINE
  8
0
 10
-26.5471
 20
8.55249
 11
-26.6531
 21
8.2427
  0
LINE
  8
0
 10
-26.6531
 20
8.2427
 11
-26.6851
 21
8.08413
  0
LINE
  8
0
 10
-26.6851
 20
8.08413
 11
-26.6929
 21
8.04543
  0
LINE
  8
0
 10
-22.7749
 20
-11.9062
 11
-22.7278
 21
-11.4587
  0
LINE
  8
0
 10
-22.7278
 20
-11.4587
 11
-22.5888
 21
-11.0307
  0
LINE
  8
0
 10
-22.5888
 20
-11.0307
 11
-22.3638
 21
-10.641
  0
LINE
  8
0
 10
-22.3638
 20
-10.641
 11
-22.0626
 21
-10.3065
  0
LINE
  8
0
 10
-22.0626
 20
-10.3065
 11
-21.6986
 21
-10.042
  0
LINE
  8
0
 10
-21.6986
 20
-10.042
 11
-21.2874
 21
-9.85896
  0
LINE
  8
0
 10
-21.2874
 20
-9.85896
 11
-20.8472
 21
-9.76539
  0
LINE
  8
0
 10
-20.8472
 20
-9.76539
 11
-20.3972
 21
-9.76539
  0
LINE
  8
0
 10
-20.3972
 20
-9.76539
 11
-19.957
 21
-9.85896
  0
LINE
  8
0
 10
-19.957
 20
-9.85896
 11
-19.5459
 21
-10.042
  0
LINE
  8
0
 10
-19.5459
 20
-10.042
 11
-19.1818
 21
-10.3065
  0
LINE
  8
0
 10
-19.1818
 20
-10.3065
 11
-18.8807
 21
-10.641
  0
LINE
  8
0
 10
-18.8807
 20
-10.641
 11
-18.6557
 21
-11.0307
  0
LINE
  8
0
 10
-18.6557
 20
-11.0307
 11
-18.5166
 21
-11.4587
  0
LINE
  8
0
 10
-18.5166
 20
-11.4587
 11
-18.4696
 21
-11.9062
  0
LINE
  8
0
 10
-18.4696
 20
-11.9062
 11
-18.5166
 21
-12.3538
  0
LINE
  8
0
 10
-18.5166
 20
-12.3538
 11
-18.6557
 21
-12.7818
  0
LINE
  8
0
 10
-18.6557
 20
-12.7818
 11
-18.8807
 21
-13.1715
  0
LINE
  8
0
 10
-18.8807
 20
-13.1715
 11
-19.1818
 21
-13.506
  0
LINE
  8
0
 10
-19.1818
 20
-13.506
 11
-19.5459
 21
-13.7705
  0
LINE
  8
0
 10
-19.5459
 20
-13.7705
 11
-19.957
 21
-13.9535
  0
LINE
  8
0
 10
-19.957
 20
-13.9535
 11
-20.3972
 21
-14.0471
  0
LINE
  8
0
 10
-20.3972
 20
-14.0471
 11
-20.8472
 21
-14.0471
  0
LINE
  8
0
 10
-20.8472
 20
-14.0471
 11
-21.2874
 21
-13.9535
  0
LINE
  8
0
 10
-21.2874
 20
-13.9535
 11
-21.6986
 21
-13.7705
  0
LINE
  8
0
 10
-21.6986
 20
-13.7705
 11
-22.0626
 21
-13.506
  0
LINE
  8
0
 10
-22.0626
 20
-13.506
 11
-22.3638
 21
-13.1715
  0
LINE
  8
0
 10
-22.3638
 20
-13.1715
 11
-22.5888
 21
-12.7818
  0
LINE
  8
0
 10
-22.5888
 20
-12.7818
 11
-22.7278
 21
-12.3538
  0
LINE
  8
0
 10
-22.7278
 20
-12.3538
 11
-22.7749
 21
-11.9062
  0
LINE
  8
0
 10
-22.7749
 20
11.9062
 11
-22.7278
 21
12.3538
  0
LINE
  8
0
 10
-22.7278
 20
12.3538
 11
-22.5888
 21
12.7818
  0
LINE
  8
0
 10
-22.5888
 20
12.7818
 11
-22.3638
 21
13.1715
  0
LINE
  8
0
 10
-22.3638
 20
13.1715
 11
-22.0626
 21
13.506
  0
LINE
  8
0
 10
-22.0626
 20
13.506
 11
-21.6986
 21
13.7705
  0
LINE
  8
0
 10
-21.6986
 20
13.7705
 11
-21.2874
 21
13.9535
  0
LINE
  8
0
 10
-21.2874
 20
13.9535
 11
-20.8472
 21
14.0471
  0
LINE
  8
0
 10
-20.8472
 20
14.0471
 11
-20.3972
 21
14.0471
  0
LINE
  8
0
 10
-20.3972
 20
14.0471
 11
-19.957
 21
13.9535
  0
LINE
  8
0
 10
-19.957
 20
13.9535
 11
-19.5459
 21
13.7705
  0
LINE
  8
0
 10
-19.5459
 20
13.7705
 11
-19.1818
 21
13.506
  0
LINE
  8
0
 10
-19.1818
 20
13.506
 11
-18.8807
 21
13.1715
  0
LINE
  8
0
 10
-18.8807
 20
13.1715
 11
-18.6557
 21
12.7818
  0
LINE
  8
0
 10
-18.6557
 20
12.7818
 11
-18.5166
 21
12.3538
  0
LINE
  8
0
 10
-18.5166
 20
12.3538
 11
-18.4696
 21
11.9062
  0
LINE
  8
0
 10
-18.4696
 20
11.9062
 11
-18.5166
 21
11.4587
  0
LINE
  8
0
 10
-18.5166
 20
11.4587
 11
-18.6557
 21
11.0307
  0
LINE
  8
0
 10
-18.6557
 20
11.0307
 11
-18.8807
 21
10.641
  0
LINE
  8
0
 10
-18.8807
 20
10.641
 11
-19.1818
 21
10.3065
  0
LINE
  8
0
 10
-19.1818
 20
10.3065
 11
-19.5459
 21
10.042
  0
LINE
  8
0
 10
-19.5459
 20
10.042
 11
-19.957
 21
9.85896
  0
LINE
  8
0
 10
-19.957
 20
9.85896
 11
-20.3972
 21
9.76539
  0
LINE
  8
0
 10
-20.3972
 20
9.76539
 11
-20.8472
 21
9.76539
  0
LINE
  8
0
 10
-20.8472
 20
9.76539
 11
-21.2874
 21
9.85896
  0
LINE
  8
0
 10
-21.2874
 20
9.85896
 11
-21.6986
 21
10.042
  0
LINE
  8
0
 10
-21.6986
 20
10.042
 11
-22.0626
 21
10.3065
  0
LINE
  8
0
 10
-22.0626
 20
10.3065
 11
-22.3638
 21
10.641
  0
LINE
  8
0
 10
-22.3638
 20
10.641
 11
-22.5888
 21
11.0307
  0
LINE
  8
0
 10
-22.5888
 20
11.0307
 11
-22.7278
 21
11.4587
  0
LINE
  8
0
 10
-22.7278
 20
11.4587
 11
-22.7749
 21
11.9062
  0
LINE
  8
0
 10
-8.75
 20
0
 11
-8.70283
 21
0.403577
  0
LINE
  8
0
 10
-8.70283
 20
0.403577
 11
-8.56386
 21
0.785398
  0
LINE
  8
0
 10
-8.56386
 20
0.785398
 11
-8.34058
 21
1.12488
  0
LINE
  8
0
 10
-8.34058
 20
1.12488
 11
-8.04503
 21
1.40372
  0
LINE
  8
0
 10
-8.04503
 20
1.40372
 11
-7.69314
 21
1.60688
  0
LINE
  8
0
 10
-7.69314
 20
1.60688
 11
-7.30388
 21
1.72341
  0
LINE
  8
0
 10
-7.30388
 20
1.72341
 11
-6.89825
 21
1.74704
  0
LINE
  8
0
 10
-6.89825
 20
1.74704
 11
-6.49809
 21
1.67648
  0
LINE
  8
0
 10
-6.49809
 20
1.67648
 11
-6.125
 21
1.51554
  0
LINE
  8
0
 10
-6.125
 20
1.51554
 11
-5.79908
 21
1.2729
  0
LINE
  8
0
 10
-5.79908
 20
1.2729
 11
-5.5379
 21
0.96164
  0
LINE
  8
0
 10
-5.5379
 20
0.96164
 11
-5.35554
 21
0.598535
  0
LINE
  8
0
 10
-5.35554
 20
0.598535
 11
-5.26183
 21
0.203162
  0
LINE
  8
0
 10
-5.26183
 20
0.203162
 11
-5.26183
 21
-0.203162
  0
LINE
  8
0
 10
-5.26183
 20
-0.203162
 11
-5.35554
 21
-0.598535
  0
LINE
  8
0
 10
-5.35554
 20
-0.598535
 11
-5.5379
 21
-0.96164
  0
LINE
  8
0
 10
-5.5379
 20
-0.96164
 11
-5.79908
 21
-1.2729
  0
LINE
  8
0
 10
-5.79908
 20
-1.2729
 11
-6.125
 21
-1.51554
  0
LINE
  8
0
 10
-6.125
 20
-1.51554
 11
-6.49809
 21
-1.67648
  0
LINE
  8
0
 10
-6.49809
 20
-1.67648
 11
-6.89825
 21
-1.74704
  0
LINE
  8
0
 10
-6.89825
 20
-1.74704
 11
-7.30388
 21
-1.72341
  0
LINE
  8
0
 10
-7.30388
 20
-1.72341
 11
-7.69314
 21
-1.60688
  0
LINE
  8
0
 10
-7.69314
 20
-1.60688
 11
-8.04503
 21
-1.40372
  0
LINE
  8
0
 10
-8.04503
 20
-1.40372
 11
-8.34058
 21
-1.12488
  0
LINE
  8
0
 10
-8.34058
 20
-1.12488
 11
-8.56386
 21
-0.785398
  0
LINE
  8
0
 10
-8.56386
 20
-0.785398
 11
-8.70283
 21
-0.403577
  0
LINE
  8
0
 10
-8.70283
 20
-0.403577
 11
-8.75
 21
0
  0
LINE
  8
0
 10
-3.5
 20
0
 11
-3.45226
 21
0.57608
  0
LINE
  8
0
 10
-3.45226
 20
0.57608
 11
-3.31036
 21
1.13645
  0
LINE
  8
0
 10
-3.31036
 20
1.13645
 11
-3.07816
 21
1.66582
  0
LINE
  8
0
 10
-3.07816
 20
1.66582
 11
-2.76199
 21
2.14974
  0
LINE
  8
0
 10
-2.76199
 20
2.14974
 11
-2.37049
 21
2.57503
  0
LINE
  8
0
 10
-2.37049
 20
2.57503
 11
-1.91432
 21
2.93008
  0
LINE
  8
0
 10
-1.91432
 20
2.93008
 11
-1.40593
 21
3.20521
  0
LINE
  8
0
 10
-1.40593
 20
3.20521
 11
-0.859199
 21
3.3929
  0
LINE
  8
0
 10
-0.859199
 20
3.3929
 11
-0.289027
 21
3.48805
  0
LINE
  8
0
 10
-0.289027
 20
3.48805
 11
0.289027
 21
3.48805
  0
LINE
  8
0
 10
0.289027
 20
3.48805
 11
0.859199
 21
3.3929
  0
LINE
  8
0
 10
0.859199
 20
3.3929
 11
1.40593
 21
3.20521
  0
LINE
  8
0
 10
1.40593
 20
3.20521
 11
1.91432
 21
2.93008
  0
LINE
  8
0
 10
1.91432
 20
2.93008
 11
2.37049
 21
2.57503
  0
LINE
  8
0
 10
2.37049
 20
2.57503
 11
2.76199
 21
2.14974
  0
LINE
  8
0
 10
2.76199
 20
2.14974
 11
3.07816
 21
1.66582
  0
LINE
  8
0
 10
3.07816
 20
1.66582
 11
3.31036
 21
1.13645
  0
LINE
  8
0
 10
3.31036
 20
1.13645
 11
3.45226
 21
0.57608
  0
LINE
  8
0
 10
3.45226
 20
0.57608
 11
3.5
 21
0
  0
LINE
  8
0
 10
3.5
 20
0
 11
3.45226
 21
-0.57608
  0
LINE
  8
0
 10
3.45226
 20
-0.57608
 11
3.31036
 21
-1.13645
  0
LINE
  8
0
 10
3.31036
 20
-1.13645
 11
3.07816
 21
-1.66582
  0
LINE
  8
0
 10
3.07816
 20
-1.66582
 11
2.76199
 21
-2.14974
  0
LINE
  8
0
 10
2.76199
 20
-2.14974
 11
2.37049
 21
-2.57503
  0
LINE
  8
0
 10
2.37049
 20
-2.57503
 11
1.91432
 21
-2.93008
  0
LINE
  8
0
 10
1.91432
 20
-2.93008
 11
1.40593
 21
-3.20521
  0
LINE
  8
0
 10
1.40593
 20
-3.20521
 11
0.859199
 21
-3.3929
  0
LINE
  8
0
 10
0.859199
 20
-3.3929
 11
0.289027
 21
-3.48805
  0
LINE
  8
0
 10
0.289027
 20
-3.48805
 11
-0.289027
 21
-3.48805
  0
LINE
  8
0
 10
-0.289027
 20
-3.48805
 11
-0.859199
 21
-3.3929
  0
LINE
  8
0
 10
-0.859199
 20
-3.3929
 11
-1.40593
 21
-3.20521
  0
LINE
  8
0
 10
-1.40593
 20
-3.20521
 11
-1.91432
 21
-2.93008
  0
LINE
  8
0
 10
-1.91432
 20
-2.93008
 11
-2.37049
 21
-2.57503
  0
LINE
  8
0
 10
-2.37049
 20
-2.57503
 11
-2.76199
 21
-2.14974
  0
LINE
  8
0
 10
-2.76199
 20
-2.14974
 11
-3.07816
 21
-1.66582
  0
LINE
  8
0
 10
-3.07816
 20
-1.66582
 11
-3.31036
 21
-1.13645
  0
LINE
  8
0
 10
-3.31036
 20
-1.13645
 11
-3.45226
 21
-0.57608
  0
LINE
  8
0
 10
-3.45226
 20
-0.57608
 11
-3.5
 21
0
  0
LINE
  8
0
 10
-2.15265
 20
-23.8125
 11
-2.10561
 21
-23.3649
  0
LINE
  8
0
 10
-2.10561
 20
-23.3649
 11
-1.96654
 21
-22.9369
  0
LINE
  8
0
 10
-1.96654
 20
-22.9369
 11
-1.74153
 21
-22.5472
  0
LINE
  8
0
 10
-1.74153
 20
-22.5472
 11
-1.4404
 21
-22.2128
  0
LINE
  8
0
 10
-1.4404
 20
-22.2128
 11
-1.07632
 21
-21.9482
  0
LINE
  8
0
 10
-1.07632
 20
-21.9482
 11
-0.665205
 21
-21.7652
  0
LINE
  8
0
 10
-0.665205
 20
-21.7652
 11
-0.225013
 21
-21.6716
  0
LINE
  8
0
 10
-0.225013
 20
-21.6716
 11
0.225013
 21
-21.6716
  0
LINE
  8
0
 10
0.225013
 20
-21.6716
 11
0.665205
 21
-21.7652
  0
LINE
  8
0
 10
0.665205
 20
-21.7652
 11
1.07632
 21
-21.9482
  0
LINE
  8
0
 10
1.07632
 20
-21.9482
 11
1.4404
 21
-22.2128
  0
LINE
  8
0
 10
1.4404
 20
-22.2128
 11
1.74153
 21
-22.5472
  0
LINE
  8
0
 10
1.74153
 20
-22.5472
 11
1.96654
 21
-22.9369
  0
LINE
  8
0
 10
1.96654
 20
-22.9369
 11
2.10561
 21
-23.3649
  0
LINE
  8
0
 10
2.10561
 20
-23.3649
 11
2.15265
 21
-23.8125
  0
LINE
  8
0
 10
2.15265
 20
-23.8125
 11
2.10561
 21
-24.2601
  0
LINE
  8
0
 10
2.10561
 20
-24.2601
 11
1.96654
 21
-24.6881
  0
LINE
  8
0
 10
1.96654
 20
-24.6881
 11
1.74153
 21
-25.0778
  0
LINE
  8
0
 10
1.74153
 20
-25.0778
 11
1.4404
 21
-25.4122
  0
LINE
  8
0
 10
1.4404
 20
-25.4122
 11
1.07632
 21
-25.6768
  0
LINE
  8
0
 10
1.07632
 20
-25.6768
 11
0.665205
 21
-25.8598
  0
LINE
  8
0
 10
0.665205
 20
-25.8598
 11
0.225013
 21
-25.9534
  0
LINE
  8
0
 10
0.225013
 20
-25.9534
 11
-0.225013
 21
-25.9534
  0
LINE
  8
0
 10
-0.225013
 20
-25.9534
 11
-0.665205
 21
-25.8598
  0
LINE
  8
0
 10
-0.665205
 20
-25.8598
 11
-1.07632
 21
-25.6768
  0
LINE
  8
0
 10
-1.07632
 20
-25.6768
 11
-1.4404
 21
-25.4122
  0
LINE
  8
0
 10
-1.4404
 20
-25.4122
 11
-1.74153
 21
-25.0778
  0
LINE
  8
0
 10
-1.74153
 20
-25.0778
 11
-1.96654
 21
-24.6881
  0
LINE
  8
0
 10
-1.96654
 20
-24.6881
 11
-2.10561
 21
-24.2601
  0
LINE
  8
0
 10
-2.10561
 20
-24.2601
 11
-2.15265
 21
-23.8125
  0
LINE
  8
0
 10
-2.15265
 20
23.8125
 11
-2.10561
 21
24.2601
  0
LINE
  8
0
 10
-2.10561
 20
24.2601
 11
-1.96654
 21
24.6881
  0
LINE
  8
0
 10
-1.96654
 20
24.6881
 11
-1.74153
 21
25.0778
  0
LINE
  8
0
 10
-1.74153
 20
25.0778
 11
-1.4404
 21
25.4122
  0
LINE
  8
0
 10
-1.4404
 20
25.4122
 11
-1.07632
 21
25.6768
  0
LINE
  8
0
 10
-1.07632
 20
25.6768
 11
-0.665205
 21
25.8598
  0
LINE
  8
0
 10
-0.665205
 20
25.8598
 11
-0.225013
 21
25.9534
  0
LINE
  8
0
 10
-0.225013
 20
25.9534
 11
0.225013
 21
25.9534
  0
LINE
  8
0
 10
0.225013
 20
25.9534
 11
0.665205
 21
25.8598
  0
LINE
  8
0
 10
0.665205
 20
25.8598
 11
1.07632
 21
25.6768
  0
LINE
  8
0
 10
1.07632
 20
25.6768
 11
1.4404
 21
25.4122
  0
LINE
  8
0
 10
1.4404
 20
25.4122
 11
1.74153
 21
25.0778
  0
LINE
  8
0
 10
1.74153
 20
25.0778
 11
1.96654
 21
24.6881
  0
LINE
  8
0
 10
1.96654
 20
24.6881
 11
2.10561
 21
24.2601
  0
LINE
  8
0
 10
2.10561
 20
24.2601
 11
2.15265
 21
23.8125
  0
LINE
  8
0
 10
2.15265
 20
23.8125
 11
2.10561
 21
23.3649
  0
LINE
  8
0
 10
2.10561
 20
23.3649
 11
1.96654
 21
22.9369
  0
LINE
  8
0
 10
1.96654
 20
22.9369
 11
1.74153
 21
22.5472
  0
LINE
  8
0
 10
1.74153
 20
22.5472
 11
1.4404
 21
22.2128
  0
LINE
  8
0
 10
1.4404
 20
22.2128
 11
1.07632
 21
21.9482
  0
LINE
  8
0
 10
1.07632
 20
21.9482
 11
0.665205
 21
21.7652
  0
LINE
  8
0
 10
0.665205
 20
21.7652
 11
0.225013
 21
21.6716
  0
LINE
  8
0
 10
0.225013
 20
21.6716
 11
-0.225013
 21
21.6716
  0
LINE
  8
0
 10
-0.225013
 20
21.6716
 11
-0.665205
 21
21.7652
  0
LINE
  8
0
 10
-0.665205
 20
21.7652
 11
-1.07632
 21
21.9482
  0
LINE
  8
0
 10
-1.07632
 20
21.9482
 11
-1.4404
 21
22.2128
  0
LINE
  8
0
 10
-1.4404
 20
22.2128
 11
-1.74153
 21
22.5472
  0
LINE
  8
0
 10
-1.74153
 20
22.5472
 11
-1.96654
 21
22.9369
  0
LINE
  8
0
 10
-1.96654
 20
22.9369
 11
-2.10561
 21
23.3649
  0
LINE
  8
0
 10
-2.10561
 20
23.3649
 11
-2.15265
 21
23.8125
  0
LINE
  8
0
 10
-1.75
 20
-7
 11
-1.70283
 21
-6.59642
  0
LINE
  8
0
 10
-1.70283
 20
-6.59642
 11
-1.56386
 21
-6.2146
  0
LINE
  8
0
 10
-1.56386
 20
-6.2146
 11
-1.34058
 21
-5.87512
  0
LINE
  8
0
 10
-1.34058
 20
-5.87512
 11
-1.04503
 21
-5.59628
  0
LINE
  8
0
 10
-1.04503
 20
-5.59628
 11
-0.693139
 21
-5.39312
  0
LINE
  8
0
 10
-0.693139
 20
-5.39312
 11
-0.303884
 21
-5.27659
  0
LINE
  8
0
 10
-0.303884
 20
-5.27659
 11
0.101753
 21
-5.25296
  0
LINE
  8
0
 10
0.101753
 20
-5.25296
 11
0.501905
 21
-5.32352
  0
LINE
  8
0
 10
0.501905
 20
-5.32352
 11
0.875
 21
-5.48446
  0
LINE
  8
0
 10
0.875
 20
-5.48446
 11
1.20092
 21
-5.7271
  0
LINE
  8
0
 10
1.20092
 20
-5.7271
 11
1.4621
 21
-6.03836
  0
LINE
  8
0
 10
1.4621
 20
-6.03836
 11
1.64446
 21
-6.40146
  0
LINE
  8
0
 10
1.64446
 20
-6.40146
 11
1.73817
 21
-6.79684
  0
LINE
  8
0
 10
1.73817
 20
-6.79684
 11
1.73817
 21
-7.20316
  0
LINE
  8
0
 10
1.73817
 20
-7.20316
 11
1.64446
 21
-7.59853
  0
LINE
  8
0
 10
1.64446
 20
-7.59853
 11
1.4621
 21
-7.96164
  0
LINE
  8
0
 10
1.4621
 20
-7.96164
 11
1.20092
 21
-8.2729
  0
LINE
  8
0
 10
1.20092
 20
-8.2729
 11
0.875
 21
-8.51554
  0
LINE
  8
0
 10
0.875
 20
-8.51554
 11
0.501905
 21
-8.67648
  0
LINE
  8
0
 10
0.501905
 20
-8.67648
 11
0.101753
 21
-8.74704
  0
LINE
  8
0
 10
0.101753
 20
-8.74704
 11
-0.303884
 21
-8.72341
  0
LINE
  8
0
 10
-0.303884
 20
-8.72341
 11
-0.693139
 21
-8.60688
  0
LINE
  8
0
 10
-0.693139
 20
-8.60688
 11
-1.04503
 21
-8.40372
  0
LINE
  8
0
 10
-1.04503
 20
-8.40372
 11
-1.34058
 21
-8.12488
  0
LINE
  8
0
 10
-1.34058
 20
-8.12488
 11
-1.56386
 21
-7.7854
  0
LINE
  8
0
 10
-1.56386
 20
-7.7854
 11
-1.70283
 21
-7.40358
  0
LINE
  8
0
 10
-1.70283
 20
-7.40358
 11
-1.75
 21
-7
  0
LINE
  8
0
 10
-1.75
 20
7
 11
-1.70283
 21
7.40358
  0
LINE
  8
0
 10
-1.70283
 20
7.40358
 11
-1.56386
 21
7.7854
  0
LINE
  8
0
 10
-1.56386
 20
7.7854
 11
-1.34058
 21
8.12488
  0
LINE
  8
0
 10
-1.34058
 20
8.12488
 11
-1.04503
 21
8.40372
  0
LINE
  8
0
 10
-1.04503
 20
8.40372
 11
-0.693139
 21
8.60688
  0
LINE
  8
0
 10
-0.693139
 20
8.60688
 11
-0.303884
 21
8.72341
  0
LINE
  8
0
 10
-0.303884
 20
8.72341
 11
0.101753
 21
8.74704
  0
LINE
  8
0
 10
0.101753
 20
8.74704
 11
0.501905
 21
8.67648
  0
LINE
  8
0
 10
0.501905
 20
8.67648
 11
0.875
 21
8.51554
  0
LINE
  8
0
 10
0.875
 20
8.51554
 11
1.20092
 21
8.2729
  0
LINE
  8
0
 10
1.20092
 20
8.2729
 11
1.4621
 21
7.96164
  0
LINE
  8
0
 10
1.4621
 20
7.96164
 11
1.64446
 21
7.59853
  0
LINE
  8
0
 10
1.64446
 20
7.59853
 11
1.73817
 21
7.20316
  0
LINE
  8
0
 10
1.73817
 20
7.20316
 11
1.73817
 21
6.79684
  0
LINE
  8
0
 10
1.73817
 20
6.79684
 11
1.64446
 21
6.40146
  0
LINE
  8
0
 10
1.64446
 20
6.40146
 11
1.4621
 21
6.03836
  0
LINE
  8
0
 10
1.4621
 20
6.03836
 11
1.20092
 21
5.7271
  0
LINE
  8
0
 10
1.20092
 20
5.7271
 11
0.875
 21
5.48446
  0
LINE
  8
0
 10
0.875
 20
5.48446
 11
0.501905
 21
5.32352
  0
LINE
  8
0
 10
0.501905
 20
5.32352
 11
0.101753
 21
5.25296
  0
LINE
  8
0
 10
0.101753
 20
5.25296
 11
-0.303884
 21
5.27659
  0
LINE
  8
0
 10
-0.303884
 20
5.27659
 11
-0.693139
 21
5.39312
  0
LINE
  8
0
 10
-0.693139
 20
5.39312
 11
-1.04503
 21
5.59628
  0
LINE
  8
0
 10
-1.04503
 20
5.59628
 11
-1.34058
 21
5.87512
  0
LINE
  8
0
 10
-1.34058
 20
5.87512
 11
-1.56386
 21
6.2146
  0
LINE
  8
0
 10
-1.56386
 20
6.2146
 11
-1.70283
 21
6.59642
  0
LINE
  8
0
 10
-1.70283
 20
6.59642
 11
-1.75
 21
7
  0
LINE
  8
0
 10
5.25
 20
0
 11
5.29717
 21
0.403577
  0
LINE
  8
0
 10
5.29717
 20
0.403577
 11
5.43614
 21
0.785398
  0
LINE
  8
0
 10
5.43614
 20
0.785398
 11
5.65942
 21
1.12488
  0
LINE
  8
0
 10
5.65942
 20
1.12488
 11
5.95497
 21
1.40372
  0
LINE
  8
0
 10
5.95497
 20
1.40372
 11
6.30686
 21
1.60688
  0
LINE
  8
0
 10
6.30686
 20
1.60688
 11
6.69612
 21
1.72341
  0
LINE
  8
0
 10
6.69612
 20
1.72341
 11
7.10175
 21
1.74704
  0
LINE
  8
0
 10
7.10175
 20
1.74704
 11
7.50191
 21
1.67648
  0
LINE
  8
0
 10
7.50191
 20
1.67648
 11
7.875
 21
1.51554
  0
LINE
  8
0
 10
7.875
 20
1.51554
 11
8.20092
 21
1.2729
  0
LINE
  8
0
 10
8.20092
 20
1.2729
 11
8.4621
 21
0.96164
  0
LINE
  8
0
 10
8.4621
 20
0.96164
 11
8.64446
 21
0.598535
  0
LINE
  8
0
 10
8.64446
 20
0.598535
 11
8.73817
 21
0.203162
  0
LINE
  8
0
 10
8.73817
 20
0.203162
 11
8.73817
 21
-0.203162
  0
LINE
  8
0
 10
8.73817
 20
-0.203162
 11
8.64446
 21
-0.598535
  0
LINE
  8
0
 10
8.64446
 20
-0.598535
 11
8.4621
 21
-0.96164
  0
LINE
  8
0
 10
8.4621
 20
-0.96164
 11
8.20092
 21
-1.2729
  0
LINE
  8
0
 10
8.20092
 20
-1.2729
 11
7.875
 21
-1.51554
  0
LINE
  8
0
 10
7.875
 20
-1.51554
 11
7.50191
 21
-1.67648
  0
LINE
  8
0
 10
7.50191
 20
-1.67648
 11
7.10175
 21
-1.74704
  0
LINE
  8
0
 10
7.10175
 20
-1.74704
 11
6.69612
 21
-1.72341
  0
LINE
  8
0
 10
6.69612
 20
-1.72341
 11
6.30686
 21
-1.60688
  0
LINE
  8
0
 10
6.30686
 20
-1.60688
 11
5.95497
 21
-1.40372
  0
LINE
  8
0
 10
5.95497
 20
-1.40372
 11
5.65942
 21
-1.12488
  0
LINE
  8
0
 10
5.65942
 20
-1.12488
 11
5.43614
 21
-0.785398
  0
LINE
  8
0
 10
5.43614
 20
-0.785398
 11
5.29717
 21
-0.403577
  0
LINE
  8
0
 10
5.29717
 20
-0.403577
 11
5.25
 21
0
  0
LINE
  8
0
 10
18.4696
 20
-11.9062
 11
18.5166
 21
-11.4587
  0
LINE
  8
0
 10
18.5166
 20
-11.4587
 11
18.6557
 21
-11.0307
  0
LINE
  8
0
 10
18.6557
 20
-11.0307
 11
18.8807
 21
-10.641
  0
LINE
  8
0
 10
18.8807
 20
-10.641
 11
19.1818
 21
-10.3065
  0
LINE
  8
0
 10
19.1818
 20
-10.3065
 11
19.5459
 21
-10.042
  0
LINE
  8
0
 10
19.5459
 20
-10.042
 11
19.957
 21
-9.85896
  0
LINE
  8
0
 10
19.957
 20
-9.85896
 11
20.3972
 21
-9.76539
  0
LINE
  8
0
 10
20.3972
 20
-9.76539
 11
20.8472
 21
-9.76539
  0
LINE
  8
0
 10
20.8472
 20
-9.76539
 11
21.2874
 21
-9.85896
  0
LINE
  8
0
 10
21.2874
 20
-9.85896
 11
21.6986
 21
-10.042
  0
LINE
  8
0
 10
21.6986
 20
-10.042
 11
22.0626
 21
-10.3065
  0
LINE
  8
0
 10
22.0626
 20
-10.3065
 11
22.3638
 21
-10.641
  0
LINE
  8
0
 10
22.3638
 20
-10.641
 11
22.5888
 21
-11.0307
  0
LINE
  8
0
 10
22.5888
 20
-11.0307
 11
22.7278
 21
-11.4587
  0
LINE
  8
0
 10
22.7278
 20
-11.4587
 11
22.7749
 21
-11.9062
  0
LINE
  8
0
 10
22.7749
 20
-11.9062
 11
22.7278
 21
-12.3538
  0
LINE
  8
0
 10
22.7278
 20
-12.3538
 11
22.5888
 21
-12.7818
  0
LINE
  8
0
 10
22.5888
 20
-12.7818
 11
22.3638
 21
-13.1715
  0
LINE
  8
0
 10
22.3638
 20
-13.1715
 11
22.0626
 21
-13.506
  0
LINE
  8
0
 10
22.0626
 20
-13.506
 11
21.6986
 21
-13.7705
  0
LINE
  8
0
 10
21.6986
 20
-13.7705
 11
21.2874
 21
-13.9535
  0
LINE
  8
0
 10
21.2874
 20
-13.9535
 11
20.8472
 21
-14.0471
  0
LINE
  8
0
 10
20.8472
 20
-14.0471
 11
20.3972
 21
-14.0471
  0
LINE
  8
0
 10
20.3972
 20
-14.0471
 11
19.957
 21
-13.9535
  0
LINE
  8
0
 10
19.957
 20
-13.9535
 11
19.5459
 21
-13.7705
  0
LINE
  8
0
 10
19.5459
 20
-13.7705
 11
19.1818
 21
-13.506
  0
LINE
  8
0
 10
19.1818
 20
-13.506
 11
18.8807
 21
-13.1715
  0
LINE
  8
0
 10
18.8807
 20
-13.1715
 11
18.6557
 21
-12.7818
  0
LINE
  8
0
 10
18.6557
 20
-12.7818
 11
18.5166
 21
-12.3538
  0
LINE
  8
0
 10
18.5166
 20
-12.3538
 11
18.4696
 21
-11.9062
  0
LINE
  8
0
 10
18.4696
 20
11.9062
 11
18.5166
 21
12.3538
  0
LINE
  8
0
 10
18.5166
 20
12.3538
 11
18.6557
 21
12.7818
  0
LINE
  8
0
 10
18.6557
 20
12.7818
 11
18.8807
 21
13.1715
  0
LINE
  8
0
 10
18.8807
 20
13.1715
 11
19.1818
 21
13.506
  0
LINE
  8
0
 10
19.1818
 20
13.506
 11
19.5459
 21
13.7705
  0
LINE
  8
0
 10
19.5459
 20
13.7705
 11
19.957
 21
13.9535
  0
LINE
  8
0
 10
19.957
 20
13.9535
 11
20.3972
 21
14.0471
  0
LINE
  8
0
 10
20.3972
 20
14.0471
 11
20.8472
 21
14.0471
  0
LINE
  8
0
 10
20.8472
 20
14.0471
 11
21.2874
 21
13.9535
  0
LINE
  8
0
 10
21.2874
 20
13.9535
 11
21.6986
 21
13.7705
  0
LINE
  8
0
 10
21.6986
 20
13.7705
 11
22.0626
 21
13.506
  0
LINE
  8
0
 10
22.0626
 20
13.506
 11
22.3638
 21
13.1715
  0
LINE
  8
0
 10
22.3638
 20
13.1715
 11
22.5888
 21
12.7818
  0
LINE
  8
0
 10
22.5888
 20
12.7818
 11
22.7278
 21
12.3538
  0
LINE
  8
0
 10
22.7278
 20
12.3538
 11
22.7749
 21
11.9062
  0
LINE
  8
0
 10
22.7749
 20
11.9062
 11
22.7278
 21
11.4587
  0
LINE
  8
0
 10
22.7278
 20
11.4587
 11
22.5888
 21
11.0307
  0
LINE
  8
0
 10
22.5888
 20
11.0307
 11
22.3638
 21
10.641
  0
LINE
  8
0
 10
22.3638
 20
10.641
 11
22.0626
 21
10.3065
  0
LINE
  8
0
 10
22.0626
 20
10.3065
 11
21.6986
 21
10.042
  0
LINE
  8
0
 10
21.6986
 20
10.042
 11
21.2874
 21
9.85896
  0
LINE
  8
0
 10
21.2874
 20
9.85896
 11
20.8472
 21
9.76539
  0
LINE
  8
0
 10
20.8472
 20
9.76539
 11
20.3972
 21
9.76539
  0
LINE
  8
0
 10
20.3972
 20
9.76539
 11
19.957
 21
9.85896
  0
LINE
  8
0
 10
19.957
 20
9.85896
 11
19.5459
 21
10.042
  0
LINE
  8
0
 10
19.5459
 20
10.042
 11
19.1818
 21
10.3065
  0
LINE
  8
0
 10
19.1818
 20
10.3065
 11
18.8807
 21
10.641
  0
LINE
  8
0
 10
18.8807
 20
10.641
 11
18.6557
 21
11.0307
  0
LINE
  8
0
 10
18.6557
 20
11.0307
 11
18.5166
 21
11.4587
  0
LINE
  8
0
 10
18.5166
 20
11.4587
 11
18.4696
 21
11.9062
  0
ENDSEC
  0
SECTION
  2
OBJECTS
  0
DICTIONARY
  0
ENDSEC
  0
EOF
