  0
SECTION
  2
BLOCKS
  0
ENDSEC
  0
SECTION
  2
ENTITIES
  0
LINE
  8
0
 10
-26.6887
 20
8.04431
 11
-26.6886
 21
8.02445
  0
LINE
  8
0
 10
-26.6886
 20
8.02445
 11
-26.6883
 21
7.84393
  0
LINE
  8
0
 10
-26.6883
 20
7.84393
 11
-26.6842
 21
7.82447
  0
LINE
  8
0
 10
-26.6842
 20
7.82447
 11
-26.6477
 21
7.64726
  0
LINE
  8
0
 10
-26.6477
 20
7.64726
 11
-26.6399
 21
7.62906
  0
LINE
  8
0
 10
-26.6399
 20
7.62906
 11
-26.569
 21
7.46299
  0
LINE
  8
0
 10
-26.569
 20
7.46299
 11
-26.5578
 21
7.44674
  0
LINE
  8
0
 10
-26.5578
 20
7.44674
 11
-26.4549
 21
7.2981
  0
LINE
  8
0
 10
-26.4549
 20
7.2981
 11
-26.4407
 21
7.28445
  0
LINE
  8
0
 10
-26.4407
 20
7.28445
 11
-26.3104
 21
7.15912
  0
LINE
  8
0
 10
-26.3104
 20
7.15912
 11
-26.2938
 21
7.14863
  0
LINE
  8
0
 10
-26.2938
 20
7.14863
 11
-26.1409
 21
7.05191
  0
LINE
  8
0
 10
-26.1409
 20
7.05191
 11
-26.1225
 21
7.04491
  0
LINE
  8
0
 10
-26.1225
 20
7.04491
 11
-25.9522
 21
6.98016
  0
LINE
  8
0
 10
-25.9522
 20
6.98016
 11
-25.3484
 21
6.81838
  0
LINE
  8
0
 10
-25.3484
 20
6.81838
 11
-19.7725
 21
5.32433
  0
LINE
  8
0
 10
-19.7725
 20
5.32433
 11
-19.5382
 21
5.22836
  0
LINE
  8
0
 10
-19.5382
 20
5.22836
 11
-19.3355
 21
5.07663
  0
LINE
  8
0
 10
-19.3355
 20
5.07663
 11
-19.1774
 21
4.87885
  0
LINE
  8
0
 10
-19.1774
 20
4.87885
 11
-19.0741
 21
4.64771
  0
LINE
  8
0
 10
-19.0741
 20
4.64771
 11
-19.0321
 21
4.39802
  0
LINE
  8
0
 10
-19.0321
 20
4.39802
 11
-19.0542
 21
4.14579
  0
LINE
  8
0
 10
-19.0542
 20
4.14579
 11
-19.302
 21
2.77167
  0
LINE
  8
0
 10
-19.302
 20
2.77167
 11
-19.4509
 21
1.38333
  0
LINE
  8
0
 10
-19.4509
 20
1.38333
 11
-19.5
 21
-0.0120935
  0
LINE
  8
0
 10
-19.5
 20
-0.0120935
 11
-19.4491
 21
-1.40746
  0
LINE
  8
0
 10
-19.4491
 20
-1.40746
 11
-19.2986
 21
-2.79561
  0
LINE
  8
0
 10
-19.2986
 20
-2.79561
 11
-19.049
 21
-4.16943
  0
LINE
  8
0
 10
-19.049
 20
-4.16943
 11
-19.0267
 21
-4.42183
  0
LINE
  8
0
 10
-19.0267
 20
-4.42183
 11
-19.0684
 21
-4.67176
  0
LINE
  8
0
 10
-19.0684
 20
-4.67176
 11
-19.1717
 21
-4.90316
  0
LINE
  8
0
 10
-19.1717
 20
-4.90316
 11
-19.3298
 21
-5.10118
  0
LINE
  8
0
 10
-19.3298
 20
-5.10118
 11
-19.5326
 21
-5.2531
  0
LINE
  8
0
 10
-19.5326
 20
-5.2531
 11
-19.7671
 21
-5.34917
  0
LINE
  8
0
 10
-19.7671
 20
-5.34917
 11
-25.3411
 21
-6.84271
  0
LINE
  8
0
 10
-25.3411
 20
-6.84271
 11
-25.9447
 21
-7.00444
  0
LINE
  8
0
 10
-25.9447
 20
-7.00444
 11
-26.1146
 21
-7.0689
  0
LINE
  8
0
 10
-26.1146
 20
-7.0689
 11
-26.1329
 21
-7.07586
  0
LINE
  8
0
 10
-26.1329
 20
-7.07586
 11
-26.2858
 21
-7.17255
  0
LINE
  8
0
 10
-26.2858
 20
-7.17255
 11
-26.3024
 21
-7.18304
  0
LINE
  8
0
 10
-26.3024
 20
-7.18304
 11
-26.4331
 21
-7.30858
  0
LINE
  8
0
 10
-26.4331
 20
-7.30858
 11
-26.4473
 21
-7.32225
  0
LINE
  8
0
 10
-26.4473
 20
-7.32225
 11
-26.4585
 21
-7.33845
  0
LINE
  8
0
 10
-26.4585
 20
-7.33845
 11
-26.5614
 21
-7.4871
  0
LINE
  8
0
 10
-26.5614
 20
-7.4871
 11
-26.5692
 21
-7.50529
  0
LINE
  8
0
 10
-26.5692
 20
-7.50529
 11
-26.6401
 21
-7.67165
  0
LINE
  8
0
 10
-26.6401
 20
-7.67165
 11
-26.6442
 21
-7.69106
  0
LINE
  8
0
 10
-26.6442
 20
-7.69106
 11
-26.6807
 21
-7.8681
  0
LINE
  8
0
 10
-26.6807
 20
-7.8681
 11
-26.6808
 21
-7.88796
  0
LINE
  8
0
 10
-26.6808
 20
-7.88796
 11
-26.6811
 21
-8.06874
  0
LINE
  8
0
 10
-26.6811
 20
-8.06874
 11
-26.6771
 21
-8.08837
  0
LINE
  8
0
 10
-26.6771
 20
-8.08837
 11
-26.6411
 21
-8.26676
  0
LINE
  8
0
 10
-26.6411
 20
-8.26676
 11
-26.5873
 21
-8.42321
  0
LINE
  8
0
 10
-26.5873
 20
-8.42321
 11
-26.0999
 21
-9.84269
  0
LINE
  8
0
 10
-26.0999
 20
-9.84269
 11
-26.037
 21
-9.99565
  0
LINE
  8
0
 10
-26.037
 20
-9.99565
 11
-25.4657
 21
-11.3835
  0
LINE
  8
0
 10
-25.4657
 20
-11.3835
 11
-25.3937
 21
-11.5324
  0
LINE
  8
0
 10
-25.3937
 20
-11.5324
 11
-24.7406
 21
-12.8837
  0
LINE
  8
0
 10
-24.7406
 20
-12.8837
 11
-24.6598
 21
-13.028
  0
LINE
  8
0
 10
-24.6598
 20
-13.028
 11
-23.9272
 21
-14.3379
  0
LINE
  8
0
 10
-23.9272
 20
-14.3379
 11
-23.838
 21
-14.4772
  0
LINE
  8
0
 10
-23.838
 20
-14.4772
 11
-23.0284
 21
-15.7409
  0
LINE
  8
0
 10
-23.0284
 20
-15.7409
 11
-22.931
 21
-15.8747
  0
LINE
  8
0
 10
-22.931
 20
-15.8747
 11
-22.0475
 21
-17.0878
  0
LINE
  8
0
 10
-22.0475
 20
-17.0878
 11
-21.9423
 21
-17.2155
  0
LINE
  8
0
 10
-21.9423
 20
-17.2155
 11
-20.9879
 21
-18.3738
  0
LINE
  8
0
 10
-20.9879
 20
-18.3738
 11
-20.8752
 21
-18.4949
  0
LINE
  8
0
 10
-20.8752
 20
-18.4949
 11
-19.8534
 21
-19.5941
  0
LINE
  8
0
 10
-19.8534
 20
-19.5941
 11
-19.7337
 21
-19.7083
  0
LINE
  8
0
 10
-19.7337
 20
-19.7083
 11
-18.648
 21
-20.7445
  0
LINE
  8
0
 10
-18.648
 20
-20.7445
 11
-18.5218
 21
-20.8514
  0
LINE
  8
0
 10
-18.5218
 20
-20.8514
 11
-17.3762
 21
-21.821
  0
LINE
  8
0
 10
-17.3762
 20
-21.821
 11
-17.2437
 21
-21.9201
  0
LINE
  8
0
 10
-17.2437
 20
-21.9201
 11
-16.0423
 21
-22.8195
  0
LINE
  8
0
 10
-16.0423
 20
-22.8195
 11
-15.9042
 21
-22.9106
  0
LINE
  8
0
 10
-15.9042
 20
-22.9106
 11
-14.6512
 21
-23.7367
  0
LINE
  8
0
 10
-14.6512
 20
-23.7367
 11
-14.5079
 21
-23.8193
  0
LINE
  8
0
 10
-14.5079
 20
-23.8193
 11
-13.2078
 21
-24.5691
  0
LINE
  8
0
 10
-13.2078
 20
-24.5691
 11
-11.8652
 21
-25.2399
  0
LINE
  8
0
 10
-11.8652
 20
-25.2399
 11
-11.7172
 21
-25.3139
  0
LINE
  8
0
 10
-11.7172
 20
-25.3139
 11
-10.337
 21
-25.9033
  0
LINE
  8
0
 10
-10.337
 20
-25.9033
 11
-10.1849
 21
-25.9683
  0
LINE
  8
0
 10
-10.1849
 20
-25.9683
 11
-8.77195
 21
-26.4743
  0
LINE
  8
0
 10
-8.77195
 20
-26.4743
 11
-8.61622
 21
-26.5301
  0
LINE
  8
0
 10
-8.61622
 20
-26.5301
 11
-7.17558
 21
-26.9508
  0
LINE
  8
0
 10
-7.17558
 20
-26.9508
 11
-7.0168
 21
-26.9972
  0
LINE
  8
0
 10
-7.0168
 20
-26.9972
 11
-5.5536
 21
-27.3312
  0
LINE
  8
0
 10
-5.5536
 20
-27.3312
 11
-5.39234
 21
-27.368
  0
LINE
  8
0
 10
-5.39234
 20
-27.368
 11
-3.91181
 21
-27.614
  0
LINE
  8
0
 10
-3.91181
 20
-27.614
 11
-3.74864
 21
-27.6411
  0
LINE
  8
0
 10
-3.74864
 20
-27.6411
 11
-2.25607
 21
-27.7983
  0
LINE
  8
0
 10
-2.25607
 20
-27.7983
 11
-2.09157
 21
-27.8157
  0
LINE
  8
0
 10
-2.09157
 20
-27.8157
 11
-0.59227
 21
-27.8834
  0
LINE
  8
0
 10
-0.59227
 20
-27.8834
 11
-0.427027
 21
-27.8909
  0
LINE
  8
0
 10
-0.427027
 20
-27.8909
 11
1.07364
 21
-27.8691
  0
LINE
  8
0
 10
1.07364
 20
-27.8691
 11
1.23903
 21
-27.8666
  0
LINE
  8
0
 10
1.23903
 20
-27.8666
 11
2.73572
 21
-27.7552
  0
LINE
  8
0
 10
2.73572
 20
-27.7552
 11
2.90067
 21
-27.743
  0
LINE
  8
0
 10
2.90067
 20
-27.743
 11
4.38804
 21
-27.5424
  0
LINE
  8
0
 10
4.38804
 20
-27.5424
 11
4.55196
 21
-27.5203
  0
LINE
  8
0
 10
4.55196
 20
-27.5203
 11
6.0247
 21
-27.2312
  0
LINE
  8
0
 10
6.0247
 20
-27.2312
 11
6.18701
 21
-27.1994
  0
LINE
  8
0
 10
6.18701
 20
-27.1994
 11
6.35887
 21
-27.1416
  0
LINE
  8
0
 10
6.35887
 20
-27.1416
 11
6.37777
 21
-27.1352
  0
LINE
  8
0
 10
6.37777
 20
-27.1352
 11
6.39494
 21
-27.1253
  0
LINE
  8
0
 10
6.39494
 20
-27.1253
 11
6.55108
 21
-27.0347
  0
LINE
  8
0
 10
6.55108
 20
-27.0347
 11
6.56593
 21
-27.0215
  0
LINE
  8
0
 10
6.56593
 20
-27.0215
 11
6.70112
 21
-26.9012
  0
LINE
  8
0
 10
6.70112
 20
-26.9012
 11
6.71299
 21
-26.8854
  0
LINE
  8
0
 10
6.71299
 20
-26.8854
 11
6.82137
 21
-26.7409
  0
LINE
  8
0
 10
6.82137
 20
-26.7409
 11
6.82982
 21
-26.7231
  0
LINE
  8
0
 10
6.82982
 20
-26.7231
 11
6.90711
 21
-26.5597
  0
LINE
  8
0
 10
6.90711
 20
-26.5597
 11
6.91183
 21
-26.5405
  0
LINE
  8
0
 10
6.91183
 20
-26.5405
 11
6.95521
 21
-26.365
  0
LINE
  8
0
 10
6.95521
 20
-26.365
 11
6.95601
 21
-26.3454
  0
LINE
  8
0
 10
6.95601
 20
-26.3454
 11
6.96333
 21
-26.1646
  0
LINE
  8
0
 10
6.96333
 20
-26.1646
 11
6.96018
 21
-26.1452
  0
LINE
  8
0
 10
6.96018
 20
-26.1452
 11
6.93109
 21
-25.9653
  0
LINE
  8
0
 10
6.93109
 20
-25.9653
 11
6.76931
 21
-25.3615
  0
LINE
  8
0
 10
6.76931
 20
-25.3615
 11
5.27526
 21
-19.7857
  0
LINE
  8
0
 10
5.27526
 20
-19.7857
 11
5.24121
 21
-19.5348
  0
LINE
  8
0
 10
5.24121
 20
-19.5348
 11
5.27127
 21
-19.2834
  0
LINE
  8
0
 10
5.27127
 20
-19.2834
 11
5.36351
 21
-19.0476
  0
LINE
  8
0
 10
5.36351
 20
-19.0476
 11
5.51201
 21
-18.8425
  0
LINE
  8
0
 10
5.51201
 20
-18.8425
 11
5.70726
 21
-18.6813
  0
LINE
  8
0
 10
5.70726
 20
-18.6813
 11
5.93673
 21
-18.5743
  0
LINE
  8
0
 10
5.93673
 20
-18.5743
 11
7.25067
 21
-18.1019
  0
LINE
  8
0
 10
7.25067
 20
-18.1019
 11
8.52743
 21
-17.5366
  0
LINE
  8
0
 10
8.52743
 20
-17.5366
 11
9.76047
 21
-16.8814
  0
LINE
  8
0
 10
9.76047
 20
-16.8814
 11
10.9435
 21
-16.1397
  0
LINE
  8
0
 10
10.9435
 20
-16.1397
 11
12.0704
 21
-15.3152
  0
LINE
  8
0
 10
12.0704
 20
-15.3152
 11
13.1353
 21
-14.4122
  0
LINE
  8
0
 10
13.1353
 20
-14.4122
 11
13.3427
 21
-14.2667
  0
LINE
  8
0
 10
13.3427
 20
-14.2667
 11
13.5801
 21
-14.1779
  0
LINE
  8
0
 10
13.5801
 20
-14.1779
 11
13.8321
 21
-14.1516
  0
LINE
  8
0
 10
13.8321
 20
-14.1516
 11
14.0827
 21
-14.1895
  0
LINE
  8
0
 10
14.0827
 20
-14.1895
 11
14.3156
 21
-14.2892
  0
LINE
  8
0
 10
14.3156
 20
-14.2892
 11
14.5161
 21
-14.4442
  0
LINE
  8
0
 10
14.5161
 20
-14.4442
 11
19.0383
 21
-18.9665
  0
LINE
  8
0
 10
19.0383
 20
-18.9665
 11
19.1791
 21
-19.0815
  0
LINE
  8
0
 10
19.1791
 20
-19.0815
 11
19.1944
 21
-19.0939
  0
LINE
  8
0
 10
19.1944
 20
-19.0939
 11
19.3545
 21
-19.1779
  0
LINE
  8
0
 10
19.3545
 20
-19.1779
 11
19.3719
 21
-19.187
  0
LINE
  8
0
 10
19.3719
 20
-19.187
 11
19.546
 21
-19.2374
  0
LINE
  8
0
 10
19.546
 20
-19.2374
 11
19.5649
 21
-19.2429
  0
LINE
  8
0
 10
19.5649
 20
-19.2429
 11
19.5845
 21
-19.2445
  0
LINE
  8
0
 10
19.5845
 20
-19.2445
 11
19.7647
 21
-19.2593
  0
LINE
  8
0
 10
19.7647
 20
-19.2593
 11
19.7844
 21
-19.2569
  0
LINE
  8
0
 10
19.7844
 20
-19.2569
 11
19.9639
 21
-19.2352
  0
LINE
  8
0
 10
19.9639
 20
-19.2352
 11
19.9827
 21
-19.229
  0
LINE
  8
0
 10
19.9827
 20
-19.229
 11
20.1543
 21
-19.1721
  0
LINE
  8
0
 10
20.1543
 20
-19.1721
 11
20.1716
 21
-19.1622
  0
LINE
  8
0
 10
20.1716
 20
-19.1622
 11
20.3283
 21
-19.0721
  0
LINE
  8
0
 10
20.3283
 20
-19.0721
 11
20.3433
 21
-19.0589
  0
LINE
  8
0
 10
20.3433
 20
-19.0589
 11
20.4798
 21
-18.9385
  0
LINE
  8
0
 10
20.4798
 20
-18.9385
 11
20.5884
 21
-18.8137
  0
LINE
  8
0
 10
20.5884
 20
-18.8137
 11
21.574
 21
-17.6819
  0
LINE
  8
0
 10
21.574
 20
-17.6819
 11
21.675
 21
-17.5509
  0
LINE
  8
0
 10
21.675
 20
-17.5509
 11
22.5912
 21
-16.3622
  0
LINE
  8
0
 10
22.5912
 20
-16.3622
 11
22.6842
 21
-16.2254
  0
LINE
  8
0
 10
22.6842
 20
-16.2254
 11
23.5279
 21
-14.9841
  0
LINE
  8
0
 10
23.5279
 20
-14.9841
 11
23.6125
 21
-14.842
  0
LINE
  8
0
 10
23.6125
 20
-14.842
 11
24.3806
 21
-13.5526
  0
LINE
  8
0
 10
24.3806
 20
-13.5526
 11
24.4566
 21
-13.4057
  0
LINE
  8
0
 10
24.4566
 20
-13.4057
 11
25.1463
 21
-12.0727
  0
LINE
  8
0
 10
25.1463
 20
-12.0727
 11
25.2134
 21
-11.9215
  0
LINE
  8
0
 10
25.2134
 20
-11.9215
 11
25.8222
 21
-10.5498
  0
LINE
  8
0
 10
25.8222
 20
-10.5498
 11
25.8802
 21
-10.3948
  0
LINE
  8
0
 10
25.8802
 20
-10.3948
 11
26.4061
 21
-8.98915
  0
LINE
  8
0
 10
26.4061
 20
-8.98915
 11
26.4547
 21
-8.83104
  0
LINE
  8
0
 10
26.4547
 20
-8.83104
 11
26.8957
 21
-7.39647
  0
LINE
  8
0
 10
26.8957
 20
-7.39647
 11
26.9348
 21
-7.23574
  0
LINE
  8
0
 10
26.9348
 20
-7.23574
 11
27.2893
 21
-5.77739
  0
LINE
  8
0
 10
27.2893
 20
-5.77739
 11
27.3187
 21
-5.61462
  0
LINE
  8
0
 10
27.3187
 20
-5.61462
 11
27.5856
 21
-4.13771
  0
LINE
  8
0
 10
27.5856
 20
-4.13771
 11
27.6052
 21
-3.97347
  0
LINE
  8
0
 10
27.6052
 20
-3.97347
 11
27.7834
 21
-2.48325
  0
LINE
  8
0
 10
27.7834
 20
-2.48325
 11
27.7932
 21
-2.31813
  0
LINE
  8
0
 10
27.7932
 20
-2.31813
 11
27.8821
 21
-0.819943
  0
LINE
  8
0
 10
27.8821
 20
-0.819943
 11
27.882
 21
-0.654531
  0
LINE
  8
0
 10
27.882
 20
-0.654531
 11
27.8813
 21
0.846294
  0
LINE
  8
0
 10
27.8813
 20
0.846294
 11
27.791
 21
2.3444
  0
LINE
  8
0
 10
27.791
 20
2.3444
 11
27.7811
 21
2.50951
  0
LINE
  8
0
 10
27.7811
 20
2.50951
 11
27.6015
 21
3.99956
  0
LINE
  8
0
 10
27.6015
 20
3.99956
 11
27.5817
 21
4.16378
  0
LINE
  8
0
 10
27.5817
 20
4.16378
 11
27.3134
 21
5.64044
  0
LINE
  8
0
 10
27.3134
 20
5.64044
 11
27.2838
 21
5.80318
  0
LINE
  8
0
 10
27.2838
 20
5.80318
 11
26.9279
 21
7.26119
  0
LINE
  8
0
 10
26.9279
 20
7.26119
 11
26.8887
 21
7.42188
  0
LINE
  8
0
 10
26.8887
 20
7.42188
 11
26.4463
 21
8.85604
  0
LINE
  8
0
 10
26.4463
 20
8.85604
 11
26.3976
 21
9.0141
  0
LINE
  8
0
 10
26.3976
 20
9.0141
 11
25.8704
 21
10.4193
  0
LINE
  8
0
 10
25.8704
 20
10.4193
 11
25.8123
 21
10.5742
  0
LINE
  8
0
 10
25.8123
 20
10.5742
 11
25.2021
 21
11.9454
  0
LINE
  8
0
 10
25.2021
 20
11.9454
 11
25.1348
 21
12.0965
  0
LINE
  8
0
 10
25.1348
 20
12.0965
 11
24.4439
 21
13.4288
  0
LINE
  8
0
 10
24.4439
 20
13.4288
 11
24.3678
 21
13.5756
  0
LINE
  8
0
 10
24.3678
 20
13.5756
 11
23.5985
 21
14.8643
  0
LINE
  8
0
 10
23.5985
 20
14.8643
 11
23.5137
 21
15.0064
  0
LINE
  8
0
 10
23.5137
 20
15.0064
 11
22.6689
 21
16.2468
  0
LINE
  8
0
 10
22.6689
 20
16.2468
 11
22.5758
 21
16.3835
  0
LINE
  8
0
 10
22.5758
 20
16.3835
 11
21.6584
 21
17.5713
  0
LINE
  8
0
 10
21.6584
 20
17.5713
 11
21.5573
 21
17.7022
  0
LINE
  8
0
 10
21.5573
 20
17.7022
 11
20.5706
 21
18.8332
  0
LINE
  8
0
 10
20.5706
 20
18.8332
 11
20.4618
 21
18.9578
  0
LINE
  8
0
 10
20.4618
 20
18.9578
 11
20.3259
 21
19.0777
  0
LINE
  8
0
 10
20.3259
 20
19.0777
 11
20.3109
 21
19.0909
  0
LINE
  8
0
 10
20.3109
 20
19.0909
 11
20.2937
 21
19.1008
  0
LINE
  8
0
 10
20.2937
 20
19.1008
 11
20.1372
 21
19.1907
  0
LINE
  8
0
 10
20.1372
 20
19.1907
 11
20.1183
 21
19.197
  0
LINE
  8
0
 10
20.1183
 20
19.197
 11
19.9466
 21
19.2539
  0
LINE
  8
0
 10
19.9466
 20
19.2539
 11
19.9269
 21
19.2563
  0
LINE
  8
0
 10
19.9269
 20
19.2563
 11
19.7476
 21
19.2779
  0
LINE
  8
0
 10
19.7476
 20
19.2779
 11
19.728
 21
19.2763
  0
LINE
  8
0
 10
19.728
 20
19.2763
 11
19.5478
 21
19.2616
  0
LINE
  8
0
 10
19.5478
 20
19.2616
 11
19.5289
 21
19.2561
  0
LINE
  8
0
 10
19.5289
 20
19.2561
 11
19.3552
 21
19.2059
  0
LINE
  8
0
 10
19.3552
 20
19.2059
 11
19.3378
 21
19.1968
  0
LINE
  8
0
 10
19.3378
 20
19.1968
 11
19.1776
 21
19.1127
  0
LINE
  8
0
 10
19.1776
 20
19.1127
 11
19.1623
 21
19.1003
  0
LINE
  8
0
 10
19.1623
 20
19.1003
 11
19.0211
 21
18.9852
  0
LINE
  8
0
 10
19.0211
 20
18.9852
 11
14.4973
 21
14.4613
  0
LINE
  8
0
 10
14.4973
 20
14.4613
 11
14.297
 21
14.3064
  0
LINE
  8
0
 10
14.297
 20
14.3064
 11
14.0643
 21
14.2067
  0
LINE
  8
0
 10
14.0643
 20
14.2067
 11
13.8139
 21
14.1687
  0
LINE
  8
0
 10
13.8139
 20
14.1687
 11
13.5621
 21
14.1948
  0
LINE
  8
0
 10
13.5621
 20
14.1948
 11
13.3249
 21
14.2833
  0
LINE
  8
0
 10
13.3249
 20
14.2833
 11
13.1175
 21
14.4285
  0
LINE
  8
0
 10
13.1175
 20
14.4285
 11
12.0513
 21
15.3302
  0
LINE
  8
0
 10
12.0513
 20
15.3302
 11
10.9234
 21
16.1533
  0
LINE
  8
0
 10
10.9234
 20
16.1533
 11
9.73952
 21
16.8935
  0
LINE
  8
0
 10
9.73952
 20
16.8935
 11
8.50567
 21
17.5472
  0
LINE
  8
0
 10
8.50567
 20
17.5472
 11
7.22821
 21
18.1109
  0
LINE
  8
0
 10
7.22821
 20
18.1109
 11
5.91369
 21
18.5817
  0
LINE
  8
0
 10
5.91369
 20
18.5817
 11
5.68391
 21
18.6885
  0
LINE
  8
0
 10
5.68391
 20
18.6885
 11
5.48835
 21
18.8496
  0
LINE
  8
0
 10
5.48835
 20
18.8496
 11
5.33958
 21
19.0548
  0
LINE
  8
0
 10
5.33958
 20
19.0548
 11
5.24715
 21
19.2907
  0
LINE
  8
0
 10
5.24715
 20
19.2907
 11
5.21699
 21
19.5423
  0
LINE
  8
0
 10
5.21699
 20
19.5423
 11
5.25103
 21
19.7934
  0
LINE
  8
0
 10
5.25103
 20
19.7934
 11
6.74458
 21
25.3674
  0
LINE
  8
0
 10
6.74458
 20
25.3674
 11
6.9063
 21
25.9709
  0
LINE
  8
0
 10
6.9063
 20
25.9709
 11
6.93545
 21
26.1504
  0
LINE
  8
0
 10
6.93545
 20
26.1504
 11
6.9386
 21
26.1697
  0
LINE
  8
0
 10
6.9386
 20
26.1697
 11
6.9313
 21
26.3505
  0
LINE
  8
0
 10
6.9313
 20
26.3505
 11
6.93051
 21
26.3701
  0
LINE
  8
0
 10
6.93051
 20
26.3701
 11
6.88713
 21
26.546
  0
LINE
  8
0
 10
6.88713
 20
26.546
 11
6.8824
 21
26.5652
  0
LINE
  8
0
 10
6.8824
 20
26.5652
 11
6.87398
 21
26.583
  0
LINE
  8
0
 10
6.87398
 20
26.583
 11
6.79668
 21
26.7464
  0
LINE
  8
0
 10
6.79668
 20
26.7464
 11
6.7848
 21
26.7622
  0
LINE
  8
0
 10
6.7848
 20
26.7622
 11
6.67623
 21
26.9069
  0
LINE
  8
0
 10
6.67623
 20
26.9069
 11
6.66142
 21
26.92
  0
LINE
  8
0
 10
6.66142
 20
26.92
 11
6.52639
 21
27.0402
  0
LINE
  8
0
 10
6.52639
 20
27.0402
 11
6.5092
 21
27.0502
  0
LINE
  8
0
 10
6.5092
 20
27.0502
 11
6.35279
 21
27.1408
  0
LINE
  8
0
 10
6.35279
 20
27.1408
 11
6.33382
 21
27.1472
  0
LINE
  8
0
 10
6.33382
 20
27.1472
 11
6.1613
 21
27.2052
  0
LINE
  8
0
 10
6.1613
 20
27.2052
 11
5.99896
 21
27.2369
  0
LINE
  8
0
 10
5.99896
 20
27.2369
 11
4.52595
 21
27.5246
  0
LINE
  8
0
 10
4.52595
 20
27.5246
 11
4.36201
 21
27.5465
  0
LINE
  8
0
 10
4.36201
 20
27.5465
 11
2.87445
 21
27.7457
  0
LINE
  8
0
 10
2.87445
 20
27.7457
 11
2.70949
 21
27.7578
  0
LINE
  8
0
 10
2.70949
 20
27.7578
 11
1.2127
 21
27.8678
  0
LINE
  8
0
 10
1.2127
 20
27.8678
 11
1.0473
 21
27.8701
  0
LINE
  8
0
 10
1.0473
 20
27.8701
 11
-0.453388
 21
27.8905
  0
LINE
  8
0
 10
-0.453388
 20
27.8905
 11
-0.618623
 21
27.8829
  0
LINE
  8
0
 10
-0.618623
 20
27.8829
 11
-2.11785
 21
27.8137
  0
LINE
  8
0
 10
-2.11785
 20
27.8137
 11
-2.28234
 21
27.7962
  0
LINE
  8
0
 10
-2.28234
 20
27.7962
 11
-3.77476
 21
27.6376
  0
LINE
  8
0
 10
-3.77476
 20
27.6376
 11
-3.93791
 21
27.6103
  0
LINE
  8
0
 10
-3.93791
 20
27.6103
 11
-5.4182
 21
27.3629
  0
LINE
  8
0
 10
-5.4182
 20
27.3629
 11
-5.57943
 21
27.3259
  0
LINE
  8
0
 10
-5.57943
 20
27.3259
 11
-7.04231
 21
26.9906
  0
LINE
  8
0
 10
-7.04231
 20
26.9906
 11
-7.20105
 21
26.9441
  0
LINE
  8
0
 10
-7.20105
 20
26.9441
 11
-8.64129
 21
26.5219
  0
LINE
  8
0
 10
-8.64129
 20
26.5219
 11
-8.79696
 21
26.466
  0
LINE
  8
0
 10
-8.79696
 20
26.466
 11
-10.2094
 21
25.9587
  0
LINE
  8
0
 10
-10.2094
 20
25.9587
 11
-10.3615
 21
25.8936
  0
LINE
  8
0
 10
-10.3615
 20
25.8936
 11
-11.7412
 21
25.3028
  0
LINE
  8
0
 10
-11.7412
 20
25.3028
 11
-11.889
 21
25.2287
  0
LINE
  8
0
 10
-11.889
 20
25.2287
 11
-13.231
 21
24.5566
  0
LINE
  8
0
 10
-13.231
 20
24.5566
 11
-13.3742
 21
24.4738
  0
LINE
  8
0
 10
-13.3742
 20
24.4738
 11
-14.6736
 21
23.7228
  0
LINE
  8
0
 10
-14.6736
 20
23.7228
 11
-15.9258
 21
22.8955
  0
LINE
  8
0
 10
-15.9258
 20
22.8955
 11
-16.0638
 21
22.8044
  0
LINE
  8
0
 10
-16.0638
 20
22.8044
 11
-17.2644
 21
21.9038
  0
LINE
  8
0
 10
-17.2644
 20
21.9038
 11
-17.3968
 21
21.8045
  0
LINE
  8
0
 10
-17.3968
 20
21.8045
 11
-18.5415
 21
20.8339
  0
LINE
  8
0
 10
-18.5415
 20
20.8339
 11
-18.6676
 21
20.7269
  0
LINE
  8
0
 10
-18.6676
 20
20.7269
 11
-19.7523
 21
19.6897
  0
LINE
  8
0
 10
-19.7523
 20
19.6897
 11
-19.8719
 21
19.5753
  0
LINE
  8
0
 10
-19.8719
 20
19.5753
 11
-20.8927
 21
18.4752
  0
LINE
  8
0
 10
-20.8927
 20
18.4752
 11
-21.0052
 21
18.3539
  0
LINE
  8
0
 10
-21.0052
 20
18.3539
 11
-21.9585
 21
17.1947
  0
LINE
  8
0
 10
-21.9585
 20
17.1947
 11
-22.0636
 21
17.067
  0
LINE
  8
0
 10
-22.0636
 20
17.067
 11
-22.946
 21
15.853
  0
LINE
  8
0
 10
-22.946
 20
15.853
 11
-23.0433
 21
15.7192
  0
LINE
  8
0
 10
-23.0433
 20
15.7192
 11
-23.8516
 21
14.4546
  0
LINE
  8
0
 10
-23.8516
 20
14.4546
 11
-23.9407
 21
14.3153
  0
LINE
  8
0
 10
-23.9407
 20
14.3153
 11
-24.6721
 21
13.0047
  0
LINE
  8
0
 10
-24.6721
 20
13.0047
 11
-24.7527
 21
12.8603
  0
LINE
  8
0
 10
-24.7527
 20
12.8603
 11
-25.4046
 21
11.5084
  0
LINE
  8
0
 10
-25.4046
 20
11.5084
 11
-25.4764
 21
11.3594
  0
LINE
  8
0
 10
-25.4764
 20
11.3594
 11
-26.0464
 21
9.97104
  0
LINE
  8
0
 10
-26.0464
 20
9.97104
 11
-26.1092
 21
9.81801
  0
LINE
  8
0
 10
-26.1092
 20
9.81801
 11
-26.5953
 21
8.39808
  0
LINE
  8
0
 10
-26.5953
 20
8.39808
 11
-26.6489
 21
8.24158
  0
LINE
  8
0
 10
-26.6489
 20
8.24158
 11
-26.6847
 21
8.06386
  0
LINE
  8
0
 10
-26.6847
 20
8.06386
 11
-26.6887
 21
8.04431
  0
LINE
  8
0
 10
-22.7749
 20
-11.9062
 11
-22.7278
 21
-11.4587
  0
LINE
  8
0
 10
-22.7278
 20
-11.4587
 11
-22.5888
 21
-11.0307
  0
LINE
  8
0
 10
-22.5888
 20
-11.0307
 11
-22.3638
 21
-10.641
  0
LINE
  8
0
 10
-22.3638
 20
-10.641
 11
-22.0626
 21
-10.3065
  0
LINE
  8
0
 10
-22.0626
 20
-10.3065
 11
-21.6986
 21
-10.042
  0
LINE
  8
0
 10
-21.6986
 20
-10.042
 11
-21.2874
 21
-9.85896
  0
LINE
  8
0
 10
-21.2874
 20
-9.85896
 11
-20.8472
 21
-9.76539
  0
LINE
  8
0
 10
-20.8472
 20
-9.76539
 11
-20.3972
 21
-9.76539
  0
LINE
  8
0
 10
-20.3972
 20
-9.76539
 11
-19.957
 21
-9.85896
  0
LINE
  8
0
 10
-19.957
 20
-9.85896
 11
-19.5459
 21
-10.042
  0
LINE
  8
0
 10
-19.5459
 20
-10.042
 11
-19.1818
 21
-10.3065
  0
LINE
  8
0
 10
-19.1818
 20
-10.3065
 11
-18.8807
 21
-10.641
  0
LINE
  8
0
 10
-18.8807
 20
-10.641
 11
-18.6557
 21
-11.0307
  0
LINE
  8
0
 10
-18.6557
 20
-11.0307
 11
-18.5166
 21
-11.4587
  0
LINE
  8
0
 10
-18.5166
 20
-11.4587
 11
-18.4696
 21
-11.9062
  0
LINE
  8
0
 10
-18.4696
 20
-11.9062
 11
-18.5166
 21
-12.3538
  0
LINE
  8
0
 10
-18.5166
 20
-12.3538
 11
-18.6557
 21
-12.7818
  0
LINE
  8
0
 10
-18.6557
 20
-12.7818
 11
-18.8807
 21
-13.1715
  0
LINE
  8
0
 10
-18.8807
 20
-13.1715
 11
-19.1818
 21
-13.506
  0
LINE
  8
0
 10
-19.1818
 20
-13.506
 11
-19.5459
 21
-13.7705
  0
LINE
  8
0
 10
-19.5459
 20
-13.7705
 11
-19.957
 21
-13.9535
  0
LINE
  8
0
 10
-19.957
 20
-13.9535
 11
-20.3972
 21
-14.0471
  0
LINE
  8
0
 10
-20.3972
 20
-14.0471
 11
-20.8472
 21
-14.0471
  0
LINE
  8
0
 10
-20.8472
 20
-14.0471
 11
-21.2874
 21
-13.9535
  0
LINE
  8
0
 10
-21.2874
 20
-13.9535
 11
-21.6986
 21
-13.7705
  0
LINE
  8
0
 10
-21.6986
 20
-13.7705
 11
-22.0626
 21
-13.506
  0
LINE
  8
0
 10
-22.0626
 20
-13.506
 11
-22.3638
 21
-13.1715
  0
LINE
  8
0
 10
-22.3638
 20
-13.1715
 11
-22.5888
 21
-12.7818
  0
LINE
  8
0
 10
-22.5888
 20
-12.7818
 11
-22.7278
 21
-12.3538
  0
LINE
  8
0
 10
-22.7278
 20
-12.3538
 11
-22.7749
 21
-11.9062
  0
LINE
  8
0
 10
-22.7749
 20
11.9062
 11
-22.7278
 21
12.3538
  0
LINE
  8
0
 10
-22.7278
 20
12.3538
 11
-22.5888
 21
12.7818
  0
LINE
  8
0
 10
-22.5888
 20
12.7818
 11
-22.3638
 21
13.1715
  0
LINE
  8
0
 10
-22.3638
 20
13.1715
 11
-22.0626
 21
13.506
  0
LINE
  8
0
 10
-22.0626
 20
13.506
 11
-21.6986
 21
13.7705
  0
LINE
  8
0
 10
-21.6986
 20
13.7705
 11
-21.2874
 21
13.9535
  0
LINE
  8
0
 10
-21.2874
 20
13.9535
 11
-20.8472
 21
14.0471
  0
LINE
  8
0
 10
-20.8472
 20
14.0471
 11
-20.3972
 21
14.0471
  0
LINE
  8
0
 10
-20.3972
 20
14.0471
 11
-19.957
 21
13.9535
  0
LINE
  8
0
 10
-19.957
 20
13.9535
 11
-19.5459
 21
13.7705
  0
LINE
  8
0
 10
-19.5459
 20
13.7705
 11
-19.1818
 21
13.506
  0
LINE
  8
0
 10
-19.1818
 20
13.506
 11
-18.8807
 21
13.1715
  0
LINE
  8
0
 10
-18.8807
 20
13.1715
 11
-18.6557
 21
12.7818
  0
LINE
  8
0
 10
-18.6557
 20
12.7818
 11
-18.5166
 21
12.3538
  0
LINE
  8
0
 10
-18.5166
 20
12.3538
 11
-18.4696
 21
11.9062
  0
LINE
  8
0
 10
-18.4696
 20
11.9062
 11
-18.5166
 21
11.4587
  0
LINE
  8
0
 10
-18.5166
 20
11.4587
 11
-18.6557
 21
11.0307
  0
LINE
  8
0
 10
-18.6557
 20
11.0307
 11
-18.8807
 21
10.641
  0
LINE
  8
0
 10
-18.8807
 20
10.641
 11
-19.1818
 21
10.3065
  0
LINE
  8
0
 10
-19.1818
 20
10.3065
 11
-19.5459
 21
10.042
  0
LINE
  8
0
 10
-19.5459
 20
10.042
 11
-19.957
 21
9.85896
  0
LINE
  8
0
 10
-19.957
 20
9.85896
 11
-20.3972
 21
9.76539
  0
LINE
  8
0
 10
-20.3972
 20
9.76539
 11
-20.8472
 21
9.76539
  0
LINE
  8
0
 10
-20.8472
 20
9.76539
 11
-21.2874
 21
9.85896
  0
LINE
  8
0
 10
-21.2874
 20
9.85896
 11
-21.6986
 21
10.042
  0
LINE
  8
0
 10
-21.6986
 20
10.042
 11
-22.0626
 21
10.3065
  0
LINE
  8
0
 10
-22.0626
 20
10.3065
 11
-22.3638
 21
10.641
  0
LINE
  8
0
 10
-22.3638
 20
10.641
 11
-22.5888
 21
11.0307
  0
LINE
  8
0
 10
-22.5888
 20
11.0307
 11
-22.7278
 21
11.4587
  0
LINE
  8
0
 10
-22.7278
 20
11.4587
 11
-22.7749
 21
11.9062
  0
LINE
  8
0
 10
-8.75
 20
0
 11
-8.70283
 21
0.403577
  0
LINE
  8
0
 10
-8.70283
 20
0.403577
 11
-8.56386
 21
0.785398
  0
LINE
  8
0
 10
-8.56386
 20
0.785398
 11
-8.34058
 21
1.12488
  0
LINE
  8
0
 10
-8.34058
 20
1.12488
 11
-8.04503
 21
1.40372
  0
LINE
  8
0
 10
-8.04503
 20
1.40372
 11
-7.69314
 21
1.60688
  0
LINE
  8
0
 10
-7.69314
 20
1.60688
 11
-7.30388
 21
1.72341
  0
LINE
  8
0
 10
-7.30388
 20
1.72341
 11
-6.89825
 21
1.74704
  0
LINE
  8
0
 10
-6.89825
 20
1.74704
 11
-6.49809
 21
1.67648
  0
LINE
  8
0
 10
-6.49809
 20
1.67648
 11
-6.125
 21
1.51554
  0
LINE
  8
0
 10
-6.125
 20
1.51554
 11
-5.79908
 21
1.2729
  0
LINE
  8
0
 10
-5.79908
 20
1.2729
 11
-5.5379
 21
0.96164
  0
LINE
  8
0
 10
-5.5379
 20
0.96164
 11
-5.35554
 21
0.598535
  0
LINE
  8
0
 10
-5.35554
 20
0.598535
 11
-5.26183
 21
0.203162
  0
LINE
  8
0
 10
-5.26183
 20
0.203162
 11
-5.26183
 21
-0.203162
  0
LINE
  8
0
 10
-5.26183
 20
-0.203162
 11
-5.35554
 21
-0.598535
  0
LINE
  8
0
 10
-5.35554
 20
-0.598535
 11
-5.5379
 21
-0.96164
  0
LINE
  8
0
 10
-5.5379
 20
-0.96164
 11
-5.79908
 21
-1.2729
  0
LINE
  8
0
 10
-5.79908
 20
-1.2729
 11
-6.125
 21
-1.51554
  0
LINE
  8
0
 10
-6.125
 20
-1.51554
 11
-6.49809
 21
-1.67648
  0
LINE
  8
0
 10
-6.49809
 20
-1.67648
 11
-6.89825
 21
-1.74704
  0
LINE
  8
0
 10
-6.89825
 20
-1.74704
 11
-7.30388
 21
-1.72341
  0
LINE
  8
0
 10
-7.30388
 20
-1.72341
 11
-7.69314
 21
-1.60688
  0
LINE
  8
0
 10
-7.69314
 20
-1.60688
 11
-8.04503
 21
-1.40372
  0
LINE
  8
0
 10
-8.04503
 20
-1.40372
 11
-8.34058
 21
-1.12488
  0
LINE
  8
0
 10
-8.34058
 20
-1.12488
 11
-8.56386
 21
-0.785398
  0
LINE
  8
0
 10
-8.56386
 20
-0.785398
 11
-8.70283
 21
-0.403577
  0
LINE
  8
0
 10
-8.70283
 20
-0.403577
 11
-8.75
 21
0
  0
LINE
  8
0
 10
-3.5
 20
0
 11
-3.45226
 21
0.57608
  0
LINE
  8
0
 10
-3.45226
 20
0.57608
 11
-3.31036
 21
1.13645
  0
LINE
  8
0
 10
-3.31036
 20
1.13645
 11
-3.07816
 21
1.66582
  0
LINE
  8
0
 10
-3.07816
 20
1.66582
 11
-2.76199
 21
2.14974
  0
LINE
  8
0
 10
-2.76199
 20
2.14974
 11
-2.37049
 21
2.57503
  0
LINE
  8
0
 10
-2.37049
 20
2.57503
 11
-1.91432
 21
2.93008
  0
LINE
  8
0
 10
-1.91432
 20
2.93008
 11
-1.40593
 21
3.20521
  0
LINE
  8
0
 10
-1.40593
 20
3.20521
 11
-0.859199
 21
3.3929
  0
LINE
  8
0
 10
-0.859199
 20
3.3929
 11
-0.289027
 21
3.48805
  0
LINE
  8
0
 10
-0.289027
 20
3.48805
 11
0.289027
 21
3.48805
  0
LINE
  8
0
 10
0.289027
 20
3.48805
 11
0.859199
 21
3.3929
  0
LINE
  8
0
 10
0.859199
 20
3.3929
 11
1.40593
 21
3.20521
  0
LINE
  8
0
 10
1.40593
 20
3.20521
 11
1.91432
 21
2.93008
  0
LINE
  8
0
 10
1.91432
 20
2.93008
 11
2.37049
 21
2.57503
  0
LINE
  8
0
 10
2.37049
 20
2.57503
 11
2.76199
 21
2.14974
  0
LINE
  8
0
 10
2.76199
 20
2.14974
 11
3.07816
 21
1.66582
  0
LINE
  8
0
 10
3.07816
 20
1.66582
 11
3.31036
 21
1.13645
  0
LINE
  8
0
 10
3.31036
 20
1.13645
 11
3.45226
 21
0.57608
  0
LINE
  8
0
 10
3.45226
 20
0.57608
 11
3.5
 21
0
  0
LINE
  8
0
 10
3.5
 20
0
 11
3.45226
 21
-0.57608
  0
LINE
  8
0
 10
3.45226
 20
-0.57608
 11
3.31036
 21
-1.13645
  0
LINE
  8
0
 10
3.31036
 20
-1.13645
 11
3.07816
 21
-1.66582
  0
LINE
  8
0
 10
3.07816
 20
-1.66582
 11
2.76199
 21
-2.14974
  0
LINE
  8
0
 10
2.76199
 20
-2.14974
 11
2.37049
 21
-2.57503
  0
LINE
  8
0
 10
2.37049
 20
-2.57503
 11
1.91432
 21
-2.93008
  0
LINE
  8
0
 10
1.91432
 20
-2.93008
 11
1.40593
 21
-3.20521
  0
LINE
  8
0
 10
1.40593
 20
-3.20521
 11
0.859199
 21
-3.3929
  0
LINE
  8
0
 10
0.859199
 20
-3.3929
 11
0.289027
 21
-3.48805
  0
LINE
  8
0
 10
0.289027
 20
-3.48805
 11
-0.289027
 21
-3.48805
  0
LINE
  8
0
 10
-0.289027
 20
-3.48805
 11
-0.859199
 21
-3.3929
  0
LINE
  8
0
 10
-0.859199
 20
-3.3929
 11
-1.40593
 21
-3.20521
  0
LINE
  8
0
 10
-1.40593
 20
-3.20521
 11
-1.91432
 21
-2.93008
  0
LINE
  8
0
 10
-1.91432
 20
-2.93008
 11
-2.37049
 21
-2.57503
  0
LINE
  8
0
 10
-2.37049
 20
-2.57503
 11
-2.76199
 21
-2.14974
  0
LINE
  8
0
 10
-2.76199
 20
-2.14974
 11
-3.07816
 21
-1.66582
  0
LINE
  8
0
 10
-3.07816
 20
-1.66582
 11
-3.31036
 21
-1.13645
  0
LINE
  8
0
 10
-3.31036
 20
-1.13645
 11
-3.45226
 21
-0.57608
  0
LINE
  8
0
 10
-3.45226
 20
-0.57608
 11
-3.5
 21
0
  0
LINE
  8
0
 10
-2.15265
 20
-23.8125
 11
-2.10561
 21
-23.3649
  0
LINE
  8
0
 10
-2.10561
 20
-23.3649
 11
-1.96654
 21
-22.9369
  0
LINE
  8
0
 10
-1.96654
 20
-22.9369
 11
-1.74153
 21
-22.5472
  0
LINE
  8
0
 10
-1.74153
 20
-22.5472
 11
-1.4404
 21
-22.2128
  0
LINE
  8
0
 10
-1.4404
 20
-22.2128
 11
-1.07632
 21
-21.9482
  0
LINE
  8
0
 10
-1.07632
 20
-21.9482
 11
-0.665205
 21
-21.7652
  0
LINE
  8
0
 10
-0.665205
 20
-21.7652
 11
-0.225013
 21
-21.6716
  0
LINE
  8
0
 10
-0.225013
 20
-21.6716
 11
0.225013
 21
-21.6716
  0
LINE
  8
0
 10
0.225013
 20
-21.6716
 11
0.665205
 21
-21.7652
  0
LINE
  8
0
 10
0.665205
 20
-21.7652
 11
1.07632
 21
-21.9482
  0
LINE
  8
0
 10
1.07632
 20
-21.9482
 11
1.4404
 21
-22.2128
  0
LINE
  8
0
 10
1.4404
 20
-22.2128
 11
1.74153
 21
-22.5472
  0
LINE
  8
0
 10
1.74153
 20
-22.5472
 11
1.96654
 21
-22.9369
  0
LINE
  8
0
 10
1.96654
 20
-22.9369
 11
2.10561
 21
-23.3649
  0
LINE
  8
0
 10
2.10561
 20
-23.3649
 11
2.15265
 21
-23.8125
  0
LINE
  8
0
 10
2.15265
 20
-23.8125
 11
2.10561
 21
-24.2601
  0
LINE
  8
0
 10
2.10561
 20
-24.2601
 11
1.96654
 21
-24.6881
  0
LINE
  8
0
 10
1.96654
 20
-24.6881
 11
1.74153
 21
-25.0778
  0
LINE
  8
0
 10
1.74153
 20
-25.0778
 11
1.4404
 21
-25.4122
  0
LINE
  8
0
 10
1.4404
 20
-25.4122
 11
1.07632
 21
-25.6768
  0
LINE
  8
0
 10
1.07632
 20
-25.6768
 11
0.665205
 21
-25.8598
  0
LINE
  8
0
 10
0.665205
 20
-25.8598
 11
0.225013
 21
-25.9534
  0
LINE
  8
0
 10
0.225013
 20
-25.9534
 11
-0.225013
 21
-25.9534
  0
LINE
  8
0
 10
-0.225013
 20
-25.9534
 11
-0.665205
 21
-25.8598
  0
LINE
  8
0
 10
-0.665205
 20
-25.8598
 11
-1.07632
 21
-25.6768
  0
LINE
  8
0
 10
-1.07632
 20
-25.6768
 11
-1.4404
 21
-25.4122
  0
LINE
  8
0
 10
-1.4404
 20
-25.4122
 11
-1.74153
 21
-25.0778
  0
LINE
  8
0
 10
-1.74153
 20
-25.0778
 11
-1.96654
 21
-24.6881
  0
LINE
  8
0
 10
-1.96654
 20
-24.6881
 11
-2.10561
 21
-24.2601
  0
LINE
  8
0
 10
-2.10561
 20
-24.2601
 11
-2.15265
 21
-23.8125
  0
LINE
  8
0
 10
-2.15265
 20
23.8125
 11
-2.10561
 21
24.2601
  0
LINE
  8
0
 10
-2.10561
 20
24.2601
 11
-1.96654
 21
24.6881
  0
LINE
  8
0
 10
-1.96654
 20
24.6881
 11
-1.74153
 21
25.0778
  0
LINE
  8
0
 10
-1.74153
 20
25.0778
 11
-1.4404
 21
25.4122
  0
LINE
  8
0
 10
-1.4404
 20
25.4122
 11
-1.07632
 21
25.6768
  0
LINE
  8
0
 10
-1.07632
 20
25.6768
 11
-0.665205
 21
25.8598
  0
LINE
  8
0
 10
-0.665205
 20
25.8598
 11
-0.225013
 21
25.9534
  0
LINE
  8
0
 10
-0.225013
 20
25.9534
 11
0.225013
 21
25.9534
  0
LINE
  8
0
 10
0.225013
 20
25.9534
 11
0.665205
 21
25.8598
  0
LINE
  8
0
 10
0.665205
 20
25.8598
 11
1.07632
 21
25.6768
  0
LINE
  8
0
 10
1.07632
 20
25.6768
 11
1.4404
 21
25.4122
  0
LINE
  8
0
 10
1.4404
 20
25.4122
 11
1.74153
 21
25.0778
  0
LINE
  8
0
 10
1.74153
 20
25.0778
 11
1.96654
 21
24.6881
  0
LINE
  8
0
 10
1.96654
 20
24.6881
 11
2.10561
 21
24.2601
  0
LINE
  8
0
 10
2.10561
 20
24.2601
 11
2.15265
 21
23.8125
  0
LINE
  8
0
 10
2.15265
 20
23.8125
 11
2.10561
 21
23.3649
  0
LINE
  8
0
 10
2.10561
 20
23.3649
 11
1.96654
 21
22.9369
  0
LINE
  8
0
 10
1.96654
 20
22.9369
 11
1.74153
 21
22.5472
  0
LINE
  8
0
 10
1.74153
 20
22.5472
 11
1.4404
 21
22.2128
  0
LINE
  8
0
 10
1.4404
 20
22.2128
 11
1.07632
 21
21.9482
  0
LINE
  8
0
 10
1.07632
 20
21.9482
 11
0.665205
 21
21.7652
  0
LINE
  8
0
 10
0.665205
 20
21.7652
 11
0.225013
 21
21.6716
  0
LINE
  8
0
 10
0.225013
 20
21.6716
 11
-0.225013
 21
21.6716
  0
LINE
  8
0
 10
-0.225013
 20
21.6716
 11
-0.665205
 21
21.7652
  0
LINE
  8
0
 10
-0.665205
 20
21.7652
 11
-1.07632
 21
21.9482
  0
LINE
  8
0
 10
-1.07632
 20
21.9482
 11
-1.4404
 21
22.2128
  0
LINE
  8
0
 10
-1.4404
 20
22.2128
 11
-1.74153
 21
22.5472
  0
LINE
  8
0
 10
-1.74153
 20
22.5472
 11
-1.96654
 21
22.9369
  0
LINE
  8
0
 10
-1.96654
 20
22.9369
 11
-2.10561
 21
23.3649
  0
LINE
  8
0
 10
-2.10561
 20
23.3649
 11
-2.15265
 21
23.8125
  0
LINE
  8
0
 10
-1.75
 20
-7
 11
-1.70283
 21
-6.59642
  0
LINE
  8
0
 10
-1.70283
 20
-6.59642
 11
-1.56386
 21
-6.2146
  0
LINE
  8
0
 10
-1.56386
 20
-6.2146
 11
-1.34058
 21
-5.87512
  0
LINE
  8
0
 10
-1.34058
 20
-5.87512
 11
-1.04503
 21
-5.59628
  0
LINE
  8
0
 10
-1.04503
 20
-5.59628
 11
-0.693139
 21
-5.39312
  0
LINE
  8
0
 10
-0.693139
 20
-5.39312
 11
-0.303884
 21
-5.27659
  0
LINE
  8
0
 10
-0.303884
 20
-5.27659
 11
0.101753
 21
-5.25296
  0
LINE
  8
0
 10
0.101753
 20
-5.25296
 11
0.501905
 21
-5.32352
  0
LINE
  8
0
 10
0.501905
 20
-5.32352
 11
0.875
 21
-5.48446
  0
LINE
  8
0
 10
0.875
 20
-5.48446
 11
1.20092
 21
-5.7271
  0
LINE
  8
0
 10
1.20092
 20
-5.7271
 11
1.4621
 21
-6.03836
  0
LINE
  8
0
 10
1.4621
 20
-6.03836
 11
1.64446
 21
-6.40146
  0
LINE
  8
0
 10
1.64446
 20
-6.40146
 11
1.73817
 21
-6.79684
  0
LINE
  8
0
 10
1.73817
 20
-6.79684
 11
1.73817
 21
-7.20316
  0
LINE
  8
0
 10
1.73817
 20
-7.20316
 11
1.64446
 21
-7.59853
  0
LINE
  8
0
 10
1.64446
 20
-7.59853
 11
1.4621
 21
-7.96164
  0
LINE
  8
0
 10
1.4621
 20
-7.96164
 11
1.20092
 21
-8.2729
  0
LINE
  8
0
 10
1.20092
 20
-8.2729
 11
0.875
 21
-8.51554
  0
LINE
  8
0
 10
0.875
 20
-8.51554
 11
0.501905
 21
-8.67648
  0
LINE
  8
0
 10
0.501905
 20
-8.67648
 11
0.101753
 21
-8.74704
  0
LINE
  8
0
 10
0.101753
 20
-8.74704
 11
-0.303884
 21
-8.72341
  0
LINE
  8
0
 10
-0.303884
 20
-8.72341
 11
-0.693139
 21
-8.60688
  0
LINE
  8
0
 10
-0.693139
 20
-8.60688
 11
-1.04503
 21
-8.40372
  0
LINE
  8
0
 10
-1.04503
 20
-8.40372
 11
-1.34058
 21
-8.12488
  0
LINE
  8
0
 10
-1.34058
 20
-8.12488
 11
-1.56386
 21
-7.7854
  0
LINE
  8
0
 10
-1.56386
 20
-7.7854
 11
-1.70283
 21
-7.40358
  0
LINE
  8
0
 10
-1.70283
 20
-7.40358
 11
-1.75
 21
-7
  0
LINE
  8
0
 10
-1.75
 20
7
 11
-1.70283
 21
7.40358
  0
LINE
  8
0
 10
-1.70283
 20
7.40358
 11
-1.56386
 21
7.7854
  0
LINE
  8
0
 10
-1.56386
 20
7.7854
 11
-1.34058
 21
8.12488
  0
LINE
  8
0
 10
-1.34058
 20
8.12488
 11
-1.04503
 21
8.40372
  0
LINE
  8
0
 10
-1.04503
 20
8.40372
 11
-0.693139
 21
8.60688
  0
LINE
  8
0
 10
-0.693139
 20
8.60688
 11
-0.303884
 21
8.72341
  0
LINE
  8
0
 10
-0.303884
 20
8.72341
 11
0.101753
 21
8.74704
  0
LINE
  8
0
 10
0.101753
 20
8.74704
 11
0.501905
 21
8.67648
  0
LINE
  8
0
 10
0.501905
 20
8.67648
 11
0.875
 21
8.51554
  0
LINE
  8
0
 10
0.875
 20
8.51554
 11
1.20092
 21
8.2729
  0
LINE
  8
0
 10
1.20092
 20
8.2729
 11
1.4621
 21
7.96164
  0
LINE
  8
0
 10
1.4621
 20
7.96164
 11
1.64446
 21
7.59853
  0
LINE
  8
0
 10
1.64446
 20
7.59853
 11
1.73817
 21
7.20316
  0
LINE
  8
0
 10
1.73817
 20
7.20316
 11
1.73817
 21
6.79684
  0
LINE
  8
0
 10
1.73817
 20
6.79684
 11
1.64446
 21
6.40146
  0
LINE
  8
0
 10
1.64446
 20
6.40146
 11
1.4621
 21
6.03836
  0
LINE
  8
0
 10
1.4621
 20
6.03836
 11
1.20092
 21
5.7271
  0
LINE
  8
0
 10
1.20092
 20
5.7271
 11
0.875
 21
5.48446
  0
LINE
  8
0
 10
0.875
 20
5.48446
 11
0.501905
 21
5.32352
  0
LINE
  8
0
 10
0.501905
 20
5.32352
 11
0.101753
 21
5.25296
  0
LINE
  8
0
 10
0.101753
 20
5.25296
 11
-0.303884
 21
5.27659
  0
LINE
  8
0
 10
-0.303884
 20
5.27659
 11
-0.693139
 21
5.39312
  0
LINE
  8
0
 10
-0.693139
 20
5.39312
 11
-1.04503
 21
5.59628
  0
LINE
  8
0
 10
-1.04503
 20
5.59628
 11
-1.34058
 21
5.87512
  0
LINE
  8
0
 10
-1.34058
 20
5.87512
 11
-1.56386
 21
6.2146
  0
LINE
  8
0
 10
-1.56386
 20
6.2146
 11
-1.70283
 21
6.59642
  0
LINE
  8
0
 10
-1.70283
 20
6.59642
 11
-1.75
 21
7
  0
LINE
  8
0
 10
5.25
 20
0
 11
5.29717
 21
0.403577
  0
LINE
  8
0
 10
5.29717
 20
0.403577
 11
5.43614
 21
0.785398
  0
LINE
  8
0
 10
5.43614
 20
0.785398
 11
5.65942
 21
1.12488
  0
LINE
  8
0
 10
5.65942
 20
1.12488
 11
5.95497
 21
1.40372
  0
LINE
  8
0
 10
5.95497
 20
1.40372
 11
6.30686
 21
1.60688
  0
LINE
  8
0
 10
6.30686
 20
1.60688
 11
6.69612
 21
1.72341
  0
LINE
  8
0
 10
6.69612
 20
1.72341
 11
7.10175
 21
1.74704
  0
LINE
  8
0
 10
7.10175
 20
1.74704
 11
7.50191
 21
1.67648
  0
LINE
  8
0
 10
7.50191
 20
1.67648
 11
7.875
 21
1.51554
  0
LINE
  8
0
 10
7.875
 20
1.51554
 11
8.20092
 21
1.2729
  0
LINE
  8
0
 10
8.20092
 20
1.2729
 11
8.4621
 21
0.96164
  0
LINE
  8
0
 10
8.4621
 20
0.96164
 11
8.64446
 21
0.598535
  0
LINE
  8
0
 10
8.64446
 20
0.598535
 11
8.73817
 21
0.203162
  0
LINE
  8
0
 10
8.73817
 20
0.203162
 11
8.73817
 21
-0.203162
  0
LINE
  8
0
 10
8.73817
 20
-0.203162
 11
8.64446
 21
-0.598535
  0
LINE
  8
0
 10
8.64446
 20
-0.598535
 11
8.4621
 21
-0.96164
  0
LINE
  8
0
 10
8.4621
 20
-0.96164
 11
8.20092
 21
-1.2729
  0
LINE
  8
0
 10
8.20092
 20
-1.2729
 11
7.875
 21
-1.51554
  0
LINE
  8
0
 10
7.875
 20
-1.51554
 11
7.50191
 21
-1.67648
  0
LINE
  8
0
 10
7.50191
 20
-1.67648
 11
7.10175
 21
-1.74704
  0
LINE
  8
0
 10
7.10175
 20
-1.74704
 11
6.69612
 21
-1.72341
  0
LINE
  8
0
 10
6.69612
 20
-1.72341
 11
6.30686
 21
-1.60688
  0
LINE
  8
0
 10
6.30686
 20
-1.60688
 11
5.95497
 21
-1.40372
  0
LINE
  8
0
 10
5.95497
 20
-1.40372
 11
5.65942
 21
-1.12488
  0
LINE
  8
0
 10
5.65942
 20
-1.12488
 11
5.43614
 21
-0.785398
  0
LINE
  8
0
 10
5.43614
 20
-0.785398
 11
5.29717
 21
-0.403577
  0
LINE
  8
0
 10
5.29717
 20
-0.403577
 11
5.25
 21
0
  0
LINE
  8
0
 10
18.4696
 20
-11.9062
 11
18.5166
 21
-11.4587
  0
LINE
  8
0
 10
18.5166
 20
-11.4587
 11
18.6557
 21
-11.0307
  0
LINE
  8
0
 10
18.6557
 20
-11.0307
 11
18.8807
 21
-10.641
  0
LINE
  8
0
 10
18.8807
 20
-10.641
 11
19.1818
 21
-10.3065
  0
LINE
  8
0
 10
19.1818
 20
-10.3065
 11
19.5459
 21
-10.042
  0
LINE
  8
0
 10
19.5459
 20
-10.042
 11
19.957
 21
-9.85896
  0
LINE
  8
0
 10
19.957
 20
-9.85896
 11
20.3972
 21
-9.76539
  0
LINE
  8
0
 10
20.3972
 20
-9.76539
 11
20.8472
 21
-9.76539
  0
LINE
  8
0
 10
20.8472
 20
-9.76539
 11
21.2874
 21
-9.85896
  0
LINE
  8
0
 10
21.2874
 20
-9.85896
 11
21.6986
 21
-10.042
  0
LINE
  8
0
 10
21.6986
 20
-10.042
 11
22.0626
 21
-10.3065
  0
LINE
  8
0
 10
22.0626
 20
-10.3065
 11
22.3638
 21
-10.641
  0
LINE
  8
0
 10
22.3638
 20
-10.641
 11
22.5888
 21
-11.0307
  0
LINE
  8
0
 10
22.5888
 20
-11.0307
 11
22.7278
 21
-11.4587
  0
LINE
  8
0
 10
22.7278
 20
-11.4587
 11
22.7749
 21
-11.9062
  0
LINE
  8
0
 10
22.7749
 20
-11.9062
 11
22.7278
 21
-12.3538
  0
LINE
  8
0
 10
22.7278
 20
-12.3538
 11
22.5888
 21
-12.7818
  0
LINE
  8
0
 10
22.5888
 20
-12.7818
 11
22.3638
 21
-13.1715
  0
LINE
  8
0
 10
22.3638
 20
-13.1715
 11
22.0626
 21
-13.506
  0
LINE
  8
0
 10
22.0626
 20
-13.506
 11
21.6986
 21
-13.7705
  0
LINE
  8
0
 10
21.6986
 20
-13.7705
 11
21.2874
 21
-13.9535
  0
LINE
  8
0
 10
21.2874
 20
-13.9535
 11
20.8472
 21
-14.0471
  0
LINE
  8
0
 10
20.8472
 20
-14.0471
 11
20.3972
 21
-14.0471
  0
LINE
  8
0
 10
20.3972
 20
-14.0471
 11
19.957
 21
-13.9535
  0
LINE
  8
0
 10
19.957
 20
-13.9535
 11
19.5459
 21
-13.7705
  0
LINE
  8
0
 10
19.5459
 20
-13.7705
 11
19.1818
 21
-13.506
  0
LINE
  8
0
 10
19.1818
 20
-13.506
 11
18.8807
 21
-13.1715
  0
LINE
  8
0
 10
18.8807
 20
-13.1715
 11
18.6557
 21
-12.7818
  0
LINE
  8
0
 10
18.6557
 20
-12.7818
 11
18.5166
 21
-12.3538
  0
LINE
  8
0
 10
18.5166
 20
-12.3538
 11
18.4696
 21
-11.9062
  0
LINE
  8
0
 10
18.4696
 20
11.9062
 11
18.5166
 21
12.3538
  0
LINE
  8
0
 10
18.5166
 20
12.3538
 11
18.6557
 21
12.7818
  0
LINE
  8
0
 10
18.6557
 20
12.7818
 11
18.8807
 21
13.1715
  0
LINE
  8
0
 10
18.8807
 20
13.1715
 11
19.1818
 21
13.506
  0
LINE
  8
0
 10
19.1818
 20
13.506
 11
19.5459
 21
13.7705
  0
LINE
  8
0
 10
19.5459
 20
13.7705
 11
19.957
 21
13.9535
  0
LINE
  8
0
 10
19.957
 20
13.9535
 11
20.3972
 21
14.0471
  0
LINE
  8
0
 10
20.3972
 20
14.0471
 11
20.8472
 21
14.0471
  0
LINE
  8
0
 10
20.8472
 20
14.0471
 11
21.2874
 21
13.9535
  0
LINE
  8
0
 10
21.2874
 20
13.9535
 11
21.6986
 21
13.7705
  0
LINE
  8
0
 10
21.6986
 20
13.7705
 11
22.0626
 21
13.506
  0
LINE
  8
0
 10
22.0626
 20
13.506
 11
22.3638
 21
13.1715
  0
LINE
  8
0
 10
22.3638
 20
13.1715
 11
22.5888
 21
12.7818
  0
LINE
  8
0
 10
22.5888
 20
12.7818
 11
22.7278
 21
12.3538
  0
LINE
  8
0
 10
22.7278
 20
12.3538
 11
22.7749
 21
11.9062
  0
LINE
  8
0
 10
22.7749
 20
11.9062
 11
22.7278
 21
11.4587
  0
LINE
  8
0
 10
22.7278
 20
11.4587
 11
22.5888
 21
11.0307
  0
LINE
  8
0
 10
22.5888
 20
11.0307
 11
22.3638
 21
10.641
  0
LINE
  8
0
 10
22.3638
 20
10.641
 11
22.0626
 21
10.3065
  0
LINE
  8
0
 10
22.0626
 20
10.3065
 11
21.6986
 21
10.042
  0
LINE
  8
0
 10
21.6986
 20
10.042
 11
21.2874
 21
9.85896
  0
LINE
  8
0
 10
21.2874
 20
9.85896
 11
20.8472
 21
9.76539
  0
LINE
  8
0
 10
20.8472
 20
9.76539
 11
20.3972
 21
9.76539
  0
LINE
  8
0
 10
20.3972
 20
9.76539
 11
19.957
 21
9.85896
  0
LINE
  8
0
 10
19.957
 20
9.85896
 11
19.5459
 21
10.042
  0
LINE
  8
0
 10
19.5459
 20
10.042
 11
19.1818
 21
10.3065
  0
LINE
  8
0
 10
19.1818
 20
10.3065
 11
18.8807
 21
10.641
  0
LINE
  8
0
 10
18.8807
 20
10.641
 11
18.6557
 21
11.0307
  0
LINE
  8
0
 10
18.6557
 20
11.0307
 11
18.5166
 21
11.4587
  0
LINE
  8
0
 10
18.5166
 20
11.4587
 11
18.4696
 21
11.9062
  0
ENDSEC
  0
SECTION
  2
OBJECTS
  0
DICTIONARY
  0
ENDSEC
  0
EOF
