  0
SECTION
  2
BLOCKS
  0
ENDSEC
  0
SECTION
  2
ENTITIES
  0
LINE
  8
0
 10
-26.5501
 20
8.03036
 11
-26.5501
 21
8.01909
  0
LINE
  8
0
 10
-26.5501
 20
8.01909
 11
-26.5499
 21
7.85655
  0
LINE
  8
0
 10
-26.5499
 20
7.85655
 11
-26.5477
 21
7.8458
  0
LINE
  8
0
 10
-26.5477
 20
7.8458
 11
-26.5148
 21
7.68638
  0
LINE
  8
0
 10
-26.5148
 20
7.68638
 11
-26.5107
 21
7.67673
  0
LINE
  8
0
 10
-26.5107
 20
7.67673
 11
-26.4468
 21
7.52693
  0
LINE
  8
0
 10
-26.4468
 20
7.52693
 11
-26.4411
 21
7.51881
  0
LINE
  8
0
 10
-26.4411
 20
7.51881
 11
-26.348
 21
7.38424
  0
LINE
  8
0
 10
-26.348
 20
7.38424
 11
-26.3415
 21
7.37792
  0
LINE
  8
0
 10
-26.3415
 20
7.37792
 11
-26.223
 21
7.26396
  0
LINE
  8
0
 10
-26.223
 20
7.26396
 11
-26.216
 21
7.25954
  0
LINE
  8
0
 10
-26.216
 20
7.25954
 11
-26.0761
 21
7.17106
  0
LINE
  8
0
 10
-26.0761
 20
7.17106
 11
-26.0692
 21
7.16844
  0
LINE
  8
0
 10
-26.0692
 20
7.16844
 11
-25.9124
 21
7.11157
  0
LINE
  8
0
 10
-25.9124
 20
7.11157
 11
-22.8247
 21
6.28422
  0
LINE
  8
0
 10
-22.8247
 20
6.28422
 11
-21.2809
 21
5.87054
  0
LINE
  8
0
 10
-21.2809
 20
5.87054
 11
-20.9633
 21
5.78544
  0
LINE
  8
0
 10
-20.9633
 20
5.78544
 11
-19.737
 21
5.45687
  0
LINE
  8
0
 10
-19.737
 20
5.45687
 11
-19.523
 21
5.36921
  0
LINE
  8
0
 10
-19.523
 20
5.36921
 11
-19.4705
 21
5.34774
  0
LINE
  8
0
 10
-19.4705
 20
5.34774
 11
-19.2854
 21
5.20914
  0
LINE
  8
0
 10
-19.2854
 20
5.20914
 11
-19.24
 21
5.17518
  0
LINE
  8
0
 10
-19.24
 20
5.17518
 11
-19.0957
 21
4.99453
  0
LINE
  8
0
 10
-19.0957
 20
4.99453
 11
-19.0603
 21
4.95027
  0
LINE
  8
0
 10
-19.0603
 20
4.95027
 11
-18.9659
 21
4.73914
  0
LINE
  8
0
 10
-18.9659
 20
4.73914
 11
-18.9427
 21
4.68741
  0
LINE
  8
0
 10
-18.9427
 20
4.68741
 11
-18.9044
 21
4.45934
  0
LINE
  8
0
 10
-18.9044
 20
4.45934
 11
-18.895
 21
4.40346
  0
LINE
  8
0
 10
-18.895
 20
4.40346
 11
-18.9152
 21
4.17307
  0
LINE
  8
0
 10
-18.9152
 20
4.17307
 11
-18.9201
 21
4.11662
  0
LINE
  8
0
 10
-18.9201
 20
4.11662
 11
-19.1154
 21
3.03357
  0
LINE
  8
0
 10
-19.1154
 20
3.03357
 11
-19.1662
 21
2.75217
  0
LINE
  8
0
 10
-19.1662
 20
2.75217
 11
-19.2835
 21
1.65792
  0
LINE
  8
0
 10
-19.2835
 20
1.65792
 11
-19.314
 21
1.3736
  0
LINE
  8
0
 10
-19.314
 20
1.3736
 11
-19.3527
 21
0.273762
  0
LINE
  8
0
 10
-19.3527
 20
0.273762
 11
-19.3628
 21
-0.0120081
  0
LINE
  8
0
 10
-19.3628
 20
-0.0120081
 11
-19.3227
 21
-1.1118
  0
LINE
  8
0
 10
-19.3227
 20
-1.1118
 11
-19.3123
 21
-1.39756
  0
LINE
  8
0
 10
-19.3123
 20
-1.39756
 11
-19.1936
 21
-2.49166
  0
LINE
  8
0
 10
-19.1936
 20
-2.49166
 11
-19.1628
 21
-2.77594
  0
LINE
  8
0
 10
-19.1628
 20
-2.77594
 11
-18.9661
 21
-3.85874
  0
LINE
  8
0
 10
-18.9661
 20
-3.85874
 11
-18.915
 21
-4.14009
  0
LINE
  8
0
 10
-18.915
 20
-4.14009
 11
-18.8946
 21
-4.37064
  0
LINE
  8
0
 10
-18.8946
 20
-4.37064
 11
-18.8895
 21
-4.42713
  0
LINE
  8
0
 10
-18.8895
 20
-4.42713
 11
-18.9277
 21
-4.65542
  0
LINE
  8
0
 10
-18.9277
 20
-4.65542
 11
-18.9371
 21
-4.71135
  0
LINE
  8
0
 10
-18.9371
 20
-4.71135
 11
-19.0314
 21
-4.92272
  0
LINE
  8
0
 10
-19.0314
 20
-4.92272
 11
-19.0545
 21
-4.97451
  0
LINE
  8
0
 10
-19.0545
 20
-4.97451
 11
-19.1989
 21
-5.15538
  0
LINE
  8
0
 10
-19.1989
 20
-5.15538
 11
-19.2343
 21
-5.1997
  0
LINE
  8
0
 10
-19.2343
 20
-5.1997
 11
-19.4195
 21
-5.33846
  0
LINE
  8
0
 10
-19.4195
 20
-5.33846
 11
-19.4649
 21
-5.37246
  0
LINE
  8
0
 10
-19.4649
 20
-5.37246
 11
-19.6791
 21
-5.46021
  0
LINE
  8
0
 10
-19.6791
 20
-5.46021
 11
-19.7316
 21
-5.48171
  0
LINE
  8
0
 10
-19.7316
 20
-5.48171
 11
-23.1357
 21
-6.39385
  0
LINE
  8
0
 10
-23.1357
 20
-6.39385
 11
-24.6791
 21
-6.80739
  0
LINE
  8
0
 10
-24.6791
 20
-6.80739
 11
-25.9049
 21
-7.13585
  0
LINE
  8
0
 10
-25.9049
 20
-7.13585
 11
-26.0612
 21
-7.19242
  0
LINE
  8
0
 10
-26.0612
 20
-7.19242
 11
-26.0681
 21
-7.19503
  0
LINE
  8
0
 10
-26.0681
 20
-7.19503
 11
-26.0744
 21
-7.19902
  0
LINE
  8
0
 10
-26.0744
 20
-7.19902
 11
-26.2151
 21
-7.28793
  0
LINE
  8
0
 10
-26.2151
 20
-7.28793
 11
-26.2212
 21
-7.29376
  0
LINE
  8
0
 10
-26.2212
 20
-7.29376
 11
-26.3405
 21
-7.40841
  0
LINE
  8
0
 10
-26.3405
 20
-7.40841
 11
-26.3457
 21
-7.41603
  0
LINE
  8
0
 10
-26.3457
 20
-7.41603
 11
-26.4392
 21
-7.55107
  0
LINE
  8
0
 10
-26.4392
 20
-7.55107
 11
-26.4431
 21
-7.56029
  0
LINE
  8
0
 10
-26.4431
 20
-7.56029
 11
-26.5073
 21
-7.71076
  0
LINE
  8
0
 10
-26.5073
 20
-7.71076
 11
-26.5094
 21
-7.72116
  0
LINE
  8
0
 10
-26.5094
 20
-7.72116
 11
-26.5424
 21
-7.88073
  0
LINE
  8
0
 10
-26.5424
 20
-7.88073
 11
-26.5424
 21
-7.89181
  0
LINE
  8
0
 10
-26.5424
 20
-7.89181
 11
-26.5425
 21
-8.05467
  0
LINE
  8
0
 10
-26.5425
 20
-8.05467
 11
-26.5403
 21
-8.06579
  0
LINE
  8
0
 10
-26.5403
 20
-8.06579
 11
-26.5056
 21
-8.22491
  0
LINE
  8
0
 10
-26.5056
 20
-8.22491
 11
-26.0905
 21
-9.43377
  0
LINE
  8
0
 10
-26.0905
 20
-9.43377
 11
-25.9672
 21
-9.79281
  0
LINE
  8
0
 10
-25.9672
 20
-9.79281
 11
-25.4807
 21
-10.9747
  0
LINE
  8
0
 10
-25.4807
 20
-10.9747
 11
-25.3362
 21
-11.3258
  0
LINE
  8
0
 10
-25.3362
 20
-11.3258
 11
-24.7799
 21
-12.4765
  0
LINE
  8
0
 10
-24.7799
 20
-12.4765
 11
-24.6147
 21
-12.8183
  0
LINE
  8
0
 10
-24.6147
 20
-12.8183
 11
-23.9908
 21
-13.9338
  0
LINE
  8
0
 10
-23.9908
 20
-13.9338
 11
-23.8055
 21
-14.2651
  0
LINE
  8
0
 10
-23.8055
 20
-14.2651
 11
-23.1161
 21
-15.3414
  0
LINE
  8
0
 10
-23.1161
 20
-15.3414
 11
-22.9113
 21
-15.661
  0
LINE
  8
0
 10
-22.9113
 20
-15.661
 11
-22.1588
 21
-16.6942
  0
LINE
  8
0
 10
-22.1588
 20
-16.6942
 11
-21.9353
 21
-17.001
  0
LINE
  8
0
 10
-21.9353
 20
-17.001
 11
-21.1225
 21
-17.9874
  0
LINE
  8
0
 10
-21.1225
 20
-17.9874
 11
-20.8811
 21
-18.2804
  0
LINE
  8
0
 10
-20.8811
 20
-18.2804
 11
-20.0109
 21
-19.2165
  0
LINE
  8
0
 10
-20.0109
 20
-19.2165
 11
-19.7524
 21
-19.4945
  0
LINE
  8
0
 10
-19.7524
 20
-19.4945
 11
-18.8278
 21
-20.377
  0
LINE
  8
0
 10
-18.8278
 20
-20.377
 11
-18.5532
 21
-20.6391
  0
LINE
  8
0
 10
-18.5532
 20
-20.6391
 11
-17.5776
 21
-21.4648
  0
LINE
  8
0
 10
-17.5776
 20
-21.4648
 11
-17.2878
 21
-21.7101
  0
LINE
  8
0
 10
-17.2878
 20
-21.7101
 11
-16.2646
 21
-22.476
  0
LINE
  8
0
 10
-16.2646
 20
-22.476
 11
-15.9607
 21
-22.7035
  0
LINE
  8
0
 10
-15.9607
 20
-22.7035
 11
-14.8936
 21
-23.4071
  0
LINE
  8
0
 10
-14.8936
 20
-23.4071
 11
-14.5767
 21
-23.616
  0
LINE
  8
0
 10
-14.5767
 20
-23.616
 11
-13.4695
 21
-24.2545
  0
LINE
  8
0
 10
-13.4695
 20
-24.2545
 11
-13.1406
 21
-24.4442
  0
LINE
  8
0
 10
-13.1406
 20
-24.4442
 11
-11.9973
 21
-25.0155
  0
LINE
  8
0
 10
-11.9973
 20
-25.0155
 11
-11.6577
 21
-25.1852
  0
LINE
  8
0
 10
-11.6577
 20
-25.1852
 11
-10.4823
 21
-25.6872
  0
LINE
  8
0
 10
-10.4823
 20
-25.6872
 11
-10.1332
 21
-25.8363
  0
LINE
  8
0
 10
-10.1332
 20
-25.8363
 11
-8.92985
 21
-26.2672
  0
LINE
  8
0
 10
-8.92985
 20
-26.2672
 11
-8.57246
 21
-26.3952
  0
LINE
  8
0
 10
-8.57246
 20
-26.3952
 11
-7.34558
 21
-26.7535
  0
LINE
  8
0
 10
-7.34558
 20
-26.7535
 11
-6.98119
 21
-26.86
  0
LINE
  8
0
 10
-6.98119
 20
-26.86
 11
-5.73509
 21
-27.1444
  0
LINE
  8
0
 10
-5.73509
 20
-27.1444
 11
-5.365
 21
-27.2289
  0
LINE
  8
0
 10
-5.365
 20
-27.2289
 11
-4.10415
 21
-27.4384
  0
LINE
  8
0
 10
-4.10415
 20
-27.4384
 11
-3.72967
 21
-27.5006
  0
LINE
  8
0
 10
-3.72967
 20
-27.5006
 11
-2.45856
 21
-27.6345
  0
LINE
  8
0
 10
-2.45856
 20
-27.6345
 11
-2.08104
 21
-27.6742
  0
LINE
  8
0
 10
-2.08104
 20
-27.6742
 11
-0.804198
 21
-27.732
  0
LINE
  8
0
 10
-0.804198
 20
-27.732
 11
-0.424975
 21
-27.7491
  0
LINE
  8
0
 10
-0.424975
 20
-27.7491
 11
0.853032
 21
-27.7305
  0
LINE
  8
0
 10
0.853032
 20
-27.7305
 11
1.2326
 21
-27.725
  0
LINE
  8
0
 10
1.2326
 20
-27.725
 11
2.50722
 21
-27.6301
  0
LINE
  8
0
 10
2.50722
 20
-27.6301
 11
2.88578
 21
-27.6019
  0
LINE
  8
0
 10
2.88578
 20
-27.6019
 11
4.15246
 21
-27.4311
  0
LINE
  8
0
 10
4.15246
 20
-27.4311
 11
4.52867
 21
-27.3804
  0
LINE
  8
0
 10
4.52867
 20
-27.3804
 11
5.78289
 21
-27.1343
  0
LINE
  8
0
 10
5.78289
 20
-27.1343
 11
6.15539
 21
-27.0611
  0
LINE
  8
0
 10
6.15539
 20
-27.0611
 11
6.30986
 21
-27.0118
  0
LINE
  8
0
 10
6.30986
 20
-27.0118
 11
6.32056
 21
-27.0082
  0
LINE
  8
0
 10
6.32056
 20
-27.0082
 11
6.33031
 21
-27.0026
  0
LINE
  8
0
 10
6.33031
 20
-27.0026
 11
6.47097
 21
-26.9211
  0
LINE
  8
0
 10
6.47097
 20
-26.9211
 11
6.47917
 21
-26.9138
  0
LINE
  8
0
 10
6.47917
 20
-26.9138
 11
6.60079
 21
-26.8057
  0
LINE
  8
0
 10
6.60079
 20
-26.8057
 11
6.60709
 21
-26.7973
  0
LINE
  8
0
 10
6.60709
 20
-26.7973
 11
6.70486
 21
-26.667
  0
LINE
  8
0
 10
6.70486
 20
-26.667
 11
6.70908
 21
-26.6581
  0
LINE
  8
0
 10
6.70908
 20
-26.6581
 11
6.77908
 21
-26.5102
  0
LINE
  8
0
 10
6.77908
 20
-26.5102
 11
6.78127
 21
-26.5013
  0
LINE
  8
0
 10
6.78127
 20
-26.5013
 11
6.82075
 21
-26.3418
  0
LINE
  8
0
 10
6.82075
 20
-26.3418
 11
6.82108
 21
-26.3335
  0
LINE
  8
0
 10
6.82108
 20
-26.3335
 11
6.82773
 21
-26.1681
  0
LINE
  8
0
 10
6.82773
 20
-26.1681
 11
6.82655
 21
-26.1608
  0
LINE
  8
0
 10
6.82655
 20
-26.1608
 11
6.79742
 21
-25.9966
  0
LINE
  8
0
 10
6.79742
 20
-25.9966
 11
6.71232
 21
-25.679
  0
LINE
  8
0
 10
6.71232
 20
-25.679
 11
6.29864
 21
-24.1352
  0
LINE
  8
0
 10
6.29864
 20
-24.1352
 11
5.97007
 21
-22.9089
  0
LINE
  8
0
 10
5.97007
 20
-22.9089
 11
5.55639
 21
-21.365
  0
LINE
  8
0
 10
5.55639
 20
-21.365
 11
5.14271
 21
-19.8212
  0
LINE
  8
0
 10
5.14271
 20
-19.8212
 11
5.11162
 21
-19.592
  0
LINE
  8
0
 10
5.11162
 20
-19.592
 11
5.104
 21
-19.5359
  0
LINE
  8
0
 10
5.104
 20
-19.5359
 11
5.13146
 21
-19.3062
  0
LINE
  8
0
 10
5.13146
 20
-19.3062
 11
5.13819
 21
-19.25
  0
LINE
  8
0
 10
5.13819
 20
-19.25
 11
5.22244
 21
-19.0346
  0
LINE
  8
0
 10
5.22244
 20
-19.0346
 11
5.24308
 21
-18.9818
  0
LINE
  8
0
 10
5.24308
 20
-18.9818
 11
5.37873
 21
-18.7945
  0
LINE
  8
0
 10
5.37873
 20
-18.7945
 11
5.41196
 21
-18.7486
  0
LINE
  8
0
 10
5.41196
 20
-18.7486
 11
5.5903
 21
-18.6014
  0
LINE
  8
0
 10
5.5903
 20
-18.6014
 11
5.634
 21
-18.5653
  0
LINE
  8
0
 10
5.634
 20
-18.5653
 11
5.8436
 21
-18.4676
  0
LINE
  8
0
 10
5.8436
 20
-18.4676
 11
5.89496
 21
-18.4436
  0
LINE
  8
0
 10
5.89496
 20
-18.4436
 11
6.93057
 21
-18.0712
  0
LINE
  8
0
 10
6.93057
 20
-18.0712
 11
7.19965
 21
-17.9745
  0
LINE
  8
0
 10
7.19965
 20
-17.9745
 11
8.20596
 21
-17.529
  0
LINE
  8
0
 10
8.20596
 20
-17.529
 11
8.46743
 21
-17.4132
  0
LINE
  8
0
 10
8.46743
 20
-17.4132
 11
9.43927
 21
-16.8968
  0
LINE
  8
0
 10
9.43927
 20
-16.8968
 11
9.69179
 21
-16.7627
  0
LINE
  8
0
 10
9.69179
 20
-16.7627
 11
10.6242
 21
-16.178
  0
LINE
  8
0
 10
10.6242
 20
-16.178
 11
10.8665
 21
-16.0261
  0
LINE
  8
0
 10
10.8665
 20
-16.0261
 11
11.7546
 21
-15.3763
  0
LINE
  8
0
 10
11.7546
 20
-15.3763
 11
11.9854
 21
-15.2075
  0
LINE
  8
0
 10
11.9854
 20
-15.2075
 11
12.8248
 21
-14.4957
  0
LINE
  8
0
 10
12.8248
 20
-14.4957
 11
13.0429
 21
-14.3108
  0
LINE
  8
0
 10
13.0429
 20
-14.3108
 11
13.2324
 21
-14.1778
  0
LINE
  8
0
 10
13.2324
 20
-14.1778
 11
13.2788
 21
-14.1453
  0
LINE
  8
0
 10
13.2788
 20
-14.1453
 11
13.4956
 21
-14.0642
  0
LINE
  8
0
 10
13.4956
 20
-14.0642
 11
13.5487
 21
-14.0443
  0
LINE
  8
0
 10
13.5487
 20
-14.0443
 11
13.7789
 21
-14.0203
  0
LINE
  8
0
 10
13.7789
 20
-14.0203
 11
13.8353
 21
-14.0144
  0
LINE
  8
0
 10
13.8353
 20
-14.0144
 11
14.0641
 21
-14.049
  0
LINE
  8
0
 10
14.0641
 20
-14.049
 11
14.1202
 21
-14.0575
  0
LINE
  8
0
 10
14.1202
 20
-14.0575
 11
14.333
 21
-14.1486
  0
LINE
  8
0
 10
14.333
 20
-14.1486
 11
14.3852
 21
-14.1709
  0
LINE
  8
0
 10
14.3852
 20
-14.1709
 11
14.5682
 21
-14.3125
  0
LINE
  8
0
 10
14.5682
 20
-14.3125
 11
14.6131
 21
-14.3472
  0
LINE
  8
0
 10
14.6131
 20
-14.3472
 11
15.9753
 21
-15.7094
  0
LINE
  8
0
 10
15.9753
 20
-15.7094
 11
16.8727
 21
-16.6068
  0
LINE
  8
0
 10
16.8727
 20
-16.6068
 11
17.1051
 21
-16.8392
  0
LINE
  8
0
 10
17.1051
 20
-16.8392
 11
18.0025
 21
-17.7366
  0
LINE
  8
0
 10
18.0025
 20
-17.7366
 11
19.1323
 21
-18.8664
  0
LINE
  8
0
 10
19.1323
 20
-18.8664
 11
19.2594
 21
-18.9735
  0
LINE
  8
0
 10
19.2594
 20
-18.9735
 11
19.2651
 21
-18.9781
  0
LINE
  8
0
 10
19.2651
 20
-18.9781
 11
19.2717
 21
-18.9816
  0
LINE
  8
0
 10
19.2717
 20
-18.9816
 11
19.4191
 21
-19.059
  0
LINE
  8
0
 10
19.4191
 20
-19.059
 11
19.4272
 21
-19.0613
  0
LINE
  8
0
 10
19.4272
 20
-19.0613
 11
19.5861
 21
-19.1073
  0
LINE
  8
0
 10
19.5861
 20
-19.1073
 11
19.5953
 21
-19.1081
  0
LINE
  8
0
 10
19.5953
 20
-19.1081
 11
19.759
 21
-19.1214
  0
LINE
  8
0
 10
19.759
 20
-19.1214
 11
19.7689
 21
-19.1202
  0
LINE
  8
0
 10
19.7689
 20
-19.1202
 11
19.9313
 21
-19.1006
  0
LINE
  8
0
 10
19.9313
 20
-19.1006
 11
19.9414
 21
-19.0972
  0
LINE
  8
0
 10
19.9414
 20
-19.0972
 11
20.0961
 21
-19.046
  0
LINE
  8
0
 10
20.0961
 20
-19.046
 11
20.1057
 21
-19.0405
  0
LINE
  8
0
 10
20.1057
 20
-19.0405
 11
20.2468
 21
-18.9592
  0
LINE
  8
0
 10
20.2468
 20
-18.9592
 11
20.2553
 21
-18.9517
  0
LINE
  8
0
 10
20.2553
 20
-18.9517
 11
20.3758
 21
-18.842
  0
LINE
  8
0
 10
20.3758
 20
-18.842
 11
21.2151
 21
-17.8781
  0
LINE
  8
0
 10
21.2151
 20
-17.8781
 11
21.4644
 21
-17.5919
  0
LINE
  8
0
 10
21.4644
 20
-17.5919
 11
22.2447
 21
-16.5795
  0
LINE
  8
0
 10
22.2447
 20
-16.5795
 11
22.4765
 21
-16.2789
  0
LINE
  8
0
 10
22.4765
 20
-16.2789
 11
23.195
 21
-15.2218
  0
LINE
  8
0
 10
23.195
 20
-15.2218
 11
23.4084
 21
-14.9078
  0
LINE
  8
0
 10
23.4084
 20
-14.9078
 11
24.0624
 21
-13.8097
  0
LINE
  8
0
 10
24.0624
 20
-13.8097
 11
24.2567
 21
-13.4836
  0
LINE
  8
0
 10
24.2567
 20
-13.4836
 11
24.844
 21
-12.3484
  0
LINE
  8
0
 10
24.844
 20
-12.3484
 11
25.0185
 21
-12.0112
  0
LINE
  8
0
 10
25.0185
 20
-12.0112
 11
25.537
 21
-10.843
  0
LINE
  8
0
 10
25.537
 20
-10.843
 11
25.691
 21
-10.496
  0
LINE
  8
0
 10
25.691
 20
-10.496
 11
26.1389
 21
-9.29892
  0
LINE
  8
0
 10
26.1389
 20
-9.29892
 11
26.2719
 21
-8.94338
  0
LINE
  8
0
 10
26.2719
 20
-8.94338
 11
26.6474
 21
-7.72166
  0
LINE
  8
0
 10
26.6474
 20
-7.72166
 11
26.759
 21
-7.3588
  0
LINE
  8
0
 10
26.759
 20
-7.3588
 11
27.0609
 21
-6.11684
  0
LINE
  8
0
 10
27.0609
 20
-6.11684
 11
27.1506
 21
-5.74797
  0
LINE
  8
0
 10
27.1506
 20
-5.74797
 11
27.3779
 21
-4.4902
  0
LINE
  8
0
 10
27.3779
 20
-4.4902
 11
27.4454
 21
-4.11664
  0
LINE
  8
0
 10
27.4454
 20
-4.11664
 11
27.5971
 21
-2.84753
  0
LINE
  8
0
 10
27.5971
 20
-2.84753
 11
27.6422
 21
-2.47061
  0
LINE
  8
0
 10
27.6422
 20
-2.47061
 11
27.7179
 21
-1.19471
  0
LINE
  8
0
 10
27.7179
 20
-1.19471
 11
27.7404
 21
-0.815765
  0
LINE
  8
0
 10
27.7404
 20
-0.815765
 11
27.7398
 21
0.462378
  0
LINE
  8
0
 10
27.7398
 20
0.462378
 11
27.7396
 21
0.841988
  0
LINE
  8
0
 10
27.7396
 20
0.841988
 11
27.6627
 21
2.11781
  0
LINE
  8
0
 10
27.6627
 20
2.11781
 11
27.6398
 21
2.49674
  0
LINE
  8
0
 10
27.6398
 20
2.49674
 11
27.4869
 21
3.7657
  0
LINE
  8
0
 10
27.4869
 20
3.7657
 11
27.4415
 21
4.14258
  0
LINE
  8
0
 10
27.4415
 20
4.14258
 11
27.213
 21
5.40014
  0
LINE
  8
0
 10
27.213
 20
5.40014
 11
27.1452
 21
5.77364
  0
LINE
  8
0
 10
27.1452
 20
5.77364
 11
26.842
 21
7.01532
  0
LINE
  8
0
 10
26.842
 20
7.01532
 11
26.752
 21
7.3841
  0
LINE
  8
0
 10
26.752
 20
7.3841
 11
26.3753
 21
8.60546
  0
LINE
  8
0
 10
26.3753
 20
8.60546
 11
26.2634
 21
8.96821
  0
LINE
  8
0
 10
26.2634
 20
8.96821
 11
25.8144
 21
10.1649
  0
LINE
  8
0
 10
25.8144
 20
10.1649
 11
25.6811
 21
10.5203
  0
LINE
  8
0
 10
25.6811
 20
10.5203
 11
25.1614
 21
11.6881
  0
LINE
  8
0
 10
25.1614
 20
11.6881
 11
25.0071
 21
12.0349
  0
LINE
  8
0
 10
25.0071
 20
12.0349
 11
24.4187
 21
13.1695
  0
LINE
  8
0
 10
24.4187
 20
13.1695
 11
24.2439
 21
13.5065
  0
LINE
  8
0
 10
24.2439
 20
13.5065
 11
23.5888
 21
14.604
  0
LINE
  8
0
 10
23.5888
 20
14.604
 11
23.3942
 21
14.93
  0
LINE
  8
0
 10
23.3942
 20
14.93
 11
22.6748
 21
15.9864
  0
LINE
  8
0
 10
22.6748
 20
15.9864
 11
22.4611
 21
16.3001
  0
LINE
  8
0
 10
22.4611
 20
16.3001
 11
21.6798
 21
17.3117
  0
LINE
  8
0
 10
21.6798
 20
17.3117
 11
21.4478
 21
17.6121
  0
LINE
  8
0
 10
21.4478
 20
17.6121
 11
20.6075
 21
18.5753
  0
LINE
  8
0
 10
20.6075
 20
18.5753
 11
20.3579
 21
18.8613
  0
LINE
  8
0
 10
20.3579
 20
18.8613
 11
20.238
 21
18.9704
  0
LINE
  8
0
 10
20.238
 20
18.9704
 11
20.2295
 21
18.9779
  0
LINE
  8
0
 10
20.2295
 20
18.9779
 11
20.2198
 21
18.9835
  0
LINE
  8
0
 10
20.2198
 20
18.9835
 11
20.0789
 21
19.0646
  0
LINE
  8
0
 10
20.0789
 20
19.0646
 11
20.0685
 21
19.0681
  0
LINE
  8
0
 10
20.0685
 20
19.0681
 11
19.914
 21
19.1193
  0
LINE
  8
0
 10
19.914
 20
19.1193
 11
19.9036
 21
19.1205
  0
LINE
  8
0
 10
19.9036
 20
19.1205
 11
19.7419
 21
19.1401
  0
LINE
  8
0
 10
19.7419
 20
19.1401
 11
19.732
 21
19.1393
  0
LINE
  8
0
 10
19.732
 20
19.1393
 11
19.569
 21
19.126
  0
LINE
  8
0
 10
19.569
 20
19.126
 11
19.5602
 21
19.1234
  0
LINE
  8
0
 10
19.5602
 20
19.1234
 11
19.4023
 21
19.0778
  0
LINE
  8
0
 10
19.4023
 20
19.0778
 11
19.395
 21
19.074
  0
LINE
  8
0
 10
19.395
 20
19.074
 11
19.2484
 21
18.997
  0
LINE
  8
0
 10
19.2484
 20
18.997
 11
19.2427
 21
18.9924
  0
LINE
  8
0
 10
19.2427
 20
18.9924
 11
19.115
 21
18.885
  0
LINE
  8
0
 10
19.115
 20
18.885
 11
17.9848
 21
17.7549
  0
LINE
  8
0
 10
17.9848
 20
17.7549
 11
16.8547
 21
16.6247
  0
LINE
  8
0
 10
16.8547
 20
16.6247
 11
15.7245
 21
15.4945
  0
LINE
  8
0
 10
15.7245
 20
15.4945
 11
15.492
 21
15.262
  0
LINE
  8
0
 10
15.492
 20
15.262
 11
14.5943
 21
14.3643
  0
LINE
  8
0
 10
14.5943
 20
14.3643
 11
14.4114
 21
14.2228
  0
LINE
  8
0
 10
14.4114
 20
14.2228
 11
14.3665
 21
14.1881
  0
LINE
  8
0
 10
14.3665
 20
14.1881
 11
14.154
 21
14.0971
  0
LINE
  8
0
 10
14.154
 20
14.0971
 11
14.1019
 21
14.0748
  0
LINE
  8
0
 10
14.1019
 20
14.0748
 11
13.8732
 21
14.0401
  0
LINE
  8
0
 10
13.8732
 20
14.0401
 11
13.8172
 21
14.0315
  0
LINE
  8
0
 10
13.8172
 20
14.0315
 11
13.5872
 21
14.0554
  0
LINE
  8
0
 10
13.5872
 20
14.0554
 11
13.5308
 21
14.0612
  0
LINE
  8
0
 10
13.5308
 20
14.0612
 11
13.3141
 21
14.142
  0
LINE
  8
0
 10
13.3141
 20
14.142
 11
13.261
 21
14.1618
  0
LINE
  8
0
 10
13.261
 20
14.1618
 11
13.0716
 21
14.2945
  0
LINE
  8
0
 10
13.0716
 20
14.2945
 11
13.0252
 21
14.327
  0
LINE
  8
0
 10
13.0252
 20
14.327
 11
12.1849
 21
15.0377
  0
LINE
  8
0
 10
12.1849
 20
15.0377
 11
11.9665
 21
15.2223
  0
LINE
  8
0
 10
11.9665
 20
15.2223
 11
11.0776
 21
15.8711
  0
LINE
  8
0
 10
11.0776
 20
15.8711
 11
10.8466
 21
16.0396
  0
LINE
  8
0
 10
10.8466
 20
16.0396
 11
9.91344
 21
16.6231
  0
LINE
  8
0
 10
9.91344
 20
16.6231
 11
9.67099
 21
16.7747
  0
LINE
  8
0
 10
9.67099
 20
16.7747
 11
8.6985
 21
17.2898
  0
LINE
  8
0
 10
8.6985
 20
17.2898
 11
8.44582
 21
17.4237
  0
LINE
  8
0
 10
8.44582
 20
17.4237
 11
7.43896
 21
17.868
  0
LINE
  8
0
 10
7.43896
 20
17.868
 11
7.17735
 21
17.9834
  0
LINE
  8
0
 10
7.17735
 20
17.9834
 11
6.14128
 21
18.3545
  0
LINE
  8
0
 10
6.14128
 20
18.3545
 11
5.87208
 21
18.4509
  0
LINE
  8
0
 10
5.87208
 20
18.4509
 11
5.66219
 21
18.5485
  0
LINE
  8
0
 10
5.66219
 20
18.5485
 11
5.61077
 21
18.5724
  0
LINE
  8
0
 10
5.61077
 20
18.5724
 11
5.43214
 21
18.7196
  0
LINE
  8
0
 10
5.43214
 20
18.7196
 11
5.38838
 21
18.7556
  0
LINE
  8
0
 10
5.38838
 20
18.7556
 11
5.25249
 21
18.943
  0
LINE
  8
0
 10
5.25249
 20
18.943
 11
5.21919
 21
18.9889
  0
LINE
  8
0
 10
5.21919
 20
18.9889
 11
5.13476
 21
19.2044
  0
LINE
  8
0
 10
5.13476
 20
19.2044
 11
5.11407
 21
19.2572
  0
LINE
  8
0
 10
5.11407
 20
19.2572
 11
5.08652
 21
19.487
  0
LINE
  8
0
 10
5.08652
 20
19.487
 11
5.07977
 21
19.5433
  0
LINE
  8
0
 10
5.07977
 20
19.5433
 11
5.11087
 21
19.7727
  0
LINE
  8
0
 10
5.11087
 20
19.7727
 11
5.11849
 21
19.8289
  0
LINE
  8
0
 10
5.11849
 20
19.8289
 11
5.94556
 21
22.9156
  0
LINE
  8
0
 10
5.94556
 20
22.9156
 11
6.03063
 21
23.2331
  0
LINE
  8
0
 10
6.03063
 20
23.2331
 11
6.44416
 21
24.7764
  0
LINE
  8
0
 10
6.44416
 20
24.7764
 11
6.77263
 21
26.0022
  0
LINE
  8
0
 10
6.77263
 20
26.0022
 11
6.80178
 21
26.1659
  0
LINE
  8
0
 10
6.80178
 20
26.1659
 11
6.80296
 21
26.1731
  0
LINE
  8
0
 10
6.80296
 20
26.1731
 11
6.80267
 21
26.1806
  0
LINE
  8
0
 10
6.80267
 20
26.1806
 11
6.79603
 21
26.3469
  0
LINE
  8
0
 10
6.79603
 20
26.3469
 11
6.79402
 21
26.3551
  0
LINE
  8
0
 10
6.79402
 20
26.3551
 11
6.75436
 21
26.5157
  0
LINE
  8
0
 10
6.75436
 20
26.5157
 11
6.75041
 21
26.5241
  0
LINE
  8
0
 10
6.75041
 20
26.5241
 11
6.68016
 21
26.6725
  0
LINE
  8
0
 10
6.68016
 20
26.6725
 11
6.67414
 21
26.6805
  0
LINE
  8
0
 10
6.67414
 20
26.6805
 11
6.57592
 21
26.8113
  0
LINE
  8
0
 10
6.57592
 20
26.8113
 11
6.56799
 21
26.8184
  0
LINE
  8
0
 10
6.56799
 20
26.8184
 11
6.44626
 21
26.9267
  0
LINE
  8
0
 10
6.44626
 20
26.9267
 11
6.43667
 21
26.9323
  0
LINE
  8
0
 10
6.43667
 20
26.9323
 11
6.29572
 21
27.0138
  0
LINE
  8
0
 10
6.29572
 20
27.0138
 11
6.28496
 21
27.0175
  0
LINE
  8
0
 10
6.28496
 20
27.0175
 11
6.12981
 21
27.067
  0
LINE
  8
0
 10
6.12981
 20
27.067
 11
4.87535
 21
27.3119
  0
LINE
  8
0
 10
4.87535
 20
27.3119
 11
4.50278
 21
27.3847
  0
LINE
  8
0
 10
4.50278
 20
27.3847
 11
3.23594
 21
27.5543
  0
LINE
  8
0
 10
3.23594
 20
27.5543
 11
2.85969
 21
27.6047
  0
LINE
  8
0
 10
2.85969
 20
27.6047
 11
1.58498
 21
27.6983
  0
LINE
  8
0
 10
1.58498
 20
27.6983
 11
1.20639
 21
27.7261
  0
LINE
  8
0
 10
1.20639
 20
27.7261
 11
-0.0716308
 21
27.7435
  0
LINE
  8
0
 10
-0.0716308
 20
27.7435
 11
-0.451206
 21
27.7487
  0
LINE
  8
0
 10
-0.451206
 20
27.7487
 11
-1.72799
 21
27.6898
  0
LINE
  8
0
 10
-1.72799
 20
27.6898
 11
-2.1072
 21
27.6723
  0
LINE
  8
0
 10
-2.1072
 20
27.6723
 11
-3.37818
 21
27.5372
  0
LINE
  8
0
 10
-3.37818
 20
27.5372
 11
-3.75567
 21
27.4971
  0
LINE
  8
0
 10
-3.75567
 20
27.4971
 11
-5.01632
 21
27.2864
  0
LINE
  8
0
 10
-5.01632
 20
27.2864
 11
-5.39074
 21
27.2238
  0
LINE
  8
0
 10
-5.39074
 20
27.2238
 11
-6.63656
 21
26.9382
  0
LINE
  8
0
 10
-6.63656
 20
26.9382
 11
-7.00657
 21
26.8534
  0
LINE
  8
0
 10
-7.00657
 20
26.8534
 11
-8.23312
 21
26.4939
  0
LINE
  8
0
 10
-8.23312
 20
26.4939
 11
-8.59741
 21
26.3871
  0
LINE
  8
0
 10
-8.59741
 20
26.3871
 11
-9.80031
 21
25.955
  0
LINE
  8
0
 10
-9.80031
 20
25.955
 11
-10.1576
 21
25.8267
  0
LINE
  8
0
 10
-10.1576
 20
25.8267
 11
-11.3325
 21
25.3236
  0
LINE
  8
0
 10
-11.3325
 20
25.3236
 11
-11.6815
 21
25.1741
  0
LINE
  8
0
 10
-11.6815
 20
25.1741
 11
-12.8243
 21
24.6018
  0
LINE
  8
0
 10
-12.8243
 20
24.6018
 11
-13.1637
 21
24.4318
  0
LINE
  8
0
 10
-13.1637
 20
24.4318
 11
-14.2703
 21
23.7922
  0
LINE
  8
0
 10
-14.2703
 20
23.7922
 11
-14.599
 21
23.6022
  0
LINE
  8
0
 10
-14.599
 20
23.6022
 11
-15.6654
 21
22.8977
  0
LINE
  8
0
 10
-15.6654
 20
22.8977
 11
-15.9822
 21
22.6884
  0
LINE
  8
0
 10
-15.9822
 20
22.6884
 11
-17.0046
 21
21.9215
  0
LINE
  8
0
 10
-17.0046
 20
21.9215
 11
-17.3083
 21
21.6937
  0
LINE
  8
0
 10
-17.3083
 20
21.6937
 11
-18.2832
 21
20.8671
  0
LINE
  8
0
 10
-18.2832
 20
20.8671
 11
-18.5727
 21
20.6216
  0
LINE
  8
0
 10
-18.5727
 20
20.6216
 11
-19.4965
 21
19.7382
  0
LINE
  8
0
 10
-19.4965
 20
19.7382
 11
-19.7708
 21
19.4759
  0
LINE
  8
0
 10
-19.7708
 20
19.4759
 11
-20.6402
 21
18.5389
  0
LINE
  8
0
 10
-20.6402
 20
18.5389
 11
-20.8984
 21
18.2607
  0
LINE
  8
0
 10
-20.8984
 20
18.2607
 11
-21.7103
 21
17.2735
  0
LINE
  8
0
 10
-21.7103
 20
17.2735
 11
-21.9514
 21
16.9803
  0
LINE
  8
0
 10
-21.9514
 20
16.9803
 11
-22.7029
 21
15.9464
  0
LINE
  8
0
 10
-22.7029
 20
15.9464
 11
-22.9261
 21
15.6394
  0
LINE
  8
0
 10
-22.9261
 20
15.6394
 11
-23.6145
 21
14.5624
  0
LINE
  8
0
 10
-23.6145
 20
14.5624
 11
-23.819
 21
14.2426
  0
LINE
  8
0
 10
-23.819
 20
14.2426
 11
-24.4419
 21
13.1265
  0
LINE
  8
0
 10
-24.4419
 20
13.1265
 11
-24.6269
 21
12.795
  0
LINE
  8
0
 10
-24.6269
 20
12.795
 11
-25.182
 21
11.6437
  0
LINE
  8
0
 10
-25.182
 20
11.6437
 11
-25.3469
 21
11.3018
  0
LINE
  8
0
 10
-25.3469
 20
11.3018
 11
-25.8323
 21
10.1194
  0
LINE
  8
0
 10
-25.8323
 20
10.1194
 11
-25.9764
 21
9.76826
  0
LINE
  8
0
 10
-25.9764
 20
9.76826
 11
-26.3904
 21
8.559
  0
LINE
  8
0
 10
-26.3904
 20
8.559
 11
-26.5133
 21
8.19985
  0
LINE
  8
0
 10
-26.5133
 20
8.19985
 11
-26.5479
 21
8.04143
  0
LINE
  8
0
 10
-26.5479
 20
8.04143
 11
-26.5501
 21
8.03036
  0
LINE
  8
0
 10
-22.7749
 20
-11.9062
 11
-22.7278
 21
-11.4587
  0
LINE
  8
0
 10
-22.7278
 20
-11.4587
 11
-22.5888
 21
-11.0307
  0
LINE
  8
0
 10
-22.5888
 20
-11.0307
 11
-22.3638
 21
-10.641
  0
LINE
  8
0
 10
-22.3638
 20
-10.641
 11
-22.0626
 21
-10.3065
  0
LINE
  8
0
 10
-22.0626
 20
-10.3065
 11
-21.6986
 21
-10.042
  0
LINE
  8
0
 10
-21.6986
 20
-10.042
 11
-21.2874
 21
-9.85896
  0
LINE
  8
0
 10
-21.2874
 20
-9.85896
 11
-20.8472
 21
-9.76539
  0
LINE
  8
0
 10
-20.8472
 20
-9.76539
 11
-20.3972
 21
-9.76539
  0
LINE
  8
0
 10
-20.3972
 20
-9.76539
 11
-19.957
 21
-9.85896
  0
LINE
  8
0
 10
-19.957
 20
-9.85896
 11
-19.5459
 21
-10.042
  0
LINE
  8
0
 10
-19.5459
 20
-10.042
 11
-19.1818
 21
-10.3065
  0
LINE
  8
0
 10
-19.1818
 20
-10.3065
 11
-18.8807
 21
-10.641
  0
LINE
  8
0
 10
-18.8807
 20
-10.641
 11
-18.6557
 21
-11.0307
  0
LINE
  8
0
 10
-18.6557
 20
-11.0307
 11
-18.5166
 21
-11.4587
  0
LINE
  8
0
 10
-18.5166
 20
-11.4587
 11
-18.4696
 21
-11.9062
  0
LINE
  8
0
 10
-18.4696
 20
-11.9062
 11
-18.5166
 21
-12.3538
  0
LINE
  8
0
 10
-18.5166
 20
-12.3538
 11
-18.6557
 21
-12.7818
  0
LINE
  8
0
 10
-18.6557
 20
-12.7818
 11
-18.8807
 21
-13.1715
  0
LINE
  8
0
 10
-18.8807
 20
-13.1715
 11
-19.1818
 21
-13.506
  0
LINE
  8
0
 10
-19.1818
 20
-13.506
 11
-19.5459
 21
-13.7705
  0
LINE
  8
0
 10
-19.5459
 20
-13.7705
 11
-19.957
 21
-13.9535
  0
LINE
  8
0
 10
-19.957
 20
-13.9535
 11
-20.3972
 21
-14.0471
  0
LINE
  8
0
 10
-20.3972
 20
-14.0471
 11
-20.8472
 21
-14.0471
  0
LINE
  8
0
 10
-20.8472
 20
-14.0471
 11
-21.2874
 21
-13.9535
  0
LINE
  8
0
 10
-21.2874
 20
-13.9535
 11
-21.6986
 21
-13.7705
  0
LINE
  8
0
 10
-21.6986
 20
-13.7705
 11
-22.0626
 21
-13.506
  0
LINE
  8
0
 10
-22.0626
 20
-13.506
 11
-22.3638
 21
-13.1715
  0
LINE
  8
0
 10
-22.3638
 20
-13.1715
 11
-22.5888
 21
-12.7818
  0
LINE
  8
0
 10
-22.5888
 20
-12.7818
 11
-22.7278
 21
-12.3538
  0
LINE
  8
0
 10
-22.7278
 20
-12.3538
 11
-22.7749
 21
-11.9062
  0
LINE
  8
0
 10
-22.7749
 20
11.9062
 11
-22.7278
 21
12.3538
  0
LINE
  8
0
 10
-22.7278
 20
12.3538
 11
-22.5888
 21
12.7818
  0
LINE
  8
0
 10
-22.5888
 20
12.7818
 11
-22.3638
 21
13.1715
  0
LINE
  8
0
 10
-22.3638
 20
13.1715
 11
-22.0626
 21
13.506
  0
LINE
  8
0
 10
-22.0626
 20
13.506
 11
-21.6986
 21
13.7705
  0
LINE
  8
0
 10
-21.6986
 20
13.7705
 11
-21.2874
 21
13.9535
  0
LINE
  8
0
 10
-21.2874
 20
13.9535
 11
-20.8472
 21
14.0471
  0
LINE
  8
0
 10
-20.8472
 20
14.0471
 11
-20.3972
 21
14.0471
  0
LINE
  8
0
 10
-20.3972
 20
14.0471
 11
-19.957
 21
13.9535
  0
LINE
  8
0
 10
-19.957
 20
13.9535
 11
-19.5459
 21
13.7705
  0
LINE
  8
0
 10
-19.5459
 20
13.7705
 11
-19.1818
 21
13.506
  0
LINE
  8
0
 10
-19.1818
 20
13.506
 11
-18.8807
 21
13.1715
  0
LINE
  8
0
 10
-18.8807
 20
13.1715
 11
-18.6557
 21
12.7818
  0
LINE
  8
0
 10
-18.6557
 20
12.7818
 11
-18.5166
 21
12.3538
  0
LINE
  8
0
 10
-18.5166
 20
12.3538
 11
-18.4696
 21
11.9062
  0
LINE
  8
0
 10
-18.4696
 20
11.9062
 11
-18.5166
 21
11.4587
  0
LINE
  8
0
 10
-18.5166
 20
11.4587
 11
-18.6557
 21
11.0307
  0
LINE
  8
0
 10
-18.6557
 20
11.0307
 11
-18.8807
 21
10.641
  0
LINE
  8
0
 10
-18.8807
 20
10.641
 11
-19.1818
 21
10.3065
  0
LINE
  8
0
 10
-19.1818
 20
10.3065
 11
-19.5459
 21
10.042
  0
LINE
  8
0
 10
-19.5459
 20
10.042
 11
-19.957
 21
9.85896
  0
LINE
  8
0
 10
-19.957
 20
9.85896
 11
-20.3972
 21
9.76539
  0
LINE
  8
0
 10
-20.3972
 20
9.76539
 11
-20.8472
 21
9.76539
  0
LINE
  8
0
 10
-20.8472
 20
9.76539
 11
-21.2874
 21
9.85896
  0
LINE
  8
0
 10
-21.2874
 20
9.85896
 11
-21.6986
 21
10.042
  0
LINE
  8
0
 10
-21.6986
 20
10.042
 11
-22.0626
 21
10.3065
  0
LINE
  8
0
 10
-22.0626
 20
10.3065
 11
-22.3638
 21
10.641
  0
LINE
  8
0
 10
-22.3638
 20
10.641
 11
-22.5888
 21
11.0307
  0
LINE
  8
0
 10
-22.5888
 20
11.0307
 11
-22.7278
 21
11.4587
  0
LINE
  8
0
 10
-22.7278
 20
11.4587
 11
-22.7749
 21
11.9062
  0
LINE
  8
0
 10
-14.7813
 20
-0.60341
 11
-14.7813
 21
0.60341
  0
LINE
  8
0
 10
-14.7813
 20
0.60341
 11
-14.7589
 21
0.876883
  0
LINE
  8
0
 10
-14.7589
 20
0.876883
 11
-14.6829
 21
1.80622
  0
LINE
  8
0
 10
-14.6829
 20
1.80622
 11
-14.6384
 21
2.07696
  0
LINE
  8
0
 10
-14.6384
 20
2.07696
 11
-14.4869
 21
2.997
  0
LINE
  8
0
 10
-14.4869
 20
2.997
 11
-14.4204
 21
3.26321
  0
LINE
  8
0
 10
-14.4204
 20
3.26321
 11
-14.1944
 21
4.16784
  0
LINE
  8
0
 10
-14.1944
 20
4.16784
 11
-14.1064
 21
4.42774
  0
LINE
  8
0
 10
-14.1064
 20
4.42774
 11
-13.8074
 21
5.31095
  0
LINE
  8
0
 10
-13.8074
 20
5.31095
 11
-13.6986
 21
5.56281
  0
LINE
  8
0
 10
-13.6986
 20
5.56281
 11
-13.3286
 21
6.41871
  0
LINE
  8
0
 10
-13.3286
 20
6.41871
 11
-13.1996
 21
6.66086
  0
LINE
  8
0
 10
-13.1996
 20
6.66086
 11
-12.7611
 21
7.48376
  0
LINE
  8
0
 10
-12.7611
 20
7.48376
 11
-12.6127
 21
7.71458
  0
LINE
  8
0
 10
-12.6127
 20
7.71458
 11
-12.1086
 21
8.499
  0
LINE
  8
0
 10
-12.1086
 20
8.499
 11
-11.9419
 21
8.71697
  0
LINE
  8
0
 10
-11.9419
 20
8.71697
 11
-11.3756
 21
9.45768
  0
LINE
  8
0
 10
-11.3756
 20
9.45768
 11
-11.1917
 21
9.66134
  0
LINE
  8
0
 10
-11.1917
 20
9.66134
 11
-10.5668
 21
10.3534
  0
LINE
  8
0
 10
-10.5668
 20
10.3534
 11
-10.367
 21
10.5414
  0
LINE
  8
0
 10
-10.367
 20
10.5414
 11
-9.68776
 21
11.1803
  0
LINE
  8
0
 10
-9.68776
 20
11.1803
 11
-9.47324
 21
11.3513
  0
LINE
  8
0
 10
-9.47324
 20
11.3513
 11
-8.74423
 21
11.9327
  0
LINE
  8
0
 10
-8.74423
 20
11.9327
 11
-8.51647
 21
12.0857
  0
LINE
  8
0
 10
-8.51647
 20
12.0857
 11
-7.74251
 21
12.6057
  0
LINE
  8
0
 10
-7.74251
 20
12.6057
 11
-7.50304
 21
12.7397
  0
LINE
  8
0
 10
-7.50304
 20
12.7397
 11
-6.68926
 21
13.1949
  0
LINE
  8
0
 10
-6.68926
 20
13.1949
 11
-6.43967
 21
13.3089
  0
LINE
  8
0
 10
-6.43967
 20
13.3089
 11
-5.59149
 21
13.6962
  0
LINE
  8
0
 10
-5.59149
 20
13.6962
 11
-5.33344
 21
13.7895
  0
LINE
  8
0
 10
-5.33344
 20
13.7895
 11
-4.45652
 21
14.1064
  0
LINE
  8
0
 10
-4.45652
 20
14.1064
 11
-4.19173
 21
14.1783
  0
LINE
  8
0
 10
-4.19173
 20
14.1783
 11
-3.29189
 21
14.4227
  0
LINE
  8
0
 10
-3.29189
 20
14.4227
 11
-3.02211
 21
14.4728
  0
LINE
  8
0
 10
-3.02211
 20
14.4728
 11
-2.10535
 21
14.643
  0
LINE
  8
0
 10
-2.10535
 20
14.643
 11
-1.83239
 21
14.671
  0
LINE
  8
0
 10
-1.83239
 20
14.671
 11
-0.904802
 21
14.7659
  0
LINE
  8
0
 10
-0.904802
 20
14.7659
 11
-0.630473
 21
14.7715
  0
LINE
  8
0
 10
-0.630473
 20
14.7715
 11
0.301768
 21
14.7905
  0
LINE
  8
0
 10
0.301768
 20
14.7905
 11
0.57564
 21
14.7738
  0
LINE
  8
0
 10
0.57564
 20
14.7738
 11
1.50633
 21
14.7167
  0
LINE
  8
0
 10
1.50633
 20
14.7167
 11
1.77792
 21
14.6777
  0
LINE
  8
0
 10
1.77792
 20
14.6777
 11
2.70087
 21
14.545
  0
LINE
  8
0
 10
2.70087
 20
14.545
 11
2.96837
 21
14.4839
  0
LINE
  8
0
 10
2.96837
 20
14.4839
 11
3.87743
 21
14.2764
  0
LINE
  8
0
 10
3.87743
 20
14.2764
 11
4.13907
 21
14.1938
  0
LINE
  8
0
 10
4.13907
 20
14.1938
 11
5.02819
 21
13.9129
  0
LINE
  8
0
 10
5.02819
 20
13.9129
 11
5.28222
 21
13.8092
  0
LINE
  8
0
 10
5.28222
 20
13.8092
 11
6.14549
 21
13.4567
  0
LINE
  8
0
 10
6.14549
 20
13.4567
 11
6.39022
 21
13.3327
  0
LINE
  8
0
 10
6.39022
 20
13.3327
 11
7.22189
 21
12.9111
  0
LINE
  8
0
 10
7.22189
 20
12.9111
 11
7.4557
 21
12.7675
  0
LINE
  8
0
 10
7.4557
 20
12.7675
 11
8.25023
 21
12.2794
  0
LINE
  8
0
 10
8.25023
 20
12.2794
 11
8.47156
 21
12.1173
  0
LINE
  8
0
 10
8.47156
 20
12.1173
 11
9.22367
 21
11.5661
  0
LINE
  8
0
 10
9.22367
 20
11.5661
 11
9.43104
 21
11.3864
  0
LINE
  8
0
 10
9.43104
 20
11.3864
 11
10.1357
 21
10.7758
  0
LINE
  8
0
 10
10.1357
 20
10.7758
 11
10.3278
 21
10.5798
  0
LINE
  8
0
 10
10.3278
 20
10.5798
 11
10.9803
 21
9.9138
  0
LINE
  8
0
 10
10.9803
 20
9.9138
 11
11.1557
 21
9.70282
  0
LINE
  8
0
 10
11.1557
 20
9.70282
 11
11.7519
 21
8.98582
  0
LINE
  8
0
 10
11.7519
 20
8.98582
 11
11.9095
 21
8.76123
  0
LINE
  8
0
 10
11.9095
 20
8.76123
 11
12.4452
 21
7.99803
  0
LINE
  8
0
 10
12.4452
 20
7.99803
 11
12.584
 21
7.76135
  0
LINE
  8
0
 10
12.584
 20
7.76135
 11
13.0557
 21
6.95702
  0
LINE
  8
0
 10
13.0557
 20
6.95702
 11
13.1747
 21
6.70981
  0
LINE
  8
0
 10
13.1747
 20
6.70981
 11
13.5793
 21
5.86971
  0
LINE
  8
0
 10
13.5793
 20
5.86971
 11
13.6778
 21
5.61362
  0
LINE
  8
0
 10
13.6778
 20
5.61362
 11
14.0126
 21
4.74334
  0
LINE
  8
0
 10
14.0126
 20
4.74334
 11
14.0899
 21
4.48007
  0
LINE
  8
0
 10
14.0899
 20
4.48007
 11
14.3526
 21
3.58541
  0
LINE
  8
0
 10
14.3526
 20
3.58541
 11
14.4081
 21
3.31671
  0
LINE
  8
0
 10
14.4081
 20
3.31671
 11
14.597
 21
2.40361
  0
LINE
  8
0
 10
14.597
 20
2.40361
 11
14.6305
 21
2.13128
  0
LINE
  8
0
 10
14.6305
 20
2.13128
 11
14.7444
 21
1.20582
  0
LINE
  8
0
 10
14.7444
 20
1.20582
 11
14.7556
 21
0.931659
  0
LINE
  8
0
 10
14.7556
 20
0.931659
 11
14.7936
 21
0
  0
LINE
  8
0
 10
14.7936
 20
0
 11
14.7824
 21
-0.274157
  0
LINE
  8
0
 10
14.7824
 20
-0.274157
 11
14.7444
 21
-1.20582
  0
LINE
  8
0
 10
14.7444
 20
-1.20582
 11
14.7109
 21
-1.47815
  0
LINE
  8
0
 10
14.7109
 20
-1.47815
 11
14.597
 21
-2.40361
  0
LINE
  8
0
 10
14.597
 20
-2.40361
 11
14.5415
 21
-2.67231
  0
LINE
  8
0
 10
14.5415
 20
-2.67231
 11
14.3526
 21
-3.58541
  0
LINE
  8
0
 10
14.3526
 20
-3.58541
 11
14.2753
 21
-3.84868
  0
LINE
  8
0
 10
14.2753
 20
-3.84868
 11
14.0126
 21
-4.74334
  0
LINE
  8
0
 10
14.0126
 20
-4.74334
 11
13.9141
 21
-4.99944
  0
LINE
  8
0
 10
13.9141
 20
-4.99944
 11
13.5793
 21
-5.86971
  0
LINE
  8
0
 10
13.5793
 20
-5.86971
 11
13.4603
 21
-6.11693
  0
LINE
  8
0
 10
13.4603
 20
-6.11693
 11
13.0557
 21
-6.95702
  0
LINE
  8
0
 10
13.0557
 20
-6.95702
 11
12.9169
 21
-7.19371
  0
LINE
  8
0
 10
12.9169
 20
-7.19371
 11
12.4452
 21
-7.99803
  0
LINE
  8
0
 10
12.4452
 20
-7.99803
 11
12.2875
 21
-8.22262
  0
LINE
  8
0
 10
12.2875
 20
-8.22262
 11
11.7519
 21
-8.98582
  0
LINE
  8
0
 10
11.7519
 20
-8.98582
 11
11.5764
 21
-9.19681
  0
LINE
  8
0
 10
11.5764
 20
-9.19681
 11
10.9803
 21
-9.9138
  0
LINE
  8
0
 10
10.9803
 20
-9.9138
 11
10.7883
 21
-10.1098
  0
LINE
  8
0
 10
10.7883
 20
-10.1098
 11
10.1357
 21
-10.7758
  0
LINE
  8
0
 10
10.1357
 20
-10.7758
 11
9.92836
 21
-10.9555
  0
LINE
  8
0
 10
9.92836
 20
-10.9555
 11
9.22367
 21
-11.5661
  0
LINE
  8
0
 10
9.22367
 20
-11.5661
 11
9.00235
 21
-11.7283
  0
LINE
  8
0
 10
9.00235
 20
-11.7283
 11
8.25023
 21
-12.2794
  0
LINE
  8
0
 10
8.25023
 20
-12.2794
 11
8.01643
 21
-12.4231
  0
LINE
  8
0
 10
8.01643
 20
-12.4231
 11
7.22189
 21
-12.9111
  0
LINE
  8
0
 10
7.22189
 20
-12.9111
 11
6.97716
 21
-13.0351
  0
LINE
  8
0
 10
6.97716
 20
-13.0351
 11
6.14549
 21
-13.4567
  0
LINE
  8
0
 10
6.14549
 20
-13.4567
 11
5.89146
 21
-13.5605
  0
LINE
  8
0
 10
5.89146
 20
-13.5605
 11
5.02819
 21
-13.9129
  0
LINE
  8
0
 10
5.02819
 20
-13.9129
 11
4.76655
 21
-13.9955
  0
LINE
  8
0
 10
4.76655
 20
-13.9955
 11
3.87743
 21
-14.2764
  0
LINE
  8
0
 10
3.87743
 20
-14.2764
 11
3.60993
 21
-14.3375
  0
LINE
  8
0
 10
3.60993
 20
-14.3375
 11
2.70087
 21
-14.545
  0
LINE
  8
0
 10
2.70087
 20
-14.545
 11
2.42927
 21
-14.584
  0
LINE
  8
0
 10
2.42927
 20
-14.584
 11
1.50633
 21
-14.7167
  0
LINE
  8
0
 10
1.50633
 20
-14.7167
 11
1.23246
 21
-14.7335
  0
LINE
  8
0
 10
1.23246
 20
-14.7335
 11
0.301768
 21
-14.7905
  0
LINE
  8
0
 10
0.301768
 20
-14.7905
 11
0.027439
 21
-14.7849
  0
LINE
  8
0
 10
0.027439
 20
-14.7849
 11
-0.904802
 21
-14.7659
  0
LINE
  8
0
 10
-0.904802
 20
-14.7659
 11
-1.17776
 21
-14.738
  0
LINE
  8
0
 10
-1.17776
 20
-14.738
 11
-2.10535
 21
-14.643
  0
LINE
  8
0
 10
-2.10535
 20
-14.643
 11
-2.37513
 21
-14.5929
  0
LINE
  8
0
 10
-2.37513
 20
-14.5929
 11
-3.29189
 21
-14.4227
  0
LINE
  8
0
 10
-3.29189
 20
-14.4227
 11
-3.55668
 21
-14.3508
  0
LINE
  8
0
 10
-3.55668
 20
-14.3508
 11
-4.45652
 21
-14.1064
  0
LINE
  8
0
 10
-4.45652
 20
-14.1064
 11
-4.71457
 21
-14.0131
  0
LINE
  8
0
 10
-4.71457
 20
-14.0131
 11
-5.59149
 21
-13.6962
  0
LINE
  8
0
 10
-5.59149
 20
-13.6962
 11
-5.84108
 21
-13.5822
  0
LINE
  8
0
 10
-5.84108
 20
-13.5822
 11
-6.68926
 21
-13.1949
  0
LINE
  8
0
 10
-6.68926
 20
-13.1949
 11
-6.92873
 21
-13.0609
  0
LINE
  8
0
 10
-6.92873
 20
-13.0609
 11
-7.74251
 21
-12.6057
  0
LINE
  8
0
 10
-7.74251
 20
-12.6057
 11
-7.97026
 21
-12.4527
  0
LINE
  8
0
 10
-7.97026
 20
-12.4527
 11
-8.74423
 21
-11.9327
  0
LINE
  8
0
 10
-8.74423
 20
-11.9327
 11
-8.95875
 21
-11.7616
  0
LINE
  8
0
 10
-8.95875
 20
-11.7616
 11
-9.68776
 21
-11.1803
  0
LINE
  8
0
 10
-9.68776
 20
-11.1803
 11
-9.88762
 21
-10.9923
  0
LINE
  8
0
 10
-9.88762
 20
-10.9923
 11
-10.5668
 21
-10.3534
  0
LINE
  8
0
 10
-10.5668
 20
-10.3534
 11
-10.7507
 21
-10.1498
  0
LINE
  8
0
 10
-10.7507
 20
-10.1498
 11
-11.3756
 21
-9.45768
  0
LINE
  8
0
 10
-11.3756
 20
-9.45768
 11
-11.5422
 21
-9.23971
  0
LINE
  8
0
 10
-11.5422
 20
-9.23971
 11
-12.1086
 21
-8.499
  0
LINE
  8
0
 10
-12.1086
 20
-8.499
 11
-12.2569
 21
-8.26817
  0
LINE
  8
0
 10
-12.2569
 20
-8.26817
 11
-12.7611
 21
-7.48376
  0
LINE
  8
0
 10
-12.7611
 20
-7.48376
 11
-12.8901
 21
-7.2416
  0
LINE
  8
0
 10
-12.8901
 20
-7.2416
 11
-13.3286
 21
-6.41871
  0
LINE
  8
0
 10
-13.3286
 20
-6.41871
 11
-13.4375
 21
-6.16685
  0
LINE
  8
0
 10
-13.4375
 20
-6.16685
 11
-13.8074
 21
-5.31095
  0
LINE
  8
0
 10
-13.8074
 20
-5.31095
 11
-13.8954
 21
-5.05105
  0
LINE
  8
0
 10
-13.8954
 20
-5.05105
 11
-14.1944
 21
-4.16784
  0
LINE
  8
0
 10
-14.1944
 20
-4.16784
 11
-14.2609
 21
-3.90164
  0
LINE
  8
0
 10
-14.2609
 20
-3.90164
 11
-14.4869
 21
-2.997
  0
LINE
  8
0
 10
-14.4869
 20
-2.997
 11
-14.5314
 21
-2.72626
  0
LINE
  8
0
 10
-14.5314
 20
-2.72626
 11
-14.6829
 21
-1.80622
  0
LINE
  8
0
 10
-14.6829
 20
-1.80622
 11
-14.7053
 21
-1.53274
  0
LINE
  8
0
 10
-14.7053
 20
-1.53274
 11
-14.7813
 21
-0.60341
  0
LINE
  8
0
 10
-2.15265
 20
-23.8125
 11
-2.10561
 21
-23.3649
  0
LINE
  8
0
 10
-2.10561
 20
-23.3649
 11
-1.96654
 21
-22.9369
  0
LINE
  8
0
 10
-1.96654
 20
-22.9369
 11
-1.74153
 21
-22.5472
  0
LINE
  8
0
 10
-1.74153
 20
-22.5472
 11
-1.4404
 21
-22.2128
  0
LINE
  8
0
 10
-1.4404
 20
-22.2128
 11
-1.07632
 21
-21.9482
  0
LINE
  8
0
 10
-1.07632
 20
-21.9482
 11
-0.665205
 21
-21.7652
  0
LINE
  8
0
 10
-0.665205
 20
-21.7652
 11
-0.225013
 21
-21.6716
  0
LINE
  8
0
 10
-0.225013
 20
-21.6716
 11
0.225013
 21
-21.6716
  0
LINE
  8
0
 10
0.225013
 20
-21.6716
 11
0.665205
 21
-21.7652
  0
LINE
  8
0
 10
0.665205
 20
-21.7652
 11
1.07632
 21
-21.9482
  0
LINE
  8
0
 10
1.07632
 20
-21.9482
 11
1.4404
 21
-22.2128
  0
LINE
  8
0
 10
1.4404
 20
-22.2128
 11
1.74153
 21
-22.5472
  0
LINE
  8
0
 10
1.74153
 20
-22.5472
 11
1.96654
 21
-22.9369
  0
LINE
  8
0
 10
1.96654
 20
-22.9369
 11
2.10561
 21
-23.3649
  0
LINE
  8
0
 10
2.10561
 20
-23.3649
 11
2.15265
 21
-23.8125
  0
LINE
  8
0
 10
2.15265
 20
-23.8125
 11
2.10561
 21
-24.2601
  0
LINE
  8
0
 10
2.10561
 20
-24.2601
 11
1.96654
 21
-24.6881
  0
LINE
  8
0
 10
1.96654
 20
-24.6881
 11
1.74153
 21
-25.0778
  0
LINE
  8
0
 10
1.74153
 20
-25.0778
 11
1.4404
 21
-25.4122
  0
LINE
  8
0
 10
1.4404
 20
-25.4122
 11
1.07632
 21
-25.6768
  0
LINE
  8
0
 10
1.07632
 20
-25.6768
 11
0.665205
 21
-25.8598
  0
LINE
  8
0
 10
0.665205
 20
-25.8598
 11
0.225013
 21
-25.9534
  0
LINE
  8
0
 10
0.225013
 20
-25.9534
 11
-0.225013
 21
-25.9534
  0
LINE
  8
0
 10
-0.225013
 20
-25.9534
 11
-0.665205
 21
-25.8598
  0
LINE
  8
0
 10
-0.665205
 20
-25.8598
 11
-1.07632
 21
-25.6768
  0
LINE
  8
0
 10
-1.07632
 20
-25.6768
 11
-1.4404
 21
-25.4122
  0
LINE
  8
0
 10
-1.4404
 20
-25.4122
 11
-1.74153
 21
-25.0778
  0
LINE
  8
0
 10
-1.74153
 20
-25.0778
 11
-1.96654
 21
-24.6881
  0
LINE
  8
0
 10
-1.96654
 20
-24.6881
 11
-2.10561
 21
-24.2601
  0
LINE
  8
0
 10
-2.10561
 20
-24.2601
 11
-2.15265
 21
-23.8125
  0
LINE
  8
0
 10
-2.15265
 20
23.8125
 11
-2.10561
 21
24.2601
  0
LINE
  8
0
 10
-2.10561
 20
24.2601
 11
-1.96654
 21
24.6881
  0
LINE
  8
0
 10
-1.96654
 20
24.6881
 11
-1.74153
 21
25.0778
  0
LINE
  8
0
 10
-1.74153
 20
25.0778
 11
-1.4404
 21
25.4122
  0
LINE
  8
0
 10
-1.4404
 20
25.4122
 11
-1.07632
 21
25.6768
  0
LINE
  8
0
 10
-1.07632
 20
25.6768
 11
-0.665205
 21
25.8598
  0
LINE
  8
0
 10
-0.665205
 20
25.8598
 11
-0.225013
 21
25.9534
  0
LINE
  8
0
 10
-0.225013
 20
25.9534
 11
0.225013
 21
25.9534
  0
LINE
  8
0
 10
0.225013
 20
25.9534
 11
0.665205
 21
25.8598
  0
LINE
  8
0
 10
0.665205
 20
25.8598
 11
1.07632
 21
25.6768
  0
LINE
  8
0
 10
1.07632
 20
25.6768
 11
1.4404
 21
25.4122
  0
LINE
  8
0
 10
1.4404
 20
25.4122
 11
1.74153
 21
25.0778
  0
LINE
  8
0
 10
1.74153
 20
25.0778
 11
1.96654
 21
24.6881
  0
LINE
  8
0
 10
1.96654
 20
24.6881
 11
2.10561
 21
24.2601
  0
LINE
  8
0
 10
2.10561
 20
24.2601
 11
2.15265
 21
23.8125
  0
LINE
  8
0
 10
2.15265
 20
23.8125
 11
2.10561
 21
23.3649
  0
LINE
  8
0
 10
2.10561
 20
23.3649
 11
1.96654
 21
22.9369
  0
LINE
  8
0
 10
1.96654
 20
22.9369
 11
1.74153
 21
22.5472
  0
LINE
  8
0
 10
1.74153
 20
22.5472
 11
1.4404
 21
22.2128
  0
LINE
  8
0
 10
1.4404
 20
22.2128
 11
1.07632
 21
21.9482
  0
LINE
  8
0
 10
1.07632
 20
21.9482
 11
0.665205
 21
21.7652
  0
LINE
  8
0
 10
0.665205
 20
21.7652
 11
0.225013
 21
21.6716
  0
LINE
  8
0
 10
0.225013
 20
21.6716
 11
-0.225013
 21
21.6716
  0
LINE
  8
0
 10
-0.225013
 20
21.6716
 11
-0.665205
 21
21.7652
  0
LINE
  8
0
 10
-0.665205
 20
21.7652
 11
-1.07632
 21
21.9482
  0
LINE
  8
0
 10
-1.07632
 20
21.9482
 11
-1.4404
 21
22.2128
  0
LINE
  8
0
 10
-1.4404
 20
22.2128
 11
-1.74153
 21
22.5472
  0
LINE
  8
0
 10
-1.74153
 20
22.5472
 11
-1.96654
 21
22.9369
  0
LINE
  8
0
 10
-1.96654
 20
22.9369
 11
-2.10561
 21
23.3649
  0
LINE
  8
0
 10
-2.10561
 20
23.3649
 11
-2.15265
 21
23.8125
  0
LINE
  8
0
 10
18.4696
 20
-11.9062
 11
18.5166
 21
-11.4587
  0
LINE
  8
0
 10
18.5166
 20
-11.4587
 11
18.6557
 21
-11.0307
  0
LINE
  8
0
 10
18.6557
 20
-11.0307
 11
18.8807
 21
-10.641
  0
LINE
  8
0
 10
18.8807
 20
-10.641
 11
19.1818
 21
-10.3065
  0
LINE
  8
0
 10
19.1818
 20
-10.3065
 11
19.5459
 21
-10.042
  0
LINE
  8
0
 10
19.5459
 20
-10.042
 11
19.957
 21
-9.85896
  0
LINE
  8
0
 10
19.957
 20
-9.85896
 11
20.3972
 21
-9.76539
  0
LINE
  8
0
 10
20.3972
 20
-9.76539
 11
20.8472
 21
-9.76539
  0
LINE
  8
0
 10
20.8472
 20
-9.76539
 11
21.2874
 21
-9.85896
  0
LINE
  8
0
 10
21.2874
 20
-9.85896
 11
21.6986
 21
-10.042
  0
LINE
  8
0
 10
21.6986
 20
-10.042
 11
22.0626
 21
-10.3065
  0
LINE
  8
0
 10
22.0626
 20
-10.3065
 11
22.3638
 21
-10.641
  0
LINE
  8
0
 10
22.3638
 20
-10.641
 11
22.5888
 21
-11.0307
  0
LINE
  8
0
 10
22.5888
 20
-11.0307
 11
22.7278
 21
-11.4587
  0
LINE
  8
0
 10
22.7278
 20
-11.4587
 11
22.7749
 21
-11.9062
  0
LINE
  8
0
 10
22.7749
 20
-11.9062
 11
22.7278
 21
-12.3538
  0
LINE
  8
0
 10
22.7278
 20
-12.3538
 11
22.5888
 21
-12.7818
  0
LINE
  8
0
 10
22.5888
 20
-12.7818
 11
22.3638
 21
-13.1715
  0
LINE
  8
0
 10
22.3638
 20
-13.1715
 11
22.0626
 21
-13.506
  0
LINE
  8
0
 10
22.0626
 20
-13.506
 11
21.6986
 21
-13.7705
  0
LINE
  8
0
 10
21.6986
 20
-13.7705
 11
21.2874
 21
-13.9535
  0
LINE
  8
0
 10
21.2874
 20
-13.9535
 11
20.8472
 21
-14.0471
  0
LINE
  8
0
 10
20.8472
 20
-14.0471
 11
20.3972
 21
-14.0471
  0
LINE
  8
0
 10
20.3972
 20
-14.0471
 11
19.957
 21
-13.9535
  0
LINE
  8
0
 10
19.957
 20
-13.9535
 11
19.5459
 21
-13.7705
  0
LINE
  8
0
 10
19.5459
 20
-13.7705
 11
19.1818
 21
-13.506
  0
LINE
  8
0
 10
19.1818
 20
-13.506
 11
18.8807
 21
-13.1715
  0
LINE
  8
0
 10
18.8807
 20
-13.1715
 11
18.6557
 21
-12.7818
  0
LINE
  8
0
 10
18.6557
 20
-12.7818
 11
18.5166
 21
-12.3538
  0
LINE
  8
0
 10
18.5166
 20
-12.3538
 11
18.4696
 21
-11.9062
  0
LINE
  8
0
 10
18.4696
 20
11.9062
 11
18.5166
 21
12.3538
  0
LINE
  8
0
 10
18.5166
 20
12.3538
 11
18.6557
 21
12.7818
  0
LINE
  8
0
 10
18.6557
 20
12.7818
 11
18.8807
 21
13.1715
  0
LINE
  8
0
 10
18.8807
 20
13.1715
 11
19.1818
 21
13.506
  0
LINE
  8
0
 10
19.1818
 20
13.506
 11
19.5459
 21
13.7705
  0
LINE
  8
0
 10
19.5459
 20
13.7705
 11
19.957
 21
13.9535
  0
LINE
  8
0
 10
19.957
 20
13.9535
 11
20.3972
 21
14.0471
  0
LINE
  8
0
 10
20.3972
 20
14.0471
 11
20.8472
 21
14.0471
  0
LINE
  8
0
 10
20.8472
 20
14.0471
 11
21.2874
 21
13.9535
  0
LINE
  8
0
 10
21.2874
 20
13.9535
 11
21.6986
 21
13.7705
  0
LINE
  8
0
 10
21.6986
 20
13.7705
 11
22.0626
 21
13.506
  0
LINE
  8
0
 10
22.0626
 20
13.506
 11
22.3638
 21
13.1715
  0
LINE
  8
0
 10
22.3638
 20
13.1715
 11
22.5888
 21
12.7818
  0
LINE
  8
0
 10
22.5888
 20
12.7818
 11
22.7278
 21
12.3538
  0
LINE
  8
0
 10
22.7278
 20
12.3538
 11
22.7749
 21
11.9062
  0
LINE
  8
0
 10
22.7749
 20
11.9062
 11
22.7278
 21
11.4587
  0
LINE
  8
0
 10
22.7278
 20
11.4587
 11
22.5888
 21
11.0307
  0
LINE
  8
0
 10
22.5888
 20
11.0307
 11
22.3638
 21
10.641
  0
LINE
  8
0
 10
22.3638
 20
10.641
 11
22.0626
 21
10.3065
  0
LINE
  8
0
 10
22.0626
 20
10.3065
 11
21.6986
 21
10.042
  0
LINE
  8
0
 10
21.6986
 20
10.042
 11
21.2874
 21
9.85896
  0
LINE
  8
0
 10
21.2874
 20
9.85896
 11
20.8472
 21
9.76539
  0
LINE
  8
0
 10
20.8472
 20
9.76539
 11
20.3972
 21
9.76539
  0
LINE
  8
0
 10
20.3972
 20
9.76539
 11
19.957
 21
9.85896
  0
LINE
  8
0
 10
19.957
 20
9.85896
 11
19.5459
 21
10.042
  0
LINE
  8
0
 10
19.5459
 20
10.042
 11
19.1818
 21
10.3065
  0
LINE
  8
0
 10
19.1818
 20
10.3065
 11
18.8807
 21
10.641
  0
LINE
  8
0
 10
18.8807
 20
10.641
 11
18.6557
 21
11.0307
  0
LINE
  8
0
 10
18.6557
 20
11.0307
 11
18.5166
 21
11.4587
  0
LINE
  8
0
 10
18.5166
 20
11.4587
 11
18.4696
 21
11.9062
  0
LINE
  8
0
 10
-14.2947
 20
-0.587086
 11
-14.2212
 21
-1.48608
  0
LINE
  8
0
 10
-14.2212
 20
-1.48608
 11
-14.1984
 21
-1.7573
  0
LINE
  8
0
 10
-14.1984
 20
-1.7573
 11
-14.0519
 21
-2.64731
  0
LINE
  8
0
 10
-14.0519
 20
-2.64731
 11
-14.0065
 21
-2.91568
  0
LINE
  8
0
 10
-14.0065
 20
-2.91568
 11
-13.7879
 21
-3.79078
  0
LINE
  8
0
 10
-13.7879
 20
-3.79078
 11
-13.7202
 21
-4.05441
  0
LINE
  8
0
 10
-13.7202
 20
-4.05441
 11
-13.431
 21
-4.90878
  0
LINE
  8
0
 10
-13.431
 20
-4.90878
 11
-13.3415
 21
-5.16582
  0
LINE
  8
0
 10
-13.3415
 20
-5.16582
 11
-12.9836
 21
-5.99377
  0
LINE
  8
0
 10
-12.9836
 20
-5.99377
 11
-12.8729
 21
-6.24242
  0
LINE
  8
0
 10
-12.8729
 20
-6.24242
 11
-12.4487
 21
-7.03845
  0
LINE
  8
0
 10
-12.4487
 20
-7.03845
 11
-12.3176
 21
-7.27696
  0
LINE
  8
0
 10
-12.3176
 20
-7.27696
 11
-11.8299
 21
-8.03577
  0
LINE
  8
0
 10
-11.8299
 20
-8.03577
 11
-11.6793
 21
-8.26247
  0
LINE
  8
0
 10
-11.6793
 20
-8.26247
 11
-11.1314
 21
-8.979
  0
LINE
  8
0
 10
-11.1314
 20
-8.979
 11
-10.9624
 21
-9.19231
  0
LINE
  8
0
 10
-10.9624
 20
-9.19231
 11
-10.3579
 21
-9.8618
  0
LINE
  8
0
 10
-10.3579
 20
-9.8618
 11
-10.1716
 21
-10.0602
  0
LINE
  8
0
 10
-10.1716
 20
-10.0602
 11
-9.51455
 21
-10.6782
  0
LINE
  8
0
 10
-9.51455
 20
-10.6782
 11
-9.31228
 21
-10.8603
  0
LINE
  8
0
 10
-9.31228
 20
-10.8603
 11
-8.60708
 21
-11.4227
  0
LINE
  8
0
 10
-8.60708
 20
-11.4227
 11
-8.39028
 21
-11.5873
  0
LINE
  8
0
 10
-8.39028
 20
-11.5873
 11
-7.64158
 21
-12.0903
  0
LINE
  8
0
 10
-7.64158
 20
-12.0903
 11
-7.41177
 21
-12.2361
  0
LINE
  8
0
 10
-7.41177
 20
-12.2361
 11
-6.62456
 21
-12.6765
  0
LINE
  8
0
 10
-6.62456
 20
-12.6765
 11
-6.38335
 21
-12.8026
  0
LINE
  8
0
 10
-6.38335
 20
-12.8026
 11
-5.56287
 21
-13.1773
  0
LINE
  8
0
 10
-5.56287
 20
-13.1773
 11
-5.31196
 21
-13.2827
  0
LINE
  8
0
 10
-5.31196
 20
-13.2827
 11
-4.46367
 21
-13.5893
  0
LINE
  8
0
 10
-4.46367
 20
-13.5893
 11
-4.20481
 21
-13.6734
  0
LINE
  8
0
 10
-4.20481
 20
-13.6734
 11
-3.33435
 21
-13.9098
  0
LINE
  8
0
 10
-3.33435
 20
-13.9098
 11
-3.06936
 21
-13.972
  0
LINE
  8
0
 10
-3.06936
 20
-13.972
 11
-2.18253
 21
-14.1367
  0
LINE
  8
0
 10
-2.18253
 20
-14.1367
 11
-1.91327
 21
-14.1764
  0
LINE
  8
0
 10
-1.91327
 20
-14.1764
 11
-1.01596
 21
-14.2683
  0
LINE
  8
0
 10
-1.01596
 20
-14.2683
 11
-0.744319
 21
-14.2854
  0
LINE
  8
0
 10
-0.744319
 20
-14.2854
 11
0.157484
 21
-14.3038
  0
LINE
  8
0
 10
0.157484
 20
-14.3038
 11
0.429606
 21
-14.2981
  0
LINE
  8
0
 10
0.429606
 20
-14.2981
 11
1.32991
 21
-14.2429
  0
LINE
  8
0
 10
1.32991
 20
-14.2429
 11
1.6006
 21
-14.2145
  0
LINE
  8
0
 10
1.6006
 20
-14.2145
 11
2.49341
 21
-14.0861
  0
LINE
  8
0
 10
2.49341
 20
-14.0861
 11
2.76077
 21
-14.0351
  0
LINE
  8
0
 10
2.76077
 20
-14.0351
 11
3.64015
 21
-13.8344
  0
LINE
  8
0
 10
3.64015
 20
-13.8344
 11
3.9023
 21
-13.7612
  0
LINE
  8
0
 10
3.9023
 20
-13.7612
 11
4.76239
 21
-13.4895
  0
LINE
  8
0
 10
4.76239
 20
-13.4895
 11
5.0175
 21
-13.3946
  0
LINE
  8
0
 10
5.0175
 20
-13.3946
 11
5.85258
 21
-13.0537
  0
LINE
  8
0
 10
5.85258
 20
-13.0537
 11
6.09886
 21
-12.9378
  0
LINE
  8
0
 10
6.09886
 20
-12.9378
 11
6.90337
 21
-12.5299
  0
LINE
  8
0
 10
6.90337
 20
-12.5299
 11
7.13909
 21
-12.3938
  0
LINE
  8
0
 10
7.13909
 20
-12.3938
 11
7.90768
 21
-11.9217
  0
LINE
  8
0
 10
7.90768
 20
-11.9217
 11
8.13118
 21
-11.7664
  0
LINE
  8
0
 10
8.13118
 20
-11.7664
 11
8.85874
 21
-11.2333
  0
LINE
  8
0
 10
8.85874
 20
-11.2333
 11
9.06846
 21
-11.0598
  0
LINE
  8
0
 10
9.06846
 20
-11.0598
 11
9.75014
 21
-10.4691
  0
LINE
  8
0
 10
9.75014
 20
-10.4691
 11
9.94461
 21
-10.2787
  0
LINE
  8
0
 10
9.94461
 20
-10.2787
 11
10.5759
 21
-9.63438
  0
LINE
  8
0
 10
10.5759
 20
-9.63438
 11
10.7537
 21
-9.42834
  0
LINE
  8
0
 10
10.7537
 20
-9.42834
 11
11.3304
 21
-8.73475
  0
LINE
  8
0
 10
11.3304
 20
-8.73475
 11
11.4904
 21
-8.51455
  0
LINE
  8
0
 10
11.4904
 20
-8.51455
 11
12.0086
 21
-7.77627
  0
LINE
  8
0
 10
12.0086
 20
-7.77627
 11
12.1496
 21
-7.54345
  0
LINE
  8
0
 10
12.1496
 20
-7.54345
 11
12.6058
 21
-6.76539
  0
LINE
  8
0
 10
12.6058
 20
-6.76539
 11
12.7269
 21
-6.5216
  0
LINE
  8
0
 10
12.7269
 20
-6.5216
 11
13.1182
 21
-5.70893
  0
LINE
  8
0
 10
13.1182
 20
-5.70893
 11
13.2184
 21
-5.45586
  0
LINE
  8
0
 10
13.2184
 20
-5.45586
 11
13.5422
 21
-4.614
  0
LINE
  8
0
 10
13.5422
 20
-4.614
 11
13.6209
 21
-4.35344
  0
LINE
  8
0
 10
13.6209
 20
-4.35344
 11
13.875
 21
-3.48798
  0
LINE
  8
0
 10
13.875
 20
-3.48798
 11
13.9316
 21
-3.22175
  0
LINE
  8
0
 10
13.9316
 20
-3.22175
 11
14.1144
 21
-2.33846
  0
LINE
  8
0
 10
14.1144
 20
-2.33846
 11
14.1485
 21
-2.06843
  0
LINE
  8
0
 10
14.1485
 20
-2.06843
 11
14.2586
 21
-1.17318
  0
LINE
  8
0
 10
14.2586
 20
-1.17318
 11
14.27
 21
-0.90124
  0
LINE
  8
0
 10
14.27
 20
-0.90124
 11
14.3068
 21
0
  0
LINE
  8
0
 10
14.3068
 20
0
 11
14.27
 21
0.90124
  0
LINE
  8
0
 10
14.27
 20
0.90124
 11
14.2586
 21
1.17318
  0
LINE
  8
0
 10
14.2586
 20
1.17318
 11
14.1485
 21
2.06843
  0
LINE
  8
0
 10
14.1485
 20
2.06843
 11
14.1144
 21
2.33846
  0
LINE
  8
0
 10
14.1144
 20
2.33846
 11
13.9316
 21
3.22175
  0
LINE
  8
0
 10
13.9316
 20
3.22175
 11
13.875
 21
3.48798
  0
LINE
  8
0
 10
13.875
 20
3.48798
 11
13.6209
 21
4.35344
  0
LINE
  8
0
 10
13.6209
 20
4.35344
 11
13.5422
 21
4.614
  0
LINE
  8
0
 10
13.5422
 20
4.614
 11
13.2184
 21
5.45586
  0
LINE
  8
0
 10
13.2184
 20
5.45586
 11
13.1182
 21
5.70893
  0
LINE
  8
0
 10
13.1182
 20
5.70893
 11
12.7269
 21
6.5216
  0
LINE
  8
0
 10
12.7269
 20
6.5216
 11
12.6058
 21
6.76539
  0
LINE
  8
0
 10
12.6058
 20
6.76539
 11
12.1496
 21
7.54345
  0
LINE
  8
0
 10
12.1496
 20
7.54345
 11
12.0086
 21
7.77627
  0
LINE
  8
0
 10
12.0086
 20
7.77627
 11
11.4904
 21
8.51455
  0
LINE
  8
0
 10
11.4904
 20
8.51455
 11
11.3304
 21
8.73475
  0
LINE
  8
0
 10
11.3304
 20
8.73475
 11
10.7537
 21
9.42834
  0
LINE
  8
0
 10
10.7537
 20
9.42834
 11
10.5759
 21
9.63438
  0
LINE
  8
0
 10
10.5759
 20
9.63438
 11
9.94461
 21
10.2787
  0
LINE
  8
0
 10
9.94461
 20
10.2787
 11
9.75014
 21
10.4691
  0
LINE
  8
0
 10
9.75014
 20
10.4691
 11
9.06846
 21
11.0598
  0
LINE
  8
0
 10
9.06846
 20
11.0598
 11
8.85874
 21
11.2333
  0
LINE
  8
0
 10
8.85874
 20
11.2333
 11
8.13118
 21
11.7664
  0
LINE
  8
0
 10
8.13118
 20
11.7664
 11
7.90768
 21
11.9217
  0
LINE
  8
0
 10
7.90768
 20
11.9217
 11
7.13909
 21
12.3938
  0
LINE
  8
0
 10
7.13909
 20
12.3938
 11
6.90337
 21
12.5299
  0
LINE
  8
0
 10
6.90337
 20
12.5299
 11
6.09886
 21
12.9378
  0
LINE
  8
0
 10
6.09886
 20
12.9378
 11
5.85258
 21
13.0537
  0
LINE
  8
0
 10
5.85258
 20
13.0537
 11
5.0175
 21
13.3946
  0
LINE
  8
0
 10
5.0175
 20
13.3946
 11
4.76239
 21
13.4895
  0
LINE
  8
0
 10
4.76239
 20
13.4895
 11
3.9023
 21
13.7612
  0
LINE
  8
0
 10
3.9023
 20
13.7612
 11
3.64015
 21
13.8344
  0
LINE
  8
0
 10
3.64015
 20
13.8344
 11
2.76077
 21
14.0351
  0
LINE
  8
0
 10
2.76077
 20
14.0351
 11
2.49341
 21
14.0861
  0
LINE
  8
0
 10
2.49341
 20
14.0861
 11
1.6006
 21
14.2145
  0
LINE
  8
0
 10
1.6006
 20
14.2145
 11
1.32991
 21
14.2429
  0
LINE
  8
0
 10
1.32991
 20
14.2429
 11
0.429606
 21
14.2981
  0
LINE
  8
0
 10
0.429606
 20
14.2981
 11
0.157484
 21
14.3038
  0
LINE
  8
0
 10
0.157484
 20
14.3038
 11
-0.744319
 21
14.2854
  0
LINE
  8
0
 10
-0.744319
 20
14.2854
 11
-1.01596
 21
14.2683
  0
LINE
  8
0
 10
-1.01596
 20
14.2683
 11
-1.91327
 21
14.1764
  0
LINE
  8
0
 10
-1.91327
 20
14.1764
 11
-2.18253
 21
14.1367
  0
LINE
  8
0
 10
-2.18253
 20
14.1367
 11
-3.06936
 21
13.972
  0
LINE
  8
0
 10
-3.06936
 20
13.972
 11
-3.33435
 21
13.9098
  0
LINE
  8
0
 10
-3.33435
 20
13.9098
 11
-4.20481
 21
13.6734
  0
LINE
  8
0
 10
-4.20481
 20
13.6734
 11
-4.46367
 21
13.5893
  0
LINE
  8
0
 10
-4.46367
 20
13.5893
 11
-5.31196
 21
13.2827
  0
LINE
  8
0
 10
-5.31196
 20
13.2827
 11
-5.56287
 21
13.1773
  0
LINE
  8
0
 10
-5.56287
 20
13.1773
 11
-6.38335
 21
12.8026
  0
LINE
  8
0
 10
-6.38335
 20
12.8026
 11
-6.62456
 21
12.6765
  0
LINE
  8
0
 10
-6.62456
 20
12.6765
 11
-7.41177
 21
12.2361
  0
LINE
  8
0
 10
-7.41177
 20
12.2361
 11
-7.64158
 21
12.0903
  0
LINE
  8
0
 10
-7.64158
 20
12.0903
 11
-8.39028
 21
11.5873
  0
LINE
  8
0
 10
-8.39028
 20
11.5873
 11
-8.60708
 21
11.4227
  0
LINE
  8
0
 10
-8.60708
 20
11.4227
 11
-9.31228
 21
10.8603
  0
LINE
  8
0
 10
-9.31228
 20
10.8603
 11
-9.51455
 21
10.6782
  0
LINE
  8
0
 10
-9.51455
 20
10.6782
 11
-10.1716
 21
10.0602
  0
LINE
  8
0
 10
-10.1716
 20
10.0602
 11
-10.3579
 21
9.8618
  0
LINE
  8
0
 10
-10.3579
 20
9.8618
 11
-10.9624
 21
9.19231
  0
LINE
  8
0
 10
-10.9624
 20
9.19231
 11
-11.1314
 21
8.979
  0
LINE
  8
0
 10
-11.1314
 20
8.979
 11
-11.6793
 21
8.26247
  0
LINE
  8
0
 10
-11.6793
 20
8.26247
 11
-11.8299
 21
8.03577
  0
LINE
  8
0
 10
-11.8299
 20
8.03577
 11
-12.3176
 21
7.27696
  0
LINE
  8
0
 10
-12.3176
 20
7.27696
 11
-12.4487
 21
7.03845
  0
LINE
  8
0
 10
-12.4487
 20
7.03845
 11
-12.8729
 21
6.24242
  0
LINE
  8
0
 10
-12.8729
 20
6.24242
 11
-12.9836
 21
5.99377
  0
LINE
  8
0
 10
-12.9836
 20
5.99377
 11
-13.3415
 21
5.16582
  0
LINE
  8
0
 10
-13.3415
 20
5.16582
 11
-13.431
 21
4.90878
  0
LINE
  8
0
 10
-13.431
 20
4.90878
 11
-13.7202
 21
4.05441
  0
LINE
  8
0
 10
-13.7202
 20
4.05441
 11
-13.7879
 21
3.79078
  0
LINE
  8
0
 10
-13.7879
 20
3.79078
 11
-14.0065
 21
2.91568
  0
LINE
  8
0
 10
-14.0065
 20
2.91568
 11
-14.0519
 21
2.64731
  0
LINE
  8
0
 10
-14.0519
 20
2.64731
 11
-14.1984
 21
1.7573
  0
LINE
  8
0
 10
-14.1984
 20
1.7573
 11
-14.2212
 21
1.48608
  0
LINE
  8
0
 10
-14.2212
 20
1.48608
 11
-14.2947
 21
0.587086
  0
LINE
  8
0
 10
-14.2947
 20
0.587086
 11
-14.2947
 21
-0.587086
  0
LINE
  8
0
 10
-8.75
 20
0
 11
-8.70283
 21
0.403577
  0
LINE
  8
0
 10
-8.70283
 20
0.403577
 11
-8.56386
 21
0.785398
  0
LINE
  8
0
 10
-8.56386
 20
0.785398
 11
-8.34058
 21
1.12488
  0
LINE
  8
0
 10
-8.34058
 20
1.12488
 11
-8.04503
 21
1.40372
  0
LINE
  8
0
 10
-8.04503
 20
1.40372
 11
-7.69314
 21
1.60688
  0
LINE
  8
0
 10
-7.69314
 20
1.60688
 11
-7.30388
 21
1.72341
  0
LINE
  8
0
 10
-7.30388
 20
1.72341
 11
-6.89825
 21
1.74704
  0
LINE
  8
0
 10
-6.89825
 20
1.74704
 11
-6.49809
 21
1.67648
  0
LINE
  8
0
 10
-6.49809
 20
1.67648
 11
-6.125
 21
1.51554
  0
LINE
  8
0
 10
-6.125
 20
1.51554
 11
-5.79908
 21
1.2729
  0
LINE
  8
0
 10
-5.79908
 20
1.2729
 11
-5.5379
 21
0.96164
  0
LINE
  8
0
 10
-5.5379
 20
0.96164
 11
-5.35554
 21
0.598535
  0
LINE
  8
0
 10
-5.35554
 20
0.598535
 11
-5.26183
 21
0.203162
  0
LINE
  8
0
 10
-5.26183
 20
0.203162
 11
-5.26183
 21
-0.203162
  0
LINE
  8
0
 10
-5.26183
 20
-0.203162
 11
-5.35554
 21
-0.598535
  0
LINE
  8
0
 10
-5.35554
 20
-0.598535
 11
-5.5379
 21
-0.96164
  0
LINE
  8
0
 10
-5.5379
 20
-0.96164
 11
-5.79908
 21
-1.2729
  0
LINE
  8
0
 10
-5.79908
 20
-1.2729
 11
-6.125
 21
-1.51554
  0
LINE
  8
0
 10
-6.125
 20
-1.51554
 11
-6.49809
 21
-1.67648
  0
LINE
  8
0
 10
-6.49809
 20
-1.67648
 11
-6.89825
 21
-1.74704
  0
LINE
  8
0
 10
-6.89825
 20
-1.74704
 11
-7.30388
 21
-1.72341
  0
LINE
  8
0
 10
-7.30388
 20
-1.72341
 11
-7.69314
 21
-1.60688
  0
LINE
  8
0
 10
-7.69314
 20
-1.60688
 11
-8.04503
 21
-1.40372
  0
LINE
  8
0
 10
-8.04503
 20
-1.40372
 11
-8.34058
 21
-1.12488
  0
LINE
  8
0
 10
-8.34058
 20
-1.12488
 11
-8.56386
 21
-0.785398
  0
LINE
  8
0
 10
-8.56386
 20
-0.785398
 11
-8.70283
 21
-0.403577
  0
LINE
  8
0
 10
-8.70283
 20
-0.403577
 11
-8.75
 21
0
  0
LINE
  8
0
 10
-3.5
 20
0
 11
-3.45226
 21
0.57608
  0
LINE
  8
0
 10
-3.45226
 20
0.57608
 11
-3.31036
 21
1.13645
  0
LINE
  8
0
 10
-3.31036
 20
1.13645
 11
-3.07816
 21
1.66582
  0
LINE
  8
0
 10
-3.07816
 20
1.66582
 11
-2.76199
 21
2.14974
  0
LINE
  8
0
 10
-2.76199
 20
2.14974
 11
-2.37049
 21
2.57503
  0
LINE
  8
0
 10
-2.37049
 20
2.57503
 11
-1.91432
 21
2.93008
  0
LINE
  8
0
 10
-1.91432
 20
2.93008
 11
-1.40593
 21
3.20521
  0
LINE
  8
0
 10
-1.40593
 20
3.20521
 11
-0.859199
 21
3.3929
  0
LINE
  8
0
 10
-0.859199
 20
3.3929
 11
-0.289027
 21
3.48805
  0
LINE
  8
0
 10
-0.289027
 20
3.48805
 11
0.289027
 21
3.48805
  0
LINE
  8
0
 10
0.289027
 20
3.48805
 11
0.859199
 21
3.3929
  0
LINE
  8
0
 10
0.859199
 20
3.3929
 11
1.40593
 21
3.20521
  0
LINE
  8
0
 10
1.40593
 20
3.20521
 11
1.91432
 21
2.93008
  0
LINE
  8
0
 10
1.91432
 20
2.93008
 11
2.37049
 21
2.57503
  0
LINE
  8
0
 10
2.37049
 20
2.57503
 11
2.76199
 21
2.14974
  0
LINE
  8
0
 10
2.76199
 20
2.14974
 11
3.07816
 21
1.66582
  0
LINE
  8
0
 10
3.07816
 20
1.66582
 11
3.31036
 21
1.13645
  0
LINE
  8
0
 10
3.31036
 20
1.13645
 11
3.45226
 21
0.57608
  0
LINE
  8
0
 10
3.45226
 20
0.57608
 11
3.5
 21
0
  0
LINE
  8
0
 10
3.5
 20
0
 11
3.45226
 21
-0.57608
  0
LINE
  8
0
 10
3.45226
 20
-0.57608
 11
3.31036
 21
-1.13645
  0
LINE
  8
0
 10
3.31036
 20
-1.13645
 11
3.07816
 21
-1.66582
  0
LINE
  8
0
 10
3.07816
 20
-1.66582
 11
2.76199
 21
-2.14974
  0
LINE
  8
0
 10
2.76199
 20
-2.14974
 11
2.37049
 21
-2.57503
  0
LINE
  8
0
 10
2.37049
 20
-2.57503
 11
1.91432
 21
-2.93008
  0
LINE
  8
0
 10
1.91432
 20
-2.93008
 11
1.40593
 21
-3.20521
  0
LINE
  8
0
 10
1.40593
 20
-3.20521
 11
0.859199
 21
-3.3929
  0
LINE
  8
0
 10
0.859199
 20
-3.3929
 11
0.289027
 21
-3.48805
  0
LINE
  8
0
 10
0.289027
 20
-3.48805
 11
-0.289027
 21
-3.48805
  0
LINE
  8
0
 10
-0.289027
 20
-3.48805
 11
-0.859199
 21
-3.3929
  0
LINE
  8
0
 10
-0.859199
 20
-3.3929
 11
-1.40593
 21
-3.20521
  0
LINE
  8
0
 10
-1.40593
 20
-3.20521
 11
-1.91432
 21
-2.93008
  0
LINE
  8
0
 10
-1.91432
 20
-2.93008
 11
-2.37049
 21
-2.57503
  0
LINE
  8
0
 10
-2.37049
 20
-2.57503
 11
-2.76199
 21
-2.14974
  0
LINE
  8
0
 10
-2.76199
 20
-2.14974
 11
-3.07816
 21
-1.66582
  0
LINE
  8
0
 10
-3.07816
 20
-1.66582
 11
-3.31036
 21
-1.13645
  0
LINE
  8
0
 10
-3.31036
 20
-1.13645
 11
-3.45226
 21
-0.57608
  0
LINE
  8
0
 10
-3.45226
 20
-0.57608
 11
-3.5
 21
0
  0
LINE
  8
0
 10
-1.75
 20
-7
 11
-1.70283
 21
-6.59642
  0
LINE
  8
0
 10
-1.70283
 20
-6.59642
 11
-1.56386
 21
-6.2146
  0
LINE
  8
0
 10
-1.56386
 20
-6.2146
 11
-1.34058
 21
-5.87512
  0
LINE
  8
0
 10
-1.34058
 20
-5.87512
 11
-1.04503
 21
-5.59628
  0
LINE
  8
0
 10
-1.04503
 20
-5.59628
 11
-0.693139
 21
-5.39312
  0
LINE
  8
0
 10
-0.693139
 20
-5.39312
 11
-0.303884
 21
-5.27659
  0
LINE
  8
0
 10
-0.303884
 20
-5.27659
 11
0.101753
 21
-5.25296
  0
LINE
  8
0
 10
0.101753
 20
-5.25296
 11
0.501905
 21
-5.32352
  0
LINE
  8
0
 10
0.501905
 20
-5.32352
 11
0.875
 21
-5.48446
  0
LINE
  8
0
 10
0.875
 20
-5.48446
 11
1.20092
 21
-5.7271
  0
LINE
  8
0
 10
1.20092
 20
-5.7271
 11
1.4621
 21
-6.03836
  0
LINE
  8
0
 10
1.4621
 20
-6.03836
 11
1.64446
 21
-6.40146
  0
LINE
  8
0
 10
1.64446
 20
-6.40146
 11
1.73817
 21
-6.79684
  0
LINE
  8
0
 10
1.73817
 20
-6.79684
 11
1.73817
 21
-7.20316
  0
LINE
  8
0
 10
1.73817
 20
-7.20316
 11
1.64446
 21
-7.59853
  0
LINE
  8
0
 10
1.64446
 20
-7.59853
 11
1.4621
 21
-7.96164
  0
LINE
  8
0
 10
1.4621
 20
-7.96164
 11
1.20092
 21
-8.2729
  0
LINE
  8
0
 10
1.20092
 20
-8.2729
 11
0.875
 21
-8.51554
  0
LINE
  8
0
 10
0.875
 20
-8.51554
 11
0.501905
 21
-8.67648
  0
LINE
  8
0
 10
0.501905
 20
-8.67648
 11
0.101753
 21
-8.74704
  0
LINE
  8
0
 10
0.101753
 20
-8.74704
 11
-0.303884
 21
-8.72341
  0
LINE
  8
0
 10
-0.303884
 20
-8.72341
 11
-0.693139
 21
-8.60688
  0
LINE
  8
0
 10
-0.693139
 20
-8.60688
 11
-1.04503
 21
-8.40372
  0
LINE
  8
0
 10
-1.04503
 20
-8.40372
 11
-1.34058
 21
-8.12488
  0
LINE
  8
0
 10
-1.34058
 20
-8.12488
 11
-1.56386
 21
-7.7854
  0
LINE
  8
0
 10
-1.56386
 20
-7.7854
 11
-1.70283
 21
-7.40358
  0
LINE
  8
0
 10
-1.70283
 20
-7.40358
 11
-1.75
 21
-7
  0
LINE
  8
0
 10
-1.75
 20
7
 11
-1.70283
 21
7.40358
  0
LINE
  8
0
 10
-1.70283
 20
7.40358
 11
-1.56386
 21
7.7854
  0
LINE
  8
0
 10
-1.56386
 20
7.7854
 11
-1.34058
 21
8.12488
  0
LINE
  8
0
 10
-1.34058
 20
8.12488
 11
-1.04503
 21
8.40372
  0
LINE
  8
0
 10
-1.04503
 20
8.40372
 11
-0.693139
 21
8.60688
  0
LINE
  8
0
 10
-0.693139
 20
8.60688
 11
-0.303884
 21
8.72341
  0
LINE
  8
0
 10
-0.303884
 20
8.72341
 11
0.101753
 21
8.74704
  0
LINE
  8
0
 10
0.101753
 20
8.74704
 11
0.501905
 21
8.67648
  0
LINE
  8
0
 10
0.501905
 20
8.67648
 11
0.875
 21
8.51554
  0
LINE
  8
0
 10
0.875
 20
8.51554
 11
1.20092
 21
8.2729
  0
LINE
  8
0
 10
1.20092
 20
8.2729
 11
1.4621
 21
7.96164
  0
LINE
  8
0
 10
1.4621
 20
7.96164
 11
1.64446
 21
7.59853
  0
LINE
  8
0
 10
1.64446
 20
7.59853
 11
1.73817
 21
7.20316
  0
LINE
  8
0
 10
1.73817
 20
7.20316
 11
1.73817
 21
6.79684
  0
LINE
  8
0
 10
1.73817
 20
6.79684
 11
1.64446
 21
6.40146
  0
LINE
  8
0
 10
1.64446
 20
6.40146
 11
1.4621
 21
6.03836
  0
LINE
  8
0
 10
1.4621
 20
6.03836
 11
1.20092
 21
5.7271
  0
LINE
  8
0
 10
1.20092
 20
5.7271
 11
0.875
 21
5.48446
  0
LINE
  8
0
 10
0.875
 20
5.48446
 11
0.501905
 21
5.32352
  0
LINE
  8
0
 10
0.501905
 20
5.32352
 11
0.101753
 21
5.25296
  0
LINE
  8
0
 10
0.101753
 20
5.25296
 11
-0.303884
 21
5.27659
  0
LINE
  8
0
 10
-0.303884
 20
5.27659
 11
-0.693139
 21
5.39312
  0
LINE
  8
0
 10
-0.693139
 20
5.39312
 11
-1.04503
 21
5.59628
  0
LINE
  8
0
 10
-1.04503
 20
5.59628
 11
-1.34058
 21
5.87512
  0
LINE
  8
0
 10
-1.34058
 20
5.87512
 11
-1.56386
 21
6.2146
  0
LINE
  8
0
 10
-1.56386
 20
6.2146
 11
-1.70283
 21
6.59642
  0
LINE
  8
0
 10
-1.70283
 20
6.59642
 11
-1.75
 21
7
  0
LINE
  8
0
 10
5.25
 20
0
 11
5.29717
 21
0.403577
  0
LINE
  8
0
 10
5.29717
 20
0.403577
 11
5.43614
 21
0.785398
  0
LINE
  8
0
 10
5.43614
 20
0.785398
 11
5.65942
 21
1.12488
  0
LINE
  8
0
 10
5.65942
 20
1.12488
 11
5.95497
 21
1.40372
  0
LINE
  8
0
 10
5.95497
 20
1.40372
 11
6.30686
 21
1.60688
  0
LINE
  8
0
 10
6.30686
 20
1.60688
 11
6.69612
 21
1.72341
  0
LINE
  8
0
 10
6.69612
 20
1.72341
 11
7.10175
 21
1.74704
  0
LINE
  8
0
 10
7.10175
 20
1.74704
 11
7.50191
 21
1.67648
  0
LINE
  8
0
 10
7.50191
 20
1.67648
 11
7.875
 21
1.51554
  0
LINE
  8
0
 10
7.875
 20
1.51554
 11
8.20092
 21
1.2729
  0
LINE
  8
0
 10
8.20092
 20
1.2729
 11
8.4621
 21
0.96164
  0
LINE
  8
0
 10
8.4621
 20
0.96164
 11
8.64446
 21
0.598535
  0
LINE
  8
0
 10
8.64446
 20
0.598535
 11
8.73817
 21
0.203162
  0
LINE
  8
0
 10
8.73817
 20
0.203162
 11
8.73817
 21
-0.203162
  0
LINE
  8
0
 10
8.73817
 20
-0.203162
 11
8.64446
 21
-0.598535
  0
LINE
  8
0
 10
8.64446
 20
-0.598535
 11
8.4621
 21
-0.96164
  0
LINE
  8
0
 10
8.4621
 20
-0.96164
 11
8.20092
 21
-1.2729
  0
LINE
  8
0
 10
8.20092
 20
-1.2729
 11
7.875
 21
-1.51554
  0
LINE
  8
0
 10
7.875
 20
-1.51554
 11
7.50191
 21
-1.67648
  0
LINE
  8
0
 10
7.50191
 20
-1.67648
 11
7.10175
 21
-1.74704
  0
LINE
  8
0
 10
7.10175
 20
-1.74704
 11
6.69612
 21
-1.72341
  0
LINE
  8
0
 10
6.69612
 20
-1.72341
 11
6.30686
 21
-1.60688
  0
LINE
  8
0
 10
6.30686
 20
-1.60688
 11
5.95497
 21
-1.40372
  0
LINE
  8
0
 10
5.95497
 20
-1.40372
 11
5.65942
 21
-1.12488
  0
LINE
  8
0
 10
5.65942
 20
-1.12488
 11
5.43614
 21
-0.785398
  0
LINE
  8
0
 10
5.43614
 20
-0.785398
 11
5.29717
 21
-0.403577
  0
LINE
  8
0
 10
5.29717
 20
-0.403577
 11
5.25
 21
0
  0
ENDSEC
  0
SECTION
  2
OBJECTS
  0
DICTIONARY
  0
ENDSEC
  0
EOF
