  0
SECTION
  2
BLOCKS
  0
ENDSEC
  0
SECTION
  2
ENTITIES
  0
LINE
  8
0
 10
-14.2877
 20
-0.59883
 11
-14.1874
 21
-1.79229
  0
LINE
  8
0
 10
-14.1874
 20
-1.79229
 11
-13.9877
 21
-2.97318
  0
LINE
  8
0
 10
-13.9877
 20
-2.97318
 11
-13.6899
 21
-4.13321
  0
LINE
  8
0
 10
-13.6899
 20
-4.13321
 11
-13.296
 21
-5.26425
  0
LINE
  8
0
 10
-13.296
 20
-5.26425
 11
-12.8089
 21
-6.35837
  0
LINE
  8
0
 10
-12.8089
 20
-6.35837
 11
-12.2319
 21
-7.40789
  0
LINE
  8
0
 10
-12.2319
 20
-7.40789
 11
-11.5691
 21
-8.40545
  0
LINE
  8
0
 10
-11.5691
 20
-8.40545
 11
-10.8252
 21
-9.34405
  0
LINE
  8
0
 10
-10.8252
 20
-9.34405
 11
-10.0053
 21
-10.2171
  0
LINE
  8
0
 10
-10.0053
 20
-10.2171
 11
-9.11529
 21
-11.0185
  0
LINE
  8
0
 10
-9.11529
 20
-11.0185
 11
-8.16132
 21
-11.7426
  0
LINE
  8
0
 10
-8.16132
 20
-11.7426
 11
-7.1501
 21
-12.3843
  0
LINE
  8
0
 10
-7.1501
 20
-12.3843
 11
-6.08873
 21
-12.9392
  0
LINE
  8
0
 10
-6.08873
 20
-12.9392
 11
-4.98465
 21
-13.4033
  0
LINE
  8
0
 10
-4.98465
 20
-13.4033
 11
-3.84561
 21
-13.7734
  0
LINE
  8
0
 10
-3.84561
 20
-13.7734
 11
-2.67959
 21
-14.0469
  0
LINE
  8
0
 10
-2.67959
 20
-14.0469
 11
-1.49478
 21
-14.2219
  0
LINE
  8
0
 10
-1.49478
 20
-14.2219
 11
-0.29948
 21
-14.2971
  0
LINE
  8
0
 10
-0.29948
 20
-14.2971
 11
0.897917
 21
-14.272
  0
LINE
  8
0
 10
0.897917
 20
-14.272
 11
2.08902
 21
-14.1468
  0
LINE
  8
0
 10
2.08902
 20
-14.1468
 11
3.26546
 21
-13.9224
  0
LINE
  8
0
 10
3.26546
 20
-13.9224
 11
4.419
 21
-13.6003
  0
LINE
  8
0
 10
4.419
 20
-13.6003
 11
5.54155
 21
-13.1828
  0
LINE
  8
0
 10
5.54155
 20
-13.1828
 11
6.62523
 21
-12.6729
  0
LINE
  8
0
 10
6.62523
 20
-12.6729
 11
7.66243
 21
-12.0741
  0
LINE
  8
0
 10
7.66243
 20
-12.0741
 11
8.64589
 21
-11.3905
  0
LINE
  8
0
 10
8.64589
 20
-11.3905
 11
9.5687
 21
-10.6271
  0
LINE
  8
0
 10
9.5687
 20
-10.6271
 11
10.4244
 21
-9.78916
  0
LINE
  8
0
 10
10.4244
 20
-9.78916
 11
11.207
 21
-8.88254
  0
LINE
  8
0
 10
11.207
 20
-8.88254
 11
11.9109
 21
-7.91361
  0
LINE
  8
0
 10
11.9109
 20
-7.91361
 11
12.5314
 21
-6.88917
  0
LINE
  8
0
 10
12.5314
 20
-6.88917
 11
13.0639
 21
-5.81641
  0
LINE
  8
0
 10
13.0639
 20
-5.81641
 11
13.5048
 21
-4.70286
  0
LINE
  8
0
 10
13.5048
 20
-4.70286
 11
13.8509
 21
-3.55631
  0
LINE
  8
0
 10
13.8509
 20
-3.55631
 11
14.0999
 21
-2.38483
  0
LINE
  8
0
 10
14.0999
 20
-2.38483
 11
14.25
 21
-1.19661
  0
LINE
  8
0
 10
14.25
 20
-1.19661
 11
14.3002
 21
0
  0
LINE
  8
0
 10
14.3002
 20
0
 11
14.25
 21
1.19661
  0
LINE
  8
0
 10
14.25
 20
1.19661
 11
14.0999
 21
2.38483
  0
LINE
  8
0
 10
14.0999
 20
2.38483
 11
13.8509
 21
3.55631
  0
LINE
  8
0
 10
13.8509
 20
3.55631
 11
13.5048
 21
4.70286
  0
LINE
  8
0
 10
13.5048
 20
4.70286
 11
13.0639
 21
5.81641
  0
LINE
  8
0
 10
13.0639
 20
5.81641
 11
12.5314
 21
6.88917
  0
LINE
  8
0
 10
12.5314
 20
6.88917
 11
11.9109
 21
7.91361
  0
LINE
  8
0
 10
11.9109
 20
7.91361
 11
11.207
 21
8.88254
  0
LINE
  8
0
 10
11.207
 20
8.88254
 11
10.4244
 21
9.78916
  0
LINE
  8
0
 10
10.4244
 20
9.78916
 11
9.5687
 21
10.6271
  0
LINE
  8
0
 10
9.5687
 20
10.6271
 11
8.64589
 21
11.3905
  0
LINE
  8
0
 10
8.64589
 20
11.3905
 11
7.66243
 21
12.0741
  0
LINE
  8
0
 10
7.66243
 20
12.0741
 11
6.62523
 21
12.6729
  0
LINE
  8
0
 10
6.62523
 20
12.6729
 11
5.54155
 21
13.1828
  0
LINE
  8
0
 10
5.54155
 20
13.1828
 11
4.419
 21
13.6003
  0
LINE
  8
0
 10
4.419
 20
13.6003
 11
3.26546
 21
13.9224
  0
LINE
  8
0
 10
3.26546
 20
13.9224
 11
2.08902
 21
14.1468
  0
LINE
  8
0
 10
2.08902
 20
14.1468
 11
0.897917
 21
14.272
  0
LINE
  8
0
 10
0.897917
 20
14.272
 11
-0.29948
 21
14.2971
  0
LINE
  8
0
 10
-0.29948
 20
14.2971
 11
-1.49478
 21
14.2219
  0
LINE
  8
0
 10
-1.49478
 20
14.2219
 11
-2.67959
 21
14.0469
  0
LINE
  8
0
 10
-2.67959
 20
14.0469
 11
-3.84561
 21
13.7734
  0
LINE
  8
0
 10
-3.84561
 20
13.7734
 11
-4.98465
 21
13.4033
  0
LINE
  8
0
 10
-4.98465
 20
13.4033
 11
-6.08873
 21
12.9392
  0
LINE
  8
0
 10
-6.08873
 20
12.9392
 11
-7.1501
 21
12.3843
  0
LINE
  8
0
 10
-7.1501
 20
12.3843
 11
-8.16132
 21
11.7426
  0
LINE
  8
0
 10
-8.16132
 20
11.7426
 11
-9.11529
 21
11.0185
  0
LINE
  8
0
 10
-9.11529
 20
11.0185
 11
-10.0053
 21
10.2171
  0
LINE
  8
0
 10
-10.0053
 20
10.2171
 11
-10.8252
 21
9.34405
  0
LINE
  8
0
 10
-10.8252
 20
9.34405
 11
-11.5691
 21
8.40545
  0
LINE
  8
0
 10
-11.5691
 20
8.40545
 11
-12.2319
 21
7.40789
  0
LINE
  8
0
 10
-12.2319
 20
7.40789
 11
-12.8089
 21
6.35837
  0
LINE
  8
0
 10
-12.8089
 20
6.35837
 11
-13.296
 21
5.26425
  0
LINE
  8
0
 10
-13.296
 20
5.26425
 11
-13.6899
 21
4.13321
  0
LINE
  8
0
 10
-13.6899
 20
4.13321
 11
-13.9877
 21
2.97318
  0
LINE
  8
0
 10
-13.9877
 20
2.97318
 11
-14.1874
 21
1.79229
  0
LINE
  8
0
 10
-14.1874
 20
1.79229
 11
-14.2877
 21
0.59883
  0
LINE
  8
0
 10
-14.2877
 20
0.59883
 11
-14.2877
 21
-0.59883
  0
LINE
  8
0
 10
-8.75
 20
0
 11
-8.70283
 21
0.403577
  0
LINE
  8
0
 10
-8.70283
 20
0.403577
 11
-8.56386
 21
0.785398
  0
LINE
  8
0
 10
-8.56386
 20
0.785398
 11
-8.34058
 21
1.12488
  0
LINE
  8
0
 10
-8.34058
 20
1.12488
 11
-8.04503
 21
1.40372
  0
LINE
  8
0
 10
-8.04503
 20
1.40372
 11
-7.69314
 21
1.60688
  0
LINE
  8
0
 10
-7.69314
 20
1.60688
 11
-7.30388
 21
1.72341
  0
LINE
  8
0
 10
-7.30388
 20
1.72341
 11
-6.89825
 21
1.74704
  0
LINE
  8
0
 10
-6.89825
 20
1.74704
 11
-6.49809
 21
1.67648
  0
LINE
  8
0
 10
-6.49809
 20
1.67648
 11
-6.125
 21
1.51554
  0
LINE
  8
0
 10
-6.125
 20
1.51554
 11
-5.79908
 21
1.2729
  0
LINE
  8
0
 10
-5.79908
 20
1.2729
 11
-5.5379
 21
0.96164
  0
LINE
  8
0
 10
-5.5379
 20
0.96164
 11
-5.35554
 21
0.598535
  0
LINE
  8
0
 10
-5.35554
 20
0.598535
 11
-5.26183
 21
0.203162
  0
LINE
  8
0
 10
-5.26183
 20
0.203162
 11
-5.26183
 21
-0.203162
  0
LINE
  8
0
 10
-5.26183
 20
-0.203162
 11
-5.35554
 21
-0.598535
  0
LINE
  8
0
 10
-5.35554
 20
-0.598535
 11
-5.5379
 21
-0.96164
  0
LINE
  8
0
 10
-5.5379
 20
-0.96164
 11
-5.79908
 21
-1.2729
  0
LINE
  8
0
 10
-5.79908
 20
-1.2729
 11
-6.125
 21
-1.51554
  0
LINE
  8
0
 10
-6.125
 20
-1.51554
 11
-6.49809
 21
-1.67648
  0
LINE
  8
0
 10
-6.49809
 20
-1.67648
 11
-6.89825
 21
-1.74704
  0
LINE
  8
0
 10
-6.89825
 20
-1.74704
 11
-7.30388
 21
-1.72341
  0
LINE
  8
0
 10
-7.30388
 20
-1.72341
 11
-7.69314
 21
-1.60688
  0
LINE
  8
0
 10
-7.69314
 20
-1.60688
 11
-8.04503
 21
-1.40372
  0
LINE
  8
0
 10
-8.04503
 20
-1.40372
 11
-8.34058
 21
-1.12488
  0
LINE
  8
0
 10
-8.34058
 20
-1.12488
 11
-8.56386
 21
-0.785398
  0
LINE
  8
0
 10
-8.56386
 20
-0.785398
 11
-8.70283
 21
-0.403577
  0
LINE
  8
0
 10
-8.70283
 20
-0.403577
 11
-8.75
 21
0
  0
LINE
  8
0
 10
-3.5
 20
0
 11
-3.45226
 21
0.57608
  0
LINE
  8
0
 10
-3.45226
 20
0.57608
 11
-3.31036
 21
1.13645
  0
LINE
  8
0
 10
-3.31036
 20
1.13645
 11
-3.07816
 21
1.66582
  0
LINE
  8
0
 10
-3.07816
 20
1.66582
 11
-2.76199
 21
2.14974
  0
LINE
  8
0
 10
-2.76199
 20
2.14974
 11
-2.37049
 21
2.57503
  0
LINE
  8
0
 10
-2.37049
 20
2.57503
 11
-1.91432
 21
2.93008
  0
LINE
  8
0
 10
-1.91432
 20
2.93008
 11
-1.40593
 21
3.20521
  0
LINE
  8
0
 10
-1.40593
 20
3.20521
 11
-0.859199
 21
3.3929
  0
LINE
  8
0
 10
-0.859199
 20
3.3929
 11
-0.289027
 21
3.48805
  0
LINE
  8
0
 10
-0.289027
 20
3.48805
 11
0.289027
 21
3.48805
  0
LINE
  8
0
 10
0.289027
 20
3.48805
 11
0.859199
 21
3.3929
  0
LINE
  8
0
 10
0.859199
 20
3.3929
 11
1.40593
 21
3.20521
  0
LINE
  8
0
 10
1.40593
 20
3.20521
 11
1.91432
 21
2.93008
  0
LINE
  8
0
 10
1.91432
 20
2.93008
 11
2.37049
 21
2.57503
  0
LINE
  8
0
 10
2.37049
 20
2.57503
 11
2.76199
 21
2.14974
  0
LINE
  8
0
 10
2.76199
 20
2.14974
 11
3.07816
 21
1.66582
  0
LINE
  8
0
 10
3.07816
 20
1.66582
 11
3.31036
 21
1.13645
  0
LINE
  8
0
 10
3.31036
 20
1.13645
 11
3.45226
 21
0.57608
  0
LINE
  8
0
 10
3.45226
 20
0.57608
 11
3.5
 21
0
  0
LINE
  8
0
 10
3.5
 20
0
 11
3.45226
 21
-0.57608
  0
LINE
  8
0
 10
3.45226
 20
-0.57608
 11
3.31036
 21
-1.13645
  0
LINE
  8
0
 10
3.31036
 20
-1.13645
 11
3.07816
 21
-1.66582
  0
LINE
  8
0
 10
3.07816
 20
-1.66582
 11
2.76199
 21
-2.14974
  0
LINE
  8
0
 10
2.76199
 20
-2.14974
 11
2.37049
 21
-2.57503
  0
LINE
  8
0
 10
2.37049
 20
-2.57503
 11
1.91432
 21
-2.93008
  0
LINE
  8
0
 10
1.91432
 20
-2.93008
 11
1.40593
 21
-3.20521
  0
LINE
  8
0
 10
1.40593
 20
-3.20521
 11
0.859199
 21
-3.3929
  0
LINE
  8
0
 10
0.859199
 20
-3.3929
 11
0.289027
 21
-3.48805
  0
LINE
  8
0
 10
0.289027
 20
-3.48805
 11
-0.289027
 21
-3.48805
  0
LINE
  8
0
 10
-0.289027
 20
-3.48805
 11
-0.859199
 21
-3.3929
  0
LINE
  8
0
 10
-0.859199
 20
-3.3929
 11
-1.40593
 21
-3.20521
  0
LINE
  8
0
 10
-1.40593
 20
-3.20521
 11
-1.91432
 21
-2.93008
  0
LINE
  8
0
 10
-1.91432
 20
-2.93008
 11
-2.37049
 21
-2.57503
  0
LINE
  8
0
 10
-2.37049
 20
-2.57503
 11
-2.76199
 21
-2.14974
  0
LINE
  8
0
 10
-2.76199
 20
-2.14974
 11
-3.07816
 21
-1.66582
  0
LINE
  8
0
 10
-3.07816
 20
-1.66582
 11
-3.31036
 21
-1.13645
  0
LINE
  8
0
 10
-3.31036
 20
-1.13645
 11
-3.45226
 21
-0.57608
  0
LINE
  8
0
 10
-3.45226
 20
-0.57608
 11
-3.5
 21
0
  0
LINE
  8
0
 10
-1.75
 20
-7
 11
-1.70283
 21
-6.59642
  0
LINE
  8
0
 10
-1.70283
 20
-6.59642
 11
-1.56386
 21
-6.2146
  0
LINE
  8
0
 10
-1.56386
 20
-6.2146
 11
-1.34058
 21
-5.87512
  0
LINE
  8
0
 10
-1.34058
 20
-5.87512
 11
-1.04503
 21
-5.59628
  0
LINE
  8
0
 10
-1.04503
 20
-5.59628
 11
-0.693139
 21
-5.39312
  0
LINE
  8
0
 10
-0.693139
 20
-5.39312
 11
-0.303884
 21
-5.27659
  0
LINE
  8
0
 10
-0.303884
 20
-5.27659
 11
0.101753
 21
-5.25296
  0
LINE
  8
0
 10
0.101753
 20
-5.25296
 11
0.501905
 21
-5.32352
  0
LINE
  8
0
 10
0.501905
 20
-5.32352
 11
0.875
 21
-5.48446
  0
LINE
  8
0
 10
0.875
 20
-5.48446
 11
1.20092
 21
-5.7271
  0
LINE
  8
0
 10
1.20092
 20
-5.7271
 11
1.4621
 21
-6.03836
  0
LINE
  8
0
 10
1.4621
 20
-6.03836
 11
1.64446
 21
-6.40146
  0
LINE
  8
0
 10
1.64446
 20
-6.40146
 11
1.73817
 21
-6.79684
  0
LINE
  8
0
 10
1.73817
 20
-6.79684
 11
1.73817
 21
-7.20316
  0
LINE
  8
0
 10
1.73817
 20
-7.20316
 11
1.64446
 21
-7.59853
  0
LINE
  8
0
 10
1.64446
 20
-7.59853
 11
1.4621
 21
-7.96164
  0
LINE
  8
0
 10
1.4621
 20
-7.96164
 11
1.20092
 21
-8.2729
  0
LINE
  8
0
 10
1.20092
 20
-8.2729
 11
0.875
 21
-8.51554
  0
LINE
  8
0
 10
0.875
 20
-8.51554
 11
0.501905
 21
-8.67648
  0
LINE
  8
0
 10
0.501905
 20
-8.67648
 11
0.101753
 21
-8.74704
  0
LINE
  8
0
 10
0.101753
 20
-8.74704
 11
-0.303884
 21
-8.72341
  0
LINE
  8
0
 10
-0.303884
 20
-8.72341
 11
-0.693139
 21
-8.60688
  0
LINE
  8
0
 10
-0.693139
 20
-8.60688
 11
-1.04503
 21
-8.40372
  0
LINE
  8
0
 10
-1.04503
 20
-8.40372
 11
-1.34058
 21
-8.12488
  0
LINE
  8
0
 10
-1.34058
 20
-8.12488
 11
-1.56386
 21
-7.7854
  0
LINE
  8
0
 10
-1.56386
 20
-7.7854
 11
-1.70283
 21
-7.40358
  0
LINE
  8
0
 10
-1.70283
 20
-7.40358
 11
-1.75
 21
-7
  0
LINE
  8
0
 10
-1.75
 20
7
 11
-1.70283
 21
7.40358
  0
LINE
  8
0
 10
-1.70283
 20
7.40358
 11
-1.56386
 21
7.7854
  0
LINE
  8
0
 10
-1.56386
 20
7.7854
 11
-1.34058
 21
8.12488
  0
LINE
  8
0
 10
-1.34058
 20
8.12488
 11
-1.04503
 21
8.40372
  0
LINE
  8
0
 10
-1.04503
 20
8.40372
 11
-0.693139
 21
8.60688
  0
LINE
  8
0
 10
-0.693139
 20
8.60688
 11
-0.303884
 21
8.72341
  0
LINE
  8
0
 10
-0.303884
 20
8.72341
 11
0.101753
 21
8.74704
  0
LINE
  8
0
 10
0.101753
 20
8.74704
 11
0.501905
 21
8.67648
  0
LINE
  8
0
 10
0.501905
 20
8.67648
 11
0.875
 21
8.51554
  0
LINE
  8
0
 10
0.875
 20
8.51554
 11
1.20092
 21
8.2729
  0
LINE
  8
0
 10
1.20092
 20
8.2729
 11
1.4621
 21
7.96164
  0
LINE
  8
0
 10
1.4621
 20
7.96164
 11
1.64446
 21
7.59853
  0
LINE
  8
0
 10
1.64446
 20
7.59853
 11
1.73817
 21
7.20316
  0
LINE
  8
0
 10
1.73817
 20
7.20316
 11
1.73817
 21
6.79684
  0
LINE
  8
0
 10
1.73817
 20
6.79684
 11
1.64446
 21
6.40146
  0
LINE
  8
0
 10
1.64446
 20
6.40146
 11
1.4621
 21
6.03836
  0
LINE
  8
0
 10
1.4621
 20
6.03836
 11
1.20092
 21
5.7271
  0
LINE
  8
0
 10
1.20092
 20
5.7271
 11
0.875
 21
5.48446
  0
LINE
  8
0
 10
0.875
 20
5.48446
 11
0.501905
 21
5.32352
  0
LINE
  8
0
 10
0.501905
 20
5.32352
 11
0.101753
 21
5.25296
  0
LINE
  8
0
 10
0.101753
 20
5.25296
 11
-0.303884
 21
5.27659
  0
LINE
  8
0
 10
-0.303884
 20
5.27659
 11
-0.693139
 21
5.39312
  0
LINE
  8
0
 10
-0.693139
 20
5.39312
 11
-1.04503
 21
5.59628
  0
LINE
  8
0
 10
-1.04503
 20
5.59628
 11
-1.34058
 21
5.87512
  0
LINE
  8
0
 10
-1.34058
 20
5.87512
 11
-1.56386
 21
6.2146
  0
LINE
  8
0
 10
-1.56386
 20
6.2146
 11
-1.70283
 21
6.59642
  0
LINE
  8
0
 10
-1.70283
 20
6.59642
 11
-1.75
 21
7
  0
LINE
  8
0
 10
5.25
 20
0
 11
5.29717
 21
0.403577
  0
LINE
  8
0
 10
5.29717
 20
0.403577
 11
5.43614
 21
0.785398
  0
LINE
  8
0
 10
5.43614
 20
0.785398
 11
5.65942
 21
1.12488
  0
LINE
  8
0
 10
5.65942
 20
1.12488
 11
5.95497
 21
1.40372
  0
LINE
  8
0
 10
5.95497
 20
1.40372
 11
6.30686
 21
1.60688
  0
LINE
  8
0
 10
6.30686
 20
1.60688
 11
6.69612
 21
1.72341
  0
LINE
  8
0
 10
6.69612
 20
1.72341
 11
7.10175
 21
1.74704
  0
LINE
  8
0
 10
7.10175
 20
1.74704
 11
7.50191
 21
1.67648
  0
LINE
  8
0
 10
7.50191
 20
1.67648
 11
7.875
 21
1.51554
  0
LINE
  8
0
 10
7.875
 20
1.51554
 11
8.20092
 21
1.2729
  0
LINE
  8
0
 10
8.20092
 20
1.2729
 11
8.4621
 21
0.96164
  0
LINE
  8
0
 10
8.4621
 20
0.96164
 11
8.64446
 21
0.598535
  0
LINE
  8
0
 10
8.64446
 20
0.598535
 11
8.73817
 21
0.203162
  0
LINE
  8
0
 10
8.73817
 20
0.203162
 11
8.73817
 21
-0.203162
  0
LINE
  8
0
 10
8.73817
 20
-0.203162
 11
8.64446
 21
-0.598535
  0
LINE
  8
0
 10
8.64446
 20
-0.598535
 11
8.4621
 21
-0.96164
  0
LINE
  8
0
 10
8.4621
 20
-0.96164
 11
8.20092
 21
-1.2729
  0
LINE
  8
0
 10
8.20092
 20
-1.2729
 11
7.875
 21
-1.51554
  0
LINE
  8
0
 10
7.875
 20
-1.51554
 11
7.50191
 21
-1.67648
  0
LINE
  8
0
 10
7.50191
 20
-1.67648
 11
7.10175
 21
-1.74704
  0
LINE
  8
0
 10
7.10175
 20
-1.74704
 11
6.69612
 21
-1.72341
  0
LINE
  8
0
 10
6.69612
 20
-1.72341
 11
6.30686
 21
-1.60688
  0
LINE
  8
0
 10
6.30686
 20
-1.60688
 11
5.95497
 21
-1.40372
  0
LINE
  8
0
 10
5.95497
 20
-1.40372
 11
5.65942
 21
-1.12488
  0
LINE
  8
0
 10
5.65942
 20
-1.12488
 11
5.43614
 21
-0.785398
  0
LINE
  8
0
 10
5.43614
 20
-0.785398
 11
5.29717
 21
-0.403577
  0
LINE
  8
0
 10
5.29717
 20
-0.403577
 11
5.25
 21
0
  0
ENDSEC
  0
SECTION
  2
OBJECTS
  0
DICTIONARY
  0
ENDSEC
  0
EOF
