  0
SECTION
  2
BLOCKS
  0
ENDSEC
  0
SECTION
  2
ENTITIES
  0
LINE
  8
0
 10
-14.2929
 20
-0.266582
 11
-14.2651
 21
-0.930349
  0
LINE
  8
0
 10
-14.2651
 20
-0.930349
 11
-14.2204
 21
-1.46164
  0
LINE
  8
0
 10
-14.2204
 20
-1.46164
 11
-14.1372
 21
-2.12075
  0
LINE
  8
0
 10
-14.1372
 20
-2.12075
 11
-14.0483
 21
-2.64645
  0
LINE
  8
0
 10
-14.0483
 20
-2.64645
 11
-13.9101
 21
-3.29629
  0
LINE
  8
0
 10
-13.9101
 20
-3.29629
 11
-13.7775
 21
-3.8127
  0
LINE
  8
0
 10
-13.7775
 20
-3.8127
 11
-13.5855
 21
-4.44869
  0
LINE
  8
0
 10
-13.5855
 20
-4.44869
 11
-13.4102
 21
-4.9522
  0
LINE
  8
0
 10
-13.4102
 20
-4.9522
 11
-13.1656
 21
-5.5699
  0
LINE
  8
0
 10
-13.1656
 20
-5.5699
 11
-12.9488
 21
-6.05697
  0
LINE
  8
0
 10
-12.9488
 20
-6.05697
 11
-12.6534
 21
-6.65203
  0
LINE
  8
0
 10
-12.6534
 20
-6.65203
 11
-12.3965
 21
-7.11925
  0
LINE
  8
0
 10
-12.3965
 20
-7.11925
 11
-12.0524
 21
-7.68751
  0
LINE
  8
0
 10
-12.0524
 20
-7.68751
 11
-11.7573
 21
-8.1316
  0
LINE
  8
0
 10
-11.7573
 20
-8.1316
 11
-11.3668
 21
-8.66907
  0
LINE
  8
0
 10
-11.3668
 20
-8.66907
 11
-11.0356
 21
-9.0869
  0
LINE
  8
0
 10
-11.0356
 20
-9.0869
 11
-10.6015
 21
-9.58981
  0
LINE
  8
0
 10
-10.6015
 20
-9.58981
 11
-10.2366
 21
-9.97847
  0
LINE
  8
0
 10
-10.2366
 20
-9.97847
 11
-9.76191
 21
-10.4433
  0
LINE
  8
0
 10
-9.76191
 20
-10.4433
 11
-9.36569
 21
-10.8001
  0
LINE
  8
0
 10
-9.36569
 20
-10.8001
 11
-8.8538
 21
-11.2235
  0
LINE
  8
0
 10
-8.8538
 20
-11.2235
 11
-8.42912
 21
-11.5459
  0
LINE
  8
0
 10
-8.42912
 20
-11.5459
 11
-7.88359
 21
-11.925
  0
LINE
  8
0
 10
-7.88359
 20
-11.925
 11
-7.43342
 21
-12.2107
  0
LINE
  8
0
 10
-7.43342
 20
-12.2107
 11
-6.85808
 21
-12.5429
  0
LINE
  8
0
 10
-6.85808
 20
-12.5429
 11
-6.38558
 21
-12.7899
  0
LINE
  8
0
 10
-6.38558
 20
-12.7899
 11
-5.78446
 21
-13.0728
  0
LINE
  8
0
 10
-5.78446
 20
-13.0728
 11
-5.29296
 21
-13.2794
  0
LINE
  8
0
 10
-5.29296
 20
-13.2794
 11
-4.67027
 21
-13.5109
  0
LINE
  8
0
 10
-4.67027
 20
-13.5109
 11
-4.1632
 21
-13.6757
  0
LINE
  8
0
 10
-4.1632
 20
-13.6757
 11
-3.52333
 21
-13.8544
  0
LINE
  8
0
 10
-3.52333
 20
-13.8544
 11
-3.00425
 21
-13.9761
  0
LINE
  8
0
 10
-3.00425
 20
-13.9761
 11
-2.35167
 21
-14.1006
  0
LINE
  8
0
 10
-2.35167
 20
-14.1006
 11
-1.82422
 21
-14.1785
  0
LINE
  8
0
 10
-1.82422
 20
-14.1785
 11
-1.16351
 21
-14.2479
  0
LINE
  8
0
 10
-1.16351
 20
-14.2479
 11
-0.6314
 21
-14.2814
  0
LINE
  8
0
 10
-0.6314
 20
-14.2814
 11
0.0328035
 21
-14.2953
  0
LINE
  8
0
 10
0.0328035
 20
-14.2953
 11
0.565851
 21
-14.2842
  0
LINE
  8
0
 10
0.565851
 20
-14.2842
 11
1.22889
 21
-14.2424
  0
LINE
  8
0
 10
1.22889
 20
-14.2424
 11
1.75913
 21
-14.1867
  0
LINE
  8
0
 10
1.75913
 20
-14.1867
 11
2.41636
 21
-14.0897
  0
LINE
  8
0
 10
2.41636
 20
-14.0897
 11
2.94008
 21
-13.9898
  0
LINE
  8
0
 10
2.94008
 20
-13.9898
 11
3.58687
 21
-13.838
  0
LINE
  8
0
 10
3.58687
 20
-13.838
 11
4.1004
 21
-13.6947
  0
LINE
  8
0
 10
4.1004
 20
-13.6947
 11
4.73223
 21
-13.4894
  0
LINE
  8
0
 10
4.73223
 20
-13.4894
 11
5.23196
 21
-13.3035
  0
LINE
  8
0
 10
5.23196
 20
-13.3035
 11
5.8444
 21
-13.0461
  0
LINE
  8
0
 10
5.8444
 20
-13.0461
 11
6.32682
 21
-12.8191
  0
LINE
  8
0
 10
6.32682
 20
-12.8191
 11
6.91557
 21
-12.5113
  0
LINE
  8
0
 10
6.91557
 20
-12.5113
 11
7.3773
 21
-12.2447
  0
LINE
  8
0
 10
7.3773
 20
-12.2447
 11
7.93823
 21
-11.8887
  0
LINE
  8
0
 10
7.93823
 20
-11.8887
 11
8.37604
 21
-11.5844
  0
LINE
  8
0
 10
8.37604
 20
-11.5844
 11
8.90521
 21
-11.1828
  0
LINE
  8
0
 10
8.90521
 20
-11.1828
 11
9.31602
 21
-10.8429
  0
LINE
  8
0
 10
9.31602
 20
-10.8429
 11
9.80973
 21
-10.3984
  0
LINE
  8
0
 10
9.80973
 20
-10.3984
 11
10.1907
 21
-10.0253
  0
LINE
  8
0
 10
10.1907
 20
-10.0253
 11
10.6454
 21
-9.54106
  0
LINE
  8
0
 10
10.6454
 20
-9.54106
 11
10.9938
 21
-9.13745
  0
LINE
  8
0
 10
10.9938
 20
-9.13745
 11
11.4065
 21
-8.61681
  0
LINE
  8
0
 10
11.4065
 20
-8.61681
 11
11.7199
 21
-8.18547
  0
LINE
  8
0
 10
11.7199
 20
-8.18547
 11
12.0875
 21
-7.63212
  0
LINE
  8
0
 10
12.0875
 20
-7.63212
 11
12.3637
 21
-7.17607
  0
LINE
  8
0
 10
12.3637
 20
-7.17607
 11
12.6838
 21
-6.59389
  0
LINE
  8
0
 10
12.6838
 20
-6.59389
 11
12.9208
 21
-6.11633
  0
LINE
  8
0
 10
12.9208
 20
-6.11633
 11
13.191
 21
-5.50942
  0
LINE
  8
0
 10
13.191
 20
-5.50942
 11
13.3873
 21
-5.01369
  0
LINE
  8
0
 10
13.3873
 20
-5.01369
 11
13.6058
 21
-4.3863
  0
LINE
  8
0
 10
13.6058
 20
-4.3863
 11
13.7599
 21
-3.87589
  0
LINE
  8
0
 10
13.7599
 20
-3.87589
 11
13.9251
 21
-3.23241
  0
LINE
  8
0
 10
13.9251
 20
-3.23241
 11
14.036
 21
-2.7109
  0
LINE
  8
0
 10
14.036
 20
-2.7109
 11
14.1468
 21
-2.05585
  0
LINE
  8
0
 10
14.1468
 20
-2.05585
 11
14.2136
 21
-1.52689
  0
LINE
  8
0
 10
14.2136
 20
-1.52689
 11
14.2692
 21
-0.864871
  0
LINE
  8
0
 10
14.2692
 20
-0.864871
 11
14.2915
 21
-0.332174
  0
LINE
  8
0
 10
14.2915
 20
-0.332174
 11
14.2915
 21
0.332174
  0
LINE
  8
0
 10
14.2915
 20
0.332174
 11
14.2692
 21
0.864871
  0
LINE
  8
0
 10
14.2692
 20
0.864871
 11
14.2136
 21
1.52689
  0
LINE
  8
0
 10
14.2136
 20
1.52689
 11
14.1468
 21
2.05585
  0
LINE
  8
0
 10
14.1468
 20
2.05585
 11
14.036
 21
2.7109
  0
LINE
  8
0
 10
14.036
 20
2.7109
 11
13.9251
 21
3.23241
  0
LINE
  8
0
 10
13.9251
 20
3.23241
 11
13.7599
 21
3.87589
  0
LINE
  8
0
 10
13.7599
 20
3.87589
 11
13.6058
 21
4.3863
  0
LINE
  8
0
 10
13.6058
 20
4.3863
 11
13.3873
 21
5.01369
  0
LINE
  8
0
 10
13.3873
 20
5.01369
 11
13.191
 21
5.50942
  0
LINE
  8
0
 10
13.191
 20
5.50942
 11
12.9208
 21
6.11633
  0
LINE
  8
0
 10
12.9208
 20
6.11633
 11
12.6838
 21
6.59389
  0
LINE
  8
0
 10
12.6838
 20
6.59389
 11
12.3637
 21
7.17607
  0
LINE
  8
0
 10
12.3637
 20
7.17607
 11
12.0875
 21
7.63212
  0
LINE
  8
0
 10
12.0875
 20
7.63212
 11
11.7199
 21
8.18547
  0
LINE
  8
0
 10
11.7199
 20
8.18547
 11
11.4065
 21
8.61681
  0
LINE
  8
0
 10
11.4065
 20
8.61681
 11
10.9938
 21
9.13745
  0
LINE
  8
0
 10
10.9938
 20
9.13745
 11
10.6454
 21
9.54106
  0
LINE
  8
0
 10
10.6454
 20
9.54106
 11
10.1907
 21
10.0253
  0
LINE
  8
0
 10
10.1907
 20
10.0253
 11
9.80973
 21
10.3984
  0
LINE
  8
0
 10
9.80973
 20
10.3984
 11
9.31602
 21
10.8429
  0
LINE
  8
0
 10
9.31602
 20
10.8429
 11
8.90521
 21
11.1828
  0
LINE
  8
0
 10
8.90521
 20
11.1828
 11
8.37604
 21
11.5844
  0
LINE
  8
0
 10
8.37604
 20
11.5844
 11
7.93823
 21
11.8887
  0
LINE
  8
0
 10
7.93823
 20
11.8887
 11
7.3773
 21
12.2447
  0
LINE
  8
0
 10
7.3773
 20
12.2447
 11
6.91557
 21
12.5113
  0
LINE
  8
0
 10
6.91557
 20
12.5113
 11
6.32682
 21
12.8191
  0
LINE
  8
0
 10
6.32682
 20
12.8191
 11
5.8444
 21
13.0461
  0
LINE
  8
0
 10
5.8444
 20
13.0461
 11
5.23196
 21
13.3035
  0
LINE
  8
0
 10
5.23196
 20
13.3035
 11
4.73223
 21
13.4894
  0
LINE
  8
0
 10
4.73223
 20
13.4894
 11
4.1004
 21
13.6947
  0
LINE
  8
0
 10
4.1004
 20
13.6947
 11
3.58687
 21
13.838
  0
LINE
  8
0
 10
3.58687
 20
13.838
 11
2.94008
 21
13.9898
  0
LINE
  8
0
 10
2.94008
 20
13.9898
 11
2.41636
 21
14.0897
  0
LINE
  8
0
 10
2.41636
 20
14.0897
 11
1.75913
 21
14.1867
  0
LINE
  8
0
 10
1.75913
 20
14.1867
 11
1.22889
 21
14.2424
  0
LINE
  8
0
 10
1.22889
 20
14.2424
 11
0.565851
 21
14.2842
  0
LINE
  8
0
 10
0.565851
 20
14.2842
 11
0.0328035
 21
14.2953
  0
LINE
  8
0
 10
0.0328035
 20
14.2953
 11
-0.6314
 21
14.2814
  0
LINE
  8
0
 10
-0.6314
 20
14.2814
 11
-1.16351
 21
14.2479
  0
LINE
  8
0
 10
-1.16351
 20
14.2479
 11
-1.82422
 21
14.1785
  0
LINE
  8
0
 10
-1.82422
 20
14.1785
 11
-2.35167
 21
14.1006
  0
LINE
  8
0
 10
-2.35167
 20
14.1006
 11
-3.00425
 21
13.9761
  0
LINE
  8
0
 10
-3.00425
 20
13.9761
 11
-3.52333
 21
13.8544
  0
LINE
  8
0
 10
-3.52333
 20
13.8544
 11
-4.1632
 21
13.6757
  0
LINE
  8
0
 10
-4.1632
 20
13.6757
 11
-4.67027
 21
13.5109
  0
LINE
  8
0
 10
-4.67027
 20
13.5109
 11
-5.29296
 21
13.2794
  0
LINE
  8
0
 10
-5.29296
 20
13.2794
 11
-5.78446
 21
13.0728
  0
LINE
  8
0
 10
-5.78446
 20
13.0728
 11
-6.38558
 21
12.7899
  0
LINE
  8
0
 10
-6.38558
 20
12.7899
 11
-6.85808
 21
12.5429
  0
LINE
  8
0
 10
-6.85808
 20
12.5429
 11
-7.43342
 21
12.2107
  0
LINE
  8
0
 10
-7.43342
 20
12.2107
 11
-7.88359
 21
11.925
  0
LINE
  8
0
 10
-7.88359
 20
11.925
 11
-8.42912
 21
11.5459
  0
LINE
  8
0
 10
-8.42912
 20
11.5459
 11
-8.8538
 21
11.2235
  0
LINE
  8
0
 10
-8.8538
 20
11.2235
 11
-9.36569
 21
10.8001
  0
LINE
  8
0
 10
-9.36569
 20
10.8001
 11
-9.76191
 21
10.4433
  0
LINE
  8
0
 10
-9.76191
 20
10.4433
 11
-10.2366
 21
9.97847
  0
LINE
  8
0
 10
-10.2366
 20
9.97847
 11
-10.6015
 21
9.58981
  0
LINE
  8
0
 10
-10.6015
 20
9.58981
 11
-11.0356
 21
9.0869
  0
LINE
  8
0
 10
-11.0356
 20
9.0869
 11
-11.3668
 21
8.66907
  0
LINE
  8
0
 10
-11.3668
 20
8.66907
 11
-11.7573
 21
8.1316
  0
LINE
  8
0
 10
-11.7573
 20
8.1316
 11
-12.0524
 21
7.68751
  0
LINE
  8
0
 10
-12.0524
 20
7.68751
 11
-12.3965
 21
7.11925
  0
LINE
  8
0
 10
-12.3965
 20
7.11925
 11
-12.6534
 21
6.65203
  0
LINE
  8
0
 10
-12.6534
 20
6.65203
 11
-12.9488
 21
6.05697
  0
LINE
  8
0
 10
-12.9488
 20
6.05697
 11
-13.1656
 21
5.5699
  0
LINE
  8
0
 10
-13.1656
 20
5.5699
 11
-13.4102
 21
4.9522
  0
LINE
  8
0
 10
-13.4102
 20
4.9522
 11
-13.5855
 21
4.44869
  0
LINE
  8
0
 10
-13.5855
 20
4.44869
 11
-13.7775
 21
3.8127
  0
LINE
  8
0
 10
-13.7775
 20
3.8127
 11
-13.9101
 21
3.29629
  0
LINE
  8
0
 10
-13.9101
 20
3.29629
 11
-14.0483
 21
2.64645
  0
LINE
  8
0
 10
-14.0483
 20
2.64645
 11
-14.1372
 21
2.12075
  0
LINE
  8
0
 10
-14.1372
 20
2.12075
 11
-14.2204
 21
1.46164
  0
LINE
  8
0
 10
-14.2204
 20
1.46164
 11
-14.2651
 21
0.930349
  0
LINE
  8
0
 10
-14.2651
 20
0.930349
 11
-14.2929
 21
0.266582
  0
LINE
  8
0
 10
-14.2929
 20
0.266582
 11
-14.2929
 21
-0.266582
  0
LINE
  8
0
 10
-8.75
 20
0
 11
-8.70283
 21
0.403577
  0
LINE
  8
0
 10
-8.70283
 20
0.403577
 11
-8.56386
 21
0.785398
  0
LINE
  8
0
 10
-8.56386
 20
0.785398
 11
-8.34058
 21
1.12488
  0
LINE
  8
0
 10
-8.34058
 20
1.12488
 11
-8.04503
 21
1.40372
  0
LINE
  8
0
 10
-8.04503
 20
1.40372
 11
-7.69314
 21
1.60688
  0
LINE
  8
0
 10
-7.69314
 20
1.60688
 11
-7.30388
 21
1.72341
  0
LINE
  8
0
 10
-7.30388
 20
1.72341
 11
-6.89825
 21
1.74704
  0
LINE
  8
0
 10
-6.89825
 20
1.74704
 11
-6.49809
 21
1.67648
  0
LINE
  8
0
 10
-6.49809
 20
1.67648
 11
-6.125
 21
1.51554
  0
LINE
  8
0
 10
-6.125
 20
1.51554
 11
-5.79908
 21
1.2729
  0
LINE
  8
0
 10
-5.79908
 20
1.2729
 11
-5.5379
 21
0.96164
  0
LINE
  8
0
 10
-5.5379
 20
0.96164
 11
-5.35554
 21
0.598535
  0
LINE
  8
0
 10
-5.35554
 20
0.598535
 11
-5.26183
 21
0.203162
  0
LINE
  8
0
 10
-5.26183
 20
0.203162
 11
-5.26183
 21
-0.203162
  0
LINE
  8
0
 10
-5.26183
 20
-0.203162
 11
-5.35554
 21
-0.598535
  0
LINE
  8
0
 10
-5.35554
 20
-0.598535
 11
-5.5379
 21
-0.96164
  0
LINE
  8
0
 10
-5.5379
 20
-0.96164
 11
-5.79908
 21
-1.2729
  0
LINE
  8
0
 10
-5.79908
 20
-1.2729
 11
-6.125
 21
-1.51554
  0
LINE
  8
0
 10
-6.125
 20
-1.51554
 11
-6.49809
 21
-1.67648
  0
LINE
  8
0
 10
-6.49809
 20
-1.67648
 11
-6.89825
 21
-1.74704
  0
LINE
  8
0
 10
-6.89825
 20
-1.74704
 11
-7.30388
 21
-1.72341
  0
LINE
  8
0
 10
-7.30388
 20
-1.72341
 11
-7.69314
 21
-1.60688
  0
LINE
  8
0
 10
-7.69314
 20
-1.60688
 11
-8.04503
 21
-1.40372
  0
LINE
  8
0
 10
-8.04503
 20
-1.40372
 11
-8.34058
 21
-1.12488
  0
LINE
  8
0
 10
-8.34058
 20
-1.12488
 11
-8.56386
 21
-0.785398
  0
LINE
  8
0
 10
-8.56386
 20
-0.785398
 11
-8.70283
 21
-0.403577
  0
LINE
  8
0
 10
-8.70283
 20
-0.403577
 11
-8.75
 21
0
  0
LINE
  8
0
 10
-3.5
 20
0
 11
-3.45226
 21
0.57608
  0
LINE
  8
0
 10
-3.45226
 20
0.57608
 11
-3.31036
 21
1.13645
  0
LINE
  8
0
 10
-3.31036
 20
1.13645
 11
-3.07816
 21
1.66582
  0
LINE
  8
0
 10
-3.07816
 20
1.66582
 11
-2.76199
 21
2.14974
  0
LINE
  8
0
 10
-2.76199
 20
2.14974
 11
-2.37049
 21
2.57503
  0
LINE
  8
0
 10
-2.37049
 20
2.57503
 11
-1.91432
 21
2.93008
  0
LINE
  8
0
 10
-1.91432
 20
2.93008
 11
-1.40593
 21
3.20521
  0
LINE
  8
0
 10
-1.40593
 20
3.20521
 11
-0.859199
 21
3.3929
  0
LINE
  8
0
 10
-0.859199
 20
3.3929
 11
-0.289027
 21
3.48805
  0
LINE
  8
0
 10
-0.289027
 20
3.48805
 11
0.289027
 21
3.48805
  0
LINE
  8
0
 10
0.289027
 20
3.48805
 11
0.859199
 21
3.3929
  0
LINE
  8
0
 10
0.859199
 20
3.3929
 11
1.40593
 21
3.20521
  0
LINE
  8
0
 10
1.40593
 20
3.20521
 11
1.91432
 21
2.93008
  0
LINE
  8
0
 10
1.91432
 20
2.93008
 11
2.37049
 21
2.57503
  0
LINE
  8
0
 10
2.37049
 20
2.57503
 11
2.76199
 21
2.14974
  0
LINE
  8
0
 10
2.76199
 20
2.14974
 11
3.07816
 21
1.66582
  0
LINE
  8
0
 10
3.07816
 20
1.66582
 11
3.31036
 21
1.13645
  0
LINE
  8
0
 10
3.31036
 20
1.13645
 11
3.45226
 21
0.57608
  0
LINE
  8
0
 10
3.45226
 20
0.57608
 11
3.5
 21
0
  0
LINE
  8
0
 10
3.5
 20
0
 11
3.45226
 21
-0.57608
  0
LINE
  8
0
 10
3.45226
 20
-0.57608
 11
3.31036
 21
-1.13645
  0
LINE
  8
0
 10
3.31036
 20
-1.13645
 11
3.07816
 21
-1.66582
  0
LINE
  8
0
 10
3.07816
 20
-1.66582
 11
2.76199
 21
-2.14974
  0
LINE
  8
0
 10
2.76199
 20
-2.14974
 11
2.37049
 21
-2.57503
  0
LINE
  8
0
 10
2.37049
 20
-2.57503
 11
1.91432
 21
-2.93008
  0
LINE
  8
0
 10
1.91432
 20
-2.93008
 11
1.40593
 21
-3.20521
  0
LINE
  8
0
 10
1.40593
 20
-3.20521
 11
0.859199
 21
-3.3929
  0
LINE
  8
0
 10
0.859199
 20
-3.3929
 11
0.289027
 21
-3.48805
  0
LINE
  8
0
 10
0.289027
 20
-3.48805
 11
-0.289027
 21
-3.48805
  0
LINE
  8
0
 10
-0.289027
 20
-3.48805
 11
-0.859199
 21
-3.3929
  0
LINE
  8
0
 10
-0.859199
 20
-3.3929
 11
-1.40593
 21
-3.20521
  0
LINE
  8
0
 10
-1.40593
 20
-3.20521
 11
-1.91432
 21
-2.93008
  0
LINE
  8
0
 10
-1.91432
 20
-2.93008
 11
-2.37049
 21
-2.57503
  0
LINE
  8
0
 10
-2.37049
 20
-2.57503
 11
-2.76199
 21
-2.14974
  0
LINE
  8
0
 10
-2.76199
 20
-2.14974
 11
-3.07816
 21
-1.66582
  0
LINE
  8
0
 10
-3.07816
 20
-1.66582
 11
-3.31036
 21
-1.13645
  0
LINE
  8
0
 10
-3.31036
 20
-1.13645
 11
-3.45226
 21
-0.57608
  0
LINE
  8
0
 10
-3.45226
 20
-0.57608
 11
-3.5
 21
0
  0
LINE
  8
0
 10
-1.75
 20
-7
 11
-1.70283
 21
-6.59642
  0
LINE
  8
0
 10
-1.70283
 20
-6.59642
 11
-1.56386
 21
-6.2146
  0
LINE
  8
0
 10
-1.56386
 20
-6.2146
 11
-1.34058
 21
-5.87512
  0
LINE
  8
0
 10
-1.34058
 20
-5.87512
 11
-1.04503
 21
-5.59628
  0
LINE
  8
0
 10
-1.04503
 20
-5.59628
 11
-0.693139
 21
-5.39312
  0
LINE
  8
0
 10
-0.693139
 20
-5.39312
 11
-0.303884
 21
-5.27659
  0
LINE
  8
0
 10
-0.303884
 20
-5.27659
 11
0.101753
 21
-5.25296
  0
LINE
  8
0
 10
0.101753
 20
-5.25296
 11
0.501905
 21
-5.32352
  0
LINE
  8
0
 10
0.501905
 20
-5.32352
 11
0.875
 21
-5.48446
  0
LINE
  8
0
 10
0.875
 20
-5.48446
 11
1.20092
 21
-5.7271
  0
LINE
  8
0
 10
1.20092
 20
-5.7271
 11
1.4621
 21
-6.03836
  0
LINE
  8
0
 10
1.4621
 20
-6.03836
 11
1.64446
 21
-6.40146
  0
LINE
  8
0
 10
1.64446
 20
-6.40146
 11
1.73817
 21
-6.79684
  0
LINE
  8
0
 10
1.73817
 20
-6.79684
 11
1.73817
 21
-7.20316
  0
LINE
  8
0
 10
1.73817
 20
-7.20316
 11
1.64446
 21
-7.59853
  0
LINE
  8
0
 10
1.64446
 20
-7.59853
 11
1.4621
 21
-7.96164
  0
LINE
  8
0
 10
1.4621
 20
-7.96164
 11
1.20092
 21
-8.2729
  0
LINE
  8
0
 10
1.20092
 20
-8.2729
 11
0.875
 21
-8.51554
  0
LINE
  8
0
 10
0.875
 20
-8.51554
 11
0.501905
 21
-8.67648
  0
LINE
  8
0
 10
0.501905
 20
-8.67648
 11
0.101753
 21
-8.74704
  0
LINE
  8
0
 10
0.101753
 20
-8.74704
 11
-0.303884
 21
-8.72341
  0
LINE
  8
0
 10
-0.303884
 20
-8.72341
 11
-0.693139
 21
-8.60688
  0
LINE
  8
0
 10
-0.693139
 20
-8.60688
 11
-1.04503
 21
-8.40372
  0
LINE
  8
0
 10
-1.04503
 20
-8.40372
 11
-1.34058
 21
-8.12488
  0
LINE
  8
0
 10
-1.34058
 20
-8.12488
 11
-1.56386
 21
-7.7854
  0
LINE
  8
0
 10
-1.56386
 20
-7.7854
 11
-1.70283
 21
-7.40358
  0
LINE
  8
0
 10
-1.70283
 20
-7.40358
 11
-1.75
 21
-7
  0
LINE
  8
0
 10
-1.75
 20
7
 11
-1.70283
 21
7.40358
  0
LINE
  8
0
 10
-1.70283
 20
7.40358
 11
-1.56386
 21
7.7854
  0
LINE
  8
0
 10
-1.56386
 20
7.7854
 11
-1.34058
 21
8.12488
  0
LINE
  8
0
 10
-1.34058
 20
8.12488
 11
-1.04503
 21
8.40372
  0
LINE
  8
0
 10
-1.04503
 20
8.40372
 11
-0.693139
 21
8.60688
  0
LINE
  8
0
 10
-0.693139
 20
8.60688
 11
-0.303884
 21
8.72341
  0
LINE
  8
0
 10
-0.303884
 20
8.72341
 11
0.101753
 21
8.74704
  0
LINE
  8
0
 10
0.101753
 20
8.74704
 11
0.501905
 21
8.67648
  0
LINE
  8
0
 10
0.501905
 20
8.67648
 11
0.875
 21
8.51554
  0
LINE
  8
0
 10
0.875
 20
8.51554
 11
1.20092
 21
8.2729
  0
LINE
  8
0
 10
1.20092
 20
8.2729
 11
1.4621
 21
7.96164
  0
LINE
  8
0
 10
1.4621
 20
7.96164
 11
1.64446
 21
7.59853
  0
LINE
  8
0
 10
1.64446
 20
7.59853
 11
1.73817
 21
7.20316
  0
LINE
  8
0
 10
1.73817
 20
7.20316
 11
1.73817
 21
6.79684
  0
LINE
  8
0
 10
1.73817
 20
6.79684
 11
1.64446
 21
6.40146
  0
LINE
  8
0
 10
1.64446
 20
6.40146
 11
1.4621
 21
6.03836
  0
LINE
  8
0
 10
1.4621
 20
6.03836
 11
1.20092
 21
5.7271
  0
LINE
  8
0
 10
1.20092
 20
5.7271
 11
0.875
 21
5.48446
  0
LINE
  8
0
 10
0.875
 20
5.48446
 11
0.501905
 21
5.32352
  0
LINE
  8
0
 10
0.501905
 20
5.32352
 11
0.101753
 21
5.25296
  0
LINE
  8
0
 10
0.101753
 20
5.25296
 11
-0.303884
 21
5.27659
  0
LINE
  8
0
 10
-0.303884
 20
5.27659
 11
-0.693139
 21
5.39312
  0
LINE
  8
0
 10
-0.693139
 20
5.39312
 11
-1.04503
 21
5.59628
  0
LINE
  8
0
 10
-1.04503
 20
5.59628
 11
-1.34058
 21
5.87512
  0
LINE
  8
0
 10
-1.34058
 20
5.87512
 11
-1.56386
 21
6.2146
  0
LINE
  8
0
 10
-1.56386
 20
6.2146
 11
-1.70283
 21
6.59642
  0
LINE
  8
0
 10
-1.70283
 20
6.59642
 11
-1.75
 21
7
  0
LINE
  8
0
 10
5.25
 20
0
 11
5.29717
 21
0.403577
  0
LINE
  8
0
 10
5.29717
 20
0.403577
 11
5.43614
 21
0.785398
  0
LINE
  8
0
 10
5.43614
 20
0.785398
 11
5.65942
 21
1.12488
  0
LINE
  8
0
 10
5.65942
 20
1.12488
 11
5.95497
 21
1.40372
  0
LINE
  8
0
 10
5.95497
 20
1.40372
 11
6.30686
 21
1.60688
  0
LINE
  8
0
 10
6.30686
 20
1.60688
 11
6.69612
 21
1.72341
  0
LINE
  8
0
 10
6.69612
 20
1.72341
 11
7.10175
 21
1.74704
  0
LINE
  8
0
 10
7.10175
 20
1.74704
 11
7.50191
 21
1.67648
  0
LINE
  8
0
 10
7.50191
 20
1.67648
 11
7.875
 21
1.51554
  0
LINE
  8
0
 10
7.875
 20
1.51554
 11
8.20092
 21
1.2729
  0
LINE
  8
0
 10
8.20092
 20
1.2729
 11
8.4621
 21
0.96164
  0
LINE
  8
0
 10
8.4621
 20
0.96164
 11
8.64446
 21
0.598535
  0
LINE
  8
0
 10
8.64446
 20
0.598535
 11
8.73817
 21
0.203162
  0
LINE
  8
0
 10
8.73817
 20
0.203162
 11
8.73817
 21
-0.203162
  0
LINE
  8
0
 10
8.73817
 20
-0.203162
 11
8.64446
 21
-0.598535
  0
LINE
  8
0
 10
8.64446
 20
-0.598535
 11
8.4621
 21
-0.96164
  0
LINE
  8
0
 10
8.4621
 20
-0.96164
 11
8.20092
 21
-1.2729
  0
LINE
  8
0
 10
8.20092
 20
-1.2729
 11
7.875
 21
-1.51554
  0
LINE
  8
0
 10
7.875
 20
-1.51554
 11
7.50191
 21
-1.67648
  0
LINE
  8
0
 10
7.50191
 20
-1.67648
 11
7.10175
 21
-1.74704
  0
LINE
  8
0
 10
7.10175
 20
-1.74704
 11
6.69612
 21
-1.72341
  0
LINE
  8
0
 10
6.69612
 20
-1.72341
 11
6.30686
 21
-1.60688
  0
LINE
  8
0
 10
6.30686
 20
-1.60688
 11
5.95497
 21
-1.40372
  0
LINE
  8
0
 10
5.95497
 20
-1.40372
 11
5.65942
 21
-1.12488
  0
LINE
  8
0
 10
5.65942
 20
-1.12488
 11
5.43614
 21
-0.785398
  0
LINE
  8
0
 10
5.43614
 20
-0.785398
 11
5.29717
 21
-0.403577
  0
LINE
  8
0
 10
5.29717
 20
-0.403577
 11
5.25
 21
0
  0
ENDSEC
  0
SECTION
  2
OBJECTS
  0
DICTIONARY
  0
ENDSEC
  0
EOF
