  0
SECTION
  2
BLOCKS
  0
ENDSEC
  0
SECTION
  2
ENTITIES
  0
LINE
  8
0
 10
-14.2379
 20
0
 11
-14.2199
 21
-0.428778
  0
LINE
  8
0
 10
-14.2199
 20
-0.428778
 11
-14.188
 21
-1.1914
  0
LINE
  8
0
 10
-14.188
 20
-1.1914
 11
-14.1342
 21
-1.61717
  0
LINE
  8
0
 10
-14.1342
 20
-1.61717
 11
-14.0385
 21
-2.37444
  0
LINE
  8
0
 10
-14.0385
 20
-2.37444
 11
-13.9493
 21
-2.79422
  0
LINE
  8
0
 10
-13.9493
 20
-2.79422
 11
-13.7906
 21
-3.54083
  0
LINE
  8
0
 10
-13.7906
 20
-3.54083
 11
-13.6666
 21
-3.95166
  0
LINE
  8
0
 10
-13.6666
 20
-3.95166
 11
-13.4459
 21
-4.68238
  0
LINE
  8
0
 10
-13.4459
 20
-4.68238
 11
-13.288
 21
-5.08139
  0
LINE
  8
0
 10
-13.288
 20
-5.08139
 11
-13.007
 21
-5.79108
  0
LINE
  8
0
 10
-13.007
 20
-5.79108
 11
-12.8162
 21
-6.17548
  0
LINE
  8
0
 10
-12.8162
 20
-6.17548
 11
-12.4768
 21
-6.85917
  0
LINE
  8
0
 10
-12.4768
 20
-6.85917
 11
-12.2545
 21
-7.22625
  0
LINE
  8
0
 10
-12.2545
 20
-7.22625
 11
-11.8591
 21
-7.87914
  0
LINE
  8
0
 10
-11.8591
 20
-7.87914
 11
-11.6068
 21
-8.22633
  0
LINE
  8
0
 10
-11.6068
 20
-8.22633
 11
-11.1582
 21
-8.84385
  0
LINE
  8
0
 10
-11.1582
 20
-8.84385
 11
-10.8777
 21
-9.16872
  0
LINE
  8
0
 10
-10.8777
 20
-9.16872
 11
-10.379
 21
-9.74652
  0
LINE
  8
0
 10
-10.379
 20
-9.74652
 11
-10.0724
 21
-10.0468
  0
LINE
  8
0
 10
-10.0724
 20
-10.0468
 11
-9.52702
 21
-10.5808
  0
LINE
  8
0
 10
-9.52702
 20
-10.5808
 11
-9.19636
 21
-10.8544
  0
LINE
  8
0
 10
-9.19636
 20
-10.8544
 11
-8.60823
 21
-11.3409
  0
LINE
  8
0
 10
-8.60823
 20
-11.3409
 11
-8.25583
 21
-11.5858
  0
LINE
  8
0
 10
-8.25583
 20
-11.5858
 11
-7.62906
 21
-12.0215
  0
LINE
  8
0
 10
-7.62906
 20
-12.0215
 11
-7.2574
 21
-12.236
  0
LINE
  8
0
 10
-7.2574
 20
-12.236
 11
-6.59637
 21
-12.6177
  0
LINE
  8
0
 10
-6.59637
 20
-12.6177
 11
-6.20806
 21
-12.8004
  0
LINE
  8
0
 10
-6.20806
 20
-12.8004
 11
-5.51741
 21
-13.1254
  0
LINE
  8
0
 10
-5.51741
 20
-13.1254
 11
-5.11518
 21
-13.275
  0
LINE
  8
0
 10
-5.11518
 20
-13.275
 11
-4.39976
 21
-13.5411
  0
LINE
  8
0
 10
-4.39976
 20
-13.5411
 11
-3.98641
 21
-13.6565
  0
LINE
  8
0
 10
-3.98641
 20
-13.6565
 11
-3.25124
 21
-13.8617
  0
LINE
  8
0
 10
-3.25124
 20
-13.8617
 11
-2.82969
 21
-13.9421
  0
LINE
  8
0
 10
-2.82969
 20
-13.9421
 11
-2.07992
 21
-14.0852
  0
LINE
  8
0
 10
-2.07992
 20
-14.0852
 11
-1.65311
 21
-14.13
  0
LINE
  8
0
 10
-1.65311
 20
-14.13
 11
-0.894005
 21
-14.2098
  0
LINE
  8
0
 10
-0.894005
 20
-14.2098
 11
-0.464946
 21
-14.2188
  0
LINE
  8
0
 10
-0.464946
 20
-14.2188
 11
0.298175
 21
-14.2348
  0
LINE
  8
0
 10
0.298175
 20
-14.2348
 11
0.726483
 21
-14.2078
  0
LINE
  8
0
 10
0.726483
 20
-14.2078
 11
1.48827
 21
-14.1599
  0
LINE
  8
0
 10
1.48827
 20
-14.1599
 11
1.91282
 21
-14.0972
  0
LINE
  8
0
 10
1.91282
 20
-14.0972
 11
2.66792
 21
-13.9857
  0
LINE
  8
0
 10
2.66792
 20
-13.9857
 11
3.08573
 21
-13.8877
  0
LINE
  8
0
 10
3.08573
 20
-13.8877
 11
3.82886
 21
-13.7134
  0
LINE
  8
0
 10
3.82886
 20
-13.7134
 11
4.23701
 21
-13.5808
  0
LINE
  8
0
 10
4.23701
 20
-13.5808
 11
4.96294
 21
-13.3449
  0
LINE
  8
0
 10
4.96294
 20
-13.3449
 11
5.35856
 21
-13.1786
  0
LINE
  8
0
 10
5.35856
 20
-13.1786
 11
6.06221
 21
-12.8829
  0
LINE
  8
0
 10
6.06221
 20
-12.8829
 11
6.44253
 21
-12.684
  0
LINE
  8
0
 10
6.44253
 20
-12.684
 11
7.11896
 21
-12.3304
  0
LINE
  8
0
 10
7.11896
 20
-12.3304
 11
7.4813
 21
-12.1004
  0
LINE
  8
0
 10
7.4813
 20
-12.1004
 11
8.12577
 21
-11.6915
  0
LINE
  8
0
 10
8.12577
 20
-11.6915
 11
8.4676
 21
-11.432
  0
LINE
  8
0
 10
8.4676
 20
-11.432
 11
9.07559
 21
-10.9705
  0
LINE
  8
0
 10
9.07559
 20
-10.9705
 11
9.39451
 21
-10.6833
  0
LINE
  8
0
 10
9.39451
 20
-10.6833
 11
9.96175
 21
-10.1726
  0
LINE
  8
0
 10
9.96175
 20
-10.1726
 11
10.2555
 21
-9.85976
  0
LINE
  8
0
 10
10.2555
 20
-9.85976
 11
10.778
 21
-9.30335
  0
LINE
  8
0
 10
10.778
 20
-9.30335
 11
11.0446
 21
-8.96702
  0
LINE
  8
0
 10
11.0446
 20
-8.96702
 11
11.5187
 21
-8.36884
  0
LINE
  8
0
 10
11.5187
 20
-8.36884
 11
11.7562
 21
-8.01138
  0
LINE
  8
0
 10
11.7562
 20
-8.01138
 11
12.1786
 21
-7.37562
  0
LINE
  8
0
 10
12.1786
 20
-7.37562
 11
12.3854
 21
-6.99955
  0
LINE
  8
0
 10
12.3854
 20
-6.99955
 11
12.7531
 21
-6.33068
  0
LINE
  8
0
 10
12.7531
 20
-6.33068
 11
12.9276
 21
-5.93863
  0
LINE
  8
0
 10
12.9276
 20
-5.93863
 11
13.2381
 21
-5.24133
  0
LINE
  8
0
 10
13.2381
 20
-5.24133
 11
13.3792
 21
-4.83604
  0
LINE
  8
0
 10
13.3792
 20
-4.83604
 11
13.6302
 21
-4.11521
  0
LINE
  8
0
 10
13.6302
 20
-4.11521
 11
13.737
 21
-3.69954
  0
LINE
  8
0
 10
13.737
 20
-3.69954
 11
13.9268
 21
-2.96023
  0
LINE
  8
0
 10
13.9268
 20
-2.96023
 11
13.9984
 21
-2.53708
  0
LINE
  8
0
 10
13.9984
 20
-2.53708
 11
14.1256
 21
-1.78448
  0
LINE
  8
0
 10
14.1256
 20
-1.78448
 11
14.1616
 21
-1.35683
  0
LINE
  8
0
 10
14.1616
 20
-1.35683
 11
14.2254
 21
-0.596221
  0
LINE
  8
0
 10
14.2254
 20
-0.596221
 11
14.2254
 21
0.596221
  0
LINE
  8
0
 10
14.2254
 20
0.596221
 11
14.1895
 21
1.02387
  0
LINE
  8
0
 10
14.1895
 20
1.02387
 11
14.1256
 21
1.78448
  0
LINE
  8
0
 10
14.1256
 20
1.78448
 11
14.0541
 21
2.20763
  0
LINE
  8
0
 10
14.0541
 20
2.20763
 11
13.9268
 21
2.96023
  0
LINE
  8
0
 10
13.9268
 20
2.96023
 11
13.8201
 21
3.3759
  0
LINE
  8
0
 10
13.8201
 20
3.3759
 11
13.6302
 21
4.11521
  0
LINE
  8
0
 10
13.6302
 20
4.11521
 11
13.4891
 21
4.52049
  0
LINE
  8
0
 10
13.4891
 20
4.52049
 11
13.2381
 21
5.24133
  0
LINE
  8
0
 10
13.2381
 20
5.24133
 11
13.0635
 21
5.63338
  0
LINE
  8
0
 10
13.0635
 20
5.63338
 11
12.7531
 21
6.33068
  0
LINE
  8
0
 10
12.7531
 20
6.33068
 11
12.5463
 21
6.70675
  0
LINE
  8
0
 10
12.5463
 20
6.70675
 11
12.1786
 21
7.37562
  0
LINE
  8
0
 10
12.1786
 20
7.37562
 11
11.9411
 21
7.73308
  0
LINE
  8
0
 10
11.9411
 20
7.73308
 11
11.5187
 21
8.36884
  0
LINE
  8
0
 10
11.5187
 20
8.36884
 11
11.2521
 21
8.70516
  0
LINE
  8
0
 10
11.2521
 20
8.70516
 11
10.778
 21
9.30335
  0
LINE
  8
0
 10
10.778
 20
9.30335
 11
10.4843
 21
9.61619
  0
LINE
  8
0
 10
10.4843
 20
9.61619
 11
9.96175
 21
10.1726
  0
LINE
  8
0
 10
9.96175
 20
10.1726
 11
9.64282
 21
10.4598
  0
LINE
  8
0
 10
9.64282
 20
10.4598
 11
9.07559
 21
10.9705
  0
LINE
  8
0
 10
9.07559
 20
10.9705
 11
8.73375
 21
11.23
  0
LINE
  8
0
 10
8.73375
 20
11.23
 11
8.12577
 21
11.6915
  0
LINE
  8
0
 10
8.12577
 20
11.6915
 11
7.76342
 21
11.9214
  0
LINE
  8
0
 10
7.76342
 20
11.9214
 11
7.11896
 21
12.3304
  0
LINE
  8
0
 10
7.11896
 20
12.3304
 11
6.73864
 21
12.5292
  0
LINE
  8
0
 10
6.73864
 20
12.5292
 11
6.06221
 21
12.8829
  0
LINE
  8
0
 10
6.06221
 20
12.8829
 11
5.66659
 21
13.0492
  0
LINE
  8
0
 10
5.66659
 20
13.0492
 11
4.96294
 21
13.3449
  0
LINE
  8
0
 10
4.96294
 20
13.3449
 11
4.55479
 21
13.4776
  0
LINE
  8
0
 10
4.55479
 20
13.4776
 11
3.82886
 21
13.7134
  0
LINE
  8
0
 10
3.82886
 20
13.7134
 11
3.41104
 21
13.8114
  0
LINE
  8
0
 10
3.41104
 20
13.8114
 11
2.66792
 21
13.9857
  0
LINE
  8
0
 10
2.66792
 20
13.9857
 11
2.24337
 21
14.0484
  0
LINE
  8
0
 10
2.24337
 20
14.0484
 11
1.48827
 21
14.1599
  0
LINE
  8
0
 10
1.48827
 20
14.1599
 11
1.05996
 21
14.1869
  0
LINE
  8
0
 10
1.05996
 20
14.1869
 11
0.298175
 21
14.2348
  0
LINE
  8
0
 10
0.298175
 20
14.2348
 11
-0.130884
 21
14.2258
  0
LINE
  8
0
 10
-0.130884
 20
14.2258
 11
-0.894005
 21
14.2098
  0
LINE
  8
0
 10
-0.894005
 20
14.2098
 11
-1.32081
 21
14.165
  0
LINE
  8
0
 10
-1.32081
 20
14.165
 11
-2.07992
 21
14.0852
  0
LINE
  8
0
 10
-2.07992
 20
14.0852
 11
-2.50147
 21
14.0048
  0
LINE
  8
0
 10
-2.50147
 20
14.0048
 11
-3.25124
 21
13.8617
  0
LINE
  8
0
 10
-3.25124
 20
13.8617
 11
-3.66459
 21
13.7463
  0
LINE
  8
0
 10
-3.66459
 20
13.7463
 11
-4.39976
 21
13.5411
  0
LINE
  8
0
 10
-4.39976
 20
13.5411
 11
-4.802
 21
13.3915
  0
LINE
  8
0
 10
-4.802
 20
13.3915
 11
-5.51741
 21
13.1254
  0
LINE
  8
0
 10
-5.51741
 20
13.1254
 11
-5.90572
 21
12.9427
  0
LINE
  8
0
 10
-5.90572
 20
12.9427
 11
-6.59637
 21
12.6177
  0
LINE
  8
0
 10
-6.59637
 20
12.6177
 11
-6.96803
 21
12.4031
  0
LINE
  8
0
 10
-6.96803
 20
12.4031
 11
-7.62906
 21
12.0215
  0
LINE
  8
0
 10
-7.62906
 20
12.0215
 11
-7.98146
 21
11.7765
  0
LINE
  8
0
 10
-7.98146
 20
11.7765
 11
-8.60823
 21
11.3409
  0
LINE
  8
0
 10
-8.60823
 20
11.3409
 11
-8.9389
 21
11.0674
  0
LINE
  8
0
 10
-8.9389
 20
11.0674
 11
-9.52702
 21
10.5808
  0
LINE
  8
0
 10
-9.52702
 20
10.5808
 11
-9.83364
 21
10.2806
  0
LINE
  8
0
 10
-9.83364
 20
10.2806
 11
-10.379
 21
9.74652
  0
LINE
  8
0
 10
-10.379
 20
9.74652
 11
-10.6594
 21
9.42166
  0
LINE
  8
0
 10
-10.6594
 20
9.42166
 11
-11.1582
 21
8.84385
  0
LINE
  8
0
 10
-11.1582
 20
8.84385
 11
-11.4104
 21
8.49666
  0
LINE
  8
0
 10
-11.4104
 20
8.49666
 11
-11.8591
 21
7.87914
  0
LINE
  8
0
 10
-11.8591
 20
7.87914
 11
-12.0814
 21
7.51206
  0
LINE
  8
0
 10
-12.0814
 20
7.51206
 11
-12.4768
 21
6.85917
  0
LINE
  8
0
 10
-12.4768
 20
6.85917
 11
-12.6676
 21
6.47477
  0
LINE
  8
0
 10
-12.6676
 20
6.47477
 11
-13.007
 21
5.79108
  0
LINE
  8
0
 10
-13.007
 20
5.79108
 11
-13.165
 21
5.39206
  0
LINE
  8
0
 10
-13.165
 20
5.39206
 11
-13.4459
 21
4.68238
  0
LINE
  8
0
 10
-13.4459
 20
4.68238
 11
-13.57
 21
4.27154
  0
LINE
  8
0
 10
-13.57
 20
4.27154
 11
-13.7906
 21
3.54083
  0
LINE
  8
0
 10
-13.7906
 20
3.54083
 11
-13.8798
 21
3.12105
  0
LINE
  8
0
 10
-13.8798
 20
3.12105
 11
-14.0385
 21
2.37444
  0
LINE
  8
0
 10
-14.0385
 20
2.37444
 11
-14.0923
 21
1.94867
  0
LINE
  8
0
 10
-14.0923
 20
1.94867
 11
-14.188
 21
1.1914
  0
LINE
  8
0
 10
-14.188
 20
1.1914
 11
-14.206
 21
0.76262
  0
LINE
  8
0
 10
-14.206
 20
0.76262
 11
-14.2379
 21
0
  0
LINE
  8
0
 10
-8.75
 20
0
 11
-8.70283
 21
0.403577
  0
LINE
  8
0
 10
-8.70283
 20
0.403577
 11
-8.56386
 21
0.785398
  0
LINE
  8
0
 10
-8.56386
 20
0.785398
 11
-8.34058
 21
1.12488
  0
LINE
  8
0
 10
-8.34058
 20
1.12488
 11
-8.04503
 21
1.40372
  0
LINE
  8
0
 10
-8.04503
 20
1.40372
 11
-7.69314
 21
1.60688
  0
LINE
  8
0
 10
-7.69314
 20
1.60688
 11
-7.30388
 21
1.72341
  0
LINE
  8
0
 10
-7.30388
 20
1.72341
 11
-6.89825
 21
1.74704
  0
LINE
  8
0
 10
-6.89825
 20
1.74704
 11
-6.49809
 21
1.67648
  0
LINE
  8
0
 10
-6.49809
 20
1.67648
 11
-6.125
 21
1.51554
  0
LINE
  8
0
 10
-6.125
 20
1.51554
 11
-5.79908
 21
1.2729
  0
LINE
  8
0
 10
-5.79908
 20
1.2729
 11
-5.5379
 21
0.96164
  0
LINE
  8
0
 10
-5.5379
 20
0.96164
 11
-5.35554
 21
0.598535
  0
LINE
  8
0
 10
-5.35554
 20
0.598535
 11
-5.26183
 21
0.203162
  0
LINE
  8
0
 10
-5.26183
 20
0.203162
 11
-5.26183
 21
-0.203162
  0
LINE
  8
0
 10
-5.26183
 20
-0.203162
 11
-5.35554
 21
-0.598535
  0
LINE
  8
0
 10
-5.35554
 20
-0.598535
 11
-5.5379
 21
-0.96164
  0
LINE
  8
0
 10
-5.5379
 20
-0.96164
 11
-5.79908
 21
-1.2729
  0
LINE
  8
0
 10
-5.79908
 20
-1.2729
 11
-6.125
 21
-1.51554
  0
LINE
  8
0
 10
-6.125
 20
-1.51554
 11
-6.49809
 21
-1.67648
  0
LINE
  8
0
 10
-6.49809
 20
-1.67648
 11
-6.89825
 21
-1.74704
  0
LINE
  8
0
 10
-6.89825
 20
-1.74704
 11
-7.30388
 21
-1.72341
  0
LINE
  8
0
 10
-7.30388
 20
-1.72341
 11
-7.69314
 21
-1.60688
  0
LINE
  8
0
 10
-7.69314
 20
-1.60688
 11
-8.04503
 21
-1.40372
  0
LINE
  8
0
 10
-8.04503
 20
-1.40372
 11
-8.34058
 21
-1.12488
  0
LINE
  8
0
 10
-8.34058
 20
-1.12488
 11
-8.56386
 21
-0.785398
  0
LINE
  8
0
 10
-8.56386
 20
-0.785398
 11
-8.70283
 21
-0.403577
  0
LINE
  8
0
 10
-8.70283
 20
-0.403577
 11
-8.75
 21
0
  0
LINE
  8
0
 10
-3.5
 20
0
 11
-3.45226
 21
0.57608
  0
LINE
  8
0
 10
-3.45226
 20
0.57608
 11
-3.31036
 21
1.13645
  0
LINE
  8
0
 10
-3.31036
 20
1.13645
 11
-3.07816
 21
1.66582
  0
LINE
  8
0
 10
-3.07816
 20
1.66582
 11
-2.76199
 21
2.14974
  0
LINE
  8
0
 10
-2.76199
 20
2.14974
 11
-2.37049
 21
2.57503
  0
LINE
  8
0
 10
-2.37049
 20
2.57503
 11
-1.91432
 21
2.93008
  0
LINE
  8
0
 10
-1.91432
 20
2.93008
 11
-1.40593
 21
3.20521
  0
LINE
  8
0
 10
-1.40593
 20
3.20521
 11
-0.859199
 21
3.3929
  0
LINE
  8
0
 10
-0.859199
 20
3.3929
 11
-0.289027
 21
3.48805
  0
LINE
  8
0
 10
-0.289027
 20
3.48805
 11
0.289027
 21
3.48805
  0
LINE
  8
0
 10
0.289027
 20
3.48805
 11
0.859199
 21
3.3929
  0
LINE
  8
0
 10
0.859199
 20
3.3929
 11
1.40593
 21
3.20521
  0
LINE
  8
0
 10
1.40593
 20
3.20521
 11
1.91432
 21
2.93008
  0
LINE
  8
0
 10
1.91432
 20
2.93008
 11
2.37049
 21
2.57503
  0
LINE
  8
0
 10
2.37049
 20
2.57503
 11
2.76199
 21
2.14974
  0
LINE
  8
0
 10
2.76199
 20
2.14974
 11
3.07816
 21
1.66582
  0
LINE
  8
0
 10
3.07816
 20
1.66582
 11
3.31036
 21
1.13645
  0
LINE
  8
0
 10
3.31036
 20
1.13645
 11
3.45226
 21
0.57608
  0
LINE
  8
0
 10
3.45226
 20
0.57608
 11
3.5
 21
0
  0
LINE
  8
0
 10
3.5
 20
0
 11
3.45226
 21
-0.57608
  0
LINE
  8
0
 10
3.45226
 20
-0.57608
 11
3.31036
 21
-1.13645
  0
LINE
  8
0
 10
3.31036
 20
-1.13645
 11
3.07816
 21
-1.66582
  0
LINE
  8
0
 10
3.07816
 20
-1.66582
 11
2.76199
 21
-2.14974
  0
LINE
  8
0
 10
2.76199
 20
-2.14974
 11
2.37049
 21
-2.57503
  0
LINE
  8
0
 10
2.37049
 20
-2.57503
 11
1.91432
 21
-2.93008
  0
LINE
  8
0
 10
1.91432
 20
-2.93008
 11
1.40593
 21
-3.20521
  0
LINE
  8
0
 10
1.40593
 20
-3.20521
 11
0.859199
 21
-3.3929
  0
LINE
  8
0
 10
0.859199
 20
-3.3929
 11
0.289027
 21
-3.48805
  0
LINE
  8
0
 10
0.289027
 20
-3.48805
 11
-0.289027
 21
-3.48805
  0
LINE
  8
0
 10
-0.289027
 20
-3.48805
 11
-0.859199
 21
-3.3929
  0
LINE
  8
0
 10
-0.859199
 20
-3.3929
 11
-1.40593
 21
-3.20521
  0
LINE
  8
0
 10
-1.40593
 20
-3.20521
 11
-1.91432
 21
-2.93008
  0
LINE
  8
0
 10
-1.91432
 20
-2.93008
 11
-2.37049
 21
-2.57503
  0
LINE
  8
0
 10
-2.37049
 20
-2.57503
 11
-2.76199
 21
-2.14974
  0
LINE
  8
0
 10
-2.76199
 20
-2.14974
 11
-3.07816
 21
-1.66582
  0
LINE
  8
0
 10
-3.07816
 20
-1.66582
 11
-3.31036
 21
-1.13645
  0
LINE
  8
0
 10
-3.31036
 20
-1.13645
 11
-3.45226
 21
-0.57608
  0
LINE
  8
0
 10
-3.45226
 20
-0.57608
 11
-3.5
 21
0
  0
LINE
  8
0
 10
-1.75
 20
-7
 11
-1.70283
 21
-6.59642
  0
LINE
  8
0
 10
-1.70283
 20
-6.59642
 11
-1.56386
 21
-6.2146
  0
LINE
  8
0
 10
-1.56386
 20
-6.2146
 11
-1.34058
 21
-5.87512
  0
LINE
  8
0
 10
-1.34058
 20
-5.87512
 11
-1.04503
 21
-5.59628
  0
LINE
  8
0
 10
-1.04503
 20
-5.59628
 11
-0.693139
 21
-5.39312
  0
LINE
  8
0
 10
-0.693139
 20
-5.39312
 11
-0.303884
 21
-5.27659
  0
LINE
  8
0
 10
-0.303884
 20
-5.27659
 11
0.101753
 21
-5.25296
  0
LINE
  8
0
 10
0.101753
 20
-5.25296
 11
0.501905
 21
-5.32352
  0
LINE
  8
0
 10
0.501905
 20
-5.32352
 11
0.875
 21
-5.48446
  0
LINE
  8
0
 10
0.875
 20
-5.48446
 11
1.20092
 21
-5.7271
  0
LINE
  8
0
 10
1.20092
 20
-5.7271
 11
1.4621
 21
-6.03836
  0
LINE
  8
0
 10
1.4621
 20
-6.03836
 11
1.64446
 21
-6.40146
  0
LINE
  8
0
 10
1.64446
 20
-6.40146
 11
1.73817
 21
-6.79684
  0
LINE
  8
0
 10
1.73817
 20
-6.79684
 11
1.73817
 21
-7.20316
  0
LINE
  8
0
 10
1.73817
 20
-7.20316
 11
1.64446
 21
-7.59853
  0
LINE
  8
0
 10
1.64446
 20
-7.59853
 11
1.4621
 21
-7.96164
  0
LINE
  8
0
 10
1.4621
 20
-7.96164
 11
1.20092
 21
-8.2729
  0
LINE
  8
0
 10
1.20092
 20
-8.2729
 11
0.875
 21
-8.51554
  0
LINE
  8
0
 10
0.875
 20
-8.51554
 11
0.501905
 21
-8.67648
  0
LINE
  8
0
 10
0.501905
 20
-8.67648
 11
0.101753
 21
-8.74704
  0
LINE
  8
0
 10
0.101753
 20
-8.74704
 11
-0.303884
 21
-8.72341
  0
LINE
  8
0
 10
-0.303884
 20
-8.72341
 11
-0.693139
 21
-8.60688
  0
LINE
  8
0
 10
-0.693139
 20
-8.60688
 11
-1.04503
 21
-8.40372
  0
LINE
  8
0
 10
-1.04503
 20
-8.40372
 11
-1.34058
 21
-8.12488
  0
LINE
  8
0
 10
-1.34058
 20
-8.12488
 11
-1.56386
 21
-7.7854
  0
LINE
  8
0
 10
-1.56386
 20
-7.7854
 11
-1.70283
 21
-7.40358
  0
LINE
  8
0
 10
-1.70283
 20
-7.40358
 11
-1.75
 21
-7
  0
LINE
  8
0
 10
-1.75
 20
7
 11
-1.70283
 21
7.40358
  0
LINE
  8
0
 10
-1.70283
 20
7.40358
 11
-1.56386
 21
7.7854
  0
LINE
  8
0
 10
-1.56386
 20
7.7854
 11
-1.34058
 21
8.12488
  0
LINE
  8
0
 10
-1.34058
 20
8.12488
 11
-1.04503
 21
8.40372
  0
LINE
  8
0
 10
-1.04503
 20
8.40372
 11
-0.693139
 21
8.60688
  0
LINE
  8
0
 10
-0.693139
 20
8.60688
 11
-0.303884
 21
8.72341
  0
LINE
  8
0
 10
-0.303884
 20
8.72341
 11
0.101753
 21
8.74704
  0
LINE
  8
0
 10
0.101753
 20
8.74704
 11
0.501905
 21
8.67648
  0
LINE
  8
0
 10
0.501905
 20
8.67648
 11
0.875
 21
8.51554
  0
LINE
  8
0
 10
0.875
 20
8.51554
 11
1.20092
 21
8.2729
  0
LINE
  8
0
 10
1.20092
 20
8.2729
 11
1.4621
 21
7.96164
  0
LINE
  8
0
 10
1.4621
 20
7.96164
 11
1.64446
 21
7.59853
  0
LINE
  8
0
 10
1.64446
 20
7.59853
 11
1.73817
 21
7.20316
  0
LINE
  8
0
 10
1.73817
 20
7.20316
 11
1.73817
 21
6.79684
  0
LINE
  8
0
 10
1.73817
 20
6.79684
 11
1.64446
 21
6.40146
  0
LINE
  8
0
 10
1.64446
 20
6.40146
 11
1.4621
 21
6.03836
  0
LINE
  8
0
 10
1.4621
 20
6.03836
 11
1.20092
 21
5.7271
  0
LINE
  8
0
 10
1.20092
 20
5.7271
 11
0.875
 21
5.48446
  0
LINE
  8
0
 10
0.875
 20
5.48446
 11
0.501905
 21
5.32352
  0
LINE
  8
0
 10
0.501905
 20
5.32352
 11
0.101753
 21
5.25296
  0
LINE
  8
0
 10
0.101753
 20
5.25296
 11
-0.303884
 21
5.27659
  0
LINE
  8
0
 10
-0.303884
 20
5.27659
 11
-0.693139
 21
5.39312
  0
LINE
  8
0
 10
-0.693139
 20
5.39312
 11
-1.04503
 21
5.59628
  0
LINE
  8
0
 10
-1.04503
 20
5.59628
 11
-1.34058
 21
5.87512
  0
LINE
  8
0
 10
-1.34058
 20
5.87512
 11
-1.56386
 21
6.2146
  0
LINE
  8
0
 10
-1.56386
 20
6.2146
 11
-1.70283
 21
6.59642
  0
LINE
  8
0
 10
-1.70283
 20
6.59642
 11
-1.75
 21
7
  0
LINE
  8
0
 10
5.25
 20
0
 11
5.29717
 21
0.403577
  0
LINE
  8
0
 10
5.29717
 20
0.403577
 11
5.43614
 21
0.785398
  0
LINE
  8
0
 10
5.43614
 20
0.785398
 11
5.65942
 21
1.12488
  0
LINE
  8
0
 10
5.65942
 20
1.12488
 11
5.95497
 21
1.40372
  0
LINE
  8
0
 10
5.95497
 20
1.40372
 11
6.30686
 21
1.60688
  0
LINE
  8
0
 10
6.30686
 20
1.60688
 11
6.69612
 21
1.72341
  0
LINE
  8
0
 10
6.69612
 20
1.72341
 11
7.10175
 21
1.74704
  0
LINE
  8
0
 10
7.10175
 20
1.74704
 11
7.50191
 21
1.67648
  0
LINE
  8
0
 10
7.50191
 20
1.67648
 11
7.875
 21
1.51554
  0
LINE
  8
0
 10
7.875
 20
1.51554
 11
8.20092
 21
1.2729
  0
LINE
  8
0
 10
8.20092
 20
1.2729
 11
8.4621
 21
0.96164
  0
LINE
  8
0
 10
8.4621
 20
0.96164
 11
8.64446
 21
0.598535
  0
LINE
  8
0
 10
8.64446
 20
0.598535
 11
8.73817
 21
0.203162
  0
LINE
  8
0
 10
8.73817
 20
0.203162
 11
8.73817
 21
-0.203162
  0
LINE
  8
0
 10
8.73817
 20
-0.203162
 11
8.64446
 21
-0.598535
  0
LINE
  8
0
 10
8.64446
 20
-0.598535
 11
8.4621
 21
-0.96164
  0
LINE
  8
0
 10
8.4621
 20
-0.96164
 11
8.20092
 21
-1.2729
  0
LINE
  8
0
 10
8.20092
 20
-1.2729
 11
7.875
 21
-1.51554
  0
LINE
  8
0
 10
7.875
 20
-1.51554
 11
7.50191
 21
-1.67648
  0
LINE
  8
0
 10
7.50191
 20
-1.67648
 11
7.10175
 21
-1.74704
  0
LINE
  8
0
 10
7.10175
 20
-1.74704
 11
6.69612
 21
-1.72341
  0
LINE
  8
0
 10
6.69612
 20
-1.72341
 11
6.30686
 21
-1.60688
  0
LINE
  8
0
 10
6.30686
 20
-1.60688
 11
5.95497
 21
-1.40372
  0
LINE
  8
0
 10
5.95497
 20
-1.40372
 11
5.65942
 21
-1.12488
  0
LINE
  8
0
 10
5.65942
 20
-1.12488
 11
5.43614
 21
-0.785398
  0
LINE
  8
0
 10
5.43614
 20
-0.785398
 11
5.29717
 21
-0.403577
  0
LINE
  8
0
 10
5.29717
 20
-0.403577
 11
5.25
 21
0
  0
ENDSEC
  0
SECTION
  2
OBJECTS
  0
DICTIONARY
  0
ENDSEC
  0
EOF
