  0
SECTION
  2
BLOCKS
  0
ENDSEC
  0
SECTION
  2
ENTITIES
  0
LINE
  8
0
 10
-22.9147
 20
6.47686
 11
-19.6949
 21
5.6141
  0
LINE
  8
0
 10
-19.6949
 20
5.6141
 11
-19.3903
 21
5.48935
  0
LINE
  8
0
 10
-19.3903
 20
5.48935
 11
-19.1268
 21
5.2921
  0
LINE
  8
0
 10
-19.1268
 20
5.2921
 11
-18.9213
 21
5.03499
  0
LINE
  8
0
 10
-18.9213
 20
5.03499
 11
-18.7869
 21
4.7345
  0
LINE
  8
0
 10
-18.7869
 20
4.7345
 11
-18.7324
 21
4.40991
  0
LINE
  8
0
 10
-18.7324
 20
4.40991
 11
-18.7611
 21
4.08201
  0
LINE
  8
0
 10
-18.7611
 20
4.08201
 11
-19.0051
 21
2.72903
  0
LINE
  8
0
 10
-19.0051
 20
2.72903
 11
-19.1516
 21
1.36205
  0
LINE
  8
0
 10
-19.1516
 20
1.36205
 11
-19.2
 21
-0.0119076
  0
LINE
  8
0
 10
-19.2
 20
-0.0119076
 11
-19.1499
 21
-1.38581
  0
LINE
  8
0
 10
-19.1499
 20
-1.38581
 11
-19.0017
 21
-2.7526
  0
LINE
  8
0
 10
-19.0017
 20
-2.7526
 11
-18.756
 21
-4.10528
  0
LINE
  8
0
 10
-18.756
 20
-4.10528
 11
-18.7269
 21
-4.43341
  0
LINE
  8
0
 10
-18.7269
 20
-4.43341
 11
-18.7812
 21
-4.75832
  0
LINE
  8
0
 10
-18.7812
 20
-4.75832
 11
-18.9154
 21
-5.05914
  0
LINE
  8
0
 10
-18.9154
 20
-5.05914
 11
-19.121
 21
-5.31656
  0
LINE
  8
0
 10
-19.121
 20
-5.31656
 11
-19.3846
 21
-5.51406
  0
LINE
  8
0
 10
-19.3846
 20
-5.51406
 11
-19.6894
 21
-5.63895
  0
LINE
  8
0
 10
-19.6894
 20
-5.63895
 11
-22.9078
 21
-6.50131
  0
LINE
  8
0
 10
-22.9078
 20
-6.50131
 11
-22.7039
 21
-7.18115
  0
LINE
  8
0
 10
-22.7039
 20
-7.18115
 11
-22.4798
 21
-7.85461
  0
LINE
  8
0
 10
-22.4798
 20
-7.85461
 11
-22.2357
 21
-8.5211
  0
LINE
  8
0
 10
-22.2357
 20
-8.5211
 11
-21.6864
 21
-8.31041
  0
LINE
  8
0
 10
-21.6864
 20
-8.31041
 11
-21.1109
 21
-8.18822
  0
LINE
  8
0
 10
-21.1109
 20
-8.18822
 11
-20.5233
 21
-8.15755
  0
LINE
  8
0
 10
-20.5233
 20
-8.15755
 11
-19.9382
 21
-8.21916
  0
LINE
  8
0
 10
-19.9382
 20
-8.21916
 11
-19.37
 21
-8.37151
  0
LINE
  8
0
 10
-19.37
 20
-8.37151
 11
-18.8325
 21
-8.61087
  0
LINE
  8
0
 10
-18.8325
 20
-8.61087
 11
-18.3392
 21
-8.93134
  0
LINE
  8
0
 10
-18.3392
 20
-8.93134
 11
-17.902
 21
-9.32504
  0
LINE
  8
0
 10
-17.902
 20
-9.32504
 11
-17.5317
 21
-9.78227
  0
LINE
  8
0
 10
-17.5317
 20
-9.78227
 11
-17.2376
 21
-10.2918
  0
LINE
  8
0
 10
-17.2376
 20
-10.2918
 11
-17.0267
 21
-10.841
  0
LINE
  8
0
 10
-17.0267
 20
-10.841
 11
-16.9043
 21
-11.4165
  0
LINE
  8
0
 10
-16.9043
 20
-11.4165
 11
-16.8735
 21
-12.004
  0
LINE
  8
0
 10
-16.8735
 20
-12.004
 11
-16.9349
 21
-12.5891
  0
LINE
  8
0
 10
-16.9349
 20
-12.5891
 11
-17.0871
 21
-13.1574
  0
LINE
  8
0
 10
-17.0871
 20
-13.1574
 11
-17.3263
 21
-13.695
  0
LINE
  8
0
 10
-17.3263
 20
-13.695
 11
-17.6466
 21
-14.1884
  0
LINE
  8
0
 10
-17.6466
 20
-14.1884
 11
-18.0402
 21
-14.6258
  0
LINE
  8
0
 10
-18.0402
 20
-14.6258
 11
-18.4973
 21
-14.9961
  0
LINE
  8
0
 10
-18.4973
 20
-14.9961
 11
-17.5489
 21
-16.0957
  0
LINE
  8
0
 10
-17.5489
 20
-16.0957
 11
-16.5351
 21
-17.1355
  0
LINE
  8
0
 10
-16.5351
 20
-17.1355
 11
-15.4599
 21
-18.1115
  0
LINE
  8
0
 10
-15.4599
 20
-18.1115
 11
-14.3271
 21
-19.0202
  0
LINE
  8
0
 10
-14.3271
 20
-19.0202
 11
-13.1411
 21
-19.8581
  0
LINE
  8
0
 10
-13.1411
 20
-19.8581
 11
-11.9062
 21
-20.6222
  0
LINE
  8
0
 10
-11.9062
 20
-20.6222
 11
-10.6271
 21
-21.3096
  0
LINE
  8
0
 10
-10.6271
 20
-21.3096
 11
-9.3084
 21
-21.9178
  0
LINE
  8
0
 10
-9.3084
 20
-21.9178
 11
-7.9551
 21
-22.4444
  0
LINE
  8
0
 10
-7.9551
 20
-22.4444
 11
-6.57222
 21
-22.8876
  0
LINE
  8
0
 10
-6.57222
 20
-22.8876
 11
-5.16489
 21
-23.2456
  0
LINE
  8
0
 10
-5.16489
 20
-23.2456
 11
-3.73836
 21
-23.5172
  0
LINE
  8
0
 10
-3.73836
 20
-23.5172
 11
-3.64617
 21
-22.9362
  0
LINE
  8
0
 10
-3.64617
 20
-22.9362
 11
-3.46423
 21
-22.3767
  0
LINE
  8
0
 10
-3.46423
 20
-22.3767
 11
-3.19702
 21
-21.8525
  0
LINE
  8
0
 10
-3.19702
 20
-21.8525
 11
-2.85112
 21
-21.3766
  0
LINE
  8
0
 10
-2.85112
 20
-21.3766
 11
-2.43505
 21
-20.9607
  0
LINE
  8
0
 10
-2.43505
 20
-20.9607
 11
-1.95904
 21
-20.6149
  0
LINE
  8
0
 10
-1.95904
 20
-20.6149
 11
-1.43481
 21
-20.3478
  0
LINE
  8
0
 10
-1.43481
 20
-20.3478
 11
-0.875257
 21
-20.1661
  0
LINE
  8
0
 10
-0.875257
 20
-20.1661
 11
-0.294166
 21
-20.0741
  0
LINE
  8
0
 10
-0.294166
 20
-20.0741
 11
0.294166
 21
-20.0741
  0
LINE
  8
0
 10
0.294166
 20
-20.0741
 11
0.875257
 21
-20.1661
  0
LINE
  8
0
 10
0.875257
 20
-20.1661
 11
1.43481
 21
-20.3478
  0
LINE
  8
0
 10
1.43481
 20
-20.3478
 11
1.95904
 21
-20.6149
  0
LINE
  8
0
 10
1.95904
 20
-20.6149
 11
2.43505
 21
-20.9607
  0
LINE
  8
0
 10
2.43505
 20
-20.9607
 11
2.85112
 21
-21.3766
  0
LINE
  8
0
 10
2.85112
 20
-21.3766
 11
3.19702
 21
-21.8525
  0
LINE
  8
0
 10
3.19702
 20
-21.8525
 11
3.46423
 21
-22.3767
  0
LINE
  8
0
 10
3.46423
 20
-22.3767
 11
3.64617
 21
-22.9362
  0
LINE
  8
0
 10
3.64617
 20
-22.9362
 11
3.73836
 21
-23.5172
  0
LINE
  8
0
 10
3.73836
 20
-23.5172
 11
4.44591
 21
-23.3938
  0
LINE
  8
0
 10
4.44591
 20
-23.3938
 11
5.14942
 21
-23.2491
  0
LINE
  8
0
 10
5.14942
 20
-23.2491
 11
5.84824
 21
-23.0832
  0
LINE
  8
0
 10
5.84824
 20
-23.0832
 11
4.98548
 21
-19.8633
  0
LINE
  8
0
 10
4.98548
 20
-19.8633
 11
4.94122
 21
-19.5371
  0
LINE
  8
0
 10
4.94122
 20
-19.5371
 11
4.9803
 21
-19.2103
  0
LINE
  8
0
 10
4.9803
 20
-19.2103
 11
5.10021
 21
-18.9038
  0
LINE
  8
0
 10
5.10021
 20
-18.9038
 11
5.29326
 21
-18.6372
  0
LINE
  8
0
 10
5.29326
 20
-18.6372
 11
5.54708
 21
-18.4277
  0
LINE
  8
0
 10
5.54708
 20
-18.4277
 11
5.8454
 21
-18.2886
  0
LINE
  8
0
 10
5.8454
 20
-18.2886
 11
7.13912
 21
-17.8234
  0
LINE
  8
0
 10
7.13912
 20
-17.8234
 11
8.39624
 21
-17.2668
  0
LINE
  8
0
 10
8.39624
 20
-17.2668
 11
9.61031
 21
-16.6217
  0
LINE
  8
0
 10
9.61031
 20
-16.6217
 11
10.7751
 21
-15.8914
  0
LINE
  8
0
 10
10.7751
 20
-15.8914
 11
11.8847
 21
-15.0796
  0
LINE
  8
0
 10
11.8847
 20
-15.0796
 11
12.9333
 21
-14.1905
  0
LINE
  8
0
 10
12.9333
 20
-14.1905
 11
13.2029
 21
-14.0013
  0
LINE
  8
0
 10
13.2029
 20
-14.0013
 11
13.5114
 21
-13.8858
  0
LINE
  8
0
 10
13.5114
 20
-13.8858
 11
13.8391
 21
-13.8517
  0
LINE
  8
0
 10
13.8391
 20
-13.8517
 11
14.1648
 21
-13.901
  0
LINE
  8
0
 10
14.1648
 20
-13.901
 11
14.4676
 21
-14.0305
  0
LINE
  8
0
 10
14.4676
 20
-14.0305
 11
14.7282
 21
-14.2321
  0
LINE
  8
0
 10
14.7282
 20
-14.2321
 11
17.0842
 21
-16.5881
  0
LINE
  8
0
 10
17.0842
 20
-16.5881
 11
17.571
 21
-16.0716
  0
LINE
  8
0
 10
17.571
 20
-16.0716
 11
18.0422
 21
-15.5407
  0
LINE
  8
0
 10
18.0422
 20
-15.5407
 11
18.4973
 21
-14.9961
  0
LINE
  8
0
 10
18.4973
 20
-14.9961
 11
18.0402
 21
-14.6258
  0
LINE
  8
0
 10
18.0402
 20
-14.6258
 11
17.6466
 21
-14.1884
  0
LINE
  8
0
 10
17.6466
 20
-14.1884
 11
17.3263
 21
-13.695
  0
LINE
  8
0
 10
17.3263
 20
-13.695
 11
17.0871
 21
-13.1574
  0
LINE
  8
0
 10
17.0871
 20
-13.1574
 11
16.9349
 21
-12.5891
  0
LINE
  8
0
 10
16.9349
 20
-12.5891
 11
16.8735
 21
-12.004
  0
LINE
  8
0
 10
16.8735
 20
-12.004
 11
16.9043
 21
-11.4165
  0
LINE
  8
0
 10
16.9043
 20
-11.4165
 11
17.0267
 21
-10.841
  0
LINE
  8
0
 10
17.0267
 20
-10.841
 11
17.2376
 21
-10.2918
  0
LINE
  8
0
 10
17.2376
 20
-10.2918
 11
17.5317
 21
-9.78227
  0
LINE
  8
0
 10
17.5317
 20
-9.78227
 11
17.902
 21
-9.32504
  0
LINE
  8
0
 10
17.902
 20
-9.32504
 11
18.3392
 21
-8.93134
  0
LINE
  8
0
 10
18.3392
 20
-8.93134
 11
18.8325
 21
-8.61087
  0
LINE
  8
0
 10
18.8325
 20
-8.61087
 11
19.37
 21
-8.37151
  0
LINE
  8
0
 10
19.37
 20
-8.37151
 11
19.9382
 21
-8.21916
  0
LINE
  8
0
 10
19.9382
 20
-8.21916
 11
20.5233
 21
-8.15755
  0
LINE
  8
0
 10
20.5233
 20
-8.15755
 11
21.1109
 21
-8.18822
  0
LINE
  8
0
 10
21.1109
 20
-8.18822
 11
21.6864
 21
-8.31041
  0
LINE
  8
0
 10
21.6864
 20
-8.31041
 11
22.2357
 21
-8.5211
  0
LINE
  8
0
 10
22.2357
 20
-8.5211
 11
22.7137
 21
-7.14988
  0
LINE
  8
0
 10
22.7137
 20
-7.14988
 11
23.1073
 21
-5.75208
  0
LINE
  8
0
 10
23.1073
 20
-5.75208
 11
23.415
 21
-4.33288
  0
LINE
  8
0
 10
23.415
 20
-4.33288
 11
23.6355
 21
-2.89757
  0
LINE
  8
0
 10
23.6355
 20
-2.89757
 11
23.7682
 21
-1.45148
  0
LINE
  8
0
 10
23.7682
 20
-1.45148
 11
23.8125
 21
0
  0
LINE
  8
0
 10
23.8125
 20
0
 11
23.7682
 21
1.45148
  0
LINE
  8
0
 10
23.7682
 20
1.45148
 11
23.6355
 21
2.89757
  0
LINE
  8
0
 10
23.6355
 20
2.89757
 11
23.415
 21
4.33288
  0
LINE
  8
0
 10
23.415
 20
4.33288
 11
23.1073
 21
5.75208
  0
LINE
  8
0
 10
23.1073
 20
5.75208
 11
22.7137
 21
7.14988
  0
LINE
  8
0
 10
22.7137
 20
7.14988
 11
22.2357
 21
8.5211
  0
LINE
  8
0
 10
22.2357
 20
8.5211
 11
21.6864
 21
8.31041
  0
LINE
  8
0
 10
21.6864
 20
8.31041
 11
21.1109
 21
8.18822
  0
LINE
  8
0
 10
21.1109
 20
8.18822
 11
20.5233
 21
8.15755
  0
LINE
  8
0
 10
20.5233
 20
8.15755
 11
19.9382
 21
8.21916
  0
LINE
  8
0
 10
19.9382
 20
8.21916
 11
19.37
 21
8.37151
  0
LINE
  8
0
 10
19.37
 20
8.37151
 11
18.8325
 21
8.61087
  0
LINE
  8
0
 10
18.8325
 20
8.61087
 11
18.3392
 21
8.93134
  0
LINE
  8
0
 10
18.3392
 20
8.93134
 11
17.902
 21
9.32504
  0
LINE
  8
0
 10
17.902
 20
9.32504
 11
17.5317
 21
9.78227
  0
LINE
  8
0
 10
17.5317
 20
9.78227
 11
17.2376
 21
10.2918
  0
LINE
  8
0
 10
17.2376
 20
10.2918
 11
17.0267
 21
10.841
  0
LINE
  8
0
 10
17.0267
 20
10.841
 11
16.9043
 21
11.4165
  0
LINE
  8
0
 10
16.9043
 20
11.4165
 11
16.8735
 21
12.004
  0
LINE
  8
0
 10
16.8735
 20
12.004
 11
16.9349
 21
12.5891
  0
LINE
  8
0
 10
16.9349
 20
12.5891
 11
17.0871
 21
13.1574
  0
LINE
  8
0
 10
17.0871
 20
13.1574
 11
17.3263
 21
13.695
  0
LINE
  8
0
 10
17.3263
 20
13.695
 11
17.6466
 21
14.1884
  0
LINE
  8
0
 10
17.6466
 20
14.1884
 11
18.0402
 21
14.6258
  0
LINE
  8
0
 10
18.0402
 20
14.6258
 11
18.4973
 21
14.9961
  0
LINE
  8
0
 10
18.4973
 20
14.9961
 11
18.0367
 21
15.5472
  0
LINE
  8
0
 10
18.0367
 20
15.5472
 11
17.5596
 21
16.0841
  0
LINE
  8
0
 10
17.5596
 20
16.0841
 11
17.0665
 21
16.6063
  0
LINE
  8
0
 10
17.0665
 20
16.6063
 11
14.7094
 21
14.2492
  0
LINE
  8
0
 10
14.7094
 20
14.2492
 11
14.4491
 21
14.0478
  0
LINE
  8
0
 10
14.4491
 20
14.0478
 11
14.1465
 21
13.9182
  0
LINE
  8
0
 10
14.1465
 20
13.9182
 11
13.8211
 21
13.8688
  0
LINE
  8
0
 10
13.8211
 20
13.8688
 11
13.4937
 21
13.9027
  0
LINE
  8
0
 10
13.4937
 20
13.9027
 11
13.1853
 21
14.0177
  0
LINE
  8
0
 10
13.1853
 20
14.0177
 11
12.9157
 21
14.2065
  0
LINE
  8
0
 10
12.9157
 20
14.2065
 11
11.8659
 21
15.0944
  0
LINE
  8
0
 10
11.8659
 20
15.0944
 11
10.7554
 21
15.9048
  0
LINE
  8
0
 10
10.7554
 20
15.9048
 11
9.58969
 21
16.6336
  0
LINE
  8
0
 10
9.58969
 20
16.6336
 11
8.37482
 21
17.2772
  0
LINE
  8
0
 10
8.37482
 20
17.2772
 11
7.11701
 21
17.8322
  0
LINE
  8
0
 10
7.11701
 20
17.8322
 11
5.82271
 21
18.2958
  0
LINE
  8
0
 10
5.82271
 20
18.2958
 11
5.524
 21
18.4347
  0
LINE
  8
0
 10
5.524
 20
18.4347
 11
5.26977
 21
18.6442
  0
LINE
  8
0
 10
5.26977
 20
18.6442
 11
5.07637
 21
18.9108
  0
LINE
  8
0
 10
5.07637
 20
18.9108
 11
4.95621
 21
19.2175
  0
LINE
  8
0
 10
4.95621
 20
19.2175
 11
4.917
 21
19.5446
  0
LINE
  8
0
 10
4.917
 20
19.5446
 11
4.96125
 21
19.871
  0
LINE
  8
0
 10
4.96125
 20
19.871
 11
5.82361
 21
23.0894
  0
LINE
  8
0
 10
5.82361
 20
23.0894
 11
5.13288
 21
23.2527
  0
LINE
  8
0
 10
5.13288
 20
23.2527
 11
4.43759
 21
23.3954
  0
LINE
  8
0
 10
4.43759
 20
23.3954
 11
3.73836
 21
23.5172
  0
LINE
  8
0
 10
3.73836
 20
23.5172
 11
3.64617
 21
22.9362
  0
LINE
  8
0
 10
3.64617
 20
22.9362
 11
3.46423
 21
22.3767
  0
LINE
  8
0
 10
3.46423
 20
22.3767
 11
3.19702
 21
21.8525
  0
LINE
  8
0
 10
3.19702
 20
21.8525
 11
2.85112
 21
21.3766
  0
LINE
  8
0
 10
2.85112
 20
21.3766
 11
2.43505
 21
20.9607
  0
LINE
  8
0
 10
2.43505
 20
20.9607
 11
1.95904
 21
20.6149
  0
LINE
  8
0
 10
1.95904
 20
20.6149
 11
1.43481
 21
20.3478
  0
LINE
  8
0
 10
1.43481
 20
20.3478
 11
0.875257
 21
20.1661
  0
LINE
  8
0
 10
0.875257
 20
20.1661
 11
0.294166
 21
20.0741
  0
LINE
  8
0
 10
0.294166
 20
20.0741
 11
-0.294166
 21
20.0741
  0
LINE
  8
0
 10
-0.294166
 20
20.0741
 11
-0.875257
 21
20.1661
  0
LINE
  8
0
 10
-0.875257
 20
20.1661
 11
-1.43481
 21
20.3478
  0
LINE
  8
0
 10
-1.43481
 20
20.3478
 11
-1.95904
 21
20.6149
  0
LINE
  8
0
 10
-1.95904
 20
20.6149
 11
-2.43505
 21
20.9607
  0
LINE
  8
0
 10
-2.43505
 20
20.9607
 11
-2.85112
 21
21.3766
  0
LINE
  8
0
 10
-2.85112
 20
21.3766
 11
-3.19702
 21
21.8525
  0
LINE
  8
0
 10
-3.19702
 20
21.8525
 11
-3.46423
 21
22.3767
  0
LINE
  8
0
 10
-3.46423
 20
22.3767
 11
-3.64617
 21
22.9362
  0
LINE
  8
0
 10
-3.64617
 20
22.9362
 11
-3.73836
 21
23.5172
  0
LINE
  8
0
 10
-3.73836
 20
23.5172
 11
-5.16489
 21
23.2456
  0
LINE
  8
0
 10
-5.16489
 20
23.2456
 11
-6.57222
 21
22.8876
  0
LINE
  8
0
 10
-6.57222
 20
22.8876
 11
-7.9551
 21
22.4444
  0
LINE
  8
0
 10
-7.9551
 20
22.4444
 11
-9.3084
 21
21.9178
  0
LINE
  8
0
 10
-9.3084
 20
21.9178
 11
-10.6271
 21
21.3096
  0
LINE
  8
0
 10
-10.6271
 20
21.3096
 11
-11.9062
 21
20.6222
  0
LINE
  8
0
 10
-11.9062
 20
20.6222
 11
-13.1411
 21
19.8581
  0
LINE
  8
0
 10
-13.1411
 20
19.8581
 11
-14.3271
 21
19.0202
  0
LINE
  8
0
 10
-14.3271
 20
19.0202
 11
-15.4599
 21
18.1115
  0
LINE
  8
0
 10
-15.4599
 20
18.1115
 11
-16.5351
 21
17.1355
  0
LINE
  8
0
 10
-16.5351
 20
17.1355
 11
-17.5489
 21
16.0957
  0
LINE
  8
0
 10
-17.5489
 20
16.0957
 11
-18.4973
 21
14.9961
  0
LINE
  8
0
 10
-18.4973
 20
14.9961
 11
-18.0402
 21
14.6258
  0
LINE
  8
0
 10
-18.0402
 20
14.6258
 11
-17.6466
 21
14.1884
  0
LINE
  8
0
 10
-17.6466
 20
14.1884
 11
-17.3263
 21
13.695
  0
LINE
  8
0
 10
-17.3263
 20
13.695
 11
-17.0871
 21
13.1574
  0
LINE
  8
0
 10
-17.0871
 20
13.1574
 11
-16.9349
 21
12.5891
  0
LINE
  8
0
 10
-16.9349
 20
12.5891
 11
-16.8735
 21
12.004
  0
LINE
  8
0
 10
-16.8735
 20
12.004
 11
-16.9043
 21
11.4165
  0
LINE
  8
0
 10
-16.9043
 20
11.4165
 11
-17.0267
 21
10.841
  0
LINE
  8
0
 10
-17.0267
 20
10.841
 11
-17.2376
 21
10.2918
  0
LINE
  8
0
 10
-17.2376
 20
10.2918
 11
-17.5317
 21
9.78227
  0
LINE
  8
0
 10
-17.5317
 20
9.78227
 11
-17.902
 21
9.32504
  0
LINE
  8
0
 10
-17.902
 20
9.32504
 11
-18.3392
 21
8.93134
  0
LINE
  8
0
 10
-18.3392
 20
8.93134
 11
-18.8325
 21
8.61087
  0
LINE
  8
0
 10
-18.8325
 20
8.61087
 11
-19.37
 21
8.37151
  0
LINE
  8
0
 10
-19.37
 20
8.37151
 11
-19.9382
 21
8.21916
  0
LINE
  8
0
 10
-19.9382
 20
8.21916
 11
-20.5233
 21
8.15755
  0
LINE
  8
0
 10
-20.5233
 20
8.15755
 11
-21.1109
 21
8.18822
  0
LINE
  8
0
 10
-21.1109
 20
8.18822
 11
-21.6864
 21
8.31041
  0
LINE
  8
0
 10
-21.6864
 20
8.31041
 11
-22.2357
 21
8.5211
  0
LINE
  8
0
 10
-22.2357
 20
8.5211
 11
-22.4826
 21
7.84662
  0
LINE
  8
0
 10
-22.4826
 20
7.84662
 11
-22.709
 21
7.165
  0
LINE
  8
0
 10
-22.709
 20
7.165
 11
-22.9147
 21
6.47686
  0
LINE
  8
0
 10
-8.75
 20
0
 11
-8.70283
 21
0.403577
  0
LINE
  8
0
 10
-8.70283
 20
0.403577
 11
-8.56386
 21
0.785398
  0
LINE
  8
0
 10
-8.56386
 20
0.785398
 11
-8.34058
 21
1.12488
  0
LINE
  8
0
 10
-8.34058
 20
1.12488
 11
-8.04503
 21
1.40372
  0
LINE
  8
0
 10
-8.04503
 20
1.40372
 11
-7.69314
 21
1.60688
  0
LINE
  8
0
 10
-7.69314
 20
1.60688
 11
-7.30388
 21
1.72341
  0
LINE
  8
0
 10
-7.30388
 20
1.72341
 11
-6.89825
 21
1.74704
  0
LINE
  8
0
 10
-6.89825
 20
1.74704
 11
-6.49809
 21
1.67648
  0
LINE
  8
0
 10
-6.49809
 20
1.67648
 11
-6.125
 21
1.51554
  0
LINE
  8
0
 10
-6.125
 20
1.51554
 11
-5.79908
 21
1.2729
  0
LINE
  8
0
 10
-5.79908
 20
1.2729
 11
-5.5379
 21
0.96164
  0
LINE
  8
0
 10
-5.5379
 20
0.96164
 11
-5.35554
 21
0.598535
  0
LINE
  8
0
 10
-5.35554
 20
0.598535
 11
-5.26183
 21
0.203162
  0
LINE
  8
0
 10
-5.26183
 20
0.203162
 11
-5.26183
 21
-0.203162
  0
LINE
  8
0
 10
-5.26183
 20
-0.203162
 11
-5.35554
 21
-0.598535
  0
LINE
  8
0
 10
-5.35554
 20
-0.598535
 11
-5.5379
 21
-0.96164
  0
LINE
  8
0
 10
-5.5379
 20
-0.96164
 11
-5.79908
 21
-1.2729
  0
LINE
  8
0
 10
-5.79908
 20
-1.2729
 11
-6.125
 21
-1.51554
  0
LINE
  8
0
 10
-6.125
 20
-1.51554
 11
-6.49809
 21
-1.67648
  0
LINE
  8
0
 10
-6.49809
 20
-1.67648
 11
-6.89825
 21
-1.74704
  0
LINE
  8
0
 10
-6.89825
 20
-1.74704
 11
-7.30388
 21
-1.72341
  0
LINE
  8
0
 10
-7.30388
 20
-1.72341
 11
-7.69314
 21
-1.60688
  0
LINE
  8
0
 10
-7.69314
 20
-1.60688
 11
-8.04503
 21
-1.40372
  0
LINE
  8
0
 10
-8.04503
 20
-1.40372
 11
-8.34058
 21
-1.12488
  0
LINE
  8
0
 10
-8.34058
 20
-1.12488
 11
-8.56386
 21
-0.785398
  0
LINE
  8
0
 10
-8.56386
 20
-0.785398
 11
-8.70283
 21
-0.403577
  0
LINE
  8
0
 10
-8.70283
 20
-0.403577
 11
-8.75
 21
0
  0
LINE
  8
0
 10
-3.5
 20
0
 11
-3.45226
 21
0.57608
  0
LINE
  8
0
 10
-3.45226
 20
0.57608
 11
-3.31036
 21
1.13645
  0
LINE
  8
0
 10
-3.31036
 20
1.13645
 11
-3.07816
 21
1.66582
  0
LINE
  8
0
 10
-3.07816
 20
1.66582
 11
-2.76199
 21
2.14974
  0
LINE
  8
0
 10
-2.76199
 20
2.14974
 11
-2.37049
 21
2.57503
  0
LINE
  8
0
 10
-2.37049
 20
2.57503
 11
-1.91432
 21
2.93008
  0
LINE
  8
0
 10
-1.91432
 20
2.93008
 11
-1.40593
 21
3.20521
  0
LINE
  8
0
 10
-1.40593
 20
3.20521
 11
-0.859199
 21
3.3929
  0
LINE
  8
0
 10
-0.859199
 20
3.3929
 11
-0.289027
 21
3.48805
  0
LINE
  8
0
 10
-0.289027
 20
3.48805
 11
0.289027
 21
3.48805
  0
LINE
  8
0
 10
0.289027
 20
3.48805
 11
0.859199
 21
3.3929
  0
LINE
  8
0
 10
0.859199
 20
3.3929
 11
1.40593
 21
3.20521
  0
LINE
  8
0
 10
1.40593
 20
3.20521
 11
1.91432
 21
2.93008
  0
LINE
  8
0
 10
1.91432
 20
2.93008
 11
2.37049
 21
2.57503
  0
LINE
  8
0
 10
2.37049
 20
2.57503
 11
2.76199
 21
2.14974
  0
LINE
  8
0
 10
2.76199
 20
2.14974
 11
3.07816
 21
1.66582
  0
LINE
  8
0
 10
3.07816
 20
1.66582
 11
3.31036
 21
1.13645
  0
LINE
  8
0
 10
3.31036
 20
1.13645
 11
3.45226
 21
0.57608
  0
LINE
  8
0
 10
3.45226
 20
0.57608
 11
3.5
 21
0
  0
LINE
  8
0
 10
3.5
 20
0
 11
3.45226
 21
-0.57608
  0
LINE
  8
0
 10
3.45226
 20
-0.57608
 11
3.31036
 21
-1.13645
  0
LINE
  8
0
 10
3.31036
 20
-1.13645
 11
3.07816
 21
-1.66582
  0
LINE
  8
0
 10
3.07816
 20
-1.66582
 11
2.76199
 21
-2.14974
  0
LINE
  8
0
 10
2.76199
 20
-2.14974
 11
2.37049
 21
-2.57503
  0
LINE
  8
0
 10
2.37049
 20
-2.57503
 11
1.91432
 21
-2.93008
  0
LINE
  8
0
 10
1.91432
 20
-2.93008
 11
1.40593
 21
-3.20521
  0
LINE
  8
0
 10
1.40593
 20
-3.20521
 11
0.859199
 21
-3.3929
  0
LINE
  8
0
 10
0.859199
 20
-3.3929
 11
0.289027
 21
-3.48805
  0
LINE
  8
0
 10
0.289027
 20
-3.48805
 11
-0.289027
 21
-3.48805
  0
LINE
  8
0
 10
-0.289027
 20
-3.48805
 11
-0.859199
 21
-3.3929
  0
LINE
  8
0
 10
-0.859199
 20
-3.3929
 11
-1.40593
 21
-3.20521
  0
LINE
  8
0
 10
-1.40593
 20
-3.20521
 11
-1.91432
 21
-2.93008
  0
LINE
  8
0
 10
-1.91432
 20
-2.93008
 11
-2.37049
 21
-2.57503
  0
LINE
  8
0
 10
-2.37049
 20
-2.57503
 11
-2.76199
 21
-2.14974
  0
LINE
  8
0
 10
-2.76199
 20
-2.14974
 11
-3.07816
 21
-1.66582
  0
LINE
  8
0
 10
-3.07816
 20
-1.66582
 11
-3.31036
 21
-1.13645
  0
LINE
  8
0
 10
-3.31036
 20
-1.13645
 11
-3.45226
 21
-0.57608
  0
LINE
  8
0
 10
-3.45226
 20
-0.57608
 11
-3.5
 21
0
  0
LINE
  8
0
 10
-1.75
 20
-7
 11
-1.70283
 21
-6.59642
  0
LINE
  8
0
 10
-1.70283
 20
-6.59642
 11
-1.56386
 21
-6.2146
  0
LINE
  8
0
 10
-1.56386
 20
-6.2146
 11
-1.34058
 21
-5.87512
  0
LINE
  8
0
 10
-1.34058
 20
-5.87512
 11
-1.04503
 21
-5.59628
  0
LINE
  8
0
 10
-1.04503
 20
-5.59628
 11
-0.693139
 21
-5.39312
  0
LINE
  8
0
 10
-0.693139
 20
-5.39312
 11
-0.303884
 21
-5.27659
  0
LINE
  8
0
 10
-0.303884
 20
-5.27659
 11
0.101753
 21
-5.25296
  0
LINE
  8
0
 10
0.101753
 20
-5.25296
 11
0.501905
 21
-5.32352
  0
LINE
  8
0
 10
0.501905
 20
-5.32352
 11
0.875
 21
-5.48446
  0
LINE
  8
0
 10
0.875
 20
-5.48446
 11
1.20092
 21
-5.7271
  0
LINE
  8
0
 10
1.20092
 20
-5.7271
 11
1.4621
 21
-6.03836
  0
LINE
  8
0
 10
1.4621
 20
-6.03836
 11
1.64446
 21
-6.40146
  0
LINE
  8
0
 10
1.64446
 20
-6.40146
 11
1.73817
 21
-6.79684
  0
LINE
  8
0
 10
1.73817
 20
-6.79684
 11
1.73817
 21
-7.20316
  0
LINE
  8
0
 10
1.73817
 20
-7.20316
 11
1.64446
 21
-7.59853
  0
LINE
  8
0
 10
1.64446
 20
-7.59853
 11
1.4621
 21
-7.96164
  0
LINE
  8
0
 10
1.4621
 20
-7.96164
 11
1.20092
 21
-8.2729
  0
LINE
  8
0
 10
1.20092
 20
-8.2729
 11
0.875
 21
-8.51554
  0
LINE
  8
0
 10
0.875
 20
-8.51554
 11
0.501905
 21
-8.67648
  0
LINE
  8
0
 10
0.501905
 20
-8.67648
 11
0.101753
 21
-8.74704
  0
LINE
  8
0
 10
0.101753
 20
-8.74704
 11
-0.303884
 21
-8.72341
  0
LINE
  8
0
 10
-0.303884
 20
-8.72341
 11
-0.693139
 21
-8.60688
  0
LINE
  8
0
 10
-0.693139
 20
-8.60688
 11
-1.04503
 21
-8.40372
  0
LINE
  8
0
 10
-1.04503
 20
-8.40372
 11
-1.34058
 21
-8.12488
  0
LINE
  8
0
 10
-1.34058
 20
-8.12488
 11
-1.56386
 21
-7.7854
  0
LINE
  8
0
 10
-1.56386
 20
-7.7854
 11
-1.70283
 21
-7.40358
  0
LINE
  8
0
 10
-1.70283
 20
-7.40358
 11
-1.75
 21
-7
  0
LINE
  8
0
 10
-1.75
 20
7
 11
-1.70283
 21
7.40358
  0
LINE
  8
0
 10
-1.70283
 20
7.40358
 11
-1.56386
 21
7.7854
  0
LINE
  8
0
 10
-1.56386
 20
7.7854
 11
-1.34058
 21
8.12488
  0
LINE
  8
0
 10
-1.34058
 20
8.12488
 11
-1.04503
 21
8.40372
  0
LINE
  8
0
 10
-1.04503
 20
8.40372
 11
-0.693139
 21
8.60688
  0
LINE
  8
0
 10
-0.693139
 20
8.60688
 11
-0.303884
 21
8.72341
  0
LINE
  8
0
 10
-0.303884
 20
8.72341
 11
0.101753
 21
8.74704
  0
LINE
  8
0
 10
0.101753
 20
8.74704
 11
0.501905
 21
8.67648
  0
LINE
  8
0
 10
0.501905
 20
8.67648
 11
0.875
 21
8.51554
  0
LINE
  8
0
 10
0.875
 20
8.51554
 11
1.20092
 21
8.2729
  0
LINE
  8
0
 10
1.20092
 20
8.2729
 11
1.4621
 21
7.96164
  0
LINE
  8
0
 10
1.4621
 20
7.96164
 11
1.64446
 21
7.59853
  0
LINE
  8
0
 10
1.64446
 20
7.59853
 11
1.73817
 21
7.20316
  0
LINE
  8
0
 10
1.73817
 20
7.20316
 11
1.73817
 21
6.79684
  0
LINE
  8
0
 10
1.73817
 20
6.79684
 11
1.64446
 21
6.40146
  0
LINE
  8
0
 10
1.64446
 20
6.40146
 11
1.4621
 21
6.03836
  0
LINE
  8
0
 10
1.4621
 20
6.03836
 11
1.20092
 21
5.7271
  0
LINE
  8
0
 10
1.20092
 20
5.7271
 11
0.875
 21
5.48446
  0
LINE
  8
0
 10
0.875
 20
5.48446
 11
0.501905
 21
5.32352
  0
LINE
  8
0
 10
0.501905
 20
5.32352
 11
0.101753
 21
5.25296
  0
LINE
  8
0
 10
0.101753
 20
5.25296
 11
-0.303884
 21
5.27659
  0
LINE
  8
0
 10
-0.303884
 20
5.27659
 11
-0.693139
 21
5.39312
  0
LINE
  8
0
 10
-0.693139
 20
5.39312
 11
-1.04503
 21
5.59628
  0
LINE
  8
0
 10
-1.04503
 20
5.59628
 11
-1.34058
 21
5.87512
  0
LINE
  8
0
 10
-1.34058
 20
5.87512
 11
-1.56386
 21
6.2146
  0
LINE
  8
0
 10
-1.56386
 20
6.2146
 11
-1.70283
 21
6.59642
  0
LINE
  8
0
 10
-1.70283
 20
6.59642
 11
-1.75
 21
7
  0
LINE
  8
0
 10
5.25
 20
0
 11
5.29717
 21
0.403577
  0
LINE
  8
0
 10
5.29717
 20
0.403577
 11
5.43614
 21
0.785398
  0
LINE
  8
0
 10
5.43614
 20
0.785398
 11
5.65942
 21
1.12488
  0
LINE
  8
0
 10
5.65942
 20
1.12488
 11
5.95497
 21
1.40372
  0
LINE
  8
0
 10
5.95497
 20
1.40372
 11
6.30686
 21
1.60688
  0
LINE
  8
0
 10
6.30686
 20
1.60688
 11
6.69612
 21
1.72341
  0
LINE
  8
0
 10
6.69612
 20
1.72341
 11
7.10175
 21
1.74704
  0
LINE
  8
0
 10
7.10175
 20
1.74704
 11
7.50191
 21
1.67648
  0
LINE
  8
0
 10
7.50191
 20
1.67648
 11
7.875
 21
1.51554
  0
LINE
  8
0
 10
7.875
 20
1.51554
 11
8.20092
 21
1.2729
  0
LINE
  8
0
 10
8.20092
 20
1.2729
 11
8.4621
 21
0.96164
  0
LINE
  8
0
 10
8.4621
 20
0.96164
 11
8.64446
 21
0.598535
  0
LINE
  8
0
 10
8.64446
 20
0.598535
 11
8.73817
 21
0.203162
  0
LINE
  8
0
 10
8.73817
 20
0.203162
 11
8.73817
 21
-0.203162
  0
LINE
  8
0
 10
8.73817
 20
-0.203162
 11
8.64446
 21
-0.598535
  0
LINE
  8
0
 10
8.64446
 20
-0.598535
 11
8.4621
 21
-0.96164
  0
LINE
  8
0
 10
8.4621
 20
-0.96164
 11
8.20092
 21
-1.2729
  0
LINE
  8
0
 10
8.20092
 20
-1.2729
 11
7.875
 21
-1.51554
  0
LINE
  8
0
 10
7.875
 20
-1.51554
 11
7.50191
 21
-1.67648
  0
LINE
  8
0
 10
7.50191
 20
-1.67648
 11
7.10175
 21
-1.74704
  0
LINE
  8
0
 10
7.10175
 20
-1.74704
 11
6.69612
 21
-1.72341
  0
LINE
  8
0
 10
6.69612
 20
-1.72341
 11
6.30686
 21
-1.60688
  0
LINE
  8
0
 10
6.30686
 20
-1.60688
 11
5.95497
 21
-1.40372
  0
LINE
  8
0
 10
5.95497
 20
-1.40372
 11
5.65942
 21
-1.12488
  0
LINE
  8
0
 10
5.65942
 20
-1.12488
 11
5.43614
 21
-0.785398
  0
LINE
  8
0
 10
5.43614
 20
-0.785398
 11
5.29717
 21
-0.403577
  0
LINE
  8
0
 10
5.29717
 20
-0.403577
 11
5.25
 21
0
  0
ENDSEC
  0
SECTION
  2
OBJECTS
  0
DICTIONARY
  0
ENDSEC
  0
EOF
