0
SECTION
2
ENTITIES
0
LINE
8
0
10
14.5946368
20
56.263297
11
14.51764
21
56.8311869
0
LINE
8
0
10
14.51764
20
56.8311869
11
14.3668241
21
57.1847447
0
LINE
8
0
10
14.3668241
20
57.1847447
11
14.1567687
21
57.6771592
0
LINE
8
0
10
14.1567687
20
57.6771592
11
14.0304893
21
57.7762543
0
LINE
8
0
10
14.0304893
20
57.7762543
11
14
21
57.8001799
0
LINE
8
0
10
14
20
57.8001799
11
5.09877998
21
57.8001799
0
LINE
8
0
10
5.09877998
20
57.8001799
11
4.4
21
57.8001799
0
LINE
8
0
10
4.4
20
57.8001799
11
4.24323188
21
57.6771592
0
LINE
8
0
10
4.24323188
20
57.6771592
11
3.882362
21
56.8311869
0
LINE
8
0
10
3.882362
20
56.8311869
11
3.76966796
21
56
0
LINE
8
0
10
3.76966796
20
56
11
3.76966796
21
47.2231889
0
LINE
8
0
10
3.76966796
20
47.2231889
11
3.76966796
21
44.54756
0
LINE
8
0
10
3.76966796
20
44.54756
11
3.76966796
21
35.7707489
0
LINE
8
0
10
3.76966796
20
35.7707489
11
3.76966796
21
33.09512
0
LINE
8
0
10
3.76966796
20
33.09512
11
3.76966796
21
24.3183089
0
LINE
8
0
10
3.76966796
20
24.3183089
11
3.76966796
21
21.64268
0
LINE
8
0
10
3.76966796
20
21.64268
11
3.76966796
21
12.8658689
0
LINE
8
0
10
3.76966796
20
12.8658689
11
3.76966796
21
10.19024
0
LINE
8
0
10
3.76966796
20
10.19024
11
3.76966796
21
1.41342965
0
LINE
8
0
10
3.76966796
20
1.41342965
11
3.76966796
21
-1.262199
0
LINE
8
0
10
3.76966796
20
-1.262199
11
3.80667961
21
-1.52797245
0
LINE
8
0
10
3.80667961
20
-1.52797245
11
3.882362
21
-2.07147517
0
LINE
8
0
10
3.882362
20
-2.07147517
11
4.04445536
21
-2.44145524
0
LINE
8
0
10
4.04445536
20
-2.44145524
11
4.28263921
21
-2.98513939
0
LINE
8
0
10
4.28263921
20
-2.98513939
11
4.37814156
21
-3.05812267
0
LINE
8
0
10
4.37814156
20
-3.05812267
11
4.4
21
-3.07482693
0
LINE
8
0
10
4.4
20
-3.07482693
11
13.5040982
21
-3.07482693
0
LINE
8
0
10
13.5040982
20
-3.07482693
11
14
21
-3.07482693
0
LINE
8
0
10
14
20
-3.07482693
11
14.1173612
21
-2.98513939
0
LINE
8
0
10
14.1173612
20
-2.98513939
11
14.51764
21
-2.07147517
0
LINE
8
0
10
14.51764
20
-2.07147517
11
14.6303336
21
-1.262199
0
LINE
8
0
10
14.6303336
20
-1.262199
11
14.6303336
21
7.51461135
0
LINE
8
0
10
14.6303336
20
7.51461135
11
14.6303336
21
10.19024
0
LINE
8
0
10
14.6303336
20
10.19024
11
14.6303336
21
18.9670511
0
LINE
8
0
10
14.6303336
20
18.9670511
11
14.6303336
21
21.64268
0
LINE
8
0
10
14.6303336
20
21.64268
11
14.6303336
21
30.4194911
0
LINE
8
0
10
14.6303336
20
30.4194911
11
14.6303336
21
33.09512
0
LINE
8
0
10
14.6303336
20
33.09512
11
14.6303336
21
41.8719311
0
LINE
8
0
10
14.6303336
20
41.8719311
11
14.6303336
21
44.54756
0
LINE
8
0
10
14.6303336
20
44.54756
11
14.6303336
21
53.3243711
0
LINE
8
0
10
14.6303336
20
53.3243711
11
14.6303336
21
56
0
LINE
8
0
10
14.6303336
20
56
11
14.5946368
21
56.263297
0
LINE
8
0
10
14.5946368
20
56.263297
11
14.5946368
21
56.263297
0
ENDSEC
0
EOF
