0
SECTION
2
ENTITIES
0
LINE
8
0
10
14.9734557
20
57.5586997
11
14.9609029
21
57.6512832
0
LINE
8
0
10
14.9609029
20
57.6512832
11
14.7028093
21
58.2884888
0
LINE
8
0
10
14.7028093
20
58.2884888
11
14.51764
21
58.7456645
0
LINE
8
0
10
14.51764
20
58.7456645
11
14.3719033
21
58.8600282
0
LINE
8
0
10
14.3719033
20
58.8600282
11
14
21
59.1518681
0
LINE
8
0
10
14
20
59.1518681
11
12.9235972
21
59.1518681
0
LINE
8
0
10
12.9235972
20
59.1518681
11
4.4
21
59.1518681
0
LINE
8
0
10
4.4
20
59.1518681
11
4.32359634
21
59.0919119
0
LINE
8
0
10
4.32359634
20
59.0919119
11
3.882362
21
58.7456645
0
LINE
8
0
10
3.882362
20
58.7456645
11
3.43909728
21
57.6512832
0
LINE
8
0
10
3.43909728
20
57.6512832
11
3.4
21
57.3629109
0
LINE
8
0
10
3.4
20
57.3629109
11
3.30025505
21
56
0
LINE
8
0
10
3.30025505
20
56
11
3.30025505
21
47.305369
0
LINE
8
0
10
3.30025505
20
47.305369
11
3.30025505
21
44.54756
0
LINE
8
0
10
3.30025505
20
44.54756
11
3.30025505
21
35.852929
0
LINE
8
0
10
3.30025505
20
35.852929
11
3.30025505
21
33.09512
0
LINE
8
0
10
3.30025505
20
33.09512
11
3.30025505
21
24.400489
0
LINE
8
0
10
3.30025505
20
24.400489
11
3.30025505
21
21.64268
0
LINE
8
0
10
3.30025505
20
21.64268
11
3.30025505
21
12.948049
0
LINE
8
0
10
3.30025505
20
12.948049
11
3.30025505
21
10.19024
0
LINE
8
0
10
3.30025505
20
10.19024
11
3.30025505
21
1.49560977
0
LINE
8
0
10
3.30025505
20
1.49560977
11
3.30025505
21
-1.262199
0
LINE
8
0
10
3.30025505
20
-1.262199
11
3.32331914
21
-1.56901631
0
LINE
8
0
10
3.32331914
20
-1.56901631
11
3.4
21
-2.58906027
0
LINE
8
0
10
3.4
20
-2.58906027
11
3.43432749
21
-2.83555934
0
LINE
8
0
10
3.43432749
20
-2.83555934
11
3.45145492
21
-2.95855759
0
LINE
8
0
10
3.45145492
20
-2.95855759
11
3.70792505
21
-3.57521607
0
LINE
8
0
10
3.70792505
20
-3.57521607
11
3.882362
21
-3.99459163
0
LINE
8
0
10
3.882362
20
-3.99459163
11
4.05109017
21
-4.12353439
0
LINE
8
0
10
4.05109017
20
-4.12353439
11
4.4
21
-4.39017188
0
LINE
8
0
10
4.4
20
-4.39017188
11
6.08429446
21
-4.39017188
0
LINE
8
0
10
6.08429446
20
-4.39017188
11
14
21
-4.39017188
0
LINE
8
0
10
14
20
-4.39017188
11
14.1176161
21
-4.30028961
0
LINE
8
0
10
14.1176161
20
-4.30028961
11
14.51764
21
-3.99459163
0
LINE
8
0
10
14.51764
20
-3.99459163
11
14.9485453
21
-2.95855759
0
LINE
8
0
10
14.9485453
20
-2.95855759
11
15
21
-2.58906027
0
LINE
8
0
10
15
20
-2.58906027
11
15.099744
21
-1.262199
0
LINE
8
0
10
15.099744
20
-1.262199
11
15.099744
21
7.43243123
0
LINE
8
0
10
15.099744
20
7.43243123
11
15.099744
21
10.19024
0
LINE
8
0
10
15.099744
20
10.19024
11
15.099744
21
18.884871
0
LINE
8
0
10
15.099744
20
18.884871
11
15.099744
21
21.64268
0
LINE
8
0
10
15.099744
20
21.64268
11
15.099744
21
30.337311
0
LINE
8
0
10
15.099744
20
30.337311
11
15.099744
21
33.09512
0
LINE
8
0
10
15.099744
20
33.09512
11
15.099744
21
41.789751
0
LINE
8
0
10
15.099744
20
41.789751
11
15.099744
21
44.54756
0
LINE
8
0
10
15.099744
20
44.54756
11
15.099744
21
53.242191
0
LINE
8
0
10
15.099744
20
53.242191
11
15.099744
21
56
0
LINE
8
0
10
15.099744
20
56
11
15.0776131
21
56.3024028
0
LINE
8
0
10
15.0776131
20
56.3024028
11
15
21
57.3629109
0
LINE
8
0
10
15
20
57.3629109
11
14.9734557
21
57.5586997
0
LINE
8
0
10
14.9734557
20
57.5586997
11
14.9734557
21
57.5586997
0
ENDSEC
0
EOF
