0
SECTION
2
ENTITIES
0
LINE
8
0
10
15.7363225
20
62.0982653
11
15.73205
21
62.1195557
0
LINE
8
0
10
15.73205
20
62.1195557
11
15.5259468
21
62.6739678
0
LINE
8
0
10
15.5259468
20
62.6739678
11
15.41421
21
62.974524
0
LINE
8
0
10
15.41421
20
62.974524
11
15.2654227
21
63.2101767
0
LINE
8
0
10
15.2654227
20
63.2101767
11
15
21
63.6305565
0
LINE
8
0
10
15
20
63.6305565
11
14.943541
21
63.6788257
0
LINE
8
0
10
14.943541
20
63.6788257
11
14.6732367
21
63.9099304
0
LINE
8
0
10
14.6732367
20
63.9099304
11
14.5410352
21
64.0044134
0
LINE
8
0
10
14.5410352
20
64.0044134
11
14.51764
21
64.0211338
0
LINE
8
0
10
14.51764
20
64.0211338
11
14.0566073
21
64.1258564
0
LINE
8
0
10
14.0566073
20
64.1258564
11
14
21
64.1387146
0
LINE
8
0
10
14
20
64.1387146
11
5.5072861
21
64.1387146
0
LINE
8
0
10
5.5072861
20
64.1387146
11
4.4
21
64.1387146
0
LINE
8
0
10
4.4
20
64.1387146
11
3.91321205
21
64.0281413
0
LINE
8
0
10
3.91321205
20
64.0281413
11
3.882362
21
64.0211338
0
LINE
8
0
10
3.882362
20
64.0211338
11
3.72676463
21
63.9099304
0
LINE
8
0
10
3.72676463
20
63.9099304
11
3.4
21
63.6305565
0
LINE
8
0
10
3.4
20
63.6305565
11
3.30742266
21
63.4839321
0
LINE
8
0
10
3.30742266
20
63.4839321
11
2.985786
21
62.974524
0
LINE
8
0
10
2.985786
20
62.974524
11
2.68736999
21
62.1717966
0
LINE
8
0
10
2.68736999
20
62.1717966
11
2.667949
21
62.1195557
0
LINE
8
0
10
2.667949
20
62.1195557
11
2.65646774
21
62.0623435
0
LINE
8
0
10
2.65646774
20
62.0623435
11
2.468148
21
60.8761739
0
LINE
8
0
10
2.468148
20
60.8761739
11
2.44890831
21
60.5056029
0
LINE
8
0
10
2.44890831
20
60.5056029
11
2.4
21
59.219097
0
LINE
8
0
10
2.4
20
59.219097
11
2.4
21
59.1098004
0
LINE
8
0
10
2.4
20
59.1098004
11
2.4
21
59.1077327
0
LINE
8
0
10
2.4
20
59.1077327
11
2.4
21
57.5811109
0
LINE
8
0
10
2.4
20
57.5811109
11
2.4
21
57.5622957
0
LINE
8
0
10
2.4
20
57.5622957
11
2.4
21
56.0523196
0
LINE
8
0
10
2.4
20
56.0523196
11
2.4
21
56.0292057
0
LINE
8
0
10
2.4
20
56.0292057
11
2.4
21
56.0099987
0
LINE
8
0
10
2.4
20
56.0099987
11
2.4
21
55.9961909
0
LINE
8
0
10
2.4
20
55.9961909
11
2.4
21
55.8146229
0
LINE
8
0
10
2.4
20
55.8146229
11
2.4
21
55.6304021
0
LINE
8
0
10
2.4
20
55.6304021
11
2.4
21
55.2769776
0
LINE
8
0
10
2.4
20
55.2769776
11
2.4
21
54.7401802
0
LINE
8
0
10
2.4
20
54.7401802
11
2.4
21
53.1348564
0
LINE
8
0
10
2.4
20
53.1348564
11
2.4
21
45.593262
0
LINE
8
0
10
2.4
20
45.593262
11
2.4
21
8.19481977
0
LINE
8
0
10
2.4
20
8.19481977
11
2.4
21
1.29736484
0
LINE
8
0
10
2.4
20
1.29736484
11
2.4
21
0.146414503
0
LINE
8
0
10
2.4
20
0.146414503
11
2.4
21
-0.501399536
0
LINE
8
0
10
2.4
20
-0.501399536
11
2.4
21
-0.790696105
0
LINE
8
0
10
2.4
20
-0.790696105
11
2.4
21
-1.02404206
0
LINE
8
0
10
2.4
20
-1.02404206
11
2.4
21
-1.2247334
0
LINE
8
0
10
2.4
20
-1.2247334
11
2.4
21
-1.24236934
0
LINE
8
0
10
2.4
20
-1.24236934
11
2.4
21
-1.26437633
0
LINE
8
0
10
2.4
20
-1.26437633
11
2.4
21
-1.28859016
0
LINE
8
0
10
2.4
20
-1.28859016
11
2.4
21
-2.83202055
0
LINE
8
0
10
2.4
20
-2.83202055
11
2.4
21
-2.8506288
0
LINE
8
0
10
2.4
20
-2.8506288
11
2.4
21
-4.42577481
0
LINE
8
0
10
2.4
20
-4.42577481
11
2.4
21
-4.49135612
0
LINE
8
0
10
2.4
20
-4.49135612
11
2.45330332
21
-5.86675342
0
LINE
8
0
10
2.45330332
20
-5.86675342
11
2.468148
21
-6.14581558
0
LINE
8
0
10
2.468148
20
-6.14581558
11
2.55853878
21
-6.70089508
0
LINE
8
0
10
2.55853878
20
-6.70089508
11
2.667949
21
-7.37277912
0
LINE
8
0
10
2.667949
20
-7.37277912
11
2.68340552
21
-7.42401745
0
LINE
8
0
10
2.68340552
20
-7.42401745
11
2.71055141
21
-7.51400726
0
LINE
8
0
10
2.71055141
20
-7.51400726
11
2.8985243
21
-8.00745608
0
LINE
8
0
10
2.8985243
20
-8.00745608
11
2.985786
21
-8.2365235
0
LINE
8
0
10
2.985786
20
-8.2365235
11
3.17337372
21
-8.52645559
0
LINE
8
0
10
3.17337372
20
-8.52645559
11
3.4
21
-8.87672857
0
LINE
8
0
10
3.4
20
-8.87672857
11
3.51115607
21
-8.96947136
0
LINE
8
0
10
3.51115607
20
-8.96947136
11
3.882362
21
-9.27917913
0
LINE
8
0
10
3.882362
20
-9.27917913
11
3.92060833
21
-9.28932067
0
LINE
8
0
10
3.92060833
20
-9.28932067
11
4.4
21
-9.41645565
0
LINE
8
0
10
4.4
20
-9.41645565
11
4.51589599
21
-9.41645565
0
LINE
8
0
10
4.51589599
20
-9.41645565
11
14
21
-9.41645565
0
LINE
8
0
10
14
20
-9.41645565
11
14.0067288
21
-9.4146714
0
LINE
8
0
10
14.0067288
20
-9.4146714
11
14.51764
21
-9.27917913
0
LINE
8
0
10
14.51764
20
-9.27917913
11
14.5659805
21
-9.2388463
0
LINE
8
0
10
14.5659805
20
-9.2388463
11
15
21
-8.87672857
0
LINE
8
0
10
15
20
-8.87672857
11
15.1749996
21
-8.60624915
0
LINE
8
0
10
15.1749996
20
-8.60624915
11
15.41421
21
-8.2365235
0
LINE
8
0
10
15.41421
20
-8.2365235
11
15.6894472
21
-7.51400726
0
LINE
8
0
10
15.6894472
20
-7.51400726
11
15.73205
21
-7.37277912
0
LINE
8
0
10
15.73205
20
-7.37277912
11
15.7875491
21
-7.03196205
0
LINE
8
0
10
15.7875491
20
-7.03196205
11
15.93185
21
-6.14581558
0
LINE
8
0
10
15.93185
20
-6.14581558
11
15.9466951
21
-5.86675342
0
LINE
8
0
10
15.9466951
20
-5.86675342
11
16
21
-4.49135612
0
LINE
8
0
10
16
20
-4.49135612
11
16
21
-4.42232531
0
LINE
8
0
10
16
20
-4.42232531
11
16
21
-2.81620484
0
LINE
8
0
10
16
20
-2.81620484
11
16
21
-1.29072252
0
LINE
8
0
10
16
20
-1.29072252
11
16
21
-1.23822318
0
LINE
8
0
10
16
20
-1.23822318
11
16
21
-1.19095291
0
LINE
8
0
10
16
20
-1.19095291
11
16
21
-0.501399536
0
LINE
8
0
10
16
20
-0.501399536
11
16
21
0.146414503
0
LINE
8
0
10
16
20
0.146414503
11
16
21
1.29736484
0
LINE
8
0
10
16
20
1.29736484
11
16
21
8.19481977
0
LINE
8
0
10
16
20
8.19481977
11
16
21
45.593262
0
LINE
8
0
10
16
20
45.593262
11
16
21
53.1348564
0
LINE
8
0
10
16
20
53.1348564
11
16
21
54.7401802
0
LINE
8
0
10
16
20
54.7401802
11
16
21
55.2769776
0
LINE
8
0
10
16
20
55.2769776
11
16
21
55.9992598
0
LINE
8
0
10
16
20
55.9992598
11
16
21
56.0426508
0
LINE
8
0
10
16
20
56.0426508
11
16
21
56.0896422
0
LINE
8
0
10
16
20
56.0896422
11
16
21
57.5785507
0
LINE
8
0
10
16
20
57.5785507
11
16
21
59.1060687
0
LINE
8
0
10
16
20
59.1060687
11
16
21
59.219097
0
LINE
8
0
10
16
20
59.219097
11
15.9510903
21
60.5056029
0
LINE
8
0
10
15.9510903
20
60.5056029
11
15.93185
21
60.8761739
0
LINE
8
0
10
15.93185
20
60.8761739
11
15.8528067
21
61.3740579
0
LINE
8
0
10
15.8528067
20
61.3740579
11
15.7435312
21
62.0623435
0
LINE
8
0
10
15.7435312
20
62.0623435
11
15.7363225
21
62.0982653
0
LINE
8
0
10
15.7363225
20
62.0982653
11
15.7363225
21
62.0982653
0
ENDSEC
0
EOF
