0
SECTION
2
ENTITIES
0
LINE
8
0
10
16
20
-3.85248851
11
16
21
3.66380572
0
LINE
8
0
10
16
20
3.66380572
11
16
21
4.22202375
0
LINE
8
0
10
16
20
4.22202375
11
16
21
4.86970092
0
LINE
8
0
10
16
20
4.86970092
11
16
21
5.49282742
0
LINE
8
0
10
16
20
5.49282742
11
16
21
10.5939815
0
LINE
8
0
10
16
20
10.5939815
11
11.1330077
21
10.5939815
0
LINE
8
0
10
11.1330077
20
10.5939815
11
2.4
21
10.5939815
0
LINE
8
0
10
2.4
20
10.5939815
11
2.4
21
8.36956973
0
LINE
8
0
10
2.4
20
8.36956973
11
2.4
21
7.53541526
0
LINE
8
0
10
2.4
20
7.53541526
11
2.4
21
6.73634351
0
LINE
8
0
10
2.4
20
6.73634351
11
2.4
21
6.08390816
0
LINE
8
0
10
2.4
20
6.08390816
11
2.4
21
5.86975225
0
LINE
8
0
10
2.4
20
5.86975225
11
2.4
21
5.65805318
0
LINE
8
0
10
2.4
20
5.65805318
11
2.4
21
0.0617788937
0
LINE
8
0
10
2.4
20
0.0617788937
11
2.4
21
-0.433211269
0
LINE
8
0
10
2.4
20
-0.433211269
11
2.4
21
-0.889700612
0
LINE
8
0
10
2.4
20
-0.889700612
11
2.4
21
-1.26659329
0
LINE
8
0
10
2.4
20
-1.26659329
11
2.4
21
-5.19032993
0
LINE
8
0
10
2.4
20
-5.19032993
11
2.4
21
-5.71445726
0
LINE
8
0
10
2.4
20
-5.71445726
11
2.4
21
-5.82003258
0
LINE
8
0
10
2.4
20
-5.82003258
11
2.4
21
-13.9705017
0
LINE
8
0
10
2.4
20
-13.9705017
11
2.4
21
-14
0
LINE
8
0
10
2.4
20
-14
11
2.40465883
21
-14.0765283
0
LINE
8
0
10
2.40465883
20
-14.0765283
11
2.43299845
21
-14.2506503
0
LINE
8
0
10
2.43299845
20
-14.2506503
11
2.46599693
21
-14.5013009
0
LINE
8
0
10
2.46599693
20
-14.5013009
11
2.46722448
21
-14.5136897
0
LINE
8
0
10
2.46722448
20
-14.5136897
11
2.468148
21
-14.51764
0
LINE
8
0
10
2.468148
20
-14.51764
11
2.47080959
21
-14.5254769
0
LINE
8
0
10
2.47080959
20
-14.5254769
11
2.66430395
21
-14.9926114
0
LINE
8
0
10
2.66430395
20
-14.9926114
11
2.667949
21
-15
0
LINE
8
0
10
2.667949
20
-15
11
2.67017424
21
-15.0035734
0
LINE
8
0
10
2.67017424
20
-15.0035734
11
2.97797884
21
-15.4047091
0
LINE
8
0
10
2.97797884
20
-15.4047091
11
2.985786
21
-15.41421
0
LINE
8
0
10
2.985786
20
-15.41421
11
2.99542069
21
-15.4221065
0
LINE
8
0
10
2.99542069
20
-15.4221065
11
3.39734558
21
-15.7303692
0
LINE
8
0
10
3.39734558
20
-15.7303692
11
3.4007854
21
-15.7325052
0
LINE
8
0
10
3.4007854
20
-15.7325052
11
3.4082546
21
-15.7361837
0
LINE
8
0
10
3.4082546
20
-15.7361837
11
3.87460563
21
-15.9292219
0
LINE
8
0
10
3.87460563
20
-15.9292219
11
3.882362
21
-15.93185
0
LINE
8
0
10
3.882362
20
-15.93185
11
3.88642026
21
-15.932795
0
LINE
8
0
10
3.88642026
20
-15.932795
11
4.14636751
21
-15.975091
0
LINE
8
0
10
4.14636751
20
-15.975091
11
4.4
21
-16
0
LINE
8
0
10
4.4
20
-16
11
8.86211462
21
-16
0
LINE
8
0
10
8.86211462
20
-16
11
14
21
-16
0
LINE
8
0
10
14
20
-16
11
14.1565428
21
-15.9867477
0
LINE
8
0
10
14.1565428
20
-15.9867477
11
14.4812021
21
-15.9366472
0
LINE
8
0
10
14.4812021
20
-15.9366472
11
14.51764
21
-15.93185
0
LINE
8
0
10
14.51764
20
-15.93185
11
14.9649021
21
-15.7467744
0
LINE
8
0
10
14.9649021
20
-15.7467744
11
14.9988566
21
-15.73271
0
LINE
8
0
10
14.9988566
20
-15.73271
11
15.3850528
21
-15.4365835
0
LINE
8
0
10
15.3850528
20
-15.4365835
11
15.41421
21
-15.41421
0
LINE
8
0
10
15.41421
20
-15.41421
11
15.7096765
21
-15.0291572
0
LINE
8
0
10
15.7096765
20
-15.0291572
11
15.73205
21
-15
0
LINE
8
0
10
15.73205
20
-15
11
15.9177856
21
-14.5515945
0
LINE
8
0
10
15.9177856
20
-14.5515945
11
15.93185
21
-14.51764
0
LINE
8
0
10
15.93185
20
-14.51764
11
15.9596661
21
-14.372193
0
LINE
8
0
10
15.9596661
20
-14.372193
11
15.9925413
21
-14.1224861
0
LINE
8
0
10
15.9925413
20
-14.1224861
11
16
21
-14
0
LINE
8
0
10
16
20
-14
11
16
21
-9.26396336
0
LINE
8
0
10
16
20
-9.26396336
11
16
21
-8.58947568
0
LINE
8
0
10
16
20
-8.58947568
11
16
21
-7.7677869
0
LINE
8
0
10
16
20
-7.7677869
11
16
21
-7.72950011
0
LINE
8
0
10
16
20
-7.72950011
11
16
21
-6.79697042
0
LINE
8
0
10
16
20
-6.79697042
11
16
21
-6.76223197
0
LINE
8
0
10
16
20
-6.76223197
11
16
21
-6.72553411
0
LINE
8
0
10
16
20
-6.72553411
11
16
21
-5.73737632
0
LINE
8
0
10
16
20
-5.73737632
11
16
21
-4.75283692
0
LINE
8
0
10
16
20
-4.75283692
11
16
21
-3.85248851
0
LINE
8
0
10
16
20
-3.85248851
11
16
21
-3.85248851
0
LINE
8
0
10
16
20
69
11
16
21
64.2576521
0
LINE
8
0
10
16
20
64.2576521
11
16
21
63.4668122
0
LINE
8
0
10
16
20
63.4668122
11
16
21
62.6208735
0
LINE
8
0
10
16
20
62.6208735
11
16
21
61.7969689
0
LINE
8
0
10
16
20
61.7969689
11
16
21
55.3790464
0
LINE
8
0
10
16
20
55.3790464
11
16
21
54.8498409
0
LINE
8
0
10
16
20
54.8498409
11
16
21
54.2252987
0
LINE
8
0
10
16
20
54.2252987
11
16
21
49.5074716
0
LINE
8
0
10
16
20
49.5074716
11
16
21
49.0595024
0
LINE
8
0
10
16
20
49.0595024
11
16
21
48.6305287
0
LINE
8
0
10
16
20
48.6305287
11
16
21
46.4017118
0
LINE
8
0
10
16
20
46.4017118
11
16
21
44.8701192
0
LINE
8
0
10
16
20
44.8701192
11
16
21
38.306797
0
LINE
8
0
10
16
20
38.306797
11
12.7069923
21
38.306797
0
LINE
8
0
10
12.7069923
20
38.306797
11
2.4
21
38.306797
0
LINE
8
0
10
2.4
20
38.306797
11
2.4
21
41.8867909
0
LINE
8
0
10
2.4
20
41.8867909
11
2.4
21
44.8701192
0
LINE
8
0
10
2.4
20
44.8701192
11
2.4
21
46.4017118
0
LINE
8
0
10
2.4
20
46.4017118
11
2.4
21
47.1675089
0
LINE
8
0
10
2.4
20
47.1675089
11
2.4
21
50.4902784
0
LINE
8
0
10
2.4
20
50.4902784
11
2.4
21
52.8398446
0
LINE
8
0
10
2.4
20
52.8398446
11
2.4
21
53.0857875
0
LINE
8
0
10
2.4
20
53.0857875
11
2.4
21
53.3783139
0
LINE
8
0
10
2.4
20
53.3783139
11
2.4
21
53.6892757
0
LINE
8
0
10
2.4
20
53.6892757
11
2.4
21
53.9818337
0
LINE
8
0
10
2.4
20
53.9818337
11
2.4
21
54.218942
0
LINE
8
0
10
2.4
20
54.218942
11
2.4
21
62.8390443
0
LINE
8
0
10
2.4
20
62.8390443
11
2.4
21
63.3094402
0
LINE
8
0
10
2.4
20
63.3094402
11
2.4
21
63.7706916
0
LINE
8
0
10
2.4
20
63.7706916
11
2.4
21
64.1805649
0
LINE
8
0
10
2.4
20
64.1805649
11
2.4
21
69
0
LINE
8
0
10
2.4
20
69
11
2.4666954
21
69.5066063
0
LINE
8
0
10
2.4666954
20
69.5066063
11
2.468148
21
69.51764
0
LINE
8
0
10
2.468148
20
69.51764
11
2.66369017
21
69.9897183
0
LINE
8
0
10
2.66369017
20
69.9897183
11
2.667949
21
70
0
LINE
8
0
10
2.667949
20
70
11
2.97901118
21
70.405381
0
LINE
8
0
10
2.97901118
20
70.405381
11
2.985786
21
70.41421
0
LINE
8
0
10
2.985786
20
70.41421
11
3.39117087
21
70.7252751
0
LINE
8
0
10
3.39117087
20
70.7252751
11
3.4
21
70.73205
0
LINE
8
0
10
3.4
20
70.73205
11
3.87208027
21
70.9275912
0
LINE
8
0
10
3.87208027
20
70.9275912
11
3.882362
21
70.93185
0
LINE
8
0
10
3.882362
20
70.93185
11
3.89339565
21
70.9333026
0
LINE
8
0
10
3.89339565
20
70.9333026
11
4.4
21
71
0
LINE
8
0
10
4.4
20
71
11
8.79165613
21
71
0
LINE
8
0
10
8.79165613
20
71
11
13.4893423
21
71
0
LINE
8
0
10
13.4893423
20
71
11
14
21
71
0
LINE
8
0
10
14
20
71
11
14.4649917
21
70.9387814
0
LINE
8
0
10
14.4649917
20
70.9387814
11
14.51764
21
70.93185
0
LINE
8
0
10
14.51764
20
70.93185
11
14.9509399
21
70.7523713
0
LINE
8
0
10
14.9509399
20
70.7523713
11
15
21
70.73205
0
LINE
8
0
10
15
20
70.73205
11
15.3720814
21
70.446537
0
LINE
8
0
10
15.3720814
20
70.446537
11
15.41421
21
70.41421
0
LINE
8
0
10
15.41421
20
70.41421
11
15.699723
21
70.0421286
0
LINE
8
0
10
15.699723
20
70.0421286
11
15.73205
21
70
0
LINE
8
0
10
15.73205
20
70
11
15.9115287
21
69.5667001
0
LINE
8
0
10
15.9115287
20
69.5667001
11
15.93185
21
69.51764
0
LINE
8
0
10
15.93185
20
69.51764
11
15.9387814
21
69.4649917
0
LINE
8
0
10
15.9387814
20
69.4649917
11
16
21
69
0
LINE
8
0
10
16
20
69
11
16
21
69
0
LINE
8
0
10
16
20
29.2816592
11
16
21
27.4572501
0
LINE
8
0
10
16
20
27.4572501
11
16
21
20.6214042
0
LINE
8
0
10
16
20
20.6214042
11
16
21
19.2542358
0
LINE
8
0
10
16
20
19.2542358
11
16
21
13.693201
0
LINE
8
0
10
16
20
13.693201
11
7.2669923
21
13.693201
0
LINE
8
0
10
7.2669923
20
13.693201
11
2.4
21
13.693201
0
LINE
8
0
10
2.4
20
13.693201
11
2.4
21
16.1647756
0
LINE
8
0
10
2.4
20
16.1647756
11
2.4
21
19.2542358
0
LINE
8
0
10
2.4
20
19.2542358
11
2.4
21
20.0745368
0
LINE
8
0
10
2.4
20
20.0745368
11
2.4
21
20.6214042
0
LINE
8
0
10
2.4
20
20.6214042
11
2.4
21
24.7237391
0
LINE
8
0
10
2.4
20
24.7237391
11
2.4
21
29.2816592
0
LINE
8
0
10
2.4
20
29.2816592
11
2.4
21
29.4276118
0
LINE
8
0
10
2.4
20
29.4276118
11
2.4
21
29.6465408
0
LINE
8
0
10
2.4
20
29.6465408
11
2.4
21
33.2928309
0
LINE
8
0
10
2.4
20
33.2928309
11
2.4
21
36.209863
0
LINE
8
0
10
2.4
20
36.209863
11
5.6930077
21
36.209863
0
LINE
8
0
10
5.6930077
20
36.209863
11
16
21
36.209863
0
LINE
8
0
10
16
20
36.209863
11
16
21
29.6465408
0
LINE
8
0
10
16
20
29.6465408
11
16
21
29.2816592
0
LINE
8
0
10
16
20
29.2816592
11
16
21
29.2816592
0
ENDSEC
0
EOF
