0
SECTION
2
ENTITIES
0
LINE
8
0
10
16
20
63.6596801
11
16
21
62.8432278
0
LINE
8
0
10
16
20
62.8432278
11
16
21
62.0480417
0
LINE
8
0
10
16
20
62.0480417
11
16
21
55.1074116
0
LINE
8
0
10
16
20
55.1074116
11
16
21
54.6119163
0
LINE
8
0
10
16
20
54.6119163
11
16
21
54.0271572
0
LINE
8
0
10
16
20
54.0271572
11
16
21
48.941734
0
LINE
8
0
10
16
20
48.941734
11
16
21
48.5868408
0
LINE
8
0
10
16
20
48.5868408
11
16
21
48.2469963
0
LINE
8
0
10
16
20
48.2469963
11
16
21
46.4812678
0
LINE
8
0
10
16
20
46.4812678
11
16
21
45.267899
0
LINE
8
0
10
16
20
45.267899
11
16
21
37.9090168
0
LINE
8
0
10
16
20
37.9090168
11
13.9563339
21
37.9090168
0
LINE
8
0
10
13.9563339
20
37.9090168
11
2.4
21
37.9090168
0
LINE
8
0
10
2.4
20
37.9090168
11
2.4
21
41.9229525
0
LINE
8
0
10
2.4
20
41.9229525
11
2.4
21
45.267899
0
LINE
8
0
10
2.4
20
45.267899
11
2.4
21
46.4812678
0
LINE
8
0
10
2.4
20
46.4812678
11
2.4
21
47.0879528
0
LINE
8
0
10
2.4
20
47.0879528
11
2.4
21
50.5300564
0
LINE
8
0
10
2.4
20
50.5300564
11
2.4
21
52.7299561
0
LINE
8
0
10
2.4
20
52.7299561
11
2.4
21
52.9602325
0
LINE
8
0
10
2.4
20
52.9602325
11
2.4
21
53.2341251
0
LINE
8
0
10
2.4
20
53.2341251
11
2.4
21
53.5252787
0
LINE
8
0
10
2.4
20
53.5252787
11
2.4
21
53.7992008
0
LINE
8
0
10
2.4
20
53.7992008
11
2.4
21
54.0212054
0
LINE
8
0
10
2.4
20
54.0212054
11
2.4
21
63.0217703
0
LINE
8
0
10
2.4
20
63.0217703
11
2.4
21
63.4782148
0
LINE
8
0
10
2.4
20
63.4782148
11
2.4
21
63.9257861
0
LINE
8
0
10
2.4
20
63.9257861
11
2.4
21
64.3235031
0
LINE
8
0
10
2.4
20
64.3235031
11
2.4
21
69
0
LINE
8
0
10
2.4
20
69
11
2.4647173
21
69.491581
0
LINE
8
0
10
2.4647173
20
69.491581
11
2.468148
21
69.51764
0
LINE
8
0
10
2.468148
20
69.51764
11
2.65789064
21
69.9757171
0
LINE
8
0
10
2.65789064
20
69.9757171
11
2.667949
21
70
0
LINE
8
0
10
2.667949
20
70
11
2.96978548
21
70.3933579
0
LINE
8
0
10
2.96978548
20
70.3933579
11
2.985786
21
70.41421
0
LINE
8
0
10
2.985786
20
70.41421
11
3.37914768
21
70.7160493
0
LINE
8
0
10
3.37914768
20
70.7160493
11
3.4
21
70.73205
0
LINE
8
0
10
3.4
20
70.73205
11
3.85807898
21
70.9217917
0
LINE
8
0
10
3.85807898
20
70.9217917
11
3.882362
21
70.93185
0
LINE
8
0
10
3.882362
20
70.93185
11
3.90842088
21
70.9352808
0
LINE
8
0
10
3.90842088
20
70.9352808
11
4.4
21
71
0
LINE
8
0
10
4.4
20
71
11
8.91647015
21
71
0
LINE
8
0
10
8.91647015
20
71
11
13.4748291
21
71
0
LINE
8
0
10
13.4748291
20
71
11
14
21
71
0
LINE
8
0
10
14
20
71
11
14.4487836
21
70.9409153
0
LINE
8
0
10
14.4487836
20
70.9409153
11
14.51764
21
70.93185
0
LINE
8
0
10
14.51764
20
70.93185
11
14.9358366
21
70.7586273
0
LINE
8
0
10
14.9358366
20
70.7586273
11
15
21
70.73205
0
LINE
8
0
10
15
20
70.73205
11
15.3591119
21
70.456489
0
LINE
8
0
10
15.3591119
20
70.456489
11
15.41421
21
70.41421
0
LINE
8
0
10
15.41421
20
70.41421
11
15.689771
21
70.0550981
0
LINE
8
0
10
15.689771
20
70.0550981
11
15.73205
21
70
0
LINE
8
0
10
15.73205
20
70
11
15.9052727
21
69.5818034
0
LINE
8
0
10
15.9052727
20
69.5818034
11
15.93185
21
69.51764
0
LINE
8
0
10
15.93185
20
69.51764
11
15.9409153
21
69.4487836
0
LINE
8
0
10
15.9409153
20
69.4487836
11
16
21
69
0
LINE
8
0
10
16
20
69
11
16
21
64.4229539
0
LINE
8
0
10
16
20
64.4229539
11
16
21
63.6596801
0
LINE
8
0
10
16
20
63.6596801
11
16
21
63.6596801
0
LINE
8
0
10
16
20
4.25745509
11
16
21
-4.07334865
0
LINE
8
0
10
16
20
-4.07334865
11
16
21
-4.95308542
0
LINE
8
0
10
16
20
-4.95308542
11
16
21
-5.91508579
0
LINE
8
0
10
16
20
-5.91508579
11
16
21
-6.88062172
0
LINE
8
0
10
16
20
-6.88062172
11
16
21
-6.92022925
0
LINE
8
0
10
16
20
-6.92022925
11
16
21
-6.95772201
0
LINE
8
0
10
16
20
-6.95772201
11
16
21
-7.86895109
0
LINE
8
0
10
16
20
-7.86895109
11
16
21
-7.90974598
0
LINE
8
0
10
16
20
-7.90974598
11
16
21
-8.7127181
0
LINE
8
0
10
16
20
-8.7127181
11
16
21
-9.37184212
0
LINE
8
0
10
16
20
-9.37184212
11
16
21
-14
0
LINE
8
0
10
16
20
-14
11
15.9923839
21
-14.1250707
0
LINE
8
0
10
15.9923839
20
-14.1250707
11
15.9602531
21
-14.3691238
0
LINE
8
0
10
15.9602531
20
-14.3691238
11
15.93185
21
-14.51764
0
LINE
8
0
10
15.93185
20
-14.51764
11
15.9217049
21
-14.5421325
0
LINE
8
0
10
15.9217049
20
-14.5421325
11
15.73205
21
-15
0
LINE
8
0
10
15.73205
20
-15
11
15.7159112
21
-15.0210321
0
LINE
8
0
10
15.7159112
20
-15.0210321
11
15.41421
21
-15.41421
0
LINE
8
0
10
15.41421
20
-15.41421
11
15.3931779
21
-15.4303488
0
LINE
8
0
10
15.3931779
20
-15.4303488
11
14.9988325
21
-15.7327239
0
LINE
8
0
10
14.9988325
20
-15.7327239
11
14.97434
21
-15.7428691
0
LINE
8
0
10
14.97434
20
-15.7428691
11
14.51764
21
-15.93185
0
LINE
8
0
10
14.51764
20
-15.93185
11
14.4913561
21
-15.9353104
0
LINE
8
0
10
14.4913561
20
-15.9353104
11
14.1598461
21
-15.9864681
0
LINE
8
0
10
14.1598461
20
-15.9864681
11
14
21
-16
0
LINE
8
0
10
14
20
-16
11
8.95627151
21
-16
0
LINE
8
0
10
8.95627151
20
-16
11
4.4
21
-16
0
LINE
8
0
10
4.4
20
-16
11
4.14922539
21
-15.9753717
0
LINE
8
0
10
4.14922539
20
-15.9753717
11
3.88379289
21
-15.9321832
0
LINE
8
0
10
3.88379289
20
-15.9321832
11
3.882362
21
-15.93185
0
LINE
8
0
10
3.882362
20
-15.93185
11
3.87962721
21
-15.9309234
0
LINE
8
0
10
3.87962721
20
-15.9309234
11
3.40343551
21
-15.7338118
0
LINE
8
0
10
3.40343551
20
-15.7338118
11
3.40080197
21
-15.7325148
0
LINE
8
0
10
3.40080197
20
-15.7325148
11
3.39958914
21
-15.7317617
0
LINE
8
0
10
3.39958914
20
-15.7317617
11
2.98918306
21
-15.4169942
0
LINE
8
0
10
2.98918306
20
-15.4169942
11
2.985786
21
-15.41421
0
LINE
8
0
10
2.985786
20
-15.41421
11
2.9830333
21
-15.4108601
0
LINE
8
0
10
2.9830333
20
-15.4108601
11
2.66873359
21
-15.0012599
0
LINE
8
0
10
2.66873359
20
-15.0012599
11
2.667949
21
-15
0
LINE
8
0
10
2.667949
20
-15
11
2.6666638
21
-14.9973949
0
LINE
8
0
10
2.6666638
20
-14.9973949
11
2.46908644
21
-14.5204032
0
LINE
8
0
10
2.46908644
20
-14.5204032
11
2.468148
21
-14.51764
0
LINE
8
0
10
2.468148
20
-14.51764
11
2.46782238
21
-14.5162472
0
LINE
8
0
10
2.46782238
20
-14.5162472
11
2.46738956
21
-14.511879
0
LINE
8
0
10
2.46738956
20
-14.511879
11
2.43369477
21
-14.2559394
0
LINE
8
0
10
2.43369477
20
-14.2559394
11
2.40475714
21
-14.0781432
0
LINE
8
0
10
2.40475714
20
-14.0781432
11
2.4
21
-14
0
LINE
8
0
10
2.4
20
-14
11
2.4
21
-13.9707984
0
LINE
8
0
10
2.4
20
-13.9707984
11
2.4
21
-5.9023142
0
LINE
8
0
10
2.4
20
-5.9023142
11
2.4
21
-5.79259852
0
LINE
8
0
10
2.4
20
-5.79259852
11
2.4
21
-5.27373171
0
LINE
8
0
10
2.4
20
-5.27373171
11
2.4
21
-1.18490802
0
LINE
8
0
10
2.4
20
-1.18490802
11
2.4
21
-0.813860973
0
LINE
8
0
10
2.4
20
-0.813860973
11
2.4
21
-0.364451815
0
LINE
8
0
10
2.4
20
-0.364451815
11
2.4
21
0.122861011
0
LINE
8
0
10
2.4
20
0.122861011
11
2.4
21
5.96640608
0
LINE
8
0
10
2.4
20
5.96640608
11
2.4
21
6.14781954
0
LINE
8
0
10
2.4
20
6.14781954
11
2.4
21
6.33133836
0
LINE
8
0
10
2.4
20
6.33133836
11
2.4
21
6.89043649
0
LINE
8
0
10
2.4
20
6.89043649
11
2.4
21
7.57519326
0
LINE
8
0
10
2.4
20
7.57519326
11
2.4
21
8.29001383
0
LINE
8
0
10
2.4
20
8.29001383
11
2.4
21
10.1962019
0
LINE
8
0
10
2.4
20
10.1962019
11
9.88366609
21
10.1962019
0
LINE
8
0
10
9.88366609
20
10.1962019
11
16
21
10.1962019
0
LINE
8
0
10
16
20
10.1962019
11
16
21
5.82481746
0
LINE
8
0
10
16
20
5.82481746
11
16
21
5.29083527
0
LINE
8
0
10
16
20
5.29083527
11
16
21
4.73581461
0
LINE
8
0
10
16
20
4.73581461
11
16
21
4.25745509
0
LINE
8
0
10
16
20
4.25745509
11
16
21
4.25745509
0
LINE
8
0
10
16
20
14.0909812
11
16
21
18.856456
0
LINE
8
0
10
16
20
18.856456
11
16
21
21.019184
0
LINE
8
0
10
16
20
21.019184
11
16
21
29.2487608
0
LINE
8
0
10
16
20
29.2487608
11
15.3236661
21
29.2487608
0
LINE
8
0
10
15.3236661
20
29.2487608
11
2.4
21
29.2487608
0
LINE
8
0
10
2.4
20
29.2487608
11
2.4
21
24.7599007
0
LINE
8
0
10
2.4
20
24.7599007
11
2.4
21
21.019184
0
LINE
8
0
10
2.4
20
21.019184
11
2.4
21
20.1540928
0
LINE
8
0
10
2.4
20
20.1540928
11
2.4
21
18.856456
0
LINE
8
0
10
2.4
20
18.856456
11
2.4
21
16.2089731
0
LINE
8
0
10
2.4
20
16.2089731
11
2.4
21
14.0909812
0
LINE
8
0
10
2.4
20
14.0909812
11
8.51633391
21
14.0909812
0
LINE
8
0
10
8.51633391
20
14.0909812
11
16
21
14.0909812
0
LINE
8
0
10
16
20
14.0909812
11
16
21
14.0909812
0
LINE
8
0
10
16
20
31.4021522
11
16
21
29.6794392
0
LINE
8
0
10
16
20
29.6794392
11
3.07633391
21
29.6794392
0
LINE
8
0
10
3.07633391
20
29.6794392
11
2.4
21
29.6794392
0
LINE
8
0
10
2.4
20
29.6794392
11
2.4
21
33.3370289
0
LINE
8
0
10
2.4
20
33.3370289
11
2.4
21
36.6076432
0
LINE
8
0
10
2.4
20
36.6076432
11
4.44366609
21
36.6076432
0
LINE
8
0
10
4.44366609
20
36.6076432
11
16
21
36.6076432
0
LINE
8
0
10
16
20
36.6076432
11
16
21
31.4021522
0
LINE
8
0
10
16
20
31.4021522
11
16
21
31.4021522
0
ENDSEC
0
EOF
