0
SECTION
2
ENTITIES
0
LINE
8
0
10
16
20
53.6602179
11
16
21
53.2345913
0
LINE
8
0
10
16
20
53.2345913
11
16
21
46.8590183
0
LINE
8
0
10
16
20
46.8590183
11
2.63370037
21
46.8590183
0
LINE
8
0
10
2.63370037
20
46.8590183
11
2.4
21
46.8590183
0
LINE
8
0
10
2.4
20
46.8590183
11
2.4
21
50.6891683
0
LINE
8
0
10
2.4
20
50.6891683
11
2.4
21
52.2904019
0
LINE
8
0
10
2.4
20
52.2904019
11
2.4
21
52.4580124
0
LINE
8
0
10
2.4
20
52.4580124
11
2.4
21
52.6573697
0
LINE
8
0
10
2.4
20
52.6573697
11
2.4
21
52.8692907
0
LINE
8
0
10
2.4
20
52.8692907
11
2.4
21
53.0686694
0
LINE
8
0
10
2.4
20
53.0686694
11
2.4
21
53.2302592
0
LINE
8
0
10
2.4
20
53.2302592
11
2.4
21
63.7526741
0
LINE
8
0
10
2.4
20
63.7526741
11
2.4
21
64.1533133
0
LINE
8
0
10
2.4
20
64.1533133
11
2.4
21
64.5461641
0
LINE
8
0
10
2.4
20
64.5461641
11
2.4
21
64.8952559
0
LINE
8
0
10
2.4
20
64.8952559
11
2.4
21
69
0
LINE
8
0
10
2.4
20
69
11
2.4568049
21
69.4314799
0
LINE
8
0
10
2.4568049
20
69.4314799
11
2.468148
21
69.51764
0
LINE
8
0
10
2.468148
20
69.51764
11
2.63469253
21
69.9197122
0
LINE
8
0
10
2.63469253
20
69.9197122
11
2.667949
21
70
0
LINE
8
0
10
2.667949
20
70
11
2.93288268
21
70.3452656
0
LINE
8
0
10
2.93288268
20
70.3452656
11
2.985786
21
70.41421
0
LINE
8
0
10
2.985786
20
70.41421
11
3.33105492
21
70.6791462
0
LINE
8
0
10
3.33105492
20
70.6791462
11
3.4
21
70.73205
0
LINE
8
0
10
3.4
20
70.73205
11
3.80207383
21
70.8985937
0
LINE
8
0
10
3.80207383
20
70.8985937
11
3.882362
21
70.93185
0
LINE
8
0
10
3.882362
20
70.93185
11
3.96852179
21
70.9431934
0
LINE
8
0
10
3.96852179
20
70.9431934
11
4.4
21
71
0
LINE
8
0
10
4.4
20
71
11
9.41572625
21
71
0
LINE
8
0
10
9.41572625
20
71
11
13.416776
21
71
0
LINE
8
0
10
13.416776
20
71
11
14
21
71
0
LINE
8
0
10
14
20
71
11
14.3839516
21
70.9494508
0
LINE
8
0
10
14.3839516
20
70.9494508
11
14.51764
21
70.93185
0
LINE
8
0
10
14.51764
20
70.93185
11
14.8754232
21
70.7836514
0
LINE
8
0
10
14.8754232
20
70.7836514
11
15
21
70.73205
0
LINE
8
0
10
15
20
70.73205
11
15.307234
21
70.496297
0
LINE
8
0
10
15.307234
20
70.496297
11
15.41421
21
70.41421
0
LINE
8
0
10
15.41421
20
70.41421
11
15.649963
21
70.106976
0
LINE
8
0
10
15.649963
20
70.106976
11
15.73205
21
70
0
LINE
8
0
10
15.73205
20
70
11
15.8802486
21
69.6422168
0
LINE
8
0
10
15.8802486
20
69.6422168
11
15.93185
21
69.51764
0
LINE
8
0
10
15.93185
20
69.51764
11
15.9494508
21
69.3839516
0
LINE
8
0
10
15.9494508
20
69.3839516
11
16
21
69
0
LINE
8
0
10
16
20
69
11
16
21
65.0841615
0
LINE
8
0
10
16
20
65.0841615
11
16
21
64.4311514
0
LINE
8
0
10
16
20
64.4311514
11
16
21
63.7326452
0
LINE
8
0
10
16
20
63.7326452
11
16
21
63.052333
0
LINE
8
0
10
16
20
63.052333
11
16
21
54.0208724
0
LINE
8
0
10
16
20
54.0208724
11
16
21
53.6602179
0
LINE
8
0
10
16
20
53.6602179
11
16
21
53.6602179
0
LINE
8
0
10
16
20
-9.20568778
11
16
21
-8.47758228
0
LINE
8
0
10
16
20
-8.47758228
11
16
21
-8.42675501
0
LINE
8
0
10
16
20
-8.42675501
11
16
21
-7.6007284
0
LINE
8
0
10
16
20
-7.6007284
11
16
21
-7.55221837
0
LINE
8
0
10
16
20
-7.55221837
11
16
21
-7.50097216
0
LINE
8
0
10
16
20
-7.50097216
11
16
21
-6.62592368
0
LINE
8
0
10
16
20
-6.62592368
11
16
21
-5.75407941
0
LINE
8
0
10
16
20
-5.75407941
11
16
21
-4.95678922
0
LINE
8
0
10
16
20
-4.95678922
11
16
21
6.63205257
0
LINE
8
0
10
16
20
6.63205257
11
16
21
6.79097803
0
LINE
8
0
10
16
20
6.79097803
11
16
21
6.97537264
0
LINE
8
0
10
16
20
6.97537264
11
16
21
7.15277763
0
LINE
8
0
10
16
20
7.15277763
11
16
21
8.60508341
0
LINE
8
0
10
16
20
8.60508341
11
4.88629963
21
8.60508341
0
LINE
8
0
10
4.88629963
20
8.60508341
11
2.4
21
8.60508341
0
LINE
8
0
10
2.4
20
8.60508341
11
2.4
21
7.97179023
0
LINE
8
0
10
2.4
20
7.97179023
11
2.4
21
7.73430528
0
LINE
8
0
10
2.4
20
7.73430528
11
2.4
21
7.50680842
0
LINE
8
0
10
2.4
20
7.50680842
11
2.4
21
7.32105916
0
LINE
8
0
10
2.4
20
7.32105916
11
2.4
21
7.26008867
0
LINE
8
0
10
2.4
20
7.26008867
11
2.4
21
7.19981764
0
LINE
8
0
10
2.4
20
7.19981764
11
2.4
21
0.367189482
0
LINE
8
0
10
2.4
20
0.367189482
11
2.4
21
-0.0894140001
0
LINE
8
0
10
2.4
20
-0.0894140001
11
2.4
21
-0.510502416
0
LINE
8
0
10
2.4
20
-0.510502416
11
2.4
21
-0.858166923
0
LINE
8
0
10
2.4
20
-0.858166923
11
2.4
21
-5.6073388
0
LINE
8
0
10
2.4
20
-5.6073388
11
2.4
21
-6.10516355
0
LINE
8
0
10
2.4
20
-6.10516355
11
2.4
21
-6.23144067
0
LINE
8
0
10
2.4
20
-6.23144067
11
2.4
21
-13.9719853
0
LINE
8
0
10
2.4
20
-13.9719853
11
2.4
21
-14
0
LINE
8
0
10
2.4
20
-14
11
2.40515037
21
-14.0846026
0
LINE
8
0
10
2.40515037
20
-14.0846026
11
2.43648002
21
-14.2770957
0
LINE
8
0
10
2.43648002
20
-14.2770957
11
2.468148
21
-14.51764
0
LINE
8
0
10
2.468148
20
-14.51764
11
2.48225636
21
-14.5517004
0
LINE
8
0
10
2.48225636
20
-14.5517004
11
2.667949
21
-15
0
LINE
8
0
10
2.667949
20
-15
11
2.69039213
21
-15.0292482
0
LINE
8
0
10
2.69039213
20
-15.0292482
11
2.985786
21
-15.41421
0
LINE
8
0
10
2.985786
20
-15.41421
11
3.37150523
21
-15.7100435
0
LINE
8
0
10
3.37150523
20
-15.7100435
11
3.4008682
21
-15.7325532
0
LINE
8
0
10
3.4008682
20
-15.7325532
11
3.84841588
21
-15.9178081
0
LINE
8
0
10
3.84841588
20
-15.9178081
11
3.882362
21
-15.93185
0
LINE
8
0
10
3.882362
20
-15.93185
11
3.90287304
21
-15.9345504
0
LINE
8
0
10
3.90287304
20
-15.9345504
11
4.16065691
21
-15.9764943
0
LINE
8
0
10
4.16065691
20
-15.9764943
11
4.4
21
-16
0
LINE
8
0
10
4.4
20
-16
11
9.33289911
21
-16
0
LINE
8
0
10
9.33289911
20
-16
11
14
21
-16
0
LINE
8
0
10
14
20
-16
11
14.1730592
21
-15.9853495
0
LINE
8
0
10
14.1730592
20
-15.9853495
11
14.5123165
21
-15.9329963
0
LINE
8
0
10
14.5123165
20
-15.9329963
11
14.522133
21
-15.9304489
0
LINE
8
0
10
14.522133
20
-15.9304489
11
14.9890289
21
-15.7372489
0
LINE
8
0
10
14.9890289
20
-15.7372489
11
14.9987329
21
-15.7327738
0
LINE
8
0
10
14.9987329
20
-15.7327738
11
15.0083109
21
-15.7260057
0
LINE
8
0
10
15.0083109
20
-15.7260057
11
15.4105926
21
-15.4175452
0
LINE
8
0
10
15.4105926
20
-15.4175452
11
15.4190696
21
-15.408771
0
LINE
8
0
10
15.4190696
20
-15.408771
11
15.7265238
21
-15.0080959
0
LINE
8
0
10
15.7265238
20
-15.0080959
11
15.7339316
21
-14.9964942
0
LINE
8
0
10
15.7339316
20
-14.9964942
11
15.9270087
21
-14.5303646
0
LINE
8
0
10
15.9270087
20
-14.5303646
11
15.9322647
21
-14.5159491
0
LINE
8
0
10
15.9322647
20
-14.5159491
11
15.9337193
21
-14.5078655
0
LINE
8
0
10
15.9337193
20
-14.5078655
11
15.9626009
21
-14.3568473
0
LINE
8
0
10
15.9626009
20
-14.3568473
11
15.9917544
21
-14.1354092
0
LINE
8
0
10
15.9917544
20
-14.1354092
11
16
21
-14
0
LINE
8
0
10
16
20
-14
11
16
21
-9.80335713
0
LINE
8
0
10
16
20
-9.80335713
11
16
21
-9.20568778
0
LINE
8
0
10
16
20
-9.20568778
11
16
21
-9.20568778
0
LINE
8
0
10
16
20
31.2705603
11
16
21
36.3178968
0
LINE
8
0
10
16
20
36.3178968
11
16
21
38.1987632
0
LINE
8
0
10
16
20
38.1987632
11
16
21
46.7102017
0
LINE
8
0
10
16
20
46.7102017
11
15.7662996
21
46.7102017
0
LINE
8
0
10
15.7662996
20
46.7102017
11
2.4
21
46.7102017
0
LINE
8
0
10
2.4
20
46.7102017
11
2.4
21
42.0675989
0
LINE
8
0
10
2.4
20
42.0675989
11
2.4
21
38.1987632
0
LINE
8
0
10
2.4
20
38.1987632
11
2.4
21
37.4464166
0
LINE
8
0
10
2.4
20
37.4464166
11
2.4
21
36.3178968
0
LINE
8
0
10
2.4
20
36.3178968
11
2.4
21
33.513821
0
LINE
8
0
10
2.4
20
33.513821
11
2.4
21
31.2705603
0
LINE
8
0
10
2.4
20
31.2705603
11
8.07370037
21
31.2705603
0
LINE
8
0
10
8.07370037
20
31.2705603
11
16
21
31.2705603
0
LINE
8
0
10
16
20
31.2705603
11
16
21
31.2705603
0
LINE
8
0
10
16
20
22.6103032
11
16
21
17.2653368
0
LINE
8
0
10
16
20
17.2653368
11
16
21
15.6821023
0
LINE
8
0
10
16
20
15.6821023
11
13.5137004
21
15.6821023
0
LINE
8
0
10
13.5137004
20
15.6821023
11
2.4
21
15.6821023
0
LINE
8
0
10
2.4
20
15.6821023
11
2.4
21
16.3857631
0
LINE
8
0
10
2.4
20
16.3857631
11
2.4
21
17.2653368
0
LINE
8
0
10
2.4
20
17.2653368
11
2.4
21
20.4723166
0
LINE
8
0
10
2.4
20
20.4723166
11
2.4
21
22.6103032
0
LINE
8
0
10
2.4
20
22.6103032
11
2.4
21
24.9045471
0
LINE
8
0
10
2.4
20
24.9045471
11
2.4
21
27.6576397
0
LINE
8
0
10
2.4
20
27.6576397
11
10.3262996
21
27.6576397
0
LINE
8
0
10
10.3262996
20
27.6576397
11
16
21
27.6576397
0
LINE
8
0
10
16
20
27.6576397
11
16
21
22.6103032
0
LINE
8
0
10
16
20
22.6103032
11
16
21
22.6103032
0
ENDSEC
0
EOF
