0
SECTION
2
ENTITIES
0
LINE
8
0
10
16
20
26.8620792
11
16
21
23.4058628
0
LINE
8
0
10
16
20
23.4058628
11
16
21
16.4934342
0
LINE
8
0
10
16
20
16.4934342
11
16
21
16.4776628
0
LINE
8
0
10
16
20
16.4776628
11
16
21
16.4697772
0
LINE
8
0
10
16
20
16.4697772
11
2.4123836
21
16.4697772
0
LINE
8
0
10
2.4123836
20
16.4697772
11
2.4
21
16.4697772
0
LINE
8
0
10
2.4
20
16.4697772
11
2.4
21
16.4740784
0
LINE
8
0
10
2.4
20
16.4740784
11
2.4
21
16.4776628
0
LINE
8
0
10
2.4
20
16.4776628
11
2.4
21
20.6314286
0
LINE
8
0
10
2.4
20
20.6314286
11
2.4
21
23.4058628
0
LINE
8
0
10
2.4
20
23.4058628
11
2.4
21
24.9768703
0
LINE
8
0
10
2.4
20
24.9768703
11
2.4
21
26.8620792
0
LINE
8
0
10
2.4
20
26.8620792
11
7.8276164
21
26.8620792
0
LINE
8
0
10
7.8276164
20
26.8620792
11
16
21
26.8620792
0
LINE
8
0
10
16
20
26.8620792
11
16
21
26.8620792
0
LINE
8
0
10
16
20
7.81324846
11
16
21
7.81740983
0
LINE
8
0
10
16
20
7.81740983
11
15.9876164
21
7.81740983
0
LINE
8
0
10
15.9876164
20
7.81740983
11
2.4
21
7.81740983
0
LINE
8
0
10
2.4
20
7.81740983
11
2.4
21
7.81386128
0
LINE
8
0
10
2.4
20
7.81386128
11
2.4
21
7.81286041
0
LINE
8
0
10
2.4
20
7.81286041
11
2.4
21
7.81280944
0
LINE
8
0
10
2.4
20
7.81280944
11
2.4
21
0.489353717
0
LINE
8
0
10
2.4
20
0.489353717
11
2.4
21
0.0481049075
0
LINE
8
0
10
2.4
20
0.0481049075
11
2.4
21
-0.358823138
0
LINE
8
0
10
2.4
20
-0.358823138
11
2.4
21
-0.694796374
0
LINE
8
0
10
2.4
20
-0.694796374
11
2.4
21
-5.77414235
0
LINE
8
0
10
2.4
20
-5.77414235
11
2.4
21
-6.26144607
0
LINE
8
0
10
2.4
20
-6.26144607
11
2.4
21
-6.3960039
0
LINE
8
0
10
2.4
20
-6.3960039
11
2.4
21
-13.9725787
0
LINE
8
0
10
2.4
20
-13.9725787
11
2.4
21
-14
0
LINE
8
0
10
2.4
20
-14
11
2.40534699
21
-14.0878323
0
LINE
8
0
10
2.40534699
20
-14.0878323
11
2.43787265
21
-14.2876739
0
LINE
8
0
10
2.43787265
20
-14.2876739
11
2.468148
21
-14.51764
0
LINE
8
0
10
2.468148
20
-14.51764
11
2.49042236
21
-14.5714148
0
LINE
8
0
10
2.49042236
20
-14.5714148
11
2.667949
21
-15
0
LINE
8
0
10
2.667949
20
-15
11
2.70338234
21
-15.0461773
0
LINE
8
0
10
2.70338234
20
-15.0461773
11
2.985786
21
-15.41421
0
LINE
8
0
10
2.985786
20
-15.41421
11
3.35454288
21
-15.6970339
0
LINE
8
0
10
3.35454288
20
-15.6970339
11
3.4009013
21
-15.7325724
0
LINE
8
0
10
3.4009013
20
-15.7325724
11
3.82876768
21
-15.9096805
0
LINE
8
0
10
3.82876768
20
-15.9096805
11
3.882362
21
-15.93185
0
LINE
8
0
10
3.882362
20
-15.93185
11
3.91474494
21
-15.9361134
0
LINE
8
0
10
3.91474494
20
-15.9361134
11
4.16637267
21
-15.9770557
0
LINE
8
0
10
4.16637267
20
-15.9770557
11
4.4
21
-16
0
LINE
8
0
10
4.4
20
-16
11
9.5212129
21
-16
0
LINE
8
0
10
9.5212129
20
-16
11
14
21
-16
0
LINE
8
0
10
14
20
-16
11
14.1796658
21
-15.9847903
0
LINE
8
0
10
14.1796658
20
-15.9847903
11
14.5047734
21
-15.9346206
0
LINE
8
0
10
14.5047734
20
-15.9346206
11
14.5284995
21
-15.9284635
0
LINE
8
0
10
14.5284995
20
-15.9284635
11
14.9752263
21
-15.7436094
0
LINE
8
0
10
14.9752263
20
-15.7436094
11
14.9986804
21
-15.7327933
0
LINE
8
0
10
14.9986804
20
-15.7327933
11
15.0218298
21
-15.7164353
0
LINE
8
0
10
15.0218298
20
-15.7164353
11
15.405467
21
-15.4222709
0
LINE
8
0
10
15.405467
20
-15.4222709
11
15.4259555
21
-15.4010642
0
LINE
8
0
10
15.4259555
20
-15.4010642
11
15.7186934
21
-15.0195674
0
LINE
8
0
10
15.7186934
20
-15.0195674
11
15.7365977
21
-14.9915267
0
LINE
8
0
10
15.7365977
20
-14.9915267
11
15.9201489
21
-14.5483947
0
LINE
8
0
10
15.9201489
20
-14.5483947
11
15.9328523
21
-14.5135532
0
LINE
8
0
10
15.9328523
20
-14.5135532
11
15.936368
21
-14.4940157
0
LINE
8
0
10
15.936368
20
-14.4940157
11
15.9637748
21
-14.350709
0
LINE
8
0
10
15.9637748
20
-14.350709
11
15.9914396
21
-14.1405785
0
LINE
8
0
10
15.9914396
20
-14.1405785
11
16
21
-14
0
LINE
8
0
10
16
20
-14
11
16
21
-10.0191146
0
LINE
8
0
10
16
20
-10.0191146
11
16
21
-9.45217263
0
LINE
8
0
10
16
20
-9.45217263
11
16
21
-8.76150043
0
LINE
8
0
10
16
20
-8.76150043
11
16
21
-8.70565696
0
LINE
8
0
10
16
20
-8.70565696
11
16
21
-7.92223159
0
LINE
8
0
10
16
20
-7.92223159
11
16
21
-7.86821293
0
LINE
8
0
10
16
20
-7.86821293
11
16
21
-7.81114738
0
LINE
8
0
10
16
20
-7.81114738
11
16
21
-6.98134262
0
LINE
8
0
10
16
20
-6.98134262
11
16
21
-6.1545764
0
LINE
8
0
10
16
20
-6.1545764
11
16
21
-5.39850951
0
LINE
8
0
10
16
20
-5.39850951
11
16
21
7.80770922
0
LINE
8
0
10
16
20
7.80770922
11
16
21
7.81324846
0
LINE
8
0
10
16
20
7.81324846
11
16
21
7.81324846
0
LINE
8
0
10
16
20
47.6545788
11
16
21
52.8383083
0
LINE
8
0
10
16
20
52.8383083
11
16
21
53.1843687
0
LINE
8
0
10
16
20
53.1843687
11
16
21
53.4776028
0
LINE
8
0
10
16
20
53.4776028
11
16
21
63.5544786
0
LINE
8
0
10
16
20
63.5544786
11
16
21
64.1773539
0
LINE
8
0
10
16
20
64.1773539
11
16
21
64.8168871
0
LINE
8
0
10
16
20
64.8168871
11
16
21
65.4147653
0
LINE
8
0
10
16
20
65.4147653
11
16
21
69
0
LINE
8
0
10
16
20
69
11
15.9537185
21
69.3515356
0
LINE
8
0
10
15.9537185
20
69.3515356
11
15.93185
21
69.51764
0
LINE
8
0
10
15.93185
20
69.51764
11
15.8677366
21
69.6724235
0
LINE
8
0
10
15.8677366
20
69.6724235
11
15.73205
21
70
0
LINE
8
0
10
15.73205
20
70
11
15.630059
21
70.132915
0
LINE
8
0
10
15.630059
20
70.132915
11
15.41421
21
70.41421
0
LINE
8
0
10
15.41421
20
70.41421
11
15.281295
21
70.516201
0
LINE
8
0
10
15.281295
20
70.516201
11
15
21
70.73205
0
LINE
8
0
10
15
20
70.73205
11
14.8452165
21
70.7961634
0
LINE
8
0
10
14.8452165
20
70.7961634
11
14.51764
21
70.93185
0
LINE
8
0
10
14.51764
20
70.93185
11
14.3515356
21
70.9537185
0
LINE
8
0
10
14.3515356
20
70.9537185
11
14
21
71
0
LINE
8
0
10
14
20
71
11
13.3877495
21
71
0
LINE
8
0
10
13.3877495
20
71
11
9.6653543
21
71
0
LINE
8
0
10
9.6653543
20
71
11
4.4
21
71
0
LINE
8
0
10
4.4
20
71
11
3.99857225
21
70.9471497
0
LINE
8
0
10
3.99857225
20
70.9471497
11
3.882362
21
70.93185
0
LINE
8
0
10
3.882362
20
70.93185
11
3.77407125
21
70.8869947
0
LINE
8
0
10
3.77407125
20
70.8869947
11
3.4
21
70.73205
0
LINE
8
0
10
3.4
20
70.73205
11
3.30700854
21
70.6606946
0
LINE
8
0
10
3.30700854
20
70.6606946
11
2.985786
21
70.41421
0
LINE
8
0
10
2.985786
20
70.41421
11
2.91443128
21
70.3212194
0
LINE
8
0
10
2.91443128
20
70.3212194
11
2.667949
21
70
0
LINE
8
0
10
2.667949
20
70
11
2.62309348
21
69.8917097
0
LINE
8
0
10
2.62309348
20
69.8917097
11
2.468148
21
69.51764
0
LINE
8
0
10
2.468148
20
69.51764
11
2.45284871
21
69.4014293
0
LINE
8
0
10
2.45284871
20
69.4014293
11
2.4
21
69
0
LINE
8
0
10
2.4
20
69
11
2.4
21
65.1811323
0
LINE
8
0
10
2.4
20
65.1811323
11
2.4
21
64.8563531
0
LINE
8
0
10
2.4
20
64.8563531
11
2.4
21
64.4908626
0
LINE
8
0
10
2.4
20
64.4908626
11
2.4
21
64.118126
0
LINE
8
0
10
2.4
20
64.118126
11
2.4
21
52.834786
0
LINE
8
0
10
2.4
20
52.834786
11
2.4
21
52.7034037
0
LINE
8
0
10
2.4
20
52.7034037
11
2.4
21
52.5412966
0
LINE
8
0
10
2.4
20
52.5412966
11
2.4
21
52.368992
0
LINE
8
0
10
2.4
20
52.368992
11
2.4
21
52.2069023
0
LINE
8
0
10
2.4
20
52.2069023
11
2.4
21
52.0706248
0
LINE
8
0
10
2.4
20
52.0706248
11
2.4
21
50.7687243
0
LINE
8
0
10
2.4
20
50.7687243
11
2.4
21
47.6545788
0
LINE
8
0
10
2.4
20
47.6545788
11
5.1323836
21
47.6545788
0
LINE
8
0
10
5.1323836
20
47.6545788
11
16
21
47.6545788
0
LINE
8
0
10
16
20
47.6545788
11
16
21
47.6545788
0
LINE
8
0
10
16
20
38.9943228
11
16
21
45.9146412
0
LINE
8
0
10
16
20
45.9146412
11
13.2676164
21
45.9146412
0
LINE
8
0
10
13.2676164
20
45.9146412
11
2.4
21
45.9146412
0
LINE
8
0
10
2.4
20
45.9146412
11
2.4
21
42.1399221
0
LINE
8
0
10
2.4
20
42.1399221
11
2.4
21
38.9943228
0
LINE
8
0
10
2.4
20
38.9943228
11
2.4
21
37.6055286
0
LINE
8
0
10
2.4
20
37.6055286
11
2.4
21
35.5223372
0
LINE
8
0
10
2.4
20
35.5223372
11
2.4
21
33.602217
0
LINE
8
0
10
2.4
20
33.602217
11
2.4
21
32.0661208
0
LINE
8
0
10
2.4
20
32.0661208
11
10.5723836
21
32.0661208
0
LINE
8
0
10
10.5723836
20
32.0661208
11
16
21
32.0661208
0
LINE
8
0
10
16
20
32.0661208
11
16
21
35.5223372
0
LINE
8
0
10
16
20
35.5223372
11
16
21
38.9943228
0
LINE
8
0
10
16
20
38.9943228
11
16
21
38.9943228
0
ENDSEC
0
EOF
