0
SECTION
2
ENTITIES
0
LINE
8
0
10
16
20
45.5168609
11
16
21
39.3921026
0
LINE
8
0
10
16
20
39.3921026
11
16
21
35.1245574
0
LINE
8
0
10
16
20
35.1245574
11
16
21
32.4639011
0
LINE
8
0
10
16
20
32.4639011
11
11.8217252
21
32.4639011
0
LINE
8
0
10
11.8217252
20
32.4639011
11
2.4
21
32.4639011
0
LINE
8
0
10
2.4
20
32.4639011
11
2.4
21
33.646415
0
LINE
8
0
10
2.4
20
33.646415
11
2.4
21
35.1245574
0
LINE
8
0
10
2.4
20
35.1245574
11
2.4
21
37.6850845
0
LINE
8
0
10
2.4
20
37.6850845
11
2.4
21
39.3921026
0
LINE
8
0
10
2.4
20
39.3921026
11
2.4
21
42.1760837
0
LINE
8
0
10
2.4
20
42.1760837
11
2.4
21
45.5168609
0
LINE
8
0
10
2.4
20
45.5168609
11
12.0182748
21
45.5168609
0
LINE
8
0
10
12.0182748
20
45.5168609
11
16
21
45.5168609
0
LINE
8
0
10
16
20
45.5168609
11
16
21
45.5168609
0
LINE
8
0
10
16
20
63.8055514
11
16
21
64.3997082
0
LINE
8
0
10
16
20
64.3997082
11
16
21
65.0097549
0
LINE
8
0
10
16
20
65.0097549
11
16
21
65.5800672
0
LINE
8
0
10
16
20
65.5800672
11
16
21
69
0
LINE
8
0
10
16
20
69
11
15.9558524
21
69.3353276
0
LINE
8
0
10
15.9558524
20
69.3353276
11
15.93185
21
69.51764
0
LINE
8
0
10
15.93185
20
69.51764
11
15.8614806
21
69.6875268
0
LINE
8
0
10
15.8614806
20
69.6875268
11
15.73205
21
70
0
LINE
8
0
10
15.73205
20
70
11
15.620107
21
70.1458844
0
LINE
8
0
10
15.620107
20
70.1458844
11
15.41421
21
70.41421
0
LINE
8
0
10
15.41421
20
70.41421
11
15.2683256
21
70.526153
0
LINE
8
0
10
15.2683256
20
70.526153
11
15
21
70.73205
0
LINE
8
0
10
15
20
70.73205
11
14.8301132
21
70.8024194
0
LINE
8
0
10
14.8301132
20
70.8024194
11
14.51764
21
70.93185
0
LINE
8
0
10
14.51764
20
70.93185
11
14.3353276
21
70.9558524
0
LINE
8
0
10
14.3353276
20
70.9558524
11
14
21
71
0
LINE
8
0
10
14
20
71
11
13.3732362
21
71
0
LINE
8
0
10
13.3732362
20
71
11
9.79016832
21
71
0
LINE
8
0
10
9.79016832
20
71
11
4.4
21
71
0
LINE
8
0
10
4.4
20
71
11
4.01359748
21
70.9491279
0
LINE
8
0
10
4.01359748
20
70.9491279
11
3.882362
21
70.93185
0
LINE
8
0
10
3.882362
20
70.93185
11
3.76006996
21
70.8811952
0
LINE
8
0
10
3.76006996
20
70.8811952
11
3.4
21
70.73205
0
LINE
8
0
10
3.4
20
70.73205
11
3.29498535
21
70.6514688
0
LINE
8
0
10
3.29498535
20
70.6514688
11
2.985786
21
70.41421
0
LINE
8
0
10
2.985786
20
70.41421
11
2.90520557
21
70.3091964
0
LINE
8
0
10
2.90520557
20
70.3091964
11
2.667949
21
70
0
LINE
8
0
10
2.667949
20
70
11
2.61729395
21
69.8777085
0
LINE
8
0
10
2.61729395
20
69.8777085
11
2.468148
21
69.51764
0
LINE
8
0
10
2.468148
20
69.51764
11
2.45087061
21
69.386404
0
LINE
8
0
10
2.45087061
20
69.386404
11
2.4
21
69
0
LINE
8
0
10
2.4
20
69
11
2.4
21
65.3240705
0
LINE
8
0
10
2.4
20
65.3240705
11
2.4
21
65.0114476
0
LINE
8
0
10
2.4
20
65.0114476
11
2.4
21
64.6596372
0
LINE
8
0
10
2.4
20
64.6596372
11
2.4
21
64.300852
0
LINE
8
0
10
2.4
20
64.300852
11
2.4
21
52.6370495
0
LINE
8
0
10
2.4
20
52.6370495
11
2.4
21
52.5207709
0
LINE
8
0
10
2.4
20
52.5207709
11
2.4
21
52.3772996
0
LINE
8
0
10
2.4
20
52.3772996
11
2.4
21
52.2248031
0
LINE
8
0
10
2.4
20
52.2248031
11
2.4
21
52.0813473
0
LINE
8
0
10
2.4
20
52.0813473
11
2.4
21
51.9607362
0
LINE
8
0
10
2.4
20
51.9607362
11
2.4
21
50.8085023
0
LINE
8
0
10
2.4
20
50.8085023
11
2.4
21
48.0523591
0
LINE
8
0
10
2.4
20
48.0523591
11
6.38172522
21
48.0523591
0
LINE
8
0
10
6.38172522
20
48.0523591
11
16
21
48.0523591
0
LINE
8
0
10
16
20
48.0523591
11
16
21
52.6401668
0
LINE
8
0
10
16
20
52.6401668
11
16
21
52.9464441
0
LINE
8
0
10
16
20
52.9464441
11
16
21
53.205968
0
LINE
8
0
10
16
20
53.205968
11
16
21
63.8055514
0
LINE
8
0
10
16
20
63.8055514
11
16
21
63.8055514
0
LINE
8
0
10
16
20
8.21518945
11
16
21
7.79120019
0
LINE
8
0
10
16
20
7.79120019
11
16
21
7.22682553
0
LINE
8
0
10
16
20
7.22682553
11
16
21
-5.61936965
0
LINE
8
0
10
16
20
-5.61936965
11
16
21
-6.3548249
0
LINE
8
0
10
16
20
-6.3548249
11
16
21
-7.15905209
0
LINE
8
0
10
16
20
-7.15905209
11
16
21
-7.96623499
0
LINE
8
0
10
16
20
-7.96623499
11
16
21
-8.02621021
0
LINE
8
0
10
16
20
-8.02621021
11
16
21
-8.08298318
0
LINE
8
0
10
16
20
-8.08298318
11
16
21
-8.84510794
0
LINE
8
0
10
16
20
-8.84510794
11
16
21
-8.90345951
0
LINE
8
0
10
16
20
-8.90345951
11
16
21
-9.57541505
0
LINE
8
0
10
16
20
-9.57541505
11
16
21
-10.1269934
0
LINE
8
0
10
16
20
-10.1269934
11
16
21
-14
0
LINE
8
0
10
16
20
-14
11
15.9912822
21
-14.1431631
0
LINE
8
0
10
15.9912822
20
-14.1431631
11
15.9643618
21
-14.3476399
0
LINE
8
0
10
15.9643618
20
-14.3476399
11
15.9376924
21
-14.4870907
0
LINE
8
0
10
15.9376924
20
-14.4870907
11
15.9331461
21
-14.5123553
0
LINE
8
0
10
15.9331461
20
-14.5123553
11
15.916719
21
-14.5574098
0
LINE
8
0
10
15.916719
20
-14.5574098
11
15.7379308
21
-14.989043
0
LINE
8
0
10
15.7379308
20
-14.989043
11
15.7147782
21
-15.0253031
0
LINE
8
0
10
15.7147782
20
-15.0253031
11
15.4293984
21
-15.3972109
0
LINE
8
0
10
15.4293984
20
-15.3972109
11
15.4029042
21
-15.4246338
0
LINE
8
0
10
15.4029042
20
-15.4246338
11
15.0285892
21
-15.7116501
0
LINE
8
0
10
15.0285892
20
-15.7116501
11
14.9986542
21
-15.7328031
0
LINE
8
0
10
14.9986542
20
-15.7328031
11
14.968325
21
-15.7467897
0
LINE
8
0
10
14.968325
20
-15.7467897
11
14.5316827
21
-15.9274709
0
LINE
8
0
10
14.5316827
20
-15.9274709
11
14.5010018
21
-15.9354327
0
LINE
8
0
10
14.5010018
20
-15.9354327
11
14.182969
21
-15.9845106
0
LINE
8
0
10
14.182969
20
-15.9845106
11
14
21
-16
0
LINE
8
0
10
14
20
-16
11
9.6153698
21
-16
0
LINE
8
0
10
9.6153698
20
-16
11
4.4
21
-16
0
LINE
8
0
10
4.4
20
-16
11
4.16923055
21
-15.9773364
0
LINE
8
0
10
4.16923055
20
-15.9773364
11
3.92068089
21
-15.9368949
0
LINE
8
0
10
3.92068089
20
-15.9368949
11
3.882362
21
-15.93185
0
LINE
8
0
10
3.882362
20
-15.93185
11
3.81894358
21
-15.9056168
0
LINE
8
0
10
3.81894358
20
-15.9056168
11
3.40091785
21
-15.732582
0
LINE
8
0
10
3.40091785
20
-15.732582
11
3.34606171
21
-15.6905292
0
LINE
8
0
10
3.34606171
20
-15.6905292
11
2.985786
21
-15.41421
0
LINE
8
0
10
2.985786
20
-15.41421
11
2.70987744
21
-15.0546418
0
LINE
8
0
10
2.70987744
20
-15.0546418
11
2.667949
21
-15
0
LINE
8
0
10
2.667949
20
-15
11
2.49450536
21
-14.581272
0
LINE
8
0
10
2.49450536
20
-14.581272
11
2.468148
21
-14.51764
0
LINE
8
0
10
2.468148
20
-14.51764
11
2.43856896
21
-14.2929629
0
LINE
8
0
10
2.43856896
20
-14.2929629
11
2.4054453
21
-14.0894471
0
LINE
8
0
10
2.4054453
20
-14.0894471
11
2.4
21
-14
0
LINE
8
0
10
2.4
20
-14
11
2.4
21
-13.9728754
0
LINE
8
0
10
2.4
20
-13.9728754
11
2.4
21
-6.47828552
0
LINE
8
0
10
2.4
20
-6.47828552
11
2.4
21
-6.33958733
0
LINE
8
0
10
2.4
20
-6.33958733
11
2.4
21
-5.85754412
0
LINE
8
0
10
2.4
20
-5.85754412
11
2.4
21
-0.6131111
0
LINE
8
0
10
2.4
20
-0.6131111
11
2.4
21
-0.282983498
0
LINE
8
0
10
2.4
20
-0.282983498
11
2.4
21
0.116864361
0
LINE
8
0
10
2.4
20
0.116864361
11
2.4
21
0.550435835
0
LINE
8
0
10
2.4
20
0.550435835
11
2.4
21
7.74646995
0
LINE
8
0
10
2.4
20
7.74646995
11
2.4
21
7.75166348
0
LINE
8
0
10
2.4
20
7.75166348
11
2.4
21
7.85363926
0
LINE
8
0
10
2.4
20
7.85363926
11
2.4
21
8.21518945
0
LINE
8
0
10
2.4
20
8.21518945
11
14.7382748
21
8.21518945
0
LINE
8
0
10
14.7382748
20
8.21518945
11
16
21
8.21518945
0
LINE
8
0
10
16
20
8.21518945
11
16
21
8.21518945
0
LINE
8
0
10
16
20
16.0719969
11
16
21
16.8754426
0
LINE
8
0
10
16
20
16.8754426
11
16
21
18.4823332
0
LINE
8
0
10
16
20
18.4823332
11
16
21
23.8036426
0
LINE
8
0
10
16
20
23.8036426
11
16
21
26.4642989
0
LINE
8
0
10
16
20
26.4642989
11
6.57827478
21
26.4642989
0
LINE
8
0
10
6.57827478
20
26.4642989
11
2.4
21
26.4642989
0
LINE
8
0
10
2.4
20
26.4642989
11
2.4
21
25.0130318
0
LINE
8
0
10
2.4
20
25.0130318
11
2.4
21
23.8036426
0
LINE
8
0
10
2.4
20
23.8036426
11
2.4
21
20.7109845
0
LINE
8
0
10
2.4
20
20.7109845
11
2.4
21
16.8754426
0
LINE
8
0
10
2.4
20
16.8754426
11
2.4
21
16.5102405
0
LINE
8
0
10
2.4
20
16.5102405
11
2.4
21
16.0719969
0
LINE
8
0
10
2.4
20
16.0719969
11
3.66172522
21
16.0719969
0
LINE
8
0
10
3.66172522
20
16.0719969
11
16
21
16.0719969
0
LINE
8
0
10
16
20
16.0719969
11
16
21
16.0719969
0
ENDSEC
0
EOF
