0
SECTION
2
ENTITIES
0
LINE
8
0
10
15.9334399
20
-14.5111574
11
15.9132891
21
-14.5664248
0
LINE
8
0
10
15.9132891
20
-14.5664248
11
15.7392638
21
-14.9865592
0
LINE
8
0
10
15.7392638
20
-14.9865592
11
15.710863
21
-15.0310389
0
LINE
8
0
10
15.710863
20
-15.0310389
11
15.4328413
21
-15.3933575
0
LINE
8
0
10
15.4328413
20
-15.3933575
11
15.4003414
21
-15.4269967
0
LINE
8
0
10
15.4003414
20
-15.4269967
11
15.0353487
21
-15.7068648
0
LINE
8
0
10
15.0353487
20
-15.7068648
11
14.9986279
21
-15.7328128
0
LINE
8
0
10
14.9986279
20
-15.7328128
11
14.9614237
21
-15.74997
0
LINE
8
0
10
14.9614237
20
-15.74997
11
14.5348659
21
-15.9264782
0
LINE
8
0
10
14.5348659
20
-15.9264782
11
14.4972302
21
-15.9362448
0
LINE
8
0
10
14.4972302
20
-15.9362448
11
14.1862723
21
-15.984231
0
LINE
8
0
10
14.1862723
20
-15.984231
11
14
21
-16
0
LINE
8
0
10
14
20
-16
11
9.7095267
21
-16
0
LINE
8
0
10
9.7095267
20
-16
11
4.4
21
-16
0
LINE
8
0
10
4.4
20
-16
11
4.17208843
21
-15.977617
0
LINE
8
0
10
4.17208843
20
-15.977617
11
3.92661685
21
-15.9376764
0
LINE
8
0
10
3.92661685
20
-15.9376764
11
3.882362
21
-15.93185
0
LINE
8
0
10
3.882362
20
-15.93185
11
3.80911948
21
-15.901553
0
LINE
8
0
10
3.80911948
20
-15.901553
11
3.40093441
21
-15.7325916
0
LINE
8
0
10
3.40093441
20
-15.7325916
11
3.33758053
21
-15.6840244
0
LINE
8
0
10
3.33758053
20
-15.6840244
11
2.985786
21
-15.41421
0
LINE
8
0
10
2.985786
20
-15.41421
11
2.71637255
21
-15.0631063
0
LINE
8
0
10
2.71637255
20
-15.0631063
11
2.667949
21
-15
0
LINE
8
0
10
2.667949
20
-15
11
2.49858836
21
-14.5911292
0
LINE
8
0
10
2.49858836
20
-14.5911292
11
2.468148
21
-14.51764
0
LINE
8
0
10
2.468148
20
-14.51764
11
2.43926528
21
-14.298252
0
LINE
8
0
10
2.43926528
20
-14.298252
11
2.40554361
21
-14.091062
0
LINE
8
0
10
2.40554361
20
-14.091062
11
2.4
21
-14
0
LINE
8
0
10
2.4
20
-14
11
2.4
21
-13.9731722
0
LINE
8
0
10
2.4
20
-13.9731722
11
2.4
21
-6.56056713
0
LINE
8
0
10
2.4
20
-6.56056713
11
2.4
21
-6.41772859
0
LINE
8
0
10
2.4
20
-6.41772859
11
2.4
21
-5.9409459
0
LINE
8
0
10
2.4
20
-5.9409459
11
2.4
21
-0.531425826
0
LINE
8
0
10
2.4
20
-0.531425826
11
2.4
21
-0.207143859
0
LINE
8
0
10
2.4
20
-0.207143859
11
2.4
21
0.185623815
0
LINE
8
0
10
2.4
20
0.185623815
11
2.4
21
0.611517952
0
LINE
8
0
10
2.4
20
0.611517952
11
2.4
21
7.68013046
0
LINE
8
0
10
2.4
20
7.68013046
11
2.4
21
7.69046655
0
LINE
8
0
10
2.4
20
7.69046655
11
2.4
21
7.89341724
0
LINE
8
0
10
2.4
20
7.89341724
11
2.4
21
8.61296908
0
LINE
8
0
10
2.4
20
8.61296908
11
13.4889332
21
8.61296908
0
LINE
8
0
10
13.4889332
20
8.61296908
11
16
21
8.61296908
0
LINE
8
0
10
16
20
8.61296908
11
16
21
7.76915192
0
LINE
8
0
10
16
20
7.76915192
11
16
21
6.64594184
0
LINE
8
0
10
16
20
6.64594184
11
16
21
-5.84022979
0
LINE
8
0
10
16
20
-5.84022979
11
16
21
-6.5550734
0
LINE
8
0
10
16
20
-6.5550734
11
16
21
-7.33676156
0
LINE
8
0
10
16
20
-7.33676156
11
16
21
-8.1213226
0
LINE
8
0
10
16
20
-8.1213226
11
16
21
-8.18420749
0
LINE
8
0
10
16
20
-8.18420749
11
16
21
-8.24373478
0
LINE
8
0
10
16
20
-8.24373478
11
16
21
-8.98455892
0
LINE
8
0
10
16
20
-8.98455892
11
16
21
-9.04541858
0
LINE
8
0
10
16
20
-9.04541858
11
16
21
-9.69865747
0
LINE
8
0
10
16
20
-9.69865747
11
16
21
-10.2348722
0
LINE
8
0
10
16
20
-10.2348722
11
16
21
-14
0
LINE
8
0
10
16
20
-14
11
15.9911248
21
-14.1457477
0
LINE
8
0
10
15.9911248
20
-14.1457477
11
15.9649487
21
-14.3445707
0
LINE
8
0
10
15.9649487
20
-14.3445707
11
15.9390168
21
-14.4801658
0
LINE
8
0
10
15.9390168
20
-14.4801658
11
15.9334399
21
-14.5111574
0
LINE
8
0
10
15.9334399
20
-14.5111574
11
15.9334399
21
-14.5111574
0
LINE
8
0
10
16
20
64.0566242
11
16
21
52.9343332
0
LINE
8
0
10
16
20
52.9343332
11
16
21
52.7085195
0
LINE
8
0
10
16
20
52.7085195
11
16
21
52.4420254
0
LINE
8
0
10
16
20
52.4420254
11
16
21
48.4501394
0
LINE
8
0
10
16
20
48.4501394
11
7.63106683
21
48.4501394
0
LINE
8
0
10
7.63106683
20
48.4501394
11
2.4
21
48.4501394
0
LINE
8
0
10
2.4
20
48.4501394
11
2.4
21
50.8482802
0
LINE
8
0
10
2.4
20
50.8482802
11
2.4
21
51.8508477
0
LINE
8
0
10
2.4
20
51.8508477
11
2.4
21
51.9557923
0
LINE
8
0
10
2.4
20
51.9557923
11
2.4
21
52.0806142
0
LINE
8
0
10
2.4
20
52.0806142
11
2.4
21
52.2133026
0
LINE
8
0
10
2.4
20
52.2133026
11
2.4
21
52.338138
0
LINE
8
0
10
2.4
20
52.338138
11
2.4
21
52.4393129
0
LINE
8
0
10
2.4
20
52.4393129
11
2.4
21
64.4835779
0
LINE
8
0
10
2.4
20
64.4835779
11
2.4
21
64.8284118
0
LINE
8
0
10
2.4
20
64.8284118
11
2.4
21
65.1665422
0
LINE
8
0
10
2.4
20
65.1665422
11
2.4
21
65.4670087
0
LINE
8
0
10
2.4
20
65.4670087
11
2.4
21
69
0
LINE
8
0
10
2.4
20
69
11
2.44889251
21
69.3713787
0
LINE
8
0
10
2.44889251
20
69.3713787
11
2.468148
21
69.51764
0
LINE
8
0
10
2.468148
20
69.51764
11
2.61149442
21
69.8637072
0
LINE
8
0
10
2.61149442
20
69.8637072
11
2.667949
21
70
0
LINE
8
0
10
2.667949
20
70
11
2.89597987
21
70.2971733
0
LINE
8
0
10
2.89597987
20
70.2971733
11
2.985786
21
70.41421
0
LINE
8
0
10
2.985786
20
70.41421
11
3.28296216
21
70.642243
0
LINE
8
0
10
3.28296216
20
70.642243
11
3.4
21
70.73205
0
LINE
8
0
10
3.4
20
70.73205
11
3.74606867
21
70.8753957
0
LINE
8
0
10
3.74606867
20
70.8753957
11
3.882362
21
70.93185
0
LINE
8
0
10
3.882362
20
70.93185
11
4.02862271
21
70.9511061
0
LINE
8
0
10
4.02862271
20
70.9511061
11
4.4
21
71
0
LINE
8
0
10
4.4
20
71
11
9.91498235
21
71
0
LINE
8
0
10
9.91498235
20
71
11
13.358723
21
71
0
LINE
8
0
10
13.358723
20
71
11
14
21
71
0
LINE
8
0
10
14
20
71
11
14.3191196
21
70.9579862
0
LINE
8
0
10
14.3191196
20
70.9579862
11
14.51764
21
70.93185
0
LINE
8
0
10
14.51764
20
70.93185
11
14.8150099
21
70.8086754
0
LINE
8
0
10
14.8150099
20
70.8086754
11
15
21
70.73205
0
LINE
8
0
10
15
20
70.73205
11
15.2553561
21
70.536105
0
LINE
8
0
10
15.2553561
20
70.536105
11
15.41421
21
70.41421
0
LINE
8
0
10
15.41421
20
70.41421
11
15.610155
21
70.1588539
0
LINE
8
0
10
15.610155
20
70.1588539
11
15.73205
21
70
0
LINE
8
0
10
15.73205
20
70
11
15.8552246
21
69.7026301
0
LINE
8
0
10
15.8552246
20
69.7026301
11
15.93185
21
69.51764
0
LINE
8
0
10
15.93185
20
69.51764
11
15.9579862
21
69.3191196
0
LINE
8
0
10
15.9579862
20
69.3191196
11
16
21
69
0
LINE
8
0
10
16
20
69
11
16
21
65.745369
0
LINE
8
0
10
16
20
65.745369
11
16
21
65.2026228
0
LINE
8
0
10
16
20
65.2026228
11
16
21
64.6220625
0
LINE
8
0
10
16
20
64.6220625
11
16
21
64.0566242
0
LINE
8
0
10
16
20
64.0566242
11
16
21
64.0566242
0
LINE
8
0
10
16
20
34.7267776
11
16
21
32.8616814
0
LINE
8
0
10
16
20
32.8616814
11
13.0710668
21
32.8616814
0
LINE
8
0
10
13.0710668
20
32.8616814
11
2.4
21
32.8616814
0
LINE
8
0
10
2.4
20
32.8616814
11
2.4
21
33.690613
0
LINE
8
0
10
2.4
20
33.690613
11
2.4
21
34.7267776
0
LINE
8
0
10
2.4
20
34.7267776
11
2.4
21
37.7646405
0
LINE
8
0
10
2.4
20
37.7646405
11
2.4
21
39.7898824
0
LINE
8
0
10
2.4
20
39.7898824
11
2.4
21
42.2122453
0
LINE
8
0
10
2.4
20
42.2122453
11
2.4
21
45.1190806
0
LINE
8
0
10
2.4
20
45.1190806
11
10.7689332
21
45.1190806
0
LINE
8
0
10
10.7689332
20
45.1190806
11
16
21
45.1190806
0
LINE
8
0
10
16
20
45.1190806
11
16
21
39.7898824
0
LINE
8
0
10
16
20
39.7898824
11
16
21
34.7267776
0
LINE
8
0
10
16
20
34.7267776
11
16
21
34.7267776
0
LINE
8
0
10
16
20
26.0665186
11
16
21
24.2014224
0
LINE
8
0
10
16
20
24.2014224
11
16
21
20.4712322
0
LINE
8
0
10
16
20
20.4712322
11
16
21
17.2732224
0
LINE
8
0
10
16
20
17.2732224
11
16
21
15.6742166
0
LINE
8
0
10
16
20
15.6742166
11
4.91106683
21
15.6742166
0
LINE
8
0
10
4.91106683
20
15.6742166
11
2.4
21
15.6742166
0
LINE
8
0
10
2.4
20
15.6742166
11
2.4
21
16.5464025
0
LINE
8
0
10
2.4
20
16.5464025
11
2.4
21
17.2732224
0
LINE
8
0
10
2.4
20
17.2732224
11
2.4
21
20.7905405
0
LINE
8
0
10
2.4
20
20.7905405
11
2.4
21
24.2014224
0
LINE
8
0
10
2.4
20
24.2014224
11
2.4
21
25.0491934
0
LINE
8
0
10
2.4
20
25.0491934
11
2.4
21
26.0665186
0
LINE
8
0
10
2.4
20
26.0665186
11
5.32893317
21
26.0665186
0
LINE
8
0
10
5.32893317
20
26.0665186
11
16
21
26.0665186
0
LINE
8
0
10
16
20
26.0665186
11
16
21
26.0665186
0
ENDSEC
0
EOF
