0
SECTION
2
ENTITIES
0
LINE
8
0
10
16
20
-8.27641021
11
16
21
-8.34220477
0
LINE
8
0
10
16
20
-8.34220477
11
16
21
-8.40448637
0
LINE
8
0
10
16
20
-8.40448637
11
16
21
-9.1240099
0
LINE
8
0
10
16
20
-9.1240099
11
16
21
-9.18737766
0
LINE
8
0
10
16
20
-9.18737766
11
16
21
-9.82189989
0
LINE
8
0
10
16
20
-9.82189989
11
16
21
-10.3427509
0
LINE
8
0
10
16
20
-10.3427509
11
16
21
-14
0
LINE
8
0
10
16
20
-14
11
15.9909674
21
-14.1483323
0
LINE
8
0
10
15.9909674
20
-14.1483323
11
15.9655357
21
-14.3415016
0
LINE
8
0
10
15.9655357
20
-14.3415016
11
15.9403411
21
-14.4732408
0
LINE
8
0
10
15.9403411
20
-14.4732408
11
15.9337337
21
-14.5099594
0
LINE
8
0
10
15.9337337
20
-14.5099594
11
15.9098592
21
-14.5754399
0
LINE
8
0
10
15.9098592
20
-14.5754399
11
15.7405969
21
-14.9840755
0
LINE
8
0
10
15.7405969
20
-14.9840755
11
15.7069478
21
-15.0367746
0
LINE
8
0
10
15.7069478
20
-15.0367746
11
15.4362843
21
-15.3895041
0
LINE
8
0
10
15.4362843
20
-15.3895041
11
15.3977785
21
-15.4293596
0
LINE
8
0
10
15.3977785
20
-15.4293596
11
15.0421081
21
-15.7020796
0
LINE
8
0
10
15.0421081
20
-15.7020796
11
14.9986017
21
-15.7328226
0
LINE
8
0
10
14.9986017
20
-15.7328226
11
14.9545224
21
-15.7531502
0
LINE
8
0
10
14.9545224
20
-15.7531502
11
14.5380491
21
-15.9254855
0
LINE
8
0
10
14.5380491
20
-15.9254855
11
14.4934587
21
-15.9370569
0
LINE
8
0
10
14.4934587
20
-15.9370569
11
14.1895756
21
-15.9839513
0
LINE
8
0
10
14.1895756
20
-15.9839513
11
14
21
-16
0
LINE
8
0
10
14
20
-16
11
9.8036836
21
-16
0
LINE
8
0
10
9.8036836
20
-16
11
4.4
21
-16
0
LINE
8
0
10
4.4
20
-16
11
4.17494631
21
-15.9778977
0
LINE
8
0
10
4.17494631
20
-15.9778977
11
3.9325528
21
-15.9384579
0
LINE
8
0
10
3.9325528
20
-15.9384579
11
3.882362
21
-15.93185
0
LINE
8
0
10
3.882362
20
-15.93185
11
3.79929537
21
-15.8974892
0
LINE
8
0
10
3.79929537
20
-15.8974892
11
3.40095096
21
-15.7326012
0
LINE
8
0
10
3.40095096
20
-15.7326012
11
3.32909936
21
-15.6775196
0
LINE
8
0
10
3.32909936
20
-15.6775196
11
2.985786
21
-15.41421
0
LINE
8
0
10
2.985786
20
-15.41421
11
2.72286765
21
-15.0715708
0
LINE
8
0
10
2.72286765
20
-15.0715708
11
2.667949
21
-15
0
LINE
8
0
10
2.667949
20
-15
11
2.50267136
21
-14.6009864
0
LINE
8
0
10
2.50267136
20
-14.6009864
11
2.468148
21
-14.51764
0
LINE
8
0
10
2.468148
20
-14.51764
11
2.43996159
21
-14.3035411
0
LINE
8
0
10
2.43996159
20
-14.3035411
11
2.40564191
21
-14.0926768
0
LINE
8
0
10
2.40564191
20
-14.0926768
11
2.4
21
-14
0
LINE
8
0
10
2.4
20
-14
11
2.4
21
-13.9734689
0
LINE
8
0
10
2.4
20
-13.9734689
11
2.4
21
-6.64284875
0
LINE
8
0
10
2.4
20
-6.64284875
11
2.4
21
-6.49586984
0
LINE
8
0
10
2.4
20
-6.49586984
11
2.4
21
-6.02434767
0
LINE
8
0
10
2.4
20
-6.02434767
11
2.4
21
-0.449740551
0
LINE
8
0
10
2.4
20
-0.449740551
11
2.4
21
-0.13130422
0
LINE
8
0
10
2.4
20
-0.13130422
11
2.4
21
0.254383269
0
LINE
8
0
10
2.4
20
0.254383269
11
2.4
21
0.67260007
0
LINE
8
0
10
2.4
20
0.67260007
11
2.4
21
7.61379097
0
LINE
8
0
10
2.4
20
7.61379097
11
2.4
21
7.62926962
0
LINE
8
0
10
2.4
20
7.62926962
11
2.4
21
7.93319523
0
LINE
8
0
10
2.4
20
7.93319523
11
2.4
21
9.0107487
0
LINE
8
0
10
2.4
20
9.0107487
11
12.2395916
21
9.0107487
0
LINE
8
0
10
12.2395916
20
9.0107487
11
16
21
9.0107487
0
LINE
8
0
10
16
20
9.0107487
11
16
21
7.74710365
0
LINE
8
0
10
16
20
7.74710365
11
16
21
6.06505815
0
LINE
8
0
10
16
20
6.06505815
11
16
21
-6.06108993
0
LINE
8
0
10
16
20
-6.06108993
11
16
21
-6.7553219
0
LINE
8
0
10
16
20
-6.7553219
11
16
21
-7.51447104
0
LINE
8
0
10
16
20
-7.51447104
11
16
21
-8.27641021
0
LINE
8
0
10
16
20
-8.27641021
11
16
21
-8.27641021
0
LINE
8
0
10
16
20
24.5992023
11
16
21
22.4601313
0
LINE
8
0
10
16
20
22.4601313
11
16
21
17.6710023
0
LINE
8
0
10
16
20
17.6710023
11
16
21
15.2764364
0
LINE
8
0
10
16
20
15.2764364
11
6.16040845
21
15.2764364
0
LINE
8
0
10
6.16040845
20
15.2764364
11
2.4
21
15.2764364
0
LINE
8
0
10
2.4
20
15.2764364
11
2.4
21
16.5825645
0
LINE
8
0
10
2.4
20
16.5825645
11
2.4
21
17.6710023
0
LINE
8
0
10
2.4
20
17.6710023
11
2.4
21
20.8700965
0
LINE
8
0
10
2.4
20
20.8700965
11
2.4
21
24.5992023
0
LINE
8
0
10
2.4
20
24.5992023
11
2.4
21
25.085355
0
LINE
8
0
10
2.4
20
25.085355
11
2.4
21
25.6687384
0
LINE
8
0
10
2.4
20
25.6687384
11
4.07959155
21
25.6687384
0
LINE
8
0
10
4.07959155
20
25.6687384
11
16
21
25.6687384
0
LINE
8
0
10
16
20
25.6687384
11
16
21
24.5992023
0
LINE
8
0
10
16
20
24.5992023
11
16
21
24.5992023
0
LINE
8
0
10
16
20
65.3954906
11
16
21
65.9106709
0
LINE
8
0
10
16
20
65.9106709
11
16
21
69
0
LINE
8
0
10
16
20
69
11
15.9601201
21
69.3029116
0
LINE
8
0
10
15.9601201
20
69.3029116
11
15.93185
21
69.51764
0
LINE
8
0
10
15.93185
20
69.51764
11
15.8489686
21
69.7177335
0
LINE
8
0
10
15.8489686
20
69.7177335
11
15.73205
21
70
0
LINE
8
0
10
15.73205
20
70
11
15.600203
21
70.1718234
0
LINE
8
0
10
15.600203
20
70.1718234
11
15.41421
21
70.41421
0
LINE
8
0
10
15.41421
20
70.41421
11
15.2423866
21
70.546057
0
LINE
8
0
10
15.2423866
20
70.546057
11
15
21
70.73205
0
LINE
8
0
10
15
20
70.73205
11
14.7999065
21
70.8149314
0
LINE
8
0
10
14.7999065
20
70.8149314
11
14.51764
21
70.93185
0
LINE
8
0
10
14.51764
20
70.93185
11
14.3029116
21
70.9601201
0
LINE
8
0
10
14.3029116
20
70.9601201
11
14
21
71
0
LINE
8
0
10
14
20
71
11
13.3442097
21
71
0
LINE
8
0
10
13.3442097
20
71
11
10.0397964
21
71
0
LINE
8
0
10
10.0397964
20
71
11
4.4
21
71
0
LINE
8
0
10
4.4
20
71
11
4.04364793
21
70.9530842
0
LINE
8
0
10
4.04364793
20
70.9530842
11
3.882362
21
70.93185
0
LINE
8
0
10
3.882362
20
70.93185
11
3.73206738
21
70.8695962
0
LINE
8
0
10
3.73206738
20
70.8695962
11
3.4
21
70.73205
0
LINE
8
0
10
3.4
20
70.73205
11
3.27093897
21
70.6330172
0
LINE
8
0
10
3.27093897
20
70.6330172
11
2.985786
21
70.41421
0
LINE
8
0
10
2.985786
20
70.41421
11
2.88675417
21
70.2851502
0
LINE
8
0
10
2.88675417
20
70.2851502
11
2.667949
21
70
0
LINE
8
0
10
2.667949
20
70
11
2.60569489
21
69.849706
0
LINE
8
0
10
2.60569489
20
69.849706
11
2.468148
21
69.51764
0
LINE
8
0
10
2.468148
20
69.51764
11
2.44691441
21
69.3563534
0
LINE
8
0
10
2.44691441
20
69.3563534
11
2.4
21
69
0
LINE
8
0
10
2.4
20
69
11
2.4
21
65.6099469
0
LINE
8
0
10
2.4
20
65.6099469
11
2.4
21
65.3216367
0
LINE
8
0
10
2.4
20
65.3216367
11
2.4
21
64.9971865
0
LINE
8
0
10
2.4
20
64.9971865
11
2.4
21
64.6663039
0
LINE
8
0
10
2.4
20
64.6663039
11
2.4
21
52.2415764
0
LINE
8
0
10
2.4
20
52.2415764
11
2.4
21
52.1555052
0
LINE
8
0
10
2.4
20
52.1555052
11
2.4
21
52.0493056
0
LINE
8
0
10
2.4
20
52.0493056
11
2.4
21
51.9364254
0
LINE
8
0
10
2.4
20
51.9364254
11
2.4
21
51.8302373
0
LINE
8
0
10
2.4
20
51.8302373
11
2.4
21
51.7409591
0
LINE
8
0
10
2.4
20
51.7409591
11
2.4
21
50.8880582
0
LINE
8
0
10
2.4
20
50.8880582
11
2.4
21
48.8479196
0
LINE
8
0
10
2.4
20
48.8479196
11
8.88040845
21
48.8479196
0
LINE
8
0
10
8.88040845
20
48.8479196
11
16
21
48.8479196
0
LINE
8
0
10
16
20
48.8479196
11
16
21
52.2438839
0
LINE
8
0
10
16
20
52.2438839
11
16
21
52.4705949
0
LINE
8
0
10
16
20
52.4705949
11
16
21
52.6626984
0
LINE
8
0
10
16
20
52.6626984
11
16
21
64.307697
0
LINE
8
0
10
16
20
64.307697
11
16
21
64.8444169
0
LINE
8
0
10
16
20
64.8444169
11
16
21
65.3954906
0
LINE
8
0
10
16
20
65.3954906
11
16
21
65.3954906
0
LINE
8
0
10
16
20
44.7213004
11
16
21
40.1876623
0
LINE
8
0
10
16
20
40.1876623
11
16
21
34.3289977
0
LINE
8
0
10
16
20
34.3289977
11
16
21
33.2594616
0
LINE
8
0
10
16
20
33.2594616
11
14.3204084
21
33.2594616
0
LINE
8
0
10
14.3204084
20
33.2594616
11
2.4
21
33.2594616
0
LINE
8
0
10
2.4
20
33.2594616
11
2.4
21
33.734811
0
LINE
8
0
10
2.4
20
33.734811
11
2.4
21
34.3289977
0
LINE
8
0
10
2.4
20
34.3289977
11
2.4
21
37.8441965
0
LINE
8
0
10
2.4
20
37.8441965
11
2.4
21
40.1876623
0
LINE
8
0
10
2.4
20
40.1876623
11
2.4
21
42.2484068
0
LINE
8
0
10
2.4
20
42.2484068
11
2.4
21
44.7213004
0
LINE
8
0
10
2.4
20
44.7213004
11
9.51959155
21
44.7213004
0
LINE
8
0
10
9.51959155
20
44.7213004
11
16
21
44.7213004
0
LINE
8
0
10
16
20
44.7213004
11
16
21
44.7213004
0
ENDSEC
0
EOF
