0
SECTION
2
ENTITIES
0
LINE
8
0
10
16
20
-6.28195008
11
16
21
5.48417446
0
LINE
8
0
10
16
20
5.48417446
11
16
21
7.72505538
0
LINE
8
0
10
16
20
7.72505538
11
16
21
9.40852832
0
LINE
8
0
10
16
20
9.40852832
11
10.9902499
21
9.40852832
0
LINE
8
0
10
10.9902499
20
9.40852832
11
2.4
21
9.40852832
0
LINE
8
0
10
2.4
20
9.40852832
11
2.4
21
7.97297321
0
LINE
8
0
10
2.4
20
7.97297321
11
2.4
21
7.5680727
0
LINE
8
0
10
2.4
20
7.5680727
11
2.4
21
7.54745149
0
LINE
8
0
10
2.4
20
7.54745149
11
2.4
21
0.733682188
0
LINE
8
0
10
2.4
20
0.733682188
11
2.4
21
0.323142723
0
LINE
8
0
10
2.4
20
0.323142723
11
2.4
21
-0.0554645807
0
LINE
8
0
10
2.4
20
-0.0554645807
11
2.4
21
-0.368055277
0
LINE
8
0
10
2.4
20
-0.368055277
11
2.4
21
-6.10774945
0
LINE
8
0
10
2.4
20
-6.10774945
11
2.4
21
-6.5740111
0
LINE
8
0
10
2.4
20
-6.5740111
11
2.4
21
-6.72513037
0
LINE
8
0
10
2.4
20
-6.72513037
11
2.4
21
-13.9737656
0
LINE
8
0
10
2.4
20
-13.9737656
11
2.4
21
-14
0
LINE
8
0
10
2.4
20
-14
11
2.40574022
21
-14.0942917
0
LINE
8
0
10
2.40574022
20
-14.0942917
11
2.4406579
21
-14.3088302
0
LINE
8
0
10
2.4406579
20
-14.3088302
11
2.468148
21
-14.51764
0
LINE
8
0
10
2.468148
20
-14.51764
11
2.50675436
21
-14.6108436
0
LINE
8
0
10
2.50675436
20
-14.6108436
11
2.667949
21
-15
0
LINE
8
0
10
2.667949
20
-15
11
2.72936276
21
-15.0800353
0
LINE
8
0
10
2.72936276
20
-15.0800353
11
2.985786
21
-15.41421
0
LINE
8
0
10
2.985786
20
-15.41421
11
3.32061819
21
-15.6710148
0
LINE
8
0
10
3.32061819
20
-15.6710148
11
3.40096751
21
-15.7326108
0
LINE
8
0
10
3.40096751
20
-15.7326108
11
3.78947127
21
-15.8934255
0
LINE
8
0
10
3.78947127
20
-15.8934255
11
3.882362
21
-15.93185
0
LINE
8
0
10
3.882362
20
-15.93185
11
3.93848875
21
-15.9392394
0
LINE
8
0
10
3.93848875
20
-15.9392394
11
4.17780419
21
-15.9781784
0
LINE
8
0
10
4.17780419
20
-15.9781784
11
4.4
21
-16
0
LINE
8
0
10
4.4
20
-16
11
9.8978405
21
-16
0
LINE
8
0
10
9.8978405
20
-16
11
14
21
-16
0
LINE
8
0
10
14
20
-16
11
14.1928789
21
-15.9836717
0
LINE
8
0
10
14.1928789
20
-15.9836717
11
14.4896871
21
-15.9378691
0
LINE
8
0
10
14.4896871
20
-15.9378691
11
14.5412323
21
-15.9244929
0
LINE
8
0
10
14.5412323
20
-15.9244929
11
14.9476211
21
-15.7563305
0
LINE
8
0
10
14.9476211
20
-15.7563305
11
14.9985754
21
-15.7328324
0
LINE
8
0
10
14.9985754
20
-15.7328324
11
15.0488676
21
-15.6972944
0
LINE
8
0
10
15.0488676
20
-15.6972944
11
15.3952157
21
-15.4317224
0
LINE
8
0
10
15.3952157
20
-15.4317224
11
15.4397272
21
-15.3856507
0
LINE
8
0
10
15.4397272
20
-15.3856507
11
15.7030326
21
-15.0425104
0
LINE
8
0
10
15.7030326
20
-15.0425104
11
15.7419299
21
-14.9815918
0
LINE
8
0
10
15.7419299
20
-14.9815918
11
15.9064293
21
-14.5844549
0
LINE
8
0
10
15.9064293
20
-14.5844549
11
15.9340275
21
-14.5087615
0
LINE
8
0
10
15.9340275
20
-14.5087615
11
15.9416655
21
-14.4663159
0
LINE
8
0
10
15.9416655
20
-14.4663159
11
15.9661226
21
-14.3384325
0
LINE
8
0
10
15.9661226
20
-14.3384325
11
15.99081
21
-14.150917
0
LINE
8
0
10
15.99081
20
-14.150917
11
16
21
-14
0
LINE
8
0
10
16
20
-14
11
16
21
-10.4506297
0
LINE
8
0
10
16
20
-10.4506297
11
16
21
-9.94514231
0
LINE
8
0
10
16
20
-9.94514231
11
16
21
-9.32933673
0
LINE
8
0
10
16
20
-9.32933673
11
16
21
-9.26346088
0
LINE
8
0
10
16
20
-9.26346088
11
16
21
-8.56523797
0
LINE
8
0
10
16
20
-8.56523797
11
16
21
-8.50020206
0
LINE
8
0
10
16
20
-8.50020206
11
16
21
-8.43149782
0
LINE
8
0
10
16
20
-8.43149782
11
16
21
-7.69218051
0
LINE
8
0
10
16
20
-7.69218051
11
16
21
-6.9555704
0
LINE
8
0
10
16
20
-6.9555704
11
16
21
-6.28195008
0
LINE
8
0
10
16
20
-6.28195008
11
16
21
-6.28195008
0
LINE
8
0
10
16
20
18.0687821
11
16
21
24.4490303
0
LINE
8
0
10
16
20
24.4490303
11
16
21
24.9969821
0
LINE
8
0
10
16
20
24.9969821
11
16
21
25.2709581
0
LINE
8
0
10
16
20
25.2709581
11
2.83024994
21
25.2709581
0
LINE
8
0
10
2.83024994
20
25.2709581
11
2.4
21
25.2709581
0
LINE
8
0
10
2.4
20
25.2709581
11
2.4
21
25.1215166
0
LINE
8
0
10
2.4
20
25.1215166
11
2.4
21
24.9969821
0
LINE
8
0
10
2.4
20
24.9969821
11
2.4
21
20.9496524
0
LINE
8
0
10
2.4
20
20.9496524
11
2.4
21
18.0687821
0
LINE
8
0
10
2.4
20
18.0687821
11
2.4
21
16.6187265
0
LINE
8
0
10
2.4
20
16.6187265
11
2.4
21
14.8786561
0
LINE
8
0
10
2.4
20
14.8786561
11
7.40975006
21
14.8786561
0
LINE
8
0
10
7.40975006
20
14.8786561
11
16
21
14.8786561
0
LINE
8
0
10
16
20
14.8786561
11
16
21
18.0687821
0
LINE
8
0
10
16
20
18.0687821
11
16
21
18.0687821
0
LINE
8
0
10
16
20
69
11
16
21
66.0759728
0
LINE
8
0
10
16
20
66.0759728
11
16
21
65.5883584
0
LINE
8
0
10
16
20
65.5883584
11
16
21
65.0667712
0
LINE
8
0
10
16
20
65.0667712
11
16
21
64.5587698
0
LINE
8
0
10
16
20
64.5587698
11
16
21
52.3910636
0
LINE
8
0
10
16
20
52.3910636
11
16
21
52.2326703
0
LINE
8
0
10
16
20
52.2326703
11
16
21
52.0457424
0
LINE
8
0
10
16
20
52.0457424
11
16
21
49.2456999
0
LINE
8
0
10
16
20
49.2456999
11
10.1297501
21
49.2456999
0
LINE
8
0
10
10.1297501
20
49.2456999
11
2.4
21
49.2456999
0
LINE
8
0
10
2.4
20
49.2456999
11
2.4
21
50.9278362
0
LINE
8
0
10
2.4
20
50.9278362
11
2.4
21
51.6310706
0
LINE
8
0
10
2.4
20
51.6310706
11
2.4
21
51.7046822
0
LINE
8
0
10
2.4
20
51.7046822
11
2.4
21
51.7922365
0
LINE
8
0
10
2.4
20
51.7922365
11
2.4
21
51.8853086
0
LINE
8
0
10
2.4
20
51.8853086
11
2.4
21
51.9728723
0
LINE
8
0
10
2.4
20
51.9728723
11
2.4
21
52.0438398
0
LINE
8
0
10
2.4
20
52.0438398
11
2.4
21
64.8490299
0
LINE
8
0
10
2.4
20
64.8490299
11
2.4
21
65.1659611
0
LINE
8
0
10
2.4
20
65.1659611
11
2.4
21
65.4767312
0
LINE
8
0
10
2.4
20
65.4767312
11
2.4
21
65.7528851
0
LINE
8
0
10
2.4
20
65.7528851
11
2.4
21
69
0
LINE
8
0
10
2.4
20
69
11
2.44493631
21
69.3413282
0
LINE
8
0
10
2.44493631
20
69.3413282
11
2.468148
21
69.51764
0
LINE
8
0
10
2.468148
20
69.51764
11
2.59989537
21
69.8357048
0
LINE
8
0
10
2.59989537
20
69.8357048
11
2.667949
21
70
0
LINE
8
0
10
2.667949
20
70
11
2.87752847
21
70.2731271
0
LINE
8
0
10
2.87752847
20
70.2731271
11
2.985786
21
70.41421
0
LINE
8
0
10
2.985786
20
70.41421
11
3.25891578
21
70.6237914
0
LINE
8
0
10
3.25891578
20
70.6237914
11
3.4
21
70.73205
0
LINE
8
0
10
3.4
20
70.73205
11
3.71806609
21
70.8637967
0
LINE
8
0
10
3.71806609
20
70.8637967
11
3.882362
21
70.93185
0
LINE
8
0
10
3.882362
20
70.93185
11
4.05867316
21
70.9550624
0
LINE
8
0
10
4.05867316
20
70.9550624
11
4.4
21
71
0
LINE
8
0
10
4.4
20
71
11
10.1646104
21
71
0
LINE
8
0
10
10.1646104
20
71
11
13.3296965
21
71
0
LINE
8
0
10
13.3296965
20
71
11
14
21
71
0
LINE
8
0
10
14
20
71
11
14.2867036
21
70.962254
0
LINE
8
0
10
14.2867036
20
70.962254
11
14.51764
21
70.93185
0
LINE
8
0
10
14.51764
20
70.93185
11
14.7848032
21
70.8211874
0
LINE
8
0
10
14.7848032
20
70.8211874
11
15
21
70.73205
0
LINE
8
0
10
15
20
70.73205
11
15.2294172
21
70.556009
0
LINE
8
0
10
15.2294172
20
70.556009
11
15.41421
21
70.41421
0
LINE
8
0
10
15.41421
20
70.41421
11
15.590251
21
70.1847928
0
LINE
8
0
10
15.590251
20
70.1847928
11
15.73205
21
70
0
LINE
8
0
10
15.73205
20
70
11
15.8427126
21
69.7328368
0
LINE
8
0
10
15.8427126
20
69.7328368
11
15.93185
21
69.51764
0
LINE
8
0
10
15.93185
20
69.51764
11
15.962254
21
69.2867036
0
LINE
8
0
10
15.962254
20
69.2867036
11
16
21
69
0
LINE
8
0
10
16
20
69
11
16
21
69
0
LINE
8
0
10
16
20
33.6572419
11
16
21
33.9312179
0
LINE
8
0
10
16
20
33.9312179
11
16
21
40.5854421
0
LINE
8
0
10
16
20
40.5854421
11
16
21
44.3235201
0
LINE
8
0
10
16
20
44.3235201
11
8.27024994
21
44.3235201
0
LINE
8
0
10
8.27024994
20
44.3235201
11
2.4
21
44.3235201
0
LINE
8
0
10
2.4
20
44.3235201
11
2.4
21
42.2845684
0
LINE
8
0
10
2.4
20
42.2845684
11
2.4
21
40.5854421
0
LINE
8
0
10
2.4
20
40.5854421
11
2.4
21
37.9237524
0
LINE
8
0
10
2.4
20
37.9237524
11
2.4
21
33.9312179
0
LINE
8
0
10
2.4
20
33.9312179
11
2.4
21
33.779009
0
LINE
8
0
10
2.4
20
33.779009
11
2.4
21
33.6572419
0
LINE
8
0
10
2.4
20
33.6572419
11
15.5697501
21
33.6572419
0
LINE
8
0
10
15.5697501
20
33.6572419
11
16
21
33.6572419
0
LINE
8
0
10
16
20
33.6572419
11
16
21
33.6572419
0
ENDSEC
0
EOF
