0
SECTION
2
ENTITIES
0
LINE
8
0
10
16
20
-9.68181381
11
16
21
-9.75521396
0
LINE
8
0
10
16
20
-9.75521396
11
16
21
-10.3148696
0
LINE
8
0
10
16
20
-10.3148696
11
16
21
-10.7742659
0
LINE
8
0
10
16
20
-10.7742659
11
16
21
-14
0
LINE
8
0
10
16
20
-14
11
15.9903379
21
-14.1586709
0
LINE
8
0
10
15.9903379
20
-14.1586709
11
15.9678835
21
-14.3292251
0
LINE
8
0
10
15.9678835
20
-14.3292251
11
15.9456386
21
-14.4455411
0
LINE
8
0
10
15.9456386
20
-14.4455411
11
15.934909
21
-14.5051677
0
LINE
8
0
10
15.934909
20
-14.5051677
11
15.8961396
21
-14.6115001
0
LINE
8
0
10
15.8961396
20
-14.6115001
11
15.7459291
21
-14.9741405
0
LINE
8
0
10
15.7459291
20
-14.9741405
11
15.691287
21
-15.0597176
0
LINE
8
0
10
15.691287
20
-15.0597176
11
15.450056
21
-15.3740906
0
LINE
8
0
10
15.450056
20
-15.3740906
11
15.3875273
21
-15.4388111
0
LINE
8
0
10
15.3875273
20
-15.4388111
11
15.0691459
21
-15.6829387
0
LINE
8
0
10
15.0691459
20
-15.6829387
11
14.9984967
21
-15.7328617
0
LINE
8
0
10
14.9984967
20
-15.7328617
11
14.9269172
21
-15.7658713
0
LINE
8
0
10
14.9269172
20
-15.7658713
11
14.5507819
21
-15.9215149
0
LINE
8
0
10
14.5507819
20
-15.9215149
11
14.4783724
21
-15.9403055
0
LINE
8
0
10
14.4783724
20
-15.9403055
11
14.2027887
21
-15.9828328
0
LINE
8
0
10
14.2027887
20
-15.9828328
11
14
21
-16
0
LINE
8
0
10
14
20
-16
11
10.1803112
21
-16
0
LINE
8
0
10
10.1803112
20
-16
11
4.4
21
-16
0
LINE
8
0
10
4.4
20
-16
11
4.18637783
21
-15.9790204
0
LINE
8
0
10
4.18637783
20
-15.9790204
11
3.95629661
21
-15.9415839
0
LINE
8
0
10
3.95629661
20
-15.9415839
11
3.882362
21
-15.93185
0
LINE
8
0
10
3.882362
20
-15.93185
11
3.75999897
21
-15.8812342
0
LINE
8
0
10
3.75999897
20
-15.8812342
11
3.40101717
21
-15.7326396
0
LINE
8
0
10
3.40101717
20
-15.7326396
11
3.29517466
21
-15.6515005
0
LINE
8
0
10
3.29517466
20
-15.6515005
11
2.985786
21
-15.41421
0
LINE
8
0
10
2.985786
20
-15.41421
11
2.74884807
21
-15.1054289
0
LINE
8
0
10
2.74884807
20
-15.1054289
11
2.667949
21
-15
0
LINE
8
0
10
2.667949
20
-15
11
2.51900336
21
-14.6404151
0
LINE
8
0
10
2.51900336
20
-14.6404151
11
2.468148
21
-14.51764
0
LINE
8
0
10
2.468148
20
-14.51764
11
2.44274685
21
-14.3246974
0
LINE
8
0
10
2.44274685
20
-14.3246974
11
2.40603515
21
-14.0991363
0
LINE
8
0
10
2.40603515
20
-14.0991363
11
2.4
21
-14
0
LINE
8
0
10
2.4
20
-14
11
2.4
21
-13.9746558
0
LINE
8
0
10
2.4
20
-13.9746558
11
2.4
21
-6.97197522
0
LINE
8
0
10
2.4
20
-6.97197522
11
2.4
21
-6.80843488
0
LINE
8
0
10
2.4
20
-6.80843488
11
2.4
21
-6.35795477
0
LINE
8
0
10
2.4
20
-6.35795477
11
2.4
21
-0.122999454
0
LINE
8
0
10
2.4
20
-0.122999454
11
2.4
21
0.172054337
0
LINE
8
0
10
2.4
20
0.172054337
11
2.4
21
0.529421084
0
LINE
8
0
10
2.4
20
0.529421084
11
2.4
21
0.916928541
0
LINE
8
0
10
2.4
20
0.916928541
11
2.4
21
7.34843303
0
LINE
8
0
10
2.4
20
7.34843303
11
2.4
21
7.38448191
0
LINE
8
0
10
2.4
20
7.38448191
11
2.4
21
8.09230715
0
LINE
8
0
10
2.4
20
8.09230715
11
2.4
21
10.6018672
0
LINE
8
0
10
2.4
20
10.6018672
11
7.24222509
21
10.6018672
0
LINE
8
0
10
7.24222509
20
10.6018672
11
16
21
10.6018672
0
LINE
8
0
10
16
20
10.6018672
11
16
21
7.65891058
0
LINE
8
0
10
16
20
7.65891058
11
16
21
3.74152339
0
LINE
8
0
10
16
20
3.74152339
11
16
21
-6.9445305
0
LINE
8
0
10
16
20
-6.9445305
11
16
21
-7.55631589
0
LINE
8
0
10
16
20
-7.55631589
11
16
21
-8.22530892
0
LINE
8
0
10
16
20
-8.22530892
11
16
21
-8.89676065
0
LINE
8
0
10
16
20
-8.89676065
11
16
21
-8.9741939
0
LINE
8
0
10
16
20
-8.9741939
11
16
21
-9.04749275
0
LINE
8
0
10
16
20
-9.04749275
11
16
21
-9.68181381
0
LINE
8
0
10
16
20
-9.68181381
11
16
21
-9.68181381
0
LINE
8
0
10
16
20
39.0759874
11
16
21
34.8505815
0
LINE
8
0
10
16
20
34.8505815
11
16
21
32.7378773
0
LINE
8
0
10
16
20
32.7378773
11
5.71777491
21
32.7378773
0
LINE
8
0
10
5.71777491
20
32.7378773
11
2.4
21
32.7378773
0
LINE
8
0
10
2.4
20
32.7378773
11
2.4
21
33.8902614
0
LINE
8
0
10
2.4
20
33.8902614
11
2.4
21
34.8505815
0
LINE
8
0
10
2.4
20
34.8505815
11
2.4
21
38.1624203
0
LINE
8
0
10
2.4
20
38.1624203
11
2.4
21
41.7787815
0
LINE
8
0
10
2.4
20
41.7787815
11
2.4
21
42.3930532
0
LINE
8
0
10
2.4
20
42.3930532
11
2.4
21
43.1301793
0
LINE
8
0
10
2.4
20
43.1301793
11
4.52222509
21
43.1301793
0
LINE
8
0
10
4.52222509
20
43.1301793
11
16
21
43.1301793
0
LINE
8
0
10
16
20
43.1301793
11
16
21
41.7787815
0
LINE
8
0
10
16
20
41.7787815
11
16
21
39.0759874
0
LINE
8
0
10
16
20
39.0759874
11
16
21
39.0759874
0
LINE
8
0
10
16
20
69
11
16
21
66.5718785
0
LINE
8
0
10
16
20
66.5718785
11
16
21
66.1669619
0
LINE
8
0
10
16
20
66.1669619
11
16
21
65.7338343
0
LINE
8
0
10
16
20
65.7338343
11
16
21
65.3119883
0
LINE
8
0
10
16
20
65.3119883
11
16
21
51.5761592
0
LINE
8
0
10
16
20
51.5761592
11
16
21
51.5188965
0
LINE
8
0
10
16
20
51.5188965
11
16
21
51.4513179
0
LINE
8
0
10
16
20
51.4513179
11
16
21
50.4390407
0
LINE
8
0
10
16
20
50.4390407
11
13.8777749
21
50.4390407
0
LINE
8
0
10
13.8777749
20
50.4390407
11
2.4
21
50.4390407
0
LINE
8
0
10
2.4
20
50.4390407
11
2.4
21
51.0471701
0
LINE
8
0
10
2.4
20
51.0471701
11
2.4
21
51.3014049
0
LINE
8
0
10
2.4
20
51.3014049
11
2.4
21
51.3280172
0
LINE
8
0
10
2.4
20
51.3280172
11
2.4
21
51.35967
0
LINE
8
0
10
2.4
20
51.35967
11
2.4
21
51.3933176
0
LINE
8
0
10
2.4
20
51.3933176
11
2.4
21
51.4249738
0
LINE
8
0
10
2.4
20
51.4249738
11
2.4
21
51.4506301
0
LINE
8
0
10
2.4
20
51.4506301
11
2.4
21
65.3972077
0
LINE
8
0
10
2.4
20
65.3972077
11
2.4
21
65.672285
0
LINE
8
0
10
2.4
20
65.672285
11
2.4
21
65.9420147
0
LINE
8
0
10
2.4
20
65.9420147
11
2.4
21
66.1816996
0
LINE
8
0
10
2.4
20
66.1816996
11
2.4
21
69
0
LINE
8
0
10
2.4
20
69
11
2.43900201
21
69.2962523
0
LINE
8
0
10
2.43900201
20
69.2962523
11
2.468148
21
69.51764
0
LINE
8
0
10
2.468148
20
69.51764
11
2.58249679
21
69.7937011
0
LINE
8
0
10
2.58249679
20
69.7937011
11
2.667949
21
70
0
LINE
8
0
10
2.667949
20
70
11
2.84985137
21
70.2370579
0
LINE
8
0
10
2.84985137
20
70.2370579
11
2.985786
21
70.41421
0
LINE
8
0
10
2.985786
20
70.41421
11
3.22284621
21
70.5961141
0
LINE
8
0
10
3.22284621
20
70.5961141
11
3.4
21
70.73205
0
LINE
8
0
10
3.4
20
70.73205
11
3.67606223
21
70.8463982
0
LINE
8
0
10
3.67606223
20
70.8463982
11
3.882362
21
70.93185
0
LINE
8
0
10
3.882362
20
70.93185
11
4.10374885
21
70.9609968
0
LINE
8
0
10
4.10374885
20
70.9609968
11
4.4
21
71
0
LINE
8
0
10
4.4
20
71
11
10.5390525
21
71
0
LINE
8
0
10
10.5390525
20
71
11
13.2861567
21
71
0
LINE
8
0
10
13.2861567
20
71
11
14
21
71
0
LINE
8
0
10
14
20
71
11
14.2380796
21
70.9686556
0
LINE
8
0
10
14.2380796
20
70.9686556
11
14.51764
21
70.93185
0
LINE
8
0
10
14.51764
20
70.93185
11
14.7394932
21
70.8399554
0
LINE
8
0
10
14.7394932
20
70.8399554
11
15
21
70.73205
0
LINE
8
0
10
15
20
70.73205
11
15.1905087
21
70.585865
0
LINE
8
0
10
15.1905087
20
70.585865
11
15.41421
21
70.41421
0
LINE
8
0
10
15.41421
20
70.41421
11
15.560395
21
70.2237013
0
LINE
8
0
10
15.560395
20
70.2237013
11
15.73205
21
70
0
LINE
8
0
10
15.73205
20
70
11
15.8239446
21
69.7781468
0
LINE
8
0
10
15.8239446
20
69.7781468
11
15.93185
21
69.51764
0
LINE
8
0
10
15.93185
20
69.51764
11
15.9686556
21
69.2380796
0
LINE
8
0
10
15.9686556
20
69.2380796
11
16
21
69
0
LINE
8
0
10
16
20
69
11
16
21
69
0
LINE
8
0
10
16
20
19.2621215
11
16
21
24.0776185
0
LINE
8
0
10
16
20
24.0776185
11
16
21
26.1903227
0
LINE
8
0
10
16
20
26.1903227
11
12.6822251
21
26.1903227
0
LINE
8
0
10
12.6822251
20
26.1903227
11
2.4
21
26.1903227
0
LINE
8
0
10
2.4
20
26.1903227
11
2.4
21
25.2513431
0
LINE
8
0
10
2.4
20
25.2513431
11
2.4
21
24.0776185
0
LINE
8
0
10
2.4
20
24.0776185
11
2.4
21
21.1883203
0
LINE
8
0
10
2.4
20
21.1883203
11
2.4
21
19.2621215
0
LINE
8
0
10
2.4
20
19.2621215
11
2.4
21
16.7272125
0
LINE
8
0
10
2.4
20
16.7272125
11
2.4
21
13.6853153
0
LINE
8
0
10
2.4
20
13.6853153
11
11.1577749
21
13.6853153
0
LINE
8
0
10
11.1577749
20
13.6853153
11
16
21
13.6853153
0
LINE
8
0
10
16
20
13.6853153
11
16
21
19.2621215
0
LINE
8
0
10
16
20
19.2621215
11
16
21
19.2621215
0
ENDSEC
0
EOF
