0
SECTION
2
ENTITIES
0
LINE
8
0
10
16
20
-7.16539065
11
16
21
-7.75656439
0
LINE
8
0
10
16
20
-7.75656439
11
16
21
-8.4030184
0
LINE
8
0
10
16
20
-8.4030184
11
16
21
-9.05184826
0
LINE
8
0
10
16
20
-9.05184826
11
16
21
-9.13219118
0
LINE
8
0
10
16
20
-9.13219118
11
16
21
-9.20824435
0
LINE
8
0
10
16
20
-9.20824435
11
16
21
-9.82126479
0
LINE
8
0
10
16
20
-9.82126479
11
16
21
-9.89717304
0
LINE
8
0
10
16
20
-9.89717304
11
16
21
-10.438112
0
LINE
8
0
10
16
20
-10.438112
11
16
21
-10.8821447
0
LINE
8
0
10
16
20
-10.8821447
11
16
21
-14
0
LINE
8
0
10
16
20
-14
11
15.9901805
21
-14.1612555
0
LINE
8
0
10
15.9901805
20
-14.1612555
11
15.9684705
21
-14.3261559
0
LINE
8
0
10
15.9684705
20
-14.3261559
11
15.946963
21
-14.4386161
0
LINE
8
0
10
15.946963
20
-14.4386161
11
15.9352028
21
-14.5039697
0
LINE
8
0
10
15.9352028
20
-14.5039697
11
15.8927097
21
-14.6205151
0
LINE
8
0
10
15.8927097
20
-14.6205151
11
15.7472621
21
-14.9716568
0
LINE
8
0
10
15.7472621
20
-14.9716568
11
15.6873718
21
-15.0654533
0
LINE
8
0
10
15.6873718
20
-15.0654533
11
15.4534989
21
-15.3702372
0
LINE
8
0
10
15.4534989
20
-15.3702372
11
15.3849645
21
-15.441174
0
LINE
8
0
10
15.3849645
20
-15.441174
11
15.0759054
21
-15.6781535
0
LINE
8
0
10
15.0759054
20
-15.6781535
11
14.9984704
21
-15.7328714
0
LINE
8
0
10
14.9984704
20
-15.7328714
11
14.9200159
21
-15.7690516
0
LINE
8
0
10
14.9200159
20
-15.7690516
11
14.5539651
21
-15.9205222
0
LINE
8
0
10
14.5539651
20
-15.9205222
11
14.4746009
21
-15.9411176
0
LINE
8
0
10
14.4746009
20
-15.9411176
11
14.206092
21
-15.9825531
0
LINE
8
0
10
14.206092
20
-15.9825531
11
14
21
-16
0
LINE
8
0
10
14
20
-16
11
10.2744681
21
-16
0
LINE
8
0
10
10.2744681
20
-16
11
4.4
21
-16
0
LINE
8
0
10
4.4
20
-16
11
4.18923571
21
-15.979301
0
LINE
8
0
10
4.18923571
20
-15.979301
11
3.96223256
21
-15.9423654
0
LINE
8
0
10
3.96223256
20
-15.9423654
11
3.882362
21
-15.93185
0
LINE
8
0
10
3.882362
20
-15.93185
11
3.75017487
21
-15.8771704
0
LINE
8
0
10
3.75017487
20
-15.8771704
11
3.40103372
21
-15.7326492
0
LINE
8
0
10
3.40103372
20
-15.7326492
11
3.28669349
21
-15.6449958
0
LINE
8
0
10
3.28669349
20
-15.6449958
11
2.985786
21
-15.41421
0
LINE
8
0
10
2.985786
20
-15.41421
11
2.75534317
21
-15.1138934
0
LINE
8
0
10
2.75534317
20
-15.1138934
11
2.667949
21
-15
0
LINE
8
0
10
2.667949
20
-15
11
2.52308636
21
-14.6502723
0
LINE
8
0
10
2.52308636
20
-14.6502723
11
2.468148
21
-14.51764
0
LINE
8
0
10
2.468148
20
-14.51764
11
2.44344316
21
-14.3299865
0
LINE
8
0
10
2.44344316
20
-14.3299865
11
2.40613345
21
-14.1007511
0
LINE
8
0
10
2.40613345
20
-14.1007511
11
2.4
21
-14
0
LINE
8
0
10
2.4
20
-14
11
2.4
21
-13.9749525
0
LINE
8
0
10
2.4
20
-13.9749525
11
2.4
21
-7.05425683
0
LINE
8
0
10
2.4
20
-7.05425683
11
2.4
21
-6.88657614
0
LINE
8
0
10
2.4
20
-6.88657614
11
2.4
21
-6.44135654
0
LINE
8
0
10
2.4
20
-6.44135654
11
2.4
21
-0.0413141802
0
LINE
8
0
10
2.4
20
-0.0413141802
11
2.4
21
0.247893976
0
LINE
8
0
10
2.4
20
0.247893976
11
2.4
21
0.598180538
0
LINE
8
0
10
2.4
20
0.598180538
11
2.4
21
0.978010658
0
LINE
8
0
10
2.4
20
0.978010658
11
2.4
21
7.28209354
0
LINE
8
0
10
2.4
20
7.28209354
11
2.4
21
7.32328498
0
LINE
8
0
10
2.4
20
7.32328498
11
2.4
21
8.13208513
0
LINE
8
0
10
2.4
20
8.13208513
11
2.4
21
10.9996468
0
LINE
8
0
10
2.4
20
10.9996468
11
5.99288348
21
10.9996468
0
LINE
8
0
10
5.99288348
20
10.9996468
11
16
21
10.9996468
0
LINE
8
0
10
16
20
10.9996468
11
16
21
7.63686231
0
LINE
8
0
10
16
20
7.63686231
11
16
21
3.1606397
0
LINE
8
0
10
16
20
3.1606397
11
16
21
-7.16539065
0
LINE
8
0
10
16
20
-7.16539065
11
16
21
-7.16539065
0
LINE
8
0
10
16
20
69
11
16
21
66.7371804
0
LINE
8
0
10
16
20
66.7371804
11
16
21
66.3598298
0
LINE
8
0
10
16
20
66.3598298
11
16
21
65.9561886
0
LINE
8
0
10
16
20
65.9561886
11
16
21
65.5630611
0
LINE
8
0
10
16
20
65.5630611
11
16
21
51.3045244
0
LINE
8
0
10
16
20
51.3045244
11
16
21
51.2809719
0
LINE
8
0
10
16
20
51.2809719
11
16
21
51.2531765
0
LINE
8
0
10
16
20
51.2531765
11
16
21
50.836821
0
LINE
8
0
10
16
20
50.836821
11
15.1271165
21
50.836821
0
LINE
8
0
10
15.1271165
20
50.836821
11
2.4
21
50.836821
0
LINE
8
0
10
2.4
20
50.836821
11
2.4
21
51.0869481
0
LINE
8
0
10
2.4
20
51.0869481
11
2.4
21
51.1915164
0
LINE
8
0
10
2.4
20
51.1915164
11
2.4
21
51.2024621
0
LINE
8
0
10
2.4
20
51.2024621
11
2.4
21
51.2154811
0
LINE
8
0
10
2.4
20
51.2154811
11
2.4
21
51.2293206
0
LINE
8
0
10
2.4
20
51.2293206
11
2.4
21
51.242341
0
LINE
8
0
10
2.4
20
51.242341
11
2.4
21
51.2528935
0
LINE
8
0
10
2.4
20
51.2528935
11
2.4
21
65.5799337
0
LINE
8
0
10
2.4
20
65.5799337
11
2.4
21
65.8410596
0
LINE
8
0
10
2.4
20
65.8410596
11
2.4
21
66.0971092
0
LINE
8
0
10
2.4
20
66.0971092
11
2.4
21
66.3246378
0
LINE
8
0
10
2.4
20
66.3246378
11
2.4
21
69
0
LINE
8
0
10
2.4
20
69
11
2.43702391
21
69.281227
0
LINE
8
0
10
2.43702391
20
69.281227
11
2.468148
21
69.51764
0
LINE
8
0
10
2.468148
20
69.51764
11
2.57669726
21
69.7796999
0
LINE
8
0
10
2.57669726
20
69.7796999
11
2.667949
21
70
0
LINE
8
0
10
2.667949
20
70
11
2.84062567
21
70.2250349
0
LINE
8
0
10
2.84062567
20
70.2250349
11
2.985786
21
70.41421
0
LINE
8
0
10
2.985786
20
70.41421
11
3.21082302
21
70.5868883
0
LINE
8
0
10
3.21082302
20
70.5868883
11
3.4
21
70.73205
0
LINE
8
0
10
3.4
20
70.73205
11
3.66206094
21
70.8405987
0
LINE
8
0
10
3.66206094
20
70.8405987
11
3.882362
21
70.93185
0
LINE
8
0
10
3.882362
20
70.93185
11
4.11877408
21
70.962975
0
LINE
8
0
10
4.11877408
20
70.962975
11
4.4
21
71
0
LINE
8
0
10
4.4
20
71
11
10.6638665
21
71
0
LINE
8
0
10
10.6638665
20
71
11
13.2716434
21
71
0
LINE
8
0
10
13.2716434
20
71
11
14
21
71
0
LINE
8
0
10
14
20
71
11
14.2218716
21
70.9707895
0
LINE
8
0
10
14.2218716
20
70.9707895
11
14.51764
21
70.93185
0
LINE
8
0
10
14.51764
20
70.93185
11
14.7243898
21
70.8462114
0
LINE
8
0
10
14.7243898
20
70.8462114
11
15
21
70.73205
0
LINE
8
0
10
15
20
70.73205
11
15.1775393
21
70.595817
0
LINE
8
0
10
15.1775393
20
70.595817
11
15.41421
21
70.41421
0
LINE
8
0
10
15.41421
20
70.41421
11
15.550443
21
70.2366707
0
LINE
8
0
10
15.550443
20
70.2366707
11
15.73205
21
70
0
LINE
8
0
10
15.73205
20
70
11
15.8176886
21
69.7932502
0
LINE
8
0
10
15.8176886
20
69.7932502
11
15.93185
21
69.51764
0
LINE
8
0
10
15.93185
20
69.51764
11
15.9707895
21
69.2218716
0
LINE
8
0
10
15.9707895
20
69.2218716
11
16
21
69
0
LINE
8
0
10
16
20
69
11
16
21
69
0
LINE
8
0
10
16
20
42.1765613
11
16
21
42.732399
0
LINE
8
0
10
16
20
42.732399
11
3.27288348
21
42.732399
0
LINE
8
0
10
3.27288348
20
42.732399
11
2.4
21
42.732399
0
LINE
8
0
10
2.4
20
42.732399
11
2.4
21
42.4292148
0
LINE
8
0
10
2.4
20
42.4292148
11
2.4
21
42.1765613
0
LINE
8
0
10
2.4
20
42.1765613
11
2.4
21
38.2419763
0
LINE
8
0
10
2.4
20
38.2419763
11
2.4
21
35.2483613
0
LINE
8
0
10
2.4
20
35.2483613
11
2.4
21
33.926423
0
LINE
8
0
10
2.4
20
33.926423
11
2.4
21
32.340097
0
LINE
8
0
10
2.4
20
32.340097
11
6.96711652
21
32.340097
0
LINE
8
0
10
6.96711652
20
32.340097
11
16
21
32.340097
0
LINE
8
0
10
16
20
32.340097
11
16
21
35.2483613
0
LINE
8
0
10
16
20
35.2483613
11
16
21
41.0648864
0
LINE
8
0
10
16
20
41.0648864
11
16
21
42.1765613
0
LINE
8
0
10
16
20
42.1765613
11
16
21
42.1765613
0
LINE
8
0
10
16
20
13.287535
11
16
21
19.6599013
0
LINE
8
0
10
16
20
19.6599013
11
16
21
23.6798387
0
LINE
8
0
10
16
20
23.6798387
11
16
21
26.588103
0
LINE
8
0
10
16
20
26.588103
11
11.4328835
21
26.588103
0
LINE
8
0
10
11.4328835
20
26.588103
11
2.4
21
26.588103
0
LINE
8
0
10
2.4
20
26.588103
11
2.4
21
25.2955411
0
LINE
8
0
10
2.4
20
25.2955411
11
2.4
21
23.6798387
0
LINE
8
0
10
2.4
20
23.6798387
11
2.4
21
21.2678763
0
LINE
8
0
10
2.4
20
21.2678763
11
2.4
21
19.6599013
0
LINE
8
0
10
2.4
20
19.6599013
11
2.4
21
16.7633745
0
LINE
8
0
10
2.4
20
16.7633745
11
2.4
21
13.287535
0
LINE
8
0
10
2.4
20
13.287535
11
12.4071165
21
13.287535
0
LINE
8
0
10
12.4071165
20
13.287535
11
16
21
13.287535
0
LINE
8
0
10
16
20
13.287535
11
16
21
13.287535
0
ENDSEC
0
EOF
