0
SECTION
2
ENTITIES
0
LINE
8
0
10
16
20
-10.1810912
11
16
21
-10.6845968
0
LINE
8
0
10
16
20
-10.6845968
11
16
21
-11.0979022
0
LINE
8
0
10
16
20
-11.0979022
11
16
21
-14
0
LINE
8
0
10
16
20
-14
11
15.9898657
21
-14.1664247
0
LINE
8
0
10
15.9898657
20
-14.1664247
11
15.9696444
21
-14.3200176
0
LINE
8
0
10
15.9696444
20
-14.3200176
11
15.9496117
21
-14.4247663
0
LINE
8
0
10
15.9496117
20
-14.4247663
11
15.9357904
21
-14.5015738
0
LINE
8
0
10
15.9357904
20
-14.5015738
11
15.8858499
21
-14.6385452
0
LINE
8
0
10
15.8858499
20
-14.6385452
11
15.7499283
21
-14.9666893
0
LINE
8
0
10
15.7499283
20
-14.9666893
11
15.6795414
21
-15.0769248
0
LINE
8
0
10
15.6795414
20
-15.0769248
11
15.4603848
21
-15.3625304
0
LINE
8
0
10
15.4603848
20
-15.3625304
11
15.3798388
21
-15.4458997
0
LINE
8
0
10
15.3798388
20
-15.4458997
11
15.0894243
21
-15.668583
0
LINE
8
0
10
15.0894243
20
-15.668583
11
14.9984179
21
-15.7328909
0
LINE
8
0
10
14.9984179
20
-15.7328909
11
14.9062132
21
-15.7754121
0
LINE
8
0
10
14.9062132
20
-15.7754121
11
14.5603315
21
-15.9185368
0
LINE
8
0
10
14.5603315
20
-15.9185368
11
14.4670577
21
-15.9427418
0
LINE
8
0
10
14.4670577
20
-15.9427418
11
14.2126985
21
-15.9819938
0
LINE
8
0
10
14.2126985
20
-15.9819938
11
14
21
-16
0
LINE
8
0
10
14
20
-16
11
10.4627819
21
-16
0
LINE
8
0
10
10.4627819
20
-16
11
4.4
21
-16
0
LINE
8
0
10
4.4
20
-16
11
4.19495147
21
-15.9798624
0
LINE
8
0
10
4.19495147
20
-15.9798624
11
3.97410446
21
-15.9439284
0
LINE
8
0
10
3.97410446
20
-15.9439284
11
3.882362
21
-15.93185
0
LINE
8
0
10
3.882362
20
-15.93185
11
3.73052666
21
-15.8690428
0
LINE
8
0
10
3.73052666
20
-15.8690428
11
3.40106683
21
-15.7326684
0
LINE
8
0
10
3.40106683
20
-15.7326684
11
3.26973114
21
-15.6319862
0
LINE
8
0
10
3.26973114
20
-15.6319862
11
2.985786
21
-15.41421
0
LINE
8
0
10
2.985786
20
-15.41421
11
2.76833338
21
-15.1308224
0
LINE
8
0
10
2.76833338
20
-15.1308224
11
2.667949
21
-15
0
LINE
8
0
10
2.667949
20
-15
11
2.53125236
21
-14.6699867
0
LINE
8
0
10
2.53125236
20
-14.6699867
11
2.468148
21
-14.51764
0
LINE
8
0
10
2.468148
20
-14.51764
11
2.44483579
21
-14.3405646
0
LINE
8
0
10
2.44483579
20
-14.3405646
11
2.40633007
21
-14.1039808
0
LINE
8
0
10
2.40633007
20
-14.1039808
11
2.4
21
-14
0
LINE
8
0
10
2.4
20
-14
11
2.4
21
-13.9755459
0
LINE
8
0
10
2.4
20
-13.9755459
11
2.4
21
-7.21882007
0
LINE
8
0
10
2.4
20
-7.21882007
11
2.4
21
-7.04285865
0
LINE
8
0
10
2.4
20
-7.04285865
11
2.4
21
-6.60816009
0
LINE
8
0
10
2.4
20
-6.60816009
11
2.4
21
0.122056368
0
LINE
8
0
10
2.4
20
0.122056368
11
2.4
21
0.399573255
0
LINE
8
0
10
2.4
20
0.399573255
11
2.4
21
0.735699446
0
LINE
8
0
10
2.4
20
0.735699446
11
2.4
21
1.10017489
0
LINE
8
0
10
2.4
20
1.10017489
11
2.4
21
7.14941456
0
LINE
8
0
10
2.4
20
7.14941456
11
2.4
21
7.20089112
0
LINE
8
0
10
2.4
20
7.20089112
11
2.4
21
8.21164109
0
LINE
8
0
10
2.4
20
8.21164109
11
2.4
21
11.7952061
0
LINE
8
0
10
2.4
20
11.7952061
11
3.49420025
21
11.7952061
0
LINE
8
0
10
3.49420025
20
11.7952061
11
16
21
11.7952061
0
LINE
8
0
10
16
20
11.7952061
11
16
21
7.59276578
0
LINE
8
0
10
16
20
7.59276578
11
16
21
1.99887232
0
LINE
8
0
10
16
20
1.99887232
11
16
21
-7.60711093
0
LINE
8
0
10
16
20
-7.60711093
11
16
21
-8.15706138
0
LINE
8
0
10
16
20
-8.15706138
11
16
21
-8.75843734
0
LINE
8
0
10
16
20
-8.75843734
11
16
21
-9.36202348
0
LINE
8
0
10
16
20
-9.36202348
11
16
21
-9.44818574
0
LINE
8
0
10
16
20
-9.44818574
11
16
21
-9.52974754
0
LINE
8
0
10
16
20
-9.52974754
11
16
21
-10.1001667
0
LINE
8
0
10
16
20
-10.1001667
11
16
21
-10.1810912
0
LINE
8
0
10
16
20
-10.1810912
11
16
21
-10.1810912
0
LINE
8
0
10
16
20
31.5445365
11
16
21
36.0439209
0
LINE
8
0
10
16
20
36.0439209
11
16
21
41.9368391
0
LINE
8
0
10
16
20
41.9368391
11
16
21
42.9721215
0
LINE
8
0
10
16
20
42.9721215
11
14.3742002
21
42.9721215
0
LINE
8
0
10
14.3742002
20
42.9721215
11
2.4
21
42.9721215
0
LINE
8
0
10
2.4
20
42.9721215
11
2.4
21
42.511996
0
LINE
8
0
10
2.4
20
42.511996
11
2.4
21
41.9368391
0
LINE
8
0
10
2.4
20
41.9368391
11
2.4
21
38.4010882
0
LINE
8
0
10
2.4
20
38.4010882
11
2.4
21
36.0439209
0
LINE
8
0
10
2.4
20
36.0439209
11
2.4
21
33.9987462
0
LINE
8
0
10
2.4
20
33.9987462
11
2.4
21
31.5445365
0
LINE
8
0
10
2.4
20
31.5445365
11
9.46579975
21
31.5445365
0
LINE
8
0
10
9.46579975
20
31.5445365
11
16
21
31.5445365
0
LINE
8
0
10
16
20
31.5445365
11
16
21
31.5445365
0
LINE
8
0
10
16
20
69
11
16
21
67.0677841
0
LINE
8
0
10
16
20
67.0677841
11
16
21
66.7455654
0
LINE
8
0
10
16
20
66.7455654
11
16
21
66.4008973
0
LINE
8
0
10
16
20
66.4008973
11
16
21
66.0652067
0
LINE
8
0
10
16
20
66.0652067
11
16
21
52.9064209
0
LINE
8
0
10
16
20
52.9064209
11
16
21
51.0112116
0
LINE
8
0
10
16
20
51.0112116
11
16
21
50.5970985
0
LINE
8
0
10
16
20
50.5970985
11
4.02579975
21
50.5970985
0
LINE
8
0
10
4.02579975
20
50.5970985
11
2.4
21
50.5970985
0
LINE
8
0
10
2.4
20
50.5970985
11
2.4
21
51.0112116
0
LINE
8
0
10
2.4
20
51.0112116
11
2.4
21
51.1665041
0
LINE
8
0
10
2.4
20
51.1665041
11
2.4
21
52.406461
0
LINE
8
0
10
2.4
20
52.406461
11
2.4
21
65.9453856
0
LINE
8
0
10
2.4
20
65.9453856
11
2.4
21
66.1786089
0
LINE
8
0
10
2.4
20
66.1786089
11
2.4
21
66.4072982
0
LINE
8
0
10
2.4
20
66.4072982
11
2.4
21
66.6105142
0
LINE
8
0
10
2.4
20
66.6105142
11
2.4
21
69
0
LINE
8
0
10
2.4
20
69
11
2.43306771
21
69.2511764
0
LINE
8
0
10
2.43306771
20
69.2511764
11
2.468148
21
69.51764
0
LINE
8
0
10
2.468148
20
69.51764
11
2.5650982
21
69.7516974
0
LINE
8
0
10
2.5650982
20
69.7516974
11
2.667949
21
70
0
LINE
8
0
10
2.667949
20
70
11
2.82217426
21
70.2009887
0
LINE
8
0
10
2.82217426
20
70.2009887
11
2.985786
21
70.41421
0
LINE
8
0
10
2.985786
20
70.41421
11
3.18677664
21
70.5684367
0
LINE
8
0
10
3.18677664
20
70.5684367
11
3.4
21
70.73205
0
LINE
8
0
10
3.4
20
70.73205
11
3.63405836
21
70.8289997
0
LINE
8
0
10
3.63405836
20
70.8289997
11
3.882362
21
70.93185
0
LINE
8
0
10
3.882362
20
70.93185
11
4.14882453
21
70.9669313
0
LINE
8
0
10
4.14882453
20
70.9669313
11
4.4
21
71
0
LINE
8
0
10
4.4
20
71
11
10.9134945
21
71
0
LINE
8
0
10
10.9134945
20
71
11
13.2426169
21
71
0
LINE
8
0
10
13.2426169
20
71
11
14
21
71
0
LINE
8
0
10
14
20
71
11
14.1894556
21
70.9750572
0
LINE
8
0
10
14.1894556
20
70.9750572
11
14.51764
21
70.93185
0
LINE
8
0
10
14.51764
20
70.93185
11
14.6941831
21
70.8587235
0
LINE
8
0
10
14.6941831
20
70.8587235
11
15
21
70.73205
0
LINE
8
0
10
15
20
70.73205
11
15.1516003
21
70.615721
0
LINE
8
0
10
15.1516003
20
70.615721
11
15.41421
21
70.41421
0
LINE
8
0
10
15.41421
20
70.41421
11
15.530539
21
70.2626097
0
LINE
8
0
10
15.530539
20
70.2626097
11
15.73205
21
70
0
LINE
8
0
10
15.73205
20
70
11
15.8051765
21
69.8234569
0
LINE
8
0
10
15.8051765
20
69.8234569
11
15.93185
21
69.51764
0
LINE
8
0
10
15.93185
20
69.51764
11
15.9750572
21
69.1894556
0
LINE
8
0
10
15.9750572
20
69.1894556
11
16
21
69
0
LINE
8
0
10
16
20
69
11
16
21
69
0
LINE
8
0
10
16
20
22.8842791
11
16
21
20.4554609
0
LINE
8
0
10
16
20
20.4554609
11
16
21
12.4919745
0
LINE
8
0
10
16
20
12.4919745
11
14.9057998
21
12.4919745
0
LINE
8
0
10
14.9057998
20
12.4919745
11
2.4
21
12.4919745
0
LINE
8
0
10
2.4
20
12.4919745
11
2.4
21
16.8356985
0
LINE
8
0
10
2.4
20
16.8356985
11
2.4
21
20.4554609
0
LINE
8
0
10
2.4
20
20.4554609
11
2.4
21
21.4269882
0
LINE
8
0
10
2.4
20
21.4269882
11
2.4
21
22.8842791
0
LINE
8
0
10
2.4
20
22.8842791
11
2.4
21
25.3839371
0
LINE
8
0
10
2.4
20
25.3839371
11
2.4
21
27.3836635
0
LINE
8
0
10
2.4
20
27.3836635
11
8.93420025
21
27.3836635
0
LINE
8
0
10
8.93420025
20
27.3836635
11
16
21
27.3836635
0
LINE
8
0
10
16
20
27.3836635
11
16
21
22.8842791
0
LINE
8
0
10
16
20
22.8842791
11
16
21
22.8842791
0
ENDSEC
0
EOF
