0
SECTION
2
ENTITIES
0
LINE
8
0
10
16
20
36.4417007
11
16
21
41.5390593
0
LINE
8
0
10
16
20
41.5390593
11
16
21
43.3699018
0
LINE
8
0
10
16
20
43.3699018
11
13.1248586
21
43.3699018
0
LINE
8
0
10
13.1248586
20
43.3699018
11
2.4
21
43.3699018
0
LINE
8
0
10
2.4
20
43.3699018
11
2.4
21
42.556194
0
LINE
8
0
10
2.4
20
42.556194
11
2.4
21
41.5390593
0
LINE
8
0
10
2.4
20
41.5390593
11
2.4
21
38.4806441
0
LINE
8
0
10
2.4
20
38.4806441
11
2.4
21
36.4417007
0
LINE
8
0
10
2.4
20
36.4417007
11
2.4
21
34.0349078
0
LINE
8
0
10
2.4
20
34.0349078
11
2.4
21
31.1467562
0
LINE
8
0
10
2.4
20
31.1467562
11
10.7151414
21
31.1467562
0
LINE
8
0
10
10.7151414
20
31.1467562
11
16
21
31.1467562
0
LINE
8
0
10
16
20
31.1467562
11
16
21
36.4417007
0
LINE
8
0
10
16
20
36.4417007
11
16
21
36.4417007
0
LINE
8
0
10
16
20
50.1993182
11
16
21
50.9316555
0
LINE
8
0
10
16
20
50.9316555
11
16
21
54.2832334
0
LINE
8
0
10
16
20
54.2832334
11
16
21
66.3162795
0
LINE
8
0
10
16
20
66.3162795
11
16
21
66.6232516
0
LINE
8
0
10
16
20
66.6232516
11
16
21
66.9384333
0
LINE
8
0
10
16
20
66.9384333
11
16
21
67.233086
0
LINE
8
0
10
16
20
67.233086
11
16
21
69
0
LINE
8
0
10
16
20
69
11
15.9771911
21
69.1732476
0
LINE
8
0
10
15.9771911
20
69.1732476
11
15.93185
21
69.51764
0
LINE
8
0
10
15.93185
20
69.51764
11
15.7989205
21
69.8385602
0
LINE
8
0
10
15.7989205
20
69.8385602
11
15.73205
21
70
0
LINE
8
0
10
15.73205
20
70
11
15.520587
21
70.2755791
0
LINE
8
0
10
15.520587
20
70.2755791
11
15.41421
21
70.41421
0
LINE
8
0
10
15.41421
20
70.41421
11
15.1386309
21
70.625673
0
LINE
8
0
10
15.1386309
20
70.625673
11
15
21
70.73205
0
LINE
8
0
10
15
20
70.73205
11
14.6790798
21
70.8649795
0
LINE
8
0
10
14.6790798
20
70.8649795
11
14.51764
21
70.93185
0
LINE
8
0
10
14.51764
20
70.93185
11
14.1732476
21
70.9771911
0
LINE
8
0
10
14.1732476
20
70.9771911
11
14
21
71
0
LINE
8
0
10
14
20
71
11
13.2281037
21
71
0
LINE
8
0
10
13.2281037
20
71
11
11.0383086
21
71
0
LINE
8
0
10
11.0383086
20
71
11
4.4
21
71
0
LINE
8
0
10
4.4
20
71
11
4.16384976
21
70.9689095
0
LINE
8
0
10
4.16384976
20
70.9689095
11
3.882362
21
70.93185
0
LINE
8
0
10
3.882362
20
70.93185
11
3.62005707
21
70.8232002
0
LINE
8
0
10
3.62005707
20
70.8232002
11
3.4
21
70.73205
0
LINE
8
0
10
3.4
20
70.73205
11
3.17475345
21
70.5592109
0
LINE
8
0
10
3.17475345
20
70.5592109
11
2.985786
21
70.41421
0
LINE
8
0
10
2.985786
20
70.41421
11
2.81294856
21
70.1889656
0
LINE
8
0
10
2.81294856
20
70.1889656
11
2.667949
21
70
0
LINE
8
0
10
2.667949
20
70
11
2.55929868
21
69.7376962
0
LINE
8
0
10
2.55929868
20
69.7376962
11
2.468148
21
69.51764
0
LINE
8
0
10
2.468148
20
69.51764
11
2.43108962
21
69.2361512
0
LINE
8
0
10
2.43108962
20
69.2361512
11
2.4
21
69
0
LINE
8
0
10
2.4
20
69
11
2.4
21
66.7534524
0
LINE
8
0
10
2.4
20
66.7534524
11
2.4
21
66.5623927
0
LINE
8
0
10
2.4
20
66.5623927
11
2.4
21
66.3473835
0
LINE
8
0
10
2.4
20
66.3473835
11
2.4
21
66.1281116
0
LINE
8
0
10
2.4
20
66.1281116
11
2.4
21
53.3990807
0
LINE
8
0
10
2.4
20
53.3990807
11
2.4
21
51.2062821
0
LINE
8
0
10
2.4
20
51.2062821
11
2.4
21
50.9316555
0
LINE
8
0
10
2.4
20
50.9316555
11
2.4
21
50.1993182
0
LINE
8
0
10
2.4
20
50.1993182
11
5.27514137
21
50.1993182
0
LINE
8
0
10
5.27514137
20
50.1993182
11
16
21
50.1993182
0
LINE
8
0
10
16
20
50.1993182
11
16
21
50.1993182
0
LINE
8
0
10
16
20
27.7814438
11
16
21
22.4864993
0
LINE
8
0
10
16
20
22.4864993
11
16
21
20.8532407
0
LINE
8
0
10
16
20
20.8532407
11
16
21
12.686943
0
LINE
8
0
10
16
20
12.686943
11
16
21
12.1929858
0
LINE
8
0
10
16
20
12.1929858
11
16
21
12.1534691
0
LINE
8
0
10
16
20
12.1534691
11
16
21
12.1188603
0
LINE
8
0
10
16
20
12.1188603
11
16
21
7.57071751
0
LINE
8
0
10
16
20
7.57071751
11
16
21
1.41798863
0
LINE
8
0
10
16
20
1.41798863
11
16
21
-7.82797107
0
LINE
8
0
10
16
20
-7.82797107
11
16
21
-8.35730988
0
LINE
8
0
10
16
20
-8.35730988
11
16
21
-8.93614681
0
LINE
8
0
10
16
20
-8.93614681
11
16
21
-9.51711109
0
LINE
8
0
10
16
20
-9.51711109
11
16
21
-9.60618302
0
LINE
8
0
10
16
20
-9.60618302
11
16
21
-9.69049913
0
LINE
8
0
10
16
20
-9.69049913
11
16
21
-10.2396177
0
LINE
8
0
10
16
20
-10.2396177
11
16
21
-10.3230503
0
LINE
8
0
10
16
20
-10.3230503
11
16
21
-10.8078393
0
LINE
8
0
10
16
20
-10.8078393
11
16
21
-11.2057809
0
LINE
8
0
10
16
20
-11.2057809
11
16
21
-14
0
LINE
8
0
10
16
20
-14
11
15.9897083
21
-14.1690094
0
LINE
8
0
10
15.9897083
20
-14.1690094
11
15.9702314
21
-14.3169485
0
LINE
8
0
10
15.9702314
20
-14.3169485
11
15.9509361
21
-14.4178413
0
LINE
8
0
10
15.9509361
20
-14.4178413
11
15.9360842
21
-14.5003759
0
LINE
8
0
10
15.9360842
20
-14.5003759
11
15.88242
21
-14.6475603
0
LINE
8
0
10
15.88242
20
-14.6475603
11
15.7512613
21
-14.9642055
0
LINE
8
0
10
15.7512613
20
-14.9642055
11
15.6756262
21
-15.0826606
0
LINE
8
0
10
15.6756262
20
-15.0826606
11
15.4638277
21
-15.358677
0
LINE
8
0
10
15.4638277
20
-15.358677
11
15.377276
21
-15.4482626
0
LINE
8
0
10
15.377276
20
-15.4482626
11
15.0961837
21
-15.6637978
0
LINE
8
0
10
15.0961837
20
-15.6637978
11
14.9983916
21
-15.7329007
0
LINE
8
0
10
14.9983916
20
-15.7329007
11
14.8993119
21
-15.7785924
0
LINE
8
0
10
14.8993119
20
-15.7785924
11
14.5635147
21
-15.9175442
0
LINE
8
0
10
14.5635147
20
-15.9175442
11
14.4632862
21
-15.943554
0
LINE
8
0
10
14.4632862
20
-15.943554
11
14.2160018
21
-15.9817142
0
LINE
8
0
10
14.2160018
20
-15.9817142
11
14
21
-16
0
LINE
8
0
10
14
20
-16
11
10.5569388
21
-16
0
LINE
8
0
10
10.5569388
20
-16
11
4.4
21
-16
0
LINE
8
0
10
4.4
20
-16
11
4.19780935
21
-15.980143
0
LINE
8
0
10
4.19780935
20
-15.980143
11
3.98004042
21
-15.9447099
0
LINE
8
0
10
3.98004042
20
-15.9447099
11
3.882362
21
-15.93185
0
LINE
8
0
10
3.882362
20
-15.93185
11
3.72070256
21
-15.8649791
0
LINE
8
0
10
3.72070256
20
-15.8649791
11
3.40108338
21
-15.732678
0
LINE
8
0
10
3.40108338
20
-15.732678
11
3.26124997
21
-15.6254815
0
LINE
8
0
10
3.26124997
20
-15.6254815
11
2.985786
21
-15.41421
0
LINE
8
0
10
2.985786
20
-15.41421
11
2.77482849
21
-15.139287
0
LINE
8
0
10
2.77482849
20
-15.139287
11
2.667949
21
-15
0
LINE
8
0
10
2.667949
20
-15
11
2.53533536
21
-14.6798439
0
LINE
8
0
10
2.53533536
20
-14.6798439
11
2.468148
21
-14.51764
0
LINE
8
0
10
2.468148
20
-14.51764
11
2.4455321
21
-14.3458537
0
LINE
8
0
10
2.4455321
20
-14.3458537
11
2.40642838
21
-14.1055957
0
LINE
8
0
10
2.40642838
20
-14.1055957
11
2.4
21
-14
0
LINE
8
0
10
2.4
20
-14
11
2.4
21
-13.9758427
0
LINE
8
0
10
2.4
20
-13.9758427
11
2.4
21
-7.30110168
0
LINE
8
0
10
2.4
20
-7.30110168
11
2.4
21
-7.12099991
0
LINE
8
0
10
2.4
20
-7.12099991
11
2.4
21
-6.69156187
0
LINE
8
0
10
2.4
20
-6.69156187
11
2.4
21
0.203741643
0
LINE
8
0
10
2.4
20
0.203741643
11
2.4
21
0.475412894
0
LINE
8
0
10
2.4
20
0.475412894
11
2.4
21
0.804458899
0
LINE
8
0
10
2.4
20
0.804458899
11
2.4
21
1.16125701
0
LINE
8
0
10
2.4
20
1.16125701
11
2.4
21
7.08307508
0
LINE
8
0
10
2.4
20
7.08307508
11
2.4
21
7.1396942
0
LINE
8
0
10
2.4
20
7.1396942
11
2.4
21
8.25141907
0
LINE
8
0
10
2.4
20
8.25141907
11
2.4
21
12.1337109
0
LINE
8
0
10
2.4
20
12.1337109
11
2.4
21
12.1534691
0
LINE
8
0
10
2.4
20
12.1534691
11
2.4
21
12.1929858
0
LINE
8
0
10
2.4
20
12.1929858
11
2.4
21
16.8718605
0
LINE
8
0
10
2.4
20
16.8718605
11
2.4
21
20.8532407
0
LINE
8
0
10
2.4
20
20.8532407
11
2.4
21
21.5065441
0
LINE
8
0
10
2.4
20
21.5065441
11
2.4
21
22.4864993
0
LINE
8
0
10
2.4
20
22.4864993
11
2.4
21
25.4281351
0
LINE
8
0
10
2.4
20
25.4281351
11
2.4
21
27.7814438
0
LINE
8
0
10
2.4
20
27.7814438
11
7.68485863
21
27.7814438
0
LINE
8
0
10
7.68485863
20
27.7814438
11
16
21
27.7814438
0
LINE
8
0
10
16
20
27.7814438
11
16
21
27.7814438
0
ENDSEC
0
EOF
