0
SECTION
2
ENTITIES
0
LINE
8
0
10
16
20
4.15495677
11
16
21
18.752986
0
LINE
8
0
10
16
20
18.752986
11
16
21
33.9747939
0
LINE
8
0
10
16
20
33.9747939
11
16
21
49.9361039
0
LINE
8
0
10
16
20
49.9361039
11
16
21
53.3336706
0
LINE
8
0
10
16
20
53.3336706
11
16
21
54.4697687
0
LINE
8
0
10
16
20
54.4697687
11
16
21
55.9984335
0
LINE
8
0
10
16
20
55.9984335
11
16
21
56.0902677
0
LINE
8
0
10
16
20
56.0902677
11
16
21
56.189722
0
LINE
8
0
10
16
20
56.189722
11
16
21
57.5953354
0
LINE
8
0
10
16
20
57.5953354
11
16
21
59.0373984
0
LINE
8
0
10
16
20
59.0373984
11
16
21
60.6007499
0
LINE
8
0
10
16
20
60.6007499
11
16
21
60.6674962
0
LINE
8
0
10
16
20
60.6674962
11
15.9369201
21
61.8781976
0
LINE
8
0
10
15.9369201
20
61.8781976
11
15.93185
21
61.9550054
0
LINE
8
0
10
15.93185
20
61.9550054
11
15.8149041
21
62.5377597
0
LINE
8
0
10
15.8149041
20
62.5377597
11
15.73205
21
62.9506347
0
LINE
8
0
10
15.73205
20
62.9506347
11
15.654842
21
63.1583223
0
LINE
8
0
10
15.654842
20
63.1583223
11
15.4827133
21
63.6213242
0
LINE
8
0
10
15.4827133
20
63.6213242
11
15.4332896
21
63.7324532
0
LINE
8
0
10
15.4332896
20
63.7324532
11
15.41421
21
63.7753554
0
LINE
8
0
10
15.41421
20
63.7753554
11
15.1185417
21
64.1668065
0
LINE
8
0
10
15.1185417
20
64.1668065
11
15
21
64.3237445
0
LINE
8
0
10
15
20
64.3237445
11
14.7379424
21
64.5110343
0
LINE
8
0
10
14.7379424
20
64.5110343
11
14.51764
21
64.6684823
0
LINE
8
0
10
14.51764
20
64.6684823
11
14.2881917
21
64.720601
0
LINE
8
0
10
14.2881917
20
64.720601
11
14
21
64.7860635
0
LINE
8
0
10
14
20
64.7860635
11
10.03727
21
64.7860635
0
LINE
8
0
10
10.03727
20
64.7860635
11
4.4
21
64.7860635
0
LINE
8
0
10
4.4
20
64.7860635
11
4.17286304
21
64.7344696
0
LINE
8
0
10
4.17286304
20
64.7344696
11
3.882362
21
64.6684823
0
LINE
8
0
10
3.882362
20
64.6684823
11
3.60789822
21
64.4723267
0
LINE
8
0
10
3.60789822
20
64.4723267
11
3.4
21
64.3237445
0
LINE
8
0
10
3.4
20
64.3237445
11
3.03136945
21
63.8357035
0
LINE
8
0
10
3.03136945
20
63.8357035
11
2.985786
21
63.7753554
0
LINE
8
0
10
2.985786
20
63.7753554
11
2.91728338
21
63.6213242
0
LINE
8
0
10
2.91728338
20
63.6213242
11
2.667949
21
62.9506347
0
LINE
8
0
10
2.667949
20
62.9506347
11
2.49871806
21
62.1073396
0
LINE
8
0
10
2.49871806
20
62.1073396
11
2.468148
21
61.9550054
0
LINE
8
0
10
2.468148
20
61.9550054
11
2.46307803
21
61.8781976
0
LINE
8
0
10
2.46307803
20
61.8781976
11
2.4
21
60.6674962
0
LINE
8
0
10
2.4
20
60.6674962
11
2.4
21
60.6050019
0
LINE
8
0
10
2.4
20
60.6050019
11
2.4
21
59.0920621
0
LINE
8
0
10
2.4
20
59.0920621
11
2.4
21
59.0617734
0
LINE
8
0
10
2.4
20
59.0617734
11
2.4
21
57.6016095
0
LINE
8
0
10
2.4
20
57.6016095
11
2.4
21
57.5555004
0
LINE
8
0
10
2.4
20
57.5555004
11
2.4
21
56.1107311
0
LINE
8
0
10
2.4
20
56.1107311
11
2.4
21
56.0618119
0
LINE
8
0
10
2.4
20
56.0618119
11
2.4
21
56.0211616
0
LINE
8
0
10
2.4
20
56.0211616
11
2.4
21
55.9919383
0
LINE
8
0
10
2.4
20
55.9919383
11
2.4
21
55.6076611
0
LINE
8
0
10
2.4
20
55.6076611
11
2.4
21
55.2177694
0
LINE
8
0
10
2.4
20
55.2177694
11
2.4
21
54.4697687
0
LINE
8
0
10
2.4
20
54.4697687
11
2.4
21
53.3336706
0
LINE
8
0
10
2.4
20
53.3336706
11
2.4
21
49.9361039
0
LINE
8
0
10
2.4
20
49.9361039
11
2.4
21
33.9747939
0
LINE
8
0
10
2.4
20
33.9747939
11
2.4
21
18.752986
0
LINE
8
0
10
2.4
20
18.752986
11
2.4
21
4.15495677
0
LINE
8
0
10
2.4
20
4.15495677
11
2.4
21
1.71904283
0
LINE
8
0
10
2.4
20
1.71904283
11
2.4
21
0.347985184
0
LINE
8
0
10
2.4
20
0.347985184
11
2.4
21
-0.264292797
0
LINE
8
0
10
2.4
20
-0.264292797
11
2.4
21
-0.758154816
0
LINE
8
0
10
2.4
20
-0.758154816
11
2.4
21
-1.18290541
0
LINE
8
0
10
2.4
20
-1.18290541
11
2.4
21
-1.22023076
0
LINE
8
0
10
2.4
20
-1.22023076
11
2.4
21
-1.26680717
0
LINE
8
0
10
2.4
20
-1.26680717
11
2.4
21
-1.31805423
0
LINE
8
0
10
2.4
20
-1.31805423
11
2.4
21
-2.79429857
0
LINE
8
0
10
2.4
20
-2.79429857
11
2.4
21
-2.84020219
0
LINE
8
0
10
2.4
20
-2.84020219
11
2.4
21
-4.34735462
0
LINE
8
0
10
2.4
20
-4.34735462
11
2.4
21
-5.93712403
0
LINE
8
0
10
2.4
20
-5.93712403
11
2.4005672
21
-5.95175971
0
LINE
8
0
10
2.4005672
20
-5.95175971
11
2.468148
21
-7.22219719
0
LINE
8
0
10
2.468148
20
-7.22219719
11
2.4723566
21
-7.24804175
0
LINE
8
0
10
2.4723566
20
-7.24804175
11
2.47852153
21
-7.28590034
0
LINE
8
0
10
2.47852153
20
-7.28590034
11
2.59995876
21
-7.87643588
0
LINE
8
0
10
2.59995876
20
-7.87643588
11
2.667949
21
-8.20706951
0
LINE
8
0
10
2.667949
20
-8.20706951
11
2.77376434
21
-8.48484603
0
LINE
8
0
10
2.77376434
20
-8.48484603
11
2.985786
21
-9.04141612
0
LINE
8
0
10
2.985786
20
-9.04141612
11
3.00158086
21
-9.06582836
0
LINE
8
0
10
3.00158086
20
-9.06582836
11
3.05141835
21
-9.14285705
0
LINE
8
0
10
3.05141835
20
-9.14285705
11
3.32565659
21
-9.49759391
0
LINE
8
0
10
3.32565659
20
-9.49759391
11
3.4
21
-9.59376422
0
LINE
8
0
10
3.4
20
-9.59376422
11
3.72114409
21
-9.81801057
0
LINE
8
0
10
3.72114409
20
-9.81801057
11
3.882362
21
-9.9305837
0
LINE
8
0
10
3.882362
20
-9.9305837
11
4.18392416
21
-9.99751561
0
LINE
8
0
10
4.18392416
20
-9.99751561
11
4.4
21
-10.0454711
0
LINE
8
0
10
4.4
20
-10.0454711
11
9.78707033
21
-10.0454711
0
LINE
8
0
10
9.78707033
20
-10.0454711
11
14
21
-10.0454711
0
LINE
8
0
10
14
20
-10.0454711
11
14.3076613
21
-9.97718597
0
LINE
8
0
10
14.3076613
20
-9.97718597
11
14.51764
21
-9.9305837
0
LINE
8
0
10
14.51764
20
-9.9305837
11
14.8728541
21
-9.68254646
0
LINE
8
0
10
14.8728541
20
-9.68254646
11
15
21
-9.59376422
0
LINE
8
0
10
15
20
-9.59376422
11
15.3485783
21
-9.14285705
0
LINE
8
0
10
15.3485783
20
-9.14285705
11
15.41421
21
-9.04141612
0
LINE
8
0
10
15.41421
20
-9.04141612
11
15.4439175
21
-8.96343192
0
LINE
8
0
10
15.4439175
20
-8.96343192
11
15.73205
21
-8.20706951
0
LINE
8
0
10
15.73205
20
-8.20706951
11
15.9214765
21
-7.28590034
0
LINE
8
0
10
15.9214765
20
-7.28590034
11
15.93185
21
-7.22219719
0
LINE
8
0
10
15.93185
20
-7.22219719
11
15.9994328
21
-5.95175971
0
LINE
8
0
10
15.9994328
20
-5.95175971
11
16
21
-5.93712403
0
LINE
8
0
10
16
20
-5.93712403
11
16
21
-4.26373467
0
LINE
8
0
10
16
20
-4.26373467
11
16
21
-2.75528371
0
LINE
8
0
10
16
20
-2.75528371
11
16
21
-1.32256723
0
LINE
8
0
10
16
20
-1.32256723
11
16
21
-1.21145568
0
LINE
8
0
10
16
20
-1.21145568
11
16
21
-1.11141114
0
LINE
8
0
10
16
20
-1.11141114
11
16
21
0.347985184
0
LINE
8
0
10
16
20
0.347985184
11
16
21
1.71904283
0
LINE
8
0
10
16
20
1.71904283
11
16
21
4.15495677
0
LINE
8
0
10
16
20
4.15495677
11
16
21
4.15495677
0
ENDSEC
0
EOF
