0
SECTION
2
ENTITIES
0
LINE
8
0
10
16
20
57.0368585
11
16
21
50.7725433
0
LINE
8
0
10
16
20
50.7725433
11
16
21
49.4037577
0
LINE
8
0
10
16
20
49.4037577
11
7.7738246
21
49.4037577
0
LINE
8
0
10
7.7738246
20
49.4037577
11
2.4
21
49.4037577
0
LINE
8
0
10
2.4
20
49.4037577
11
2.4
21
50.7725433
0
LINE
8
0
10
2.4
20
50.7725433
11
2.4
21
51.285838
0
LINE
8
0
10
2.4
20
51.285838
11
2.4
21
55.3843201
0
LINE
8
0
10
2.4
20
55.3843201
11
2.4
21
66.4935635
0
LINE
8
0
10
2.4
20
66.4935635
11
2.4
21
66.6849327
0
LINE
8
0
10
2.4
20
66.6849327
11
2.4
21
66.8725818
0
LINE
8
0
10
2.4
20
66.8725818
11
2.4
21
67.0393288
0
LINE
8
0
10
2.4
20
67.0393288
11
2.4
21
69
0
LINE
8
0
10
2.4
20
69
11
2.42713342
21
69.2061006
0
LINE
8
0
10
2.42713342
20
69.2061006
11
2.468148
21
69.51764
0
LINE
8
0
10
2.468148
20
69.51764
11
2.54769962
21
69.7096937
0
LINE
8
0
10
2.54769962
20
69.7096937
11
2.667949
21
70
0
LINE
8
0
10
2.667949
20
70
11
2.79449716
21
70.1649195
0
LINE
8
0
10
2.79449716
20
70.1649195
11
2.985786
21
70.41421
0
LINE
8
0
10
2.985786
20
70.41421
11
3.15070708
21
70.5407594
0
LINE
8
0
10
3.15070708
20
70.5407594
11
3.4
21
70.73205
0
LINE
8
0
10
3.4
20
70.73205
11
3.59205449
21
70.8116012
0
LINE
8
0
10
3.59205449
20
70.8116012
11
3.882362
21
70.93185
0
LINE
8
0
10
3.882362
20
70.93185
11
4.19390022
21
70.9728658
0
LINE
8
0
10
4.19390022
20
70.9728658
11
4.4
21
71
0
LINE
8
0
10
4.4
20
71
11
11.2879366
21
71
0
LINE
8
0
10
11.2879366
20
71
11
13.1990771
21
71
0
LINE
8
0
10
13.1990771
20
71
11
14
21
71
0
LINE
8
0
10
14
20
71
11
14.1408316
21
70.9814588
0
LINE
8
0
10
14.1408316
20
70.9814588
11
14.51764
21
70.93185
0
LINE
8
0
10
14.51764
20
70.93185
11
14.6488731
21
70.8774915
0
LINE
8
0
10
14.6488731
20
70.8774915
11
15
21
70.73205
0
LINE
8
0
10
15
20
70.73205
11
15.1126919
21
70.645577
0
LINE
8
0
10
15.1126919
20
70.645577
11
15.41421
21
70.41421
0
LINE
8
0
10
15.41421
20
70.41421
11
15.500683
21
70.3015181
0
LINE
8
0
10
15.500683
20
70.3015181
11
15.73205
21
70
0
LINE
8
0
10
15.73205
20
70
11
15.7864085
21
69.8687669
0
LINE
8
0
10
15.7864085
20
69.8687669
11
15.93185
21
69.51764
0
LINE
8
0
10
15.93185
20
69.51764
11
15.9814588
21
69.1408316
0
LINE
8
0
10
15.9814588
20
69.1408316
11
16
21
69
0
LINE
8
0
10
16
20
69
11
16
21
67.5636898
0
LINE
8
0
10
16
20
67.5636898
11
16
21
67.324169
0
LINE
8
0
10
16
20
67.324169
11
16
21
67.0679603
0
LINE
8
0
10
16
20
67.0679603
11
16
21
66.8184252
0
LINE
8
0
10
16
20
66.8184252
11
16
21
57.0368585
0
LINE
8
0
10
16
20
57.0368585
11
16
21
57.0368585
0
LINE
8
0
10
16
20
21.6909397
11
16
21
21.6488003
0
LINE
8
0
10
16
20
21.6488003
11
16
21
21.4381033
0
LINE
8
0
10
16
20
21.4381033
11
16
21
12.9885469
0
LINE
8
0
10
16
20
12.9885469
11
16
21
12.3125811
0
LINE
8
0
10
16
20
12.3125811
11
16
21
11.7205683
0
LINE
8
0
10
16
20
11.7205683
11
16
21
7.52662097
0
LINE
8
0
10
16
20
7.52662097
11
16
21
0.256221254
0
LINE
8
0
10
16
20
0.256221254
11
16
21
-8.26969136
0
LINE
8
0
10
16
20
-8.26969136
11
16
21
-8.75780687
0
LINE
8
0
10
16
20
-8.75780687
11
16
21
-9.29156575
0
LINE
8
0
10
16
20
-9.29156575
11
16
21
-9.82728631
0
LINE
8
0
10
16
20
-9.82728631
11
16
21
-9.92217758
0
LINE
8
0
10
16
20
-9.92217758
11
16
21
-10.0120023
0
LINE
8
0
10
16
20
-10.0120023
11
16
21
-10.5185197
0
LINE
8
0
10
16
20
-10.5185197
11
16
21
-10.6069684
0
LINE
8
0
10
16
20
-10.6069684
11
16
21
-11.0543241
0
LINE
8
0
10
16
20
-11.0543241
11
16
21
-11.4215384
0
LINE
8
0
10
16
20
-11.4215384
11
16
21
-14
0
LINE
8
0
10
16
20
-14
11
15.9893935
21
-14.1741786
0
LINE
8
0
10
15.9893935
20
-14.1741786
11
15.9714053
21
-14.3108102
0
LINE
8
0
10
15.9714053
20
-14.3108102
11
15.9535848
21
-14.4039914
0
LINE
8
0
10
15.9535848
20
-14.4039914
11
15.9366718
21
-14.49798
0
LINE
8
0
10
15.9366718
20
-14.49798
11
15.8755602
21
-14.6655904
0
LINE
8
0
10
15.8755602
20
-14.6655904
11
15.7539274
21
-14.959238
0
LINE
8
0
10
15.7539274
20
-14.959238
11
15.6677958
21
-15.094132
0
LINE
8
0
10
15.6677958
20
-15.094132
11
15.4707135
21
-15.3509703
0
LINE
8
0
10
15.4707135
20
-15.3509703
11
15.3721504
21
-15.4529884
0
LINE
8
0
10
15.3721504
20
-15.4529884
11
15.1097026
21
-15.6542274
0
LINE
8
0
10
15.1097026
20
-15.6542274
11
14.9983391
21
-15.7329202
0
LINE
8
0
10
14.9983391
20
-15.7329202
11
14.8855093
21
-15.7849529
0
LINE
8
0
10
14.8855093
20
-15.7849529
11
14.5698811
21
-15.9155588
0
LINE
8
0
10
14.5698811
20
-15.9155588
11
14.455743
21
-15.9451782
0
LINE
8
0
10
14.455743
20
-15.9451782
11
14.2226083
21
-15.9811549
0
LINE
8
0
10
14.2226083
20
-15.9811549
11
14
21
-16
0
LINE
8
0
10
14
20
-16
11
10.7452526
21
-16
0
LINE
8
0
10
10.7452526
20
-16
11
4.4
21
-16
0
LINE
8
0
10
4.4
20
-16
11
4.20352511
21
-15.9807044
0
LINE
8
0
10
4.20352511
20
-15.9807044
11
3.99191232
21
-15.9462729
0
LINE
8
0
10
3.99191232
20
-15.9462729
11
3.882362
21
-15.93185
0
LINE
8
0
10
3.882362
20
-15.93185
11
3.70105436
21
-15.8568515
0
LINE
8
0
10
3.70105436
20
-15.8568515
11
3.40111649
21
-15.7326973
0
LINE
8
0
10
3.40111649
20
-15.7326973
11
3.24428762
21
-15.6124719
0
LINE
8
0
10
3.24428762
20
-15.6124719
11
2.985786
21
-15.41421
0
LINE
8
0
10
2.985786
20
-15.41421
11
2.7878187
21
-15.156216
0
LINE
8
0
10
2.7878187
20
-15.156216
11
2.667949
21
-15
0
LINE
8
0
10
2.667949
20
-15
11
2.54350136
21
-14.6995582
0
LINE
8
0
10
2.54350136
20
-14.6995582
11
2.468148
21
-14.51764
0
LINE
8
0
10
2.468148
20
-14.51764
11
2.44692473
21
-14.3564318
0
LINE
8
0
10
2.44692473
20
-14.3564318
11
2.40662499
21
-14.1088254
0
LINE
8
0
10
2.40662499
20
-14.1088254
11
2.4
21
-14
0
LINE
8
0
10
2.4
20
-14
11
2.4
21
-13.9764361
0
LINE
8
0
10
2.4
20
-13.9764361
11
2.4
21
-7.46566491
0
LINE
8
0
10
2.4
20
-7.46566491
11
2.4
21
-7.27728243
0
LINE
8
0
10
2.4
20
-7.27728243
11
2.4
21
-6.85836541
0
LINE
8
0
10
2.4
20
-6.85836541
11
2.4
21
0.367112191
0
LINE
8
0
10
2.4
20
0.367112191
11
2.4
21
0.627092173
0
LINE
8
0
10
2.4
20
0.627092173
11
2.4
21
0.941977807
0
LINE
8
0
10
2.4
20
0.941977807
11
2.4
21
1.28342125
0
LINE
8
0
10
2.4
20
1.28342125
11
2.4
21
6.9503961
0
LINE
8
0
10
2.4
20
6.9503961
11
2.4
21
7.01730034
0
LINE
8
0
10
2.4
20
7.01730034
11
2.4
21
8.33097503
0
LINE
8
0
10
2.4
20
8.33097503
11
2.4
21
11.9745991
0
LINE
8
0
10
2.4
20
11.9745991
11
2.4
21
12.3125811
0
LINE
8
0
10
2.4
20
12.3125811
11
2.4
21
12.9885469
0
LINE
8
0
10
2.4
20
12.9885469
11
2.4
21
16.9441846
0
LINE
8
0
10
2.4
20
16.9441846
11
2.4
21
21.6488003
0
LINE
8
0
10
2.4
20
21.6488003
11
2.4
21
21.6656561
0
LINE
8
0
10
2.4
20
21.6656561
11
2.4
21
21.6909397
0
LINE
8
0
10
2.4
20
21.6909397
11
2.4
21
25.5165311
0
LINE
8
0
10
2.4
20
25.5165311
11
2.4
21
28.5770043
0
LINE
8
0
10
2.4
20
28.5770043
11
5.1861754
21
28.5770043
0
LINE
8
0
10
5.1861754
20
28.5770043
11
16
21
28.5770043
0
LINE
8
0
10
16
20
28.5770043
11
16
21
21.6909397
0
LINE
8
0
10
16
20
21.6909397
11
16
21
21.6909397
0
LINE
8
0
10
16
20
44.1654623
11
16
21
40.7434997
0
LINE
8
0
10
16
20
40.7434997
11
16
21
37.2372603
0
LINE
8
0
10
16
20
37.2372603
11
16
21
30.3511957
0
LINE
8
0
10
16
20
30.3511957
11
13.2138246
21
30.3511957
0
LINE
8
0
10
13.2138246
20
30.3511957
11
2.4
21
30.3511957
0
LINE
8
0
10
2.4
20
30.3511957
11
2.4
21
34.1072309
0
LINE
8
0
10
2.4
20
34.1072309
11
2.4
21
37.2372603
0
LINE
8
0
10
2.4
20
37.2372603
11
2.4
21
38.6397561
0
LINE
8
0
10
2.4
20
38.6397561
11
2.4
21
40.7434997
0
LINE
8
0
10
2.4
20
40.7434997
11
2.4
21
42.64459
0
LINE
8
0
10
2.4
20
42.64459
11
2.4
21
44.1654623
0
LINE
8
0
10
2.4
20
44.1654623
11
10.6261754
21
44.1654623
0
LINE
8
0
10
10.6261754
20
44.1654623
11
16
21
44.1654623
0
LINE
8
0
10
16
20
44.1654623
11
16
21
44.1654623
0
ENDSEC
0
EOF
