0
SECTION
2
ENTITIES
0
LINE
8
0
10
16
20
67.069498
11
16
21
67.2903147
0
LINE
8
0
10
16
20
67.2903147
11
16
21
67.5170368
0
LINE
8
0
10
16
20
67.5170368
11
16
21
67.7289917
0
LINE
8
0
10
16
20
67.7289917
11
16
21
69
0
LINE
8
0
10
16
20
69
11
15.9835927
21
69.1246236
0
LINE
8
0
10
15.9835927
20
69.1246236
11
15.93185
21
69.51764
0
LINE
8
0
10
15.93185
20
69.51764
11
15.7801525
21
69.8838702
0
LINE
8
0
10
15.7801525
20
69.8838702
11
15.73205
21
70
0
LINE
8
0
10
15.73205
20
70
11
15.490731
21
70.3144876
0
LINE
8
0
10
15.490731
20
70.3144876
11
15.41421
21
70.41421
0
LINE
8
0
10
15.41421
20
70.41421
11
15.0997224
21
70.655529
0
LINE
8
0
10
15.0997224
20
70.655529
11
15
21
70.73205
0
LINE
8
0
10
15
20
70.73205
11
14.6337698
21
70.8837475
0
LINE
8
0
10
14.6337698
20
70.8837475
11
14.51764
21
70.93185
0
LINE
8
0
10
14.51764
20
70.93185
11
14.1246236
21
70.9835927
0
LINE
8
0
10
14.1246236
20
70.9835927
11
14
21
71
0
LINE
8
0
10
14
20
71
11
13.1845639
21
71
0
LINE
8
0
10
13.1845639
20
71
11
11.4127506
21
71
0
LINE
8
0
10
11.4127506
20
71
11
4.4
21
71
0
LINE
8
0
10
4.4
20
71
11
4.20892545
21
70.9748439
0
LINE
8
0
10
4.20892545
20
70.9748439
11
3.882362
21
70.93185
0
LINE
8
0
10
3.882362
20
70.93185
11
3.5780532
21
70.8058017
0
LINE
8
0
10
3.5780532
20
70.8058017
11
3.4
21
70.73205
0
LINE
8
0
10
3.4
20
70.73205
11
3.13868389
21
70.5315336
0
LINE
8
0
10
3.13868389
20
70.5315336
11
2.985786
21
70.41421
0
LINE
8
0
10
2.985786
20
70.41421
11
2.78527146
21
70.1528964
0
LINE
8
0
10
2.78527146
20
70.1528964
11
2.667949
21
70
0
LINE
8
0
10
2.667949
20
70
11
2.5419001
21
69.6956925
0
LINE
8
0
10
2.5419001
20
69.6956925
11
2.468148
21
69.51764
0
LINE
8
0
10
2.468148
20
69.51764
11
2.42515532
21
69.1910753
0
LINE
8
0
10
2.42515532
20
69.1910753
11
2.4
21
69
0
LINE
8
0
10
2.4
20
69
11
2.4
21
67.182267
0
LINE
8
0
10
2.4
20
67.182267
11
2.4
21
67.0276763
0
LINE
8
0
10
2.4
20
67.0276763
11
2.4
21
66.8537074
0
LINE
8
0
10
2.4
20
66.8537074
11
2.4
21
66.6762895
0
LINE
8
0
10
2.4
20
66.6762895
11
2.4
21
56.3769397
0
LINE
8
0
10
2.4
20
56.3769397
11
2.4
21
51.325616
0
LINE
8
0
10
2.4
20
51.325616
11
2.4
21
50.6929872
0
LINE
8
0
10
2.4
20
50.6929872
11
2.4
21
49.0059774
0
LINE
8
0
10
2.4
20
49.0059774
11
9.02316621
21
49.0059774
0
LINE
8
0
10
9.02316621
20
49.0059774
11
16
21
49.0059774
0
LINE
8
0
10
16
20
49.0059774
11
16
21
50.6929872
0
LINE
8
0
10
16
20
50.6929872
11
16
21
58.4136711
0
LINE
8
0
10
16
20
58.4136711
11
16
21
67.069498
0
LINE
8
0
10
16
20
67.069498
11
16
21
67.069498
0
LINE
8
0
10
16
20
13.3863275
11
16
21
21.2931603
0
LINE
8
0
10
16
20
21.2931603
11
14.8168338
21
21.2931603
0
LINE
8
0
10
14.8168338
20
21.2931603
11
2.4
21
21.2931603
0
LINE
8
0
10
2.4
20
21.2931603
11
2.4
21
16.9803466
0
LINE
8
0
10
2.4
20
16.9803466
11
2.4
21
13.3863275
0
LINE
8
0
10
2.4
20
13.3863275
11
2.4
21
12.392137
0
LINE
8
0
10
2.4
20
12.392137
11
2.4
21
11.8950432
0
LINE
8
0
10
2.4
20
11.8950432
11
2.4
21
8.37075301
0
LINE
8
0
10
2.4
20
8.37075301
11
2.4
21
6.95610341
0
LINE
8
0
10
2.4
20
6.95610341
11
2.4
21
6.88405661
0
LINE
8
0
10
2.4
20
6.88405661
11
2.4
21
1.34450336
0
LINE
8
0
10
2.4
20
1.34450336
11
2.4
21
1.01073726
0
LINE
8
0
10
2.4
20
1.01073726
11
2.4
21
0.702931812
0
LINE
8
0
10
2.4
20
0.702931812
11
2.4
21
0.448797465
0
LINE
8
0
10
2.4
20
0.448797465
11
2.4
21
-6.94176719
0
LINE
8
0
10
2.4
20
-6.94176719
11
2.4
21
-7.35542369
0
LINE
8
0
10
2.4
20
-7.35542369
11
2.4
21
-7.54794653
0
LINE
8
0
10
2.4
20
-7.54794653
11
2.4
21
-13.9767328
0
LINE
8
0
10
2.4
20
-13.9767328
11
2.4
21
-14
0
LINE
8
0
10
2.4
20
-14
11
2.4067233
21
-14.1104402
0
LINE
8
0
10
2.4067233
20
-14.1104402
11
2.44762104
21
-14.3617209
0
LINE
8
0
10
2.44762104
20
-14.3617209
11
2.468148
21
-14.51764
0
LINE
8
0
10
2.468148
20
-14.51764
11
2.54758436
21
-14.7094154
0
LINE
8
0
10
2.54758436
20
-14.7094154
11
2.667949
21
-15
0
LINE
8
0
10
2.667949
20
-15
11
2.7943138
21
-15.1646805
0
LINE
8
0
10
2.7943138
20
-15.1646805
11
2.985786
21
-15.41421
0
LINE
8
0
10
2.985786
20
-15.41421
11
3.23580645
21
-15.6059671
0
LINE
8
0
10
3.23580645
20
-15.6059671
11
3.40113304
21
-15.7327069
0
LINE
8
0
10
3.40113304
20
-15.7327069
11
3.69123026
21
-15.8527878
0
LINE
8
0
10
3.69123026
20
-15.8527878
11
3.882362
21
-15.93185
0
LINE
8
0
10
3.882362
20
-15.93185
11
3.99784827
21
-15.9470544
0
LINE
8
0
10
3.99784827
20
-15.9470544
11
4.20638299
21
-15.9809851
0
LINE
8
0
10
4.20638299
20
-15.9809851
11
4.4
21
-16
0
LINE
8
0
10
4.4
20
-16
11
10.8394095
21
-16
0
LINE
8
0
10
10.8394095
20
-16
11
14
21
-16
0
LINE
8
0
10
14
20
-16
11
14.2259116
21
-15.9808753
0
LINE
8
0
10
14.2259116
20
-15.9808753
11
14.4519715
21
-15.9459904
0
LINE
8
0
10
14.4519715
20
-15.9459904
11
14.5730643
21
-15.9145662
0
LINE
8
0
10
14.5730643
20
-15.9145662
11
14.878608
21
-15.7881332
0
LINE
8
0
10
14.878608
20
-15.7881332
11
14.9983129
21
-15.73293
0
LINE
8
0
10
14.9983129
20
-15.73293
11
15.1164621
21
-15.6494422
0
LINE
8
0
10
15.1164621
20
-15.6494422
11
15.3695876
21
-15.4553512
0
LINE
8
0
10
15.3695876
20
-15.4553512
11
15.4741565
21
-15.3471169
0
LINE
8
0
10
15.4741565
20
-15.3471169
11
15.6638806
21
-15.0998678
0
LINE
8
0
10
15.6638806
20
-15.0998678
11
15.7552605
21
-14.9567543
0
LINE
8
0
10
15.7552605
20
-14.9567543
11
15.8721303
21
-14.6746054
0
LINE
8
0
10
15.8721303
20
-14.6746054
11
15.9369656
21
-14.4967821
0
LINE
8
0
10
15.9369656
20
-14.4967821
11
15.9549091
21
-14.3970665
0
LINE
8
0
10
15.9549091
20
-14.3970665
11
15.9719922
21
-14.3077411
0
LINE
8
0
10
15.9719922
20
-14.3077411
11
15.9892361
21
-14.1767633
0
LINE
8
0
10
15.9892361
20
-14.1767633
11
16
21
-14
0
LINE
8
0
10
16
20
-14
11
16
21
-11.5294172
0
LINE
8
0
10
16
20
-11.5294172
11
16
21
-11.1775665
0
LINE
8
0
10
16
20
-11.1775665
11
16
21
-10.7489275
0
LINE
8
0
10
16
20
-10.7489275
11
16
21
-10.6579707
0
LINE
8
0
10
16
20
-10.6579707
11
16
21
-10.1727539
0
LINE
8
0
10
16
20
-10.1727539
11
16
21
-10.0801749
0
LINE
8
0
10
16
20
-10.0801749
11
16
21
-9.98237392
0
LINE
8
0
10
16
20
-9.98237392
11
16
21
-9.46927523
0
LINE
8
0
10
16
20
-9.46927523
11
16
21
-8.95805537
0
LINE
8
0
10
16
20
-8.95805537
11
16
21
-8.4905515
0
LINE
8
0
10
16
20
-8.4905515
11
16
21
-0.324662436
0
LINE
8
0
10
16
20
-0.324662436
11
16
21
7.5045727
0
LINE
8
0
10
16
20
7.5045727
11
16
21
11.5214223
0
LINE
8
0
10
16
20
11.5214223
11
16
21
12.392137
0
LINE
8
0
10
16
20
12.392137
11
16
21
13.3863275
0
LINE
8
0
10
16
20
13.3863275
11
16
21
13.3863275
0
LINE
8
0
10
16
20
40.3457199
11
16
21
37.6350401
0
LINE
8
0
10
16
20
37.6350401
11
16
21
29.9534154
0
LINE
8
0
10
16
20
29.9534154
11
14.4631662
21
29.9534154
0
LINE
8
0
10
14.4631662
20
29.9534154
11
2.4
21
29.9534154
0
LINE
8
0
10
2.4
20
29.9534154
11
2.4
21
34.1433925
0
LINE
8
0
10
2.4
20
34.1433925
11
2.4
21
37.6350401
0
LINE
8
0
10
2.4
20
37.6350401
11
2.4
21
38.719312
0
LINE
8
0
10
2.4
20
38.719312
11
2.4
21
40.3457199
0
LINE
8
0
10
2.4
20
40.3457199
11
2.4
21
42.688788
0
LINE
8
0
10
2.4
20
42.688788
11
2.4
21
44.5632426
0
LINE
8
0
10
2.4
20
44.5632426
11
9.37683379
21
44.5632426
0
LINE
8
0
10
9.37683379
20
44.5632426
11
16
21
44.5632426
0
LINE
8
0
10
16
20
44.5632426
11
16
21
40.3457199
0
LINE
8
0
10
16
20
40.3457199
11
16
21
40.3457199
0
LINE
8
0
10
16
20
25.0602632
11
16
21
28.9747846
0
LINE
8
0
10
16
20
28.9747846
11
3.93683379
21
28.9747846
0
LINE
8
0
10
3.93683379
20
28.9747846
11
2.4
21
28.9747846
0
LINE
8
0
10
2.4
20
28.9747846
11
2.4
21
25.5607291
0
LINE
8
0
10
2.4
20
25.5607291
11
2.4
21
22.0465806
0
LINE
8
0
10
2.4
20
22.0465806
11
3.58316621
21
22.0465806
0
LINE
8
0
10
3.58316621
20
22.0465806
11
16
21
22.0465806
0
LINE
8
0
10
16
20
22.0465806
11
16
21
25.0602632
0
LINE
8
0
10
16
20
25.0602632
11
16
21
25.0602632
0
ENDSEC
0
EOF
