0
SECTION
2
ENTITIES
0
LINE
8
0
10
16
20
-10.1374615
11
16
21
-9.6469847
0
LINE
8
0
10
16
20
-9.6469847
11
16
21
-9.15830387
0
LINE
8
0
10
16
20
-9.15830387
11
16
21
-8.71141164
0
LINE
8
0
10
16
20
-8.71141164
11
16
21
-0.905546126
0
LINE
8
0
10
16
20
-0.905546126
11
16
21
7.48252444
0
LINE
8
0
10
16
20
7.48252444
11
16
21
11.3222763
0
LINE
8
0
10
16
20
11.3222763
11
16
21
12.471693
0
LINE
8
0
10
16
20
12.471693
11
16
21
13.7841081
0
LINE
8
0
10
16
20
13.7841081
11
16
21
20.895381
0
LINE
8
0
10
16
20
20.895381
11
13.5674922
21
20.895381
0
LINE
8
0
10
13.5674922
20
20.895381
11
2.4
21
20.895381
0
LINE
8
0
10
2.4
20
20.895381
11
2.4
21
17.0165086
0
LINE
8
0
10
2.4
20
17.0165086
11
2.4
21
13.7841081
0
LINE
8
0
10
2.4
20
13.7841081
11
2.4
21
12.471693
0
LINE
8
0
10
2.4
20
12.471693
11
2.4
21
11.8154873
0
LINE
8
0
10
2.4
20
11.8154873
11
2.4
21
8.41053099
0
LINE
8
0
10
2.4
20
8.41053099
11
2.4
21
6.89490648
0
LINE
8
0
10
2.4
20
6.89490648
11
2.4
21
6.81771713
0
LINE
8
0
10
2.4
20
6.81771713
11
2.4
21
1.40558548
0
LINE
8
0
10
2.4
20
1.40558548
11
2.4
21
1.07949671
0
LINE
8
0
10
2.4
20
1.07949671
11
2.4
21
0.778771451
0
LINE
8
0
10
2.4
20
0.778771451
11
2.4
21
0.530482739
0
LINE
8
0
10
2.4
20
0.530482739
11
2.4
21
-7.02516896
0
LINE
8
0
10
2.4
20
-7.02516896
11
2.4
21
-7.43356495
0
LINE
8
0
10
2.4
20
-7.43356495
11
2.4
21
-7.63022815
0
LINE
8
0
10
2.4
20
-7.63022815
11
2.4
21
-13.9770295
0
LINE
8
0
10
2.4
20
-13.9770295
11
2.4
21
-14
0
LINE
8
0
10
2.4
20
-14
11
2.40682161
21
-14.1120551
0
LINE
8
0
10
2.40682161
20
-14.1120551
11
2.44831736
21
-14.36701
0
LINE
8
0
10
2.44831736
20
-14.36701
11
2.468148
21
-14.51764
0
LINE
8
0
10
2.468148
20
-14.51764
11
2.55166736
21
-14.7192726
0
LINE
8
0
10
2.55166736
20
-14.7192726
11
2.667949
21
-15
0
LINE
8
0
10
2.667949
20
-15
11
2.8008089
21
-15.173145
0
LINE
8
0
10
2.8008089
20
-15.173145
11
2.985786
21
-15.41421
0
LINE
8
0
10
2.985786
20
-15.41421
11
3.22732528
21
-15.5994624
0
LINE
8
0
10
3.22732528
20
-15.5994624
11
3.40114959
21
-15.7327165
0
LINE
8
0
10
3.40114959
20
-15.7327165
11
3.68140615
21
-15.848724
0
LINE
8
0
10
3.68140615
20
-15.848724
11
3.882362
21
-15.93185
0
LINE
8
0
10
3.882362
20
-15.93185
11
4.00378422
21
-15.9478359
0
LINE
8
0
10
4.00378422
20
-15.9478359
11
4.20924087
21
-15.9812657
0
LINE
8
0
10
4.20924087
20
-15.9812657
11
4.4
21
-16
0
LINE
8
0
10
4.4
20
-16
11
10.9335664
21
-16
0
LINE
8
0
10
10.9335664
20
-16
11
14
21
-16
0
LINE
8
0
10
14
20
-16
11
14.2292149
21
-15.9805956
0
LINE
8
0
10
14.2292149
20
-15.9805956
11
14.4481999
21
-15.9468025
0
LINE
8
0
10
14.4481999
20
-15.9468025
11
14.5762475
21
-15.9135735
0
LINE
8
0
10
14.5762475
20
-15.9135735
11
14.8717067
21
-15.7913135
0
LINE
8
0
10
14.8717067
20
-15.7913135
11
14.9982866
21
-15.7329398
0
LINE
8
0
10
14.9982866
20
-15.7329398
11
15.1232215
21
-15.6446569
0
LINE
8
0
10
15.1232215
20
-15.6446569
11
15.3670248
21
-15.4577141
0
LINE
8
0
10
15.3670248
20
-15.4577141
11
15.4775994
21
-15.3432635
0
LINE
8
0
10
15.4775994
20
-15.3432635
11
15.6599655
21
-15.1056035
0
LINE
8
0
10
15.6599655
20
-15.1056035
11
15.7565935
21
-14.9542706
0
LINE
8
0
10
15.7565935
20
-14.9542706
11
15.8687004
21
-14.6836205
0
LINE
8
0
10
15.8687004
20
-14.6836205
11
15.9372594
21
-14.4955841
0
LINE
8
0
10
15.9372594
20
-14.4955841
11
15.9562335
21
-14.3901416
0
LINE
8
0
10
15.9562335
20
-14.3901416
11
15.9725792
21
-14.304672
0
LINE
8
0
10
15.9725792
20
-14.304672
11
15.9890788
21
-14.1793479
0
LINE
8
0
10
15.9890788
20
-14.1793479
11
16
21
-14
0
LINE
8
0
10
16
20
-14
11
16
21
-11.637296
0
LINE
8
0
10
16
20
-11.637296
11
16
21
-11.3008089
0
LINE
8
0
10
16
20
-11.3008089
11
16
21
-10.8908866
0
LINE
8
0
10
16
20
-10.8908866
11
16
21
-10.7974216
0
LINE
8
0
10
16
20
-10.7974216
11
16
21
-10.3335055
0
LINE
8
0
10
16
20
-10.3335055
11
16
21
-10.2381721
0
LINE
8
0
10
16
20
-10.2381721
11
16
21
-10.1374615
0
LINE
8
0
10
16
20
-10.1374615
11
16
21
-10.1374615
0
LINE
8
0
10
16
20
67.3205708
11
16
21
67.512669
0
LINE
8
0
10
16
20
67.512669
11
16
21
67.7099046
0
LINE
8
0
10
16
20
67.7099046
11
16
21
67.8942936
0
LINE
8
0
10
16
20
67.8942936
11
16
21
69
0
LINE
8
0
10
16
20
69
11
15.9857265
21
69.1084155
0
LINE
8
0
10
15.9857265
20
69.1084155
11
15.93185
21
69.51764
0
LINE
8
0
10
15.93185
20
69.51764
11
15.7738965
21
69.8989736
0
LINE
8
0
10
15.7738965
20
69.8989736
11
15.73205
21
70
0
LINE
8
0
10
15.73205
20
70
11
15.480779
21
70.327457
0
LINE
8
0
10
15.480779
20
70.327457
11
15.41421
21
70.41421
0
LINE
8
0
10
15.41421
20
70.41421
11
15.086753
21
70.665481
0
LINE
8
0
10
15.086753
20
70.665481
11
15
21
70.73205
0
LINE
8
0
10
15
20
70.73205
11
14.6186664
21
70.8900035
0
LINE
8
0
10
14.6186664
20
70.8900035
11
14.51764
21
70.93185
0
LINE
8
0
10
14.51764
20
70.93185
11
14.1084155
21
70.9857265
0
LINE
8
0
10
14.1084155
20
70.9857265
11
14
21
71
0
LINE
8
0
10
14
20
71
11
13.1700506
21
71
0
LINE
8
0
10
13.1700506
20
71
11
11.5375647
21
71
0
LINE
8
0
10
11.5375647
20
71
11
4.4
21
71
0
LINE
8
0
10
4.4
20
71
11
4.22395067
21
70.9768221
0
LINE
8
0
10
4.22395067
20
70.9768221
11
3.882362
21
70.93185
0
LINE
8
0
10
3.882362
20
70.93185
11
3.56405192
21
70.8000022
0
LINE
8
0
10
3.56405192
20
70.8000022
11
3.4
21
70.73205
0
LINE
8
0
10
3.4
20
70.73205
11
3.1266607
21
70.5223078
0
LINE
8
0
10
3.1266607
20
70.5223078
11
2.985786
21
70.41421
0
LINE
8
0
10
2.985786
20
70.41421
11
2.77604576
21
70.1408733
0
LINE
8
0
10
2.77604576
20
70.1408733
11
2.667949
21
70
0
LINE
8
0
10
2.667949
20
70
11
2.53610057
21
69.6816912
0
LINE
8
0
10
2.53610057
20
69.6816912
11
2.468148
21
69.51764
0
LINE
8
0
10
2.468148
20
69.51764
11
2.42317722
21
69.17605
0
LINE
8
0
10
2.42317722
20
69.17605
11
2.4
21
69
0
LINE
8
0
10
2.4
20
69
11
2.4
21
67.3252052
0
LINE
8
0
10
2.4
20
67.3252052
11
2.4
21
67.1827708
0
LINE
8
0
10
2.4
20
67.1827708
11
2.4
21
67.022482
0
LINE
8
0
10
2.4
20
67.022482
11
2.4
21
66.8590154
0
LINE
8
0
10
2.4
20
66.8590154
11
2.4
21
57.3695594
0
LINE
8
0
10
2.4
20
57.3695594
11
2.4
21
51.365394
0
LINE
8
0
10
2.4
20
51.365394
11
2.4
21
50.6134311
0
LINE
8
0
10
2.4
20
50.6134311
11
2.4
21
48.6081972
0
LINE
8
0
10
2.4
20
48.6081972
11
10.2725078
21
48.6081972
0
LINE
8
0
10
10.2725078
20
48.6081972
11
16
21
48.6081972
0
LINE
8
0
10
16
20
48.6081972
11
16
21
50.6134311
0
LINE
8
0
10
16
20
50.6134311
11
16
21
59.7904836
0
LINE
8
0
10
16
20
59.7904836
11
16
21
67.3205708
0
LINE
8
0
10
16
20
67.3205708
11
16
21
67.3205708
0
LINE
8
0
10
16
20
29.5556352
11
16
21
38.0328199
0
LINE
8
0
10
16
20
38.0328199
11
16
21
39.9479401
0
LINE
8
0
10
16
20
39.9479401
11
16
21
44.9610228
0
LINE
8
0
10
16
20
44.9610228
11
8.12749217
21
44.9610228
0
LINE
8
0
10
8.12749217
20
44.9610228
11
2.4
21
44.9610228
0
LINE
8
0
10
2.4
20
44.9610228
11
2.4
21
42.732986
0
LINE
8
0
10
2.4
20
42.732986
11
2.4
21
39.9479401
0
LINE
8
0
10
2.4
20
39.9479401
11
2.4
21
38.798868
0
LINE
8
0
10
2.4
20
38.798868
11
2.4
21
38.0328199
0
LINE
8
0
10
2.4
20
38.0328199
11
2.4
21
34.1795541
0
LINE
8
0
10
2.4
20
34.1795541
11
2.4
21
29.5556352
0
LINE
8
0
10
2.4
20
29.5556352
11
15.7125078
21
29.5556352
0
LINE
8
0
10
15.7125078
20
29.5556352
11
16
21
29.5556352
0
LINE
8
0
10
16
20
29.5556352
11
16
21
29.5556352
0
LINE
8
0
10
16
20
22.4443608
11
16
21
28.6402838
0
LINE
8
0
10
16
20
28.6402838
11
16
21
29.3725648
0
LINE
8
0
10
16
20
29.3725648
11
2.68749217
21
29.3725648
0
LINE
8
0
10
2.68749217
20
29.3725648
11
2.4
21
29.3725648
0
LINE
8
0
10
2.4
20
29.3725648
11
2.4
21
25.6049272
0
LINE
8
0
10
2.4
20
25.6049272
11
2.4
21
22.4443608
0
LINE
8
0
10
2.4
20
22.4443608
11
4.83250783
21
22.4443608
0
LINE
8
0
10
4.83250783
20
22.4443608
11
16
21
22.4443608
0
LINE
8
0
10
16
20
22.4443608
11
16
21
22.4443608
0
ENDSEC
0
EOF
