0
SECTION
2
ENTITIES
0
LINE
8
0
10
16
20
29.7703447
11
16
21
32.8327938
0
LINE
8
0
10
16
20
32.8327938
11
16
21
38.4305997
0
LINE
8
0
10
16
20
38.4305997
11
16
21
39.5501603
0
LINE
8
0
10
16
20
39.5501603
11
16
21
45.3588031
0
LINE
8
0
10
16
20
45.3588031
11
6.87815056
21
45.3588031
0
LINE
8
0
10
6.87815056
20
45.3588031
11
2.4
21
45.3588031
0
LINE
8
0
10
2.4
20
45.3588031
11
2.4
21
42.7771841
0
LINE
8
0
10
2.4
20
42.7771841
11
2.4
21
39.5501603
0
LINE
8
0
10
2.4
20
39.5501603
11
2.4
21
38.8784239
0
LINE
8
0
10
2.4
20
38.8784239
11
2.4
21
38.4305997
0
LINE
8
0
10
2.4
20
38.4305997
11
2.4
21
34.2157157
0
LINE
8
0
10
2.4
20
34.2157157
11
2.4
21
29.7703447
0
LINE
8
0
10
2.4
20
29.7703447
11
2.4
21
29.5253489
0
LINE
8
0
10
2.4
20
29.5253489
11
2.4
21
29.1578553
0
LINE
8
0
10
2.4
20
29.1578553
11
2.4
21
25.6491252
0
LINE
8
0
10
2.4
20
25.6491252
11
2.4
21
22.8421411
0
LINE
8
0
10
2.4
20
22.8421411
11
6.08184944
21
22.8421411
0
LINE
8
0
10
6.08184944
20
22.8421411
11
16
21
22.8421411
0
LINE
8
0
10
16
20
22.8421411
11
16
21
29.1578553
0
LINE
8
0
10
16
20
29.1578553
11
16
21
29.7703447
0
LINE
8
0
10
16
20
29.7703447
11
16
21
29.7703447
0
LINE
8
0
10
16
20
-11.7451747
11
16
21
-14
0
LINE
8
0
10
16
20
-14
11
15.9889214
21
-14.1819325
0
LINE
8
0
10
15.9889214
20
-14.1819325
11
15.9731661
21
-14.3016028
0
LINE
8
0
10
15.9731661
20
-14.3016028
11
15.9575579
21
-14.3832166
0
LINE
8
0
10
15.9575579
20
-14.3832166
11
15.9375532
21
-14.4943862
0
LINE
8
0
10
15.9375532
20
-14.4943862
11
15.8652705
21
-14.6926355
0
LINE
8
0
10
15.8652705
20
-14.6926355
11
15.7579266
21
-14.9517868
0
LINE
8
0
10
15.7579266
20
-14.9517868
11
15.6560503
21
-15.1113393
0
LINE
8
0
10
15.6560503
20
-15.1113393
11
15.4810423
21
-15.3394101
0
LINE
8
0
10
15.4810423
20
-15.3394101
11
15.364462
21
-15.460077
0
LINE
8
0
10
15.364462
20
-15.460077
11
15.129981
21
-15.6398717
0
LINE
8
0
10
15.129981
20
-15.6398717
11
14.9982604
21
-15.7329495
0
LINE
8
0
10
14.9982604
20
-15.7329495
11
14.8648054
21
-15.7944937
0
LINE
8
0
10
14.8648054
20
-15.7944937
11
14.5794307
21
-15.9125808
0
LINE
8
0
10
14.5794307
20
-15.9125808
11
14.4444284
21
-15.9476146
0
LINE
8
0
10
14.4444284
20
-15.9476146
11
14.2325181
21
-15.980316
0
LINE
8
0
10
14.2325181
20
-15.980316
11
14
21
-16
0
LINE
8
0
10
14
20
-16
11
11.0277233
21
-16
0
LINE
8
0
10
11.0277233
20
-16
11
4.4
21
-16
0
LINE
8
0
10
4.4
20
-16
11
4.21209875
21
-15.9815464
0
LINE
8
0
10
4.21209875
20
-15.9815464
11
4.00972018
21
-15.9486174
0
LINE
8
0
10
4.00972018
20
-15.9486174
11
3.882362
21
-15.93185
0
LINE
8
0
10
3.882362
20
-15.93185
11
3.67158205
21
-15.8446602
0
LINE
8
0
10
3.67158205
20
-15.8446602
11
3.40116614
21
-15.7327261
0
LINE
8
0
10
3.40116614
20
-15.7327261
11
3.2188441
21
-15.5929576
0
LINE
8
0
10
3.2188441
20
-15.5929576
11
2.985786
21
-15.41421
0
LINE
8
0
10
2.985786
20
-15.41421
11
2.80730401
21
-15.1816096
0
LINE
8
0
10
2.80730401
20
-15.1816096
11
2.667949
21
-15
0
LINE
8
0
10
2.667949
20
-15
11
2.55575036
21
-14.7291298
0
LINE
8
0
10
2.55575036
20
-14.7291298
11
2.468148
21
-14.51764
0
LINE
8
0
10
2.468148
20
-14.51764
11
2.44901367
21
-14.3722991
0
LINE
8
0
10
2.44901367
20
-14.3722991
11
2.40691992
21
-14.11367
0
LINE
8
0
10
2.40691992
20
-14.11367
11
2.4
21
-14
0
LINE
8
0
10
2.4
20
-14
11
2.4
21
-13.9773263
0
LINE
8
0
10
2.4
20
-13.9773263
11
2.4
21
-7.71250976
0
LINE
8
0
10
2.4
20
-7.71250976
11
2.4
21
-7.51170621
0
LINE
8
0
10
2.4
20
-7.51170621
11
2.4
21
-7.10857074
0
LINE
8
0
10
2.4
20
-7.10857074
11
2.4
21
0.612168014
0
LINE
8
0
10
2.4
20
0.612168014
11
2.4
21
0.85461109
0
LINE
8
0
10
2.4
20
0.85461109
11
2.4
21
1.14825617
0
LINE
8
0
10
2.4
20
1.14825617
11
2.4
21
1.4666676
0
LINE
8
0
10
2.4
20
1.4666676
11
2.4
21
6.75137764
0
LINE
8
0
10
2.4
20
6.75137764
11
2.4
21
6.83370955
0
LINE
8
0
10
2.4
20
6.83370955
11
2.4
21
8.45030897
0
LINE
8
0
10
2.4
20
8.45030897
11
2.4
21
11.7359314
0
LINE
8
0
10
2.4
20
11.7359314
11
2.4
21
12.5512489
0
LINE
8
0
10
2.4
20
12.5512489
11
2.4
21
14.1818887
0
LINE
8
0
10
2.4
20
14.1818887
11
2.4
21
17.0526706
0
LINE
8
0
10
2.4
20
17.0526706
11
2.4
21
20.4976016
0
LINE
8
0
10
2.4
20
20.4976016
11
12.3181506
21
20.4976016
0
LINE
8
0
10
12.3181506
20
20.4976016
11
16
21
20.4976016
0
LINE
8
0
10
16
20
20.4976016
11
16
21
14.1818887
0
LINE
8
0
10
16
20
14.1818887
11
16
21
12.5512489
0
LINE
8
0
10
16
20
12.5512489
11
16
21
11.1231303
0
LINE
8
0
10
16
20
11.1231303
11
16
21
7.46047617
0
LINE
8
0
10
16
20
7.46047617
11
16
21
-1.48642982
0
LINE
8
0
10
16
20
-1.48642982
11
16
21
-8.93227178
0
LINE
8
0
10
16
20
-8.93227178
11
16
21
-9.35855237
0
LINE
8
0
10
16
20
-9.35855237
11
16
21
-9.82469417
0
LINE
8
0
10
16
20
-9.82469417
11
16
21
-10.2925491
0
LINE
8
0
10
16
20
-10.2925491
11
16
21
-10.3961694
0
LINE
8
0
10
16
20
-10.3961694
11
16
21
-10.4942571
0
LINE
8
0
10
16
20
-10.4942571
11
16
21
-10.9368726
0
LINE
8
0
10
16
20
-10.9368726
11
16
21
-11.0328456
0
LINE
8
0
10
16
20
-11.0328456
11
16
21
-11.4240514
0
LINE
8
0
10
16
20
-11.4240514
11
16
21
-11.7451747
0
LINE
8
0
10
16
20
-11.7451747
11
16
21
-11.7451747
0
LINE
8
0
10
16
20
69
11
16
21
68.0595955
0
LINE
8
0
10
16
20
68.0595955
11
16
21
67.9027725
0
LINE
8
0
10
16
20
67.9027725
11
16
21
67.7350233
0
LINE
8
0
10
16
20
67.7350233
11
16
21
67.5716436
0
LINE
8
0
10
16
20
67.5716436
11
16
21
61.1672961
0
LINE
8
0
10
16
20
61.1672961
11
16
21
50.5338749
0
LINE
8
0
10
16
20
50.5338749
11
16
21
48.2104169
0
LINE
8
0
10
16
20
48.2104169
11
11.5218494
21
48.2104169
0
LINE
8
0
10
11.5218494
20
48.2104169
11
2.4
21
48.2104169
0
LINE
8
0
10
2.4
20
48.2104169
11
2.4
21
50.5338749
0
LINE
8
0
10
2.4
20
50.5338749
11
2.4
21
51.405172
0
LINE
8
0
10
2.4
20
51.405172
11
2.4
21
58.3621791
0
LINE
8
0
10
2.4
20
58.3621791
11
2.4
21
67.0417414
0
LINE
8
0
10
2.4
20
67.0417414
11
2.4
21
67.1912566
0
LINE
8
0
10
2.4
20
67.1912566
11
2.4
21
67.3378653
0
LINE
8
0
10
2.4
20
67.3378653
11
2.4
21
67.4681434
0
LINE
8
0
10
2.4
20
67.4681434
11
2.4
21
69
0
LINE
8
0
10
2.4
20
69
11
2.42119912
21
69.1610247
0
LINE
8
0
10
2.42119912
20
69.1610247
11
2.468148
21
69.51764
0
LINE
8
0
10
2.468148
20
69.51764
11
2.53030104
21
69.66769
0
LINE
8
0
10
2.53030104
20
69.66769
11
2.667949
21
70
0
LINE
8
0
10
2.667949
20
70
11
2.76682006
21
70.1288503
0
LINE
8
0
10
2.76682006
20
70.1288503
11
2.985786
21
70.41421
0
LINE
8
0
10
2.985786
20
70.41421
11
3.11463751
21
70.513082
0
LINE
8
0
10
3.11463751
20
70.513082
11
3.4
21
70.73205
0
LINE
8
0
10
3.4
20
70.73205
11
3.55005063
21
70.7942027
0
LINE
8
0
10
3.55005063
20
70.7942027
11
3.882362
21
70.93185
0
LINE
8
0
10
3.882362
20
70.93185
11
4.2389759
21
70.9788003
0
LINE
8
0
10
4.2389759
20
70.9788003
11
4.4
21
71
0
LINE
8
0
10
4.4
20
71
11
11.6623787
21
71
0
LINE
8
0
10
11.6623787
20
71
11
13.1555374
21
71
0
LINE
8
0
10
13.1555374
20
71
11
14
21
71
0
LINE
8
0
10
14
20
71
11
14.0922075
21
70.9878604
0
LINE
8
0
10
14.0922075
20
70.9878604
11
14.51764
21
70.93185
0
LINE
8
0
10
14.51764
20
70.93185
11
14.6035631
21
70.8962595
0
LINE
8
0
10
14.6035631
20
70.8962595
11
15
21
70.73205
0
LINE
8
0
10
15
20
70.73205
11
15.0737835
21
70.675433
0
LINE
8
0
10
15.0737835
20
70.675433
11
15.41421
21
70.41421
0
LINE
8
0
10
15.41421
20
70.41421
11
15.470827
21
70.3404265
0
LINE
8
0
10
15.470827
20
70.3404265
11
15.73205
21
70
0
LINE
8
0
10
15.73205
20
70
11
15.7676405
21
69.9140769
0
LINE
8
0
10
15.7676405
20
69.9140769
11
15.93185
21
69.51764
0
LINE
8
0
10
15.93185
20
69.51764
11
15.9878604
21
69.0922075
0
LINE
8
0
10
15.9878604
20
69.0922075
11
16
21
69
0
LINE
8
0
10
16
20
69
11
16
21
69
0
ENDSEC
0
EOF
