0
SECTION
2
ENTITIES
0
LINE
8
0
10
16
20
-9.55880087
11
16
21
-9.15313193
0
LINE
8
0
10
16
20
-9.15313193
11
16
21
-2.06731351
0
LINE
8
0
10
16
20
-2.06731351
11
16
21
7.4384279
0
LINE
8
0
10
16
20
7.4384279
11
16
21
10.9239843
0
LINE
8
0
10
16
20
10.9239843
11
16
21
12.6308049
0
LINE
8
0
10
16
20
12.6308049
11
16
21
14.5796692
0
LINE
8
0
10
16
20
14.5796692
11
16
21
20.0998223
0
LINE
8
0
10
16
20
20.0998223
11
11.0688089
21
20.0998223
0
LINE
8
0
10
11.0688089
20
20.0998223
11
2.4
21
20.0998223
0
LINE
8
0
10
2.4
20
20.0998223
11
2.4
21
17.0888326
0
LINE
8
0
10
2.4
20
17.0888326
11
2.4
21
14.5796692
0
LINE
8
0
10
2.4
20
14.5796692
11
2.4
21
12.6308049
0
LINE
8
0
10
2.4
20
12.6308049
11
2.4
21
11.6563755
0
LINE
8
0
10
2.4
20
11.6563755
11
2.4
21
8.49008695
0
LINE
8
0
10
2.4
20
8.49008695
11
2.4
21
6.77251262
0
LINE
8
0
10
2.4
20
6.77251262
11
2.4
21
6.68503815
0
LINE
8
0
10
2.4
20
6.68503815
11
2.4
21
1.52774972
0
LINE
8
0
10
2.4
20
1.52774972
11
2.4
21
1.21701562
0
LINE
8
0
10
2.4
20
1.21701562
11
2.4
21
0.93045073
0
LINE
8
0
10
2.4
20
0.93045073
11
2.4
21
0.693853288
0
LINE
8
0
10
2.4
20
0.693853288
11
2.4
21
-7.19197251
0
LINE
8
0
10
2.4
20
-7.19197251
11
2.4
21
-7.58984746
0
LINE
8
0
10
2.4
20
-7.58984746
11
2.4
21
-7.79479138
0
LINE
8
0
10
2.4
20
-7.79479138
11
2.4
21
-13.977623
0
LINE
8
0
10
2.4
20
-13.977623
11
2.4
21
-14
0
LINE
8
0
10
2.4
20
-14
11
2.40701823
21
-14.1152848
0
LINE
8
0
10
2.40701823
20
-14.1152848
11
2.44970998
21
-14.3775881
0
LINE
8
0
10
2.44970998
20
-14.3775881
11
2.468148
21
-14.51764
0
LINE
8
0
10
2.468148
20
-14.51764
11
2.55983336
21
-14.738987
0
LINE
8
0
10
2.55983336
20
-14.738987
11
2.667949
21
-15
0
LINE
8
0
10
2.667949
20
-15
11
2.81379911
21
-15.1900741
0
LINE
8
0
10
2.81379911
20
-15.1900741
11
2.985786
21
-15.41421
0
LINE
8
0
10
2.985786
20
-15.41421
11
3.21036293
21
-15.5864528
0
LINE
8
0
10
3.21036293
20
-15.5864528
11
3.4011827
21
-15.7327357
0
LINE
8
0
10
3.4011827
20
-15.7327357
11
3.66175795
21
-15.8405965
0
LINE
8
0
10
3.66175795
20
-15.8405965
11
3.882362
21
-15.93185
0
LINE
8
0
10
3.882362
20
-15.93185
11
4.01565613
21
-15.9493989
0
LINE
8
0
10
4.01565613
20
-15.9493989
11
4.21495663
21
-15.9818271
0
LINE
8
0
10
4.21495663
20
-15.9818271
11
4.4
21
-16
0
LINE
8
0
10
4.4
20
-16
11
11.1218802
21
-16
0
LINE
8
0
10
11.1218802
20
-16
11
14
21
-16
0
LINE
8
0
10
14
20
-16
11
14.2358214
21
-15.9800364
0
LINE
8
0
10
14.2358214
20
-15.9800364
11
14.4406568
21
-15.9484267
0
LINE
8
0
10
14.4406568
20
-15.9484267
11
14.5826139
21
-15.9115882
0
LINE
8
0
10
14.5826139
20
-15.9115882
11
14.8579041
21
-15.797674
0
LINE
8
0
10
14.8579041
20
-15.797674
11
14.9982341
21
-15.7329593
0
LINE
8
0
10
14.9982341
20
-15.7329593
11
15.1367404
21
-15.6350865
0
LINE
8
0
10
15.1367404
20
-15.6350865
11
15.3618991
21
-15.4624399
0
LINE
8
0
10
15.3618991
20
-15.4624399
11
15.4844852
21
-15.3355567
0
LINE
8
0
10
15.4844852
20
-15.3355567
11
15.6521351
21
-15.117075
0
LINE
8
0
10
15.6521351
20
-15.117075
11
15.7592596
21
-14.9493031
0
LINE
8
0
10
15.7592596
20
-14.9493031
11
15.8618406
21
-14.7016506
0
LINE
8
0
10
15.8618406
20
-14.7016506
11
15.937847
21
-14.4931883
0
LINE
8
0
10
15.937847
20
-14.4931883
11
15.9588822
21
-14.3762917
0
LINE
8
0
10
15.9588822
20
-14.3762917
11
15.9737531
21
-14.2985337
0
LINE
8
0
10
15.9737531
20
-14.2985337
11
15.988764
21
-14.1845171
0
LINE
8
0
10
15.988764
20
-14.1845171
11
16
21
-14
0
LINE
8
0
10
16
20
-14
11
16
21
-11.8530535
0
LINE
8
0
10
16
20
-11.8530535
11
16
21
-11.5472938
0
LINE
8
0
10
16
20
-11.5472938
11
16
21
-11.1748047
0
LINE
8
0
10
16
20
-11.1748047
11
16
21
-11.0763236
0
LINE
8
0
10
16
20
-11.0763236
11
16
21
-10.6550087
0
LINE
8
0
10
16
20
-10.6550087
11
16
21
-10.5541667
0
LINE
8
0
10
16
20
-10.5541667
11
16
21
-10.4476368
0
LINE
8
0
10
16
20
-10.4476368
11
16
21
-10.0024036
0
LINE
8
0
10
16
20
-10.0024036
11
16
21
-9.55880087
0
LINE
8
0
10
16
20
-9.55880087
11
16
21
-9.55880087
0
LINE
8
0
10
16
20
23.2399213
11
16
21
28.7600755
0
LINE
8
0
10
16
20
28.7600755
11
16
21
30.1681245
0
LINE
8
0
10
16
20
30.1681245
11
16
21
37.2083739
0
LINE
8
0
10
16
20
37.2083739
11
16
21
38.8283795
0
LINE
8
0
10
16
20
38.8283795
11
16
21
39.1523805
0
LINE
8
0
10
16
20
39.1523805
11
16
21
45.7565833
0
LINE
8
0
10
16
20
45.7565833
11
5.62880894
21
45.7565833
0
LINE
8
0
10
5.62880894
20
45.7565833
11
2.4
21
45.7565833
0
LINE
8
0
10
2.4
20
45.7565833
11
2.4
21
42.8213821
0
LINE
8
0
10
2.4
20
42.8213821
11
2.4
21
39.1523805
0
LINE
8
0
10
2.4
20
39.1523805
11
2.4
21
38.9579799
0
LINE
8
0
10
2.4
20
38.9579799
11
2.4
21
38.8283795
0
LINE
8
0
10
2.4
20
38.8283795
11
2.4
21
34.2518773
0
LINE
8
0
10
2.4
20
34.2518773
11
2.4
21
30.1681245
0
LINE
8
0
10
2.4
20
30.1681245
11
2.4
21
29.6049049
0
LINE
8
0
10
2.4
20
29.6049049
11
2.4
21
28.7600755
0
LINE
8
0
10
2.4
20
28.7600755
11
2.4
21
25.6933232
0
LINE
8
0
10
2.4
20
25.6933232
11
2.4
21
23.2399213
0
LINE
8
0
10
2.4
20
23.2399213
11
7.33119106
21
23.2399213
0
LINE
8
0
10
7.33119106
20
23.2399213
11
16
21
23.2399213
0
LINE
8
0
10
16
20
23.2399213
11
16
21
23.2399213
0
LINE
8
0
10
16
20
69
11
16
21
68.2248974
0
LINE
8
0
10
16
20
68.2248974
11
16
21
68.0956403
0
LINE
8
0
10
16
20
68.0956403
11
16
21
67.9573777
0
LINE
8
0
10
16
20
67.9573777
11
16
21
67.8227164
0
LINE
8
0
10
16
20
67.8227164
11
16
21
62.5441087
0
LINE
8
0
10
16
20
62.5441087
11
16
21
50.4543188
0
LINE
8
0
10
16
20
50.4543188
11
16
21
47.8126367
0
LINE
8
0
10
16
20
47.8126367
11
12.7711911
21
47.8126367
0
LINE
8
0
10
12.7711911
20
47.8126367
11
2.4
21
47.8126367
0
LINE
8
0
10
2.4
20
47.8126367
11
2.4
21
50.4543188
0
LINE
8
0
10
2.4
20
50.4543188
11
2.4
21
51.44495
0
LINE
8
0
10
2.4
20
51.44495
11
2.4
21
59.3547988
0
LINE
8
0
10
2.4
20
59.3547988
11
2.4
21
67.2244673
0
LINE
8
0
10
2.4
20
67.2244673
11
2.4
21
67.3600312
0
LINE
8
0
10
2.4
20
67.3600312
11
2.4
21
67.4929598
0
LINE
8
0
10
2.4
20
67.4929598
11
2.4
21
67.6110816
0
LINE
8
0
10
2.4
20
67.6110816
11
2.4
21
69
0
LINE
8
0
10
2.4
20
69
11
2.41922102
21
69.1459994
0
LINE
8
0
10
2.41922102
20
69.1459994
11
2.468148
21
69.51764
0
LINE
8
0
10
2.468148
20
69.51764
11
2.52450151
21
69.6536888
0
LINE
8
0
10
2.52450151
20
69.6536888
11
2.667949
21
70
0
LINE
8
0
10
2.667949
20
70
11
2.75759436
21
70.1168272
0
LINE
8
0
10
2.75759436
20
70.1168272
11
2.985786
21
70.41421
0
LINE
8
0
10
2.985786
20
70.41421
11
3.10261432
21
70.5038562
0
LINE
8
0
10
3.10261432
20
70.5038562
11
3.4
21
70.73205
0
LINE
8
0
10
3.4
20
70.73205
11
3.53604934
21
70.7884032
0
LINE
8
0
10
3.53604934
20
70.7884032
11
3.882362
21
70.93185
0
LINE
8
0
10
3.882362
20
70.93185
11
4.25400113
21
70.9807784
0
LINE
8
0
10
4.25400113
20
70.9807784
11
4.4
21
71
0
LINE
8
0
10
4.4
20
71
11
11.7871927
21
71
0
LINE
8
0
10
11.7871927
20
71
11
13.1410241
21
71
0
LINE
8
0
10
13.1410241
20
71
11
14
21
71
0
LINE
8
0
10
14
20
71
11
14.0759995
21
70.9899943
0
LINE
8
0
10
14.0759995
20
70.9899943
11
14.51764
21
70.93185
0
LINE
8
0
10
14.51764
20
70.93185
11
14.5884598
21
70.9025155
0
LINE
8
0
10
14.5884598
20
70.9025155
11
15
21
70.73205
0
LINE
8
0
10
15
20
70.73205
11
15.060814
21
70.685385
0
LINE
8
0
10
15.060814
20
70.685385
11
15.41421
21
70.41421
0
LINE
8
0
10
15.41421
20
70.41421
11
15.460875
21
70.353396
0
LINE
8
0
10
15.460875
20
70.353396
11
15.73205
21
70
0
LINE
8
0
10
15.73205
20
70
11
15.7613845
21
69.9291802
0
LINE
8
0
10
15.7613845
20
69.9291802
11
15.93185
21
69.51764
0
LINE
8
0
10
15.93185
20
69.51764
11
15.9899943
21
69.0759995
0
LINE
8
0
10
15.9899943
20
69.0759995
11
16
21
69
0
LINE
8
0
10
16
20
69
11
16
21
69
0
ENDSEC
0
EOF
