0
SECTION
2
ENTITIES
0
LINE
8
0
10
16
20
28.3622957
11
16
21
23.6377016
0
LINE
8
0
10
16
20
23.6377016
11
8.58053267
21
23.6377016
0
LINE
8
0
10
8.58053267
20
23.6377016
11
2.4
21
23.6377016
0
LINE
8
0
10
2.4
20
23.6377016
11
2.4
21
25.7375212
0
LINE
8
0
10
2.4
20
25.7375212
11
2.4
21
28.3622957
0
LINE
8
0
10
2.4
20
28.3622957
11
2.4
21
29.6844609
0
LINE
8
0
10
2.4
20
29.6844609
11
2.4
21
30.5659043
0
LINE
8
0
10
2.4
20
30.5659043
11
2.4
21
34.2880389
0
LINE
8
0
10
2.4
20
34.2880389
11
2.4
21
38.7546004
0
LINE
8
0
10
2.4
20
38.7546004
11
15.2594673
21
38.7546004
0
LINE
8
0
10
15.2594673
20
38.7546004
11
16
21
38.7546004
0
LINE
8
0
10
16
20
38.7546004
11
16
21
30.5659043
0
LINE
8
0
10
16
20
30.5659043
11
16
21
28.3622957
0
LINE
8
0
10
16
20
28.3622957
11
16
21
28.3622957
0
LINE
8
0
10
16
20
7.41637963
11
16
21
10.7248383
0
LINE
8
0
10
16
20
10.7248383
11
16
21
12.7103609
0
LINE
8
0
10
16
20
12.7103609
11
16
21
14.9774498
0
LINE
8
0
10
16
20
14.9774498
11
16
21
19.7020429
0
LINE
8
0
10
16
20
19.7020429
11
9.81946733
21
19.7020429
0
LINE
8
0
10
9.81946733
20
19.7020429
11
2.4
21
19.7020429
0
LINE
8
0
10
2.4
20
19.7020429
11
2.4
21
17.1249946
0
LINE
8
0
10
2.4
20
17.1249946
11
2.4
21
14.9774498
0
LINE
8
0
10
2.4
20
14.9774498
11
2.4
21
12.7103609
0
LINE
8
0
10
2.4
20
12.7103609
11
2.4
21
11.5768196
0
LINE
8
0
10
2.4
20
11.5768196
11
2.4
21
8.52986493
0
LINE
8
0
10
2.4
20
8.52986493
11
2.4
21
6.7113157
0
LINE
8
0
10
2.4
20
6.7113157
11
2.4
21
6.61869866
0
LINE
8
0
10
2.4
20
6.61869866
11
2.4
21
1.58883183
0
LINE
8
0
10
2.4
20
1.58883183
11
2.4
21
1.28577508
0
LINE
8
0
10
2.4
20
1.28577508
11
2.4
21
1.00629037
0
LINE
8
0
10
2.4
20
1.00629037
11
2.4
21
0.775538562
0
LINE
8
0
10
2.4
20
0.775538562
11
2.4
21
-7.27537428
0
LINE
8
0
10
2.4
20
-7.27537428
11
2.4
21
-7.66798872
0
LINE
8
0
10
2.4
20
-7.66798872
11
2.4
21
-7.877073
0
LINE
8
0
10
2.4
20
-7.877073
11
2.4
21
-13.9779197
0
LINE
8
0
10
2.4
20
-13.9779197
11
2.4
21
-14
0
LINE
8
0
10
2.4
20
-14
11
2.40711653
21
-14.1168997
0
LINE
8
0
10
2.40711653
20
-14.1168997
11
2.4504063
21
-14.3828772
0
LINE
8
0
10
2.4504063
20
-14.3828772
11
2.468148
21
-14.51764
0
LINE
8
0
10
2.468148
20
-14.51764
11
2.56391636
21
-14.7488442
0
LINE
8
0
10
2.56391636
20
-14.7488442
11
2.667949
21
-15
0
LINE
8
0
10
2.667949
20
-15
11
2.82029422
21
-15.1985386
0
LINE
8
0
10
2.82029422
20
-15.1985386
11
2.985786
21
-15.41421
0
LINE
8
0
10
2.985786
20
-15.41421
11
3.20188176
21
-15.5799481
0
LINE
8
0
10
3.20188176
20
-15.5799481
11
3.40119925
21
-15.7327453
0
LINE
8
0
10
3.40119925
20
-15.7327453
11
3.65193385
21
-15.8365327
0
LINE
8
0
10
3.65193385
20
-15.8365327
11
3.882362
21
-15.93185
0
LINE
8
0
10
3.882362
20
-15.93185
11
4.02159208
21
-15.9501804
0
LINE
8
0
10
4.02159208
20
-15.9501804
11
4.21781451
21
-15.9821077
0
LINE
8
0
10
4.21781451
20
-15.9821077
11
4.4
21
-16
0
LINE
8
0
10
4.4
20
-16
11
11.2160371
21
-16
0
LINE
8
0
10
11.2160371
20
-16
11
14
21
-16
0
LINE
8
0
10
14
20
-16
11
14.2391247
21
-15.9797567
0
LINE
8
0
10
14.2391247
20
-15.9797567
11
14.4368852
21
-15.9492389
0
LINE
8
0
10
14.4368852
20
-15.9492389
11
14.5857971
21
-15.9105955
0
LINE
8
0
10
14.5857971
20
-15.9105955
11
14.8510028
21
-15.8008543
0
LINE
8
0
10
14.8510028
20
-15.8008543
11
14.9982079
21
-15.7329691
0
LINE
8
0
10
14.9982079
20
-15.7329691
11
15.1434999
21
-15.6303013
0
LINE
8
0
10
15.1434999
20
-15.6303013
11
15.3593363
21
-15.4648028
0
LINE
8
0
10
15.3593363
20
-15.4648028
11
15.4879282
21
-15.3317033
0
LINE
8
0
10
15.4879282
20
-15.3317033
11
15.6482199
21
-15.1228107
0
LINE
8
0
10
15.6482199
20
-15.1228107
11
15.7605927
21
-14.9468193
0
LINE
8
0
10
15.7605927
20
-14.9468193
11
15.8584107
21
-14.7106656
0
LINE
8
0
10
15.8584107
20
-14.7106656
11
15.9381408
21
-14.4919903
0
LINE
8
0
10
15.9381408
20
-14.4919903
11
15.9602066
21
-14.3693667
0
LINE
8
0
10
15.9602066
20
-14.3693667
11
15.9743401
21
-14.2954645
0
LINE
8
0
10
15.9743401
20
-14.2954645
11
15.9886066
21
-14.1871018
0
LINE
8
0
10
15.9886066
20
-14.1871018
11
16
21
-14
0
LINE
8
0
10
16
20
-14
11
16
21
-11.9609322
0
LINE
8
0
10
16
20
-11.9609322
11
16
21
-11.6705362
0
LINE
8
0
10
16
20
-11.6705362
11
16
21
-11.3167638
0
LINE
8
0
10
16
20
-11.3167638
11
16
21
-11.2157746
0
LINE
8
0
10
16
20
-11.2157746
11
16
21
-10.8157603
0
LINE
8
0
10
16
20
-10.8157603
11
16
21
-10.712164
0
LINE
8
0
10
16
20
-10.712164
11
16
21
-10.6027244
0
LINE
8
0
10
16
20
-10.6027244
11
16
21
-10.1801131
0
LINE
8
0
10
16
20
-10.1801131
11
16
21
-9.75904936
0
LINE
8
0
10
16
20
-9.75904936
11
16
21
-9.37399207
0
LINE
8
0
10
16
20
-9.37399207
11
16
21
-2.64819719
0
LINE
8
0
10
16
20
-2.64819719
11
16
21
7.41637963
0
LINE
8
0
10
16
20
7.41637963
11
16
21
7.41637963
0
LINE
8
0
10
16
20
46.1543636
11
16
21
41.1123954
0
LINE
8
0
10
16
20
41.1123954
11
16
21
39.2261596
0
LINE
8
0
10
16
20
39.2261596
11
3.14053267
21
39.2261596
0
LINE
8
0
10
3.14053267
20
39.2261596
11
2.4
21
39.2261596
0
LINE
8
0
10
2.4
20
39.2261596
11
2.4
21
42.8655801
0
LINE
8
0
10
2.4
20
42.8655801
11
2.4
21
46.1543636
0
LINE
8
0
10
2.4
20
46.1543636
11
4.37946733
21
46.1543636
0
LINE
8
0
10
4.37946733
20
46.1543636
11
16
21
46.1543636
0
LINE
8
0
10
16
20
46.1543636
11
16
21
46.1543636
0
LINE
8
0
10
16
20
63.9209212
11
16
21
68.0737892
0
LINE
8
0
10
16
20
68.0737892
11
16
21
68.179732
0
LINE
8
0
10
16
20
68.179732
11
16
21
68.2885081
0
LINE
8
0
10
16
20
68.2885081
11
16
21
68.3901993
0
LINE
8
0
10
16
20
68.3901993
11
16
21
69
0
LINE
8
0
10
16
20
69
11
15.9921281
21
69.0597915
0
LINE
8
0
10
15.9921281
20
69.0597915
11
15.93185
21
69.51764
0
LINE
8
0
10
15.93185
20
69.51764
11
15.7551285
21
69.9442836
0
LINE
8
0
10
15.7551285
20
69.9442836
11
15.73205
21
70
0
LINE
8
0
10
15.73205
20
70
11
15.450923
21
70.3663655
0
LINE
8
0
10
15.450923
20
70.3663655
11
15.41421
21
70.41421
0
LINE
8
0
10
15.41421
20
70.41421
11
15.0478445
21
70.695337
0
LINE
8
0
10
15.0478445
20
70.695337
11
15
21
70.73205
0
LINE
8
0
10
15
20
70.73205
11
14.5733564
21
70.9087715
0
LINE
8
0
10
14.5733564
20
70.9087715
11
14.51764
21
70.93185
0
LINE
8
0
10
14.51764
20
70.93185
11
14.0597915
21
70.9921281
0
LINE
8
0
10
14.0597915
20
70.9921281
11
14
21
71
0
LINE
8
0
10
14
20
71
11
13.1265108
21
71
0
LINE
8
0
10
13.1265108
20
71
11
11.9120067
21
71
0
LINE
8
0
10
11.9120067
20
71
11
4.4
21
71
0
LINE
8
0
10
4.4
20
71
11
4.26902636
21
70.9827566
0
LINE
8
0
10
4.26902636
20
70.9827566
11
3.882362
21
70.93185
0
LINE
8
0
10
3.882362
20
70.93185
11
3.52204805
21
70.7826037
0
LINE
8
0
10
3.52204805
20
70.7826037
11
3.4
21
70.73205
0
LINE
8
0
10
3.4
20
70.73205
11
3.09059113
21
70.4946304
0
LINE
8
0
10
3.09059113
20
70.4946304
11
2.985786
21
70.41421
0
LINE
8
0
10
2.985786
20
70.41421
11
2.74836865
21
70.1048041
0
LINE
8
0
10
2.74836865
20
70.1048041
11
2.667949
21
70
0
LINE
8
0
10
2.667949
20
70
11
2.51870199
21
69.6396875
0
LINE
8
0
10
2.51870199
20
69.6396875
11
2.468148
21
69.51764
0
LINE
8
0
10
2.468148
20
69.51764
11
2.41724292
21
69.1309741
0
LINE
8
0
10
2.41724292
20
69.1309741
11
2.4
21
69
0
LINE
8
0
10
2.4
20
69
11
2.4
21
67.7540198
0
LINE
8
0
10
2.4
20
67.7540198
11
2.4
21
67.6480543
0
LINE
8
0
10
2.4
20
67.6480543
11
2.4
21
67.5288059
0
LINE
8
0
10
2.4
20
67.5288059
11
2.4
21
67.4071933
0
LINE
8
0
10
2.4
20
67.4071933
11
2.4
21
60.3474184
0
LINE
8
0
10
2.4
20
60.3474184
11
2.4
21
51.4847279
0
LINE
8
0
10
2.4
20
51.4847279
11
2.4
21
50.3747627
0
LINE
8
0
10
2.4
20
50.3747627
11
2.4
21
47.4148564
0
LINE
8
0
10
2.4
20
47.4148564
11
14.0205327
21
47.4148564
0
LINE
8
0
10
14.0205327
20
47.4148564
11
16
21
47.4148564
0
LINE
8
0
10
16
20
47.4148564
11
16
21
50.3747627
0
LINE
8
0
10
16
20
50.3747627
11
16
21
63.9209212
0
LINE
8
0
10
16
20
63.9209212
11
16
21
63.9209212
0
ENDSEC
0
EOF
