0
SECTION
2
ENTITIES
0
LINE
8
0
10
16
20
-9.59485221
11
16
21
-3.22908088
0
LINE
8
0
10
16
20
-3.22908088
11
16
21
7.39433137
0
LINE
8
0
10
16
20
7.39433137
11
16
21
10.5256923
0
LINE
8
0
10
16
20
10.5256923
11
16
21
12.7899168
0
LINE
8
0
10
16
20
12.7899168
11
16
21
15.3752304
0
LINE
8
0
10
16
20
15.3752304
11
16
21
19.3042636
0
LINE
8
0
10
16
20
19.3042636
11
8.57012571
21
19.3042636
0
LINE
8
0
10
8.57012571
20
19.3042636
11
2.4
21
19.3042636
0
LINE
8
0
10
2.4
20
19.3042636
11
2.4
21
17.1611566
0
LINE
8
0
10
2.4
20
17.1611566
11
2.4
21
15.3752304
0
LINE
8
0
10
2.4
20
15.3752304
11
2.4
21
12.7899168
0
LINE
8
0
10
2.4
20
12.7899168
11
2.4
21
11.4972637
0
LINE
8
0
10
2.4
20
11.4972637
11
2.4
21
8.56964291
0
LINE
8
0
10
2.4
20
8.56964291
11
2.4
21
6.65011877
0
LINE
8
0
10
2.4
20
6.65011877
11
2.4
21
6.55235918
0
LINE
8
0
10
2.4
20
6.55235918
11
2.4
21
1.64991395
0
LINE
8
0
10
2.4
20
1.64991395
11
2.4
21
1.35453453
0
LINE
8
0
10
2.4
20
1.35453453
11
2.4
21
1.08213001
0
LINE
8
0
10
2.4
20
1.08213001
11
2.4
21
0.857223836
0
LINE
8
0
10
2.4
20
0.857223836
11
2.4
21
-7.35877606
0
LINE
8
0
10
2.4
20
-7.35877606
11
2.4
21
-7.74612998
0
LINE
8
0
10
2.4
20
-7.74612998
11
2.4
21
-7.95935461
0
LINE
8
0
10
2.4
20
-7.95935461
11
2.4
21
-13.9782164
0
LINE
8
0
10
2.4
20
-13.9782164
11
2.4
21
-14
0
LINE
8
0
10
2.4
20
-14
11
2.40721484
21
-14.1185145
0
LINE
8
0
10
2.40721484
20
-14.1185145
11
2.45110261
21
-14.3881663
0
LINE
8
0
10
2.45110261
20
-14.3881663
11
2.468148
21
-14.51764
0
LINE
8
0
10
2.468148
20
-14.51764
11
2.56799935
21
-14.7587014
0
LINE
8
0
10
2.56799935
20
-14.7587014
11
2.667949
21
-15
0
LINE
8
0
10
2.667949
20
-15
11
2.82678932
21
-15.2070031
0
LINE
8
0
10
2.82678932
20
-15.2070031
11
2.985786
21
-15.41421
0
LINE
8
0
10
2.985786
20
-15.41421
11
3.19340058
21
-15.5734433
0
LINE
8
0
10
3.19340058
20
-15.5734433
11
3.4012158
21
-15.7327549
0
LINE
8
0
10
3.4012158
20
-15.7327549
11
3.64210975
21
-15.8324689
0
LINE
8
0
10
3.64210975
20
-15.8324689
11
3.882362
21
-15.93185
0
LINE
8
0
10
3.882362
20
-15.93185
11
4.02752803
21
-15.9509619
0
LINE
8
0
10
4.02752803
20
-15.9509619
11
4.22067239
21
-15.9823884
0
LINE
8
0
10
4.22067239
20
-15.9823884
11
4.4
21
-16
0
LINE
8
0
10
4.4
20
-16
11
11.310194
21
-16
0
LINE
8
0
10
11.310194
20
-16
11
14
21
-16
0
LINE
8
0
10
14
20
-16
11
14.242428
21
-15.9794771
0
LINE
8
0
10
14.242428
20
-15.9794771
11
14.4331137
21
-15.950051
0
LINE
8
0
10
14.4331137
20
-15.950051
11
14.5889803
21
-15.9096028
0
LINE
8
0
10
14.5889803
20
-15.9096028
11
14.8441015
21
-15.8040345
0
LINE
8
0
10
14.8441015
20
-15.8040345
11
14.9981816
21
-15.7329788
0
LINE
8
0
10
14.9981816
20
-15.7329788
11
15.1502593
21
-15.625516
0
LINE
8
0
10
15.1502593
20
-15.625516
11
15.3567735
21
-15.4671656
0
LINE
8
0
10
15.3567735
20
-15.4671656
11
15.4913711
21
-15.32785
0
LINE
8
0
10
15.4913711
20
-15.32785
11
15.6443047
21
-15.1285465
0
LINE
8
0
10
15.6443047
20
-15.1285465
11
15.7619258
21
-14.9443356
0
LINE
8
0
10
15.7619258
20
-14.9443356
11
15.8549808
21
-14.7196807
0
LINE
8
0
10
15.8549808
20
-14.7196807
11
15.9384346
21
-14.4907924
0
LINE
8
0
10
15.9384346
20
-14.4907924
11
15.961531
21
-14.3624418
0
LINE
8
0
10
15.961531
20
-14.3624418
11
15.974927
21
-14.2923954
0
LINE
8
0
10
15.974927
20
-14.2923954
11
15.9884492
21
-14.1896864
0
LINE
8
0
10
15.9884492
20
-14.1896864
11
16
21
-14
0
LINE
8
0
10
16
20
-14
11
16
21
-12.068811
0
LINE
8
0
10
16
20
-12.068811
11
16
21
-11.7937786
0
LINE
8
0
10
16
20
-11.7937786
11
16
21
-11.4587229
0
LINE
8
0
10
16
20
-11.4587229
11
16
21
-11.3552256
0
LINE
8
0
10
16
20
-11.3552256
11
16
21
-10.9765119
0
LINE
8
0
10
16
20
-10.9765119
11
16
21
-10.8701613
0
LINE
8
0
10
16
20
-10.8701613
11
16
21
-10.757812
0
LINE
8
0
10
16
20
-10.757812
11
16
21
-10.3578226
0
LINE
8
0
10
16
20
-10.3578226
11
16
21
-9.95929786
0
LINE
8
0
10
16
20
-9.95929786
11
16
21
-9.59485221
0
LINE
8
0
10
16
20
-9.59485221
11
16
21
-9.59485221
0
LINE
8
0
10
16
20
47.0170761
11
16
21
50.2952066
0
LINE
8
0
10
16
20
50.2952066
11
16
21
65.2977338
0
LINE
8
0
10
16
20
65.2977338
11
16
21
68.324862
0
LINE
8
0
10
16
20
68.324862
11
16
21
68.4020864
0
LINE
8
0
10
16
20
68.4020864
11
16
21
68.481376
0
LINE
8
0
10
16
20
68.481376
11
16
21
68.5555011
0
LINE
8
0
10
16
20
68.5555011
11
16
21
69
0
LINE
8
0
10
16
20
69
11
15.994262
21
69.0435835
0
LINE
8
0
10
15.994262
20
69.0435835
11
15.93185
21
69.51764
0
LINE
8
0
10
15.93185
20
69.51764
11
15.7488725
21
69.9593869
0
LINE
8
0
10
15.7488725
20
69.9593869
11
15.73205
21
70
0
LINE
8
0
10
15.73205
20
70
11
15.440971
21
70.3793349
0
LINE
8
0
10
15.440971
20
70.3793349
11
15.41421
21
70.41421
0
LINE
8
0
10
15.41421
20
70.41421
11
15.0348751
21
70.705289
0
LINE
8
0
10
15.0348751
20
70.705289
11
15
21
70.73205
0
LINE
8
0
10
15
20
70.73205
11
14.5582531
21
70.9150275
0
LINE
8
0
10
14.5582531
20
70.9150275
11
14.51764
21
70.93185
0
LINE
8
0
10
14.51764
20
70.93185
11
14.0435835
21
70.994262
0
LINE
8
0
10
14.0435835
20
70.994262
11
14
21
71
0
LINE
8
0
10
14
20
71
11
13.1119976
21
71
0
LINE
8
0
10
13.1119976
20
71
11
12.0368208
21
71
0
LINE
8
0
10
12.0368208
20
71
11
4.4
21
71
0
LINE
8
0
10
4.4
20
71
11
4.28405159
21
70.9847347
0
LINE
8
0
10
4.28405159
20
70.9847347
11
3.882362
21
70.93185
0
LINE
8
0
10
3.882362
20
70.93185
11
3.50804676
21
70.7768042
0
LINE
8
0
10
3.50804676
20
70.7768042
11
3.4
21
70.73205
0
LINE
8
0
10
3.4
20
70.73205
11
3.07856794
21
70.4854046
0
LINE
8
0
10
3.07856794
20
70.4854046
11
2.985786
21
70.41421
0
LINE
8
0
10
2.985786
20
70.41421
11
2.73914295
21
70.092781
0
LINE
8
0
10
2.73914295
20
70.092781
11
2.667949
21
70
0
LINE
8
0
10
2.667949
20
70
11
2.51290246
21
69.6256863
0
LINE
8
0
10
2.51290246
20
69.6256863
11
2.468148
21
69.51764
0
LINE
8
0
10
2.468148
20
69.51764
11
2.41526482
21
69.1159489
0
LINE
8
0
10
2.41526482
20
69.1159489
11
2.4
21
69
0
LINE
8
0
10
2.4
20
69
11
2.4
21
67.896958
0
LINE
8
0
10
2.4
20
67.896958
11
2.4
21
67.8031488
0
LINE
8
0
10
2.4
20
67.8031488
11
2.4
21
67.6975805
0
LINE
8
0
10
2.4
20
67.6975805
11
2.4
21
67.5899193
0
LINE
8
0
10
2.4
20
67.5899193
11
2.4
21
61.3400381
0
LINE
8
0
10
2.4
20
61.3400381
11
2.4
21
51.5245059
0
LINE
8
0
10
2.4
20
51.5245059
11
2.4
21
50.2952066
0
LINE
8
0
10
2.4
20
50.2952066
11
2.4
21
47.0170761
0
LINE
8
0
10
2.4
20
47.0170761
11
15.2698743
21
47.0170761
0
LINE
8
0
10
15.2698743
20
47.0170761
11
16
21
47.0170761
0
LINE
8
0
10
16
20
47.0170761
11
16
21
47.0170761
0
LINE
8
0
10
16
20
39.6239399
11
16
21
44.692416
0
LINE
8
0
10
16
20
44.692416
11
16
21
46.5521439
0
LINE
8
0
10
16
20
46.5521439
11
3.13012571
21
46.5521439
0
LINE
8
0
10
3.13012571
20
46.5521439
11
2.4
21
46.5521439
0
LINE
8
0
10
2.4
20
46.5521439
11
2.4
21
42.9097781
0
LINE
8
0
10
2.4
20
42.9097781
11
2.4
21
39.6239399
0
LINE
8
0
10
2.4
20
39.6239399
11
4.38987429
21
39.6239399
0
LINE
8
0
10
4.38987429
20
39.6239399
11
16
21
39.6239399
0
LINE
8
0
10
16
20
39.6239399
11
16
21
39.6239399
0
LINE
8
0
10
16
20
38.3568201
11
16
21
30.9636841
0
LINE
8
0
10
16
20
30.9636841
11
16
21
27.9645159
0
LINE
8
0
10
16
20
27.9645159
11
16
21
24.0354819
0
LINE
8
0
10
16
20
24.0354819
11
9.82987429
21
24.0354819
0
LINE
8
0
10
9.82987429
20
24.0354819
11
2.4
21
24.0354819
0
LINE
8
0
10
2.4
20
24.0354819
11
2.4
21
25.7817192
0
LINE
8
0
10
2.4
20
25.7817192
11
2.4
21
27.9645159
0
LINE
8
0
10
2.4
20
27.9645159
11
2.4
21
29.7640168
0
LINE
8
0
10
2.4
20
29.7640168
11
2.4
21
30.9636841
0
LINE
8
0
10
2.4
20
30.9636841
11
2.4
21
34.3242005
0
LINE
8
0
10
2.4
20
34.3242005
11
2.4
21
38.3568201
0
LINE
8
0
10
2.4
20
38.3568201
11
14.0101257
21
38.3568201
0
LINE
8
0
10
14.0101257
20
38.3568201
11
16
21
38.3568201
0
LINE
8
0
10
16
20
38.3568201
11
16
21
38.3568201
0
ENDSEC
0
EOF
