0
SECTION
2
ENTITIES
0
LINE
8
0
10
16
20
68.720803
11
16
21
69
0
LINE
8
0
10
16
20
69
11
15.9963959
21
69.0273755
0
LINE
8
0
10
15.9963959
20
69.0273755
11
15.93185
21
69.51764
0
LINE
8
0
10
15.93185
20
69.51764
11
15.7426165
21
69.9744903
0
LINE
8
0
10
15.7426165
20
69.9744903
11
15.73205
21
70
0
LINE
8
0
10
15.73205
20
70
11
15.431019
21
70.3923044
0
LINE
8
0
10
15.431019
20
70.3923044
11
15.41421
21
70.41421
0
LINE
8
0
10
15.41421
20
70.41421
11
15.0219056
21
70.715241
0
LINE
8
0
10
15.0219056
20
70.715241
11
15
21
70.73205
0
LINE
8
0
10
15
20
70.73205
11
14.5431497
21
70.9212835
0
LINE
8
0
10
14.5431497
20
70.9212835
11
14.51764
21
70.93185
0
LINE
8
0
10
14.51764
20
70.93185
11
14.0273755
21
70.9963959
0
LINE
8
0
10
14.0273755
20
70.9963959
11
14
21
71
0
LINE
8
0
10
14
20
71
11
13.0974843
21
71
0
LINE
8
0
10
13.0974843
20
71
11
12.1616348
21
71
0
LINE
8
0
10
12.1616348
20
71
11
4.4
21
71
0
LINE
8
0
10
4.4
20
71
11
4.29907682
21
70.9867129
0
LINE
8
0
10
4.29907682
20
70.9867129
11
3.882362
21
70.93185
0
LINE
8
0
10
3.882362
20
70.93185
11
3.49404547
21
70.7710047
0
LINE
8
0
10
3.49404547
20
70.7710047
11
3.4
21
70.73205
0
LINE
8
0
10
3.4
20
70.73205
11
3.06654475
21
70.4761788
0
LINE
8
0
10
3.06654475
20
70.4761788
11
2.985786
21
70.41421
0
LINE
8
0
10
2.985786
20
70.41421
11
2.72991725
21
70.080758
0
LINE
8
0
10
2.72991725
20
70.080758
11
2.667949
21
70
0
LINE
8
0
10
2.667949
20
70
11
2.50710293
21
69.6116851
0
LINE
8
0
10
2.50710293
20
69.6116851
11
2.468148
21
69.51764
0
LINE
8
0
10
2.468148
20
69.51764
11
2.41328672
21
69.1009236
0
LINE
8
0
10
2.41328672
20
69.1009236
11
2.4
21
69
0
LINE
8
0
10
2.4
20
69
11
2.4
21
68.0398962
0
LINE
8
0
10
2.4
20
68.0398962
11
2.4
21
67.9582433
0
LINE
8
0
10
2.4
20
67.9582433
11
2.4
21
67.8663551
0
LINE
8
0
10
2.4
20
67.8663551
11
2.4
21
67.7726452
0
LINE
8
0
10
2.4
20
67.7726452
11
2.4
21
62.3326578
0
LINE
8
0
10
2.4
20
62.3326578
11
2.4
21
51.5642839
0
LINE
8
0
10
2.4
20
51.5642839
11
2.4
21
50.2156505
0
LINE
8
0
10
2.4
20
50.2156505
11
2.4
21
46.8176728
0
LINE
8
0
10
2.4
20
46.8176728
11
2.4
21
46.619296
0
LINE
8
0
10
2.4
20
46.619296
11
2.4
21
42.9539761
0
LINE
8
0
10
2.4
20
42.9539761
11
2.4
21
40.0217201
0
LINE
8
0
10
2.4
20
40.0217201
11
5.6392159
21
40.0217201
0
LINE
8
0
10
5.6392159
20
40.0217201
11
16
21
40.0217201
0
LINE
8
0
10
16
20
40.0217201
11
16
21
46.619296
0
LINE
8
0
10
16
20
46.619296
11
16
21
46.8176728
0
LINE
8
0
10
16
20
46.8176728
11
16
21
50.2156505
0
LINE
8
0
10
16
20
50.2156505
11
16
21
66.6745463
0
LINE
8
0
10
16
20
66.6745463
11
16
21
68.5759349
0
LINE
8
0
10
16
20
68.5759349
11
16
21
68.6244407
0
LINE
8
0
10
16
20
68.6244407
11
16
21
68.6742438
0
LINE
8
0
10
16
20
68.6742438
11
16
21
68.720803
0
LINE
8
0
10
16
20
68.720803
11
16
21
68.720803
0
LINE
8
0
10
16
20
-11.0281585
11
16
21
-10.9128996
0
LINE
8
0
10
16
20
-10.9128996
11
16
21
-10.5355321
0
LINE
8
0
10
16
20
-10.5355321
11
16
21
-10.1595464
0
LINE
8
0
10
16
20
-10.1595464
11
16
21
-9.81571235
0
LINE
8
0
10
16
20
-9.81571235
11
16
21
-3.80996457
0
LINE
8
0
10
16
20
-3.80996457
11
16
21
7.3722831
0
LINE
8
0
10
16
20
7.3722831
11
16
21
10.3265463
0
LINE
8
0
10
16
20
10.3265463
11
16
21
12.8694728
0
LINE
8
0
10
16
20
12.8694728
11
16
21
15.7730109
0
LINE
8
0
10
16
20
15.7730109
11
16
21
18.9064842
0
LINE
8
0
10
16
20
18.9064842
11
7.3207841
21
18.9064842
0
LINE
8
0
10
7.3207841
20
18.9064842
11
2.4
21
18.9064842
0
LINE
8
0
10
2.4
20
18.9064842
11
2.4
21
17.1973186
0
LINE
8
0
10
2.4
20
17.1973186
11
2.4
21
15.7730109
0
LINE
8
0
10
2.4
20
15.7730109
11
2.4
21
12.8694728
0
LINE
8
0
10
2.4
20
12.8694728
11
2.4
21
11.4177078
0
LINE
8
0
10
2.4
20
11.4177078
11
2.4
21
8.6094209
0
LINE
8
0
10
2.4
20
8.6094209
11
2.4
21
6.58892184
0
LINE
8
0
10
2.4
20
6.58892184
11
2.4
21
6.48601969
0
LINE
8
0
10
2.4
20
6.48601969
11
2.4
21
1.71099607
0
LINE
8
0
10
2.4
20
1.71099607
11
2.4
21
1.42329398
0
LINE
8
0
10
2.4
20
1.42329398
11
2.4
21
1.15796965
0
LINE
8
0
10
2.4
20
1.15796965
11
2.4
21
0.938909111
0
LINE
8
0
10
2.4
20
0.938909111
11
2.4
21
-7.44217783
0
LINE
8
0
10
2.4
20
-7.44217783
11
2.4
21
-7.82427124
0
LINE
8
0
10
2.4
20
-7.82427124
11
2.4
21
-8.04163623
0
LINE
8
0
10
2.4
20
-8.04163623
11
2.4
21
-13.9785131
0
LINE
8
0
10
2.4
20
-13.9785131
11
2.4
21
-14
0
LINE
8
0
10
2.4
20
-14
11
2.40731315
21
-14.1201294
0
LINE
8
0
10
2.40731315
20
-14.1201294
11
2.45179893
21
-14.3934554
0
LINE
8
0
10
2.45179893
20
-14.3934554
11
2.468148
21
-14.51764
0
LINE
8
0
10
2.468148
20
-14.51764
11
2.57208235
21
-14.7685585
0
LINE
8
0
10
2.57208235
20
-14.7685585
11
2.667949
21
-15
0
LINE
8
0
10
2.667949
20
-15
11
2.83328443
21
-15.2154676
0
LINE
8
0
10
2.83328443
20
-15.2154676
11
2.985786
21
-15.41421
0
LINE
8
0
10
2.985786
20
-15.41421
11
3.18491941
21
-15.5669385
0
LINE
8
0
10
3.18491941
20
-15.5669385
11
3.40123235
21
-15.7327645
0
LINE
8
0
10
3.40123235
20
-15.7327645
11
3.63228565
21
-15.8284051
0
LINE
8
0
10
3.63228565
20
-15.8284051
11
3.882362
21
-15.93185
0
LINE
8
0
10
3.882362
20
-15.93185
11
4.03346399
21
-15.9517434
0
LINE
8
0
10
4.03346399
20
-15.9517434
11
4.22353027
21
-15.9826691
0
LINE
8
0
10
4.22353027
20
-15.9826691
11
4.4
21
-16
0
LINE
8
0
10
4.4
20
-16
11
11.4043509
21
-16
0
LINE
8
0
10
11.4043509
20
-16
11
14
21
-16
0
LINE
8
0
10
14
20
-16
11
14.2457312
21
-15.9791974
0
LINE
8
0
10
14.2457312
20
-15.9791974
11
14.4293421
21
-15.9508631
0
LINE
8
0
10
14.4293421
20
-15.9508631
11
14.5921635
21
-15.9086102
0
LINE
8
0
10
14.5921635
20
-15.9086102
11
14.8372002
21
-15.8072148
0
LINE
8
0
10
14.8372002
20
-15.8072148
11
14.9981553
21
-15.7329886
0
LINE
8
0
10
14.9981553
20
-15.7329886
11
15.1570188
21
-15.6207308
0
LINE
8
0
10
15.1570188
20
-15.6207308
11
15.3542107
21
-15.4695285
0
LINE
8
0
10
15.3542107
20
-15.4695285
11
15.494814
21
-15.3239966
0
LINE
8
0
10
15.494814
20
-15.3239966
11
15.6403895
21
-15.1342822
0
LINE
8
0
10
15.6403895
20
-15.1342822
11
15.7632588
21
-14.9418518
0
LINE
8
0
10
15.7632588
20
-14.9418518
11
15.8515509
21
-14.7286957
0
LINE
8
0
10
15.8515509
20
-14.7286957
11
15.9387285
21
-14.4895944
0
LINE
8
0
10
15.9387285
20
-14.4895944
11
15.9628553
21
-14.3555168
0
LINE
8
0
10
15.9628553
20
-14.3555168
11
15.975514
21
-14.2893263
0
LINE
8
0
10
15.975514
20
-14.2893263
11
15.9882918
21
-14.192271
0
LINE
8
0
10
15.9882918
20
-14.192271
11
16
21
-14
0
LINE
8
0
10
16
20
-14
11
16
21
-12.1766897
0
LINE
8
0
10
16
20
-12.1766897
11
16
21
-11.9170211
0
LINE
8
0
10
16
20
-11.9170211
11
16
21
-11.600682
0
LINE
8
0
10
16
20
-11.600682
11
16
21
-11.4946765
0
LINE
8
0
10
16
20
-11.4946765
11
16
21
-11.1372635
0
LINE
8
0
10
16
20
-11.1372635
11
16
21
-11.0281585
0
LINE
8
0
10
16
20
-11.0281585
11
16
21
-11.0281585
0
LINE
8
0
10
16
20
24.4332621
11
16
21
27.566736
0
LINE
8
0
10
16
20
27.566736
11
16
21
31.361464
0
LINE
8
0
10
16
20
31.361464
11
16
21
37.9590399
0
LINE
8
0
10
16
20
37.9590399
11
12.7607841
21
37.9590399
0
LINE
8
0
10
12.7607841
20
37.9590399
11
2.4
21
37.9590399
0
LINE
8
0
10
2.4
20
37.9590399
11
2.4
21
34.3603621
0
LINE
8
0
10
2.4
20
34.3603621
11
2.4
21
31.361464
0
LINE
8
0
10
2.4
20
31.361464
11
2.4
21
29.8435728
0
LINE
8
0
10
2.4
20
29.8435728
11
2.4
21
27.566736
0
LINE
8
0
10
2.4
20
27.566736
11
2.4
21
25.8259172
0
LINE
8
0
10
2.4
20
25.8259172
11
2.4
21
24.4332621
0
LINE
8
0
10
2.4
20
24.4332621
11
11.0792159
21
24.4332621
0
LINE
8
0
10
11.0792159
20
24.4332621
11
16
21
24.4332621
0
LINE
8
0
10
16
20
24.4332621
11
16
21
24.4332621
0
ENDSEC
0
EOF
