0
SECTION
2
ENTITIES
0
LINE
8
0
10
16
20
10.1274003
11
16
21
7.35023483
0
LINE
8
0
10
16
20
7.35023483
11
16
21
-4.39084826
0
LINE
8
0
10
16
20
-4.39084826
11
16
21
-10.0365725
0
LINE
8
0
10
16
20
-10.0365725
11
16
21
-10.3597949
0
LINE
8
0
10
16
20
-10.3597949
11
16
21
-10.7132415
0
LINE
8
0
10
16
20
-10.7132415
11
16
21
-11.0679872
0
LINE
8
0
10
16
20
-11.0679872
11
16
21
-11.1861558
0
LINE
8
0
10
16
20
-11.1861558
11
16
21
-11.2980151
0
LINE
8
0
10
16
20
-11.2980151
11
16
21
-11.6341275
0
LINE
8
0
10
16
20
-11.6341275
11
16
21
-11.742641
0
LINE
8
0
10
16
20
-11.742641
11
16
21
-12.0402635
0
LINE
8
0
10
16
20
-12.0402635
11
16
21
-12.2845685
0
LINE
8
0
10
16
20
-12.2845685
11
16
21
-14
0
LINE
8
0
10
16
20
-14
11
15.9881344
21
-14.1948557
0
LINE
8
0
10
15.9881344
20
-14.1948557
11
15.9761009
21
-14.2862571
0
LINE
8
0
10
15.9761009
20
-14.2862571
11
15.9641797
21
-14.3485919
0
LINE
8
0
10
15.9641797
20
-14.3485919
11
15.9390223
21
-14.4883965
0
LINE
8
0
10
15.9390223
20
-14.4883965
11
15.848121
21
-14.7377108
0
LINE
8
0
10
15.848121
20
-14.7377108
11
15.7645919
21
-14.9393681
0
LINE
8
0
10
15.7645919
20
-14.9393681
11
15.6364743
21
-15.140018
0
LINE
8
0
10
15.6364743
20
-15.140018
11
15.498257
21
-15.3201432
0
LINE
8
0
10
15.498257
20
-15.3201432
11
15.3516479
21
-15.4718914
0
LINE
8
0
10
15.3516479
20
-15.4718914
11
15.1637782
21
-15.6159456
0
LINE
8
0
10
15.1637782
20
-15.6159456
11
14.9981291
21
-15.7329984
0
LINE
8
0
10
14.9981291
20
-15.7329984
11
14.8302989
21
-15.8103951
0
LINE
8
0
10
14.8302989
20
-15.8103951
11
14.5953467
21
-15.9076175
0
LINE
8
0
10
14.5953467
20
-15.9076175
11
14.4255705
21
-15.9516752
0
LINE
8
0
10
14.4255705
20
-15.9516752
11
14.2490345
21
-15.9789178
0
LINE
8
0
10
14.2490345
20
-15.9789178
11
14
21
-16
0
LINE
8
0
10
14
20
-16
11
11.4985078
21
-16
0
LINE
8
0
10
11.4985078
20
-16
11
4.4
21
-16
0
LINE
8
0
10
4.4
20
-16
11
4.22638815
21
-15.9829497
0
LINE
8
0
10
4.22638815
20
-15.9829497
11
4.03939994
21
-15.9525249
0
LINE
8
0
10
4.03939994
20
-15.9525249
11
3.882362
21
-15.93185
0
LINE
8
0
10
3.882362
20
-15.93185
11
3.62246154
21
-15.8243414
0
LINE
8
0
10
3.62246154
20
-15.8243414
11
3.40124891
21
-15.7327741
0
LINE
8
0
10
3.40124891
20
-15.7327741
11
3.17643824
21
-15.5604338
0
LINE
8
0
10
3.17643824
20
-15.5604338
11
2.985786
21
-15.41421
0
LINE
8
0
10
2.985786
20
-15.41421
11
2.83977953
21
-15.2239322
0
LINE
8
0
10
2.83977953
20
-15.2239322
11
2.667949
21
-15
0
LINE
8
0
10
2.667949
20
-15
11
2.57616535
21
-14.7784157
0
LINE
8
0
10
2.57616535
20
-14.7784157
11
2.468148
21
-14.51764
0
LINE
8
0
10
2.468148
20
-14.51764
11
2.45249524
21
-14.3987444
0
LINE
8
0
10
2.45249524
20
-14.3987444
11
2.40741146
21
-14.1217442
0
LINE
8
0
10
2.40741146
20
-14.1217442
11
2.4
21
-14
0
LINE
8
0
10
2.4
20
-14
11
2.4
21
-13.9788099
0
LINE
8
0
10
2.4
20
-13.9788099
11
2.4
21
-8.12391785
0
LINE
8
0
10
2.4
20
-8.12391785
11
2.4
21
-7.9024125
0
LINE
8
0
10
2.4
20
-7.9024125
11
2.4
21
-7.52557961
0
LINE
8
0
10
2.4
20
-7.52557961
11
2.4
21
1.02059438
0
LINE
8
0
10
2.4
20
1.02059438
11
2.4
21
1.23380929
0
LINE
8
0
10
2.4
20
1.23380929
11
2.4
21
1.49205344
0
LINE
8
0
10
2.4
20
1.49205344
11
2.4
21
1.77207819
0
LINE
8
0
10
2.4
20
1.77207819
11
2.4
21
6.4196802
0
LINE
8
0
10
2.4
20
6.4196802
11
2.4
21
6.52772491
0
LINE
8
0
10
2.4
20
6.52772491
11
2.4
21
8.64919888
0
LINE
8
0
10
2.4
20
8.64919888
11
2.4
21
11.3381519
0
LINE
8
0
10
2.4
20
11.3381519
11
2.4
21
12.9490288
0
LINE
8
0
10
2.4
20
12.9490288
11
2.4
21
16.1707915
0
LINE
8
0
10
2.4
20
16.1707915
11
2.4
21
17.2334806
0
LINE
8
0
10
2.4
20
17.2334806
11
2.4
21
18.5087049
0
LINE
8
0
10
2.4
20
18.5087049
11
6.07144248
21
18.5087049
0
LINE
8
0
10
6.07144248
20
18.5087049
11
16
21
18.5087049
0
LINE
8
0
10
16
20
18.5087049
11
16
21
16.1707915
0
LINE
8
0
10
16
20
16.1707915
11
16
21
12.9490288
0
LINE
8
0
10
16
20
12.9490288
11
16
21
10.1274003
0
LINE
8
0
10
16
20
10.1274003
11
16
21
10.1274003
0
LINE
8
0
10
16
20
69
11
16
21
68.8861049
0
LINE
8
0
10
16
20
68.8861049
11
16
21
68.8671116
0
LINE
8
0
10
16
20
68.8671116
11
16
21
68.8467951
0
LINE
8
0
10
16
20
68.8467951
11
16
21
68.8270077
0
LINE
8
0
10
16
20
68.8270077
11
16
21
68.0513588
0
LINE
8
0
10
16
20
68.0513588
11
16
21
50.1360944
0
LINE
8
0
10
16
20
50.1360944
11
16
21
46.8972288
0
LINE
8
0
10
16
20
46.8972288
11
16
21
46.2215162
0
LINE
8
0
10
16
20
46.2215162
11
16
21
40.4195004
0
LINE
8
0
10
16
20
40.4195004
11
6.88855752
21
40.4195004
0
LINE
8
0
10
6.88855752
20
40.4195004
11
2.4
21
40.4195004
0
LINE
8
0
10
2.4
20
40.4195004
11
2.4
21
42.9981741
0
LINE
8
0
10
2.4
20
42.9981741
11
2.4
21
46.2215162
0
LINE
8
0
10
2.4
20
46.2215162
11
2.4
21
46.8972288
0
LINE
8
0
10
2.4
20
46.8972288
11
2.4
21
50.1360944
0
LINE
8
0
10
2.4
20
50.1360944
11
2.4
21
51.6040619
0
LINE
8
0
10
2.4
20
51.6040619
11
2.4
21
63.3252775
0
LINE
8
0
10
2.4
20
63.3252775
11
2.4
21
67.9553712
0
LINE
8
0
10
2.4
20
67.9553712
11
2.4
21
68.0351298
0
LINE
8
0
10
2.4
20
68.0351298
11
2.4
21
68.1133378
0
LINE
8
0
10
2.4
20
68.1133378
11
2.4
21
68.1828344
0
LINE
8
0
10
2.4
20
68.1828344
11
2.4
21
69
0
LINE
8
0
10
2.4
20
69
11
2.41130862
21
69.0858983
0
LINE
8
0
10
2.41130862
20
69.0858983
11
2.468148
21
69.51764
0
LINE
8
0
10
2.468148
20
69.51764
11
2.50130341
21
69.5976838
0
LINE
8
0
10
2.50130341
20
69.5976838
11
2.667949
21
70
0
LINE
8
0
10
2.667949
20
70
11
2.72069155
21
70.0687349
0
LINE
8
0
10
2.72069155
20
70.0687349
11
2.985786
21
70.41421
0
LINE
8
0
10
2.985786
20
70.41421
11
3.05452156
21
70.466953
0
LINE
8
0
10
3.05452156
20
70.466953
11
3.4
21
70.73205
0
LINE
8
0
10
3.4
20
70.73205
11
3.48004418
21
70.7652052
0
LINE
8
0
10
3.48004418
20
70.7652052
11
3.882362
21
70.93185
0
LINE
8
0
10
3.882362
20
70.93185
11
4.31410204
21
70.988691
0
LINE
8
0
10
4.31410204
20
70.988691
11
4.4
21
71
0
LINE
8
0
10
4.4
20
71
11
12.2864488
21
71
0
LINE
8
0
10
12.2864488
20
71
11
13.0829711
21
71
0
LINE
8
0
10
13.0829711
20
71
11
14
21
71
0
LINE
8
0
10
14
20
71
11
14.0111675
21
70.9985297
0
LINE
8
0
10
14.0111675
20
70.9985297
11
14.51764
21
70.93185
0
LINE
8
0
10
14.51764
20
70.93185
11
14.5280464
21
70.9275395
0
LINE
8
0
10
14.5280464
20
70.9275395
11
15
21
70.73205
0
LINE
8
0
10
15
20
70.73205
11
15.0089361
21
70.7251929
0
LINE
8
0
10
15.0089361
20
70.7251929
11
15.41421
21
70.41421
0
LINE
8
0
10
15.41421
20
70.41421
11
15.4210671
21
70.4052739
0
LINE
8
0
10
15.4210671
20
70.4052739
11
15.73205
21
70
0
LINE
8
0
10
15.73205
20
70
11
15.7363605
21
69.9895936
0
LINE
8
0
10
15.7363605
20
69.9895936
11
15.93185
21
69.51764
0
LINE
8
0
10
15.93185
20
69.51764
11
15.9985297
21
69.0111675
0
LINE
8
0
10
15.9985297
20
69.0111675
11
16
21
69
0
LINE
8
0
10
16
20
69
11
16
21
69
0
LINE
8
0
10
16
20
37.5612596
11
16
21
31.7592438
0
LINE
8
0
10
16
20
31.7592438
11
16
21
27.1689562
0
LINE
8
0
10
16
20
27.1689562
11
16
21
24.8310424
0
LINE
8
0
10
16
20
24.8310424
11
12.3285575
21
24.8310424
0
LINE
8
0
10
12.3285575
20
24.8310424
11
2.4
21
24.8310424
0
LINE
8
0
10
2.4
20
24.8310424
11
2.4
21
25.8701152
0
LINE
8
0
10
2.4
20
25.8701152
11
2.4
21
27.1689562
0
LINE
8
0
10
2.4
20
27.1689562
11
2.4
21
29.9231288
0
LINE
8
0
10
2.4
20
29.9231288
11
2.4
21
31.7592438
0
LINE
8
0
10
2.4
20
31.7592438
11
2.4
21
34.3965237
0
LINE
8
0
10
2.4
20
34.3965237
11
2.4
21
37.5612596
0
LINE
8
0
10
2.4
20
37.5612596
11
11.5114425
21
37.5612596
0
LINE
8
0
10
11.5114425
20
37.5612596
11
16
21
37.5612596
0
LINE
8
0
10
16
20
37.5612596
11
16
21
37.5612596
0
ENDSEC
0
EOF
