0
SECTION
2
ENTITIES
0
LINE
8
0
10
16
20
-1.19807193
11
16
21
-1.33848959
0
LINE
8
0
10
16
20
-1.33848959
11
16
21
-2.72482314
0
LINE
8
0
10
16
20
-2.72482314
11
16
21
-4.18443935
0
LINE
8
0
10
16
20
-4.18443935
11
16
21
-5.82149131
0
LINE
8
0
10
16
20
-5.82149131
11
16
21
-6.44181912
0
LINE
8
0
10
16
20
-6.44181912
11
15.9535821
21
-7.31638043
0
LINE
8
0
10
15.9535821
20
-7.31638043
11
15.93185
21
-7.63790141
0
LINE
8
0
10
15.93185
20
-7.63790141
11
15.8190751
21
-8.18632124
0
LINE
8
0
10
15.8190751
20
-8.18632124
11
15.73205
21
-8.60951856
0
LINE
8
0
10
15.73205
20
-8.60951856
11
15.5857197
21
-8.99364301
0
LINE
8
0
10
15.5857197
20
-8.99364301
11
15.41421
21
-9.37043966
0
LINE
8
0
10
15.41421
20
-9.37043966
11
15.3090553
21
-9.50646735
0
LINE
8
0
10
15.3090553
20
-9.50646735
11
15
21
-9.90624919
0
LINE
8
0
10
15
20
-9.90624919
11
14.7426649
21
-10.0859388
0
LINE
8
0
10
14.7426649
20
-10.0859388
11
14.51764
21
-10.2430681
0
LINE
8
0
10
14.51764
20
-10.2430681
11
14.1845891
21
-10.3169848
0
LINE
8
0
10
14.1845891
20
-10.3169848
11
14
21
-10.3579542
0
LINE
8
0
10
14
20
-10.3579542
11
7.63210792
21
-10.3579542
0
LINE
8
0
10
7.63210792
20
-10.3579542
11
4.4
21
-10.3579542
0
LINE
8
0
10
4.4
20
-10.3579542
11
4.07339886
21
-10.2854688
0
LINE
8
0
10
4.07339886
20
-10.2854688
11
3.882362
21
-10.2430681
0
LINE
8
0
10
3.882362
20
-10.2430681
11
3.62665143
21
-10.0645138
0
LINE
8
0
10
3.62665143
20
-10.0645138
11
3.4
21
-9.90624919
0
LINE
8
0
10
3.4
20
-9.90624919
11
3.24953371
21
-9.71160665
0
LINE
8
0
10
3.24953371
20
-9.71160665
11
2.985786
21
-9.37043966
0
LINE
8
0
10
2.985786
20
-9.37043966
11
2.94004015
21
-9.26993806
0
LINE
8
0
10
2.94004015
20
-9.26993806
11
2.81427792
21
-8.99364301
0
LINE
8
0
10
2.81427792
20
-8.99364301
11
2.71138436
21
-8.723541
0
LINE
8
0
10
2.71138436
20
-8.723541
11
2.667949
21
-8.60951856
0
LINE
8
0
10
2.667949
20
-8.60951856
11
2.5618364
21
-8.09349754
0
LINE
8
0
10
2.5618364
20
-8.09349754
11
2.468148
21
-7.63790141
0
LINE
8
0
10
2.468148
20
-7.63790141
11
2.44641654
21
-7.31638043
0
LINE
8
0
10
2.44641654
20
-7.31638043
11
2.4
21
-6.44181912
0
LINE
8
0
10
2.4
20
-6.44181912
11
2.4
21
-5.89352963
0
LINE
8
0
10
2.4
20
-5.89352963
11
2.4
21
-5.87883932
0
LINE
8
0
10
2.4
20
-5.87883932
11
2.4
21
-4.30814452
0
LINE
8
0
10
2.4
20
-4.30814452
11
2.4
21
-2.83498889
0
LINE
8
0
10
2.4
20
-2.83498889
11
2.4
21
-2.77543758
0
LINE
8
0
10
2.4
20
-2.77543758
11
2.4
21
-1.33278626
0
LINE
8
0
10
2.4
20
-1.33278626
11
2.4
21
-1.2680226
0
LINE
8
0
10
2.4
20
-1.2680226
11
2.4
21
-1.20916148
0
LINE
8
0
10
2.4
20
-1.20916148
11
2.4
21
-1.16199141
0
LINE
8
0
10
2.4
20
-1.16199141
11
2.4
21
-0.625211196
0
LINE
8
0
10
2.4
20
-0.625211196
11
2.4
21
-0.00109114304
0
LINE
8
0
10
2.4
20
-0.00109114304
11
2.4
21
0.772677544
0
LINE
8
0
10
2.4
20
0.772677544
11
2.4
21
2.50535699
0
LINE
8
0
10
2.4
20
2.50535699
11
2.4
21
5.58375274
0
LINE
8
0
10
2.4
20
5.58375274
11
2.4
21
24.0320692
0
LINE
8
0
10
2.4
20
24.0320692
11
2.4
21
28.1655599
0
LINE
8
0
10
2.4
20
28.1655599
11
2.4
21
48.3367276
0
LINE
8
0
10
2.4
20
48.3367276
11
2.4
21
52.6304158
0
LINE
8
0
10
2.4
20
52.6304158
11
2.4
21
54.0661642
0
LINE
8
0
10
2.4
20
54.0661642
11
2.4
21
55.011453
0
LINE
8
0
10
2.4
20
55.011453
11
2.4
21
55.5041802
0
LINE
8
0
10
2.4
20
55.5041802
11
2.4
21
55.989812
0
LINE
8
0
10
2.4
20
55.989812
11
2.4
21
56.026743
0
LINE
8
0
10
2.4
20
56.026743
11
2.4
21
56.0781151
0
LINE
8
0
10
2.4
20
56.0781151
11
2.4
21
56.1399369
0
LINE
8
0
10
2.4
20
56.1399369
11
2.4
21
57.5521028
0
LINE
8
0
10
2.4
20
57.5521028
11
2.4
21
57.6118588
0
LINE
8
0
10
2.4
20
57.6118588
11
2.4
21
59.0387938
0
LINE
8
0
10
2.4
20
59.0387938
11
2.4
21
59.083193
0
LINE
8
0
10
2.4
20
59.083193
11
2.4
21
60.561991
0
LINE
8
0
10
2.4
20
60.561991
11
2.4
21
61.1777793
0
LINE
8
0
10
2.4
20
61.1777793
11
2.43965015
21
61.9388128
0
LINE
8
0
10
2.43965015
20
61.9388128
11
2.468148
21
62.3705429
0
LINE
8
0
10
2.468148
20
62.3705429
11
2.63997957
21
63.2267996
0
LINE
8
0
10
2.63997957
20
63.2267996
11
2.667949
21
63.3661742
0
LINE
8
0
10
2.667949
20
63.3661742
11
2.70915743
21
63.4770216
0
LINE
8
0
10
2.70915743
20
63.4770216
11
2.985786
21
64.0990334
0
LINE
8
0
10
2.985786
20
64.0990334
11
3.16986193
21
64.342732
0
LINE
8
0
10
3.16986193
20
64.342732
11
3.4
21
64.6474187
0
LINE
8
0
10
3.4
20
64.6474187
11
3.74640767
21
64.8949919
0
LINE
8
0
10
3.74640767
20
64.8949919
11
3.882362
21
64.9921566
0
LINE
8
0
10
3.882362
20
64.9921566
11
4.30268853
21
65.0876337
0
LINE
8
0
10
4.30268853
20
65.0876337
11
4.4
21
65.1097379
0
LINE
8
0
10
4.4
20
65.1097379
11
12.3022619
21
65.1097379
0
LINE
8
0
10
12.3022619
20
65.1097379
11
14
21
65.1097379
0
LINE
8
0
10
14
20
65.1097379
11
14.4039839
21
65.0179734
0
LINE
8
0
10
14.4039839
20
65.0179734
11
14.51764
21
64.9921566
0
LINE
8
0
10
14.51764
20
64.9921566
11
14.836396
21
64.7643447
0
LINE
8
0
10
14.836396
20
64.7643447
11
15
21
64.6474187
0
LINE
8
0
10
15
20
64.6474187
11
15.1975185
21
64.3859228
0
LINE
8
0
10
15.1975185
20
64.3859228
11
15.41421
21
64.0990334
0
LINE
8
0
10
15.41421
20
64.0990334
11
15.4912578
21
63.9257849
0
LINE
8
0
10
15.4912578
20
63.9257849
11
15.6908412
21
63.4770216
0
LINE
8
0
10
15.6908412
20
63.4770216
11
15.7192895
21
63.4004995
0
LINE
8
0
10
15.7192895
20
63.4004995
11
15.73205
21
63.3661742
0
LINE
8
0
10
15.73205
20
63.3661742
11
15.8541948
21
62.7575069
0
LINE
8
0
10
15.8541948
20
62.7575069
11
15.93185
21
62.3705429
0
LINE
8
0
10
15.93185
20
62.3705429
11
15.9603487
21
61.9388128
0
LINE
8
0
10
15.9603487
20
61.9388128
11
16
21
61.1777793
0
LINE
8
0
10
16
20
61.1777793
11
16
21
60.5200935
0
LINE
8
0
10
16
20
60.5200935
11
16
21
59.0030633
0
LINE
8
0
10
16
20
59.0030633
11
16
21
57.6037278
0
LINE
8
0
10
16
20
57.6037278
11
16
21
56.2397619
0
LINE
8
0
10
16
20
56.2397619
11
16
21
56.1140762
0
LINE
8
0
10
16
20
56.1140762
11
16
21
55.9980203
0
LINE
8
0
10
16
20
55.9980203
11
16
21
54.0661642
0
LINE
8
0
10
16
20
54.0661642
11
16
21
52.6304158
0
LINE
8
0
10
16
20
52.6304158
11
16
21
48.3367276
0
LINE
8
0
10
16
20
48.3367276
11
16
21
28.1655599
0
LINE
8
0
10
16
20
28.1655599
11
16
21
24.0320692
0
LINE
8
0
10
16
20
24.0320692
11
16
21
5.58375274
0
LINE
8
0
10
16
20
5.58375274
11
16
21
2.50535699
0
LINE
8
0
10
16
20
2.50535699
11
16
21
0.772677544
0
LINE
8
0
10
16
20
0.772677544
11
16
21
-1.07164025
0
LINE
8
0
10
16
20
-1.07164025
11
16
21
-1.19807193
0
LINE
8
0
10
16
20
-1.19807193
11
16
21
-1.19807193
0
ENDSEC
0
EOF
