0
SECTION
2
ENTITIES
0
LINE
8
0
10
16
20
65.5515557
11
16
21
49.8178699
0
LINE
8
0
10
16
20
49.8178699
11
16
21
47.2154526
0
LINE
8
0
10
16
20
47.2154526
11
16
21
44.630397
0
LINE
8
0
10
16
20
44.630397
11
16
21
42.0106215
0
LINE
8
0
10
16
20
42.0106215
11
11.885924
21
42.0106215
0
LINE
8
0
10
11.885924
20
42.0106215
11
2.4
21
42.0106215
0
LINE
8
0
10
2.4
20
42.0106215
11
2.4
21
43.1749662
0
LINE
8
0
10
2.4
20
43.1749662
11
2.4
21
44.630397
0
LINE
8
0
10
2.4
20
44.630397
11
2.4
21
47.2154526
0
LINE
8
0
10
2.4
20
47.2154526
11
2.4
21
49.8178699
0
LINE
8
0
10
2.4
20
49.8178699
11
2.4
21
51.7631738
0
LINE
8
0
10
2.4
20
51.7631738
11
2.4
21
67.2957562
0
LINE
8
0
10
2.4
20
67.2957562
11
2.4
21
68.686275
0
LINE
8
0
10
2.4
20
68.686275
11
2.4
21
68.7102283
0
LINE
8
0
10
2.4
20
68.7102283
11
2.4
21
68.7337159
0
LINE
8
0
10
2.4
20
68.7337159
11
2.4
21
68.7545872
0
LINE
8
0
10
2.4
20
68.7545872
11
2.4
21
69
0
LINE
8
0
10
2.4
20
69
11
2.40339623
21
69.0257971
0
LINE
8
0
10
2.40339623
20
69.0257971
11
2.468148
21
69.51764
0
LINE
8
0
10
2.468148
20
69.51764
11
2.4781053
21
69.5416789
0
LINE
8
0
10
2.4781053
20
69.5416789
11
2.667949
21
70
0
LINE
8
0
10
2.667949
20
70
11
2.68378875
21
70.0206426
0
LINE
8
0
10
2.68378875
20
70.0206426
11
2.985786
21
70.41421
0
LINE
8
0
10
2.985786
20
70.41421
11
3.0064288
21
70.4300499
0
LINE
8
0
10
3.0064288
20
70.4300499
11
3.4
21
70.73205
0
LINE
8
0
10
3.4
20
70.73205
11
3.42403903
21
70.7420072
0
LINE
8
0
10
3.42403903
20
70.7420072
11
3.882362
21
70.93185
0
LINE
8
0
10
3.882362
20
70.93185
11
4.37420296
21
70.9966037
0
LINE
8
0
10
4.37420296
20
70.9966037
11
4.4
21
71
0
LINE
8
0
10
4.4
20
71
11
12.7857049
21
71
0
LINE
8
0
10
12.7857049
20
71
11
13.024918
21
71
0
LINE
8
0
10
13.024918
20
71
11
13.3414774
21
71
0
LINE
8
0
10
13.3414774
20
71
11
13.4595677
21
71
0
LINE
8
0
10
13.4595677
20
71
11
13.5599894
21
71
0
LINE
8
0
10
13.5599894
20
71
11
13.6480129
21
71
0
LINE
8
0
10
13.6480129
20
71
11
13.7272353
21
71
0
LINE
8
0
10
13.7272353
20
71
11
13.7469836
21
71
0
LINE
8
0
10
13.7469836
20
71
11
13.9023599
21
70.9922469
0
LINE
8
0
10
13.9023599
20
70.9922469
11
14.0539831
21
70.9833487
0
LINE
8
0
10
14.0539831
20
70.9833487
11
14.121968
21
70.9724407
0
LINE
8
0
10
14.121968
20
70.9724407
11
14.2662865
21
70.9471038
0
LINE
8
0
10
14.2662865
20
70.9471038
11
14.3255098
21
70.936139
0
LINE
8
0
10
14.3255098
20
70.936139
11
14.3580718
21
70.9295942
0
LINE
8
0
10
14.3580718
20
70.9295942
11
14.5269795
21
70.8761593
0
LINE
8
0
10
14.5269795
20
70.8761593
11
14.6447893
21
70.8356823
0
LINE
8
0
10
14.6447893
20
70.8356823
11
14.7425614
21
70.7906592
0
LINE
8
0
10
14.7425614
20
70.7906592
11
14.9198983
21
70.701733
0
LINE
8
0
10
14.9198983
20
70.701733
11
14.9625741
21
70.6750168
0
LINE
8
0
10
14.9625741
20
70.6750168
11
15.1781836
21
70.5271613
0
LINE
8
0
10
15.1781836
20
70.5271613
11
15.179427
21
70.526147
0
LINE
8
0
10
15.179427
20
70.526147
11
15.1881782
21
70.5182647
0
LINE
8
0
10
15.1881782
20
70.5182647
11
15.3506242
21
70.3659069
0
LINE
8
0
10
15.3506242
20
70.3659069
11
15.3726631
21
70.3430712
0
LINE
8
0
10
15.3726631
20
70.3430712
11
15.5061626
21
70.1817894
0
LINE
8
0
10
15.5061626
20
70.1817894
11
15.5404336
21
70.1351759
0
LINE
8
0
10
15.5404336
20
70.1351759
11
15.6413147
21
69.9758689
0
LINE
8
0
10
15.6413147
20
69.9758689
11
15.6785369
21
69.9076296
0
LINE
8
0
10
15.6785369
20
69.9076296
11
15.7515241
21
69.7511304
0
LINE
8
0
10
15.7515241
20
69.7511304
11
15.7843093
21
69.6649419
0
LINE
8
0
10
15.7843093
20
69.6649419
11
15.8440332
21
69.4273627
0
LINE
8
0
10
15.8440332
20
69.4273627
11
15.881859
21
69.2634078
0
LINE
8
0
10
15.881859
20
69.2634078
11
15.924276
21
69.0221412
0
LINE
8
0
10
15.924276
20
69.0221412
11
15.9888411
21
67.85248
0
LINE
8
0
10
15.9888411
20
67.85248
11
15.9958386
21
67.760186
0
LINE
8
0
10
15.9958386
20
67.760186
11
16
21
67.6829559
0
LINE
8
0
10
16
20
67.6829559
11
16
21
67.2494753
0
LINE
8
0
10
16
20
67.2494753
11
16
21
65.5515557
0
LINE
8
0
10
16
20
65.5515557
11
16
21
65.5515557
0
LINE
8
0
10
16
20
26.422163
11
16
21
25.5778365
0
LINE
8
0
10
16
20
25.5778365
11
3.72592398
21
25.5778365
0
LINE
8
0
10
3.72592398
20
25.5778365
11
2.4
21
25.5778365
0
LINE
8
0
10
2.4
20
25.5778365
11
2.4
21
26.0383787
0
LINE
8
0
10
2.4
20
26.0383787
11
2.4
21
26.422163
0
LINE
8
0
10
2.4
20
26.422163
11
2.4
21
30.2413526
0
LINE
8
0
10
2.4
20
30.2413526
11
2.4
21
33.350363
0
LINE
8
0
10
2.4
20
33.350363
11
2.4
21
34.54117
0
LINE
8
0
10
2.4
20
34.54117
11
2.4
21
35.9701385
0
LINE
8
0
10
2.4
20
35.9701385
11
6.51407602
21
35.9701385
0
LINE
8
0
10
6.51407602
20
35.9701385
11
16
21
35.9701385
0
LINE
8
0
10
16
20
35.9701385
11
16
21
33.350363
0
LINE
8
0
10
16
20
33.350363
11
16
21
28.1108149
0
LINE
8
0
10
16
20
28.1108149
11
16
21
26.422163
0
LINE
8
0
10
16
20
26.422163
11
16
21
26.422163
0
LINE
8
0
10
16
20
-6.71438302
11
16
21
-10.9200131
0
LINE
8
0
10
16
20
-10.9200131
11
16
21
-11.1607888
0
LINE
8
0
10
16
20
-11.1607888
11
16
21
-11.4240794
0
LINE
8
0
10
16
20
-11.4240794
11
16
21
-11.6883376
0
LINE
8
0
10
16
20
-11.6883376
11
16
21
-11.8181449
0
LINE
8
0
10
16
20
-11.8181449
11
16
21
-11.9410215
0
LINE
8
0
10
16
20
-11.9410215
11
16
21
-12.1919314
0
LINE
8
0
10
16
20
-12.1919314
11
16
21
-12.3104773
0
LINE
8
0
10
16
20
-12.3104773
11
16
21
-12.5332332
0
LINE
8
0
10
16
20
-12.5332332
11
16
21
-12.7160835
0
LINE
8
0
10
16
20
-12.7160835
11
16
21
-14
0
LINE
8
0
10
16
20
-14
11
15.9875049
21
-14.2051942
0
LINE
8
0
10
15.9875049
20
-14.2051942
11
15.9784488
21
-14.2739806
0
LINE
8
0
10
15.9784488
20
-14.2739806
11
15.9694772
21
-14.3208921
0
LINE
8
0
10
15.9694772
20
-14.3208921
11
15.9401975
21
-14.4836047
0
LINE
8
0
10
15.9401975
20
-14.4836047
11
15.8344014
21
-14.773771
0
LINE
8
0
10
15.8344014
20
-14.773771
11
15.7699241
21
-14.9294331
0
LINE
8
0
10
15.7699241
20
-14.9294331
11
15.6208135
21
-15.1629609
0
LINE
8
0
10
15.6208135
20
-15.1629609
11
15.5120287
21
-15.3047297
0
LINE
8
0
10
15.5120287
20
-15.3047297
11
15.3413966
21
-15.4813429
0
LINE
8
0
10
15.3413966
20
-15.4813429
11
15.190816
21
-15.5968047
0
LINE
8
0
10
15.190816
20
-15.5968047
11
14.9980241
21
-15.7330374
0
LINE
8
0
10
14.9980241
20
-15.7330374
11
14.8026937
21
-15.8231161
0
LINE
8
0
10
14.8026937
20
-15.8231161
11
14.6080795
21
-15.9036468
0
LINE
8
0
10
14.6080795
20
-15.9036468
11
14.4104843
21
-15.9549238
0
LINE
8
0
10
14.4104843
20
-15.9549238
11
14.2622476
21
-15.9777992
0
LINE
8
0
10
14.2622476
20
-15.9777992
11
14
21
-16
0
LINE
8
0
10
14
20
-16
11
11.8751354
21
-16
0
LINE
8
0
10
11.8751354
20
-16
11
4.4
21
-16
0
LINE
8
0
10
4.4
20
-16
11
4.23781967
21
-15.9840724
0
LINE
8
0
10
4.23781967
20
-15.9840724
11
4.06314375
21
-15.9556509
0
LINE
8
0
10
4.06314375
20
-15.9556509
11
3.882362
21
-15.93185
0
LINE
8
0
10
3.882362
20
-15.93185
11
3.58316514
21
-15.8080863
0
LINE
8
0
10
3.58316514
20
-15.8080863
11
3.40131512
21
-15.7328125
0
LINE
8
0
10
3.40131512
20
-15.7328125
11
3.14251354
21
-15.5344147
0
LINE
8
0
10
3.14251354
20
-15.5344147
11
2.985786
21
-15.41421
0
LINE
8
0
10
2.985786
20
-15.41421
11
2.86575995
21
-15.2577902
0
LINE
8
0
10
2.86575995
20
-15.2577902
11
2.667949
21
-15
0
LINE
8
0
10
2.667949
20
-15
11
2.59249735
21
-14.8178445
0
LINE
8
0
10
2.59249735
20
-14.8178445
11
2.468148
21
-14.51764
0
LINE
8
0
10
2.468148
20
-14.51764
11
2.45528049
21
-14.4199007
0
LINE
8
0
10
2.45528049
20
-14.4199007
11
2.40780469
21
-14.1282036
0
LINE
8
0
10
2.40780469
20
-14.1282036
11
2.4
21
-14
0
LINE
8
0
10
2.4
20
-14
11
2.4
21
-13.9799968
0
LINE
8
0
10
2.4
20
-13.9799968
11
2.4
21
-8.45304431
0
LINE
8
0
10
2.4
20
-8.45304431
11
2.4
21
-8.21497753
0
LINE
8
0
10
2.4
20
-8.21497753
11
2.4
21
-7.8591867
0
LINE
8
0
10
2.4
20
-7.8591867
11
2.4
21
1.34733548
0
LINE
8
0
10
2.4
20
1.34733548
11
2.4
21
1.53716784
0
LINE
8
0
10
2.4
20
1.53716784
11
2.4
21
1.76709125
0
LINE
8
0
10
2.4
20
1.76709125
11
2.4
21
2.01640666
0
LINE
8
0
10
2.4
20
2.01640666
11
2.4
21
6.15432225
0
LINE
8
0
10
2.4
20
6.15432225
11
2.4
21
6.2829372
0
LINE
8
0
10
2.4
20
6.2829372
11
2.4
21
8.8083108
0
LINE
8
0
10
2.4
20
8.8083108
11
2.4
21
11.0199283
0
LINE
8
0
10
2.4
20
11.0199283
11
2.4
21
13.2672526
0
LINE
8
0
10
2.4
20
13.2672526
11
2.4
21
16.9175858
0
LINE
8
0
10
2.4
20
16.9175858
11
2.4
21
17.3866567
0
LINE
8
0
10
2.4
20
17.3866567
11
2.4
21
17.7619125
0
LINE
8
0
10
2.4
20
17.7619125
11
14.674076
21
17.7619125
0
LINE
8
0
10
14.674076
20
17.7619125
11
16
21
17.7619125
0
LINE
8
0
10
16
20
17.7619125
11
16
21
16.9175858
0
LINE
8
0
10
16
20
16.9175858
11
16
21
13.2672526
0
LINE
8
0
10
16
20
13.2672526
11
16
21
9.33081631
0
LINE
8
0
10
16
20
9.33081631
11
16
21
7.26204176
0
LINE
8
0
10
16
20
7.26204176
11
16
21
-6.71438302
0
LINE
8
0
10
16
20
-6.71438302
11
16
21
-6.71438302
0
ENDSEC
0
EOF
