0
SECTION
2
ENTITIES
0
LINE
8
0
10
16
20
49.7383138
11
16
21
64.5100404
0
LINE
8
0
10
16
20
64.5100404
11
16
21
66.7207736
0
LINE
8
0
10
16
20
66.7207736
11
16
21
67.285176
0
LINE
8
0
10
16
20
67.285176
11
15.9945818
21
67.3857316
0
LINE
8
0
10
15.9945818
20
67.3857316
11
15.9854709
21
67.5059006
0
LINE
8
0
10
15.9854709
20
67.5059006
11
15.9232953
21
68.6322716
0
LINE
8
0
10
15.9232953
20
68.6322716
11
15.7983493
21
69.3429617
0
LINE
8
0
10
15.7983493
20
69.3429617
11
15.7255831
21
69.6583645
0
LINE
8
0
10
15.7255831
20
69.6583645
11
15.6970452
21
69.7328055
0
LINE
8
0
10
15.6970452
20
69.7328055
11
15.6047105
21
69.9224684
0
LINE
8
0
10
15.6047105
20
69.9224684
11
15.5786715
21
69.9674224
0
LINE
8
0
10
15.5786715
20
69.9674224
11
15.4738881
21
70.1260528
0
LINE
8
0
10
15.4738881
20
70.1260528
11
15.4281044
21
70.1865451
0
LINE
8
0
10
15.4281044
20
70.1865451
11
15.3223118
21
70.3091712
0
LINE
8
0
10
15.3223118
20
70.3091712
11
15.2482748
21
70.3857849
0
LINE
8
0
10
15.2482748
20
70.3857849
11
15.1550924
21
70.4697161
0
LINE
8
0
10
15.1550924
20
70.4697161
11
15.04299
21
70.5611557
0
LINE
8
0
10
15.04299
20
70.5611557
11
14.9705109
21
70.6108587
0
LINE
8
0
10
14.9705109
20
70.6108587
11
14.7863595
21
70.7261421
0
LINE
8
0
10
14.7863595
20
70.7261421
11
14.7728187
21
70.7329322
0
LINE
8
0
10
14.7728187
20
70.7329322
11
14.7364504
21
70.7496794
0
LINE
8
0
10
14.7364504
20
70.7496794
11
14.5598386
21
70.8261841
0
LINE
8
0
10
14.5598386
20
70.8261841
11
14.4967141
21
70.8512029
0
LINE
8
0
10
14.4967141
20
70.8512029
11
14.3526293
21
70.8942321
0
LINE
8
0
10
14.3526293
20
70.8942321
11
14.1946285
21
70.9374334
0
LINE
8
0
10
14.1946285
20
70.9374334
11
14.1658282
21
70.9424897
0
LINE
8
0
10
14.1658282
20
70.9424897
11
14.1286588
21
70.9484534
0
LINE
8
0
10
14.1286588
20
70.9484534
11
13.9735236
21
70.971299
0
LINE
8
0
10
13.9735236
20
70.971299
11
13.8668097
21
70.9855909
0
LINE
8
0
10
13.8668097
20
70.9855909
11
13.7863261
21
70.9895673
0
LINE
8
0
10
13.7863261
20
70.9895673
11
13.6440108
21
70.9952263
0
LINE
8
0
10
13.6440108
20
70.9952263
11
13.565509
21
70.9983058
0
LINE
8
0
10
13.565509
20
70.9983058
11
13.5070383
21
71
0
LINE
8
0
10
13.5070383
20
71
11
13.4270954
21
71
0
LINE
8
0
10
13.4270954
20
71
11
13.2963438
21
71
0
LINE
8
0
10
13.2963438
20
71
11
13.1425873
21
71
0
LINE
8
0
10
13.1425873
20
71
11
13.0104048
21
71
0
LINE
8
0
10
13.0104048
20
71
11
12.9105189
21
71
0
LINE
8
0
10
12.9105189
20
71
11
4.4
21
71
0
LINE
8
0
10
4.4
20
71
11
4.38922819
21
70.9985818
0
LINE
8
0
10
4.38922819
20
70.9985818
11
3.882362
21
70.93185
0
LINE
8
0
10
3.882362
20
70.93185
11
3.41003774
21
70.7362077
0
LINE
8
0
10
3.41003774
20
70.7362077
11
3.4
21
70.73205
0
LINE
8
0
10
3.4
20
70.73205
11
2.99440561
21
70.4208241
0
LINE
8
0
10
2.99440561
20
70.4208241
11
2.985786
21
70.41421
0
LINE
8
0
10
2.985786
20
70.41421
11
2.67456305
21
70.0086195
0
LINE
8
0
10
2.67456305
20
70.0086195
11
2.667949
21
70
0
LINE
8
0
10
2.667949
20
70
11
2.47230577
21
69.5276777
0
LINE
8
0
10
2.47230577
20
69.5276777
11
2.468148
21
69.51764
0
LINE
8
0
10
2.468148
20
69.51764
11
2.40141813
21
69.0107719
0
LINE
8
0
10
2.40141813
20
69.0107719
11
2.4
21
69
0
LINE
8
0
10
2.4
20
69
11
2.4
21
68.8975254
0
LINE
8
0
10
2.4
20
68.8975254
11
2.4
21
68.8888104
0
LINE
8
0
10
2.4
20
68.8888104
11
2.4
21
68.8790029
0
LINE
8
0
10
2.4
20
68.8790029
11
2.4
21
68.869001
0
LINE
8
0
10
2.4
20
68.869001
11
2.4
21
68.2883759
0
LINE
8
0
10
2.4
20
68.2883759
11
2.4
21
51.8029518
0
LINE
8
0
10
2.4
20
51.8029518
11
2.4
21
49.7383138
0
LINE
8
0
10
2.4
20
49.7383138
11
2.4
21
47.2950086
0
LINE
8
0
10
2.4
20
47.2950086
11
2.4
21
44.2326172
0
LINE
8
0
10
2.4
20
44.2326172
11
2.4
21
43.2191642
0
LINE
8
0
10
2.4
20
43.2191642
11
2.4
21
42.4084017
0
LINE
8
0
10
2.4
20
42.4084017
11
13.1352656
21
42.4084017
0
LINE
8
0
10
13.1352656
20
42.4084017
11
16
21
42.4084017
0
LINE
8
0
10
16
20
42.4084017
11
16
21
44.2326172
0
LINE
8
0
10
16
20
44.2326172
11
16
21
47.2950086
0
LINE
8
0
10
16
20
47.2950086
11
16
21
49.7383138
0
LINE
8
0
10
16
20
49.7383138
11
16
21
49.7383138
0
LINE
8
0
10
16
20
16.5198048
11
16
21
13.3468086
0
LINE
8
0
10
16
20
13.3468086
11
16
21
9.13167031
0
LINE
8
0
10
16
20
9.13167031
11
16
21
7.23999349
0
LINE
8
0
10
16
20
7.23999349
11
16
21
-7.29526671
0
LINE
8
0
10
16
20
-7.29526671
11
16
21
-11.1408732
0
LINE
8
0
10
16
20
-11.1408732
11
16
21
-11.3610373
0
LINE
8
0
10
16
20
-11.3610373
11
16
21
-11.6017889
0
LINE
8
0
10
16
20
-11.6017889
11
16
21
-11.8434252
0
LINE
8
0
10
16
20
-11.8434252
11
16
21
-11.9761422
0
LINE
8
0
10
16
20
-11.9761422
11
16
21
-12.1017731
0
LINE
8
0
10
16
20
-12.1017731
11
16
21
-12.3313824
0
LINE
8
0
10
16
20
-12.3313824
11
16
21
-12.4524364
0
LINE
8
0
10
16
20
-12.4524364
11
16
21
-12.6564756
0
LINE
8
0
10
16
20
-12.6564756
11
16
21
-12.8239622
0
LINE
8
0
10
16
20
-12.8239622
11
16
21
-14
0
LINE
8
0
10
16
20
-14
11
15.9873475
21
-14.2077788
0
LINE
8
0
10
15.9873475
20
-14.2077788
11
15.9790357
21
-14.2709115
0
LINE
8
0
10
15.9790357
20
-14.2709115
11
15.9708015
21
-14.3139672
0
LINE
8
0
10
15.9708015
20
-14.3139672
11
15.9404913
21
-14.4824068
0
LINE
8
0
10
15.9404913
20
-14.4824068
11
15.8309715
21
-14.782786
0
LINE
8
0
10
15.8309715
20
-14.782786
11
15.7712571
21
-14.9269494
0
LINE
8
0
10
15.7712571
20
-14.9269494
11
15.6168983
21
-15.1686967
0
LINE
8
0
10
15.6168983
20
-15.1686967
11
15.5154716
21
-15.3008763
0
LINE
8
0
10
15.5154716
20
-15.3008763
11
15.3388338
21
-15.4837058
0
LINE
8
0
10
15.3388338
20
-15.4837058
11
15.1975755
21
-15.5920195
0
LINE
8
0
10
15.1975755
20
-15.5920195
11
14.9979978
21
-15.7330472
0
LINE
8
0
10
14.9979978
20
-15.7330472
11
14.7957924
21
-15.8262964
0
LINE
8
0
10
14.7957924
20
-15.8262964
11
14.6112627
21
-15.9026542
0
LINE
8
0
10
14.6112627
20
-15.9026542
11
14.4067127
21
-15.9557359
0
LINE
8
0
10
14.4067127
20
-15.9557359
11
14.2655509
21
-15.9775196
0
LINE
8
0
10
14.2655509
20
-15.9775196
11
14
21
-16
0
LINE
8
0
10
14
20
-16
11
11.9692923
21
-16
0
LINE
8
0
10
11.9692923
20
-16
11
4.4
21
-16
0
LINE
8
0
10
4.4
20
-16
11
4.24067755
21
-15.9843531
0
LINE
8
0
10
4.24067755
20
-15.9843531
11
4.0690797
21
-15.9564325
0
LINE
8
0
10
4.0690797
20
-15.9564325
11
3.882362
21
-15.93185
0
LINE
8
0
10
3.882362
20
-15.93185
11
3.57334104
21
-15.8040225
0
LINE
8
0
10
3.57334104
20
-15.8040225
11
3.40133167
21
-15.7328221
0
LINE
8
0
10
3.40133167
20
-15.7328221
11
3.13403237
21
-15.5279099
0
LINE
8
0
10
3.13403237
20
-15.5279099
11
2.985786
21
-15.41421
0
LINE
8
0
10
2.985786
20
-15.41421
11
2.87225505
21
-15.2662547
0
LINE
8
0
10
2.87225505
20
-15.2662547
11
2.667949
21
-15
0
LINE
8
0
10
2.667949
20
-15
11
2.59658035
21
-14.8277017
0
LINE
8
0
10
2.59658035
20
-14.8277017
11
2.468148
21
-14.51764
0
LINE
8
0
10
2.468148
20
-14.51764
11
2.45597681
21
-14.4251898
0
LINE
8
0
10
2.45597681
20
-14.4251898
11
2.407903
21
-14.1298185
0
LINE
8
0
10
2.407903
20
-14.1298185
11
2.4
21
-14
0
LINE
8
0
10
2.4
20
-14
11
2.4
21
-13.9802935
0
LINE
8
0
10
2.4
20
-13.9802935
11
2.4
21
-8.53532593
0
LINE
8
0
10
2.4
20
-8.53532593
11
2.4
21
-8.29311879
0
LINE
8
0
10
2.4
20
-8.29311879
11
2.4
21
-7.94258848
0
LINE
8
0
10
2.4
20
-7.94258848
11
2.4
21
1.42902076
0
LINE
8
0
10
2.4
20
1.42902076
11
2.4
21
1.61300748
0
LINE
8
0
10
2.4
20
1.61300748
11
2.4
21
1.83585071
0
LINE
8
0
10
2.4
20
1.83585071
11
2.4
21
2.07748878
0
LINE
8
0
10
2.4
20
2.07748878
11
2.4
21
6.08798277
0
LINE
8
0
10
2.4
20
6.08798277
11
2.4
21
6.22174027
0
LINE
8
0
10
2.4
20
6.22174027
11
2.4
21
8.84808878
0
LINE
8
0
10
2.4
20
8.84808878
11
2.4
21
10.9403724
0
LINE
8
0
10
2.4
20
10.9403724
11
2.4
21
13.3468086
0
LINE
8
0
10
2.4
20
13.3468086
11
2.4
21
16.5198048
0
LINE
8
0
10
2.4
20
16.5198048
11
2.4
21
17.4308542
0
LINE
8
0
10
2.4
20
17.4308542
11
2.4
21
18.1596918
0
LINE
8
0
10
2.4
20
18.1596918
11
13.4247344
21
18.1596918
0
LINE
8
0
10
13.4247344
20
18.1596918
11
16
21
18.1596918
0
LINE
8
0
10
16
20
18.1596918
11
16
21
16.5198048
0
LINE
8
0
10
16
20
16.5198048
11
16
21
16.5198048
0
LINE
8
0
10
16
20
35.5723583
11
16
21
33.7481428
0
LINE
8
0
10
16
20
33.7481428
11
16
21
30.0997139
0
LINE
8
0
10
16
20
30.0997139
11
16
21
26.8199428
0
LINE
8
0
10
16
20
26.8199428
11
16
21
25.1800563
0
LINE
8
0
10
16
20
25.1800563
11
4.97526559
21
25.1800563
0
LINE
8
0
10
4.97526559
20
25.1800563
11
2.4
21
25.1800563
0
LINE
8
0
10
2.4
20
25.1800563
11
2.4
21
26.0745407
0
LINE
8
0
10
2.4
20
26.0745407
11
2.4
21
26.8199428
0
LINE
8
0
10
2.4
20
26.8199428
11
2.4
21
30.3209086
0
LINE
8
0
10
2.4
20
30.3209086
11
2.4
21
33.7481428
0
LINE
8
0
10
2.4
20
33.7481428
11
2.4
21
34.5773316
0
LINE
8
0
10
2.4
20
34.5773316
11
2.4
21
35.5723583
0
LINE
8
0
10
2.4
20
35.5723583
11
5.26473441
21
35.5723583
0
LINE
8
0
10
5.26473441
20
35.5723583
11
16
21
35.5723583
0
LINE
8
0
10
16
20
35.5723583
11
16
21
35.5723583
0
ENDSEC
0
EOF
