0
SECTION
2
ENTITIES
0
LINE
8
0
10
16
20
-12.6102844
11
16
21
-12.4232763
0
LINE
8
0
10
16
20
-12.4232763
11
16
21
-12.2921368
0
LINE
8
0
10
16
20
-12.2921368
11
16
21
-12.1536005
0
LINE
8
0
10
16
20
-12.1536005
11
16
21
-11.9572078
0
LINE
8
0
10
16
20
-11.9572078
11
16
21
-11.7615343
0
LINE
8
0
10
16
20
-11.7615343
11
16
21
-11.5825935
0
LINE
8
0
10
16
20
-11.5825935
11
16
21
-8.45703409
0
LINE
8
0
10
16
20
-8.45703409
11
16
21
7.19589695
0
LINE
8
0
10
16
20
7.19589695
11
16
21
8.7333783
0
LINE
8
0
10
16
20
8.7333783
11
16
21
13.5059205
0
LINE
8
0
10
16
20
13.5059205
11
16
21
15.7242429
0
LINE
8
0
10
16
20
15.7242429
11
16
21
18.9552505
0
LINE
8
0
10
16
20
18.9552505
11
10.9260512
21
18.9552505
0
LINE
8
0
10
10.9260512
20
18.9552505
11
2.4
21
18.9552505
0
LINE
8
0
10
2.4
20
18.9552505
11
2.4
21
17.5192492
0
LINE
8
0
10
2.4
20
17.5192492
11
2.4
21
15.7242429
0
LINE
8
0
10
2.4
20
15.7242429
11
2.4
21
13.5059205
0
LINE
8
0
10
2.4
20
13.5059205
11
2.4
21
10.7812606
0
LINE
8
0
10
2.4
20
10.7812606
11
2.4
21
8.92764474
0
LINE
8
0
10
2.4
20
8.92764474
11
2.4
21
6.09934641
0
LINE
8
0
10
2.4
20
6.09934641
11
2.4
21
5.95530379
0
LINE
8
0
10
2.4
20
5.95530379
11
2.4
21
2.19965301
0
LINE
8
0
10
2.4
20
2.19965301
11
2.4
21
1.97336961
0
LINE
8
0
10
2.4
20
1.97336961
11
2.4
21
1.76468676
0
LINE
8
0
10
2.4
20
1.76468676
11
2.4
21
1.5923913
0
LINE
8
0
10
2.4
20
1.5923913
11
2.4
21
-8.10939203
0
LINE
8
0
10
2.4
20
-8.10939203
11
2.4
21
-8.44940131
0
LINE
8
0
10
2.4
20
-8.44940131
11
2.4
21
-8.69988916
0
LINE
8
0
10
2.4
20
-8.69988916
11
2.4
21
-13.9808869
0
LINE
8
0
10
2.4
20
-13.9808869
11
2.4
21
-14
0
LINE
8
0
10
2.4
20
-14
11
2.40809961
21
-14.1330482
0
LINE
8
0
10
2.40809961
20
-14.1330482
11
2.45736944
21
-14.435768
0
LINE
8
0
10
2.45736944
20
-14.435768
11
2.468148
21
-14.51764
0
LINE
8
0
10
2.468148
20
-14.51764
11
2.60474635
21
-14.847416
0
LINE
8
0
10
2.60474635
20
-14.847416
11
2.667949
21
-15
0
LINE
8
0
10
2.667949
20
-15
11
2.88524526
21
-15.2831838
0
LINE
8
0
10
2.88524526
20
-15.2831838
11
2.985786
21
-15.41421
0
LINE
8
0
10
2.985786
20
-15.41421
11
3.11707002
21
-15.5149004
0
LINE
8
0
10
3.11707002
20
-15.5149004
11
3.40136477
21
-15.7328413
0
LINE
8
0
10
3.40136477
20
-15.7328413
11
3.55369283
21
-15.795895
0
LINE
8
0
10
3.55369283
20
-15.795895
11
3.882362
21
-15.93185
0
LINE
8
0
10
3.882362
20
-15.93185
11
4.0809516
21
-15.9579955
0
LINE
8
0
10
4.0809516
20
-15.9579955
11
4.2463933
21
-15.9849144
0
LINE
8
0
10
4.2463933
20
-15.9849144
11
4.4
21
-16
0
LINE
8
0
10
4.4
20
-16
11
12.1576061
21
-16
0
LINE
8
0
10
12.1576061
20
-16
11
14
21
-16
0
LINE
8
0
10
14
20
-16
11
14.2721574
21
-15.9769603
0
LINE
8
0
10
14.2721574
20
-15.9769603
11
14.3991696
21
-15.9573601
0
LINE
8
0
10
14.3991696
20
-15.9573601
11
14.6176291
21
-15.9006688
0
LINE
8
0
10
14.6176291
20
-15.9006688
11
14.7819898
21
-15.8326569
0
LINE
8
0
10
14.7819898
20
-15.8326569
11
14.9979453
21
-15.7330667
0
LINE
8
0
10
14.9979453
20
-15.7330667
11
15.2110944
21
-15.582449
0
LINE
8
0
10
15.2110944
20
-15.582449
11
15.3337082
21
-15.4884315
0
LINE
8
0
10
15.3337082
20
-15.4884315
11
15.5223574
21
-15.2931695
0
LINE
8
0
10
15.5223574
20
-15.2931695
11
15.6090679
21
-15.1801682
0
LINE
8
0
10
15.6090679
20
-15.1801682
11
15.7739233
21
-14.9219819
0
LINE
8
0
10
15.7739233
20
-14.9219819
11
15.8241117
21
-14.8008161
0
LINE
8
0
10
15.8241117
20
-14.8008161
11
15.9410789
21
-14.4800109
0
LINE
8
0
10
15.9410789
20
-14.4800109
11
15.9734502
21
-14.3001173
0
LINE
8
0
10
15.9734502
20
-14.3001173
11
15.9802097
21
-14.2647732
0
LINE
8
0
10
15.9802097
20
-14.2647732
11
15.9870327
21
-14.2129481
0
LINE
8
0
10
15.9870327
20
-14.2129481
11
16
21
-14
0
LINE
8
0
10
16
20
-14
11
16
21
-13.0397198
0
LINE
8
0
10
16
20
-13.0397198
11
16
21
-12.9029604
0
LINE
8
0
10
16
20
-12.9029604
11
16
21
-12.7363546
0
LINE
8
0
10
16
20
-12.7363546
11
16
21
-12.6102844
0
LINE
8
0
10
16
20
-12.6102844
11
16
21
-12.6102844
0
LINE
8
0
10
16
20
24.3844957
11
16
21
27.6155024
0
LINE
8
0
10
16
20
27.6155024
11
16
21
34.077512
0
LINE
8
0
10
16
20
34.077512
11
16
21
34.5437024
0
LINE
8
0
10
16
20
34.5437024
11
16
21
34.7767977
0
LINE
8
0
10
16
20
34.7767977
11
2.76605118
21
34.7767977
0
LINE
8
0
10
2.76605118
20
34.7767977
11
2.4
21
34.7767977
0
LINE
8
0
10
2.4
20
34.7767977
11
2.4
21
34.6496548
0
LINE
8
0
10
2.4
20
34.6496548
11
2.4
21
34.5437024
0
LINE
8
0
10
2.4
20
34.5437024
11
2.4
21
30.4800205
0
LINE
8
0
10
2.4
20
30.4800205
11
2.4
21
27.6155024
0
LINE
8
0
10
2.4
20
27.6155024
11
2.4
21
26.1468647
0
LINE
8
0
10
2.4
20
26.1468647
11
2.4
21
24.3844957
0
LINE
8
0
10
2.4
20
24.3844957
11
7.47394882
21
24.3844957
0
LINE
8
0
10
7.47394882
20
24.3844957
11
16
21
24.3844957
0
LINE
8
0
10
16
20
24.3844957
11
16
21
24.3844957
0
LINE
8
0
10
16
20
66.4896163
11
16
21
65.6633702
0
LINE
8
0
10
16
20
65.6633702
11
16
21
62.4270096
0
LINE
8
0
10
16
20
62.4270096
11
16
21
49.5792016
0
LINE
8
0
10
16
20
49.5792016
11
16
21
47.4541205
0
LINE
8
0
10
16
20
47.4541205
11
16
21
43.4370576
0
LINE
8
0
10
16
20
43.4370576
11
16
21
43.2039623
0
LINE
8
0
10
16
20
43.2039623
11
15.6339488
21
43.2039623
0
LINE
8
0
10
15.6339488
20
43.2039623
11
2.4
21
43.2039623
0
LINE
8
0
10
2.4
20
43.2039623
11
2.4
21
43.3075602
0
LINE
8
0
10
2.4
20
43.3075602
11
2.4
21
43.4370576
0
LINE
8
0
10
2.4
20
43.4370576
11
2.4
21
47.4541205
0
LINE
8
0
10
2.4
20
47.4541205
11
2.4
21
49.5792016
0
LINE
8
0
10
2.4
20
49.5792016
11
2.4
21
51.8825077
0
LINE
8
0
10
2.4
20
51.8825077
11
2.4
21
68.1880044
0
LINE
8
0
10
2.4
20
68.1880044
11
2.4
21
68.4896147
0
LINE
8
0
10
2.4
20
68.4896147
11
2.40346037
21
68.542183
0
LINE
8
0
10
2.40346037
20
68.542183
11
2.44479523
21
69.1701283
0
LINE
8
0
10
2.44479523
20
69.1701283
11
2.45403205
21
69.264863
0
LINE
8
0
10
2.45403205
20
69.264863
11
2.473032
21
69.4178242
0
LINE
8
0
10
2.473032
20
69.4178242
11
2.53897141
21
69.5999166
0
LINE
8
0
10
2.53897141
20
69.5999166
11
2.65059022
21
69.9081523
0
LINE
8
0
10
2.65059022
20
69.9081523
11
2.67347772
21
69.9617925
0
LINE
8
0
10
2.67347772
20
69.9617925
11
2.6975613
21
69.9931786
0
LINE
8
0
10
2.6975613
20
69.9931786
11
2.98967885
21
70.3639507
0
LINE
8
0
10
2.98967885
20
70.3639507
11
3.0184489
21
70.3975434
0
LINE
8
0
10
3.0184489
20
70.3975434
11
3.18083718
21
70.5208813
0
LINE
8
0
10
3.18083718
20
70.5208813
11
3.45165216
21
70.7265714
0
LINE
8
0
10
3.45165216
20
70.7265714
11
3.52415811
21
70.7565388
0
LINE
8
0
10
3.52415811
20
70.7565388
11
3.77800937
21
70.8614602
0
LINE
8
0
10
3.77800937
20
70.8614602
11
3.93448602
21
70.9193212
0
LINE
8
0
10
3.93448602
20
70.9193212
11
3.99860218
21
70.9277625
0
LINE
8
0
10
3.99860218
20
70.9277625
11
4.4
21
70.961205
0
LINE
8
0
10
4.4
20
70.961205
11
9.29562659
21
70.961205
0
LINE
8
0
10
9.29562659
20
70.961205
11
13
21
70.961205
0
LINE
8
0
10
13
20
70.961205
11
13.1471872
21
70.9704375
0
LINE
8
0
10
13.1471872
20
70.9704375
11
13.2395436
21
70.9715617
0
LINE
8
0
10
13.2395436
20
70.9715617
11
13.3217409
21
70.9677369
0
LINE
8
0
10
13.3217409
20
70.9677369
11
13.5004053
21
70.9586579
0
LINE
8
0
10
13.5004053
20
70.9586579
11
13.5238058
21
70.9568665
0
LINE
8
0
10
13.5238058
20
70.9568665
11
13.5736165
21
70.9526697
0
LINE
8
0
10
13.5736165
20
70.9526697
11
13.7090174
21
70.9350998
0
LINE
8
0
10
13.7090174
20
70.9350998
11
13.8093383
21
70.9208812
0
LINE
8
0
10
13.8093383
20
70.9208812
11
13.9021968
21
70.9042242
0
LINE
8
0
10
13.9021968
20
70.9042242
11
14.016526
21
70.8817468
0
LINE
8
0
10
14.016526
20
70.8817468
11
14.1002685
21
70.8601036
0
LINE
8
0
10
14.1002685
20
70.8601036
11
14.2074465
21
70.8298349
0
LINE
8
0
10
14.2074465
20
70.8298349
11
14.3001965
21
70.7993344
0
LINE
8
0
10
14.3001965
20
70.7993344
11
14.3691903
21
70.7745043
0
LINE
8
0
10
14.3691903
20
70.7745043
11
14.4975423
21
70.7177812
0
LINE
8
0
10
14.4975423
20
70.7177812
11
14.68089
21
70.6289275
0
LINE
8
0
10
14.68089
20
70.6289275
11
14.7049117
21
70.6153121
0
LINE
8
0
10
14.7049117
20
70.6153121
11
14.7716107
21
70.5738065
0
LINE
8
0
10
14.7716107
20
70.5738065
11
14.8806549
21
70.4984026
0
LINE
8
0
10
14.8806549
20
70.4984026
11
14.9164616
21
70.4711122
0
LINE
8
0
10
14.9164616
20
70.4711122
11
15.0440422
21
70.3605476
0
LINE
8
0
10
15.0440422
20
70.3605476
11
15.1178494
21
70.2892861
0
LINE
8
0
10
15.1178494
20
70.2892861
11
15.1982797
21
70.2018609
0
LINE
8
0
10
15.1982797
20
70.2018609
11
15.2914849
21
70.0870955
0
LINE
8
0
10
15.2914849
20
70.0870955
11
15.3376913
21
70.0232583
0
LINE
8
0
10
15.3376913
20
70.0232583
11
15.4338861
21
69.8686463
0
LINE
8
0
10
15.4338861
20
69.8686463
11
15.4696419
21
69.7997778
0
LINE
8
0
10
15.4696419
20
69.7997778
11
15.5743637
21
69.5020734
0
LINE
8
0
10
15.5743637
20
69.5020734
11
15.6996549
21
69.1052416
0
LINE
8
0
10
15.6996549
20
69.1052416
11
15.7096245
21
69.0567309
0
LINE
8
0
10
15.7096245
20
69.0567309
11
15.9213341
21
67.8525324
0
LINE
8
0
10
15.9213341
20
67.8525324
11
15.9787304
21
66.8127418
0
LINE
8
0
10
15.9787304
20
66.8127418
11
15.9920681
21
66.6368227
0
LINE
8
0
10
15.9920681
20
66.6368227
11
16
21
66.4896163
0
LINE
8
0
10
16
20
66.4896163
11
16
21
66.4896163
0
ENDSEC
0
EOF
