0
SECTION
2
ENTITIES
0
LINE
8
0
10
16
20
-12.0243138
11
16
21
-12.1620313
0
LINE
8
0
10
16
20
-12.1620313
11
16
21
-12.3126268
0
LINE
8
0
10
16
20
-12.3126268
11
16
21
-12.4637757
0
LINE
8
0
10
16
20
-12.4637757
11
16
21
-12.6081313
0
LINE
8
0
10
16
20
-12.6081313
11
16
21
-12.7447794
0
LINE
8
0
10
16
20
-12.7447794
11
16
21
-12.8891863
0
LINE
8
0
10
16
20
-12.8891863
11
16
21
-13.0202727
0
LINE
8
0
10
16
20
-13.0202727
11
16
21
-13.1494453
0
LINE
8
0
10
16
20
-13.1494453
11
16
21
-13.2554773
0
LINE
8
0
10
16
20
-13.2554773
11
16
21
-14
0
LINE
8
0
10
16
20
-14
11
15.9867179
21
-14.2181173
0
LINE
8
0
10
15.9867179
20
-14.2181173
11
15.9813836
21
-14.2586349
0
LINE
8
0
10
15.9813836
20
-14.2586349
11
15.976099
21
-14.2862674
0
LINE
8
0
10
15.976099
20
-14.2862674
11
15.9416665
21
-14.477615
0
LINE
8
0
10
15.9416665
20
-14.477615
11
15.8172519
21
-14.8188462
0
LINE
8
0
10
15.8172519
20
-14.8188462
11
15.7765894
21
-14.9170144
0
LINE
8
0
10
15.7765894
20
-14.9170144
11
15.6012375
21
-15.1916396
0
LINE
8
0
10
15.6012375
20
-15.1916396
11
15.5292433
21
-15.2854627
0
LINE
8
0
10
15.5292433
20
-15.2854627
11
15.3285825
21
-15.4931573
0
LINE
8
0
10
15.3285825
20
-15.4931573
11
15.2246133
21
-15.5728786
0
LINE
8
0
10
15.2246133
20
-15.5728786
11
14.9978928
21
-15.7330862
0
LINE
8
0
10
14.9978928
20
-15.7330862
11
14.7681872
21
-15.8390175
0
LINE
8
0
10
14.7681872
20
-15.8390175
11
14.6239955
21
-15.8986835
0
LINE
8
0
10
14.6239955
20
-15.8986835
11
14.3916265
21
-15.9589844
0
LINE
8
0
10
14.3916265
20
-15.9589844
11
14.278764
21
-15.976401
0
LINE
8
0
10
14.278764
20
-15.976401
11
14
21
-16
0
LINE
8
0
10
14
20
-16
11
12.3459199
21
-16
0
LINE
8
0
10
12.3459199
20
-16
11
4.4
21
-16
0
LINE
8
0
10
4.4
20
-16
11
4.25210906
21
-15.9854758
0
LINE
8
0
10
4.25210906
20
-15.9854758
11
4.09282351
21
-15.9595585
0
LINE
8
0
10
4.09282351
20
-15.9595585
11
3.882362
21
-15.93185
0
LINE
8
0
10
3.882362
20
-15.93185
11
3.53404463
21
-15.7877674
0
LINE
8
0
10
3.53404463
20
-15.7877674
11
3.40139788
21
-15.7328605
0
LINE
8
0
10
3.40139788
20
-15.7328605
11
3.10010768
21
-15.5018908
0
LINE
8
0
10
3.10010768
20
-15.5018908
11
2.985786
21
-15.41421
0
LINE
8
0
10
2.985786
20
-15.41421
11
2.89823547
21
-15.3001128
0
LINE
8
0
10
2.89823547
20
-15.3001128
11
2.667949
21
-15
0
LINE
8
0
10
2.667949
20
-15
11
2.61291235
21
-14.8671304
0
LINE
8
0
10
2.61291235
20
-14.8671304
11
2.468148
21
-14.51764
0
LINE
8
0
10
2.468148
20
-14.51764
11
2.45876206
21
-14.4463461
0
LINE
8
0
10
2.45876206
20
-14.4463461
11
2.40829623
21
-14.1362779
0
LINE
8
0
10
2.40829623
20
-14.1362779
11
2.4
21
-14
0
LINE
8
0
10
2.4
20
-14
11
2.4
21
-13.9814804
0
LINE
8
0
10
2.4
20
-13.9814804
11
2.4
21
-8.8644524
0
LINE
8
0
10
2.4
20
-8.8644524
11
2.4
21
-8.60568382
0
LINE
8
0
10
2.4
20
-8.60568382
11
2.4
21
-8.27619557
0
LINE
8
0
10
2.4
20
-8.27619557
11
2.4
21
1.75576185
0
LINE
8
0
10
2.4
20
1.75576185
11
2.4
21
1.91636604
0
LINE
8
0
10
2.4
20
1.91636604
11
2.4
21
2.11088852
0
LINE
8
0
10
2.4
20
2.11088852
11
2.4
21
2.32181725
0
LINE
8
0
10
2.4
20
2.32181725
11
2.4
21
5.82262482
0
LINE
8
0
10
2.4
20
5.82262482
11
2.4
21
5.97695255
0
LINE
8
0
10
2.4
20
5.97695255
11
2.4
21
9.0072007
0
LINE
8
0
10
2.4
20
9.0072007
11
2.4
21
10.6221488
0
LINE
8
0
10
2.4
20
10.6221488
11
2.4
21
13.6650324
0
LINE
8
0
10
2.4
20
13.6650324
11
2.4
21
14.928681
0
LINE
8
0
10
2.4
20
14.928681
11
2.4
21
17.6076442
0
LINE
8
0
10
2.4
20
17.6076442
11
2.4
21
19.7508092
0
LINE
8
0
10
2.4
20
19.7508092
11
8.42736795
21
19.7508092
0
LINE
8
0
10
8.42736795
20
19.7508092
11
16
21
19.7508092
0
LINE
8
0
10
16
20
19.7508092
11
16
21
14.928681
0
LINE
8
0
10
16
20
14.928681
11
16
21
13.6650324
0
LINE
8
0
10
16
20
13.6650324
11
16
21
8.3350863
0
LINE
8
0
10
16
20
8.3350863
11
16
21
7.15180042
0
LINE
8
0
10
16
20
7.15180042
11
16
21
-9.61880147
0
LINE
8
0
10
16
20
-9.61880147
11
16
21
-12.0243138
0
LINE
8
0
10
16
20
-12.0243138
11
16
21
-12.0243138
0
LINE
8
0
10
16
20
28.411062
11
16
21
23.5889352
0
LINE
8
0
10
16
20
23.5889352
11
9.97263205
21
23.5889352
0
LINE
8
0
10
9.97263205
20
23.5889352
11
2.4
21
23.5889352
0
LINE
8
0
10
2.4
20
23.5889352
11
2.4
21
26.2191887
0
LINE
8
0
10
2.4
20
26.2191887
11
2.4
21
28.411062
0
LINE
8
0
10
2.4
20
28.411062
11
2.4
21
30.6391324
0
LINE
8
0
10
2.4
20
30.6391324
11
2.4
21
33.981238
0
LINE
8
0
10
2.4
20
33.981238
11
2.4
21
34.7356962
0
LINE
8
0
10
2.4
20
34.7356962
11
2.4
21
35.3392628
0
LINE
8
0
10
2.4
20
35.3392628
11
13.867368
21
35.3392628
0
LINE
8
0
10
13.867368
20
35.3392628
11
16
21
35.3392628
0
LINE
8
0
10
16
20
35.3392628
11
16
21
33.981238
0
LINE
8
0
10
16
20
33.981238
11
16
21
28.411062
0
LINE
8
0
10
16
20
28.411062
11
16
21
28.411062
0
LINE
8
0
10
16
20
43.999522
11
16
21
42.6414972
0
LINE
8
0
10
16
20
42.6414972
11
4.53263205
21
42.6414972
0
LINE
8
0
10
4.53263205
20
42.6414972
11
2.4
21
42.6414972
0
LINE
8
0
10
2.4
20
42.6414972
11
2.4
21
43.382238
0
LINE
8
0
10
2.4
20
43.382238
11
2.4
21
43.999522
0
LINE
8
0
10
2.4
20
43.999522
11
2.4
21
47.6132324
0
LINE
8
0
10
2.4
20
47.6132324
11
2.4
21
49.4200893
0
LINE
8
0
10
2.4
20
49.4200893
11
2.4
21
51.9620637
0
LINE
8
0
10
2.4
20
51.9620637
11
2.4
21
66.9223117
0
LINE
8
0
10
2.4
20
66.9223117
11
2.4
21
67.6940549
0
LINE
8
0
10
2.4
20
67.6940549
11
2.4088542
21
67.8285637
0
LINE
8
0
10
2.4088542
20
67.8285637
11
2.468148
21
68.7293352
0
LINE
8
0
10
2.468148
20
68.7293352
11
2.61436037
21
69.4353131
0
LINE
8
0
10
2.61436037
20
69.4353131
11
2.62125874
21
69.4659854
0
LINE
8
0
10
2.62125874
20
69.4659854
11
2.67138241
21
69.6466115
0
LINE
8
0
10
2.67138241
20
69.6466115
11
2.72075342
21
69.7481837
0
LINE
8
0
10
2.72075342
20
69.7481837
11
2.79073025
21
69.8823022
0
LINE
8
0
10
2.79073025
20
69.8823022
11
2.91340846
21
70.0659834
0
LINE
8
0
10
2.91340846
20
70.0659834
11
2.992458
21
70.1843411
0
LINE
8
0
10
2.992458
20
70.1843411
11
3.17728545
21
70.3477992
0
LINE
8
0
10
3.17728545
20
70.3477992
11
3.406907
21
70.5508754
0
LINE
8
0
10
3.406907
20
70.5508754
11
3.5006632
21
70.5958311
0
LINE
8
0
10
3.5006632
20
70.5958311
11
3.84460529
21
70.7607505
0
LINE
8
0
10
3.84460529
20
70.7607505
11
3.88136438
21
70.7759434
0
LINE
8
0
10
3.88136438
20
70.7759434
11
3.89025248
21
70.779617
0
LINE
8
0
10
3.89025248
20
70.779617
11
3.90950097
21
70.7825882
0
LINE
8
0
10
3.90950097
20
70.7825882
11
4.4
21
70.8339515
0
LINE
8
0
10
4.4
20
70.8339515
11
8.61384935
21
70.8339515
0
LINE
8
0
10
8.61384935
20
70.8339515
11
13
21
70.8339515
0
LINE
8
0
10
13
20
70.8339515
11
13.3028108
21
70.8368636
0
LINE
8
0
10
13.3028108
20
70.8368636
11
13.3339732
21
70.836644
0
LINE
8
0
10
13.3339732
20
70.836644
11
13.3673305
21
70.8328729
0
LINE
8
0
10
13.3673305
20
70.8328729
11
13.4546886
21
70.8222319
0
LINE
8
0
10
13.4546886
20
70.8222319
11
13.6123964
21
70.79848
0
LINE
8
0
10
13.6123964
20
70.79848
11
13.6954521
21
70.7850396
0
LINE
8
0
10
13.6954521
20
70.7850396
11
13.841898
21
70.7485634
0
LINE
8
0
10
13.841898
20
70.7485634
11
14.0355034
21
70.6962323
0
LINE
8
0
10
14.0355034
20
70.6962323
11
14.0734783
21
70.6842109
0
LINE
8
0
10
14.0734783
20
70.6842109
11
14.1190969
21
70.6686086
0
LINE
8
0
10
14.1190969
20
70.6686086
11
14.2668998
21
70.6033648
0
LINE
8
0
10
14.2668998
20
70.6033648
11
14.364928
21
70.5561742
0
LINE
8
0
10
14.364928
20
70.5561742
11
14.4582865
21
70.5053756
0
LINE
8
0
10
14.4582865
20
70.5053756
11
14.6485637
21
70.3919498
0
LINE
8
0
10
14.6485637
20
70.3919498
11
14.6514081
21
70.3900534
0
LINE
8
0
10
14.6514081
20
70.3900534
11
14.6585379
21
70.3848054
0
LINE
8
0
10
14.6585379
20
70.3848054
11
14.8090685
21
70.2537558
0
LINE
8
0
10
14.8090685
20
70.2537558
11
14.85725
21
70.2067897
0
LINE
8
0
10
14.85725
20
70.2067897
11
14.9566219
21
70.0989995
0
LINE
8
0
10
14.9566219
20
70.0989995
11
15.0329604
21
70.0045412
0
LINE
8
0
10
15.0329604
20
70.0045412
11
15.1549652
21
69.7863816
0
LINE
8
0
10
15.1549652
20
69.7863816
11
15.2323956
21
69.6611881
0
LINE
8
0
10
15.2323956
20
69.6611881
11
15.3416362
21
69.4436195
0
LINE
8
0
10
15.3416362
20
69.4436195
11
15.3502358
21
69.4210735
0
LINE
8
0
10
15.3502358
20
69.4210735
11
15.6920598
21
68.338423
0
LINE
8
0
10
15.6920598
20
68.338423
11
15.7252917
21
68.1767214
0
LINE
8
0
10
15.7252917
20
68.1767214
11
15.9193728
21
67.0727931
0
LINE
8
0
10
15.9193728
20
67.0727931
11
15.9719899
21
66.119583
0
LINE
8
0
10
15.9719899
20
66.119583
11
15.9895544
21
65.8879138
0
LINE
8
0
10
15.9895544
20
65.8879138
11
16
21
65.6940566
0
LINE
8
0
10
16
20
65.6940566
11
16
21
64.6059668
0
LINE
8
0
10
16
20
64.6059668
11
16
21
60.3439789
0
LINE
8
0
10
16
20
60.3439789
11
16
21
49.4200893
0
LINE
8
0
10
16
20
49.4200893
11
16
21
47.6132324
0
LINE
8
0
10
16
20
47.6132324
11
16
21
43.999522
0
LINE
8
0
10
16
20
43.999522
11
16
21
43.999522
0
ENDSEC
0
EOF
