0
SECTION
2
ENTITIES
0
LINE
8
0
10
16
20
59.3024635
11
16
21
64.0772651
0
LINE
8
0
10
16
20
64.0772651
11
16
21
65.2962767
0
LINE
8
0
10
16
20
65.2962767
11
15.9882976
21
65.5134593
0
LINE
8
0
10
15.9882976
20
65.5134593
11
15.9686196
21
65.7730036
0
LINE
8
0
10
15.9686196
20
65.7730036
11
15.9183921
21
66.6829235
0
LINE
8
0
10
15.9183921
20
66.6829235
11
15.7331253
21
67.7367167
0
LINE
8
0
10
15.7331253
20
67.7367167
11
15.6882623
21
67.9550137
0
LINE
8
0
10
15.6882623
20
67.9550137
11
15.3602507
21
68.9939164
0
LINE
8
0
10
15.3602507
20
68.9939164
11
15.3335036
21
69.064041
0
LINE
8
0
10
15.3335036
20
69.064041
11
14.9937338
21
69.7407421
0
LINE
8
0
10
14.9937338
20
69.7407421
11
14.8465921
21
69.9786485
0
LINE
8
0
10
14.8465921
20
69.9786485
11
14.7634897
21
70.072489
0
LINE
8
0
10
14.7634897
20
70.072489
11
14.6281853
21
70.1963575
0
LINE
8
0
10
14.6281853
20
70.1963575
11
14.5424098
21
70.266607
0
LINE
8
0
10
14.5424098
20
70.266607
11
14.4568701
21
70.3295699
0
LINE
8
0
10
14.4568701
20
70.3295699
11
14.2864355
21
70.4431952
0
LINE
8
0
10
14.2864355
20
70.4431952
11
14.2819587
21
70.4458639
0
LINE
8
0
10
14.2819587
20
70.4458639
11
14.2739781
21
70.4502064
0
LINE
8
0
10
14.2739781
20
70.4502064
11
14.0628426
21
70.5389755
0
LINE
8
0
10
14.0628426
20
70.5389755
11
13.9093846
21
70.5985661
0
LINE
8
0
10
13.9093846
20
70.5985661
11
13.8514727
21
70.618373
0
LINE
8
0
10
13.8514727
20
70.618373
11
13.792976
21
70.6368908
0
LINE
8
0
10
13.792976
20
70.6368908
11
13.6027073
21
70.6756743
0
LINE
8
0
10
13.6027073
20
70.6756743
11
13.3811844
21
70.7179884
0
LINE
8
0
10
13.3811844
20
70.7179884
11
13.2006853
21
70.7296728
0
LINE
8
0
10
13.2006853
20
70.7296728
11
13.0256133
21
70.7390702
0
LINE
8
0
10
13.0256133
20
70.7390702
11
13
21
70.7388239
0
LINE
8
0
10
13
20
70.7388239
11
12.7084304
21
70.7388239
0
LINE
8
0
10
12.7084304
20
70.7388239
11
4.4
21
70.7388239
0
LINE
8
0
10
4.4
20
70.7388239
11
4.364615
21
70.7351185
0
LINE
8
0
10
4.364615
20
70.7351185
11
3.889034
21
70.6494592
0
LINE
8
0
10
3.889034
20
70.6494592
11
3.72228064
21
70.5695014
0
LINE
8
0
10
3.72228064
20
70.5695014
11
3.406907
21
70.4182811
0
LINE
8
0
10
3.406907
20
70.4182811
11
3.34779167
21
70.3659998
0
LINE
8
0
10
3.34779167
20
70.3659998
11
3.20768007
21
70.2420875
0
LINE
8
0
10
3.20768007
20
70.2420875
11
3.071038
21
70.0948222
0
LINE
8
0
10
3.071038
20
70.0948222
11
3.00597862
21
70.0247059
0
LINE
8
0
10
3.00597862
20
70.0247059
11
2.99070359
21
69.9977287
0
LINE
8
0
10
2.99070359
20
69.9977287
11
2.85004794
21
69.7281461
0
LINE
8
0
10
2.85004794
20
69.7281461
11
2.77216071
21
69.5679068
0
LINE
8
0
10
2.77216071
20
69.5679068
11
2.667949
21
69.2962824
0
LINE
8
0
10
2.667949
20
69.2962824
11
2.66318923
21
69.2733001
0
LINE
8
0
10
2.66318923
20
69.2733001
11
2.468148
21
68.331555
0
LINE
8
0
10
2.468148
20
68.331555
11
2.41155111
21
67.471754
0
LINE
8
0
10
2.41155111
20
67.471754
11
2.4
21
67.296275
0
LINE
8
0
10
2.4
20
67.296275
11
2.4
21
66.2894653
0
LINE
8
0
10
2.4
20
66.2894653
11
2.4
21
52.0018417
0
LINE
8
0
10
2.4
20
52.0018417
11
2.4
21
49.3405332
0
LINE
8
0
10
2.4
20
49.3405332
11
2.4
21
47.6927884
0
LINE
8
0
10
2.4
20
47.6927884
11
2.4
21
44.3973018
0
LINE
8
0
10
2.4
20
44.3973018
11
2.4
21
43.4183996
0
LINE
8
0
10
2.4
20
43.4183996
11
2.4
21
42.2437169
0
LINE
8
0
10
2.4
20
42.2437169
11
5.78197366
21
42.2437169
0
LINE
8
0
10
5.78197366
20
42.2437169
11
16
21
42.2437169
0
LINE
8
0
10
16
20
42.2437169
11
16
21
44.3973018
0
LINE
8
0
10
16
20
44.3973018
11
16
21
47.6927884
0
LINE
8
0
10
16
20
47.6927884
11
16
21
49.3405332
0
LINE
8
0
10
16
20
49.3405332
11
16
21
59.3024635
0
LINE
8
0
10
16
20
59.3024635
11
16
21
59.3024635
0
LINE
8
0
10
16
20
23.1911549
11
16
21
28.8088418
0
LINE
8
0
10
16
20
28.8088418
11
16
21
33.5834582
0
LINE
8
0
10
16
20
33.5834582
11
16
21
35.7370431
0
LINE
8
0
10
16
20
35.7370431
11
12.6180263
21
35.7370431
0
LINE
8
0
10
12.6180263
20
35.7370431
11
2.4
21
35.7370431
0
LINE
8
0
10
2.4
20
35.7370431
11
2.4
21
34.7798942
0
LINE
8
0
10
2.4
20
34.7798942
11
2.4
21
33.5834582
0
LINE
8
0
10
2.4
20
33.5834582
11
2.4
21
30.7186884
0
LINE
8
0
10
2.4
20
30.7186884
11
2.4
21
28.8088418
0
LINE
8
0
10
2.4
20
28.8088418
11
2.4
21
26.2553507
0
LINE
8
0
10
2.4
20
26.2553507
11
2.4
21
23.1911549
0
LINE
8
0
10
2.4
20
23.1911549
11
11.2219737
21
23.1911549
0
LINE
8
0
10
11.2219737
20
23.1911549
11
16
21
23.1911549
0
LINE
8
0
10
16
20
23.1911549
11
16
21
23.1911549
0
LINE
8
0
10
16
20
7.12975215
11
16
21
8.1359403
0
LINE
8
0
10
16
20
8.1359403
11
16
21
13.7445884
0
LINE
8
0
10
16
20
13.7445884
11
16
21
14.5309001
0
LINE
8
0
10
16
20
14.5309001
11
16
21
20.1485886
0
LINE
8
0
10
16
20
20.1485886
11
7.17802634
21
20.1485886
0
LINE
8
0
10
7.17802634
20
20.1485886
11
2.4
21
20.1485886
0
LINE
8
0
10
2.4
20
20.1485886
11
2.4
21
17.6518417
0
LINE
8
0
10
2.4
20
17.6518417
11
2.4
21
14.5309001
0
LINE
8
0
10
2.4
20
14.5309001
11
2.4
21
13.7445884
0
LINE
8
0
10
2.4
20
13.7445884
11
2.4
21
10.5425929
0
LINE
8
0
10
2.4
20
10.5425929
11
2.4
21
9.04697868
0
LINE
8
0
10
2.4
20
9.04697868
11
2.4
21
5.91575562
0
LINE
8
0
10
2.4
20
5.91575562
11
2.4
21
5.75628533
0
LINE
8
0
10
2.4
20
5.75628533
11
2.4
21
2.38289936
0
LINE
8
0
10
2.4
20
2.38289936
11
2.4
21
2.17964798
0
LINE
8
0
10
2.4
20
2.17964798
11
2.4
21
1.99220568
0
LINE
8
0
10
2.4
20
1.99220568
11
2.4
21
1.83744713
0
LINE
8
0
10
2.4
20
1.83744713
11
2.4
21
-8.35959735
0
LINE
8
0
10
2.4
20
-8.35959735
11
2.4
21
-8.68382508
0
LINE
8
0
10
2.4
20
-8.68382508
11
2.4
21
-8.94673401
0
LINE
8
0
10
2.4
20
-8.94673401
11
2.4
21
-13.9817771
0
LINE
8
0
10
2.4
20
-13.9817771
11
2.4
21
-14
0
LINE
8
0
10
2.4
20
-14
11
2.40839454
21
-14.1378928
0
LINE
8
0
10
2.40839454
20
-14.1378928
11
2.45945838
21
-14.4516352
0
LINE
8
0
10
2.45945838
20
-14.4516352
11
2.468148
21
-14.51764
0
LINE
8
0
10
2.468148
20
-14.51764
11
2.61699535
21
-14.8769876
0
LINE
8
0
10
2.61699535
20
-14.8769876
11
2.667949
21
-15
0
LINE
8
0
10
2.667949
20
-15
11
2.90473057
21
-15.3085773
0
LINE
8
0
10
2.90473057
20
-15.3085773
11
2.985786
21
-15.41421
0
LINE
8
0
10
2.985786
20
-15.41421
11
3.0916265
21
-15.4953861
0
LINE
8
0
10
3.0916265
20
-15.4953861
11
3.40141443
21
-15.7328701
0
LINE
8
0
10
3.40141443
20
-15.7328701
11
3.52422053
21
-15.7837037
0
LINE
8
0
10
3.52422053
20
-15.7837037
11
3.882362
21
-15.93185
0
LINE
8
0
10
3.882362
20
-15.93185
11
4.09875946
21
-15.96034
0
LINE
8
0
10
4.09875946
20
-15.96034
11
4.25496694
21
-15.9857564
0
LINE
8
0
10
4.25496694
20
-15.9857564
11
4.4
21
-16
0
LINE
8
0
10
4.4
20
-16
11
12.4400768
21
-16
0
LINE
8
0
10
12.4400768
20
-16
11
14
21
-16
0
LINE
8
0
10
14
20
-16
11
14.2820673
21
-15.9761214
0
LINE
8
0
10
14.2820673
20
-15.9761214
11
14.3878549
21
-15.9597965
0
LINE
8
0
10
14.3878549
20
-15.9597965
11
14.6271787
21
-15.8976908
0
LINE
8
0
10
14.6271787
20
-15.8976908
11
14.7612858
21
-15.8421977
0
LINE
8
0
10
14.7612858
20
-15.8421977
11
14.9978666
21
-15.733096
0
LINE
8
0
10
14.9978666
20
-15.733096
11
15.2313727
21
-15.5680934
0
LINE
8
0
10
15.2313727
20
-15.5680934
11
15.3260197
21
-15.4955202
0
LINE
8
0
10
15.3260197
20
-15.4955202
11
15.5326862
21
-15.2816094
0
LINE
8
0
10
15.5326862
20
-15.2816094
11
15.5973223
21
-15.1973754
0
LINE
8
0
10
15.5973223
20
-15.1973754
11
15.7779224
21
-14.9145306
0
LINE
8
0
10
15.7779224
20
-14.9145306
11
15.813822
21
-14.8278613
0
LINE
8
0
10
15.813822
20
-14.8278613
11
15.9419603
21
-14.4764171
0
LINE
8
0
10
15.9419603
20
-14.4764171
11
15.9774233
21
-14.2793425
0
LINE
8
0
10
15.9774233
20
-14.2793425
11
15.9819705
21
-14.2555658
0
LINE
8
0
10
15.9819705
20
-14.2555658
11
15.9865605
21
-14.2207019
0
LINE
8
0
10
15.9865605
20
-14.2207019
11
16
21
-14
0
LINE
8
0
10
16
20
-14
11
16
21
-13.363356
0
LINE
8
0
10
16
20
-13.363356
11
16
21
-13.2726877
0
LINE
8
0
10
16
20
-13.2726877
11
16
21
-13.1622318
0
LINE
8
0
10
16
20
-13.1622318
11
16
21
-13.0286373
0
LINE
8
0
10
16
20
-13.0286373
11
16
21
-12.905531
0
LINE
8
0
10
16
20
-12.905531
11
16
21
-12.7661286
0
LINE
8
0
10
16
20
-12.7661286
11
16
21
-12.6188633
0
LINE
8
0
10
16
20
-12.6188633
11
16
21
-12.4903362
0
LINE
8
0
10
16
20
-12.4903362
11
16
21
-12.3622798
0
LINE
8
0
10
16
20
-12.3622798
11
16
21
-12.2451739
0
LINE
8
0
10
16
20
-12.2451739
11
16
21
-10.1996852
0
LINE
8
0
10
16
20
-10.1996852
11
16
21
7.12975215
0
LINE
8
0
10
16
20
7.12975215
11
16
21
7.12975215
0
ENDSEC
0
EOF
