0
SECTION
2
ENTITIES
0
LINE
8
0
10
16
20
-13.3041909
11
16
21
-13.3959301
0
LINE
8
0
10
16
20
-13.3959301
11
16
21
-13.4712348
0
LINE
8
0
10
16
20
-13.4712348
11
16
21
-14
0
LINE
8
0
10
16
20
-14
11
15.9864031
21
-14.2232866
0
LINE
8
0
10
15.9864031
20
-14.2232866
11
15.9825575
21
-14.2524966
0
LINE
8
0
10
15.9825575
20
-14.2524966
11
15.9787477
21
-14.2724176
0
LINE
8
0
10
15.9787477
20
-14.2724176
11
15.9422541
21
-14.4752192
0
LINE
8
0
10
15.9422541
20
-14.4752192
11
15.8103921
21
-14.8368763
0
LINE
8
0
10
15.8103921
20
-14.8368763
11
15.7792555
21
-14.9120469
0
LINE
8
0
10
15.7792555
20
-14.9120469
11
15.5934071
21
-15.2031111
0
LINE
8
0
10
15.5934071
20
-15.2031111
11
15.5361291
21
-15.277756
0
LINE
8
0
10
15.5361291
20
-15.277756
11
15.3234569
21
-15.4978831
0
LINE
8
0
10
15.3234569
20
-15.4978831
11
15.2381322
21
-15.5633081
0
LINE
8
0
10
15.2381322
20
-15.5633081
11
14.9978403
21
-15.7331058
0
LINE
8
0
10
14.9978403
20
-15.7331058
11
14.7543845
21
-15.845378
0
LINE
8
0
10
14.7543845
20
-15.845378
11
14.6303619
21
-15.8966982
0
LINE
8
0
10
14.6303619
20
-15.8966982
11
14.3840833
21
-15.9606087
0
LINE
8
0
10
14.3840833
20
-15.9606087
11
14.2853705
21
-15.9758417
0
LINE
8
0
10
14.2853705
20
-15.9758417
11
14
21
-16
0
LINE
8
0
10
14
20
-16
11
12.5342337
21
-16
0
LINE
8
0
10
12.5342337
20
-16
11
4.4
21
-16
0
LINE
8
0
10
4.4
20
-16
11
4.25782482
21
-15.9860371
0
LINE
8
0
10
4.25782482
20
-15.9860371
11
4.10469541
21
-15.9611215
0
LINE
8
0
10
4.10469541
20
-15.9611215
11
3.882362
21
-15.93185
0
LINE
8
0
10
3.882362
20
-15.93185
11
3.51439643
21
-15.7796399
0
LINE
8
0
10
3.51439643
20
-15.7796399
11
3.40143098
21
-15.7328797
0
LINE
8
0
10
3.40143098
20
-15.7328797
11
3.08314533
21
-15.4888813
0
LINE
8
0
10
3.08314533
20
-15.4888813
11
2.985786
21
-15.41421
0
LINE
8
0
10
2.985786
20
-15.41421
11
2.91122568
21
-15.3170419
0
LINE
8
0
10
2.91122568
20
-15.3170419
11
2.667949
21
-15
0
LINE
8
0
10
2.667949
20
-15
11
2.62107835
21
-14.8868448
0
LINE
8
0
10
2.62107835
20
-14.8868448
11
2.468148
21
-14.51764
0
LINE
8
0
10
2.468148
20
-14.51764
11
2.46015469
21
-14.4569243
0
LINE
8
0
10
2.46015469
20
-14.4569243
11
2.40849285
21
-14.1395076
0
LINE
8
0
10
2.40849285
20
-14.1395076
11
2.4
21
-14
0
LINE
8
0
10
2.4
20
-14
11
2.4
21
-13.9820738
0
LINE
8
0
10
2.4
20
-13.9820738
11
2.4
21
-9.02901563
0
LINE
8
0
10
2.4
20
-9.02901563
11
2.4
21
-8.76196634
0
LINE
8
0
10
2.4
20
-8.76196634
11
2.4
21
-8.44299912
0
LINE
8
0
10
2.4
20
-8.44299912
11
2.4
21
1.9191324
0
LINE
8
0
10
2.4
20
1.9191324
11
2.4
21
2.06804532
0
LINE
8
0
10
2.4
20
2.06804532
11
2.4
21
2.24840743
0
LINE
8
0
10
2.4
20
2.24840743
11
2.4
21
2.44398148
0
LINE
8
0
10
2.4
20
2.44398148
11
2.4
21
5.68994584
0
LINE
8
0
10
2.4
20
5.68994584
11
2.4
21
5.8545587
0
LINE
8
0
10
2.4
20
5.8545587
11
2.4
21
9.08675666
0
LINE
8
0
10
2.4
20
9.08675666
11
2.4
21
10.463037
0
LINE
8
0
10
2.4
20
10.463037
11
2.4
21
13.8241443
0
LINE
8
0
10
2.4
20
13.8241443
11
2.4
21
14.1331191
0
LINE
8
0
10
2.4
20
14.1331191
11
2.4
21
17.6960392
0
LINE
8
0
10
2.4
20
17.6960392
11
2.4
21
20.5463679
0
LINE
8
0
10
2.4
20
20.5463679
11
5.92868472
21
20.5463679
0
LINE
8
0
10
5.92868472
20
20.5463679
11
16
21
20.5463679
0
LINE
8
0
10
16
20
20.5463679
11
16
21
14.1331191
0
LINE
8
0
10
16
20
14.1331191
11
16
21
13.8241443
0
LINE
8
0
10
16
20
13.8241443
11
16
21
7.93679429
0
LINE
8
0
10
16
20
7.93679429
11
16
21
7.10770388
0
LINE
8
0
10
16
20
7.10770388
11
16
21
-10.7805689
0
LINE
8
0
10
16
20
-10.7805689
11
16
21
-12.4660341
0
LINE
8
0
10
16
20
-12.4660341
11
16
21
-12.5625283
0
LINE
8
0
10
16
20
-12.5625283
11
16
21
-12.6680457
0
LINE
8
0
10
16
20
-12.6680457
11
16
21
-12.7739509
0
LINE
8
0
10
16
20
-12.7739509
11
16
21
-12.9241259
0
LINE
8
0
10
16
20
-12.9241259
11
16
21
-13.0662826
0
LINE
8
0
10
16
20
-13.0662826
11
16
21
-13.1680883
0
LINE
8
0
10
16
20
-13.1680883
11
16
21
-13.3041909
0
LINE
8
0
10
16
20
-13.3041909
11
16
21
-13.3041909
0
LINE
8
0
10
16
20
41.8459367
11
16
21
44.7950816
0
LINE
8
0
10
16
20
44.7950816
11
16
21
47.7723443
0
LINE
8
0
10
16
20
47.7723443
11
16
21
49.2609771
0
LINE
8
0
10
16
20
49.2609771
11
16
21
58.2609482
0
LINE
8
0
10
16
20
58.2609482
11
16
21
63.5485633
0
LINE
8
0
10
16
20
63.5485633
11
16
21
64.8984969
0
LINE
8
0
10
16
20
64.8984969
11
15.9870408
21
65.1390049
0
LINE
8
0
10
15.9870408
20
65.1390049
11
15.9652493
21
65.4264242
0
LINE
8
0
10
15.9652493
20
65.4264242
11
15.9174115
21
66.2930539
0
LINE
8
0
10
15.9174115
20
66.2930539
11
15.7409589
21
67.2967119
0
LINE
8
0
10
15.7409589
20
67.2967119
11
15.6844647
21
67.5716045
0
LINE
8
0
10
15.6844647
20
67.5716045
11
15.3702656
21
68.5667593
0
LINE
8
0
10
15.3702656
20
68.5667593
11
15.325371
21
68.6844624
0
LINE
8
0
10
15.325371
20
68.6844624
11
14.8752128
21
69.581018
0
LINE
8
0
10
14.8752128
20
69.581018
11
14.8639257
21
69.5984185
0
LINE
8
0
10
14.8639257
20
69.5984185
11
14.6868097
21
69.8202979
0
LINE
8
0
10
14.6868097
20
69.8202979
11
14.4198598
21
70.1306787
0
LINE
8
0
10
14.4198598
20
70.1306787
11
14.4063618
21
70.1404289
0
LINE
8
0
10
14.4063618
20
70.1404289
11
14.2150857
21
70.2610162
0
LINE
8
0
10
14.2150857
20
70.2610162
11
14.1014209
21
70.3263913
0
LINE
8
0
10
14.1014209
20
70.3263913
11
14.0137558
21
70.3714564
0
LINE
8
0
10
14.0137558
20
70.3714564
11
13.8904944
21
70.4296981
0
LINE
8
0
10
13.8904944
20
70.4296981
11
13.7865328
21
70.4611729
0
LINE
8
0
10
13.7865328
20
70.4611729
11
13.6693121
21
70.4943631
0
LINE
8
0
10
13.6693121
20
70.4943631
11
13.5261562
21
70.530061
0
LINE
8
0
10
13.5261562
20
70.530061
11
13.4284044
21
70.5528934
0
LINE
8
0
10
13.4284044
20
70.5528934
11
13.2846751
21
70.5601876
0
LINE
8
0
10
13.2846751
20
70.5601876
11
13
21
70.5683767
0
LINE
8
0
10
13
20
70.5683767
11
8.82861425
21
70.5683767
0
LINE
8
0
10
8.82861425
20
70.5683767
11
4.4
21
70.5683767
0
LINE
8
0
10
4.4
20
70.5683767
11
4.00173458
21
70.519808
0
LINE
8
0
10
4.00173458
20
70.519808
11
3.8979708
21
70.4989921
0
LINE
8
0
10
3.8979708
20
70.4989921
11
3.59389916
21
70.3295703
0
LINE
8
0
10
3.59389916
20
70.3295703
11
3.43049103
21
70.2385169
0
LINE
8
0
10
3.43049103
20
70.2385169
11
3.28084182
21
70.0772332
0
LINE
8
0
10
3.28084182
20
70.0772332
11
3.04207785
21
69.8199105
0
LINE
8
0
10
3.04207785
20
69.8199105
11
2.98601944
21
69.7209058
0
LINE
8
0
10
2.98601944
20
69.7209058
11
2.97934246
21
69.7081086
0
LINE
8
0
10
2.97934246
20
69.7081086
11
2.97564513
21
69.700502
0
LINE
8
0
10
2.97564513
20
69.700502
11
2.667949
21
68.8985021
0
LINE
8
0
10
2.667949
20
68.8985021
11
2.65389526
21
68.8306445
0
LINE
8
0
10
2.65389526
20
68.8306445
11
2.468148
21
67.9337747
0
LINE
8
0
10
2.468148
20
67.9337747
11
2.41424803
21
67.1149444
0
LINE
8
0
10
2.41424803
20
67.1149444
11
2.4
21
66.8984951
0
LINE
8
0
10
2.4
20
66.8984951
11
2.4
21
65.656619
0
LINE
8
0
10
2.4
20
65.656619
11
2.4
21
52.0416197
0
LINE
8
0
10
2.4
20
52.0416197
11
2.4
21
49.2609771
0
LINE
8
0
10
2.4
20
49.2609771
11
2.4
21
47.7723443
0
LINE
8
0
10
2.4
20
47.7723443
11
2.4
21
44.7950816
0
LINE
8
0
10
2.4
20
44.7950816
11
2.4
21
43.4545612
0
LINE
8
0
10
2.4
20
43.4545612
11
2.4
21
41.8459367
0
LINE
8
0
10
2.4
20
41.8459367
11
7.03131528
21
41.8459367
0
LINE
8
0
10
7.03131528
20
41.8459367
11
16
21
41.8459367
0
LINE
8
0
10
16
20
41.8459367
11
16
21
41.8459367
0
LINE
8
0
10
16
20
33.1856784
11
16
21
36.1348233
0
LINE
8
0
10
16
20
36.1348233
11
11.3686847
21
36.1348233
0
LINE
8
0
10
11.3686847
20
36.1348233
11
2.4
21
36.1348233
0
LINE
8
0
10
2.4
20
36.1348233
11
2.4
21
34.8240922
0
LINE
8
0
10
2.4
20
34.8240922
11
2.4
21
33.1856784
0
LINE
8
0
10
2.4
20
33.1856784
11
2.4
21
30.7982443
0
LINE
8
0
10
2.4
20
30.7982443
11
2.4
21
29.2066216
0
LINE
8
0
10
2.4
20
29.2066216
11
2.4
21
26.2915127
0
LINE
8
0
10
2.4
20
26.2915127
11
2.4
21
22.7933747
0
LINE
8
0
10
2.4
20
22.7933747
11
12.4713153
21
22.7933747
0
LINE
8
0
10
12.4713153
20
22.7933747
11
16
21
22.7933747
0
LINE
8
0
10
16
20
22.7933747
11
16
21
29.2066216
0
LINE
8
0
10
16
20
29.2066216
11
16
21
33.1856784
0
LINE
8
0
10
16
20
33.1856784
11
16
21
33.1856784
0
ENDSEC
0
EOF
