0
SECTION
2
ENTITIES
0
LINE
8
0
10
16
20
-13.5191725
11
16
21
-13.4461499
0
LINE
8
0
10
16
20
-13.4461499
11
16
21
-13.3075393
0
LINE
8
0
10
16
20
-13.3075393
11
16
21
-13.2270342
0
LINE
8
0
10
16
20
-13.2270342
11
16
21
-13.0821232
0
LINE
8
0
10
16
20
-13.0821232
11
16
21
-12.9290385
0
LINE
8
0
10
16
20
-12.9290385
11
16
21
-12.8457552
0
LINE
8
0
10
16
20
-12.8457552
11
16
21
-12.7627768
0
LINE
8
0
10
16
20
-12.7627768
11
16
21
-12.6868942
0
LINE
8
0
10
16
20
-12.6868942
11
16
21
-11.3614525
0
LINE
8
0
10
16
20
-11.3614525
11
16
21
7.08565562
0
LINE
8
0
10
16
20
7.08565562
11
16
21
7.73764829
0
LINE
8
0
10
16
20
7.73764829
11
16
21
13.2749007
0
LINE
8
0
10
16
20
13.2749007
11
16
21
13.7353386
0
LINE
8
0
10
16
20
13.7353386
11
15.5593431
21
13.7353386
0
LINE
8
0
10
15.5593431
20
13.7353386
11
2.4
21
13.7353386
0
LINE
8
0
10
2.4
20
13.7353386
11
2.4
21
10.3834811
0
LINE
8
0
10
2.4
20
10.3834811
11
2.4
21
9.12653464
0
LINE
8
0
10
2.4
20
9.12653464
11
2.4
21
5.79336177
0
LINE
8
0
10
2.4
20
5.79336177
11
2.4
21
5.62360636
0
LINE
8
0
10
2.4
20
5.62360636
11
2.4
21
2.5050636
0
LINE
8
0
10
2.4
20
2.5050636
11
2.4
21
2.31716688
0
LINE
8
0
10
2.4
20
2.31716688
11
2.4
21
2.14388496
0
LINE
8
0
10
2.4
20
2.14388496
11
2.4
21
2.00081768
0
LINE
8
0
10
2.4
20
2.00081768
11
2.4
21
-8.5264009
0
LINE
8
0
10
2.4
20
-8.5264009
11
2.4
21
-8.8401076
0
LINE
8
0
10
2.4
20
-8.8401076
11
2.4
21
-9.11129725
0
LINE
8
0
10
2.4
20
-9.11129725
11
2.4
21
-13.9823705
0
LINE
8
0
10
2.4
20
-13.9823705
11
2.4
21
-14
0
LINE
8
0
10
2.4
20
-14
11
2.40859115
21
-14.1411225
0
LINE
8
0
10
2.40859115
20
-14.1411225
11
2.460851
21
-14.4622133
0
LINE
8
0
10
2.460851
20
-14.4622133
11
2.468148
21
-14.51764
0
LINE
8
0
10
2.468148
20
-14.51764
11
2.62516135
21
-14.896702
0
LINE
8
0
10
2.62516135
20
-14.896702
11
2.667949
21
-15
0
LINE
8
0
10
2.667949
20
-15
11
2.91772078
21
-15.3255064
0
LINE
8
0
10
2.91772078
20
-15.3255064
11
2.985786
21
-15.41421
0
LINE
8
0
10
2.985786
20
-15.41421
11
3.07466416
21
-15.4823765
0
LINE
8
0
10
3.07466416
20
-15.4823765
11
3.40144754
21
-15.7328893
0
LINE
8
0
10
3.40144754
20
-15.7328893
11
3.50457232
21
-15.7755761
0
LINE
8
0
10
3.50457232
20
-15.7755761
11
3.882362
21
-15.93185
0
LINE
8
0
10
3.882362
20
-15.93185
11
4.11063136
21
-15.961903
0
LINE
8
0
10
4.11063136
20
-15.961903
11
4.2606827
21
-15.9863178
0
LINE
8
0
10
4.2606827
20
-15.9863178
11
4.4
21
-16
0
LINE
8
0
10
4.4
20
-16
11
12.6283906
21
-16
0
LINE
8
0
10
12.6283906
20
-16
11
14
21
-16
0
LINE
8
0
10
14
20
-16
11
14.2886738
21
-15.9755621
0
LINE
8
0
10
14.2886738
20
-15.9755621
11
14.3803118
21
-15.9614208
0
LINE
8
0
10
14.3803118
20
-15.9614208
11
14.6335451
21
-15.8957055
0
LINE
8
0
10
14.6335451
20
-15.8957055
11
14.7474832
21
-15.8485583
0
LINE
8
0
10
14.7474832
20
-15.8485583
11
14.997814
21
-15.7331155
0
LINE
8
0
10
14.997814
20
-15.7331155
11
15.2448916
21
-15.5585229
0
LINE
8
0
10
15.2448916
20
-15.5585229
11
15.3208941
21
-15.5002459
0
LINE
8
0
10
15.3208941
20
-15.5002459
11
15.5395721
21
-15.2739026
0
LINE
8
0
10
15.5395721
20
-15.2739026
11
15.5894919
21
-15.2088469
0
LINE
8
0
10
15.5894919
20
-15.2088469
11
15.7805885
21
-14.9095631
0
LINE
8
0
10
15.7805885
20
-14.9095631
11
15.8069622
21
-14.8458914
0
LINE
8
0
10
15.8069622
20
-14.8458914
11
15.9425479
21
-14.4740212
0
LINE
8
0
10
15.9425479
20
-14.4740212
11
15.9800721
21
-14.2654926
0
LINE
8
0
10
15.9800721
20
-14.2654926
11
15.9831444
21
-14.2494275
0
LINE
8
0
10
15.9831444
20
-14.2494275
11
15.9862458
21
-14.2258712
0
LINE
8
0
10
15.9862458
20
-14.2258712
11
16
21
-14
0
LINE
8
0
10
16
20
-14
11
16
21
-13.5791135
0
LINE
8
0
10
16
20
-13.5791135
11
16
21
-13.5191725
0
LINE
8
0
10
16
20
-13.5191725
11
16
21
-13.5191725
0
LINE
8
0
10
16
20
63.0198616
11
16
21
57.2194328
0
LINE
8
0
10
16
20
57.2194328
11
16
21
49.181421
0
LINE
8
0
10
16
20
49.181421
11
16
21
47.8519003
0
LINE
8
0
10
16
20
47.8519003
11
16
21
45.1928614
0
LINE
8
0
10
16
20
45.1928614
11
16
21
41.4481564
0
LINE
8
0
10
16
20
41.4481564
11
8.28065689
21
41.4481564
0
LINE
8
0
10
8.28065689
20
41.4481564
11
2.4
21
41.4481564
0
LINE
8
0
10
2.4
20
41.4481564
11
2.4
21
43.4907228
0
LINE
8
0
10
2.4
20
43.4907228
11
2.4
21
45.1928614
0
LINE
8
0
10
2.4
20
45.1928614
11
2.4
21
47.8519003
0
LINE
8
0
10
2.4
20
47.8519003
11
2.4
21
49.181421
0
LINE
8
0
10
2.4
20
49.181421
11
2.4
21
52.0813976
0
LINE
8
0
10
2.4
20
52.0813976
11
2.4
21
65.0237726
0
LINE
8
0
10
2.4
20
65.0237726
11
2.4
21
66.5007152
0
LINE
8
0
10
2.4
20
66.5007152
11
2.41694494
21
66.7581347
0
LINE
8
0
10
2.41694494
20
66.7581347
11
2.468148
21
67.5359944
0
LINE
8
0
10
2.468148
20
67.5359944
11
2.6446013
21
68.3879888
0
LINE
8
0
10
2.6446013
20
68.3879888
11
2.667949
21
68.5007218
0
LINE
8
0
10
2.667949
20
68.5007218
11
2.97190421
21
69.2929711
0
LINE
8
0
10
2.97190421
20
69.2929711
11
2.985786
21
69.3291535
0
LINE
8
0
10
2.985786
20
69.3291535
11
3.31416719
21
69.8330988
0
LINE
8
0
10
3.31416719
20
69.8330988
11
3.3240334
21
69.8522639
0
LINE
8
0
10
3.3240334
20
69.8522639
11
3.43954318
21
69.9918977
0
LINE
8
0
10
3.43954318
20
69.9918977
11
3.51269095
21
70.0504034
0
LINE
8
0
10
3.51269095
20
70.0504034
11
3.64939299
21
70.1355795
0
LINE
8
0
10
3.64939299
20
70.1355795
11
3.88012835
21
70.2641485
0
LINE
8
0
10
3.88012835
20
70.2641485
11
3.93407003
21
70.2942036
0
LINE
8
0
10
3.93407003
20
70.2942036
11
4.23175533
21
70.3539218
0
LINE
8
0
10
4.23175533
20
70.3539218
11
4.4
21
70.3767507
0
LINE
8
0
10
4.4
20
70.3767507
11
5.17774505
21
70.3767507
0
LINE
8
0
10
5.17774505
20
70.3767507
11
13
21
70.3767507
0
LINE
8
0
10
13
20
70.3767507
11
13.1279333
21
70.3670192
0
LINE
8
0
10
13.1279333
20
70.3670192
11
13.4756145
21
70.3295871
0
LINE
8
0
10
13.4756145
20
70.3295871
11
13.642788
21
70.272299
0
LINE
8
0
10
13.642788
20
70.272299
11
13.8166263
21
70.2083429
0
LINE
8
0
10
13.8166263
20
70.2083429
11
13.9249653
21
70.1628693
0
LINE
8
0
10
13.9249653
20
70.1628693
11
14.2765473
21
69.9234556
0
LINE
8
0
10
14.2765473
20
69.9234556
11
14.3032829
21
69.9041432
0
LINE
8
0
10
14.3032829
20
69.9041432
11
14.3069705
21
69.8998556
0
LINE
8
0
10
14.3069705
20
69.8998556
11
14.8503909
21
69.219094
0
LINE
8
0
10
14.8503909
20
69.219094
11
14.8850216
21
69.1657065
0
LINE
8
0
10
14.8850216
20
69.1657065
11
15.3172384
21
68.3048838
0
LINE
8
0
10
15.3172384
20
68.3048838
11
15.3802805
21
68.1396021
0
LINE
8
0
10
15.3802805
20
68.1396021
11
15.6806672
21
67.1881952
0
LINE
8
0
10
15.6806672
20
67.1881952
11
15.7487925
21
66.8567072
0
LINE
8
0
10
15.7487925
20
66.8567072
11
15.9164309
21
65.9031843
0
LINE
8
0
10
15.9164309
20
65.9031843
11
15.9618791
21
65.0798448
0
LINE
8
0
10
15.9618791
20
65.0798448
11
15.9857839
21
64.7645504
0
LINE
8
0
10
15.9857839
20
64.7645504
11
16
21
64.500717
0
LINE
8
0
10
16
20
64.500717
11
16
21
63.0198616
0
LINE
8
0
10
16
20
63.0198616
11
16
21
63.0198616
0
LINE
8
0
10
16
20
29.6044014
11
16
21
22.3955944
0
LINE
8
0
10
16
20
22.3955944
11
13.7206569
21
22.3955944
0
LINE
8
0
10
13.7206569
20
22.3955944
11
2.4
21
22.3955944
0
LINE
8
0
10
2.4
20
22.3955944
11
2.4
21
26.3276747
0
LINE
8
0
10
2.4
20
26.3276747
11
2.4
21
29.6044014
0
LINE
8
0
10
2.4
20
29.6044014
11
2.4
21
30.8778003
0
LINE
8
0
10
2.4
20
30.8778003
11
2.4
21
32.7878986
0
LINE
8
0
10
2.4
20
32.7878986
11
2.4
21
34.8682902
0
LINE
8
0
10
2.4
20
34.8682902
11
2.4
21
36.5326036
0
LINE
8
0
10
2.4
20
36.5326036
11
10.1193431
21
36.5326036
0
LINE
8
0
10
10.1193431
20
36.5326036
11
16
21
36.5326036
0
LINE
8
0
10
16
20
36.5326036
11
16
21
32.7878986
0
LINE
8
0
10
16
20
32.7878986
11
16
21
29.6044014
0
LINE
8
0
10
16
20
29.6044014
11
16
21
29.6044014
0
LINE
8
0
10
16
20
20.9441473
11
16
21
15.1383537
0
LINE
8
0
10
16
20
15.1383537
11
16
21
14.0159416
0
LINE
8
0
10
16
20
14.0159416
11
2.84065689
21
14.0159416
0
LINE
8
0
10
2.84065689
20
14.0159416
11
2.4
21
14.0159416
0
LINE
8
0
10
2.4
20
14.0159416
11
2.4
21
17.7402367
0
LINE
8
0
10
2.4
20
17.7402367
11
2.4
21
20.9441473
0
LINE
8
0
10
2.4
20
20.9441473
11
4.67934311
21
20.9441473
0
LINE
8
0
10
4.67934311
20
20.9441473
11
16
21
20.9441473
0
LINE
8
0
10
16
20
20.9441473
11
16
21
20.9441473
0
ENDSEC
0
EOF
