0
SECTION
2
ENTITIES
0
LINE
8
0
10
16
20
31.992339
11
16
21
37.3281641
0
LINE
8
0
10
16
20
37.3281641
11
7.62065988
21
37.3281641
0
LINE
8
0
10
7.62065988
20
37.3281641
11
2.4
21
37.3281641
0
LINE
8
0
10
2.4
20
37.3281641
11
2.4
21
34.9566863
0
LINE
8
0
10
2.4
20
34.9566863
11
2.4
21
31.992339
0
LINE
8
0
10
2.4
20
31.992339
11
2.4
21
31.0369122
0
LINE
8
0
10
2.4
20
31.0369122
11
2.4
21
30.399961
0
LINE
8
0
10
2.4
20
30.399961
11
2.4
21
26.3999988
0
LINE
8
0
10
2.4
20
26.3999988
11
2.4
21
21.7397062
0
LINE
8
0
10
2.4
20
21.7397062
11
2.4
21
21.6838372
0
LINE
8
0
10
2.4
20
21.6838372
11
2.4
21
21.600034
0
LINE
8
0
10
2.4
20
21.600034
11
2.4
21
17.8286317
0
LINE
8
0
10
2.4
20
17.8286317
11
2.4
21
14.8115021
0
LINE
8
0
10
2.4
20
14.8115021
11
5.33934012
21
14.8115021
0
LINE
8
0
10
5.33934012
20
14.8115021
11
16
21
14.8115021
0
LINE
8
0
10
16
20
14.8115021
11
16
21
21.600034
0
LINE
8
0
10
16
20
21.600034
11
16
21
21.7397062
0
LINE
8
0
10
16
20
21.7397062
11
16
21
22.4380669
0
LINE
8
0
10
16
20
22.4380669
11
16
21
30.399961
0
LINE
8
0
10
16
20
30.399961
11
16
21
31.992339
0
LINE
8
0
10
16
20
31.992339
11
16
21
31.992339
0
LINE
8
0
10
16
20
61.9624582
11
16
21
55.1364021
0
LINE
8
0
10
16
20
55.1364021
11
16
21
49.0223088
0
LINE
8
0
10
16
20
49.0223088
11
16
21
48.0110122
0
LINE
8
0
10
16
20
48.0110122
11
16
21
45.988421
0
LINE
8
0
10
16
20
45.988421
11
16
21
40.6525959
0
LINE
8
0
10
16
20
40.6525959
11
10.7793401
21
40.6525959
0
LINE
8
0
10
10.7793401
20
40.6525959
11
2.4
21
40.6525959
0
LINE
8
0
10
2.4
20
40.6525959
11
2.4
21
43.563046
0
LINE
8
0
10
2.4
20
43.563046
11
2.4
21
45.988421
0
LINE
8
0
10
2.4
20
45.988421
11
2.4
21
48.0110122
0
LINE
8
0
10
2.4
20
48.0110122
11
2.4
21
49.0223088
0
LINE
8
0
10
2.4
20
49.0223088
11
2.4
21
52.1609536
0
LINE
8
0
10
2.4
20
52.1609536
11
2.4
21
63.7580798
0
LINE
8
0
10
2.4
20
63.7580798
11
2.4
21
65.7051554
0
LINE
8
0
10
2.4
20
65.7051554
11
2.42233877
21
66.0445154
0
LINE
8
0
10
2.42233877
20
66.0445154
11
2.468148
21
66.7404339
0
LINE
8
0
10
2.468148
20
66.7404339
11
2.62601337
21
67.5026776
0
LINE
8
0
10
2.62601337
20
67.5026776
11
2.667949
21
67.7051613
0
LINE
8
0
10
2.667949
20
67.7051613
11
2.94268443
21
68.4212502
0
LINE
8
0
10
2.94268443
20
68.4212502
11
2.985786
21
68.533593
0
LINE
8
0
10
2.985786
20
68.533593
11
3.3671967
21
69.1189192
0
LINE
8
0
10
3.3671967
20
69.1189192
11
3.4
21
69.1692616
0
LINE
8
0
10
3.4
20
69.1692616
11
3.86102295
21
69.551197
0
LINE
8
0
10
3.86102295
20
69.551197
11
3.882362
21
69.5688746
0
LINE
8
0
10
3.882362
20
69.5688746
11
4.38336123
21
69.7007725
0
LINE
8
0
10
4.38336123
20
69.7007725
11
4.4
21
69.7051533
0
LINE
8
0
10
4.4
20
69.7051533
11
12.8633056
21
69.7051533
0
LINE
8
0
10
12.8633056
20
69.7051533
11
13
21
69.7051533
0
LINE
8
0
10
13
20
69.7051533
11
13.6525399
21
69.5581192
0
LINE
8
0
10
13.6525399
20
69.5581192
11
13.6720764
21
69.5524898
0
LINE
8
0
10
13.6720764
20
69.5524898
11
14.2632111
21
69.1395448
0
LINE
8
0
10
14.2632111
20
69.1395448
11
14.3168745
21
69.0948886
0
LINE
8
0
10
14.3168745
20
69.0948886
11
14.8233214
21
68.4604449
0
LINE
8
0
10
14.8233214
20
68.4604449
11
14.9046392
21
68.3350835
0
LINE
8
0
10
14.9046392
20
68.3350835
11
15.3009732
21
67.5457267
0
LINE
8
0
10
15.3009732
20
67.5457267
11
15.4003103
21
67.2852878
0
LINE
8
0
10
15.4003103
20
67.2852878
11
15.6730721
21
66.4213766
0
LINE
8
0
10
15.6730721
20
66.4213766
11
15.7644597
21
65.9766977
0
LINE
8
0
10
15.7644597
20
65.9766977
11
15.9144696
21
65.123445
0
LINE
8
0
10
15.9144696
20
65.123445
11
15.9551386
21
64.386686
0
LINE
8
0
10
15.9551386
20
64.386686
11
15.9832702
21
64.0156415
0
LINE
8
0
10
15.9832702
20
64.0156415
11
16
21
63.7051573
0
LINE
8
0
10
16
20
63.7051573
11
16
21
61.9624582
0
LINE
8
0
10
16
20
61.9624582
11
16
21
61.9624582
0
LINE
8
0
10
16
20
-13.1632738
11
16
21
-13.2011741
0
LINE
8
0
10
16
20
-13.2011741
11
16
21
-13.2392137
0
LINE
8
0
10
16
20
-13.2392137
11
16
21
-13.3981178
0
LINE
8
0
10
16
20
-13.3981178
11
16
21
-13.5485374
0
LINE
8
0
10
16
20
-13.5485374
11
16
21
-13.5864412
0
LINE
8
0
10
16
20
-13.5864412
11
16
21
-13.7300681
0
LINE
8
0
10
16
20
-13.7300681
11
16
21
-13.7656574
0
LINE
8
0
10
16
20
-13.7656574
11
16
21
-13.794871
0
LINE
8
0
10
16
20
-13.794871
11
16
21
-14
0
LINE
8
0
10
16
20
-14
11
15.985931
21
-14.2310405
0
LINE
8
0
10
15.985931
20
-14.2310405
11
15.9843184
21
-14.2432892
0
LINE
8
0
10
15.9843184
20
-14.2432892
11
15.9827208
21
-14.2516427
0
LINE
8
0
10
15.9827208
20
-14.2516427
11
15.9431356
21
-14.4716253
0
LINE
8
0
10
15.9431356
20
-14.4716253
11
15.8001024
21
-14.8639215
0
LINE
8
0
10
15.8001024
20
-14.8639215
11
15.7832546
21
-14.9045956
0
LINE
8
0
10
15.7832546
20
-14.9045956
11
15.5816616
21
-15.2203184
0
LINE
8
0
10
15.5816616
20
-15.2203184
11
15.5464579
21
-15.2661958
0
LINE
8
0
10
15.5464579
20
-15.2661958
11
15.3157685
21
-15.5049717
0
LINE
8
0
10
15.3157685
20
-15.5049717
11
15.2584105
21
-15.5489525
0
LINE
8
0
10
15.2584105
20
-15.5489525
11
14.9977615
21
-15.733135
0
LINE
8
0
10
14.9977615
20
-15.733135
11
14.7336806
21
-15.8549188
0
LINE
8
0
10
14.7336806
20
-15.8549188
11
14.6399115
21
-15.8937202
0
LINE
8
0
10
14.6399115
20
-15.8937202
11
14.3727686
21
-15.963045
0
LINE
8
0
10
14.3727686
20
-15.963045
11
14.2952804
21
-15.9750028
0
LINE
8
0
10
14.2952804
20
-15.9750028
11
14
21
-16
0
LINE
8
0
10
14
20
-16
11
12.8167043
21
-16
0
LINE
8
0
10
12.8167043
20
-16
11
4.4
21
-16
0
LINE
8
0
10
4.4
20
-16
11
4.26639846
21
-15.9868791
0
LINE
8
0
10
4.26639846
20
-15.9868791
11
4.12250327
21
-15.963466
0
LINE
8
0
10
4.12250327
20
-15.963466
11
3.882362
21
-15.93185
0
LINE
8
0
10
3.882362
20
-15.93185
11
3.48492412
21
-15.7674486
0
LINE
8
0
10
3.48492412
20
-15.7674486
11
3.40148064
21
-15.7329086
0
LINE
8
0
10
3.40148064
20
-15.7329086
11
3.05770181
21
-15.469367
0
LINE
8
0
10
3.05770181
20
-15.469367
11
2.985786
21
-15.41421
0
LINE
8
0
10
2.985786
20
-15.41421
11
2.93071099
21
-15.3424354
0
LINE
8
0
10
2.93071099
20
-15.3424354
11
2.667949
21
-15
0
LINE
8
0
10
2.667949
20
-15
11
2.63332735
21
-14.9164163
0
LINE
8
0
10
2.63332735
20
-14.9164163
11
2.468148
21
-14.51764
0
LINE
8
0
10
2.468148
20
-14.51764
11
2.46224363
21
-14.4727915
0
LINE
8
0
10
2.46224363
20
-14.4727915
11
2.40878777
21
-14.1443522
0
LINE
8
0
10
2.40878777
20
-14.1443522
11
2.4
21
-14
0
LINE
8
0
10
2.4
20
-14
11
2.4
21
-13.982964
0
LINE
8
0
10
2.4
20
-13.982964
11
2.4
21
-9.27586048
0
LINE
8
0
10
2.4
20
-9.27586048
11
2.4
21
-8.99639012
0
LINE
8
0
10
2.4
20
-8.99639012
11
2.4
21
-8.69320444
0
LINE
8
0
10
2.4
20
-8.69320444
11
2.4
21
2.16418822
0
LINE
8
0
10
2.4
20
2.16418822
11
2.4
21
2.29556424
0
LINE
8
0
10
2.4
20
2.29556424
11
2.4
21
2.45468579
0
LINE
8
0
10
2.4
20
2.45468579
11
2.4
21
2.62722783
0
LINE
8
0
10
2.4
20
2.62722783
11
2.4
21
5.49092738
0
LINE
8
0
10
2.4
20
5.49092738
11
2.4
21
5.67096791
0
LINE
8
0
10
2.4
20
5.67096791
11
2.4
21
9.2060906
0
LINE
8
0
10
2.4
20
9.2060906
11
2.4
21
10.2243693
0
LINE
8
0
10
2.4
20
10.2243693
11
2.4
21
12.9397794
0
LINE
8
0
10
2.4
20
12.9397794
11
13.0606599
21
12.9397794
0
LINE
8
0
10
13.0606599
20
12.9397794
11
16
21
12.9397794
0
LINE
8
0
10
16
20
12.9397794
11
16
21
9.8684925
0
LINE
8
0
10
16
20
9.8684925
11
16
21
7.33935628
0
LINE
8
0
10
16
20
7.33935628
11
16
21
7.04155908
0
LINE
8
0
10
16
20
7.04155908
11
16
21
-12.5232199
0
LINE
8
0
10
16
20
-12.5232199
11
16
21
-13.1286145
0
LINE
8
0
10
16
20
-13.1286145
11
16
21
-13.1632738
0
LINE
8
0
10
16
20
-13.1632738
11
16
21
-13.1632738
0
ENDSEC
0
EOF
