0
SECTION
2
ENTITIES
0
LINE
8
0
10
16
20
26.813647
11
16
21
30.7977408
0
LINE
8
0
10
16
20
30.7977408
11
16
21
31.5945592
0
LINE
8
0
10
16
20
31.5945592
11
16
21
37.7259444
0
LINE
8
0
10
16
20
37.7259444
11
6.37131826
21
37.7259444
0
LINE
8
0
10
6.37131826
20
37.7259444
11
2.4
21
37.7259444
0
LINE
8
0
10
2.4
20
37.7259444
11
2.4
21
35.0008843
0
LINE
8
0
10
2.4
20
35.0008843
11
2.4
21
31.5945592
0
LINE
8
0
10
2.4
20
31.5945592
11
2.4
21
31.1164682
0
LINE
8
0
10
2.4
20
31.1164682
11
2.4
21
30.7977408
0
LINE
8
0
10
2.4
20
30.7977408
11
2.4
21
26.4361608
0
LINE
8
0
10
2.4
20
26.4361608
11
2.4
21
22.1374867
0
LINE
8
0
10
2.4
20
22.1374867
11
2.4
21
21.7633932
0
LINE
8
0
10
2.4
20
21.7633932
11
2.4
21
21.2022542
0
LINE
8
0
10
2.4
20
21.2022542
11
2.4
21
17.8728292
0
LINE
8
0
10
2.4
20
17.8728292
11
2.4
21
15.2092824
0
LINE
8
0
10
2.4
20
15.2092824
11
6.58868174
21
15.2092824
0
LINE
8
0
10
6.58868174
20
15.2092824
11
16
21
15.2092824
0
LINE
8
0
10
16
20
15.2092824
11
16
21
21.2022542
0
LINE
8
0
10
16
20
21.2022542
11
16
21
22.1374867
0
LINE
8
0
10
16
20
22.1374867
11
16
21
26.813647
0
LINE
8
0
10
16
20
26.813647
11
16
21
26.813647
0
LINE
8
0
10
16
20
7.14021028
11
16
21
8.16528841
0
LINE
8
0
10
16
20
8.16528841
11
16
21
12.5419998
0
LINE
8
0
10
16
20
12.5419998
11
11.8113183
21
12.5419998
0
LINE
8
0
10
11.8113183
20
12.5419998
11
2.4
21
12.5419998
0
LINE
8
0
10
2.4
20
12.5419998
11
2.4
21
10.1448134
0
LINE
8
0
10
2.4
20
10.1448134
11
2.4
21
9.24586858
0
LINE
8
0
10
2.4
20
9.24586858
11
2.4
21
5.60977098
0
LINE
8
0
10
2.4
20
5.60977098
11
2.4
21
5.42458789
0
LINE
8
0
10
2.4
20
5.42458789
11
2.4
21
2.68830995
0
LINE
8
0
10
2.4
20
2.68830995
11
2.4
21
2.52344524
0
LINE
8
0
10
2.4
20
2.52344524
11
2.4
21
2.37140388
0
LINE
8
0
10
2.4
20
2.37140388
11
2.4
21
2.2458735
0
LINE
8
0
10
2.4
20
2.2458735
11
2.4
21
-8.77660622
0
LINE
8
0
10
2.4
20
-8.77660622
11
2.4
21
-9.07453138
0
LINE
8
0
10
2.4
20
-9.07453138
11
2.4
21
-9.3581421
0
LINE
8
0
10
2.4
20
-9.3581421
11
2.4
21
-13.9832607
0
LINE
8
0
10
2.4
20
-13.9832607
11
2.4
21
-14
0
LINE
8
0
10
2.4
20
-14
11
2.40888608
21
-14.145967
0
LINE
8
0
10
2.40888608
20
-14.145967
11
2.46293995
21
-14.4780806
0
LINE
8
0
10
2.46293995
20
-14.4780806
11
2.468148
21
-14.51764
0
LINE
8
0
10
2.468148
20
-14.51764
11
2.63741035
21
-14.9262735
0
LINE
8
0
10
2.63741035
20
-14.9262735
11
2.667949
21
-15
0
LINE
8
0
10
2.667949
20
-15
11
2.9372061
21
-15.3508999
0
LINE
8
0
10
2.9372061
20
-15.3508999
11
2.985786
21
-15.41421
0
LINE
8
0
10
2.985786
20
-15.41421
11
3.04922064
21
-15.4628622
0
LINE
8
0
10
3.04922064
20
-15.4628622
11
3.4014972
21
-15.7329182
0
LINE
8
0
10
3.4014972
20
-15.7329182
11
3.47510002
21
-15.7633848
0
LINE
8
0
10
3.47510002
20
-15.7633848
11
3.882362
21
-15.93185
0
LINE
8
0
10
3.882362
20
-15.93185
11
4.12843922
21
-15.9642475
0
LINE
8
0
10
4.12843922
20
-15.9642475
11
4.26925634
21
-15.9871598
0
LINE
8
0
10
4.26925634
20
-15.9871598
11
4.4
21
-16
0
LINE
8
0
10
4.4
20
-16
11
12.9108612
21
-16
0
LINE
8
0
10
12.9108612
20
-16
11
14
21
-16
0
LINE
8
0
10
14
20
-16
11
14.2985836
21
-15.9747232
0
LINE
8
0
10
14.2985836
20
-15.9747232
11
14.3689971
21
-15.9638572
0
LINE
8
0
10
14.3689971
20
-15.9638572
11
14.6430947
21
-15.8927275
0
LINE
8
0
10
14.6430947
20
-15.8927275
11
14.7267793
21
-15.8580991
0
LINE
8
0
10
14.7267793
20
-15.8580991
11
14.9977353
21
-15.7331448
0
LINE
8
0
10
14.9977353
20
-15.7331448
11
15.26517
21
-15.5441673
0
LINE
8
0
10
15.26517
20
-15.5441673
11
15.3132057
21
-15.5073346
0
LINE
8
0
10
15.3132057
20
-15.5073346
11
15.5499009
21
-15.2623424
0
LINE
8
0
10
15.5499009
20
-15.2623424
11
15.5777464
21
-15.2260541
0
LINE
8
0
10
15.5777464
20
-15.2260541
11
15.7845877
21
-14.9021119
0
LINE
8
0
10
15.7845877
20
-14.9021119
11
15.7966725
21
-14.8729365
0
LINE
8
0
10
15.7966725
20
-14.8729365
11
15.9434294
21
-14.4704274
0
LINE
8
0
10
15.9434294
20
-14.4704274
11
15.9840452
21
-14.2447178
0
LINE
8
0
10
15.9840452
20
-14.2447178
11
15.9849053
21
-14.2402201
0
LINE
8
0
10
15.9849053
20
-14.2402201
11
15.9857736
21
-14.2336251
0
LINE
8
0
10
15.9857736
20
-14.2336251
11
16
21
-14
0
LINE
8
0
10
16
20
-14
11
16
21
-13.9027498
0
LINE
8
0
10
16
20
-13.9027498
11
16
21
-13.8888998
0
LINE
8
0
10
16
20
-13.8888998
11
16
21
-13.8720272
0
LINE
8
0
10
16
20
-13.8720272
11
16
21
-13.7258922
0
LINE
8
0
10
16
20
-13.7258922
11
16
21
-13.709289
0
LINE
8
0
10
16
20
-13.709289
11
16
21
-13.556115
0
LINE
8
0
10
16
20
-13.556115
11
16
21
-13.3943013
0
LINE
8
0
10
16
20
-13.3943013
11
16
21
-13.3788836
0
LINE
8
0
10
16
20
-13.3788836
11
16
21
-13.3635223
0
LINE
8
0
10
16
20
-13.3635223
11
16
21
-13.3494746
0
LINE
8
0
10
16
20
-13.3494746
11
16
21
-13.1041036
0
LINE
8
0
10
16
20
-13.1041036
11
16
21
7.01951081
0
LINE
8
0
10
16
20
7.01951081
11
16
21
7.14021028
0
LINE
8
0
10
16
20
7.14021028
11
16
21
7.14021028
0
LINE
8
0
10
16
20
48.9427527
11
16
21
48.0905682
0
LINE
8
0
10
16
20
48.0905682
11
16
21
46.3862008
0
LINE
8
0
10
16
20
46.3862008
11
16
21
40.2548156
0
LINE
8
0
10
16
20
40.2548156
11
12.0286817
21
40.2548156
0
LINE
8
0
10
12.0286817
20
40.2548156
11
2.4
21
40.2548156
0
LINE
8
0
10
2.4
20
40.2548156
11
2.4
21
43.5992076
0
LINE
8
0
10
2.4
20
43.5992076
11
2.4
21
46.3862008
0
LINE
8
0
10
2.4
20
46.3862008
11
2.4
21
48.0905682
0
LINE
8
0
10
2.4
20
48.0905682
11
2.4
21
48.9427527
0
LINE
8
0
10
2.4
20
48.9427527
11
2.4
21
52.2007316
0
LINE
8
0
10
2.4
20
52.2007316
11
2.4
21
63.1252335
0
LINE
8
0
10
2.4
20
63.1252335
11
2.4
21
65.3073755
0
LINE
8
0
10
2.4
20
65.3073755
11
2.42503568
21
65.6877058
0
LINE
8
0
10
2.42503568
20
65.6877058
11
2.468148
21
66.3426536
0
LINE
8
0
10
2.468148
20
66.3426536
11
2.6167194
21
67.0600219
0
LINE
8
0
10
2.6167194
20
67.0600219
11
2.667949
21
67.307381
0
LINE
8
0
10
2.667949
20
67.307381
11
2.92807454
21
67.9853897
0
LINE
8
0
10
2.92807454
20
67.9853897
11
2.985786
21
68.1358127
0
LINE
8
0
10
2.985786
20
68.1358127
11
3.34846955
21
68.6923996
0
LINE
8
0
10
3.34846955
20
68.6923996
11
3.4
21
68.7714821
0
LINE
8
0
10
3.4
20
68.7714821
11
3.83964494
21
69.1357068
0
LINE
8
0
10
3.83964494
20
69.1357068
11
3.882362
21
69.1710943
0
LINE
8
0
10
3.882362
20
69.1710943
11
4.36091373
21
69.2970825
0
LINE
8
0
10
4.36091373
20
69.2970825
11
4.4
21
69.3073734
0
LINE
8
0
10
4.4
20
69.3073734
11
12.6788901
21
69.3073734
0
LINE
8
0
10
12.6788901
20
69.3073734
11
13
21
69.3073734
0
LINE
8
0
10
13
20
69.3073734
11
13.6383211
21
69.1635432
0
LINE
8
0
10
13.6383211
20
69.1635432
11
13.6763518
21
69.1525847
0
LINE
8
0
10
13.6763518
20
69.1525847
11
14.2438561
21
68.7561471
0
LINE
8
0
10
14.2438561
20
68.7561471
11
14.3245404
21
68.6890053
0
LINE
8
0
10
14.3245404
20
68.6890053
11
14.8097867
21
68.0811203
0
LINE
8
0
10
14.8097867
20
68.0811203
11
14.9144479
21
67.919772
0
LINE
8
0
10
14.9144479
20
67.919772
11
15.2928405
21
67.1661481
0
LINE
8
0
10
15.2928405
20
67.1661481
11
15.4103253
21
66.8581307
0
LINE
8
0
10
15.4103253
20
66.8581307
11
15.6692746
21
66.0379674
0
LINE
8
0
10
15.6692746
20
66.0379674
11
15.7722933
21
65.5366929
0
LINE
8
0
10
15.7722933
20
65.5366929
11
15.9134889
21
64.7335754
0
LINE
8
0
10
15.9134889
20
64.7335754
11
15.9517683
21
64.0401066
0
LINE
8
0
10
15.9517683
20
64.0401066
11
15.9820134
21
63.6411871
0
LINE
8
0
10
15.9820134
20
63.6411871
11
16
21
63.3073774
0
LINE
8
0
10
16
20
63.3073774
11
16
21
61.4337565
0
LINE
8
0
10
16
20
61.4337565
11
16
21
54.0948867
0
LINE
8
0
10
16
20
54.0948867
11
16
21
48.9427527
0
LINE
8
0
10
16
20
48.9427527
11
16
21
48.9427527
0
ENDSEC
0
EOF
