0
SECTION
2
ENTITIES
0
LINE
8
0
10
16
20
38.6636949
11
16
21
39.3170651
0
LINE
8
0
10
16
20
39.3170651
11
16
21
42.5839177
0
LINE
8
0
10
16
20
42.5839177
11
16
21
47.9773201
0
LINE
8
0
10
16
20
47.9773201
11
16
21
48.408792
0
LINE
8
0
10
16
20
48.408792
11
16
21
48.6245282
0
LINE
8
0
10
16
20
48.6245282
11
16
21
49.9288253
0
LINE
8
0
10
16
20
49.9288253
11
16
21
59.3189497
0
LINE
8
0
10
16
20
59.3189497
11
16
21
61.716258
0
LINE
8
0
10
16
20
61.716258
11
15.976986
21
62.1433693
0
LINE
8
0
10
15.976986
20
62.1433693
11
15.9382873
21
62.653789
0
LINE
8
0
10
15.9382873
20
62.653789
11
15.9095664
21
63.1740969
0
LINE
8
0
10
15.9095664
20
63.1740969
11
15.8036276
21
63.776674
0
LINE
8
0
10
15.8036276
20
63.776674
11
15.6540844
21
64.5043303
0
LINE
8
0
10
15.6540844
20
64.5043303
11
15.4503849
21
65.1495021
0
LINE
8
0
10
15.4503849
20
65.1495021
11
15.2603101
21
65.6478338
0
LINE
8
0
10
15.2603101
20
65.6478338
11
14.9536831
21
66.258526
0
LINE
8
0
10
14.9536831
20
66.258526
11
14.7556477
21
66.5638221
0
LINE
8
0
10
14.7556477
20
66.5638221
11
14.3552041
21
67.0654719
0
LINE
8
0
10
14.3552041
20
67.0654719
11
14.1664361
21
67.222556
0
LINE
8
0
10
14.1664361
20
67.222556
11
13.6934536
21
67.5529642
0
LINE
8
0
10
13.6934536
20
67.5529642
11
13.5814457
21
67.5852391
0
LINE
8
0
10
13.5814457
20
67.5852391
11
13
21
67.7162538
0
LINE
8
0
10
13
20
67.7162538
11
11.9412282
21
67.7162538
0
LINE
8
0
10
11.9412282
20
67.7162538
11
4.4
21
67.7162538
0
LINE
8
0
10
4.4
20
67.7162538
11
4.27112376
21
67.6823224
0
LINE
8
0
10
4.27112376
20
67.6823224
11
3.882362
21
67.5799733
0
LINE
8
0
10
3.882362
20
67.5799733
11
3.75413292
21
67.4737461
0
LINE
8
0
10
3.75413292
20
67.4737461
11
3.4
21
67.180364
0
LINE
8
0
10
3.4
20
67.180364
11
3.27356097
21
66.9863212
0
LINE
8
0
10
3.27356097
20
66.9863212
11
2.985786
21
66.5446917
0
LINE
8
0
10
2.985786
20
66.5446917
11
2.86963498
21
66.2419478
0
LINE
8
0
10
2.86963498
20
66.2419478
11
2.667949
21
65.71626
0
LINE
8
0
10
2.667949
20
65.71626
11
2.57954355
21
65.2893994
0
LINE
8
0
10
2.57954355
20
65.2893994
11
2.468148
21
64.7515326
0
LINE
8
0
10
2.468148
20
64.7515326
11
2.43582334
21
64.2604671
0
LINE
8
0
10
2.43582334
20
64.2604671
11
2.4
21
63.7162559
0
LINE
8
0
10
2.4
20
63.7162559
11
2.4
21
60.593848
0
LINE
8
0
10
2.4
20
60.593848
11
2.4
21
52.3598435
0
LINE
8
0
10
2.4
20
52.3598435
11
2.4
21
48.6245282
0
LINE
8
0
10
2.4
20
48.6245282
11
2.4
21
48.408792
0
LINE
8
0
10
2.4
20
48.408792
11
2.4
21
47.9773201
0
LINE
8
0
10
2.4
20
47.9773201
11
2.4
21
43.7438539
0
LINE
8
0
10
2.4
20
43.7438539
11
2.4
21
39.3170651
0
LINE
8
0
10
2.4
20
39.3170651
11
2.4
21
39.055717
0
LINE
8
0
10
2.4
20
39.055717
11
2.4
21
38.6636949
0
LINE
8
0
10
2.4
20
38.6636949
11
2.4
21
35.1776763
0
LINE
8
0
10
2.4
20
35.1776763
11
2.4
21
32.3888614
0
LINE
8
0
10
2.4
20
32.3888614
11
6.1460482
21
32.3888614
0
LINE
8
0
10
6.1460482
20
32.3888614
11
16
21
32.3888614
0
LINE
8
0
10
16
20
32.3888614
11
16
21
38.6636949
0
LINE
8
0
10
16
20
38.6636949
11
16
21
38.6636949
0
LINE
8
0
10
16
20
30.0034413
11
16
21
23.728609
0
LINE
8
0
10
16
20
23.728609
11
16
21
19.6111349
0
LINE
8
0
10
16
20
19.6111349
11
16
21
16.8004034
0
LINE
8
0
10
16
20
16.8004034
11
11.5860482
21
16.8004034
0
LINE
8
0
10
11.5860482
20
16.8004034
11
2.4
21
16.8004034
0
LINE
8
0
10
2.4
20
16.8004034
11
2.4
21
18.0496192
0
LINE
8
0
10
2.4
20
18.0496192
11
2.4
21
19.6111349
0
LINE
8
0
10
2.4
20
19.6111349
11
2.4
21
22.081617
0
LINE
8
0
10
2.4
20
22.081617
11
2.4
21
23.728609
0
LINE
8
0
10
2.4
20
23.728609
11
2.4
21
26.5808088
0
LINE
8
0
10
2.4
20
26.5808088
11
2.4
21
30.0034413
0
LINE
8
0
10
2.4
20
30.0034413
11
12.2539518
21
30.0034413
0
LINE
8
0
10
12.2539518
20
30.0034413
11
16
21
30.0034413
0
LINE
8
0
10
16
20
30.0034413
11
16
21
30.0034413
0
LINE
8
0
10
16
20
8.09289243
11
16
21
8.23521246
0
LINE
8
0
10
16
20
8.23521246
11
16
21
10.9508813
0
LINE
8
0
10
16
20
10.9508813
11
6.8139518
21
10.9508813
0
LINE
8
0
10
6.8139518
20
10.9508813
11
2.4
21
10.9508813
0
LINE
8
0
10
2.4
20
10.9508813
11
2.4
21
9.82658977
0
LINE
8
0
10
2.4
20
9.82658977
11
2.4
21
9.40498051
0
LINE
8
0
10
2.4
20
9.40498051
11
2.4
21
5.36498327
0
LINE
8
0
10
2.4
20
5.36498327
11
2.4
21
5.15922994
0
LINE
8
0
10
2.4
20
5.15922994
11
2.4
21
2.93263842
0
LINE
8
0
10
2.4
20
2.93263842
11
2.4
21
2.79848306
0
LINE
8
0
10
2.4
20
2.79848306
11
2.4
21
2.67476243
0
LINE
8
0
10
2.4
20
2.67476243
11
2.4
21
2.5726146
0
LINE
8
0
10
2.4
20
2.5726146
11
2.4
21
-9.11021331
0
LINE
8
0
10
2.4
20
-9.11021331
11
2.4
21
-9.38709641
0
LINE
8
0
10
2.4
20
-9.38709641
11
2.4
21
-9.68726856
0
LINE
8
0
10
2.4
20
-9.68726856
11
2.4
21
-13.9844476
0
LINE
8
0
10
2.4
20
-13.9844476
11
2.4
21
-14
0
LINE
8
0
10
2.4
20
-14
11
2.40927931
21
-14.1524265
0
LINE
8
0
10
2.40927931
20
-14.1524265
11
2.4657252
21
-14.4992369
0
LINE
8
0
10
2.4657252
20
-14.4992369
11
2.468148
21
-14.51764
0
LINE
8
0
10
2.468148
20
-14.51764
11
2.65374235
21
-14.9657023
0
LINE
8
0
10
2.65374235
20
-14.9657023
11
2.667949
21
-15
0
LINE
8
0
10
2.667949
20
-15
11
2.96318651
21
-15.384758
0
LINE
8
0
10
2.96318651
20
-15.384758
11
2.985786
21
-15.41421
0
LINE
8
0
10
2.985786
20
-15.41421
11
3.01529594
21
-15.4368431
0
LINE
8
0
10
3.01529594
20
-15.4368431
11
3.40156341
21
-15.7329566
0
LINE
8
0
10
3.40156341
20
-15.7329566
11
3.43580361
21
-15.7471297
0
LINE
8
0
10
3.43580361
20
-15.7471297
11
3.882362
21
-15.93185
0
LINE
8
0
10
3.882362
20
-15.93185
11
4.15218303
21
-15.9673735
0
LINE
8
0
10
4.15218303
20
-15.9673735
11
4.28068786
21
-15.9882825
0
LINE
8
0
10
4.28068786
20
-15.9882825
11
4.4
21
-16
0
LINE
8
0
10
4.4
20
-16
11
13.2874888
21
-16
0
LINE
8
0
10
13.2874888
20
-16
11
14
21
-16
0
LINE
8
0
10
14
20
-16
11
14.3117967
21
-15.9736046
0
LINE
8
0
10
14.3117967
20
-15.9736046
11
14.3539108
21
-15.9671057
0
LINE
8
0
10
14.3539108
20
-15.9671057
11
14.6558275
21
-15.8887568
0
LINE
8
0
10
14.6558275
20
-15.8887568
11
14.6991741
21
-15.8708202
0
LINE
8
0
10
14.6991741
20
-15.8708202
11
14.9976303
21
-15.7331839
0
LINE
8
0
10
14.9976303
20
-15.7331839
11
15.2922078
21
-15.5250264
0
LINE
8
0
10
15.2922078
20
-15.5250264
11
15.3029544
21
-15.5167861
0
LINE
8
0
10
15.3029544
20
-15.5167861
11
15.5214912
21
-15.2905889
0
LINE
8
0
10
15.5214912
20
-15.2905889
11
24.4655012
21
-15.2933018
0
LINE
8
0
10
24.4655012
20
-15.2933018
11
25.5
21
-15.2906986
0
LINE
8
0
10
25.5
20
-15.2906986
11
36.3363062
21
-15.2906986
0
LINE
8
0
10
36.3363062
20
-15.2906986
11
37
21
-15.2906986
0
LINE
8
0
10
37
20
-15.2906986
11
37.2557887
21
-15.2486053
0
LINE
8
0
10
37.2557887
20
-15.2486053
11
37.25882
21
-15.2481065
0
LINE
8
0
10
37.25882
20
-15.2481065
11
37.2785603
21
-15.2378882
0
LINE
8
0
10
37.2785603
20
-15.2378882
11
37.5
21
-15.0885061
0
LINE
8
0
10
37.5
20
-15.0885061
11
37.5563503
21
-15.0180864
0
LINE
8
0
10
37.5563503
20
-15.0180864
11
37.70711
21
-14.8296898
0
LINE
8
0
10
37.70711
20
-14.8296898
11
37.8608571
21
-14.5033706
0
LINE
8
0
10
37.8608571
20
-14.5033706
11
37.86603
21
-14.4859053
0
LINE
8
0
10
37.86603
20
-14.4859053
11
37.9492064
21
-13.9656693
0
LINE
8
0
10
37.9492064
20
-13.9656693
11
37.96593
21
-13.6589951
0
LINE
8
0
10
37.96593
20
-13.6589951
11
37.9686854
21
-13.5
0
LINE
8
0
10
37.9686854
20
-13.5
11
37.9686854
21
-8.46028676
0
LINE
8
0
10
37.9686854
20
-8.46028676
11
37.9686854
21
-3.42057353
0
LINE
8
0
10
37.9686854
20
-3.42057353
11
37.9686854
21
-1.64679447
0
LINE
8
0
10
37.9686854
20
-1.64679447
11
37.9686854
21
3.39291876
0
LINE
8
0
10
37.9686854
20
3.39291876
11
37.952681
21
8.09288914
0
LINE
8
0
10
37.952681
20
8.09288914
11
37.7621118
21
8.09289244
0
LINE
8
0
10
37.7621118
20
8.09289244
11
32.7664596
21
8.09289244
0
LINE
8
0
10
32.7664596
20
8.09289244
11
19.3532919
21
8.09289184
0
LINE
8
0
10
19.3532919
20
8.09289184
11
17.0422535
21
8.09289218
0
LINE
8
0
10
17.0422535
20
8.09289218
11
16
21
8.09289243
0
LINE
8
0
10
16
20
8.09289243
11
16
21
8.09289243
0
ENDSEC
0
EOF
