0
SECTION
2
ENTITIES
0
LINE
8
0
10
16
20
60.9206983
11
16
21
58.2615463
0
LINE
8
0
10
16
20
58.2615463
11
16
21
48.77288
0
LINE
8
0
10
16
20
48.77288
11
3.20473143
21
48.77288
0
LINE
8
0
10
3.20473143
20
48.77288
11
2.4
21
48.77288
0
LINE
8
0
10
2.4
20
48.77288
11
2.4
21
52.4393995
0
LINE
8
0
10
2.4
20
52.4393995
11
2.4
21
59.3281552
0
LINE
8
0
10
2.4
20
59.3281552
11
2.4
21
62.9206961
0
LINE
8
0
10
2.4
20
62.9206961
11
2.44121717
21
63.5468478
0
LINE
8
0
10
2.44121717
20
63.5468478
11
2.468148
21
63.955972
0
LINE
8
0
10
2.468148
20
63.955972
11
2.56095562
21
64.4040882
0
LINE
8
0
10
2.56095562
20
64.4040882
11
2.667949
21
64.9206994
0
LINE
8
0
10
2.667949
20
64.9206994
11
2.8404152
21
65.3702269
0
LINE
8
0
10
2.8404152
20
65.3702269
11
2.985786
21
65.7491311
0
LINE
8
0
10
2.985786
20
65.7491311
11
3.23610668
21
66.133282
0
LINE
8
0
10
3.23610668
20
66.133282
11
3.4
21
66.3848049
0
LINE
8
0
10
3.4
20
66.3848049
11
3.71137691
21
66.6427657
0
LINE
8
0
10
3.71137691
20
66.6427657
11
3.882362
21
66.7844127
0
LINE
8
0
10
3.882362
20
66.7844127
11
4.22622877
21
66.8749424
0
LINE
8
0
10
4.22622877
20
66.8749424
11
4.4
21
66.920694
0
LINE
8
0
10
4.4
20
66.920694
11
11.5723972
21
66.920694
0
LINE
8
0
10
11.5723972
20
66.920694
11
13
21
66.920694
0
LINE
8
0
10
13
20
66.920694
11
13.553008
21
66.796087
0
LINE
8
0
10
13.553008
20
66.796087
11
13.7020045
21
66.753154
0
LINE
8
0
10
13.7020045
20
66.753154
11
14.1277261
21
66.4557605
0
LINE
8
0
10
14.1277261
20
66.4557605
11
14.3705359
21
66.2537052
0
LINE
8
0
10
14.3705359
20
66.2537052
11
14.7285783
21
65.805173
0
LINE
8
0
10
14.7285783
20
65.805173
11
14.9733007
21
65.427903
0
LINE
8
0
10
14.9733007
20
65.427903
11
15.2440449
21
64.8886766
0
LINE
8
0
10
15.2440449
20
64.8886766
11
15.4704148
21
64.2951878
0
LINE
8
0
10
15.4704148
20
64.2951878
11
15.6464893
21
63.7375117
0
LINE
8
0
10
15.6464893
20
63.7375117
11
15.8192948
21
62.8966645
0
LINE
8
0
10
15.8192948
20
62.8966645
11
15.9076051
21
62.3943576
0
LINE
8
0
10
15.9076051
20
62.3943576
11
15.9315468
21
61.9606302
0
LINE
8
0
10
15.9315468
20
61.9606302
11
15.9744724
21
61.3944604
0
LINE
8
0
10
15.9744724
20
61.3944604
11
16
21
60.9206983
0
LINE
8
0
10
16
20
60.9206983
11
16
21
60.9206983
0
LINE
8
0
10
16
20
37.8681353
11
16
21
33.184422
0
LINE
8
0
10
16
20
33.184422
11
8.64473143
21
33.184422
0
LINE
8
0
10
8.64473143
20
33.184422
11
2.4
21
33.184422
0
LINE
8
0
10
2.4
20
33.184422
11
2.4
21
35.2660724
0
LINE
8
0
10
2.4
20
35.2660724
11
2.4
21
37.8681353
0
LINE
8
0
10
2.4
20
37.8681353
11
2.4
21
39.2148289
0
LINE
8
0
10
2.4
20
39.2148289
11
2.4
21
40.1126247
0
LINE
8
0
10
2.4
20
40.1126247
11
2.4
21
43.8161771
0
LINE
8
0
10
2.4
20
43.8161771
11
2.4
21
48.26044
0
LINE
8
0
10
2.4
20
48.26044
11
15.1952686
21
48.26044
0
LINE
8
0
10
15.1952686
20
48.26044
11
16
21
48.26044
0
LINE
8
0
10
16
20
48.26044
11
16
21
40.1126247
0
LINE
8
0
10
16
20
40.1126247
11
16
21
37.8681353
0
LINE
8
0
10
16
20
37.8681353
11
16
21
37.8681353
0
LINE
8
0
10
16
20
29.2078826
11
16
21
24.5241702
0
LINE
8
0
10
16
20
24.5241702
11
16
21
18.8155753
0
LINE
8
0
10
16
20
18.8155753
11
16
21
17.595964
0
LINE
8
0
10
16
20
17.595964
11
14.0847314
21
17.595964
0
LINE
8
0
10
14.0847314
20
17.595964
11
2.4
21
17.595964
0
LINE
8
0
10
2.4
20
17.595964
11
2.4
21
18.1380142
0
LINE
8
0
10
2.4
20
18.1380142
11
2.4
21
18.8155753
0
LINE
8
0
10
2.4
20
18.8155753
11
2.4
21
22.2407289
0
LINE
8
0
10
2.4
20
22.2407289
11
2.4
21
24.5241702
0
LINE
8
0
10
2.4
20
24.5241702
11
2.4
21
26.6531328
0
LINE
8
0
10
2.4
20
26.6531328
11
2.4
21
29.2078826
0
LINE
8
0
10
2.4
20
29.2078826
11
9.75526857
21
29.2078826
0
LINE
8
0
10
9.75526857
20
29.2078826
11
16
21
29.2078826
0
LINE
8
0
10
16
20
29.2078826
11
16
21
29.2078826
0
LINE
8
0
10
16
20
8.74886475
11
16
21
8.97695957
0
LINE
8
0
10
16
20
8.97695957
11
16
21
10.155322
0
LINE
8
0
10
16
20
10.155322
11
4.31526857
21
10.155322
0
LINE
8
0
10
4.31526857
20
10.155322
11
2.4
21
10.155322
0
LINE
8
0
10
2.4
20
10.155322
11
2.4
21
9.66747797
0
LINE
8
0
10
2.4
20
9.66747797
11
2.4
21
9.48453647
0
LINE
8
0
10
2.4
20
9.48453647
11
2.4
21
5.24258941
0
LINE
8
0
10
2.4
20
5.24258941
11
2.4
21
5.02655097
0
LINE
8
0
10
2.4
20
5.02655097
11
2.4
21
3.05480266
0
LINE
8
0
10
2.4
20
3.05480266
11
2.4
21
2.93600197
0
LINE
8
0
10
2.4
20
2.93600197
11
2.4
21
2.82644171
0
LINE
8
0
10
2.4
20
2.82644171
11
2.4
21
2.73598514
0
LINE
8
0
10
2.4
20
2.73598514
11
2.4
21
-9.27701686
0
LINE
8
0
10
2.4
20
-9.27701686
11
2.4
21
-9.54337893
0
LINE
8
0
10
2.4
20
-9.54337893
11
2.4
21
-9.8518318
0
LINE
8
0
10
2.4
20
-9.8518318
11
2.4
21
-13.985041
0
LINE
8
0
10
2.4
20
-13.985041
11
2.4
21
-14
0
LINE
8
0
10
2.4
20
-14
11
2.40947593
21
-14.1556562
0
LINE
8
0
10
2.40947593
20
-14.1556562
11
2.46711783
21
-14.509815
0
LINE
8
0
10
2.46711783
20
-14.509815
11
2.468148
21
-14.51764
0
LINE
8
0
10
2.468148
20
-14.51764
11
2.66190835
21
-14.9854166
0
LINE
8
0
10
2.66190835
20
-14.9854166
11
2.667949
21
-15
0
LINE
8
0
10
2.667949
20
-15
11
2.97617672
21
-15.401687
0
LINE
8
0
10
2.97617672
20
-15.401687
11
2.985786
21
-15.41421
0
LINE
8
0
10
2.985786
20
-15.41421
11
2.9983336
21
-15.4238336
0
LINE
8
0
10
2.9983336
20
-15.4238336
11
3.40159651
21
-15.7329758
0
LINE
8
0
10
3.40159651
20
-15.7329758
11
3.41615541
21
-15.7390022
0
LINE
8
0
10
3.41615541
20
-15.7390022
11
3.882362
21
-15.93185
0
LINE
8
0
10
3.882362
20
-15.93185
11
4.16405493
21
-15.9689365
0
LINE
8
0
10
4.16405493
20
-15.9689365
11
4.28640362
21
-15.9888438
0
LINE
8
0
10
4.28640362
20
-15.9888438
11
4.4
21
-16
0
LINE
8
0
10
4.4
20
-16
11
13.4758026
21
-16
0
LINE
8
0
10
13.4758026
20
-16
11
14
21
-16
0
LINE
8
0
10
14
20
-16
11
14.3184033
21
-15.9730453
0
LINE
8
0
10
14.3184033
20
-15.9730453
11
14.3463677
21
-15.9687299
0
LINE
8
0
10
14.3463677
20
-15.9687299
11
14.6621939
21
-15.8867715
0
LINE
8
0
10
14.6621939
20
-15.8867715
11
14.6853715
21
-15.8771807
0
LINE
8
0
10
14.6853715
20
-15.8771807
11
14.9975778
21
-15.7332034
0
LINE
8
0
10
14.9975778
20
-15.7332034
11
15.1318225
21
-15.638342
0
LINE
8
0
10
15.1318225
20
-15.638342
11
24.1939654
21
-15.6464234
0
LINE
8
0
10
24.1939654
20
-15.6464234
11
25.5
21
-15.6431369
0
LINE
8
0
10
25.5
20
-15.6431369
11
26.1345895
21
-15.6431369
0
LINE
8
0
10
26.1345895
20
-15.6431369
11
37
21
-15.6431369
0
LINE
8
0
10
37
20
-15.6431369
11
37.0149794
21
-15.6406718
0
LINE
8
0
10
37.0149794
20
-15.6406718
11
37.25882
21
-15.6005513
0
LINE
8
0
10
37.25882
20
-15.6005513
11
37.2838173
21
-15.5876117
0
LINE
8
0
10
37.2838173
20
-15.5876117
11
37.5
21
-15.4757123
0
LINE
8
0
10
37.5
20
-15.4757123
11
37.5524076
21
-15.4254592
0
LINE
8
0
10
37.5524076
20
-15.4254592
11
37.70711
21
-15.2771124
0
LINE
8
0
10
37.70711
20
-15.2771124
11
37.7966433
21
-15.1312946
0
LINE
8
0
10
37.7966433
20
-15.1312946
11
37.86603
21
-15.0182909
0
LINE
8
0
10
37.86603
20
-15.0182909
11
37.9454852
21
-14.7785714
0
LINE
8
0
10
37.9454852
20
-14.7785714
11
37.96593
21
-14.6981861
0
LINE
8
0
10
37.96593
20
-14.6981861
11
37.9874054
21
-14.4324945
0
LINE
8
0
10
37.9874054
20
-14.4324945
11
38
21
-14.2766749
0
LINE
8
0
10
38
20
-14.2766749
11
38
21
-14.0345756
0
LINE
8
0
10
38
20
-14.0345756
11
38
21
-13.8835261
0
LINE
8
0
10
38
20
-13.8835261
11
38
21
1.57375741
0
LINE
8
0
10
38
20
1.57375741
11
38
21
3.77579019
0
LINE
8
0
10
38
20
3.77579019
11
38
21
4.97352918
0
LINE
8
0
10
38
20
4.97352918
11
38
21
8.74886455
0
LINE
8
0
10
38
20
8.74886455
11
21.3742857
21
8.74886379
0
LINE
8
0
10
21.3742857
20
8.74886379
11
17.6704087
21
8.74886435
0
LINE
8
0
10
17.6704087
20
8.74886435
11
16
21
8.74886475
0
LINE
8
0
10
16
20
8.74886475
11
16
21
8.74886475
0
ENDSEC
0
EOF
