0
SECTION
2
ENTITIES
0
LINE
8
0
10
16
20
33.5822022
11
16
21
37.4703555
0
LINE
8
0
10
16
20
37.4703555
11
16
21
40.5104045
0
LINE
8
0
10
16
20
40.5104045
11
16
21
47.8626598
0
LINE
8
0
10
16
20
47.8626598
11
13.945927
21
47.8626598
0
LINE
8
0
10
13.945927
20
47.8626598
11
2.4
21
47.8626598
0
LINE
8
0
10
2.4
20
47.8626598
11
2.4
21
43.8523387
0
LINE
8
0
10
2.4
20
43.8523387
11
2.4
21
40.5104045
0
LINE
8
0
10
2.4
20
40.5104045
11
2.4
21
39.2943849
0
LINE
8
0
10
2.4
20
39.2943849
11
2.4
21
37.4703555
0
LINE
8
0
10
2.4
20
37.4703555
11
2.4
21
35.3102704
0
LINE
8
0
10
2.4
20
35.3102704
11
2.4
21
33.5822022
0
LINE
8
0
10
2.4
20
33.5822022
11
9.89407304
21
33.5822022
0
LINE
8
0
10
9.89407304
20
33.5822022
11
16
21
33.5822022
0
LINE
8
0
10
16
20
33.5822022
11
16
21
33.5822022
0
LINE
8
0
10
16
20
24.9219507
11
16
21
18.4177955
0
LINE
8
0
10
16
20
18.4177955
11
16
21
17.9937442
0
LINE
8
0
10
16
20
17.9937442
11
15.334073
21
17.9937442
0
LINE
8
0
10
15.334073
20
17.9937442
11
2.4
21
17.9937442
0
LINE
8
0
10
2.4
20
17.9937442
11
2.4
21
18.1822117
0
LINE
8
0
10
2.4
20
18.1822117
11
2.4
21
18.4177955
0
LINE
8
0
10
2.4
20
18.4177955
11
2.4
21
22.3202849
0
LINE
8
0
10
2.4
20
22.3202849
11
2.4
21
24.9219507
0
LINE
8
0
10
2.4
20
24.9219507
11
2.4
21
26.6892948
0
LINE
8
0
10
2.4
20
26.6892948
11
2.4
21
28.8101033
0
LINE
8
0
10
2.4
20
28.8101033
11
8.50592696
21
28.8101033
0
LINE
8
0
10
8.50592696
20
28.8101033
11
16
21
28.8101033
0
LINE
8
0
10
16
20
28.8101033
11
16
21
24.9219507
0
LINE
8
0
10
16
20
24.9219507
11
16
21
24.9219507
0
LINE
8
0
10
16
20
49.1706602
11
16
21
57.7328446
0
LINE
8
0
10
16
20
57.7328446
11
16
21
60.5229184
0
LINE
8
0
10
16
20
60.5229184
11
15.9732155
21
61.0200059
0
LINE
8
0
10
15.9732155
20
61.0200059
11
15.9281765
21
61.6140508
0
LINE
8
0
10
15.9281765
20
61.6140508
11
15.9066245
21
62.004488
0
LINE
8
0
10
15.9066245
20
62.004488
11
15.8271284
21
62.4566597
0
LINE
8
0
10
15.8271284
20
62.4566597
11
15.6426917
21
63.3541024
0
LINE
8
0
10
15.6426917
20
63.3541024
11
15.4804297
21
63.8680307
0
LINE
8
0
10
15.4804297
20
63.8680307
11
15.2359123
21
64.509098
0
LINE
8
0
10
15.2359123
20
64.509098
11
14.9831095
21
65.0125915
0
LINE
8
0
10
14.9831095
20
65.0125915
11
14.7150435
21
65.4258485
0
LINE
8
0
10
14.7150435
20
65.4258485
11
14.3782018
21
65.8478218
0
LINE
8
0
10
14.3782018
20
65.8478218
11
14.1083711
21
66.0723628
0
LINE
8
0
10
14.1083711
20
66.0723628
11
13.7062799
21
66.3532488
0
LINE
8
0
10
13.7062799
20
66.3532488
11
13.5387891
21
66.401511
0
LINE
8
0
10
13.5387891
20
66.401511
11
13
21
66.5229141
0
LINE
8
0
10
13
20
66.5229141
11
11.3879817
21
66.5229141
0
LINE
8
0
10
11.3879817
20
66.5229141
11
4.4
21
66.5229141
0
LINE
8
0
10
4.4
20
66.5229141
11
4.20378127
21
66.4712524
0
LINE
8
0
10
4.20378127
20
66.4712524
11
3.882362
21
66.3866325
0
LINE
8
0
10
3.882362
20
66.3866325
11
3.6899989
21
66.2272756
0
LINE
8
0
10
3.6899989
20
66.2272756
11
3.4
21
65.9870254
0
LINE
8
0
10
3.4
20
65.9870254
11
3.21737953
21
65.7067624
0
LINE
8
0
10
3.21737953
20
65.7067624
11
2.985786
21
65.3513509
0
LINE
8
0
10
2.985786
20
65.3513509
11
2.82580531
21
64.9343664
0
LINE
8
0
10
2.82580531
20
64.9343664
11
2.667949
21
64.5229192
0
LINE
8
0
10
2.667949
20
64.5229192
11
2.55166165
21
63.9614325
0
LINE
8
0
10
2.55166165
20
63.9614325
11
2.468148
21
63.5581917
0
LINE
8
0
10
2.468148
20
63.5581917
11
2.44391408
21
63.1900382
0
LINE
8
0
10
2.44391408
20
63.1900382
11
2.4
21
62.5229162
0
LINE
8
0
10
2.4
20
62.5229162
11
2.4
21
58.6953089
0
LINE
8
0
10
2.4
20
58.6953089
11
2.4
21
52.4791774
0
LINE
8
0
10
2.4
20
52.4791774
11
2.4
21
49.1706602
0
LINE
8
0
10
2.4
20
49.1706602
11
4.45407304
21
49.1706602
0
LINE
8
0
10
4.45407304
20
49.1706602
11
16
21
49.1706602
0
LINE
8
0
10
16
20
49.1706602
11
16
21
49.1706602
0
LINE
8
0
10
16
20
9.34783312
11
16
21
9.75754241
0
LINE
8
0
10
16
20
9.75754241
11
3.06592696
21
9.75754241
0
LINE
8
0
10
3.06592696
20
9.75754241
11
2.4
21
9.75754241
0
LINE
8
0
10
2.4
20
9.75754241
11
2.4
21
9.58792207
0
LINE
8
0
10
2.4
20
9.58792207
11
2.4
21
9.52431445
0
LINE
8
0
10
2.4
20
9.52431445
11
2.4
21
5.18139248
0
LINE
8
0
10
2.4
20
5.18139248
11
2.4
21
4.96021148
0
LINE
8
0
10
2.4
20
4.96021148
11
2.4
21
3.11588478
0
LINE
8
0
10
2.4
20
3.11588478
11
2.4
21
3.00476142
0
LINE
8
0
10
2.4
20
3.00476142
11
2.4
21
2.90228135
0
LINE
8
0
10
2.4
20
2.90228135
11
2.4
21
2.81767042
0
LINE
8
0
10
2.4
20
2.81767042
11
2.4
21
-9.36041864
0
LINE
8
0
10
2.4
20
-9.36041864
11
2.4
21
-9.62152019
0
LINE
8
0
10
2.4
20
-9.62152019
11
2.4
21
-9.93411341
0
LINE
8
0
10
2.4
20
-9.93411341
11
2.4
21
-13.9853377
0
LINE
8
0
10
2.4
20
-13.9853377
11
2.4
21
-14
0
LINE
8
0
10
2.4
20
-14
11
2.40957423
21
-14.157271
0
LINE
8
0
10
2.40957423
20
-14.157271
11
2.46781414
21
-14.5151041
0
LINE
8
0
10
2.46781414
20
-14.5151041
11
2.468148
21
-14.51764
0
LINE
8
0
10
2.468148
20
-14.51764
11
2.66599135
21
-14.9952738
0
LINE
8
0
10
2.66599135
20
-14.9952738
11
2.667949
21
-15
0
LINE
8
0
10
2.667949
20
-15
11
2.98267183
21
-15.4101516
0
LINE
8
0
10
2.98267183
20
-15.4101516
11
2.985786
21
-15.41421
0
LINE
8
0
10
2.985786
20
-15.41421
11
2.98985242
21
-15.4173288
0
LINE
8
0
10
2.98985242
20
-15.4173288
11
3.40161306
21
-15.7329854
0
LINE
8
0
10
3.40161306
20
-15.7329854
11
3.40633131
21
-15.7349384
0
LINE
8
0
10
3.40633131
20
-15.7349384
11
3.882362
21
-15.93185
0
LINE
8
0
10
3.882362
20
-15.93185
11
4.16999088
21
-15.969718
0
LINE
8
0
10
4.16999088
20
-15.969718
11
4.2892615
21
-15.9891245
0
LINE
8
0
10
4.2892615
20
-15.9891245
11
4.4
21
-16
0
LINE
8
0
10
4.4
20
-16
11
13.5699595
21
-16
0
LINE
8
0
10
13.5699595
20
-16
11
14
21
-16
0
LINE
8
0
10
14
20
-16
11
14.3217066
21
-15.9727657
0
LINE
8
0
10
14.3217066
20
-15.9727657
11
14.3425961
21
-15.9695421
0
LINE
8
0
10
14.3425961
20
-15.9695421
11
14.6653771
21
-15.8857788
0
LINE
8
0
10
14.6653771
20
-15.8857788
11
14.6784702
21
-15.880361
0
LINE
8
0
10
14.6784702
20
-15.880361
11
14.9321024
21
-15.7633957
0
LINE
8
0
10
14.9321024
20
-15.7633957
11
16.6368519
21
-15.7615554
0
LINE
8
0
10
16.6368519
20
-15.7615554
11
25.5
21
-15.7483529
0
LINE
8
0
10
25.5
20
-15.7483529
11
33.1646903
21
-15.7483529
0
LINE
8
0
10
33.1646903
20
-15.7483529
11
37
21
-15.7483529
0
LINE
8
0
10
37
20
-15.7483529
11
37.1775191
21
-15.7232716
0
LINE
8
0
10
37.1775191
20
-15.7232716
11
37.25882
21
-15.7117862
0
LINE
8
0
10
37.25882
20
-15.7117862
11
37.4406338
21
-15.6309731
0
LINE
8
0
10
37.4406338
20
-15.6309731
11
37.5
21
-15.6045855
0
LINE
8
0
10
37.5
20
-15.6045855
11
37.6840719
21
-15.4530123
0
LINE
8
0
10
37.6840719
20
-15.4530123
11
37.70711
21
-15.4340414
0
LINE
8
0
10
37.70711
20
-15.4340414
11
37.7909623
21
-15.3167728
0
LINE
8
0
10
37.7909623
20
-15.3167728
11
37.86603
21
-15.1945171
0
LINE
8
0
10
37.86603
20
-15.1945171
11
37.8860834
21
-15.1340151
0
LINE
8
0
10
37.8860834
20
-15.1340151
11
37.96593
21
-14.8931141
0
LINE
8
0
10
37.96593
20
-14.8931141
11
37.9977919
21
-14.5906363
0
LINE
8
0
10
37.9977919
20
-14.5906363
11
38
21
-14.5696738
0
LINE
8
0
10
38
20
-14.5696738
11
38
21
-14.2813067
0
LINE
8
0
10
38
20
-14.2813067
11
38
21
-5.54004029
0
LINE
8
0
10
38
20
-5.54004029
11
38
21
-1.05413199
0
LINE
8
0
10
38
20
-1.05413199
11
38
21
1.38586223
0
LINE
8
0
10
38
20
1.38586223
11
38
21
9.07685048
0
LINE
8
0
10
38
20
9.07685048
11
22.3847826
21
9.07684977
0
LINE
8
0
10
22.3847826
20
9.07684977
11
17.9844864
21
9.07685044
0
LINE
8
0
10
17.9844864
20
9.07685044
11
16
21
9.07685091
0
LINE
8
0
10
16
20
9.07685091
11
16
21
9.34783312
0
LINE
8
0
10
16
20
9.34783312
11
16
21
9.34783312
0
ENDSEC
0
EOF
