0
SECTION
2
ENTITIES
0
LINE
8
0
10
16
20
59.7273587
11
16
21
56.6754411
0
LINE
8
0
10
16
20
56.6754411
11
16
21
49.9662208
0
LINE
8
0
10
16
20
49.9662208
11
6.95275627
21
49.9662208
0
LINE
8
0
10
6.95275627
20
49.9662208
11
2.4
21
49.9662208
0
LINE
8
0
10
2.4
20
49.9662208
11
2.4
21
52.5587334
0
LINE
8
0
10
2.4
20
52.5587334
11
2.4
21
57.4296161
0
LINE
8
0
10
2.4
20
57.4296161
11
2.4
21
61.7273564
0
LINE
8
0
10
2.4
20
61.7273564
11
2.44930791
21
62.4764189
0
LINE
8
0
10
2.44930791
20
62.4764189
11
2.468148
21
62.7626312
0
LINE
8
0
10
2.468148
20
62.7626312
11
2.53307372
21
63.0761213
0
LINE
8
0
10
2.53307372
20
63.0761213
11
2.667949
21
63.7273586
0
LINE
8
0
10
2.667949
20
63.7273586
11
2.79658553
21
64.0626455
0
LINE
8
0
10
2.79658553
20
64.0626455
11
2.985786
21
64.5557903
0
LINE
8
0
10
2.985786
20
64.5557903
11
3.17992524
21
64.8537232
0
LINE
8
0
10
3.17992524
20
64.8537232
11
3.4
21
65.1914664
0
LINE
8
0
10
3.4
20
65.1914664
11
3.64724289
21
65.3962952
0
LINE
8
0
10
3.64724289
20
65.3962952
11
3.882362
21
65.5910719
0
LINE
8
0
10
3.882362
20
65.5910719
11
4.15888629
21
65.6638724
0
LINE
8
0
10
4.15888629
20
65.6638724
11
4.4
21
65.7273543
0
LINE
8
0
10
4.4
20
65.7273543
11
11.0191508
21
65.7273543
0
LINE
8
0
10
11.0191508
20
65.7273543
11
13
21
65.7273543
0
LINE
8
0
10
13
20
65.7273543
11
13.5103514
21
65.612359
0
LINE
8
0
10
13.5103514
20
65.612359
11
13.7148308
21
65.5534386
0
LINE
8
0
10
13.7148308
20
65.5534386
11
14.069661
21
65.3055672
0
LINE
8
0
10
14.069661
20
65.3055672
11
14.3935337
21
65.0360551
0
LINE
8
0
10
14.3935337
20
65.0360551
11
14.687974
21
64.6671994
0
LINE
8
0
10
14.687974
20
64.6671994
11
15.0027271
21
64.1819685
0
LINE
8
0
10
15.0027271
20
64.1819685
11
15.219647
21
63.7499409
0
LINE
8
0
10
15.219647
20
63.7499409
11
15.5004595
21
63.0137164
0
LINE
8
0
10
15.5004595
20
63.0137164
11
15.6350966
21
62.5872839
0
LINE
8
0
10
15.6350966
20
62.5872839
11
15.8427956
21
61.5766503
0
LINE
8
0
10
15.8427956
20
61.5766503
11
15.9046632
21
61.2247488
0
LINE
8
0
10
15.9046632
20
61.2247488
11
15.921436
21
60.920892
0
LINE
8
0
10
15.921436
20
60.920892
11
15.9707019
21
60.271097
0
LINE
8
0
10
15.9707019
20
60.271097
11
16
21
59.7273587
0
LINE
8
0
10
16
20
59.7273587
11
16
21
59.7273587
0
LINE
8
0
10
16
20
36.6747959
11
16
21
41.3059641
0
LINE
8
0
10
16
20
41.3059641
11
16
21
47.0670992
0
LINE
8
0
10
16
20
47.0670992
11
11.4472437
21
47.0670992
0
LINE
8
0
10
11.4472437
20
47.0670992
11
2.4
21
47.0670992
0
LINE
8
0
10
2.4
20
47.0670992
11
2.4
21
43.9246619
0
LINE
8
0
10
2.4
20
43.9246619
11
2.4
21
41.3059641
0
LINE
8
0
10
2.4
20
41.3059641
11
2.4
21
39.4534968
0
LINE
8
0
10
2.4
20
39.4534968
11
2.4
21
36.6747959
0
LINE
8
0
10
2.4
20
36.6747959
11
2.4
21
35.3986664
0
LINE
8
0
10
2.4
20
35.3986664
11
2.4
21
34.3777628
0
LINE
8
0
10
2.4
20
34.3777628
11
12.3927563
21
34.3777628
0
LINE
8
0
10
12.3927563
20
34.3777628
11
16
21
34.3777628
0
LINE
8
0
10
16
20
34.3777628
11
16
21
36.6747959
0
LINE
8
0
10
16
20
36.6747959
11
16
21
36.6747959
0
LINE
8
0
10
16
20
28.0145446
11
16
21
25.7175119
0
LINE
8
0
10
16
20
25.7175119
11
16
21
21.1234439
0
LINE
8
0
10
16
20
21.1234439
11
16
21
18.7893041
0
LINE
8
0
10
16
20
18.7893041
11
16
21
17.6222352
0
LINE
8
0
10
16
20
17.6222352
11
4.23275627
21
17.6222352
0
LINE
8
0
10
4.23275627
20
17.6222352
11
2.4
21
17.6222352
0
LINE
8
0
10
2.4
20
17.6222352
11
2.4
21
18.2588189
0
LINE
8
0
10
2.4
20
18.2588189
11
2.4
21
18.7893041
0
LINE
8
0
10
2.4
20
18.7893041
11
2.4
21
22.4793968
0
LINE
8
0
10
2.4
20
22.4793968
11
2.4
21
25.7175119
0
LINE
8
0
10
2.4
20
25.7175119
11
2.4
21
26.7616189
0
LINE
8
0
10
2.4
20
26.7616189
11
2.4
21
28.0145446
0
LINE
8
0
10
2.4
20
28.0145446
11
6.00724373
21
28.0145446
0
LINE
8
0
10
6.00724373
20
28.0145446
11
16
21
28.0145446
0
LINE
8
0
10
16
20
28.0145446
11
16
21
28.0145446
0
LINE
8
0
10
16
20
10.0181139
11
16
21
10.1290508
0
LINE
8
0
10
16
20
10.1290508
11
14.1672437
21
10.1290508
0
LINE
8
0
10
14.1672437
20
10.1290508
11
2.4
21
10.1290508
0
LINE
8
0
10
2.4
20
10.1290508
11
2.4
21
9.49246845
0
LINE
8
0
10
2.4
20
9.49246845
11
2.4
21
8.96198268
0
LINE
8
0
10
2.4
20
8.96198268
11
2.4
21
5.05899863
0
LINE
8
0
10
2.4
20
5.05899863
11
2.4
21
4.82753251
0
LINE
8
0
10
2.4
20
4.82753251
11
2.4
21
3.23804901
0
LINE
8
0
10
2.4
20
3.23804901
11
2.4
21
3.14228033
0
LINE
8
0
10
2.4
20
3.14228033
11
2.4
21
3.05396063
0
LINE
8
0
10
2.4
20
3.05396063
11
2.4
21
2.98104097
0
LINE
8
0
10
2.4
20
2.98104097
11
2.4
21
-9.52722219
0
LINE
8
0
10
2.4
20
-9.52722219
11
2.4
21
-9.7778027
0
LINE
8
0
10
2.4
20
-9.7778027
11
2.4
21
-10.0986766
0
LINE
8
0
10
2.4
20
-10.0986766
11
2.4
21
-13.9859312
0
LINE
8
0
10
2.4
20
-13.9859312
11
2.4
21
-14
0
LINE
8
0
10
2.4
20
-14
11
2.40977085
21
-14.1605007
0
LINE
8
0
10
2.40977085
20
-14.1605007
11
2.466469
21
-14.508861
0
LINE
8
0
10
2.466469
20
-14.508861
11
2.46776924
21
-14.5160959
0
LINE
8
0
10
2.46776924
20
-14.5160959
11
2.47277351
21
-14.5297971
0
LINE
8
0
10
2.47277351
20
-14.5297971
11
2.66615145
21
-14.9966506
0
LINE
8
0
10
2.66615145
20
-14.9966506
11
2.67353294
21
-15.0081805
0
LINE
8
0
10
2.67353294
20
-15.0081805
11
2.98087566
21
-15.4087142
0
LINE
8
0
10
2.98087566
20
-15.4087142
11
2.98967259
21
-15.4177933
0
LINE
8
0
10
2.98967259
20
-15.4177933
11
3.39135713
21
-15.7257255
0
LINE
8
0
10
3.39135713
20
-15.7257255
11
3.40164999
21
-15.7329978
0
LINE
8
0
10
3.40164999
20
-15.7329978
11
3.4136597
21
-15.7385358
0
LINE
8
0
10
3.4136597
20
-15.7385358
11
3.87680273
21
-15.9301163
0
LINE
8
0
10
3.87680273
20
-15.9301163
11
3.88945987
21
-15.9333784
0
LINE
8
0
10
3.88945987
20
-15.9333784
11
3.90292921
21
-15.9345578
0
LINE
8
0
10
3.90292921
20
-15.9345578
11
4.18186279
21
-15.971281
0
LINE
8
0
10
4.18186279
20
-15.971281
11
4.29497726
21
-15.9896858
0
LINE
8
0
10
4.29497726
20
-15.9896858
11
4.4
21
-16
0
LINE
8
0
10
4.4
20
-16
11
13.7582733
21
-16
0
LINE
8
0
10
13.7582733
20
-16
11
14
21
-16
0
LINE
8
0
10
14
20
-16
11
14.3283131
21
-15.9722064
0
LINE
8
0
10
14.3283131
20
-15.9722064
11
14.335053
21
-15.9711663
0
LINE
8
0
10
14.335053
20
-15.9711663
11
14.5261293
21
-15.9215811
0
LINE
8
0
10
14.5261293
20
-15.9215811
11
23.1771132
21
-15.9266922
0
LINE
8
0
10
23.1771132
20
-15.9266922
11
24.4788767
21
-15.9223743
0
LINE
8
0
10
24.4788767
20
-15.9223743
11
26.5211233
21
-15.9223743
0
LINE
8
0
10
26.5211233
20
-15.9223743
11
37
21
-15.9223743
0
LINE
8
0
10
37
20
-15.9223743
11
37.2390977
21
-15.8908993
0
LINE
8
0
10
37.2390977
20
-15.8908993
11
37.25882
21
-15.8883032
0
LINE
8
0
10
37.25882
20
-15.8883032
11
37.4910306
21
-15.7921234
0
LINE
8
0
10
37.4910306
20
-15.7921234
11
37.5
21
-15.7884082
0
LINE
8
0
10
37.5
20
-15.7884082
11
37.614677
21
-15.7004113
0
LINE
8
0
10
37.614677
20
-15.7004113
11
37.70711
21
-15.6242966
0
LINE
8
0
10
37.70711
20
-15.6242966
11
37.7139138
21
-15.6147814
0
LINE
8
0
10
37.7139138
20
-15.6147814
11
37.86603
21
-15.4020447
0
LINE
8
0
10
37.86603
20
-15.4020447
11
37.8859002
21
-15.3505653
0
LINE
8
0
10
37.8859002
20
-15.3505653
11
37.96593
21
-15.143228
0
LINE
8
0
10
37.96593
20
-15.143228
11
37.9814609
21
-15.0166173
0
LINE
8
0
10
37.9814609
20
-15.0166173
11
38
21
-14.8654814
0
LINE
8
0
10
38
20
-14.8654814
11
38
21
-10.7139763
0
LINE
8
0
10
38
20
-10.7139763
11
38
21
-5.78947167
0
LINE
8
0
10
38
20
-5.78947167
11
38
21
9.73282235
0
LINE
8
0
10
38
20
9.73282235
11
24.4057764
21
9.73282173
0
LINE
8
0
10
24.4057764
20
9.73282173
11
18.6126416
21
9.73282261
0
LINE
8
0
10
18.6126416
20
9.73282261
11
16
21
9.73282323
0
LINE
8
0
10
16
20
9.73282323
11
16
21
10.0181139
0
LINE
8
0
10
16
20
10.0181139
11
16
21
10.0181139
0
ENDSEC
0
EOF
