0
SECTION
2
ENTITIES
0
LINE
8
0
10
16
20
10.0608094
11
16
21
10.3402707
0
LINE
8
0
10
16
20
10.3402707
11
16
21
10.5268305
0
LINE
8
0
10
16
20
10.5268305
11
12.9179021
21
10.5268305
0
LINE
8
0
10
12.9179021
20
10.5268305
11
2.4
21
10.5268305
0
LINE
8
0
10
2.4
20
10.5268305
11
2.4
21
9.45630664
0
LINE
8
0
10
2.4
20
9.45630664
11
2.4
21
8.56420272
0
LINE
8
0
10
2.4
20
8.56420272
11
2.4
21
4.9978017
0
LINE
8
0
10
2.4
20
4.9978017
11
2.4
21
4.76119302
0
LINE
8
0
10
2.4
20
4.76119302
11
2.4
21
3.29913113
0
LINE
8
0
10
2.4
20
3.29913113
11
2.4
21
3.21103978
0
LINE
8
0
10
2.4
20
3.21103978
11
2.4
21
3.12980027
0
LINE
8
0
10
2.4
20
3.12980027
11
2.4
21
3.06272624
0
LINE
8
0
10
2.4
20
3.06272624
11
2.4
21
-9.61062396
0
LINE
8
0
10
2.4
20
-9.61062396
11
2.4
21
-9.85594396
0
LINE
8
0
10
2.4
20
-9.85594396
11
2.4
21
-10.1809583
0
LINE
8
0
10
2.4
20
-10.1809583
11
2.4
21
-13.9862279
0
LINE
8
0
10
2.4
20
-13.9862279
11
2.4
21
-14
0
LINE
8
0
10
2.4
20
-14
11
2.40986916
21
-14.1621156
0
LINE
8
0
10
2.40986916
20
-14.1621156
11
2.46536478
21
-14.5030874
0
LINE
8
0
10
2.46536478
20
-14.5030874
11
2.46752014
21
-14.5150805
0
LINE
8
0
10
2.46752014
20
-14.5150805
11
2.47581554
21
-14.5377924
0
LINE
8
0
10
2.47581554
20
-14.5377924
11
2.66496927
21
-14.9944478
0
LINE
8
0
10
2.66496927
20
-14.9944478
11
2.67720529
21
-15.0135605
0
LINE
8
0
10
2.67720529
20
-15.0135605
11
2.9776463
21
-15.4050998
0
LINE
8
0
10
2.9776463
20
-15.4050998
11
2.99222866
21
-15.4201498
0
LINE
8
0
10
2.99222866
20
-15.4201498
11
3.38460697
21
-15.7209479
0
LINE
8
0
10
3.38460697
20
-15.7209479
11
3.40166906
21
-15.7330028
0
LINE
8
0
10
3.40166906
20
-15.7330028
11
3.42157711
21
-15.7421831
0
LINE
8
0
10
3.42157711
20
-15.7421831
11
3.8731466
21
-15.9289762
0
LINE
8
0
10
3.8731466
20
-15.9289762
11
3.89412787
21
-15.9343836
0
LINE
8
0
10
3.89412787
20
-15.9343836
11
3.91645551
21
-15.9363386
0
LINE
8
0
10
3.91645551
20
-15.9363386
11
4.18779874
21
-15.9720625
0
LINE
8
0
10
4.18779874
20
-15.9720625
11
4.29783514
21
-15.9899665
0
LINE
8
0
10
4.29783514
20
-15.9899665
11
4.4
21
-16
0
LINE
8
0
10
4.4
20
-16
11
13.8524302
21
-16
0
LINE
8
0
10
13.8524302
20
-16
11
14
21
-16
0
LINE
8
0
10
14
20
-16
11
14.3217416
21
-15.9727627
0
LINE
8
0
10
14.3217416
20
-15.9727627
11
20.3971652
21
-15.9526109
0
LINE
8
0
10
20.3971652
20
-15.9526109
11
30.6028348
21
-15.9526109
0
LINE
8
0
10
30.6028348
20
-15.9526109
11
37
21
-15.9526109
0
LINE
8
0
10
37
20
-15.9526109
11
37.1459648
21
-15.933396
0
LINE
8
0
10
37.1459648
20
-15.933396
11
37.25882
21
-15.9185402
0
LINE
8
0
10
37.25882
20
-15.9185402
11
37.4005804
21
-15.8598242
0
LINE
8
0
10
37.4005804
20
-15.8598242
11
37.5
21
-15.8186433
0
LINE
8
0
10
37.5
20
-15.8186433
11
37.6304999
21
-15.7185049
0
LINE
8
0
10
37.6304999
20
-15.7185049
11
37.70711
21
-15.6597202
0
LINE
8
0
10
37.70711
20
-15.6597202
11
37.8176141
21
-15.5157096
0
LINE
8
0
10
37.8176141
20
-15.5157096
11
37.86603
21
-15.4526123
0
LINE
8
0
10
37.86603
20
-15.4526123
11
37.9450199
21
-15.2619153
0
LINE
8
0
10
37.9450199
20
-15.2619153
11
37.96593
21
-15.211434
0
LINE
8
0
10
37.96593
20
-15.211434
11
37.9975172
21
-14.971476
0
LINE
8
0
10
37.9975172
20
-14.971476
11
38
21
-14.9526146
0
LINE
8
0
10
38
20
-14.9526146
11
38
21
-9.37713862
0
LINE
8
0
10
38
20
-9.37713862
11
38
21
10.0608083
0
LINE
8
0
10
38
20
10.0608083
11
25.4162733
21
10.0608077
0
LINE
8
0
10
25.4162733
20
10.0608077
11
18.9267192
21
10.0608087
0
LINE
8
0
10
18.9267192
20
10.0608087
11
16
21
10.0608094
0
LINE
8
0
10
16
20
10.0608094
11
16
21
10.0608094
0
LINE
8
0
10
16
20
34.775543
11
16
21
36.2770161
0
LINE
8
0
10
16
20
36.2770161
11
16
21
41.7037439
0
LINE
8
0
10
16
20
41.7037439
11
16
21
46.669319
0
LINE
8
0
10
16
20
46.669319
11
10.1979021
21
46.669319
0
LINE
8
0
10
10.1979021
20
46.669319
11
2.4
21
46.669319
0
LINE
8
0
10
2.4
20
46.669319
11
2.4
21
43.9608235
0
LINE
8
0
10
2.4
20
43.9608235
11
2.4
21
41.7037439
0
LINE
8
0
10
2.4
20
41.7037439
11
2.4
21
39.5330528
0
LINE
8
0
10
2.4
20
39.5330528
11
2.4
21
36.2770161
0
LINE
8
0
10
2.4
20
36.2770161
11
2.4
21
35.4428644
0
LINE
8
0
10
2.4
20
35.4428644
11
2.4
21
34.775543
0
LINE
8
0
10
2.4
20
34.775543
11
13.6420979
21
34.775543
0
LINE
8
0
10
13.6420979
20
34.775543
11
16
21
34.775543
0
LINE
8
0
10
16
20
34.775543
11
16
21
34.775543
0
LINE
8
0
10
16
20
23.1123452
11
16
21
26.1152925
0
LINE
8
0
10
16
20
26.1152925
11
16
21
27.6167652
0
LINE
8
0
10
16
20
27.6167652
11
4.75790211
21
27.6167652
0
LINE
8
0
10
4.75790211
20
27.6167652
11
2.4
21
27.6167652
0
LINE
8
0
10
2.4
20
27.6167652
11
2.4
21
26.7977809
0
LINE
8
0
10
2.4
20
26.7977809
11
2.4
21
26.1152925
0
LINE
8
0
10
2.4
20
26.1152925
11
2.4
21
22.5589528
0
LINE
8
0
10
2.4
20
22.5589528
11
2.4
21
19.1870839
0
LINE
8
0
10
2.4
20
19.1870839
11
2.4
21
18.2949809
0
LINE
8
0
10
2.4
20
18.2949809
11
2.4
21
17.224455
0
LINE
8
0
10
2.4
20
17.224455
11
5.48209789
21
17.224455
0
LINE
8
0
10
5.48209789
20
17.224455
11
16
21
17.224455
0
LINE
8
0
10
16
20
17.224455
11
16
21
19.1870839
0
LINE
8
0
10
16
20
19.1870839
11
16
21
23.1123452
0
LINE
8
0
10
16
20
23.1123452
11
16
21
23.1123452
0
LINE
8
0
10
16
20
56.1467394
11
16
21
50.364001
0
LINE
8
0
10
16
20
50.364001
11
8.20209789
21
50.364001
0
LINE
8
0
10
8.20209789
20
50.364001
11
2.4
21
50.364001
0
LINE
8
0
10
2.4
20
50.364001
11
2.4
21
52.5985114
0
LINE
8
0
10
2.4
20
52.5985114
11
2.4
21
56.7967697
0
LINE
8
0
10
2.4
20
56.7967697
11
2.4
21
61.3295765
0
LINE
8
0
10
2.4
20
61.3295765
11
2.45200483
21
62.1196092
0
LINE
8
0
10
2.45200483
20
62.1196092
11
2.468148
21
62.3648509
0
LINE
8
0
10
2.468148
20
62.3648509
11
2.52377976
21
62.6334656
0
LINE
8
0
10
2.52377976
20
62.6334656
11
2.667949
21
63.3295783
0
LINE
8
0
10
2.667949
20
63.3295783
11
2.78197564
21
63.626785
0
LINE
8
0
10
2.78197564
20
63.626785
11
2.985786
21
64.15801
0
LINE
8
0
10
2.985786
20
64.15801
11
3.1611981
21
64.4272036
0
LINE
8
0
10
3.1611981
20
64.4272036
11
3.4
21
64.7936868
0
LINE
8
0
10
3.4
20
64.7936868
11
3.62586488
21
64.980805
0
LINE
8
0
10
3.62586488
20
64.980805
11
3.882362
21
65.1932916
0
LINE
8
0
10
3.882362
20
65.1932916
11
4.13643879
21
65.2601824
0
LINE
8
0
10
4.13643879
20
65.2601824
11
4.4
21
65.3295744
0
LINE
8
0
10
4.4
20
65.3295744
11
10.8347353
21
65.3295744
0
LINE
8
0
10
10.8347353
20
65.3295744
11
13
21
65.3295744
0
LINE
8
0
10
13
20
65.3295744
11
13.4961326
21
65.2177829
0
LINE
8
0
10
13.4961326
20
65.2177829
11
13.7191062
21
65.1535335
0
LINE
8
0
10
13.7191062
20
65.1535335
11
14.050306
21
64.9221695
0
LINE
8
0
10
14.050306
20
64.9221695
11
14.4011996
21
64.6301718
0
LINE
8
0
10
14.4011996
20
64.6301718
11
14.6744393
21
64.2878749
0
LINE
8
0
10
14.6744393
20
64.2878749
11
15.0125359
21
63.766657
0
LINE
8
0
10
15.0125359
20
63.766657
11
15.2115144
21
63.3703623
0
LINE
8
0
10
15.2115144
20
63.3703623
11
15.5104745
21
62.5865593
0
LINE
8
0
10
15.5104745
20
62.5865593
11
15.6312991
21
62.2038746
0
LINE
8
0
10
15.6312991
20
62.2038746
11
15.8506291
21
61.1366455
0
LINE
8
0
10
15.8506291
20
61.1366455
11
15.9036825
21
60.8348791
0
LINE
8
0
10
15.9036825
20
60.8348791
11
15.9180658
21
60.5743126
0
LINE
8
0
10
15.9180658
20
60.5743126
11
15.969445
21
59.8966425
0
LINE
8
0
10
15.969445
20
59.8966425
11
16
21
59.3295788
0
LINE
8
0
10
16
20
59.3295788
11
16
21
56.1467394
0
LINE
8
0
10
16
20
56.1467394
11
16
21
56.1467394
0
ENDSEC
0
EOF
