0
SECTION
2
ENTITIES
0
LINE
8
0
10
16
20
14.8377734
11
16
21
21.5737627
0
LINE
8
0
10
16
20
21.5737627
11
16
21
25.2300825
0
LINE
8
0
10
16
20
25.2300825
11
16
21
28.5019709
0
LINE
8
0
10
16
20
28.5019709
11
10.8618524
21
28.5019709
0
LINE
8
0
10
10.8618524
20
28.5019709
11
2.4
21
28.5019709
0
LINE
8
0
10
2.4
20
28.5019709
11
2.4
21
27.0478004
0
LINE
8
0
10
2.4
20
27.0478004
11
2.4
21
25.2300825
0
LINE
8
0
10
2.4
20
25.2300825
11
2.4
21
23.0362885
0
LINE
8
0
10
2.4
20
23.0362885
11
2.4
21
21.5737627
0
LINE
8
0
10
2.4
20
21.5737627
11
2.4
21
18.5119529
0
LINE
8
0
10
2.4
20
18.5119529
11
2.4
21
14.8377734
0
LINE
8
0
10
2.4
20
14.8377734
11
12.9781476
21
14.8377734
0
LINE
8
0
10
12.9781476
20
14.8377734
11
16
21
14.8377734
0
LINE
8
0
10
16
20
14.8377734
11
16
21
14.8377734
0
LINE
8
0
10
16
20
52.9745292
11
16
21
56.9428996
0
LINE
8
0
10
16
20
56.9428996
11
15.961904
21
57.6499158
0
LINE
8
0
10
15.961904
20
57.6499158
11
15.8978442
21
58.4948362
0
LINE
8
0
10
15.8978442
20
58.4948362
11
15.8977987
21
58.4956614
0
LINE
8
0
10
15.8977987
20
58.4956614
11
15.8976307
21
58.496617
0
LINE
8
0
10
15.8976307
20
58.496617
11
15.6085138
21
59.9034189
0
LINE
8
0
10
15.6085138
20
59.9034189
11
15.570564
21
60.0236164
0
LINE
8
0
10
15.570564
20
60.0236164
11
15.1627188
21
61.0928908
0
LINE
8
0
10
15.1627188
20
61.0928908
11
15.0713887
21
61.274788
0
LINE
8
0
10
15.0713887
20
61.274788
11
14.5932309
21
62.0119276
0
LINE
8
0
10
14.5932309
20
62.0119276
11
14.4471951
21
62.1948717
0
LINE
8
0
10
14.4471951
20
62.1948717
11
13.934176
21
62.6217829
0
LINE
8
0
10
13.934176
20
62.6217829
11
13.7447589
21
62.7541028
0
LINE
8
0
10
13.7447589
20
62.7541028
11
13.4108195
21
62.8503268
0
LINE
8
0
10
13.4108195
20
62.8503268
11
13
21
62.942895
0
LINE
8
0
10
13
20
62.942895
11
9.72824243
21
62.942895
0
LINE
8
0
10
9.72824243
20
62.942895
11
4.4
21
62.942895
0
LINE
8
0
10
4.4
20
62.942895
11
4.00175383
21
62.8380423
0
LINE
8
0
10
4.00175383
20
62.8380423
11
3.882362
21
62.80661
0
LINE
8
0
10
3.882362
20
62.80661
11
3.49759684
21
62.487864
0
LINE
8
0
10
3.49759684
20
62.487864
11
3.4
21
62.4070097
0
LINE
8
0
10
3.4
20
62.4070097
11
3.04883523
21
61.868086
0
LINE
8
0
10
3.04883523
20
61.868086
11
2.985786
21
61.7713284
0
LINE
8
0
10
2.985786
20
61.7713284
11
2.6943163
21
61.0116222
0
LINE
8
0
10
2.6943163
20
61.0116222
11
2.667949
21
60.9428967
0
LINE
8
0
10
2.667949
20
60.9428967
11
2.46970839
21
59.9857035
0
LINE
8
0
10
2.46970839
20
59.9857035
11
2.468148
21
59.9781693
0
LINE
8
0
10
2.468148
20
59.9781693
11
2.46810269
21
59.977481
0
LINE
8
0
10
2.46810269
20
59.977481
11
2.4
21
58.9428971
0
LINE
8
0
10
2.4
20
58.9428971
11
2.4
21
52.9996915
0
LINE
8
0
10
2.4
20
52.9996915
11
2.4
21
52.8371793
0
LINE
8
0
10
2.4
20
52.8371793
11
2.4
21
52.7506826
0
LINE
8
0
10
2.4
20
52.7506826
11
15.6981476
21
52.7506826
0
LINE
8
0
10
15.6981476
20
52.7506826
11
16
21
52.7506826
0
LINE
8
0
10
16
20
52.7506826
11
16
21
52.9745292
0
LINE
8
0
10
16
20
52.9745292
11
16
21
52.9745292
0
LINE
8
0
10
16
20
12.2732116
11
16
21
12.9135082
0
LINE
8
0
10
16
20
12.9135082
11
5.42185242
21
12.9135082
0
LINE
8
0
10
5.42185242
20
12.9135082
11
2.4
21
12.9135082
0
LINE
8
0
10
2.4
20
12.9135082
11
2.4
21
9.23933584
0
LINE
8
0
10
2.4
20
9.23933584
11
2.4
21
6.17752296
0
LINE
8
0
10
2.4
20
6.17752296
11
2.4
21
4.63062013
0
LINE
8
0
10
2.4
20
4.63062013
11
2.4
21
4.3631561
0
LINE
8
0
10
2.4
20
4.3631561
11
2.4
21
3.66562383
0
LINE
8
0
10
2.4
20
3.66562383
11
2.4
21
3.62359651
0
LINE
8
0
10
2.4
20
3.62359651
11
2.4
21
3.5848381
0
LINE
8
0
10
2.4
20
3.5848381
11
2.4
21
3.55283789
0
LINE
8
0
10
2.4
20
3.55283789
11
2.4
21
-10.1110346
0
LINE
8
0
10
2.4
20
-10.1110346
11
2.4
21
-10.3247915
0
LINE
8
0
10
2.4
20
-10.3247915
11
2.4
21
-10.674648
0
LINE
8
0
10
2.4
20
-10.674648
11
2.4
21
-13.9880082
0
LINE
8
0
10
2.4
20
-13.9880082
11
2.4
21
-14
0
LINE
8
0
10
2.4
20
-14
11
2.410459
21
-14.1718047
0
LINE
8
0
10
2.410459
20
-14.1718047
11
2.45873949
21
-14.4684459
0
LINE
8
0
10
2.45873949
20
-14.4684459
11
2.46602556
21
-14.5089876
0
LINE
8
0
10
2.46602556
20
-14.5089876
11
2.4940677
21
-14.5857642
0
LINE
8
0
10
2.4940677
20
-14.5857642
11
2.65787619
21
-14.981231
0
LINE
8
0
10
2.65787619
20
-14.981231
11
2.6992394
21
-15.0458406
0
LINE
8
0
10
2.6992394
20
-15.0458406
11
2.95827019
21
-15.3834134
0
LINE
8
0
10
2.95827019
20
-15.3834134
11
3.00756506
21
-15.4342893
0
LINE
8
0
10
3.00756506
20
-15.4342893
11
3.34410598
21
-15.6922823
0
LINE
8
0
10
3.34410598
20
-15.6922823
11
3.40178347
21
-15.7330334
0
LINE
8
0
10
3.40178347
20
-15.7330334
11
3.46908157
21
-15.7640667
0
LINE
8
0
10
3.46908157
20
-15.7640667
11
3.85120985
21
-15.9221352
0
LINE
8
0
10
3.85120985
20
-15.9221352
11
3.92213591
21
-15.9404146
0
LINE
8
0
10
3.92213591
20
-15.9404146
11
3.99761328
21
-15.9470235
0
LINE
8
0
10
3.99761328
20
-15.9470235
11
4.22341445
21
-15.9767515
0
LINE
8
0
10
4.22341445
20
-15.9767515
11
4.31498242
21
-15.9916505
0
LINE
8
0
10
4.31498242
20
-15.9916505
11
4.4
21
-16
0
LINE
8
0
10
4.4
20
-16
11
12.7550421
21
-16
0
LINE
8
0
10
12.7550421
20
-16
11
16.165708
21
-16
0
LINE
8
0
10
16.165708
20
-16
11
17.8073665
21
-16
0
LINE
8
0
10
17.8073665
20
-16
11
36.1245093
21
-16
0
LINE
8
0
10
36.1245093
20
-16
11
37
21
-16
0
LINE
8
0
10
37
20
-16
11
37.0196985
21
-15.9990451
0
LINE
8
0
10
37.0196985
20
-15.9990451
11
37.2258221
21
-15.9719118
0
LINE
8
0
10
37.2258221
20
-15.9719118
11
37.2453374
21
-15.9690553
0
LINE
8
0
10
37.2453374
20
-15.9690553
11
37.2644822
21
-15.9643236
0
LINE
8
0
10
37.2644822
20
-15.9643236
11
37.4565573
21
-15.8847635
0
LINE
8
0
10
37.4565573
20
-15.8847635
11
37.510461
21
-15.8595636
0
LINE
8
0
10
37.510461
20
-15.8595636
11
37.6709879
21
-15.7363878
0
LINE
8
0
10
37.6709879
20
-15.7363878
11
37.7232096
21
-15.6894039
0
LINE
8
0
10
37.7232096
20
-15.6894039
11
37.8423635
21
-15.5341185
0
LINE
8
0
10
37.8423635
20
-15.5341185
11
37.8851213
21
-15.4599511
0
LINE
8
0
10
37.8851213
20
-15.4599511
11
37.9571094
21
-15.2861563
0
LINE
8
0
10
37.9571094
20
-15.2861563
11
37.9708052
21
-15.2379255
0
LINE
8
0
10
37.9708052
20
-15.2379255
11
37.9948148
21
-15.0555316
0
LINE
8
0
10
37.9948148
20
-15.0555316
11
38
21
-15
0
LINE
8
0
10
38
20
-15
11
38
21
-14.7864542
0
LINE
8
0
10
38
20
-14.7864542
11
38
21
-14.4975641
0
LINE
8
0
10
38
20
-14.4975641
11
38
21
-14.1855901
0
LINE
8
0
10
38
20
-14.1855901
11
38
21
-3.1319216
0
LINE
8
0
10
38
20
-3.1319216
11
38
21
12.0287239
0
LINE
8
0
10
38
20
12.0287239
11
31.4792547
21
12.0287236
0
LINE
8
0
10
31.4792547
20
12.0287236
11
20.8111849
21
12.0287252
0
LINE
8
0
10
20.8111849
20
12.0287252
11
16
21
12.0287264
0
LINE
8
0
10
16
20
12.0287264
11
16
21
12.2732116
0
LINE
8
0
10
16
20
12.2732116
11
16
21
12.2732116
0
LINE
8
0
10
16
20
33.8903354
11
16
21
37.1622227
0
LINE
8
0
10
16
20
37.1622227
11
16
21
43.7059937
0
LINE
8
0
10
16
20
43.7059937
11
16
21
44.0904227
0
LINE
8
0
10
16
20
44.0904227
11
16
21
44.2826374
0
LINE
8
0
10
16
20
44.2826374
11
2.70185242
21
44.2826374
0
LINE
8
0
10
2.70185242
20
44.2826374
11
2.4
21
44.2826374
0
LINE
8
0
10
2.4
20
44.2826374
11
2.4
21
44.177793
0
LINE
8
0
10
2.4
20
44.177793
11
2.4
21
44.0904227
0
LINE
8
0
10
2.4
20
44.0904227
11
2.4
21
40.0103885
0
LINE
8
0
10
2.4
20
40.0103885
11
2.4
21
37.1622227
0
LINE
8
0
10
2.4
20
37.1622227
11
2.4
21
35.6750012
0
LINE
8
0
10
2.4
20
35.6750012
11
2.4
21
33.8903354
0
LINE
8
0
10
2.4
20
33.8903354
11
7.53814758
21
33.8903354
0
LINE
8
0
10
7.53814758
20
33.8903354
11
16
21
33.8903354
0
LINE
8
0
10
16
20
33.8903354
11
16
21
33.8903354
0
ENDSEC
0
EOF
