0
SECTION
2
ENTITIES
0
LINE
8
0
10
16
20
33.4925551
11
16
21
37.5600025
0
LINE
8
0
10
16
20
37.5600025
11
16
21
43.8848575
0
LINE
8
0
10
16
20
43.8848575
11
16
21
44.4882029
0
LINE
8
0
10
16
20
44.4882029
11
15.0525108
21
44.4882029
0
LINE
8
0
10
15.0525108
20
44.4882029
11
2.4
21
44.4882029
0
LINE
8
0
10
2.4
20
44.4882029
11
2.4
21
44.2200494
0
LINE
8
0
10
2.4
20
44.2200494
11
2.4
21
43.8848575
0
LINE
8
0
10
2.4
20
43.8848575
11
2.4
21
40.0899445
0
LINE
8
0
10
2.4
20
40.0899445
11
2.4
21
37.5600025
0
LINE
8
0
10
2.4
20
37.5600025
11
2.4
21
35.7111628
0
LINE
8
0
10
2.4
20
35.7111628
11
2.4
21
33.4925551
0
LINE
8
0
10
2.4
20
33.4925551
11
8.78748919
21
33.4925551
0
LINE
8
0
10
8.78748919
20
33.4925551
11
16
21
33.4925551
0
LINE
8
0
10
16
20
33.4925551
11
16
21
33.4925551
0
LINE
8
0
10
16
20
12.5953685
11
16
21
13.3112878
0
LINE
8
0
10
16
20
13.3112878
11
4.17251081
21
13.3112878
0
LINE
8
0
10
4.17251081
20
13.3112878
11
2.4
21
13.3112878
0
LINE
8
0
10
2.4
20
13.3112878
11
2.4
21
9.20317404
0
LINE
8
0
10
2.4
20
9.20317404
11
2.4
21
5.779743
0
LINE
8
0
10
2.4
20
5.779743
11
2.4
21
4.5694232
0
LINE
8
0
10
2.4
20
4.5694232
11
2.4
21
4.29681661
0
LINE
8
0
10
2.4
20
4.29681661
11
2.4
21
3.72670595
0
LINE
8
0
10
2.4
20
3.72670595
11
2.4
21
3.69235596
0
LINE
8
0
10
2.4
20
3.69235596
11
2.4
21
3.66067774
0
LINE
8
0
10
2.4
20
3.66067774
11
2.4
21
3.63452316
0
LINE
8
0
10
2.4
20
3.63452316
11
2.4
21
-10.1944364
0
LINE
8
0
10
2.4
20
-10.1944364
11
2.4
21
-10.4029328
0
LINE
8
0
10
2.4
20
-10.4029328
11
2.4
21
-10.7569296
0
LINE
8
0
10
2.4
20
-10.7569296
11
2.4
21
-13.9883049
0
LINE
8
0
10
2.4
20
-13.9883049
11
2.4
21
-14
0
LINE
8
0
10
2.4
20
-14
11
2.41055731
21
-14.1734196
0
LINE
8
0
10
2.41055731
20
-14.1734196
11
2.45763527
21
-14.4626723
0
LINE
8
0
10
2.45763527
20
-14.4626723
11
2.46577646
21
-14.5079721
0
LINE
8
0
10
2.46577646
20
-14.5079721
11
2.49710973
21
-14.5937595
0
LINE
8
0
10
2.49710973
20
-14.5937595
11
2.65669401
21
-14.9790282
0
LINE
8
0
10
2.65669401
20
-14.9790282
11
2.70291175
21
-15.0512206
0
LINE
8
0
10
2.70291175
20
-15.0512206
11
2.95504084
21
-15.379799
0
LINE
8
0
10
2.95504084
20
-15.379799
11
3.01012112
21
-15.4366459
0
LINE
8
0
10
3.01012112
20
-15.4366459
11
3.33735581
21
-15.6875047
0
LINE
8
0
10
3.33735581
20
-15.6875047
11
3.40180254
21
-15.7330385
0
LINE
8
0
10
3.40180254
20
-15.7330385
11
3.47699898
21
-15.7677139
0
LINE
8
0
10
3.47699898
20
-15.7677139
11
3.84755372
21
-15.920995
0
LINE
8
0
10
3.84755372
20
-15.920995
11
3.92680391
21
-15.9414198
0
LINE
8
0
10
3.92680391
20
-15.9414198
11
4.01113958
21
-15.9488043
0
LINE
8
0
10
4.01113958
20
-15.9488043
11
4.22935041
21
-15.977533
0
LINE
8
0
10
4.22935041
20
-15.977533
11
4.3178403
21
-15.9919312
0
LINE
8
0
10
4.3178403
20
-15.9919312
11
4.4
21
-16
0
LINE
8
0
10
4.4
20
-16
11
12.474186
21
-16
0
LINE
8
0
10
12.474186
20
-16
11
16.6542806
21
-16
0
LINE
8
0
10
16.6542806
20
-16
11
18.6662888
21
-16
0
LINE
8
0
10
18.6662888
20
-16
11
35.9270031
21
-16
0
LINE
8
0
10
35.9270031
20
-16
11
37
21
-16
0
LINE
8
0
10
37
20
-16
11
37.0241424
21
-15.9988297
0
LINE
8
0
10
37.0241424
20
-15.9988297
11
37.218378
21
-15.9732613
0
LINE
8
0
10
37.218378
20
-15.9732613
11
37.2422958
21
-15.9697603
0
LINE
8
0
10
37.2422958
20
-15.9697603
11
37.2657595
21
-15.9639612
0
LINE
8
0
10
37.2657595
20
-15.9639612
11
37.4467569
21
-15.8889896
0
LINE
8
0
10
37.4467569
20
-15.8889896
11
37.512821
21
-15.8581048
0
LINE
8
0
10
37.512821
20
-15.8581048
11
37.6628389
21
-15.7429928
0
LINE
8
0
10
37.6628389
20
-15.7429928
11
37.7268416
21
-15.6854095
0
LINE
8
0
10
37.7268416
20
-15.6854095
11
37.8370245
21
-15.5418155
0
LINE
8
0
10
37.8370245
20
-15.5418155
11
37.8894282
21
-15.4509162
0
LINE
8
0
10
37.8894282
20
-15.4509162
11
37.9551195
21
-15.2923233
0
LINE
8
0
10
37.9551195
20
-15.2923233
11
37.971905
21
-15.2332118
0
LINE
8
0
10
37.971905
20
-15.2332118
11
37.993645
21
-15.0680592
0
LINE
8
0
10
37.993645
20
-15.0680592
11
38
21
-15
0
LINE
8
0
10
38
20
-15
11
38
21
-14.7382794
0
LINE
8
0
10
38
20
-14.7382794
11
38
21
-14.3842171
0
LINE
8
0
10
38
20
-14.3842171
11
38
21
-14.0018634
0
LINE
8
0
10
38
20
-14.0018634
11
38
21
-0.454543932
0
LINE
8
0
10
38
20
-0.454543932
11
38
21
12.3567098
0
LINE
8
0
10
38
20
12.3567098
11
32.4897516
21
12.3567096
0
LINE
8
0
10
32.4897516
20
12.3567096
11
21.1252625
21
12.3567113
0
LINE
8
0
10
21.1252625
20
12.3567113
11
16
21
12.3567125
0
LINE
8
0
10
16
20
12.3567125
11
16
21
12.5953685
0
LINE
8
0
10
16
20
12.5953685
11
16
21
12.5953685
0
LINE
8
0
10
16
20
24.8323016
11
16
21
21.9715425
0
LINE
8
0
10
16
20
21.9715425
11
16
21
14.4399931
0
LINE
8
0
10
16
20
14.4399931
11
14.2274892
21
14.4399931
0
LINE
8
0
10
14.2274892
20
14.4399931
11
2.4
21
14.4399931
0
LINE
8
0
10
2.4
20
14.4399931
11
2.4
21
18.5481149
0
LINE
8
0
10
2.4
20
18.5481149
11
2.4
21
21.9715425
0
LINE
8
0
10
2.4
20
21.9715425
11
2.4
21
23.1158445
0
LINE
8
0
10
2.4
20
23.1158445
11
2.4
21
24.8323016
0
LINE
8
0
10
2.4
20
24.8323016
11
2.4
21
27.0919979
0
LINE
8
0
10
2.4
20
27.0919979
11
2.4
21
28.8997502
0
LINE
8
0
10
2.4
20
28.8997502
11
9.61251081
21
28.8997502
0
LINE
8
0
10
9.61251081
20
28.8997502
11
16
21
28.8997502
0
LINE
8
0
10
16
20
28.8997502
11
16
21
24.8323016
0
LINE
8
0
10
16
20
24.8323016
11
16
21
24.8323016
0
LINE
8
0
10
16
20
52.6702047
11
16
21
52.5451171
0
LINE
8
0
10
16
20
52.5451171
11
3.34748919
21
52.5451171
0
LINE
8
0
10
3.34748919
20
52.5451171
11
2.4
21
52.5451171
0
LINE
8
0
10
2.4
20
52.5451171
11
2.4
21
52.7606802
0
LINE
8
0
10
2.4
20
52.7606802
11
2.4
21
58.5451172
0
LINE
8
0
10
2.4
20
58.5451172
11
2.46491298
21
59.5312445
0
LINE
8
0
10
2.46491298
20
59.5312445
11
2.468148
21
59.5803898
0
LINE
8
0
10
2.468148
20
59.5803898
11
2.57955177
21
60.1182956
0
LINE
8
0
10
2.57955177
20
60.1182956
11
2.667949
21
60.5451165
0
LINE
8
0
10
2.667949
20
60.5451165
11
2.67970641
21
60.5757618
0
LINE
8
0
10
2.67970641
20
60.5757618
11
2.985786
21
61.3735482
0
LINE
8
0
10
2.985786
20
61.3735482
11
3.03010808
21
61.4415664
0
LINE
8
0
10
3.03010808
20
61.4415664
11
3.4
21
62.0092301
0
LINE
8
0
10
3.4
20
62.0092301
11
3.47621883
21
62.0723738
0
LINE
8
0
10
3.47621883
20
62.0723738
11
3.882362
21
62.4088298
0
LINE
8
0
10
3.882362
20
62.4088298
11
3.97930634
21
62.4343523
0
LINE
8
0
10
3.97930634
20
62.4343523
11
4.4
21
62.5451151
0
LINE
8
0
10
4.4
20
62.5451151
11
9.54382695
21
62.5451151
0
LINE
8
0
10
9.54382695
20
62.5451151
11
13
21
62.5451151
0
LINE
8
0
10
13
20
62.5451151
11
13.3966006
21
62.4557508
0
LINE
8
0
10
13.3966006
20
62.4557508
11
13.7490343
21
62.3541976
0
LINE
8
0
10
13.7490343
20
62.3541976
11
13.914821
21
62.2383852
0
LINE
8
0
10
13.914821
20
62.2383852
11
14.454861
21
61.7889883
0
LINE
8
0
10
14.454861
20
61.7889883
11
14.5796961
21
61.6326031
0
LINE
8
0
10
14.5796961
20
61.6326031
11
15.0811975
21
60.8594765
0
LINE
8
0
10
15.0811975
20
60.8594765
11
15.1545861
21
60.7133122
0
LINE
8
0
10
15.1545861
20
60.7133122
11
15.5805789
21
59.5964593
0
LINE
8
0
10
15.5805789
20
59.5964593
11
15.6047162
21
59.5200097
0
LINE
8
0
10
15.6047162
20
59.5200097
11
15.7900309
21
58.6182947
0
LINE
8
0
10
15.7900309
20
58.6182947
11
15.8909607
21
58.1359108
0
LINE
8
0
10
15.8909607
20
58.1359108
11
15.8991163
21
58.0870269
0
LINE
8
0
10
15.8991163
20
58.0870269
11
15.9606471
21
57.2754614
0
LINE
8
0
10
15.9606471
20
57.2754614
11
16
21
56.5451198
0
LINE
8
0
10
16
20
56.5451198
11
16
21
52.6702047
0
LINE
8
0
10
16
20
52.6702047
11
16
21
52.6702047
0
ENDSEC
0
EOF
