0
SECTION
2
ENTITIES
0
LINE
8
0
10
16
20
13.0126848
11
16
21
13.2396821
0
LINE
8
0
10
16
20
13.2396821
11
16
21
14.0507848
0
LINE
8
0
10
16
20
14.0507848
11
16
21
14.1068476
0
LINE
8
0
10
16
20
14.1068476
11
16
21
16.4189201
0
LINE
8
0
10
16
20
16.4189201
11
16
21
22.7671022
0
LINE
8
0
10
16
20
22.7671022
11
16
21
24.0367397
0
LINE
8
0
10
16
20
24.0367397
11
16
21
29.6953089
0
LINE
8
0
10
16
20
29.6953089
11
7.11382758
21
29.6953089
0
LINE
8
0
10
7.11382758
20
29.6953089
11
2.4
21
29.6953089
0
LINE
8
0
10
2.4
20
29.6953089
11
2.4
21
27.1803929
0
LINE
8
0
10
2.4
20
27.1803929
11
2.4
21
24.0367397
0
LINE
8
0
10
2.4
20
24.0367397
11
2.4
21
23.2749564
0
LINE
8
0
10
2.4
20
23.2749564
11
2.4
21
22.7671022
0
LINE
8
0
10
2.4
20
22.7671022
11
2.4
21
18.620439
0
LINE
8
0
10
2.4
20
18.620439
11
2.4
21
14.1068476
0
LINE
8
0
10
2.4
20
14.1068476
11
2.4
21
13.8730236
0
LINE
8
0
10
2.4
20
13.8730236
11
2.4
21
13.8632374
0
LINE
8
0
10
2.4
20
13.8632374
11
2.4
21
13.8516775
0
LINE
8
0
10
2.4
20
13.8516775
11
2.4
21
13.8396743
0
LINE
8
0
10
2.4
20
13.8396743
11
2.4
21
13.8287544
0
LINE
8
0
10
2.4
20
13.8287544
11
2.4
21
13.6444329
0
LINE
8
0
10
2.4
20
13.6444329
11
2.4
21
9.13085044
0
LINE
8
0
10
2.4
20
9.13085044
11
2.4
21
4.98418309
0
LINE
8
0
10
2.4
20
4.98418309
11
2.4
21
4.44702934
0
LINE
8
0
10
2.4
20
4.44702934
11
2.4
21
4.16413763
0
LINE
8
0
10
2.4
20
4.16413763
11
2.4
21
3.84887019
0
LINE
8
0
10
2.4
20
3.84887019
11
2.4
21
3.82987487
0
LINE
8
0
10
2.4
20
3.82987487
11
2.4
21
3.81235702
0
LINE
8
0
10
2.4
20
3.81235702
11
2.4
21
3.79789371
0
LINE
8
0
10
2.4
20
3.79789371
11
2.4
21
-10.3612399
0
LINE
8
0
10
2.4
20
-10.3612399
11
2.4
21
-10.5592153
0
LINE
8
0
10
2.4
20
-10.5592153
11
2.4
21
-10.9214928
0
LINE
8
0
10
2.4
20
-10.9214928
11
2.4
21
-13.9888984
0
LINE
8
0
10
2.4
20
-13.9888984
11
2.4
21
-14
0
LINE
8
0
10
2.4
20
-14
11
2.41075393
21
-14.1766493
0
LINE
8
0
10
2.41075393
20
-14.1766493
11
2.45542684
21
-14.4511251
0
LINE
8
0
10
2.45542684
20
-14.4511251
11
2.46527827
21
-14.5059412
0
LINE
8
0
10
2.46527827
20
-14.5059412
11
2.50319378
21
-14.6097501
0
LINE
8
0
10
2.50319378
20
-14.6097501
11
2.65432965
21
-14.9746226
0
LINE
8
0
10
2.65432965
20
-14.9746226
11
2.71025645
21
-15.0619806
0
LINE
8
0
10
2.71025645
20
-15.0619806
11
2.94858214
21
-15.3725702
0
LINE
8
0
10
2.94858214
20
-15.3725702
11
3.01523326
21
-15.441359
0
LINE
8
0
10
3.01523326
20
-15.441359
11
3.32385548
21
-15.6779495
0
LINE
8
0
10
3.32385548
20
-15.6779495
11
3.40184068
21
-15.7330487
0
LINE
8
0
10
3.40184068
20
-15.7330487
11
3.49283379
21
-15.7750085
0
LINE
8
0
10
3.49283379
20
-15.7750085
11
3.84024147
21
-15.9187147
0
LINE
8
0
10
3.84024147
20
-15.9187147
11
3.93613992
21
-15.9434301
0
LINE
8
0
10
3.93613992
20
-15.9434301
11
4.03819217
21
-15.9523659
0
LINE
8
0
10
4.03819217
20
-15.9523659
11
4.24122231
21
-15.979096
0
LINE
8
0
10
4.24122231
20
-15.979096
11
4.32355606
21
-15.9924925
0
LINE
8
0
10
4.32355606
20
-15.9924925
11
4.4
21
-16
0
LINE
8
0
10
4.4
20
-16
11
11.9124738
21
-16
0
LINE
8
0
10
11.9124738
20
-16
11
17.6314258
21
-16
0
LINE
8
0
10
17.6314258
20
-16
11
20.3841335
21
-16
0
LINE
8
0
10
20.3841335
20
-16
11
35.5319907
21
-16
0
LINE
8
0
10
35.5319907
20
-16
11
37
21
-16
0
LINE
8
0
10
37
20
-16
11
37.0330302
21
-15.9983988
0
LINE
8
0
10
37.0330302
20
-15.9983988
11
37.2034897
21
-15.9759603
0
LINE
8
0
10
37.2034897
20
-15.9759603
11
37.2362127
21
-15.9711705
0
LINE
8
0
10
37.2362127
20
-15.9711705
11
37.2683143
21
-15.9632364
0
LINE
8
0
10
37.2683143
20
-15.9632364
11
37.427156
21
-15.897442
0
LINE
8
0
10
37.427156
20
-15.897442
11
37.5175409
21
-15.8551872
0
LINE
8
0
10
37.5175409
20
-15.8551872
11
37.6465409
21
-15.7562026
0
LINE
8
0
10
37.6465409
20
-15.7562026
11
37.7341056
21
-15.6774207
0
LINE
8
0
10
37.7341056
20
-15.6774207
11
37.8263464
21
-15.5572094
0
LINE
8
0
10
37.8263464
20
-15.5572094
11
37.898042
21
-15.4328466
0
LINE
8
0
10
37.898042
20
-15.4328466
11
37.9511398
21
-15.3046571
0
LINE
8
0
10
37.9511398
20
-15.3046571
11
37.9741046
21
-15.2237845
0
LINE
8
0
10
37.9741046
20
-15.2237845
11
37.9913055
21
-15.0931145
0
LINE
8
0
10
37.9913055
20
-15.0931145
11
38
21
-15
0
LINE
8
0
10
38
20
-15
11
38
21
-14.6419297
0
LINE
8
0
10
38
20
-14.6419297
11
38
21
-14.1575231
0
LINE
8
0
10
38
20
-14.1575231
11
38
21
-13.6344099
0
LINE
8
0
10
38
20
-13.6344099
11
38
21
4.9002114
0
LINE
8
0
10
38
20
4.9002114
11
38
21
13.0126817
0
LINE
8
0
10
38
20
13.0126817
11
34.5107453
21
13.0126815
0
LINE
8
0
10
34.5107453
20
13.0126815
11
21.7534178
21
13.0126835
0
LINE
8
0
10
21.7534178
20
13.0126835
11
16
21
13.0126848
0
LINE
8
0
10
16
20
13.0126848
11
16
21
13.0126848
0
LINE
8
0
10
16
20
55.7495601
11
16
21
52.2045205
0
LINE
8
0
10
16
20
52.2045205
11
16
21
51.7495566
0
LINE
8
0
10
16
20
51.7495566
11
5.84617242
21
51.7495566
0
LINE
8
0
10
5.84617242
20
51.7495566
11
2.4
21
51.7495566
0
LINE
8
0
10
2.4
20
51.7495566
11
2.4
21
52.5335946
0
LINE
8
0
10
2.4
20
52.5335946
11
2.4
21
57.7495574
0
LINE
8
0
10
2.4
20
57.7495574
11
2.45853356
21
58.6387716
0
LINE
8
0
10
2.45853356
20
58.6387716
11
2.468148
21
58.7848307
0
LINE
8
0
10
2.468148
20
58.7848307
11
2.65684048
21
59.69592
0
LINE
8
0
10
2.65684048
20
59.69592
11
2.667949
21
59.7495568
0
LINE
8
0
10
2.667949
20
59.7495568
11
2.91116233
21
60.3834835
0
LINE
8
0
10
2.91116233
20
60.3834835
11
2.985786
21
60.5779876
0
LINE
8
0
10
2.985786
20
60.5779876
11
2.99265379
21
60.5885272
0
LINE
8
0
10
2.99265379
20
60.5885272
11
3.4
21
61.2136711
0
LINE
8
0
10
3.4
20
61.2136711
11
3.43346282
21
61.2413934
0
LINE
8
0
10
3.43346282
20
61.2413934
11
3.882362
21
61.6132692
0
LINE
8
0
10
3.882362
20
61.6132692
11
3.93441135
21
61.6269722
0
LINE
8
0
10
3.93441135
20
61.6269722
11
4.4
21
61.7495553
0
LINE
8
0
10
4.4
20
61.7495553
11
9.17499599
21
61.7495553
0
LINE
8
0
10
9.17499599
20
61.7495553
11
13
21
61.7495553
0
LINE
8
0
10
13
20
61.7495553
11
13.3681629
21
61.6665987
0
LINE
8
0
10
13.3681629
20
61.6665987
11
13.7575852
21
61.5543874
0
LINE
8
0
10
13.7575852
20
61.5543874
11
13.876111
21
61.4715896
0
LINE
8
0
10
13.876111
20
61.4715896
11
14.4701929
21
60.9772216
0
LINE
8
0
10
14.4701929
20
60.9772216
11
14.5526266
21
60.873954
0
LINE
8
0
10
14.5526266
20
60.873954
11
15.1008151
21
60.0288535
0
LINE
8
0
10
15.1008151
20
60.0288535
11
15.1383209
21
59.9541551
0
LINE
8
0
10
15.1383209
20
59.9541551
11
15.5467007
21
58.8834791
0
LINE
8
0
10
15.5467007
20
58.8834791
11
15.5957674
21
58.7565629
0
LINE
8
0
10
15.5957674
20
58.7565629
11
15.5995844
21
58.7437334
0
LINE
8
0
10
15.5995844
20
58.7437334
11
15.877057
21
57.4175802
0
LINE
8
0
10
15.877057
20
57.4175802
11
15.9018408
21
57.2690286
0
LINE
8
0
10
15.9018408
20
57.2690286
11
15.9581335
21
56.5265525
0
LINE
8
0
10
15.9581335
20
56.5265525
11
16
21
55.7495601
0
LINE
8
0
10
16
20
55.7495601
11
16
21
55.7495601
0
LINE
8
0
10
16
20
32.6969946
11
16
21
38.3555622
0
LINE
8
0
10
16
20
38.3555622
11
16
21
43.0892978
0
LINE
8
0
10
16
20
43.0892978
11
16
21
45.2837634
0
LINE
8
0
10
16
20
45.2837634
11
12.5538276
21
45.2837634
0
LINE
8
0
10
12.5538276
20
45.2837634
11
2.4
21
45.2837634
0
LINE
8
0
10
2.4
20
45.2837634
11
2.4
21
44.3084454
0
LINE
8
0
10
2.4
20
44.3084454
11
2.4
21
43.0892978
0
LINE
8
0
10
2.4
20
43.0892978
11
2.4
21
40.2490564
0
LINE
8
0
10
2.4
20
40.2490564
11
2.4
21
38.3555622
0
LINE
8
0
10
2.4
20
38.3555622
11
2.4
21
35.783486
0
LINE
8
0
10
2.4
20
35.783486
11
2.4
21
32.6969946
0
LINE
8
0
10
2.4
20
32.6969946
11
11.2861724
21
32.6969946
0
LINE
8
0
10
11.2861724
20
32.6969946
11
16
21
32.6969946
0
LINE
8
0
10
16
20
32.6969946
11
16
21
32.6969946
0
ENDSEC
0
EOF
