0
SECTION
2
ENTITIES
0
LINE
8
0
10
16
20
54.5562205
11
16
21
51.5059942
0
LINE
8
0
10
16
20
51.5059942
11
16
21
50.5562158
0
LINE
8
0
10
16
20
50.5562158
11
9.59419727
21
50.5562158
0
LINE
8
0
10
9.59419727
20
50.5562158
11
2.4
21
50.5562158
0
LINE
8
0
10
2.4
20
50.5562158
11
2.4
21
52.1929663
0
LINE
8
0
10
2.4
20
52.1929663
11
2.4
21
56.5562177
0
LINE
8
0
10
2.4
20
56.5562177
11
2.44896443
21
57.3000622
0
LINE
8
0
10
2.44896443
20
57.3000622
11
2.468148
21
57.5914922
0
LINE
8
0
10
2.468148
20
57.5914922
11
2.62895864
21
58.3679558
0
LINE
8
0
10
2.62895864
20
58.3679558
11
2.667949
21
58.5562182
0
LINE
8
0
10
2.667949
20
58.5562182
11
2.94731428
21
59.2843736
0
LINE
8
0
10
2.94731428
20
59.2843736
11
2.985786
21
59.3846488
0
LINE
8
0
10
2.985786
20
59.3846488
11
3.37313201
21
59.9790989
0
LINE
8
0
10
3.37313201
20
59.9790989
11
3.4
21
60.0203314
0
LINE
8
0
10
3.4
20
60.0203314
11
3.86779749
21
60.4078629
0
LINE
8
0
10
3.86779749
20
60.4078629
11
3.882362
21
60.4199284
0
LINE
8
0
10
3.882362
20
60.4199284
11
3.89732173
21
60.4238674
0
LINE
8
0
10
3.89732173
20
60.4238674
11
4.4
21
60.5562156
0
LINE
8
0
10
4.4
20
60.5562156
11
8.62174956
21
60.5562156
0
LINE
8
0
10
8.62174956
20
60.5562156
11
13
21
60.5562156
0
LINE
8
0
10
13
20
60.5562156
11
13.3255064
21
60.4828706
0
LINE
8
0
10
13.3255064
20
60.4828706
11
13.7704115
21
60.354672
0
LINE
8
0
10
13.7704115
20
60.354672
11
13.818046
21
60.3213964
0
LINE
8
0
10
13.818046
20
60.3213964
11
14.4931906
21
59.7595716
0
LINE
8
0
10
14.4931906
20
59.7595716
11
14.5120224
21
59.7359803
0
LINE
8
0
10
14.5120224
20
59.7359803
11
14.8069841
21
59.2812603
0
LINE
8
0
10
14.8069841
20
59.2812603
11
15.1135033
21
58.8133518
0
LINE
8
0
10
15.1135033
20
58.8133518
11
15.1137593
21
58.8129148
0
LINE
8
0
10
15.1137593
20
58.8129148
11
15.1246375
21
58.7920003
0
LINE
8
0
10
15.1246375
20
58.7920003
11
15.1343325
21
58.768875
0
LINE
8
0
10
15.1343325
20
58.768875
11
15.5682902
21
57.6463967
0
LINE
8
0
10
15.5682902
20
57.6463967
11
15.6174582
21
57.4811342
0
LINE
8
0
10
15.6174582
20
57.4811342
11
15.8562015
21
56.3400842
0
LINE
8
0
10
15.8562015
20
56.3400842
11
15.9059276
21
56.0420311
0
LINE
8
0
10
15.9059276
20
56.0420311
11
15.954363
21
55.4031891
0
LINE
8
0
10
15.954363
20
55.4031891
11
16
21
54.5562205
0
LINE
8
0
10
16
20
54.5562205
11
16
21
54.5562205
0
LINE
8
0
10
16
20
31.5036538
11
16
21
39.5489016
0
LINE
8
0
10
16
20
39.5489016
11
16
21
41.8959584
0
LINE
8
0
10
16
20
41.8959584
11
16
21
46.4771042
0
LINE
8
0
10
16
20
46.4771042
11
8.80580273
21
46.4771042
0
LINE
8
0
10
8.80580273
20
46.4771042
11
2.4
21
46.4771042
0
LINE
8
0
10
2.4
20
46.4771042
11
2.4
21
44.4410394
0
LINE
8
0
10
2.4
20
44.4410394
11
2.4
21
41.8959584
0
LINE
8
0
10
2.4
20
41.8959584
11
2.4
21
40.4877243
0
LINE
8
0
10
2.4
20
40.4877243
11
2.4
21
39.5489016
0
LINE
8
0
10
2.4
20
39.5489016
11
2.4
21
35.8919708
0
LINE
8
0
10
2.4
20
35.8919708
11
2.4
21
31.5036538
0
LINE
8
0
10
2.4
20
31.5036538
11
15.0341973
21
31.5036538
0
LINE
8
0
10
15.0341973
20
31.5036538
11
16
21
31.5036538
0
LINE
8
0
10
16
20
31.5036538
11
16
21
31.5036538
0
LINE
8
0
10
16
20
4.90788683
11
16
21
4.349365
0
LINE
8
0
10
16
20
4.349365
11
16
21
4.32588644
0
LINE
8
0
10
16
20
4.32588644
11
16
21
4
0
LINE
8
0
10
16
20
4
11
15.6427271
21
4
0
LINE
8
0
10
15.6427271
20
4
11
2.4
21
4
0
LINE
8
0
10
2.4
20
4
11
2.4
21
3.73829996
0
LINE
8
0
10
2.4
20
3.73829996
11
2.4
21
-10.6114452
0
LINE
8
0
10
2.4
20
-10.6114452
11
2.4
21
-10.7936391
0
LINE
8
0
10
2.4
20
-10.7936391
11
2.4
21
-11.1683377
0
LINE
8
0
10
2.4
20
-11.1683377
11
2.4
21
-13.9897886
0
LINE
8
0
10
2.4
20
-13.9897886
11
2.4
21
-14
0
LINE
8
0
10
2.4
20
-14
11
2.41104885
21
-14.1814939
0
LINE
8
0
10
2.41104885
20
-14.1814939
11
2.45211419
21
-14.4338043
0
LINE
8
0
10
2.45211419
20
-14.4338043
11
2.46453098
21
-14.5028947
0
LINE
8
0
10
2.46453098
20
-14.5028947
11
2.51231987
21
-14.633736
0
LINE
8
0
10
2.51231987
20
-14.633736
11
2.65078311
21
-14.9680143
0
LINE
8
0
10
2.65078311
20
-14.9680143
11
2.72127351
21
-15.0781206
0
LINE
8
0
10
2.72127351
20
-15.0781206
11
2.93889408
21
-15.361727
0
LINE
8
0
10
2.93889408
20
-15.361727
11
3.02290146
21
-15.4484287
0
LINE
8
0
10
3.02290146
20
-15.4484287
11
3.30360498
21
-15.6636167
0
LINE
8
0
10
3.30360498
20
-15.6636167
11
3.40189789
21
-15.733064
0
LINE
8
0
10
3.40189789
20
-15.733064
11
3.51658602
21
-15.7859503
0
LINE
8
0
10
3.51658602
20
-15.7859503
11
3.82927309
21
-15.9152942
0
LINE
8
0
10
3.82927309
20
-15.9152942
11
3.95014394
21
-15.9464457
0
LINE
8
0
10
3.95014394
20
-15.9464457
11
4.07877106
21
-15.9577084
0
LINE
8
0
10
4.07877106
20
-15.9577084
11
4.25903017
21
-15.9814405
0
LINE
8
0
10
4.25903017
20
-15.9814405
11
4.3321297
21
-15.9933345
0
LINE
8
0
10
4.3321297
20
-15.9933345
11
4.4
21
-16
0
LINE
8
0
10
4.4
20
-16
11
11.0699054
21
-16
0
LINE
8
0
10
11.0699054
20
-16
11
19.0971436
21
-16
0
LINE
8
0
10
19.0971436
20
-16
11
22.9609006
21
-16
0
LINE
8
0
10
22.9609006
20
-16
11
34.939472
21
-16
0
LINE
8
0
10
34.939472
20
-16
11
37
21
-16
0
LINE
8
0
10
37
20
-16
11
37.0463619
21
-15.9977526
0
LINE
8
0
10
37.0463619
20
-15.9977526
11
37.1811573
21
-15.9800087
0
LINE
8
0
10
37.1811573
20
-15.9800087
11
37.2270879
21
-15.9732856
0
LINE
8
0
10
37.2270879
20
-15.9732856
11
37.2721463
21
-15.9621492
0
LINE
8
0
10
37.2721463
20
-15.9621492
11
37.3977547
21
-15.9101205
0
LINE
8
0
10
37.3977547
20
-15.9101205
11
37.5246208
21
-15.8508108
0
LINE
8
0
10
37.5246208
20
-15.8508108
11
37.622094
21
-15.7760174
0
LINE
8
0
10
37.622094
20
-15.7760174
11
37.7450016
21
-15.6654375
0
LINE
8
0
10
37.7450016
20
-15.6654375
11
37.8103292
21
-15.5803002
0
LINE
8
0
10
37.8103292
20
-15.5803002
11
37.9109626
21
-15.4057421
0
LINE
8
0
10
37.9109626
20
-15.4057421
11
37.9451701
21
-15.3231579
0
LINE
8
0
10
37.9451701
20
-15.3231579
11
37.9774041
21
-15.2096434
0
LINE
8
0
10
37.9774041
20
-15.2096434
11
37.9877962
21
-15.1306975
0
LINE
8
0
10
37.9877962
20
-15.1306975
11
38
21
-15
0
LINE
8
0
10
38
20
-15
11
38
21
-14.4974052
0
LINE
8
0
10
38
20
-14.4974052
11
38
21
-13.8174822
0
LINE
8
0
10
38
20
-13.8174822
11
38
21
-13.0832298
0
LINE
8
0
10
38
20
-13.0832298
11
38
21
12.9323444
0
LINE
8
0
10
38
20
12.9323444
11
38
21
13.9966395
0
LINE
8
0
10
38
20
13.9966395
11
37.542236
21
13.9966395
0
LINE
8
0
10
37.542236
20
13.9966395
11
22.6956506
21
13.9966417
0
LINE
8
0
10
22.6956506
20
13.9966417
11
16
21
13.9966433
0
LINE
8
0
10
16
20
13.9966433
11
16
21
14.2061526
0
LINE
8
0
10
16
20
14.2061526
11
16
21
14.9547675
0
LINE
8
0
10
16
20
14.9547675
11
16
21
15.3001893
0
LINE
8
0
10
16
20
15.3001893
11
16
21
22.8433991
0
LINE
8
0
10
16
20
22.8433991
11
14.2458027
21
22.8433991
0
LINE
8
0
10
14.2458027
20
22.8433991
11
2.4
21
22.8433991
0
LINE
8
0
10
2.4
20
22.8433991
11
2.4
21
18.728925
0
LINE
8
0
10
2.4
20
18.728925
11
2.4
21
15.3001893
0
LINE
8
0
10
2.4
20
15.3001893
11
2.4
21
13.8595196
0
LINE
8
0
10
2.4
20
13.8595196
11
2.4
21
13.7992236
0
LINE
8
0
10
2.4
20
13.7992236
11
2.4
21
13.7279985
0
LINE
8
0
10
2.4
20
13.7279985
11
2.4
21
13.6540429
0
LINE
8
0
10
2.4
20
13.6540429
11
2.4
21
13.5867618
0
LINE
8
0
10
2.4
20
13.5867618
11
2.4
21
12.451094
0
LINE
8
0
10
2.4
20
12.451094
11
2.4
21
9.02236504
0
LINE
8
0
10
2.4
20
9.02236504
11
2.4
21
4.90788683
0
LINE
8
0
10
2.4
20
4.90788683
11
4.15419727
21
4.90788683
0
LINE
8
0
10
4.15419727
20
4.90788683
11
16
21
4.90788683
0
LINE
8
0
10
16
20
4.90788683
11
16
21
4.90788683
0
LINE
8
0
10
16
20
23.9604422
11
16
21
28.4286174
0
LINE
8
0
10
16
20
28.4286174
11
16
21
30.8886469
0
LINE
8
0
10
16
20
30.8886469
11
3.36580273
21
30.8886469
0
LINE
8
0
10
3.36580273
20
30.8886469
11
2.4
21
30.8886469
0
LINE
8
0
10
2.4
20
30.8886469
11
2.4
21
27.3129854
0
LINE
8
0
10
2.4
20
27.3129854
11
2.4
21
23.9604422
0
LINE
8
0
10
2.4
20
23.9604422
11
4.15419727
21
23.9604422
0
LINE
8
0
10
4.15419727
20
23.9604422
11
16
21
23.9604422
0
LINE
8
0
10
16
20
23.9604422
11
16
21
23.9604422
0
ENDSEC
0
EOF
