0
SECTION
2
ENTITIES
0
LINE
8
0
10
2.64960093
20
-14.9658115
11
2.72494586
21
-15.0835006
0
LINE
8
0
10
2.72494586
20
-15.0835006
11
2.93566473
21
-15.3581127
0
LINE
8
0
10
2.93566473
20
-15.3581127
11
3.02545752
21
-15.4507853
0
LINE
8
0
10
3.02545752
20
-15.4507853
11
3.29685482
21
-15.658839
0
LINE
8
0
10
3.29685482
20
-15.658839
11
3.40191696
21
-15.7330691
0
LINE
8
0
10
3.40191696
20
-15.7330691
11
3.52450343
21
-15.7895975
0
LINE
8
0
10
3.52450343
20
-15.7895975
11
3.82561697
21
-15.9141541
0
LINE
8
0
10
3.82561697
20
-15.9141541
11
3.95481194
21
-15.9474508
0
LINE
8
0
10
3.95481194
20
-15.9474508
11
4.09229735
21
-15.9594892
0
LINE
8
0
10
4.09229735
20
-15.9594892
11
4.26496612
21
-15.982222
0
LINE
8
0
10
4.26496612
20
-15.982222
11
4.33498758
21
-15.9936152
0
LINE
8
0
10
4.33498758
20
-15.9936152
11
4.4
21
-16
0
LINE
8
0
10
4.4
20
-16
11
10.7890493
21
-16
0
LINE
8
0
10
10.7890493
20
-16
11
19.5857163
21
-16
0
LINE
8
0
10
19.5857163
20
-16
11
23.819823
21
-16
0
LINE
8
0
10
23.819823
20
-16
11
34.7419658
21
-16
0
LINE
8
0
10
34.7419658
20
-16
11
37
21
-16
0
LINE
8
0
10
37
20
-16
11
37.0508058
21
-15.9975372
0
LINE
8
0
10
37.0508058
20
-15.9975372
11
37.1737131
21
-15.9813581
0
LINE
8
0
10
37.1737131
20
-15.9813581
11
37.2240463
21
-15.9739907
0
LINE
8
0
10
37.2240463
20
-15.9739907
11
37.2734237
21
-15.9617868
0
LINE
8
0
10
37.2734237
20
-15.9617868
11
37.3879542
21
-15.9143467
0
LINE
8
0
10
37.3879542
20
-15.9143467
11
37.5269807
21
-15.849352
0
LINE
8
0
10
37.5269807
20
-15.849352
11
37.6139451
21
-15.7826223
0
LINE
8
0
10
37.6139451
20
-15.7826223
11
37.7486336
21
-15.6614431
0
LINE
8
0
10
37.7486336
20
-15.6614431
11
37.8049902
21
-15.5879972
0
LINE
8
0
10
37.8049902
20
-15.5879972
11
37.9152695
21
-15.3967072
0
LINE
8
0
10
37.9152695
20
-15.3967072
11
37.9431802
21
-15.3293249
0
LINE
8
0
10
37.9431802
20
-15.3293249
11
37.9785039
21
-15.2049297
0
LINE
8
0
10
37.9785039
20
-15.2049297
11
37.9866264
21
-15.1432251
0
LINE
8
0
10
37.9866264
20
-15.1432251
11
38
21
-15
0
LINE
8
0
10
38
20
-15
11
38
21
-14.4492304
0
LINE
8
0
10
38
20
-14.4492304
11
38
21
-13.8202297
0
LINE
8
0
10
38
20
-13.8202297
11
51.6755124
21
-13.8360584
0
LINE
8
0
10
51.6755124
20
-13.8360584
11
53.11421
21
-13.8329553
0
LINE
8
0
10
53.11421
20
-13.8329553
11
60.4393366
21
-13.8545784
0
LINE
8
0
10
60.4393366
20
-13.8545784
11
68.8471291
21
-13.8335521
0
LINE
8
0
10
68.8471291
20
-13.8335521
11
68.8998089
21
-13.8445594
0
LINE
8
0
10
68.8998089
20
-13.8445594
11
68.9034626
21
-13.8439459
0
LINE
8
0
10
68.9034626
20
-13.8439459
11
68.966105
21
-13.8503934
0
LINE
8
0
10
68.966105
20
-13.8503934
11
68.9662307
21
-13.8503504
0
LINE
8
0
10
68.9662307
20
-13.8503504
11
68.9686366
21
-13.8503426
0
LINE
8
0
10
68.9686366
20
-13.8503426
11
69.0279651
21
-13.8319271
0
LINE
8
0
10
69.0279651
20
-13.8319271
11
69.0355519
21
-13.8304601
0
LINE
8
0
10
69.0355519
20
-13.8304601
11
69.0925981
21
-13.8080475
0
LINE
8
0
10
69.0925981
20
-13.8080475
11
69.1235861
21
-13.795791
0
LINE
8
0
10
69.1235861
20
-13.795791
11
69.2256735
21
-13.7404162
0
LINE
8
0
10
69.2256735
20
-13.7404162
11
69.2692168
21
-13.7078319
0
LINE
8
0
10
69.2692168
20
-13.7078319
11
69.3498157
21
-13.6416057
0
LINE
8
0
10
69.3498157
20
-13.6416057
11
69.3837158
21
-13.5961011
0
LINE
8
0
10
69.3837158
20
-13.5961011
11
69.4486262
21
-13.517466
0
LINE
8
0
10
69.4486262
20
-13.517466
11
69.4639073
21
-13.4767859
0
LINE
8
0
10
69.4639073
20
-13.4767859
11
69.5162489
21
-13.3843981
0
LINE
8
0
10
69.5162489
20
-13.3843981
11
69.5186824
21
-13.3624914
0
LINE
8
0
10
69.5186824
20
-13.3624914
11
69.5583694
21
-13.2606195
0
LINE
8
0
10
69.5583694
20
-13.2606195
11
69.5584546
21
-13.2582533
0
LINE
8
0
10
69.5584546
20
-13.2582533
11
69.5585604
21
-13.2580307
0
LINE
8
0
10
69.5585604
20
-13.2580307
11
69.5380874
21
-13.1512924
0
LINE
8
0
10
69.5380874
20
-13.1512924
11
69.5417598
21
-13.1389291
0
LINE
8
0
10
69.5417598
20
-13.1389291
11
69.5618524
21
-5.75331162
0
LINE
8
0
10
69.5618524
20
-5.75331162
11
69.53692
21
1.863192
0
LINE
8
0
10
69.53692
20
1.863192
11
69.5618524
21
8.20151093
0
LINE
8
0
10
69.5618524
20
8.20151093
11
69.5427438
21
14.3246276
0
LINE
8
0
10
69.5427438
20
14.3246276
11
69.485982
21
14.3246258
0
LINE
8
0
10
69.485982
20
14.3246258
11
69.2210949
21
14.3246248
0
LINE
8
0
10
69.2210949
20
14.3246248
11
69.0869435
21
14.3246259
0
LINE
8
0
10
69.0869435
20
14.3246259
11
68.0883326
21
14.3246258
0
LINE
8
0
10
68.0883326
20
14.3246258
11
59.6
21
14.3246258
0
LINE
8
0
10
59.6
20
14.3246258
11
59.6
21
15.1004751
0
LINE
8
0
10
59.6
20
15.1004751
11
45.4601786
21
15.1004751
0
LINE
8
0
10
45.4601786
20
15.1004751
11
38
21
15.1004627
0
LINE
8
0
10
38
20
15.1004627
11
38
21
14.3246256
0
LINE
8
0
10
38
20
14.3246256
11
37.7490812
21
14.3246256
0
LINE
8
0
10
37.7490812
20
14.3246256
11
23.0097282
21
14.3246278
0
LINE
8
0
10
23.0097282
20
14.3246278
11
16
21
14.3246295
0
LINE
8
0
10
16
20
14.3246295
11
16
21
14.5283094
0
LINE
8
0
10
16
20
14.5283094
11
16
21
15.256095
0
LINE
8
0
10
16
20
15.256095
11
16
21
15.6979699
0
LINE
8
0
10
16
20
15.6979699
11
16
21
22.4456197
0
LINE
8
0
10
16
20
22.4456197
11
12.9964611
21
22.4456197
0
LINE
8
0
10
12.9964611
20
22.4456197
11
2.4
21
22.4456197
0
LINE
8
0
10
2.4
20
22.4456197
11
2.4
21
18.765087
0
LINE
8
0
10
2.4
20
18.765087
11
2.4
21
15.6979699
0
LINE
8
0
10
2.4
20
15.6979699
11
2.4
21
13.8550183
0
LINE
8
0
10
2.4
20
13.8550183
11
2.4
21
13.7778856
0
LINE
8
0
10
2.4
20
13.7778856
11
2.4
21
13.6867722
0
LINE
8
0
10
2.4
20
13.6867722
11
2.4
21
13.5921658
0
LINE
8
0
10
2.4
20
13.5921658
11
2.4
21
13.5060976
0
LINE
8
0
10
2.4
20
13.5060976
11
2.4
21
12.0533143
0
LINE
8
0
10
2.4
20
12.0533143
11
2.4
21
8.98620324
0
LINE
8
0
10
2.4
20
8.98620324
11
2.4
21
5.30566682
0
LINE
8
0
10
2.4
20
5.30566682
11
5.40353888
21
5.30566682
0
LINE
8
0
10
5.40353888
20
5.30566682
11
16
21
5.30566682
0
LINE
8
0
10
16
20
5.30566682
11
16
21
4.349365
0
LINE
8
0
10
16
20
4.349365
11
16
21
4.30916497
0
LINE
8
0
10
16
20
4.30916497
11
16
21
4
0
LINE
8
0
10
16
20
4
11
14.9632334
21
4
0
LINE
8
0
10
14.9632334
20
4
11
2.4
21
4
0
LINE
8
0
10
2.4
20
4
11
2.4
21
3.24057535
0
LINE
8
0
10
2.4
20
3.24057535
11
2.4
21
-10.694847
0
LINE
8
0
10
2.4
20
-10.694847
11
2.4
21
-10.8717803
0
LINE
8
0
10
2.4
20
-10.8717803
11
2.4
21
-11.2506193
0
LINE
8
0
10
2.4
20
-11.2506193
11
2.4
21
-13.9900853
0
LINE
8
0
10
2.4
20
-13.9900853
11
2.4
21
-14
0
LINE
8
0
10
2.4
20
-14
11
2.41114716
21
-14.1831087
0
LINE
8
0
10
2.41114716
20
-14.1831087
11
2.45100998
21
-14.4280307
0
LINE
8
0
10
2.45100998
20
-14.4280307
11
2.46428188
21
-14.5018793
0
LINE
8
0
10
2.46428188
20
-14.5018793
11
2.51536189
21
-14.6417313
0
LINE
8
0
10
2.51536189
20
-14.6417313
11
2.64960093
21
-14.9658115
0
LINE
8
0
10
2.64960093
20
-14.9658115
11
2.64960093
21
-14.9658115
0
LINE
8
0
10
47.3753594
20
-4.68638153
11
47.35002
21
-4.502994
0
LINE
8
0
10
47.35002
20
-4.502994
11
47.351225
21
-4.49327379
0
LINE
8
0
10
47.351225
20
-4.49327379
11
47.374
21
-4.309551
0
LINE
8
0
10
47.374
20
-4.309551
11
47.3776691
21
-4.30046955
0
LINE
8
0
10
47.3776691
20
-4.30046955
11
47.44702
21
-4.12882
0
LINE
8
0
10
47.44702
20
-4.12882
11
47.5582644
21
-3.98084016
0
LINE
8
0
10
47.5582644
20
-3.98084016
11
47.56415
21
-3.973011
0
LINE
8
0
10
47.56415
20
-3.973011
11
48.0865372
21
-3.4395619
0
LINE
8
0
10
48.0865372
20
-3.4395619
11
48.1
21
-3.425814
0
LINE
8
0
10
48.1
20
-3.425814
11
48.6223872
21
-3.9592631
0
LINE
8
0
10
48.6223872
20
-3.9592631
11
48.63585
21
-3.973011
0
LINE
8
0
10
48.63585
20
-3.973011
11
48.6417356
21
-3.98084016
0
LINE
8
0
10
48.6417356
20
-3.98084016
11
48.75298
21
-4.12882
0
LINE
8
0
10
48.75298
20
-4.12882
11
48.7566491
21
-4.13790145
0
LINE
8
0
10
48.7566491
20
-4.13790145
11
48.826
21
-4.309551
0
LINE
8
0
10
48.826
20
-4.309551
11
48.827205
21
-4.31927121
0
LINE
8
0
10
48.827205
20
-4.31927121
11
48.84998
21
-4.502994
0
LINE
8
0
10
48.84998
20
-4.502994
11
48.8486394
21
-4.51269647
0
LINE
8
0
10
48.8486394
20
-4.51269647
11
48.8233
21
-4.696084
0
LINE
8
0
10
48.8233
20
-4.696084
11
48.8195047
21
-4.70511329
0
LINE
8
0
10
48.8195047
20
-4.70511329
11
48.74777
21
-4.875777
0
LINE
8
0
10
48.74777
20
-4.875777
11
48.7417759
21
-4.88352325
0
LINE
8
0
10
48.7417759
20
-4.88352325
11
48.62848
21
-5.029936
0
LINE
8
0
10
48.62848
20
-5.029936
11
48.620692
21
-5.03587597
0
LINE
8
0
10
48.620692
20
-5.03587597
11
48.47349
21
-5.148148
0
LINE
8
0
10
48.47349
20
-5.148148
11
48.4644342
21
-5.15188045
0
LINE
8
0
10
48.4644342
20
-5.15188045
11
48.29327
21
-5.222428
0
LINE
8
0
10
48.29327
20
-5.222428
11
48.2835585
21
-5.22370079
0
LINE
8
0
10
48.2835585
20
-5.22370079
11
48.1
21
-5.247758
0
LINE
8
0
10
48.1
20
-5.247758
11
48.0902885
21
-5.24648521
0
LINE
8
0
10
48.0902885
20
-5.24648521
11
47.90673
21
-5.222428
0
LINE
8
0
10
47.90673
20
-5.222428
11
47.8976742
21
-5.21869555
0
LINE
8
0
10
47.8976742
20
-5.21869555
11
47.72651
21
-5.148148
0
LINE
8
0
10
47.72651
20
-5.148148
11
47.718722
21
-5.14220803
0
LINE
8
0
10
47.718722
20
-5.14220803
11
47.57152
21
-5.029936
0
LINE
8
0
10
47.57152
20
-5.029936
11
47.5655259
21
-5.02218975
0
LINE
8
0
10
47.5655259
20
-5.02218975
11
47.45223
21
-4.875777
0
LINE
8
0
10
47.45223
20
-4.875777
11
47.4484347
21
-4.86674771
0
LINE
8
0
10
47.4484347
20
-4.86674771
11
47.3767
21
-4.696084
0
LINE
8
0
10
47.3767
20
-4.696084
11
47.3753594
21
-4.68638153
0
LINE
8
0
10
47.3753594
20
-4.68638153
11
47.3753594
21
-4.68638153
0
LINE
8
0
10
16
20
50.1584355
11
16
21
51.2731521
0
LINE
8
0
10
16
20
51.2731521
11
16
21
54.1584406
0
LINE
8
0
10
16
20
54.1584406
11
15.9531061
21
55.0287347
0
LINE
8
0
10
15.9531061
20
55.0287347
11
15.9072898
21
55.6330319
0
LINE
8
0
10
15.9072898
20
55.6330319
11
15.8492497
21
55.9809189
0
LINE
8
0
10
15.8492497
20
55.9809189
11
15.6234162
21
57.0602678
0
LINE
8
0
10
15.6234162
20
57.0602678
11
15.5591312
21
57.2763413
0
LINE
8
0
10
15.5591312
20
57.2763413
11
15.1486393
21
58.3381228
0
LINE
8
0
10
15.1486393
20
58.3381228
11
15.1282849
21
58.3866733
0
LINE
8
0
10
15.1282849
20
58.3866733
11
15.1054465
21
58.4305825
0
LINE
8
0
10
15.1054465
20
58.4305825
11
15.1049091
21
58.4315001
0
LINE
8
0
10
15.1049091
20
58.4315001
11
14.5028851
21
59.3505033
0
LINE
8
0
10
14.5028851
20
59.3505033
11
14.5000467
21
59.3545395
0
LINE
8
0
10
14.5000467
20
59.3545395
11
14.4981286
21
59.3564439
0
LINE
8
0
10
14.4981286
20
59.3564439
11
14.4285542
21
59.413855
0
LINE
8
0
10
14.4285542
20
59.413855
11
13.798691
21
59.9379986
0
LINE
8
0
10
13.798691
20
59.9379986
11
13.774687
21
59.9547669
0
LINE
8
0
10
13.774687
20
59.9547669
11
13.3112875
21
60.0882946
0
LINE
8
0
10
13.3112875
20
60.0882946
11
13
21
60.1584357
0
LINE
8
0
10
13
20
60.1584357
11
8.43733408
21
60.1584357
0
LINE
8
0
10
8.43733408
20
60.1584357
11
4.4
21
60.1584357
0
LINE
8
0
10
4.4
20
60.1584357
11
3.91927984
21
60.0318687
0
LINE
8
0
10
3.91927984
20
60.0318687
11
3.882362
21
60.0221481
0
LINE
8
0
10
3.882362
20
60.0221481
11
3.84641949
21
59.9923727
0
LINE
8
0
10
3.84641949
20
59.9923727
11
3.4
21
59.6225512
0
LINE
8
0
10
3.4
20
59.6225512
11
3.35440487
21
59.5525793
0
LINE
8
0
10
3.35440487
20
59.5525793
11
2.985786
21
58.9868692
0
LINE
8
0
10
2.985786
20
58.9868692
11
2.93270442
21
58.848514
0
LINE
8
0
10
2.93270442
20
58.848514
11
2.667949
21
58.1584387
0
LINE
8
0
10
2.667949
20
58.1584387
11
2.61966469
21
57.9253011
0
LINE
8
0
10
2.61966469
20
57.9253011
11
2.468148
21
57.1937126
0
LINE
8
0
10
2.468148
20
57.1937126
11
2.44577472
21
56.8538257
0
LINE
8
0
10
2.44577472
20
56.8538257
11
2.4
21
56.1584378
0
LINE
8
0
10
2.4
20
56.1584378
11
2.4
21
52.0794235
0
LINE
8
0
10
2.4
20
52.0794235
11
2.4
21
50.1584355
0
LINE
8
0
10
2.4
20
50.1584355
11
10.8435389
21
50.1584355
0
LINE
8
0
10
10.8435389
20
50.1584355
11
16
21
50.1584355
0
LINE
8
0
10
16
20
50.1584355
11
16
21
50.1584355
0
LINE
8
0
10
16
20
39.9466814
11
16
21
41.4981786
0
LINE
8
0
10
16
20
41.4981786
11
16
21
46.8748845
0
LINE
8
0
10
16
20
46.8748845
11
7.55646112
21
46.8748845
0
LINE
8
0
10
7.55646112
20
46.8748845
11
2.4
21
46.8748845
0
LINE
8
0
10
2.4
20
46.8748845
11
2.4
21
44.4852374
0
LINE
8
0
10
2.4
20
44.4852374
11
2.4
21
41.4981786
0
LINE
8
0
10
2.4
20
41.4981786
11
2.4
21
40.5672803
0
LINE
8
0
10
2.4
20
40.5672803
11
2.4
21
39.9466814
0
LINE
8
0
10
2.4
20
39.9466814
11
2.4
21
35.9281324
0
LINE
8
0
10
2.4
20
35.9281324
11
2.4
21
31.2864264
0
LINE
8
0
10
2.4
20
31.2864264
11
2.4
21
31.2142053
0
LINE
8
0
10
2.4
20
31.2142053
11
2.4
21
31.1058736
0
LINE
8
0
10
2.4
20
31.1058736
11
2.4
21
27.3571829
0
LINE
8
0
10
2.4
20
27.3571829
11
2.4
21
24.3582225
0
LINE
8
0
10
2.4
20
24.3582225
11
5.40353888
21
24.3582225
0
LINE
8
0
10
5.40353888
20
24.3582225
11
16
21
24.3582225
0
LINE
8
0
10
16
20
24.3582225
11
16
21
31.1058736
0
LINE
8
0
10
16
20
31.1058736
11
16
21
31.2864264
0
LINE
8
0
10
16
20
31.2864264
11
16
21
32.1891907
0
LINE
8
0
10
16
20
32.1891907
11
16
21
39.9466814
0
LINE
8
0
10
16
20
39.9466814
11
16
21
39.9466814
0
ENDSEC
0
EOF
