0
SECTION
2
ENTITIES
0
LINE
8
0
10
16
20
32.081986
11
16
21
40.702619
0
LINE
8
0
10
16
20
40.702619
11
15.9377779
21
40.702619
0
LINE
8
0
10
15.9377779
20
40.702619
11
2.4
21
40.702619
0
LINE
8
0
10
2.4
20
40.702619
11
2.4
21
36.0004555
0
LINE
8
0
10
2.4
20
36.0004555
11
2.4
21
32.081986
0
LINE
8
0
10
2.4
20
32.081986
11
2.4
21
31.3733172
0
LINE
8
0
10
2.4
20
31.3733172
11
2.4
21
30.310314
0
LINE
8
0
10
2.4
20
30.310314
11
2.4
21
27.4455779
0
LINE
8
0
10
2.4
20
27.4455779
11
2.4
21
25.153783
0
LINE
8
0
10
2.4
20
25.153783
11
7.90222211
21
25.153783
0
LINE
8
0
10
7.90222211
20
25.153783
11
16
21
25.153783
0
LINE
8
0
10
16
20
25.153783
11
16
21
30.310314
0
LINE
8
0
10
16
20
30.310314
11
16
21
32.081986
0
LINE
8
0
10
16
20
32.081986
11
16
21
32.081986
0
LINE
8
0
10
16
20
21.650061
11
16
21
16.493531
0
LINE
8
0
10
16
20
16.493531
11
16
21
15.8587501
0
LINE
8
0
10
16
20
15.8587501
11
16
21
15.172623
0
LINE
8
0
10
16
20
15.172623
11
16
21
14.9806018
0
LINE
8
0
10
16
20
14.9806018
11
23.6378835
21
14.9806
0
LINE
8
0
10
23.6378835
20
14.9806
11
36.8316301
21
14.980598
0
LINE
8
0
10
36.8316301
20
14.980598
11
38
21
14.9805982
0
LINE
8
0
10
38
20
14.9805982
11
38
21
18.5639677
0
LINE
8
0
10
38
20
18.5639677
11
58.0677638
21
18.5639677
0
LINE
8
0
10
58.0677638
20
18.5639677
11
58.1
21
18.5639677
0
LINE
8
0
10
58.1
20
18.5639677
11
58.1045045
21
18.5589459
0
LINE
8
0
10
58.1045045
20
18.5589459
11
59.6
21
16.8916859
0
LINE
8
0
10
59.6
20
16.8916859
11
59.6
21
14.9805988
0
LINE
8
0
10
59.6
20
14.9805988
11
65.8218705
21
14.9805988
0
LINE
8
0
10
65.8218705
20
14.9805988
11
70.4717683
21
14.9805996
0
LINE
8
0
10
70.4717683
20
14.9805996
11
70.4855744
21
14.9805995
0
LINE
8
0
10
70.4855744
20
14.9805995
11
70.4861109
21
14.3852289
0
LINE
8
0
10
70.4861109
20
14.3852289
11
70.4468804
21
1.863192
0
LINE
8
0
10
70.4468804
20
1.863192
11
70.4861109
21
-12.5953511
0
LINE
8
0
10
70.4861109
20
-12.5953511
11
70.4855423
21
-13.2962254
0
LINE
8
0
10
70.4855423
20
-13.2962254
11
70.4844374
21
-13.301495
0
LINE
8
0
10
70.4844374
20
-13.301495
11
70.485395
21
-13.3217028
0
LINE
8
0
10
70.485395
20
-13.3217028
11
70.456352
21
-13.4780554
0
LINE
8
0
10
70.456352
20
-13.4780554
11
70.4571762
21
-13.5383913
0
LINE
8
0
10
70.4571762
20
-13.5383913
11
70.4105135
21
-13.6779333
0
LINE
8
0
10
70.4105135
20
-13.6779333
11
70.3862246
21
-13.8101343
0
LINE
8
0
10
70.3862246
20
-13.8101343
11
70.3369977
21
-13.9023738
0
LINE
8
0
10
70.3369977
20
-13.9023738
11
70.2554626
21
-14.090896
0
LINE
8
0
10
70.2554626
20
-14.090896
11
70.2123746
21
-14.1438708
0
LINE
8
0
10
70.2123746
20
-14.1438708
11
70.0553851
21
-14.3471751
0
LINE
8
0
10
70.0553851
20
-14.3471751
11
70.0116346
21
-14.382646
0
LINE
8
0
10
70.0116346
20
-14.382646
11
69.7990986
21
-14.5472626
0
LINE
8
0
10
69.7990986
20
-14.5472626
11
69.7229343
21
-14.5866081
0
LINE
8
0
10
69.7229343
20
-14.5866081
11
69.5183443
21
-14.6780191
0
LINE
8
0
10
69.5183443
20
-14.6780191
11
69.4546967
21
-14.7004819
0
LINE
8
0
10
69.4546967
20
-14.7004819
11
69.379648
21
-14.7197351
0
LINE
8
0
10
69.379648
20
-14.7197351
11
69.2966945
21
-14.7413144
0
LINE
8
0
10
69.2966945
20
-14.7413144
11
69.2465941
21
-14.7489735
0
LINE
8
0
10
69.2465941
20
-14.7489735
11
69.1437898
21
-14.7673455
0
LINE
8
0
10
69.1437898
20
-14.7673455
11
69.1213615
21
-14.7687002
0
LINE
8
0
10
69.1213615
20
-14.7687002
11
69.0285012
21
-14.7785873
0
LINE
8
0
10
69.0285012
20
-14.7785873
11
69.0044254
21
-14.7773323
0
LINE
8
0
10
69.0044254
20
-14.7773323
11
68.2061349
21
-14.7780831
0
LINE
8
0
10
68.2061349
20
-14.7780831
11
53.11421
21
-14.7385114
0
LINE
8
0
10
53.11421
20
-14.7385114
11
45.4730653
21
-14.7527802
0
LINE
8
0
10
45.4730653
20
-14.7527802
11
38
21
-14.7428637
0
LINE
8
0
10
38
20
-14.7428637
11
38
21
-15
0
LINE
8
0
10
38
20
-15
11
37.9842869
21
-15.1682804
0
LINE
8
0
10
37.9842869
20
-15.1682804
11
37.9807035
21
-15.1955023
0
LINE
8
0
10
37.9807035
20
-15.1955023
11
37.9392005
21
-15.3416587
0
LINE
8
0
10
37.9392005
20
-15.3416587
11
37.9238833
21
-15.3786376
0
LINE
8
0
10
37.9238833
20
-15.3786376
11
37.7943121
21
-15.6033911
0
LINE
8
0
10
37.7943121
20
-15.6033911
11
37.7558976
21
-15.6534543
0
LINE
8
0
10
37.7558976
20
-15.6534543
11
37.5976471
21
-15.7958322
0
LINE
8
0
10
37.5976471
20
-15.7958322
11
37.5317006
21
-15.8464344
0
LINE
8
0
10
37.5317006
20
-15.8464344
11
37.3683534
21
-15.922799
0
LINE
8
0
10
37.3683534
20
-15.922799
11
37.2759784
21
-15.961062
0
LINE
8
0
10
37.2759784
20
-15.961062
11
37.2179631
21
-15.9754008
0
LINE
8
0
10
37.2179631
20
-15.9754008
11
37.1588248
21
-15.9840571
0
LINE
8
0
10
37.1588248
20
-15.9840571
11
37.0596935
21
-15.9971063
0
LINE
8
0
10
37.0596935
20
-15.9971063
11
37
21
-16
0
LINE
8
0
10
37
20
-16
11
34.3469534
21
-16
0
LINE
8
0
10
34.3469534
20
-16
11
25.5376677
21
-16
0
LINE
8
0
10
25.5376677
20
-16
11
20.5628615
21
-16
0
LINE
8
0
10
20.5628615
20
-16
11
10.2273371
21
-16
0
LINE
8
0
10
10.2273371
20
-16
11
4.4
21
-16
0
LINE
8
0
10
4.4
20
-16
11
4.34070334
21
-15.9941765
0
LINE
8
0
10
4.34070334
20
-15.9941765
11
4.27683802
21
-15.983785
0
LINE
8
0
10
4.27683802
20
-15.983785
11
4.11934994
21
-15.9630508
0
LINE
8
0
10
4.11934994
20
-15.9630508
11
3.96414795
21
-15.9494612
0
LINE
8
0
10
3.96414795
20
-15.9494612
11
3.81830472
21
-15.9118738
0
LINE
8
0
10
3.81830472
20
-15.9118738
11
3.54033825
21
-15.7968921
0
LINE
8
0
10
3.54033825
20
-15.7968921
11
3.40195509
21
-15.7330793
0
LINE
8
0
10
3.40195509
20
-15.7330793
11
3.28335449
21
-15.6492838
0
LINE
8
0
10
3.28335449
20
-15.6492838
11
3.03056966
21
-15.4554985
0
LINE
8
0
10
3.03056966
20
-15.4554985
11
2.92920603
21
-15.3508839
0
LINE
8
0
10
2.92920603
20
-15.3508839
11
2.73229056
21
-15.0942606
0
LINE
8
0
10
2.73229056
20
-15.0942606
11
2.64723657
21
-14.9614059
0
LINE
8
0
10
2.64723657
20
-14.9614059
11
2.52144595
21
-14.6577219
0
LINE
8
0
10
2.52144595
20
-14.6577219
11
2.46378369
21
-14.4998483
0
LINE
8
0
10
2.46378369
20
-14.4998483
11
2.44880155
21
-14.4164835
0
LINE
8
0
10
2.44880155
20
-14.4164835
11
2.41134378
21
-14.1863384
0
LINE
8
0
10
2.41134378
20
-14.1863384
11
2.4
21
-14
0
LINE
8
0
10
2.4
20
-14
11
2.4
21
-13.9906787
0
LINE
8
0
10
2.4
20
-13.9906787
11
2.4
21
-11.4151825
0
LINE
8
0
10
2.4
20
-11.4151825
11
2.4
21
-11.0280628
0
LINE
8
0
10
2.4
20
-11.0280628
11
2.4
21
-10.8616506
0
LINE
8
0
10
2.4
20
-10.8616506
11
2.4
21
2.24512612
0
LINE
8
0
10
2.4
20
2.24512612
11
2.4
21
4
0
LINE
8
0
10
2.4
20
4
11
13.6042459
21
4
0
LINE
8
0
10
13.6042459
20
4
11
16
21
4
0
LINE
8
0
10
16
20
4
11
16
21
4.27572204
0
LINE
8
0
10
16
20
4.27572204
11
16
21
4.349365
0
LINE
8
0
10
16
20
4.349365
11
16
21
6.1012268
0
LINE
8
0
10
16
20
6.1012268
11
7.90222211
21
6.1012268
0
LINE
8
0
10
7.90222211
20
6.1012268
11
2.4
21
6.1012268
0
LINE
8
0
10
2.4
20
6.1012268
11
2.4
21
8.91387964
0
LINE
8
0
10
2.4
20
8.91387964
11
2.4
21
11.257755
0
LINE
8
0
10
2.4
20
11.257755
11
2.4
21
13.3447691
0
LINE
8
0
10
2.4
20
13.3447691
11
2.4
21
13.4684116
0
LINE
8
0
10
2.4
20
13.4684116
11
2.4
21
13.6043196
0
LINE
8
0
10
2.4
20
13.6043196
11
2.4
21
13.7352097
0
LINE
8
0
10
2.4
20
13.7352097
11
2.4
21
13.8460156
0
LINE
8
0
10
2.4
20
13.8460156
11
2.4
21
16.493531
0
LINE
8
0
10
2.4
20
16.493531
11
2.4
21
18.837411
0
LINE
8
0
10
2.4
20
18.837411
11
2.4
21
21.650061
0
LINE
8
0
10
2.4
20
21.650061
11
10.4977779
21
21.650061
0
LINE
8
0
10
10.4977779
20
21.650061
11
16
21
21.650061
0
LINE
8
0
10
16
20
21.650061
11
16
21
21.650061
0
LINE
8
0
10
16
20
47.670445
11
16
21
40.9007291
0
LINE
8
0
10
16
20
40.9007291
11
16
21
40.742241
0
LINE
8
0
10
16
20
40.742241
11
2.46222211
21
40.742241
0
LINE
8
0
10
2.46222211
20
40.742241
11
2.4
21
40.742241
0
LINE
8
0
10
2.4
20
40.742241
11
2.4
21
44.5736335
0
LINE
8
0
10
2.4
20
44.5736335
11
2.4
21
47.670445
0
LINE
8
0
10
2.4
20
47.670445
11
5.05777789
21
47.670445
0
LINE
8
0
10
5.05777789
20
47.670445
11
16
21
47.670445
0
LINE
8
0
10
16
20
47.670445
11
16
21
47.670445
0
LINE
8
0
10
16
20
49.362875
11
16
21
50.8074679
0
LINE
8
0
10
16
20
50.8074679
11
16
21
53.3628809
0
LINE
8
0
10
16
20
53.3628809
11
15.9505924
21
54.2798258
0
LINE
8
0
10
15.9505924
20
54.2798258
11
15.9100143
21
54.8150336
0
LINE
8
0
10
15.9100143
20
54.8150336
11
15.835346
21
55.2625883
0
LINE
8
0
10
15.835346
20
55.2625883
11
15.6353321
21
56.218535
0
LINE
8
0
10
15.6353321
20
56.218535
11
15.540813
21
56.5362305
0
LINE
8
0
10
15.540813
20
56.5362305
11
15.1772528
21
57.4766183
0
LINE
8
0
10
15.1772528
20
57.4766183
11
15.1355797
21
57.5760194
0
LINE
8
0
10
15.1355797
20
57.5760194
11
15.088821
21
57.665918
0
LINE
8
0
10
15.088821
20
57.665918
11
15.0877208
21
57.6677966
0
LINE
8
0
10
15.0877208
20
57.6677966
11
14.5545264
21
58.4817298
0
LINE
8
0
10
14.5545264
20
58.4817298
11
14.5008821
21
58.5580099
0
LINE
8
0
10
14.5008821
20
58.5580099
11
14.4646325
21
58.5940032
0
LINE
8
0
10
14.4646325
20
58.5940032
11
13.7980343
21
59.1440626
0
LINE
8
0
10
13.7980343
20
59.1440626
11
13.7791262
21
59.1569967
0
LINE
8
0
10
13.7791262
20
59.1569967
11
13.7606016
21
59.1643825
0
LINE
8
0
10
13.7606016
20
59.1643825
11
13.7423043
21
59.1667516
0
LINE
8
0
10
13.7423043
20
59.1667516
11
13.2828498
21
59.2991426
0
LINE
8
0
10
13.2828498
20
59.2991426
11
13
21
59.3628759
0
LINE
8
0
10
13
20
59.3628759
11
8.06850312
21
59.3628759
0
LINE
8
0
10
8.06850312
20
59.3628759
11
4.4
21
59.3628759
0
LINE
8
0
10
4.4
20
59.3628759
11
3.96319606
21
59.2478715
0
LINE
8
0
10
3.96319606
20
59.2478715
11
3.882362
21
59.2265876
0
LINE
8
0
10
3.882362
20
59.2265876
11
3.80366347
21
59.1613924
0
LINE
8
0
10
3.80366347
20
59.1613924
11
3.4
21
58.8269906
0
LINE
8
0
10
3.4
20
58.8269906
11
3.31695058
21
58.6995401
0
LINE
8
0
10
3.31695058
20
58.6995401
11
2.985786
21
58.1913102
0
LINE
8
0
10
2.985786
20
58.1913102
11
2.9034847
21
57.9767948
0
LINE
8
0
10
2.9034847
20
57.9767948
11
2.667949
21
57.3628796
0
LINE
8
0
10
2.667949
20
57.3628796
11
2.6010768
21
57.0399916
0
LINE
8
0
10
2.6010768
20
57.0399916
11
2.468148
21
56.3981536
0
LINE
8
0
10
2.468148
20
56.3981536
11
2.4393953
21
55.9613528
0
LINE
8
0
10
2.4393953
20
55.9613528
11
2.4
21
55.362878
0
LINE
8
0
10
2.4
20
55.362878
11
2.4
21
51.8523379
0
LINE
8
0
10
2.4
20
51.8523379
11
2.4
21
49.362875
0
LINE
8
0
10
2.4
20
49.362875
11
13.3422221
21
49.362875
0
LINE
8
0
10
13.3422221
20
49.362875
11
16
21
49.362875
0
LINE
8
0
10
16
20
49.362875
11
16
21
49.362875
0
LINE
8
0
10
47.6902462
20
-5.12048933
11
47.72651
21
-5.148148
0
LINE
8
0
10
47.72651
20
-5.148148
11
47.864563
21
-5.20504833
0
LINE
8
0
10
47.864563
20
-5.20504833
11
47.90673
21
-5.222428
0
LINE
8
0
10
47.90673
20
-5.222428
11
48.0547796
21
-5.24183141
0
LINE
8
0
10
48.0547796
20
-5.24183141
11
48.1
21
-5.247758
0
LINE
8
0
10
48.1
20
-5.247758
11
48.2480496
21
-5.22835459
0
LINE
8
0
10
48.2480496
20
-5.22835459
11
48.29327
21
-5.222428
0
LINE
8
0
10
48.29327
20
-5.222428
11
48.431323
21
-5.16552767
0
LINE
8
0
10
48.431323
20
-5.16552767
11
48.47349
21
-5.148148
0
LINE
8
0
10
48.47349
20
-5.148148
11
48.5922162
21
-5.05759467
0
LINE
8
0
10
48.5922162
20
-5.05759467
11
48.62848
21
-5.029936
0
LINE
8
0
10
48.62848
20
-5.029936
11
48.7198591
21
-4.91184638
0
LINE
8
0
10
48.7198591
20
-4.91184638
11
48.74777
21
-4.875777
0
LINE
8
0
10
48.74777
20
-4.875777
11
48.8056279
21
-4.7381277
0
LINE
8
0
10
48.8056279
20
-4.7381277
11
48.8233
21
-4.696084
0
LINE
8
0
10
48.8233
20
-4.696084
11
48.8437375
21
-4.54817226
0
LINE
8
0
10
48.8437375
20
-4.54817226
11
48.84998
21
-4.502994
0
LINE
8
0
10
48.84998
20
-4.502994
11
48.8316107
21
-4.35481186
0
LINE
8
0
10
48.8316107
20
-4.35481186
11
48.826
21
-4.309551
0
LINE
8
0
10
48.826
20
-4.309551
11
48.7700649
21
-4.17110656
0
LINE
8
0
10
48.7700649
20
-4.17110656
11
48.75298
21
-4.12882
0
LINE
8
0
10
48.75298
20
-4.12882
11
48.6632555
21
-4.00946643
0
LINE
8
0
10
48.6632555
20
-4.00946643
11
48.63585
21
-3.973011
0
LINE
8
0
10
48.63585
20
-3.973011
11
48.5731622
21
-3.90899575
0
LINE
8
0
10
48.5731622
20
-3.90899575
11
48.1
21
-3.425814
0
LINE
8
0
10
48.1
20
-3.425814
11
48.0373122
21
-3.48982925
0
LINE
8
0
10
48.0373122
20
-3.48982925
11
47.56415
21
-3.973011
0
LINE
8
0
10
47.56415
20
-3.973011
11
47.5367445
21
-4.00946643
0
LINE
8
0
10
47.5367445
20
-4.00946643
11
47.44702
21
-4.12882
0
LINE
8
0
10
47.44702
20
-4.12882
11
47.3910849
21
-4.26726444
0
LINE
8
0
10
47.3910849
20
-4.26726444
11
47.374
21
-4.309551
0
LINE
8
0
10
47.374
20
-4.309551
11
47.3556307
21
-4.45773314
0
LINE
8
0
10
47.3556307
20
-4.45773314
11
47.35002
21
-4.502994
0
LINE
8
0
10
47.35002
20
-4.502994
11
47.3704575
21
-4.65090574
0
LINE
8
0
10
47.3704575
20
-4.65090574
11
47.3767
21
-4.696084
0
LINE
8
0
10
47.3767
20
-4.696084
11
47.4345579
21
-4.8337333
0
LINE
8
0
10
47.4345579
20
-4.8337333
11
47.45223
21
-4.875777
0
LINE
8
0
10
47.45223
20
-4.875777
11
47.5436091
21
-4.99386662
0
LINE
8
0
10
47.5436091
20
-4.99386662
11
47.57152
21
-5.029936
0
LINE
8
0
10
47.57152
20
-5.029936
11
47.6902462
21
-5.12048933
0
LINE
8
0
10
47.6902462
20
-5.12048933
11
47.6902462
21
-5.12048933
0
ENDSEC
0
EOF
