0
SECTION
2
ENTITIES
0
LINE
8
0
10
16
20
40.3048387
11
16
21
32.4797658
0
LINE
8
0
10
16
20
32.4797658
11
16
21
29.9125342
0
LINE
8
0
10
16
20
29.9125342
11
16
21
25.5515633
0
LINE
8
0
10
16
20
25.5515633
11
9.15156373
21
25.5515633
0
LINE
8
0
10
9.15156373
20
25.5515633
11
2.4
21
25.5515633
0
LINE
8
0
10
2.4
20
25.5515633
11
2.4
21
27.4897754
0
LINE
8
0
10
2.4
20
27.4897754
11
2.4
21
29.9125342
0
LINE
8
0
10
2.4
20
29.9125342
11
2.4
21
31.4528732
0
LINE
8
0
10
2.4
20
31.4528732
11
2.4
21
32.4797658
0
LINE
8
0
10
2.4
20
32.4797658
11
2.4
21
36.0366171
0
LINE
8
0
10
2.4
20
36.0366171
11
2.4
21
40.3048387
0
LINE
8
0
10
2.4
20
40.3048387
11
14.6884363
21
40.3048387
0
LINE
8
0
10
14.6884363
20
40.3048387
11
16
21
40.3048387
0
LINE
8
0
10
16
20
40.3048387
11
16
21
40.3048387
0
LINE
8
0
10
16
20
16.8913116
11
16
21
16.1600776
0
LINE
8
0
10
16
20
16.1600776
11
16
21
15.4947799
0
LINE
8
0
10
16
20
15.4947799
11
16
21
15.308588
0
LINE
8
0
10
16
20
15.308588
11
23.9519611
21
15.308586
0
LINE
8
0
10
23.9519611
20
15.308586
11
36.3729046
21
15.3085842
0
LINE
8
0
10
36.3729046
20
15.3085842
11
38
21
15.3085845
0
LINE
8
0
10
38
20
15.3085845
11
38
21
18.5438761
0
LINE
8
0
10
38
20
18.5438761
11
56.1184407
21
18.5438761
0
LINE
8
0
10
56.1184407
20
18.5438761
11
58.1
21
18.5438761
0
LINE
8
0
10
58.1
20
18.5438761
11
58.3768891
21
18.2351841
0
LINE
8
0
10
58.3768891
20
18.2351841
11
59.6
21
16.8715933
0
LINE
8
0
10
59.6
20
16.8715933
11
59.6
21
15.3085854
0
LINE
8
0
10
59.6
20
15.3085854
11
64.6886395
21
15.3085854
0
LINE
8
0
10
64.6886395
20
15.3085854
11
68.5847734
21
15.308586
0
LINE
8
0
10
68.5847734
20
15.308586
11
70.7515251
21
15.3085797
0
LINE
8
0
10
70.7515251
20
15.3085797
11
70.7597687
21
3.38371358
0
LINE
8
0
10
70.7597687
20
3.38371358
11
70.755005
21
1.863192
0
LINE
8
0
10
70.755005
20
1.863192
11
70.7597687
21
0.107525017
0
LINE
8
0
10
70.7597687
20
0.107525017
11
70.7515251
21
-13.340557
0
LINE
8
0
10
70.7515251
20
-13.340557
11
70.7415586
21
-13.3942112
0
LINE
8
0
10
70.7415586
20
-13.3942112
11
70.7440444
21
-13.5761806
0
LINE
8
0
10
70.7440444
20
-13.5761806
11
70.7379
21
-13.6136822
0
LINE
8
0
10
70.7379
20
-13.6136822
11
70.7376843
21
-13.6290159
0
LINE
8
0
10
70.7376843
20
-13.6290159
11
70.6663662
21
-13.8496927
0
LINE
8
0
10
70.6663662
20
-13.8496927
11
70.6468753
21
-13.9423669
0
LINE
8
0
10
70.6468753
20
-13.9423669
11
70.5578268
21
-14.1103826
0
LINE
8
0
10
70.5578268
20
-14.1103826
11
70.4894731
21
-14.2608734
0
LINE
8
0
10
70.4894731
20
-14.2608734
11
70.3888057
21
-14.3846583
0
LINE
8
0
10
70.3888057
20
-14.3846583
11
70.2588977
21
-14.5506877
0
LINE
8
0
10
70.2588977
20
-14.5506877
11
70.1362965
21
-14.6501515
0
LINE
8
0
10
70.1362965
20
-14.6501515
11
69.9690734
21
-14.7812731
0
LINE
8
0
10
69.9690734
20
-14.7812731
11
69.789925
21
-14.8739254
0
LINE
8
0
10
69.789925
20
-14.8739254
11
69.6505737
21
-14.9386653
0
LINE
8
0
10
69.6505737
20
-14.9386653
11
69.533171
21
-14.9797331
0
LINE
8
0
10
69.533171
20
-14.9797331
11
69.4914037
21
-14.9913333
0
LINE
8
0
10
69.4914037
20
-14.9913333
11
69.3497387
21
-15.0272977
0
LINE
8
0
10
69.3497387
20
-15.0272977
11
69.3372259
21
-15.0294748
0
LINE
8
0
10
69.3372259
20
-15.0294748
11
69.2813421
21
-15.0388786
0
LINE
8
0
10
69.2813421
20
-15.0388786
11
69.1881852
21
-15.0445051
0
LINE
8
0
10
69.1881852
20
-15.0445051
11
69.1722202
21
-15.0462049
0
LINE
8
0
10
69.1722202
20
-15.0462049
11
69.048757
21
-15.0433151
0
LINE
8
0
10
69.048757
20
-15.0433151
11
56.6999927
21
-15.0472073
0
LINE
8
0
10
56.6999927
20
-15.0472073
11
53.11421
21
-15.0378052
0
LINE
8
0
10
53.11421
20
-15.0378052
11
44.6734701
21
-15.0535672
0
LINE
8
0
10
44.6734701
20
-15.0535672
11
37.9951544
21
-15.0518942
0
LINE
8
0
10
37.9951544
20
-15.0518942
11
37.9831171
21
-15.180808
0
LINE
8
0
10
37.9831171
20
-15.180808
11
37.9818033
21
-15.1907886
0
LINE
8
0
10
37.9818033
20
-15.1907886
11
37.9372106
21
-15.3478257
0
LINE
8
0
10
37.9372106
20
-15.3478257
11
37.9281902
21
-15.3696027
0
LINE
8
0
10
37.9281902
20
-15.3696027
11
37.7889731
21
-15.6110881
0
LINE
8
0
10
37.7889731
20
-15.6110881
11
37.7595296
21
-15.6494599
0
LINE
8
0
10
37.7595296
20
-15.6494599
11
37.5894982
21
-15.8024371
0
LINE
8
0
10
37.5894982
20
-15.8024371
11
37.5340606
21
-15.8449756
0
LINE
8
0
10
37.5340606
20
-15.8449756
11
37.3585529
21
-15.9270252
0
LINE
8
0
10
37.3585529
20
-15.9270252
11
37.2772558
21
-15.9606996
0
LINE
8
0
10
37.2772558
20
-15.9606996
11
37.2149215
21
-15.9761058
0
LINE
8
0
10
37.2149215
20
-15.9761058
11
37.1513807
21
-15.9854066
0
LINE
8
0
10
37.1513807
20
-15.9854066
11
37.0641374
21
-15.9968909
0
LINE
8
0
10
37.0641374
20
-15.9968909
11
37
21
-16
0
LINE
8
0
10
37
20
-16
11
34.1494472
21
-16
0
LINE
8
0
10
34.1494472
20
-16
11
26.3965901
21
-16
0
LINE
8
0
10
26.3965901
20
-16
11
21.0514341
21
-16
0
LINE
8
0
10
21.0514341
20
-16
11
9.94648099
21
-16
0
LINE
8
0
10
9.94648099
20
-16
11
4.4
21
-16
0
LINE
8
0
10
4.4
20
-16
11
4.34356122
21
-15.9944572
0
LINE
8
0
10
4.34356122
20
-15.9944572
11
4.28277398
21
-15.9845665
0
LINE
8
0
10
4.28277398
20
-15.9845665
11
4.13287624
21
-15.9648316
0
LINE
8
0
10
4.13287624
20
-15.9648316
11
3.96881596
21
-15.9504664
0
LINE
8
0
10
3.96881596
20
-15.9504664
11
3.81464859
21
-15.9107336
0
LINE
8
0
10
3.81464859
20
-15.9107336
11
3.54825566
21
-15.8005393
0
LINE
8
0
10
3.54825566
20
-15.8005393
11
3.40197416
21
-15.7330844
0
LINE
8
0
10
3.40197416
20
-15.7330844
11
3.27660432
21
-15.6445062
0
LINE
8
0
10
3.27660432
20
-15.6445062
11
3.03312572
21
-15.457855
0
LINE
8
0
10
3.03312572
20
-15.457855
11
2.92597667
21
-15.3472695
0
LINE
8
0
10
2.92597667
20
-15.3472695
11
2.73596291
21
-15.0996407
0
LINE
8
0
10
2.73596291
20
-15.0996407
11
2.64605439
21
-14.9592031
0
LINE
8
0
10
2.64605439
20
-14.9592031
11
2.52448798
21
-14.6657172
0
LINE
8
0
10
2.52448798
20
-14.6657172
11
2.46353459
21
-14.4988328
0
LINE
8
0
10
2.46353459
20
-14.4988328
11
2.44769733
21
-14.4107099
0
LINE
8
0
10
2.44769733
20
-14.4107099
11
2.41144208
21
-14.1879533
0
LINE
8
0
10
2.41144208
20
-14.1879533
11
2.4
21
-14
0
LINE
8
0
10
2.4
20
-14
11
2.4
21
-13.9909754
0
LINE
8
0
10
2.4
20
-13.9909754
11
2.4
21
-11.4974641
0
LINE
8
0
10
2.4
20
-11.4974641
11
2.4
21
-11.1062041
0
LINE
8
0
10
2.4
20
-11.1062041
11
2.4
21
-10.9450523
0
LINE
8
0
10
2.4
20
-10.9450523
11
2.4
21
1.74740151
0
LINE
8
0
10
2.4
20
1.74740151
11
2.4
21
4
0
LINE
8
0
10
2.4
20
4
11
12.9247522
21
4
0
LINE
8
0
10
12.9247522
20
4
11
16
21
4
0
LINE
8
0
10
16
20
4
11
16
21
4.25900058
0
LINE
8
0
10
16
20
4.25900058
11
16
21
4.349365
0
LINE
8
0
10
16
20
4.349365
11
16
21
6.49900679
0
LINE
8
0
10
16
20
6.49900679
11
9.15156373
21
6.49900679
0
LINE
8
0
10
9.15156373
20
6.49900679
11
2.4
21
6.49900679
0
LINE
8
0
10
2.4
20
6.49900679
11
2.4
21
8.87771784
0
LINE
8
0
10
2.4
20
8.87771784
11
2.4
21
10.8599754
0
LINE
8
0
10
2.4
20
10.8599754
11
2.4
21
13.2641049
0
LINE
8
0
10
2.4
20
13.2641049
11
2.4
21
13.4065345
0
LINE
8
0
10
2.4
20
13.4065345
11
2.4
21
13.5630933
0
LINE
8
0
10
2.4
20
13.5630933
11
2.4
21
13.7138718
0
LINE
8
0
10
2.4
20
13.7138718
11
2.4
21
13.8415143
0
LINE
8
0
10
2.4
20
13.8415143
11
2.4
21
16.8913116
0
LINE
8
0
10
2.4
20
16.8913116
11
2.4
21
18.873573
0
LINE
8
0
10
2.4
20
18.873573
11
2.4
21
21.2522817
0
LINE
8
0
10
2.4
20
21.2522817
11
9.24843627
21
21.2522817
0
LINE
8
0
10
9.24843627
20
21.2522817
11
16
21
21.2522817
0
LINE
8
0
10
16
20
21.2522817
11
16
21
16.8913116
0
LINE
8
0
10
16
20
16.8913116
11
16
21
16.8913116
0
LINE
8
0
10
16
20
44.4807496
11
16
21
41.1400213
0
LINE
8
0
10
16
20
41.1400213
11
3.71156373
21
41.1400213
0
LINE
8
0
10
3.71156373
20
41.1400213
11
2.4
21
41.1400213
0
LINE
8
0
10
2.4
20
41.1400213
11
2.4
21
44.6178315
0
LINE
8
0
10
2.4
20
44.6178315
11
2.4
21
48.0682253
0
LINE
8
0
10
2.4
20
48.0682253
11
3.80843627
21
48.0682253
0
LINE
8
0
10
3.80843627
20
48.0682253
11
16
21
48.0682253
0
LINE
8
0
10
16
20
48.0682253
11
16
21
44.4807496
0
LINE
8
0
10
16
20
44.4807496
11
16
21
44.4807496
0
LINE
8
0
10
16
20
52.965101
11
16
21
50.5746258
0
LINE
8
0
10
16
20
50.5746258
11
16
21
48.9650947
0
LINE
8
0
10
16
20
48.9650947
11
14.5915637
21
48.9650947
0
LINE
8
0
10
14.5915637
20
48.9650947
11
2.4
21
48.9650947
0
LINE
8
0
10
2.4
20
48.9650947
11
2.4
21
51.7387952
0
LINE
8
0
10
2.4
20
51.7387952
11
2.4
21
54.9650981
0
LINE
8
0
10
2.4
20
54.9650981
11
2.43620559
21
55.5151163
0
LINE
8
0
10
2.43620559
20
55.5151163
11
2.468148
21
56.0003741
0
LINE
8
0
10
2.468148
20
56.0003741
11
2.59178286
21
56.5973369
0
LINE
8
0
10
2.59178286
20
56.5973369
11
2.667949
21
56.9651001
0
LINE
8
0
10
2.667949
20
56.9651001
11
2.88887484
21
57.5409352
0
LINE
8
0
10
2.88887484
20
57.5409352
11
2.985786
21
57.7935307
0
LINE
8
0
10
2.985786
20
57.7935307
11
3.29822343
21
58.2730205
0
LINE
8
0
10
3.29822343
20
58.2730205
11
3.4
21
58.4292104
0
LINE
8
0
10
3.4
20
58.4292104
11
3.78228547
21
58.7459022
0
LINE
8
0
10
3.78228547
20
58.7459022
11
3.882362
21
58.8288073
0
LINE
8
0
10
3.882362
20
58.8288073
11
3.98515418
21
58.8558728
0
LINE
8
0
10
3.98515418
20
58.8558728
11
4.4
21
58.965096
0
LINE
8
0
10
4.4
20
58.965096
11
7.88408764
21
58.965096
0
LINE
8
0
10
7.88408764
20
58.965096
11
13
21
58.965096
0
LINE
8
0
10
13
20
58.965096
11
13.268631
21
58.9045665
0
LINE
8
0
10
13.268631
20
58.9045665
11
13.7049887
21
58.7788309
0
LINE
8
0
10
13.7049887
20
58.7788309
11
13.7418773
21
58.7740545
0
LINE
8
0
10
13.7418773
20
58.7740545
11
13.779224
21
58.7591643
0
LINE
8
0
10
13.779224
20
58.7591643
11
13.8173438
21
58.7330885
0
LINE
8
0
10
13.8173438
20
58.7330885
11
14.4478844
21
58.2127829
0
LINE
8
0
10
14.4478844
20
58.2127829
11
14.5012999
21
58.1597452
0
LINE
8
0
10
14.5012999
20
58.1597452
11
14.5803471
21
58.0473431
0
LINE
8
0
10
14.5803471
20
58.0473431
11
15.0791266
21
57.2859449
0
LINE
8
0
10
15.0791266
20
57.2859449
11
15.0805083
21
57.2835858
0
LINE
8
0
10
15.0805083
20
57.2835858
11
15.1392272
21
57.1706925
0
LINE
8
0
10
15.1392272
20
57.1706925
11
15.1915595
21
57.0458661
0
LINE
8
0
10
15.1915595
20
57.0458661
11
15.531654
21
56.1661751
0
LINE
8
0
10
15.531654
20
56.1661751
11
15.6412901
21
55.7976686
0
LINE
8
0
10
15.6412901
20
55.7976686
11
15.8283942
21
54.903423
0
LINE
8
0
10
15.8283942
20
54.903423
11
15.9113766
21
54.4060345
0
LINE
8
0
10
15.9113766
20
54.4060345
11
15.9493356
21
53.9053713
0
LINE
8
0
10
15.9493356
20
53.9053713
11
16
21
52.965101
0
LINE
8
0
10
16
20
52.965101
11
16
21
52.965101
0
LINE
8
0
10
48.4147674
20
-5.17235128
11
48.29327
21
-5.222428
0
LINE
8
0
10
48.29327
20
-5.222428
11
48.2302952
21
-5.23068149
0
LINE
8
0
10
48.2302952
20
-5.23068149
11
48.1
21
-5.247758
0
LINE
8
0
10
48.1
20
-5.247758
11
48.0370252
21
-5.23950451
0
LINE
8
0
10
48.0370252
20
-5.23950451
11
47.90673
21
-5.222428
0
LINE
8
0
10
47.90673
20
-5.222428
11
47.8480074
21
-5.19822472
0
LINE
8
0
10
47.8480074
20
-5.19822472
11
47.72651
21
-5.148148
0
LINE
8
0
10
47.72651
20
-5.148148
11
47.6760083
21
-5.10962998
0
LINE
8
0
10
47.6760083
20
-5.10962998
11
47.57152
21
-5.029936
0
LINE
8
0
10
47.57152
20
-5.029936
11
47.5326507
21
-4.97970506
0
LINE
8
0
10
47.5326507
20
-4.97970506
11
47.45223
21
-4.875777
0
LINE
8
0
10
47.45223
20
-4.875777
11
47.4276194
21
-4.8172261
0
LINE
8
0
10
47.4276194
20
-4.8172261
11
47.3767
21
-4.696084
0
LINE
8
0
10
47.3767
20
-4.696084
11
47.3680066
21
-4.63316784
0
LINE
8
0
10
47.3680066
20
-4.63316784
11
47.35002
21
-4.502994
0
LINE
8
0
10
47.35002
20
-4.502994
11
47.3578336
21
-4.43996282
0
LINE
8
0
10
47.3578336
20
-4.43996282
11
47.374
21
-4.309551
0
LINE
8
0
10
47.374
20
-4.309551
11
47.3977927
21
-4.25066188
0
LINE
8
0
10
47.3977927
20
-4.25066188
11
47.44702
21
-4.12882
0
LINE
8
0
10
47.44702
20
-4.12882
11
47.5259845
21
-4.02377957
0
LINE
8
0
10
47.5259845
20
-4.02377957
11
47.56415
21
-3.973011
0
LINE
8
0
10
47.56415
20
-3.973011
11
48.0126997
21
-3.51496293
0
LINE
8
0
10
48.0126997
20
-3.51496293
11
48.1
21
-3.425814
0
LINE
8
0
10
48.1
20
-3.425814
11
48.5485497
21
-3.88386207
0
LINE
8
0
10
48.5485497
20
-3.88386207
11
48.63585
21
-3.973011
0
LINE
8
0
10
48.63585
20
-3.973011
11
48.6740155
21
-4.02377957
0
LINE
8
0
10
48.6740155
20
-4.02377957
11
48.75298
21
-4.12882
0
LINE
8
0
10
48.75298
20
-4.12882
11
48.7767727
21
-4.18770912
0
LINE
8
0
10
48.7767727
20
-4.18770912
11
48.826
21
-4.309551
0
LINE
8
0
10
48.826
20
-4.309551
11
48.8338136
21
-4.37258218
0
LINE
8
0
10
48.8338136
20
-4.37258218
11
48.84998
21
-4.502994
0
LINE
8
0
10
48.84998
20
-4.502994
11
48.8412866
21
-4.56591016
0
LINE
8
0
10
48.8412866
20
-4.56591016
11
48.8233
21
-4.696084
0
LINE
8
0
10
48.8233
20
-4.696084
11
48.7986894
21
-4.7546349
0
LINE
8
0
10
48.7986894
20
-4.7546349
11
48.74777
21
-4.875777
0
LINE
8
0
10
48.74777
20
-4.875777
11
48.7089007
21
-4.92600794
0
LINE
8
0
10
48.7089007
20
-4.92600794
11
48.62848
21
-5.029936
0
LINE
8
0
10
48.62848
20
-5.029936
11
48.5779783
21
-5.06845402
0
LINE
8
0
10
48.5779783
20
-5.06845402
11
48.47349
21
-5.148148
0
LINE
8
0
10
48.47349
20
-5.148148
11
48.4147674
21
-5.17235128
0
LINE
8
0
10
48.4147674
20
-5.17235128
11
48.4147674
21
-5.17235128
0
ENDSEC
0
EOF
