0
SECTION
2
ENTITIES
0
LINE
8
0
10
71.5136008
20
-13.4675692
11
71.4979481
21
-13.5861269
0
LINE
8
0
10
71.4979481
20
-13.5861269
11
71.4475867
21
-14.0471091
0
LINE
8
0
10
71.4475867
20
-14.0471091
11
71.4378918
21
-14.0795032
0
LINE
8
0
10
71.4378918
20
-14.0795032
11
71.3416333
21
-14.3243123
0
LINE
8
0
10
71.3416333
20
-14.3243123
11
71.2416236
21
-14.5783243
0
LINE
8
0
10
71.2416236
20
-14.5783243
11
71.197815
21
-14.6610703
0
LINE
8
0
10
71.197815
20
-14.6610703
11
70.9183367
21
-15.0284874
0
LINE
8
0
10
70.9183367
20
-15.0284874
11
70.8305098
21
-15.1332424
0
LINE
8
0
10
70.8305098
20
-15.1332424
11
70.7500146
21
-15.195329
0
LINE
8
0
10
70.7500146
20
-15.195329
11
70.3545166
21
-15.4977313
0
LINE
8
0
10
70.3545166
20
-15.4977313
11
70.303709
21
-15.5225434
0
LINE
8
0
10
70.303709
20
-15.5225434
11
70.0325169
21
-15.6334333
0
LINE
8
0
10
70.0325169
20
-15.6334333
11
69.7877039
21
-15.7296918
0
LINE
8
0
10
69.7877039
20
-15.7296918
11
69.7732631
21
-15.7348742
0
LINE
8
0
10
69.7732631
20
-15.7348742
11
69.7553091
21
-15.7393867
0
LINE
8
0
10
69.7553091
20
-15.7393867
11
69.6947237
21
-15.7468888
0
LINE
8
0
10
69.6947237
20
-15.7468888
11
69.1757692
21
-15.8053908
0
LINE
8
0
10
69.1757692
20
-15.8053908
11
61.1624883
21
-15.8012351
0
LINE
8
0
10
61.1624883
20
-15.8012351
11
53.11421
21
-15.7898145
0
LINE
8
0
10
53.11421
20
-15.7898145
11
39.4172557
21
-15.8085357
0
LINE
8
0
10
39.4172557
20
-15.8085357
11
37.5775767
21
-15.8095293
0
LINE
8
0
10
37.5775767
20
-15.8095293
11
37.5487533
21
-15.8354618
0
LINE
8
0
10
37.5487533
20
-15.8354618
11
37.5458603
21
-15.8376816
0
LINE
8
0
10
37.5458603
20
-15.8376816
11
37.3095507
21
-15.9481561
0
LINE
8
0
10
37.3095507
20
-15.9481561
11
37.2836426
21
-15.9588876
0
LINE
8
0
10
37.2836426
20
-15.9588876
11
37.1997135
21
-15.9796311
0
LINE
8
0
10
37.1997135
20
-15.9796311
11
37.1141599
21
-15.9921539
0
LINE
8
0
10
37.1141599
20
-15.9921539
11
37.0863569
21
-15.9958138
0
LINE
8
0
10
37.0863569
20
-15.9958138
11
37
21
-16
0
LINE
8
0
10
37
20
-16
11
33.1619161
21
-16
0
LINE
8
0
10
33.1619161
20
-16
11
30.6912019
21
-16
0
LINE
8
0
10
30.6912019
20
-16
11
23.4942972
21
-16
0
LINE
8
0
10
23.4942972
20
-16
11
8.54220042
21
-16
0
LINE
8
0
10
8.54220042
20
-16
11
4.4
21
-16
0
LINE
8
0
10
4.4
20
-16
11
4.35785062
21
-15.9958605
0
LINE
8
0
10
4.35785062
20
-15.9958605
11
4.31245374
21
-15.988474
0
LINE
8
0
10
4.31245374
20
-15.988474
11
4.20050772
21
-15.9737357
0
LINE
8
0
10
4.20050772
20
-15.9737357
11
3.99215599
21
-15.9554922
0
LINE
8
0
10
3.99215599
20
-15.9554922
11
3.79636796
21
-15.9050328
0
LINE
8
0
10
3.79636796
20
-15.9050328
11
3.5878427
21
-15.8187757
0
LINE
8
0
10
3.5878427
20
-15.8187757
11
3.4020695
21
-15.7331099
0
LINE
8
0
10
3.4020695
20
-15.7331099
11
3.2428535
21
-15.6206182
0
LINE
8
0
10
3.2428535
20
-15.6206182
11
3.04590606
21
-15.4696379
0
LINE
8
0
10
3.04590606
20
-15.4696379
11
2.90982991
21
-15.3291975
0
LINE
8
0
10
2.90982991
20
-15.3291975
11
2.75432467
21
-15.1265407
0
LINE
8
0
10
2.75432467
20
-15.1265407
11
2.64014349
21
-14.9481891
0
LINE
8
0
10
2.64014349
20
-14.9481891
11
2.53969811
21
-14.7056937
0
LINE
8
0
10
2.53969811
20
-14.7056937
11
2.46228911
21
-14.4937555
0
LINE
8
0
10
2.46228911
20
-14.4937555
11
2.44217625
21
-14.3818419
0
LINE
8
0
10
2.44217625
20
-14.3818419
11
2.41193362
21
-14.1960275
0
LINE
8
0
10
2.41193362
20
-14.1960275
11
2.4
21
-14
0
LINE
8
0
10
2.4
20
-14
11
2.4
21
-13.992459
0
LINE
8
0
10
2.4
20
-13.992459
11
2.4
21
-11.9088722
0
LINE
8
0
10
2.4
20
-11.9088722
11
2.4
21
-11.4969104
0
LINE
8
0
10
2.4
20
-11.4969104
11
2.4
21
-11.3620612
0
LINE
8
0
10
2.4
20
-11.3620612
11
2.4
21
-0.741221565
0
LINE
8
0
10
2.4
20
-0.741221565
11
2.4
21
4
0
LINE
8
0
10
2.4
20
4
11
9.52728359
21
4
0
LINE
8
0
10
9.52728359
20
4
11
16
21
4
0
LINE
8
0
10
16
20
4
11
16
21
4.17539326
0
LINE
8
0
10
16
20
4.17539326
11
16
21
4.349365
0
LINE
8
0
10
16
20
4.349365
11
16
21
8.48790674
0
LINE
8
0
10
16
20
8.48790674
11
15.3982718
21
8.48790674
0
LINE
8
0
10
15.3982718
20
8.48790674
11
2.4
21
8.48790674
0
LINE
8
0
10
2.4
20
8.48790674
11
2.4
21
8.69690883
0
LINE
8
0
10
2.4
20
8.69690883
11
2.4
21
8.8710771
0
LINE
8
0
10
2.4
20
8.8710771
11
2.4
21
12.8607839
0
LINE
8
0
10
2.4
20
12.8607839
11
2.4
21
13.0971489
0
LINE
8
0
10
2.4
20
13.0971489
11
2.4
21
13.3569618
0
LINE
8
0
10
2.4
20
13.3569618
11
2.4
21
13.607182
0
LINE
8
0
10
2.4
20
13.607182
11
2.4
21
13.8190076
0
LINE
8
0
10
2.4
20
13.8190076
11
2.4
21
18.8802145
0
LINE
8
0
10
2.4
20
18.8802145
11
2.4
21
19.0543831
0
LINE
8
0
10
2.4
20
19.0543831
11
2.4
21
19.2633849
0
LINE
8
0
10
2.4
20
19.2633849
11
3.0017282
21
19.2633849
0
LINE
8
0
10
3.0017282
20
19.2633849
11
16
21
19.2633849
0
LINE
8
0
10
16
20
19.2633849
11
16
21
18.8802145
0
LINE
8
0
10
16
20
18.8802145
11
16
21
17.6667153
0
LINE
8
0
10
16
20
17.6667153
11
16
21
17.105564
0
LINE
8
0
10
16
20
17.105564
11
16
21
16.9485187
0
LINE
8
0
10
16
20
16.9485187
11
25.5223492
21
16.9485165
0
LINE
8
0
10
25.5223492
20
16.9485165
11
34.079277
21
16.9485152
0
LINE
8
0
10
34.079277
20
16.9485152
11
38
21
16.9485159
0
LINE
8
0
10
38
20
16.9485159
11
38
21
18.4434181
0
LINE
8
0
10
38
20
18.4434181
11
46.3718252
21
18.4434181
0
LINE
8
0
10
46.3718252
20
18.4434181
11
58.1
21
18.4434181
0
LINE
8
0
10
58.1
20
18.4434181
11
59.4408885
21
16.9485177
0
LINE
8
0
10
59.4408885
20
16.9485177
11
61.0264851
21
16.9485172
0
LINE
8
0
10
61.0264851
20
16.9485172
11
64.3220171
21
16.9485162
0
LINE
8
0
10
64.3220171
20
16.9485162
11
71.513384
21
16.9485179
0
LINE
8
0
10
71.513384
20
16.9485179
11
71.513384
21
-1.39401172
0
LINE
8
0
10
71.513384
20
-1.39401172
11
71.5032419
21
-9.53786746
0
LINE
8
0
10
71.5032419
20
-9.53786746
11
71.5136008
21
-13.4675692
0
LINE
8
0
10
71.5136008
20
-13.4675692
11
71.5136008
21
-13.4675692
0
LINE
8
0
10
16
20
46.9761952
11
16
21
43.1289226
0
LINE
8
0
10
16
20
43.1289226
11
9.9582718
21
43.1289226
0
LINE
8
0
10
9.9582718
20
43.1289226
11
2.4
21
43.1289226
0
LINE
8
0
10
2.4
20
43.1289226
11
2.4
21
44.8388215
0
LINE
8
0
10
2.4
20
44.8388215
11
2.4
21
46.9761952
0
LINE
8
0
10
2.4
20
46.9761952
11
2.4
21
48.6507512
0
LINE
8
0
10
2.4
20
48.6507512
11
2.4
21
48.8760668
0
LINE
8
0
10
2.4
20
48.8760668
11
2.4
21
49.2490153
0
LINE
8
0
10
2.4
20
49.2490153
11
2.4
21
51.1710812
0
LINE
8
0
10
2.4
20
51.1710812
11
2.4
21
52.9761986
0
LINE
8
0
10
2.4
20
52.9761986
11
2.42025704
21
53.2839339
0
LINE
8
0
10
2.42025704
20
53.2839339
11
2.468148
21
54.0114764
0
LINE
8
0
10
2.468148
20
54.0114764
11
2.54531313
21
54.3840632
0
LINE
8
0
10
2.54531313
20
54.3840632
11
2.667949
21
54.9762025
0
LINE
8
0
10
2.667949
20
54.9762025
11
2.81582553
21
55.3616373
0
LINE
8
0
10
2.81582553
20
55.3616373
11
2.985786
21
55.804633
0
LINE
8
0
10
2.985786
20
55.804633
11
3.20458771
21
56.1404225
0
LINE
8
0
10
3.20458771
20
56.1404225
11
3.4
21
56.440309
0
LINE
8
0
10
3.4
20
56.440309
11
3.67539543
21
56.6684513
0
LINE
8
0
10
3.67539543
20
56.6684513
11
3.882362
21
56.839906
0
LINE
8
0
10
3.882362
20
56.839906
11
4.09494474
21
56.8958797
0
LINE
8
0
10
4.09494474
20
56.8958797
11
4.4
21
56.9761965
0
LINE
8
0
10
4.4
20
56.9761965
11
6.96201025
21
56.9761965
0
LINE
8
0
10
6.96201025
20
56.9761965
11
13
21
56.9761965
0
LINE
8
0
10
13
20
56.9761965
11
13.1975368
21
56.9316864
0
LINE
8
0
10
13.1975368
20
56.9316864
11
13.5184107
21
56.8392272
0
LINE
8
0
10
13.5184107
20
56.8392272
11
13.6482555
21
56.8224148
0
LINE
8
0
10
13.6482555
20
56.8224148
11
13.779713
21
56.7700026
0
LINE
8
0
10
13.779713
20
56.7700026
11
13.9138914
21
56.6782177
0
LINE
8
0
10
13.9138914
20
56.6782177
11
14.3641439
21
56.3066811
0
LINE
8
0
10
14.3641439
20
56.3066811
11
14.5033886
21
56.1684213
0
LINE
8
0
10
14.5033886
20
56.1684213
11
14.7094505
21
55.8754093
0
LINE
8
0
10
14.7094505
20
55.8754093
11
15.0361558
21
55.3766863
0
LINE
8
0
10
15.0361558
20
55.3766863
11
15.0389445
21
55.3719245
0
LINE
8
0
10
15.0389445
20
55.3719245
11
15.1574643
21
55.1440577
0
LINE
8
0
10
15.1574643
20
55.1440577
11
15.2630932
21
54.8921049
0
LINE
8
0
10
15.2630932
20
54.8921049
11
15.4858587
21
54.3158981
0
LINE
8
0
10
15.4858587
20
54.3158981
11
15.6710799
21
53.6933367
0
LINE
8
0
10
15.6710799
20
53.6933367
11
15.7936351
21
53.1075964
0
LINE
8
0
10
15.7936351
20
53.1075964
11
15.9181879
21
52.3610387
0
LINE
8
0
10
15.9181879
20
52.3610387
11
15.9430514
21
52.0330991
0
LINE
8
0
10
15.9430514
20
52.0330991
11
16
21
50.9762017
0
LINE
8
0
10
16
20
50.9762017
11
16
21
49.4104154
0
LINE
8
0
10
16
20
49.4104154
11
16
21
48.1351675
0
LINE
8
0
10
16
20
48.1351675
11
16
21
46.9761952
0
LINE
8
0
10
16
20
46.9761952
11
16
21
46.9761952
0
LINE
8
0
10
16
20
38.3159374
11
16
21
34.4686648
0
LINE
8
0
10
16
20
34.4686648
11
16
21
27.9236352
0
LINE
8
0
10
16
20
27.9236352
11
16
21
27.5404646
0
LINE
8
0
10
16
20
27.5404646
11
15.3982718
21
27.5404646
0
LINE
8
0
10
15.3982718
20
27.5404646
11
2.4
21
27.5404646
0
LINE
8
0
10
2.4
20
27.5404646
11
2.4
21
27.7107629
0
LINE
8
0
10
2.4
20
27.7107629
11
2.4
21
27.9236352
0
LINE
8
0
10
2.4
20
27.9236352
11
2.4
21
31.850653
0
LINE
8
0
10
2.4
20
31.850653
11
2.4
21
34.4686648
0
LINE
8
0
10
2.4
20
34.4686648
11
2.4
21
36.2174251
0
LINE
8
0
10
2.4
20
36.2174251
11
2.4
21
38.3159374
0
LINE
8
0
10
2.4
20
38.3159374
11
8.4417282
21
38.3159374
0
LINE
8
0
10
8.4417282
20
38.3159374
11
16
21
38.3159374
0
LINE
8
0
10
16
20
38.3159374
11
16
21
38.3159374
0
LINE
8
0
10
48.844828
20
-4.46143379
11
48.84998
21
-4.502994
0
LINE
8
0
10
48.84998
20
-4.502994
11
48.8290321
21
-4.65459963
0
LINE
8
0
10
48.8290321
20
-4.65459963
11
48.8233
21
-4.696084
0
LINE
8
0
10
48.8233
20
-4.696084
11
48.7639972
21
-4.83717091
0
LINE
8
0
10
48.7639972
20
-4.83717091
11
48.74777
21
-4.875777
0
LINE
8
0
10
48.74777
20
-4.875777
11
48.6541088
21
-4.99681575
0
LINE
8
0
10
48.6541088
20
-4.99681575
11
48.62848
21
-5.029936
0
LINE
8
0
10
48.62848
20
-5.029936
11
48.5067888
21
-5.12275078
0
LINE
8
0
10
48.5067888
20
-5.12275078
11
48.47349
21
-5.148148
0
LINE
8
0
10
48.47349
20
-5.148148
11
48.3319893
21
-5.20646933
0
LINE
8
0
10
48.3319893
20
-5.20646933
11
48.29327
21
-5.222428
0
LINE
8
0
10
48.29327
20
-5.222428
11
48.141523
21
-5.24231598
0
LINE
8
0
10
48.141523
20
-5.24231598
11
48.1
21
-5.247758
0
LINE
8
0
10
48.1
20
-5.247758
11
47.948253
21
-5.22787002
0
LINE
8
0
10
47.948253
20
-5.22787002
11
47.90673
21
-5.222428
0
LINE
8
0
10
47.90673
20
-5.222428
11
47.7652293
21
-5.16410667
0
LINE
8
0
10
47.7652293
20
-5.16410667
11
47.72651
21
-5.148148
0
LINE
8
0
10
47.72651
20
-5.148148
11
47.6048188
21
-5.05533322
0
LINE
8
0
10
47.6048188
20
-5.05533322
11
47.57152
21
-5.029936
0
LINE
8
0
10
47.57152
20
-5.029936
11
47.4778588
21
-4.90889725
0
LINE
8
0
10
47.4778588
20
-4.90889725
11
47.45223
21
-4.875777
0
LINE
8
0
10
47.45223
20
-4.875777
11
47.3929272
21
-4.73469009
0
LINE
8
0
10
47.3929272
20
-4.73469009
11
47.3767
21
-4.696084
0
LINE
8
0
10
47.3767
20
-4.696084
11
47.3557521
21
-4.54447837
0
LINE
8
0
10
47.3557521
20
-4.54447837
11
47.35002
21
-4.502994
0
LINE
8
0
10
47.35002
20
-4.502994
11
47.368848
21
-4.35111121
0
LINE
8
0
10
47.368848
20
-4.35111121
11
47.374
21
-4.309551
0
LINE
8
0
10
47.374
20
-4.309551
11
47.431332
21
-4.1676491
0
LINE
8
0
10
47.431332
20
-4.1676491
11
47.44702
21
-4.12882
0
LINE
8
0
10
47.44702
20
-4.12882
11
47.4721848
21
-4.09534526
0
LINE
8
0
10
47.4721848
20
-4.09534526
11
47.56415
21
-3.973011
0
LINE
8
0
10
47.56415
20
-3.973011
11
47.8896373
21
-3.64063131
0
LINE
8
0
10
47.8896373
20
-3.64063131
11
48.1
21
-3.425814
0
LINE
8
0
10
48.1
20
-3.425814
11
48.4254873
21
-3.75819369
0
LINE
8
0
10
48.4254873
20
-3.75819369
11
48.63585
21
-3.973011
0
LINE
8
0
10
48.63585
20
-3.973011
11
48.7278152
21
-4.09534526
0
LINE
8
0
10
48.7278152
20
-4.09534526
11
48.75298
21
-4.12882
0
LINE
8
0
10
48.75298
20
-4.12882
11
48.810312
21
-4.2707219
0
LINE
8
0
10
48.810312
20
-4.2707219
11
48.826
21
-4.309551
0
LINE
8
0
10
48.826
20
-4.309551
11
48.844828
21
-4.46143379
0
LINE
8
0
10
48.844828
20
-4.46143379
11
48.844828
21
-4.46143379
0
ENDSEC
0
EOF
