0
SECTION
2
ENTITIES
0
LINE
8
0
10
12.456955
20
43.9244831
11
16
21
43.9244831
0
LINE
8
0
10
16
20
43.9244831
11
16
21
46.1806356
0
LINE
8
0
10
16
20
46.1806356
11
16
21
47.938149
0
LINE
8
0
10
16
20
47.938149
11
16
21
48.9447312
0
LINE
8
0
10
16
20
48.9447312
11
16
21
50.180642
0
LINE
8
0
10
16
20
50.180642
11
15.9405377
21
51.2841902
0
LINE
8
0
10
15.9405377
20
51.2841902
11
15.9209124
21
51.5430404
0
LINE
8
0
10
15.9209124
20
51.5430404
11
15.7797314
21
52.3892657
0
LINE
8
0
10
15.7797314
20
52.3892657
11
15.6829958
21
52.8516039
0
LINE
8
0
10
15.6829958
20
52.8516039
11
15.4675406
21
53.5757872
0
LINE
8
0
10
15.4675406
20
53.5757872
11
15.2917067
21
54.0306004
0
LINE
8
0
10
15.2917067
20
54.0306004
11
15.1647591
21
54.3334038
0
LINE
8
0
10
15.1647591
20
54.3334038
11
15.022319
21
54.60726
0
LINE
8
0
10
15.022319
20
54.60726
11
15.0189674
21
54.6129828
0
LINE
8
0
10
15.0189674
20
54.6129828
11
14.7610918
21
55.0066357
0
LINE
8
0
10
14.7610918
20
55.0066357
11
14.504224
21
55.3718918
0
LINE
8
0
10
14.504224
20
55.3718918
11
14.3306478
21
55.5442404
0
LINE
8
0
10
14.3306478
20
55.5442404
11
13.9525104
21
55.8562694
0
LINE
8
0
10
13.9525104
20
55.8562694
11
13.7799085
21
55.974338
0
LINE
8
0
10
13.7799085
20
55.974338
11
13.6108068
21
56.0417589
0
LINE
8
0
10
13.6108068
20
56.0417589
11
13.4437795
21
56.0633857
0
LINE
8
0
10
13.4437795
20
56.0633857
11
13.1690991
21
56.1425344
0
LINE
8
0
10
13.1690991
20
56.1425344
11
13
21
56.1806367
0
LINE
8
0
10
13
20
56.1806367
11
6.59317929
21
56.1806367
0
LINE
8
0
10
6.59317929
20
56.1806367
11
4.4
21
56.1806367
0
LINE
8
0
10
4.4
20
56.1806367
11
4.13886097
21
56.1118824
0
LINE
8
0
10
4.13886097
20
56.1118824
11
3.882362
21
56.0443454
0
LINE
8
0
10
3.882362
20
56.0443454
11
3.63263942
21
55.837471
0
LINE
8
0
10
3.63263942
20
55.837471
11
3.4
21
55.6447485
0
LINE
8
0
10
3.4
20
55.6447485
11
3.16713342
21
55.2873833
0
LINE
8
0
10
3.16713342
20
55.2873833
11
2.985786
21
55.009074
0
LINE
8
0
10
2.985786
20
55.009074
11
2.78660581
21
54.4899181
0
LINE
8
0
10
2.78660581
20
54.4899181
11
2.667949
21
54.1806434
0
LINE
8
0
10
2.667949
20
54.1806434
11
2.52672524
21
53.4987537
0
LINE
8
0
10
2.52672524
20
53.4987537
11
2.468148
21
53.2159174
0
LINE
8
0
10
2.468148
20
53.2159174
11
2.41387762
21
52.391461
0
LINE
8
0
10
2.41387762
20
52.391461
11
2.4
21
52.1806388
0
LINE
8
0
10
2.4
20
52.1806388
11
2.4
21
50.9439957
0
LINE
8
0
10
2.4
20
50.9439957
11
2.4
21
49.6272339
0
LINE
8
0
10
2.4
20
49.6272339
11
2.4
21
49.0616794
0
LINE
8
0
10
2.4
20
49.0616794
11
2.4
21
48.7200014
0
LINE
8
0
10
2.4
20
48.7200014
11
2.4
21
46.1806356
0
LINE
8
0
10
2.4
20
46.1806356
11
2.4
21
44.9272175
0
LINE
8
0
10
2.4
20
44.9272175
11
2.4
21
43.9244831
0
LINE
8
0
10
2.4
20
43.9244831
11
12.456955
21
43.9244831
0
LINE
8
0
10
12.456955
20
43.9244831
11
12.456955
21
43.9244831
0
LINE
8
0
10
16
20
35.2642244
11
16
21
37.5203769
0
LINE
8
0
10
16
20
37.5203769
11
5.94304497
21
37.5203769
0
LINE
8
0
10
5.94304497
20
37.5203769
11
2.4
21
37.5203769
0
LINE
8
0
10
2.4
20
37.5203769
11
2.4
21
36.2897483
0
LINE
8
0
10
2.4
20
36.2897483
11
2.4
21
35.2642244
0
LINE
8
0
10
2.4
20
35.2642244
11
2.4
21
32.0097649
0
LINE
8
0
10
2.4
20
32.0097649
11
2.4
21
28.3360244
0
LINE
8
0
10
2.4
20
28.3360244
11
2.4
21
27.7971053
0
LINE
8
0
10
2.4
20
27.7971053
11
2.4
21
27.1280749
0
LINE
8
0
10
2.4
20
27.1280749
11
4.29695503
21
27.1280749
0
LINE
8
0
10
4.29695503
20
27.1280749
11
16
21
27.1280749
0
LINE
8
0
10
16
20
27.1280749
11
16
21
28.3360244
0
LINE
8
0
10
16
20
28.3360244
11
16
21
30.7519222
0
LINE
8
0
10
16
20
30.7519222
11
16
21
35.2642244
0
LINE
8
0
10
16
20
35.2642244
11
16
21
35.2642244
0
LINE
8
0
10
16
20
19.4570213
11
16
21
18.2693704
0
LINE
8
0
10
16
20
18.2693704
11
16
21
17.7498776
0
LINE
8
0
10
16
20
17.7498776
11
16
21
17.6044911
0
LINE
8
0
10
16
20
17.6044911
11
26.1505044
21
17.6044886
0
LINE
8
0
10
26.1505044
20
17.6044886
11
33.1618259
21
17.6044876
0
LINE
8
0
10
33.1618259
20
17.6044876
11
38
21
17.6044885
0
LINE
8
0
10
38
20
17.6044885
11
38
21
18.4032349
0
LINE
8
0
10
38
20
18.4032349
11
42.4731791
21
18.4032349
0
LINE
8
0
10
42.4731791
20
18.4032349
11
58.1
21
18.4032349
0
LINE
8
0
10
58.1
20
18.4032349
11
58.8164548
21
17.6044895
0
LINE
8
0
10
58.8164548
20
17.6044895
11
66.6247304
21
17.6044868
0
LINE
8
0
10
66.6247304
20
17.6044868
11
71.6555294
21
17.6044853
0
LINE
8
0
10
71.6555294
20
17.6044853
11
71.6448299
21
14.5745149
0
LINE
8
0
10
71.6448299
20
14.5745149
11
71.6499887
21
9.16888818
0
LINE
8
0
10
71.6499887
20
9.16888818
11
71.658226
21
-13.5
0
LINE
8
0
10
71.658226
20
-13.5
11
71.5776891
21
-14.0969322
0
LINE
8
0
10
71.5776891
20
-14.0969322
11
71.5693691
21
-14.14705
0
LINE
8
0
10
71.5693691
20
-14.14705
11
71.5568428
21
-14.1767408
0
LINE
8
0
10
71.5568428
20
-14.1767408
11
71.3166885
21
-14.745971
0
LINE
8
0
10
71.3166885
20
-14.745971
11
71.315251
21
-14.7493767
0
LINE
8
0
10
71.315251
20
-14.7493767
11
71.3148572
21
-14.7501206
0
LINE
8
0
10
71.3148572
20
-14.7501206
11
71.0064181
21
-15.1367514
0
LINE
8
0
10
71.0064181
20
-15.1367514
11
70.9134494
21
-15.2491972
0
LINE
8
0
10
70.9134494
20
-15.2491972
11
70.7593927
21
-15.3719241
0
LINE
8
0
10
70.7593927
20
-15.3719241
11
70.4702816
21
-15.5847702
0
LINE
8
0
10
70.4702816
20
-15.5847702
11
70.1587751
21
-15.74287
0
LINE
8
0
10
70.1587751
20
-15.74287
11
70.0383784
21
-15.790443
0
LINE
8
0
10
70.0383784
20
-15.790443
11
69.7552942
21
-15.872017
0
LINE
8
0
10
69.7552942
20
-15.872017
11
69.6450936
21
-15.9012816
0
LINE
8
0
10
69.6450936
20
-15.9012816
11
69.5944867
21
-15.9079765
0
LINE
8
0
10
69.5944867
20
-15.9079765
11
69.2009909
21
-15.9367239
0
LINE
8
0
10
69.2009909
20
-15.9367239
11
62.4267729
21
-15.9388288
0
LINE
8
0
10
62.4267729
20
-15.9388288
11
46.8986406
21
-15.9328072
0
LINE
8
0
10
46.8986406
20
-15.9328072
11
46.8463205
21
-15.9330037
0
LINE
8
0
10
46.8463205
20
-15.9330037
11
46.6544784
21
-15.9335689
0
LINE
8
0
10
46.6544784
20
-15.9335689
11
46.3262935
21
-15.9344298
0
LINE
8
0
10
46.3262935
20
-15.9344298
11
45.8587255
21
-15.9355029
0
LINE
8
0
10
45.8587255
20
-15.9355029
11
44.3857568
21
-15.9381033
0
LINE
8
0
10
44.3857568
20
-15.9381033
11
41.7404645
21
-15.941083
0
LINE
8
0
10
41.7404645
20
-15.941083
11
37.3292926
21
-15.9382157
0
LINE
8
0
10
37.3292926
20
-15.9382157
11
37.2899498
21
-15.9566084
0
LINE
8
0
10
37.2899498
20
-15.9566084
11
37.2861973
21
-15.9581628
0
LINE
8
0
10
37.2861973
20
-15.9581628
11
37.1936303
21
-15.9810412
0
LINE
8
0
10
37.1936303
20
-15.9810412
11
37.0992716
21
-15.9948529
0
LINE
8
0
10
37.0992716
20
-15.9948529
11
37.0952447
21
-15.995383
0
LINE
8
0
10
37.0952447
20
-15.995383
11
37
21
-16
0
LINE
8
0
10
37
20
-16
11
32.7669037
21
-16
0
LINE
8
0
10
32.7669037
20
-16
11
32.4090466
21
-16
0
LINE
8
0
10
32.4090466
20
-16
11
24.4714424
21
-16
0
LINE
8
0
10
24.4714424
20
-16
11
7.98048819
21
-16
0
LINE
8
0
10
7.98048819
20
-16
11
4.4
21
-16
0
LINE
8
0
10
4.4
20
-16
11
4.36356638
21
-15.9964219
0
LINE
8
0
10
4.36356638
20
-15.9964219
11
4.32432564
21
-15.990037
0
LINE
8
0
10
4.32432564
20
-15.990037
11
4.22756031
21
-15.9772973
0
LINE
8
0
10
4.22756031
20
-15.9772973
11
4.001492
21
-15.9575026
0
LINE
8
0
10
4.001492
20
-15.9575026
11
3.78905571
21
-15.9027525
0
LINE
8
0
10
3.78905571
20
-15.9027525
11
3.60367752
21
-15.8260702
0
LINE
8
0
10
3.60367752
20
-15.8260702
11
3.40210764
21
-15.7331201
0
LINE
8
0
10
3.40210764
20
-15.7331201
11
3.22935317
21
-15.611063
0
LINE
8
0
10
3.22935317
20
-15.611063
11
3.05101819
21
-15.474351
0
LINE
8
0
10
3.05101819
20
-15.474351
11
2.90337121
21
-15.3219687
0
LINE
8
0
10
2.90337121
20
-15.3219687
11
2.76166937
21
-15.1373007
0
LINE
8
0
10
2.76166937
20
-15.1373007
11
2.63777913
21
-14.9437835
0
LINE
8
0
10
2.63777913
20
-14.9437835
11
2.54578217
21
-14.7216843
0
LINE
8
0
10
2.54578217
20
-14.7216843
11
2.46179091
21
-14.4917245
0
LINE
8
0
10
2.46179091
20
-14.4917245
11
2.43996782
21
-14.3702947
0
LINE
8
0
10
2.43996782
20
-14.3702947
11
2.41213024
21
-14.1992573
0
LINE
8
0
10
2.41213024
20
-14.1992573
11
2.4
21
-14
0
LINE
8
0
10
2.4
20
-14
11
2.4
21
-13.9930525
0
LINE
8
0
10
2.4
20
-13.9930525
11
2.4
21
-12.0734354
0
LINE
8
0
10
2.4
20
-12.0734354
11
2.4
21
-11.6531929
0
LINE
8
0
10
2.4
20
-11.6531929
11
2.4
21
-11.5288648
0
LINE
8
0
10
2.4
20
-11.5288648
11
2.4
21
-1.73667079
0
LINE
8
0
10
2.4
20
-1.73667079
11
2.4
21
4
0
LINE
8
0
10
2.4
20
4
11
8.16829615
21
4
0
LINE
8
0
10
8.16829615
20
4
11
16
21
4
0
LINE
8
0
10
16
20
4
11
16
21
4.14195033
0
LINE
8
0
10
16
20
4.14195033
11
16
21
4.349365
0
LINE
8
0
10
16
20
4.349365
11
16
21
8.07551728
0
LINE
8
0
10
16
20
8.07551728
11
4.29695503
21
8.07551728
0
LINE
8
0
10
4.29695503
20
8.07551728
11
2.4
21
8.07551728
0
LINE
8
0
10
2.4
20
8.07551728
11
2.4
21
8.81013143
0
LINE
8
0
10
2.4
20
8.81013143
11
2.4
21
8.84305451
0
LINE
8
0
10
2.4
20
8.84305451
11
2.4
21
8.89277975
0
LINE
8
0
10
2.4
20
8.89277975
11
2.4
21
8.95854546
0
LINE
8
0
10
2.4
20
8.95854546
11
2.4
21
9.03425084
0
LINE
8
0
10
2.4
20
9.03425084
11
2.4
21
12.6994554
0
LINE
8
0
10
2.4
20
12.6994554
11
2.4
21
12.9733947
0
LINE
8
0
10
2.4
20
12.9733947
11
2.4
21
13.2745092
0
LINE
8
0
10
2.4
20
13.2745092
11
2.4
21
13.5645061
0
LINE
8
0
10
2.4
20
13.5645061
11
2.4
21
13.8100049
0
LINE
8
0
10
2.4
20
13.8100049
11
2.4
21
18.5288235
0
LINE
8
0
10
2.4
20
18.5288235
11
2.4
21
19.6757737
0
LINE
8
0
10
2.4
20
19.6757737
11
14.103045
21
19.6757737
0
LINE
8
0
10
14.103045
20
19.6757737
11
16
21
19.6757737
0
LINE
8
0
10
16
20
19.6757737
11
16
21
19.4570213
0
LINE
8
0
10
16
20
19.4570213
11
16
21
19.4570213
0
LINE
8
0
10
48.7501203
20
-4.87018531
11
48.74777
21
-4.875777
0
LINE
8
0
10
48.74777
20
-4.875777
11
48.6321921
21
-5.02513888
0
LINE
8
0
10
48.6321921
20
-5.02513888
11
48.62848
21
-5.029936
0
LINE
8
0
10
48.62848
20
-5.029936
11
48.478313
21
-5.14446948
0
LINE
8
0
10
48.478313
20
-5.14446948
11
48.47349
21
-5.148148
0
LINE
8
0
10
48.47349
20
-5.148148
11
48.2988781
21
-5.22011655
0
LINE
8
0
10
48.2988781
20
-5.22011655
11
48.29327
21
-5.222428
0
LINE
8
0
10
48.29327
20
-5.222428
11
48.1060142
21
-5.24696978
0
LINE
8
0
10
48.1060142
20
-5.24696978
11
48.1
21
-5.247758
0
LINE
8
0
10
48.1
20
-5.247758
11
47.9127442
21
-5.22321622
0
LINE
8
0
10
47.9127442
20
-5.22321622
11
47.90673
21
-5.222428
0
LINE
8
0
10
47.90673
20
-5.222428
11
47.7321181
21
-5.15045945
0
LINE
8
0
10
47.7321181
20
-5.15045945
11
47.72651
21
-5.148148
0
LINE
8
0
10
47.72651
20
-5.148148
11
47.576343
21
-5.03361452
0
LINE
8
0
10
47.576343
20
-5.03361452
11
47.57152
21
-5.029936
0
LINE
8
0
10
47.57152
20
-5.029936
11
47.4559421
21
-4.88057412
0
LINE
8
0
10
47.4559421
20
-4.88057412
11
47.45223
21
-4.875777
0
LINE
8
0
10
47.45223
20
-4.875777
11
47.3790503
21
-4.70167569
0
LINE
8
0
10
47.3790503
20
-4.70167569
11
47.3767
21
-4.696084
0
LINE
8
0
10
47.3767
20
-4.696084
11
47.3508502
21
-4.50900258
0
LINE
8
0
10
47.3508502
20
-4.50900258
11
47.35002
21
-4.502994
0
LINE
8
0
10
47.35002
20
-4.502994
11
47.3732538
21
-4.31557056
0
LINE
8
0
10
47.3732538
20
-4.31557056
11
47.374
21
-4.309551
0
LINE
8
0
10
47.374
20
-4.309551
11
47.4447478
21
-4.13444399
0
LINE
8
0
10
47.4447478
20
-4.13444399
11
47.44702
21
-4.12882
0
LINE
8
0
10
47.44702
20
-4.12882
11
47.4506649
21
-4.12397153
0
LINE
8
0
10
47.4506649
20
-4.12397153
11
47.56415
21
-3.973011
0
LINE
8
0
10
47.56415
20
-3.973011
11
47.8404123
21
-3.69089866
0
LINE
8
0
10
47.8404123
20
-3.69089866
11
48.1
21
-3.425814
0
LINE
8
0
10
48.1
20
-3.425814
11
48.3762623
21
-3.70792634
0
LINE
8
0
10
48.3762623
20
-3.70792634
11
48.63585
21
-3.973011
0
LINE
8
0
10
48.63585
20
-3.973011
11
48.7493351
21
-4.12397153
0
LINE
8
0
10
48.7493351
20
-4.12397153
11
48.75298
21
-4.12882
0
LINE
8
0
10
48.75298
20
-4.12882
11
48.8237278
21
-4.30392701
0
LINE
8
0
10
48.8237278
20
-4.30392701
11
48.826
21
-4.309551
0
LINE
8
0
10
48.826
20
-4.309551
11
48.8492338
21
-4.49697444
0
LINE
8
0
10
48.8492338
20
-4.49697444
11
48.84998
21
-4.502994
0
LINE
8
0
10
48.84998
20
-4.502994
11
48.8241302
21
-4.69007542
0
LINE
8
0
10
48.8241302
20
-4.69007542
11
48.8233
21
-4.696084
0
LINE
8
0
10
48.8233
20
-4.696084
11
48.7501203
21
-4.87018531
0
LINE
8
0
10
48.7501203
20
-4.87018531
11
48.7501203
21
-4.87018531
0
ENDSEC
0
EOF
