0
SECTION
2
ENTITIES
0
LINE
8
0
10
16
20
49.3850823
11
16
21
48.479047
0
LINE
8
0
10
16
20
48.479047
11
16
21
47.7411305
0
LINE
8
0
10
16
20
47.7411305
11
16
21
45.3850759
0
LINE
8
0
10
16
20
45.3850759
11
16
21
44.7200437
0
LINE
8
0
10
16
20
44.7200437
11
14.9556383
21
44.7200437
0
LINE
8
0
10
14.9556383
20
44.7200437
11
2.4
21
44.7200437
0
LINE
8
0
10
2.4
20
44.7200437
11
2.4
21
45.0156136
0
LINE
8
0
10
2.4
20
45.0156136
11
2.4
21
45.3850759
0
LINE
8
0
10
2.4
20
45.3850759
11
2.4
21
48.7892517
0
LINE
8
0
10
2.4
20
48.7892517
11
2.4
21
49.2472919
0
LINE
8
0
10
2.4
20
49.2472919
11
2.4
21
50.0054524
0
LINE
8
0
10
2.4
20
50.0054524
11
2.4
21
50.7169101
0
LINE
8
0
10
2.4
20
50.7169101
11
2.4
21
51.385079
0
LINE
8
0
10
2.4
20
51.385079
11
2.40749819
21
51.4989881
0
LINE
8
0
10
2.40749819
20
51.4989881
11
2.468148
21
52.4203583
0
LINE
8
0
10
2.468148
20
52.4203583
11
2.50813735
21
52.6134443
0
LINE
8
0
10
2.50813735
20
52.6134443
11
2.667949
21
53.3850844
0
LINE
8
0
10
2.667949
20
53.3850844
11
2.75738609
21
53.6181989
0
LINE
8
0
10
2.75738609
20
53.6181989
11
2.985786
21
54.2135149
0
LINE
8
0
10
2.985786
20
54.2135149
11
3.12967912
21
54.4343441
0
LINE
8
0
10
3.12967912
20
54.4343441
11
3.4
21
54.8491879
0
LINE
8
0
10
3.4
20
54.8491879
11
3.58988341
21
55.0064906
0
LINE
8
0
10
3.58988341
20
55.0064906
11
3.882362
21
55.2487849
0
LINE
8
0
10
3.882362
20
55.2487849
11
4.1827772
21
55.3278852
0
LINE
8
0
10
4.1827772
20
55.3278852
11
4.4
21
55.3850769
0
LINE
8
0
10
4.4
20
55.3850769
11
6.22434834
21
55.3850769
0
LINE
8
0
10
6.22434834
20
55.3850769
11
13
21
55.3850769
0
LINE
8
0
10
13
20
55.3850769
11
13.1406614
21
55.3533823
0
LINE
8
0
10
13.1406614
20
55.3533823
11
13.3691483
21
55.2875442
0
LINE
8
0
10
13.3691483
20
55.2875442
11
13.573358
21
55.261103
0
LINE
8
0
10
13.573358
20
55.261103
11
13.7801041
21
55.1786733
0
LINE
8
0
10
13.7801041
20
55.1786733
11
13.9911295
21
55.0343211
0
LINE
8
0
10
13.9911295
20
55.0343211
11
14.2971516
21
54.7817997
0
LINE
8
0
10
14.2971516
20
54.7817997
11
14.5050595
21
54.5753623
0
LINE
8
0
10
14.5050595
20
54.5753623
11
14.8127331
21
54.1378622
0
LINE
8
0
10
14.8127331
20
54.1378622
11
15.0017791
21
53.8492793
0
LINE
8
0
10
15.0017791
20
53.8492793
11
15.0056935
21
53.8425955
0
LINE
8
0
10
15.0056935
20
53.8425955
11
15.172054
21
53.5227499
0
LINE
8
0
10
15.172054
20
53.5227499
11
15.3203202
21
53.169096
0
LINE
8
0
10
15.3203202
20
53.169096
11
15.4492225
21
52.8356764
0
LINE
8
0
10
15.4492225
20
52.8356764
11
15.6949118
21
52.0098711
0
LINE
8
0
10
15.6949118
20
52.0098711
11
15.7658278
21
51.6709351
0
LINE
8
0
10
15.7658278
20
51.6709351
11
15.9236369
21
50.7250421
0
LINE
8
0
10
15.9236369
20
50.7250421
11
15.9380241
21
50.5352813
0
LINE
8
0
10
15.9380241
20
50.5352813
11
16
21
49.3850823
0
LINE
8
0
10
16
20
49.3850823
11
16
21
49.3850823
0
LINE
8
0
10
16
20
26.3325143
11
16
21
29.1315841
0
LINE
8
0
10
16
20
29.1315841
11
16
21
34.7297203
0
LINE
8
0
10
16
20
34.7297203
11
16
21
36.0597841
0
LINE
8
0
10
16
20
36.0597841
11
16
21
36.7248163
0
LINE
8
0
10
16
20
36.7248163
11
3.44436174
21
36.7248163
0
LINE
8
0
10
3.44436174
20
36.7248163
11
2.4
21
36.7248163
0
LINE
8
0
10
2.4
20
36.7248163
11
2.4
21
36.3620715
0
LINE
8
0
10
2.4
20
36.3620715
11
2.4
21
36.0597841
0
LINE
8
0
10
2.4
20
36.0597841
11
2.4
21
32.1688768
0
LINE
8
0
10
2.4
20
32.1688768
11
2.4
21
29.1315841
0
LINE
8
0
10
2.4
20
29.1315841
11
2.4
21
27.8827966
0
LINE
8
0
10
2.4
20
27.8827966
11
2.4
21
26.3325143
0
LINE
8
0
10
2.4
20
26.3325143
11
6.79563826
21
26.3325143
0
LINE
8
0
10
6.79563826
20
26.3325143
11
16
21
26.3325143
0
LINE
8
0
10
16
20
26.3325143
11
16
21
26.3325143
0
LINE
8
0
10
16
20
18.3941913
11
16
21
18.8720255
0
LINE
8
0
10
16
20
18.8720255
11
16
21
19.9644376
0
LINE
8
0
10
16
20
19.9644376
11
16
21
20.4713324
0
LINE
8
0
10
16
20
20.4713324
11
11.6043617
21
20.4713324
0
LINE
8
0
10
11.6043617
20
20.4713324
11
2.4
21
20.4713324
0
LINE
8
0
10
2.4
20
20.4713324
11
2.4
21
17.8136109
0
LINE
8
0
10
2.4
20
17.8136109
11
2.4
21
13.8010022
0
LINE
8
0
10
2.4
20
13.8010022
11
2.4
21
13.5218302
0
LINE
8
0
10
2.4
20
13.5218302
11
2.4
21
13.1920566
0
LINE
8
0
10
2.4
20
13.1920566
11
2.4
21
12.8496404
0
LINE
8
0
10
2.4
20
12.8496404
11
2.4
21
12.538127
0
LINE
8
0
10
2.4
20
12.538127
11
2.4
21
9.50154182
0
LINE
8
0
10
2.4
20
9.50154182
11
2.4
21
9.32611675
0
LINE
8
0
10
2.4
20
9.32611675
11
2.4
21
9.17372395
0
LINE
8
0
10
2.4
20
9.17372395
11
2.4
21
9.05850027
0
LINE
8
0
10
2.4
20
9.05850027
11
2.4
21
8.98221065
0
LINE
8
0
10
2.4
20
8.98221065
11
2.4
21
7.2799573
0
LINE
8
0
10
2.4
20
7.2799573
11
6.79563826
21
7.2799573
0
LINE
8
0
10
6.79563826
20
7.2799573
11
16
21
7.2799573
0
LINE
8
0
10
16
20
7.2799573
11
16
21
4.349365
0
LINE
8
0
10
16
20
4.349365
11
16
21
4.1085074
0
LINE
8
0
10
16
20
4.1085074
11
16
21
4
0
LINE
8
0
10
16
20
4
11
6.80930872
21
4
0
LINE
8
0
10
6.80930872
20
4
11
2.4
21
4
0
LINE
8
0
10
2.4
20
4
11
2.4
21
-2.73212002
0
LINE
8
0
10
2.4
20
-2.73212002
11
2.4
21
-11.6956683
0
LINE
8
0
10
2.4
20
-11.6956683
11
2.4
21
-11.8094754
0
LINE
8
0
10
2.4
20
-11.8094754
11
2.4
21
-12.2379987
0
LINE
8
0
10
2.4
20
-12.2379987
11
2.4
21
-13.9936459
0
LINE
8
0
10
2.4
20
-13.9936459
11
2.4
21
-14
0
LINE
8
0
10
2.4
20
-14
11
2.41232686
21
-14.202487
0
LINE
8
0
10
2.41232686
20
-14.202487
11
2.43775939
21
-14.3587475
0
LINE
8
0
10
2.43775939
20
-14.3587475
11
2.46129272
21
-14.4896936
0
LINE
8
0
10
2.46129272
20
-14.4896936
11
2.55186622
21
-14.7376749
0
LINE
8
0
10
2.55186622
20
-14.7376749
11
2.63541477
21
-14.939378
0
LINE
8
0
10
2.63541477
20
-14.939378
11
2.76901408
21
-15.1480607
0
LINE
8
0
10
2.76901408
20
-15.1480607
11
2.89691251
21
-15.3147399
0
LINE
8
0
10
2.89691251
20
-15.3147399
11
3.05613032
21
-15.4790642
0
LINE
8
0
10
3.05613032
20
-15.4790642
11
3.21585283
21
-15.6015078
0
LINE
8
0
10
3.21585283
20
-15.6015078
11
3.40214578
21
-15.7331303
0
LINE
8
0
10
3.40214578
20
-15.7331303
11
3.61951234
21
-15.8333647
0
LINE
8
0
10
3.61951234
20
-15.8333647
11
3.78174346
21
-15.9004721
0
LINE
8
0
10
3.78174346
20
-15.9004721
11
4.01082801
21
-15.9595129
0
LINE
8
0
10
4.01082801
20
-15.9595129
11
4.2546129
21
-15.980859
0
LINE
8
0
10
4.2546129
20
-15.980859
11
4.33619754
21
-15.9916
0
LINE
8
0
10
4.33619754
20
-15.9916
11
4.36928214
21
-15.9969832
0
LINE
8
0
10
4.36928214
20
-15.9969832
11
4.4
21
-16
0
LINE
8
0
10
4.4
20
-16
11
7.41877596
21
-16
0
LINE
8
0
10
7.41877596
20
-16
11
25.4485876
21
-16
0
LINE
8
0
10
25.4485876
20
-16
11
32.4322654
21
-16
0
LINE
8
0
10
32.4322654
20
-16
11
32.7
21
-16
0
LINE
8
0
10
32.7
20
-16
11
32.7063699
21
-15.9993726
0
LINE
8
0
10
32.7063699
20
-15.9993726
11
32.7124679
21
-15.9983585
0
LINE
8
0
10
32.7124679
20
-15.9983585
11
32.7249357
21
-15.996717
0
LINE
8
0
10
32.7249357
20
-15.996717
11
33.0815217
21
-15.9624212
0
LINE
8
0
10
33.0815217
20
-15.9624212
11
34.8128988
21
-15.9675754
0
LINE
8
0
10
34.8128988
20
-15.9675754
11
44.0275035
21
-15.9675754
0
LINE
8
0
10
44.0275035
20
-15.9675754
11
54.0810772
21
-15.9627723
0
LINE
8
0
10
54.0810772
20
-15.9627723
11
58.5061251
21
-15.9568346
0
LINE
8
0
10
58.5061251
20
-15.9568346
11
58.6113475
21
-15.9878133
0
LINE
8
0
10
58.6113475
20
-15.9878133
11
58.6133387
21
-15.9882016
0
LINE
8
0
10
58.6133387
20
-15.9882016
11
58.6156315
21
-15.9886211
0
LINE
8
0
10
58.6156315
20
-15.9886211
11
58.67679
21
-15.99493
0
LINE
8
0
10
58.67679
20
-15.99493
11
58.7162483
21
-15.9973653
0
LINE
8
0
10
58.7162483
20
-15.9973653
11
62.0573148
21
-15.9965543
0
LINE
8
0
10
62.0573148
20
-15.9965543
11
69.222848
21
-15.9914437
0
LINE
8
0
10
69.222848
20
-15.9914437
11
69.3163485
21
-15.9808781
0
LINE
8
0
10
69.3163485
20
-15.9808781
11
69.6566103
21
-15.9415059
0
LINE
8
0
10
69.6566103
20
-15.9415059
11
69.8212124
21
-15.9203588
0
LINE
8
0
10
69.8212124
20
-15.9203588
11
69.8631291
21
-15.91481
0
LINE
8
0
10
69.8631291
20
-15.91481
11
70.370594
21
-15.7084354
0
LINE
8
0
10
70.370594
20
-15.7084354
11
70.4772519
21
-15.66506
0
LINE
8
0
10
70.4772519
20
-15.66506
11
70.8607855
21
-15.3761232
0
LINE
8
0
10
70.8607855
20
-15.3761232
11
71.0046101
21
-15.26777
0
LINE
8
0
10
71.0046101
20
-15.26777
11
71.2696864
21
-14.9285975
0
LINE
8
0
10
71.2696864
20
-14.9285975
11
71.4092694
21
-14.75
0
LINE
8
0
10
71.4092694
20
-14.75
11
71.5641525
21
-14.3828855
0
LINE
8
0
10
71.5641525
20
-14.3828855
11
71.6636492
21
-14.14705
0
LINE
8
0
10
71.6636492
20
-14.14705
11
71.7297352
21
-13.7489626
0
LINE
8
0
10
71.7297352
20
-13.7489626
11
71.7633248
21
-13.5
0
LINE
8
0
10
71.7633248
20
-13.5
11
71.7598893
21
-4.04548604
0
LINE
8
0
10
71.7598893
20
-4.04548604
11
71.7462478
21
10.2484161
0
LINE
8
0
10
71.7462478
20
10.2484161
11
71.7716833
21
17.4514319
0
LINE
8
0
10
71.7716833
20
17.4514319
11
71.7716833
21
18.2604571
0
LINE
8
0
10
71.7716833
20
18.2604571
11
71.571063
21
18.2604567
0
LINE
8
0
10
71.571063
20
18.2604567
11
66.8855865
21
18.2604582
0
LINE
8
0
10
66.8855865
20
18.2604582
11
58.1920211
21
18.2604612
0
LINE
8
0
10
58.1920211
20
18.2604612
11
58.1
21
18.3630517
0
LINE
8
0
10
58.1
20
18.3630517
11
38.5745329
21
18.3630517
0
LINE
8
0
10
38.5745329
20
18.3630517
11
38
21
18.3630517
0
LINE
8
0
10
38
20
18.3630517
11
38
21
18.2604611
0
LINE
8
0
10
38
20
18.2604611
11
32.2443749
21
18.26046
0
LINE
8
0
10
32.2443749
20
18.26046
11
26.7786596
21
18.2604608
0
LINE
8
0
10
26.7786596
20
18.2604608
11
16
21
18.2604634
0
LINE
8
0
10
16
20
18.2604634
11
16
21
18.3941913
0
LINE
8
0
10
16
20
18.3941913
11
16
21
18.3941913
0
LINE
8
0
10
48.84998
20
-4.502994
11
48.8296596
21
-4.33907208
0
LINE
8
0
10
48.8296596
20
-4.33907208
11
48.826
21
-4.309551
0
LINE
8
0
10
48.826
20
-4.309551
11
48.7641235
21
-4.15640112
0
LINE
8
0
10
48.7641235
20
-4.15640112
11
48.75298
21
-4.12882
0
LINE
8
0
10
48.75298
20
-4.12882
11
48.7351049
21
-4.10504219
0
LINE
8
0
10
48.7351049
20
-4.10504219
11
48.63585
21
-3.973011
0
LINE
8
0
10
48.63585
20
-3.973011
11
48.3270373
21
-3.65765899
0
LINE
8
0
10
48.3270373
20
-3.65765899
11
48.1
21
-3.425814
0
LINE
8
0
10
48.1
20
-3.425814
11
47.7911873
21
-3.74116601
0
LINE
8
0
10
47.7911873
20
-3.74116601
11
47.56415
21
-3.973011
0
LINE
8
0
10
47.56415
20
-3.973011
11
47.4648951
21
-4.10504219
0
LINE
8
0
10
47.4648951
20
-4.10504219
11
47.44702
21
-4.12882
0
LINE
8
0
10
47.44702
20
-4.12882
11
47.3851435
21
-4.28196988
0
LINE
8
0
10
47.3851435
20
-4.28196988
11
47.374
21
-4.309551
0
LINE
8
0
10
47.374
20
-4.309551
11
47.3536796
21
-4.47347292
0
LINE
8
0
10
47.3536796
20
-4.47347292
11
47.35002
21
-4.502994
0
LINE
8
0
10
47.35002
20
-4.502994
11
47.3726284
21
-4.66661679
0
LINE
8
0
10
47.3726284
20
-4.66661679
11
47.3767
21
-4.696084
0
LINE
8
0
10
47.3767
20
-4.696084
11
47.4407035
21
-4.84835429
0
LINE
8
0
10
47.4407035
20
-4.84835429
11
47.45223
21
-4.875777
0
LINE
8
0
10
47.45223
20
-4.875777
11
47.5533153
21
-5.00641
0
LINE
8
0
10
47.5533153
20
-5.00641
11
47.57152
21
-5.029936
0
LINE
8
0
10
47.57152
20
-5.029936
11
47.7028572
21
-5.13010782
0
LINE
8
0
10
47.7028572
20
-5.13010782
11
47.72651
21
-5.148148
0
LINE
8
0
10
47.72651
20
-5.148148
11
47.8792269
21
-5.21109223
0
LINE
8
0
10
47.8792269
20
-5.21109223
11
47.90673
21
-5.222428
0
LINE
8
0
10
47.90673
20
-5.222428
11
48.0705053
21
-5.24389242
0
LINE
8
0
10
48.0705053
20
-5.24389242
11
48.1
21
-5.247758
0
LINE
8
0
10
48.1
20
-5.247758
11
48.2637753
21
-5.22629358
0
LINE
8
0
10
48.2637753
20
-5.22629358
11
48.29327
21
-5.222428
0
LINE
8
0
10
48.29327
20
-5.222428
11
48.4459869
21
-5.15948377
0
LINE
8
0
10
48.4459869
20
-5.15948377
11
48.47349
21
-5.148148
0
LINE
8
0
10
48.47349
20
-5.148148
11
48.6048272
21
-5.04797618
0
LINE
8
0
10
48.6048272
20
-5.04797618
11
48.62848
21
-5.029936
0
LINE
8
0
10
48.62848
20
-5.029936
11
48.7295653
21
-4.899303
0
LINE
8
0
10
48.7295653
20
-4.899303
11
48.74777
21
-4.875777
0
LINE
8
0
10
48.74777
20
-4.875777
11
48.8117735
21
-4.72350671
0
LINE
8
0
10
48.8117735
20
-4.72350671
11
48.8233
21
-4.696084
0
LINE
8
0
10
48.8233
20
-4.696084
11
48.8459084
21
-4.53246121
0
LINE
8
0
10
48.8459084
20
-4.53246121
11
48.84998
21
-4.502994
0
LINE
8
0
10
48.84998
20
-4.502994
11
48.84998
21
-4.502994
0
ENDSEC
0
EOF
