0
SECTION
2
ENTITIES
0
LINE
8
0
10
16
20
58.8313876
11
16
21
60.1168117
0
LINE
8
0
10
16
20
60.1168117
11
16
21
61.5980715
0
LINE
8
0
10
16
20
61.5980715
11
16
21
63.2979452
0
LINE
8
0
10
16
20
63.2979452
11
15.9952071
21
63.3712652
0
LINE
8
0
10
15.9952071
20
63.3712652
11
15.93185
21
64.1704764
0
LINE
8
0
10
15.93185
20
64.1704764
11
15.9034408
21
64.288814
0
LINE
8
0
10
15.9034408
20
64.288814
11
15.8350017
21
64.5738913
0
LINE
8
0
10
15.8350017
20
64.5738913
11
15.7600375
21
64.8450615
0
LINE
8
0
10
15.7600375
20
64.8450615
11
15.73205
21
64.946302
0
LINE
8
0
10
15.73205
20
64.946302
11
15.5344255
21
65.3322024
0
LINE
8
0
10
15.5344255
20
65.3322024
11
15.41421
21
65.56695
0
LINE
8
0
10
15.41421
20
65.56695
11
15.23956
21
65.767746
0
LINE
8
0
10
15.23956
20
65.767746
11
15
21
66.0431719
0
LINE
8
0
10
15
20
66.0431719
11
14.8717644
21
66.1227619
0
LINE
8
0
10
14.8717644
20
66.1227619
11
14.51764
21
66.3425452
0
LINE
8
0
10
14.51764
20
66.3425452
11
14.4322228
21
66.3593947
0
LINE
8
0
10
14.4322228
20
66.3593947
11
14
21
66.4446589
0
LINE
8
0
10
14
20
66.4446589
11
12.7605067
21
66.4446589
0
LINE
8
0
10
12.7605067
20
66.4446589
11
4.4
21
66.4446589
0
LINE
8
0
10
4.4
20
66.4446589
11
4.32983027
21
66.4308171
0
LINE
8
0
10
4.32983027
20
66.4308171
11
3.882362
21
66.3425452
0
LINE
8
0
10
3.882362
20
66.3425452
11
3.78538899
21
66.2823589
0
LINE
8
0
10
3.78538899
20
66.2823589
11
3.4
21
66.0431719
0
LINE
8
0
10
3.4
20
66.0431719
11
3.23759664
21
65.8564574
0
LINE
8
0
10
3.23759664
20
65.8564574
11
2.985786
21
65.56695
0
LINE
8
0
10
2.985786
20
65.56695
11
2.74994319
21
65.106415
0
LINE
8
0
10
2.74994319
20
65.106415
11
2.667949
21
64.946302
0
LINE
8
0
10
2.667949
20
64.946302
11
2.56499674
21
64.5738913
0
LINE
8
0
10
2.56499674
20
64.5738913
11
2.468148
21
64.1704764
0
LINE
8
0
10
2.468148
20
64.1704764
11
2.40479276
21
63.3712652
0
LINE
8
0
10
2.40479276
20
63.3712652
11
2.4
21
63.2979452
0
LINE
8
0
10
2.4
20
63.2979452
11
2.4
21
61.8292461
0
LINE
8
0
10
2.4
20
61.8292461
11
2.4
21
61.7757873
0
LINE
8
0
10
2.4
20
61.7757873
11
2.4
21
60.3469366
0
LINE
8
0
10
2.4
20
60.3469366
11
2.4
21
59.0388473
0
LINE
8
0
10
2.4
20
59.0388473
11
2.4
21
58.9238956
0
LINE
8
0
10
2.4
20
58.9238956
11
2.4
21
57.6631053
0
LINE
8
0
10
2.4
20
57.6631053
11
2.4
21
57.5351147
0
LINE
8
0
10
2.4
20
57.5351147
11
2.4
21
56.2859657
0
LINE
8
0
10
2.4
20
56.2859657
11
2.4
21
56.1596308
0
LINE
8
0
10
2.4
20
56.1596308
11
2.4
21
56.0546502
0
LINE
8
0
10
2.4
20
56.0546502
11
2.4
21
55.9791805
0
LINE
8
0
10
2.4
20
55.9791805
11
2.4
21
54.9867756
0
LINE
8
0
10
2.4
20
54.9867756
11
2.4
21
53.9798711
0
LINE
8
0
10
2.4
20
53.9798711
11
2.4
21
52.0481417
0
LINE
8
0
10
2.4
20
52.0481417
11
2.4
21
49.1141419
0
LINE
8
0
10
2.4
20
49.1141419
11
2.4
21
40.3398463
0
LINE
8
0
10
2.4
20
40.3398463
11
2.4
21
27.8406172
0
LINE
8
0
10
2.4
20
27.8406172
11
8.18097988
21
27.8406172
0
LINE
8
0
10
8.18097988
20
27.8406172
11
16
21
27.8406172
0
LINE
8
0
10
16
20
27.8406172
11
16
21
40.3398463
0
LINE
8
0
10
16
20
40.3398463
11
16
21
49.1141419
0
LINE
8
0
10
16
20
49.1141419
11
16
21
52.0481417
0
LINE
8
0
10
16
20
52.0481417
11
16
21
55.9959545
0
LINE
8
0
10
16
20
55.9959545
11
16
21
56.2331185
0
LINE
8
0
10
16
20
56.2331185
11
16
21
56.4899615
0
LINE
8
0
10
16
20
56.4899615
11
16
21
57.6456897
0
LINE
8
0
10
16
20
57.6456897
11
16
21
58.8313876
0
LINE
8
0
10
16
20
58.8313876
11
16
21
58.8313876
0
LINE
8
0
10
16
20
-1.41810138
11
16
21
-2.57252032
0
LINE
8
0
10
16
20
-2.57252032
11
16
21
-3.78796273
0
LINE
8
0
10
16
20
-3.78796273
11
16
21
-5.15115834
0
LINE
8
0
10
16
20
-5.15115834
11
16
21
-6.79089417
0
LINE
8
0
10
16
20
-6.79089417
11
16
21
-8.54676194
0
LINE
8
0
10
16
20
-8.54676194
11
15.9872091
21
-8.73908091
0
LINE
8
0
10
15.9872091
20
-8.73908091
11
15.93185
21
-9.42141141
0
LINE
8
0
10
15.93185
20
-9.42141141
11
15.7500578
21
-10.1612793
0
LINE
8
0
10
15.7500578
20
-10.1612793
11
15.73205
21
-10.2250191
0
LINE
8
0
10
15.73205
20
-10.2250191
11
15.7189303
21
-10.2500866
0
LINE
8
0
10
15.7189303
20
-10.2500866
11
15.41421
21
-10.8323138
0
LINE
8
0
10
15.41421
20
-10.8323138
11
15.2538139
21
-11.0127633
0
LINE
8
0
10
15.2538139
20
-11.0127633
11
15
21
-11.2983163
0
LINE
8
0
10
15
20
-11.2983163
11
14.7166714
21
-11.4703822
0
LINE
8
0
10
14.7166714
20
-11.4703822
11
14.51764
21
-11.5912514
0
LINE
8
0
10
14.51764
20
-11.5912514
11
14.1715824
21
-11.6580443
0
LINE
8
0
10
14.1715824
20
-11.6580443
11
14
21
-11.6911628
0
LINE
8
0
10
14
20
-11.6911628
11
7.44010372
21
-11.6911628
0
LINE
8
0
10
7.44010372
20
-11.6911628
11
4.4
21
-11.6911628
0
LINE
8
0
10
4.4
20
-11.6911628
11
4.05991713
21
-11.625523
0
LINE
8
0
10
4.05991713
20
-11.625523
11
3.882362
21
-11.5912514
0
LINE
8
0
10
3.882362
20
-11.5912514
11
3.60555284
21
-11.423145
0
LINE
8
0
10
3.60555284
20
-11.423145
11
3.4
21
-11.2983163
0
LINE
8
0
10
3.4
20
-11.2983163
11
3.22006288
21
-11.0958856
0
LINE
8
0
10
3.22006288
20
-11.0958856
11
2.985786
21
-10.8323138
0
LINE
8
0
10
2.985786
20
-10.8323138
11
2.90670298
21
-10.6812098
0
LINE
8
0
10
2.90670298
20
-10.6812098
11
2.667949
21
-10.2250191
0
LINE
8
0
10
2.667949
20
-10.2250191
11
2.66327525
21
-10.208476
0
LINE
8
0
10
2.66327525
20
-10.208476
11
2.64994114
21
-10.1612793
0
LINE
8
0
10
2.64994114
20
-10.1612793
11
2.51907316
21
-9.62867216
0
LINE
8
0
10
2.51907316
20
-9.62867216
11
2.468148
21
-9.42141141
0
LINE
8
0
10
2.468148
20
-9.42141141
11
2.41279054
21
-8.73908091
0
LINE
8
0
10
2.41279054
20
-8.73908091
11
2.4
21
-8.54676194
0
LINE
8
0
10
2.4
20
-8.54676194
11
2.4
21
-7.14940605
0
LINE
8
0
10
2.4
20
-7.14940605
11
2.4
21
-7.10183193
0
LINE
8
0
10
2.4
20
-7.10183193
11
2.4
21
-5.59130663
0
LINE
8
0
10
2.4
20
-5.59130663
11
2.4
21
-5.50155006
0
LINE
8
0
10
2.4
20
-5.50155006
11
2.4
21
-4.11209404
0
LINE
8
0
10
2.4
20
-4.11209404
11
2.4
21
-2.80892237
0
LINE
8
0
10
2.4
20
-2.80892237
11
2.4
21
-2.68113263
0
LINE
8
0
10
2.4
20
-2.68113263
11
2.4
21
-1.40644644
0
LINE
8
0
10
2.4
20
-1.40644644
11
2.4
21
-1.27409972
0
LINE
8
0
10
2.4
20
-1.27409972
11
2.4
21
-1.15381505
0
LINE
8
0
10
2.4
20
-1.15381505
11
2.4
21
-1.05742144
0
LINE
8
0
10
2.4
20
-1.05742144
11
2.4
21
0.0395069034
0
LINE
8
0
10
2.4
20
0.0395069034
11
2.4
21
1.31491713
0
LINE
8
0
10
2.4
20
1.31491713
11
2.4
21
2.89613934
0
LINE
8
0
10
2.4
20
2.89613934
11
2.4
21
6.43692779
0
LINE
8
0
10
2.4
20
6.43692779
11
2.4
21
12.7277326
0
LINE
8
0
10
2.4
20
12.7277326
11
2.4
21
24.1593828
0
LINE
8
0
10
2.4
20
24.1593828
11
10.2190201
21
24.1593828
0
LINE
8
0
10
10.2190201
20
24.1593828
11
16
21
24.1593828
0
LINE
8
0
10
16
20
24.1593828
11
16
21
12.7277326
0
LINE
8
0
10
16
20
12.7277326
11
16
21
6.43692779
0
LINE
8
0
10
16
20
6.43692779
11
16
21
2.89613934
0
LINE
8
0
10
16
20
2.89613934
11
16
21
-0.872785814
0
LINE
8
0
10
16
20
-0.872785814
11
16
21
-1.13115319
0
LINE
8
0
10
16
20
-1.13115319
11
16
21
-1.41810138
0
LINE
8
0
10
16
20
-1.41810138
11
16
21
-1.41810138
0
ENDSEC
0
EOF
