0
SECTION
2
ENTITIES
0
LINE
8
0
10
16
20
23.4987133
11
16
21
23.6679643
0
LINE
8
0
10
16
20
23.6679643
11
16
21
26.170044
0
LINE
8
0
10
16
20
26.170044
11
16
21
32.3138225
0
LINE
8
0
10
16
20
32.3138225
11
16
21
33.5425775
0
LINE
8
0
10
16
20
33.5425775
11
16
21
35.5283985
0
LINE
8
0
10
16
20
35.5283985
11
16
21
39.2420184
0
LINE
8
0
10
16
20
39.2420184
11
4.55217029
21
39.2420184
0
LINE
8
0
10
4.55217029
20
39.2420184
11
2.4
21
39.2420184
0
LINE
8
0
10
2.4
20
39.2420184
11
2.4
21
35.5283985
0
LINE
8
0
10
2.4
20
35.5283985
11
2.4
21
33.5425775
0
LINE
8
0
10
2.4
20
33.5425775
11
2.4
21
32.8053245
0
LINE
8
0
10
2.4
20
32.8053245
11
2.4
21
32.3138225
0
LINE
8
0
10
2.4
20
32.3138225
11
2.4
21
28.2255618
0
LINE
8
0
10
2.4
20
28.2255618
11
2.4
21
23.6679643
0
LINE
8
0
10
2.4
20
23.6679643
11
2.4
21
23.4528711
0
LINE
8
0
10
2.4
20
23.4528711
11
2.4
21
21.8740026
0
LINE
8
0
10
2.4
20
21.8740026
11
2.4
21
14.9527604
0
LINE
8
0
10
2.4
20
14.9527604
11
2.4
21
13.7649915
0
LINE
8
0
10
2.4
20
13.7649915
11
2.4
21
13.3511265
0
LINE
8
0
10
2.4
20
13.3511265
11
2.4
21
12.8622462
0
LINE
8
0
10
2.4
20
12.8622462
11
2.4
21
12.3546235
0
LINE
8
0
10
2.4
20
12.3546235
11
2.4
21
11.8928133
0
LINE
8
0
10
2.4
20
11.8928133
11
2.4
21
11.3707057
0
LINE
8
0
10
2.4
20
11.3707057
11
2.4
21
10.7964019
0
LINE
8
0
10
2.4
20
10.7964019
11
2.4
21
10.2975008
0
LINE
8
0
10
2.4
20
10.2975008
11
2.4
21
9.92028329
0
LINE
8
0
10
2.4
20
9.92028329
11
2.4
21
9.67052753
0
LINE
8
0
10
2.4
20
9.67052753
11
2.4
21
4.78588475
0
LINE
8
0
10
2.4
20
4.78588475
11
2.4
21
4.69156201
0
LINE
8
0
10
2.4
20
4.69156201
11
2.4
21
4.61323216
0
LINE
8
0
10
2.4
20
4.61323216
11
2.4
21
3.55787616
0
LINE
8
0
10
2.4
20
3.55787616
11
2.4
21
2.25418195
0
LINE
8
0
10
2.4
20
2.25418195
11
2.4
21
-6.71391694
0
LINE
8
0
10
2.4
20
-6.71391694
11
2.4
21
-12.3628825
0
LINE
8
0
10
2.4
20
-12.3628825
11
2.4
21
-12.4346055
0
LINE
8
0
10
2.4
20
-12.4346055
11
2.4
21
-12.8962516
0
LINE
8
0
10
2.4
20
-12.8962516
11
2.4
21
-13.9960197
0
LINE
8
0
10
2.4
20
-13.9960197
11
2.4
21
-14
0
LINE
8
0
10
2.4
20
-14
11
2.41311332
21
-14.2154058
0
LINE
8
0
10
2.41311332
20
-14.2154058
11
2.42892566
21
-14.3125587
0
LINE
8
0
10
2.42892566
20
-14.3125587
11
2.45929994
21
-14.4815698
0
LINE
8
0
10
2.45929994
20
-14.4815698
11
2.57620244
21
-14.8016373
0
LINE
8
0
10
2.57620244
20
-14.8016373
11
2.62595732
21
-14.9217556
0
LINE
8
0
10
2.62595732
20
-14.9217556
11
2.79839289
21
-15.1911008
0
LINE
8
0
10
2.79839289
20
-15.1911008
11
2.87107769
21
-15.2858247
0
LINE
8
0
10
2.87107769
20
-15.2858247
11
3.07657886
21
-15.4979168
0
LINE
8
0
10
3.07657886
20
-15.4979168
11
3.16185151
21
-15.563287
0
LINE
8
0
10
3.16185151
20
-15.563287
11
3.40229833
21
-15.7331711
0
LINE
8
0
10
3.40229833
20
-15.7331711
11
3.68285162
21
-15.8625429
0
LINE
8
0
10
3.68285162
20
-15.8625429
11
3.75249445
21
-15.8913508
0
LINE
8
0
10
3.75249445
20
-15.8913508
11
4.04817205
21
-15.9675543
0
LINE
8
0
10
4.04817205
20
-15.9675543
11
4.36282326
21
-15.9951055
0
LINE
8
0
10
4.36282326
20
-15.9951055
11
4.38368516
21
-15.9978521
0
LINE
8
0
10
4.38368516
20
-15.9978521
11
4.39214518
21
-15.9992286
0
LINE
8
0
10
4.39214518
20
-15.9992286
11
4.4
21
-16
0
LINE
8
0
10
4.4
20
-16
11
5.17192705
21
-16
0
LINE
8
0
10
5.17192705
20
-16
11
29.3571686
21
-16
0
LINE
8
0
10
29.3571686
20
-16
11
31.1429552
21
-16
0
LINE
8
0
10
31.1429552
20
-16
11
32.7
21
-16
0
LINE
8
0
10
32.7
20
-16
11
32.737045
21
-15.9963512
0
LINE
8
0
10
32.737045
20
-15.9963512
11
32.7725084
21
-15.9904536
0
LINE
8
0
10
32.7725084
20
-15.9904536
11
32.8450169
21
-15.9809072
0
LINE
8
0
10
32.8450169
20
-15.9809072
11
33.2170314
21
-15.9451276
0
LINE
8
0
10
33.2170314
20
-15.9451276
11
33.6130107
21
-15.8245331
0
LINE
8
0
10
33.6130107
20
-15.8245331
11
33.6980991
21
-15.7892884
0
LINE
8
0
10
33.6980991
20
-15.7892884
11
34.0753838
21
-15.5870933
0
LINE
8
0
10
34.0753838
20
-15.5870933
11
34.1258682
21
-15.5483562
0
LINE
8
0
10
34.1258682
20
-15.5483562
11
34.46777
21
-15.26777
0
LINE
8
0
10
34.46777
20
-15.26777
11
34.7731002
21
-14.8957169
0
LINE
8
0
10
34.7731002
20
-14.8957169
11
34.7802177
21
-14.8864411
0
LINE
8
0
10
34.7802177
20
-14.8864411
11
34.9187888
21
-14.6267902
0
LINE
8
0
10
34.9187888
20
-14.6267902
11
41.7023128
21
-14.6410528
0
LINE
8
0
10
41.7023128
20
-14.6410528
11
45.65767
21
-14.6202871
0
LINE
8
0
10
45.65767
20
-14.6202871
11
50.6131374
21
-14.6435894
0
LINE
8
0
10
50.6131374
20
-14.6435894
11
57.3151152
21
-14.637398
0
LINE
8
0
10
57.3151152
20
-14.637398
11
57.3358213
21
-14.8242372
0
LINE
8
0
10
57.3358213
20
-14.8242372
11
57.4293973
21
-15.1067565
0
LINE
8
0
10
57.4293973
20
-15.1067565
11
57.4377523
21
-15.1269272
0
LINE
8
0
10
57.4377523
20
-15.1269272
11
57.5712705
21
-15.3590713
0
LINE
8
0
10
57.5712705
20
-15.3590713
11
57.5939689
21
-15.3886522
0
LINE
8
0
10
57.5939689
20
-15.3886522
11
57.746564
21
-15.5677019
0
LINE
8
0
10
57.746564
20
-15.5677019
11
57.7878121
21
-15.599353
0
LINE
8
0
10
57.7878121
20
-15.599353
11
58.1355817
21
-15.8439033
0
LINE
8
0
10
58.1355817
20
-15.8439033
11
58.2100917
21
-15.8747663
0
LINE
8
0
10
58.2100917
20
-15.8747663
11
58.5601554
21
-15.9778294
0
LINE
8
0
10
58.5601554
20
-15.9778294
11
58.5877427
21
-15.9832097
0
LINE
8
0
10
58.5877427
20
-15.9832097
11
58.6195071
21
-15.9890209
0
LINE
8
0
10
58.6195071
20
-15.9890209
11
58.67679
21
-15.99493
0
LINE
8
0
10
58.67679
20
-15.99493
11
58.7345206
21
-15.998493
0
LINE
8
0
10
58.7345206
20
-15.998493
11
58.73836
21
-15.99873
0
LINE
8
0
10
58.73836
20
-15.99873
11
58.7963197
21
-15.9999242
0
LINE
8
0
10
58.7963197
20
-15.9999242
11
58.8
21
-16
0
LINE
8
0
10
58.8
20
-16
11
59.488803
21
-16
0
LINE
8
0
10
59.488803
20
-16
11
67.9955202
21
-16
0
LINE
8
0
10
67.9955202
20
-16
11
69.4618143
21
-16
0
LINE
8
0
10
69.4618143
20
-16
11
69.4746292
21
-16
0
LINE
8
0
10
69.4746292
20
-16
11
69.4873398
21
-16
0
LINE
8
0
10
69.4873398
20
-16
11
69.8643909
21
-15.9503578
0
LINE
8
0
10
69.8643909
20
-15.9503578
11
70.1280442
21
-15.91481
0
LINE
8
0
10
70.1280442
20
-15.91481
11
70.2720577
21
-15.855158
0
LINE
8
0
10
70.2720577
20
-15.855158
11
70.730995
21
-15.66506
0
LINE
8
0
10
70.730995
20
-15.66506
11
70.847751
21
-15.5754699
0
LINE
8
0
10
70.847751
20
-15.5754699
11
71.2487624
21
-15.26777
0
LINE
8
0
10
71.2487624
20
-15.26777
11
71.3346725
21
-15.155811
0
LINE
8
0
10
71.3346725
20
-15.155811
11
71.6460553
21
-14.75
0
LINE
8
0
10
71.6460553
20
-14.75
11
71.6986993
21
-14.6229068
0
LINE
8
0
10
71.6986993
20
-14.6229068
11
71.8958056
21
-14.14705
0
LINE
8
0
10
71.8958056
20
-14.14705
11
71.9288117
21
-13.9445508
0
LINE
8
0
10
71.9288117
20
-13.9445508
11
71.9873409
21
-13.5
0
LINE
8
0
10
71.9873409
20
-13.5
11
71.9795943
21
-10.1121071
0
LINE
8
0
10
71.9795943
20
-10.1121071
11
71.9862478
21
14.0465384
0
LINE
8
0
10
71.9862478
20
14.0465384
11
71.9883595
21
14.6822099
0
LINE
8
0
10
71.9883595
20
14.6822099
11
71.9931322
21
16.8953411
0
LINE
8
0
10
71.9931322
20
16.8953411
11
71.9923637
21
17.3766479
0
LINE
8
0
10
71.9923637
20
17.3766479
11
71.9898123
21
20.8843535
0
LINE
8
0
10
71.9898123
20
20.8843535
11
66.9925974
21
20.8843492
0
LINE
8
0
10
66.9925974
20
20.8843492
11
63.2
21
20.8843499
0
LINE
8
0
10
63.2
20
20.8843499
11
62.9033629
21
20.3671769
0
LINE
8
0
10
62.9033629
20
20.3671769
11
43.4427753
21
20.3671769
0
LINE
8
0
10
43.4427753
20
20.3671769
11
29.2966371
21
20.3671769
0
LINE
8
0
10
29.2966371
20
20.3671769
11
29
21
20.8843497
0
LINE
8
0
10
29
20
20.8843497
11
28.3454051
21
20.8843497
0
LINE
8
0
10
28.3454051
20
20.8843497
11
28.2402023
21
20.8843497
0
LINE
8
0
10
28.2402023
20
20.8843497
11
16
21
20.8843527
0
LINE
8
0
10
16
20
20.8843527
11
16
21
20.9714459
0
LINE
8
0
10
16
20
20.9714459
11
16
21
21.2826458
0
LINE
8
0
10
16
20
21.2826458
11
16
21
21.994103
0
LINE
8
0
10
16
20
21.994103
11
16
21
23.4987133
0
LINE
8
0
10
16
20
23.4987133
11
16
21
23.4987133
0
LINE
8
0
10
17.5231991
20
41.1641652
11
17.8
21
41.164165
0
LINE
8
0
10
17.8
20
41.164165
11
17.8
21
42.148086
0
LINE
8
0
10
17.8
20
42.148086
11
17.8
21
42.1831088
0
LINE
8
0
10
17.8
20
42.1831088
11
17.8
21
42.2446978
0
LINE
8
0
10
17.8
20
42.2446978
11
17.8
21
42.3374481
0
LINE
8
0
10
17.8
20
42.3374481
11
17.8
21
42.457188
0
LINE
8
0
10
17.8
20
42.457188
11
17.8
21
43.3520981
0
LINE
8
0
10
17.8
20
43.3520981
11
17.8
21
44.1667904
0
LINE
8
0
10
17.8
20
44.1667904
11
17.8
21
44.4016518
0
LINE
8
0
10
17.8
20
44.4016518
11
17.8
21
45.2
0
LINE
8
0
10
17.8
20
45.2
11
17.8
21
49.2881796
0
LINE
8
0
10
17.8
20
49.2881796
11
17.8
21
50.2
0
LINE
8
0
10
17.8
20
50.2
11
17.4364573
21
50.2
0
LINE
8
0
10
17.4364573
20
50.2
11
17.43125
21
50.2
0
LINE
8
0
10
17.43125
20
50.2
11
17.2248045
21
50.2135288
0
LINE
8
0
10
17.2248045
20
50.2135288
11
16.9823139
21
50.2280425
0
LINE
8
0
10
16.9823139
20
50.2280425
11
16.931988
21
50.2355022
0
LINE
8
0
10
16.931988
20
50.2355022
11
16.7504821
21
50.2632811
0
LINE
8
0
10
16.7504821
20
50.2632811
11
16.6473451
21
50.2851102
0
LINE
8
0
10
16.6473451
20
50.2851102
11
16.5229098
21
50.3123501
0
LINE
8
0
10
16.5229098
20
50.3123501
11
16.3668012
21
50.355852
0
LINE
8
0
10
16.3668012
20
50.355852
11
16.3019202
21
50.3745865
0
LINE
8
0
10
16.3019202
20
50.3745865
11
16.0950917
21
50.4469961
0
LINE
8
0
10
16.0950917
20
50.4469961
11
16.0895852
21
50.4489982
0
LINE
8
0
10
16.0895852
20
50.4489982
11
16.0700074
21
50.4573575
0
LINE
8
0
10
16.0700074
20
50.4573575
11
15.866546
21
50.5344542
0
LINE
8
0
10
15.866546
20
50.5344542
11
15.806226
21
50.5607451
0
LINE
8
0
10
15.806226
20
50.5607451
11
15.654471
21
50.6295683
0
LINE
8
0
10
15.654471
20
50.6295683
11
15.3173793
21
50.8177518
0
LINE
8
0
10
15.3173793
20
50.8177518
11
15.2738005
21
50.8428632
0
LINE
8
0
10
15.2738005
20
50.8428632
11
15.2289641
21
50.8766886
0
LINE
8
0
10
15.2289641
20
50.8766886
11
14.9097866
21
51.0781491
0
LINE
8
0
10
14.9097866
20
51.0781491
11
14.6173431
21
51.3172156
0
LINE
8
0
10
14.6173431
20
51.3172156
11
14.6071249
21
51.3259105
0
LINE
8
0
10
14.6071249
20
51.3259105
11
14.5972815
21
51.3367842
0
LINE
8
0
10
14.5972815
20
51.3367842
11
14.4152226
21
51.501373
0
LINE
8
0
10
14.4152226
20
51.501373
11
14.316519
21
51.5797694
0
LINE
8
0
10
14.316519
20
51.5797694
11
14.1631669
21
51.7320368
0
LINE
8
0
10
14.1631669
20
51.7320368
11
14.1456056
21
51.7465279
0
LINE
8
0
10
14.1456056
20
51.7465279
11
13.7808864
21
51.9960145
0
LINE
8
0
10
13.7808864
20
51.9960145
11
13.4235632
21
52.1384795
0
LINE
8
0
10
13.4235632
20
52.1384795
11
13.0706235
21
52.1841783
0
LINE
8
0
10
13.0706235
20
52.1841783
11
13.0269106
21
52.1967741
0
LINE
8
0
10
13.0269106
20
52.1967741
11
13
21
52.2028378
0
LINE
8
0
10
13
20
52.2028378
11
4.74902451
21
52.2028378
0
LINE
8
0
10
4.74902451
20
52.2028378
11
4.4
21
52.2028378
0
LINE
8
0
10
4.4
20
52.2028378
11
4.3584421
21
52.1918961
0
LINE
8
0
10
4.3584421
20
52.1918961
11
3.882362
21
52.0665427
0
LINE
8
0
10
3.882362
20
52.0665427
11
3.41885936
21
51.6825692
0
LINE
8
0
10
3.41885936
20
51.6825692
11
3.4
21
51.6669458
0
LINE
8
0
10
3.4
20
51.6669458
11
3.09511264
21
51.199055
0
LINE
8
0
10
3.09511264
20
51.199055
11
3.04030177
21
51.1260086
0
LINE
8
0
10
3.04030177
20
51.1260086
11
2.985786
21
51.0533515
0
LINE
8
0
10
2.985786
20
51.0533515
11
2.87343282
21
50.7990342
0
LINE
8
0
10
2.87343282
20
50.7990342
11
2.74952565
21
50.5185762
0
LINE
8
0
10
2.74952565
20
50.5185762
11
2.70505109
21
50.4369219
0
LINE
8
0
10
2.70505109
20
50.4369219
11
2.667949
21
50.3688012
0
LINE
8
0
10
2.667949
20
50.3688012
11
2.58064507
21
50.0718644
0
LINE
8
0
10
2.58064507
20
50.0718644
11
2.468148
21
49.689232
0
LINE
8
0
10
2.468148
20
49.689232
11
2.46468115
21
49.6513435
0
LINE
8
0
10
2.46468115
20
49.6513435
11
2.43624017
21
49.373126
0
LINE
8
0
10
2.43624017
20
49.373126
11
2.40472339
21
49.0727103
0
LINE
8
0
10
2.40472339
20
49.0727103
11
2.4
21
49.0332557
0
LINE
8
0
10
2.4
20
49.0332557
11
2.4
21
47.4622057
0
LINE
8
0
10
2.4
20
47.4622057
11
2.4
21
46.6662197
0
LINE
8
0
10
2.4
20
46.6662197
11
2.4
21
46.2724535
0
LINE
8
0
10
2.4
20
46.2724535
11
2.4
21
43.4830031
0
LINE
8
0
10
2.4
20
43.4830031
11
2.4
21
42.9351797
0
LINE
8
0
10
2.4
20
42.9351797
11
2.4
21
42.8903741
0
LINE
8
0
10
2.4
20
42.8903741
11
2.4
21
42.723583
0
LINE
8
0
10
2.4
20
42.723583
11
2.4
21
42.555439
0
LINE
8
0
10
2.4
20
42.555439
11
2.4
21
42.5199418
0
LINE
8
0
10
2.4
20
42.5199418
11
2.4
21
42.354325
0
LINE
8
0
10
2.4
20
42.354325
11
2.4
21
41.1641668
0
LINE
8
0
10
2.4
20
41.1641668
11
8.59552199
21
41.1641668
0
LINE
8
0
10
8.59552199
20
41.1641668
11
16.9800044
21
41.1641668
0
LINE
8
0
10
16.9800044
20
41.1641668
11
17.5231991
21
41.1641652
0
LINE
8
0
10
17.5231991
20
41.1641652
11
17.5231991
21
41.1641652
0
LINE
8
0
10
48.84998
20
-4.502994
11
48.8263011
21
-4.67436437
0
LINE
8
0
10
48.8263011
20
-4.67436437
11
48.8233
21
-4.696084
0
LINE
8
0
10
48.8233
20
-4.696084
11
48.756266
21
-4.85556433
0
LINE
8
0
10
48.756266
20
-4.85556433
11
48.74777
21
-4.875777
0
LINE
8
0
10
48.74777
20
-4.875777
11
48.6418983
21
-5.01259551
0
LINE
8
0
10
48.6418983
20
-5.01259551
11
48.62848
21
-5.029936
0
LINE
8
0
10
48.62848
20
-5.029936
11
48.490924
21
-5.13485099
0
LINE
8
0
10
48.490924
20
-5.13485099
11
48.47349
21
-5.148148
0
LINE
8
0
10
48.47349
20
-5.148148
11
48.313542
21
-5.21407265
0
LINE
8
0
10
48.313542
20
-5.21407265
11
48.29327
21
-5.222428
0
LINE
8
0
10
48.29327
20
-5.222428
11
48.1217399
21
-5.24490877
0
LINE
8
0
10
48.1217399
20
-5.24490877
11
48.1
21
-5.247758
0
LINE
8
0
10
48.1
20
-5.247758
11
47.9284699
21
-5.22527723
0
LINE
8
0
10
47.9284699
20
-5.22527723
11
47.90673
21
-5.222428
0
LINE
8
0
10
47.90673
20
-5.222428
11
47.746782
21
-5.15650335
0
LINE
8
0
10
47.746782
20
-5.15650335
11
47.72651
21
-5.148148
0
LINE
8
0
10
47.72651
20
-5.148148
11
47.588954
21
-5.04323301
0
LINE
8
0
10
47.588954
20
-5.04323301
11
47.57152
21
-5.029936
0
LINE
8
0
10
47.57152
20
-5.029936
11
47.4656483
21
-4.89311749
0
LINE
8
0
10
47.4656483
20
-4.89311749
11
47.45223
21
-4.875777
0
LINE
8
0
10
47.45223
20
-4.875777
11
47.385196
21
-4.71629667
0
LINE
8
0
10
47.385196
20
-4.71629667
11
47.3767
21
-4.696084
0
LINE
8
0
10
47.3767
20
-4.696084
11
47.3530211
21
-4.52471363
0
LINE
8
0
10
47.3530211
20
-4.52471363
11
47.35002
21
-4.502994
0
LINE
8
0
10
47.35002
20
-4.502994
11
47.3713026
21
-4.33131033
0
LINE
8
0
10
47.3713026
20
-4.33131033
11
47.374
21
-4.309551
0
LINE
8
0
10
47.374
20
-4.309551
11
47.4388064
21
-4.14914943
0
LINE
8
0
10
47.4388064
20
-4.14914943
11
47.44702
21
-4.12882
0
LINE
8
0
10
47.44702
20
-4.12882
11
47.5509747
21
-3.99053709
0
LINE
8
0
10
47.5509747
20
-3.99053709
11
47.56415
21
-3.973011
0
LINE
8
0
10
47.56415
20
-3.973011
11
47.5942874
21
-3.94223542
0
LINE
8
0
10
47.5942874
20
-3.94223542
11
48.1
21
-3.425814
0
LINE
8
0
10
48.1
20
-3.425814
11
48.1301374
21
-3.45658958
0
LINE
8
0
10
48.1301374
20
-3.45658958
11
48.63585
21
-3.973011
0
LINE
8
0
10
48.63585
20
-3.973011
11
48.6490253
21
-3.99053709
0
LINE
8
0
10
48.6490253
20
-3.99053709
11
48.75298
21
-4.12882
0
LINE
8
0
10
48.75298
20
-4.12882
11
48.8177864
21
-4.28922157
0
LINE
8
0
10
48.8177864
20
-4.28922157
11
48.826
21
-4.309551
0
LINE
8
0
10
48.826
20
-4.309551
11
48.8472826
21
-4.48123467
0
LINE
8
0
10
48.8472826
20
-4.48123467
11
48.84998
21
-4.502994
0
LINE
8
0
10
48.84998
20
-4.502994
11
48.84998
21
-4.502994
0
ENDSEC
0
EOF
