0
SECTION
2
ENTITIES
0
LINE
8
0
10
16
20
35.2872223
11
16
21
33.1093818
0
LINE
8
0
10
16
20
33.1093818
11
3.73021284
21
33.1093818
0
LINE
8
0
10
3.73021284
20
33.1093818
11
2.4
21
33.1093818
0
LINE
8
0
10
2.4
20
33.1093818
11
2.4
21
35.2872223
0
LINE
8
0
10
2.4
20
35.2872223
11
2.4
21
39.1053976
0
LINE
8
0
10
2.4
20
39.1053976
11
2.4
21
39.7976405
0
LINE
8
0
10
2.4
20
39.7976405
11
2.4
21
39.8099709
0
LINE
8
0
10
2.4
20
39.8099709
11
2.4
21
39.8263448
0
LINE
8
0
10
2.4
20
39.8263448
11
2.4
21
39.846094
0
LINE
8
0
10
2.4
20
39.846094
11
2.4
21
42.4077711
0
LINE
8
0
10
2.4
20
42.4077711
11
2.4
21
42.5638931
0
LINE
8
0
10
2.4
20
42.5638931
11
2.4
21
42.6546525
0
LINE
8
0
10
2.4
20
42.6546525
11
2.4
21
42.8128019
0
LINE
8
0
10
2.4
20
42.8128019
11
2.4
21
42.9696787
0
LINE
8
0
10
2.4
20
42.9696787
11
2.4
21
43.0714975
0
LINE
8
0
10
2.4
20
43.0714975
11
2.4
21
44.3164017
0
LINE
8
0
10
2.4
20
44.3164017
11
2.4
21
46.6130123
0
LINE
8
0
10
2.4
20
46.6130123
11
2.4
21
47.1167066
0
LINE
8
0
10
2.4
20
47.1167066
11
2.4
21
48.1349087
0
LINE
8
0
10
2.4
20
48.1349087
11
2.4
21
48.768074
0
LINE
8
0
10
2.4
20
48.768074
11
2.45259602
21
49.2074109
0
LINE
8
0
10
2.45259602
20
49.2074109
11
2.468148
21
49.3556513
0
LINE
8
0
10
2.468148
20
49.3556513
11
2.57162864
21
49.6594708
0
LINE
8
0
10
2.57162864
20
49.6594708
11
2.667949
21
49.9422681
0
LINE
8
0
10
2.667949
20
49.9422681
11
2.71712034
21
50.0201999
0
LINE
8
0
10
2.71712034
20
50.0201999
11
2.79849267
21
50.1491672
0
LINE
8
0
10
2.79849267
20
50.1491672
11
2.91430768
21
50.3618077
0
LINE
8
0
10
2.91430768
20
50.3618077
11
2.985786
21
50.4930403
0
LINE
8
0
10
2.985786
20
50.4930403
11
3.14410026
21
50.6641816
0
LINE
8
0
10
3.14410026
20
50.6641816
11
3.36593399
21
50.903997
0
LINE
8
0
10
3.36593399
20
50.903997
11
3.38497366
21
50.9293726
0
LINE
8
0
10
3.38497366
20
50.9293726
11
3.4
21
50.9493981
0
LINE
8
0
10
3.4
20
50.9493981
11
3.68811039
21
51.1566728
0
LINE
8
0
10
3.68811039
20
51.1566728
11
3.882362
21
51.2964164
0
LINE
8
0
10
3.882362
20
51.2964164
11
4.3354344
21
51.4000115
0
LINE
8
0
10
4.3354344
20
51.4000115
11
4.4
21
51.4178553
0
LINE
8
0
10
4.4
20
51.4178553
11
4.93391411
21
51.4178553
0
LINE
8
0
10
4.93391411
20
51.4178553
11
13
21
51.4178553
0
LINE
8
0
10
13
20
51.4178553
11
13.0757444
21
51.404011
0
LINE
8
0
10
13.0757444
20
51.404011
11
13.4013337
21
51.3675223
0
LINE
8
0
10
13.4013337
20
51.3675223
11
13.5643188
21
51.313813
0
LINE
8
0
10
13.5643188
20
51.313813
11
13.8215597
21
51.2203613
0
LINE
8
0
10
13.8215597
20
51.2203613
11
13.8336268
21
51.2172035
0
LINE
8
0
10
13.8336268
20
51.2172035
11
14.3187174
21
51.0006997
0
LINE
8
0
10
14.3187174
20
51.0006997
11
14.3216816
21
50.999695
0
LINE
8
0
10
14.3216816
20
50.999695
11
14.7622772
21
50.7899322
0
LINE
8
0
10
14.7622772
20
50.7899322
11
14.9057226
21
50.7382437
0
LINE
8
0
10
14.9057226
20
50.7382437
11
15.2146044
21
50.5967034
0
LINE
8
0
10
15.2146044
20
50.5967034
11
15.3700654
21
50.5390641
0
LINE
8
0
10
15.3700654
20
50.5390641
11
15.4512819
21
50.5098933
0
LINE
8
0
10
15.4512819
20
50.5098933
11
15.6392444
21
50.4514705
0
LINE
8
0
10
15.6392444
20
50.4514705
11
15.6939216
21
50.4314937
0
LINE
8
0
10
15.6939216
20
50.4314937
11
15.7139277
21
50.4252772
0
LINE
8
0
10
15.7139277
20
50.4252772
11
15.9217801
21
50.3628611
0
LINE
8
0
10
15.9217801
20
50.3628611
11
16.0244287
21
50.3374682
0
LINE
8
0
10
16.0244287
20
50.3374682
11
16.1592842
21
50.3051569
0
LINE
8
0
10
16.1592842
20
50.3051569
11
16.34466
21
50.2703217
0
LINE
8
0
10
16.34466
20
50.2703217
11
16.4044007
21
50.2594321
0
LINE
8
0
10
16.4044007
20
50.2594321
11
16.605394
21
50.2329734
0
LINE
8
0
10
16.605394
20
50.2329734
11
16.6495894
21
50.2264225
0
LINE
8
0
10
16.6495894
20
50.2264225
11
16.6774914
21
50.2247525
0
LINE
8
0
10
16.6774914
20
50.2247525
11
17.1023028
21
50.2
0
LINE
8
0
10
17.1023028
20
50.2
11
17.4387275
21
50.2
0
LINE
8
0
10
17.4387275
20
50.2
11
17.8
21
50.2
0
LINE
8
0
10
17.8
20
50.2
11
17.8
21
48.5607035
0
LINE
8
0
10
17.8
20
48.5607035
11
17.8
21
45.2
0
LINE
8
0
10
17.8
20
45.2
11
17.8
21
44.5437148
0
LINE
8
0
10
17.8
20
44.5437148
11
17.8
21
44.1092198
0
LINE
8
0
10
17.8
20
44.1092198
11
17.8
21
43.4344257
0
LINE
8
0
10
17.8
20
43.4344257
11
17.8
21
42.6931885
0
LINE
8
0
10
17.8
20
42.6931885
11
17.8
21
42.3609422
0
LINE
8
0
10
17.8
20
42.3609422
11
17.8
21
42.1035847
0
LINE
8
0
10
17.8
20
42.1035847
11
17.8
21
41.9326917
0
LINE
8
0
10
17.8
20
41.9326917
11
17.8
21
41.8355129
0
LINE
8
0
10
17.8
20
41.8355129
11
17.8
21
39.1053939
0
LINE
8
0
10
17.8
20
39.1053939
11
17.0319512
21
39.1053945
0
LINE
8
0
10
17.0319512
20
39.1053945
11
16
21
39.1053976
0
LINE
8
0
10
16
20
39.1053976
11
16
21
35.2872223
0
LINE
8
0
10
16
20
35.2872223
11
16
21
35.2872223
0
LINE
8
0
10
16
20
21.540325
11
16
21
21.6157595
0
LINE
8
0
10
16
20
21.6157595
11
16
21
21.8853009
0
LINE
8
0
10
16
20
21.8853009
11
16
21
22.5015193
0
LINE
8
0
10
16
20
22.5015193
11
16
21
23.804716
0
LINE
8
0
10
16
20
23.804716
11
16
21
24.5090381
0
LINE
8
0
10
16
20
24.5090381
11
16
21
32.7470183
0
LINE
8
0
10
16
20
32.7470183
11
15.4113007
21
32.7470183
0
LINE
8
0
10
15.4113007
20
32.7470183
11
2.4
21
32.7470183
0
LINE
8
0
10
2.4
20
32.7470183
11
2.4
21
28.3112531
0
LINE
8
0
10
2.4
20
28.3112531
11
2.4
21
24.5090381
0
LINE
8
0
10
2.4
20
24.5090381
11
2.4
21
23.6139482
0
LINE
8
0
10
2.4
20
23.6139482
11
2.4
21
17.0436373
0
LINE
8
0
10
2.4
20
17.0436373
11
2.4
21
14.2375477
0
LINE
8
0
10
2.4
20
14.2375477
11
2.4
21
13.7559889
0
LINE
8
0
10
2.4
20
13.7559889
11
2.4
21
13.3084506
0
LINE
8
0
10
2.4
20
13.3084506
11
2.4
21
13.2233927
0
LINE
8
0
10
2.4
20
13.2233927
11
3.81587046
21
13.2233927
0
LINE
8
0
10
3.81587046
20
13.2233927
11
11
21
13.2233927
0
LINE
8
0
10
11
20
13.2233927
11
12.4158705
21
13.2233927
0
LINE
8
0
10
12.4158705
20
13.2233927
11
19.6
21
13.2233927
0
LINE
8
0
10
19.6
20
13.2233927
11
21.0158705
21
13.2233927
0
LINE
8
0
10
21.0158705
20
13.2233927
11
28.2
21
13.2233927
0
LINE
8
0
10
28.2
20
13.2233927
11
28.2
21
12.7851753
0
LINE
8
0
10
28.2
20
12.7851753
11
28.2
21
12.7508479
0
LINE
8
0
10
28.2
20
12.7508479
11
28.2
21
12.2962268
0
LINE
8
0
10
28.2
20
12.2962268
11
28.2
21
11.8081898
0
LINE
8
0
10
28.2
20
11.8081898
11
28.2
21
11.7871405
0
LINE
8
0
10
28.2
20
11.7871405
11
28.2
21
11.5919213
0
LINE
8
0
10
28.2
20
11.5919213
11
22.5993281
21
11.5919213
0
LINE
8
0
10
22.5993281
20
11.5919213
11
19.6
21
11.5919213
0
LINE
8
0
10
19.6
20
11.5919213
11
13.9993281
21
11.5919213
0
LINE
8
0
10
13.9993281
20
11.5919213
11
11
21
11.5919213
0
LINE
8
0
10
11
20
11.5919213
11
5.39932814
21
11.5919213
0
LINE
8
0
10
5.39932814
20
11.5919213
11
2.4
21
11.5919213
0
LINE
8
0
10
2.4
20
11.5919213
11
2.4
21
11.1639732
0
LINE
8
0
10
2.4
20
11.1639732
11
2.4
21
10.578445
0
LINE
8
0
10
2.4
20
10.578445
11
2.4
21
10.135729
0
LINE
8
0
10
2.4
20
10.135729
11
2.4
21
9.84260676
0
LINE
8
0
10
2.4
20
9.84260676
11
2.4
21
6.16590038
0
LINE
8
0
10
2.4
20
6.16590038
11
2.4
21
5.77338526
0
LINE
8
0
10
2.4
20
5.77338526
11
2.4
21
5.44742305
0
LINE
8
0
10
2.4
20
5.44742305
11
2.4
21
1.05565956
0
LINE
8
0
10
2.4
20
1.05565956
11
2.4
21
-0.0567959939
0
LINE
8
0
10
2.4
20
-0.0567959939
11
2.4
21
-7.70936617
0
LINE
8
0
10
2.4
20
-7.70936617
11
2.4
21
-12.5296861
0
LINE
8
0
10
2.4
20
-12.5296861
11
2.4
21
-12.590888
0
LINE
8
0
10
2.4
20
-12.590888
11
2.4
21
-13.0608148
0
LINE
8
0
10
2.4
20
-13.0608148
11
2.4
21
-13.9966131
0
LINE
8
0
10
2.4
20
-13.9966131
11
2.4
21
-14
0
LINE
8
0
10
2.4
20
-14
11
2.41330994
21
-14.2186355
0
LINE
8
0
10
2.41330994
20
-14.2186355
11
2.42671723
21
-14.3010115
0
LINE
8
0
10
2.42671723
20
-14.3010115
11
2.45880175
21
-14.4795388
0
LINE
8
0
10
2.45880175
20
-14.4795388
11
2.5822865
21
-14.8176279
0
LINE
8
0
10
2.5822865
20
-14.8176279
11
2.62359296
21
-14.91735
0
LINE
8
0
10
2.62359296
20
-14.91735
11
2.80573759
21
-15.2018608
0
LINE
8
0
10
2.80573759
20
-15.2018608
11
2.86461899
21
-15.278596
0
LINE
8
0
10
2.86461899
20
-15.278596
11
3.08169099
21
-15.5026299
0
LINE
8
0
10
3.08169099
20
-15.5026299
11
3.14835118
21
-15.5537318
0
LINE
8
0
10
3.14835118
20
-15.5537318
11
3.40233646
21
-15.7331813
0
LINE
8
0
10
3.40233646
20
-15.7331813
11
3.69868643
21
-15.8698374
0
LINE
8
0
10
3.69868643
20
-15.8698374
11
3.7451822
21
-15.8890705
0
LINE
8
0
10
3.7451822
20
-15.8890705
11
4.05750806
21
-15.9695647
0
LINE
8
0
10
4.05750806
20
-15.9695647
11
4.38987586
21
-15.9986671
0
LINE
8
0
10
4.38987586
20
-15.9986671
11
4.39555707
21
-15.9994151
0
LINE
8
0
10
4.39555707
20
-15.9994151
11
4.39786094
21
-15.9997899
0
LINE
8
0
10
4.39786094
20
-15.9997899
11
4.4
21
-16
0
LINE
8
0
10
4.4
20
-16
11
4.61021482
21
-16
0
LINE
8
0
10
4.61021482
20
-16
11
30.3343138
21
-16
0
LINE
8
0
10
30.3343138
20
-16
11
30.8206277
21
-16
0
LINE
8
0
10
30.8206277
20
-16
11
32.7
21
-16
0
LINE
8
0
10
32.7
20
-16
11
32.7447138
21
-15.9955958
0
LINE
8
0
10
32.7447138
20
-15.9955958
11
32.7875186
21
-15.9884774
0
LINE
8
0
10
32.7875186
20
-15.9884774
11
32.8750372
21
-15.9769548
0
LINE
8
0
10
32.8750372
20
-15.9769548
11
33.2248061
21
-15.9433146
0
LINE
8
0
10
33.2248061
20
-15.9433146
11
33.597107
21
-15.8299315
0
LINE
8
0
10
33.597107
20
-15.8299315
11
33.7131622
21
-15.7818598
0
LINE
8
0
10
33.7131622
20
-15.7818598
11
34.0678862
21
-15.5917555
0
LINE
8
0
10
34.0678862
20
-15.5917555
11
34.1463131
21
-15.5315778
0
LINE
8
0
10
34.1463131
20
-15.5315778
11
34.46777
21
-15.26777
0
LINE
8
0
10
34.46777
20
-15.26777
11
34.7548423
21
-14.9179647
0
LINE
8
0
10
34.7548423
20
-14.9179647
11
34.785291
21
-14.8782822
0
LINE
8
0
10
34.785291
20
-14.8782822
11
35.0026797
21
-14.4709452
0
LINE
8
0
10
35.0026797
20
-14.4709452
11
35.0148017
21
-14.4416802
0
LINE
8
0
10
35.0148017
20
-14.4416802
11
35.150832
21
-13.9925674
0
LINE
8
0
10
35.150832
20
-13.9925674
11
35.1860834
21
-13.755353
0
LINE
8
0
10
35.1860834
20
-13.755353
11
35.1880526
21
-13.7431546
0
LINE
8
0
10
35.1880526
20
-13.7431546
11
35.2
21
-13.5
0
LINE
8
0
10
35.2
20
-13.5
11
35.2
21
-13.4596198
0
LINE
8
0
10
35.2
20
-13.4596198
11
35.2
21
-13.4537762
0
LINE
8
0
10
35.2
20
-13.4537762
11
35.2
21
-13.4433685
0
LINE
8
0
10
35.2
20
-13.4433685
11
35.2
21
-13.4270611
0
LINE
8
0
10
35.2
20
-13.4270611
11
35.2
21
-13.4032878
0
LINE
8
0
10
35.2
20
-13.4032878
11
35.2
21
-13.3704574
0
LINE
8
0
10
35.2
20
-13.3704574
11
35.2
21
-13.3274521
0
LINE
8
0
10
35.2
20
-13.3274521
11
35.2
21
-13.2745291
0
LINE
8
0
10
35.2
20
-13.2745291
11
35.2
21
-13.2144912
0
LINE
8
0
10
35.2
20
-13.2144912
11
35.2
21
-13.153433
0
LINE
8
0
10
35.2
20
-13.153433
11
35.2
21
-13.0999012
0
LINE
8
0
10
35.2
20
-13.0999012
11
35.2
21
9.50003163
0
LINE
8
0
10
35.2
20
9.50003163
11
35.2
21
9.55419228
0
LINE
8
0
10
35.2
20
9.55419228
11
35.2
21
9.62004137
0
LINE
8
0
10
35.2
20
9.62004137
11
35.2
21
9.68780874
0
LINE
8
0
10
35.2
20
9.68780874
11
35.2
21
9.74983529
0
LINE
8
0
10
35.2
20
9.74983529
11
35.2
21
9.80202478
0
LINE
8
0
10
35.2
20
9.80202478
11
35.2
21
9.97123332
0
LINE
8
0
10
35.2
20
9.97123332
11
35.2
21
10
0
LINE
8
0
10
35.2
20
10
11
35.1639462
21
10
0
LINE
8
0
10
35.1639462
20
10
11
30.2
21
10
0
LINE
8
0
10
30.2
20
10
11
30.2
21
10.0123519
0
LINE
8
0
10
30.2
20
10.0123519
11
30.2
21
10.1050823
0
LINE
8
0
10
30.2
20
10.1050823
11
30.2
21
10.1083102
0
LINE
8
0
10
30.2
20
10.1083102
11
30.2
21
10.1187371
0
LINE
8
0
10
30.2
20
10.1187371
11
30.2
21
10.1386099
0
LINE
8
0
10
30.2
20
10.1386099
11
30.2
21
10.1704111
0
LINE
8
0
10
30.2
20
10.1704111
11
30.2
21
10.2157672
0
LINE
8
0
10
30.2
20
10.2157672
11
30.2
21
10.2731377
0
LINE
8
0
10
30.2
20
10.2731377
11
30.2
21
10.3349392
0
LINE
8
0
10
30.2
20
10.3349392
11
30.2
21
10.3874568
0
LINE
8
0
10
30.2
20
10.3874568
11
30.2
21
10.4170912
0
LINE
8
0
10
30.2
20
10.4170912
11
30.2
21
18.1643907
0
LINE
8
0
10
30.2
20
18.1643907
11
30.2
21
18.2808302
0
LINE
8
0
10
30.2
20
18.2808302
11
30.2
21
18.4104433
0
LINE
8
0
10
30.2
20
18.4104433
11
30.2
21
18.7388491
0
LINE
8
0
10
30.2
20
18.7388491
11
30.2
21
18.9567047
0
LINE
8
0
10
30.2
20
18.9567047
11
30.2
21
19.4481908
0
LINE
8
0
10
30.2
20
19.4481908
11
29.7172228
21
20.2898785
0
LINE
8
0
10
29.7172228
20
20.2898785
11
29.6493731
21
20.4081711
0
LINE
8
0
10
29.6493731
20
20.4081711
11
29
21
21.5403224
0
LINE
8
0
10
29
20
21.5403224
11
26.9337515
21
21.5403224
0
LINE
8
0
10
26.9337515
20
21.5403224
11
26.6016759
21
21.5403224
0
LINE
8
0
10
26.6016759
20
21.5403224
11
16
21
21.540325
0
LINE
8
0
10
16
20
21.540325
11
16
21
21.540325
0
LINE
8
0
10
72
20
13.0713726
11
72
21
13.7427101
0
LINE
8
0
10
72
20
13.7427101
11
72
21
14.8258895
0
LINE
8
0
10
72
20
14.8258895
11
67.6570461
21
14.8081742
0
LINE
8
0
10
67.6570461
20
14.8081742
11
64.2
21
14.8202466
0
LINE
8
0
10
64.2
20
14.8202466
11
64.2
21
14.9243295
0
LINE
8
0
10
64.2
20
14.9243295
11
64.2
21
14.9460277
0
LINE
8
0
10
64.2
20
14.9460277
11
64.2
21
15.4415759
0
LINE
8
0
10
64.2
20
15.4415759
11
64.2
21
15.5154855
0
LINE
8
0
10
64.2
20
15.5154855
11
64.2
21
15.8883299
0
LINE
8
0
10
64.2
20
15.8883299
11
64.2
21
16.2583082
0
LINE
8
0
10
64.2
20
16.2583082
11
64.2
21
16.3334217
0
LINE
8
0
10
64.2
20
16.3334217
11
64.2
21
16.8180686
0
LINE
8
0
10
64.2
20
16.8180686
11
64.2
21
16.8446273
0
LINE
8
0
10
64.2
20
16.8446273
11
64.2
21
16.9761353
0
LINE
8
0
10
64.2
20
16.9761353
11
67.934269
21
16.9896439
0
LINE
8
0
10
67.934269
20
16.9896439
11
72
21
16.9901308
0
LINE
8
0
10
72
20
16.9901308
11
72
21
18.3501072
0
LINE
8
0
10
72
20
18.3501072
11
72
21
19.5996019
0
LINE
8
0
10
72
20
19.5996019
11
72
21
21.042635
0
LINE
8
0
10
72
20
21.042635
11
72
21
21.5403215
0
LINE
8
0
10
72
20
21.5403215
11
71.4456557
21
21.5403215
0
LINE
8
0
10
71.4456557
20
21.5403215
11
63.2
21
21.5403229
0
LINE
8
0
10
63.2
20
21.5403229
11
62.5550679
21
20.4159139
0
LINE
8
0
10
62.5550679
20
20.4159139
11
62.527702
21
20.3682029
0
LINE
8
0
10
62.527702
20
20.3682029
11
62.5025773
21
20.3243988
0
LINE
8
0
10
62.5025773
20
20.3243988
11
62.4946748
21
20.3106214
0
LINE
8
0
10
62.4946748
20
20.3106214
11
62
21
19.4481911
0
LINE
8
0
10
62
20
19.4481911
11
62
21
19.0143217
0
LINE
8
0
10
62
20
19.0143217
11
62
21
18.7869397
0
LINE
8
0
10
62
20
18.7869397
11
62
21
18.684277
0
LINE
8
0
10
62
20
18.684277
11
62
21
18.5793677
0
LINE
8
0
10
62
20
18.5793677
11
62
21
18.5022078
0
LINE
8
0
10
62
20
18.5022078
11
62
21
11.2347707
0
LINE
8
0
10
62
20
11.2347707
11
62
21
11.1333859
0
LINE
8
0
10
62
20
11.1333859
11
62
21
10.9743918
0
LINE
8
0
10
62
20
10.9743918
11
62
21
10.8071144
0
LINE
8
0
10
62
20
10.8071144
11
62
21
10.6629869
0
LINE
8
0
10
62
20
10.6629869
11
62
21
10.5518599
0
LINE
8
0
10
62
20
10.5518599
11
62
21
10.4717391
0
LINE
8
0
10
62
20
10.4717391
11
62
21
10.4169171
0
LINE
8
0
10
62
20
10.4169171
11
62
21
10.3817629
0
LINE
8
0
10
62
20
10.3817629
11
62
21
10
0
LINE
8
0
10
62
20
10
11
57.4564666
21
10
0
LINE
8
0
10
57.4564666
20
10
11
57.3
21
10
0
LINE
8
0
10
57.3
20
10
11
57.3
21
9.95051589
0
LINE
8
0
10
57.3
20
9.95051589
11
57.3
21
9.91718959
0
LINE
8
0
10
57.3
20
9.91718959
11
57.3
21
9.87413824
0
LINE
8
0
10
57.3
20
9.87413824
11
57.3
21
9.8231395
0
LINE
8
0
10
57.3
20
9.8231395
11
57.3
21
9.76893021
0
LINE
8
0
10
57.3
20
9.76893021
11
57.3
21
9.71872182
0
LINE
8
0
10
57.3
20
9.71872182
11
57.3
21
9.67986131
0
LINE
8
0
10
57.3
20
9.67986131
11
57.3
21
-12.9394516
0
LINE
8
0
10
57.3
20
-12.9394516
11
57.3
21
-13.012726
0
LINE
8
0
10
57.3
20
-13.012726
11
57.3
21
-13.0898445
0
LINE
8
0
10
57.3
20
-13.0898445
11
57.3
21
-13.1618137
0
LINE
8
0
10
57.3
20
-13.1618137
11
57.3
21
-13.2235908
0
LINE
8
0
10
57.3
20
-13.2235908
11
57.3
21
-13.273599
0
LINE
8
0
10
57.3
20
-13.273599
11
57.3
21
-13.3123931
0
LINE
8
0
10
57.3
20
-13.3123931
11
57.3
21
-13.3414778
0
LINE
8
0
10
57.3
20
-13.3414778
11
57.3
21
-13.3625761
0
LINE
8
0
10
57.3
20
-13.3625761
11
57.3
21
-13.6804789
0
LINE
8
0
10
57.3
20
-13.6804789
11
57.3
21
-13.6976507
0
LINE
8
0
10
57.3
20
-13.6976507
11
57.3
21
-13.9767692
0
LINE
8
0
10
57.3
20
-13.9767692
11
57.3
21
-14.17729
0
LINE
8
0
10
57.3
20
-14.17729
11
57.3
21
-14.4950073
0
LINE
8
0
10
57.3
20
-14.4950073
11
57.3
21
-14.5
0
LINE
8
0
10
57.3
20
-14.5
11
57.3005436
21
-14.5049417
0
LINE
8
0
10
57.3005436
20
-14.5049417
11
57.3009953
21
-14.5075599
0
LINE
8
0
10
57.3009953
20
-14.5075599
11
57.3015742
21
-14.5119577
0
LINE
8
0
10
57.3015742
20
-14.5119577
11
57.3037636
21
-14.5285881
0
LINE
8
0
10
57.3037636
20
-14.5285881
11
57.3371399
21
-14.8297565
0
LINE
8
0
10
57.3371399
20
-14.8297565
11
57.4226452
21
-15.0879089
0
LINE
8
0
10
57.4226452
20
-15.0879089
11
57.4432038
21
-15.137542
0
LINE
8
0
10
57.4432038
20
-15.137542
11
57.5652063
21
-15.3496641
0
LINE
8
0
10
57.5652063
20
-15.3496641
11
57.606507
21
-15.4034876
0
LINE
8
0
10
57.606507
20
-15.4034876
11
57.7459409
21
-15.5670945
0
LINE
8
0
10
57.7459409
20
-15.5670945
11
57.8104254
21
-15.6165757
0
LINE
8
0
10
57.8104254
20
-15.6165757
11
58.1282004
21
-15.8400339
0
LINE
8
0
10
58.1282004
20
-15.8400339
11
58.2274861
21
-15.8811594
0
LINE
8
0
10
58.2274861
20
-15.8811594
11
58.5473574
21
-15.9753334
0
LINE
8
0
10
58.5473574
20
-15.9753334
11
58.5813437
21
-15.9819617
0
LINE
8
0
10
58.5813437
20
-15.9819617
11
58.620476
21
-15.9891208
0
LINE
8
0
10
58.620476
20
-15.9891208
11
58.67679
21
-15.99493
0
LINE
8
0
10
58.67679
20
-15.99493
11
58.7335442
21
-15.9984328
0
LINE
8
0
10
58.7335442
20
-15.9984328
11
58.73836
21
-15.99873
0
LINE
8
0
10
58.73836
20
-15.99873
11
58.7953362
21
-15.9999039
0
LINE
8
0
10
58.7953362
20
-15.9999039
11
58.8
21
-16
0
LINE
8
0
10
58.8
20
-16
11
59.6728738
21
-16
0
LINE
8
0
10
59.6728738
20
-16
11
69.5
21
-16
0
LINE
8
0
10
69.5
20
-16
11
69.5093314
21
-15.9987714
0
LINE
8
0
10
69.5093314
20
-15.9987714
11
70.14705
21
-15.91481
0
LINE
8
0
10
70.14705
20
-15.91481
11
70.1557454
21
-15.9112082
0
LINE
8
0
10
70.1557454
20
-15.9112082
11
70.75
21
-15.66506
0
LINE
8
0
10
70.75
20
-15.66506
11
70.757467
21
-15.6593305
0
LINE
8
0
10
70.757467
20
-15.6593305
11
71.26777
21
-15.26777
0
LINE
8
0
10
71.26777
20
-15.26777
11
71.2734995
21
-15.260303
0
LINE
8
0
10
71.2734995
20
-15.260303
11
71.66506
21
-14.75
0
LINE
8
0
10
71.66506
20
-14.75
11
71.6686618
21
-14.7413046
0
LINE
8
0
10
71.6686618
20
-14.7413046
11
71.91481
21
-14.14705
0
LINE
8
0
10
71.91481
20
-14.14705
11
71.9987714
21
-13.5093314
0
LINE
8
0
10
71.9987714
20
-13.5093314
11
72
21
-13.5
0
LINE
8
0
10
72
20
-13.5
11
72
21
-13.403225
0
LINE
8
0
10
72
20
-13.403225
11
72
21
-13.4003645
0
LINE
8
0
10
72
20
-13.4003645
11
72
21
-13.3846393
0
LINE
8
0
10
72
20
-13.3846393
11
72
21
-13.3606966
0
LINE
8
0
10
72
20
-13.3606966
11
72
21
-13.323807
0
LINE
8
0
10
72
20
-13.323807
11
72
21
-13.2980964
0
LINE
8
0
10
72
20
-13.2980964
11
72
21
-13.2655753
0
LINE
8
0
10
72
20
-13.2655753
11
72
21
-13.2240782
0
LINE
8
0
10
72
20
-13.2240782
11
72
21
-13.1705376
0
LINE
8
0
10
72
20
-13.1705376
11
72
21
-13.1005505
0
LINE
8
0
10
72
20
-13.1005505
11
72
21
-13.0077964
0
LINE
8
0
10
72
20
-13.0077964
11
72
21
-12.882899
0
LINE
8
0
10
72
20
-12.882899
11
72
21
-12.7116376
0
LINE
8
0
10
72
20
-12.7116376
11
72
21
-12.4722507
0
LINE
8
0
10
72
20
-12.4722507
11
72
21
-12.1314894
0
LINE
8
0
10
72
20
-12.1314894
11
72
21
-11.6396449
0
LINE
8
0
10
72
20
-11.6396449
11
72
21
-10.9301713
0
LINE
8
0
10
72
20
-10.9301713
11
72
21
-9.94506051
0
LINE
8
0
10
72
20
-9.94506051
11
72
21
-8.7304336
0
LINE
8
0
10
72
20
-8.7304336
11
72
21
-7.62197133
0
LINE
8
0
10
72
20
-7.62197133
11
72
21
11.2217542
0
LINE
8
0
10
72
20
11.2217542
11
72
21
11.4854789
0
LINE
8
0
10
72
20
11.4854789
11
72
21
12.2333269
0
LINE
8
0
10
72
20
12.2333269
11
72
21
13.0713726
0
LINE
8
0
10
72
20
13.0713726
11
72
21
13.0713726
0
ENDSEC
0
EOF
