0
SECTION
2
ENTITIES
0
LINE
8
0
10
16
20
22.9043868
11
16
21
22.8522696
0
LINE
8
0
10
16
20
22.8522696
11
23.324623
21
22.8522679
0
LINE
8
0
10
23.324623
20
22.8522679
11
24.1104445
21
22.8522679
0
LINE
8
0
10
24.1104445
20
22.8522679
11
29
21
22.8522679
0
LINE
8
0
10
29
20
22.8522679
11
29.4486473
21
22.0700725
0
LINE
8
0
10
29.4486473
20
22.0700725
11
29.8664527
21
21.3416497
0
LINE
8
0
10
29.8664527
20
21.3416497
11
30.2
21
20.7601336
0
LINE
8
0
10
30.2
20
20.7601336
11
30.2
21
17.7336594
0
LINE
8
0
10
30.2
20
17.7336594
11
30.2
21
16.3921472
0
LINE
8
0
10
30.2
20
16.3921472
11
30.2
21
14.3698892
0
LINE
8
0
10
30.2
20
14.3698892
11
30.2
21
13.5717573
0
LINE
8
0
10
30.2
20
13.5717573
11
30.2
21
12.8547456
0
LINE
8
0
10
30.2
20
12.8547456
11
30.2
21
12.5683654
0
LINE
8
0
10
30.2
20
12.5683654
11
30.2
21
12.3858827
0
LINE
8
0
10
30.2
20
12.3858827
11
30.2
21
12.0624896
0
LINE
8
0
10
30.2
20
12.0624896
11
30.2
21
11.6819281
0
LINE
8
0
10
30.2
20
11.6819281
11
30.2
21
11.3286517
0
LINE
8
0
10
30.2
20
11.3286517
11
30.2
21
11.0493581
0
LINE
8
0
10
30.2
20
11.0493581
11
30.2
21
10.8535326
0
LINE
8
0
10
30.2
20
10.8535326
11
30.2
21
10.7311594
0
LINE
8
0
10
30.2
20
10.7311594
11
30.2
21
10.666953
0
LINE
8
0
10
30.2
20
10.666953
11
30.2
21
10.6470761
0
LINE
8
0
10
30.2
20
10.6470761
11
30.2
21
10.0760606
0
LINE
8
0
10
30.2
20
10.0760606
11
30.2
21
10
0
LINE
8
0
10
30.2
20
10
11
34.977988
21
10
0
LINE
8
0
10
34.977988
20
10
11
35.2
21
10
0
LINE
8
0
10
35.2
20
10
11
35.2
21
9.82286047
0
LINE
8
0
10
35.2
20
9.82286047
11
35.2
21
8.78090759
0
LINE
8
0
10
35.2
20
8.78090759
11
35.2
21
8.459535
0
LINE
8
0
10
35.2
20
8.459535
11
35.2
21
8.07758775
0
LINE
8
0
10
35.2
20
8.07758775
11
35.2
21
7.66028963
0
LINE
8
0
10
35.2
20
7.66028963
11
35.2
21
7.2548039
0
LINE
8
0
10
35.2
20
7.2548039
11
35.2
21
6.92129329
0
LINE
8
0
10
35.2
20
6.92129329
11
35.2
21
-11.0362707
0
LINE
8
0
10
35.2
20
-11.0362707
11
35.2
21
-11.3659086
0
LINE
8
0
10
35.2
20
-11.3659086
11
35.2
21
-11.7418931
0
LINE
8
0
10
35.2
20
-11.7418931
11
35.2
21
-12.1115949
0
LINE
8
0
10
35.2
20
-12.1115949
11
35.2
21
-12.437484
0
LINE
8
0
10
35.2
20
-12.437484
11
35.2
21
-12.7023022
0
LINE
8
0
10
35.2
20
-12.7023022
11
35.2
21
-12.9044653
0
LINE
8
0
10
35.2
20
-12.9044653
11
35.2
21
-13.0508568
0
LINE
8
0
10
35.2
20
-13.0508568
11
35.2
21
-13.1512747
0
LINE
8
0
10
35.2
20
-13.1512747
11
35.2
21
-13.2153631
0
LINE
8
0
10
35.2
20
-13.2153631
11
35.2
21
-13.2513466
0
LINE
8
0
10
35.2
20
-13.2513466
11
35.2
21
-13.5
0
LINE
8
0
10
35.2
20
-13.5
11
35.1885002
21
-13.7340456
0
LINE
8
0
10
35.1885002
20
-13.7340456
11
35.1770174
21
-13.8051773
0
LINE
8
0
10
35.1770174
20
-13.8051773
11
35.14625
21
-14.0122178
0
LINE
8
0
10
35.14625
20
-14.0122178
11
35.0275228
21
-14.4042029
0
LINE
8
0
10
35.0275228
20
-14.4042029
11
34.9851743
21
-14.5064413
0
LINE
8
0
10
34.9851743
20
-14.5064413
11
34.7954377
21
-14.8619646
0
LINE
8
0
10
34.7954377
20
-14.8619646
11
34.7183263
21
-14.9624604
0
LINE
8
0
10
34.7183263
20
-14.9624604
11
34.46777
21
-15.26777
0
LINE
8
0
10
34.46777
20
-15.26777
11
34.1872028
21
-15.4980212
0
LINE
8
0
10
34.1872028
20
-15.4980212
11
34.0528909
21
-15.6010799
0
LINE
8
0
10
34.0528909
20
-15.6010799
11
33.7432882
21
-15.7670028
0
LINE
8
0
10
33.7432882
20
-15.7670028
11
33.5652994
21
-15.8407281
0
LINE
8
0
10
33.5652994
20
-15.8407281
11
33.2403557
21
-15.9396888
0
LINE
8
0
10
33.2403557
20
-15.9396888
11
32.9350778
21
-15.9690499
0
LINE
8
0
10
32.9350778
20
-15.9690499
11
32.8175389
21
-15.9845249
0
LINE
8
0
10
32.8175389
20
-15.9845249
11
32.7600514
21
-15.9940851
0
LINE
8
0
10
32.7600514
20
-15.9940851
11
32.7
21
-16
0
LINE
8
0
10
32.7
20
-16
11
30.755623
21
-16
0
LINE
8
0
10
30.755623
20
-16
11
30.7
21
-16
0
LINE
8
0
10
30.7
20
-16
11
30.2176428
21
-15.9524892
0
LINE
8
0
10
30.2176428
20
-15.9524892
11
30.2086855
21
-15.9511242
0
LINE
8
0
10
30.2086855
20
-15.9511242
11
29.9532609
21
-15.8733924
0
LINE
8
0
10
29.9532609
20
-15.8733924
11
20.7973281
21
-15.8809718
0
LINE
8
0
10
20.7973281
20
-15.8809718
11
16.55
21
-15.8735174
0
LINE
8
0
10
16.55
20
-15.8735174
11
13.7975936
21
-15.8767925
0
LINE
8
0
10
13.7975936
20
-15.8767925
11
4.22513352
21
-15.8856599
0
LINE
8
0
10
4.22513352
20
-15.8856599
11
3.7340538
21
-15.8854109
0
LINE
8
0
10
3.7340538
20
-15.8854109
11
3.73055769
21
-15.8845099
0
LINE
8
0
10
3.73055769
20
-15.8845099
11
3.73035607
21
-15.8844265
0
LINE
8
0
10
3.73035607
20
-15.8844265
11
3.40241274
21
-15.7332016
0
LINE
8
0
10
3.40241274
20
-15.7332016
11
3.12135052
21
-15.5346214
0
LINE
8
0
10
3.12135052
20
-15.5346214
11
3.09191526
21
-15.5120562
0
LINE
8
0
10
3.09191526
20
-15.5120562
11
2.85170158
21
-15.2641384
0
LINE
8
0
10
2.85170158
20
-15.2641384
11
2.820427
21
-15.2233809
0
LINE
8
0
10
2.820427
20
-15.2233809
11
2.61886424
21
-14.9085389
0
LINE
8
0
10
2.61886424
20
-14.9085389
11
2.59445461
21
-14.8496091
0
LINE
8
0
10
2.59445461
20
-14.8496091
11
2.45780536
21
-14.4754769
0
LINE
8
0
10
2.45780536
20
-14.4754769
11
2.42230036
21
-14.2779171
0
LINE
8
0
10
2.42230036
20
-14.2779171
11
2.41370317
21
-14.2250949
0
LINE
8
0
10
2.41370317
20
-14.2250949
11
2.4
21
-14
0
LINE
8
0
10
2.4
20
-14
11
2.4
21
-13.9978
0
LINE
8
0
10
2.4
20
-13.9978
11
2.4
21
-13.3899413
0
LINE
8
0
10
2.4
20
-13.3899413
11
2.4
21
-12.903453
0
LINE
8
0
10
2.4
20
-12.903453
11
2.4
21
-12.8632931
0
LINE
8
0
10
2.4
20
-12.8632931
11
2.4
21
-9.70026462
0
LINE
8
0
10
2.4
20
-9.70026462
11
2.4
21
-4.67875188
0
LINE
8
0
10
2.4
20
-4.67875188
11
2.4
21
-3.94877363
0
LINE
8
0
10
2.4
20
-3.94877363
11
2.4
21
7.11580482
0
LINE
8
0
10
2.4
20
7.11580482
11
2.4
21
7.93703177
0
LINE
8
0
10
2.4
20
7.93703177
11
2.4
21
8.92593163
0
LINE
8
0
10
2.4
20
8.92593163
11
2.4
21
10.1867652
0
LINE
8
0
10
2.4
20
10.1867652
11
2.4
21
10.556849
0
LINE
8
0
10
2.4
20
10.556849
11
2.59767382
21
10.556849
0
LINE
8
0
10
2.59767382
20
10.556849
11
11
21
10.556849
0
LINE
8
0
10
11
20
10.556849
11
11.1976738
21
10.556849
0
LINE
8
0
10
11.1976738
20
10.556849
11
19.6
21
10.556849
0
LINE
8
0
10
19.6
20
10.556849
11
19.7976738
21
10.556849
0
LINE
8
0
10
19.7976738
20
10.556849
11
28.2
21
10.556849
0
LINE
8
0
10
28.2
20
10.556849
11
28.2
21
10.5825423
0
LINE
8
0
10
28.2
20
10.5825423
11
28.2
21
10.6024234
0
LINE
8
0
10
28.2
20
10.6024234
11
28.2
21
11.3587806
0
LINE
8
0
10
28.2
20
11.3587806
11
28.2
21
11.6485871
0
LINE
8
0
10
28.2
20
11.6485871
11
28.2
21
11.8018352
0
LINE
8
0
10
28.2
20
11.8018352
11
28.2
21
12.0946454
0
LINE
8
0
10
28.2
20
12.0946454
11
28.2
21
12.1214286
0
LINE
8
0
10
28.2
20
12.1214286
11
28.2
21
12.3909387
0
LINE
8
0
10
28.2
20
12.3909387
11
28.2
21
12.3926755
0
LINE
8
0
10
28.2
20
12.3926755
11
28.2
21
12.3942934
0
LINE
8
0
10
28.2
20
12.3942934
11
28.2
21
12.655902
0
LINE
8
0
10
28.2
20
12.655902
11
28.2
21
12.6758656
0
LINE
8
0
10
28.2
20
12.6758656
11
28.2
21
12.9455416
0
LINE
8
0
10
28.2
20
12.9455416
11
28.2
21
13.0460822
0
LINE
8
0
10
28.2
20
13.0460822
11
28.2
21
13.3096407
0
LINE
8
0
10
28.2
20
13.3096407
11
28.2
21
13.7797359
0
LINE
8
0
10
28.2
20
13.7797359
11
28.2
21
14.4713739
0
LINE
8
0
10
28.2
20
14.4713739
11
24.920874
21
14.4713739
0
LINE
8
0
10
24.920874
20
14.4713739
11
4.99597474
21
14.4713739
0
LINE
8
0
10
4.99597474
20
14.4713739
11
2.4
21
14.4713725
0
LINE
8
0
10
2.4
20
14.4713725
11
2.4
21
23.9361023
0
LINE
8
0
10
2.4
20
23.9361023
11
2.4
21
26.1911856
0
LINE
8
0
10
2.4
20
26.1911856
11
2.4
21
28.4826357
0
LINE
8
0
10
2.4
20
28.4826357
11
2.4
21
31.1559024
0
LINE
8
0
10
2.4
20
31.1559024
11
10.2414152
21
31.1559024
0
LINE
8
0
10
10.2414152
20
31.1559024
11
16
21
31.1559024
0
LINE
8
0
10
16
20
31.1559024
11
16
21
26.1911856
0
LINE
8
0
10
16
20
26.1911856
11
16
21
24.4167214
0
LINE
8
0
10
16
20
24.4167214
11
16
21
23.516352
0
LINE
8
0
10
16
20
23.516352
11
16
21
23.090611
0
LINE
8
0
10
16
20
23.090611
11
16
21
22.9043868
0
LINE
8
0
10
16
20
22.9043868
11
16
21
22.9043868
0
LINE
8
0
10
16
20
34.9878531
11
16
21
34.80487
0
LINE
8
0
10
16
20
34.80487
11
16
21
34.7004986
0
LINE
8
0
10
16
20
34.7004986
11
15.4119798
21
34.7004986
0
LINE
8
0
10
15.4119798
20
34.7004986
11
2.4
21
34.7004986
0
LINE
8
0
10
2.4
20
34.7004986
11
2.4
21
34.80487
0
LINE
8
0
10
2.4
20
34.80487
11
2.4
21
34.9878531
0
LINE
8
0
10
2.4
20
34.9878531
11
2.4
21
39.9193887
0
LINE
8
0
10
2.4
20
39.9193887
11
2.4
21
40.0072305
0
LINE
8
0
10
2.4
20
40.0072305
11
2.4
21
40.123878
0
LINE
8
0
10
2.4
20
40.123878
11
2.4
21
40.264571
0
LINE
8
0
10
2.4
20
40.264571
11
2.4
21
42.5146634
0
LINE
8
0
10
2.4
20
42.5146634
11
2.4
21
42.6517958
0
LINE
8
0
10
2.4
20
42.6517958
11
2.4
21
42.8530794
0
LINE
8
0
10
2.4
20
42.8530794
11
2.4
21
42.9912395
0
LINE
8
0
10
2.4
20
42.9912395
11
2.4
21
43.1282879
0
LINE
8
0
10
2.4
20
43.1282879
11
2.4
21
43.3441331
0
LINE
8
0
10
2.4
20
43.3441331
11
2.4
21
45.983199
0
LINE
8
0
10
2.4
20
45.983199
11
2.4
21
47.2941298
0
LINE
8
0
10
2.4
20
47.2941298
11
2.4
21
48.0176803
0
LINE
8
0
10
2.4
20
48.0176803
11
2.4
21
48.3913197
0
LINE
8
0
10
2.4
20
48.3913197
11
2.44573044
21
48.740868
0
LINE
8
0
10
2.44573044
20
48.740868
11
2.468148
21
48.9202129
0
LINE
8
0
10
2.468148
20
48.9202129
11
2.5053065
21
49.0127322
0
LINE
8
0
10
2.5053065
20
49.0127322
11
2.63804501
21
49.3432381
0
LINE
8
0
10
2.63804501
20
49.3432381
11
2.66173669
21
49.406108
0
LINE
8
0
10
2.66173669
20
49.406108
11
2.667949
21
49.4225933
0
LINE
8
0
10
2.667949
20
49.4225933
11
2.90966213
21
49.7688389
0
LINE
8
0
10
2.90966213
20
49.7688389
11
2.985786
21
49.8778852
0
LINE
8
0
10
2.985786
20
49.8778852
11
3.20889264
21
50.066061
0
LINE
8
0
10
3.20889264
20
50.066061
11
3.4
21
50.2272495
0
LINE
8
0
10
3.4
20
50.2272495
11
3.55474768
21
50.2977057
0
LINE
8
0
10
3.55474768
20
50.2977057
11
3.882362
21
50.4468648
0
LINE
8
0
10
3.882362
20
50.4468648
11
4.36066824
21
50.5160802
0
LINE
8
0
10
4.36066824
20
50.5160802
11
4.4
21
50.5232432
0
LINE
8
0
10
4.4
20
50.5232432
11
4.80277385
21
50.5232432
0
LINE
8
0
10
4.80277385
20
50.5232432
11
13
21
50.5232432
0
LINE
8
0
10
13
20
50.5232432
11
13.0648639
21
50.518593
0
LINE
8
0
10
13.0648639
20
50.518593
11
13.1559477
21
50.5134641
0
LINE
8
0
10
13.1559477
20
50.5134641
11
13.5437339
21
50.497741
0
LINE
8
0
10
13.5437339
20
50.497741
11
13.8346996
21
50.4622162
0
LINE
8
0
10
13.8346996
20
50.4622162
11
14.1196359
21
50.4328946
0
LINE
8
0
10
14.1196359
20
50.4328946
11
14.3276301
21
50.3974195
0
LINE
8
0
10
14.3276301
20
50.3974195
11
14.6824681
21
50.3469475
0
LINE
8
0
10
14.6824681
20
50.3469475
11
14.7321893
21
50.3399446
0
LINE
8
0
10
14.7321893
20
50.3399446
11
14.7639958
21
50.3363232
0
LINE
8
0
10
14.7639958
20
50.3363232
11
15.0537051
21
50.2910623
0
LINE
8
0
10
15.0537051
20
50.2910623
11
15.2790348
21
50.2637239
0
LINE
8
0
10
15.2790348
20
50.2637239
11
15.378643
21
50.2518489
0
LINE
8
0
10
15.378643
20
50.2518489
11
15.5225975
21
50.2395877
0
LINE
8
0
10
15.5225975
20
50.2395877
11
15.6765705
21
50.2232288
0
LINE
8
0
10
15.6765705
20
50.2232288
11
15.9135573
21
50.2131733
0
LINE
8
0
10
15.9135573
20
50.2131733
11
16.2286141
21
50.2
0
LINE
8
0
10
16.2286141
20
50.2
11
16.4858722
21
50.2
0
LINE
8
0
10
16.4858722
20
50.2
11
17.223422
21
50.2
0
LINE
8
0
10
17.223422
20
50.2
11
17.5951335
21
50.2
0
LINE
8
0
10
17.5951335
20
50.2
11
17.8
21
50.2
0
LINE
8
0
10
17.8
20
50.2
11
17.8
21
47.1057513
0
LINE
8
0
10
17.8
20
47.1057513
11
17.8
21
45.2
0
LINE
8
0
10
17.8
20
45.2
11
17.8
21
44.8278409
0
LINE
8
0
10
17.8
20
44.8278409
11
17.8
21
43.9940787
0
LINE
8
0
10
17.8
20
43.9940787
11
17.8
21
43.5990807
0
LINE
8
0
10
17.8
20
43.5990807
11
17.8
21
43.1651897
0
LINE
8
0
10
17.8
20
43.1651897
11
17.8
21
42.4079304
0
LINE
8
0
10
17.8
20
42.4079304
11
17.8
21
41.8213586
0
LINE
8
0
10
17.8
20
41.8213586
11
17.8
21
41.4318576
0
LINE
8
0
10
17.8
20
41.4318576
11
17.8
21
41.2103665
0
LINE
8
0
10
17.8
20
41.2103665
11
17.8
21
34.9878518
0
LINE
8
0
10
17.8
20
34.9878518
11
16.0494555
21
34.987853
0
LINE
8
0
10
16.0494555
20
34.987853
11
16
21
34.9878531
0
LINE
8
0
10
16
20
34.9878531
11
16
21
34.9878531
0
LINE
8
0
10
72
20
13.8292093
11
72
21
14.0559714
0
LINE
8
0
10
72
20
14.0559714
11
70.1890019
21
14.0524863
0
LINE
8
0
10
70.1890019
20
14.0524863
11
64.2
21
14.0655929
0
LINE
8
0
10
64.2
20
14.0655929
11
64.2
21
14.588274
0
LINE
8
0
10
64.2
20
14.588274
11
64.2
21
15.019369
0
LINE
8
0
10
64.2
20
15.019369
11
64.2
21
15.1414589
0
LINE
8
0
10
64.2
20
15.1414589
11
64.2
21
15.2532716
0
LINE
8
0
10
64.2
20
15.2532716
11
63.5273739
21
15.2532716
0
LINE
8
0
10
63.5273739
20
15.2532716
11
62
21
15.2532716
0
LINE
8
0
10
62
20
15.2532716
11
62
21
14.9700513
0
LINE
8
0
10
62
20
14.9700513
11
62
21
14.0825429
0
LINE
8
0
10
62
20
14.0825429
11
62
21
13.3982444
0
LINE
8
0
10
62
20
13.3982444
11
62
21
12.9048766
0
LINE
8
0
10
62
20
12.9048766
11
62
21
12.5672934
0
LINE
8
0
10
62
20
12.5672934
11
62
21
12.3508206
0
LINE
8
0
10
62
20
12.3508206
11
62
21
10
0
LINE
8
0
10
62
20
10
11
58.2634905
21
10
0
LINE
8
0
10
58.2634905
20
10
11
57.3
21
10
0
LINE
8
0
10
57.3
20
10
11
57.3
21
9.69528663
0
LINE
8
0
10
57.3
20
9.69528663
11
57.3
21
9.4900698
0
LINE
8
0
10
57.3
20
9.4900698
11
57.3
21
9.22496806
0
LINE
8
0
10
57.3
20
9.22496806
11
57.3
21
8.9109279
0
LINE
8
0
10
57.3
20
8.9109279
11
57.3
21
8.57711779
0
LINE
8
0
10
57.3
20
8.57711779
11
57.3
21
8.2679444
0
LINE
8
0
10
57.3
20
8.2679444
11
57.3
21
8.02864905
0
LINE
8
0
10
57.3
20
8.02864905
11
57.3
21
-10.0482532
0
LINE
8
0
10
57.3
20
-10.0482532
11
57.3
21
-10.499463
0
LINE
8
0
10
57.3
20
-10.499463
11
57.3
21
-10.974343
0
LINE
8
0
10
57.3
20
-10.974343
11
57.3
21
-11.4175155
0
LINE
8
0
10
57.3
20
-11.4175155
11
57.3
21
-11.7979269
0
LINE
8
0
10
57.3
20
-11.7979269
11
57.3
21
-12.1058673
0
LINE
8
0
10
57.3
20
-12.1058673
11
57.3
21
-12.3447537
0
LINE
8
0
10
57.3
20
-12.3447537
11
57.3
21
-12.5238518
0
LINE
8
0
10
57.3
20
-12.5238518
11
57.3
21
-12.653771
0
LINE
8
0
10
57.3
20
-12.653771
11
57.3
21
-12.9450589
0
LINE
8
0
10
57.3
20
-12.9450589
11
57.3
21
-13.0404833
0
LINE
8
0
10
57.3
20
-13.0404833
11
57.3
21
-13.2985362
0
LINE
8
0
10
57.3
20
-13.2985362
11
57.3
21
-14.17729
0
LINE
8
0
10
57.3
20
-14.17729
11
57.3
21
-14.4831502
0
LINE
8
0
10
57.3
20
-14.4831502
11
57.3
21
-14.5
0
LINE
8
0
10
57.3
20
-14.5
11
57.3018347
21
-14.5166775
0
LINE
8
0
10
57.3018347
20
-14.5166775
11
57.3033588
21
-14.5255137
0
LINE
8
0
10
57.3033588
20
-14.5255137
11
57.3053128
21
-14.5403556
0
LINE
8
0
10
57.3053128
20
-14.5403556
11
57.3127016
21
-14.5964809
0
LINE
8
0
10
57.3127016
20
-14.5964809
11
57.3397771
21
-14.8407951
0
LINE
8
0
10
57.3397771
20
-14.8407951
11
57.4091408
21
-15.0502138
0
LINE
8
0
10
57.4091408
20
-15.0502138
11
57.454107
21
-15.1587717
0
LINE
8
0
10
57.454107
20
-15.1587717
11
57.553078
21
-15.3308496
0
LINE
8
0
10
57.553078
20
-15.3308496
11
57.631583
21
-15.4331584
0
LINE
8
0
10
57.631583
20
-15.4331584
11
57.7446948
21
-15.5658798
0
LINE
8
0
10
57.7446948
20
-15.5658798
11
57.855652
21
-15.6510211
0
LINE
8
0
10
57.855652
20
-15.6510211
11
58.1134378
21
-15.8322951
0
LINE
8
0
10
58.1134378
20
-15.8322951
11
58.262275
21
-15.8939455
0
LINE
8
0
10
58.262275
20
-15.8939455
11
58.5217614
21
-15.9703415
0
LINE
8
0
10
58.5217614
20
-15.9703415
11
58.5685457
21
-15.9794657
0
LINE
8
0
10
58.5685457
20
-15.9794657
11
58.6224138
21
-15.9893207
0
LINE
8
0
10
58.6224138
20
-15.9893207
11
58.67679
21
-15.99493
0
LINE
8
0
10
58.67679
20
-15.99493
11
58.7315912
21
-15.9983122
0
LINE
8
0
10
58.7315912
20
-15.9983122
11
58.73836
21
-15.99873
0
LINE
8
0
10
58.73836
20
-15.99873
11
58.7933692
21
-15.9998634
0
LINE
8
0
10
58.7933692
20
-15.9998634
11
58.8
21
-16
0
LINE
8
0
10
58.8
20
-16
11
60.0410153
21
-16
0
LINE
8
0
10
60.0410153
20
-16
11
69.5
21
-16
0
LINE
8
0
10
69.5
20
-16
11
69.5574611
21
-15.9924347
0
LINE
8
0
10
69.5574611
20
-15.9924347
11
70.14705
21
-15.91481
0
LINE
8
0
10
70.14705
20
-15.91481
11
70.2005948
21
-15.892631
0
LINE
8
0
10
70.2005948
20
-15.892631
11
70.75
21
-15.66506
0
LINE
8
0
10
70.75
20
-15.66506
11
70.7959805
21
-15.6297787
0
LINE
8
0
10
70.7959805
20
-15.6297787
11
71.26777
21
-15.26777
0
LINE
8
0
10
71.26777
20
-15.26777
11
71.3030513
21
-15.2217895
0
LINE
8
0
10
71.3030513
20
-15.2217895
11
71.66506
21
-14.75
0
LINE
8
0
10
71.66506
20
-14.75
11
71.687239
21
-14.6964552
0
LINE
8
0
10
71.687239
20
-14.6964552
11
71.91481
21
-14.14705
0
LINE
8
0
10
71.91481
20
-14.14705
11
71.9924347
21
-13.5574611
0
LINE
8
0
10
71.9924347
20
-13.5574611
11
72
21
-13.5
0
LINE
8
0
10
72
20
-13.5
11
72
21
-12.9040787
0
LINE
8
0
10
72
20
-12.9040787
11
72
21
-12.8864645
0
LINE
8
0
10
72
20
-12.8864645
11
72
21
-12.7896315
0
LINE
8
0
10
72
20
-12.7896315
11
72
21
-12.6421969
0
LINE
8
0
10
72
20
-12.6421969
11
72
21
-12.4150385
0
LINE
8
0
10
72
20
-12.4150385
11
72
21
-12.2567174
0
LINE
8
0
10
72
20
-12.2567174
11
72
21
-12.0564586
0
LINE
8
0
10
72
20
-12.0564586
11
72
21
-11.800928
0
LINE
8
0
10
72
20
-11.800928
11
72
21
-11.4712352
0
LINE
8
0
10
72
20
-11.4712352
11
72
21
-11.0402688
0
LINE
8
0
10
72
20
-11.0402688
11
72
21
-10.4691073
0
LINE
8
0
10
72
20
-10.4691073
11
72
21
-9.70001381
0
LINE
8
0
10
72
20
-9.70001381
11
72
21
-8.64541947
0
LINE
8
0
10
72
20
-8.64541947
11
72
21
-7.17132254
0
LINE
8
0
10
72
20
-7.17132254
11
72
21
-5.07298163
0
LINE
8
0
10
72
20
-5.07298163
11
72
21
-2.0442996
0
LINE
8
0
10
72
20
-2.0442996
11
72
21
0.759825508
0
LINE
8
0
10
72
20
0.759825508
11
71.9958536
21
1.02399124
0
LINE
8
0
10
71.9958536
20
1.02399124
11
71.9915472
21
1.37860243
0
LINE
8
0
10
71.9915472
20
1.37860243
11
71.985272
21
1.90140557
0
LINE
8
0
10
71.985272
20
1.90140557
11
71.9788551
21
2.66571636
0
LINE
8
0
10
71.9788551
20
2.66571636
11
71.9763111
21
2.76911805
0
LINE
8
0
10
71.9763111
20
2.76911805
11
71.9758192
21
2.80547311
0
LINE
8
0
10
71.9758192
20
2.80547311
11
71.9651619
21
3.63720411
0
LINE
8
0
10
71.9651619
20
3.63720411
11
71.9649077
21
3.79934881
0
LINE
8
0
10
71.9649077
20
3.79934881
11
71.9643576
21
4.51632751
0
LINE
8
0
10
71.9643576
20
4.51632751
11
71.9658955
21
4.66051122
0
LINE
8
0
10
71.9658955
20
4.66051122
11
71.9746028
21
5.41789733
0
LINE
8
0
10
71.9746028
20
5.41789733
11
71.9752025
21
5.44417822
0
LINE
8
0
10
71.9752025
20
5.44417822
11
71.9773101
21
5.53320544
0
LINE
8
0
10
71.9773101
20
5.53320544
11
71.9818481
21
6.14608361
0
LINE
8
0
10
71.9818481
20
6.14608361
11
71.9834392
21
6.35356433
0
LINE
8
0
10
71.9834392
20
6.35356433
11
71.9886699
21
6.81388606
0
LINE
8
0
10
71.9886699
20
6.81388606
11
71.9947521
21
7.33683456
0
LINE
8
0
10
71.9947521
20
7.33683456
11
71.996791
21
7.46999834
0
LINE
8
0
10
71.996791
20
7.46999834
11
72
21
7.6763785
0
LINE
8
0
10
72
20
7.6763785
11
72
21
9.58941144
0
LINE
8
0
10
72
20
9.58941144
11
72
21
10.1183597
0
LINE
8
0
10
72
20
10.1183597
11
72
21
12.0343255
0
LINE
8
0
10
72
20
12.0343255
11
72
21
13.5703134
0
LINE
8
0
10
72
20
13.5703134
11
72
21
13.8292093
0
LINE
8
0
10
72
20
13.8292093
11
72
21
13.8292093
0
LINE
8
0
10
72
20
17.9893183
11
72
21
19.7876128
0
LINE
8
0
10
72
20
19.7876128
11
72
21
22.852268
0
LINE
8
0
10
72
20
22.852268
11
68.5864571
21
22.852268
0
LINE
8
0
10
68.5864571
20
22.852268
11
63.2
21
22.8522689
0
LINE
8
0
10
63.2
20
22.8522689
11
62.7786995
21
22.1177511
0
LINE
8
0
10
62.7786995
20
22.1177511
11
62.6101857
21
21.823956
0
LINE
8
0
10
62.6101857
20
21.823956
11
62.4554729
21
21.554219
0
LINE
8
0
10
62.4554729
20
21.554219
11
62.4068105
21
21.4693806
0
LINE
8
0
10
62.4068105
20
21.4693806
11
62
21
20.7601354
0
LINE
8
0
10
62
20
20.7601354
11
62
21
18.0884533
0
LINE
8
0
10
62
20
18.0884533
11
62
21
16.6882795
0
LINE
8
0
10
62
20
16.6882795
11
62
21
16.5480597
0
LINE
8
0
10
62
20
16.5480597
11
62.5464552
21
16.5480597
0
LINE
8
0
10
62.5464552
20
16.5480597
11
64.2
21
16.5480597
0
LINE
8
0
10
64.2
20
16.5480597
11
64.2
21
16.6376468
0
LINE
8
0
10
64.2
20
16.6376468
11
64.2
21
17.3134826
0
LINE
8
0
10
64.2
20
17.3134826
11
64.2
21
17.9893183
0
LINE
8
0
10
64.2
20
17.9893183
11
67.8882853
21
17.9893183
0
LINE
8
0
10
67.8882853
20
17.9893183
11
72
21
17.9893183
0
LINE
8
0
10
72
20
17.9893183
11
72
21
17.9893183
0
ENDSEC
0
EOF
