0
SECTION
2
ENTITIES
0
LINE
8
0
10
16
20
33.9584677
11
16.1644984
21
33.9584673
0
LINE
8
0
10
16.1644984
20
33.9584673
11
17.8
21
33.9584662
0
LINE
8
0
10
17.8
20
33.9584662
11
17.8
21
41.0540799
0
LINE
8
0
10
17.8
20
41.0540799
11
17.8
21
41.3066491
0
LINE
8
0
10
17.8
20
41.3066491
11
17.8
21
41.7508021
0
LINE
8
0
10
17.8
20
41.7508021
11
17.8
21
42.4196775
0
LINE
8
0
10
17.8
20
42.4196775
11
17.8
21
43.2831899
0
LINE
8
0
10
17.8
20
43.2831899
11
17.8
21
43.6402445
0
LINE
8
0
10
17.8
20
43.6402445
11
17.8
21
43.9652934
0
LINE
8
0
10
17.8
20
43.9652934
11
17.8
21
44.8988725
0
LINE
8
0
10
17.8
20
44.8988725
11
17.8
21
45.2
0
LINE
8
0
10
17.8
20
45.2
11
17.8
21
46.7420132
0
LINE
8
0
10
17.8
20
46.7420132
11
17.8
21
50.2
0
LINE
8
0
10
17.8
20
50.2
11
17.634235
21
50.2
0
LINE
8
0
10
17.634235
20
50.2
11
17.3334696
21
50.2
0
LINE
8
0
10
17.3334696
20
50.2
11
16.736691
21
50.2
0
LINE
8
0
10
16.736691
20
50.2
11
15.9335909
21
50.2
0
LINE
8
0
10
15.9335909
20
50.2
11
15.6770076
21
50.2107284
0
LINE
8
0
10
15.6770076
20
50.2107284
11
15.3237151
21
50.2224381
0
LINE
8
0
10
15.3237151
20
50.2224381
11
15.0876348
21
50.2422047
0
LINE
8
0
10
15.0876348
20
50.2422047
11
14.9963322
21
50.2499813
0
LINE
8
0
10
14.9963322
20
50.2499813
11
14.874573
21
50.2644971
0
LINE
8
0
10
14.874573
20
50.2644971
11
14.6088445
21
50.2875936
0
LINE
8
0
10
14.6088445
20
50.2875936
11
14.2003108
21
50.3336775
0
LINE
8
0
10
14.2003108
20
50.3336775
11
14.1945657
21
50.3343316
0
LINE
8
0
10
14.1945657
20
50.3343316
11
14.1911376
21
50.3348144
0
LINE
8
0
10
14.1911376
20
50.3348144
11
14.0871804
21
50.3436535
0
LINE
8
0
10
14.0871804
20
50.3436535
11
13.5788549
21
50.3869111
0
LINE
8
0
10
13.5788549
20
50.3869111
11
13.5675162
21
50.3874311
0
LINE
8
0
10
13.5675162
20
50.3874311
11
13
21
50.4281172
0
LINE
8
0
10
13
20
50.4281172
11
8.07838436
21
50.4281172
0
LINE
8
0
10
8.07838436
20
50.4281172
11
4.4
21
50.4281172
0
LINE
8
0
10
4.4
20
50.4281172
11
4.04079765
21
50.3627007
0
LINE
8
0
10
4.04079765
20
50.3627007
11
3.882362
21
50.3397736
0
LINE
8
0
10
3.882362
20
50.3397736
11
3.77384201
21
50.2903656
0
LINE
8
0
10
3.77384201
20
50.2903656
11
3.4
21
50.1201565
0
LINE
8
0
10
3.4
20
50.1201565
11
3.36844937
21
50.0935453
0
LINE
8
0
10
3.36844937
20
50.0935453
11
3.22696636
21
49.9742137
0
LINE
8
0
10
3.22696636
20
49.9742137
11
3.03140281
21
49.8194492
0
LINE
8
0
10
3.03140281
20
49.8194492
11
2.985786
21
49.783349
0
LINE
8
0
10
2.985786
20
49.783349
11
2.76647184
21
49.4885779
0
LINE
8
0
10
2.76647184
20
49.4885779
11
2.667949
21
49.3561574
0
LINE
8
0
10
2.667949
20
49.3561574
11
2.56614064
21
49.1026646
0
LINE
8
0
10
2.56614064
20
49.1026646
11
2.468148
21
48.858677
0
LINE
8
0
10
2.468148
20
48.858677
11
2.40902948
21
48.3857172
0
LINE
8
0
10
2.40902948
20
48.3857172
11
2.4
21
48.3166988
0
LINE
8
0
10
2.4
20
48.3166988
11
2.4
21
48.2429237
0
LINE
8
0
10
2.4
20
48.2429237
11
2.4
21
47.4644092
0
LINE
8
0
10
2.4
20
47.4644092
11
2.4
21
46.3998984
0
LINE
8
0
10
2.4
20
46.3998984
11
2.4
21
43.412292
0
LINE
8
0
10
2.4
20
43.412292
11
2.4
21
43.1679402
0
LINE
8
0
10
2.4
20
43.1679402
11
2.4
21
43.0358489
0
LINE
8
0
10
2.4
20
43.0358489
11
2.4
21
42.9026861
0
LINE
8
0
10
2.4
20
42.9026861
11
2.4
21
42.6737714
0
LINE
8
0
10
2.4
20
42.6737714
11
2.4
21
42.5413864
0
LINE
8
0
10
2.4
20
42.5413864
11
2.4
21
40.3691902
0
LINE
8
0
10
2.4
20
40.3691902
11
2.4
21
40.1982613
0
LINE
8
0
10
2.4
20
40.1982613
11
2.4
21
40.0565454
0
LINE
8
0
10
2.4
20
40.0565454
11
2.4
21
39.9498257
0
LINE
8
0
10
2.4
20
39.9498257
11
2.4
21
34.9168515
0
LINE
8
0
10
2.4
20
34.9168515
11
2.4
21
34.8950584
0
LINE
8
0
10
2.4
20
34.8950584
11
2.4
21
34.879464
0
LINE
8
0
10
2.4
20
34.879464
11
2.4
21
34.6676936
0
LINE
8
0
10
2.4
20
34.6676936
11
2.4
21
33.9584677
0
LINE
8
0
10
2.4
20
33.9584677
11
4.25174632
21
33.9584677
0
LINE
8
0
10
4.25174632
20
33.9584677
11
16
21
33.9584677
0
LINE
8
0
10
16
20
33.9584677
11
16
21
33.9584677
0
LINE
8
0
10
16
20
23.7700602
11
16
21
23.3919386
0
LINE
8
0
10
16
20
23.3919386
11
16
21
23.2265436
0
LINE
8
0
10
16
20
23.2265436
11
16
21
23.1802558
0
LINE
8
0
10
16
20
23.1802558
11
22.5053598
21
23.1802542
0
LINE
8
0
10
22.5053598
20
23.1802542
11
23.4046177
21
23.1802542
0
LINE
8
0
10
23.4046177
20
23.1802542
11
29
21
23.1802542
0
LINE
8
0
10
29
20
23.1802542
11
29.3984658
21
22.4855479
0
LINE
8
0
10
29.3984658
20
22.4855479
11
29.9037601
21
21.6045925
0
LINE
8
0
10
29.9037601
20
21.6045925
11
30.2
21
21.0881193
0
LINE
8
0
10
30.2
20
21.0881193
11
30.2
21
17.427898
0
LINE
8
0
10
30.2
20
17.427898
11
30.2
21
15.8054718
0
LINE
8
0
10
30.2
20
15.8054718
11
30.2
21
13.3597507
0
LINE
8
0
10
30.2
20
13.3597507
11
30.2
21
13.021001
0
LINE
8
0
10
30.2
20
13.021001
11
28.9572835
21
13.021001
0
LINE
8
0
10
28.9572835
20
13.021001
11
28.2
21
13.021001
0
LINE
8
0
10
28.2
20
13.021001
11
28.2
21
13.1426554
0
LINE
8
0
10
28.2
20
13.1426554
11
28.2
21
13.7910725
0
LINE
8
0
10
28.2
20
13.7910725
11
28.2
21
14.7450706
0
LINE
8
0
10
28.2
20
14.7450706
11
23.676998
21
14.7450706
0
LINE
8
0
10
23.676998
20
14.7450706
11
5.98070993
21
14.7450706
0
LINE
8
0
10
5.98070993
20
14.7450706
11
2.4
21
14.7450688
0
LINE
8
0
10
2.4
20
14.7450688
11
2.4
21
24.0166408
0
LINE
8
0
10
2.4
20
24.0166408
11
2.4
21
26.6117225
0
LINE
8
0
10
2.4
20
26.6117225
11
2.4
21
28.5254814
0
LINE
8
0
10
2.4
20
28.5254814
11
2.4
21
30.7581234
0
LINE
8
0
10
2.4
20
30.7581234
11
8.94894377
21
30.7581234
0
LINE
8
0
10
8.94894377
20
30.7581234
11
16
21
30.7581234
0
LINE
8
0
10
16
20
30.7581234
11
16
21
26.6117225
0
LINE
8
0
10
16
20
26.6117225
11
16
21
24.5697227
0
LINE
8
0
10
16
20
24.5697227
11
16
21
23.7700602
0
LINE
8
0
10
16
20
23.7700602
11
16
21
23.7700602
0
LINE
8
0
10
35.2
20
-13.1992783
11
35.2
21
-13.1557598
0
LINE
8
0
10
35.2
20
-13.1557598
11
35.2
21
-13.0782512
0
LINE
8
0
10
35.2
20
-13.0782512
11
35.2
21
-12.9568057
0
LINE
8
0
10
35.2
20
-12.9568057
11
35.2
21
-12.7797597
0
LINE
8
0
10
35.2
20
-12.7797597
11
35.2
21
-12.5352633
0
LINE
8
0
10
35.2
20
-12.5352633
11
35.2
21
-12.2149919
0
LINE
8
0
10
35.2
20
-12.2149919
11
35.2
21
-11.8208613
0
LINE
8
0
10
35.2
20
-11.8208613
11
35.2
21
-11.3737436
0
LINE
8
0
10
35.2
20
-11.3737436
11
35.2
21
-10.9190275
0
LINE
8
0
10
35.2
20
-10.9190275
11
35.2
21
-10.520363
0
LINE
8
0
10
35.2
20
-10.520363
11
35.2
21
6.2766087
0
LINE
8
0
10
35.2
20
6.2766087
11
35.2
21
6.67995681
0
LINE
8
0
10
35.2
20
6.67995681
11
35.2
21
7.17035169
0
LINE
8
0
10
35.2
20
7.17035169
11
35.2
21
7.6750325
0
LINE
8
0
10
35.2
20
7.6750325
11
35.2
21
8.13695993
0
LINE
8
0
10
35.2
20
8.13695993
11
35.2
21
8.52562829
0
LINE
8
0
10
35.2
20
8.52562829
11
35.2
21
9.78576725
0
LINE
8
0
10
35.2
20
9.78576725
11
35.2
21
10
0
LINE
8
0
10
35.2
20
10
11
34.9314985
21
10
0
LINE
8
0
10
34.9314985
20
10
11
30.2
21
10
0
LINE
8
0
10
30.2
20
10
11
30.2
21
10.0919878
0
LINE
8
0
10
30.2
20
10.0919878
11
30.2
21
10.7825745
0
LINE
8
0
10
30.2
20
10.7825745
11
30.2
21
10.8066136
0
LINE
8
0
10
30.2
20
10.8066136
11
30.2
21
10.884265
0
LINE
8
0
10
30.2
20
10.884265
11
30.2
21
11.0322633
0
LINE
8
0
10
30.2
20
11.0322633
11
30.2
21
11.2690949
0
LINE
8
0
10
30.2
20
11.2690949
11
30.2
21
11.6068728
0
LINE
8
0
10
30.2
20
11.6068728
11
30.2
21
11.7795574
0
LINE
8
0
10
30.2
20
11.7795574
11
29.3327488
21
11.7795574
0
LINE
8
0
10
29.3327488
20
11.7795574
11
28.2
21
11.7795574
0
LINE
8
0
10
28.2
20
11.7795574
11
28.2
21
11.6138315
0
LINE
8
0
10
28.2
20
11.6138315
11
28.2
21
11.4391415
0
LINE
8
0
10
28.2
20
11.4391415
11
28.2
21
11.0144545
0
LINE
8
0
10
28.2
20
11.0144545
11
28.2
21
10.46561
0
LINE
8
0
10
28.2
20
10.46561
11
23.8225808
21
10.46561
0
LINE
8
0
10
23.8225808
20
10.46561
11
19.6
21
10.46561
0
LINE
8
0
10
19.6
20
10.46561
11
15.2225808
21
10.46561
0
LINE
8
0
10
15.2225808
20
10.46561
11
11
21
10.46561
0
LINE
8
0
10
11
20
10.46561
11
6.62258082
21
10.46561
0
LINE
8
0
10
6.62258082
20
10.46561
11
2.4
21
10.46561
0
LINE
8
0
10
2.4
20
10.46561
11
2.4
21
10.2728048
0
LINE
8
0
10
2.4
20
10.2728048
11
2.4
21
9.61593945
0
LINE
8
0
10
2.4
20
9.61593945
11
2.4
21
8.47794339
0
LINE
8
0
10
2.4
20
8.47794339
11
2.4
21
7.53290027
0
LINE
8
0
10
2.4
20
7.53290027
11
2.4
21
-5.19988193
0
LINE
8
0
10
2.4
20
-5.19988193
11
2.4
21
-5.83424085
0
LINE
8
0
10
2.4
20
-5.83424085
11
2.4
21
-10.1979892
0
LINE
8
0
10
2.4
20
-10.1979892
11
2.4
21
-12.9466949
0
LINE
8
0
10
2.4
20
-12.9466949
11
2.4
21
-12.9815943
0
LINE
8
0
10
2.4
20
-12.9815943
11
2.4
21
-13.4722229
0
LINE
8
0
10
2.4
20
-13.4722229
11
2.4
21
-13.9980967
0
LINE
8
0
10
2.4
20
-13.9980967
11
2.4
21
-14
0
LINE
8
0
10
2.4
20
-14
11
2.41380148
21
-14.2267098
0
LINE
8
0
10
2.41380148
20
-14.2267098
11
2.42119615
21
-14.2721435
0
LINE
8
0
10
2.42119615
20
-14.2721435
11
2.45755626
21
-14.4744614
0
LINE
8
0
10
2.45755626
20
-14.4744614
11
2.59749663
21
-14.8576044
0
LINE
8
0
10
2.59749663
20
-14.8576044
11
2.61768206
21
-14.9063361
0
LINE
8
0
10
2.61768206
20
-14.9063361
11
2.82409935
21
-15.2287609
0
LINE
8
0
10
2.82409935
20
-15.2287609
11
2.84847223
21
-15.260524
0
LINE
8
0
10
2.84847223
20
-15.260524
11
3.09447132
21
-15.5144128
0
LINE
8
0
10
3.09447132
20
-15.5144128
11
3.11460035
21
-15.5298438
0
LINE
8
0
10
3.11460035
20
-15.5298438
11
3.40243181
21
-15.7332067
0
LINE
8
0
10
3.40243181
20
-15.7332067
11
3.53176394
21
-15.7928458
0
LINE
8
0
10
3.53176394
20
-15.7928458
11
7.45674961
21
-15.7892099
0
LINE
8
0
10
7.45674961
20
-15.7892099
11
16.55
21
-15.7783898
0
LINE
8
0
10
16.55
20
-15.7783898
11
28.8576713
21
-15.7999908
0
LINE
8
0
10
28.8576713
20
-15.7999908
11
29.7236025
21
-15.7991766
0
LINE
8
0
10
29.7236025
20
-15.7991766
11
29.7427671
21
-15.8094421
0
LINE
8
0
10
29.7427671
20
-15.8094421
11
29.743842
21
-15.8098874
0
LINE
8
0
10
29.743842
20
-15.8098874
11
30.2055073
21
-15.9503831
0
LINE
8
0
10
30.2055073
20
-15.9503831
11
30.2224067
21
-15.9529584
0
LINE
8
0
10
30.2224067
20
-15.9529584
11
30.7
21
-16
0
LINE
8
0
10
30.7
20
-16
11
30.7727298
21
-16
0
LINE
8
0
10
30.7727298
20
-16
11
32.7
21
-16
0
LINE
8
0
10
32.7
20
-16
11
32.7638858
21
-15.9937074
0
LINE
8
0
10
32.7638858
20
-15.9937074
11
32.825044
21
-15.9835368
0
LINE
8
0
10
32.825044
20
-15.9835368
11
32.9500879
21
-15.9670737
0
LINE
8
0
10
32.9500879
20
-15.9670737
11
33.2442431
21
-15.9387824
0
LINE
8
0
10
33.2442431
20
-15.9387824
11
33.5573475
21
-15.8434273
0
LINE
8
0
10
33.5573475
20
-15.8434273
11
33.7508197
21
-15.7632885
0
LINE
8
0
10
33.7508197
20
-15.7632885
11
34.0491421
21
-15.6034111
0
LINE
8
0
10
34.0491421
20
-15.6034111
11
34.1974252
21
-15.489632
0
LINE
8
0
10
34.1974252
20
-15.489632
11
34.46777
21
-15.26777
0
LINE
8
0
10
34.46777
20
-15.26777
11
34.7091974
21
-14.9735843
0
LINE
8
0
10
34.7091974
20
-14.9735843
11
34.7979744
21
-14.8578852
0
LINE
8
0
10
34.7979744
20
-14.8578852
11
34.980798
21
-14.5153154
0
LINE
8
0
10
34.980798
20
-14.5153154
11
35.0307031
21
-14.3948336
0
LINE
8
0
10
35.0307031
20
-14.3948336
11
35.1451045
21
-14.0171304
0
LINE
8
0
10
35.1451045
20
-14.0171304
11
35.1747509
21
-13.8176334
0
LINE
8
0
10
35.1747509
20
-13.8176334
11
35.1886121
21
-13.7317683
0
LINE
8
0
10
35.1886121
20
-13.7317683
11
35.2
21
-13.5
0
LINE
8
0
10
35.2
20
-13.5
11
35.2
21
-13.1992783
0
LINE
8
0
10
35.2
20
-13.1992783
11
35.2
21
-13.1992783
0
LINE
8
0
10
72
20
-12.7792921
11
72
21
-12.7579894
0
LINE
8
0
10
72
20
-12.7579894
11
72
21
-12.6408796
0
LINE
8
0
10
72
20
-12.6408796
11
72
21
-12.462572
0
LINE
8
0
10
72
20
-12.462572
11
72
21
-12.1878463
0
LINE
8
0
10
72
20
-12.1878463
11
72
21
-11.9963726
0
LINE
8
0
10
72
20
-11.9963726
11
72
21
-11.7541794
0
LINE
8
0
10
72
20
-11.7541794
11
72
21
-11.4451404
0
LINE
8
0
10
72
20
-11.4451404
11
72
21
-11.0464096
0
LINE
8
0
10
72
20
-11.0464096
11
72
21
-10.5251984
0
LINE
8
0
10
72
20
-10.5251984
11
72
21
-9.83443508
0
LINE
8
0
10
72
20
-9.83443508
11
72
21
-8.90429251
0
LINE
8
0
10
72
20
-8.90429251
11
72
21
-7.62886495
0
LINE
8
0
10
72
20
-7.62886495
11
72
21
-5.84609049
0
LINE
8
0
10
72
20
-5.84609049
11
72
21
-3.30835467
0
LINE
8
0
10
72
20
-3.30835467
11
72
21
0.137994269
0
LINE
8
0
10
72
20
0.137994269
11
71.9992075
21
0.179260557
0
LINE
8
0
10
71.9992075
20
0.179260557
11
71.9975024
21
0.287246605
0
LINE
8
0
10
71.9975024
20
0.287246605
11
71.9853982
21
1.05839555
0
LINE
8
0
10
71.9853982
20
1.05839555
11
71.9795806
21
1.53745259
0
LINE
8
0
10
71.9795806
20
1.53745259
11
71.9658349
21
1.91789784
0
LINE
8
0
10
71.9658349
20
1.91789784
11
71.9596618
21
2.16260634
0
LINE
8
0
10
71.9596618
20
2.16260634
11
71.9447699
21
2.76789721
0
LINE
8
0
10
71.9447699
20
2.76789721
11
71.9380188
21
3.2668365
0
LINE
8
0
10
71.9380188
20
3.2668365
11
71.9335157
21
3.61827185
0
LINE
8
0
10
71.9335157
20
3.61827185
11
71.9326485
21
4.17157443
0
LINE
8
0
10
71.9326485
20
4.17157443
11
71.9324123
21
4.47946042
0
LINE
8
0
10
71.9324123
20
4.47946042
11
71.9376052
21
4.96629001
0
LINE
8
0
10
71.9376052
20
4.96629001
11
71.9421616
21
5.36262548
0
LINE
8
0
10
71.9421616
20
5.36262548
11
71.9498176
21
5.6981223
0
LINE
8
0
10
71.9498176
20
5.6981223
11
71.9635737
21
6.279193
0
LINE
8
0
10
71.9635737
20
6.279193
11
71.9676038
21
6.39468592
0
LINE
8
0
10
71.9676038
20
6.39468592
11
71.9768185
21
6.65280452
0
LINE
8
0
10
71.9768185
20
6.65280452
11
71.9812358
21
7.04154583
0
LINE
8
0
10
71.9812358
20
7.04154583
11
71.9835719
21
7.24240023
0
LINE
8
0
10
71.9835719
20
7.24240023
11
71.9899546
21
7.65925997
0
LINE
8
0
10
71.9899546
20
7.65925997
11
71.9994288
21
8.26858492
0
LINE
8
0
10
71.9994288
20
8.26858492
11
71.9996863
21
8.28199696
0
LINE
8
0
10
71.9996863
20
8.28199696
11
72
21
8.29816477
0
LINE
8
0
10
72
20
8.29816477
11
72
21
10.9746428
0
LINE
8
0
10
72
20
10.9746428
11
72
21
11.9488074
0
LINE
8
0
10
72
20
11.9488074
11
72
21
13.0343168
0
LINE
8
0
10
72
20
13.0343168
11
72
21
13.9850946
0
LINE
8
0
10
72
20
13.9850946
11
64.4067701
21
13.9704824
0
LINE
8
0
10
64.4067701
20
13.9704824
11
64.2
21
13.9709349
0
LINE
8
0
10
64.2
20
13.9709349
11
64.2
21
14.988192
0
LINE
8
0
10
64.2
20
14.988192
11
64.2
21
15.0523533
0
LINE
8
0
10
64.2
20
15.0523533
11
63.9272225
21
15.0523533
0
LINE
8
0
10
63.9272225
20
15.0523533
11
62
21
15.0523533
0
LINE
8
0
10
62
20
15.0523533
11
62
21
14.9374319
0
LINE
8
0
10
62
20
14.9374319
11
62
21
14.1098406
0
LINE
8
0
10
62
20
14.1098406
11
62
21
13.513161
0
LINE
8
0
10
62
20
13.513161
11
62
21
13.1048875
0
LINE
8
0
10
62
20
13.1048875
11
62
21
12.843085
0
LINE
8
0
10
62
20
12.843085
11
62
21
10
0
LINE
8
0
10
62
20
10
11
58.4652464
21
10
0
LINE
8
0
10
58.4652464
20
10
11
57.3
21
10
0
LINE
8
0
10
57.3
20
10
11
57.3
21
9.63147931
0
LINE
8
0
10
57.3
20
9.63147931
11
57.3
21
9.38328986
0
LINE
8
0
10
57.3
20
9.38328986
11
57.3
21
9.06267551
0
LINE
8
0
10
57.3
20
9.06267551
11
57.3
21
8.682875
0
LINE
8
0
10
57.3
20
8.682875
11
57.3
21
8.27916469
0
LINE
8
0
10
57.3
20
8.27916469
11
57.3
21
7.90525004
0
LINE
8
0
10
57.3
20
7.90525004
11
57.3
21
7.61584599
0
LINE
8
0
10
57.3
20
7.61584599
11
57.3
21
-9.32545363
0
LINE
8
0
10
57.3
20
-9.32545363
11
57.3
21
-9.87114725
0
LINE
8
0
10
57.3
20
-9.87114725
11
57.3
21
-10.4454677
0
LINE
8
0
10
57.3
20
-10.4454677
11
57.3
21
-10.981441
0
LINE
8
0
10
57.3
20
-10.981441
11
57.3
21
-11.4415109
0
LINE
8
0
10
57.3
20
-11.4415109
11
57.3
21
-11.8139344
0
LINE
8
0
10
57.3
20
-11.8139344
11
57.3
21
-12.1028439
0
LINE
8
0
10
57.3
20
-12.1028439
11
57.3
21
-12.3194453
0
LINE
8
0
10
57.3
20
-12.3194453
11
57.3
21
-12.4765697
0
LINE
8
0
10
57.3
20
-12.4765697
11
57.3
21
-12.7612038
0
LINE
8
0
10
57.3
20
-12.7612038
11
57.3
21
-12.8761914
0
LINE
8
0
10
57.3
20
-12.8761914
11
57.3
21
-13.128978
0
LINE
8
0
10
57.3
20
-13.128978
11
57.3
21
-14.17729
0
LINE
8
0
10
57.3
20
-14.17729
11
57.3
21
-14.480186
0
LINE
8
0
10
57.3
20
-14.480186
11
57.3
21
-14.5
0
LINE
8
0
10
57.3
20
-14.5
11
57.3021575
21
-14.5196114
0
LINE
8
0
10
57.3021575
20
-14.5196114
11
57.3039497
21
-14.5300021
0
LINE
8
0
10
57.3039497
20
-14.5300021
11
57.3062474
21
-14.5474551
0
LINE
8
0
10
57.3062474
20
-14.5474551
11
57.3149361
21
-14.6134541
0
LINE
8
0
10
57.3149361
20
-14.6134541
11
57.3404365
21
-14.8435547
0
LINE
8
0
10
57.3404365
20
-14.8435547
11
57.4057648
21
-15.04079
0
LINE
8
0
10
57.4057648
20
-15.04079
11
57.4568328
21
-15.1640791
0
LINE
8
0
10
57.4568328
20
-15.1640791
11
57.5500459
21
-15.326146
0
LINE
8
0
10
57.5500459
20
-15.326146
11
57.637852
21
-15.4405761
0
LINE
8
0
10
57.637852
20
-15.4405761
11
57.7443833
21
-15.5655761
0
LINE
8
0
10
57.7443833
20
-15.5655761
11
57.8669587
21
-15.6596324
0
LINE
8
0
10
57.8669587
20
-15.6596324
11
58.1097472
21
-15.8303604
0
LINE
8
0
10
58.1097472
20
-15.8303604
11
58.2709722
21
-15.897142
0
LINE
8
0
10
58.2709722
20
-15.897142
11
58.5153624
21
-15.9690935
0
LINE
8
0
10
58.5153624
20
-15.9690935
11
58.5653462
21
-15.9788417
0
LINE
8
0
10
58.5653462
20
-15.9788417
11
58.6228983
21
-15.9893707
0
LINE
8
0
10
58.6228983
20
-15.9893707
11
58.67679
21
-15.99493
0
LINE
8
0
10
58.67679
20
-15.99493
11
58.731103
21
-15.9982821
0
LINE
8
0
10
58.731103
20
-15.9982821
11
58.73836
21
-15.99873
0
LINE
8
0
10
58.73836
20
-15.99873
11
58.7928774
21
-15.9998532
0
LINE
8
0
10
58.7928774
20
-15.9998532
11
58.8
21
-16
0
LINE
8
0
10
58.8
20
-16
11
60.1330507
21
-16
0
LINE
8
0
10
60.1330507
20
-16
11
69.5
21
-16
0
LINE
8
0
10
69.5
20
-16
11
69.5694936
21
-15.9908505
0
LINE
8
0
10
69.5694936
20
-15.9908505
11
70.14705
21
-15.91481
0
LINE
8
0
10
70.14705
20
-15.91481
11
70.2118072
21
-15.8879867
0
LINE
8
0
10
70.2118072
20
-15.8879867
11
70.75
21
-15.66506
0
LINE
8
0
10
70.75
20
-15.66506
11
70.8056088
21
-15.6223908
0
LINE
8
0
10
70.8056088
20
-15.6223908
11
71.26777
21
-15.26777
0
LINE
8
0
10
71.26777
20
-15.26777
11
71.3104392
21
-15.2121612
0
LINE
8
0
10
71.3104392
20
-15.2121612
11
71.66506
21
-14.75
0
LINE
8
0
10
71.66506
20
-14.75
11
71.6918833
21
-14.6852428
0
LINE
8
0
10
71.6918833
20
-14.6852428
11
71.91481
21
-14.14705
0
LINE
8
0
10
71.91481
20
-14.14705
11
71.9908505
21
-13.5694936
0
LINE
8
0
10
71.9908505
20
-13.5694936
11
72
21
-13.5
0
LINE
8
0
10
72
20
-13.5
11
72
21
-12.7792921
0
LINE
8
0
10
72
20
-12.7792921
11
72
21
-12.7792921
0
LINE
8
0
10
72
20
18.2238368
11
72
21
19.4738572
0
LINE
8
0
10
72
20
19.4738572
11
72
21
23.1802547
0
LINE
8
0
10
72
20
23.1802547
11
67.8716575
21
23.1802547
0
LINE
8
0
10
67.8716575
20
23.1802547
11
63.2
21
23.1802554
0
LINE
8
0
10
63.2
20
23.1802554
11
62.8346074
21
22.5432105
0
LINE
8
0
10
62.8346074
20
22.5432105
11
62.6308066
21
22.1878942
0
LINE
8
0
10
62.6308066
20
22.1878942
11
62.4436968
21
21.8616741
0
LINE
8
0
10
62.4436968
20
21.8616741
11
62.3848444
21
21.7590704
0
LINE
8
0
10
62.3848444
20
21.7590704
11
62
21
21.0881215
0
LINE
8
0
10
62
20
21.0881215
11
62
21
17.8569862
0
LINE
8
0
10
62
20
17.8569862
11
62
21
16.7945694
0
LINE
8
0
10
62
20
16.7945694
11
62.5877203
21
16.7945694
0
LINE
8
0
10
62.5877203
20
16.7945694
11
64.2
21
16.7945694
0
LINE
8
0
10
64.2
20
16.7945694
11
64.2
21
17.3182929
0
LINE
8
0
10
64.2
20
17.3182929
11
64.2
21
18.2238368
0
LINE
8
0
10
64.2
20
18.2238368
11
69.1418878
21
18.2238368
0
LINE
8
0
10
69.1418878
20
18.2238368
11
72
21
18.2238368
0
LINE
8
0
10
72
20
18.2238368
11
72
21
18.2238368
0
ENDSEC
0
EOF
