0
SECTION
2
ENTITIES
0
LINE
8
0
10
16
20
23.6932661
11
16
21
24.0237684
0
LINE
8
0
10
16
20
24.0237684
11
16
21
24.7227241
0
LINE
8
0
10
16
20
24.7227241
11
16
21
27.0322594
0
LINE
8
0
10
16
20
27.0322594
11
16
21
30.3603444
0
LINE
8
0
10
16
20
30.3603444
11
7.65647238
21
30.3603444
0
LINE
8
0
10
7.65647238
20
30.3603444
11
2.4
21
30.3603444
0
LINE
8
0
10
2.4
20
30.3603444
11
2.4
21
28.568327
0
LINE
8
0
10
2.4
20
28.568327
11
2.4
21
27.0322594
0
LINE
8
0
10
2.4
20
27.0322594
11
2.4
21
24.0971793
0
LINE
8
0
10
2.4
20
24.0971793
11
2.4
21
15.0187651
0
LINE
8
0
10
2.4
20
15.0187651
11
6.96544511
21
15.0187674
0
LINE
8
0
10
6.96544511
20
15.0187674
11
22.433122
21
15.0187674
0
LINE
8
0
10
22.433122
20
15.0187674
11
28.2
21
15.0187674
0
LINE
8
0
10
28.2
20
15.0187674
11
28.2
21
13.8024092
0
LINE
8
0
10
28.2
20
13.8024092
11
28.2
21
13.273797
0
LINE
8
0
10
28.2
20
13.273797
11
28.6773494
21
13.273797
0
LINE
8
0
10
28.6773494
20
13.273797
11
30.2
21
13.273797
0
LINE
8
0
10
30.2
20
13.273797
11
30.2
21
15.2187963
0
LINE
8
0
10
30.2
20
15.2187963
11
30.2
21
17.1221367
0
LINE
8
0
10
30.2
20
17.1221367
11
30.2
21
21.4161051
0
LINE
8
0
10
30.2
20
21.4161051
11
29.9410676
21
21.8675353
0
LINE
8
0
10
29.9410676
20
21.8675353
11
29.3482844
21
22.9010232
0
LINE
8
0
10
29.3482844
20
22.9010232
11
29
21
23.5082406
0
LINE
8
0
10
29
20
23.5082406
11
22.6987909
21
23.5082406
0
LINE
8
0
10
22.6987909
20
23.5082406
11
21.6860966
21
23.5082406
0
LINE
8
0
10
21.6860966
20
23.5082406
11
16
21
23.5082419
0
LINE
8
0
10
16
20
23.5082419
11
16
21
23.5487005
0
LINE
8
0
10
16
20
23.5487005
11
16
21
23.6932661
0
LINE
8
0
10
16
20
23.6932661
11
16
21
23.6932661
0
LINE
8
0
10
16
20
32.9290826
11
6.57033116
21
32.9290826
0
LINE
8
0
10
6.57033116
20
32.9290826
11
2.4
21
32.9290826
0
LINE
8
0
10
2.4
20
32.9290826
11
2.4
21
34.5263352
0
LINE
8
0
10
2.4
20
34.5263352
11
2.4
21
35.0032647
0
LINE
8
0
10
2.4
20
35.0032647
11
2.4
21
35.038385
0
LINE
8
0
10
2.4
20
35.038385
11
2.4
21
35.0874656
0
LINE
8
0
10
2.4
20
35.0874656
11
2.4
21
39.9802627
0
LINE
8
0
10
2.4
20
39.9802627
11
2.4
21
40.1058603
0
LINE
8
0
10
2.4
20
40.1058603
11
2.4
21
40.2726446
0
LINE
8
0
10
2.4
20
40.2726446
11
2.4
21
40.4738094
0
LINE
8
0
10
2.4
20
40.4738094
11
2.4
21
42.5681095
0
LINE
8
0
10
2.4
20
42.5681095
11
2.4
21
42.6957471
0
LINE
8
0
10
2.4
20
42.6957471
11
2.4
21
42.9522929
0
LINE
8
0
10
2.4
20
42.9522929
11
2.4
21
43.0804583
0
LINE
8
0
10
2.4
20
43.0804583
11
2.4
21
43.2075925
0
LINE
8
0
10
2.4
20
43.2075925
11
2.4
21
43.4804509
0
LINE
8
0
10
2.4
20
43.4804509
11
2.4
21
46.8165977
0
LINE
8
0
10
2.4
20
46.8165977
11
2.4
21
47.6346886
0
LINE
8
0
10
2.4
20
47.6346886
11
2.4
21
48.2801398
0
LINE
8
0
10
2.4
20
48.2801398
11
2.44834772
21
48.638735
0
LINE
8
0
10
2.44834772
20
48.638735
11
2.468148
21
48.7971411
0
LINE
8
0
10
2.468148
20
48.7971411
11
2.62697478
21
49.1925969
0
LINE
8
0
10
2.62697478
20
49.1925969
11
2.667949
21
49.2946188
0
LINE
8
0
10
2.667949
20
49.2946188
11
2.87686298
21
49.5754114
0
LINE
8
0
10
2.87686298
20
49.5754114
11
2.985786
21
49.7218103
0
LINE
8
0
10
2.985786
20
49.7218103
11
3.1969114
21
49.888891
0
LINE
8
0
10
3.1969114
20
49.888891
11
3.4
21
50.0496106
0
LINE
8
0
10
3.4
20
50.0496106
11
3.57748377
21
50.1254317
0
LINE
8
0
10
3.57748377
20
50.1254317
11
3.882362
21
50.2556734
0
LINE
8
0
10
3.882362
20
50.2556734
11
4.14174248
21
50.2859583
0
LINE
8
0
10
4.14174248
20
50.2859583
11
4.4
21
50.3329911
0
LINE
8
0
10
4.4
20
50.3329911
11
11.3539949
21
50.3329911
0
LINE
8
0
10
11.3539949
20
50.3329911
11
13
21
50.3329911
0
LINE
8
0
10
13
20
50.3329911
11
13.1898024
21
50.3193839
0
LINE
8
0
10
13.1898024
20
50.3193839
11
13.35293
21
50.3119025
0
LINE
8
0
10
13.35293
20
50.3119025
11
13.6139834
21
50.3060342
0
LINE
8
0
10
13.6139834
20
50.3060342
11
13.9349804
21
50.2841441
0
LINE
8
0
10
13.9349804
20
50.2841441
11
14.2626417
21
50.2670835
0
LINE
8
0
10
14.2626417
20
50.2670835
11
14.4828093
21
50.2481212
0
LINE
8
0
10
14.4828093
20
50.2481212
11
14.8209156
21
50.2274722
0
LINE
8
0
10
14.8209156
20
50.2274722
11
14.9170888
21
50.2216506
0
LINE
8
0
10
14.9170888
20
50.2216506
11
14.9849126
21
50.2200409
0
LINE
8
0
10
14.9849126
20
50.2200409
11
15.5930676
21
50.2
0
LINE
8
0
10
15.5930676
20
50.2
11
15.7926719
21
50.2
0
LINE
8
0
10
15.7926719
20
50.2
11
16.0032742
21
50.2
0
LINE
8
0
10
16.0032742
20
50.2
11
16.9875098
21
50.2
0
LINE
8
0
10
16.9875098
20
50.2
11
17.4435172
21
50.2
0
LINE
8
0
10
17.4435172
20
50.2
11
17.6733365
21
50.2
0
LINE
8
0
10
17.6733365
20
50.2
11
17.8
21
50.2
0
LINE
8
0
10
17.8
20
50.2
11
17.8
21
46.3782752
0
LINE
8
0
10
17.8
20
46.3782752
11
17.8
21
45.2
0
LINE
8
0
10
17.8
20
45.2
11
17.8
21
44.969904
0
LINE
8
0
10
17.8
20
44.969904
11
17.8
21
43.9365082
0
LINE
8
0
10
17.8
20
43.9365082
11
17.8
21
43.6814083
0
LINE
8
0
10
17.8
20
43.6814083
11
17.8
21
43.4011902
0
LINE
8
0
10
17.8
20
43.4011902
11
17.8
21
42.4314245
0
LINE
8
0
10
17.8
20
42.4314245
11
17.8
21
41.6802456
0
LINE
8
0
10
17.8
20
41.6802456
11
17.8
21
41.1814405
0
LINE
8
0
10
17.8
20
41.1814405
11
17.8
21
40.8977933
0
LINE
8
0
10
17.8
20
40.8977933
11
17.8
21
32.9290807
0
LINE
8
0
10
17.8
20
32.9290807
11
16.370468
21
32.9290817
0
LINE
8
0
10
16.370468
20
32.9290817
11
16
21
32.9290826
0
LINE
8
0
10
16
20
32.9290826
11
16
21
32.9290826
0
LINE
8
0
10
35.2
20
-10.0044554
11
35.2
21
-10.4721464
0
LINE
8
0
10
35.2
20
-10.4721464
11
35.2
21
-11.0055941
0
LINE
8
0
10
35.2
20
-11.0055941
11
35.2
21
-11.5301277
0
LINE
8
0
10
35.2
20
-11.5301277
11
35.2
21
-11.9924999
0
LINE
8
0
10
35.2
20
-11.9924999
11
35.2
21
-12.3682245
0
LINE
8
0
10
35.2
20
-12.3682245
11
35.2
21
-12.655054
0
LINE
8
0
10
35.2
20
-12.655054
11
35.2
21
-12.8627546
0
LINE
8
0
10
35.2
20
-12.8627546
11
35.2
21
-13.0052277
0
LINE
8
0
10
35.2
20
-13.0052277
11
35.2
21
-13.0961565
0
LINE
8
0
10
35.2
20
-13.0961565
11
35.2
21
-13.14721
0
LINE
8
0
10
35.2
20
-13.14721
11
35.2
21
-13.5
0
LINE
8
0
10
35.2
20
-13.5
11
35.188724
21
-13.7294911
0
LINE
8
0
10
35.188724
20
-13.7294911
11
35.1724843
21
-13.8300895
0
LINE
8
0
10
35.1724843
20
-13.8300895
11
35.1439589
21
-14.022043
0
LINE
8
0
10
35.1439589
20
-14.022043
11
35.0338834
21
-14.3854643
0
LINE
8
0
10
35.0338834
20
-14.3854643
11
34.9764216
21
-14.5241894
0
LINE
8
0
10
34.9764216
20
-14.5241894
11
34.8005111
21
-14.8538058
0
LINE
8
0
10
34.8005111
20
-14.8538058
11
34.7000684
21
-14.9847082
0
LINE
8
0
10
34.7000684
20
-14.9847082
11
34.46777
21
-15.26777
0
LINE
8
0
10
34.46777
20
-15.26777
11
34.2076476
21
-15.4812428
0
LINE
8
0
10
34.2076476
20
-15.4812428
11
34.0453933
21
-15.6057422
0
LINE
8
0
10
34.0453933
20
-15.6057422
11
33.7583512
21
-15.7595742
0
LINE
8
0
10
33.7583512
20
-15.7595742
11
33.5493956
21
-15.8461264
0
LINE
8
0
10
33.5493956
20
-15.8461264
11
33.2481305
21
-15.9378759
0
LINE
8
0
10
33.2481305
20
-15.9378759
11
32.9650981
21
-15.9650974
0
LINE
8
0
10
32.9650981
20
-15.9650974
11
32.832549
21
-15.9825487
0
LINE
8
0
10
32.832549
20
-15.9825487
11
32.7677202
21
-15.9933298
0
LINE
8
0
10
32.7677202
20
-15.9933298
11
32.7
21
-16
0
LINE
8
0
10
32.7
20
-16
11
30.7898366
21
-16
0
LINE
8
0
10
30.7898366
20
-16
11
30.7
21
-16
0
LINE
8
0
10
30.7
20
-16
11
30.2271707
21
-15.9534277
0
LINE
8
0
10
30.2271707
20
-15.9534277
11
30.202329
21
-15.949642
0
LINE
8
0
10
30.202329
20
-15.949642
11
29.7502818
21
-15.8120733
0
LINE
8
0
10
29.7502818
20
-15.8120733
11
29.7366678
21
-15.8064342
0
LINE
8
0
10
29.7366678
20
-15.8064342
11
29.4939441
21
-15.6764198
0
LINE
8
0
10
29.4939441
20
-15.6764198
11
18.5267713
21
-15.6867316
0
LINE
8
0
10
18.5267713
20
-15.6867316
11
16.55
21
-15.6832622
0
LINE
8
0
10
16.55
20
-15.6832622
11
11.992115
21
-15.6886857
0
LINE
8
0
10
11.992115
20
-15.6886857
11
3.3308602
21
-15.6826305
0
LINE
8
0
10
3.3308602
20
-15.6826305
11
3.10785019
21
-15.5250662
0
LINE
8
0
10
3.10785019
20
-15.5250662
11
3.09702739
21
-15.5167694
0
LINE
8
0
10
3.09702739
20
-15.5167694
11
2.84524288
21
-15.2569096
0
LINE
8
0
10
2.84524288
20
-15.2569096
11
2.8277717
21
-15.2341409
0
LINE
8
0
10
2.8277717
20
-15.2341409
11
2.61649988
21
-14.9041333
0
LINE
8
0
10
2.61649988
20
-14.9041333
11
2.60053866
21
-14.8655997
0
LINE
8
0
10
2.60053866
20
-14.8655997
11
2.45730717
21
-14.4734459
0
LINE
8
0
10
2.45730717
20
-14.4734459
11
2.42009193
21
-14.2663699
0
LINE
8
0
10
2.42009193
20
-14.2663699
11
2.41389978
21
-14.2283246
0
LINE
8
0
10
2.41389978
20
-14.2283246
11
2.4
21
-14
0
LINE
8
0
10
2.4
20
-14
11
2.4
21
-13.9983935
0
LINE
8
0
10
2.4
20
-13.9983935
11
2.4
21
-13.5545045
0
LINE
8
0
10
2.4
20
-13.5545045
11
2.4
21
-13.0597356
0
LINE
8
0
10
2.4
20
-13.0597356
11
2.4
21
-13.0300967
0
LINE
8
0
10
2.4
20
-13.0300967
11
2.4
21
-10.6957139
0
LINE
8
0
10
2.4
20
-10.6957139
11
2.4
21
-6.98972982
0
LINE
8
0
10
2.4
20
-6.98972982
11
2.4
21
-6.45099023
0
LINE
8
0
10
2.4
20
-6.45099023
11
2.4
21
7.94999571
0
LINE
8
0
10
2.4
20
7.94999571
11
2.4
21
9.01885502
0
LINE
8
0
10
2.4
20
9.01885502
11
2.4
21
10.3059473
0
LINE
8
0
10
2.4
20
10.3059473
11
2.4
21
10.3588444
0
LINE
8
0
10
2.4
20
10.3588444
11
2.4
21
10.374371
0
LINE
8
0
10
2.4
20
10.374371
11
10.6474878
21
10.374371
0
LINE
8
0
10
10.6474878
20
10.374371
11
11
21
10.374371
0
LINE
8
0
10
11
20
10.374371
11
19.2474878
21
10.374371
0
LINE
8
0
10
19.2474878
20
10.374371
11
19.6
21
10.374371
0
LINE
8
0
10
19.6
20
10.374371
11
27.8474878
21
10.374371
0
LINE
8
0
10
27.8474878
20
10.374371
11
28.2
21
10.374371
0
LINE
8
0
10
28.2
20
10.374371
11
28.2
21
11.4463666
0
LINE
8
0
10
28.2
20
11.4463666
11
28.2
21
11.5678686
0
LINE
8
0
10
28.2
20
11.5678686
11
29.7551503
21
11.5678686
0
LINE
8
0
10
29.7551503
20
11.5678686
11
30.2
21
11.5678686
0
LINE
8
0
10
30.2
20
11.5678686
11
30.2
21
11.4888316
0
LINE
8
0
10
30.2
20
11.4888316
11
30.2
21
11.210994
0
LINE
8
0
10
30.2
20
11.210994
11
30.2
21
11.0373706
0
LINE
8
0
10
30.2
20
11.0373706
11
30.2
21
10.9462743
0
LINE
8
0
10
30.2
20
10.9462743
11
30.2
21
10.918073
0
LINE
8
0
10
30.2
20
10.918073
11
30.2
21
10.1079149
0
LINE
8
0
10
30.2
20
10.1079149
11
30.2
21
10
0
LINE
8
0
10
30.2
20
10
11
34.8850089
21
10
0
LINE
8
0
10
34.8850089
20
10
11
35.2
21
10
0
LINE
8
0
10
35.2
20
10
11
35.2
21
9.74867404
0
LINE
8
0
10
35.2
20
9.74867404
11
35.2
21
8.27034899
0
LINE
8
0
10
35.2
20
8.27034899
11
35.2
21
7.81438485
0
LINE
8
0
10
35.2
20
7.81438485
11
35.2
21
7.27247725
0
LINE
8
0
10
35.2
20
7.27247725
11
35.2
21
6.68041376
0
LINE
8
0
10
35.2
20
6.68041376
11
35.2
21
6.10510971
0
LINE
8
0
10
35.2
20
6.10510971
11
35.2
21
5.63192412
0
LINE
8
0
10
35.2
20
5.63192412
11
35.2
21
-10.0044554
0
LINE
8
0
10
35.2
20
-10.0044554
11
35.2
21
-10.0044554
0
LINE
8
0
10
72
20
12.2394244
11
72
21
10.3273014
0
LINE
8
0
10
72
20
10.3273014
11
72
21
9.91496015
0
LINE
8
0
10
72
20
9.91496015
11
72
21
8.78206913
0
LINE
8
0
10
72
20
8.78206913
11
71.9933269
21
8.43810888
0
LINE
8
0
10
71.9933269
20
8.43810888
11
71.9878489
21
8.15277608
0
LINE
8
0
10
71.9878489
20
8.15277608
11
71.9831182
21
7.8485216
0
LINE
8
0
10
71.9831182
20
7.8485216
11
71.9765178
21
7.41744805
0
LINE
8
0
10
71.9765178
20
7.41744805
11
71.9685324
21
7.24973508
0
LINE
8
0
10
71.9685324
20
7.24973508
11
71.9637629
21
7.1479659
0
LINE
8
0
10
71.9637629
20
7.1479659
11
71.9444286
21
6.6063873
0
LINE
8
0
10
71.9444286
20
6.6063873
11
71.9304164
21
6.20482202
0
LINE
8
0
10
71.9304164
20
6.20482202
11
71.9244327
21
5.95206639
0
LINE
8
0
10
71.9244327
20
5.95206639
11
71.9097204
21
5.30735362
0
LINE
8
0
10
71.9097204
20
5.30735362
11
71.9093148
21
5.27206879
0
LINE
8
0
10
71.9093148
20
5.27206879
11
71.9070654
21
5.06118962
0
LINE
8
0
10
71.9070654
20
5.06118962
11
71.8963132
21
4.52226008
0
LINE
8
0
10
71.8963132
20
4.52226008
11
71.8948439
21
4.4425931
0
LINE
8
0
10
71.8948439
20
4.4425931
11
71.8955887
21
3.69702317
0
LINE
8
0
10
71.8955887
20
3.69702317
11
71.895827
21
3.59933969
0
LINE
8
0
10
71.895827
20
3.59933969
11
71.9122964
21
2.83557664
0
LINE
8
0
10
71.9122964
20
2.83557664
11
71.9132287
21
2.76667637
0
LINE
8
0
10
71.9132287
20
2.76667637
11
71.9135785
21
2.75245895
0
LINE
8
0
10
71.9135785
20
2.75245895
11
71.9342154
21
1.93439007
0
LINE
8
0
10
71.9342154
20
1.93439007
11
71.9516007
21
1.4532121
0
LINE
8
0
10
71.9516007
20
1.4532121
11
71.9648003
21
1.09279977
0
LINE
8
0
10
71.9648003
20
1.09279977
11
71.9801114
21
0.769556569
0
LINE
8
0
10
71.9801114
20
0.769556569
11
71.9885996
21
0.231973952
0
LINE
8
0
10
71.9885996
20
0.231973952
11
72
21
-0.361653722
0
LINE
8
0
10
72
20
-0.361653722
11
72
21
-1.54372772
0
LINE
8
0
10
72
20
-1.54372772
11
72
21
-4.52085844
0
LINE
8
0
10
72
20
-4.52085844
11
72
21
-6.61231043
0
LINE
8
0
10
72
20
-6.61231043
11
72
21
-8.1085712
0
LINE
8
0
10
72
20
-8.1085712
11
72
21
-9.19976281
0
LINE
8
0
10
72
20
-9.19976281
11
72
21
-10.010128
0
LINE
8
0
10
72
20
-10.010128
11
72
21
-10.621584
0
LINE
8
0
10
72
20
-10.621584
11
72
21
-11.0893529
0
LINE
8
0
10
72
20
-11.0893529
11
72
21
-11.4519003
0
LINE
8
0
10
72
20
-11.4519003
11
72
21
-11.7360279
0
LINE
8
0
10
72
20
-11.7360279
11
72
21
-11.9606542
0
LINE
8
0
10
72
20
-11.9606542
11
72
21
-12.2829471
0
LINE
8
0
10
72
20
-12.2829471
11
72
21
-12.4921277
0
LINE
8
0
10
72
20
-12.4921277
11
72
21
-12.6295144
0
LINE
8
0
10
72
20
-12.6295144
11
72
21
-12.6545055
0
LINE
8
0
10
72
20
-12.6545055
11
72
21
-13.5
0
LINE
8
0
10
72
20
-13.5
11
71.9892664
21
-13.581526
0
LINE
8
0
10
71.9892664
20
-13.581526
11
71.91481
21
-14.14705
0
LINE
8
0
10
71.91481
20
-14.14705
11
71.6965276
21
-14.6740305
0
LINE
8
0
10
71.6965276
20
-14.6740305
11
71.66506
21
-14.75
0
LINE
8
0
10
71.66506
20
-14.75
11
71.3178271
21
-15.2025328
0
LINE
8
0
10
71.3178271
20
-15.2025328
11
71.26777
21
-15.26777
0
LINE
8
0
10
71.26777
20
-15.26777
11
70.8152372
21
-15.6150029
0
LINE
8
0
10
70.8152372
20
-15.6150029
11
70.75
21
-15.66506
0
LINE
8
0
10
70.75
20
-15.66506
11
70.2230195
21
-15.8833424
0
LINE
8
0
10
70.2230195
20
-15.8833424
11
70.14705
21
-15.91481
0
LINE
8
0
10
70.14705
20
-15.91481
11
69.581526
21
-15.9892664
0
LINE
8
0
10
69.581526
20
-15.9892664
11
69.5
21
-16
0
LINE
8
0
10
69.5
20
-16
11
60.2250861
21
-16
0
LINE
8
0
10
60.2250861
20
-16
11
58.8
21
-16
0
LINE
8
0
10
58.8
20
-16
11
58.7923857
21
-15.9998431
0
LINE
8
0
10
58.7923857
20
-15.9998431
11
58.73836
21
-15.99873
0
LINE
8
0
10
58.73836
20
-15.99873
11
58.7306148
21
-15.998252
0
LINE
8
0
10
58.7306148
20
-15.998252
11
58.67679
21
-15.99493
0
LINE
8
0
10
58.67679
20
-15.99493
11
58.6233827
21
-15.9894207
0
LINE
8
0
10
58.6233827
20
-15.9894207
11
58.5621467
21
-15.9782177
0
LINE
8
0
10
58.5621467
20
-15.9782177
11
58.5089634
21
-15.9678455
0
LINE
8
0
10
58.5089634
20
-15.9678455
11
58.2796695
21
-15.9003385
0
LINE
8
0
10
58.2796695
20
-15.9003385
11
58.1060565
21
-15.8284257
0
LINE
8
0
10
58.1060565
20
-15.8284257
11
57.8782653
21
-15.6682438
0
LINE
8
0
10
57.8782653
20
-15.6682438
11
57.7440717
21
-15.5652725
0
LINE
8
0
10
57.7440717
20
-15.5652725
11
57.6441211
21
-15.4479938
0
LINE
8
0
10
57.6441211
20
-15.4479938
11
57.5470138
21
-15.3214424
0
LINE
8
0
10
57.5470138
20
-15.3214424
11
57.4595586
21
-15.1693865
0
LINE
8
0
10
57.4595586
20
-15.1693865
11
57.4023887
21
-15.0313662
0
LINE
8
0
10
57.4023887
20
-15.0313662
11
57.3410958
21
-14.8463143
0
LINE
8
0
10
57.3410958
20
-14.8463143
11
57.3171706
21
-14.6304273
0
LINE
8
0
10
57.3171706
20
-14.6304273
11
57.307182
21
-14.5545546
0
LINE
8
0
10
57.307182
20
-14.5545546
11
57.3045406
21
-14.5344906
0
LINE
8
0
10
57.3045406
20
-14.5344906
11
57.3024802
21
-14.5225454
0
LINE
8
0
10
57.3024802
20
-14.5225454
11
57.3
21
-14.5
0
LINE
8
0
10
57.3
20
-14.5
11
57.3
21
-14.4772217
0
LINE
8
0
10
57.3
20
-14.4772217
11
57.3
21
-14.17729
0
LINE
8
0
10
57.3
20
-14.17729
11
57.3
21
-12.9594197
0
LINE
8
0
10
57.3
20
-12.9594197
11
57.3
21
-12.7118995
0
LINE
8
0
10
57.3
20
-12.7118995
11
57.3
21
-12.5773488
0
LINE
8
0
10
57.3
20
-12.5773488
11
57.3
21
-12.2993684
0
LINE
8
0
10
57.3
20
-12.2993684
11
57.3
21
-12.1150388
0
LINE
8
0
10
57.3
20
-12.1150388
11
57.3
21
-11.860934
0
LINE
8
0
10
57.3
20
-11.860934
11
57.3
21
-11.5220014
0
LINE
8
0
10
57.3
20
-11.5220014
11
57.3
21
-11.0850949
0
LINE
8
0
10
57.3
20
-11.0850949
11
57.3
21
-10.5453665
0
LINE
8
0
10
57.3
20
-10.5453665
11
57.3
21
-9.9165923
0
LINE
8
0
10
57.3
20
-9.9165923
11
57.3
21
-9.24283149
0
LINE
8
0
10
57.3
20
-9.24283149
11
57.3
21
-8.60265404
0
LINE
8
0
10
57.3
20
-8.60265404
11
57.3
21
7.20304292
0
LINE
8
0
10
57.3
20
7.20304292
11
57.3
21
7.54255569
0
LINE
8
0
10
57.3
20
7.54255569
11
57.3
21
7.98121158
0
LINE
8
0
10
57.3
20
7.98121158
11
57.3
21
8.4548221
0
LINE
8
0
10
57.3
20
8.4548221
11
57.3
21
8.90038297
0
LINE
8
0
10
57.3
20
8.90038297
11
57.3
21
9.27650991
0
LINE
8
0
10
57.3
20
9.27650991
11
57.3
21
9.567672
0
LINE
8
0
10
57.3
20
9.567672
11
57.3
21
10
0
LINE
8
0
10
57.3
20
10
11
58.6670024
21
10
0
LINE
8
0
10
58.6670024
20
10
11
62
21
10
0
LINE
8
0
10
62
20
10
11
62
21
13.3353494
0
LINE
8
0
10
62
20
13.3353494
11
62
21
13.6424815
0
LINE
8
0
10
62
20
13.6424815
11
62
21
14.1214454
0
LINE
8
0
10
62
20
14.1214454
11
62
21
14.8214367
0
LINE
8
0
10
62
20
14.8214367
11
62
21
14.9487128
0
LINE
8
0
10
62
20
14.9487128
11
63.8680718
21
14.9487128
0
LINE
8
0
10
63.8680718
20
14.9487128
11
64.2
21
14.9487128
0
LINE
8
0
10
64.2
20
14.9487128
11
64.2
21
14.7978389
0
LINE
8
0
10
64.2
20
14.7978389
11
64.2
21
13.938526
0
LINE
8
0
10
64.2
20
13.938526
11
70.8447297
21
13.9255481
0
LINE
8
0
10
70.8447297
20
13.9255481
11
72
21
13.9275637
0
LINE
8
0
10
72
20
13.9275637
11
72
21
13.6440587
0
LINE
8
0
10
72
20
13.6440587
11
72
21
12.2394244
0
LINE
8
0
10
72
20
12.2394244
11
72
21
12.2394244
0
LINE
8
0
10
72
20
18.4583553
11
72
21
19.1601017
0
LINE
8
0
10
72
20
19.1601017
11
72
21
23.5082413
0
LINE
8
0
10
72
20
23.5082413
11
67.1568578
21
23.5082413
0
LINE
8
0
10
67.1568578
20
23.5082413
11
63.2
21
23.508242
0
LINE
8
0
10
63.2
20
23.508242
11
62.8905153
21
22.9686698
0
LINE
8
0
10
62.8905153
20
22.9686698
11
62.6514275
21
22.5518325
0
LINE
8
0
10
62.6514275
20
22.5518325
11
62.4319207
21
22.1691291
0
LINE
8
0
10
62.4319207
20
22.1691291
11
62.3628783
21
22.0487602
0
LINE
8
0
10
62.3628783
20
22.0487602
11
62
21
21.4161076
0
LINE
8
0
10
62
20
21.4161076
11
62
21
17.6255191
0
LINE
8
0
10
62
20
17.6255191
11
62
21
17.0290912
0
LINE
8
0
10
62
20
17.0290912
11
63.2948857
21
17.0290912
0
LINE
8
0
10
63.2948857
20
17.0290912
11
64.2
21
17.0290912
0
LINE
8
0
10
64.2
20
17.0290912
11
64.2
21
17.3231032
0
LINE
8
0
10
64.2
20
17.3231032
11
64.2
21
18.4583553
0
LINE
8
0
10
64.2
20
18.4583553
11
70.3954904
21
18.4583553
0
LINE
8
0
10
70.3954904
20
18.4583553
11
72
21
18.4583553
0
LINE
8
0
10
72
20
18.4583553
11
72
21
18.4583553
0
ENDSEC
0
EOF
