0
SECTION
2
ENTITIES
0
LINE
8
0
10
16
20
23.8362281
11
16
21
23.8708573
0
LINE
8
0
10
16
20
23.8708573
11
16
21
23.9945937
0
LINE
8
0
10
16
20
23.9945937
11
16
21
24.2774765
0
LINE
8
0
10
16
20
24.2774765
11
16
21
24.8757254
0
LINE
8
0
10
16
20
24.8757254
11
16
21
27.4527962
0
LINE
8
0
10
16
20
27.4527962
11
16
21
29.9625654
0
LINE
8
0
10
16
20
29.9625654
11
6.364001
21
29.9625654
0
LINE
8
0
10
6.364001
20
29.9625654
11
2.4
21
29.9625654
0
LINE
8
0
10
2.4
20
29.9625654
11
2.4
21
28.6111727
0
LINE
8
0
10
2.4
20
28.6111727
11
2.4
21
27.4527962
0
LINE
8
0
10
2.4
20
27.4527962
11
2.4
21
24.1777178
0
LINE
8
0
10
2.4
20
24.1777178
11
2.4
21
15.2924613
0
LINE
8
0
10
2.4
20
15.2924613
11
7.9501803
21
15.2924642
0
LINE
8
0
10
7.9501803
20
15.2924642
11
21.1892459
21
15.2924642
0
LINE
8
0
10
21.1892459
20
15.2924642
11
28.2
21
15.2924642
0
LINE
8
0
10
28.2
20
15.2924642
11
28.2
21
13.8137459
0
LINE
8
0
10
28.2
20
13.8137459
11
28.2
21
13.5083188
0
LINE
8
0
10
28.2
20
13.5083188
11
29.320227
21
13.5083188
0
LINE
8
0
10
29.320227
20
13.5083188
11
30.2
21
13.5083188
0
LINE
8
0
10
30.2
20
13.5083188
11
30.2
21
14.6321208
0
LINE
8
0
10
30.2
20
14.6321208
11
30.2
21
16.8163754
0
LINE
8
0
10
30.2
20
16.8163754
11
30.2
21
21.7440908
0
LINE
8
0
10
30.2
20
21.7440908
11
29.978375
21
22.1304781
0
LINE
8
0
10
29.978375
20
22.1304781
11
29.2981029
21
23.3164985
0
LINE
8
0
10
29.2981029
20
23.3164985
11
29
21
23.8362269
0
LINE
8
0
10
29
20
23.8362269
11
21.9929642
21
23.8362269
0
LINE
8
0
10
21.9929642
20
23.8362269
11
20.8668334
21
23.8362269
0
LINE
8
0
10
20.8668334
20
23.8362269
11
16
21
23.8362281
0
LINE
8
0
10
16
20
23.8362281
11
16
21
23.8362281
0
LINE
8
0
10
16
20
31.8996974
11
16.5764376
21
31.899696
0
LINE
8
0
10
16.5764376
20
31.899696
11
17.8
21
31.8996952
0
LINE
8
0
10
17.8
20
31.8996952
11
17.8
21
40.7415067
0
LINE
8
0
10
17.8
20
40.7415067
11
17.8
21
41.056232
0
LINE
8
0
10
17.8
20
41.056232
11
17.8
21
41.609689
0
LINE
8
0
10
17.8
20
41.609689
11
17.8
21
42.4431716
0
LINE
8
0
10
17.8
20
42.4431716
11
17.8
21
43.5191905
0
LINE
8
0
10
17.8
20
43.5191905
11
17.8
21
43.722572
0
LINE
8
0
10
17.8
20
43.722572
11
17.8
21
43.9077229
0
LINE
8
0
10
17.8
20
43.9077229
11
17.8
21
45.0409355
0
LINE
8
0
10
17.8
20
45.0409355
11
17.8
21
45.2
0
LINE
8
0
10
17.8
20
45.2
11
17.8
21
46.0145371
0
LINE
8
0
10
17.8
20
46.0145371
11
17.8
21
50.2
0
LINE
8
0
10
17.8
20
50.2
11
17.712438
21
50.2
0
LINE
8
0
10
17.712438
20
50.2
11
17.5535648
21
50.2
0
LINE
8
0
10
17.5535648
20
50.2
11
17.2383286
21
50.2
0
LINE
8
0
10
17.2383286
20
50.2
11
16.5579303
21
50.2
0
LINE
8
0
10
16.5579303
20
50.2
11
15.8566749
21
50.2
0
LINE
8
0
10
15.8566749
20
50.2
11
15.1920401
21
50.2
0
LINE
8
0
10
15.1920401
20
50.2
11
15.0931311
21
50.2032594
0
LINE
8
0
10
15.0931311
20
50.2032594
11
14.3514723
21
50.2208615
0
LINE
8
0
10
14.3514723
20
50.2208615
11
14.3341455
21
50.2219103
0
LINE
8
0
10
14.3341455
20
50.2219103
11
13.6691285
21
50.2462675
0
LINE
8
0
10
13.6691285
20
50.2462675
11
13.6491079
21
50.2473104
0
LINE
8
0
10
13.6491079
20
50.2473104
11
13.6243774
21
50.2477554
0
LINE
8
0
10
13.6243774
20
50.2477554
11
13.2773754
21
50.2584894
0
LINE
8
0
10
13.2773754
20
50.2584894
11
13
21
50.2701472
0
LINE
8
0
10
13
20
50.2701472
11
5.9185875
21
50.2701472
0
LINE
8
0
10
5.9185875
20
50.2701472
11
4.4
21
50.2701472
0
LINE
8
0
10
4.4
20
50.2701472
11
4.10589109
21
50.2202362
0
LINE
8
0
10
4.10589109
20
50.2202362
11
3.882362
21
50.1941373
0
LINE
8
0
10
3.882362
20
50.1941373
11
3.7987133
21
50.1584032
0
LINE
8
0
10
3.7987133
20
50.1584032
11
3.4
21
49.9880727
0
LINE
8
0
10
3.4
20
49.9880727
11
3.36241999
21
49.9583327
0
LINE
8
0
10
3.36241999
20
49.9583327
11
3.00870498
21
49.6784092
0
LINE
8
0
10
3.00870498
20
49.6784092
11
2.98814702
21
49.6626345
0
LINE
8
0
10
2.98814702
20
49.6626345
11
2.985786
21
49.6608228
0
LINE
8
0
10
2.985786
20
49.6608228
11
2.7071579
21
49.2977085
0
LINE
8
0
10
2.7071579
20
49.2977085
11
2.667949
21
49.2466109
0
LINE
8
0
10
2.667949
20
49.2466109
11
2.51401335
21
48.8749801
0
LINE
8
0
10
2.51401335
20
48.8749801
11
2.468148
21
48.7642519
0
LINE
8
0
10
2.468148
20
48.7642519
11
2.45250427
21
48.645425
0
LINE
8
0
10
2.45250427
20
48.645425
11
2.4
21
48.2560006
0
LINE
8
0
10
2.4
20
48.2560006
11
2.4
21
47.8049679
0
LINE
8
0
10
2.4
20
47.8049679
11
2.4
21
47.233297
0
LINE
8
0
10
2.4
20
47.233297
11
2.4
21
43.5486098
0
LINE
8
0
10
2.4
20
43.5486098
11
2.4
21
43.2472448
0
LINE
8
0
10
2.4
20
43.2472448
11
2.4
21
43.1250677
0
LINE
8
0
10
2.4
20
43.1250677
11
2.4
21
43.0018996
0
LINE
8
0
10
2.4
20
43.0018996
11
2.4
21
42.7177228
0
LINE
8
0
10
2.4
20
42.7177228
11
2.4
21
42.5948326
0
LINE
8
0
10
2.4
20
42.5948326
11
2.4
21
40.5784287
0
LINE
8
0
10
2.4
20
40.5784287
11
2.4
21
40.3470279
0
LINE
8
0
10
2.4
20
40.3470279
11
2.4
21
40.1551752
0
LINE
8
0
10
2.4
20
40.1551752
11
2.4
21
40.0106998
0
LINE
8
0
10
2.4
20
40.0106998
11
2.4
21
35.2580796
0
LINE
8
0
10
2.4
20
35.2580796
11
2.4
21
35.1817116
0
LINE
8
0
10
2.4
20
35.1817116
11
2.4
21
35.1270655
0
LINE
8
0
10
2.4
20
35.1270655
11
2.4
21
34.3849768
0
LINE
8
0
10
2.4
20
34.3849768
11
2.4
21
31.8996974
0
LINE
8
0
10
2.4
20
31.8996974
11
8.88891599
21
31.8996974
0
LINE
8
0
10
8.88891599
20
31.8996974
11
16
21
31.8996974
0
LINE
8
0
10
16
20
31.8996974
11
16
21
31.8996974
0
LINE
8
0
10
35.2
20
4.98723953
11
35.2
21
5.53026262
0
LINE
8
0
10
35.2
20
5.53026262
11
35.2
21
6.19047582
0
LINE
8
0
10
35.2
20
6.19047582
11
35.2
21
6.869922
0
LINE
8
0
10
35.2
20
6.869922
11
35.2
21
7.49180978
0
LINE
8
0
10
35.2
20
7.49180978
11
35.2
21
8.0150697
0
LINE
8
0
10
35.2
20
8.0150697
11
35.2
21
9.71158083
0
LINE
8
0
10
35.2
20
9.71158083
11
35.2
21
10
0
LINE
8
0
10
35.2
20
10
11
34.8385194
21
10
0
LINE
8
0
10
34.8385194
20
10
11
30.2
21
10
0
LINE
8
0
10
30.2
20
10
11
30.2
21
10.1238421
0
LINE
8
0
10
30.2
20
10.1238421
11
30.2
21
11.0535714
0
LINE
8
0
10
30.2
20
11.0535714
11
30.2
21
11.085935
0
LINE
8
0
10
30.2
20
11.085935
11
30.2
21
11.1904762
0
LINE
8
0
10
30.2
20
11.1904762
11
30.2
21
11.3897246
0
LINE
8
0
10
30.2
20
11.3897246
11
30.2
21
11.457097
0
LINE
8
0
10
30.2
20
11.457097
11
29.7289382
21
11.457097
0
LINE
8
0
10
29.7289382
20
11.457097
11
28.2
21
11.457097
0
LINE
8
0
10
28.2
20
11.457097
11
28.2
21
11.2067853
0
LINE
8
0
10
28.2
20
11.2067853
11
28.2
21
10.3398264
0
LINE
8
0
10
28.2
20
10.3398264
11
23.0402017
21
10.3398264
0
LINE
8
0
10
23.0402017
20
10.3398264
11
17.8804034
21
10.3398264
0
LINE
8
0
10
17.8804034
20
10.3398264
11
7.5597983
21
10.3398264
0
LINE
8
0
10
7.5597983
20
10.3398264
11
2.4
21
10.3398264
0
LINE
8
0
10
2.4
20
10.3398264
11
2.4
21
9.55976664
0
LINE
8
0
10
2.4
20
9.55976664
11
2.4
21
8.36709116
0
LINE
8
0
10
2.4
20
8.36709116
11
2.4
21
-7.70209853
0
LINE
8
0
10
2.4
20
-7.70209853
11
2.4
21
-8.14521879
0
LINE
8
0
10
2.4
20
-8.14521879
11
2.4
21
-11.1934385
0
LINE
8
0
10
2.4
20
-11.1934385
11
2.4
21
-13.1134985
0
LINE
8
0
10
2.4
20
-13.1134985
11
2.4
21
-13.1378768
0
LINE
8
0
10
2.4
20
-13.1378768
11
2.4
21
-13.6367862
0
LINE
8
0
10
2.4
20
-13.6367862
11
2.4
21
-13.9986902
0
LINE
8
0
10
2.4
20
-13.9986902
11
2.4
21
-14
0
LINE
8
0
10
2.4
20
-14
11
2.41399809
21
-14.2299395
0
LINE
8
0
10
2.41399809
20
-14.2299395
11
2.41898771
21
-14.2605963
0
LINE
8
0
10
2.41898771
20
-14.2605963
11
2.45705807
21
-14.4724305
0
LINE
8
0
10
2.45705807
20
-14.4724305
11
2.60358069
21
-14.873595
0
LINE
8
0
10
2.60358069
20
-14.873595
11
2.6153177
21
-14.9019305
0
LINE
8
0
10
2.6153177
20
-14.9019305
11
2.83144405
21
-15.2395209
0
LINE
8
0
10
2.83144405
20
-15.2395209
11
2.84201353
21
-15.2532952
0
LINE
8
0
10
2.84201353
20
-15.2532952
11
3.09958346
21
-15.519126
0
LINE
8
0
10
3.09958346
20
-15.519126
11
3.10110002
21
-15.5202886
0
LINE
8
0
10
3.10110002
20
-15.5202886
11
3.13234976
21
-15.5423676
0
LINE
8
0
10
3.13234976
20
-15.5423676
11
5.3558746
21
-15.5439221
0
LINE
8
0
10
5.3558746
20
-15.5439221
11
16.55
21
-15.5225596
0
LINE
8
0
10
16.55
20
-15.5225596
11
27.7351605
21
-15.5402759
0
LINE
8
0
10
27.7351605
20
-15.5402759
11
29.2642857
21
-15.5402759
0
LINE
8
0
10
29.2642857
20
-15.5402759
11
29.3093997
21
-15.5772992
0
LINE
8
0
10
29.3093997
20
-15.5772992
11
29.3116825
21
-15.5790509
0
LINE
8
0
10
29.3116825
20
-15.5790509
11
29.7305685
21
-15.8034262
0
LINE
8
0
10
29.7305685
20
-15.8034262
11
29.7567215
21
-15.8142592
0
LINE
8
0
10
29.7567215
20
-15.8142592
11
30.1991507
21
-15.9489009
0
LINE
8
0
10
30.1991507
20
-15.9489009
11
30.2319346
21
-15.9538969
0
LINE
8
0
10
30.2319346
20
-15.9538969
11
30.7
21
-16
0
LINE
8
0
10
30.7
20
-16
11
30.8069433
21
-16
0
LINE
8
0
10
30.8069433
20
-16
11
32.7
21
-16
0
LINE
8
0
10
32.7
20
-16
11
32.7715546
21
-15.9929521
0
LINE
8
0
10
32.7715546
20
-15.9929521
11
32.8400541
21
-15.9815606
0
LINE
8
0
10
32.8400541
20
-15.9815606
11
32.9801082
21
-15.9631212
0
LINE
8
0
10
32.9801082
20
-15.9631212
11
33.2520179
21
-15.9369694
0
LINE
8
0
10
33.2520179
20
-15.9369694
11
33.5414438
21
-15.8488256
0
LINE
8
0
10
33.5414438
20
-15.8488256
11
33.7658828
21
-15.75586
0
LINE
8
0
10
33.7658828
20
-15.75586
11
34.0416445
21
-15.6080733
0
LINE
8
0
10
34.0416445
20
-15.6080733
11
34.21787
21
-15.4728537
0
LINE
8
0
10
34.21787
20
-15.4728537
11
34.46777
21
-15.26777
0
LINE
8
0
10
34.46777
20
-15.26777
11
34.6909394
21
-14.9958321
0
LINE
8
0
10
34.6909394
20
-14.9958321
11
34.8030478
21
-14.8497264
0
LINE
8
0
10
34.8030478
20
-14.8497264
11
34.9720453
21
-14.5330634
0
LINE
8
0
10
34.9720453
20
-14.5330634
11
35.0370637
21
-14.3760949
0
LINE
8
0
10
35.0370637
20
-14.3760949
11
35.1428134
21
-14.0269556
0
LINE
8
0
10
35.1428134
20
-14.0269556
11
35.1702178
21
-13.8425456
0
LINE
8
0
10
35.1702178
20
-13.8425456
11
35.1888359
21
-13.7272138
0
LINE
8
0
10
35.1888359
20
-13.7272138
11
35.2
21
-13.5
0
LINE
8
0
10
35.2
20
-13.5
11
35.2
21
-13.0951417
0
LINE
8
0
10
35.2
20
-13.0951417
11
35.2
21
-13.0365532
0
LINE
8
0
10
35.2
20
-13.0365532
11
35.2
21
-12.9322042
0
LINE
8
0
10
35.2
20
-12.9322042
11
35.2
21
-12.7687035
0
LINE
8
0
10
35.2
20
-12.7687035
11
35.2
21
-12.5303484
0
LINE
8
0
10
35.2
20
-12.5303484
11
35.2
21
-12.2011857
0
LINE
8
0
10
35.2
20
-12.2011857
11
35.2
21
-11.7700079
0
LINE
8
0
10
35.2
20
-11.7700079
11
35.2
21
-11.2393942
0
LINE
8
0
10
35.2
20
-11.2393942
11
35.2
21
-10.6374446
0
LINE
8
0
10
35.2
20
-10.6374446
11
35.2
21
-10.0252653
0
LINE
8
0
10
35.2
20
-10.0252653
11
35.2
21
-9.48854774
0
LINE
8
0
10
35.2
20
-9.48854774
11
35.2
21
4.98723953
0
LINE
8
0
10
35.2
20
4.98723953
11
35.2
21
4.98723953
0
LINE
8
0
10
72
20
23.8362279
11
72
21
18.8463461
0
LINE
8
0
10
72
20
18.8463461
11
72
21
18.6928738
0
LINE
8
0
10
72
20
18.6928738
11
71.649093
21
18.6928738
0
LINE
8
0
10
71.649093
20
18.6928738
11
64.2
21
18.6928738
0
LINE
8
0
10
64.2
20
18.6928738
11
64.2
21
17.3279135
0
LINE
8
0
10
64.2
20
17.3279135
11
64.2
21
17.2636129
0
LINE
8
0
10
64.2
20
17.2636129
11
64.0020511
21
17.2636129
0
LINE
8
0
10
64.0020511
20
17.2636129
11
62
21
17.2636129
0
LINE
8
0
10
62
20
17.2636129
11
62
21
17.394052
0
LINE
8
0
10
62
20
17.394052
11
62
21
21.7440937
0
LINE
8
0
10
62
20
21.7440937
11
62.3409123
21
22.33845
0
LINE
8
0
10
62.3409123
20
22.33845
11
62.4201446
21
22.4765842
0
LINE
8
0
10
62.4201446
20
22.4765842
11
62.6720485
21
22.9157708
0
LINE
8
0
10
62.6720485
20
22.9157708
11
62.9464232
21
23.3941291
0
LINE
8
0
10
62.9464232
20
23.3941291
11
63.2
21
23.8362285
0
LINE
8
0
10
63.2
20
23.8362285
11
66.4420582
21
23.8362279
0
LINE
8
0
10
66.4420582
20
23.8362279
11
72
21
23.8362279
0
LINE
8
0
10
72
20
23.8362279
11
72
21
23.8362279
0
LINE
8
0
10
72
20
-12.1033222
11
72
21
-12.3433757
0
LINE
8
0
10
72
20
-12.3433757
11
72
21
-12.5010394
0
LINE
8
0
10
72
20
-12.5010394
11
72
21
-12.5297189
0
LINE
8
0
10
72
20
-12.5297189
11
72
21
-13.5
0
LINE
8
0
10
72
20
-13.5
11
71.9876822
21
-13.5935584
0
LINE
8
0
10
71.9876822
20
-13.5935584
11
71.91481
21
-14.14705
0
LINE
8
0
10
71.91481
20
-14.14705
11
71.7011719
21
-14.6628181
0
LINE
8
0
10
71.7011719
20
-14.6628181
11
71.66506
21
-14.75
0
LINE
8
0
10
71.66506
20
-14.75
11
71.3252151
21
-15.1929045
0
LINE
8
0
10
71.3252151
20
-15.1929045
11
71.26777
21
-15.26777
0
LINE
8
0
10
71.26777
20
-15.26777
11
70.8248655
21
-15.6076149
0
LINE
8
0
10
70.8248655
20
-15.6076149
11
70.75
21
-15.66506
0
LINE
8
0
10
70.75
20
-15.66506
11
70.2342319
21
-15.8786981
0
LINE
8
0
10
70.2342319
20
-15.8786981
11
70.14705
21
-15.91481
0
LINE
8
0
10
70.14705
20
-15.91481
11
69.5935584
21
-15.9876822
0
LINE
8
0
10
69.5935584
20
-15.9876822
11
69.5
21
-16
0
LINE
8
0
10
69.5
20
-16
11
60.3171215
21
-16
0
LINE
8
0
10
60.3171215
20
-16
11
58.8
21
-16
0
LINE
8
0
10
58.8
20
-16
11
58.7918939
21
-15.999833
0
LINE
8
0
10
58.7918939
20
-15.999833
11
58.73836
21
-15.99873
0
LINE
8
0
10
58.73836
20
-15.99873
11
58.7301265
21
-15.9982218
0
LINE
8
0
10
58.7301265
20
-15.9982218
11
58.67679
21
-15.99493
0
LINE
8
0
10
58.67679
20
-15.99493
11
58.6238672
21
-15.9894707
0
LINE
8
0
10
58.6238672
20
-15.9894707
11
58.5589472
21
-15.9775937
0
LINE
8
0
10
58.5589472
20
-15.9775937
11
58.5025643
21
-15.9665975
0
LINE
8
0
10
58.5025643
20
-15.9665975
11
58.2883667
21
-15.9035351
0
LINE
8
0
10
58.2883667
20
-15.9035351
11
58.1023659
21
-15.826491
0
LINE
8
0
10
58.1023659
20
-15.826491
11
57.889572
21
-15.6768551
0
LINE
8
0
10
57.889572
20
-15.6768551
11
57.7437602
21
-15.5649688
0
LINE
8
0
10
57.7437602
20
-15.5649688
11
57.6503901
21
-15.4554115
0
LINE
8
0
10
57.6503901
20
-15.4554115
11
57.5439817
21
-15.3167387
0
LINE
8
0
10
57.5439817
20
-15.3167387
11
57.4622843
21
-15.174694
0
LINE
8
0
10
57.4622843
20
-15.174694
11
57.3990126
21
-15.0219424
0
LINE
8
0
10
57.3990126
20
-15.0219424
11
57.3417551
21
-14.849074
0
LINE
8
0
10
57.3417551
20
-14.849074
11
57.3194051
21
-14.6474005
0
LINE
8
0
10
57.3194051
20
-14.6474005
11
57.3081167
21
-14.5616541
0
LINE
8
0
10
57.3081167
20
-14.5616541
11
57.3051315
21
-14.538979
0
LINE
8
0
10
57.3051315
20
-14.538979
11
57.302803
21
-14.5254793
0
LINE
8
0
10
57.302803
20
-14.5254793
11
57.3
21
-14.5
0
LINE
8
0
10
57.3
20
-14.5
11
57.3
21
-14.4742574
0
LINE
8
0
10
57.3
20
-14.4742574
11
57.3
21
-14.17729
0
LINE
8
0
10
57.3
20
-14.17729
11
57.3
21
-12.7898615
0
LINE
8
0
10
57.3
20
-12.7898615
11
57.3
21
-12.5476077
0
LINE
8
0
10
57.3
20
-12.5476077
11
57.3
21
-12.3934938
0
LINE
8
0
10
57.3
20
-12.3934938
11
57.3
21
-12.1221671
0
LINE
8
0
10
57.3
20
-12.1221671
11
57.3
21
-11.9106322
0
LINE
8
0
10
57.3
20
-11.9106322
11
57.3
21
-11.6190242
0
LINE
8
0
10
57.3
20
-11.6190242
11
57.3
21
-11.2300685
0
LINE
8
0
10
57.3
20
-11.2300685
11
57.3
21
-10.728679
0
LINE
8
0
10
57.3
20
-10.728679
11
57.3
21
-10.1092919
0
LINE
8
0
10
57.3
20
-10.1092919
11
57.3
21
-9.38771694
0
LINE
8
0
10
57.3
20
-9.38771694
11
57.3
21
-8.61451574
0
LINE
8
0
10
57.3
20
-8.61451574
11
57.3
21
-7.87985446
0
LINE
8
0
10
57.3
20
-7.87985446
11
57.3
21
6.79023986
0
LINE
8
0
10
57.3
20
6.79023986
11
57.3
21
7.17986133
0
LINE
8
0
10
57.3
20
7.17986133
11
57.3
21
7.68325847
0
LINE
8
0
10
57.3
20
7.68325847
11
57.3
21
8.2267692
0
LINE
8
0
10
57.3
20
8.2267692
11
57.3
21
8.73809042
0
LINE
8
0
10
57.3
20
8.73809042
11
57.3
21
9.16972996
0
LINE
8
0
10
57.3
20
9.16972996
11
57.3
21
9.50386468
0
LINE
8
0
10
57.3
20
9.50386468
11
57.3
21
10
0
LINE
8
0
10
57.3
20
10
11
58.8687583
21
10
0
LINE
8
0
10
58.8687583
20
10
11
62
21
10
0
LINE
8
0
10
62
20
10
11
62
21
13.8276138
0
LINE
8
0
10
62
20
13.8276138
11
62
21
14.1800756
0
LINE
8
0
10
62
20
14.1800756
11
62
21
14.7297297
0
LINE
8
0
10
62
20
14.7297297
11
62
21
14.9084246
0
LINE
8
0
10
62
20
14.9084246
11
63.6511678
21
14.9084246
0
LINE
8
0
10
63.6511678
20
14.9084246
11
64.2
21
14.9084246
0
LINE
8
0
10
64.2
20
14.9084246
11
64.2
21
14.1578938
0
LINE
8
0
10
64.2
20
14.1578938
11
64.2
21
13.9084257
0
LINE
8
0
10
64.2
20
13.9084257
11
65.6532055
21
13.9055874
0
LINE
8
0
10
65.6532055
20
13.9055874
11
72
21
13.9166602
0
LINE
8
0
10
72
20
13.9166602
11
72
21
12.3591478
0
LINE
8
0
10
72
20
12.3591478
11
72
21
11.444532
0
LINE
8
0
10
72
20
11.444532
11
72
21
9.2399844
0
LINE
8
0
10
72
20
9.2399844
11
71.9984075
21
9.17102223
0
LINE
8
0
10
71.9984075
20
9.17102223
11
71.996785
21
9.10026015
0
LINE
8
0
10
71.996785
20
9.10026015
11
71.9869675
21
8.59422079
0
LINE
8
0
10
71.9869675
20
8.59422079
11
71.9762996
21
8.0385611
0
LINE
8
0
10
71.9762996
20
8.0385611
11
71.9762464
21
8.03766412
0
LINE
8
0
10
71.9762464
20
8.03766412
11
71.9762055
21
8.03696724
0
LINE
8
0
10
71.9762055
20
8.03696724
11
71.9470995
21
7.42566805
0
LINE
8
0
10
71.9470995
20
7.42566805
11
71.9296588
21
7.05353157
0
LINE
8
0
10
71.9296588
20
7.05353157
11
71.9212535
21
6.81808867
0
LINE
8
0
10
71.9212535
20
6.81808867
11
71.9045537
21
6.33950282
0
LINE
8
0
10
71.9045537
20
6.33950282
11
71.8955848
21
6.19318464
0
LINE
8
0
10
71.8955848
20
6.19318464
11
71.89183
21
6.13045107
0
LINE
8
0
10
71.89183
20
6.13045107
11
71.8668122
21
5.51627642
0
LINE
8
0
10
71.8668122
20
5.51627642
11
71.8564491
21
5.2520815
0
LINE
8
0
10
71.8564491
20
5.2520815
11
71.8475776
21
4.8074179
0
LINE
8
0
10
71.8475776
20
4.8074179
11
71.8401691
21
4.40572507
0
LINE
8
0
10
71.8401691
20
4.40572507
11
71.8405323
21
4.04218285
0
LINE
8
0
10
71.8405323
20
4.04218285
11
71.8416589
21
3.58040779
0
LINE
8
0
10
71.8416589
20
3.58040779
11
71.8502849
21
3.18037984
0
LINE
8
0
10
71.8502849
20
3.18037984
11
71.8597841
21
2.76545566
0
LINE
8
0
10
71.8597841
20
2.76545566
11
71.8854892
21
2.14902479
0
LINE
8
0
10
71.8854892
20
2.14902479
11
71.8939797
21
1.95088247
0
LINE
8
0
10
71.8939797
20
1.95088247
11
71.9157033
21
1.59700636
0
LINE
8
0
10
71.9157033
20
1.59700636
11
71.9329092
21
1.12720389
0
LINE
8
0
10
71.9329092
20
1.12720389
11
71.9602208
21
0.550609824
0
LINE
8
0
10
71.9602208
20
0.550609824
11
71.9729101
21
0.284687258
0
LINE
8
0
10
71.9729101
20
0.284687258
11
71.9805616
21
0.152874202
0
LINE
8
0
10
71.9805616
20
0.152874202
11
71.9948236
21
-0.588236943
0
LINE
8
0
10
71.9948236
20
-0.588236943
11
72
21
-0.818090561
0
LINE
8
0
10
72
20
-0.818090561
11
72
21
-3.19562639
0
LINE
8
0
10
72
20
-3.19562639
11
72
21
-5.5957559
0
LINE
8
0
10
72
20
-5.5957559
11
72
21
-7.3128499
0
LINE
8
0
10
72
20
-7.3128499
11
72
21
-8.56509054
0
LINE
8
0
10
72
20
-8.56509054
11
72
21
-9.49505759
0
LINE
8
0
10
72
20
-9.49505759
11
72
21
-10.1967584
0
LINE
8
0
10
72
20
-10.1967584
11
72
21
-10.7335653
0
LINE
8
0
10
72
20
-10.7335653
11
72
21
-11.1496211
0
LINE
8
0
10
72
20
-11.1496211
11
72
21
-11.4756831
0
LINE
8
0
10
72
20
-11.4756831
11
72
21
-11.7334621
0
LINE
8
0
10
72
20
-11.7334621
11
72
21
-12.1033222
0
LINE
8
0
10
72
20
-12.1033222
11
72
21
-12.1033222
0
ENDSEC
0
EOF
