0
SECTION
2
ENTITIES
0
LINE
8
0
10
16
20
24.5151709
11
16
21
24.4922004
0
LINE
8
0
10
16
20
24.4922004
11
19.228307
21
24.4921997
0
LINE
8
0
10
19.228307
20
24.4921997
11
20.5813106
21
24.4921997
0
LINE
8
0
10
20.5813106
20
24.4921997
11
29
21
24.4921997
0
LINE
8
0
10
29
20
24.4921997
11
29.19774
21
24.1474492
0
LINE
8
0
10
29.19774
20
24.1474492
11
30.0529899
21
22.6563638
0
LINE
8
0
10
30.0529899
20
22.6563638
11
30.2
21
22.4000622
0
LINE
8
0
10
30.2
20
22.4000622
11
30.2
21
16.2048527
0
LINE
8
0
10
30.2
20
16.2048527
11
30.2
21
13.9909682
0
LINE
8
0
10
30.2
20
13.9909682
11
30.2
21
13.6811583
0
LINE
8
0
10
30.2
20
13.6811583
11
28.6059805
21
13.6811583
0
LINE
8
0
10
28.6059805
20
13.6811583
11
28.2
21
13.6811583
0
LINE
8
0
10
28.2
20
13.6811583
11
28.2
21
13.9909682
0
LINE
8
0
10
28.2
20
13.9909682
11
28.2
21
14.2559414
0
LINE
8
0
10
28.2
20
14.2559414
11
28.2
21
15.8398577
0
LINE
8
0
10
28.2
20
15.8398577
11
18.7014939
21
15.8398577
0
LINE
8
0
10
18.7014939
20
15.8398577
11
9.91965067
21
15.8398577
0
LINE
8
0
10
9.91965067
20
15.8398577
11
2.4
21
15.8398539
0
LINE
8
0
10
2.4
20
15.8398539
11
2.4
21
24.3387949
0
LINE
8
0
10
2.4
20
24.3387949
11
2.4
21
28.29387
0
LINE
8
0
10
2.4
20
28.29387
11
2.4
21
28.696864
0
LINE
8
0
10
2.4
20
28.696864
11
2.4
21
29.1670075
0
LINE
8
0
10
2.4
20
29.1670075
11
3.77905823
21
29.1670075
0
LINE
8
0
10
3.77905823
20
29.1670075
11
16
21
29.1670075
0
LINE
8
0
10
16
20
29.1670075
11
16
21
28.29387
0
LINE
8
0
10
16
20
28.29387
11
16
21
25.1817281
0
LINE
8
0
10
16
20
25.1817281
11
16
21
24.7848929
0
LINE
8
0
10
16
20
24.7848929
11
16
21
24.5972487
0
LINE
8
0
10
16
20
24.5972487
11
16
21
24.5151709
0
LINE
8
0
10
16
20
24.5151709
11
16
21
24.5151709
0
LINE
8
0
10
16
20
29.840927
11
16.9883767
21
29.8409246
0
LINE
8
0
10
16.9883767
20
29.8409246
11
17.8
21
29.8409241
0
LINE
8
0
10
17.8
20
29.8409241
11
17.8
21
40.4289336
0
LINE
8
0
10
17.8
20
40.4289336
11
17.8
21
40.805815
0
LINE
8
0
10
17.8
20
40.805815
11
17.8
21
41.468576
0
LINE
8
0
10
17.8
20
41.468576
11
17.8
21
42.4666657
0
LINE
8
0
10
17.8
20
42.4666657
11
17.8
21
43.755191
0
LINE
8
0
10
17.8
20
43.755191
11
17.8
21
43.8048996
0
LINE
8
0
10
17.8
20
43.8048996
11
17.8
21
43.8501523
0
LINE
8
0
10
17.8
20
43.8501523
11
17.8
21
45.1829985
0
LINE
8
0
10
17.8
20
45.1829985
11
17.8
21
45.2
0
LINE
8
0
10
17.8
20
45.2
11
17.8
21
45.287061
0
LINE
8
0
10
17.8
20
45.287061
11
17.8
21
50.2
0
LINE
8
0
10
17.8
20
50.2
11
17.790641
21
50.2
0
LINE
8
0
10
17.790641
20
50.2
11
17.77366
21
50.2
0
LINE
8
0
10
17.77366
20
50.2
11
17.7399663
21
50.2
0
LINE
8
0
10
17.7399663
20
50.2
11
17.6672425
21
50.2
0
LINE
8
0
10
17.6672425
20
50.2
11
15.9846808
21
50.2
0
LINE
8
0
10
15.9846808
20
50.2
11
15.8963246
21
50.2
0
LINE
8
0
10
15.8963246
20
50.2
11
15.5700556
21
50.2
0
LINE
8
0
10
15.5700556
20
50.2
11
13.7984515
21
50.2
0
LINE
8
0
10
13.7984515
20
50.2
11
13.7104254
21
50.2012653
0
LINE
8
0
10
13.7104254
20
50.2012653
11
13.1340808
21
50.2040377
0
LINE
8
0
10
13.1340808
20
50.2040377
11
13
21
50.209673
0
LINE
8
0
10
13
20
50.209673
11
12.0235025
21
50.209673
0
LINE
8
0
10
12.0235025
20
50.209673
11
4.4
21
50.209673
0
LINE
8
0
10
4.4
20
50.209673
11
4.31472067
21
50.1952009
0
LINE
8
0
10
4.31472067
20
50.1952009
11
3.882362
21
50.1382784
0
LINE
8
0
10
3.882362
20
50.1382784
11
3.80862984
21
50.1077369
0
LINE
8
0
10
3.80862984
20
50.1077369
11
3.4
21
49.9384776
0
LINE
8
0
10
3.4
20
49.9384776
11
3.34320718
21
49.8948987
0
LINE
8
0
10
3.34320718
20
49.8948987
11
2.985786
21
49.6206377
0
LINE
8
0
10
2.985786
20
49.6206377
11
2.94736434
21
49.5705658
0
LINE
8
0
10
2.94736434
20
49.5705658
11
2.667949
21
49.2064274
0
LINE
8
0
10
2.667949
20
49.2064274
11
2.64672191
21
49.1551811
0
LINE
8
0
10
2.64672191
20
49.1551811
11
2.468148
21
48.7240676
0
LINE
8
0
10
2.468148
20
48.7240676
11
2.40724012
21
48.2614223
0
LINE
8
0
10
2.40724012
20
48.2614223
11
2.4
21
48.2077222
0
LINE
8
0
10
2.4
20
48.2077222
11
2.4
21
48.1455267
0
LINE
8
0
10
2.4
20
48.1455267
11
2.4
21
48.0666957
0
LINE
8
0
10
2.4
20
48.0666957
11
2.4
21
43.6849276
0
LINE
8
0
10
2.4
20
43.6849276
11
2.4
21
43.3265495
0
LINE
8
0
10
2.4
20
43.3265495
11
2.4
21
43.2142866
0
LINE
8
0
10
2.4
20
43.2142866
11
2.4
21
43.101113
0
LINE
8
0
10
2.4
20
43.101113
11
2.4
21
42.7616741
0
LINE
8
0
10
2.4
20
42.7616741
11
2.4
21
42.6482787
0
LINE
8
0
10
2.4
20
42.6482787
11
2.4
21
40.7876672
0
LINE
8
0
10
2.4
20
40.7876672
11
2.4
21
40.4957945
0
LINE
8
0
10
2.4
20
40.4957945
11
2.4
21
40.253805
0
LINE
8
0
10
2.4
20
40.253805
11
2.4
21
40.0715739
0
LINE
8
0
10
2.4
20
40.0715739
11
2.4
21
35.5993077
0
LINE
8
0
10
2.4
20
35.5993077
11
2.4
21
35.4683649
0
LINE
8
0
10
2.4
20
35.4683649
11
2.4
21
35.3746671
0
LINE
8
0
10
2.4
20
35.3746671
11
2.4
21
34.10226
0
LINE
8
0
10
2.4
20
34.10226
11
2.4
21
29.840927
0
LINE
8
0
10
2.4
20
29.840927
11
13.5260857
21
29.840927
0
LINE
8
0
10
13.5260857
20
29.840927
11
16
21
29.840927
0
LINE
8
0
10
16
20
29.840927
11
16
21
29.840927
0
LINE
8
0
10
35.2
20
-9.13150308
11
35.2
21
-9.90114556
0
LINE
8
0
10
35.2
20
-9.90114556
11
35.2
21
-10.657927
0
LINE
8
0
10
35.2
20
-10.657927
11
35.2
21
-11.3250238
0
LINE
8
0
10
35.2
20
-11.3250238
11
35.2
21
-11.8671081
0
LINE
8
0
10
35.2
20
-11.8671081
11
35.2
21
-12.2809371
0
LINE
8
0
10
35.2
20
-12.2809371
11
35.2
21
-12.5806014
0
LINE
8
0
10
35.2
20
-12.5806014
11
35.2
21
-12.7861573
0
LINE
8
0
10
35.2
20
-12.7861573
11
35.2
21
-12.9173466
0
LINE
8
0
10
35.2
20
-12.9173466
11
35.2
21
-12.9910051
0
LINE
8
0
10
35.2
20
-12.9910051
11
35.2
21
-13.5
0
LINE
8
0
10
35.2
20
-13.5
11
35.1890597
21
-13.7226593
0
LINE
8
0
10
35.1890597
20
-13.7226593
11
35.1656848
21
-13.8674577
0
LINE
8
0
10
35.1656848
20
-13.8674577
11
35.1405224
21
-14.0367808
0
LINE
8
0
10
35.1405224
20
-14.0367808
11
35.0434243
21
-14.3573563
0
LINE
8
0
10
35.0434243
20
-14.3573563
11
34.9632926
21
-14.5508115
0
LINE
8
0
10
34.9632926
20
-14.5508115
11
34.8081211
21
-14.8415675
0
LINE
8
0
10
34.8081211
20
-14.8415675
11
34.6726814
21
-15.0180799
0
LINE
8
0
10
34.6726814
20
-15.0180799
11
34.46777
21
-15.26777
0
LINE
8
0
10
34.46777
20
-15.26777
11
34.2383149
21
-15.4560753
0
LINE
8
0
10
34.2383149
20
-15.4560753
11
34.0341469
21
-15.6127355
0
LINE
8
0
10
34.0341469
20
-15.6127355
11
33.7809458
21
-15.7484314
0
LINE
8
0
10
33.7809458
20
-15.7484314
11
33.52554
21
-15.8542239
0
LINE
8
0
10
33.52554
20
-15.8542239
11
33.2597927
21
-15.9351565
0
LINE
8
0
10
33.2597927
20
-15.9351565
11
33.0101285
21
-15.9591688
0
LINE
8
0
10
33.0101285
20
-15.9591688
11
32.8550643
21
-15.9795844
0
LINE
8
0
10
32.8550643
20
-15.9795844
11
32.7792234
21
-15.9921967
0
LINE
8
0
10
32.7792234
20
-15.9921967
11
32.7
21
-16
0
LINE
8
0
10
32.7
20
-16
11
30.8411569
21
-16
0
LINE
8
0
10
30.8411569
20
-16
11
30.7
21
-16
0
LINE
8
0
10
30.7
20
-16
11
30.2414625
21
-15.9548354
0
LINE
8
0
10
30.2414625
20
-15.9548354
11
30.1927942
21
-15.9474187
0
LINE
8
0
10
30.1927942
20
-15.9474187
11
29.769601
21
-15.8186309
0
LINE
8
0
10
29.769601
20
-15.8186309
11
29.7183699
21
-15.7974103
0
LINE
8
0
10
29.7183699
20
-15.7974103
11
29.3176963
21
-15.5827904
0
LINE
8
0
10
29.3176963
20
-15.5827904
11
29.293001
21
-15.5638414
0
LINE
8
0
10
29.293001
20
-15.5638414
11
28.93223
21
-15.26777
0
LINE
8
0
10
28.93223
20
-15.26777
11
28.8049706
21
-15.112701
0
LINE
8
0
10
28.8049706
20
-15.112701
11
21.4911079
21
-15.112701
0
LINE
8
0
10
21.4911079
20
-15.112701
11
16.55
21
-15.1019181
0
LINE
8
0
10
16.55
20
-15.1019181
11
10.7544012
21
-15.1131039
0
LINE
8
0
10
10.7544012
20
-15.1131039
11
2.75251493
21
-15.1155208
0
LINE
8
0
10
2.75251493
20
-15.1155208
11
2.61295334
21
-14.8975249
0
LINE
8
0
10
2.61295334
20
-14.8975249
11
2.60966474
21
-14.8895856
0
LINE
8
0
10
2.60966474
20
-14.8895856
11
2.45655988
21
-14.4703995
0
LINE
8
0
10
2.45655988
20
-14.4703995
11
2.41677928
21
-14.2490491
0
LINE
8
0
10
2.41677928
20
-14.2490491
11
2.41419471
21
-14.2331692
0
LINE
8
0
10
2.41419471
20
-14.2331692
11
2.4
21
-14
0
LINE
8
0
10
2.4
20
-14
11
2.4
21
-13.9992836
0
LINE
8
0
10
2.4
20
-13.9992836
11
2.4
21
-13.8013494
0
LINE
8
0
10
2.4
20
-13.8013494
11
2.4
21
-13.2941593
0
LINE
8
0
10
2.4
20
-13.2941593
11
2.4
21
-13.280302
0
LINE
8
0
10
2.4
20
-13.280302
11
2.4
21
-12.1888877
0
LINE
8
0
10
2.4
20
-12.1888877
11
2.4
21
-10.4561967
0
LINE
8
0
10
2.4
20
-10.4561967
11
2.4
21
-10.2043151
0
LINE
8
0
10
2.4
20
-10.2043151
11
2.4
21
9.20128205
0
LINE
8
0
10
2.4
20
9.20128205
11
2.4
21
10.3
0
LINE
8
0
10
2.4
20
10.3
11
23.2109317
21
10.3
0
LINE
8
0
10
23.2109317
20
10.3
11
28.2
21
10.3
0
LINE
8
0
10
28.2
20
10.3
11
28.2
21
10.9380871
0
LINE
8
0
10
28.2
20
10.9380871
11
28.2
21
11.4190058
0
LINE
8
0
10
28.2
20
11.4190058
11
29.3256024
21
11.4190058
0
LINE
8
0
10
29.3256024
20
11.4190058
11
30.2
21
11.4190058
0
LINE
8
0
10
30.2
20
11.4190058
11
30.2
21
11.3652564
0
LINE
8
0
10
30.2
20
11.3652564
11
30.2
21
11.3245683
0
LINE
8
0
10
30.2
20
11.3245683
11
30.2
21
10.1556965
0
LINE
8
0
10
30.2
20
10.1556965
11
30.2
21
10
0
LINE
8
0
10
30.2
20
10
11
34.7455403
21
10
0
LINE
8
0
10
34.7455403
20
10
11
35.2
21
10
0
LINE
8
0
10
35.2
20
10
11
35.2
21
9.6373944
0
LINE
8
0
10
35.2
20
9.6373944
11
35.2
21
7.5045111
0
LINE
8
0
10
35.2
20
7.5045111
11
35.2
21
6.84665964
0
LINE
8
0
10
35.2
20
6.84665964
11
35.2
21
6.0648115
0
LINE
8
0
10
35.2
20
6.0648115
11
35.2
21
5.21059995
0
LINE
8
0
10
35.2
20
5.21059995
11
35.2
21
4.38056843
0
LINE
8
0
10
35.2
20
4.38056843
11
35.2
21
3.69787036
0
LINE
8
0
10
35.2
20
3.69787036
11
35.2
21
-8.45673246
0
LINE
8
0
10
35.2
20
-8.45673246
11
35.2
21
-9.13150308
0
LINE
8
0
10
35.2
20
-9.13150308
11
35.2
21
-9.13150308
0
LINE
8
0
10
72
20
-12.2801457
11
72
21
-12.2440894
0
LINE
8
0
10
72
20
-12.2440894
11
72
21
-12.0458718
0
LINE
8
0
10
72
20
-12.0458718
11
72
21
-11.7440724
0
LINE
8
0
10
72
20
-11.7440724
11
72
21
-11.2790778
0
LINE
8
0
10
72
20
-11.2790778
11
72
21
-10.9549936
0
LINE
8
0
10
72
20
-10.9549936
11
72
21
-10.5450628
0
LINE
8
0
10
72
20
-10.5450628
11
72
21
-10.0219902
0
LINE
8
0
10
72
20
-10.0219902
11
72
21
-9.34710717
0
LINE
8
0
10
72
20
-9.34710717
11
72
21
-8.46491675
0
LINE
8
0
10
72
20
-8.46491675
11
72
21
-7.295746
0
LINE
8
0
10
72
20
-7.295746
11
72
21
-5.72140729
0
LINE
8
0
10
72
20
-5.72140729
11
72
21
-3.56264686
0
LINE
8
0
10
72
20
-3.56264686
11
72
21
-1.59446816
0
LINE
8
0
10
72
20
-1.59446816
11
71.9929939
21
-1.32141109
0
LINE
8
0
10
71.9929939
20
-1.32141109
11
71.9813061
21
-0.802045923
0
LINE
8
0
10
71.9813061
20
-0.802045923
11
71.956967
21
-0.444871785
0
LINE
8
0
10
71.956967
20
-0.444871785
11
71.919997
21
0.189933713
0
LINE
8
0
10
71.919997
20
0.189933713
11
71.9002161
21
0.390113133
0
LINE
8
0
10
71.9002161
20
0.390113133
11
71.8735073
21
0.718746711
0
LINE
8
0
10
71.8735073
20
0.718746711
11
71.8350553
21
1.1960133
0
LINE
8
0
10
71.8350553
20
1.1960133
11
71.8048473
21
1.68050022
0
LINE
8
0
10
71.8048473
20
1.68050022
11
71.7781107
21
1.98386751
0
LINE
8
0
10
71.7781107
20
1.98386751
11
71.7688883
21
2.13383968
0
LINE
8
0
10
71.7688883
20
2.13383968
11
71.7313348
21
2.76301417
0
LINE
8
0
10
71.7313348
20
2.76301417
11
71.7203394
21
3.09960886
0
LINE
8
0
10
71.7203394
20
3.09960886
11
71.7067666
21
3.54254341
0
LINE
8
0
10
71.7067666
20
3.54254341
11
71.7055892
21
3.91880259
0
LINE
8
0
10
71.7055892
20
3.91880259
11
71.7051979
21
4.33198968
0
LINE
8
0
10
71.7051979
20
4.33198968
11
71.7138526
21
4.65253705
0
LINE
8
0
10
71.7138526
20
4.65253705
11
71.7281714
21
5.1415377
0
LINE
8
0
10
71.7281714
20
5.1415377
11
71.7392422
21
5.33561051
0
LINE
8
0
10
71.7392422
20
5.33561051
11
71.7775511
21
5.98170942
0
LINE
8
0
10
71.7775511
20
5.98170942
11
71.7782538
21
5.98980211
0
LINE
8
0
10
71.7782538
20
5.98980211
11
71.7799827
21
6.00923153
0
LINE
8
0
10
71.7799827
20
6.00923153
11
71.8147206
21
6.58961316
0
LINE
8
0
10
71.8147206
20
6.58961316
11
71.8315803
21
6.86466247
0
LINE
8
0
10
71.8315803
20
6.86466247
11
71.8571846
21
7.18346389
0
LINE
8
0
10
71.8571846
20
7.18346389
11
71.9022792
21
7.73582898
0
LINE
8
0
10
71.9022792
20
7.73582898
11
71.9042337
21
7.77753401
0
LINE
8
0
10
71.9042337
20
7.77753401
11
71.9055583
21
7.80535273
0
LINE
8
0
10
71.9055583
20
7.80535273
11
71.9361749
21
8.32712113
0
LINE
8
0
10
71.9361749
20
8.32712113
11
71.9655602
21
8.82241291
0
LINE
8
0
10
71.9655602
20
8.82241291
11
71.9706674
21
8.89533234
0
LINE
8
0
10
71.9706674
20
8.89533234
11
71.976035
21
8.97142143
0
LINE
8
0
10
71.976035
20
8.97142143
11
71.9864368
21
9.42508871
0
LINE
8
0
10
71.9864368
20
9.42508871
11
71.9983027
21
9.93893591
0
LINE
8
0
10
71.9983027
20
9.93893591
11
71.9992408
21
9.9743383
0
LINE
8
0
10
71.9992408
20
9.9743383
11
72
21
10.0028831
0
LINE
8
0
10
72
20
10.0028831
11
72
21
12.9304056
0
LINE
8
0
10
72
20
12.9304056
11
72
21
13.9555497
0
LINE
8
0
10
72
20
13.9555497
11
66.8186153
21
13.9469402
0
LINE
8
0
10
66.8186153
20
13.9469402
11
64.2
21
13.9517751
0
LINE
8
0
10
64.2
20
13.9517751
11
64.2
21
14.4188236
0
LINE
8
0
10
64.2
20
14.4188236
11
64.2
21
14.9903777
0
LINE
8
0
10
64.2
20
14.9903777
11
63.2574403
21
14.9903777
0
LINE
8
0
10
63.2574403
20
14.9903777
11
62
21
14.9903777
0
LINE
8
0
10
62
20
14.9903777
11
62
21
14.8121427
0
LINE
8
0
10
62
20
14.8121427
11
62
21
10
0
LINE
8
0
10
62
20
10
11
59.2722703
21
10
0
LINE
8
0
10
59.2722703
20
10
11
57.3
21
10
0
LINE
8
0
10
57.3
20
10
11
57.3
21
9.37625005
0
LINE
8
0
10
57.3
20
9.37625005
11
57.3
21
8.95617007
0
LINE
8
0
10
57.3
20
8.95617007
11
57.3
21
8.41350533
0
LINE
8
0
10
57.3
20
8.41350533
11
57.3
21
7.7706634
0
LINE
8
0
10
57.3
20
7.7706634
11
57.3
21
7.08735226
0
LINE
8
0
10
57.3
20
7.08735226
11
57.3
21
6.45447262
0
LINE
8
0
10
57.3
20
6.45447262
11
57.3
21
5.96463373
0
LINE
8
0
10
57.3
20
5.96463373
11
57.3
21
-6.43425528
0
LINE
8
0
10
57.3
20
-6.43425528
11
57.3
21
-7.35788422
0
LINE
8
0
10
57.3
20
-7.35788422
11
57.3
21
-8.32996622
0
LINE
8
0
10
57.3
20
-8.32996622
11
57.3
21
-9.23714282
0
LINE
8
0
10
57.3
20
-9.23714282
11
57.3
21
-10.015847
0
LINE
8
0
10
57.3
20
-10.015847
11
57.3
21
-10.6462027
0
LINE
8
0
10
57.3
20
-10.6462027
11
57.3
21
-11.1352045
0
LINE
8
0
10
57.3
20
-11.1352045
11
57.3
21
-11.5018192
0
LINE
8
0
10
57.3
20
-11.5018192
11
57.3
21
-11.7677645
0
LINE
8
0
10
57.3
20
-11.7677645
11
57.3
21
-12.0257838
0
LINE
8
0
10
57.3
20
-12.0257838
11
57.3
21
-12.219024
0
LINE
8
0
10
57.3
20
-12.219024
11
57.3
21
-12.450745
0
LINE
8
0
10
57.3
20
-12.450745
11
57.3
21
-14.17729
0
LINE
8
0
10
57.3
20
-14.17729
11
57.3
21
-14.4683289
0
LINE
8
0
10
57.3
20
-14.4683289
11
57.3
21
-14.5
0
LINE
8
0
10
57.3
20
-14.5
11
57.3034485
21
-14.5313472
0
LINE
8
0
10
57.3034485
20
-14.5313472
11
57.3063133
21
-14.5479559
0
LINE
8
0
10
57.3063133
20
-14.5479559
11
57.309986
21
-14.575853
0
LINE
8
0
10
57.309986
20
-14.575853
11
57.3238741
21
-14.6813468
0
LINE
8
0
10
57.3238741
20
-14.6813468
11
57.3430737
21
-14.8545933
0
LINE
8
0
10
57.3430737
20
-14.8545933
11
57.3922604
21
-15.0030948
0
LINE
8
0
10
57.3922604
20
-15.0030948
11
57.4677359
21
-15.1853088
0
LINE
8
0
10
57.4677359
20
-15.1853088
11
57.5379175
21
-15.3073315
0
LINE
8
0
10
57.5379175
20
-15.3073315
11
57.6629281
21
-15.4702469
0
LINE
8
0
10
57.6629281
20
-15.4702469
11
57.7431372
21
-15.5643614
0
LINE
8
0
10
57.7431372
20
-15.5643614
11
57.9121853
21
-15.6940778
0
LINE
8
0
10
57.9121853
20
-15.6940778
11
58.0949846
21
-15.8226216
0
LINE
8
0
10
58.0949846
20
-15.8226216
11
58.3057611
21
-15.9099281
0
LINE
8
0
10
58.3057611
20
-15.9099281
11
58.4897663
21
-15.9641015
0
LINE
8
0
10
58.4897663
20
-15.9641015
11
58.5525482
21
-15.9763458
0
LINE
8
0
10
58.5525482
20
-15.9763458
11
58.6248361
21
-15.9895706
0
LINE
8
0
10
58.6248361
20
-15.9895706
11
58.67679
21
-15.99493
0
LINE
8
0
10
58.67679
20
-15.99493
11
58.72915
21
-15.9981616
0
LINE
8
0
10
58.72915
20
-15.9981616
11
58.73836
21
-15.99873
0
LINE
8
0
10
58.73836
20
-15.99873
11
58.7909104
21
-15.9998127
0
LINE
8
0
10
58.7909104
20
-15.9998127
11
58.8
21
-16
0
LINE
8
0
10
58.8
20
-16
11
60.5011922
21
-16
0
LINE
8
0
10
60.5011922
20
-16
11
69.5
21
-16
0
LINE
8
0
10
69.5
20
-16
11
69.6176233
21
-15.9845138
0
LINE
8
0
10
69.6176233
20
-15.9845138
11
70.14705
21
-15.91481
0
LINE
8
0
10
70.14705
20
-15.91481
11
70.2566566
21
-15.8694095
0
LINE
8
0
10
70.2566566
20
-15.8694095
11
70.75
21
-15.66506
0
LINE
8
0
10
70.75
20
-15.66506
11
70.8441222
21
-15.5928391
0
LINE
8
0
10
70.8441222
20
-15.5928391
11
71.26777
21
-15.26777
0
LINE
8
0
10
71.26777
20
-15.26777
11
71.3399909
21
-15.1736478
0
LINE
8
0
10
71.3399909
20
-15.1736478
11
71.66506
21
-14.75
0
LINE
8
0
10
71.66506
20
-14.75
11
71.7104605
21
-14.6403934
0
LINE
8
0
10
71.7104605
20
-14.6403934
11
71.91481
21
-14.14705
0
LINE
8
0
10
71.91481
20
-14.14705
11
71.9845138
21
-13.6176233
0
LINE
8
0
10
71.9845138
20
-13.6176233
11
72
21
-13.5
0
LINE
8
0
10
72
20
-13.5
11
72
21
-12.2801457
0
LINE
8
0
10
72
20
-12.2801457
11
72
21
-12.2801457
0
LINE
8
0
10
72
20
21.4121146
11
72
21
24.4922012
0
LINE
8
0
10
72
20
24.4922012
11
65.0124589
21
24.4922012
0
LINE
8
0
10
65.0124589
20
24.4922012
11
63.2
21
24.4922015
0
LINE
8
0
10
63.2
20
24.4922015
11
63.0582389
21
24.2450477
0
LINE
8
0
10
63.0582389
20
24.2450477
11
62.7132903
21
23.6436474
0
LINE
8
0
10
62.7132903
20
23.6436474
11
62.3965924
21
23.0914943
0
LINE
8
0
10
62.3965924
20
23.0914943
11
62.2969801
21
22.9178296
0
LINE
8
0
10
62.2969801
20
22.9178296
11
62
21
22.4000659
0
LINE
8
0
10
62
20
22.4000659
11
62
21
18.4020695
0
LINE
8
0
10
62
20
18.4020695
11
62
21
16.9258652
0
LINE
8
0
10
62
20
16.9258652
11
63.2163767
21
16.9258652
0
LINE
8
0
10
63.2163767
20
16.9258652
11
64.2
21
16.9258652
0
LINE
8
0
10
64.2
20
16.9258652
11
64.2
21
17.3209859
0
LINE
8
0
10
64.2
20
17.3209859
11
64.2
21
18.3551277
0
LINE
8
0
10
64.2
20
18.3551277
11
66.3563057
21
18.3551277
0
LINE
8
0
10
66.3563057
20
18.3551277
11
72
21
18.3551277
0
LINE
8
0
10
72
20
18.3551277
11
72
21
18.9602231
0
LINE
8
0
10
72
20
18.9602231
11
72
21
21.4121146
0
LINE
8
0
10
72
20
21.4121146
11
72
21
21.4121146
0
ENDSEC
0
EOF
