0
SECTION
2
ENTITIES
0
LINE
8
0
10
16
20
24.8985763
11
16
21
24.8373278
0
LINE
8
0
10
16
20
24.8373278
11
16
21
24.8201866
0
LINE
8
0
10
16
20
24.8201866
11
18.4090438
21
24.820186
0
LINE
8
0
10
18.4090438
20
24.820186
11
19.8754839
21
24.820186
0
LINE
8
0
10
19.8754839
20
24.820186
11
29
21
24.820186
0
LINE
8
0
10
29
20
24.820186
11
29.1475586
21
24.5629246
0
LINE
8
0
10
29.1475586
20
24.5629246
11
30.0902974
21
22.9193066
0
LINE
8
0
10
30.0902974
20
22.9193066
11
30.2
21
22.7280479
0
LINE
8
0
10
30.2
20
22.7280479
11
30.2
21
15.8990913
0
LINE
8
0
10
30.2
20
15.8990913
11
30.2
21
14.2470352
0
LINE
8
0
10
30.2
20
14.2470352
11
30.2
21
13.4466375
0
LINE
8
0
10
30.2
20
13.4466375
11
29.2488554
21
13.4466375
0
LINE
8
0
10
29.2488554
20
13.4466375
11
28.2
21
13.4466375
0
LINE
8
0
10
28.2
20
13.4466375
11
28.2
21
14.2470352
0
LINE
8
0
10
28.2
20
14.2470352
11
28.2
21
14.9315963
0
LINE
8
0
10
28.2
20
14.9315963
11
28.2
21
16.1135545
0
LINE
8
0
10
28.2
20
16.1135545
11
17.4576179
21
16.1135545
0
LINE
8
0
10
17.4576179
20
16.1135545
11
10.9043859
21
16.1135545
0
LINE
8
0
10
10.9043859
20
16.1135545
11
2.4
21
16.1135502
0
LINE
8
0
10
2.4
20
16.1135502
11
2.4
21
24.4193334
0
LINE
8
0
10
2.4
20
24.4193334
11
2.4
21
28.7144069
0
LINE
8
0
10
2.4
20
28.7144069
11
2.4
21
28.7397096
0
LINE
8
0
10
2.4
20
28.7397096
11
2.4
21
28.7692285
0
LINE
8
0
10
2.4
20
28.7692285
11
2.48658684
21
28.7692285
0
LINE
8
0
10
2.48658684
20
28.7692285
11
16
21
28.7692285
0
LINE
8
0
10
16
20
28.7692285
11
16
21
28.7144069
0
LINE
8
0
10
16
20
28.7144069
11
16
21
25.3347295
0
LINE
8
0
10
16
20
25.3347295
11
16
21
25.038601
0
LINE
8
0
10
16
20
25.038601
11
16
21
24.8985763
0
LINE
8
0
10
16
20
24.8985763
11
16
21
24.8985763
0
LINE
8
0
10
16
20
43.8378373
11
16
21
43.4413329
0
LINE
8
0
10
16
20
43.4413329
11
16.5229784
21
43.4413329
0
LINE
8
0
10
16.5229784
20
43.4413329
11
17.8
21
43.4413329
0
LINE
8
0
10
17.8
20
43.4413329
11
17.8
21
42.4784127
0
LINE
8
0
10
17.8
20
42.4784127
11
17.8
21
41.3980194
0
LINE
8
0
10
17.8
20
41.3980194
11
17.8
21
40.6806064
0
LINE
8
0
10
17.8
20
40.6806064
11
17.8
21
40.272647
0
LINE
8
0
10
17.8
20
40.272647
11
17.8
21
28.8115385
0
LINE
8
0
10
17.8
20
28.8115385
11
17.1943463
21
28.8115389
0
LINE
8
0
10
17.1943463
20
28.8115389
11
16
21
28.8115418
0
LINE
8
0
10
16
20
28.8115418
11
15.8446705
21
28.8115418
0
LINE
8
0
10
15.8446705
20
28.8115418
11
2.4
21
28.8115418
0
LINE
8
0
10
2.4
20
28.8115418
11
2.4
21
33.9609015
0
LINE
8
0
10
2.4
20
33.9609015
11
2.4
21
35.4984679
0
LINE
8
0
10
2.4
20
35.4984679
11
2.4
21
35.6116916
0
LINE
8
0
10
2.4
20
35.6116916
11
2.4
21
35.7699217
0
LINE
8
0
10
2.4
20
35.7699217
11
2.4
21
40.1020109
0
LINE
8
0
10
2.4
20
40.1020109
11
2.4
21
40.3031199
0
LINE
8
0
10
2.4
20
40.3031199
11
2.4
21
40.5701778
0
LINE
8
0
10
2.4
20
40.5701778
11
2.4
21
40.8922864
0
LINE
8
0
10
2.4
20
40.8922864
11
2.4
21
42.6750017
0
LINE
8
0
10
2.4
20
42.6750017
11
2.4
21
42.7836497
0
LINE
8
0
10
2.4
20
42.7836497
11
2.4
21
43.1507198
0
LINE
8
0
10
2.4
20
43.1507198
11
2.4
21
43.258896
0
LINE
8
0
10
2.4
20
43.258896
11
2.4
21
43.3662018
0
LINE
8
0
10
2.4
20
43.3662018
11
2.4
21
43.7530865
0
LINE
8
0
10
2.4
20
43.7530865
11
2.4
21
48.106873
0
LINE
8
0
10
2.4
20
48.106873
11
2.4
21
48.2
0
LINE
8
0
10
2.4
20
48.2
11
2.46603253
21
48.7015713
0
LINE
8
0
10
2.46603253
20
48.7015713
11
2.468148
21
48.71764
0
LINE
8
0
10
2.468148
20
48.71764
11
2.66174671
21
49.1850264
0
LINE
8
0
10
2.66174671
20
49.1850264
11
2.667949
21
49.2
0
LINE
8
0
10
2.667949
20
49.2
11
2.9759196
21
49.601352
0
LINE
8
0
10
2.9759196
20
49.601352
11
2.985786
21
49.61421
0
LINE
8
0
10
2.985786
20
49.61421
11
3.38714184
21
49.9221835
0
LINE
8
0
10
3.38714184
20
49.9221835
11
3.4
21
49.93205
0
LINE
8
0
10
3.4
20
49.93205
11
3.86738836
21
50.1256477
0
LINE
8
0
10
3.86738836
20
50.1256477
11
3.882362
21
50.13185
0
LINE
8
0
10
3.882362
20
50.13185
11
4.38393131
21
50.1978845
0
LINE
8
0
10
4.38393131
20
50.1978845
11
4.4
21
50.2
0
LINE
8
0
10
4.4
20
50.2
11
4.86157837
21
50.2
0
LINE
8
0
10
4.86157837
20
50.2
11
4.90929523
21
50.2
0
LINE
8
0
10
4.90929523
20
50.2
11
4.97358069
21
50.2
0
LINE
8
0
10
4.97358069
20
50.2
11
5.05494026
21
50.2
0
LINE
8
0
10
5.05494026
20
50.2
11
5.1501724
21
50.2
0
LINE
8
0
10
5.1501724
20
50.2
11
5.24948977
21
50.2
0
LINE
8
0
10
5.24948977
20
50.2
11
5.33540919
21
50.2
0
LINE
8
0
10
5.33540919
20
50.2
11
12.6796088
21
50.2
0
LINE
8
0
10
12.6796088
20
50.2
11
12.7008049
21
50.2
0
LINE
8
0
10
12.7008049
20
50.2
11
12.736298
21
50.2
0
LINE
8
0
10
12.736298
20
50.2
11
12.7782456
21
50.2
0
LINE
8
0
10
12.7782456
20
50.2
11
12.8183582
21
50.2
0
LINE
8
0
10
12.8183582
20
50.2
11
12.8513593
21
50.2
0
LINE
8
0
10
12.8513593
20
50.2
11
13.418668
21
50.2
0
LINE
8
0
10
13.418668
20
50.2
11
13.4603575
21
50.2
0
LINE
8
0
10
13.4603575
20
50.2
11
13.4897848
21
50.2
0
LINE
8
0
10
13.4897848
20
50.2
11
15.5903978
21
50.2
0
LINE
8
0
10
15.5903978
20
50.2
11
15.6277954
21
50.2
0
LINE
8
0
10
15.6277954
20
50.2
11
16
21
50.2
0
LINE
8
0
10
16
20
50.2
11
16
21
45.3729598
0
LINE
8
0
10
16
20
45.3729598
11
16
21
45.2
0
LINE
8
0
10
16
20
45.2
11
16
21
43.8539173
0
LINE
8
0
10
16
20
43.8539173
11
16
21
43.8378373
0
LINE
8
0
10
16
20
43.8378373
11
16
21
43.8378373
0
LINE
8
0
10
35.2
20
4.72066202
11
35.2
21
3.80572134
0
LINE
8
0
10
35.2
20
3.80572134
11
35.2
21
3.05318578
0
LINE
8
0
10
35.2
20
3.05318578
11
35.2
21
-7.94082482
0
LINE
8
0
10
35.2
20
-7.94082482
11
35.2
21
-8.68462198
0
LINE
8
0
10
35.2
20
-8.68462198
11
35.2
21
-9.53299604
0
LINE
8
0
10
35.2
20
-9.53299604
11
35.2
21
-10.3671934
0
LINE
8
0
10
35.2
20
-10.3671934
11
35.2
21
-11.1025318
0
LINE
8
0
10
35.2
20
-11.1025318
11
35.2
21
-11.7000693
0
LINE
8
0
10
35.2
20
-11.7000693
11
35.2
21
-12.1562315
0
LINE
8
0
10
35.2
20
-12.1562315
11
35.2
21
-12.4865503
0
LINE
8
0
10
35.2
20
-12.4865503
11
35.2
21
-12.7131338
0
LINE
8
0
10
35.2
20
-12.7131338
11
35.2
21
-12.8577434
0
LINE
8
0
10
35.2
20
-12.8577434
11
35.2
21
-12.9389368
0
LINE
8
0
10
35.2
20
-12.9389368
11
35.2
21
-13.5
0
LINE
8
0
10
35.2
20
-13.5
11
35.1891716
21
-13.7203821
0
LINE
8
0
10
35.1891716
20
-13.7203821
11
35.1634183
21
-13.8799138
0
LINE
8
0
10
35.1634183
20
-13.8799138
11
35.1393769
21
-14.0416934
0
LINE
8
0
10
35.1393769
20
-14.0416934
11
35.0466046
21
-14.3479869
0
LINE
8
0
10
35.0466046
20
-14.3479869
11
34.9589162
21
-14.5596855
0
LINE
8
0
10
34.9589162
20
-14.5596855
11
34.8106578
21
-14.8374881
0
LINE
8
0
10
34.8106578
20
-14.8374881
11
34.6635524
21
-15.0292038
0
LINE
8
0
10
34.6635524
20
-15.0292038
11
34.46777
21
-15.26777
0
LINE
8
0
10
34.46777
20
-15.26777
11
34.2485373
21
-15.4476862
0
LINE
8
0
10
34.2485373
20
-15.4476862
11
34.030398
21
-15.6150666
0
LINE
8
0
10
34.030398
20
-15.6150666
11
33.7884773
21
-15.7447171
0
LINE
8
0
10
33.7884773
20
-15.7447171
11
33.5175881
21
-15.8569231
0
LINE
8
0
10
33.5175881
20
-15.8569231
11
33.2636801
21
-15.9342501
0
LINE
8
0
10
33.2636801
20
-15.9342501
11
33.0251387
21
-15.9571925
0
LINE
8
0
10
33.0251387
20
-15.9571925
11
32.8625693
21
-15.9785963
0
LINE
8
0
10
32.8625693
20
-15.9785963
11
32.7830577
21
-15.9918191
0
LINE
8
0
10
32.7830577
20
-15.9918191
11
32.7
21
-16
0
LINE
8
0
10
32.7
20
-16
11
30.8582636
21
-16
0
LINE
8
0
10
30.8582636
20
-16
11
30.7
21
-16
0
LINE
8
0
10
30.7
20
-16
11
30.2462265
21
-15.9553046
0
LINE
8
0
10
30.2462265
20
-15.9553046
11
30.1896159
21
-15.9466775
0
LINE
8
0
10
30.1896159
20
-15.9466775
11
29.7760408
21
-15.8208168
0
LINE
8
0
10
29.7760408
20
-15.8208168
11
29.7122706
21
-15.7944023
0
LINE
8
0
10
29.7122706
20
-15.7944023
11
29.3207032
21
-15.5846602
0
LINE
8
0
10
29.3207032
20
-15.5846602
11
29.2848017
21
-15.5571126
0
LINE
8
0
10
29.2848017
20
-15.5571126
11
28.93223
21
-15.26777
0
LINE
8
0
10
28.93223
20
-15.26777
11
28.622772
21
-14.8906871
0
LINE
8
0
10
28.622772
20
-14.8906871
11
28.6209293
21
-14.8882856
0
LINE
8
0
10
28.6209293
20
-14.8882856
11
28.5753136
21
-14.8028406
0
LINE
8
0
10
28.5753136
20
-14.8028406
11
22.191563
21
-14.8149292
0
LINE
8
0
10
22.191563
20
-14.8149292
11
16.55
21
-14.8026178
0
LINE
8
0
10
16.55
20
-14.8026178
11
10.382386
21
-14.8145216
0
LINE
8
0
10
10.382386
20
-14.8145216
11
2.57761738
21
-14.8015096
0
LINE
8
0
10
2.57761738
20
-14.8015096
11
2.45631078
21
-14.469384
0
LINE
8
0
10
2.45631078
20
-14.469384
11
2.41567507
21
-14.2432755
0
LINE
8
0
10
2.41567507
20
-14.2432755
11
2.41429302
21
-14.2347841
0
LINE
8
0
10
2.41429302
20
-14.2347841
11
2.4
21
-14
0
LINE
8
0
10
2.4
20
-14
11
2.4
21
-13.9995804
0
LINE
8
0
10
2.4
20
-13.9995804
11
2.4
21
-13.883631
0
LINE
8
0
10
2.4
20
-13.883631
11
2.4
21
-13.3723006
0
LINE
8
0
10
2.4
20
-13.3723006
11
2.4
21
-13.3637038
0
LINE
8
0
10
2.4
20
-13.3637038
11
2.4
21
-12.6866123
0
LINE
8
0
10
2.4
20
-12.6866123
11
2.4
21
-11.6116857
0
LINE
8
0
10
2.4
20
-11.6116857
11
2.4
21
-11.4554234
0
LINE
8
0
10
2.4
20
-11.4554234
11
2.4
21
9.61837749
0
LINE
8
0
10
2.4
20
9.61837749
11
2.4
21
10.3
0
LINE
8
0
10
2.4
20
10.3
11
15.3106832
21
10.3
0
LINE
8
0
10
15.3106832
20
10.3
11
28.2
21
10.3
0
LINE
8
0
10
28.2
20
10.3
11
28.2
21
11.1643338
0
LINE
8
0
10
28.2
20
11.1643338
11
28.2
21
11.4819918
0
LINE
8
0
10
28.2
20
11.4819918
11
29.1737851
21
11.4819918
0
LINE
8
0
10
29.1737851
20
11.4819918
11
30.2
21
11.4819918
0
LINE
8
0
10
30.2
20
11.4819918
11
30.2
21
11.4600668
0
LINE
8
0
10
30.2
20
11.4600668
11
30.2
21
10.1716236
0
LINE
8
0
10
30.2
20
10.1716236
11
30.2
21
10
0
LINE
8
0
10
30.2
20
10
11
34.6990507
21
10
0
LINE
8
0
10
34.6990507
20
10
11
35.2
21
10
0
LINE
8
0
10
35.2
20
10
11
35.2
21
9.60030119
0
LINE
8
0
10
35.2
20
9.60030119
11
35.2
21
7.2492318
0
LINE
8
0
10
35.2
20
7.2492318
11
35.2
21
6.52408457
0
LINE
8
0
10
35.2
20
6.52408457
11
35.2
21
5.66225626
0
LINE
8
0
10
35.2
20
5.66225626
11
35.2
21
4.72066202
0
LINE
8
0
10
35.2
20
4.72066202
11
35.2
21
4.72066202
0
LINE
8
0
10
72
20
-6.66107373
11
72
21
-7.94984633
0
LINE
8
0
10
72
20
-7.94984633
11
72
21
-8.92228157
0
LINE
8
0
10
72
20
-8.92228157
11
72
21
-9.66620267
0
LINE
8
0
10
72
20
-9.66620267
11
72
21
-10.2427836
0
LINE
8
0
10
72
20
-10.2427836
11
72
21
-10.6946489
0
LINE
8
0
10
72
20
-10.6946489
11
72
21
-11.0518856
0
LINE
8
0
10
72
20
-11.0518856
11
72
21
-11.5644475
0
LINE
8
0
10
72
20
-11.5644475
11
72
21
-11.8971199
0
LINE
8
0
10
72
20
-11.8971199
11
72
21
-12.1156143
0
LINE
8
0
10
72
20
-12.1156143
11
72
21
-12.1553592
0
LINE
8
0
10
72
20
-12.1553592
11
72
21
-13.5
0
LINE
8
0
10
72
20
-13.5
11
71.9829297
21
-13.6296557
0
LINE
8
0
10
71.9829297
20
-13.6296557
11
71.91481
21
-14.14705
0
LINE
8
0
10
71.91481
20
-14.14705
11
71.7151048
21
-14.6291811
0
LINE
8
0
10
71.7151048
20
-14.6291811
11
71.66506
21
-14.75
0
LINE
8
0
10
71.66506
20
-14.75
11
71.3473789
21
-15.1640194
0
LINE
8
0
10
71.3473789
20
-15.1640194
11
71.26777
21
-15.26777
0
LINE
8
0
10
71.26777
20
-15.26777
11
70.8537506
21
-15.5854511
0
LINE
8
0
10
70.8537506
20
-15.5854511
11
70.75
21
-15.66506
0
LINE
8
0
10
70.75
20
-15.66506
11
70.2678689
21
-15.8647652
0
LINE
8
0
10
70.2678689
20
-15.8647652
11
70.14705
21
-15.91481
0
LINE
8
0
10
70.14705
20
-15.91481
11
69.6296557
21
-15.9829297
0
LINE
8
0
10
69.6296557
20
-15.9829297
11
69.5
21
-16
0
LINE
8
0
10
69.5
20
-16
11
60.5932276
21
-16
0
LINE
8
0
10
60.5932276
20
-16
11
58.8
21
-16
0
LINE
8
0
10
58.8
20
-16
11
58.7904187
21
-15.9998026
0
LINE
8
0
10
58.7904187
20
-15.9998026
11
58.73836
21
-15.99873
0
LINE
8
0
10
58.73836
20
-15.99873
11
58.7286618
21
-15.9981314
0
LINE
8
0
10
58.7286618
20
-15.9981314
11
58.67679
21
-15.99493
0
LINE
8
0
10
58.67679
20
-15.99493
11
58.6253205
21
-15.9896206
0
LINE
8
0
10
58.6253205
20
-15.9896206
11
58.5493487
21
-15.9757218
0
LINE
8
0
10
58.5493487
20
-15.9757218
11
58.4833673
21
-15.9628535
0
LINE
8
0
10
58.4833673
20
-15.9628535
11
58.3144584
21
-15.9131246
0
LINE
8
0
10
58.3144584
20
-15.9131246
11
58.0912939
21
-15.8206869
0
LINE
8
0
10
58.0912939
20
-15.8206869
11
57.923492
21
-15.7026892
0
LINE
8
0
10
57.923492
20
-15.7026892
11
57.7428256
21
-15.5640578
0
LINE
8
0
10
57.7428256
20
-15.5640578
11
57.6691971
21
-15.4776647
0
LINE
8
0
10
57.6691971
20
-15.4776647
11
57.5348855
21
-15.3026279
0
LINE
8
0
10
57.5348855
20
-15.3026279
11
57.4704617
21
-15.1906162
0
LINE
8
0
10
57.4704617
20
-15.1906162
11
57.3888843
21
-14.993671
0
LINE
8
0
10
57.3888843
20
-14.993671
11
57.343733
21
-14.8573529
0
LINE
8
0
10
57.343733
20
-14.8573529
11
57.3261086
21
-14.69832
0
LINE
8
0
10
57.3261086
20
-14.69832
11
57.3109206
21
-14.5829525
0
LINE
8
0
10
57.3109206
20
-14.5829525
11
57.3069042
21
-14.5524443
0
LINE
8
0
10
57.3069042
20
-14.5524443
11
57.3037713
21
-14.5342812
0
LINE
8
0
10
57.3037713
20
-14.5342812
11
57.3
21
-14.5
0
LINE
8
0
10
57.3
20
-14.5
11
57.3
21
-14.4653647
0
LINE
8
0
10
57.3
20
-14.4653647
11
57.3
21
-14.17729
0
LINE
8
0
10
57.3
20
-14.17729
11
57.3
21
-12.2811867
0
LINE
8
0
10
57.3
20
-12.2811867
11
57.3
21
-12.0547321
0
LINE
8
0
10
57.3
20
-12.0547321
11
57.3
21
-11.8419288
0
LINE
8
0
10
57.3
20
-11.8419288
11
57.3
21
-11.5905633
0
LINE
8
0
10
57.3
20
-11.5905633
11
57.3
21
-11.2974127
0
LINE
8
0
10
57.3
20
-11.2974127
11
57.3
21
-10.8932947
0
LINE
8
0
10
57.3
20
-10.8932947
11
57.3
21
-10.3542697
0
LINE
8
0
10
57.3
20
-10.3542697
11
57.3
21
-9.65943101
0
LINE
8
0
10
57.3
20
-9.65943101
11
57.3
21
-8.80106828
0
LINE
8
0
10
57.3
20
-8.80106828
11
57.3
21
-7.80109085
0
LINE
8
0
10
57.3
20
-7.80109085
11
57.3
21
-6.72956846
0
LINE
8
0
10
57.3
20
-6.72956846
11
57.3
21
-5.71145569
0
LINE
8
0
10
57.3
20
-5.71145569
11
57.3
21
5.55183066
0
LINE
8
0
10
57.3
20
5.55183066
11
57.3
21
6.09177826
0
LINE
8
0
10
57.3
20
6.09177826
11
57.3
21
6.78939916
0
LINE
8
0
10
57.3
20
6.78939916
11
57.3
21
7.54261049
0
LINE
8
0
10
57.3
20
7.54261049
11
57.3
21
8.25121279
0
LINE
8
0
10
57.3
20
8.25121279
11
57.3
21
8.84939012
0
LINE
8
0
10
57.3
20
8.84939012
11
57.3
21
9.31244273
0
LINE
8
0
10
57.3
20
9.31244273
11
57.3
21
10
0
LINE
8
0
10
57.3
20
10
11
59.4740262
21
10
0
LINE
8
0
10
59.4740262
20
10
11
62
21
10
0
LINE
8
0
10
62
20
10
11
62
21
14.8203849
0
LINE
8
0
10
62
20
14.8203849
11
62
21
15.1294544
0
LINE
8
0
10
62
20
15.1294544
11
63.3489251
21
15.1294544
0
LINE
8
0
10
63.3489251
20
15.1294544
11
64.2
21
15.1294544
0
LINE
8
0
10
64.2
20
15.1294544
11
64.2
21
14.8121619
0
LINE
8
0
10
64.2
20
14.8121619
11
64.2
21
14.0126001
0
LINE
8
0
10
64.2
20
14.0126001
11
70.5853651
21
14.0008276
0
LINE
8
0
10
70.5853651
20
14.0008276
11
72
21
14.0031782
0
LINE
8
0
10
72
20
14.0031782
11
72
21
11.9894475
0
LINE
8
0
10
72
20
11.9894475
11
72
21
10.317563
0
LINE
8
0
10
72
20
10.317563
11
71.9935539
21
10.0752115
0
LINE
8
0
10
71.9935539
20
10.0752115
11
71.9855899
21
9.77463699
0
LINE
8
0
10
71.9855899
20
9.77463699
11
71.9804515
21
9.55212195
0
LINE
8
0
10
71.9804515
20
9.55212195
11
71.9759471
21
9.35566707
0
LINE
8
0
10
71.9759471
20
9.35566707
11
71.9517341
21
9.01242897
0
LINE
8
0
10
71.9517341
20
9.01242897
11
71.9286956
21
8.68348924
0
LINE
8
0
10
71.9286956
20
8.68348924
11
71.9161391
21
8.47184963
0
LINE
8
0
10
71.9161391
20
8.47184963
11
71.901642
21
8.22478913
0
LINE
8
0
10
71.901642
20
8.22478913
11
71.8702951
21
7.91638473
0
LINE
8
0
10
71.8702951
20
7.91638473
11
71.8474963
21
7.68954557
0
LINE
8
0
10
71.8474963
20
7.68954557
11
71.8196147
21
7.34802367
0
LINE
8
0
10
71.8196147
20
7.34802367
11
71.776585
21
6.8122545
0
LINE
8
0
10
71.776585
20
6.8122545
11
71.7733888
21
6.78524934
0
LINE
8
0
10
71.7733888
20
6.78524934
11
71.7716406
21
6.7702278
0
LINE
8
0
10
71.7716406
20
6.7702278
11
71.7188671
21
6.1771595
0
LINE
8
0
10
71.7188671
20
6.1771595
11
71.6954392
21
5.9073377
0
LINE
8
0
10
71.6954392
20
5.9073377
11
71.674848
21
5.56005637
0
LINE
8
0
10
71.674848
20
5.56005637
11
71.6478208
21
5.08626627
0
LINE
8
0
10
71.6478208
20
5.08626627
11
71.6429939
21
4.92142233
0
LINE
8
0
10
71.6429939
20
4.92142233
11
71.626084
21
4.29512229
0
LINE
8
0
10
71.626084
20
4.29512229
11
71.6261334
21
4.2429468
0
LINE
8
0
10
71.6261334
20
4.2429468
11
71.6283844
21
3.52361097
0
LINE
8
0
10
71.6283844
20
3.52361097
11
71.6292584
21
3.49509017
0
LINE
8
0
10
71.6292584
20
3.49509017
11
71.6532127
21
2.76179336
0
LINE
8
0
10
71.6532127
20
2.76179336
11
71.6612678
21
2.62683761
0
LINE
8
0
10
71.6612678
20
2.62683761
11
71.6997926
21
2.00035931
0
LINE
8
0
10
71.6997926
20
2.00035931
11
71.7407201
21
1.53597495
0
LINE
8
0
10
71.7407201
20
1.53597495
11
71.7681097
21
1.23041819
0
LINE
8
0
10
71.7681097
20
1.23041819
11
71.810729
21
0.862371119
0
LINE
8
0
10
71.810729
20
0.862371119
11
71.8448264
21
0.442825684
0
LINE
8
0
10
71.8448264
20
0.442825684
11
71.9217207
21
-0.335330503
0
LINE
8
0
10
71.9217207
20
-0.335330503
11
71.9239254
21
-0.37318797
0
LINE
8
0
10
71.9239254
20
-0.37318797
11
71.9816436
21
-1.22019561
0
LINE
8
0
10
71.9816436
20
-1.22019561
11
71.9818598
21
-1.22980125
0
LINE
8
0
10
71.9818598
20
-1.22980125
11
72
21
-1.93680327
0
LINE
8
0
10
72
20
-1.93680327
11
72
21
-2.54609234
0
LINE
8
0
10
72
20
-2.54609234
11
72
21
-4.92568598
0
LINE
8
0
10
72
20
-4.92568598
11
72
21
-6.66107373
0
LINE
8
0
10
72
20
-6.66107373
11
72
21
-6.66107373
0
LINE
8
0
10
72
20
19.0774868
11
72
21
18.1206084
0
LINE
8
0
10
72
20
18.1206084
11
67.6099127
21
18.1206084
0
LINE
8
0
10
67.6099127
20
18.1206084
11
64.2
21
18.1206084
0
LINE
8
0
10
64.2
20
18.1206084
11
64.2
21
17.3161756
0
LINE
8
0
10
64.2
20
17.3161756
11
64.2
21
16.6913445
0
LINE
8
0
10
64.2
20
16.6913445
11
63.9235391
21
16.6913445
0
LINE
8
0
10
63.9235391
20
16.6913445
11
62
21
16.6913445
0
LINE
8
0
10
62
20
16.6913445
11
62
21
19.0257666
0
LINE
8
0
10
62
20
19.0257666
11
62
21
22.7280519
0
LINE
8
0
10
62
20
22.7280519
11
62.275014
21
23.2075194
0
LINE
8
0
10
62.275014
20
23.2075194
11
62.3848163
21
23.3989493
0
LINE
8
0
10
62.3848163
20
23.3989493
11
62.7339112
21
24.0075856
0
LINE
8
0
10
62.7339112
20
24.0075856
11
63.1141468
21
24.670507
0
LINE
8
0
10
63.1141468
20
24.670507
11
63.2
21
24.820188
0
LINE
8
0
10
63.2
20
24.820188
11
64.2976592
21
24.8201878
0
LINE
8
0
10
64.2976592
20
24.8201878
11
72
21
24.8201878
0
LINE
8
0
10
72
20
24.8201878
11
72
21
22.9548294
0
LINE
8
0
10
72
20
22.9548294
11
72
21
19.0774868
0
LINE
8
0
10
72
20
19.0774868
11
72
21
19.0774868
0
ENDSEC
0
EOF
