0
SECTION
2
ENTITIES
0
LINE
8
0
10
16
20
42.4935364
11
16
21
42.3994383
0
LINE
8
0
10
16
20
42.3994383
11
16.1240904
21
42.3994383
0
LINE
8
0
10
16.1240904
20
42.3994383
11
17.8
21
42.3994383
0
LINE
8
0
10
17.8
20
42.3994383
11
17.8
21
41.3274629
0
LINE
8
0
10
17.8
20
41.3274629
11
17.8
21
40.5553979
0
LINE
8
0
10
17.8
20
40.5553979
11
17.8
21
40.1163604
0
LINE
8
0
10
17.8
20
40.1163604
11
17.8
21
27.782153
0
LINE
8
0
10
17.8
20
27.782153
11
17.4003159
21
27.7821533
0
LINE
8
0
10
17.4003159
20
27.7821533
11
16.5844468
21
27.7821552
0
LINE
8
0
10
16.5844468
20
27.7821552
11
16
21
27.7821552
0
LINE
8
0
10
16
20
27.7821552
11
16
21
25.4877308
0
LINE
8
0
10
16
20
25.4877308
11
16
21
25.2923092
0
LINE
8
0
10
16
20
25.2923092
11
16
21
25.1999038
0
LINE
8
0
10
16
20
25.1999038
11
16
21
25.1594846
0
LINE
8
0
10
16
20
25.1594846
11
16
21
25.1481727
0
LINE
8
0
10
16
20
25.1481727
11
17.5897805
21
25.1481724
0
LINE
8
0
10
17.5897805
20
25.1481724
11
19.1696571
21
25.1481724
0
LINE
8
0
10
19.1696571
20
25.1481724
11
29
21
25.1481724
0
LINE
8
0
10
29
20
25.1481724
11
29.0973771
21
24.9783999
0
LINE
8
0
10
29.0973771
20
24.9783999
11
30.1276049
21
23.1822494
0
LINE
8
0
10
30.1276049
20
23.1822494
11
30.2
21
23.0560336
0
LINE
8
0
10
30.2
20
23.0560336
11
30.2
21
15.59333
0
LINE
8
0
10
30.2
20
15.59333
11
30.2
21
14.5031021
0
LINE
8
0
10
30.2
20
14.5031021
11
30.2
21
13.2121168
0
LINE
8
0
10
30.2
20
13.2121168
11
29.8917303
21
13.2121168
0
LINE
8
0
10
29.8917303
20
13.2121168
11
28.2
21
13.2121168
0
LINE
8
0
10
28.2
20
13.2121168
11
28.2
21
14.5031021
0
LINE
8
0
10
28.2
20
14.5031021
11
28.2
21
15.6072513
0
LINE
8
0
10
28.2
20
15.6072513
11
28.2
21
16.3872513
0
LINE
8
0
10
28.2
20
16.3872513
11
16.2137418
21
16.3872513
0
LINE
8
0
10
16.2137418
20
16.3872513
11
11.889121
21
16.3872513
0
LINE
8
0
10
11.889121
20
16.3872513
11
2.4
21
16.3872464
0
LINE
8
0
10
2.4
20
16.3872464
11
2.4
21
24.4998719
0
LINE
8
0
10
2.4
20
24.4998719
11
2.4
21
28.7238888
0
LINE
8
0
10
2.4
20
28.7238888
11
2.4
21
33.8195431
0
LINE
8
0
10
2.4
20
33.8195431
11
2.4
21
35.6222687
0
LINE
8
0
10
2.4
20
35.6222687
11
2.4
21
35.7550182
0
LINE
8
0
10
2.4
20
35.7550182
11
2.4
21
35.9405358
0
LINE
8
0
10
2.4
20
35.9405358
11
2.4
21
40.1324479
0
LINE
8
0
10
2.4
20
40.1324479
11
2.4
21
40.3524348
0
LINE
8
0
10
2.4
20
40.3524348
11
2.4
21
40.6445611
0
LINE
8
0
10
2.4
20
40.6445611
11
2.4
21
40.9969057
0
LINE
8
0
10
2.4
20
40.9969057
11
2.4
21
42.7017248
0
LINE
8
0
10
2.4
20
42.7017248
11
2.4
21
42.8056254
0
LINE
8
0
10
2.4
20
42.8056254
11
2.4
21
43.2003265
0
LINE
8
0
10
2.4
20
43.2003265
11
2.4
21
43.3035054
0
LINE
8
0
10
2.4
20
43.3035054
11
2.4
21
43.4058541
0
LINE
8
0
10
2.4
20
43.4058541
11
2.4
21
43.8212454
0
LINE
8
0
10
2.4
20
43.8212454
11
2.4
21
47.9699407
0
LINE
8
0
10
2.4
20
47.9699407
11
2.4
21
48.2
0
LINE
8
0
10
2.4
20
48.2
11
2.46292197
21
48.677944
0
LINE
8
0
10
2.46292197
20
48.677944
11
2.468148
21
48.71764
0
LINE
8
0
10
2.468148
20
48.71764
11
2.65262697
21
49.1630095
0
LINE
8
0
10
2.65262697
20
49.1630095
11
2.667949
21
49.2
0
LINE
8
0
10
2.667949
20
49.2
11
2.96141221
21
49.5824457
0
LINE
8
0
10
2.96141221
20
49.5824457
11
2.985786
21
49.61421
0
LINE
8
0
10
2.985786
20
49.61421
11
3.3682354
21
49.907676
0
LINE
8
0
10
3.3682354
20
49.907676
11
3.4
21
49.93205
0
LINE
8
0
10
3.4
20
49.93205
11
3.84537138
21
50.116528
0
LINE
8
0
10
3.84537138
20
50.116528
11
3.882362
21
50.13185
0
LINE
8
0
10
3.882362
20
50.13185
11
4.36030418
21
50.1947738
0
LINE
8
0
10
4.36030418
20
50.1947738
11
4.4
21
50.2
0
LINE
8
0
10
4.4
20
50.2
11
5.54027563
21
50.2
0
LINE
8
0
10
5.54027563
20
50.2
11
5.65815455
21
50.2
0
LINE
8
0
10
5.65815455
20
50.2
11
5.81696431
21
50.2
0
LINE
8
0
10
5.81696431
20
50.2
11
6.01795365
21
50.2
0
LINE
8
0
10
6.01795365
20
50.2
11
6.25321355
21
50.2
0
LINE
8
0
10
6.25321355
20
50.2
11
6.49856556
21
50.2
0
LINE
8
0
10
6.49856556
20
50.2
11
6.71081948
21
50.2
0
LINE
8
0
10
6.71081948
20
50.2
11
12.2085109
21
50.2
0
LINE
8
0
10
12.2085109
20
50.2
11
12.2608732
21
50.2
0
LINE
8
0
10
12.2608732
20
50.2
11
12.3485549
21
50.2
0
LINE
8
0
10
12.3485549
20
50.2
11
12.4521817
21
50.2
0
LINE
8
0
10
12.4521817
20
50.2
11
12.5512751
21
50.2
0
LINE
8
0
10
12.5512751
20
50.2
11
12.6328004
21
50.2
0
LINE
8
0
10
12.6328004
20
50.2
11
13.0969419
21
50.2
0
LINE
8
0
10
13.0969419
20
50.2
11
13.1842258
21
50.2
0
LINE
8
0
10
13.1842258
20
50.2
11
13.2458368
21
50.2
0
LINE
8
0
10
13.2458368
20
50.2
11
15.0519075
21
50.2
0
LINE
8
0
10
15.0519075
20
50.2
11
15.1384704
21
50.2
0
LINE
8
0
10
15.1384704
20
50.2
11
16
21
50.2
0
LINE
8
0
10
16
20
50.2
11
16
21
45.6003444
0
LINE
8
0
10
16
20
45.6003444
11
16
21
45.2
0
LINE
8
0
10
16
20
45.2
11
16
21
43.9173264
0
LINE
8
0
10
16
20
43.9173264
11
16
21
43.8557019
0
LINE
8
0
10
16
20
43.8557019
11
16
21
42.5000567
0
LINE
8
0
10
16
20
42.5000567
11
16
21
42.4935364
0
LINE
8
0
10
16
20
42.4935364
11
16
21
42.4935364
0
LINE
8
0
10
35.2
20
6.99395251
11
35.2
21
6.20150949
0
LINE
8
0
10
35.2
20
6.20150949
11
35.2
21
5.25970101
0
LINE
8
0
10
35.2
20
5.25970101
11
35.2
21
4.23072408
0
LINE
8
0
10
35.2
20
4.23072408
11
35.2
21
3.23087424
0
LINE
8
0
10
35.2
20
3.23087424
11
35.2
21
2.40850119
0
LINE
8
0
10
35.2
20
2.40850119
11
35.2
21
-7.42491717
0
LINE
8
0
10
35.2
20
-7.42491717
11
35.2
21
-8.23774088
0
LINE
8
0
10
35.2
20
-8.23774088
11
35.2
21
-9.16484652
0
LINE
8
0
10
35.2
20
-9.16484652
11
35.2
21
-10.0764599
0
LINE
8
0
10
35.2
20
-10.0764599
11
35.2
21
-10.8800397
0
LINE
8
0
10
35.2
20
-10.8800397
11
35.2
21
-11.5330305
0
LINE
8
0
10
35.2
20
-11.5330305
11
35.2
21
-12.0315259
0
LINE
8
0
10
35.2
20
-12.0315259
11
35.2
21
-12.3924992
0
LINE
8
0
10
35.2
20
-12.3924992
11
35.2
21
-12.6401104
0
LINE
8
0
10
35.2
20
-12.6401104
11
35.2
21
-12.7981401
0
LINE
8
0
10
35.2
20
-12.7981401
11
35.2
21
-12.8868685
0
LINE
8
0
10
35.2
20
-12.8868685
11
35.2
21
-13.5
0
LINE
8
0
10
35.2
20
-13.5
11
35.1892835
21
-13.7181048
0
LINE
8
0
10
35.1892835
20
-13.7181048
11
35.1611518
21
-13.8923699
0
LINE
8
0
10
35.1611518
20
-13.8923699
11
35.1382314
21
-14.0466059
0
LINE
8
0
10
35.1382314
20
-14.0466059
11
35.0497849
21
-14.3386176
0
LINE
8
0
10
35.0497849
20
-14.3386176
11
34.9545399
21
-14.5685595
0
LINE
8
0
10
34.9545399
20
-14.5685595
11
34.8131945
21
-14.8334087
0
LINE
8
0
10
34.8131945
20
-14.8334087
11
34.6544235
21
-15.0403278
0
LINE
8
0
10
34.6544235
20
-15.0403278
11
34.46777
21
-15.26777
0
LINE
8
0
10
34.46777
20
-15.26777
11
34.2587597
21
-15.439297
0
LINE
8
0
10
34.2587597
20
-15.439297
11
34.0266492
21
-15.6173977
0
LINE
8
0
10
34.0266492
20
-15.6173977
11
33.7960088
21
-15.7410029
0
LINE
8
0
10
33.7960088
20
-15.7410029
11
33.5096362
21
-15.8596223
0
LINE
8
0
10
33.5096362
20
-15.8596223
11
33.2675674
21
-15.9333436
0
LINE
8
0
10
33.2675674
20
-15.9333436
11
33.0401488
21
-15.9552163
0
LINE
8
0
10
33.0401488
20
-15.9552163
11
32.8700744
21
-15.9776082
0
LINE
8
0
10
32.8700744
20
-15.9776082
11
32.7868921
21
-15.9914414
0
LINE
8
0
10
32.7868921
20
-15.9914414
11
32.7
21
-16
0
LINE
8
0
10
32.7
20
-16
11
30.8753704
21
-16
0
LINE
8
0
10
30.8753704
20
-16
11
30.7
21
-16
0
LINE
8
0
10
30.7
20
-16
11
30.2509904
21
-15.9557739
0
LINE
8
0
10
30.2509904
20
-15.9557739
11
30.1864376
21
-15.9459364
0
LINE
8
0
10
30.1864376
20
-15.9459364
11
29.7824805
21
-15.8230027
0
LINE
8
0
10
29.7824805
20
-15.8230027
11
29.7061712
21
-15.7913944
0
LINE
8
0
10
29.7061712
20
-15.7913944
11
29.3237101
21
-15.5865299
0
LINE
8
0
10
29.3237101
20
-15.5865299
11
29.2766023
21
-15.5503837
0
LINE
8
0
10
29.2766023
20
-15.5503837
11
28.93223
21
-15.26777
0
LINE
8
0
10
28.93223
20
-15.26777
11
28.6299687
21
-14.8994564
0
LINE
8
0
10
28.6299687
20
-14.8994564
11
28.6189296
21
-14.8850697
0
LINE
8
0
10
28.6189296
20
-14.8850697
11
28.3909664
21
-14.4580614
0
LINE
8
0
10
28.3909664
20
-14.4580614
11
28.3898157
21
-14.4552832
0
LINE
8
0
10
28.3898157
20
-14.4552832
11
28.3456524
21
-14.309523
0
LINE
8
0
10
28.3456524
20
-14.309523
11
23.3610419
21
-14.3251795
0
LINE
8
0
10
23.3610419
20
-14.3251795
11
16.55
21
-14.2930301
0
LINE
8
0
10
16.55
20
-14.2930301
11
8.84083517
21
-14.3229281
0
LINE
8
0
10
8.84083517
20
-14.3229281
11
2.43135706
21
-14.3309051
0
LINE
8
0
10
2.43135706
20
-14.3309051
11
2.41457085
21
-14.237502
0
LINE
8
0
10
2.41457085
20
-14.237502
11
2.41439132
21
-14.2363989
0
LINE
8
0
10
2.41439132
20
-14.2363989
11
2.4
21
-14
0
LINE
8
0
10
2.4
20
-14
11
2.4
21
-13.9998771
0
LINE
8
0
10
2.4
20
-13.9998771
11
2.4
21
-13.9659126
0
LINE
8
0
10
2.4
20
-13.9659126
11
2.4
21
-13.4504419
0
LINE
8
0
10
2.4
20
-13.4504419
11
2.4
21
-13.4471056
0
LINE
8
0
10
2.4
20
-13.4471056
11
2.4
21
-13.1843369
0
LINE
8
0
10
2.4
20
-13.1843369
11
2.4
21
-12.7671747
0
LINE
8
0
10
2.4
20
-12.7671747
11
2.4
21
-12.7065317
0
LINE
8
0
10
2.4
20
-12.7065317
11
2.4
21
10.0354729
0
LINE
8
0
10
2.4
20
10.0354729
11
2.4
21
10.3
0
LINE
8
0
10
2.4
20
10.3
11
7.41043478
21
10.3
0
LINE
8
0
10
7.41043478
20
10.3
11
28.2
21
10.3
0
LINE
8
0
10
28.2
20
10.3
11
28.2
21
10.6354345
0
LINE
8
0
10
28.2
20
10.6354345
11
28.2
21
11.0124974
0
LINE
8
0
10
28.2
20
11.0124974
11
28.2
21
11.6139382
0
LINE
8
0
10
28.2
20
11.6139382
11
29.2294151
21
11.6139382
0
LINE
8
0
10
29.2294151
20
11.6139382
11
30.2
21
11.6139382
0
LINE
8
0
10
30.2
20
11.6139382
11
30.2
21
11.5336788
0
LINE
8
0
10
30.2
20
11.5336788
11
30.2
21
11.53281
0
LINE
8
0
10
30.2
20
11.53281
11
30.2
21
10.1875508
0
LINE
8
0
10
30.2
20
10.1875508
11
30.2
21
10
0
LINE
8
0
10
30.2
20
10
11
34.6525612
21
10
0
LINE
8
0
10
34.6525612
20
10
11
35.2
21
10
0
LINE
8
0
10
35.2
20
10
11
35.2
21
9.56320797
0
LINE
8
0
10
35.2
20
9.56320797
11
35.2
21
6.99395251
0
LINE
8
0
10
35.2
20
6.99395251
11
35.2
21
6.99395251
0
LINE
8
0
10
71.9667187
20
9.61033801
11
71.9328008
21
9.12952561
0
LINE
8
0
10
71.9328008
20
9.12952561
11
71.9010943
21
8.6768258
0
LINE
8
0
10
71.9010943
20
8.6768258
11
71.8927044
21
8.60738133
0
LINE
8
0
10
71.8927044
20
8.60738133
11
71.8851721
21
8.5445654
0
LINE
8
0
10
71.8851721
20
8.5445654
11
71.8350382
21
8.05132677
0
LINE
8
0
10
71.8350382
20
8.05132677
11
71.7870375
21
7.57373841
0
LINE
8
0
10
71.7870375
20
7.57373841
11
71.7820449
21
7.51258344
0
LINE
8
0
10
71.7820449
20
7.51258344
11
71.7743397
21
7.4166454
0
LINE
8
0
10
71.7743397
20
7.4166454
11
71.7179979
21
6.940595
0
LINE
8
0
10
71.7179979
20
6.940595
11
71.687179
21
6.67579337
0
LINE
8
0
10
71.687179
20
6.67579337
11
71.6594804
21
6.36451689
0
LINE
8
0
10
71.6594804
20
6.36451689
11
71.6133273
21
5.83296599
0
LINE
8
0
10
71.6133273
20
5.83296599
11
71.6104538
21
5.78450222
0
LINE
8
0
10
71.6104538
20
5.78450222
11
71.6017344
21
5.63165098
0
LINE
8
0
10
71.6017344
20
5.63165098
11
71.5643254
21
5.16372769
0
LINE
8
0
10
71.5643254
20
5.16372769
11
71.5541264
21
5.0309945
0
LINE
8
0
10
71.5541264
20
5.0309945
11
71.5333368
21
4.50963033
0
LINE
8
0
10
71.5333368
20
4.50963033
11
71.5240952
21
4.25825466
0
LINE
8
0
10
71.5240952
20
4.25825466
11
71.5242852
21
3.80996138
0
LINE
8
0
10
71.5242852
20
3.80996138
11
71.525336
21
3.50467893
0
LINE
8
0
10
71.525336
20
3.50467893
11
71.5441751
21
3.03417432
0
LINE
8
0
10
71.5441751
20
3.03417432
11
71.5559013
21
2.76057277
0
LINE
8
0
10
71.5559013
20
2.76057277
11
71.6056043
21
2.12985691
0
LINE
8
0
10
71.6056043
20
2.12985691
11
71.6147945
21
2.0168513
0
LINE
8
0
10
71.6147945
20
2.0168513
11
71.6445833
21
1.76168342
0
LINE
8
0
10
71.6445833
20
1.76168342
11
71.6891209
21
1.26482306
0
LINE
8
0
10
71.6891209
20
1.26482306
11
71.7363801
21
0.856707875
0
LINE
8
0
10
71.7363801
20
0.856707875
11
71.7786232
21
0.495538376
0
LINE
8
0
10
71.7786232
20
0.495538376
11
71.8154982
21
0.236119091
0
LINE
8
0
10
71.8154982
20
0.236119091
11
71.8688602
21
-0.301504918
0
LINE
8
0
10
71.8688602
20
-0.301504918
11
71.9232307
21
-0.769882697
0
LINE
8
0
10
71.9232307
20
-0.769882697
11
71.9483372
21
-1.13819077
0
LINE
8
0
10
71.9483372
20
-1.13819077
11
71.9819488
21
-1.57087608
0
LINE
8
0
10
71.9819488
20
-1.57087608
11
71.9936453
21
-2.02806983
0
LINE
8
0
10
71.9936453
20
-2.02806983
11
72
21
-2.25038719
0
LINE
8
0
10
72
20
-2.25038719
11
72
21
-4.12996468
0
LINE
8
0
10
72
20
-4.12996468
11
72
21
-6.02640146
0
LINE
8
0
10
72
20
-6.02640146
11
72
21
-7.43477591
0
LINE
8
0
10
72
20
-7.43477591
11
72
21
-8.49745597
0
LINE
8
0
10
72
20
-8.49745597
11
72
21
-9.31041511
0
LINE
8
0
10
72
20
-9.31041511
11
72
21
-9.94050443
0
LINE
8
0
10
72
20
-9.94050443
11
72
21
-10.4343041
0
LINE
8
0
10
72
20
-10.4343041
11
72
21
-10.8246935
0
LINE
8
0
10
72
20
-10.8246935
11
72
21
-11.3848226
0
LINE
8
0
10
72
20
-11.3848226
11
72
21
-11.748368
0
LINE
8
0
10
72
20
-11.748368
11
72
21
-11.9871393
0
LINE
8
0
10
72
20
-11.9871393
11
72
21
-12.0305726
0
LINE
8
0
10
72
20
-12.0305726
11
72
21
-13.5
0
LINE
8
0
10
72
20
-13.5
11
71.9813455
21
-13.6416881
0
LINE
8
0
10
71.9813455
20
-13.6416881
11
71.91481
21
-14.14705
0
LINE
8
0
10
71.91481
20
-14.14705
11
71.7197491
21
-14.6179687
0
LINE
8
0
10
71.7197491
20
-14.6179687
11
71.66506
21
-14.75
0
LINE
8
0
10
71.66506
20
-14.75
11
71.3547668
21
-15.154391
0
LINE
8
0
10
71.3547668
20
-15.154391
11
71.26777
21
-15.26777
0
LINE
8
0
10
71.26777
20
-15.26777
11
70.863379
21
-15.5780632
0
LINE
8
0
10
70.863379
20
-15.5780632
11
70.75
21
-15.66506
0
LINE
8
0
10
70.75
20
-15.66506
11
70.2790813
21
-15.8601209
0
LINE
8
0
10
70.2790813
20
-15.8601209
11
70.14705
21
-15.91481
0
LINE
8
0
10
70.14705
20
-15.91481
11
69.6416881
21
-15.9813455
0
LINE
8
0
10
69.6416881
20
-15.9813455
11
69.5
21
-16
0
LINE
8
0
10
69.5
20
-16
11
60.685263
21
-16
0
LINE
8
0
10
60.685263
20
-16
11
58.8
21
-16
0
LINE
8
0
10
58.8
20
-16
11
58.7899269
21
-15.9997925
0
LINE
8
0
10
58.7899269
20
-15.9997925
11
58.73836
21
-15.99873
0
LINE
8
0
10
58.73836
20
-15.99873
11
58.7281736
21
-15.9981013
0
LINE
8
0
10
58.7281736
20
-15.9981013
11
58.67679
21
-15.99493
0
LINE
8
0
10
58.67679
20
-15.99493
11
58.625805
21
-15.9896706
0
LINE
8
0
10
58.625805
20
-15.9896706
11
58.5461492
21
-15.9750978
0
LINE
8
0
10
58.5461492
20
-15.9750978
11
58.4769683
21
-15.9616055
0
LINE
8
0
10
58.4769683
20
-15.9616055
11
58.3231556
21
-15.9163212
0
LINE
8
0
10
58.3231556
20
-15.9163212
11
58.0876033
21
-15.8187523
0
LINE
8
0
10
58.0876033
20
-15.8187523
11
57.9347986
21
-15.7113005
0
LINE
8
0
10
57.9347986
20
-15.7113005
11
57.7425141
21
-15.5637541
0
LINE
8
0
10
57.7425141
20
-15.5637541
11
57.6754661
21
-15.4850824
0
LINE
8
0
10
57.6754661
20
-15.4850824
11
57.5318534
21
-15.2979243
0
LINE
8
0
10
57.5318534
20
-15.2979243
11
57.4731875
21
-15.1959237
0
LINE
8
0
10
57.4731875
20
-15.1959237
11
57.3855083
21
-14.9842473
0
LINE
8
0
10
57.3855083
20
-14.9842473
11
57.3443924
21
-14.8601125
0
LINE
8
0
10
57.3443924
20
-14.8601125
11
57.3283431
21
-14.7152932
0
LINE
8
0
10
57.3283431
20
-14.7152932
11
57.3118552
21
-14.590052
0
LINE
8
0
10
57.3118552
20
-14.590052
11
57.3074951
21
-14.5569328
0
LINE
8
0
10
57.3074951
20
-14.5569328
11
57.3040941
21
-14.5372151
0
LINE
8
0
10
57.3040941
20
-14.5372151
11
57.3
21
-14.5
0
LINE
8
0
10
57.3
20
-14.5
11
57.3
21
-14.4624004
0
LINE
8
0
10
57.3
20
-14.4624004
11
57.3
21
-14.17729
0
LINE
8
0
10
57.3
20
-14.17729
11
57.3
21
-12.1116285
0
LINE
8
0
10
57.3
20
-12.1116285
11
57.3
21
-11.8904402
0
LINE
8
0
10
57.3
20
-11.8904402
11
57.3
21
-11.6580738
0
LINE
8
0
10
57.3
20
-11.6580738
11
57.3
21
-11.413362
0
LINE
8
0
10
57.3
20
-11.413362
11
57.3
21
-11.0930062
0
LINE
8
0
10
57.3
20
-11.0930062
11
57.3
21
-10.6513848
0
LINE
8
0
10
57.3
20
-10.6513848
11
57.3
21
-10.0623368
0
LINE
8
0
10
57.3
20
-10.0623368
11
57.3
21
-9.30301503
0
LINE
8
0
10
57.3
20
-9.30301503
11
57.3
21
-8.36499373
0
LINE
8
0
10
57.3
20
-8.36499373
11
57.3
21
-7.27221549
0
LINE
8
0
10
57.3
20
-7.27221549
11
57.3
21
-6.1012527
0
LINE
8
0
10
57.3
20
-6.1012527
11
57.3
21
-4.98865611
0
LINE
8
0
10
57.3
20
-4.98865611
11
57.3
21
5.1390276
0
LINE
8
0
10
57.3
20
5.1390276
11
57.3
21
5.72908391
0
LINE
8
0
10
57.3
20
5.72908391
11
57.3
21
6.49144605
0
LINE
8
0
10
57.3
20
6.49144605
11
57.3
21
7.31455759
0
LINE
8
0
10
57.3
20
7.31455759
11
57.3
21
8.08892024
0
LINE
8
0
10
57.3
20
8.08892024
11
57.3
21
8.74261018
0
LINE
8
0
10
57.3
20
8.74261018
11
57.3
21
9.24863542
0
LINE
8
0
10
57.3
20
9.24863542
11
57.3
21
10
0
LINE
8
0
10
57.3
20
10
11
59.6757822
21
10
0
LINE
8
0
10
59.6757822
20
10
11
62
21
10
0
LINE
8
0
10
62
20
10
11
62
21
14.4353684
0
LINE
8
0
10
62
20
14.4353684
11
62
21
14.9124417
0
LINE
8
0
10
62
20
14.9124417
11
62
21
15.3838988
0
LINE
8
0
10
62
20
15.3838988
11
64.0707957
21
15.3838988
0
LINE
8
0
10
64.0707957
20
15.3838988
11
64.2
21
15.3838988
0
LINE
8
0
10
64.2
20
15.3838988
11
64.2
21
15.0396674
0
LINE
8
0
10
64.2
20
15.0396674
11
64.2
21
14.663793
0
LINE
8
0
10
64.2
20
14.663793
11
64.2
21
14.4122415
0
LINE
8
0
10
64.2
20
14.4122415
11
64.2
21
14.1072587
0
LINE
8
0
10
64.2
20
14.1072587
11
67.3827926
21
14.1013906
0
LINE
8
0
10
67.3827926
20
14.1013906
11
72
21
14.1090634
0
LINE
8
0
10
72
20
14.1090634
11
72
21
13.4383014
0
LINE
8
0
10
72
20
13.4383014
11
72
21
11.621142
0
LINE
8
0
10
72
20
11.621142
11
72
21
11.0484893
0
LINE
8
0
10
72
20
11.0484893
11
72
21
10.632243
0
LINE
8
0
10
72
20
10.632243
11
71.987867
21
10.1760847
0
LINE
8
0
10
71.987867
20
10.1760847
11
71.975869
21
9.7232603
0
LINE
8
0
10
71.975869
20
9.7232603
11
71.971616
21
9.67088841
0
LINE
8
0
10
71.971616
20
9.67088841
11
71.9667187
21
9.61033801
0
LINE
8
0
10
71.9667187
20
9.61033801
11
71.9667187
21
9.61033801
0
LINE
8
0
10
72
20
24.4975441
11
72
21
25.1481744
0
LINE
8
0
10
72
20
25.1481744
11
63.5828596
21
25.1481744
0
LINE
8
0
10
63.5828596
20
25.1481744
11
63.2
21
25.1481745
0
LINE
8
0
10
63.2
20
25.1481745
11
63.1700547
21
25.0959663
0
LINE
8
0
10
63.1700547
20
25.0959663
11
62.7545322
21
24.3715239
0
LINE
8
0
10
62.7545322
20
24.3715239
11
62.3730401
21
23.7064044
0
LINE
8
0
10
62.3730401
20
23.7064044
11
62.253048
21
23.4972092
0
LINE
8
0
10
62.253048
20
23.4972092
11
62
21
23.056038
0
LINE
8
0
10
62
20
23.056038
11
62
21
19.6494637
0
LINE
8
0
10
62
20
19.6494637
11
62
21
17.113597
0
LINE
8
0
10
62
20
17.113597
11
62
21
16.4135949
0
LINE
8
0
10
62
20
16.4135949
11
62.229541
21
16.4135949
0
LINE
8
0
10
62.229541
20
16.4135949
11
64.2
21
16.4135949
0
LINE
8
0
10
64.2
20
16.4135949
11
64.2
21
16.736637
0
LINE
8
0
10
64.2
20
16.736637
11
64.2
21
17.3113652
0
LINE
8
0
10
64.2
20
17.3113652
11
64.2
21
17.8860891
0
LINE
8
0
10
64.2
20
17.8860891
11
68.8635196
21
17.8860891
0
LINE
8
0
10
68.8635196
20
17.8860891
11
72
21
17.8860891
0
LINE
8
0
10
72
20
17.8860891
11
72
21
19.1947505
0
LINE
8
0
10
72
20
19.1947505
11
72
21
24.4975441
0
LINE
8
0
10
72
20
24.4975441
11
72
21
24.4975441
0
ENDSEC
0
EOF
