0
SECTION
2
ENTITIES
0
LINE
8
0
10
3.25637194
20
-3.51049984
11
3.4
21
-4.15023889
0
LINE
8
0
10
3.4
20
-4.15023889
11
3.48198485
21
-4.34736381
0
LINE
8
0
10
3.48198485
20
-4.34736381
11
3.60665864
21
-4.64710043
0
LINE
8
0
10
3.60665864
20
-4.64710043
11
3.80310121
21
-4.93300067
0
LINE
8
0
10
3.80310121
20
-4.93300067
11
3.882362
21
-5.04836211
0
LINE
8
0
10
3.882362
20
-5.04836211
11
4.23441296
21
-5.21122917
0
LINE
8
0
10
4.23441296
20
-5.21122917
11
4.4
21
-5.28783387
0
LINE
8
0
10
4.4
20
-5.28783387
11
10.5278925
21
-5.28783387
0
LINE
8
0
10
10.5278925
20
-5.28783387
11
14
21
-5.28783387
0
LINE
8
0
10
14
20
-5.28783387
11
14.3820676
21
-5.11108102
0
LINE
8
0
10
14.3820676
20
-5.11108102
11
14.51764
21
-5.04836211
0
LINE
8
0
10
14.51764
20
-5.04836211
11
14.7933422
21
-4.64710043
0
LINE
8
0
10
14.7933422
20
-4.64710043
11
15
21
-4.15023889
0
LINE
8
0
10
15
20
-4.15023889
11
15.2735153
21
-2.93197524
0
LINE
8
0
10
15.2735153
20
-2.93197524
11
15.3922999
21
-1.35180027
0
LINE
8
0
10
15.3922999
20
-1.35180027
11
15.3990355
21
-1.262199
0
LINE
8
0
10
15.3990355
20
-1.262199
11
15.3990355
21
-0.842640019
0
LINE
8
0
10
15.3990355
20
-0.842640019
11
15.3990355
21
10.19024
0
LINE
8
0
10
15.3990355
20
10.19024
11
15.3990355
21
10.609799
0
LINE
8
0
10
15.3990355
20
10.609799
11
15.3990355
21
21.64268
0
LINE
8
0
10
15.3990355
20
21.64268
11
15.3990355
21
22.062239
0
LINE
8
0
10
15.3990355
20
22.062239
11
15.3990355
21
33.09512
0
LINE
8
0
10
15.3990355
20
33.09512
11
15.3990355
21
33.514679
0
LINE
8
0
10
15.3990355
20
33.514679
11
15.3990355
21
44.54756
0
LINE
8
0
10
15.3990355
20
44.54756
11
15.3990355
21
44.967119
0
LINE
8
0
10
15.3990355
20
44.967119
11
15.3990355
21
56
0
LINE
8
0
10
15.3990355
20
56
11
15.3104988
21
57.2097915
0
LINE
8
0
10
15.3104988
20
57.2097915
11
15.2800822
21
57.6254046
0
LINE
8
0
10
15.2800822
20
57.6254046
11
15.1508032
21
58.2166941
0
LINE
8
0
10
15.1508032
20
58.2166941
11
15
21
58.9064322
0
LINE
8
0
10
15
20
58.9064322
11
14.9358937
21
59.0647039
0
LINE
8
0
10
14.9358937
20
59.0647039
11
14.8435864
21
59.2926069
0
LINE
8
0
10
14.8435864
20
59.2926069
11
14.6149981
21
59.6340925
0
LINE
8
0
10
14.6149981
20
59.6340925
11
14.51764
21
59.7795373
0
LINE
8
0
10
14.51764
20
59.7795373
11
14.1934506
21
59.9334654
0
LINE
8
0
10
14.1934506
20
59.9334654
11
14
21
60.0253137
0
LINE
8
0
10
14
20
60.0253137
11
8.4832204
21
60.0253137
0
LINE
8
0
10
8.4832204
20
60.0253137
11
4.4
21
60.0253137
0
LINE
8
0
10
4.4
20
60.0253137
11
4.05302703
21
59.8605681
0
LINE
8
0
10
4.05302703
20
59.8605681
11
3.882362
21
59.7795373
0
LINE
8
0
10
3.882362
20
59.7795373
11
3.55641425
21
59.2926069
0
LINE
8
0
10
3.55641425
20
59.2926069
11
3.4
21
58.9064322
0
LINE
8
0
10
3.4
20
58.9064322
11
3.11991511
21
57.6254046
0
LINE
8
0
10
3.11991511
20
57.6254046
11
3.00720211
21
56.0852826
0
LINE
8
0
10
3.00720211
20
56.0852826
11
3.00096069
21
56
0
LINE
8
0
10
3.00096069
20
56
11
3.00096069
21
55.580441
0
LINE
8
0
10
3.00096069
20
55.580441
11
3.00096069
21
44.54756
0
LINE
8
0
10
3.00096069
20
44.54756
11
3.00096069
21
44.128001
0
LINE
8
0
10
3.00096069
20
44.128001
11
3.00096069
21
33.09512
0
LINE
8
0
10
3.00096069
20
33.09512
11
3.00096069
21
32.675561
0
LINE
8
0
10
3.00096069
20
32.675561
11
3.00096069
21
21.64268
0
LINE
8
0
10
3.00096069
20
21.64268
11
3.00096069
21
21.223121
0
LINE
8
0
10
3.00096069
20
21.223121
11
3.00096069
21
10.19024
0
LINE
8
0
10
3.00096069
20
10.19024
11
3.00096069
21
9.77068102
0
LINE
8
0
10
3.00096069
20
9.77068102
11
3.00096069
21
-1.262199
0
LINE
8
0
10
3.00096069
20
-1.262199
11
3.09323081
21
-2.48965125
0
LINE
8
0
10
3.09323081
20
-2.48965125
11
3.12648211
21
-2.93197524
0
LINE
8
0
10
3.12648211
20
-2.93197524
11
3.25637194
21
-3.51049984
0
LINE
8
0
10
3.25637194
20
-3.51049984
11
3.25637194
21
-3.51049984
0
ENDSEC
0
EOF
