0
SECTION
2
ENTITIES
0
LINE
8
0
10
16
20
43.9092957
11
16
21
42.7506265
0
LINE
8
0
10
16
20
42.7506265
11
16
21
42.6022431
0
LINE
8
0
10
16
20
42.6022431
11
16
21
41.3148555
0
LINE
8
0
10
16
20
41.3148555
11
16
21
41.2593766
0
LINE
8
0
10
16
20
41.2593766
11
16
21
40.6917891
0
LINE
8
0
10
16
20
40.6917891
11
16.74531
21
40.6917891
0
LINE
8
0
10
16.74531
20
40.6917891
11
17.8
21
40.6917891
0
LINE
8
0
10
17.8
20
40.6917891
11
17.8
21
40.1797723
0
LINE
8
0
10
17.8
20
40.1797723
11
17.8
21
39.6475006
0
LINE
8
0
10
17.8
20
39.6475006
11
17.8
21
28.050097
0
LINE
8
0
10
17.8
20
28.050097
11
17.8
21
27.039585
0
LINE
8
0
10
17.8
20
27.039585
11
17.8
21
26.5854818
0
LINE
8
0
10
17.8
20
26.5854818
11
17.8
21
26.342493
0
LINE
8
0
10
17.8
20
26.342493
11
17.8
21
26.1994079
0
LINE
8
0
10
17.8
20
26.1994079
11
17.8
21
26.1102581
0
LINE
8
0
10
17.8
20
26.1102581
11
17.8
21
26.0046987
0
LINE
8
0
10
17.8
20
26.0046987
11
17.8
21
23.431241
0
LINE
8
0
10
17.8
20
23.431241
11
17.7979672
21
23.3991321
0
LINE
8
0
10
17.7979672
20
23.3991321
11
17.72314
21
22.217211
0
LINE
8
0
10
17.72314
20
22.217211
11
17.7171199
21
22.1863362
0
LINE
8
0
10
17.7171199
20
22.1863362
11
17.49552
21
21.049841
0
LINE
8
0
10
17.49552
20
21.049841
11
17.4857437
21
21.0213864
0
LINE
8
0
10
17.4857437
20
21.0213864
11
17.12588
21
19.973981
0
LINE
8
0
10
17.12588
20
19.973981
11
17.1127234
21
19.9490406
0
LINE
8
0
10
17.1127234
20
19.9490406
11
16.62843
21
19.030991
0
LINE
8
0
10
16.62843
20
19.030991
11
16.6207373
21
19.0201443
0
LINE
8
0
10
16.6207373
20
19.0201443
11
16.33757
21
18.6208712
0
LINE
8
0
10
16.33757
20
18.6208712
11
16.3292312
21
18.6112496
0
LINE
8
0
10
16.3292312
20
18.6112496
11
16.02228
21
18.257091
0
LINE
8
0
10
16.02228
20
18.257091
11
16.0133752
21
18.2487876
0
LINE
8
0
10
16.0133752
20
18.2487876
11
15.68559
21
17.9431312
0
LINE
8
0
10
15.68559
20
17.9431312
11
15.6762046
21
17.9362253
0
LINE
8
0
10
15.6762046
20
17.9362253
11
15.33073
21
17.682031
0
LINE
8
0
10
15.33073
20
17.682031
11
15.320955
21
17.6765898
0
LINE
8
0
10
15.320955
20
17.6765898
11
14.96114
21
17.476301
0
LINE
8
0
10
14.96114
20
17.476301
11
14.9510691
21
17.4723766
0
LINE
8
0
10
14.9510691
20
17.4723766
11
14.58036
21
17.3279112
0
LINE
8
0
10
14.58036
20
17.3279112
11
14.5700904
21
17.3255412
0
LINE
8
0
10
14.5700904
20
17.3255412
11
14.19207
21
17.238311
0
LINE
8
0
10
14.19207
20
17.238311
11
14.1817005
21
17.2375183
0
LINE
8
0
10
14.1817005
20
17.2375183
11
13.8
21
17.208341
0
LINE
8
0
10
13.8
20
17.208341
11
13.4984911
21
17.208341
0
LINE
8
0
10
13.4984911
20
17.208341
11
2.4
21
17.2083353
0
LINE
8
0
10
2.4
20
17.2083353
11
2.4
21
24.7414875
0
LINE
8
0
10
2.4
20
24.7414875
11
2.4
21
28.6637889
0
LINE
8
0
10
2.4
20
28.6637889
11
2.4
21
33.3954679
0
LINE
8
0
10
2.4
20
33.3954679
11
2.4
21
35.993671
0
LINE
8
0
10
2.4
20
35.993671
11
2.4
21
36.1849981
0
LINE
8
0
10
2.4
20
36.1849981
11
2.4
21
36.4523779
0
LINE
8
0
10
2.4
20
36.4523779
11
2.4
21
40.2237591
0
LINE
8
0
10
2.4
20
40.2237591
11
2.4
21
40.5003796
0
LINE
8
0
10
2.4
20
40.5003796
11
2.4
21
40.867711
0
LINE
8
0
10
2.4
20
40.867711
11
2.4
21
41.3107634
0
LINE
8
0
10
2.4
20
41.3107634
11
2.4
21
42.781894
0
LINE
8
0
10
2.4
20
42.781894
11
2.4
21
42.8715524
0
LINE
8
0
10
2.4
20
42.8715524
11
2.4
21
43.3491467
0
LINE
8
0
10
2.4
20
43.3491467
11
2.4
21
43.4373336
0
LINE
8
0
10
2.4
20
43.4373336
11
2.4
21
43.524811
0
LINE
8
0
10
2.4
20
43.524811
11
2.4
21
44.0257221
0
LINE
8
0
10
2.4
20
44.0257221
11
2.4
21
47.5591436
0
LINE
8
0
10
2.4
20
47.5591436
11
2.4
21
48.2
0
LINE
8
0
10
2.4
20
48.2
11
2.45359031
21
48.6070624
0
LINE
8
0
10
2.45359031
20
48.6070624
11
2.468148
21
48.71764
0
LINE
8
0
10
2.468148
20
48.71764
11
2.62526775
21
49.0969588
0
LINE
8
0
10
2.62526775
20
49.0969588
11
2.667949
21
49.2
0
LINE
8
0
10
2.667949
20
49.2
11
2.91789004
21
49.525727
0
LINE
8
0
10
2.91789004
20
49.525727
11
2.985786
21
49.61421
0
LINE
8
0
10
2.985786
20
49.61421
11
3.3115161
21
49.8641534
0
LINE
8
0
10
3.3115161
20
49.8641534
11
3.4
21
49.93205
0
LINE
8
0
10
3.4
20
49.93205
11
3.77932041
21
50.089169
0
LINE
8
0
10
3.77932041
20
50.089169
11
3.882362
21
50.13185
0
LINE
8
0
10
3.882362
20
50.13185
11
4.28942279
21
50.1854419
0
LINE
8
0
10
4.28942279
20
50.1854419
11
4.4
21
50.2
0
LINE
8
0
10
4.4
20
50.2
11
7.57636738
21
50.2
0
LINE
8
0
10
7.57636738
20
50.2
11
7.90473252
21
50.2
0
LINE
8
0
10
7.90473252
20
50.2
11
8.34711517
21
50.2
0
LINE
8
0
10
8.34711517
20
50.2
11
8.9069938
21
50.2
0
LINE
8
0
10
8.9069938
20
50.2
11
9.56233701
21
50.2
0
LINE
8
0
10
9.56233701
20
50.2
11
10.2457929
21
50.2
0
LINE
8
0
10
10.2457929
20
50.2
11
10.7933285
21
50.2
0
LINE
8
0
10
10.7933285
20
50.2
11
10.7933285
21
49.9222299
0
LINE
8
0
10
10.7933285
20
49.9222299
11
10.7933285
21
46.2
0
LINE
8
0
10
10.7933285
20
46.2
11
10.7933285
21
45.9222299
0
LINE
8
0
10
10.7933285
20
45.9222299
11
10.7933285
21
42.2
0
LINE
8
0
10
10.7933285
20
42.2
11
10.7933285
21
41.9222299
0
LINE
8
0
10
10.7933285
20
41.9222299
11
10.7933285
21
38.2
0
LINE
8
0
10
10.7933285
20
38.2
11
10.805205
21
38.2
0
LINE
8
0
10
10.805205
20
38.2
11
10.80589
21
38.2
0
LINE
8
0
10
10.80589
20
38.2
11
10.9959506
21
38.2
0
LINE
8
0
10
10.9959506
20
38.2
11
11
21
38.2
0
LINE
8
0
10
11
20
38.2
11
11.193425
21
38.2
0
LINE
8
0
10
11.193425
20
38.2
11
11.19411
21
38.2
0
LINE
8
0
10
11.19411
20
38.2
11
11.2066715
21
38.2
0
LINE
8
0
10
11.2066715
20
38.2
11
11.2066715
21
38.4777701
0
LINE
8
0
10
11.2066715
20
38.4777701
11
11.2066715
21
42.2
0
LINE
8
0
10
11.2066715
20
42.2
11
11.2066715
21
42.4777701
0
LINE
8
0
10
11.2066715
20
42.4777701
11
11.2066715
21
46.2
0
LINE
8
0
10
11.2066715
20
46.2
11
11.2066715
21
46.4777701
0
LINE
8
0
10
11.2066715
20
46.4777701
11
11.2066715
21
50.2
0
LINE
8
0
10
11.2066715
20
50.2
11
11.4739898
21
50.2
0
LINE
8
0
10
11.4739898
20
50.2
11
11.7500256
21
50.2
0
LINE
8
0
10
11.7500256
20
50.2
11
11.9771237
21
50.2
0
LINE
8
0
10
11.9771237
20
50.2
11
12.1317637
21
50.2
0
LINE
8
0
10
12.1317637
20
50.2
11
12.3558308
21
50.2
0
LINE
8
0
10
12.3558308
20
50.2
11
12.5139929
21
50.2
0
LINE
8
0
10
12.5139929
20
50.2
11
13.4364366
21
50.2
0
LINE
8
0
10
13.4364366
20
50.2
11
13.6704954
21
50.2
0
LINE
8
0
10
13.6704954
20
50.2
11
16
21
50.2
0
LINE
8
0
10
16
20
50.2
11
16
21
46.282498
0
LINE
8
0
10
16
20
46.282498
11
16
21
45.2
0
LINE
8
0
10
16
20
45.2
11
16
21
44.1075538
0
LINE
8
0
10
16
20
44.1075538
11
16
21
43.9092957
0
LINE
8
0
10
16
20
43.9092957
11
16
21
43.9092957
0
LINE
8
0
10
35.2
20
-12.42104
11
35.2
21
-12.1103459
0
LINE
8
0
10
35.2
20
-12.1103459
11
35.2
21
-11.657409
0
LINE
8
0
10
35.2
20
-11.657409
11
35.2
21
-11.0319141
0
LINE
8
0
10
35.2
20
-11.0319141
11
35.2
21
-10.2125636
0
LINE
8
0
10
35.2
20
-10.2125636
11
35.2
21
-9.20425917
0
LINE
8
0
10
35.2
20
-9.20425917
11
35.2
21
-8.06039797
0
LINE
8
0
10
35.2
20
-8.06039797
11
35.2
21
-6.89709759
0
LINE
8
0
10
35.2
20
-6.89709759
11
35.2
21
-5.87719425
0
LINE
8
0
10
35.2
20
-5.87719425
11
35.2
21
0.474447436
0
LINE
8
0
10
35.2
20
0.474447436
11
35.2
21
1.50633296
0
LINE
8
0
10
35.2
20
1.50633296
11
35.2
21
2.76091027
0
LINE
8
0
10
35.2
20
2.76091027
11
35.2
21
4.05203526
0
LINE
8
0
10
35.2
20
4.05203526
11
35.2
21
5.23378428
0
LINE
8
0
10
35.2
20
5.23378428
11
35.2
21
6.22811461
0
LINE
8
0
10
35.2
20
6.22811461
11
35.2
21
9.45192833
0
LINE
8
0
10
35.2
20
9.45192833
11
35.2
21
10
0
LINE
8
0
10
35.2
20
10
11
34.5130925
21
10
0
LINE
8
0
10
34.5130925
20
10
11
30.2
21
10
0
LINE
8
0
10
30.2
20
10
11
30.2
21
10.2353323
0
LINE
8
0
10
30.2
20
10.2353323
11
30.2
21
11.53281
0
LINE
8
0
10
30.2
20
11.53281
11
30.2
21
11.5393063
0
LINE
8
0
10
30.2
20
11.5393063
11
30.2
21
11.69043
0
LINE
8
0
10
30.2
20
11.69043
11
30.2
21
11.6968214
0
LINE
8
0
10
30.2
20
11.6968214
11
30.2
21
11.89597
0
LINE
8
0
10
30.2
20
11.89597
11
30.2
21
11.9014831
0
LINE
8
0
10
30.2
20
11.9014831
11
30.2
21
12.13557
0
LINE
8
0
10
30.2
20
12.13557
11
30.2
21
12.1401385
0
LINE
8
0
10
30.2
20
12.1401385
11
30.2
21
12.39302
0
LINE
8
0
10
30.2
20
12.39302
11
30.2
21
12.3971027
0
LINE
8
0
10
30.2
20
12.3971027
11
30.2
21
12.65094
0
LINE
8
0
10
30.2
20
12.65094
11
30.2
21
12.6922883
0
LINE
8
0
10
30.2
20
12.6922883
11
30.2
21
15
0
LINE
8
0
10
30.2
20
15
11
30.1735518
21
15
0
LINE
8
0
10
30.1735518
20
15
11
28.2
21
15
0
LINE
8
0
10
28.2
20
15
11
28.2
21
14.8150029
0
LINE
8
0
10
28.2
20
14.8150029
11
28.2
21
12.2538716
0
LINE
8
0
10
28.2
20
12.2538716
11
28.2
21
11.9892653
0
LINE
8
0
10
28.2
20
11.9892653
11
28.2
21
10.1687614
0
LINE
8
0
10
28.2
20
10.1687614
11
28.2
21
9.22483967
0
LINE
8
0
10
28.2
20
9.22483967
11
28.2
21
8.81227419
0
LINE
8
0
10
28.2
20
8.81227419
11
28.2
21
8.24432818
0
LINE
8
0
10
28.2
20
8.24432818
11
28.2
21
7.53400366
0
LINE
8
0
10
28.2
20
7.53400366
11
28.2
21
6.79826046
0
LINE
8
0
10
28.2
20
6.79826046
11
28.2
21
6.26964177
0
LINE
8
0
10
28.2
20
6.26964177
11
28.2
21
-10.3471713
0
LINE
8
0
10
28.2
20
-10.3471713
11
28.2
21
-10.8590344
0
LINE
8
0
10
28.2
20
-10.8590344
11
28.2
21
-11.4957293
0
LINE
8
0
10
28.2
20
-11.4957293
11
28.2
21
-12.0742481
0
LINE
8
0
10
28.2
20
-12.0742481
11
28.2
21
-12.5176001
0
LINE
8
0
10
28.2
20
-12.5176001
11
28.2
21
-12.8283929
0
LINE
8
0
10
28.2
20
-12.8283929
11
28.2
21
-13.0365201
0
LINE
8
0
10
28.2
20
-13.0365201
11
28.2
21
-13.1721328
0
LINE
8
0
10
28.2
20
-13.1721328
11
28.2
21
-13.2581949
0
LINE
8
0
10
28.2
20
-13.2581949
11
28.2
21
-13.3105771
0
LINE
8
0
10
28.2
20
-13.3105771
11
28.2
21
-13.3398627
0
LINE
8
0
10
28.2
20
-13.3398627
11
28.2
21
-13.5
0
LINE
8
0
10
28.2
20
-13.5
11
28.2003441
21
-13.5070027
0
LINE
8
0
10
28.2003441
20
-13.5070027
11
28.21204
21
-13.74504
0
LINE
8
0
10
28.21204
20
-13.74504
11
28.2163109
21
-13.7685114
0
LINE
8
0
10
28.2163109
20
-13.7685114
11
28.2503409
21
-13.9975975
0
LINE
8
0
10
28.2503409
20
-13.9975975
11
28.3823424
21
-14.4332666
0
LINE
8
0
10
28.3823424
20
-14.4332666
11
28.4012503
21
-14.4789141
0
LINE
8
0
10
28.4012503
20
-14.4789141
11
28.6129303
21
-14.8754219
0
LINE
8
0
10
28.6129303
20
-14.8754219
11
28.6515588
21
-14.9257646
0
LINE
8
0
10
28.6515588
20
-14.9257646
11
28.93223
21
-15.26777
0
LINE
8
0
10
28.93223
20
-15.26777
11
29.2520043
21
-15.530197
0
LINE
8
0
10
29.2520043
20
-15.530197
11
29.3327309
21
-15.5921392
0
LINE
8
0
10
29.3327309
20
-15.5921392
11
29.6878733
21
-15.7823705
0
LINE
8
0
10
29.6878733
20
-15.7823705
11
29.8017998
21
-15.8295604
0
LINE
8
0
10
29.8017998
20
-15.8295604
11
30.1769028
21
-15.9437131
0
LINE
8
0
10
30.1769028
20
-15.9437131
11
30.2652823
21
-15.9571816
0
LINE
8
0
10
30.2652823
20
-15.9571816
11
30.7
21
-16
0
LINE
8
0
10
30.7
20
-16
11
30.9266907
21
-16
0
LINE
8
0
10
30.9266907
20
-16
11
32.7
21
-16
0
LINE
8
0
10
32.7
20
-16
11
32.7983953
21
-15.9903083
0
LINE
8
0
10
32.7983953
20
-15.9903083
11
32.8925896
21
-15.9746438
0
LINE
8
0
10
32.8925896
20
-15.9746438
11
33.0851793
21
-15.9492877
0
LINE
8
0
10
33.0851793
20
-15.9492877
11
33.2792296
21
-15.9306243
0
LINE
8
0
10
33.2792296
20
-15.9306243
11
33.4857806
21
-15.8677197
0
LINE
8
0
10
33.4857806
20
-15.8677197
11
33.8186034
21
-15.7298601
0
LINE
8
0
10
33.8186034
20
-15.7298601
11
34.0154028
21
-15.624391
0
LINE
8
0
10
34.0154028
20
-15.624391
11
34.289427
21
-15.4141295
0
LINE
8
0
10
34.289427
20
-15.4141295
11
34.46777
21
-15.26777
0
LINE
8
0
10
34.46777
20
-15.26777
11
34.6270365
21
-15.0736995
0
LINE
8
0
10
34.6270365
20
-15.0736995
11
34.8208045
21
-14.8211705
0
LINE
8
0
10
34.8208045
20
-14.8211705
11
34.9414108
21
-14.5951816
0
LINE
8
0
10
34.9414108
20
-14.5951816
11
35.0593258
21
-14.3105096
0
LINE
8
0
10
35.0593258
20
-14.3105096
11
35.1347949
21
-14.0613437
0
LINE
8
0
10
35.1347949
20
-14.0613437
11
35.1543522
21
-13.9297381
0
LINE
8
0
10
35.1543522
20
-13.9297381
11
35.1896191
21
-13.7112731
0
LINE
8
0
10
35.1896191
20
-13.7112731
11
35.2
21
-13.5
0
LINE
8
0
10
35.2
20
-13.5
11
35.2
21
-12.7306636
0
LINE
8
0
10
35.2
20
-12.7306636
11
35.2
21
-12.6193302
0
LINE
8
0
10
35.2
20
-12.6193302
11
35.2
21
-12.42104
0
LINE
8
0
10
35.2
20
-12.42104
11
35.2
21
-12.42104
0
LINE
8
0
10
72
20
-8.24305245
11
72
21
-9.03366693
0
LINE
8
0
10
72
20
-9.03366693
11
72
21
-9.65326987
0
LINE
8
0
10
72
20
-9.65326987
11
72
21
-10.1431171
0
LINE
8
0
10
72
20
-10.1431171
11
72
21
-10.8459479
0
LINE
8
0
10
72
20
-10.8459479
11
72
21
-11.3021121
0
LINE
8
0
10
72
20
-11.3021121
11
72
21
-11.6017143
0
LINE
8
0
10
72
20
-11.6017143
11
72
21
-11.6562128
0
LINE
8
0
10
72
20
-11.6562128
11
72
21
-13.5
0
LINE
8
0
10
72
20
-13.5
11
71.9765929
21
-13.6777854
0
LINE
8
0
10
71.9765929
20
-13.6777854
11
71.91481
21
-14.14705
0
LINE
8
0
10
71.91481
20
-14.14705
11
71.7336821
21
-14.5843317
0
LINE
8
0
10
71.7336821
20
-14.5843317
11
71.66506
21
-14.75
0
LINE
8
0
10
71.66506
20
-14.75
11
71.3769306
21
-15.125506
0
LINE
8
0
10
71.3769306
20
-15.125506
11
71.26777
21
-15.26777
0
LINE
8
0
10
71.26777
20
-15.26777
11
70.892264
21
-15.5558994
0
LINE
8
0
10
70.892264
20
-15.5558994
11
70.75
21
-15.66506
0
LINE
8
0
10
70.75
20
-15.66506
11
70.3127183
21
-15.8461879
0
LINE
8
0
10
70.3127183
20
-15.8461879
11
70.14705
21
-15.91481
0
LINE
8
0
10
70.14705
20
-15.91481
11
69.6777854
21
-15.9765929
0
LINE
8
0
10
69.6777854
20
-15.9765929
11
69.5
21
-16
0
LINE
8
0
10
69.5
20
-16
11
60.9613691
21
-16
0
LINE
8
0
10
60.9613691
20
-16
11
58.8
21
-16
0
LINE
8
0
10
58.8
20
-16
11
58.7884517
21
-15.9997621
0
LINE
8
0
10
58.7884517
20
-15.9997621
11
58.73836
21
-15.99873
0
LINE
8
0
10
58.73836
20
-15.99873
11
58.7267089
21
-15.9980109
0
LINE
8
0
10
58.7267089
20
-15.9980109
11
58.67679
21
-15.99493
0
LINE
8
0
10
58.67679
20
-15.99493
11
58.6272583
21
-15.9898205
0
LINE
8
0
10
58.6272583
20
-15.9898205
11
58.5365506
21
-15.9732258
0
LINE
8
0
10
58.5365506
20
-15.9732258
11
58.4577713
21
-15.9578616
0
LINE
8
0
10
58.4577713
20
-15.9578616
11
58.3492473
21
-15.9259108
0
LINE
8
0
10
58.3492473
20
-15.9259108
11
58.0765314
21
-15.8129482
0
LINE
8
0
10
58.0765314
20
-15.8129482
11
57.9687186
21
-15.7371346
0
LINE
8
0
10
57.9687186
20
-15.7371346
11
57.7415795
21
-15.5628431
0
LINE
8
0
10
57.7415795
20
-15.5628431
11
57.6942732
21
-15.5073355
0
LINE
8
0
10
57.6942732
20
-15.5073355
11
57.5227571
21
-15.2838134
0
LINE
8
0
10
57.5227571
20
-15.2838134
11
57.4813648
21
-15.2118459
0
LINE
8
0
10
57.4813648
20
-15.2118459
11
57.37538
21
-14.9559759
0
LINE
8
0
10
57.37538
20
-14.9559759
11
57.3463703
21
-14.8683915
0
LINE
8
0
10
57.3463703
20
-14.8683915
11
57.3350466
21
-14.7662128
0
LINE
8
0
10
57.3350466
20
-14.7662128
11
57.3146591
21
-14.6113504
0
LINE
8
0
10
57.3146591
20
-14.6113504
11
57.3092678
21
-14.5703981
0
LINE
8
0
10
57.3092678
20
-14.5703981
11
57.3050624
21
-14.546017
0
LINE
8
0
10
57.3050624
20
-14.546017
11
57.3
21
-14.5
0
LINE
8
0
10
57.3
20
-14.5
11
57.3
21
-14.4535076
0
LINE
8
0
10
57.3
20
-14.4535076
11
57.3
21
-14.17729
0
LINE
8
0
10
57.3
20
-14.17729
11
57.3
21
-11.6029537
0
LINE
8
0
10
57.3
20
-11.6029537
11
57.3
21
-11.3975646
0
LINE
8
0
10
57.3
20
-11.3975646
11
57.3
21
-11.1065087
0
LINE
8
0
10
57.3
20
-11.1065087
11
57.3
21
-10.8817581
0
LINE
8
0
10
57.3
20
-10.8817581
11
57.3
21
-10.4797866
0
LINE
8
0
10
57.3
20
-10.4797866
11
57.3
21
-9.92565528
0
LINE
8
0
10
57.3
20
-9.92565528
11
57.3
21
-9.18653802
0
LINE
8
0
10
57.3
20
-9.18653802
11
57.3
21
-8.23376708
0
LINE
8
0
10
57.3
20
-8.23376708
11
57.3
21
-7.0567701
0
LINE
8
0
10
57.3
20
-7.0567701
11
57.3
21
-5.68558941
0
LINE
8
0
10
57.3
20
-5.68558941
11
57.3
21
-4.21630542
0
LINE
8
0
10
57.3
20
-4.21630542
11
57.3
21
-2.82025734
0
LINE
8
0
10
57.3
20
-2.82025734
11
57.3
21
3.9006184
0
LINE
8
0
10
57.3
20
3.9006184
11
57.3
21
4.64100084
0
LINE
8
0
10
57.3
20
4.64100084
11
57.3
21
5.59758673
0
LINE
8
0
10
57.3
20
5.59758673
11
57.3
21
6.63039889
0
LINE
8
0
10
57.3
20
6.63039889
11
57.3
21
7.60204261
0
LINE
8
0
10
57.3
20
7.60204261
11
57.3
21
8.42227034
0
LINE
8
0
10
57.3
20
8.42227034
11
57.3
21
9.05721347
0
LINE
8
0
10
57.3
20
9.05721347
11
57.3
21
10
0
LINE
8
0
10
57.3
20
10
11
60.2810501
21
10
0
LINE
8
0
10
60.2810501
20
10
11
62
21
10
0
LINE
8
0
10
62
20
10
11
62
21
13.2803191
0
LINE
8
0
10
62
20
13.2803191
11
62
21
13.633154
0
LINE
8
0
10
62
20
13.633154
11
62
21
14.0049033
0
LINE
8
0
10
62
20
14.0049033
11
62
21
14.3488751
0
LINE
8
0
10
62
20
14.3488751
11
62
21
14.6122504
0
LINE
8
0
10
62
20
14.6122504
11
62
21
18.2709878
0
LINE
8
0
10
62
20
18.2709878
11
62
21
18.578442
0
LINE
8
0
10
62
20
18.578442
11
62
21
19.0634737
0
LINE
8
0
10
62
20
19.0634737
11
62
21
19.6450732
0
LINE
8
0
10
62
20
19.6450732
11
62
21
21.5205548
0
LINE
8
0
10
62
20
21.5205548
11
62
21
24.0399963
0
LINE
8
0
10
62
20
24.0399963
11
62.1871498
21
24.3662786
0
LINE
8
0
10
62.1871498
20
24.3662786
11
62.3377118
21
24.6287696
0
LINE
8
0
10
62.3377118
20
24.6287696
11
62.8163949
21
25.4633387
0
LINE
8
0
10
62.8163949
20
25.4633387
11
63.1055332
21
25.9674365
0
LINE
8
0
10
63.1055332
20
25.9674365
11
63.1494466
21
26.0439949
0
LINE
8
0
10
63.1494466
20
26.0439949
11
69.734838
21
26.0469818
0
LINE
8
0
10
69.734838
20
26.0469818
11
72
21
26.0469818
0
LINE
8
0
10
72
20
26.0469818
11
72
21
24.2790243
0
LINE
8
0
10
72
20
24.2790243
11
72
21
19.5465415
0
LINE
8
0
10
72
20
19.5465415
11
72
21
17.4756838
0
LINE
8
0
10
72
20
17.4756838
11
72
21
17.1485505
0
LINE
8
0
10
72
20
17.1485505
11
67.1377036
21
17.1485505
0
LINE
8
0
10
67.1377036
20
17.1485505
11
64.2
21
17.1471746
0
LINE
8
0
10
64.2
20
17.1471746
11
64.2
21
16.7719826
0
LINE
8
0
10
64.2
20
16.7719826
11
64.2
21
16.6962094
0
LINE
8
0
10
64.2
20
16.6962094
11
64.2
21
16.3000893
0
LINE
8
0
10
64.2
20
16.3000893
11
64.2
21
16.1884096
0
LINE
8
0
10
64.2
20
16.1884096
11
64.2
21
15.8892273
0
LINE
8
0
10
64.2
20
15.8892273
11
64.2
21
15.5877251
0
LINE
8
0
10
64.2
20
15.5877251
11
64.2
21
15.47683
0
LINE
8
0
10
64.2
20
15.47683
11
64.2
21
15.0713362
0
LINE
8
0
10
64.2
20
15.0713362
11
64.2
21
14.9993584
0
LINE
8
0
10
64.2
20
14.9993584
11
64.2
21
14.6540978
0
LINE
8
0
10
64.2
20
14.6540978
11
70.040972
21
14.6407807
0
LINE
8
0
10
70.040972
20
14.6407807
11
72
21
14.6447537
0
LINE
8
0
10
72
20
14.6447537
11
72
21
12.3688434
0
LINE
8
0
10
72
20
12.3688434
11
72
21
11.6079873
0
LINE
8
0
10
72
20
11.6079873
11
72
21
11.5270929
0
LINE
8
0
10
72
20
11.5270929
11
72
21
11.4265952
0
LINE
8
0
10
72
20
11.4265952
11
71.9972399
21
11.3343001
0
LINE
8
0
10
71.9972399
20
11.3343001
11
71.9619498
21
10.460046
0
LINE
8
0
10
71.9619498
20
10.460046
11
71.9398372
21
10.2225277
0
LINE
8
0
10
71.9398372
20
10.2225277
11
71.917462
21
9.94699768
0
LINE
8
0
10
71.917462
20
9.94699768
11
71.9001871
21
9.73341137
0
LINE
8
0
10
71.9001871
20
9.73341137
11
71.8591912
21
9.43854593
0
LINE
8
0
10
71.8591912
20
9.43854593
11
71.8147278
21
9.11743998
0
LINE
8
0
10
71.8147278
20
9.11743998
11
71.7924314
21
8.93289017
0
LINE
8
0
10
71.7924314
20
8.93289017
11
71.7704404
21
8.74949371
0
LINE
8
0
10
71.7704404
20
8.74949371
11
71.7121165
21
8.416049
0
LINE
8
0
10
71.7121165
20
8.416049
11
71.6620737
21
8.12779214
0
LINE
8
0
10
71.6620737
20
8.12779214
11
71.6287854
21
7.90171801
0
LINE
8
0
10
71.6287854
20
7.90171801
11
71.5868123
21
7.61333208
0
LINE
8
0
10
71.5868123
20
7.61333208
11
71.5415399
21
7.38385395
0
LINE
8
0
10
71.5415399
20
7.38385395
11
71.5108218
21
7.22631502
0
LINE
8
0
10
71.5108218
20
7.22631502
11
71.4515593
21
6.85299076
0
LINE
8
0
10
71.4515593
20
6.85299076
11
71.3796841
21
6.39249096
0
LINE
8
0
10
71.3796841
20
6.39249096
11
71.3721904
21
6.32981164
0
LINE
8
0
10
71.3721904
20
6.32981164
11
71.3562506
21
6.19313712
0
LINE
8
0
10
71.3562506
20
6.19313712
11
71.2926361
21
5.78042899
0
LINE
8
0
10
71.2926361
20
5.78042899
11
71.2669872
21
5.60985236
0
LINE
8
0
10
71.2669872
20
5.60985236
11
71.2262696
21
5.21650865
0
LINE
8
0
10
71.2262696
20
5.21650865
11
71.1913003
21
4.86517874
0
LINE
8
0
10
71.1913003
20
4.86517874
11
71.1792814
21
4.63561315
0
LINE
8
0
10
71.1792814
20
4.63561315
11
71.1556996
21
4.14765221
0
LINE
8
0
10
71.1556996
20
4.14765221
11
71.1555892
21
4.02291132
0
LINE
8
0
10
71.1555892
20
4.02291132
11
71.157314
21
3.44788285
0
LINE
8
0
10
71.157314
20
3.44788285
11
71.1619129
21
3.35538767
0
LINE
8
0
10
71.1619129
20
3.35538767
11
71.1938601
21
2.75691079
0
LINE
8
0
10
71.1938601
20
2.75691079
11
71.2099458
21
2.59482416
0
LINE
8
0
10
71.2099458
20
2.59482416
11
71.264137
21
2.06632852
0
LINE
8
0
10
71.264137
20
2.06632852
11
71.3228616
21
1.66879547
0
LINE
8
0
10
71.3228616
20
1.66879547
11
71.3681396
21
1.36803662
0
LINE
8
0
10
71.3681396
20
1.36803662
11
71.4546698
21
0.924029307
0
LINE
8
0
10
71.4546698
20
0.924029307
11
71.4966664
21
0.653676898
0
LINE
8
0
10
71.4966664
20
0.653676898
11
71.5694998
21
0.267985809
0
LINE
8
0
10
71.5694998
20
0.267985809
11
71.6368489
21
-0.0864558372
0
LINE
8
0
10
71.6368489
20
-0.0864558372
11
71.6735012
21
-0.251462354
0
LINE
8
0
10
71.6735012
20
-0.251462354
11
71.7759595
21
-0.8633603
0
LINE
8
0
10
71.7759595
20
-0.8633603
11
71.8268345
21
-1.13024643
0
LINE
8
0
10
71.8268345
20
-1.13024643
11
71.9008061
21
-1.6896495
0
LINE
8
0
10
71.9008061
20
-1.6896495
11
71.9272641
21
-1.86882514
0
LINE
8
0
10
71.9272641
20
-1.86882514
11
71.9676943
21
-2.33732618
0
LINE
8
0
10
71.9676943
20
-2.33732618
11
71.9827966
21
-2.51167988
0
LINE
8
0
10
71.9827966
20
-2.51167988
11
71.9847564
21
-2.58055157
0
LINE
8
0
10
71.9847564
20
-2.58055157
11
72
21
-3.06805675
0
LINE
8
0
10
72
20
-3.06805675
11
72
21
-4.12238465
0
LINE
8
0
10
72
20
-4.12238465
11
72
21
-5.88956465
0
LINE
8
0
10
72
20
-5.88956465
11
72
21
-7.22297918
0
LINE
8
0
10
72
20
-7.22297918
11
72
21
-8.24305245
0
LINE
8
0
10
72
20
-8.24305245
11
72
21
-8.24305245
0
ENDSEC
0
EOF
