0
SECTION
2
ENTITIES
0
LINE
8
0
10
16
20
43.9271603
11
16
21
42.8341497
0
LINE
8
0
10
16
20
42.8341497
11
16
21
42.6384786
0
LINE
8
0
10
16
20
42.6384786
11
16
21
41.419258
0
LINE
8
0
10
16
20
41.419258
11
16
21
41.3150178
0
LINE
8
0
10
16
20
41.3150178
11
16
21
40.2485681
0
LINE
8
0
10
16
20
40.2485681
11
17.4003757
21
40.2485681
0
LINE
8
0
10
17.4003757
20
40.2485681
11
17.8
21
40.2485681
0
LINE
8
0
10
17.8
20
40.2485681
11
17.8
21
40.0545638
0
LINE
8
0
10
17.8
20
40.0545638
11
17.8
21
39.491214
0
LINE
8
0
10
17.8
20
39.491214
11
17.8
21
30.1883393
0
LINE
8
0
10
17.8
20
30.1883393
11
17.8
21
28.224064
0
LINE
8
0
10
17.8
20
28.224064
11
17.8
21
27.3413591
0
LINE
8
0
10
17.8
20
27.3413591
11
17.8
21
26.8690273
0
LINE
8
0
10
17.8
20
26.8690273
11
17.8
21
26.5908926
0
LINE
8
0
10
17.8
20
26.5908926
11
17.8
21
26.4175996
0
LINE
8
0
10
17.8
20
26.4175996
11
17.8
21
26.2124087
0
LINE
8
0
10
17.8
20
26.2124087
11
17.8
21
23.7049371
0
LINE
8
0
10
17.8
20
23.7049371
11
17.7960485
21
23.6425226
0
LINE
8
0
10
17.7960485
20
23.6425226
11
17.72314
21
22.4909071
0
LINE
8
0
10
17.72314
20
22.4909071
11
17.7114378
21
22.4308914
0
LINE
8
0
10
17.7114378
20
22.4308914
11
17.49552
21
21.3235371
0
LINE
8
0
10
17.49552
20
21.3235371
11
17.4765164
21
21.268226
0
LINE
8
0
10
17.4765164
20
21.268226
11
17.12588
21
20.2476771
0
LINE
8
0
10
17.12588
20
20.2476771
11
17.1003056
21
20.199197
0
LINE
8
0
10
17.1003056
20
20.199197
11
16.62843
21
19.3046871
0
LINE
8
0
10
16.62843
20
19.3046871
11
16.6134766
21
19.2836029
0
LINE
8
0
10
16.6134766
20
19.2836029
11
16.33757
21
18.8945676
0
LINE
8
0
10
16.33757
20
18.8945676
11
16.3213606
21
18.8758648
0
LINE
8
0
10
16.3213606
20
18.8758648
11
16.02228
21
18.5307871
0
LINE
8
0
10
16.02228
20
18.5307871
11
16.0049704
21
18.5146466
0
LINE
8
0
10
16.0049704
20
18.5146466
11
15.68559
21
18.2168276
0
LINE
8
0
10
15.68559
20
18.2168276
11
15.6673463
21
18.2034037
0
LINE
8
0
10
15.6673463
20
18.2034037
11
15.33073
21
17.9557271
0
LINE
8
0
10
15.33073
20
17.9557271
11
15.311729
21
17.9451503
0
LINE
8
0
10
15.311729
20
17.9451503
11
14.96114
21
17.7499971
0
LINE
8
0
10
14.96114
20
17.7499971
11
14.9415637
21
17.7423687
0
LINE
8
0
10
14.9415637
20
17.7423687
11
14.58036
21
17.6016076
0
LINE
8
0
10
14.58036
20
17.6016076
11
14.5603976
21
17.5970007
0
LINE
8
0
10
14.5603976
20
17.5970007
11
14.19207
21
17.5120071
0
LINE
8
0
10
14.19207
20
17.5120071
11
14.1719133
21
17.5104663
0
LINE
8
0
10
14.1719133
20
17.5104663
11
13.8
21
17.4820371
0
LINE
8
0
10
13.8
20
17.4820371
11
13.2139144
21
17.4820371
0
LINE
8
0
10
13.2139144
20
17.4820371
11
2.4
21
17.4820315
0
LINE
8
0
10
2.4
20
17.4820315
11
2.4
21
24.822026
0
LINE
8
0
10
2.4
20
24.822026
11
2.4
21
28.6437556
0
LINE
8
0
10
2.4
20
28.6437556
11
2.4
21
33.2541095
0
LINE
8
0
10
2.4
20
33.2541095
11
2.4
21
36.1174718
0
LINE
8
0
10
2.4
20
36.1174718
11
2.4
21
36.3283248
0
LINE
8
0
10
2.4
20
36.3283248
11
2.4
21
36.6229919
0
LINE
8
0
10
2.4
20
36.6229919
11
2.4
21
40.2541961
0
LINE
8
0
10
2.4
20
40.2541961
11
2.4
21
40.5496945
0
LINE
8
0
10
2.4
20
40.5496945
11
2.4
21
40.9420943
0
LINE
8
0
10
2.4
20
40.9420943
11
2.4
21
41.4153826
0
LINE
8
0
10
2.4
20
41.4153826
11
2.4
21
42.8086171
0
LINE
8
0
10
2.4
20
42.8086171
11
2.4
21
42.893528
0
LINE
8
0
10
2.4
20
42.893528
11
2.4
21
43.3987534
0
LINE
8
0
10
2.4
20
43.3987534
11
2.4
21
43.481943
0
LINE
8
0
10
2.4
20
43.481943
11
2.4
21
43.5644633
0
LINE
8
0
10
2.4
20
43.5644633
11
2.4
21
44.093881
0
LINE
8
0
10
2.4
20
44.093881
11
2.4
21
47.4222112
0
LINE
8
0
10
2.4
20
47.4222112
11
2.4
21
48.2
0
LINE
8
0
10
2.4
20
48.2
11
2.45047975
21
48.5834351
0
LINE
8
0
10
2.45047975
20
48.5834351
11
2.468148
21
48.71764
0
LINE
8
0
10
2.468148
20
48.71764
11
2.61614801
21
49.0749419
0
LINE
8
0
10
2.61614801
20
49.0749419
11
2.667949
21
49.2
0
LINE
8
0
10
2.667949
20
49.2
11
2.90338265
21
49.5068207
0
LINE
8
0
10
2.90338265
20
49.5068207
11
2.985786
21
49.61421
0
LINE
8
0
10
2.985786
20
49.61421
11
3.29260967
21
49.8496459
0
LINE
8
0
10
3.29260967
20
49.8496459
11
3.4
21
49.93205
0
LINE
8
0
10
3.4
20
49.93205
11
3.75730342
21
50.0800493
0
LINE
8
0
10
3.75730342
20
50.0800493
11
3.882362
21
50.13185
0
LINE
8
0
10
3.882362
20
50.13185
11
4.26579566
21
50.1823312
0
LINE
8
0
10
4.26579566
20
50.1823312
11
4.4
21
50.2
0
LINE
8
0
10
4.4
20
50.2
11
8.25506463
21
50.2
0
LINE
8
0
10
8.25506463
20
50.2
11
8.65359184
21
50.2
0
LINE
8
0
10
8.65359184
20
50.2
11
9.19049879
21
50.2
0
LINE
8
0
10
9.19049879
20
50.2
11
9.87000719
21
50.2
0
LINE
8
0
10
9.87000719
20
50.2
11
10.4384032
21
50.2
0
LINE
8
0
10
10.4384032
20
50.2
11
10.4384032
21
49.1506891
0
LINE
8
0
10
10.4384032
20
49.1506891
11
10.4384032
21
46.2
0
LINE
8
0
10
10.4384032
20
46.2
11
10.4384032
21
45.1506891
0
LINE
8
0
10
10.4384032
20
45.1506891
11
10.4384032
21
42.2
0
LINE
8
0
10
10.4384032
20
42.2
11
10.4384032
21
41.1506891
0
LINE
8
0
10
10.4384032
20
41.1506891
11
10.4384032
21
38.2
0
LINE
8
0
10
10.4384032
20
38.2
11
10.4643055
21
38.2
0
LINE
8
0
10
10.4643055
20
38.2
11
10.46967
21
38.2
0
LINE
8
0
10
10.46967
20
38.2
11
10.603944
21
38.2
0
LINE
8
0
10
10.603944
20
38.2
11
10.625
21
38.2
0
LINE
8
0
10
10.625
20
38.2
11
10.7749692
21
38.2
0
LINE
8
0
10
10.7749692
20
38.2
11
10.80589
21
38.2
0
LINE
8
0
10
10.80589
20
38.2
11
10.9657162
21
38.2
0
LINE
8
0
10
10.9657162
20
38.2
11
11
21
38.2
0
LINE
8
0
10
11
20
38.2
11
11.1631906
21
38.2
0
LINE
8
0
10
11.1631906
20
38.2
11
11.19411
21
38.2
0
LINE
8
0
10
11.19411
20
38.2
11
11.3539435
21
38.2
0
LINE
8
0
10
11.3539435
20
38.2
11
11.375
21
38.2
0
LINE
8
0
10
11.375
20
38.2
11
11.5249655
21
38.2
0
LINE
8
0
10
11.5249655
20
38.2
11
11.53033
21
38.2
0
LINE
8
0
10
11.53033
20
38.2
11
11.5615968
21
38.2
0
LINE
8
0
10
11.5615968
20
38.2
11
11.5615968
21
39.2493109
0
LINE
8
0
10
11.5615968
20
39.2493109
11
11.5615968
21
42.2
0
LINE
8
0
10
11.5615968
20
42.2
11
11.5615968
21
43.2493109
0
LINE
8
0
10
11.5615968
20
43.2493109
11
11.5615968
21
46.2
0
LINE
8
0
10
11.5615968
20
46.2
11
11.5615968
21
47.2493109
0
LINE
8
0
10
11.5615968
20
47.2493109
11
11.5615968
21
50.2
0
LINE
8
0
10
11.5615968
20
50.2
11
11.7585648
21
50.2
0
LINE
8
0
10
11.7585648
20
50.2
11
11.8100376
21
50.2
0
LINE
8
0
10
11.8100376
20
50.2
11
12.0796992
21
50.2
0
LINE
8
0
10
12.0796992
20
50.2
11
12.270045
21
50.2
0
LINE
8
0
10
12.270045
20
50.2
11
12.8979463
21
50.2
0
LINE
8
0
10
12.8979463
20
50.2
11
13.1811704
21
50.2
0
LINE
8
0
10
13.1811704
20
50.2
11
16
21
50.2
0
LINE
8
0
10
16
20
50.2
11
16
21
46.5098825
0
LINE
8
0
10
16
20
46.5098825
11
16
21
45.2
0
LINE
8
0
10
16
20
45.2
11
16
21
44.1709629
0
LINE
8
0
10
16
20
44.1709629
11
16
21
43.9271603
0
LINE
8
0
10
16
20
43.9271603
11
16
21
43.9271603
0
LINE
8
0
10
35.2
20
-11.5327034
11
35.2
21
-12.0162948
0
LINE
8
0
10
35.2
20
-12.0162948
11
35.2
21
-12.3480165
0
LINE
8
0
10
35.2
20
-12.3480165
11
35.2
21
-12.5597269
0
LINE
8
0
10
35.2
20
-12.5597269
11
35.2
21
-12.6785953
0
LINE
8
0
10
35.2
20
-12.6785953
11
35.2
21
-13.5
0
LINE
8
0
10
35.2
20
-13.5
11
35.189731
21
-13.7089958
0
LINE
8
0
10
35.189731
20
-13.7089958
11
35.1520857
21
-13.9421942
0
LINE
8
0
10
35.1520857
20
-13.9421942
11
35.1336494
21
-14.0662563
0
LINE
8
0
10
35.1336494
20
-14.0662563
11
35.0625061
21
-14.3011403
0
LINE
8
0
10
35.0625061
20
-14.3011403
11
34.9370345
21
-14.6040556
0
LINE
8
0
10
34.9370345
20
-14.6040556
11
34.8233412
21
-14.817091
0
LINE
8
0
10
34.8233412
20
-14.817091
11
34.6179075
21
-15.0848234
0
LINE
8
0
10
34.6179075
20
-15.0848234
11
34.46777
21
-15.26777
0
LINE
8
0
10
34.46777
20
-15.26777
11
34.2996495
21
-15.4057403
0
LINE
8
0
10
34.2996495
20
-15.4057403
11
34.011654
21
-15.6267221
0
LINE
8
0
10
34.011654
20
-15.6267221
11
33.8261349
21
-15.7261458
0
LINE
8
0
10
33.8261349
20
-15.7261458
11
33.4778287
21
-15.8704189
0
LINE
8
0
10
33.4778287
20
-15.8704189
11
33.283117
21
-15.9297178
0
LINE
8
0
10
33.283117
20
-15.9297178
11
33.1001894
21
-15.9473114
0
LINE
8
0
10
33.1001894
20
-15.9473114
11
32.9000947
21
-15.9736557
0
LINE
8
0
10
32.9000947
20
-15.9736557
11
32.8022297
21
-15.9899307
0
LINE
8
0
10
32.8022297
20
-15.9899307
11
32.7
21
-16
0
LINE
8
0
10
32.7
20
-16
11
30.9437975
21
-16
0
LINE
8
0
10
30.9437975
20
-16
11
30.7
21
-16
0
LINE
8
0
10
30.7
20
-16
11
30.2700462
21
-15.9576508
0
LINE
8
0
10
30.2700462
20
-15.9576508
11
30.1737245
21
-15.942972
0
LINE
8
0
10
30.1737245
20
-15.942972
11
29.8082395
21
-15.8317463
0
LINE
8
0
10
29.8082395
20
-15.8317463
11
29.681774
21
-15.7793625
0
LINE
8
0
10
29.681774
20
-15.7793625
11
29.3357378
21
-15.594009
0
LINE
8
0
10
29.3357378
20
-15.594009
11
29.243805
21
-15.5234681
0
LINE
8
0
10
29.243805
20
-15.5234681
11
28.93223
21
-15.26777
0
LINE
8
0
10
28.93223
20
-15.26777
11
28.6587555
21
-14.9345339
0
LINE
8
0
10
28.6587555
20
-14.9345339
11
28.6109306
21
-14.8722059
0
LINE
8
0
10
28.6109306
20
-14.8722059
11
28.4046782
21
-14.485865
0
LINE
8
0
10
28.4046782
20
-14.485865
11
28.3798513
21
-14.4259277
0
LINE
8
0
10
28.3798513
20
-14.4259277
11
28.2512345
21
-14.0014296
0
LINE
8
0
10
28.2512345
20
-14.0014296
11
28.218077
21
-13.7782175
0
LINE
8
0
10
28.218077
20
-13.7782175
11
28.21204
21
-13.74504
0
LINE
8
0
10
28.21204
20
-13.74504
11
28.2004895
21
-13.5099627
0
LINE
8
0
10
28.2004895
20
-13.5099627
11
28.2
21
-13.5
0
LINE
8
0
10
28.2
20
-13.5
11
28.2
21
-13.2721739
0
LINE
8
0
10
28.2
20
-13.2721739
11
28.2
21
-13.2305095
0
LINE
8
0
10
28.2
20
-13.2305095
11
28.2
21
-13.1559858
0
LINE
8
0
10
28.2
20
-13.1559858
11
28.2
21
-13.0335459
0
LINE
8
0
10
28.2
20
-13.0335459
11
28.2
21
-12.8406107
0
LINE
8
0
10
28.2
20
-12.8406107
11
28.2
21
-12.5445098
0
LINE
8
0
10
28.2
20
-12.5445098
11
28.2
21
-12.1023473
0
LINE
8
0
10
28.2
20
-12.1023473
11
28.2
21
-11.4715939
0
LINE
8
0
10
28.2
20
-11.4715939
11
28.2
21
-10.6485397
0
LINE
8
0
10
28.2
20
-10.6485397
11
28.2
21
-9.74271878
0
LINE
8
0
10
28.2
20
-9.74271878
11
28.2
21
-9.01449517
0
LINE
8
0
10
28.2
20
-9.01449517
11
28.2
21
4.56604079
0
LINE
8
0
10
28.2
20
4.56604079
11
28.2
21
5.31810248
0
LINE
8
0
10
28.2
20
5.31810248
11
28.2
21
6.36483858
0
LINE
8
0
10
28.2
20
6.36483858
11
28.2
21
7.37541175
0
LINE
8
0
10
28.2
20
7.37541175
11
28.2
21
8.1834241
0
LINE
8
0
10
28.2
20
8.1834241
11
28.2
21
8.77037779
0
LINE
8
0
10
28.2
20
8.77037779
11
28.2
21
10.1132878
0
LINE
8
0
10
28.2
20
10.1132878
11
28.2
21
11.8871121
0
LINE
8
0
10
28.2
20
11.8871121
11
28.2
21
12.1449336
0
LINE
8
0
10
28.2
20
12.1449336
11
28.2
21
14.640395
0
LINE
8
0
10
28.2
20
14.640395
11
28.2
21
15
0
LINE
8
0
10
28.2
20
15
11
30.148589
21
15
0
LINE
8
0
10
30.148589
20
15
11
30.2
21
15
0
LINE
8
0
10
30.2
20
15
11
30.2
21
12.7214778
0
LINE
8
0
10
30.2
20
12.7214778
11
30.2
21
12.65094
0
LINE
8
0
10
30.2
20
12.65094
11
30.2
21
12.4002989
0
LINE
8
0
10
30.2
20
12.4002989
11
30.2
21
12.39302
0
LINE
8
0
10
30.2
20
12.39302
11
30.2
21
12.1433283
0
LINE
8
0
10
30.2
20
12.1433283
11
30.2
21
12.13557
0
LINE
8
0
10
30.2
20
12.13557
11
30.2
21
11.9044301
0
LINE
8
0
10
30.2
20
11.9044301
11
30.2
21
11.89597
0
LINE
8
0
10
30.2
20
11.89597
11
30.2
21
11.6993147
0
LINE
8
0
10
30.2
20
11.6993147
11
30.2
21
11.69043
0
LINE
8
0
10
30.2
20
11.69043
11
30.2
21
11.5411821
0
LINE
8
0
10
30.2
20
11.5411821
11
30.2
21
11.53281
0
LINE
8
0
10
30.2
20
11.53281
11
30.2
21
10.2512595
0
LINE
8
0
10
30.2
20
10.2512595
11
30.2
21
10
0
LINE
8
0
10
30.2
20
10
11
34.466603
21
10
0
LINE
8
0
10
34.466603
20
10
11
35.2
21
10
0
LINE
8
0
10
35.2
20
10
11
35.2
21
9.41483512
0
LINE
8
0
10
35.2
20
9.41483512
11
35.2
21
5.97283532
0
LINE
8
0
10
35.2
20
5.97283532
11
35.2
21
4.9112092
0
LINE
8
0
10
35.2
20
4.9112092
11
35.2
21
3.64948001
0
LINE
8
0
10
35.2
20
3.64948001
11
35.2
21
2.27097234
0
LINE
8
0
10
35.2
20
2.27097234
11
35.2
21
0.931485865
0
LINE
8
0
10
35.2
20
0.931485865
11
35.2
21
-0.17023715
0
LINE
8
0
10
35.2
20
-0.17023715
11
35.2
21
-5.36128661
0
LINE
8
0
10
35.2
20
-5.36128661
11
35.2
21
-6.45021649
0
LINE
8
0
10
35.2
20
-6.45021649
11
35.2
21
-7.69224845
0
LINE
8
0
10
35.2
20
-7.69224845
11
35.2
21
-8.9135256
0
LINE
8
0
10
35.2
20
-8.9135256
11
35.2
21
-9.99007161
0
LINE
8
0
10
35.2
20
-9.99007161
11
35.2
21
-10.8648752
0
LINE
8
0
10
35.2
20
-10.8648752
11
35.2
21
-11.5327034
0
LINE
8
0
10
35.2
20
-11.5327034
11
35.2
21
-11.5327034
0
LINE
8
0
10
72
20
-7.8872649
11
72
21
-8.73138776
0
LINE
8
0
10
72
20
-8.73138776
11
72
21
-9.39292512
0
LINE
8
0
10
72
20
-9.39292512
11
72
21
-9.91592494
0
LINE
8
0
10
72
20
-9.91592494
11
72
21
-10.6663229
0
LINE
8
0
10
72
20
-10.6663229
11
72
21
-11.1533602
0
LINE
8
0
10
72
20
-11.1533602
11
72
21
-11.4732393
0
LINE
8
0
10
72
20
-11.4732393
11
72
21
-11.5314262
0
LINE
8
0
10
72
20
-11.5314262
11
72
21
-13.5
0
LINE
8
0
10
72
20
-13.5
11
71.9750088
21
-13.6898178
0
LINE
8
0
10
71.9750088
20
-13.6898178
11
71.91481
21
-14.14705
0
LINE
8
0
10
71.91481
20
-14.14705
11
71.7383264
21
-14.5731193
0
LINE
8
0
10
71.7383264
20
-14.5731193
11
71.66506
21
-14.75
0
LINE
8
0
10
71.66506
20
-14.75
11
71.3843185
21
-15.1158776
0
LINE
8
0
10
71.3843185
20
-15.1158776
11
71.26777
21
-15.26777
0
LINE
8
0
10
71.26777
20
-15.26777
11
70.9018924
21
-15.5485115
0
LINE
8
0
10
70.9018924
20
-15.5485115
11
70.75
21
-15.66506
0
LINE
8
0
10
70.75
20
-15.66506
11
70.3239307
21
-15.8415436
0
LINE
8
0
10
70.3239307
20
-15.8415436
11
70.14705
21
-15.91481
0
LINE
8
0
10
70.14705
20
-15.91481
11
69.6898178
21
-15.9750088
0
LINE
8
0
10
69.6898178
20
-15.9750088
11
69.5
21
-16
0
LINE
8
0
10
69.5
20
-16
11
61.0534045
21
-16
0
LINE
8
0
10
61.0534045
20
-16
11
58.8
21
-16
0
LINE
8
0
10
58.8
20
-16
11
58.7879599
21
-15.9997519
0
LINE
8
0
10
58.7879599
20
-15.9997519
11
58.73836
21
-15.99873
0
LINE
8
0
10
58.73836
20
-15.99873
11
58.7262206
21
-15.9979808
0
LINE
8
0
10
58.7262206
20
-15.9979808
11
58.67679
21
-15.99493
0
LINE
8
0
10
58.67679
20
-15.99493
11
58.6277428
21
-15.9898705
0
LINE
8
0
10
58.6277428
20
-15.9898705
11
58.5333511
21
-15.9726018
0
LINE
8
0
10
58.5333511
20
-15.9726018
11
58.4513723
21
-15.9566136
0
LINE
8
0
10
58.4513723
20
-15.9566136
11
58.3579445
21
-15.9291073
0
LINE
8
0
10
58.3579445
20
-15.9291073
11
58.0728407
21
-15.8110135
0
LINE
8
0
10
58.0728407
20
-15.8110135
11
57.9800252
21
-15.7457459
0
LINE
8
0
10
57.9800252
20
-15.7457459
11
57.741268
21
-15.5625394
0
LINE
8
0
10
57.741268
20
-15.5625394
11
57.7005422
21
-15.5147532
0
LINE
8
0
10
57.7005422
20
-15.5147532
11
57.519725
21
-15.2791098
0
LINE
8
0
10
57.519725
20
-15.2791098
11
57.4840906
21
-15.2171533
0
LINE
8
0
10
57.4840906
20
-15.2171533
11
57.3720039
21
-14.9465521
0
LINE
8
0
10
57.3720039
20
-14.9465521
11
57.3470296
21
-14.8711511
0
LINE
8
0
10
57.3470296
20
-14.8711511
11
57.3372811
21
-14.783186
0
LINE
8
0
10
57.3372811
20
-14.783186
11
57.3155938
21
-14.6184499
0
LINE
8
0
10
57.3155938
20
-14.6184499
11
57.3098587
21
-14.5748866
0
LINE
8
0
10
57.3098587
20
-14.5748866
11
57.3053851
21
-14.5489509
0
LINE
8
0
10
57.3053851
20
-14.5489509
11
57.3
21
-14.5
0
LINE
8
0
10
57.3
20
-14.5
11
57.3
21
-14.4505433
0
LINE
8
0
10
57.3
20
-14.4505433
11
57.3
21
-14.17729
0
LINE
8
0
10
57.3
20
-14.17729
11
57.3
21
-11.4333955
0
LINE
8
0
10
57.3
20
-11.4333955
11
57.3
21
-11.2332728
0
LINE
8
0
10
57.3
20
-11.2332728
11
57.3
21
-10.9226537
0
LINE
8
0
10
57.3
20
-10.9226537
11
57.3
21
-10.7045568
0
LINE
8
0
10
57.3
20
-10.7045568
11
57.3
21
-10.2753801
0
LINE
8
0
10
57.3
20
-10.2753801
11
57.3
21
-9.68374544
0
LINE
8
0
10
57.3
20
-9.68374544
11
57.3
21
-8.89460509
0
LINE
8
0
10
57.3
20
-8.89460509
11
57.3
21
-7.8773511
0
LINE
8
0
10
57.3
20
-7.8773511
11
57.3
21
-6.62069555
0
LINE
8
0
10
57.3
20
-6.62069555
11
57.3
21
-5.15671405
0
LINE
8
0
10
57.3
20
-5.15671405
11
57.3
21
-3.58798967
0
LINE
8
0
10
57.3
20
-3.58798967
11
57.3
21
-2.09745776
0
LINE
8
0
10
57.3
20
-2.09745776
11
57.3
21
3.48781533
0
LINE
8
0
10
57.3
20
3.48781533
11
57.3
21
4.27830648
0
LINE
8
0
10
57.3
20
4.27830648
11
57.3
21
5.29963363
0
LINE
8
0
10
57.3
20
5.29963363
11
57.3
21
6.40234599
0
LINE
8
0
10
57.3
20
6.40234599
11
57.3
21
7.43975006
0
LINE
8
0
10
57.3
20
7.43975006
11
57.3
21
8.31549039
0
LINE
8
0
10
57.3
20
8.31549039
11
57.3
21
8.99340615
0
LINE
8
0
10
57.3
20
8.99340615
11
57.3
21
10
0
LINE
8
0
10
57.3
20
10
11
60.4828061
21
10
0
LINE
8
0
10
60.4828061
20
10
11
62
21
10
0
LINE
8
0
10
62
20
10
11
62
21
12.8953027
0
LINE
8
0
10
62
20
12.8953027
11
62
21
13.2067247
0
LINE
8
0
10
62
20
13.2067247
11
62
21
13.5348412
0
LINE
8
0
10
62
20
13.5348412
11
62
21
13.8384405
0
LINE
8
0
10
62
20
13.8384405
11
62
21
14.0709031
0
LINE
8
0
10
62
20
14.0709031
11
62
21
19.2760919
0
LINE
8
0
10
62
20
19.2760919
11
62
21
19.5474597
0
LINE
8
0
10
62
20
19.5474597
11
62
21
19.9755624
0
LINE
8
0
10
62
20
19.9755624
11
62
21
20.4888986
0
LINE
8
0
10
62
20
20.4888986
11
62
21
22.1442519
0
LINE
8
0
10
62
20
22.1442519
11
62
21
24.3679824
0
LINE
8
0
10
62
20
24.3679824
11
62.1651837
21
24.6559684
0
LINE
8
0
10
62.1651837
20
24.6559684
11
62.3259357
21
24.9362246
0
LINE
8
0
10
62.3259357
20
24.9362246
11
62.8370158
21
25.827277
0
LINE
8
0
10
62.8370158
20
25.827277
11
63.0672003
21
26.2285919
0
LINE
8
0
10
63.0672003
20
26.2285919
11
63.1285456
21
26.3355408
0
LINE
8
0
10
63.1285456
20
26.3355408
11
63.1575133
21
26.3355626
0
LINE
8
0
10
63.1575133
20
26.3355626
11
72
21
26.3321309
0
LINE
8
0
10
72
20
26.3321309
11
72
21
26.1918468
0
LINE
8
0
10
72
20
26.1918468
11
72
21
23.8550537
0
LINE
8
0
10
72
20
23.8550537
11
72
21
19.6638052
0
LINE
8
0
10
72
20
19.6638052
11
72
21
17.8297829
0
LINE
8
0
10
72
20
17.8297829
11
72
21
16.9804679
0
LINE
8
0
10
72
20
16.9804679
11
72
21
16.8027716
0
LINE
8
0
10
72
20
16.8027716
11
65.5316213
21
16.8073062
0
LINE
8
0
10
65.5316213
20
16.8073062
11
64.2
21
16.8053777
0
LINE
8
0
10
64.2
20
16.8053777
11
64.2
21
16.3596271
0
LINE
8
0
10
64.2
20
16.3596271
11
64.2
21
16.313263
0
LINE
8
0
10
64.2
20
16.313263
11
64.2
21
15.8876243
0
LINE
8
0
10
64.2
20
15.8876243
11
64.2
21
15.458685
0
LINE
8
0
10
64.2
20
15.458685
11
64.2
21
15.4138575
0
LINE
8
0
10
64.2
20
15.4138575
11
64.2
21
15.000436
0
LINE
8
0
10
64.2
20
15.000436
11
71.8388955
21
14.9765615
0
LINE
8
0
10
71.8388955
20
14.9765615
11
72
21
14.9770061
0
LINE
8
0
10
72
20
14.9770061
11
72
21
13.6098085
0
LINE
8
0
10
72
20
13.6098085
11
72
21
11.663815
0
LINE
8
0
10
72
20
11.663815
11
72
21
11.6637311
0
LINE
8
0
10
72
20
11.6637311
11
71.999335
21
11.6445471
0
LINE
8
0
10
71.999335
20
11.6445471
11
71.9750343
21
11.2559471
0
LINE
8
0
10
71.9750343
20
11.2559471
11
71.9461159
21
10.5395422
0
LINE
8
0
10
71.9461159
20
10.5395422
11
71.9001092
21
10.045371
0
LINE
8
0
10
71.9001092
20
10.045371
11
71.8977284
21
10.0298972
0
LINE
8
0
10
71.8977284
20
10.0298972
11
71.8272406
21
9.52290923
0
LINE
8
0
10
71.8272406
20
9.52290923
11
71.7696608
21
9.10707962
0
LINE
8
0
10
71.7696608
20
9.10707962
11
71.7544623
21
9.03155757
0
LINE
8
0
10
71.7544623
20
9.03155757
11
71.7387467
21
8.95314063
0
LINE
8
0
10
71.7387467
20
8.95314063
11
71.6625548
21
8.51754271
0
LINE
8
0
10
71.6625548
20
8.51754271
11
71.5841887
21
8.06613735
0
LINE
8
0
10
71.5841887
20
8.06613735
11
71.5743436
21
8.02410648
0
LINE
8
0
10
71.5743436
20
8.02410648
11
71.5661526
21
7.98886757
0
LINE
8
0
10
71.5661526
20
7.98886757
11
71.4706827
21
7.504947
0
LINE
8
0
10
71.4706827
20
7.504947
11
71.3937719
21
7.11050764
0
LINE
8
0
10
71.3937719
20
7.11050764
11
71.3764705
21
7.00151752
0
LINE
8
0
10
71.3764705
20
7.00151752
11
71.348402
21
6.82168394
0
LINE
8
0
10
71.348402
20
6.82168394
11
71.2790787
21
6.48219557
0
LINE
8
0
10
71.2790787
20
6.48219557
11
71.2421069
21
6.29805643
0
LINE
8
0
10
71.2421069
20
6.29805643
11
71.1892013
21
5.95482463
0
LINE
8
0
10
71.1892013
20
5.95482463
11
71.1261464
21
5.53548085
0
LINE
8
0
10
71.1261464
20
5.53548085
11
71.1147447
21
5.42533748
0
LINE
8
0
10
71.1147447
20
5.42533748
11
71.0812481
21
5.08880298
0
LINE
8
0
10
71.0812481
20
5.08880298
11
71.0531289
21
4.87464341
0
LINE
8
0
10
71.0531289
20
4.87464341
11
71.0449446
21
4.80990708
0
LINE
8
0
10
71.0449446
20
4.80990708
11
71.0097606
21
4.28937129
0
LINE
8
0
10
71.0097606
20
4.28937129
11
70.9985718
21
4.11078455
0
LINE
8
0
10
70.9985718
20
4.11078455
11
70.9970048
21
3.66755222
0
LINE
8
0
10
70.9970048
20
3.66755222
11
70.9973085
21
3.4289507
0
LINE
8
0
10
70.9973085
20
3.4289507
11
71.0237381
21
2.98484981
0
LINE
8
0
10
71.0237381
20
2.98484981
11
71.0384068
21
2.75568984
0
LINE
8
0
10
71.0384068
20
2.75568984
11
71.1057158
21
2.20039072
0
LINE
8
0
10
71.1057158
20
2.20039072
11
71.1204438
21
2.08282059
0
LINE
8
0
10
71.1204438
20
2.08282059
11
71.177661
21
1.76780996
0
LINE
8
0
10
71.177661
20
1.76780996
11
71.2326658
21
1.40244151
0
LINE
8
0
10
71.2326658
20
1.40244151
11
71.2772716
21
1.17355788
0
LINE
8
0
10
71.2772716
20
1.17355788
11
71.3693639
21
0.706389788
0
LINE
8
0
10
71.3693639
20
0.706389788
11
71.4702295
21
0.285874421
0
LINE
8
0
10
71.4702295
20
0.285874421
11
71.5273568
21
-0.0147726575
0
LINE
8
0
10
71.5273568
20
-0.0147726575
11
71.6807002
21
-0.705115555
0
LINE
8
0
10
71.6807002
20
-0.705115555
11
71.6918577
21
-0.771750026
0
LINE
8
0
10
71.6918577
20
-0.771750026
11
71.8300875
21
-1.49689208
0
LINE
8
0
10
71.8300875
20
-1.49689208
11
71.8406597
21
-1.57684302
0
LINE
8
0
10
71.8406597
20
-1.57684302
11
71.9284561
21
-2.17140699
0
LINE
8
0
10
71.9284561
20
-2.17140699
11
71.9520587
21
-2.44491202
0
LINE
8
0
10
71.9520587
20
-2.44491202
11
71.9830512
21
-2.77183926
0
LINE
8
0
10
71.9830512
20
-2.77183926
11
71.9967841
21
-3.21368413
0
LINE
8
0
10
71.9967841
20
-3.21368413
11
72
21
-3.31653208
0
LINE
8
0
10
72
20
-3.31653208
11
72
21
-3.48771238
0
LINE
8
0
10
72
20
-3.48771238
11
72
21
-5.37449423
0
LINE
8
0
10
72
20
-5.37449423
11
72
21
-6.79815358
0
LINE
8
0
10
72
20
-6.79815358
11
72
21
-7.8872649
0
LINE
8
0
10
72
20
-7.8872649
11
72
21
-7.8872649
0
ENDSEC
0
EOF
