0
SECTION
2
ENTITIES
0
LINE
8
0
10
16
20
43.9450249
11
16
21
44.234372
0
LINE
8
0
10
16
20
44.234372
11
16
21
45.2
0
LINE
8
0
10
16
20
45.2
11
16
21
46.7372671
0
LINE
8
0
10
16
20
46.7372671
11
16
21
50.2
0
LINE
8
0
10
16
20
50.2
11
12.6918454
21
50.2
0
LINE
8
0
10
12.6918454
20
50.2
11
12.359456
21
50.2
0
LINE
8
0
10
12.359456
20
50.2
11
12.026097
21
50.2
0
LINE
8
0
10
12.026097
20
50.2
11
11.8035675
21
50.2
0
LINE
8
0
10
11.8035675
20
50.2
11
11.6971825
21
50.2
0
LINE
8
0
10
11.6971825
20
50.2
11
11.6971825
21
48.7447133
0
LINE
8
0
10
11.6971825
20
48.7447133
11
11.6971825
21
46.2
0
LINE
8
0
10
11.6971825
20
46.2
11
11.6971825
21
44.7447133
0
LINE
8
0
10
11.6971825
20
44.7447133
11
11.6971825
21
42.2
0
LINE
8
0
10
11.6971825
20
42.2
11
11.6971825
21
40.7447133
0
LINE
8
0
10
11.6971825
20
40.7447133
11
11.6971825
21
38.2
0
LINE
8
0
10
11.6971825
20
38.2
11
11.64952
21
38.2
0
LINE
8
0
10
11.64952
20
38.2
11
11.6343699
21
38.2
0
LINE
8
0
10
11.6343699
20
38.2
11
11.53033
21
38.2
0
LINE
8
0
10
11.53033
20
38.2
11
11.4947304
21
38.2
0
LINE
8
0
10
11.4947304
20
38.2
11
11.375
21
38.2
0
LINE
8
0
10
11.375
20
38.2
11
11.3237077
21
38.2
0
LINE
8
0
10
11.3237077
20
38.2
11
11.19411
21
38.2
0
LINE
8
0
10
11.19411
20
38.2
11
11.1329561
21
38.2
0
LINE
8
0
10
11.1329561
20
38.2
11
11
21
38.2
0
LINE
8
0
10
11
20
38.2
11
10.9354818
21
38.2
0
LINE
8
0
10
10.9354818
20
38.2
11
10.80589
21
38.2
0
LINE
8
0
10
10.80589
20
38.2
11
10.7447333
21
38.2
0
LINE
8
0
10
10.7447333
20
38.2
11
10.625
21
38.2
0
LINE
8
0
10
10.625
20
38.2
11
10.5737089
21
38.2
0
LINE
8
0
10
10.5737089
20
38.2
11
10.46967
21
38.2
0
LINE
8
0
10
10.46967
20
38.2
11
10.4340701
21
38.2
0
LINE
8
0
10
10.4340701
20
38.2
11
10.35048
21
38.2
0
LINE
8
0
10
10.35048
20
38.2
11
10.3353311
21
38.2
0
LINE
8
0
10
10.3353311
20
38.2
11
10.3028175
21
38.2
0
LINE
8
0
10
10.3028175
20
38.2
11
10.3028175
21
39.6552867
0
LINE
8
0
10
10.3028175
20
39.6552867
11
10.3028175
21
42.2
0
LINE
8
0
10
10.3028175
20
42.2
11
10.3028175
21
43.6552867
0
LINE
8
0
10
10.3028175
20
43.6552867
11
10.3028175
21
46.2
0
LINE
8
0
10
10.3028175
20
46.2
11
10.3028175
21
47.6552867
0
LINE
8
0
10
10.3028175
20
47.6552867
11
10.3028175
21
50.2
0
LINE
8
0
10
10.3028175
20
50.2
11
10.0338824
21
50.2
0
LINE
8
0
10
10.0338824
20
50.2
11
9.40245116
21
50.2
0
LINE
8
0
10
9.40245116
20
50.2
11
8.93376188
21
50.2
0
LINE
8
0
10
8.93376188
20
50.2
11
4.4
21
50.2
0
LINE
8
0
10
4.4
20
50.2
11
4.24216853
21
50.1792206
0
LINE
8
0
10
4.24216853
20
50.1792206
11
3.882362
21
50.13185
0
LINE
8
0
10
3.882362
20
50.13185
11
3.73528643
21
50.0709296
0
LINE
8
0
10
3.73528643
20
50.0709296
11
3.4
21
49.93205
0
LINE
8
0
10
3.4
20
49.93205
11
3.27370324
21
49.8351383
0
LINE
8
0
10
3.27370324
20
49.8351383
11
2.985786
21
49.61421
0
LINE
8
0
10
2.985786
20
49.61421
11
2.88887526
21
49.4879145
0
LINE
8
0
10
2.88887526
20
49.4879145
11
2.667949
21
49.2
0
LINE
8
0
10
2.667949
20
49.2
11
2.60702827
21
49.052925
0
LINE
8
0
10
2.60702827
20
49.052925
11
2.468148
21
48.71764
0
LINE
8
0
10
2.468148
20
48.71764
11
2.4473692
21
48.5598079
0
LINE
8
0
10
2.4473692
20
48.5598079
11
2.4
21
48.2
0
LINE
8
0
10
2.4
20
48.2
11
2.4
21
47.2852789
0
LINE
8
0
10
2.4
20
47.2852789
11
2.4
21
44.1620399
0
LINE
8
0
10
2.4
20
44.1620399
11
2.4
21
43.6041156
0
LINE
8
0
10
2.4
20
43.6041156
11
2.4
21
43.5265524
0
LINE
8
0
10
2.4
20
43.5265524
11
2.4
21
43.4483601
0
LINE
8
0
10
2.4
20
43.4483601
11
2.4
21
42.9155037
0
LINE
8
0
10
2.4
20
42.9155037
11
2.4
21
42.8353401
0
LINE
8
0
10
2.4
20
42.8353401
11
2.4
21
41.5200019
0
LINE
8
0
10
2.4
20
41.5200019
11
2.4
21
41.0164777
0
LINE
8
0
10
2.4
20
41.0164777
11
2.4
21
40.5990094
0
LINE
8
0
10
2.4
20
40.5990094
11
2.4
21
40.2846331
0
LINE
8
0
10
2.4
20
40.2846331
11
2.4
21
36.793606
0
LINE
8
0
10
2.4
20
36.793606
11
2.4
21
36.4716514
0
LINE
8
0
10
2.4
20
36.4716514
11
2.4
21
36.2412726
0
LINE
8
0
10
2.4
20
36.2412726
11
2.4
21
33.1127511
0
LINE
8
0
10
2.4
20
33.1127511
11
2.4
21
28.6237223
0
LINE
8
0
10
2.4
20
28.6237223
11
2.4
21
24.9025646
0
LINE
8
0
10
2.4
20
24.9025646
11
2.4
21
17.7557278
0
LINE
8
0
10
2.4
20
17.7557278
11
12.9293377
21
17.7557332
0
LINE
8
0
10
12.9293377
20
17.7557332
11
13.8
21
17.7557332
0
LINE
8
0
10
13.8
20
17.7557332
11
14.1621261
21
17.7834143
0
LINE
8
0
10
14.1621261
20
17.7834143
11
14.19207
21
17.7857032
0
LINE
8
0
10
14.19207
20
17.7857032
11
14.5507048
21
17.8684601
0
LINE
8
0
10
14.5507048
20
17.8684601
11
14.58036
21
17.875304
0
LINE
8
0
10
14.58036
20
17.875304
11
14.9320584
21
18.0123609
0
LINE
8
0
10
14.9320584
20
18.0123609
11
14.96114
21
18.0236932
0
LINE
8
0
10
14.96114
20
18.0236932
11
15.302503
21
18.2137108
0
LINE
8
0
10
15.302503
20
18.2137108
11
15.33073
21
18.2294232
0
LINE
8
0
10
15.33073
20
18.2294232
11
15.658488
21
18.470582
0
LINE
8
0
10
15.658488
20
18.470582
11
15.68559
21
18.490524
0
LINE
8
0
10
15.68559
20
18.490524
11
15.9965657
21
18.7805056
0
LINE
8
0
10
15.9965657
20
18.7805056
11
16.02228
21
18.8044832
0
LINE
8
0
10
16.02228
20
18.8044832
11
16.3134901
21
19.1404799
0
LINE
8
0
10
16.3134901
20
19.1404799
11
16.33757
21
19.168264
0
LINE
8
0
10
16.33757
20
19.168264
11
16.6062159
21
19.5470615
0
LINE
8
0
10
16.6062159
20
19.5470615
11
16.62843
21
19.5783832
0
LINE
8
0
10
16.62843
20
19.5783832
11
17.0878878
21
20.4493534
0
LINE
8
0
10
17.0878878
20
20.4493534
11
17.12588
21
20.5213732
0
LINE
8
0
10
17.12588
20
20.5213732
11
17.4672892
21
21.5150656
0
LINE
8
0
10
17.4672892
20
21.5150656
11
17.49552
21
21.5972332
0
LINE
8
0
10
17.49552
20
21.5972332
11
17.7057558
21
22.6754466
0
LINE
8
0
10
17.7057558
20
22.6754466
11
17.72314
21
22.7646032
0
LINE
8
0
10
17.72314
20
22.7646032
11
17.7941299
21
23.885913
0
LINE
8
0
10
17.7941299
20
23.885913
11
17.8
21
23.9786332
0
LINE
8
0
10
17.8
20
23.9786332
11
17.8
21
26.4201188
0
LINE
8
0
10
17.8
20
26.4201188
11
17.8
21
26.724941
0
LINE
8
0
10
17.8
20
26.724941
11
17.8
21
26.9823774
0
LINE
8
0
10
17.8
20
26.9823774
11
17.8
21
27.3955616
0
LINE
8
0
10
17.8
20
27.3955616
11
17.8
21
28.0972365
0
LINE
8
0
10
17.8
20
28.0972365
11
17.8
21
29.4085429
0
LINE
8
0
10
17.8
20
29.4085429
11
17.8
21
32.3265816
0
LINE
8
0
10
17.8
20
32.3265816
11
17.8
21
39.3349275
0
LINE
8
0
10
17.8
20
39.3349275
11
17.8
21
39.8513105
0
LINE
8
0
10
17.8
20
39.8513105
11
16.2037865
21
39.8513105
0
LINE
8
0
10
16.2037865
20
39.8513105
11
16
21
39.8513105
0
LINE
8
0
10
16
20
39.8513105
11
16
21
40.0080758
0
LINE
8
0
10
16
20
40.0080758
11
16
21
40.027591
0
LINE
8
0
10
16
20
40.027591
11
16
21
41.3706591
0
LINE
8
0
10
16
20
41.3706591
11
16
21
41.5236606
0
LINE
8
0
10
16
20
41.5236606
11
16
21
42.6747142
0
LINE
8
0
10
16
20
42.6747142
11
16
21
42.9176729
0
LINE
8
0
10
16
20
42.9176729
11
16
21
43.9450249
0
LINE
8
0
10
16
20
43.9450249
11
16
21
43.9450249
0
LINE
8
0
10
35.2
20
-7.32409893
11
35.2
21
-8.62279204
0
LINE
8
0
10
35.2
20
-8.62279204
11
35.2
21
-9.76757958
0
LINE
8
0
10
35.2
20
-9.76757958
11
35.2
21
-10.6978364
0
LINE
8
0
10
35.2
20
-10.6978364
11
35.2
21
-11.4079977
0
LINE
8
0
10
35.2
20
-11.4079977
11
35.2
21
-11.9222437
0
LINE
8
0
10
35.2
20
-11.9222437
11
35.2
21
-12.274993
0
LINE
8
0
10
35.2
20
-12.274993
11
35.2
21
-12.5001236
0
LINE
8
0
10
35.2
20
-12.5001236
11
35.2
21
-12.626527
0
LINE
8
0
10
35.2
20
-12.626527
11
35.2
21
-13.5
0
LINE
8
0
10
35.2
20
-13.5
11
35.1898429
21
-13.7067186
0
LINE
8
0
10
35.1898429
20
-13.7067186
11
35.1498192
21
-13.9546503
0
LINE
8
0
10
35.1498192
20
-13.9546503
11
35.1325038
21
-14.0711689
0
LINE
8
0
10
35.1325038
20
-14.0711689
11
35.0656864
21
-14.291771
0
LINE
8
0
10
35.0656864
20
-14.291771
11
34.9326581
21
-14.6129296
0
LINE
8
0
10
34.9326581
20
-14.6129296
11
34.8258779
21
-14.8130116
0
LINE
8
0
10
34.8258779
20
-14.8130116
11
34.6087785
21
-15.0959473
0
LINE
8
0
10
34.6087785
20
-15.0959473
11
34.46777
21
-15.26777
0
LINE
8
0
10
34.46777
20
-15.26777
11
34.3098719
21
-15.3973512
0
LINE
8
0
10
34.3098719
20
-15.3973512
11
34.0079051
21
-15.6290532
0
LINE
8
0
10
34.0079051
20
-15.6290532
11
33.8336664
21
-15.7224315
0
LINE
8
0
10
33.8336664
20
-15.7224315
11
33.4698768
21
-15.8731181
0
LINE
8
0
10
33.4698768
20
-15.8731181
11
33.2870044
21
-15.9288113
0
LINE
8
0
10
33.2870044
20
-15.9288113
11
33.1151996
21
-15.9453352
0
LINE
8
0
10
33.1151996
20
-15.9453352
11
32.9075998
21
-15.9726676
0
LINE
8
0
10
32.9075998
20
-15.9726676
11
32.8060641
21
-15.989553
0
LINE
8
0
10
32.8060641
20
-15.989553
11
32.7
21
-16
0
LINE
8
0
10
32.7
20
-16
11
30.9609043
21
-16
0
LINE
8
0
10
30.9609043
20
-16
11
30.7
21
-16
0
LINE
8
0
10
30.7
20
-16
11
30.2748102
21
-15.95812
0
LINE
8
0
10
30.2748102
20
-15.95812
11
30.1705462
21
-15.9422309
0
LINE
8
0
10
30.1705462
20
-15.9422309
11
29.8146793
21
-15.8339322
0
LINE
8
0
10
29.8146793
20
-15.8339322
11
29.6756747
21
-15.7763546
0
LINE
8
0
10
29.6756747
20
-15.7763546
11
29.3387447
21
-15.5958788
0
LINE
8
0
10
29.3387447
20
-15.5958788
11
29.2356056
21
-15.5167392
0
LINE
8
0
10
29.2356056
20
-15.5167392
11
28.93223
21
-15.26777
0
LINE
8
0
10
28.93223
20
-15.26777
11
28.6659522
21
-14.9433033
0
LINE
8
0
10
28.6659522
20
-14.9433033
11
28.6089308
21
-14.86899
0
LINE
8
0
10
28.6089308
20
-14.86899
11
28.4081061
21
-14.492816
0
LINE
8
0
10
28.4081061
20
-14.492816
11
28.3773603
21
-14.4185888
0
LINE
8
0
10
28.3773603
20
-14.4185888
11
28.252128
21
-14.0052618
0
LINE
8
0
10
28.252128
20
-14.0052618
11
28.2198431
21
-13.7879236
0
LINE
8
0
10
28.2198431
20
-13.7879236
11
28.21204
21
-13.74504
0
LINE
8
0
10
28.21204
20
-13.74504
11
28.200635
21
-13.5129227
0
LINE
8
0
10
28.200635
20
-13.5129227
11
28.2
21
-13.5
0
LINE
8
0
10
28.2
20
-13.5
11
28.2
21
-13.2044851
0
LINE
8
0
10
28.2
20
-13.2044851
11
28.2
21
-13.1504419
0
LINE
8
0
10
28.2
20
-13.1504419
11
28.2
21
-13.0537767
0
LINE
8
0
10
28.2
20
-13.0537767
11
28.2
21
-12.8949589
0
LINE
8
0
10
28.2
20
-12.8949589
11
28.2
21
-12.6447014
0
LINE
8
0
10
28.2
20
-12.6447014
11
28.2
21
-12.2606267
0
LINE
8
0
10
28.2
20
-12.2606267
11
28.2
21
-11.6870945
0
LINE
8
0
10
28.2
20
-11.6870945
11
28.2
21
-10.8689397
0
LINE
8
0
10
28.2
20
-10.8689397
11
28.2
21
-9.80135015
0
LINE
8
0
10
28.2
20
-9.80135015
11
28.2
21
-8.62640321
0
LINE
8
0
10
28.2
20
-8.62640321
11
28.2
21
-7.68181907
0
LINE
8
0
10
28.2
20
-7.68181907
11
28.2
21
2.86243981
0
LINE
8
0
10
28.2
20
2.86243981
11
28.2
21
3.83794449
0
LINE
8
0
10
28.2
20
3.83794449
11
28.2
21
5.19567351
0
LINE
8
0
10
28.2
20
5.19567351
11
28.2
21
6.50649531
0
LINE
8
0
10
28.2
20
6.50649531
11
28.2
21
7.55457401
0
LINE
8
0
10
28.2
20
7.55457401
11
28.2
21
8.31591591
0
LINE
8
0
10
28.2
20
8.31591591
11
28.2
21
10.0578143
0
LINE
8
0
10
28.2
20
10.0578143
11
28.2
21
11.784959
0
LINE
8
0
10
28.2
20
11.784959
11
28.2
21
12.0359957
0
LINE
8
0
10
28.2
20
12.0359957
11
28.2
21
14.465787
0
LINE
8
0
10
28.2
20
14.465787
11
28.2
21
15
0
LINE
8
0
10
28.2
20
15
11
30.1236261
21
15
0
LINE
8
0
10
30.1236261
20
15
11
30.2
21
15
0
LINE
8
0
10
30.2
20
15
11
30.2
21
12.7506674
0
LINE
8
0
10
30.2
20
12.7506674
11
30.2
21
12.65094
0
LINE
8
0
10
30.2
20
12.65094
11
30.2
21
12.4034952
0
LINE
8
0
10
30.2
20
12.4034952
11
30.2
21
12.39302
0
LINE
8
0
10
30.2
20
12.39302
11
30.2
21
12.1465182
0
LINE
8
0
10
30.2
20
12.1465182
11
30.2
21
12.13557
0
LINE
8
0
10
30.2
20
12.13557
11
30.2
21
11.9073771
0
LINE
8
0
10
30.2
20
11.9073771
11
30.2
21
11.89597
0
LINE
8
0
10
30.2
20
11.89597
11
30.2
21
11.7018081
0
LINE
8
0
10
30.2
20
11.7018081
11
30.2
21
11.69043
0
LINE
8
0
10
30.2
20
11.69043
11
30.2
21
11.543058
0
LINE
8
0
10
30.2
20
11.543058
11
30.2
21
11.53281
0
LINE
8
0
10
30.2
20
11.53281
11
30.2
21
10.2671867
0
LINE
8
0
10
30.2
20
10.2671867
11
30.2
21
10
0
LINE
8
0
10
30.2
20
10
11
34.4201134
21
10
0
LINE
8
0
10
34.4201134
20
10
11
35.2
21
10
0
LINE
8
0
10
35.2
20
10
11
35.2
21
9.3777419
0
LINE
8
0
10
35.2
20
9.3777419
11
35.2
21
5.71755602
0
LINE
8
0
10
35.2
20
5.71755602
11
35.2
21
4.58863413
0
LINE
8
0
10
35.2
20
4.58863413
11
35.2
21
3.24692476
0
LINE
8
0
10
35.2
20
3.24692476
11
35.2
21
1.7810344
0
LINE
8
0
10
35.2
20
1.7810344
11
35.2
21
0.356638771
0
LINE
8
0
10
35.2
20
0.356638771
11
35.2
21
-0.814921735
0
LINE
8
0
10
35.2
20
-0.814921735
11
35.2
21
-4.84537896
0
LINE
8
0
10
35.2
20
-4.84537896
11
35.2
21
-6.00333539
0
LINE
8
0
10
35.2
20
-6.00333539
11
35.2
21
-7.32409893
0
LINE
8
0
10
35.2
20
-7.32409893
11
35.2
21
-7.32409893
0
LINE
8
0
10
72
20
-7.53147734
11
72
21
-8.4291086
0
LINE
8
0
10
72
20
-8.4291086
11
72
21
-9.13258036
0
LINE
8
0
10
72
20
-9.13258036
11
72
21
-9.6887328
0
LINE
8
0
10
72
20
-9.6887328
11
72
21
-10.486698
0
LINE
8
0
10
72
20
-10.486698
11
72
21
-11.0046083
0
LINE
8
0
10
72
20
-11.0046083
11
72
21
-11.3447642
0
LINE
8
0
10
72
20
-11.3447642
11
72
21
-11.4066396
0
LINE
8
0
10
72
20
-11.4066396
11
72
21
-13.5
0
LINE
8
0
10
72
20
-13.5
11
71.9734246
21
-13.7018502
0
LINE
8
0
10
71.9734246
20
-13.7018502
11
71.91481
21
-14.14705
0
LINE
8
0
10
71.91481
20
-14.14705
11
71.7429707
21
-14.561907
0
LINE
8
0
10
71.7429707
20
-14.561907
11
71.66506
21
-14.75
0
LINE
8
0
10
71.66506
20
-14.75
11
71.3917065
21
-15.1062492
0
LINE
8
0
10
71.3917065
20
-15.1062492
11
71.26777
21
-15.26777
0
LINE
8
0
10
71.26777
20
-15.26777
11
70.9115208
21
-15.5411235
0
LINE
8
0
10
70.9115208
20
-15.5411235
11
70.75
21
-15.66506
0
LINE
8
0
10
70.75
20
-15.66506
11
70.335143
21
-15.8368993
0
LINE
8
0
10
70.335143
20
-15.8368993
11
70.14705
21
-15.91481
0
LINE
8
0
10
70.14705
20
-15.91481
11
69.7018502
21
-15.9734246
0
LINE
8
0
10
69.7018502
20
-15.9734246
11
69.5
21
-16
0
LINE
8
0
10
69.5
20
-16
11
61.1454399
21
-16
0
LINE
8
0
10
61.1454399
20
-16
11
58.8
21
-16
0
LINE
8
0
10
58.8
20
-16
11
58.7874681
21
-15.9997418
0
LINE
8
0
10
58.7874681
20
-15.9997418
11
58.73836
21
-15.99873
0
LINE
8
0
10
58.73836
20
-15.99873
11
58.7257324
21
-15.9979506
0
LINE
8
0
10
58.7257324
20
-15.9979506
11
58.67679
21
-15.99493
0
LINE
8
0
10
58.67679
20
-15.99493
11
58.6282272
21
-15.9899204
0
LINE
8
0
10
58.6282272
20
-15.9899204
11
58.5301516
21
-15.9719778
0
LINE
8
0
10
58.5301516
20
-15.9719778
11
58.4449733
21
-15.9553656
0
LINE
8
0
10
58.4449733
20
-15.9553656
11
58.3666417
21
-15.9323038
0
LINE
8
0
10
58.3666417
20
-15.9323038
11
58.0691501
21
-15.8090788
0
LINE
8
0
10
58.0691501
20
-15.8090788
11
57.9913319
21
-15.7543573
0
LINE
8
0
10
57.9913319
20
-15.7543573
11
57.7409565
21
-15.5622357
0
LINE
8
0
10
57.7409565
20
-15.5622357
11
57.7068112
21
-15.5221709
0
LINE
8
0
10
57.7068112
20
-15.5221709
11
57.5166929
21
-15.2744062
0
LINE
8
0
10
57.5166929
20
-15.2744062
11
57.4868164
21
-15.2224608
0
LINE
8
0
10
57.4868164
20
-15.2224608
11
57.3686279
21
-14.9371283
0
LINE
8
0
10
57.3686279
20
-14.9371283
11
57.3476889
21
-14.8739107
0
LINE
8
0
10
57.3476889
20
-14.8739107
11
57.3395156
21
-14.8001592
0
LINE
8
0
10
57.3395156
20
-14.8001592
11
57.3165284
21
-14.6255493
0
LINE
8
0
10
57.3165284
20
-14.6255493
11
57.3104496
21
-14.579375
0
LINE
8
0
10
57.3104496
20
-14.579375
11
57.3057079
21
-14.5518849
0
LINE
8
0
10
57.3057079
20
-14.5518849
11
57.3
21
-14.5
0
LINE
8
0
10
57.3
20
-14.5
11
57.3
21
-14.4475791
0
LINE
8
0
10
57.3
20
-14.4475791
11
57.3
21
-14.17729
0
LINE
8
0
10
57.3
20
-14.17729
11
57.3
21
-11.2638372
0
LINE
8
0
10
57.3
20
-11.2638372
11
57.3
21
-11.0689809
0
LINE
8
0
10
57.3
20
-11.0689809
11
57.3
21
-10.7387987
0
LINE
8
0
10
57.3
20
-10.7387987
11
57.3
21
-10.5273555
0
LINE
8
0
10
57.3
20
-10.5273555
11
57.3
21
-10.0709736
0
LINE
8
0
10
57.3
20
-10.0709736
11
57.3
21
-9.44183559
0
LINE
8
0
10
57.3
20
-9.44183559
11
57.3
21
-8.60267216
0
LINE
8
0
10
57.3
20
-8.60267216
11
57.3
21
-7.52093511
0
LINE
8
0
10
57.3
20
-7.52093511
11
57.3
21
-6.18462101
0
LINE
8
0
10
57.3
20
-6.18462101
11
57.3
21
-4.62783869
0
LINE
8
0
10
57.3
20
-4.62783869
11
57.3
21
-2.95967391
0
LINE
8
0
10
57.3
20
-2.95967391
11
57.3
21
-1.37465817
0
LINE
8
0
10
57.3
20
-1.37465817
11
57.3
21
3.07501227
0
LINE
8
0
10
57.3
20
3.07501227
11
57.3
21
3.91561213
0
LINE
8
0
10
57.3
20
3.91561213
11
57.3
21
5.00168052
0
LINE
8
0
10
57.3
20
5.00168052
11
57.3
21
6.17429309
0
LINE
8
0
10
57.3
20
6.17429309
11
57.3
21
7.27745752
0
LINE
8
0
10
57.3
20
7.27745752
11
57.3
21
8.20871045
0
LINE
8
0
10
57.3
20
8.20871045
11
57.3
21
8.92959883
0
LINE
8
0
10
57.3
20
8.92959883
11
57.3
21
10
0
LINE
8
0
10
57.3
20
10
11
60.684562
21
10
0
LINE
8
0
10
60.684562
20
10
11
62
21
10
0
LINE
8
0
10
62
20
10
11
62
21
12.5102863
0
LINE
8
0
10
62
20
12.5102863
11
62
21
12.7802955
0
LINE
8
0
10
62
20
12.7802955
11
62
21
13.0647791
0
LINE
8
0
10
62
20
13.0647791
11
62
21
13.3280059
0
LINE
8
0
10
62
20
13.3280059
11
62
21
13.5295557
0
LINE
8
0
10
62
20
13.5295557
11
62
21
20.2811959
0
LINE
8
0
10
62
20
20.2811959
11
62
21
20.5164773
0
LINE
8
0
10
62
20
20.5164773
11
62
21
20.8876511
0
LINE
8
0
10
62
20
20.8876511
11
62
21
21.332724
0
LINE
8
0
10
62
20
21.332724
11
62
21
22.7679489
0
LINE
8
0
10
62
20
22.7679489
11
62
21
24.6959685
0
LINE
8
0
10
62
20
24.6959685
11
62.1432176
21
24.9456582
0
LINE
8
0
10
62.1432176
20
24.9456582
11
62.3141596
21
25.2436797
0
LINE
8
0
10
62.3141596
20
25.2436797
11
62.8576368
21
26.1912153
0
LINE
8
0
10
62.8576368
20
26.1912153
11
63.0288674
21
26.4897472
0
LINE
8
0
10
63.0288674
20
26.4897472
11
63.0745012
21
26.5693049
0
LINE
8
0
10
63.0745012
20
26.5693049
11
65.6107258
21
26.5712149
0
LINE
8
0
10
65.6107258
20
26.5712149
11
72
21
26.5687353
0
LINE
8
0
10
72
20
26.5687353
11
72
21
25.4661158
0
LINE
8
0
10
72
20
25.4661158
11
72
21
23.431083
0
LINE
8
0
10
72
20
23.431083
11
72
21
19.7810689
0
LINE
8
0
10
72
20
19.7810689
11
72
21
18.183882
0
LINE
8
0
10
72
20
18.183882
11
72
21
17.4442428
0
LINE
8
0
10
72
20
17.4442428
11
72
21
16.6283087
0
LINE
8
0
10
72
20
16.6283087
11
72
21
15.9473608
0
LINE
8
0
10
72
20
15.9473608
11
72
21
15.9400202
0
LINE
8
0
10
72
20
15.9400202
11
72
21
15.4727017
0
LINE
8
0
10
72
20
15.4727017
11
72
21
11.8983345
0
LINE
8
0
10
72
20
11.8983345
11
72
21
11.8981561
0
LINE
8
0
10
72
20
11.8981561
11
71.9985859
21
11.8573635
0
LINE
8
0
10
71.9985859
20
11.8573635
11
71.9469132
21
11.0310494
0
LINE
8
0
10
71.9469132
20
11.0310494
11
71.9302819
21
10.6190383
0
LINE
8
0
10
71.9302819
20
10.6190383
11
71.9038231
21
10.3348359
0
LINE
8
0
10
71.9038231
20
10.3348359
11
71.8272671
21
9.83726982
0
LINE
8
0
10
71.8272671
20
9.83726982
11
71.79529
21
9.60727252
0
LINE
8
0
10
71.79529
20
9.60727252
11
71.7691686
21
9.41862962
0
LINE
8
0
10
71.7691686
20
9.41862962
11
71.7069892
21
9.10965731
0
LINE
8
0
10
71.7069892
20
9.10965731
11
71.6426943
21
8.78884158
0
LINE
8
0
10
71.6426943
20
8.78884158
11
71.6129931
21
8.61903642
0
LINE
8
0
10
71.6129931
20
8.61903642
11
71.5824444
21
8.44306919
0
LINE
8
0
10
71.5824444
20
8.44306919
11
71.5068728
21
8.12043835
0
LINE
8
0
10
71.5068728
20
8.12043835
11
71.443998
21
7.84994289
0
LINE
8
0
10
71.443998
20
7.84994289
11
71.3998256
21
7.62604004
0
LINE
8
0
10
71.3998256
20
7.62604004
11
71.3427922
21
7.33354296
0
LINE
8
0
10
71.3427922
20
7.33354296
11
71.2916825
21
7.13185414
0
LINE
8
0
10
71.2916825
20
7.13185414
11
71.2573271
21
6.99470006
0
LINE
8
0
10
71.2573271
20
6.99470006
11
71.1821569
21
6.62657795
0
LINE
8
0
10
71.1821569
20
6.62657795
11
71.0972348
21
6.20362174
0
LINE
8
0
10
71.0972348
20
6.20362174
11
71.0857666
21
6.12922027
0
LINE
8
0
10
71.0857666
20
6.12922027
11
71.0615758
21
5.9683409
0
LINE
8
0
10
71.0615758
20
5.9683409
11
70.9923669
21
5.61221758
0
LINE
8
0
10
70.9923669
20
5.61221758
11
70.9637007
21
5.4611097
0
LINE
8
0
10
70.9637007
20
5.4611097
11
70.913861
21
5.08152335
0
LINE
8
0
10
70.913861
20
5.08152335
11
70.8725341
21
4.75463536
0
LINE
8
0
10
70.8725341
20
4.75463536
11
70.8577819
21
4.53638142
0
LINE
8
0
10
70.8577819
20
4.53638142
11
70.8288076
21
4.07391669
0
LINE
8
0
10
70.8288076
20
4.07391669
11
70.8284175
21
3.96357993
0
LINE
8
0
10
70.8284175
20
3.96357993
11
70.8291222
21
3.4100185
0
LINE
8
0
10
70.8291222
20
3.4100185
11
70.8331254
21
3.34275162
0
LINE
8
0
10
70.8331254
20
3.34275162
11
70.8707819
21
2.75446879
0
LINE
8
0
10
70.8707819
20
2.75446879
11
70.8846127
21
2.64036495
0
LINE
8
0
10
70.8846127
20
2.64036495
11
70.9523902
21
2.09931247
0
LINE
8
0
10
70.9523902
20
2.09931247
11
71.0079356
21
1.79350638
0
LINE
8
0
10
71.0079356
20
1.79350638
11
71.0739602
21
1.43684633
0
LINE
8
0
10
71.0739602
20
1.43684633
11
71.2090987
21
0.874776235
0
LINE
8
0
10
71.2090987
20
0.874776235
11
71.2319012
21
0.759102721
0
LINE
8
0
10
71.2319012
20
0.759102721
11
71.2666247
21
0.614338171
0
LINE
8
0
10
71.2666247
20
0.614338171
11
71.4012236
21
0.0569103906
0
LINE
8
0
10
71.4012236
20
0.0569103906
11
71.4835481
21
-0.234558162
0
LINE
8
0
10
71.4835481
20
-0.234558162
11
71.5828042
21
-0.680139731
0
LINE
8
0
10
71.5828042
20
-0.680139731
11
71.6871311
21
-1.09153283
0
LINE
8
0
10
71.6871311
20
-1.09153283
11
71.7581162
21
-1.464036
0
LINE
8
0
10
71.7581162
20
-1.464036
11
71.833062
21
-1.81636824
0
LINE
8
0
10
71.833062
20
-1.81636824
11
71.9056331
21
-2.30927247
0
LINE
8
0
10
71.9056331
20
-2.30927247
11
71.9296063
21
-2.45756298
0
LINE
8
0
10
71.9296063
20
-2.45756298
11
71.9522826
21
-2.69797781
0
LINE
8
0
10
71.9522826
20
-2.69797781
11
71.9833025
21
-3.0251946
0
LINE
8
0
10
71.9833025
20
-3.0251946
11
71.9898291
21
-3.23518047
0
LINE
8
0
10
71.9898291
20
-3.23518047
11
72
21
-3.53714203
0
LINE
8
0
10
72
20
-3.53714203
11
72
21
-4.85942381
0
LINE
8
0
10
72
20
-4.85942381
11
72
21
-6.37332798
0
LINE
8
0
10
72
20
-6.37332798
11
72
21
-7.53147734
0
LINE
8
0
10
72
20
-7.53147734
11
72
21
-7.53147734
0
ENDSEC
0
EOF
