0
SECTION
2
ENTITIES
0
LINE
8
0
10
71.6595161
20
9.18775706
11
71.5809898
21
8.79593
0
LINE
8
0
10
71.5809898
20
8.79593
11
71.5579555
21
8.71042632
0
LINE
8
0
10
71.5579555
20
8.71042632
11
71.5349167
21
8.62454251
0
LINE
8
0
10
71.5349167
20
8.62454251
11
71.439402
21
8.21677021
0
LINE
8
0
10
71.439402
20
8.21677021
11
71.3384048
21
7.78226699
0
LINE
8
0
10
71.3384048
20
7.78226699
11
71.3266834
21
7.74327469
0
LINE
8
0
10
71.3266834
20
7.74327469
11
71.3170603
21
7.71101829
0
LINE
8
0
10
71.3170603
20
7.71101829
11
71.2000893
21
7.24942847
0
LINE
8
0
10
71.2000893
20
7.24942847
11
71.1072747
21
6.87889234
0
LINE
8
0
10
71.1072747
20
6.87889234
11
71.0852351
21
6.77096032
0
LINE
8
0
10
71.0852351
20
6.77096032
11
71.0494441
21
6.59270243
0
LINE
8
0
10
71.0494441
20
6.59270243
11
70.9694668
21
6.28110394
0
LINE
8
0
10
70.9694668
20
6.28110394
11
70.9260593
21
6.10918739
0
LINE
8
0
10
70.9260593
20
6.10918739
11
70.8630817
21
5.78512825
0
LINE
8
0
10
70.8630817
20
5.78512825
11
70.7875045
21
5.38673876
0
LINE
8
0
10
70.7875045
20
5.38673876
11
70.7745931
21
5.2884033
0
LINE
8
0
10
70.7745931
20
5.2884033
11
70.7382395
21
5.00085328
0
LINE
8
0
10
70.7382395
20
5.00085328
11
70.7005855
21
4.77296445
0
LINE
8
0
10
70.7005855
20
4.77296445
11
70.6888485
21
4.69936362
0
LINE
8
0
10
70.6888485
20
4.69936362
11
70.6479062
21
4.22875887
0
LINE
8
0
10
70.6479062
20
4.22875887
11
70.6323453
21
4.03704921
0
LINE
8
0
10
70.6323453
20
4.03704921
11
70.6291377
21
3.65252277
0
LINE
8
0
10
70.6291377
20
3.65252277
11
70.6284293
21
3.39108618
0
LINE
8
0
10
70.6284293
20
3.39108618
11
70.6539011
21
3.02240908
0
LINE
8
0
10
70.6539011
20
3.02240908
11
70.6739184
21
2.75324815
0
LINE
8
0
10
70.6739184
20
2.75324815
11
70.739361
21
2.30168842
0
LINE
8
0
10
70.739361
20
2.30168842
11
70.7671877
21
2.11580465
0
LINE
8
0
10
70.7671877
20
2.11580465
11
70.882667
21
1.58904021
0
LINE
8
0
10
70.882667
20
1.58904021
11
70.904472
21
1.47125112
0
LINE
8
0
10
70.904472
20
1.47125112
11
70.9206699
21
1.40388052
0
LINE
8
0
10
70.9206699
20
1.40388052
11
71.0646676
21
0.811815517
0
LINE
8
0
10
71.0646676
20
0.811815517
11
71.2328045
21
0.244812293
0
LINE
8
0
10
71.2328045
20
0.244812293
11
71.2608672
21
0.128593326
0
LINE
8
0
10
71.2608672
20
0.128593326
11
71.3537423
21
-0.200229129
0
LINE
8
0
10
71.3537423
20
-0.200229129
11
71.4637727
21
-0.588529401
0
LINE
8
0
10
71.4637727
20
-0.588529401
11
71.4955609
21
-0.687023177
0
LINE
8
0
10
71.4955609
20
-0.687023177
11
71.6640433
21
-1.35122891
0
LINE
8
0
10
71.6640433
20
-1.35122891
11
71.6932921
21
-1.45454121
0
LINE
8
0
10
71.6932921
20
-1.45454121
11
71.7920219
21
-1.91974707
0
LINE
8
0
10
71.7920219
20
-1.91974707
11
71.8359807
21
-2.1264045
0
LINE
8
0
10
71.8359807
20
-2.1264045
11
71.8429342
21
-2.17363272
0
LINE
8
0
10
71.8429342
20
-2.17363272
11
71.9306873
21
-2.7164445
0
LINE
8
0
10
71.9306873
20
-2.7164445
11
71.9644622
21
-3.07452741
0
LINE
8
0
10
71.9644622
20
-3.07452741
11
71.9835422
21
-3.26118136
0
LINE
8
0
10
71.9835422
20
-3.26118136
11
71.9896792
21
-3.4446413
0
LINE
8
0
10
71.9896792
20
-3.4446413
11
72
21
-3.75105223
0
LINE
8
0
10
72
20
-3.75105223
11
72
21
-4.34435339
0
LINE
8
0
10
72
20
-4.34435339
11
72
21
-5.94850238
0
LINE
8
0
10
72
20
-5.94850238
11
72
21
-7.17568979
0
LINE
8
0
10
72
20
-7.17568979
11
72
21
-8.12682943
0
LINE
8
0
10
72
20
-8.12682943
11
72
21
-8.87223561
0
LINE
8
0
10
72
20
-8.87223561
11
72
21
-9.46154066
0
LINE
8
0
10
72
20
-9.46154066
11
72
21
-10.3070731
0
LINE
8
0
10
72
20
-10.3070731
11
72
21
-10.8558563
0
LINE
8
0
10
72
20
-10.8558563
11
72
21
-11.2162892
0
LINE
8
0
10
72
20
-11.2162892
11
72
21
-11.2818531
0
LINE
8
0
10
72
20
-11.2818531
11
72
21
-13.5
0
LINE
8
0
10
72
20
-13.5
11
71.9718404
21
-13.7138827
0
LINE
8
0
10
71.9718404
20
-13.7138827
11
71.91481
21
-14.14705
0
LINE
8
0
10
71.91481
20
-14.14705
11
71.747615
21
-14.5506946
0
LINE
8
0
10
71.747615
20
-14.5506946
11
71.66506
21
-14.75
0
LINE
8
0
10
71.66506
20
-14.75
11
71.3990944
21
-15.0966209
0
LINE
8
0
10
71.3990944
20
-15.0966209
11
71.26777
21
-15.26777
0
LINE
8
0
10
71.26777
20
-15.26777
11
70.9211491
21
-15.5337356
0
LINE
8
0
10
70.9211491
20
-15.5337356
11
70.75
21
-15.66506
0
LINE
8
0
10
70.75
20
-15.66506
11
70.3463554
21
-15.832255
0
LINE
8
0
10
70.3463554
20
-15.832255
11
70.14705
21
-15.91481
0
LINE
8
0
10
70.14705
20
-15.91481
11
69.7138827
21
-15.9718404
0
LINE
8
0
10
69.7138827
20
-15.9718404
11
69.5
21
-16
0
LINE
8
0
10
69.5
20
-16
11
61.2374753
21
-16
0
LINE
8
0
10
61.2374753
20
-16
11
58.8
21
-16
0
LINE
8
0
10
58.8
20
-16
11
58.7869764
21
-15.9997317
0
LINE
8
0
10
58.7869764
20
-15.9997317
11
58.73836
21
-15.99873
0
LINE
8
0
10
58.73836
20
-15.99873
11
58.7252442
21
-15.9979205
0
LINE
8
0
10
58.7252442
20
-15.9979205
11
58.67679
21
-15.99493
0
LINE
8
0
10
58.67679
20
-15.99493
11
58.6287117
21
-15.9899704
0
LINE
8
0
10
58.6287117
20
-15.9899704
11
58.5269521
21
-15.9713538
0
LINE
8
0
10
58.5269521
20
-15.9713538
11
58.4385743
21
-15.9541176
0
LINE
8
0
10
58.4385743
20
-15.9541176
11
58.3753389
21
-15.9355003
0
LINE
8
0
10
58.3753389
20
-15.9355003
11
58.0654594
21
-15.8071441
0
LINE
8
0
10
58.0654594
20
-15.8071441
11
58.0026385
21
-15.7629686
0
LINE
8
0
10
58.0026385
20
-15.7629686
11
57.7406449
21
-15.561932
0
LINE
8
0
10
57.7406449
20
-15.561932
11
57.7130802
21
-15.5295886
0
LINE
8
0
10
57.7130802
20
-15.5295886
11
57.5136609
21
-15.2697026
0
LINE
8
0
10
57.5136609
20
-15.2697026
11
57.4895422
21
-15.2277682
0
LINE
8
0
10
57.4895422
20
-15.2277682
11
57.3652518
21
-14.9277045
0
LINE
8
0
10
57.3652518
20
-14.9277045
11
57.3483482
21
-14.8766704
0
LINE
8
0
10
57.3483482
20
-14.8766704
11
57.3417501
21
-14.8171324
0
LINE
8
0
10
57.3417501
20
-14.8171324
11
57.3174631
21
-14.6326488
0
LINE
8
0
10
57.3174631
20
-14.6326488
11
57.3110405
21
-14.5838634
0
LINE
8
0
10
57.3110405
20
-14.5838634
11
57.3060307
21
-14.5548189
0
LINE
8
0
10
57.3060307
20
-14.5548189
11
57.3
21
-14.5
0
LINE
8
0
10
57.3
20
-14.5
11
57.3
21
-14.4446148
0
LINE
8
0
10
57.3
20
-14.4446148
11
57.3
21
-14.17729
0
LINE
8
0
10
57.3
20
-14.17729
11
57.3
21
-11.094279
0
LINE
8
0
10
57.3
20
-11.094279
11
57.3
21
-10.9046891
0
LINE
8
0
10
57.3
20
-10.9046891
11
57.3
21
-10.5549437
0
LINE
8
0
10
57.3
20
-10.5549437
11
57.3
21
-10.3501542
0
LINE
8
0
10
57.3
20
-10.3501542
11
57.3
21
-9.8665671
0
LINE
8
0
10
57.3
20
-9.8665671
11
57.3
21
-9.19992575
0
LINE
8
0
10
57.3
20
-9.19992575
11
57.3
21
-8.31073923
0
LINE
8
0
10
57.3
20
-8.31073923
11
57.3
21
-7.16451913
0
LINE
8
0
10
57.3
20
-7.16451913
11
57.3
21
-5.74854646
0
LINE
8
0
10
57.3
20
-5.74854646
11
57.3
21
-4.09896333
0
LINE
8
0
10
57.3
20
-4.09896333
11
57.3
21
-2.33135815
0
LINE
8
0
10
57.3
20
-2.33135815
11
57.3
21
-0.65185858
0
LINE
8
0
10
57.3
20
-0.65185858
11
57.3
21
2.6622092
0
LINE
8
0
10
57.3
20
2.6622092
11
57.3
21
3.55291777
0
LINE
8
0
10
57.3
20
3.55291777
11
57.3
21
4.70372741
0
LINE
8
0
10
57.3
20
4.70372741
11
57.3
21
5.94624019
0
LINE
8
0
10
57.3
20
5.94624019
11
57.3
21
7.11516497
0
LINE
8
0
10
57.3
20
7.11516497
11
57.3
21
8.1019305
0
LINE
8
0
10
57.3
20
8.1019305
11
57.3
21
8.86579152
0
LINE
8
0
10
57.3
20
8.86579152
11
57.3
21
10
0
LINE
8
0
10
57.3
20
10
11
60.886318
21
10
0
LINE
8
0
10
60.886318
20
10
11
62
21
10
0
LINE
8
0
10
62
20
10
11
62
21
12.1252699
0
LINE
8
0
10
62
20
12.1252699
11
62
21
12.3538663
0
LINE
8
0
10
62
20
12.3538663
11
62
21
12.5947171
0
LINE
8
0
10
62
20
12.5947171
11
62
21
12.8175713
0
LINE
8
0
10
62
20
12.8175713
11
62
21
12.9882083
0
LINE
8
0
10
62
20
12.9882083
11
62
21
21.2863
0
LINE
8
0
10
62
20
21.2863
11
62
21
21.485495
0
LINE
8
0
10
62
20
21.485495
11
62
21
21.7997398
0
LINE
8
0
10
62
20
21.7997398
11
62
21
22.1765494
0
LINE
8
0
10
62
20
22.1765494
11
62
21
23.391646
0
LINE
8
0
10
62
20
23.391646
11
62
21
25.0239545
0
LINE
8
0
10
62
20
25.0239545
11
62.1212515
21
25.235348
0
LINE
8
0
10
62.1212515
20
25.235348
11
62.3023835
21
25.5511347
0
LINE
8
0
10
62.3023835
20
25.5511347
11
62.8782577
21
26.5551536
0
LINE
8
0
10
62.8782577
20
26.5551536
11
62.9905345
21
26.7509025
0
LINE
8
0
10
62.9905345
20
26.7509025
11
63.0204569
21
26.8030689
0
LINE
8
0
10
63.0204569
20
26.8030689
11
68.0639382
21
26.8068672
0
LINE
8
0
10
68.0639382
20
26.8068672
11
72
21
26.8053396
0
LINE
8
0
10
72
20
26.8053396
11
72
21
24.7403847
0
LINE
8
0
10
72
20
24.7403847
11
72
21
23.0071123
0
LINE
8
0
10
72
20
23.0071123
11
72
21
19.8983326
0
LINE
8
0
10
72
20
19.8983326
11
72
21
18.537981
0
LINE
8
0
10
72
20
18.537981
11
72
21
17.9080176
0
LINE
8
0
10
72
20
17.9080176
11
72
21
17.2130725
0
LINE
8
0
10
72
20
17.2130725
11
72
21
16.6330976
0
LINE
8
0
10
72
20
16.6330976
11
72
21
16.0652586
0
LINE
8
0
10
72
20
16.0652586
11
72
21
15.6105757
0
LINE
8
0
10
72
20
15.6105757
11
72
21
12.132854
0
LINE
8
0
10
72
20
12.132854
11
72
21
12.1325811
0
LINE
8
0
10
72
20
12.1325811
11
71.9978368
21
12.0701799
0
LINE
8
0
10
71.9978368
20
12.0701799
11
71.9187921
21
10.8061517
0
LINE
8
0
10
71.9187921
20
10.8061517
11
71.914448
21
10.6985344
0
LINE
8
0
10
71.914448
20
10.6985344
11
71.907537
21
10.6243008
0
LINE
8
0
10
71.907537
20
10.6243008
11
71.8141864
21
10.0175807
0
LINE
8
0
10
71.8141864
20
10.0175807
11
71.7627161
21
9.69317299
0
LINE
8
0
10
71.7627161
20
9.69317299
11
71.7514624
21
9.64464211
0
LINE
8
0
10
71.7514624
20
9.64464211
11
71.6595161
21
9.18775706
0
LINE
8
0
10
71.6595161
20
9.18775706
11
71.6595161
21
9.18775706
0
LINE
8
0
10
16
20
43.9628895
11
16
21
43.0011962
0
LINE
8
0
10
16
20
43.0011962
11
16
21
42.7109497
0
LINE
8
0
10
16
20
42.7109497
11
16
21
41.6280632
0
LINE
8
0
10
16
20
41.6280632
11
16
21
41.4263003
0
LINE
8
0
10
16
20
41.4263003
11
16
21
40.1543027
0
LINE
8
0
10
16
20
40.1543027
11
16
21
40.0847421
0
LINE
8
0
10
16
20
40.0847421
11
16
21
39.5259603
0
LINE
8
0
10
16
20
39.5259603
11
16.726386
21
39.5259603
0
LINE
8
0
10
16.726386
20
39.5259603
11
17.8
21
39.5259603
0
LINE
8
0
10
17.8
20
39.5259603
11
17.8
21
39.1786409
0
LINE
8
0
10
17.8
20
39.1786409
11
17.8
21
34.4648239
0
LINE
8
0
10
17.8
20
34.4648239
11
17.8
21
30.5930219
0
LINE
8
0
10
17.8
20
30.5930219
11
17.8
21
28.8531138
0
LINE
8
0
10
17.8
20
28.8531138
11
17.8
21
27.922096
0
LINE
8
0
10
17.8
20
27.922096
11
17.8
21
27.3738621
0
LINE
8
0
10
17.8
20
27.3738621
11
17.8
21
27.0322824
0
LINE
8
0
10
17.8
20
27.0322824
11
17.8
21
26.6278288
0
LINE
8
0
10
17.8
20
26.6278288
11
17.8
21
24.2523293
0
LINE
8
0
10
17.8
20
24.2523293
11
17.7922113
21
24.1293035
0
LINE
8
0
10
17.7922113
20
24.1293035
11
17.72314
21
23.0382993
0
LINE
8
0
10
17.72314
20
23.0382993
11
17.7000737
21
22.9200019
0
LINE
8
0
10
17.7000737
20
22.9200019
11
17.49552
21
21.8709293
0
LINE
8
0
10
17.49552
20
21.8709293
11
17.4580619
21
21.7619052
0
LINE
8
0
10
17.4580619
20
21.7619052
11
17.12588
21
20.7950693
0
LINE
8
0
10
17.12588
20
20.7950693
11
17.07547
21
20.6995098
0
LINE
8
0
10
17.07547
20
20.6995098
11
16.62843
21
19.8520793
0
LINE
8
0
10
16.62843
20
19.8520793
11
16.5989552
21
19.8105201
0
LINE
8
0
10
16.5989552
20
19.8105201
11
16.33757
21
19.4419604
0
LINE
8
0
10
16.33757
20
19.4419604
11
16.3056195
21
19.4050951
0
LINE
8
0
10
16.3056195
20
19.4050951
11
16.02228
21
19.0781793
0
LINE
8
0
10
16.02228
20
19.0781793
11
15.9881609
21
19.0463647
0
LINE
8
0
10
15.9881609
20
19.0463647
11
15.68559
21
18.7642204
0
LINE
8
0
10
15.68559
20
18.7642204
11
15.6496296
21
18.7377603
0
LINE
8
0
10
15.6496296
20
18.7377603
11
15.33073
21
18.5031193
0
LINE
8
0
10
15.33073
20
18.5031193
11
15.2932769
21
18.4822713
0
LINE
8
0
10
15.2932769
20
18.4822713
11
14.96114
21
18.2973893
0
LINE
8
0
10
14.96114
20
18.2973893
11
14.922553
21
18.282353
0
LINE
8
0
10
14.922553
20
18.282353
11
14.58036
21
18.1490004
0
LINE
8
0
10
14.58036
20
18.1490004
11
14.541012
21
18.1399196
0
LINE
8
0
10
14.541012
20
18.1399196
11
14.19207
21
18.0593993
0
LINE
8
0
10
14.19207
20
18.0593993
11
14.1523389
21
18.0563623
0
LINE
8
0
10
14.1523389
20
18.0563623
11
13.8
21
18.0294293
0
LINE
8
0
10
13.8
20
18.0294293
11
12.644761
21
18.0294293
0
LINE
8
0
10
12.644761
20
18.0294293
11
2.4
21
18.0294241
0
LINE
8
0
10
2.4
20
18.0294241
11
2.4
21
24.9831031
0
LINE
8
0
10
2.4
20
24.9831031
11
2.4
21
28.603689
0
LINE
8
0
10
2.4
20
28.603689
11
2.4
21
32.9713927
0
LINE
8
0
10
2.4
20
32.9713927
11
2.4
21
36.3650734
0
LINE
8
0
10
2.4
20
36.3650734
11
2.4
21
36.6149781
0
LINE
8
0
10
2.4
20
36.6149781
11
2.4
21
36.96422
0
LINE
8
0
10
2.4
20
36.96422
11
2.4
21
40.3150702
0
LINE
8
0
10
2.4
20
40.3150702
11
2.4
21
40.6483243
0
LINE
8
0
10
2.4
20
40.6483243
11
2.4
21
41.090861
0
LINE
8
0
10
2.4
20
41.090861
11
2.4
21
41.6246211
0
LINE
8
0
10
2.4
20
41.6246211
11
2.4
21
42.8620632
0
LINE
8
0
10
2.4
20
42.8620632
11
2.4
21
42.9374794
0
LINE
8
0
10
2.4
20
42.9374794
11
2.4
21
43.4979669
0
LINE
8
0
10
2.4
20
43.4979669
11
2.4
21
43.5711619
0
LINE
8
0
10
2.4
20
43.5711619
11
2.4
21
43.6437679
0
LINE
8
0
10
2.4
20
43.6437679
11
2.4
21
44.2301988
0
LINE
8
0
10
2.4
20
44.2301988
11
2.4
21
47.1483465
0
LINE
8
0
10
2.4
20
47.1483465
11
2.4
21
48.2
0
LINE
8
0
10
2.4
20
48.2
11
2.44425864
21
48.5361807
0
LINE
8
0
10
2.44425864
20
48.5361807
11
2.468148
21
48.71764
0
LINE
8
0
10
2.468148
20
48.71764
11
2.59790853
21
49.0309081
0
LINE
8
0
10
2.59790853
20
49.0309081
11
2.667949
21
49.2
0
LINE
8
0
10
2.667949
20
49.2
11
2.87436787
21
49.4690082
0
LINE
8
0
10
2.87436787
20
49.4690082
11
2.985786
21
49.61421
0
LINE
8
0
10
2.985786
20
49.61421
11
3.2547968
21
49.8206308
0
LINE
8
0
10
3.2547968
20
49.8206308
11
3.4
21
49.93205
0
LINE
8
0
10
3.4
20
49.93205
11
3.71326944
21
50.0618099
0
LINE
8
0
10
3.71326944
20
50.0618099
11
3.882362
21
50.13185
0
LINE
8
0
10
3.882362
20
50.13185
11
4.2185414
21
50.1761099
0
LINE
8
0
10
4.2185414
20
50.1761099
11
4.4
21
50.2
0
LINE
8
0
10
4.4
20
50.2
11
9.61245913
21
50.2
0
LINE
8
0
10
9.61245913
20
50.2
11
10.1513105
21
50.2
0
LINE
8
0
10
10.1513105
20
50.2
11
10.2539853
21
50.2
0
LINE
8
0
10
10.2539853
20
50.2
11
10.2539853
21
46.8236719
0
LINE
8
0
10
10.2539853
20
46.8236719
11
10.2539853
21
46.2
0
LINE
8
0
10
10.2539853
20
46.2
11
10.2539853
21
42.8236719
0
LINE
8
0
10
10.2539853
20
42.8236719
11
10.2539853
21
42.2
0
LINE
8
0
10
10.2539853
20
42.2
11
10.2539853
21
38.8236719
0
LINE
8
0
10
10.2539853
20
38.8236719
11
10.2539853
21
38.2
0
LINE
8
0
10
10.2539853
20
38.2
11
10.27556
21
38.2
0
LINE
8
0
10
10.27556
20
38.2
11
10.3050982
21
38.2
0
LINE
8
0
10
10.3050982
20
38.2
11
10.35048
21
38.2
0
LINE
8
0
10
10.35048
20
38.2
11
10.4038347
21
38.2
0
LINE
8
0
10
10.4038347
20
38.2
11
10.46967
21
38.2
0
LINE
8
0
10
10.46967
20
38.2
11
10.5434739
21
38.2
0
LINE
8
0
10
10.5434739
20
38.2
11
10.625
21
38.2
0
LINE
8
0
10
10.625
20
38.2
11
10.7144975
21
38.2
0
LINE
8
0
10
10.7144975
20
38.2
11
10.80589
21
38.2
0
LINE
8
0
10
10.80589
20
38.2
11
10.9052473
21
38.2
0
LINE
8
0
10
10.9052473
20
38.2
11
11
21
38.2
0
LINE
8
0
10
11
20
38.2
11
11.1027217
21
38.2
0
LINE
8
0
10
11.1027217
20
38.2
11
11.19411
21
38.2
0
LINE
8
0
10
11.19411
20
38.2
11
11.2934719
21
38.2
0
LINE
8
0
10
11.2934719
20
38.2
11
11.375
21
38.2
0
LINE
8
0
10
11.375
20
38.2
11
11.4644953
21
38.2
0
LINE
8
0
10
11.4644953
20
38.2
11
11.53033
21
38.2
0
LINE
8
0
10
11.53033
20
38.2
11
11.6041345
21
38.2
0
LINE
8
0
10
11.6041345
20
38.2
11
11.64952
21
38.2
0
LINE
8
0
10
11.64952
20
38.2
11
11.7028705
21
38.2
0
LINE
8
0
10
11.7028705
20
38.2
11
11.72444
21
38.2
0
LINE
8
0
10
11.72444
20
38.2
11
11.7460147
21
38.2
0
LINE
8
0
10
11.7460147
20
38.2
11
11.7460147
21
41.5763281
0
LINE
8
0
10
11.7460147
20
41.5763281
11
11.7460147
21
42.2
0
LINE
8
0
10
11.7460147
20
42.2
11
11.7460147
21
45.5763281
0
LINE
8
0
10
11.7460147
20
45.5763281
11
11.7460147
21
46.2
0
LINE
8
0
10
11.7460147
20
46.2
11
11.7460147
21
49.5763281
0
LINE
8
0
10
11.7460147
20
49.5763281
11
11.7460147
21
50.2
0
LINE
8
0
10
11.7460147
20
50.2
11
11.782149
21
50.2
0
LINE
8
0
10
11.782149
20
50.2
11
11.8209657
21
50.2
0
LINE
8
0
10
11.8209657
20
50.2
11
12.2025204
21
50.2
0
LINE
8
0
10
12.2025204
20
50.2
11
16
21
50.2
0
LINE
8
0
10
16
20
50.2
11
16
21
46.9646516
0
LINE
8
0
10
16
20
46.9646516
11
16
21
45.2
0
LINE
8
0
10
16
20
45.2
11
16
21
44.2977812
0
LINE
8
0
10
16
20
44.2977812
11
16
21
43.9628895
0
LINE
8
0
10
16
20
43.9628895
11
16
21
43.9628895
0
LINE
8
0
10
35.2
20
2.84436952
11
35.2
21
1.29109647
0
LINE
8
0
10
35.2
20
1.29109647
11
35.2
21
-0.218208324
0
LINE
8
0
10
35.2
20
-0.218208324
11
35.2
21
-1.45960632
0
LINE
8
0
10
35.2
20
-1.45960632
11
35.2
21
-4.32947132
0
LINE
8
0
10
35.2
20
-4.32947132
11
35.2
21
-5.55645429
0
LINE
8
0
10
35.2
20
-5.55645429
11
35.2
21
-6.95594942
0
LINE
8
0
10
35.2
20
-6.95594942
11
35.2
21
-8.33205847
0
LINE
8
0
10
35.2
20
-8.33205847
11
35.2
21
-9.54508755
0
LINE
8
0
10
35.2
20
-9.54508755
11
35.2
21
-10.5307976
0
LINE
8
0
10
35.2
20
-10.5307976
11
35.2
21
-11.2832921
0
LINE
8
0
10
35.2
20
-11.2832921
11
35.2
21
-11.8281927
0
LINE
8
0
10
35.2
20
-11.8281927
11
35.2
21
-12.2019695
0
LINE
8
0
10
35.2
20
-12.2019695
11
35.2
21
-12.4405204
0
LINE
8
0
10
35.2
20
-12.4405204
11
35.2
21
-12.5744587
0
LINE
8
0
10
35.2
20
-12.5744587
11
35.2
21
-13.5
0
LINE
8
0
10
35.2
20
-13.5
11
35.1899548
21
-13.7044413
0
LINE
8
0
10
35.1899548
20
-13.7044413
11
35.1475527
21
-13.9671064
0
LINE
8
0
10
35.1475527
20
-13.9671064
11
35.1313583
21
-14.0760815
0
LINE
8
0
10
35.1313583
20
-14.0760815
11
35.0688667
21
-14.2824016
0
LINE
8
0
10
35.0688667
20
-14.2824016
11
34.9282818
21
-14.6218036
0
LINE
8
0
10
34.9282818
20
-14.6218036
11
34.8284145
21
-14.8089322
0
LINE
8
0
10
34.8284145
20
-14.8089322
11
34.5996496
21
-15.1070712
0
LINE
8
0
10
34.5996496
20
-15.1070712
11
34.46777
21
-15.26777
0
LINE
8
0
10
34.46777
20
-15.26777
11
34.3200943
21
-15.388962
0
LINE
8
0
10
34.3200943
20
-15.388962
11
34.0041563
21
-15.6313843
0
LINE
8
0
10
34.0041563
20
-15.6313843
11
33.8411979
21
-15.7187173
0
LINE
8
0
10
33.8411979
20
-15.7187173
11
33.4619249
21
-15.8758172
0
LINE
8
0
10
33.4619249
20
-15.8758172
11
33.2908918
21
-15.9279049
0
LINE
8
0
10
33.2908918
20
-15.9279049
11
33.1302097
21
-15.943359
0
LINE
8
0
10
33.1302097
20
-15.943359
11
32.9151048
21
-15.9716795
0
LINE
8
0
10
32.9151048
20
-15.9716795
11
32.8098985
21
-15.9891753
0
LINE
8
0
10
32.8098985
20
-15.9891753
11
32.7
21
-16
0
LINE
8
0
10
32.7
20
-16
11
30.978011
21
-16
0
LINE
8
0
10
30.978011
20
-16
11
30.7
21
-16
0
LINE
8
0
10
30.7
20
-16
11
30.2795741
21
-15.9585893
0
LINE
8
0
10
30.2795741
20
-15.9585893
11
30.1673679
21
-15.9414898
0
LINE
8
0
10
30.1673679
20
-15.9414898
11
29.821119
21
-15.836118
0
LINE
8
0
10
29.821119
20
-15.836118
11
29.6695754
21
-15.7733466
0
LINE
8
0
10
29.6695754
20
-15.7733466
11
29.3417516
21
-15.5977485
0
LINE
8
0
10
29.3417516
20
-15.5977485
11
29.2274063
21
-15.5100103
0
LINE
8
0
10
29.2274063
20
-15.5100103
11
28.93223
21
-15.26777
0
LINE
8
0
10
28.93223
20
-15.26777
11
28.6731489
21
-14.9520727
0
LINE
8
0
10
28.6731489
20
-14.9520727
11
28.6069311
21
-14.865774
0
LINE
8
0
10
28.6069311
20
-14.865774
11
28.4115341
21
-14.4997669
0
LINE
8
0
10
28.4115341
20
-14.4997669
11
28.3748692
21
-14.4112499
0
LINE
8
0
10
28.3748692
20
-14.4112499
11
28.2530216
21
-14.0090939
0
LINE
8
0
10
28.2530216
20
-14.0090939
11
28.2216093
21
-13.7976297
0
LINE
8
0
10
28.2216093
20
-13.7976297
11
28.21204
21
-13.74504
0
LINE
8
0
10
28.21204
20
-13.74504
11
28.2007804
21
-13.5158827
0
LINE
8
0
10
28.2007804
20
-13.5158827
11
28.2
21
-13.5
0
LINE
8
0
10
28.2
20
-13.5
11
28.2
21
-13.1367963
0
LINE
8
0
10
28.2
20
-13.1367963
11
28.2
21
-13.0703743
0
LINE
8
0
10
28.2
20
-13.0703743
11
28.2
21
-12.9515676
0
LINE
8
0
10
28.2
20
-12.9515676
11
28.2
21
-12.756372
0
LINE
8
0
10
28.2
20
-12.756372
11
28.2
21
-12.448792
0
LINE
8
0
10
28.2
20
-12.448792
11
28.2
21
-11.9767436
0
LINE
8
0
10
28.2
20
-11.9767436
11
28.2
21
-11.2718417
0
LINE
8
0
10
28.2
20
-11.2718417
11
28.2
21
-10.2662855
0
LINE
8
0
10
28.2
20
-10.2662855
11
28.2
21
-8.95416056
0
LINE
8
0
10
28.2
20
-8.95416056
11
28.2
21
-7.51008764
0
LINE
8
0
10
28.2
20
-7.51008764
11
28.2
21
-6.34914297
0
LINE
8
0
10
28.2
20
-6.34914297
11
28.2
21
1.15883883
0
LINE
8
0
10
28.2
20
1.15883883
11
28.2
21
2.35778651
0
LINE
8
0
10
28.2
20
2.35778651
11
28.2
21
4.02650843
0
LINE
8
0
10
28.2
20
4.02650843
11
28.2
21
5.63757887
0
LINE
8
0
10
28.2
20
5.63757887
11
28.2
21
6.92572392
0
LINE
8
0
10
28.2
20
6.92572392
11
28.2
21
7.86145403
0
LINE
8
0
10
28.2
20
7.86145403
11
28.2
21
10.0023407
0
LINE
8
0
10
28.2
20
10.0023407
11
28.2
21
11.6828059
0
LINE
8
0
10
28.2
20
11.6828059
11
28.2
21
11.9270578
0
LINE
8
0
10
28.2
20
11.9270578
11
28.2
21
14.2911791
0
LINE
8
0
10
28.2
20
14.2911791
11
28.2
21
15
0
LINE
8
0
10
28.2
20
15
11
30.0986632
21
15
0
LINE
8
0
10
30.0986632
20
15
11
30.2
21
15
0
LINE
8
0
10
30.2
20
15
11
30.2
21
12.7798569
0
LINE
8
0
10
30.2
20
12.7798569
11
30.2
21
12.65094
0
LINE
8
0
10
30.2
20
12.65094
11
30.2
21
12.4066915
0
LINE
8
0
10
30.2
20
12.4066915
11
30.2
21
12.39302
0
LINE
8
0
10
30.2
20
12.39302
11
30.2
21
12.149708
0
LINE
8
0
10
30.2
20
12.149708
11
30.2
21
12.13557
0
LINE
8
0
10
30.2
20
12.13557
11
30.2
21
11.9103241
0
LINE
8
0
10
30.2
20
11.9103241
11
30.2
21
11.89597
0
LINE
8
0
10
30.2
20
11.89597
11
30.2
21
11.7043015
0
LINE
8
0
10
30.2
20
11.7043015
11
30.2
21
11.69043
0
LINE
8
0
10
30.2
20
11.69043
11
30.2
21
11.5449338
0
LINE
8
0
10
30.2
20
11.5449338
11
30.2
21
11.53281
0
LINE
8
0
10
30.2
20
11.53281
11
30.2
21
10.2831139
0
LINE
8
0
10
30.2
20
10.2831139
11
30.2
21
10
0
LINE
8
0
10
30.2
20
10
11
34.3736239
21
10
0
LINE
8
0
10
34.3736239
20
10
11
35.2
21
10
0
LINE
8
0
10
35.2
20
10
11
35.2
21
9.34064869
0
LINE
8
0
10
35.2
20
9.34064869
11
35.2
21
5.46227672
0
LINE
8
0
10
35.2
20
5.46227672
11
35.2
21
4.26605906
0
LINE
8
0
10
35.2
20
4.26605906
11
35.2
21
2.84436952
0
LINE
8
0
10
35.2
20
2.84436952
11
35.2
21
2.84436952
0
ENDSEC
0
EOF
