0
SECTION
2
ENTITIES
0
LINE
8
0
10
16
20
47.4194207
11
16
21
45.2
0
LINE
8
0
10
16
20
45.2
11
16
21
44.4245994
0
LINE
8
0
10
16
20
44.4245994
11
16
21
43.9986187
0
LINE
8
0
10
16
20
43.9986187
11
16
21
43.1682427
0
LINE
8
0
10
16
20
43.1682427
11
16
21
42.7834208
0
LINE
8
0
10
16
20
42.7834208
11
16
21
41.8368683
0
LINE
8
0
10
16
20
41.8368683
11
16
21
41.5375828
0
LINE
8
0
10
16
20
41.5375828
11
16
21
40.4077262
0
LINE
8
0
10
16
20
40.4077262
11
16
21
40.2380747
0
LINE
8
0
10
16
20
40.2380747
11
16
21
38.8752601
0
LINE
8
0
10
16
20
38.8752601
11
17.771585
21
38.8752601
0
LINE
8
0
10
17.771585
20
38.8752601
11
17.8
21
38.8752601
0
LINE
8
0
10
17.8
20
38.8752601
11
17.8
21
38.8660677
0
LINE
8
0
10
17.8
20
38.8660677
11
17.8
21
38.7413085
0
LINE
8
0
10
17.8
20
38.7413085
11
17.8
21
32.9619798
0
LINE
8
0
10
17.8
20
32.9619798
11
17.8
21
30.3648685
0
LINE
8
0
10
17.8
20
30.3648685
11
17.8
21
28.9751647
0
LINE
8
0
10
17.8
20
28.9751647
11
17.8
21
28.1568315
0
LINE
8
0
10
17.8
20
28.1568315
11
17.8
21
27.6469652
0
LINE
8
0
10
17.8
20
27.6469652
11
17.8
21
27.0432489
0
LINE
8
0
10
17.8
20
27.0432489
11
17.8
21
24.7997216
0
LINE
8
0
10
17.8
20
24.7997216
11
17.788374
21
24.6160844
0
LINE
8
0
10
17.788374
20
24.6160844
11
17.72314
21
23.5856916
0
LINE
8
0
10
17.72314
20
23.5856916
11
17.6887096
21
23.4091123
0
LINE
8
0
10
17.6887096
20
23.4091123
11
17.49552
21
22.4183216
0
LINE
8
0
10
17.49552
20
22.4183216
11
17.4396073
21
22.2555843
0
LINE
8
0
10
17.4396073
20
22.2555843
11
17.12588
21
21.3424616
0
LINE
8
0
10
17.12588
20
21.3424616
11
17.0506345
21
21.1998226
0
LINE
8
0
10
17.0506345
20
21.1998226
11
16.62843
21
20.3994716
0
LINE
8
0
10
16.62843
20
20.3994716
11
16.5844338
21
20.3374373
0
LINE
8
0
10
16.5844338
20
20.3374373
11
16.33757
21
19.9893531
0
LINE
8
0
10
16.33757
20
19.9893531
11
16.2898784
21
19.9343253
0
LINE
8
0
10
16.2898784
20
19.9343253
11
16.02228
21
19.6255716
0
LINE
8
0
10
16.02228
20
19.6255716
11
15.9713514
21
19.5780827
0
LINE
8
0
10
15.9713514
20
19.5780827
11
15.68559
21
19.3116131
0
LINE
8
0
10
15.68559
20
19.3116131
11
15.631913
21
19.272117
0
LINE
8
0
10
15.631913
20
19.272117
11
15.33073
21
19.0505116
0
LINE
8
0
10
15.33073
20
19.0505116
11
15.2748249
21
19.0193924
0
LINE
8
0
10
15.2748249
20
19.0193924
11
14.96114
21
18.8447816
0
LINE
8
0
10
14.96114
20
18.8447816
11
14.9035423
21
18.8223373
0
LINE
8
0
10
14.9035423
20
18.8223373
11
14.58036
21
18.6963931
0
LINE
8
0
10
14.58036
20
18.6963931
11
14.5216263
21
18.6828385
0
LINE
8
0
10
14.5216263
20
18.6828385
11
14.19207
21
18.6067916
0
LINE
8
0
10
14.19207
20
18.6067916
11
14.1327645
21
18.6022583
0
LINE
8
0
10
14.1327645
20
18.6022583
11
13.8
21
18.5768216
0
LINE
8
0
10
13.8
20
18.5768216
11
12.0756076
21
18.5768216
0
LINE
8
0
10
12.0756076
20
18.5768216
11
2.4
21
18.5768166
0
LINE
8
0
10
2.4
20
18.5768166
11
2.4
21
25.1441801
0
LINE
8
0
10
2.4
20
25.1441801
11
2.4
21
28.5636224
0
LINE
8
0
10
2.4
20
28.5636224
11
2.4
21
32.6886759
0
LINE
8
0
10
2.4
20
32.6886759
11
2.4
21
36.612675
0
LINE
8
0
10
2.4
20
36.612675
11
2.4
21
36.9016314
0
LINE
8
0
10
2.4
20
36.9016314
11
2.4
21
37.3054481
0
LINE
8
0
10
2.4
20
37.3054481
11
2.4
21
40.3759443
0
LINE
8
0
10
2.4
20
40.3759443
11
2.4
21
40.7469541
0
LINE
8
0
10
2.4
20
40.7469541
11
2.4
21
41.2396276
0
LINE
8
0
10
2.4
20
41.2396276
11
2.4
21
41.8338596
0
LINE
8
0
10
2.4
20
41.8338596
11
2.4
21
42.9155093
0
LINE
8
0
10
2.4
20
42.9155093
11
2.4
21
42.9814307
0
LINE
8
0
10
2.4
20
42.9814307
11
2.4
21
43.5971803
0
LINE
8
0
10
2.4
20
43.5971803
11
2.4
21
43.6603807
0
LINE
8
0
10
2.4
20
43.6603807
11
2.4
21
43.7230725
0
LINE
8
0
10
2.4
20
43.7230725
11
2.4
21
44.3665166
0
LINE
8
0
10
2.4
20
44.3665166
11
2.4
21
46.8744818
0
LINE
8
0
10
2.4
20
46.8744818
11
2.4
21
48.2
0
LINE
8
0
10
2.4
20
48.2
11
2.43803753
21
48.4889263
0
LINE
8
0
10
2.43803753
20
48.4889263
11
2.468148
21
48.71764
0
LINE
8
0
10
2.468148
20
48.71764
11
2.57966905
21
48.9868744
0
LINE
8
0
10
2.57966905
20
48.9868744
11
2.667949
21
49.2
0
LINE
8
0
10
2.667949
20
49.2
11
2.84535309
21
49.4311957
0
LINE
8
0
10
2.84535309
20
49.4311957
11
2.985786
21
49.61421
0
LINE
8
0
10
2.985786
20
49.61421
11
3.21698394
21
49.7916158
0
LINE
8
0
10
3.21698394
20
49.7916158
11
3.4
21
49.93205
0
LINE
8
0
10
3.4
20
49.93205
11
3.66923547
21
50.0435705
0
LINE
8
0
10
3.66923547
20
50.0435705
11
3.882362
21
50.13185
0
LINE
8
0
10
3.882362
20
50.13185
11
4.17128714
21
50.1698886
0
LINE
8
0
10
4.17128714
20
50.1698886
11
4.4
21
50.2
0
LINE
8
0
10
4.4
20
50.2
11
9.82198313
21
50.2
0
LINE
8
0
10
9.82198313
20
50.2
11
10.2381181
21
50.2
0
LINE
8
0
10
10.2381181
20
50.2
11
10.3919548
21
50.2
0
LINE
8
0
10
10.3919548
20
50.2
11
10.3919548
21
48.8081102
0
LINE
8
0
10
10.3919548
20
48.8081102
11
10.3919548
21
46.2
0
LINE
8
0
10
10.3919548
20
46.2
11
10.3919548
21
44.8081102
0
LINE
8
0
10
10.3919548
20
44.8081102
11
10.3919548
21
42.2
0
LINE
8
0
10
10.3919548
20
42.2
11
10.3919548
21
40.8081102
0
LINE
8
0
10
10.3919548
20
40.8081102
11
10.3919548
21
38.2
0
LINE
8
0
10
10.3919548
20
38.2
11
10.46967
21
38.2
0
LINE
8
0
10
10.46967
20
38.2
11
10.4830038
21
38.2
0
LINE
8
0
10
10.4830038
20
38.2
11
10.625
21
38.2
0
LINE
8
0
10
10.625
20
38.2
11
10.6540259
21
38.2
0
LINE
8
0
10
10.6540259
20
38.2
11
10.80589
21
38.2
0
LINE
8
0
10
10.80589
20
38.2
11
10.8447785
21
38.2
0
LINE
8
0
10
10.8447785
20
38.2
11
11
21
38.2
0
LINE
8
0
10
11
20
38.2
11
11.0422528
21
38.2
0
LINE
8
0
10
11.0422528
20
38.2
11
11.19411
21
38.2
0
LINE
8
0
10
11.19411
20
38.2
11
11.2330003
21
38.2
0
LINE
8
0
10
11.2330003
20
38.2
11
11.375
21
38.2
0
LINE
8
0
10
11.375
20
38.2
11
11.4040252
21
38.2
0
LINE
8
0
10
11.4040252
20
38.2
11
11.53033
21
38.2
0
LINE
8
0
10
11.53033
20
38.2
11
11.5436639
21
38.2
0
LINE
8
0
10
11.5436639
20
38.2
11
11.6080452
21
38.2
0
LINE
8
0
10
11.6080452
20
38.2
11
11.6080452
21
39.5918898
0
LINE
8
0
10
11.6080452
20
39.5918898
11
11.6080452
21
42.2
0
LINE
8
0
10
11.6080452
20
42.2
11
11.6080452
21
43.5918898
0
LINE
8
0
10
11.6080452
20
43.5918898
11
11.6080452
21
46.2
0
LINE
8
0
10
11.6080452
20
46.2
11
11.6080452
21
47.5918898
0
LINE
8
0
10
11.6080452
20
47.5918898
11
11.6080452
21
50.2
0
LINE
8
0
10
11.6080452
20
50.2
11
11.7316694
21
50.2
0
LINE
8
0
10
11.7316694
20
50.2
11
12.0545013
21
50.2
0
LINE
8
0
10
12.0545013
20
50.2
11
16
21
50.2
0
LINE
8
0
10
16
20
50.2
11
16
21
47.4194207
0
LINE
8
0
10
16
20
47.4194207
11
16
21
47.4194207
0
LINE
8
0
10
71.7670431
20
10.3563568
11
71.9010991
21
11.0664344
0
LINE
8
0
10
71.9010991
20
11.0664344
11
71.9077147
21
11.1041265
0
LINE
8
0
10
71.9077147
20
11.1041265
11
71.9117146
21
11.1425636
0
LINE
8
0
10
71.9117146
20
11.1425636
11
71.9963387
21
12.4958127
0
LINE
8
0
10
71.9963387
20
12.4958127
11
72
21
12.601431
0
LINE
8
0
10
72
20
12.601431
11
72
21
12.6018929
0
LINE
8
0
10
72
20
12.6018929
11
72
21
15.8863238
0
LINE
8
0
10
72
20
15.8863238
11
72
21
16.3157355
0
LINE
8
0
10
72
20
16.3157355
11
72
21
18.004571
0
LINE
8
0
10
72
20
18.004571
11
72
21
18.3826003
0
LINE
8
0
10
72
20
18.3826003
11
72
21
18.8355673
0
LINE
8
0
10
72
20
18.8355673
11
72
21
19.2461792
0
LINE
8
0
10
72
20
19.2461792
11
72
21
20.13286
0
LINE
8
0
10
72
20
20.13286
11
72
21
22.159171
0
LINE
8
0
10
72
20
22.159171
11
72
21
23.2889226
0
LINE
8
0
10
72
20
23.2889226
11
72
21
26.5530377
0
LINE
8
0
10
72
20
26.5530377
11
72
21
27.2605279
0
LINE
8
0
10
72
20
27.2605279
11
71.1009111
21
27.2609542
0
LINE
8
0
10
71.1009111
20
27.2609542
11
62.9223504
21
27.2664703
0
LINE
8
0
10
62.9223504
20
27.2664703
11
62.9207458
21
27.2664703
0
LINE
8
0
10
62.9207458
20
27.2664703
11
62.8995622
21
27.24827
0
LINE
8
0
10
62.8995622
20
27.24827
11
62.2788313
21
26.1660448
0
LINE
8
0
10
62.2788313
20
26.1660448
11
62.0773194
21
25.8147276
0
LINE
8
0
10
62.0773194
20
25.8147276
11
62
21
25.6799267
0
LINE
8
0
10
62
20
25.6799267
11
62
21
24.6390401
0
LINE
8
0
10
62
20
24.6390401
11
62
21
23.8642002
0
LINE
8
0
10
62
20
23.8642002
11
62
21
23.6239172
0
LINE
8
0
10
62
20
23.6239172
11
62
21
23.4235303
0
LINE
8
0
10
62
20
23.4235303
11
62
21
23.2965081
0
LINE
8
0
10
62
20
23.2965081
11
62
21
11.9055135
0
LINE
8
0
10
62
20
11.9055135
11
62
21
11.7967021
0
LINE
8
0
10
62
20
11.7967021
11
62
21
11.654593
0
LINE
8
0
10
62
20
11.654593
11
62
21
11.5010078
0
LINE
8
0
10
62
20
11.5010078
11
62
21
11.355237
0
LINE
8
0
10
62
20
11.355237
11
62
21
10
0
LINE
8
0
10
62
20
10
11
61.2898299
21
10
0
LINE
8
0
10
61.2898299
20
10
11
57.3
21
10
0
LINE
8
0
10
57.3
20
10
11
57.3
21
8.73817689
0
LINE
8
0
10
57.3
20
8.73817689
11
57.3
21
7.88837061
0
LINE
8
0
10
57.3
20
7.88837061
11
57.3
21
6.79057988
0
LINE
8
0
10
57.3
20
6.79057988
11
57.3
21
5.49013439
0
LINE
8
0
10
57.3
20
5.49013439
11
57.3
21
4.1078212
0
LINE
8
0
10
57.3
20
4.1078212
11
57.3
21
2.82752906
0
LINE
8
0
10
57.3
20
2.82752906
11
57.3
21
1.83660307
0
LINE
8
0
10
57.3
20
1.83660307
11
57.3
21
0.793740596
0
LINE
8
0
10
57.3
20
0.793740596
11
57.3
21
-1.07472663
0
LINE
8
0
10
57.3
20
-1.07472663
11
57.3
21
-3.04121261
0
LINE
8
0
10
57.3
20
-3.04121261
11
57.3
21
-4.87639737
0
LINE
8
0
10
57.3
20
-4.87639737
11
57.3
21
-6.45168716
0
LINE
8
0
10
57.3
20
-6.45168716
11
57.3
21
-7.72687338
0
LINE
8
0
10
57.3
20
-7.72687338
11
57.3
21
-8.71610606
0
LINE
8
0
10
57.3
20
-8.71610606
11
57.3
21
-9.45775407
0
LINE
8
0
10
57.3
20
-9.45775407
11
57.3
21
-9.99575164
0
LINE
8
0
10
57.3
20
-9.99575164
11
57.3
21
-10.1872337
0
LINE
8
0
10
57.3
20
-10.1872337
11
57.3
21
-10.5761053
0
LINE
8
0
10
57.3
20
-10.5761053
11
57.3
21
-10.7551625
0
LINE
8
0
10
57.3
20
-10.7551625
11
57.3
21
-14.17729
0
LINE
8
0
10
57.3
20
-14.17729
11
57.3
21
-14.4386863
0
LINE
8
0
10
57.3
20
-14.4386863
11
57.3
21
-14.5
0
LINE
8
0
10
57.3
20
-14.5
11
57.3066762
21
-14.5606868
0
LINE
8
0
10
57.3066762
20
-14.5606868
11
57.3122223
21
-14.5928403
0
LINE
8
0
10
57.3122223
20
-14.5928403
11
57.3193323
21
-14.6468478
0
LINE
8
0
10
57.3193323
20
-14.6468478
11
57.3462191
21
-14.8510788
0
LINE
8
0
10
57.3462191
20
-14.8510788
11
57.3496669
21
-14.8821897
0
LINE
8
0
10
57.3496669
20
-14.8821897
11
57.3584996
21
-14.9088569
0
LINE
8
0
10
57.3584996
20
-14.9088569
11
57.4949938
21
-15.238383
0
LINE
8
0
10
57.4949938
20
-15.238383
11
57.5075967
21
-15.2602954
0
LINE
8
0
10
57.5075967
20
-15.2602954
11
57.7256183
21
-15.544424
0
LINE
8
0
10
57.7256183
20
-15.544424
11
57.7400219
21
-15.5613247
0
LINE
8
0
10
57.7400219
20
-15.5613247
11
58.0252518
21
-15.7801913
0
LINE
8
0
10
58.0252518
20
-15.7801913
11
58.0580781
21
-15.8032747
0
LINE
8
0
10
58.0580781
20
-15.8032747
11
58.3927334
21
-15.9418934
0
LINE
8
0
10
58.3927334
20
-15.9418934
11
58.4257763
21
-15.9516216
0
LINE
8
0
10
58.4257763
20
-15.9516216
11
58.5205531
21
-15.9701058
0
LINE
8
0
10
58.5205531
20
-15.9701058
11
58.6296806
21
-15.9900704
0
LINE
8
0
10
58.6296806
20
-15.9900704
11
58.67679
21
-15.99493
0
LINE
8
0
10
58.67679
20
-15.99493
11
58.7242677
21
-15.9978602
0
LINE
8
0
10
58.7242677
20
-15.9978602
11
58.73836
21
-15.99873
0
LINE
8
0
10
58.73836
20
-15.99873
11
58.7859929
21
-15.9997114
0
LINE
8
0
10
58.7859929
20
-15.9997114
11
58.8
21
-16
0
LINE
8
0
10
58.8
20
-16
11
61.421546
21
-16
0
LINE
8
0
10
61.421546
20
-16
11
69.5
21
-16
0
LINE
8
0
10
69.5
20
-16
11
69.7379475
21
-15.9686721
0
LINE
8
0
10
69.7379475
20
-15.9686721
11
70.14705
21
-15.91481
0
LINE
8
0
10
70.14705
20
-15.91481
11
70.3687801
21
-15.8229664
0
LINE
8
0
10
70.3687801
20
-15.8229664
11
70.75
21
-15.66506
0
LINE
8
0
10
70.75
20
-15.66506
11
70.9404058
21
-15.5189597
0
LINE
8
0
10
70.9404058
20
-15.5189597
11
71.26777
21
-15.26777
0
LINE
8
0
10
71.26777
20
-15.26777
11
71.4138703
21
-15.0773642
0
LINE
8
0
10
71.4138703
20
-15.0773642
11
71.66506
21
-14.75
0
LINE
8
0
10
71.66506
20
-14.75
11
71.7569036
21
-14.5282699
0
LINE
8
0
10
71.7569036
20
-14.5282699
11
71.91481
21
-14.14705
0
LINE
8
0
10
71.91481
20
-14.14705
11
71.9686721
21
-13.7379475
0
LINE
8
0
10
71.9686721
20
-13.7379475
11
72
21
-13.5
0
LINE
8
0
10
72
20
-13.5
11
72
21
-11.0322799
0
LINE
8
0
10
72
20
-11.0322799
11
72
21
-10.9593392
0
LINE
8
0
10
72
20
-10.9593392
11
72
21
-10.5583524
0
LINE
8
0
10
72
20
-10.5583524
11
72
21
-9.94782331
0
LINE
8
0
10
72
20
-9.94782331
11
72
21
-9.00715638
0
LINE
8
0
10
72
20
-9.00715638
11
72
21
-8.35154611
0
LINE
8
0
10
72
20
-8.35154611
11
72
21
-7.5222711
0
LINE
8
0
10
72
20
-7.5222711
11
72
21
-6.46411468
0
LINE
8
0
10
72
20
-6.46411468
11
72
21
-5.09885119
0
LINE
8
0
10
72
20
-5.09885119
11
72
21
-4.14387795
0
LINE
8
0
10
72
20
-4.14387795
11
71.9841348
21
-3.70150173
0
LINE
8
0
10
71.9841348
20
-3.70150173
11
71.9839977
21
-3.69740232
0
LINE
8
0
10
71.9839977
20
-3.69740232
11
71.9835434
21
-3.69295768
0
LINE
8
0
10
71.9835434
20
-3.69295768
11
71.9327407
21
-3.19289287
0
LINE
8
0
10
71.9327407
20
-3.19289287
11
71.8560733
21
-2.75322177
0
LINE
8
0
10
71.8560733
20
-2.75322177
11
71.8412905
21
-2.66137525
0
LINE
8
0
10
71.8412905
20
-2.66137525
11
71.794201
21
-2.45924659
0
LINE
8
0
10
71.794201
20
-2.45924659
11
71.7043508
21
-2.07207717
0
LINE
8
0
10
71.7043508
20
-2.07207717
11
71.6516981
21
-1.90235433
0
LINE
8
0
10
71.6516981
20
-1.90235433
11
71.5163103
21
-1.42329573
0
LINE
8
0
10
71.5163103
20
-1.42329573
11
71.4089762
21
-1.12561512
0
LINE
8
0
10
71.4089762
20
-1.12561512
11
71.2707546
21
-0.697615916
0
LINE
8
0
10
71.2707546
20
-0.697615916
11
71.1538178
21
-0.405308643
0
LINE
8
0
10
71.1538178
20
-0.405308643
11
70.9588764
21
0.150248594
0
LINE
8
0
10
70.9588764
20
0.150248594
11
70.9069994
21
0.271959302
0
LINE
8
0
10
70.9069994
20
0.271959302
11
70.8288318
21
0.487311815
0
LINE
8
0
10
70.8288318
20
0.487311815
11
70.673778
21
0.917241176
0
LINE
8
0
10
70.673778
20
0.917241176
11
70.560201
21
1.3025088
0
LINE
8
0
10
70.560201
20
1.3025088
11
70.4770174
21
1.5400603
0
LINE
8
0
10
70.4770174
20
1.5400603
11
70.4384713
21
1.68492787
0
LINE
8
0
10
70.4384713
20
1.68492787
11
70.3171396
21
2.1487897
0
LINE
8
0
10
70.3171396
20
2.1487897
11
70.2597197
21
2.47510476
0
LINE
8
0
10
70.2597197
20
2.47510476
11
70.2126693
21
2.75080672
0
LINE
8
0
10
70.2126693
20
2.75080672
11
70.1814349
21
3.12347399
0
LINE
8
0
10
70.1814349
20
3.12347399
11
70.1635401
21
3.35322144
0
LINE
8
0
10
70.1635401
20
3.35322144
11
70.1670759
21
3.69313587
0
LINE
8
0
10
70.1670759
20
3.69313587
11
70.1715956
21
3.96331444
0
LINE
8
0
10
70.1715956
20
3.96331444
11
70.1985058
21
4.21678671
0
LINE
8
0
10
70.1985058
20
4.21678671
11
70.2404502
21
4.58882006
0
LINE
8
0
10
70.2404502
20
4.58882006
11
70.2656415
21
4.71370787
0
LINE
8
0
10
70.2656415
20
4.71370787
11
70.3389876
21
5.06591556
0
LINE
8
0
10
70.3389876
20
5.06591556
11
70.3590884
21
5.19196381
0
LINE
8
0
10
70.3590884
20
5.19196381
11
70.3666942
21
5.23799598
0
LINE
8
0
10
70.3666942
20
5.23799598
11
70.4644479
21
5.65017184
0
LINE
8
0
10
70.4644479
20
5.65017184
11
70.5299858
21
5.92031884
0
LINE
8
0
10
70.5299858
20
5.92031884
11
70.5894161
21
6.10947549
0
LINE
8
0
10
70.5894161
20
6.10947549
11
70.6944216
21
6.43853038
0
LINE
8
0
10
70.6944216
20
6.43853038
11
70.7270213
21
6.56764213
0
LINE
8
0
10
70.7270213
20
6.56764213
11
70.7474609
21
6.64727684
0
LINE
8
0
10
70.7474609
20
6.64727684
11
70.8633468
21
7.01596301
0
LINE
8
0
10
70.8633468
20
7.01596301
11
70.9959955
21
7.43316992
0
LINE
8
0
10
70.9959955
20
7.43316992
11
71.0133612
21
7.47960947
0
LINE
8
0
10
71.0133612
20
7.47960947
11
71.0343638
21
7.53536468
0
LINE
8
0
10
71.0343638
20
7.53536468
11
71.1520664
21
7.9299019
0
LINE
8
0
10
71.1520664
20
7.9299019
11
71.2621014
21
8.29594403
0
LINE
8
0
10
71.2621014
20
8.29594403
11
71.2973444
21
8.39836549
0
LINE
8
0
10
71.2973444
20
8.39836549
11
71.3331507
21
8.5019933
0
LINE
8
0
10
71.3331507
20
8.5019933
11
71.4285058
21
8.85745817
0
LINE
8
0
10
71.4285058
20
8.85745817
11
71.5367828
21
9.25938362
0
LINE
8
0
10
71.5367828
20
9.25938362
11
71.5895482
21
9.44049852
0
LINE
8
0
10
71.5895482
20
9.44049852
11
71.6914679
21
9.88002054
0
LINE
8
0
10
71.6914679
20
9.88002054
11
71.7670431
21
10.3563568
0
LINE
8
0
10
71.7670431
20
10.3563568
11
71.7670431
21
10.3563568
0
LINE
8
0
10
35.2
20
-11.6400905
11
35.2
21
-12.0559226
0
LINE
8
0
10
35.2
20
-12.0559226
11
35.2
21
-12.3213138
0
LINE
8
0
10
35.2
20
-12.3213138
11
35.2
21
-12.4703221
0
LINE
8
0
10
35.2
20
-12.4703221
11
35.2
21
-13.5
0
LINE
8
0
10
35.2
20
-13.5
11
35.1901786
21
-13.6998868
0
LINE
8
0
10
35.1901786
20
-13.6998868
11
35.1430196
21
-13.9920185
0
LINE
8
0
10
35.1430196
20
-13.9920185
11
35.1290673
21
-14.0859067
0
LINE
8
0
10
35.1290673
20
-14.0859067
11
35.0752273
21
-14.263663
0
LINE
8
0
10
35.0752273
20
-14.263663
11
34.9195291
21
-14.6395517
0
LINE
8
0
10
34.9195291
20
-14.6395517
11
34.8334879
21
-14.8007734
0
LINE
8
0
10
34.8334879
20
-14.8007734
11
34.5813916
21
-15.129319
0
LINE
8
0
10
34.5813916
20
-15.129319
11
34.46777
21
-15.26777
0
LINE
8
0
10
34.46777
20
-15.26777
11
34.3405392
21
-15.3721837
0
LINE
8
0
10
34.3405392
20
-15.3721837
11
33.9966587
21
-15.6360465
0
LINE
8
0
10
33.9966587
20
-15.6360465
11
33.8562609
21
-15.7112887
0
LINE
8
0
10
33.8562609
20
-15.7112887
11
33.4460211
21
-15.8812156
0
LINE
8
0
10
33.4460211
20
-15.8812156
11
33.2986666
21
-15.926092
0
LINE
8
0
10
33.2986666
20
-15.926092
11
33.16023
21
-15.9394065
0
LINE
8
0
10
33.16023
20
-15.9394065
11
32.930115
21
-15.9697033
0
LINE
8
0
10
32.930115
20
-15.9697033
11
32.8175673
21
-15.98842
0
LINE
8
0
10
32.8175673
20
-15.98842
11
32.7
21
-16
0
LINE
8
0
10
32.7
20
-16
11
31.0122246
21
-16
0
LINE
8
0
10
31.0122246
20
-16
11
30.7
21
-16
0
LINE
8
0
10
30.7
20
-16
11
30.289102
21
-15.9595277
0
LINE
8
0
10
30.289102
20
-15.9595277
11
30.1610114
21
-15.9400076
0
LINE
8
0
10
30.1610114
20
-15.9400076
11
29.8339985
21
-15.8404898
0
LINE
8
0
10
29.8339985
20
-15.8404898
11
29.6573767
21
-15.7673307
0
LINE
8
0
10
29.6573767
20
-15.7673307
11
29.3477654
21
-15.6014881
0
LINE
8
0
10
29.3477654
20
-15.6014881
11
29.2110076
21
-15.4965525
0
LINE
8
0
10
29.2110076
20
-15.4965525
11
28.93223
21
-15.26777
0
LINE
8
0
10
28.93223
20
-15.26777
11
28.6875423
21
-14.9696114
0
LINE
8
0
10
28.6875423
20
-14.9696114
11
28.6029316
21
-14.8593421
0
LINE
8
0
10
28.6029316
20
-14.8593421
11
28.41839
21
-14.5136687
0
LINE
8
0
10
28.41839
20
-14.5136687
11
28.369887
21
-14.3965721
0
LINE
8
0
10
28.369887
20
-14.3965721
11
28.2548087
21
-14.0167581
0
LINE
8
0
10
28.2548087
20
-14.0167581
11
28.2251415
21
-13.817042
0
LINE
8
0
10
28.2251415
20
-13.817042
11
28.21204
21
-13.74504
0
LINE
8
0
10
28.21204
20
-13.74504
11
28.2010713
21
-13.5218027
0
LINE
8
0
10
28.2010713
20
-13.5218027
11
28.2
21
-13.5
0
LINE
8
0
10
28.2
20
-13.5
11
28.2
21
-13.0014188
0
LINE
8
0
10
28.2
20
-13.0014188
11
28.2
21
-12.9102391
0
LINE
8
0
10
28.2
20
-12.9102391
11
28.2
21
-12.7471493
0
LINE
8
0
10
28.2
20
-12.7471493
11
28.2
21
-12.4791982
0
LINE
8
0
10
28.2
20
-12.4791982
11
28.2
21
-12.0569733
0
LINE
8
0
10
28.2
20
-12.0569733
11
28.2
21
-11.4089775
0
LINE
8
0
10
28.2
20
-11.4089775
11
28.2
21
-10.4413362
0
LINE
8
0
10
28.2
20
-10.4413362
11
28.2
21
-9.06097703
0
LINE
8
0
10
28.2
20
-9.06097703
11
28.2
21
-7.2597814
0
LINE
8
0
10
28.2
20
-7.2597814
11
28.2
21
-5.27745649
0
LINE
8
0
10
28.2
20
-5.27745649
11
28.2
21
-3.68379076
0
LINE
8
0
10
28.2
20
-3.68379076
11
28.2
21
-2.24836312
0
LINE
8
0
10
28.2
20
-2.24836312
11
28.2
21
-0.602529452
0
LINE
8
0
10
28.2
20
-0.602529452
11
28.2
21
1.68817829
0
LINE
8
0
10
28.2
20
1.68817829
11
28.2
21
3.89974599
0
LINE
8
0
10
28.2
20
3.89974599
11
28.2
21
5.66802373
0
LINE
8
0
10
28.2
20
5.66802373
11
28.2
21
6.95253027
0
LINE
8
0
10
28.2
20
6.95253027
11
28.2
21
9.89139362
0
LINE
8
0
10
28.2
20
9.89139362
11
28.2
21
11.4784996
0
LINE
8
0
10
28.2
20
11.4784996
11
28.2
21
11.709182
0
LINE
8
0
10
28.2
20
11.709182
11
28.2
21
13.9419632
0
LINE
8
0
10
28.2
20
13.9419632
11
28.2
21
15
0
LINE
8
0
10
28.2
20
15
11
30.0487375
21
15
0
LINE
8
0
10
30.0487375
20
15
11
30.2
21
15
0
LINE
8
0
10
30.2
20
15
11
30.2
21
12.838236
0
LINE
8
0
10
30.2
20
12.838236
11
30.2
21
12.65094
0
LINE
8
0
10
30.2
20
12.65094
11
30.2
21
12.4130841
0
LINE
8
0
10
30.2
20
12.4130841
11
30.2
21
12.39302
0
LINE
8
0
10
30.2
20
12.39302
11
30.2
21
12.1560877
0
LINE
8
0
10
30.2
20
12.1560877
11
30.2
21
12.13557
0
LINE
8
0
10
30.2
20
12.13557
11
30.2
21
11.9162181
0
LINE
8
0
10
30.2
20
11.9162181
11
30.2
21
11.89597
0
LINE
8
0
10
30.2
20
11.89597
11
30.2
21
11.7092883
0
LINE
8
0
10
30.2
20
11.7092883
11
30.2
21
11.69043
0
LINE
8
0
10
30.2
20
11.69043
11
30.2
21
11.5486855
0
LINE
8
0
10
30.2
20
11.5486855
11
30.2
21
11.53281
0
LINE
8
0
10
30.2
20
11.53281
11
30.2
21
10.3149682
0
LINE
8
0
10
30.2
20
10.3149682
11
30.2
21
10
0
LINE
8
0
10
30.2
20
10
11
34.2806448
21
10
0
LINE
8
0
10
34.2806448
20
10
11
35.2
21
10
0
LINE
8
0
10
35.2
20
10
11
35.2
21
9.26646226
0
LINE
8
0
10
35.2
20
9.26646226
11
35.2
21
4.95171813
0
LINE
8
0
10
35.2
20
4.95171813
11
35.2
21
3.62090892
0
LINE
8
0
10
35.2
20
3.62090892
11
35.2
21
2.03925902
0
LINE
8
0
10
35.2
20
2.03925902
11
35.2
21
0.311220595
0
LINE
8
0
10
35.2
20
0.311220595
11
35.2
21
-1.36790251
0
LINE
8
0
10
35.2
20
-1.36790251
11
35.2
21
-2.74897549
0
LINE
8
0
10
35.2
20
-2.74897549
11
35.2
21
-3.29765604
0
LINE
8
0
10
35.2
20
-3.29765604
11
35.2
21
-4.66269209
0
LINE
8
0
10
35.2
20
-4.66269209
11
35.2
21
-6.21965038
0
LINE
8
0
10
35.2
20
-6.21965038
11
35.2
21
-7.75059133
0
LINE
8
0
10
35.2
20
-7.75059133
11
35.2
21
-9.10010348
0
LINE
8
0
10
35.2
20
-9.10010348
11
35.2
21
-10.19672
0
LINE
8
0
10
35.2
20
-10.19672
11
35.2
21
-11.0338809
0
LINE
8
0
10
35.2
20
-11.0338809
11
35.2
21
-11.6400905
0
LINE
8
0
10
35.2
20
-11.6400905
11
35.2
21
-11.6400905
0
ENDSEC
0
EOF
