0
SECTION
2
ENTITIES
0
LINE
8
0
10
16
20
42.0456734
11
16
21
41.6488653
0
LINE
8
0
10
16
20
41.6488653
11
16
21
40.6611497
0
LINE
8
0
10
16
20
40.6611497
11
16
21
40.3914073
0
LINE
8
0
10
16
20
40.3914073
11
16
21
39.1519595
0
LINE
8
0
10
16
20
39.1519595
11
16
21
39.0521394
0
LINE
8
0
10
16
20
39.0521394
11
16
21
38.3791309
0
LINE
8
0
10
16
20
38.3791309
11
16.8590685
21
38.3791309
0
LINE
8
0
10
16.8590685
20
38.3791309
11
17.8
21
38.3791309
0
LINE
8
0
10
17.8
20
38.3791309
11
17.8
21
35.3309377
0
LINE
8
0
10
17.8
20
35.3309377
11
17.8
21
31.8766232
0
LINE
8
0
10
17.8
20
31.8766232
11
17.8
21
30.0282334
0
LINE
8
0
10
17.8
20
30.0282334
11
17.8
21
28.9398009
0
LINE
8
0
10
17.8
20
28.9398009
11
17.8
21
28.2616481
0
LINE
8
0
10
17.8
20
28.2616481
11
17.8
21
27.4586689
0
LINE
8
0
10
17.8
20
27.4586689
11
17.8
21
25.3471139
0
LINE
8
0
10
17.8
20
25.3471139
11
17.7845367
21
25.1028653
0
LINE
8
0
10
17.7845367
20
25.1028653
11
17.72314
21
24.1330839
0
LINE
8
0
10
17.72314
20
24.1330839
11
17.6773455
21
23.8982228
0
LINE
8
0
10
17.6773455
20
23.8982228
11
17.49552
21
22.9657139
0
LINE
8
0
10
17.49552
20
22.9657139
11
17.4211528
21
22.7492635
0
LINE
8
0
10
17.4211528
20
22.7492635
11
17.12588
21
21.8898539
0
LINE
8
0
10
17.12588
20
21.8898539
11
17.0257989
21
21.7001354
0
LINE
8
0
10
17.0257989
20
21.7001354
11
16.62843
21
20.9468639
0
LINE
8
0
10
16.62843
20
20.9468639
11
16.5699124
21
20.8643546
0
LINE
8
0
10
16.5699124
20
20.8643546
11
16.33757
21
20.5367459
0
LINE
8
0
10
16.33757
20
20.5367459
11
16.2741374
21
20.4635556
0
LINE
8
0
10
16.2741374
20
20.4635556
11
16.02228
21
20.1729639
0
LINE
8
0
10
16.02228
20
20.1729639
11
15.9545419
21
20.1098008
0
LINE
8
0
10
15.9545419
20
20.1098008
11
15.68559
21
19.8590059
0
LINE
8
0
10
15.68559
20
19.8590059
11
15.6141963
21
19.8064736
0
LINE
8
0
10
15.6141963
20
19.8064736
11
15.33073
21
19.5979039
0
LINE
8
0
10
15.33073
20
19.5979039
11
15.2563728
21
19.5565134
0
LINE
8
0
10
15.2563728
20
19.5565134
11
14.96114
21
19.3921739
0
LINE
8
0
10
14.96114
20
19.3921739
11
14.8845315
21
19.3623216
0
LINE
8
0
10
14.8845315
20
19.3623216
11
14.58036
21
19.2437859
0
LINE
8
0
10
14.58036
20
19.2437859
11
14.5022406
21
19.2257574
0
LINE
8
0
10
14.5022406
20
19.2257574
11
14.19207
21
19.1541839
0
LINE
8
0
10
14.19207
20
19.1541839
11
14.1131901
21
19.1481543
0
LINE
8
0
10
14.1131901
20
19.1481543
11
13.8
21
19.1242139
0
LINE
8
0
10
13.8
20
19.1242139
11
11.5064542
21
19.1242139
0
LINE
8
0
10
11.5064542
20
19.1242139
11
2.4
21
19.1242092
0
LINE
8
0
10
2.4
20
19.1242092
11
2.4
21
25.3052572
0
LINE
8
0
10
2.4
20
25.3052572
11
2.4
21
28.5235557
0
LINE
8
0
10
2.4
20
28.5235557
11
2.4
21
32.4059591
0
LINE
8
0
10
2.4
20
32.4059591
11
2.4
21
36.8602766
0
LINE
8
0
10
2.4
20
36.8602766
11
2.4
21
37.1882847
0
LINE
8
0
10
2.4
20
37.1882847
11
2.4
21
37.6466762
0
LINE
8
0
10
2.4
20
37.6466762
11
2.4
21
40.4368183
0
LINE
8
0
10
2.4
20
40.4368183
11
2.4
21
40.8455839
0
LINE
8
0
10
2.4
20
40.8455839
11
2.4
21
41.3883942
0
LINE
8
0
10
2.4
20
41.3883942
11
2.4
21
42.0430981
0
LINE
8
0
10
2.4
20
42.0430981
11
2.4
21
42.9689554
0
LINE
8
0
10
2.4
20
42.9689554
11
2.4
21
43.025382
0
LINE
8
0
10
2.4
20
43.025382
11
2.4
21
43.6963938
0
LINE
8
0
10
2.4
20
43.6963938
11
2.4
21
43.7495995
0
LINE
8
0
10
2.4
20
43.7495995
11
2.4
21
43.8023771
0
LINE
8
0
10
2.4
20
43.8023771
11
2.4
21
44.5028344
0
LINE
8
0
10
2.4
20
44.5028344
11
2.4
21
46.6006171
0
LINE
8
0
10
2.4
20
46.6006171
11
2.4
21
48.2
0
LINE
8
0
10
2.4
20
48.2
11
2.43181642
21
48.4416718
0
LINE
8
0
10
2.43181642
20
48.4416718
11
2.468148
21
48.71764
0
LINE
8
0
10
2.468148
20
48.71764
11
2.56142957
21
48.9428406
0
LINE
8
0
10
2.56142957
20
48.9428406
11
2.667949
21
49.2
0
LINE
8
0
10
2.667949
20
49.2
11
2.81633831
21
49.3933832
0
LINE
8
0
10
2.81633831
20
49.3933832
11
2.985786
21
49.61421
0
LINE
8
0
10
2.985786
20
49.61421
11
3.17917107
21
49.7626007
0
LINE
8
0
10
3.17917107
20
49.7626007
11
3.4
21
49.93205
0
LINE
8
0
10
3.4
20
49.93205
11
3.62520149
21
50.0253311
0
LINE
8
0
10
3.62520149
20
50.0253311
11
3.882362
21
50.13185
0
LINE
8
0
10
3.882362
20
50.13185
11
4.12403288
21
50.1636674
0
LINE
8
0
10
4.12403288
20
50.1636674
11
4.4
21
50.2
0
LINE
8
0
10
4.4
20
50.2
11
8.93520739
21
50.2
0
LINE
8
0
10
8.93520739
20
50.2
11
9.28328266
21
50.2
0
LINE
8
0
10
9.28328266
20
50.2
11
9.66690672
21
50.2
0
LINE
8
0
10
9.66690672
20
50.2
11
10.0504711
21
50.2
0
LINE
8
0
10
10.0504711
20
50.2
11
10.3880331
21
50.2
0
LINE
8
0
10
10.3880331
20
50.2
11
10.6328643
21
50.2
0
LINE
8
0
10
10.6328643
20
50.2
11
11.2781331
21
50.2
0
LINE
8
0
10
11.2781331
20
50.2
11
11.5075987
21
50.2
0
LINE
8
0
10
11.5075987
20
50.2
11
11.8018588
21
50.2
0
LINE
8
0
10
11.8018588
20
50.2
11
12.1214802
21
50.2
0
LINE
8
0
10
12.1214802
20
50.2
11
12.4297631
21
50.2
0
LINE
8
0
10
12.4297631
20
50.2
11
12.6997952
21
50.2
0
LINE
8
0
10
12.6997952
20
50.2
11
16
21
50.2
0
LINE
8
0
10
16
20
50.2
11
16
21
47.8741898
0
LINE
8
0
10
16
20
47.8741898
11
16
21
45.2
0
LINE
8
0
10
16
20
45.2
11
16
21
44.5514177
0
LINE
8
0
10
16
20
44.5514177
11
16
21
44.0343479
0
LINE
8
0
10
16
20
44.0343479
11
16
21
43.3352891
0
LINE
8
0
10
16
20
43.3352891
11
16
21
42.855892
0
LINE
8
0
10
16
20
42.855892
11
16
21
42.0456734
0
LINE
8
0
10
16
20
42.0456734
11
16
21
42.0456734
0
LINE
8
0
10
35.2
20
-0.70901518
11
35.2
21
-0.668655276
0
LINE
8
0
10
35.2
20
-0.668655276
11
35.2
21
1.23414852
0
LINE
8
0
10
35.2
20
1.23414852
11
35.2
21
2.97575877
0
LINE
8
0
10
35.2
20
2.97575877
11
35.2
21
4.44115953
0
LINE
8
0
10
35.2
20
4.44115953
11
35.2
21
9.19227584
0
LINE
8
0
10
35.2
20
9.19227584
11
35.2
21
10
0
LINE
8
0
10
35.2
20
10
11
34.1876657
21
10
0
LINE
8
0
10
34.1876657
20
10
11
30.2
21
10
0
LINE
8
0
10
30.2
20
10
11
30.2
21
10.3468226
0
LINE
8
0
10
30.2
20
10.3468226
11
30.2
21
11.53281
0
LINE
8
0
10
30.2
20
11.53281
11
30.2
21
11.5524372
0
LINE
8
0
10
30.2
20
11.5524372
11
30.2
21
11.69043
0
LINE
8
0
10
30.2
20
11.69043
11
30.2
21
11.7142751
0
LINE
8
0
10
30.2
20
11.7142751
11
30.2
21
11.89597
0
LINE
8
0
10
30.2
20
11.89597
11
30.2
21
11.9221121
0
LINE
8
0
10
30.2
20
11.9221121
11
30.2
21
12.13557
0
LINE
8
0
10
30.2
20
12.13557
11
30.2
21
12.1624673
0
LINE
8
0
10
30.2
20
12.1624673
11
30.2
21
12.39302
0
LINE
8
0
10
30.2
20
12.39302
11
30.2
21
12.4194766
0
LINE
8
0
10
30.2
20
12.4194766
11
30.2
21
12.65094
0
LINE
8
0
10
30.2
20
12.65094
11
30.2
21
12.8966152
0
LINE
8
0
10
30.2
20
12.8966152
11
30.2
21
15
0
LINE
8
0
10
30.2
20
15
11
29.9988118
21
15
0
LINE
8
0
10
29.9988118
20
15
11
28.2
21
15
0
LINE
8
0
10
28.2
20
15
11
28.2
21
13.5927473
0
LINE
8
0
10
28.2
20
13.5927473
11
28.2
21
11.4913062
0
LINE
8
0
10
28.2
20
11.4913062
11
28.2
21
11.2741933
0
LINE
8
0
10
28.2
20
11.2741933
11
28.2
21
9.78044653
0
LINE
8
0
10
28.2
20
9.78044653
11
28.2
21
6.0436065
0
LINE
8
0
10
28.2
20
6.0436065
11
28.2
21
4.41032355
0
LINE
8
0
10
28.2
20
4.41032355
11
28.2
21
2.16191312
0
LINE
8
0
10
28.2
20
2.16191312
11
28.2
21
-0.650151862
0
LINE
8
0
10
28.2
20
-0.650151862
11
28.2
21
-0.70901518
0
LINE
8
0
10
28.2
20
-0.70901518
11
28.4406488
21
-1.75662596
0
LINE
8
0
10
28.4406488
20
-1.75662596
11
28.4803523
21
-2.00045348
0
LINE
8
0
10
28.4803523
20
-2.00045348
11
28.5448389
21
-2.88922877
0
LINE
8
0
10
28.5448389
20
-2.88922877
11
28.5426285
21
-3.21234675
0
LINE
8
0
10
28.5426285
20
-3.21234675
11
28.4647176
21
-4.11043676
0
LINE
8
0
10
28.4647176
20
-4.11043676
11
28.4243253
21
-4.33951543
0
LINE
8
0
10
28.4243253
20
-4.33951543
11
28.2
21
-5.2606264
0
LINE
8
0
10
28.2
20
-5.2606264
11
28.2
21
-5.56540224
0
LINE
8
0
10
28.2
20
-5.56540224
11
28.2
21
-7.85566861
0
LINE
8
0
10
28.2
20
-7.85566861
11
28.2
21
-9.61083061
0
LINE
8
0
10
28.2
20
-9.61083061
11
28.2
21
-10.8412113
0
LINE
8
0
10
28.2
20
-10.8412113
11
28.2
21
-11.6651546
0
LINE
8
0
10
28.2
20
-11.6651546
11
28.2
21
-12.2020243
0
LINE
8
0
10
28.2
20
-12.2020243
11
28.2
21
-12.5427311
0
LINE
8
0
10
28.2
20
-12.5427311
11
28.2
21
-12.7501039
0
LINE
8
0
10
28.2
20
-12.7501039
11
28.2
21
-12.8660412
0
LINE
8
0
10
28.2
20
-12.8660412
11
28.2
21
-13.5
0
LINE
8
0
10
28.2
20
-13.5
11
28.2013621
21
-13.5277227
0
LINE
8
0
10
28.2013621
20
-13.5277227
11
28.21204
21
-13.74504
0
LINE
8
0
10
28.21204
20
-13.74504
11
28.2286738
21
-13.8364542
0
LINE
8
0
10
28.2286738
20
-13.8364542
11
28.2565959
21
-14.0244223
0
LINE
8
0
10
28.2565959
20
-14.0244223
11
28.3649048
21
-14.3818944
0
LINE
8
0
10
28.3649048
20
-14.3818944
11
28.4252459
21
-14.5275706
0
LINE
8
0
10
28.4252459
20
-14.5275706
11
28.5989321
21
-14.8529102
0
LINE
8
0
10
28.5989321
20
-14.8529102
11
28.7019356
21
-14.9871501
0
LINE
8
0
10
28.7019356
20
-14.9871501
11
28.93223
21
-15.26777
0
LINE
8
0
10
28.93223
20
-15.26777
11
29.1946089
21
-15.4830947
0
LINE
8
0
10
29.1946089
20
-15.4830947
11
29.3537792
21
-15.6052276
0
LINE
8
0
10
29.3537792
20
-15.6052276
11
29.6451781
21
-15.7613148
0
LINE
8
0
10
29.6451781
20
-15.7613148
11
29.846878
21
-15.8448616
0
LINE
8
0
10
29.846878
20
-15.8448616
11
30.1546548
21
-15.9385254
0
LINE
8
0
10
30.1546548
20
-15.9385254
11
30.2986299
21
-15.9604662
0
LINE
8
0
10
30.2986299
20
-15.9604662
11
30.7
21
-16
0
LINE
8
0
10
30.7
20
-16
11
31.0464381
21
-16
0
LINE
8
0
10
31.0464381
20
-16
11
32.7
21
-16
0
LINE
8
0
10
32.7
20
-16
11
32.8252361
21
-15.9876646
0
LINE
8
0
10
32.8252361
20
-15.9876646
11
32.9451251
21
-15.9677271
0
LINE
8
0
10
32.9451251
20
-15.9677271
11
33.1902503
21
-15.9354541
0
LINE
8
0
10
33.1902503
20
-15.9354541
11
33.3064414
21
-15.9242791
0
LINE
8
0
10
33.3064414
20
-15.9242791
11
33.4301174
21
-15.8866139
0
LINE
8
0
10
33.4301174
20
-15.8866139
11
33.8713239
21
-15.7038602
0
LINE
8
0
10
33.8713239
20
-15.7038602
11
33.9891611
21
-15.6407087
0
LINE
8
0
10
33.9891611
20
-15.6407087
11
34.360984
21
-15.3554053
0
LINE
8
0
10
34.360984
20
-15.3554053
11
34.46777
21
-15.26777
0
LINE
8
0
10
34.46777
20
-15.26777
11
34.5631336
21
-15.1515669
0
LINE
8
0
10
34.5631336
20
-15.1515669
11
34.8385612
21
-14.7926146
0
LINE
8
0
10
34.8385612
20
-14.7926146
11
34.9107764
21
-14.6572997
0
LINE
8
0
10
34.9107764
20
-14.6572997
11
35.0815879
21
-14.2449243
0
LINE
8
0
10
35.0815879
20
-14.2449243
11
35.1267763
21
-14.0957319
0
LINE
8
0
10
35.1267763
20
-14.0957319
11
35.1384866
21
-14.0169307
0
LINE
8
0
10
35.1384866
20
-14.0169307
11
35.1904024
21
-13.6953323
0
LINE
8
0
10
35.1904024
20
-13.6953323
11
35.2
21
-13.5
0
LINE
8
0
10
35.2
20
-13.5
11
35.2
21
-12.3661855
0
LINE
8
0
10
35.2
20
-12.3661855
11
35.2
21
-12.2021072
0
LINE
8
0
10
35.2
20
-12.2021072
11
35.2
21
-11.9098757
0
LINE
8
0
10
35.2
20
-11.9098757
11
35.2
21
-11.4519883
0
LINE
8
0
10
35.2
20
-11.4519883
11
35.2
21
-10.7844696
0
LINE
8
0
10
35.2
20
-10.7844696
11
35.2
21
-9.86264238
0
LINE
8
0
10
35.2
20
-9.86264238
11
35.2
21
-8.65511942
0
LINE
8
0
10
35.2
20
-8.65511942
11
35.2
21
-7.16912419
0
LINE
8
0
10
35.2
20
-7.16912419
11
35.2
21
-5.48335135
0
LINE
8
0
10
35.2
20
-5.48335135
11
35.2
21
-5.2606264
0
LINE
8
0
10
35.2
20
-5.2606264
11
34.9756747
21
-4.33951543
0
LINE
8
0
10
34.9756747
20
-4.33951543
11
34.9352824
21
-4.11043676
0
LINE
8
0
10
34.9352824
20
-4.11043676
11
34.8573715
21
-3.21234675
0
LINE
8
0
10
34.8573715
20
-3.21234675
11
34.8551611
21
-2.88922877
0
LINE
8
0
10
34.8551611
20
-2.88922877
11
34.9196477
21
-2.00045348
0
LINE
8
0
10
34.9196477
20
-2.00045348
11
34.9593512
21
-1.75662596
0
LINE
8
0
10
34.9593512
20
-1.75662596
11
35.2
21
-0.70901518
0
LINE
8
0
10
35.2
20
-0.70901518
11
35.2
21
-0.70901518
0
LINE
8
0
10
72
20
-10.7827067
11
72
21
-10.7023891
0
LINE
8
0
10
72
20
-10.7023891
11
72
21
-10.2608486
0
LINE
8
0
10
72
20
-10.2608486
11
72
21
-9.5885735
0
LINE
8
0
10
72
20
-9.5885735
11
72
21
-8.5527721
0
LINE
8
0
10
72
20
-8.5527721
11
72
21
-7.8308566
0
LINE
8
0
10
72
20
-7.8308566
11
72
21
-6.91771277
0
LINE
8
0
10
72
20
-6.91771277
11
72
21
-5.75253957
0
LINE
8
0
10
72
20
-5.75253957
11
72
21
-4.50157046
0
LINE
8
0
10
72
20
-4.50157046
11
71.9938052
21
-4.33768544
0
LINE
8
0
10
71.9938052
20
-4.33768544
11
71.9844152
21
-4.0738502
0
LINE
8
0
10
71.9844152
20
-4.0738502
11
71.9613638
21
-3.8621891
0
LINE
8
0
10
71.9613638
20
-3.8621891
11
71.9346491
21
-3.61516864
0
LINE
8
0
10
71.9346491
20
-3.61516864
11
71.8806159
21
-3.32439608
0
LINE
8
0
10
71.8806159
20
-3.32439608
11
71.8461525
21
-3.12564243
0
LINE
8
0
10
71.8461525
20
-3.12564243
11
71.7760151
21
-2.84661273
0
LINE
8
0
10
71.7760151
20
-2.84661273
11
71.714338
21
-2.59999443
0
LINE
8
0
10
71.714338
20
-2.59999443
11
71.6580521
21
-2.43191556
0
LINE
8
0
10
71.6580521
20
-2.43191556
11
71.534529
21
-2.03240289
0
LINE
8
0
10
71.534529
20
-2.03240289
11
71.3758733
21
-1.63107563
0
LINE
8
0
10
71.3758733
20
-1.63107563
11
71.3022507
21
-1.4266024
0
LINE
8
0
10
71.3022507
20
-1.4266024
11
71.0666589
21
-0.900001681
0
LINE
8
0
10
71.0666589
20
-0.900001681
11
71.0123389
21
-0.764323881
0
LINE
8
0
10
71.0123389
20
-0.764323881
11
70.7475223
21
-0.222088211
0
LINE
8
0
10
70.7475223
20
-0.222088211
11
70.6577908
21
-0.0122250879
0
LINE
8
0
10
70.6577908
20
-0.0122250879
11
70.437402
21
0.415325398
0
LINE
8
0
10
70.437402
20
0.415325398
11
70.2263345
21
0.8979059
0
LINE
8
0
10
70.2263345
20
0.8979059
11
70.1610075
21
1.02266673
0
LINE
8
0
10
70.1610075
20
1.02266673
11
70.101637
21
1.16306443
0
LINE
8
0
10
70.101637
20
1.16306443
11
69.9147137
21
1.60886906
0
LINE
8
0
10
69.9147137
20
1.60886906
11
69.7646102
21
2.08531916
0
LINE
8
0
10
69.7646102
20
2.08531916
11
69.7346738
21
2.18177353
0
LINE
8
0
10
69.7346738
20
2.18177353
11
69.633892
21
2.67493086
0
LINE
8
0
10
69.633892
20
2.67493086
11
69.6170103
21
2.74836504
0
LINE
8
0
10
69.6170103
20
2.74836504
11
69.616029
21
2.75867771
0
LINE
8
0
10
69.616029
20
2.75867771
11
69.5666355
21
3.31535701
0
LINE
8
0
10
69.5666355
20
3.31535701
11
69.5667308
21
3.31735162
0
LINE
8
0
10
69.5667308
20
3.31735162
11
69.5673787
21
3.32916597
0
LINE
8
0
10
69.5673787
20
3.32916597
11
69.5790347
21
3.81267172
0
LINE
8
0
10
69.5790347
20
3.81267172
11
69.5814154
21
3.88957942
0
LINE
8
0
10
69.5814154
20
3.88957942
11
69.6355208
21
4.2725459
0
LINE
8
0
10
69.6355208
20
4.2725459
11
69.666056
21
4.47827617
0
LINE
8
0
10
69.666056
20
4.47827617
11
69.7266553
21
4.71306874
0
LINE
8
0
10
69.7266553
20
4.71306874
11
69.8264263
21
5.0892531
0
LINE
8
0
10
69.8264263
20
5.0892531
11
69.8469744
21
5.14420794
0
LINE
8
0
10
69.8469744
20
5.14420794
11
69.8857884
21
5.24616822
0
LINE
8
0
10
69.8857884
20
5.24616822
11
69.9792405
21
5.56135354
0
LINE
8
0
10
69.9792405
20
5.56135354
11
70.0307282
21
5.73145044
0
LINE
8
0
10
70.0307282
20
5.73145044
11
70.1268835
21
5.97774479
0
LINE
8
0
10
70.1268835
20
5.97774479
11
70.2852523
21
6.37763232
0
LINE
8
0
10
70.2852523
20
6.37763232
11
70.2925264
21
6.40078441
0
LINE
8
0
10
70.2925264
20
6.40078441
11
70.2972738
21
6.41566134
0
LINE
8
0
10
70.2972738
20
6.41566134
11
70.4523702
21
6.81333482
0
LINE
8
0
10
70.4523702
20
6.81333482
11
70.5871976
21
7.1553211
0
LINE
8
0
10
70.5871976
20
7.1553211
11
70.627134
21
7.24155692
0
LINE
8
0
10
70.627134
20
7.24155692
11
70.6739704
21
7.3419779
0
LINE
8
0
10
70.6739704
20
7.3419779
11
70.7948314
21
7.66518537
0
LINE
8
0
10
70.7948314
20
7.66518537
11
70.9086526
21
7.96734508
0
LINE
8
0
10
70.9086526
20
7.96734508
11
70.9672751
21
8.10339726
0
LINE
8
0
10
70.9672751
20
8.10339726
11
71.0266016
21
8.24051722
0
LINE
8
0
10
71.0266016
20
8.24051722
11
71.1297189
21
8.54019143
0
LINE
8
0
10
71.1297189
20
8.54019143
11
71.2451022
21
8.87412507
0
LINE
8
0
10
71.2451022
20
8.87412507
11
71.3082955
21
9.03325477
0
LINE
8
0
10
71.3082955
20
9.03325477
11
71.5626751
21
9.90656083
0
LINE
8
0
10
71.5626751
20
9.90656083
11
71.6366785
21
10.1324813
0
LINE
8
0
10
71.6366785
20
10.1324813
11
71.639754
21
10.1447532
0
LINE
8
0
10
71.639754
20
10.1447532
11
71.8916839
21
11.4791936
0
LINE
8
0
10
71.8916839
20
11.4791936
11
71.9063356
21
11.5626714
0
LINE
8
0
10
71.9063356
20
11.5626714
11
71.9151943
21
11.6477993
0
LINE
8
0
10
71.9151943
20
11.6477993
11
71.9948405
21
12.9214455
0
LINE
8
0
10
71.9948405
20
12.9214455
11
72
21
13.0702809
0
LINE
8
0
10
72
20
13.0702809
11
72
21
13.0709318
0
LINE
8
0
10
72
20
13.0709318
11
72
21
16.1620718
0
LINE
8
0
10
72
20
16.1620718
11
72
21
16.5662124
0
LINE
8
0
10
72
20
16.5662124
11
72
21
19.3760444
0
LINE
8
0
10
72
20
19.3760444
11
72
21
19.552128
0
LINE
8
0
10
72
20
19.552128
11
72
21
19.763117
0
LINE
8
0
10
72
20
19.763117
11
72
21
19.9543773
0
LINE
8
0
10
72
20
19.9543773
11
72
21
20.3673874
0
LINE
8
0
10
72
20
20.3673874
11
72
21
21.3112296
0
LINE
8
0
10
72
20
21.3112296
11
72
21
21.8374605
0
LINE
8
0
10
72
20
21.8374605
11
72
21
23.3578637
0
LINE
8
0
10
72
20
23.3578637
11
72
21
27.6426203
0
LINE
8
0
10
72
20
27.6426203
11
66.554869
21
27.645202
0
LINE
8
0
10
66.554869
20
27.645202
11
63.0232892
21
27.6475839
0
LINE
8
0
10
63.0232892
20
27.6475839
11
62.9880844
21
27.6475839
0
LINE
8
0
10
62.9880844
20
27.6475839
11
62.5233165
21
27.24827
0
LINE
8
0
10
62.5233165
20
27.24827
11
62.255279
21
26.7809549
0
LINE
8
0
10
62.255279
20
26.7809549
11
62.0333872
21
26.3941072
0
LINE
8
0
10
62.0333872
20
26.3941072
11
62
21
26.3358989
0
LINE
8
0
10
62
20
26.3358989
11
62
21
25.8864342
0
LINE
8
0
10
62
20
25.8864342
11
62
21
25.551851
0
LINE
8
0
10
62
20
25.551851
11
62
21
25.4480945
0
LINE
8
0
10
62
20
25.4480945
11
62
21
25.3615656
0
LINE
8
0
10
62
20
25.3615656
11
62
21
25.3067162
0
LINE
8
0
10
62
20
25.3067162
11
62
21
10.8228187
0
LINE
8
0
10
62
20
10.8228187
11
62
21
10.775833
0
LINE
8
0
10
62
20
10.775833
11
62
21
10.7144689
0
LINE
8
0
10
62
20
10.7144689
11
62
21
10.6481494
0
LINE
8
0
10
62
20
10.6481494
11
62
21
10.5852041
0
LINE
8
0
10
62
20
10.5852041
11
62
21
10
0
LINE
8
0
10
62
20
10
11
61.6933418
21
10
0
LINE
8
0
10
61.6933418
20
10
11
57.3
21
10
0
LINE
8
0
10
57.3
20
10
11
57.3
21
8.61056225
0
LINE
8
0
10
57.3
20
8.61056225
11
57.3
21
7.67481071
0
LINE
8
0
10
57.3
20
7.67481071
11
57.3
21
6.46599479
0
LINE
8
0
10
57.3
20
6.46599479
11
57.3
21
5.03402859
0
LINE
8
0
10
57.3
20
5.03402859
11
57.3
21
5.0008029
0
LINE
8
0
10
57.3
20
5.0008029
11
57.5406488
21
3.95319124
0
LINE
8
0
10
57.5406488
20
3.95319124
11
57.5803523
21
3.70936376
0
LINE
8
0
10
57.5803523
20
3.70936376
11
57.6448389
21
2.82058923
0
LINE
8
0
10
57.6448389
20
2.82058923
11
57.6426285
21
2.49747125
0
LINE
8
0
10
57.6426285
20
2.49747125
11
57.5647176
21
1.59938124
0
LINE
8
0
10
57.5647176
20
1.59938124
11
57.5243253
21
1.37030249
0
LINE
8
0
10
57.5243253
20
1.37030249
11
57.3
21
0.449191605
0
LINE
8
0
10
57.3
20
0.449191605
11
57.3
21
0.181904887
0
LINE
8
0
10
57.3
20
0.181904887
11
57.3
21
-1.98346188
0
LINE
8
0
10
57.3
20
-1.98346188
11
57.3
21
-4.00424828
0
LINE
8
0
10
57.3
20
-4.00424828
11
57.3
21
-5.73885519
0
LINE
8
0
10
57.3
20
-5.73885519
11
57.3
21
-7.14300752
0
LINE
8
0
10
57.3
20
-7.14300752
11
57.3
21
-8.23228637
0
LINE
8
0
10
57.3
20
-8.23228637
11
57.3
21
-9.04894104
0
LINE
8
0
10
57.3
20
-9.04894104
11
57.3
21
-9.64134906
0
LINE
8
0
10
57.3
20
-9.64134906
11
57.3
21
-9.81952363
0
LINE
8
0
10
57.3
20
-9.81952363
11
57.3
21
-10.2475216
0
LINE
8
0
10
57.3
20
-10.2475216
11
57.3
21
-10.416046
0
LINE
8
0
10
57.3
20
-10.416046
11
57.3
21
-14.17729
0
LINE
8
0
10
57.3
20
-14.17729
11
57.3
21
-14.4327578
0
LINE
8
0
10
57.3
20
-14.4327578
11
57.3
21
-14.5
0
LINE
8
0
10
57.3
20
-14.5
11
57.3073217
21
-14.5665547
0
LINE
8
0
10
57.3073217
20
-14.5665547
11
57.3134041
21
-14.6018172
0
LINE
8
0
10
57.3134041
20
-14.6018172
11
57.3212016
21
-14.6610467
0
LINE
8
0
10
57.3212016
20
-14.6610467
11
57.3506881
21
-14.8850252
0
LINE
8
0
10
57.3506881
20
-14.8850252
11
57.3509855
21
-14.8877089
0
LINE
8
0
10
57.3509855
20
-14.8877089
11
57.3517475
21
-14.8900094
0
LINE
8
0
10
57.3517475
20
-14.8900094
11
57.5004453
21
-15.2489979
0
LINE
8
0
10
57.5004453
20
-15.2489979
11
57.5015325
21
-15.2508881
0
LINE
8
0
10
57.5015325
20
-15.2508881
11
57.7381563
21
-15.5592594
0
LINE
8
0
10
57.7381563
20
-15.5592594
11
57.7393988
21
-15.5607173
0
LINE
8
0
10
57.7393988
20
-15.5607173
11
58.0478651
21
-15.797414
0
LINE
8
0
10
58.0478651
20
-15.797414
11
58.0506969
21
-15.7994053
0
LINE
8
0
10
58.0506969
20
-15.7994053
11
58.4101278
21
-15.9482864
0
LINE
8
0
10
58.4101278
20
-15.9482864
11
58.4129782
21
-15.9491256
0
LINE
8
0
10
58.4129782
20
-15.9491256
11
58.5141541
21
-15.9688578
0
LINE
8
0
10
58.5141541
20
-15.9688578
11
58.6306495
21
-15.9901703
0
LINE
8
0
10
58.6306495
20
-15.9901703
11
58.67679
21
-15.99493
0
LINE
8
0
10
58.67679
20
-15.99493
11
58.7232912
21
-15.9978
0
LINE
8
0
10
58.7232912
20
-15.9978
11
58.73836
21
-15.99873
0
LINE
8
0
10
58.73836
20
-15.99873
11
58.7850094
21
-15.9996911
0
LINE
8
0
10
58.7850094
20
-15.9996911
11
58.8
21
-16
0
LINE
8
0
10
58.8
20
-16
11
61.6056168
21
-16
0
LINE
8
0
10
61.6056168
20
-16
11
69.5
21
-16
0
LINE
8
0
10
69.5
20
-16
11
69.7620124
21
-15.9655037
0
LINE
8
0
10
69.7620124
20
-15.9655037
11
70.14705
21
-15.91481
0
LINE
8
0
10
70.14705
20
-15.91481
11
70.3912048
21
-15.8136778
0
LINE
8
0
10
70.3912048
20
-15.8136778
11
70.75
21
-15.66506
0
LINE
8
0
10
70.75
20
-15.66506
11
70.9596625
21
-15.5041839
0
LINE
8
0
10
70.9596625
20
-15.5041839
11
71.26777
21
-15.26777
0
LINE
8
0
10
71.26777
20
-15.26777
11
71.4286461
21
-15.0581075
0
LINE
8
0
10
71.4286461
20
-15.0581075
11
71.66506
21
-14.75
0
LINE
8
0
10
71.66506
20
-14.75
11
71.7661922
21
-14.5058452
0
LINE
8
0
10
71.7661922
20
-14.5058452
11
71.91481
21
-14.14705
0
LINE
8
0
10
71.91481
20
-14.14705
11
71.9655037
21
-13.7620124
0
LINE
8
0
10
71.9655037
20
-13.7620124
11
72
21
-13.5
0
LINE
8
0
10
72
20
-13.5
11
72
21
-10.7827067
0
LINE
8
0
10
72
20
-10.7827067
11
72
21
-10.7827067
0
ENDSEC
0
EOF
