0
SECTION
2
ENTITIES
0
LINE
8
0
10
16
20
45.2
11
16
21
44.6148268
0
LINE
8
0
10
16
20
44.6148268
11
16
21
44.0522125
0
LINE
8
0
10
16
20
44.0522125
11
16
21
43.4188124
0
LINE
8
0
10
16
20
43.4188124
11
16
21
42.8921275
0
LINE
8
0
10
16
20
42.8921275
11
16
21
42.150076
0
LINE
8
0
10
16
20
42.150076
11
16
21
41.7045066
0
LINE
8
0
10
16
20
41.7045066
11
16
21
40.7878615
0
LINE
8
0
10
16
20
40.7878615
11
16
21
40.4680736
0
LINE
8
0
10
16
20
40.4680736
11
16
21
39.3032677
0
LINE
8
0
10
16
20
39.3032677
11
16
21
39.1521429
0
LINE
8
0
10
16
20
39.1521429
11
16
21
38.1332261
0
LINE
8
0
10
16
20
38.1332261
11
17.3006065
21
38.1332261
0
LINE
8
0
10
17.3006065
20
38.1332261
11
17.8
21
38.1332261
0
LINE
8
0
10
17.8
20
38.1332261
11
17.8
21
36.5154166
0
LINE
8
0
10
17.8
20
36.5154166
11
17.8
21
32.6325006
0
LINE
8
0
10
17.8
20
32.6325006
11
17.8
21
30.5547677
0
LINE
8
0
10
17.8
20
30.5547677
11
17.8
21
29.3312857
0
LINE
8
0
10
17.8
20
29.3312857
11
17.8
21
28.5689895
0
LINE
8
0
10
17.8
20
28.5689895
11
17.8
21
27.666379
0
LINE
8
0
10
17.8
20
27.666379
11
17.8
21
25.62081
0
LINE
8
0
10
17.8
20
25.62081
11
17.782618
21
25.3462558
0
LINE
8
0
10
17.782618
20
25.3462558
11
17.72314
21
24.40678
0
LINE
8
0
10
17.72314
20
24.40678
11
17.6716635
21
24.142778
0
LINE
8
0
10
17.6716635
20
24.142778
11
17.49552
21
23.23941
0
LINE
8
0
10
17.49552
20
23.23941
11
17.4119255
21
22.9961031
0
LINE
8
0
10
17.4119255
20
22.9961031
11
17.12588
21
22.16355
0
LINE
8
0
10
17.12588
20
22.16355
11
17.0133811
21
21.9502918
0
LINE
8
0
10
17.0133811
20
21.9502918
11
16.62843
21
21.22056
0
LINE
8
0
10
16.62843
20
21.22056
11
16.5626517
21
21.1278132
0
LINE
8
0
10
16.5626517
20
21.1278132
11
16.33757
21
20.8104423
0
LINE
8
0
10
16.33757
20
20.8104423
11
16.2662668
21
20.7281707
0
LINE
8
0
10
16.2662668
20
20.7281707
11
16.02228
21
20.44666
0
LINE
8
0
10
16.02228
20
20.44666
11
15.9461372
21
20.3756599
0
LINE
8
0
10
15.9461372
20
20.3756599
11
15.68559
21
20.1327023
0
LINE
8
0
10
15.68559
20
20.1327023
11
15.605338
21
20.0736519
0
LINE
8
0
10
15.605338
20
20.0736519
11
15.33073
21
19.8716
0
LINE
8
0
10
15.33073
20
19.8716
11
15.2471468
21
19.8250739
0
LINE
8
0
10
15.2471468
20
19.8250739
11
14.96114
21
19.66587
0
LINE
8
0
10
14.96114
20
19.66587
11
14.8750262
21
19.6323137
0
LINE
8
0
10
14.8750262
20
19.6323137
11
14.58036
21
19.5174823
0
LINE
8
0
10
14.58036
20
19.5174823
11
14.4925478
21
19.4972169
0
LINE
8
0
10
14.4925478
20
19.4972169
11
14.19207
21
19.42788
0
LINE
8
0
10
14.19207
20
19.42788
11
14.1034029
21
19.4211022
0
LINE
8
0
10
14.1034029
20
19.4211022
11
13.8
21
19.39791
0
LINE
8
0
10
13.8
20
19.39791
11
11.2218775
21
19.39791
0
LINE
8
0
10
11.2218775
20
19.39791
11
2.4
21
19.3979055
0
LINE
8
0
10
2.4
20
19.3979055
11
2.4
21
25.3857957
0
LINE
8
0
10
2.4
20
25.3857957
11
2.4
21
28.5035224
0
LINE
8
0
10
2.4
20
28.5035224
11
2.4
21
32.2646006
0
LINE
8
0
10
2.4
20
32.2646006
11
2.4
21
36.9840774
0
LINE
8
0
10
2.4
20
36.9840774
11
2.4
21
37.3316113
0
LINE
8
0
10
2.4
20
37.3316113
11
2.4
21
37.8172902
0
LINE
8
0
10
2.4
20
37.8172902
11
2.4
21
40.4672554
0
LINE
8
0
10
2.4
20
40.4672554
11
2.4
21
40.8948988
0
LINE
8
0
10
2.4
20
40.8948988
11
2.4
21
41.4627775
0
LINE
8
0
10
2.4
20
41.4627775
11
2.4
21
42.1477173
0
LINE
8
0
10
2.4
20
42.1477173
11
2.4
21
42.9956785
0
LINE
8
0
10
2.4
20
42.9956785
11
2.4
21
43.0473577
0
LINE
8
0
10
2.4
20
43.0473577
11
2.4
21
43.7460005
0
LINE
8
0
10
2.4
20
43.7460005
11
2.4
21
43.7942089
0
LINE
8
0
10
2.4
20
43.7942089
11
2.4
21
43.8420295
0
LINE
8
0
10
2.4
20
43.8420295
11
2.4
21
44.5709933
0
LINE
8
0
10
2.4
20
44.5709933
11
2.4
21
46.4636847
0
LINE
8
0
10
2.4
20
46.4636847
11
2.4
21
48.2
0
LINE
8
0
10
2.4
20
48.2
11
2.42870586
21
48.4180446
0
LINE
8
0
10
2.42870586
20
48.4180446
11
2.468148
21
48.71764
0
LINE
8
0
10
2.468148
20
48.71764
11
2.55230983
21
48.9208237
0
LINE
8
0
10
2.55230983
20
48.9208237
11
2.667949
21
49.2
0
LINE
8
0
10
2.667949
20
49.2
11
2.80183092
21
49.374477
0
LINE
8
0
10
2.80183092
20
49.374477
11
2.985786
21
49.61421
0
LINE
8
0
10
2.985786
20
49.61421
11
3.16026464
21
49.7480932
0
LINE
8
0
10
3.16026464
20
49.7480932
11
3.4
21
49.93205
0
LINE
8
0
10
3.4
20
49.93205
11
3.6031845
21
50.0162114
0
LINE
8
0
10
3.6031845
20
50.0162114
11
3.882362
21
50.13185
0
LINE
8
0
10
3.882362
20
50.13185
11
4.10040575
21
50.1605567
0
LINE
8
0
10
4.10040575
20
50.1605567
11
4.4
21
50.2
0
LINE
8
0
10
4.4
20
50.2
11
8.49181951
21
50.2
0
LINE
8
0
10
8.49181951
20
50.2
11
8.80586495
21
50.2
0
LINE
8
0
10
8.80586495
20
50.2
11
9.15198373
21
50.2
0
LINE
8
0
10
9.15198373
20
50.2
11
9.49804869
21
50.2
0
LINE
8
0
10
9.49804869
20
50.2
11
9.80260866
21
50.2
0
LINE
8
0
10
9.80260866
20
50.2
11
10.0235037
21
50.2
0
LINE
8
0
10
10.0235037
20
50.2
11
11.7397699
21
50.2
0
LINE
8
0
10
11.7397699
20
50.2
11
11.9468016
21
50.2
0
LINE
8
0
10
11.9468016
20
50.2
11
12.2122931
21
50.2
0
LINE
8
0
10
12.2122931
20
50.2
11
12.5006666
21
50.2
0
LINE
8
0
10
12.5006666
20
50.2
11
12.7788099
21
50.2
0
LINE
8
0
10
12.7788099
20
50.2
11
13.0224421
21
50.2
0
LINE
8
0
10
13.0224421
20
50.2
11
16
21
50.2
0
LINE
8
0
10
16
20
50.2
11
16
21
48.1015743
0
LINE
8
0
10
16
20
48.1015743
11
16
21
45.2
0
LINE
8
0
10
16
20
45.2
11
16
21
45.2
0
LINE
8
0
10
35.2
20
-8.43262739
11
35.2
21
-6.87839062
0
LINE
8
0
10
35.2
20
-6.87839062
11
35.2
21
-5.87305193
0
LINE
8
0
10
35.2
20
-5.87305193
11
35.0405854
21
-5.46763908
0
LINE
8
0
10
35.0405854
20
-5.46763908
11
34.9806313
21
-5.29205985
0
LINE
8
0
10
34.9806313
20
-5.29205985
11
34.7682861
21
-4.42014054
0
LINE
8
0
10
34.7682861
20
-4.42014054
11
34.690551
21
-3.97927868
0
LINE
8
0
10
34.690551
20
-3.97927868
11
34.6330267
21
-3.3161881
0
LINE
8
0
10
34.6330267
20
-3.3161881
11
34.629369
21
-2.78150036
0
LINE
8
0
10
34.629369
20
-2.78150036
11
34.6768289
21
-2.12739244
0
LINE
8
0
10
34.6768289
20
-2.12739244
11
34.7509204
21
-1.67238103
0
LINE
8
0
10
34.7509204
20
-1.67238103
11
34.9448777
21
-0.828031299
0
LINE
8
0
10
34.9448777
20
-0.828031299
11
35.0122068
21
-0.623103725
0
LINE
8
0
10
35.0122068
20
-0.623103725
11
35.2
21
-0.129063368
0
LINE
8
0
10
35.2
20
-0.129063368
11
35.2
21
0.831593273
0
LINE
8
0
10
35.2
20
0.831593273
11
35.2
21
2.6531837
0
LINE
8
0
10
35.2
20
2.6531837
11
35.2
21
4.18588023
0
LINE
8
0
10
35.2
20
4.18588023
11
35.2
21
9.15518262
0
LINE
8
0
10
35.2
20
9.15518262
11
35.2
21
10
0
LINE
8
0
10
35.2
20
10
11
34.1411761
21
10
0
LINE
8
0
10
34.1411761
20
10
11
30.2
21
10
0
LINE
8
0
10
30.2
20
10
11
30.2
21
10.3627497
0
LINE
8
0
10
30.2
20
10.3627497
11
30.2
21
11.53281
0
LINE
8
0
10
30.2
20
11.53281
11
30.2
21
11.554313
0
LINE
8
0
10
30.2
20
11.554313
11
30.2
21
11.69043
0
LINE
8
0
10
30.2
20
11.69043
11
30.2
21
11.7167684
0
LINE
8
0
10
30.2
20
11.7167684
11
30.2
21
11.89597
0
LINE
8
0
10
30.2
20
11.89597
11
30.2
21
11.9250591
0
LINE
8
0
10
30.2
20
11.9250591
11
30.2
21
12.13557
0
LINE
8
0
10
30.2
20
12.13557
11
30.2
21
12.1656572
0
LINE
8
0
10
30.2
20
12.1656572
11
30.2
21
12.39302
0
LINE
8
0
10
30.2
20
12.39302
11
30.2
21
12.4226729
0
LINE
8
0
10
30.2
20
12.4226729
11
30.2
21
12.65094
0
LINE
8
0
10
30.2
20
12.65094
11
30.2
21
12.9258047
0
LINE
8
0
10
30.2
20
12.9258047
11
30.2
21
15
0
LINE
8
0
10
30.2
20
15
11
29.9738489
21
15
0
LINE
8
0
10
29.9738489
20
15
11
28.2
21
15
0
LINE
8
0
10
28.2
20
15
11
28.2
21
13.4181394
0
LINE
8
0
10
28.2
20
13.4181394
11
28.2
21
11.3823683
0
LINE
8
0
10
28.2
20
11.3823683
11
28.2
21
11.1720402
0
LINE
8
0
10
28.2
20
11.1720402
11
28.2
21
9.72497298
0
LINE
8
0
10
28.2
20
9.72497298
11
28.2
21
5.58914462
0
LINE
8
0
10
28.2
20
5.58914462
11
28.2
21
3.78147346
0
LINE
8
0
10
28.2
20
3.78147346
11
28.2
21
1.29299668
0
LINE
8
0
10
28.2
20
1.29299668
11
28.2
21
-0.129063368
0
LINE
8
0
10
28.2
20
-0.129063368
11
28.3877932
21
-0.623103725
0
LINE
8
0
10
28.3877932
20
-0.623103725
11
28.4551223
21
-0.828031299
0
LINE
8
0
10
28.4551223
20
-0.828031299
11
28.6490796
21
-1.67238103
0
LINE
8
0
10
28.6490796
20
-1.67238103
11
28.7231711
21
-2.12739244
0
LINE
8
0
10
28.7231711
20
-2.12739244
11
28.770631
21
-2.78150036
0
LINE
8
0
10
28.770631
20
-2.78150036
11
28.7669733
21
-3.3161881
0
LINE
8
0
10
28.7669733
20
-3.3161881
11
28.709449
21
-3.97927868
0
LINE
8
0
10
28.709449
20
-3.97927868
11
28.6317139
21
-4.42014054
0
LINE
8
0
10
28.6317139
20
-4.42014054
11
28.4193687
21
-5.29205985
0
LINE
8
0
10
28.4193687
20
-5.29205985
11
28.3594146
21
-5.46763908
0
LINE
8
0
10
28.3594146
20
-5.46763908
11
28.2
21
-5.87305193
0
LINE
8
0
10
28.2
20
-5.87305193
11
28.2
21
-7.2530144
0
LINE
8
0
10
28.2
20
-7.2530144
11
28.2
21
-9.19557783
0
LINE
8
0
10
28.2
20
-9.19557783
11
28.2
21
-10.5573282
0
LINE
8
0
10
28.2
20
-10.5573282
11
28.2
21
-11.4692452
0
LINE
8
0
10
28.2
20
-11.4692452
11
28.2
21
-12.0634374
0
LINE
8
0
10
28.2
20
-12.0634374
11
28.2
21
-12.440522
0
LINE
8
0
10
28.2
20
-12.440522
11
28.2
21
-12.6700363
0
LINE
8
0
10
28.2
20
-12.6700363
11
28.2
21
-12.7983524
0
LINE
8
0
10
28.2
20
-12.7983524
11
28.2
21
-13.5
0
LINE
8
0
10
28.2
20
-13.5
11
28.2015076
21
-13.5306827
0
LINE
8
0
10
28.2015076
20
-13.5306827
11
28.21204
21
-13.74504
0
LINE
8
0
10
28.21204
20
-13.74504
11
28.2304399
21
-13.8461603
0
LINE
8
0
10
28.2304399
20
-13.8461603
11
28.2574894
21
-14.0282544
0
LINE
8
0
10
28.2574894
20
-14.0282544
11
28.3624137
21
-14.3745555
0
LINE
8
0
10
28.3624137
20
-14.3745555
11
28.4286738
21
-14.5345215
0
LINE
8
0
10
28.4286738
20
-14.5345215
11
28.5969323
21
-14.8496943
0
LINE
8
0
10
28.5969323
20
-14.8496943
11
28.7091323
21
-14.9959195
0
LINE
8
0
10
28.7091323
20
-14.9959195
11
28.93223
21
-15.26777
0
LINE
8
0
10
28.93223
20
-15.26777
11
29.1864096
21
-15.4763658
0
LINE
8
0
10
29.1864096
20
-15.4763658
11
29.3567861
21
-15.6070973
0
LINE
8
0
10
29.3567861
20
-15.6070973
11
29.6390788
21
-15.7583068
0
LINE
8
0
10
29.6390788
20
-15.7583068
11
29.8533178
21
-15.8470475
0
LINE
8
0
10
29.8533178
20
-15.8470475
11
30.1514766
21
-15.9377843
0
LINE
8
0
10
30.1514766
20
-15.9377843
11
30.3033939
21
-15.9609354
0
LINE
8
0
10
30.3033939
20
-15.9609354
11
30.7
21
-16
0
LINE
8
0
10
30.7
20
-16
11
31.0635449
21
-16
0
LINE
8
0
10
31.0635449
20
-16
11
32.7
21
-16
0
LINE
8
0
10
32.7
20
-16
11
32.8290704
21
-15.9872869
0
LINE
8
0
10
32.8290704
20
-15.9872869
11
32.9526302
21
-15.9667389
0
LINE
8
0
10
32.9526302
20
-15.9667389
11
33.2052604
21
-15.9334779
0
LINE
8
0
10
33.2052604
20
-15.9334779
11
33.3103287
21
-15.9233726
0
LINE
8
0
10
33.3103287
20
-15.9233726
11
33.4221655
21
-15.889313
0
LINE
8
0
10
33.4221655
20
-15.889313
11
33.8788555
21
-15.7001459
0
LINE
8
0
10
33.8788555
20
-15.7001459
11
33.9854122
21
-15.6430398
0
LINE
8
0
10
33.9854122
20
-15.6430398
11
34.3712064
21
-15.3470162
0
LINE
8
0
10
34.3712064
20
-15.3470162
11
34.46777
21
-15.26777
0
LINE
8
0
10
34.46777
20
-15.26777
11
34.5540046
21
-15.1626908
0
LINE
8
0
10
34.5540046
20
-15.1626908
11
34.8410979
21
-14.7885351
0
LINE
8
0
10
34.8410979
20
-14.7885351
11
34.9064001
21
-14.6661738
0
LINE
8
0
10
34.9064001
20
-14.6661738
11
35.0847681
21
-14.235555
0
LINE
8
0
10
35.0847681
20
-14.235555
11
35.1256308
21
-14.1006445
0
LINE
8
0
10
35.1256308
20
-14.1006445
11
35.1362201
21
-14.0293868
0
LINE
8
0
10
35.1362201
20
-14.0293868
11
35.1905143
21
-13.6930551
0
LINE
8
0
10
35.1905143
20
-13.6930551
11
35.2
21
-13.5
0
LINE
8
0
10
35.2
20
-13.5
11
35.2
21
-12.3141172
0
LINE
8
0
10
35.2
20
-12.3141172
11
35.2
21
-12.1425039
0
LINE
8
0
10
35.2
20
-12.1425039
11
35.2
21
-11.8368522
0
LINE
8
0
10
35.2
20
-11.8368522
11
35.2
21
-11.3579372
0
LINE
8
0
10
35.2
20
-11.3579372
11
35.2
21
-10.659764
0
LINE
8
0
10
35.2
20
-10.659764
11
35.2
21
-9.69560357
0
LINE
8
0
10
35.2
20
-9.69560357
11
35.2
21
-8.43262739
0
LINE
8
0
10
35.2
20
-8.43262739
11
35.2
21
-8.43262739
0
LINE
8
0
10
72
20
20.3084764
11
72
21
20.2268919
0
LINE
8
0
10
72
20
20.2268919
11
72
21
20.1368918
0
LINE
8
0
10
72
20
20.1368918
11
72
21
20.0617812
0
LINE
8
0
10
72
20
20.0617812
11
72
21
16.6914508
0
LINE
8
0
10
72
20
16.6914508
11
72
21
16.2999458
0
LINE
8
0
10
72
20
16.2999458
11
72
21
13.3054513
0
LINE
8
0
10
72
20
13.3054513
11
72
21
13.3047059
0
LINE
8
0
10
72
20
13.3047059
11
71.9940914
21
13.1342619
0
LINE
8
0
10
71.9940914
20
13.1342619
11
71.9169342
21
11.9004171
0
LINE
8
0
10
71.9169342
20
11.9004171
11
71.905646
21
11.7919439
0
LINE
8
0
10
71.905646
20
11.7919439
11
71.8869763
21
11.6855732
0
LINE
8
0
10
71.8869763
20
11.6855732
11
71.6429192
21
10.392834
0
LINE
8
0
10
71.6429192
20
10.392834
11
71.6337367
21
10.3561938
0
LINE
8
0
10
71.6337367
20
10.3561938
11
71.412784
21
9.68166121
0
LINE
8
0
10
71.412784
20
9.68166121
11
71.2624334
21
9.16549511
0
LINE
8
0
10
71.2624334
20
9.16549511
11
71.0702282
21
8.68149564
0
LINE
8
0
10
71.0702282
20
8.68149564
11
71.0459061
21
8.6111044
0
LINE
8
0
10
71.0459061
20
8.6111044
11
71.0241696
21
8.54793485
0
LINE
8
0
10
71.0241696
20
8.54793485
11
70.8623974
21
8.17403464
0
LINE
8
0
10
70.8623974
20
8.17403464
11
70.702545
21
7.80304607
0
LINE
8
0
10
70.702545
20
7.80304607
11
70.6855664
21
7.75797332
0
LINE
8
0
10
70.6855664
20
7.75797332
11
70.6675378
21
7.70976091
0
LINE
8
0
10
70.6675378
20
7.70976091
11
70.493557
21
7.33673228
0
LINE
8
0
10
70.493557
20
7.33673228
11
70.3452074
21
7.01639651
0
LINE
8
0
10
70.3452074
20
7.01639651
11
70.3121205
21
6.9324724
0
LINE
8
0
10
70.3121205
20
6.9324724
11
70.2710151
21
6.82707673
0
LINE
8
0
10
70.2710151
20
6.82707673
11
70.1247667
21
6.52717442
0
LINE
8
0
10
70.1247667
20
6.52717442
11
70.0150169
21
6.29985386
0
LINE
8
0
10
70.0150169
20
6.29985386
11
69.9477142
21
6.12991188
0
LINE
8
0
10
69.9477142
20
6.12991188
11
69.8511634
21
5.88260464
0
LINE
8
0
10
69.8511634
20
5.88260464
11
69.7789311
21
5.73659028
0
LINE
8
0
10
69.7789311
20
5.73659028
11
69.7302865
21
5.63701641
0
LINE
8
0
10
69.7302865
20
5.63701641
11
69.6170367
21
5.33952093
0
LINE
8
0
10
69.6170367
20
5.33952093
11
69.4956515
21
5.01488241
0
LINE
8
0
10
69.4956515
20
5.01488241
11
69.4771763
21
4.94522207
0
LINE
8
0
10
69.4771763
20
4.94522207
11
69.4372693
21
4.79060168
0
LINE
8
0
10
69.4372693
20
4.79060168
11
69.3512799
21
4.54096689
0
LINE
8
0
10
69.3512799
20
4.54096689
11
69.3115289
21
4.42300418
0
LINE
8
0
10
69.3115289
20
4.42300418
11
69.2514167
21
4.12262819
0
LINE
8
0
10
69.2514167
20
4.12262819
11
69.1994061
21
3.85271189
0
LINE
8
0
10
69.1994061
20
3.85271189
11
69.190143
21
3.68378862
0
LINE
8
0
10
69.190143
20
3.68378862
11
69.171627
21
3.29642535
0
LINE
8
0
10
69.171627
20
3.29642535
11
69.1795102
21
3.20757829
0
LINE
8
0
10
69.1795102
20
3.20757829
11
69.2233251
21
2.74714451
0
LINE
8
0
10
69.2233251
20
2.74714451
11
69.2425957
21
2.66331877
0
LINE
8
0
10
69.2425957
20
2.66331877
11
69.3521064
21
2.19826603
0
LINE
8
0
10
69.3521064
20
2.19826603
11
69.4305485
21
1.9854338
0
LINE
8
0
10
69.4305485
20
1.9854338
11
69.5582067
21
1.64327401
0
LINE
8
0
10
69.5582067
20
1.64327401
11
69.8051309
21
1.15347533
0
LINE
8
0
10
69.8051309
20
1.15347533
11
69.8381553
21
1.07538011
0
LINE
8
0
10
69.8381553
20
1.07538011
11
69.8909555
21
0.974542759
0
LINE
8
0
10
69.8909555
20
0.974542759
11
70.1473953
21
0.487008511
0
LINE
8
0
10
70.1473953
20
0.487008511
11
70.2894026
21
0.25907968
0
LINE
8
0
10
70.2894026
20
0.25907968
11
70.4907307
21
-0.130477873
0
LINE
8
0
10
70.4907307
20
-0.130477873
11
70.6947969
21
-0.475229072
0
LINE
8
0
10
70.6947969
20
-0.475229072
11
70.8472553
21
-0.787194731
0
LINE
8
0
10
70.8472553
20
-0.787194731
11
71.0350159
21
-1.13052563
0
LINE
8
0
10
71.0350159
20
-1.13052563
11
71.198069
21
-1.49543607
0
LINE
8
0
10
71.198069
20
-1.49543607
11
71.3162955
21
-1.73624734
0
LINE
8
0
10
71.3162955
20
-1.73624734
11
71.5271639
21
-2.27126272
0
LINE
8
0
10
71.5271639
20
-2.27126272
11
71.5430624
21
-2.30849614
0
LINE
8
0
10
71.5430624
20
-2.30849614
11
71.5630328
21
-2.36840747
0
LINE
8
0
10
71.5630328
20
-2.36840747
11
71.7189594
21
-2.83402933
0
LINE
8
0
10
71.7189594
20
-2.83402933
11
71.7944405
21
-3.13584328
0
LINE
8
0
10
71.7944405
20
-3.13584328
11
71.8484471
21
-3.33737776
0
LINE
8
0
10
71.8484471
20
-3.33737776
11
71.883783
21
-3.52876904
0
LINE
8
0
10
71.883783
20
-3.52876904
11
71.9355515
21
-3.80735447
0
LINE
8
0
10
71.9355515
20
-3.80735447
11
71.9690877
21
-4.11745132
0
LINE
8
0
10
71.9690877
20
-4.11745132
11
71.984617
21
-4.25266935
0
LINE
8
0
10
71.984617
20
-4.25266935
11
71.987612
21
-4.33253313
0
LINE
8
0
10
71.987612
20
-4.33253313
11
72
21
-4.66026378
0
LINE
8
0
10
72
20
-4.66026378
11
72
21
-5.39675202
0
LINE
8
0
10
72
20
-5.39675202
11
72
21
-6.6154336
0
LINE
8
0
10
72
20
-6.6154336
11
72
21
-7.57051185
0
LINE
8
0
10
72
20
-7.57051185
11
72
21
-8.32557996
0
LINE
8
0
10
72
20
-8.32557996
11
72
21
-9.40894859
0
LINE
8
0
10
72
20
-9.40894859
11
72
21
-10.1120966
0
LINE
8
0
10
72
20
-10.1120966
11
72
21
-10.5739141
0
LINE
8
0
10
72
20
-10.5739141
11
72
21
-10.6579201
0
LINE
8
0
10
72
20
-10.6579201
11
72
21
-13.5
0
LINE
8
0
10
72
20
-13.5
11
71.9639195
21
-13.7740448
0
LINE
8
0
10
71.9639195
20
-13.7740448
11
71.91481
21
-14.14705
0
LINE
8
0
10
71.91481
20
-14.14705
11
71.7708365
21
-14.4946329
0
LINE
8
0
10
71.7708365
20
-14.4946329
11
71.66506
21
-14.75
0
LINE
8
0
10
71.66506
20
-14.75
11
71.4360341
21
-15.0484791
0
LINE
8
0
10
71.4360341
20
-15.0484791
11
71.26777
21
-15.26777
0
LINE
8
0
10
71.26777
20
-15.26777
11
70.9692909
21
-15.4967959
0
LINE
8
0
10
70.9692909
20
-15.4967959
11
70.75
21
-15.66506
0
LINE
8
0
10
70.75
20
-15.66506
11
70.4024171
21
-15.8090335
0
LINE
8
0
10
70.4024171
20
-15.8090335
11
70.14705
21
-15.91481
0
LINE
8
0
10
70.14705
20
-15.91481
11
69.7740448
21
-15.9639195
0
LINE
8
0
10
69.7740448
20
-15.9639195
11
69.5
21
-16
0
LINE
8
0
10
69.5
20
-16
11
61.6976522
21
-16
0
LINE
8
0
10
61.6976522
20
-16
11
58.8
21
-16
0
LINE
8
0
10
58.8
20
-16
11
58.7845176
21
-15.999681
0
LINE
8
0
10
58.7845176
20
-15.999681
11
58.73836
21
-15.99873
0
LINE
8
0
10
58.73836
20
-15.99873
11
58.722803
21
-15.9977698
0
LINE
8
0
10
58.722803
20
-15.9977698
11
58.67679
21
-15.99493
0
LINE
8
0
10
58.67679
20
-15.99493
11
58.6311339
21
-15.9902203
0
LINE
8
0
10
58.6311339
20
-15.9902203
11
58.5109546
21
-15.9682338
0
LINE
8
0
10
58.5109546
20
-15.9682338
11
58.41177
21
-15.94889
0
LINE
8
0
10
58.41177
20
-15.94889
11
58.0592251
21
-15.8028612
0
LINE
8
0
10
58.0592251
20
-15.8028612
11
58.05
21
-15.79904
0
LINE
8
0
10
58.05
20
-15.79904
11
57.7472618
21
-15.5667387
0
LINE
8
0
10
57.7472618
20
-15.5667387
11
57.73934
21
-15.56066
0
LINE
8
0
10
57.73934
20
-15.56066
11
57.5070387
21
-15.2579218
0
LINE
8
0
10
57.5070387
20
-15.2579218
11
57.50096
21
-15.25
0
LINE
8
0
10
57.50096
20
-15.25
11
57.3549312
21
-14.8974551
0
LINE
8
0
10
57.3549312
20
-14.8974551
11
57.35111
21
-14.88823
0
LINE
8
0
10
57.35111
20
-14.88823
11
57.3221362
21
-14.6681462
0
LINE
8
0
10
57.3221362
20
-14.6681462
11
57.313995
21
-14.6063056
0
LINE
8
0
10
57.313995
20
-14.6063056
11
57.3076445
21
-14.5694886
0
LINE
8
0
10
57.3076445
20
-14.5694886
11
57.3
21
-14.5
0
LINE
8
0
10
57.3
20
-14.5
11
57.3
21
-14.4297935
0
LINE
8
0
10
57.3
20
-14.4297935
11
57.3
21
-14.17729
0
LINE
8
0
10
57.3
20
-14.17729
11
57.3
21
-10.2464877
0
LINE
8
0
10
57.3
20
-10.2464877
11
57.3
21
-10.0832297
0
LINE
8
0
10
57.3
20
-10.0832297
11
57.3
21
-9.63566862
0
LINE
8
0
10
57.3
20
-9.63566862
11
57.3
21
-9.46414777
0
LINE
8
0
10
57.3
20
-9.46414777
11
57.3
21
-8.84453453
0
LINE
8
0
10
57.3
20
-8.84453453
11
57.3
21
-7.99037652
0
LINE
8
0
10
57.3
20
-7.99037652
11
57.3
21
-6.85107459
0
LINE
8
0
10
57.3
20
-6.85107459
11
57.3
21
-5.38243921
0
LINE
8
0
10
57.3
20
-5.38243921
11
57.3
21
-3.56817374
0
LINE
8
0
10
57.3
20
-3.56817374
11
57.3
21
-1.45458652
0
LINE
8
0
10
57.3
20
-1.45458652
11
57.3
21
-0.163234012
0
LINE
8
0
10
57.3
20
-0.163234012
11
57.4594146
21
0.242178816
0
LINE
8
0
10
57.4594146
20
0.242178816
11
57.5193687
21
0.417758075
0
LINE
8
0
10
57.5193687
20
0.417758075
11
57.7317139
21
1.28967732
0
LINE
8
0
10
57.7317139
20
1.28967732
11
57.809449
21
1.73053932
0
LINE
8
0
10
57.809449
20
1.73053932
11
57.8669733
21
2.3936299
0
LINE
8
0
10
57.8669733
20
2.3936299
11
57.870631
21
2.92831764
0
LINE
8
0
10
57.870631
20
2.92831764
11
57.8231711
21
3.58242499
0
LINE
8
0
10
57.8231711
20
3.58242499
11
57.7490796
21
4.03743634
0
LINE
8
0
10
57.7490796
20
4.03743634
11
57.5551223
21
4.88178678
0
LINE
8
0
10
57.5551223
20
4.88178678
11
57.4877932
21
5.08671436
0
LINE
8
0
10
57.4877932
20
5.08671436
11
57.3
21
5.58075443
0
LINE
8
0
10
57.3
20
5.58075443
11
57.3
21
6.30370225
0
LINE
8
0
10
57.3
20
6.30370225
11
57.3
21
7.56803077
0
LINE
8
0
10
57.3
20
7.56803077
11
57.3
21
8.54675494
0
LINE
8
0
10
57.3
20
8.54675494
11
57.3
21
10
0
LINE
8
0
10
57.3
20
10
11
61.8950978
21
10
0
LINE
8
0
10
61.8950978
20
10
11
62
21
10
0
LINE
8
0
10
62
20
10
11
62
21
10.2001877
0
LINE
8
0
10
62
20
10.2001877
11
62
21
10.2217201
0
LINE
8
0
10
62
20
10.2217201
11
62
21
10.2444068
0
LINE
8
0
10
62
20
10.2444068
11
62
21
10.2653984
0
LINE
8
0
10
62
20
10.2653984
11
62
21
10.2814714
0
LINE
8
0
10
62
20
10.2814714
11
62
21
26.3118203
0
LINE
8
0
10
62
20
26.3118203
11
62
21
26.3305832
0
LINE
8
0
10
62
20
26.3305832
11
62
21
26.3601832
0
LINE
8
0
10
62
20
26.3601832
11
62
21
26.3956764
0
LINE
8
0
10
62
20
26.3956764
11
62
21
26.5101313
0
LINE
8
0
10
62
20
26.5101313
11
62
21
26.663885
0
LINE
8
0
10
62
20
26.663885
11
62.0114212
21
26.683797
0
LINE
8
0
10
62.0114212
20
26.683797
11
62.2435029
21
27.08841
0
LINE
8
0
10
62.2435029
20
27.08841
11
62.3351937
21
27.24827
0
LINE
8
0
10
62.3351937
20
27.24827
11
63.0217538
21
27.8381408
0
LINE
8
0
10
63.0217538
20
27.8381408
11
63.0737586
21
27.8381408
0
LINE
8
0
10
63.0737586
20
27.8381408
11
64.281848
21
27.837326
0
LINE
8
0
10
64.281848
20
27.837326
11
72
21
27.8336665
0
LINE
8
0
10
72
20
27.8336665
11
72
21
21.7602767
0
LINE
8
0
10
72
20
21.7602767
11
72
21
21.1117294
0
LINE
8
0
10
72
20
21.1117294
11
72
21
20.887259
0
LINE
8
0
10
72
20
20.887259
11
72
21
20.4846511
0
LINE
8
0
10
72
20
20.4846511
11
72
21
20.3084764
0
LINE
8
0
10
72
20
20.3084764
11
72
21
20.3084764
0
ENDSEC
0
EOF
