0
SECTION
2
ENTITIES
0
LINE
8
0
10
34.2399976
20
-0.380912481
11
34.3506999
21
-0.0896804215
0
LINE
8
0
10
34.3506999
20
-0.0896804215
11
34.6583515
21
0.543058742
0
LINE
8
0
10
34.6583515
20
0.543058742
11
35.1045861
21
1.40215893
0
LINE
8
0
10
35.1045861
20
1.40215893
11
35.1465345
21
1.46854251
0
LINE
8
0
10
35.1465345
20
1.46854251
11
35.2
21
1.55160421
0
LINE
8
0
10
35.2
20
1.55160421
11
35.2
21
3.16476304
0
LINE
8
0
10
35.2
20
3.16476304
11
35.2
21
9.00680977
0
LINE
8
0
10
35.2
20
9.00680977
11
35.2
21
10
0
LINE
8
0
10
35.2
20
10
11
33.9552179
21
10
0
LINE
8
0
10
33.9552179
20
10
11
30.2
21
10
0
LINE
8
0
10
30.2
20
10
11
30.2
21
10.4264584
0
LINE
8
0
10
30.2
20
10.4264584
11
30.2
21
11.53281
0
LINE
8
0
10
30.2
20
11.53281
11
30.2
21
11.5618163
0
LINE
8
0
10
30.2
20
11.5618163
11
30.2
21
11.69043
0
LINE
8
0
10
30.2
20
11.69043
11
30.2
21
11.726742
0
LINE
8
0
10
30.2
20
11.726742
11
30.2
21
11.89597
0
LINE
8
0
10
30.2
20
11.89597
11
30.2
21
11.9368471
0
LINE
8
0
10
30.2
20
11.9368471
11
30.2
21
12.13557
0
LINE
8
0
10
30.2
20
12.13557
11
30.2
21
12.1784165
0
LINE
8
0
10
30.2
20
12.1784165
11
30.2
21
12.39302
0
LINE
8
0
10
30.2
20
12.39302
11
30.2
21
12.435458
0
LINE
8
0
10
30.2
20
12.435458
11
30.2
21
12.65094
0
LINE
8
0
10
30.2
20
12.65094
11
30.2
21
13.0425629
0
LINE
8
0
10
30.2
20
13.0425629
11
30.2
21
15
0
LINE
8
0
10
30.2
20
15
11
29.8739974
21
15
0
LINE
8
0
10
29.8739974
20
15
11
28.2
21
15
0
LINE
8
0
10
28.2
20
15
11
28.2
21
12.7197076
0
LINE
8
0
10
28.2
20
12.7197076
11
28.2
21
10.9466166
0
LINE
8
0
10
28.2
20
10.9466166
11
28.2
21
10.7634277
0
LINE
8
0
10
28.2
20
10.7634277
11
28.2
21
9.50307879
0
LINE
8
0
10
28.2
20
9.50307879
11
28.2
21
3.7712971
0
LINE
8
0
10
28.2
20
3.7712971
11
28.2
21
1.55160421
0
LINE
8
0
10
28.2
20
1.55160421
11
28.2534655
21
1.46854251
0
LINE
8
0
10
28.2534655
20
1.46854251
11
28.2954139
21
1.40215893
0
LINE
8
0
10
28.2954139
20
1.40215893
11
28.7416485
21
0.543058742
0
LINE
8
0
10
28.7416485
20
0.543058742
11
29.0493001
21
-0.0896804215
0
LINE
8
0
10
29.0493001
20
-0.0896804215
11
29.1600024
21
-0.380912481
0
LINE
8
0
10
29.1600024
20
-0.380912481
11
29.4
21
-1.11138641
0
LINE
8
0
10
29.4
20
-1.11138641
11
32.8860151
21
-1.11138641
0
LINE
8
0
10
32.8860151
20
-1.11138641
11
34
21
-1.11138641
0
LINE
8
0
10
34
20
-1.11138641
11
34.2399976
21
-0.380912481
0
LINE
8
0
10
34.2399976
20
-0.380912481
11
34.2399976
21
-0.380912481
0
LINE
8
0
10
16
20
42.5676863
11
16
21
43.0370697
0
LINE
8
0
10
16
20
43.0370697
11
16
21
43.7529054
0
LINE
8
0
10
16
20
43.7529054
11
16
21
44.123671
0
LINE
8
0
10
16
20
44.123671
11
16
21
44.8684633
0
LINE
8
0
10
16
20
44.8684633
11
16
21
45.2
0
LINE
8
0
10
16
20
45.2
11
16
21
49.0111125
0
LINE
8
0
10
16
20
49.0111125
11
16
21
50.2
0
LINE
8
0
10
16
20
50.2
11
14.3130299
21
50.2
0
LINE
8
0
10
14.3130299
20
50.2
11
14.1749972
21
50.2
0
LINE
8
0
10
14.1749972
20
50.2
11
14.0174119
21
50.2
0
LINE
8
0
10
14.0174119
20
50.2
11
13.8540305
21
50.2
0
LINE
8
0
10
13.8540305
20
50.2
11
13.7036132
21
50.2
0
LINE
8
0
10
13.7036132
20
50.2
11
13.586317
21
50.2
0
LINE
8
0
10
13.586317
20
50.2
11
7.58606156
21
50.2
0
LINE
8
0
10
7.58606156
20
50.2
11
7.46091089
21
50.2
0
LINE
8
0
10
7.46091089
20
50.2
11
7.28835889
21
50.2
0
LINE
8
0
10
7.28835889
20
50.2
11
7.09229176
21
50.2
0
LINE
8
0
10
7.09229176
20
50.2
11
6.89619413
21
50.2
0
LINE
8
0
10
6.89619413
20
50.2
11
6.71826803
21
50.2
0
LINE
8
0
10
6.71826803
20
50.2
11
4.4
21
50.2
0
LINE
8
0
10
4.4
20
50.2
11
4.00589723
21
50.1481141
0
LINE
8
0
10
4.00589723
20
50.1481141
11
3.882362
21
50.13185
0
LINE
8
0
10
3.882362
20
50.13185
11
3.51511655
21
49.9797326
0
LINE
8
0
10
3.51511655
20
49.9797326
11
3.4
21
49.93205
0
LINE
8
0
10
3.4
20
49.93205
11
3.08463891
21
49.6900631
0
LINE
8
0
10
3.08463891
20
49.6900631
11
2.985786
21
49.61421
0
LINE
8
0
10
2.985786
20
49.61421
11
2.74380136
21
49.298852
0
LINE
8
0
10
2.74380136
20
49.298852
11
2.667949
21
49.2
0
LINE
8
0
10
2.667949
20
49.2
11
2.51583086
21
48.8327561
0
LINE
8
0
10
2.51583086
20
48.8327561
11
2.468148
21
48.71764
0
LINE
8
0
10
2.468148
20
48.71764
11
2.41626364
21
48.3235357
0
LINE
8
0
10
2.41626364
20
48.3235357
11
2.4
21
48.2
0
LINE
8
0
10
2.4
20
48.2
11
2.4
21
45.9159553
0
LINE
8
0
10
2.4
20
45.9159553
11
2.4
21
44.843629
0
LINE
8
0
10
2.4
20
44.843629
11
2.4
21
44.0006387
0
LINE
8
0
10
2.4
20
44.0006387
11
2.4
21
43.9726466
0
LINE
8
0
10
2.4
20
43.9726466
11
2.4
21
43.9444274
0
LINE
8
0
10
2.4
20
43.9444274
11
2.4
21
43.1352603
0
LINE
8
0
10
2.4
20
43.1352603
11
2.4
21
43.1025707
0
LINE
8
0
10
2.4
20
43.1025707
11
2.4
21
42.5661943
0
LINE
8
0
10
2.4
20
42.5661943
11
2.4
21
41.7603107
0
LINE
8
0
10
2.4
20
41.7603107
11
2.4
21
41.0921584
0
LINE
8
0
10
2.4
20
41.0921584
11
2.4
21
40.5890035
0
LINE
8
0
10
2.4
20
40.5890035
11
2.4
21
38.4997464
0
LINE
8
0
10
2.4
20
38.4997464
11
2.4
21
37.9049179
0
LINE
8
0
10
2.4
20
37.9049179
11
2.4
21
37.4792805
0
LINE
8
0
10
2.4
20
37.4792805
11
2.4
21
31.699167
0
LINE
8
0
10
2.4
20
31.699167
11
2.4
21
28.4233892
0
LINE
8
0
10
2.4
20
28.4233892
11
2.4
21
25.7079498
0
LINE
8
0
10
2.4
20
25.7079498
11
2.4
21
20.4926906
0
LINE
8
0
10
2.4
20
20.4926906
11
10.0835708
21
20.4926945
0
LINE
8
0
10
10.0835708
20
20.4926945
11
13.8
21
20.4926945
0
LINE
8
0
10
13.8
20
20.4926945
11
14.0642542
21
20.5128942
0
LINE
8
0
10
14.0642542
20
20.5128942
11
14.19207
21
20.5226645
0
LINE
8
0
10
14.19207
20
20.5226645
11
14.4537765
21
20.5830547
0
LINE
8
0
10
14.4537765
20
20.5830547
11
14.58036
21
20.6122678
0
LINE
8
0
10
14.58036
20
20.6122678
11
14.8370047
21
20.7122822
0
LINE
8
0
10
14.8370047
20
20.7122822
11
14.96114
21
20.7606545
0
LINE
8
0
10
14.96114
20
20.7606545
11
15.2102427
21
20.899316
0
LINE
8
0
10
15.2102427
20
20.899316
11
15.33073
21
20.9663845
0
LINE
8
0
10
15.33073
20
20.9663845
11
15.5699047
21
21.1423652
0
LINE
8
0
10
15.5699047
20
21.1423652
11
15.68559
21
21.2274878
0
LINE
8
0
10
15.68559
20
21.2274878
11
15.9125182
21
21.439096
0
LINE
8
0
10
15.9125182
20
21.439096
11
16.02228
21
21.5414445
0
LINE
8
0
10
16.02228
20
21.5414445
11
16.2347847
21
21.7866313
0
LINE
8
0
10
16.2347847
20
21.7866313
11
16.33757
21
21.9052278
0
LINE
8
0
10
16.33757
20
21.9052278
11
16.5336089
21
22.1816476
0
LINE
8
0
10
16.5336089
20
22.1816476
11
16.62843
21
22.3153445
0
LINE
8
0
10
16.62843
20
22.3153445
11
16.96371
21
22.9509173
0
LINE
8
0
10
16.96371
20
22.9509173
11
17.12588
21
23.2583345
0
LINE
8
0
10
17.12588
20
23.2583345
11
17.3750164
21
23.9834614
0
LINE
8
0
10
17.3750164
20
23.9834614
11
17.49552
21
24.3341945
0
LINE
8
0
10
17.49552
20
24.3341945
11
17.6489353
21
25.1209989
0
LINE
8
0
10
17.6489353
20
25.1209989
11
17.72314
21
25.5015645
0
LINE
8
0
10
17.72314
20
25.5015645
11
17.7749434
21
26.3198176
0
LINE
8
0
10
17.7749434
20
26.3198176
11
17.8
21
26.7155945
0
LINE
8
0
10
17.8
20
26.7155945
11
17.8
21
28.4972191
0
LINE
8
0
10
17.8
20
28.4972191
11
17.8
21
29.7983552
0
LINE
8
0
10
17.8
20
29.7983552
11
17.8
21
30.8972245
0
LINE
8
0
10
17.8
20
30.8972245
11
17.8
21
32.6609051
0
LINE
8
0
10
17.8
20
32.6609051
11
17.8
21
35.6560099
0
LINE
8
0
10
17.8
20
35.6560099
11
17.8
21
37.3190568
0
LINE
8
0
10
17.8
20
37.3190568
11
17.114628
21
37.3190568
0
LINE
8
0
10
17.114628
20
37.3190568
11
16
21
37.3190568
0
LINE
8
0
10
16
20
37.3190568
11
16
21
38.3696321
0
LINE
8
0
10
16
20
38.3696321
11
16
21
39.5521566
0
LINE
8
0
10
16
20
39.5521566
11
16
21
39.9085006
0
LINE
8
0
10
16
20
39.9085006
11
16
21
40.7747387
0
LINE
8
0
10
16
20
40.7747387
11
16
21
41.2947085
0
LINE
8
0
10
16
20
41.2947085
11
16
21
41.9270716
0
LINE
8
0
10
16
20
41.9270716
11
16
21
42.5676863
0
LINE
8
0
10
16
20
42.5676863
11
16
21
42.5676863
0
LINE
8
0
10
35.2
20
-12.105844
11
35.2
21
-13.5
0
LINE
8
0
10
35.2
20
-13.5
11
35.1909618
21
-13.6839461
0
LINE
8
0
10
35.1909618
20
-13.6839461
11
35.127154
21
-14.0792111
0
LINE
8
0
10
35.127154
20
-14.0792111
11
35.1210487
21
-14.1202948
0
LINE
8
0
10
35.1210487
20
-14.1202948
11
35.0974893
21
-14.1980777
0
LINE
8
0
10
35.0974893
20
-14.1980777
11
34.8888947
21
-14.7016699
0
LINE
8
0
10
34.8888947
20
-14.7016699
11
34.8512446
21
-14.7722175
0
LINE
8
0
10
34.8512446
20
-14.7722175
11
34.5174887
21
-15.2071864
0
LINE
8
0
10
34.5174887
20
-15.2071864
11
34.46777
21
-15.26777
0
LINE
8
0
10
34.46777
20
-15.26777
11
34.4120961
21
-15.3134595
0
LINE
8
0
10
34.4120961
20
-15.3134595
11
33.970417
21
-15.6523642
0
LINE
8
0
10
33.970417
20
-15.6523642
11
33.9089815
21
-15.6852888
0
LINE
8
0
10
33.9089815
20
-15.6852888
11
33.3903579
21
-15.9001097
0
LINE
8
0
10
33.3903579
20
-15.9001097
11
33.3258783
21
-15.9197468
0
LINE
8
0
10
33.3258783
20
-15.9197468
11
33.265301
21
-15.925573
0
LINE
8
0
10
33.265301
20
-15.925573
11
32.9826505
21
-15.9627865
0
LINE
8
0
10
32.9826505
20
-15.9627865
11
32.844408
21
-15.9857762
0
LINE
8
0
10
32.844408
20
-15.9857762
11
32.7
21
-16
0
LINE
8
0
10
32.7
20
-16
11
31.131972
21
-16
0
LINE
8
0
10
31.131972
20
-16
11
30.7
21
-16
0
LINE
8
0
10
30.7
20
-16
11
30.3224497
21
-15.9628124
0
LINE
8
0
10
30.3224497
20
-15.9628124
11
30.1387635
21
-15.9348199
0
LINE
8
0
10
30.1387635
20
-15.9348199
11
29.8790768
21
-15.855791
0
LINE
8
0
10
29.8790768
20
-15.855791
11
29.6146815
21
-15.746275
0
LINE
8
0
10
29.6146815
20
-15.746275
11
29.3688137
21
-15.6145764
0
LINE
8
0
10
29.3688137
20
-15.6145764
11
29.1536122
21
-15.4494502
0
LINE
8
0
10
29.1536122
20
-15.4494502
11
28.93223
21
-15.26777
0
LINE
8
0
10
28.93223
20
-15.26777
11
28.7379191
21
-15.030997
0
LINE
8
0
10
28.7379191
20
-15.030997
11
28.5889333
21
-14.8368305
0
LINE
8
0
10
28.5889333
20
-14.8368305
11
28.4423856
21
-14.5623252
0
LINE
8
0
10
28.4423856
20
-14.5623252
11
28.3524494
21
-14.3451999
0
LINE
8
0
10
28.3524494
20
-14.3451999
11
28.2610637
21
-14.0435829
0
LINE
8
0
10
28.2610637
20
-14.0435829
11
28.2375044
21
-13.8849848
0
LINE
8
0
10
28.2375044
20
-13.8849848
11
28.21204
21
-13.74504
0
LINE
8
0
10
28.21204
20
-13.74504
11
28.2020893
21
-13.5425226
0
LINE
8
0
10
28.2020893
20
-13.5425226
11
28.2
21
-13.5
0
LINE
8
0
10
28.2
20
-13.5
11
28.2
21
-12.5275973
0
LINE
8
0
10
28.2
20
-12.5275973
11
28.2
21
-12.349766
0
LINE
8
0
10
28.2
20
-12.349766
11
28.2
21
-12.0316855
0
LINE
8
0
10
28.2
20
-12.0316855
11
28.2
21
-11.5090897
0
LINE
8
0
10
28.2
20
-11.5090897
11
28.2
21
-10.6856078
0
LINE
8
0
10
28.2
20
-10.6856078
11
28.2
21
-9.42179589
0
LINE
8
0
10
28.2
20
-9.42179589
11
28.2
21
-7.56320149
0
LINE
8
0
10
28.2
20
-7.56320149
11
28.2070968
21
-7.55235608
0
LINE
8
0
10
28.2070968
20
-7.55235608
11
28.2128286
21
-7.54343614
0
LINE
8
0
10
28.2128286
20
-7.54343614
11
28.7025047
21
-6.62205744
0
LINE
8
0
10
28.7025047
20
-6.62205744
11
28.9980986
21
-6.02872068
0
LINE
8
0
10
28.9980986
20
-6.02872068
11
29.1288662
21
-5.69616108
0
LINE
8
0
10
29.1288662
20
-5.69616108
11
29.4
21
-4.90212865
0
LINE
8
0
10
29.4
20
-4.90212865
11
30.1970879
21
-4.90212865
0
LINE
8
0
10
30.1970879
20
-4.90212865
11
34
21
-4.90212865
0
LINE
8
0
10
34
20
-4.90212865
11
34.2711338
21
-5.69616108
0
LINE
8
0
10
34.2711338
20
-5.69616108
11
34.4019014
21
-6.02872068
0
LINE
8
0
10
34.4019014
20
-6.02872068
11
34.6974953
21
-6.62205744
0
LINE
8
0
10
34.6974953
20
-6.62205744
11
35.1871714
21
-7.54343614
0
LINE
8
0
10
35.1871714
20
-7.54343614
11
35.1929032
21
-7.55235608
0
LINE
8
0
10
35.1929032
20
-7.55235608
11
35.2
21
-7.56320149
0
LINE
8
0
10
35.2
20
-7.56320149
11
35.2
21
-9.02744833
0
LINE
8
0
10
35.2
20
-9.02744833
11
35.2
21
-10.1609415
0
LINE
8
0
10
35.2
20
-10.1609415
11
35.2
21
-10.9817329
0
LINE
8
0
10
35.2
20
-10.9817329
11
35.2
21
-11.5447583
0
LINE
8
0
10
35.2
20
-11.5447583
11
35.2
21
-11.9040908
0
LINE
8
0
10
35.2
20
-11.9040908
11
35.2
21
-12.105844
0
LINE
8
0
10
35.2
20
-12.105844
11
35.2
21
-12.105844
0
LINE
8
0
10
72
20
-5.40631694
11
72
21
-5.23691205
0
LINE
8
0
10
72
20
-5.23691205
11
71.9971046
21
-5.16358803
0
LINE
8
0
10
71.9971046
20
-5.16358803
11
71.9853528
21
-4.86340233
0
LINE
8
0
10
71.9853528
20
-4.86340233
11
71.9541766
21
-4.60357788
0
LINE
8
0
10
71.9541766
20
-4.60357788
11
71.9388669
21
-4.47497436
0
LINE
8
0
10
71.9388669
20
-4.47497436
11
71.8881718
21
-4.22754693
0
LINE
8
0
10
71.8881718
20
-4.22754693
11
71.8568135
21
-4.0664384
0
LINE
8
0
10
71.8568135
20
-4.0664384
11
71.823425
21
-3.94837578
0
LINE
8
0
10
71.823425
20
-3.94837578
11
71.7356878
21
-3.63604946
0
LINE
8
0
10
71.7356878
20
-3.63604946
11
71.5850204
21
-3.23651274
0
LINE
8
0
10
71.5850204
20
-3.23651274
11
71.5726971
21
-3.20181676
0
LINE
8
0
10
71.5726971
20
-3.20181676
11
71.555257
21
-3.16354573
0
LINE
8
0
10
71.555257
20
-3.16354573
11
71.3649898
21
-2.7438054
0
LINE
8
0
10
71.3649898
20
-2.7438054
11
71.1597135
21
-2.3816315
0
LINE
8
0
10
71.1597135
20
-2.3816315
11
71.1117028
21
-2.29079179
0
LINE
8
0
10
71.1117028
20
-2.29079179
11
71.0197138
21
-2.14930596
0
LINE
8
0
10
71.0197138
20
-2.14930596
11
70.8115532
21
-1.82786075
0
LINE
8
0
10
70.8115532
20
-1.82786075
11
70.6538101
21
-1.6286503
0
LINE
8
0
10
70.6538101
20
-1.6286503
11
70.4657503
21
-1.37054233
0
LINE
8
0
10
70.4657503
20
-1.37054233
11
70.0941276
21
-0.952877554
0
LINE
8
0
10
70.0941276
20
-0.952877554
11
70.0776066
21
-0.93236534
0
LINE
8
0
10
70.0776066
20
-0.93236534
11
70.0300485
21
-0.884300344
0
LINE
8
0
10
70.0300485
20
-0.884300344
11
69.6491618
21
-0.49846018
0
LINE
8
0
10
69.6491618
20
-0.49846018
11
69.4480079
21
-0.335967225
0
LINE
8
0
10
69.4480079
20
-0.335967225
11
69.18966
21
-0.0991843507
0
LINE
8
0
10
69.18966
20
-0.0991843507
11
68.715884
21
0.235963138
0
LINE
8
0
10
68.715884
20
0.235963138
11
68.7121298
21
0.239073037
0
LINE
8
0
10
68.7121298
20
0.239073037
11
68.7059048
21
0.242806659
0
LINE
8
0
10
68.7059048
20
0.242806659
11
68.2245908
21
0.532024278
0
LINE
8
0
10
68.2245908
20
0.532024278
11
67.8426725
21
0.673570916
0
LINE
8
0
10
67.8426725
20
0.673570916
11
67.755651
21
0.705880574
0
LINE
8
0
10
67.755651
20
0.705880574
11
67.331152
21
0.760904524
0
LINE
8
0
10
67.331152
20
0.760904524
11
67.3205143
21
0.763384701
0
LINE
8
0
10
67.3205143
20
0.763384701
11
67.218671
21
0.763176794
0
LINE
8
0
10
67.218671
20
0.763176794
11
58.5
21
0.807688882
0
LINE
8
0
10
58.5
20
0.807688882
11
58.2288662
21
0.0136563149
0
LINE
8
0
10
58.2288662
20
0.0136563149
11
58.0980986
21
-0.318903269
0
LINE
8
0
10
58.0980986
20
-0.318903269
11
57.8025047
21
-0.912239557
0
LINE
8
0
10
57.8025047
20
-0.912239557
11
57.3128286
21
-1.83361913
0
LINE
8
0
10
57.3128286
20
-1.83361913
11
57.3070968
21
-1.84253908
0
LINE
8
0
10
57.3070968
20
-1.84253908
11
57.3
21
-1.85338448
0
LINE
8
0
10
57.3
20
-1.85338448
11
57.3
21
-3.95677528
0
LINE
8
0
10
57.3
20
-3.95677528
11
57.3
21
-5.68334288
0
LINE
8
0
10
57.3
20
-5.68334288
11
57.3
21
-7.02273714
0
LINE
8
0
10
57.3
20
-7.02273714
11
57.3
21
-8.02690847
0
LINE
8
0
10
57.3
20
-8.02690847
11
57.3
21
-8.75534262
0
LINE
8
0
10
57.3
20
-8.75534262
11
57.3
21
-8.90024857
0
LINE
8
0
10
57.3
20
-8.90024857
11
57.3
21
-9.42606229
0
LINE
8
0
10
57.3
20
-9.42606229
11
57.3
21
-9.56825475
0
LINE
8
0
10
57.3
20
-9.56825475
11
57.3
21
-14.17729
0
LINE
8
0
10
57.3
20
-14.17729
11
57.3
21
-14.4179365
0
LINE
8
0
10
57.3
20
-14.4179365
11
57.3
21
-14.5
0
LINE
8
0
10
57.3
20
-14.5
11
57.3089355
21
-14.5812244
0
LINE
8
0
10
57.3089355
20
-14.5812244
11
57.3163586
21
-14.6242594
0
LINE
8
0
10
57.3163586
20
-14.6242594
11
57.3258748
21
-14.6965441
0
LINE
8
0
10
57.3258748
20
-14.6965441
11
57.35111
21
-14.88823
0
LINE
8
0
10
57.35111
20
-14.88823
11
57.3737736
21
-14.9429448
0
LINE
8
0
10
57.3737736
20
-14.9429448
11
57.50096
21
-15.25
0
LINE
8
0
10
57.50096
20
-15.25
11
57.537013
21
-15.2969848
0
LINE
8
0
10
57.537013
20
-15.2969848
11
57.73934
21
-15.56066
0
LINE
8
0
10
57.73934
20
-15.56066
11
57.7863248
21
-15.596713
0
LINE
8
0
10
57.7863248
20
-15.596713
11
58.05
21
-15.79904
0
LINE
8
0
10
58.05
20
-15.79904
11
58.1047148
21
-15.8217036
0
LINE
8
0
10
58.1047148
20
-15.8217036
11
58.41177
21
-15.94889
0
LINE
8
0
10
58.41177
20
-15.94889
11
58.4981566
21
-15.9657378
0
LINE
8
0
10
58.4981566
20
-15.9657378
11
58.6330717
21
-15.9904202
0
LINE
8
0
10
58.6330717
20
-15.9904202
11
58.67679
21
-15.99493
0
LINE
8
0
10
58.67679
20
-15.99493
11
58.72085
21
-15.9976493
0
LINE
8
0
10
58.72085
20
-15.9976493
11
58.73836
21
-15.99873
0
LINE
8
0
10
58.73836
20
-15.99873
11
58.7825506
21
-15.9996405
0
LINE
8
0
10
58.7825506
20
-15.9996405
11
58.8
21
-16
0
LINE
8
0
10
58.8
20
-16
11
62.0657937
21
-16
0
LINE
8
0
10
62.0657937
20
-16
11
69.5
21
-16
0
LINE
8
0
10
69.5
20
-16
11
69.8221745
21
-15.9575828
0
LINE
8
0
10
69.8221745
20
-15.9575828
11
70.14705
21
-15.91481
0
LINE
8
0
10
70.14705
20
-15.91481
11
70.4472665
21
-15.7904563
0
LINE
8
0
10
70.4472665
20
-15.7904563
11
70.75
21
-15.66506
0
LINE
8
0
10
70.75
20
-15.66506
11
71.0078043
21
-15.4672442
0
LINE
8
0
10
71.0078043
20
-15.4672442
11
71.26777
21
-15.26777
0
LINE
8
0
10
71.26777
20
-15.26777
11
71.4655858
21
-15.0099657
0
LINE
8
0
10
71.4655858
20
-15.0099657
11
71.66506
21
-14.75
0
LINE
8
0
10
71.66506
20
-14.75
11
71.7894137
21
-14.4497835
0
LINE
8
0
10
71.7894137
20
-14.4497835
11
71.91481
21
-14.14705
0
LINE
8
0
10
71.91481
20
-14.14705
11
71.9575828
21
-13.8221745
0
LINE
8
0
10
71.9575828
20
-13.8221745
11
72
21
-13.5
0
LINE
8
0
10
72
20
-13.5
11
72
21
-10.1587738
0
LINE
8
0
10
72
20
-10.1587738
11
72
21
-10.060014
0
LINE
8
0
10
72
20
-10.060014
11
72
21
-9.51708886
0
LINE
8
0
10
72
20
-9.51708886
11
72
21
-8.69044895
0
LINE
8
0
10
72
20
-8.69044895
11
72
21
-7.4168114
0
LINE
8
0
10
72
20
-7.4168114
11
72
21
-6.52913284
0
LINE
8
0
10
72
20
-6.52913284
11
72
21
-5.40631694
0
LINE
8
0
10
72
20
-5.40631694
11
72
21
-5.40631694
0
LINE
8
0
10
72
20
14.2424058
11
72
21
14.2435292
0
LINE
8
0
10
72
20
14.2435292
11
72
21
16.8514419
0
LINE
8
0
10
72
20
16.8514419
11
72
21
17.1924046
0
LINE
8
0
10
72
20
17.1924046
11
72
21
20.57188
0
LINE
8
0
10
72
20
20.57188
11
72.3866694
21
20.9639871
0
LINE
8
0
10
72.3866694
20
20.9639871
11
72.7709542
21
21.3536687
0
LINE
8
0
10
72.7709542
20
21.3536687
11
73.1539031
21
21.7420064
0
LINE
8
0
10
73.1539031
20
21.7420064
11
73.15509
21
21.74321
0
LINE
8
0
10
73.15509
20
21.74321
11
73.1603771
21
21.7485715
0
LINE
8
0
10
73.1603771
20
21.7485715
11
73.1603395
21
21.8644794
0
LINE
8
0
10
73.1603395
20
21.8644794
11
73.1473848
21
28.4867572
0
LINE
8
0
10
73.1473848
20
28.4867572
11
69.3936942
21
28.4881733
0
LINE
8
0
10
69.3936942
20
28.4881733
11
65.7294584
21
28.4840138
0
LINE
8
0
10
65.7294584
20
28.4840138
11
63.434489
21
28.4829945
0
LINE
8
0
10
63.434489
20
28.4829945
11
63.1
21
28.11151
0
LINE
8
0
10
63.1
20
28.11151
11
63.1
21
28.0751105
0
LINE
8
0
10
63.1
20
28.0751105
11
63.1
21
28.0414495
0
LINE
8
0
10
63.1
20
28.0414495
11
63.1
21
28.0101665
0
LINE
8
0
10
63.1
20
28.0101665
11
63.1
21
17.5803013
0
LINE
8
0
10
63.1
20
17.5803013
11
63.1
21
10
0
LINE
8
0
10
63.1
20
10
11
62.2530193
21
10
0
LINE
8
0
10
62.2530193
20
10
11
60.9374431
21
10
0
LINE
8
0
10
60.9374431
20
10
11
60.8826686
21
10
0
LINE
8
0
10
60.8826686
20
10
11
57.3
21
10
0
LINE
8
0
10
57.3
20
10
11
57.3
21
8.29152567
0
LINE
8
0
10
57.3
20
8.29152567
11
57.3
21
7.26142121
0
LINE
8
0
10
57.3
20
7.26142121
11
57.3534655
21
7.17835951
0
LINE
8
0
10
57.3534655
20
7.17835951
11
57.3954139
21
7.11197596
0
LINE
8
0
10
57.3954139
20
7.11197596
11
57.8416485
21
6.25287615
0
LINE
8
0
10
57.8416485
20
6.25287615
11
58.1493001
21
5.62013743
0
LINE
8
0
10
58.1493001
20
5.62013743
11
58.2600024
21
5.32890554
0
LINE
8
0
10
58.2600024
20
5.32890554
11
58.5
21
4.59843159
0
LINE
8
0
10
58.5
20
4.59843159
11
65.080299
21
4.65377726
0
LINE
8
0
10
65.080299
20
4.65377726
11
66.3181612
21
4.6415005
0
LINE
8
0
10
66.3181612
20
4.6415005
11
66.3677651
21
4.66072917
0
LINE
8
0
10
66.3677651
20
4.66072917
11
66.6989283
21
4.71739702
0
LINE
8
0
10
66.6989283
20
4.71739702
11
66.812661
21
4.73258553
0
LINE
8
0
10
66.812661
20
4.73258553
11
67.1553893
21
4.87822479
0
LINE
8
0
10
67.1553893
20
4.87822479
11
67.3094014
21
4.94350565
0
LINE
8
0
10
67.3094014
20
4.94350565
11
67.4741658
21
5.06830912
0
LINE
8
0
10
67.4741658
20
5.06830912
11
67.7275534
21
5.25927909
0
LINE
8
0
10
67.7275534
20
5.25927909
11
67.775518
21
5.28837953
0
LINE
8
0
10
67.775518
20
5.28837953
11
67.8029414
21
5.30495527
0
LINE
8
0
10
67.8029414
20
5.30495527
11
68.0558261
21
5.5326072
0
LINE
8
0
10
68.0558261
20
5.5326072
11
68.3044076
21
5.75504702
0
LINE
8
0
10
68.3044076
20
5.75504702
11
68.3368365
21
5.79499034
0
LINE
8
0
10
68.3368365
20
5.79499034
11
68.3709141
21
5.83662392
0
LINE
8
0
10
68.3709141
20
5.83662392
11
68.6045775
21
6.07358611
0
LINE
8
0
10
68.6045775
20
6.07358611
11
68.8089638
21
6.27961551
0
LINE
8
0
10
68.8089638
20
6.27961551
11
68.875863
21
6.36765899
0
LINE
8
0
10
68.875863
20
6.36765899
11
68.9470861
21
6.46069896
0
LINE
8
0
10
68.9470861
20
6.46069896
11
69.1387829
21
6.6752626
0
LINE
8
0
10
69.1387829
20
6.6752626
11
69.3080769
21
6.86380714
0
LINE
8
0
10
69.3080769
20
6.86380714
11
69.4028363
21
6.99730732
0
LINE
8
0
10
69.4028363
20
6.99730732
11
69.5088881
21
7.14584837
0
LINE
8
0
10
69.5088881
20
7.14584837
11
69.66107
21
7.33289977
0
LINE
8
0
10
69.66107
20
7.33289977
11
69.7907295
21
7.49175655
0
LINE
8
0
10
69.7907295
20
7.49175655
11
69.9152492
21
7.68128224
0
LINE
8
0
10
69.9152492
20
7.68128224
11
70.0667067
21
7.91097866
0
LINE
8
0
10
70.0667067
20
7.91097866
11
70.1745727
21
8.05557104
0
LINE
8
0
10
70.1745727
20
8.05557104
11
70.5364079
21
8.63048263
0
LINE
8
0
10
70.5364079
20
8.63048263
11
70.5995101
21
8.73455894
0
LINE
8
0
10
70.5995101
20
8.73455894
11
70.6085613
21
8.75354196
0
LINE
8
0
10
70.6085613
20
8.75354196
11
70.6211562
21
8.78206703
0
LINE
8
0
10
70.6211562
20
8.78206703
11
71.1781505
21
9.91439329
0
LINE
8
0
10
71.1781505
20
9.91439329
11
71.2043221
21
9.9767618
0
LINE
8
0
10
71.2043221
20
9.9767618
11
71.2260921
21
10.0424946
0
LINE
8
0
10
71.2260921
20
10.0424946
11
71.6219694
21
11.2510436
0
LINE
8
0
10
71.6219694
20
11.2510436
11
71.6555799
21
11.3851574
0
LINE
8
0
10
71.6555799
20
11.3851574
11
71.8681458
21
12.5110915
0
LINE
8
0
10
71.8681458
20
12.5110915
11
71.9028878
21
12.7090337
0
LINE
8
0
10
71.9028878
20
12.7090337
11
71.9238937
21
12.9108884
0
LINE
8
0
10
71.9238937
20
12.9108884
11
71.9910951
21
13.9855274
0
LINE
8
0
10
71.9910951
20
13.9855274
11
72
21
14.2424058
0
LINE
8
0
10
72
20
14.2424058
11
72
21
14.2424058
0
ENDSEC
0
EOF
