0
SECTION
2
ENTITIES
0
LINE
8
0
10
16
20
39.6521601
11
16
21
38.5489761
0
LINE
8
0
10
16
20
38.5489761
11
16
21
37.132215
0
LINE
8
0
10
16
20
37.132215
11
17.5031398
21
37.132215
0
LINE
8
0
10
17.5031398
20
37.132215
11
17.8
21
37.132215
0
LINE
8
0
10
17.8
20
37.132215
11
17.8
21
36.4118873
0
LINE
8
0
10
17.8
20
36.4118873
11
17.8
21
33.1874394
0
LINE
8
0
10
17.8
20
33.1874394
11
17.8
21
31.2887092
0
LINE
8
0
10
17.8
20
31.2887092
11
17.8
21
30.1056966
0
LINE
8
0
10
17.8
20
30.1056966
11
17.8
21
28.7049291
0
LINE
8
0
10
17.8
20
28.7049291
11
17.8
21
26.9892906
0
LINE
8
0
10
17.8
20
26.9892906
11
17.7730248
21
26.5632081
0
LINE
8
0
10
17.7730248
20
26.5632081
11
17.72314
21
25.7752606
0
LINE
8
0
10
17.72314
20
25.7752606
11
17.6432532
21
25.3655541
0
LINE
8
0
10
17.6432532
20
25.3655541
11
17.49552
21
24.6078906
0
LINE
8
0
10
17.49552
20
24.6078906
11
17.3657891
21
24.230301
0
LINE
8
0
10
17.3657891
20
24.230301
11
17.12588
21
23.5320306
0
LINE
8
0
10
17.12588
20
23.5320306
11
16.9512922
21
23.2010737
0
LINE
8
0
10
16.9512922
20
23.2010737
11
16.62843
21
22.5890406
0
LINE
8
0
10
16.62843
20
22.5890406
11
16.5263482
21
22.4451062
0
LINE
8
0
10
16.5263482
20
22.4451062
11
16.33757
21
22.1789241
0
LINE
8
0
10
16.33757
20
22.1789241
11
16.2269141
21
22.0512464
0
LINE
8
0
10
16.2269141
20
22.0512464
11
16.02228
21
21.8151406
0
LINE
8
0
10
16.02228
20
21.8151406
11
15.9041134
21
21.704955
0
LINE
8
0
10
15.9041134
20
21.704955
11
15.68559
21
21.5011841
0
LINE
8
0
10
15.68559
20
21.5011841
11
15.5610464
21
21.4095436
0
LINE
8
0
10
15.5610464
20
21.4095436
11
15.33073
21
21.2400806
0
LINE
8
0
10
15.33073
20
21.2400806
11
15.2010167
21
21.1678765
0
LINE
8
0
10
15.2010167
20
21.1678765
11
14.96114
21
21.0343506
0
LINE
8
0
10
14.96114
20
21.0343506
11
14.8274994
21
20.9822744
0
LINE
8
0
10
14.8274994
20
20.9822744
11
14.58036
21
20.8859641
0
LINE
8
0
10
14.58036
20
20.8859641
11
14.4440836
21
20.8545141
0
LINE
8
0
10
14.4440836
20
20.8545141
11
14.19207
21
20.7963606
0
LINE
8
0
10
14.19207
20
20.7963606
11
14.054467
21
20.7858422
0
LINE
8
0
10
14.054467
20
20.7858422
11
13.8
21
20.7663906
0
LINE
8
0
10
13.8
20
20.7663906
11
9.79899406
21
20.7663906
0
LINE
8
0
10
9.79899406
20
20.7663906
11
2.4
21
20.7663868
0
LINE
8
0
10
2.4
20
20.7663868
11
2.4
21
25.7884883
0
LINE
8
0
10
2.4
20
25.7884883
11
2.4
21
28.4033559
0
LINE
8
0
10
2.4
20
28.4033559
11
2.4
21
31.5578086
0
LINE
8
0
10
2.4
20
31.5578086
11
2.4
21
37.6030813
0
LINE
8
0
10
2.4
20
37.6030813
11
2.4
21
38.0482445
0
LINE
8
0
10
2.4
20
38.0482445
11
2.4
21
38.6703604
0
LINE
8
0
10
2.4
20
38.6703604
11
2.4
21
40.6194406
0
LINE
8
0
10
2.4
20
40.6194406
11
2.4
21
41.1414733
0
LINE
8
0
10
2.4
20
41.1414733
11
2.4
21
41.834694
0
LINE
8
0
10
2.4
20
41.834694
11
2.4
21
42.6708136
0
LINE
8
0
10
2.4
20
42.6708136
11
2.4
21
43.1292938
0
LINE
8
0
10
2.4
20
43.1292938
11
2.4
21
43.157236
0
LINE
8
0
10
2.4
20
43.157236
11
2.4
21
43.9940341
0
LINE
8
0
10
2.4
20
43.9940341
11
2.4
21
44.017256
0
LINE
8
0
10
2.4
20
44.017256
11
2.4
21
44.040291
0
LINE
8
0
10
2.4
20
44.040291
11
2.4
21
44.9117879
0
LINE
8
0
10
2.4
20
44.9117879
11
2.4
21
45.779023
0
LINE
8
0
10
2.4
20
45.779023
11
2.4
21
48.2
0
LINE
8
0
10
2.4
20
48.2
11
2.41315309
21
48.2999085
0
LINE
8
0
10
2.41315309
20
48.2999085
11
2.468148
21
48.71764
0
LINE
8
0
10
2.468148
20
48.71764
11
2.50671112
21
48.8107392
0
LINE
8
0
10
2.50671112
20
48.8107392
11
2.667949
21
49.2
0
LINE
8
0
10
2.667949
20
49.2
11
2.72929397
21
49.2799457
0
LINE
8
0
10
2.72929397
20
49.2799457
11
2.985786
21
49.61421
0
LINE
8
0
10
2.985786
20
49.61421
11
3.06573247
21
49.6755556
0
LINE
8
0
10
3.06573247
20
49.6755556
11
3.4
21
49.93205
0
LINE
8
0
10
3.4
20
49.93205
11
3.49309956
21
49.9706129
0
LINE
8
0
10
3.49309956
20
49.9706129
11
3.882362
21
50.13185
0
LINE
8
0
10
3.882362
20
50.13185
11
3.9822701
21
50.1450035
0
LINE
8
0
10
3.9822701
20
50.1450035
11
4.4
21
50.2
0
LINE
8
0
10
4.4
20
50.2
11
6.27488016
21
50.2
0
LINE
8
0
10
6.27488016
20
50.2
11
6.41877642
21
50.2
0
LINE
8
0
10
6.41877642
20
50.2
11
6.57736876
21
50.2
0
LINE
8
0
10
6.57736876
20
50.2
11
6.73593644
21
50.2
0
LINE
8
0
10
6.73593644
20
50.2
11
6.87548645
21
50.2
0
LINE
8
0
10
6.87548645
20
50.2
11
6.97670102
21
50.2
0
LINE
8
0
10
6.97670102
20
50.2
11
14.0479538
21
50.2
0
LINE
8
0
10
14.0479538
20
50.2
11
14.1428161
21
50.2
0
LINE
8
0
10
14.1428161
20
50.2
11
14.2644649
21
50.2
0
LINE
8
0
10
14.2644649
20
50.2
11
14.3965982
21
50.2
0
LINE
8
0
10
14.3965982
20
50.2
11
14.524044
21
50.2
0
LINE
8
0
10
14.524044
20
50.2
11
14.6356768
21
50.2
0
LINE
8
0
10
14.6356768
20
50.2
11
16
21
50.2
0
LINE
8
0
10
16
20
50.2
11
16
21
49.238497
0
LINE
8
0
10
16
20
49.238497
11
16
21
45.2
0
LINE
8
0
10
16
20
45.2
11
16
21
44.9318724
0
LINE
8
0
10
16
20
44.9318724
11
16
21
44.1415356
0
LINE
8
0
10
16
20
44.1415356
11
16
21
43.8364286
0
LINE
8
0
10
16
20
43.8364286
11
16
21
43.0733053
0
LINE
8
0
10
16
20
43.0733053
11
16
21
42.6720889
0
LINE
8
0
10
16
20
42.6720889
11
16
21
41.9827128
0
LINE
8
0
10
16
20
41.9827128
11
16
21
41.4214202
0
LINE
8
0
10
16
20
41.4214202
11
16
21
40.851405
0
LINE
8
0
10
16
20
40.851405
11
16
21
40.0598088
0
LINE
8
0
10
16
20
40.0598088
11
16
21
39.6521601
0
LINE
8
0
10
16
20
39.6521601
11
16
21
39.6521601
0
LINE
8
0
10
28.5184001
20
-7.33944907
11
28.8820362
21
-6.65522829
0
LINE
8
0
10
28.8820362
20
-6.65522829
11
29.283238
21
-5.84990811
0
LINE
8
0
10
29.283238
20
-5.84990811
11
29.3212291
21
-5.75329158
0
LINE
8
0
10
29.3212291
20
-5.75329158
11
29.4
21
-5.52260613
0
LINE
8
0
10
29.4
20
-5.52260613
11
32.8951629
21
-5.52260613
0
LINE
8
0
10
32.8951629
20
-5.52260613
11
34
21
-5.52260613
0
LINE
8
0
10
34
20
-5.52260613
11
34.0787709
21
-5.75329158
0
LINE
8
0
10
34.0787709
20
-5.75329158
11
34.116762
21
-5.84990811
0
LINE
8
0
10
34.116762
20
-5.84990811
11
34.5179638
21
-6.65522829
0
LINE
8
0
10
34.5179638
20
-6.65522829
11
34.8815999
21
-7.33944907
0
LINE
8
0
10
34.8815999
20
-7.33944907
11
35.0238602
21
-7.56083781
0
LINE
8
0
10
35.0238602
20
-7.56083781
11
35.2
21
-7.83001564
0
LINE
8
0
10
35.2
20
-7.83001564
11
35.2
21
-8.86040952
0
LINE
8
0
10
35.2
20
-8.86040952
11
35.2
21
-10.0362358
0
LINE
8
0
10
35.2
20
-10.0362358
11
35.2
21
-10.8876818
0
LINE
8
0
10
35.2
20
-10.8876818
11
35.2
21
-11.4717348
0
LINE
8
0
10
35.2
20
-11.4717348
11
35.2
21
-11.8444875
0
LINE
8
0
10
35.2
20
-11.8444875
11
35.2
21
-12.0537757
0
LINE
8
0
10
35.2
20
-12.0537757
11
35.2
21
-13.5
0
LINE
8
0
10
35.2
20
-13.5
11
35.1910737
21
-13.6816688
0
LINE
8
0
10
35.1910737
20
-13.6816688
11
35.1248875
21
-14.0916672
0
LINE
8
0
10
35.1248875
20
-14.0916672
11
35.1199032
21
-14.1252074
0
LINE
8
0
10
35.1199032
20
-14.1252074
11
35.1006696
21
-14.1887084
0
LINE
8
0
10
35.1006696
20
-14.1887084
11
34.8845183
21
-14.7105439
0
LINE
8
0
10
34.8845183
20
-14.7105439
11
34.8537813
21
-14.7681381
0
LINE
8
0
10
34.8537813
20
-14.7681381
11
34.5083597
21
-15.2183103
0
LINE
8
0
10
34.5083597
20
-15.2183103
11
34.46777
21
-15.26777
0
LINE
8
0
10
34.46777
20
-15.26777
11
34.4223186
21
-15.3050703
0
LINE
8
0
10
34.4223186
20
-15.3050703
11
33.9666682
21
-15.6546953
0
LINE
8
0
10
33.9666682
20
-15.6546953
11
33.916513
21
-15.6815746
0
LINE
8
0
10
33.916513
20
-15.6815746
11
33.382406
21
-15.9028089
0
LINE
8
0
10
33.382406
20
-15.9028089
11
33.3297657
21
-15.9188403
0
LINE
8
0
10
33.3297657
20
-15.9188403
11
33.2803112
21
-15.9235968
0
LINE
8
0
10
33.2803112
20
-15.9235968
11
32.9901556
21
-15.9617984
0
LINE
8
0
10
32.9901556
20
-15.9617984
11
32.8482424
21
-15.9853986
0
LINE
8
0
10
32.8482424
20
-15.9853986
11
32.7
21
-16
0
LINE
8
0
10
32.7
20
-16
11
31.1490787
21
-16
0
LINE
8
0
10
31.1490787
20
-16
11
30.7
21
-16
0
LINE
8
0
10
30.7
20
-16
11
30.3272136
21
-15.9632816
0
LINE
8
0
10
30.3272136
20
-15.9632816
11
30.1355852
21
-15.9340787
0
LINE
8
0
10
30.1355852
20
-15.9340787
11
29.8855165
21
-15.8579769
0
LINE
8
0
10
29.8855165
20
-15.8579769
11
29.6085822
21
-15.743267
0
LINE
8
0
10
29.6085822
20
-15.743267
11
29.3718206
21
-15.6164462
0
LINE
8
0
10
29.3718206
20
-15.6164462
11
29.1454129
21
-15.4427213
0
LINE
8
0
10
29.1454129
20
-15.4427213
11
28.93223
21
-15.26777
0
LINE
8
0
10
28.93223
20
-15.26777
11
28.7451158
21
-15.0397664
0
LINE
8
0
10
28.7451158
20
-15.0397664
11
28.5869335
21
-14.8336146
0
LINE
8
0
10
28.5869335
20
-14.8336146
11
28.4458135
21
-14.5692761
0
LINE
8
0
10
28.4458135
20
-14.5692761
11
28.3499583
21
-14.337861
0
LINE
8
0
10
28.3499583
20
-14.337861
11
28.2619573
21
-14.047415
0
LINE
8
0
10
28.2619573
20
-14.047415
11
28.2392706
21
-13.8946909
0
LINE
8
0
10
28.2392706
20
-13.8946909
11
28.21204
21
-13.74504
0
LINE
8
0
10
28.21204
20
-13.74504
11
28.2022348
21
-13.5454826
0
LINE
8
0
10
28.2022348
20
-13.5454826
11
28.2
21
-13.5
0
LINE
8
0
10
28.2
20
-13.5
11
28.2
21
-12.4599085
0
LINE
8
0
10
28.2
20
-12.4599085
11
28.2
21
-12.2696984
0
LINE
8
0
10
28.2
20
-12.2696984
11
28.2
21
-11.9294764
0
LINE
8
0
10
28.2
20
-11.9294764
11
28.2
21
-11.3705028
0
LINE
8
0
10
28.2
20
-11.3705028
11
28.2
21
-10.4896985
0
LINE
8
0
10
28.2
20
-10.4896985
11
28.2
21
-9.13791281
0
LINE
8
0
10
28.2
20
-9.13791281
11
28.2
21
-7.83001564
0
LINE
8
0
10
28.2
20
-7.83001564
11
28.3761398
21
-7.56083781
0
LINE
8
0
10
28.3761398
20
-7.56083781
11
28.5184001
21
-7.33944907
0
LINE
8
0
10
28.5184001
20
-7.33944907
11
28.5184001
21
-7.33944907
0
LINE
8
0
10
35.2
20
10
11
35.2
21
8.96971655
0
LINE
8
0
10
35.2
20
8.96971655
11
35.2
21
2.90948375
0
LINE
8
0
10
35.2
20
2.90948375
11
35.2
21
1.82607777
0
LINE
8
0
10
35.2
20
1.82607777
11
34.9773879
21
1.48023703
0
LINE
8
0
10
34.9773879
20
1.48023703
11
34.8027287
21
1.2038383
0
LINE
8
0
10
34.8027287
20
1.2038383
11
34.4784395
21
0.579509987
0
LINE
8
0
10
34.4784395
20
0.579509987
11
34.0685996
21
-0.26339748
0
LINE
8
0
10
34.0685996
20
-0.26339748
11
34.0469454
21
-0.32036467
0
LINE
8
0
10
34.0469454
20
-0.32036467
11
34
21
-0.463250889
0
LINE
8
0
10
34
20
-0.463250889
11
30.0818909
21
-0.463250889
0
LINE
8
0
10
30.0818909
20
-0.463250889
11
29.4
21
-0.463250889
0
LINE
8
0
10
29.4
20
-0.463250889
11
29.3530546
21
-0.32036467
0
LINE
8
0
10
29.3530546
20
-0.32036467
11
29.3314004
21
-0.26339748
0
LINE
8
0
10
29.3314004
20
-0.26339748
11
28.9215605
21
0.579509987
0
LINE
8
0
10
28.9215605
20
0.579509987
11
28.5972713
21
1.2038383
0
LINE
8
0
10
28.5972713
20
1.2038383
11
28.4226121
21
1.48023703
0
LINE
8
0
10
28.4226121
20
1.48023703
11
28.2
21
1.82607777
0
LINE
8
0
10
28.2
20
1.82607777
11
28.2
21
3.31683521
0
LINE
8
0
10
28.2
20
3.31683521
11
28.2
21
9.44760524
0
LINE
8
0
10
28.2
20
9.44760524
11
28.2
21
10.6612745
0
LINE
8
0
10
28.2
20
10.6612745
11
28.2
21
10.8376787
0
LINE
8
0
10
28.2
20
10.8376787
11
28.2
21
12.5450996
0
LINE
8
0
10
28.2
20
12.5450996
11
28.2
21
15
0
LINE
8
0
10
28.2
20
15
11
29.8490346
21
15
0
LINE
8
0
10
29.8490346
20
15
11
30.2
21
15
0
LINE
8
0
10
30.2
20
15
11
30.2
21
13.0717525
0
LINE
8
0
10
30.2
20
13.0717525
11
30.2
21
12.65094
0
LINE
8
0
10
30.2
20
12.65094
11
30.2
21
12.4386543
0
LINE
8
0
10
30.2
20
12.4386543
11
30.2
21
12.39302
0
LINE
8
0
10
30.2
20
12.39302
11
30.2
21
12.1816064
0
LINE
8
0
10
30.2
20
12.1816064
11
30.2
21
12.13557
0
LINE
8
0
10
30.2
20
12.13557
11
30.2
21
11.9397941
0
LINE
8
0
10
30.2
20
11.9397941
11
30.2
21
11.89597
0
LINE
8
0
10
30.2
20
11.89597
11
30.2
21
11.7292354
0
LINE
8
0
10
30.2
20
11.7292354
11
30.2
21
11.69043
0
LINE
8
0
10
30.2
20
11.69043
11
30.2
21
11.5636922
0
LINE
8
0
10
30.2
20
11.5636922
11
30.2
21
11.53281
0
LINE
8
0
10
30.2
20
11.53281
11
30.2
21
10.4423856
0
LINE
8
0
10
30.2
20
10.4423856
11
30.2
21
10
0
LINE
8
0
10
30.2
20
10
11
33.9087283
21
10
0
LINE
8
0
10
33.9087283
20
10
11
35.2
21
10
0
LINE
8
0
10
35.2
20
10
11
35.2
21
10
0
LINE
8
0
10
72
20
14.4768308
11
72
21
14.4780487
0
LINE
8
0
10
72
20
14.4780487
11
72
21
16.9893159
0
LINE
8
0
10
72
20
16.9893159
11
72
21
17.3176431
0
LINE
8
0
10
72
20
17.3176431
11
72
21
20.57188
0
LINE
8
0
10
72
20
20.57188
11
72.37234
21
20.9494562
0
LINE
8
0
10
72.37234
20
20.9494562
11
72.7423838
21
21.3246968
0
LINE
8
0
10
72.7423838
20
21.3246968
11
73.1111411
21
21.6986432
0
LINE
8
0
10
73.1111411
20
21.6986432
11
73.15509
21
21.74321
0
LINE
8
0
10
73.15509
20
21.74321
11
73.3508565
21
21.9417295
0
LINE
8
0
10
73.3508565
20
21.9417295
11
73.3494655
21
26.2334616
0
LINE
8
0
10
73.3494655
20
26.2334616
11
73.3447827
21
28.6272288
0
LINE
8
0
10
73.3447827
20
28.6272288
11
67.2801045
21
28.6295167
0
LINE
8
0
10
67.2801045
20
28.6295167
11
63.5640072
21
28.6268386
0
LINE
8
0
10
63.5640072
20
28.6268386
11
63.4891917
21
28.5437474
0
LINE
8
0
10
63.4891917
20
28.5437474
11
63.1
21
28.11151
0
LINE
8
0
10
63.1
20
28.11151
11
63.1
21
28.0826392
0
LINE
8
0
10
63.1
20
28.0826392
11
63.1
21
28.0559404
0
LINE
8
0
10
63.1
20
28.0559404
11
63.1
21
28.0311278
0
LINE
8
0
10
63.1
20
28.0311278
11
63.1
21
19.7585149
0
LINE
8
0
10
63.1
20
19.7585149
11
63.1
21
10
0
LINE
8
0
10
63.1
20
10
11
62.3257249
21
10
0
LINE
8
0
10
62.3257249
20
10
11
60.6321154
21
10
0
LINE
8
0
10
60.6321154
20
10
11
60.5616013
21
10
0
LINE
8
0
10
60.5616013
20
10
11
57.3
21
10
0
LINE
8
0
10
57.3
20
10
11
57.3
21
8.22771836
0
LINE
8
0
10
57.3
20
8.22771836
11
57.3
21
7.53589477
0
LINE
8
0
10
57.3
20
7.53589477
11
57.5226121
21
7.19005403
0
LINE
8
0
10
57.5226121
20
7.19005403
11
57.6972713
21
6.9136554
0
LINE
8
0
10
57.6972713
20
6.9136554
11
58.0215605
21
6.28932737
0
LINE
8
0
10
58.0215605
20
6.28932737
11
58.4314004
21
5.44642049
0
LINE
8
0
10
58.4314004
20
5.44642049
11
58.4530546
21
5.38945333
0
LINE
8
0
10
58.4530546
20
5.38945333
11
58.5
21
5.24656711
0
LINE
8
0
10
58.5
20
5.24656711
11
60.1226914
21
5.26021527
0
LINE
8
0
10
60.1226914
20
5.26021527
11
66.2125987
21
5.22947117
0
LINE
8
0
10
66.2125987
20
5.22947117
11
66.5745688
21
5.31124154
0
LINE
8
0
10
66.5745688
20
5.31124154
11
66.7153162
21
5.32670466
0
LINE
8
0
10
66.7153162
20
5.32670466
11
66.9858017
21
5.42002245
0
LINE
8
0
10
66.9858017
20
5.42002245
11
67.2306653
21
5.50433436
0
LINE
8
0
10
67.2306653
20
5.50433436
11
67.354166
21
5.57926297
0
LINE
8
0
10
67.354166
20
5.57926297
11
67.5883549
21
5.72081556
0
LINE
8
0
10
67.5883549
20
5.72081556
11
67.6961482
21
5.77557401
0
LINE
8
0
10
67.6961482
20
5.77557401
11
67.7474315
21
5.80155004
0
LINE
8
0
10
67.7474315
20
5.80155004
11
68.0139772
21
6.00067902
0
LINE
8
0
10
68.0139772
20
6.00067902
11
68.2681207
21
6.18971374
0
LINE
8
0
10
68.2681207
20
6.18971374
11
68.3256595
21
6.24806485
0
LINE
8
0
10
68.3256595
20
6.24806485
11
68.3987817
21
6.32177489
0
LINE
8
0
10
68.3987817
20
6.32177489
11
68.6226409
21
6.51578129
0
LINE
8
0
10
68.6226409
20
6.51578129
11
68.7872924
21
6.65790536
0
LINE
8
0
10
68.7872924
20
6.65790536
11
68.9151018
21
6.80096067
0
LINE
8
0
10
68.9151018
20
6.80096067
11
69.077252
21
6.98154905
0
LINE
8
0
10
69.077252
20
6.98154905
11
69.2024804
21
7.10419417
0
LINE
8
0
10
69.2024804
20
7.10419417
11
69.2962544
21
7.19577892
0
LINE
8
0
10
69.2962544
20
7.19577892
11
69.4795958
21
7.4211295
0
LINE
8
0
10
69.4795958
20
7.4211295
11
69.7221877
21
7.71834928
0
LINE
8
0
10
69.7221877
20
7.71834928
11
69.7923038
21
7.79623101
0
LINE
8
0
10
69.7923038
20
7.79623101
11
70.0427587
21
8.13196106
0
LINE
8
0
10
70.0427587
20
8.13196106
11
70.3103738
21
8.55716852
0
LINE
8
0
10
70.3103738
20
8.55716852
11
70.5845428
21
8.94750098
0
LINE
8
0
10
70.5845428
20
8.94750098
11
70.5976222
21
8.96811673
0
LINE
8
0
10
70.5976222
20
8.96811673
11
70.6092247
21
8.99046508
0
LINE
8
0
10
70.6092247
20
8.99046508
11
71.1711049
21
10.1327239
0
LINE
8
0
10
71.1711049
20
10.1327239
11
71.2075209
21
10.2195054
0
LINE
8
0
10
71.2075209
20
10.2195054
11
71.2378124
21
10.3109681
0
LINE
8
0
10
71.2378124
20
10.3109681
11
71.6190275
21
11.4747561
0
LINE
8
0
10
71.6190275
20
11.4747561
11
71.6587451
21
11.6332382
0
LINE
8
0
10
71.6587451
20
11.6332382
11
71.8634382
21
12.717471
0
LINE
8
0
10
71.8634382
20
12.717471
11
71.9021983
21
12.9383061
0
LINE
8
0
10
71.9021983
20
12.9383061
11
71.9256335
21
13.1635063
0
LINE
8
0
10
71.9256335
20
13.1635063
11
71.990346
21
14.1983438
0
LINE
8
0
10
71.990346
20
14.1983438
11
72
21
14.4768308
0
LINE
8
0
10
72
20
14.4768308
11
72
21
14.4768308
0
LINE
8
0
10
72
20
-5.36055231
11
72
21
-6.26878809
0
LINE
8
0
10
72
20
-6.26878809
11
72
21
-7.18961926
0
LINE
8
0
10
72
20
-7.18961926
11
72
21
-8.51082405
0
LINE
8
0
10
72
20
-8.51082405
11
72
21
-9.36833692
0
LINE
8
0
10
72
20
-9.36833692
11
72
21
-9.93153902
0
LINE
8
0
10
72
20
-9.93153902
11
72
21
-10.0339872
0
LINE
8
0
10
72
20
-10.0339872
11
72
21
-13.5
0
LINE
8
0
10
72
20
-13.5
11
71.9559986
21
-13.8342069
0
LINE
8
0
10
71.9559986
20
-13.8342069
11
71.91481
21
-14.14705
0
LINE
8
0
10
71.91481
20
-14.14705
11
71.794058
21
-14.4385711
0
LINE
8
0
10
71.794058
20
-14.4385711
11
71.66506
21
-14.75
0
LINE
8
0
10
71.66506
20
-14.75
11
71.4729737
21
-15.0003373
0
LINE
8
0
10
71.4729737
20
-15.0003373
11
71.26777
21
-15.26777
0
LINE
8
0
10
71.26777
20
-15.26777
11
71.0174327
21
-15.4598563
0
LINE
8
0
10
71.0174327
20
-15.4598563
11
70.75
21
-15.66506
0
LINE
8
0
10
70.75
20
-15.66506
11
70.4584789
21
-15.785812
0
LINE
8
0
10
70.4584789
20
-15.785812
11
70.14705
21
-15.91481
0
LINE
8
0
10
70.14705
20
-15.91481
11
69.8342069
21
-15.9559986
0
LINE
8
0
10
69.8342069
20
-15.9559986
11
69.5
21
-16
0
LINE
8
0
10
69.5
20
-16
11
62.1578291
21
-16
0
LINE
8
0
10
62.1578291
20
-16
11
58.8
21
-16
0
LINE
8
0
10
58.8
20
-16
11
58.7820589
21
-15.9996304
0
LINE
8
0
10
58.7820589
20
-15.9996304
11
58.73836
21
-15.99873
0
LINE
8
0
10
58.73836
20
-15.99873
11
58.7203618
21
-15.9976192
0
LINE
8
0
10
58.7203618
20
-15.9976192
11
58.67679
21
-15.99493
0
LINE
8
0
10
58.67679
20
-15.99493
11
58.6335561
21
-15.9904701
0
LINE
8
0
10
58.6335561
20
-15.9904701
11
58.4949571
21
-15.9651139
0
LINE
8
0
10
58.4949571
20
-15.9651139
11
58.41177
21
-15.94889
0
LINE
8
0
10
58.41177
20
-15.94889
11
58.1160872
21
-15.8264142
0
LINE
8
0
10
58.1160872
20
-15.8264142
11
58.05
21
-15.79904
0
LINE
8
0
10
58.05
20
-15.79904
11
57.7960906
21
-15.6042066
0
LINE
8
0
10
57.7960906
20
-15.6042066
11
57.73934
21
-15.56066
0
LINE
8
0
10
57.73934
20
-15.56066
11
57.5445066
21
-15.3067506
0
LINE
8
0
10
57.5445066
20
-15.3067506
11
57.50096
21
-15.25
0
LINE
8
0
10
57.50096
20
-15.25
11
57.3784842
21
-14.9543172
0
LINE
8
0
10
57.3784842
20
-14.9543172
11
57.35111
21
-14.88823
0
LINE
8
0
10
57.35111
20
-14.88823
11
57.3268094
21
-14.7036436
0
LINE
8
0
10
57.3268094
20
-14.7036436
11
57.3169495
21
-14.6287479
0
LINE
8
0
10
57.3169495
20
-14.6287479
11
57.3092583
21
-14.5841584
0
LINE
8
0
10
57.3092583
20
-14.5841584
11
57.3
21
-14.5
0
LINE
8
0
10
57.3
20
-14.5
11
57.3
21
-14.4149722
0
LINE
8
0
10
57.3
20
-14.4149722
11
57.3
21
-14.17729
0
LINE
8
0
10
57.3
20
-14.17729
11
57.3
21
-9.3986965
0
LINE
8
0
10
57.3
20
-9.3986965
11
57.3
21
-9.26177043
0
LINE
8
0
10
57.3
20
-9.26177043
11
57.3
21
-8.71639355
0
LINE
8
0
10
57.3
20
-8.71639355
11
57.3
21
-8.57814133
0
LINE
8
0
10
57.3
20
-8.57814133
11
57.3
21
-7.82250196
0
LINE
8
0
10
57.3
20
-7.82250196
11
57.3
21
-6.7808273
0
LINE
8
0
10
57.3
20
-6.7808273
11
57.3
21
-5.39140995
0
LINE
8
0
10
57.3
20
-5.39140995
11
57.3
21
-3.60035929
0
LINE
8
0
10
57.3
20
-3.60035929
11
57.3
21
-2.12019833
0
LINE
8
0
10
57.3
20
-2.12019833
11
57.4761398
21
-1.85102067
0
LINE
8
0
10
57.4761398
20
-1.85102067
11
57.6184001
21
-1.62963181
0
LINE
8
0
10
57.6184001
20
-1.62963181
11
57.9820362
21
-0.945410372
0
LINE
8
0
10
57.9820362
20
-0.945410372
11
58.383238
21
-0.140090838
0
LINE
8
0
10
58.383238
20
-0.140090838
11
58.4212291
21
-0.0434743104
0
LINE
8
0
10
58.4212291
20
-0.0434743104
11
58.5
21
0.187211177
0
LINE
8
0
10
58.5
20
0.187211177
11
61.0329828
21
0.174279349
0
LINE
8
0
10
61.0329828
20
0.174279349
11
67.5033761
21
0.187488271
0
LINE
8
0
10
67.5033761
20
0.187488271
11
67.7741786
21
0.124351304
0
LINE
8
0
10
67.7741786
20
0.124351304
11
67.9270299
21
0.10789092
0
LINE
8
0
10
67.9270299
20
0.10789092
11
68.1623549
21
0.0344860712
0
LINE
8
0
10
68.1623549
20
0.0344860712
11
68.3693914
21
-0.0299641213
0
LINE
8
0
10
68.3693914
20
-0.0299641213
11
68.7482143
21
-0.223160614
0
LINE
8
0
10
68.7482143
20
-0.223160614
11
68.826131
21
-0.257766255
0
LINE
8
0
10
68.826131
20
-0.257766255
11
68.8762892
21
-0.28902579
0
LINE
8
0
10
68.8762892
20
-0.28902579
11
69.2776058
21
-0.538403537
0
LINE
8
0
10
69.2776058
20
-0.538403537
11
69.6218478
21
-0.817237724
0
LINE
8
0
10
69.6218478
20
-0.817237724
11
69.7154305
21
-0.885382388
0
LINE
8
0
10
69.7154305
20
-0.885382388
11
69.817817
21
-0.979288399
0
LINE
8
0
10
69.817817
20
-0.979288399
11
70.124937
21
-1.26003816
0
LINE
8
0
10
70.124937
20
-1.26003816
11
70.309401
21
-1.46799715
0
LINE
8
0
10
70.309401
20
-1.46799715
11
70.5003091
21
-1.66562958
0
LINE
8
0
10
70.5003091
20
-1.66562958
11
70.7233818
21
-1.94846514
0
LINE
8
0
10
70.7233818
20
-1.94846514
11
70.8358466
21
-2.09049457
0
LINE
8
0
10
70.8358466
20
-2.09049457
11
70.9022774
21
-2.19307822
0
LINE
8
0
10
70.9022774
20
-2.19307822
11
71.1278328
21
-2.5175824
0
LINE
8
0
10
71.1278328
20
-2.5175824
11
71.3389566
21
-2.89195622
0
LINE
8
0
10
71.3389566
20
-2.89195622
11
71.375874
21
-2.95709042
0
LINE
8
0
10
71.375874
20
-2.95709042
11
71.4027037
21
-3.01627836
0
LINE
8
0
10
71.4027037
20
-3.01627836
11
71.5791518
21
-3.38281748
0
LINE
8
0
10
71.5791518
20
-3.38281748
11
71.6925354
21
-3.68538671
0
LINE
8
0
10
71.6925354
20
-3.68538671
11
71.7395134
21
-3.80996195
0
LINE
8
0
10
71.7395134
20
-3.80996195
11
71.7846471
21
-3.97062886
0
LINE
8
0
10
71.7846471
20
-3.97062886
11
71.8587027
21
-4.22107797
0
LINE
8
0
10
71.8587027
20
-4.22107797
11
71.8874678
21
-4.36253206
0
LINE
8
0
10
71.8874678
20
-4.36253206
11
71.9396198
21
-4.61707033
0
LINE
8
0
10
71.9396198
20
-4.61707033
11
71.9796188
21
-4.95306624
0
LINE
8
0
10
71.9796188
20
-4.95306624
11
71.9855288
21
-5.00232113
0
LINE
8
0
10
71.9855288
20
-5.00232113
11
71.989553
21
-5.105113
0
LINE
8
0
10
71.989553
20
-5.105113
11
72
21
-5.36055231
0
LINE
8
0
10
72
20
-5.36055231
11
72
21
-5.36055231
0
ENDSEC
0
EOF
