0
SECTION
2
ENTITIES
0
LINE
8
0
10
16
20
36.9565039
11
16
21
37.0395654
0
LINE
8
0
10
16
20
37.0395654
11
16
21
37.0622158
0
LINE
8
0
10
16
20
37.0622158
11
16
21
38.72832
0
LINE
8
0
10
16
20
38.72832
11
16
21
39.7521635
0
LINE
8
0
10
16
20
39.7521635
11
16
21
40.211117
0
LINE
8
0
10
16
20
40.211117
11
16
21
40.9280713
0
LINE
8
0
10
16
20
40.9280713
11
16
21
41.548132
0
LINE
8
0
10
16
20
41.548132
11
16
21
42.0383541
0
LINE
8
0
10
16
20
42.0383541
11
16
21
42.7764914
0
LINE
8
0
10
16
20
42.7764914
11
16
21
43.1095408
0
LINE
8
0
10
16
20
43.1095408
11
16
21
43.9199518
0
LINE
8
0
10
16
20
43.9199518
11
16
21
44.1594002
0
LINE
8
0
10
16
20
44.1594002
11
16
21
44.9952816
0
LINE
8
0
10
16
20
44.9952816
11
16
21
45.2
0
LINE
8
0
10
16
20
45.2
11
16
21
49.4658816
0
LINE
8
0
10
16
20
49.4658816
11
16
21
50.2
0
LINE
8
0
10
16
20
50.2
11
14.9583238
21
50.2
0
LINE
8
0
10
14.9583238
20
50.2
11
14.8730909
21
50.2
0
LINE
8
0
10
14.8730909
20
50.2
11
14.7757845
21
50.2
0
LINE
8
0
10
14.7757845
20
50.2
11
14.6748992
21
50.2
0
LINE
8
0
10
14.6748992
20
50.2
11
14.582019
21
50.2
0
LINE
8
0
10
14.582019
20
50.2
11
14.5095905
21
50.2
0
LINE
8
0
10
14.5095905
20
50.2
11
6.36734048
21
50.2
0
LINE
8
0
10
6.36734048
20
50.2
11
6.29006201
21
50.2
0
LINE
8
0
10
6.29006201
20
50.2
11
6.18351399
21
50.2
0
LINE
8
0
10
6.18351399
20
50.2
11
6.06244577
21
50.2
0
LINE
8
0
10
6.06244577
20
50.2
11
5.94135872
21
50.2
0
LINE
8
0
10
5.94135872
20
50.2
11
5.83149228
21
50.2
0
LINE
8
0
10
5.83149228
20
50.2
11
4.4
21
50.2
0
LINE
8
0
10
4.4
20
50.2
11
3.95864297
21
50.1418928
0
LINE
8
0
10
3.95864297
20
50.1418928
11
3.882362
21
50.13185
0
LINE
8
0
10
3.882362
20
50.13185
11
3.47108257
21
49.9614932
0
LINE
8
0
10
3.47108257
20
49.9614932
11
3.4
21
49.93205
0
LINE
8
0
10
3.4
20
49.93205
11
3.04682604
21
49.661048
0
LINE
8
0
10
3.04682604
20
49.661048
11
2.985786
21
49.61421
0
LINE
8
0
10
2.985786
20
49.61421
11
2.71478658
21
49.2610394
0
LINE
8
0
10
2.71478658
20
49.2610394
11
2.667949
21
49.2
0
LINE
8
0
10
2.667949
20
49.2
11
2.49759138
21
48.7887223
0
LINE
8
0
10
2.49759138
20
48.7887223
11
2.468148
21
48.71764
0
LINE
8
0
10
2.468148
20
48.71764
11
2.41004253
21
48.2762813
0
LINE
8
0
10
2.41004253
20
48.2762813
11
2.4
21
48.2
0
LINE
8
0
10
2.4
20
48.2
11
2.4
21
45.6420906
0
LINE
8
0
10
2.4
20
45.6420906
11
2.4
21
44.9799468
0
LINE
8
0
10
2.4
20
44.9799468
11
2.4
21
44.0799433
0
LINE
8
0
10
2.4
20
44.0799433
11
2.4
21
44.0618654
0
LINE
8
0
10
2.4
20
44.0618654
11
2.4
21
44.0436409
0
LINE
8
0
10
2.4
20
44.0436409
11
2.4
21
43.1792116
0
LINE
8
0
10
2.4
20
43.1792116
11
2.4
21
43.1560169
0
LINE
8
0
10
2.4
20
43.1560169
11
2.4
21
42.7754328
0
LINE
8
0
10
2.4
20
42.7754328
11
2.4
21
41.9090773
0
LINE
8
0
10
2.4
20
41.9090773
11
2.4
21
41.1907882
0
LINE
8
0
10
2.4
20
41.1907882
11
2.4
21
40.6498776
0
LINE
8
0
10
2.4
20
40.6498776
11
2.4
21
38.8409745
0
LINE
8
0
10
2.4
20
38.8409745
11
2.4
21
38.1915712
0
LINE
8
0
10
2.4
20
38.1915712
11
2.4
21
37.7268821
0
LINE
8
0
10
2.4
20
37.7268821
11
2.4
21
31.4164502
0
LINE
8
0
10
2.4
20
31.4164502
11
2.4
21
28.3833226
0
LINE
8
0
10
2.4
20
28.3833226
11
2.4
21
25.8690269
0
LINE
8
0
10
2.4
20
25.8690269
11
2.4
21
21.0400831
0
LINE
8
0
10
2.4
20
21.0400831
11
9.51441736
21
21.0400868
0
LINE
8
0
10
9.51441736
20
21.0400868
11
13.8
21
21.0400868
0
LINE
8
0
10
13.8
20
21.0400868
11
14.0446798
21
21.0587902
0
LINE
8
0
10
14.0446798
20
21.0587902
11
14.19207
21
21.0700568
0
LINE
8
0
10
14.19207
20
21.0700568
11
14.4343908
21
21.1259736
0
LINE
8
0
10
14.4343908
20
21.1259736
11
14.58036
21
21.1596605
0
LINE
8
0
10
14.58036
20
21.1596605
11
14.817994
21
21.2522665
0
LINE
8
0
10
14.817994
20
21.2522665
11
14.96114
21
21.3080468
0
LINE
8
0
10
14.96114
20
21.3080468
11
15.1917907
21
21.436437
0
LINE
8
0
10
15.1917907
20
21.436437
11
15.33073
21
21.5137768
0
LINE
8
0
10
15.33073
20
21.5137768
11
15.5521881
21
21.6767219
0
LINE
8
0
10
15.5521881
20
21.6767219
11
15.68559
21
21.7748805
0
LINE
8
0
10
15.68559
20
21.7748805
11
15.8957087
21
21.9708141
0
LINE
8
0
10
15.8957087
20
21.9708141
11
16.02228
21
22.0888368
0
LINE
8
0
10
16.02228
20
22.0888368
11
16.2190436
21
22.3158616
0
LINE
8
0
10
16.2190436
20
22.3158616
11
16.33757
21
22.4526205
0
LINE
8
0
10
16.33757
20
22.4526205
11
16.5190875
21
22.7085648
0
LINE
8
0
10
16.5190875
20
22.7085648
11
16.62843
21
22.8627368
0
LINE
8
0
10
16.62843
20
22.8627368
11
16.9388745
21
23.4512301
0
LINE
8
0
10
16.9388745
20
23.4512301
11
17.12588
21
23.8057268
0
LINE
8
0
10
17.12588
20
23.8057268
11
17.3565619
21
24.4771405
0
LINE
8
0
10
17.3565619
20
24.4771405
11
17.49552
21
24.8815868
0
LINE
8
0
10
17.49552
20
24.8815868
11
17.6375712
21
25.6101093
0
LINE
8
0
10
17.6375712
20
25.6101093
11
17.72314
21
26.0489568
0
LINE
8
0
10
17.72314
20
26.0489568
11
17.7711062
21
26.8065985
0
LINE
8
0
10
17.7711062
20
26.8065985
11
17.8
21
27.2629868
0
LINE
8
0
10
17.8
20
27.2629868
11
17.8
21
28.9126392
0
LINE
8
0
10
17.8
20
28.9126392
11
17.8
21
30.4130381
0
LINE
8
0
10
17.8
20
30.4130381
11
17.8
21
31.680194
0
LINE
8
0
10
17.8
20
31.680194
11
17.8
21
33.7139738
0
LINE
8
0
10
17.8
20
33.7139738
11
17.8
21
36.9565039
0
LINE
8
0
10
17.8
20
36.9565039
11
16.0832088
21
36.9565039
0
LINE
8
0
10
16.0832088
20
36.9565039
11
16
21
36.9565039
0
LINE
8
0
10
16
20
36.9565039
11
16
21
36.9565039
0
LINE
8
0
10
35.2
20
-8.69337071
11
35.2
21
-8.09682979
0
LINE
8
0
10
35.2
20
-8.09682979
11
34.8548173
21
-7.56931954
0
LINE
8
0
10
34.8548173
20
-7.56931954
11
34.5760284
21
-7.13546201
0
LINE
8
0
10
34.5760284
20
-7.13546201
11
34.3384322
21
-6.68839913
0
LINE
8
0
10
34.3384322
20
-6.68839913
11
34
21
-6.00907439
0
LINE
8
0
10
34
20
-6.00907439
11
30.4972484
21
-6.00907439
0
LINE
8
0
10
30.4972484
20
-6.00907439
11
29.4
21
-6.00907439
0
LINE
8
0
10
29.4
20
-6.00907439
11
29.0615678
21
-6.68839913
0
LINE
8
0
10
29.0615678
20
-6.68839913
11
28.8239716
21
-7.13546201
0
LINE
8
0
10
28.8239716
20
-7.13546201
11
28.5451827
21
-7.56931954
0
LINE
8
0
10
28.5451827
20
-7.56931954
11
28.2
21
-8.09682979
0
LINE
8
0
10
28.2
20
-8.09682979
11
28.2
21
-8.85402973
0
LINE
8
0
10
28.2
20
-8.85402973
11
28.2
21
-10.2937891
0
LINE
8
0
10
28.2
20
-10.2937891
11
28.2
21
-11.2319159
0
LINE
8
0
10
28.2
20
-11.2319159
11
28.2
21
-11.8272673
0
LINE
8
0
10
28.2
20
-11.8272673
11
28.2
21
-12.1896308
0
LINE
8
0
10
28.2
20
-12.1896308
11
28.2
21
-12.3922197
0
LINE
8
0
10
28.2
20
-12.3922197
11
28.2
21
-13.5
0
LINE
8
0
10
28.2
20
-13.5
11
28.2023802
21
-13.5484426
0
LINE
8
0
10
28.2023802
20
-13.5484426
11
28.21204
21
-13.74504
0
LINE
8
0
10
28.21204
20
-13.74504
11
28.2410367
21
-13.904397
0
LINE
8
0
10
28.2410367
20
-13.904397
11
28.2628508
21
-14.0512471
0
LINE
8
0
10
28.2628508
20
-14.0512471
11
28.3474672
21
-14.3305222
0
LINE
8
0
10
28.3474672
20
-14.3305222
11
28.4492415
21
-14.576227
0
LINE
8
0
10
28.4492415
20
-14.576227
11
28.5849338
21
-14.8303986
0
LINE
8
0
10
28.5849338
20
-14.8303986
11
28.7523125
21
-15.0485357
0
LINE
8
0
10
28.7523125
20
-15.0485357
11
28.93223
21
-15.26777
0
LINE
8
0
10
28.93223
20
-15.26777
11
29.1372135
21
-15.4359924
0
LINE
8
0
10
29.1372135
20
-15.4359924
11
29.3748275
21
-15.6183159
0
LINE
8
0
10
29.3748275
20
-15.6183159
11
29.6024829
21
-15.740259
0
LINE
8
0
10
29.6024829
20
-15.740259
11
29.8919563
21
-15.8601628
0
LINE
8
0
10
29.8919563
20
-15.8601628
11
30.1324069
21
-15.9333376
0
LINE
8
0
10
30.1324069
20
-15.9333376
11
30.3319776
21
-15.9637509
0
LINE
8
0
10
30.3319776
20
-15.9637509
11
30.7
21
-16
0
LINE
8
0
10
30.7
20
-16
11
31.1661855
21
-16
0
LINE
8
0
10
31.1661855
20
-16
11
32.7
21
-16
0
LINE
8
0
10
32.7
20
-16
11
32.8520768
21
-15.9850209
0
LINE
8
0
10
32.8520768
20
-15.9850209
11
32.9976607
21
-15.9608103
0
LINE
8
0
10
32.9976607
20
-15.9608103
11
33.2953213
21
-15.9216206
0
LINE
8
0
10
33.2953213
20
-15.9216206
11
33.3336531
21
-15.9179339
0
LINE
8
0
10
33.3336531
20
-15.9179339
11
33.3744542
21
-15.905508
0
LINE
8
0
10
33.3744542
20
-15.905508
11
33.9240445
21
-15.6778603
0
LINE
8
0
10
33.9240445
20
-15.6778603
11
33.9629193
21
-15.6570264
0
LINE
8
0
10
33.9629193
20
-15.6570264
11
34.432541
21
-15.2966811
0
LINE
8
0
10
34.432541
20
-15.2966811
11
34.46777
21
-15.26777
0
LINE
8
0
10
34.46777
20
-15.26777
11
34.4992307
21
-15.2294342
0
LINE
8
0
10
34.4992307
20
-15.2294342
11
34.856318
21
-14.7640587
0
LINE
8
0
10
34.856318
20
-14.7640587
11
34.880142
21
-14.7194179
0
LINE
8
0
10
34.880142
20
-14.7194179
11
35.1038499
21
-14.179339
0
LINE
8
0
10
35.1038499
20
-14.179339
11
35.1187577
21
-14.13012
0
LINE
8
0
10
35.1187577
20
-14.13012
11
35.122621
21
-14.1041233
0
LINE
8
0
10
35.122621
20
-14.1041233
11
35.1911856
21
-13.6793916
0
LINE
8
0
10
35.1911856
20
-13.6793916
11
35.2
21
-13.5
0
LINE
8
0
10
35.2
20
-13.5
11
35.2
21
-12.0017074
0
LINE
8
0
10
35.2
20
-12.0017074
11
35.2
21
-11.7848842
0
LINE
8
0
10
35.2
20
-11.7848842
11
35.2
21
-11.3987114
0
LINE
8
0
10
35.2
20
-11.3987114
11
35.2
21
-10.7936307
0
LINE
8
0
10
35.2
20
-10.7936307
11
35.2
21
-9.9115302
0
LINE
8
0
10
35.2
20
-9.9115302
11
35.2
21
-8.69337071
0
LINE
8
0
10
35.2
20
-8.69337071
11
35.2
21
-8.69337071
0
LINE
8
0
10
35.2
20
10
11
35.2
21
8.93262334
0
LINE
8
0
10
35.2
20
8.93262334
11
35.2
21
2.65420445
0
LINE
8
0
10
35.2
20
2.65420445
11
35.2
21
2.10055132
0
LINE
8
0
10
35.2
20
2.10055132
11
34.8082413
21
1.49193154
0
LINE
8
0
10
34.8082413
20
1.49193154
11
34.5008713
21
1.00551767
0
LINE
8
0
10
34.5008713
20
1.00551767
11
34.2985275
21
0.615961233
0
LINE
8
0
10
34.2985275
20
0.615961233
11
34
21
0.00198720919
0
LINE
8
0
10
34
20
0.00198720919
11
32.5590975
21
0.00198720919
0
LINE
8
0
10
32.5590975
20
0.00198720919
11
29.4
21
0.00198720919
0
LINE
8
0
10
29.4
20
0.00198720919
11
29.1014725
21
0.615961233
0
LINE
8
0
10
29.1014725
20
0.615961233
11
28.8991287
21
1.00551767
0
LINE
8
0
10
28.8991287
20
1.00551767
11
28.5917587
21
1.49193154
0
LINE
8
0
10
28.5917587
20
1.49193154
11
28.2
21
2.10055132
0
LINE
8
0
10
28.2
20
2.10055132
11
28.2
21
2.86237333
0
LINE
8
0
10
28.2
20
2.86237333
11
28.2
21
9.39213169
0
LINE
8
0
10
28.2
20
9.39213169
11
28.2
21
10.5591214
0
LINE
8
0
10
28.2
20
10.5591214
11
28.2
21
10.7287408
0
LINE
8
0
10
28.2
20
10.7287408
11
28.2
21
12.3704917
0
LINE
8
0
10
28.2
20
12.3704917
11
28.2
21
15
0
LINE
8
0
10
28.2
20
15
11
29.8240717
21
15
0
LINE
8
0
10
29.8240717
20
15
11
30.2
21
15
0
LINE
8
0
10
30.2
20
15
11
30.2
21
13.1009421
0
LINE
8
0
10
30.2
20
13.1009421
11
30.2
21
12.65094
0
LINE
8
0
10
30.2
20
12.65094
11
30.2
21
12.4418506
0
LINE
8
0
10
30.2
20
12.4418506
11
30.2
21
12.39302
0
LINE
8
0
10
30.2
20
12.39302
11
30.2
21
12.1847962
0
LINE
8
0
10
30.2
20
12.1847962
11
30.2
21
12.13557
0
LINE
8
0
10
30.2
20
12.13557
11
30.2
21
11.9427411
0
LINE
8
0
10
30.2
20
11.9427411
11
30.2
21
11.89597
0
LINE
8
0
10
30.2
20
11.89597
11
30.2
21
11.7317288
0
LINE
8
0
10
30.2
20
11.7317288
11
30.2
21
11.69043
0
LINE
8
0
10
30.2
20
11.69043
11
30.2
21
11.565568
0
LINE
8
0
10
30.2
20
11.565568
11
30.2
21
11.53281
0
LINE
8
0
10
30.2
20
11.53281
11
30.2
21
10.4583128
0
LINE
8
0
10
30.2
20
10.4583128
11
30.2
21
10
0
LINE
8
0
10
30.2
20
10
11
33.8622388
21
10
0
LINE
8
0
10
33.8622388
20
10
11
35.2
21
10
0
LINE
8
0
10
35.2
20
10
11
35.2
21
10
0
LINE
8
0
10
72
20
14.7125682
11
72
21
17.12719
0
LINE
8
0
10
72
20
17.12719
11
72
21
17.4428815
0
LINE
8
0
10
72
20
17.4428815
11
72
21
20.57188
0
LINE
8
0
10
72
20
20.57188
11
72.3580106
21
20.9349253
0
LINE
8
0
10
72.3580106
20
20.9349253
11
72.7138133
21
21.2957248
0
LINE
8
0
10
72.7138133
20
21.2957248
11
73.0683791
21
21.65528
0
LINE
8
0
10
73.0683791
20
21.65528
11
73.15509
21
21.74321
0
LINE
8
0
10
73.15509
20
21.74321
11
73.4467866
21
22.0390086
0
LINE
8
0
10
73.4467866
20
22.0390086
11
73.44949
21
22.04175
0
LINE
8
0
10
73.44949
20
22.04175
11
73.5156503
21
22.1088418
0
LINE
8
0
10
73.5156503
20
22.1088418
11
73.5159577
21
27.0428491
0
LINE
8
0
10
73.5159577
20
27.0428491
11
73.5122133
21
28.7612549
0
LINE
8
0
10
73.5122133
20
28.7612549
11
71.6803053
21
28.7612549
0
LINE
8
0
10
71.6803053
20
28.7612549
11
63.6798435
21
28.7554891
0
LINE
8
0
10
63.6798435
20
28.7554891
11
63.387702
21
28.4310327
0
LINE
8
0
10
63.387702
20
28.4310327
11
63.1
21
28.11151
0
LINE
8
0
10
63.1
20
28.11151
11
63.1
21
28.0901678
0
LINE
8
0
10
63.1
20
28.0901678
11
63.1
21
28.0704313
0
LINE
8
0
10
63.1
20
28.0704313
11
63.1
21
28.0520891
0
LINE
8
0
10
63.1
20
28.0520891
11
63.1
21
21.9367286
0
LINE
8
0
10
63.1
20
21.9367286
11
63.1
21
10
0
LINE
8
0
10
63.1
20
10
11
62.3984304
21
10
0
LINE
8
0
10
62.3984304
20
10
11
60.3267877
21
10
0
LINE
8
0
10
60.3267877
20
10
11
60.2405341
21
10
0
LINE
8
0
10
60.2405341
20
10
11
57.3
21
10
0
LINE
8
0
10
57.3
20
10
11
57.3
21
8.16391104
0
LINE
8
0
10
57.3
20
8.16391104
11
57.3
21
7.81036832
0
LINE
8
0
10
57.3
20
7.81036832
11
57.6917587
21
7.20174854
0
LINE
8
0
10
57.6917587
20
7.20174854
11
57.9991287
21
6.71533484
0
LINE
8
0
10
57.9991287
20
6.71533484
11
58.2014725
21
6.32577858
0
LINE
8
0
10
58.2014725
20
6.32577858
11
58.5
21
5.71180499
0
LINE
8
0
10
58.5
20
5.71180499
11
65.0663671
21
5.7419615
0
LINE
8
0
10
65.0663671
20
5.7419615
11
66.1288815
21
5.73958055
0
LINE
8
0
10
66.1288815
20
5.73958055
11
66.2741906
21
5.76303916
0
LINE
8
0
10
66.2741906
20
5.76303916
11
66.6491136
21
5.79820456
0
LINE
8
0
10
66.6491136
20
5.79820456
11
66.9197114
21
5.8771029
0
LINE
8
0
10
66.9197114
20
5.8771029
11
67.1775323
21
5.95215744
0
LINE
8
0
10
67.1775323
20
5.95215744
11
67.316199
21
6.0225994
0
LINE
8
0
10
67.316199
20
6.0225994
11
67.6325755
21
6.18285032
0
LINE
8
0
10
67.6325755
20
6.18285032
11
67.6865164
21
6.20654983
0
LINE
8
0
10
67.6865164
20
6.20654983
11
67.7082411
21
6.2160756
0
LINE
8
0
10
67.7082411
20
6.2160756
11
68.0294924
21
6.42234708
0
LINE
8
0
10
68.0294924
20
6.42234708
11
68.2430744
21
6.55907348
0
LINE
8
0
10
68.2430744
20
6.55907348
11
68.3620492
21
6.6621824
0
LINE
8
0
10
68.3620492
20
6.6621824
11
68.5416961
21
6.81725018
0
LINE
8
0
10
68.5416961
20
6.81725018
11
68.6833417
21
6.92504606
0
LINE
8
0
10
68.6833417
20
6.92504606
11
68.7719559
21
6.99233525
0
LINE
8
0
10
68.7719559
20
6.99233525
11
68.9905051
21
7.20637601
0
LINE
8
0
10
68.9905051
20
7.20637601
11
69.2880292
21
7.49695419
0
LINE
8
0
10
69.2880292
20
7.49695419
11
69.2981217
21
7.50935922
0
LINE
8
0
10
69.2981217
20
7.50935922
11
69.3114758
21
7.52572049
0
LINE
8
0
10
69.3114758
20
7.52572049
11
69.8379542
21
8.11050875
0
LINE
8
0
10
69.8379542
20
8.11050875
11
69.9109446
21
8.20835107
0
LINE
8
0
10
69.9109446
20
8.20835107
11
69.9889361
21
8.33226994
0
LINE
8
0
10
69.9889361
20
8.33226994
11
70.5713577
21
9.1614594
0
LINE
8
0
10
70.5713577
20
9.1614594
11
70.5991425
21
9.20525378
0
LINE
8
0
10
70.5991425
20
9.20525378
11
70.6237899
21
9.25272873
0
LINE
8
0
10
70.6237899
20
9.25272873
11
71.1640594
21
10.3510545
0
LINE
8
0
10
71.1640594
20
10.3510545
11
71.2107197
21
10.4622491
0
LINE
8
0
10
71.2107197
20
10.4622491
11
71.2495327
21
10.5794416
0
LINE
8
0
10
71.2495327
20
10.5794416
11
71.6160857
21
11.6984685
0
LINE
8
0
10
71.6160857
20
11.6984685
11
71.6619103
21
11.8813191
0
LINE
8
0
10
71.6619103
20
11.8813191
11
71.8587305
21
12.9238506
0
LINE
8
0
10
71.8587305
20
12.9238506
11
71.9015087
21
13.1675786
0
LINE
8
0
10
71.9015087
20
13.1675786
11
71.9273734
21
13.4161241
0
LINE
8
0
10
71.9273734
20
13.4161241
11
71.989597
21
14.4111602
0
LINE
8
0
10
71.989597
20
14.4111602
11
72
21
14.7112557
0
LINE
8
0
10
72
20
14.7112557
11
72
21
14.7125682
0
LINE
8
0
10
72
20
14.7125682
11
72
21
14.7125682
0
LINE
8
0
10
72
20
-9.90920063
11
72
21
-13.5
0
LINE
8
0
10
72
20
-13.5
11
71.9544144
21
-13.8462394
0
LINE
8
0
10
71.9544144
20
-13.8462394
11
71.91481
21
-14.14705
0
LINE
8
0
10
71.91481
20
-14.14705
11
71.7987023
21
-14.4273588
0
LINE
8
0
10
71.7987023
20
-14.4273588
11
71.66506
21
-14.75
0
LINE
8
0
10
71.66506
20
-14.75
11
71.4803617
21
-14.990709
0
LINE
8
0
10
71.4803617
20
-14.990709
11
71.26777
21
-15.26777
0
LINE
8
0
10
71.26777
20
-15.26777
11
71.027061
21
-15.4524683
0
LINE
8
0
10
71.027061
20
-15.4524683
11
70.75
21
-15.66506
0
LINE
8
0
10
70.75
20
-15.66506
11
70.4696912
21
-15.7811677
0
LINE
8
0
10
70.4696912
20
-15.7811677
11
70.14705
21
-15.91481
0
LINE
8
0
10
70.14705
20
-15.91481
11
69.8462394
21
-15.9544144
0
LINE
8
0
10
69.8462394
20
-15.9544144
11
69.5
21
-16
0
LINE
8
0
10
69.5
20
-16
11
62.2498645
21
-16
0
LINE
8
0
10
62.2498645
20
-16
11
58.8
21
-16
0
LINE
8
0
10
58.8
20
-16
11
58.7815671
21
-15.9996202
0
LINE
8
0
10
58.7815671
20
-15.9996202
11
58.73836
21
-15.99873
0
LINE
8
0
10
58.73836
20
-15.99873
11
58.7198736
21
-15.997589
0
LINE
8
0
10
58.7198736
20
-15.997589
11
58.67679
21
-15.99493
0
LINE
8
0
10
58.67679
20
-15.99493
11
58.6340406
21
-15.9905201
0
LINE
8
0
10
58.6340406
20
-15.9905201
11
58.4917576
21
-15.9644899
0
LINE
8
0
10
58.4917576
20
-15.9644899
11
58.41177
21
-15.94889
0
LINE
8
0
10
58.41177
20
-15.94889
11
58.1274596
21
-15.8311248
0
LINE
8
0
10
58.1274596
20
-15.8311248
11
58.05
21
-15.79904
0
LINE
8
0
10
58.05
20
-15.79904
11
57.8058563
21
-15.6117002
0
LINE
8
0
10
57.8058563
20
-15.6117002
11
57.73934
21
-15.56066
0
LINE
8
0
10
57.73934
20
-15.56066
11
57.5520002
21
-15.3165163
0
LINE
8
0
10
57.5520002
20
-15.3165163
11
57.50096
21
-15.25
0
LINE
8
0
10
57.50096
20
-15.25
11
57.3831948
21
-14.9656896
0
LINE
8
0
10
57.3831948
20
-14.9656896
11
57.35111
21
-14.88823
0
LINE
8
0
10
57.35111
20
-14.88823
11
57.3277441
21
-14.7107431
0
LINE
8
0
10
57.3277441
20
-14.7107431
11
57.3175404
21
-14.6332363
0
LINE
8
0
10
57.3175404
20
-14.6332363
11
57.3095811
21
-14.5870923
0
LINE
8
0
10
57.3095811
20
-14.5870923
11
57.3
21
-14.5
0
LINE
8
0
10
57.3
20
-14.5
11
57.3
21
-14.4120079
0
LINE
8
0
10
57.3
20
-14.4120079
11
57.3
21
-14.17729
0
LINE
8
0
10
57.3
20
-14.17729
11
57.3
21
-9.22913825
0
LINE
8
0
10
57.3
20
-9.22913825
11
57.3
21
-9.09747856
0
LINE
8
0
10
57.3
20
-9.09747856
11
57.3
21
-8.53253854
0
LINE
8
0
10
57.3
20
-8.53253854
11
57.3
21
-8.40094004
0
LINE
8
0
10
57.3
20
-8.40094004
11
57.3
21
-7.61809544
0
LINE
8
0
10
57.3
20
-7.61809544
11
57.3
21
-6.53891745
0
LINE
8
0
10
57.3
20
-6.53891745
11
57.3
21
-5.09947703
0
LINE
8
0
10
57.3
20
-5.09947703
11
57.3
21
-3.24394331
0
LINE
8
0
10
57.3
20
-3.24394331
11
57.3
21
-2.38701219
0
LINE
8
0
10
57.3
20
-2.38701219
11
57.6451827
21
-1.85950226
0
LINE
8
0
10
57.6451827
20
-1.85950226
11
57.9239716
21
-1.42564449
0
LINE
8
0
10
57.9239716
20
-1.42564449
11
58.1615678
21
-0.978581187
0
LINE
8
0
10
58.1615678
20
-0.978581187
11
58.5
21
-0.299256984
0
LINE
8
0
10
58.5
20
-0.299256984
11
66.0050287
21
-0.312044928
0
LINE
8
0
10
66.0050287
20
-0.312044928
11
67.6654592
21
-0.312814641
0
LINE
8
0
10
67.6654592
20
-0.312814641
11
67.8318791
21
-0.342566862
0
LINE
8
0
10
67.8318791
20
-0.342566862
11
68.0673407
21
-0.36431564
0
LINE
8
0
10
68.0673407
20
-0.36431564
11
68.3021851
21
-0.427793648
0
LINE
8
0
10
68.3021851
20
-0.427793648
11
68.4891547
21
-0.478220049
0
LINE
8
0
10
68.4891547
20
-0.478220049
11
68.9132024
21
-0.667084408
0
LINE
8
0
10
68.9132024
20
-0.667084408
11
68.924224
21
-0.671979483
0
LINE
8
0
10
68.924224
20
-0.671979483
11
68.9396584
21
-0.681598558
0
LINE
8
0
10
68.9396584
20
-0.681598558
11
69.354949
21
-0.913251538
0
LINE
8
0
10
69.354949
20
-0.913251538
11
69.6603666
21
-1.13642093
0
LINE
8
0
10
69.6603666
20
-1.13642093
11
69.7744412
21
-1.21948727
0
LINE
8
0
10
69.7744412
20
-1.21948727
11
69.870232
21
-1.30734398
0
LINE
8
0
10
69.870232
20
-1.30734398
11
70.1689461
21
-1.55827815
0
LINE
8
0
10
70.1689461
20
-1.55827815
11
70.4563425
21
-1.85699545
0
LINE
8
0
10
70.4563425
20
-1.85699545
11
70.5326971
21
-1.93603944
0
LINE
8
0
10
70.5326971
20
-1.93603944
11
70.5867123
21
-2.00452576
0
LINE
8
0
10
70.5867123
20
-2.00452576
11
70.8582072
21
-2.32481742
0
LINE
8
0
10
70.8582072
20
-2.32481742
11
71.1007456
21
-2.67546248
0
LINE
8
0
10
71.1007456
20
-2.67546248
11
71.1436067
21
-2.73712641
0
LINE
8
0
10
71.1436067
20
-2.73712641
11
71.1768327
21
-2.79604407
0
LINE
8
0
10
71.1768327
20
-2.79604407
11
71.3858533
21
-3.14487995
0
LINE
8
0
10
71.3858533
20
-3.14487995
11
71.527163
21
-3.4401965
0
LINE
8
0
10
71.527163
20
-3.4401965
11
71.585553
21
-3.56149127
0
LINE
8
0
10
71.585553
20
-3.56149127
11
71.6425954
21
-3.71371135
0
LINE
8
0
10
71.6425954
20
-3.71371135
11
71.7431126
21
-3.96852415
0
LINE
8
0
10
71.7431126
20
-3.96852415
11
71.7882521
21
-4.12226631
0
LINE
8
0
10
71.7882521
20
-4.12226631
11
71.8605231
21
-4.36668007
0
LINE
8
0
10
71.8605231
20
-4.36668007
11
71.9355194
21
-4.73547836
0
LINE
8
0
10
71.9355194
20
-4.73547836
11
71.9403727
21
-4.7591663
0
LINE
8
0
10
71.9403727
20
-4.7591663
11
71.9457796
21
-4.80458475
0
LINE
8
0
10
71.9457796
20
-4.80458475
11
71.9856909
21
-5.1254771
0
LINE
8
0
10
71.9856909
20
-5.1254771
11
71.9906396
21
-5.24749637
0
LINE
8
0
10
71.9906396
20
-5.24749637
11
72
21
-5.47636729
0
LINE
8
0
10
72
20
-5.47636729
11
72
21
-6.00844334
0
LINE
8
0
10
72
20
-6.00844334
11
72
21
-6.96242712
0
LINE
8
0
10
72
20
-6.96242712
11
72
21
-8.33119914
0
LINE
8
0
10
72
20
-8.33119914
11
72
21
-9.21958498
0
LINE
8
0
10
72
20
-9.21958498
11
72
21
-9.80306401
0
LINE
8
0
10
72
20
-9.80306401
11
72
21
-9.90920063
0
LINE
8
0
10
72
20
-9.90920063
11
72
21
-9.90920063
0
ENDSEC
0
EOF
