0
SECTION
2
ENTITIES
0
LINE
8
0
10
16
20
50.1480352
11
16
21
45.2
0
LINE
8
0
10
16
20
45.2
11
16
21
45.1855089
0
LINE
8
0
10
16
20
45.1855089
11
16
21
44.212994
0
LINE
8
0
10
16
20
44.212994
11
16
21
44.1705216
0
LINE
8
0
10
16
20
44.1705216
11
16
21
43.2182475
0
LINE
8
0
10
16
20
43.2182475
11
16
21
43.0896991
0
LINE
8
0
10
16
20
43.0896991
11
16
21
42.2052778
0
LINE
8
0
10
16
20
42.2052778
11
16
21
41.9282673
0
LINE
8
0
10
16
20
41.9282673
11
16
21
41.1580702
0
LINE
8
0
10
16
20
41.1580702
11
16
21
40.6650417
0
LINE
8
0
10
16
20
40.6650417
11
16
21
40.0521738
0
LINE
8
0
10
16
20
40.0521738
11
16
21
39.2663519
0
LINE
8
0
10
16
20
39.2663519
11
16
21
37.987581
0
LINE
8
0
10
16
20
37.987581
11
16
21
37.6768846
0
LINE
8
0
10
16
20
37.6768846
11
16
21
36.5375281
0
LINE
8
0
10
16
20
36.5375281
11
17.1413771
21
36.5375281
0
LINE
8
0
10
17.1413771
20
36.5375281
11
17.8
21
36.5375281
0
LINE
8
0
10
17.8
20
36.5375281
11
17.8
21
35.2935768
0
LINE
8
0
10
17.8
20
35.2935768
11
17.8
21
32.8546481
0
LINE
8
0
10
17.8
20
32.8546481
11
17.8
21
31.3350623
0
LINE
8
0
10
17.8
20
31.3350623
11
17.8
21
29.5357693
0
LINE
8
0
10
17.8
20
29.5357693
11
17.8
21
28.0840752
0
LINE
8
0
10
17.8
20
28.0840752
11
17.7653502
21
27.5367699
0
LINE
8
0
10
17.7653502
20
27.5367699
11
17.72314
21
26.8700452
0
LINE
8
0
10
17.72314
20
26.8700452
11
17.6205251
21
26.343775
0
LINE
8
0
10
17.6205251
20
26.343775
11
17.49552
21
25.7026752
0
LINE
8
0
10
17.49552
20
25.7026752
11
17.32888
21
25.2176593
0
LINE
8
0
10
17.32888
20
25.2176593
11
17.12588
21
24.6268152
0
LINE
8
0
10
17.12588
20
24.6268152
11
16.9016211
21
24.2016993
0
LINE
8
0
10
16.9016211
20
24.2016993
11
16.62843
21
23.6838252
0
LINE
8
0
10
16.62843
20
23.6838252
11
16.4973054
21
23.4989406
0
LINE
8
0
10
16.4973054
20
23.4989406
11
16.33757
21
23.2737097
0
LINE
8
0
10
16.33757
20
23.2737097
11
16.1954319
21
23.109707
0
LINE
8
0
10
16.1954319
20
23.109707
11
16.02228
21
22.9099252
0
LINE
8
0
10
16.02228
20
22.9099252
11
15.8704945
21
22.7683912
0
LINE
8
0
10
15.8704945
20
22.7683912
11
15.68559
21
22.5959697
0
LINE
8
0
10
15.68559
20
22.5959697
11
15.5256131
21
22.4782569
0
LINE
8
0
10
15.5256131
20
22.4782569
11
15.33073
21
22.3348652
0
LINE
8
0
10
15.33073
20
22.3348652
11
15.1641126
21
22.2421186
0
LINE
8
0
10
15.1641126
20
22.2421186
11
14.96114
21
22.1291352
0
LINE
8
0
10
14.96114
20
22.1291352
11
14.7894779
21
22.0622429
0
LINE
8
0
10
14.7894779
20
22.0622429
11
14.58036
21
21.9807497
0
LINE
8
0
10
14.58036
20
21.9807497
11
14.4053123
21
21.940352
0
LINE
8
0
10
14.4053123
20
21.940352
11
14.19207
21
21.8911452
0
LINE
8
0
10
14.19207
20
21.8911452
11
14.0153182
21
21.8776342
0
LINE
8
0
10
14.0153182
20
21.8776342
11
13.8
21
21.8611752
0
LINE
8
0
10
13.8
20
21.8611752
11
8.66068728
21
21.8611752
0
LINE
8
0
10
8.66068728
20
21.8611752
11
2.4
21
21.8611719
0
LINE
8
0
10
2.4
20
21.8611719
11
2.4
21
26.1106424
0
LINE
8
0
10
2.4
20
26.1106424
11
2.4
21
28.3232227
0
LINE
8
0
10
2.4
20
28.3232227
11
2.4
21
30.992375
0
LINE
8
0
10
2.4
20
30.992375
11
2.4
21
38.0982844
0
LINE
8
0
10
2.4
20
38.0982844
11
2.4
21
38.6215511
0
LINE
8
0
10
2.4
20
38.6215511
11
2.4
21
39.3528166
0
LINE
8
0
10
2.4
20
39.3528166
11
2.4
21
40.7411887
0
LINE
8
0
10
2.4
20
40.7411887
11
2.4
21
41.3387329
0
LINE
8
0
10
2.4
20
41.3387329
11
2.4
21
42.1322272
0
LINE
8
0
10
2.4
20
42.1322272
11
2.4
21
43.0892905
0
LINE
8
0
10
2.4
20
43.0892905
11
2.4
21
43.236186
0
LINE
8
0
10
2.4
20
43.236186
11
2.4
21
43.2451386
0
LINE
8
0
10
2.4
20
43.2451386
11
2.4
21
44.192461
0
LINE
8
0
10
2.4
20
44.192461
11
2.4
21
44.1956936
0
LINE
8
0
10
2.4
20
44.1956936
11
2.4
21
44.1989002
0
LINE
8
0
10
2.4
20
44.1989002
11
2.4
21
45.1844235
0
LINE
8
0
10
2.4
20
45.1844235
11
2.4
21
45.2312935
0
LINE
8
0
10
2.4
20
45.2312935
11
2.4
21
48.2
0
LINE
8
0
10
2.4
20
48.2
11
2.40071086
21
48.2053996
0
LINE
8
0
10
2.40071086
20
48.2053996
11
2.468148
21
48.71764
0
LINE
8
0
10
2.468148
20
48.71764
11
2.47023216
21
48.7226716
0
LINE
8
0
10
2.47023216
20
48.7226716
11
2.667949
21
49.2
0
LINE
8
0
10
2.667949
20
49.2
11
2.67126441
21
49.2043207
0
LINE
8
0
10
2.67126441
20
49.2043207
11
2.985786
21
49.61421
0
LINE
8
0
10
2.985786
20
49.61421
11
2.99010674
21
49.6175254
0
LINE
8
0
10
2.99010674
20
49.6175254
11
3.4
21
49.93205
0
LINE
8
0
10
3.4
20
49.93205
11
3.4050316
21
49.9341341
0
LINE
8
0
10
3.4050316
20
49.9341341
11
3.882362
21
50.13185
0
LINE
8
0
10
3.882362
20
50.13185
11
3.88776157
21
50.1325609
0
LINE
8
0
10
3.88776157
20
50.1325609
11
4.4
21
50.2
0
LINE
8
0
10
4.4
20
50.2
11
4.50132867
21
50.2
0
LINE
8
0
10
4.50132867
20
50.2
11
4.5091056
21
50.2
0
LINE
8
0
10
4.5091056
20
50.2
11
4.51767679
21
50.2
0
LINE
8
0
10
4.51767679
20
50.2
11
4.52624664
21
50.2
0
LINE
8
0
10
4.52624664
20
50.2
11
4.53378868
21
50.2
0
LINE
8
0
10
4.53378868
20
50.2
11
4.53925887
21
50.2
0
LINE
8
0
10
4.53925887
20
50.2
11
15.8945009
21
50.2
0
LINE
8
0
10
15.8945009
20
50.2
11
15.8996277
21
50.2
0
LINE
8
0
10
15.8996277
20
50.2
11
15.9062023
21
50.2
0
LINE
8
0
10
15.9062023
20
50.2
11
15.9133435
21
50.2
0
LINE
8
0
10
15.9133435
20
50.2
11
15.9202314
21
50.2
0
LINE
8
0
10
15.9202314
20
50.2
11
15.9262646
21
50.2
0
LINE
8
0
10
15.9262646
20
50.2
11
16
21
50.2
0
LINE
8
0
10
16
20
50.2
11
16
21
50.1480352
0
LINE
8
0
10
16
20
50.1480352
11
16
21
50.1480352
0
LINE
8
0
10
35.2
20
-8.78041427
11
35.2
21
-9.53741331
0
LINE
8
0
10
35.2
20
-9.53741331
11
35.2
21
-10.5114775
0
LINE
8
0
10
35.2
20
-10.5114775
11
35.2
21
-11.1796409
0
LINE
8
0
10
35.2
20
-11.1796409
11
35.2
21
-11.6060743
0
LINE
8
0
10
35.2
20
-11.6060743
11
35.2
21
-11.8455026
0
LINE
8
0
10
35.2
20
-11.8455026
11
35.2
21
-13.5
0
LINE
8
0
10
35.2
20
-13.5
11
35.1915213
21
-13.6725598
0
LINE
8
0
10
35.1915213
20
-13.6725598
11
35.1158214
21
-14.1414915
0
LINE
8
0
10
35.1158214
20
-14.1414915
11
35.1153212
21
-14.1448578
0
LINE
8
0
10
35.1153212
20
-14.1448578
11
35.1133908
21
-14.151231
0
LINE
8
0
10
35.1133908
20
-14.151231
11
34.8670129
21
-14.74604
0
LINE
8
0
10
34.8670129
20
-14.74604
11
34.863928
21
-14.7518204
0
LINE
8
0
10
34.863928
20
-14.7518204
11
34.4718438
21
-15.262806
0
LINE
8
0
10
34.4718438
20
-15.262806
11
34.46777
21
-15.26777
0
LINE
8
0
10
34.46777
20
-15.26777
11
34.4632083
21
-15.2715136
0
LINE
8
0
10
34.4632083
20
-15.2715136
11
33.9516729
21
-15.6640198
0
LINE
8
0
10
33.9516729
20
-15.6640198
11
33.9466391
21
-15.6667175
0
LINE
8
0
10
33.9466391
20
-15.6667175
11
33.3505985
21
-15.9136055
0
LINE
8
0
10
33.3505985
20
-15.9136055
11
33.3453153
21
-15.9152145
0
LINE
8
0
10
33.3453153
20
-15.9152145
11
33.3403518
21
-15.9156919
0
LINE
8
0
10
33.3403518
20
-15.9156919
11
33.0201759
21
-15.9578459
0
LINE
8
0
10
33.0201759
20
-15.9578459
11
32.86358
21
-15.9838878
0
LINE
8
0
10
32.86358
20
-15.9838878
11
32.7
21
-16
0
LINE
8
0
10
32.7
20
-16
11
31.2175058
21
-16
0
LINE
8
0
10
31.2175058
20
-16
11
30.7
21
-16
0
LINE
8
0
10
30.7
20
-16
11
30.3462694
21
-15.9651586
0
LINE
8
0
10
30.3462694
20
-15.9651586
11
30.1228721
21
-15.9311143
0
LINE
8
0
10
30.1228721
20
-15.9311143
11
29.9112755
21
-15.8667205
0
LINE
8
0
10
29.9112755
20
-15.8667205
11
29.5841849
21
-15.7312351
0
LINE
8
0
10
29.5841849
20
-15.7312351
11
29.3838482
21
-15.6239252
0
LINE
8
0
10
29.3838482
20
-15.6239252
11
29.1126155
21
-15.4158057
0
LINE
8
0
10
29.1126155
20
-15.4158057
11
28.93223
21
-15.26777
0
LINE
8
0
10
28.93223
20
-15.26777
11
28.7739026
21
-15.0748439
0
LINE
8
0
10
28.7739026
20
-15.0748439
11
28.5789345
21
-14.8207508
0
LINE
8
0
10
28.5789345
20
-14.8207508
11
28.4595253
21
-14.5970798
0
LINE
8
0
10
28.4595253
20
-14.5970798
11
28.3399939
21
-14.3085055
0
LINE
8
0
10
28.3399939
20
-14.3085055
11
28.2655315
21
-14.0627435
0
LINE
8
0
10
28.2655315
20
-14.0627435
11
28.2463351
21
-13.9335154
0
LINE
8
0
10
28.2463351
20
-13.9335154
11
28.21204
21
-13.74504
0
LINE
8
0
10
28.21204
20
-13.74504
11
28.2028165
21
-13.5573226
0
LINE
8
0
10
28.2028165
20
-13.5573226
11
28.2
21
-13.5
0
LINE
8
0
10
28.2
20
-13.5
11
28.2
21
-12.1891533
0
LINE
8
0
10
28.2
20
-12.1891533
11
28.2
21
-11.949428
0
LINE
8
0
10
28.2
20
-11.949428
11
28.2
21
-11.5206399
0
LINE
8
0
10
28.2
20
-11.5206399
11
28.2
21
-10.8161551
0
LINE
8
0
10
28.2
20
-10.8161551
11
28.2
21
-9.70606107
0
LINE
8
0
10
28.2
20
-9.70606107
11
28.2
21
-8.78041427
0
LINE
8
0
10
28.2
20
-8.78041427
11
28.7296344
21
-8.08788184
0
LINE
8
0
10
28.7296344
20
-8.08788184
11
29.0523116
21
-7.59476474
0
LINE
8
0
10
29.0523116
20
-7.59476474
11
29.4
21
-7.0536843
0
LINE
8
0
10
29.4
20
-7.0536843
11
31.0169803
21
-7.0536843
0
LINE
8
0
10
31.0169803
20
-7.0536843
11
34
21
-7.0536843
0
LINE
8
0
10
34
20
-7.0536843
11
34.3476884
21
-7.59476474
0
LINE
8
0
10
34.3476884
20
-7.59476474
11
34.6703656
21
-8.08788184
0
LINE
8
0
10
34.6703656
20
-8.08788184
11
35.2
21
-8.78041427
0
LINE
8
0
10
35.2
20
-8.78041427
11
35.2
21
-8.78041427
0
LINE
8
0
10
35.2
20
10
11
35.2
21
8.8213437
0
LINE
8
0
10
35.2
20
8.8213437
11
35.2
21
2.84586624
0
LINE
8
0
10
35.2
20
2.84586624
11
35.1020717
21
2.70590133
0
LINE
8
0
10
35.1020717
20
2.70590133
11
34.5716273
21
1.94775867
0
LINE
8
0
10
34.5716273
20
1.94775867
11
34.3008015
21
1.52701509
0
LINE
8
0
10
34.3008015
20
1.52701509
11
34
21
1.05099597
0
LINE
8
0
10
34
20
1.05099597
11
32.0227215
21
1.05099597
0
LINE
8
0
10
32.0227215
20
1.05099597
11
29.4
21
1.05099597
0
LINE
8
0
10
29.4
20
1.05099597
11
29.0991985
21
1.52701509
0
LINE
8
0
10
29.0991985
20
1.52701509
11
28.8283727
21
1.94775867
0
LINE
8
0
10
28.8283727
20
1.94775867
11
28.2979283
21
2.70590133
0
LINE
8
0
10
28.2979283
20
2.70590133
11
28.2
21
2.84586624
0
LINE
8
0
10
28.2
20
2.84586624
11
28.2
21
9.22571105
0
LINE
8
0
10
28.2
20
9.22571105
11
28.2
21
10.252662
0
LINE
8
0
10
28.2
20
10.252662
11
28.2
21
10.4019271
0
LINE
8
0
10
28.2
20
10.4019271
11
28.2
21
11.8466678
0
LINE
8
0
10
28.2
20
11.8466678
11
28.2
21
15
0
LINE
8
0
10
28.2
20
15
11
29.7491831
21
15
0
LINE
8
0
10
29.7491831
20
15
11
30.2
21
15
0
LINE
8
0
10
30.2
20
15
11
30.2
21
13.1885107
0
LINE
8
0
10
30.2
20
13.1885107
11
30.2
21
12.65094
0
LINE
8
0
10
30.2
20
12.65094
11
30.2
21
12.4514394
0
LINE
8
0
10
30.2
20
12.4514394
11
30.2
21
12.39302
0
LINE
8
0
10
30.2
20
12.39302
11
30.2
21
12.1943657
0
LINE
8
0
10
30.2
20
12.1943657
11
30.2
21
12.13557
0
LINE
8
0
10
30.2
20
12.13557
11
30.2
21
11.9515821
0
LINE
8
0
10
30.2
20
11.9515821
11
30.2
21
11.89597
0
LINE
8
0
10
30.2
20
11.89597
11
30.2
21
11.7392089
0
LINE
8
0
10
30.2
20
11.7392089
11
30.2
21
11.69043
0
LINE
8
0
10
30.2
20
11.69043
11
30.2
21
11.5711955
0
LINE
8
0
10
30.2
20
11.5711955
11
30.2
21
11.53281
0
LINE
8
0
10
30.2
20
11.53281
11
30.2
21
10.5060943
0
LINE
8
0
10
30.2
20
10.5060943
11
30.2
21
10
0
LINE
8
0
10
30.2
20
10
11
33.7227701
21
10
0
LINE
8
0
10
33.7227701
20
10
11
35.2
21
10
0
LINE
8
0
10
35.2
20
10
11
35.2
21
10
0
LINE
8
0
10
72
20
-7.79232441
11
72
21
-6.2808507
0
LINE
8
0
10
72
20
-6.2808507
11
72
21
-5.79465829
0
LINE
8
0
10
72
20
-5.79465829
11
71.9910886
21
-5.58291913
0
LINE
8
0
10
71.9910886
20
-5.58291913
11
71.9861501
21
-5.46461426
0
LINE
8
0
10
71.9861501
20
-5.46461426
11
71.9442655
21
-5.13752824
0
LINE
8
0
10
71.9442655
20
-5.13752824
11
71.9424086
21
-5.12291315
0
LINE
8
0
10
71.9424086
20
-5.12291315
11
71.9327839
21
-5.07892187
0
LINE
8
0
10
71.9327839
20
-5.07892187
11
71.8656181
21
-4.76033453
0
LINE
8
0
10
71.8656181
20
-4.76033453
11
71.8235431
21
-4.62316332
0
LINE
8
0
10
71.8235431
20
-4.62316332
11
71.753111
21
-4.39185889
0
LINE
8
0
10
71.753111
20
-4.39185889
11
71.6272398
21
-4.0843705
0
LINE
8
0
10
71.6272398
20
-4.0843705
11
71.6029625
21
-4.02465031
0
LINE
8
0
10
71.6029625
20
-4.02465031
11
71.5393229
21
-3.90300205
0
LINE
8
0
10
71.5393229
20
-3.90300205
11
71.4136987
21
-3.65204901
0
LINE
8
0
10
71.4136987
20
-3.65204901
11
71.3209411
21
-3.50424379
0
LINE
8
0
10
71.3209411
20
-3.50424379
11
71.185253
21
-3.28669089
0
LINE
8
0
10
71.185253
20
-3.28669089
11
70.9201997
21
-2.94295829
0
LINE
8
0
10
70.9201997
20
-2.94295829
11
70.9192327
21
-2.94163638
0
LINE
8
0
10
70.9192327
20
-2.94163638
11
70.91842
21
-2.94073144
0
LINE
8
0
10
70.91842
20
-2.94073144
11
70.6166258
21
-2.60287413
0
LINE
8
0
10
70.6166258
20
-2.60287413
11
70.3949643
21
-2.40121167
0
LINE
8
0
10
70.3949643
20
-2.40121167
11
70.2831827
21
-2.29898589
0
LINE
8
0
10
70.2831827
20
-2.29898589
11
70.0606159
21
-2.1353408
0
LINE
8
0
10
70.0606159
20
-2.1353408
11
69.9239549
21
-2.0280116
0
LINE
8
0
10
69.9239549
20
-2.0280116
11
69.8380845
21
-1.97483293
0
LINE
8
0
10
69.8380845
20
-1.97483293
11
69.5454917
21
-1.79283597
0
LINE
8
0
10
69.5454917
20
-1.79283597
11
69.290015
21
-1.67245554
0
LINE
8
0
10
69.290015
20
-1.67245554
11
69.1581931
21
-1.61009209
0
LINE
8
0
10
69.1581931
20
-1.61009209
11
68.8011268
21
-1.491413
0
LINE
8
0
10
68.8011268
20
-1.491413
11
68.7712576
21
-1.48145255
0
LINE
8
0
10
68.7712576
20
-1.48145255
11
68.5569518
21
-1.43886737
0
LINE
8
0
10
68.5569518
20
-1.43886737
11
68.3925766
21
-1.40319243
0
LINE
8
0
10
68.3925766
20
-1.40319243
11
68.3710418
21
-1.40161629
0
LINE
8
0
10
68.3710418
20
-1.40161629
11
68.0226154
21
-1.34927941
0
LINE
8
0
10
68.0226154
20
-1.34927941
11
62.5166083
21
-1.35147841
0
LINE
8
0
10
62.5166083
20
-1.35147841
11
58.5
21
-1.3438663
0
LINE
8
0
10
58.5
20
-1.3438663
11
58.1523116
21
-1.88494703
0
LINE
8
0
10
58.1523116
20
-1.88494703
11
57.8296344
21
-2.37806384
0
LINE
8
0
10
57.8296344
20
-2.37806384
11
57.3
21
-3.07059667
0
LINE
8
0
10
57.3
20
-3.07059667
11
57.3
21
-4.22367824
0
LINE
8
0
10
57.3
20
-4.22367824
11
57.3
21
-5.81318792
0
LINE
8
0
10
57.3
20
-5.81318792
11
57.3
21
-7.0048759
0
LINE
8
0
10
57.3
20
-7.0048759
11
57.3
21
-7.86933617
0
LINE
8
0
10
57.3
20
-7.86933617
11
57.3
21
-7.9809735
0
LINE
8
0
10
57.3
20
-7.9809735
11
57.3
21
-8.60460298
0
LINE
8
0
10
57.3
20
-8.60460298
11
57.3
21
-8.7204635
0
LINE
8
0
10
57.3
20
-8.7204635
11
57.3
21
-14.17729
0
LINE
8
0
10
57.3
20
-14.17729
11
57.3
21
-14.4031152
0
LINE
8
0
10
57.3
20
-14.4031152
11
57.3
21
-14.5
0
LINE
8
0
10
57.3
20
-14.5
11
57.3105494
21
-14.5958942
0
LINE
8
0
10
57.3105494
20
-14.5958942
11
57.3193131
21
-14.6467016
0
LINE
8
0
10
57.3193131
20
-14.6467016
11
57.330548
21
-14.7320415
0
LINE
8
0
10
57.330548
20
-14.7320415
11
57.35111
21
-14.88823
0
LINE
8
0
10
57.35111
20
-14.88823
11
57.3973266
21
-14.9998069
0
LINE
8
0
10
57.3973266
20
-14.9998069
11
57.50096
21
-15.25
0
LINE
8
0
10
57.50096
20
-15.25
11
57.574481
21
-15.3458135
0
LINE
8
0
10
57.574481
20
-15.3458135
11
57.73934
21
-15.56066
0
LINE
8
0
10
57.73934
20
-15.56066
11
57.8351535
21
-15.634181
0
LINE
8
0
10
57.8351535
20
-15.634181
11
58.05
21
-15.79904
0
LINE
8
0
10
58.05
20
-15.79904
11
58.1615769
21
-15.8452566
0
LINE
8
0
10
58.1615769
20
-15.8452566
11
58.41177
21
-15.94889
0
LINE
8
0
10
58.41177
20
-15.94889
11
58.4821591
21
-15.9626179
0
LINE
8
0
10
58.4821591
20
-15.9626179
11
58.6354939
21
-15.99067
0
LINE
8
0
10
58.6354939
20
-15.99067
11
58.67679
21
-15.99493
0
LINE
8
0
10
58.67679
20
-15.99493
11
58.7184088
21
-15.9974986
0
LINE
8
0
10
58.7184088
20
-15.9974986
11
58.73836
21
-15.99873
0
LINE
8
0
10
58.73836
20
-15.99873
11
58.7800919
21
-15.9995898
0
LINE
8
0
10
58.7800919
20
-15.9995898
11
58.8
21
-16
0
LINE
8
0
10
58.8
20
-16
11
62.5259706
21
-16
0
LINE
8
0
10
62.5259706
20
-16
11
69.5
21
-16
0
LINE
8
0
10
69.5
20
-16
11
69.8823366
21
-15.9496619
0
LINE
8
0
10
69.8823366
20
-15.9496619
11
70.14705
21
-15.91481
0
LINE
8
0
10
70.14705
20
-15.91481
11
70.5033283
21
-15.7672347
0
LINE
8
0
10
70.5033283
20
-15.7672347
11
70.75
21
-15.66506
0
LINE
8
0
10
70.75
20
-15.66506
11
71.0559461
21
-15.4303045
0
LINE
8
0
10
71.0559461
20
-15.4303045
11
71.26777
21
-15.26777
0
LINE
8
0
10
71.26777
20
-15.26777
11
71.5025255
21
-14.9618239
0
LINE
8
0
10
71.5025255
20
-14.9618239
11
71.66506
21
-14.75
0
LINE
8
0
10
71.66506
20
-14.75
11
71.8126353
21
-14.3937217
0
LINE
8
0
10
71.8126353
20
-14.3937217
11
71.91481
21
-14.14705
0
LINE
8
0
10
71.91481
20
-14.14705
11
71.9496619
21
-13.8823366
0
LINE
8
0
10
71.9496619
20
-13.8823366
11
72
21
-13.5
0
LINE
8
0
10
72
20
-13.5
11
72
21
-9.53484087
0
LINE
8
0
10
72
20
-9.53484087
11
72
21
-9.41763895
0
LINE
8
0
10
72
20
-9.41763895
11
72
21
-8.77332917
0
LINE
8
0
10
72
20
-8.77332917
11
72
21
-7.79232441
0
LINE
8
0
10
72
20
-7.79232441
11
72
21
-7.79232441
0
LINE
8
0
10
72
20
15.4145306
11
72
21
15.4161266
0
LINE
8
0
10
72
20
15.4161266
11
72
21
17.540812
0
LINE
8
0
10
72
20
17.540812
11
72
21
17.8185968
0
LINE
8
0
10
72
20
17.8185968
11
72
21
20.57188
0
LINE
8
0
10
72
20
20.57188
11
72.3150224
21
20.8913325
0
LINE
8
0
10
72.3150224
20
20.8913325
11
72.628102
21
21.208809
0
LINE
8
0
10
72.628102
20
21.208809
11
72.9400932
21
21.5251905
0
LINE
8
0
10
72.9400932
20
21.5251905
11
73.15509
21
21.74321
0
LINE
8
0
10
73.15509
20
21.74321
11
73.4299669
21
22.0219524
0
LINE
8
0
10
73.4299669
20
22.0219524
11
73.44949
21
22.04175
0
LINE
8
0
10
73.44949
20
22.04175
11
73.6775638
21
22.2730349
0
LINE
8
0
10
73.6775638
20
22.2730349
11
73.68601
21
22.2816
0
LINE
8
0
10
73.68601
20
22.2816
11
73.7809074
21
22.3778302
0
LINE
8
0
10
73.7809074
20
22.3778302
11
73.8494971
21
22.4473828
0
LINE
8
0
10
73.8494971
20
22.4473828
11
73.8502534
21
23.0168289
0
LINE
8
0
10
73.8502534
20
23.0168289
11
73.8354724
21
29.1294896
0
LINE
8
0
10
73.8354724
20
29.1294896
11
68.2700393
21
29.1294896
0
LINE
8
0
10
68.2700393
20
29.1294896
11
66.0523396
21
29.129492
0
LINE
8
0
10
66.0523396
20
29.129492
11
64.3392139
21
29.129491
0
LINE
8
0
10
64.3392139
20
29.129491
11
64.2975571
21
29.1294911
0
LINE
8
0
10
64.2975571
20
29.1294911
11
64.2049753
21
29.1294917
0
LINE
8
0
10
64.2049753
20
29.1294917
11
63.9
21
29.1294917
0
LINE
8
0
10
63.9
20
29.1294917
11
63.1084539
21
28.1415204
0
LINE
8
0
10
63.1084539
20
28.1415204
11
63.1013689
21
28.1326772
0
LINE
8
0
10
63.1013689
20
28.1326772
11
63.1
21
28.1309686
0
LINE
8
0
10
63.1
20
28.1309686
11
63.1
21
28.0797565
0
LINE
8
0
10
63.1
20
28.0797565
11
63.1
21
27.9914227
0
LINE
8
0
10
63.1
20
27.9914227
11
63.1
21
27.6724313
0
LINE
8
0
10
63.1
20
27.6724313
11
63.1
21
10
0
LINE
8
0
10
63.1
20
10
11
62.6165472
21
10
0
LINE
8
0
10
62.6165472
20
10
11
59.4108046
21
10
0
LINE
8
0
10
59.4108046
20
10
11
59.2773323
21
10
0
LINE
8
0
10
59.2773323
20
10
11
57.3
21
10
0
LINE
8
0
10
57.3
20
10
11
57.3
21
8.55568328
0
LINE
8
0
10
57.3
20
8.55568328
11
57.3182985
21
8.52953037
0
LINE
8
0
10
57.3182985
20
8.52953037
11
57.5726368
21
8.16601467
0
LINE
8
0
10
57.5726368
20
8.16601467
11
57.9283727
21
7.65757567
0
LINE
8
0
10
57.9283727
20
7.65757567
11
58.1991985
21
7.23683209
0
LINE
8
0
10
58.1991985
20
7.23683209
11
58.5
21
6.76081314
0
LINE
8
0
10
58.5
20
6.76081314
11
63.2925699
21
6.77058136
0
LINE
8
0
10
63.2925699
20
6.77058136
11
66.0235652
21
6.77058136
0
LINE
8
0
10
66.0235652
20
6.77058136
11
66.4520183
21
6.82554874
0
LINE
8
0
10
66.4520183
20
6.82554874
11
66.5521567
21
6.83292606
0
LINE
8
0
10
66.5521567
20
6.83292606
11
66.6317806
21
6.85093103
0
LINE
8
0
10
66.6317806
20
6.85093103
11
67.060567
21
6.94783148
0
LINE
8
0
10
67.060567
20
6.94783148
11
67.0988498
21
6.95563801
0
LINE
8
0
10
67.0988498
20
6.95563801
11
67.5139329
21
7.10236699
0
LINE
8
0
10
67.5139329
20
7.10236699
11
67.819924
21
7.23096311
0
LINE
8
0
10
67.819924
20
7.23096311
11
68.1130486
21
7.3782025
0
LINE
8
0
10
68.1130486
20
7.3782025
11
68.2321495
21
7.46158902
0
LINE
8
0
10
68.2321495
20
7.46158902
11
68.5020012
21
7.65757615
0
LINE
8
0
10
68.5020012
20
7.65757615
11
68.9776012
21
7.9736939
0
LINE
8
0
10
68.9776012
20
7.9736939
11
68.9945209
21
7.98512809
0
LINE
8
0
10
68.9945209
20
7.98512809
11
69.0105754
21
7.99887692
0
LINE
8
0
10
69.0105754
20
7.99887692
11
69.8015516
21
8.78772294
0
LINE
8
0
10
69.8015516
20
8.78772294
11
69.8513354
21
8.84047464
0
LINE
8
0
10
69.8513354
20
8.84047464
11
69.8972629
21
8.89994532
0
LINE
8
0
10
69.8972629
20
8.89994532
11
70.5318023
21
9.80333467
0
LINE
8
0
10
70.5318023
20
9.80333467
11
70.6037034
21
9.91666493
0
LINE
8
0
10
70.6037034
20
9.91666493
11
70.6674855
21
10.0395197
0
LINE
8
0
10
70.6674855
20
10.0395197
11
71.1429226
21
11.0060464
0
LINE
8
0
10
71.1429226
20
11.0060464
11
71.2203161
21
11.19048
0
LINE
8
0
10
71.2203161
20
11.19048
11
71.2846936
21
11.3848622
0
LINE
8
0
10
71.2846936
20
11.3848622
11
71.6072602
21
12.3696059
0
LINE
8
0
10
71.6072602
20
12.3696059
11
71.6714059
21
12.6255616
0
LINE
8
0
10
71.6714059
20
12.6255616
11
71.8446077
21
13.5429893
0
LINE
8
0
10
71.8446077
20
13.5429893
11
71.8994401
21
13.855396
0
LINE
8
0
10
71.8994401
20
13.855396
11
71.932593
21
14.1739776
0
LINE
8
0
10
71.932593
20
14.1739776
11
71.9873497
21
15.0496094
0
LINE
8
0
10
71.9873497
20
15.0496094
11
72
21
15.4145306
0
LINE
8
0
10
72
20
15.4145306
11
72
21
15.4145306
0
ENDSEC
0
EOF
