0
SECTION
2
ENTITIES
0
LINE
8
0
10
16
20
42.2609191
11
16
21
43.1941017
0
LINE
8
0
10
16
20
43.1941017
11
16
21
43.2544831
0
LINE
8
0
10
16
20
43.2544831
11
16
21
43.9571975
0
LINE
8
0
10
16
20
43.9571975
11
6.27645088
21
43.9571975
0
LINE
8
0
10
6.27645088
20
43.9571975
11
2.4
21
43.9571975
0
LINE
8
0
10
2.4
20
43.9571975
11
2.4
21
43.2671143
0
LINE
8
0
10
2.4
20
43.2671143
11
2.4
21
43.2629091
0
LINE
8
0
10
2.4
20
43.2629091
11
2.4
21
43.1939098
0
LINE
8
0
10
2.4
20
43.1939098
11
2.4
21
42.2066105
0
LINE
8
0
10
2.4
20
42.2066105
11
2.4
21
41.3880478
0
LINE
8
0
10
2.4
20
41.3880478
11
2.4
21
40.7716258
0
LINE
8
0
10
2.4
20
40.7716258
11
2.4
21
39.5234306
0
LINE
8
0
10
2.4
20
39.5234306
11
2.4
21
38.7648777
0
LINE
8
0
10
2.4
20
38.7648777
11
2.4
21
38.2220852
0
LINE
8
0
10
2.4
20
38.2220852
11
2.4
21
30.8510166
0
LINE
8
0
10
2.4
20
30.8510166
11
2.4
21
28.3031894
0
LINE
8
0
10
2.4
20
28.3031894
11
2.4
21
26.191181
0
LINE
8
0
10
2.4
20
26.191181
11
2.4
21
22.1348682
0
LINE
8
0
10
2.4
20
22.1348682
11
8.37611059
21
22.1348713
0
LINE
8
0
10
8.37611059
20
22.1348713
11
13.8
21
22.1348713
0
LINE
8
0
10
13.8
20
22.1348713
11
14.005531
21
22.1505822
0
LINE
8
0
10
14.005531
20
22.1505822
11
14.19207
21
22.1648413
0
LINE
8
0
10
14.19207
20
22.1648413
11
14.3956195
21
22.2118114
0
LINE
8
0
10
14.3956195
20
22.2118114
11
14.58036
21
22.254446
0
LINE
8
0
10
14.58036
20
22.254446
11
14.7799726
21
22.3322351
0
LINE
8
0
10
14.7799726
20
22.3322351
11
14.96114
21
22.4028313
0
LINE
8
0
10
14.96114
20
22.4028313
11
15.1548866
21
22.5106791
0
LINE
8
0
10
15.1548866
20
22.5106791
11
15.33073
21
22.6085613
0
LINE
8
0
10
15.33073
20
22.6085613
11
15.5167548
21
22.7454352
0
LINE
8
0
10
15.5167548
20
22.7454352
11
15.68559
21
22.869666
0
LINE
8
0
10
15.68559
20
22.869666
11
15.8620897
21
23.0342502
0
LINE
8
0
10
15.8620897
20
23.0342502
11
16.02228
21
23.1836213
0
LINE
8
0
10
16.02228
20
23.1836213
11
16.1875614
21
23.3743221
0
LINE
8
0
10
16.1875614
20
23.3743221
11
16.33757
21
23.547406
0
LINE
8
0
10
16.33757
20
23.547406
11
16.4900447
21
23.7623992
0
LINE
8
0
10
16.4900447
20
23.7623992
11
16.62843
21
23.9575213
0
LINE
8
0
10
16.62843
20
23.9575213
11
16.8892034
21
24.4518557
0
LINE
8
0
10
16.8892034
20
24.4518557
11
17.12588
21
24.9005113
0
LINE
8
0
10
17.12588
20
24.9005113
11
17.3196528
21
25.4644989
0
LINE
8
0
10
17.3196528
20
25.4644989
11
17.49552
21
25.9763713
0
LINE
8
0
10
17.49552
20
25.9763713
11
17.614843
21
26.5883303
0
LINE
8
0
10
17.614843
20
26.5883303
11
17.72314
21
27.1437413
0
LINE
8
0
10
17.72314
20
27.1437413
11
17.7634316
21
27.7801604
0
LINE
8
0
10
17.7634316
20
27.7801604
11
17.8
21
28.3577713
0
LINE
8
0
10
17.8
20
28.3577713
11
17.8
21
29.7434793
0
LINE
8
0
10
17.8
20
29.7434793
11
17.8
21
31.6424037
0
LINE
8
0
10
17.8
20
31.6424037
11
17.8
21
33.2461328
0
LINE
8
0
10
17.8
20
33.2461328
11
17.8
21
35.8201111
0
LINE
8
0
10
17.8
20
35.8201111
11
17.8
21
36.3978695
0
LINE
8
0
10
17.8
20
36.3978695
11
17.4940999
21
36.3978695
0
LINE
8
0
10
17.4940999
20
36.3978695
11
16
21
36.3978695
0
LINE
8
0
10
16
20
36.3978695
11
16
21
37.8893243
0
LINE
8
0
10
16
20
37.8893243
11
16
21
38.2960361
0
LINE
8
0
10
16
20
38.2960361
11
16
21
39.4456958
0
LINE
8
0
10
16
20
39.4456958
11
16
21
40.1521772
0
LINE
8
0
10
16
20
40.1521772
11
16
21
40.8163499
0
LINE
8
0
10
16
20
40.8163499
11
16
21
41.2347365
0
LINE
8
0
10
16
20
41.2347365
11
16
21
42.054979
0
LINE
8
0
10
16
20
42.054979
11
16
21
42.2609191
0
LINE
8
0
10
16
20
42.2609191
11
16
21
42.2609191
0
LINE
8
0
10
70.5152043
20
-2.68604006
11
70.3162792
21
-2.50412044
0
LINE
8
0
10
70.3162792
20
-2.50412044
11
70.1956654
21
-2.41543755
0
LINE
8
0
10
70.1956654
20
-2.41543755
11
69.9662053
21
-2.24588309
0
LINE
8
0
10
69.9662053
20
-2.24588309
11
69.6796727
21
-2.07938783
0
LINE
8
0
10
69.6796727
20
-2.07938783
11
69.5996856
21
-2.0326935
0
LINE
8
0
10
69.5996856
20
-2.0326935
11
69.3329639
21
-1.91510577
0
LINE
8
0
10
69.3329639
20
-1.91510577
11
69.2241146
21
-1.86361042
0
LINE
8
0
10
69.2241146
20
-1.86361042
11
69.1891078
21
-1.85197512
0
LINE
8
0
10
69.1891078
20
-1.85197512
11
68.847101
21
-1.73792633
0
LINE
8
0
10
68.847101
20
-1.73792633
11
68.7391888
21
-1.71648286
0
LINE
8
0
10
68.7391888
20
-1.71648286
11
68.478776
21
-1.66461519
0
LINE
8
0
10
68.478776
20
-1.66461519
11
68.2639484
21
-1.6502457
0
LINE
8
0
10
68.2639484
20
-1.6502457
11
68.1228798
21
-1.62905589
0
LINE
8
0
10
68.1228798
20
-1.62905589
11
66.119223
21
-1.62985612
0
LINE
8
0
10
66.119223
20
-1.62985612
11
58.5
21
-1.61541647
0
LINE
8
0
10
58.5
20
-1.61541647
11
58.3213546
21
-1.89342862
0
LINE
8
0
10
58.3213546
20
-1.89342862
11
58.1555601
21
-2.14679647
0
LINE
8
0
10
58.1555601
20
-2.14679647
11
57.3
21
-3.26549918
0
LINE
8
0
10
57.3
20
-3.26549918
11
57.3
21
-3.93174531
0
LINE
8
0
10
57.3
20
-3.93174531
11
57.3
21
-5.57127807
0
LINE
8
0
10
57.3
20
-5.57127807
11
57.3
21
-6.80046939
0
LINE
8
0
10
57.3
20
-6.80046939
11
57.3
21
-7.69213488
0
LINE
8
0
10
57.3
20
-7.69213488
11
57.3
21
-7.79711849
0
LINE
8
0
10
57.3
20
-7.79711849
11
57.3
21
-8.44031111
0
LINE
8
0
10
57.3
20
-8.44031111
11
57.3
21
-8.55090525
0
LINE
8
0
10
57.3
20
-8.55090525
11
57.3
21
-14.17729
0
LINE
8
0
10
57.3
20
-14.17729
11
57.3
21
-14.4001509
0
LINE
8
0
10
57.3
20
-14.4001509
11
57.3
21
-14.5
0
LINE
8
0
10
57.3
20
-14.5
11
57.3108721
21
-14.5988281
0
LINE
8
0
10
57.3108721
20
-14.5988281
11
57.319904
21
-14.6511901
0
LINE
8
0
10
57.319904
20
-14.6511901
11
57.3314826
21
-14.739141
0
LINE
8
0
10
57.3314826
20
-14.739141
11
57.35111
21
-14.88823
0
LINE
8
0
10
57.35111
20
-14.88823
11
57.4020372
21
-15.0111793
0
LINE
8
0
10
57.4020372
20
-15.0111793
11
57.50096
21
-15.25
0
LINE
8
0
10
57.50096
20
-15.25
11
57.5819746
21
-15.3555793
0
LINE
8
0
10
57.5819746
20
-15.3555793
11
57.73934
21
-15.56066
0
LINE
8
0
10
57.73934
20
-15.56066
11
57.8449193
21
-15.6416746
0
LINE
8
0
10
57.8449193
20
-15.6416746
11
58.05
21
-15.79904
0
LINE
8
0
10
58.05
20
-15.79904
11
58.1729493
21
-15.8499672
0
LINE
8
0
10
58.1729493
20
-15.8499672
11
58.41177
21
-15.94889
0
LINE
8
0
10
58.41177
20
-15.94889
11
58.4789596
21
-15.9619939
0
LINE
8
0
10
58.4789596
20
-15.9619939
11
58.6359784
21
-15.99072
0
LINE
8
0
10
58.6359784
20
-15.99072
11
58.67679
21
-15.99493
0
LINE
8
0
10
58.67679
20
-15.99493
11
58.7179206
21
-15.9974685
0
LINE
8
0
10
58.7179206
20
-15.9974685
11
58.73836
21
-15.99873
0
LINE
8
0
10
58.73836
20
-15.99873
11
58.7796001
21
-15.9995797
0
LINE
8
0
10
58.7796001
20
-15.9995797
11
58.8
21
-16
0
LINE
8
0
10
58.8
20
-16
11
62.618006
21
-16
0
LINE
8
0
10
62.618006
20
-16
11
69.5
21
-16
0
LINE
8
0
10
69.5
20
-16
11
69.8943691
21
-15.9480777
0
LINE
8
0
10
69.8943691
20
-15.9480777
11
70.14705
21
-15.91481
0
LINE
8
0
10
70.14705
20
-15.91481
11
70.5145406
21
-15.7625904
0
LINE
8
0
10
70.5145406
20
-15.7625904
11
70.75
21
-15.66506
0
LINE
8
0
10
70.75
20
-15.66506
11
71.0655745
21
-15.4229166
0
LINE
8
0
10
71.0655745
20
-15.4229166
11
71.26777
21
-15.26777
0
LINE
8
0
10
71.26777
20
-15.26777
11
71.5099134
21
-14.9521955
0
LINE
8
0
10
71.5099134
20
-14.9521955
11
71.66506
21
-14.75
0
LINE
8
0
10
71.66506
20
-14.75
11
71.8172796
21
-14.3825094
0
LINE
8
0
10
71.8172796
20
-14.3825094
11
71.91481
21
-14.14705
0
LINE
8
0
10
71.91481
20
-14.14705
11
71.9480777
21
-13.8943691
0
LINE
8
0
10
71.9480777
20
-13.8943691
11
72
21
-13.5
0
LINE
8
0
10
72
20
-13.5
11
72
21
-9.41005429
0
LINE
8
0
10
72
20
-9.41005429
11
72
21
-9.28916393
0
LINE
8
0
10
72
20
-9.28916393
11
72
21
-8.62457723
0
LINE
8
0
10
72
20
-8.62457723
11
72
21
-7.6126995
0
LINE
8
0
10
72
20
-7.6126995
11
72
21
-6.05365856
0
LINE
8
0
10
72
20
-6.05365856
11
72
21
-5.89208547
0
LINE
8
0
10
72
20
-5.89208547
11
71.9970385
21
-5.82171961
0
LINE
8
0
10
71.9970385
20
-5.82171961
11
71.9862913
21
-5.56426524
0
LINE
8
0
10
71.9862913
20
-5.56426524
11
71.9641251
21
-5.39116504
0
LINE
8
0
10
71.9641251
20
-5.39116504
11
71.9430164
21
-5.22501952
0
LINE
8
0
10
71.9430164
20
-5.22501952
11
71.8790098
21
-4.93246579
0
LINE
8
0
10
71.8790098
20
-4.93246579
11
71.867198
21
-4.87807202
0
LINE
8
0
10
71.867198
20
-4.87807202
11
71.8188023
21
-4.72492433
0
LINE
8
0
10
71.8188023
20
-4.72492433
11
71.7562293
21
-4.5194298
0
LINE
8
0
10
71.7562293
20
-4.5194298
11
71.7185823
21
-4.42746243
0
LINE
8
0
10
71.7185823
20
-4.42746243
11
71.6081522
21
-4.15581425
0
LINE
8
0
10
71.6081522
20
-4.15581425
11
71.4730365
21
-3.89753795
0
LINE
8
0
10
71.4730365
20
-3.89753795
11
71.4221382
21
-3.79959335
0
LINE
8
0
10
71.4221382
20
-3.79959335
11
71.2935988
21
-3.60247427
0
LINE
8
0
10
71.2935988
20
-3.60247427
11
71.1980082
21
-3.44921089
0
LINE
8
0
10
71.1980082
20
-3.44921089
11
71.1317138
21
-3.36323752
0
LINE
8
0
10
71.1317138
20
-3.36323752
11
70.9367445
21
-3.10887873
0
LINE
8
0
10
70.9367445
20
-3.10887873
11
70.6981508
21
-2.85574654
0
LINE
8
0
10
70.6981508
20
-2.85574654
11
70.6417919
21
-2.79561039
0
LINE
8
0
10
70.6417919
20
-2.79561039
11
70.5152043
21
-2.68604006
0
LINE
8
0
10
70.5152043
20
-2.68604006
11
70.5152043
21
-2.68604006
0
LINE
8
0
10
35.2
20
-8.97531652
11
35.2
21
-9.41270769
0
LINE
8
0
10
35.2
20
-9.41270769
11
35.2
21
-10.4174264
0
LINE
8
0
10
35.2
20
-10.4174264
11
35.2
21
-11.1066175
0
LINE
8
0
10
35.2
20
-11.1066175
11
35.2
21
-11.5464711
0
LINE
8
0
10
35.2
20
-11.5464711
11
35.2
21
-11.7934343
0
LINE
8
0
10
35.2
20
-11.7934343
11
35.2
21
-13.5
0
LINE
8
0
10
35.2
20
-13.5
11
35.1916332
21
-13.6702826
0
LINE
8
0
10
35.1916332
20
-13.6702826
11
35.1154362
21
-14.1422935
0
LINE
8
0
10
35.1154362
20
-14.1422935
11
35.11481
21
-14.14705
0
LINE
8
0
10
35.11481
20
-14.14705
11
34.8682683
21
-14.7422546
0
LINE
8
0
10
34.8682683
20
-14.7422546
11
34.86506
21
-14.75
0
LINE
8
0
10
34.86506
20
-14.75
11
34.4728735
21
-15.2611188
0
LINE
8
0
10
34.4728735
20
-15.2611188
11
34.46777
21
-15.26777
0
LINE
8
0
10
34.46777
20
-15.26777
11
33.9566512
21
-15.6599565
0
LINE
8
0
10
33.9566512
20
-15.6599565
11
33.95
21
-15.66506
0
LINE
8
0
10
33.95
20
-15.66506
11
33.3547954
21
-15.9116017
0
LINE
8
0
10
33.3547954
20
-15.9116017
11
33.34705
21
-15.91481
0
LINE
8
0
10
33.34705
20
-15.91481
11
33.027681
21
-15.9568578
0
LINE
8
0
10
33.027681
20
-15.9568578
11
32.8674144
21
-15.9835102
0
LINE
8
0
10
32.8674144
20
-15.9835102
11
32.7
21
-16
0
LINE
8
0
10
32.7
20
-16
11
31.2346126
21
-16
0
LINE
8
0
10
31.2346126
20
-16
11
30.7
21
-16
0
LINE
8
0
10
30.7
20
-16
11
30.3510334
21
-15.9656278
0
LINE
8
0
10
30.3510334
20
-15.9656278
11
30.1196938
21
-15.9303732
0
LINE
8
0
10
30.1196938
20
-15.9303732
11
29.9177153
21
-15.8689064
0
LINE
8
0
10
29.9177153
20
-15.8689064
11
29.5780856
21
-15.7282272
0
LINE
8
0
10
29.5780856
20
-15.7282272
11
29.3868551
21
-15.625795
0
LINE
8
0
10
29.3868551
20
-15.625795
11
29.1044162
21
-15.4090768
0
LINE
8
0
10
29.1044162
20
-15.4090768
11
28.93223
21
-15.26777
0
LINE
8
0
10
28.93223
20
-15.26777
11
28.7810993
21
-15.0836132
0
LINE
8
0
10
28.7810993
20
-15.0836132
11
28.5769348
21
-14.8175348
0
LINE
8
0
10
28.5769348
20
-14.8175348
11
28.4629532
21
-14.6040307
0
LINE
8
0
10
28.4629532
20
-14.6040307
11
28.3375028
21
-14.3011666
0
LINE
8
0
10
28.3375028
20
-14.3011666
11
28.2664251
21
-14.0665756
0
LINE
8
0
10
28.2664251
20
-14.0665756
11
28.2481012
21
-13.9432215
0
LINE
8
0
10
28.2481012
20
-13.9432215
11
28.21204
21
-13.74504
0
LINE
8
0
10
28.21204
20
-13.74504
11
28.202962
21
-13.5602826
0
LINE
8
0
10
28.202962
20
-13.5602826
11
28.2
21
-13.5
0
LINE
8
0
10
28.2
20
-13.5
11
28.2
21
-12.1214645
0
LINE
8
0
10
28.2
20
-12.1214645
11
28.2
21
-11.8693604
0
LINE
8
0
10
28.2
20
-11.8693604
11
28.2
21
-11.4184308
0
LINE
8
0
10
28.2
20
-11.4184308
11
28.2
21
-10.6775682
0
LINE
8
0
10
28.2
20
-10.6775682
11
28.2
21
-9.51015172
0
LINE
8
0
10
28.2
20
-9.51015172
11
28.2
21
-8.97531652
0
LINE
8
0
10
28.2
20
-8.97531652
11
29.0555601
21
-7.85661447
0
LINE
8
0
10
29.0555601
20
-7.85661447
11
29.2213546
21
-7.60324647
0
LINE
8
0
10
29.2213546
20
-7.60324647
11
29.4
21
-7.32523447
0
LINE
8
0
10
29.4
20
-7.32523447
11
32.4672976
21
-7.32523447
0
LINE
8
0
10
32.4672976
20
-7.32523447
11
34
21
-7.32523447
0
LINE
8
0
10
34
20
-7.32523447
11
34.1786454
21
-7.60324647
0
LINE
8
0
10
34.1786454
20
-7.60324647
11
34.3444399
21
-7.85661447
0
LINE
8
0
10
34.3444399
20
-7.85661447
11
35.2
21
-8.97531652
0
LINE
8
0
10
35.2
20
-8.97531652
11
35.2
21
-8.97531652
0
LINE
8
0
10
35.2
20
10
11
35.2
21
8.78425049
0
LINE
8
0
10
35.2
20
8.78425049
11
35.2
21
3.08038564
0
LINE
8
0
10
35.2
20
3.08038564
11
35.0519775
21
2.86882318
0
LINE
8
0
10
35.0519775
20
2.86882318
11
34.25019
21
1.72286077
0
LINE
8
0
10
34.25019
20
1.72286077
11
34.1316549
21
1.5387096
0
LINE
8
0
10
34.1316549
20
1.5387096
11
34
21
1.33036542
0
LINE
8
0
10
34
20
1.33036542
11
30.5479135
21
1.33036542
0
LINE
8
0
10
30.5479135
20
1.33036542
11
29.4
21
1.33036542
0
LINE
8
0
10
29.4
20
1.33036542
11
29.2683451
21
1.5387096
0
LINE
8
0
10
29.2683451
20
1.5387096
11
29.14981
21
1.72286077
0
LINE
8
0
10
29.14981
20
1.72286077
11
28.3480225
21
2.86882318
0
LINE
8
0
10
28.3480225
20
2.86882318
11
28.2
21
3.08038564
0
LINE
8
0
10
28.2
20
3.08038564
11
28.2
21
9.1702375
0
LINE
8
0
10
28.2
20
9.1702375
11
28.2
21
10.1505088
0
LINE
8
0
10
28.2
20
10.1505088
11
28.2
21
10.2929891
0
LINE
8
0
10
28.2
20
10.2929891
11
28.2
21
11.6720599
0
LINE
8
0
10
28.2
20
11.6720599
11
28.2
21
15
0
LINE
8
0
10
28.2
20
15
11
29.7242202
21
15
0
LINE
8
0
10
29.7242202
20
15
11
30.2
21
15
0
LINE
8
0
10
30.2
20
15
11
30.2
21
13.2177003
0
LINE
8
0
10
30.2
20
13.2177003
11
30.2
21
12.65094
0
LINE
8
0
10
30.2
20
12.65094
11
30.2
21
12.4546357
0
LINE
8
0
10
30.2
20
12.4546357
11
30.2
21
12.39302
0
LINE
8
0
10
30.2
20
12.39302
11
30.2
21
12.1975555
0
LINE
8
0
10
30.2
20
12.1975555
11
30.2
21
12.13557
0
LINE
8
0
10
30.2
20
12.13557
11
30.2
21
11.9545291
0
LINE
8
0
10
30.2
20
11.9545291
11
30.2
21
11.89597
0
LINE
8
0
10
30.2
20
11.89597
11
30.2
21
11.7417023
0
LINE
8
0
10
30.2
20
11.7417023
11
30.2
21
11.69043
0
LINE
8
0
10
30.2
20
11.69043
11
30.2
21
11.5730714
0
LINE
8
0
10
30.2
20
11.5730714
11
30.2
21
11.53281
0
LINE
8
0
10
30.2
20
11.53281
11
30.2
21
10.5220215
0
LINE
8
0
10
30.2
20
10.5220215
11
30.2
21
10
0
LINE
8
0
10
30.2
20
10
11
33.6762806
21
10
0
LINE
8
0
10
33.6762806
20
10
11
35.2
21
10
0
LINE
8
0
10
35.2
20
10
11
35.2
21
10
0
LINE
8
0
10
72
20
17.9438353
11
72
21
17.6786861
0
LINE
8
0
10
72
20
17.6786861
11
72
21
15.650646
0
LINE
8
0
10
72
20
15.650646
11
72
21
15.6489556
0
LINE
8
0
10
72
20
15.6489556
11
71.9866006
21
15.2624258
0
LINE
8
0
10
71.9866006
20
15.2624258
11
71.9343328
21
14.4265954
0
LINE
8
0
10
71.9343328
20
14.4265954
11
71.8987505
21
14.0846684
0
LINE
8
0
10
71.8987505
20
14.0846684
11
71.8399
21
13.7493689
0
LINE
8
0
10
71.8399
20
13.7493689
11
71.6745711
21
12.8736424
0
LINE
8
0
10
71.6745711
20
12.8736424
11
71.6043184
21
12.5933184
0
LINE
8
0
10
71.6043184
20
12.5933184
11
71.2964139
21
11.6533358
0
LINE
8
0
10
71.2964139
20
11.6533358
11
71.223515
21
11.4332236
0
LINE
8
0
10
71.223515
20
11.4332236
11
71.1358771
21
11.224377
0
LINE
8
0
10
71.1358771
20
11.224377
11
70.6820507
21
10.3017833
0
LINE
8
0
10
70.6820507
20
10.3017833
11
70.6052237
21
10.153802
0
LINE
8
0
10
70.6052237
20
10.153802
11
70.5186172
21
10.0172931
0
LINE
8
0
10
70.5186172
20
10.0172931
11
69.9129205
21
9.15496689
0
LINE
8
0
10
69.9129205
20
9.15496689
11
69.8492516
21
9.07252306
0
LINE
8
0
10
69.8492516
20
9.07252306
11
69.7802365
21
8.99939371
0
LINE
8
0
10
69.7802365
20
8.99939371
11
69.0252138
21
8.24640433
0
LINE
8
0
10
69.0252138
20
8.24640433
11
68.9869368
21
8.21362454
0
LINE
8
0
10
68.9869368
20
8.21362454
11
68.9465971
21
8.18636327
0
LINE
8
0
10
68.9465971
20
8.18636327
11
68.0560804
21
7.5944622
0
LINE
8
0
10
68.0560804
20
7.5944622
11
68.0470616
21
7.58985144
0
LINE
8
0
10
68.0470616
20
7.58985144
11
67.635421
21
7.4326783
0
LINE
8
0
10
67.635421
20
7.4326783
11
67.1981356
21
7.24890435
0
LINE
8
0
10
67.1981356
20
7.24890435
11
67.0607436
21
7.20033723
0
LINE
8
0
10
67.0607436
20
7.20033723
11
66.8478283
21
7.15692008
0
LINE
8
0
10
66.8478283
20
7.15692008
11
66.2762333
21
7.07857334
0
LINE
8
0
10
66.2762333
20
7.07857334
11
66.010314
21
7.04445785
0
LINE
8
0
10
66.010314
20
7.04445785
11
60.5976134
21
7.04445785
0
LINE
8
0
10
60.5976134
20
7.04445785
11
58.5
21
7.04018249
0
LINE
8
0
10
58.5
20
7.04018249
11
58.3683451
21
7.2485266
0
LINE
8
0
10
58.3683451
20
7.2485266
11
58.24981
21
7.43267777
0
LINE
8
0
10
58.24981
20
7.43267777
11
57.7121012
21
8.20120328
0
LINE
8
0
10
57.7121012
20
8.20120328
11
57.3276589
21
8.75067155
0
LINE
8
0
10
57.3276589
20
8.75067155
11
57.3
21
8.79020269
0
LINE
8
0
10
57.3
20
8.79020269
11
57.3
21
10
0
LINE
8
0
10
57.3
20
10
11
58.956265
21
10
0
LINE
8
0
10
58.956265
20
10
11
59.1054769
21
10
0
LINE
8
0
10
59.1054769
20
10
11
62.6892527
21
10
0
LINE
8
0
10
62.6892527
20
10
11
63.1
21
10
0
LINE
8
0
10
63.1
20
10
11
63.1
21
25.0147074
0
LINE
8
0
10
63.1
20
25.0147074
11
63.1
21
27.2645399
0
LINE
8
0
10
63.1
20
27.2645399
11
63.1
21
27.8875541
0
LINE
8
0
10
63.1
20
27.8875541
11
63.1
21
28.2487505
0
LINE
8
0
10
63.1
20
28.2487505
11
63.1096549
21
28.2608014
0
LINE
8
0
10
63.1096549
20
28.2608014
11
63.1596252
21
28.3231721
0
LINE
8
0
10
63.1596252
20
28.3231721
11
63.9
21
29.2472737
0
LINE
8
0
10
63.9
20
29.2472737
11
64.4823724
21
29.2472738
0
LINE
8
0
10
64.4823724
20
29.2472738
11
64.659164
21
29.2472726
0
LINE
8
0
10
64.659164
20
29.2472726
11
64.7387107
21
29.2472724
0
LINE
8
0
10
64.7387107
20
29.2472724
11
68.010048
21
29.2472743
0
LINE
8
0
10
68.010048
20
29.2472743
11
72.2449058
21
29.2472697
0
LINE
8
0
10
72.2449058
20
29.2472697
11
73.9076491
21
29.2472697
0
LINE
8
0
10
73.9076491
20
29.2472697
11
73.9128536
21
27.0949463
0
LINE
8
0
10
73.9128536
20
27.0949463
11
73.9074798
21
22.506179
0
LINE
8
0
10
73.9074798
20
22.506179
11
73.8910159
21
22.4894848
0
LINE
8
0
10
73.8910159
20
22.4894848
11
73.8348754
21
22.4325562
0
LINE
8
0
10
73.8348754
20
22.4325562
11
73.68601
21
22.2816
0
LINE
8
0
10
73.68601
20
22.2816
11
73.6727604
21
22.2681639
0
LINE
8
0
10
73.6727604
20
22.2681639
11
73.44949
21
22.04175
0
LINE
8
0
10
73.44949
20
22.04175
11
73.4243604
21
22.016267
0
LINE
8
0
10
73.4243604
20
22.016267
11
73.15509
21
21.74321
0
LINE
8
0
10
73.15509
20
21.74321
11
72.8973312
21
21.4818273
0
LINE
8
0
10
72.8973312
20
21.4818273
11
72.5995316
21
21.179837
0
LINE
8
0
10
72.5995316
20
21.179837
11
72.300693
21
20.8768016
0
LINE
8
0
10
72.300693
20
20.8768016
11
72
21
20.57188
0
LINE
8
0
10
72
20
20.57188
11
72
21
17.9438353
0
LINE
8
0
10
72
20
17.9438353
11
72
21
17.9438353
0
ENDSEC
0
EOF
