0
SECTION
2
ENTITIES
0
LINE
8
0
10
16
20
41.1189664
11
16
21
41.3880691
0
LINE
8
0
10
16
20
41.3880691
11
16
21
42.3084025
0
LINE
8
0
10
16
20
42.3084025
11
16
21
42.3722016
0
LINE
8
0
10
16
20
42.3722016
11
16
21
42.8078486
0
LINE
8
0
10
16
20
42.8078486
11
9.93183874
21
42.8078486
0
LINE
8
0
10
9.93183874
20
42.8078486
11
2.4
21
42.8078486
0
LINE
8
0
10
2.4
20
42.8078486
11
2.4
21
42.3553771
0
LINE
8
0
10
2.4
20
42.3553771
11
2.4
21
41.4866776
0
LINE
8
0
10
2.4
20
41.4866776
11
2.4
21
40.8324998
0
LINE
8
0
10
2.4
20
40.8324998
11
2.4
21
39.8646587
0
LINE
8
0
10
2.4
20
39.8646587
11
2.4
21
39.051531
0
LINE
8
0
10
2.4
20
39.051531
11
2.4
21
38.4696868
0
LINE
8
0
10
2.4
20
38.4696868
11
2.4
21
30.5682998
0
LINE
8
0
10
2.4
20
30.5682998
11
2.4
21
28.2631228
0
LINE
8
0
10
2.4
20
28.2631228
11
2.4
21
26.352258
0
LINE
8
0
10
2.4
20
26.352258
11
2.4
21
22.6822608
0
LINE
8
0
10
2.4
20
22.6822608
11
7.8069572
21
22.6822635
0
LINE
8
0
10
7.8069572
20
22.6822635
11
13.8
21
22.6822635
0
LINE
8
0
10
13.8
20
22.6822635
11
13.9859566
21
22.6964781
0
LINE
8
0
10
13.9859566
20
22.6964781
11
14.19207
21
22.7122335
0
LINE
8
0
10
14.19207
20
22.7122335
11
14.3762338
21
22.7547303
0
LINE
8
0
10
14.3762338
20
22.7547303
11
14.58036
21
22.8018388
0
LINE
8
0
10
14.58036
20
22.8018388
11
14.7609619
21
22.8722194
0
LINE
8
0
10
14.7609619
20
22.8722194
11
14.96114
21
22.9502235
0
LINE
8
0
10
14.96114
20
22.9502235
11
15.1364345
21
23.0478001
0
LINE
8
0
10
15.1364345
20
23.0478001
11
15.33073
21
23.1559535
0
LINE
8
0
10
15.33073
20
23.1559535
11
15.4990381
21
23.2797918
0
LINE
8
0
10
15.4990381
20
23.2797918
11
15.68559
21
23.4170588
0
LINE
8
0
10
15.68559
20
23.4170588
11
15.8452802
21
23.5659683
0
LINE
8
0
10
15.8452802
20
23.5659683
11
16.02228
21
23.7310135
0
LINE
8
0
10
16.02228
20
23.7310135
11
16.1718203
21
23.9035524
0
LINE
8
0
10
16.1718203
20
23.9035524
11
16.33757
21
24.0947988
0
LINE
8
0
10
16.33757
20
24.0947988
11
16.4755233
21
24.2893165
0
LINE
8
0
10
16.4755233
20
24.2893165
11
16.62843
21
24.5049135
0
LINE
8
0
10
16.62843
20
24.5049135
11
16.8643678
21
24.9521685
0
LINE
8
0
10
16.8643678
20
24.9521685
11
17.12588
21
25.4479035
0
LINE
8
0
10
17.12588
20
25.4479035
11
17.3011982
21
25.958178
0
LINE
8
0
10
17.3011982
20
25.958178
11
17.49552
21
26.5237635
0
LINE
8
0
10
17.49552
20
26.5237635
11
17.6034789
21
27.0774407
0
LINE
8
0
10
17.6034789
20
27.0774407
11
17.72314
21
27.6911335
0
LINE
8
0
10
17.72314
20
27.6911335
11
17.7595943
21
28.2669413
0
LINE
8
0
10
17.7595943
20
28.2669413
11
17.8
21
28.9051635
0
LINE
8
0
10
17.8
20
28.9051635
11
17.8
21
30.1588994
0
LINE
8
0
10
17.8
20
30.1588994
11
17.8
21
32.2570866
0
LINE
8
0
10
17.8
20
32.2570866
11
17.8
21
34.0291022
0
LINE
8
0
10
17.8
20
34.0291022
11
17.8
21
36.1637545
0
LINE
8
0
10
17.8
20
36.1637545
11
16.3721924
21
36.1637545
0
LINE
8
0
10
16.3721924
20
36.1637545
11
16
21
36.1637545
0
LINE
8
0
10
16
20
36.1637545
11
16
21
36.5633582
0
LINE
8
0
10
16
20
36.5633582
11
16
21
36.6898591
0
LINE
8
0
10
16
20
36.6898591
11
16
21
38.3142037
0
LINE
8
0
10
16
20
38.3142037
11
16
21
38.9129462
0
LINE
8
0
10
16
20
38.9129462
11
16
21
39.8043837
0
LINE
8
0
10
16
20
39.8043837
11
16
21
40.3521841
0
LINE
8
0
10
16
20
40.3521841
11
16
21
41.1189664
0
LINE
8
0
10
16
20
41.1189664
11
16
21
41.1189664
0
LINE
8
0
10
71.7619211
20
-4.74331291
11
71.6801208
21
-4.54944534
0
LINE
8
0
10
71.6801208
20
-4.54944534
11
71.6180499
21
-4.40130935
0
LINE
8
0
10
71.6180499
20
-4.40130935
11
71.4483709
21
-4.08680983
0
LINE
8
0
10
71.4483709
20
-4.08680983
11
71.4378949
21
-4.06726246
0
LINE
8
0
10
71.4378949
20
-4.06726246
11
71.4040235
21
-4.01693004
0
LINE
8
0
10
71.4040235
20
-4.01693004
11
71.2212253
21
-3.73480179
0
LINE
8
0
10
71.2212253
20
-3.73480179
11
71.1249116
21
-3.61469538
0
LINE
8
0
10
71.1249116
20
-3.61469538
11
70.9699291
21
-3.42023848
0
LINE
8
0
10
70.9699291
20
-3.42023848
11
70.7412826
21
-3.18723554
0
LINE
8
0
10
70.7412826
20
-3.18723554
11
70.6872103
21
-3.13181013
0
LINE
8
0
10
70.6872103
20
-3.13181013
11
70.5301642
21
-3.00141836
0
LINE
8
0
10
70.5301642
20
-3.00141836
11
70.3765954
21
-2.86776556
0
LINE
8
0
10
70.3765954
20
-2.86776556
11
70.3051978
21
-2.81790925
0
LINE
8
0
10
70.3051978
20
-2.81790925
11
70.0434202
21
-2.63416693
0
LINE
8
0
10
70.0434202
20
-2.63416693
11
69.8476819
21
-2.52638091
0
LINE
8
0
10
69.8476819
20
-2.52638091
11
69.6952769
21
-2.44206206
0
LINE
8
0
10
69.6952769
20
-2.44206206
11
69.4061347
21
-2.32157493
0
LINE
8
0
10
69.4061347
20
-2.32157493
11
69.3396116
21
-2.29373956
0
LINE
8
0
10
69.3396116
20
-2.29373956
11
68.993122
21
-2.19253939
0
LINE
8
0
10
68.993122
20
-2.19253939
11
68.9839708
21
-2.18985776
0
LINE
8
0
10
68.9839708
20
-2.18985776
11
68.8821345
21
-2.17220414
0
LINE
8
0
10
68.8821345
20
-2.17220414
11
68.6345713
21
-2.12640387
0
LINE
8
0
10
68.6345713
20
-2.12640387
11
68.6127641
21
-2.12505623
0
LINE
8
0
10
68.6127641
20
-2.12505623
11
68.2913964
21
-2.08212539
0
LINE
8
0
10
68.2913964
20
-2.08212539
11
61.8932824
21
-2.09122
0
LINE
8
0
10
61.8932824
20
-2.09122
11
58.5
21
-2.08300929
0
LINE
8
0
10
58.5
20
-2.08300929
11
57.5189709
21
-3.36663948
0
LINE
8
0
10
57.5189709
20
-3.36663948
11
57.3
21
-3.62061188
0
LINE
8
0
10
57.3
20
-3.62061188
11
57.3
21
-5.08745839
0
LINE
8
0
10
57.3
20
-5.08745839
11
57.3
21
-6.39165636
0
LINE
8
0
10
57.3
20
-6.39165636
11
57.3
21
-7.3377323
0
LINE
8
0
10
57.3
20
-7.3377323
11
57.3
21
-7.42940846
0
LINE
8
0
10
57.3
20
-7.42940846
11
57.3
21
-8.11172739
0
LINE
8
0
10
57.3
20
-8.11172739
11
57.3
21
-8.21178875
0
LINE
8
0
10
57.3
20
-8.21178875
11
57.3
21
-14.17729
0
LINE
8
0
10
57.3
20
-14.17729
11
57.3
21
-14.3942224
0
LINE
8
0
10
57.3
20
-14.3942224
11
57.3
21
-14.5
0
LINE
8
0
10
57.3
20
-14.5
11
57.3115177
21
-14.604696
0
LINE
8
0
10
57.3115177
20
-14.604696
11
57.3210858
21
-14.6601669
0
LINE
8
0
10
57.3210858
20
-14.6601669
11
57.3333519
21
-14.7533399
0
LINE
8
0
10
57.3333519
20
-14.7533399
11
57.35111
21
-14.88823
0
LINE
8
0
10
57.35111
20
-14.88823
11
57.4114585
21
-15.0339241
0
LINE
8
0
10
57.4114585
20
-15.0339241
11
57.50096
21
-15.25
0
LINE
8
0
10
57.50096
20
-15.25
11
57.5969618
21
-15.3751108
0
LINE
8
0
10
57.5969618
20
-15.3751108
11
57.73934
21
-15.56066
0
LINE
8
0
10
57.73934
20
-15.56066
11
57.8644508
21
-15.6566618
0
LINE
8
0
10
57.8644508
20
-15.6566618
11
58.05
21
-15.79904
0
LINE
8
0
10
58.05
20
-15.79904
11
58.1956941
21
-15.8593885
0
LINE
8
0
10
58.1956941
20
-15.8593885
11
58.41177
21
-15.94889
0
LINE
8
0
10
58.41177
20
-15.94889
11
58.4725606
21
-15.9607459
0
LINE
8
0
10
58.4725606
20
-15.9607459
11
58.6369473
21
-15.99082
0
LINE
8
0
10
58.6369473
20
-15.99082
11
58.67679
21
-15.99493
0
LINE
8
0
10
58.67679
20
-15.99493
11
58.7169441
21
-15.9974082
0
LINE
8
0
10
58.7169441
20
-15.9974082
11
58.73836
21
-15.99873
0
LINE
8
0
10
58.73836
20
-15.99873
11
58.7786166
21
-15.9995594
0
LINE
8
0
10
58.7786166
20
-15.9995594
11
58.8
21
-16
0
LINE
8
0
10
58.8
20
-16
11
62.8020768
21
-16
0
LINE
8
0
10
62.8020768
20
-16
11
69.5
21
-16
0
LINE
8
0
10
69.5
20
-16
11
69.9184339
21
-15.9449094
0
LINE
8
0
10
69.9184339
20
-15.9449094
11
70.14705
21
-15.91481
0
LINE
8
0
10
70.14705
20
-15.91481
11
70.5369653
21
-15.7533018
0
LINE
8
0
10
70.5369653
20
-15.7533018
11
70.75
21
-15.66506
0
LINE
8
0
10
70.75
20
-15.66506
11
71.0848312
21
-15.4081407
0
LINE
8
0
10
71.0848312
20
-15.4081407
11
71.26777
21
-15.26777
0
LINE
8
0
10
71.26777
20
-15.26777
11
71.5246893
21
-14.9329388
0
LINE
8
0
10
71.5246893
20
-14.9329388
11
71.66506
21
-14.75
0
LINE
8
0
10
71.66506
20
-14.75
11
71.8265682
21
-14.3600847
0
LINE
8
0
10
71.8265682
20
-14.3600847
11
71.91481
21
-14.14705
0
LINE
8
0
10
71.91481
20
-14.14705
11
71.9449094
21
-13.9184339
0
LINE
8
0
10
71.9449094
20
-13.9184339
11
72
21
-13.5
0
LINE
8
0
10
72
20
-13.5
11
72
21
-9.16048112
0
LINE
8
0
10
72
20
-9.16048112
11
72
21
-9.03221389
0
LINE
8
0
10
72
20
-9.03221389
11
72
21
-8.32707335
0
LINE
8
0
10
72
20
-8.32707335
11
72
21
-7.25344969
0
LINE
8
0
10
72
20
-7.25344969
11
72
21
-6.04984167
0
LINE
8
0
10
72
20
-6.04984167
11
71.9957863
21
-5.95904979
0
LINE
8
0
10
71.9957863
20
-5.95904979
11
71.9865565
21
-5.74617336
0
LINE
8
0
10
71.9865565
20
-5.74617336
11
71.9470468
21
-5.44624588
0
LINE
8
0
10
71.9470468
20
-5.44624588
11
71.9442121
21
-5.4244987
0
LINE
8
0
10
71.9442121
20
-5.4244987
11
71.9176949
21
-5.30673567
0
LINE
8
0
10
71.9176949
20
-5.30673567
11
71.8701219
21
-5.08765939
0
LINE
8
0
10
71.8701219
20
-5.08765939
11
71.847067
21
-5.01470233
0
LINE
8
0
10
71.847067
20
-5.01470233
11
71.7619211
21
-4.74331291
0
LINE
8
0
10
71.7619211
20
-4.74331291
11
71.7619211
21
-4.74331291
0
LINE
8
0
10
35.2
20
-10.2293242
11
35.2
21
-9.33042902
0
LINE
8
0
10
35.2
20
-9.33042902
11
34.9810291
21
-9.07645667
0
LINE
8
0
10
34.9810291
20
-9.07645667
11
34
21
-7.79282729
0
LINE
8
0
10
34
20
-7.79282729
11
30.5501404
21
-7.79282729
0
LINE
8
0
10
30.5501404
20
-7.79282729
11
29.4
21
-7.79282729
0
LINE
8
0
10
29.4
20
-7.79282729
11
28.4189709
21
-9.07645667
0
LINE
8
0
10
28.4189709
20
-9.07645667
11
28.2
21
-9.33042902
0
LINE
8
0
10
28.2
20
-9.33042902
11
28.2
21
-10.4003944
0
LINE
8
0
10
28.2
20
-10.4003944
11
28.2
21
-11.2140126
0
LINE
8
0
10
28.2
20
-11.2140126
11
28.2
21
-11.7092252
0
LINE
8
0
10
28.2
20
-11.7092252
11
28.2
21
-11.986087
0
LINE
8
0
10
28.2
20
-11.986087
11
28.2
21
-13.5
0
LINE
8
0
10
28.2
20
-13.5
11
28.2032529
21
-13.5662026
0
LINE
8
0
10
28.2032529
20
-13.5662026
11
28.21204
21
-13.74504
0
LINE
8
0
10
28.21204
20
-13.74504
11
28.2516335
21
-13.9626337
0
LINE
8
0
10
28.2516335
20
-13.9626337
11
28.2682122
21
-14.0742398
0
LINE
8
0
10
28.2682122
20
-14.0742398
11
28.3325207
21
-14.2864888
0
LINE
8
0
10
28.3325207
20
-14.2864888
11
28.4698091
21
-14.6179325
0
LINE
8
0
10
28.4698091
20
-14.6179325
11
28.5729353
21
-14.811103
0
LINE
8
0
10
28.5729353
20
-14.811103
11
28.7954927
21
-15.101152
0
LINE
8
0
10
28.7954927
20
-15.101152
11
28.93223
21
-15.26777
0
LINE
8
0
10
28.93223
20
-15.26777
11
29.0880175
21
-15.395619
0
LINE
8
0
10
29.0880175
20
-15.395619
11
29.3928689
21
-15.6295345
0
LINE
8
0
10
29.3928689
20
-15.6295345
11
29.565887
21
-15.7222113
0
LINE
8
0
10
29.565887
20
-15.7222113
11
29.9305948
21
-15.8732781
0
LINE
8
0
10
29.9305948
20
-15.8732781
11
30.1133372
21
-15.928891
0
LINE
8
0
10
30.1133372
20
-15.928891
11
30.3605613
21
-15.9665663
0
LINE
8
0
10
30.3605613
20
-15.9665663
11
30.7
21
-16
0
LINE
8
0
10
30.7
20
-16
11
31.2688261
21
-16
0
LINE
8
0
10
31.2688261
20
-16
11
32.7
21
-16
0
LINE
8
0
10
32.7
20
-16
11
32.8750831
21
-15.9827548
0
LINE
8
0
10
32.8750831
20
-15.9827548
11
33.0426911
21
-15.9548816
0
LINE
8
0
10
33.0426911
20
-15.9548816
11
33.34705
21
-15.91481
0
LINE
8
0
10
33.34705
20
-15.91481
11
33.3827697
21
-15.9000144
0
LINE
8
0
10
33.3827697
20
-15.9000144
11
33.95
21
-15.66506
0
LINE
8
0
10
33.95
20
-15.66506
11
33.9806735
21
-15.641524
0
LINE
8
0
10
33.9806735
20
-15.641524
11
34.46777
21
-15.26777
0
LINE
8
0
10
34.46777
20
-15.26777
11
34.491306
21
-15.2370965
0
LINE
8
0
10
34.491306
20
-15.2370965
11
34.86506
21
-14.75
0
LINE
8
0
10
34.86506
20
-14.75
11
34.8798556
21
-14.7142803
0
LINE
8
0
10
34.8798556
20
-14.7142803
11
35.11481
21
-14.14705
0
LINE
8
0
10
35.11481
20
-14.14705
11
35.117698
21
-14.1251142
0
LINE
8
0
10
35.117698
20
-14.1251142
11
35.191857
21
-13.6657281
0
LINE
8
0
10
35.191857
20
-13.6657281
11
35.2
21
-13.5
0
LINE
8
0
10
35.2
20
-13.5
11
35.2
21
-11.6892977
0
LINE
8
0
10
35.2
20
-11.6892977
11
35.2
21
-11.4272645
0
LINE
8
0
10
35.2
20
-11.4272645
11
35.2
21
-10.9605705
0
LINE
8
0
10
35.2
20
-10.9605705
11
35.2
21
-10.2293242
0
LINE
8
0
10
35.2
20
-10.2293242
11
35.2
21
-10.2293242
0
LINE
8
0
10
35.2
20
10
11
35.2
21
8.71006406
0
LINE
8
0
10
35.2
20
8.71006406
11
35.2
21
3.54942444
0
LINE
8
0
10
35.2
20
3.54942444
11
34.9517892
21
3.19466688
0
LINE
8
0
10
34.9517892
20
3.19466688
11
34
21
1.83431317
0
LINE
8
0
10
34
20
1.83431317
11
29.6779002
21
1.83431317
0
LINE
8
0
10
29.6779002
20
1.83431317
11
29.4
21
1.83431317
0
LINE
8
0
10
29.4
20
1.83431317
11
28.4482108
21
3.19466688
0
LINE
8
0
10
28.4482108
20
3.19466688
11
28.2
21
3.54942444
0
LINE
8
0
10
28.2
20
3.54942444
11
28.2
21
9.05929041
0
LINE
8
0
10
28.2
20
9.05929041
11
28.2
21
9.94620257
0
LINE
8
0
10
28.2
20
9.94620257
11
28.2
21
10.0751133
0
LINE
8
0
10
28.2
20
10.0751133
11
28.2
21
11.322844
0
LINE
8
0
10
28.2
20
11.322844
11
28.2
21
15
0
LINE
8
0
10
28.2
20
15
11
29.6742945
21
15
0
LINE
8
0
10
29.6742945
20
15
11
30.2
21
15
0
LINE
8
0
10
30.2
20
15
11
30.2
21
13.2760794
0
LINE
8
0
10
30.2
20
13.2760794
11
30.2
21
12.65094
0
LINE
8
0
10
30.2
20
12.65094
11
30.2
21
12.4610282
0
LINE
8
0
10
30.2
20
12.4610282
11
30.2
21
12.39302
0
LINE
8
0
10
30.2
20
12.39302
11
30.2
21
12.2039352
0
LINE
8
0
10
30.2
20
12.2039352
11
30.2
21
12.13557
0
LINE
8
0
10
30.2
20
12.13557
11
30.2
21
11.9604232
0
LINE
8
0
10
30.2
20
11.9604232
11
30.2
21
11.89597
0
LINE
8
0
10
30.2
20
11.89597
11
30.2
21
11.7466891
0
LINE
8
0
10
30.2
20
11.7466891
11
30.2
21
11.69043
0
LINE
8
0
10
30.2
20
11.69043
11
30.2
21
11.576823
0
LINE
8
0
10
30.2
20
11.576823
11
30.2
21
11.53281
0
LINE
8
0
10
30.2
20
11.53281
11
30.2
21
10.5538758
0
LINE
8
0
10
30.2
20
10.5538758
11
30.2
21
10
0
LINE
8
0
10
30.2
20
10
11
33.5833015
21
10
0
LINE
8
0
10
33.5833015
20
10
11
35.2
21
10
0
LINE
8
0
10
35.2
20
10
11
35.2
21
10
0
LINE
8
0
10
72
20
16.1178056
11
72
21
16.119685
0
LINE
8
0
10
72
20
16.119685
11
72
21
17.9544341
0
LINE
8
0
10
72
20
17.9544341
11
72
21
18.1943121
0
LINE
8
0
10
72
20
18.1943121
11
72
21
20.57188
0
LINE
8
0
10
72
20
20.57188
11
72.2720342
21
20.8477397
0
LINE
8
0
10
72.2720342
20
20.8477397
11
72.5423907
21
21.1218931
0
LINE
8
0
10
72.5423907
20
21.1218931
11
72.8118073
21
21.3951009
0
LINE
8
0
10
72.8118073
20
21.3951009
11
73.15509
21
21.74321
0
LINE
8
0
10
73.15509
20
21.74321
11
73.4131473
21
22.0048962
0
LINE
8
0
10
73.4131473
20
22.0048962
11
73.44949
21
22.04175
0
LINE
8
0
10
73.44949
20
22.04175
11
73.6631537
21
22.2584219
0
LINE
8
0
10
73.6631537
20
22.2584219
11
73.68601
21
22.2816
0
LINE
8
0
10
73.68601
20
22.2816
11
73.9428114
21
22.5420082
0
LINE
8
0
10
73.9428114
20
22.5420082
11
73.9622549
21
22.5617246
0
LINE
8
0
10
73.9622549
20
22.5617246
11
73.9812419
21
22.5809773
0
LINE
8
0
10
73.9812419
20
22.5809773
11
73.9812419
21
25.87954
0
LINE
8
0
10
73.9812419
20
25.87954
11
73.9752144
21
29.4828367
0
LINE
8
0
10
73.9752144
20
29.4828367
11
71.9254648
21
29.482839
0
LINE
8
0
10
71.9254648
20
29.482839
11
65.5377044
21
29.4828352
0
LINE
8
0
10
65.5377044
20
29.4828352
11
65.3823778
21
29.4828356
0
LINE
8
0
10
65.3823778
20
29.4828356
11
65.0371666
21
29.4828379
0
LINE
8
0
10
65.0371666
20
29.4828379
11
63.9
21
29.4828377
0
LINE
8
0
10
63.9
20
29.4828377
11
63.2619678
21
28.6864754
0
LINE
8
0
10
63.2619678
20
28.6864754
11
63.1262268
21
28.5170499
0
LINE
8
0
10
63.1262268
20
28.5170499
11
63.1
21
28.4843142
0
LINE
8
0
10
63.1
20
28.4843142
11
63.1
21
27.5031494
0
LINE
8
0
10
63.1
20
27.5031494
11
63.1
21
25.8107742
0
LINE
8
0
10
63.1
20
25.8107742
11
63.1
21
19.6992596
0
LINE
8
0
10
63.1
20
19.6992596
11
63.1
21
10
0
LINE
8
0
10
63.1
20
10
11
62.8346639
21
10
0
LINE
8
0
10
62.8346639
20
10
11
58.4948215
21
10
0
LINE
8
0
10
58.4948215
20
10
11
58.3141305
21
10
0
LINE
8
0
10
58.3141305
20
10
11
57.3
21
10
0
LINE
8
0
10
57.3
20
10
11
57.3
21
9.25924152
0
LINE
8
0
10
57.3
20
9.25924152
11
57.3463796
21
9.1929539
0
LINE
8
0
10
57.3463796
20
9.1929539
11
57.99103
21
8.27158052
0
LINE
8
0
10
57.99103
20
8.27158052
11
58.5
21
7.54413026
0
LINE
8
0
10
58.5
20
7.54413026
11
59.6536583
21
7.54413026
0
LINE
8
0
10
59.6536583
20
7.54413026
11
65.2726937
21
7.54413026
0
LINE
8
0
10
65.2726937
20
7.54413026
11
66
21
7.54413023
0
LINE
8
0
10
66
20
7.54413023
11
66.0355193
21
7.54662348
0
LINE
8
0
10
66.0355193
20
7.54662348
11
67.0085667
21
7.66787857
0
LINE
8
0
10
67.0085667
20
7.66787857
11
67.0513111
21
7.6769385
0
LINE
8
0
10
67.0513111
20
7.6769385
11
67.0932281
21
7.69194076
0
LINE
8
0
10
67.0932281
20
7.69194076
11
68.0179367
21
8.04501416
0
LINE
8
0
10
68.0179367
20
8.04501416
11
68.0788832
21
8.07617247
0
LINE
8
0
10
68.0788832
20
8.07617247
11
68.8845888
21
8.611702
0
LINE
8
0
10
68.8845888
20
8.611702
11
68.9717685
21
8.67061744
0
LINE
8
0
10
68.9717685
20
8.67061744
11
69.0544906
21
8.74145915
0
LINE
8
0
10
69.0544906
20
8.74145915
11
69.7376064
21
9.42273526
0
LINE
8
0
10
69.7376064
20
9.42273526
11
69.8450838
21
9.53661991
0
LINE
8
0
10
69.8450838
20
9.53661991
11
69.9442357
21
9.66501005
0
LINE
8
0
10
69.9442357
20
9.66501005
11
70.492247
21
10.4452099
0
LINE
8
0
10
70.492247
20
10.4452099
11
70.6082643
21
10.6280761
0
LINE
8
0
10
70.6082643
20
10.6280761
11
70.7111811
21
10.8263106
0
LINE
8
0
10
70.7111811
20
10.8263106
11
71.1217859
21
11.6610382
0
LINE
8
0
10
71.1217859
20
11.6610382
11
71.2299126
21
11.9187109
0
LINE
8
0
10
71.2299126
20
11.9187109
11
71.3198544
21
12.1902828
0
LINE
8
0
10
71.3198544
20
12.1902828
11
71.5984347
21
13.0407433
0
LINE
8
0
10
71.5984347
20
13.0407433
11
71.6809014
21
13.3698041
0
LINE
8
0
10
71.6809014
20
13.3698041
11
71.8304848
21
14.1621281
0
LINE
8
0
10
71.8304848
20
14.1621281
11
71.8973714
21
14.5432133
0
LINE
8
0
10
71.8973714
20
14.5432133
11
71.9378126
21
14.9318311
0
LINE
8
0
10
71.9378126
20
14.9318311
11
71.9851025
21
15.6880586
0
LINE
8
0
10
71.9851025
20
15.6880586
11
72
21
16.1178056
0
LINE
8
0
10
72
20
16.1178056
11
72
21
16.1178056
0
ENDSEC
0
EOF
