0
SECTION
2
ENTITIES
0
LINE
8
0
10
16
20
41.4647353
11
16
21
41.2702746
0
LINE
8
0
10
16
20
41.2702746
11
16
21
40.4521875
0
LINE
8
0
10
16
20
40.4521875
11
16
21
39.9837277
0
LINE
8
0
10
16
20
39.9837277
11
16
21
39.2214013
0
LINE
8
0
10
16
20
39.2214013
11
16
21
38.5266434
0
LINE
8
0
10
16
20
38.5266434
11
16
21
37.0545561
0
LINE
8
0
10
16
20
37.0545561
11
16
21
36.8163789
0
LINE
8
0
10
16
20
36.8163789
11
16
21
36.0640009
0
LINE
8
0
10
16
20
36.0640009
11
16.7007676
21
36.0640009
0
LINE
8
0
10
16.7007676
20
36.0640009
11
17.8
21
36.0640009
0
LINE
8
0
10
17.8
20
36.0640009
11
17.8
21
34.420587
0
LINE
8
0
10
17.8
20
34.420587
11
17.8
21
32.564428
0
LINE
8
0
10
17.8
20
32.564428
11
17.8
21
30.3666094
0
LINE
8
0
10
17.8
20
30.3666094
11
17.8
21
29.1788597
0
LINE
8
0
10
17.8
20
29.1788597
11
17.7576756
21
28.5103317
0
LINE
8
0
10
17.7576756
20
28.5103317
11
17.72314
21
27.9648297
0
LINE
8
0
10
17.72314
20
27.9648297
11
17.5977969
21
27.3219959
0
LINE
8
0
10
17.5977969
20
27.3219959
11
17.49552
21
26.7974597
0
LINE
8
0
10
17.49552
20
26.7974597
11
17.2919709
21
26.2050176
0
LINE
8
0
10
17.2919709
20
26.2050176
11
17.12588
21
25.7215997
0
LINE
8
0
10
17.12588
20
25.7215997
11
16.85195
21
25.2023249
0
LINE
8
0
10
16.85195
20
25.2023249
11
16.62843
21
24.7786097
0
LINE
8
0
10
16.62843
20
24.7786097
11
16.4682626
21
24.5527751
0
LINE
8
0
10
16.4682626
20
24.5527751
11
16.33757
21
24.3684952
0
LINE
8
0
10
16.33757
20
24.3684952
11
16.1639498
21
24.1681675
0
LINE
8
0
10
16.1639498
20
24.1681675
11
16.02228
21
24.0047097
0
LINE
8
0
10
16.02228
20
24.0047097
11
15.8368755
21
23.8318273
0
LINE
8
0
10
15.8368755
20
23.8318273
11
15.68559
21
23.6907552
0
LINE
8
0
10
15.68559
20
23.6907552
11
15.4901798
21
23.5469702
0
LINE
8
0
10
15.4901798
20
23.5469702
11
15.33073
21
23.4296497
0
LINE
8
0
10
15.33073
20
23.4296497
11
15.1272085
21
23.3163607
0
LINE
8
0
10
15.1272085
20
23.3163607
11
14.96114
21
23.2239197
0
LINE
8
0
10
14.96114
20
23.2239197
11
14.7514565
21
23.1422115
0
LINE
8
0
10
14.7514565
20
23.1422115
11
14.58036
21
23.0755352
0
LINE
8
0
10
14.58036
20
23.0755352
11
14.366541
21
23.0261898
0
LINE
8
0
10
14.366541
20
23.0261898
11
14.19207
21
22.9859297
0
LINE
8
0
10
14.19207
20
22.9859297
11
13.9761694
21
22.9694261
0
LINE
8
0
10
13.9761694
20
22.9694261
11
13.8
21
22.9559597
0
LINE
8
0
10
13.8
20
22.9559597
11
7.5223805
21
22.9559597
0
LINE
8
0
10
7.5223805
20
22.9559597
11
2.4
21
22.955957
0
LINE
8
0
10
2.4
20
22.955957
11
2.4
21
26.4327965
0
LINE
8
0
10
2.4
20
26.4327965
11
2.4
21
28.2430895
0
LINE
8
0
10
2.4
20
28.2430895
11
2.4
21
30.4269413
0
LINE
8
0
10
2.4
20
30.4269413
11
2.4
21
38.5934876
0
LINE
8
0
10
2.4
20
38.5934876
11
2.4
21
39.1948577
0
LINE
8
0
10
2.4
20
39.1948577
11
2.4
21
40.0352728
0
LINE
8
0
10
2.4
20
40.0352728
11
2.4
21
40.8629369
0
LINE
8
0
10
2.4
20
40.8629369
11
2.4
21
41.5359925
0
LINE
8
0
10
2.4
20
41.5359925
11
2.4
21
42.3935188
0
LINE
8
0
10
2.4
20
42.3935188
11
2.91391594
21
42.3935188
0
LINE
8
0
10
2.91391594
20
42.3935188
11
16
21
42.3935188
0
LINE
8
0
10
16
20
42.3935188
11
16
21
41.4647353
0
LINE
8
0
10
16
20
41.4647353
11
16
21
41.4647353
0
LINE
8
0
10
35.2
20
-10.8875471
11
35.2
21
-11.3676612
0
LINE
8
0
10
35.2
20
-11.3676612
11
35.2
21
-11.6372294
0
LINE
8
0
10
35.2
20
-11.6372294
11
35.2
21
-13.5
0
LINE
8
0
10
35.2
20
-13.5
11
35.1919689
21
-13.6634508
0
LINE
8
0
10
35.1919689
20
-13.6634508
11
35.1188289
21
-14.1165246
0
LINE
8
0
10
35.1188289
20
-14.1165246
11
35.11481
21
-14.14705
0
LINE
8
0
10
35.11481
20
-14.14705
11
34.8856492
21
-14.7002932
0
LINE
8
0
10
34.8856492
20
-14.7002932
11
34.86506
21
-14.75
0
LINE
8
0
10
34.86506
20
-14.75
11
34.5005223
21
-15.2250854
0
LINE
8
0
10
34.5005223
20
-15.2250854
11
34.46777
21
-15.26777
0
LINE
8
0
10
34.46777
20
-15.26777
11
33.9926846
21
-15.6323077
0
LINE
8
0
10
33.9926846
20
-15.6323077
11
33.95
21
-15.66506
0
LINE
8
0
10
33.95
20
-15.66506
11
33.3967568
21
-15.8942208
0
LINE
8
0
10
33.3967568
20
-15.8942208
11
33.34705
21
-15.91481
0
LINE
8
0
10
33.34705
20
-15.91481
11
33.0501962
21
-15.9538935
0
LINE
8
0
10
33.0501962
20
-15.9538935
11
32.8789175
21
-15.9823771
0
LINE
8
0
10
32.8789175
20
-15.9823771
11
32.7
21
-16
0
LINE
8
0
10
32.7
20
-16
11
31.2859329
21
-16
0
LINE
8
0
10
31.2859329
20
-16
11
30.7
21
-16
0
LINE
8
0
10
30.7
20
-16
11
30.3653252
21
-15.9670355
0
LINE
8
0
10
30.3653252
20
-15.9670355
11
30.110159
21
-15.9281499
0
LINE
8
0
10
30.110159
20
-15.9281499
11
29.9370345
21
-15.875464
0
LINE
8
0
10
29.9370345
20
-15.875464
11
29.5597877
21
-15.7192033
0
LINE
8
0
10
29.5597877
20
-15.7192033
11
29.3958758
21
-15.6314043
0
LINE
8
0
10
29.3958758
20
-15.6314043
11
29.0798181
21
-15.3888901
0
LINE
8
0
10
29.0798181
20
-15.3888901
11
28.93223
21
-15.26777
0
LINE
8
0
10
28.93223
20
-15.26777
11
28.8026894
21
-15.1099213
0
LINE
8
0
10
28.8026894
20
-15.1099213
11
28.5709355
21
-14.807887
0
LINE
8
0
10
28.5709355
20
-14.807887
11
28.473237
21
-14.6248834
0
LINE
8
0
10
28.473237
20
-14.6248834
11
28.3300296
21
-14.27915
0
LINE
8
0
10
28.3300296
20
-14.27915
11
28.2691058
21
-14.0780719
0
LINE
8
0
10
28.2691058
20
-14.0780719
11
28.2533996
21
-13.9723399
0
LINE
8
0
10
28.2533996
20
-13.9723399
11
28.21204
21
-13.74504
0
LINE
8
0
10
28.21204
20
-13.74504
11
28.2033983
21
-13.5691626
0
LINE
8
0
10
28.2033983
20
-13.5691626
11
28.2
21
-13.5
0
LINE
8
0
10
28.2
20
-13.5
11
28.2
21
-11.9183982
0
LINE
8
0
10
28.2
20
-11.9183982
11
28.2
21
-11.6291577
0
LINE
8
0
10
28.2
20
-11.6291577
11
28.2
21
-11.1118035
0
LINE
8
0
10
28.2
20
-11.1118035
11
28.2
21
-10.2618075
0
LINE
8
0
10
28.2
20
-10.2618075
11
28.2
21
-9.47039328
0
LINE
8
0
10
28.2
20
-9.47039328
11
28.7657315
21
-8.81423226
0
LINE
8
0
10
28.7657315
20
-8.81423226
11
29.4
21
-7.98432243
0
LINE
8
0
10
29.4
20
-7.98432243
11
31.769549
21
-7.98432243
0
LINE
8
0
10
31.769549
20
-7.98432243
11
34
21
-7.98432243
0
LINE
8
0
10
34
20
-7.98432243
11
34.6342685
21
-8.81423226
0
LINE
8
0
10
34.6342685
20
-8.81423226
11
35.2
21
-9.47039328
0
LINE
8
0
10
35.2
20
-9.47039328
11
35.2
21
-10.1352731
0
LINE
8
0
10
35.2
20
-10.1352731
11
35.2
21
-10.8875471
0
LINE
8
0
10
35.2
20
-10.8875471
11
35.2
21
-10.8875471
0
LINE
8
0
10
35.2
20
3.78394384
11
35.2
21
8.67297085
0
LINE
8
0
10
35.2
20
8.67297085
11
35.2
21
10
0
LINE
8
0
10
35.2
20
10
11
33.5368119
21
10
0
LINE
8
0
10
33.5368119
20
10
11
30.2
21
10
0
LINE
8
0
10
30.2
20
10
11
30.2
21
10.569803
0
LINE
8
0
10
30.2
20
10.569803
11
30.2
21
11.53281
0
LINE
8
0
10
30.2
20
11.53281
11
30.2
21
11.5786989
0
LINE
8
0
10
30.2
20
11.5786989
11
30.2
21
11.69043
0
LINE
8
0
10
30.2
20
11.69043
11
30.2
21
11.7491825
0
LINE
8
0
10
30.2
20
11.7491825
11
30.2
21
11.89597
0
LINE
8
0
10
30.2
20
11.89597
11
30.2
21
11.9633702
0
LINE
8
0
10
30.2
20
11.9633702
11
30.2
21
12.13557
0
LINE
8
0
10
30.2
20
12.13557
11
30.2
21
12.207125
0
LINE
8
0
10
30.2
20
12.207125
11
30.2
21
12.39302
0
LINE
8
0
10
30.2
20
12.39302
11
30.2
21
12.4642245
0
LINE
8
0
10
30.2
20
12.4642245
11
30.2
21
12.65094
0
LINE
8
0
10
30.2
20
12.65094
11
30.2
21
13.305269
0
LINE
8
0
10
30.2
20
13.305269
11
30.2
21
15
0
LINE
8
0
10
30.2
20
15
11
29.6493316
21
15
0
LINE
8
0
10
29.6493316
20
15
11
28.2
21
15
0
LINE
8
0
10
28.2
20
15
11
28.2
21
11.148236
0
LINE
8
0
10
28.2
20
11.148236
11
28.2
21
9.96617541
0
LINE
8
0
10
28.2
20
9.96617541
11
28.2
21
9.84404944
0
LINE
8
0
10
28.2
20
9.84404944
11
28.2
21
9.00381686
0
LINE
8
0
10
28.2
20
9.00381686
11
28.2
21
3.78394384
0
LINE
8
0
10
28.2
20
3.78394384
11
28.498305
21
3.35758873
0
LINE
8
0
10
28.498305
20
3.35758873
11
29.4
21
2.06883258
0
LINE
8
0
10
29.4
20
2.06883258
11
29.9053791
21
2.06883258
0
LINE
8
0
10
29.9053791
20
2.06883258
11
34
21
2.06883258
0
LINE
8
0
10
34
20
2.06883258
11
34.901695
21
3.35758873
0
LINE
8
0
10
34.901695
20
3.35758873
11
35.2
21
3.78394384
0
LINE
8
0
10
35.2
20
3.78394384
11
35.2
21
3.78394384
0
LINE
8
0
10
72
20
18.3195506
11
72
21
18.0923081
0
LINE
8
0
10
72
20
18.0923081
11
72
21
16.3542045
0
LINE
8
0
10
72
20
16.3542045
11
72
21
16.3522305
0
LINE
8
0
10
72
20
16.3522305
11
71.9843534
21
15.900875
0
LINE
8
0
10
71.9843534
20
15.900875
11
71.9395524
21
15.184449
0
LINE
8
0
10
71.9395524
20
15.184449
11
71.8966819
21
14.7724858
0
LINE
8
0
10
71.8966819
20
14.7724858
11
71.8257772
21
14.3685076
0
LINE
8
0
10
71.8257772
20
14.3685076
11
71.6840666
21
13.6178849
0
LINE
8
0
10
71.6840666
20
13.6178849
11
71.5954929
21
13.2644557
0
LINE
8
0
10
71.5954929
20
13.2644557
11
71.3315747
21
12.4587564
0
LINE
8
0
10
71.3315747
20
12.4587564
11
71.2331114
21
12.1614545
0
LINE
8
0
10
71.2331114
20
12.1614545
11
71.1147403
21
11.8793689
0
LINE
8
0
10
71.1147403
20
11.8793689
11
70.7257463
21
11.0885743
0
LINE
8
0
10
70.7257463
20
11.0885743
11
70.6097846
21
10.8652131
0
LINE
8
0
10
70.6097846
20
10.8652131
11
70.4790619
21
10.6591684
0
LINE
8
0
10
70.4790619
20
10.6591684
11
69.9598933
21
9.92003162
0
LINE
8
0
10
69.9598933
20
9.92003162
11
69.8429999
21
9.76866834
0
LINE
8
0
10
69.8429999
20
9.76866834
11
69.7162913
21
9.63440604
0
LINE
8
0
10
69.7162913
20
9.63440604
11
69.069129
21
8.98898657
0
LINE
8
0
10
69.069129
20
8.98898657
11
68.9641844
21
8.8991139
0
LINE
8
0
10
68.9641844
20
8.8991139
11
68.8535846
21
8.82437137
0
LINE
8
0
10
68.8535846
20
8.82437137
11
68.0902846
21
8.3170276
0
LINE
8
0
10
68.0902846
20
8.3170276
11
68.0033742
21
8.27259552
0
LINE
8
0
10
68.0033742
20
8.27259552
11
67.1273346
21
7.93810493
0
LINE
8
0
10
67.1273346
20
7.93810493
11
67.05757
21
7.91313595
0
LINE
8
0
10
67.05757
20
7.91313595
11
66.9864285
21
7.89805707
0
LINE
8
0
10
66.9864285
20
7.89805707
11
66.064594
21
7.78318382
0
LINE
8
0
10
66.064594
20
7.78318382
11
66
21
7.77864969
0
LINE
8
0
10
66
20
7.77864969
11
64.6773472
21
7.77864976
0
LINE
8
0
10
64.6773472
20
7.77864976
11
60.598001
21
7.77864976
0
LINE
8
0
10
60.598001
20
7.77864976
11
58.5
21
7.77864976
0
LINE
8
0
10
58.5
20
7.77864976
11
58.1304945
21
8.30676913
0
LINE
8
0
10
58.1304945
20
8.30676913
11
57.35574
21
9.41409508
0
LINE
8
0
10
57.35574
20
9.41409508
11
57.3
21
9.49376094
0
LINE
8
0
10
57.3
20
9.49376094
11
57.3
21
10
0
LINE
8
0
10
57.3
20
10
11
57.9930633
21
10
0
LINE
8
0
10
57.9930633
20
10
11
58.1894938
21
10
0
LINE
8
0
10
58.1894938
20
10
11
62.9073694
21
10
0
LINE
8
0
10
62.9073694
20
10
11
63.1
21
10
0
LINE
8
0
10
63.1
20
10
11
63.1
21
17.0415358
0
LINE
8
0
10
63.1
20
17.0415358
11
63.1
21
25.0838913
0
LINE
8
0
10
63.1
20
25.0838913
11
63.1
21
27.310947
0
LINE
8
0
10
63.1
20
27.310947
11
63.1
21
28.6020961
0
LINE
8
0
10
63.1
20
28.6020961
11
63.1345127
21
28.6451741
0
LINE
8
0
10
63.1345127
20
28.6451741
11
63.3131391
21
28.8681271
0
LINE
8
0
10
63.3131391
20
28.8681271
11
63.9
21
29.6006198
0
LINE
8
0
10
63.9
20
29.6006198
11
65.3145637
21
29.6006199
0
LINE
8
0
10
65.3145637
20
29.6006199
11
65.7439847
21
29.6006171
0
LINE
8
0
10
65.7439847
20
29.6006171
11
65.9372012
21
29.6006167
0
LINE
8
0
10
65.9372012
20
29.6006167
11
73.8831732
21
29.6006213
0
LINE
8
0
10
73.8831732
20
29.6006213
11
73.9986042
21
29.6006212
0
LINE
8
0
10
73.9986042
20
29.6006212
11
73.9989436
21
29.3977026
0
LINE
8
0
10
73.9989436
20
29.3977026
11
73.9989436
21
22.5989287
0
LINE
8
0
10
73.9989436
20
22.5989287
11
73.9978744
21
22.5978445
0
LINE
8
0
10
73.9978744
20
22.5978445
11
73.9967794
21
22.5967342
0
LINE
8
0
10
73.9967794
20
22.5967342
11
73.68601
21
22.2816
0
LINE
8
0
10
73.68601
20
22.2816
11
73.6583504
21
22.2535509
0
LINE
8
0
10
73.6583504
20
22.2535509
11
73.44949
21
22.04175
0
LINE
8
0
10
73.44949
20
22.04175
11
73.4075407
21
21.9992108
0
LINE
8
0
10
73.4075407
20
21.9992108
11
73.15509
21
21.74321
0
LINE
8
0
10
73.15509
20
21.74321
11
72.7690453
21
21.3517377
0
LINE
8
0
10
72.7690453
20
21.3517377
11
72.5138203
21
21.0929212
0
LINE
8
0
10
72.5138203
20
21.0929212
11
72.2577048
21
20.8332088
0
LINE
8
0
10
72.2577048
20
20.8332088
11
72
21
20.57188
0
LINE
8
0
10
72
20
20.57188
11
72
21
18.3195506
0
LINE
8
0
10
72
20
18.3195506
11
72
21
18.3195506
0
LINE
8
0
10
72
20
-8.17832141
11
72
21
-7.07382478
0
LINE
8
0
10
72
20
-7.07382478
11
72
21
-6.12257409
0
LINE
8
0
10
72
20
-6.12257409
11
71.9929814
21
-5.97134571
0
LINE
8
0
10
71.9929814
20
-5.97134571
11
71.9866781
21
-5.82596538
0
LINE
8
0
10
71.9866781
20
-5.82596538
11
71.9596956
21
-5.621135
0
LINE
8
0
10
71.9596956
20
-5.621135
11
71.9447344
21
-5.50635528
0
LINE
8
0
10
71.9447344
20
-5.50635528
11
71.8843322
21
-5.23810874
0
LINE
8
0
10
71.8843322
20
-5.23810874
11
71.871462
21
-5.18037006
0
LINE
8
0
10
71.871462
20
-5.18037006
11
71.7752964
21
-4.88481178
0
LINE
8
0
10
71.7752964
20
-4.88481178
11
71.7646931
21
-4.85101531
0
LINE
8
0
10
71.7646931
20
-4.85101531
11
71.7597864
21
-4.83938632
0
LINE
8
0
10
71.7597864
20
-4.83938632
11
71.622657
21
-4.51211844
0
LINE
8
0
10
71.622657
20
-4.51211844
11
71.5528134
21
-4.38266364
0
LINE
8
0
10
71.5528134
20
-4.38266364
11
71.4449156
21
-4.18133483
0
LINE
8
0
10
71.4449156
20
-4.18133483
11
71.2833718
21
-3.94128341
0
LINE
8
0
10
71.2833718
20
-3.94128341
11
71.2320357
21
-3.86451322
0
LINE
8
0
10
71.2320357
20
-3.86451322
11
71.0650766
21
-3.66293348
0
LINE
8
0
10
71.0650766
20
-3.66293348
11
70.9855008
21
-3.56308943
0
LINE
8
0
10
70.9855008
20
-3.56308943
11
70.9472416
21
-3.52410125
0
LINE
8
0
10
70.9472416
20
-3.52410125
11
70.7076897
21
-3.27855499
0
LINE
8
0
10
70.7076897
20
-3.27855499
11
70.5486633
21
-3.1465191
0
LINE
8
0
10
70.5486633
20
-3.1465191
11
70.4035884
21
-3.02539844
0
LINE
8
0
10
70.4035884
20
-3.02539844
11
70.1286956
21
-2.84156971
0
LINE
8
0
10
70.1286956
20
-2.84156971
11
70.0788297
21
-2.80805102
0
LINE
8
0
10
70.0788297
20
-2.80805102
11
69.8752153
21
-2.70089047
0
LINE
8
0
10
69.8752153
20
-2.70089047
11
69.7391111
21
-2.62559015
0
LINE
8
0
10
69.7391111
20
-2.62559015
11
69.7001869
21
-2.60937022
0
LINE
8
0
10
69.7001869
20
-2.60937022
11
69.3910726
21
-2.48002705
0
LINE
8
0
10
69.3910726
20
-2.48002705
11
69.2829346
21
-2.44844289
0
LINE
8
0
10
69.2829346
20
-2.44844289
11
69.0430019
21
-2.37813437
0
LINE
8
0
10
69.0430019
20
-2.37813437
11
68.8961942
21
-2.35268481
0
LINE
8
0
10
68.8961942
20
-2.35268481
11
68.701731
21
-2.31890072
0
LINE
8
0
10
68.701731
20
-2.31890072
11
68.5320961
21
-2.30908431
0
LINE
8
0
10
68.5320961
20
-2.30908431
11
68.3692419
21
-2.28732897
0
LINE
8
0
10
68.3692419
20
-2.28732897
11
65.4909283
21
-2.29142035
0
LINE
8
0
10
65.4909283
20
-2.29142035
11
58.5
21
-2.27450443
0
LINE
8
0
10
58.5
20
-2.27450443
11
57.8657315
21
-3.10441479
0
LINE
8
0
10
57.8657315
20
-3.10441479
11
57.3
21
-3.76057591
0
LINE
8
0
10
57.3
20
-3.76057591
11
57.3
21
-4.84554854
0
LINE
8
0
10
57.3
20
-4.84554854
11
57.3
21
-6.18724984
0
LINE
8
0
10
57.3
20
-6.18724984
11
57.3
21
-7.16053101
0
LINE
8
0
10
57.3
20
-7.16053101
11
57.3
21
-7.24555345
0
LINE
8
0
10
57.3
20
-7.24555345
11
57.3
21
-7.94743553
0
LINE
8
0
10
57.3
20
-7.94743553
11
57.3
21
-8.0422305
0
LINE
8
0
10
57.3
20
-8.0422305
11
57.3
21
-14.17729
0
LINE
8
0
10
57.3
20
-14.17729
11
57.3
21
-14.3912581
0
LINE
8
0
10
57.3
20
-14.3912581
11
57.3
21
-14.5
0
LINE
8
0
10
57.3
20
-14.5
11
57.3118404
21
-14.60763
0
LINE
8
0
10
57.3118404
20
-14.60763
11
57.3216767
21
-14.6646554
0
LINE
8
0
10
57.3216767
20
-14.6646554
11
57.3342865
21
-14.7604394
0
LINE
8
0
10
57.3342865
20
-14.7604394
11
57.35111
21
-14.88823
0
LINE
8
0
10
57.35111
20
-14.88823
11
57.4161691
21
-15.0452965
0
LINE
8
0
10
57.4161691
20
-15.0452965
11
57.50096
21
-15.25
0
LINE
8
0
10
57.50096
20
-15.25
11
57.6044554
21
-15.3848765
0
LINE
8
0
10
57.6044554
20
-15.3848765
11
57.73934
21
-15.56066
0
LINE
8
0
10
57.73934
20
-15.56066
11
57.8742165
21
-15.6641554
0
LINE
8
0
10
57.8742165
20
-15.6641554
11
58.05
21
-15.79904
0
LINE
8
0
10
58.05
20
-15.79904
11
58.2070665
21
-15.8640991
0
LINE
8
0
10
58.2070665
20
-15.8640991
11
58.41177
21
-15.94889
0
LINE
8
0
10
58.41177
20
-15.94889
11
58.4693611
21
-15.9601219
0
LINE
8
0
10
58.4693611
20
-15.9601219
11
58.6374317
21
-15.9908699
0
LINE
8
0
10
58.6374317
20
-15.9908699
11
58.67679
21
-15.99493
0
LINE
8
0
10
58.67679
20
-15.99493
11
58.7164559
21
-15.9973781
0
LINE
8
0
10
58.7164559
20
-15.9973781
11
58.73836
21
-15.99873
0
LINE
8
0
10
58.73836
20
-15.99873
11
58.7781249
21
-15.9995493
0
LINE
8
0
10
58.7781249
20
-15.9995493
11
58.8
21
-16
0
LINE
8
0
10
58.8
20
-16
11
62.8941122
21
-16
0
LINE
8
0
10
62.8941122
20
-16
11
69.5
21
-16
0
LINE
8
0
10
69.5
20
-16
11
69.9304663
21
-15.9433252
0
LINE
8
0
10
69.9304663
20
-15.9433252
11
70.14705
21
-15.91481
0
LINE
8
0
10
70.14705
20
-15.91481
11
70.5481777
21
-15.7486575
0
LINE
8
0
10
70.5481777
20
-15.7486575
11
70.75
21
-15.66506
0
LINE
8
0
10
70.75
20
-15.66506
11
71.0944596
21
-15.4007528
0
LINE
8
0
10
71.0944596
20
-15.4007528
11
71.26777
21
-15.26777
0
LINE
8
0
10
71.26777
20
-15.26777
11
71.5320772
21
-14.9233104
0
LINE
8
0
10
71.5320772
20
-14.9233104
11
71.66506
21
-14.75
0
LINE
8
0
10
71.66506
20
-14.75
11
71.8312125
21
-14.3488723
0
LINE
8
0
10
71.8312125
20
-14.3488723
11
71.91481
21
-14.14705
0
LINE
8
0
10
71.91481
20
-14.14705
11
71.9433252
21
-13.9304663
0
LINE
8
0
10
71.9433252
20
-13.9304663
11
72
21
-13.5
0
LINE
8
0
10
72
20
-13.5
11
72
21
-9.03569453
0
LINE
8
0
10
72
20
-9.03569453
11
72
21
-8.90373887
0
LINE
8
0
10
72
20
-8.90373887
11
72
21
-8.17832141
0
LINE
8
0
10
72
20
-8.17832141
11
72
21
-8.17832141
0
ENDSEC
0
EOF
