0
SECTION
2
ENTITIES
0
LINE
8
0
10
16
20
41.6180679
11
16
21
41.8338416
0
LINE
8
0
10
16
20
41.8338416
11
12.9598591
21
41.8338416
0
LINE
8
0
10
12.9598591
20
41.8338416
11
2.4
21
41.8338416
0
LINE
8
0
10
2.4
20
41.8338416
11
2.4
21
41.6346223
0
LINE
8
0
10
2.4
20
41.6346223
11
2.4
21
40.923811
0
LINE
8
0
10
2.4
20
40.923811
11
2.4
21
40.3765009
0
LINE
8
0
10
2.4
20
40.3765009
11
2.4
21
39.481511
0
LINE
8
0
10
2.4
20
39.481511
11
2.4
21
38.8410892
0
LINE
8
0
10
2.4
20
38.8410892
11
2.4
21
30.1442245
0
LINE
8
0
10
2.4
20
30.1442245
11
2.4
21
28.2030229
0
LINE
8
0
10
2.4
20
28.2030229
11
2.4
21
26.5938736
0
LINE
8
0
10
2.4
20
26.5938736
11
2.4
21
23.5033496
0
LINE
8
0
10
2.4
20
23.5033496
11
6.95322711
21
23.5033519
0
LINE
8
0
10
6.95322711
20
23.5033519
11
13.8
21
23.5033519
0
LINE
8
0
10
13.8
20
23.5033519
11
13.9565951
21
23.5153221
0
LINE
8
0
10
13.9565951
20
23.5153221
11
14.19207
21
23.5333219
0
LINE
8
0
10
14.19207
20
23.5333219
11
14.3471553
21
23.5691087
0
LINE
8
0
10
14.3471553
20
23.5691087
11
14.58036
21
23.6229279
0
LINE
8
0
10
14.58036
20
23.6229279
11
14.7324458
21
23.6821958
0
LINE
8
0
10
14.7324458
20
23.6821958
11
14.96114
21
23.7713119
0
LINE
8
0
10
14.96114
20
23.7713119
11
15.1087564
21
23.8534817
0
LINE
8
0
10
15.1087564
20
23.8534817
11
15.33073
21
23.9770419
0
LINE
8
0
10
15.33073
20
23.9770419
11
15.4724632
21
24.0813268
0
LINE
8
0
10
15.4724632
20
24.0813268
11
15.68559
21
24.2381479
0
LINE
8
0
10
15.68559
20
24.2381479
11
15.820066
21
24.3635454
0
LINE
8
0
10
15.820066
20
24.3635454
11
16.02228
21
24.5521019
0
LINE
8
0
10
16.02228
20
24.5521019
11
16.1482087
21
24.6973978
0
LINE
8
0
10
16.1482087
20
24.6973978
11
16.33757
21
24.9158879
0
LINE
8
0
10
16.33757
20
24.9158879
11
16.4537412
21
25.0796923
0
LINE
8
0
10
16.4537412
20
25.0796923
11
16.62843
21
25.3260019
0
LINE
8
0
10
16.62843
20
25.3260019
11
16.8271145
21
25.7026377
0
LINE
8
0
10
16.8271145
20
25.7026377
11
17.12588
21
26.2689919
0
LINE
8
0
10
17.12588
20
26.2689919
11
17.2735164
21
26.6986967
0
LINE
8
0
10
17.2735164
20
26.6986967
11
17.49552
21
27.3448519
0
LINE
8
0
10
17.49552
20
27.3448519
11
17.5864328
21
27.8111064
0
LINE
8
0
10
17.5864328
20
27.8111064
11
17.72314
21
28.5122219
0
LINE
8
0
10
17.72314
20
28.5122219
11
17.7538383
21
28.9971127
0
LINE
8
0
10
17.7538383
20
28.9971127
11
17.8
21
29.7262519
0
LINE
8
0
10
17.8
20
29.7262519
11
17.8
21
30.7820295
0
LINE
8
0
10
17.8
20
30.7820295
11
17.8
21
33.1791109
0
LINE
8
0
10
17.8
20
33.1791109
11
17.8
21
35.2035564
0
LINE
8
0
10
17.8
20
35.2035564
11
17.8
21
35.8644936
0
LINE
8
0
10
17.8
20
35.8644936
11
17.357918
21
35.8644936
0
LINE
8
0
10
17.357918
20
35.8644936
11
16
21
35.8644936
0
LINE
8
0
10
16
20
35.8644936
11
16
21
37.3224201
0
LINE
8
0
10
16
20
37.3224201
11
16
21
37.7839501
0
LINE
8
0
10
16
20
37.7839501
11
16
21
38.9515228
0
LINE
8
0
10
16
20
38.9515228
11
16
21
39.8383114
0
LINE
8
0
10
16
20
39.8383114
11
16
21
40.3424156
0
LINE
8
0
10
16
20
40.3424156
11
16
21
40.6521944
0
LINE
8
0
10
16
20
40.6521944
11
16
21
41.5728911
0
LINE
8
0
10
16
20
41.5728911
11
16
21
41.6180679
0
LINE
8
0
10
16
20
41.6180679
11
16
21
41.6180679
0
LINE
8
0
10
35.2
20
-11.2484546
11
35.2
21
-10.7415001
0
LINE
8
0
10
35.2
20
-10.7415001
11
35.2
21
-9.94717094
0
LINE
8
0
10
35.2
20
-9.94717094
11
35.2
21
-9.75032179
0
LINE
8
0
10
35.2
20
-9.75032179
11
34.2026073
21
-8.5935005
0
LINE
8
0
10
34.2026073
20
-8.5935005
11
34
21
-8.35712626
0
LINE
8
0
10
34
20
-8.35712626
11
29.5845423
21
-8.35712626
0
LINE
8
0
10
29.5845423
20
-8.35712626
11
29.4
21
-8.35712626
0
LINE
8
0
10
29.4
20
-8.35712626
11
29.1973927
21
-8.5935005
0
LINE
8
0
10
29.1973927
20
-8.5935005
11
28.2
21
-9.75032179
0
LINE
8
0
10
28.2
20
-9.75032179
11
28.2
21
-9.98463362
0
LINE
8
0
10
28.2
20
-9.98463362
11
28.2
21
-10.9073852
0
LINE
8
0
10
28.2
20
-10.9073852
11
28.2
21
-11.4690225
0
LINE
8
0
10
28.2
20
-11.4690225
11
28.2
21
-11.7830206
0
LINE
8
0
10
28.2
20
-11.7830206
11
28.2
21
-13.5
0
LINE
8
0
10
28.2
20
-13.5
11
28.2036892
21
-13.5750825
0
LINE
8
0
10
28.2036892
20
-13.5750825
11
28.21204
21
-13.74504
0
LINE
8
0
10
28.21204
20
-13.74504
11
28.2569319
21
-13.9917521
0
LINE
8
0
10
28.2569319
20
-13.9917521
11
28.2708929
21
-14.0857362
0
LINE
8
0
10
28.2708929
20
-14.0857362
11
28.3250474
21
-14.2644722
0
LINE
8
0
10
28.3250474
20
-14.2644722
11
28.4800929
21
-14.6387853
0
LINE
8
0
10
28.4800929
20
-14.6387853
11
28.566936
21
-14.8014551
0
LINE
8
0
10
28.566936
20
-14.8014551
11
28.8170828
21
-15.1274601
0
LINE
8
0
10
28.8170828
20
-15.1274601
11
28.93223
21
-15.26777
0
LINE
8
0
10
28.93223
20
-15.26777
11
29.0634195
21
-15.3754323
0
LINE
8
0
10
29.0634195
20
-15.3754323
11
29.4018896
21
-15.6351438
0
LINE
8
0
10
29.4018896
20
-15.6351438
11
29.547589
21
-15.7131874
0
LINE
8
0
10
29.547589
20
-15.7131874
11
29.949914
21
-15.8798358
0
LINE
8
0
10
29.949914
20
-15.8798358
11
30.1038024
21
-15.9266677
0
LINE
8
0
10
30.1038024
20
-15.9266677
11
30.3748531
21
-15.967974
0
LINE
8
0
10
30.3748531
20
-15.967974
11
30.7
21
-16
0
LINE
8
0
10
30.7
20
-16
11
31.3201464
21
-16
0
LINE
8
0
10
31.3201464
20
-16
11
32.7
21
-16
0
LINE
8
0
10
32.7
20
-16
11
32.8865863
21
-15.9816218
0
LINE
8
0
10
32.8865863
20
-15.9816218
11
33.0652063
21
-15.9519173
0
LINE
8
0
10
33.0652063
20
-15.9519173
11
33.34705
21
-15.91481
0
LINE
8
0
10
33.34705
20
-15.91481
11
33.424731
21
-15.8826335
0
LINE
8
0
10
33.424731
20
-15.8826335
11
33.95
21
-15.66506
0
LINE
8
0
10
33.95
20
-15.66506
11
34.0167069
21
-15.6138752
0
LINE
8
0
10
34.0167069
20
-15.6138752
11
34.46777
21
-15.26777
0
LINE
8
0
10
34.46777
20
-15.26777
11
34.5189548
21
-15.2010631
0
LINE
8
0
10
34.5189548
20
-15.2010631
11
34.86506
21
-14.75
0
LINE
8
0
10
34.86506
20
-14.75
11
34.8972365
21
-14.672319
0
LINE
8
0
10
34.8972365
20
-14.672319
11
35.11481
21
-14.14705
0
LINE
8
0
10
35.11481
20
-14.14705
11
35.1210907
21
-14.0993454
0
LINE
8
0
10
35.1210907
20
-14.0993454
11
35.1921927
21
-13.6588963
0
LINE
8
0
10
35.1921927
20
-13.6588963
11
35.2
21
-13.5
0
LINE
8
0
10
35.2
20
-13.5
11
35.2
21
-11.5330928
0
LINE
8
0
10
35.2
20
-11.5330928
11
35.2
21
-11.2484546
0
LINE
8
0
10
35.2
20
-11.2484546
11
35.2
21
-11.2484546
0
LINE
8
0
10
35.2
20
10
11
35.2
21
8.59878442
0
LINE
8
0
10
35.2
20
8.59878442
11
35.2
21
4.25298263
0
LINE
8
0
10
35.2
20
4.25298263
11
34.8015067
21
3.68343242
0
LINE
8
0
10
34.8015067
20
3.68343242
11
34
21
2.5378714
0
LINE
8
0
10
34
20
2.5378714
11
30.360337
21
2.5378714
0
LINE
8
0
10
30.360337
20
2.5378714
11
29.4
21
2.5378714
0
LINE
8
0
10
29.4
20
2.5378714
11
28.5984933
21
3.68343242
0
LINE
8
0
10
28.5984933
20
3.68343242
11
28.2
21
4.25298263
0
LINE
8
0
10
28.2
20
4.25298263
11
28.2
21
8.89286976
0
LINE
8
0
10
28.2
20
8.89286976
11
28.2
21
9.63974317
0
LINE
8
0
10
28.2
20
9.63974317
11
28.2
21
9.74829959
0
LINE
8
0
10
28.2
20
9.74829959
11
28.2
21
10.7990202
0
LINE
8
0
10
28.2
20
10.7990202
11
28.2
21
15
0
LINE
8
0
10
28.2
20
15
11
29.5994059
21
15
0
LINE
8
0
10
29.5994059
20
15
11
30.2
21
15
0
LINE
8
0
10
30.2
20
15
11
30.2
21
13.3636481
0
LINE
8
0
10
30.2
20
13.3636481
11
30.2
21
12.65094
0
LINE
8
0
10
30.2
20
12.65094
11
30.2
21
12.4706171
0
LINE
8
0
10
30.2
20
12.4706171
11
30.2
21
12.39302
0
LINE
8
0
10
30.2
20
12.39302
11
30.2
21
12.2135047
0
LINE
8
0
10
30.2
20
12.2135047
11
30.2
21
12.13557
0
LINE
8
0
10
30.2
20
12.13557
11
30.2
21
11.9692642
0
LINE
8
0
10
30.2
20
11.9692642
11
30.2
21
11.89597
0
LINE
8
0
10
30.2
20
11.89597
11
30.2
21
11.7541692
0
LINE
8
0
10
30.2
20
11.7541692
11
30.2
21
11.69043
0
LINE
8
0
10
30.2
20
11.69043
11
30.2
21
11.5824506
0
LINE
8
0
10
30.2
20
11.5824506
11
30.2
21
11.53281
0
LINE
8
0
10
30.2
20
11.53281
11
30.2
21
10.6016573
0
LINE
8
0
10
30.2
20
10.6016573
11
30.2
21
10
0
LINE
8
0
10
30.2
20
10
11
33.4438328
21
10
0
LINE
8
0
10
33.4438328
20
10
11
35.2
21
10
0
LINE
8
0
10
35.2
20
10
11
35.2
21
10
0
LINE
8
0
10
72
20
18.3680562
11
72
21
16.8232434
0
LINE
8
0
10
72
20
16.8232434
11
72
21
16.8210805
0
LINE
8
0
10
72
20
16.8210805
11
71.9828553
21
16.3265077
0
LINE
8
0
10
71.9828553
20
16.3265077
11
71.9430322
21
15.6896846
0
LINE
8
0
10
71.9430322
20
15.6896846
11
71.8953028
21
15.2310307
0
LINE
8
0
10
71.8953028
20
15.2310307
11
71.8163619
21
14.7812668
0
LINE
8
0
10
71.8163619
20
14.7812668
11
71.690397
21
14.1140466
0
LINE
8
0
10
71.690397
20
14.1140466
11
71.5896092
21
13.7118807
0
LINE
8
0
10
71.5896092
20
13.7118807
11
71.3550153
21
12.9957034
0
LINE
8
0
10
71.3550153
20
12.9957034
11
71.239509
21
12.6469418
0
LINE
8
0
10
71.239509
20
12.6469418
11
71.1006492
21
12.3160301
0
LINE
8
0
10
71.1006492
20
12.3160301
11
70.7548768
21
11.6131016
0
LINE
8
0
10
70.7548768
20
11.6131016
11
70.6128252
21
11.3394872
0
LINE
8
0
10
70.6128252
20
11.3394872
11
70.4526917
21
11.0870852
0
LINE
8
0
10
70.4526917
20
11.0870852
11
69.9912085
21
10.4300748
0
LINE
8
0
10
69.9912085
20
10.4300748
11
69.8388321
21
10.2327652
0
LINE
8
0
10
69.8388321
20
10.2327652
11
69.6736612
21
10.0577476
0
LINE
8
0
10
69.6736612
20
10.0577476
11
69.0984058
21
9.48404139
0
LINE
8
0
10
69.0984058
20
9.48404139
11
68.9490161
21
9.3561068
0
LINE
8
0
10
68.9490161
20
9.3561068
11
68.7915763
21
9.24971011
0
LINE
8
0
10
68.7915763
20
9.24971011
11
68.1130874
21
8.79873787
0
LINE
8
0
10
68.1130874
20
8.79873787
11
67.9742493
21
8.72775824
0
LINE
8
0
10
67.9742493
20
8.72775824
11
67.1955474
21
8.43043327
0
LINE
8
0
10
67.1955474
20
8.43043327
11
67.0700878
21
8.38553085
0
LINE
8
0
10
67.0700878
20
8.38553085
11
66.942152
21
8.35841406
0
LINE
8
0
10
66.942152
20
8.35841406
11
66.1227436
21
8.25630451
0
LINE
8
0
10
66.1227436
20
8.25630451
11
66
21
8.24768861
0
LINE
8
0
10
66
20
8.24768861
11
63.4866543
21
8.24768874
0
LINE
8
0
10
63.4866543
20
8.24768874
11
62.4866863
21
8.24768874
0
LINE
8
0
10
62.4866863
20
8.24768874
11
58.5
21
8.24768874
0
LINE
8
0
10
58.5
20
8.24768874
11
58.4094233
21
8.37714637
0
LINE
8
0
10
58.4094233
20
8.37714637
11
57.3744608
21
9.85637743
0
LINE
8
0
10
57.3744608
20
9.85637743
11
57.3
21
9.96279977
0
LINE
8
0
10
57.3
20
9.96279977
11
57.3
21
10
0
LINE
8
0
10
57.3
20
10
11
57.3509287
21
10
0
LINE
8
0
10
57.3509287
20
10
11
57.5788384
21
10
0
LINE
8
0
10
57.5788384
20
10
11
63.0527806
21
10
0
LINE
8
0
10
63.0527806
20
10
11
63.1
21
10
0
LINE
8
0
10
63.1
20
10
11
63.1
21
11.726088
0
LINE
8
0
10
63.1
20
11.726088
11
63.1
21
23.6301256
0
LINE
8
0
10
63.1
20
23.6301256
11
63.1
21
26.9265422
0
LINE
8
0
10
63.1
20
26.9265422
11
63.1
21
28.8376599
0
LINE
8
0
10
63.1
20
28.8376599
11
63.1510847
21
28.9014225
0
LINE
8
0
10
63.1510847
20
28.9014225
11
63.4154816
21
29.2314304
0
LINE
8
0
10
63.4154816
20
29.2314304
11
63.9
21
29.8361838
0
LINE
8
0
10
63.9
20
29.8361838
11
65.8693578
21
29.836184
0
LINE
8
0
10
65.8693578
20
29.836184
11
66.4671986
21
29.8361801
0
LINE
8
0
10
66.4671986
20
29.8361801
11
66.7361948
21
29.8361795
0
LINE
8
0
10
66.7361948
20
29.8361795
11
72.803076
21
29.836183
0
LINE
8
0
10
72.803076
20
29.836183
11
72.9088184
21
29.836184
0
LINE
8
0
10
72.9088184
20
29.836184
11
74
21
29.8361831
0
LINE
8
0
10
74
20
29.8361831
11
74
21
29.5886225
0
LINE
8
0
10
74
20
29.5886225
11
74
21
29.3533073
0
LINE
8
0
10
74
20
29.3533073
11
74
21
23.4529375
0
LINE
8
0
10
74
20
23.4529375
11
74
21
22.615801
0
LINE
8
0
10
74
20
22.615801
11
74
21
22.6082214
0
LINE
8
0
10
74
20
22.6082214
11
74
21
22.6
0
LINE
8
0
10
74
20
22.6
11
73.9853894
21
22.5851842
0
LINE
8
0
10
73.9853894
20
22.5851842
11
73.68601
21
22.2816
0
LINE
8
0
10
73.68601
20
22.2816
11
73.6487436
21
22.243809
0
LINE
8
0
10
73.6487436
20
22.243809
11
73.44949
21
22.04175
0
LINE
8
0
10
73.44949
20
22.04175
11
73.3963276
21
21.98784
0
LINE
8
0
10
73.3963276
20
21.98784
11
73.15509
21
21.74321
0
LINE
8
0
10
73.15509
20
21.74321
11
72.6835214
21
21.2650114
0
LINE
8
0
10
72.6835214
20
21.2650114
11
72.4566794
21
21.0349773
0
LINE
8
0
10
72.4566794
20
21.0349773
11
72.229046
21
20.804147
0
LINE
8
0
10
72.229046
20
20.804147
11
72
21
20.57188
0
LINE
8
0
10
72
20
20.57188
11
72
21
18.5700275
0
LINE
8
0
10
72
20
18.5700275
11
72
21
18.3680562
0
LINE
8
0
10
72
20
18.3680562
11
72
21
18.3680562
0
LINE
8
0
10
72
20
-6.71457496
11
72
21
-6.26803894
0
LINE
8
0
10
72
20
-6.26803894
11
71.9873717
21
-5.99593756
0
LINE
8
0
10
71.9873717
20
-5.99593756
11
71.9869213
21
-5.98554941
0
LINE
8
0
10
71.9869213
20
-5.98554941
11
71.9849933
21
-5.97091324
0
LINE
8
0
10
71.9849933
20
-5.97091324
11
71.9457789
21
-5.67006845
0
LINE
8
0
10
71.9457789
20
-5.67006845
11
71.9309091
21
-5.60403184
0
LINE
8
0
10
71.9309091
20
-5.60403184
11
71.8739684
21
-5.34858236
0
LINE
8
0
10
71.8739684
20
-5.34858236
11
71.8340404
21
-5.22586616
0
LINE
8
0
10
71.8340404
20
-5.22586616
11
71.7694546
21
-5.02542511
0
LINE
8
0
10
71.7694546
20
-5.02542511
11
71.6906323
21
-4.84406502
0
LINE
8
0
10
71.6906323
20
-4.84406502
11
71.6309812
21
-4.7055108
0
LINE
8
0
10
71.6309812
20
-4.7055108
11
71.4989306
21
-4.46803173
0
LINE
8
0
10
71.4989306
20
-4.46803173
11
71.4582257
21
-4.39416193
0
LINE
8
0
10
71.4582257
20
-4.39416193
11
71.2598457
21
-4.10835826
0
LINE
8
0
10
71.2598457
20
-4.10835826
11
71.2519613
21
-4.0968997
0
LINE
8
0
10
71.2519613
20
-4.0968997
11
71.2041366
21
-4.04096409
0
LINE
8
0
10
71.2041366
20
-4.04096409
11
71.013294
21
-3.8091367
0
LINE
8
0
10
71.013294
20
-3.8091367
11
70.9430292
21
-3.73988435
0
LINE
8
0
10
70.9430292
20
-3.73988435
11
70.7455694
21
-3.54414276
0
LINE
8
0
10
70.7455694
20
-3.54414276
11
70.5820386
21
-3.41299042
0
LINE
8
0
10
70.5820386
20
-3.41299042
11
70.453288
21
-3.30916925
0
LINE
8
0
10
70.453288
20
-3.30916925
11
70.200232
21
-3.1459561
0
LINE
8
0
10
70.200232
20
-3.1459561
11
70.1418143
21
-3.10809016
0
LINE
8
0
10
70.1418143
20
-3.10809016
11
69.8395417
21
-2.95493952
0
LINE
8
0
10
69.8395417
20
-2.95493952
11
69.8171138
21
-2.94308113
0
LINE
8
0
10
69.8171138
20
-2.94308113
11
69.8120386
21
-2.94106449
0
LINE
8
0
10
69.8120386
20
-2.94106449
11
69.4843511
21
-2.81033731
0
LINE
8
0
10
69.4843511
20
-2.81033731
11
69.4249349
21
-2.79383417
0
LINE
8
0
10
69.4249349
20
-2.79383417
11
69.1513951
21
-2.71761974
0
LINE
8
0
10
69.1513951
20
-2.71761974
11
69.0595928
21
-2.70253241
0
LINE
8
0
10
69.0595928
20
-2.70253241
11
68.8243982
21
-2.66379876
0
LINE
8
0
10
68.8243982
20
-2.66379876
11
68.7200754
21
-2.65809973
0
LINE
8
0
10
68.7200754
20
-2.65809973
11
68.5035748
21
-2.63131382
0
LINE
8
0
10
68.5035748
20
-2.63131382
11
59.1570736
21
-2.64901201
0
LINE
8
0
10
59.1570736
20
-2.64901201
11
58.5
21
-2.64730826
0
LINE
8
0
10
58.5
20
-2.64730826
11
58.2973927
21
-2.8836825
0
LINE
8
0
10
58.2973927
20
-2.8836825
11
57.3
21
-4.04050398
0
LINE
8
0
10
57.3
20
-4.04050398
11
57.3
21
-4.36172885
0
LINE
8
0
10
57.3
20
-4.36172885
11
57.3
21
-5.77843682
0
LINE
8
0
10
57.3
20
-5.77843682
11
57.3
21
-6.80612843
0
LINE
8
0
10
57.3
20
-6.80612843
11
57.3
21
-6.87784342
0
LINE
8
0
10
57.3
20
-6.87784342
11
57.3
21
-7.6188518
0
LINE
8
0
10
57.3
20
-7.6188518
11
57.3
21
-7.703114
0
LINE
8
0
10
57.3
20
-7.703114
11
57.3
21
-14.17729
0
LINE
8
0
10
57.3
20
-14.17729
11
57.3
21
-14.3853296
0
LINE
8
0
10
57.3
20
-14.3853296
11
57.3
21
-14.5
0
LINE
8
0
10
57.3
20
-14.5
11
57.312486
21
-14.6134979
0
LINE
8
0
10
57.312486
20
-14.6134979
11
57.3228585
21
-14.6736323
0
LINE
8
0
10
57.3228585
20
-14.6736323
11
57.3361558
21
-14.7746384
0
LINE
8
0
10
57.3361558
20
-14.7746384
11
57.35111
21
-14.88823
0
LINE
8
0
10
57.35111
20
-14.88823
11
57.4255903
21
-15.0680413
0
LINE
8
0
10
57.4255903
20
-15.0680413
11
57.50096
21
-15.25
0
LINE
8
0
10
57.50096
20
-15.25
11
57.6194425
21
-15.404408
0
LINE
8
0
10
57.6194425
20
-15.404408
11
57.73934
21
-15.56066
0
LINE
8
0
10
57.73934
20
-15.56066
11
57.893748
21
-15.6791425
0
LINE
8
0
10
57.893748
20
-15.6791425
11
58.05
21
-15.79904
0
LINE
8
0
10
58.05
20
-15.79904
11
58.2298113
21
-15.8735203
0
LINE
8
0
10
58.2298113
20
-15.8735203
11
58.41177
21
-15.94889
0
LINE
8
0
10
58.41177
20
-15.94889
11
58.4629621
21
-15.9588739
0
LINE
8
0
10
58.4629621
20
-15.9588739
11
58.6384006
21
-15.9909699
0
LINE
8
0
10
58.6384006
20
-15.9909699
11
58.67679
21
-15.99493
0
LINE
8
0
10
58.67679
20
-15.99493
11
58.7154794
21
-15.9973178
0
LINE
8
0
10
58.7154794
20
-15.9973178
11
58.73836
21
-15.99873
0
LINE
8
0
10
58.73836
20
-15.99873
11
58.7771414
21
-15.999529
0
LINE
8
0
10
58.7771414
20
-15.999529
11
58.8
21
-16
0
LINE
8
0
10
58.8
20
-16
11
63.0781829
21
-16
0
LINE
8
0
10
63.0781829
20
-16
11
69.5
21
-16
0
LINE
8
0
10
69.5
20
-16
11
69.9545312
21
-15.9401568
0
LINE
8
0
10
69.9545312
20
-15.9401568
11
70.14705
21
-15.91481
0
LINE
8
0
10
70.14705
20
-15.91481
11
70.5706024
21
-15.7393689
0
LINE
8
0
10
70.5706024
20
-15.7393689
11
70.75
21
-15.66506
0
LINE
8
0
10
70.75
20
-15.66506
11
71.1137163
21
-15.3859769
0
LINE
8
0
10
71.1137163
20
-15.3859769
11
71.26777
21
-15.26777
0
LINE
8
0
10
71.26777
20
-15.26777
11
71.5468531
21
-14.9040537
0
LINE
8
0
10
71.5468531
20
-14.9040537
11
71.66506
21
-14.75
0
LINE
8
0
10
71.66506
20
-14.75
11
71.8405011
21
-14.3264476
0
LINE
8
0
10
71.8405011
20
-14.3264476
11
71.91481
21
-14.14705
0
LINE
8
0
10
71.91481
20
-14.14705
11
71.9401568
21
-13.9545312
0
LINE
8
0
10
71.9401568
20
-13.9545312
11
72
21
-13.5
0
LINE
8
0
10
72
20
-13.5
11
72
21
-8.78612136
0
LINE
8
0
10
72
20
-8.78612136
11
72
21
-8.64678883
0
LINE
8
0
10
72
20
-8.64678883
11
72
21
-7.88081753
0
LINE
8
0
10
72
20
-7.88081753
11
72
21
-6.71457496
0
LINE
8
0
10
72
20
-6.71457496
11
72
21
-6.71457496
0
ENDSEC
0
EOF
