0
SECTION
2
ENTITIES
0
LINE
8
0
10
16
20
40.7636766
11
16
21
39.588842
0
LINE
8
0
10
16
20
39.588842
11
16
21
38.878041
0
LINE
8
0
10
16
20
38.878041
11
16
21
38.0814821
0
LINE
8
0
10
16
20
38.0814821
11
16
21
36.4561583
0
LINE
8
0
10
16
20
36.4561583
11
16
21
35.6238122
0
LINE
8
0
10
16
20
35.6238122
11
16.5178393
21
35.6238122
0
LINE
8
0
10
16.5178393
20
35.6238122
11
17.8
21
35.6238122
0
LINE
8
0
10
17.8
20
35.6238122
11
17.8
21
34.1011351
0
LINE
8
0
10
17.8
20
34.1011351
11
17.8
21
31.4051596
0
LINE
8
0
10
17.8
20
31.4051596
11
17.8
21
30.5473403
0
LINE
8
0
10
17.8
20
30.5473403
11
17.7480824
21
29.727284
0
LINE
8
0
10
17.7480824
20
29.727284
11
17.72314
21
29.3333103
0
LINE
8
0
10
17.72314
20
29.3333103
11
17.5693866
21
28.5447721
0
LINE
8
0
10
17.5693866
20
28.5447721
11
17.49552
21
28.1659403
0
LINE
8
0
10
17.49552
20
28.1659403
11
17.2458346
21
27.4392155
0
LINE
8
0
10
17.2458346
20
27.4392155
11
17.12588
21
27.0900803
0
LINE
8
0
10
17.12588
20
27.0900803
11
16.7898611
21
26.4531069
0
LINE
8
0
10
16.7898611
20
26.4531069
11
16.62843
21
26.1470903
0
LINE
8
0
10
16.62843
20
26.1470903
11
16.4319591
21
25.8700681
0
LINE
8
0
10
16.4319591
20
25.8700681
11
16.33757
21
25.7369771
0
LINE
8
0
10
16.33757
20
25.7369771
11
16.1245971
21
25.4912432
0
LINE
8
0
10
16.1245971
20
25.4912432
11
16.02228
21
25.3731903
0
LINE
8
0
10
16.02228
20
25.3731903
11
15.7948517
21
25.1611225
0
LINE
8
0
10
15.7948517
20
25.1611225
11
15.68559
21
25.0592371
0
LINE
8
0
10
15.68559
20
25.0592371
11
15.4458882
21
24.8828618
0
LINE
8
0
10
15.4458882
20
24.8828618
11
15.33073
21
24.7981303
0
LINE
8
0
10
15.33073
20
24.7981303
11
15.0810783
21
24.6591633
0
LINE
8
0
10
15.0810783
20
24.6591633
11
14.96114
21
24.5924003
0
LINE
8
0
10
14.96114
20
24.5924003
11
14.7039297
21
24.4921722
0
LINE
8
0
10
14.7039297
20
24.4921722
11
14.58036
21
24.4440171
0
LINE
8
0
10
14.58036
20
24.4440171
11
14.3180768
21
24.3834871
0
LINE
8
0
10
14.3180768
20
24.3834871
11
14.19207
21
24.3544103
0
LINE
8
0
10
14.19207
20
24.3544103
11
13.9272335
21
24.3341661
0
LINE
8
0
10
13.9272335
20
24.3341661
11
13.8
21
24.3244403
0
LINE
8
0
10
13.8
20
24.3244403
11
6.09949703
21
24.3244403
0
LINE
8
0
10
6.09949703
20
24.3244403
11
2.4
21
24.3244384
0
LINE
8
0
10
2.4
20
24.3244384
11
2.4
21
26.8354892
0
LINE
8
0
10
2.4
20
26.8354892
11
2.4
21
28.142923
0
LINE
8
0
10
2.4
20
28.142923
11
2.4
21
29.7201493
0
LINE
8
0
10
2.4
20
29.7201493
11
2.4
21
39.2124915
0
LINE
8
0
10
2.4
20
39.2124915
11
2.4
21
39.9114909
0
LINE
8
0
10
2.4
20
39.9114909
11
2.4
21
40.888343
0
LINE
8
0
10
2.4
20
40.888343
11
2.4
21
41.0151221
0
LINE
8
0
10
2.4
20
41.0151221
11
2.4
21
41.2131131
0
LINE
8
0
10
2.4
20
41.2131131
11
12.2717536
21
41.2131131
0
LINE
8
0
10
12.2717536
20
41.2131131
11
16
21
41.2131131
0
LINE
8
0
10
16
20
41.2131131
11
16
21
40.9522047
0
LINE
8
0
10
16
20
40.9522047
11
16
21
40.8804475
0
LINE
8
0
10
16
20
40.8804475
11
16
21
40.7636766
0
LINE
8
0
10
16
20
40.7636766
11
16
21
40.7636766
0
LINE
8
0
10
35.2
20
4.95654083
11
35.2
21
8.48750478
0
LINE
8
0
10
35.2
20
8.48750478
11
35.2
21
10
0
LINE
8
0
10
35.2
20
10
11
33.3043642
21
10
0
LINE
8
0
10
33.3043642
20
10
11
30.2
21
10
0
LINE
8
0
10
30.2
20
10
11
30.2
21
10.6494389
0
LINE
8
0
10
30.2
20
10.6494389
11
30.2
21
11.53281
0
LINE
8
0
10
30.2
20
11.53281
11
30.2
21
11.5880781
0
LINE
8
0
10
30.2
20
11.5880781
11
30.2
21
11.69043
0
LINE
8
0
10
30.2
20
11.69043
11
30.2
21
11.7616494
0
LINE
8
0
10
30.2
20
11.7616494
11
30.2
21
11.89597
0
LINE
8
0
10
30.2
20
11.89597
11
30.2
21
11.9781052
0
LINE
8
0
10
30.2
20
11.9781052
11
30.2
21
12.13557
0
LINE
8
0
10
30.2
20
12.13557
11
30.2
21
12.2230742
0
LINE
8
0
10
30.2
20
12.2230742
11
30.2
21
12.39302
0
LINE
8
0
10
30.2
20
12.39302
11
30.2
21
12.4802059
0
LINE
8
0
10
30.2
20
12.4802059
11
30.2
21
12.65094
0
LINE
8
0
10
30.2
20
12.65094
11
30.2
21
13.4512167
0
LINE
8
0
10
30.2
20
13.4512167
11
30.2
21
15
0
LINE
8
0
10
30.2
20
15
11
29.5245173
21
15
0
LINE
8
0
10
29.5245173
20
15
11
28.2
21
15
0
LINE
8
0
10
28.2
20
15
11
28.2
21
10.2751963
0
LINE
8
0
10
28.2
20
10.2751963
11
28.2
21
9.42148585
0
LINE
8
0
10
28.2
20
9.42148585
11
28.2
21
9.33328376
0
LINE
8
0
10
28.2
20
9.33328376
11
28.2
21
8.72644912
0
LINE
8
0
10
28.2
20
8.72644912
11
28.2
21
4.95654083
0
LINE
8
0
10
28.2
20
4.95654083
11
28.7487758
21
4.17219797
0
LINE
8
0
10
28.7487758
20
4.17219797
11
29.4
21
3.24142964
0
LINE
8
0
10
29.4
20
3.24142964
11
31.0427738
21
3.24142964
0
LINE
8
0
10
31.0427738
20
3.24142964
11
34
21
3.24142964
0
LINE
8
0
10
34
20
3.24142964
11
34.6512242
21
4.17219797
0
LINE
8
0
10
34.6512242
20
4.17219797
11
35.2
21
4.95654083
0
LINE
8
0
10
35.2
20
4.95654083
11
35.2
21
4.95654083
0
LINE
8
0
10
35.2
20
-10.0724071
11
35.2
21
-10.5224297
0
LINE
8
0
10
35.2
20
-10.5224297
11
35.2
21
-11.0696448
0
LINE
8
0
10
35.2
20
-11.0696448
11
35.2
21
-11.3768879
0
LINE
8
0
10
35.2
20
-11.3768879
11
35.2
21
-13.5
0
LINE
8
0
10
35.2
20
-13.5
11
35.1925283
21
-13.6520646
0
LINE
8
0
10
35.1925283
20
-13.6520646
11
35.1244835
21
-14.0735765
0
LINE
8
0
10
35.1244835
20
-14.0735765
11
35.11481
21
-14.14705
0
LINE
8
0
10
35.11481
20
-14.14705
11
34.9146175
21
-14.6303576
0
LINE
8
0
10
34.9146175
20
-14.6303576
11
34.86506
21
-14.75
0
LINE
8
0
10
34.86506
20
-14.75
11
34.5466036
21
-15.1650297
0
LINE
8
0
10
34.5466036
20
-15.1650297
11
34.46777
21
-15.26777
0
LINE
8
0
10
34.46777
20
-15.26777
11
34.0527403
21
-15.5862264
0
LINE
8
0
10
34.0527403
20
-15.5862264
11
33.95
21
-15.66506
0
LINE
8
0
10
33.95
20
-15.66506
11
33.4666924
21
-15.8652525
0
LINE
8
0
10
33.4666924
20
-15.8652525
11
33.34705
21
-15.91481
0
LINE
8
0
10
33.34705
20
-15.91481
11
33.0877215
21
-15.9489529
0
LINE
8
0
10
33.0877215
20
-15.9489529
11
32.8980895
21
-15.9804888
0
LINE
8
0
10
32.8980895
20
-15.9804888
11
32.7
21
-16
0
LINE
8
0
10
32.7
20
-16
11
31.3714667
21
-16
0
LINE
8
0
10
31.3714667
20
-16
11
30.7
21
-16
0
LINE
8
0
10
30.7
20
-16
11
30.389145
21
-15.9693817
0
LINE
8
0
10
30.389145
20
-15.9693817
11
30.0942676
21
-15.9244444
0
LINE
8
0
10
30.0942676
20
-15.9244444
11
29.9692333
21
-15.8863935
0
LINE
8
0
10
29.9692333
20
-15.8863935
11
29.5292911
21
-15.7041635
0
LINE
8
0
10
29.5292911
20
-15.7041635
11
29.4109103
21
-15.6407531
0
LINE
8
0
10
29.4109103
20
-15.6407531
11
29.0388214
21
-15.3552457
0
LINE
8
0
10
29.0388214
20
-15.3552457
11
28.93223
21
-15.26777
0
LINE
8
0
10
28.93223
20
-15.26777
11
28.8386729
21
-15.1537682
0
LINE
8
0
10
28.8386729
20
-15.1537682
11
28.5609368
21
-14.7918073
0
LINE
8
0
10
28.5609368
20
-14.7918073
11
28.4903768
21
-14.659638
0
LINE
8
0
10
28.4903768
20
-14.659638
11
28.3175741
21
-14.2424555
0
LINE
8
0
10
28.3175741
20
-14.2424555
11
28.2735736
21
-14.0972325
0
LINE
8
0
10
28.2735736
20
-14.0972325
11
28.2622303
21
-14.0208705
0
LINE
8
0
10
28.2622303
20
-14.0208705
11
28.21204
21
-13.74504
0
LINE
8
0
10
28.21204
20
-13.74504
11
28.2041255
21
-13.5839625
0
LINE
8
0
10
28.2041255
20
-13.5839625
11
28.2
21
-13.5
0
LINE
8
0
10
28.2
20
-13.5
11
28.2
21
-11.5799542
0
LINE
8
0
10
28.2
20
-11.5799542
11
28.2
21
-11.2288197
0
LINE
8
0
10
28.2
20
-11.2288197
11
28.2
21
-10.6007579
0
LINE
8
0
10
28.2
20
-10.6007579
11
28.2
21
-10.0724071
0
LINE
8
0
10
28.2
20
-10.0724071
11
28.9977746
21
-9.22203242
0
LINE
8
0
10
28.9977746
20
-9.22203242
11
29.4
21
-8.75277133
0
LINE
8
0
10
29.4
20
-8.75277133
11
32.8244979
21
-8.75277133
0
LINE
8
0
10
32.8244979
20
-8.75277133
11
34
21
-8.75277133
0
LINE
8
0
10
34
20
-8.75277133
11
34.4022254
21
-9.22203242
0
LINE
8
0
10
34.4022254
20
-9.22203242
11
35.2
21
-10.0724071
0
LINE
8
0
10
35.2
20
-10.0724071
11
35.2
21
-10.0724071
0
LINE
8
0
10
72
20
-8.41176161
11
72
21
-13.5
0
LINE
8
0
10
72
20
-13.5
11
71.9354043
21
-13.9906285
0
LINE
8
0
10
71.9354043
20
-13.9906285
11
71.91481
21
-14.14705
0
LINE
8
0
10
71.91481
20
-14.14705
11
71.854434
21
-14.2928106
0
LINE
8
0
10
71.854434
20
-14.2928106
11
71.66506
21
-14.75
0
LINE
8
0
10
71.66506
20
-14.75
11
71.5690169
21
-14.8751687
0
LINE
8
0
10
71.5690169
20
-14.8751687
11
71.26777
21
-15.26777
0
LINE
8
0
10
71.26777
20
-15.26777
11
71.1426013
21
-15.3638131
0
LINE
8
0
10
71.1426013
20
-15.3638131
11
70.75
21
-15.66506
0
LINE
8
0
10
70.75
20
-15.66506
11
70.6042394
21
-15.725436
0
LINE
8
0
10
70.6042394
20
-15.725436
11
70.14705
21
-15.91481
0
LINE
8
0
10
70.14705
20
-15.91481
11
69.9906285
21
-15.9354043
0
LINE
8
0
10
69.9906285
20
-15.9354043
11
69.5
21
-16
0
LINE
8
0
10
69.5
20
-16
11
63.3542891
21
-16
0
LINE
8
0
10
63.3542891
20
-16
11
58.8
21
-16
0
LINE
8
0
10
58.8
20
-16
11
58.7756661
21
-15.9994986
0
LINE
8
0
10
58.7756661
20
-15.9994986
11
58.73836
21
-15.99873
0
LINE
8
0
10
58.73836
20
-15.99873
11
58.7140147
21
-15.9972274
0
LINE
8
0
10
58.7140147
20
-15.9972274
11
58.67679
21
-15.99493
0
LINE
8
0
10
58.67679
20
-15.99493
11
58.639854
21
-15.9911198
0
LINE
8
0
10
58.639854
20
-15.9911198
11
58.4533635
21
-15.9570019
0
LINE
8
0
10
58.4533635
20
-15.9570019
11
58.41177
21
-15.94889
0
LINE
8
0
10
58.41177
20
-15.94889
11
58.2639286
21
-15.8876521
0
LINE
8
0
10
58.2639286
20
-15.8876521
11
58.05
21
-15.79904
0
LINE
8
0
10
58.05
20
-15.79904
11
57.9230453
21
-15.7016233
0
LINE
8
0
10
57.9230453
20
-15.7016233
11
57.73934
21
-15.56066
0
LINE
8
0
10
57.73934
20
-15.56066
11
57.6419233
21
-15.4337053
0
LINE
8
0
10
57.6419233
20
-15.4337053
11
57.50096
21
-15.25
0
LINE
8
0
10
57.50096
20
-15.25
11
57.4397221
21
-15.1021586
0
LINE
8
0
10
57.4397221
20
-15.1021586
11
57.35111
21
-14.88823
0
LINE
8
0
10
57.35111
20
-14.88823
11
57.3389597
21
-14.7959368
0
LINE
8
0
10
57.3389597
20
-14.7959368
11
57.3246312
21
-14.6870976
0
LINE
8
0
10
57.3246312
20
-14.6870976
11
57.3134543
21
-14.6222997
0
LINE
8
0
10
57.3134543
20
-14.6222997
11
57.3
21
-14.5
0
LINE
8
0
10
57.3
20
-14.5
11
57.3
21
-14.3764368
0
LINE
8
0
10
57.3
20
-14.3764368
11
57.3
21
-14.17729
0
LINE
8
0
10
57.3
20
-14.17729
11
57.3
21
-7.19443925
0
LINE
8
0
10
57.3
20
-7.19443925
11
57.3
21
-7.12597621
0
LINE
8
0
10
57.3
20
-7.12597621
11
57.3
21
-6.32627838
0
LINE
8
0
10
57.3
20
-6.32627838
11
57.3
21
-6.27452456
0
LINE
8
0
10
57.3
20
-6.27452456
11
57.3
21
-5.16521727
0
LINE
8
0
10
57.3
20
-5.16521727
11
57.3
21
-4.36258952
0
LINE
8
0
10
57.3
20
-4.36258952
11
58.0977746
21
-3.51221442
0
LINE
8
0
10
58.0977746
20
-3.51221442
11
58.5
21
-3.04295333
0
LINE
8
0
10
58.5
20
-3.04295333
11
65.3226166
21
-3.06064396
0
LINE
8
0
10
65.3226166
20
-3.06064396
11
68.6743915
21
-3.0539008
0
LINE
8
0
10
68.6743915
20
-3.0539008
11
68.7353128
21
-3.0606562
0
LINE
8
0
10
68.7353128
20
-3.0606562
11
68.9756179
21
-3.07258433
0
LINE
8
0
10
68.9756179
20
-3.07258433
11
69.0412961
21
-3.082475
0
LINE
8
0
10
69.0412961
20
-3.082475
11
69.2848423
21
-3.11906588
0
LINE
8
0
10
69.2848423
20
-3.11906588
11
69.3630979
21
-3.139116
0
LINE
8
0
10
69.3630979
20
-3.139116
11
69.5989139
21
-3.19931263
0
LINE
8
0
10
69.5989139
20
-3.19931263
11
69.6964563
21
-3.23527621
0
LINE
8
0
10
69.6964563
20
-3.23527621
11
69.9125589
21
-3.31457169
0
LINE
8
0
10
69.9125589
20
-3.31457169
11
70.0351947
21
-3.37476695
0
LINE
8
0
10
70.0351947
20
-3.37476695
11
70.2200665
21
-3.46499385
0
LINE
8
0
10
70.2200665
20
-3.46499385
11
70.3713427
21
-3.5597614
0
LINE
8
0
10
70.3713427
20
-3.5597614
11
70.5155998
21
-3.64954302
0
LINE
8
0
10
70.5155998
20
-3.64954302
11
70.6956063
21
-3.7900781
0
LINE
8
0
10
70.6956063
20
-3.7900781
11
70.7935607
21
-3.86600273
0
LINE
8
0
10
70.7935607
20
-3.86600273
11
70.9982282
21
-4.06272321
0
LINE
8
0
10
70.9982282
20
-4.06272321
11
71.0489202
21
-4.11106967
0
LINE
8
0
10
71.0489202
20
-4.11106967
11
71.2700763
21
-4.37187641
0
LINE
8
0
10
71.2700763
20
-4.37187641
11
71.2774823
21
-4.3805384
0
LINE
8
0
10
71.2774823
20
-4.3805384
11
71.3143452
21
-4.43411252
0
LINE
8
0
10
71.3143452
20
-4.43411252
11
71.4756426
21
-4.66098945
0
LINE
8
0
10
71.4756426
20
-4.66098945
11
71.4951137
21
-4.6954684
0
LINE
8
0
10
71.4951137
20
-4.6954684
11
71.6420688
21
-4.95367718
0
LINE
8
0
10
71.6420688
20
-4.95367718
11
71.6768821
21
-5.03262922
0
LINE
8
0
10
71.6768821
20
-5.03262922
11
71.7759139
21
-5.25540614
0
LINE
8
0
10
71.7759139
20
-5.25540614
11
71.8162677
21
-5.37774908
0
LINE
8
0
10
71.8162677
20
-5.37774908
11
71.8772588
21
-5.56110731
0
LINE
8
0
10
71.8772588
20
-5.56110731
11
71.9141607
21
-5.72289662
0
LINE
8
0
10
71.9141607
20
-5.72289662
11
71.9470958
21
-5.86604718
0
LINE
8
0
10
71.9470958
20
-5.86604718
11
71.9731317
21
-6.06129009
0
LINE
8
0
10
71.9731317
20
-6.06129009
11
71.987219
21
-6.1660073
0
LINE
8
0
10
71.987219
20
-6.1660073
11
71.9936801
21
-6.31796929
0
LINE
8
0
10
71.9936801
20
-6.31796929
11
72
21
-6.45035569
0
LINE
8
0
10
72
20
-6.45035569
11
72
21
-7.43456171
0
LINE
8
0
10
72
20
-7.43456171
11
72
21
-8.26136378
0
LINE
8
0
10
72
20
-8.26136378
11
72
21
-8.41176161
0
LINE
8
0
10
72
20
-8.41176161
11
72
21
-8.41176161
0
LINE
8
0
10
72
20
17.5268018
11
72
21
17.5243554
0
LINE
8
0
10
72
20
17.5243554
11
71.980608
21
16.9649569
0
LINE
8
0
10
71.980608
20
16.9649569
11
71.9482518
21
16.4475381
0
LINE
8
0
10
71.9482518
20
16.4475381
11
71.8932341
21
15.9188481
0
LINE
8
0
10
71.8932341
20
15.9188481
11
71.8022391
21
15.4004055
0
LINE
8
0
10
71.8022391
20
15.4004055
11
71.6998926
21
14.8582891
0
LINE
8
0
10
71.6998926
20
14.8582891
11
71.5807838
21
14.383018
0
LINE
8
0
10
71.5807838
20
14.383018
11
71.3901762
21
13.801124
0
LINE
8
0
10
71.3901762
20
13.801124
11
71.2491054
21
13.3751727
0
LINE
8
0
10
71.2491054
20
13.3751727
11
71.0795125
21
12.971022
0
LINE
8
0
10
71.0795125
20
12.971022
11
70.7985724
21
12.3998925
0
LINE
8
0
10
70.7985724
20
12.3998925
11
70.6173861
21
12.0508984
0
LINE
8
0
10
70.6173861
20
12.0508984
11
70.4131364
21
11.7289605
0
LINE
8
0
10
70.4131364
20
11.7289605
11
70.0381812
21
11.1951395
0
LINE
8
0
10
70.0381812
20
11.1951395
11
69.8325805
21
10.9289105
0
LINE
8
0
10
69.8325805
20
10.9289105
11
69.6097159
21
10.6927599
0
LINE
8
0
10
69.6097159
20
10.6927599
11
69.1423209
21
10.2266236
0
LINE
8
0
10
69.1423209
20
10.2266236
11
68.9262637
21
10.0415961
0
LINE
8
0
10
68.9262637
20
10.0415961
11
68.6985639
21
9.88771821
0
LINE
8
0
10
68.6985639
20
9.88771821
11
68.1472917
21
9.52130327
0
LINE
8
0
10
68.1472917
20
9.52130327
11
67.9305619
21
9.41050232
0
LINE
8
0
10
67.9305619
20
9.41050232
11
67.2978666
21
9.16892578
0
LINE
8
0
10
67.2978666
20
9.16892578
11
67.0888644
21
9.09412319
0
LINE
8
0
10
67.0888644
20
9.09412319
11
66.8757372
21
9.04894955
0
LINE
8
0
10
66.8757372
20
9.04894955
11
66.2099679
21
8.96598554
0
LINE
8
0
10
66.2099679
20
8.96598554
11
66
21
8.951247
0
LINE
8
0
10
66
20
8.951247
11
63.5440602
21
8.95124712
0
LINE
8
0
10
63.5440602
20
8.95124712
11
63.1
21
8.95124712
0
LINE
8
0
10
63.1
20
8.95124712
11
63.1
21
10.3062484
0
LINE
8
0
10
63.1
20
10.3062484
11
63.1
21
21.4494771
0
LINE
8
0
10
63.1
20
21.4494771
11
63.1
21
26.349935
0
LINE
8
0
10
63.1
20
26.349935
11
63.1
21
29.1910055
0
LINE
8
0
10
63.1
20
29.1910055
11
63.1759425
21
29.2857952
0
LINE
8
0
10
63.1759425
20
29.2857952
11
63.5689955
21
29.7763854
0
LINE
8
0
10
63.5689955
20
29.7763854
11
63.9
21
30.1895299
0
LINE
8
0
10
63.9
20
30.1895299
11
66.7015491
21
30.1895302
0
LINE
8
0
10
66.7015491
20
30.1895302
11
67.5520193
21
30.1895247
0
LINE
8
0
10
67.5520193
20
30.1895247
11
67.9346852
21
30.1895238
0
LINE
8
0
10
67.9346852
20
30.1895238
11
70.9524723
21
30.1895255
0
LINE
8
0
10
70.9524723
20
30.1895255
11
71.2217066
21
30.189528
0
LINE
8
0
10
71.2217066
20
30.189528
11
74
21
30.1895256
0
LINE
8
0
10
74
20
30.1895256
11
74
21
29.5592033
0
LINE
8
0
10
74
20
29.5592033
11
74
21
28.9600597
0
LINE
8
0
10
74
20
28.9600597
11
74
21
24.7716923
0
LINE
8
0
10
74
20
24.7716923
11
74
21
22.6402315
0
LINE
8
0
10
74
20
22.6402315
11
74
21
22.6209328
0
LINE
8
0
10
74
20
22.6209328
11
74
21
22.6
0
LINE
8
0
10
74
20
22.6
11
73.9627995
21
22.562277
0
LINE
8
0
10
73.9627995
20
22.562277
11
73.68601
21
22.2816
0
LINE
8
0
10
73.68601
20
22.2816
11
73.6343336
21
22.229196
0
LINE
8
0
10
73.6343336
20
22.229196
11
73.44949
21
22.04175
0
LINE
8
0
10
73.44949
20
22.04175
11
73.3795079
21
21.9707838
0
LINE
8
0
10
73.3795079
20
21.9707838
11
73.15509
21
21.74321
0
LINE
8
0
10
73.15509
20
21.74321
11
72.5552355
21
21.1349218
0
LINE
8
0
10
72.5552355
20
21.1349218
11
72.370968
21
20.9480614
0
LINE
8
0
10
72.370968
20
20.9480614
11
72.1860577
21
20.7605542
0
LINE
8
0
10
72.1860577
20
20.7605542
11
72
21
20.57188
0
LINE
8
0
10
72
20
20.57188
11
72
21
18.9457428
0
LINE
8
0
10
72
20
18.9457428
11
72
21
18.7816782
0
LINE
8
0
10
72
20
18.7816782
11
72
21
17.5268018
0
LINE
8
0
10
72
20
17.5268018
11
72
21
17.5268018
0
ENDSEC
0
EOF
