0
SECTION
2
ENTITIES
0
LINE
8
0
10
16
20
36.8948752
11
16
21
35.5594637
0
LINE
8
0
10
16
20
35.5594637
11
16.8308185
21
35.5594637
0
LINE
8
0
10
16.8308185
20
35.5594637
11
17.8
21
35.5594637
0
LINE
8
0
10
17.8
20
35.5594637
11
17.8
21
34.4084766
0
LINE
8
0
10
17.8
20
34.4084766
11
17.8
21
31.6128696
0
LINE
8
0
10
17.8
20
31.6128696
11
17.8
21
30.8210364
0
LINE
8
0
10
17.8
20
30.8210364
11
17.7461638
21
29.9706745
0
LINE
8
0
10
17.7461638
20
29.9706745
11
17.72314
21
29.6070064
0
LINE
8
0
10
17.72314
20
29.6070064
11
17.5637046
21
28.7893273
0
LINE
8
0
10
17.5637046
20
28.7893273
11
17.49552
21
28.4396364
0
LINE
8
0
10
17.49552
20
28.4396364
11
17.2366073
21
27.6860551
0
LINE
8
0
10
17.2366073
20
27.6860551
11
17.12588
21
27.3637764
0
LINE
8
0
10
17.12588
20
27.3637764
11
16.7774433
21
26.7032633
0
LINE
8
0
10
16.7774433
20
26.7032633
11
16.62843
21
26.4207864
0
LINE
8
0
10
16.62843
20
26.4207864
11
16.4246984
21
26.1335267
0
LINE
8
0
10
16.4246984
20
26.1335267
11
16.33757
21
26.0106735
0
LINE
8
0
10
16.33757
20
26.0106735
11
16.1167265
21
25.7558584
0
LINE
8
0
10
16.1167265
20
25.7558584
11
16.02228
21
25.6468864
0
LINE
8
0
10
16.02228
20
25.6468864
11
15.786447
21
25.4269816
0
LINE
8
0
10
15.786447
20
25.4269816
11
15.68559
21
25.3329335
0
LINE
8
0
10
15.68559
20
25.3329335
11
15.4370299
21
25.1500401
0
LINE
8
0
10
15.4370299
20
25.1500401
11
15.33073
21
25.0718264
0
LINE
8
0
10
15.33073
20
25.0718264
11
15.0718523
21
24.9277238
0
LINE
8
0
10
15.0718523
20
24.9277238
11
14.96114
21
24.8660964
0
LINE
8
0
10
14.96114
20
24.8660964
11
14.6944243
21
24.7621643
0
LINE
8
0
10
14.6944243
20
24.7621643
11
14.58036
21
24.7177135
0
LINE
8
0
10
14.58036
20
24.7177135
11
14.308384
21
24.6549465
0
LINE
8
0
10
14.308384
20
24.6549465
11
14.19207
21
24.6281064
0
LINE
8
0
10
14.19207
20
24.6281064
11
13.9174463
21
24.6071141
0
LINE
8
0
10
13.9174463
20
24.6071141
11
13.8
21
24.5981364
0
LINE
8
0
10
13.8
20
24.5981364
11
5.81492033
21
24.5981364
0
LINE
8
0
10
5.81492033
20
24.5981364
11
2.4
21
24.5981347
0
LINE
8
0
10
2.4
20
24.5981347
11
2.4
21
26.9160277
0
LINE
8
0
10
2.4
20
26.9160277
11
2.4
21
28.1228897
0
LINE
8
0
10
2.4
20
28.1228897
11
2.4
21
29.5787909
0
LINE
8
0
10
2.4
20
29.5787909
11
2.4
21
39.3362923
0
LINE
8
0
10
2.4
20
39.3362923
11
2.4
21
40.0548175
0
LINE
8
0
10
2.4
20
40.0548175
11
2.4
21
41.0309173
0
LINE
8
0
10
2.4
20
41.0309173
11
2.74534175
21
41.0309173
0
LINE
8
0
10
2.74534175
20
41.0309173
11
16
21
41.0309173
0
LINE
8
0
10
16
20
41.0309173
11
16
21
39.8012817
0
LINE
8
0
10
16
20
39.8012817
11
16
21
39.242738
0
LINE
8
0
10
16
20
39.242738
11
16
21
38.3345027
0
LINE
8
0
10
16
20
38.3345027
11
16
21
36.8948752
0
LINE
8
0
10
16
20
36.8948752
11
16
21
36.8948752
0
LINE
8
0
10
35.2
20
-10.4494062
11
35.2
21
-11.0100415
0
LINE
8
0
10
35.2
20
-11.0100415
11
35.2
21
-11.3248196
0
LINE
8
0
10
35.2
20
-11.3248196
11
35.2
21
-13.5
0
LINE
8
0
10
35.2
20
-13.5
11
35.1926402
21
-13.6497873
0
LINE
8
0
10
35.1926402
20
-13.6497873
11
35.1256144
21
-14.0649869
0
LINE
8
0
10
35.1256144
20
-14.0649869
11
35.11481
21
-14.14705
0
LINE
8
0
10
35.11481
20
-14.14705
11
34.9204111
21
-14.6163705
0
LINE
8
0
10
34.9204111
20
-14.6163705
11
34.86506
21
-14.75
0
LINE
8
0
10
34.86506
20
-14.75
11
34.5558199
21
-15.1530186
0
LINE
8
0
10
34.5558199
20
-15.1530186
11
34.46777
21
-15.26777
0
LINE
8
0
10
34.46777
20
-15.26777
11
34.0647514
21
-15.5770101
0
LINE
8
0
10
34.0647514
20
-15.5770101
11
33.95
21
-15.66506
0
LINE
8
0
10
33.95
20
-15.66506
11
33.4806795
21
-15.8594589
0
LINE
8
0
10
33.4806795
20
-15.8594589
11
33.34705
21
-15.91481
0
LINE
8
0
10
33.34705
20
-15.91481
11
33.0952266
21
-15.9479648
0
LINE
8
0
10
33.0952266
20
-15.9479648
11
32.9019239
21
-15.9801111
0
LINE
8
0
10
32.9019239
20
-15.9801111
11
32.7
21
-16
0
LINE
8
0
10
32.7
20
-16
11
31.3885735
21
-16
0
LINE
8
0
10
31.3885735
20
-16
11
30.7
21
-16
0
LINE
8
0
10
30.7
20
-16
11
30.393909
21
-15.9698509
0
LINE
8
0
10
30.393909
20
-15.9698509
11
30.0910893
21
-15.9237033
0
LINE
8
0
10
30.0910893
20
-15.9237033
11
29.975673
21
-15.8885793
0
LINE
8
0
10
29.975673
20
-15.8885793
11
29.5231918
21
-15.7011555
0
LINE
8
0
10
29.5231918
20
-15.7011555
11
29.4139172
21
-15.6426228
0
LINE
8
0
10
29.4139172
20
-15.6426228
11
29.0306221
21
-15.3485168
0
LINE
8
0
10
29.0306221
20
-15.3485168
11
28.93223
21
-15.26777
0
LINE
8
0
10
28.93223
20
-15.26777
11
28.8458696
21
-15.1625376
0
LINE
8
0
10
28.8458696
20
-15.1625376
11
28.558937
21
-14.7885913
0
LINE
8
0
10
28.558937
20
-14.7885913
11
28.4938047
21
-14.666589
0
LINE
8
0
10
28.4938047
20
-14.666589
11
28.3150831
21
-14.2351166
0
LINE
8
0
10
28.3150831
20
-14.2351166
11
28.2744672
21
-14.1010646
0
LINE
8
0
10
28.2744672
20
-14.1010646
11
28.2639964
21
-14.0305766
0
LINE
8
0
10
28.2639964
20
-14.0305766
11
28.21204
21
-13.74504
0
LINE
8
0
10
28.21204
20
-13.74504
11
28.2042709
21
-13.5869225
0
LINE
8
0
10
28.2042709
20
-13.5869225
11
28.2
21
-13.5
0
LINE
8
0
10
28.2
20
-13.5
11
28.2
21
-11.5122654
0
LINE
8
0
10
28.2
20
-11.5122654
11
28.2
21
-11.1487521
0
LINE
8
0
10
28.2
20
-11.1487521
11
28.2
21
-10.4985487
0
LINE
8
0
10
28.2
20
-10.4985487
11
28.2
21
-10.1670653
0
LINE
8
0
10
28.2
20
-10.1670653
11
29.3673167
21
-8.92278341
0
LINE
8
0
10
29.3673167
20
-8.92278341
11
29.4
21
-8.88465302
0
LINE
8
0
10
29.4
20
-8.88465302
11
33.9044831
21
-8.88465302
0
LINE
8
0
10
33.9044831
20
-8.88465302
11
34
21
-8.88465302
0
LINE
8
0
10
34
20
-8.88465302
11
34.0326833
21
-8.92278341
0
LINE
8
0
10
34.0326833
20
-8.92278341
11
35.2
21
-10.1670653
0
LINE
8
0
10
35.2
20
-10.1670653
11
35.2
21
-10.4494062
0
LINE
8
0
10
35.2
20
-10.4494062
11
35.2
21
-10.4494062
0
LINE
8
0
10
35.2
20
10
11
35.2
21
8.45041156
0
LINE
8
0
10
35.2
20
8.45041156
11
35.2
21
5.19106022
0
LINE
8
0
10
35.2
20
5.19106022
11
34.60113
21
4.33511982
0
LINE
8
0
10
34.60113
20
4.33511982
11
34
21
3.47594905
0
LINE
8
0
10
34
20
3.47594905
11
31.2702527
21
3.47594905
0
LINE
8
0
10
31.2702527
20
3.47594905
11
29.4
21
3.47594905
0
LINE
8
0
10
29.4
20
3.47594905
11
28.79887
21
4.33511982
0
LINE
8
0
10
28.79887
20
4.33511982
11
28.2
21
5.19106022
0
LINE
8
0
10
28.2
20
5.19106022
11
28.2
21
8.67097557
0
LINE
8
0
10
28.2
20
8.67097557
11
28.2
21
9.23113063
0
LINE
8
0
10
28.2
20
9.23113063
11
28.2
21
9.31254794
0
LINE
8
0
10
28.2
20
9.31254794
11
28.2
21
10.1005884
0
LINE
8
0
10
28.2
20
10.1005884
11
28.2
21
15
0
LINE
8
0
10
28.2
20
15
11
29.4995544
21
15
0
LINE
8
0
10
29.4995544
20
15
11
30.2
21
15
0
LINE
8
0
10
30.2
20
15
11
30.2
21
13.4804063
0
LINE
8
0
10
30.2
20
13.4804063
11
30.2
21
12.65094
0
LINE
8
0
10
30.2
20
12.65094
11
30.2
21
12.4834022
0
LINE
8
0
10
30.2
20
12.4834022
11
30.2
21
12.39302
0
LINE
8
0
10
30.2
20
12.39302
11
30.2
21
12.226264
0
LINE
8
0
10
30.2
20
12.226264
11
30.2
21
12.13557
0
LINE
8
0
10
30.2
20
12.13557
11
30.2
21
11.9810522
0
LINE
8
0
10
30.2
20
11.9810522
11
30.2
21
11.89597
0
LINE
8
0
10
30.2
20
11.89597
11
30.2
21
11.7641428
0
LINE
8
0
10
30.2
20
11.7641428
11
30.2
21
11.69043
0
LINE
8
0
10
30.2
20
11.69043
11
30.2
21
11.5899539
0
LINE
8
0
10
30.2
20
11.5899539
11
30.2
21
11.53281
0
LINE
8
0
10
30.2
20
11.53281
11
30.2
21
10.665366
0
LINE
8
0
10
30.2
20
10.665366
11
30.2
21
10
0
LINE
8
0
10
30.2
20
10
11
33.2578746
21
10
0
LINE
8
0
10
33.2578746
20
10
11
35.2
21
10
0
LINE
8
0
10
35.2
20
10
11
35.2
21
10
0
LINE
8
0
10
71.9846415
20
-6.20520937
11
71.987317
21
-6.2250979
0
LINE
8
0
10
71.987317
20
-6.2250979
11
71.9885441
21
-6.25395945
0
LINE
8
0
10
71.9885441
20
-6.25395945
11
72
21
-6.49392978
0
LINE
8
0
10
72
20
-6.49392978
11
72
21
-7.28580977
0
LINE
8
0
10
72
20
-7.28580977
11
72
21
-8.13288876
0
LINE
8
0
10
72
20
-8.13288876
11
72
21
-8.28697502
0
LINE
8
0
10
72
20
-8.28697502
11
72
21
-13.5
0
LINE
8
0
10
72
20
-13.5
11
71.9338201
21
-14.0026609
0
LINE
8
0
10
71.9338201
20
-14.0026609
11
71.91481
21
-14.14705
0
LINE
8
0
10
71.91481
20
-14.14705
11
71.8590783
21
-14.2815982
0
LINE
8
0
10
71.8590783
20
-14.2815982
11
71.66506
21
-14.75
0
LINE
8
0
10
71.66506
20
-14.75
11
71.5764048
21
-14.8655403
0
LINE
8
0
10
71.5764048
20
-14.8655403
11
71.26777
21
-15.26777
0
LINE
8
0
10
71.26777
20
-15.26777
11
71.1522297
21
-15.3564252
0
LINE
8
0
10
71.1522297
20
-15.3564252
11
70.75
21
-15.66506
0
LINE
8
0
10
70.75
20
-15.66506
11
70.6154518
21
-15.7207917
0
LINE
8
0
10
70.6154518
20
-15.7207917
11
70.14705
21
-15.91481
0
LINE
8
0
10
70.14705
20
-15.91481
11
70.0026609
21
-15.9338201
0
LINE
8
0
10
70.0026609
20
-15.9338201
11
69.5
21
-16
0
LINE
8
0
10
69.5
20
-16
11
63.4463245
21
-16
0
LINE
8
0
10
63.4463245
20
-16
11
58.8
21
-16
0
LINE
8
0
10
58.8
20
-16
11
58.7751744
21
-15.9994885
0
LINE
8
0
10
58.7751744
20
-15.9994885
11
58.73836
21
-15.99873
0
LINE
8
0
10
58.73836
20
-15.99873
11
58.7135265
21
-15.9971973
0
LINE
8
0
10
58.7135265
20
-15.9971973
11
58.67679
21
-15.99493
0
LINE
8
0
10
58.67679
20
-15.99493
11
58.6403384
21
-15.9911698
0
LINE
8
0
10
58.6403384
20
-15.9911698
11
58.450164
21
-15.9563779
0
LINE
8
0
10
58.450164
20
-15.9563779
11
58.41177
21
-15.94889
0
LINE
8
0
10
58.41177
20
-15.94889
11
58.275301
21
-15.8923627
0
LINE
8
0
10
58.275301
20
-15.8923627
11
58.05
21
-15.79904
0
LINE
8
0
10
58.05
20
-15.79904
11
57.932811
21
-15.7091169
0
LINE
8
0
10
57.932811
20
-15.7091169
11
57.73934
21
-15.56066
0
LINE
8
0
10
57.73934
20
-15.56066
11
57.6494169
21
-15.443471
0
LINE
8
0
10
57.6494169
20
-15.443471
11
57.50096
21
-15.25
0
LINE
8
0
10
57.50096
20
-15.25
11
57.4444327
21
-15.113531
0
LINE
8
0
10
57.4444327
20
-15.113531
11
57.35111
21
-14.88823
0
LINE
8
0
10
57.35111
20
-14.88823
11
57.3398944
21
-14.8030363
0
LINE
8
0
10
57.3398944
20
-14.8030363
11
57.3252221
21
-14.691586
0
LINE
8
0
10
57.3252221
20
-14.691586
11
57.313777
21
-14.6252337
0
LINE
8
0
10
57.313777
20
-14.6252337
11
57.3
21
-14.5
0
LINE
8
0
10
57.3
20
-14.5
11
57.3
21
-14.3734725
0
LINE
8
0
10
57.3
20
-14.3734725
11
57.3
21
-14.17729
0
LINE
8
0
10
57.3
20
-14.17729
11
57.3
21
-7.024881
0
LINE
8
0
10
57.3
20
-7.024881
11
57.3
21
-6.96168435
0
LINE
8
0
10
57.3
20
-6.96168435
11
57.3
21
-6.14242337
0
LINE
8
0
10
57.3
20
-6.14242337
11
57.3
21
-6.09732327
0
LINE
8
0
10
57.3
20
-6.09732327
11
57.3
21
-4.96081076
0
LINE
8
0
10
57.3
20
-4.96081076
11
57.3
21
-4.45724798
0
LINE
8
0
10
57.3
20
-4.45724798
11
58.4673167
21
-3.21296541
0
LINE
8
0
10
58.4673167
20
-3.21296541
11
58.5
21
-3.17483502
0
LINE
8
0
10
58.5
20
-3.17483502
11
59.0543801
21
-3.17627249
0
LINE
8
0
10
59.0543801
20
-3.17627249
11
68.7181216
21
-3.15683079
0
LINE
8
0
10
68.7181216
20
-3.15683079
11
68.8937682
21
-3.17630777
0
LINE
8
0
10
68.8937682
20
-3.17630777
11
69.0177088
21
-3.18245986
0
LINE
8
0
10
69.0177088
20
-3.18245986
11
69.2008334
21
-3.21003717
0
LINE
8
0
10
69.2008334
20
-3.21003717
11
69.322396
21
-3.22830097
0
LINE
8
0
10
69.322396
20
-3.22830097
11
69.5215282
21
-3.27932128
0
LINE
8
0
10
69.5215282
20
-3.27932128
11
69.6317639
21
-3.3074611
0
LINE
8
0
10
69.6317639
20
-3.3074611
11
69.8512162
21
-3.3883725
0
LINE
8
0
10
69.8512162
20
-3.3883725
11
69.9406819
21
-3.42120053
0
LINE
8
0
10
69.9406819
20
-3.42120053
11
70.1834921
21
-3.54038294
0
LINE
8
0
10
70.1834921
20
-3.54038294
11
70.2435785
21
-3.56970818
0
LINE
8
0
10
70.2435785
20
-3.56970818
11
70.5103486
21
-3.73682735
0
LINE
8
0
10
70.5103486
20
-3.73682735
11
70.5347437
21
-3.75201019
0
LINE
8
0
10
70.5347437
20
-3.75201019
11
70.7046849
21
-3.88468712
0
LINE
8
0
10
70.7046849
20
-3.88468712
11
70.8082886
21
-3.96281576
0
LINE
8
0
10
70.8082886
20
-3.96281576
11
70.8192111
21
-3.9730323
0
LINE
8
0
10
70.8192111
20
-3.9730323
11
71.0592616
21
-4.19607559
0
LINE
8
0
10
71.0592616
20
-4.19607559
11
71.0976089
21
-4.24013028
0
LINE
8
0
10
71.0976089
20
-4.24013028
11
71.2843501
21
-4.45315516
0
LINE
8
0
10
71.2843501
20
-4.45315516
11
71.343943
21
-4.53760659
0
LINE
8
0
10
71.343943
20
-4.53760659
11
71.4803617
21
-4.72948973
0
LINE
8
0
10
71.4803617
20
-4.72948973
11
71.5528645
21
-4.85787625
0
LINE
8
0
10
71.5528645
20
-4.85787625
11
71.6451848
21
-5.02008839
0
LINE
8
0
10
71.6451848
20
-5.02008839
11
71.721262
21
-5.19262205
0
LINE
8
0
10
71.721262
20
-5.19262205
11
71.7778002
21
-5.31980745
0
LINE
8
0
10
71.7778002
20
-5.31980745
11
71.848314
21
-5.53358844
0
LINE
8
0
10
71.848314
20
-5.53358844
11
71.8782571
21
-5.62360672
0
LINE
8
0
10
71.8782571
20
-5.62360672
11
71.9351959
21
-5.87324299
0
LINE
8
0
10
71.9351959
20
-5.87324299
11
71.9475116
21
-5.92677289
0
LINE
8
0
10
71.9475116
20
-5.92677289
11
71.9846415
21
-6.20520937
0
LINE
8
0
10
71.9846415
20
-6.20520937
11
71.9846415
21
-6.20520937
0
LINE
8
0
10
72
20
17.7613213
11
72
21
17.7587804
0
LINE
8
0
10
72
20
17.7587804
11
71.9798589
21
17.1777733
0
LINE
8
0
10
71.9798589
20
17.1777733
11
71.9499916
21
16.700156
0
LINE
8
0
10
71.9499916
20
16.700156
11
71.8925446
21
16.1481205
0
LINE
8
0
10
71.8925446
20
16.1481205
11
71.7975315
21
15.6067851
0
LINE
8
0
10
71.7975315
20
15.6067851
11
71.7030577
21
15.10637
0
LINE
8
0
10
71.7030577
20
15.10637
11
71.5778419
21
14.6067305
0
LINE
8
0
10
71.5778419
20
14.6067305
11
71.4018965
21
14.0695976
0
LINE
8
0
10
71.4018965
20
14.0695976
11
71.2523043
21
13.6179164
0
LINE
8
0
10
71.2523043
20
13.6179164
11
71.0724669
21
13.1893526
0
LINE
8
0
10
71.0724669
20
13.1893526
11
70.8131376
21
12.6621562
0
LINE
8
0
10
70.8131376
20
12.6621562
11
70.6189064
21
12.2880354
0
LINE
8
0
10
70.6189064
20
12.2880354
11
70.3999513
21
11.9429189
0
LINE
8
0
10
70.3999513
20
11.9429189
11
70.0538388
21
11.4501611
0
LINE
8
0
10
70.0538388
20
11.4501611
11
69.8304966
21
11.1609589
0
LINE
8
0
10
69.8304966
20
11.1609589
11
69.5884009
21
10.9044307
0
LINE
8
0
10
69.5884009
20
10.9044307
11
69.1569593
21
10.474151
0
LINE
8
0
10
69.1569593
20
10.474151
11
68.9186796
21
10.2700926
0
LINE
8
0
10
68.9186796
20
10.2700926
11
68.6675598
21
10.1003876
0
LINE
8
0
10
68.6675598
20
10.1003876
11
68.1586931
21
9.7621584
0
LINE
8
0
10
68.1586931
20
9.7621584
11
67.9159995
21
9.63808368
0
LINE
8
0
10
67.9159995
20
9.63808368
11
67.331973
21
9.41508995
0
LINE
8
0
10
67.331973
20
9.41508995
11
67.0951233
21
9.33032063
0
LINE
8
0
10
67.0951233
20
9.33032063
11
66.853599
21
9.27912805
0
LINE
8
0
10
66.853599
20
9.27912805
11
66.2390427
21
9.20254588
0
LINE
8
0
10
66.2390427
20
9.20254588
11
66
21
9.18576646
0
LINE
8
0
10
66
20
9.18576646
11
63.7329786
21
9.18576657
0
LINE
8
0
10
63.7329786
20
9.18576657
11
63.1
21
9.18576657
0
LINE
8
0
10
63.1
20
9.18576657
11
63.1
21
10.436537
0
LINE
8
0
10
63.1
20
10.436537
11
63.1
21
20.7225942
0
LINE
8
0
10
63.1
20
20.7225942
11
63.1
21
26.1577326
0
LINE
8
0
10
63.1
20
26.1577326
11
63.1
21
29.3087874
0
LINE
8
0
10
63.1
20
29.3087874
11
63.1842285
21
29.4139194
0
LINE
8
0
10
63.1842285
20
29.4139194
11
63.6201668
21
29.958037
0
LINE
8
0
10
63.6201668
20
29.958037
11
63.9
21
30.3073119
0
LINE
8
0
10
63.9
20
30.3073119
11
66.9789462
21
30.3073123
0
LINE
8
0
10
66.9789462
20
30.3073123
11
67.9136262
21
30.3073062
0
LINE
8
0
10
67.9136262
20
30.3073062
11
68.334182
21
30.3073052
0
LINE
8
0
10
68.334182
20
30.3073052
11
70.3356044
21
30.3073063
0
LINE
8
0
10
70.3356044
20
30.3073063
11
70.659336
21
30.3073093
0
LINE
8
0
10
70.659336
20
30.3073093
11
73.6068946
21
30.3073068
0
LINE
8
0
10
73.6068946
20
30.3073068
11
73.9559006
21
30.3073068
0
LINE
8
0
10
73.9559006
20
30.3073068
11
73.9956554
21
30.3073082
0
LINE
8
0
10
73.9956554
20
30.3073082
11
73.9956554
21
29.9054675
0
LINE
8
0
10
73.9956554
20
29.9054675
11
73.9941932
21
29.569099
0
LINE
8
0
10
73.9941932
20
29.569099
11
74
21
29.5056139
0
LINE
8
0
10
74
20
29.5056139
11
74
21
28.8289771
0
LINE
8
0
10
74
20
28.8289771
11
74
21
25.2112772
0
LINE
8
0
10
74
20
25.2112772
11
74
21
22.648375
0
LINE
8
0
10
74
20
22.648375
11
74
21
22.6251699
0
LINE
8
0
10
74
20
22.6251699
11
74
21
22.6
0
LINE
8
0
10
74
20
22.6
11
73.9552696
21
22.5546413
0
LINE
8
0
10
73.9552696
20
22.5546413
11
73.68601
21
22.2816
0
LINE
8
0
10
73.68601
20
22.2816
11
73.6295302
21
22.224325
0
LINE
8
0
10
73.6295302
20
22.224325
11
73.44949
21
22.04175
0
LINE
8
0
10
73.44949
20
22.04175
11
73.3739014
21
21.9650984
0
LINE
8
0
10
73.3739014
20
21.9650984
11
73.15509
21
21.74321
0
LINE
8
0
10
73.15509
20
21.74321
11
72.5124735
21
21.0915587
0
LINE
8
0
10
72.5124735
20
21.0915587
11
72.3423976
21
20.9190894
0
LINE
8
0
10
72.3423976
20
20.9190894
11
72.1717283
21
20.7460233
0
LINE
8
0
10
72.1717283
20
20.7460233
11
72
21
20.57188
0
LINE
8
0
10
72
20
20.57188
11
72
21
19.0709812
0
LINE
8
0
10
72
20
19.0709812
11
72
21
18.9195523
0
LINE
8
0
10
72
20
18.9195523
11
72
21
17.7613213
0
LINE
8
0
10
72
20
17.7613213
11
72
21
17.7613213
0
ENDSEC
0
EOF
