0
SECTION
2
ENTITIES
0
LINE
8
0
10
16
20
38.5875234
11
16
21
37.333592
0
LINE
8
0
10
16
20
37.333592
11
16
21
35.4951152
0
LINE
8
0
10
16
20
35.4951152
11
17.1437977
21
35.4951152
0
LINE
8
0
10
17.1437977
20
35.4951152
11
17.8
21
35.4951152
0
LINE
8
0
10
17.8
20
35.4951152
11
17.8
21
34.715818
0
LINE
8
0
10
17.8
20
34.715818
11
17.8
21
31.8205796
0
LINE
8
0
10
17.8
20
31.8205796
11
17.8
21
31.0947326
0
LINE
8
0
10
17.8
20
31.0947326
11
17.7442451
21
30.214065
0
LINE
8
0
10
17.7442451
20
30.214065
11
17.72314
21
29.8807026
0
LINE
8
0
10
17.72314
20
29.8807026
11
17.5580225
21
29.0338825
0
LINE
8
0
10
17.5580225
20
29.0338825
11
17.49552
21
28.7133326
0
LINE
8
0
10
17.49552
20
28.7133326
11
17.22738
21
27.9328946
0
LINE
8
0
10
17.22738
20
27.9328946
11
17.12588
21
27.6374726
0
LINE
8
0
10
17.12588
20
27.6374726
11
16.7650256
21
26.9534197
0
LINE
8
0
10
16.7650256
20
26.9534197
11
16.62843
21
26.6944826
0
LINE
8
0
10
16.62843
20
26.6944826
11
16.4174377
21
26.3969853
0
LINE
8
0
10
16.4174377
20
26.3969853
11
16.33757
21
26.2843698
0
LINE
8
0
10
16.33757
20
26.2843698
11
16.108856
21
26.0204735
0
LINE
8
0
10
16.108856
20
26.0204735
11
16.02228
21
25.9205826
0
LINE
8
0
10
16.02228
20
25.9205826
11
15.7780422
21
25.6928406
0
LINE
8
0
10
15.7780422
20
25.6928406
11
15.68559
21
25.6066298
0
LINE
8
0
10
15.68559
20
25.6066298
11
15.4281716
21
25.4172184
0
LINE
8
0
10
15.4281716
20
25.4172184
11
15.33073
21
25.3455226
0
LINE
8
0
10
15.33073
20
25.3455226
11
15.0626263
21
25.1962843
0
LINE
8
0
10
15.0626263
20
25.1962843
11
14.96114
21
25.1397926
0
LINE
8
0
10
14.96114
20
25.1397926
11
14.684919
21
25.0321565
0
LINE
8
0
10
14.684919
20
25.0321565
11
14.58036
21
24.9914098
0
LINE
8
0
10
14.58036
20
24.9914098
11
14.2986912
21
24.926406
0
LINE
8
0
10
14.2986912
20
24.926406
11
14.19207
21
24.9018026
0
LINE
8
0
10
14.19207
20
24.9018026
11
13.9076591
21
24.8800621
0
LINE
8
0
10
13.9076591
20
24.8800621
11
13.8
21
24.8718326
0
LINE
8
0
10
13.8
20
24.8718326
11
5.53034364
21
24.8718326
0
LINE
8
0
10
5.53034364
20
24.8718326
11
2.4
21
24.871831
0
LINE
8
0
10
2.4
20
24.871831
11
2.4
21
26.9965662
0
LINE
8
0
10
2.4
20
26.9965662
11
2.4
21
28.1028564
0
LINE
8
0
10
2.4
20
28.1028564
11
2.4
21
29.4374325
0
LINE
8
0
10
2.4
20
29.4374325
11
2.4
21
39.4600931
0
LINE
8
0
10
2.4
20
39.4600931
11
2.4
21
40.1981442
0
LINE
8
0
10
2.4
20
40.1981442
11
2.4
21
40.9081622
0
LINE
8
0
10
2.4
20
40.9081622
11
6.3585199
21
40.9081622
0
LINE
8
0
10
6.3585199
20
40.9081622
11
16
21
40.9081622
0
LINE
8
0
10
16
20
40.9081622
11
16
21
40.0137214
0
LINE
8
0
10
16
20
40.0137214
11
16
21
39.607435
0
LINE
8
0
10
16
20
39.607435
11
16
21
38.5875234
0
LINE
8
0
10
16
20
38.5875234
11
16
21
38.5875234
0
LINE
8
0
10
67.901437
20
9.86566504
11
67.3660795
21
9.66125412
0
LINE
8
0
10
67.3660795
20
9.66125412
11
67.1013822
21
9.56651808
0
LINE
8
0
10
67.1013822
20
9.56651808
11
66.8314607
21
9.50930654
0
LINE
8
0
10
66.8314607
20
9.50930654
11
66.2681175
21
9.43910622
0
LINE
8
0
10
66.2681175
20
9.43910622
11
66
21
9.42028592
0
LINE
8
0
10
66
20
9.42028592
11
63.9218971
21
9.42028603
0
LINE
8
0
10
63.9218971
20
9.42028603
11
63.1
21
9.42028603
0
LINE
8
0
10
63.1
20
9.42028603
11
63.1
21
10.5668256
0
LINE
8
0
10
63.1
20
10.5668256
11
63.1
21
19.9957114
0
LINE
8
0
10
63.1
20
19.9957114
11
63.1
21
25.9655302
0
LINE
8
0
10
63.1
20
25.9655302
11
63.1
21
29.4265693
0
LINE
8
0
10
63.1
20
29.4265693
11
63.1925145
21
29.5420436
0
LINE
8
0
10
63.1925145
20
29.5420436
11
63.6713381
21
30.1396887
0
LINE
8
0
10
63.6713381
20
30.1396887
11
63.9
21
30.425094
0
LINE
8
0
10
63.9
20
30.425094
11
67.2563433
21
30.4250943
0
LINE
8
0
10
67.2563433
20
30.4250943
11
68.2752331
21
30.4250877
0
LINE
8
0
10
68.2752331
20
30.4250877
11
68.7336789
21
30.4250866
0
LINE
8
0
10
68.7336789
20
30.4250866
11
69.7187366
21
30.4250872
0
LINE
8
0
10
69.7187366
20
30.4250872
11
70.0969654
21
30.4250907
0
LINE
8
0
10
70.0969654
20
30.4250907
11
71.5597014
21
30.4250894
0
LINE
8
0
10
71.5597014
20
30.4250894
11
73.7262422
21
30.4250894
0
LINE
8
0
10
73.7262422
20
30.4250894
11
73.7756754
21
30.4250911
0
LINE
8
0
10
73.7756754
20
30.4250911
11
73.8385959
21
30.4250882
0
LINE
8
0
10
73.8385959
20
30.4250882
11
73.9178828
21
30.4250943
0
LINE
8
0
10
73.9178828
20
30.4250943
11
73.9182346
21
30.3148482
0
LINE
8
0
10
73.9182346
20
30.3148482
11
73.9147798
21
29.6618892
0
LINE
8
0
10
73.9147798
20
29.6618892
11
73.93301
21
29.627688
0
LINE
8
0
10
73.93301
20
29.627688
11
73.9338703
21
29.6246982
0
LINE
8
0
10
73.9338703
20
29.6246982
11
73.98296
21
29.4540931
0
LINE
8
0
10
73.98296
20
29.4540931
11
73.9847546
21
29.4344736
0
LINE
8
0
10
73.9847546
20
29.4344736
11
74
21
29.2677965
0
LINE
8
0
10
74
20
29.2677965
11
74
21
28.6978946
0
LINE
8
0
10
74
20
28.6978946
11
74
21
25.6508621
0
LINE
8
0
10
74
20
25.6508621
11
74
21
22.6565185
0
LINE
8
0
10
74
20
22.6565185
11
74
21
22.629407
0
LINE
8
0
10
74
20
22.629407
11
74
21
22.6
0
LINE
8
0
10
74
20
22.6
11
73.9477396
21
22.5470056
0
LINE
8
0
10
73.9477396
20
22.5470056
11
73.68601
21
22.2816
0
LINE
8
0
10
73.68601
20
22.2816
11
73.6247269
21
22.2194541
0
LINE
8
0
10
73.6247269
20
22.2194541
11
73.44949
21
22.04175
0
LINE
8
0
10
73.44949
20
22.04175
11
73.3682948
21
21.959413
0
LINE
8
0
10
73.3682948
20
21.959413
11
73.15509
21
21.74321
0
LINE
8
0
10
73.15509
20
21.74321
11
72.4697116
21
21.0481955
0
LINE
8
0
10
72.4697116
20
21.0481955
11
72.3138272
21
20.8901175
0
LINE
8
0
10
72.3138272
20
20.8901175
11
72.1573989
21
20.7314924
0
LINE
8
0
10
72.1573989
20
20.7314924
11
72
21
20.57188
0
LINE
8
0
10
72
20
20.57188
11
72
21
19.1962197
0
LINE
8
0
10
72
20
19.1962197
11
72
21
19.0574263
0
LINE
8
0
10
72
20
19.0574263
11
72
21
17.9958408
0
LINE
8
0
10
72
20
17.9958408
11
72
21
17.9932053
0
LINE
8
0
10
72
20
17.9932053
11
71.9791099
21
17.3905897
0
LINE
8
0
10
71.9791099
20
17.3905897
11
71.9517315
21
16.9527738
0
LINE
8
0
10
71.9517315
20
16.9527738
11
71.891855
21
16.377393
0
LINE
8
0
10
71.891855
20
16.377393
11
71.7928238
21
15.8131647
0
LINE
8
0
10
71.7928238
20
15.8131647
11
71.7062229
21
15.3544508
0
LINE
8
0
10
71.7062229
20
15.3544508
11
71.5749001
21
14.830443
0
LINE
8
0
10
71.5749001
20
14.830443
11
71.4136168
21
14.3380711
0
LINE
8
0
10
71.4136168
20
14.3380711
11
71.2555031
21
13.86066
0
LINE
8
0
10
71.2555031
20
13.86066
11
71.0654213
21
13.4076832
0
LINE
8
0
10
71.0654213
20
13.4076832
11
70.8277028
21
12.9244198
0
LINE
8
0
10
70.8277028
20
12.9244198
11
70.6204267
21
12.5251725
0
LINE
8
0
10
70.6204267
20
12.5251725
11
70.3867662
21
12.1568773
0
LINE
8
0
10
70.3867662
20
12.1568773
11
70.0694964
21
11.7051827
0
LINE
8
0
10
70.0694964
20
11.7051827
11
69.8284127
21
11.3930073
0
LINE
8
0
10
69.8284127
20
11.3930073
11
69.5670858
21
11.1161015
0
LINE
8
0
10
69.5670858
20
11.1161015
11
69.1715977
21
10.7216785
0
LINE
8
0
10
69.1715977
20
10.7216785
11
68.9110954
21
10.498589
0
LINE
8
0
10
68.9110954
20
10.498589
11
68.6365556
21
10.3130569
0
LINE
8
0
10
68.6365556
20
10.3130569
11
68.1700945
21
10.0030135
0
LINE
8
0
10
68.1700945
20
10.0030135
11
67.901437
21
9.86566504
0
LINE
8
0
10
67.901437
20
9.86566504
11
67.901437
21
9.86566504
0
LINE
8
0
10
35.2
20
10
11
35.2
21
8.41331835
0
LINE
8
0
10
35.2
20
8.41331835
11
35.2
21
5.42557962
0
LINE
8
0
10
35.2
20
5.42557962
11
34.5510359
21
4.49804167
0
LINE
8
0
10
34.5510359
20
4.49804167
11
34
21
3.71046847
0
LINE
8
0
10
34
20
3.71046847
11
31.4977317
21
3.71046847
0
LINE
8
0
10
31.4977317
20
3.71046847
11
29.4
21
3.71046847
0
LINE
8
0
10
29.4
20
3.71046847
11
28.8489641
21
4.49804167
0
LINE
8
0
10
28.8489641
20
4.49804167
11
28.2
21
5.42557962
0
LINE
8
0
10
28.2
20
5.42557962
11
28.2
21
8.61550203
0
LINE
8
0
10
28.2
20
8.61550203
11
28.2
21
9.12897749
0
LINE
8
0
10
28.2
20
9.12897749
11
28.2
21
9.20361003
0
LINE
8
0
10
28.2
20
9.20361003
11
28.2
21
9.92598042
0
LINE
8
0
10
28.2
20
9.92598042
11
28.2
21
15
0
LINE
8
0
10
28.2
20
15
11
29.4745915
21
15
0
LINE
8
0
10
29.4745915
20
15
11
30.2
21
15
0
LINE
8
0
10
30.2
20
15
11
30.2
21
13.5095958
0
LINE
8
0
10
30.2
20
13.5095958
11
30.2
21
12.65094
0
LINE
8
0
10
30.2
20
12.65094
11
30.2
21
12.4865984
0
LINE
8
0
10
30.2
20
12.4865984
11
30.2
21
12.39302
0
LINE
8
0
10
30.2
20
12.39302
11
30.2
21
12.2294539
0
LINE
8
0
10
30.2
20
12.2294539
11
30.2
21
12.13557
0
LINE
8
0
10
30.2
20
12.13557
11
30.2
21
11.9839992
0
LINE
8
0
10
30.2
20
11.9839992
11
30.2
21
11.89597
0
LINE
8
0
10
30.2
20
11.89597
11
30.2
21
11.7666362
0
LINE
8
0
10
30.2
20
11.7666362
11
30.2
21
11.69043
0
LINE
8
0
10
30.2
20
11.69043
11
30.2
21
11.5918297
0
LINE
8
0
10
30.2
20
11.5918297
11
30.2
21
11.53281
0
LINE
8
0
10
30.2
20
11.53281
11
30.2
21
10.6812932
0
LINE
8
0
10
30.2
20
10.6812932
11
30.2
21
10
0
LINE
8
0
10
30.2
20
10
11
33.2113851
21
10
0
LINE
8
0
10
33.2113851
20
10
11
35.2
21
10
0
LINE
8
0
10
35.2
20
10
11
35.2
21
10
0
LINE
8
0
10
35.2
20
-10.9504382
11
35.2
21
-11.2727513
0
LINE
8
0
10
35.2
20
-11.2727513
11
35.2
21
-13.5
0
LINE
8
0
10
35.2
20
-13.5
11
35.1927521
21
-13.6475101
0
LINE
8
0
10
35.1927521
20
-13.6475101
11
35.1267453
21
-14.0563973
0
LINE
8
0
10
35.1267453
20
-14.0563973
11
35.11481
21
-14.14705
0
LINE
8
0
10
35.11481
20
-14.14705
11
34.9262048
21
-14.6023834
0
LINE
8
0
10
34.9262048
20
-14.6023834
11
34.86506
21
-14.75
0
LINE
8
0
10
34.86506
20
-14.75
11
34.5650361
21
-15.1410075
0
LINE
8
0
10
34.5650361
20
-15.1410075
11
34.46777
21
-15.26777
0
LINE
8
0
10
34.46777
20
-15.26777
11
34.0767625
21
-15.5677939
0
LINE
8
0
10
34.0767625
20
-15.5677939
11
33.95
21
-15.66506
0
LINE
8
0
10
33.95
20
-15.66506
11
33.4946666
21
-15.8536652
0
LINE
8
0
10
33.4946666
20
-15.8536652
11
33.34705
21
-15.91481
0
LINE
8
0
10
33.34705
20
-15.91481
11
33.1027317
21
-15.9469767
0
LINE
8
0
10
33.1027317
20
-15.9469767
11
32.9057583
21
-15.9797334
0
LINE
8
0
10
32.9057583
20
-15.9797334
11
32.7
21
-16
0
LINE
8
0
10
32.7
20
-16
11
31.4056803
21
-16
0
LINE
8
0
10
31.4056803
20
-16
11
30.7
21
-16
0
LINE
8
0
10
30.7
20
-16
11
30.3986729
21
-15.9703201
0
LINE
8
0
10
30.3986729
20
-15.9703201
11
30.087911
21
-15.9229622
0
LINE
8
0
10
30.087911
20
-15.9229622
11
29.9821128
21
-15.8907652
0
LINE
8
0
10
29.9821128
20
-15.8907652
11
29.5170925
21
-15.6981476
0
LINE
8
0
10
29.5170925
20
-15.6981476
11
29.4169241
21
-15.6444926
0
LINE
8
0
10
29.4169241
20
-15.6444926
11
29.0224228
21
-15.3417879
0
LINE
8
0
10
29.0224228
20
-15.3417879
11
28.93223
21
-15.26777
0
LINE
8
0
10
28.93223
20
-15.26777
11
28.8530663
21
-15.1713069
0
LINE
8
0
10
28.8530663
20
-15.1713069
11
28.5569373
21
-14.7853754
0
LINE
8
0
10
28.5569373
20
-14.7853754
11
28.4972326
21
-14.6735399
0
LINE
8
0
10
28.4972326
20
-14.6735399
11
28.312592
21
-14.2277777
0
LINE
8
0
10
28.312592
20
-14.2277777
11
28.2753608
21
-14.1048967
0
LINE
8
0
10
28.2753608
20
-14.1048967
11
28.2657626
21
-14.0402827
0
LINE
8
0
10
28.2657626
20
-14.0402827
11
28.21204
21
-13.74504
0
LINE
8
0
10
28.21204
20
-13.74504
11
28.2044164
21
-13.5898825
0
LINE
8
0
10
28.2044164
20
-13.5898825
11
28.2
21
-13.5
0
LINE
8
0
10
28.2
20
-13.5
11
28.2
21
-11.4445767
0
LINE
8
0
10
28.2
20
-11.4445767
11
28.2
21
-11.0686845
0
LINE
8
0
10
28.2
20
-11.0686845
11
28.2
21
-10.3963396
0
LINE
8
0
10
28.2
20
-10.3963396
11
28.2
21
-10.2617236
0
LINE
8
0
10
28.2
20
-10.2617236
11
28.7143384
21
-9.71347304
0
LINE
8
0
10
28.7143384
20
-9.71347304
11
29.4
21
-8.97214532
0
LINE
8
0
10
29.4
20
-8.97214532
11
30.307996
21
-8.97214532
0
LINE
8
0
10
30.307996
20
-8.97214532
11
34
21
-8.97214532
0
LINE
8
0
10
34
20
-8.97214532
11
34.6856616
21
-9.71347304
0
LINE
8
0
10
34.6856616
20
-9.71347304
11
35.2
21
-10.2617236
0
LINE
8
0
10
35.2
20
-10.2617236
11
35.2
21
-10.3763828
0
LINE
8
0
10
35.2
20
-10.3763828
11
35.2
21
-10.9504382
0
LINE
8
0
10
35.2
20
-10.9504382
11
35.2
21
-10.9504382
0
LINE
8
0
10
72
20
-7.13705783
11
72
21
-8.00441374
0
LINE
8
0
10
72
20
-8.00441374
11
72
21
-8.16218844
0
LINE
8
0
10
72
20
-8.16218844
11
72
21
-13.5
0
LINE
8
0
10
72
20
-13.5
11
71.932236
21
-14.0146933
0
LINE
8
0
10
71.932236
20
-14.0146933
11
71.91481
21
-14.14705
0
LINE
8
0
10
71.91481
20
-14.14705
11
71.8637226
21
-14.2703859
0
LINE
8
0
10
71.8637226
20
-14.2703859
11
71.66506
21
-14.75
0
LINE
8
0
10
71.66506
20
-14.75
11
71.5837927
21
-14.8559119
0
LINE
8
0
10
71.5837927
20
-14.8559119
11
71.26777
21
-15.26777
0
LINE
8
0
10
71.26777
20
-15.26777
11
71.1618581
21
-15.3490373
0
LINE
8
0
10
71.1618581
20
-15.3490373
11
70.75
21
-15.66506
0
LINE
8
0
10
70.75
20
-15.66506
11
70.6266641
21
-15.7161474
0
LINE
8
0
10
70.6266641
20
-15.7161474
11
70.14705
21
-15.91481
0
LINE
8
0
10
70.14705
20
-15.91481
11
70.0146933
21
-15.932236
0
LINE
8
0
10
70.0146933
20
-15.932236
11
69.5
21
-16
0
LINE
8
0
10
69.5
20
-16
11
63.5383599
21
-16
0
LINE
8
0
10
63.5383599
20
-16
11
58.8
21
-16
0
LINE
8
0
10
58.8
20
-16
11
58.7746826
21
-15.9994784
0
LINE
8
0
10
58.7746826
20
-15.9994784
11
58.73836
21
-15.99873
0
LINE
8
0
10
58.73836
20
-15.99873
11
58.7130382
21
-15.9971672
0
LINE
8
0
10
58.7130382
20
-15.9971672
11
58.67679
21
-15.99493
0
LINE
8
0
10
58.67679
20
-15.99493
11
58.6408229
21
-15.9912198
0
LINE
8
0
10
58.6408229
20
-15.9912198
11
58.4469645
21
-15.9557539
0
LINE
8
0
10
58.4469645
20
-15.9557539
11
58.41177
21
-15.94889
0
LINE
8
0
10
58.41177
20
-15.94889
11
58.2866734
21
-15.8970733
0
LINE
8
0
10
58.2866734
20
-15.8970733
11
58.05
21
-15.79904
0
LINE
8
0
10
58.05
20
-15.79904
11
57.9425768
21
-15.7166105
0
LINE
8
0
10
57.9425768
20
-15.7166105
11
57.73934
21
-15.56066
0
LINE
8
0
10
57.73934
20
-15.56066
11
57.6569105
21
-15.4532368
0
LINE
8
0
10
57.6569105
20
-15.4532368
11
57.50096
21
-15.25
0
LINE
8
0
10
57.50096
20
-15.25
11
57.4491433
21
-15.1249034
0
LINE
8
0
10
57.4491433
20
-15.1249034
11
57.35111
21
-14.88823
0
LINE
8
0
10
57.35111
20
-14.88823
11
57.340829
21
-14.8101358
0
LINE
8
0
10
57.340829
20
-14.8101358
11
57.325813
21
-14.6960745
0
LINE
8
0
10
57.325813
20
-14.6960745
11
57.3140998
21
-14.6281676
0
LINE
8
0
10
57.3140998
20
-14.6281676
11
57.3
21
-14.5
0
LINE
8
0
10
57.3
20
-14.5
11
57.3
21
-14.3705083
0
LINE
8
0
10
57.3
20
-14.3705083
11
57.3
21
-14.17729
0
LINE
8
0
10
57.3
20
-14.17729
11
57.3
21
-6.85532275
0
LINE
8
0
10
57.3
20
-6.85532275
11
57.3
21
-6.79739249
0
LINE
8
0
10
57.3
20
-6.79739249
11
57.3
21
-5.95856836
0
LINE
8
0
10
57.3
20
-5.95856836
11
57.3
21
-5.92012198
0
LINE
8
0
10
57.3
20
-5.92012198
11
57.3
21
-4.75640425
0
LINE
8
0
10
57.3
20
-4.75640425
11
57.3
21
-4.55190644
0
LINE
8
0
10
57.3
20
-4.55190644
11
57.8143384
21
-4.00365561
0
LINE
8
0
10
57.8143384
20
-4.00365561
11
58.5
21
-3.26232732
0
LINE
8
0
10
58.5
20
-3.26232732
11
62.5008885
21
-3.27235671
0
LINE
8
0
10
62.5008885
20
-3.27235671
11
68.7618517
21
-3.25976079
0
LINE
8
0
10
68.7618517
20
-3.25976079
11
69.0522235
21
-3.29195934
0
LINE
8
0
10
69.0522235
20
-3.29195934
11
69.0597996
21
-3.2923354
0
LINE
8
0
10
69.0597996
20
-3.2923354
11
69.3448519
21
-3.33526231
0
LINE
8
0
10
69.3448519
20
-3.33526231
11
69.3599209
21
-3.33744129
0
LINE
8
0
10
69.3599209
20
-3.33744129
11
69.360301
21
-3.33753521
0
LINE
8
0
10
69.360301
20
-3.33753521
11
69.6637289
21
-3.41228795
0
LINE
8
0
10
69.6637289
20
-3.41228795
11
69.677206
21
-3.41709098
0
LINE
8
0
10
69.677206
20
-3.41709098
11
69.9669944
21
-3.51996102
0
LINE
8
0
10
69.9669944
20
-3.51996102
11
69.9987212
21
-3.53504541
0
LINE
8
0
10
69.9987212
20
-3.53504541
11
70.2644319
21
-3.66076878
0
LINE
8
0
10
70.2644319
20
-3.66076878
11
70.3180463
21
-3.69335884
0
LINE
8
0
10
70.3180463
20
-3.69335884
11
70.5505894
21
-3.83393875
0
LINE
8
0
10
70.5505894
20
-3.83393875
11
70.6273374
21
-3.89216858
0
LINE
8
0
10
70.6273374
20
-3.89216858
11
70.820182
21
-4.03759467
0
LINE
8
0
10
70.820182
20
-4.03759467
11
70.9183683
21
-4.12943525
0
LINE
8
0
10
70.9183683
20
-4.12943525
11
71.0683759
21
-4.26881507
0
LINE
8
0
10
71.0683759
20
-4.26881507
11
71.1833421
21
-4.40089237
0
LINE
8
0
10
71.1833421
20
-4.40089237
11
71.2910692
21
-4.52378199
0
LINE
8
0
10
71.2910692
20
-4.52378199
11
71.4156626
21
-4.70034816
0
LINE
8
0
10
71.4156626
20
-4.70034816
11
71.4850807
21
-4.79799
0
LINE
8
0
10
71.4850807
20
-4.79799
11
71.6106153
21
-5.0202841
0
LINE
8
0
10
71.6106153
20
-5.0202841
11
71.6483007
21
-5.0864996
0
LINE
8
0
10
71.6483007
20
-5.0864996
11
71.765642
21
-5.35261488
0
LINE
8
0
10
71.765642
20
-5.35261488
11
71.7796865
21
-5.38420877
0
LINE
8
0
10
71.7796865
20
-5.38420877
11
71.8696054
21
-5.6568211
0
LINE
8
0
10
71.8696054
20
-5.6568211
11
71.879246
21
-5.68539689
0
LINE
8
0
10
71.879246
20
-5.68539689
11
71.8799074
21
-5.68825103
0
LINE
8
0
10
71.8799074
20
-5.68825103
11
71.9478835
21
-5.97966836
0
LINE
8
0
10
71.9478835
20
-5.97966836
11
71.9520465
21
-6.01040804
0
LINE
8
0
10
71.9520465
20
-6.01040804
11
71.9873959
21
-6.2696427
0
LINE
8
0
10
71.9873959
20
-6.2696427
11
71.989836
21
-6.32459464
0
LINE
8
0
10
71.989836
20
-6.32459464
11
72
21
-6.53750386
0
LINE
8
0
10
72
20
-6.53750386
11
72
21
-7.13705783
0
LINE
8
0
10
72
20
-7.13705783
11
72
21
-7.13705783
0
ENDSEC
0
EOF
