0
SECTION
2
ENTITIES
0
LINE
8
0
10
16
20
35.3664182
11
16
21
38.2110256
0
LINE
8
0
10
16
20
38.2110256
11
16
21
39.0935647
0
LINE
8
0
10
16
20
39.0935647
11
16
21
40.3368289
0
LINE
8
0
10
16
20
40.3368289
11
16
21
40.4386009
0
LINE
8
0
10
16
20
40.4386009
11
16
21
40.6626521
0
LINE
8
0
10
16
20
40.6626521
11
13.5848762
21
40.6626521
0
LINE
8
0
10
13.5848762
20
40.6626521
11
2.4
21
40.6626521
0
LINE
8
0
10
2.4
20
40.6626521
11
2.4
21
40.4847975
0
LINE
8
0
10
2.4
20
40.4847975
11
2.4
21
39.7076947
0
LINE
8
0
10
2.4
20
39.7076947
11
2.4
21
29.1547157
0
LINE
8
0
10
2.4
20
29.1547157
11
2.4
21
28.0627897
0
LINE
8
0
10
2.4
20
28.0627897
11
2.4
21
27.1576433
0
LINE
8
0
10
2.4
20
27.1576433
11
2.4
21
25.4192235
0
LINE
8
0
10
2.4
20
25.4192235
11
4.96119025
21
25.4192248
0
LINE
8
0
10
4.96119025
20
25.4192248
11
13.8
21
25.4192248
0
LINE
8
0
10
13.8
20
25.4192248
11
13.8880847
21
25.4259581
0
LINE
8
0
10
13.8880847
20
25.4259581
11
14.19207
21
25.4491948
0
LINE
8
0
10
14.19207
20
25.4491948
11
14.2793055
21
25.4693249
0
LINE
8
0
10
14.2793055
20
25.4693249
11
14.58036
21
25.5388026
0
LINE
8
0
10
14.58036
20
25.5388026
11
14.6659082
21
25.5721407
0
LINE
8
0
10
14.6659082
20
25.5721407
11
14.96114
21
25.6871848
0
LINE
8
0
10
14.96114
20
25.6871848
11
15.0441742
21
25.7334053
0
LINE
8
0
10
15.0441742
20
25.7334053
11
15.33073
21
25.8929148
0
LINE
8
0
10
15.33073
20
25.8929148
11
15.4104549
21
25.9515751
0
LINE
8
0
10
15.4104549
20
25.9515751
11
15.68559
21
26.1540226
0
LINE
8
0
10
15.68559
20
26.1540226
11
15.7612327
21
26.2245587
0
LINE
8
0
10
15.7612327
20
26.2245587
11
16.02228
21
26.4679748
0
LINE
8
0
10
16.02228
20
26.4679748
11
16.0931149
21
26.5497038
0
LINE
8
0
10
16.0931149
20
26.5497038
11
16.33757
21
26.8317626
0
LINE
8
0
10
16.33757
20
26.8317626
11
16.4029163
21
26.9239025
0
LINE
8
0
10
16.4029163
20
26.9239025
11
16.62843
21
27.2418748
0
LINE
8
0
10
16.62843
20
27.2418748
11
16.74019
21
27.4537324
0
LINE
8
0
10
16.74019
20
27.4537324
11
17.12588
21
28.1848648
0
LINE
8
0
10
17.12588
20
28.1848648
11
17.2089255
21
28.4265738
0
LINE
8
0
10
17.2089255
20
28.4265738
11
17.49552
21
29.2607248
0
LINE
8
0
10
17.49552
20
29.2607248
11
17.5466584
21
29.522993
0
LINE
8
0
10
17.5466584
20
29.522993
11
17.72314
21
30.4280948
0
LINE
8
0
10
17.72314
20
30.4280948
11
17.7404078
21
30.7008459
0
LINE
8
0
10
17.7404078
20
30.7008459
11
17.8
21
31.6421248
0
LINE
8
0
10
17.8
20
31.6421248
11
17.8
21
32.2359997
0
LINE
8
0
10
17.8
20
32.2359997
11
17.8
21
35.3305008
0
LINE
8
0
10
17.8
20
35.3305008
11
17.8
21
35.3664182
0
LINE
8
0
10
17.8
20
35.3664182
11
17.769756
21
35.3664182
0
LINE
8
0
10
17.769756
20
35.3664182
11
16
21
35.3664182
0
LINE
8
0
10
16
20
35.3664182
11
16
21
35.3664182
0
LINE
8
0
10
35.2
20
-10.3986862
11
35.2
21
-10.8312316
0
LINE
8
0
10
35.2
20
-10.8312316
11
35.2
21
-11.1686147
0
LINE
8
0
10
35.2
20
-11.1686147
11
35.2
21
-13.5
0
LINE
8
0
10
35.2
20
-13.5
11
35.1929759
21
-13.6429556
0
LINE
8
0
10
35.1929759
20
-13.6429556
11
35.1290071
21
-14.039218
0
LINE
8
0
10
35.1290071
20
-14.039218
11
35.11481
21
-14.14705
0
LINE
8
0
10
35.11481
20
-14.14705
11
34.9377921
21
-14.5744091
0
LINE
8
0
10
34.9377921
20
-14.5744091
11
34.86506
21
-14.75
0
LINE
8
0
10
34.86506
20
-14.75
11
34.5834687
21
-15.1169852
0
LINE
8
0
10
34.5834687
20
-15.1169852
11
34.46777
21
-15.26777
0
LINE
8
0
10
34.46777
20
-15.26777
11
34.1007848
21
-15.5493613
0
LINE
8
0
10
34.1007848
20
-15.5493613
11
33.95
21
-15.66506
0
LINE
8
0
10
33.95
20
-15.66506
11
33.5226409
21
-15.8420779
0
LINE
8
0
10
33.5226409
20
-15.8420779
11
33.34705
21
-15.91481
0
LINE
8
0
10
33.34705
20
-15.91481
11
33.1177418
21
-15.9450005
0
LINE
8
0
10
33.1177418
20
-15.9450005
11
32.9134271
21
-15.978978
0
LINE
8
0
10
32.9134271
20
-15.978978
11
32.7
21
-16
0
LINE
8
0
10
32.7
20
-16
11
31.4398938
21
-16
0
LINE
8
0
10
31.4398938
20
-16
11
30.7
21
-16
0
LINE
8
0
10
30.7
20
-16
11
30.4082008
21
-15.9712586
0
LINE
8
0
10
30.4082008
20
-15.9712586
11
30.0815545
21
-15.92148
0
LINE
8
0
10
30.0815545
20
-15.92148
11
29.9949923
21
-15.895137
0
LINE
8
0
10
29.9949923
20
-15.895137
11
29.5048938
21
-15.6921317
0
LINE
8
0
10
29.5048938
20
-15.6921317
11
29.4229379
21
-15.6482321
0
LINE
8
0
10
29.4229379
20
-15.6482321
11
29.0060241
21
-15.3283301
0
LINE
8
0
10
29.0060241
20
-15.3283301
11
28.93223
21
-15.26777
0
LINE
8
0
10
28.93223
20
-15.26777
11
28.8674597
21
-15.1888457
0
LINE
8
0
10
28.8674597
20
-15.1888457
11
28.5529378
21
-14.7789435
0
LINE
8
0
10
28.5529378
20
-14.7789435
11
28.5040885
21
-14.6874417
0
LINE
8
0
10
28.5040885
20
-14.6874417
11
28.3076098
21
-14.2131
0
LINE
8
0
10
28.3076098
20
-14.2131
11
28.2771479
21
-14.112561
0
LINE
8
0
10
28.2771479
20
-14.112561
11
28.2692948
21
-14.0596949
0
LINE
8
0
10
28.2692948
20
-14.0596949
11
28.21204
21
-13.74504
0
LINE
8
0
10
28.21204
20
-13.74504
11
28.2047072
21
-13.5958025
0
LINE
8
0
10
28.2047072
20
-13.5958025
11
28.2
21
-13.5
0
LINE
8
0
10
28.2
20
-13.5
11
28.2
21
-11.3091991
0
LINE
8
0
10
28.2
20
-11.3091991
11
28.2
21
-10.9085493
0
LINE
8
0
10
28.2
20
-10.9085493
11
28.2
21
-10.3986862
0
LINE
8
0
10
28.2
20
-10.3986862
11
28.722531
21
-9.87098627
0
LINE
8
0
10
28.722531
20
-9.87098627
11
29.4
21
-9.13851628
0
LINE
8
0
10
29.4
20
-9.13851628
11
32.3001824
21
-9.13851628
0
LINE
8
0
10
32.3001824
20
-9.13851628
11
34
21
-9.13851628
0
LINE
8
0
10
34
20
-9.13851628
11
34.677469
21
-9.87098627
0
LINE
8
0
10
34.677469
20
-9.87098627
11
35.2
21
-10.3986862
0
LINE
8
0
10
35.2
20
-10.3986862
11
35.2
21
-10.3986862
0
LINE
8
0
10
35.2
20
10
11
35.2
21
8.33913192
0
LINE
8
0
10
35.2
20
8.33913192
11
35.2
21
5.89461842
0
LINE
8
0
10
35.2
20
5.89461842
11
34.4508475
21
4.82388536
0
LINE
8
0
10
34.4508475
20
4.82388536
11
34
21
4.17950729
0
LINE
8
0
10
34
20
4.17950729
11
31.9526895
21
4.17950729
0
LINE
8
0
10
31.9526895
20
4.17950729
11
29.4
21
4.17950729
0
LINE
8
0
10
29.4
20
4.17950729
11
28.9491525
21
4.82388536
0
LINE
8
0
10
28.9491525
20
4.82388536
11
28.2
21
5.89461842
0
LINE
8
0
10
28.2
20
5.89461842
11
28.2
21
8.50455493
0
LINE
8
0
10
28.2
20
8.50455493
11
28.2
21
8.92467122
0
LINE
8
0
10
28.2
20
8.92467122
11
28.2
21
8.9857342
0
LINE
8
0
10
28.2
20
8.9857342
11
28.2
21
9.57676452
0
LINE
8
0
10
28.2
20
9.57676452
11
28.2
21
15
0
LINE
8
0
10
28.2
20
15
11
29.4246658
21
15
0
LINE
8
0
10
29.4246658
20
15
11
30.2
21
15
0
LINE
8
0
10
30.2
20
15
11
30.2
21
13.567975
0
LINE
8
0
10
30.2
20
13.567975
11
30.2
21
12.65094
0
LINE
8
0
10
30.2
20
12.65094
11
30.2
21
12.492991
0
LINE
8
0
10
30.2
20
12.492991
11
30.2
21
12.39302
0
LINE
8
0
10
30.2
20
12.39302
11
30.2
21
12.2358335
0
LINE
8
0
10
30.2
20
12.2358335
11
30.2
21
12.13557
0
LINE
8
0
10
30.2
20
12.13557
11
30.2
21
11.9898932
0
LINE
8
0
10
30.2
20
11.9898932
11
30.2
21
11.89597
0
LINE
8
0
10
30.2
20
11.89597
11
30.2
21
11.7716229
0
LINE
8
0
10
30.2
20
11.7716229
11
30.2
21
11.69043
0
LINE
8
0
10
30.2
20
11.69043
11
30.2
21
11.5955814
0
LINE
8
0
10
30.2
20
11.5955814
11
30.2
21
11.53281
0
LINE
8
0
10
30.2
20
11.53281
11
30.2
21
10.7131476
0
LINE
8
0
10
30.2
20
10.7131476
11
30.2
21
10
0
LINE
8
0
10
30.2
20
10
11
33.118406
21
10
0
LINE
8
0
10
33.118406
20
10
11
35.2
21
10
0
LINE
8
0
10
35.2
20
10
11
35.2
21
10
0
LINE
8
0
10
72
20
19.3331743
11
72
21
19.4466965
0
LINE
8
0
10
72
20
19.4466965
11
72
21
20.57188
0
LINE
8
0
10
72
20
20.57188
11
72.1287401
21
20.7024306
0
LINE
8
0
10
72.1287401
20
20.7024306
11
72.2566863
21
20.8321736
0
LINE
8
0
10
72.2566863
20
20.8321736
11
72.3841876
21
20.9614691
0
LINE
8
0
10
72.3841876
20
20.9614691
11
73.15509
21
21.74321
0
LINE
8
0
10
73.15509
20
21.74321
11
73.3570817
21
21.9480422
0
LINE
8
0
10
73.3570817
20
21.9480422
11
73.44949
21
22.04175
0
LINE
8
0
10
73.44949
20
22.04175
11
73.6151202
21
22.2097121
0
LINE
8
0
10
73.6151202
20
22.2097121
11
73.68601
21
22.2816
0
LINE
8
0
10
73.68601
20
22.2816
11
73.9326797
21
22.5317341
0
LINE
8
0
10
73.9326797
20
22.5317341
11
74
21
22.6
0
LINE
8
0
10
74
20
22.6
11
74
21
22.6378813
0
LINE
8
0
10
74
20
22.6378813
11
74
21
22.6728055
0
LINE
8
0
10
74
20
22.6728055
11
74
21
26.530032
0
LINE
8
0
10
74
20
26.530032
11
74
21
28.4357295
0
LINE
8
0
10
74
20
28.4357295
11
74
21
28.7921618
0
LINE
8
0
10
74
20
28.7921618
11
73.9904651
21
28.8964061
0
LINE
8
0
10
73.9904651
20
28.8964061
11
73.98296
21
28.9784553
0
LINE
8
0
10
73.98296
20
28.9784553
11
73.9505027
21
29.0912566
0
LINE
8
0
10
73.9505027
20
29.0912566
11
73.93301
21
29.1520502
0
LINE
8
0
10
73.93301
20
29.1520502
11
73.8751454
21
29.2606084
0
LINE
8
0
10
73.8751454
20
29.2606084
11
73.85355
21
29.3011229
0
LINE
8
0
10
73.85355
20
29.3011229
11
73.7718729
21
29.3913451
0
LINE
8
0
10
73.7718729
20
29.3913451
11
73.75
21
29.4155082
0
LINE
8
0
10
73.75
20
29.4155082
11
73.6502099
21
29.4750103
0
LINE
8
0
10
73.6502099
20
29.4750103
11
73.62941
21
29.4874128
0
LINE
8
0
10
73.62941
20
29.4874128
11
73.5203391
21
29.5080894
0
LINE
8
0
10
73.5203391
20
29.5080894
11
73.5
21
29.5119436
0
LINE
8
0
10
73.5
20
29.5119436
11
73.2214354
21
29.511944
0
LINE
8
0
10
73.2214354
20
29.511944
11
72.8159635
21
29.5119423
0
LINE
8
0
10
72.8159635
20
29.5119423
11
72.3641288
21
29.5119428
0
LINE
8
0
10
72.3641288
20
29.5119428
11
71.4762886
21
29.511941
0
LINE
8
0
10
71.4762886
20
29.511941
11
70.5979882
21
29.5119391
0
LINE
8
0
10
70.5979882
20
29.5119391
11
70.603753
21
25.9185855
0
LINE
8
0
10
70.603753
20
25.9185855
11
70.5717004
21
23.2
0
LINE
8
0
10
70.5717004
20
23.2
11
69.942685
21
23.2
0
LINE
8
0
10
69.942685
20
23.2
11
69.8825727
21
23.2
0
LINE
8
0
10
69.8825727
20
23.2
11
69.1677291
21
23.2
0
LINE
8
0
10
69.1677291
20
23.2
11
69.091193
21
23.2
0
LINE
8
0
10
69.091193
20
23.2
11
68.3472336
21
23.2
0
LINE
8
0
10
68.3472336
20
23.2
11
68.3105583
21
23.2
0
LINE
8
0
10
68.3105583
20
23.2
11
68.0332035
21
23.2
0
LINE
8
0
10
68.0332035
20
23.2
11
68.0235689
21
26.143662
0
LINE
8
0
10
68.0235689
20
26.143662
11
68.0464585
21
30.45141
0
LINE
8
0
10
68.0464585
20
30.45141
11
67.9545108
21
30.5478105
0
LINE
8
0
10
67.9545108
20
30.5478105
11
67.9538686
21
30.58081
0
LINE
8
0
10
67.9538686
20
30.58081
11
67.8552643
21
30.653355
0
LINE
8
0
10
67.8552643
20
30.653355
11
67.8560451
21
30.6526745
0
LINE
8
0
10
67.8560451
20
30.6526745
11
67.8560075
21
30.6606581
0
LINE
8
0
10
67.8560075
20
30.6606581
11
67.8111375
21
30.6606584
0
LINE
8
0
10
67.8111375
20
30.6606584
11
63.9
21
30.660658
0
LINE
8
0
10
63.9
20
30.660658
11
63.7736806
21
30.502992
0
LINE
8
0
10
63.7736806
20
30.502992
11
63.2090864
21
29.798292
0
LINE
8
0
10
63.2090864
20
29.798292
11
63.1
21
29.6621331
0
LINE
8
0
10
63.1
20
29.6621331
11
63.1
21
25.5811255
0
LINE
8
0
10
63.1
20
25.5811255
11
63.1
21
18.5419457
0
LINE
8
0
10
63.1
20
18.5419457
11
63.1
21
10.8274027
0
LINE
8
0
10
63.1
20
10.8274027
11
63.1
21
9.88932493
0
LINE
8
0
10
63.1
20
9.88932493
11
64.299734
21
9.88932493
0
LINE
8
0
10
64.299734
20
9.88932493
11
66
21
9.88932485
0
LINE
8
0
10
66
20
9.88932485
11
66.326267
21
9.91222691
0
LINE
8
0
10
66.326267
20
9.91222691
11
66.7871842
21
9.96966353
0
LINE
8
0
10
66.7871842
20
9.96966353
11
67.1139
21
10.038913
0
LINE
8
0
10
67.1139
20
10.038913
11
67.4342923
21
10.1535825
0
LINE
8
0
10
67.4342923
20
10.1535825
11
67.8723121
21
10.3208278
0
LINE
8
0
10
67.8723121
20
10.3208278
11
68.1928973
21
10.4847238
0
LINE
8
0
10
68.1928973
20
10.4847238
11
68.5745473
21
10.7383957
0
LINE
8
0
10
68.5745473
20
10.7383957
11
68.8959272
21
10.9555819
0
LINE
8
0
10
68.8959272
20
10.9555819
11
69.2008745
21
11.2167333
0
LINE
8
0
10
69.2008745
20
11.2167333
11
69.5244557
21
11.539443
0
LINE
8
0
10
69.5244557
20
11.539443
11
69.824245
21
11.8571042
0
LINE
8
0
10
69.824245
20
11.8571042
11
70.1008116
21
12.2152258
0
LINE
8
0
10
70.1008116
20
12.2152258
11
70.360396
21
12.5847942
0
LINE
8
0
10
70.360396
20
12.5847942
11
70.6234673
21
12.9994466
0
LINE
8
0
10
70.6234673
20
12.9994466
11
70.8568332
21
13.4489471
0
LINE
8
0
10
70.8568332
20
13.4489471
11
71.0513302
21
13.8443444
0
LINE
8
0
10
71.0513302
20
13.8443444
11
71.2619007
21
14.3461473
0
LINE
8
0
10
71.2619007
20
14.3461473
11
71.4370574
21
14.8750182
0
LINE
8
0
10
71.4370574
20
14.8750182
11
71.5690165
21
15.2778679
0
LINE
8
0
10
71.5690165
20
15.2778679
11
71.7125533
21
15.8506125
0
LINE
8
0
10
71.7125533
20
15.8506125
11
71.7834086
21
16.2259238
0
LINE
8
0
10
71.7834086
20
16.2259238
11
71.8904759
21
16.8359379
0
LINE
8
0
10
71.8904759
20
16.8359379
11
71.9552112
21
17.4580095
0
LINE
8
0
10
71.9552112
20
17.4580095
11
71.9776117
21
17.8162225
0
LINE
8
0
10
71.9776117
20
17.8162225
11
72
21
18.4620553
0
LINE
8
0
10
72
20
18.4620553
11
72
21
18.4648797
0
LINE
8
0
10
72
20
18.4648797
11
72
21
19.3331743
0
LINE
8
0
10
72
20
19.3331743
11
72
21
19.3331743
0
LINE
8
0
10
72
20
-7.91261527
11
72
21
-13.5
0
LINE
8
0
10
72
20
-13.5
11
71.9290676
21
-14.0387582
0
LINE
8
0
10
71.9290676
20
-14.0387582
11
71.91481
21
-14.14705
0
LINE
8
0
10
71.91481
20
-14.14705
11
71.8730112
21
-14.2479612
0
LINE
8
0
10
71.8730112
20
-14.2479612
11
71.66506
21
-14.75
0
LINE
8
0
10
71.66506
20
-14.75
11
71.5985686
21
-14.8366552
0
LINE
8
0
10
71.5985686
20
-14.8366552
11
71.26777
21
-15.26777
0
LINE
8
0
10
71.26777
20
-15.26777
11
71.1811148
21
-15.3342614
0
LINE
8
0
10
71.1811148
20
-15.3342614
11
70.75
21
-15.66506
0
LINE
8
0
10
70.75
20
-15.66506
11
70.6490888
21
-15.7068588
0
LINE
8
0
10
70.6490888
20
-15.7068588
11
70.14705
21
-15.91481
0
LINE
8
0
10
70.14705
20
-15.91481
11
70.0387582
21
-15.9290676
0
LINE
8
0
10
70.0387582
20
-15.9290676
11
69.5
21
-16
0
LINE
8
0
10
69.5
20
-16
11
63.7224306
21
-16
0
LINE
8
0
10
63.7224306
20
-16
11
58.8
21
-16
0
LINE
8
0
10
58.8
20
-16
11
58.7736991
21
-15.9994581
0
LINE
8
0
10
58.7736991
20
-15.9994581
11
58.73836
21
-15.99873
0
LINE
8
0
10
58.73836
20
-15.99873
11
58.7120618
21
-15.9971069
0
LINE
8
0
10
58.7120618
20
-15.9971069
11
58.67679
21
-15.99493
0
LINE
8
0
10
58.67679
20
-15.99493
11
58.6417918
21
-15.9913197
0
LINE
8
0
10
58.6417918
20
-15.9913197
11
58.4405655
21
-15.9545059
0
LINE
8
0
10
58.4405655
20
-15.9545059
11
58.41177
21
-15.94889
0
LINE
8
0
10
58.41177
20
-15.94889
11
58.3094183
21
-15.9064945
0
LINE
8
0
10
58.3094183
20
-15.9064945
11
58.05
21
-15.79904
0
LINE
8
0
10
58.05
20
-15.79904
11
57.9621083
21
-15.7315977
0
LINE
8
0
10
57.9621083
20
-15.7315977
11
57.73934
21
-15.56066
0
LINE
8
0
10
57.73934
20
-15.56066
11
57.6718977
21
-15.4727683
0
LINE
8
0
10
57.6718977
20
-15.4727683
11
57.50096
21
-15.25
0
LINE
8
0
10
57.50096
20
-15.25
11
57.4585645
21
-15.1476483
0
LINE
8
0
10
57.4585645
20
-15.1476483
11
57.35111
21
-14.88823
0
LINE
8
0
10
57.35111
20
-14.88823
11
57.3426983
21
-14.8243347
0
LINE
8
0
10
57.3426983
20
-14.8243347
11
57.3269948
21
-14.7050514
0
LINE
8
0
10
57.3269948
20
-14.7050514
11
57.3147453
21
-14.6340355
0
LINE
8
0
10
57.3147453
20
-14.6340355
11
57.3
21
-14.5
0
LINE
8
0
10
57.3
20
-14.5
11
57.3
21
-14.3645798
0
LINE
8
0
10
57.3
20
-14.3645798
11
57.3
21
-14.17729
0
LINE
8
0
10
57.3
20
-14.17729
11
57.3
21
-6.51620625
0
LINE
8
0
10
57.3
20
-6.51620625
11
57.3
21
-6.46880876
0
LINE
8
0
10
57.3
20
-6.46880876
11
57.3
21
-5.59085833
0
LINE
8
0
10
57.3
20
-5.59085833
11
57.3
21
-5.5657194
0
LINE
8
0
10
57.3
20
-5.5657194
11
57.3
21
-4.68886895
0
LINE
8
0
10
57.3
20
-4.68886895
11
57.822531
21
-4.16116884
0
LINE
8
0
10
57.822531
20
-4.16116884
11
58.5
21
-3.42869828
0
LINE
8
0
10
58.5
20
-3.42869828
11
66.276708
21
-3.44819286
0
LINE
8
0
10
66.276708
20
-3.44819286
11
68.8407041
21
-3.44329044
0
LINE
8
0
10
68.8407041
20
-3.44329044
11
68.9591686
21
-3.45594189
0
LINE
8
0
10
68.9591686
20
-3.45594189
11
69.1259134
21
-3.45864586
0
LINE
8
0
10
69.1259134
20
-3.45864586
11
69.3344755
21
-3.48886162
0
LINE
8
0
10
69.3344755
20
-3.48886162
11
69.4183959
21
-3.50099651
0
LINE
8
0
10
69.4183959
20
-3.50099651
11
69.6390002
21
-3.55550713
0
LINE
8
0
10
69.6390002
20
-3.55550713
11
69.7149429
21
-3.57421644
0
LINE
8
0
10
69.7149429
20
-3.57421644
11
69.9490136
21
-3.65763578
0
LINE
8
0
10
69.9490136
20
-3.65763578
11
70.010905
21
-3.67960619
0
LINE
8
0
10
70.010905
20
-3.67960619
11
70.2588081
21
-3.7974711
0
LINE
8
0
10
70.2588081
20
-3.7974711
11
70.3012003
21
-3.81752936
0
LINE
8
0
10
70.3012003
20
-3.81752936
11
70.5616278
21
-3.97583277
0
LINE
8
0
10
70.5616278
20
-3.97583277
11
70.5805952
21
-3.98729921
0
LINE
8
0
10
70.5805952
20
-3.98729921
11
70.7765626
21
-4.13598246
0
LINE
8
0
10
70.7765626
20
-4.13598246
11
70.8437652
21
-4.18571749
0
LINE
8
0
10
70.8437652
20
-4.18571749
11
70.8486528
21
-4.19020228
0
LINE
8
0
10
70.8486528
20
-4.19020228
11
71.0857601
21
-4.40666899
0
LINE
8
0
10
71.0857601
20
-4.40666899
11
71.1091516
21
-4.43305459
0
LINE
8
0
10
71.1091516
20
-4.43305459
11
71.3033264
21
-4.65089236
0
LINE
8
0
10
71.3033264
20
-4.65089236
11
71.3411876
21
-4.70360829
0
LINE
8
0
10
71.3411876
20
-4.70360829
11
71.4932733
21
-4.91416123
0
LINE
8
0
10
71.4932733
20
-4.91416123
11
71.5401423
21
-4.99576211
0
LINE
8
0
10
71.5401423
20
-4.99576211
11
71.6534173
21
-5.19178339
0
LINE
8
0
10
71.6534173
20
-5.19178339
11
71.703151
21
-5.30271955
0
LINE
8
0
10
71.703151
20
-5.30271955
11
71.7826065
21
-5.47885921
0
LINE
8
0
10
71.7826065
20
-5.47885921
11
71.8291015
21
-5.61757089
0
LINE
8
0
10
71.8291015
20
-5.61757089
11
71.880707
21
-5.7705352
0
LINE
8
0
10
71.880707
20
-5.7705352
11
71.9185374
21
-5.93379448
0
LINE
8
0
10
71.9185374
20
-5.93379448
11
71.9484967
21
-6.06223166
0
LINE
8
0
10
71.9484967
20
-6.06223166
11
71.9733351
21
-6.24563706
0
LINE
8
0
10
71.9733351
20
-6.24563706
11
71.9875419
21
-6.34982275
0
LINE
8
0
10
71.9875419
20
-6.34982275
11
71.9963569
21
-6.54833764
0
LINE
8
0
10
71.9963569
20
-6.54833764
11
72
21
-6.62465204
0
LINE
8
0
10
72
20
-6.62465204
11
72
21
-6.83955395
0
LINE
8
0
10
72
20
-6.83955395
11
72
21
-7.7474637
0
LINE
8
0
10
72
20
-7.7474637
11
72
21
-7.91261527
0
LINE
8
0
10
72
20
-7.91261527
11
72
21
-7.91261527
0
ENDSEC
0
EOF
