0
SECTION
2
ENTITIES
0
LINE
8
0
10
16
20
35.8512634
11
16
21
35.3316854
0
LINE
8
0
10
16
20
35.3316854
11
16.2748102
21
35.3316854
0
LINE
8
0
10
16.2748102
20
35.3316854
11
17.8
21
35.3316854
0
LINE
8
0
10
17.8
20
35.3316854
11
17.8
21
35.2328825
0
LINE
8
0
10
17.8
20
35.2328825
11
17.8
21
32.4437097
0
LINE
8
0
10
17.8
20
32.4437097
11
17.8
21
31.915821
0
LINE
8
0
10
17.8
20
31.915821
11
17.7384892
21
30.9442363
0
LINE
8
0
10
17.7384892
20
30.9442363
11
17.72314
21
30.701791
0
LINE
8
0
10
17.72314
20
30.701791
11
17.5409764
21
29.7675482
0
LINE
8
0
10
17.5409764
20
29.7675482
11
17.49552
21
29.534421
0
LINE
8
0
10
17.49552
20
29.534421
11
17.1996982
21
28.6734134
0
LINE
8
0
10
17.1996982
20
28.6734134
11
17.12588
21
28.458561
0
LINE
8
0
10
17.12588
20
28.458561
11
16.7277722
21
27.7038888
0
LINE
8
0
10
16.7277722
20
27.7038888
11
16.62843
21
27.515571
0
LINE
8
0
10
16.62843
20
27.515571
11
16.3956556
21
27.1873611
0
LINE
8
0
10
16.3956556
20
27.1873611
11
16.33757
21
27.105459
0
LINE
8
0
10
16.33757
20
27.105459
11
16.0852443
21
26.8143189
0
LINE
8
0
10
16.0852443
20
26.8143189
11
16.02228
21
26.741671
0
LINE
8
0
10
16.02228
20
26.741671
11
15.752828
21
26.4904177
0
LINE
8
0
10
15.752828
20
26.4904177
11
15.68559
21
26.427719
0
LINE
8
0
10
15.68559
20
26.427719
11
15.4015966
21
26.2187534
0
LINE
8
0
10
15.4015966
20
26.2187534
11
15.33073
21
26.166611
0
LINE
8
0
10
15.33073
20
26.166611
11
15.0349482
21
26.0019659
0
LINE
8
0
10
15.0349482
20
26.0019659
11
14.96114
21
25.960881
0
LINE
8
0
10
14.96114
20
25.960881
11
14.6564029
21
25.8421329
0
LINE
8
0
10
14.6564029
20
25.8421329
11
14.58036
21
25.812499
0
LINE
8
0
10
14.58036
20
25.812499
11
14.2696127
21
25.7407843
0
LINE
8
0
10
14.2696127
20
25.7407843
11
14.19207
21
25.722891
0
LINE
8
0
10
14.19207
20
25.722891
11
13.8782975
21
25.6989061
0
LINE
8
0
10
13.8782975
20
25.6989061
11
13.8
21
25.692921
0
LINE
8
0
10
13.8
20
25.692921
11
4.67661356
21
25.692921
0
LINE
8
0
10
4.67661356
20
25.692921
11
2.4
21
25.6929198
0
LINE
8
0
10
2.4
20
25.6929198
11
2.4
21
27.2381818
0
LINE
8
0
10
2.4
20
27.2381818
11
2.4
21
28.0427564
0
LINE
8
0
10
2.4
20
28.0427564
11
2.4
21
29.0133573
0
LINE
8
0
10
2.4
20
29.0133573
11
2.4
21
39.8314955
0
LINE
8
0
10
2.4
20
39.8314955
11
2.4
21
40.5575001
0
LINE
8
0
10
2.4
20
40.5575001
11
3.50413337
21
40.5575001
0
LINE
8
0
10
3.50413337
20
40.5575001
11
16
21
40.5575001
0
LINE
8
0
10
16
20
40.5575001
11
16
21
39.3465853
0
LINE
8
0
10
16
20
39.3465853
11
16
21
38.6497424
0
LINE
8
0
10
16
20
38.6497424
11
16
21
36.3178757
0
LINE
8
0
10
16
20
36.3178757
11
16
21
35.8512634
0
LINE
8
0
10
16
20
35.8512634
11
16
21
35.8512634
0
LINE
8
0
10
35.2
20
6.12913782
11
35.2
21
8.30203871
0
LINE
8
0
10
35.2
20
8.30203871
11
35.2
21
10
0
LINE
8
0
10
35.2
20
10
11
33.0719164
21
10
0
LINE
8
0
10
33.0719164
20
10
11
30.2
21
10
0
LINE
8
0
10
30.2
20
10
11
30.2
21
10.7290747
0
LINE
8
0
10
30.2
20
10.7290747
11
30.2
21
11.53281
0
LINE
8
0
10
30.2
20
11.53281
11
30.2
21
11.5974573
0
LINE
8
0
10
30.2
20
11.5974573
11
30.2
21
11.69043
0
LINE
8
0
10
30.2
20
11.69043
11
30.2
21
11.7741163
0
LINE
8
0
10
30.2
20
11.7741163
11
30.2
21
11.89597
0
LINE
8
0
10
30.2
20
11.89597
11
30.2
21
11.9928402
0
LINE
8
0
10
30.2
20
11.9928402
11
30.2
21
12.13557
0
LINE
8
0
10
30.2
20
12.13557
11
30.2
21
12.2390234
0
LINE
8
0
10
30.2
20
12.2390234
11
30.2
21
12.39302
0
LINE
8
0
10
30.2
20
12.39302
11
30.2
21
12.4961873
0
LINE
8
0
10
30.2
20
12.4961873
11
30.2
21
12.65094
0
LINE
8
0
10
30.2
20
12.65094
11
30.2
21
13.5971645
0
LINE
8
0
10
30.2
20
13.5971645
11
30.2
21
15
0
LINE
8
0
10
30.2
20
15
11
29.3997029
21
15
0
LINE
8
0
10
29.3997029
20
15
11
28.2
21
15
0
LINE
8
0
10
28.2
20
15
11
28.2
21
9.40215658
0
LINE
8
0
10
28.2
20
9.40215658
11
28.2
21
8.87679629
0
LINE
8
0
10
28.2
20
8.87679629
11
28.2
21
8.82251808
0
LINE
8
0
10
28.2
20
8.82251808
11
28.2
21
8.44908138
0
LINE
8
0
10
28.2
20
8.44908138
11
28.2
21
6.12913782
0
LINE
8
0
10
28.2
20
6.12913782
11
28.9992467
21
4.98680721
0
LINE
8
0
10
28.9992467
20
4.98680721
11
29.4
21
4.4140267
0
LINE
8
0
10
29.4
20
4.4140267
11
32.1801685
21
4.4140267
0
LINE
8
0
10
32.1801685
20
4.4140267
11
34
21
4.4140267
0
LINE
8
0
10
34
20
4.4140267
11
34.4007533
21
4.98680721
0
LINE
8
0
10
34.4007533
20
4.98680721
11
35.2
21
6.12913782
0
LINE
8
0
10
35.2
20
6.12913782
11
35.2
21
6.12913782
0
LINE
8
0
10
35.2
20
-10.7716283
11
35.2
21
-10.4535682
0
LINE
8
0
10
35.2
20
-10.4535682
11
34.2804721
21
-9.52494429
0
LINE
8
0
10
34.2804721
20
-9.52494429
11
34
21
-9.22170175
0
LINE
8
0
10
34
20
-9.22170175
11
33.2962756
21
-9.22170175
0
LINE
8
0
10
33.2962756
20
-9.22170175
11
29.4
21
-9.22170175
0
LINE
8
0
10
29.4
20
-9.22170175
11
29.1195279
21
-9.52494429
0
LINE
8
0
10
29.1195279
20
-9.52494429
11
28.2
21
-10.4535682
0
LINE
8
0
10
28.2
20
-10.4535682
11
28.2
21
-10.8284817
0
LINE
8
0
10
28.2
20
-10.8284817
11
28.2
21
-11.2415103
0
LINE
8
0
10
28.2
20
-11.2415103
11
28.2
21
-13.5
0
LINE
8
0
10
28.2
20
-13.5
11
28.2048527
21
-13.5987625
0
LINE
8
0
10
28.2048527
20
-13.5987625
11
28.21204
21
-13.74504
0
LINE
8
0
10
28.21204
20
-13.74504
11
28.2710609
21
-14.0694011
0
LINE
8
0
10
28.2710609
20
-14.0694011
11
28.2780415
21
-14.1163931
0
LINE
8
0
10
28.2780415
20
-14.1163931
11
28.3051187
21
-14.2057611
0
LINE
8
0
10
28.3051187
20
-14.2057611
11
28.5075165
21
-14.6943926
0
LINE
8
0
10
28.5075165
20
-14.6943926
11
28.550938
21
-14.7757276
0
LINE
8
0
10
28.550938
20
-14.7757276
11
28.8746564
21
-15.197615
0
LINE
8
0
10
28.8746564
20
-15.197615
11
28.93223
21
-15.26777
0
LINE
8
0
10
28.93223
20
-15.26777
11
28.9978247
21
-15.3216012
0
LINE
8
0
10
28.9978247
20
-15.3216012
11
29.4259448
21
-15.6501019
0
LINE
8
0
10
29.4259448
20
-15.6501019
11
29.4987945
21
-15.6891237
0
LINE
8
0
10
29.4987945
20
-15.6891237
11
30.001432
21
-15.8973229
0
LINE
8
0
10
30.001432
20
-15.8973229
11
30.0783762
21
-15.9207388
0
LINE
8
0
10
30.0783762
20
-15.9207388
11
30.4129648
21
-15.9717279
0
LINE
8
0
10
30.4129648
20
-15.9717279
11
30.7
21
-16
0
LINE
8
0
10
30.7
20
-16
11
31.4570006
21
-16
0
LINE
8
0
10
31.4570006
20
-16
11
32.7
21
-16
0
LINE
8
0
10
32.7
20
-16
11
32.9172615
21
-15.9786004
0
LINE
8
0
10
32.9172615
20
-15.9786004
11
33.1252469
21
-15.9440124
0
LINE
8
0
10
33.1252469
20
-15.9440124
11
33.34705
21
-15.91481
0
LINE
8
0
10
33.34705
20
-15.91481
11
33.536628
21
-15.8362842
0
LINE
8
0
10
33.536628
20
-15.8362842
11
33.95
21
-15.66506
0
LINE
8
0
10
33.95
20
-15.66506
11
34.1127959
21
-15.5401451
0
LINE
8
0
10
34.1127959
20
-15.5401451
11
34.46777
21
-15.26777
0
LINE
8
0
10
34.46777
20
-15.26777
11
34.5926849
21
-15.1049741
0
LINE
8
0
10
34.5926849
20
-15.1049741
11
34.86506
21
-14.75
0
LINE
8
0
10
34.86506
20
-14.75
11
34.9435858
21
-14.560422
0
LINE
8
0
10
34.9435858
20
-14.560422
11
35.11481
21
-14.14705
0
LINE
8
0
10
35.11481
20
-14.14705
11
35.130138
21
-14.0306284
0
LINE
8
0
10
35.130138
20
-14.0306284
11
35.1930878
21
-13.6406783
0
LINE
8
0
10
35.1930878
20
-13.6406783
11
35.2
21
-13.5
0
LINE
8
0
10
35.2
20
-13.5
11
35.2
21
-11.1165464
0
LINE
8
0
10
35.2
20
-11.1165464
11
35.2
21
-10.7716283
0
LINE
8
0
10
35.2
20
-10.7716283
11
35.2
21
-10.7716283
0
LINE
8
0
10
71.9488034
20
-6.1035133
11
71.9378525
21
-6.0565662
0
LINE
8
0
10
71.9378525
20
-6.0565662
11
71.8814375
21
-5.81310435
0
LINE
8
0
10
71.8814375
20
-5.81310435
11
71.8583268
21
-5.74460179
0
LINE
8
0
10
71.8583268
20
-5.74460179
11
71.7839821
21
-5.52280388
0
LINE
8
0
10
71.7839821
20
-5.52280388
11
71.7433736
21
-5.43278177
0
LINE
8
0
10
71.7433736
20
-5.43278177
11
71.655682
21
-5.23717646
0
LINE
8
0
10
71.655682
20
-5.23717646
11
71.5921927
21
-5.12730887
0
LINE
8
0
10
71.5921927
20
-5.12730887
11
71.4967003
21
-4.96105246
0
LINE
8
0
10
71.4967003
20
-4.96105246
11
71.4055249
21
-4.83482593
0
LINE
8
0
10
71.4055249
20
-4.83482593
11
71.3081904
21
-4.69930256
0
LINE
8
0
10
71.3081904
20
-4.69930256
11
71.1857636
21
-4.56195634
0
LINE
8
0
10
71.1857636
20
-4.56195634
11
71.0923463
21
-4.45658184
0
LINE
8
0
10
71.0923463
20
-4.45658184
11
70.9370009
21
-4.31475948
0
LINE
8
0
10
70.9370009
20
-4.31475948
11
70.8523371
21
-4.23707424
0
LINE
8
0
10
70.8523371
20
-4.23707424
11
70.6646941
21
-4.09820419
0
LINE
8
0
10
70.6646941
20
-4.09820419
11
70.5921369
21
-4.04425701
0
LINE
8
0
10
70.5921369
20
-4.04425701
11
70.3752732
21
-3.91576365
0
LINE
8
0
10
70.3752732
20
-3.91576365
11
70.3163733
21
-3.88071877
0
LINE
8
0
10
70.3163733
20
-3.88071877
11
70.0755477
21
-3.76920037
0
LINE
8
0
10
70.0755477
20
-3.76920037
11
70.030022
21
-3.74804436
0
LINE
8
0
10
70.030022
20
-3.74804436
11
69.7720965
21
-3.65859692
0
LINE
8
0
10
69.7720965
20
-3.65859692
11
69.7381352
21
-3.64678475
0
LINE
8
0
10
69.7381352
20
-3.64678475
11
69.4708338
21
-3.58257524
0
LINE
8
0
10
69.4708338
20
-3.58257524
11
69.4455887
21
-3.57649777
0
LINE
8
0
10
69.4455887
20
-3.57649777
11
69.1766687
21
-3.53866222
0
LINE
8
0
10
69.1766687
20
-3.53866222
11
69.1568374
21
-3.53586825
0
LINE
8
0
10
69.1568374
20
-3.53586825
11
69.1378121
21
-3.53498812
0
LINE
8
0
10
69.1378121
20
-3.53498812
11
68.86904
21
-3.50628454
0
LINE
8
0
10
68.86904
20
-3.50628454
11
61.7195566
21
-3.51995451
0
LINE
8
0
10
61.7195566
20
-3.51995451
11
58.5
21
-3.51188375
0
LINE
8
0
10
58.5
20
-3.51188375
11
58.2195279
21
-3.81512652
0
LINE
8
0
10
58.2195279
20
-3.81512652
11
57.3
21
-4.74375076
0
LINE
8
0
10
57.3
20
-4.74375076
11
57.3
21
-5.38851811
0
LINE
8
0
10
57.3
20
-5.38851811
11
57.3
21
-5.40700332
0
LINE
8
0
10
57.3
20
-5.40700332
11
57.3
21
-6.3045169
0
LINE
8
0
10
57.3
20
-6.3045169
11
57.3
21
-6.346648
0
LINE
8
0
10
57.3
20
-6.346648
11
57.3
21
-14.17729
0
LINE
8
0
10
57.3
20
-14.17729
11
57.3
21
-14.3616155
0
LINE
8
0
10
57.3
20
-14.3616155
11
57.3
21
-14.5
0
LINE
8
0
10
57.3
20
-14.5
11
57.3150681
21
-14.6369695
0
LINE
8
0
10
57.3150681
20
-14.6369695
11
57.3275857
21
-14.7095398
0
LINE
8
0
10
57.3275857
20
-14.7095398
11
57.3436329
21
-14.8314342
0
LINE
8
0
10
57.3436329
20
-14.8314342
11
57.35111
21
-14.88823
0
LINE
8
0
10
57.35111
20
-14.88823
11
57.4632751
21
-15.1590207
0
LINE
8
0
10
57.4632751
20
-15.1590207
11
57.50096
21
-15.25
0
LINE
8
0
10
57.50096
20
-15.25
11
57.6793913
21
-15.482534
0
LINE
8
0
10
57.6793913
20
-15.482534
11
57.73934
21
-15.56066
0
LINE
8
0
10
57.73934
20
-15.56066
11
57.971874
21
-15.7390913
0
LINE
8
0
10
57.971874
20
-15.7390913
11
58.05
21
-15.79904
0
LINE
8
0
10
58.05
20
-15.79904
11
58.3207907
21
-15.9112051
0
LINE
8
0
10
58.3207907
20
-15.9112051
11
58.41177
21
-15.94889
0
LINE
8
0
10
58.41177
20
-15.94889
11
58.437366
21
-15.953882
0
LINE
8
0
10
58.437366
20
-15.953882
11
58.6422762
21
-15.9913697
0
LINE
8
0
10
58.6422762
20
-15.9913697
11
58.67679
21
-15.99493
0
LINE
8
0
10
58.67679
20
-15.99493
11
58.7115735
21
-15.9970768
0
LINE
8
0
10
58.7115735
20
-15.9970768
11
58.73836
21
-15.99873
0
LINE
8
0
10
58.73836
20
-15.99873
11
58.7732073
21
-15.999448
0
LINE
8
0
10
58.7732073
20
-15.999448
11
58.8
21
-16
0
LINE
8
0
10
58.8
20
-16
11
63.814466
21
-16
0
LINE
8
0
10
63.814466
20
-16
11
69.5
21
-16
0
LINE
8
0
10
69.5
20
-16
11
70.0507906
21
-15.9274834
0
LINE
8
0
10
70.0507906
20
-15.9274834
11
70.14705
21
-15.91481
0
LINE
8
0
10
70.14705
20
-15.91481
11
70.6603012
21
-15.7022144
0
LINE
8
0
10
70.6603012
20
-15.7022144
11
70.75
21
-15.66506
0
LINE
8
0
10
70.75
20
-15.66506
11
71.1907431
21
-15.3268735
0
LINE
8
0
10
71.1907431
20
-15.3268735
11
71.26777
21
-15.26777
0
LINE
8
0
10
71.26777
20
-15.26777
11
71.6059565
21
-14.8270269
0
LINE
8
0
10
71.6059565
20
-14.8270269
11
71.66506
21
-14.75
0
LINE
8
0
10
71.66506
20
-14.75
11
71.8776556
21
-14.2367488
0
LINE
8
0
10
71.8776556
20
-14.2367488
11
71.91481
21
-14.14705
0
LINE
8
0
10
71.91481
20
-14.14705
11
71.9274834
21
-14.0507906
0
LINE
8
0
10
71.9274834
20
-14.0507906
11
72
21
-13.5
0
LINE
8
0
10
72
20
-13.5
11
72
21
-7.78782868
0
LINE
8
0
10
72
20
-7.78782868
11
72
21
-7.61898868
0
LINE
8
0
10
72
20
-7.61898868
11
72
21
-6.69080201
0
LINE
8
0
10
72
20
-6.69080201
11
72
21
-6.66822613
0
LINE
8
0
10
72
20
-6.66822613
11
71.9996173
21
-6.66020914
0
LINE
8
0
10
71.9996173
20
-6.66020914
11
71.9876149
21
-6.38991277
0
LINE
8
0
10
71.9876149
20
-6.38991277
11
71.9839794
21
-6.36325157
0
LINE
8
0
10
71.9839794
20
-6.36325157
11
71.9488034
21
-6.1035133
0
LINE
8
0
10
71.9488034
20
-6.1035133
11
71.9488034
21
-6.1035133
0
LINE
8
0
10
72
20
19.571935
11
72
21
19.4710483
0
LINE
8
0
10
72
20
19.4710483
11
72
21
18.6993992
0
LINE
8
0
10
72
20
18.6993992
11
72
21
18.6964802
0
LINE
8
0
10
72
20
18.6964802
11
71.9768626
21
18.0290389
0
LINE
8
0
10
71.9768626
20
18.0290389
11
71.9569511
21
17.7106273
0
LINE
8
0
10
71.9569511
20
17.7106273
11
71.8897864
21
17.0652104
0
LINE
8
0
10
71.8897864
20
17.0652104
11
71.778701
21
16.4323034
0
LINE
8
0
10
71.778701
20
16.4323034
11
71.7157185
21
16.0986933
0
LINE
8
0
10
71.7157185
20
16.0986933
11
71.5660746
21
15.5015803
0
LINE
8
0
10
71.5660746
20
15.5015803
11
71.4487777
21
15.1434917
0
LINE
8
0
10
71.4487777
20
15.1434917
11
71.2650995
21
14.5888909
0
LINE
8
0
10
71.2650995
20
14.5888909
11
71.0442846
21
14.0626751
0
LINE
8
0
10
71.0442846
20
14.0626751
11
70.8713984
21
13.7112108
0
LINE
8
0
10
70.8713984
20
13.7112108
11
70.6249876
21
13.2365836
0
LINE
8
0
10
70.6249876
20
13.2365836
11
70.3472109
21
12.7987526
0
LINE
8
0
10
70.3472109
20
12.7987526
11
70.1164692
21
12.4702474
0
LINE
8
0
10
70.1164692
20
12.4702474
11
69.8221611
21
12.0891526
0
LINE
8
0
10
69.8221611
20
12.0891526
11
69.5031406
21
11.7511138
0
LINE
8
0
10
69.5031406
20
11.7511138
11
69.2155129
21
11.4642607
0
LINE
8
0
10
69.2155129
20
11.4642607
11
68.888343
21
11.1840784
0
LINE
8
0
10
68.888343
20
11.1840784
11
68.5435432
21
10.9510651
0
LINE
8
0
10
68.5435432
20
10.9510651
11
68.2042987
21
10.7255789
0
LINE
8
0
10
68.2042987
20
10.7255789
11
67.8577497
21
10.5484091
0
LINE
8
0
10
67.8577497
20
10.5484091
11
67.4683987
21
10.3997466
0
LINE
8
0
10
67.4683987
20
10.3997466
11
67.1201589
21
10.2751104
0
LINE
8
0
10
67.1201589
20
10.2751104
11
66.765046
21
10.199842
0
LINE
8
0
10
66.765046
20
10.199842
11
66.3553418
21
10.1487873
0
LINE
8
0
10
66.3553418
20
10.1487873
11
66
21
10.1238443
0
LINE
8
0
10
66
20
10.1238443
11
64.4886524
21
10.1238444
0
LINE
8
0
10
64.4886524
20
10.1238444
11
63.1
21
10.1238444
0
LINE
8
0
10
63.1
20
10.1238444
11
63.1
21
10.9576913
0
LINE
8
0
10
63.1
20
10.9576913
11
63.1
21
17.8150628
0
LINE
8
0
10
63.1
20
17.8150628
11
63.1
21
25.3889231
0
LINE
8
0
10
63.1
20
25.3889231
11
63.1
21
29.7799149
0
LINE
8
0
10
63.1
20
29.7799149
11
63.2173723
21
29.9264163
0
LINE
8
0
10
63.2173723
20
29.9264163
11
63.8248519
21
30.6846437
0
LINE
8
0
10
63.8248519
20
30.6846437
11
63.9
21
30.77844
0
LINE
8
0
10
63.9
20
30.77844
11
66.2670403
21
30.7784403
0
LINE
8
0
10
66.2670403
20
30.7784403
11
67.2353326
21
30.7784389
0
LINE
8
0
10
67.2353326
20
30.7784389
11
67.2917025
21
30.7260386
0
LINE
8
0
10
67.2917025
20
30.7260386
11
67.332778
21
30.70141
0
LINE
8
0
10
67.332778
20
30.70141
11
67.3763998
21
30.6406941
0
LINE
8
0
10
67.3763998
20
30.6406941
11
67.4270266
21
30.588278
0
LINE
8
0
10
67.4270266
20
30.588278
11
67.4371772
21
30.58081
0
LINE
8
0
10
67.4371772
20
30.58081
11
67.4377215
21
30.5528439
0
LINE
8
0
10
67.4377215
20
30.5528439
11
67.491894
21
30.45141
0
LINE
8
0
10
67.491894
20
30.45141
11
67.4765144
21
23.8582501
0
LINE
8
0
10
67.4765144
20
23.8582501
11
67.4772613
21
23.2
0
LINE
8
0
10
67.4772613
20
23.2
11
67.5459206
21
23.2
0
LINE
8
0
10
67.5459206
20
23.2
11
67.5613079
21
23.2
0
LINE
8
0
10
67.5613079
20
23.2
11
68.3291615
21
23.2
0
LINE
8
0
10
68.3291615
20
23.2
11
68.44727
21
23.2
0
LINE
8
0
10
68.44727
20
23.2
11
69.0685419
21
23.2
0
LINE
8
0
10
69.0685419
20
23.2
11
69.2218653
21
23.2
0
LINE
8
0
10
69.2218653
20
23.2
11
69.8173786
21
23.2
0
LINE
8
0
10
69.8173786
20
23.2
11
69.9544431
21
23.2
0
LINE
8
0
10
69.9544431
20
23.2
11
70.6328619
21
23.2
0
LINE
8
0
10
70.6328619
20
23.2
11
70.6995798
21
23.2
0
LINE
8
0
10
70.6995798
20
23.2
11
71.076249
21
23.2
0
LINE
8
0
10
71.076249
20
23.2
11
71.1178107
21
28.7175792
0
LINE
8
0
10
71.1178107
20
28.7175792
11
71.118936
21
29.2741228
0
LINE
8
0
10
71.118936
20
29.2741228
11
71.244906
21
29.2741231
0
LINE
8
0
10
71.244906
20
29.2741231
11
72.1419528
21
29.2741221
0
LINE
8
0
10
72.1419528
20
29.2741221
11
72.9469536
21
29.2741255
0
LINE
8
0
10
72.9469536
20
29.2741255
11
73.5
21
29.2741246
0
LINE
8
0
10
73.5
20
29.2741246
11
73.5403802
21
29.2664728
0
LINE
8
0
10
73.5403802
20
29.2664728
11
73.62941
21
29.2495954
0
LINE
8
0
10
73.62941
20
29.2495954
11
73.6693089
21
29.2258047
0
LINE
8
0
10
73.6693089
20
29.2258047
11
73.75
21
29.1776908
0
LINE
8
0
10
73.75
20
29.1776908
11
73.7886138
21
29.1350339
0
LINE
8
0
10
73.7886138
20
29.1350339
11
73.85355
21
29.0633041
0
LINE
8
0
10
73.85355
20
29.0633041
11
73.8882133
21
28.9982731
0
LINE
8
0
10
73.8882133
20
28.9982731
11
73.93301
21
28.9142313
0
LINE
8
0
10
73.93301
20
28.9142313
11
73.9588189
21
28.8245358
0
LINE
8
0
10
73.9588189
20
28.8245358
11
73.98296
21
28.7406363
0
LINE
8
0
10
73.98296
20
28.7406363
11
73.9933204
21
28.6273724
0
LINE
8
0
10
73.9933204
20
28.6273724
11
74
21
28.5543444
0
LINE
8
0
10
74
20
28.5543444
11
74
21
28.3046469
0
LINE
8
0
10
74
20
28.3046469
11
74
21
26.9696169
0
LINE
8
0
10
74
20
26.9696169
11
74
21
22.680949
0
LINE
8
0
10
74
20
22.680949
11
74
21
22.6421184
0
LINE
8
0
10
74
20
22.6421184
11
74
21
22.6
0
LINE
8
0
10
74
20
22.6
11
73.9251497
21
22.5240984
0
LINE
8
0
10
73.9251497
20
22.5240984
11
73.68601
21
22.2816
0
LINE
8
0
10
73.68601
20
22.2816
11
73.6103168
21
22.2048411
0
LINE
8
0
10
73.6103168
20
22.2048411
11
73.44949
21
22.04175
0
LINE
8
0
10
73.44949
20
22.04175
11
73.3514751
21
21.9423568
0
LINE
8
0
10
73.3514751
20
21.9423568
11
73.15509
21
21.74321
0
LINE
8
0
10
73.15509
20
21.74321
11
72.3414257
21
20.9181059
0
LINE
8
0
10
72.3414257
20
20.9181059
11
72.2281158
21
20.8032016
0
LINE
8
0
10
72.2281158
20
20.8032016
11
72.1144107
21
20.6878996
0
LINE
8
0
10
72.1144107
20
20.6878996
11
72
21
20.57188
0
LINE
8
0
10
72
20
20.57188
11
72
21
19.571935
0
LINE
8
0
10
72
20
19.571935
11
72
21
19.571935
0
ENDSEC
0
EOF
