0
SECTION
2
ENTITIES
0
LINE
8
0
10
58.3321631
20
-15.9159157
11
58.41177
21
-15.94889
0
LINE
8
0
10
58.41177
20
-15.94889
11
58.4341665
21
-15.953258
0
LINE
8
0
10
58.4341665
20
-15.953258
11
58.6427607
21
-15.9914197
0
LINE
8
0
10
58.6427607
20
-15.9914197
11
58.67679
21
-15.99493
0
LINE
8
0
10
58.67679
20
-15.99493
11
58.7110853
21
-15.9970466
0
LINE
8
0
10
58.7110853
20
-15.9970466
11
58.73836
21
-15.99873
0
LINE
8
0
10
58.73836
20
-15.99873
11
58.7727156
21
-15.9994378
0
LINE
8
0
10
58.7727156
20
-15.9994378
11
58.8
21
-16
0
LINE
8
0
10
58.8
20
-16
11
63.9065014
21
-16
0
LINE
8
0
10
63.9065014
20
-16
11
69.5
21
-16
0
LINE
8
0
10
69.5
20
-16
11
70.062823
21
-15.9258992
0
LINE
8
0
10
70.062823
20
-15.9258992
11
70.14705
21
-15.91481
0
LINE
8
0
10
70.14705
20
-15.91481
11
70.6715135
21
-15.6975701
0
LINE
8
0
10
70.6715135
20
-15.6975701
11
70.75
21
-15.66506
0
LINE
8
0
10
70.75
20
-15.66506
11
71.2003715
21
-15.3194855
0
LINE
8
0
10
71.2003715
20
-15.3194855
11
71.26777
21
-15.26777
0
LINE
8
0
10
71.26777
20
-15.26777
11
71.6133445
21
-14.8173985
0
LINE
8
0
10
71.6133445
20
-14.8173985
11
71.66506
21
-14.75
0
LINE
8
0
10
71.66506
20
-14.75
11
71.8822999
21
-14.2255365
0
LINE
8
0
10
71.8822999
20
-14.2255365
11
71.91481
21
-14.14705
0
LINE
8
0
10
71.91481
20
-14.14705
11
71.9258992
21
-14.062823
0
LINE
8
0
10
71.9258992
20
-14.062823
11
72
21
-13.5
0
LINE
8
0
10
72
20
-13.5
11
72
21
-7.6630421
0
LINE
8
0
10
72
20
-7.6630421
11
72
21
-7.49051366
0
LINE
8
0
10
72
20
-7.49051366
11
72
21
-6.68895602
0
LINE
8
0
10
72
20
-6.68895602
11
71.9967479
21
-6.62177806
0
LINE
8
0
10
71.9967479
20
-6.62177806
11
71.9876697
21
-6.41981315
0
LINE
8
0
10
71.9876697
20
-6.41981315
11
71.9547351
21
-6.17955083
0
LINE
8
0
10
71.9547351
20
-6.17955083
11
71.9490635
21
-6.13803444
0
LINE
8
0
10
71.9490635
20
-6.13803444
11
71.8866535
21
-5.87196882
0
LINE
8
0
10
71.8866535
20
-5.87196882
11
71.8821199
21
-5.85257443
0
LINE
8
0
10
71.8821199
20
-5.85257443
11
71.8041159
21
-5.62271142
0
LINE
8
0
10
71.8041159
20
-5.62271142
11
71.7853576
21
-5.56674855
0
LINE
8
0
10
71.7853576
20
-5.56674855
11
71.7835963
21
-5.56284399
0
LINE
8
0
10
71.7835963
20
-5.56284399
11
71.6579466
21
-5.28256952
0
LINE
8
0
10
71.6579466
20
-5.28256952
11
71.6442431
21
-5.25885563
0
LINE
8
0
10
71.6442431
20
-5.25885563
11
71.5001272
21
-5.00794368
0
LINE
8
0
10
71.5001272
20
-5.00794368
11
71.4698621
21
-4.96604356
0
LINE
8
0
10
71.4698621
20
-4.96604356
11
71.3130544
21
-4.74771277
0
LINE
8
0
10
71.3130544
20
-4.74771277
11
71.2623756
21
-4.69085809
0
LINE
8
0
10
71.2623756
20
-4.69085809
11
71.0989326
21
-4.5064947
0
LINE
8
0
10
71.0989326
20
-4.5064947
11
71.025349
21
-4.43931669
0
LINE
8
0
10
71.025349
20
-4.43931669
11
70.8609091
21
-4.28843099
0
LINE
8
0
10
70.8609091
20
-4.28843099
11
70.7637164
21
-4.21650102
0
LINE
8
0
10
70.7637164
20
-4.21650102
11
70.602931
21
-4.09695515
0
LINE
8
0
10
70.602931
20
-4.09695515
11
70.4834282
21
-4.02614883
0
LINE
8
0
10
70.4834282
20
-4.02614883
11
70.3295809
21
-3.93461118
0
LINE
8
0
10
70.3295809
20
-3.93461118
11
70.1909422
21
-3.87041215
0
LINE
8
0
10
70.1909422
20
-3.87041215
11
70.0457646
21
-3.80294748
0
LINE
8
0
10
70.0457646
20
-3.80294748
11
69.8926295
21
-3.74984088
0
LINE
8
0
10
69.8926295
20
-3.74984088
11
69.7564761
21
-3.70248498
0
LINE
8
0
10
69.7564761
20
-3.70248498
11
69.5943686
21
-3.6635445
0
LINE
8
0
10
69.5943686
20
-3.6635445
11
69.4665155
21
-3.63276531
0
LINE
8
0
10
69.4665155
20
-3.63276531
11
69.3011752
21
-3.60950286
0
LINE
8
0
10
69.3011752
20
-3.60950286
11
69.1802693
21
-3.59246877
0
LINE
8
0
10
69.1802693
20
-3.59246877
11
69.0642767
21
-3.58710286
0
LINE
8
0
10
69.0642767
20
-3.58710286
11
68.8973759
21
-3.56927864
0
LINE
8
0
10
68.8973759
20
-3.56927864
11
60.0867659
21
-3.58612472
0
LINE
8
0
10
60.0867659
20
-3.58612472
11
58.5
21
-3.58248502
0
LINE
8
0
10
58.5
20
-3.58248502
11
58.3299849
21
-3.75845865
0
LINE
8
0
10
58.3299849
20
-3.75845865
11
57.3
21
-4.79863257
0
LINE
8
0
10
57.3
20
-4.79863257
11
57.3
21
-5.21131682
0
LINE
8
0
10
57.3
20
-5.21131682
11
57.3
21
-5.22314831
0
LINE
8
0
10
57.3
20
-5.22314831
11
57.3
21
-6.14022504
0
LINE
8
0
10
57.3
20
-6.14022504
11
57.3
21
-6.17708975
0
LINE
8
0
10
57.3
20
-6.17708975
11
57.3
21
-14.17729
0
LINE
8
0
10
57.3
20
-14.17729
11
57.3
21
-14.3586512
0
LINE
8
0
10
57.3
20
-14.3586512
11
57.3
21
-14.5
0
LINE
8
0
10
57.3
20
-14.5
11
57.3153909
21
-14.6399034
0
LINE
8
0
10
57.3153909
20
-14.6399034
11
57.3281766
21
-14.7140283
0
LINE
8
0
10
57.3281766
20
-14.7140283
11
57.3445675
21
-14.8385337
0
LINE
8
0
10
57.3445675
20
-14.8385337
11
57.35111
21
-14.88823
0
LINE
8
0
10
57.35111
20
-14.88823
11
57.4679857
21
-15.1703931
0
LINE
8
0
10
57.4679857
20
-15.1703931
11
57.50096
21
-15.25
0
LINE
8
0
10
57.50096
20
-15.25
11
57.6868849
21
-15.4922998
0
LINE
8
0
10
57.6868849
20
-15.4922998
11
57.73934
21
-15.56066
0
LINE
8
0
10
57.73934
20
-15.56066
11
57.9816398
21
-15.7465849
0
LINE
8
0
10
57.9816398
20
-15.7465849
11
58.05
21
-15.79904
0
LINE
8
0
10
58.05
20
-15.79904
11
58.3321631
21
-15.9159157
0
LINE
8
0
10
58.3321631
20
-15.9159157
11
58.3321631
21
-15.9159157
0
LINE
8
0
10
16
20
35.3001206
11
16
21
36.3948555
0
LINE
8
0
10
16
20
36.3948555
11
16
21
37.3779932
0
LINE
8
0
10
16
20
37.3779932
11
16
21
39.0884592
0
LINE
8
0
10
16
20
39.0884592
11
16
21
39.599606
0
LINE
8
0
10
16
20
39.599606
11
16
21
40.4878336
0
LINE
8
0
10
16
20
40.4878336
11
6.83405795
21
40.4878336
0
LINE
8
0
10
6.83405795
20
40.4878336
11
2.4
21
40.4878336
0
LINE
8
0
10
2.4
20
40.4878336
11
2.4
21
39.9552963
0
LINE
8
0
10
2.4
20
39.9552963
11
2.4
21
28.8719989
0
LINE
8
0
10
2.4
20
28.8719989
11
2.4
21
28.0227231
0
LINE
8
0
10
2.4
20
28.0227231
11
2.4
21
27.3187203
0
LINE
8
0
10
2.4
20
27.3187203
11
2.4
21
25.9666161
0
LINE
8
0
10
2.4
20
25.9666161
11
4.39203686
21
25.9666171
0
LINE
8
0
10
4.39203686
20
25.9666171
11
13.8
21
25.9666171
0
LINE
8
0
10
13.8
20
25.9666171
11
13.8685103
21
25.9718541
0
LINE
8
0
10
13.8685103
20
25.9718541
11
14.19207
21
25.9965871
0
LINE
8
0
10
14.19207
20
25.9965871
11
14.2599198
21
26.0122438
0
LINE
8
0
10
14.2599198
20
26.0122438
11
14.58036
21
26.0861953
0
LINE
8
0
10
14.58036
20
26.0861953
11
14.6468975
21
26.112125
0
LINE
8
0
10
14.6468975
20
26.112125
11
14.96114
21
26.2345771
0
LINE
8
0
10
14.96114
20
26.2345771
11
15.0257222
21
26.2705264
0
LINE
8
0
10
15.0257222
20
26.2705264
11
15.33073
21
26.4403071
0
LINE
8
0
10
15.33073
20
26.4403071
11
15.3927383
21
26.4859317
0
LINE
8
0
10
15.3927383
20
26.4859317
11
15.68559
21
26.7014153
0
LINE
8
0
10
15.68559
20
26.7014153
11
15.7444232
21
26.7562767
0
LINE
8
0
10
15.7444232
20
26.7562767
11
16.02228
21
27.0153671
0
LINE
8
0
10
16.02228
20
27.0153671
11
16.0773738
21
27.078934
0
LINE
8
0
10
16.0773738
20
27.078934
11
16.33757
21
27.3791553
0
LINE
8
0
10
16.33757
20
27.3791553
11
16.3883949
21
27.4508197
0
LINE
8
0
10
16.3883949
20
27.4508197
11
16.62843
21
27.7892671
0
LINE
8
0
10
16.62843
20
27.7892671
11
16.7153545
21
27.9540452
0
LINE
8
0
10
16.7153545
20
27.9540452
11
17.12588
21
28.7322571
0
LINE
8
0
10
17.12588
20
28.7322571
11
17.1904709
21
28.920253
0
LINE
8
0
10
17.1904709
20
28.920253
11
17.49552
21
29.8081171
0
LINE
8
0
10
17.49552
20
29.8081171
11
17.5352943
21
30.0121034
0
LINE
8
0
10
17.5352943
20
30.0121034
11
17.72314
21
30.9754871
0
LINE
8
0
10
17.72314
20
30.9754871
11
17.7365705
21
31.1876268
0
LINE
8
0
10
17.7365705
20
31.1876268
11
17.8
21
32.1895171
0
LINE
8
0
10
17.8
20
32.1895171
11
17.8
21
32.6514198
0
LINE
8
0
10
17.8
20
32.6514198
11
17.8
21
35.0919459
0
LINE
8
0
10
17.8
20
35.0919459
11
17.8
21
35.3001206
0
LINE
8
0
10
17.8
20
35.3001206
11
16.5790166
21
35.3001206
0
LINE
8
0
10
16.5790166
20
35.3001206
11
16
21
35.3001206
0
LINE
8
0
10
16
20
35.3001206
11
16
21
35.3001206
0
LINE
8
0
10
35.2
20
-10.5084502
11
35.2
21
-10.712025
0
LINE
8
0
10
35.2
20
-10.712025
11
35.2
21
-11.0644781
0
LINE
8
0
10
35.2
20
-11.0644781
11
35.2
21
-13.5
0
LINE
8
0
10
35.2
20
-13.5
11
35.1931997
21
-13.6384011
0
LINE
8
0
10
35.1931997
20
-13.6384011
11
35.1312689
21
-14.0220388
0
LINE
8
0
10
35.1312689
20
-14.0220388
11
35.11481
21
-14.14705
0
LINE
8
0
10
35.11481
20
-14.14705
11
34.9493794
21
-14.5464349
0
LINE
8
0
10
34.9493794
20
-14.5464349
11
34.86506
21
-14.75
0
LINE
8
0
10
34.86506
20
-14.75
11
34.6019012
21
-15.0929629
0
LINE
8
0
10
34.6019012
20
-15.0929629
11
34.46777
21
-15.26777
0
LINE
8
0
10
34.46777
20
-15.26777
11
34.1248071
21
-15.5309288
0
LINE
8
0
10
34.1248071
20
-15.5309288
11
33.95
21
-15.66506
0
LINE
8
0
10
33.95
20
-15.66506
11
33.5506151
21
-15.8304906
0
LINE
8
0
10
33.5506151
20
-15.8304906
11
33.34705
21
-15.91481
0
LINE
8
0
10
33.34705
20
-15.91481
11
33.132752
21
-15.9430243
0
LINE
8
0
10
33.132752
20
-15.9430243
11
32.9210958
21
-15.9782227
0
LINE
8
0
10
32.9210958
20
-15.9782227
11
32.7
21
-16
0
LINE
8
0
10
32.7
20
-16
11
31.4741074
21
-16
0
LINE
8
0
10
31.4741074
20
-16
11
30.7
21
-16
0
LINE
8
0
10
30.7
20
-16
11
30.4177287
21
-15.9721971
0
LINE
8
0
10
30.4177287
20
-15.9721971
11
30.0751979
21
-15.9199977
0
LINE
8
0
10
30.0751979
20
-15.9199977
11
30.0078718
21
-15.8995088
0
LINE
8
0
10
30.0078718
20
-15.8995088
11
29.4926952
21
-15.6861157
0
LINE
8
0
10
29.4926952
20
-15.6861157
11
29.4289517
21
-15.6519717
0
LINE
8
0
10
29.4289517
20
-15.6519717
11
28.9896254
21
-15.3148723
0
LINE
8
0
10
28.9896254
20
-15.3148723
11
28.93223
21
-15.26777
0
LINE
8
0
10
28.93223
20
-15.26777
11
28.8818531
21
-15.2063844
0
LINE
8
0
10
28.8818531
20
-15.2063844
11
28.5489383
21
-14.7725116
0
LINE
8
0
10
28.5489383
20
-14.7725116
11
28.5109444
21
-14.7013436
0
LINE
8
0
10
28.5109444
20
-14.7013436
11
28.3026276
21
-14.1984222
0
LINE
8
0
10
28.3026276
20
-14.1984222
11
28.278935
21
-14.1202252
0
LINE
8
0
10
28.278935
20
-14.1202252
11
28.2728271
21
-14.0791072
0
LINE
8
0
10
28.2728271
20
-14.0791072
11
28.21204
21
-13.74504
0
LINE
8
0
10
28.21204
20
-13.74504
11
28.2049981
21
-13.6017225
0
LINE
8
0
10
28.2049981
20
-13.6017225
11
28.2
21
-13.5
0
LINE
8
0
10
28.2
20
-13.5
11
28.2
21
-11.1738215
0
LINE
8
0
10
28.2
20
-11.1738215
11
28.2
21
-10.7484142
0
LINE
8
0
10
28.2
20
-10.7484142
11
28.2
21
-10.5084502
0
LINE
8
0
10
28.2
20
-10.5084502
11
29.2299849
21
-9.46827665
0
LINE
8
0
10
29.2299849
20
-9.46827665
11
29.4
21
-9.29230302
0
LINE
8
0
10
29.4
20
-9.29230302
11
29.6790942
21
-9.29230302
0
LINE
8
0
10
29.6790942
20
-9.29230302
11
34
21
-9.29230302
0
LINE
8
0
10
34
20
-9.29230302
11
34.1700151
21
-9.46827665
0
LINE
8
0
10
34.1700151
20
-9.46827665
11
35.2
21
-10.5084502
0
LINE
8
0
10
35.2
20
-10.5084502
11
35.2
21
-10.5084502
0
LINE
8
0
10
35.2
20
10
11
35.2
21
8.2649455
0
LINE
8
0
10
35.2
20
8.2649455
11
35.2
21
6.36365721
0
LINE
8
0
10
35.2
20
6.36365721
11
34.3506592
21
5.14972906
0
LINE
8
0
10
34.3506592
20
5.14972906
11
34
21
4.64854611
0
LINE
8
0
10
34
20
4.64854611
11
32.4076474
21
4.64854611
0
LINE
8
0
10
32.4076474
20
4.64854611
11
29.4
21
4.64854611
0
LINE
8
0
10
29.4
20
4.64854611
11
29.0493408
21
5.14972906
0
LINE
8
0
10
29.0493408
20
5.14972906
11
28.2
21
6.36365721
0
LINE
8
0
10
28.2
20
6.36365721
11
28.2
21
8.39360783
0
LINE
8
0
10
28.2
20
8.39360783
11
28.2
21
8.72036495
0
LINE
8
0
10
28.2
20
8.72036495
11
28.2
21
8.76785838
0
LINE
8
0
10
28.2
20
8.76785838
11
28.2
21
9.22754863
0
LINE
8
0
10
28.2
20
9.22754863
11
28.2
21
15
0
LINE
8
0
10
28.2
20
15
11
29.3747401
21
15
0
LINE
8
0
10
29.3747401
20
15
11
30.2
21
15
0
LINE
8
0
10
30.2
20
15
11
30.2
21
13.6263541
0
LINE
8
0
10
30.2
20
13.6263541
11
30.2
21
12.65094
0
LINE
8
0
10
30.2
20
12.65094
11
30.2
21
12.4993836
0
LINE
8
0
10
30.2
20
12.4993836
11
30.2
21
12.39302
0
LINE
8
0
10
30.2
20
12.39302
11
30.2
21
12.2422132
0
LINE
8
0
10
30.2
20
12.2422132
11
30.2
21
12.13557
0
LINE
8
0
10
30.2
20
12.13557
11
30.2
21
11.9957872
0
LINE
8
0
10
30.2
20
11.9957872
11
30.2
21
11.89597
0
LINE
8
0
10
30.2
20
11.89597
11
30.2
21
11.7766097
0
LINE
8
0
10
30.2
20
11.7766097
11
30.2
21
11.69043
0
LINE
8
0
10
30.2
20
11.69043
11
30.2
21
11.5993331
0
LINE
8
0
10
30.2
20
11.5993331
11
30.2
21
11.53281
0
LINE
8
0
10
30.2
20
11.53281
11
30.2
21
10.7450019
0
LINE
8
0
10
30.2
20
10.7450019
11
30.2
21
10
0
LINE
8
0
10
30.2
20
10
11
33.0254269
21
10
0
LINE
8
0
10
33.0254269
20
10
11
35.2
21
10
0
LINE
8
0
10
35.2
20
10
11
35.2
21
10
0
LINE
8
0
10
72
20
18.9339187
11
72
21
19.6089224
0
LINE
8
0
10
72
20
19.6089224
11
72
21
19.6971734
0
LINE
8
0
10
72
20
19.6971734
11
72
21
20.57188
0
LINE
8
0
10
72
20
20.57188
11
72.1000813
21
20.6733687
0
LINE
8
0
10
72.1000813
20
20.6733687
11
72.1995454
21
20.7742297
0
LINE
8
0
10
72.1995454
20
20.7742297
11
72.2986637
21
20.8747428
0
LINE
8
0
10
72.2986637
20
20.8747428
11
73.15509
21
21.74321
0
LINE
8
0
10
73.15509
20
21.74321
11
73.3458686
21
21.9366714
0
LINE
8
0
10
73.3458686
20
21.9366714
11
73.44949
21
22.04175
0
LINE
8
0
10
73.44949
20
22.04175
11
73.6055135
21
22.1999701
0
LINE
8
0
10
73.6055135
20
22.1999701
11
73.68601
21
22.2816
0
LINE
8
0
10
73.68601
20
22.2816
11
73.9176197
21
22.5164627
0
LINE
8
0
10
73.9176197
20
22.5164627
11
74
21
22.6
0
LINE
8
0
10
74
20
22.6
11
74
21
22.6463555
0
LINE
8
0
10
74
20
22.6463555
11
74
21
22.6890925
0
LINE
8
0
10
74
20
22.6890925
11
74
21
27.4092018
0
LINE
8
0
10
74
20
27.4092018
11
74
21
28.1735644
0
LINE
8
0
10
74
20
28.1735644
11
74
21
28.316527
0
LINE
8
0
10
74
20
28.316527
11
73.9961756
21
28.3583387
0
LINE
8
0
10
73.9961756
20
28.3583387
11
73.98296
21
28.5028174
0
LINE
8
0
10
73.98296
20
28.5028174
11
73.9671351
21
28.557815
0
LINE
8
0
10
73.9671351
20
28.557815
11
73.93301
21
28.6764124
0
LINE
8
0
10
73.93301
20
28.6764124
11
73.9012812
21
28.7359379
0
LINE
8
0
10
73.9012812
20
28.7359379
11
73.85355
21
28.8254852
0
LINE
8
0
10
73.85355
20
28.8254852
11
73.8053547
21
28.8787227
0
LINE
8
0
10
73.8053547
20
28.8787227
11
73.75
21
28.9398734
0
LINE
8
0
10
73.75
20
28.9398734
11
73.6884079
21
28.976599
0
LINE
8
0
10
73.6884079
20
28.976599
11
73.62941
21
29.011778
0
LINE
8
0
10
73.62941
20
29.011778
11
73.5604212
21
29.0248562
0
LINE
8
0
10
73.5604212
20
29.0248562
11
73.5
21
29.0363057
0
LINE
8
0
10
73.5
20
29.0363057
11
72.6724719
21
29.0363071
0
LINE
8
0
10
72.6724719
20
29.0363071
11
71.4938974
21
29.0363021
0
LINE
8
0
10
71.4938974
20
29.0363021
11
71.4938974
21
28.9696392
0
LINE
8
0
10
71.4938974
20
28.9696392
11
71.4869812
21
23.2
0
LINE
8
0
10
71.4869812
20
23.2
11
71.4392946
21
23.2
0
LINE
8
0
10
71.4392946
20
23.2
11
71.426412
21
23.2
0
LINE
8
0
10
71.426412
20
23.2
11
70.6694623
21
23.2
0
LINE
8
0
10
70.6694623
20
23.2
11
70.5207297
21
23.2
0
LINE
8
0
10
70.5207297
20
23.2
11
69.9662012
21
23.2
0
LINE
8
0
10
69.9662012
20
23.2
11
69.7521844
21
23.2
0
LINE
8
0
10
69.7521844
20
23.2
11
69.2760016
21
23.2
0
LINE
8
0
10
69.2760016
20
23.2
11
69.0458908
21
23.2
0
LINE
8
0
10
69.0458908
20
23.2
11
68.5473065
21
23.2
0
LINE
8
0
10
68.5473065
20
23.2
11
68.3477647
21
23.2
0
LINE
8
0
10
68.3477647
20
23.2
11
67.7148128
21
23.2
0
LINE
8
0
10
67.7148128
20
23.2
11
67.6072589
21
23.2
0
LINE
8
0
10
67.6072589
20
23.2
11
67.1273484
21
23.2
0
LINE
8
0
10
67.1273484
20
23.2
11
67.1221272
21
27.8010012
0
LINE
8
0
10
67.1221272
20
27.8010012
11
67.1283098
21
30.45141
0
LINE
8
0
10
67.1283098
20
30.45141
11
67.098874
21
30.5065261
0
LINE
8
0
10
67.098874
20
30.5065261
11
67.0917304
21
30.58081
0
LINE
8
0
10
67.0917304
20
30.58081
11
67.0451819
21
30.6454218
0
LINE
8
0
10
67.0451819
20
30.6454218
11
67.0049566
21
30.70141
0
LINE
8
0
10
67.0049566
20
30.70141
11
66.8928772
21
30.7686123
0
LINE
8
0
10
66.8928772
20
30.7686123
11
66.8381229
21
30.812807
0
LINE
8
0
10
66.8381229
20
30.812807
11
66.7117294
21
30.8711789
0
LINE
8
0
10
66.7117294
20
30.8711789
11
66.6409582
21
30.896219
0
LINE
8
0
10
66.6409582
20
30.896219
11
65.2291579
21
30.8962213
0
LINE
8
0
10
65.2291579
20
30.8962213
11
64.6552297
21
30.8962222
0
LINE
8
0
10
64.6552297
20
30.8962222
11
63.9
21
30.8962221
0
LINE
8
0
10
63.9
20
30.8962221
11
63.8760232
21
30.8662953
0
LINE
8
0
10
63.8760232
20
30.8662953
11
63.2256583
21
30.0545405
0
LINE
8
0
10
63.2256583
20
30.0545405
11
63.1
21
29.8976968
0
LINE
8
0
10
63.1
20
29.8976968
11
63.1
21
25.1967207
0
LINE
8
0
10
63.1
20
25.1967207
11
63.1
21
17.08818
0
LINE
8
0
10
63.1
20
17.08818
11
63.1
21
11.0879799
0
LINE
8
0
10
63.1
20
11.0879799
11
63.1
21
10.3583638
0
LINE
8
0
10
63.1
20
10.3583638
11
64.6775709
21
10.3583638
0
LINE
8
0
10
64.6775709
20
10.3583638
11
66
21
10.3583638
0
LINE
8
0
10
66
20
10.3583638
11
66.3844166
21
10.3853476
0
LINE
8
0
10
66.3844166
20
10.3853476
11
66.7429077
21
10.4300205
0
LINE
8
0
10
66.7429077
20
10.4300205
11
67.1264178
21
10.5113079
0
LINE
8
0
10
67.1264178
20
10.5113079
11
67.5025051
21
10.6459108
0
LINE
8
0
10
67.5025051
20
10.6459108
11
67.8431872
21
10.7759905
0
LINE
8
0
10
67.8431872
20
10.7759905
11
68.2157001
21
10.9664341
0
LINE
8
0
10
68.2157001
20
10.9664341
11
68.512539
21
11.1637344
0
LINE
8
0
10
68.512539
20
11.1637344
11
68.8807589
21
11.4125748
0
LINE
8
0
10
68.8807589
20
11.4125748
11
69.2301513
21
11.7117881
0
LINE
8
0
10
69.2301513
20
11.7117881
11
69.4818255
21
11.9627846
0
LINE
8
0
10
69.4818255
20
11.9627846
11
69.8200772
21
12.321201
0
LINE
8
0
10
69.8200772
20
12.321201
11
70.1321268
21
12.725269
0
LINE
8
0
10
70.1321268
20
12.725269
11
70.3340257
21
13.012711
0
LINE
8
0
10
70.3340257
20
13.012711
11
70.6265079
21
13.4737207
0
LINE
8
0
10
70.6265079
20
13.4737207
11
70.8859636
21
13.9734744
0
LINE
8
0
10
70.8859636
20
13.9734744
11
71.037239
21
14.2810057
0
LINE
8
0
10
71.037239
20
14.2810057
11
71.2682983
21
14.8316345
0
LINE
8
0
10
71.2682983
20
14.8316345
11
71.460498
21
15.4119653
0
LINE
8
0
10
71.460498
20
15.4119653
11
71.5631328
21
15.7252928
0
LINE
8
0
10
71.5631328
20
15.7252928
11
71.7188837
21
16.3467741
0
LINE
8
0
10
71.7188837
20
16.3467741
11
71.7739933
21
16.638683
0
LINE
8
0
10
71.7739933
20
16.638683
11
71.8890968
21
17.2944828
0
LINE
8
0
10
71.8890968
20
17.2944828
11
71.9586909
21
17.9632451
0
LINE
8
0
10
71.9586909
20
17.9632451
11
71.9761135
21
18.2418553
0
LINE
8
0
10
71.9761135
20
18.2418553
11
72
21
18.9309052
0
LINE
8
0
10
72
20
18.9309052
11
72
21
18.9339187
0
LINE
8
0
10
72
20
18.9339187
11
72
21
18.9339187
0
ENDSEC
0
EOF
