0
SECTION
2
ENTITIES
0
LINE
8
0
10
16
20
36.9384476
11
16
21
35.2685558
0
LINE
8
0
10
16
20
35.2685558
11
16.883223
21
35.2685558
0
LINE
8
0
10
16.883223
20
35.2685558
11
17.8
21
35.2685558
0
LINE
8
0
10
17.8
20
35.2685558
11
17.8
21
34.9510094
0
LINE
8
0
10
17.8
20
34.9510094
11
17.8
21
32.8591298
0
LINE
8
0
10
17.8
20
32.8591298
11
17.8
21
32.4632132
0
LINE
8
0
10
17.8
20
32.4632132
11
17.7346519
21
31.4310172
0
LINE
8
0
10
17.7346519
20
31.4310172
11
17.72314
21
31.2491832
0
LINE
8
0
10
17.72314
20
31.2491832
11
17.5296123
21
30.2566586
0
LINE
8
0
10
17.5296123
20
30.2566586
11
17.49552
21
30.0818132
0
LINE
8
0
10
17.49552
20
30.0818132
11
17.1812436
21
29.1670925
0
LINE
8
0
10
17.1812436
20
29.1670925
11
17.12588
21
29.0059532
0
LINE
8
0
10
17.12588
20
29.0059532
11
16.7029367
21
28.2042016
0
LINE
8
0
10
16.7029367
20
28.2042016
11
16.62843
21
28.0629632
0
LINE
8
0
10
16.62843
20
28.0629632
11
16.3811342
21
27.7142784
0
LINE
8
0
10
16.3811342
20
27.7142784
11
16.33757
21
27.6528517
0
LINE
8
0
10
16.33757
20
27.6528517
11
16.0695033
21
27.3435492
0
LINE
8
0
10
16.0695033
20
27.3435492
11
16.02228
21
27.2890632
0
LINE
8
0
10
16.02228
20
27.2890632
11
15.7360185
21
27.0221358
0
LINE
8
0
10
15.7360185
20
27.0221358
11
15.68559
21
26.9751117
0
LINE
8
0
10
15.68559
20
26.9751117
11
15.3838799
21
26.7531101
0
LINE
8
0
10
15.3838799
20
26.7531101
11
15.33073
21
26.7140032
0
LINE
8
0
10
15.33073
20
26.7140032
11
15.0164962
21
26.5390869
0
LINE
8
0
10
15.0164962
20
26.5390869
11
14.96114
21
26.5082732
0
LINE
8
0
10
14.96114
20
26.5082732
11
14.6373922
21
26.3821172
0
LINE
8
0
10
14.6373922
20
26.3821172
11
14.58036
21
26.3598917
0
LINE
8
0
10
14.58036
20
26.3598917
11
14.250227
21
26.2837033
0
LINE
8
0
10
14.250227
20
26.2837033
11
14.19207
21
26.2702832
0
LINE
8
0
10
14.19207
20
26.2702832
11
13.8587231
21
26.244802
0
LINE
8
0
10
13.8587231
20
26.244802
11
13.8
21
26.2403132
0
LINE
8
0
10
13.8
20
26.2403132
11
4.10746017
21
26.2403132
0
LINE
8
0
10
4.10746017
20
26.2403132
11
2.4
21
26.2403123
0
LINE
8
0
10
2.4
20
26.2403123
11
2.4
21
27.3992588
0
LINE
8
0
10
2.4
20
27.3992588
11
2.4
21
28.0026898
0
LINE
8
0
10
2.4
20
28.0026898
11
2.4
21
28.7306404
0
LINE
8
0
10
2.4
20
28.7306404
11
2.4
21
40.079097
0
LINE
8
0
10
2.4
20
40.079097
11
2.4
21
40.4181672
0
LINE
8
0
10
2.4
20
40.4181672
11
10.1639825
21
40.4181672
0
LINE
8
0
10
10.1639825
20
40.4181672
11
16
21
40.4181672
0
LINE
8
0
10
16
20
40.4181672
11
16
21
39.8526266
0
LINE
8
0
10
16
20
39.8526266
11
16
21
39.527176
0
LINE
8
0
10
16
20
39.527176
11
16
21
38.4381107
0
LINE
8
0
10
16
20
38.4381107
11
16
21
36.9384476
0
LINE
8
0
10
16
20
36.9384476
11
16
21
36.9384476
0
LINE
8
0
10
35.2
20
8.22785228
11
35.2
21
10
0
LINE
8
0
10
35.2
20
10
11
32.9789373
21
10
0
LINE
8
0
10
32.9789373
20
10
11
30.2
21
10
0
LINE
8
0
10
30.2
20
10
11
30.2
21
10.7609291
0
LINE
8
0
10
30.2
20
10.7609291
11
30.2
21
11.53281
0
LINE
8
0
10
30.2
20
11.53281
11
30.2
21
11.6012089
0
LINE
8
0
10
30.2
20
11.6012089
11
30.2
21
11.69043
0
LINE
8
0
10
30.2
20
11.69043
11
30.2
21
11.7791031
0
LINE
8
0
10
30.2
20
11.7791031
11
30.2
21
11.89597
0
LINE
8
0
10
30.2
20
11.89597
11
30.2
21
11.9987342
0
LINE
8
0
10
30.2
20
11.9987342
11
30.2
21
12.13557
0
LINE
8
0
10
30.2
20
12.13557
11
30.2
21
12.245403
0
LINE
8
0
10
30.2
20
12.245403
11
30.2
21
12.39302
0
LINE
8
0
10
30.2
20
12.39302
11
30.2
21
12.5025798
0
LINE
8
0
10
30.2
20
12.5025798
11
30.2
21
12.65094
0
LINE
8
0
10
30.2
20
12.65094
11
30.2
21
13.6555436
0
LINE
8
0
10
30.2
20
13.6555436
11
30.2
21
15
0
LINE
8
0
10
30.2
20
15
11
29.3497772
21
15
0
LINE
8
0
10
29.3497772
20
15
11
28.2
21
15
0
LINE
8
0
10
28.2
20
15
11
28.2
21
9.05294068
0
LINE
8
0
10
28.2
20
9.05294068
11
28.2
21
8.65892047
0
LINE
8
0
10
28.2
20
8.65892047
11
28.2
21
8.61821181
0
LINE
8
0
10
28.2
20
8.61821181
11
28.2
21
8.33813429
0
LINE
8
0
10
28.2
20
8.33813429
11
28.2
21
6.59817661
0
LINE
8
0
10
28.2
20
6.59817661
11
29.099435
21
5.31265091
0
LINE
8
0
10
29.099435
20
5.31265091
11
29.4
21
4.88306553
0
LINE
8
0
10
29.4
20
4.88306553
11
32.6351264
21
4.88306553
0
LINE
8
0
10
32.6351264
20
4.88306553
11
34
21
4.88306553
0
LINE
8
0
10
34
20
4.88306553
11
34.300565
21
5.31265091
0
LINE
8
0
10
34.300565
20
5.31265091
11
35.2
21
6.59817661
0
LINE
8
0
10
35.2
20
6.59817661
11
35.2
21
8.22785228
0
LINE
8
0
10
35.2
20
8.22785228
11
35.2
21
8.22785228
0
LINE
8
0
10
35.2
20
-11.0124098
11
35.2
21
-13.5
0
LINE
8
0
10
35.2
20
-13.5
11
35.1933116
21
-13.6361238
0
LINE
8
0
10
35.1933116
20
-13.6361238
11
35.1323998
21
-14.0134491
0
LINE
8
0
10
35.1323998
20
-14.0134491
11
35.11481
21
-14.14705
0
LINE
8
0
10
35.11481
20
-14.14705
11
34.9551731
21
-14.5324477
0
LINE
8
0
10
34.9551731
20
-14.5324477
11
34.86506
21
-14.75
0
LINE
8
0
10
34.86506
20
-14.75
11
34.6111174
21
-15.0809518
0
LINE
8
0
10
34.6111174
20
-15.0809518
11
34.46777
21
-15.26777
0
LINE
8
0
10
34.46777
20
-15.26777
11
34.1368182
21
-15.5217126
0
LINE
8
0
10
34.1368182
20
-15.5217126
11
33.95
21
-15.66506
0
LINE
8
0
10
33.95
20
-15.66506
11
33.5646023
21
-15.8246969
0
LINE
8
0
10
33.5646023
20
-15.8246969
11
33.34705
21
-15.91481
0
LINE
8
0
10
33.34705
20
-15.91481
11
33.1402571
21
-15.9420362
0
LINE
8
0
10
33.1402571
20
-15.9420362
11
32.9249302
21
-15.977845
0
LINE
8
0
10
32.9249302
20
-15.977845
11
32.7
21
-16
0
LINE
8
0
10
32.7
20
-16
11
31.4912141
21
-16
0
LINE
8
0
10
31.4912141
20
-16
11
30.7
21
-16
0
LINE
8
0
10
30.7
20
-16
11
30.4224927
21
-15.9726663
0
LINE
8
0
10
30.4224927
20
-15.9726663
11
30.0720197
21
-15.9192566
0
LINE
8
0
10
30.0720197
20
-15.9192566
11
30.0143115
21
-15.9016947
0
LINE
8
0
10
30.0143115
20
-15.9016947
11
29.4865959
21
-15.6831078
0
LINE
8
0
10
29.4865959
20
-15.6831078
11
29.4319586
21
-15.6538414
0
LINE
8
0
10
29.4319586
20
-15.6538414
11
28.981426
21
-15.3081434
0
LINE
8
0
10
28.981426
20
-15.3081434
11
28.93223
21
-15.26777
0
LINE
8
0
10
28.93223
20
-15.26777
11
28.8890498
21
-15.2151538
0
LINE
8
0
10
28.8890498
20
-15.2151538
11
28.5469385
21
-14.7692957
0
LINE
8
0
10
28.5469385
20
-14.7692957
11
28.5143723
21
-14.7082945
0
LINE
8
0
10
28.5143723
20
-14.7082945
11
28.3001365
21
-14.1910833
0
LINE
8
0
10
28.3001365
20
-14.1910833
11
28.2798286
21
-14.1240573
0
LINE
8
0
10
28.2798286
20
-14.1240573
11
28.2745932
21
-14.0888133
0
LINE
8
0
10
28.2745932
20
-14.0888133
11
28.21204
21
-13.74504
0
LINE
8
0
10
28.21204
20
-13.74504
11
28.2051436
21
-13.6046825
0
LINE
8
0
10
28.2051436
20
-13.6046825
11
28.2
21
-13.5
0
LINE
8
0
10
28.2
20
-13.5
11
28.2
21
-11.1061327
0
LINE
8
0
10
28.2
20
-11.1061327
11
28.2
21
-10.6683466
0
LINE
8
0
10
28.2
20
-10.6683466
11
28.2
21
-10.5633322
0
LINE
8
0
10
28.2
20
-10.5633322
11
28.6507477
21
-10.1081257
0
LINE
8
0
10
28.6507477
20
-10.1081257
11
29.4
21
-9.3326144
0
LINE
8
0
10
29.4
20
-9.3326144
11
30.6299612
21
-9.3326144
0
LINE
8
0
10
30.6299612
20
-9.3326144
11
34
21
-9.3326144
0
LINE
8
0
10
34
20
-9.3326144
11
34.7492523
21
-10.1081257
0
LINE
8
0
10
34.7492523
20
-10.1081257
11
35.2
21
-10.5633322
0
LINE
8
0
10
35.2
20
-10.5633322
11
35.2
21
-10.6524218
0
LINE
8
0
10
35.2
20
-10.6524218
11
35.2
21
-11.0124098
0
LINE
8
0
10
35.2
20
-11.0124098
11
35.2
21
-11.0124098
0
LINE
8
0
10
72
20
19.8224119
11
72
21
19.7467964
0
LINE
8
0
10
72
20
19.7467964
11
72
21
19.1684381
0
LINE
8
0
10
72
20
19.1684381
11
72
21
19.1653302
0
LINE
8
0
10
72
20
19.1653302
11
71.9753645
21
18.4546717
0
LINE
8
0
10
71.9753645
20
18.4546717
11
71.9604308
21
18.215863
0
LINE
8
0
10
71.9604308
20
18.215863
11
71.8884073
21
17.5237553
0
LINE
8
0
10
71.8884073
20
17.5237553
11
71.7692857
21
16.8450625
0
LINE
8
0
10
71.7692857
20
16.8450625
11
71.7220489
21
16.594855
0
LINE
8
0
10
71.7220489
20
16.594855
11
71.560191
21
15.9490052
0
LINE
8
0
10
71.560191
20
15.9490052
11
71.4722182
21
15.6804388
0
LINE
8
0
10
71.4722182
20
15.6804388
11
71.2714971
21
15.0743782
0
LINE
8
0
10
71.2714971
20
15.0743782
11
71.0301934
21
14.4993363
0
LINE
8
0
10
71.0301934
20
14.4993363
11
70.9005288
21
14.2357381
0
LINE
8
0
10
70.9005288
20
14.2357381
11
70.6280282
21
13.7108577
0
LINE
8
0
10
70.6280282
20
13.7108577
11
70.3208406
21
13.2266695
0
LINE
8
0
10
70.3208406
20
13.2266695
11
70.1477844
21
12.9802905
0
LINE
8
0
10
70.1477844
20
12.9802905
11
69.8179933
21
12.5532494
0
LINE
8
0
10
69.8179933
20
12.5532494
11
69.4605104
21
12.1744553
0
LINE
8
0
10
69.4605104
20
12.1744553
11
69.2447897
21
11.9593155
0
LINE
8
0
10
69.2447897
20
11.9593155
11
68.8731748
21
11.6410713
0
LINE
8
0
10
68.8731748
20
11.6410713
11
68.4815349
21
11.3764038
0
LINE
8
0
10
68.4815349
20
11.3764038
11
68.2271015
21
11.2072892
0
LINE
8
0
10
68.2271015
20
11.2072892
11
67.8286247
21
11.0035718
0
LINE
8
0
10
67.8286247
20
11.0035718
11
67.5366115
21
10.892075
0
LINE
8
0
10
67.5366115
20
10.892075
11
67.1326767
21
10.7475053
0
LINE
8
0
10
67.1326767
20
10.7475053
11
66.7207695
21
10.660199
0
LINE
8
0
10
66.7207695
20
10.660199
11
66.4134913
21
10.6219079
0
LINE
8
0
10
66.4134913
20
10.6219079
11
66
21
10.5928832
0
LINE
8
0
10
66
20
10.5928832
11
64.8664893
21
10.5928833
0
LINE
8
0
10
64.8664893
20
10.5928833
11
63.1
21
10.5928833
0
LINE
8
0
10
63.1
20
10.5928833
11
63.1
21
11.2182685
0
LINE
8
0
10
63.1
20
11.2182685
11
63.1
21
16.3612971
0
LINE
8
0
10
63.1
20
16.3612971
11
63.1
21
25.0045183
0
LINE
8
0
10
63.1
20
25.0045183
11
63.1
21
30.0154787
0
LINE
8
0
10
63.1
20
30.0154787
11
63.2339442
21
30.1826647
0
LINE
8
0
10
63.2339442
20
30.1826647
11
63.8498506
21
30.95141
0
LINE
8
0
10
63.8498506
20
30.95141
11
64.5896383
21
30.95141
0
LINE
8
0
10
64.5896383
20
30.95141
11
65.0034792
21
30.95141
0
LINE
8
0
10
65.0034792
20
30.95141
11
66.0760459
21
30.95141
0
LINE
8
0
10
66.0760459
20
30.95141
11
66.1235334
21
30.9495359
0
LINE
8
0
10
66.1235334
20
30.9495359
11
66.2029687
21
30.9434548
0
LINE
8
0
10
66.2029687
20
30.9434548
11
66.2628499
21
30.9356988
0
LINE
8
0
10
66.2628499
20
30.9356988
11
66.3087706
21
30.9216585
0
LINE
8
0
10
66.3087706
20
30.9216585
11
66.4475099
21
30.88442
0
LINE
8
0
10
66.4475099
20
30.88442
11
66.5584049
21
30.8227608
0
LINE
8
0
10
66.5584049
20
30.8227608
11
66.5904606
21
30.80496
0
LINE
8
0
10
66.5904606
20
30.80496
11
66.689175
21
30.7116853
0
LINE
8
0
10
66.689175
20
30.7116853
11
66.7000687
21
30.70141
0
LINE
8
0
10
66.7000687
20
30.70141
11
66.7674601
21
30.5832755
0
LINE
8
0
10
66.7674601
20
30.5832755
11
66.7688706
21
30.58081
0
LINE
8
0
10
66.7688706
20
30.58081
11
66.7693153
21
30.5783648
0
LINE
8
0
10
66.7693153
20
30.5783648
11
66.8091194
21
30.45141
0
LINE
8
0
10
66.8091194
20
30.45141
11
66.8029224
21
23.7822306
0
LINE
8
0
10
66.8029224
20
23.7822306
11
66.8029224
21
23.2
0
LINE
8
0
10
66.8029224
20
23.2
11
66.8714044
21
23.2
0
LINE
8
0
10
66.8714044
20
23.2
11
66.8944613
21
23.2
0
LINE
8
0
10
66.8944613
20
23.2
11
67.6685973
21
23.2
0
LINE
8
0
10
67.6685973
20
23.2
11
67.8683176
21
23.2
0
LINE
8
0
10
67.8683176
20
23.2
11
68.3663679
21
23.2
0
LINE
8
0
10
68.3663679
20
23.2
11
68.647343
21
23.2
0
LINE
8
0
10
68.647343
20
23.2
11
69.0232397
21
23.2
0
LINE
8
0
10
69.0232397
20
23.2
11
69.3301379
21
23.2
0
LINE
8
0
10
69.3301379
20
23.2
11
69.6869902
21
23.2
0
LINE
8
0
10
69.6869902
20
23.2
11
69.9779593
21
23.2
0
LINE
8
0
10
69.9779593
20
23.2
11
70.4085974
21
23.2
0
LINE
8
0
10
70.4085974
20
23.2
11
70.6393448
21
23.2
0
LINE
8
0
10
70.6393448
20
23.2
11
71.258481
21
23.2
0
LINE
8
0
10
71.258481
20
23.2
11
71.3649031
21
23.2
0
LINE
8
0
10
71.3649031
20
23.2
11
71.7588392
21
23.2
0
LINE
8
0
10
71.7588392
20
23.2
11
71.7625681
21
26.3106699
0
LINE
8
0
10
71.7625681
20
26.3106699
11
71.7625681
21
28.7984859
0
LINE
8
0
10
71.7625681
20
28.7984859
11
72.3979902
21
28.7984886
0
LINE
8
0
10
72.3979902
20
28.7984886
11
73.5
21
28.7984868
0
LINE
8
0
10
73.5
20
28.7984868
11
73.5804622
21
28.7832397
0
LINE
8
0
10
73.5804622
20
28.7832397
11
73.62941
21
28.7739606
0
LINE
8
0
10
73.62941
20
28.7739606
11
73.707507
21
28.7273934
0
LINE
8
0
10
73.707507
20
28.7273934
11
73.75
21
28.7020559
0
LINE
8
0
10
73.75
20
28.7020559
11
73.8220956
21
28.6224115
0
LINE
8
0
10
73.8220956
20
28.6224115
11
73.85355
21
28.5876664
0
LINE
8
0
10
73.85355
20
28.5876664
11
73.9143491
21
28.4736026
0
LINE
8
0
10
73.9143491
20
28.4736026
11
73.93301
21
28.4385935
0
LINE
8
0
10
73.93301
20
28.4385935
11
73.9754512
21
28.2910942
0
LINE
8
0
10
73.9754512
20
28.2910942
11
73.98296
21
28.2649985
0
LINE
8
0
10
73.98296
20
28.2649985
11
73.9990309
21
28.089305
0
LINE
8
0
10
73.9990309
20
28.089305
11
74
21
28.0787096
0
LINE
8
0
10
74
20
28.0787096
11
74
21
28.0424818
0
LINE
8
0
10
74
20
28.0424818
11
74
21
27.8487867
0
LINE
8
0
10
74
20
27.8487867
11
74
21
22.6972359
0
LINE
8
0
10
74
20
22.6972359
11
74
21
22.6505927
0
LINE
8
0
10
74
20
22.6505927
11
74
21
22.6
0
LINE
8
0
10
74
20
22.6
11
73.9100898
21
22.508827
0
LINE
8
0
10
73.9100898
20
22.508827
11
73.68601
21
22.2816
0
LINE
8
0
10
73.68601
20
22.2816
11
73.6007101
21
22.1950991
0
LINE
8
0
10
73.6007101
20
22.1950991
11
73.44949
21
22.04175
0
LINE
8
0
10
73.44949
20
22.04175
11
73.340262
21
21.930986
0
LINE
8
0
10
73.340262
20
21.930986
11
73.15509
21
21.74321
0
LINE
8
0
10
73.15509
20
21.74321
11
72.2559017
21
20.8313796
0
LINE
8
0
10
72.2559017
20
20.8313796
11
72.1709749
21
20.7452577
0
LINE
8
0
10
72.1709749
20
20.7452577
11
72.0857519
21
20.6588378
0
LINE
8
0
10
72.0857519
20
20.6588378
11
72
21
20.57188
0
LINE
8
0
10
72
20
20.57188
11
72
21
19.8224119
0
LINE
8
0
10
72
20
19.8224119
11
72
21
19.8224119
0
LINE
8
0
10
72
20
-7.36203864
11
72
21
-6.70664776
0
LINE
8
0
10
72
20
-6.70664776
11
71.9930633
21
-6.56335751
0
LINE
8
0
10
71.9930633
20
-6.56335751
11
71.987715
21
-6.44437239
0
LINE
8
0
10
71.987715
20
-6.44437239
11
71.968312
21
-6.30282481
0
LINE
8
0
10
71.968312
20
-6.30282481
11
71.9492605
21
-6.1633674
0
LINE
8
0
10
71.9492605
20
-6.1633674
11
71.9111227
21
-6.00077866
0
LINE
8
0
10
71.9111227
20
-6.00077866
11
71.8825959
21
-5.87874216
0
LINE
8
0
10
71.8825959
20
-5.87874216
11
71.8205236
21
-5.69582671
0
LINE
8
0
10
71.8205236
20
-5.69582671
11
71.7862747
21
-5.59457134
0
LINE
8
0
10
71.7862747
20
-5.59457134
11
71.6949994
21
-5.39349636
0
LINE
8
0
10
71.6949994
20
-5.39349636
11
71.6596399
21
-5.31535007
0
LINE
8
0
10
71.6596399
20
-5.31535007
11
71.5343355
21
-5.09993097
0
LINE
8
0
10
71.5343355
20
-5.09993097
11
71.50295
21
-5.04581042
0
LINE
8
0
10
71.50295
20
-5.04581042
11
71.3397881
21
-4.82153551
0
LINE
8
0
10
71.3397881
20
-4.82153551
11
71.3174173
21
-4.79069546
0
LINE
8
0
10
71.3174173
20
-4.79069546
11
71.1142489
21
-4.56450952
0
LINE
8
0
10
71.1142489
20
-4.56450952
11
71.1052871
21
-4.55450463
0
LINE
8
0
10
71.1052871
20
-4.55450463
11
70.9703566
21
-4.43234852
0
LINE
8
0
10
70.9703566
20
-4.43234852
11
70.869481
21
-4.33978774
0
LINE
8
0
10
70.869481
20
-4.33978774
11
70.8627386
21
-4.33479786
0
LINE
8
0
10
70.8627386
20
-4.33479786
11
70.6137252
21
-4.1496533
0
LINE
8
0
10
70.6137252
20
-4.1496533
11
70.5915832
21
-4.13653401
0
LINE
8
0
10
70.5915832
20
-4.13653401
11
70.3427886
21
-3.9885036
0
LINE
8
0
10
70.3427886
20
-3.9885036
11
70.3063367
21
-3.97162392
0
LINE
8
0
10
70.3063367
20
-3.97162392
11
70.0615072
21
-3.85785059
0
LINE
8
0
10
70.0615072
20
-3.85785059
11
70.0131624
21
-3.84108483
0
LINE
8
0
10
70.0131624
20
-3.84108483
11
69.7748169
21
-3.75818521
0
LINE
8
0
10
69.7748169
20
-3.75818521
11
69.7179033
21
-3.74451377
0
LINE
8
0
10
69.7179033
20
-3.74451377
11
69.4874422
21
-3.68903286
0
LINE
8
0
10
69.4874422
20
-3.68903286
11
69.4256817
21
-3.6803435
0
LINE
8
0
10
69.4256817
20
-3.6803435
11
69.2037012
21
-3.64906929
0
LINE
8
0
10
69.2037012
20
-3.64906929
11
68.9907413
21
-3.63921759
0
LINE
8
0
10
68.9907413
20
-3.63921759
11
68.9257118
21
-3.63227275
0
LINE
8
0
10
68.9257118
20
-3.63227275
11
65.4928372
21
-3.63883648
0
LINE
8
0
10
65.4928372
20
-3.63883648
11
58.5
21
-3.6227964
0
LINE
8
0
10
58.5
20
-3.6227964
11
57.7507477
21
-4.39830773
0
LINE
8
0
10
57.7507477
20
-4.39830773
11
57.3
21
-4.85351437
0
LINE
8
0
10
57.3
20
-4.85351437
11
57.3
21
-5.03411553
0
LINE
8
0
10
57.3
20
-5.03411553
11
57.3
21
-5.03929329
0
LINE
8
0
10
57.3
20
-5.03929329
11
57.3
21
-5.97593318
0
LINE
8
0
10
57.3
20
-5.97593318
11
57.3
21
-6.0075315
0
LINE
8
0
10
57.3
20
-6.0075315
11
57.3
21
-14.17729
0
LINE
8
0
10
57.3
20
-14.17729
11
57.3
21
-14.355687
0
LINE
8
0
10
57.3
20
-14.355687
11
57.3
21
-14.5
0
LINE
8
0
10
57.3
20
-14.5
11
57.3157136
21
-14.6428374
0
LINE
8
0
10
57.3157136
20
-14.6428374
11
57.3287675
21
-14.7185167
0
LINE
8
0
10
57.3287675
20
-14.7185167
11
57.3455022
21
-14.8456331
0
LINE
8
0
10
57.3455022
20
-14.8456331
11
57.35111
21
-14.88823
0
LINE
8
0
10
57.35111
20
-14.88823
11
57.4726964
21
-15.1817655
0
LINE
8
0
10
57.4726964
20
-15.1817655
11
57.50096
21
-15.25
0
LINE
8
0
10
57.50096
20
-15.25
11
57.6943785
21
-15.5020655
0
LINE
8
0
10
57.6943785
20
-15.5020655
11
57.73934
21
-15.56066
0
LINE
8
0
10
57.73934
20
-15.56066
11
57.9914055
21
-15.7540785
0
LINE
8
0
10
57.9914055
20
-15.7540785
11
58.05
21
-15.79904
0
LINE
8
0
10
58.05
20
-15.79904
11
58.3435355
21
-15.9206264
0
LINE
8
0
10
58.3435355
20
-15.9206264
11
58.41177
21
-15.94889
0
LINE
8
0
10
58.41177
20
-15.94889
11
58.430967
21
-15.952634
0
LINE
8
0
10
58.430967
20
-15.952634
11
58.6432451
21
-15.9914696
0
LINE
8
0
10
58.6432451
20
-15.9914696
11
58.67679
21
-15.99493
0
LINE
8
0
10
58.67679
20
-15.99493
11
58.7105971
21
-15.9970165
0
LINE
8
0
10
58.7105971
20
-15.9970165
11
58.73836
21
-15.99873
0
LINE
8
0
10
58.73836
20
-15.99873
11
58.7722238
21
-15.9994277
0
LINE
8
0
10
58.7722238
20
-15.9994277
11
58.8
21
-16
0
LINE
8
0
10
58.8
20
-16
11
63.9985368
21
-16
0
LINE
8
0
10
63.9985368
20
-16
11
69.5
21
-16
0
LINE
8
0
10
69.5
20
-16
11
70.0748554
21
-15.9243151
0
LINE
8
0
10
70.0748554
20
-15.9243151
11
70.14705
21
-15.91481
0
LINE
8
0
10
70.14705
20
-15.91481
11
70.6827259
21
-15.6929258
0
LINE
8
0
10
70.6827259
20
-15.6929258
11
70.75
21
-15.66506
0
LINE
8
0
10
70.75
20
-15.66506
11
71.2099999
21
-15.3120976
0
LINE
8
0
10
71.2099999
20
-15.3120976
11
71.26777
21
-15.26777
0
LINE
8
0
10
71.26777
20
-15.26777
11
71.6207324
21
-14.8077701
0
LINE
8
0
10
71.6207324
20
-14.8077701
11
71.66506
21
-14.75
0
LINE
8
0
10
71.66506
20
-14.75
11
71.8869442
21
-14.2143241
0
LINE
8
0
10
71.8869442
20
-14.2143241
11
71.91481
21
-14.14705
0
LINE
8
0
10
71.91481
20
-14.14705
11
71.9243151
21
-14.0748554
0
LINE
8
0
10
71.9243151
20
-14.0748554
11
72
21
-13.5
0
LINE
8
0
10
72
20
-13.5
11
72
21
-7.53825551
0
LINE
8
0
10
72
20
-7.53825551
11
72
21
-7.36203864
0
LINE
8
0
10
72
20
-7.36203864
11
72
21
-7.36203864
0
ENDSEC
0
EOF
