0
SECTION
2
ENTITIES
0
LINE
8
0
10
16
20
40.3485008
11
16
21
40.1056473
0
LINE
8
0
10
16
20
40.1056473
11
16
21
39.9658928
0
LINE
8
0
10
16
20
39.9658928
11
16
21
39.4982282
0
LINE
8
0
10
16
20
39.4982282
11
16
21
37.4820396
0
LINE
8
0
10
16
20
37.4820396
11
16
21
35.236991
0
LINE
8
0
10
16
20
35.236991
11
17.1874294
21
35.236991
0
LINE
8
0
10
17.1874294
20
35.236991
11
17.8
21
35.236991
0
LINE
8
0
10
17.8
20
35.236991
11
17.8
21
34.8100728
0
LINE
8
0
10
17.8
20
34.8100728
11
17.8
21
33.0668398
0
LINE
8
0
10
17.8
20
33.0668398
11
17.8
21
32.7369094
0
LINE
8
0
10
17.8
20
32.7369094
11
17.7327332
21
31.6744077
0
LINE
8
0
10
17.7327332
20
31.6744077
11
17.72314
21
31.5228794
0
LINE
8
0
10
17.72314
20
31.5228794
11
17.5239302
21
30.5012139
0
LINE
8
0
10
17.5239302
20
30.5012139
11
17.49552
21
30.3555094
0
LINE
8
0
10
17.49552
20
30.3555094
11
17.1720164
21
29.4139321
0
LINE
8
0
10
17.1720164
20
29.4139321
11
17.12588
21
29.2796494
0
LINE
8
0
10
17.12588
20
29.2796494
11
16.6905189
21
28.454358
0
LINE
8
0
10
16.6905189
20
28.454358
11
16.62843
21
28.3366594
0
LINE
8
0
10
16.62843
20
28.3366594
11
16.3738735
21
27.977737
0
LINE
8
0
10
16.3738735
20
27.977737
11
16.33757
21
27.9265481
0
LINE
8
0
10
16.33757
20
27.9265481
11
16.0616327
21
27.6081643
0
LINE
8
0
10
16.0616327
20
27.6081643
11
16.02228
21
27.5627594
0
LINE
8
0
10
16.02228
20
27.5627594
11
15.7276137
21
27.2879948
0
LINE
8
0
10
15.7276137
20
27.2879948
11
15.68559
21
27.2488081
0
LINE
8
0
10
15.68559
20
27.2488081
11
15.3750216
21
27.0202884
0
LINE
8
0
10
15.3750216
20
27.0202884
11
15.33073
21
26.9876994
0
LINE
8
0
10
15.33073
20
26.9876994
11
15.0072701
21
26.8076474
0
LINE
8
0
10
15.0072701
20
26.8076474
11
14.96114
21
26.7819694
0
LINE
8
0
10
14.96114
20
26.7819694
11
14.6278868
21
26.6521093
0
LINE
8
0
10
14.6278868
20
26.6521093
11
14.58036
21
26.6335881
0
LINE
8
0
10
14.58036
20
26.6335881
11
14.2405342
21
26.5551627
0
LINE
8
0
10
14.2405342
20
26.5551627
11
14.19207
21
26.5439794
0
LINE
8
0
10
14.19207
20
26.5439794
11
13.848936
21
26.51775
0
LINE
8
0
10
13.848936
20
26.51775
11
13.8
21
26.5140094
0
LINE
8
0
10
13.8
20
26.5140094
11
3.82288347
21
26.5140094
0
LINE
8
0
10
3.82288347
20
26.5140094
11
2.4
21
26.5140086
0
LINE
8
0
10
2.4
20
26.5140086
11
2.4
21
27.4797974
0
LINE
8
0
10
2.4
20
27.4797974
11
2.4
21
27.9826565
0
LINE
8
0
10
2.4
20
27.9826565
11
2.4
21
28.589282
0
LINE
8
0
10
2.4
20
28.589282
11
2.4
21
40.2028978
0
LINE
8
0
10
2.4
20
40.2028978
11
2.4
21
40.3485008
0
LINE
8
0
10
2.4
20
40.3485008
11
13.4939071
21
40.3485008
0
LINE
8
0
10
13.4939071
20
40.3485008
11
16
21
40.3485008
0
LINE
8
0
10
16
20
40.3485008
11
16
21
40.3485008
0
LINE
8
0
10
35.2
20
6.83269601
11
35.2
21
8.19075907
0
LINE
8
0
10
35.2
20
8.19075907
11
35.2
21
10
0
LINE
8
0
10
35.2
20
10
11
32.9324478
21
10
0
LINE
8
0
10
32.9324478
20
10
11
30.2
21
10
0
LINE
8
0
10
30.2
20
10
11
30.2
21
10.7768563
0
LINE
8
0
10
30.2
20
10.7768563
11
30.2
21
11.53281
0
LINE
8
0
10
30.2
20
11.53281
11
30.2
21
11.6030848
0
LINE
8
0
10
30.2
20
11.6030848
11
30.2
21
11.69043
0
LINE
8
0
10
30.2
20
11.69043
11
30.2
21
11.7815965
0
LINE
8
0
10
30.2
20
11.7815965
11
30.2
21
11.89597
0
LINE
8
0
10
30.2
20
11.89597
11
30.2
21
12.0016812
0
LINE
8
0
10
30.2
20
12.0016812
11
30.2
21
12.13557
0
LINE
8
0
10
30.2
20
12.13557
11
30.2
21
12.2485929
0
LINE
8
0
10
30.2
20
12.2485929
11
30.2
21
12.39302
0
LINE
8
0
10
30.2
20
12.39302
11
30.2
21
12.5057761
0
LINE
8
0
10
30.2
20
12.5057761
11
30.2
21
12.65094
0
LINE
8
0
10
30.2
20
12.65094
11
30.2
21
13.6847332
0
LINE
8
0
10
30.2
20
13.6847332
11
30.2
21
15
0
LINE
8
0
10
30.2
20
15
11
29.3248143
21
15
0
LINE
8
0
10
29.3248143
20
15
11
28.2
21
15
0
LINE
8
0
10
28.2
20
15
11
28.2
21
8.87833274
0
LINE
8
0
10
28.2
20
8.87833274
11
28.2
21
8.54998256
0
LINE
8
0
10
28.2
20
8.54998256
11
28.2
21
8.51605868
0
LINE
8
0
10
28.2
20
8.51605868
11
28.2
21
8.28266074
0
LINE
8
0
10
28.2
20
8.28266074
11
28.2
21
6.83269601
0
LINE
8
0
10
28.2
20
6.83269601
11
29.1495292
21
5.47557276
0
LINE
8
0
10
29.1495292
20
5.47557276
11
29.4
21
5.11758494
0
LINE
8
0
10
29.4
20
5.11758494
11
32.8626053
21
5.11758494
0
LINE
8
0
10
32.8626053
20
5.11758494
11
34
21
5.11758494
0
LINE
8
0
10
34
20
5.11758494
11
34.2504708
21
5.47557276
0
LINE
8
0
10
34.2504708
20
5.47557276
11
35.2
21
6.83269601
0
LINE
8
0
10
35.2
20
6.83269601
11
35.2
21
6.83269601
0
LINE
8
0
10
35.2
20
-10.6100315
11
35.2
21
-10.9603415
0
LINE
8
0
10
35.2
20
-10.9603415
11
35.2
21
-13.5
0
LINE
8
0
10
35.2
20
-13.5
11
35.1934235
21
-13.6338466
0
LINE
8
0
10
35.1934235
20
-13.6338466
11
35.1335307
21
-14.0048595
0
LINE
8
0
10
35.1335307
20
-14.0048595
11
35.11481
21
-14.14705
0
LINE
8
0
10
35.11481
20
-14.14705
11
34.9609667
21
-14.5184606
0
LINE
8
0
10
34.9609667
20
-14.5184606
11
34.86506
21
-14.75
0
LINE
8
0
10
34.86506
20
-14.75
11
34.6203337
21
-15.0689407
0
LINE
8
0
10
34.6203337
20
-15.0689407
11
34.46777
21
-15.26777
0
LINE
8
0
10
34.46777
20
-15.26777
11
34.1488293
21
-15.5124963
0
LINE
8
0
10
34.1488293
20
-15.5124963
11
33.95
21
-15.66506
0
LINE
8
0
10
33.95
20
-15.66506
11
33.5785894
21
-15.8189033
0
LINE
8
0
10
33.5785894
20
-15.8189033
11
33.34705
21
-15.91481
0
LINE
8
0
10
33.34705
20
-15.91481
11
33.1477621
21
-15.9410481
0
LINE
8
0
10
33.1477621
20
-15.9410481
11
32.9287646
21
-15.9774673
0
LINE
8
0
10
32.9287646
20
-15.9774673
11
32.7
21
-16
0
LINE
8
0
10
32.7
20
-16
11
31.5083209
21
-16
0
LINE
8
0
10
31.5083209
20
-16
11
30.7
21
-16
0
LINE
8
0
10
30.7
20
-16
11
30.4272566
21
-15.9731356
0
LINE
8
0
10
30.4272566
20
-15.9731356
11
30.0688414
21
-15.9185155
0
LINE
8
0
10
30.0688414
20
-15.9185155
11
30.0207513
21
-15.9038806
0
LINE
8
0
10
30.0207513
20
-15.9038806
11
29.4804966
21
-15.6800998
0
LINE
8
0
10
29.4804966
20
-15.6800998
11
29.4349655
21
-15.6557112
0
LINE
8
0
10
29.4349655
20
-15.6557112
11
28.9732267
21
-15.3014145
0
LINE
8
0
10
28.9732267
20
-15.3014145
11
28.93223
21
-15.26777
0
LINE
8
0
10
28.93223
20
-15.26777
11
28.8962465
21
-15.2239231
0
LINE
8
0
10
28.8962465
20
-15.2239231
11
28.5449388
21
-14.7660797
0
LINE
8
0
10
28.5449388
20
-14.7660797
11
28.5178003
21
-14.7152454
0
LINE
8
0
10
28.5178003
20
-14.7152454
11
28.2976454
21
-14.1837444
0
LINE
8
0
10
28.2976454
20
-14.1837444
11
28.2807222
21
-14.1278894
0
LINE
8
0
10
28.2807222
20
-14.1278894
11
28.2763593
21
-14.0985194
0
LINE
8
0
10
28.2763593
20
-14.0985194
11
28.21204
21
-13.74504
0
LINE
8
0
10
28.21204
20
-13.74504
11
28.205289
21
-13.6076425
0
LINE
8
0
10
28.205289
20
-13.6076425
11
28.2
21
-13.5
0
LINE
8
0
10
28.2
20
-13.5
11
28.2
21
-11.0384439
0
LINE
8
0
10
28.2
20
-11.0384439
11
28.2
21
-10.6100315
0
LINE
8
0
10
28.2
20
-10.6100315
11
28.2962366
21
-10.5153727
0
LINE
8
0
10
28.2962366
20
-10.5153727
11
29.4
21
-9.37292578
0
LINE
8
0
10
29.4
20
-9.37292578
11
31.5808281
21
-9.37292578
0
LINE
8
0
10
31.5808281
20
-9.37292578
11
34
21
-9.37292578
0
LINE
8
0
10
34
20
-9.37292578
11
35.1037634
21
-10.5153727
0
LINE
8
0
10
35.1037634
20
-10.5153727
11
35.2
21
-10.6100315
0
LINE
8
0
10
35.2
20
-10.6100315
11
35.2
21
-10.6100315
0
LINE
8
0
10
72
20
19.3997551
11
72
21
19.4029576
0
LINE
8
0
10
72
20
19.4029576
11
72
21
19.8846704
0
LINE
8
0
10
72
20
19.8846704
11
72
21
19.9476503
0
LINE
8
0
10
72
20
19.9476503
11
72
21
20.57188
0
LINE
8
0
10
72
20
20.57188
11
72.0714225
21
20.6443069
0
LINE
8
0
10
72.0714225
20
20.6443069
11
72.1424045
21
20.7162858
0
LINE
8
0
10
72.1424045
20
20.7162858
11
72.2131398
21
20.7880164
0
LINE
8
0
10
72.2131398
20
20.7880164
11
73.15509
21
21.74321
0
LINE
8
0
10
73.15509
20
21.74321
11
73.3346555
21
21.9253006
0
LINE
8
0
10
73.3346555
20
21.9253006
11
73.44949
21
22.04175
0
LINE
8
0
10
73.44949
20
22.04175
11
73.5959067
21
22.1902282
0
LINE
8
0
10
73.5959067
20
22.1902282
11
73.68601
21
22.2816
0
LINE
8
0
10
73.68601
20
22.2816
11
73.9025598
21
22.5011912
0
LINE
8
0
10
73.9025598
20
22.5011912
11
74
21
22.6
0
LINE
8
0
10
74
20
22.6
11
74
21
22.6548298
0
LINE
8
0
10
74
20
22.6548298
11
74
21
22.7
0
LINE
8
0
10
74
20
22.7
11
73.9994174
21
22.7059138
0
LINE
8
0
10
73.9994174
20
22.7059138
11
73.99039
21
22.79755
0
LINE
8
0
10
73.99039
20
22.79755
11
73.9739615
21
22.851709
0
LINE
8
0
10
73.9739615
20
22.851709
11
73.9753919
21
24.5287769
0
LINE
8
0
10
73.9753919
20
24.5287769
11
73.9737238
21
25.45
0
LINE
8
0
10
73.9737238
20
25.45
11
73.9737238
21
27.5694589
0
LINE
8
0
10
73.9737238
20
27.5694589
11
73.9737238
21
28.0592787
0
LINE
8
0
10
73.9737238
20
28.0592787
11
73.93301
21
28.2007746
0
LINE
8
0
10
73.93301
20
28.2007746
11
73.927417
21
28.2112674
0
LINE
8
0
10
73.927417
20
28.2112674
11
73.85355
21
28.3498475
0
LINE
8
0
10
73.85355
20
28.3498475
11
73.8388365
21
28.3661003
0
LINE
8
0
10
73.8388365
20
28.3661003
11
73.75
21
28.4642385
0
LINE
8
0
10
73.75
20
28.4642385
11
73.726606
21
28.4781877
0
LINE
8
0
10
73.726606
20
28.4781877
11
73.62941
21
28.5361432
0
LINE
8
0
10
73.62941
20
28.5361432
11
73.6005032
21
28.5416231
0
LINE
8
0
10
73.6005032
20
28.5416231
11
73.5
21
28.5606679
0
LINE
8
0
10
73.5
20
28.5606679
11
72.1235084
21
28.5606701
0
LINE
8
0
10
72.1235084
20
28.5606701
11
72.0312387
21
28.5606698
0
LINE
8
0
10
72.0312387
20
28.5606698
11
72.0312387
21
23.6517006
0
LINE
8
0
10
72.0312387
20
23.6517006
11
72.0306973
21
23.2
0
LINE
8
0
10
72.0306973
20
23.2
11
71.2905116
21
23.2
0
LINE
8
0
10
71.2905116
20
23.2
11
71.09055
21
23.2
0
LINE
8
0
10
71.09055
20
23.2
11
70.6092273
21
23.2
0
LINE
8
0
10
70.6092273
20
23.2
11
70.2964651
21
23.2
0
LINE
8
0
10
70.2964651
20
23.2
11
69.9897174
21
23.2
0
LINE
8
0
10
69.9897174
20
23.2
11
69.621796
21
23.2
0
LINE
8
0
10
69.621796
20
23.2
11
69.3842742
21
23.2
0
LINE
8
0
10
69.3842742
20
23.2
11
69.0005886
21
23.2
0
LINE
8
0
10
69.0005886
20
23.2
11
68.7473795
21
23.2
0
LINE
8
0
10
68.7473795
20
23.2
11
68.3849711
21
23.2
0
LINE
8
0
10
68.3849711
20
23.2
11
68.0218225
21
23.2
0
LINE
8
0
10
68.0218225
20
23.2
11
67.7299357
21
23.2
0
LINE
8
0
10
67.7299357
20
23.2
11
67.1157855
21
23.2
0
LINE
8
0
10
67.1157855
20
23.2
11
66.9801812
21
23.2
0
LINE
8
0
10
66.9801812
20
23.2
11
66.5774182
21
23.2
0
LINE
8
0
10
66.5774182
20
23.2
11
66.5774182
21
26.6242683
0
LINE
8
0
10
66.5774182
20
26.6242683
11
66.5809744
21
30.45141
0
LINE
8
0
10
66.5809744
20
30.45141
11
66.5581326
21
30.5242637
0
LINE
8
0
10
66.5581326
20
30.5242637
11
66.5478483
21
30.58081
0
LINE
8
0
10
66.5478483
20
30.58081
11
66.5152277
21
30.6378254
0
LINE
8
0
10
66.5152277
20
30.6378254
11
66.478955
21
30.70141
0
LINE
8
0
10
66.478955
20
30.70141
11
66.4173733
21
30.7594958
0
LINE
8
0
10
66.4173733
20
30.7594958
11
66.3692577
21
30.80496
0
LINE
8
0
10
66.3692577
20
30.80496
11
66.2707582
21
30.8596575
0
LINE
8
0
10
66.2707582
20
30.8596575
11
66.2262225
21
30.88442
0
LINE
8
0
10
66.2262225
20
30.88442
11
66.1705045
21
30.8993751
0
LINE
8
0
10
66.1705045
20
30.8993751
11
66.0549334
21
30.9347111
0
LINE
8
0
10
66.0549334
20
30.9347111
11
66.0395637
21
30.9367018
0
LINE
8
0
10
66.0395637
20
30.9367018
11
65.9821531
21
30.9410968
0
LINE
8
0
10
65.9821531
20
30.9410968
11
65.8829251
21
30.9511976
0
LINE
8
0
10
65.8829251
20
30.9511976
11
65.8809916
21
30.9513972
0
LINE
8
0
10
65.8809916
20
30.9513972
11
65.8808678
21
30.95141
0
LINE
8
0
10
65.8808678
20
30.95141
11
65.8807608
21
30.95141
0
LINE
8
0
10
65.8807608
20
30.95141
11
65.8793971
21
30.95141
0
LINE
8
0
10
65.8793971
20
30.95141
11
63.7554855
21
30.95141
0
LINE
8
0
10
63.7554855
20
30.95141
11
63.2422302
21
30.3107889
0
LINE
8
0
10
63.2422302
20
30.3107889
11
63.1
21
30.1332606
0
LINE
8
0
10
63.1
20
30.1332606
11
63.1
21
24.8123159
0
LINE
8
0
10
63.1
20
24.8123159
11
63.1
21
15.6344143
0
LINE
8
0
10
63.1
20
15.6344143
11
63.1
21
11.3485571
0
LINE
8
0
10
63.1
20
11.3485571
11
63.1
21
10.8274027
0
LINE
8
0
10
63.1
20
10.8274027
11
65.0554078
21
10.8274027
0
LINE
8
0
10
65.0554078
20
10.8274027
11
66
21
10.8274027
0
LINE
8
0
10
66
20
10.8274027
11
66.4425661
21
10.8584683
0
LINE
8
0
10
66.4425661
20
10.8584683
11
66.6986312
21
10.8903775
0
LINE
8
0
10
66.6986312
20
10.8903775
11
67.1389356
21
10.9837028
0
LINE
8
0
10
67.1389356
20
10.9837028
11
67.5707179
21
11.1382391
0
LINE
8
0
10
67.5707179
20
11.1382391
11
67.8140623
21
11.2311532
0
LINE
8
0
10
67.8140623
20
11.2311532
11
68.2385029
21
11.4481443
0
LINE
8
0
10
68.2385029
20
11.4481443
11
68.4505307
21
11.5890732
0
LINE
8
0
10
68.4505307
20
11.5890732
11
68.8655907
21
11.8695677
0
LINE
8
0
10
68.8655907
20
11.8695677
11
69.2594281
21
12.2068429
0
LINE
8
0
10
69.2594281
20
12.2068429
11
69.4391954
21
12.3861261
0
LINE
8
0
10
69.4391954
20
12.3861261
11
69.8159094
21
12.7852979
0
LINE
8
0
10
69.8159094
20
12.7852979
11
70.163442
21
13.2353121
0
LINE
8
0
10
70.163442
20
13.2353121
11
70.3076555
21
13.4406279
0
LINE
8
0
10
70.3076555
20
13.4406279
11
70.6295485
21
13.9479948
0
LINE
8
0
10
70.6295485
20
13.9479948
11
70.915094
21
14.4980017
0
LINE
8
0
10
70.915094
20
14.4980017
11
71.0231479
21
14.7176669
0
LINE
8
0
10
71.0231479
20
14.7176669
11
71.2746959
21
15.3171218
0
LINE
8
0
10
71.2746959
20
15.3171218
11
71.4839385
21
15.9489123
0
LINE
8
0
10
71.4839385
20
15.9489123
11
71.5572491
21
16.1727177
0
LINE
8
0
10
71.5572491
20
16.1727177
11
71.7252141
21
16.8429358
0
LINE
8
0
10
71.7252141
20
16.8429358
11
71.7645781
21
17.0514421
0
LINE
8
0
10
71.7645781
20
17.0514421
11
71.8877177
21
17.7530277
0
LINE
8
0
10
71.8877177
20
17.7530277
11
71.9621707
21
18.4684808
0
LINE
8
0
10
71.9621707
20
18.4684808
11
71.9746154
21
18.667488
0
LINE
8
0
10
71.9746154
20
18.667488
11
72
21
19.3997551
0
LINE
8
0
10
72
20
19.3997551
11
72
21
19.3997551
0
LINE
8
0
10
72
20
-7.41346893
11
72
21
-7.23356362
0
LINE
8
0
10
72
20
-7.23356362
11
72
21
-6.7243395
0
LINE
8
0
10
72
20
-6.7243395
11
71.9893788
21
-6.50493697
0
LINE
8
0
10
71.9893788
20
-6.50493697
11
71.9877603
21
-6.46893162
0
LINE
8
0
10
71.9877603
20
-6.46893162
11
71.9818889
21
-6.4260988
0
LINE
8
0
10
71.9818889
20
-6.4260988
11
71.9494575
21
-6.18870037
0
LINE
8
0
10
71.9494575
20
-6.18870037
11
71.9355918
21
-6.1295885
0
LINE
8
0
10
71.9355918
20
-6.1295885
11
71.8830719
21
-5.90490989
0
LINE
8
0
10
71.8830719
20
-5.90490989
11
71.8572943
21
-5.82894814
0
LINE
8
0
10
71.8572943
20
-5.82894814
11
71.78717
21
-5.62162845
0
LINE
8
0
10
71.78717
20
-5.62162845
11
71.7452643
21
-5.52931214
0
LINE
8
0
10
71.7452643
20
-5.52931214
11
71.6611162
21
-5.34334055
0
LINE
8
0
10
71.6611162
20
-5.34334055
11
71.5989433
21
-5.23645504
0
LINE
8
0
10
71.5989433
20
-5.23645504
11
71.505176
21
-5.07476461
0
LINE
8
0
10
71.505176
20
-5.07476461
11
71.4191258
21
-4.95648401
0
LINE
8
0
10
71.4191258
20
-4.95648401
11
71.320575
21
-4.82062316
0
LINE
8
0
10
71.320575
20
-4.82062316
11
71.2081143
21
-4.69542139
0
LINE
8
0
10
71.2081143
20
-4.69542139
11
71.109557
21
-4.5853931
0
LINE
8
0
10
71.109557
20
-4.5853931
11
70.9696636
21
-4.45874394
0
LINE
8
0
10
70.9696636
20
-4.45874394
11
70.8752539
21
-4.37305461
0
LINE
8
0
10
70.8752539
20
-4.37305461
11
70.708729
21
-4.25093862
0
LINE
8
0
10
70.708729
20
-4.25093862
11
70.6215733
21
-4.1868719
0
LINE
8
0
10
70.6215733
20
-4.1868719
11
70.4311289
21
-4.07516011
0
LINE
8
0
10
70.4311289
20
-4.07516011
11
70.3529859
21
-4.02922673
0
LINE
8
0
10
70.3529859
20
-4.02922673
11
70.1429923
21
-3.93306637
0
LINE
8
0
10
70.1429923
20
-3.93306637
11
70.0742411
21
-3.9015263
0
LINE
8
0
10
70.0742411
20
-3.9015263
11
69.8503378
21
-3.82482713
0
LINE
8
0
10
69.8503378
20
-3.82482713
11
69.7901659
21
-3.8041844
0
LINE
8
0
10
69.7901659
20
-3.8041844
11
69.5586194
21
-3.74931623
0
LINE
8
0
10
69.5586194
20
-3.74931623
11
69.5053622
21
-3.73668231
0
LINE
8
0
10
69.5053622
20
-3.73668231
11
69.2724649
21
-3.70440423
0
LINE
8
0
10
69.2724649
20
-3.70440423
11
69.2240315
21
-3.69768688
0
LINE
8
0
10
69.2240315
20
-3.69768688
11
68.9955475
21
-3.6872958
0
LINE
8
0
10
68.9955475
20
-3.6872958
11
68.9483184
21
-3.6819627
0
LINE
8
0
10
68.9483184
20
-3.6819627
11
67.6439953
21
-3.68408216
0
LINE
8
0
10
67.6439953
20
-3.68408216
11
58.5
21
-3.66310778
0
LINE
8
0
10
58.5
20
-3.66310778
11
57.3962366
21
-4.80555467
0
LINE
8
0
10
57.3962366
20
-4.80555467
11
57.3
21
-4.90021346
0
LINE
8
0
10
57.3
20
-4.90021346
11
57.3
21
-5.81164131
0
LINE
8
0
10
57.3
20
-5.81164131
11
57.3
21
-5.83797325
0
LINE
8
0
10
57.3
20
-5.83797325
11
57.3
21
-14.17729
0
LINE
8
0
10
57.3
20
-14.17729
11
57.3
21
-14.3527227
0
LINE
8
0
10
57.3
20
-14.3527227
11
57.3
21
-14.5
0
LINE
8
0
10
57.3
20
-14.5
11
57.3160364
21
-14.6457713
0
LINE
8
0
10
57.3160364
20
-14.6457713
11
57.3293584
21
-14.7230051
0
LINE
8
0
10
57.3293584
20
-14.7230051
11
57.3464368
21
-14.8527326
0
LINE
8
0
10
57.3464368
20
-14.8527326
11
57.35111
21
-14.88823
0
LINE
8
0
10
57.35111
20
-14.88823
11
57.477407
21
-15.1931379
0
LINE
8
0
10
57.477407
20
-15.1931379
11
57.50096
21
-15.25
0
LINE
8
0
10
57.50096
20
-15.25
11
57.701872
21
-15.5118313
0
LINE
8
0
10
57.701872
20
-15.5118313
11
57.73934
21
-15.56066
0
LINE
8
0
10
57.73934
20
-15.56066
11
58.0011713
21
-15.761572
0
LINE
8
0
10
58.0011713
20
-15.761572
11
58.05
21
-15.79904
0
LINE
8
0
10
58.05
20
-15.79904
11
58.3549079
21
-15.925337
0
LINE
8
0
10
58.3549079
20
-15.925337
11
58.41177
21
-15.94889
0
LINE
8
0
10
58.41177
20
-15.94889
11
58.4277675
21
-15.95201
0
LINE
8
0
10
58.4277675
20
-15.95201
11
58.6437296
21
-15.9915196
0
LINE
8
0
10
58.6437296
20
-15.9915196
11
58.67679
21
-15.99493
0
LINE
8
0
10
58.67679
20
-15.99493
11
58.7101088
21
-15.9969864
0
LINE
8
0
10
58.7101088
20
-15.9969864
11
58.73836
21
-15.99873
0
LINE
8
0
10
58.73836
20
-15.99873
11
58.7717321
21
-15.9994176
0
LINE
8
0
10
58.7717321
20
-15.9994176
11
58.8
21
-16
0
LINE
8
0
10
58.8
20
-16
11
64.0905721
21
-16
0
LINE
8
0
10
64.0905721
20
-16
11
69.5
21
-16
0
LINE
8
0
10
69.5
20
-16
11
70.0868879
21
-15.9227309
0
LINE
8
0
10
70.0868879
20
-15.9227309
11
70.14705
21
-15.91481
0
LINE
8
0
10
70.14705
20
-15.91481
11
70.6939382
21
-15.6882815
0
LINE
8
0
10
70.6939382
20
-15.6882815
11
70.75
21
-15.66506
0
LINE
8
0
10
70.75
20
-15.66506
11
71.2196282
21
-15.3047097
0
LINE
8
0
10
71.2196282
20
-15.3047097
11
71.26777
21
-15.26777
0
LINE
8
0
10
71.26777
20
-15.26777
11
71.6281203
21
-14.7981418
0
LINE
8
0
10
71.6281203
20
-14.7981418
11
71.66506
21
-14.75
0
LINE
8
0
10
71.66506
20
-14.75
11
71.8915885
21
-14.2031118
0
LINE
8
0
10
71.8915885
20
-14.2031118
11
71.91481
21
-14.14705
0
LINE
8
0
10
71.91481
20
-14.14705
11
71.9227309
21
-14.0868879
0
LINE
8
0
10
71.9227309
20
-14.0868879
11
72
21
-13.5
0
LINE
8
0
10
72
20
-13.5
11
72
21
-7.41346893
0
LINE
8
0
10
72
20
-7.41346893
11
72
21
-7.41346893
0
ENDSEC
0
EOF
