0
SECTION
2
ENTITIES
0
LINE
8
0
10
16
20
35.2054262
11
16
21
38.0256317
0
LINE
8
0
10
16
20
38.0256317
11
16
21
40.2904741
0
LINE
8
0
10
16
20
40.2904741
11
3.19217217
21
40.2904741
0
LINE
8
0
10
3.19217217
20
40.2904741
11
2.4
21
40.2904741
0
LINE
8
0
10
2.4
20
40.2904741
11
2.4
21
39.5730044
0
LINE
8
0
10
2.4
20
39.5730044
11
2.4
21
28.4479236
0
LINE
8
0
10
2.4
20
28.4479236
11
2.4
21
27.9626232
0
LINE
8
0
10
2.4
20
27.9626232
11
2.4
21
27.5603359
0
LINE
8
0
10
2.4
20
27.5603359
11
2.4
21
26.7877049
0
LINE
8
0
10
2.4
20
26.7877049
11
3.53830678
21
26.7877055
0
LINE
8
0
10
3.53830678
20
26.7877055
11
13.8
21
26.7877055
0
LINE
8
0
10
13.8
20
26.7877055
11
13.8391488
21
26.790698
0
LINE
8
0
10
13.8391488
20
26.790698
11
14.19207
21
26.8176755
0
LINE
8
0
10
14.19207
20
26.8176755
11
14.2308413
21
26.8266222
0
LINE
8
0
10
14.2308413
20
26.8266222
11
14.58036
21
26.9072845
0
LINE
8
0
10
14.58036
20
26.9072845
11
14.6183814
21
26.9221014
0
LINE
8
0
10
14.6183814
20
26.9221014
11
14.96114
21
27.0556655
0
LINE
8
0
10
14.96114
20
27.0556655
11
14.9980441
21
27.0762079
0
LINE
8
0
10
14.9980441
20
27.0762079
11
15.33073
21
27.2613955
0
LINE
8
0
10
15.33073
20
27.2613955
11
15.3661633
21
27.2874667
0
LINE
8
0
10
15.3661633
20
27.2874667
11
15.68559
21
27.5225045
0
LINE
8
0
10
15.68559
20
27.5225045
11
15.719209
21
27.5538539
0
LINE
8
0
10
15.719209
20
27.5538539
11
16.02228
21
27.8364555
0
LINE
8
0
10
16.02228
20
27.8364555
11
16.0537622
21
27.8727795
0
LINE
8
0
10
16.0537622
20
27.8727795
11
16.33757
21
28.2002445
0
LINE
8
0
10
16.33757
20
28.2002445
11
16.3666128
21
28.2411956
0
LINE
8
0
10
16.3666128
20
28.2411956
11
16.62843
21
28.6103555
0
LINE
8
0
10
16.62843
20
28.6103555
11
16.6781011
21
28.7045144
0
LINE
8
0
10
16.6781011
20
28.7045144
11
17.12588
21
29.5533455
0
LINE
8
0
10
17.12588
20
29.5533455
11
17.1627891
21
29.6607717
0
LINE
8
0
10
17.1627891
20
29.6607717
11
17.49552
21
30.6292055
0
LINE
8
0
10
17.49552
20
30.6292055
11
17.5182482
21
30.7457691
0
LINE
8
0
10
17.5182482
20
30.7457691
11
17.72314
21
31.7965755
0
LINE
8
0
10
17.72314
20
31.7965755
11
17.7308146
21
31.9177982
0
LINE
8
0
10
17.7308146
20
31.9177982
11
17.8
21
33.0106055
0
LINE
8
0
10
17.8
20
33.0106055
11
17.8
21
33.2745499
0
LINE
8
0
10
17.8
20
33.2745499
11
17.8
21
34.6691362
0
LINE
8
0
10
17.8
20
34.6691362
11
17.8
21
35.2054262
0
LINE
8
0
10
17.8
20
35.2054262
11
17.4916358
21
35.2054262
0
LINE
8
0
10
17.4916358
20
35.2054262
11
16
21
35.2054262
0
LINE
8
0
10
16
20
35.2054262
11
16
21
35.2054262
0
LINE
8
0
10
35.2
20
8.15366585
11
35.2
21
10
0
LINE
8
0
10
35.2
20
10
11
32.8859582
21
10
0
LINE
8
0
10
32.8859582
20
10
11
30.2
21
10
0
LINE
8
0
10
30.2
20
10
11
30.2
21
10.7927834
0
LINE
8
0
10
30.2
20
10.7927834
11
30.2
21
11.53281
0
LINE
8
0
10
30.2
20
11.53281
11
30.2
21
11.6049606
0
LINE
8
0
10
30.2
20
11.6049606
11
30.2
21
11.69043
0
LINE
8
0
10
30.2
20
11.69043
11
30.2
21
11.7840899
0
LINE
8
0
10
30.2
20
11.7840899
11
30.2
21
11.89597
0
LINE
8
0
10
30.2
20
11.89597
11
30.2
21
12.0046282
0
LINE
8
0
10
30.2
20
12.0046282
11
30.2
21
12.13557
0
LINE
8
0
10
30.2
20
12.13557
11
30.2
21
12.2517827
0
LINE
8
0
10
30.2
20
12.2517827
11
30.2
21
12.39302
0
LINE
8
0
10
30.2
20
12.39302
11
30.2
21
12.5089724
0
LINE
8
0
10
30.2
20
12.5089724
11
30.2
21
12.65094
0
LINE
8
0
10
30.2
20
12.65094
11
30.2
21
13.7139227
0
LINE
8
0
10
30.2
20
13.7139227
11
30.2
21
15
0
LINE
8
0
10
30.2
20
15
11
29.2998515
21
15
0
LINE
8
0
10
29.2998515
20
15
11
28.2
21
15
0
LINE
8
0
10
28.2
20
15
11
28.2
21
8.70372479
0
LINE
8
0
10
28.2
20
8.70372479
11
28.2
21
8.44104465
0
LINE
8
0
10
28.2
20
8.44104465
11
28.2
21
8.41390554
0
LINE
8
0
10
28.2
20
8.41390554
11
28.2
21
8.22718719
0
LINE
8
0
10
28.2
20
8.22718719
11
28.2
21
7.06721541
0
LINE
8
0
10
28.2
20
7.06721541
11
29.1996233
21
5.63849461
0
LINE
8
0
10
29.1996233
20
5.63849461
11
29.4
21
5.35210435
0
LINE
8
0
10
29.4
20
5.35210435
11
33.0900842
21
5.35210435
0
LINE
8
0
10
33.0900842
20
5.35210435
11
34
21
5.35210435
0
LINE
8
0
10
34
20
5.35210435
11
34.2003767
21
5.63849461
0
LINE
8
0
10
34.2003767
20
5.63849461
11
35.2
21
7.06721541
0
LINE
8
0
10
35.2
20
7.06721541
11
35.2
21
8.15366585
0
LINE
8
0
10
35.2
20
8.15366585
11
35.2
21
8.15366585
0
LINE
8
0
10
35.2
20
-10.6280252
11
35.2
21
-10.9082732
0
LINE
8
0
10
35.2
20
-10.9082732
11
35.2
21
-13.5
0
LINE
8
0
10
35.2
20
-13.5
11
35.1935354
21
-13.6315693
0
LINE
8
0
10
35.1935354
20
-13.6315693
11
35.1346616
21
-13.9962699
0
LINE
8
0
10
35.1346616
20
-13.9962699
11
35.11481
21
-14.14705
0
LINE
8
0
10
35.11481
20
-14.14705
11
34.9667604
21
-14.5044735
0
LINE
8
0
10
34.9667604
20
-14.5044735
11
34.86506
21
-14.75
0
LINE
8
0
10
34.86506
20
-14.75
11
34.62955
21
-15.0569295
0
LINE
8
0
10
34.62955
20
-15.0569295
11
34.46777
21
-15.26777
0
LINE
8
0
10
34.46777
20
-15.26777
11
34.1608405
21
-15.50328
0
LINE
8
0
10
34.1608405
20
-15.50328
11
33.95
21
-15.66506
0
LINE
8
0
10
33.95
20
-15.66506
11
33.5925765
21
-15.8131096
0
LINE
8
0
10
33.5925765
20
-15.8131096
11
33.34705
21
-15.91481
0
LINE
8
0
10
33.34705
20
-15.91481
11
33.1552672
21
-15.9400599
0
LINE
8
0
10
33.1552672
20
-15.9400599
11
32.932599
21
-15.9770897
0
LINE
8
0
10
32.932599
20
-15.9770897
11
32.7
21
-16
0
LINE
8
0
10
32.7
20
-16
11
31.5254277
21
-16
0
LINE
8
0
10
31.5254277
20
-16
11
30.7
21
-16
0
LINE
8
0
10
30.7
20
-16
11
30.4320206
21
-15.9736048
0
LINE
8
0
10
30.4320206
20
-15.9736048
11
30.0656631
21
-15.9177744
0
LINE
8
0
10
30.0656631
20
-15.9177744
11
30.027191
21
-15.9060664
0
LINE
8
0
10
30.027191
20
-15.9060664
11
29.4743973
21
-15.6770918
0
LINE
8
0
10
29.4743973
20
-15.6770918
11
29.4379724
21
-15.6575809
0
LINE
8
0
10
29.4379724
20
-15.6575809
11
28.9650274
21
-15.2946856
0
LINE
8
0
10
28.9650274
20
-15.2946856
11
28.93223
21
-15.26777
0
LINE
8
0
10
28.93223
20
-15.26777
11
28.9034432
21
-15.2326925
0
LINE
8
0
10
28.9034432
20
-15.2326925
11
28.542939
21
-14.7628638
0
LINE
8
0
10
28.542939
20
-14.7628638
11
28.5212282
21
-14.7221963
0
LINE
8
0
10
28.5212282
20
-14.7221963
11
28.2951544
21
-14.1764055
0
LINE
8
0
10
28.2951544
20
-14.1764055
11
28.2816157
21
-14.1317215
0
LINE
8
0
10
28.2816157
20
-14.1317215
11
28.2781255
21
-14.1082255
0
LINE
8
0
10
28.2781255
20
-14.1082255
11
28.21204
21
-13.74504
0
LINE
8
0
10
28.21204
20
-13.74504
11
28.2054344
21
-13.6106025
0
LINE
8
0
10
28.2054344
20
-13.6106025
11
28.2
21
-13.5
0
LINE
8
0
10
28.2
20
-13.5
11
28.2
21
-10.9707551
0
LINE
8
0
10
28.2
20
-10.9707551
11
28.2
21
-10.6280252
0
LINE
8
0
10
28.2
20
-10.6280252
11
28.730076
21
-10.1066399
0
LINE
8
0
10
28.730076
20
-10.1066399
11
29.4
21
-9.41323717
0
LINE
8
0
10
29.4
20
-9.41323717
11
32.531695
21
-9.41323717
0
LINE
8
0
10
32.531695
20
-9.41323717
11
34
21
-9.41323717
0
LINE
8
0
10
34
20
-9.41323717
11
34.669924
21
-10.1066399
0
LINE
8
0
10
34.669924
20
-10.1066399
11
35.2
21
-10.6280252
0
LINE
8
0
10
35.2
20
-10.6280252
11
35.2
21
-10.6280252
0
LINE
8
0
10
72
20
20.0225444
11
72
21
19.6374771
0
LINE
8
0
10
72
20
19.6374771
11
72
21
19.6341801
0
LINE
8
0
10
72
20
19.6341801
11
71.9738663
21
18.8803044
0
LINE
8
0
10
71.9738663
20
18.8803044
11
71.9639105
21
18.7210987
0
LINE
8
0
10
71.9639105
20
18.7210987
11
71.8870282
21
17.9823002
0
LINE
8
0
10
71.8870282
20
17.9823002
11
71.7598705
21
17.2578217
0
LINE
8
0
10
71.7598705
20
17.2578217
11
71.7283792
21
17.0910167
0
LINE
8
0
10
71.7283792
20
17.0910167
11
71.5543073
21
16.3964302
0
LINE
8
0
10
71.5543073
20
16.3964302
11
71.4956588
21
16.2173859
0
LINE
8
0
10
71.4956588
20
16.2173859
11
71.2778948
21
15.5598655
0
LINE
8
0
10
71.2778948
20
15.5598655
11
71.0161023
21
14.9359975
0
LINE
8
0
10
71.0161023
20
14.9359975
11
70.9296592
21
14.7602654
0
LINE
8
0
10
70.9296592
20
14.7602654
11
70.6310688
21
14.1851318
0
LINE
8
0
10
70.6310688
20
14.1851318
11
70.2944704
21
13.6545863
0
LINE
8
0
10
70.2944704
20
13.6545863
11
70.1790996
21
13.4903337
0
LINE
8
0
10
70.1790996
20
13.4903337
11
69.8138255
21
13.0173463
0
LINE
8
0
10
69.8138255
20
13.0173463
11
69.4178803
21
12.5977969
0
LINE
8
0
10
69.4178803
20
12.5977969
11
69.2740664
21
12.4543703
0
LINE
8
0
10
69.2740664
20
12.4543703
11
68.8580065
21
12.0980642
0
LINE
8
0
10
68.8580065
20
12.0980642
11
68.4195266
21
11.8017425
0
LINE
8
0
10
68.4195266
20
11.8017425
11
68.2499044
21
11.6889995
0
LINE
8
0
10
68.2499044
20
11.6889995
11
67.7994998
21
11.4587346
0
LINE
8
0
10
67.7994998
20
11.4587346
11
67.6048243
21
11.3844033
0
LINE
8
0
10
67.6048243
20
11.3844033
11
67.1451944
21
11.2199002
0
LINE
8
0
10
67.1451944
20
11.2199002
11
66.676493
21
11.120556
0
LINE
8
0
10
66.676493
20
11.120556
11
66.4716409
21
11.0950286
0
LINE
8
0
10
66.4716409
20
11.0950286
11
66
21
11.0619222
0
LINE
8
0
10
66
20
11.0619222
11
65.2443262
21
11.0619222
0
LINE
8
0
10
65.2443262
20
11.0619222
11
63.1
21
11.0619222
0
LINE
8
0
10
63.1
20
11.0619222
11
63.1
21
11.4788457
0
LINE
8
0
10
63.1
20
11.4788457
11
63.1
21
14.9075314
0
LINE
8
0
10
63.1
20
14.9075314
11
63.1
21
24.6201135
0
LINE
8
0
10
63.1
20
24.6201135
11
63.1
21
30.2510425
0
LINE
8
0
10
63.1
20
30.2510425
11
63.2505162
21
30.4389131
0
LINE
8
0
10
63.2505162
20
30.4389131
11
63.6611204
21
30.95141
0
LINE
8
0
10
63.6611204
20
30.95141
11
65.3602496
21
30.95141
0
LINE
8
0
10
65.3602496
20
30.95141
11
65.6744762
21
30.95141
0
LINE
8
0
10
65.6744762
20
30.95141
11
65.6991383
21
30.95141
0
LINE
8
0
10
65.6991383
20
30.95141
11
65.7276585
21
30.9484652
0
LINE
8
0
10
65.7276585
20
30.9484652
11
65.8641622
21
30.93437
0
LINE
8
0
10
65.8641622
20
30.93437
11
66.008098
21
30.8876184
0
LINE
8
0
10
66.008098
20
30.8876184
11
66.0179442
21
30.88442
0
LINE
8
0
10
66.0179442
20
30.88442
11
66.1487414
21
30.8057125
0
LINE
8
0
10
66.1487414
20
30.8057125
11
66.1499919
21
30.80496
0
LINE
8
0
10
66.1499919
20
30.80496
11
66.1731524
21
30.7812913
0
LINE
8
0
10
66.1731524
20
30.7812913
11
66.2578413
21
30.70141
0
LINE
8
0
10
66.2578413
20
30.70141
11
66.2629953
21
30.6923753
0
LINE
8
0
10
66.2629953
20
30.6923753
11
66.3268261
21
30.58081
0
LINE
8
0
10
66.3268261
20
30.58081
11
66.3469499
21
30.4701625
0
LINE
8
0
10
66.3469499
20
30.4701625
11
66.3528294
21
30.45141
0
LINE
8
0
10
66.3528294
20
30.45141
11
66.351914
21
29.466306
0
LINE
8
0
10
66.351914
20
29.466306
11
66.351914
21
23.2
0
LINE
8
0
10
66.351914
20
23.2
11
67.088958
21
23.2
0
LINE
8
0
10
67.088958
20
23.2
11
67.3371098
21
23.2
0
LINE
8
0
10
67.3371098
20
23.2
11
67.791274
21
23.2
0
LINE
8
0
10
67.791274
20
23.2
11
68.1753273
21
23.2
0
LINE
8
0
10
68.1753273
20
23.2
11
68.4035743
21
23.2
0
LINE
8
0
10
68.4035743
20
23.2
11
68.847416
21
23.2
0
LINE
8
0
10
68.847416
20
23.2
11
68.9779374
21
23.2
0
LINE
8
0
10
68.9779374
20
23.2
11
69.4384105
21
23.2
0
LINE
8
0
10
69.4384105
20
23.2
11
69.5566018
21
23.2
0
LINE
8
0
10
69.5566018
20
23.2
11
70.0014755
21
23.2
0
LINE
8
0
10
70.0014755
20
23.2
11
70.1843328
21
23.2
0
LINE
8
0
10
70.1843328
20
23.2
11
70.5791098
21
23.2
0
LINE
8
0
10
70.5791098
20
23.2
11
70.922619
21
23.2
0
LINE
8
0
10
70.922619
20
23.2
11
71.2161201
21
23.2
0
LINE
8
0
10
71.2161201
20
23.2
11
71.8772936
21
23.2
0
LINE
8
0
10
71.8772936
20
23.2
11
71.9769009
21
23.2
0
LINE
8
0
10
71.9769009
20
23.2
11
72.1889215
21
23.2
0
LINE
8
0
10
72.1889215
20
23.2
11
72.2130325
21
23.2
0
LINE
8
0
10
72.2130325
20
23.2
11
72.3379253
21
23.2
0
LINE
8
0
10
72.3379253
20
23.2
11
72.3379253
21
26.3013512
0
LINE
8
0
10
72.3379253
20
26.3013512
11
72.3379253
21
28.3228499
0
LINE
8
0
10
72.3379253
20
28.3228499
11
72.6546633
21
28.322848
0
LINE
8
0
10
72.6546633
20
28.322848
11
72.9541165
21
28.3228499
0
LINE
8
0
10
72.9541165
20
28.3228499
11
73.5
21
28.322849
0
LINE
8
0
10
73.5
20
28.322849
11
73.6205442
21
28.3000065
0
LINE
8
0
10
73.6205442
20
28.3000065
11
73.62941
21
28.2983258
0
LINE
8
0
10
73.62941
20
28.2983258
11
73.745705
21
28.2289821
0
LINE
8
0
10
73.745705
20
28.2289821
11
73.75
21
28.2264211
0
LINE
8
0
10
73.75
20
28.2264211
11
73.8173045
21
28.1520694
0
LINE
8
0
10
73.8173045
20
28.1520694
11
73.8173045
21
27.1989615
0
LINE
8
0
10
73.8173045
20
27.1989615
11
73.8173045
21
25.45
0
LINE
8
0
10
73.8173045
20
25.45
11
73.8196634
21
24.4059066
0
LINE
8
0
10
73.8196634
20
24.4059066
11
73.8196634
21
23.0813624
0
LINE
8
0
10
73.8196634
20
23.0813624
11
73.852399
21
23.0544947
0
LINE
8
0
10
73.852399
20
23.0544947
11
73.85355
21
23.05355
0
LINE
8
0
10
73.85355
20
23.05355
11
73.9124584
21
22.9817761
0
LINE
8
0
10
73.9124584
20
22.9817761
11
73.91573
21
22.97779
0
LINE
8
0
10
73.91573
20
22.97779
11
73.9179763
21
22.9735877
0
LINE
8
0
10
73.9179763
20
22.9735877
11
73.96194
21
22.89134
0
LINE
8
0
10
73.96194
20
22.89134
11
73.9642792
21
22.8836284
0
LINE
8
0
10
73.9642792
20
22.8836284
11
73.99039
21
22.79755
0
LINE
8
0
10
73.99039
20
22.79755
11
73.9985355
21
22.7148663
0
LINE
8
0
10
73.9985355
20
22.7148663
11
74
21
22.7
0
LINE
8
0
10
74
20
22.7
11
74
21
22.6590669
0
LINE
8
0
10
74
20
22.6590669
11
74
21
22.6
0
LINE
8
0
10
74
20
22.6
11
73.8950298
21
22.4935555
0
LINE
8
0
10
73.8950298
20
22.4935555
11
73.68601
21
22.2816
0
LINE
8
0
10
73.68601
20
22.2816
11
73.5911034
21
22.1853572
0
LINE
8
0
10
73.5911034
20
22.1853572
11
73.44949
21
22.04175
0
LINE
8
0
10
73.44949
20
22.04175
11
73.3290489
21
21.9196152
0
LINE
8
0
10
73.3290489
20
21.9196152
11
73.15509
21
21.74321
0
LINE
8
0
10
73.15509
20
21.74321
11
72.1703778
21
20.7446532
0
LINE
8
0
10
72.1703778
20
20.7446532
11
72.1138341
21
20.6873138
0
LINE
8
0
10
72.1138341
20
20.6873138
11
72.0570931
21
20.629776
0
LINE
8
0
10
72.0570931
20
20.629776
11
72
21
20.57188
0
LINE
8
0
10
72
20
20.57188
11
72
21
20.0728887
0
LINE
8
0
10
72
20
20.0728887
11
72
21
20.0225444
0
LINE
8
0
10
72
20
20.0225444
11
72
21
20.0225444
0
LINE
8
0
10
72
20
-6.74203124
11
72
21
-7.10508861
0
LINE
8
0
10
72
20
-7.10508861
11
72
21
-7.28868234
0
LINE
8
0
10
72
20
-7.28868234
11
72
21
-13.5
0
LINE
8
0
10
72
20
-13.5
11
71.9211467
21
-14.0989203
0
LINE
8
0
10
71.9211467
20
-14.0989203
11
71.91481
21
-14.14705
0
LINE
8
0
10
71.91481
20
-14.14705
11
71.8962328
21
-14.1918994
0
LINE
8
0
10
71.8962328
20
-14.1918994
11
71.66506
21
-14.75
0
LINE
8
0
10
71.66506
20
-14.75
11
71.6355083
21
-14.7885134
0
LINE
8
0
10
71.6355083
20
-14.7885134
11
71.26777
21
-15.26777
0
LINE
8
0
10
71.26777
20
-15.26777
11
71.2292566
21
-15.2973217
0
LINE
8
0
10
71.2292566
20
-15.2973217
11
70.75
21
-15.66506
0
LINE
8
0
10
70.75
20
-15.66506
11
70.7051506
21
-15.6836372
0
LINE
8
0
10
70.7051506
20
-15.6836372
11
70.14705
21
-15.91481
0
LINE
8
0
10
70.14705
20
-15.91481
11
70.0989203
21
-15.9211467
0
LINE
8
0
10
70.0989203
20
-15.9211467
11
69.5
21
-16
0
LINE
8
0
10
69.5
20
-16
11
64.1826075
21
-16
0
LINE
8
0
10
64.1826075
20
-16
11
58.8
21
-16
0
LINE
8
0
10
58.8
20
-16
11
58.7712403
21
-15.9994075
0
LINE
8
0
10
58.7712403
20
-15.9994075
11
58.73836
21
-15.99873
0
LINE
8
0
10
58.73836
20
-15.99873
11
58.7096206
21
-15.9969563
0
LINE
8
0
10
58.7096206
20
-15.9969563
11
58.67679
21
-15.99493
0
LINE
8
0
10
58.67679
20
-15.99493
11
58.644214
21
-15.9915696
0
LINE
8
0
10
58.644214
20
-15.9915696
11
58.424568
21
-15.951386
0
LINE
8
0
10
58.424568
20
-15.951386
11
58.41177
21
-15.94889
0
LINE
8
0
10
58.41177
20
-15.94889
11
58.3662803
21
-15.9300476
0
LINE
8
0
10
58.3662803
20
-15.9300476
11
58.05
21
-15.79904
0
LINE
8
0
10
58.05
20
-15.79904
11
58.010937
21
-15.7690656
0
LINE
8
0
10
58.010937
20
-15.7690656
11
57.73934
21
-15.56066
0
LINE
8
0
10
57.73934
20
-15.56066
11
57.7093656
21
-15.521597
0
LINE
8
0
10
57.7093656
20
-15.521597
11
57.50096
21
-15.25
0
LINE
8
0
10
57.50096
20
-15.25
11
57.4821176
21
-15.2045103
0
LINE
8
0
10
57.4821176
20
-15.2045103
11
57.35111
21
-14.88823
0
LINE
8
0
10
57.35111
20
-14.88823
11
57.3473715
21
-14.8598321
0
LINE
8
0
10
57.3473715
20
-14.8598321
11
57.3299492
21
-14.7274936
0
LINE
8
0
10
57.3299492
20
-14.7274936
11
57.3163591
21
-14.6487053
0
LINE
8
0
10
57.3163591
20
-14.6487053
11
57.3
21
-14.5
0
LINE
8
0
10
57.3
20
-14.5
11
57.3
21
-14.3497585
0
LINE
8
0
10
57.3
20
-14.3497585
11
57.3
21
-14.17729
0
LINE
8
0
10
57.3
20
-14.17729
11
57.3
21
-5.668415
0
LINE
8
0
10
57.3
20
-5.668415
11
57.3
21
-5.64734945
0
LINE
8
0
10
57.3
20
-5.64734945
11
57.3
21
-4.91820717
0
LINE
8
0
10
57.3
20
-4.91820717
11
57.830076
21
-4.39682191
0
LINE
8
0
10
57.830076
20
-4.39682191
11
58.5
21
-3.70341917
0
LINE
8
0
10
58.5
20
-3.70341917
11
64.0499048
21
-3.71614947
0
LINE
8
0
10
64.0499048
20
-3.71614947
11
68.9608123
21
-3.7081695
0
LINE
8
0
10
68.9608123
20
-3.7081695
11
69.1386346
21
-3.72824916
0
LINE
8
0
10
69.1386346
20
-3.72824916
11
69.2391224
21
-3.73281918
0
LINE
8
0
10
69.2391224
20
-3.73281918
11
69.4178063
21
-3.75760127
0
LINE
8
0
10
69.4178063
20
-3.75760127
11
69.5188417
21
-3.77160414
0
LINE
8
0
10
69.5188417
20
-3.77160414
11
69.7040089
21
-3.81553034
0
LINE
8
0
10
69.7040089
20
-3.81553034
11
69.8019879
21
-3.83874783
0
LINE
8
0
10
69.8019879
20
-3.83874783
11
69.9932635
21
-3.9043673
0
LINE
8
0
10
69.9932635
20
-3.9043673
11
70.0843981
21
-3.93558591
0
LINE
8
0
10
70.0843981
20
-3.93558591
11
70.280785
21
-4.02567964
0
LINE
8
0
10
70.280785
20
-4.02567964
11
70.361514
21
-4.06264711
0
LINE
8
0
10
70.361514
20
-4.06264711
11
70.5611324
21
-4.17998524
0
LINE
8
0
10
70.5611324
20
-4.17998524
11
70.6285542
21
-4.21953383
0
LINE
8
0
10
70.6285542
20
-4.21953383
11
70.8285214
21
-4.36652643
0
LINE
8
0
10
70.8285214
20
-4.36652643
11
70.8808014
21
-4.4048644
0
LINE
8
0
10
70.8808014
20
-4.4048644
11
71.0772252
21
-4.58314504
0
LINE
8
0
10
71.0772252
20
-4.58314504
11
71.1138269
21
-4.61628157
0
LINE
8
0
10
71.1138269
20
-4.61628157
11
71.3019796
21
-4.82633325
0
LINE
8
0
10
71.3019796
20
-4.82633325
11
71.3237327
21
-4.85055086
0
LINE
8
0
10
71.3237327
20
-4.85055086
11
71.4984636
21
-5.09143251
0
LINE
8
0
10
71.4984636
20
-5.09143251
11
71.507402
21
-5.10371879
0
LINE
8
0
10
71.507402
20
-5.10371879
11
71.6446271
21
-5.340347
0
LINE
8
0
10
71.6446271
20
-5.340347
11
71.6625814
21
-5.37111326
0
LINE
8
0
10
71.6625814
20
-5.37111326
11
71.6632888
21
-5.37266964
0
LINE
8
0
10
71.6632888
20
-5.37266964
11
71.7879988
21
-5.64658673
0
LINE
8
0
10
71.7879988
20
-5.64658673
11
71.7931853
21
-5.6618539
0
LINE
8
0
10
71.7931853
20
-5.6618539
11
71.8834798
21
-5.92718136
0
LINE
8
0
10
71.8834798
20
-5.92718136
11
71.8901428
21
-5.9555596
0
LINE
8
0
10
71.8901428
20
-5.9555596
11
71.9496143
21
-6.20844381
0
LINE
8
0
10
71.9496143
20
-6.20844381
11
71.9551243
21
-6.24860818
0
LINE
8
0
10
71.9551243
20
-6.24860818
11
71.9877946
21
-6.48632496
0
LINE
8
0
10
71.9877946
20
-6.48632496
11
71.9900481
21
-6.53645582
0
LINE
8
0
10
71.9900481
20
-6.53645582
11
72
21
-6.74203124
0
LINE
8
0
10
72
20
-6.74203124
11
72
21
-6.74203124
0
ENDSEC
0
EOF
