0
SECTION
2
ENTITIES
0
LINE
8
0
10
16
20
38.5692238
11
16
21
40.2678556
0
LINE
8
0
10
16
20
40.2678556
11
6.39412913
21
40.2678556
0
LINE
8
0
10
6.39412913
20
40.2678556
11
2.4
21
40.2678556
0
LINE
8
0
10
2.4
20
40.2678556
11
2.4
21
36.6503758
0
LINE
8
0
10
2.4
20
36.6503758
11
2.4
21
28.3065652
0
LINE
8
0
10
2.4
20
28.3065652
11
2.4
21
27.9425899
0
LINE
8
0
10
2.4
20
27.9425899
11
2.4
21
27.6408744
0
LINE
8
0
10
2.4
20
27.6408744
11
2.4
21
27.0614012
0
LINE
8
0
10
2.4
20
27.0614012
11
3.25373008
21
27.0614016
0
LINE
8
0
10
3.25373008
20
27.0614016
11
13.8
21
27.0614016
0
LINE
8
0
10
13.8
20
27.0614016
11
13.8293616
21
27.063646
0
LINE
8
0
10
13.8293616
20
27.063646
11
14.19207
21
27.0913716
0
LINE
8
0
10
14.19207
20
27.0913716
11
14.2211485
21
27.0980816
0
LINE
8
0
10
14.2211485
20
27.0980816
11
14.58036
21
27.1809809
0
LINE
8
0
10
14.58036
20
27.1809809
11
14.6088761
21
27.1920936
0
LINE
8
0
10
14.6088761
20
27.1920936
11
14.96114
21
27.3293616
0
LINE
8
0
10
14.96114
20
27.3293616
11
14.9888181
21
27.3447684
0
LINE
8
0
10
14.9888181
20
27.3447684
11
15.33073
21
27.5350916
0
LINE
8
0
10
15.33073
20
27.5350916
11
15.357305
21
27.554645
0
LINE
8
0
10
15.357305
20
27.554645
11
15.68559
21
27.7962009
0
LINE
8
0
10
15.68559
20
27.7962009
11
15.7108042
21
27.8197129
0
LINE
8
0
10
15.7108042
20
27.8197129
11
16.02228
21
28.1101516
0
LINE
8
0
10
16.02228
20
28.1101516
11
16.0458916
21
28.1373946
0
LINE
8
0
10
16.0458916
20
28.1373946
11
16.33757
21
28.4739409
0
LINE
8
0
10
16.33757
20
28.4739409
11
16.3593521
21
28.5046542
0
LINE
8
0
10
16.3593521
20
28.5046542
11
16.62843
21
28.8840516
0
LINE
8
0
10
16.62843
20
28.8840516
11
16.6656833
21
28.9546708
0
LINE
8
0
10
16.6656833
20
28.9546708
11
17.12588
21
29.8270416
0
LINE
8
0
10
17.12588
20
29.8270416
11
17.1535618
21
29.9076113
0
LINE
8
0
10
17.1535618
20
29.9076113
11
17.49552
21
30.9029016
0
LINE
8
0
10
17.49552
20
30.9029016
11
17.5125661
21
30.9903243
0
LINE
8
0
10
17.5125661
20
30.9903243
11
17.72314
21
32.0702716
0
LINE
8
0
10
17.72314
20
32.0702716
11
17.7288959
21
32.1611886
0
LINE
8
0
10
17.7288959
20
32.1611886
11
17.8
21
33.2843016
0
LINE
8
0
10
17.8
20
33.2843016
11
17.8
21
33.4822599
0
LINE
8
0
10
17.8
20
33.4822599
11
17.8
21
34.5281997
0
LINE
8
0
10
17.8
20
34.5281997
11
17.8
21
35.1738614
0
LINE
8
0
10
17.8
20
35.1738614
11
17.7958423
21
35.1738614
0
LINE
8
0
10
17.7958423
20
35.1738614
11
16
21
35.1738614
0
LINE
8
0
10
16
20
35.1738614
11
16
21
38.5692238
0
LINE
8
0
10
16
20
38.5692238
11
16
21
38.5692238
0
LINE
8
0
10
35.2
20
7.30173481
11
35.2
21
8.11657264
0
LINE
8
0
10
35.2
20
8.11657264
11
35.2
21
10
0
LINE
8
0
10
35.2
20
10
11
32.8394687
21
10
0
LINE
8
0
10
32.8394687
20
10
11
30.2
21
10
0
LINE
8
0
10
30.2
20
10
11
30.2
21
10.8087106
0
LINE
8
0
10
30.2
20
10.8087106
11
30.2
21
11.53281
0
LINE
8
0
10
30.2
20
11.53281
11
30.2
21
11.6068364
0
LINE
8
0
10
30.2
20
11.6068364
11
30.2
21
11.69043
0
LINE
8
0
10
30.2
20
11.69043
11
30.2
21
11.7865833
0
LINE
8
0
10
30.2
20
11.7865833
11
30.2
21
11.89597
0
LINE
8
0
10
30.2
20
11.89597
11
30.2
21
12.0075752
0
LINE
8
0
10
30.2
20
12.0075752
11
30.2
21
12.13557
0
LINE
8
0
10
30.2
20
12.13557
11
30.2
21
12.2549725
0
LINE
8
0
10
30.2
20
12.2549725
11
30.2
21
12.39302
0
LINE
8
0
10
30.2
20
12.39302
11
30.2
21
12.5121687
0
LINE
8
0
10
30.2
20
12.5121687
11
30.2
21
12.65094
0
LINE
8
0
10
30.2
20
12.65094
11
30.2
21
13.7431123
0
LINE
8
0
10
30.2
20
13.7431123
11
30.2
21
15
0
LINE
8
0
10
30.2
20
15
11
29.2748886
21
15
0
LINE
8
0
10
29.2748886
20
15
11
28.2
21
15
0
LINE
8
0
10
28.2
20
15
11
28.2
21
8.52911684
0
LINE
8
0
10
28.2
20
8.52911684
11
28.2
21
8.33210673
0
LINE
8
0
10
28.2
20
8.33210673
11
28.2
21
8.31175241
0
LINE
8
0
10
28.2
20
8.31175241
11
28.2
21
8.17171364
0
LINE
8
0
10
28.2
20
8.17171364
11
28.2
21
7.30173481
0
LINE
8
0
10
28.2
20
7.30173481
11
29.2497175
21
5.80141645
0
LINE
8
0
10
29.2497175
20
5.80141645
11
29.4
21
5.58662376
0
LINE
8
0
10
29.4
20
5.58662376
11
33.3175632
21
5.58662376
0
LINE
8
0
10
33.3175632
20
5.58662376
11
34
21
5.58662376
0
LINE
8
0
10
34
20
5.58662376
11
34.1502825
21
5.80141645
0
LINE
8
0
10
34.1502825
20
5.80141645
11
35.2
21
7.30173481
0
LINE
8
0
10
35.2
20
7.30173481
11
35.2
21
7.30173481
0
LINE
8
0
10
35.2
20
-10.8562049
11
35.2
21
-10.6460189
0
LINE
8
0
10
35.2
20
-10.6460189
11
34.2360846
21
-9.69790716
0
LINE
8
0
10
34.2360846
20
-9.69790716
11
34
21
-9.45354855
0
LINE
8
0
10
34
20
-9.45354855
11
33.482562
21
-9.45354855
0
LINE
8
0
10
33.482562
20
-9.45354855
11
29.4
21
-9.45354855
0
LINE
8
0
10
29.4
20
-9.45354855
11
29.1639154
21
-9.69790716
0
LINE
8
0
10
29.1639154
20
-9.69790716
11
28.2
21
-10.6460189
0
LINE
8
0
10
28.2
20
-10.6460189
11
28.2
21
-10.9030664
0
LINE
8
0
10
28.2
20
-10.9030664
11
28.2
21
-13.5
0
LINE
8
0
10
28.2
20
-13.5
11
28.2055799
21
-13.6135624
0
LINE
8
0
10
28.2055799
20
-13.6135624
11
28.21204
21
-13.74504
0
LINE
8
0
10
28.21204
20
-13.74504
11
28.2798916
21
-14.1179316
0
LINE
8
0
10
28.2798916
20
-14.1179316
11
28.2825093
21
-14.1355537
0
LINE
8
0
10
28.2825093
20
-14.1355537
11
28.2926633
21
-14.1690667
0
LINE
8
0
10
28.2926633
20
-14.1690667
11
28.5246562
21
-14.7291472
0
LINE
8
0
10
28.5246562
20
-14.7291472
11
28.5409393
21
-14.7596478
0
LINE
8
0
10
28.5409393
20
-14.7596478
11
28.9106399
21
-15.2414619
0
LINE
8
0
10
28.9106399
20
-15.2414619
11
28.93223
21
-15.26777
0
LINE
8
0
10
28.93223
20
-15.26777
11
28.956828
21
-15.2879567
0
LINE
8
0
10
28.956828
20
-15.2879567
11
29.4409793
21
-15.6594507
0
LINE
8
0
10
29.4409793
20
-15.6594507
11
29.4682979
21
-15.6740839
0
LINE
8
0
10
29.4682979
20
-15.6740839
11
30.0336308
21
-15.9082523
0
LINE
8
0
10
30.0336308
20
-15.9082523
11
30.0624848
21
-15.9170333
0
LINE
8
0
10
30.0624848
20
-15.9170333
11
30.4367845
21
-15.974074
0
LINE
8
0
10
30.4367845
20
-15.974074
11
30.7
21
-16
0
LINE
8
0
10
30.7
20
-16
11
31.5425344
21
-16
0
LINE
8
0
10
31.5425344
20
-16
11
32.7
21
-16
0
LINE
8
0
10
32.7
20
-16
11
32.9364334
21
-15.976712
0
LINE
8
0
10
32.9364334
20
-15.976712
11
33.1627723
21
-15.9390718
0
LINE
8
0
10
33.1627723
20
-15.9390718
11
33.34705
21
-15.91481
0
LINE
8
0
10
33.34705
20
-15.91481
11
33.6065636
21
-15.807316
0
LINE
8
0
10
33.6065636
20
-15.807316
11
33.95
21
-15.66506
0
LINE
8
0
10
33.95
20
-15.66506
11
34.1728516
21
-15.4940638
0
LINE
8
0
10
34.1728516
20
-15.4940638
11
34.46777
21
-15.26777
0
LINE
8
0
10
34.46777
20
-15.26777
11
34.6387662
21
-15.0449184
0
LINE
8
0
10
34.6387662
20
-15.0449184
11
34.86506
21
-14.75
0
LINE
8
0
10
34.86506
20
-14.75
11
34.972554
21
-14.4904864
0
LINE
8
0
10
34.972554
20
-14.4904864
11
35.11481
21
-14.14705
0
LINE
8
0
10
35.11481
20
-14.14705
11
35.1357925
21
-13.9876803
0
LINE
8
0
10
35.1357925
20
-13.9876803
11
35.1936473
21
-13.6292921
0
LINE
8
0
10
35.1936473
20
-13.6292921
11
35.2
21
-13.5
0
LINE
8
0
10
35.2
20
-13.5
11
35.2
21
-10.8562049
0
LINE
8
0
10
35.2
20
-10.8562049
11
35.2
21
-10.8562049
0
LINE
8
0
10
72
20
20.1604184
11
72
21
19.8719966
0
LINE
8
0
10
72
20
19.8719966
11
72
21
19.8686051
0
LINE
8
0
10
72
20
19.8686051
11
71.9731172
21
19.0931208
0
LINE
8
0
10
71.9731172
20
19.0931208
11
71.9656504
21
18.9737165
0
LINE
8
0
10
71.9656504
20
18.9737165
11
71.8863386
21
18.2115726
0
LINE
8
0
10
71.8863386
20
18.2115726
11
71.7551629
21
17.4642013
0
LINE
8
0
10
71.7551629
20
17.4642013
11
71.7315444
21
17.3390975
0
LINE
8
0
10
71.7315444
20
17.3390975
11
71.5513655
21
16.6201426
0
LINE
8
0
10
71.5513655
20
16.6201426
11
71.5073791
21
16.4858594
0
LINE
8
0
10
71.5073791
20
16.4858594
11
71.2810936
21
15.8026091
0
LINE
8
0
10
71.2810936
20
15.8026091
11
71.0090567
21
15.1543281
0
LINE
8
0
10
71.0090567
20
15.1543281
11
70.9442244
21
15.022529
0
LINE
8
0
10
70.9442244
20
15.022529
11
70.6325891
21
14.4222689
0
LINE
8
0
10
70.6325891
20
14.4222689
11
70.2812853
21
13.8685447
0
LINE
8
0
10
70.2812853
20
13.8685447
11
70.1947572
21
13.7453553
0
LINE
8
0
10
70.1947572
20
13.7453553
11
69.8117417
21
13.2493947
0
LINE
8
0
10
69.8117417
20
13.2493947
11
69.3965652
21
12.8094677
0
LINE
8
0
10
69.3965652
20
12.8094677
11
69.2887048
21
12.7018978
0
LINE
8
0
10
69.2887048
20
12.7018978
11
68.8504224
21
12.3265606
0
LINE
8
0
10
68.8504224
20
12.3265606
11
68.3885224
21
12.0144119
0
LINE
8
0
10
68.3885224
20
12.0144119
11
68.2613058
21
11.9298546
0
LINE
8
0
10
68.2613058
20
11.9298546
11
67.7849374
21
11.6863159
0
LINE
8
0
10
67.7849374
20
11.6863159
11
67.6389308
21
11.6305675
0
LINE
8
0
10
67.6389308
20
11.6305675
11
67.1514533
21
11.4560977
0
LINE
8
0
10
67.1514533
20
11.4560977
11
66.6543547
21
11.3507345
0
LINE
8
0
10
66.6543547
20
11.3507345
11
66.5007157
21
11.331589
0
LINE
8
0
10
66.5007157
20
11.331589
11
66
21
11.2964416
0
LINE
8
0
10
66
20
11.2964416
11
65.4332447
21
11.2964416
0
LINE
8
0
10
65.4332447
20
11.2964416
11
63.1
21
11.2964416
0
LINE
8
0
10
63.1
20
11.2964416
11
63.1
21
11.6091342
0
LINE
8
0
10
63.1
20
11.6091342
11
63.1
21
14.1806486
0
LINE
8
0
10
63.1
20
14.1806486
11
63.1
21
24.4279111
0
LINE
8
0
10
63.1
20
24.4279111
11
63.1
21
30.3688244
0
LINE
8
0
10
63.1
20
30.3688244
11
63.2588021
21
30.5670373
0
LINE
8
0
10
63.2588021
20
30.5670373
11
63.5667553
21
30.95141
0
LINE
8
0
10
63.5667553
20
30.95141
11
64.8411022
21
30.95141
0
LINE
8
0
10
64.8411022
20
30.95141
11
65.4681916
21
30.95141
0
LINE
8
0
10
65.4681916
20
30.95141
11
65.5174088
21
30.95141
0
LINE
8
0
10
65.5174088
20
30.95141
11
65.5743254
21
30.9455331
0
LINE
8
0
10
65.5743254
20
30.9455331
11
65.6824337
21
30.93437
0
LINE
8
0
10
65.6824337
20
30.93437
11
65.7964279
21
30.8973436
0
LINE
8
0
10
65.7964279
20
30.8973436
11
65.8362139
21
30.88442
0
LINE
8
0
10
65.8362139
20
30.88442
11
65.9415297
21
30.8210459
0
LINE
8
0
10
65.9415297
20
30.8210459
11
65.9682634
21
30.80496
0
LINE
8
0
10
65.9682634
20
30.80496
11
66.0534776
21
30.7178758
0
LINE
8
0
10
66.0534776
20
30.7178758
11
66.0695897
21
30.70141
0
LINE
8
0
10
66.0695897
20
30.70141
11
66.1249232
21
30.5966444
0
LINE
8
0
10
66.1249232
20
30.5966444
11
66.1332864
21
30.58081
0
LINE
8
0
10
66.1332864
20
30.58081
11
66.152391
21
30.467021
0
LINE
8
0
10
66.152391
20
30.467021
11
66.1550117
21
30.45141
0
LINE
8
0
10
66.1550117
20
30.45141
11
66.1550117
21
23.6675164
0
LINE
8
0
10
66.1550117
20
23.6675164
11
66.1550116
21
23.2
0
LINE
8
0
10
66.1550116
20
23.2
11
66.3820082
21
23.2
0
LINE
8
0
10
66.3820082
20
23.2
11
66.4810085
21
23.2
0
LINE
8
0
10
66.4810085
20
23.2
11
67.1977347
21
23.2
0
LINE
8
0
10
67.1977347
20
23.2
11
67.558434
21
23.2
0
LINE
8
0
10
67.558434
20
23.2
11
67.8526124
21
23.2
0
LINE
8
0
10
67.8526124
20
23.2
11
68.3288322
21
23.2
0
LINE
8
0
10
68.3288322
20
23.2
11
68.4221775
21
23.2
0
LINE
8
0
10
68.4221775
20
23.2
11
68.9474525
21
23.2
0
LINE
8
0
10
68.9474525
20
23.2
11
68.9552863
21
23.2
0
LINE
8
0
10
68.9552863
20
23.2
11
69.4220334
21
23.2
0
LINE
8
0
10
69.4220334
20
23.2
11
69.1473642
21
27.3098566
0
LINE
8
0
10
69.1473642
20
27.3098566
11
69.207255
21
30.482582
0
LINE
8
0
10
69.207255
20
30.482582
11
69.207255
21
30.95141
0
LINE
8
0
10
69.207255
20
30.95141
11
69.2507669
21
30.95141
0
LINE
8
0
10
69.2507669
20
30.95141
11
69.2655937
21
30.95141
0
LINE
8
0
10
69.2655937
20
30.95141
11
69.3164489
21
30.95141
0
LINE
8
0
10
69.3164489
20
30.95141
11
69.6125273
21
30.95141
0
LINE
8
0
10
69.6125273
20
30.95141
11
73.9871092
21
30.95141
0
LINE
8
0
10
73.9871092
20
30.95141
11
73.9862462
21
30.9409201
0
LINE
8
0
10
73.9862462
20
30.9409201
11
73.9861511
21
30.9398862
0
LINE
8
0
10
73.9861511
20
30.9398862
11
73.9858351
21
30.9387852
0
LINE
8
0
10
73.9858351
20
30.9387852
11
73.9211651
21
30.7201613
0
LINE
8
0
10
73.9211651
20
30.7201613
11
73.8708441
21
30.6254617
0
LINE
8
0
10
73.8708441
20
30.6254617
11
73.8703368
21
30.6245124
0
LINE
8
0
10
73.8703368
20
30.6245124
11
73.8098148
21
30.5432005
0
LINE
8
0
10
73.8098148
20
30.5432005
11
73.8091012
21
30.5424149
0
LINE
8
0
10
73.8091012
20
30.5424149
11
73.7400704
21
30.4767104
0
LINE
8
0
10
73.7400704
20
30.4767104
11
73.6644065
21
30.4284425
0
LINE
8
0
10
73.6644065
20
30.4284425
11
73.6635501
21
30.427933
0
LINE
8
0
10
73.6635501
20
30.427933
11
73.5833869
21
30.398429
0
LINE
8
0
10
73.5833869
20
30.398429
11
73.5824396
21
30.3982499
0
LINE
8
0
10
73.5824396
20
30.3982499
11
73.5
21
30.3883234
0
LINE
8
0
10
73.5
20
30.3883234
11
73.4948551
21
30.3883234
0
LINE
8
0
10
73.4948551
20
30.3883234
11
73.4852855
21
30.3883234
0
LINE
8
0
10
73.4852855
20
30.3883234
11
73.4768012
21
30.3883234
0
LINE
8
0
10
73.4768012
20
30.3883234
11
73.459123
21
30.3883235
0
LINE
8
0
10
73.459123
20
30.3883235
11
73.4195677
21
30.3883233
0
LINE
8
0
10
73.4195677
20
30.3883233
11
73.2979364
21
30.3883235
0
LINE
8
0
10
73.2979364
20
30.3883235
11
73.1200005
21
30.3883234
0
LINE
8
0
10
73.1200005
20
30.3883234
11
72.5956509
21
30.3883235
0
LINE
8
0
10
72.5956509
20
30.3883235
11
69.6760164
21
30.3883166
0
LINE
8
0
10
69.6760164
20
30.3883166
11
69.5109031
21
30.3883166
0
LINE
8
0
10
69.5109031
20
30.3883166
11
69.5150759
21
29.1629337
0
LINE
8
0
10
69.5150759
20
29.1629337
11
69.5070063
21
23.6243547
0
LINE
8
0
10
69.5070063
20
23.6243547
11
69.502388
21
23.2
0
LINE
8
0
10
69.502388
20
23.2
11
70.0132336
21
23.2
0
LINE
8
0
10
70.0132336
20
23.2
11
70.0722005
21
23.2
0
LINE
8
0
10
70.0722005
20
23.2
11
70.5489923
21
23.2
0
LINE
8
0
10
70.5489923
20
23.2
11
70.7546879
21
23.2
0
LINE
8
0
10
70.7546879
20
23.2
11
71.1417287
21
23.2
0
LINE
8
0
10
71.1417287
20
23.2
11
71.6368634
21
23.2
0
LINE
8
0
10
71.6368634
20
23.2
11
71.8564619
21
23.2
0
LINE
8
0
10
71.8564619
20
23.2
11
72.0296936
21
23.2
0
LINE
8
0
10
72.0296936
20
23.2
11
72.1467657
21
23.2
0
LINE
8
0
10
72.1467657
20
23.2
11
72.3248168
21
23.2
0
LINE
8
0
10
72.3248168
20
23.2
11
72.3916238
21
23.2
0
LINE
8
0
10
72.3916238
20
23.2
11
72.5723849
21
23.2
0
LINE
8
0
10
72.5723849
20
23.2
11
72.6155722
21
23.2
0
LINE
8
0
10
72.6155722
20
23.2
11
72.8
21
23.2
0
LINE
8
0
10
72.8
20
23.2
11
73.4514266
21
23.2
0
LINE
8
0
10
73.4514266
20
23.2
11
73.5
21
23.2
0
LINE
8
0
10
73.5
20
23.2
11
73.5455406
21
23.1977606
0
LINE
8
0
10
73.5455406
20
23.1977606
11
73.54901
21
23.19759
0
LINE
8
0
10
73.54901
20
23.19759
11
73.5939176
21
23.1909288
0
LINE
8
0
10
73.5939176
20
23.1909288
11
73.59755
21
23.19039
0
LINE
8
0
10
73.59755
20
23.19039
11
73.6044167
21
23.1883071
0
LINE
8
0
10
73.6044167
20
23.1883071
11
73.69134
21
23.16194
0
LINE
8
0
10
73.69134
20
23.16194
11
73.6988231
21
23.15794
0
LINE
8
0
10
73.6988231
20
23.15794
11
73.77779
21
23.11573
0
LINE
8
0
10
73.77779
20
23.11573
11
73.8428951
21
23.062295
0
LINE
8
0
10
73.8428951
20
23.062295
11
73.85355
21
23.05355
0
LINE
8
0
10
73.85355
20
23.05355
11
73.9052046
21
22.9906141
0
LINE
8
0
10
73.9052046
20
22.9906141
11
73.91573
21
22.97779
0
LINE
8
0
10
73.91573
20
22.97779
11
73.9229566
21
22.9642704
0
LINE
8
0
10
73.9229566
20
22.9642704
11
73.96194
21
22.89134
0
LINE
8
0
10
73.96194
20
22.89134
11
73.9671063
21
22.8743084
0
LINE
8
0
10
73.9671063
20
22.8743084
11
73.99039
21
22.79755
0
LINE
8
0
10
73.99039
20
22.79755
11
73.9976535
21
22.7238188
0
LINE
8
0
10
73.9976535
20
22.7238188
11
74
21
22.7
0
LINE
8
0
10
74
20
22.7
11
74
21
22.663304
0
LINE
8
0
10
74
20
22.663304
11
74
21
22.6
0
LINE
8
0
10
74
20
22.6
11
73.8874999
21
22.4859198
0
LINE
8
0
10
73.8874999
20
22.4859198
11
73.68601
21
22.2816
0
LINE
8
0
10
73.68601
20
22.2816
11
73.5863
21
22.1804862
0
LINE
8
0
10
73.5863
20
22.1804862
11
73.44949
21
22.04175
0
LINE
8
0
10
73.44949
20
22.04175
11
73.3234423
21
21.9139298
0
LINE
8
0
10
73.3234423
20
21.9139298
11
73.15509
21
21.74321
0
LINE
8
0
10
73.15509
20
21.74321
11
72.1276158
21
20.70129
0
LINE
8
0
10
72.1276158
20
20.70129
11
72.0852636
21
20.6583419
0
LINE
8
0
10
72.0852636
20
20.6583419
11
72.0427637
21
20.6152451
0
LINE
8
0
10
72.0427637
20
20.6152451
11
72
21
20.57188
0
LINE
8
0
10
72
20
20.57188
11
72
21
20.1981272
0
LINE
8
0
10
72
20
20.1981272
11
72
21
20.1604184
0
LINE
8
0
10
72
20
20.1604184
11
72
21
20.1604184
0
LINE
8
0
10
72
20
-6.75972298
11
72
21
-6.97661359
0
LINE
8
0
10
72
20
-6.97661359
11
72
21
-7.16389576
0
LINE
8
0
10
72
20
-7.16389576
11
72
21
-13.5
0
LINE
8
0
10
72
20
-13.5
11
71.9195625
21
-14.1109527
0
LINE
8
0
10
71.9195625
20
-14.1109527
11
71.91481
21
-14.14705
0
LINE
8
0
10
71.91481
20
-14.14705
11
71.9008771
21
-14.1806871
0
LINE
8
0
10
71.9008771
20
-14.1806871
11
71.66506
21
-14.75
0
LINE
8
0
10
71.66506
20
-14.75
11
71.6428962
21
-14.7788851
0
LINE
8
0
10
71.6428962
20
-14.7788851
11
71.26777
21
-15.26777
0
LINE
8
0
10
71.26777
20
-15.26777
11
71.2388849
21
-15.2899338
0
LINE
8
0
10
71.2388849
20
-15.2899338
11
70.75
21
-15.66506
0
LINE
8
0
10
70.75
20
-15.66506
11
70.7163629
21
-15.6789929
0
LINE
8
0
10
70.7163629
20
-15.6789929
11
70.14705
21
-15.91481
0
LINE
8
0
10
70.14705
20
-15.91481
11
70.1109527
21
-15.9195625
0
LINE
8
0
10
70.1109527
20
-15.9195625
11
69.5
21
-16
0
LINE
8
0
10
69.5
20
-16
11
64.2746429
21
-16
0
LINE
8
0
10
64.2746429
20
-16
11
58.8
21
-16
0
LINE
8
0
10
58.8
20
-16
11
58.7707486
21
-15.9993973
0
LINE
8
0
10
58.7707486
20
-15.9993973
11
58.73836
21
-15.99873
0
LINE
8
0
10
58.73836
20
-15.99873
11
58.7091323
21
-15.9969261
0
LINE
8
0
10
58.7091323
20
-15.9969261
11
58.67679
21
-15.99493
0
LINE
8
0
10
58.67679
20
-15.99493
11
58.6446985
21
-15.9916196
0
LINE
8
0
10
58.6446985
20
-15.9916196
11
58.4213685
21
-15.950762
0
LINE
8
0
10
58.4213685
20
-15.950762
11
58.41177
21
-15.94889
0
LINE
8
0
10
58.41177
20
-15.94889
11
58.3776528
21
-15.9347582
0
LINE
8
0
10
58.3776528
20
-15.9347582
11
58.05
21
-15.79904
0
LINE
8
0
10
58.05
20
-15.79904
11
58.0207028
21
-15.7765592
0
LINE
8
0
10
58.0207028
20
-15.7765592
11
57.73934
21
-15.56066
0
LINE
8
0
10
57.73934
20
-15.56066
11
57.7168592
21
-15.5313628
0
LINE
8
0
10
57.7168592
20
-15.5313628
11
57.50096
21
-15.25
0
LINE
8
0
10
57.50096
20
-15.25
11
57.4868282
21
-15.2158828
0
LINE
8
0
10
57.4868282
20
-15.2158828
11
57.35111
21
-14.88823
0
LINE
8
0
10
57.35111
20
-14.88823
11
57.3483061
21
-14.8669316
0
LINE
8
0
10
57.3483061
20
-14.8669316
11
57.3305401
21
-14.731982
0
LINE
8
0
10
57.3305401
20
-14.731982
11
57.3166819
21
-14.6516392
0
LINE
8
0
10
57.3166819
20
-14.6516392
11
57.3
21
-14.5
0
LINE
8
0
10
57.3
20
-14.5
11
57.3
21
-14.3467942
0
LINE
8
0
10
57.3
20
-14.3467942
11
57.3
21
-14.17729
0
LINE
8
0
10
57.3
20
-14.17729
11
57.3
21
-5.49885675
0
LINE
8
0
10
57.3
20
-5.49885675
11
57.3
21
-5.48305759
0
LINE
8
0
10
57.3
20
-5.48305759
11
57.3
21
-4.93620088
0
LINE
8
0
10
57.3
20
-4.93620088
11
58.2639154
21
-3.98808916
0
LINE
8
0
10
58.2639154
20
-3.98808916
11
58.5
21
-3.74373055
0
LINE
8
0
10
58.5
20
-3.74373055
11
60.4558143
21
-3.74821677
0
LINE
8
0
10
60.4558143
20
-3.74821677
11
68.9733061
21
-3.73437629
0
LINE
8
0
10
68.9733061
20
-3.73437629
11
69.2259889
21
-3.76290918
0
LINE
8
0
10
69.2259889
20
-3.76290918
11
69.2526106
21
-3.76411012
0
LINE
8
0
10
69.2526106
20
-3.76411012
11
69.2800052
21
-3.76787938
0
LINE
8
0
10
69.2800052
20
-3.76787938
11
69.5307658
21
-3.80237189
0
LINE
8
0
10
69.5307658
20
-3.80237189
11
69.5608028
21
-3.80944513
0
LINE
8
0
10
69.5608028
20
-3.80944513
11
69.8122557
21
-3.86862433
0
LINE
8
0
10
69.8122557
20
-3.86862433
11
69.8461244
21
-3.88016393
0
LINE
8
0
10
69.8461244
20
-3.88016393
11
70.0929835
21
-3.96420782
0
LINE
8
0
10
70.0929835
20
-3.96420782
11
70.1316219
21
-3.98182033
0
LINE
8
0
10
70.1316219
20
-3.98182033
11
70.368462
21
-4.08967558
0
LINE
8
0
10
70.368462
20
-4.08967558
11
70.4123235
21
-4.11530378
0
LINE
8
0
10
70.4123235
20
-4.11530378
11
70.6339776
21
-4.24467188
0
LINE
8
0
10
70.6339776
20
-4.24467188
11
70.6828517
21
-4.28039479
0
LINE
8
0
10
70.6828517
20
-4.28039479
11
70.8848666
21
-4.42787344
0
LINE
8
0
10
70.8848666
20
-4.42787344
11
70.9377722
21
-4.4756379
0
LINE
8
0
10
70.9377722
20
-4.4756379
11
71.1167369
21
-4.63698826
0
LINE
8
0
10
71.1167369
20
-4.63698826
11
71.1719615
21
-4.69832694
0
LINE
8
0
10
71.1719615
20
-4.69832694
11
71.3257082
21
-4.86885114
0
LINE
8
0
10
71.3257082
20
-4.86885114
11
71.380951
21
-4.94464018
0
LINE
8
0
10
71.380951
20
-4.94464018
11
71.5086584
21
-5.11957424
0
LINE
8
0
10
71.5086584
20
-5.11957424
11
71.5612766
21
-5.20988217
0
LINE
8
0
10
71.5612766
20
-5.20988217
11
71.6633317
21
-5.3847625
0
LINE
8
0
10
71.6633317
20
-5.3847625
11
71.7106244
21
-5.48881334
0
LINE
8
0
10
71.7106244
20
-5.48881334
11
71.7884541
21
-5.65976112
0
LINE
8
0
10
71.7884541
20
-5.65976112
11
71.8279469
21
-5.7760135
0
LINE
8
0
10
71.8279469
20
-5.7760135
11
71.8837207
21
-5.93990304
0
LINE
8
0
10
71.8837207
20
-5.93990304
11
71.9133776
21
-6.06621501
0
LINE
8
0
10
71.9133776
20
-6.06621501
11
71.9497176
21
-6.22073978
0
LINE
8
0
10
71.9497176
20
-6.22073978
11
71.9680792
21
-6.35458345
0
LINE
8
0
10
71.9680792
20
-6.35458345
11
71.9878205
21
-6.49822573
0
LINE
8
0
10
71.9878205
20
-6.49822573
11
71.9940547
21
-6.63691215
0
LINE
8
0
10
71.9940547
20
-6.63691215
11
72
21
-6.75972298
0
LINE
8
0
10
72
20
-6.75972298
11
72
21
-6.75972298
0
ENDSEC
0
EOF
