0
SECTION
2
ENTITIES
0
LINE
8
0
10
16
20
36.8336167
11
16
21
39.1128159
0
LINE
8
0
10
16
20
39.1128159
11
16
21
40.2452371
0
LINE
8
0
10
16
20
40.2452371
11
9.59608609
21
40.2452371
0
LINE
8
0
10
9.59608609
20
40.2452371
11
2.4
21
40.2452371
0
LINE
8
0
10
2.4
20
40.2452371
11
2.4
21
33.7277472
0
LINE
8
0
10
2.4
20
33.7277472
11
2.4
21
28.1652068
0
LINE
8
0
10
2.4
20
28.1652068
11
2.4
21
27.9225566
0
LINE
8
0
10
2.4
20
27.9225566
11
2.4
21
27.7214129
0
LINE
8
0
10
2.4
20
27.7214129
11
2.4
21
27.3350974
0
LINE
8
0
10
2.4
20
27.3350974
11
2.96915339
21
27.3350977
0
LINE
8
0
10
2.96915339
20
27.3350977
11
13.8
21
27.3350977
0
LINE
8
0
10
13.8
20
27.3350977
11
13.8195744
21
27.336594
0
LINE
8
0
10
13.8195744
20
27.336594
11
14.19207
21
27.3650677
0
LINE
8
0
10
14.19207
20
27.3650677
11
14.2114557
21
27.3695411
0
LINE
8
0
10
14.2114557
20
27.3695411
11
14.58036
21
27.4546772
0
LINE
8
0
10
14.58036
20
27.4546772
11
14.5993707
21
27.4620857
0
LINE
8
0
10
14.5993707
20
27.4620857
11
14.96114
21
27.6030577
0
LINE
8
0
10
14.96114
20
27.6030577
11
14.9795921
21
27.613329
0
LINE
8
0
10
14.9795921
20
27.613329
11
15.33073
21
27.8087877
0
LINE
8
0
10
15.33073
20
27.8087877
11
15.3484466
21
27.8218234
0
LINE
8
0
10
15.3484466
20
27.8218234
11
15.68559
21
28.0698972
0
LINE
8
0
10
15.68559
20
28.0698972
11
15.7023995
21
28.0855719
0
LINE
8
0
10
15.7023995
20
28.0855719
11
16.02228
21
28.3838477
0
LINE
8
0
10
16.02228
20
28.3838477
11
16.0380211
21
28.4020097
0
LINE
8
0
10
16.0380211
20
28.4020097
11
16.33757
21
28.7476372
0
LINE
8
0
10
16.33757
20
28.7476372
11
16.3520914
21
28.7681128
0
LINE
8
0
10
16.3520914
20
28.7681128
11
16.62843
21
29.1577477
0
LINE
8
0
10
16.62843
20
29.1577477
11
16.6532656
21
29.2048272
0
LINE
8
0
10
16.6532656
20
29.2048272
11
17.12588
21
30.1007377
0
LINE
8
0
10
17.12588
20
30.1007377
11
17.1443345
21
30.1544508
0
LINE
8
0
10
17.1443345
20
30.1544508
11
17.49552
21
31.1765977
0
LINE
8
0
10
17.49552
20
31.1765977
11
17.5068841
21
31.2348795
0
LINE
8
0
10
17.5068841
20
31.2348795
11
17.72314
21
32.3439677
0
LINE
8
0
10
17.72314
20
32.3439677
11
17.7269773
21
32.4045791
0
LINE
8
0
10
17.7269773
20
32.4045791
11
17.8
21
33.5579977
0
LINE
8
0
10
17.8
20
33.5579977
11
17.8
21
33.6899699
0
LINE
8
0
10
17.8
20
33.6899699
11
17.8
21
34.3872631
0
LINE
8
0
10
17.8
20
34.3872631
11
17.8
21
34.8206754
0
LINE
8
0
10
17.8
20
34.8206754
11
17.8
21
35.17343
0
LINE
8
0
10
17.8
20
35.17343
11
16.297254
21
35.17343
0
LINE
8
0
10
16.297254
20
35.17343
11
16
21
35.17343
0
LINE
8
0
10
16
20
35.17343
11
16
21
36.8336167
0
LINE
8
0
10
16
20
36.8336167
11
16
21
36.8336167
0
LINE
8
0
10
35.2
20
8.07947943
11
35.2
21
10
0
LINE
8
0
10
35.2
20
10
11
32.7929791
21
10
0
LINE
8
0
10
32.7929791
20
10
11
30.2
21
10
0
LINE
8
0
10
30.2
20
10
11
30.2
21
10.8246378
0
LINE
8
0
10
30.2
20
10.8246378
11
30.2
21
11.53281
0
LINE
8
0
10
30.2
20
11.53281
11
30.2
21
11.6087123
0
LINE
8
0
10
30.2
20
11.6087123
11
30.2
21
11.69043
0
LINE
8
0
10
30.2
20
11.69043
11
30.2
21
11.7890767
0
LINE
8
0
10
30.2
20
11.7890767
11
30.2
21
11.89597
0
LINE
8
0
10
30.2
20
11.89597
11
30.2
21
12.0105222
0
LINE
8
0
10
30.2
20
12.0105222
11
30.2
21
12.13557
0
LINE
8
0
10
30.2
20
12.13557
11
30.2
21
12.2581624
0
LINE
8
0
10
30.2
20
12.2581624
11
30.2
21
12.39302
0
LINE
8
0
10
30.2
20
12.39302
11
30.2
21
12.5153649
0
LINE
8
0
10
30.2
20
12.5153649
11
30.2
21
12.65094
0
LINE
8
0
10
30.2
20
12.65094
11
30.2
21
13.7723019
0
LINE
8
0
10
30.2
20
13.7723019
11
30.2
21
15
0
LINE
8
0
10
30.2
20
15
11
29.2499257
21
15
0
LINE
8
0
10
29.2499257
20
15
11
28.2
21
15
0
LINE
8
0
10
28.2
20
15
11
28.2
21
8.35450889
0
LINE
8
0
10
28.2
20
8.35450889
11
28.2
21
8.22316882
0
LINE
8
0
10
28.2
20
8.22316882
11
28.2
21
8.20959927
0
LINE
8
0
10
28.2
20
8.20959927
11
28.2
21
8.1162401
0
LINE
8
0
10
28.2
20
8.1162401
11
28.2
21
7.5362542
0
LINE
8
0
10
28.2
20
7.5362542
11
29.2998117
21
5.9643383
0
LINE
8
0
10
29.2998117
20
5.9643383
11
29.4
21
5.82114318
0
LINE
8
0
10
29.4
20
5.82114318
11
33.5450421
21
5.82114318
0
LINE
8
0
10
33.5450421
20
5.82114318
11
34
21
5.82114318
0
LINE
8
0
10
34
20
5.82114318
11
34.1001883
21
5.9643383
0
LINE
8
0
10
34.1001883
20
5.9643383
11
35.2
21
7.5362542
0
LINE
8
0
10
35.2
20
7.5362542
11
35.2
21
8.07947943
0
LINE
8
0
10
35.2
20
8.07947943
11
35.2
21
8.07947943
0
LINE
8
0
10
35.2
20
-10.6640126
11
35.2
21
-10.8041366
0
LINE
8
0
10
35.2
20
-10.8041366
11
35.2
21
-13.5
0
LINE
8
0
10
35.2
20
-13.5
11
35.1937591
21
-13.6270148
0
LINE
8
0
10
35.1937591
20
-13.6270148
11
35.1369234
21
-13.9790907
0
LINE
8
0
10
35.1369234
20
-13.9790907
11
35.11481
21
-14.14705
0
LINE
8
0
10
35.11481
20
-14.14705
11
34.9783477
21
-14.4764992
0
LINE
8
0
10
34.9783477
20
-14.4764992
11
34.86506
21
-14.75
0
LINE
8
0
10
34.86506
20
-14.75
11
34.6479825
21
-15.0329073
0
LINE
8
0
10
34.6479825
20
-15.0329073
11
34.46777
21
-15.26777
0
LINE
8
0
10
34.46777
20
-15.26777
11
34.1848627
21
-15.4848475
0
LINE
8
0
10
34.1848627
20
-15.4848475
11
33.95
21
-15.66506
0
LINE
8
0
10
33.95
20
-15.66506
11
33.6205508
21
-15.8015223
0
LINE
8
0
10
33.6205508
20
-15.8015223
11
33.34705
21
-15.91481
0
LINE
8
0
10
33.34705
20
-15.91481
11
33.1702774
21
-15.9380837
0
LINE
8
0
10
33.1702774
20
-15.9380837
11
32.9402678
21
-15.9763343
0
LINE
8
0
10
32.9402678
20
-15.9763343
11
32.7
21
-16
0
LINE
8
0
10
32.7
20
-16
11
31.5596412
21
-16
0
LINE
8
0
10
31.5596412
20
-16
11
30.7
21
-16
0
LINE
8
0
10
30.7
20
-16
11
30.4415485
21
-15.9745433
0
LINE
8
0
10
30.4415485
20
-15.9745433
11
30.0593066
21
-15.9162922
0
LINE
8
0
10
30.0593066
20
-15.9162922
11
30.0400705
21
-15.9104382
0
LINE
8
0
10
30.0400705
20
-15.9104382
11
29.4621986
21
-15.6710759
0
LINE
8
0
10
29.4621986
20
-15.6710759
11
29.4439862
21
-15.6613205
0
LINE
8
0
10
29.4439862
20
-15.6613205
11
28.9486287
21
-15.2812278
0
LINE
8
0
10
28.9486287
20
-15.2812278
11
28.93223
21
-15.26777
0
LINE
8
0
10
28.93223
20
-15.26777
11
28.9178366
21
-15.2502313
0
LINE
8
0
10
28.9178366
20
-15.2502313
11
28.5389395
21
-14.7564319
0
LINE
8
0
10
28.5389395
20
-14.7564319
11
28.5280841
21
-14.7360982
0
LINE
8
0
10
28.5280841
20
-14.7360982
11
28.2901722
21
-14.1617278
0
LINE
8
0
10
28.2901722
20
-14.1617278
11
28.2834029
21
-14.1393858
0
LINE
8
0
10
28.2834029
20
-14.1393858
11
28.2816577
21
-14.1276378
0
LINE
8
0
10
28.2816577
20
-14.1276378
11
28.21204
21
-13.74504
0
LINE
8
0
10
28.21204
20
-13.74504
11
28.2057253
21
-13.6165224
0
LINE
8
0
10
28.2057253
20
-13.6165224
11
28.2
21
-13.5
0
LINE
8
0
10
28.2
20
-13.5
11
28.2
21
-10.8353776
0
LINE
8
0
10
28.2
20
-10.8353776
11
28.2
21
-10.6640126
0
LINE
8
0
10
28.2
20
-10.6640126
11
29.1772683
21
-9.70276688
0
LINE
8
0
10
29.1772683
20
-9.70276688
11
29.4
21
-9.475485
0
LINE
8
0
10
29.4
20
-9.475485
11
29.8269024
21
-9.475485
0
LINE
8
0
10
29.8269024
20
-9.475485
11
34
21
-9.475485
0
LINE
8
0
10
34
20
-9.475485
11
34.2227317
21
-9.70276688
0
LINE
8
0
10
34.2227317
20
-9.70276688
11
35.2
21
-10.6640126
0
LINE
8
0
10
35.2
20
-10.6640126
11
35.2
21
-10.6640126
0
LINE
8
0
10
72
20
20.2982925
11
72
21
20.106516
0
LINE
8
0
10
72
20
20.106516
11
72
21
20.1030301
0
LINE
8
0
10
72
20
20.1030301
11
71.9723682
21
19.3059372
0
LINE
8
0
10
71.9723682
20
19.3059372
11
71.9673903
21
19.2263343
0
LINE
8
0
10
71.9673903
20
19.2263343
11
71.8856491
21
18.4408451
0
LINE
8
0
10
71.8856491
20
18.4408451
11
71.7504552
21
17.6705808
0
LINE
8
0
10
71.7504552
20
17.6705808
11
71.7347096
21
17.5871783
0
LINE
8
0
10
71.7347096
20
17.5871783
11
71.5484237
21
16.8438551
0
LINE
8
0
10
71.5484237
20
16.8438551
11
71.5190994
21
16.7543329
0
LINE
8
0
10
71.5190994
20
16.7543329
11
71.2842924
21
16.0453527
0
LINE
8
0
10
71.2842924
20
16.0453527
11
71.0020111
21
15.3726588
0
LINE
8
0
10
71.0020111
20
15.3726588
11
70.9587896
21
15.2847927
0
LINE
8
0
10
70.9587896
20
15.2847927
11
70.6341094
21
14.6594059
0
LINE
8
0
10
70.6341094
20
14.6594059
11
70.2681002
21
14.0825032
0
LINE
8
0
10
70.2681002
20
14.0825032
11
70.2104148
21
14.0003768
0
LINE
8
0
10
70.2104148
20
14.0003768
11
69.8096578
21
13.4814431
0
LINE
8
0
10
69.8096578
20
13.4814431
11
69.3752501
21
13.0211384
0
LINE
8
0
10
69.3752501
20
13.0211384
11
69.3033432
21
12.9494252
0
LINE
8
0
10
69.3033432
20
12.9494252
11
68.8428383
21
12.5550571
0
LINE
8
0
10
68.8428383
20
12.5550571
11
68.3575183
21
12.2270813
0
LINE
8
0
10
68.3575183
20
12.2270813
11
68.2727072
21
12.1707097
0
LINE
8
0
10
68.2727072
20
12.1707097
11
67.7703749
21
11.9138973
0
LINE
8
0
10
67.7703749
20
11.9138973
11
67.6730372
21
11.8767317
0
LINE
8
0
10
67.6730372
20
11.8767317
11
67.1577122
21
11.6922951
0
LINE
8
0
10
67.1577122
20
11.6922951
11
66.6322165
21
11.580913
0
LINE
8
0
10
66.6322165
20
11.580913
11
66.5297904
21
11.5681493
0
LINE
8
0
10
66.5297904
20
11.5681493
11
66
21
11.5309611
0
LINE
8
0
10
66
20
11.5309611
11
65.6221631
21
11.5309611
0
LINE
8
0
10
65.6221631
20
11.5309611
11
63.1
21
11.5309611
0
LINE
8
0
10
63.1
20
11.5309611
11
63.1
21
11.7394228
0
LINE
8
0
10
63.1
20
11.7394228
11
63.1
21
13.4537657
0
LINE
8
0
10
63.1
20
13.4537657
11
63.1
21
24.2357087
0
LINE
8
0
10
63.1
20
24.2357087
11
63.1
21
30.4866062
0
LINE
8
0
10
63.1
20
30.4866062
11
63.2670881
21
30.6951616
0
LINE
8
0
10
63.2670881
20
30.6951616
11
63.4723902
21
30.95141
0
LINE
8
0
10
63.4723902
20
30.95141
11
64.3219548
21
30.95141
0
LINE
8
0
10
64.3219548
20
30.95141
11
65.2619069
21
30.95141
0
LINE
8
0
10
65.2619069
20
30.95141
11
65.3356793
21
30.95141
0
LINE
8
0
10
65.3356793
20
30.95141
11
65.4209923
21
30.942601
0
LINE
8
0
10
65.4209923
20
30.942601
11
65.5007051
21
30.93437
0
LINE
8
0
10
65.5007051
20
30.93437
11
65.5847579
21
30.9070689
0
LINE
8
0
10
65.5847579
20
30.9070689
11
65.6544835
21
30.88442
0
LINE
8
0
10
65.6544835
20
30.88442
11
65.7343181
21
30.8363793
0
LINE
8
0
10
65.7343181
20
30.8363793
11
65.7865348
21
30.80496
0
LINE
8
0
10
65.7865348
20
30.80496
11
65.8524386
21
30.7376099
0
LINE
8
0
10
65.8524386
20
30.7376099
11
65.8878612
21
30.70141
0
LINE
8
0
10
65.8878612
20
30.70141
11
65.9312373
21
30.6192839
0
LINE
8
0
10
65.9312373
20
30.6192839
11
65.9515578
21
30.58081
0
LINE
8
0
10
65.9515578
20
30.58081
11
65.966651
21
30.4909136
0
LINE
8
0
10
65.966651
20
30.4909136
11
65.9732826
21
30.45141
0
LINE
8
0
10
65.9732826
20
30.45141
11
65.9732826
21
24.3830504
0
LINE
8
0
10
65.9732826
20
24.3830504
11
65.9732824
21
23.2
0
LINE
8
0
10
65.9732824
20
23.2
11
66.5476974
21
23.2
0
LINE
8
0
10
66.5476974
20
23.2
11
66.7982177
21
23.2
0
LINE
8
0
10
66.7982177
20
23.2
11
67.3065115
21
23.2
0
LINE
8
0
10
67.3065115
20
23.2
11
67.7797582
21
23.2
0
LINE
8
0
10
67.7797582
20
23.2
11
67.9139508
21
23.2
0
LINE
8
0
10
67.9139508
20
23.2
11
68.3088973
21
23.2
0
LINE
8
0
10
68.3088973
20
23.2
11
68.2892431
21
27.8104639
0
LINE
8
0
10
68.2892431
20
27.8104639
11
68.30911
21
30.95141
0
LINE
8
0
10
68.30911
20
30.95141
11
68.3739263
21
30.95141
0
LINE
8
0
10
68.3739263
20
30.95141
11
68.6976088
21
30.95141
0
LINE
8
0
10
68.6976088
20
30.95141
11
69.807828
21
30.95141
0
LINE
8
0
10
69.807828
20
30.95141
11
74
21
30.95141
0
LINE
8
0
10
74
20
30.95141
11
74
21
30.8702855
0
LINE
8
0
10
74
20
30.8702855
11
73.9878343
21
30.7224059
0
LINE
8
0
10
73.9878343
20
30.7224059
11
73.985757
21
30.6998351
0
LINE
8
0
10
73.985757
20
30.6998351
11
73.9788587
21
30.6757988
0
LINE
8
0
10
73.9788587
20
30.6757988
11
73.9227294
21
30.4860475
0
LINE
8
0
10
73.9227294
20
30.4860475
11
73.8790541
21
30.4038544
0
LINE
8
0
10
73.8790541
20
30.4038544
11
73.8679795
21
30.383131
0
LINE
8
0
10
73.8679795
20
30.383131
11
73.8159565
21
30.3132376
0
LINE
8
0
10
73.8159565
20
30.3132376
11
73.800378
21
30.2960863
0
LINE
8
0
10
73.800378
20
30.2960863
11
73.741536
21
30.2400798
0
LINE
8
0
10
73.741536
20
30.2400798
11
73.67704
21
30.1989361
0
LINE
8
0
10
73.67704
20
30.1989361
11
73.6583439
21
30.1878149
0
LINE
8
0
10
73.6583439
20
30.1878149
11
73.5904052
21
30.1628101
0
LINE
8
0
10
73.5904052
20
30.1628101
11
73.5697242
21
30.1588999
0
LINE
8
0
10
73.5697242
20
30.1588999
11
73.5
21
30.1505045
0
LINE
8
0
10
73.5
20
30.1505045
11
73.3876812
21
30.1505045
0
LINE
8
0
10
73.3876812
20
30.1505045
11
73.1787679
21
30.1505041
0
LINE
8
0
10
73.1787679
20
30.1505041
11
72.9935463
21
30.1505041
0
LINE
8
0
10
72.9935463
20
30.1505041
11
72.6076155
21
30.1505056
0
LINE
8
0
10
72.6076155
20
30.1505056
11
71.7440842
21
30.1505019
0
LINE
8
0
10
71.7440842
20
30.1505019
11
70.2850833
21
30.150505
0
LINE
8
0
10
70.2850833
20
30.150505
11
70.2900492
21
27.7974328
0
LINE
8
0
10
70.2900492
20
27.7974328
11
70.2689462
21
23.2
0
LINE
8
0
10
70.2689462
20
23.2
11
70.5188748
21
23.2
0
LINE
8
0
10
70.5188748
20
23.2
11
70.5867569
21
23.2
0
LINE
8
0
10
70.5867569
20
23.2
11
71.0673372
21
23.2
0
LINE
8
0
10
71.0673372
20
23.2
11
71.3964333
21
23.2
0
LINE
8
0
10
71.3964333
20
23.2
11
71.7360229
21
23.2
0
LINE
8
0
10
71.7360229
20
23.2
11
71.8704656
21
23.2
0
LINE
8
0
10
71.8704656
20
23.2
11
72.0804988
21
23.2
0
LINE
8
0
10
72.0804988
20
23.2
11
72.2265915
21
23.2
0
LINE
8
0
10
72.2265915
20
23.2
11
72.3734801
21
23.2
0
LINE
8
0
10
72.3734801
20
23.2
11
72.5253336
21
23.2
0
LINE
8
0
10
72.5253336
20
23.2
11
72.6440182
21
23.2
0
LINE
8
0
10
72.6440182
20
23.2
11
72.8
21
23.2
0
LINE
8
0
10
72.8
20
23.2
11
73.3509511
21
23.2
0
LINE
8
0
10
73.3509511
20
23.2
11
73.5
21
23.2
0
LINE
8
0
10
73.5
20
23.2
11
73.5385165
21
23.198106
0
LINE
8
0
10
73.5385165
20
23.198106
11
73.54901
21
23.19759
0
LINE
8
0
10
73.54901
20
23.19759
11
73.5870023
21
23.1919546
0
LINE
8
0
10
73.5870023
20
23.1919546
11
73.59755
21
23.19039
0
LINE
8
0
10
73.59755
20
23.19039
11
73.6174896
21
23.1843416
0
LINE
8
0
10
73.6174896
20
23.1843416
11
73.69134
21
23.16194
0
LINE
8
0
10
73.69134
20
23.16194
11
73.7103506
21
23.1517783
0
LINE
8
0
10
73.7103506
20
23.1517783
11
73.77779
21
23.11573
0
LINE
8
0
10
73.77779
20
23.11573
11
73.8333912
21
23.0700953
0
LINE
8
0
10
73.8333912
20
23.0700953
11
73.85355
21
23.05355
0
LINE
8
0
10
73.85355
20
23.05355
11
73.8979509
21
22.999452
0
LINE
8
0
10
73.8979509
20
22.999452
11
73.91573
21
22.97779
0
LINE
8
0
10
73.91573
20
22.97779
11
73.927937
21
22.9549531
0
LINE
8
0
10
73.927937
20
22.9549531
11
73.96194
21
22.89134
0
LINE
8
0
10
73.96194
20
22.89134
11
73.9699334
21
22.8649883
0
LINE
8
0
10
73.9699334
20
22.8649883
11
73.99039
21
22.79755
0
LINE
8
0
10
73.99039
20
22.79755
11
73.9967716
21
22.7327713
0
LINE
8
0
10
73.9967716
20
22.7327713
11
74
21
22.7
0
LINE
8
0
10
74
20
22.7
11
74
21
22.6675412
0
LINE
8
0
10
74
20
22.6675412
11
74
21
22.6
0
LINE
8
0
10
74
20
22.6
11
73.8799699
21
22.4782841
0
LINE
8
0
10
73.8799699
20
22.4782841
11
73.68601
21
22.2816
0
LINE
8
0
10
73.68601
20
22.2816
11
73.5814967
21
22.1756152
0
LINE
8
0
10
73.5814967
20
22.1756152
11
73.44949
21
22.04175
0
LINE
8
0
10
73.44949
20
22.04175
11
73.3178358
21
21.9082444
0
LINE
8
0
10
73.3178358
20
21.9082444
11
73.15509
21
21.74321
0
LINE
8
0
10
73.15509
20
21.74321
11
72.0848538
21
20.6579269
0
LINE
8
0
10
72.0848538
20
20.6579269
11
72.0566932
21
20.6293699
0
LINE
8
0
10
72.0566932
20
20.6293699
11
72.0284343
21
20.6007141
0
LINE
8
0
10
72.0284343
20
20.6007141
11
72
21
20.57188
0
LINE
8
0
10
72
20
20.57188
11
72
21
20.3233656
0
LINE
8
0
10
72
20
20.3233656
11
72
21
20.2982925
0
LINE
8
0
10
72
20
20.2982925
11
72
21
20.2982925
0
LINE
8
0
10
72
20
-7.03910917
11
72
21
-13.5
0
LINE
8
0
10
72
20
-13.5
11
71.9179784
21
-14.1229851
0
LINE
8
0
10
71.9179784
20
-14.1229851
11
71.91481
21
-14.14705
0
LINE
8
0
10
71.91481
20
-14.14705
11
71.9055214
21
-14.1694747
0
LINE
8
0
10
71.9055214
20
-14.1694747
11
71.66506
21
-14.75
0
LINE
8
0
10
71.66506
20
-14.75
11
71.6502841
21
-14.7692567
0
LINE
8
0
10
71.6502841
20
-14.7692567
11
71.26777
21
-15.26777
0
LINE
8
0
10
71.26777
20
-15.26777
11
71.2485133
21
-15.2825459
0
LINE
8
0
10
71.2485133
20
-15.2825459
11
70.75
21
-15.66506
0
LINE
8
0
10
70.75
20
-15.66506
11
70.7275753
21
-15.6743486
0
LINE
8
0
10
70.7275753
20
-15.6743486
11
70.14705
21
-15.91481
0
LINE
8
0
10
70.14705
20
-15.91481
11
70.1229851
21
-15.9179784
0
LINE
8
0
10
70.1229851
20
-15.9179784
11
69.5
21
-16
0
LINE
8
0
10
69.5
20
-16
11
64.3666783
21
-16
0
LINE
8
0
10
64.3666783
20
-16
11
58.8
21
-16
0
LINE
8
0
10
58.8
20
-16
11
58.7702568
21
-15.9993872
0
LINE
8
0
10
58.7702568
20
-15.9993872
11
58.73836
21
-15.99873
0
LINE
8
0
10
58.73836
20
-15.99873
11
58.7086441
21
-15.996896
0
LINE
8
0
10
58.7086441
20
-15.996896
11
58.67679
21
-15.99493
0
LINE
8
0
10
58.67679
20
-15.99493
11
58.6451829
21
-15.9916695
0
LINE
8
0
10
58.6451829
20
-15.9916695
11
58.418169
21
-15.950138
0
LINE
8
0
10
58.418169
20
-15.950138
11
58.41177
21
-15.94889
0
LINE
8
0
10
58.41177
20
-15.94889
11
58.3890252
21
-15.9394688
0
LINE
8
0
10
58.3890252
20
-15.9394688
11
58.05
21
-15.79904
0
LINE
8
0
10
58.05
20
-15.79904
11
58.0304685
21
-15.7840528
0
LINE
8
0
10
58.0304685
20
-15.7840528
11
57.73934
21
-15.56066
0
LINE
8
0
10
57.73934
20
-15.56066
11
57.7243528
21
-15.5411285
0
LINE
8
0
10
57.7243528
20
-15.5411285
11
57.50096
21
-15.25
0
LINE
8
0
10
57.50096
20
-15.25
11
57.4915388
21
-15.2272552
0
LINE
8
0
10
57.4915388
20
-15.2272552
11
57.35111
21
-14.88823
0
LINE
8
0
10
57.35111
20
-14.88823
11
57.3492407
21
-14.874031
0
LINE
8
0
10
57.3492407
20
-14.874031
11
57.331131
21
-14.7364705
0
LINE
8
0
10
57.331131
20
-14.7364705
11
57.3170047
21
-14.6545732
0
LINE
8
0
10
57.3170047
20
-14.6545732
11
57.3
21
-14.5
0
LINE
8
0
10
57.3
20
-14.5
11
57.3
21
-14.3438299
0
LINE
8
0
10
57.3
20
-14.3438299
11
57.3
21
-14.17729
0
LINE
8
0
10
57.3
20
-14.17729
11
57.3
21
-5.3292985
0
LINE
8
0
10
57.3
20
-5.3292985
11
57.3
21
-5.31876573
0
LINE
8
0
10
57.3
20
-5.31876573
11
57.3
21
-4.95419458
0
LINE
8
0
10
57.3
20
-4.95419458
11
58.2772683
21
-3.99294888
0
LINE
8
0
10
58.2772683
20
-3.99294888
11
58.5
21
-3.765667
0
LINE
8
0
10
58.5
20
-3.765667
11
60.4490227
21
-3.77021629
0
LINE
8
0
10
60.4490227
20
-3.77021629
11
61.8729246
21
-3.77214114
0
LINE
8
0
10
61.8729246
20
-3.77214114
11
68.9858
21
-3.76058309
0
LINE
8
0
10
68.9858
20
-3.76058309
11
69.1097519
21
-3.77457971
0
LINE
8
0
10
69.1097519
20
-3.77457971
11
69.2602444
21
-3.78136863
0
LINE
8
0
10
69.2602444
20
-3.78136863
11
69.4151055
21
-3.80267622
0
LINE
8
0
10
69.4151055
20
-3.80267622
11
69.5375919
21
-3.81952441
0
LINE
8
0
10
69.5375919
20
-3.81952441
11
69.696114
21
-3.85685386
0
LINE
8
0
10
69.696114
20
-3.85685386
11
69.8182444
21
-3.88559713
0
LINE
8
0
10
69.8182444
20
-3.88559713
11
69.9792261
21
-3.94044614
0
LINE
8
0
10
69.9792261
20
-3.94044614
11
70.0981288
21
-3.9809269
0
LINE
8
0
10
70.0981288
20
-3.9809269
11
70.2599832
21
-4.0547047
0
LINE
8
0
10
70.2599832
20
-4.0547047
11
70.3727818
21
-4.10607237
0
LINE
8
0
10
70.3727818
20
-4.10607237
11
70.5334595
21
-4.19995612
0
LINE
8
0
10
70.5334595
20
-4.19995612
11
70.6375124
21
-4.26068642
0
LINE
8
0
10
70.6375124
20
-4.26068642
11
70.7945256
21
-4.37544998
0
LINE
8
0
10
70.7945256
20
-4.37544998
11
70.8876813
21
-4.44345724
0
LINE
8
0
10
70.8876813
20
-4.44345724
11
71.038129
21
-4.57928526
0
LINE
8
0
10
71.038129
20
-4.57928526
11
71.1189004
21
-4.65210683
0
LINE
8
0
10
71.1189004
20
-4.65210683
11
71.2596589
21
-4.80844903
0
LINE
8
0
10
71.2596589
20
-4.80844903
11
71.3273108
21
-4.8834833
0
LINE
8
0
10
71.3273108
20
-4.8834833
11
71.4552239
21
-5.05897062
0
LINE
8
0
10
71.4552239
20
-5.05897062
11
71.5097876
21
-5.13371228
0
LINE
8
0
10
71.5097876
20
-5.13371228
11
71.6219229
21
-5.32616864
0
LINE
8
0
10
71.6219229
20
-5.32616864
11
71.6640819
21
-5.39841173
0
LINE
8
0
10
71.6640819
20
-5.39841173
11
71.7579599
21
-5.60495705
0
LINE
8
0
10
71.7579599
20
-5.60495705
11
71.7889094
21
-5.67293551
0
LINE
8
0
10
71.7889094
20
-5.67293551
11
71.8627085
21
-5.89017311
0
LINE
8
0
10
71.8627085
20
-5.89017311
11
71.8839617
21
-5.95262473
0
LINE
8
0
10
71.8839617
20
-5.95262473
11
71.9366124
21
-6.17687043
0
LINE
8
0
10
71.9366124
20
-6.17687043
11
71.949821
21
-6.23303574
0
LINE
8
0
10
71.949821
20
-6.23303574
11
71.9810341
21
-6.46055873
0
LINE
8
0
10
71.9810341
20
-6.46055873
11
71.9878464
21
-6.5101265
0
LINE
8
0
10
71.9878464
20
-6.5101265
11
71.9980614
21
-6.73736848
0
LINE
8
0
10
71.9980614
20
-6.73736848
11
72
21
-6.77741472
0
LINE
8
0
10
72
20
-6.77741472
11
72
21
-6.84813857
0
LINE
8
0
10
72
20
-6.84813857
11
72
21
-7.03910917
0
LINE
8
0
10
72
20
-7.03910917
11
72
21
-7.03910917
0
ENDSEC
0
EOF
