0
SECTION
2
ENTITIES
0
LINE
8
0
10
16
20
-4.34675877
11
16
21
-3.3121908
0
LINE
8
0
10
16
20
-3.3121908
11
16
21
-2.38975693
0
LINE
8
0
10
16
20
-2.38975693
11
16
21
-1.51363552
0
LINE
8
0
10
16
20
-1.51363552
11
16
21
-1.0508507
0
LINE
8
0
10
16
20
-1.0508507
11
16
21
-0.634160491
0
LINE
8
0
10
16
20
-0.634160491
11
16
21
5.4442935
0
LINE
8
0
10
16
20
5.4442935
11
16
21
11.1548128
0
LINE
8
0
10
16
20
11.1548128
11
16
21
21.3005084
0
LINE
8
0
10
16
20
21.3005084
11
16
21
21.7727012
0
LINE
8
0
10
16
20
21.7727012
11
2.72297043
21
21.7727012
0
LINE
8
0
10
2.72297043
20
21.7727012
11
2.4
21
21.7727012
0
LINE
8
0
10
2.4
20
21.7727012
11
2.4
21
21.3005084
0
LINE
8
0
10
2.4
20
21.3005084
11
2.4
21
11.1548128
0
LINE
8
0
10
2.4
20
11.1548128
11
2.4
21
5.4442935
0
LINE
8
0
10
2.4
20
5.4442935
11
2.4
21
2.89412705
0
LINE
8
0
10
2.4
20
2.89412705
11
2.4
21
0.837168623
0
LINE
8
0
10
2.4
20
0.837168623
11
2.4
21
-0.931937481
0
LINE
8
0
10
2.4
20
-0.931937481
11
2.4
21
-1.08739933
0
LINE
8
0
10
2.4
20
-1.08739933
11
2.4
21
-1.28139226
0
LINE
8
0
10
2.4
20
-1.28139226
11
2.4
21
-1.49483864
0
LINE
8
0
10
2.4
20
-1.49483864
11
2.4
21
-2.56796669
0
LINE
8
0
10
2.4
20
-2.56796669
11
2.4
21
-2.77764255
0
LINE
8
0
10
2.4
20
-2.77764255
11
2.4
21
-3.87683346
0
LINE
8
0
10
2.4
20
-3.87683346
11
2.4
21
-5.04880295
0
LINE
8
0
10
2.4
20
-5.04880295
11
2.4
21
-5.22863903
0
LINE
8
0
10
2.4
20
-5.22863903
11
2.4
21
-6.50930173
0
LINE
8
0
10
2.4
20
-6.50930173
11
2.4
21
-6.64977304
0
LINE
8
0
10
2.4
20
-6.64977304
11
2.4
21
-8.09222286
0
LINE
8
0
10
2.4
20
-8.09222286
11
2.4
21
-9.82830531
0
LINE
8
0
10
2.4
20
-9.82830531
11
2.4
21
-9.84979777
0
LINE
8
0
10
2.4
20
-9.84979777
11
2.4
21
-10.2463261
0
LINE
8
0
10
2.4
20
-10.2463261
11
2.46288457
21
-10.9435568
0
LINE
8
0
10
2.46288457
20
-10.9435568
11
2.468148
21
-10.9998114
0
LINE
8
0
10
2.468148
20
-10.9998114
11
2.47097395
21
-11.009814
0
LINE
8
0
10
2.47097395
20
-11.009814
11
2.4802705
21
-11.0427199
0
LINE
8
0
10
2.4802705
20
-11.0427199
11
2.62668379
21
-11.5066668
0
LINE
8
0
10
2.62668379
20
-11.5066668
11
2.667949
21
-11.6374257
0
LINE
8
0
10
2.667949
20
-11.6374257
11
2.85972497
21
-11.9654619
0
LINE
8
0
10
2.85972497
20
-11.9654619
11
2.985786
21
-12.1810898
0
LINE
8
0
10
2.985786
20
-12.1810898
11
3.17090599
21
-12.3675323
0
LINE
8
0
10
3.17090599
20
-12.3675323
11
3.4
21
-12.5982619
0
LINE
8
0
10
3.4
20
-12.5982619
11
3.55885276
21
-12.6846258
0
LINE
8
0
10
3.55885276
20
-12.6846258
11
3.882362
21
-12.8605055
0
LINE
8
0
10
3.882362
20
-12.8605055
11
4.01597097
21
-12.8835917
0
LINE
8
0
10
4.01597097
20
-12.8835917
11
4.4
21
-12.9499516
0
LINE
8
0
10
4.4
20
-12.9499516
11
6.65468618
21
-12.9499516
0
LINE
8
0
10
6.65468618
20
-12.9499516
11
14
21
-12.9499516
0
LINE
8
0
10
14
20
-12.9499516
11
14.1260992
21
-12.928163
0
LINE
8
0
10
14.1260992
20
-12.928163
11
14.51764
21
-12.8605055
0
LINE
8
0
10
14.51764
20
-12.8605055
11
14.6618753
21
-12.7820885
0
LINE
8
0
10
14.6618753
20
-12.7820885
11
15
21
-12.5982619
0
LINE
8
0
10
15
20
-12.5982619
11
15.1820427
21
-12.414917
0
LINE
8
0
10
15.1820427
20
-12.414917
11
15.41421
21
-12.1810898
0
LINE
8
0
10
15.41421
20
-12.1810898
11
15.6299693
21
-11.8120336
0
LINE
8
0
10
15.6299693
20
-11.8120336
11
15.73205
21
-11.6374257
0
LINE
8
0
10
15.73205
20
-11.6374257
11
15.9197276
21
-11.0427199
0
LINE
8
0
10
15.9197276
20
-11.0427199
11
15.93185
21
-10.9998114
0
LINE
8
0
10
15.93185
20
-10.9998114
11
15.9371136
21
-10.9435568
0
LINE
8
0
10
15.9371136
20
-10.9435568
11
16
21
-10.2463261
0
LINE
8
0
10
16
20
-10.2463261
11
16
21
-9.63840628
0
LINE
8
0
10
16
20
-9.63840628
11
16
21
-7.46261002
0
LINE
8
0
10
16
20
-7.46261002
11
16
21
-7.21691173
0
LINE
8
0
10
16
20
-7.21691173
11
16
21
-5.59120099
0
LINE
8
0
10
16
20
-5.59120099
11
16
21
-4.34675877
0
LINE
8
0
10
16
20
-4.34675877
11
16
21
-4.34675877
0
LINE
8
0
10
16
20
59.6328735
11
16
21
58.6253767
0
LINE
8
0
10
16
20
58.6253767
11
16
21
57.696044
0
LINE
8
0
10
16
20
57.696044
11
16
21
56.790201
0
LINE
8
0
10
16
20
56.790201
11
16
21
56.3759692
0
LINE
8
0
10
16
20
56.3759692
11
16
21
55.9934754
0
LINE
8
0
10
16
20
55.9934754
11
16
21
49.6265148
0
LINE
8
0
10
16
20
49.6265148
11
16
21
44.8946132
0
LINE
8
0
10
16
20
44.8946132
11
16
21
30.7435888
0
LINE
8
0
10
16
20
30.7435888
11
16
21
30.2272988
0
LINE
8
0
10
16
20
30.2272988
11
15.6770296
21
30.2272988
0
LINE
8
0
10
15.6770296
20
30.2272988
11
2.4
21
30.2272988
0
LINE
8
0
10
2.4
20
30.2272988
11
2.4
21
30.7435888
0
LINE
8
0
10
2.4
20
30.7435888
11
2.4
21
44.8946132
0
LINE
8
0
10
2.4
20
44.8946132
11
2.4
21
49.6265148
0
LINE
8
0
10
2.4
20
49.6265148
11
2.4
21
52.7419728
0
LINE
8
0
10
2.4
20
52.7419728
11
2.4
21
54.3658901
0
LINE
8
0
10
2.4
20
54.3658901
11
2.4
21
55.9664227
0
LINE
8
0
10
2.4
20
55.9664227
11
2.4
21
56.0881388
0
LINE
8
0
10
2.4
20
56.0881388
11
2.4
21
56.2574496
0
LINE
8
0
10
2.4
20
56.2574496
11
2.4
21
56.4612003
0
LINE
8
0
10
2.4
20
56.4612003
11
2.4
21
57.514729
0
LINE
8
0
10
2.4
20
57.514729
11
2.4
21
57.7246012
0
LINE
8
0
10
2.4
20
57.7246012
11
2.4
21
58.7860177
0
LINE
8
0
10
2.4
20
58.7860177
11
2.4
21
58.9856325
0
LINE
8
0
10
2.4
20
58.9856325
11
2.4
21
60.0888712
0
LINE
8
0
10
2.4
20
60.0888712
11
2.4
21
61.2939598
0
LINE
8
0
10
2.4
20
61.2939598
11
2.4
21
61.4443941
0
LINE
8
0
10
2.4
20
61.4443941
11
2.4
21
62.783311
0
LINE
8
0
10
2.4
20
62.783311
11
2.4
21
62.8818097
0
LINE
8
0
10
2.4
20
62.8818097
11
2.4
21
64.4170153
0
LINE
8
0
10
2.4
20
64.4170153
11
2.4
21
64.9778604
0
LINE
8
0
10
2.4
20
64.9778604
11
2.45470178
21
65.5923925
0
LINE
8
0
10
2.45470178
20
65.5923925
11
2.468148
21
65.7237742
0
LINE
8
0
10
2.468148
20
65.7237742
11
2.51271585
21
65.8678472
0
LINE
8
0
10
2.51271585
20
65.8678472
11
2.667949
21
66.3696649
0
LINE
8
0
10
2.667949
20
66.3696649
11
2.8512305
21
66.6895039
0
LINE
8
0
10
2.8512305
20
66.6895039
11
2.985786
21
66.9243147
0
LINE
8
0
10
2.985786
20
66.9243147
11
3.32264069
21
67.2704106
0
LINE
8
0
10
3.32264069
20
67.2704106
11
3.4
21
67.3498927
0
LINE
8
0
10
3.4
20
67.3498927
11
3.85469522
21
67.6020889
0
LINE
8
0
10
3.85469522
20
67.6020889
11
3.882362
21
67.617434
0
LINE
8
0
10
3.882362
20
67.617434
11
4.39097845
21
67.7070953
0
LINE
8
0
10
4.39097845
20
67.7070953
11
4.4
21
67.7086857
0
LINE
8
0
10
4.4
20
67.7086857
11
13.8391167
21
67.7086857
0
LINE
8
0
10
13.8391167
20
67.7086857
11
14
21
67.7086857
0
LINE
8
0
10
14
20
67.7086857
11
14.4922879
21
67.6219034
0
LINE
8
0
10
14.4922879
20
67.6219034
11
14.51764
21
67.617434
0
LINE
8
0
10
14.51764
20
67.617434
11
14.933927
21
67.3865393
0
LINE
8
0
10
14.933927
20
67.3865393
11
15
21
67.3498927
0
LINE
8
0
10
15
20
67.3498927
11
15.3023308
21
67.0392653
0
LINE
8
0
10
15.3023308
20
67.0392653
11
15.41421
21
66.9243147
0
LINE
8
0
10
15.41421
20
66.9243147
11
15.5920796
21
66.6139236
0
LINE
8
0
10
15.5920796
20
66.6139236
11
15.73205
21
66.3696649
0
LINE
8
0
10
15.73205
20
66.3696649
11
15.8034924
21
66.1387146
0
LINE
8
0
10
15.8034924
20
66.1387146
11
15.93185
21
65.7237742
0
LINE
8
0
10
15.93185
20
65.7237742
11
15.9452966
21
65.5923925
0
LINE
8
0
10
15.9452966
20
65.5923925
11
16
21
64.9778604
0
LINE
8
0
10
16
20
64.9778604
11
16
21
64.2404022
0
LINE
8
0
10
16
20
64.2404022
11
16
21
64.1705628
0
LINE
8
0
10
16
20
64.1705628
11
16
21
62.2301745
0
LINE
8
0
10
16
20
62.2301745
11
16
21
60.7938634
0
LINE
8
0
10
16
20
60.7938634
11
16
21
59.6328735
0
LINE
8
0
10
16
20
59.6328735
11
16
21
59.6328735
0
ENDSEC
0
EOF
