0
SECTION
2
ENTITIES
0
LINE
8
0
10
16
20
35.17343
11
16
21
38.5168083
0
LINE
8
0
10
16
20
38.5168083
11
16
21
39.6564079
0
LINE
8
0
10
16
20
39.6564079
11
16
21
40.2226185
0
LINE
8
0
10
16
20
40.2226185
11
12.798043
21
40.2226185
0
LINE
8
0
10
12.798043
20
40.2226185
11
2.4
21
40.2226185
0
LINE
8
0
10
2.4
20
40.2226185
11
2.4
21
30.8051186
0
LINE
8
0
10
2.4
20
30.8051186
11
2.4
21
28.0238484
0
LINE
8
0
10
2.4
20
28.0238484
11
2.4
21
27.9025233
0
LINE
8
0
10
2.4
20
27.9025233
11
2.4
21
27.8019515
0
LINE
8
0
10
2.4
20
27.8019515
11
2.4
21
27.6087937
0
LINE
8
0
10
2.4
20
27.6087937
11
2.68457669
21
27.6087939
0
LINE
8
0
10
2.68457669
20
27.6087939
11
13.8
21
27.6087939
0
LINE
8
0
10
13.8
20
27.6087939
11
13.8097872
21
27.609542
0
LINE
8
0
10
13.8097872
20
27.609542
11
14.19207
21
27.6387639
0
LINE
8
0
10
14.19207
20
27.6387639
11
14.2017628
21
27.6410005
0
LINE
8
0
10
14.2017628
20
27.6410005
11
14.58036
21
27.7283736
0
LINE
8
0
10
14.58036
20
27.7283736
11
14.5898654
21
27.7320779
0
LINE
8
0
10
14.5898654
20
27.7320779
11
14.96114
21
27.8767539
0
LINE
8
0
10
14.96114
20
27.8767539
11
14.970366
21
27.8818895
0
LINE
8
0
10
14.970366
20
27.8818895
11
15.33073
21
28.0824839
0
LINE
8
0
10
15.33073
20
28.0824839
11
15.3395883
21
28.0890017
0
LINE
8
0
10
15.3395883
20
28.0890017
11
15.68559
21
28.3435936
0
LINE
8
0
10
15.68559
20
28.3435936
11
15.6939947
21
28.351431
0
LINE
8
0
10
15.6939947
20
28.351431
11
16.02228
21
28.6575439
0
LINE
8
0
10
16.02228
20
28.6575439
11
16.0301505
21
28.6666249
0
LINE
8
0
10
16.0301505
20
28.6666249
11
16.33757
21
29.0213336
0
LINE
8
0
10
16.33757
20
29.0213336
11
16.3448307
21
29.0315714
0
LINE
8
0
10
16.3448307
20
29.0315714
11
16.62843
21
29.4314439
0
LINE
8
0
10
16.62843
20
29.4314439
11
16.6408478
21
29.4549836
0
LINE
8
0
10
16.6408478
20
29.4549836
11
17.12588
21
30.3744339
0
LINE
8
0
10
17.12588
20
30.3744339
11
17.1351073
21
30.4012904
0
LINE
8
0
10
17.1351073
20
30.4012904
11
17.49552
21
31.4502939
0
LINE
8
0
10
17.49552
20
31.4502939
11
17.501202
21
31.4794348
0
LINE
8
0
10
17.501202
20
31.4794348
11
17.72314
21
32.6176639
0
LINE
8
0
10
17.72314
20
32.6176639
11
17.7250586
21
32.6479695
0
LINE
8
0
10
17.7250586
20
32.6479695
11
17.8
21
33.8316939
0
LINE
8
0
10
17.8
20
33.8316939
11
17.8
21
33.89768
0
LINE
8
0
10
17.8
20
33.89768
11
17.8
21
34.2463266
0
LINE
8
0
10
17.8
20
34.2463266
11
17.8
21
34.4630327
0
LINE
8
0
10
17.8
20
34.4630327
11
17.8
21
35.17343
0
LINE
8
0
10
17.8
20
35.17343
11
16.598627
21
35.17343
0
LINE
8
0
10
16.598627
20
35.17343
11
16
21
35.17343
0
LINE
8
0
10
16
20
35.17343
11
16
21
35.17343
0
LINE
8
0
10
29.2249629
20
15
11
28.2
21
15
0
LINE
8
0
10
28.2
20
15
11
28.2
21
8.17990095
0
LINE
8
0
10
28.2
20
8.17990095
11
28.2
21
8.11423091
0
LINE
8
0
10
28.2
20
8.11423091
11
28.2
21
8.10744614
0
LINE
8
0
10
28.2
20
8.10744614
11
28.2
21
8.06076655
0
LINE
8
0
10
28.2
20
8.06076655
11
28.2
21
7.7707736
0
LINE
8
0
10
28.2
20
7.7707736
11
29.3499058
21
6.12726015
0
LINE
8
0
10
29.3499058
20
6.12726015
11
29.4
21
6.05566259
0
LINE
8
0
10
29.4
20
6.05566259
11
33.7725211
21
6.05566259
0
LINE
8
0
10
33.7725211
20
6.05566259
11
34
21
6.05566259
0
LINE
8
0
10
34
20
6.05566259
11
34.0500942
21
6.12726015
0
LINE
8
0
10
34.0500942
20
6.12726015
11
35.2
21
7.7707736
0
LINE
8
0
10
35.2
20
7.7707736
11
35.2
21
8.04238621
0
LINE
8
0
10
35.2
20
8.04238621
11
35.2
21
10
0
LINE
8
0
10
35.2
20
10
11
32.7464896
21
10
0
LINE
8
0
10
32.7464896
20
10
11
30.2
21
10
0
LINE
8
0
10
30.2
20
10
11
30.2
21
10.840565
0
LINE
8
0
10
30.2
20
10.840565
11
30.2
21
11.53281
0
LINE
8
0
10
30.2
20
11.53281
11
30.2
21
11.6105881
0
LINE
8
0
10
30.2
20
11.6105881
11
30.2
21
11.69043
0
LINE
8
0
10
30.2
20
11.69043
11
30.2
21
11.79157
0
LINE
8
0
10
30.2
20
11.79157
11
30.2
21
11.89597
0
LINE
8
0
10
30.2
20
11.89597
11
30.2
21
12.0134692
0
LINE
8
0
10
30.2
20
12.0134692
11
30.2
21
12.13557
0
LINE
8
0
10
30.2
20
12.13557
11
30.2
21
12.2613522
0
LINE
8
0
10
30.2
20
12.2613522
11
30.2
21
12.39302
0
LINE
8
0
10
30.2
20
12.39302
11
30.2
21
12.5185612
0
LINE
8
0
10
30.2
20
12.5185612
11
30.2
21
12.65094
0
LINE
8
0
10
30.2
20
12.65094
11
30.2
21
13.8014914
0
LINE
8
0
10
30.2
20
13.8014914
11
30.2
21
15
0
LINE
8
0
10
30.2
20
15
11
29.2249629
21
15
0
LINE
8
0
10
29.2249629
20
15
11
29.2249629
21
15
0
LINE
8
0
10
35.2
20
-10.6820063
11
35.2
21
-10.7520683
0
LINE
8
0
10
35.2
20
-10.7520683
11
35.2
21
-13.5
0
LINE
8
0
10
35.2
20
-13.5
11
35.193871
21
-13.6247376
0
LINE
8
0
10
35.193871
20
-13.6247376
11
35.1380543
21
-13.970501
0
LINE
8
0
10
35.1380543
20
-13.970501
11
35.11481
21
-14.14705
0
LINE
8
0
10
35.11481
20
-14.14705
11
34.9841413
21
-14.4625121
0
LINE
8
0
10
34.9841413
20
-14.4625121
11
34.86506
21
-14.75
0
LINE
8
0
10
34.86506
20
-14.75
11
34.6571987
21
-15.0208961
0
LINE
8
0
10
34.6571987
20
-15.0208961
11
34.46777
21
-15.26777
0
LINE
8
0
10
34.46777
20
-15.26777
11
34.1968739
21
-15.4756313
0
LINE
8
0
10
34.1968739
20
-15.4756313
11
33.95
21
-15.66506
0
LINE
8
0
10
33.95
20
-15.66506
11
33.6345379
21
-15.7957287
0
LINE
8
0
10
33.6345379
20
-15.7957287
11
33.34705
21
-15.91481
0
LINE
8
0
10
33.34705
20
-15.91481
11
33.1777824
21
-15.9370956
0
LINE
8
0
10
33.1777824
20
-15.9370956
11
32.9441022
21
-15.9759566
0
LINE
8
0
10
32.9441022
20
-15.9759566
11
32.7
21
-16
0
LINE
8
0
10
32.7
20
-16
11
31.576748
21
-16
0
LINE
8
0
10
31.576748
20
-16
11
30.7
21
-16
0
LINE
8
0
10
30.7
20
-16
11
30.4463124
21
-15.9750125
0
LINE
8
0
10
30.4463124
20
-15.9750125
11
30.0561283
21
-15.9155511
0
LINE
8
0
10
30.0561283
20
-15.9155511
11
30.0465103
21
-15.9126241
0
LINE
8
0
10
30.0465103
20
-15.9126241
11
29.4560993
21
-15.668068
0
LINE
8
0
10
29.4560993
20
-15.668068
11
29.4469931
21
-15.6631902
0
LINE
8
0
10
29.4469931
20
-15.6631902
11
28.9404293
21
-15.2744989
0
LINE
8
0
10
28.9404293
20
-15.2744989
11
28.93223
21
-15.26777
0
LINE
8
0
10
28.93223
20
-15.26777
11
28.9250333
21
-15.2590006
0
LINE
8
0
10
28.9250333
20
-15.2590006
11
28.5369398
21
-14.7532159
0
LINE
8
0
10
28.5369398
20
-14.7532159
11
28.5315121
21
-14.7430491
0
LINE
8
0
10
28.5315121
20
-14.7430491
11
28.2876811
21
-14.1543889
0
LINE
8
0
10
28.2876811
20
-14.1543889
11
28.2842964
21
-14.1432179
0
LINE
8
0
10
28.2842964
20
-14.1432179
11
28.2834239
21
-14.1373439
0
LINE
8
0
10
28.2834239
20
-14.1373439
11
28.21204
21
-13.74504
0
LINE
8
0
10
28.21204
20
-13.74504
11
28.2058707
21
-13.6194824
0
LINE
8
0
10
28.2058707
20
-13.6194824
11
28.2
21
-13.5
0
LINE
8
0
10
28.2
20
-13.5
11
28.2
21
-10.7676888
0
LINE
8
0
10
28.2
20
-10.7676888
11
28.2
21
-10.6820063
0
LINE
8
0
10
28.2
20
-10.6820063
11
28.6886342
21
-10.2013834
0
LINE
8
0
10
28.6886342
20
-10.2013834
11
29.4
21
-9.475485
0
LINE
8
0
10
29.4
20
-9.475485
11
30.7634512
21
-9.475485
0
LINE
8
0
10
30.7634512
20
-9.475485
11
34
21
-9.475485
0
LINE
8
0
10
34
20
-9.475485
11
34.7113658
21
-10.2013834
0
LINE
8
0
10
34.7113658
20
-10.2013834
11
35.2
21
-10.6820063
0
LINE
8
0
10
35.2
20
-10.6820063
11
35.2
21
-10.6820063
0
LINE
8
0
10
72
20
-6.91432259
11
72
21
-13.5
0
LINE
8
0
10
72
20
-13.5
11
71.9163942
21
-14.1350176
0
LINE
8
0
10
71.9163942
20
-14.1350176
11
71.91481
21
-14.14705
0
LINE
8
0
10
71.91481
20
-14.14705
11
71.9101657
21
-14.1582624
0
LINE
8
0
10
71.9101657
20
-14.1582624
11
71.66506
21
-14.75
0
LINE
8
0
10
71.66506
20
-14.75
11
71.6576721
21
-14.7596284
0
LINE
8
0
10
71.6576721
20
-14.7596284
11
71.26777
21
-15.26777
0
LINE
8
0
10
71.26777
20
-15.26777
11
71.2581416
21
-15.2751579
0
LINE
8
0
10
71.2581416
20
-15.2751579
11
70.75
21
-15.66506
0
LINE
8
0
10
70.75
20
-15.66506
11
70.7387876
21
-15.6697043
0
LINE
8
0
10
70.7387876
20
-15.6697043
11
70.14705
21
-15.91481
0
LINE
8
0
10
70.14705
20
-15.91481
11
70.1350176
21
-15.9163942
0
LINE
8
0
10
70.1350176
20
-15.9163942
11
69.5
21
-16
0
LINE
8
0
10
69.5
20
-16
11
64.4587137
21
-16
0
LINE
8
0
10
64.4587137
20
-16
11
58.8
21
-16
0
LINE
8
0
10
58.8
20
-16
11
58.7697651
21
-15.9993771
0
LINE
8
0
10
58.7697651
20
-15.9993771
11
58.73836
21
-15.99873
0
LINE
8
0
10
58.73836
20
-15.99873
11
58.7081559
21
-15.9968659
0
LINE
8
0
10
58.7081559
20
-15.9968659
11
58.67679
21
-15.99493
0
LINE
8
0
10
58.67679
20
-15.99493
11
58.6456674
21
-15.9917195
0
LINE
8
0
10
58.6456674
20
-15.9917195
11
58.4149695
21
-15.949514
0
LINE
8
0
10
58.4149695
20
-15.949514
11
58.41177
21
-15.94889
0
LINE
8
0
10
58.41177
20
-15.94889
11
58.4003976
21
-15.9441794
0
LINE
8
0
10
58.4003976
20
-15.9441794
11
58.05
21
-15.79904
0
LINE
8
0
10
58.05
20
-15.79904
11
58.0402343
21
-15.7915464
0
LINE
8
0
10
58.0402343
20
-15.7915464
11
57.73934
21
-15.56066
0
LINE
8
0
10
57.73934
20
-15.56066
11
57.7318464
21
-15.5508943
0
LINE
8
0
10
57.7318464
20
-15.5508943
11
57.50096
21
-15.25
0
LINE
8
0
10
57.50096
20
-15.25
11
57.4962494
21
-15.2386276
0
LINE
8
0
10
57.4962494
20
-15.2386276
11
57.35111
21
-14.88823
0
LINE
8
0
10
57.35111
20
-14.88823
11
57.3501754
21
-14.8811305
0
LINE
8
0
10
57.3501754
20
-14.8811305
11
57.3317219
21
-14.7409589
0
LINE
8
0
10
57.3317219
20
-14.7409589
11
57.3173274
21
-14.6575071
0
LINE
8
0
10
57.3173274
20
-14.6575071
11
57.3
21
-14.5
0
LINE
8
0
10
57.3
20
-14.5
11
57.3
21
-14.3408657
0
LINE
8
0
10
57.3
20
-14.3408657
11
57.3
21
-14.17729
0
LINE
8
0
10
57.3
20
-14.17729
11
57.3
21
-5.15974025
0
LINE
8
0
10
57.3
20
-5.15974025
11
57.3
21
-5.15447386
0
LINE
8
0
10
57.3
20
-5.15447386
11
57.3
21
-4.97218829
0
LINE
8
0
10
57.3
20
-4.97218829
11
57.7886342
21
-4.49156544
0
LINE
8
0
10
57.7886342
20
-4.49156544
11
58.5
21
-3.765667
0
LINE
8
0
10
58.5
20
-3.765667
11
64.7248363
21
-3.78019665
0
LINE
8
0
10
64.7248363
20
-3.78019665
11
68.9979309
21
-3.78597306
0
LINE
8
0
10
68.9979309
20
-3.78597306
11
69.2575454
21
-3.79766068
0
LINE
8
0
10
69.2575454
20
-3.79766068
11
69.2826356
21
-3.8004877
0
LINE
8
0
10
69.2826356
20
-3.8004877
11
69.5494617
21
-3.83717552
0
LINE
8
0
10
69.5494617
20
-3.83717552
11
69.8156902
21
-3.8997163
0
LINE
8
0
10
69.8156902
20
-3.8997163
11
70.0741753
21
-3.98780077
0
LINE
8
0
10
70.0741753
20
-3.98780077
11
70.1160674
21
-4.00245954
0
LINE
8
0
10
70.1160674
20
-4.00245954
11
70.3705028
21
-4.1181761
0
LINE
8
0
10
70.3705028
20
-4.1181761
11
70.6056588
21
-4.25547098
0
LINE
8
0
10
70.6056588
20
-4.25547098
11
70.6644075
21
-4.29238568
0
LINE
8
0
10
70.6644075
20
-4.29238568
11
70.8876468
21
-4.45524877
0
LINE
8
0
10
70.8876468
20
-4.45524877
11
71.083012
21
-4.63139137
0
LINE
8
0
10
71.083012
20
-4.63139137
11
71.1545792
21
-4.70295762
0
LINE
8
0
10
71.1545792
20
-4.70295762
11
71.3315816
21
-4.89930113
0
LINE
8
0
10
71.3315816
20
-4.89930113
11
71.4772088
21
-5.09872423
0
LINE
8
0
10
71.4772088
20
-5.09872423
11
71.5495913
21
-5.21392202
0
LINE
8
0
10
71.5495913
20
-5.21392202
11
71.6733743
21
-5.42633009
0
LINE
8
0
10
71.6733743
20
-5.42633009
11
71.7673368
21
-5.63256321
0
LINE
8
0
10
71.7673368
20
-5.63256321
11
71.8235998
21
-5.79335306
0
LINE
8
0
10
71.8235998
20
-5.79335306
11
71.8954069
21
-6.00533888
0
LINE
8
0
10
71.8954069
20
-6.00533888
11
71.942351
21
-6.20465106
0
LINE
8
0
10
71.942351
20
-6.20465106
11
71.9676076
21
-6.38976943
0
LINE
8
0
10
71.9676076
20
-6.38976943
11
71.9917589
21
-6.6041183
0
LINE
8
0
10
71.9917589
20
-6.6041183
11
72
21
-6.78718728
0
LINE
8
0
10
72
20
-6.78718728
11
72
21
-6.91432259
0
LINE
8
0
10
72
20
-6.91432259
11
72
21
-6.91432259
0
LINE
8
0
10
72
20
20.337455
11
72
21
20.3410355
0
LINE
8
0
10
72
20
20.3410355
11
72
21
20.4361665
0
LINE
8
0
10
72
20
20.4361665
11
72
21
20.4486041
0
LINE
8
0
10
72
20
20.4486041
11
72
21
20.57188
0
LINE
8
0
10
72
20
20.57188
11
72.0141049
21
20.5861832
0
LINE
8
0
10
72.0141049
20
20.5861832
11
72.0281227
21
20.600398
0
LINE
8
0
10
72.0281227
20
20.600398
11
72.0420919
21
20.6145637
0
LINE
8
0
10
72.0420919
20
20.6145637
11
73.15509
21
21.74321
0
LINE
8
0
10
73.15509
20
21.74321
11
73.3122292
21
21.902559
0
LINE
8
0
10
73.3122292
20
21.902559
11
73.44949
21
22.04175
0
LINE
8
0
10
73.44949
20
22.04175
11
73.5766933
21
22.1707442
0
LINE
8
0
10
73.5766933
20
22.1707442
11
73.68601
21
22.2816
0
LINE
8
0
10
73.68601
20
22.2816
11
73.8724399
21
22.4706483
0
LINE
8
0
10
73.8724399
20
22.4706483
11
74
21
22.6
0
LINE
8
0
10
74
20
22.6
11
74
21
22.6717783
0
LINE
8
0
10
74
20
22.6717783
11
74
21
22.7
0
LINE
8
0
10
74
20
22.7
11
73.9958896
21
22.7417238
0
LINE
8
0
10
73.9958896
20
22.7417238
11
73.99039
21
22.79755
0
LINE
8
0
10
73.99039
20
22.79755
11
73.9727606
21
22.8556683
0
LINE
8
0
10
73.9727606
20
22.8556683
11
73.96194
21
22.89134
0
LINE
8
0
10
73.96194
20
22.89134
11
73.9329173
21
22.9456358
0
LINE
8
0
10
73.9329173
20
22.9456358
11
73.91573
21
22.97779
0
LINE
8
0
10
73.91573
20
22.97779
11
73.8906972
21
23.00829
0
LINE
8
0
10
73.8906972
20
23.00829
11
73.85355
21
23.05355
0
LINE
8
0
10
73.85355
20
23.05355
11
73.8238873
21
23.0778957
0
LINE
8
0
10
73.8238873
20
23.0778957
11
73.77779
21
23.11573
0
LINE
8
0
10
73.77779
20
23.11573
11
73.721878
21
23.1456166
0
LINE
8
0
10
73.721878
20
23.1456166
11
73.69134
21
23.16194
0
LINE
8
0
10
73.69134
20
23.16194
11
73.6305624
21
23.1803761
0
LINE
8
0
10
73.6305624
20
23.1803761
11
73.59755
21
23.19039
0
LINE
8
0
10
73.59755
20
23.19039
11
73.5800869
21
23.1929803
0
LINE
8
0
10
73.5800869
20
23.1929803
11
73.54901
21
23.19759
0
LINE
8
0
10
73.54901
20
23.19759
11
73.5314923
21
23.1984514
0
LINE
8
0
10
73.5314923
20
23.1984514
11
73.5
21
23.2
0
LINE
8
0
10
73.5
20
23.2
11
73.2504755
21
23.2
0
LINE
8
0
10
73.2504755
20
23.2
11
72.8
21
23.2
0
LINE
8
0
10
72.8
20
23.2
11
72.6724642
21
23.2
0
LINE
8
0
10
72.6724642
20
23.2
11
72.4782823
21
23.2
0
LINE
8
0
10
72.4782823
20
23.2
11
72.3553364
21
23.2
0
LINE
8
0
10
72.3553364
20
23.2
11
72.1283663
21
23.2
0
LINE
8
0
10
72.1283663
20
23.2
11
72.0142319
21
23.2
0
LINE
8
0
10
72.0142319
20
23.2
11
71.7112377
21
23.2
0
LINE
8
0
10
71.7112377
20
23.2
11
71.6155838
21
23.2
0
LINE
8
0
10
71.6155838
20
23.2
11
71.1560031
21
23.2
0
LINE
8
0
10
71.1560031
20
23.2
11
70.9929457
21
23.2
0
LINE
8
0
10
70.9929457
20
23.2
11
70.6457116
21
23.2
0
LINE
8
0
10
70.6457116
20
23.2
11
70.6560414
21
28.3882193
0
LINE
8
0
10
70.6560414
20
28.3882193
11
70.6560414
21
29.9126831
0
LINE
8
0
10
70.6560414
20
29.9126831
11
71.756108
21
29.9126877
0
LINE
8
0
10
71.756108
20
29.9126877
11
72.5102914
21
29.9126848
0
LINE
8
0
10
72.5102914
20
29.9126848
11
72.8722503
21
29.9126848
0
LINE
8
0
10
72.8722503
20
29.9126848
11
73.2805072
21
29.9126856
0
LINE
8
0
10
73.2805072
20
29.9126856
11
73.5
21
29.9126856
0
LINE
8
0
10
73.5
20
29.9126856
11
73.5570088
21
29.91955
0
LINE
8
0
10
73.5570088
20
29.91955
11
73.5974234
21
29.9271912
0
LINE
8
0
10
73.5974234
20
29.9271912
11
73.6531377
21
29.9476968
0
LINE
8
0
10
73.6531377
20
29.9476968
11
73.6896735
21
29.9694297
0
LINE
8
0
10
73.6896735
20
29.9694297
11
73.7430016
21
30.0034491
0
LINE
8
0
10
73.7430016
20
30.0034491
11
73.7916547
21
30.0497578
0
LINE
8
0
10
73.7916547
20
30.0497578
11
73.8220981
21
30.0832747
0
LINE
8
0
10
73.8220981
20
30.0832747
11
73.8656222
21
30.1417496
0
LINE
8
0
10
73.8656222
20
30.1417496
11
73.887264
21
30.1822472
0
LINE
8
0
10
73.887264
20
30.1822472
11
73.9242937
21
30.2519338
0
LINE
8
0
10
73.9242937
20
30.2519338
11
73.9718824
21
30.4128124
0
LINE
8
0
10
73.9718824
20
30.4128124
11
73.9853629
21
30.459784
0
LINE
8
0
10
73.9853629
20
30.459784
11
73.9894224
21
30.5038917
0
LINE
8
0
10
73.9894224
20
30.5038917
11
74
21
30.6324673
0
LINE
8
0
10
74
20
30.6324673
11
74
21
30.95141
0
LINE
8
0
10
74
20
30.95141
11
70.2992072
21
30.95141
0
LINE
8
0
10
70.2992072
20
30.95141
11
68.129624
21
30.95141
0
LINE
8
0
10
68.129624
20
30.95141
11
67.9463905
21
30.95141
0
LINE
8
0
10
67.9463905
20
30.95141
11
67.9214193
21
24.6421619
0
LINE
8
0
10
67.9214193
20
24.6421619
11
67.9257341
21
23.2
0
LINE
8
0
10
67.9257341
20
23.2
11
67.4152883
21
23.2
0
LINE
8
0
10
67.4152883
20
23.2
11
67.1154269
21
23.2
0
LINE
8
0
10
67.1154269
20
23.2
11
66.7133865
21
23.2
0
LINE
8
0
10
66.7133865
20
23.2
11
65.7915533
21
23.2
0
LINE
8
0
10
65.7915533
20
23.2
11
65.7915536
21
25.0985843
0
LINE
8
0
10
65.7915536
20
25.0985843
11
65.7915536
21
30.45141
0
LINE
8
0
10
65.7915536
20
30.45141
11
65.780911
21
30.5148062
0
LINE
8
0
10
65.780911
20
30.5148062
11
65.7698293
21
30.58081
0
LINE
8
0
10
65.7698293
20
30.58081
11
65.7375513
21
30.6419234
0
LINE
8
0
10
65.7375513
20
30.6419234
11
65.7061326
21
30.70141
0
LINE
8
0
10
65.7061326
20
30.70141
11
65.6513997
21
30.7573441
0
LINE
8
0
10
65.6513997
20
30.7573441
11
65.6048063
21
30.80496
0
LINE
8
0
10
65.6048063
20
30.80496
11
65.5271064
21
30.8517128
0
LINE
8
0
10
65.5271064
20
30.8517128
11
65.4727531
21
30.88442
0
LINE
8
0
10
65.4727531
20
30.88442
11
65.3730879
21
30.9167941
0
LINE
8
0
10
65.3730879
20
30.9167941
11
65.3189765
21
30.93437
0
LINE
8
0
10
65.3189765
20
30.93437
11
65.2676592
21
30.9396689
0
LINE
8
0
10
65.2676592
20
30.9396689
11
65.1539498
21
30.95141
0
LINE
8
0
10
65.1539498
20
30.95141
11
65.0556223
21
30.95141
0
LINE
8
0
10
65.0556223
20
30.95141
11
63.8028074
21
30.95141
0
LINE
8
0
10
63.8028074
20
30.95141
11
63.3780251
21
30.95141
0
LINE
8
0
10
63.3780251
20
30.95141
11
63.275374
21
30.8232858
0
LINE
8
0
10
63.275374
20
30.8232858
11
63.1
21
30.6043881
0
LINE
8
0
10
63.1
20
30.6043881
11
63.1
21
24.0435063
0
LINE
8
0
10
63.1
20
24.0435063
11
63.1
21
12.7268829
0
LINE
8
0
10
63.1
20
12.7268829
11
63.1
21
11.8697114
0
LINE
8
0
10
63.1
20
11.8697114
11
63.1
21
11.7654805
0
LINE
8
0
10
63.1
20
11.7654805
11
65.8110816
21
11.7654805
0
LINE
8
0
10
65.8110816
20
11.7654805
11
66
21
11.7654805
0
LINE
8
0
10
66
20
11.7654805
11
66.5588652
21
11.8047097
0
LINE
8
0
10
66.5588652
20
11.8047097
11
66.6100782
21
11.8110915
0
LINE
8
0
10
66.6100782
20
11.8110915
11
67.1639711
21
11.9284926
0
LINE
8
0
10
67.1639711
20
11.9284926
11
67.7071436
21
12.1228958
0
LINE
8
0
10
67.7071436
20
12.1228958
11
67.7558125
21
12.1414786
0
LINE
8
0
10
67.7558125
20
12.1414786
11
68.2841086
21
12.4115649
0
LINE
8
0
10
68.2841086
20
12.4115649
11
68.3265141
21
12.4397506
0
LINE
8
0
10
68.3265141
20
12.4397506
11
68.8352541
21
12.7835535
0
LINE
8
0
10
68.8352541
20
12.7835535
11
69.3179816
21
13.1969526
0
LINE
8
0
10
69.3179816
20
13.1969526
11
69.3539351
21
13.2328092
0
LINE
8
0
10
69.3539351
20
13.2328092
11
69.8075739
21
13.7134916
0
LINE
8
0
10
69.8075739
20
13.7134916
11
70.2260724
21
14.2553984
0
LINE
8
0
10
70.2260724
20
14.2553984
11
70.2549151
21
14.2964616
0
LINE
8
0
10
70.2549151
20
14.2964616
11
70.6356297
21
14.896543
0
LINE
8
0
10
70.6356297
20
14.896543
11
70.9733548
21
15.5470563
0
LINE
8
0
10
70.9733548
20
15.5470563
11
70.9949656
21
15.5909894
0
LINE
8
0
10
70.9949656
20
15.5909894
11
71.2874912
21
16.2880964
0
LINE
8
0
10
71.2874912
20
16.2880964
11
71.5308197
21
17.0228065
0
LINE
8
0
10
71.5308197
20
17.0228065
11
71.5454818
21
17.0675675
0
LINE
8
0
10
71.5454818
20
17.0675675
11
71.7378748
21
17.8352592
0
LINE
8
0
10
71.7378748
20
17.8352592
11
71.7457476
21
17.8769604
0
LINE
8
0
10
71.7457476
20
17.8769604
11
71.8849595
21
18.6701175
0
LINE
8
0
10
71.8849595
20
18.6701175
11
71.9691301
21
19.4789522
0
LINE
8
0
10
71.9691301
20
19.4789522
11
71.9716191
21
19.5187536
0
LINE
8
0
10
71.9716191
20
19.5187536
11
72
21
20.337455
0
LINE
8
0
10
72
20
20.337455
11
72
21
20.337455
0
ENDSEC
0
EOF
