0
SECTION
2
ENTITIES
0
LINE
8
0
10
16
20
40.2
11
16
21
35.17343
0
LINE
8
0
10
16
20
35.17343
11
16.9
21
35.17343
0
LINE
8
0
10
16.9
20
35.17343
11
17.8
21
35.17343
0
LINE
8
0
10
17.8
20
35.17343
11
17.8
21
34.10539
0
LINE
8
0
10
17.8
20
34.10539
11
17.72314
21
32.89136
0
LINE
8
0
10
17.72314
20
32.89136
11
17.49552
21
31.72399
0
LINE
8
0
10
17.49552
20
31.72399
11
17.12588
21
30.64813
0
LINE
8
0
10
17.12588
20
30.64813
11
16.62843
21
29.70514
0
LINE
8
0
10
16.62843
20
29.70514
11
16.33757
21
29.29503
0
LINE
8
0
10
16.33757
20
29.29503
11
16.02228
21
28.93124
0
LINE
8
0
10
16.02228
20
28.93124
11
15.68559
21
28.61729
0
LINE
8
0
10
15.68559
20
28.61729
11
15.33073
21
28.35618
0
LINE
8
0
10
15.33073
20
28.35618
11
14.96114
21
28.15045
0
LINE
8
0
10
14.96114
20
28.15045
11
14.58036
21
28.00207
0
LINE
8
0
10
14.58036
20
28.00207
11
14.19207
21
27.91246
0
LINE
8
0
10
14.19207
20
27.91246
11
13.8
21
27.88249
0
LINE
8
0
10
13.8
20
27.88249
11
2.4
21
27.88249
0
LINE
8
0
10
2.4
20
27.88249
11
2.4
21
40.2
0
LINE
8
0
10
2.4
20
40.2
11
16
21
40.2
0
LINE
8
0
10
16
20
40.2
11
16
21
40.2
0
LINE
8
0
10
35.2
20
8.005293
11
35.2
21
10
0
LINE
8
0
10
35.2
20
10
11
32.7
21
10
0
LINE
8
0
10
32.7
20
10
11
30.2
21
10
0
LINE
8
0
10
30.2
20
10
11
30.2
21
10.8564921
0
LINE
8
0
10
30.2
20
10.8564921
11
30.2
21
11.53281
0
LINE
8
0
10
30.2
20
11.53281
11
30.2
21
11.612464
0
LINE
8
0
10
30.2
20
11.612464
11
30.2
21
11.69043
0
LINE
8
0
10
30.2
20
11.69043
11
30.2
21
11.7940634
0
LINE
8
0
10
30.2
20
11.7940634
11
30.2
21
11.89597
0
LINE
8
0
10
30.2
20
11.89597
11
30.2
21
12.0164162
0
LINE
8
0
10
30.2
20
12.0164162
11
30.2
21
12.13557
0
LINE
8
0
10
30.2
20
12.13557
11
30.2
21
12.264542
0
LINE
8
0
10
30.2
20
12.264542
11
30.2
21
12.39302
0
LINE
8
0
10
30.2
20
12.39302
11
30.2
21
12.5217575
0
LINE
8
0
10
30.2
20
12.5217575
11
30.2
21
12.65094
0
LINE
8
0
10
30.2
20
12.65094
11
30.2
21
13.830681
0
LINE
8
0
10
30.2
20
13.830681
11
30.2
21
15
0
LINE
8
0
10
30.2
20
15
11
29.2
21
15
0
LINE
8
0
10
29.2
20
15
11
28.2
21
15
0
LINE
8
0
10
28.2
20
15
11
28.2
21
8.005293
0
LINE
8
0
10
28.2
20
8.005293
11
29.4
21
6.290182
0
LINE
8
0
10
29.4
20
6.290182
11
34
21
6.290182
0
LINE
8
0
10
34
20
6.290182
11
35.2
21
8.005293
0
LINE
8
0
10
35.2
20
8.005293
11
35.2
21
8.005293
0
LINE
8
0
10
35.2
20
-10.7
11
35.2
21
-13.5
0
LINE
8
0
10
35.2
20
-13.5
11
35.1939829
21
-13.6224603
0
LINE
8
0
10
35.1939829
20
-13.6224603
11
35.1391852
21
-13.9619114
0
LINE
8
0
10
35.1391852
20
-13.9619114
11
35.11481
21
-14.14705
0
LINE
8
0
10
35.11481
20
-14.14705
11
34.989935
21
-14.448525
0
LINE
8
0
10
34.989935
20
-14.448525
11
34.86506
21
-14.75
0
LINE
8
0
10
34.86506
20
-14.75
11
34.666415
21
-15.008885
0
LINE
8
0
10
34.666415
20
-15.008885
11
34.46777
21
-15.26777
0
LINE
8
0
10
34.46777
20
-15.26777
11
34.208885
21
-15.466415
0
LINE
8
0
10
34.208885
20
-15.466415
11
33.95
21
-15.66506
0
LINE
8
0
10
33.95
20
-15.66506
11
33.648525
21
-15.789935
0
LINE
8
0
10
33.648525
20
-15.789935
11
33.34705
21
-15.91481
0
LINE
8
0
10
33.34705
20
-15.91481
11
33.1852875
21
-15.9361075
0
LINE
8
0
10
33.1852875
20
-15.9361075
11
32.9479366
21
-15.975579
0
LINE
8
0
10
32.9479366
20
-15.975579
11
32.7
21
-16
0
LINE
8
0
10
32.7
20
-16
11
31.5938547
21
-16
0
LINE
8
0
10
31.5938547
20
-16
11
30.7
21
-16
0
LINE
8
0
10
30.7
20
-16
11
30.4510764
21
-15.9754817
0
LINE
8
0
10
30.4510764
20
-15.9754817
11
30.05295
21
-15.91481
0
LINE
8
0
10
30.05295
20
-15.91481
11
29.45
21
-15.66506
0
LINE
8
0
10
29.45
20
-15.66506
11
28.93223
21
-15.26777
0
LINE
8
0
10
28.93223
20
-15.26777
11
28.53494
21
-14.75
0
LINE
8
0
10
28.53494
20
-14.75
11
28.28519
21
-14.14705
0
LINE
8
0
10
28.28519
20
-14.14705
11
28.21204
21
-13.74504
0
LINE
8
0
10
28.21204
20
-13.74504
11
28.2060162
21
-13.6224424
0
LINE
8
0
10
28.2060162
20
-13.6224424
11
28.2
21
-13.5
0
LINE
8
0
10
28.2
20
-13.5
11
28.2
21
-10.7
0
LINE
8
0
10
28.2
20
-10.7
11
29.4
21
-9.475485
0
LINE
8
0
10
29.4
20
-9.475485
11
31.7
21
-9.475485
0
LINE
8
0
10
31.7
20
-9.475485
11
34
21
-9.475485
0
LINE
8
0
10
34
20
-9.475485
11
35.2
21
-10.7
0
LINE
8
0
10
35.2
20
-10.7
11
35.2
21
-10.7
0
LINE
8
0
10
72
20
-13.5
11
72
21
-6.789536
0
LINE
8
0
10
72
20
-6.789536
11
71.9248001
21
-6.1221163
0
LINE
8
0
10
71.9248001
20
-6.1221163
11
71.9247996
21
-6.12211479
0
LINE
8
0
10
71.9247996
20
-6.12211479
11
71.7029704
21
-5.4881649
0
LINE
8
0
10
71.7029704
20
-5.4881649
11
71.345641
21
-4.91946935
0
LINE
8
0
10
71.345641
20
-4.91946935
11
70.8707116
21
-4.44454541
0
LINE
8
0
10
70.8707116
20
-4.44454541
11
70.8707101
21
-4.44454408
0
LINE
8
0
10
70.8707101
20
-4.44454408
11
70.3020219
21
-4.08720905
0
LINE
8
0
10
70.3020219
20
-4.08720905
11
69.6680715
21
-3.86537845
0
LINE
8
0
10
69.6680715
20
-3.86537845
11
69.00065
21
-3.790177
0
LINE
8
0
10
69.00065
20
-3.790177
11
58.5
21
-3.765667
0
LINE
8
0
10
58.5
20
-3.765667
11
57.3
21
-4.990182
0
LINE
8
0
10
57.3
20
-4.990182
11
57.3
21
-14.17729
0
LINE
8
0
10
57.3
20
-14.17729
11
57.3
21
-14.3379014
0
LINE
8
0
10
57.3
20
-14.3379014
11
57.3
21
-14.5
0
LINE
8
0
10
57.3
20
-14.5
11
57.3176502
21
-14.6604411
0
LINE
8
0
10
57.3176502
20
-14.6604411
11
57.3323128
21
-14.7454473
0
LINE
8
0
10
57.3323128
20
-14.7454473
11
57.35111
21
-14.88823
0
LINE
8
0
10
57.35111
20
-14.88823
11
57.50096
21
-15.25
0
LINE
8
0
10
57.50096
20
-15.25
11
57.73934
21
-15.56066
0
LINE
8
0
10
57.73934
20
-15.56066
11
58.05
21
-15.79904
0
LINE
8
0
10
58.05
20
-15.79904
11
58.41177
21
-15.94889
0
LINE
8
0
10
58.41177
20
-15.94889
11
58.6461518
21
-15.9917695
0
LINE
8
0
10
58.6461518
20
-15.9917695
11
58.67679
21
-15.99493
0
LINE
8
0
10
58.67679
20
-15.99493
11
58.7076676
21
-15.9968357
0
LINE
8
0
10
58.7076676
20
-15.9968357
11
58.73836
21
-15.99873
0
LINE
8
0
10
58.73836
20
-15.99873
11
58.7692733
21
-15.9993669
0
LINE
8
0
10
58.7692733
20
-15.9993669
11
58.8
21
-16
0
LINE
8
0
10
58.8
20
-16
11
64.5507491
21
-16
0
LINE
8
0
10
64.5507491
20
-16
11
69.5
21
-16
0
LINE
8
0
10
69.5
20
-16
11
70.14705
21
-15.91481
0
LINE
8
0
10
70.14705
20
-15.91481
11
70.75
21
-15.66506
0
LINE
8
0
10
70.75
20
-15.66506
11
71.26777
21
-15.26777
0
LINE
8
0
10
71.26777
20
-15.26777
11
71.66506
21
-14.75
0
LINE
8
0
10
71.66506
20
-14.75
11
71.91481
21
-14.14705
0
LINE
8
0
10
71.91481
20
-14.14705
11
72
21
-13.5
0
LINE
8
0
10
72
20
-13.5
11
72
21
-13.5
0
LINE
8
0
10
72
20
20.57188
11
72.0006693
21
20.5725587
0
LINE
8
0
10
72.0006693
20
20.5725587
11
73.15509
21
21.74321
0
LINE
8
0
10
73.15509
20
21.74321
11
73.3066227
21
21.8968736
0
LINE
8
0
10
73.3066227
20
21.8968736
11
73.44949
21
22.04175
0
LINE
8
0
10
73.44949
20
22.04175
11
73.57189
21
22.1658733
0
LINE
8
0
10
73.57189
20
22.1658733
11
73.68601
21
22.2816
0
LINE
8
0
10
73.68601
20
22.2816
11
73.86491
21
22.4630126
0
LINE
8
0
10
73.86491
20
22.4630126
11
74
21
22.6
0
LINE
8
0
10
74
20
22.6
11
74
21
22.6760154
0
LINE
8
0
10
74
20
22.6760154
11
74
21
22.7
0
LINE
8
0
10
74
20
22.7
11
73.9950077
21
22.7506762
0
LINE
8
0
10
73.9950077
20
22.7506762
11
73.99039
21
22.79755
0
LINE
8
0
10
73.99039
20
22.79755
11
73.9755877
21
22.8463482
0
LINE
8
0
10
73.9755877
20
22.8463482
11
73.96194
21
22.89134
0
LINE
8
0
10
73.96194
20
22.89134
11
73.9378977
21
22.9363185
0
LINE
8
0
10
73.9378977
20
22.9363185
11
73.91573
21
22.97779
0
LINE
8
0
10
73.91573
20
22.97779
11
73.8834434
21
23.0171279
0
LINE
8
0
10
73.8834434
20
23.0171279
11
73.85355
21
23.05355
0
LINE
8
0
10
73.85355
20
23.05355
11
73.8143834
21
23.085696
0
LINE
8
0
10
73.8143834
20
23.085696
11
73.77779
21
23.11573
0
LINE
8
0
10
73.77779
20
23.11573
11
73.7334054
21
23.1394548
0
LINE
8
0
10
73.7334054
20
23.1394548
11
73.69134
21
23.16194
0
LINE
8
0
10
73.69134
20
23.16194
11
73.6436352
21
23.1764106
0
LINE
8
0
10
73.6436352
20
23.1764106
11
73.59755
21
23.19039
0
LINE
8
0
10
73.59755
20
23.19039
11
73.5731716
21
23.1940061
0
LINE
8
0
10
73.5731716
20
23.1940061
11
73.54901
21
23.19759
0
LINE
8
0
10
73.54901
20
23.19759
11
73.5244682
21
23.1987968
0
LINE
8
0
10
73.5244682
20
23.1987968
11
73.5
21
23.2
0
LINE
8
0
10
73.5
20
23.2
11
73.15
21
23.2
0
LINE
8
0
10
73.15
20
23.2
11
72.8
21
23.2
0
LINE
8
0
10
72.8
20
23.2
11
72.7009102
21
23.2
0
LINE
8
0
10
72.7009102
20
23.2
11
72.4312311
21
23.2
0
LINE
8
0
10
72.4312311
20
23.2
11
72.3371927
21
23.2
0
LINE
8
0
10
72.3371927
20
23.2
11
72.0301411
21
23.2
0
LINE
8
0
10
72.0301411
20
23.2
11
71.947965
21
23.2
0
LINE
8
0
10
71.947965
20
23.2
11
71.5520098
21
23.2
0
LINE
8
0
10
71.5520098
20
23.2
11
71.4951448
21
23.2
0
LINE
8
0
10
71.4951448
20
23.2
11
70.9247141
21
23.2
0
LINE
8
0
10
70.9247141
20
23.2
11
70.9247141
21
23.2741267
0
LINE
8
0
10
70.9247141
20
23.2741267
11
70.9247141
21
29.6748697
0
LINE
8
0
10
70.9247141
20
29.6748697
11
72.0270365
21
29.6748655
0
LINE
8
0
10
72.0270365
20
29.6748655
11
72.5657327
21
29.6748656
0
LINE
8
0
10
72.5657327
20
29.6748656
11
73.1733333
21
29.6748667
0
LINE
8
0
10
73.1733333
20
29.6748667
11
73.5
21
29.6748667
0
LINE
8
0
10
73.5
20
29.6748667
11
73.5442933
21
29.6802
0
LINE
8
0
10
73.5442933
20
29.6802
11
73.6044417
21
29.6915723
0
LINE
8
0
10
73.6044417
20
29.6915723
11
73.6479316
21
29.7075788
0
LINE
8
0
10
73.6479316
20
29.7075788
11
73.702307
21
29.7399234
0
LINE
8
0
10
73.702307
20
29.7399234
11
73.7444672
21
29.7668185
0
LINE
8
0
10
73.7444672
20
29.7668185
11
73.7829314
21
29.8034292
0
LINE
8
0
10
73.7829314
20
29.8034292
11
73.8282397
21
29.8533117
0
LINE
8
0
10
73.8282397
20
29.8533117
11
73.8632648
21
29.9003683
0
LINE
8
0
10
73.8632648
20
29.9003683
11
73.895474
21
29.96064
0
LINE
8
0
10
73.895474
20
29.96064
11
73.925858
21
30.01782
0
LINE
8
0
10
73.925858
20
30.01782
11
73.964906
21
30.149826
0
LINE
8
0
10
73.964906
20
30.149826
11
73.9849688
21
30.2197328
0
LINE
8
0
10
73.9849688
20
30.2197328
11
73.9910105
21
30.2853775
0
LINE
8
0
10
73.9910105
20
30.2853775
11
74
21
30.3946492
0
LINE
8
0
10
74
20
30.3946492
11
74
21
30.95141
0
LINE
8
0
10
74
20
30.95141
11
70.7905864
21
30.95141
0
LINE
8
0
10
70.7905864
20
30.95141
11
67.9997207
21
30.95141
0
LINE
8
0
10
67.9997207
20
30.95141
11
67.6749265
21
30.95141
0
LINE
8
0
10
67.6749265
20
30.95141
11
67.6658297
21
27.8366315
0
LINE
8
0
10
67.6658297
20
27.8366315
11
67.679702
21
23.2
0
LINE
8
0
10
67.679702
20
23.2
11
67.524065
21
23.2
0
LINE
8
0
10
67.524065
20
23.2
11
67.4326361
21
23.2
0
LINE
8
0
10
67.4326361
20
23.2
11
66.8790757
21
23.2
0
LINE
8
0
10
66.8790757
20
23.2
11
65.6098241
21
23.2
0
LINE
8
0
10
65.6098241
20
23.2
11
65.6098246
21
25.8141183
0
LINE
8
0
10
65.6098246
20
25.8141183
11
65.6098246
21
30.45141
0
LINE
8
0
10
65.6098246
20
30.45141
11
65.595171
21
30.5386988
0
LINE
8
0
10
65.595171
20
30.5386988
11
65.5881008
21
30.58081
0
LINE
8
0
10
65.5881008
20
30.58081
11
65.5438654
21
30.6645629
0
LINE
8
0
10
65.5438654
20
30.6645629
11
65.5244041
21
30.70141
0
LINE
8
0
10
65.5244041
20
30.70141
11
65.4503607
21
30.7770783
0
LINE
8
0
10
65.4503607
20
30.7770783
11
65.4230777
21
30.80496
0
LINE
8
0
10
65.4230777
20
30.80496
11
65.3198947
21
30.8670462
0
LINE
8
0
10
65.3198947
20
30.8670462
11
65.2910227
21
30.88442
0
LINE
8
0
10
65.2910227
20
30.88442
11
65.1614178
21
30.9265194
0
LINE
8
0
10
65.1614178
20
30.9265194
11
65.137248
21
30.93437
0
LINE
8
0
10
65.137248
20
30.93437
11
65.1143261
21
30.9367369
0
LINE
8
0
10
65.1143261
20
30.9367369
11
64.9722203
21
30.95141
0
LINE
8
0
10
64.9722203
20
30.95141
11
64.8493377
21
30.95141
0
LINE
8
0
10
64.8493377
20
30.95141
11
63.28366
21
30.95141
0
LINE
8
0
10
63.28366
20
30.95141
11
63.1
21
30.72217
0
LINE
8
0
10
63.1
20
30.72217
11
63.1
21
23.851304
0
LINE
8
0
10
63.1
20
23.851304
11
63.1
21
12
0
LINE
8
0
10
63.1
20
12
11
66
21
12
0
LINE
8
0
10
66
20
12
11
66.58794
21
12.04127
0
LINE
8
0
10
66.58794
20
12.04127
11
67.17023
21
12.16469
0
LINE
8
0
10
67.17023
20
12.16469
11
67.74125
21
12.36906
0
LINE
8
0
10
67.74125
20
12.36906
11
68.29551
21
12.65242
0
LINE
8
0
10
68.29551
20
12.65242
11
68.82767
21
13.01205
0
LINE
8
0
10
68.82767
20
13.01205
11
69.33262
21
13.44448
0
LINE
8
0
10
69.33262
20
13.44448
11
69.80549
21
13.94554
0
LINE
8
0
10
69.80549
20
13.94554
11
70.24173
21
14.51042
0
LINE
8
0
10
70.24173
20
14.51042
11
70.63715
21
15.13368
0
LINE
8
0
10
70.63715
20
15.13368
11
70.98792
21
15.80932
0
LINE
8
0
10
70.98792
20
15.80932
11
71.29069
21
16.53084
0
LINE
8
0
10
71.29069
20
16.53084
11
71.54254
21
17.29128
0
LINE
8
0
10
71.54254
20
17.29128
11
71.74104
21
18.08334
0
LINE
8
0
10
71.74104
20
18.08334
11
71.88427
21
18.89939
0
LINE
8
0
10
71.88427
20
18.89939
11
71.97087
21
19.73157
0
LINE
8
0
10
71.97087
20
19.73157
11
72
21
20.57188
0
LINE
8
0
10
72
20
20.57188
11
72
21
20.57188
0
ENDSEC
0
EOF
