0
SECTION
2
ENTITIES
0
LINE
8
0
10
16
20
35.17343
11
16
21
38.5168083
0
LINE
8
0
10
16
20
38.5168083
11
16
21
39.6564079
0
LINE
8
0
10
16
20
39.6564079
11
16
21
40.2226185
0
LINE
8
0
10
16
20
40.2226185
11
5.60195696
21
40.2226185
0
LINE
8
0
10
5.60195696
20
40.2226185
11
2.4
21
40.2226185
0
LINE
8
0
10
2.4
20
40.2226185
11
2.4
21
30.8051186
0
LINE
8
0
10
2.4
20
30.8051186
11
2.4
21
28.0238484
0
LINE
8
0
10
2.4
20
28.0238484
11
2.4
21
27.9025233
0
LINE
8
0
10
2.4
20
27.9025233
11
2.4
21
27.8019515
0
LINE
8
0
10
2.4
20
27.8019515
11
2.4
21
27.6087937
0
LINE
8
0
10
2.4
20
27.6087937
11
2.68457669
21
27.6087939
0
LINE
8
0
10
2.68457669
20
27.6087939
11
13.8
21
27.6087939
0
LINE
8
0
10
13.8
20
27.6087939
11
13.8097872
21
27.609542
0
LINE
8
0
10
13.8097872
20
27.609542
11
14.19207
21
27.6387639
0
LINE
8
0
10
14.19207
20
27.6387639
11
14.2017628
21
27.6410005
0
LINE
8
0
10
14.2017628
20
27.6410005
11
14.58036
21
27.7283736
0
LINE
8
0
10
14.58036
20
27.7283736
11
14.5898654
21
27.7320779
0
LINE
8
0
10
14.5898654
20
27.7320779
11
14.96114
21
27.8767539
0
LINE
8
0
10
14.96114
20
27.8767539
11
14.970366
21
27.8818895
0
LINE
8
0
10
14.970366
20
27.8818895
11
15.33073
21
28.0824839
0
LINE
8
0
10
15.33073
20
28.0824839
11
15.3395883
21
28.0890017
0
LINE
8
0
10
15.3395883
20
28.0890017
11
15.68559
21
28.3435936
0
LINE
8
0
10
15.68559
20
28.3435936
11
15.6939947
21
28.351431
0
LINE
8
0
10
15.6939947
20
28.351431
11
16.02228
21
28.6575439
0
LINE
8
0
10
16.02228
20
28.6575439
11
16.0301505
21
28.6666249
0
LINE
8
0
10
16.0301505
20
28.6666249
11
16.33757
21
29.0213336
0
LINE
8
0
10
16.33757
20
29.0213336
11
16.3448307
21
29.0315714
0
LINE
8
0
10
16.3448307
20
29.0315714
11
16.62843
21
29.4314439
0
LINE
8
0
10
16.62843
20
29.4314439
11
16.6408478
21
29.4549836
0
LINE
8
0
10
16.6408478
20
29.4549836
11
17.12588
21
30.3744339
0
LINE
8
0
10
17.12588
20
30.3744339
11
17.1351073
21
30.4012904
0
LINE
8
0
10
17.1351073
20
30.4012904
11
17.49552
21
31.4502939
0
LINE
8
0
10
17.49552
20
31.4502939
11
17.501202
21
31.4794348
0
LINE
8
0
10
17.501202
20
31.4794348
11
17.72314
21
32.6176639
0
LINE
8
0
10
17.72314
20
32.6176639
11
17.7250586
21
32.6479695
0
LINE
8
0
10
17.7250586
20
32.6479695
11
17.8
21
33.8316939
0
LINE
8
0
10
17.8
20
33.8316939
11
17.8
21
33.89768
0
LINE
8
0
10
17.8
20
33.89768
11
17.8
21
34.2463266
0
LINE
8
0
10
17.8
20
34.2463266
11
17.8
21
34.4630327
0
LINE
8
0
10
17.8
20
34.4630327
11
17.8
21
35.17343
0
LINE
8
0
10
17.8
20
35.17343
11
17.201373
21
35.17343
0
LINE
8
0
10
17.201373
20
35.17343
11
16
21
35.17343
0
LINE
8
0
10
16
20
35.17343
11
16
21
35.17343
0
LINE
8
0
10
35.2
20
10
11
35.2
21
8.04238621
0
LINE
8
0
10
35.2
20
8.04238621
11
35.2
21
7.7707736
0
LINE
8
0
10
35.2
20
7.7707736
11
34.0500942
21
6.12726015
0
LINE
8
0
10
34.0500942
20
6.12726015
11
34
21
6.05566259
0
LINE
8
0
10
34
20
6.05566259
11
29.6274789
21
6.05566259
0
LINE
8
0
10
29.6274789
20
6.05566259
11
29.4
21
6.05566259
0
LINE
8
0
10
29.4
20
6.05566259
11
29.3499058
21
6.12726015
0
LINE
8
0
10
29.3499058
20
6.12726015
11
28.2
21
7.7707736
0
LINE
8
0
10
28.2
20
7.7707736
11
28.2
21
8.06076655
0
LINE
8
0
10
28.2
20
8.06076655
11
28.2
21
8.10744614
0
LINE
8
0
10
28.2
20
8.10744614
11
28.2
21
8.11423091
0
LINE
8
0
10
28.2
20
8.11423091
11
28.2
21
8.17990095
0
LINE
8
0
10
28.2
20
8.17990095
11
28.2
21
15
0
LINE
8
0
10
28.2
20
15
11
29.1750371
21
15
0
LINE
8
0
10
29.1750371
20
15
11
30.2
21
15
0
LINE
8
0
10
30.2
20
15
11
30.2
21
13.8598705
0
LINE
8
0
10
30.2
20
13.8598705
11
30.2
21
12.65094
0
LINE
8
0
10
30.2
20
12.65094
11
30.2
21
12.5249538
0
LINE
8
0
10
30.2
20
12.5249538
11
30.2
21
12.39302
0
LINE
8
0
10
30.2
20
12.39302
11
30.2
21
12.2677319
0
LINE
8
0
10
30.2
20
12.2677319
11
30.2
21
12.13557
0
LINE
8
0
10
30.2
20
12.13557
11
30.2
21
12.0193632
0
LINE
8
0
10
30.2
20
12.0193632
11
30.2
21
11.89597
0
LINE
8
0
10
30.2
20
11.89597
11
30.2
21
11.7965568
0
LINE
8
0
10
30.2
20
11.7965568
11
30.2
21
11.69043
0
LINE
8
0
10
30.2
20
11.69043
11
30.2
21
11.6143398
0
LINE
8
0
10
30.2
20
11.6143398
11
30.2
21
11.53281
0
LINE
8
0
10
30.2
20
11.53281
11
30.2
21
10.8724193
0
LINE
8
0
10
30.2
20
10.8724193
11
30.2
21
10
0
LINE
8
0
10
30.2
20
10
11
32.6535104
21
10
0
LINE
8
0
10
32.6535104
20
10
11
35.2
21
10
0
LINE
8
0
10
35.2
20
10
11
35.2
21
10
0
LINE
8
0
10
35.2
20
-10.6820063
11
35.2
21
-10.7520683
0
LINE
8
0
10
35.2
20
-10.7520683
11
35.2
21
-13.5
0
LINE
8
0
10
35.2
20
-13.5
11
35.1940948
21
-13.6201831
0
LINE
8
0
10
35.1940948
20
-13.6201831
11
35.1403161
21
-13.9533218
0
LINE
8
0
10
35.1403161
20
-13.9533218
11
35.11481
21
-14.14705
0
LINE
8
0
10
35.11481
20
-14.14705
11
34.9957287
21
-14.4345379
0
LINE
8
0
10
34.9957287
20
-14.4345379
11
34.86506
21
-14.75
0
LINE
8
0
10
34.86506
20
-14.75
11
34.6756313
21
-14.9968739
0
LINE
8
0
10
34.6756313
20
-14.9968739
11
34.46777
21
-15.26777
0
LINE
8
0
10
34.46777
20
-15.26777
11
34.2208961
21
-15.4571987
0
LINE
8
0
10
34.2208961
20
-15.4571987
11
33.95
21
-15.66506
0
LINE
8
0
10
33.95
20
-15.66506
11
33.6625121
21
-15.7841413
0
LINE
8
0
10
33.6625121
20
-15.7841413
11
33.34705
21
-15.91481
0
LINE
8
0
10
33.34705
20
-15.91481
11
33.1927926
21
-15.9351194
0
LINE
8
0
10
33.1927926
20
-15.9351194
11
32.951771
21
-15.9752013
0
LINE
8
0
10
32.951771
20
-15.9752013
11
32.7
21
-16
0
LINE
8
0
10
32.7
20
-16
11
31.6109615
21
-16
0
LINE
8
0
10
31.6109615
20
-16
11
30.7
21
-16
0
LINE
8
0
10
30.7
20
-16
11
30.4558403
21
-15.975951
0
LINE
8
0
10
30.4558403
20
-15.975951
11
30.0653334
21
-15.9164404
0
LINE
8
0
10
30.0653334
20
-15.9164404
11
30.0561283
21
-15.9155511
0
LINE
8
0
10
30.0561283
20
-15.9155511
11
30.0465103
21
-15.9126241
0
LINE
8
0
10
30.0465103
20
-15.9126241
11
29.4560993
21
-15.668068
0
LINE
8
0
10
29.4560993
20
-15.668068
11
29.4469931
21
-15.6631902
0
LINE
8
0
10
29.4469931
20
-15.6631902
11
28.9404293
21
-15.2744989
0
LINE
8
0
10
28.9404293
20
-15.2744989
11
28.93223
21
-15.26777
0
LINE
8
0
10
28.93223
20
-15.26777
11
28.9250333
21
-15.2590006
0
LINE
8
0
10
28.9250333
20
-15.2590006
11
28.5369398
21
-14.7532159
0
LINE
8
0
10
28.5369398
20
-14.7532159
11
28.5315121
21
-14.7430491
0
LINE
8
0
10
28.5315121
20
-14.7430491
11
28.2876811
21
-14.1543889
0
LINE
8
0
10
28.2876811
20
-14.1543889
11
28.2842964
21
-14.1432179
0
LINE
8
0
10
28.2842964
20
-14.1432179
11
28.2834239
21
-14.1373439
0
LINE
8
0
10
28.2834239
20
-14.1373439
11
28.21204
21
-13.74504
0
LINE
8
0
10
28.21204
20
-13.74504
11
28.2061616
21
-13.6254024
0
LINE
8
0
10
28.2061616
20
-13.6254024
11
28.2
21
-13.5
0
LINE
8
0
10
28.2
20
-13.5
11
28.2
21
-10.7676888
0
LINE
8
0
10
28.2
20
-10.7676888
11
28.2
21
-10.6820063
0
LINE
8
0
10
28.2
20
-10.6820063
11
28.6886342
21
-10.2013834
0
LINE
8
0
10
28.6886342
20
-10.2013834
11
29.4
21
-9.475485
0
LINE
8
0
10
29.4
20
-9.475485
11
32.6365488
21
-9.475485
0
LINE
8
0
10
32.6365488
20
-9.475485
11
34
21
-9.475485
0
LINE
8
0
10
34
20
-9.475485
11
34.7113658
21
-10.2013834
0
LINE
8
0
10
34.7113658
20
-10.2013834
11
35.2
21
-10.6820063
0
LINE
8
0
10
35.2
20
-10.6820063
11
35.2
21
-10.6820063
0
LINE
8
0
10
72
20
-6.91432259
11
72
21
-13.5
0
LINE
8
0
10
72
20
-13.5
11
71.9163942
21
-14.1350176
0
LINE
8
0
10
71.9163942
20
-14.1350176
11
71.91481
21
-14.14705
0
LINE
8
0
10
71.91481
20
-14.14705
11
71.6697043
21
-14.7387876
0
LINE
8
0
10
71.6697043
20
-14.7387876
11
71.66506
21
-14.75
0
LINE
8
0
10
71.66506
20
-14.75
11
71.2751579
21
-15.2581416
0
LINE
8
0
10
71.2751579
20
-15.2581416
11
71.26777
21
-15.26777
0
LINE
8
0
10
71.26777
20
-15.26777
11
70.7596284
21
-15.6576721
0
LINE
8
0
10
70.7596284
20
-15.6576721
11
70.75
21
-15.66506
0
LINE
8
0
10
70.75
20
-15.66506
11
70.1582624
21
-15.9101657
0
LINE
8
0
10
70.1582624
20
-15.9101657
11
70.14705
21
-15.91481
0
LINE
8
0
10
70.14705
20
-15.91481
11
70.1350176
21
-15.9163942
0
LINE
8
0
10
70.1350176
20
-15.9163942
11
69.5
21
-16
0
LINE
8
0
10
69.5
20
-16
11
64.6427844
21
-16
0
LINE
8
0
10
64.6427844
20
-16
11
58.8
21
-16
0
LINE
8
0
10
58.8
20
-16
11
58.7687816
21
-15.9993568
0
LINE
8
0
10
58.7687816
20
-15.9993568
11
58.73836
21
-15.99873
0
LINE
8
0
10
58.73836
20
-15.99873
11
58.7071794
21
-15.9968056
0
LINE
8
0
10
58.7071794
20
-15.9968056
11
58.67679
21
-15.99493
0
LINE
8
0
10
58.67679
20
-15.99493
11
58.6466363
21
-15.9918194
0
LINE
8
0
10
58.6466363
20
-15.9918194
11
58.4159605
21
-15.949618
0
LINE
8
0
10
58.4159605
20
-15.949618
11
58.41177
21
-15.94889
0
LINE
8
0
10
58.41177
20
-15.94889
11
58.0613724
21
-15.8037506
0
LINE
8
0
10
58.0613724
20
-15.8037506
11
58.05
21
-15.79904
0
LINE
8
0
10
58.05
20
-15.79904
11
57.7491057
21
-15.5681536
0
LINE
8
0
10
57.7491057
20
-15.5681536
11
57.73934
21
-15.56066
0
LINE
8
0
10
57.73934
20
-15.56066
11
57.5084536
21
-15.2597657
0
LINE
8
0
10
57.5084536
20
-15.2597657
11
57.50096
21
-15.25
0
LINE
8
0
10
57.50096
20
-15.25
11
57.3558206
21
-14.8996024
0
LINE
8
0
10
57.3558206
20
-14.8996024
11
57.35111
21
-14.88823
0
LINE
8
0
10
57.35111
20
-14.88823
11
57.3329037
21
-14.7499358
0
LINE
8
0
10
57.3329037
20
-14.7499358
11
57.317973
21
-14.663375
0
LINE
8
0
10
57.317973
20
-14.663375
11
57.3
21
-14.5
0
LINE
8
0
10
57.3
20
-14.5
11
57.3
21
-14.3349372
0
LINE
8
0
10
57.3
20
-14.3349372
11
57.3
21
-14.17729
0
LINE
8
0
10
57.3
20
-14.17729
11
57.3
21
-5.15974025
0
LINE
8
0
10
57.3
20
-5.15974025
11
57.3
21
-5.15447386
0
LINE
8
0
10
57.3
20
-5.15447386
11
57.3
21
-4.97218829
0
LINE
8
0
10
57.3
20
-4.97218829
11
57.7886342
21
-4.49156544
0
LINE
8
0
10
57.7886342
20
-4.49156544
11
58.5
21
-3.765667
0
LINE
8
0
10
58.5
20
-3.765667
11
64.7248363
21
-3.78019665
0
LINE
8
0
10
64.7248363
20
-3.78019665
11
68.9979309
21
-3.78597306
0
LINE
8
0
10
68.9979309
20
-3.78597306
11
69.2575454
21
-3.79766068
0
LINE
8
0
10
69.2575454
20
-3.79766068
11
69.2826355
21
-3.80048768
0
LINE
8
0
10
69.2826355
20
-3.80048768
11
69.5494617
21
-3.83717551
0
LINE
8
0
10
69.5494617
20
-3.83717551
11
69.8156903
21
-3.89971632
0
LINE
8
0
10
69.8156903
20
-3.89971632
11
70.0741755
21
-3.98780083
0
LINE
8
0
10
70.0741755
20
-3.98780083
11
70.1160673
21
-4.00245947
0
LINE
8
0
10
70.1160673
20
-4.00245947
11
70.3705029
21
-4.11817614
0
LINE
8
0
10
70.3705029
20
-4.11817614
11
70.6056592
21
-4.2554712
0
LINE
8
0
10
70.6056592
20
-4.2554712
11
70.6644071
21
-4.29238544
0
LINE
8
0
10
70.6644071
20
-4.29238544
11
70.8876468
21
-4.45524879
0
LINE
8
0
10
70.8876468
20
-4.45524879
11
71.0830125
21
-4.6313918
0
LINE
8
0
10
71.0830125
20
-4.6313918
11
71.1545788
21
-4.70295713
0
LINE
8
0
10
71.1545788
20
-4.70295713
11
71.3315815
21
-4.89930108
0
LINE
8
0
10
71.3315815
20
-4.89930108
11
71.4772092
21
-5.09872478
0
LINE
8
0
10
71.4772092
20
-5.09872478
11
71.5495909
21
-5.21392132
0
LINE
8
0
10
71.5495909
20
-5.21392132
11
71.6733742
21
-5.42632991
0
LINE
8
0
10
71.6733742
20
-5.42632991
11
71.767337
21
-5.63256366
0
LINE
8
0
10
71.767337
20
-5.63256366
11
71.8235996
21
-5.79335245
0
LINE
8
0
10
71.8235996
20
-5.79335245
11
71.8954068
21
-6.00533864
0
LINE
8
0
10
71.8954068
20
-6.00533864
11
71.942351
21
-6.20465125
0
LINE
8
0
10
71.942351
20
-6.20465125
11
71.9676077
21
-6.38977006
0
LINE
8
0
10
71.9676077
20
-6.38977006
11
71.9917589
21
-6.6041183
0
LINE
8
0
10
71.9917589
20
-6.6041183
11
72
21
-6.78718728
0
LINE
8
0
10
72
20
-6.78718728
11
72
21
-6.91432259
0
LINE
8
0
10
72
20
-6.91432259
11
72
21
-6.91432259
0
LINE
8
0
10
72
20
20.337455
11
72
21
20.3410355
0
LINE
8
0
10
72
20
20.3410355
11
72
21
20.4361665
0
LINE
8
0
10
72
20
20.4361665
11
72
21
20.4486041
0
LINE
8
0
10
72
20
20.4486041
11
72
21
20.57188
0
LINE
8
0
10
72
20
20.57188
11
72.0141049
21
20.5861832
0
LINE
8
0
10
72.0141049
20
20.5861832
11
72.0281227
21
20.600398
0
LINE
8
0
10
72.0281227
20
20.600398
11
72.0420919
21
20.6145637
0
LINE
8
0
10
72.0420919
20
20.6145637
11
72.0433817
21
20.6158717
0
LINE
8
0
10
72.0433817
20
20.6158717
11
73.15509
21
21.74321
0
LINE
8
0
10
73.15509
20
21.74321
11
73.3010161
21
21.8911882
0
LINE
8
0
10
73.3010161
20
21.8911882
11
73.44949
21
22.04175
0
LINE
8
0
10
73.44949
20
22.04175
11
73.5670866
21
22.1610023
0
LINE
8
0
10
73.5670866
20
22.1610023
11
73.68601
21
22.2816
0
LINE
8
0
10
73.68601
20
22.2816
11
73.85738
21
22.4553769
0
LINE
8
0
10
73.85738
20
22.4553769
11
74
21
22.6
0
LINE
8
0
10
74
20
22.6
11
74
21
22.6802525
0
LINE
8
0
10
74
20
22.6802525
11
74
21
22.7
0
LINE
8
0
10
74
20
22.7
11
73.9941258
21
22.7596287
0
LINE
8
0
10
73.9941258
20
22.7596287
11
73.99039
21
22.79755
0
LINE
8
0
10
73.99039
20
22.79755
11
73.9784148
21
22.8370282
0
LINE
8
0
10
73.9784148
20
22.8370282
11
73.96194
21
22.89134
0
LINE
8
0
10
73.96194
20
22.89134
11
73.9428781
21
22.9270012
0
LINE
8
0
10
73.9428781
20
22.9270012
11
73.91573
21
22.97779
0
LINE
8
0
10
73.91573
20
22.97779
11
73.8761897
21
23.0259658
0
LINE
8
0
10
73.8761897
20
23.0259658
11
73.85355
21
23.05355
0
LINE
8
0
10
73.85355
20
23.05355
11
73.8048795
21
23.0934963
0
LINE
8
0
10
73.8048795
20
23.0934963
11
73.77779
21
23.11573
0
LINE
8
0
10
73.77779
20
23.11573
11
73.7449328
21
23.1332931
0
LINE
8
0
10
73.7449328
20
23.1332931
11
73.69134
21
23.16194
0
LINE
8
0
10
73.69134
20
23.16194
11
73.656708
21
23.1724452
0
LINE
8
0
10
73.656708
20
23.1724452
11
73.59755
21
23.19039
0
LINE
8
0
10
73.59755
20
23.19039
11
73.5662563
21
23.1950318
0
LINE
8
0
10
73.5662563
20
23.1950318
11
73.54901
21
23.19759
0
LINE
8
0
10
73.54901
20
23.19759
11
73.517444
21
23.1991422
0
LINE
8
0
10
73.517444
20
23.1991422
11
73.5
21
23.2
0
LINE
8
0
10
73.5
20
23.2
11
73.0495245
21
23.2
0
LINE
8
0
10
73.0495245
20
23.2
11
72.8
21
23.2
0
LINE
8
0
10
72.8
20
23.2
11
72.7293562
21
23.2
0
LINE
8
0
10
72.7293562
20
23.2
11
72.3841798
21
23.2
0
LINE
8
0
10
72.3841798
20
23.2
11
72.319049
21
23.2
0
LINE
8
0
10
72.319049
20
23.2
11
71.9319158
21
23.2
0
LINE
8
0
10
71.9319158
20
23.2
11
71.8816982
21
23.2
0
LINE
8
0
10
71.8816982
20
23.2
11
71.3927818
21
23.2
0
LINE
8
0
10
71.3927818
20
23.2
11
71.3747058
21
23.2
0
LINE
8
0
10
71.3747058
20
23.2
11
71.1933793
21
23.2
0
LINE
8
0
10
71.1933793
20
23.2
11
71.1933793
21
27.4024022
0
LINE
8
0
10
71.1933793
20
27.4024022
11
71.1933793
21
29.4370475
0
LINE
8
0
10
71.1933793
20
29.4370475
11
71.5437816
21
29.4370462
0
LINE
8
0
10
71.5437816
20
29.4370462
11
72.2592151
21
29.4370463
0
LINE
8
0
10
72.2592151
20
29.4370463
11
73.0661594
21
29.4370478
0
LINE
8
0
10
73.0661594
20
29.4370478
11
73.5
21
29.4370478
0
LINE
8
0
10
73.5
20
29.4370478
11
73.5315779
21
29.44085
0
LINE
8
0
10
73.5315779
20
29.44085
11
73.61146
21
29.4559534
0
LINE
8
0
10
73.61146
20
29.4559534
11
73.6427254
21
29.4674607
0
LINE
8
0
10
73.6427254
20
29.4674607
11
73.7149405
21
29.510417
0
LINE
8
0
10
73.7149405
20
29.510417
11
73.7459328
21
29.5301878
0
LINE
8
0
10
73.7459328
20
29.5301878
11
73.7742081
21
29.5571006
0
LINE
8
0
10
73.7742081
20
29.5571006
11
73.8343813
21
29.6233488
0
LINE
8
0
10
73.8343813
20
29.6233488
11
73.8609075
21
29.6589869
0
LINE
8
0
10
73.8609075
20
29.6589869
11
73.903684
21
29.7390328
0
LINE
8
0
10
73.903684
20
29.7390328
11
73.9274223
21
29.7837062
0
LINE
8
0
10
73.9274223
20
29.7837062
11
73.9579296
21
29.8868396
0
LINE
8
0
10
73.9579296
20
29.8868396
11
73.9845747
21
29.9796817
0
LINE
8
0
10
73.9845747
20
29.9796817
11
73.9925986
21
30.0668633
0
LINE
8
0
10
73.9925986
20
30.0668633
11
74
21
30.156831
0
LINE
8
0
10
74
20
30.156831
11
74
21
30.95141
0
LINE
8
0
10
74
20
30.95141
11
71.2819655
21
30.95141
0
LINE
8
0
10
71.2819655
20
30.95141
11
68.918397
21
30.95141
0
LINE
8
0
10
68.918397
20
30.95141
11
67.4913902
21
30.95141
0
LINE
8
0
10
67.4913902
20
30.95141
11
67.4791528
21
26.7612889
0
LINE
8
0
10
67.4791528
20
26.7612889
11
67.4873296
21
23.2
0
LINE
8
0
10
67.4873296
20
23.2
11
67.0447649
21
23.2
0
LINE
8
0
10
67.0447649
20
23.2
11
65.4280949
21
23.2
0
LINE
8
0
10
65.4280949
20
23.2
11
65.4280955
21
26.5296523
0
LINE
8
0
10
65.4280955
20
26.5296523
11
65.4280955
21
30.45141
0
LINE
8
0
10
65.4280955
20
30.45141
11
65.409431
21
30.5625913
0
LINE
8
0
10
65.409431
20
30.5625913
11
65.4063722
21
30.58081
0
LINE
8
0
10
65.4063722
20
30.58081
11
65.3501795
21
30.6872024
0
LINE
8
0
10
65.3501795
20
30.6872024
11
65.3426755
21
30.70141
0
LINE
8
0
10
65.3426755
20
30.70141
11
65.2493218
21
30.7968125
0
LINE
8
0
10
65.2493218
20
30.7968125
11
65.2413492
21
30.80496
0
LINE
8
0
10
65.2413492
20
30.80496
11
65.1126831
21
30.8823796
0
LINE
8
0
10
65.1126831
20
30.8823796
11
65.1092924
21
30.88442
0
LINE
8
0
10
65.1092924
20
30.88442
11
65.0464922
21
30.9048193
0
LINE
8
0
10
65.0464922
20
30.9048193
11
64.9607361
21
30.9326754
0
LINE
8
0
10
64.9607361
20
30.9326754
11
64.9555191
21
30.93437
0
LINE
8
0
10
64.9555191
20
30.93437
11
64.9492967
21
30.9350125
0
LINE
8
0
10
64.9492967
20
30.9350125
11
64.7904908
21
30.95141
0
LINE
8
0
10
64.7904908
20
30.95141
11
64.6430531
21
30.95141
0
LINE
8
0
10
64.6430531
20
30.95141
11
63.3780251
21
30.95141
0
LINE
8
0
10
63.3780251
20
30.95141
11
63.2593371
21
30.803269
0
LINE
8
0
10
63.2593371
20
30.803269
11
63.1
21
30.6043883
0
LINE
8
0
10
63.1
20
30.6043883
11
63.1
21
29.6200294
0
LINE
8
0
10
63.1
20
29.6200294
11
63.1
21
23.6591016
0
LINE
8
0
10
63.1
20
23.6591016
11
63.1
21
13.3773165
0
LINE
8
0
10
63.1
20
13.3773165
11
63.1
21
11.8697114
0
LINE
8
0
10
63.1
20
11.8697114
11
63.1
21
11.7654805
0
LINE
8
0
10
63.1
20
11.7654805
11
65.8110816
21
11.7654805
0
LINE
8
0
10
65.8110816
20
11.7654805
11
66
21
11.7654805
0
LINE
8
0
10
66
20
11.7654805
11
66.5588652
21
11.8047097
0
LINE
8
0
10
66.5588652
20
11.8047097
11
66.6100782
21
11.8110915
0
LINE
8
0
10
66.6100782
20
11.8110915
11
67.1639711
21
11.9284926
0
LINE
8
0
10
67.1639711
20
11.9284926
11
67.7071436
21
12.1228958
0
LINE
8
0
10
67.7071436
20
12.1228958
11
67.7558125
21
12.1414786
0
LINE
8
0
10
67.7558125
20
12.1414786
11
68.2841086
21
12.4115649
0
LINE
8
0
10
68.2841086
20
12.4115649
11
68.3265141
21
12.4397506
0
LINE
8
0
10
68.3265141
20
12.4397506
11
68.8352541
21
12.7835535
0
LINE
8
0
10
68.8352541
20
12.7835535
11
69.3179816
21
13.1969526
0
LINE
8
0
10
69.3179816
20
13.1969526
11
69.3539351
21
13.2328092
0
LINE
8
0
10
69.3539351
20
13.2328092
11
69.8075739
21
13.7134916
0
LINE
8
0
10
69.8075739
20
13.7134916
11
70.2260724
21
14.2553984
0
LINE
8
0
10
70.2260724
20
14.2553984
11
70.2549151
21
14.2964616
0
LINE
8
0
10
70.2549151
20
14.2964616
11
70.6356297
21
14.896543
0
LINE
8
0
10
70.6356297
20
14.896543
11
70.9733548
21
15.5470563
0
LINE
8
0
10
70.9733548
20
15.5470563
11
70.9949656
21
15.5909894
0
LINE
8
0
10
70.9949656
20
15.5909894
11
71.2874912
21
16.2880964
0
LINE
8
0
10
71.2874912
20
16.2880964
11
71.5308197
21
17.0228065
0
LINE
8
0
10
71.5308197
20
17.0228065
11
71.5454818
21
17.0675675
0
LINE
8
0
10
71.5454818
20
17.0675675
11
71.7378748
21
17.8352592
0
LINE
8
0
10
71.7378748
20
17.8352592
11
71.7457476
21
17.8769604
0
LINE
8
0
10
71.7457476
20
17.8769604
11
71.8849595
21
18.6701175
0
LINE
8
0
10
71.8849595
20
18.6701175
11
71.9691301
21
19.4789522
0
LINE
8
0
10
71.9691301
20
19.4789522
11
71.9716191
21
19.5187536
0
LINE
8
0
10
71.9716191
20
19.5187536
11
72
21
20.337455
0
LINE
8
0
10
72
20
20.337455
11
72
21
20.337455
0
ENDSEC
0
EOF
