0
SECTION
2
ENTITIES
0
LINE
8
0
10
16
20
38.5692238
11
16
21
40.2678556
0
LINE
8
0
10
16
20
40.2678556
11
12.0058709
21
40.2678556
0
LINE
8
0
10
12.0058709
20
40.2678556
11
2.4
21
40.2678556
0
LINE
8
0
10
2.4
20
40.2678556
11
2.4
21
36.6503758
0
LINE
8
0
10
2.4
20
36.6503758
11
2.4
21
28.3065652
0
LINE
8
0
10
2.4
20
28.3065652
11
2.4
21
27.9425899
0
LINE
8
0
10
2.4
20
27.9425899
11
2.4
21
27.6408744
0
LINE
8
0
10
2.4
20
27.6408744
11
2.4
21
27.0614012
0
LINE
8
0
10
2.4
20
27.0614012
11
3.25373008
21
27.0614016
0
LINE
8
0
10
3.25373008
20
27.0614016
11
13.8
21
27.0614016
0
LINE
8
0
10
13.8
20
27.0614016
11
13.8293616
21
27.063646
0
LINE
8
0
10
13.8293616
20
27.063646
11
14.19207
21
27.0913716
0
LINE
8
0
10
14.19207
20
27.0913716
11
14.2211485
21
27.0980816
0
LINE
8
0
10
14.2211485
20
27.0980816
11
14.58036
21
27.1809809
0
LINE
8
0
10
14.58036
20
27.1809809
11
14.6088761
21
27.1920936
0
LINE
8
0
10
14.6088761
20
27.1920936
11
14.96114
21
27.3293616
0
LINE
8
0
10
14.96114
20
27.3293616
11
14.9888181
21
27.3447684
0
LINE
8
0
10
14.9888181
20
27.3447684
11
15.33073
21
27.5350916
0
LINE
8
0
10
15.33073
20
27.5350916
11
15.357305
21
27.554645
0
LINE
8
0
10
15.357305
20
27.554645
11
15.68559
21
27.7962009
0
LINE
8
0
10
15.68559
20
27.7962009
11
15.7108042
21
27.8197129
0
LINE
8
0
10
15.7108042
20
27.8197129
11
16.02228
21
28.1101516
0
LINE
8
0
10
16.02228
20
28.1101516
11
16.0458916
21
28.1373946
0
LINE
8
0
10
16.0458916
20
28.1373946
11
16.33757
21
28.4739409
0
LINE
8
0
10
16.33757
20
28.4739409
11
16.3593521
21
28.5046542
0
LINE
8
0
10
16.3593521
20
28.5046542
11
16.62843
21
28.8840516
0
LINE
8
0
10
16.62843
20
28.8840516
11
16.6656833
21
28.9546708
0
LINE
8
0
10
16.6656833
20
28.9546708
11
17.12588
21
29.8270416
0
LINE
8
0
10
17.12588
20
29.8270416
11
17.1535618
21
29.9076113
0
LINE
8
0
10
17.1535618
20
29.9076113
11
17.49552
21
30.9029016
0
LINE
8
0
10
17.49552
20
30.9029016
11
17.5125661
21
30.9903243
0
LINE
8
0
10
17.5125661
20
30.9903243
11
17.72314
21
32.0702716
0
LINE
8
0
10
17.72314
20
32.0702716
11
17.7288959
21
32.1611886
0
LINE
8
0
10
17.7288959
20
32.1611886
11
17.8
21
33.2843016
0
LINE
8
0
10
17.8
20
33.2843016
11
17.8
21
33.4822599
0
LINE
8
0
10
17.8
20
33.4822599
11
17.8
21
34.5281997
0
LINE
8
0
10
17.8
20
34.5281997
11
17.8
21
35.1738614
0
LINE
8
0
10
17.8
20
35.1738614
11
16.0041577
21
35.1738614
0
LINE
8
0
10
16.0041577
20
35.1738614
11
16
21
35.1738614
0
LINE
8
0
10
16
20
35.1738614
11
16
21
38.5692238
0
LINE
8
0
10
16
20
38.5692238
11
16
21
38.5692238
0
LINE
8
0
10
35.2
20
7.30173481
11
35.2
21
8.11657264
0
LINE
8
0
10
35.2
20
8.11657264
11
35.2
21
10
0
LINE
8
0
10
35.2
20
10
11
32.5605313
21
10
0
LINE
8
0
10
32.5605313
20
10
11
30.2
21
10
0
LINE
8
0
10
30.2
20
10
11
30.2
21
10.9042736
0
LINE
8
0
10
30.2
20
10.9042736
11
30.2
21
11.53281
0
LINE
8
0
10
30.2
20
11.53281
11
30.2
21
11.6180915
0
LINE
8
0
10
30.2
20
11.6180915
11
30.2
21
11.69043
0
LINE
8
0
10
30.2
20
11.69043
11
30.2
21
11.8015436
0
LINE
8
0
10
30.2
20
11.8015436
11
30.2
21
11.89597
0
LINE
8
0
10
30.2
20
11.89597
11
30.2
21
12.0252572
0
LINE
8
0
10
30.2
20
12.0252572
11
30.2
21
12.13557
0
LINE
8
0
10
30.2
20
12.13557
11
30.2
21
12.2741115
0
LINE
8
0
10
30.2
20
12.2741115
11
30.2
21
12.39302
0
LINE
8
0
10
30.2
20
12.39302
11
30.2
21
12.5313463
0
LINE
8
0
10
30.2
20
12.5313463
11
30.2
21
12.65094
0
LINE
8
0
10
30.2
20
12.65094
11
30.2
21
13.9182496
0
LINE
8
0
10
30.2
20
13.9182496
11
30.2
21
15
0
LINE
8
0
10
30.2
20
15
11
29.1251114
21
15
0
LINE
8
0
10
29.1251114
20
15
11
28.2
21
15
0
LINE
8
0
10
28.2
20
15
11
28.2
21
8.52911684
0
LINE
8
0
10
28.2
20
8.52911684
11
28.2
21
8.33210673
0
LINE
8
0
10
28.2
20
8.33210673
11
28.2
21
8.31175241
0
LINE
8
0
10
28.2
20
8.31175241
11
28.2
21
8.17171364
0
LINE
8
0
10
28.2
20
8.17171364
11
28.2
21
7.30173481
0
LINE
8
0
10
28.2
20
7.30173481
11
29.2497175
21
5.80141645
0
LINE
8
0
10
29.2497175
20
5.80141645
11
29.4
21
5.58662376
0
LINE
8
0
10
29.4
20
5.58662376
11
30.0824368
21
5.58662376
0
LINE
8
0
10
30.0824368
20
5.58662376
11
34
21
5.58662376
0
LINE
8
0
10
34
20
5.58662376
11
34.1502825
21
5.80141645
0
LINE
8
0
10
34.1502825
20
5.80141645
11
35.2
21
7.30173481
0
LINE
8
0
10
35.2
20
7.30173481
11
35.2
21
7.30173481
0
LINE
8
0
10
35.2
20
-10.8562049
11
35.2
21
-10.6460189
0
LINE
8
0
10
35.2
20
-10.6460189
11
34.2360846
21
-9.69790716
0
LINE
8
0
10
34.2360846
20
-9.69790716
11
34
21
-9.45354855
0
LINE
8
0
10
34
20
-9.45354855
11
29.917438
21
-9.45354855
0
LINE
8
0
10
29.917438
20
-9.45354855
11
29.4
21
-9.45354855
0
LINE
8
0
10
29.4
20
-9.45354855
11
29.1639154
21
-9.69790716
0
LINE
8
0
10
29.1639154
20
-9.69790716
11
28.2
21
-10.6460189
0
LINE
8
0
10
28.2
20
-10.6460189
11
28.2
21
-10.9030664
0
LINE
8
0
10
28.2
20
-10.9030664
11
28.2
21
-13.5
0
LINE
8
0
10
28.2
20
-13.5
11
28.2064525
21
-13.6313224
0
LINE
8
0
10
28.2064525
20
-13.6313224
11
28.21204
21
-13.74504
0
LINE
8
0
10
28.21204
20
-13.74504
11
28.2798916
21
-14.1179316
0
LINE
8
0
10
28.2798916
20
-14.1179316
11
28.2825093
21
-14.1355537
0
LINE
8
0
10
28.2825093
20
-14.1355537
11
28.2926633
21
-14.1690667
0
LINE
8
0
10
28.2926633
20
-14.1690667
11
28.5246562
21
-14.7291472
0
LINE
8
0
10
28.5246562
20
-14.7291472
11
28.5409393
21
-14.7596478
0
LINE
8
0
10
28.5409393
20
-14.7596478
11
28.9106399
21
-15.2414619
0
LINE
8
0
10
28.9106399
20
-15.2414619
11
28.93223
21
-15.26777
0
LINE
8
0
10
28.93223
20
-15.26777
11
28.956828
21
-15.2879567
0
LINE
8
0
10
28.956828
20
-15.2879567
11
29.4409793
21
-15.6594507
0
LINE
8
0
10
29.4409793
20
-15.6594507
11
29.4682979
21
-15.6740839
0
LINE
8
0
10
29.4682979
20
-15.6740839
11
30.0336308
21
-15.9082523
0
LINE
8
0
10
30.0336308
20
-15.9082523
11
30.0624848
21
-15.9170333
0
LINE
8
0
10
30.0624848
20
-15.9170333
11
30.0901001
21
-15.9197011
0
LINE
8
0
10
30.0901001
20
-15.9197011
11
30.4653682
21
-15.9768894
0
LINE
8
0
10
30.4653682
20
-15.9768894
11
30.7
21
-16
0
LINE
8
0
10
30.7
20
-16
11
31.6451751
21
-16
0
LINE
8
0
10
31.6451751
20
-16
11
32.7
21
-16
0
LINE
8
0
10
32.7
20
-16
11
32.9594398
21
-15.9744459
0
LINE
8
0
10
32.9594398
20
-15.9744459
11
33.2078027
21
-15.9331432
0
LINE
8
0
10
33.2078027
20
-15.9331432
11
33.34705
21
-15.91481
0
LINE
8
0
10
33.34705
20
-15.91481
11
33.6904864
21
-15.772554
0
LINE
8
0
10
33.6904864
20
-15.772554
11
33.95
21
-15.66506
0
LINE
8
0
10
33.95
20
-15.66506
11
34.2449184
21
-15.4387662
0
LINE
8
0
10
34.2449184
20
-15.4387662
11
34.46777
21
-15.26777
0
LINE
8
0
10
34.46777
20
-15.26777
11
34.6940638
21
-14.9728516
0
LINE
8
0
10
34.6940638
20
-14.9728516
11
34.86506
21
-14.75
0
LINE
8
0
10
34.86506
20
-14.75
11
35.007316
21
-14.4065636
0
LINE
8
0
10
35.007316
20
-14.4065636
11
35.11481
21
-14.14705
0
LINE
8
0
10
35.11481
20
-14.14705
11
35.1425779
21
-13.9361426
0
LINE
8
0
10
35.1425779
20
-13.9361426
11
35.1943186
21
-13.6156286
0
LINE
8
0
10
35.1943186
20
-13.6156286
11
35.2
21
-13.5
0
LINE
8
0
10
35.2
20
-13.5
11
35.2
21
-10.8562049
0
LINE
8
0
10
35.2
20
-10.8562049
11
35.2
21
-10.8562049
0
LINE
8
0
10
72
20
20.1604184
11
72
21
19.8719966
0
LINE
8
0
10
72
20
19.8719966
11
72
21
19.8686051
0
LINE
8
0
10
72
20
19.8686051
11
71.9731172
21
19.0931208
0
LINE
8
0
10
71.9731172
20
19.0931208
11
71.9656504
21
18.9737165
0
LINE
8
0
10
71.9656504
20
18.9737165
11
71.8863386
21
18.2115726
0
LINE
8
0
10
71.8863386
20
18.2115726
11
71.7551629
21
17.4642013
0
LINE
8
0
10
71.7551629
20
17.4642013
11
71.7315444
21
17.3390975
0
LINE
8
0
10
71.7315444
20
17.3390975
11
71.5513655
21
16.6201426
0
LINE
8
0
10
71.5513655
20
16.6201426
11
71.5073791
21
16.4858594
0
LINE
8
0
10
71.5073791
20
16.4858594
11
71.2810936
21
15.8026091
0
LINE
8
0
10
71.2810936
20
15.8026091
11
71.0090567
21
15.1543281
0
LINE
8
0
10
71.0090567
20
15.1543281
11
70.9442244
21
15.022529
0
LINE
8
0
10
70.9442244
20
15.022529
11
70.6325891
21
14.4222689
0
LINE
8
0
10
70.6325891
20
14.4222689
11
70.2812853
21
13.8685447
0
LINE
8
0
10
70.2812853
20
13.8685447
11
70.1947572
21
13.7453553
0
LINE
8
0
10
70.1947572
20
13.7453553
11
69.8117417
21
13.2493947
0
LINE
8
0
10
69.8117417
20
13.2493947
11
69.3965652
21
12.8094677
0
LINE
8
0
10
69.3965652
20
12.8094677
11
69.2887048
21
12.7018978
0
LINE
8
0
10
69.2887048
20
12.7018978
11
68.8504224
21
12.3265606
0
LINE
8
0
10
68.8504224
20
12.3265606
11
68.3885224
21
12.0144119
0
LINE
8
0
10
68.3885224
20
12.0144119
11
68.2613058
21
11.9298546
0
LINE
8
0
10
68.2613058
20
11.9298546
11
67.7849374
21
11.6863159
0
LINE
8
0
10
67.7849374
20
11.6863159
11
67.6389308
21
11.6305675
0
LINE
8
0
10
67.6389308
20
11.6305675
11
67.1514533
21
11.4560977
0
LINE
8
0
10
67.1514533
20
11.4560977
11
66.6543547
21
11.3507345
0
LINE
8
0
10
66.6543547
20
11.3507345
11
66.5007157
21
11.331589
0
LINE
8
0
10
66.5007157
20
11.331589
11
66
21
11.2964416
0
LINE
8
0
10
66
20
11.2964416
11
65.4332447
21
11.2964416
0
LINE
8
0
10
65.4332447
20
11.2964416
11
63.1
21
11.2964416
0
LINE
8
0
10
63.1
20
11.2964416
11
63.1
21
11.6091342
0
LINE
8
0
10
63.1
20
11.6091342
11
63.1
21
16.1319494
0
LINE
8
0
10
63.1
20
16.1319494
11
63.1
21
23.2746968
0
LINE
8
0
10
63.1
20
23.2746968
11
63.1
21
27.4157483
0
LINE
8
0
10
63.1
20
27.4157483
11
63.1
21
30.3688248
0
LINE
8
0
10
63.1
20
30.3688248
11
63.2106914
21
30.5069871
0
LINE
8
0
10
63.2106914
20
30.5069871
11
63.5667552
21
30.95141
0
LINE
8
0
10
63.5667552
20
30.95141
11
64.2304838
21
30.95141
0
LINE
8
0
10
64.2304838
20
30.95141
11
64.4270318
21
30.95141
0
LINE
8
0
10
64.4270318
20
30.95141
11
64.5212761
21
30.9416788
0
LINE
8
0
10
64.5212761
20
30.9416788
11
64.5920584
21
30.93437
0
LINE
8
0
10
64.5920584
20
30.93437
11
64.6514037
21
30.9150935
0
LINE
8
0
10
64.6514037
20
30.9150935
11
64.7458334
21
30.88442
0
LINE
8
0
10
64.7458334
20
30.88442
11
64.7905726
21
30.8574991
0
LINE
8
0
10
64.7905726
20
30.8574991
11
64.8778894
21
30.80496
0
LINE
8
0
10
64.8778894
20
30.80496
11
64.9083374
21
30.7738443
0
LINE
8
0
10
64.9083374
20
30.7738443
11
64.9792164
21
30.70141
0
LINE
8
0
10
64.9792164
20
30.70141
11
64.99666
21
30.6683837
0
LINE
8
0
10
64.99666
20
30.6683837
11
65.0429135
21
30.58081
0
LINE
8
0
10
65.0429135
20
30.58081
11
65.0486117
21
30.5468725
0
LINE
8
0
10
65.0486117
20
30.5468725
11
65.0646374
21
30.45141
0
LINE
8
0
10
65.0646374
20
30.45141
11
65.0646374
21
27.9607203
0
LINE
8
0
10
65.0646374
20
27.9607203
11
65.0646366
21
23.2
0
LINE
8
0
10
65.0646366
20
23.2
11
66.9735848
21
23.2
0
LINE
8
0
10
66.9735848
20
23.2
11
67.2084472
21
23.2
0
LINE
8
0
10
67.2084472
20
23.2
11
67.2084471
21
23.3714764
0
LINE
8
0
10
67.2084471
20
23.3714764
11
67.2084471
21
30.6915842
0
LINE
8
0
10
67.2084471
20
30.6915842
11
67.2171217
21
30.7866202
0
LINE
8
0
10
67.2171217
20
30.7866202
11
67.2189172
21
30.7990022
0
LINE
8
0
10
67.2189172
20
30.7990022
11
67.2257805
21
30.8172699
0
LINE
8
0
10
67.2257805
20
30.8172699
11
67.2771008
21
30.95141
0
LINE
8
0
10
67.2771008
20
30.95141
11
69.1933915
21
30.95141
0
LINE
8
0
10
69.1933915
20
30.95141
11
70.7557496
21
30.95141
0
LINE
8
0
10
70.7557496
20
30.95141
11
72.2647239
21
30.95141
0
LINE
8
0
10
72.2647239
20
30.95141
11
74
21
30.95141
0
LINE
8
0
10
74
20
30.95141
11
74
21
29.6811946
0
LINE
8
0
10
74
20
29.6811946
11
73.9957748
21
29.6298349
0
LINE
8
0
10
73.9957748
20
29.6298349
11
73.9837865
21
29.4995794
0
LINE
8
0
10
73.9837865
20
29.4995794
11
73.9439769
21
29.3608668
0
LINE
8
0
10
73.9439769
20
29.3608668
11
73.9305509
21
29.3154787
0
LINE
8
0
10
73.9305509
20
29.3154787
11
73.9201039
21
29.2958183
0
LINE
8
0
10
73.9201039
20
29.2958183
11
73.8561928
21
29.1762242
0
LINE
8
0
10
73.8561928
20
29.1762242
11
73.8466646
21
29.1634229
0
LINE
8
0
10
73.8466646
20
29.1634229
11
73.7567616
21
29.0644435
0
LINE
8
0
10
73.7567616
20
29.0644435
11
73.748864
21
29.0569265
0
LINE
8
0
10
73.748864
20
29.0569265
11
73.7402075
21
29.0514043
0
LINE
8
0
10
73.7402075
20
29.0514043
11
73.6323131
21
28.9872245
0
LINE
8
0
10
73.6323131
20
28.9872245
11
73.6254965
21
28.9847156
0
LINE
8
0
10
73.6254965
20
28.9847156
11
73.5061471
21
28.9621501
0
LINE
8
0
10
73.5061471
20
28.9621501
11
73.5
21
28.9614099
0
LINE
8
0
10
73.5
20
28.9614099
11
72.8518116
21
28.9614099
0
LINE
8
0
10
72.8518116
20
28.9614099
11
72.2580812
21
28.9614089
0
LINE
8
0
10
72.2580812
20
28.9614089
11
72.0730601
21
28.9614068
0
LINE
8
0
10
72.0730601
20
28.9614068
11
72.0529936
21
28.9614075
0
LINE
8
0
10
72.0529936
20
28.9614075
11
72.0529936
21
28.3092701
0
LINE
8
0
10
72.0529936
20
28.3092701
11
72.0923377
21
23.2
0
LINE
8
0
10
72.0923377
20
23.2
11
72.2827616
21
23.2
0
LINE
8
0
10
72.2827616
20
23.2
11
72.2900772
21
23.2
0
LINE
8
0
10
72.2900772
20
23.2
11
72.7862482
21
23.2
0
LINE
8
0
10
72.7862482
20
23.2
11
72.8
21
23.2
0
LINE
8
0
10
72.8
20
23.2
11
72.8485734
21
23.2
0
LINE
8
0
10
72.8485734
20
23.2
11
73.5
21
23.2
0
LINE
8
0
10
73.5
20
23.2
11
73.5033957
21
23.199833
0
LINE
8
0
10
73.5033957
20
23.199833
11
73.54901
21
23.19759
0
LINE
8
0
10
73.54901
20
23.19759
11
73.5524256
21
23.1970834
0
LINE
8
0
10
73.5524256
20
23.1970834
11
73.59755
21
23.19039
0
LINE
8
0
10
73.59755
20
23.19039
11
73.6828536
21
23.1645142
0
LINE
8
0
10
73.6828536
20
23.1645142
11
73.69134
21
23.16194
0
LINE
8
0
10
73.69134
20
23.16194
11
73.7679877
21
23.1209696
0
LINE
8
0
10
73.7679877
20
23.1209696
11
73.77779
21
23.11573
0
LINE
8
0
10
73.77779
20
23.11573
11
73.7858717
21
23.109097
0
LINE
8
0
10
73.7858717
20
23.109097
11
73.85355
21
23.05355
0
LINE
8
0
10
73.85355
20
23.05355
11
73.8616822
21
23.0436417
0
LINE
8
0
10
73.8616822
20
23.0436417
11
73.91573
21
22.97779
0
LINE
8
0
10
73.91573
20
22.97779
11
73.9528388
21
22.9083666
0
LINE
8
0
10
73.9528388
20
22.9083666
11
73.96194
21
22.89134
0
LINE
8
0
10
73.96194
20
22.89134
11
73.984069
21
22.8183881
0
LINE
8
0
10
73.984069
20
22.8183881
11
73.99039
21
22.79755
0
LINE
8
0
10
73.99039
20
22.79755
11
73.9923619
21
22.7775337
0
LINE
8
0
10
73.9923619
20
22.7775337
11
74
21
22.7
0
LINE
8
0
10
74
20
22.7
11
74
21
22.6887268
0
LINE
8
0
10
74
20
22.6887268
11
74
21
22.6
0
LINE
8
0
10
74
20
22.6
11
73.8423201
21
22.4401054
0
LINE
8
0
10
73.8423201
20
22.4401054
11
73.68601
21
22.2816
0
LINE
8
0
10
73.68601
20
22.2816
11
73.5574799
21
22.1512603
0
LINE
8
0
10
73.5574799
20
22.1512603
11
73.44949
21
22.04175
0
LINE
8
0
10
73.44949
20
22.04175
11
73.289803
21
21.8798174
0
LINE
8
0
10
73.289803
20
21.8798174
11
73.15509
21
21.74321
0
LINE
8
0
10
73.15509
20
21.74321
11
72.1288065
21
20.7024975
0
LINE
8
0
10
72.1288065
20
20.7024975
11
72.1276158
21
20.70129
0
LINE
8
0
10
72.1276158
20
20.70129
11
72.0852636
21
20.6583419
0
LINE
8
0
10
72.0852636
20
20.6583419
11
72.0427637
21
20.6152451
0
LINE
8
0
10
72.0427637
20
20.6152451
11
72
21
20.57188
0
LINE
8
0
10
72
20
20.57188
11
72
21
20.1981272
0
LINE
8
0
10
72
20
20.1981272
11
72
21
20.1604184
0
LINE
8
0
10
72
20
20.1604184
11
72
21
20.1604184
0
LINE
8
0
10
72
20
-6.75972298
11
72
21
-6.97661359
0
LINE
8
0
10
72
20
-6.97661359
11
72
21
-7.16389576
0
LINE
8
0
10
72
20
-7.16389576
11
72
21
-13.5
0
LINE
8
0
10
72
20
-13.5
11
71.9195625
21
-14.1109527
0
LINE
8
0
10
71.9195625
20
-14.1109527
11
71.91481
21
-14.14705
0
LINE
8
0
10
71.91481
20
-14.14705
11
71.6789929
21
-14.7163629
0
LINE
8
0
10
71.6789929
20
-14.7163629
11
71.66506
21
-14.75
0
LINE
8
0
10
71.66506
20
-14.75
11
71.2899338
21
-15.2388849
0
LINE
8
0
10
71.2899338
20
-15.2388849
11
71.26777
21
-15.26777
0
LINE
8
0
10
71.26777
20
-15.26777
11
70.7788851
21
-15.6428962
0
LINE
8
0
10
70.7788851
20
-15.6428962
11
70.75
21
-15.66506
0
LINE
8
0
10
70.75
20
-15.66506
11
70.1806871
21
-15.9008771
0
LINE
8
0
10
70.1806871
20
-15.9008771
11
70.14705
21
-15.91481
0
LINE
8
0
10
70.14705
20
-15.91481
11
70.1109527
21
-15.9195625
0
LINE
8
0
10
70.1109527
20
-15.9195625
11
69.5
21
-16
0
LINE
8
0
10
69.5
20
-16
11
64.8268552
21
-16
0
LINE
8
0
10
64.8268552
20
-16
11
58.8
21
-16
0
LINE
8
0
10
58.8
20
-16
11
58.7677981
21
-15.9993365
0
LINE
8
0
10
58.7677981
20
-15.9993365
11
58.73836
21
-15.99873
0
LINE
8
0
10
58.73836
20
-15.99873
11
58.7062029
21
-15.9967453
0
LINE
8
0
10
58.7062029
20
-15.9967453
11
58.67679
21
-15.99493
0
LINE
8
0
10
58.67679
20
-15.99493
11
58.6476052
21
-15.9919194
0
LINE
8
0
10
58.6476052
20
-15.9919194
11
58.4243415
21
-15.951074
0
LINE
8
0
10
58.4243415
20
-15.951074
11
58.41177
21
-15.94889
0
LINE
8
0
10
58.41177
20
-15.94889
11
58.0841172
21
-15.8131718
0
LINE
8
0
10
58.0841172
20
-15.8131718
11
58.05
21
-15.79904
0
LINE
8
0
10
58.05
20
-15.79904
11
57.7686372
21
-15.5831408
0
LINE
8
0
10
57.7686372
20
-15.5831408
11
57.73934
21
-15.56066
0
LINE
8
0
10
57.73934
20
-15.56066
11
57.5234408
21
-15.2792972
0
LINE
8
0
10
57.5234408
20
-15.2792972
11
57.50096
21
-15.25
0
LINE
8
0
10
57.50096
20
-15.25
11
57.3652418
21
-14.9223472
0
LINE
8
0
10
57.3652418
20
-14.9223472
11
57.35111
21
-14.88823
0
LINE
8
0
10
57.35111
20
-14.88823
11
57.3340855
21
-14.7589127
0
LINE
8
0
10
57.3340855
20
-14.7589127
11
57.3186185
21
-14.669243
0
LINE
8
0
10
57.3186185
20
-14.669243
11
57.3
21
-14.5
0
LINE
8
0
10
57.3
20
-14.5
11
57.3
21
-14.3290086
0
LINE
8
0
10
57.3
20
-14.3290086
11
57.3
21
-14.17729
0
LINE
8
0
10
57.3
20
-14.17729
11
57.3
21
-5.49885675
0
LINE
8
0
10
57.3
20
-5.49885675
11
57.3
21
-5.48305759
0
LINE
8
0
10
57.3
20
-5.48305759
11
57.3
21
-4.93620088
0
LINE
8
0
10
57.3
20
-4.93620088
11
58.2639154
21
-3.98808916
0
LINE
8
0
10
58.2639154
20
-3.98808916
11
58.5
21
-3.74373055
0
LINE
8
0
10
58.5
20
-3.74373055
11
60.4558161
21
-3.74821677
0
LINE
8
0
10
60.4558161
20
-3.74821677
11
68.9733107
21
-3.73437629
0
LINE
8
0
10
68.9733107
20
-3.73437629
11
69.2259889
21
-3.76290918
0
LINE
8
0
10
69.2259889
20
-3.76290918
11
69.2526106
21
-3.76411012
0
LINE
8
0
10
69.2526106
20
-3.76411012
11
69.5013058
21
-3.79831843
0
LINE
8
0
10
69.5013058
20
-3.79831843
11
69.5307658
21
-3.80237189
0
LINE
8
0
10
69.5307658
20
-3.80237189
11
69.7786876
21
-3.86071956
0
LINE
8
0
10
69.7786876
20
-3.86071956
11
69.8122557
21
-3.86862433
0
LINE
8
0
10
69.8122557
20
-3.86862433
11
70.0542242
21
-3.95100185
0
LINE
8
0
10
70.0542242
20
-3.95100185
11
70.0929835
21
-3.96420782
0
LINE
8
0
10
70.0929835
20
-3.96420782
11
70.3238417
21
-4.06933622
0
LINE
8
0
10
70.3238417
20
-4.06933622
11
70.368462
21
-4.08967558
0
LINE
8
0
10
70.368462
20
-4.08967558
11
70.5834448
21
-4.21514528
0
LINE
8
0
10
70.5834448
20
-4.21514528
11
70.6339776
21
-4.24467188
0
LINE
8
0
10
70.6339776
20
-4.24467188
11
70.8291054
21
-4.387116
0
LINE
8
0
10
70.8291054
20
-4.387116
11
70.8848666
21
-4.42787344
0
LINE
8
0
10
70.8848666
20
-4.42787344
11
71.0571996
21
-4.58323544
0
LINE
8
0
10
71.0571996
20
-4.58323544
11
71.1167369
21
-4.63698826
0
LINE
8
0
10
71.1167369
20
-4.63698826
11
71.2645026
21
-4.80086782
0
LINE
8
0
10
71.2645026
20
-4.80086782
11
71.3257082
21
-4.86885114
0
LINE
8
0
10
71.3257082
20
-4.86885114
11
71.4483571
21
-5.03684334
0
LINE
8
0
10
71.4483571
20
-5.03684334
11
71.5086584
21
-5.11957424
0
LINE
8
0
10
71.5086584
20
-5.11957424
11
71.6067069
21
-5.28757577
0
LINE
8
0
10
71.6067069
20
-5.28757577
11
71.6633317
21
-5.3847625
0
LINE
8
0
10
71.6633317
20
-5.3847625
11
71.7382063
21
-5.54920542
0
LINE
8
0
10
71.7382063
20
-5.54920542
11
71.7884541
21
-5.65976112
0
LINE
8
0
10
71.7884541
20
-5.65976112
11
71.8422241
21
-5.81774875
0
LINE
8
0
10
71.8422241
20
-5.81774875
11
71.8837207
21
-5.93990304
0
LINE
8
0
10
71.8837207
20
-5.93990304
11
71.9188496
21
-6.0892656
0
LINE
8
0
10
71.9188496
20
-6.0892656
11
71.9497176
21
-6.22073978
0
LINE
8
0
10
71.9497176
20
-6.22073978
11
71.9688598
21
-6.36001056
0
LINE
8
0
10
71.9688598
20
-6.36001056
11
71.9878205
21
-6.49822573
0
LINE
8
0
10
71.9878205
20
-6.49822573
11
71.9940547
21
-6.63691215
0
LINE
8
0
10
71.9940547
20
-6.63691215
11
72
21
-6.75972298
0
LINE
8
0
10
72
20
-6.75972298
11
72
21
-6.75972298
0
ENDSEC
0
EOF
