0
SECTION
2
ENTITIES
0
LINE
8
0
10
16
20
40.3485008
11
16
21
40.1056473
0
LINE
8
0
10
16
20
40.1056473
11
16
21
39.9658928
0
LINE
8
0
10
16
20
39.9658928
11
16
21
39.4982282
0
LINE
8
0
10
16
20
39.4982282
11
16
21
37.4820396
0
LINE
8
0
10
16
20
37.4820396
11
16
21
35.236991
0
LINE
8
0
10
16
20
35.236991
11
16.6125706
21
35.236991
0
LINE
8
0
10
16.6125706
20
35.236991
11
17.8
21
35.236991
0
LINE
8
0
10
17.8
20
35.236991
11
17.8
21
34.8100728
0
LINE
8
0
10
17.8
20
34.8100728
11
17.8
21
33.0668398
0
LINE
8
0
10
17.8
20
33.0668398
11
17.8
21
32.7369094
0
LINE
8
0
10
17.8
20
32.7369094
11
17.7327332
21
31.6744077
0
LINE
8
0
10
17.7327332
20
31.6744077
11
17.72314
21
31.5228794
0
LINE
8
0
10
17.72314
20
31.5228794
11
17.5239302
21
30.5012139
0
LINE
8
0
10
17.5239302
20
30.5012139
11
17.49552
21
30.3555094
0
LINE
8
0
10
17.49552
20
30.3555094
11
17.1720164
21
29.4139321
0
LINE
8
0
10
17.1720164
20
29.4139321
11
17.12588
21
29.2796494
0
LINE
8
0
10
17.12588
20
29.2796494
11
16.6905189
21
28.454358
0
LINE
8
0
10
16.6905189
20
28.454358
11
16.62843
21
28.3366594
0
LINE
8
0
10
16.62843
20
28.3366594
11
16.3738735
21
27.977737
0
LINE
8
0
10
16.3738735
20
27.977737
11
16.33757
21
27.9265481
0
LINE
8
0
10
16.33757
20
27.9265481
11
16.0616327
21
27.6081643
0
LINE
8
0
10
16.0616327
20
27.6081643
11
16.02228
21
27.5627594
0
LINE
8
0
10
16.02228
20
27.5627594
11
15.7276137
21
27.2879948
0
LINE
8
0
10
15.7276137
20
27.2879948
11
15.68559
21
27.2488081
0
LINE
8
0
10
15.68559
20
27.2488081
11
15.3750216
21
27.0202884
0
LINE
8
0
10
15.3750216
20
27.0202884
11
15.33073
21
26.9876994
0
LINE
8
0
10
15.33073
20
26.9876994
11
15.0072701
21
26.8076474
0
LINE
8
0
10
15.0072701
20
26.8076474
11
14.96114
21
26.7819694
0
LINE
8
0
10
14.96114
20
26.7819694
11
14.6278868
21
26.6521093
0
LINE
8
0
10
14.6278868
20
26.6521093
11
14.58036
21
26.6335881
0
LINE
8
0
10
14.58036
20
26.6335881
11
14.2405342
21
26.5551627
0
LINE
8
0
10
14.2405342
20
26.5551627
11
14.19207
21
26.5439794
0
LINE
8
0
10
14.19207
20
26.5439794
11
13.848936
21
26.51775
0
LINE
8
0
10
13.848936
20
26.51775
11
13.8
21
26.5140094
0
LINE
8
0
10
13.8
20
26.5140094
11
3.82288347
21
26.5140094
0
LINE
8
0
10
3.82288347
20
26.5140094
11
2.4
21
26.5140086
0
LINE
8
0
10
2.4
20
26.5140086
11
2.4
21
27.4797974
0
LINE
8
0
10
2.4
20
27.4797974
11
2.4
21
27.9826565
0
LINE
8
0
10
2.4
20
27.9826565
11
2.4
21
28.589282
0
LINE
8
0
10
2.4
20
28.589282
11
2.4
21
40.2028978
0
LINE
8
0
10
2.4
20
40.2028978
11
2.4
21
40.3485008
0
LINE
8
0
10
2.4
20
40.3485008
11
4.9060929
21
40.3485008
0
LINE
8
0
10
4.9060929
20
40.3485008
11
16
21
40.3485008
0
LINE
8
0
10
16
20
40.3485008
11
16
21
40.3485008
0
LINE
8
0
10
35.2
20
6.83269601
11
35.2
21
8.19075907
0
LINE
8
0
10
35.2
20
8.19075907
11
35.2
21
10
0
LINE
8
0
10
35.2
20
10
11
32.4675522
21
10
0
LINE
8
0
10
32.4675522
20
10
11
30.2
21
10
0
LINE
8
0
10
30.2
20
10
11
30.2
21
10.936128
0
LINE
8
0
10
30.2
20
10.936128
11
30.2
21
11.53281
0
LINE
8
0
10
30.2
20
11.53281
11
30.2
21
11.6218431
0
LINE
8
0
10
30.2
20
11.6218431
11
30.2
21
11.69043
0
LINE
8
0
10
30.2
20
11.69043
11
30.2
21
11.8065304
0
LINE
8
0
10
30.2
20
11.8065304
11
30.2
21
11.89597
0
LINE
8
0
10
30.2
20
11.89597
11
30.2
21
12.0311512
0
LINE
8
0
10
30.2
20
12.0311512
11
30.2
21
12.13557
0
LINE
8
0
10
30.2
20
12.13557
11
30.2
21
12.2804912
0
LINE
8
0
10
30.2
20
12.2804912
11
30.2
21
12.39302
0
LINE
8
0
10
30.2
20
12.39302
11
30.2
21
12.5377389
0
LINE
8
0
10
30.2
20
12.5377389
11
30.2
21
12.65094
0
LINE
8
0
10
30.2
20
12.65094
11
30.2
21
13.9766288
0
LINE
8
0
10
30.2
20
13.9766288
11
30.2
21
15
0
LINE
8
0
10
30.2
20
15
11
29.0751857
21
15
0
LINE
8
0
10
29.0751857
20
15
11
28.2
21
15
0
LINE
8
0
10
28.2
20
15
11
28.2
21
8.87833274
0
LINE
8
0
10
28.2
20
8.87833274
11
28.2
21
8.54998256
0
LINE
8
0
10
28.2
20
8.54998256
11
28.2
21
8.51605868
0
LINE
8
0
10
28.2
20
8.51605868
11
28.2
21
8.28266074
0
LINE
8
0
10
28.2
20
8.28266074
11
28.2
21
6.83269601
0
LINE
8
0
10
28.2
20
6.83269601
11
29.1495292
21
5.47557276
0
LINE
8
0
10
29.1495292
20
5.47557276
11
29.4
21
5.11758494
0
LINE
8
0
10
29.4
20
5.11758494
11
30.5373947
21
5.11758494
0
LINE
8
0
10
30.5373947
20
5.11758494
11
34
21
5.11758494
0
LINE
8
0
10
34
20
5.11758494
11
34.2504708
21
5.47557276
0
LINE
8
0
10
34.2504708
20
5.47557276
11
35.2
21
6.83269601
0
LINE
8
0
10
35.2
20
6.83269601
11
35.2
21
6.83269601
0
LINE
8
0
10
35.2
20
-10.6100315
11
35.2
21
-10.9603415
0
LINE
8
0
10
35.2
20
-10.9603415
11
35.2
21
-13.5
0
LINE
8
0
10
35.2
20
-13.5
11
35.1945424
21
-13.6110741
0
LINE
8
0
10
35.1945424
20
-13.6110741
11
35.1448397
21
-13.9189633
0
LINE
8
0
10
35.1448397
20
-13.9189633
11
35.11481
21
-14.14705
0
LINE
8
0
10
35.11481
20
-14.14705
11
35.0189033
21
-14.3785894
0
LINE
8
0
10
35.0189033
20
-14.3785894
11
34.86506
21
-14.75
0
LINE
8
0
10
34.86506
20
-14.75
11
34.7124963
21
-14.9488293
0
LINE
8
0
10
34.7124963
20
-14.9488293
11
34.46777
21
-15.26777
0
LINE
8
0
10
34.46777
20
-15.26777
11
34.2689407
21
-15.4203337
0
LINE
8
0
10
34.2689407
20
-15.4203337
11
33.95
21
-15.66506
0
LINE
8
0
10
33.95
20
-15.66506
11
33.7184606
21
-15.7609667
0
LINE
8
0
10
33.7184606
20
-15.7609667
11
33.34705
21
-15.91481
0
LINE
8
0
10
33.34705
20
-15.91481
11
33.2228129
21
-15.9311669
0
LINE
8
0
10
33.2228129
20
-15.9311669
11
32.9671085
21
-15.9736906
0
LINE
8
0
10
32.9671085
20
-15.9736906
11
32.7
21
-16
0
LINE
8
0
10
32.7
20
-16
11
31.6793886
21
-16
0
LINE
8
0
10
31.6793886
20
-16
11
30.7
21
-16
0
LINE
8
0
10
30.7
20
-16
11
30.4748961
21
-15.9778279
0
LINE
8
0
10
30.4748961
20
-15.9778279
11
30.1148669
21
-15.9229619
0
LINE
8
0
10
30.1148669
20
-15.9229619
11
30.0688414
21
-15.9185155
0
LINE
8
0
10
30.0688414
20
-15.9185155
11
30.0207513
21
-15.9038806
0
LINE
8
0
10
30.0207513
20
-15.9038806
11
29.4804966
21
-15.6800998
0
LINE
8
0
10
29.4804966
20
-15.6800998
11
29.4349655
21
-15.6557112
0
LINE
8
0
10
29.4349655
20
-15.6557112
11
28.9732267
21
-15.3014145
0
LINE
8
0
10
28.9732267
20
-15.3014145
11
28.93223
21
-15.26777
0
LINE
8
0
10
28.93223
20
-15.26777
11
28.8962465
21
-15.2239231
0
LINE
8
0
10
28.8962465
20
-15.2239231
11
28.5449388
21
-14.7660797
0
LINE
8
0
10
28.5449388
20
-14.7660797
11
28.5178003
21
-14.7152454
0
LINE
8
0
10
28.5178003
20
-14.7152454
11
28.2976454
21
-14.1837444
0
LINE
8
0
10
28.2976454
20
-14.1837444
11
28.2807222
21
-14.1278894
0
LINE
8
0
10
28.2807222
20
-14.1278894
11
28.2763593
21
-14.0985194
0
LINE
8
0
10
28.2763593
20
-14.0985194
11
28.21204
21
-13.74504
0
LINE
8
0
10
28.21204
20
-13.74504
11
28.2067434
21
-13.6372424
0
LINE
8
0
10
28.2067434
20
-13.6372424
11
28.2
21
-13.5
0
LINE
8
0
10
28.2
20
-13.5
11
28.2
21
-11.0384439
0
LINE
8
0
10
28.2
20
-11.0384439
11
28.2
21
-10.6100315
0
LINE
8
0
10
28.2
20
-10.6100315
11
28.2962366
21
-10.5153727
0
LINE
8
0
10
28.2962366
20
-10.5153727
11
29.4
21
-9.37292578
0
LINE
8
0
10
29.4
20
-9.37292578
11
31.8191719
21
-9.37292578
0
LINE
8
0
10
31.8191719
20
-9.37292578
11
34
21
-9.37292578
0
LINE
8
0
10
34
20
-9.37292578
11
35.1037634
21
-10.5153727
0
LINE
8
0
10
35.1037634
20
-10.5153727
11
35.2
21
-10.6100315
0
LINE
8
0
10
35.2
20
-10.6100315
11
35.2
21
-10.6100315
0
LINE
8
0
10
72
20
19.3997551
11
72
21
19.4029576
0
LINE
8
0
10
72
20
19.4029576
11
72
21
19.8846704
0
LINE
8
0
10
72
20
19.8846704
11
72
21
19.9476503
0
LINE
8
0
10
72
20
19.9476503
11
72
21
20.57188
0
LINE
8
0
10
72
20
20.57188
11
72.0714225
21
20.6443069
0
LINE
8
0
10
72.0714225
20
20.6443069
11
72.1424045
21
20.7162858
0
LINE
8
0
10
72.1424045
20
20.7162858
11
72.2131398
21
20.7880164
0
LINE
8
0
10
72.2131398
20
20.7880164
11
72.2142314
21
20.7891234
0
LINE
8
0
10
72.2142314
20
20.7891234
11
73.15509
21
21.74321
0
LINE
8
0
10
73.15509
20
21.74321
11
73.2785899
21
21.8684466
0
LINE
8
0
10
73.2785899
20
21.8684466
11
73.44949
21
22.04175
0
LINE
8
0
10
73.44949
20
22.04175
11
73.5478732
21
22.1415183
0
LINE
8
0
10
73.5478732
20
22.1415183
11
73.68601
21
22.2816
0
LINE
8
0
10
73.68601
20
22.2816
11
73.8272601
21
22.424834
0
LINE
8
0
10
73.8272601
20
22.424834
11
74
21
22.6
0
LINE
8
0
10
74
20
22.6
11
74
21
22.697201
0
LINE
8
0
10
74
20
22.697201
11
74
21
22.7
0
LINE
8
0
10
74
20
22.7
11
73.990598
21
22.7954386
0
LINE
8
0
10
73.990598
20
22.7954386
11
73.99039
21
22.79755
0
LINE
8
0
10
73.99039
20
22.79755
11
73.9897232
21
22.7997481
0
LINE
8
0
10
73.9897232
20
22.7997481
11
73.9739615
21
22.851709
0
LINE
8
0
10
73.9739615
20
22.851709
11
73.9753919
21
24.123139
0
LINE
8
0
10
73.9753919
20
24.123139
11
73.9737238
21
24.81615
0
LINE
8
0
10
73.9737238
20
24.81615
11
73.9737238
21
25.2074434
0
LINE
8
0
10
73.9737238
20
25.2074434
11
73.9737238
21
26.9323
0
LINE
8
0
10
73.9737238
20
26.9323
11
73.9737238
21
27.3049177
0
LINE
8
0
10
73.9737238
20
27.3049177
11
73.9737238
21
28.9871613
0
LINE
8
0
10
73.9737238
20
28.9871613
11
73.9829983
21
29.0194771
0
LINE
8
0
10
73.9829983
20
29.0194771
11
73.9989509
21
29.1928064
0
LINE
8
0
10
73.9989509
20
29.1928064
11
74
21
29.2055583
0
LINE
8
0
10
74
20
29.2055583
11
74
21
30.95141
0
LINE
8
0
10
74
20
30.95141
11
73.2474822
21
30.95141
0
LINE
8
0
10
73.2474822
20
30.95141
11
72.5931022
21
30.95141
0
LINE
8
0
10
72.5931022
20
30.95141
11
71.9155718
21
30.95141
0
LINE
8
0
10
71.9155718
20
30.95141
11
70.5666207
21
30.95141
0
LINE
8
0
10
70.5666207
20
30.95141
11
69.2173431
21
30.95141
0
LINE
8
0
10
69.2173431
20
30.95141
11
67.2161949
21
30.95141
0
LINE
8
0
10
67.2161949
20
30.95141
11
67.141557
21
30.8751431
0
LINE
8
0
10
67.141557
20
30.8751431
11
67.0831345
21
30.7921825
0
LINE
8
0
10
67.0831345
20
30.7921825
11
67.0686336
21
30.769728
0
LINE
8
0
10
67.0686336
20
30.769728
11
67.0101982
21
30.6169906
0
LINE
8
0
10
67.0101982
20
30.6169906
11
66.9930876
21
30.571448
0
LINE
8
0
10
66.9930876
20
30.571448
11
66.9886112
21
30.540579
0
LINE
8
0
10
66.9886112
20
30.540579
11
66.9808931
21
30.4560214
0
LINE
8
0
10
66.9808931
20
30.4560214
11
66.9808931
21
23.9430083
0
LINE
8
0
10
66.9808931
20
23.9430083
11
66.9808936
21
23.2
0
LINE
8
0
10
66.9808936
20
23.2
11
65.9632332
21
23.2
0
LINE
8
0
10
65.9632332
20
23.2
11
64.7011783
21
23.2
0
LINE
8
0
10
64.7011783
20
23.2
11
64.7011794
21
29.3917883
0
LINE
8
0
10
64.7011794
20
29.3917883
11
64.7011794
21
30.45141
0
LINE
8
0
10
64.7011794
20
30.45141
11
64.6943615
21
30.4920229
0
LINE
8
0
10
64.6943615
20
30.4920229
11
64.6794539
21
30.58081
0
LINE
8
0
10
64.6794539
20
30.58081
11
64.6586199
21
30.6202559
0
LINE
8
0
10
64.6586199
20
30.6202559
11
64.6157563
21
30.70141
0
LINE
8
0
10
64.6157563
20
30.70141
11
64.5832453
21
30.7346344
0
LINE
8
0
10
64.5832453
20
30.7346344
11
64.5144288
21
30.80496
0
LINE
8
0
10
64.5144288
20
30.80496
11
64.4750419
21
30.8286594
0
LINE
8
0
10
64.4750419
20
30.8286594
11
64.3823745
21
30.88442
0
LINE
8
0
10
64.3823745
20
30.88442
11
64.3420714
21
30.8975116
0
LINE
8
0
10
64.3420714
20
30.8975116
11
64.2285977
21
30.93437
0
LINE
8
0
10
64.2285977
20
30.93437
11
64.0932555
21
30.9483451
0
LINE
8
0
10
64.0932555
20
30.9483451
11
64.0635728
21
30.95141
0
LINE
8
0
10
64.0635728
20
30.95141
11
63.8179146
21
30.95141
0
LINE
8
0
10
63.8179146
20
30.95141
11
63.7554853
21
30.95141
0
LINE
8
0
10
63.7554853
20
30.95141
11
63.1620456
21
30.2107051
0
LINE
8
0
10
63.1620456
20
30.2107051
11
63.1
21
30.1332613
0
LINE
8
0
10
63.1
20
30.1332613
11
63.1
21
25.2114672
0
LINE
8
0
10
63.1
20
25.2114672
11
63.1
21
22.890292
0
LINE
8
0
10
63.1
20
22.890292
11
63.1
21
18.8865824
0
LINE
8
0
10
63.1
20
18.8865824
11
63.1
21
11.3485571
0
LINE
8
0
10
63.1
20
11.3485571
11
63.1
21
10.8274027
0
LINE
8
0
10
63.1
20
10.8274027
11
65.0554078
21
10.8274027
0
LINE
8
0
10
65.0554078
20
10.8274027
11
66
21
10.8274027
0
LINE
8
0
10
66
20
10.8274027
11
66.4425661
21
10.8584683
0
LINE
8
0
10
66.4425661
20
10.8584683
11
66.6986312
21
10.8903775
0
LINE
8
0
10
66.6986312
20
10.8903775
11
67.1389356
21
10.9837028
0
LINE
8
0
10
67.1389356
20
10.9837028
11
67.5707179
21
11.1382391
0
LINE
8
0
10
67.5707179
20
11.1382391
11
67.8140623
21
11.2311532
0
LINE
8
0
10
67.8140623
20
11.2311532
11
68.2385029
21
11.4481443
0
LINE
8
0
10
68.2385029
20
11.4481443
11
68.4505307
21
11.5890732
0
LINE
8
0
10
68.4505307
20
11.5890732
11
68.8655907
21
11.8695677
0
LINE
8
0
10
68.8655907
20
11.8695677
11
69.2594281
21
12.2068429
0
LINE
8
0
10
69.2594281
20
12.2068429
11
69.4391954
21
12.3861261
0
LINE
8
0
10
69.4391954
20
12.3861261
11
69.8159094
21
12.7852979
0
LINE
8
0
10
69.8159094
20
12.7852979
11
70.163442
21
13.2353121
0
LINE
8
0
10
70.163442
20
13.2353121
11
70.3076555
21
13.4406279
0
LINE
8
0
10
70.3076555
20
13.4406279
11
70.6295485
21
13.9479948
0
LINE
8
0
10
70.6295485
20
13.9479948
11
70.915094
21
14.4980017
0
LINE
8
0
10
70.915094
20
14.4980017
11
71.0231479
21
14.7176669
0
LINE
8
0
10
71.0231479
20
14.7176669
11
71.2746959
21
15.3171218
0
LINE
8
0
10
71.2746959
20
15.3171218
11
71.4839385
21
15.9489123
0
LINE
8
0
10
71.4839385
20
15.9489123
11
71.5572491
21
16.1727177
0
LINE
8
0
10
71.5572491
20
16.1727177
11
71.7252141
21
16.8429358
0
LINE
8
0
10
71.7252141
20
16.8429358
11
71.7645781
21
17.0514421
0
LINE
8
0
10
71.7645781
20
17.0514421
11
71.8877177
21
17.7530277
0
LINE
8
0
10
71.8877177
20
17.7530277
11
71.9621707
21
18.4684808
0
LINE
8
0
10
71.9621707
20
18.4684808
11
71.9746154
21
18.667488
0
LINE
8
0
10
71.9746154
20
18.667488
11
72
21
19.3997551
0
LINE
8
0
10
72
20
19.3997551
11
72
21
19.3997551
0
LINE
8
0
10
72
20
-7.41346893
11
72
21
-7.23356362
0
LINE
8
0
10
72
20
-7.23356362
11
72
21
-6.7243395
0
LINE
8
0
10
72
20
-6.7243395
11
71.9893788
21
-6.50493697
0
LINE
8
0
10
71.9893788
20
-6.50493697
11
71.9877603
21
-6.46893162
0
LINE
8
0
10
71.9877603
20
-6.46893162
11
71.9563086
21
-6.23866644
0
LINE
8
0
10
71.9563086
20
-6.23866644
11
71.9494575
21
-6.18870037
0
LINE
8
0
10
71.9494575
20
-6.18870037
11
71.898269
21
-5.96967879
0
LINE
8
0
10
71.898269
20
-5.96967879
11
71.8830719
21
-5.90490989
0
LINE
8
0
10
71.8830719
20
-5.90490989
11
71.8142236
21
-5.70132733
0
LINE
8
0
10
71.8142236
20
-5.70132733
11
71.78717
21
-5.62162845
0
LINE
8
0
10
71.78717
20
-5.62162845
11
71.7037285
21
-5.43718684
0
LINE
8
0
10
71.7037285
20
-5.43718684
11
71.6611162
21
-5.34334055
0
LINE
8
0
10
71.6611162
20
-5.34334055
11
71.5669429
21
-5.18092382
0
LINE
8
0
10
71.5669429
20
-5.18092382
11
71.505176
21
-5.07476461
0
LINE
8
0
10
71.505176
20
-5.07476461
11
71.4046483
21
-4.93615735
0
LINE
8
0
10
71.4046483
20
-4.93615735
11
71.320575
21
-4.82062316
0
LINE
8
0
10
71.320575
20
-4.82062316
11
71.2182204
21
-4.70633976
0
LINE
8
0
10
71.2182204
20
-4.70633976
11
71.109557
21
-4.5853931
0
LINE
8
0
10
71.109557
20
-4.5853931
11
71.0095856
21
-4.49464516
0
LINE
8
0
10
71.0095856
20
-4.49464516
11
70.8752539
21
-4.37305461
0
LINE
8
0
10
70.8752539
20
-4.37305461
11
70.7811699
21
-4.30388813
0
LINE
8
0
10
70.7811699
20
-4.30388813
11
70.6215733
21
-4.1868719
0
LINE
8
0
10
70.6215733
20
-4.1868719
11
70.5358186
21
-4.13646052
0
LINE
8
0
10
70.5358186
20
-4.13646052
11
70.3529859
21
-4.02922673
0
LINE
8
0
10
70.3529859
20
-4.02922673
11
70.2767768
21
-3.99426345
0
LINE
8
0
10
70.2767768
20
-3.99426345
11
70.0742411
21
-3.9015263
0
LINE
8
0
10
70.0742411
20
-3.9015263
11
70.0075821
21
-3.87865734
0
LINE
8
0
10
70.0075821
20
-3.87865734
11
69.7901659
21
-3.8041844
0
LINE
8
0
10
69.7901659
20
-3.8041844
11
69.7320264
21
-3.79039205
0
LINE
8
0
10
69.7320264
20
-3.79039205
11
69.5053622
21
-3.73668231
0
LINE
8
0
10
69.5053622
20
-3.73668231
11
69.454
21
-3.72955871
0
LINE
8
0
10
69.454
20
-3.72955871
11
69.2240315
21
-3.69768688
0
LINE
8
0
10
69.2240315
20
-3.69768688
11
68.9955558
21
-3.6872958
0
LINE
8
0
10
68.9955558
20
-3.6872958
11
68.9483276
21
-3.6819627
0
LINE
8
0
10
68.9483276
20
-3.6819627
11
67.644004
21
-3.68408216
0
LINE
8
0
10
67.644004
20
-3.68408216
11
58.5
21
-3.66310778
0
LINE
8
0
10
58.5
20
-3.66310778
11
57.3962366
21
-4.80555467
0
LINE
8
0
10
57.3962366
20
-4.80555467
11
57.3
21
-4.90021346
0
LINE
8
0
10
57.3
20
-4.90021346
11
57.3
21
-5.81164131
0
LINE
8
0
10
57.3
20
-5.81164131
11
57.3
21
-5.83797325
0
LINE
8
0
10
57.3
20
-5.83797325
11
57.3
21
-14.17729
0
LINE
8
0
10
57.3
20
-14.17729
11
57.3
21
-14.3230801
0
LINE
8
0
10
57.3
20
-14.3230801
11
57.3
21
-14.5
0
LINE
8
0
10
57.3
20
-14.5
11
57.319264
21
-14.6751109
0
LINE
8
0
10
57.319264
20
-14.6751109
11
57.3352673
21
-14.7678896
0
LINE
8
0
10
57.3352673
20
-14.7678896
11
57.35111
21
-14.88823
0
LINE
8
0
10
57.35111
20
-14.88823
11
57.374663
21
-14.9450921
0
LINE
8
0
10
57.374663
20
-14.9450921
11
57.50096
21
-15.25
0
LINE
8
0
10
57.50096
20
-15.25
11
57.538428
21
-15.2988287
0
LINE
8
0
10
57.538428
20
-15.2988287
11
57.73934
21
-15.56066
0
LINE
8
0
10
57.73934
20
-15.56066
11
57.7881687
21
-15.598128
0
LINE
8
0
10
57.7881687
20
-15.598128
11
58.05
21
-15.79904
0
LINE
8
0
10
58.05
20
-15.79904
11
58.1068621
21
-15.822593
0
LINE
8
0
10
58.1068621
20
-15.822593
11
58.41177
21
-15.94889
0
LINE
8
0
10
58.41177
20
-15.94889
11
58.4327225
21
-15.9525299
0
LINE
8
0
10
58.4327225
20
-15.9525299
11
58.6485741
21
-15.9920193
0
LINE
8
0
10
58.6485741
20
-15.9920193
11
58.67679
21
-15.99493
0
LINE
8
0
10
58.67679
20
-15.99493
11
58.7052265
21
-15.9966851
0
LINE
8
0
10
58.7052265
20
-15.9966851
11
58.73836
21
-15.99873
0
LINE
8
0
10
58.73836
20
-15.99873
11
58.7668146
21
-15.9993163
0
LINE
8
0
10
58.7668146
20
-15.9993163
11
58.8
21
-16
0
LINE
8
0
10
58.8
20
-16
11
65.010926
21
-16
0
LINE
8
0
10
65.010926
20
-16
11
69.5
21
-16
0
LINE
8
0
10
69.5
20
-16
11
70.0868879
21
-15.9227309
0
LINE
8
0
10
70.0868879
20
-15.9227309
11
70.14705
21
-15.91481
0
LINE
8
0
10
70.14705
20
-15.91481
11
70.2031118
21
-15.8915885
0
LINE
8
0
10
70.2031118
20
-15.8915885
11
70.75
21
-15.66506
0
LINE
8
0
10
70.75
20
-15.66506
11
70.7981418
21
-15.6281203
0
LINE
8
0
10
70.7981418
20
-15.6281203
11
71.26777
21
-15.26777
0
LINE
8
0
10
71.26777
20
-15.26777
11
71.3047097
21
-15.2196282
0
LINE
8
0
10
71.3047097
20
-15.2196282
11
71.66506
21
-14.75
0
LINE
8
0
10
71.66506
20
-14.75
11
71.6882815
21
-14.6939382
0
LINE
8
0
10
71.6882815
20
-14.6939382
11
71.91481
21
-14.14705
0
LINE
8
0
10
71.91481
20
-14.14705
11
71.9227309
21
-14.0868879
0
LINE
8
0
10
71.9227309
20
-14.0868879
11
72
21
-13.5
0
LINE
8
0
10
72
20
-13.5
11
72
21
-7.41346893
0
LINE
8
0
10
72
20
-7.41346893
11
72
21
-7.41346893
0
ENDSEC
0
EOF
