0
SECTION
2
ENTITIES
0
LINE
8
0
10
16
20
35.8512634
11
16
21
35.3316854
0
LINE
8
0
10
16
20
35.3316854
11
17.5251898
21
35.3316854
0
LINE
8
0
10
17.5251898
20
35.3316854
11
17.8
21
35.3316854
0
LINE
8
0
10
17.8
20
35.3316854
11
17.8
21
35.2328825
0
LINE
8
0
10
17.8
20
35.2328825
11
17.8
21
32.4437097
0
LINE
8
0
10
17.8
20
32.4437097
11
17.8
21
31.915821
0
LINE
8
0
10
17.8
20
31.915821
11
17.7384892
21
30.9442363
0
LINE
8
0
10
17.7384892
20
30.9442363
11
17.72314
21
30.701791
0
LINE
8
0
10
17.72314
20
30.701791
11
17.5409764
21
29.7675482
0
LINE
8
0
10
17.5409764
20
29.7675482
11
17.49552
21
29.534421
0
LINE
8
0
10
17.49552
20
29.534421
11
17.1996982
21
28.6734134
0
LINE
8
0
10
17.1996982
20
28.6734134
11
17.12588
21
28.458561
0
LINE
8
0
10
17.12588
20
28.458561
11
16.7277722
21
27.7038888
0
LINE
8
0
10
16.7277722
20
27.7038888
11
16.62843
21
27.515571
0
LINE
8
0
10
16.62843
20
27.515571
11
16.3956556
21
27.1873611
0
LINE
8
0
10
16.3956556
20
27.1873611
11
16.33757
21
27.105459
0
LINE
8
0
10
16.33757
20
27.105459
11
16.0852443
21
26.8143189
0
LINE
8
0
10
16.0852443
20
26.8143189
11
16.02228
21
26.741671
0
LINE
8
0
10
16.02228
20
26.741671
11
15.752828
21
26.4904177
0
LINE
8
0
10
15.752828
20
26.4904177
11
15.68559
21
26.427719
0
LINE
8
0
10
15.68559
20
26.427719
11
15.4015966
21
26.2187534
0
LINE
8
0
10
15.4015966
20
26.2187534
11
15.33073
21
26.166611
0
LINE
8
0
10
15.33073
20
26.166611
11
15.0349482
21
26.0019659
0
LINE
8
0
10
15.0349482
20
26.0019659
11
14.96114
21
25.960881
0
LINE
8
0
10
14.96114
20
25.960881
11
14.6564029
21
25.8421329
0
LINE
8
0
10
14.6564029
20
25.8421329
11
14.58036
21
25.812499
0
LINE
8
0
10
14.58036
20
25.812499
11
14.2696127
21
25.7407843
0
LINE
8
0
10
14.2696127
20
25.7407843
11
14.19207
21
25.722891
0
LINE
8
0
10
14.19207
20
25.722891
11
13.8782975
21
25.6989061
0
LINE
8
0
10
13.8782975
20
25.6989061
11
13.8
21
25.692921
0
LINE
8
0
10
13.8
20
25.692921
11
4.67661356
21
25.692921
0
LINE
8
0
10
4.67661356
20
25.692921
11
2.4
21
25.6929198
0
LINE
8
0
10
2.4
20
25.6929198
11
2.4
21
27.2381818
0
LINE
8
0
10
2.4
20
27.2381818
11
2.4
21
28.0427564
0
LINE
8
0
10
2.4
20
28.0427564
11
2.4
21
29.0133573
0
LINE
8
0
10
2.4
20
29.0133573
11
2.4
21
39.8314955
0
LINE
8
0
10
2.4
20
39.8314955
11
2.4
21
40.5575001
0
LINE
8
0
10
2.4
20
40.5575001
11
14.8958666
21
40.5575001
0
LINE
8
0
10
14.8958666
20
40.5575001
11
16
21
40.5575001
0
LINE
8
0
10
16
20
40.5575001
11
16
21
39.3465853
0
LINE
8
0
10
16
20
39.3465853
11
16
21
38.6497424
0
LINE
8
0
10
16
20
38.6497424
11
16
21
36.3178757
0
LINE
8
0
10
16
20
36.3178757
11
16
21
35.8512634
0
LINE
8
0
10
16
20
35.8512634
11
16
21
35.8512634
0
LINE
8
0
10
35.1948781
20
-13.6042423
11
35.2
21
-13.5
0
LINE
8
0
10
35.2
20
-13.5
11
35.2
21
-11.1165464
0
LINE
8
0
10
35.2
20
-11.1165464
11
35.2
21
-10.7716283
0
LINE
8
0
10
35.2
20
-10.7716283
11
35.2
21
-10.4535682
0
LINE
8
0
10
35.2
20
-10.4535682
11
34.2804721
21
-9.52494429
0
LINE
8
0
10
34.2804721
20
-9.52494429
11
34
21
-9.22170175
0
LINE
8
0
10
34
20
-9.22170175
11
30.1037244
21
-9.22170175
0
LINE
8
0
10
30.1037244
20
-9.22170175
11
29.4
21
-9.22170175
0
LINE
8
0
10
29.4
20
-9.22170175
11
29.1195279
21
-9.52494429
0
LINE
8
0
10
29.1195279
20
-9.52494429
11
28.2
21
-10.4535682
0
LINE
8
0
10
28.2
20
-10.4535682
11
28.2
21
-10.8284817
0
LINE
8
0
10
28.2
20
-10.8284817
11
28.2
21
-11.2415103
0
LINE
8
0
10
28.2
20
-11.2415103
11
28.2
21
-13.5
0
LINE
8
0
10
28.2
20
-13.5
11
28.2071797
21
-13.6461224
0
LINE
8
0
10
28.2071797
20
-13.6461224
11
28.21204
21
-13.74504
0
LINE
8
0
10
28.21204
20
-13.74504
11
28.2710609
21
-14.0694011
0
LINE
8
0
10
28.2710609
20
-14.0694011
11
28.2780415
21
-14.1163931
0
LINE
8
0
10
28.2780415
20
-14.1163931
11
28.3051187
21
-14.2057611
0
LINE
8
0
10
28.3051187
20
-14.2057611
11
28.5075165
21
-14.6943926
0
LINE
8
0
10
28.5075165
20
-14.6943926
11
28.550938
21
-14.7757276
0
LINE
8
0
10
28.550938
20
-14.7757276
11
28.8746564
21
-15.197615
0
LINE
8
0
10
28.8746564
20
-15.197615
11
28.93223
21
-15.26777
0
LINE
8
0
10
28.93223
20
-15.26777
11
28.9978247
21
-15.3216012
0
LINE
8
0
10
28.9978247
20
-15.3216012
11
29.4259448
21
-15.6501019
0
LINE
8
0
10
29.4259448
20
-15.6501019
11
29.4987945
21
-15.6891237
0
LINE
8
0
10
29.4987945
20
-15.6891237
11
30.001432
21
-15.8973229
0
LINE
8
0
10
30.001432
20
-15.8973229
11
30.0783762
21
-15.9207388
0
LINE
8
0
10
30.0783762
20
-15.9207388
11
30.152017
21
-15.9278531
0
LINE
8
0
10
30.152017
20
-15.9278531
11
30.489188
21
-15.9792356
0
LINE
8
0
10
30.489188
20
-15.9792356
11
30.7
21
-16
0
LINE
8
0
10
30.7
20
-16
11
31.7307089
21
-16
0
LINE
8
0
10
31.7307089
20
-16
11
32.7
21
-16
0
LINE
8
0
10
32.7
20
-16
11
32.9786117
21
-15.9725575
0
LINE
8
0
10
32.9786117
20
-15.9725575
11
33.2453281
21
-15.9282026
0
LINE
8
0
10
33.2453281
20
-15.9282026
11
33.34705
21
-15.91481
0
LINE
8
0
10
33.34705
20
-15.91481
11
33.760422
21
-15.7435858
0
LINE
8
0
10
33.760422
20
-15.7435858
11
33.95
21
-15.66506
0
LINE
8
0
10
33.95
20
-15.66506
11
34.3049741
21
-15.3926849
0
LINE
8
0
10
34.3049741
20
-15.3926849
11
34.46777
21
-15.26777
0
LINE
8
0
10
34.46777
20
-15.26777
11
34.7401451
21
-14.9127959
0
LINE
8
0
10
34.7401451
20
-14.9127959
11
34.86506
21
-14.75
0
LINE
8
0
10
34.86506
20
-14.75
11
35.0362842
21
-14.336628
0
LINE
8
0
10
35.0362842
20
-14.336628
11
35.11481
21
-14.14705
0
LINE
8
0
10
35.11481
20
-14.14705
11
35.1482324
21
-13.8931944
0
LINE
8
0
10
35.1482324
20
-13.8931944
11
35.1948781
21
-13.6042423
0
LINE
8
0
10
35.1948781
20
-13.6042423
11
35.1948781
21
-13.6042423
0
LINE
8
0
10
35.2
20
6.12913782
11
35.2
21
8.30203871
0
LINE
8
0
10
35.2
20
8.30203871
11
35.2
21
10
0
LINE
8
0
10
35.2
20
10
11
32.3280836
21
10
0
LINE
8
0
10
32.3280836
20
10
11
30.2
21
10
0
LINE
8
0
10
30.2
20
10
11
30.2
21
10.9839095
0
LINE
8
0
10
30.2
20
10.9839095
11
30.2
21
11.53281
0
LINE
8
0
10
30.2
20
11.53281
11
30.2
21
11.6274707
0
LINE
8
0
10
30.2
20
11.6274707
11
30.2
21
11.69043
0
LINE
8
0
10
30.2
20
11.69043
11
30.2
21
11.8140105
0
LINE
8
0
10
30.2
20
11.8140105
11
30.2
21
11.89597
0
LINE
8
0
10
30.2
20
11.89597
11
30.2
21
12.0399922
0
LINE
8
0
10
30.2
20
12.0399922
11
30.2
21
12.13557
0
LINE
8
0
10
30.2
20
12.13557
11
30.2
21
12.2900607
0
LINE
8
0
10
30.2
20
12.2900607
11
30.2
21
12.39302
0
LINE
8
0
10
30.2
20
12.39302
11
30.2
21
12.5473277
0
LINE
8
0
10
30.2
20
12.5473277
11
30.2
21
12.65094
0
LINE
8
0
10
30.2
20
12.65094
11
30.2
21
14.0641974
0
LINE
8
0
10
30.2
20
14.0641974
11
30.2
21
15
0
LINE
8
0
10
30.2
20
15
11
29.0002971
21
15
0
LINE
8
0
10
29.0002971
20
15
11
28.2
21
15
0
LINE
8
0
10
28.2
20
15
11
28.2
21
9.40215658
0
LINE
8
0
10
28.2
20
9.40215658
11
28.2
21
8.87679629
0
LINE
8
0
10
28.2
20
8.87679629
11
28.2
21
8.82251808
0
LINE
8
0
10
28.2
20
8.82251808
11
28.2
21
8.44908138
0
LINE
8
0
10
28.2
20
8.44908138
11
28.2
21
6.12913782
0
LINE
8
0
10
28.2
20
6.12913782
11
28.9992467
21
4.98680721
0
LINE
8
0
10
28.9992467
20
4.98680721
11
29.4
21
4.4140267
0
LINE
8
0
10
29.4
20
4.4140267
11
31.2198315
21
4.4140267
0
LINE
8
0
10
31.2198315
20
4.4140267
11
34
21
4.4140267
0
LINE
8
0
10
34
20
4.4140267
11
34.4007533
21
4.98680721
0
LINE
8
0
10
34.4007533
20
4.98680721
11
35.2
21
6.12913782
0
LINE
8
0
10
35.2
20
6.12913782
11
35.2
21
6.12913782
0
LINE
8
0
10
71.9488034
20
-6.1035133
11
71.9378526
21
-6.05656674
0
LINE
8
0
10
71.9378526
20
-6.05656674
11
71.8814375
21
-5.81310432
0
LINE
8
0
10
71.8814375
20
-5.81310432
11
71.8583271
21
-5.74460235
0
LINE
8
0
10
71.8583271
20
-5.74460235
11
71.7839821
21
-5.52280375
0
LINE
8
0
10
71.7839821
20
-5.52280375
11
71.7433741
21
-5.43278256
0
LINE
8
0
10
71.7433741
20
-5.43278256
11
71.655682
21
-5.23717631
0
LINE
8
0
10
71.655682
20
-5.23717631
11
71.5921932
21
-5.12730943
0
LINE
8
0
10
71.5921932
20
-5.12730943
11
71.4967003
21
-4.96105212
0
LINE
8
0
10
71.4967003
20
-4.96105212
11
71.4055257
21
-4.83482661
0
LINE
8
0
10
71.4055257
20
-4.83482661
11
71.3081905
21
-4.69930219
0
LINE
8
0
10
71.3081905
20
-4.69930219
11
71.1857646
21
-4.56195736
0
LINE
8
0
10
71.1857646
20
-4.56195736
11
71.0923464
21
-4.4565819
0
LINE
8
0
10
71.0923464
20
-4.4565819
11
70.9370019
21
-4.31476023
0
LINE
8
0
10
70.9370019
20
-4.31476023
11
70.8523372
21
-4.23707417
0
LINE
8
0
10
70.8523372
20
-4.23707417
11
70.664695
21
-4.09820529
0
LINE
8
0
10
70.664695
20
-4.09820529
11
70.592137
21
-4.04425751
0
LINE
8
0
10
70.592137
20
-4.04425751
11
70.3752743
21
-3.91576399
0
LINE
8
0
10
70.3752743
20
-3.91576399
11
70.3163734
21
-3.88071854
0
LINE
8
0
10
70.3163734
20
-3.88071854
11
70.0755486
21
-3.76920111
0
LINE
8
0
10
70.0755486
20
-3.76920111
11
70.0300221
21
-3.74804477
0
LINE
8
0
10
70.0300221
20
-3.74804477
11
69.7720969
21
-3.65859639
0
LINE
8
0
10
69.7720969
20
-3.65859639
11
69.7381353
21
-3.64678408
0
LINE
8
0
10
69.7381353
20
-3.64678408
11
69.4708338
21
-3.58257524
0
LINE
8
0
10
69.4708338
20
-3.58257524
11
69.4455887
21
-3.57649777
0
LINE
8
0
10
69.4455887
20
-3.57649777
11
69.1766687
21
-3.53866222
0
LINE
8
0
10
69.1766687
20
-3.53866222
11
69.1568374
21
-3.53586825
0
LINE
8
0
10
69.1568374
20
-3.53586825
11
69.1378127
21
-3.53498812
0
LINE
8
0
10
69.1378127
20
-3.53498812
11
68.8757409
21
-3.52286866
0
LINE
8
0
10
68.8757409
20
-3.52286866
11
66.7627557
21
-3.52443822
0
LINE
8
0
10
66.7627557
20
-3.52443822
11
58.5
21
-3.51188375
0
LINE
8
0
10
58.5
20
-3.51188375
11
58.2195279
21
-3.81512652
0
LINE
8
0
10
58.2195279
20
-3.81512652
11
57.3
21
-4.74375076
0
LINE
8
0
10
57.3
20
-4.74375076
11
57.3
21
-5.38851811
0
LINE
8
0
10
57.3
20
-5.38851811
11
57.3
21
-5.40700332
0
LINE
8
0
10
57.3
20
-5.40700332
11
57.3
21
-6.3045169
0
LINE
8
0
10
57.3
20
-6.3045169
11
57.3
21
-6.346648
0
LINE
8
0
10
57.3
20
-6.346648
11
57.3
21
-14.17729
0
LINE
8
0
10
57.3
20
-14.17729
11
57.3
21
-14.3141873
0
LINE
8
0
10
57.3
20
-14.3141873
11
57.3
21
-14.5
0
LINE
8
0
10
57.3
20
-14.5
11
57.3202323
21
-14.6839127
0
LINE
8
0
10
57.3202323
20
-14.6839127
11
57.33704
21
-14.7813549
0
LINE
8
0
10
57.33704
20
-14.7813549
11
57.35111
21
-14.88823
0
LINE
8
0
10
57.35111
20
-14.88823
11
57.3887949
21
-14.9792093
0
LINE
8
0
10
57.3887949
20
-14.9792093
11
57.50096
21
-15.25
0
LINE
8
0
10
57.50096
20
-15.25
11
57.5609087
21
-15.328126
0
LINE
8
0
10
57.5609087
20
-15.328126
11
57.73934
21
-15.56066
0
LINE
8
0
10
57.73934
20
-15.56066
11
57.817466
21
-15.6206087
0
LINE
8
0
10
57.817466
20
-15.6206087
11
58.05
21
-15.79904
0
LINE
8
0
10
58.05
20
-15.79904
11
58.1409793
21
-15.8367249
0
LINE
8
0
10
58.1409793
20
-15.8367249
11
58.41177
21
-15.94889
0
LINE
8
0
10
58.41177
20
-15.94889
11
58.4452939
21
-15.9547139
0
LINE
8
0
10
58.4452939
20
-15.9547139
11
58.6500274
21
-15.9921693
0
LINE
8
0
10
58.6500274
20
-15.9921693
11
58.67679
21
-15.99493
0
LINE
8
0
10
58.67679
20
-15.99493
11
58.7037617
21
-15.9965947
0
LINE
8
0
10
58.7037617
20
-15.9965947
11
58.73836
21
-15.99873
0
LINE
8
0
10
58.73836
20
-15.99873
11
58.7653393
21
-15.9992859
0
LINE
8
0
10
58.7653393
20
-15.9992859
11
58.8
21
-16
0
LINE
8
0
10
58.8
20
-16
11
65.2870321
21
-16
0
LINE
8
0
10
65.2870321
20
-16
11
69.5
21
-16
0
LINE
8
0
10
69.5
20
-16
11
70.0507906
21
-15.9274834
0
LINE
8
0
10
70.0507906
20
-15.9274834
11
70.14705
21
-15.91481
0
LINE
8
0
10
70.14705
20
-15.91481
11
70.2367488
21
-15.8776556
0
LINE
8
0
10
70.2367488
20
-15.8776556
11
70.75
21
-15.66506
0
LINE
8
0
10
70.75
20
-15.66506
11
70.8270269
21
-15.6059565
0
LINE
8
0
10
70.8270269
20
-15.6059565
11
71.26777
21
-15.26777
0
LINE
8
0
10
71.26777
20
-15.26777
11
71.3268735
21
-15.1907431
0
LINE
8
0
10
71.3268735
20
-15.1907431
11
71.66506
21
-14.75
0
LINE
8
0
10
71.66506
20
-14.75
11
71.7022144
21
-14.6603012
0
LINE
8
0
10
71.7022144
20
-14.6603012
11
71.91481
21
-14.14705
0
LINE
8
0
10
71.91481
20
-14.14705
11
71.9274834
21
-14.0507906
0
LINE
8
0
10
71.9274834
20
-14.0507906
11
72
21
-13.5
0
LINE
8
0
10
72
20
-13.5
11
72
21
-7.78782868
0
LINE
8
0
10
72
20
-7.78782868
11
72
21
-7.61898868
0
LINE
8
0
10
72
20
-7.61898868
11
72
21
-6.69080201
0
LINE
8
0
10
72
20
-6.69080201
11
72
21
-6.66876315
0
LINE
8
0
10
72
20
-6.66876315
11
71.9885923
21
-6.41174426
0
LINE
8
0
10
71.9885923
20
-6.41174426
11
71.9876149
21
-6.38991278
0
LINE
8
0
10
71.9876149
20
-6.38991278
11
71.9839794
21
-6.3632519
0
LINE
8
0
10
71.9839794
20
-6.3632519
11
71.9488034
21
-6.1035133
0
LINE
8
0
10
71.9488034
20
-6.1035133
11
71.9488034
21
-6.1035133
0
LINE
8
0
10
72
20
19.571935
11
72
21
19.4710483
0
LINE
8
0
10
72
20
19.4710483
11
72
21
18.6993992
0
LINE
8
0
10
72
20
18.6993992
11
72
21
18.6964802
0
LINE
8
0
10
72
20
18.6964802
11
71.9768626
21
18.0290389
0
LINE
8
0
10
71.9768626
20
18.0290389
11
71.9569511
21
17.7106273
0
LINE
8
0
10
71.9569511
20
17.7106273
11
71.8897864
21
17.0652104
0
LINE
8
0
10
71.8897864
20
17.0652104
11
71.778701
21
16.4323034
0
LINE
8
0
10
71.778701
20
16.4323034
11
71.7157185
21
16.0986933
0
LINE
8
0
10
71.7157185
20
16.0986933
11
71.5660746
21
15.5015803
0
LINE
8
0
10
71.5660746
20
15.5015803
11
71.4487777
21
15.1434917
0
LINE
8
0
10
71.4487777
20
15.1434917
11
71.2650995
21
14.5888909
0
LINE
8
0
10
71.2650995
20
14.5888909
11
71.0442846
21
14.0626751
0
LINE
8
0
10
71.0442846
20
14.0626751
11
70.8713984
21
13.7112108
0
LINE
8
0
10
70.8713984
20
13.7112108
11
70.6249876
21
13.2365836
0
LINE
8
0
10
70.6249876
20
13.2365836
11
70.3472109
21
12.7987526
0
LINE
8
0
10
70.3472109
20
12.7987526
11
70.1164692
21
12.4702474
0
LINE
8
0
10
70.1164692
20
12.4702474
11
69.8221611
21
12.0891526
0
LINE
8
0
10
69.8221611
20
12.0891526
11
69.5031406
21
11.7511138
0
LINE
8
0
10
69.5031406
20
11.7511138
11
69.2155129
21
11.4642607
0
LINE
8
0
10
69.2155129
20
11.4642607
11
68.888343
21
11.1840784
0
LINE
8
0
10
68.888343
20
11.1840784
11
68.5435432
21
10.9510651
0
LINE
8
0
10
68.5435432
20
10.9510651
11
68.2042987
21
10.7255789
0
LINE
8
0
10
68.2042987
20
10.7255789
11
67.8577497
21
10.5484091
0
LINE
8
0
10
67.8577497
20
10.5484091
11
67.4683987
21
10.3997466
0
LINE
8
0
10
67.4683987
20
10.3997466
11
67.1201589
21
10.2751104
0
LINE
8
0
10
67.1201589
20
10.2751104
11
66.765046
21
10.199842
0
LINE
8
0
10
66.765046
20
10.199842
11
66.3553418
21
10.1487873
0
LINE
8
0
10
66.3553418
20
10.1487873
11
66
21
10.1238443
0
LINE
8
0
10
66
20
10.1238443
11
64.4886524
21
10.1238444
0
LINE
8
0
10
64.4886524
20
10.1238444
11
63.1
21
10.1238444
0
LINE
8
0
10
63.1
20
10.1238444
11
63.1
21
10.9576913
0
LINE
8
0
10
63.1
20
10.9576913
11
63.1
21
21.6860359
0
LINE
8
0
10
63.1
20
21.6860359
11
63.1
21
22.4
0
LINE
8
0
10
63.1
20
22.4
11
63.1058698
21
22.4052828
0
LINE
8
0
10
63.1058698
20
22.4052828
11
63.112136
21
22.4109249
0
LINE
8
0
10
63.112136
20
22.4109249
11
63.1113029
21
23.8324068
0
LINE
8
0
10
63.1113029
20
23.8324068
11
63.1128398
21
24.4846655
0
LINE
8
0
10
63.1128398
20
24.4846655
11
63.1128584
21
26.5617256
0
LINE
8
0
10
63.1128584
20
26.5617256
11
63.1116076
21
28.1476257
0
LINE
8
0
10
63.1116076
20
28.1476257
11
63.1116201
21
29.7944157
0
LINE
8
0
10
63.1116201
20
29.7944157
11
63.1128857
21
29.7959972
0
LINE
8
0
10
63.1128857
20
29.7959972
11
63.1194548
21
29.8041996
0
LINE
8
0
10
63.1194548
20
29.8041996
11
63.1261781
21
29.8125915
0
LINE
8
0
10
63.1261781
20
29.8125915
11
63.2676247
21
29.98914
0
LINE
8
0
10
63.2676247
20
29.98914
11
63.2918513
21
30.016005
0
LINE
8
0
10
63.2918513
20
30.016005
11
63.4100791
21
30.1439831
0
LINE
8
0
10
63.4100791
20
30.1439831
11
63.429707
21
30.1619302
0
LINE
8
0
10
63.429707
20
30.1619302
11
63.4514738
21
30.1792093
0
LINE
8
0
10
63.4514738
20
30.1792093
11
63.552744
21
30.2576791
0
LINE
8
0
10
63.552744
20
30.2576791
11
63.6227549
21
30.2973906
0
LINE
8
0
10
63.6227549
20
30.2973906
11
63.7071452
21
30.3371113
0
LINE
8
0
10
63.7071452
20
30.3371113
11
63.7847225
21
30.3546234
0
LINE
8
0
10
63.7847225
20
30.3546234
11
63.8523269
21
30.3635175
0
LINE
8
0
10
63.8523269
20
30.3635175
11
63.9252907
21
30.3488389
0
LINE
8
0
10
63.9252907
20
30.3488389
11
63.9779953
21
30.3328147
0
LINE
8
0
10
63.9779953
20
30.3328147
11
64.0351261
21
30.2843136
0
LINE
8
0
10
64.0351261
20
30.2843136
11
64.074807
21
30.2454814
0
LINE
8
0
10
64.074807
20
30.2454814
11
64.1088189
21
30.1709503
0
LINE
8
0
10
64.1088189
20
30.1709503
11
64.1354991
21
30.107025
0
LINE
8
0
10
64.1354991
20
30.107025
11
64.1454923
21
30.0227097
0
LINE
8
0
10
64.1454923
20
30.0227097
11
64.1559912
21
29.9279103
0
LINE
8
0
10
64.1559912
20
29.9279103
11
64.1559912
21
25.9013548
0
LINE
8
0
10
64.1559912
20
25.9013548
11
64.1559908
21
23.2
0
LINE
8
0
10
64.1559908
20
23.2
11
64.4477059
21
23.2
0
LINE
8
0
10
64.4477059
20
23.2
11
66.6395632
21
23.2
0
LINE
8
0
10
66.6395632
20
23.2
11
66.639562
21
24.8003062
0
LINE
8
0
10
66.639562
20
24.8003062
11
66.639562
21
30.1026772
0
LINE
8
0
10
66.639562
20
30.1026772
11
66.6458455
21
30.1715172
0
LINE
8
0
10
66.6458455
20
30.1715172
11
66.6543432
21
30.2301168
0
LINE
8
0
10
66.6543432
20
30.2301168
11
66.6868248
21
30.3165716
0
LINE
8
0
10
66.6868248
20
30.3165716
11
66.7196117
21
30.4022696
0
LINE
8
0
10
66.7196117
20
30.4022696
11
66.7634413
21
30.4701391
0
LINE
8
0
10
66.7634413
20
30.4701391
11
66.797336
21
30.51827
0
LINE
8
0
10
66.797336
20
30.51827
11
66.8479899
21
30.5700294
0
LINE
8
0
10
66.8479899
20
30.5700294
11
66.8927419
21
30.6151449
0
LINE
8
0
10
66.8927419
20
30.6151449
11
66.9563655
21
30.6616905
0
LINE
8
0
10
66.9563655
20
30.6616905
11
66.9991943
21
30.6898541
0
LINE
8
0
10
66.9991943
20
30.6898541
11
67.0346152
21
30.7095555
0
LINE
8
0
10
67.0346152
20
30.7095555
11
67.0735917
21
30.7270685
0
LINE
8
0
10
67.0735917
20
30.7270685
11
67.1113667
21
30.741464
0
LINE
8
0
10
67.1113667
20
30.741464
11
67.1511628
21
30.7553147
0
LINE
8
0
10
67.1511628
20
30.7553147
11
67.1931686
21
30.7657286
0
LINE
8
0
10
67.1931686
20
30.7657286
11
67.2361875
21
30.7721981
0
LINE
8
0
10
67.2361875
20
30.7721981
11
67.2606994
21
30.7759113
0
LINE
8
0
10
67.2606994
20
30.7759113
11
67.3106021
21
30.77844
0
LINE
8
0
10
67.3106021
20
30.77844
11
68.3172464
21
30.7784402
0
LINE
8
0
10
68.3172464
20
30.7784402
11
74
21
30.7784402
0
LINE
8
0
10
74
20
30.7784402
11
74
21
29.1549915
0
LINE
8
0
10
74
20
29.1549915
11
74
21
27.8199614
0
LINE
8
0
10
74
20
27.8199614
11
74
21
22.680949
0
LINE
8
0
10
74
20
22.680949
11
74
21
22.6
0
LINE
8
0
10
74
20
22.6
11
73.8046702
21
22.4019268
0
LINE
8
0
10
73.8046702
20
22.4019268
11
73.68601
21
22.2816
0
LINE
8
0
10
73.68601
20
22.2816
11
73.5334631
21
22.1269054
0
LINE
8
0
10
73.5334631
20
22.1269054
11
73.44949
21
22.04175
0
LINE
8
0
10
73.44949
20
22.04175
11
73.2617702
21
21.8513904
0
LINE
8
0
10
73.2617702
20
21.8513904
11
73.15509
21
21.74321
0
LINE
8
0
10
73.15509
20
21.74321
11
72.3423686
21
20.9190621
0
LINE
8
0
10
72.3423686
20
20.9190621
11
72.3414257
21
20.9181059
0
LINE
8
0
10
72.3414257
20
20.9181059
11
72.2281158
21
20.8032016
0
LINE
8
0
10
72.2281158
20
20.8032016
11
72.1144107
21
20.6878996
0
LINE
8
0
10
72.1144107
20
20.6878996
11
72
21
20.57188
0
LINE
8
0
10
72
20
20.57188
11
72
21
19.571935
0
LINE
8
0
10
72
20
19.571935
11
72
21
19.571935
0
ENDSEC
0
EOF
