0
SECTION
2
ENTITIES
0
LINE
8
0
10
16
20
21.9648191
11
16
21
21.3749212
0
LINE
8
0
10
16
20
21.3749212
11
16
21
11.9411269
0
LINE
8
0
10
16
20
11.9411269
11
16
21
5.86898586
0
LINE
8
0
10
16
20
5.86898586
11
16
21
-0.594389604
0
LINE
8
0
10
16
20
-0.594389604
11
16
21
-1.03746696
0
LINE
8
0
10
16
20
-1.03746696
11
16
21
-1.52955787
0
LINE
8
0
10
16
20
-1.52955787
11
16
21
-2.35929637
0
LINE
8
0
10
16
20
-2.35929637
11
16
21
-3.23289547
0
LINE
8
0
10
16
20
-3.23289547
11
16
21
-4.21269217
0
LINE
8
0
10
16
20
-4.21269217
11
16
21
-5.39125213
0
LINE
8
0
10
16
20
-5.39125213
11
16
21
-6.93089579
0
LINE
8
0
10
16
20
-6.93089579
11
16
21
-7.22198815
0
LINE
8
0
10
16
20
-7.22198815
11
16
21
-9.28446577
0
LINE
8
0
10
16
20
-9.28446577
11
16
21
-10.4694683
0
LINE
8
0
10
16
20
-10.4694683
11
15.9479881
21
-11.0461322
0
LINE
8
0
10
15.9479881
20
-11.0461322
11
15.93185
21
-11.2003226
0
LINE
8
0
10
15.93185
20
-11.2003226
11
15.88498
21
-11.3488423
0
LINE
8
0
10
15.88498
20
-11.3488423
11
15.73205
21
-11.8334414
0
LINE
8
0
10
15.73205
20
-11.8334414
11
15.555189
21
-12.1359603
0
LINE
8
0
10
15.555189
20
-12.1359603
11
15.41421
21
-12.3771047
0
LINE
8
0
10
15.41421
20
-12.3771047
11
15.0931923
21
-12.7004177
0
LINE
8
0
10
15.0931923
20
-12.7004177
11
15
21
-12.7942766
0
LINE
8
0
10
15
20
-12.7942766
11
14.5671786
21
-13.0295864
0
LINE
8
0
10
14.5671786
20
-13.0295864
11
14.51764
21
-13.0565193
0
LINE
8
0
10
14.51764
20
-13.0565193
11
14.0322628
21
-13.1403915
0
LINE
8
0
10
14.0322628
20
-13.1403915
11
14
21
-13.1459662
0
LINE
8
0
10
14
20
-13.1459662
11
4.97686777
21
-13.1459662
0
LINE
8
0
10
4.97686777
20
-13.1459662
11
4.4
21
-13.1459662
0
LINE
8
0
10
4.4
20
-13.1459662
11
3.92825096
21
-13.0644484
0
LINE
8
0
10
3.92825096
20
-13.0644484
11
3.882362
21
-13.0565193
0
LINE
8
0
10
3.882362
20
-13.0565193
11
3.48132077
21
-12.8384885
0
LINE
8
0
10
3.48132077
20
-12.8384885
11
3.4
21
-12.7942766
0
LINE
8
0
10
3.4
20
-12.7942766
11
3.10674495
21
-12.4989278
0
LINE
8
0
10
3.10674495
20
-12.4989278
11
2.985786
21
-12.3771047
0
LINE
8
0
10
2.985786
20
-12.3771047
11
2.81148142
21
-12.0789562
0
LINE
8
0
10
2.81148142
20
-12.0789562
11
2.667949
21
-11.8334414
0
LINE
8
0
10
2.667949
20
-11.8334414
11
2.59645448
21
-11.6068936
0
LINE
8
0
10
2.59645448
20
-11.6068936
11
2.468148
21
-11.2003226
0
LINE
8
0
10
2.468148
20
-11.2003226
11
2.45201041
21
-11.0461322
0
LINE
8
0
10
2.45201041
20
-11.0461322
11
2.4
21
-10.4694683
0
LINE
8
0
10
2.4
20
-10.4694683
11
2.4
21
-9.69652579
0
LINE
8
0
10
2.4
20
-9.69652579
11
2.4
21
-9.6546311
0
LINE
8
0
10
2.4
20
-9.6546311
11
2.4
21
-7.96792533
0
LINE
8
0
10
2.4
20
-7.96792533
11
2.4
21
-6.56650088
0
LINE
8
0
10
2.4
20
-6.56650088
11
2.4
21
-6.4105467
0
LINE
8
0
10
2.4
20
-6.4105467
11
2.4
21
-5.16819443
0
LINE
8
0
10
2.4
20
-5.16819443
11
2.4
21
-4.9733451
0
LINE
8
0
10
2.4
20
-4.9733451
11
2.4
21
-3.83762336
0
LINE
8
0
10
2.4
20
-3.83762336
11
2.4
21
-2.77242924
0
LINE
8
0
10
2.4
20
-2.77242924
11
2.4
21
-2.5491057
0
LINE
8
0
10
2.4
20
-2.5491057
11
2.4
21
-1.50957068
0
LINE
8
0
10
2.4
20
-1.50957068
11
2.4
21
-1.28260768
0
LINE
8
0
10
2.4
20
-1.28260768
11
2.4
21
-1.07633005
0
LINE
8
0
10
2.4
20
-1.07633005
11
2.4
21
-0.911023487
0
LINE
8
0
10
2.4
20
-0.911023487
11
2.4
21
0.970112242
0
LINE
8
0
10
2.4
20
0.970112242
11
2.4
21
3.1573287
0
LINE
8
0
10
2.4
20
3.1573287
11
2.4
21
5.86898586
0
LINE
8
0
10
2.4
20
5.86898586
11
2.4
21
11.9411269
0
LINE
8
0
10
2.4
20
11.9411269
11
2.4
21
21.3749212
0
LINE
8
0
10
2.4
20
21.3749212
11
2.4
21
21.7026423
0
LINE
8
0
10
2.4
20
21.7026423
11
2.4
21
21.9648191
0
LINE
8
0
10
2.4
20
21.9648191
11
15.0736288
21
21.9648191
0
LINE
8
0
10
15.0736288
20
21.9648191
11
16
21
21.9648191
0
LINE
8
0
10
16
20
21.9648191
11
16
21
21.9648191
0
LINE
8
0
10
16
20
58.5910416
11
16
21
59.5522171
0
LINE
8
0
10
16
20
59.5522171
11
16
21
60.6598287
0
LINE
8
0
10
16
20
60.6598287
11
16
21
62.0301032
0
LINE
8
0
10
16
20
62.0301032
11
16
21
63.8812792
0
LINE
8
0
10
16
20
63.8812792
11
16
21
63.9960122
0
LINE
8
0
10
16
20
63.9960122
11
16
21
65.2075188
0
LINE
8
0
10
16
20
65.2075188
11
15.9619856
21
65.6345692
0
LINE
8
0
10
15.9619856
20
65.6345692
11
15.93185
21
65.929012
0
LINE
8
0
10
15.93185
20
65.929012
11
15.8346779
21
66.2431393
0
LINE
8
0
10
15.8346779
20
66.2431393
11
15.73205
21
66.5749024
0
LINE
8
0
10
15.73205
20
66.5749024
11
15.6419553
21
66.7321243
0
LINE
8
0
10
15.6419553
20
66.7321243
11
15.41421
21
67.1295509
0
LINE
8
0
10
15.41421
20
67.1295509
11
15.3688525
21
67.1761535
0
LINE
8
0
10
15.3688525
20
67.1761535
11
15.0868905
21
67.4658533
0
LINE
8
0
10
15.0868905
20
67.4658533
11
15.0113542
21
67.5368086
0
LINE
8
0
10
15.0113542
20
67.5368086
11
15
21
67.5474746
0
LINE
8
0
10
15
20
67.5474746
11
14.5720876
21
67.7644682
0
LINE
8
0
10
14.5720876
20
67.7644682
11
14.51764
21
67.7920785
0
LINE
8
0
10
14.51764
20
67.7920785
11
14.0766973
21
67.8631453
0
LINE
8
0
10
14.0766973
20
67.8631453
11
14
21
67.8755066
0
LINE
8
0
10
14
20
67.8755066
11
5.8600018
21
67.8755066
0
LINE
8
0
10
5.8600018
20
67.8755066
11
4.4
21
67.8755066
0
LINE
8
0
10
4.4
20
67.8755066
11
3.94705753
21
67.8025055
0
LINE
8
0
10
3.94705753
20
67.8025055
11
3.882362
21
67.7920785
0
LINE
8
0
10
3.882362
20
67.7920785
11
3.41615653
21
67.5556675
0
LINE
8
0
10
3.41615653
20
67.5556675
11
3.4
21
67.5474746
0
LINE
8
0
10
3.4
20
67.5474746
11
3.31310866
21
67.4658533
0
LINE
8
0
10
3.31310866
20
67.4658533
11
2.985786
21
67.1295509
0
LINE
8
0
10
2.985786
20
67.1295509
11
2.93123525
21
67.0343552
0
LINE
8
0
10
2.93123525
20
67.0343552
11
2.667949
21
66.5749024
0
LINE
8
0
10
2.667949
20
66.5749024
11
2.56803015
21
66.2518976
0
LINE
8
0
10
2.56803015
20
66.2518976
11
2.468148
21
65.929012
0
LINE
8
0
10
2.468148
20
65.929012
11
2.43801333
21
65.6345692
0
LINE
8
0
10
2.43801333
20
65.6345692
11
2.4
21
65.2075188
0
LINE
8
0
10
2.4
20
65.2075188
11
2.4
21
64.2861546
0
LINE
8
0
10
2.4
20
64.2861546
11
2.4
21
62.7946486
0
LINE
8
0
10
2.4
20
62.7946486
11
2.4
21
62.6790829
0
LINE
8
0
10
2.4
20
62.6790829
11
2.4
21
61.3802521
0
LINE
8
0
10
2.4
20
61.3802521
11
2.4
21
61.2136553
0
LINE
8
0
10
2.4
20
61.2136553
11
2.4
21
60.0458603
0
LINE
8
0
10
2.4
20
60.0458603
11
2.4
21
58.9767634
0
LINE
8
0
10
2.4
20
58.9767634
11
2.4
21
58.7630381
0
LINE
8
0
10
2.4
20
58.7630381
11
2.4
21
57.7348505
0
LINE
8
0
10
2.4
20
57.7348505
11
2.4
21
57.5113313
0
LINE
8
0
10
2.4
20
57.5113313
11
2.4
21
56.4904061
0
LINE
8
0
10
2.4
20
56.4904061
11
2.4
21
56.2737527
0
LINE
8
0
10
2.4
20
56.2737527
11
2.4
21
56.0937203
0
LINE
8
0
10
2.4
20
56.0937203
11
2.4
21
55.9642964
0
LINE
8
0
10
2.4
20
55.9642964
11
2.4
21
54.2624092
0
LINE
8
0
10
2.4
20
54.2624092
11
2.4
21
52.5356565
0
LINE
8
0
10
2.4
20
52.5356565
11
2.4
21
49.2229103
0
LINE
8
0
10
2.4
20
49.2229103
11
2.4
21
44.1913584
0
LINE
8
0
10
2.4
20
44.1913584
11
2.4
21
30.6250788
0
LINE
8
0
10
2.4
20
30.6250788
11
2.4
21
30.3569434
0
LINE
8
0
10
2.4
20
30.3569434
11
2.4
21
30.0351809
0
LINE
8
0
10
2.4
20
30.0351809
11
3.32637118
21
30.0351809
0
LINE
8
0
10
3.32637118
20
30.0351809
11
16
21
30.0351809
0
LINE
8
0
10
16
20
30.0351809
11
16
21
30.6250788
0
LINE
8
0
10
16
20
30.6250788
11
16
21
44.1913584
0
LINE
8
0
10
16
20
44.1913584
11
16
21
49.2229103
0
LINE
8
0
10
16
20
49.2229103
11
16
21
55.9930622
0
LINE
8
0
10
16
20
55.9930622
11
16
21
56.3997777
0
LINE
8
0
10
16
20
56.3997777
11
16
21
56.8402409
0
LINE
8
0
10
16
20
56.8402409
11
16
21
57.7044363
0
LINE
8
0
10
16
20
57.7044363
11
16
21
58.5910416
0
LINE
8
0
10
16
20
58.5910416
11
16
21
58.5910416
0
ENDSEC
0
EOF
