0
SECTION
2
ENTITIES
0
LINE
8
0
10
16
20
35.3664182
11
16
21
38.2110256
0
LINE
8
0
10
16
20
38.2110256
11
16
21
39.0935647
0
LINE
8
0
10
16
20
39.0935647
11
16
21
40.3368289
0
LINE
8
0
10
16
20
40.3368289
11
16
21
40.4386009
0
LINE
8
0
10
16
20
40.4386009
11
16
21
40.6626521
0
LINE
8
0
10
16
20
40.6626521
11
4.81512381
21
40.6626521
0
LINE
8
0
10
4.81512381
20
40.6626521
11
2.4
21
40.6626521
0
LINE
8
0
10
2.4
20
40.6626521
11
2.4
21
40.4847975
0
LINE
8
0
10
2.4
20
40.4847975
11
2.4
21
39.7076947
0
LINE
8
0
10
2.4
20
39.7076947
11
2.4
21
29.1547157
0
LINE
8
0
10
2.4
20
29.1547157
11
2.4
21
28.0627897
0
LINE
8
0
10
2.4
20
28.0627897
11
2.4
21
27.1576433
0
LINE
8
0
10
2.4
20
27.1576433
11
2.4
21
25.4192235
0
LINE
8
0
10
2.4
20
25.4192235
11
4.96119025
21
25.4192248
0
LINE
8
0
10
4.96119025
20
25.4192248
11
13.8
21
25.4192248
0
LINE
8
0
10
13.8
20
25.4192248
11
13.8880847
21
25.4259581
0
LINE
8
0
10
13.8880847
20
25.4259581
11
14.19207
21
25.4491948
0
LINE
8
0
10
14.19207
20
25.4491948
11
14.2793055
21
25.4693249
0
LINE
8
0
10
14.2793055
20
25.4693249
11
14.58036
21
25.5388026
0
LINE
8
0
10
14.58036
20
25.5388026
11
14.6659082
21
25.5721407
0
LINE
8
0
10
14.6659082
20
25.5721407
11
14.96114
21
25.6871848
0
LINE
8
0
10
14.96114
20
25.6871848
11
15.0441742
21
25.7334053
0
LINE
8
0
10
15.0441742
20
25.7334053
11
15.33073
21
25.8929148
0
LINE
8
0
10
15.33073
20
25.8929148
11
15.4104549
21
25.9515751
0
LINE
8
0
10
15.4104549
20
25.9515751
11
15.68559
21
26.1540226
0
LINE
8
0
10
15.68559
20
26.1540226
11
15.7612327
21
26.2245587
0
LINE
8
0
10
15.7612327
20
26.2245587
11
16.02228
21
26.4679748
0
LINE
8
0
10
16.02228
20
26.4679748
11
16.0931149
21
26.5497038
0
LINE
8
0
10
16.0931149
20
26.5497038
11
16.33757
21
26.8317626
0
LINE
8
0
10
16.33757
20
26.8317626
11
16.4029163
21
26.9239025
0
LINE
8
0
10
16.4029163
20
26.9239025
11
16.62843
21
27.2418748
0
LINE
8
0
10
16.62843
20
27.2418748
11
16.74019
21
27.4537324
0
LINE
8
0
10
16.74019
20
27.4537324
11
17.12588
21
28.1848648
0
LINE
8
0
10
17.12588
20
28.1848648
11
17.2089255
21
28.4265738
0
LINE
8
0
10
17.2089255
20
28.4265738
11
17.49552
21
29.2607248
0
LINE
8
0
10
17.49552
20
29.2607248
11
17.5466584
21
29.522993
0
LINE
8
0
10
17.5466584
20
29.522993
11
17.72314
21
30.4280948
0
LINE
8
0
10
17.72314
20
30.4280948
11
17.7404078
21
30.7008459
0
LINE
8
0
10
17.7404078
20
30.7008459
11
17.8
21
31.6421248
0
LINE
8
0
10
17.8
20
31.6421248
11
17.8
21
32.2359997
0
LINE
8
0
10
17.8
20
32.2359997
11
17.8
21
35.3305008
0
LINE
8
0
10
17.8
20
35.3305008
11
17.8
21
35.3664182
0
LINE
8
0
10
17.8
20
35.3664182
11
16.030244
21
35.3664182
0
LINE
8
0
10
16.030244
20
35.3664182
11
16
21
35.3664182
0
LINE
8
0
10
16
20
35.3664182
11
16
21
35.3664182
0
LINE
8
0
10
35.2
20
-10.3986862
11
35.2
21
-10.8312316
0
LINE
8
0
10
35.2
20
-10.8312316
11
35.2
21
-11.1686147
0
LINE
8
0
10
35.2
20
-11.1686147
11
35.2
21
-13.5
0
LINE
8
0
10
35.2
20
-13.5
11
35.19499
21
-13.6019651
0
LINE
8
0
10
35.19499
20
-13.6019651
11
35.1493633
21
-13.8846048
0
LINE
8
0
10
35.1493633
20
-13.8846048
11
35.11481
21
-14.14705
0
LINE
8
0
10
35.11481
20
-14.14705
11
35.0420779
21
-14.3226409
0
LINE
8
0
10
35.0420779
20
-14.3226409
11
34.86506
21
-14.75
0
LINE
8
0
10
34.86506
20
-14.75
11
34.7493613
21
-14.9007848
0
LINE
8
0
10
34.7493613
20
-14.9007848
11
34.46777
21
-15.26777
0
LINE
8
0
10
34.46777
20
-15.26777
11
34.3169852
21
-15.3834687
0
LINE
8
0
10
34.3169852
20
-15.3834687
11
33.95
21
-15.66506
0
LINE
8
0
10
33.95
20
-15.66506
11
33.7744091
21
-15.7377921
0
LINE
8
0
10
33.7744091
20
-15.7377921
11
33.34705
21
-15.91481
0
LINE
8
0
10
33.34705
20
-15.91481
11
33.2528332
21
-15.9272145
0
LINE
8
0
10
33.2528332
20
-15.9272145
11
32.9824461
21
-15.9721799
0
LINE
8
0
10
32.9824461
20
-15.9721799
11
32.7
21
-16
0
LINE
8
0
10
32.7
20
-16
11
31.7478157
21
-16
0
LINE
8
0
10
31.7478157
20
-16
11
30.7
21
-16
0
LINE
8
0
10
30.7
20
-16
11
30.4939519
21
-15.9797049
0
LINE
8
0
10
30.4939519
20
-15.9797049
11
30.1644003
21
-15.9294834
0
LINE
8
0
10
30.1644003
20
-15.9294834
11
30.0815545
21
-15.92148
0
LINE
8
0
10
30.0815545
20
-15.92148
11
29.9949923
21
-15.895137
0
LINE
8
0
10
29.9949923
20
-15.895137
11
29.5048938
21
-15.6921317
0
LINE
8
0
10
29.5048938
20
-15.6921317
11
29.4229379
21
-15.6482321
0
LINE
8
0
10
29.4229379
20
-15.6482321
11
29.0060241
21
-15.3283301
0
LINE
8
0
10
29.0060241
20
-15.3283301
11
28.93223
21
-15.26777
0
LINE
8
0
10
28.93223
20
-15.26777
11
28.8674597
21
-15.1888457
0
LINE
8
0
10
28.8674597
20
-15.1888457
11
28.5529378
21
-14.7789435
0
LINE
8
0
10
28.5529378
20
-14.7789435
11
28.5040885
21
-14.6874417
0
LINE
8
0
10
28.5040885
20
-14.6874417
11
28.3076098
21
-14.2131
0
LINE
8
0
10
28.3076098
20
-14.2131
11
28.2771479
21
-14.112561
0
LINE
8
0
10
28.2771479
20
-14.112561
11
28.2692948
21
-14.0596949
0
LINE
8
0
10
28.2692948
20
-14.0596949
11
28.21204
21
-13.74504
0
LINE
8
0
10
28.21204
20
-13.74504
11
28.2073251
21
-13.6490824
0
LINE
8
0
10
28.2073251
20
-13.6490824
11
28.2
21
-13.5
0
LINE
8
0
10
28.2
20
-13.5
11
28.2
21
-11.3091991
0
LINE
8
0
10
28.2
20
-11.3091991
11
28.2
21
-10.9085493
0
LINE
8
0
10
28.2
20
-10.9085493
11
28.2
21
-10.3986862
0
LINE
8
0
10
28.2
20
-10.3986862
11
28.722531
21
-9.87098627
0
LINE
8
0
10
28.722531
20
-9.87098627
11
29.4
21
-9.13851628
0
LINE
8
0
10
29.4
20
-9.13851628
11
31.0998176
21
-9.13851628
0
LINE
8
0
10
31.0998176
20
-9.13851628
11
34
21
-9.13851628
0
LINE
8
0
10
34
20
-9.13851628
11
34.677469
21
-9.87098627
0
LINE
8
0
10
34.677469
20
-9.87098627
11
35.2
21
-10.3986862
0
LINE
8
0
10
35.2
20
-10.3986862
11
35.2
21
-10.3986862
0
LINE
8
0
10
35.2
20
10
11
35.2
21
8.33913192
0
LINE
8
0
10
35.2
20
8.33913192
11
35.2
21
5.89461842
0
LINE
8
0
10
35.2
20
5.89461842
11
34.4508475
21
4.82388536
0
LINE
8
0
10
34.4508475
20
4.82388536
11
34
21
4.17950729
0
LINE
8
0
10
34
20
4.17950729
11
31.4473105
21
4.17950729
0
LINE
8
0
10
31.4473105
20
4.17950729
11
29.4
21
4.17950729
0
LINE
8
0
10
29.4
20
4.17950729
11
28.9491525
21
4.82388536
0
LINE
8
0
10
28.9491525
20
4.82388536
11
28.2
21
5.89461842
0
LINE
8
0
10
28.2
20
5.89461842
11
28.2
21
8.50455493
0
LINE
8
0
10
28.2
20
8.50455493
11
28.2
21
8.92467122
0
LINE
8
0
10
28.2
20
8.92467122
11
28.2
21
8.9857342
0
LINE
8
0
10
28.2
20
8.9857342
11
28.2
21
9.57676452
0
LINE
8
0
10
28.2
20
9.57676452
11
28.2
21
15
0
LINE
8
0
10
28.2
20
15
11
28.9753342
21
15
0
LINE
8
0
10
28.9753342
20
15
11
30.2
21
15
0
LINE
8
0
10
30.2
20
15
11
30.2
21
14.093387
0
LINE
8
0
10
30.2
20
14.093387
11
30.2
21
12.65094
0
LINE
8
0
10
30.2
20
12.65094
11
30.2
21
12.550524
0
LINE
8
0
10
30.2
20
12.550524
11
30.2
21
12.39302
0
LINE
8
0
10
30.2
20
12.39302
11
30.2
21
12.2932505
0
LINE
8
0
10
30.2
20
12.2932505
11
30.2
21
12.13557
0
LINE
8
0
10
30.2
20
12.13557
11
30.2
21
12.0429392
0
LINE
8
0
10
30.2
20
12.0429392
11
30.2
21
11.89597
0
LINE
8
0
10
30.2
20
11.89597
11
30.2
21
11.8165039
0
LINE
8
0
10
30.2
20
11.8165039
11
30.2
21
11.69043
0
LINE
8
0
10
30.2
20
11.69043
11
30.2
21
11.6293465
0
LINE
8
0
10
30.2
20
11.6293465
11
30.2
21
11.53281
0
LINE
8
0
10
30.2
20
11.53281
11
30.2
21
10.9998367
0
LINE
8
0
10
30.2
20
10.9998367
11
30.2
21
10
0
LINE
8
0
10
30.2
20
10
11
32.281594
21
10
0
LINE
8
0
10
32.281594
20
10
11
35.2
21
10
0
LINE
8
0
10
35.2
20
10
11
35.2
21
10
0
LINE
8
0
10
72
20
19.3331743
11
72
21
19.4466965
0
LINE
8
0
10
72
20
19.4466965
11
72
21
20.57188
0
LINE
8
0
10
72
20
20.57188
11
72.1287401
21
20.7024306
0
LINE
8
0
10
72.1287401
20
20.7024306
11
72.2566863
21
20.8321736
0
LINE
8
0
10
72.2566863
20
20.8321736
11
72.3841876
21
20.9614691
0
LINE
8
0
10
72.3841876
20
20.9614691
11
72.385081
21
20.9623751
0
LINE
8
0
10
72.385081
20
20.9623751
11
73.15509
21
21.74321
0
LINE
8
0
10
73.15509
20
21.74321
11
73.2561637
21
21.845705
0
LINE
8
0
10
73.2561637
20
21.845705
11
73.44949
21
22.04175
0
LINE
8
0
10
73.44949
20
22.04175
11
73.5286598
21
22.1220344
0
LINE
8
0
10
73.5286598
20
22.1220344
11
73.68601
21
22.2816
0
LINE
8
0
10
73.68601
20
22.2816
11
73.7971403
21
22.3942911
0
LINE
8
0
10
73.7971403
20
22.3942911
11
74
21
22.6
0
LINE
8
0
10
74
20
22.6
11
74
21
22.6728055
0
LINE
8
0
10
74
20
22.6728055
11
74
21
27.2948316
0
LINE
8
0
10
74
20
27.2948316
11
74
21
29.2005291
0
LINE
8
0
10
74
20
29.2005291
11
74
21
30.6606584
0
LINE
8
0
10
74
20
30.6606584
11
68.8889334
21
30.6606584
0
LINE
8
0
10
68.8889334
20
30.6606584
11
67.1968254
21
30.660658
0
LINE
8
0
10
67.1968254
20
30.660658
11
67.1502276
21
30.6582967
0
LINE
8
0
10
67.1502276
20
30.6582967
11
67.1092886
21
30.6520951
0
LINE
8
0
10
67.1092886
20
30.6520951
11
67.0747883
21
30.6469067
0
LINE
8
0
10
67.0747883
20
30.6469067
11
67.0411005
21
30.6385549
0
LINE
8
0
10
67.0411005
20
30.6385549
11
67.0091848
21
30.627447
0
LINE
8
0
10
67.0091848
20
30.627447
11
66.9508951
21
30.6052336
0
LINE
8
0
10
66.9508951
20
30.6052336
11
66.9200842
21
30.5913896
0
LINE
8
0
10
66.9200842
20
30.5913896
11
66.892084
21
30.5758156
0
LINE
8
0
10
66.892084
20
30.5758156
11
66.8305818
21
30.5353727
0
LINE
8
0
10
66.8305818
20
30.5353727
11
66.7812068
21
30.499251
0
LINE
8
0
10
66.7812068
20
30.499251
11
66.7210311
21
30.4385866
0
LINE
8
0
10
66.7210311
20
30.4385866
11
66.6825957
21
30.3993123
0
LINE
8
0
10
66.6825957
20
30.3993123
11
66.6568769
21
30.3627913
0
LINE
8
0
10
66.6568769
20
30.3627913
11
66.6032711
21
30.2797834
0
LINE
8
0
10
66.6032711
20
30.2797834
11
66.5790337
21
30.216432
0
LINE
8
0
10
66.5790337
20
30.216432
11
66.5414284
21
30.1163397
0
LINE
8
0
10
66.5414284
20
30.1163397
11
66.5315903
21
30.0484966
0
LINE
8
0
10
66.5315903
20
30.0484966
11
66.525785
21
29.9848958
0
LINE
8
0
10
66.525785
20
29.9848958
11
66.525785
21
25.0860721
0
LINE
8
0
10
66.525785
20
25.0860721
11
66.5257864
21
23.2
0
LINE
8
0
10
66.5257864
20
23.2
11
63.9982808
21
23.2
0
LINE
8
0
10
63.9982808
20
23.2
11
63.9966878
21
23.2
0
LINE
8
0
10
63.9966878
20
23.2
11
63.9950844
21
23.2
0
LINE
8
0
10
63.9950844
20
23.2
11
63.993471
21
23.2
0
LINE
8
0
10
63.993471
20
23.2
11
63.98849
21
23.2
0
LINE
8
0
10
63.98849
20
23.2
11
63.9714267
21
23.1846366
0
LINE
8
0
10
63.9714267
20
23.1846366
11
63.9699699
21
23.5689514
0
LINE
8
0
10
63.9699699
20
23.5689514
11
63.9697205
21
23.5923865
0
LINE
8
0
10
63.9697205
20
23.5923865
11
63.9694685
21
23.6150712
0
LINE
8
0
10
63.9694685
20
23.6150712
11
63.9694733
21
24.2285623
0
LINE
8
0
10
63.9694733
20
24.2285623
11
63.9692199
21
29.027594
0
LINE
8
0
10
63.9692199
20
29.027594
11
63.9692208
21
29.6288171
0
LINE
8
0
10
63.9692208
20
29.6288171
11
63.9568513
21
29.7405062
0
LINE
8
0
10
63.9568513
20
29.7405062
11
63.9546766
21
29.7588551
0
LINE
8
0
10
63.9546766
20
29.7588551
11
63.90839
21
29.8697571
0
LINE
8
0
10
63.90839
20
29.8697571
11
63.8963259
21
29.8961934
0
LINE
8
0
10
63.8963259
20
29.8961934
11
63.8262453
21
29.9647751
0
LINE
8
0
10
63.8262453
20
29.9647751
11
63.802721
21
29.984746
0
LINE
8
0
10
63.802721
20
29.984746
11
63.7111621
21
30.0125833
0
LINE
8
0
10
63.7111621
20
30.0125833
11
63.6806192
21
30.0187278
0
LINE
8
0
10
63.6806192
20
30.0187278
11
63.568267
21
30.0039467
0
LINE
8
0
10
63.568267
20
30.0039467
11
63.5389201
21
29.997322
0
LINE
8
0
10
63.5389201
20
29.997322
11
63.406519
21
29.9350036
0
LINE
8
0
10
63.406519
20
29.9350036
11
63.3875297
21
29.9242325
0
LINE
8
0
10
63.3875297
20
29.9242325
11
63.2375833
21
29.8080457
0
LINE
8
0
10
63.2375833
20
29.8080457
11
63.2370431
21
29.8076169
0
LINE
8
0
10
63.2370431
20
29.8076169
11
63.236556
21
29.8071715
0
LINE
8
0
10
63.236556
20
29.8071715
11
63.2279616
21
29.7978683
0
LINE
8
0
10
63.2279616
20
29.7978683
11
63.2278977
21
27.4902324
0
LINE
8
0
10
63.2278977
20
27.4902324
11
63.2279093
21
27.3552
0
LINE
8
0
10
63.2279093
20
27.3552
11
63.2278566
21
25.006591
0
LINE
8
0
10
63.2278566
20
25.006591
11
63.2278566
21
24.8776
0
LINE
8
0
10
63.2278566
20
24.8776
11
63.2273574
21
24.6237195
0
LINE
8
0
10
63.2273574
20
24.6237195
11
63.228333
21
22.5155521
0
LINE
8
0
10
63.228333
20
22.5155521
11
63.1908451
21
22.4817963
0
LINE
8
0
10
63.1908451
20
22.4817963
11
63.1511376
21
22.4460414
0
LINE
8
0
10
63.1511376
20
22.4460414
11
63.1226375
21
22.4203805
0
LINE
8
0
10
63.1226375
20
22.4203805
11
63.1056087
21
22.4050478
0
LINE
8
0
10
63.1056087
20
22.4050478
11
63.1
21
22.4
0
LINE
8
0
10
63.1
20
22.4
11
63.1
21
20.0962157
0
LINE
8
0
10
63.1
20
20.0962157
11
63.1
21
10.8274027
0
LINE
8
0
10
63.1
20
10.8274027
11
63.1
21
9.88932493
0
LINE
8
0
10
63.1
20
9.88932493
11
64.299734
21
9.88932493
0
LINE
8
0
10
64.299734
20
9.88932493
11
66
21
9.88932485
0
LINE
8
0
10
66
20
9.88932485
11
66.326267
21
9.91222691
0
LINE
8
0
10
66.326267
20
9.91222691
11
66.7871842
21
9.96966353
0
LINE
8
0
10
66.7871842
20
9.96966353
11
67.1139
21
10.038913
0
LINE
8
0
10
67.1139
20
10.038913
11
67.4342923
21
10.1535825
0
LINE
8
0
10
67.4342923
20
10.1535825
11
67.8723121
21
10.3208278
0
LINE
8
0
10
67.8723121
20
10.3208278
11
68.1928973
21
10.4847238
0
LINE
8
0
10
68.1928973
20
10.4847238
11
68.5745473
21
10.7383957
0
LINE
8
0
10
68.5745473
20
10.7383957
11
68.8959272
21
10.9555819
0
LINE
8
0
10
68.8959272
20
10.9555819
11
69.2008745
21
11.2167333
0
LINE
8
0
10
69.2008745
20
11.2167333
11
69.5244557
21
11.539443
0
LINE
8
0
10
69.5244557
20
11.539443
11
69.824245
21
11.8571042
0
LINE
8
0
10
69.824245
20
11.8571042
11
70.1008116
21
12.2152258
0
LINE
8
0
10
70.1008116
20
12.2152258
11
70.360396
21
12.5847942
0
LINE
8
0
10
70.360396
20
12.5847942
11
70.6234673
21
12.9994466
0
LINE
8
0
10
70.6234673
20
12.9994466
11
70.8568332
21
13.4489471
0
LINE
8
0
10
70.8568332
20
13.4489471
11
71.0513302
21
13.8443444
0
LINE
8
0
10
71.0513302
20
13.8443444
11
71.2619007
21
14.3461473
0
LINE
8
0
10
71.2619007
20
14.3461473
11
71.4370574
21
14.8750182
0
LINE
8
0
10
71.4370574
20
14.8750182
11
71.5690165
21
15.2778679
0
LINE
8
0
10
71.5690165
20
15.2778679
11
71.7125533
21
15.8506125
0
LINE
8
0
10
71.7125533
20
15.8506125
11
71.7834086
21
16.2259238
0
LINE
8
0
10
71.7834086
20
16.2259238
11
71.8904759
21
16.8359379
0
LINE
8
0
10
71.8904759
20
16.8359379
11
71.9552112
21
17.4580095
0
LINE
8
0
10
71.9552112
20
17.4580095
11
71.9776117
21
17.8162225
0
LINE
8
0
10
71.9776117
20
17.8162225
11
72
21
18.4620553
0
LINE
8
0
10
72
20
18.4620553
11
72
21
18.4648797
0
LINE
8
0
10
72
20
18.4648797
11
72
21
19.3331743
0
LINE
8
0
10
72
20
19.3331743
11
72
21
19.3331743
0
LINE
8
0
10
72
20
-7.91261527
11
72
21
-13.5
0
LINE
8
0
10
72
20
-13.5
11
71.9290676
21
-14.0387582
0
LINE
8
0
10
71.9290676
20
-14.0387582
11
71.91481
21
-14.14705
0
LINE
8
0
10
71.91481
20
-14.14705
11
71.7068588
21
-14.6490888
0
LINE
8
0
10
71.7068588
20
-14.6490888
11
71.66506
21
-14.75
0
LINE
8
0
10
71.66506
20
-14.75
11
71.3342614
21
-15.1811148
0
LINE
8
0
10
71.3342614
20
-15.1811148
11
71.26777
21
-15.26777
0
LINE
8
0
10
71.26777
20
-15.26777
11
70.8366552
21
-15.5985686
0
LINE
8
0
10
70.8366552
20
-15.5985686
11
70.75
21
-15.66506
0
LINE
8
0
10
70.75
20
-15.66506
11
70.2479612
21
-15.8730112
0
LINE
8
0
10
70.2479612
20
-15.8730112
11
70.14705
21
-15.91481
0
LINE
8
0
10
70.14705
20
-15.91481
11
70.0387582
21
-15.9290676
0
LINE
8
0
10
70.0387582
20
-15.9290676
11
69.5
21
-16
0
LINE
8
0
10
69.5
20
-16
11
65.3790675
21
-16
0
LINE
8
0
10
65.3790675
20
-16
11
58.8
21
-16
0
LINE
8
0
10
58.8
20
-16
11
58.7648476
21
-15.9992757
0
LINE
8
0
10
58.7648476
20
-15.9992757
11
58.73836
21
-15.99873
0
LINE
8
0
10
58.73836
20
-15.99873
11
58.7032735
21
-15.9965645
0
LINE
8
0
10
58.7032735
20
-15.9965645
11
58.67679
21
-15.99493
0
LINE
8
0
10
58.67679
20
-15.99493
11
58.6505119
21
-15.9922192
0
LINE
8
0
10
58.6505119
20
-15.9922192
11
58.4494844
21
-15.9554419
0
LINE
8
0
10
58.4494844
20
-15.9554419
11
58.41177
21
-15.94889
0
LINE
8
0
10
58.41177
20
-15.94889
11
58.1523517
21
-15.8414355
0
LINE
8
0
10
58.1523517
20
-15.8414355
11
58.05
21
-15.79904
0
LINE
8
0
10
58.05
20
-15.79904
11
57.8272317
21
-15.6281023
0
LINE
8
0
10
57.8272317
20
-15.6281023
11
57.73934
21
-15.56066
0
LINE
8
0
10
57.73934
20
-15.56066
11
57.5684023
21
-15.3378917
0
LINE
8
0
10
57.5684023
20
-15.3378917
11
57.50096
21
-15.25
0
LINE
8
0
10
57.50096
20
-15.25
11
57.3935055
21
-14.9905817
0
LINE
8
0
10
57.3935055
20
-14.9905817
11
57.35111
21
-14.88823
0
LINE
8
0
10
57.35111
20
-14.88823
11
57.3376309
21
-14.7858433
0
LINE
8
0
10
57.3376309
20
-14.7858433
11
57.3205551
21
-14.6868467
0
LINE
8
0
10
57.3205551
20
-14.6868467
11
57.3
21
-14.5
0
LINE
8
0
10
57.3
20
-14.5
11
57.3
21
-14.3112231
0
LINE
8
0
10
57.3
20
-14.3112231
11
57.3
21
-14.17729
0
LINE
8
0
10
57.3
20
-14.17729
11
57.3
21
-6.51620625
0
LINE
8
0
10
57.3
20
-6.51620625
11
57.3
21
-6.46880876
0
LINE
8
0
10
57.3
20
-6.46880876
11
57.3
21
-5.59085833
0
LINE
8
0
10
57.3
20
-5.59085833
11
57.3
21
-5.5657194
0
LINE
8
0
10
57.3
20
-5.5657194
11
57.3
21
-4.68886895
0
LINE
8
0
10
57.3
20
-4.68886895
11
57.822531
21
-4.16116884
0
LINE
8
0
10
57.822531
20
-4.16116884
11
58.5
21
-3.42869828
0
LINE
8
0
10
58.5
20
-3.42869828
11
66.5926498
21
-3.44099428
0
LINE
8
0
10
66.5926498
20
-3.44099428
11
68.8399515
21
-3.44091968
0
LINE
8
0
10
68.8399515
20
-3.44091968
11
68.9280625
21
-3.44921389
0
LINE
8
0
10
68.9280625
20
-3.44921389
11
69.1259134
21
-3.45864586
0
LINE
8
0
10
69.1259134
20
-3.45864586
11
69.2116761
21
-3.47104657
0
LINE
8
0
10
69.2116761
20
-3.47104657
11
69.4183959
21
-3.50099651
0
LINE
8
0
10
69.4183959
20
-3.50099651
11
69.4981535
21
-3.52064314
0
LINE
8
0
10
69.4981535
20
-3.52064314
11
69.714943
21
-3.57421595
0
LINE
8
0
10
69.714943
20
-3.57421595
11
69.9490145
21
-3.65763661
0
LINE
8
0
10
69.9490145
20
-3.65763661
11
70.0109051
21
-3.67960675
0
LINE
8
0
10
70.0109051
20
-3.67960675
11
70.2588095
21
-3.79747171
0
LINE
8
0
10
70.2588095
20
-3.79747171
11
70.3012005
21
-3.81752938
0
LINE
8
0
10
70.3012005
20
-3.81752938
11
70.5616293
21
-3.97583449
0
LINE
8
0
10
70.5616293
20
-3.97583449
11
70.5805954
21
-3.98730015
0
LINE
8
0
10
70.5805954
20
-3.98730015
11
70.7765448
21
-4.13596932
0
LINE
8
0
10
70.7765448
20
-4.13596932
11
70.8437653
21
-4.18571738
0
LINE
8
0
10
70.8437653
20
-4.18571738
11
70.8486543
21
-4.19020342
0
LINE
8
0
10
70.8486543
20
-4.19020342
11
71.0857602
21
-4.40666907
0
LINE
8
0
10
71.0857602
20
-4.40666907
11
71.1091531
21
-4.4330562
0
LINE
8
0
10
71.1091531
20
-4.4330562
11
71.3033265
21
-4.65089176
0
LINE
8
0
10
71.3033265
20
-4.65089176
11
71.341189
21
-4.70360943
0
LINE
8
0
10
71.341189
20
-4.70360943
11
71.4932734
21
-4.91416067
0
LINE
8
0
10
71.4932734
20
-4.91416067
11
71.5401432
21
-4.99576312
0
LINE
8
0
10
71.5401432
20
-4.99576312
11
71.6534173
21
-5.19178313
0
LINE
8
0
10
71.6534173
20
-5.19178313
11
71.7031518
21
-5.30272109
0
LINE
8
0
10
71.7031518
20
-5.30272109
11
71.7826065
21
-5.47885896
0
LINE
8
0
10
71.7826065
20
-5.47885896
11
71.829102
21
-5.61757216
0
LINE
8
0
10
71.829102
20
-5.61757216
11
71.880707
21
-5.77053513
0
LINE
8
0
10
71.880707
20
-5.77053513
11
71.9185378
21
-5.93379594
0
LINE
8
0
10
71.9185378
20
-5.93379594
11
71.9484967
21
-6.06223165
0
LINE
8
0
10
71.9484967
20
-6.06223165
11
71.9733353
21
-6.24563837
0
LINE
8
0
10
71.9733353
20
-6.24563837
11
71.9875419
21
-6.34982278
0
LINE
8
0
10
71.9875419
20
-6.34982278
11
71.9913615
21
-6.43513506
0
LINE
8
0
10
71.9913615
20
-6.43513506
11
72
21
-6.62976402
0
LINE
8
0
10
72
20
-6.62976402
11
72
21
-6.83955395
0
LINE
8
0
10
72
20
-6.83955395
11
72
21
-7.7474637
0
LINE
8
0
10
72
20
-7.7474637
11
72
21
-7.91261527
0
LINE
8
0
10
72
20
-7.91261527
11
72
21
-7.91261527
0
ENDSEC
0
EOF
