0
SECTION
2
ENTITIES
0
LINE
8
0
10
16
20
38.5875234
11
16
21
37.333592
0
LINE
8
0
10
16
20
37.333592
11
16
21
35.4951152
0
LINE
8
0
10
16
20
35.4951152
11
16.6562023
21
35.4951152
0
LINE
8
0
10
16.6562023
20
35.4951152
11
17.8
21
35.4951152
0
LINE
8
0
10
17.8
20
35.4951152
11
17.8
21
34.715818
0
LINE
8
0
10
17.8
20
34.715818
11
17.8
21
31.8205796
0
LINE
8
0
10
17.8
20
31.8205796
11
17.8
21
31.0947326
0
LINE
8
0
10
17.8
20
31.0947326
11
17.7442451
21
30.214065
0
LINE
8
0
10
17.7442451
20
30.214065
11
17.72314
21
29.8807026
0
LINE
8
0
10
17.72314
20
29.8807026
11
17.5580225
21
29.0338825
0
LINE
8
0
10
17.5580225
20
29.0338825
11
17.49552
21
28.7133326
0
LINE
8
0
10
17.49552
20
28.7133326
11
17.22738
21
27.9328946
0
LINE
8
0
10
17.22738
20
27.9328946
11
17.12588
21
27.6374726
0
LINE
8
0
10
17.12588
20
27.6374726
11
16.7650256
21
26.9534197
0
LINE
8
0
10
16.7650256
20
26.9534197
11
16.62843
21
26.6944826
0
LINE
8
0
10
16.62843
20
26.6944826
11
16.4174377
21
26.3969853
0
LINE
8
0
10
16.4174377
20
26.3969853
11
16.33757
21
26.2843698
0
LINE
8
0
10
16.33757
20
26.2843698
11
16.108856
21
26.0204735
0
LINE
8
0
10
16.108856
20
26.0204735
11
16.02228
21
25.9205826
0
LINE
8
0
10
16.02228
20
25.9205826
11
15.7780422
21
25.6928406
0
LINE
8
0
10
15.7780422
20
25.6928406
11
15.68559
21
25.6066298
0
LINE
8
0
10
15.68559
20
25.6066298
11
15.4281716
21
25.4172184
0
LINE
8
0
10
15.4281716
20
25.4172184
11
15.33073
21
25.3455226
0
LINE
8
0
10
15.33073
20
25.3455226
11
15.0626263
21
25.1962843
0
LINE
8
0
10
15.0626263
20
25.1962843
11
14.96114
21
25.1397926
0
LINE
8
0
10
14.96114
20
25.1397926
11
14.684919
21
25.0321565
0
LINE
8
0
10
14.684919
20
25.0321565
11
14.58036
21
24.9914098
0
LINE
8
0
10
14.58036
20
24.9914098
11
14.2986912
21
24.926406
0
LINE
8
0
10
14.2986912
20
24.926406
11
14.19207
21
24.9018026
0
LINE
8
0
10
14.19207
20
24.9018026
11
13.9076591
21
24.8800621
0
LINE
8
0
10
13.9076591
20
24.8800621
11
13.8
21
24.8718326
0
LINE
8
0
10
13.8
20
24.8718326
11
5.53034364
21
24.8718326
0
LINE
8
0
10
5.53034364
20
24.8718326
11
2.4
21
24.871831
0
LINE
8
0
10
2.4
20
24.871831
11
2.4
21
26.9965662
0
LINE
8
0
10
2.4
20
26.9965662
11
2.4
21
28.1028564
0
LINE
8
0
10
2.4
20
28.1028564
11
2.4
21
29.4374325
0
LINE
8
0
10
2.4
20
29.4374325
11
2.4
21
39.4600931
0
LINE
8
0
10
2.4
20
39.4600931
11
2.4
21
40.1981442
0
LINE
8
0
10
2.4
20
40.1981442
11
2.4
21
40.9081622
0
LINE
8
0
10
2.4
20
40.9081622
11
12.0414801
21
40.9081622
0
LINE
8
0
10
12.0414801
20
40.9081622
11
16
21
40.9081622
0
LINE
8
0
10
16
20
40.9081622
11
16
21
40.0137214
0
LINE
8
0
10
16
20
40.0137214
11
16
21
39.607435
0
LINE
8
0
10
16
20
39.607435
11
16
21
38.5875234
0
LINE
8
0
10
16
20
38.5875234
11
16
21
38.5875234
0
LINE
8
0
10
67.901437
20
9.86566504
11
67.3660795
21
9.66125412
0
LINE
8
0
10
67.3660795
20
9.66125412
11
67.1013822
21
9.56651808
0
LINE
8
0
10
67.1013822
20
9.56651808
11
66.8314607
21
9.50930654
0
LINE
8
0
10
66.8314607
20
9.50930654
11
66.2681175
21
9.43910622
0
LINE
8
0
10
66.2681175
20
9.43910622
11
66
21
9.42028592
0
LINE
8
0
10
66
20
9.42028592
11
63.9218971
21
9.42028603
0
LINE
8
0
10
63.9218971
20
9.42028603
11
63.1
21
9.42028603
0
LINE
8
0
10
63.1
20
9.42028603
11
63.1
21
10.5668256
0
LINE
8
0
10
63.1
20
10.5668256
11
63.1
21
16.9165751
0
LINE
8
0
10
63.1
20
16.9165751
11
63.1
21
22.4
0
LINE
8
0
10
63.1
20
22.4
11
63.1050865
21
22.4045778
0
LINE
8
0
10
63.1050865
20
22.4045778
11
63.1205297
21
22.4184829
0
LINE
8
0
10
63.1205297
20
22.4184829
11
63.1463762
21
22.4417545
0
LINE
8
0
10
63.1463762
20
22.4417545
11
63.1823866
21
22.4741803
0
LINE
8
0
10
63.1823866
20
22.4741803
11
63.2279678
21
22.5152238
0
LINE
8
0
10
63.2279678
20
22.5152238
11
63.2821586
21
22.5640144
0
LINE
8
0
10
63.2821586
20
22.5640144
11
63.4107464
21
22.6798052
0
LINE
8
0
10
63.4107464
20
22.6798052
11
63.5538958
21
22.8086902
0
LINE
8
0
10
63.5538958
20
22.8086902
11
63.6044975
21
22.8542522
0
LINE
8
0
10
63.6044975
20
22.8542522
11
63.7494854
21
22.9847957
0
LINE
8
0
10
63.7494854
20
22.9847957
11
63.8823714
21
23.1044531
0
LINE
8
0
10
63.8823714
20
23.1044531
11
63.9395383
21
23.155925
0
LINE
8
0
10
63.9395383
20
23.155925
11
63.98849
21
23.2
0
LINE
8
0
10
63.98849
20
23.2
11
64.1203536
21
23.2
0
LINE
8
0
10
64.1203536
20
23.2
11
64.1217412
21
23.2
0
LINE
8
0
10
64.1217412
20
23.2
11
64.1231201
21
23.2
0
LINE
8
0
10
64.1231201
20
23.2
11
64.1244902
21
23.2
0
LINE
8
0
10
64.1244902
20
23.2
11
66.2982328
21
23.2
0
LINE
8
0
10
66.2982328
20
23.2
11
66.298231
21
25.657604
0
LINE
8
0
10
66.298231
20
25.657604
11
66.298231
21
29.749333
0
LINE
8
0
10
66.298231
20
29.749333
11
66.3030798
21
29.8024554
0
LINE
8
0
10
66.3030798
20
29.8024554
11
66.3155988
21
29.8887856
0
LINE
8
0
10
66.3155988
20
29.8887856
11
66.3634514
21
30.0161527
0
LINE
8
0
10
66.3634514
20
30.0161527
11
66.3705899
21
30.0348111
0
LINE
8
0
10
66.3705899
20
30.0348111
11
66.4437481
21
30.1480957
0
LINE
8
0
10
66.4437481
20
30.1480957
11
66.4531151
21
30.1613968
0
LINE
8
0
10
66.4531151
20
30.1613968
11
66.4671135
21
30.1757008
0
LINE
8
0
10
66.4671135
20
30.1757008
11
66.5581367
21
30.2674634
0
LINE
8
0
10
66.5581367
20
30.2674634
11
66.5790144
21
30.2827371
0
LINE
8
0
10
66.5790144
20
30.2827371
11
66.6778634
21
30.3477387
0
LINE
8
0
10
66.6778634
20
30.3477387
11
66.6910222
21
30.3550578
0
LINE
8
0
10
66.6910222
20
30.3550578
11
66.7055018
21
30.3615638
0
LINE
8
0
10
66.7055018
20
30.3615638
11
66.8048211
21
30.3994129
0
LINE
8
0
10
66.8048211
20
30.3994129
11
66.8209759
21
30.4050355
0
LINE
8
0
10
66.8209759
20
30.4050355
11
66.8380277
21
30.4092629
0
LINE
8
0
10
66.8380277
20
30.4092629
11
66.8554907
21
30.4118891
0
LINE
8
0
10
66.8554907
20
30.4118891
11
66.9292841
21
30.4230676
0
LINE
8
0
10
66.9292841
20
30.4230676
11
66.969272
21
30.425094
0
LINE
8
0
10
66.969272
20
30.425094
11
70.0323072
21
30.4250946
0
LINE
8
0
10
70.0323072
20
30.4250946
11
74
21
30.4250946
0
LINE
8
0
10
74
20
30.4250946
11
74
21
29.2916043
0
LINE
8
0
10
74
20
29.2916043
11
74
21
26.2445718
0
LINE
8
0
10
74
20
26.2445718
11
74
21
22.6565185
0
LINE
8
0
10
74
20
22.6565185
11
74
21
22.6
0
LINE
8
0
10
74
20
22.6
11
73.7820803
21
22.3790196
0
LINE
8
0
10
73.7820803
20
22.3790196
11
73.68601
21
22.2816
0
LINE
8
0
10
73.68601
20
22.2816
11
73.5190531
21
22.1122925
0
LINE
8
0
10
73.5190531
20
22.1122925
11
73.44949
21
22.04175
0
LINE
8
0
10
73.44949
20
22.04175
11
73.2449505
21
21.8343342
0
LINE
8
0
10
73.2449505
20
21.8343342
11
73.15509
21
21.74321
0
LINE
8
0
10
73.15509
20
21.74321
11
72.4705058
21
21.0490009
0
LINE
8
0
10
72.4705058
20
21.0490009
11
72.4697116
21
21.0481955
0
LINE
8
0
10
72.4697116
20
21.0481955
11
72.3138272
21
20.8901175
0
LINE
8
0
10
72.3138272
20
20.8901175
11
72.1573989
21
20.7314924
0
LINE
8
0
10
72.1573989
20
20.7314924
11
72
21
20.57188
0
LINE
8
0
10
72
20
20.57188
11
72
21
19.1962197
0
LINE
8
0
10
72
20
19.1962197
11
72
21
19.0574263
0
LINE
8
0
10
72
20
19.0574263
11
72
21
17.9958408
0
LINE
8
0
10
72
20
17.9958408
11
72
21
17.9932053
0
LINE
8
0
10
72
20
17.9932053
11
71.9791099
21
17.3905897
0
LINE
8
0
10
71.9791099
20
17.3905897
11
71.9517315
21
16.9527738
0
LINE
8
0
10
71.9517315
20
16.9527738
11
71.891855
21
16.377393
0
LINE
8
0
10
71.891855
20
16.377393
11
71.7928238
21
15.8131647
0
LINE
8
0
10
71.7928238
20
15.8131647
11
71.7062229
21
15.3544508
0
LINE
8
0
10
71.7062229
20
15.3544508
11
71.5749001
21
14.830443
0
LINE
8
0
10
71.5749001
20
14.830443
11
71.4136168
21
14.3380711
0
LINE
8
0
10
71.4136168
20
14.3380711
11
71.2555031
21
13.86066
0
LINE
8
0
10
71.2555031
20
13.86066
11
71.0654213
21
13.4076832
0
LINE
8
0
10
71.0654213
20
13.4076832
11
70.8277028
21
12.9244198
0
LINE
8
0
10
70.8277028
20
12.9244198
11
70.6204267
21
12.5251725
0
LINE
8
0
10
70.6204267
20
12.5251725
11
70.3867662
21
12.1568773
0
LINE
8
0
10
70.3867662
20
12.1568773
11
70.0694964
21
11.7051827
0
LINE
8
0
10
70.0694964
20
11.7051827
11
69.8284127
21
11.3930073
0
LINE
8
0
10
69.8284127
20
11.3930073
11
69.5670858
21
11.1161015
0
LINE
8
0
10
69.5670858
20
11.1161015
11
69.1715977
21
10.7216785
0
LINE
8
0
10
69.1715977
20
10.7216785
11
68.9110954
21
10.498589
0
LINE
8
0
10
68.9110954
20
10.498589
11
68.6365556
21
10.3130569
0
LINE
8
0
10
68.6365556
20
10.3130569
11
68.1700945
21
10.0030135
0
LINE
8
0
10
68.1700945
20
10.0030135
11
67.901437
21
9.86566504
0
LINE
8
0
10
67.901437
20
9.86566504
11
67.901437
21
9.86566504
0
LINE
8
0
10
35.2
20
10
11
35.2
21
8.41331835
0
LINE
8
0
10
35.2
20
8.41331835
11
35.2
21
5.42557962
0
LINE
8
0
10
35.2
20
5.42557962
11
34.5510359
21
4.49804167
0
LINE
8
0
10
34.5510359
20
4.49804167
11
34
21
3.71046847
0
LINE
8
0
10
34
20
3.71046847
11
31.9022683
21
3.71046847
0
LINE
8
0
10
31.9022683
20
3.71046847
11
29.4
21
3.71046847
0
LINE
8
0
10
29.4
20
3.71046847
11
28.8489641
21
4.49804167
0
LINE
8
0
10
28.8489641
20
4.49804167
11
28.2
21
5.42557962
0
LINE
8
0
10
28.2
20
5.42557962
11
28.2
21
8.61550203
0
LINE
8
0
10
28.2
20
8.61550203
11
28.2
21
9.12897749
0
LINE
8
0
10
28.2
20
9.12897749
11
28.2
21
9.20361003
0
LINE
8
0
10
28.2
20
9.20361003
11
28.2
21
9.92598042
0
LINE
8
0
10
28.2
20
9.92598042
11
28.2
21
15
0
LINE
8
0
10
28.2
20
15
11
28.9254085
21
15
0
LINE
8
0
10
28.9254085
20
15
11
30.2
21
15
0
LINE
8
0
10
30.2
20
15
11
30.2
21
14.1517661
0
LINE
8
0
10
30.2
20
14.1517661
11
30.2
21
12.65094
0
LINE
8
0
10
30.2
20
12.65094
11
30.2
21
12.5569166
0
LINE
8
0
10
30.2
20
12.5569166
11
30.2
21
12.39302
0
LINE
8
0
10
30.2
20
12.39302
11
30.2
21
12.2996302
0
LINE
8
0
10
30.2
20
12.2996302
11
30.2
21
12.13557
0
LINE
8
0
10
30.2
20
12.13557
11
30.2
21
12.0488332
0
LINE
8
0
10
30.2
20
12.0488332
11
30.2
21
11.89597
0
LINE
8
0
10
30.2
20
11.89597
11
30.2
21
11.8214907
0
LINE
8
0
10
30.2
20
11.8214907
11
30.2
21
11.69043
0
LINE
8
0
10
30.2
20
11.69043
11
30.2
21
11.6330982
0
LINE
8
0
10
30.2
20
11.6330982
11
30.2
21
11.53281
0
LINE
8
0
10
30.2
20
11.53281
11
30.2
21
11.031691
0
LINE
8
0
10
30.2
20
11.031691
11
30.2
21
10
0
LINE
8
0
10
30.2
20
10
11
32.1886149
21
10
0
LINE
8
0
10
32.1886149
20
10
11
35.2
21
10
0
LINE
8
0
10
35.2
20
10
11
35.2
21
10
0
LINE
8
0
10
35.2
20
-10.9504382
11
35.2
21
-11.2727513
0
LINE
8
0
10
35.2
20
-11.2727513
11
35.2
21
-13.5
0
LINE
8
0
10
35.2
20
-13.5
11
35.1952137
21
-13.5974106
0
LINE
8
0
10
35.1952137
20
-13.5974106
11
35.1516251
21
-13.8674256
0
LINE
8
0
10
35.1516251
20
-13.8674256
11
35.11481
21
-14.14705
0
LINE
8
0
10
35.11481
20
-14.14705
11
35.0536652
21
-14.2946666
0
LINE
8
0
10
35.0536652
20
-14.2946666
11
34.86506
21
-14.75
0
LINE
8
0
10
34.86506
20
-14.75
11
34.7677939
21
-14.8767625
0
LINE
8
0
10
34.7677939
20
-14.8767625
11
34.46777
21
-15.26777
0
LINE
8
0
10
34.46777
20
-15.26777
11
34.3410075
21
-15.3650361
0
LINE
8
0
10
34.3410075
20
-15.3650361
11
33.95
21
-15.66506
0
LINE
8
0
10
33.95
20
-15.66506
11
33.8023834
21
-15.7262048
0
LINE
8
0
10
33.8023834
20
-15.7262048
11
33.34705
21
-15.91481
0
LINE
8
0
10
33.34705
20
-15.91481
11
33.2678433
21
-15.9252383
0
LINE
8
0
10
33.2678433
20
-15.9252383
11
32.9901149
21
-15.9714245
0
LINE
8
0
10
32.9901149
20
-15.9714245
11
32.7
21
-16
0
LINE
8
0
10
32.7
20
-16
11
31.7820292
21
-16
0
LINE
8
0
10
31.7820292
20
-16
11
30.7
21
-16
0
LINE
8
0
10
30.7
20
-16
11
30.5034798
21
-15.9806433
0
LINE
8
0
10
30.5034798
20
-15.9806433
11
30.1891671
21
-15.9327442
0
LINE
8
0
10
30.1891671
20
-15.9327442
11
30.087911
21
-15.9229622
0
LINE
8
0
10
30.087911
20
-15.9229622
11
29.9821128
21
-15.8907652
0
LINE
8
0
10
29.9821128
20
-15.8907652
11
29.5170925
21
-15.6981476
0
LINE
8
0
10
29.5170925
20
-15.6981476
11
29.4169241
21
-15.6444926
0
LINE
8
0
10
29.4169241
20
-15.6444926
11
29.0224228
21
-15.3417879
0
LINE
8
0
10
29.0224228
20
-15.3417879
11
28.93223
21
-15.26777
0
LINE
8
0
10
28.93223
20
-15.26777
11
28.8530663
21
-15.1713069
0
LINE
8
0
10
28.8530663
20
-15.1713069
11
28.5569373
21
-14.7853754
0
LINE
8
0
10
28.5569373
20
-14.7853754
11
28.4972326
21
-14.6735399
0
LINE
8
0
10
28.4972326
20
-14.6735399
11
28.312592
21
-14.2277777
0
LINE
8
0
10
28.312592
20
-14.2277777
11
28.2753608
21
-14.1048967
0
LINE
8
0
10
28.2753608
20
-14.1048967
11
28.2657626
21
-14.0402827
0
LINE
8
0
10
28.2657626
20
-14.0402827
11
28.21204
21
-13.74504
0
LINE
8
0
10
28.21204
20
-13.74504
11
28.207616
21
-13.6550023
0
LINE
8
0
10
28.207616
20
-13.6550023
11
28.2
21
-13.5
0
LINE
8
0
10
28.2
20
-13.5
11
28.2
21
-11.4445767
0
LINE
8
0
10
28.2
20
-11.4445767
11
28.2
21
-11.0686845
0
LINE
8
0
10
28.2
20
-11.0686845
11
28.2
21
-10.3963396
0
LINE
8
0
10
28.2
20
-10.3963396
11
28.2
21
-10.2617236
0
LINE
8
0
10
28.2
20
-10.2617236
11
28.7143384
21
-9.71347304
0
LINE
8
0
10
28.7143384
20
-9.71347304
11
29.4
21
-8.97214532
0
LINE
8
0
10
29.4
20
-8.97214532
11
33.092004
21
-8.97214532
0
LINE
8
0
10
33.092004
20
-8.97214532
11
34
21
-8.97214532
0
LINE
8
0
10
34
20
-8.97214532
11
34.6856616
21
-9.71347304
0
LINE
8
0
10
34.6856616
20
-9.71347304
11
35.2
21
-10.2617236
0
LINE
8
0
10
35.2
20
-10.2617236
11
35.2
21
-10.3763828
0
LINE
8
0
10
35.2
20
-10.3763828
11
35.2
21
-10.9504382
0
LINE
8
0
10
35.2
20
-10.9504382
11
35.2
21
-10.9504382
0
LINE
8
0
10
72
20
-7.13705783
11
72
21
-8.00441374
0
LINE
8
0
10
72
20
-8.00441374
11
72
21
-8.16218844
0
LINE
8
0
10
72
20
-8.16218844
11
72
21
-13.5
0
LINE
8
0
10
72
20
-13.5
11
71.932236
21
-14.0146933
0
LINE
8
0
10
71.932236
20
-14.0146933
11
71.91481
21
-14.14705
0
LINE
8
0
10
71.91481
20
-14.14705
11
71.7161474
21
-14.6266641
0
LINE
8
0
10
71.7161474
20
-14.6266641
11
71.66506
21
-14.75
0
LINE
8
0
10
71.66506
20
-14.75
11
71.3490373
21
-15.1618581
0
LINE
8
0
10
71.3490373
20
-15.1618581
11
71.26777
21
-15.26777
0
LINE
8
0
10
71.26777
20
-15.26777
11
70.8559119
21
-15.5837927
0
LINE
8
0
10
70.8559119
20
-15.5837927
11
70.75
21
-15.66506
0
LINE
8
0
10
70.75
20
-15.66506
11
70.2703859
21
-15.8637226
0
LINE
8
0
10
70.2703859
20
-15.8637226
11
70.14705
21
-15.91481
0
LINE
8
0
10
70.14705
20
-15.91481
11
70.0146933
21
-15.932236
0
LINE
8
0
10
70.0146933
20
-15.932236
11
69.5
21
-16
0
LINE
8
0
10
69.5
20
-16
11
65.5631383
21
-16
0
LINE
8
0
10
65.5631383
20
-16
11
58.8
21
-16
0
LINE
8
0
10
58.8
20
-16
11
58.7638641
21
-15.9992555
0
LINE
8
0
10
58.7638641
20
-15.9992555
11
58.73836
21
-15.99873
0
LINE
8
0
10
58.73836
20
-15.99873
11
58.702297
21
-15.9965043
0
LINE
8
0
10
58.702297
20
-15.9965043
11
58.67679
21
-15.99493
0
LINE
8
0
10
58.67679
20
-15.99493
11
58.6514808
21
-15.9923192
0
LINE
8
0
10
58.6514808
20
-15.9923192
11
58.4578654
21
-15.9568978
0
LINE
8
0
10
58.4578654
20
-15.9568978
11
58.41177
21
-15.94889
0
LINE
8
0
10
58.41177
20
-15.94889
11
58.1750966
21
-15.8508567
0
LINE
8
0
10
58.1750966
20
-15.8508567
11
58.05
21
-15.79904
0
LINE
8
0
10
58.05
20
-15.79904
11
57.8467632
21
-15.6430895
0
LINE
8
0
10
57.8467632
20
-15.6430895
11
57.73934
21
-15.56066
0
LINE
8
0
10
57.73934
20
-15.56066
11
57.5833895
21
-15.3574232
0
LINE
8
0
10
57.5833895
20
-15.3574232
11
57.50096
21
-15.25
0
LINE
8
0
10
57.50096
20
-15.25
11
57.4029267
21
-15.0133266
0
LINE
8
0
10
57.4029267
20
-15.0133266
11
57.35111
21
-14.88823
0
LINE
8
0
10
57.35111
20
-14.88823
11
57.3388127
21
-14.7948202
0
LINE
8
0
10
57.3388127
20
-14.7948202
11
57.3212006
21
-14.6927146
0
LINE
8
0
10
57.3212006
20
-14.6927146
11
57.3
21
-14.5
0
LINE
8
0
10
57.3
20
-14.5
11
57.3
21
-14.3052945
0
LINE
8
0
10
57.3
20
-14.3052945
11
57.3
21
-14.17729
0
LINE
8
0
10
57.3
20
-14.17729
11
57.3
21
-6.85532275
0
LINE
8
0
10
57.3
20
-6.85532275
11
57.3
21
-6.79739249
0
LINE
8
0
10
57.3
20
-6.79739249
11
57.3
21
-5.95856836
0
LINE
8
0
10
57.3
20
-5.95856836
11
57.3
21
-5.92012198
0
LINE
8
0
10
57.3
20
-5.92012198
11
57.3
21
-4.75640425
0
LINE
8
0
10
57.3
20
-4.75640425
11
57.3
21
-4.55190644
0
LINE
8
0
10
57.3
20
-4.55190644
11
57.8143384
21
-4.00365561
0
LINE
8
0
10
57.8143384
20
-4.00365561
11
58.5
21
-3.26232732
0
LINE
8
0
10
58.5
20
-3.26232732
11
61.033666
21
-3.26617699
0
LINE
8
0
10
61.033666
20
-3.26617699
11
68.763979
21
-3.26592038
0
LINE
8
0
10
68.763979
20
-3.26592038
11
69.0406083
21
-3.2919605
0
LINE
8
0
10
69.0406083
20
-3.2919605
11
69.0597996
21
-3.2923354
0
LINE
8
0
10
69.0597996
20
-3.2923354
11
69.0672922
21
-3.29346101
0
LINE
8
0
10
69.0672922
20
-3.29346101
11
69.3448519
21
-3.33526231
0
LINE
8
0
10
69.3448519
20
-3.33526231
11
69.3595647
21
-3.33738969
0
LINE
8
0
10
69.3595647
20
-3.33738969
11
69.3599209
21
-3.33744129
0
LINE
8
0
10
69.3599209
20
-3.33744129
11
69.6512468
21
-3.40920337
0
LINE
8
0
10
69.6512468
20
-3.40920337
11
69.6637289
21
-3.41228792
0
LINE
8
0
10
69.6637289
20
-3.41228792
11
69.677206
21
-3.41709103
0
LINE
8
0
10
69.677206
20
-3.41709103
11
69.9669945
21
-3.51996109
0
LINE
8
0
10
69.9669945
20
-3.51996109
11
69.9987214
21
-3.53504549
0
LINE
8
0
10
69.9987214
20
-3.53504549
11
70.2644319
21
-3.66076878
0
LINE
8
0
10
70.2644319
20
-3.66076878
11
70.3180466
21
-3.69335919
0
LINE
8
0
10
70.3180466
20
-3.69335919
11
70.5505895
21
-3.83393902
0
LINE
8
0
10
70.5505895
20
-3.83393902
11
70.627338
21
-3.89216905
0
LINE
8
0
10
70.627338
20
-3.89216905
11
70.8201821
21
-4.03759479
0
LINE
8
0
10
70.8201821
20
-4.03759479
11
70.9183692
21
-4.12943622
0
LINE
8
0
10
70.9183692
20
-4.12943622
11
71.068376
21
-4.26881535
0
LINE
8
0
10
71.068376
20
-4.26881535
11
71.1833433
21
-4.40089352
0
LINE
8
0
10
71.1833433
20
-4.40089352
11
71.2910693
21
-4.5237819
0
LINE
8
0
10
71.2910693
20
-4.5237819
11
71.4156638
21
-4.70034962
0
LINE
8
0
10
71.4156638
20
-4.70034962
11
71.4850808
21
-4.79798986
0
LINE
8
0
10
71.4850808
20
-4.79798986
11
71.6106168
21
-5.02028693
0
LINE
8
0
10
71.6106168
20
-5.02028693
11
71.6483008
21
-5.08649986
0
LINE
8
0
10
71.6483008
20
-5.08649986
11
71.6715031
21
-5.13863048
0
LINE
8
0
10
71.6715031
20
-5.13863048
11
71.7796866
21
-5.38420899
0
LINE
8
0
10
71.7796866
20
-5.38420899
11
71.7878436
21
-5.40870067
0
LINE
8
0
10
71.7878436
20
-5.40870067
11
71.8695938
21
-5.65678663
0
LINE
8
0
10
71.8695938
20
-5.65678663
11
71.879246
21
-5.68539675
0
LINE
8
0
10
71.879246
20
-5.68539675
11
71.8799082
21
-5.68825434
0
LINE
8
0
10
71.8799082
20
-5.68825434
11
71.9478835
21
-5.97966834
0
LINE
8
0
10
71.9478835
20
-5.97966834
11
71.952047
21
-6.01041129
0
LINE
8
0
10
71.952047
20
-6.01041129
11
71.9873959
21
-6.26964278
0
LINE
8
0
10
71.9873959
20
-6.26964278
11
71.9968998
21
-6.48191665
0
LINE
8
0
10
71.9968998
20
-6.48191665
11
72
21
-6.55176577
0
LINE
8
0
10
72
20
-6.55176577
11
72
21
-7.13705783
0
LINE
8
0
10
72
20
-7.13705783
11
72
21
-7.13705783
0
ENDSEC
0
EOF
