0
SECTION
2
ENTITIES
0
LINE
8
0
10
16
20
36.8948752
11
16
21
35.5594637
0
LINE
8
0
10
16
20
35.5594637
11
16.9691815
21
35.5594637
0
LINE
8
0
10
16.9691815
20
35.5594637
11
17.8
21
35.5594637
0
LINE
8
0
10
17.8
20
35.5594637
11
17.8
21
34.4084766
0
LINE
8
0
10
17.8
20
34.4084766
11
17.8
21
31.6128696
0
LINE
8
0
10
17.8
20
31.6128696
11
17.8
21
30.8210364
0
LINE
8
0
10
17.8
20
30.8210364
11
17.7461638
21
29.9706745
0
LINE
8
0
10
17.7461638
20
29.9706745
11
17.72314
21
29.6070064
0
LINE
8
0
10
17.72314
20
29.6070064
11
17.5637046
21
28.7893273
0
LINE
8
0
10
17.5637046
20
28.7893273
11
17.49552
21
28.4396364
0
LINE
8
0
10
17.49552
20
28.4396364
11
17.2366073
21
27.6860551
0
LINE
8
0
10
17.2366073
20
27.6860551
11
17.12588
21
27.3637764
0
LINE
8
0
10
17.12588
20
27.3637764
11
16.7774433
21
26.7032633
0
LINE
8
0
10
16.7774433
20
26.7032633
11
16.62843
21
26.4207864
0
LINE
8
0
10
16.62843
20
26.4207864
11
16.4246984
21
26.1335267
0
LINE
8
0
10
16.4246984
20
26.1335267
11
16.33757
21
26.0106735
0
LINE
8
0
10
16.33757
20
26.0106735
11
16.1167265
21
25.7558584
0
LINE
8
0
10
16.1167265
20
25.7558584
11
16.02228
21
25.6468864
0
LINE
8
0
10
16.02228
20
25.6468864
11
15.786447
21
25.4269816
0
LINE
8
0
10
15.786447
20
25.4269816
11
15.68559
21
25.3329335
0
LINE
8
0
10
15.68559
20
25.3329335
11
15.4370299
21
25.1500401
0
LINE
8
0
10
15.4370299
20
25.1500401
11
15.33073
21
25.0718264
0
LINE
8
0
10
15.33073
20
25.0718264
11
15.0718523
21
24.9277238
0
LINE
8
0
10
15.0718523
20
24.9277238
11
14.96114
21
24.8660964
0
LINE
8
0
10
14.96114
20
24.8660964
11
14.6944243
21
24.7621643
0
LINE
8
0
10
14.6944243
20
24.7621643
11
14.58036
21
24.7177135
0
LINE
8
0
10
14.58036
20
24.7177135
11
14.308384
21
24.6549465
0
LINE
8
0
10
14.308384
20
24.6549465
11
14.19207
21
24.6281064
0
LINE
8
0
10
14.19207
20
24.6281064
11
13.9174463
21
24.6071141
0
LINE
8
0
10
13.9174463
20
24.6071141
11
13.8
21
24.5981364
0
LINE
8
0
10
13.8
20
24.5981364
11
5.81492033
21
24.5981364
0
LINE
8
0
10
5.81492033
20
24.5981364
11
2.4
21
24.5981347
0
LINE
8
0
10
2.4
20
24.5981347
11
2.4
21
26.9160277
0
LINE
8
0
10
2.4
20
26.9160277
11
2.4
21
28.1228897
0
LINE
8
0
10
2.4
20
28.1228897
11
2.4
21
29.5787909
0
LINE
8
0
10
2.4
20
29.5787909
11
2.4
21
39.3362923
0
LINE
8
0
10
2.4
20
39.3362923
11
2.4
21
40.0548175
0
LINE
8
0
10
2.4
20
40.0548175
11
2.4
21
41.0309173
0
LINE
8
0
10
2.4
20
41.0309173
11
15.6546582
21
41.0309173
0
LINE
8
0
10
15.6546582
20
41.0309173
11
16
21
41.0309173
0
LINE
8
0
10
16
20
41.0309173
11
16
21
39.8012817
0
LINE
8
0
10
16
20
39.8012817
11
16
21
39.242738
0
LINE
8
0
10
16
20
39.242738
11
16
21
38.3345027
0
LINE
8
0
10
16
20
38.3345027
11
16
21
36.8948752
0
LINE
8
0
10
16
20
36.8948752
11
16
21
36.8948752
0
LINE
8
0
10
35.2
20
-10.4494062
11
35.2
21
-11.0100415
0
LINE
8
0
10
35.2
20
-11.0100415
11
35.2
21
-11.3248196
0
LINE
8
0
10
35.2
20
-11.3248196
11
35.2
21
-13.5
0
LINE
8
0
10
35.2
20
-13.5
11
35.1953256
21
-13.5951333
0
LINE
8
0
10
35.1953256
20
-13.5951333
11
35.152756
21
-13.858836
0
LINE
8
0
10
35.152756
20
-13.858836
11
35.11481
21
-14.14705
0
LINE
8
0
10
35.11481
20
-14.14705
11
35.0594589
21
-14.2806795
0
LINE
8
0
10
35.0594589
20
-14.2806795
11
34.86506
21
-14.75
0
LINE
8
0
10
34.86506
20
-14.75
11
34.7770101
21
-14.8647514
0
LINE
8
0
10
34.7770101
20
-14.8647514
11
34.46777
21
-15.26777
0
LINE
8
0
10
34.46777
20
-15.26777
11
34.3530186
21
-15.3558199
0
LINE
8
0
10
34.3530186
20
-15.3558199
11
33.95
21
-15.66506
0
LINE
8
0
10
33.95
20
-15.66506
11
33.8163705
21
-15.7204111
0
LINE
8
0
10
33.8163705
20
-15.7204111
11
33.34705
21
-15.91481
0
LINE
8
0
10
33.34705
20
-15.91481
11
33.2753484
21
-15.9242502
0
LINE
8
0
10
33.2753484
20
-15.9242502
11
32.9939493
21
-15.9710468
0
LINE
8
0
10
32.9939493
20
-15.9710468
11
32.7
21
-16
0
LINE
8
0
10
32.7
20
-16
11
31.799136
21
-16
0
LINE
8
0
10
31.799136
20
-16
11
30.7
21
-16
0
LINE
8
0
10
30.7
20
-16
11
30.5082438
21
-15.9811126
0
LINE
8
0
10
30.5082438
20
-15.9811126
11
30.2015505
21
-15.9343746
0
LINE
8
0
10
30.2015505
20
-15.9343746
11
30.0910893
21
-15.9237033
0
LINE
8
0
10
30.0910893
20
-15.9237033
11
29.975673
21
-15.8885793
0
LINE
8
0
10
29.975673
20
-15.8885793
11
29.5231918
21
-15.7011555
0
LINE
8
0
10
29.5231918
20
-15.7011555
11
29.4139172
21
-15.6426228
0
LINE
8
0
10
29.4139172
20
-15.6426228
11
29.0306221
21
-15.3485168
0
LINE
8
0
10
29.0306221
20
-15.3485168
11
28.93223
21
-15.26777
0
LINE
8
0
10
28.93223
20
-15.26777
11
28.8458696
21
-15.1625376
0
LINE
8
0
10
28.8458696
20
-15.1625376
11
28.558937
21
-14.7885913
0
LINE
8
0
10
28.558937
20
-14.7885913
11
28.4938047
21
-14.666589
0
LINE
8
0
10
28.4938047
20
-14.666589
11
28.3150831
21
-14.2351166
0
LINE
8
0
10
28.3150831
20
-14.2351166
11
28.2744672
21
-14.1010646
0
LINE
8
0
10
28.2744672
20
-14.1010646
11
28.2639964
21
-14.0305766
0
LINE
8
0
10
28.2639964
20
-14.0305766
11
28.21204
21
-13.74504
0
LINE
8
0
10
28.21204
20
-13.74504
11
28.2077615
21
-13.6579623
0
LINE
8
0
10
28.2077615
20
-13.6579623
11
28.2
21
-13.5
0
LINE
8
0
10
28.2
20
-13.5
11
28.2
21
-11.5122654
0
LINE
8
0
10
28.2
20
-11.5122654
11
28.2
21
-11.1487521
0
LINE
8
0
10
28.2
20
-11.1487521
11
28.2
21
-10.4985487
0
LINE
8
0
10
28.2
20
-10.4985487
11
28.2
21
-10.1670653
0
LINE
8
0
10
28.2
20
-10.1670653
11
29.3673167
21
-8.92278341
0
LINE
8
0
10
29.3673167
20
-8.92278341
11
29.4
21
-8.88465302
0
LINE
8
0
10
29.4
20
-8.88465302
11
29.4955169
21
-8.88465302
0
LINE
8
0
10
29.4955169
20
-8.88465302
11
34
21
-8.88465302
0
LINE
8
0
10
34
20
-8.88465302
11
34.0326833
21
-8.92278341
0
LINE
8
0
10
34.0326833
20
-8.92278341
11
35.2
21
-10.1670653
0
LINE
8
0
10
35.2
20
-10.1670653
11
35.2
21
-10.4494062
0
LINE
8
0
10
35.2
20
-10.4494062
11
35.2
21
-10.4494062
0
LINE
8
0
10
35.2
20
10
11
35.2
21
8.45041156
0
LINE
8
0
10
35.2
20
8.45041156
11
35.2
21
5.19106022
0
LINE
8
0
10
35.2
20
5.19106022
11
34.60113
21
4.33511982
0
LINE
8
0
10
34.60113
20
4.33511982
11
34
21
3.47594905
0
LINE
8
0
10
34
20
3.47594905
11
32.1297473
21
3.47594905
0
LINE
8
0
10
32.1297473
20
3.47594905
11
29.4
21
3.47594905
0
LINE
8
0
10
29.4
20
3.47594905
11
28.79887
21
4.33511982
0
LINE
8
0
10
28.79887
20
4.33511982
11
28.2
21
5.19106022
0
LINE
8
0
10
28.2
20
5.19106022
11
28.2
21
8.67097557
0
LINE
8
0
10
28.2
20
8.67097557
11
28.2
21
9.23113063
0
LINE
8
0
10
28.2
20
9.23113063
11
28.2
21
9.31254794
0
LINE
8
0
10
28.2
20
9.31254794
11
28.2
21
10.1005884
0
LINE
8
0
10
28.2
20
10.1005884
11
28.2
21
15
0
LINE
8
0
10
28.2
20
15
11
28.9004456
21
15
0
LINE
8
0
10
28.9004456
20
15
11
30.2
21
15
0
LINE
8
0
10
30.2
20
15
11
30.2
21
14.1809556
0
LINE
8
0
10
30.2
20
14.1809556
11
30.2
21
12.65094
0
LINE
8
0
10
30.2
20
12.65094
11
30.2
21
12.5601128
0
LINE
8
0
10
30.2
20
12.5601128
11
30.2
21
12.39302
0
LINE
8
0
10
30.2
20
12.39302
11
30.2
21
12.30282
0
LINE
8
0
10
30.2
20
12.30282
11
30.2
21
12.13557
0
LINE
8
0
10
30.2
20
12.13557
11
30.2
21
12.0517802
0
LINE
8
0
10
30.2
20
12.0517802
11
30.2
21
11.89597
0
LINE
8
0
10
30.2
20
11.89597
11
30.2
21
11.8239841
0
LINE
8
0
10
30.2
20
11.8239841
11
30.2
21
11.69043
0
LINE
8
0
10
30.2
20
11.69043
11
30.2
21
11.634974
0
LINE
8
0
10
30.2
20
11.634974
11
30.2
21
11.53281
0
LINE
8
0
10
30.2
20
11.53281
11
30.2
21
11.0476182
0
LINE
8
0
10
30.2
20
11.0476182
11
30.2
21
10
0
LINE
8
0
10
30.2
20
10
11
32.1421254
21
10
0
LINE
8
0
10
32.1421254
20
10
11
35.2
21
10
0
LINE
8
0
10
35.2
20
10
11
35.2
21
10
0
LINE
8
0
10
72
20
17.7613213
11
72
21
17.7587804
0
LINE
8
0
10
72
20
17.7587804
11
71.9798589
21
17.1777733
0
LINE
8
0
10
71.9798589
20
17.1777733
11
71.9499916
21
16.700156
0
LINE
8
0
10
71.9499916
20
16.700156
11
71.8925446
21
16.1481205
0
LINE
8
0
10
71.8925446
20
16.1481205
11
71.7975315
21
15.6067851
0
LINE
8
0
10
71.7975315
20
15.6067851
11
71.7030577
21
15.10637
0
LINE
8
0
10
71.7030577
20
15.10637
11
71.5778419
21
14.6067305
0
LINE
8
0
10
71.5778419
20
14.6067305
11
71.4018965
21
14.0695976
0
LINE
8
0
10
71.4018965
20
14.0695976
11
71.2523043
21
13.6179164
0
LINE
8
0
10
71.2523043
20
13.6179164
11
71.0724669
21
13.1893526
0
LINE
8
0
10
71.0724669
20
13.1893526
11
70.8131376
21
12.6621562
0
LINE
8
0
10
70.8131376
20
12.6621562
11
70.6189064
21
12.2880354
0
LINE
8
0
10
70.6189064
20
12.2880354
11
70.3999513
21
11.9429189
0
LINE
8
0
10
70.3999513
20
11.9429189
11
70.0538388
21
11.4501611
0
LINE
8
0
10
70.0538388
20
11.4501611
11
69.8304966
21
11.1609589
0
LINE
8
0
10
69.8304966
20
11.1609589
11
69.5884009
21
10.9044307
0
LINE
8
0
10
69.5884009
20
10.9044307
11
69.1569593
21
10.474151
0
LINE
8
0
10
69.1569593
20
10.474151
11
68.9186796
21
10.2700926
0
LINE
8
0
10
68.9186796
20
10.2700926
11
68.6675598
21
10.1003876
0
LINE
8
0
10
68.6675598
20
10.1003876
11
68.1586931
21
9.7621584
0
LINE
8
0
10
68.1586931
20
9.7621584
11
67.9159995
21
9.63808368
0
LINE
8
0
10
67.9159995
20
9.63808368
11
67.331973
21
9.41508995
0
LINE
8
0
10
67.331973
20
9.41508995
11
67.0951233
21
9.33032063
0
LINE
8
0
10
67.0951233
20
9.33032063
11
66.853599
21
9.27912805
0
LINE
8
0
10
66.853599
20
9.27912805
11
66.2390427
21
9.20254588
0
LINE
8
0
10
66.2390427
20
9.20254588
11
66
21
9.18576646
0
LINE
8
0
10
66
20
9.18576646
11
63.7329786
21
9.18576657
0
LINE
8
0
10
63.7329786
20
9.18576657
11
63.1
21
9.18576657
0
LINE
8
0
10
63.1
20
9.18576657
11
63.1
21
10.436537
0
LINE
8
0
10
63.1
20
10.436537
11
63.1
21
15.3267548
0
LINE
8
0
10
63.1
20
15.3267548
11
63.1
21
22.4
0
LINE
8
0
10
63.1
20
22.4
11
63.1048254
21
22.4043428
0
LINE
8
0
10
63.1048254
20
22.4043428
11
63.1194758
21
22.4175341
0
LINE
8
0
10
63.1194758
20
22.4175341
11
63.1439955
21
22.4396111
0
LINE
8
0
10
63.1439955
20
22.4396111
11
63.1781573
21
22.4703723
0
LINE
8
0
10
63.1781573
20
22.4703723
11
63.2213986
21
22.5093088
0
LINE
8
0
10
63.2213986
20
22.5093088
11
63.2728076
21
22.5555948
0
LINE
8
0
10
63.2728076
20
22.5555948
11
63.3947944
21
22.6654415
0
LINE
8
0
10
63.3947944
20
22.6654415
11
63.5305952
21
22.7877102
0
LINE
8
0
10
63.5305952
20
22.7877102
11
63.6209434
21
22.8690601
0
LINE
8
0
10
63.6209434
20
22.8690601
11
63.7597217
21
22.9940126
0
LINE
8
0
10
63.7597217
20
22.9940126
11
63.8869163
21
23.1085452
0
LINE
8
0
10
63.8869163
20
23.1085452
11
63.9416349
21
23.1578126
0
LINE
8
0
10
63.9416349
20
23.1578126
11
63.98849
21
23.2
0
LINE
8
0
10
63.98849
20
23.2
11
64.1837949
21
23.2
0
LINE
8
0
10
64.1837949
20
23.2
11
64.1850695
21
23.2
0
LINE
8
0
10
64.1850695
20
23.2
11
64.1863363
21
23.2
0
LINE
8
0
10
64.1863363
20
23.2
11
64.1875949
21
23.2
0
LINE
8
0
10
64.1875949
20
23.2
11
66.184456
21
23.2
0
LINE
8
0
10
66.184456
20
23.2
11
66.1844539
21
25.94337
0
LINE
8
0
10
66.1844539
20
25.94337
11
66.1844539
21
29.6315516
0
LINE
8
0
10
66.1844539
20
29.6315516
11
66.1888246
21
29.6794348
0
LINE
8
0
10
66.1888246
20
29.6794348
11
66.2014664
21
29.7666124
0
LINE
8
0
10
66.2014664
20
29.7666124
11
66.2022985
21
29.7732184
0
LINE
8
0
10
66.2022985
20
29.7732184
11
66.2537662
21
29.9106814
0
LINE
8
0
10
66.2537662
20
29.9106814
11
66.2546723
21
29.9131014
0
LINE
8
0
10
66.2546723
20
29.9131014
11
66.2990573
21
29.9817096
0
LINE
8
0
10
66.2990573
20
29.9817096
11
66.3371837
21
30.0407478
0
LINE
8
0
10
66.3371837
20
30.0407478
11
66.3383747
21
30.0424391
0
LINE
8
0
10
66.3383747
20
30.0424391
11
66.3401547
21
30.0442579
0
LINE
8
0
10
66.3401547
20
30.0442579
11
66.4466016
21
30.1515695
0
LINE
8
0
10
66.4466016
20
30.1515695
11
66.4532308
21
30.1564193
0
LINE
8
0
10
66.4532308
20
30.1564193
11
66.5707531
21
30.2337003
0
LINE
8
0
10
66.5707531
20
30.2337003
11
66.5764911
21
30.2368918
0
LINE
8
0
10
66.5764911
20
30.2368918
11
66.5828052
21
30.2397289
0
LINE
8
0
10
66.5828052
20
30.2397289
11
66.7026392
21
30.2853959
0
LINE
8
0
10
66.7026392
20
30.2853959
11
66.7109136
21
30.2882757
0
LINE
8
0
10
66.7109136
20
30.2882757
11
66.7196473
21
30.290441
0
LINE
8
0
10
66.7196473
20
30.290441
11
66.7285917
21
30.2917861
0
LINE
8
0
10
66.7285917
20
30.2917861
11
66.8188123
21
30.3054531
0
LINE
8
0
10
66.8188123
20
30.3054531
11
66.8554953
21
30.3073119
0
LINE
8
0
10
66.8554953
20
30.3073119
11
70.6039941
21
30.3073127
0
LINE
8
0
10
70.6039941
20
30.3073127
11
74
21
30.3073127
0
LINE
8
0
10
74
20
30.3073127
11
74
21
29.3371419
0
LINE
8
0
10
74
20
29.3371419
11
74
21
25.719442
0
LINE
8
0
10
74
20
25.719442
11
74
21
22.648375
0
LINE
8
0
10
74
20
22.648375
11
74
21
22.6
0
LINE
8
0
10
74
20
22.6
11
73.7745504
21
22.3713839
0
LINE
8
0
10
73.7745504
20
22.3713839
11
73.68601
21
22.2816
0
LINE
8
0
10
73.68601
20
22.2816
11
73.5142497
21
22.1074215
0
LINE
8
0
10
73.5142497
20
22.1074215
11
73.44949
21
22.04175
0
LINE
8
0
10
73.44949
20
22.04175
11
73.239344
21
21.8286488
0
LINE
8
0
10
73.239344
20
21.8286488
11
73.15509
21
21.74321
0
LINE
8
0
10
73.15509
20
21.74321
11
72.5132183
21
21.0923139
0
LINE
8
0
10
72.5132183
20
21.0923139
11
72.5124735
21
21.0915587
0
LINE
8
0
10
72.5124735
20
21.0915587
11
72.3423976
21
20.9190894
0
LINE
8
0
10
72.3423976
20
20.9190894
11
72.1717283
21
20.7460233
0
LINE
8
0
10
72.1717283
20
20.7460233
11
72
21
20.57188
0
LINE
8
0
10
72
20
20.57188
11
72
21
19.0709812
0
LINE
8
0
10
72
20
19.0709812
11
72
21
18.9195523
0
LINE
8
0
10
72
20
18.9195523
11
72
21
17.7613213
0
LINE
8
0
10
72
20
17.7613213
11
72
21
17.7613213
0
LINE
8
0
10
72
20
-8.13288876
11
72
21
-8.28697502
0
LINE
8
0
10
72
20
-8.28697502
11
72
21
-13.5
0
LINE
8
0
10
72
20
-13.5
11
71.9338201
21
-14.0026609
0
LINE
8
0
10
71.9338201
20
-14.0026609
11
71.91481
21
-14.14705
0
LINE
8
0
10
71.91481
20
-14.14705
11
71.7207917
21
-14.6154518
0
LINE
8
0
10
71.7207917
20
-14.6154518
11
71.66506
21
-14.75
0
LINE
8
0
10
71.66506
20
-14.75
11
71.3564252
21
-15.1522297
0
LINE
8
0
10
71.3564252
20
-15.1522297
11
71.26777
21
-15.26777
0
LINE
8
0
10
71.26777
20
-15.26777
11
70.8655403
21
-15.5764048
0
LINE
8
0
10
70.8655403
20
-15.5764048
11
70.75
21
-15.66506
0
LINE
8
0
10
70.75
20
-15.66506
11
70.2815982
21
-15.8590783
0
LINE
8
0
10
70.2815982
20
-15.8590783
11
70.14705
21
-15.91481
0
LINE
8
0
10
70.14705
20
-15.91481
11
70.0026609
21
-15.9338201
0
LINE
8
0
10
70.0026609
20
-15.9338201
11
69.5
21
-16
0
LINE
8
0
10
69.5
20
-16
11
65.6551737
21
-16
0
LINE
8
0
10
65.6551737
20
-16
11
58.8
21
-16
0
LINE
8
0
10
58.8
20
-16
11
58.7633723
21
-15.9992453
0
LINE
8
0
10
58.7633723
20
-15.9992453
11
58.73836
21
-15.99873
0
LINE
8
0
10
58.73836
20
-15.99873
11
58.7018088
21
-15.9964741
0
LINE
8
0
10
58.7018088
20
-15.9964741
11
58.67679
21
-15.99493
0
LINE
8
0
10
58.67679
20
-15.99493
11
58.6519652
21
-15.9923692
0
LINE
8
0
10
58.6519652
20
-15.9923692
11
58.4620559
21
-15.9576258
0
LINE
8
0
10
58.4620559
20
-15.9576258
11
58.41177
21
-15.94889
0
LINE
8
0
10
58.41177
20
-15.94889
11
58.186469
21
-15.8555673
0
LINE
8
0
10
58.186469
20
-15.8555673
11
58.05
21
-15.79904
0
LINE
8
0
10
58.05
20
-15.79904
11
57.856529
21
-15.6505831
0
LINE
8
0
10
57.856529
20
-15.6505831
11
57.73934
21
-15.56066
0
LINE
8
0
10
57.73934
20
-15.56066
11
57.5908831
21
-15.367189
0
LINE
8
0
10
57.5908831
20
-15.367189
11
57.50096
21
-15.25
0
LINE
8
0
10
57.50096
20
-15.25
11
57.4076373
21
-15.024699
0
LINE
8
0
10
57.4076373
20
-15.024699
11
57.35111
21
-14.88823
0
LINE
8
0
10
57.35111
20
-14.88823
11
57.3394036
21
-14.7993087
0
LINE
8
0
10
57.3394036
20
-14.7993087
11
57.3215234
21
-14.6956485
0
LINE
8
0
10
57.3215234
20
-14.6956485
11
57.3
21
-14.5
0
LINE
8
0
10
57.3
20
-14.5
11
57.3
21
-14.3023303
0
LINE
8
0
10
57.3
20
-14.3023303
11
57.3
21
-14.17729
0
LINE
8
0
10
57.3
20
-14.17729
11
57.3
21
-7.024881
0
LINE
8
0
10
57.3
20
-7.024881
11
57.3
21
-6.96168435
0
LINE
8
0
10
57.3
20
-6.96168435
11
57.3
21
-6.14242337
0
LINE
8
0
10
57.3
20
-6.14242337
11
57.3
21
-6.09732327
0
LINE
8
0
10
57.3
20
-6.09732327
11
57.3
21
-4.96081076
0
LINE
8
0
10
57.3
20
-4.96081076
11
57.3
21
-4.45724798
0
LINE
8
0
10
57.3
20
-4.45724798
11
58.4673167
21
-3.21296541
0
LINE
8
0
10
58.4673167
20
-3.21296541
11
58.5
21
-3.17483502
0
LINE
8
0
10
58.5
20
-3.17483502
11
58.736536
21
-3.17512381
0
LINE
8
0
10
58.736536
20
-3.17512381
11
68.7248849
21
-3.17535585
0
LINE
8
0
10
68.7248849
20
-3.17535585
11
68.7389914
21
-3.17701526
0
LINE
8
0
10
68.7389914
20
-3.17701526
11
69.0177088
21
-3.18245986
0
LINE
8
0
10
69.0177088
20
-3.18245986
11
69.1402837
21
-3.20087434
0
LINE
8
0
10
69.1402837
20
-3.20087434
11
69.322396
21
-3.22830097
0
LINE
8
0
10
69.322396
20
-3.22830097
11
69.4356515
21
-3.25720544
0
LINE
8
0
10
69.4356515
20
-3.25720544
11
69.6317639
21
-3.3074611
0
LINE
8
0
10
69.6317639
20
-3.3074611
11
69.7282192
21
-3.3428395
0
LINE
8
0
10
69.7282192
20
-3.3428395
11
69.9406819
21
-3.42120053
0
LINE
8
0
10
69.9406819
20
-3.42120053
11
70.0141206
21
-3.45701963
0
LINE
8
0
10
70.0141206
20
-3.45701963
11
70.2435785
21
-3.56970818
0
LINE
8
0
10
70.2435785
20
-3.56970818
11
70.2898844
21
-3.59850186
0
LINE
8
0
10
70.2898844
20
-3.59850186
11
70.5347437
21
-3.75201019
0
LINE
8
0
10
70.5347437
20
-3.75201019
11
70.5524379
21
-3.76570916
0
LINE
8
0
10
70.5524379
20
-3.76570916
11
70.7046849
21
-3.88468712
0
LINE
8
0
10
70.7046849
20
-3.88468712
11
70.8082886
21
-3.96281578
0
LINE
8
0
10
70.8082886
20
-3.96281578
11
70.8192112
21
-3.97303241
0
LINE
8
0
10
70.8192112
20
-3.97303241
11
71.0592617
21
-4.19607568
0
LINE
8
0
10
71.0592617
20
-4.19607568
11
71.0976093
21
-4.24013066
0
LINE
8
0
10
71.0976093
20
-4.24013066
11
71.2843502
21
-4.45315512
0
LINE
8
0
10
71.2843502
20
-4.45315512
11
71.3439436
21
-4.53760729
0
LINE
8
0
10
71.3439436
20
-4.53760729
11
71.4803617
21
-4.72948964
0
LINE
8
0
10
71.4803617
20
-4.72948964
11
71.5528654
21
-4.85787788
0
LINE
8
0
10
71.5528654
20
-4.85787788
11
71.6451848
21
-5.02008855
0
LINE
8
0
10
71.6451848
20
-5.02008855
11
71.7020265
21
-5.14779994
0
LINE
8
0
10
71.7020265
20
-5.14779994
11
71.7778003
21
-5.31980761
0
LINE
8
0
10
71.7778003
20
-5.31980761
11
71.8106397
21
-5.41840995
0
LINE
8
0
10
71.8106397
20
-5.41840995
11
71.8782572
21
-5.62360726
0
LINE
8
0
10
71.8782572
20
-5.62360726
11
71.8941848
21
-5.69274991
0
LINE
8
0
10
71.8941848
20
-5.69274991
11
71.9475117
21
-5.92677366
0
LINE
8
0
10
71.9475117
20
-5.92677366
11
71.9530263
21
-5.96771799
0
LINE
8
0
10
71.9530263
20
-5.96771799
11
71.987317
21
-6.22509892
0
LINE
8
0
10
71.987317
20
-6.22509892
11
71.9957238
21
-6.41719167
0
LINE
8
0
10
71.9957238
20
-6.41719167
11
71.9996689
21
-6.50530745
0
LINE
8
0
10
71.9996689
20
-6.50530745
11
72
21
-6.51276664
0
LINE
8
0
10
72
20
-6.51276664
11
72
21
-7.28580977
0
LINE
8
0
10
72
20
-7.28580977
11
72
21
-8.13288876
0
LINE
8
0
10
72
20
-8.13288876
11
72
21
-8.13288876
0
ENDSEC
0
EOF
