0
SECTION
2
ENTITIES
0
LINE
8
0
10
16
20
40.7636766
11
16
21
39.588842
0
LINE
8
0
10
16
20
39.588842
11
16
21
38.878041
0
LINE
8
0
10
16
20
38.878041
11
16
21
38.0814821
0
LINE
8
0
10
16
20
38.0814821
11
16
21
36.4561583
0
LINE
8
0
10
16
20
36.4561583
11
16
21
35.6238122
0
LINE
8
0
10
16
20
35.6238122
11
17.2821607
21
35.6238122
0
LINE
8
0
10
17.2821607
20
35.6238122
11
17.8
21
35.6238122
0
LINE
8
0
10
17.8
20
35.6238122
11
17.8
21
34.1011351
0
LINE
8
0
10
17.8
20
34.1011351
11
17.8
21
31.4051596
0
LINE
8
0
10
17.8
20
31.4051596
11
17.8
21
30.5473403
0
LINE
8
0
10
17.8
20
30.5473403
11
17.7480824
21
29.727284
0
LINE
8
0
10
17.7480824
20
29.727284
11
17.72314
21
29.3333103
0
LINE
8
0
10
17.72314
20
29.3333103
11
17.5693866
21
28.5447721
0
LINE
8
0
10
17.5693866
20
28.5447721
11
17.49552
21
28.1659403
0
LINE
8
0
10
17.49552
20
28.1659403
11
17.2458346
21
27.4392155
0
LINE
8
0
10
17.2458346
20
27.4392155
11
17.12588
21
27.0900803
0
LINE
8
0
10
17.12588
20
27.0900803
11
16.7898611
21
26.4531069
0
LINE
8
0
10
16.7898611
20
26.4531069
11
16.62843
21
26.1470903
0
LINE
8
0
10
16.62843
20
26.1470903
11
16.4319591
21
25.8700681
0
LINE
8
0
10
16.4319591
20
25.8700681
11
16.33757
21
25.7369771
0
LINE
8
0
10
16.33757
20
25.7369771
11
16.1245971
21
25.4912432
0
LINE
8
0
10
16.1245971
20
25.4912432
11
16.02228
21
25.3731903
0
LINE
8
0
10
16.02228
20
25.3731903
11
15.7948517
21
25.1611225
0
LINE
8
0
10
15.7948517
20
25.1611225
11
15.68559
21
25.0592371
0
LINE
8
0
10
15.68559
20
25.0592371
11
15.4458882
21
24.8828618
0
LINE
8
0
10
15.4458882
20
24.8828618
11
15.33073
21
24.7981303
0
LINE
8
0
10
15.33073
20
24.7981303
11
15.0810783
21
24.6591633
0
LINE
8
0
10
15.0810783
20
24.6591633
11
14.96114
21
24.5924003
0
LINE
8
0
10
14.96114
20
24.5924003
11
14.7039297
21
24.4921722
0
LINE
8
0
10
14.7039297
20
24.4921722
11
14.58036
21
24.4440171
0
LINE
8
0
10
14.58036
20
24.4440171
11
14.3180768
21
24.3834871
0
LINE
8
0
10
14.3180768
20
24.3834871
11
14.19207
21
24.3544103
0
LINE
8
0
10
14.19207
20
24.3544103
11
13.9272335
21
24.3341661
0
LINE
8
0
10
13.9272335
20
24.3341661
11
13.8
21
24.3244403
0
LINE
8
0
10
13.8
20
24.3244403
11
6.09949703
21
24.3244403
0
LINE
8
0
10
6.09949703
20
24.3244403
11
2.4
21
24.3244384
0
LINE
8
0
10
2.4
20
24.3244384
11
2.4
21
26.8354892
0
LINE
8
0
10
2.4
20
26.8354892
11
2.4
21
28.142923
0
LINE
8
0
10
2.4
20
28.142923
11
2.4
21
29.7201493
0
LINE
8
0
10
2.4
20
29.7201493
11
2.4
21
39.2124915
0
LINE
8
0
10
2.4
20
39.2124915
11
2.4
21
39.9114909
0
LINE
8
0
10
2.4
20
39.9114909
11
2.4
21
40.888343
0
LINE
8
0
10
2.4
20
40.888343
11
2.4
21
41.0151221
0
LINE
8
0
10
2.4
20
41.0151221
11
2.4
21
41.2131131
0
LINE
8
0
10
2.4
20
41.2131131
11
6.12824636
21
41.2131131
0
LINE
8
0
10
6.12824636
20
41.2131131
11
16
21
41.2131131
0
LINE
8
0
10
16
20
41.2131131
11
16
21
40.9522047
0
LINE
8
0
10
16
20
40.9522047
11
16
21
40.8804475
0
LINE
8
0
10
16
20
40.8804475
11
16
21
40.7636766
0
LINE
8
0
10
16
20
40.7636766
11
16
21
40.7636766
0
LINE
8
0
10
71.175681
20
30.1895308
11
74
21
30.1895308
0
LINE
8
0
10
74
20
30.1895308
11
74
21
29.3826795
0
LINE
8
0
10
74
20
29.3826795
11
74
21
25.1943121
0
LINE
8
0
10
74
20
25.1943121
11
74
21
22.6402315
0
LINE
8
0
10
74
20
22.6402315
11
74
21
22.6
0
LINE
8
0
10
74
20
22.6
11
73.7670204
21
22.3637482
0
LINE
8
0
10
73.7670204
20
22.3637482
11
73.68601
21
22.2816
0
LINE
8
0
10
73.68601
20
22.2816
11
73.5094464
21
22.1025505
0
LINE
8
0
10
73.5094464
20
22.1025505
11
73.44949
21
22.04175
0
LINE
8
0
10
73.44949
20
22.04175
11
73.2337374
21
21.8229634
0
LINE
8
0
10
73.2337374
20
21.8229634
11
73.15509
21
21.74321
0
LINE
8
0
10
73.15509
20
21.74321
11
72.5559307
21
21.1356268
0
LINE
8
0
10
72.5559307
20
21.1356268
11
72.5552355
21
21.1349218
0
LINE
8
0
10
72.5552355
20
21.1349218
11
72.370968
21
20.9480614
0
LINE
8
0
10
72.370968
20
20.9480614
11
72.1860577
21
20.7605542
0
LINE
8
0
10
72.1860577
20
20.7605542
11
72
21
20.57188
0
LINE
8
0
10
72
20
20.57188
11
72
21
18.9457428
0
LINE
8
0
10
72
20
18.9457428
11
72
21
18.7816782
0
LINE
8
0
10
72
20
18.7816782
11
72
21
17.5268018
0
LINE
8
0
10
72
20
17.5268018
11
72
21
17.5243554
0
LINE
8
0
10
72
20
17.5243554
11
71.980608
21
16.9649569
0
LINE
8
0
10
71.980608
20
16.9649569
11
71.9482518
21
16.4475381
0
LINE
8
0
10
71.9482518
20
16.4475381
11
71.8932341
21
15.9188481
0
LINE
8
0
10
71.8932341
20
15.9188481
11
71.8022391
21
15.4004055
0
LINE
8
0
10
71.8022391
20
15.4004055
11
71.6998926
21
14.8582891
0
LINE
8
0
10
71.6998926
20
14.8582891
11
71.5807838
21
14.383018
0
LINE
8
0
10
71.5807838
20
14.383018
11
71.3901762
21
13.801124
0
LINE
8
0
10
71.3901762
20
13.801124
11
71.2491054
21
13.3751727
0
LINE
8
0
10
71.2491054
20
13.3751727
11
71.0795125
21
12.971022
0
LINE
8
0
10
71.0795125
20
12.971022
11
70.7985724
21
12.3998925
0
LINE
8
0
10
70.7985724
20
12.3998925
11
70.6173861
21
12.0508984
0
LINE
8
0
10
70.6173861
20
12.0508984
11
70.4131364
21
11.7289605
0
LINE
8
0
10
70.4131364
20
11.7289605
11
70.0381812
21
11.1951395
0
LINE
8
0
10
70.0381812
20
11.1951395
11
69.8325805
21
10.9289105
0
LINE
8
0
10
69.8325805
20
10.9289105
11
69.6097159
21
10.6927599
0
LINE
8
0
10
69.6097159
20
10.6927599
11
69.1423209
21
10.2266236
0
LINE
8
0
10
69.1423209
20
10.2266236
11
68.9262637
21
10.0415961
0
LINE
8
0
10
68.9262637
20
10.0415961
11
68.6985639
21
9.88771821
0
LINE
8
0
10
68.6985639
20
9.88771821
11
68.1472917
21
9.52130327
0
LINE
8
0
10
68.1472917
20
9.52130327
11
67.9305619
21
9.41050232
0
LINE
8
0
10
67.9305619
20
9.41050232
11
67.2978666
21
9.16892578
0
LINE
8
0
10
67.2978666
20
9.16892578
11
67.0888644
21
9.09412319
0
LINE
8
0
10
67.0888644
20
9.09412319
11
66.8757372
21
9.04894955
0
LINE
8
0
10
66.8757372
20
9.04894955
11
66.2099679
21
8.96598554
0
LINE
8
0
10
66.2099679
20
8.96598554
11
66
21
8.951247
0
LINE
8
0
10
66
20
8.951247
11
63.5440602
21
8.95124712
0
LINE
8
0
10
63.5440602
20
8.95124712
11
63.1
21
8.95124712
0
LINE
8
0
10
63.1
20
8.95124712
11
63.1
21
10.3062484
0
LINE
8
0
10
63.1
20
10.3062484
11
63.1
21
13.7369346
0
LINE
8
0
10
63.1
20
13.7369346
11
63.1
21
22.4
0
LINE
8
0
10
63.1
20
22.4
11
63.1045643
21
22.4041078
0
LINE
8
0
10
63.1045643
20
22.4041078
11
63.118422
21
22.4165853
0
LINE
8
0
10
63.118422
20
22.4165853
11
63.1416148
21
22.4374676
0
LINE
8
0
10
63.1416148
20
22.4374676
11
63.173928
21
22.4665643
0
LINE
8
0
10
63.173928
20
22.4665643
11
63.2148294
21
22.5033938
0
LINE
8
0
10
63.2148294
20
22.5033938
11
63.2634565
21
22.5471752
0
LINE
8
0
10
63.2634565
20
22.5471752
11
63.3788424
21
22.6510779
0
LINE
8
0
10
63.3788424
20
22.6510779
11
63.5072947
21
22.7667303
0
LINE
8
0
10
63.5072947
20
22.7667303
11
63.6373894
21
22.8838681
0
LINE
8
0
10
63.6373894
20
22.8838681
11
63.7699579
21
23.0032295
0
LINE
8
0
10
63.7699579
20
23.0032295
11
63.8914613
21
23.1126374
0
LINE
8
0
10
63.8914613
20
23.1126374
11
63.9437314
21
23.1597003
0
LINE
8
0
10
63.9437314
20
23.1597003
11
63.98849
21
23.2
0
LINE
8
0
10
63.98849
20
23.2
11
64.2472362
21
23.2
0
LINE
8
0
10
64.2472362
20
23.2
11
64.2483979
21
23.2
0
LINE
8
0
10
64.2483979
20
23.2
11
64.2495524
21
23.2
0
LINE
8
0
10
64.2495524
20
23.2
11
64.2506995
21
23.2
0
LINE
8
0
10
64.2506995
20
23.2
11
66.0706792
21
23.2
0
LINE
8
0
10
66.0706792
20
23.2
11
66.0706769
21
26.2291359
0
LINE
8
0
10
66.0706769
20
26.2291359
11
66.0706769
21
29.5137702
0
LINE
8
0
10
66.0706769
20
29.5137702
11
66.0745693
21
29.5564142
0
LINE
8
0
10
66.0745693
20
29.5564142
11
66.085828
21
29.6340531
0
LINE
8
0
10
66.085828
20
29.6340531
11
66.0885214
21
29.6554369
0
LINE
8
0
10
66.0885214
20
29.6554369
11
66.1344991
21
29.7782366
0
LINE
8
0
10
66.1344991
20
29.7782366
11
66.1408952
21
29.79532
0
LINE
8
0
10
66.1408952
20
29.79532
11
66.2169513
21
29.9128838
0
LINE
8
0
10
66.2169513
20
29.9128838
11
66.2244573
21
29.9244863
0
LINE
8
0
10
66.2244573
20
29.9244863
11
66.3277103
21
30.0284656
0
LINE
8
0
10
66.3277103
20
30.0284656
11
66.3338676
21
30.0346663
0
LINE
8
0
10
66.3338676
20
30.0346663
11
66.459074
21
30.1168075
0
LINE
8
0
10
66.459074
20
30.1168075
11
66.4621311
21
30.1188131
0
LINE
8
0
10
66.4621311
20
30.1188131
11
66.575948
21
30.1620387
0
LINE
8
0
10
66.575948
20
30.1620387
11
66.6004573
21
30.1713789
0
LINE
8
0
10
66.6004573
20
30.1713789
11
66.6008512
21
30.171516
0
LINE
8
0
10
66.6008512
20
30.171516
11
66.601267
21
30.1716191
0
LINE
8
0
10
66.601267
20
30.1716191
11
66.6016928
21
30.1716831
0
LINE
8
0
10
66.6016928
20
30.1716831
11
66.7083406
21
30.1878385
0
LINE
8
0
10
66.7083406
20
30.1878385
11
66.7417185
21
30.1895299
0
LINE
8
0
10
66.7417185
20
30.1895299
11
71.175681
21
30.1895308
0
LINE
8
0
10
71.175681
20
30.1895308
11
71.175681
21
30.1895308
0
LINE
8
0
10
35.2
20
4.95654083
11
35.2
21
8.48750478
0
LINE
8
0
10
35.2
20
8.48750478
11
35.2
21
10
0
LINE
8
0
10
35.2
20
10
11
32.0956358
21
10
0
LINE
8
0
10
32.0956358
20
10
11
30.2
21
10
0
LINE
8
0
10
30.2
20
10
11
30.2
21
11.0635454
0
LINE
8
0
10
30.2
20
11.0635454
11
30.2
21
11.53281
0
LINE
8
0
10
30.2
20
11.53281
11
30.2
21
11.6368498
0
LINE
8
0
10
30.2
20
11.6368498
11
30.2
21
11.69043
0
LINE
8
0
10
30.2
20
11.69043
11
30.2
21
11.8264774
0
LINE
8
0
10
30.2
20
11.8264774
11
30.2
21
11.89597
0
LINE
8
0
10
30.2
20
11.89597
11
30.2
21
12.0547272
0
LINE
8
0
10
30.2
20
12.0547272
11
30.2
21
12.13557
0
LINE
8
0
10
30.2
20
12.13557
11
30.2
21
12.3060099
0
LINE
8
0
10
30.2
20
12.3060099
11
30.2
21
12.39302
0
LINE
8
0
10
30.2
20
12.39302
11
30.2
21
12.5633091
0
LINE
8
0
10
30.2
20
12.5633091
11
30.2
21
12.65094
0
LINE
8
0
10
30.2
20
12.65094
11
30.2
21
14.2101452
0
LINE
8
0
10
30.2
20
14.2101452
11
30.2
21
15
0
LINE
8
0
10
30.2
20
15
11
28.8754827
21
15
0
LINE
8
0
10
28.8754827
20
15
11
28.2
21
15
0
LINE
8
0
10
28.2
20
15
11
28.2
21
10.2751963
0
LINE
8
0
10
28.2
20
10.2751963
11
28.2
21
9.42148585
0
LINE
8
0
10
28.2
20
9.42148585
11
28.2
21
9.33328376
0
LINE
8
0
10
28.2
20
9.33328376
11
28.2
21
8.72644912
0
LINE
8
0
10
28.2
20
8.72644912
11
28.2
21
4.95654083
0
LINE
8
0
10
28.2
20
4.95654083
11
28.7487758
21
4.17219797
0
LINE
8
0
10
28.7487758
20
4.17219797
11
29.4
21
3.24142964
0
LINE
8
0
10
29.4
20
3.24142964
11
32.3572262
21
3.24142964
0
LINE
8
0
10
32.3572262
20
3.24142964
11
34
21
3.24142964
0
LINE
8
0
10
34
20
3.24142964
11
34.6512242
21
4.17219797
0
LINE
8
0
10
34.6512242
20
4.17219797
11
35.2
21
4.95654083
0
LINE
8
0
10
35.2
20
4.95654083
11
35.2
21
4.95654083
0
LINE
8
0
10
35.2
20
-10.0724071
11
35.2
21
-10.5224297
0
LINE
8
0
10
35.2
20
-10.5224297
11
35.2
21
-11.0696448
0
LINE
8
0
10
35.2
20
-11.0696448
11
35.2
21
-11.3768879
0
LINE
8
0
10
35.2
20
-11.3768879
11
35.2
21
-13.5
0
LINE
8
0
10
35.2
20
-13.5
11
35.1954375
21
-13.5928561
0
LINE
8
0
10
35.1954375
20
-13.5928561
11
35.1538869
21
-13.8502463
0
LINE
8
0
10
35.1538869
20
-13.8502463
11
35.11481
21
-14.14705
0
LINE
8
0
10
35.11481
20
-14.14705
11
35.0652525
21
-14.2666924
0
LINE
8
0
10
35.0652525
20
-14.2666924
11
34.86506
21
-14.75
0
LINE
8
0
10
34.86506
20
-14.75
11
34.7862264
21
-14.8527403
0
LINE
8
0
10
34.7862264
20
-14.8527403
11
34.46777
21
-15.26777
0
LINE
8
0
10
34.46777
20
-15.26777
11
34.3650297
21
-15.3466036
0
LINE
8
0
10
34.3650297
20
-15.3466036
11
33.95
21
-15.66506
0
LINE
8
0
10
33.95
20
-15.66506
11
33.8303576
21
-15.7146175
0
LINE
8
0
10
33.8303576
20
-15.7146175
11
33.34705
21
-15.91481
0
LINE
8
0
10
33.34705
20
-15.91481
11
33.2828535
21
-15.9232621
0
LINE
8
0
10
33.2828535
20
-15.9232621
11
32.9977837
21
-15.9706692
0
LINE
8
0
10
32.9977837
20
-15.9706692
11
32.7
21
-16
0
LINE
8
0
10
32.7
20
-16
11
31.8162428
21
-16
0
LINE
8
0
10
31.8162428
20
-16
11
30.7
21
-16
0
LINE
8
0
10
30.7
20
-16
11
30.5130077
21
-15.9815818
0
LINE
8
0
10
30.5130077
20
-15.9815818
11
30.2139338
21
-15.936005
0
LINE
8
0
10
30.2139338
20
-15.936005
11
30.0942676
21
-15.9244444
0
LINE
8
0
10
30.0942676
20
-15.9244444
11
29.9692333
21
-15.8863935
0
LINE
8
0
10
29.9692333
20
-15.8863935
11
29.5292911
21
-15.7041635
0
LINE
8
0
10
29.5292911
20
-15.7041635
11
29.4109103
21
-15.6407531
0
LINE
8
0
10
29.4109103
20
-15.6407531
11
29.0388214
21
-15.3552457
0
LINE
8
0
10
29.0388214
20
-15.3552457
11
28.93223
21
-15.26777
0
LINE
8
0
10
28.93223
20
-15.26777
11
28.8386729
21
-15.1537682
0
LINE
8
0
10
28.8386729
20
-15.1537682
11
28.5609368
21
-14.7918073
0
LINE
8
0
10
28.5609368
20
-14.7918073
11
28.4903768
21
-14.659638
0
LINE
8
0
10
28.4903768
20
-14.659638
11
28.3175741
21
-14.2424555
0
LINE
8
0
10
28.3175741
20
-14.2424555
11
28.2735736
21
-14.0972325
0
LINE
8
0
10
28.2735736
20
-14.0972325
11
28.2622303
21
-14.0208705
0
LINE
8
0
10
28.2622303
20
-14.0208705
11
28.21204
21
-13.74504
0
LINE
8
0
10
28.21204
20
-13.74504
11
28.2079069
21
-13.6609223
0
LINE
8
0
10
28.2079069
20
-13.6609223
11
28.2
21
-13.5
0
LINE
8
0
10
28.2
20
-13.5
11
28.2
21
-11.5799542
0
LINE
8
0
10
28.2
20
-11.5799542
11
28.2
21
-11.2288197
0
LINE
8
0
10
28.2
20
-11.2288197
11
28.2
21
-10.6007579
0
LINE
8
0
10
28.2
20
-10.6007579
11
28.2
21
-10.0724071
0
LINE
8
0
10
28.2
20
-10.0724071
11
28.9977746
21
-9.22203242
0
LINE
8
0
10
28.9977746
20
-9.22203242
11
29.4
21
-8.75277133
0
LINE
8
0
10
29.4
20
-8.75277133
11
30.5755021
21
-8.75277133
0
LINE
8
0
10
30.5755021
20
-8.75277133
11
34
21
-8.75277133
0
LINE
8
0
10
34
20
-8.75277133
11
34.4022254
21
-9.22203242
0
LINE
8
0
10
34.4022254
20
-9.22203242
11
35.2
21
-10.0724071
0
LINE
8
0
10
35.2
20
-10.0724071
11
35.2
21
-10.0724071
0
LINE
8
0
10
72
20
-6.65588505
11
72
21
-6.45728751
0
LINE
8
0
10
72
20
-6.45728751
11
71.9969144
21
-6.38754511
0
LINE
8
0
10
71.9969144
20
-6.38754511
11
71.987219
21
-6.16600806
0
LINE
8
0
10
71.987219
20
-6.16600806
11
71.961844
21
-5.97554724
0
LINE
8
0
10
71.961844
20
-5.97554724
11
71.9470958
21
-5.86604772
0
LINE
8
0
10
71.9470958
20
-5.86604772
11
71.9097024
21
-5.70194754
0
LINE
8
0
10
71.9097024
20
-5.70194754
11
71.8772588
21
-5.56110766
0
LINE
8
0
10
71.8772588
20
-5.56110766
11
71.8334359
21
-5.42811924
0
LINE
8
0
10
71.8334359
20
-5.42811924
11
71.7759139
21
-5.25540623
0
LINE
8
0
10
71.7759139
20
-5.25540623
11
71.73255
21
-5.15696939
0
LINE
8
0
10
71.73255
20
-5.15696939
11
71.6420689
21
-4.95367725
0
LINE
8
0
10
71.6420689
20
-4.95367725
11
71.4951139
21
-4.69546884
0
LINE
8
0
10
71.4951139
20
-4.69546884
11
71.4756426
21
-4.66098943
0
LINE
8
0
10
71.4756426
20
-4.66098943
11
71.3143452
21
-4.43411252
0
LINE
8
0
10
71.3143452
20
-4.43411252
11
71.2820717
21
-4.38713863
0
LINE
8
0
10
71.2820717
20
-4.38713863
11
71.2774823
21
-4.3805384
0
LINE
8
0
10
71.2774823
20
-4.3805384
11
71.0818836
21
-4.14956165
0
LINE
8
0
10
71.0818836
20
-4.14956165
11
71.0489202
21
-4.11106967
0
LINE
8
0
10
71.0489202
20
-4.11106967
11
70.8606828
21
-3.92992975
0
LINE
8
0
10
70.8606828
20
-3.92992975
11
70.7935607
21
-3.86600273
0
LINE
8
0
10
70.7935607
20
-3.86600273
11
70.6202321
21
-3.73054992
0
LINE
8
0
10
70.6202321
20
-3.73054992
11
70.5155998
21
-3.64954302
0
LINE
8
0
10
70.5155998
20
-3.64954302
11
70.3625388
21
-3.55358527
0
LINE
8
0
10
70.3625388
20
-3.55358527
11
70.2200665
21
-3.46499385
0
LINE
8
0
10
70.2200665
20
-3.46499385
11
70.0899488
21
-3.40109204
0
LINE
8
0
10
70.0899488
20
-3.40109204
11
69.9125589
21
-3.31457169
0
LINE
8
0
10
69.9125589
20
-3.31457169
11
69.8052507
21
-3.27499402
0
LINE
8
0
10
69.8052507
20
-3.27499402
11
69.5989139
21
-3.19931263
0
LINE
8
0
10
69.5989139
20
-3.19931263
11
69.5117456
21
-3.17697494
0
LINE
8
0
10
69.5117456
20
-3.17697494
11
69.2848423
21
-3.11906588
0
LINE
8
0
10
69.2848423
20
-3.11906588
11
69.2132752
21
-3.10828767
0
LINE
8
0
10
69.2132752
20
-3.10828767
11
68.9756179
21
-3.07258433
0
LINE
8
0
10
68.9756179
20
-3.07258433
11
68.8756552
21
-3.0706316
0
LINE
8
0
10
68.8756552
20
-3.0706316
11
68.6720128
21
-3.04667611
0
LINE
8
0
10
68.6720128
20
-3.04667611
11
61.4109893
21
-3.04650744
0
LINE
8
0
10
61.4109893
20
-3.04650744
11
58.5
21
-3.04295333
0
LINE
8
0
10
58.5
20
-3.04295333
11
58.0977746
21
-3.51221442
0
LINE
8
0
10
58.0977746
20
-3.51221442
11
57.3
21
-4.36258952
0
LINE
8
0
10
57.3
20
-4.36258952
11
57.3
21
-5.16521727
0
LINE
8
0
10
57.3
20
-5.16521727
11
57.3
21
-6.27452456
0
LINE
8
0
10
57.3
20
-6.27452456
11
57.3
21
-6.32627838
0
LINE
8
0
10
57.3
20
-6.32627838
11
57.3
21
-7.12597621
0
LINE
8
0
10
57.3
20
-7.12597621
11
57.3
21
-7.19443925
0
LINE
8
0
10
57.3
20
-7.19443925
11
57.3
21
-14.17729
0
LINE
8
0
10
57.3
20
-14.17729
11
57.3
21
-14.299366
0
LINE
8
0
10
57.3
20
-14.299366
11
57.3
21
-14.5
0
LINE
8
0
10
57.3
20
-14.5
11
57.3218462
21
-14.6985825
0
LINE
8
0
10
57.3218462
20
-14.6985825
11
57.3399945
21
-14.8037971
0
LINE
8
0
10
57.3399945
20
-14.8037971
11
57.35111
21
-14.88823
0
LINE
8
0
10
57.35111
20
-14.88823
11
57.4123479
21
-15.0360714
0
LINE
8
0
10
57.4123479
20
-15.0360714
11
57.50096
21
-15.25
0
LINE
8
0
10
57.50096
20
-15.25
11
57.5983767
21
-15.3769547
0
LINE
8
0
10
57.5983767
20
-15.3769547
11
57.73934
21
-15.56066
0
LINE
8
0
10
57.73934
20
-15.56066
11
57.8662947
21
-15.6580767
0
LINE
8
0
10
57.8662947
20
-15.6580767
11
58.05
21
-15.79904
0
LINE
8
0
10
58.05
20
-15.79904
11
58.1978414
21
-15.8602779
0
LINE
8
0
10
58.1978414
20
-15.8602779
11
58.41177
21
-15.94889
0
LINE
8
0
10
58.41177
20
-15.94889
11
58.4662464
21
-15.9583538
0
LINE
8
0
10
58.4662464
20
-15.9583538
11
58.6524497
21
-15.9924191
0
LINE
8
0
10
58.6524497
20
-15.9924191
11
58.67679
21
-15.99493
0
LINE
8
0
10
58.67679
20
-15.99493
11
58.7013206
21
-15.996444
0
LINE
8
0
10
58.7013206
20
-15.996444
11
58.73836
21
-15.99873
0
LINE
8
0
10
58.73836
20
-15.99873
11
58.7628806
21
-15.9992352
0
LINE
8
0
10
58.7628806
20
-15.9992352
11
58.8
21
-16
0
LINE
8
0
10
58.8
20
-16
11
65.747209
21
-16
0
LINE
8
0
10
65.747209
20
-16
11
69.5
21
-16
0
LINE
8
0
10
69.5
20
-16
11
69.9906285
21
-15.9354043
0
LINE
8
0
10
69.9906285
20
-15.9354043
11
70.14705
21
-15.91481
0
LINE
8
0
10
70.14705
20
-15.91481
11
70.2928106
21
-15.854434
0
LINE
8
0
10
70.2928106
20
-15.854434
11
70.75
21
-15.66506
0
LINE
8
0
10
70.75
20
-15.66506
11
70.8751687
21
-15.5690169
0
LINE
8
0
10
70.8751687
20
-15.5690169
11
71.26777
21
-15.26777
0
LINE
8
0
10
71.26777
20
-15.26777
11
71.3638131
21
-15.1426013
0
LINE
8
0
10
71.3638131
20
-15.1426013
11
71.66506
21
-14.75
0
LINE
8
0
10
71.66506
20
-14.75
11
71.725436
21
-14.6042394
0
LINE
8
0
10
71.725436
20
-14.6042394
11
71.91481
21
-14.14705
0
LINE
8
0
10
71.91481
20
-14.14705
11
71.9354043
21
-13.9906285
0
LINE
8
0
10
71.9354043
20
-13.9906285
11
72
21
-13.5
0
LINE
8
0
10
72
20
-13.5
11
72
21
-8.41176161
0
LINE
8
0
10
72
20
-8.41176161
11
72
21
-8.26136378
0
LINE
8
0
10
72
20
-8.26136378
11
72
21
-7.43456171
0
LINE
8
0
10
72
20
-7.43456171
11
72
21
-6.65588505
0
LINE
8
0
10
72
20
-6.65588505
11
72
21
-6.65588505
0
ENDSEC
0
EOF
