0
SECTION
2
ENTITIES
0
LINE
8
0
10
16
20
38.513344
11
16
21
39.3764023
0
LINE
8
0
10
16
20
39.3764023
11
16
21
40.4552215
0
LINE
8
0
10
16
20
40.4552215
11
16
21
40.7011035
0
LINE
8
0
10
16
20
40.7011035
11
16
21
40.8522013
0
LINE
8
0
10
16
20
40.8522013
11
16
21
41.4015906
0
LINE
8
0
10
16
20
41.4015906
11
10.2504901
21
41.4015906
0
LINE
8
0
10
10.2504901
20
41.4015906
11
2.4
21
41.4015906
0
LINE
8
0
10
2.4
20
41.4015906
11
2.4
21
40.984685
0
LINE
8
0
10
2.4
20
40.984685
11
2.4
21
40.7177289
0
LINE
8
0
10
2.4
20
40.7177289
11
2.4
21
39.7681643
0
LINE
8
0
10
2.4
20
39.7681643
11
2.4
21
39.0886907
0
LINE
8
0
10
2.4
20
39.0886907
11
2.4
21
29.8615077
0
LINE
8
0
10
2.4
20
29.8615077
11
2.4
21
28.1629563
0
LINE
8
0
10
2.4
20
28.1629563
11
2.4
21
26.7549506
0
LINE
8
0
10
2.4
20
26.7549506
11
2.4
21
24.0507421
0
LINE
8
0
10
2.4
20
24.0507421
11
6.38407372
21
24.0507442
0
LINE
8
0
10
6.38407372
20
24.0507442
11
13.8
21
24.0507442
0
LINE
8
0
10
13.8
20
24.0507442
11
13.9370207
21
24.0612181
0
LINE
8
0
10
13.9370207
20
24.0612181
11
14.19207
21
24.0807142
0
LINE
8
0
10
14.19207
20
24.0807142
11
14.3277696
21
24.1120276
0
LINE
8
0
10
14.3277696
20
24.1120276
11
14.58036
21
24.1703207
0
LINE
8
0
10
14.58036
20
24.1703207
11
14.7134351
21
24.2221801
0
LINE
8
0
10
14.7134351
20
24.2221801
11
14.96114
21
24.3187042
0
LINE
8
0
10
14.96114
20
24.3187042
11
15.0903044
21
24.3906027
0
LINE
8
0
10
15.0903044
20
24.3906027
11
15.33073
21
24.5244342
0
LINE
8
0
10
15.33073
20
24.5244342
11
15.4547465
21
24.6156835
0
LINE
8
0
10
15.4547465
20
24.6156835
11
15.68559
21
24.7855407
0
LINE
8
0
10
15.68559
20
24.7855407
11
15.8032565
21
24.8952635
0
LINE
8
0
10
15.8032565
20
24.8952635
11
16.02228
21
25.0994942
0
LINE
8
0
10
16.02228
20
25.0994942
11
16.1324676
21
25.2266281
0
LINE
8
0
10
16.1324676
20
25.2266281
11
16.33757
21
25.4632807
0
LINE
8
0
10
16.33757
20
25.4632807
11
16.4392198
21
25.6066095
0
LINE
8
0
10
16.4392198
20
25.6066095
11
16.62843
21
25.8733942
0
LINE
8
0
10
16.62843
20
25.8733942
11
16.8022789
21
26.2029505
0
LINE
8
0
10
16.8022789
20
26.2029505
11
17.12588
21
26.8163842
0
LINE
8
0
10
17.12588
20
26.8163842
11
17.2550618
21
27.1923759
0
LINE
8
0
10
17.2550618
20
27.1923759
11
17.49552
21
27.8922442
0
LINE
8
0
10
17.49552
20
27.8922442
11
17.5750687
21
28.3002168
0
LINE
8
0
10
17.5750687
20
28.3002168
11
17.72314
21
29.0596142
0
LINE
8
0
10
17.72314
20
29.0596142
11
17.750001
21
29.4838936
0
LINE
8
0
10
17.750001
20
29.4838936
11
17.8
21
30.2736442
0
LINE
8
0
10
17.8
20
30.2736442
11
17.8
21
31.1974495
0
LINE
8
0
10
17.8
20
31.1974495
11
17.8
21
33.7937937
0
LINE
8
0
10
17.8
20
33.7937937
11
17.8
21
35.6881608
0
LINE
8
0
10
17.8
20
35.6881608
11
17.5951399
21
35.6881608
0
LINE
8
0
10
17.5951399
20
35.6881608
11
16
21
35.6881608
0
LINE
8
0
10
16
20
35.6881608
11
16
21
36.0174415
0
LINE
8
0
10
16
20
36.0174415
11
16
21
37.8284614
0
LINE
8
0
10
16
20
37.8284614
11
16
21
38.513344
0
LINE
8
0
10
16
20
38.513344
11
16
21
38.513344
0
LINE
8
0
10
69.1276825
20
9.97909622
11
68.9338478
21
9.8130997
0
LINE
8
0
10
68.9338478
20
9.8130997
11
68.729568
21
9.67504885
0
LINE
8
0
10
68.729568
20
9.67504885
11
68.1358903
21
9.28044814
0
LINE
8
0
10
68.1358903
20
9.28044814
11
67.9451244
21
9.18292096
0
LINE
8
0
10
67.9451244
20
9.18292096
11
67.2637602
21
8.92276161
0
LINE
8
0
10
67.2637602
20
8.92276161
11
67.0826055
21
8.85792574
0
LINE
8
0
10
67.0826055
20
8.85792574
11
66.8978755
21
8.81877105
0
LINE
8
0
10
66.8978755
20
8.81877105
11
66.1808931
21
8.72942519
0
LINE
8
0
10
66.1808931
20
8.72942519
11
66
21
8.71672754
0
LINE
8
0
10
66
20
8.71672754
11
63.3551417
21
8.71672767
0
LINE
8
0
10
63.3551417
20
8.71672767
11
63.1
21
8.71672767
0
LINE
8
0
10
63.1
20
8.71672767
11
63.1
21
10.1759598
0
LINE
8
0
10
63.1
20
10.1759598
11
63.1
21
12.1471143
0
LINE
8
0
10
63.1
20
12.1471143
11
63.1
21
22.4
0
LINE
8
0
10
63.1
20
22.4
11
63.1043031
21
22.4038728
0
LINE
8
0
10
63.1043031
20
22.4038728
11
63.1173681
21
22.4156364
0
LINE
8
0
10
63.1173681
20
22.4156364
11
63.1392341
21
22.4353242
0
LINE
8
0
10
63.1392341
20
22.4353242
11
63.1696987
21
22.4627562
0
LINE
8
0
10
63.1696987
20
22.4627562
11
63.2082603
21
22.4974789
0
LINE
8
0
10
63.2082603
20
22.4974789
11
63.2541055
21
22.5387556
0
LINE
8
0
10
63.2541055
20
22.5387556
11
63.3628903
21
22.6367142
0
LINE
8
0
10
63.3628903
20
22.6367142
11
63.4839941
21
22.7457504
0
LINE
8
0
10
63.4839941
20
22.7457504
11
63.6538353
21
22.898676
0
LINE
8
0
10
63.6538353
20
22.898676
11
63.7801942
21
23.0124465
0
LINE
8
0
10
63.7801942
20
23.0124465
11
63.8960062
21
23.1167295
0
LINE
8
0
10
63.8960062
20
23.1167295
11
63.9458279
21
23.161588
0
LINE
8
0
10
63.9458279
20
23.161588
11
63.98849
21
23.2
0
LINE
8
0
10
63.98849
20
23.2
11
64.3106774
21
23.2
0
LINE
8
0
10
64.3106774
20
23.2
11
64.3117263
21
23.2
0
LINE
8
0
10
64.3117263
20
23.2
11
64.3127686
21
23.2
0
LINE
8
0
10
64.3127686
20
23.2
11
64.3138042
21
23.2
0
LINE
8
0
10
64.3138042
20
23.2
11
65.9569024
21
23.2
0
LINE
8
0
10
65.9569024
20
23.2
11
65.9568999
21
26.5149019
0
LINE
8
0
10
65.9568999
20
26.5149019
11
65.9568999
21
29.3959888
0
LINE
8
0
10
65.9568999
20
29.3959888
11
65.9603141
21
29.4333936
0
LINE
8
0
10
65.9603141
20
29.4333936
11
65.9701895
21
29.5014939
0
LINE
8
0
10
65.9701895
20
29.5014939
11
65.9747444
21
29.5376554
0
LINE
8
0
10
65.9747444
20
29.5376554
11
66.0152319
21
29.6457919
0
LINE
8
0
10
66.0152319
20
29.6457919
11
66.0271182
21
29.6775385
0
LINE
8
0
10
66.0271182
20
29.6775385
11
66.0943884
21
29.7815215
0
LINE
8
0
10
66.0943884
20
29.7815215
11
66.1106803
21
29.8067048
0
LINE
8
0
10
66.1106803
20
29.8067048
11
66.2024189
21
29.8990888
0
LINE
8
0
10
66.2024189
20
29.8990888
11
66.2200905
21
29.9168848
0
LINE
8
0
10
66.2200905
20
29.9168848
11
66.3318149
21
29.9901812
0
LINE
8
0
10
66.3318149
20
29.9901812
11
66.348354
21
30.0010316
0
LINE
8
0
10
66.348354
20
30.0010316
11
66.4734344
21
30.0485349
0
LINE
8
0
10
66.4734344
20
30.0485349
11
66.4872598
21
30.0537846
0
LINE
8
0
10
66.4872598
20
30.0537846
11
66.5005594
21
30.0554832
0
LINE
8
0
10
66.5005594
20
30.0554832
11
66.5978688
21
30.070224
0
LINE
8
0
10
66.5978688
20
30.070224
11
66.6279418
21
30.0717479
0
LINE
8
0
10
66.6279418
20
30.0717479
11
71.7473679
21
30.0717489
0
LINE
8
0
10
71.7473679
20
30.0717489
11
74
21
30.0717489
0
LINE
8
0
10
74
20
30.0717489
11
74
21
29.4282171
0
LINE
8
0
10
74
20
29.4282171
11
74
21
24.6691822
0
LINE
8
0
10
74
20
24.6691822
11
74
21
22.632088
0
LINE
8
0
10
74
20
22.632088
11
74
21
22.6
0
LINE
8
0
10
74
20
22.6
11
73.7594904
21
22.3561125
0
LINE
8
0
10
73.7594904
20
22.3561125
11
73.68601
21
22.2816
0
LINE
8
0
10
73.68601
20
22.2816
11
73.504643
21
22.0976795
0
LINE
8
0
10
73.504643
20
22.0976795
11
73.44949
21
22.04175
0
LINE
8
0
10
73.44949
20
22.04175
11
73.2281309
21
21.817278
0
LINE
8
0
10
73.2281309
20
21.817278
11
73.15509
21
21.74321
0
LINE
8
0
10
73.15509
20
21.74321
11
72.5986431
21
21.1789397
0
LINE
8
0
10
72.5986431
20
21.1789397
11
72.5979975
21
21.178285
0
LINE
8
0
10
72.5979975
20
21.178285
11
72.3995385
21
20.9770333
0
LINE
8
0
10
72.3995385
20
20.9770333
11
72.2003872
21
20.7750852
0
LINE
8
0
10
72.2003872
20
20.7750852
11
72
21
20.57188
0
LINE
8
0
10
72
20
20.57188
11
72
21
18.8205043
0
LINE
8
0
10
72
20
18.8205043
11
72
21
18.6438042
0
LINE
8
0
10
72
20
18.6438042
11
72
21
17.2922824
0
LINE
8
0
10
72
20
17.2922824
11
72
21
17.2899304
0
LINE
8
0
10
72
20
17.2899304
11
71.9813571
21
16.7521405
0
LINE
8
0
10
71.9813571
20
16.7521405
11
71.9465119
21
16.1949203
0
LINE
8
0
10
71.9465119
20
16.1949203
11
71.8939237
21
15.6895756
0
LINE
8
0
10
71.8939237
20
15.6895756
11
71.8069467
21
15.1940259
0
LINE
8
0
10
71.8069467
20
15.1940259
11
71.6967274
21
14.6102083
0
LINE
8
0
10
71.6967274
20
14.6102083
11
71.5837256
21
14.1593056
0
LINE
8
0
10
71.5837256
20
14.1593056
11
71.3784559
21
13.5326505
0
LINE
8
0
10
71.3784559
20
13.5326505
11
71.2459066
21
13.1324291
0
LINE
8
0
10
71.2459066
20
13.1324291
11
71.086558
21
12.7526913
0
LINE
8
0
10
71.086558
20
12.7526913
11
70.7840072
21
12.1376289
0
LINE
8
0
10
70.7840072
20
12.1376289
11
70.6158658
21
11.8137613
0
LINE
8
0
10
70.6158658
20
11.8137613
11
70.4263215
21
11.5150021
0
LINE
8
0
10
70.4263215
20
11.5150021
11
70.0225237
21
10.9401179
0
LINE
8
0
10
70.0225237
20
10.9401179
11
69.8346644
21
10.696862
0
LINE
8
0
10
69.8346644
20
10.696862
11
69.631031
21
10.4810891
0
LINE
8
0
10
69.631031
20
10.4810891
11
69.1276825
21
9.97909622
0
LINE
8
0
10
69.1276825
20
9.97909622
11
69.1276825
21
9.97909622
0
LINE
8
0
10
35.2
20
-10.5954532
11
35.2
21
-9.97774883
0
LINE
8
0
10
35.2
20
-9.97774883
11
34.7717675
21
-9.52128142
0
LINE
8
0
10
34.7717675
20
-9.52128142
11
34
21
-8.62088964
0
LINE
8
0
10
34
20
-8.62088964
11
31.6554873
21
-8.62088964
0
LINE
8
0
10
31.6554873
20
-8.62088964
11
29.4
21
-8.62088964
0
LINE
8
0
10
29.4
20
-8.62088964
11
28.6282325
21
-9.52128142
0
LINE
8
0
10
28.6282325
20
-9.52128142
11
28.2
21
-9.97774883
0
LINE
8
0
10
28.2
20
-9.97774883
11
28.2
21
-10.702967
0
LINE
8
0
10
28.2
20
-10.702967
11
28.2
21
-11.3088873
0
LINE
8
0
10
28.2
20
-11.3088873
11
28.2
21
-11.647643
0
LINE
8
0
10
28.2
20
-11.647643
11
28.2
21
-13.5
0
LINE
8
0
10
28.2
20
-13.5
11
28.2080523
21
-13.6638823
0
LINE
8
0
10
28.2080523
20
-13.6638823
11
28.21204
21
-13.74504
0
LINE
8
0
10
28.21204
20
-13.74504
11
28.2604642
21
-14.0111643
0
LINE
8
0
10
28.2604642
20
-14.0111643
11
28.2726801
21
-14.0934004
0
LINE
8
0
10
28.2726801
20
-14.0934004
11
28.3200652
21
-14.2497944
0
LINE
8
0
10
28.3200652
20
-14.2497944
11
28.4869488
21
-14.6526871
0
LINE
8
0
10
28.4869488
20
-14.6526871
11
28.5629365
21
-14.7950232
0
LINE
8
0
10
28.5629365
20
-14.7950232
11
28.8314762
21
-15.1449988
0
LINE
8
0
10
28.8314762
20
-15.1449988
11
28.93223
21
-15.26777
0
LINE
8
0
10
28.93223
20
-15.26777
11
29.0470208
21
-15.3619746
0
LINE
8
0
10
29.0470208
20
-15.3619746
11
29.4079034
21
-15.6388833
0
LINE
8
0
10
29.4079034
20
-15.6388833
11
29.5353904
21
-15.7071715
0
LINE
8
0
10
29.5353904
20
-15.7071715
11
29.9627935
21
-15.8842076
0
LINE
8
0
10
29.9627935
20
-15.8842076
11
30.0974459
21
-15.9251855
0
LINE
8
0
10
30.0974459
20
-15.9251855
11
30.2263172
21
-15.9376354
0
LINE
8
0
10
30.2263172
20
-15.9376354
11
30.5177717
21
-15.982051
0
LINE
8
0
10
30.5177717
20
-15.982051
11
30.7
21
-16
0
LINE
8
0
10
30.7
20
-16
11
31.8333495
21
-16
0
LINE
8
0
10
31.8333495
20
-16
11
32.7
21
-16
0
LINE
8
0
10
32.7
20
-16
11
33.0016181
21
-15.9702915
0
LINE
8
0
10
33.0016181
20
-15.9702915
11
33.2903585
21
-15.9222739
0
LINE
8
0
10
33.2903585
20
-15.9222739
11
33.34705
21
-15.91481
0
LINE
8
0
10
33.34705
20
-15.91481
11
33.8443447
21
-15.7088238
0
LINE
8
0
10
33.8443447
20
-15.7088238
11
33.95
21
-15.66506
0
LINE
8
0
10
33.95
20
-15.66506
11
34.3770409
21
-15.3373874
0
LINE
8
0
10
34.3770409
20
-15.3373874
11
34.46777
21
-15.26777
0
LINE
8
0
10
34.46777
20
-15.26777
11
34.7954426
21
-14.8407291
0
LINE
8
0
10
34.7954426
20
-14.8407291
11
34.86506
21
-14.75
0
LINE
8
0
10
34.86506
20
-14.75
11
35.0710462
21
-14.2527053
0
LINE
8
0
10
35.0710462
20
-14.2527053
11
35.11481
21
-14.14705
0
LINE
8
0
10
35.11481
20
-14.14705
11
35.1550178
21
-13.8416567
0
LINE
8
0
10
35.1550178
20
-13.8416567
11
35.1955494
21
-13.5905788
0
LINE
8
0
10
35.1955494
20
-13.5905788
11
35.2
21
-13.5
0
LINE
8
0
10
35.2
20
-13.5
11
35.2
21
-11.4289562
0
LINE
8
0
10
35.2
20
-11.4289562
11
35.2
21
-11.1292481
0
LINE
8
0
10
35.2
20
-11.1292481
11
35.2
21
-10.5954532
0
LINE
8
0
10
35.2
20
-10.5954532
11
35.2
21
-10.5954532
0
LINE
8
0
10
35.2
20
10
11
35.2
21
8.52459799
0
LINE
8
0
10
35.2
20
8.52459799
11
35.2
21
4.72202143
0
LINE
8
0
10
35.2
20
4.72202143
11
34.7013184
21
4.00927612
0
LINE
8
0
10
34.7013184
20
4.00927612
11
34
21
3.00691023
0
LINE
8
0
10
34
20
3.00691023
11
32.5847051
21
3.00691023
0
LINE
8
0
10
32.5847051
20
3.00691023
11
29.4
21
3.00691023
0
LINE
8
0
10
29.4
20
3.00691023
11
28.6986816
21
4.00927612
0
LINE
8
0
10
28.6986816
20
4.00927612
11
28.2
21
4.72202143
0
LINE
8
0
10
28.2
20
4.72202143
11
28.2
21
8.78192267
0
LINE
8
0
10
28.2
20
8.78192267
11
28.2
21
9.4354369
0
LINE
8
0
10
28.2
20
9.4354369
11
28.2
21
9.53042376
0
LINE
8
0
10
28.2
20
9.53042376
11
28.2
21
10.4498043
0
LINE
8
0
10
28.2
20
10.4498043
11
28.2
21
15
0
LINE
8
0
10
28.2
20
15
11
28.8505198
21
15
0
LINE
8
0
10
28.8505198
20
15
11
30.2
21
15
0
LINE
8
0
10
30.2
20
15
11
30.2
21
14.2393348
0
LINE
8
0
10
30.2
20
14.2393348
11
30.2
21
12.65094
0
LINE
8
0
10
30.2
20
12.65094
11
30.2
21
12.5665054
0
LINE
8
0
10
30.2
20
12.5665054
11
30.2
21
12.39302
0
LINE
8
0
10
30.2
20
12.39302
11
30.2
21
12.3091997
0
LINE
8
0
10
30.2
20
12.3091997
11
30.2
21
12.13557
0
LINE
8
0
10
30.2
20
12.13557
11
30.2
21
12.0576742
0
LINE
8
0
10
30.2
20
12.0576742
11
30.2
21
11.89597
0
LINE
8
0
10
30.2
20
11.89597
11
30.2
21
11.8289708
0
LINE
8
0
10
30.2
20
11.8289708
11
30.2
21
11.69043
0
LINE
8
0
10
30.2
20
11.69043
11
30.2
21
11.6387257
0
LINE
8
0
10
30.2
20
11.6387257
11
30.2
21
11.53281
0
LINE
8
0
10
30.2
20
11.53281
11
30.2
21
11.0794726
0
LINE
8
0
10
30.2
20
11.0794726
11
30.2
21
10
0
LINE
8
0
10
30.2
20
10
11
32.0491463
21
10
0
LINE
8
0
10
32.0491463
20
10
11
35.2
21
10
0
LINE
8
0
10
35.2
20
10
11
35.2
21
10
0
LINE
8
0
10
72
20
-6.39957052
11
72
21
-6.82373366
0
LINE
8
0
10
72
20
-6.82373366
11
72
21
-7.58331365
0
LINE
8
0
10
72
20
-7.58331365
11
72
21
-8.3898388
0
LINE
8
0
10
72
20
-8.3898388
11
72
21
-8.53654819
0
LINE
8
0
10
72
20
-8.53654819
11
72
21
-13.5
0
LINE
8
0
10
72
20
-13.5
11
71.9369885
21
-13.978596
0
LINE
8
0
10
71.9369885
20
-13.978596
11
71.91481
21
-14.14705
0
LINE
8
0
10
71.91481
20
-14.14705
11
71.7300803
21
-14.5930271
0
LINE
8
0
10
71.7300803
20
-14.5930271
11
71.66506
21
-14.75
0
LINE
8
0
10
71.66506
20
-14.75
11
71.3712011
21
-15.132973
0
LINE
8
0
10
71.3712011
20
-15.132973
11
71.26777
21
-15.26777
0
LINE
8
0
10
71.26777
20
-15.26777
11
70.884797
21
-15.5616289
0
LINE
8
0
10
70.884797
20
-15.5616289
11
70.75
21
-15.66506
0
LINE
8
0
10
70.75
20
-15.66506
11
70.3040229
21
-15.8497897
0
LINE
8
0
10
70.3040229
20
-15.8497897
11
70.14705
21
-15.91481
0
LINE
8
0
10
70.14705
20
-15.91481
11
69.978596
21
-15.9369885
0
LINE
8
0
10
69.978596
20
-15.9369885
11
69.5
21
-16
0
LINE
8
0
10
69.5
20
-16
11
65.8392444
21
-16
0
LINE
8
0
10
65.8392444
20
-16
11
58.8
21
-16
0
LINE
8
0
10
58.8
20
-16
11
58.7623888
21
-15.9992251
0
LINE
8
0
10
58.7623888
20
-15.9992251
11
58.73836
21
-15.99873
0
LINE
8
0
10
58.73836
20
-15.99873
11
58.7008323
21
-15.9964139
0
LINE
8
0
10
58.7008323
20
-15.9964139
11
58.67679
21
-15.99493
0
LINE
8
0
10
58.67679
20
-15.99493
11
58.6529341
21
-15.9924691
0
LINE
8
0
10
58.6529341
20
-15.9924691
11
58.4704369
21
-15.9590818
0
LINE
8
0
10
58.4704369
20
-15.9590818
11
58.41177
21
-15.94889
0
LINE
8
0
10
58.41177
20
-15.94889
11
58.2092138
21
-15.8649885
0
LINE
8
0
10
58.2092138
20
-15.8649885
11
58.05
21
-15.79904
0
LINE
8
0
10
58.05
20
-15.79904
11
57.8760605
21
-15.6655703
0
LINE
8
0
10
57.8760605
20
-15.6655703
11
57.73934
21
-15.56066
0
LINE
8
0
10
57.73934
20
-15.56066
11
57.6058703
21
-15.3867205
0
LINE
8
0
10
57.6058703
20
-15.3867205
11
57.50096
21
-15.25
0
LINE
8
0
10
57.50096
20
-15.25
11
57.4170585
21
-15.0474438
0
LINE
8
0
10
57.4170585
20
-15.0474438
11
57.35111
21
-14.88823
0
LINE
8
0
10
57.35111
20
-14.88823
11
57.3405854
21
-14.8082855
0
LINE
8
0
10
57.3405854
20
-14.8082855
11
57.3221689
21
-14.7015164
0
LINE
8
0
10
57.3221689
20
-14.7015164
11
57.3
21
-14.5
0
LINE
8
0
10
57.3
20
-14.5
11
57.3
21
-14.2964018
0
LINE
8
0
10
57.3
20
-14.2964018
11
57.3
21
-14.17729
0
LINE
8
0
10
57.3
20
-14.17729
11
57.3
21
-7.3639975
0
LINE
8
0
10
57.3
20
-7.3639975
11
57.3
21
-7.29026808
0
LINE
8
0
10
57.3
20
-7.29026808
11
57.3
21
-6.5101334
0
LINE
8
0
10
57.3
20
-6.5101334
11
57.3
21
-6.45172585
0
LINE
8
0
10
57.3
20
-6.45172585
11
57.3
21
-5.36962379
0
LINE
8
0
10
57.3
20
-5.36962379
11
57.3
21
-4.26793106
0
LINE
8
0
10
57.3
20
-4.26793106
11
57.7282325
21
-3.81146342
0
LINE
8
0
10
57.7282325
20
-3.81146342
11
58.5
21
-2.91107164
0
LINE
8
0
10
58.5
20
-2.91107164
11
64.0854426
21
-2.91789106
0
LINE
8
0
10
64.0854426
20
-2.91789106
11
68.6191406
21
-2.91799638
0
LINE
8
0
10
68.6191406
20
-2.91799638
11
68.8638798
21
-2.94678629
0
LINE
8
0
10
68.8638798
20
-2.94678629
11
68.9297977
21
-2.95097098
0
LINE
8
0
10
68.9297977
20
-2.95097098
11
69.0017801
21
-2.96227642
0
LINE
8
0
10
69.0017801
20
-2.96227642
11
69.2446396
21
-3.00050061
0
LINE
8
0
10
69.2446396
20
-3.00050061
11
69.3008133
21
-3.01544881
0
LINE
8
0
10
69.3008133
20
-3.01544881
11
69.5647587
21
-3.08593181
0
LINE
8
0
10
69.5647587
20
-3.08593181
11
69.5951631
21
-3.09753163
0
LINE
8
0
10
69.5951631
20
-3.09753163
11
69.8549337
21
-3.19711744
0
LINE
8
0
10
69.8549337
20
-3.19711744
11
69.8822823
21
-3.20714854
0
LINE
8
0
10
69.8822823
20
-3.20714854
11
69.884436
21
-3.20794285
0
LINE
8
0
10
69.884436
20
-3.20794285
11
70.165777
21
-3.34516445
0
LINE
8
0
10
70.165777
20
-3.34516445
11
70.1965545
21
-3.36027952
0
LINE
8
0
10
70.1965545
20
-3.36027952
11
70.4351931
21
-3.50866869
0
LINE
8
0
10
70.4351931
20
-3.50866869
11
70.4964559
21
-3.54707584
0
LINE
8
0
10
70.4964559
20
-3.54707584
11
70.6880264
21
-3.69539069
0
LINE
8
0
10
70.6880264
20
-3.69539069
11
70.7784273
21
-3.76603718
0
LINE
8
0
10
70.7784273
20
-3.76603718
11
70.9222749
21
-3.90303751
0
LINE
8
0
10
70.9222749
20
-3.90303751
11
71.0373493
21
-4.01377309
0
LINE
8
0
10
71.0373493
20
-4.01377309
11
71.1363044
21
-4.129325
0
LINE
8
0
10
71.1363044
20
-4.129325
11
71.2689753
21
-4.28599217
0
LINE
8
0
10
71.2689753
20
-4.28599217
11
71.3287312
21
-4.37192856
0
LINE
8
0
10
71.3287312
20
-4.37192856
11
71.4701401
21
-4.57774841
0
LINE
8
0
10
71.4701401
20
-4.57774841
11
71.4983612
21
-4.62840564
0
LINE
8
0
10
71.4983612
20
-4.62840564
11
71.6388268
21
-4.88371844
0
LINE
8
0
10
71.6388268
20
-4.88371844
11
71.6442313
21
-4.89612921
0
LINE
8
0
10
71.6442313
20
-4.89612921
11
71.6818022
21
-4.98353936
0
LINE
8
0
10
71.6818022
20
-4.98353936
11
71.7630735
21
-5.16613884
0
LINE
8
0
10
71.7630735
20
-5.16613884
11
71.7740276
21
-5.19100485
0
LINE
8
0
10
71.7740276
20
-5.19100485
11
71.8562321
21
-5.43782852
0
LINE
8
0
10
71.8562321
20
-5.43782852
11
71.8762604
21
-5.49860805
0
LINE
8
0
10
71.8762604
20
-5.49860805
11
71.92522
21
-5.71114517
0
LINE
8
0
10
71.92522
20
-5.71114517
11
71.94668
21
-5.80532178
0
LINE
8
0
10
71.94668
20
-5.80532178
11
71.9706617
21
-5.98337648
0
LINE
8
0
10
71.9706617
20
-5.98337648
11
71.987121
21
-6.1069172
0
LINE
8
0
10
71.987121
20
-6.1069172
11
71.9934098
21
-6.25061522
0
LINE
8
0
10
71.9934098
20
-6.25061522
11
72
21
-6.39957052
0
LINE
8
0
10
72
20
-6.39957052
11
72
21
-6.39957052
0
ENDSEC
0
EOF
