0
SECTION
2
ENTITIES
0
LINE
8
0
10
71.6748799
20
-4.88641392
11
71.634904
21
-4.79461462
0
LINE
8
0
10
71.634904
20
-4.79461462
11
71.5369984
21
-4.61665965
0
LINE
8
0
10
71.5369984
20
-4.61665965
11
71.4641829
21
-4.48595517
0
LINE
8
0
10
71.4641829
20
-4.48595517
11
71.3753906
21
-4.3567185
0
LINE
8
0
10
71.3753906
20
-4.3567185
11
71.2604683
21
-4.19144593
0
LINE
8
0
10
71.2604683
20
-4.19144593
11
71.1907252
21
-4.10908835
0
LINE
8
0
10
71.1907252
20
-4.10908835
11
71.0257784
21
-3.91647652
0
LINE
8
0
10
71.0257784
20
-3.91647652
11
70.9838669
21
-3.87614527
0
LINE
8
0
10
70.9838669
20
-3.87614527
11
70.7632938
21
-3.66607164
0
LINE
8
0
10
70.7632938
20
-3.66607164
11
70.7558206
21
-3.66023146
0
LINE
8
0
10
70.7558206
20
-3.66023146
11
70.7026161
21
-3.61904031
0
LINE
8
0
10
70.7026161
20
-3.61904031
11
70.5147687
21
-3.46734661
0
LINE
8
0
10
70.5147687
20
-3.46734661
11
70.4760939
21
-3.43637854
0
LINE
8
0
10
70.4760939
20
-3.43637854
11
70.2595963
21
-3.29588962
0
LINE
8
0
10
70.2595963
20
-3.29588962
11
70.1698916
21
-3.23810398
0
LINE
8
0
10
70.1698916
20
-3.23810398
11
69.9901209
21
-3.14653922
0
LINE
8
0
10
69.9901209
20
-3.14653922
11
69.8508889
21
-3.07605751
0
LINE
8
0
10
69.8508889
20
-3.07605751
11
69.7078955
21
-3.02123948
0
LINE
8
0
10
69.7078955
20
-3.02123948
11
69.5253787
21
-2.95160605
0
LINE
8
0
10
69.5253787
20
-2.95160605
11
69.4150598
21
-2.92214691
0
LINE
8
0
10
69.4150598
20
-2.92214691
11
69.1995732
21
-2.86480442
0
LINE
8
0
10
69.1995732
20
-2.86480442
11
69.1145344
21
-2.85141997
0
LINE
8
0
10
69.1145344
20
-2.85141997
11
68.879246
21
-2.81446597
0
LINE
8
0
10
68.879246
20
-2.81446597
11
68.6637805
21
-2.80078749
0
LINE
8
0
10
68.6637805
20
-2.80078749
11
68.5662685
21
-2.78931665
0
LINE
8
0
10
68.5662685
20
-2.78931665
11
66.7598958
21
-2.78927469
0
LINE
8
0
10
66.7598958
20
-2.78927469
11
58.5
21
-2.77918995
0
LINE
8
0
10
58.5
20
-2.77918995
11
57.3586905
21
-4.11071243
0
LINE
8
0
10
57.3586905
20
-4.11071243
11
57.3
21
-4.17327261
0
LINE
8
0
10
57.3
20
-4.17327261
11
57.3
21
-5.5740303
0
LINE
8
0
10
57.3
20
-5.5740303
11
57.3
21
-6.62892714
0
LINE
8
0
10
57.3
20
-6.62892714
11
57.3
21
-6.69398841
0
LINE
8
0
10
57.3
20
-6.69398841
11
57.3
21
-7.45455994
0
LINE
8
0
10
57.3
20
-7.45455994
11
57.3
21
-7.53355575
0
LINE
8
0
10
57.3
20
-7.53355575
11
57.3
21
-14.17729
0
LINE
8
0
10
57.3
20
-14.17729
11
57.3
21
-14.2934375
0
LINE
8
0
10
57.3
20
-14.2934375
11
57.3
21
-14.5
0
LINE
8
0
10
57.3
20
-14.5
11
57.3224917
21
-14.7044504
0
LINE
8
0
10
57.3224917
20
-14.7044504
11
57.3411763
21
-14.812774
0
LINE
8
0
10
57.3411763
20
-14.812774
11
57.35111
21
-14.88823
0
LINE
8
0
10
57.35111
20
-14.88823
11
57.4217691
21
-15.0588162
0
LINE
8
0
10
57.4217691
20
-15.0588162
11
57.50096
21
-15.25
0
LINE
8
0
10
57.50096
20
-15.25
11
57.6133639
21
-15.3964862
0
LINE
8
0
10
57.6133639
20
-15.3964862
11
57.73934
21
-15.56066
0
LINE
8
0
10
57.73934
20
-15.56066
11
57.8858262
21
-15.6730639
0
LINE
8
0
10
57.8858262
20
-15.6730639
11
58.05
21
-15.79904
0
LINE
8
0
10
58.05
20
-15.79904
11
58.2205862
21
-15.8696991
0
LINE
8
0
10
58.2205862
20
-15.8696991
11
58.41177
21
-15.94889
0
LINE
8
0
10
58.41177
20
-15.94889
11
58.4746274
21
-15.9598098
0
LINE
8
0
10
58.4746274
20
-15.9598098
11
58.6534186
21
-15.9925191
0
LINE
8
0
10
58.6534186
20
-15.9925191
11
58.67679
21
-15.99493
0
LINE
8
0
10
58.67679
20
-15.99493
11
58.7003441
21
-15.9963837
0
LINE
8
0
10
58.7003441
20
-15.9963837
11
58.73836
21
-15.99873
0
LINE
8
0
10
58.73836
20
-15.99873
11
58.7618971
21
-15.9992149
0
LINE
8
0
10
58.7618971
20
-15.9992149
11
58.8
21
-16
0
LINE
8
0
10
58.8
20
-16
11
65.9312798
21
-16
0
LINE
8
0
10
65.9312798
20
-16
11
69.5
21
-16
0
LINE
8
0
10
69.5
20
-16
11
69.9665636
21
-15.9385727
0
LINE
8
0
10
69.9665636
20
-15.9385727
11
70.14705
21
-15.91481
0
LINE
8
0
10
70.14705
20
-15.91481
11
70.3152353
21
-15.8451454
0
LINE
8
0
10
70.3152353
20
-15.8451454
11
70.75
21
-15.66506
0
LINE
8
0
10
70.75
20
-15.66506
11
70.8944254
21
-15.554241
0
LINE
8
0
10
70.8944254
20
-15.554241
11
71.26777
21
-15.26777
0
LINE
8
0
10
71.26777
20
-15.26777
11
71.378589
21
-15.1233446
0
LINE
8
0
10
71.378589
20
-15.1233446
11
71.66506
21
-14.75
0
LINE
8
0
10
71.66506
20
-14.75
11
71.7347246
21
-14.5818147
0
LINE
8
0
10
71.7347246
20
-14.5818147
11
71.91481
21
-14.14705
0
LINE
8
0
10
71.91481
20
-14.14705
11
71.9385727
21
-13.9665636
0
LINE
8
0
10
71.9385727
20
-13.9665636
11
72
21
-13.5
0
LINE
8
0
10
72
20
-13.5
11
72
21
-8.66133478
0
LINE
8
0
10
72
20
-8.66133478
11
72
21
-8.51831381
0
LINE
8
0
10
72
20
-8.51831381
11
72
21
-7.73206559
0
LINE
8
0
10
72
20
-7.73206559
11
72
21
-6.99158227
0
LINE
8
0
10
72
20
-6.99158227
11
72
21
-6.34185353
0
LINE
8
0
10
72
20
-6.34185353
11
71.9899052
21
-6.11368534
0
LINE
8
0
10
71.9899052
20
-6.11368534
11
71.9870229
21
-6.04782633
0
LINE
8
0
10
71.9870229
20
-6.04782633
11
71.9794794
21
-5.99120573
0
LINE
8
0
10
71.9794794
20
-5.99120573
11
71.9462642
21
-5.74459585
0
LINE
8
0
10
71.9462642
20
-5.74459585
11
71.9407377
21
-5.72034279
0
LINE
8
0
10
71.9407377
20
-5.72034279
11
71.8975736
21
-5.53296486
0
LINE
8
0
10
71.8975736
20
-5.53296486
11
71.8778948
21
-5.44453651
0
LINE
8
0
10
71.8778948
20
-5.44453651
11
71.8752216
21
-5.43268851
0
LINE
8
0
10
71.8752216
20
-5.43268851
11
71.7885664
21
-5.16331462
0
LINE
8
0
10
71.7885664
20
-5.16331462
11
71.7718225
21
-5.11195446
0
LINE
8
0
10
71.7718225
20
-5.11195446
11
71.6748799
21
-4.88641392
0
LINE
8
0
10
71.6748799
20
-4.88641392
11
71.6748799
21
-4.88641392
0
LINE
8
0
10
16
20
41.590068
11
16
21
40.7521979
0
LINE
8
0
10
16
20
40.7521979
11
16
21
40.5217595
0
LINE
8
0
10
16
20
40.5217595
11
16
21
40.1467665
0
LINE
8
0
10
16
20
40.1467665
11
16
21
39.1639626
0
LINE
8
0
10
16
20
39.1639626
11
16
21
38.1486471
0
LINE
8
0
10
16
20
38.1486471
11
16
21
37.5754408
0
LINE
8
0
10
16
20
37.5754408
11
16
21
35.76474
0
LINE
8
0
10
16
20
35.76474
11
16.1135067
21
35.76474
0
LINE
8
0
10
16.1135067
20
35.76474
11
17.8
21
35.76474
0
LINE
8
0
10
17.8
20
35.76474
11
17.8
21
35.5950411
0
LINE
8
0
10
17.8
20
35.5950411
11
17.8
21
33.4864523
0
LINE
8
0
10
17.8
20
33.4864523
11
17.8
21
30.9897395
0
LINE
8
0
10
17.8
20
30.9897395
11
17.8
21
29.9999481
0
LINE
8
0
10
17.8
20
29.9999481
11
17.7519197
21
29.2405031
0
LINE
8
0
10
17.7519197
20
29.2405031
11
17.72314
21
28.7859181
0
LINE
8
0
10
17.72314
20
28.7859181
11
17.5807507
21
28.0556616
0
LINE
8
0
10
17.5807507
20
28.0556616
11
17.49552
21
27.6185481
0
LINE
8
0
10
17.49552
20
27.6185481
11
17.2642891
21
26.9455363
0
LINE
8
0
10
17.2642891
20
26.9455363
11
17.12588
21
26.5426881
0
LINE
8
0
10
17.12588
20
26.5426881
11
16.8146967
21
25.9527941
0
LINE
8
0
10
16.8146967
20
25.9527941
11
16.62843
21
25.5996981
0
LINE
8
0
10
16.62843
20
25.5996981
11
16.4464805
21
25.3431509
0
LINE
8
0
10
16.4464805
20
25.3431509
11
16.33757
21
25.1895843
0
LINE
8
0
10
16.33757
20
25.1895843
11
16.1403381
21
24.9620129
0
LINE
8
0
10
16.1403381
20
24.9620129
11
16.02228
21
24.8257981
0
LINE
8
0
10
16.02228
20
24.8257981
11
15.8116612
21
24.6294044
0
LINE
8
0
10
15.8116612
20
24.6294044
11
15.68559
21
24.5118443
0
LINE
8
0
10
15.68559
20
24.5118443
11
15.4636048
21
24.3485051
0
LINE
8
0
10
15.4636048
20
24.3485051
11
15.33073
21
24.2507381
0
LINE
8
0
10
15.33073
20
24.2507381
11
15.0995304
21
24.1220422
0
LINE
8
0
10
15.0995304
20
24.1220422
11
14.96114
21
24.0450081
0
LINE
8
0
10
14.96114
20
24.0450081
11
14.7229404
21
23.9521879
0
LINE
8
0
10
14.7229404
20
23.9521879
11
14.58036
21
23.8966243
0
LINE
8
0
10
14.58036
20
23.8966243
11
14.3374625
21
23.8405682
0
LINE
8
0
10
14.3374625
20
23.8405682
11
14.19207
21
23.8070181
0
LINE
8
0
10
14.19207
20
23.8070181
11
13.9468079
21
23.7882701
0
LINE
8
0
10
13.9468079
20
23.7882701
11
13.8
21
23.7770481
0
LINE
8
0
10
13.8
20
23.7770481
11
6.66865042
21
23.7770481
0
LINE
8
0
10
6.66865042
20
23.7770481
11
2.4
21
23.7770459
0
LINE
8
0
10
2.4
20
23.7770459
11
2.4
21
26.6744121
0
LINE
8
0
10
2.4
20
26.6744121
11
2.4
21
28.1829896
0
LINE
8
0
10
2.4
20
28.1829896
11
2.4
21
30.0028661
0
LINE
8
0
10
2.4
20
30.0028661
11
2.4
21
38.96489
0
LINE
8
0
10
2.4
20
38.96489
11
2.4
21
39.6248376
0
LINE
8
0
10
2.4
20
39.6248376
11
2.4
21
40.5471149
0
LINE
8
0
10
2.4
20
40.5471149
11
2.4
21
40.954248
0
LINE
8
0
10
2.4
20
40.954248
11
2.4
21
41.590068
0
LINE
8
0
10
2.4
20
41.590068
11
14.3727339
21
41.590068
0
LINE
8
0
10
14.3727339
20
41.590068
11
16
21
41.590068
0
LINE
8
0
10
16
20
41.590068
11
16
21
41.590068
0
LINE
8
0
10
35.2
20
-11.4810245
11
35.2
21
-11.1888513
0
LINE
8
0
10
35.2
20
-11.1888513
11
35.2
21
-10.6684766
0
LINE
8
0
10
35.2
20
-10.6684766
11
35.2
21
-9.88309057
0
LINE
8
0
10
35.2
20
-9.88309057
11
35.1413095
21
-9.82053043
0
LINE
8
0
10
35.1413095
20
-9.82053043
11
34
21
-8.48900795
0
LINE
8
0
10
34
20
-8.48900795
11
32.7354725
21
-8.48900795
0
LINE
8
0
10
32.7354725
20
-8.48900795
11
29.4
21
-8.48900795
0
LINE
8
0
10
29.4
20
-8.48900795
11
28.2586905
21
-9.82053043
0
LINE
8
0
10
28.2586905
20
-9.82053043
11
28.2
21
-9.88309057
0
LINE
8
0
10
28.2
20
-9.88309057
11
28.2
21
-10.8051761
0
LINE
8
0
10
28.2
20
-10.8051761
11
28.2
21
-11.3889549
0
LINE
8
0
10
28.2
20
-11.3889549
11
28.2
21
-11.7153318
0
LINE
8
0
10
28.2
20
-11.7153318
11
28.2
21
-13.5
0
LINE
8
0
10
28.2
20
-13.5
11
28.2081978
21
-13.6668423
0
LINE
8
0
10
28.2081978
20
-13.6668423
11
28.21204
21
-13.74504
0
LINE
8
0
10
28.21204
20
-13.74504
11
28.258698
21
-14.0014582
0
LINE
8
0
10
28.258698
20
-14.0014582
11
28.2717865
21
-14.0895683
0
LINE
8
0
10
28.2717865
20
-14.0895683
11
28.3225563
21
-14.2571333
0
LINE
8
0
10
28.3225563
20
-14.2571333
11
28.4835209
21
-14.6457362
0
LINE
8
0
10
28.4835209
20
-14.6457362
11
28.5649363
21
-14.7982392
0
LINE
8
0
10
28.5649363
20
-14.7982392
11
28.8242795
21
-15.1362294
0
LINE
8
0
10
28.8242795
20
-15.1362294
11
28.93223
21
-15.26777
0
LINE
8
0
10
28.93223
20
-15.26777
11
29.0552201
21
-15.3687034
0
LINE
8
0
10
29.0552201
20
-15.3687034
11
29.4048965
21
-15.6370136
0
LINE
8
0
10
29.4048965
20
-15.6370136
11
29.5414897
21
-15.7101794
0
LINE
8
0
10
29.5414897
20
-15.7101794
11
29.9563538
21
-15.8820217
0
LINE
8
0
10
29.9563538
20
-15.8820217
11
30.1006241
21
-15.9259266
0
LINE
8
0
10
30.1006241
20
-15.9259266
11
30.2387006
21
-15.9392657
0
LINE
8
0
10
30.2387006
20
-15.9392657
11
30.5225356
21
-15.9825203
0
LINE
8
0
10
30.5225356
20
-15.9825203
11
30.7
21
-16
0
LINE
8
0
10
30.7
20
-16
11
31.8504563
21
-16
0
LINE
8
0
10
31.8504563
20
-16
11
32.7
21
-16
0
LINE
8
0
10
32.7
20
-16
11
33.0054525
21
-15.9699138
0
LINE
8
0
10
33.0054525
20
-15.9699138
11
33.2978636
21
-15.9212858
0
LINE
8
0
10
33.2978636
20
-15.9212858
11
33.34705
21
-15.91481
0
LINE
8
0
10
33.34705
20
-15.91481
11
33.8583319
21
-15.7030302
0
LINE
8
0
10
33.8583319
20
-15.7030302
11
33.95
21
-15.66506
0
LINE
8
0
10
33.95
20
-15.66506
11
34.389052
21
-15.3281711
0
LINE
8
0
10
34.389052
20
-15.3281711
11
34.46777
21
-15.26777
0
LINE
8
0
10
34.46777
20
-15.26777
11
34.8046589
21
-14.828718
0
LINE
8
0
10
34.8046589
20
-14.828718
11
34.86506
21
-14.75
0
LINE
8
0
10
34.86506
20
-14.75
11
35.0768398
21
-14.2387181
0
LINE
8
0
10
35.0768398
20
-14.2387181
11
35.11481
21
-14.14705
0
LINE
8
0
10
35.11481
20
-14.14705
11
35.1561487
21
-13.8330671
0
LINE
8
0
10
35.1561487
20
-13.8330671
11
35.1956613
21
-13.5883016
0
LINE
8
0
10
35.1956613
20
-13.5883016
11
35.2
21
-13.5
0
LINE
8
0
10
35.2
20
-13.5
11
35.2
21
-11.4810245
0
LINE
8
0
10
35.2
20
-11.4810245
11
35.2
21
-11.4810245
0
LINE
8
0
10
35.2
20
10
11
35.2
21
8.5616912
0
LINE
8
0
10
35.2
20
8.5616912
11
35.2
21
4.48750203
0
LINE
8
0
10
35.2
20
4.48750203
11
34.7514125
21
3.84635427
0
LINE
8
0
10
34.7514125
20
3.84635427
11
34
21
2.77239082
0
LINE
8
0
10
34
20
2.77239082
11
32.8121841
21
2.77239082
0
LINE
8
0
10
32.8121841
20
2.77239082
11
29.4
21
2.77239082
0
LINE
8
0
10
29.4
20
2.77239082
11
28.6485875
21
3.84635427
0
LINE
8
0
10
28.6485875
20
3.84635427
11
28.2
21
4.48750203
0
LINE
8
0
10
28.2
20
4.48750203
11
28.2
21
8.83739622
0
LINE
8
0
10
28.2
20
8.83739622
11
28.2
21
9.53759003
0
LINE
8
0
10
28.2
20
9.53759003
11
28.2
21
9.63936167
0
LINE
8
0
10
28.2
20
9.63936167
11
28.2
21
10.6244122
0
LINE
8
0
10
28.2
20
10.6244122
11
28.2
21
15
0
LINE
8
0
10
28.2
20
15
11
28.825557
21
15
0
LINE
8
0
10
28.825557
20
15
11
30.2
21
15
0
LINE
8
0
10
30.2
20
15
11
30.2
21
14.2685243
0
LINE
8
0
10
30.2
20
14.2685243
11
30.2
21
12.65094
0
LINE
8
0
10
30.2
20
12.65094
11
30.2
21
12.5697017
0
LINE
8
0
10
30.2
20
12.5697017
11
30.2
21
12.39302
0
LINE
8
0
10
30.2
20
12.39302
11
30.2
21
12.3123895
0
LINE
8
0
10
30.2
20
12.3123895
11
30.2
21
12.13557
0
LINE
8
0
10
30.2
20
12.13557
11
30.2
21
12.0606212
0
LINE
8
0
10
30.2
20
12.0606212
11
30.2
21
11.89597
0
LINE
8
0
10
30.2
20
11.89597
11
30.2
21
11.8314642
0
LINE
8
0
10
30.2
20
11.8314642
11
30.2
21
11.69043
0
LINE
8
0
10
30.2
20
11.69043
11
30.2
21
11.6406015
0
LINE
8
0
10
30.2
20
11.6406015
11
30.2
21
11.53281
0
LINE
8
0
10
30.2
20
11.53281
11
30.2
21
11.0953997
0
LINE
8
0
10
30.2
20
11.0953997
11
30.2
21
10
0
LINE
8
0
10
30.2
20
10
11
32.0026567
21
10
0
LINE
8
0
10
32.0026567
20
10
11
35.2
21
10
0
LINE
8
0
10
35.2
20
10
11
35.2
21
10
0
LINE
8
0
10
72
20
17.0577629
11
72
21
17.0555054
0
LINE
8
0
10
72
20
17.0555054
11
71.9821062
21
16.5393241
0
LINE
8
0
10
71.9821062
20
16.5393241
11
71.944772
21
15.9423025
0
LINE
8
0
10
71.944772
20
15.9423025
11
71.8946132
21
15.4603032
0
LINE
8
0
10
71.8946132
20
15.4603032
11
71.8116543
21
14.9876464
0
LINE
8
0
10
71.8116543
20
14.9876464
11
71.6935622
21
14.3621274
0
LINE
8
0
10
71.6935622
20
14.3621274
11
71.5866674
21
13.9355931
0
LINE
8
0
10
71.5866674
20
13.9355931
11
71.3667356
21
13.264177
0
LINE
8
0
10
71.3667356
20
13.264177
11
71.2427078
21
12.8896854
0
LINE
8
0
10
71.2427078
20
12.8896854
11
71.0936036
21
12.5343607
0
LINE
8
0
10
71.0936036
20
12.5343607
11
70.769442
21
11.8753652
0
LINE
8
0
10
70.769442
20
11.8753652
11
70.6143455
21
11.5766243
0
LINE
8
0
10
70.6143455
20
11.5766243
11
70.4395066
21
11.3010436
0
LINE
8
0
10
70.4395066
20
11.3010436
11
70.0068661
21
10.6850964
0
LINE
8
0
10
70.0068661
20
10.6850964
11
69.8367483
21
10.4648136
0
LINE
8
0
10
69.8367483
20
10.4648136
11
69.6523461
21
10.2694184
0
LINE
8
0
10
69.6523461
20
10.2694184
11
69.1130442
21
9.73156881
0
LINE
8
0
10
69.1130442
20
9.73156881
11
68.941432
21
9.58460325
0
LINE
8
0
10
68.941432
20
9.58460325
11
68.7605722
21
9.46237948
0
LINE
8
0
10
68.7605722
20
9.46237948
11
68.1244888
21
9.039593
0
LINE
8
0
10
68.1244888
20
9.039593
11
67.9596869
21
8.9553396
0
LINE
8
0
10
67.9596869
20
8.9553396
11
67.2296538
21
8.67659744
0
LINE
8
0
10
67.2296538
20
8.67659744
11
67.0763467
21
8.62172829
0
LINE
8
0
10
67.0763467
20
8.62172829
11
66.9200137
21
8.58859256
0
LINE
8
0
10
66.9200137
20
8.58859256
11
66.1518184
21
8.49286485
0
LINE
8
0
10
66.1518184
20
8.49286485
11
66
21
8.48220808
0
LINE
8
0
10
66
20
8.48220808
11
63.1662233
21
8.48220822
0
LINE
8
0
10
63.1662233
20
8.48220822
11
63.1
21
8.48220822
0
LINE
8
0
10
63.1
20
8.48220822
11
63.1
21
10.0456712
0
LINE
8
0
10
63.1
20
10.0456712
11
63.1
21
10.557294
0
LINE
8
0
10
63.1
20
10.557294
11
63.1
21
22.4
0
LINE
8
0
10
63.1
20
22.4
11
63.104042
21
22.4036378
0
LINE
8
0
10
63.104042
20
22.4036378
11
63.1163142
21
22.4146876
0
LINE
8
0
10
63.1163142
20
22.4146876
11
63.1368534
21
22.4331807
0
LINE
8
0
10
63.1368534
20
22.4331807
11
63.1654695
21
22.4589482
0
LINE
8
0
10
63.1654695
20
22.4589482
11
63.2016911
21
22.4915639
0
LINE
8
0
10
63.2016911
20
22.4915639
11
63.2447545
21
22.530336
0
LINE
8
0
10
63.2447545
20
22.530336
11
63.3469383
21
22.6223505
0
LINE
8
0
10
63.3469383
20
22.6223505
11
63.4606936
21
22.7247704
0
LINE
8
0
10
63.4606936
20
22.7247704
11
63.6702812
21
22.913484
0
LINE
8
0
10
63.6702812
20
22.913484
11
63.7904305
21
23.0216634
0
LINE
8
0
10
63.7904305
20
23.0216634
11
63.9005511
21
23.1208217
0
LINE
8
0
10
63.9005511
20
23.1208217
11
63.9479245
21
23.1634757
0
LINE
8
0
10
63.9479245
20
23.1634757
11
63.98849
21
23.2
0
LINE
8
0
10
63.98849
20
23.2
11
64.3741187
21
23.2
0
LINE
8
0
10
64.3741187
20
23.2
11
64.3750546
21
23.2
0
LINE
8
0
10
64.3750546
20
23.2
11
64.3759848
21
23.2
0
LINE
8
0
10
64.3759848
20
23.2
11
64.3769089
21
23.2
0
LINE
8
0
10
64.3769089
20
23.2
11
65.8431256
21
23.2
0
LINE
8
0
10
65.8431256
20
23.2
11
65.8431229
21
26.8006678
0
LINE
8
0
10
65.8431229
20
26.8006678
11
65.8431229
21
29.2782074
0
LINE
8
0
10
65.8431229
20
29.2782074
11
65.8460588
21
29.310373
0
LINE
8
0
10
65.8460588
20
29.310373
11
65.854551
21
29.3689346
0
LINE
8
0
10
65.854551
20
29.3689346
11
65.8609673
21
29.4198739
0
LINE
8
0
10
65.8609673
20
29.4198739
11
65.8959647
21
29.5133471
0
LINE
8
0
10
65.8959647
20
29.5133471
11
65.9133411
21
29.559757
0
LINE
8
0
10
65.9133411
20
29.559757
11
65.9718254
21
29.6501593
0
LINE
8
0
10
65.9718254
20
29.6501593
11
65.9969032
21
29.6889233
0
LINE
8
0
10
65.9969032
20
29.6889233
11
66.0771275
21
29.769712
0
LINE
8
0
10
66.0771275
20
29.769712
11
66.1063135
21
29.7991033
0
LINE
8
0
10
66.1063135
20
29.7991033
11
66.2045558
21
29.8635548
0
LINE
8
0
10
66.2045558
20
29.8635548
11
66.2345769
21
29.8832501
0
LINE
8
0
10
66.2345769
20
29.8832501
11
66.3451045
21
29.9252265
0
LINE
8
0
10
66.3451045
20
29.9252265
11
66.3734828
21
29.9360021
0
LINE
8
0
10
66.3734828
20
29.9360021
11
66.4007817
21
29.9394886
0
LINE
8
0
10
66.4007817
20
29.9394886
11
66.487397
21
29.9526094
0
LINE
8
0
10
66.487397
20
29.9526094
11
66.5141651
21
29.9539659
0
LINE
8
0
10
66.5141651
20
29.9539659
11
72.3190548
21
29.953967
0
LINE
8
0
10
72.3190548
20
29.953967
11
74
21
29.953967
0
LINE
8
0
10
74
20
29.953967
11
74
21
29.4737547
0
LINE
8
0
10
74
20
29.4737547
11
74
21
24.1440523
0
LINE
8
0
10
74
20
24.1440523
11
74
21
22.6239445
0
LINE
8
0
10
74
20
22.6239445
11
74
21
22.6
0
LINE
8
0
10
74
20
22.6
11
73.7519605
21
22.3484767
0
LINE
8
0
10
73.7519605
20
22.3484767
11
73.68601
21
22.2816
0
LINE
8
0
10
73.68601
20
22.2816
11
73.4998396
21
22.0928085
0
LINE
8
0
10
73.4998396
20
22.0928085
11
73.44949
21
22.04175
0
LINE
8
0
10
73.44949
20
22.04175
11
73.2225243
21
21.8115926
0
LINE
8
0
10
73.2225243
20
21.8115926
11
73.15509
21
21.74321
0
LINE
8
0
10
73.15509
20
21.74321
11
72.6413555
21
21.2222526
0
LINE
8
0
10
72.6413555
20
21.2222526
11
72.6407594
21
21.2216482
0
LINE
8
0
10
72.6407594
20
21.2216482
11
72.4281089
21
21.0060053
0
LINE
8
0
10
72.4281089
20
21.0060053
11
72.2147166
21
20.7896161
0
LINE
8
0
10
72.2147166
20
20.7896161
11
72
21
20.57188
0
LINE
8
0
10
72
20
20.57188
11
72
21
18.6952659
0
LINE
8
0
10
72
20
18.6952659
11
72
21
18.5059302
0
LINE
8
0
10
72
20
18.5059302
11
72
21
17.0577629
0
LINE
8
0
10
72
20
17.0577629
11
72
21
17.0577629
0
ENDSEC
0
EOF
