0
SECTION
2
ENTITIES
0
LINE
8
0
10
73.4950363
20
22.0879375
11
73.44949
21
22.04175
0
LINE
8
0
10
73.44949
20
22.04175
11
73.2169178
21
21.8059072
0
LINE
8
0
10
73.2169178
20
21.8059072
11
73.15509
21
21.74321
0
LINE
8
0
10
73.15509
20
21.74321
11
72.6840679
21
21.2655656
0
LINE
8
0
10
72.6840679
20
21.2655656
11
72.6835214
21
21.2650114
0
LINE
8
0
10
72.6835214
20
21.2650114
11
72.4566794
21
21.0349773
0
LINE
8
0
10
72.4566794
20
21.0349773
11
72.229046
21
20.804147
0
LINE
8
0
10
72.229046
20
20.804147
11
72
21
20.57188
0
LINE
8
0
10
72
20
20.57188
11
72
21
18.5700275
0
LINE
8
0
10
72
20
18.5700275
11
72
21
18.3680562
0
LINE
8
0
10
72
20
18.3680562
11
72
21
16.8232434
0
LINE
8
0
10
72
20
16.8232434
11
72
21
16.8210805
0
LINE
8
0
10
72
20
16.8210805
11
71.9828553
21
16.3265077
0
LINE
8
0
10
71.9828553
20
16.3265077
11
71.9430322
21
15.6896846
0
LINE
8
0
10
71.9430322
20
15.6896846
11
71.8953028
21
15.2310307
0
LINE
8
0
10
71.8953028
20
15.2310307
11
71.8163619
21
14.7812668
0
LINE
8
0
10
71.8163619
20
14.7812668
11
71.690397
21
14.1140466
0
LINE
8
0
10
71.690397
20
14.1140466
11
71.5896092
21
13.7118807
0
LINE
8
0
10
71.5896092
20
13.7118807
11
71.3550153
21
12.9957034
0
LINE
8
0
10
71.3550153
20
12.9957034
11
71.239509
21
12.6469418
0
LINE
8
0
10
71.239509
20
12.6469418
11
71.1006492
21
12.3160301
0
LINE
8
0
10
71.1006492
20
12.3160301
11
70.7548768
21
11.6131016
0
LINE
8
0
10
70.7548768
20
11.6131016
11
70.6128252
21
11.3394872
0
LINE
8
0
10
70.6128252
20
11.3394872
11
70.4526917
21
11.0870852
0
LINE
8
0
10
70.4526917
20
11.0870852
11
69.9912085
21
10.4300748
0
LINE
8
0
10
69.9912085
20
10.4300748
11
69.8388321
21
10.2327652
0
LINE
8
0
10
69.8388321
20
10.2327652
11
69.6736612
21
10.0577476
0
LINE
8
0
10
69.6736612
20
10.0577476
11
69.0984058
21
9.48404139
0
LINE
8
0
10
69.0984058
20
9.48404139
11
68.9490161
21
9.3561068
0
LINE
8
0
10
68.9490161
20
9.3561068
11
68.7915763
21
9.24971011
0
LINE
8
0
10
68.7915763
20
9.24971011
11
68.1130874
21
8.79873787
0
LINE
8
0
10
68.1130874
20
8.79873787
11
67.9742493
21
8.72775824
0
LINE
8
0
10
67.9742493
20
8.72775824
11
67.1955474
21
8.43043327
0
LINE
8
0
10
67.1955474
20
8.43043327
11
67.0700878
21
8.38553085
0
LINE
8
0
10
67.0700878
20
8.38553085
11
66.942152
21
8.35841406
0
LINE
8
0
10
66.942152
20
8.35841406
11
66.1227436
21
8.25630451
0
LINE
8
0
10
66.1227436
20
8.25630451
11
66
21
8.24768861
0
LINE
8
0
10
66
20
8.24768861
11
63.4866543
21
8.24768874
0
LINE
8
0
10
63.4866543
20
8.24768874
11
62.4866863
21
8.24768874
0
LINE
8
0
10
62.4866863
20
8.24768874
11
58.5
21
8.24768874
0
LINE
8
0
10
58.5
20
8.24768874
11
58.4094233
21
8.37714637
0
LINE
8
0
10
58.4094233
20
8.37714637
11
57.3744608
21
9.85637743
0
LINE
8
0
10
57.3744608
20
9.85637743
11
57.3
21
9.96279977
0
LINE
8
0
10
57.3
20
9.96279977
11
57.3
21
10
0
LINE
8
0
10
57.3
20
10
11
57.3509287
21
10
0
LINE
8
0
10
57.3509287
20
10
11
57.5788384
21
10
0
LINE
8
0
10
57.5788384
20
10
11
63.0527806
21
10
0
LINE
8
0
10
63.0527806
20
10
11
63.1
21
10
0
LINE
8
0
10
63.1
20
10
11
63.1
21
10.5322918
0
LINE
8
0
10
63.1
20
10.5322918
11
63.1
21
22.4
0
LINE
8
0
10
63.1
20
22.4
11
63.1037809
21
22.4034028
0
LINE
8
0
10
63.1037809
20
22.4034028
11
63.1152603
21
22.4137388
0
LINE
8
0
10
63.1152603
20
22.4137388
11
63.1344727
21
22.4310373
0
LINE
8
0
10
63.1344727
20
22.4310373
11
63.1612402
21
22.4551402
0
LINE
8
0
10
63.1612402
20
22.4551402
11
63.1951219
21
22.485649
0
LINE
8
0
10
63.1951219
20
22.485649
11
63.2354035
21
22.5219164
0
LINE
8
0
10
63.2354035
20
22.5219164
11
63.3309863
21
22.6079868
0
LINE
8
0
10
63.3309863
20
22.6079868
11
63.4373931
21
22.7037905
0
LINE
8
0
10
63.4373931
20
22.7037905
11
63.6867271
21
22.9282919
0
LINE
8
0
10
63.6867271
20
22.9282919
11
63.8006667
21
23.0308803
0
LINE
8
0
10
63.8006667
20
23.0308803
11
63.905096
21
23.1249138
0
LINE
8
0
10
63.905096
20
23.1249138
11
63.950021
21
23.1653633
0
LINE
8
0
10
63.950021
20
23.1653633
11
63.98849
21
23.2
0
LINE
8
0
10
63.98849
20
23.2
11
64.43756
21
23.2
0
LINE
8
0
10
64.43756
20
23.2
11
64.438383
21
23.2
0
LINE
8
0
10
64.438383
20
23.2
11
64.4392009
21
23.2
0
LINE
8
0
10
64.4392009
20
23.2
11
64.4400136
21
23.2
0
LINE
8
0
10
64.4400136
20
23.2
11
65.7293488
21
23.2
0
LINE
8
0
10
65.7293488
20
23.2
11
65.7293459
21
27.0864338
0
LINE
8
0
10
65.7293459
20
27.0864338
11
65.7293459
21
29.160426
0
LINE
8
0
10
65.7293459
20
29.160426
11
65.7318036
21
29.1873524
0
LINE
8
0
10
65.7318036
20
29.1873524
11
65.7389126
21
29.2363753
0
LINE
8
0
10
65.7389126
20
29.2363753
11
65.7471902
21
29.3020925
0
LINE
8
0
10
65.7471902
20
29.3020925
11
65.7766975
21
29.3809023
0
LINE
8
0
10
65.7766975
20
29.3809023
11
65.799564
21
29.4419755
0
LINE
8
0
10
65.799564
20
29.4419755
11
65.8492624
21
29.518797
0
LINE
8
0
10
65.8492624
20
29.518797
11
65.8831261
21
29.5711418
0
LINE
8
0
10
65.8831261
20
29.5711418
11
65.9518361
21
29.6403351
0
LINE
8
0
10
65.9518361
20
29.6403351
11
65.9925364
21
29.6813218
0
LINE
8
0
10
65.9925364
20
29.6813218
11
66.0772967
21
29.7369285
0
LINE
8
0
10
66.0772967
20
29.7369285
11
66.1207998
21
29.7654686
0
LINE
8
0
10
66.1207998
20
29.7654686
11
66.2167745
21
29.8019181
0
LINE
8
0
10
66.2167745
20
29.8019181
11
66.2597057
21
29.8182196
0
LINE
8
0
10
66.2597057
20
29.8182196
11
66.3010039
21
29.823494
0
LINE
8
0
10
66.3010039
20
29.823494
11
66.3769252
21
29.8349949
0
LINE
8
0
10
66.3769252
20
29.8349949
11
66.4003884
21
29.8361838
0
LINE
8
0
10
66.4003884
20
29.8361838
11
72.8907418
21
29.8361851
0
LINE
8
0
10
72.8907418
20
29.8361851
11
74
21
29.8361851
0
LINE
8
0
10
74
20
29.8361851
11
74
21
29.5192923
0
LINE
8
0
10
74
20
29.5192923
11
74
21
23.6189225
0
LINE
8
0
10
74
20
23.6189225
11
74
21
22.615801
0
LINE
8
0
10
74
20
22.615801
11
74
21
22.6
0
LINE
8
0
10
74
20
22.6
11
73.7444305
21
22.340841
0
LINE
8
0
10
73.7444305
20
22.340841
11
73.68601
21
22.2816
0
LINE
8
0
10
73.68601
20
22.2816
11
73.4950363
21
22.0879375
0
LINE
8
0
10
73.4950363
20
22.0879375
11
73.4950363
21
22.0879375
0
LINE
8
0
10
16
20
41.6180679
11
16
21
41.8338416
0
LINE
8
0
10
16
20
41.8338416
11
5.44014094
21
41.8338416
0
LINE
8
0
10
5.44014094
20
41.8338416
11
2.4
21
41.8338416
0
LINE
8
0
10
2.4
20
41.8338416
11
2.4
21
41.6346223
0
LINE
8
0
10
2.4
20
41.6346223
11
2.4
21
40.923811
0
LINE
8
0
10
2.4
20
40.923811
11
2.4
21
40.3765009
0
LINE
8
0
10
2.4
20
40.3765009
11
2.4
21
39.481511
0
LINE
8
0
10
2.4
20
39.481511
11
2.4
21
38.8410892
0
LINE
8
0
10
2.4
20
38.8410892
11
2.4
21
30.1442245
0
LINE
8
0
10
2.4
20
30.1442245
11
2.4
21
28.2030229
0
LINE
8
0
10
2.4
20
28.2030229
11
2.4
21
26.5938736
0
LINE
8
0
10
2.4
20
26.5938736
11
2.4
21
23.5033496
0
LINE
8
0
10
2.4
20
23.5033496
11
6.95322711
21
23.5033519
0
LINE
8
0
10
6.95322711
20
23.5033519
11
13.8
21
23.5033519
0
LINE
8
0
10
13.8
20
23.5033519
11
13.9565951
21
23.5153221
0
LINE
8
0
10
13.9565951
20
23.5153221
11
14.19207
21
23.5333219
0
LINE
8
0
10
14.19207
20
23.5333219
11
14.3471553
21
23.5691087
0
LINE
8
0
10
14.3471553
20
23.5691087
11
14.58036
21
23.6229279
0
LINE
8
0
10
14.58036
20
23.6229279
11
14.7324458
21
23.6821958
0
LINE
8
0
10
14.7324458
20
23.6821958
11
14.96114
21
23.7713119
0
LINE
8
0
10
14.96114
20
23.7713119
11
15.1087564
21
23.8534817
0
LINE
8
0
10
15.1087564
20
23.8534817
11
15.33073
21
23.9770419
0
LINE
8
0
10
15.33073
20
23.9770419
11
15.4724632
21
24.0813268
0
LINE
8
0
10
15.4724632
20
24.0813268
11
15.68559
21
24.2381479
0
LINE
8
0
10
15.68559
20
24.2381479
11
15.820066
21
24.3635454
0
LINE
8
0
10
15.820066
20
24.3635454
11
16.02228
21
24.5521019
0
LINE
8
0
10
16.02228
20
24.5521019
11
16.1482087
21
24.6973978
0
LINE
8
0
10
16.1482087
20
24.6973978
11
16.33757
21
24.9158879
0
LINE
8
0
10
16.33757
20
24.9158879
11
16.4537412
21
25.0796923
0
LINE
8
0
10
16.4537412
20
25.0796923
11
16.62843
21
25.3260019
0
LINE
8
0
10
16.62843
20
25.3260019
11
16.8271145
21
25.7026377
0
LINE
8
0
10
16.8271145
20
25.7026377
11
17.12588
21
26.2689919
0
LINE
8
0
10
17.12588
20
26.2689919
11
17.2735164
21
26.6986967
0
LINE
8
0
10
17.2735164
20
26.6986967
11
17.49552
21
27.3448519
0
LINE
8
0
10
17.49552
20
27.3448519
11
17.5864328
21
27.8111064
0
LINE
8
0
10
17.5864328
20
27.8111064
11
17.72314
21
28.5122219
0
LINE
8
0
10
17.72314
20
28.5122219
11
17.7538383
21
28.9971127
0
LINE
8
0
10
17.7538383
20
28.9971127
11
17.8
21
29.7262519
0
LINE
8
0
10
17.8
20
29.7262519
11
17.8
21
30.7820295
0
LINE
8
0
10
17.8
20
30.7820295
11
17.8
21
33.1791109
0
LINE
8
0
10
17.8
20
33.1791109
11
17.8
21
35.2035564
0
LINE
8
0
10
17.8
20
35.2035564
11
17.8
21
35.8644936
0
LINE
8
0
10
17.8
20
35.8644936
11
16.442082
21
35.8644936
0
LINE
8
0
10
16.442082
20
35.8644936
11
16
21
35.8644936
0
LINE
8
0
10
16
20
35.8644936
11
16
21
37.3224201
0
LINE
8
0
10
16
20
37.3224201
11
16
21
37.7839501
0
LINE
8
0
10
16
20
37.7839501
11
16
21
38.9515228
0
LINE
8
0
10
16
20
38.9515228
11
16
21
39.8383114
0
LINE
8
0
10
16
20
39.8383114
11
16
21
40.3424156
0
LINE
8
0
10
16
20
40.3424156
11
16
21
40.6521944
0
LINE
8
0
10
16
20
40.6521944
11
16
21
41.5728911
0
LINE
8
0
10
16
20
41.5728911
11
16
21
41.6180679
0
LINE
8
0
10
16
20
41.6180679
11
16
21
41.6180679
0
LINE
8
0
10
35.2
20
-11.2484546
11
35.2
21
-10.7415001
0
LINE
8
0
10
35.2
20
-10.7415001
11
35.2
21
-9.94717094
0
LINE
8
0
10
35.2
20
-9.94717094
11
35.2
21
-9.75032179
0
LINE
8
0
10
35.2
20
-9.75032179
11
34.2026073
21
-8.5935005
0
LINE
8
0
10
34.2026073
20
-8.5935005
11
34
21
-8.35712626
0
LINE
8
0
10
34
20
-8.35712626
11
33.8154577
21
-8.35712626
0
LINE
8
0
10
33.8154577
20
-8.35712626
11
29.4
21
-8.35712626
0
LINE
8
0
10
29.4
20
-8.35712626
11
29.1973927
21
-8.5935005
0
LINE
8
0
10
29.1973927
20
-8.5935005
11
28.2
21
-9.75032179
0
LINE
8
0
10
28.2
20
-9.75032179
11
28.2
21
-9.98463362
0
LINE
8
0
10
28.2
20
-9.98463362
11
28.2
21
-10.9073852
0
LINE
8
0
10
28.2
20
-10.9073852
11
28.2
21
-11.4690225
0
LINE
8
0
10
28.2
20
-11.4690225
11
28.2
21
-11.7830206
0
LINE
8
0
10
28.2
20
-11.7830206
11
28.2
21
-13.5
0
LINE
8
0
10
28.2
20
-13.5
11
28.2083432
21
-13.6698023
0
LINE
8
0
10
28.2083432
20
-13.6698023
11
28.21204
21
-13.74504
0
LINE
8
0
10
28.21204
20
-13.74504
11
28.2569319
21
-13.9917521
0
LINE
8
0
10
28.2569319
20
-13.9917521
11
28.2708929
21
-14.0857362
0
LINE
8
0
10
28.2708929
20
-14.0857362
11
28.3250474
21
-14.2644722
0
LINE
8
0
10
28.3250474
20
-14.2644722
11
28.4800929
21
-14.6387853
0
LINE
8
0
10
28.4800929
20
-14.6387853
11
28.566936
21
-14.8014551
0
LINE
8
0
10
28.566936
20
-14.8014551
11
28.8170828
21
-15.1274601
0
LINE
8
0
10
28.8170828
20
-15.1274601
11
28.93223
21
-15.26777
0
LINE
8
0
10
28.93223
20
-15.26777
11
29.0634195
21
-15.3754323
0
LINE
8
0
10
29.0634195
20
-15.3754323
11
29.4018896
21
-15.6351438
0
LINE
8
0
10
29.4018896
20
-15.6351438
11
29.547589
21
-15.7131874
0
LINE
8
0
10
29.547589
20
-15.7131874
11
29.949914
21
-15.8798358
0
LINE
8
0
10
29.949914
20
-15.8798358
11
30.1038024
21
-15.9266677
0
LINE
8
0
10
30.1038024
20
-15.9266677
11
30.2510839
21
-15.9408961
0
LINE
8
0
10
30.2510839
20
-15.9408961
11
30.5272996
21
-15.9829895
0
LINE
8
0
10
30.5272996
20
-15.9829895
11
30.7
21
-16
0
LINE
8
0
10
30.7
20
-16
11
31.8675631
21
-16
0
LINE
8
0
10
31.8675631
20
-16
11
32.7
21
-16
0
LINE
8
0
10
32.7
20
-16
11
33.0092869
21
-15.9695361
0
LINE
8
0
10
33.0092869
20
-15.9695361
11
33.3053687
21
-15.9202977
0
LINE
8
0
10
33.3053687
20
-15.9202977
11
33.34705
21
-15.91481
0
LINE
8
0
10
33.34705
20
-15.91481
11
33.872319
21
-15.6972365
0
LINE
8
0
10
33.872319
20
-15.6972365
11
33.95
21
-15.66506
0
LINE
8
0
10
33.95
20
-15.66506
11
34.4010631
21
-15.3189548
0
LINE
8
0
10
34.4010631
20
-15.3189548
11
34.46777
21
-15.26777
0
LINE
8
0
10
34.46777
20
-15.26777
11
34.8138752
21
-14.8167069
0
LINE
8
0
10
34.8138752
20
-14.8167069
11
34.86506
21
-14.75
0
LINE
8
0
10
34.86506
20
-14.75
11
35.0826335
21
-14.224731
0
LINE
8
0
10
35.0826335
20
-14.224731
11
35.11481
21
-14.14705
0
LINE
8
0
10
35.11481
20
-14.14705
11
35.1572796
21
-13.8244775
0
LINE
8
0
10
35.1572796
20
-13.8244775
11
35.1957732
21
-13.5860243
0
LINE
8
0
10
35.1957732
20
-13.5860243
11
35.2
21
-13.5
0
LINE
8
0
10
35.2
20
-13.5
11
35.2
21
-11.5330928
0
LINE
8
0
10
35.2
20
-11.5330928
11
35.2
21
-11.2484546
0
LINE
8
0
10
35.2
20
-11.2484546
11
35.2
21
-11.2484546
0
LINE
8
0
10
35.2
20
10
11
35.2
21
8.59878442
0
LINE
8
0
10
35.2
20
8.59878442
11
35.2
21
4.25298263
0
LINE
8
0
10
35.2
20
4.25298263
11
34.8015067
21
3.68343242
0
LINE
8
0
10
34.8015067
20
3.68343242
11
34
21
2.5378714
0
LINE
8
0
10
34
20
2.5378714
11
33.039663
21
2.5378714
0
LINE
8
0
10
33.039663
20
2.5378714
11
29.4
21
2.5378714
0
LINE
8
0
10
29.4
20
2.5378714
11
28.5984933
21
3.68343242
0
LINE
8
0
10
28.5984933
20
3.68343242
11
28.2
21
4.25298263
0
LINE
8
0
10
28.2
20
4.25298263
11
28.2
21
8.89286976
0
LINE
8
0
10
28.2
20
8.89286976
11
28.2
21
9.63974317
0
LINE
8
0
10
28.2
20
9.63974317
11
28.2
21
9.74829959
0
LINE
8
0
10
28.2
20
9.74829959
11
28.2
21
10.7990202
0
LINE
8
0
10
28.2
20
10.7990202
11
28.2
21
15
0
LINE
8
0
10
28.2
20
15
11
28.8005941
21
15
0
LINE
8
0
10
28.8005941
20
15
11
30.2
21
15
0
LINE
8
0
10
30.2
20
15
11
30.2
21
14.2977139
0
LINE
8
0
10
30.2
20
14.2977139
11
30.2
21
12.65094
0
LINE
8
0
10
30.2
20
12.65094
11
30.2
21
12.5728979
0
LINE
8
0
10
30.2
20
12.5728979
11
30.2
21
12.39302
0
LINE
8
0
10
30.2
20
12.39302
11
30.2
21
12.3155794
0
LINE
8
0
10
30.2
20
12.3155794
11
30.2
21
12.13557
0
LINE
8
0
10
30.2
20
12.13557
11
30.2
21
12.0635682
0
LINE
8
0
10
30.2
20
12.0635682
11
30.2
21
11.89597
0
LINE
8
0
10
30.2
20
11.89597
11
30.2
21
11.8339576
0
LINE
8
0
10
30.2
20
11.8339576
11
30.2
21
11.69043
0
LINE
8
0
10
30.2
20
11.69043
11
30.2
21
11.6424774
0
LINE
8
0
10
30.2
20
11.6424774
11
30.2
21
11.53281
0
LINE
8
0
10
30.2
20
11.53281
11
30.2
21
11.1113269
0
LINE
8
0
10
30.2
20
11.1113269
11
30.2
21
10
0
LINE
8
0
10
30.2
20
10
11
31.9561672
21
10
0
LINE
8
0
10
31.9561672
20
10
11
35.2
21
10
0
LINE
8
0
10
35.2
20
10
11
35.2
21
10
0
LINE
8
0
10
72
20
-6.28413654
11
72
21
-7.15943088
0
LINE
8
0
10
72
20
-7.15943088
11
72
21
-7.88081753
0
LINE
8
0
10
72
20
-7.88081753
11
72
21
-8.64678883
0
LINE
8
0
10
72
20
-8.64678883
11
72
21
-8.78612136
0
LINE
8
0
10
72
20
-8.78612136
11
72
21
-13.5
0
LINE
8
0
10
72
20
-13.5
11
71.9401568
21
-13.9545312
0
LINE
8
0
10
71.9401568
20
-13.9545312
11
71.91481
21
-14.14705
0
LINE
8
0
10
71.91481
20
-14.14705
11
71.7393689
21
-14.5706024
0
LINE
8
0
10
71.7393689
20
-14.5706024
11
71.66506
21
-14.75
0
LINE
8
0
10
71.66506
20
-14.75
11
71.3859769
21
-15.1137163
0
LINE
8
0
10
71.3859769
20
-15.1137163
11
71.26777
21
-15.26777
0
LINE
8
0
10
71.26777
20
-15.26777
11
70.9040537
21
-15.5468531
0
LINE
8
0
10
70.9040537
20
-15.5468531
11
70.75
21
-15.66506
0
LINE
8
0
10
70.75
20
-15.66506
11
70.3264476
21
-15.8405011
0
LINE
8
0
10
70.3264476
20
-15.8405011
11
70.14705
21
-15.91481
0
LINE
8
0
10
70.14705
20
-15.91481
11
69.9545312
21
-15.9401568
0
LINE
8
0
10
69.9545312
20
-15.9401568
11
69.5
21
-16
0
LINE
8
0
10
69.5
20
-16
11
66.0233152
21
-16
0
LINE
8
0
10
66.0233152
20
-16
11
58.8
21
-16
0
LINE
8
0
10
58.8
20
-16
11
58.7614053
21
-15.9992048
0
LINE
8
0
10
58.7614053
20
-15.9992048
11
58.73836
21
-15.99873
0
LINE
8
0
10
58.73836
20
-15.99873
11
58.6998559
21
-15.9963536
0
LINE
8
0
10
58.6998559
20
-15.9963536
11
58.67679
21
-15.99493
0
LINE
8
0
10
58.67679
20
-15.99493
11
58.653903
21
-15.9925691
0
LINE
8
0
10
58.653903
20
-15.9925691
11
58.4788178
21
-15.9605377
0
LINE
8
0
10
58.4788178
20
-15.9605377
11
58.41177
21
-15.94889
0
LINE
8
0
10
58.41177
20
-15.94889
11
58.2319587
21
-15.8744097
0
LINE
8
0
10
58.2319587
20
-15.8744097
11
58.05
21
-15.79904
0
LINE
8
0
10
58.05
20
-15.79904
11
57.895592
21
-15.6805575
0
LINE
8
0
10
57.895592
20
-15.6805575
11
57.73934
21
-15.56066
0
LINE
8
0
10
57.73934
20
-15.56066
11
57.6208575
21
-15.406252
0
LINE
8
0
10
57.6208575
20
-15.406252
11
57.50096
21
-15.25
0
LINE
8
0
10
57.50096
20
-15.25
11
57.4264797
21
-15.0701887
0
LINE
8
0
10
57.4264797
20
-15.0701887
11
57.35111
21
-14.88823
0
LINE
8
0
10
57.35111
20
-14.88823
11
57.3417672
21
-14.8172624
0
LINE
8
0
10
57.3417672
20
-14.8172624
11
57.3228145
21
-14.7073843
0
LINE
8
0
10
57.3228145
20
-14.7073843
11
57.3
21
-14.5
0
LINE
8
0
10
57.3
20
-14.5
11
57.3
21
-14.2904732
0
LINE
8
0
10
57.3
20
-14.2904732
11
57.3
21
-14.17729
0
LINE
8
0
10
57.3
20
-14.17729
11
57.3
21
-7.703114
0
LINE
8
0
10
57.3
20
-7.703114
11
57.3
21
-7.6188518
0
LINE
8
0
10
57.3
20
-7.6188518
11
57.3
21
-6.87784342
0
LINE
8
0
10
57.3
20
-6.87784342
11
57.3
21
-6.80612843
0
LINE
8
0
10
57.3
20
-6.80612843
11
57.3
21
-5.77843682
0
LINE
8
0
10
57.3
20
-5.77843682
11
57.3
21
-4.36172885
0
LINE
8
0
10
57.3
20
-4.36172885
11
57.3
21
-4.04050398
0
LINE
8
0
10
57.3
20
-4.04050398
11
58.2973927
21
-2.8836825
0
LINE
8
0
10
58.2973927
20
-2.8836825
11
58.5
21
-2.64730826
0
LINE
8
0
10
58.5
20
-2.64730826
11
61.8705335
21
-2.65142344
0
LINE
8
0
10
61.8705335
20
-2.65142344
11
68.5080045
21
-2.64443987
0
LINE
8
0
10
68.5080045
20
-2.64443987
11
68.5794
21
-2.65261898
0
LINE
8
0
10
68.5794
20
-2.65261898
11
68.8243982
21
-2.66379876
0
LINE
8
0
10
68.8243982
20
-2.66379876
11
68.9238793
21
-2.68014573
0
LINE
8
0
10
68.9238793
20
-2.68014573
11
69.1513951
21
-2.71761974
0
LINE
8
0
10
69.1513951
20
-2.71761974
11
69.2302242
21
-2.73950651
0
LINE
8
0
10
69.2302242
20
-2.73950651
11
69.4843511
21
-2.81033731
0
LINE
8
0
10
69.4843511
20
-2.81033731
11
69.5300889
21
-2.82849827
0
LINE
8
0
10
69.5300889
20
-2.82849827
11
69.8171138
21
-2.94308113
0
LINE
8
0
10
69.8171138
20
-2.94308113
11
69.8206132
21
-2.94492071
0
LINE
8
0
10
69.8206132
20
-2.94492071
11
69.8395417
21
-2.95493952
0
LINE
8
0
10
69.8395417
20
-2.95493952
11
70.0986037
21
-3.08608121
0
LINE
8
0
10
70.0986037
20
-3.08608121
11
70.1418143
21
-3.10809016
0
LINE
8
0
10
70.1418143
20
-3.10809016
11
70.3614919
21
-3.24960119
0
LINE
8
0
10
70.3614919
20
-3.24960119
11
70.453288
21
-3.30916925
0
LINE
8
0
10
70.453288
20
-3.30916925
11
70.60823
21
-3.43323613
0
LINE
8
0
10
70.60823
20
-3.43323613
11
70.7455694
21
-3.54414276
0
LINE
8
0
10
70.7455694
20
-3.54414276
11
70.8380747
21
-3.63514093
0
LINE
8
0
10
70.8380747
20
-3.63514093
11
71.013294
21
-3.8091367
0
LINE
8
0
10
71.013294
20
-3.8091367
11
71.0503608
21
-3.85379129
0
LINE
8
0
10
71.0503608
20
-3.85379129
11
71.2041366
21
-4.04096409
0
LINE
8
0
10
71.2041366
20
-4.04096409
11
71.245146
21
-4.0888517
0
LINE
8
0
10
71.245146
20
-4.0888517
11
71.2519613
21
-4.0968997
0
LINE
8
0
10
71.2519613
20
-4.0968997
11
71.4220501
21
-4.34150843
0
LINE
8
0
10
71.4220501
20
-4.34150843
11
71.4582257
21
-4.39416193
0
LINE
8
0
10
71.4582257
20
-4.39416193
11
71.5756357
21
-4.60491365
0
LINE
8
0
10
71.5756357
20
-4.60491365
11
71.6309812
21
-4.7055108
0
LINE
8
0
10
71.6309812
20
-4.7055108
11
71.7055285
21
-4.87669863
0
LINE
8
0
10
71.7055285
20
-4.87669863
11
71.7694546
21
-5.02542511
0
LINE
8
0
10
71.7694546
20
-5.02542511
11
71.8114911
21
-5.15436708
0
LINE
8
0
10
71.8114911
20
-5.15436708
11
71.8739684
21
-5.34858236
0
LINE
8
0
10
71.8739684
20
-5.34858236
11
71.8935299
21
-5.43528409
0
LINE
8
0
10
71.8935299
20
-5.43528409
11
71.9457789
21
-5.67006845
0
LINE
8
0
10
71.9457789
20
-5.67006845
11
71.9519362
21
-5.71671931
0
LINE
8
0
10
71.9519362
20
-5.71671931
11
71.9869213
21
-5.98554941
0
LINE
8
0
10
71.9869213
20
-5.98554941
11
71.9873717
21
-5.99593756
0
LINE
8
0
10
71.9873717
20
-5.99593756
11
71.9906491
21
-6.072783
0
LINE
8
0
10
71.9906491
20
-6.072783
11
72
21
-6.28413654
0
LINE
8
0
10
72
20
-6.28413654
11
72
21
-6.28413654
0
ENDSEC
0
EOF
