0
SECTION
2
ENTITIES
0
LINE
8
0
10
16
20
41.5414016
11
16
21
41.4215828
0
LINE
8
0
10
16
20
41.4215828
11
16
21
40.552191
0
LINE
8
0
10
16
20
40.552191
11
16
21
40.1630716
0
LINE
8
0
10
16
20
40.1630716
11
16
21
39.5298563
0
LINE
8
0
10
16
20
39.5298563
11
16
21
38.7390831
0
LINE
8
0
10
16
20
38.7390831
11
16
21
37.4192531
0
LINE
8
0
10
16
20
37.4192531
11
16
21
37.0693995
0
LINE
8
0
10
16
20
37.0693995
11
16
21
35.9642472
0
LINE
8
0
10
16
20
35.9642472
11
16.7706572
21
35.9642472
0
LINE
8
0
10
16.7706572
20
35.9642472
11
17.8
21
35.9642472
0
LINE
8
0
10
17.8
20
35.9642472
11
17.8
21
34.8120717
0
LINE
8
0
10
17.8
20
34.8120717
11
17.8
21
32.8717694
0
LINE
8
0
10
17.8
20
32.8717694
11
17.8
21
30.5743194
0
LINE
8
0
10
17.8
20
30.5743194
11
17.8
21
29.4525558
0
LINE
8
0
10
17.8
20
29.4525558
11
17.755757
21
28.7537222
0
LINE
8
0
10
17.755757
20
28.7537222
11
17.72314
21
28.2385258
0
LINE
8
0
10
17.72314
20
28.2385258
11
17.5921148
21
27.5665512
0
LINE
8
0
10
17.5921148
20
27.5665512
11
17.49552
21
27.0711558
0
LINE
8
0
10
17.49552
20
27.0711558
11
17.2827437
21
26.4518572
0
LINE
8
0
10
17.2827437
20
26.4518572
11
17.12588
21
25.9952958
0
LINE
8
0
10
17.12588
20
25.9952958
11
16.8395322
21
25.4524813
0
LINE
8
0
10
16.8395322
20
25.4524813
11
16.62843
21
25.0523058
0
LINE
8
0
10
16.62843
20
25.0523058
11
16.4610019
21
24.8162337
0
LINE
8
0
10
16.4610019
20
24.8162337
11
16.33757
21
24.6421916
0
LINE
8
0
10
16.33757
20
24.6421916
11
16.1560792
21
24.4327827
0
LINE
8
0
10
16.1560792
20
24.4327827
11
16.02228
21
24.2784058
0
LINE
8
0
10
16.02228
20
24.2784058
11
15.8284707
21
24.0976864
0
LINE
8
0
10
15.8284707
20
24.0976864
11
15.68559
21
23.9644516
0
LINE
8
0
10
15.68559
20
23.9644516
11
15.4813215
21
23.8141485
0
LINE
8
0
10
15.4813215
20
23.8141485
11
15.33073
21
23.7033458
0
LINE
8
0
10
15.33073
20
23.7033458
11
15.1179824
21
23.5849212
0
LINE
8
0
10
15.1179824
20
23.5849212
11
14.96114
21
23.4976158
0
LINE
8
0
10
14.96114
20
23.4976158
11
14.7419511
21
23.4122036
0
LINE
8
0
10
14.7419511
20
23.4122036
11
14.58036
21
23.3492316
0
LINE
8
0
10
14.58036
20
23.3492316
11
14.3568481
21
23.2976492
0
LINE
8
0
10
14.3568481
20
23.2976492
11
14.19207
21
23.2596258
0
LINE
8
0
10
14.19207
20
23.2596258
11
13.9663823
21
23.2423741
0
LINE
8
0
10
13.9663823
20
23.2423741
11
13.8
21
23.2296558
0
LINE
8
0
10
13.8
20
23.2296558
11
7.23780381
21
23.2296558
0
LINE
8
0
10
7.23780381
20
23.2296558
11
2.4
21
23.2296533
0
LINE
8
0
10
2.4
20
23.2296533
11
2.4
21
26.5133351
0
LINE
8
0
10
2.4
20
26.5133351
11
2.4
21
28.2230562
0
LINE
8
0
10
2.4
20
28.2230562
11
2.4
21
30.2855829
0
LINE
8
0
10
2.4
20
30.2855829
11
2.4
21
38.7172884
0
LINE
8
0
10
2.4
20
38.7172884
11
2.4
21
39.3381843
0
LINE
8
0
10
2.4
20
39.3381843
11
2.4
21
40.2058868
0
LINE
8
0
10
2.4
20
40.2058868
11
2.4
21
40.8933739
0
LINE
8
0
10
2.4
20
40.8933739
11
2.4
21
41.5853074
0
LINE
8
0
10
2.4
20
41.5853074
11
2.4
21
42.1136802
0
LINE
8
0
10
2.4
20
42.1136802
11
10.4631125
21
42.1136802
0
LINE
8
0
10
10.4631125
20
42.1136802
11
16
21
42.1136802
0
LINE
8
0
10
16
20
42.1136802
11
16
21
41.5414016
0
LINE
8
0
10
16
20
41.5414016
11
16
21
41.5414016
0
LINE
8
0
10
35.2
20
10
11
35.2
21
8.63587763
0
LINE
8
0
10
35.2
20
8.63587763
11
35.2
21
4.01846323
0
LINE
8
0
10
35.2
20
4.01846323
11
34.8516009
21
3.52051058
0
LINE
8
0
10
34.8516009
20
3.52051058
11
34
21
2.30335199
0
LINE
8
0
10
34
20
2.30335199
11
33.267142
21
2.30335199
0
LINE
8
0
10
33.267142
20
2.30335199
11
29.4
21
2.30335199
0
LINE
8
0
10
29.4
20
2.30335199
11
28.5483991
21
3.52051058
0
LINE
8
0
10
28.5483991
20
3.52051058
11
28.2
21
4.01846323
0
LINE
8
0
10
28.2
20
4.01846323
11
28.2
21
8.94834331
0
LINE
8
0
10
28.2
20
8.94834331
11
28.2
21
9.7418963
0
LINE
8
0
10
28.2
20
9.7418963
11
28.2
21
9.8572375
0
LINE
8
0
10
28.2
20
9.8572375
11
28.2
21
10.9736281
0
LINE
8
0
10
28.2
20
10.9736281
11
28.2
21
15
0
LINE
8
0
10
28.2
20
15
11
28.7756312
21
15
0
LINE
8
0
10
28.7756312
20
15
11
30.2
21
15
0
LINE
8
0
10
30.2
20
15
11
30.2
21
14.3269034
0
LINE
8
0
10
30.2
20
14.3269034
11
30.2
21
12.65094
0
LINE
8
0
10
30.2
20
12.65094
11
30.2
21
12.5760942
0
LINE
8
0
10
30.2
20
12.5760942
11
30.2
21
12.39302
0
LINE
8
0
10
30.2
20
12.39302
11
30.2
21
12.3187692
0
LINE
8
0
10
30.2
20
12.3187692
11
30.2
21
12.13557
0
LINE
8
0
10
30.2
20
12.13557
11
30.2
21
12.0665152
0
LINE
8
0
10
30.2
20
12.0665152
11
30.2
21
11.89597
0
LINE
8
0
10
30.2
20
11.89597
11
30.2
21
11.836451
0
LINE
8
0
10
30.2
20
11.836451
11
30.2
21
11.69043
0
LINE
8
0
10
30.2
20
11.69043
11
30.2
21
11.6443532
0
LINE
8
0
10
30.2
20
11.6443532
11
30.2
21
11.53281
0
LINE
8
0
10
30.2
20
11.53281
11
30.2
21
11.1272541
0
LINE
8
0
10
30.2
20
11.1272541
11
30.2
21
10
0
LINE
8
0
10
30.2
20
10
11
31.9096776
21
10
0
LINE
8
0
10
31.9096776
20
10
11
35.2
21
10
0
LINE
8
0
10
35.2
20
10
11
35.2
21
10
0
LINE
8
0
10
35.2
20
-11.5851611
11
35.2
21
-13.5
0
LINE
8
0
10
35.2
20
-13.5
11
35.1958851
21
-13.5837471
0
LINE
8
0
10
35.1958851
20
-13.5837471
11
35.1584105
21
-13.8158878
0
LINE
8
0
10
35.1584105
20
-13.8158878
11
35.11481
21
-14.14705
0
LINE
8
0
10
35.11481
20
-14.14705
11
35.0884271
21
-14.2107439
0
LINE
8
0
10
35.0884271
20
-14.2107439
11
34.86506
21
-14.75
0
LINE
8
0
10
34.86506
20
-14.75
11
34.8230914
21
-14.8046957
0
LINE
8
0
10
34.8230914
20
-14.8046957
11
34.46777
21
-15.26777
0
LINE
8
0
10
34.46777
20
-15.26777
11
34.4130743
21
-15.3097386
0
LINE
8
0
10
34.4130743
20
-15.3097386
11
33.95
21
-15.66506
0
LINE
8
0
10
33.95
20
-15.66506
11
33.8863061
21
-15.6914429
0
LINE
8
0
10
33.8863061
20
-15.6914429
11
33.34705
21
-15.91481
0
LINE
8
0
10
33.34705
20
-15.91481
11
33.3128738
21
-15.9193096
0
LINE
8
0
10
33.3128738
20
-15.9193096
11
33.0131212
21
-15.9691585
0
LINE
8
0
10
33.0131212
20
-15.9691585
11
32.7
21
-16
0
LINE
8
0
10
32.7
20
-16
11
31.8846698
21
-16
0
LINE
8
0
10
31.8846698
20
-16
11
30.7
21
-16
0
LINE
8
0
10
30.7
20
-16
11
30.5320635
21
-15.9834587
0
LINE
8
0
10
30.5320635
20
-15.9834587
11
30.2634673
21
-15.9425265
0
LINE
8
0
10
30.2634673
20
-15.9425265
11
30.1069807
21
-15.9274088
0
LINE
8
0
10
30.1069807
20
-15.9274088
11
29.9434743
21
-15.8776499
0
LINE
8
0
10
29.9434743
20
-15.8776499
11
29.5536884
21
-15.7161953
0
LINE
8
0
10
29.5536884
20
-15.7161953
11
29.3988827
21
-15.633274
0
LINE
8
0
10
29.3988827
20
-15.633274
11
29.0716188
21
-15.3821612
0
LINE
8
0
10
29.0716188
20
-15.3821612
11
28.93223
21
-15.26777
0
LINE
8
0
10
28.93223
20
-15.26777
11
28.8098861
21
-15.1186907
0
LINE
8
0
10
28.8098861
20
-15.1186907
11
28.5689358
21
-14.8046711
0
LINE
8
0
10
28.5689358
20
-14.8046711
11
28.476665
21
-14.6318344
0
LINE
8
0
10
28.476665
20
-14.6318344
11
28.3275385
21
-14.2718111
0
LINE
8
0
10
28.3275385
20
-14.2718111
11
28.2699994
21
-14.081904
0
LINE
8
0
10
28.2699994
20
-14.081904
11
28.2551658
21
-13.982046
0
LINE
8
0
10
28.2551658
20
-13.982046
11
28.21204
21
-13.74504
0
LINE
8
0
10
28.21204
20
-13.74504
11
28.2084886
21
-13.6727623
0
LINE
8
0
10
28.2084886
20
-13.6727623
11
28.2
21
-13.5
0
LINE
8
0
10
28.2
20
-13.5
11
28.2
21
-11.8507094
0
LINE
8
0
10
28.2
20
-11.8507094
11
28.2
21
-11.5490901
0
LINE
8
0
10
28.2
20
-11.5490901
11
28.2
21
-11.0095943
0
LINE
8
0
10
28.2
20
-11.0095943
11
28.2
21
-10.1232205
0
LINE
8
0
10
28.2
20
-10.1232205
11
28.2
21
-9.61035754
0
LINE
8
0
10
28.2
20
-9.61035754
11
29.1124921
21
-8.55200785
0
LINE
8
0
10
29.1124921
20
-8.55200785
11
29.4
21
-8.17581756
0
LINE
8
0
10
29.4
20
-8.17581756
11
30.4110424
21
-8.17581756
0
LINE
8
0
10
30.4110424
20
-8.17581756
11
34
21
-8.17581756
0
LINE
8
0
10
34
20
-8.17581756
11
34.2875079
21
-8.55200785
0
LINE
8
0
10
34.2875079
20
-8.55200785
11
35.2
21
-9.61035754
0
LINE
8
0
10
35.2
20
-9.61035754
11
35.2
21
-10.041222
0
LINE
8
0
10
35.2
20
-10.041222
11
35.2
21
-10.8145236
0
LINE
8
0
10
35.2
20
-10.8145236
11
35.2
21
-11.3080579
0
LINE
8
0
10
35.2
20
-11.3080579
11
35.2
21
-11.5851611
0
LINE
8
0
10
35.2
20
-11.5851611
11
35.2
21
-11.5851611
0
LINE
8
0
10
72
20
16.5866555
11
72
21
16.5887239
0
LINE
8
0
10
72
20
16.5887239
11
72
21
18.2301821
0
LINE
8
0
10
72
20
18.2301821
11
72
21
18.444789
0
LINE
8
0
10
72
20
18.444789
11
72
21
20.57188
0
LINE
8
0
10
72
20
20.57188
11
72.2433754
21
20.8186779
0
LINE
8
0
10
72.2433754
20
20.8186779
11
72.4852498
21
21.0639492
0
LINE
8
0
10
72.4852498
20
21.0639492
11
72.7262834
21
21.3083746
0
LINE
8
0
10
72.7262834
20
21.3083746
11
72.7267803
21
21.3088785
0
LINE
8
0
10
72.7267803
20
21.3088785
11
73.15509
21
21.74321
0
LINE
8
0
10
73.15509
20
21.74321
11
73.2113112
21
21.8002218
0
LINE
8
0
10
73.2113112
20
21.8002218
11
73.44949
21
22.04175
0
LINE
8
0
10
73.44949
20
22.04175
11
73.4902329
21
22.0830666
0
LINE
8
0
10
73.4902329
20
22.0830666
11
73.68601
21
22.2816
0
LINE
8
0
10
73.68601
20
22.2816
11
73.7369005
21
22.3332053
0
LINE
8
0
10
73.7369005
20
22.3332053
11
74
21
22.6
0
LINE
8
0
10
74
20
22.6
11
74
21
22.6076575
0
LINE
8
0
10
74
20
22.6076575
11
74
21
23.0937926
0
LINE
8
0
10
74
20
23.0937926
11
74
21
29.5648299
0
LINE
8
0
10
74
20
29.5648299
11
74
21
29.7184032
0
LINE
8
0
10
74
20
29.7184032
11
73.4624287
21
29.7184032
0
LINE
8
0
10
73.4624287
20
29.7184032
11
66.2866117
21
29.7184018
0
LINE
8
0
10
66.2866117
20
29.7184018
11
66.2664535
21
29.7173803
0
LINE
8
0
10
66.2664535
20
29.7173803
11
66.2012262
21
29.7074994
0
LINE
8
0
10
66.2012262
20
29.7074994
11
66.1459286
21
29.7004371
0
LINE
8
0
10
66.1459286
20
29.7004371
11
66.0884446
21
29.6786097
0
LINE
8
0
10
66.0884446
20
29.6786097
11
66.0070227
21
29.6476871
0
LINE
8
0
10
66.0070227
20
29.6476871
11
65.9500376
21
29.6103022
0
LINE
8
0
10
65.9500376
20
29.6103022
11
65.8787593
21
29.5635403
0
LINE
8
0
10
65.8787593
20
29.5635403
11
65.8265446
21
29.5109583
0
LINE
8
0
10
65.8265446
20
29.5109583
11
65.769349
21
29.4533603
0
LINE
8
0
10
65.769349
20
29.4533603
11
65.7266995
21
29.3874347
0
LINE
8
0
10
65.7266995
20
29.3874347
11
65.6857869
21
29.324194
0
LINE
8
0
10
65.6857869
20
29.324194
11
65.6574303
21
29.2484575
0
LINE
8
0
10
65.6574303
20
29.2484575
11
65.6334131
21
29.184311
0
LINE
8
0
10
65.6334131
20
29.184311
11
65.6232741
21
29.1038161
0
LINE
8
0
10
65.6232741
20
29.1038161
11
65.6175484
21
29.0643318
0
LINE
8
0
10
65.6175484
20
29.0643318
11
65.6155688
21
29.0426446
0
LINE
8
0
10
65.6155688
20
29.0426446
11
65.6155688
21
27.3721997
0
LINE
8
0
10
65.6155688
20
27.3721997
11
65.615572
21
23.2
0
LINE
8
0
10
65.615572
20
23.2
11
64.5031182
21
23.2
0
LINE
8
0
10
64.5031182
20
23.2
11
64.5024171
21
23.2
0
LINE
8
0
10
64.5024171
20
23.2
11
64.5017114
21
23.2
0
LINE
8
0
10
64.5017114
20
23.2
11
64.5010013
21
23.2
0
LINE
8
0
10
64.5010013
20
23.2
11
63.98849
21
23.2
0
LINE
8
0
10
63.98849
20
23.2
11
63.9521176
21
23.167251
0
LINE
8
0
10
63.9521176
20
23.167251
11
63.909641
21
23.129006
0
LINE
8
0
10
63.909641
20
23.129006
11
63.810903
21
23.0400973
0
LINE
8
0
10
63.810903
20
23.0400973
11
63.703173
21
22.9430999
0
LINE
8
0
10
63.703173
20
22.9430999
11
63.4140925
21
22.6828106
0
LINE
8
0
10
63.4140925
20
22.6828106
11
63.3150342
21
22.5936232
0
LINE
8
0
10
63.3150342
20
22.5936232
11
63.2260524
21
22.5134968
0
LINE
8
0
10
63.2260524
20
22.5134968
11
63.1885528
21
22.479734
0
LINE
8
0
10
63.1885528
20
22.479734
11
63.1570109
21
22.4513322
0
LINE
8
0
10
63.1570109
20
22.4513322
11
63.132092
21
22.4288938
0
LINE
8
0
10
63.132092
20
22.4288938
11
63.1142064
21
22.41279
0
LINE
8
0
10
63.1142064
20
22.41279
11
63.1035198
21
22.4031678
0
LINE
8
0
10
63.1035198
20
22.4031678
11
63.1
21
22.4
0
LINE
8
0
10
63.1
20
22.4
11
63.1
21
11.3518818
0
LINE
8
0
10
63.1
20
11.3518818
11
63.1
21
10
0
LINE
8
0
10
63.1
20
10
11
62.980075
21
10
0
LINE
8
0
10
62.980075
20
10
11
57.8841661
21
10
0
LINE
8
0
10
57.8841661
20
10
11
57.671996
21
10
0
LINE
8
0
10
57.671996
20
10
11
57.3
21
10
0
LINE
8
0
10
57.3
20
10
11
57.3
21
9.72828035
0
LINE
8
0
10
57.3
20
9.72828035
11
57.3651004
21
9.63523626
0
LINE
8
0
10
57.3651004
20
9.63523626
11
58.2699589
21
8.34195775
0
LINE
8
0
10
58.2699589
20
8.34195775
11
58.5
21
8.01316925
0
LINE
8
0
10
58.5
20
8.01316925
11
61.5423436
21
8.01316925
0
LINE
8
0
10
61.5423436
20
8.01316925
11
64.0820008
21
8.01316925
0
LINE
8
0
10
64.0820008
20
8.01316925
11
66
21
8.01316915
0
LINE
8
0
10
66
20
8.01316915
11
66.0936688
21
8.01974416
0
LINE
8
0
10
66.0936688
20
8.01974416
11
66.9642902
21
8.12823556
0
LINE
8
0
10
66.9642902
20
8.12823556
11
67.0638289
21
8.1493334
0
LINE
8
0
10
67.0638289
20
8.1493334
11
67.161441
21
8.1842691
0
LINE
8
0
10
67.161441
20
8.1842691
11
67.9888118
21
8.50017688
0
LINE
8
0
10
67.9888118
20
8.50017688
11
68.101686
21
8.55788274
0
LINE
8
0
10
68.101686
20
8.55788274
11
68.8225805
21
9.03704074
0
LINE
8
0
10
68.8225805
20
9.03704074
11
68.9566002
21
9.12761035
0
LINE
8
0
10
68.9566002
20
9.12761035
11
69.0837674
21
9.23651398
0
LINE
8
0
10
69.0837674
20
9.23651398
11
69.6949762
21
9.84607681
0
LINE
8
0
10
69.6949762
20
9.84607681
11
69.840916
21
10.0007168
0
LINE
8
0
10
69.840916
20
10.0007168
11
69.9755509
21
10.1750532
0
LINE
8
0
10
69.9755509
20
10.1750532
11
70.4658768
21
10.8731268
0
LINE
8
0
10
70.4658768
20
10.8731268
11
70.6113049
21
11.1023502
0
LINE
8
0
10
70.6113049
20
11.1023502
11
70.7403116
21
11.3508379
0
LINE
8
0
10
70.7403116
20
11.3508379
11
71.1076948
21
12.0976995
0
LINE
8
0
10
71.1076948
20
12.0976995
11
71.2363102
21
12.4041982
0
LINE
8
0
10
71.2363102
20
12.4041982
11
71.343295
21
12.7272299
0
LINE
8
0
10
71.343295
20
12.7272299
11
71.5925511
21
13.4881682
0
LINE
8
0
10
71.5925511
20
13.4881682
11
71.6872318
21
13.8659658
0
LINE
8
0
10
71.6872318
20
13.8659658
11
71.8210696
21
14.5748872
0
LINE
8
0
10
71.8210696
20
14.5748872
11
71.8959923
21
15.0017582
0
LINE
8
0
10
71.8959923
20
15.0017582
11
71.9412923
21
15.4370668
0
LINE
8
0
10
71.9412923
20
15.4370668
11
71.9836043
21
16.1136914
0
LINE
8
0
10
71.9836043
20
16.1136914
11
72
21
16.5866555
0
LINE
8
0
10
72
20
16.5866555
11
72
21
16.5866555
0
LINE
8
0
10
72
20
-8.77526385
11
72
21
-8.91090795
0
LINE
8
0
10
72
20
-8.91090795
11
72
21
-13.5
0
LINE
8
0
10
72
20
-13.5
11
71.941741
21
-13.9424988
0
LINE
8
0
10
71.941741
20
-13.9424988
11
71.91481
21
-14.14705
0
LINE
8
0
10
71.91481
20
-14.14705
11
71.7440132
21
-14.55939
0
LINE
8
0
10
71.7440132
20
-14.55939
11
71.66506
21
-14.75
0
LINE
8
0
10
71.66506
20
-14.75
11
71.3933649
21
-15.1040879
0
LINE
8
0
10
71.3933649
20
-15.1040879
11
71.26777
21
-15.26777
0
LINE
8
0
10
71.26777
20
-15.26777
11
70.9136821
21
-15.5394651
0
LINE
8
0
10
70.9136821
20
-15.5394651
11
70.75
21
-15.66506
0
LINE
8
0
10
70.75
20
-15.66506
11
70.33766
21
-15.8358568
0
LINE
8
0
10
70.33766
20
-15.8358568
11
70.14705
21
-15.91481
0
LINE
8
0
10
70.14705
20
-15.91481
11
69.9424988
21
-15.941741
0
LINE
8
0
10
69.9424988
20
-15.941741
11
69.5
21
-16
0
LINE
8
0
10
69.5
20
-16
11
66.1153506
21
-16
0
LINE
8
0
10
66.1153506
20
-16
11
58.8
21
-16
0
LINE
8
0
10
58.8
20
-16
11
58.7609136
21
-15.9991947
0
LINE
8
0
10
58.7609136
20
-15.9991947
11
58.73836
21
-15.99873
0
LINE
8
0
10
58.73836
20
-15.99873
11
58.6993676
21
-15.9963235
0
LINE
8
0
10
58.6993676
20
-15.9963235
11
58.67679
21
-15.99493
0
LINE
8
0
10
58.67679
20
-15.99493
11
58.6543875
21
-15.992619
0
LINE
8
0
10
58.6543875
20
-15.992619
11
58.4830083
21
-15.9612657
0
LINE
8
0
10
58.4830083
20
-15.9612657
11
58.41177
21
-15.94889
0
LINE
8
0
10
58.41177
20
-15.94889
11
58.2433311
21
-15.8791203
0
LINE
8
0
10
58.2433311
20
-15.8791203
11
58.05
21
-15.79904
0
LINE
8
0
10
58.05
20
-15.79904
11
57.9053577
21
-15.688051
0
LINE
8
0
10
57.9053577
20
-15.688051
11
57.73934
21
-15.56066
0
LINE
8
0
10
57.73934
20
-15.56066
11
57.628351
21
-15.4160177
0
LINE
8
0
10
57.628351
20
-15.4160177
11
57.50096
21
-15.25
0
LINE
8
0
10
57.50096
20
-15.25
11
57.4311903
21
-15.0815611
0
LINE
8
0
10
57.4311903
20
-15.0815611
11
57.35111
21
-14.88823
0
LINE
8
0
10
57.35111
20
-14.88823
11
57.3423581
21
-14.8217509
0
LINE
8
0
10
57.3423581
20
-14.8217509
11
57.3231372
21
-14.7103183
0
LINE
8
0
10
57.3231372
20
-14.7103183
11
57.3
21
-14.5
0
LINE
8
0
10
57.3
20
-14.5
11
57.3
21
-14.287509
0
LINE
8
0
10
57.3
20
-14.287509
11
57.3
21
-14.17729
0
LINE
8
0
10
57.3
20
-14.17729
11
57.3
21
-7.87267225
0
LINE
8
0
10
57.3
20
-7.87267225
11
57.3
21
-7.78314366
0
LINE
8
0
10
57.3
20
-7.78314366
11
57.3
21
-7.06169844
0
LINE
8
0
10
57.3
20
-7.06169844
11
57.3
21
-6.98332972
0
LINE
8
0
10
57.3
20
-6.98332972
11
57.3
21
-5.98284333
0
LINE
8
0
10
57.3
20
-5.98284333
11
57.3
21
-4.6036387
0
LINE
8
0
10
57.3
20
-4.6036387
11
57.3
21
-3.90053995
0
LINE
8
0
10
57.3
20
-3.90053995
11
58.2124921
21
-2.84219009
0
LINE
8
0
10
58.2124921
20
-2.84219009
11
58.5
21
-2.46599956
0
LINE
8
0
10
58.5
20
-2.46599956
11
61.6362232
21
-2.47495157
0
LINE
8
0
10
61.6362232
20
-2.47495157
11
68.4391649
21
-2.46779389
0
LINE
8
0
10
68.4391649
20
-2.46779389
11
68.7219922
21
-2.50019479
0
LINE
8
0
10
68.7219922
20
-2.50019479
11
68.7662386
21
-2.50221384
0
LINE
8
0
10
68.7662386
20
-2.50221384
11
69.0418911
21
-2.54750973
0
LINE
8
0
10
69.0418911
20
-2.54750973
11
69.0995813
21
-2.55701185
0
LINE
8
0
10
69.0995813
20
-2.55701185
11
69.3493439
21
-2.62635804
0
LINE
8
0
10
69.3493439
20
-2.62635804
11
69.4391266
21
-2.65138247
0
LINE
8
0
10
69.4391266
20
-2.65138247
11
69.6471115
21
-2.73396639
0
LINE
8
0
10
69.6471115
20
-2.73396639
11
69.77852
21
-2.78642582
0
LINE
8
0
10
69.77852
20
-2.78642582
11
69.9327109
21
-2.86748231
0
LINE
8
0
10
69.9327109
20
-2.86748231
11
70.1109638
21
-2.96183059
0
LINE
8
0
10
70.1109638
20
-2.96183059
11
70.2045883
21
-3.02433972
0
LINE
8
0
10
70.2045883
20
-3.02433972
11
70.4296287
21
-3.17583177
0
LINE
8
0
10
70.4296287
20
-3.17583177
11
70.461772
21
-3.20246482
0
LINE
8
0
10
70.461772
20
-3.20246482
11
70.5890582
21
-3.30893678
0
LINE
8
0
10
70.5890582
20
-3.30893678
11
70.7016913
21
-3.39912566
0
LINE
8
0
10
70.7016913
20
-3.39912566
11
70.7275885
21
-3.42003857
0
LINE
8
0
10
70.7275885
20
-3.42003857
11
70.9217609
21
-3.61104763
0
LINE
8
0
10
70.9217609
20
-3.61104763
11
70.9995845
21
-3.68832779
0
LINE
8
0
10
70.9995845
20
-3.68832779
11
71.1234288
21
-3.83752361
0
LINE
8
0
10
71.1234288
20
-3.83752361
11
71.2420819
21
-3.9819458
0
LINE
8
0
10
71.2420819
20
-3.9819458
11
71.3063691
21
-4.07724602
0
LINE
8
0
10
71.3063691
20
-4.07724602
11
71.4519363
21
-4.29540721
0
LINE
8
0
10
71.4519363
20
-4.29540721
11
71.4700657
21
-4.32892336
0
LINE
8
0
10
71.4700657
20
-4.32892336
11
71.5416938
21
-4.46288774
0
LINE
8
0
10
71.5416938
20
-4.46288774
11
71.6142729
21
-4.59316765
0
LINE
8
0
10
71.6142729
20
-4.59316765
11
71.6270585
21
-4.61640698
0
LINE
8
0
10
71.6270585
20
-4.61640698
11
71.7361771
21
-4.86698334
0
LINE
8
0
10
71.7361771
20
-4.86698334
11
71.7670868
21
-4.93889575
0
LINE
8
0
10
71.7670868
20
-4.93889575
11
71.8344157
21
-5.14541954
0
LINE
8
0
10
71.8344157
20
-5.14541954
11
71.8727152
21
-5.26447621
0
LINE
8
0
10
71.8727152
20
-5.26447621
11
71.909165
21
-5.42603167
0
LINE
8
0
10
71.909165
20
-5.42603167
11
71.9452566
21
-5.58821187
0
LINE
8
0
10
71.9452566
20
-5.58821187
11
71.960841
21
-5.70628725
0
LINE
8
0
10
71.960841
20
-5.70628725
11
71.9867997
21
-5.90575739
0
LINE
8
0
10
71.9867997
20
-5.90575739
11
71.9901766
21
-5.98364163
0
LINE
8
0
10
71.9901766
20
-5.98364163
11
72
21
-6.21396901
0
LINE
8
0
10
72
20
-6.21396901
11
72
21
-6.3802246
0
LINE
8
0
10
72
20
-6.3802246
11
72
21
-7.32727948
0
LINE
8
0
10
72
20
-7.32727948
11
72
21
-8.02956947
0
LINE
8
0
10
72
20
-8.02956947
11
72
21
-8.77526385
0
LINE
8
0
10
72
20
-8.77526385
11
72
21
-8.77526385
0
ENDSEC
0
EOF
