0
SECTION
2
ENTITIES
0
LINE
8
0
10
16
20
42.1816908
11
16
21
41.3114028
0
LINE
8
0
10
16
20
41.3114028
11
16
21
40.9676582
0
LINE
8
0
10
16
20
40.9676582
11
16
21
40.2521807
0
LINE
8
0
10
16
20
40.2521807
11
16
21
39.6250398
0
LINE
8
0
10
16
20
39.6250398
11
16
21
38.6044911
0
LINE
8
0
10
16
20
38.6044911
11
16
21
38.101764
0
LINE
8
0
10
16
20
38.101764
11
16
21
36.3251622
0
LINE
8
0
10
16
20
36.3251622
11
16
21
36.3103376
0
LINE
8
0
10
16
20
36.3103376
11
16
21
36.2635081
0
LINE
8
0
10
16
20
36.2635081
11
17.7563829
21
36.2635081
0
LINE
8
0
10
17.7563829
20
36.2635081
11
17.8
21
36.2635081
0
LINE
8
0
10
17.8
20
36.2635081
11
17.8
21
33.6376175
0
LINE
8
0
10
17.8
20
33.6376175
11
17.8
21
31.9497452
0
LINE
8
0
10
17.8
20
31.9497452
11
17.8
21
29.9511893
0
LINE
8
0
10
17.8
20
29.9511893
11
17.8
21
28.6314674
0
LINE
8
0
10
17.8
20
28.6314674
11
17.7615129
21
28.0235508
0
LINE
8
0
10
17.7615129
20
28.0235508
11
17.72314
21
27.4174374
0
LINE
8
0
10
17.72314
20
27.4174374
11
17.609161
21
26.8328855
0
LINE
8
0
10
17.609161
20
26.8328855
11
17.49552
21
26.2500674
0
LINE
8
0
10
17.49552
20
26.2500674
11
17.3104255
21
25.7113384
0
LINE
8
0
10
17.3104255
20
25.7113384
11
17.12588
21
25.1742074
0
LINE
8
0
10
17.12588
20
25.1742074
11
16.8767856
21
24.7020121
0
LINE
8
0
10
16.8767856
20
24.7020121
11
16.62843
21
24.2312174
0
LINE
8
0
10
16.62843
20
24.2312174
11
16.482784
21
24.0258578
0
LINE
8
0
10
16.482784
20
24.0258578
11
16.33757
21
23.8211024
0
LINE
8
0
10
16.33757
20
23.8211024
11
16.1796909
21
23.6389373
0
LINE
8
0
10
16.1796909
20
23.6389373
11
16.02228
21
23.4573174
0
LINE
8
0
10
16.02228
20
23.4573174
11
15.853685
21
23.3001093
0
LINE
8
0
10
15.853685
20
23.3001093
11
15.68559
21
23.1433624
0
LINE
8
0
10
15.68559
20
23.1433624
11
15.5078965
21
23.0126135
0
LINE
8
0
10
15.5078965
20
23.0126135
11
15.33073
21
22.8822574
0
LINE
8
0
10
15.33073
20
22.8822574
11
15.1456605
21
22.7792396
0
LINE
8
0
10
15.1456605
20
22.7792396
11
14.96114
21
22.6765274
0
LINE
8
0
10
14.96114
20
22.6765274
11
14.7704672
21
22.6022272
0
LINE
8
0
10
14.7704672
20
22.6022272
11
14.58036
21
22.5281424
0
LINE
8
0
10
14.58036
20
22.5281424
11
14.3859266
21
22.4832709
0
LINE
8
0
10
14.3859266
20
22.4832709
11
14.19207
21
22.4385374
0
LINE
8
0
10
14.19207
20
22.4385374
11
13.9957438
21
22.4235302
0
LINE
8
0
10
13.9957438
20
22.4235302
11
13.8
21
22.4085674
0
LINE
8
0
10
13.8
20
22.4085674
11
8.09153389
21
22.4085674
0
LINE
8
0
10
8.09153389
20
22.4085674
11
2.4
21
22.4085645
0
LINE
8
0
10
2.4
20
22.4085645
11
2.4
21
26.2717195
0
LINE
8
0
10
2.4
20
26.2717195
11
2.4
21
28.2831561
0
LINE
8
0
10
2.4
20
28.2831561
11
2.4
21
30.7096582
0
LINE
8
0
10
2.4
20
30.7096582
11
2.4
21
38.345886
0
LINE
8
0
10
2.4
20
38.345886
11
2.4
21
38.9082044
0
LINE
8
0
10
2.4
20
38.9082044
11
2.4
21
39.6940447
0
LINE
8
0
10
2.4
20
39.6940447
11
2.4
21
40.8020628
0
LINE
8
0
10
2.4
20
40.8020628
11
2.4
21
41.4373627
0
LINE
8
0
10
2.4
20
41.4373627
11
2.4
21
42.2809938
0
LINE
8
0
10
2.4
20
42.2809938
11
2.4
21
43.2375068
0
LINE
8
0
10
2.4
20
43.2375068
11
15.2279363
21
43.2375068
0
LINE
8
0
10
15.2279363
20
43.2375068
11
16
21
43.2375068
0
LINE
8
0
10
16
20
43.2375068
11
16
21
42.3165603
0
LINE
8
0
10
16
20
42.3165603
11
16
21
42.1816908
0
LINE
8
0
10
16
20
42.1816908
11
16
21
42.1816908
0
LINE
8
0
10
35.2
20
-11.033594
11
35.2
21
-10.3233753
0
LINE
8
0
10
35.2
20
-10.3233753
11
35.2
21
-9.28800206
0
LINE
8
0
10
35.2
20
-9.28800206
11
35.2
21
-9.17021878
0
LINE
8
0
10
35.2
20
-9.17021878
11
34.0185141
21
-7.6253471
0
LINE
8
0
10
34.0185141
20
-7.6253471
11
34.0096025
21
-7.6117282
0
LINE
8
0
10
34.0096025
20
-7.6117282
11
34
21
-7.59678464
0
LINE
8
0
10
34
20
-7.59678464
11
29.482385
21
-7.59678464
0
LINE
8
0
10
29.482385
20
-7.59678464
11
29.4
21
-7.59678464
0
LINE
8
0
10
29.4
20
-7.59678464
11
29.3903975
21
-7.6117282
0
LINE
8
0
10
29.3903975
20
-7.6117282
11
29.3814859
21
-7.6253471
0
LINE
8
0
10
29.3814859
20
-7.6253471
11
28.2
21
-9.17021878
0
LINE
8
0
10
28.2
20
-9.17021878
11
28.2
21
-9.31424236
0
LINE
8
0
10
28.2
20
-9.31424236
11
28.2
21
-10.5389813
0
LINE
8
0
10
28.2
20
-10.5389813
11
28.2
21
-11.3162217
0
LINE
8
0
10
28.2
20
-11.3162217
11
28.2
21
-11.7892928
0
LINE
8
0
10
28.2
20
-11.7892928
11
28.2
21
-12.0537757
0
LINE
8
0
10
28.2
20
-12.0537757
11
28.2
21
-13.5
0
LINE
8
0
10
28.2
20
-13.5
11
28.208925
21
-13.6816423
0
LINE
8
0
10
28.208925
20
-13.6816423
11
28.21204
21
-13.74504
0
LINE
8
0
10
28.21204
20
-13.74504
11
28.2498674
21
-13.9529276
0
LINE
8
0
10
28.2498674
20
-13.9529276
11
28.2673187
21
-14.0704077
0
LINE
8
0
10
28.2673187
20
-14.0704077
11
28.3350118
21
-14.2938277
0
LINE
8
0
10
28.3350118
20
-14.2938277
11
28.4663812
21
-14.6109816
0
LINE
8
0
10
28.4663812
20
-14.6109816
11
28.574935
21
-14.8143189
0
LINE
8
0
10
28.574935
20
-14.8143189
11
28.788296
21
-15.0923826
0
LINE
8
0
10
28.788296
20
-15.0923826
11
28.93223
21
-15.26777
0
LINE
8
0
10
28.93223
20
-15.26777
11
29.0962168
21
-15.4023479
0
LINE
8
0
10
29.0962168
20
-15.4023479
11
29.389862
21
-15.6276647
0
LINE
8
0
10
29.389862
20
-15.6276647
11
29.5719863
21
-15.7252192
0
LINE
8
0
10
29.5719863
20
-15.7252192
11
29.924155
21
-15.8710922
0
LINE
8
0
10
29.924155
20
-15.8710922
11
30.1165155
21
-15.9296321
0
LINE
8
0
10
30.1165155
20
-15.9296321
11
30.3006174
21
-15.9474177
0
LINE
8
0
10
30.3006174
20
-15.9474177
11
30.5463554
21
-15.9848664
0
LINE
8
0
10
30.5463554
20
-15.9848664
11
30.7
21
-16
0
LINE
8
0
10
30.7
20
-16
11
31.9359901
21
-16
0
LINE
8
0
10
31.9359901
20
-16
11
32.7
21
-16
0
LINE
8
0
10
32.7
20
-16
11
33.0246244
21
-15.9680254
0
LINE
8
0
10
33.0246244
20
-15.9680254
11
33.335389
21
-15.9163453
0
LINE
8
0
10
33.335389
20
-15.9163453
11
33.34705
21
-15.91481
0
LINE
8
0
10
33.34705
20
-15.91481
11
33.9282675
21
-15.6740619
0
LINE
8
0
10
33.9282675
20
-15.6740619
11
33.95
21
-15.66506
0
LINE
8
0
10
33.95
20
-15.66506
11
34.4491077
21
-15.2820898
0
LINE
8
0
10
34.4491077
20
-15.2820898
11
34.46777
21
-15.26777
0
LINE
8
0
10
34.46777
20
-15.26777
11
34.8507402
21
-14.7686623
0
LINE
8
0
10
34.8507402
20
-14.7686623
11
34.86506
21
-14.75
0
LINE
8
0
10
34.86506
20
-14.75
11
35.1058081
21
-14.1687825
0
LINE
8
0
10
35.1058081
20
-14.1687825
11
35.11481
21
-14.14705
0
LINE
8
0
10
35.11481
20
-14.14705
11
35.1618032
21
-13.790119
0
LINE
8
0
10
35.1618032
20
-13.790119
11
35.1962208
21
-13.5769153
0
LINE
8
0
10
35.1962208
20
-13.5769153
11
35.2
21
-13.5
0
LINE
8
0
10
35.2
20
-13.5
11
35.2
21
-11.741366
0
LINE
8
0
10
35.2
20
-11.741366
11
35.2
21
-11.4868678
0
LINE
8
0
10
35.2
20
-11.4868678
11
35.2
21
-11.033594
0
LINE
8
0
10
35.2
20
-11.033594
11
35.2
21
-11.033594
0
LINE
8
0
10
35.2
20
10
11
35.2
21
8.74715727
0
LINE
8
0
10
35.2
20
8.74715727
11
35.2
21
3.31490504
0
LINE
8
0
10
35.2
20
3.31490504
11
35.0018834
21
3.03174503
0
LINE
8
0
10
35.0018834
20
3.03174503
11
34
21
1.59979376
0
LINE
8
0
10
34
20
1.59979376
11
33.9495788
21
1.59979376
0
LINE
8
0
10
33.9495788
20
1.59979376
11
29.4
21
1.59979376
0
LINE
8
0
10
29.4
20
1.59979376
11
28.3981166
21
3.03174503
0
LINE
8
0
10
28.3981166
20
3.03174503
11
28.2
21
3.31490504
0
LINE
8
0
10
28.2
20
3.31490504
11
28.2
21
9.11476396
0
LINE
8
0
10
28.2
20
9.11476396
11
28.2
21
10.0483557
0
LINE
8
0
10
28.2
20
10.0483557
11
28.2
21
10.1840512
0
LINE
8
0
10
28.2
20
10.1840512
11
28.2
21
11.4974519
0
LINE
8
0
10
28.2
20
11.4974519
11
28.2
21
15
0
LINE
8
0
10
28.2
20
15
11
28.7007426
21
15
0
LINE
8
0
10
28.7007426
20
15
11
30.2
21
15
0
LINE
8
0
10
30.2
20
15
11
30.2
21
14.4144721
0
LINE
8
0
10
30.2
20
14.4144721
11
30.2
21
12.65094
0
LINE
8
0
10
30.2
20
12.65094
11
30.2
21
12.5856831
0
LINE
8
0
10
30.2
20
12.5856831
11
30.2
21
12.39302
0
LINE
8
0
10
30.2
20
12.39302
11
30.2
21
12.3283387
0
LINE
8
0
10
30.2
20
12.3283387
11
30.2
21
12.13557
0
LINE
8
0
10
30.2
20
12.13557
11
30.2
21
12.0753562
0
LINE
8
0
10
30.2
20
12.0753562
11
30.2
21
11.89597
0
LINE
8
0
10
30.2
20
11.89597
11
30.2
21
11.8439312
0
LINE
8
0
10
30.2
20
11.8439312
11
30.2
21
11.69043
0
LINE
8
0
10
30.2
20
11.69043
11
30.2
21
11.6499807
0
LINE
8
0
10
30.2
20
11.6499807
11
30.2
21
11.53281
0
LINE
8
0
10
30.2
20
11.53281
11
30.2
21
11.1750356
0
LINE
8
0
10
30.2
20
11.1750356
11
30.2
21
10
0
LINE
8
0
10
30.2
20
10
11
31.770209
21
10
0
LINE
8
0
10
31.770209
20
10
11
35.2
21
10
0
LINE
8
0
10
35.2
20
10
11
35.2
21
10
0
LINE
8
0
10
72
20
-7.83082531
11
72
21
-8.47582529
0
LINE
8
0
10
72
20
-8.47582529
11
72
21
-9.16068891
0
LINE
8
0
10
72
20
-9.16068891
11
72
21
-9.2852677
0
LINE
8
0
10
72
20
-9.2852677
11
72
21
-13.5
0
LINE
8
0
10
72
20
-13.5
11
71.9464936
21
-13.9064015
0
LINE
8
0
10
71.9464936
20
-13.9064015
11
71.91481
21
-14.14705
0
LINE
8
0
10
71.91481
20
-14.14705
11
71.7579461
21
-14.525753
0
LINE
8
0
10
71.7579461
20
-14.525753
11
71.66506
21
-14.75
0
LINE
8
0
10
71.66506
20
-14.75
11
71.4155287
21
-15.0752028
0
LINE
8
0
10
71.4155287
20
-15.0752028
11
71.26777
21
-15.26777
0
LINE
8
0
10
71.26777
20
-15.26777
11
70.9425672
21
-15.5173013
0
LINE
8
0
10
70.9425672
20
-15.5173013
11
70.75
21
-15.66506
0
LINE
8
0
10
70.75
20
-15.66506
11
70.371297
21
-15.8219239
0
LINE
8
0
10
70.371297
20
-15.8219239
11
70.14705
21
-15.91481
0
LINE
8
0
10
70.14705
20
-15.91481
11
69.9064015
21
-15.9464936
0
LINE
8
0
10
69.9064015
20
-15.9464936
11
69.5
21
-16
0
LINE
8
0
10
69.5
20
-16
11
66.3914567
21
-16
0
LINE
8
0
10
66.3914567
20
-16
11
58.8
21
-16
0
LINE
8
0
10
58.8
20
-16
11
58.7594383
21
-15.9991643
0
LINE
8
0
10
58.7594383
20
-15.9991643
11
58.73836
21
-15.99873
0
LINE
8
0
10
58.73836
20
-15.99873
11
58.6979029
21
-15.9962331
0
LINE
8
0
10
58.6979029
20
-15.9962331
11
58.67679
21
-15.99493
0
LINE
8
0
10
58.67679
20
-15.99493
11
58.6558408
21
-15.992769
0
LINE
8
0
10
58.6558408
20
-15.992769
11
58.4955798
21
-15.9634497
0
LINE
8
0
10
58.4955798
20
-15.9634497
11
58.41177
21
-15.94889
0
LINE
8
0
10
58.41177
20
-15.94889
11
58.2774483
21
-15.8932522
0
LINE
8
0
10
58.2774483
20
-15.8932522
11
58.05
21
-15.79904
0
LINE
8
0
10
58.05
20
-15.79904
11
57.934655
21
-15.7105318
0
LINE
8
0
10
57.934655
20
-15.7105318
11
57.73934
21
-15.56066
0
LINE
8
0
10
57.73934
20
-15.56066
11
57.6508318
21
-15.445315
0
LINE
8
0
10
57.6508318
20
-15.445315
11
57.50096
21
-15.25
0
LINE
8
0
10
57.50096
20
-15.25
11
57.4453222
21
-15.1156783
0
LINE
8
0
10
57.4453222
20
-15.1156783
11
57.35111
21
-14.88823
0
LINE
8
0
10
57.35111
20
-14.88823
11
57.3441308
21
-14.8352162
0
LINE
8
0
10
57.3441308
20
-14.8352162
11
57.3241055
21
-14.7191201
0
LINE
8
0
10
57.3241055
20
-14.7191201
11
57.3
21
-14.5
0
LINE
8
0
10
57.3
20
-14.5
11
57.3
21
-14.2786162
0
LINE
8
0
10
57.3
20
-14.2786162
11
57.3
21
-14.17729
0
LINE
8
0
10
57.3
20
-14.17729
11
57.3
21
-8.381347
0
LINE
8
0
10
57.3
20
-8.381347
11
57.3
21
-8.27601925
0
LINE
8
0
10
57.3
20
-8.27601925
11
57.3
21
-7.61326348
0
LINE
8
0
10
57.3
20
-7.61326348
11
57.3
21
-7.51493359
0
LINE
8
0
10
57.3
20
-7.51493359
11
57.3
21
-6.59606287
0
LINE
8
0
10
57.3
20
-6.59606287
11
57.3
21
-5.32936823
0
LINE
8
0
10
57.3
20
-5.32936823
11
57.3
21
-3.63981239
0
LINE
8
0
10
57.3
20
-3.63981239
11
57.3
21
-3.46040168
0
LINE
8
0
10
57.3
20
-3.46040168
11
58.4814859
21
-1.9155291
0
LINE
8
0
10
58.4814859
20
-1.9155291
11
58.4903975
21
-1.9019102
0
LINE
8
0
10
58.4903975
20
-1.9019102
11
58.5
21
-1.88696664
0
LINE
8
0
10
58.5
20
-1.88696664
11
58.7910123
21
-1.88810157
0
LINE
8
0
10
58.7910123
20
-1.88810157
11
68.2093454
21
-1.862737
0
LINE
8
0
10
68.2093454
20
-1.862737
11
68.4660949
21
-1.89898677
0
LINE
8
0
10
68.4660949
20
-1.89898677
11
68.5593168
21
-1.90520335
0
LINE
8
0
10
68.5593168
20
-1.90520335
11
68.7901912
21
-1.94780771
0
LINE
8
0
10
68.7901912
20
-1.94780771
11
68.9173479
21
-1.97133754
0
LINE
8
0
10
68.9173479
20
-1.97133754
11
69.1111094
21
-2.03134997
0
LINE
8
0
10
69.1111094
20
-2.03134997
11
69.2832121
21
-2.08490045
0
LINE
8
0
10
69.2832121
20
-2.08490045
11
69.4202942
21
-2.14526415
0
LINE
8
0
10
69.4202942
20
-2.14526415
11
69.6492307
21
-2.2467212
0
LINE
8
0
10
69.6492307
20
-2.2467212
11
69.7162354
21
-2.28558404
0
LINE
8
0
10
69.7162354
20
-2.28558404
11
69.9616824
21
-2.42912215
0
LINE
8
0
10
69.9616824
20
-2.42912215
11
69.9982361
21
-2.44922155
0
LINE
8
0
10
69.9982361
20
-2.44922155
11
70.0069997
21
-2.45407678
0
LINE
8
0
10
70.0069997
20
-2.45407678
11
70.2633058
21
-2.63268752
0
LINE
8
0
10
70.2633058
20
-2.63268752
11
70.3471576
21
-2.69165707
0
LINE
8
0
10
70.3471576
20
-2.69165707
11
70.5115974
21
-2.8336206
0
LINE
8
0
10
70.5115974
20
-2.8336206
11
70.6648816
21
-2.9673542
0
LINE
8
0
10
70.6648816
20
-2.9673542
11
70.7435757
21
-3.05058273
0
LINE
8
0
10
70.7435757
20
-3.05058273
11
70.9542504
21
-3.27604094
0
LINE
8
0
10
70.9542504
20
-3.27604094
11
70.9594506
21
-3.28276073
0
LINE
8
0
10
70.9594506
20
-3.28276073
11
70.974107
21
-3.30194614
0
LINE
8
0
10
70.974107
20
-3.30194614
11
71.1524381
21
-3.52370136
0
LINE
8
0
10
71.1524381
20
-3.52370136
11
71.2098441
21
-3.59591798
0
LINE
8
0
10
71.2098441
20
-3.59591798
11
71.3269222
21
-3.7749026
0
LINE
8
0
10
71.3269222
20
-3.7749026
11
71.4300653
21
-3.93455081
0
LINE
8
0
10
71.4300653
20
-3.93455081
11
71.483351
21
-4.03607213
0
LINE
8
0
10
71.483351
20
-4.03607213
11
71.613342
21
-4.28697818
0
LINE
8
0
10
71.613342
20
-4.28697818
11
71.6213029
21
-4.30635985
0
LINE
8
0
10
71.6213029
20
-4.30635985
11
71.647469
21
-4.37092762
0
LINE
8
0
10
71.647469
20
-4.37092762
11
71.7344948
21
-4.57662964
0
LINE
8
0
10
71.7344948
20
-4.57662964
11
71.7591491
21
-4.63561051
0
LINE
8
0
10
71.7591491
20
-4.63561051
11
71.8267305
21
-4.84889988
0
LINE
8
0
10
71.8267305
20
-4.84889988
11
71.86866
21
-4.9828657
0
LINE
8
0
10
71.86866
20
-4.9828657
11
71.8996018
21
-5.12391678
0
LINE
8
0
10
71.8996018
20
-5.12391678
11
71.9436243
21
-5.3271259
0
LINE
8
0
10
71.9436243
20
-5.3271259
11
71.9529761
21
-5.39996685
0
LINE
8
0
10
71.9529761
20
-5.39996685
11
71.9864325
21
-5.66391623
0
LINE
8
0
10
71.9864325
20
-5.66391623
11
71.9891352
21
-5.72865994
0
LINE
8
0
10
71.9891352
20
-5.72865994
11
71.9985912
21
-5.94675381
0
LINE
8
0
10
71.9985912
20
-5.94675381
11
72
21
-5.97978539
0
LINE
8
0
10
72
20
-5.97978539
11
72
21
-6.96102737
0
LINE
8
0
10
72
20
-6.96102737
11
72
21
-7.83082531
0
LINE
8
0
10
72
20
-7.83082531
11
72
21
-7.83082531
0
LINE
8
0
10
72
20
15.8851655
11
72
21
15.8833806
0
LINE
8
0
10
72
20
15.8833806
11
71.9858516
21
15.4752422
0
LINE
8
0
10
71.9858516
20
15.4752422
11
71.9360727
21
14.6792133
0
LINE
8
0
10
71.9360727
20
14.6792133
11
71.898061
21
14.3139409
0
LINE
8
0
10
71.898061
20
14.3139409
11
71.8351924
21
13.9557485
0
LINE
8
0
10
71.8351924
20
13.9557485
11
71.6777362
21
13.1217233
0
LINE
8
0
10
71.6777362
20
13.1217233
11
71.6013766
21
12.8170308
0
LINE
8
0
10
71.6013766
20
12.8170308
11
71.3081342
21
11.9218093
0
LINE
8
0
10
71.3081342
20
11.9218093
11
71.2267138
21
11.6759673
0
LINE
8
0
10
71.2267138
20
11.6759673
11
71.1288315
21
11.4427076
0
LINE
8
0
10
71.1288315
20
11.4427076
11
70.6966159
21
10.564047
0
LINE
8
0
10
70.6966159
20
10.564047
11
70.606744
21
10.390939
0
LINE
8
0
10
70.606744
20
10.390939
11
70.5054321
21
10.2312515
0
LINE
8
0
10
70.5054321
20
10.2312515
11
69.9285781
21
9.40998847
0
LINE
8
0
10
69.9285781
20
9.40998847
11
69.8471677
21
9.30457149
0
LINE
8
0
10
69.8471677
20
9.30457149
11
69.7589214
21
9.21106449
0
LINE
8
0
10
69.7589214
20
9.21106449
11
69.0398522
21
8.49393174
0
LINE
8
0
10
69.0398522
20
8.49393174
11
68.9793526
21
8.44212099
0
LINE
8
0
10
68.9793526
20
8.44212099
11
68.9155929
21
8.39903264
0
LINE
8
0
10
68.9155929
20
8.39903264
11
68.0674818
21
7.83531734
0
LINE
8
0
10
68.0674818
20
7.83531734
11
68.0324991
21
7.8174328
0
LINE
8
0
10
68.0324991
20
7.8174328
11
67.0591217
21
7.44577659
0
LINE
8
0
10
67.0591217
20
7.44577659
11
67.0450522
21
7.44074106
0
LINE
8
0
10
67.0450522
20
7.44074106
11
67.030705
21
7.43770008
0
LINE
8
0
10
67.030705
20
7.43770008
11
66.0064445
21
7.31006313
0
LINE
8
0
10
66.0064445
20
7.31006313
11
66
21
7.30961077
0
LINE
8
0
10
66
20
7.30961077
11
65.8680401
21
7.30961077
0
LINE
8
0
10
65.8680401
20
7.30961077
11
58.7093157
21
7.30961077
0
LINE
8
0
10
58.7093157
20
7.30961077
11
58.5
21
7.30961077
0
LINE
8
0
10
58.5
20
7.30961077
11
57.8515656
21
8.2363919
0
LINE
8
0
10
57.8515656
20
8.2363919
11
57.3370192
21
8.97181273
0
LINE
8
0
10
57.3370192
20
8.97181273
11
57.3
21
9.02472211
0
LINE
8
0
10
57.3
20
9.02472211
11
57.3
21
10
0
LINE
8
0
10
57.3
20
10
11
58.6351978
21
10
0
LINE
8
0
10
58.6351978
20
10
11
58.8001492
21
10
0
LINE
8
0
10
58.8001492
20
10
11
62.7619583
21
10
0
LINE
8
0
10
62.7619583
20
10
11
63.1
21
10
0
LINE
8
0
10
63.1
20
10
11
63.1
21
13.810652
0
LINE
8
0
10
63.1
20
13.810652
11
63.1
21
22.4
0
LINE
8
0
10
63.1
20
22.4
11
63.1027365
21
22.4024628
0
LINE
8
0
10
63.1027365
20
22.4024628
11
63.1110448
21
22.4099436
0
LINE
8
0
10
63.1110448
20
22.4099436
11
63.1249499
21
22.4224635
0
LINE
8
0
10
63.1249499
20
22.4224635
11
63.1443231
21
22.4399082
0
LINE
8
0
10
63.1443231
20
22.4399082
11
63.1688453
21
22.4619891
0
LINE
8
0
10
63.1688453
20
22.4619891
11
63.1979993
21
22.488238
0
LINE
8
0
10
63.1979993
20
22.488238
11
63.2671782
21
22.5505321
0
LINE
8
0
10
63.2671782
20
22.5505321
11
63.3441909
21
22.6198708
0
LINE
8
0
10
63.3441909
20
22.6198708
11
63.7525108
21
22.9875237
0
LINE
8
0
10
63.7525108
20
22.9875237
11
63.8416118
21
23.0677481
0
LINE
8
0
10
63.8416118
20
23.0677481
11
63.9232757
21
23.1412825
0
LINE
8
0
10
63.9232757
20
23.1412825
11
63.9584072
21
23.1729141
0
LINE
8
0
10
63.9584072
20
23.1729141
11
63.98849
21
23.2
0
LINE
8
0
10
63.98849
20
23.2
11
64.6913251
21
23.2
0
LINE
8
0
10
64.6913251
20
23.2
11
64.6916965
21
23.2
0
LINE
8
0
10
64.6916965
20
23.2
11
64.6920656
21
23.2
0
LINE
8
0
10
64.6920656
20
23.2
11
64.6924323
21
23.2
0
LINE
8
0
10
64.6924323
20
23.2
11
65.2742416
21
23.2
0
LINE
8
0
10
65.2742416
20
23.2
11
65.2742378
21
28.2294976
0
LINE
8
0
10
65.2742378
20
28.2294976
11
65.2742378
21
28.6893004
0
LINE
8
0
10
65.2742378
20
28.6893004
11
65.2747827
21
28.69527
0
LINE
8
0
10
65.2747827
20
28.69527
11
65.2763587
21
28.7061383
0
LINE
8
0
10
65.2763587
20
28.7061383
11
65.2920819
21
28.8309665
0
LINE
8
0
10
65.2920819
20
28.8309665
11
65.2996288
21
28.8511231
0
LINE
8
0
10
65.2996288
20
28.8511231
11
65.3444557
21
28.9708495
0
LINE
8
0
10
65.3444557
20
28.9708495
11
65.3590106
21
28.9933478
0
LINE
8
0
10
65.3590106
20
28.9933478
11
65.4280178
21
29.1000158
0
LINE
8
0
10
65.4280178
20
29.1000158
11
65.4506704
21
29.1228278
0
LINE
8
0
10
65.4506704
20
29.1228278
11
65.5374281
21
29.2101958
0
LINE
8
0
10
65.5374281
20
29.2101958
11
65.5682603
21
29.2304232
0
LINE
8
0
10
65.5682603
20
29.2304232
11
65.6656915
21
29.2943426
0
LINE
8
0
10
65.6656915
20
29.2943426
11
65.7034549
21
29.3086845
0
LINE
8
0
10
65.7034549
20
29.3086845
11
65.8045974
21
29.3470895
0
LINE
8
0
10
65.8045974
20
29.3470895
11
65.9018929
21
29.3595157
0
LINE
8
0
10
65.9018929
20
29.3595157
11
65.9350382
21
29.3645366
0
LINE
8
0
10
65.9350382
20
29.3645366
11
65.9452816
21
29.3650557
0
LINE
8
0
10
65.9452816
20
29.3650557
11
70.6435125
21
29.3650566
0
LINE
8
0
10
70.6435125
20
29.3650566
11
73.9518246
21
29.3650523
0
LINE
8
0
10
73.9518246
20
29.3650523
11
73.9621737
21
23.1782742
0
LINE
8
0
10
73.9621737
20
23.1782742
11
73.9614507
21
22.5609071
0
LINE
8
0
10
73.9614507
20
22.5609071
11
73.9266354
21
22.5256047
0
LINE
8
0
10
73.9266354
20
22.5256047
11
73.8888434
21
22.4872822
0
LINE
8
0
10
73.8888434
20
22.4872822
11
73.7143106
21
22.3102981
0
LINE
8
0
10
73.7143106
20
22.3102981
11
73.68601
21
22.2816
0
LINE
8
0
10
73.68601
20
22.2816
11
73.4758229
21
22.0684536
0
LINE
8
0
10
73.4758229
20
22.0684536
11
73.44949
21
22.04175
0
LINE
8
0
10
73.44949
20
22.04175
11
73.1944915
21
21.7831656
0
LINE
8
0
10
73.1944915
20
21.7831656
11
73.15509
21
21.74321
0
LINE
8
0
10
73.15509
20
21.74321
11
72.8549176
21
21.4388173
0
LINE
8
0
10
72.8549176
20
21.4388173
11
72.8545693
21
21.4384641
0
LINE
8
0
10
72.8545693
20
21.4384641
11
72.5709611
21
21.1508651
0
LINE
8
0
10
72.5709611
20
21.1508651
11
72.2863636
21
20.8622707
0
LINE
8
0
10
72.2863636
20
20.8622707
11
72
21
20.57188
0
LINE
8
0
10
72
20
20.57188
11
72
21
18.0690737
0
LINE
8
0
10
72
20
18.0690737
11
72
21
17.8165601
0
LINE
8
0
10
72
20
17.8165601
11
72
21
15.8851655
0
LINE
8
0
10
72
20
15.8851655
11
72
21
15.8851655
0
ENDSEC
0
EOF
