0
SECTION
2
ENTITIES
0
LINE
8
0
10
16
20
45.0586907
11
16
21
45.2
0
LINE
8
0
10
16
20
45.2
11
16
21
45.7067339
0
LINE
8
0
10
16
20
45.7067339
11
16
21
50.2
0
LINE
8
0
10
16
20
50.2
11
15.2809707
21
50.2
0
LINE
8
0
10
15.2809707
20
50.2
11
15.2221377
21
50.2
0
LINE
8
0
10
15.2221377
20
50.2
11
15.1549708
21
50.2
0
LINE
8
0
10
15.1549708
20
50.2
11
15.0853336
21
50.2
0
LINE
8
0
10
15.0853336
20
50.2
11
15.0212219
21
50.2
0
LINE
8
0
10
15.0212219
20
50.2
11
14.9712273
21
50.2
0
LINE
8
0
10
14.9712273
20
50.2
11
5.75797994
21
50.2
0
LINE
8
0
10
5.75797994
20
50.2
11
5.70463757
21
50.2
0
LINE
8
0
10
5.70463757
20
50.2
11
5.63109154
21
50.2
0
LINE
8
0
10
5.63109154
20
50.2
11
5.54752278
21
50.2
0
LINE
8
0
10
5.54752278
20
50.2
11
5.46394101
21
50.2
0
LINE
8
0
10
5.46394101
20
50.2
11
5.38810441
21
50.2
0
LINE
8
0
10
5.38810441
20
50.2
11
4.4
21
50.2
0
LINE
8
0
10
4.4
20
50.2
11
4.34734616
21
50.1930678
0
LINE
8
0
10
4.34734616
20
50.1930678
11
3.882362
21
50.13185
0
LINE
8
0
10
3.882362
20
50.13185
11
3.83329642
21
50.1115265
0
LINE
8
0
10
3.83329642
20
50.1115265
11
3.4
21
49.93205
0
LINE
8
0
10
3.4
20
49.93205
11
3.35786639
21
49.8997195
0
LINE
8
0
10
3.35786639
20
49.8997195
11
2.985786
21
49.61421
0
LINE
8
0
10
2.985786
20
49.61421
11
2.95345581
21
49.5720768
0
LINE
8
0
10
2.95345581
20
49.5720768
11
2.667949
21
49.2
0
LINE
8
0
10
2.667949
20
49.2
11
2.64762536
21
49.1509346
0
LINE
8
0
10
2.64762536
20
49.1509346
11
2.468148
21
48.71764
0
LINE
8
0
10
2.468148
20
48.71764
11
2.46121603
21
48.664986
0
LINE
8
0
10
2.46121603
20
48.664986
11
2.4
21
48.2
0
LINE
8
0
10
2.4
20
48.2
11
2.4
21
45.5051582
0
LINE
8
0
10
2.4
20
45.5051582
11
2.4
21
45.0481057
0
LINE
8
0
10
2.4
20
45.0481057
11
2.4
21
44.1195956
0
LINE
8
0
10
2.4
20
44.1195956
11
2.4
21
44.1064748
0
LINE
8
0
10
2.4
20
44.1064748
11
2.4
21
44.0932476
0
LINE
8
0
10
2.4
20
44.0932476
11
2.4
21
43.2011873
0
LINE
8
0
10
2.4
20
43.2011873
11
2.4
21
43.1827399
0
LINE
8
0
10
2.4
20
43.1827399
11
2.4
21
42.8800521
0
LINE
8
0
10
2.4
20
42.8800521
11
2.4
21
41.9834606
0
LINE
8
0
10
2.4
20
41.9834606
11
2.4
21
41.2401031
0
LINE
8
0
10
2.4
20
41.2401031
11
2.4
21
40.6803147
0
LINE
8
0
10
2.4
20
40.6803147
11
2.4
21
39.0115885
0
LINE
8
0
10
2.4
20
39.0115885
11
2.4
21
38.3348978
0
LINE
8
0
10
2.4
20
38.3348978
11
2.4
21
37.8506829
0
LINE
8
0
10
2.4
20
37.8506829
11
2.4
21
31.2750918
0
LINE
8
0
10
2.4
20
31.2750918
11
2.4
21
28.3632893
0
LINE
8
0
10
2.4
20
28.3632893
11
2.4
21
25.9495654
0
LINE
8
0
10
2.4
20
25.9495654
11
2.4
21
21.3137794
0
LINE
8
0
10
2.4
20
21.3137794
11
9.22984067
21
21.3137829
0
LINE
8
0
10
9.22984067
20
21.3137829
11
13.8
21
21.3137829
0
LINE
8
0
10
13.8
20
21.3137829
11
14.0348926
21
21.3317382
0
LINE
8
0
10
14.0348926
20
21.3317382
11
14.19207
21
21.3437529
0
LINE
8
0
10
14.19207
20
21.3437529
11
14.424698
21
21.397433
0
LINE
8
0
10
14.424698
20
21.397433
11
14.58036
21
21.4333569
0
LINE
8
0
10
14.58036
20
21.4333569
11
14.8084887
21
21.5222587
0
LINE
8
0
10
14.8084887
20
21.5222587
11
14.96114
21
21.5817429
0
LINE
8
0
10
14.96114
20
21.5817429
11
15.1825646
21
21.7049976
0
LINE
8
0
10
15.1825646
20
21.7049976
11
15.33073
21
21.7874729
0
LINE
8
0
10
15.33073
20
21.7874729
11
15.5433298
21
21.9439002
0
LINE
8
0
10
15.5433298
20
21.9439002
11
15.68559
21
22.0485769
0
LINE
8
0
10
15.68559
20
22.0485769
11
15.887304
21
22.2366731
0
LINE
8
0
10
15.887304
20
22.2366731
11
16.02228
21
22.3625329
0
LINE
8
0
10
16.02228
20
22.3625329
11
16.211173
21
22.5804767
0
LINE
8
0
10
16.211173
20
22.5804767
11
16.33757
21
22.7263169
0
LINE
8
0
10
16.33757
20
22.7263169
11
16.5118268
21
22.9720234
0
LINE
8
0
10
16.5118268
20
22.9720234
11
16.62843
21
23.1364329
0
LINE
8
0
10
16.62843
20
23.1364329
11
16.9264567
21
23.7013865
0
LINE
8
0
10
16.9264567
20
23.7013865
11
17.12588
21
24.0794229
0
LINE
8
0
10
17.12588
20
24.0794229
11
17.3473346
21
24.7239801
0
LINE
8
0
10
17.3473346
20
24.7239801
11
17.49552
21
25.1552829
0
LINE
8
0
10
17.49552
20
25.1552829
11
17.6318892
21
25.8546646
0
LINE
8
0
10
17.6318892
20
25.8546646
11
17.72314
21
26.3226529
0
LINE
8
0
10
17.72314
20
26.3226529
11
17.7691875
21
27.049989
0
LINE
8
0
10
17.7691875
20
27.049989
11
17.8
21
27.5366829
0
LINE
8
0
10
17.8
20
27.5366829
11
17.8
21
29.1203492
0
LINE
8
0
10
17.8
20
29.1203492
11
17.8
21
30.7203795
0
LINE
8
0
10
17.8
20
30.7203795
11
17.8
21
32.0716787
0
LINE
8
0
10
17.8
20
32.0716787
11
17.8
21
34.2405081
0
LINE
8
0
10
17.8
20
34.2405081
11
17.8
21
36.8168453
0
LINE
8
0
10
17.8
20
36.8168453
11
17.3640685
21
36.8168453
0
LINE
8
0
10
17.3640685
20
36.8168453
11
16
21
36.8168453
0
LINE
8
0
10
16
20
36.8168453
11
16
21
37.2520051
0
LINE
8
0
10
16
20
37.2520051
11
16
21
37.3706709
0
LINE
8
0
10
16
20
37.3706709
11
16
21
38.907664
0
LINE
8
0
10
16
20
38.907664
11
16
21
39.8521669
0
LINE
8
0
10
16
20
39.8521669
11
16
21
40.3624253
0
LINE
8
0
10
16
20
40.3624253
11
16
21
41.0047376
0
LINE
8
0
10
16
20
41.0047376
11
16
21
41.6748438
0
LINE
8
0
10
16
20
41.6748438
11
16
21
42.0939953
0
LINE
8
0
10
16
20
42.0939953
11
16
21
42.880894
0
LINE
8
0
10
16
20
42.880894
11
16
21
43.1457764
0
LINE
8
0
10
16
20
43.1457764
11
16
21
44.0034751
0
LINE
8
0
10
16
20
44.0034751
11
16
21
44.1772648
0
LINE
8
0
10
16
20
44.1772648
11
16
21
45.0586907
0
LINE
8
0
10
16
20
45.0586907
11
16
21
45.0586907
0
LINE
8
0
10
35.2
20
-9.78682457
11
35.2
21
-8.5263319
0
LINE
8
0
10
35.2
20
-8.5263319
11
35.2
21
-8.36364394
0
LINE
8
0
10
35.2
20
-8.36364394
11
34.6857743
21
-7.57780127
0
LINE
8
0
10
34.6857743
20
-7.57780127
11
34.2704568
21
-6.93147494
0
LINE
8
0
10
34.2704568
20
-6.93147494
11
34.1589007
21
-6.72156998
0
LINE
8
0
10
34.1589007
20
-6.72156998
11
34
21
-6.40261342
0
LINE
8
0
10
34
20
-6.40261342
11
31.0446119
21
-6.40261342
0
LINE
8
0
10
31.0446119
20
-6.40261342
11
29.4
21
-6.40261342
0
LINE
8
0
10
29.4
20
-6.40261342
11
29.2410993
21
-6.72156998
0
LINE
8
0
10
29.2410993
20
-6.72156998
11
29.1295432
21
-6.93147494
0
LINE
8
0
10
29.1295432
20
-6.93147494
11
28.7142257
21
-7.57780127
0
LINE
8
0
10
28.7142257
20
-7.57780127
11
28.2
21
-8.36364394
0
LINE
8
0
10
28.2
20
-8.36364394
11
28.2
21
-8.57014664
0
LINE
8
0
10
28.2
20
-8.57014664
11
28.2
21
-10.0978798
0
LINE
8
0
10
28.2
20
-10.0978798
11
28.2
21
-11.093329
0
LINE
8
0
10
28.2
20
-11.093329
11
28.2
21
-11.7250582
0
LINE
8
0
10
28.2
20
-11.7250582
11
28.2
21
-12.1095632
0
LINE
8
0
10
28.2
20
-12.1095632
11
28.2
21
-12.3245309
0
LINE
8
0
10
28.2
20
-12.3245309
11
28.2
21
-13.5
0
LINE
8
0
10
28.2
20
-13.5
11
28.2095067
21
-13.6934822
0
LINE
8
0
10
28.2095067
20
-13.6934822
11
28.21204
21
-13.74504
0
LINE
8
0
10
28.21204
20
-13.74504
11
28.2428028
21
-13.9141032
0
LINE
8
0
10
28.2428028
20
-13.9141032
11
28.2637444
21
-14.0550792
0
LINE
8
0
10
28.2637444
20
-14.0550792
11
28.3449761
21
-14.3231833
0
LINE
8
0
10
28.3449761
20
-14.3231833
11
28.4526694
21
-14.5831779
0
LINE
8
0
10
28.4526694
20
-14.5831779
11
28.582934
21
-14.8271827
0
LINE
8
0
10
28.582934
20
-14.8271827
11
28.7595092
21
-15.0573051
0
LINE
8
0
10
28.7595092
20
-15.0573051
11
28.93223
21
-15.26777
0
LINE
8
0
10
28.93223
20
-15.26777
11
29.1290142
21
-15.4292635
0
LINE
8
0
10
29.1290142
20
-15.4292635
11
29.3778344
21
-15.6201857
0
LINE
8
0
10
29.3778344
20
-15.6201857
11
29.5963836
21
-15.7372511
0
LINE
8
0
10
29.5963836
20
-15.7372511
11
29.898396
21
-15.8623487
0
LINE
8
0
10
29.898396
20
-15.8623487
11
30.1292286
21
-15.9325965
0
LINE
8
0
10
30.1292286
20
-15.9325965
11
30.3501509
21
-15.9539392
0
LINE
8
0
10
30.3501509
20
-15.9539392
11
30.5654112
21
-15.9867434
0
LINE
8
0
10
30.5654112
20
-15.9867434
11
30.7
21
-16
0
LINE
8
0
10
30.7
20
-16
11
32.0044172
21
-16
0
LINE
8
0
10
32.0044172
20
-16
11
32.7
21
-16
0
LINE
8
0
10
32.7
20
-16
11
33.039962
21
-15.9665147
0
LINE
8
0
10
33.039962
20
-15.9665147
11
33.3375405
21
-15.9170274
0
LINE
8
0
10
33.3375405
20
-15.9170274
11
33.3665023
21
-15.9082072
0
LINE
8
0
10
33.3665023
20
-15.9082072
11
33.9315761
21
-15.674146
0
LINE
8
0
10
33.9315761
20
-15.674146
11
33.9591705
21
-15.6593575
0
LINE
8
0
10
33.9591705
20
-15.6593575
11
34.4427634
21
-15.288292
0
LINE
8
0
10
34.4427634
20
-15.288292
11
34.46777
21
-15.26777
0
LINE
8
0
10
34.46777
20
-15.26777
11
34.4901018
21
-15.2405582
0
LINE
8
0
10
34.4901018
20
-15.2405582
11
34.8588547
21
-14.7599793
0
LINE
8
0
10
34.8588547
20
-14.7599793
11
34.8757656
21
-14.7282919
0
LINE
8
0
10
34.8757656
20
-14.7282919
11
35.1070302
21
-14.1699697
0
LINE
8
0
10
35.1070302
20
-14.1699697
11
35.1176122
21
-14.1350326
0
LINE
8
0
10
35.1176122
20
-14.1350326
11
35.1203545
21
-14.1165793
0
LINE
8
0
10
35.1203545
20
-14.1165793
11
35.1212775
21
-14.0979266
0
LINE
8
0
10
35.1212775
20
-14.0979266
11
35.1663268
21
-13.7557605
0
LINE
8
0
10
35.1663268
20
-13.7557605
11
35.1966683
21
-13.5678063
0
LINE
8
0
10
35.1966683
20
-13.5678063
11
35.2
21
-13.5
0
LINE
8
0
10
35.2
20
-13.5
11
35.2
21
-11.9496391
0
LINE
8
0
10
35.2
20
-11.9496391
11
35.2
21
-11.7252809
0
LINE
8
0
10
35.2
20
-11.7252809
11
35.2
21
-11.3256879
0
LINE
8
0
10
35.2
20
-11.3256879
11
35.2
21
-10.6995796
0
LINE
8
0
10
35.2
20
-10.6995796
11
35.2
21
-9.78682457
0
LINE
8
0
10
35.2
20
-9.78682457
11
35.2
21
-9.78682457
0
LINE
8
0
10
35.2
20
2.39892515
11
35.2
21
2.37502488
0
LINE
8
0
10
35.2
20
2.37502488
11
34.6390947
21
1.50362606
0
LINE
8
0
10
34.6390947
20
1.50362606
11
34.1990139
21
0.807197034
0
LINE
8
0
10
34.1990139
20
0.807197034
11
34.1186155
21
0.652412478
0
LINE
8
0
10
34.1186155
20
0.652412478
11
34
21
0.408458872
0
LINE
8
0
10
34
20
0.408458872
11
32.7447788
21
0.408458872
0
LINE
8
0
10
32.7447788
20
0.408458872
11
29.4
21
0.408458872
0
LINE
8
0
10
29.4
20
0.408458872
11
29.2813845
21
0.652412478
0
LINE
8
0
10
29.2813845
20
0.652412478
11
29.2009861
21
0.807197034
0
LINE
8
0
10
29.2009861
20
0.807197034
11
28.7609053
21
1.50362606
0
LINE
8
0
10
28.7609053
20
1.50362606
11
28.2
21
2.37502488
0
LINE
8
0
10
28.2
20
2.37502488
11
28.2
21
2.40791145
0
LINE
8
0
10
28.2
20
2.40791145
11
28.2
21
9.33665815
0
LINE
8
0
10
28.2
20
9.33665815
11
28.2
21
10.4569683
0
LINE
8
0
10
28.2
20
10.4569683
11
28.2
21
10.6198029
0
LINE
8
0
10
28.2
20
10.6198029
11
28.2
21
12.1958837
0
LINE
8
0
10
28.2
20
12.1958837
11
28.2
21
15
0
LINE
8
0
10
28.2
20
15
11
28.6008912
21
15
0
LINE
8
0
10
28.6008912
20
15
11
30.2
21
15
0
LINE
8
0
10
30.2
20
15
11
30.2
21
14.5312303
0
LINE
8
0
10
30.2
20
14.5312303
11
30.2
21
12.65094
0
LINE
8
0
10
30.2
20
12.65094
11
30.2
21
12.5984682
0
LINE
8
0
10
30.2
20
12.5984682
11
30.2
21
12.39302
0
LINE
8
0
10
30.2
20
12.39302
11
30.2
21
12.3410981
0
LINE
8
0
10
30.2
20
12.3410981
11
30.2
21
12.13557
0
LINE
8
0
10
30.2
20
12.13557
11
30.2
21
12.0871442
0
LINE
8
0
10
30.2
20
12.0871442
11
30.2
21
11.89597
0
LINE
8
0
10
30.2
20
11.89597
11
30.2
21
11.8539047
0
LINE
8
0
10
30.2
20
11.8539047
11
30.2
21
11.69043
0
LINE
8
0
10
30.2
20
11.69043
11
30.2
21
11.6574841
0
LINE
8
0
10
30.2
20
11.6574841
11
30.2
21
11.53281
0
LINE
8
0
10
30.2
20
11.53281
11
30.2
21
11.2387443
0
LINE
8
0
10
30.2
20
11.2387443
11
30.2
21
10
0
LINE
8
0
10
30.2
20
10
11
31.5842508
21
10
0
LINE
8
0
10
31.5842508
20
10
11
35.2
21
10
0
LINE
8
0
10
35.2
20
10
11
35.2
21
8.89553013
0
LINE
8
0
10
35.2
20
8.89553013
11
35.2
21
2.39892515
0
LINE
8
0
10
35.2
20
2.39892515
11
35.2
21
2.39892515
0
LINE
8
0
10
72
20
-6.73523587
11
72
21
-5.59534979
0
LINE
8
0
10
72
20
-5.59534979
11
71.9997386
21
-5.58919527
0
LINE
8
0
10
71.9997386
20
-5.58919527
11
71.9858486
21
-5.24382015
0
LINE
8
0
10
71.9858486
20
-5.24382015
11
71.9647695
21
-5.07247492
0
LINE
8
0
10
71.9647695
20
-5.07247492
11
71.9410587
21
-4.88246057
0
LINE
8
0
10
71.9410587
20
-4.88246057
11
71.9218806
21
-4.79120936
0
LINE
8
0
10
71.9218806
20
-4.79120936
11
71.8623402
21
-4.51188806
0
LINE
8
0
10
71.8623402
20
-4.51188806
11
71.8617495
21
-4.5099419
0
LINE
8
0
10
71.8617495
20
-4.5099419
11
71.8599384
21
-4.50405773
0
LINE
8
0
10
71.8599384
20
-4.50405773
11
71.7761826
21
-4.21765633
0
LINE
8
0
10
71.7761826
20
-4.21765633
11
71.7465771
21
-4.11795753
0
LINE
8
0
10
71.7465771
20
-4.11795753
11
71.6731192
21
-3.92971614
0
LINE
8
0
10
71.6731192
20
-3.92971614
11
71.5915553
21
-3.72383128
0
LINE
8
0
10
71.5915553
20
-3.72383128
11
71.5533618
21
-3.64723799
0
LINE
8
0
10
71.5533618
20
-3.64723799
11
71.4570122
21
-3.45679374
0
LINE
8
0
10
71.4570122
20
-3.45679374
11
71.4143807
21
-3.36726971
0
LINE
8
0
10
71.4143807
20
-3.36726971
11
71.3956895
21
-3.32863823
0
LINE
8
0
10
71.3956895
20
-3.32863823
11
71.2533555
21
-3.08862511
0
LINE
8
0
10
71.2533555
20
-3.08862511
11
71.1580258
21
-2.93029169
0
LINE
8
0
10
71.1580258
20
-2.93029169
11
71.0773694
21
-2.81956617
0
LINE
8
0
10
71.0773694
20
-2.81956617
11
70.8972921
21
-2.5758102
0
LINE
8
0
10
70.8972921
20
-2.5758102
11
70.8858196
21
-2.55913878
0
LINE
8
0
10
70.8858196
20
-2.55913878
11
70.8799991
21
-2.55080919
0
LINE
8
0
10
70.8799991
20
-2.55080919
11
70.6724058
21
-2.30360993
0
LINE
8
0
10
70.6724058
20
-2.30360993
11
70.5621515
21
-2.1741484
0
LINE
8
0
10
70.5621515
20
-2.1741484
11
70.4453888
21
-2.06045761
0
LINE
8
0
10
70.4453888
20
-2.06045761
11
70.2104642
21
-1.83454358
0
LINE
8
0
10
70.2104642
20
-1.83454358
11
70.2036093
21
-1.8291437
0
LINE
8
0
10
70.2036093
20
-1.8291437
11
70.1867095
21
-1.81597299
0
LINE
8
0
10
70.1867095
20
-1.81597299
11
69.9431775
21
-1.60980262
0
LINE
8
0
10
69.9431775
20
-1.60980262
11
69.8277644
21
-1.51321477
0
LINE
8
0
10
69.8277644
20
-1.51321477
11
69.6687104
21
-1.40637996
0
LINE
8
0
10
69.6687104
20
-1.40637996
11
69.4249424
21
-1.244185
0
LINE
8
0
10
69.4249424
20
-1.244185
11
69.3784188
21
-1.22036108
0
LINE
8
0
10
69.3784188
20
-1.22036108
11
69.2335046
21
-1.14669161
0
LINE
8
0
10
69.2335046
20
-1.14669161
11
69.0717514
21
-1.05595954
0
LINE
8
0
10
69.0717514
20
-1.05595954
11
69.0095998
21
-1.02136593
0
LINE
8
0
10
69.0095998
20
-1.02136593
11
68.7501458
21
-0.918011731
0
LINE
8
0
10
68.7501458
20
-0.918011731
11
68.5930749
21
-0.855780292
0
LINE
8
0
10
68.5930749
20
-0.855780292
11
68.4120378
21
-0.8123197
0
LINE
8
0
10
68.4120378
20
-0.8123197
11
68.1881057
21
-0.75872949
0
LINE
8
0
10
68.1881057
20
-0.75872949
11
67.9090785
21
-0.742327053
0
LINE
8
0
10
67.9090785
20
-0.742327053
11
67.8043853
21
-0.728276508
0
LINE
8
0
10
67.8043853
20
-0.728276508
11
66.9916945
21
-0.727125307
0
LINE
8
0
10
66.9916945
20
-0.727125307
11
58.5
21
-0.692795699
0
LINE
8
0
10
58.5
20
-0.692795699
11
58.3410993
21
-1.011752
0
LINE
8
0
10
58.3410993
20
-1.011752
11
58.2295432
21
-1.22165716
0
LINE
8
0
10
58.2295432
20
-1.22165716
11
57.8142257
21
-1.86798385
0
LINE
8
0
10
57.8142257
20
-1.86798385
11
57.3
21
-2.65382605
0
LINE
8
0
10
57.3
20
-2.65382605
11
57.3
21
-2.88752733
0
LINE
8
0
10
57.3
20
-2.88752733
11
57.3
21
-4.8075441
0
LINE
8
0
10
57.3
20
-4.8075441
11
57.3
21
-6.29700761
0
LINE
8
0
10
57.3
20
-6.29700761
11
57.3
21
-7.41368893
0
LINE
8
0
10
57.3
20
-7.41368893
11
57.3
21
-8.22373875
0
LINE
8
0
10
57.3
20
-8.22373875
11
57.3
21
-8.34868353
0
LINE
8
0
10
57.3
20
-8.34868353
11
57.3
21
-8.9331867
0
LINE
8
0
10
57.3
20
-8.9331867
11
57.3
21
-9.05958
0
LINE
8
0
10
57.3
20
-9.05958
11
57.3
21
-14.17729
0
LINE
8
0
10
57.3
20
-14.17729
11
57.3
21
-14.2667591
0
LINE
8
0
10
57.3
20
-14.2667591
11
57.3
21
-14.5
0
LINE
8
0
10
57.3
20
-14.5
11
57.3253966
21
-14.7308559
0
LINE
8
0
10
57.3253966
20
-14.7308559
11
57.3464944
21
-14.85317
0
LINE
8
0
10
57.3464944
20
-14.85317
11
57.35111
21
-14.88823
0
LINE
8
0
10
57.35111
20
-14.88823
11
57.4641646
21
-15.161168
0
LINE
8
0
10
57.4641646
20
-15.161168
11
57.50096
21
-15.25
0
LINE
8
0
10
57.50096
20
-15.25
11
57.6808062
21
-15.484378
0
LINE
8
0
10
57.6808062
20
-15.484378
11
57.73934
21
-15.56066
0
LINE
8
0
10
57.73934
20
-15.56066
11
57.973718
21
-15.7405062
0
LINE
8
0
10
57.973718
20
-15.7405062
11
58.05
21
-15.79904
0
LINE
8
0
10
58.05
20
-15.79904
11
58.322938
21
-15.9120946
0
LINE
8
0
10
58.322938
20
-15.9120946
11
58.41177
21
-15.94889
0
LINE
8
0
10
58.41177
20
-15.94889
11
58.5123418
21
-15.9663616
0
LINE
8
0
10
58.5123418
20
-15.9663616
11
58.6577786
21
-15.9929689
0
LINE
8
0
10
58.6577786
20
-15.9929689
11
58.67679
21
-15.99493
0
LINE
8
0
10
58.67679
20
-15.99493
11
58.69595
21
-15.9961125
0
LINE
8
0
10
58.69595
20
-15.9961125
11
58.73836
21
-15.99873
0
LINE
8
0
10
58.73836
20
-15.99873
11
58.7574713
21
-15.9991238
0
LINE
8
0
10
58.7574713
20
-15.9991238
11
58.8
21
-16
0
LINE
8
0
10
58.8
20
-16
11
66.7595983
21
-16
0
LINE
8
0
10
66.7595983
20
-16
11
69.5
21
-16
0
LINE
8
0
10
69.5
20
-16
11
69.8582718
21
-15.9528303
0
LINE
8
0
10
69.8582718
20
-15.9528303
11
70.14705
21
-15.91481
0
LINE
8
0
10
70.14705
20
-15.91481
11
70.4161464
21
-15.8033467
0
LINE
8
0
10
70.4161464
20
-15.8033467
11
70.75
21
-15.66506
0
LINE
8
0
10
70.75
20
-15.66506
11
70.9810806
21
-15.4877496
0
LINE
8
0
10
70.9810806
20
-15.4877496
11
71.26777
21
-15.26777
0
LINE
8
0
10
71.26777
20
-15.26777
11
71.4450804
21
-15.0366894
0
LINE
8
0
10
71.4450804
20
-15.0366894
11
71.66506
21
-14.75
0
LINE
8
0
10
71.66506
20
-14.75
11
71.7765233
21
-14.4809036
0
LINE
8
0
10
71.7765233
20
-14.4809036
11
71.91481
21
-14.14705
0
LINE
8
0
10
71.91481
20
-14.14705
11
71.9528303
21
-13.8582718
0
LINE
8
0
10
71.9528303
20
-13.8582718
11
72
21
-13.5
0
LINE
8
0
10
72
20
-13.5
11
72
21
-9.78441404
0
LINE
8
0
10
72
20
-9.78441404
11
72
21
-9.67458899
0
LINE
8
0
10
72
20
-9.67458899
11
72
21
-9.07083304
0
LINE
8
0
10
72
20
-9.07083304
11
72
21
-8.50221974
0
LINE
8
0
10
72
20
-8.50221974
11
72
21
-7.73543106
0
LINE
8
0
10
72
20
-7.73543106
11
72
21
-6.73523587
0
LINE
8
0
10
72
20
-6.73523587
11
72
21
-6.73523587
0
LINE
8
0
10
72
20
14.9456807
11
72
21
14.9470876
0
LINE
8
0
10
72
20
14.9470876
11
72
21
17.265064
0
LINE
8
0
10
72
20
17.265064
11
72
21
17.5681199
0
LINE
8
0
10
72
20
17.5681199
11
72
21
20.57188
0
LINE
8
0
10
72
20
20.57188
11
72.3436812
21
20.9203943
0
LINE
8
0
10
72.3436812
20
20.9203943
11
72.6852429
21
21.2667529
0
LINE
8
0
10
72.6852429
20
21.2667529
11
73.0256172
21
21.6119168
0
LINE
8
0
10
73.0256172
20
21.6119168
11
73.0257672
21
21.612069
0
LINE
8
0
10
73.0257672
20
21.612069
11
73.15509
21
21.74321
0
LINE
8
0
10
73.15509
20
21.74321
11
73.1720653
21
21.760424
0
LINE
8
0
10
73.1720653
20
21.760424
11
73.44949
21
22.04175
0
LINE
8
0
10
73.44949
20
22.04175
11
73.4566095
21
22.0489697
0
LINE
8
0
10
73.4566095
20
22.0489697
11
73.6528602
21
22.2479835
0
LINE
8
0
10
73.6528602
20
22.2479835
11
73.65292
21
23.2080772
0
LINE
8
0
10
73.65292
20
23.2080772
11
73.6405459
21
28.8868717
0
LINE
8
0
10
73.6405459
20
28.8868717
11
67.4437244
21
28.8904506
0
LINE
8
0
10
67.4437244
20
28.8904506
11
65.4945786
21
28.8910011
0
LINE
8
0
10
65.4945786
20
28.8910011
11
65.4016254
21
28.8815382
0
LINE
8
0
10
65.4016254
20
28.8815382
11
65.3813671
21
28.87909
0
LINE
8
0
10
65.3813671
20
28.87909
11
65.3501348
21
28.8693029
0
LINE
8
0
10
65.3501348
20
28.8693029
11
65.269677
21
28.8440949
0
LINE
8
0
10
65.269677
20
28.8440949
11
65.2444563
21
28.8322778
0
LINE
8
0
10
65.2444563
20
28.8322778
11
65.1646071
21
28.7885271
0
LINE
8
0
10
65.1646071
20
28.7885271
11
65.1111568
21
28.7512159
0
LINE
8
0
10
65.1111568
20
28.7512159
11
65.0727024
21
28.7190898
0
LINE
8
0
10
65.0727024
20
28.7190898
11
65.0039077
21
28.651967
0
LINE
8
0
10
65.0039077
20
28.651967
11
64.9956934
21
28.6418362
0
LINE
8
0
10
64.9956934
20
28.6418362
11
64.9706509
21
28.6080037
0
LINE
8
0
10
64.9706509
20
28.6080037
11
64.9418846
21
28.547084
0
LINE
8
0
10
64.9418846
20
28.547084
11
64.940438
21
28.5429395
0
LINE
8
0
10
64.940438
20
28.5429395
11
64.9109302
21
28.4329108
0
LINE
8
0
10
64.9109302
20
28.4329108
11
64.909558
21
28.4204713
0
LINE
8
0
10
64.909558
20
28.4204713
11
64.9
21
28.3104417
0
LINE
8
0
10
64.9
20
28.3104417
11
64.9
21
28.2021687
0
LINE
8
0
10
64.9
20
28.2021687
11
64.9
21
23.8714423
0
LINE
8
0
10
64.9
20
23.8714423
11
64.9
21
23.491626
0
LINE
8
0
10
64.9
20
23.491626
11
64.9
21
23.3550835
0
LINE
8
0
10
64.9
20
23.3550835
11
64.9
21
23.2796544
0
LINE
8
0
10
64.9
20
23.2796544
11
64.9
21
23.2
0
LINE
8
0
10
64.9
20
23.2
11
64.841422
21
23.2
0
LINE
8
0
10
64.841422
20
23.2
11
63.98849
21
23.2
0
LINE
8
0
10
63.98849
20
23.2
11
63.9667933
21
23.1804648
0
LINE
8
0
10
63.9667933
20
23.1804648
11
63.9414555
21
23.1576511
0
LINE
8
0
10
63.9414555
20
23.1576511
11
63.8825569
21
23.1046158
0
LINE
8
0
10
63.8825569
20
23.1046158
11
63.8182945
21
23.0467555
0
LINE
8
0
10
63.8182945
20
23.0467555
11
63.2509888
21
22.5359511
0
LINE
8
0
10
63.2509888
20
22.5359511
11
63.20337
21
22.4930774
0
LINE
8
0
10
63.20337
20
22.4930774
11
63.1605952
21
22.4545595
0
LINE
8
0
10
63.1605952
20
22.4545595
11
63.1425686
21
22.4383293
0
LINE
8
0
10
63.1425686
20
22.4383293
11
63.127406
21
22.4246761
0
LINE
8
0
10
63.127406
20
22.4246761
11
63.1154271
21
22.4138897
0
LINE
8
0
10
63.1154271
20
22.4138897
11
63.1068292
21
22.4061483
0
LINE
8
0
10
63.1068292
20
22.4061483
11
63.101692
21
22.4015228
0
LINE
8
0
10
63.101692
20
22.4015228
11
63.1
21
22.4
0
LINE
8
0
10
63.1
20
22.4
11
63.1
21
17.0890122
0
LINE
8
0
10
63.1
20
17.0890122
11
63.1
21
10
0
LINE
8
0
10
63.1
20
10
11
62.471136
21
10
0
LINE
8
0
10
62.471136
20
10
11
60.02146
21
10
0
LINE
8
0
10
60.02146
20
10
11
59.9194668
21
10
0
LINE
8
0
10
59.9194668
20
10
11
57.3
21
10
0
LINE
8
0
10
57.3
20
10
11
57.3
21
8.10010372
0
LINE
8
0
10
57.3
20
8.10010372
11
57.3
21
8.08484188
0
LINE
8
0
10
57.3
20
8.08484188
11
57.8609053
21
7.21344306
0
LINE
8
0
10
57.8609053
20
7.21344306
11
58.3009861
21
6.51701428
0
LINE
8
0
10
58.3009861
20
6.51701428
11
58.3813845
21
6.3622298
0
LINE
8
0
10
58.3813845
20
6.3622298
11
58.5
21
6.11827636
0
LINE
8
0
10
58.5
20
6.11827636
11
61.7943445
21
6.13905479
0
LINE
8
0
10
61.7943445
20
6.13905479
11
66.0821866
21
6.12510027
0
LINE
8
0
10
66.0821866
20
6.12510027
11
66.5025473
21
6.1826968
0
LINE
8
0
10
66.5025473
20
6.1826968
11
66.6030024
21
6.19310823
0
LINE
8
0
10
66.6030024
20
6.19310823
11
66.7797444
21
6.23794219
0
LINE
8
0
10
66.7797444
20
6.23794219
11
67.1409334
21
6.32962958
0
LINE
8
0
10
67.1409334
20
6.32962958
11
67.5626793
21
6.51465626
0
LINE
8
0
10
67.5626793
20
6.51465626
11
67.6821547
21
6.56711878
0
LINE
8
0
10
67.6821547
20
6.56711878
11
67.8160956
21
6.65295066
0
LINE
8
0
10
67.8160956
20
6.65295066
11
68.2258135
21
6.8848027
0
LINE
8
0
10
68.2258135
20
6.8848027
11
68.6855414
21
7.23417458
0
LINE
8
0
10
68.6855414
20
7.23417458
11
68.7617401
21
7.29211458
0
LINE
8
0
10
68.7617401
20
7.29211458
11
68.8036492
21
7.33309086
0
LINE
8
0
10
68.8036492
20
7.33309086
11
69.1655301
21
7.64415839
0
LINE
8
0
10
69.1655301
20
7.64415839
11
69.586478
21
8.10737166
0
LINE
8
0
10
69.586478
20
8.10737166
11
69.8441817
21
8.36438138
0
LINE
8
0
10
69.8441817
20
8.36438138
11
69.8555032
21
8.37637778
0
LINE
8
0
10
69.8555032
20
8.37637778
11
69.8659477
21
8.38990216
0
LINE
8
0
10
69.8659477
20
8.38990216
11
70.5581726
21
9.37541782
0
LINE
8
0
10
70.5581726
20
9.37541782
11
70.6006628
21
9.44239083
0
LINE
8
0
10
70.6006628
20
9.44239083
11
70.6383551
21
9.51499238
0
LINE
8
0
10
70.6383551
20
9.51499238
11
71.1570138
21
10.5693852
0
LINE
8
0
10
71.1570138
20
10.5693852
11
71.2139185
21
10.7049927
0
LINE
8
0
10
71.2139185
20
10.7049927
11
71.261253
21
10.8479152
0
LINE
8
0
10
71.261253
20
10.8479152
11
71.6131439
21
11.922181
0
LINE
8
0
10
71.6131439
20
11.922181
11
71.6650755
21
12.1293999
0
LINE
8
0
10
71.6650755
20
12.1293999
11
71.8540229
21
13.1302302
0
LINE
8
0
10
71.8540229
20
13.1302302
11
71.9008192
21
13.3968511
0
LINE
8
0
10
71.9008192
20
13.3968511
11
71.9291133
21
13.6687419
0
LINE
8
0
10
71.9291133
20
13.6687419
11
71.9888479
21
14.6239766
0
LINE
8
0
10
71.9888479
20
14.6239766
11
72
21
14.9456807
0
LINE
8
0
10
72
20
14.9456807
11
72
21
14.9456807
0
ENDSEC
0
EOF
