0
SECTION
2
ENTITIES
0
LINE
8
0
10
16
20
39.6521601
11
16
21
38.5489761
0
LINE
8
0
10
16
20
38.5489761
11
16
21
37.132215
0
LINE
8
0
10
16
20
37.132215
11
16.2968602
21
37.132215
0
LINE
8
0
10
16.2968602
20
37.132215
11
17.8
21
37.132215
0
LINE
8
0
10
17.8
20
37.132215
11
17.8
21
36.4118873
0
LINE
8
0
10
17.8
20
36.4118873
11
17.8
21
33.1874394
0
LINE
8
0
10
17.8
20
33.1874394
11
17.8
21
31.2887092
0
LINE
8
0
10
17.8
20
31.2887092
11
17.8
21
30.1056966
0
LINE
8
0
10
17.8
20
30.1056966
11
17.8
21
28.7049291
0
LINE
8
0
10
17.8
20
28.7049291
11
17.8
21
26.9892906
0
LINE
8
0
10
17.8
20
26.9892906
11
17.7730248
21
26.5632081
0
LINE
8
0
10
17.7730248
20
26.5632081
11
17.72314
21
25.7752606
0
LINE
8
0
10
17.72314
20
25.7752606
11
17.6432532
21
25.3655541
0
LINE
8
0
10
17.6432532
20
25.3655541
11
17.49552
21
24.6078906
0
LINE
8
0
10
17.49552
20
24.6078906
11
17.3657891
21
24.230301
0
LINE
8
0
10
17.3657891
20
24.230301
11
17.12588
21
23.5320306
0
LINE
8
0
10
17.12588
20
23.5320306
11
16.9512922
21
23.2010737
0
LINE
8
0
10
16.9512922
20
23.2010737
11
16.62843
21
22.5890406
0
LINE
8
0
10
16.62843
20
22.5890406
11
16.5263482
21
22.4451062
0
LINE
8
0
10
16.5263482
20
22.4451062
11
16.33757
21
22.1789241
0
LINE
8
0
10
16.33757
20
22.1789241
11
16.2269141
21
22.0512464
0
LINE
8
0
10
16.2269141
20
22.0512464
11
16.02228
21
21.8151406
0
LINE
8
0
10
16.02228
20
21.8151406
11
15.9041134
21
21.704955
0
LINE
8
0
10
15.9041134
20
21.704955
11
15.68559
21
21.5011841
0
LINE
8
0
10
15.68559
20
21.5011841
11
15.5610464
21
21.4095436
0
LINE
8
0
10
15.5610464
20
21.4095436
11
15.33073
21
21.2400806
0
LINE
8
0
10
15.33073
20
21.2400806
11
15.2010167
21
21.1678765
0
LINE
8
0
10
15.2010167
20
21.1678765
11
14.96114
21
21.0343506
0
LINE
8
0
10
14.96114
20
21.0343506
11
14.8274994
21
20.9822744
0
LINE
8
0
10
14.8274994
20
20.9822744
11
14.58036
21
20.8859641
0
LINE
8
0
10
14.58036
20
20.8859641
11
14.4440836
21
20.8545141
0
LINE
8
0
10
14.4440836
20
20.8545141
11
14.19207
21
20.7963606
0
LINE
8
0
10
14.19207
20
20.7963606
11
14.054467
21
20.7858422
0
LINE
8
0
10
14.054467
20
20.7858422
11
13.8
21
20.7663906
0
LINE
8
0
10
13.8
20
20.7663906
11
9.79899406
21
20.7663906
0
LINE
8
0
10
9.79899406
20
20.7663906
11
2.4
21
20.7663868
0
LINE
8
0
10
2.4
20
20.7663868
11
2.4
21
25.7884883
0
LINE
8
0
10
2.4
20
25.7884883
11
2.4
21
28.4033559
0
LINE
8
0
10
2.4
20
28.4033559
11
2.4
21
31.5578086
0
LINE
8
0
10
2.4
20
31.5578086
11
2.4
21
37.6030813
0
LINE
8
0
10
2.4
20
37.6030813
11
2.4
21
38.0482445
0
LINE
8
0
10
2.4
20
38.0482445
11
2.4
21
38.6703604
0
LINE
8
0
10
2.4
20
38.6703604
11
2.4
21
40.6194406
0
LINE
8
0
10
2.4
20
40.6194406
11
2.4
21
41.1414733
0
LINE
8
0
10
2.4
20
41.1414733
11
2.4
21
41.834694
0
LINE
8
0
10
2.4
20
41.834694
11
2.4
21
42.6708136
0
LINE
8
0
10
2.4
20
42.6708136
11
2.4
21
43.1292938
0
LINE
8
0
10
2.4
20
43.1292938
11
2.4
21
43.157236
0
LINE
8
0
10
2.4
20
43.157236
11
2.4
21
43.9940341
0
LINE
8
0
10
2.4
20
43.9940341
11
2.4
21
44.017256
0
LINE
8
0
10
2.4
20
44.017256
11
2.4
21
44.040291
0
LINE
8
0
10
2.4
20
44.040291
11
2.4
21
44.9117879
0
LINE
8
0
10
2.4
20
44.9117879
11
2.4
21
45.779023
0
LINE
8
0
10
2.4
20
45.779023
11
2.4
21
48.2
0
LINE
8
0
10
2.4
20
48.2
11
2.45499491
21
48.6177315
0
LINE
8
0
10
2.45499491
20
48.6177315
11
2.468148
21
48.71764
0
LINE
8
0
10
2.468148
20
48.71764
11
2.62938588
21
49.1069008
0
LINE
8
0
10
2.62938588
20
49.1069008
11
2.667949
21
49.2
0
LINE
8
0
10
2.667949
20
49.2
11
2.92444103
21
49.5342643
0
LINE
8
0
10
2.92444103
20
49.5342643
11
2.985786
21
49.61421
0
LINE
8
0
10
2.985786
20
49.61421
11
3.32005353
21
49.8707044
0
LINE
8
0
10
3.32005353
20
49.8707044
11
3.4
21
49.93205
0
LINE
8
0
10
3.4
20
49.93205
11
3.78926244
21
50.0932871
0
LINE
8
0
10
3.78926244
20
50.0932871
11
3.882362
21
50.13185
0
LINE
8
0
10
3.882362
20
50.13185
11
4.3000919
21
50.1868465
0
LINE
8
0
10
4.3000919
20
50.1868465
11
4.4
21
50.2
0
LINE
8
0
10
4.4
20
50.2
11
6.27488016
21
50.2
0
LINE
8
0
10
6.27488016
20
50.2
11
6.41877642
21
50.2
0
LINE
8
0
10
6.41877642
20
50.2
11
6.57736876
21
50.2
0
LINE
8
0
10
6.57736876
20
50.2
11
6.73593644
21
50.2
0
LINE
8
0
10
6.73593644
20
50.2
11
6.87548645
21
50.2
0
LINE
8
0
10
6.87548645
20
50.2
11
6.97670102
21
50.2
0
LINE
8
0
10
6.97670102
20
50.2
11
14.0479538
21
50.2
0
LINE
8
0
10
14.0479538
20
50.2
11
14.1428161
21
50.2
0
LINE
8
0
10
14.1428161
20
50.2
11
14.2644649
21
50.2
0
LINE
8
0
10
14.2644649
20
50.2
11
14.3965982
21
50.2
0
LINE
8
0
10
14.3965982
20
50.2
11
14.524044
21
50.2
0
LINE
8
0
10
14.524044
20
50.2
11
14.6356768
21
50.2
0
LINE
8
0
10
14.6356768
20
50.2
11
16
21
50.2
0
LINE
8
0
10
16
20
50.2
11
16
21
46.161503
0
LINE
8
0
10
16
20
46.161503
11
16
21
45.2
0
LINE
8
0
10
16
20
45.2
11
16
21
44.9318724
0
LINE
8
0
10
16
20
44.9318724
11
16
21
44.1415356
0
LINE
8
0
10
16
20
44.1415356
11
16
21
43.8364286
0
LINE
8
0
10
16
20
43.8364286
11
16
21
43.0733053
0
LINE
8
0
10
16
20
43.0733053
11
16
21
42.6720889
0
LINE
8
0
10
16
20
42.6720889
11
16
21
41.9827128
0
LINE
8
0
10
16
20
41.9827128
11
16
21
41.4214202
0
LINE
8
0
10
16
20
41.4214202
11
16
21
40.851405
0
LINE
8
0
10
16
20
40.851405
11
16
21
40.0598088
0
LINE
8
0
10
16
20
40.0598088
11
16
21
39.6521601
0
LINE
8
0
10
16
20
39.6521601
11
16
21
39.6521601
0
LINE
8
0
10
28.5184001
20
-7.33944907
11
28.8820362
21
-6.65522829
0
LINE
8
0
10
28.8820362
20
-6.65522829
11
29.283238
21
-5.84990811
0
LINE
8
0
10
29.283238
20
-5.84990811
11
29.3212291
21
-5.75329158
0
LINE
8
0
10
29.3212291
20
-5.75329158
11
29.4
21
-5.52260613
0
LINE
8
0
10
29.4
20
-5.52260613
11
30.5048371
21
-5.52260613
0
LINE
8
0
10
30.5048371
20
-5.52260613
11
34
21
-5.52260613
0
LINE
8
0
10
34
20
-5.52260613
11
34.0787709
21
-5.75329158
0
LINE
8
0
10
34.0787709
20
-5.75329158
11
34.116762
21
-5.84990811
0
LINE
8
0
10
34.116762
20
-5.84990811
11
34.5179638
21
-6.65522829
0
LINE
8
0
10
34.5179638
20
-6.65522829
11
34.8815999
21
-7.33944907
0
LINE
8
0
10
34.8815999
20
-7.33944907
11
35.0238602
21
-7.56083781
0
LINE
8
0
10
35.0238602
20
-7.56083781
11
35.2
21
-7.83001564
0
LINE
8
0
10
35.2
20
-7.83001564
11
35.2
21
-8.86040952
0
LINE
8
0
10
35.2
20
-8.86040952
11
35.2
21
-10.0362358
0
LINE
8
0
10
35.2
20
-10.0362358
11
35.2
21
-10.8876818
0
LINE
8
0
10
35.2
20
-10.8876818
11
35.2
21
-11.4717348
0
LINE
8
0
10
35.2
20
-11.4717348
11
35.2
21
-11.8444875
0
LINE
8
0
10
35.2
20
-11.8444875
11
35.2
21
-12.0537757
0
LINE
8
0
10
35.2
20
-12.0537757
11
35.2
21
-13.5
0
LINE
8
0
10
35.2
20
-13.5
11
35.1968921
21
-13.5632518
0
LINE
8
0
10
35.1968921
20
-13.5632518
11
35.1685886
21
-13.7385812
0
LINE
8
0
10
35.1685886
20
-13.7385812
11
35.1265653
21
-14.0577643
0
LINE
8
0
10
35.1265653
20
-14.0577643
11
35.1248875
21
-14.0916672
0
LINE
8
0
10
35.1248875
20
-14.0916672
11
35.1199032
21
-14.1252074
0
LINE
8
0
10
35.1199032
20
-14.1252074
11
35.1006696
21
-14.1887084
0
LINE
8
0
10
35.1006696
20
-14.1887084
11
34.8845183
21
-14.7105439
0
LINE
8
0
10
34.8845183
20
-14.7105439
11
34.8537813
21
-14.7681381
0
LINE
8
0
10
34.8537813
20
-14.7681381
11
34.5083597
21
-15.2183103
0
LINE
8
0
10
34.5083597
20
-15.2183103
11
34.46777
21
-15.26777
0
LINE
8
0
10
34.46777
20
-15.26777
11
34.4223186
21
-15.3050703
0
LINE
8
0
10
34.4223186
20
-15.3050703
11
33.9666682
21
-15.6546953
0
LINE
8
0
10
33.9666682
20
-15.6546953
11
33.916513
21
-15.6815746
0
LINE
8
0
10
33.916513
20
-15.6815746
11
33.382406
21
-15.9028089
0
LINE
8
0
10
33.382406
20
-15.9028089
11
33.3297657
21
-15.9188403
0
LINE
8
0
10
33.3297657
20
-15.9188403
11
33.0476308
21
-15.9657594
0
LINE
8
0
10
33.0476308
20
-15.9657594
11
32.7
21
-16
0
LINE
8
0
10
32.7
20
-16
11
32.0386308
21
-16
0
LINE
8
0
10
32.0386308
20
-16
11
30.7
21
-16
0
LINE
8
0
10
30.7
20
-16
11
30.5749391
21
-15.9876819
0
LINE
8
0
10
30.5749391
20
-15.9876819
11
30.3749177
21
-15.9572
0
LINE
8
0
10
30.3749177
20
-15.9572
11
30.1355852
21
-15.9340787
0
LINE
8
0
10
30.1355852
20
-15.9340787
11
29.8855165
21
-15.8579769
0
LINE
8
0
10
29.8855165
20
-15.8579769
11
29.6085822
21
-15.743267
0
LINE
8
0
10
29.6085822
20
-15.743267
11
29.3718206
21
-15.6164462
0
LINE
8
0
10
29.3718206
20
-15.6164462
11
29.1454129
21
-15.4427213
0
LINE
8
0
10
29.1454129
20
-15.4427213
11
28.93223
21
-15.26777
0
LINE
8
0
10
28.93223
20
-15.26777
11
28.7451158
21
-15.0397664
0
LINE
8
0
10
28.7451158
20
-15.0397664
11
28.5869335
21
-14.8336146
0
LINE
8
0
10
28.5869335
20
-14.8336146
11
28.4458135
21
-14.5692761
0
LINE
8
0
10
28.4458135
20
-14.5692761
11
28.3499583
21
-14.337861
0
LINE
8
0
10
28.3499583
20
-14.337861
11
28.2619573
21
-14.047415
0
LINE
8
0
10
28.2619573
20
-14.047415
11
28.2392706
21
-13.8946909
0
LINE
8
0
10
28.2392706
20
-13.8946909
11
28.21204
21
-13.74504
0
LINE
8
0
10
28.21204
20
-13.74504
11
28.2097976
21
-13.6994022
0
LINE
8
0
10
28.2097976
20
-13.6994022
11
28.2
21
-13.5
0
LINE
8
0
10
28.2
20
-13.5
11
28.2
21
-12.4599085
0
LINE
8
0
10
28.2
20
-12.4599085
11
28.2
21
-12.2696984
0
LINE
8
0
10
28.2
20
-12.2696984
11
28.2
21
-11.9294764
0
LINE
8
0
10
28.2
20
-11.9294764
11
28.2
21
-11.3705028
0
LINE
8
0
10
28.2
20
-11.3705028
11
28.2
21
-10.4896985
0
LINE
8
0
10
28.2
20
-10.4896985
11
28.2
21
-9.13791281
0
LINE
8
0
10
28.2
20
-9.13791281
11
28.2
21
-7.83001564
0
LINE
8
0
10
28.2
20
-7.83001564
11
28.3761398
21
-7.56083781
0
LINE
8
0
10
28.3761398
20
-7.56083781
11
28.5184001
21
-7.33944907
0
LINE
8
0
10
28.5184001
20
-7.33944907
11
28.5184001
21
-7.33944907
0
LINE
8
0
10
35.2
20
10
11
35.2
21
8.96971655
0
LINE
8
0
10
35.2
20
8.96971655
11
35.2
21
2.90948375
0
LINE
8
0
10
35.2
20
2.90948375
11
35.2
21
1.82607777
0
LINE
8
0
10
35.2
20
1.82607777
11
34.9773879
21
1.48023703
0
LINE
8
0
10
34.9773879
20
1.48023703
11
34.8027287
21
1.2038383
0
LINE
8
0
10
34.8027287
20
1.2038383
11
34.4784395
21
0.579509987
0
LINE
8
0
10
34.4784395
20
0.579509987
11
34.0685996
21
-0.26339748
0
LINE
8
0
10
34.0685996
20
-0.26339748
11
34.0469454
21
-0.32036467
0
LINE
8
0
10
34.0469454
20
-0.32036467
11
34
21
-0.463250889
0
LINE
8
0
10
34
20
-0.463250889
11
33.3181091
21
-0.463250889
0
LINE
8
0
10
33.3181091
20
-0.463250889
11
29.4
21
-0.463250889
0
LINE
8
0
10
29.4
20
-0.463250889
11
29.3530546
21
-0.32036467
0
LINE
8
0
10
29.3530546
20
-0.32036467
11
29.3314004
21
-0.26339748
0
LINE
8
0
10
29.3314004
20
-0.26339748
11
28.9215605
21
0.579509987
0
LINE
8
0
10
28.9215605
20
0.579509987
11
28.5972713
21
1.2038383
0
LINE
8
0
10
28.5972713
20
1.2038383
11
28.4226121
21
1.48023703
0
LINE
8
0
10
28.4226121
20
1.48023703
11
28.2
21
1.82607777
0
LINE
8
0
10
28.2
20
1.82607777
11
28.2
21
3.31683521
0
LINE
8
0
10
28.2
20
3.31683521
11
28.2
21
9.44760524
0
LINE
8
0
10
28.2
20
9.44760524
11
28.2
21
10.6612745
0
LINE
8
0
10
28.2
20
10.6612745
11
28.2
21
10.8376787
0
LINE
8
0
10
28.2
20
10.8376787
11
28.2
21
12.5450996
0
LINE
8
0
10
28.2
20
12.5450996
11
28.2
21
15
0
LINE
8
0
10
28.2
20
15
11
28.5509654
21
15
0
LINE
8
0
10
28.5509654
20
15
11
30.2
21
15
0
LINE
8
0
10
30.2
20
15
11
30.2
21
14.5896094
0
LINE
8
0
10
30.2
20
14.5896094
11
30.2
21
12.65094
0
LINE
8
0
10
30.2
20
12.65094
11
30.2
21
12.6048607
0
LINE
8
0
10
30.2
20
12.6048607
11
30.2
21
12.39302
0
LINE
8
0
10
30.2
20
12.39302
11
30.2
21
12.3474777
0
LINE
8
0
10
30.2
20
12.3474777
11
30.2
21
12.13557
0
LINE
8
0
10
30.2
20
12.13557
11
30.2
21
12.0930382
0
LINE
8
0
10
30.2
20
12.0930382
11
30.2
21
11.89597
0
LINE
8
0
10
30.2
20
11.89597
11
30.2
21
11.8588915
0
LINE
8
0
10
30.2
20
11.8588915
11
30.2
21
11.69043
0
LINE
8
0
10
30.2
20
11.69043
11
30.2
21
11.6612357
0
LINE
8
0
10
30.2
20
11.6612357
11
30.2
21
11.53281
0
LINE
8
0
10
30.2
20
11.53281
11
30.2
21
11.2705986
0
LINE
8
0
10
30.2
20
11.2705986
11
30.2
21
10
0
LINE
8
0
10
30.2
20
10
11
31.4912717
21
10
0
LINE
8
0
10
31.4912717
20
10
11
35.2
21
10
0
LINE
8
0
10
35.2
20
10
11
35.2
21
10
0
LINE
8
0
10
72
20
14.4768308
11
72
21
14.4780487
0
LINE
8
0
10
72
20
14.4780487
11
72
21
16.9893159
0
LINE
8
0
10
72
20
16.9893159
11
72
21
17.3176431
0
LINE
8
0
10
72
20
17.3176431
11
72
21
20.57188
0
LINE
8
0
10
72
20
20.57188
11
72.37234
21
20.9494562
0
LINE
8
0
10
72.37234
20
20.9494562
11
72.7423838
21
21.3246968
0
LINE
8
0
10
72.7423838
20
21.3246968
11
73.1111411
21
21.6986432
0
LINE
8
0
10
73.1111411
20
21.6986432
11
73.111192
21
21.6986948
0
LINE
8
0
10
73.111192
20
21.6986948
11
73.15509
21
21.74321
0
LINE
8
0
10
73.15509
20
21.74321
11
73.1608522
21
21.7490532
0
LINE
8
0
10
73.1608522
20
21.7490532
11
73.3508565
21
21.9417295
0
LINE
8
0
10
73.3508565
20
21.9417295
11
73.3494655
21
26.2334616
0
LINE
8
0
10
73.3494655
20
26.2334616
11
73.3447827
21
28.6272288
0
LINE
8
0
10
73.3447827
20
28.6272288
11
68.8125453
21
28.6245505
0
LINE
8
0
10
68.8125453
20
28.6245505
11
65.4
21
28.615017
0
LINE
8
0
10
65.4
20
28.615017
11
65.3973267
21
28.6149724
0
LINE
8
0
10
65.3973267
20
28.6149724
11
65.3642517
21
28.6110837
0
LINE
8
0
10
65.3642517
20
28.6110837
11
65.3092653
21
28.6050476
0
LINE
8
0
10
65.3092653
20
28.6050476
11
65.2391367
21
28.5826538
0
LINE
8
0
10
65.2391367
20
28.5826538
11
65.203763
21
28.5652957
0
LINE
8
0
10
65.203763
20
28.5652957
11
65.1406798
21
28.5280344
0
LINE
8
0
10
65.1406798
20
28.5280344
11
65.1061267
21
28.4966785
0
LINE
8
0
10
65.1061267
20
28.4966785
11
65.0529262
21
28.4475192
0
LINE
8
0
10
65.0529262
20
28.4475192
11
65.0124546
21
28.3917176
0
LINE
8
0
10
65.0124546
20
28.3917176
11
64.980838
21
28.3429306
0
LINE
8
0
10
64.980838
20
28.3429306
11
64.9525524
21
28.2830287
0
LINE
8
0
10
64.9525524
20
28.2830287
11
64.9298084
21
28.2178699
0
LINE
8
0
10
64.9298084
20
28.2178699
11
64.9137058
21
28.1578265
0
LINE
8
0
10
64.9137058
20
28.1578265
11
64.9048679
21
28.0777056
0
LINE
8
0
10
64.9048679
20
28.0777056
11
64.9
21
28.0216669
0
LINE
8
0
10
64.9
20
28.0216669
11
64.9
21
27.9665229
0
LINE
8
0
10
64.9
20
27.9665229
11
64.9
21
25.7608618
0
LINE
8
0
10
64.9
20
25.7608618
11
64.9
21
24.3122532
0
LINE
8
0
10
64.9
20
24.3122532
11
64.9
21
23.791484
0
LINE
8
0
10
64.9
20
23.791484
11
64.9
21
23.5037995
0
LINE
8
0
10
64.9
20
23.5037995
11
64.9
21
23.2
0
LINE
8
0
10
64.9
20
23.2
11
64.6765851
21
23.2
0
LINE
8
0
10
64.6765851
20
23.2
11
63.98849
21
23.2
0
LINE
8
0
10
63.98849
20
23.2
11
63.9709864
21
23.1842401
0
LINE
8
0
10
63.9709864
20
23.1842401
11
63.9505453
21
23.1658354
0
LINE
8
0
10
63.9505453
20
23.1658354
11
63.9030294
21
23.1230497
0
LINE
8
0
10
63.9030294
20
23.1230497
11
63.8511863
21
23.0763714
0
LINE
8
0
10
63.8511863
20
23.0763714
11
63.2043877
21
22.4939912
0
LINE
8
0
10
63.2043877
20
22.4939912
11
63.171466
21
22.4643501
0
LINE
8
0
10
63.171466
20
22.4643501
11
63.1418931
21
22.4377203
0
LINE
8
0
10
63.1418931
20
22.4377203
11
63.1294302
21
22.4264993
0
LINE
8
0
10
63.1294302
20
22.4264993
11
63.1189474
21
22.4170601
0
LINE
8
0
10
63.1189474
20
22.4170601
11
63.1106657
21
22.4096028
0
LINE
8
0
10
63.1106657
20
22.4096028
11
63.1047215
21
22.4042507
0
LINE
8
0
10
63.1047215
20
22.4042507
11
63.1011698
21
22.4010528
0
LINE
8
0
10
63.1011698
20
22.4010528
11
63.1
21
22.4
0
LINE
8
0
10
63.1
20
22.4
11
63.1
21
18.7281922
0
LINE
8
0
10
63.1
20
18.7281922
11
63.1
21
10
0
LINE
8
0
10
63.1
20
10
11
62.3257249
21
10
0
LINE
8
0
10
62.3257249
20
10
11
60.6321154
21
10
0
LINE
8
0
10
60.6321154
20
10
11
60.5616013
21
10
0
LINE
8
0
10
60.5616013
20
10
11
57.3
21
10
0
LINE
8
0
10
57.3
20
10
11
57.3
21
8.22771836
0
LINE
8
0
10
57.3
20
8.22771836
11
57.3
21
7.53589477
0
LINE
8
0
10
57.3
20
7.53589477
11
57.5226121
21
7.19005403
0
LINE
8
0
10
57.5226121
20
7.19005403
11
57.6972713
21
6.9136554
0
LINE
8
0
10
57.6972713
20
6.9136554
11
58.0215605
21
6.28932737
0
LINE
8
0
10
58.0215605
20
6.28932737
11
58.4314004
21
5.44642049
0
LINE
8
0
10
58.4314004
20
5.44642049
11
58.4530546
21
5.38945333
0
LINE
8
0
10
58.4530546
20
5.38945333
11
58.5
21
5.24656711
0
LINE
8
0
10
58.5
20
5.24656711
11
60.7068171
21
5.26718735
0
LINE
8
0
10
60.7068171
20
5.26718735
11
66.2123345
21
5.23500299
0
LINE
8
0
10
66.2123345
20
5.23500299
11
66.6164411
21
5.31059817
0
LINE
8
0
10
66.6164411
20
5.31059817
11
66.7153162
21
5.32670466
0
LINE
8
0
10
66.7153162
20
5.32670466
11
66.9419564
21
5.40477823
0
LINE
8
0
10
66.9419564
20
5.40477823
11
67.2306653
21
5.50433436
0
LINE
8
0
10
67.2306653
20
5.50433436
11
67.5883549
21
5.72081556
0
LINE
8
0
10
67.5883549
20
5.72081556
11
67.7474315
21
5.80155004
0
LINE
8
0
10
67.7474315
20
5.80155004
11
67.9514929
21
5.95358721
0
LINE
8
0
10
67.9514929
20
5.95358721
11
68.2681207
21
6.18971374
0
LINE
8
0
10
68.2681207
20
6.18971374
11
68.3987817
21
6.32177489
0
LINE
8
0
10
68.3987817
20
6.32177489
11
68.7872924
21
6.65790536
0
LINE
8
0
10
68.7872924
20
6.65790536
11
69.077252
21
6.98154905
0
LINE
8
0
10
69.077252
20
6.98154905
11
69.2962544
21
7.19577892
0
LINE
8
0
10
69.2962544
20
7.19577892
11
69.7221877
21
7.71834928
0
LINE
8
0
10
69.7221877
20
7.71834928
11
69.7923038
21
7.79623101
0
LINE
8
0
10
69.7923038
20
7.79623101
11
70.0427587
21
8.13196106
0
LINE
8
0
10
70.0427587
20
8.13196106
11
70.3103738
21
8.55716852
0
LINE
8
0
10
70.3103738
20
8.55716852
11
70.5845428
21
8.94750098
0
LINE
8
0
10
70.5845428
20
8.94750098
11
70.5976222
21
8.96811673
0
LINE
8
0
10
70.5976222
20
8.96811673
11
70.6092247
21
8.99046508
0
LINE
8
0
10
70.6092247
20
8.99046508
11
71.1711049
21
10.1327239
0
LINE
8
0
10
71.1711049
20
10.1327239
11
71.2075209
21
10.2195054
0
LINE
8
0
10
71.2075209
20
10.2195054
11
71.2378124
21
10.3109681
0
LINE
8
0
10
71.2378124
20
10.3109681
11
71.6190275
21
11.4747561
0
LINE
8
0
10
71.6190275
20
11.4747561
11
71.6587451
21
11.6332382
0
LINE
8
0
10
71.6587451
20
11.6332382
11
71.8634382
21
12.717471
0
LINE
8
0
10
71.8634382
20
12.717471
11
71.9021983
21
12.9383061
0
LINE
8
0
10
71.9021983
20
12.9383061
11
71.9256335
21
13.1635063
0
LINE
8
0
10
71.9256335
20
13.1635063
11
71.990346
21
14.1983438
0
LINE
8
0
10
71.990346
20
14.1983438
11
72
21
14.4768308
0
LINE
8
0
10
72
20
14.4768308
11
72
21
14.4768308
0
LINE
8
0
10
72
20
-8.12263291
11
72
21
-7.18962009
0
LINE
8
0
10
72
20
-7.18962009
11
72
21
-6.11884635
0
LINE
8
0
10
72
20
-6.11884635
11
72
21
-5.34981921
0
LINE
8
0
10
72
20
-5.34981921
11
71.9868645
21
-5.03687837
0
LINE
8
0
10
71.9868645
20
-5.03687837
11
71.9855288
21
-5.00232113
0
LINE
8
0
10
71.9855288
20
-5.00232113
11
71.9537147
21
-4.73406039
0
LINE
8
0
10
71.9537147
20
-4.73406039
11
71.9396198
21
-4.61707033
0
LINE
8
0
10
71.9396198
20
-4.61707033
11
71.9041732
21
-4.44207048
0
LINE
8
0
10
71.9041732
20
-4.44207048
11
71.8587027
21
-4.22107797
0
LINE
8
0
10
71.8587027
20
-4.22107797
11
71.8382582
21
-4.15116846
0
LINE
8
0
10
71.8382582
20
-4.15116846
11
71.7846471
21
-3.97062886
0
LINE
8
0
10
71.7846471
20
-3.97062886
11
71.7528243
21
-3.85678525
0
LINE
8
0
10
71.7528243
20
-3.85678525
11
71.7395134
21
-3.80996195
0
LINE
8
0
10
71.7395134
20
-3.80996195
11
71.6455781
21
-3.55805635
0
LINE
8
0
10
71.6455781
20
-3.55805635
11
71.5791518
21
-3.38281748
0
LINE
8
0
10
71.5791518
20
-3.38281748
11
71.5232516
21
-3.26543001
0
LINE
8
0
10
71.5232516
20
-3.26543001
11
71.4027037
21
-3.01627836
0
LINE
8
0
10
71.4027037
20
-3.01627836
11
71.3850503
21
-2.97710482
0
LINE
8
0
10
71.3850503
20
-2.97710482
11
71.375874
21
-2.95709042
0
LINE
8
0
10
71.375874
20
-2.95709042
11
71.223974
21
-2.68622796
0
LINE
8
0
10
71.223974
20
-2.68622796
11
71.1278328
21
-2.5175824
0
LINE
8
0
10
71.1278328
20
-2.5175824
11
71.0500106
21
-2.40449325
0
LINE
8
0
10
71.0500106
20
-2.40449325
11
70.9022774
21
-2.19307822
0
LINE
8
0
10
70.9022774
20
-2.19307822
11
70.8609113
21
-2.12880009
0
LINE
8
0
10
70.8609113
20
-2.12880009
11
70.8358466
21
-2.09049457
0
LINE
8
0
10
70.8358466
20
-2.09049457
11
70.6527175
21
-1.85701683
0
LINE
8
0
10
70.6527175
20
-1.85701683
11
70.5003091
21
-1.66562958
0
LINE
8
0
10
70.5003091
20
-1.66562958
11
70.4329471
21
-1.59528716
0
LINE
8
0
10
70.4329471
20
-1.59528716
11
70.309401
21
-1.46799715
0
LINE
8
0
10
70.309401
20
-1.46799715
11
70.1972809
21
-1.34088126
0
LINE
8
0
10
70.1972809
20
-1.34088126
11
70.124937
21
-1.26003816
0
LINE
8
0
10
70.124937
20
-1.26003816
11
69.9472796
21
-1.09636185
0
LINE
8
0
10
69.9472796
20
-1.09636185
11
69.7154305
21
-0.885382388
0
LINE
8
0
10
69.7154305
20
-0.885382388
11
69.6846456
21
-0.862813697
0
LINE
8
0
10
69.6846456
20
-0.862813697
11
69.6218478
21
-0.817237724
0
LINE
8
0
10
69.6218478
20
-0.817237724
11
69.4064048
21
-0.642030497
0
LINE
8
0
10
69.4064048
20
-0.642030497
11
69.2776058
21
-0.538403537
0
LINE
8
0
10
69.2776058
20
-0.538403537
11
69.1147119
21
-0.436618081
0
LINE
8
0
10
69.1147119
20
-0.436618081
11
68.826131
21
-0.257766255
0
LINE
8
0
10
68.826131
20
-0.257766255
11
68.8064339
21
-0.248980869
0
LINE
8
0
10
68.8064339
20
-0.248980869
11
68.7482143
21
-0.223160614
0
LINE
8
0
10
68.7482143
20
-0.223160614
11
68.4824757
21
-0.0873960006
0
LINE
8
0
10
68.4824757
20
-0.0873960006
11
68.3693914
21
-0.0299641213
0
LINE
8
0
10
68.3693914
20
-0.0299641213
11
68.1398971
21
0.0416704109
0
LINE
8
0
10
68.1398971
20
0.0416704109
11
67.9270299
21
0.10789092
0
LINE
8
0
10
67.9270299
20
0.10789092
11
67.5747353
21
0.138662041
0
LINE
8
0
10
67.5747353
20
0.138662041
11
67.5149082
21
0.144979613
0
LINE
8
0
10
67.5149082
20
0.144979613
11
65.8611041
21
0.144029535
0
LINE
8
0
10
65.8611041
20
0.144029535
11
61.0913538
21
0.172871303
0
LINE
8
0
10
61.0913538
20
0.172871303
11
58.5
21
0.187211177
0
LINE
8
0
10
58.5
20
0.187211177
11
58.4212291
21
-0.0434743104
0
LINE
8
0
10
58.4212291
20
-0.0434743104
11
58.383238
21
-0.140090838
0
LINE
8
0
10
58.383238
20
-0.140090838
11
57.9820362
21
-0.945410372
0
LINE
8
0
10
57.9820362
20
-0.945410372
11
57.6184001
21
-1.62963181
0
LINE
8
0
10
57.6184001
20
-1.62963181
11
57.4761398
21
-1.85102067
0
LINE
8
0
10
57.4761398
20
-1.85102067
11
57.3
21
-2.12019833
0
LINE
8
0
10
57.3
20
-2.12019833
11
57.3
21
-3.60035929
0
LINE
8
0
10
57.3
20
-3.60035929
11
57.3
21
-5.39140995
0
LINE
8
0
10
57.3
20
-5.39140995
11
57.3
21
-6.7808273
0
LINE
8
0
10
57.3
20
-6.7808273
11
57.3
21
-7.82250196
0
LINE
8
0
10
57.3
20
-7.82250196
11
57.3
21
-8.57814133
0
LINE
8
0
10
57.3
20
-8.57814133
11
57.3
21
-8.71639355
0
LINE
8
0
10
57.3
20
-8.71639355
11
57.3
21
-9.26177043
0
LINE
8
0
10
57.3
20
-9.26177043
11
57.3
21
-9.3986965
0
LINE
8
0
10
57.3
20
-9.3986965
11
57.3
21
-14.17729
0
LINE
8
0
10
57.3
20
-14.17729
11
57.3
21
-14.2608306
0
LINE
8
0
10
57.3
20
-14.2608306
11
57.3
21
-14.5
0
LINE
8
0
10
57.3
20
-14.5
11
57.3260421
21
-14.7367238
0
LINE
8
0
10
57.3260421
20
-14.7367238
11
57.3476762
21
-14.8621468
0
LINE
8
0
10
57.3476762
20
-14.8621468
11
57.35111
21
-14.88823
0
LINE
8
0
10
57.35111
20
-14.88823
11
57.4735858
21
-15.1839128
0
LINE
8
0
10
57.4735858
20
-15.1839128
11
57.50096
21
-15.25
0
LINE
8
0
10
57.50096
20
-15.25
11
57.6957934
21
-15.5039094
0
LINE
8
0
10
57.6957934
20
-15.5039094
11
57.73934
21
-15.56066
0
LINE
8
0
10
57.73934
20
-15.56066
11
57.9932494
21
-15.7554934
0
LINE
8
0
10
57.9932494
20
-15.7554934
11
58.05
21
-15.79904
0
LINE
8
0
10
58.05
20
-15.79904
11
58.3456828
21
-15.9215158
0
LINE
8
0
10
58.3456828
20
-15.9215158
11
58.41177
21
-15.94889
0
LINE
8
0
10
58.41177
20
-15.94889
11
58.5207228
21
-15.9678176
0
LINE
8
0
10
58.5207228
20
-15.9678176
11
58.6587475
21
-15.9930688
0
LINE
8
0
10
58.6587475
20
-15.9930688
11
58.67679
21
-15.99493
0
LINE
8
0
10
58.67679
20
-15.99493
11
58.6949735
21
-15.9960523
0
LINE
8
0
10
58.6949735
20
-15.9960523
11
58.73836
21
-15.99873
0
LINE
8
0
10
58.73836
20
-15.99873
11
58.7564878
21
-15.9991035
0
LINE
8
0
10
58.7564878
20
-15.9991035
11
58.8
21
-16
0
LINE
8
0
10
58.8
20
-16
11
66.943669
21
-16
0
LINE
8
0
10
66.943669
20
-16
11
69.5
21
-16
0
LINE
8
0
10
69.5
20
-16
11
69.8342069
21
-15.9559986
0
LINE
8
0
10
69.8342069
20
-15.9559986
11
70.14705
21
-15.91481
0
LINE
8
0
10
70.14705
20
-15.91481
11
70.4385711
21
-15.794058
0
LINE
8
0
10
70.4385711
20
-15.794058
11
70.75
21
-15.66506
0
LINE
8
0
10
70.75
20
-15.66506
11
71.0003373
21
-15.4729737
0
LINE
8
0
10
71.0003373
20
-15.4729737
11
71.26777
21
-15.26777
0
LINE
8
0
10
71.26777
20
-15.26777
11
71.4598563
21
-15.0174327
0
LINE
8
0
10
71.4598563
20
-15.0174327
11
71.66506
21
-14.75
0
LINE
8
0
10
71.66506
20
-14.75
11
71.785812
21
-14.4584789
0
LINE
8
0
10
71.785812
20
-14.4584789
11
71.91481
21
-14.14705
0
LINE
8
0
10
71.91481
20
-14.14705
11
71.9559986
21
-13.8342069
0
LINE
8
0
10
71.9559986
20
-13.8342069
11
72
21
-13.5
0
LINE
8
0
10
72
20
-13.5
11
72
21
-10.0339872
0
LINE
8
0
10
72
20
-10.0339872
11
72
21
-9.93153902
0
LINE
8
0
10
72
20
-9.93153902
11
72
21
-9.36833692
0
LINE
8
0
10
72
20
-9.36833692
11
72
21
-8.83791696
0
LINE
8
0
10
72
20
-8.83791696
11
72
21
-8.12263291
0
LINE
8
0
10
72
20
-8.12263291
11
72
21
-8.12263291
0
ENDSEC
0
EOF
