0
SECTION
2
ENTITIES
0
LINE
8
0
10
64.9164815
20
27.8827422
11
64.9191789
21
27.8928002
0
LINE
8
0
10
64.9191789
20
27.8928002
11
64.9632202
21
28.0189735
0
LINE
8
0
10
64.9632202
20
28.0189735
11
64.9706059
21
28.0346146
0
LINE
8
0
10
64.9706059
20
28.0346146
11
65.0353617
21
28.1345382
0
LINE
8
0
10
65.0353617
20
28.1345382
11
65.0485623
21
28.152739
0
LINE
8
0
10
65.0485623
20
28.152739
11
65.0659147
21
28.1687732
0
LINE
8
0
10
65.0659147
20
28.1687732
11
65.1465626
21
28.2419587
0
LINE
8
0
10
65.1465626
20
28.2419587
11
65.1698285
21
28.2557011
0
LINE
8
0
10
65.1698285
20
28.2557011
11
65.25823
21
28.2990804
0
LINE
8
0
10
65.25823
20
28.2990804
11
65.285788
21
28.3078803
0
LINE
8
0
10
65.285788
20
28.3078803
11
65.3073956
21
28.3102523
0
LINE
8
0
10
65.3073956
20
28.3102523
11
65.3988022
21
28.3209991
0
LINE
8
0
10
65.3988022
20
28.3209991
11
65.4
21
28.3210191
0
LINE
8
0
10
65.4
20
28.3210191
11
71.0237752
21
28.3367301
0
LINE
8
0
10
71.0237752
20
28.3367301
11
72.8906396
21
28.3380592
0
LINE
8
0
10
72.8906396
20
28.3380592
11
72.906812
21
24.0537583
0
LINE
8
0
10
72.906812
20
24.0537583
11
72.9028174
21
21.4873869
0
LINE
8
0
10
72.9028174
20
21.4873869
11
72.7995247
21
21.3826407
0
LINE
8
0
10
72.7995247
20
21.3826407
11
72.4009988
21
20.978518
0
LINE
8
0
10
72.4009988
20
20.978518
11
72
21
20.57188
0
LINE
8
0
10
72
20
20.57188
11
72
21
17.0671662
0
LINE
8
0
10
72
20
17.0671662
11
72
21
16.7135679
0
LINE
8
0
10
72
20
16.7135679
11
72
21
14.0090097
0
LINE
8
0
10
72
20
14.0090097
11
72
21
14.0079808
0
LINE
8
0
10
72
20
14.0079808
11
71.9918442
21
13.7727111
0
LINE
8
0
10
71.9918442
20
13.7727111
11
71.9221538
21
12.6582706
0
LINE
8
0
10
71.9221538
20
12.6582706
11
71.9035774
21
12.4797612
0
LINE
8
0
10
71.9035774
20
12.4797612
11
71.8728534
21
12.3047119
0
LINE
8
0
10
71.8728534
20
12.3047119
11
71.6524147
21
11.1370766
0
LINE
8
0
10
71.6524147
20
11.1370766
11
71.6249112
21
11.0273312
0
LINE
8
0
10
71.6249112
20
11.0273312
11
71.2143718
21
9.77402103
0
LINE
8
0
10
71.2143718
20
9.77402103
11
71.2011233
21
9.73401816
0
LINE
8
0
10
71.2011233
20
9.73401816
11
71.1851961
21
9.69606268
0
LINE
8
0
10
71.1851961
20
9.69606268
11
70.8462271
21
9.00696497
0
LINE
8
0
10
70.8462271
20
9.00696497
11
70.7197237
21
8.72045861
0
LINE
8
0
10
70.7197237
20
8.72045861
11
70.6288136
21
8.52979272
0
LINE
8
0
10
70.6288136
20
8.52979272
11
70.3704148
21
8.10360788
0
LINE
8
0
10
70.3704148
20
8.10360788
11
70.247664
21
7.87377833
0
LINE
8
0
10
70.247664
20
7.87377833
11
69.8767109
21
7.31014783
0
LINE
8
0
10
69.8767109
20
7.31014783
11
69.7985154
21
7.17386452
0
LINE
8
0
10
69.7985154
20
7.17386452
11
69.3897223
21
6.59962347
0
LINE
8
0
10
69.3897223
20
6.59962347
11
69.3245291
21
6.49164469
0
LINE
8
0
10
69.3245291
20
6.49164469
11
68.9132485
21
5.95243112
0
LINE
8
0
10
68.9132485
20
5.95243112
11
68.8399282
21
5.83496339
0
LINE
8
0
10
68.8399282
20
5.83496339
11
68.4475761
21
5.35371326
0
LINE
8
0
10
68.4475761
20
5.35371326
11
68.3583611
21
5.21374882
0
LINE
8
0
10
68.3583611
20
5.21374882
11
67.9862472
21
4.79176851
0
LINE
8
0
10
67.9862472
20
4.79176851
11
67.8902787
21
4.64306775
0
LINE
8
0
10
67.8902787
20
4.64306775
11
67.5084511
21
4.25718868
0
LINE
8
0
10
67.5084511
20
4.25718868
11
67.4390581
21
4.15043401
0
LINE
8
0
10
67.4390581
20
4.15043401
11
67.1367272
21
3.90499977
0
LINE
8
0
10
67.1367272
20
3.90499977
11
66.9953242
21
3.7902938
0
LINE
8
0
10
66.9953242
20
3.7902938
11
66.9138204
21
3.77485892
0
LINE
8
0
10
66.9138204
20
3.77485892
11
66.7245961
21
3.6567077
0
LINE
8
0
10
66.7245961
20
3.6567077
11
66.5599588
21
3.54699266
0
LINE
8
0
10
66.5599588
20
3.54699266
11
62.6212937
21
3.590208
0
LINE
8
0
10
62.6212937
20
3.590208
11
58.5
21
3.51866288
0
LINE
8
0
10
58.5
20
3.51866288
11
58.3743718
21
4.29017166
0
LINE
8
0
10
58.3743718
20
4.29017166
11
58.341923
21
4.43143058
0
LINE
8
0
10
58.341923
20
4.43143058
11
58.0669501
21
5.26835774
0
LINE
8
0
10
58.0669501
20
5.26835774
11
57.8671997
21
5.79385437
0
LINE
8
0
10
57.8671997
20
5.79385437
11
57.6617366
21
6.21642494
0
LINE
8
0
10
57.6617366
20
6.21642494
11
57.3
21
6.91284744
0
LINE
8
0
10
57.3
20
6.91284744
11
57.3
21
7.24769093
0
LINE
8
0
10
57.3
20
7.24769093
11
57.3
21
8.35533299
0
LINE
8
0
10
57.3
20
8.35533299
11
57.3
21
10
0
LINE
8
0
10
57.3
20
10
11
61.2037358
21
10
0
LINE
8
0
10
61.2037358
20
10
11
61.2427708
21
10
0
LINE
8
0
10
61.2427708
20
10
11
62.1803137
21
10
0
LINE
8
0
10
62.1803137
20
10
11
63.1
21
10
0
LINE
8
0
10
63.1
20
10
11
63.1
21
20.3673723
0
LINE
8
0
10
63.1
20
20.3673723
11
63.1
21
22.4
0
LINE
8
0
10
63.1
20
22.4
11
63.1006476
21
22.4005828
0
LINE
8
0
10
63.1006476
20
22.4005828
11
63.1026137
21
22.4023531
0
LINE
8
0
10
63.1026137
20
22.4023531
11
63.1059043
21
22.4053159
0
LINE
8
0
10
63.1059043
20
22.4053159
11
63.1104888
21
22.4094441
0
LINE
8
0
10
63.1104888
20
22.4094441
11
63.1162919
21
22.4146694
0
LINE
8
0
10
63.1162919
20
22.4146694
11
63.1231911
21
22.4208811
0
LINE
8
0
10
63.1231911
20
22.4208811
11
63.1395619
21
22.4356227
0
LINE
8
0
10
63.1395619
20
22.4356227
11
63.1577866
21
22.4520314
0
LINE
8
0
10
63.1577866
20
22.4520314
11
63.8840781
21
23.1059873
0
LINE
8
0
10
63.8840781
20
23.1059873
11
63.923502
21
23.1414835
0
LINE
8
0
10
63.923502
20
23.1414835
11
63.9596352
21
23.1740197
0
LINE
8
0
10
63.9596352
20
23.1740197
11
63.9751795
21
23.1880155
0
LINE
8
0
10
63.9751795
20
23.1880155
11
63.98849
21
23.2
0
LINE
8
0
10
63.98849
20
23.2
11
64.5117482
21
23.2
0
LINE
8
0
10
64.5117482
20
23.2
11
64.9
21
23.2
0
LINE
8
0
10
64.9
20
23.2
11
64.9
21
23.7279446
0
LINE
8
0
10
64.9
20
23.7279446
11
64.9
21
24.2278846
0
LINE
8
0
10
64.9
20
24.2278846
11
64.9
21
25.1328804
0
LINE
8
0
10
64.9
20
25.1328804
11
64.9
21
27.6502812
0
LINE
8
0
10
64.9
20
27.6502812
11
64.9
21
27.7308772
0
LINE
8
0
10
64.9
20
27.7308772
11
64.9
21
27.7328922
0
LINE
8
0
10
64.9
20
27.7328922
11
64.9001779
21
27.7349399
0
LINE
8
0
10
64.9001779
20
27.7349399
11
64.9164815
21
27.8827422
0
LINE
8
0
10
64.9164815
20
27.8827422
11
64.9164815
21
27.8827422
0
LINE
8
0
10
34.158077
20
-1.27838744
11
34.1256282
21
-1.41964624
0
LINE
8
0
10
34.1256282
20
-1.41964624
11
34
21
-2.19115512
0
LINE
8
0
10
34
20
-2.19115512
11
30.59953
21
-2.19115512
0
LINE
8
0
10
30.59953
20
-2.19115512
11
29.4
21
-2.19115512
0
LINE
8
0
10
29.4
20
-2.19115512
11
29.2743718
21
-1.41964624
0
LINE
8
0
10
29.2743718
20
-1.41964624
11
29.241923
21
-1.27838744
0
LINE
8
0
10
29.241923
20
-1.27838744
11
28.9669501
21
-0.441460292
0
LINE
8
0
10
28.9669501
20
-0.441460292
11
28.7671997
21
0.0840366365
0
LINE
8
0
10
28.7671997
20
0.0840366365
11
28.5617366
21
0.506607496
0
LINE
8
0
10
28.5617366
20
0.506607496
11
28.2
21
1.20303031
0
LINE
8
0
10
28.2
20
1.20303031
11
28.2
21
1.89492318
0
LINE
8
0
10
28.2
20
1.89492318
11
28.2
21
4.22575898
0
LINE
8
0
10
28.2
20
4.22575898
11
28.2
21
9.55855234
0
LINE
8
0
10
28.2
20
9.55855234
11
28.2
21
10.8655808
0
LINE
8
0
10
28.2
20
10.8655808
11
28.2
21
11.0555545
0
LINE
8
0
10
28.2
20
11.0555545
11
28.2
21
12.8943155
0
LINE
8
0
10
28.2
20
12.8943155
11
28.2
21
15
0
LINE
8
0
10
28.2
20
15
11
28.5010397
21
15
0
LINE
8
0
10
28.5010397
20
15
11
30.2
21
15
0
LINE
8
0
10
30.2
20
15
11
30.2
21
14.6479886
0
LINE
8
0
10
30.2
20
14.6479886
11
30.2
21
12.65094
0
LINE
8
0
10
30.2
20
12.65094
11
30.2
21
12.6112533
0
LINE
8
0
10
30.2
20
12.6112533
11
30.2
21
12.39302
0
LINE
8
0
10
30.2
20
12.39302
11
30.2
21
12.3538574
0
LINE
8
0
10
30.2
20
12.3538574
11
30.2
21
12.13557
0
LINE
8
0
10
30.2
20
12.13557
11
30.2
21
12.0989323
0
LINE
8
0
10
30.2
20
12.0989323
11
30.2
21
11.89597
0
LINE
8
0
10
30.2
20
11.89597
11
30.2
21
11.8638782
0
LINE
8
0
10
30.2
20
11.8638782
11
30.2
21
11.69043
0
LINE
8
0
10
30.2
20
11.69043
11
30.2
21
11.6649874
0
LINE
8
0
10
30.2
20
11.6649874
11
30.2
21
11.53281
0
LINE
8
0
10
30.2
20
11.53281
11
30.2
21
11.302453
0
LINE
8
0
10
30.2
20
11.302453
11
30.2
21
10
0
LINE
8
0
10
30.2
20
10
11
31.3982926
21
10
0
LINE
8
0
10
31.3982926
20
10
11
35.2
21
10
0
LINE
8
0
10
35.2
20
10
11
35.2
21
9.04390298
0
LINE
8
0
10
35.2
20
9.04390298
11
35.2
21
3.42004234
0
LINE
8
0
10
35.2
20
3.42004234
11
35.2
21
1.68545848
0
LINE
8
0
10
35.2
20
1.68545848
11
35.2
21
1.20303031
0
LINE
8
0
10
35.2
20
1.20303031
11
34.8382634
21
0.506607496
0
LINE
8
0
10
34.8382634
20
0.506607496
11
34.6328003
21
0.0840366365
0
LINE
8
0
10
34.6328003
20
0.0840366365
11
34.4330499
21
-0.441460292
0
LINE
8
0
10
34.4330499
20
-0.441460292
11
34.158077
21
-1.27838744
0
LINE
8
0
10
34.158077
20
-1.27838744
11
34.158077
21
-1.27838744
0
LINE
8
0
10
16
20
41.8714303
11
16
21
42.4632837
0
LINE
8
0
10
16
20
42.4632837
11
16
21
43.0008342
0
LINE
8
0
10
16
20
43.0008342
11
16
21
43.6693821
0
LINE
8
0
10
16
20
43.6693821
11
16
21
44.1058064
0
LINE
8
0
10
16
20
44.1058064
11
16
21
44.8050542
0
LINE
8
0
10
16
20
44.8050542
11
16
21
45.2
0
LINE
8
0
10
16
20
45.2
11
16
21
46.6162721
0
LINE
8
0
10
16
20
46.6162721
11
16
21
50.2
0
LINE
8
0
10
16
20
50.2
11
13.990383
21
50.2
0
LINE
8
0
10
13.990383
20
50.2
11
13.8259504
21
50.2
0
LINE
8
0
10
13.8259504
20
50.2
11
13.6382255
21
50.2
0
LINE
8
0
10
13.6382255
20
50.2
11
13.4435962
21
50.2
0
LINE
8
0
10
13.4435962
20
50.2
11
13.2644103
21
50.2
0
LINE
8
0
10
13.2644103
20
50.2
11
13.1246802
21
50.2
0
LINE
8
0
10
13.1246802
20
50.2
11
8.1954221
21
50.2
0
LINE
8
0
10
8.1954221
20
50.2
11
8.04633533
21
50.2
0
LINE
8
0
10
8.04633533
20
50.2
11
7.84078134
21
50.2
0
LINE
8
0
10
7.84078134
20
50.2
11
7.60721475
21
50.2
0
LINE
8
0
10
7.60721475
20
50.2
11
7.37361183
21
50.2
0
LINE
8
0
10
7.37361183
20
50.2
11
7.1616559
21
50.2
0
LINE
8
0
10
7.1616559
20
50.2
11
4.4
21
50.2
0
LINE
8
0
10
4.4
20
50.2
11
4.25283764
21
50.1806252
0
LINE
8
0
10
4.25283764
20
50.1806252
11
3.882362
21
50.13185
0
LINE
8
0
10
3.882362
20
50.13185
11
3.74522846
21
50.0750477
0
LINE
8
0
10
3.74522846
20
50.0750477
11
3.4
21
49.93205
0
LINE
8
0
10
3.4
20
49.93205
11
3.28224066
21
49.8416894
0
LINE
8
0
10
3.28224066
20
49.8416894
11
2.985786
21
49.61421
0
LINE
8
0
10
2.985786
20
49.61421
11
2.89542625
21
49.4964518
0
LINE
8
0
10
2.89542625
20
49.4964518
11
2.667949
21
49.2
0
LINE
8
0
10
2.667949
20
49.2
11
2.6111464
21
49.062867
0
LINE
8
0
10
2.6111464
20
49.062867
11
2.468148
21
48.71764
0
LINE
8
0
10
2.468148
20
48.71764
11
2.4487738
21
48.5704771
0
LINE
8
0
10
2.4487738
20
48.5704771
11
2.4
21
48.2
0
LINE
8
0
10
2.4
20
48.2
11
2.4
21
46.0528877
0
LINE
8
0
10
2.4
20
46.0528877
11
2.4
21
44.77547
0
LINE
8
0
10
2.4
20
44.77547
11
2.4
21
43.9609864
0
LINE
8
0
10
2.4
20
43.9609864
11
2.4
21
43.9280372
0
LINE
8
0
10
2.4
20
43.9280372
11
2.4
21
43.8948207
0
LINE
8
0
10
2.4
20
43.8948207
11
2.4
21
43.1132847
0
LINE
8
0
10
2.4
20
43.1132847
11
2.4
21
43.0758477
0
LINE
8
0
10
2.4
20
43.0758477
11
2.4
21
42.4615751
0
LINE
8
0
10
2.4
20
42.4615751
11
2.4
21
41.6859274
0
LINE
8
0
10
2.4
20
41.6859274
11
2.4
21
41.0428435
0
LINE
8
0
10
2.4
20
41.0428435
11
2.4
21
40.5585665
0
LINE
8
0
10
2.4
20
40.5585665
11
2.4
21
38.3291324
0
LINE
8
0
10
2.4
20
38.3291324
11
2.4
21
37.7615912
0
LINE
8
0
10
2.4
20
37.7615912
11
2.4
21
37.3554797
0
LINE
8
0
10
2.4
20
37.3554797
11
2.4
21
31.8405254
0
LINE
8
0
10
2.4
20
31.8405254
11
2.4
21
28.4434225
0
LINE
8
0
10
2.4
20
28.4434225
11
2.4
21
25.6274113
0
LINE
8
0
10
2.4
20
25.6274113
11
2.4
21
20.2189943
0
LINE
8
0
10
2.4
20
20.2189943
11
10.3681474
21
20.2189984
0
LINE
8
0
10
10.3681474
20
20.2189984
11
13.8
21
20.2189984
0
LINE
8
0
10
13.8
20
20.2189984
11
14.0740414
21
20.2399462
0
LINE
8
0
10
14.0740414
20
20.2399462
11
14.19207
21
20.2489684
0
LINE
8
0
10
14.19207
20
20.2489684
11
14.4634693
21
20.3115952
0
LINE
8
0
10
14.4634693
20
20.3115952
11
14.58036
21
20.3385714
0
LINE
8
0
10
14.58036
20
20.3385714
11
14.8465101
21
20.4422901
0
LINE
8
0
10
14.8465101
20
20.4422901
11
14.96114
21
20.4869584
0
LINE
8
0
10
14.96114
20
20.4869584
11
15.2194687
21
20.6307555
0
LINE
8
0
10
15.2194687
20
20.6307555
11
15.33073
21
20.6926884
0
LINE
8
0
10
15.33073
20
20.6926884
11
15.5787631
21
20.8751869
0
LINE
8
0
10
15.5787631
20
20.8751869
11
15.68559
21
20.9537914
0
LINE
8
0
10
15.68559
20
20.9537914
11
15.9209229
21
21.173237
0
LINE
8
0
10
15.9209229
20
21.173237
11
16.02228
21
21.2677484
0
LINE
8
0
10
16.02228
20
21.2677484
11
16.2426552
21
21.5220162
0
LINE
8
0
10
16.2426552
20
21.5220162
11
16.33757
21
21.6315314
0
LINE
8
0
10
16.33757
20
21.6315314
11
16.5408696
21
21.918189
0
LINE
8
0
10
16.5408696
20
21.918189
11
16.62843
21
22.0416484
0
LINE
8
0
10
16.62843
20
22.0416484
11
16.9761278
21
22.700761
0
LINE
8
0
10
16.9761278
20
22.700761
11
17.12588
21
22.9846384
0
LINE
8
0
10
17.12588
20
22.9846384
11
17.3842437
21
23.7366218
0
LINE
8
0
10
17.3842437
20
23.7366218
11
17.49552
21
24.0604984
0
LINE
8
0
10
17.49552
20
24.0604984
11
17.6546173
21
24.8764437
0
LINE
8
0
10
17.6546173
20
24.8764437
11
17.72314
21
25.2278684
0
LINE
8
0
10
17.72314
20
25.2278684
11
17.7768621
21
26.0764272
0
LINE
8
0
10
17.7768621
20
26.0764272
11
17.8
21
26.4418984
0
LINE
8
0
10
17.8
20
26.4418984
11
17.8
21
28.2895091
0
LINE
8
0
10
17.8
20
28.2895091
11
17.8
21
29.4910138
0
LINE
8
0
10
17.8
20
29.4910138
11
17.8
21
30.5057398
0
LINE
8
0
10
17.8
20
30.5057398
11
17.8
21
32.1343707
0
LINE
8
0
10
17.8
20
32.1343707
11
17.8
21
34.9001326
0
LINE
8
0
10
17.8
20
34.9001326
11
17.8
21
37.5058986
0
LINE
8
0
10
17.8
20
37.5058986
11
17.0738838
21
37.5058986
0
LINE
8
0
10
17.0738838
20
37.5058986
11
16
21
37.5058986
0
LINE
8
0
10
16
20
37.5058986
11
16
21
38.1902881
0
LINE
8
0
10
16
20
38.1902881
11
16
21
39.4521532
0
LINE
8
0
10
16
20
39.4521532
11
16
21
39.7571924
0
LINE
8
0
10
16
20
39.7571924
11
16
21
40.6980724
0
LINE
8
0
10
16
20
40.6980724
11
16
21
41.1679967
0
LINE
8
0
10
16
20
41.1679967
11
16
21
41.8714303
0
LINE
8
0
10
16
20
41.8714303
11
16
21
41.8714303
0
LINE
8
0
10
29.872637
20
-15.8536051
11
30.1419417
21
-15.935561
0
LINE
8
0
10
30.1419417
20
-15.935561
11
30.3996844
21
-15.9604607
0
LINE
8
0
10
30.3996844
20
-15.9604607
11
30.584467
21
-15.9886203
0
LINE
8
0
10
30.584467
20
-15.9886203
11
30.7
21
-16
0
LINE
8
0
10
30.7
20
-16
11
32.0728443
21
-16
0
LINE
8
0
10
32.0728443
20
-16
11
32.7
21
-16
0
LINE
8
0
10
32.7
20
-16
11
33.0552996
21
-15.965004
0
LINE
8
0
10
33.0552996
20
-15.965004
11
33.3219909
21
-15.9206532
0
LINE
8
0
10
33.3219909
20
-15.9206532
11
33.3983098
21
-15.8974105
0
LINE
8
0
10
33.3983098
20
-15.8974105
11
33.90145
21
-15.6890031
0
LINE
8
0
10
33.90145
20
-15.6890031
11
33.9741658
21
-15.6500331
0
LINE
8
0
10
33.9741658
20
-15.6500331
11
34.4018737
21
-15.3218486
0
LINE
8
0
10
34.4018737
20
-15.3218486
11
34.46777
21
-15.26777
0
LINE
8
0
10
34.46777
20
-15.26777
11
34.5266177
21
-15.1960625
0
LINE
8
0
10
34.5266177
20
-15.1960625
11
34.848708
21
-14.7762969
0
LINE
8
0
10
34.848708
20
-14.7762969
11
34.893271
21
-14.6927958
0
LINE
8
0
10
34.893271
20
-14.6927958
11
35.094309
21
-14.207447
0
LINE
8
0
10
35.094309
20
-14.207447
11
35.1221942
21
-14.1153822
0
LINE
8
0
10
35.1221942
20
-14.1153822
11
35.1294205
21
-14.066755
0
LINE
8
0
10
35.1294205
20
-14.066755
11
35.131853
21
-14.017602
0
LINE
8
0
10
35.131853
20
-14.017602
11
35.1708504
21
-13.721402
0
LINE
8
0
10
35.1708504
20
-13.721402
11
35.1971159
21
-13.5586973
0
LINE
8
0
10
35.1971159
20
-13.5586973
11
35.2
21
-13.5
0
LINE
8
0
10
35.2
20
-13.5
11
35.2
21
-12.1579123
0
LINE
8
0
10
35.2
20
-12.1579123
11
35.2
21
-11.9636941
0
LINE
8
0
10
35.2
20
-11.9636941
11
35.2
21
-11.6177818
0
LINE
8
0
10
35.2
20
-11.6177818
11
35.2
21
-11.075784
0
LINE
8
0
10
35.2
20
-11.075784
11
35.2
21
-10.2856471
0
LINE
8
0
10
35.2
20
-10.2856471
11
35.2
21
-9.19448714
0
LINE
8
0
10
35.2
20
-9.19448714
11
35.2
21
-7.76515129
0
LINE
8
0
10
35.2
20
-7.76515129
11
35.2
21
-7.19659565
0
LINE
8
0
10
35.2
20
-7.19659565
11
34.8770268
21
-6.5888866
0
LINE
8
0
10
34.8770268
20
-6.5888866
11
34.6870407
21
-6.20753325
0
LINE
8
0
10
34.6870407
20
-6.20753325
11
34.4634967
21
-5.63903058
0
LINE
8
0
10
34.4634967
20
-5.63903058
11
34.186506
21
-4.82784598
0
LINE
8
0
10
34.186506
20
-4.82784598
11
34.1461202
21
-4.66201584
0
LINE
8
0
10
34.1461202
20
-4.66201584
11
34
21
-3.83331962
0
LINE
8
0
10
34
20
-3.83331962
11
33.0708797
21
-3.83331962
0
LINE
8
0
10
33.0708797
20
-3.83331962
11
29.4
21
-3.83331962
0
LINE
8
0
10
29.4
20
-3.83331962
11
29.2538798
21
-4.66201584
0
LINE
8
0
10
29.2538798
20
-4.66201584
11
29.213494
21
-4.82784598
0
LINE
8
0
10
29.213494
20
-4.82784598
11
28.9365033
21
-5.63903058
0
LINE
8
0
10
28.9365033
20
-5.63903058
11
28.7129593
21
-6.20753325
0
LINE
8
0
10
28.7129593
20
-6.20753325
11
28.5229732
21
-6.5888866
0
LINE
8
0
10
28.5229732
20
-6.5888866
11
28.2
21
-7.19659565
0
LINE
8
0
10
28.2
20
-7.19659565
11
28.2
21
-7.94981949
0
LINE
8
0
10
28.2
20
-7.94981949
11
28.2
21
-9.70567898
0
LINE
8
0
10
28.2
20
-9.70567898
11
28.2
21
-10.8815172
0
LINE
8
0
10
28.2
20
-10.8815172
11
28.2
21
-11.6476767
0
LINE
8
0
10
28.2
20
-11.6476767
11
28.2
21
-12.1338946
0
LINE
8
0
10
28.2
20
-12.1338946
11
28.2
21
-12.4298336
0
LINE
8
0
10
28.2
20
-12.4298336
11
28.2
21
-12.595286
0
LINE
8
0
10
28.2
20
-12.595286
11
28.2
21
-13.5
0
LINE
8
0
10
28.2
20
-13.5
11
28.2100885
21
-13.7053222
0
LINE
8
0
10
28.2100885
20
-13.7053222
11
28.21204
21
-13.74504
0
LINE
8
0
10
28.21204
20
-13.74504
11
28.2357383
21
-13.8752787
0
LINE
8
0
10
28.2357383
20
-13.8752787
11
28.2601701
21
-14.0397508
0
LINE
8
0
10
28.2601701
20
-14.0397508
11
28.3549405
21
-14.3525388
0
LINE
8
0
10
28.3549405
20
-14.3525388
11
28.4389576
21
-14.5553742
0
LINE
8
0
10
28.4389576
20
-14.5553742
11
28.590933
21
-14.8400465
0
LINE
8
0
10
28.590933
20
-14.8400465
11
28.7307224
21
-15.0222276
0
LINE
8
0
10
28.7307224
20
-15.0222276
11
28.93223
21
-15.26777
0
LINE
8
0
10
28.93223
20
-15.26777
11
29.1618116
21
-15.4561791
0
LINE
8
0
10
29.1618116
20
-15.4561791
11
29.3658068
21
-15.6127066
0
LINE
8
0
10
29.3658068
20
-15.6127066
11
29.6207808
21
-15.7492829
0
LINE
8
0
10
29.6207808
20
-15.7492829
11
29.872637
21
-15.8536051
0
LINE
8
0
10
29.872637
20
-15.8536051
11
29.872637
21
-15.8536051
0
LINE
8
0
10
72
20
-7.64400431
11
72
21
-6.65033253
0
LINE
8
0
10
72
20
-6.65033253
11
72
21
-5.10375521
0
LINE
8
0
10
72
20
-5.10375521
11
71.9979331
21
-5.05451207
0
LINE
8
0
10
71.9979331
20
-5.05451207
11
71.9851767
21
-4.72448354
0
LINE
8
0
10
71.9851767
20
-4.72448354
11
71.9777753
21
-4.66207382
0
LINE
8
0
10
71.9777753
20
-4.66207382
11
71.956377
21
-4.48446475
0
LINE
8
0
10
71.956377
20
-4.48446475
11
71.9430957
21
-4.36737775
0
LINE
8
0
10
71.9430957
20
-4.36737775
11
71.9380863
21
-4.32397735
0
LINE
8
0
10
71.9380863
20
-4.32397735
11
71.8874598
21
-4.06260836
0
LINE
8
0
10
71.8874598
20
-4.06260836
11
71.8548113
21
-3.89691485
0
LINE
8
0
10
71.8548113
20
-3.89691485
11
71.8165603
21
-3.76007508
0
LINE
8
0
10
71.8165603
20
-3.76007508
11
71.7318623
21
-3.46213698
0
LINE
8
0
10
71.7318623
20
-3.46213698
11
71.7312245
21
-3.46042647
0
LINE
8
0
10
71.7312245
20
-3.46042647
11
71.72983
21
-3.45674763
0
LINE
8
0
10
71.72983
20
-3.45674763
11
71.6211116
21
-3.14881305
0
LINE
8
0
10
71.6211116
20
-3.14881305
11
71.5656366
21
-2.99446628
0
LINE
8
0
10
71.5656366
20
-2.99446628
11
71.4977051
21
-2.84372384
0
LINE
8
0
10
71.4977051
20
-2.84372384
11
71.3722911
21
-2.57018443
0
LINE
8
0
10
71.3722911
20
-2.57018443
11
71.3609684
21
-2.54336481
0
LINE
8
0
10
71.3609684
20
-2.54336481
11
71.3539918
21
-2.52714391
0
LINE
8
0
10
71.3539918
20
-2.52714391
11
71.2020506
21
-2.23771613
0
LINE
8
0
10
71.2020506
20
-2.23771613
11
71.0941904
21
-2.03587027
0
LINE
8
0
10
71.0941904
20
-2.03587027
11
71.032806
21
-1.94048598
0
LINE
8
0
10
71.032806
20
-1.94048598
11
70.9338813
21
-1.78930306
0
LINE
8
0
10
70.9338813
20
-1.78930306
11
70.84805
21
-1.64497454
0
LINE
8
0
10
70.84805
20
-1.64497454
11
70.7857287
21
-1.54203462
0
LINE
8
0
10
70.7857287
20
-1.54203462
11
70.6490038
21
-1.35312616
0
LINE
8
0
10
70.6490038
20
-1.35312616
11
70.4543337
21
-1.08851696
0
LINE
8
0
10
70.4543337
20
-1.08851696
11
70.4405903
21
-1.06762336
0
LINE
8
0
10
70.4405903
20
-1.06762336
11
70.4289893
21
-1.05029352
0
LINE
8
0
10
70.4289893
20
-1.05029352
11
70.2157621
21
-0.78373487
0
LINE
8
0
10
70.2157621
20
-0.78373487
11
70.024003
21
-0.547727013
0
LINE
8
0
10
70.024003
20
-0.547727013
11
69.9836574
21
-0.506633105
0
LINE
8
0
10
69.9836574
20
-0.506633105
11
69.9260935
21
-0.448773974
0
LINE
8
0
10
69.9260935
20
-0.448773974
11
69.7384555
21
-0.233200104
0
LINE
8
0
10
69.7384555
20
-0.233200104
11
69.5742263
21
-0.0471905568
0
LINE
8
0
10
69.5742263
20
-0.0471905568
11
69.4854326
21
0.0345935617
0
LINE
8
0
10
69.4854326
20
0.0345935617
11
69.3648795
21
0.144352867
0
LINE
8
0
10
69.3648795
20
0.144352867
11
69.2220227
21
0.2972203
0
LINE
8
0
10
69.2220227
20
0.2972203
11
69.0852576
21
0.44176319
0
LINE
8
0
10
69.0852576
20
0.44176319
11
68.9505857
21
0.553773221
0
LINE
8
0
10
68.9505857
20
0.553773221
11
68.770633
21
0.702057401
0
LINE
8
0
10
68.770633
20
0.702057401
11
68.6695595
21
0.804120818
0
LINE
8
0
10
68.6695595
20
0.804120818
11
68.565607
21
0.908041943
0
LINE
8
0
10
68.565607
20
0.908041943
11
68.3802767
21
1.0450582
0
LINE
8
0
10
68.3802767
20
1.0450582
11
68.1236435
21
1.23351778
0
LINE
8
0
10
68.1236435
20
1.23351778
11
68.0788677
21
1.27683987
0
LINE
8
0
10
68.0788677
20
1.27683987
11
68.0301711
21
1.32361072
0
LINE
8
0
10
68.0301711
20
1.32361072
11
67.7658768
21
1.4871878
0
LINE
8
0
10
67.7658768
20
1.4871878
11
67.5002305
21
1.65095658
0
LINE
8
0
10
67.5002305
20
1.65095658
11
67.0779477
21
1.74648815
0
LINE
8
0
10
67.0779477
20
1.74648815
11
67.0244696
21
1.7638516
0
LINE
8
0
10
67.0244696
20
1.7638516
11
66.6005152
21
1.76459899
0
LINE
8
0
10
66.6005152
20
1.76459899
11
58.5
21
1.8764983
0
LINE
8
0
10
58.5
20
1.8764983
11
58.3538798
21
1.04780181
0
LINE
8
0
10
58.3538798
20
1.04780181
11
58.313494
21
0.881971686
0
LINE
8
0
10
58.313494
20
0.881971686
11
58.0365033
21
0.0707869403
0
LINE
8
0
10
58.0365033
20
0.0707869403
11
57.8129593
21
-0.4977157
0
LINE
8
0
10
57.8129593
20
-0.4977157
11
57.6229732
21
-0.879068742
0
LINE
8
0
10
57.6229732
20
-0.879068742
11
57.3
21
-1.48677837
0
LINE
8
0
10
57.3
20
-1.48677837
11
57.3
21
-2.2599501
0
LINE
8
0
10
57.3
20
-2.2599501
11
57.3
21
-4.31319126
0
LINE
8
0
10
57.3
20
-4.31319126
11
57.3
21
-5.97527581
0
LINE
8
0
10
57.3
20
-5.97527581
11
57.3
21
-7.26464699
0
LINE
8
0
10
57.3
20
-7.26464699
11
57.3
21
-8.23131499
0
LINE
8
0
10
57.3
20
-8.23131499
11
57.3
21
-8.93254391
0
LINE
8
0
10
57.3
20
-8.93254391
11
57.3
21
-9.08410358
0
LINE
8
0
10
57.3
20
-9.08410358
11
57.3
21
-9.59035415
0
LINE
8
0
10
57.3
20
-9.59035415
11
57.3
21
-9.737813
0
LINE
8
0
10
57.3
20
-9.737813
11
57.3
21
-14.17729
0
LINE
8
0
10
57.3
20
-14.17729
11
57.3
21
-14.2549021
0
LINE
8
0
10
57.3
20
-14.2549021
11
57.3
21
-14.5
0
LINE
8
0
10
57.3
20
-14.5
11
57.3266876
21
-14.7425917
0
LINE
8
0
10
57.3266876
20
-14.7425917
11
57.348858
21
-14.8711237
0
LINE
8
0
10
57.348858
20
-14.8711237
11
57.35111
21
-14.88823
0
LINE
8
0
10
57.35111
20
-14.88823
11
57.483007
21
-15.2066576
0
LINE
8
0
10
57.483007
20
-15.2066576
11
57.50096
21
-15.25
0
LINE
8
0
10
57.50096
20
-15.25
11
57.7107806
21
-15.5234409
0
LINE
8
0
10
57.7107806
20
-15.5234409
11
57.73934
21
-15.56066
0
LINE
8
0
10
57.73934
20
-15.56066
11
58.0127809
21
-15.7704806
0
LINE
8
0
10
58.0127809
20
-15.7704806
11
58.05
21
-15.79904
0
LINE
8
0
10
58.05
20
-15.79904
11
58.3684276
21
-15.930937
0
LINE
8
0
10
58.3684276
20
-15.930937
11
58.41177
21
-15.94889
0
LINE
8
0
10
58.41177
20
-15.94889
11
58.5291037
21
-15.9692735
0
LINE
8
0
10
58.5291037
20
-15.9692735
11
58.6597164
21
-15.9931688
0
LINE
8
0
10
58.6597164
20
-15.9931688
11
58.67679
21
-15.99493
0
LINE
8
0
10
58.67679
20
-15.99493
11
58.693997
21
-15.995992
0
LINE
8
0
10
58.693997
20
-15.995992
11
58.73836
21
-15.99873
0
LINE
8
0
10
58.73836
20
-15.99873
11
58.7555043
21
-15.9990832
0
LINE
8
0
10
58.7555043
20
-15.9990832
11
58.8
21
-16
0
LINE
8
0
10
58.8
20
-16
11
67.1277398
21
-16
0
LINE
8
0
10
67.1277398
20
-16
11
69.5
21
-16
0
LINE
8
0
10
69.5
20
-16
11
69.8101421
21
-15.959167
0
LINE
8
0
10
69.8101421
20
-15.959167
11
70.14705
21
-15.91481
0
LINE
8
0
10
70.14705
20
-15.91481
11
70.4609958
21
-15.7847694
0
LINE
8
0
10
70.4609958
20
-15.7847694
11
70.75
21
-15.66506
0
LINE
8
0
10
70.75
20
-15.66506
11
71.019594
21
-15.4581979
0
LINE
8
0
10
71.019594
20
-15.4581979
11
71.26777
21
-15.26777
0
LINE
8
0
10
71.26777
20
-15.26777
11
71.4746321
21
-14.998176
0
LINE
8
0
10
71.4746321
20
-14.998176
11
71.66506
21
-14.75
0
LINE
8
0
10
71.66506
20
-14.75
11
71.7951006
21
-14.4360542
0
LINE
8
0
10
71.7951006
20
-14.4360542
11
71.91481
21
-14.14705
0
LINE
8
0
10
71.91481
20
-14.14705
11
71.959167
21
-13.8101421
0
LINE
8
0
10
71.959167
20
-13.8101421
11
72
21
-13.5
0
LINE
8
0
10
72
20
-13.5
11
72
21
-10.2835604
0
LINE
8
0
10
72
20
-10.2835604
11
72
21
-10.1884891
0
LINE
8
0
10
72
20
-10.1884891
11
72
21
-9.6658408
0
LINE
8
0
10
72
20
-9.6658408
11
72
21
-9.17361417
0
LINE
8
0
10
72
20
-9.17361417
11
72
21
-8.50983475
0
LINE
8
0
10
72
20
-8.50983475
11
72
21
-7.64400431
0
LINE
8
0
10
72
20
-7.64400431
11
72
21
-7.64400431
0
ENDSEC
0
EOF
