0
SECTION
2
ENTITIES
0
LINE
8
0
10
29.6268801
20
-15.7522909
11
29.8661973
21
-15.8514193
0
LINE
8
0
10
29.8661973
20
-15.8514193
11
30.14512
21
-15.9363021
0
LINE
8
0
10
30.14512
20
-15.9363021
11
30.4120678
21
-15.9620911
0
LINE
8
0
10
30.4120678
20
-15.9620911
11
30.5892309
21
-15.9890896
0
LINE
8
0
10
30.5892309
20
-15.9890896
11
30.7
21
-16
0
LINE
8
0
10
30.7
20
-16
11
32.0899511
21
-16
0
LINE
8
0
10
32.0899511
20
-16
11
32.7
21
-16
0
LINE
8
0
10
32.7
20
-16
11
33.0591339
21
-15.9646263
0
LINE
8
0
10
33.0591339
20
-15.9646263
11
33.3181035
21
-15.9215597
0
LINE
8
0
10
33.3181035
20
-15.9215597
11
33.4062617
21
-15.8947114
0
LINE
8
0
10
33.4062617
20
-15.8947114
11
33.8939185
21
-15.6927174
0
LINE
8
0
10
33.8939185
20
-15.6927174
11
33.9779146
21
-15.647702
0
LINE
8
0
10
33.9779146
20
-15.647702
11
34.3916513
21
-15.3302378
0
LINE
8
0
10
34.3916513
20
-15.3302378
11
34.46777
21
-15.26777
0
LINE
8
0
10
34.46777
20
-15.26777
11
34.5357467
21
-15.1849386
0
LINE
8
0
10
34.5357467
20
-15.1849386
11
34.8461713
21
-14.7803763
0
LINE
8
0
10
34.8461713
20
-14.7803763
11
34.8976474
21
-14.6839218
0
LINE
8
0
10
34.8976474
20
-14.6839218
11
35.0911287
21
-14.2168163
0
LINE
8
0
10
35.0911287
20
-14.2168163
11
35.1233398
21
-14.1104696
0
LINE
8
0
10
35.1233398
20
-14.1104696
11
35.131687
21
-14.0542989
0
LINE
8
0
10
35.131687
20
-14.0542989
11
35.1344969
21
-13.9975208
0
LINE
8
0
10
35.1344969
20
-13.9975208
11
35.1719813
21
-13.7128124
0
LINE
8
0
10
35.1719813
20
-13.7128124
11
35.1972278
21
-13.5564201
0
LINE
8
0
10
35.1972278
20
-13.5564201
11
35.2
21
-13.5
0
LINE
8
0
10
35.2
20
-13.5
11
35.2
21
-12.2099806
0
LINE
8
0
10
35.2
20
-12.2099806
11
35.2
21
-12.0232973
0
LINE
8
0
10
35.2
20
-12.0232973
11
35.2
21
-11.6908052
0
LINE
8
0
10
35.2
20
-11.6908052
11
35.2
21
-11.1698351
0
LINE
8
0
10
35.2
20
-11.1698351
11
35.2
21
-10.4103527
0
LINE
8
0
10
35.2
20
-10.4103527
11
35.2
21
-9.36152595
0
LINE
8
0
10
35.2
20
-9.36152595
11
35.2
21
-7.98764332
0
LINE
8
0
10
35.2
20
-7.98764332
11
35.2
21
-6.82561673
0
LINE
8
0
10
35.2
20
-6.82561673
11
35.0565584
21
-6.55571575
0
LINE
8
0
10
35.0565584
20
-6.55571575
11
34.9721801
21
-6.38634582
0
LINE
8
0
10
34.9721801
20
-6.38634582
11
34.6558596
21
-5.58190008
0
LINE
8
0
10
34.6558596
20
-5.58190008
11
34.4512145
21
-4.98258393
0
LINE
8
0
10
34.4512145
20
-4.98258393
11
34.3535088
21
-4.58139074
0
LINE
8
0
10
34.3535088
20
-4.58139074
11
34.2010882
21
-3.71696252
0
LINE
8
0
10
34.2010882
20
-3.71696252
11
34.1843371
21
-3.52387079
0
LINE
8
0
10
34.1843371
20
-3.52387079
11
34.1777849
21
-2.56604355
0
LINE
8
0
10
34.1777849
20
-2.56604355
11
34.1911914
21
-2.38127038
0
LINE
8
0
10
34.1911914
20
-2.38127038
11
34.3340589
21
-1.50389117
0
LINE
8
0
10
34.3340589
20
-1.50389117
11
34.4203439
21
-1.12826872
0
LINE
8
0
10
34.4203439
20
-1.12826872
11
34.6261022
21
-0.502008103
0
LINE
8
0
10
34.6261022
20
-0.502008103
11
34.9149007
21
0.257753695
0
LINE
8
0
10
34.9149007
20
0.257753695
11
35.0181754
21
0.470156251
0
LINE
8
0
10
35.0181754
20
0.470156251
11
35.2
21
0.820208752
0
LINE
8
0
10
35.2
20
0.820208752
11
35.2
21
2.00803355
0
LINE
8
0
10
35.2
20
2.00803355
11
35.2
21
3.67532164
0
LINE
8
0
10
35.2
20
3.67532164
11
35.2
21
9.0809962
0
LINE
8
0
10
35.2
20
9.0809962
11
35.2
21
10
0
LINE
8
0
10
35.2
20
10
11
31.351803
21
10
0
LINE
8
0
10
31.351803
20
10
11
30.2
21
10
0
LINE
8
0
10
30.2
20
10
11
30.2
21
11.3183802
0
LINE
8
0
10
30.2
20
11.3183802
11
30.2
21
11.53281
0
LINE
8
0
10
30.2
20
11.53281
11
30.2
21
11.6668632
0
LINE
8
0
10
30.2
20
11.6668632
11
30.2
21
11.69043
0
LINE
8
0
10
30.2
20
11.69043
11
30.2
21
11.8663716
0
LINE
8
0
10
30.2
20
11.8663716
11
30.2
21
11.89597
0
LINE
8
0
10
30.2
20
11.89597
11
30.2
21
12.1018793
0
LINE
8
0
10
30.2
20
12.1018793
11
30.2
21
12.13557
0
LINE
8
0
10
30.2
20
12.13557
11
30.2
21
12.3570472
0
LINE
8
0
10
30.2
20
12.3570472
11
30.2
21
12.39302
0
LINE
8
0
10
30.2
20
12.39302
11
30.2
21
12.6144496
0
LINE
8
0
10
30.2
20
12.6144496
11
30.2
21
12.65094
0
LINE
8
0
10
30.2
20
12.65094
11
30.2
21
14.6771781
0
LINE
8
0
10
30.2
20
14.6771781
11
30.2
21
15
0
LINE
8
0
10
30.2
20
15
11
28.4760768
21
15
0
LINE
8
0
10
28.4760768
20
15
11
28.2
21
15
0
LINE
8
0
10
28.2
20
15
11
28.2
21
13.0689235
0
LINE
8
0
10
28.2
20
13.0689235
11
28.2
21
11.1644924
0
LINE
8
0
10
28.2
20
11.1644924
11
28.2
21
10.9677339
0
LINE
8
0
10
28.2
20
10.9677339
11
28.2
21
9.61402589
0
LINE
8
0
10
28.2
20
9.61402589
11
28.2
21
4.68022086
0
LINE
8
0
10
28.2
20
4.68022086
11
28.2
21
2.52377328
0
LINE
8
0
10
28.2
20
2.52377328
11
28.2
21
0.820208752
0
LINE
8
0
10
28.2
20
0.820208752
11
28.3818246
21
0.470156251
0
LINE
8
0
10
28.3818246
20
0.470156251
11
28.4850993
21
0.257753695
0
LINE
8
0
10
28.4850993
20
0.257753695
11
28.7738978
21
-0.502008103
0
LINE
8
0
10
28.7738978
20
-0.502008103
11
28.9796561
21
-1.12826872
0
LINE
8
0
10
28.9796561
20
-1.12826872
11
29.0659411
21
-1.50389117
0
LINE
8
0
10
29.0659411
20
-1.50389117
11
29.2088086
21
-2.38127038
0
LINE
8
0
10
29.2088086
20
-2.38127038
11
29.2222151
21
-2.56604355
0
LINE
8
0
10
29.2222151
20
-2.56604355
11
29.2156629
21
-3.52387079
0
LINE
8
0
10
29.2156629
20
-3.52387079
11
29.1989118
21
-3.71696252
0
LINE
8
0
10
29.1989118
20
-3.71696252
11
29.0464912
21
-4.58139074
0
LINE
8
0
10
29.0464912
20
-4.58139074
11
28.9487855
21
-4.98258393
0
LINE
8
0
10
28.9487855
20
-4.98258393
11
28.7441404
21
-5.58190008
0
LINE
8
0
10
28.7441404
20
-5.58190008
11
28.4278199
21
-6.38634582
0
LINE
8
0
10
28.4278199
20
-6.38634582
11
28.3434416
21
-6.55571575
0
LINE
8
0
10
28.3434416
20
-6.55571575
11
28.2
21
-6.82561673
0
LINE
8
0
10
28.2
20
-6.82561673
11
28.2
21
-8.36507227
0
LINE
8
0
10
28.2
20
-8.36507227
11
28.2
21
-9.98956206
0
LINE
8
0
10
28.2
20
-9.98956206
11
28.2
21
-11.0774265
0
LINE
8
0
10
28.2
20
-11.0774265
11
28.2
21
-11.7862636
0
LINE
8
0
10
28.2
20
-11.7862636
11
28.2
21
-12.2361037
0
LINE
8
0
10
28.2
20
-12.2361037
11
28.2
21
-12.5099012
0
LINE
8
0
10
28.2
20
-12.5099012
11
28.2
21
-12.6629748
0
LINE
8
0
10
28.2
20
-12.6629748
11
28.2
21
-13.5
0
LINE
8
0
10
28.2
20
-13.5
11
28.2102339
21
-13.7082822
0
LINE
8
0
10
28.2102339
20
-13.7082822
11
28.21204
21
-13.74504
0
LINE
8
0
10
28.21204
20
-13.74504
11
28.2339722
21
-13.8655726
0
LINE
8
0
10
28.2339722
20
-13.8655726
11
28.2592766
21
-14.0359187
0
LINE
8
0
10
28.2592766
20
-14.0359187
11
28.3574316
21
-14.3598777
0
LINE
8
0
10
28.3574316
20
-14.3598777
11
28.4355297
21
-14.5484233
0
LINE
8
0
10
28.4355297
20
-14.5484233
11
28.5929328
21
-14.8432624
0
LINE
8
0
10
28.5929328
20
-14.8432624
11
28.7235257
21
-15.0134583
0
LINE
8
0
10
28.7235257
20
-15.0134583
11
28.93223
21
-15.26777
0
LINE
8
0
10
28.93223
20
-15.26777
11
29.1700109
21
-15.462908
0
LINE
8
0
10
29.1700109
20
-15.462908
11
29.3627999
21
-15.6108369
0
LINE
8
0
10
29.3627999
20
-15.6108369
11
29.6268801
21
-15.7522909
0
LINE
8
0
10
29.6268801
20
-15.7522909
11
29.6268801
21
-15.7522909
0
LINE
8
0
10
16
20
38.0109442
11
16
21
37.6927404
0
LINE
8
0
10
16
20
37.6927404
11
17.4623956
21
37.6927404
0
LINE
8
0
10
17.4623956
20
37.6927404
11
17.8
21
37.6927404
0
LINE
8
0
10
17.8
20
37.6927404
11
17.8
21
34.1442552
0
LINE
8
0
10
17.8
20
34.1442552
11
17.8
21
31.6078364
0
LINE
8
0
10
17.8
20
31.6078364
11
17.8
21
30.1142551
0
LINE
8
0
10
17.8
20
30.1142551
11
17.8
21
29.1836724
0
LINE
8
0
10
17.8
20
29.1836724
11
17.8
21
28.081799
0
LINE
8
0
10
17.8
20
28.081799
11
17.8
21
26.1682022
0
LINE
8
0
10
17.8
20
26.1682022
11
17.7787807
21
25.8330367
0
LINE
8
0
10
17.7787807
20
25.8330367
11
17.72314
21
24.9541722
0
LINE
8
0
10
17.72314
20
24.9541722
11
17.6602994
21
24.6318884
0
LINE
8
0
10
17.6602994
20
24.6318884
11
17.49552
21
23.7868022
0
LINE
8
0
10
17.49552
20
23.7868022
11
17.393471
21
23.4897822
0
LINE
8
0
10
17.393471
20
23.4897822
11
17.12588
21
22.7109422
0
LINE
8
0
10
17.12588
20
22.7109422
11
16.9885456
21
22.4506046
0
LINE
8
0
10
16.9885456
20
22.4506046
11
16.62843
21
21.7679522
0
LINE
8
0
10
16.62843
20
21.7679522
11
16.5481303
21
21.6547304
0
LINE
8
0
10
16.5481303
20
21.6547304
11
16.33757
21
21.357835
0
LINE
8
0
10
16.33757
20
21.357835
11
16.2505257
21
21.257401
0
LINE
8
0
10
16.2505257
20
21.257401
11
16.02228
21
20.9940522
0
LINE
8
0
10
16.02228
20
20.9940522
11
15.9293277
21
20.9073779
0
LINE
8
0
10
15.9293277
20
20.9073779
11
15.68559
21
20.680095
0
LINE
8
0
10
15.68559
20
20.680095
11
15.5876214
21
20.6080086
0
LINE
8
0
10
15.5876214
20
20.6080086
11
15.33073
21
20.4189922
0
LINE
8
0
10
15.33073
20
20.4189922
11
15.2286948
21
20.362195
0
LINE
8
0
10
15.2286948
20
20.362195
11
14.96114
21
20.2132622
0
LINE
8
0
10
14.96114
20
20.2132622
11
14.8560155
21
20.172298
0
LINE
8
0
10
14.8560155
20
20.172298
11
14.58036
21
20.064875
0
LINE
8
0
10
14.58036
20
20.064875
11
14.4731621
21
20.0401358
0
LINE
8
0
10
14.4731621
20
20.0401358
11
14.19207
21
19.9752722
0
LINE
8
0
10
14.19207
20
19.9752722
11
14.0838286
21
19.9669982
0
LINE
8
0
10
14.0838286
20
19.9669982
11
13.8
21
19.9453022
0
LINE
8
0
10
13.8
20
19.9453022
11
10.6527241
21
19.9453022
0
LINE
8
0
10
10.6527241
20
19.9453022
11
2.4
21
19.945298
0
LINE
8
0
10
2.4
20
19.945298
11
2.4
21
25.5468728
0
LINE
8
0
10
2.4
20
25.5468728
11
2.4
21
28.4634558
0
LINE
8
0
10
2.4
20
28.4634558
11
2.4
21
31.9818838
0
LINE
8
0
10
2.4
20
31.9818838
11
2.4
21
37.2316789
0
LINE
8
0
10
2.4
20
37.2316789
11
2.4
21
37.6182646
0
LINE
8
0
10
2.4
20
37.6182646
11
2.4
21
38.1585183
0
LINE
8
0
10
2.4
20
38.1585183
11
2.4
21
40.5281295
0
LINE
8
0
10
2.4
20
40.5281295
11
2.4
21
40.9935286
0
LINE
8
0
10
2.4
20
40.9935286
11
2.4
21
41.6115441
0
LINE
8
0
10
2.4
20
41.6115441
11
2.4
21
42.3569558
0
LINE
8
0
10
2.4
20
42.3569558
11
2.4
21
43.0491246
0
LINE
8
0
10
2.4
20
43.0491246
11
2.4
21
43.091309
0
LINE
8
0
10
2.4
20
43.091309
11
2.4
21
43.8452139
0
LINE
8
0
10
2.4
20
43.8452139
11
2.4
21
43.8834277
0
LINE
8
0
10
2.4
20
43.8834277
11
2.4
21
43.9213341
0
LINE
8
0
10
2.4
20
43.9213341
11
2.4
21
44.7073111
0
LINE
8
0
10
2.4
20
44.7073111
11
2.4
21
46.18982
0
LINE
8
0
10
2.4
20
46.18982
11
2.4
21
48.2
0
LINE
8
0
10
2.4
20
48.2
11
2.44566325
21
48.5468499
0
LINE
8
0
10
2.44566325
20
48.5468499
11
2.468148
21
48.71764
0
LINE
8
0
10
2.468148
20
48.71764
11
2.60202666
21
49.0408501
0
LINE
8
0
10
2.60202666
20
49.0408501
11
2.667949
21
49.2
0
LINE
8
0
10
2.667949
20
49.2
11
2.88091886
21
49.4775455
0
LINE
8
0
10
2.88091886
20
49.4775455
11
2.985786
21
49.61421
0
LINE
8
0
10
2.985786
20
49.61421
11
3.26333423
21
49.8271819
0
LINE
8
0
10
3.26333423
20
49.8271819
11
3.4
21
49.93205
0
LINE
8
0
10
3.4
20
49.93205
11
3.72321148
21
50.065928
0
LINE
8
0
10
3.72321148
20
50.065928
11
3.882362
21
50.13185
0
LINE
8
0
10
3.882362
20
50.13185
11
4.22921051
21
50.1775146
0
LINE
8
0
10
4.22921051
20
50.1775146
11
4.4
21
50.2
0
LINE
8
0
10
4.4
20
50.2
11
7.60504377
21
50.2
0
LINE
8
0
10
7.60504377
20
50.2
11
7.85102954
21
50.2
0
LINE
8
0
10
7.85102954
20
50.2
11
8.12213774
21
50.2
0
LINE
8
0
10
8.12213774
20
50.2
11
8.39320379
21
50.2
0
LINE
8
0
10
8.39320379
20
50.2
11
8.63175977
21
50.2
0
LINE
8
0
10
8.63175977
20
50.2
11
8.80478264
21
50.2
0
LINE
8
0
10
8.80478264
20
50.2
11
12.6630435
21
50.2
0
LINE
8
0
10
12.6630435
20
50.2
11
12.8252074
21
50.2
0
LINE
8
0
10
12.8252074
20
50.2
11
13.0331618
21
50.2
0
LINE
8
0
10
13.0331618
20
50.2
11
13.2590392
21
50.2
0
LINE
8
0
10
13.2590392
20
50.2
11
13.4769035
21
50.2
0
LINE
8
0
10
13.4769035
20
50.2
11
13.667736
21
50.2
0
LINE
8
0
10
13.667736
20
50.2
11
16
21
50.2
0
LINE
8
0
10
16
20
50.2
11
16
21
46.8436566
0
LINE
8
0
10
16
20
46.8436566
11
16
21
45.2
0
LINE
8
0
10
16
20
45.2
11
16
21
44.7416451
0
LINE
8
0
10
16
20
44.7416451
11
16
21
44.0879417
0
LINE
8
0
10
16
20
44.0879417
11
16
21
43.5858589
0
LINE
8
0
10
16
20
43.5858589
11
16
21
42.9645986
0
LINE
8
0
10
16
20
42.9645986
11
16
21
42.3588812
0
LINE
8
0
10
16
20
42.3588812
11
16
21
41.8157891
0
LINE
8
0
10
16
20
41.8157891
11
16
21
41.041285
0
LINE
8
0
10
16
20
41.041285
11
16
21
40.6214062
0
LINE
8
0
10
16
20
40.6214062
11
16
21
39.6058841
0
LINE
8
0
10
16
20
39.6058841
11
16
21
39.3521497
0
LINE
8
0
10
16
20
39.3521497
11
16
21
38.0109442
0
LINE
8
0
10
16
20
38.0109442
11
16
21
38.0109442
0
LINE
8
0
10
72
20
-9.81459274
11
72
21
-10.3169641
0
LINE
8
0
10
72
20
-10.3169641
11
72
21
-10.408347
0
LINE
8
0
10
72
20
-10.408347
11
72
21
-13.5
0
LINE
8
0
10
72
20
-13.5
11
71.9607512
21
-13.7981097
0
LINE
8
0
10
71.9607512
20
-13.7981097
11
71.91481
21
-14.14705
0
LINE
8
0
10
71.91481
20
-14.14705
11
71.7997449
21
-14.4248418
0
LINE
8
0
10
71.7997449
20
-14.4248418
11
71.66506
21
-14.75
0
LINE
8
0
10
71.66506
20
-14.75
11
71.4820201
21
-14.9885476
0
LINE
8
0
10
71.4820201
20
-14.9885476
11
71.26777
21
-15.26777
0
LINE
8
0
10
71.26777
20
-15.26777
11
71.0292224
21
-15.4508099
0
LINE
8
0
10
71.0292224
20
-15.4508099
11
70.75
21
-15.66506
0
LINE
8
0
10
70.75
20
-15.66506
11
70.4722082
21
-15.7801251
0
LINE
8
0
10
70.4722082
20
-15.7801251
11
70.14705
21
-15.91481
0
LINE
8
0
10
70.14705
20
-15.91481
11
69.7981097
21
-15.9607512
0
LINE
8
0
10
69.7981097
20
-15.9607512
11
69.5
21
-16
0
LINE
8
0
10
69.5
20
-16
11
67.2197752
21
-16
0
LINE
8
0
10
67.2197752
20
-16
11
58.8
21
-16
0
LINE
8
0
10
58.8
20
-16
11
58.7550125
21
-15.9990731
0
LINE
8
0
10
58.7550125
20
-15.9990731
11
58.73836
21
-15.99873
0
LINE
8
0
10
58.73836
20
-15.99873
11
58.6935088
21
-15.9959619
0
LINE
8
0
10
58.6935088
20
-15.9959619
11
58.67679
21
-15.99493
0
LINE
8
0
10
58.67679
20
-15.99493
11
58.6602009
21
-15.9932187
0
LINE
8
0
10
58.6602009
20
-15.9932187
11
58.5332942
21
-15.9700015
0
LINE
8
0
10
58.5332942
20
-15.9700015
11
58.41177
21
-15.94889
0
LINE
8
0
10
58.41177
20
-15.94889
11
58.3798001
21
-15.9356476
0
LINE
8
0
10
58.3798001
20
-15.9356476
11
58.05
21
-15.79904
0
LINE
8
0
10
58.05
20
-15.79904
11
58.0225467
21
-15.7779741
0
LINE
8
0
10
58.0225467
20
-15.7779741
11
57.73934
21
-15.56066
0
LINE
8
0
10
57.73934
20
-15.56066
11
57.7182741
21
-15.5332067
0
LINE
8
0
10
57.7182741
20
-15.5332067
11
57.50096
21
-15.25
0
LINE
8
0
10
57.50096
20
-15.25
11
57.4877176
21
-15.2180301
0
LINE
8
0
10
57.4877176
20
-15.2180301
11
57.35111
21
-14.88823
0
LINE
8
0
10
57.35111
20
-14.88823
11
57.3494489
21
-14.8756122
0
LINE
8
0
10
57.3494489
20
-14.8756122
11
57.3270104
21
-14.7455257
0
LINE
8
0
10
57.3270104
20
-14.7455257
11
57.3
21
-14.5
0
LINE
8
0
10
57.3
20
-14.5
11
57.3
21
-14.2519378
0
LINE
8
0
10
57.3
20
-14.2519378
11
57.3
21
-14.17729
0
LINE
8
0
10
57.3
20
-14.17729
11
57.3
21
-9.90737125
0
LINE
8
0
10
57.3
20
-9.90737125
11
57.3
21
-9.75464601
0
LINE
8
0
10
57.3
20
-9.75464601
11
57.3
21
-9.26795859
0
LINE
8
0
10
57.3
20
-9.26795859
11
57.3
21
-9.1097452
0
LINE
8
0
10
57.3
20
-9.1097452
11
57.3
21
-8.4357215
0
LINE
8
0
10
57.3
20
-8.4357215
11
57.3
21
-7.50655683
0
LINE
8
0
10
57.3
20
-7.50655683
11
57.3
21
-6.26720874
0
LINE
8
0
10
57.3
20
-6.26720874
11
57.3
21
-4.66960724
0
LINE
8
0
10
57.3
20
-4.66960724
11
57.3
21
-2.69602465
0
LINE
8
0
10
57.3
20
-2.69602465
11
57.3
21
-1.11579916
0
LINE
8
0
10
57.3
20
-1.11579916
11
57.4434416
21
-0.845897928
0
LINE
8
0
10
57.4434416
20
-0.845897928
11
57.5278199
21
-0.67652813
0
LINE
8
0
10
57.5278199
20
-0.67652813
11
57.8441404
21
0.127917566
0
LINE
8
0
10
57.8441404
20
0.127917566
11
58.0487855
21
0.727233816
0
LINE
8
0
10
58.0487855
20
0.727233816
11
58.1464912
21
1.12842698
0
LINE
8
0
10
58.1464912
20
1.12842698
11
58.2989118
21
1.99285548
0
LINE
8
0
10
58.2989118
20
1.99285548
11
58.3156629
21
2.18594721
0
LINE
8
0
10
58.3156629
20
2.18594721
11
58.3222151
21
3.14377445
0
LINE
8
0
10
58.3222151
20
3.14377445
11
58.3088086
21
3.32854746
0
LINE
8
0
10
58.3088086
20
3.32854746
11
58.1659411
21
4.20592655
0
LINE
8
0
10
58.1659411
20
4.20592655
11
58.0796561
21
4.58154931
0
LINE
8
0
10
58.0796561
20
4.58154931
11
57.8738978
21
5.20780995
0
LINE
8
0
10
57.8738978
20
5.20780995
11
57.5850993
21
5.96757131
0
LINE
8
0
10
57.5850993
20
5.96757131
11
57.4818246
21
6.17997372
0
LINE
8
0
10
57.4818246
20
6.17997372
11
57.3
21
6.53002606
0
LINE
8
0
10
57.3
20
6.53002606
11
57.3
21
7.35447087
0
LINE
8
0
10
57.3
20
7.35447087
11
57.3
21
8.4191403
0
LINE
8
0
10
57.3
20
8.4191403
11
57.3
21
10
0
LINE
8
0
10
57.3
20
10
11
61.5248031
21
10
0
LINE
8
0
10
61.5248031
20
10
11
61.5480985
21
10
0
LINE
8
0
10
61.5480985
20
10
11
62.1076082
21
10
0
LINE
8
0
10
62.1076082
20
10
11
63.1
21
10
0
LINE
8
0
10
63.1
20
10
11
63.1
21
21.1869624
0
LINE
8
0
10
63.1
20
21.1869624
11
63.1
21
22.4
0
LINE
8
0
10
63.1
20
22.4
11
63.1003865
21
22.4003478
0
LINE
8
0
10
63.1003865
20
22.4003478
11
63.1015598
21
22.4014043
0
LINE
8
0
10
63.1015598
20
22.4014043
11
63.1035236
21
22.4031724
0
LINE
8
0
10
63.1035236
20
22.4031724
11
63.1062596
21
22.4056361
0
LINE
8
0
10
63.1062596
20
22.4056361
11
63.1097227
21
22.4087545
0
LINE
8
0
10
63.1097227
20
22.4087545
11
63.11384
21
22.4124615
0
LINE
8
0
10
63.11384
20
22.4124615
11
63.1236099
21
22.421259
0
LINE
8
0
10
63.1236099
20
22.421259
11
63.1344861
21
22.4310514
0
LINE
8
0
10
63.1344861
20
22.4310514
11
63.9005241
21
23.1207952
0
LINE
8
0
10
63.9005241
20
23.1207952
11
63.9337382
21
23.1507005
0
LINE
8
0
10
63.9337382
20
23.1507005
11
63.9641801
21
23.1781119
0
LINE
8
0
10
63.9641801
20
23.1781119
11
63.977276
21
23.1899032
0
LINE
8
0
10
63.977276
20
23.1899032
11
63.98849
21
23.2
0
LINE
8
0
10
63.98849
20
23.2
11
64.4293298
21
23.2
0
LINE
8
0
10
64.4293298
20
23.2
11
64.9
21
23.2
0
LINE
8
0
10
64.9
20
23.2
11
64.9
21
23.8400171
0
LINE
8
0
10
64.9
20
23.8400171
11
64.9
21
24.4460848
0
LINE
8
0
10
64.9
20
24.4460848
11
64.9
21
25.543194
0
LINE
8
0
10
64.9
20
25.543194
11
64.9
21
27.5519993
0
LINE
8
0
10
64.9
20
27.5519993
11
64.9033638
21
27.5846725
0
LINE
8
0
10
64.9033638
20
27.5846725
11
64.91704
21
27.7175059
0
LINE
8
0
10
64.91704
20
27.7175059
11
64.9233827
21
27.7370907
0
LINE
8
0
10
64.9233827
20
27.7370907
11
64.96699
21
27.8717392
0
LINE
8
0
10
64.96699
20
27.8717392
11
64.9719443
21
27.879997
0
LINE
8
0
10
64.9719443
20
27.879997
11
65.04645
21
28.0041847
0
LINE
8
0
10
65.04645
20
28.0041847
11
65.0471568
21
28.0048784
0
LINE
8
0
10
65.0471568
20
28.0048784
11
65.0629206
21
28.0203491
0
LINE
8
0
10
65.0629206
20
28.0203491
11
65.149504
21
28.0989208
0
LINE
8
0
10
65.149504
20
28.0989208
11
65.1528612
21
28.1009038
0
LINE
8
0
10
65.1528612
20
28.1009038
11
65.2677767
21
28.1572936
0
LINE
8
0
10
65.2677767
20
28.1572936
11
65.2740493
21
28.1592966
0
LINE
8
0
10
65.2740493
20
28.1592966
11
65.2789676
21
28.1598365
0
LINE
8
0
10
65.2789676
20
28.1598365
11
65.39954
21
28.1740125
0
LINE
8
0
10
65.39954
20
28.1740125
11
65.4
21
28.1740201
0
LINE
8
0
10
65.4
20
28.1740201
11
67.5598843
21
28.1800542
0
LINE
8
0
10
67.5598843
20
28.1800542
11
72.5926001
21
28.1836371
0
LINE
8
0
10
72.5926001
20
28.1836371
11
72.5940334
21
27.803928
0
LINE
8
0
10
72.5940334
20
27.803928
11
72.580279
21
21.1603163
0
LINE
8
0
10
72.580279
20
21.1603163
11
72.4153283
21
20.9930489
0
LINE
8
0
10
72.4153283
20
20.9930489
11
72
21
20.57188
0
LINE
8
0
10
72
20
20.57188
11
72
21
16.9419277
0
LINE
8
0
10
72
20
16.9419277
11
72
21
16.5756939
0
LINE
8
0
10
72
20
16.5756939
11
72
21
13.7744903
0
LINE
8
0
10
72
20
13.7744903
11
72
21
13.7735558
0
LINE
8
0
10
72
20
13.7735558
11
71.9925933
21
13.5598947
0
LINE
8
0
10
71.9925933
20
13.5598947
11
71.9204139
21
12.4056528
0
LINE
8
0
10
71.9204139
20
12.4056528
11
71.9042669
21
12.2504888
0
LINE
8
0
10
71.9042669
20
12.2504888
11
71.877561
21
12.0983323
0
LINE
8
0
10
71.877561
20
12.0983323
11
71.6492495
21
10.8889957
0
LINE
8
0
10
71.6492495
20
10.8889957
11
71.627853
21
10.8036187
0
LINE
8
0
10
71.627853
20
10.8036187
11
71.2026515
21
9.5055475
0
LINE
8
0
10
71.2026515
20
9.5055475
11
71.1979245
21
9.49127453
0
LINE
8
0
10
71.1979245
20
9.49127453
11
71.1922417
21
9.47773206
0
LINE
8
0
10
71.1922417
20
9.47773206
11
71.071298
21
9.2318629
0
LINE
8
0
10
71.071298
20
9.2318629
11
70.8308862
21
8.68737526
0
LINE
8
0
10
70.8308862
20
8.68737526
11
70.6581171
21
8.32502649
0
LINE
8
0
10
70.6581171
20
8.32502649
11
70.6406617
21
8.2962368
0
LINE
8
0
10
70.6406617
20
8.2962368
11
70.2525158
21
7.56950085
0
LINE
8
0
10
70.2525158
20
7.56950085
11
70.189956
21
7.47444679
0
LINE
8
0
10
70.189956
20
7.47444679
11
69.8101836
21
6.81255859
0
LINE
8
0
10
69.8101836
20
6.81255859
11
69.7574964
21
6.73854764
0
LINE
8
0
10
69.7574964
20
6.73854764
11
69.3912805
21
6.13198838
0
LINE
8
0
10
69.3912805
20
6.13198838
11
69.3527691
21
6.06823871
0
LINE
8
0
10
69.3527691
20
6.06823871
11
69.3478459
21
6.05821565
0
LINE
8
0
10
69.3478459
20
6.05821565
11
68.9666742
21
5.4481476
0
LINE
8
0
10
68.9666742
20
5.4481476
11
68.8857622
21
5.28056518
0
LINE
8
0
10
68.8857622
20
5.28056518
11
68.6212653
21
4.86613959
0
LINE
8
0
10
68.6212653
20
4.86613959
11
68.4437221
21
4.47757814
0
LINE
8
0
10
68.4437221
20
4.47757814
11
68.3370238
21
4.31246051
0
LINE
8
0
10
68.3370238
20
4.31246051
11
68.2172399
21
4.0169537
0
LINE
8
0
10
68.2172399
20
4.0169537
11
68.1203139
21
3.7789761
0
LINE
8
0
10
68.1203139
20
3.7789761
11
68.0712971
21
3.47856294
0
LINE
8
0
10
68.0712971
20
3.47856294
11
68.003537
21
3.25856055
0
LINE
8
0
10
68.003537
20
3.25856055
11
68.008141
21
3.13083827
0
LINE
8
0
10
68.008141
20
3.13083827
11
68.020823
21
2.74470272
0
LINE
8
0
10
68.020823
20
2.74470272
11
68.0804688
21
2.5856722
0
LINE
8
0
10
68.0804688
20
2.5856722
11
68.2117382
21
2.23125014
0
LINE
8
0
10
68.2117382
20
2.23125014
11
68.2539063
21
2.17190854
0
LINE
8
0
10
68.2539063
20
2.17190854
11
68.3285335
21
2.0659577
0
LINE
8
0
10
68.3285335
20
2.0659577
11
68.4674661
21
1.81267019
0
LINE
8
0
10
68.4674661
20
1.81267019
11
68.5218983
21
1.71208309
0
LINE
8
0
10
68.5218983
20
1.71208309
11
68.7005694
21
1.48254126
0
LINE
8
0
10
68.7005694
20
1.48254126
11
68.9327993
21
1.18080534
0
LINE
8
0
10
68.9327993
20
1.18080534
11
68.9426737
21
1.17093393
0
LINE
8
0
10
68.9426737
20
1.17093393
11
68.9524789
21
1.16103266
0
LINE
8
0
10
68.9524789
20
1.16103266
11
69.1853562
21
0.86514341
0
LINE
8
0
10
69.1853562
20
0.86514341
11
69.3676443
21
0.630374513
0
LINE
8
0
10
69.3676443
20
0.630374513
11
69.428859
21
0.565678505
0
LINE
8
0
10
69.428859
20
0.565678505
11
69.4859435
21
0.504593888
0
LINE
8
0
10
69.4859435
20
0.504593888
11
69.6667578
21
0.268141317
0
LINE
8
0
10
69.6667578
20
0.268141317
11
69.8289503
21
0.0527425762
0
LINE
8
0
10
69.8289503
20
0.0527425762
11
69.9013426
21
-0.0292504326
0
LINE
8
0
10
69.9013426
20
-0.0292504326
11
69.9637152
21
-0.100909234
0
LINE
8
0
10
69.9637152
20
-0.100909234
11
70.1266983
21
-0.326176093
0
LINE
8
0
10
70.1266983
20
-0.326176093
11
70.2941787
21
-0.561580838
0
LINE
8
0
10
70.2941787
20
-0.561580838
11
70.346644
21
-0.6261526
0
LINE
8
0
10
70.346644
20
-0.6261526
11
70.3877487
21
-0.677538186
0
LINE
8
0
10
70.3877487
20
-0.677538186
11
70.5536499
21
-0.925364987
0
LINE
8
0
10
70.5536499
20
-0.925364987
11
70.7501881
21
-1.22415587
0
LINE
8
0
10
70.7501881
20
-1.22415587
11
70.7550961
21
-1.23082711
0
LINE
8
0
10
70.7550961
20
-1.23082711
11
70.7585431
21
-1.23558982
0
LINE
8
0
10
70.7585431
20
-1.23558982
11
70.9385913
21
-1.53298631
0
LINE
8
0
10
70.9385913
20
-1.53298631
11
71.0758598
21
-1.76380857
0
LINE
8
0
10
71.0758598
20
-1.76380857
11
71.1145441
21
-1.84195625
0
LINE
8
0
10
71.1145441
20
-1.84195625
11
71.1669902
21
-1.94995592
0
LINE
8
0
10
71.1669902
20
-1.94995592
11
71.2740608
21
-2.15032429
0
LINE
8
0
10
71.2740608
20
-2.15032429
11
71.341954
21
-2.27965177
0
LINE
8
0
10
71.341954
20
-2.27965177
11
71.4196113
21
-2.46020733
0
LINE
8
0
10
71.4196113
20
-2.46020733
11
71.5456441
21
-2.75873758
0
LINE
8
0
10
71.5456441
20
-2.75873758
11
71.5540325
21
-2.77703335
0
LINE
8
0
10
71.5540325
20
-2.77703335
11
71.5585761
21
-2.78711581
0
LINE
8
0
10
71.5585761
20
-2.78711581
11
71.6653624
21
-3.08422502
0
LINE
8
0
10
71.6653624
20
-3.08422502
11
71.7276644
21
-3.26068936
0
LINE
8
0
10
71.7276644
20
-3.26068936
11
71.7642692
21
-3.39643786
0
LINE
8
0
10
71.7642692
20
-3.39643786
11
71.838553
21
-3.67698202
0
LINE
8
0
10
71.838553
20
-3.67698202
11
71.8484284
21
-3.71172
0
LINE
8
0
10
71.8484284
20
-3.71172
11
71.852809
21
-3.7273913
0
LINE
8
0
10
71.852809
20
-3.7273913
11
71.9091537
21
-4.01334449
0
LINE
8
0
10
71.9091537
20
-4.01334449
11
71.9372606
21
-4.15845158
0
LINE
8
0
10
71.9372606
20
-4.15845158
11
71.955456
21
-4.31609288
0
LINE
8
0
10
71.955456
20
-4.31609288
11
71.9849955
21
-4.57651031
0
LINE
8
0
10
71.9849955
20
-4.57651031
11
71.986606
21
-4.61892004
0
LINE
8
0
10
71.986606
20
-4.61892004
11
72
21
-4.9613548
0
LINE
8
0
10
72
20
-4.9613548
11
72
21
-5.26602405
0
LINE
8
0
10
72
20
-5.26602405
11
72
21
-6.91607563
0
LINE
8
0
10
72
20
-6.91607563
11
72
21
-7.87119642
0
LINE
8
0
10
72
20
-7.87119642
11
72
21
-8.70343568
0
LINE
8
0
10
72
20
-8.70343568
11
72
21
-9.34146278
0
LINE
8
0
10
72
20
-9.34146278
11
72
21
-9.81459274
0
LINE
8
0
10
72
20
-9.81459274
11
72
21
-9.81459274
0
ENDSEC
0
EOF
