0
SECTION
2
ENTITIES
0
LINE
8
0
10
16
20
43.5023356
11
16
21
44.0700771
0
LINE
8
0
10
16
20
44.0700771
11
16
21
44.6782359
0
LINE
8
0
10
16
20
44.6782359
11
16
21
45.2
0
LINE
8
0
10
16
20
45.2
11
16
21
47.0710411
0
LINE
8
0
10
16
20
47.0710411
11
16
21
50.2
0
LINE
8
0
10
16
20
50.2
11
13.3450891
21
50.2
0
LINE
8
0
10
13.3450891
20
50.2
11
13.1278567
21
50.2
0
LINE
8
0
10
13.1278567
20
50.2
11
12.8798529
21
50.2
0
LINE
8
0
10
12.8798529
20
50.2
11
12.6227275
21
50.2
0
LINE
8
0
10
12.6227275
20
50.2
11
12.3860045
21
50.2
0
LINE
8
0
10
12.3860045
20
50.2
11
12.2014067
21
50.2
0
LINE
8
0
10
12.2014067
20
50.2
11
9.41414318
21
50.2
0
LINE
8
0
10
9.41414318
20
50.2
11
9.21718421
21
50.2
0
LINE
8
0
10
9.21718421
20
50.2
11
8.94562624
21
50.2
0
LINE
8
0
10
8.94562624
20
50.2
11
8.63706074
21
50.2
0
LINE
8
0
10
8.63706074
20
50.2
11
8.32844725
21
50.2
0
LINE
8
0
10
8.32844725
20
50.2
11
8.04843164
21
50.2
0
LINE
8
0
10
8.04843164
20
50.2
11
4.4
21
50.2
0
LINE
8
0
10
4.4
20
50.2
11
4.20558338
21
50.1744039
0
LINE
8
0
10
4.20558338
20
50.1744039
11
3.882362
21
50.13185
0
LINE
8
0
10
3.882362
20
50.13185
11
3.70119449
21
50.0568083
0
LINE
8
0
10
3.70119449
20
50.0568083
11
3.4
21
49.93205
0
LINE
8
0
10
3.4
20
49.93205
11
3.24442779
21
49.8126743
0
LINE
8
0
10
3.24442779
20
49.8126743
11
2.985786
21
49.61421
0
LINE
8
0
10
2.985786
20
49.61421
11
2.86641147
21
49.4586393
0
LINE
8
0
10
2.86641147
20
49.4586393
11
2.667949
21
49.2
0
LINE
8
0
10
2.667949
20
49.2
11
2.59290692
21
49.0188332
0
LINE
8
0
10
2.59290692
20
49.0188332
11
2.468148
21
48.71764
0
LINE
8
0
10
2.468148
20
48.71764
11
2.44255269
21
48.5232226
0
LINE
8
0
10
2.44255269
20
48.5232226
11
2.4
21
48.2
0
LINE
8
0
10
2.4
20
48.2
11
2.4
21
46.3267524
0
LINE
8
0
10
2.4
20
46.3267524
11
2.4
21
44.6391522
0
LINE
8
0
10
2.4
20
44.6391522
11
2.4
21
43.8816818
0
LINE
8
0
10
2.4
20
43.8816818
11
2.4
21
43.8388183
0
LINE
8
0
10
2.4
20
43.8388183
11
2.4
21
43.7956072
0
LINE
8
0
10
2.4
20
43.7956072
11
2.4
21
43.0693333
0
LINE
8
0
10
2.4
20
43.0693333
11
2.4
21
43.0224015
0
LINE
8
0
10
2.4
20
43.0224015
11
2.4
21
42.2523366
0
LINE
8
0
10
2.4
20
42.2523366
11
2.4
21
41.5371608
0
LINE
8
0
10
2.4
20
41.5371608
11
2.4
21
40.9442137
0
LINE
8
0
10
2.4
20
40.9442137
11
2.4
21
40.4976924
0
LINE
8
0
10
2.4
20
40.4976924
11
2.4
21
37.9879043
0
LINE
8
0
10
2.4
20
37.9879043
11
2.4
21
37.4749379
0
LINE
8
0
10
2.4
20
37.4749379
11
2.4
21
37.1078781
0
LINE
8
0
10
2.4
20
37.1078781
11
2.4
21
32.1232422
0
LINE
8
0
10
2.4
20
32.1232422
11
2.4
21
28.4834891
0
LINE
8
0
10
2.4
20
28.4834891
11
2.4
21
25.4663342
0
LINE
8
0
10
2.4
20
25.4663342
11
2.4
21
19.6716017
0
LINE
8
0
10
2.4
20
19.6716017
11
10.9373008
21
19.6716061
0
LINE
8
0
10
10.9373008
20
19.6716061
11
13.8
21
19.6716061
0
LINE
8
0
10
13.8
20
19.6716061
11
14.0936157
21
19.6940502
0
LINE
8
0
10
14.0936157
20
19.6940502
11
14.19207
21
19.7015761
0
LINE
8
0
10
14.19207
20
19.7015761
11
14.482855
21
19.7686763
0
LINE
8
0
10
14.482855
20
19.7686763
11
14.58036
21
19.7911786
0
LINE
8
0
10
14.58036
20
19.7911786
11
14.8655208
21
19.9023058
0
LINE
8
0
10
14.8655208
20
19.9023058
11
14.96114
21
19.9395661
0
LINE
8
0
10
14.96114
20
19.9395661
11
15.2379208
21
20.0936344
0
LINE
8
0
10
15.2379208
20
20.0936344
11
15.33073
21
20.1452961
0
LINE
8
0
10
15.33073
20
20.1452961
11
15.5964797
21
20.3408303
0
LINE
8
0
10
15.5964797
20
20.3408303
11
15.68559
21
20.4063986
0
LINE
8
0
10
15.68559
20
20.4063986
11
15.9377324
21
20.6415189
0
LINE
8
0
10
15.9377324
20
20.6415189
11
16.02228
21
20.7203561
0
LINE
8
0
10
16.02228
20
20.7203561
11
16.2583963
21
20.9927859
0
LINE
8
0
10
16.2583963
20
20.9927859
11
16.33757
21
21.0841386
0
LINE
8
0
10
16.33757
20
21.0841386
11
16.555391
21
21.3912718
0
LINE
8
0
10
16.555391
20
21.3912718
11
16.62843
21
21.4942561
0
LINE
8
0
10
16.62843
20
21.4942561
11
17.0009634
21
22.2004482
0
LINE
8
0
10
17.0009634
20
22.2004482
11
17.12588
21
22.4372461
0
LINE
8
0
10
17.12588
20
22.4372461
11
17.4026982
21
23.2429427
0
LINE
8
0
10
17.4026982
20
23.2429427
11
17.49552
21
23.5131061
0
LINE
8
0
10
17.49552
20
23.5131061
11
17.6659814
21
24.3873332
0
LINE
8
0
10
17.6659814
20
24.3873332
11
17.72314
21
24.6804761
0
LINE
8
0
10
17.72314
20
24.6804761
11
17.7806994
21
25.5896462
0
LINE
8
0
10
17.7806994
20
25.5896462
11
17.8
21
25.8945061
0
LINE
8
0
10
17.8
20
25.8945061
11
17.8
21
27.874089
0
LINE
8
0
10
17.8
20
27.874089
11
17.8
21
28.8763309
0
LINE
8
0
10
17.8
20
28.8763309
11
17.8
21
29.7227704
0
LINE
8
0
10
17.8
20
29.7227704
11
17.8
21
31.081302
0
LINE
8
0
10
17.8
20
31.081302
11
17.8
21
33.3883779
0
LINE
8
0
10
17.8
20
33.3883779
11
17.8
21
37.6998956
0
LINE
8
0
10
17.8
20
37.6998956
11
17.8
21
37.8873213
0
LINE
8
0
10
17.8
20
37.8873213
11
16.0578555
21
37.8873213
0
LINE
8
0
10
16.0578555
20
37.8873213
11
16
21
37.8873213
0
LINE
8
0
10
16
20
37.8873213
11
16
21
39.2521463
0
LINE
8
0
10
16
20
39.2521463
11
16
21
39.4545759
0
LINE
8
0
10
16
20
39.4545759
11
16
21
40.5447399
0
LINE
8
0
10
16
20
40.5447399
11
16
21
40.9145732
0
LINE
8
0
10
16
20
40.9145732
11
16
21
41.7601478
0
LINE
8
0
10
16
20
41.7601478
11
16
21
42.2544786
0
LINE
8
0
10
16
20
42.2544786
11
16
21
42.9283631
0
LINE
8
0
10
16
20
42.9283631
11
16
21
43.5023356
0
LINE
8
0
10
16
20
43.5023356
11
16
21
43.5023356
0
LINE
8
0
10
35.2
20
-11.2638861
11
35.2
21
-10.5350583
0
LINE
8
0
10
35.2
20
-10.5350583
11
35.2
21
-9.52856476
0
LINE
8
0
10
35.2
20
-9.52856476
11
35.2
21
-8.21013535
0
LINE
8
0
10
35.2
20
-8.21013535
11
35.2
21
-6.58765705
0
LINE
8
0
10
35.2
20
-6.58765705
11
35.2
21
-6.4193872
0
LINE
8
0
10
35.2
20
-6.4193872
11
34.8482225
21
-5.52476958
0
LINE
8
0
10
34.8482225
20
-5.52476958
11
34.7159229
21
-5.13732189
0
LINE
8
0
10
34.7159229
20
-5.13732189
11
34.5608974
21
-4.50076564
0
LINE
8
0
10
34.5608974
20
-4.50076564
11
34.4458196
21
-3.8481206
0
LINE
8
0
10
34.4458196
20
-3.8481206
11
34.4086819
21
-3.42002944
0
LINE
8
0
10
34.4086819
20
-3.42002944
11
34.403577
21
-2.67377195
0
LINE
8
0
10
34.403577
20
-2.67377195
11
34.4340102
21
-2.25433141
0
LINE
8
0
10
34.4340102
20
-2.25433141
11
34.5424897
21
-1.5881361
0
LINE
8
0
10
34.5424897
20
-1.5881361
11
34.6826108
21
-0.978150011
0
LINE
8
0
10
34.6826108
20
-0.978150011
11
34.8191545
21
-0.562555914
0
LINE
8
0
10
34.8191545
20
-0.562555914
11
35.1970011
21
0.431470753
0
LINE
8
0
10
35.1970011
20
0.431470753
11
35.1980874
21
0.433705005
0
LINE
8
0
10
35.1980874
20
0.433705005
11
35.2
21
0.437387191
0
LINE
8
0
10
35.2
20
0.437387191
11
35.2
21
2.33060863
0
LINE
8
0
10
35.2
20
2.33060863
11
35.2
21
3.93060094
0
LINE
8
0
10
35.2
20
3.93060094
11
35.2
21
9.11808941
0
LINE
8
0
10
35.2
20
9.11808941
11
35.2
21
10
0
LINE
8
0
10
35.2
20
10
11
31.3053135
21
10
0
LINE
8
0
10
31.3053135
20
10
11
30.2
21
10
0
LINE
8
0
10
30.2
20
10
11
30.2
21
11.3343073
0
LINE
8
0
10
30.2
20
11.3343073
11
30.2
21
11.53281
0
LINE
8
0
10
30.2
20
11.53281
11
30.2
21
11.6687391
0
LINE
8
0
10
30.2
20
11.6687391
11
30.2
21
11.69043
0
LINE
8
0
10
30.2
20
11.69043
11
30.2
21
11.868865
0
LINE
8
0
10
30.2
20
11.868865
11
30.2
21
11.89597
0
LINE
8
0
10
30.2
20
11.89597
11
30.2
21
12.1048263
0
LINE
8
0
10
30.2
20
12.1048263
11
30.2
21
12.13557
0
LINE
8
0
10
30.2
20
12.13557
11
30.2
21
12.3602371
0
LINE
8
0
10
30.2
20
12.3602371
11
30.2
21
12.39302
0
LINE
8
0
10
30.2
20
12.39302
11
30.2
21
12.6176458
0
LINE
8
0
10
30.2
20
12.6176458
11
30.2
21
12.65094
0
LINE
8
0
10
30.2
20
12.65094
11
30.2
21
14.7063677
0
LINE
8
0
10
30.2
20
14.7063677
11
30.2
21
15
0
LINE
8
0
10
30.2
20
15
11
28.451114
21
15
0
LINE
8
0
10
28.451114
20
15
11
28.2
21
15
0
LINE
8
0
10
28.2
20
15
11
28.2
21
13.2435314
0
LINE
8
0
10
28.2
20
13.2435314
11
28.2
21
11.2734303
0
LINE
8
0
10
28.2
20
11.2734303
11
28.2
21
11.0698871
0
LINE
8
0
10
28.2
20
11.0698871
11
28.2
21
9.66949943
0
LINE
8
0
10
28.2
20
9.66949943
11
28.2
21
5.13468274
0
LINE
8
0
10
28.2
20
5.13468274
11
28.2
21
3.15262337
0
LINE
8
0
10
28.2
20
3.15262337
11
28.2
21
0.437387191
0
LINE
8
0
10
28.2
20
0.437387191
11
28.2019126
21
0.433705005
0
LINE
8
0
10
28.2019126
20
0.433705005
11
28.2029989
21
0.431470753
0
LINE
8
0
10
28.2029989
20
0.431470753
11
28.5808455
21
-0.562555914
0
LINE
8
0
10
28.5808455
20
-0.562555914
11
28.7173892
21
-0.978150011
0
LINE
8
0
10
28.7173892
20
-0.978150011
11
28.8575103
21
-1.5881361
0
LINE
8
0
10
28.8575103
20
-1.5881361
11
28.9659898
21
-2.25433141
0
LINE
8
0
10
28.9659898
20
-2.25433141
11
28.996423
21
-2.67377195
0
LINE
8
0
10
28.996423
20
-2.67377195
11
28.9913181
21
-3.42002944
0
LINE
8
0
10
28.9913181
20
-3.42002944
11
28.9541804
21
-3.8481206
0
LINE
8
0
10
28.9541804
20
-3.8481206
11
28.8391026
21
-4.50076564
0
LINE
8
0
10
28.8391026
20
-4.50076564
11
28.6840771
21
-5.13732189
0
LINE
8
0
10
28.6840771
20
-5.13732189
11
28.5517775
21
-5.52476958
0
LINE
8
0
10
28.5517775
20
-5.52476958
11
28.2
21
-6.4193872
0
LINE
8
0
10
28.2
20
-6.4193872
11
28.2
21
-6.65036019
0
LINE
8
0
10
28.2
20
-6.65036019
11
28.2
21
-8.78032505
0
LINE
8
0
10
28.2
20
-8.78032505
11
28.2
21
-10.2734451
0
LINE
8
0
10
28.2
20
-10.2734451
11
28.2
21
-11.2733359
0
LINE
8
0
10
28.2
20
-11.2733359
11
28.2
21
-11.9248505
0
LINE
8
0
10
28.2
20
-11.9248505
11
28.2
21
-12.3383129
0
LINE
8
0
10
28.2
20
-12.3383129
11
28.2
21
-12.5899688
0
LINE
8
0
10
28.2
20
-12.5899688
11
28.2
21
-12.7306636
0
LINE
8
0
10
28.2
20
-12.7306636
11
28.2
21
-13.5
0
LINE
8
0
10
28.2
20
-13.5
11
28.2103794
21
-13.7112422
0
LINE
8
0
10
28.2103794
20
-13.7112422
11
28.21204
21
-13.74504
0
LINE
8
0
10
28.21204
20
-13.74504
11
28.2322061
21
-13.8558664
0
LINE
8
0
10
28.2322061
20
-13.8558664
11
28.258383
21
-14.0320866
0
LINE
8
0
10
28.258383
20
-14.0320866
11
28.3599226
21
-14.3672166
0
LINE
8
0
10
28.3599226
20
-14.3672166
11
28.4321017
21
-14.5414724
0
LINE
8
0
10
28.4321017
20
-14.5414724
11
28.5949325
21
-14.8464784
0
LINE
8
0
10
28.5949325
20
-14.8464784
11
28.716329
21
-15.0046889
0
LINE
8
0
10
28.716329
20
-15.0046889
11
28.93223
21
-15.26777
0
LINE
8
0
10
28.93223
20
-15.26777
11
29.1782102
21
-15.4696369
0
LINE
8
0
10
29.1782102
20
-15.4696369
11
29.359793
21
-15.6089671
0
LINE
8
0
10
29.359793
20
-15.6089671
11
29.6329795
21
-15.7552988
0
LINE
8
0
10
29.6329795
20
-15.7552988
11
29.8597575
21
-15.8492334
0
LINE
8
0
10
29.8597575
20
-15.8492334
11
30.1482983
21
-15.9370432
0
LINE
8
0
10
30.1482983
20
-15.9370432
11
30.4244511
21
-15.9637215
0
LINE
8
0
10
30.4244511
20
-15.9637215
11
30.5939949
21
-15.9895588
0
LINE
8
0
10
30.5939949
20
-15.9895588
11
30.7
21
-16
0
LINE
8
0
10
30.7
20
-16
11
32.1070578
21
-16
0
LINE
8
0
10
32.1070578
20
-16
11
32.7
21
-16
0
LINE
8
0
10
32.7
20
-16
11
33.0629683
21
-15.9642487
0
LINE
8
0
10
33.0629683
20
-15.9642487
11
33.3142161
21
-15.9224662
0
LINE
8
0
10
33.3142161
20
-15.9224662
11
33.4142136
21
-15.8920122
0
LINE
8
0
10
33.4142136
20
-15.8920122
11
33.886387
21
-15.6964316
0
LINE
8
0
10
33.886387
20
-15.6964316
11
33.9816634
21
-15.6453709
0
LINE
8
0
10
33.9816634
20
-15.6453709
11
34.3814289
21
-15.338627
0
LINE
8
0
10
34.3814289
20
-15.338627
11
34.46777
21
-15.26777
0
LINE
8
0
10
34.46777
20
-15.26777
11
34.5448757
21
-15.1738147
0
LINE
8
0
10
34.5448757
20
-15.1738147
11
34.8436346
21
-14.7844557
0
LINE
8
0
10
34.8436346
20
-14.7844557
11
34.9020237
21
-14.6750478
0
LINE
8
0
10
34.9020237
20
-14.6750478
11
35.0879484
21
-14.2261857
0
LINE
8
0
10
35.0879484
20
-14.2261857
11
35.1244853
21
-14.105557
0
LINE
8
0
10
35.1244853
20
-14.105557
11
35.1339536
21
-14.0418429
0
LINE
8
0
10
35.1339536
20
-14.0418429
11
35.1371407
21
-13.9774397
0
LINE
8
0
10
35.1371407
20
-13.9774397
11
35.1731122
21
-13.7042228
0
LINE
8
0
10
35.1731122
20
-13.7042228
11
35.1973397
21
-13.5541428
0
LINE
8
0
10
35.1973397
20
-13.5541428
11
35.2
21
-13.5
0
LINE
8
0
10
35.2
20
-13.5
11
35.2
21
-12.2620489
0
LINE
8
0
10
35.2
20
-12.2620489
11
35.2
21
-12.0829006
0
LINE
8
0
10
35.2
20
-12.0829006
11
35.2
21
-11.7638287
0
LINE
8
0
10
35.2
20
-11.7638287
11
35.2
21
-11.2638861
0
LINE
8
0
10
35.2
20
-11.2638861
11
35.2
21
-11.2638861
0
LINE
8
0
10
72
20
16.8166893
11
72
21
16.4378199
0
LINE
8
0
10
72
20
16.4378199
11
72
21
13.5399708
0
LINE
8
0
10
72
20
13.5399708
11
72
21
13.5391309
0
LINE
8
0
10
72
20
13.5391309
11
71.9933423
21
13.3470783
0
LINE
8
0
10
71.9933423
20
13.3470783
11
71.9186741
21
12.1530349
0
LINE
8
0
10
71.9186741
20
12.1530349
11
71.9049565
21
12.0212163
0
LINE
8
0
10
71.9049565
20
12.0212163
11
71.8822686
21
11.8919527
0
LINE
8
0
10
71.8822686
20
11.8919527
11
71.6460844
21
10.6409149
0
LINE
8
0
10
71.6460844
20
10.6409149
11
71.6307948
21
10.5799062
0
LINE
8
0
10
71.6307948
20
10.5799062
11
71.262893
21
9.45676159
0
LINE
8
0
10
71.262893
20
9.45676159
11
71.2165713
21
9.29773544
0
LINE
8
0
10
71.2165713
20
9.29773544
11
71.1309069
21
9.08202051
0
LINE
8
0
10
71.1309069
20
9.08202051
11
70.9420486
21
8.65429191
0
LINE
8
0
10
70.9420486
20
8.65429191
11
70.8631731
21
8.4888662
0
LINE
8
0
10
70.8631731
20
8.4888662
11
70.6635061
21
8.02648344
0
LINE
8
0
10
70.6635061
20
8.02648344
11
70.4564497
21
7.63874641
0
LINE
8
0
10
70.4564497
20
7.63874641
11
70.2605457
21
7.21719627
0
LINE
8
0
10
70.2605457
20
7.21719627
11
70.0655979
21
6.87747203
0
LINE
8
0
10
70.0655979
20
6.87747203
11
69.8274275
21
6.38642269
0
LINE
8
0
10
69.8274275
20
6.38642269
11
69.7051714
21
6.18404634
0
LINE
8
0
10
69.7051714
20
6.18404634
11
69.4118182
21
5.58681194
0
LINE
8
0
10
69.4118182
20
5.58681194
11
69.3900487
21
5.54258237
0
LINE
8
0
10
69.3900487
20
5.54258237
11
69.3822722
21
5.52192496
0
LINE
8
0
10
69.3822722
20
5.52192496
11
69.1007014
21
4.94051087
0
LINE
8
0
10
69.1007014
20
4.94051087
11
68.9585601
21
4.52190374
0
LINE
8
0
10
68.9585601
20
4.52190374
11
68.8878366
21
4.36773244
0
LINE
8
0
10
68.8878366
20
4.36773244
11
68.844206
21
4.20857451
0
LINE
8
0
10
68.844206
20
4.20857451
11
68.7353801
21
3.81584402
0
LINE
8
0
10
68.7353801
20
3.81584402
11
68.6974114
21
3.39422409
0
LINE
8
0
10
68.6974114
20
3.39422409
11
68.6864088
21
3.27749279
0
LINE
8
0
10
68.6864088
20
3.27749279
11
68.7300845
21
2.80341682
0
LINE
8
0
10
68.7300845
20
2.80341682
11
68.7350644
21
2.74592345
0
LINE
8
0
10
68.7350644
20
2.74592345
11
68.8497224
21
2.32366425
0
LINE
8
0
10
68.8497224
20
2.32366425
11
68.8785456
21
2.21475857
0
LINE
8
0
10
68.8785456
20
2.21475857
11
69.0165166
21
1.90679701
0
LINE
8
0
10
69.0165166
20
1.90679701
11
69.117287
21
1.67767885
0
LINE
8
0
10
69.117287
20
1.67767885
11
69.210098
21
1.52817547
0
LINE
8
0
10
69.210098
20
1.52817547
11
69.3702571
21
1.26619526
0
LINE
8
0
10
69.3702571
20
1.26619526
11
69.4176609
21
1.17335757
0
LINE
8
0
10
69.4176609
20
1.17335757
11
69.4403336
21
1.12809258
0
LINE
8
0
10
69.4403336
20
1.12809258
11
69.6295816
21
0.8327008
0
LINE
8
0
10
69.6295816
20
0.8327008
11
69.8021626
21
0.558691476
0
LINE
8
0
10
69.8021626
20
0.558691476
11
69.8460714
21
0.501271538
0
LINE
8
0
10
69.8460714
20
0.501271538
11
69.8936387
21
0.438100033
0
LINE
8
0
10
69.8936387
20
0.438100033
11
70.0579214
21
0.177035997
0
LINE
8
0
10
70.0579214
20
0.177035997
11
70.1913287
21
-0.0388676035
0
LINE
8
0
10
70.1913287
20
-0.0388676035
11
70.2682055
21
-0.145122818
0
LINE
8
0
10
70.2682055
20
-0.145122818
11
70.3418209
21
-0.248594007
0
LINE
8
0
10
70.3418209
20
-0.248594007
11
70.4702689
21
-0.46350894
0
LINE
8
0
10
70.4702689
20
-0.46350894
11
70.5939305
21
-0.674387747
0
LINE
8
0
10
70.5939305
20
-0.674387747
11
70.6667095
21
-0.783106619
0
LINE
8
0
10
70.6667095
20
-0.783106619
11
70.7279699
21
-0.876238791
0
LINE
8
0
10
70.7279699
20
-0.876238791
11
70.8513614
21
-1.09982809
0
LINE
8
0
10
70.8513614
20
-1.09982809
11
70.9920801
21
-1.35979625
0
LINE
8
0
10
70.9920801
20
-1.35979625
11
71.0291326
21
-1.42099808
0
LINE
8
0
10
71.0291326
20
-1.42099808
11
71.0563355
21
-1.46674079
0
LINE
8
0
10
71.0563355
20
-1.46674079
11
71.1901414
21
-1.73704714
0
LINE
8
0
10
71.1901414
20
-1.73704714
11
71.329661
21
-2.02435327
0
LINE
8
0
10
71.329661
20
-2.02435327
11
71.344035
21
-2.06040175
0
LINE
8
0
10
71.344035
20
-2.06040175
11
71.3636575
21
-2.11060916
0
LINE
8
0
10
71.3636575
20
-2.11060916
11
71.4782541
21
-2.37704986
0
LINE
8
0
10
71.4782541
20
-2.37704986
11
71.5508451
21
-2.54899397
0
LINE
8
0
10
71.5508451
20
-2.54899397
11
71.600775
21
-2.69699402
0
LINE
8
0
10
71.600775
20
-2.69699402
11
71.6836106
21
-2.94729037
0
LINE
8
0
10
71.6836106
20
-2.94729037
11
71.7096133
21
-3.019637
0
LINE
8
0
10
71.7096133
20
-3.019637
11
71.7234612
21
-3.05886002
0
LINE
8
0
10
71.7234612
20
-3.05886002
11
71.7971784
21
-3.3322389
0
LINE
8
0
10
71.7971784
20
-3.3322389
11
71.8506404
21
-3.5341464
0
LINE
8
0
10
71.8506404
20
-3.5341464
11
71.8720529
21
-3.64867229
0
LINE
8
0
10
71.8720529
20
-3.64867229
11
71.9176726
21
-3.89721663
0
LINE
8
0
10
71.9176726
20
-3.89721663
11
71.9308476
21
-3.96408062
0
LINE
8
0
10
71.9308476
20
-3.96408062
11
71.9364349
21
-3.99292581
0
LINE
8
0
10
71.9364349
20
-3.99292581
11
71.9678163
21
-4.26480801
0
LINE
8
0
10
71.9678163
20
-4.26480801
11
71.9848062
21
-4.41458983
0
LINE
8
0
10
71.9848062
20
-4.41458983
11
71.9905081
21
-4.56473638
0
LINE
8
0
10
71.9905081
20
-4.56473638
11
72
21
-4.80740845
0
LINE
8
0
10
72
20
-4.80740845
11
72
21
-5.59836721
0
LINE
8
0
10
72
20
-5.59836721
11
72
21
-7.18181872
0
LINE
8
0
10
72
20
-7.18181872
11
72
21
-8.09838853
0
LINE
8
0
10
72
20
-8.09838853
11
72
21
-8.8970366
0
LINE
8
0
10
72
20
-8.8970366
11
72
21
-9.50931139
0
LINE
8
0
10
72
20
-9.50931139
11
72
21
-9.96334468
0
LINE
8
0
10
72
20
-9.96334468
11
72
21
-10.4454391
0
LINE
8
0
10
72
20
-10.4454391
11
72
21
-10.5331336
0
LINE
8
0
10
72
20
-10.5331336
11
72
21
-13.5
0
LINE
8
0
10
72
20
-13.5
11
71.9623353
21
-13.7860772
0
LINE
8
0
10
71.9623353
20
-13.7860772
11
71.91481
21
-14.14705
0
LINE
8
0
10
71.91481
20
-14.14705
11
71.8043892
21
-14.4136295
0
LINE
8
0
10
71.8043892
20
-14.4136295
11
71.66506
21
-14.75
0
LINE
8
0
10
71.66506
20
-14.75
11
71.489408
21
-14.9789193
0
LINE
8
0
10
71.489408
20
-14.9789193
11
71.26777
21
-15.26777
0
LINE
8
0
10
71.26777
20
-15.26777
11
71.0388507
21
-15.443422
0
LINE
8
0
10
71.0388507
20
-15.443422
11
70.75
21
-15.66506
0
LINE
8
0
10
70.75
20
-15.66506
11
70.4834205
21
-15.7754808
0
LINE
8
0
10
70.4834205
20
-15.7754808
11
70.14705
21
-15.91481
0
LINE
8
0
10
70.14705
20
-15.91481
11
69.7860772
21
-15.9623353
0
LINE
8
0
10
69.7860772
20
-15.9623353
11
69.5
21
-16
0
LINE
8
0
10
69.5
20
-16
11
67.3118105
21
-16
0
LINE
8
0
10
67.3118105
20
-16
11
58.8
21
-16
0
LINE
8
0
10
58.8
20
-16
11
58.7545208
21
-15.999063
0
LINE
8
0
10
58.7545208
20
-15.999063
11
58.73836
21
-15.99873
0
LINE
8
0
10
58.73836
20
-15.99873
11
58.6930205
21
-15.9959317
0
LINE
8
0
10
58.6930205
20
-15.9959317
11
58.67679
21
-15.99493
0
LINE
8
0
10
58.67679
20
-15.99493
11
58.6606853
21
-15.9932687
0
LINE
8
0
10
58.6606853
20
-15.9932687
11
58.5374847
21
-15.9707295
0
LINE
8
0
10
58.5374847
20
-15.9707295
11
58.41177
21
-15.94889
0
LINE
8
0
10
58.41177
20
-15.94889
11
58.3911725
21
-15.9403582
0
LINE
8
0
10
58.3911725
20
-15.9403582
11
58.05
21
-15.79904
0
LINE
8
0
10
58.05
20
-15.79904
11
58.0323124
21
-15.7854677
0
LINE
8
0
10
58.0323124
20
-15.7854677
11
57.73934
21
-15.56066
0
LINE
8
0
10
57.73934
20
-15.56066
11
57.7257677
21
-15.5429724
0
LINE
8
0
10
57.7257677
20
-15.5429724
11
57.50096
21
-15.25
0
LINE
8
0
10
57.50096
20
-15.25
11
57.4924282
21
-15.2294025
0
LINE
8
0
10
57.4924282
20
-15.2294025
11
57.35111
21
-14.88823
0
LINE
8
0
10
57.35111
20
-14.88823
11
57.3500398
21
-14.8801006
0
LINE
8
0
10
57.3500398
20
-14.8801006
11
57.3273332
21
-14.7484596
0
LINE
8
0
10
57.3273332
20
-14.7484596
11
57.3
21
-14.5
0
LINE
8
0
10
57.3
20
-14.5
11
57.3
21
-14.2489736
0
LINE
8
0
10
57.3
20
-14.2489736
11
57.3
21
-14.17729
0
LINE
8
0
10
57.3
20
-14.17729
11
57.3
21
-10.0769295
0
LINE
8
0
10
57.3
20
-10.0769295
11
57.3
21
-9.91893788
0
LINE
8
0
10
57.3
20
-9.91893788
11
57.3
21
-9.45181361
0
LINE
8
0
10
57.3
20
-9.45181361
11
57.3
21
-9.28694649
0
LINE
8
0
10
57.3
20
-9.28694649
11
57.3
21
-8.64012802
0
LINE
8
0
10
57.3
20
-8.64012802
11
57.3
21
-7.74846668
0
LINE
8
0
10
57.3
20
-7.74846668
11
57.3
21
-6.55914167
0
LINE
8
0
10
57.3
20
-6.55914167
11
57.3
21
-5.02602323
0
LINE
8
0
10
57.3
20
-5.02602323
11
57.3
21
-3.13209919
0
LINE
8
0
10
57.3
20
-3.13209919
11
57.3
21
-0.925711163
0
LINE
8
0
10
57.3
20
-0.925711163
11
57.3
21
-0.709569379
0
LINE
8
0
10
57.3
20
-0.709569379
11
57.6517775
21
0.185048191
0
LINE
8
0
10
57.6517775
20
0.185048191
11
57.7840771
21
0.572495946
0
LINE
8
0
10
57.7840771
20
0.572495946
11
57.9391026
21
1.20905215
0
LINE
8
0
10
57.9391026
20
1.20905215
11
58.0541804
21
1.8616974
0
LINE
8
0
10
58.0541804
20
1.8616974
11
58.0913181
21
2.28978856
0
LINE
8
0
10
58.0913181
20
2.28978856
11
58.096423
21
3.03604605
0
LINE
8
0
10
58.096423
20
3.03604605
11
58.0659898
21
3.45548623
0
LINE
8
0
10
58.0659898
20
3.45548623
11
57.9575103
21
4.12168145
0
LINE
8
0
10
57.9575103
20
4.12168145
11
57.8173892
21
4.73166805
0
LINE
8
0
10
57.8173892
20
4.73166805
11
57.6808455
21
5.14726215
0
LINE
8
0
10
57.6808455
20
5.14726215
11
57.3029989
21
6.14128825
0
LINE
8
0
10
57.3029989
20
6.14128825
11
57.3019126
21
6.1435225
0
LINE
8
0
10
57.3019126
20
6.1435225
11
57.3
21
6.14720469
0
LINE
8
0
10
57.3
20
6.14720469
11
57.3
21
7.46125082
0
LINE
8
0
10
57.3
20
7.46125082
11
57.3
21
8.48294762
0
LINE
8
0
10
57.3
20
8.48294762
11
57.3
21
10
0
LINE
8
0
10
57.3
20
10
11
61.8458703
21
10
0
LINE
8
0
10
61.8458703
20
10
11
61.8534262
21
10
0
LINE
8
0
10
61.8534262
20
10
11
62.0349026
21
10
0
LINE
8
0
10
62.0349026
20
10
11
63.1
21
10
0
LINE
8
0
10
63.1
20
10
11
63.1
21
22.0065524
0
LINE
8
0
10
63.1
20
22.0065524
11
63.1
21
22.4
0
LINE
8
0
10
63.1
20
22.4
11
63.1001253
21
22.4001128
0
LINE
8
0
10
63.1001253
20
22.4001128
11
63.1005059
21
22.4004555
0
LINE
8
0
10
63.1005059
20
22.4004555
11
63.1011429
21
22.401029
0
LINE
8
0
10
63.1011429
20
22.401029
11
63.1020303
21
22.4018281
0
LINE
8
0
10
63.1020303
20
22.4018281
11
63.1031536
21
22.4028395
0
LINE
8
0
10
63.1031536
20
22.4028395
11
63.104489
21
22.4040419
0
LINE
8
0
10
63.104489
20
22.4040419
11
63.1076578
21
22.4068953
0
LINE
8
0
10
63.1076578
20
22.4068953
11
63.1111855
21
22.4100715
0
LINE
8
0
10
63.1111855
20
22.4100715
11
63.91697
21
23.1356032
0
LINE
8
0
10
63.91697
20
23.1356032
11
63.9439745
21
23.1599174
0
LINE
8
0
10
63.9439745
20
23.1599174
11
63.968725
21
23.182204
0
LINE
8
0
10
63.968725
20
23.182204
11
63.9793726
21
23.1917909
0
LINE
8
0
10
63.9793726
20
23.1917909
11
63.98849
21
23.2
0
LINE
8
0
10
63.98849
20
23.2
11
64.3469113
21
23.2
0
LINE
8
0
10
64.3469113
20
23.2
11
64.9
21
23.2
0
LINE
8
0
10
64.9
20
23.2
11
64.9
21
23.9520897
0
LINE
8
0
10
64.9
20
23.9520897
11
64.9
21
24.6642851
0
LINE
8
0
10
64.9
20
24.6642851
11
64.9
21
25.9535076
0
LINE
8
0
10
64.9
20
25.9535076
11
64.9
21
27.3681101
0
LINE
8
0
10
64.9
20
27.3681101
11
64.9070037
21
27.4361382
0
LINE
8
0
10
64.9070037
20
27.4361382
11
64.91704
21
27.5336185
0
LINE
8
0
10
64.91704
20
27.5336185
11
64.9339971
21
27.585978
0
LINE
8
0
10
64.9339971
20
27.585978
11
64.96699
21
27.6878519
0
LINE
8
0
10
64.96699
20
27.6878519
11
64.98884
21
27.7242717
0
LINE
8
0
10
64.98884
20
27.7242717
11
65.04645
21
27.8202972
0
LINE
8
0
10
65.04645
20
27.8202972
11
65.0693165
21
27.8427395
0
LINE
8
0
10
65.0693165
20
27.8427395
11
65.15
21
27.9219227
0
LINE
8
0
10
65.15
20
27.9219227
11
65.1717106
21
27.9334242
0
LINE
8
0
10
65.1717106
20
27.9334242
11
65.27059
21
27.9858126
0
LINE
8
0
10
65.27059
20
27.9858126
11
65.3882971
21
28.0106633
0
LINE
8
0
10
65.3882971
20
28.0106633
11
65.4
21
28.0123087
0
LINE
8
0
10
65.4
20
28.0123087
11
69.3277063
21
28.0189335
0
LINE
8
0
10
69.3277063
20
28.0189335
11
72.1221996
21
28.0182498
0
LINE
8
0
10
72.1221996
20
28.0182498
11
72.1328697
21
25.7775785
0
LINE
8
0
10
72.1328697
20
25.7775785
11
72.1328697
21
20.7066182
0
LINE
8
0
10
72.1328697
20
20.7066182
11
72
21
20.57188
0
LINE
8
0
10
72
20
20.57188
11
72
21
16.8166893
0
LINE
8
0
10
72
20
16.8166893
11
72
21
16.8166893
0
ENDSEC
0
EOF
