0
SECTION
2
ENTITIES
0
LINE
8
0
10
16
20
45.2
11
16
21
44.6148268
0
LINE
8
0
10
16
20
44.6148268
11
16
21
44.0522125
0
LINE
8
0
10
16
20
44.0522125
11
16
21
43.4188124
0
LINE
8
0
10
16
20
43.4188124
11
16
21
42.8921275
0
LINE
8
0
10
16
20
42.8921275
11
16
21
42.150076
0
LINE
8
0
10
16
20
42.150076
11
16
21
41.7045066
0
LINE
8
0
10
16
20
41.7045066
11
16
21
40.7878615
0
LINE
8
0
10
16
20
40.7878615
11
16
21
40.4680736
0
LINE
8
0
10
16
20
40.4680736
11
16
21
39.3032677
0
LINE
8
0
10
16
20
39.3032677
11
16
21
39.1521429
0
LINE
8
0
10
16
20
39.1521429
11
16
21
38.1332261
0
LINE
8
0
10
16
20
38.1332261
11
16.4993935
21
38.1332261
0
LINE
8
0
10
16.4993935
20
38.1332261
11
17.8
21
38.1332261
0
LINE
8
0
10
17.8
20
38.1332261
11
17.8
21
36.5154166
0
LINE
8
0
10
17.8
20
36.5154166
11
17.8
21
32.6325006
0
LINE
8
0
10
17.8
20
32.6325006
11
17.8
21
30.5547677
0
LINE
8
0
10
17.8
20
30.5547677
11
17.8
21
29.3312857
0
LINE
8
0
10
17.8
20
29.3312857
11
17.8
21
28.5689895
0
LINE
8
0
10
17.8
20
28.5689895
11
17.8
21
27.666379
0
LINE
8
0
10
17.8
20
27.666379
11
17.8
21
25.62081
0
LINE
8
0
10
17.8
20
25.62081
11
17.782618
21
25.3462558
0
LINE
8
0
10
17.782618
20
25.3462558
11
17.72314
21
24.40678
0
LINE
8
0
10
17.72314
20
24.40678
11
17.6716635
21
24.142778
0
LINE
8
0
10
17.6716635
20
24.142778
11
17.49552
21
23.23941
0
LINE
8
0
10
17.49552
20
23.23941
11
17.4119255
21
22.9961031
0
LINE
8
0
10
17.4119255
20
22.9961031
11
17.12588
21
22.16355
0
LINE
8
0
10
17.12588
20
22.16355
11
17.0133811
21
21.9502918
0
LINE
8
0
10
17.0133811
20
21.9502918
11
16.62843
21
21.22056
0
LINE
8
0
10
16.62843
20
21.22056
11
16.5626517
21
21.1278132
0
LINE
8
0
10
16.5626517
20
21.1278132
11
16.33757
21
20.8104423
0
LINE
8
0
10
16.33757
20
20.8104423
11
16.2662668
21
20.7281707
0
LINE
8
0
10
16.2662668
20
20.7281707
11
16.02228
21
20.44666
0
LINE
8
0
10
16.02228
20
20.44666
11
15.9461372
21
20.3756599
0
LINE
8
0
10
15.9461372
20
20.3756599
11
15.68559
21
20.1327023
0
LINE
8
0
10
15.68559
20
20.1327023
11
15.605338
21
20.0736519
0
LINE
8
0
10
15.605338
20
20.0736519
11
15.33073
21
19.8716
0
LINE
8
0
10
15.33073
20
19.8716
11
15.2471468
21
19.8250739
0
LINE
8
0
10
15.2471468
20
19.8250739
11
14.96114
21
19.66587
0
LINE
8
0
10
14.96114
20
19.66587
11
14.8750262
21
19.6323137
0
LINE
8
0
10
14.8750262
20
19.6323137
11
14.58036
21
19.5174823
0
LINE
8
0
10
14.58036
20
19.5174823
11
14.4925478
21
19.4972169
0
LINE
8
0
10
14.4925478
20
19.4972169
11
14.19207
21
19.42788
0
LINE
8
0
10
14.19207
20
19.42788
11
14.1034029
21
19.4211022
0
LINE
8
0
10
14.1034029
20
19.4211022
11
13.8
21
19.39791
0
LINE
8
0
10
13.8
20
19.39791
11
11.2218775
21
19.39791
0
LINE
8
0
10
11.2218775
20
19.39791
11
2.4
21
19.3979055
0
LINE
8
0
10
2.4
20
19.3979055
11
2.4
21
25.3857957
0
LINE
8
0
10
2.4
20
25.3857957
11
2.4
21
28.5035224
0
LINE
8
0
10
2.4
20
28.5035224
11
2.4
21
32.2646006
0
LINE
8
0
10
2.4
20
32.2646006
11
2.4
21
36.9840774
0
LINE
8
0
10
2.4
20
36.9840774
11
2.4
21
37.3316113
0
LINE
8
0
10
2.4
20
37.3316113
11
2.4
21
37.8172902
0
LINE
8
0
10
2.4
20
37.8172902
11
2.4
21
40.4672554
0
LINE
8
0
10
2.4
20
40.4672554
11
2.4
21
40.8948988
0
LINE
8
0
10
2.4
20
40.8948988
11
2.4
21
41.4627775
0
LINE
8
0
10
2.4
20
41.4627775
11
2.4
21
42.1477173
0
LINE
8
0
10
2.4
20
42.1477173
11
2.4
21
42.9956785
0
LINE
8
0
10
2.4
20
42.9956785
11
2.4
21
43.0473577
0
LINE
8
0
10
2.4
20
43.0473577
11
2.4
21
43.7460005
0
LINE
8
0
10
2.4
20
43.7460005
11
2.4
21
43.7942089
0
LINE
8
0
10
2.4
20
43.7942089
11
2.4
21
43.8420295
0
LINE
8
0
10
2.4
20
43.8420295
11
2.4
21
44.5709933
0
LINE
8
0
10
2.4
20
44.5709933
11
2.4
21
46.4636847
0
LINE
8
0
10
2.4
20
46.4636847
11
2.4
21
48.2
0
LINE
8
0
10
2.4
20
48.2
11
2.43944214
21
48.4995954
0
LINE
8
0
10
2.43944214
20
48.4995954
11
2.468148
21
48.71764
0
LINE
8
0
10
2.468148
20
48.71764
11
2.58378717
21
48.9968163
0
LINE
8
0
10
2.58378717
20
48.9968163
11
2.667949
21
49.2
0
LINE
8
0
10
2.667949
20
49.2
11
2.85190408
21
49.439733
0
LINE
8
0
10
2.85190408
20
49.439733
11
2.985786
21
49.61421
0
LINE
8
0
10
2.985786
20
49.61421
11
3.22552136
21
49.7981668
0
LINE
8
0
10
3.22552136
20
49.7981668
11
3.4
21
49.93205
0
LINE
8
0
10
3.4
20
49.93205
11
3.6791775
21
50.0476886
0
LINE
8
0
10
3.6791775
20
50.0476886
11
3.882362
21
50.13185
0
LINE
8
0
10
3.882362
20
50.13185
11
4.18195625
21
50.1712933
0
LINE
8
0
10
4.18195625
20
50.1712933
11
4.4
21
50.2
0
LINE
8
0
10
4.4
20
50.2
11
8.49181951
21
50.2
0
LINE
8
0
10
8.49181951
20
50.2
11
8.80586495
21
50.2
0
LINE
8
0
10
8.80586495
20
50.2
11
9.15198373
21
50.2
0
LINE
8
0
10
9.15198373
20
50.2
11
9.49804869
21
50.2
0
LINE
8
0
10
9.49804869
20
50.2
11
9.80260866
21
50.2
0
LINE
8
0
10
9.80260866
20
50.2
11
10.0235037
21
50.2
0
LINE
8
0
10
10.0235037
20
50.2
11
11.7397699
21
50.2
0
LINE
8
0
10
11.7397699
20
50.2
11
11.9468016
21
50.2
0
LINE
8
0
10
11.9468016
20
50.2
11
12.2122931
21
50.2
0
LINE
8
0
10
12.2122931
20
50.2
11
12.5006666
21
50.2
0
LINE
8
0
10
12.5006666
20
50.2
11
12.7788099
21
50.2
0
LINE
8
0
10
12.7788099
20
50.2
11
13.0224421
21
50.2
0
LINE
8
0
10
13.0224421
20
50.2
11
16
21
50.2
0
LINE
8
0
10
16
20
50.2
11
16
21
47.2984257
0
LINE
8
0
10
16
20
47.2984257
11
16
21
45.2
0
LINE
8
0
10
16
20
45.2
11
16
21
45.2
0
LINE
8
0
10
35.2
20
-8.43262739
11
35.2
21
-6.87839062
0
LINE
8
0
10
35.2
20
-6.87839062
11
35.2
21
-5.87305193
0
LINE
8
0
10
35.2
20
-5.87305193
11
35.0405854
21
-5.46763908
0
LINE
8
0
10
35.0405854
20
-5.46763908
11
34.9806313
21
-5.29205985
0
LINE
8
0
10
34.9806313
20
-5.29205985
11
34.7682861
21
-4.42014054
0
LINE
8
0
10
34.7682861
20
-4.42014054
11
34.690551
21
-3.97927868
0
LINE
8
0
10
34.690551
20
-3.97927868
11
34.6330267
21
-3.3161881
0
LINE
8
0
10
34.6330267
20
-3.3161881
11
34.629369
21
-2.78150036
0
LINE
8
0
10
34.629369
20
-2.78150036
11
34.6768289
21
-2.12739244
0
LINE
8
0
10
34.6768289
20
-2.12739244
11
34.7509204
21
-1.67238103
0
LINE
8
0
10
34.7509204
20
-1.67238103
11
34.9448777
21
-0.828031299
0
LINE
8
0
10
34.9448777
20
-0.828031299
11
35.0122068
21
-0.623103725
0
LINE
8
0
10
35.0122068
20
-0.623103725
11
35.2
21
-0.129063368
0
LINE
8
0
10
35.2
20
-0.129063368
11
35.2
21
0.831593273
0
LINE
8
0
10
35.2
20
0.831593273
11
35.2
21
2.6531837
0
LINE
8
0
10
35.2
20
2.6531837
11
35.2
21
4.18588023
0
LINE
8
0
10
35.2
20
4.18588023
11
35.2
21
9.15518262
0
LINE
8
0
10
35.2
20
9.15518262
11
35.2
21
10
0
LINE
8
0
10
35.2
20
10
11
31.2588239
21
10
0
LINE
8
0
10
31.2588239
20
10
11
30.2
21
10
0
LINE
8
0
10
30.2
20
10
11
30.2
21
11.3502345
0
LINE
8
0
10
30.2
20
11.3502345
11
30.2
21
11.53281
0
LINE
8
0
10
30.2
20
11.53281
11
30.2
21
11.6706149
0
LINE
8
0
10
30.2
20
11.6706149
11
30.2
21
11.69043
0
LINE
8
0
10
30.2
20
11.69043
11
30.2
21
11.8713584
0
LINE
8
0
10
30.2
20
11.8713584
11
30.2
21
11.89597
0
LINE
8
0
10
30.2
20
11.89597
11
30.2
21
12.1077733
0
LINE
8
0
10
30.2
20
12.1077733
11
30.2
21
12.13557
0
LINE
8
0
10
30.2
20
12.13557
11
30.2
21
12.3634269
0
LINE
8
0
10
30.2
20
12.3634269
11
30.2
21
12.39302
0
LINE
8
0
10
30.2
20
12.39302
11
30.2
21
12.6208421
0
LINE
8
0
10
30.2
20
12.6208421
11
30.2
21
12.65094
0
LINE
8
0
10
30.2
20
12.65094
11
30.2
21
14.7355572
0
LINE
8
0
10
30.2
20
14.7355572
11
30.2
21
15
0
LINE
8
0
10
30.2
20
15
11
28.4261511
21
15
0
LINE
8
0
10
28.4261511
20
15
11
28.2
21
15
0
LINE
8
0
10
28.2
20
15
11
28.2
21
13.4181394
0
LINE
8
0
10
28.2
20
13.4181394
11
28.2
21
11.3823683
0
LINE
8
0
10
28.2
20
11.3823683
11
28.2
21
11.1720402
0
LINE
8
0
10
28.2
20
11.1720402
11
28.2
21
9.72497298
0
LINE
8
0
10
28.2
20
9.72497298
11
28.2
21
5.58914462
0
LINE
8
0
10
28.2
20
5.58914462
11
28.2
21
3.78147346
0
LINE
8
0
10
28.2
20
3.78147346
11
28.2
21
1.29299668
0
LINE
8
0
10
28.2
20
1.29299668
11
28.2
21
-0.129063368
0
LINE
8
0
10
28.2
20
-0.129063368
11
28.3877932
21
-0.623103725
0
LINE
8
0
10
28.3877932
20
-0.623103725
11
28.4551223
21
-0.828031299
0
LINE
8
0
10
28.4551223
20
-0.828031299
11
28.6490796
21
-1.67238103
0
LINE
8
0
10
28.6490796
20
-1.67238103
11
28.7231711
21
-2.12739244
0
LINE
8
0
10
28.7231711
20
-2.12739244
11
28.770631
21
-2.78150036
0
LINE
8
0
10
28.770631
20
-2.78150036
11
28.7669733
21
-3.3161881
0
LINE
8
0
10
28.7669733
20
-3.3161881
11
28.709449
21
-3.97927868
0
LINE
8
0
10
28.709449
20
-3.97927868
11
28.6317139
21
-4.42014054
0
LINE
8
0
10
28.6317139
20
-4.42014054
11
28.4193687
21
-5.29205985
0
LINE
8
0
10
28.4193687
20
-5.29205985
11
28.3594146
21
-5.46763908
0
LINE
8
0
10
28.3594146
20
-5.46763908
11
28.2
21
-5.87305193
0
LINE
8
0
10
28.2
20
-5.87305193
11
28.2
21
-7.2530144
0
LINE
8
0
10
28.2
20
-7.2530144
11
28.2
21
-9.19557783
0
LINE
8
0
10
28.2
20
-9.19557783
11
28.2
21
-10.5573282
0
LINE
8
0
10
28.2
20
-10.5573282
11
28.2
21
-11.4692452
0
LINE
8
0
10
28.2
20
-11.4692452
11
28.2
21
-12.0634374
0
LINE
8
0
10
28.2
20
-12.0634374
11
28.2
21
-12.440522
0
LINE
8
0
10
28.2
20
-12.440522
11
28.2
21
-12.6700363
0
LINE
8
0
10
28.2
20
-12.6700363
11
28.2
21
-12.7983524
0
LINE
8
0
10
28.2
20
-12.7983524
11
28.2
21
-13.5
0
LINE
8
0
10
28.2
20
-13.5
11
28.2105248
21
-13.7142022
0
LINE
8
0
10
28.2105248
20
-13.7142022
11
28.21204
21
-13.74504
0
LINE
8
0
10
28.21204
20
-13.74504
11
28.2304399
21
-13.8461603
0
LINE
8
0
10
28.2304399
20
-13.8461603
11
28.2574894
21
-14.0282544
0
LINE
8
0
10
28.2574894
20
-14.0282544
11
28.3624137
21
-14.3745555
0
LINE
8
0
10
28.3624137
20
-14.3745555
11
28.4286738
21
-14.5345215
0
LINE
8
0
10
28.4286738
20
-14.5345215
11
28.5969323
21
-14.8496943
0
LINE
8
0
10
28.5969323
20
-14.8496943
11
28.7091323
21
-14.9959195
0
LINE
8
0
10
28.7091323
20
-14.9959195
11
28.93223
21
-15.26777
0
LINE
8
0
10
28.93223
20
-15.26777
11
29.1864096
21
-15.4763658
0
LINE
8
0
10
29.1864096
20
-15.4763658
11
29.3567861
21
-15.6070973
0
LINE
8
0
10
29.3567861
20
-15.6070973
11
29.6390788
21
-15.7583068
0
LINE
8
0
10
29.6390788
20
-15.7583068
11
29.8533178
21
-15.8470475
0
LINE
8
0
10
29.8533178
20
-15.8470475
11
30.1514766
21
-15.9377843
0
LINE
8
0
10
30.1514766
20
-15.9377843
11
30.4368345
21
-15.9653519
0
LINE
8
0
10
30.4368345
20
-15.9653519
11
30.5987588
21
-15.990028
0
LINE
8
0
10
30.5987588
20
-15.990028
11
30.7
21
-16
0
LINE
8
0
10
30.7
20
-16
11
32.1241646
21
-16
0
LINE
8
0
10
32.1241646
20
-16
11
32.7
21
-16
0
LINE
8
0
10
32.7
20
-16
11
33.0668027
21
-15.963871
0
LINE
8
0
10
33.0668027
20
-15.963871
11
33.3103287
21
-15.9233726
0
LINE
8
0
10
33.3103287
20
-15.9233726
11
33.4221655
21
-15.889313
0
LINE
8
0
10
33.4221655
20
-15.889313
11
33.8788555
21
-15.7001459
0
LINE
8
0
10
33.8788555
20
-15.7001459
11
33.9854122
21
-15.6430398
0
LINE
8
0
10
33.9854122
20
-15.6430398
11
34.3712064
21
-15.3470162
0
LINE
8
0
10
34.3712064
20
-15.3470162
11
34.46777
21
-15.26777
0
LINE
8
0
10
34.46777
20
-15.26777
11
34.5540046
21
-15.1626908
0
LINE
8
0
10
34.5540046
20
-15.1626908
11
34.8410979
21
-14.7885351
0
LINE
8
0
10
34.8410979
20
-14.7885351
11
34.9064001
21
-14.6661738
0
LINE
8
0
10
34.9064001
20
-14.6661738
11
35.0847681
21
-14.235555
0
LINE
8
0
10
35.0847681
20
-14.235555
11
35.1256308
21
-14.1006445
0
LINE
8
0
10
35.1256308
20
-14.1006445
11
35.1362201
21
-14.0293868
0
LINE
8
0
10
35.1362201
20
-14.0293868
11
35.1397846
21
-13.9573586
0
LINE
8
0
10
35.1397846
20
-13.9573586
11
35.1742431
21
-13.6956331
0
LINE
8
0
10
35.1742431
20
-13.6956331
11
35.1974516
21
-13.5518656
0
LINE
8
0
10
35.1974516
20
-13.5518656
11
35.2
21
-13.5
0
LINE
8
0
10
35.2
20
-13.5
11
35.2
21
-12.3141172
0
LINE
8
0
10
35.2
20
-12.3141172
11
35.2
21
-12.1425039
0
LINE
8
0
10
35.2
20
-12.1425039
11
35.2
21
-11.8368522
0
LINE
8
0
10
35.2
20
-11.8368522
11
35.2
21
-11.3579372
0
LINE
8
0
10
35.2
20
-11.3579372
11
35.2
21
-10.659764
0
LINE
8
0
10
35.2
20
-10.659764
11
35.2
21
-9.69560357
0
LINE
8
0
10
35.2
20
-9.69560357
11
35.2
21
-8.43262739
0
LINE
8
0
10
35.2
20
-8.43262739
11
35.2
21
-8.43262739
0
LINE
8
0
10
72
20
20.3084764
11
72
21
20.2268919
0
LINE
8
0
10
72
20
20.2268919
11
72
21
20.1368918
0
LINE
8
0
10
72
20
20.1368918
11
72
21
20.0617812
0
LINE
8
0
10
72
20
20.0617812
11
72
21
16.6914508
0
LINE
8
0
10
72
20
16.6914508
11
72
21
16.2999458
0
LINE
8
0
10
72
20
16.2999458
11
72
21
13.3054513
0
LINE
8
0
10
72
20
13.3054513
11
72
21
13.3047059
0
LINE
8
0
10
72
20
13.3047059
11
71.9940914
21
13.1342619
0
LINE
8
0
10
71.9940914
20
13.1342619
11
71.9169342
21
11.9004171
0
LINE
8
0
10
71.9169342
20
11.9004171
11
71.905646
21
11.7919439
0
LINE
8
0
10
71.905646
20
11.7919439
11
71.8869763
21
11.6855732
0
LINE
8
0
10
71.8869763
20
11.6855732
11
71.6429192
21
10.392834
0
LINE
8
0
10
71.6429192
20
10.392834
11
71.6337367
21
10.3561938
0
LINE
8
0
10
71.6337367
20
10.3561938
11
71.412784
21
9.68166121
0
LINE
8
0
10
71.412784
20
9.68166121
11
71.2624334
21
9.16549511
0
LINE
8
0
10
71.2624334
20
9.16549511
11
71.0702282
21
8.68149564
0
LINE
8
0
10
71.0702282
20
8.68149564
11
71.0241696
21
8.54793485
0
LINE
8
0
10
71.0241696
20
8.54793485
11
70.702545
21
7.80304607
0
LINE
8
0
10
70.702545
20
7.80304607
11
70.6675378
21
7.70976091
0
LINE
8
0
10
70.6675378
20
7.70976091
11
70.3452074
21
7.01639651
0
LINE
8
0
10
70.3452074
20
7.01639651
11
70.2710151
21
6.82707673
0
LINE
8
0
10
70.2710151
20
6.82707673
11
70.0150169
21
6.29985386
0
LINE
8
0
10
70.0150169
20
6.29985386
11
69.8511634
21
5.88260464
0
LINE
8
0
10
69.8511634
20
5.88260464
11
69.7302865
21
5.63701641
0
LINE
8
0
10
69.7302865
20
5.63701641
11
69.5839834
21
5.24837508
0
LINE
8
0
10
69.5839834
20
5.24837508
11
69.4956515
21
5.01488241
0
LINE
8
0
10
69.4956515
20
5.01488241
11
69.4372693
21
4.79060168
0
LINE
8
0
10
69.4372693
20
4.79060168
11
69.3115289
21
4.42300418
0
LINE
8
0
10
69.3115289
20
4.42300418
11
69.2594449
21
4.15545443
0
LINE
8
0
10
69.2594449
20
4.15545443
11
69.1994061
21
3.85271189
0
LINE
8
0
10
69.1994061
20
3.85271189
11
69.1775692
21
3.40683539
0
LINE
8
0
10
69.1775692
20
3.40683539
11
69.171627
21
3.29642535
0
LINE
8
0
10
69.171627
20
3.29642535
11
69.2168647
21
2.81988085
0
LINE
8
0
10
69.2168647
20
2.81988085
11
69.2233251
21
2.74714451
0
LINE
8
0
10
69.2233251
20
2.74714451
11
69.3233453
21
2.32389565
0
LINE
8
0
10
69.3233453
20
2.32389565
11
69.3521064
21
2.19826603
0
LINE
8
0
10
69.3521064
20
2.19826603
11
69.470056
21
1.88380602
0
LINE
8
0
10
69.470056
20
1.88380602
11
69.5582067
21
1.64327401
0
LINE
8
0
10
69.5582067
20
1.64327401
11
69.6417049
21
1.47974726
0
LINE
8
0
10
69.6417049
20
1.47974726
11
69.8051309
21
1.15347533
0
LINE
8
0
10
69.8051309
20
1.15347533
11
69.8280185
21
1.09973324
0
LINE
8
0
10
69.8280185
20
1.09973324
11
69.8381553
21
1.07538011
0
LINE
8
0
10
69.8381553
20
1.07538011
11
70.0173205
21
0.737390343
0
LINE
8
0
10
70.0173205
20
0.737390343
11
70.1473953
21
0.487008511
0
LINE
8
0
10
70.1473953
20
0.487008511
11
70.2120784
21
0.384219558
0
LINE
8
0
10
70.2120784
20
0.384219558
11
70.2894026
21
0.25907968
0
LINE
8
0
10
70.2894026
20
0.25907968
11
70.4034102
21
0.0404727974
0
LINE
8
0
10
70.4034102
20
0.0404727974
11
70.4907307
21
-0.130477873
0
LINE
8
0
10
70.4907307
20
-0.130477873
11
70.5916169
21
-0.299277354
0
LINE
8
0
10
70.5916169
20
-0.299277354
11
70.6947969
21
-0.475229072
0
LINE
8
0
10
70.6947969
20
-0.475229072
11
70.7737085
21
-0.635073134
0
LINE
8
0
10
70.7737085
20
-0.635073134
11
70.8472553
21
-0.787194731
0
LINE
8
0
10
70.8472553
20
-0.787194731
11
70.9473658
21
-0.968598075
0
LINE
8
0
10
70.9473658
20
-0.968598075
11
71.0350159
21
-1.13052563
0
LINE
8
0
10
71.0350159
20
-1.13052563
11
71.1116377
21
-1.30013608
0
LINE
8
0
10
71.1116377
20
-1.30013608
11
71.198069
21
-1.49543607
0
LINE
8
0
10
71.198069
20
-1.49543607
11
71.2657387
21
-1.63213803
0
LINE
8
0
10
71.2657387
20
-1.63213803
11
71.3162955
21
-1.73624734
0
LINE
8
0
10
71.3162955
20
-1.73624734
11
71.4054524
21
-1.95984359
0
LINE
8
0
10
71.4054524
20
-1.95984359
11
71.5271639
21
-2.27126272
0
LINE
8
0
10
71.5271639
20
-2.27126272
11
71.536897
21
-2.29389238
0
LINE
8
0
10
71.536897
20
-2.29389238
11
71.5430624
21
-2.30849614
0
LINE
8
0
10
71.5430624
20
-2.30849614
11
71.6467774
21
-2.61592397
0
LINE
8
0
10
71.6467774
20
-2.61592397
11
71.7189594
21
-2.83402933
0
LINE
8
0
10
71.7189594
20
-2.83402933
11
71.746676
21
-2.9434834
0
LINE
8
0
10
71.746676
20
-2.9434834
11
71.7944405
21
-3.13584328
0
LINE
8
0
10
71.7944405
20
-3.13584328
11
71.8300875
21
-3.26803994
0
LINE
8
0
10
71.8300875
20
-3.26803994
11
71.8484471
21
-3.33737776
0
LINE
8
0
10
71.8484471
20
-3.33737776
11
71.8944529
21
-3.58344204
0
LINE
8
0
10
71.8944529
20
-3.58344204
11
71.9355515
21
-3.80735447
0
LINE
8
0
10
71.9355515
20
-3.80735447
11
71.9458291
21
-3.90116849
0
LINE
8
0
10
71.9458291
20
-3.90116849
11
71.9690877
21
-4.11745132
0
LINE
8
0
10
71.9690877
20
-4.11745132
11
71.9801766
21
-4.21352313
0
LINE
8
0
10
71.9801766
20
-4.21352313
11
71.984617
21
-4.25266935
0
LINE
8
0
10
71.984617
20
-4.25266935
11
71.9944103
21
-4.51055272
0
LINE
8
0
10
71.9944103
20
-4.51055272
11
72
21
-4.6534621
0
LINE
8
0
10
72
20
-4.6534621
11
72
21
-5.93071037
0
LINE
8
0
10
72
20
-5.93071037
11
72
21
-7.44756181
0
LINE
8
0
10
72
20
-7.44756181
11
72
21
-8.32558064
0
LINE
8
0
10
72
20
-8.32558064
11
72
21
-9.09063752
0
LINE
8
0
10
72
20
-9.09063752
11
72
21
-9.67716
0
LINE
8
0
10
72
20
-9.67716
11
72
21
-10.1120966
0
LINE
8
0
10
72
20
-10.1120966
11
72
21
-10.5739141
0
LINE
8
0
10
72
20
-10.5739141
11
72
21
-10.6579201
0
LINE
8
0
10
72
20
-10.6579201
11
72
21
-13.5
0
LINE
8
0
10
72
20
-13.5
11
71.9639195
21
-13.7740448
0
LINE
8
0
10
71.9639195
20
-13.7740448
11
71.91481
21
-14.14705
0
LINE
8
0
10
71.91481
20
-14.14705
11
71.8090335
21
-14.4024171
0
LINE
8
0
10
71.8090335
20
-14.4024171
11
71.66506
21
-14.75
0
LINE
8
0
10
71.66506
20
-14.75
11
71.4967959
21
-14.9692909
0
LINE
8
0
10
71.4967959
20
-14.9692909
11
71.26777
21
-15.26777
0
LINE
8
0
10
71.26777
20
-15.26777
11
71.0484791
21
-15.4360341
0
LINE
8
0
10
71.0484791
20
-15.4360341
11
70.75
21
-15.66506
0
LINE
8
0
10
70.75
20
-15.66506
11
70.4946329
21
-15.7708365
0
LINE
8
0
10
70.4946329
20
-15.7708365
11
70.14705
21
-15.91481
0
LINE
8
0
10
70.14705
20
-15.91481
11
69.7740448
21
-15.9639195
0
LINE
8
0
10
69.7740448
20
-15.9639195
11
69.5
21
-16
0
LINE
8
0
10
69.5
20
-16
11
67.4038459
21
-16
0
LINE
8
0
10
67.4038459
20
-16
11
58.8
21
-16
0
LINE
8
0
10
58.8
20
-16
11
58.754029
21
-15.9990528
0
LINE
8
0
10
58.754029
20
-15.9990528
11
58.73836
21
-15.99873
0
LINE
8
0
10
58.73836
20
-15.99873
11
58.6925323
21
-15.9959016
0
LINE
8
0
10
58.6925323
20
-15.9959016
11
58.67679
21
-15.99493
0
LINE
8
0
10
58.67679
20
-15.99493
11
58.6611698
21
-15.9933187
0
LINE
8
0
10
58.6611698
20
-15.9933187
11
58.5416752
21
-15.9714575
0
LINE
8
0
10
58.5416752
20
-15.9714575
11
58.41177
21
-15.94889
0
LINE
8
0
10
58.41177
20
-15.94889
11
58.4025449
21
-15.9450688
0
LINE
8
0
10
58.4025449
20
-15.9450688
11
58.05
21
-15.79904
0
LINE
8
0
10
58.05
20
-15.79904
11
58.0420782
21
-15.7929613
0
LINE
8
0
10
58.0420782
20
-15.7929613
11
57.73934
21
-15.56066
0
LINE
8
0
10
57.73934
20
-15.56066
11
57.7332613
21
-15.5527382
0
LINE
8
0
10
57.7332613
20
-15.5527382
11
57.50096
21
-15.25
0
LINE
8
0
10
57.50096
20
-15.25
11
57.4971388
21
-15.2407749
0
LINE
8
0
10
57.4971388
20
-15.2407749
11
57.35111
21
-14.88823
0
LINE
8
0
10
57.35111
20
-14.88823
11
57.3506307
21
-14.8845891
0
LINE
8
0
10
57.3506307
20
-14.8845891
11
57.3276559
21
-14.7513936
0
LINE
8
0
10
57.3276559
20
-14.7513936
11
57.3
21
-14.5
0
LINE
8
0
10
57.3
20
-14.5
11
57.3
21
-14.2460093
0
LINE
8
0
10
57.3
20
-14.2460093
11
57.3
21
-14.17729
0
LINE
8
0
10
57.3
20
-14.17729
11
57.3
21
-10.2464877
0
LINE
8
0
10
57.3
20
-10.2464877
11
57.3
21
-10.0832297
0
LINE
8
0
10
57.3
20
-10.0832297
11
57.3
21
-9.63566862
0
LINE
8
0
10
57.3
20
-9.63566862
11
57.3
21
-9.46414777
0
LINE
8
0
10
57.3
20
-9.46414777
11
57.3
21
-8.84453453
0
LINE
8
0
10
57.3
20
-8.84453453
11
57.3
21
-7.99037652
0
LINE
8
0
10
57.3
20
-7.99037652
11
57.3
21
-6.85107459
0
LINE
8
0
10
57.3
20
-6.85107459
11
57.3
21
-5.38243921
0
LINE
8
0
10
57.3
20
-5.38243921
11
57.3
21
-3.56817374
0
LINE
8
0
10
57.3
20
-3.56817374
11
57.3
21
-1.45458652
0
LINE
8
0
10
57.3
20
-1.45458652
11
57.3
21
-0.163234012
0
LINE
8
0
10
57.3
20
-0.163234012
11
57.4594146
21
0.242178816
0
LINE
8
0
10
57.4594146
20
0.242178816
11
57.5193687
21
0.417758075
0
LINE
8
0
10
57.5193687
20
0.417758075
11
57.7317139
21
1.28967732
0
LINE
8
0
10
57.7317139
20
1.28967732
11
57.809449
21
1.73053932
0
LINE
8
0
10
57.809449
20
1.73053932
11
57.8669733
21
2.3936299
0
LINE
8
0
10
57.8669733
20
2.3936299
11
57.870631
21
2.92831764
0
LINE
8
0
10
57.870631
20
2.92831764
11
57.8231711
21
3.58242499
0
LINE
8
0
10
57.8231711
20
3.58242499
11
57.7490796
21
4.03743634
0
LINE
8
0
10
57.7490796
20
4.03743634
11
57.5551223
21
4.88178678
0
LINE
8
0
10
57.5551223
20
4.88178678
11
57.4877932
21
5.08671436
0
LINE
8
0
10
57.4877932
20
5.08671436
11
57.3
21
5.58075443
0
LINE
8
0
10
57.3
20
5.58075443
11
57.3
21
6.30370225
0
LINE
8
0
10
57.3
20
6.30370225
11
57.3
21
7.56803077
0
LINE
8
0
10
57.3
20
7.56803077
11
57.3
21
8.54675494
0
LINE
8
0
10
57.3
20
8.54675494
11
57.3
21
10
0
LINE
8
0
10
57.3
20
10
11
61.8950978
21
10
0
LINE
8
0
10
61.8950978
20
10
11
62
21
10
0
LINE
8
0
10
62
20
10
11
62
21
10.1817041
0
LINE
8
0
10
62
20
10.1817041
11
62
21
10.2001877
0
LINE
8
0
10
62
20
10.2001877
11
62
21
10.2217201
0
LINE
8
0
10
62
20
10.2217201
11
62
21
10.2444068
0
LINE
8
0
10
62
20
10.2444068
11
62
21
10.2653984
0
LINE
8
0
10
62
20
10.2653984
11
62
21
10.2814714
0
LINE
8
0
10
62
20
10.2814714
11
62
21
22.0892038
0
LINE
8
0
10
62
20
22.0892038
11
62
21
22.1052921
0
LINE
8
0
10
62
20
22.1052921
11
62
21
22.1271484
0
LINE
8
0
10
62
20
22.1271484
11
62
21
22.4
0
LINE
8
0
10
62
20
22.4
11
62.1194099
21
22.5075172
0
LINE
8
0
10
62.1194099
20
22.5075172
11
63.0715738
21
22.5075172
0
LINE
8
0
10
63.0715738
20
22.5075172
11
63.2194099
21
22.5075172
0
LINE
8
0
10
63.2194099
20
22.5075172
11
63.9334159
21
23.1504111
0
LINE
8
0
10
63.9334159
20
23.1504111
11
63.9542108
21
23.1691343
0
LINE
8
0
10
63.9542108
20
23.1691343
11
63.9732699
21
23.1862962
0
LINE
8
0
10
63.9732699
20
23.1862962
11
63.9814691
21
23.1936785
0
LINE
8
0
10
63.9814691
20
23.1936785
11
63.98849
21
23.2
0
LINE
8
0
10
63.98849
20
23.2
11
64.2644929
21
23.2
0
LINE
8
0
10
64.2644929
20
23.2
11
64.9
21
23.2
0
LINE
8
0
10
64.9
20
23.2
11
64.9
21
24.0641622
0
LINE
8
0
10
64.9
20
24.0641622
11
64.9
21
24.8824854
0
LINE
8
0
10
64.9
20
24.8824854
11
64.9
21
26.3638212
0
LINE
8
0
10
64.9
20
26.3638212
11
64.9
21
27.1842208
0
LINE
8
0
10
64.9
20
27.1842208
11
64.9106435
21
27.287604
0
LINE
8
0
10
64.9106435
20
27.287604
11
64.91704
21
27.3497312
0
LINE
8
0
10
64.91704
20
27.3497312
11
64.9446115
21
27.4348652
0
LINE
8
0
10
64.9446115
20
27.4348652
11
64.96699
21
27.5039646
0
LINE
8
0
10
64.96699
20
27.5039646
11
65.0057358
21
27.5685463
0
LINE
8
0
10
65.0057358
20
27.5685463
11
65.04645
21
27.6364096
0
LINE
8
0
10
65.04645
20
27.6364096
11
65.0914761
21
27.6806005
0
LINE
8
0
10
65.0914761
20
27.6806005
11
65.15
21
27.7380362
0
LINE
8
0
10
65.15
20
27.7380362
11
65.197825
21
27.7633722
0
LINE
8
0
10
65.197825
20
27.7633722
11
65.27059
21
27.8019246
0
LINE
8
0
10
65.27059
20
27.8019246
11
65.3572103
21
27.8202122
0
LINE
8
0
10
65.3572103
20
27.8202122
11
65.4
21
27.8262283
0
LINE
8
0
10
65.4
20
27.8262283
11
70.6921317
21
27.8351544
0
LINE
8
0
10
70.6921317
20
27.8351544
11
72
21
27.8336665
0
LINE
8
0
10
72
20
27.8336665
11
72
21
21.7602767
0
LINE
8
0
10
72
20
21.7602767
11
72
21
21.1117294
0
LINE
8
0
10
72
20
21.1117294
11
72
21
20.887259
0
LINE
8
0
10
72
20
20.887259
11
72
21
20.4846511
0
LINE
8
0
10
72
20
20.4846511
11
72
21
20.3084764
0
LINE
8
0
10
72
20
20.3084764
11
72
21
20.3084764
0
ENDSEC
0
EOF
