0
SECTION
2
ENTITIES
0
LINE
8
0
10
16
20
44.4880086
11
16
21
45.2
0
LINE
8
0
10
16
20
45.2
11
16
21
47.7531948
0
LINE
8
0
10
16
20
47.7531948
11
16
21
50.2
0
LINE
8
0
10
16
20
50.2
11
12.3771483
21
50.2
0
LINE
8
0
10
12.3771483
20
50.2
11
12.0807162
21
50.2
0
LINE
8
0
10
12.0807162
20
50.2
11
11.7422939
21
50.2
0
LINE
8
0
10
11.7422939
20
50.2
11
11.3914244
21
50.2
0
LINE
8
0
10
11.3914244
20
50.2
11
11.3528123
21
50.2
0
LINE
8
0
10
11.3528123
20
50.2
11
11.3528123
21
49.709367
0
LINE
8
0
10
11.3528123
20
49.709367
11
11.3528123
21
46.2
0
LINE
8
0
10
11.3528123
20
46.2
11
11.3528123
21
45.709367
0
LINE
8
0
10
11.3528123
20
45.709367
11
11.3528123
21
42.2
0
LINE
8
0
10
11.3528123
20
42.2
11
11.3528123
21
41.709367
0
LINE
8
0
10
11.3528123
20
41.709367
11
11.3528123
21
38.2
0
LINE
8
0
10
11.3528123
20
38.2
11
11.19411
21
38.2
0
LINE
8
0
10
11.19411
20
38.2
11
11.1854559
21
38.2
0
LINE
8
0
10
11.1854559
20
38.2
11
11
21
38.2
0
LINE
8
0
10
11
20
38.2
11
10.9879816
21
38.2
0
LINE
8
0
10
10.9879816
20
38.2
11
10.80589
21
38.2
0
LINE
8
0
10
10.80589
20
38.2
11
10.7972355
21
38.2
0
LINE
8
0
10
10.7972355
20
38.2
11
10.6471877
21
38.2
0
LINE
8
0
10
10.6471877
20
38.2
11
10.6471877
21
38.690633
0
LINE
8
0
10
10.6471877
20
38.690633
11
10.6471877
21
42.2
0
LINE
8
0
10
10.6471877
20
42.2
11
10.6471877
21
42.690633
0
LINE
8
0
10
10.6471877
20
42.690633
11
10.6471877
21
46.2
0
LINE
8
0
10
10.6471877
20
46.2
11
10.6471877
21
46.690633
0
LINE
8
0
10
10.6471877
20
46.690633
11
10.6471877
21
50.2
0
LINE
8
0
10
10.6471877
20
50.2
11
10.6028936
21
50.2
0
LINE
8
0
10
10.6028936
20
50.2
11
10.1818297
21
50.2
0
LINE
8
0
10
10.1818297
20
50.2
11
9.76070036
21
50.2
0
LINE
8
0
10
9.76070036
20
50.2
11
9.37859526
21
50.2
0
LINE
8
0
10
9.37859526
20
50.2
11
4.4
21
50.2
0
LINE
8
0
10
4.4
20
50.2
11
4.13470199
21
50.165072
0
LINE
8
0
10
4.13470199
20
50.165072
11
3.882362
21
50.13185
0
LINE
8
0
10
3.882362
20
50.13185
11
3.63514352
21
50.0294492
0
LINE
8
0
10
3.63514352
20
50.0294492
11
3.4
21
49.93205
0
LINE
8
0
10
3.4
20
49.93205
11
3.1877085
21
49.7691518
0
LINE
8
0
10
3.1877085
20
49.7691518
11
2.985786
21
49.61421
0
LINE
8
0
10
2.985786
20
49.61421
11
2.8228893
21
49.4019205
0
LINE
8
0
10
2.8228893
20
49.4019205
11
2.667949
21
49.2
0
LINE
8
0
10
2.667949
20
49.2
11
2.56554769
21
48.9527825
0
LINE
8
0
10
2.56554769
20
48.9527825
11
2.468148
21
48.71764
0
LINE
8
0
10
2.468148
20
48.71764
11
2.43322103
21
48.452341
0
LINE
8
0
10
2.43322103
20
48.452341
11
2.4
21
48.2
0
LINE
8
0
10
2.4
20
48.2
11
2.4
21
46.7375495
0
LINE
8
0
10
2.4
20
46.7375495
11
2.4
21
44.4346755
0
LINE
8
0
10
2.4
20
44.4346755
11
2.4
21
43.7627248
0
LINE
8
0
10
2.4
20
43.7627248
11
2.4
21
43.7049901
0
LINE
8
0
10
2.4
20
43.7049901
11
2.4
21
43.646787
0
LINE
8
0
10
2.4
20
43.646787
11
2.4
21
43.0034063
0
LINE
8
0
10
2.4
20
43.0034063
11
2.4
21
42.9422324
0
LINE
8
0
10
2.4
20
42.9422324
11
2.4
21
41.9384789
0
LINE
8
0
10
2.4
20
41.9384789
11
2.4
21
41.3140109
0
LINE
8
0
10
2.4
20
41.3140109
11
2.4
21
40.796269
0
LINE
8
0
10
2.4
20
40.796269
11
2.4
21
40.4063813
0
LINE
8
0
10
2.4
20
40.4063813
11
2.4
21
37.4760622
0
LINE
8
0
10
2.4
20
37.4760622
11
2.4
21
37.044958
0
LINE
8
0
10
2.4
20
37.044958
11
2.4
21
36.7364758
0
LINE
8
0
10
2.4
20
36.7364758
11
2.4
21
32.5473175
0
LINE
8
0
10
2.4
20
32.5473175
11
2.4
21
28.5435891
0
LINE
8
0
10
2.4
20
28.5435891
11
2.4
21
25.2247187
0
LINE
8
0
10
2.4
20
25.2247187
11
2.4
21
18.8505129
0
LINE
8
0
10
2.4
20
18.8505129
11
11.7910309
21
18.8505177
0
LINE
8
0
10
11.7910309
20
18.8505177
11
13.8
21
18.8505177
0
LINE
8
0
10
13.8
20
18.8505177
11
14.1229773
21
18.8752063
0
LINE
8
0
10
14.1229773
20
18.8752063
11
14.19207
21
18.8804877
0
LINE
8
0
10
14.19207
20
18.8804877
11
14.5119335
21
18.9542979
0
LINE
8
0
10
14.5119335
20
18.9542979
11
14.58036
21
18.9700895
0
LINE
8
0
10
14.58036
20
18.9700895
11
14.8940369
21
19.0923294
0
LINE
8
0
10
14.8940369
20
19.0923294
11
14.96114
21
19.1184777
0
LINE
8
0
10
14.96114
20
19.1184777
11
15.2655989
21
19.2879529
0
LINE
8
0
10
15.2655989
20
19.2879529
11
15.33073
21
19.3242077
0
LINE
8
0
10
15.33073
20
19.3242077
11
15.6230547
21
19.5392953
0
LINE
8
0
10
15.6230547
20
19.5392953
11
15.68559
21
19.5853095
0
LINE
8
0
10
15.68559
20
19.5853095
11
15.9629467
21
19.8439418
0
LINE
8
0
10
15.9629467
20
19.8439418
11
16.02228
21
19.8992677
0
LINE
8
0
10
16.02228
20
19.8992677
11
16.2820079
21
20.1989405
0
LINE
8
0
10
16.2820079
20
20.1989405
11
16.33757
21
20.2630495
0
LINE
8
0
10
16.33757
20
20.2630495
11
16.5771731
21
20.600896
0
LINE
8
0
10
16.5771731
20
20.600896
11
16.62843
21
20.6731677
0
LINE
8
0
10
16.62843
20
20.6731677
11
17.0382167
21
21.449979
0
LINE
8
0
10
17.0382167
20
21.449979
11
17.12588
21
21.6161577
0
LINE
8
0
10
17.12588
20
21.6161577
11
17.4303801
21
22.5024239
0
LINE
8
0
10
17.4303801
20
22.5024239
11
17.49552
21
22.6920177
0
LINE
8
0
10
17.49552
20
22.6920177
11
17.6830276
21
23.6536675
0
LINE
8
0
10
17.6830276
20
23.6536675
11
17.72314
21
23.8593877
0
LINE
8
0
10
17.72314
20
23.8593877
11
17.7864553
21
24.8594749
0
LINE
8
0
10
17.7864553
20
24.8594749
11
17.8
21
25.0734177
0
LINE
8
0
10
17.8
20
25.0734177
11
17.8
21
27.2509589
0
LINE
8
0
10
17.8
20
27.2509589
11
17.8
21
27.9543067
0
LINE
8
0
10
17.8
20
27.9543067
11
17.8
21
28.5483162
0
LINE
8
0
10
17.8
20
28.5483162
11
17.8
21
29.501699
0
LINE
8
0
10
17.8
20
29.501699
11
17.8
21
31.1207459
0
LINE
8
0
10
17.8
20
31.1207459
11
17.8
21
34.1464587
0
LINE
8
0
10
17.8
20
34.1464587
11
17.8
21
38.6250357
0
LINE
8
0
10
17.8
20
38.6250357
11
17.3824695
21
38.6250357
0
LINE
8
0
10
17.3824695
20
38.6250357
11
16
21
38.6250357
0
LINE
8
0
10
16
20
38.6250357
11
16
21
38.952136
0
LINE
8
0
10
16
20
38.952136
11
16
21
39.0006512
0
LINE
8
0
10
16
20
39.0006512
11
16
21
40.314741
0
LINE
8
0
10
16
20
40.314741
11
16
21
40.534438
0
LINE
8
0
10
16
20
40.534438
11
16
21
41.5932241
0
LINE
8
0
10
16
20
41.5932241
11
16
21
41.9412709
0
LINE
8
0
10
16
20
41.9412709
11
16
21
42.8196564
0
LINE
8
0
10
16
20
42.8196564
11
16
21
43.2517659
0
LINE
8
0
10
16
20
43.2517659
11
16
21
44.0164833
0
LINE
8
0
10
16
20
44.0164833
11
16
21
44.4880086
0
LINE
8
0
10
16
20
44.4880086
11
16
21
44.4880086
0
LINE
8
0
10
35.2
20
-12.4182538
11
35.2
21
-12.2617105
0
LINE
8
0
10
35.2
20
-12.2617105
11
35.2
21
-11.9828991
0
LINE
8
0
10
35.2
20
-11.9828991
11
35.2
21
-11.5460394
0
LINE
8
0
10
35.2
20
-11.5460394
11
35.2
21
-10.9091752
0
LINE
8
0
10
35.2
20
-10.9091752
11
35.2
21
-10.0296812
0
LINE
8
0
10
35.2
20
-10.0296812
11
35.2
21
-8.87761145
0
LINE
8
0
10
35.2
20
-8.87761145
11
35.2
21
-7.45985776
0
LINE
8
0
10
35.2
20
-7.45985776
11
35.2
21
-5.85150086
0
LINE
8
0
10
35.2
20
-5.85150086
11
35.2
21
-4.32843443
0
LINE
8
0
10
35.2
20
-4.32843443
11
35.1830634
21
-4.25889033
0
LINE
8
0
10
35.1830634
20
-4.25889033
11
35.1800138
21
-4.24159484
0
LINE
8
0
10
35.1800138
20
-4.24159484
11
35.0817163
21
-3.1085054
0
LINE
8
0
10
35.0817163
20
-3.1085054
11
35.0809532
21
-2.99695718
0
LINE
8
0
10
35.0809532
20
-2.99695718
11
35.1624665
21
-1.87351451
0
LINE
8
0
10
35.1624665
20
-1.87351451
11
35.167782
21
-1.8408709
0
LINE
8
0
10
35.167782
20
-1.8408709
11
35.2
21
-1.70061683
0
LINE
8
0
10
35.2
20
-1.70061683
11
35.2
21
-0.178717341
0
LINE
8
0
10
35.2
20
-0.178717341
11
35.2
21
1.63670377
0
LINE
8
0
10
35.2
20
1.63670377
11
35.2
21
3.29833384
0
LINE
8
0
10
35.2
20
3.29833384
11
35.2
21
4.69643883
0
LINE
8
0
10
35.2
20
4.69643883
11
35.2
21
9.22936905
0
LINE
8
0
10
35.2
20
9.22936905
11
35.2
21
10
0
LINE
8
0
10
35.2
20
10
11
31.1658448
21
10
0
LINE
8
0
10
31.1658448
20
10
11
30.2
21
10
0
LINE
8
0
10
30.2
20
10
11
30.2
21
11.3820889
0
LINE
8
0
10
30.2
20
11.3820889
11
30.2
21
11.53281
0
LINE
8
0
10
30.2
20
11.53281
11
30.2
21
11.6743666
0
LINE
8
0
10
30.2
20
11.6743666
11
30.2
21
11.69043
0
LINE
8
0
10
30.2
20
11.69043
11
30.2
21
11.8763452
0
LINE
8
0
10
30.2
20
11.8763452
11
30.2
21
11.89597
0
LINE
8
0
10
30.2
20
11.89597
11
30.2
21
12.1136673
0
LINE
8
0
10
30.2
20
12.1136673
11
30.2
21
12.13557
0
LINE
8
0
10
30.2
20
12.13557
11
30.2
21
12.3698066
0
LINE
8
0
10
30.2
20
12.3698066
11
30.2
21
12.39302
0
LINE
8
0
10
30.2
20
12.39302
11
30.2
21
12.6272347
0
LINE
8
0
10
30.2
20
12.6272347
11
30.2
21
12.65094
0
LINE
8
0
10
30.2
20
12.65094
11
30.2
21
14.7939363
0
LINE
8
0
10
30.2
20
14.7939363
11
30.2
21
15
0
LINE
8
0
10
30.2
20
15
11
28.3762254
21
15
0
LINE
8
0
10
28.3762254
20
15
11
28.2
21
15
0
LINE
8
0
10
28.2
20
15
11
28.2
21
13.7673553
0
LINE
8
0
10
28.2
20
13.7673553
11
28.2
21
11.6002441
0
LINE
8
0
10
28.2
20
11.6002441
11
28.2
21
11.3763465
0
LINE
8
0
10
28.2
20
11.3763465
11
28.2
21
9.83592008
0
LINE
8
0
10
28.2
20
9.83592008
11
28.2
21
6.49806838
0
LINE
8
0
10
28.2
20
6.49806838
11
28.2
21
5.03917364
0
LINE
8
0
10
28.2
20
5.03917364
11
28.2
21
3.03082956
0
LINE
8
0
10
28.2
20
3.03082956
11
28.2
21
0.519013212
0
LINE
8
0
10
28.2
20
0.519013212
11
28.2
21
-1.70061683
0
LINE
8
0
10
28.2
20
-1.70061683
11
28.232218
21
-1.8408709
0
LINE
8
0
10
28.232218
20
-1.8408709
11
28.2375335
21
-1.87351451
0
LINE
8
0
10
28.2375335
20
-1.87351451
11
28.3190468
21
-2.99695718
0
LINE
8
0
10
28.3190468
20
-2.99695718
11
28.3182837
21
-3.1085054
0
LINE
8
0
10
28.3182837
20
-3.1085054
11
28.2199862
21
-4.24159484
0
LINE
8
0
10
28.2199862
20
-4.24159484
11
28.2169366
21
-4.25889033
0
LINE
8
0
10
28.2169366
20
-4.25889033
11
28.2
21
-4.32843443
0
LINE
8
0
10
28.2
20
-4.32843443
11
28.2
21
-6.41259182
0
LINE
8
0
10
28.2
20
-6.41259182
11
28.2
21
-8.45832282
0
LINE
8
0
10
28.2
20
-8.45832282
11
28.2
21
-10.0260834
0
LINE
8
0
10
28.2
20
-10.0260834
11
28.2
21
-11.1250944
0
LINE
8
0
10
28.2
20
-11.1250944
11
28.2
21
-11.8610639
0
LINE
8
0
10
28.2
20
-11.8610639
11
28.2
21
-12.3406113
0
LINE
8
0
10
28.2
20
-12.3406113
11
28.2
21
-12.6449402
0
LINE
8
0
10
28.2
20
-12.6449402
11
28.2
21
-12.8301715
0
LINE
8
0
10
28.2
20
-12.8301715
11
28.2
21
-12.93373
0
LINE
8
0
10
28.2
20
-12.93373
11
28.2
21
-13.5
0
LINE
8
0
10
28.2
20
-13.5
11
28.2108157
21
-13.7201222
0
LINE
8
0
10
28.2108157
20
-13.7201222
11
28.21204
21
-13.74504
0
LINE
8
0
10
28.21204
20
-13.74504
11
28.2269077
21
-13.8267481
0
LINE
8
0
10
28.2269077
20
-13.8267481
11
28.2557023
21
-14.0205902
0
LINE
8
0
10
28.2557023
20
-14.0205902
11
28.3673959
21
-14.3892332
0
LINE
8
0
10
28.3673959
20
-14.3892332
11
28.4218179
21
-14.5206196
0
LINE
8
0
10
28.4218179
20
-14.5206196
11
28.6009318
21
-14.8561262
0
LINE
8
0
10
28.6009318
20
-14.8561262
11
28.6947389
21
-14.9783808
0
LINE
8
0
10
28.6947389
20
-14.9783808
11
28.93223
21
-15.26777
0
LINE
8
0
10
28.93223
20
-15.26777
11
29.2028083
21
-15.4898236
0
LINE
8
0
10
29.2028083
20
-15.4898236
11
29.3507723
21
-15.6033578
0
LINE
8
0
10
29.3507723
20
-15.6033578
11
29.6512774
21
-15.7643227
0
LINE
8
0
10
29.6512774
20
-15.7643227
11
29.8404383
21
-15.8426757
0
LINE
8
0
10
29.8404383
20
-15.8426757
11
30.1578331
21
-15.9392665
0
LINE
8
0
10
30.1578331
20
-15.9392665
11
30.4616013
21
-15.9686126
0
LINE
8
0
10
30.4616013
20
-15.9686126
11
30.6082867
21
-15.9909665
0
LINE
8
0
10
30.6082867
20
-15.9909665
11
30.7
21
-16
0
LINE
8
0
10
30.7
20
-16
11
32.1583782
21
-16
0
LINE
8
0
10
32.1583782
20
-16
11
32.7
21
-16
0
LINE
8
0
10
32.7
20
-16
11
33.0744715
21
-15.9631156
0
LINE
8
0
10
33.0744715
20
-15.9631156
11
33.302554
21
-15.9251855
0
LINE
8
0
10
33.302554
20
-15.9251855
11
33.4380692
21
-15.8839147
0
LINE
8
0
10
33.4380692
20
-15.8839147
11
33.8637924
21
-15.7075744
0
LINE
8
0
10
33.8637924
20
-15.7075744
11
33.9929099
21
-15.6383776
0
LINE
8
0
10
33.9929099
20
-15.6383776
11
34.3507616
21
-15.3637945
0
LINE
8
0
10
34.3507616
20
-15.3637945
11
34.46777
21
-15.26777
0
LINE
8
0
10
34.46777
20
-15.26777
11
34.5722626
21
-15.140443
0
LINE
8
0
10
34.5722626
20
-15.140443
11
34.8360246
21
-14.796694
0
LINE
8
0
10
34.8360246
20
-14.796694
11
34.9151528
21
-14.6484257
0
LINE
8
0
10
34.9151528
20
-14.6484257
11
35.0784076
21
-14.2542937
0
LINE
8
0
10
35.0784076
20
-14.2542937
11
35.1279218
21
-14.0908193
0
LINE
8
0
10
35.1279218
20
-14.0908193
11
35.1407531
21
-14.0044746
0
LINE
8
0
10
35.1407531
20
-14.0044746
11
35.1450723
21
-13.9171963
0
LINE
8
0
10
35.1450723
20
-13.9171963
11
35.1765049
21
-13.6784539
0
LINE
8
0
10
35.1765049
20
-13.6784539
11
35.1976754
21
-13.5473111
0
LINE
8
0
10
35.1976754
20
-13.5473111
11
35.2
21
-13.5
0
LINE
8
0
10
35.2
20
-13.5
11
35.2
21
-12.4182538
0
LINE
8
0
10
35.2
20
-12.4182538
11
35.2
21
-12.4182538
0
LINE
8
0
10
72
20
12.835856
11
72
21
12.8364124
0
LINE
8
0
10
72
20
12.8364124
11
72
21
16.0241978
0
LINE
8
0
10
72
20
16.0241978
11
72
21
16.440974
0
LINE
8
0
10
72
20
16.440974
11
72
21
18.6903077
0
LINE
8
0
10
72
20
18.6903077
11
72
21
18.9673641
0
LINE
8
0
10
72
20
18.9673641
11
72
21
19.2993422
0
LINE
8
0
10
72
20
19.2993422
11
72
21
19.6002783
0
LINE
8
0
10
72
20
19.6002783
11
72
21
20.2501237
0
LINE
8
0
10
72
20
20.2501237
11
72
21
21.7352003
0
LINE
8
0
10
72
20
21.7352003
11
72
21
22.5631915
0
LINE
8
0
10
72
20
22.5631915
11
72
21
24.9554507
0
LINE
8
0
10
72
20
24.9554507
11
72
21
27.4515741
0
LINE
8
0
10
72
20
27.4515741
11
67.1757413
21
27.4570626
0
LINE
8
0
10
67.1757413
20
27.4570626
11
65.4
21
27.4540674
0
LINE
8
0
10
65.4
20
27.4540674
11
65.2950366
21
27.4393099
0
LINE
8
0
10
65.2950366
20
27.4393099
11
65.27059
21
27.4341487
0
LINE
8
0
10
65.27059
20
27.4341487
11
65.2500538
21
27.4232681
0
LINE
8
0
10
65.2500538
20
27.4232681
11
65.15
21
27.3702631
0
LINE
8
0
10
65.15
20
27.3702631
11
65.1357954
21
27.3563227
0
LINE
8
0
10
65.1357954
20
27.3563227
11
65.04645
21
27.2686345
0
LINE
8
0
10
65.04645
20
27.2686345
11
65.0395273
21
27.2570956
0
LINE
8
0
10
65.0395273
20
27.2570956
11
64.96699
21
27.13619
0
LINE
8
0
10
64.96699
20
27.13619
11
64.9658402
21
27.1326397
0
LINE
8
0
10
64.9658402
20
27.1326397
11
64.951574
21
27.088589
0
LINE
8
0
10
64.951574
20
27.088589
11
64.9198436
21
26.9800301
0
LINE
8
0
10
64.9198436
20
26.9800301
11
64.91704
21
26.970438
0
LINE
8
0
10
64.91704
20
26.970438
11
64.9024503
21
26.8134173
0
LINE
8
0
10
64.9024503
20
26.8134173
11
64.9
21
26.7870471
0
LINE
8
0
10
64.9
20
26.7870471
11
64.9
21
25.3188859
0
LINE
8
0
10
64.9
20
25.3188859
11
64.9
21
24.2883074
0
LINE
8
0
10
64.9
20
24.2883074
11
64.9
21
23.2
0
LINE
8
0
10
64.9
20
23.2
11
64.099656
21
23.2
0
LINE
8
0
10
64.099656
20
23.2
11
63.98849
21
23.2
0
LINE
8
0
10
63.98849
20
23.2
11
63.9856622
21
23.1974539
0
LINE
8
0
10
63.9856622
20
23.1974539
11
63.9823598
21
23.1944805
0
LINE
8
0
10
63.9823598
20
23.1944805
11
63.9746833
21
23.1875682
0
LINE
8
0
10
63.9746833
20
23.1875682
11
63.9663077
21
23.180027
0
LINE
8
0
10
63.9663077
20
23.180027
11
63.6787267
21
22.9210879
0
LINE
8
0
10
63.6787267
20
22.9210879
11
62.9622309
21
22.9210879
0
LINE
8
0
10
62.9622309
20
22.9210879
11
62.5787267
21
22.9210879
0
LINE
8
0
10
62.5787267
20
22.9210879
11
62
21
22.4
0
LINE
8
0
10
62
20
22.4
11
62
21
21.0776101
0
LINE
8
0
10
62
20
21.0776101
11
62
21
20.9716822
0
LINE
8
0
10
62
20
20.9716822
11
62
21
20.8937092
0
LINE
8
0
10
62
20
20.8937092
11
62
21
11.3641661
0
LINE
8
0
10
62
20
11.3641661
11
62
21
11.2862676
0
LINE
8
0
10
62
20
11.2862676
11
62
21
11.1845309
0
LINE
8
0
10
62
20
11.1845309
11
62
21
11.0745786
0
LINE
8
0
10
62
20
11.0745786
11
62
21
10.9702206
0
LINE
8
0
10
62
20
10.9702206
11
62
21
10.8806389
0
LINE
8
0
10
62
20
10.8806389
11
62
21
10
0
LINE
8
0
10
62
20
10
11
61.4915859
21
10
0
LINE
8
0
10
61.4915859
20
10
11
57.3
21
10
0
LINE
8
0
10
57.3
20
10
11
57.3
21
8.67436957
0
LINE
8
0
10
57.3
20
8.67436957
11
57.3
21
7.78159066
0
LINE
8
0
10
57.3
20
7.78159066
11
57.3
21
6.62828734
0
LINE
8
0
10
57.3
20
6.62828734
11
57.3
21
5.26208149
0
LINE
8
0
10
57.3
20
5.26208149
11
57.3
21
4.00920031
0
LINE
8
0
10
57.3
20
4.00920031
11
57.332218
21
3.86894613
0
LINE
8
0
10
57.332218
20
3.86894613
11
57.3375335
21
3.83630252
0
LINE
8
0
10
57.3375335
20
3.83630252
11
57.4190468
21
2.71286082
0
LINE
8
0
10
57.4190468
20
2.71286082
11
57.4182837
21
2.6013126
0
LINE
8
0
10
57.4182837
20
2.6013126
11
57.3199862
21
1.46822316
0
LINE
8
0
10
57.3199862
20
1.46822316
11
57.3169366
21
1.45092766
0
LINE
8
0
10
57.3169366
20
1.45092766
11
57.3
21
1.38138357
0
LINE
8
0
10
57.3
20
1.38138357
11
57.3
21
-0.446410871
0
LINE
8
0
10
57.3
20
-0.446410871
11
57.3
21
-2.51233725
0
LINE
8
0
10
57.3
20
-2.51233725
11
57.3
21
-4.44032283
0
LINE
8
0
10
57.3
20
-4.44032283
11
57.3
21
-6.09527118
0
LINE
8
0
10
57.3
20
-6.09527118
11
57.3
21
-7.43494045
0
LINE
8
0
10
57.3
20
-7.43494045
11
57.3
21
-8.47419621
0
LINE
8
0
10
57.3
20
-8.47419621
11
57.3
21
-9.25334756
0
LINE
8
0
10
57.3
20
-9.25334756
11
57.3
21
-9.81855035
0
LINE
8
0
10
57.3
20
-9.81855035
11
57.3
21
-10.0033786
0
LINE
8
0
10
57.3
20
-10.0033786
11
57.3
21
-10.4118135
0
LINE
8
0
10
57.3
20
-10.4118135
11
57.3
21
-10.5856042
0
LINE
8
0
10
57.3
20
-10.5856042
11
57.3
21
-14.17729
0
LINE
8
0
10
57.3
20
-14.17729
11
57.3
21
-14.2400808
0
LINE
8
0
10
57.3
20
-14.2400808
11
57.3
21
-14.5
0
LINE
8
0
10
57.3
20
-14.5
11
57.3283015
21
-14.7572615
0
LINE
8
0
10
57.3283015
20
-14.7572615
11
57.3503262
21
-14.8849493
0
LINE
8
0
10
57.3503262
20
-14.8849493
11
57.3551235
21
-14.8994332
0
LINE
8
0
10
57.3551235
20
-14.8994332
11
57.4977195
21
-15.2436904
0
LINE
8
0
10
57.4977195
20
-15.2436904
11
57.5045646
21
-15.2555917
0
LINE
8
0
10
57.5045646
20
-15.2555917
11
57.7318873
21
-15.5518417
0
LINE
8
0
10
57.7318873
20
-15.5518417
11
57.7397104
21
-15.561021
0
LINE
8
0
10
57.7397104
20
-15.561021
11
58.0365585
21
-15.7888027
0
LINE
8
0
10
58.0365585
20
-15.7888027
11
58.0543875
21
-15.80134
0
LINE
8
0
10
58.0543875
20
-15.80134
11
58.4014306
21
-15.9450899
0
LINE
8
0
10
58.4014306
20
-15.9450899
11
58.4193772
21
-15.9503736
0
LINE
8
0
10
58.4193772
20
-15.9503736
11
58.4217935
21
-15.9506313
0
LINE
8
0
10
58.4217935
20
-15.9506313
11
58.5500562
21
-15.9729135
0
LINE
8
0
10
58.5500562
20
-15.9729135
11
58.6621387
21
-15.9934186
0
LINE
8
0
10
58.6621387
20
-15.9934186
11
58.67679
21
-15.99493
0
LINE
8
0
10
58.67679
20
-15.99493
11
58.6915558
21
-15.9958413
0
LINE
8
0
10
58.6915558
20
-15.9958413
11
58.73836
21
-15.99873
0
LINE
8
0
10
58.73836
20
-15.99873
11
58.7530455
21
-15.9990326
0
LINE
8
0
10
58.7530455
20
-15.9990326
11
58.8
21
-16
0
LINE
8
0
10
58.8
20
-16
11
67.5879167
21
-16
0
LINE
8
0
10
67.5879167
20
-16
11
69.5
21
-16
0
LINE
8
0
10
69.5
20
-16
11
69.74998
21
-15.9670879
0
LINE
8
0
10
69.74998
20
-15.9670879
11
70.14705
21
-15.91481
0
LINE
8
0
10
70.14705
20
-15.91481
11
70.5170576
21
-15.7615479
0
LINE
8
0
10
70.5170576
20
-15.7615479
11
70.75
21
-15.66506
0
LINE
8
0
10
70.75
20
-15.66506
11
71.0677358
21
-15.4212582
0
LINE
8
0
10
71.0677358
20
-15.4212582
11
71.26777
21
-15.26777
0
LINE
8
0
10
71.26777
20
-15.26777
11
71.5115718
21
-14.9500342
0
LINE
8
0
10
71.5115718
20
-14.9500342
11
71.66506
21
-14.75
0
LINE
8
0
10
71.66506
20
-14.75
11
71.8183221
21
-14.3799924
0
LINE
8
0
10
71.8183221
20
-14.3799924
11
71.91481
21
-14.14705
0
LINE
8
0
10
71.91481
20
-14.14705
11
71.9670879
21
-13.74998
0
LINE
8
0
10
71.9670879
20
-13.74998
11
72
21
-13.5
0
LINE
8
0
10
72
20
-13.5
11
72
21
-10.9074933
0
LINE
8
0
10
72
20
-10.9074933
11
72
21
-10.8308642
0
LINE
8
0
10
72
20
-10.8308642
11
72
21
-10.4096005
0
LINE
8
0
10
72
20
-10.4096005
11
72
21
-10.0128572
0
LINE
8
0
10
72
20
-10.0128572
11
72
21
-9.47783937
0
LINE
8
0
10
72
20
-9.47783937
11
72
21
-8.77996486
0
LINE
8
0
10
72
20
-8.77996486
11
72
21
-7.979048
0
LINE
8
0
10
72
20
-7.979048
11
72
21
-6.59539669
0
LINE
8
0
10
72
20
-6.59539669
11
72
21
-4.67402642
0
LINE
8
0
10
72
20
-4.67402642
11
72
21
-4.3286563
0
LINE
8
0
10
72
20
-4.3286563
11
71.9914164
21
-4.08655855
0
LINE
8
0
10
71.9914164
20
-4.08655855
11
71.9842065
21
-3.88577766
0
LINE
8
0
10
71.9842065
20
-3.88577766
11
71.9713622
21
-3.7663371
0
LINE
8
0
10
71.9713622
20
-3.7663371
11
71.9436028
21
-3.51294877
0
LINE
8
0
10
71.9436028
20
-3.51294877
11
71.9370947
21
-3.44845422
0
LINE
8
0
10
71.9370947
20
-3.44845422
11
71.933727
21
-3.41573818
0
LINE
8
0
10
71.933727
20
-3.41573818
11
71.881666
21
-3.11337757
0
LINE
8
0
10
71.881666
20
-3.11337757
11
71.8437468
21
-2.89749516
0
LINE
8
0
10
71.8437468
20
-2.89749516
11
71.8150486
21
-2.78192004
0
LINE
8
0
10
71.8150486
20
-2.78192004
11
71.7670999
21
-2.59256865
0
LINE
8
0
10
71.7670999
20
-2.59256865
11
71.7328846
21
-2.44386664
0
LINE
8
0
10
71.7328846
20
-2.44386664
11
71.7094451
21
-2.34413104
0
LINE
8
0
10
71.7094451
20
-2.34413104
11
71.634093
21
-2.09832226
0
LINE
8
0
10
71.634093
20
-2.09832226
11
71.530315
21
-1.76671512
0
LINE
8
0
10
71.530315
20
-1.76671512
11
71.5279222
21
-1.75816208
0
LINE
8
0
10
71.5279222
20
-1.75816208
11
71.5258862
21
-1.75104404
0
LINE
8
0
10
71.5258862
20
-1.75104404
11
71.4013735
21
-1.40173104
0
LINE
8
0
10
71.4013735
20
-1.40173104
11
71.2873117
21
-1.08860391
0
LINE
8
0
10
71.2873117
20
-1.08860391
11
71.2713717
21
-1.05258576
0
LINE
8
0
10
71.2713717
20
-1.05258576
11
71.2534022
21
-1.0128084
0
LINE
8
0
10
71.2534022
20
-1.0128084
11
71.1254743
21
-0.689573514
0
LINE
8
0
10
71.1254743
20
-0.689573514
11
70.9874376
21
-0.348494909
0
LINE
8
0
10
70.9874376
20
-0.348494909
11
70.9787015
21
-0.330425648
0
LINE
8
0
10
70.9787015
20
-0.330425648
11
70.9704437
21
-0.313698441
0
LINE
8
0
10
70.9704437
20
-0.313698441
11
70.8193478
21
0.0442821048
0
LINE
8
0
10
70.8193478
20
0.0442821048
11
70.6900942
21
0.343642255
0
LINE
8
0
10
70.6900942
20
0.343642255
11
70.6624136
21
0.421118731
0
LINE
8
0
10
70.6624136
20
0.421118731
11
70.6146334
21
0.551537492
0
LINE
8
0
10
70.6146334
20
0.551537492
11
70.5020858
21
0.812568712
0
LINE
8
0
10
70.5020858
20
0.812568712
11
70.4326609
21
0.969953934
0
LINE
8
0
10
70.4326609
20
0.969953934
11
70.3459379
21
1.21962904
0
LINE
8
0
10
70.3459379
20
1.21962904
11
70.219436
21
1.57446453
0
LINE
8
0
10
70.219436
20
1.57446453
11
70.201063
21
1.64521861
0
LINE
8
0
10
70.201063
20
1.64521861
11
70.1347802
21
1.89262579
0
LINE
8
0
10
70.1347802
20
1.89262579
11
70.0702535
21
2.10187723
0
LINE
8
0
10
70.0702535
20
2.10187723
11
70.0501563
21
2.16528194
0
LINE
8
0
10
70.0501563
20
2.16528194
11
69.963713
21
2.60240663
0
LINE
8
0
10
69.963713
20
2.60240663
11
69.9335058
21
2.74958583
0
LINE
8
0
10
69.9335058
20
2.74958583
11
69.8982934
21
3.1642207
0
LINE
8
0
10
69.8982934
20
3.1642207
11
69.882782
21
3.33428915
0
LINE
8
0
10
69.882782
20
3.33428915
11
69.8974813
21
3.82156829
0
LINE
8
0
10
69.8974813
20
3.82156829
11
69.9001082
21
3.92644692
0
LINE
8
0
10
69.9001082
20
3.92644692
11
69.9487404
21
4.25745756
0
LINE
8
0
10
69.9487404
20
4.25745756
11
69.9784306
21
4.53354829
0
LINE
8
0
10
69.9784306
20
4.53354829
11
70.0023641
21
4.64942845
0
LINE
8
0
10
70.0023641
20
4.64942845
11
70.107043
21
5.16362446
0
LINE
8
0
10
70.107043
20
5.16362446
11
70.3058679
21
5.82487767
0
LINE
8
0
10
70.3058679
20
5.82487767
11
70.3061085
21
5.82588448
0
LINE
8
0
10
70.3061085
20
5.82588448
11
70.3065184
21
5.82717609
0
LINE
8
0
10
70.3065184
20
5.82717609
11
70.5291545
21
6.53146909
0
LINE
8
0
10
70.5291545
20
6.53146909
11
70.6827409
21
6.92278673
0
LINE
8
0
10
70.6827409
20
6.92278673
11
70.8000835
21
7.29424555
0
LINE
8
0
10
70.8000835
20
7.29424555
11
71.0298921
21
7.90634584
0
LINE
8
0
10
71.0298921
20
7.90634584
11
71.0973525
21
8.13164437
0
LINE
8
0
10
71.0973525
20
8.13164437
11
71.3315676
21
8.81088932
0
LINE
8
0
10
71.3315676
20
8.81088932
11
71.4003596
21
9.0667544
0
LINE
8
0
10
71.4003596
20
9.0667544
11
71.622034
21
9.82764166
0
LINE
8
0
10
71.622034
20
9.82764166
11
71.6558438
21
9.97344432
0
LINE
8
0
10
71.6558438
20
9.97344432
11
71.6809144
21
10.1314594
0
LINE
8
0
10
71.6809144
20
10.1314594
11
71.8963915
21
11.272814
0
LINE
8
0
10
71.8963915
20
11.272814
11
71.9070251
21
11.3333989
0
LINE
8
0
10
71.9070251
20
11.3333989
11
71.9134545
21
11.3951814
0
LINE
8
0
10
71.9134545
20
11.3951814
11
71.9955896
21
12.7086291
0
LINE
8
0
10
71.9955896
20
12.7086291
11
72
21
12.835856
0
LINE
8
0
10
72
20
12.835856
11
72
21
12.835856
0
ENDSEC
0
EOF
