0
SECTION
2
ENTITIES
0
LINE
8
0
10
16
20
40.1614084
11
16
21
39.2006102
0
LINE
8
0
10
16
20
39.2006102
11
16.5510145
21
39.2006102
0
LINE
8
0
10
16.5510145
20
39.2006102
11
17.8
21
39.2006102
0
LINE
8
0
10
17.8
20
39.2006102
11
17.8
21
39.0223543
0
LINE
8
0
10
17.8
20
39.0223543
11
17.8
21
36.6030662
0
LINE
8
0
10
17.8
20
36.6030662
11
17.8
21
31.7775008
0
LINE
8
0
10
17.8
20
31.7775008
11
17.8
21
29.6089912
0
LINE
8
0
10
17.8
20
29.6089912
11
17.8
21
28.4486303
0
LINE
8
0
10
17.8
20
28.4486303
11
17.8
21
27.7653468
0
LINE
8
0
10
17.8
20
27.7653468
11
17.8
21
27.3396238
0
LINE
8
0
10
17.8
20
27.3396238
11
17.8
21
26.8355388
0
LINE
8
0
10
17.8
20
26.8355388
11
17.8
21
24.5260255
0
LINE
8
0
10
17.8
20
24.5260255
11
17.7902926
21
24.3726939
0
LINE
8
0
10
17.7902926
20
24.3726939
11
17.72314
21
23.3119955
0
LINE
8
0
10
17.72314
20
23.3119955
11
17.6943917
21
23.1645571
0
LINE
8
0
10
17.6943917
20
23.1645571
11
17.49552
21
22.1446255
0
LINE
8
0
10
17.49552
20
22.1446255
11
17.4488346
21
22.0087448
0
LINE
8
0
10
17.4488346
20
22.0087448
11
17.12588
21
21.0687655
0
LINE
8
0
10
17.12588
20
21.0687655
11
17.0630523
21
20.9496662
0
LINE
8
0
10
17.0630523
20
20.9496662
11
16.62843
21
20.1257755
0
LINE
8
0
10
16.62843
20
20.1257755
11
16.5916945
21
20.0739787
0
LINE
8
0
10
16.5916945
20
20.0739787
11
16.33757
21
19.7156567
0
LINE
8
0
10
16.33757
20
19.7156567
11
16.297749
21
19.6697102
0
LINE
8
0
10
16.297749
20
19.6697102
11
16.02228
21
19.3518755
0
LINE
8
0
10
16.02228
20
19.3518755
11
15.9797562
21
19.3122237
0
LINE
8
0
10
15.9797562
20
19.3122237
11
15.68559
21
19.0379167
0
LINE
8
0
10
15.68559
20
19.0379167
11
15.6407713
21
19.0049386
0
LINE
8
0
10
15.6407713
20
19.0049386
11
15.33073
21
18.7768155
0
LINE
8
0
10
15.33073
20
18.7768155
11
15.2840509
21
18.7508319
0
LINE
8
0
10
15.2840509
20
18.7508319
11
14.96114
21
18.5710855
0
LINE
8
0
10
14.96114
20
18.5710855
11
14.9130476
21
18.5523451
0
LINE
8
0
10
14.9130476
20
18.5523451
11
14.58036
21
18.4226967
0
LINE
8
0
10
14.58036
20
18.4226967
11
14.5313191
21
18.411379
0
LINE
8
0
10
14.5313191
20
18.411379
11
14.19207
21
18.3330955
0
LINE
8
0
10
14.19207
20
18.3330955
11
14.1425517
21
18.3293103
0
LINE
8
0
10
14.1425517
20
18.3293103
11
13.8
21
18.3031255
0
LINE
8
0
10
13.8
20
18.3031255
11
12.3601843
21
18.3031255
0
LINE
8
0
10
12.3601843
20
18.3031255
11
2.4
21
18.3031204
0
LINE
8
0
10
2.4
20
18.3031204
11
2.4
21
25.0636416
0
LINE
8
0
10
2.4
20
25.0636416
11
2.4
21
28.5836557
0
LINE
8
0
10
2.4
20
28.5836557
11
2.4
21
32.8300343
0
LINE
8
0
10
2.4
20
32.8300343
11
2.4
21
36.4888742
0
LINE
8
0
10
2.4
20
36.4888742
11
2.4
21
36.7583047
0
LINE
8
0
10
2.4
20
36.7583047
11
2.4
21
37.1348341
0
LINE
8
0
10
2.4
20
37.1348341
11
2.4
21
40.3455072
0
LINE
8
0
10
2.4
20
40.3455072
11
2.4
21
40.6976392
0
LINE
8
0
10
2.4
20
40.6976392
11
2.4
21
41.1652443
0
LINE
8
0
10
2.4
20
41.1652443
11
2.4
21
41.7292404
0
LINE
8
0
10
2.4
20
41.7292404
11
2.4
21
42.8887862
0
LINE
8
0
10
2.4
20
42.8887862
11
2.4
21
42.959455
0
LINE
8
0
10
2.4
20
42.959455
11
2.4
21
43.5475736
0
LINE
8
0
10
2.4
20
43.5475736
11
2.4
21
43.6157713
0
LINE
8
0
10
2.4
20
43.6157713
11
2.4
21
43.6834202
0
LINE
8
0
10
2.4
20
43.6834202
11
2.4
21
44.2983577
0
LINE
8
0
10
2.4
20
44.2983577
11
2.4
21
47.0114142
0
LINE
8
0
10
2.4
20
47.0114142
11
2.4
21
48.2
0
LINE
8
0
10
2.4
20
48.2
11
2.42699992
21
48.4050865
0
LINE
8
0
10
2.42699992
20
48.4050865
11
2.468148
21
48.71764
0
LINE
8
0
10
2.468148
20
48.71764
11
2.54730821
21
48.9087488
0
LINE
8
0
10
2.54730821
20
48.9087488
11
2.667949
21
49.2
0
LINE
8
0
10
2.667949
20
49.2
11
2.79387452
21
49.364108
0
LINE
8
0
10
2.79387452
20
49.364108
11
2.985786
21
49.61421
0
LINE
8
0
10
2.985786
20
49.61421
11
3.14989563
21
49.7401367
0
LINE
8
0
10
3.14989563
20
49.7401367
11
3.4
21
49.93205
0
LINE
8
0
10
3.4
20
49.93205
11
3.59110954
21
50.0112098
0
LINE
8
0
10
3.59110954
20
50.0112098
11
3.882362
21
50.13185
0
LINE
8
0
10
3.882362
20
50.13185
11
4.08744773
21
50.1588507
0
LINE
8
0
10
4.08744773
20
50.1588507
11
4.4
21
50.2
0
LINE
8
0
10
4.4
20
50.2
11
10.265371
21
50.2
0
LINE
8
0
10
10.265371
20
50.2
11
10.2777459
21
50.2
0
LINE
8
0
10
10.2777459
20
50.2
11
10.2777459
21
46.3167045
0
LINE
8
0
10
10.2777459
20
46.3167045
11
10.2777459
21
46.2
0
LINE
8
0
10
10.2777459
20
46.2
11
10.2777459
21
42.3167045
0
LINE
8
0
10
10.2777459
20
42.3167045
11
10.2777459
21
42.2
0
LINE
8
0
10
10.2777459
20
42.2
11
10.2777459
21
38.3167045
0
LINE
8
0
10
10.2777459
20
38.3167045
11
10.2777459
21
38.2
0
LINE
8
0
10
10.2777459
20
38.2
11
10.3273625
21
38.2
0
LINE
8
0
10
10.3273625
20
38.2
11
10.35048
21
38.2
0
LINE
8
0
10
10.35048
20
38.2
11
10.4261008
21
38.2
0
LINE
8
0
10
10.4261008
20
38.2
11
10.46967
21
38.2
0
LINE
8
0
10
10.46967
20
38.2
11
10.5657398
21
38.2
0
LINE
8
0
10
10.5657398
20
38.2
11
10.625
21
38.2
0
LINE
8
0
10
10.625
20
38.2
11
10.7367639
21
38.2
0
LINE
8
0
10
10.7367639
20
38.2
11
10.80589
21
38.2
0
LINE
8
0
10
10.80589
20
38.2
11
10.9275127
21
38.2
0
LINE
8
0
10
10.9275127
20
38.2
11
11
21
38.2
0
LINE
8
0
10
11
20
38.2
11
11.1249871
21
38.2
0
LINE
8
0
10
11.1249871
20
38.2
11
11.19411
21
38.2
0
LINE
8
0
10
11.19411
20
38.2
11
11.3157383
21
38.2
0
LINE
8
0
10
11.3157383
20
38.2
11
11.375
21
38.2
0
LINE
8
0
10
11.375
20
38.2
11
11.4867612
21
38.2
0
LINE
8
0
10
11.4867612
20
38.2
11
11.53033
21
38.2
0
LINE
8
0
10
11.53033
20
38.2
11
11.6264006
21
38.2
0
LINE
8
0
10
11.6264006
20
38.2
11
11.64952
21
38.2
0
LINE
8
0
10
11.64952
20
38.2
11
11.7222541
21
38.2
0
LINE
8
0
10
11.7222541
20
38.2
11
11.7222541
21
42.0832955
0
LINE
8
0
10
11.7222541
20
42.0832955
11
11.7222541
21
42.2
0
LINE
8
0
10
11.7222541
20
42.2
11
11.7222541
21
46.0832955
0
LINE
8
0
10
11.7222541
20
46.0832955
11
11.7222541
21
46.2
0
LINE
8
0
10
11.7222541
20
46.2
11
11.7222541
21
50.0832955
0
LINE
8
0
10
11.7222541
20
50.0832955
11
11.7222541
21
50.2
0
LINE
8
0
10
11.7222541
20
50.2
11
11.7318544
21
50.2
0
LINE
8
0
10
11.7318544
20
50.2
11
16
21
50.2
0
LINE
8
0
10
16
20
50.2
11
16
21
48.2079638
0
LINE
8
0
10
16
20
48.2079638
11
16
21
45.2
0
LINE
8
0
10
16
20
45.2
11
16
21
44.3611903
0
LINE
8
0
10
16
20
44.3611903
11
16
21
43.9807541
0
LINE
8
0
10
16
20
43.9807541
11
16
21
43.0847194
0
LINE
8
0
10
16
20
43.0847194
11
16
21
42.7471853
0
LINE
8
0
10
16
20
42.7471853
11
16
21
41.7324657
0
LINE
8
0
10
16
20
41.7324657
11
16
21
41.4819416
0
LINE
8
0
10
16
20
41.4819416
11
16
21
40.2810145
0
LINE
8
0
10
16
20
40.2810145
11
16
21
40.1614084
0
LINE
8
0
10
16
20
40.1614084
11
16
21
40.1614084
0
LINE
8
0
10
70.4665612
20
2.75629834
11
70.4668553
21
2.75202765
0
LINE
8
0
10
70.4668553
20
2.75202765
11
70.5470049
21
2.21981072
0
LINE
8
0
10
70.5470049
20
2.21981072
11
70.5596032
21
2.13229725
0
LINE
8
0
10
70.5596032
20
2.13229725
11
70.6506423
21
1.72767018
0
LINE
8
0
10
70.6506423
20
1.72767018
11
70.6989251
21
1.50565577
0
LINE
8
0
10
70.6989251
20
1.50565577
11
70.7702961
21
1.26562558
0
LINE
8
0
10
70.7702961
20
1.26562558
11
70.8862137
21
0.864528307
0
LINE
8
0
10
70.8862137
20
0.864528307
11
70.9011105
21
0.823866484
0
LINE
8
0
10
70.9011105
20
0.823866484
11
70.9257045
21
0.755029203
0
LINE
8
0
10
70.9257045
20
0.755029203
11
71.0302125
21
0.408429626
0
LINE
8
0
10
71.0302125
20
0.408429626
11
71.0913211
21
0.200276314
0
LINE
8
0
10
71.0913211
20
0.200276314
11
71.1614175
21
0.00259448999
0
LINE
8
0
10
71.1614175
20
0.00259448999
11
71.2528359
21
-0.261572651
0
LINE
8
0
10
71.2528359
20
-0.261572651
11
71.2906389
21
-0.393515104
0
LINE
8
0
10
71.2906389
20
-0.393515104
11
71.3195246
21
-0.496918946
0
LINE
8
0
10
71.3195246
20
-0.496918946
11
71.4105975
21
-0.775739621
0
LINE
8
0
10
71.4105975
20
-0.775739621
11
71.5063432
21
-1.07576643
0
LINE
8
0
10
71.5063432
20
-1.07576643
11
71.5272337
21
-1.15714526
0
LINE
8
0
10
71.5272337
20
-1.15714526
11
71.5476024
21
-1.23842193
0
LINE
8
0
10
71.5476024
20
-1.23842193
11
71.6291809
21
-1.523621
0
LINE
8
0
10
71.6291809
20
-1.523621
11
71.6989358
21
-1.77296008
0
LINE
8
0
10
71.6989358
20
-1.77296008
11
71.7241639
21
-1.89035623
0
LINE
8
0
10
71.7241639
20
-1.89035623
11
71.7551834
21
-2.0379935
0
LINE
8
0
10
71.7551834
20
-2.0379935
11
71.8043458
21
-2.24718062
0
LINE
8
0
10
71.8043458
20
-2.24718062
11
71.8386503
21
-2.39627057
0
LINE
8
0
10
71.8386503
20
-2.39627057
11
71.8714238
21
-2.59728053
0
LINE
8
0
10
71.8714238
20
-2.59728053
11
71.9219593
21
-2.91387422
0
LINE
8
0
10
71.9219593
20
-2.91387422
11
71.9282018
21
-2.94941437
0
LINE
8
0
10
71.9282018
20
-2.94941437
11
71.9317545
21
-2.97004757
0
LINE
8
0
10
71.9317545
20
-2.97004757
11
71.9636266
21
-3.27967421
0
LINE
8
0
10
71.9636266
20
-3.27967421
11
71.98377
21
-3.47929184
0
LINE
8
0
10
71.98377
20
-3.47929184
11
71.999133
21
-3.93692777
0
LINE
8
0
10
71.999133
20
-3.93692777
11
71.9997586
21
-3.95435049
0
LINE
8
0
10
71.9997586
20
-3.95435049
11
72
21
-3.9611587
0
LINE
8
0
10
72
20
-3.9611587
11
72
21
-5.52367753
0
LINE
8
0
10
72
20
-5.52367753
11
72
21
-7.26008301
0
LINE
8
0
10
72
20
-7.26008301
11
72
21
-8.51053418
0
LINE
8
0
10
72
20
-8.51053418
11
72
21
-9.23434908
0
LINE
8
0
10
72
20
-9.23434908
11
72
21
-9.86504122
0
LINE
8
0
10
72
20
-9.86504122
11
72
21
-10.3485544
0
LINE
8
0
10
72
20
-10.3485544
11
72
21
-10.7071044
0
LINE
8
0
10
72
20
-10.7071044
11
72
21
-11.0878142
0
LINE
8
0
10
72
20
-11.0878142
11
72
21
-11.1570665
0
LINE
8
0
10
72
20
-11.1570665
11
72
21
-13.5
0
LINE
8
0
10
72
20
-13.5
11
71.9702562
21
-13.7259151
0
LINE
8
0
10
71.9702562
20
-13.7259151
11
71.91481
21
-14.14705
0
LINE
8
0
10
71.91481
20
-14.14705
11
71.8276107
21
-14.3575677
0
LINE
8
0
10
71.8276107
20
-14.3575677
11
71.66506
21
-14.75
0
LINE
8
0
10
71.66506
20
-14.75
11
71.5263477
21
-14.9307775
0
LINE
8
0
10
71.5263477
20
-14.9307775
11
71.26777
21
-15.26777
0
LINE
8
0
10
71.26777
20
-15.26777
11
71.0869925
21
-15.4064823
0
LINE
8
0
10
71.0869925
20
-15.4064823
11
70.75
21
-15.66506
0
LINE
8
0
10
70.75
20
-15.66506
11
70.5394823
21
-15.7522593
0
LINE
8
0
10
70.5394823
20
-15.7522593
11
70.14705
21
-15.91481
0
LINE
8
0
10
70.14705
20
-15.91481
11
69.7259151
21
-15.9702562
0
LINE
8
0
10
69.7259151
20
-15.9702562
11
69.5
21
-16
0
LINE
8
0
10
69.5
20
-16
11
67.7719875
21
-16
0
LINE
8
0
10
67.7719875
20
-16
11
58.8
21
-16
0
LINE
8
0
10
58.8
20
-16
11
58.752062
21
-15.9990123
0
LINE
8
0
10
58.752062
20
-15.9990123
11
58.73836
21
-15.99873
0
LINE
8
0
10
58.73836
20
-15.99873
11
58.6905794
21
-15.9957811
0
LINE
8
0
10
58.6905794
20
-15.9957811
11
58.67679
21
-15.99493
0
LINE
8
0
10
58.67679
20
-15.99493
11
58.6631076
21
-15.9935186
0
LINE
8
0
10
58.6631076
20
-15.9935186
11
58.5584372
21
-15.9743694
0
LINE
8
0
10
58.5584372
20
-15.9743694
11
58.4386566
21
-15.9535608
0
LINE
8
0
10
58.4386566
20
-15.9535608
11
58.4321753
21
-15.9528696
0
LINE
8
0
10
58.4321753
20
-15.9528696
11
58.3840361
21
-15.9386969
0
LINE
8
0
10
58.3840361
20
-15.9386969
11
58.0617688
21
-15.8052094
0
LINE
8
0
10
58.0617688
20
-15.8052094
11
58.0139452
21
-15.77158
0
LINE
8
0
10
58.0139452
20
-15.77158
11
57.7403334
21
-15.5616284
0
LINE
8
0
10
57.7403334
20
-15.5616284
11
57.7193493
21
-15.5370063
0
LINE
8
0
10
57.7193493
20
-15.5370063
11
57.5106288
21
-15.264999
0
LINE
8
0
10
57.5106288
20
-15.264999
11
57.492268
21
-15.2330756
0
LINE
8
0
10
57.492268
20
-15.2330756
11
57.3618757
21
-14.9182807
0
LINE
8
0
10
57.3618757
20
-14.9182807
11
57.3490076
21
-14.87943
0
LINE
8
0
10
57.3490076
20
-14.87943
11
57.328947
21
-14.7631294
0
LINE
8
0
10
57.328947
20
-14.7631294
11
57.3
21
-14.5
0
LINE
8
0
10
57.3
20
-14.5
11
57.3
21
-14.2341523
0
LINE
8
0
10
57.3
20
-14.2341523
11
57.3
21
-14.17729
0
LINE
8
0
10
57.3
20
-14.17729
11
57.3
21
-10.9247207
0
LINE
8
0
10
57.3
20
-10.9247207
11
57.3
21
-10.7403972
0
LINE
8
0
10
57.3
20
-10.7403972
11
57.3
21
-10.3710887
0
LINE
8
0
10
57.3
20
-10.3710887
11
57.3
21
-10.1729529
0
LINE
8
0
10
57.3
20
-10.1729529
11
57.3
21
-9.66216059
0
LINE
8
0
10
57.3
20
-9.66216059
11
57.3
21
-8.9580159
0
LINE
8
0
10
57.3
20
-8.9580159
11
57.3
21
-8.0188063
0
LINE
8
0
10
57.3
20
-8.0188063
11
57.3
21
-6.80810315
0
LINE
8
0
10
57.3
20
-6.80810315
11
57.3
21
-5.31247192
0
LINE
8
0
10
57.3
20
-5.31247192
11
57.3
21
-3.57008797
0
LINE
8
0
10
57.3
20
-3.57008797
11
57.3
21
-1.70304239
0
LINE
8
0
10
57.3
20
-1.70304239
11
57.3
21
0.070941008
0
LINE
8
0
10
57.3
20
0.070941008
11
57.3
21
2.24940614
0
LINE
8
0
10
57.3
20
2.24940614
11
57.3
21
3.19022342
0
LINE
8
0
10
57.3
20
3.19022342
11
57.3
21
4.40577431
0
LINE
8
0
10
57.3
20
4.40577431
11
57.3
21
5.71818729
0
LINE
8
0
10
57.3
20
5.71818729
11
57.3
21
6.95287243
0
LINE
8
0
10
57.3
20
6.95287243
11
57.3
21
7.99515055
0
LINE
8
0
10
57.3
20
7.99515055
11
57.3
21
8.8019842
0
LINE
8
0
10
57.3
20
8.8019842
11
57.3
21
10
0
LINE
8
0
10
57.3
20
10
11
61.088074
21
10
0
LINE
8
0
10
61.088074
20
10
11
62
21
10
0
LINE
8
0
10
62
20
10
11
62
21
11.5795738
0
LINE
8
0
10
62
20
11.5795738
11
62
21
11.7402534
0
LINE
8
0
10
62
20
11.7402534
11
62
21
11.9274371
0
LINE
8
0
10
62
20
11.9274371
11
62
21
12.124655
0
LINE
8
0
10
62
20
12.124655
11
62
21
12.3071367
0
LINE
8
0
10
62
20
12.3071367
11
62
21
12.4468609
0
LINE
8
0
10
62
20
12.4468609
11
62
21
19.6982147
0
LINE
8
0
10
62
20
19.6982147
11
62
21
19.8380722
0
LINE
8
0
10
62
20
19.8380722
11
62
21
20.0280718
0
LINE
8
0
10
62
20
20.0280718
11
62
21
22.4
0
LINE
8
0
10
62
20
22.4
11
62.8285416
21
23.1460222
0
LINE
8
0
10
62.8285416
20
23.1460222
11
62.88849
21
23.2
0
LINE
8
0
10
62.88849
20
23.2
11
63.9284722
21
23.2
0
LINE
8
0
10
63.9284722
20
23.2
11
64.0427811
21
23.2
0
LINE
8
0
10
64.0427811
20
23.2
11
64.9
21
23.2
0
LINE
8
0
10
64.9
20
23.2
11
64.9
21
24.5124525
0
LINE
8
0
10
64.9
20
24.5124525
11
64.9
21
25.7552865
0
LINE
8
0
10
64.9
20
25.7552865
11
64.9
21
26.324342
0
LINE
8
0
10
64.9
20
26.324342
11
64.910363
21
26.43587
0
LINE
8
0
10
64.910363
20
26.43587
11
64.91704
21
26.5077312
0
LINE
8
0
10
64.91704
20
26.5077312
11
64.9429501
21
26.5963787
0
LINE
8
0
10
64.9429501
20
26.5963787
11
64.96699
21
26.6786262
0
LINE
8
0
10
64.96699
20
26.6786262
11
65.001865
21
26.7430339
0
LINE
8
0
10
65.001865
20
26.7430339
11
65.04645
21
26.8253759
0
LINE
8
0
10
65.04645
20
26.8253759
11
65.0850362
21
26.8673366
0
LINE
8
0
10
65.0850362
20
26.8673366
11
65.15
21
26.9379826
0
LINE
8
0
10
65.15
20
26.9379826
11
65.1890266
21
26.9608927
0
LINE
8
0
10
65.1890266
20
26.9608927
11
65.27059
21
27.0087697
0
LINE
8
0
10
65.27059
20
27.0087697
11
65.3665507
21
27.0297673
0
LINE
8
0
10
65.3665507
20
27.0297673
11
65.4
21
27.0354898
0
LINE
8
0
10
65.4
20
27.0354898
11
70.8849663
21
27.0426817
0
LINE
8
0
10
70.8849663
20
27.0426817
11
72
21
27.041944
0
LINE
8
0
10
72
20
27.041944
11
72
21
24.0146536
0
LINE
8
0
10
72
20
24.0146536
11
72
21
22.5831417
0
LINE
8
0
10
72
20
22.5831417
11
72
21
20.0155963
0
LINE
8
0
10
72
20
20.0155963
11
72
21
18.8920801
0
LINE
8
0
10
72
20
18.8920801
11
72
21
18.3717925
0
LINE
8
0
10
72
20
18.3717925
11
72
21
17.7978364
0
LINE
8
0
10
72
20
17.7978364
11
72
21
17.3188343
0
LINE
8
0
10
72
20
17.3188343
11
72
21
16.1904971
0
LINE
8
0
10
72
20
16.1904971
11
72
21
15.7484497
0
LINE
8
0
10
72
20
15.7484497
11
72
21
12.3673734
0
LINE
8
0
10
72
20
12.3673734
11
72
21
12.367006
0
LINE
8
0
10
72
20
12.367006
11
71.9970877
21
12.2829963
0
LINE
8
0
10
71.9970877
20
12.2829963
11
71.9099747
21
10.8899457
0
LINE
8
0
10
71.9099747
20
10.8899457
11
71.9084042
21
10.874854
0
LINE
8
0
10
71.9084042
20
10.874854
11
71.9058067
21
10.8600548
0
LINE
8
0
10
71.9058067
20
10.8600548
11
71.8531718
21
10.5812542
0
LINE
8
0
10
71.8531718
20
10.5812542
11
71.727092
21
9.78659677
0
LINE
8
0
10
71.727092
20
9.78659677
11
71.6495062
21
9.45201286
0
LINE
8
0
10
71.6495062
20
9.45201286
11
71.5800478
21
9.10620838
0
LINE
8
0
10
71.5800478
20
9.10620838
11
71.4063969
21
8.46024338
0
LINE
8
0
10
71.4063969
20
8.46024338
11
71.3354872
21
8.15631513
0
LINE
8
0
10
71.3354872
20
8.15631513
11
71.1604681
21
7.57209412
0
LINE
8
0
10
71.1604681
20
7.57209412
11
71.0409013
21
7.09714955
0
LINE
8
0
10
71.0409013
20
7.09714955
11
70.9351803
21
6.7630846
0
LINE
8
0
10
70.9351803
20
6.7630846
11
70.7964757
21
6.21718596
0
LINE
8
0
10
70.7964757
20
6.21718596
11
70.7448183
21
6.01475317
0
LINE
8
0
10
70.7448183
20
6.01475317
11
70.7111735
21
5.83878697
0
LINE
8
0
10
70.7111735
20
5.83878697
11
70.5843467
21
5.31236747
0
LINE
8
0
10
70.5843467
20
5.31236747
11
70.5265757
21
4.95356284
0
LINE
8
0
10
70.5265757
20
4.95356284
11
70.4758772
21
4.64409184
0
LINE
8
0
10
70.4758772
20
4.64409184
11
70.4284542
21
4.06769124
0
LINE
8
0
10
70.4284542
20
4.06769124
11
70.422647
21
4.00018193
0
LINE
8
0
10
70.422647
20
4.00018193
11
70.4209795
21
3.48527633
0
LINE
8
0
10
70.4209795
20
3.48527633
11
70.4191533
21
3.37215383
0
LINE
8
0
10
70.4191533
20
3.37215383
11
70.4201235
21
3.36058382
0
LINE
8
0
10
70.4201235
20
3.36058382
11
70.4541933
21
2.92228485
0
LINE
8
0
10
70.4541933
20
2.92228485
11
70.4665612
21
2.75629834
0
LINE
8
0
10
70.4665612
20
2.75629834
11
70.4665612
21
2.75629834
0
LINE
8
0
10
35.2
20
-2.10429091
11
35.2
21
-0.793055418
0
LINE
8
0
10
35.2
20
-0.793055418
11
35.2
21
0.80115853
0
LINE
8
0
10
35.2
20
0.80115853
11
35.2
21
2.44181427
0
LINE
8
0
10
35.2
20
2.44181427
11
35.2
21
3.94348399
0
LINE
8
0
10
35.2
20
3.94348399
11
35.2
21
5.20699742
0
LINE
8
0
10
35.2
20
5.20699742
11
35.2
21
9.30355548
0
LINE
8
0
10
35.2
20
9.30355548
11
35.2
21
10
0
LINE
8
0
10
35.2
20
10
11
31.0728657
21
10
0
LINE
8
0
10
31.0728657
20
10
11
30.2
21
10
0
LINE
8
0
10
30.2
20
10
11
30.2
21
11.4139432
0
LINE
8
0
10
30.2
20
11.4139432
11
30.2
21
11.53281
0
LINE
8
0
10
30.2
20
11.53281
11
30.2
21
11.6781183
0
LINE
8
0
10
30.2
20
11.6781183
11
30.2
21
11.69043
0
LINE
8
0
10
30.2
20
11.69043
11
30.2
21
11.8813319
0
LINE
8
0
10
30.2
20
11.8813319
11
30.2
21
11.89597
0
LINE
8
0
10
30.2
20
11.89597
11
30.2
21
12.1195613
0
LINE
8
0
10
30.2
20
12.1195613
11
30.2
21
12.13557
0
LINE
8
0
10
30.2
20
12.13557
11
30.2
21
12.3761862
0
LINE
8
0
10
30.2
20
12.3761862
11
30.2
21
12.39302
0
LINE
8
0
10
30.2
20
12.39302
11
30.2
21
12.6336272
0
LINE
8
0
10
30.2
20
12.6336272
11
30.2
21
12.65094
0
LINE
8
0
10
30.2
20
12.65094
11
30.2
21
14.8523154
0
LINE
8
0
10
30.2
20
14.8523154
11
30.2
21
15
0
LINE
8
0
10
30.2
20
15
11
28.3262996
21
15
0
LINE
8
0
10
28.3262996
20
15
11
28.2
21
15
0
LINE
8
0
10
28.2
20
15
11
28.2
21
14.1165712
0
LINE
8
0
10
28.2
20
14.1165712
11
28.2
21
11.8181199
0
LINE
8
0
10
28.2
20
11.8181199
11
28.2
21
11.5806527
0
LINE
8
0
10
28.2
20
11.5806527
11
28.2
21
9.94686717
0
LINE
8
0
10
28.2
20
9.94686717
11
28.2
21
7.40699215
0
LINE
8
0
10
28.2
20
7.40699215
11
28.2
21
6.29687383
0
LINE
8
0
10
28.2
20
6.29687383
11
28.2
21
4.76866243
0
LINE
8
0
10
28.2
20
4.76866243
11
28.2
21
2.85734336
0
LINE
8
0
10
28.2
20
2.85734336
11
28.2
21
0.87762853
0
LINE
8
0
10
28.2
20
0.87762853
11
28.2
21
-0.544762144
0
LINE
8
0
10
28.2
20
-0.544762144
11
28.2
21
-5.01646687
0
LINE
8
0
10
28.2
20
-5.01646687
11
28.2
21
-6.39377207
0
LINE
8
0
10
28.2
20
-6.39377207
11
28.2
21
-8.10697098
0
LINE
8
0
10
28.2
20
-8.10697098
11
28.2
21
-9.66363124
0
LINE
8
0
10
28.2
20
-9.66363124
11
28.2
21
-10.856589
0
LINE
8
0
10
28.2
20
-10.856589
11
28.2
21
-11.6928606
0
LINE
8
0
10
28.2
20
-11.6928606
11
28.2
21
-12.2528827
0
LINE
8
0
10
28.2
20
-12.2528827
11
28.2
21
-12.6177851
0
LINE
8
0
10
28.2
20
-12.6177851
11
28.2
21
-12.8493585
0
LINE
8
0
10
28.2
20
-12.8493585
11
28.2
21
-12.9903067
0
LINE
8
0
10
28.2
20
-12.9903067
11
28.2
21
-13.0691076
0
LINE
8
0
10
28.2
20
-13.0691076
11
28.2
21
-13.5
0
LINE
8
0
10
28.2
20
-13.5
11
28.2111065
21
-13.7260422
0
LINE
8
0
10
28.2111065
20
-13.7260422
11
28.21204
21
-13.74504
0
LINE
8
0
10
28.21204
20
-13.74504
11
28.2233754
21
-13.8073359
0
LINE
8
0
10
28.2233754
20
-13.8073359
11
28.2539152
21
-14.012926
0
LINE
8
0
10
28.2539152
20
-14.012926
11
28.3723781
21
-14.403911
0
LINE
8
0
10
28.3723781
20
-14.403911
11
28.414962
21
-14.5067178
0
LINE
8
0
10
28.414962
20
-14.5067178
11
28.6049313
21
-14.8625581
0
LINE
8
0
10
28.6049313
20
-14.8625581
11
28.6803456
21
-14.960842
0
LINE
8
0
10
28.6803456
20
-14.960842
11
28.93223
21
-15.26777
0
LINE
8
0
10
28.93223
20
-15.26777
11
29.2192069
21
-15.5032814
0
LINE
8
0
10
29.2192069
20
-15.5032814
11
29.3447585
21
-15.5996183
0
LINE
8
0
10
29.3447585
20
-15.5996183
11
29.663476
21
-15.7703386
0
LINE
8
0
10
29.663476
20
-15.7703386
11
29.8275588
21
-15.8383039
0
LINE
8
0
10
29.8275588
20
-15.8383039
11
30.1641897
21
-15.9407487
0
LINE
8
0
10
30.1641897
20
-15.9407487
11
30.486368
21
-15.9718734
0
LINE
8
0
10
30.486368
20
-15.9718734
11
30.6178146
21
-15.991905
0
LINE
8
0
10
30.6178146
20
-15.991905
11
30.7
21
-16
0
LINE
8
0
10
30.7
20
-16
11
32.1925917
21
-16
0
LINE
8
0
10
32.1925917
20
-16
11
32.7
21
-16
0
LINE
8
0
10
32.7
20
-16
11
33.0821403
21
-15.9623603
0
LINE
8
0
10
33.0821403
20
-15.9623603
11
33.2947792
21
-15.9269984
0
LINE
8
0
10
33.2947792
20
-15.9269984
11
33.453973
21
-15.8785164
0
LINE
8
0
10
33.453973
20
-15.8785164
11
33.8487294
21
-15.715003
0
LINE
8
0
10
33.8487294
20
-15.715003
11
34.0004075
21
-15.6337154
0
LINE
8
0
10
34.0004075
20
-15.6337154
11
34.3303167
21
-15.3805728
0
LINE
8
0
10
34.3303167
20
-15.3805728
11
34.46777
21
-15.26777
0
LINE
8
0
10
34.46777
20
-15.26777
11
34.5905206
21
-15.1181951
0
LINE
8
0
10
34.5905206
20
-15.1181951
11
34.8309512
21
-14.8048528
0
LINE
8
0
10
34.8309512
20
-14.8048528
11
34.9239054
21
-14.6306777
0
LINE
8
0
10
34.9239054
20
-14.6306777
11
35.072047
21
-14.2730323
0
LINE
8
0
10
35.072047
20
-14.2730323
11
35.1302128
21
-14.0809941
0
LINE
8
0
10
35.1302128
20
-14.0809941
11
35.1452861
21
-13.9795625
0
LINE
8
0
10
35.1452861
20
-13.9795625
11
35.1503601
21
-13.877034
0
LINE
8
0
10
35.1503601
20
-13.877034
11
35.1787667
21
-13.6612747
0
LINE
8
0
10
35.1787667
20
-13.6612747
11
35.1978992
21
-13.5427566
0
LINE
8
0
10
35.1978992
20
-13.5427566
11
35.2
21
-13.5
0
LINE
8
0
10
35.2
20
-13.5
11
35.2
21
-12.5223904
0
LINE
8
0
10
35.2
20
-12.5223904
11
35.2
21
-12.3809171
0
LINE
8
0
10
35.2
20
-12.3809171
11
35.2
21
-12.1289461
0
LINE
8
0
10
35.2
20
-12.1289461
11
35.2
21
-11.7341416
0
LINE
8
0
10
35.2
20
-11.7341416
11
35.2
21
-11.1585865
0
LINE
8
0
10
35.2
20
-11.1585865
11
35.2
21
-10.3637588
0
LINE
8
0
10
35.2
20
-10.3637588
11
35.2
21
-9.32259551
0
LINE
8
0
10
35.2
20
-9.32259551
11
35.2
21
-8.0413249
0
LINE
8
0
10
35.2
20
-8.0413249
11
35.2
21
-6.5877999
0
LINE
8
0
10
35.2
20
-6.5877999
11
35.2
21
-5.10957319
0
LINE
8
0
10
35.2
20
-5.10957319
11
35.2
21
-3.81356368
0
LINE
8
0
10
35.2
20
-3.81356368
11
35.2
21
-2.10429091
0
LINE
8
0
10
35.2
20
-2.10429091
11
35.2
21
-2.10429091
0
ENDSEC
0
EOF
