0
SECTION
2
ENTITIES
0
LINE
8
0
10
16
20
43.9092957
11
16
21
42.7506265
0
LINE
8
0
10
16
20
42.7506265
11
16
21
42.6022431
0
LINE
8
0
10
16
20
42.6022431
11
16
21
41.3148555
0
LINE
8
0
10
16
20
41.3148555
11
16
21
41.2593766
0
LINE
8
0
10
16
20
41.2593766
11
16
21
40.6917891
0
LINE
8
0
10
16
20
40.6917891
11
17.05469
21
40.6917891
0
LINE
8
0
10
17.05469
20
40.6917891
11
17.8
21
40.6917891
0
LINE
8
0
10
17.8
20
40.6917891
11
17.8
21
40.1797723
0
LINE
8
0
10
17.8
20
40.1797723
11
17.8
21
39.6475006
0
LINE
8
0
10
17.8
20
39.6475006
11
17.8
21
28.050097
0
LINE
8
0
10
17.8
20
28.050097
11
17.8
21
27.039585
0
LINE
8
0
10
17.8
20
27.039585
11
17.8
21
26.5854818
0
LINE
8
0
10
17.8
20
26.5854818
11
17.8
21
26.342493
0
LINE
8
0
10
17.8
20
26.342493
11
17.8
21
26.1994079
0
LINE
8
0
10
17.8
20
26.1994079
11
17.8
21
26.1102581
0
LINE
8
0
10
17.8
20
26.1102581
11
17.8
21
26.0046987
0
LINE
8
0
10
17.8
20
26.0046987
11
17.8
21
23.431241
0
LINE
8
0
10
17.8
20
23.431241
11
17.7979672
21
23.3991321
0
LINE
8
0
10
17.7979672
20
23.3991321
11
17.72314
21
22.217211
0
LINE
8
0
10
17.72314
20
22.217211
11
17.7171199
21
22.1863362
0
LINE
8
0
10
17.7171199
20
22.1863362
11
17.49552
21
21.049841
0
LINE
8
0
10
17.49552
20
21.049841
11
17.4857437
21
21.0213864
0
LINE
8
0
10
17.4857437
20
21.0213864
11
17.12588
21
19.973981
0
LINE
8
0
10
17.12588
20
19.973981
11
17.1127234
21
19.9490406
0
LINE
8
0
10
17.1127234
20
19.9490406
11
16.62843
21
19.030991
0
LINE
8
0
10
16.62843
20
19.030991
11
16.6207373
21
19.0201443
0
LINE
8
0
10
16.6207373
20
19.0201443
11
16.33757
21
18.6208712
0
LINE
8
0
10
16.33757
20
18.6208712
11
16.3292312
21
18.6112496
0
LINE
8
0
10
16.3292312
20
18.6112496
11
16.02228
21
18.257091
0
LINE
8
0
10
16.02228
20
18.257091
11
16.0133752
21
18.2487876
0
LINE
8
0
10
16.0133752
20
18.2487876
11
15.68559
21
17.9431312
0
LINE
8
0
10
15.68559
20
17.9431312
11
15.6762046
21
17.9362253
0
LINE
8
0
10
15.6762046
20
17.9362253
11
15.33073
21
17.682031
0
LINE
8
0
10
15.33073
20
17.682031
11
15.320955
21
17.6765898
0
LINE
8
0
10
15.320955
20
17.6765898
11
14.96114
21
17.476301
0
LINE
8
0
10
14.96114
20
17.476301
11
14.9510691
21
17.4723766
0
LINE
8
0
10
14.9510691
20
17.4723766
11
14.58036
21
17.3279112
0
LINE
8
0
10
14.58036
20
17.3279112
11
14.5700904
21
17.3255412
0
LINE
8
0
10
14.5700904
20
17.3255412
11
14.19207
21
17.238311
0
LINE
8
0
10
14.19207
20
17.238311
11
14.1817005
21
17.2375183
0
LINE
8
0
10
14.1817005
20
17.2375183
11
13.8
21
17.208341
0
LINE
8
0
10
13.8
20
17.208341
11
13.4984911
21
17.208341
0
LINE
8
0
10
13.4984911
20
17.208341
11
2.4
21
17.2083353
0
LINE
8
0
10
2.4
20
17.2083353
11
2.4
21
24.7414875
0
LINE
8
0
10
2.4
20
24.7414875
11
2.4
21
28.6637889
0
LINE
8
0
10
2.4
20
28.6637889
11
2.4
21
33.3954679
0
LINE
8
0
10
2.4
20
33.3954679
11
2.4
21
35.993671
0
LINE
8
0
10
2.4
20
35.993671
11
2.4
21
36.1849981
0
LINE
8
0
10
2.4
20
36.1849981
11
2.4
21
36.4523779
0
LINE
8
0
10
2.4
20
36.4523779
11
2.4
21
40.2237591
0
LINE
8
0
10
2.4
20
40.2237591
11
2.4
21
40.5003796
0
LINE
8
0
10
2.4
20
40.5003796
11
2.4
21
40.867711
0
LINE
8
0
10
2.4
20
40.867711
11
2.4
21
41.3107634
0
LINE
8
0
10
2.4
20
41.3107634
11
2.4
21
42.781894
0
LINE
8
0
10
2.4
20
42.781894
11
2.4
21
42.8715524
0
LINE
8
0
10
2.4
20
42.8715524
11
2.4
21
43.3491467
0
LINE
8
0
10
2.4
20
43.3491467
11
2.4
21
43.4373336
0
LINE
8
0
10
2.4
20
43.4373336
11
2.4
21
43.524811
0
LINE
8
0
10
2.4
20
43.524811
11
2.4
21
44.0257221
0
LINE
8
0
10
2.4
20
44.0257221
11
2.4
21
47.5591436
0
LINE
8
0
10
2.4
20
47.5591436
11
2.4
21
48.2
0
LINE
8
0
10
2.4
20
48.2
11
2.41455769
21
48.3105776
0
LINE
8
0
10
2.41455769
20
48.3105776
11
2.468148
21
48.71764
0
LINE
8
0
10
2.468148
20
48.71764
11
2.51082925
21
48.8206812
0
LINE
8
0
10
2.51082925
20
48.8206812
11
2.667949
21
49.2
0
LINE
8
0
10
2.667949
20
49.2
11
2.73584496
21
49.288483
0
LINE
8
0
10
2.73584496
20
49.288483
11
2.985786
21
49.61421
0
LINE
8
0
10
2.985786
20
49.61421
11
3.0742699
21
49.6821066
0
LINE
8
0
10
3.0742699
20
49.6821066
11
3.4
21
49.93205
0
LINE
8
0
10
3.4
20
49.93205
11
3.50304159
21
49.974731
0
LINE
8
0
10
3.50304159
20
49.974731
11
3.882362
21
50.13185
0
LINE
8
0
10
3.882362
20
50.13185
11
3.99293921
21
50.1464081
0
LINE
8
0
10
3.99293921
20
50.1464081
11
4.4
21
50.2
0
LINE
8
0
10
4.4
20
50.2
11
7.57636738
21
50.2
0
LINE
8
0
10
7.57636738
20
50.2
11
7.90473252
21
50.2
0
LINE
8
0
10
7.90473252
20
50.2
11
8.34711517
21
50.2
0
LINE
8
0
10
8.34711517
20
50.2
11
8.9069938
21
50.2
0
LINE
8
0
10
8.9069938
20
50.2
11
9.56233701
21
50.2
0
LINE
8
0
10
9.56233701
20
50.2
11
10.2457929
21
50.2
0
LINE
8
0
10
10.2457929
20
50.2
11
10.7933285
21
50.2
0
LINE
8
0
10
10.7933285
20
50.2
11
10.7933285
21
46.4777701
0
LINE
8
0
10
10.7933285
20
46.4777701
11
10.7933285
21
46.2
0
LINE
8
0
10
10.7933285
20
46.2
11
10.7933285
21
42.4777701
0
LINE
8
0
10
10.7933285
20
42.4777701
11
10.7933285
21
42.2
0
LINE
8
0
10
10.7933285
20
42.2
11
10.7933285
21
38.4777701
0
LINE
8
0
10
10.7933285
20
38.4777701
11
10.7933285
21
38.2
0
LINE
8
0
10
10.7933285
20
38.2
11
10.80589
21
38.2
0
LINE
8
0
10
10.80589
20
38.2
11
10.806575
21
38.2
0
LINE
8
0
10
10.806575
20
38.2
11
11
21
38.2
0
LINE
8
0
10
11
20
38.2
11
11.0040494
21
38.2
0
LINE
8
0
10
11.0040494
20
38.2
11
11.19411
21
38.2
0
LINE
8
0
10
11.19411
20
38.2
11
11.194795
21
38.2
0
LINE
8
0
10
11.194795
20
38.2
11
11.2066715
21
38.2
0
LINE
8
0
10
11.2066715
20
38.2
11
11.2066715
21
41.9222299
0
LINE
8
0
10
11.2066715
20
41.9222299
11
11.2066715
21
42.2
0
LINE
8
0
10
11.2066715
20
42.2
11
11.2066715
21
45.9222299
0
LINE
8
0
10
11.2066715
20
45.9222299
11
11.2066715
21
46.2
0
LINE
8
0
10
11.2066715
20
46.2
11
11.2066715
21
49.9222299
0
LINE
8
0
10
11.2066715
20
49.9222299
11
11.2066715
21
50.2
0
LINE
8
0
10
11.2066715
20
50.2
11
11.4739898
21
50.2
0
LINE
8
0
10
11.4739898
20
50.2
11
11.7500256
21
50.2
0
LINE
8
0
10
11.7500256
20
50.2
11
11.9771237
21
50.2
0
LINE
8
0
10
11.9771237
20
50.2
11
12.1317637
21
50.2
0
LINE
8
0
10
12.1317637
20
50.2
11
12.3558308
21
50.2
0
LINE
8
0
10
12.3558308
20
50.2
11
12.5139929
21
50.2
0
LINE
8
0
10
12.5139929
20
50.2
11
13.4364366
21
50.2
0
LINE
8
0
10
13.4364366
20
50.2
11
13.6704954
21
50.2
0
LINE
8
0
10
13.6704954
20
50.2
11
16
21
50.2
0
LINE
8
0
10
16
20
50.2
11
16
21
49.117502
0
LINE
8
0
10
16
20
49.117502
11
16
21
45.2
0
LINE
8
0
10
16
20
45.2
11
16
21
44.1075538
0
LINE
8
0
10
16
20
44.1075538
11
16
21
43.9092957
0
LINE
8
0
10
16
20
43.9092957
11
16
21
43.9092957
0
LINE
8
0
10
71.2320028
20
5.26180525
11
71.1913003
21
4.86517874
0
LINE
8
0
10
71.1913003
20
4.86517874
11
71.1640755
21
4.30942919
0
LINE
8
0
10
71.1640755
20
4.30942919
11
71.1556996
21
4.14765221
0
LINE
8
0
10
71.1556996
20
4.14765221
11
71.1573786
21
3.53886989
0
LINE
8
0
10
71.1573786
20
3.53886989
11
71.157314
21
3.44788285
0
LINE
8
0
10
71.157314
20
3.44788285
11
71.1878956
21
2.87759031
0
LINE
8
0
10
71.1878956
20
2.87759031
11
71.1938601
21
2.75691079
0
LINE
8
0
10
71.1938601
20
2.75691079
11
71.2425228
21
2.28593906
0
LINE
8
0
10
71.2425228
20
2.28593906
11
71.264137
21
2.06632852
0
LINE
8
0
10
71.264137
20
2.06632852
11
71.313605
21
1.74069984
0
LINE
8
0
10
71.313605
20
1.74069984
11
71.3681396
21
1.36803662
0
LINE
8
0
10
71.3681396
20
1.36803662
11
71.396242
21
1.2268881
0
LINE
8
0
10
71.396242
20
1.2268881
11
71.4546698
21
0.924029307
0
LINE
8
0
10
71.4546698
20
0.924029307
11
71.4830459
21
0.743263354
0
LINE
8
0
10
71.4830459
20
0.743263354
11
71.4966664
21
0.653676898
0
LINE
8
0
10
71.4966664
20
0.653676898
11
71.5667498
21
0.288933676
0
LINE
8
0
10
71.5667498
20
0.288933676
11
71.6368489
21
-0.0864558372
0
LINE
8
0
10
71.6368489
20
-0.0864558372
11
71.6532684
21
-0.159317106
0
LINE
8
0
10
71.6532684
20
-0.159317106
11
71.6735012
21
-0.251462354
0
LINE
8
0
10
71.6735012
20
-0.251462354
11
71.7291895
21
-0.580059737
0
LINE
8
0
10
71.7291895
20
-0.580059737
11
71.7759595
21
-0.8633603
0
LINE
8
0
10
71.7759595
20
-0.8633603
11
71.8017684
21
-0.997124773
0
LINE
8
0
10
71.8017684
20
-0.997124773
11
71.8268345
21
-1.13024643
0
LINE
8
0
10
71.8268345
20
-1.13024643
11
71.862227
21
-1.39450574
0
LINE
8
0
10
71.862227
20
-1.39450574
11
71.9008061
21
-1.6896495
0
LINE
8
0
10
71.9008061
20
-1.6896495
11
71.9157192
21
-1.78963933
0
LINE
8
0
10
71.9157192
20
-1.78963933
11
71.9272641
21
-1.86882514
0
LINE
8
0
10
71.9272641
20
-1.86882514
11
71.9529033
21
-2.16197394
0
LINE
8
0
10
71.9529033
20
-2.16197394
11
71.9827966
21
-2.51167988
0
LINE
8
0
10
71.9827966
20
-2.51167988
11
71.9835778
21
-2.53876149
0
LINE
8
0
10
71.9835778
20
-2.53876149
11
71.9956176
21
-2.93686243
0
LINE
8
0
10
71.9956176
20
-2.93686243
11
71.9996461
21
-3.06835379
0
LINE
8
0
10
71.9996461
20
-3.06835379
11
72
21
-3.07859514
0
LINE
8
0
10
72
20
-3.07859514
11
72
21
-5.96174209
0
LINE
8
0
10
72
20
-5.96174209
11
72
21
-7.22297977
0
LINE
8
0
10
72
20
-7.22297977
11
72
21
-8.58945566
0
LINE
8
0
10
72
20
-8.58945566
11
72
21
-9.57350655
0
LINE
8
0
10
72
20
-9.57350655
11
72
21
-10.1431175
0
LINE
8
0
10
72
20
-10.1431175
11
72
21
-10.6394449
0
LINE
8
0
10
72
20
-10.6394449
11
72
21
-11.0199489
0
LINE
8
0
10
72
20
-11.0199489
11
72
21
-11.3021121
0
LINE
8
0
10
72
20
-11.3021121
11
72
21
-11.6017143
0
LINE
8
0
10
72
20
-11.6017143
11
72
21
-11.6562128
0
LINE
8
0
10
72
20
-11.6562128
11
72
21
-13.5
0
LINE
8
0
10
72
20
-13.5
11
71.9765929
21
-13.6777854
0
LINE
8
0
10
71.9765929
20
-13.6777854
11
71.91481
21
-14.14705
0
LINE
8
0
10
71.91481
20
-14.14705
11
71.8461879
21
-14.3127183
0
LINE
8
0
10
71.8461879
20
-14.3127183
11
71.66506
21
-14.75
0
LINE
8
0
10
71.66506
20
-14.75
11
71.5558994
21
-14.892264
0
LINE
8
0
10
71.5558994
20
-14.892264
11
71.26777
21
-15.26777
0
LINE
8
0
10
71.26777
20
-15.26777
11
71.125506
21
-15.3769306
0
LINE
8
0
10
71.125506
20
-15.3769306
11
70.75
21
-15.66506
0
LINE
8
0
10
70.75
20
-15.66506
11
70.5843317
21
-15.7336821
0
LINE
8
0
10
70.5843317
20
-15.7336821
11
70.14705
21
-15.91481
0
LINE
8
0
10
70.14705
20
-15.91481
11
69.6777854
21
-15.9765929
0
LINE
8
0
10
69.6777854
20
-15.9765929
11
69.5
21
-16
0
LINE
8
0
10
69.5
20
-16
11
68.140129
21
-16
0
LINE
8
0
10
68.140129
20
-16
11
58.8
21
-16
0
LINE
8
0
10
58.8
20
-16
11
58.750095
21
-15.9989718
0
LINE
8
0
10
58.750095
20
-15.9989718
11
58.73836
21
-15.99873
0
LINE
8
0
10
58.73836
20
-15.99873
11
58.6886264
21
-15.9956605
0
LINE
8
0
10
58.6886264
20
-15.9956605
11
58.67679
21
-15.99493
0
LINE
8
0
10
58.67679
20
-15.99493
11
58.6650454
21
-15.9937185
0
LINE
8
0
10
58.6650454
20
-15.9937185
11
58.5751991
21
-15.9772814
0
LINE
8
0
10
58.5751991
20
-15.9772814
11
58.4723827
21
-15.9594198
0
LINE
8
0
10
58.4723827
20
-15.9594198
11
58.4577713
21
-15.9578616
0
LINE
8
0
10
58.4577713
20
-15.9578616
11
58.3492473
21
-15.9259108
0
LINE
8
0
10
58.3492473
20
-15.9259108
11
58.0765314
21
-15.8129482
0
LINE
8
0
10
58.0765314
20
-15.8129482
11
57.9687186
21
-15.7371346
0
LINE
8
0
10
57.9687186
20
-15.7371346
11
57.7415795
21
-15.5628431
0
LINE
8
0
10
57.7415795
20
-15.5628431
11
57.6942732
21
-15.5073355
0
LINE
8
0
10
57.6942732
20
-15.5073355
11
57.5227571
21
-15.2838134
0
LINE
8
0
10
57.5227571
20
-15.2838134
11
57.4813648
21
-15.2118459
0
LINE
8
0
10
57.4813648
20
-15.2118459
11
57.37538
21
-14.9559759
0
LINE
8
0
10
57.37538
20
-14.9559759
11
57.3463703
21
-14.8683915
0
LINE
8
0
10
57.3463703
20
-14.8683915
11
57.3302381
21
-14.7748652
0
LINE
8
0
10
57.3302381
20
-14.7748652
11
57.3
21
-14.5
0
LINE
8
0
10
57.3
20
-14.5
11
57.3
21
-14.2222952
0
LINE
8
0
10
57.3
20
-14.2222952
11
57.3
21
-14.17729
0
LINE
8
0
10
57.3
20
-14.17729
11
57.3
21
-11.6029537
0
LINE
8
0
10
57.3
20
-11.6029537
11
57.3
21
-11.3975646
0
LINE
8
0
10
57.3
20
-11.3975646
11
57.3
21
-11.1065087
0
LINE
8
0
10
57.3
20
-11.1065087
11
57.3
21
-10.8817581
0
LINE
8
0
10
57.3
20
-10.8817581
11
57.3
21
-10.4797866
0
LINE
8
0
10
57.3
20
-10.4797866
11
57.3
21
-9.92565528
0
LINE
8
0
10
57.3
20
-9.92565528
11
57.3
21
-9.18653802
0
LINE
8
0
10
57.3
20
-9.18653802
11
57.3
21
-8.23376708
0
LINE
8
0
10
57.3
20
-8.23376708
11
57.3
21
-7.0567701
0
LINE
8
0
10
57.3
20
-7.0567701
11
57.3
21
-5.68558941
0
LINE
8
0
10
57.3
20
-5.68558941
11
57.3
21
-4.21630542
0
LINE
8
0
10
57.3
20
-4.21630542
11
57.3
21
-2.82025734
0
LINE
8
0
10
57.3
20
-2.82025734
11
57.3
21
3.9006184
0
LINE
8
0
10
57.3
20
3.9006184
11
57.3
21
4.64100084
0
LINE
8
0
10
57.3
20
4.64100084
11
57.3
21
5.59758673
0
LINE
8
0
10
57.3
20
5.59758673
11
57.3
21
6.63039889
0
LINE
8
0
10
57.3
20
6.63039889
11
57.3
21
7.60204261
0
LINE
8
0
10
57.3
20
7.60204261
11
57.3
21
8.42227034
0
LINE
8
0
10
57.3
20
8.42227034
11
57.3
21
9.05721347
0
LINE
8
0
10
57.3
20
9.05721347
11
57.3
21
10
0
LINE
8
0
10
57.3
20
10
11
60.2810501
21
10
0
LINE
8
0
10
60.2810501
20
10
11
62
21
10
0
LINE
8
0
10
62
20
10
11
62
21
12.9774434
0
LINE
8
0
10
62
20
12.9774434
11
62
21
13.2803191
0
LINE
8
0
10
62
20
13.2803191
11
62
21
13.633154
0
LINE
8
0
10
62
20
13.633154
11
62
21
14.0049033
0
LINE
8
0
10
62
20
14.0049033
11
62
21
14.3488751
0
LINE
8
0
10
62
20
14.3488751
11
62
21
14.6122504
0
LINE
8
0
10
62
20
14.6122504
11
62
21
17.3072256
0
LINE
8
0
10
62
20
17.3072256
11
62
21
17.5708524
0
LINE
8
0
10
62
20
17.5708524
11
62
21
17.9289953
0
LINE
8
0
10
62
20
17.9289953
11
62
21
22.4
0
LINE
8
0
10
62
20
22.4
11
62.4603082
21
22.8144634
0
LINE
8
0
10
62.4603082
20
22.8144634
11
62.88849
21
23.2
0
LINE
8
0
10
62.88849
20
23.2
11
63.5598122
21
23.2
0
LINE
8
0
10
63.5598122
20
23.2
11
64.3762646
21
23.2
0
LINE
8
0
10
64.3762646
20
23.2
11
64.9
21
23.2
0
LINE
8
0
10
64.9
20
23.2
11
64.9
21
24.9607427
0
LINE
8
0
10
64.9
20
24.9607427
11
64.9
21
25.235345
0
LINE
8
0
10
64.9
20
25.235345
11
64.912018
21
25.3824916
0
LINE
8
0
10
64.912018
20
25.3824916
11
64.91704
21
25.4439781
0
LINE
8
0
10
64.91704
20
25.4439781
11
64.9467699
21
25.5596861
0
LINE
8
0
10
64.9467699
20
25.5596861
11
64.96699
21
25.6383871
0
LINE
8
0
10
64.96699
20
25.6383871
11
65.0064852
21
25.7213686
0
LINE
8
0
10
65.0064852
20
25.7213686
11
65.04645
21
25.8053342
0
LINE
8
0
10
65.04645
20
25.8053342
11
65.0894694
21
25.8585558
0
LINE
8
0
10
65.0894694
20
25.8585558
11
65.15
21
25.9334389
0
LINE
8
0
10
65.15
20
25.9334389
11
65.1928031
21
25.9620222
0
LINE
8
0
10
65.1928031
20
25.9620222
11
65.27059
21
26.0139701
0
LINE
8
0
10
65.27059
20
26.0139701
11
65.361269
21
26.034915
0
LINE
8
0
10
65.361269
20
26.034915
11
65.4
21
26.0431475
0
LINE
8
0
10
65.4
20
26.0431475
11
70.3011285
21
26.0469818
0
LINE
8
0
10
70.3011285
20
26.0469818
11
72
21
26.0469818
0
LINE
8
0
10
72
20
26.0469818
11
72
21
24.2790243
0
LINE
8
0
10
72
20
24.2790243
11
72
21
19.5465415
0
LINE
8
0
10
72
20
19.5465415
11
72
21
17.4756838
0
LINE
8
0
10
72
20
17.4756838
11
72
21
17.1485505
0
LINE
8
0
10
72
20
17.1485505
11
67.1377036
21
17.1485505
0
LINE
8
0
10
67.1377036
20
17.1485505
11
64.2
21
17.1471746
0
LINE
8
0
10
64.2
20
17.1471746
11
64.2
21
16.7719826
0
LINE
8
0
10
64.2
20
16.7719826
11
64.2
21
16.6962094
0
LINE
8
0
10
64.2
20
16.6962094
11
64.2
21
16.3000893
0
LINE
8
0
10
64.2
20
16.3000893
11
64.2
21
16.1884096
0
LINE
8
0
10
64.2
20
16.1884096
11
64.2
21
15.8892273
0
LINE
8
0
10
64.2
20
15.8892273
11
64.2
21
15.5877251
0
LINE
8
0
10
64.2
20
15.5877251
11
64.2
21
15.47683
0
LINE
8
0
10
64.2
20
15.47683
11
64.2
21
15.0713362
0
LINE
8
0
10
64.2
20
15.0713362
11
64.2
21
14.9993584
0
LINE
8
0
10
64.2
20
14.9993584
11
64.2
21
14.6540978
0
LINE
8
0
10
64.2
20
14.6540978
11
70.040972
21
14.6407807
0
LINE
8
0
10
70.040972
20
14.6407807
11
72
21
14.6447537
0
LINE
8
0
10
72
20
14.6447537
11
72
21
12.3688434
0
LINE
8
0
10
72
20
12.3688434
11
72
21
11.6079873
0
LINE
8
0
10
72
20
11.6079873
11
72
21
11.5270929
0
LINE
8
0
10
72
20
11.5270929
11
72
21
11.4268091
0
LINE
8
0
10
72
20
11.4268091
11
71.9972399
21
11.3343001
0
LINE
8
0
10
71.9972399
20
11.3343001
11
71.9619498
21
10.460046
0
LINE
8
0
10
71.9619498
20
10.460046
11
71.9398372
21
10.2225277
0
LINE
8
0
10
71.9398372
20
10.2225277
11
71.9001871
21
9.73341137
0
LINE
8
0
10
71.9001871
20
9.73341137
11
71.8147278
21
9.11743998
0
LINE
8
0
10
71.8147278
20
9.11743998
11
71.7704404
21
8.74949371
0
LINE
8
0
10
71.7704404
20
8.74949371
11
71.6620737
21
8.12779214
0
LINE
8
0
10
71.6620737
20
8.12779214
11
71.5868123
21
7.61333208
0
LINE
8
0
10
71.5868123
20
7.61333208
11
71.5108218
21
7.22631502
0
LINE
8
0
10
71.5108218
20
7.22631502
11
71.4139581
21
6.60968434
0
LINE
8
0
10
71.4139581
20
6.60968434
11
71.3796841
21
6.39249096
0
LINE
8
0
10
71.3796841
20
6.39249096
11
71.3562506
21
6.19313712
0
LINE
8
0
10
71.3562506
20
6.19313712
11
71.2669872
21
5.60985236
0
LINE
8
0
10
71.2669872
20
5.60985236
11
71.2320028
21
5.26180525
0
LINE
8
0
10
71.2320028
20
5.26180525
11
71.2320028
21
5.26180525
0
LINE
8
0
10
35.2
20
-12.42104
11
35.2
21
-12.1103459
0
LINE
8
0
10
35.2
20
-12.1103459
11
35.2
21
-11.657409
0
LINE
8
0
10
35.2
20
-11.657409
11
35.2
21
-11.0319141
0
LINE
8
0
10
35.2
20
-11.0319141
11
35.2
21
-10.2125636
0
LINE
8
0
10
35.2
20
-10.2125636
11
35.2
21
-9.20425917
0
LINE
8
0
10
35.2
20
-9.20425917
11
35.2
21
-8.06039797
0
LINE
8
0
10
35.2
20
-8.06039797
11
35.2
21
-6.89709759
0
LINE
8
0
10
35.2
20
-6.89709759
11
35.2
21
-5.87719425
0
LINE
8
0
10
35.2
20
-5.87719425
11
35.2
21
0.474447436
0
LINE
8
0
10
35.2
20
0.474447436
11
35.2
21
1.50633296
0
LINE
8
0
10
35.2
20
1.50633296
11
35.2
21
2.76091027
0
LINE
8
0
10
35.2
20
2.76091027
11
35.2
21
4.05203526
0
LINE
8
0
10
35.2
20
4.05203526
11
35.2
21
5.23378428
0
LINE
8
0
10
35.2
20
5.23378428
11
35.2
21
6.22811461
0
LINE
8
0
10
35.2
20
6.22811461
11
35.2
21
9.45192833
0
LINE
8
0
10
35.2
20
9.45192833
11
35.2
21
10
0
LINE
8
0
10
35.2
20
10
11
30.8869075
21
10
0
LINE
8
0
10
30.8869075
20
10
11
30.2
21
10
0
LINE
8
0
10
30.2
20
10
11
30.2
21
11.4776519
0
LINE
8
0
10
30.2
20
11.4776519
11
30.2
21
11.53281
0
LINE
8
0
10
30.2
20
11.53281
11
30.2
21
11.6856216
0
LINE
8
0
10
30.2
20
11.6856216
11
30.2
21
11.69043
0
LINE
8
0
10
30.2
20
11.69043
11
30.2
21
11.8913055
0
LINE
8
0
10
30.2
20
11.8913055
11
30.2
21
11.89597
0
LINE
8
0
10
30.2
20
11.89597
11
30.2
21
12.1313493
0
LINE
8
0
10
30.2
20
12.1313493
11
30.2
21
12.13557
0
LINE
8
0
10
30.2
20
12.13557
11
30.2
21
12.3889456
0
LINE
8
0
10
30.2
20
12.3889456
11
30.2
21
12.39302
0
LINE
8
0
10
30.2
20
12.39302
11
30.2
21
12.6464123
0
LINE
8
0
10
30.2
20
12.6464123
11
30.2
21
12.65094
0
LINE
8
0
10
30.2
20
12.65094
11
30.2
21
14.9690737
0
LINE
8
0
10
30.2
20
14.9690737
11
30.2
21
15
0
LINE
8
0
10
30.2
20
15
11
28.2264482
21
15
0
LINE
8
0
10
28.2264482
20
15
11
28.2
21
15
0
LINE
8
0
10
28.2
20
15
11
28.2
21
14.8150029
0
LINE
8
0
10
28.2
20
14.8150029
11
28.2
21
12.2538716
0
LINE
8
0
10
28.2
20
12.2538716
11
28.2
21
11.9892653
0
LINE
8
0
10
28.2
20
11.9892653
11
28.2
21
10.1687614
0
LINE
8
0
10
28.2
20
10.1687614
11
28.2
21
9.22483967
0
LINE
8
0
10
28.2
20
9.22483967
11
28.2
21
8.81227419
0
LINE
8
0
10
28.2
20
8.81227419
11
28.2
21
8.24432818
0
LINE
8
0
10
28.2
20
8.24432818
11
28.2
21
7.53400366
0
LINE
8
0
10
28.2
20
7.53400366
11
28.2
21
6.79826046
0
LINE
8
0
10
28.2
20
6.79826046
11
28.2
21
6.26964177
0
LINE
8
0
10
28.2
20
6.26964177
11
28.2
21
-10.3471713
0
LINE
8
0
10
28.2
20
-10.3471713
11
28.2
21
-10.8590344
0
LINE
8
0
10
28.2
20
-10.8590344
11
28.2
21
-11.4957293
0
LINE
8
0
10
28.2
20
-11.4957293
11
28.2
21
-12.0742481
0
LINE
8
0
10
28.2
20
-12.0742481
11
28.2
21
-12.5176001
0
LINE
8
0
10
28.2
20
-12.5176001
11
28.2
21
-12.8283929
0
LINE
8
0
10
28.2
20
-12.8283929
11
28.2
21
-13.0365201
0
LINE
8
0
10
28.2
20
-13.0365201
11
28.2
21
-13.1721328
0
LINE
8
0
10
28.2
20
-13.1721328
11
28.2
21
-13.2581949
0
LINE
8
0
10
28.2
20
-13.2581949
11
28.2
21
-13.3105771
0
LINE
8
0
10
28.2
20
-13.3105771
11
28.2
21
-13.3398627
0
LINE
8
0
10
28.2
20
-13.3398627
11
28.2
21
-13.5
0
LINE
8
0
10
28.2
20
-13.5
11
28.2116883
21
-13.7378821
0
LINE
8
0
10
28.2116883
20
-13.7378821
11
28.21204
21
-13.74504
0
LINE
8
0
10
28.21204
20
-13.74504
11
28.2163109
21
-13.7685114
0
LINE
8
0
10
28.2163109
20
-13.7685114
11
28.2503409
21
-13.9975975
0
LINE
8
0
10
28.2503409
20
-13.9975975
11
28.3823424
21
-14.4332666
0
LINE
8
0
10
28.3823424
20
-14.4332666
11
28.4012503
21
-14.4789141
0
LINE
8
0
10
28.4012503
20
-14.4789141
11
28.6129303
21
-14.8754219
0
LINE
8
0
10
28.6129303
20
-14.8754219
11
28.6515588
21
-14.9257646
0
LINE
8
0
10
28.6515588
20
-14.9257646
11
28.93223
21
-15.26777
0
LINE
8
0
10
28.93223
20
-15.26777
11
29.2520043
21
-15.530197
0
LINE
8
0
10
29.2520043
20
-15.530197
11
29.3327309
21
-15.5921392
0
LINE
8
0
10
29.3327309
20
-15.5921392
11
29.6878733
21
-15.7823705
0
LINE
8
0
10
29.6878733
20
-15.7823705
11
29.8017998
21
-15.8295604
0
LINE
8
0
10
29.8017998
20
-15.8295604
11
30.1769028
21
-15.9437131
0
LINE
8
0
10
30.1769028
20
-15.9437131
11
30.5359015
21
-15.9783949
0
LINE
8
0
10
30.5359015
20
-15.9783949
11
30.6368704
21
-15.9937819
0
LINE
8
0
10
30.6368704
20
-15.9937819
11
30.7
21
-16
0
LINE
8
0
10
30.7
20
-16
11
32.2610188
21
-16
0
LINE
8
0
10
32.2610188
20
-16
11
32.7
21
-16
0
LINE
8
0
10
32.7
20
-16
11
33.0974779
21
-15.9608496
0
LINE
8
0
10
33.0974779
20
-15.9608496
11
33.2792296
21
-15.9306243
0
LINE
8
0
10
33.2792296
20
-15.9306243
11
33.4857806
21
-15.8677197
0
LINE
8
0
10
33.4857806
20
-15.8677197
11
33.8186034
21
-15.7298601
0
LINE
8
0
10
33.8186034
20
-15.7298601
11
34.0154028
21
-15.624391
0
LINE
8
0
10
34.0154028
20
-15.624391
11
34.289427
21
-15.4141295
0
LINE
8
0
10
34.289427
20
-15.4141295
11
34.46777
21
-15.26777
0
LINE
8
0
10
34.46777
20
-15.26777
11
34.6270365
21
-15.0736995
0
LINE
8
0
10
34.6270365
20
-15.0736995
11
34.8208045
21
-14.8211705
0
LINE
8
0
10
34.8208045
20
-14.8211705
11
34.9414108
21
-14.5951816
0
LINE
8
0
10
34.9414108
20
-14.5951816
11
35.0593258
21
-14.3105096
0
LINE
8
0
10
35.0593258
20
-14.3105096
11
35.1347949
21
-14.0613437
0
LINE
8
0
10
35.1347949
20
-14.0613437
11
35.1543522
21
-13.9297381
0
LINE
8
0
10
35.1543522
20
-13.9297381
11
35.1609355
21
-13.7967094
0
LINE
8
0
10
35.1609355
20
-13.7967094
11
35.1832903
21
-13.6269162
0
LINE
8
0
10
35.1832903
20
-13.6269162
11
35.1983467
21
-13.5336476
0
LINE
8
0
10
35.1983467
20
-13.5336476
11
35.2
21
-13.5
0
LINE
8
0
10
35.2
20
-13.5
11
35.2
21
-12.7306636
0
LINE
8
0
10
35.2
20
-12.7306636
11
35.2
21
-12.6193302
0
LINE
8
0
10
35.2
20
-12.6193302
11
35.2
21
-12.42104
0
LINE
8
0
10
35.2
20
-12.42104
11
35.2
21
-12.42104
0
ENDSEC
0
EOF
