0
SECTION
2
ENTITIES
0
LINE
8
0
10
16
20
43.8914311
11
16
21
44.0441447
0
LINE
8
0
10
16
20
44.0441447
11
16
21
45.2
0
LINE
8
0
10
16
20
45.2
11
16
21
49.3448865
0
LINE
8
0
10
16
20
49.3448865
11
16
21
50.2
0
LINE
8
0
10
16
20
50.2
11
14.1598204
21
50.2
0
LINE
8
0
10
14.1598204
20
50.2
11
13.9749269
21
50.2
0
LINE
8
0
10
13.9749269
20
50.2
11
12.7579409
21
50.2
0
LINE
8
0
10
12.7579409
20
50.2
11
12.6319625
21
50.2
0
LINE
8
0
10
12.6319625
20
50.2
11
12.4534898
21
50.2
0
LINE
8
0
10
12.4534898
20
50.2
11
12.1956826
21
50.2
0
LINE
8
0
10
12.1956826
20
50.2
11
12.0171088
21
50.2
0
LINE
8
0
10
12.0171088
20
50.2
11
11.8000538
21
50.2
0
LINE
8
0
10
11.8000538
20
50.2
11
11.5730687
21
50.2
0
LINE
8
0
10
11.5730687
20
50.2
11
11.38101
21
50.2
0
LINE
8
0
10
11.38101
20
50.2
11
11.2663151
21
50.2
0
LINE
8
0
10
11.2663151
20
50.2
11
9.46164005
21
50.2
0
LINE
8
0
10
9.46164005
20
50.2
11
8.99671713
21
50.2
0
LINE
8
0
10
8.99671713
20
50.2
11
8.45929586
21
50.2
0
LINE
8
0
10
8.45929586
20
50.2
11
7.94398042
21
50.2
0
LINE
8
0
10
7.94398042
20
50.2
11
7.50373155
21
50.2
0
LINE
8
0
10
7.50373155
20
50.2
11
7.1558732
21
50.2
0
LINE
8
0
10
7.1558732
20
50.2
11
6.89767013
21
50.2
0
LINE
8
0
10
6.89767013
20
50.2
11
4.4
21
50.2
0
LINE
8
0
10
4.4
20
50.2
11
3.96931208
21
50.1432975
0
LINE
8
0
10
3.96931208
20
50.1432975
11
3.882362
21
50.13185
0
LINE
8
0
10
3.882362
20
50.13185
11
3.4810246
21
49.9656113
0
LINE
8
0
10
3.4810246
20
49.9656113
11
3.4
21
49.93205
0
LINE
8
0
10
3.4
20
49.93205
11
3.05536346
21
49.6675991
0
LINE
8
0
10
3.05536346
20
49.6675991
11
2.985786
21
49.61421
0
LINE
8
0
10
2.985786
20
49.61421
11
2.72133757
21
49.2695768
0
LINE
8
0
10
2.72133757
20
49.2695768
11
2.667949
21
49.2
0
LINE
8
0
10
2.667949
20
49.2
11
2.50170951
21
48.7986643
0
LINE
8
0
10
2.50170951
20
48.7986643
11
2.468148
21
48.71764
0
LINE
8
0
10
2.468148
20
48.71764
11
2.41144714
21
48.2869504
0
LINE
8
0
10
2.41144714
20
48.2869504
11
2.4
21
48.2
0
LINE
8
0
10
2.4
20
48.2
11
2.4
21
47.696076
0
LINE
8
0
10
2.4
20
47.696076
11
2.4
21
43.9575632
0
LINE
8
0
10
2.4
20
43.9575632
11
2.4
21
43.4851587
0
LINE
8
0
10
2.4
20
43.4851587
11
2.4
21
43.3927242
0
LINE
8
0
10
2.4
20
43.3927242
11
2.4
21
43.29954
0
LINE
8
0
10
2.4
20
43.29954
11
2.4
21
42.8495767
0
LINE
8
0
10
2.4
20
42.8495767
11
2.4
21
42.7551709
0
LINE
8
0
10
2.4
20
42.7551709
11
2.4
21
41.2061441
0
LINE
8
0
10
2.4
20
41.2061441
11
2.4
21
40.7933277
0
LINE
8
0
10
2.4
20
40.7933277
11
2.4
21
40.4510646
0
LINE
8
0
10
2.4
20
40.4510646
11
2.4
21
40.193322
0
LINE
8
0
10
2.4
20
40.193322
11
2.4
21
36.2817639
0
LINE
8
0
10
2.4
20
36.2817639
11
2.4
21
36.0416715
0
LINE
8
0
10
2.4
20
36.0416715
11
2.4
21
35.8698703
0
LINE
8
0
10
2.4
20
35.8698703
11
2.4
21
33.5368263
0
LINE
8
0
10
2.4
20
33.5368263
11
2.4
21
28.6838222
0
LINE
8
0
10
2.4
20
28.6838222
11
2.4
21
24.660949
0
LINE
8
0
10
2.4
20
24.660949
11
2.4
21
16.934639
0
LINE
8
0
10
2.4
20
16.934639
11
13.7830678
21
16.9346448
0
LINE
8
0
10
13.7830678
20
16.9346448
11
13.8
21
16.9346448
0
LINE
8
0
10
13.8
20
16.9346448
11
14.1914877
21
16.9645703
0
LINE
8
0
10
14.1914877
20
16.9645703
11
14.19207
21
16.9646148
0
LINE
8
0
10
14.19207
20
16.9646148
11
14.5797833
21
17.0540817
0
LINE
8
0
10
14.5797833
20
17.0540817
11
14.58036
21
17.0542148
0
LINE
8
0
10
14.58036
20
17.0542148
11
14.9605744
21
17.2023844
0
LINE
8
0
10
14.9605744
20
17.2023844
11
14.96114
21
17.2026048
0
LINE
8
0
10
14.96114
20
17.2026048
11
15.3301811
21
17.4080293
0
LINE
8
0
10
15.3301811
20
17.4080293
11
15.33073
21
17.4083348
0
LINE
8
0
10
15.33073
20
17.4083348
11
15.6850629
21
17.669047
0
LINE
8
0
10
15.6850629
20
17.669047
11
15.68559
21
17.6694348
0
LINE
8
0
10
15.68559
20
17.6694348
11
16.0217799
21
17.9829285
0
LINE
8
0
10
16.0217799
20
17.9829285
11
16.02228
21
17.9833948
0
LINE
8
0
10
16.02228
20
17.9833948
11
16.3371017
21
18.3466345
0
LINE
8
0
10
16.3371017
20
18.3466345
11
16.33757
21
18.3471748
0
LINE
8
0
10
16.33757
20
18.3471748
11
16.627998
21
18.7566857
0
LINE
8
0
10
16.627998
20
18.7566857
11
16.62843
21
18.7572948
0
LINE
8
0
10
16.62843
20
18.7572948
11
17.1251411
21
19.6988842
0
LINE
8
0
10
17.1251411
20
19.6988842
11
17.12588
21
19.7002848
0
LINE
8
0
10
17.12588
20
19.7002848
11
17.494971
21
20.7745469
0
LINE
8
0
10
17.494971
20
20.7745469
11
17.49552
21
20.7761448
0
LINE
8
0
10
17.49552
20
20.7761448
11
17.7228019
21
21.941781
0
LINE
8
0
10
17.7228019
20
21.941781
11
17.72314
21
21.9435148
0
LINE
8
0
10
17.72314
20
21.9435148
11
17.7998858
21
23.1557417
0
LINE
8
0
10
17.7998858
20
23.1557417
11
17.8
21
23.1575448
0
LINE
8
0
10
17.8
20
23.1575448
11
17.8
21
25.7969887
0
LINE
8
0
10
17.8
20
25.7969887
11
17.8
21
25.8029167
0
LINE
8
0
10
17.8
20
25.8029167
11
17.8
21
25.8079232
0
LINE
8
0
10
17.8
20
25.8079232
11
17.8
21
25.8159586
0
LINE
8
0
10
17.8
20
25.8159586
11
17.8
21
25.8296044
0
LINE
8
0
10
17.8
20
25.8296044
11
17.8
21
25.8551061
0
LINE
8
0
10
17.8
20
25.8551061
11
17.8
21
25.9118547
0
LINE
8
0
10
17.8
20
25.9118547
11
17.8
21
39.8037872
0
LINE
8
0
10
17.8
20
39.8037872
11
17.8
21
40.3049808
0
LINE
8
0
10
17.8
20
40.3049808
11
17.8
21
41.1350102
0
LINE
8
0
10
17.8
20
41.1350102
11
17.7097557
21
41.1350102
0
LINE
8
0
10
17.7097557
20
41.1350102
11
16
21
41.1350102
0
LINE
8
0
10
16
20
41.1350102
11
16
21
41.2037353
0
LINE
8
0
10
16
20
41.2037353
11
16
21
41.2104529
0
LINE
8
0
10
16
20
41.2104529
11
16
21
42.5660075
0
LINE
8
0
10
16
20
42.5660075
11
16
21
42.6671032
0
LINE
8
0
10
16
20
42.6671032
11
16
21
43.8914311
0
LINE
8
0
10
16
20
43.8914311
11
16
21
43.8914311
0
LINE
8
0
10
35.2
20
-9.49499274
11
35.2
21
-8.42854749
0
LINE
8
0
10
35.2
20
-8.42854749
11
35.2
21
-7.34397869
0
LINE
8
0
10
35.2
20
-7.34397869
11
35.2
21
-6.39310189
0
LINE
8
0
10
35.2
20
-6.39310189
11
35.2
21
1.11913202
0
LINE
8
0
10
35.2
20
1.11913202
11
35.2
21
2.08118005
0
LINE
8
0
10
35.2
20
2.08118005
11
35.2
21
3.25084821
0
LINE
8
0
10
35.2
20
3.25084821
11
35.2
21
4.45459051
0
LINE
8
0
10
35.2
20
4.45459051
11
35.2
21
5.55635935
0
LINE
8
0
10
35.2
20
5.55635935
11
35.2
21
6.48339391
0
LINE
8
0
10
35.2
20
6.48339391
11
35.2
21
9.48902155
0
LINE
8
0
10
35.2
20
9.48902155
11
35.2
21
10
0
LINE
8
0
10
35.2
20
10
11
30.8404179
21
10
0
LINE
8
0
10
30.8404179
20
10
11
30.2
21
10
0
LINE
8
0
10
30.2
20
10
11
30.2
21
11.4935791
0
LINE
8
0
10
30.2
20
11.4935791
11
30.2
21
11.53281
0
LINE
8
0
10
30.2
20
11.53281
11
30.2
21
11.6874975
0
LINE
8
0
10
30.2
20
11.6874975
11
30.2
21
11.69043
0
LINE
8
0
10
30.2
20
11.69043
11
30.2
21
11.8937989
0
LINE
8
0
10
30.2
20
11.8937989
11
30.2
21
11.89597
0
LINE
8
0
10
30.2
20
11.89597
11
30.2
21
12.1342963
0
LINE
8
0
10
30.2
20
12.1342963
11
30.2
21
12.13557
0
LINE
8
0
10
30.2
20
12.13557
11
30.2
21
12.3921354
0
LINE
8
0
10
30.2
20
12.3921354
11
30.2
21
12.39302
0
LINE
8
0
10
30.2
20
12.39302
11
30.2
21
12.6496086
0
LINE
8
0
10
30.2
20
12.6496086
11
30.2
21
12.65094
0
LINE
8
0
10
30.2
20
12.65094
11
30.2
21
14.9982632
0
LINE
8
0
10
30.2
20
14.9982632
11
30.2
21
15
0
LINE
8
0
10
30.2
20
15
11
28.2014853
21
15
0
LINE
8
0
10
28.2014853
20
15
11
28.2
21
15
0
LINE
8
0
10
28.2
20
15
11
28.2
21
14.9896109
0
LINE
8
0
10
28.2
20
14.9896109
11
28.2
21
12.3628095
0
LINE
8
0
10
28.2
20
12.3628095
11
28.2
21
12.0914184
0
LINE
8
0
10
28.2
20
12.0914184
11
28.2
21
10.2242349
0
LINE
8
0
10
28.2
20
10.2242349
11
28.2
21
9.67930155
0
LINE
8
0
10
28.2
20
9.67930155
11
28.2
21
9.44112428
0
LINE
8
0
10
28.2
20
9.44112428
11
28.2
21
9.11324462
0
LINE
8
0
10
28.2
20
9.11324462
11
28.2
21
8.70316873
0
LINE
8
0
10
28.2
20
8.70316873
11
28.2
21
8.27841844
0
LINE
8
0
10
28.2
20
8.27841844
11
28.2
21
7.97324275
0
LINE
8
0
10
28.2
20
7.97324275
11
28.2
21
-11.6798474
0
LINE
8
0
10
28.2
20
-11.6798474
11
28.2
21
-11.9753499
0
LINE
8
0
10
28.2
20
-11.9753499
11
28.2
21
-12.3429189
0
LINE
8
0
10
28.2
20
-12.3429189
11
28.2
21
-12.6769023
0
LINE
8
0
10
28.2
20
-12.6769023
11
28.2
21
-12.9328529
0
LINE
8
0
10
28.2
20
-12.9328529
11
28.2
21
-13.112276
0
LINE
8
0
10
28.2
20
-13.112276
11
28.2
21
-13.2324294
0
LINE
8
0
10
28.2
20
-13.2324294
11
28.2
21
-13.3107197
0
LINE
8
0
10
28.2
20
-13.3107197
11
28.2
21
-13.360404
0
LINE
8
0
10
28.2
20
-13.360404
11
28.2
21
-13.3906447
0
LINE
8
0
10
28.2
20
-13.3906447
11
28.2
21
-13.4075515
0
LINE
8
0
10
28.2
20
-13.4075515
11
28.2
21
-13.5
0
LINE
8
0
10
28.2
20
-13.5
11
28.2118337
21
-13.7408421
0
LINE
8
0
10
28.2118337
20
-13.7408421
11
28.21204
21
-13.74504
0
LINE
8
0
10
28.21204
20
-13.74504
11
28.2145447
21
-13.7588053
0
LINE
8
0
10
28.2145447
20
-13.7588053
11
28.2494473
21
-13.9937654
0
LINE
8
0
10
28.2494473
20
-13.9937654
11
28.3848335
21
-14.4406054
0
LINE
8
0
10
28.3848335
20
-14.4406054
11
28.3978223
21
-14.4719632
0
LINE
8
0
10
28.3978223
20
-14.4719632
11
28.6149301
21
-14.8786378
0
LINE
8
0
10
28.6149301
20
-14.8786378
11
28.6443621
21
-14.9169952
0
LINE
8
0
10
28.6443621
20
-14.9169952
11
28.93223
21
-15.26777
0
LINE
8
0
10
28.93223
20
-15.26777
11
29.2602036
21
-15.5369259
0
LINE
8
0
10
29.2602036
20
-15.5369259
11
29.329724
21
-15.5902695
0
LINE
8
0
10
29.329724
20
-15.5902695
11
29.6939726
21
-15.7853785
0
LINE
8
0
10
29.6939726
20
-15.7853785
11
29.79536
21
-15.8273745
0
LINE
8
0
10
29.79536
20
-15.8273745
11
30.180081
21
-15.9444542
0
LINE
8
0
10
30.180081
20
-15.9444542
11
30.5482849
21
-15.9800253
0
LINE
8
0
10
30.5482849
20
-15.9800253
11
30.6416344
21
-15.9942512
0
LINE
8
0
10
30.6416344
20
-15.9942512
11
30.7
21
-16
0
LINE
8
0
10
30.7
20
-16
11
32.2781255
21
-16
0
LINE
8
0
10
32.2781255
20
-16
11
32.7
21
-16
0
LINE
8
0
10
32.7
20
-16
11
33.1013123
21
-15.9604719
0
LINE
8
0
10
33.1013123
20
-15.9604719
11
33.2753422
21
-15.9315307
0
LINE
8
0
10
33.2753422
20
-15.9315307
11
33.4937324
21
-15.8650206
0
LINE
8
0
10
33.4937324
20
-15.8650206
11
33.8110718
21
-15.7335743
0
LINE
8
0
10
33.8110718
20
-15.7335743
11
34.0191516
21
-15.6220599
0
LINE
8
0
10
34.0191516
20
-15.6220599
11
34.2792046
21
-15.4225187
0
LINE
8
0
10
34.2792046
20
-15.4225187
11
34.46777
21
-15.26777
0
LINE
8
0
10
34.46777
20
-15.26777
11
34.6361655
21
-15.0625756
0
LINE
8
0
10
34.6361655
20
-15.0625756
11
34.8182678
21
-14.8252499
0
LINE
8
0
10
34.8182678
20
-14.8252499
11
34.9457872
21
-14.5863075
0
LINE
8
0
10
34.9457872
20
-14.5863075
11
35.0561455
21
-14.319879
0
LINE
8
0
10
35.0561455
20
-14.319879
11
35.1359404
21
-14.0564311
0
LINE
8
0
10
35.1359404
20
-14.0564311
11
35.1566187
21
-13.9172821
0
LINE
8
0
10
35.1566187
20
-13.9172821
11
35.1635794
21
-13.7766283
0
LINE
8
0
10
35.1635794
20
-13.7766283
11
35.1844212
21
-13.6183265
0
LINE
8
0
10
35.1844212
20
-13.6183265
11
35.1984586
21
-13.5313703
0
LINE
8
0
10
35.1984586
20
-13.5313703
11
35.2
21
-13.5
0
LINE
8
0
10
35.2
20
-13.5
11
35.2
21
-12.7827319
0
LINE
8
0
10
35.2
20
-12.7827319
11
35.2
21
-12.6789335
0
LINE
8
0
10
35.2
20
-12.6789335
11
35.2
21
-12.4940634
0
LINE
8
0
10
35.2
20
-12.4940634
11
35.2
21
-12.204397
0
LINE
8
0
10
35.2
20
-12.204397
11
35.2
21
-11.7821146
0
LINE
8
0
10
35.2
20
-11.7821146
11
35.2
21
-11.1989529
0
LINE
8
0
10
35.2
20
-11.1989529
11
35.2
21
-10.4350557
0
LINE
8
0
10
35.2
20
-10.4350557
11
35.2
21
-9.49499274
0
LINE
8
0
10
35.2
20
-9.49499274
11
35.2
21
-9.49499274
0
LINE
8
0
10
72
20
-11.4508641
11
72
21
-11.1877975
0
LINE
8
0
10
72
20
-11.1877975
11
72
21
-10.8330458
0
LINE
8
0
10
72
20
-10.8330458
11
72
21
-10.3703096
0
LINE
8
0
10
72
20
-10.3703096
11
72
21
-9.83924965
0
LINE
8
0
10
72
20
-9.83924965
11
72
21
-8.92179882
0
LINE
8
0
10
72
20
-8.92179882
11
72
21
-7.64780532
0
LINE
8
0
10
72
20
-7.64780532
11
72
21
-6.47192758
0
LINE
8
0
10
72
20
-6.47192758
11
72
21
-3.73646403
0
LINE
8
0
10
72
20
-3.73646403
11
72
21
-2.8026083
0
LINE
8
0
10
72
20
-2.8026083
11
71.9882016
21
-2.41249134
0
LINE
8
0
10
71.9882016
20
-2.41249134
11
71.9825248
21
-2.2156817
0
LINE
8
0
10
71.9825248
20
-2.2156817
11
71.9674977
21
-2.0398885
0
LINE
8
0
10
71.9674977
20
-2.0398885
11
71.9467316
21
-1.80245627
0
LINE
8
0
10
71.9467316
20
-1.80245627
11
71.9355446
21
-1.65657223
0
LINE
8
0
10
71.9355446
20
-1.65657223
11
71.9259981
21
-1.53504172
0
LINE
8
0
10
71.9259981
20
-1.53504172
11
71.8893082
21
-1.25435095
0
LINE
8
0
10
71.8893082
20
-1.25435095
11
71.8492118
21
-0.954970452
0
LINE
8
0
10
71.8492118
20
-0.954970452
11
71.837003
21
-0.848477383
0
LINE
8
0
10
71.837003
20
-0.848477383
11
71.8233975
21
-0.732886451
0
LINE
8
0
10
71.8233975
20
-0.732886451
11
71.7716144
21
-0.419220316
0
LINE
8
0
10
71.7716144
20
-0.419220316
11
71.7273682
21
-0.158138902
0
LINE
8
0
10
71.7273682
20
-0.158138902
11
71.7025162
21
0.0187529741
0
LINE
8
0
10
71.7025162
20
0.0187529741
11
71.6654812
21
0.274875525
0
LINE
8
0
10
71.6654812
20
0.274875525
11
71.628256
21
0.474221159
0
LINE
8
0
10
71.628256
20
0.474221159
11
71.603903
21
0.600964092
0
LINE
8
0
10
71.603903
20
0.600964092
11
71.5497623
21
0.957067068
0
LINE
8
0
10
71.5497623
20
0.957067068
11
71.4906502
21
1.33363197
0
LINE
8
0
10
71.4906502
20
1.33363197
11
71.476494
21
1.45611457
0
LINE
8
0
10
71.476494
20
1.45611457
11
71.4345081
21
1.80586473
0
LINE
8
0
10
71.4345081
20
1.80586473
11
71.4076708
21
1.98925781
0
LINE
8
0
10
71.4076708
20
1.98925781
11
71.398468
21
2.04983637
0
LINE
8
0
10
71.398468
20
2.04983637
11
71.3469326
21
2.57345958
0
LINE
8
0
10
71.3469326
20
2.57345958
11
71.3278515
21
2.75813156
0
LINE
8
0
10
71.3278515
20
2.75813156
11
71.3054054
21
3.21228148
0
LINE
8
0
10
71.3054054
20
3.21228148
11
71.2917562
21
3.46681489
0
LINE
8
0
10
71.2917562
20
3.46681489
11
71.2920876
21
3.93310148
0
LINE
8
0
10
71.2920876
20
3.93310148
11
71.2913942
21
4.18451955
0
LINE
8
0
10
71.2913942
20
4.18451955
11
71.3223528
21
4.78246693
0
LINE
8
0
10
71.3223528
20
4.78246693
11
71.3291123
21
4.92045039
0
LINE
8
0
10
71.3291123
20
4.92045039
11
71.3689578
21
5.30872632
0
LINE
8
0
10
71.3689578
20
5.30872632
11
71.3980929
21
5.68422373
0
LINE
8
0
10
71.3980929
20
5.68422373
11
71.4234043
21
5.89745782
0
LINE
8
0
10
71.4234043
20
5.89745782
11
71.4926943
21
6.48692492
0
LINE
8
0
10
71.4926943
20
6.48692492
11
71.5900813
21
7.10406206
0
LINE
8
0
10
71.5900813
20
7.10406206
11
71.6179667
21
7.3421226
0
LINE
8
0
10
71.6179667
20
7.3421226
11
71.7033921
21
7.92506441
0
LINE
8
0
10
71.7033921
20
7.92506441
11
71.7533732
21
8.26671669
0
LINE
8
0
10
71.7533732
20
8.26671669
11
71.7713575
21
8.36989319
0
LINE
8
0
10
71.7713575
20
8.36989319
11
71.8811106
21
9.28173947
0
LINE
8
0
10
71.8811106
20
9.28173947
11
71.9003907
21
9.42070581
0
LINE
8
0
10
71.9003907
20
9.42070581
11
71.9528815
21
10.0682235
0
LINE
8
0
10
71.9528815
20
10.0682235
11
71.9757759
21
10.3507582
0
LINE
8
0
10
71.9757759
20
10.3507582
11
71.9765362
21
10.3797825
0
LINE
8
0
10
71.9765362
20
10.3797825
11
71.9776221
21
10.4200924
0
LINE
8
0
10
71.9776221
20
10.4200924
11
72
21
11.1701297
0
LINE
8
0
10
72
20
11.1701297
11
72
21
12.1641624
0
LINE
8
0
10
72
20
12.1641624
11
72
21
12.9660024
0
LINE
8
0
10
72
20
12.9660024
11
72
21
14.4126985
0
LINE
8
0
10
72
20
14.4126985
11
66.6109257
21
14.4032127
0
LINE
8
0
10
66.6109257
20
14.4032127
11
64.2
21
14.4079421
0
LINE
8
0
10
64.2
20
14.4079421
11
64.2
21
14.5771331
0
LINE
8
0
10
64.2
20
14.5771331
11
64.2
21
14.6412174
0
LINE
8
0
10
64.2
20
14.6412174
11
64.2
21
15.1333793
0
LINE
8
0
10
64.2
20
15.1333793
11
64.2
21
15.2951689
0
LINE
8
0
10
64.2
20
15.2951689
11
64.2
21
15.5398025
0
LINE
8
0
10
64.2
20
15.5398025
11
64.2
21
15.7167652
0
LINE
8
0
10
64.2
20
15.7167652
11
64.2
21
15.8908304
0
LINE
8
0
10
64.2
20
15.8908304
11
64.2
21
16.0635563
0
LINE
8
0
10
64.2
20
16.0635563
11
64.2
21
16.2405514
0
LINE
8
0
10
64.2
20
16.2405514
11
64.2
21
16.4785471
0
LINE
8
0
10
64.2
20
16.4785471
11
64.2
21
16.6422264
0
LINE
8
0
10
64.2
20
16.6422264
11
64.2
21
17.1119647
0
LINE
8
0
10
64.2
20
17.1119647
11
64.2
21
17.1864379
0
LINE
8
0
10
64.2
20
17.1864379
11
64.2
21
17.3017446
0
LINE
8
0
10
64.2
20
17.3017446
11
64.2
21
17.4170504
0
LINE
8
0
10
64.2
20
17.4170504
11
64.8292665
21
17.4170504
0
LINE
8
0
10
64.8292665
20
17.4170504
11
72
21
17.4170504
0
LINE
8
0
10
72
20
17.4170504
11
72
21
19.4292778
0
LINE
8
0
10
72
20
19.4292778
11
72
21
24.702995
0
LINE
8
0
10
72
20
24.702995
11
72
21
25.7535485
0
LINE
8
0
10
72
20
25.7535485
11
68.3123424
21
25.7535485
0
LINE
8
0
10
68.3123424
20
25.7535485
11
65.4
21
25.7512701
0
LINE
8
0
10
65.4
20
25.7512701
11
65.3235429
21
25.7350186
0
LINE
8
0
10
65.3235429
20
25.7350186
11
65.27059
21
25.7227876
0
LINE
8
0
10
65.27059
20
25.7227876
11
65.2251656
21
25.6924521
0
LINE
8
0
10
65.2251656
20
25.6924521
11
65.15
21
25.6422577
0
LINE
8
0
10
65.15
20
25.6422577
11
65.1166687
21
25.6010231
0
LINE
8
0
10
65.1166687
20
25.6010231
11
65.04645
21
25.5141519
0
LINE
8
0
10
65.04645
20
25.5141519
11
65.0270641
21
25.4734223
0
LINE
8
0
10
65.0270641
20
25.4734223
11
64.96699
21
25.3472035
0
LINE
8
0
10
64.96699
20
25.3472035
11
64.959627
21
25.3185453
0
LINE
8
0
10
64.959627
20
25.3185453
11
64.91704
21
25.1527975
0
LINE
8
0
10
64.91704
20
25.1527975
11
64.9164134
21
25.1451262
0
LINE
8
0
10
64.9164134
20
25.1451262
11
64.9117776
21
25.0883659
0
LINE
8
0
10
64.9117776
20
25.0883659
11
64.900501
21
24.9412866
0
LINE
8
0
10
64.900501
20
24.9412866
11
64.9
21
24.9324205
0
LINE
8
0
10
64.9
20
24.9324205
11
64.9
21
23.2
0
LINE
8
0
10
64.9
20
23.2
11
64.4596354
21
23.2
0
LINE
8
0
10
64.4596354
20
23.2
11
63.4676473
21
23.2
0
LINE
8
0
10
63.4676473
20
23.2
11
62.88849
21
23.2
0
LINE
8
0
10
62.88849
20
23.2
11
62.3682499
21
22.7315737
0
LINE
8
0
10
62.3682499
20
22.7315737
11
62
21
22.4
0
LINE
8
0
10
62
20
22.4
11
62
21
17.4042261
0
LINE
8
0
10
62
20
17.4042261
11
62
21
17.0040474
0
LINE
8
0
10
62
20
17.0040474
11
62
21
16.7094783
0
LINE
8
0
10
62
20
16.7094783
11
62
21
15.1535978
0
LINE
8
0
10
62
20
15.1535978
11
62
21
14.8593097
0
LINE
8
0
10
62
20
14.8593097
11
62
21
14.4749653
0
LINE
8
0
10
62
20
14.4749653
11
62
21
14.0595832
0
LINE
8
0
10
62
20
14.0595832
11
62
21
13.6653356
0
LINE
8
0
10
62
20
13.6653356
11
62
21
13.3269108
0
LINE
8
0
10
62
20
13.3269108
11
62
21
10
0
LINE
8
0
10
62
20
10
11
60.0792941
21
10
0
LINE
8
0
10
60.0792941
20
10
11
57.3
21
10
0
LINE
8
0
10
57.3
20
10
11
57.3
21
9.12102078
0
LINE
8
0
10
57.3
20
9.12102078
11
57.3
21
8.52905028
0
LINE
8
0
10
57.3
20
8.52905028
11
57.3
21
7.76433515
0
LINE
8
0
10
57.3
20
7.76433515
11
57.3
21
6.85845179
0
LINE
8
0
10
57.3
20
6.85845179
11
57.3
21
5.89553984
0
LINE
8
0
10
57.3
20
5.89553984
11
57.3
21
5.0036952
0
LINE
8
0
10
57.3
20
5.0036952
11
57.3
21
4.31342146
0
LINE
8
0
10
57.3
20
4.31342146
11
57.3
21
-3.54305693
0
LINE
8
0
10
57.3
20
-3.54305693
11
57.3
21
-4.84462118
0
LINE
8
0
10
57.3
20
-4.84462118
11
57.3
21
-6.21446477
0
LINE
8
0
10
57.3
20
-6.21446477
11
57.3
21
-7.49284464
0
LINE
8
0
10
57.3
20
-7.49284464
11
57.3
21
-8.59018306
0
LINE
8
0
10
57.3
20
-8.59018306
11
57.3
21
-9.47847094
0
LINE
8
0
10
57.3
20
-9.47847094
11
57.3
21
-10.1675651
0
LINE
8
0
10
57.3
20
-10.1675651
11
57.3
21
-10.6841932
0
LINE
8
0
10
57.3
20
-10.6841932
11
57.3
21
-11.0589594
0
LINE
8
0
10
57.3
20
-11.0589594
11
57.3
21
-11.2903637
0
LINE
8
0
10
57.3
20
-11.2903637
11
57.3
21
-11.5618565
0
LINE
8
0
10
57.3
20
-11.5618565
11
57.3
21
-11.772512
0
LINE
8
0
10
57.3
20
-11.772512
11
57.3
21
-14.17729
0
LINE
8
0
10
57.3
20
-14.17729
11
57.3
21
-14.219331
0
LINE
8
0
10
57.3
20
-14.219331
11
57.3
21
-14.5
0
LINE
8
0
10
57.3
20
-14.5
11
57.3305608
21
-14.7777992
0
LINE
8
0
10
57.3305608
20
-14.7777992
11
57.345711
21
-14.8656318
0
LINE
8
0
10
57.345711
20
-14.8656318
11
57.3787561
21
-14.9653997
0
LINE
8
0
10
57.3787561
20
-14.9653997
11
57.478639
21
-15.2065385
0
LINE
8
0
10
57.478639
20
-15.2065385
11
57.5257892
21
-15.288517
0
LINE
8
0
10
57.5257892
20
-15.288517
11
57.6880042
21
-15.4999178
0
LINE
8
0
10
57.6880042
20
-15.4999178
11
57.741891
21
-15.5631467
0
LINE
8
0
10
57.741891
20
-15.5631467
11
57.9574119
21
-15.7285232
0
LINE
8
0
10
57.9574119
20
-15.7285232
11
58.080222
21
-15.8148829
0
LINE
8
0
10
58.080222
20
-15.8148829
11
58.34055
21
-15.9227142
0
LINE
8
0
10
58.34055
20
-15.9227142
11
58.4641703
21
-15.9591096
0
LINE
8
0
10
58.4641703
20
-15.9591096
11
58.4808143
21
-15.9608846
0
LINE
8
0
10
58.4808143
20
-15.9608846
11
58.5793896
21
-15.9780093
0
LINE
8
0
10
58.5793896
20
-15.9780093
11
58.6655298
21
-15.9937684
0
LINE
8
0
10
58.6655298
20
-15.9937684
11
58.67679
21
-15.99493
0
LINE
8
0
10
58.67679
20
-15.99493
11
58.6881382
21
-15.9956304
0
LINE
8
0
10
58.6881382
20
-15.9956304
11
58.73836
21
-15.99873
0
LINE
8
0
10
58.73836
20
-15.99873
11
58.7496033
21
-15.9989617
0
LINE
8
0
10
58.7496033
20
-15.9989617
11
58.8
21
-16
0
LINE
8
0
10
58.8
20
-16
11
68.2321644
21
-16
0
LINE
8
0
10
68.2321644
20
-16
11
69.5
21
-16
0
LINE
8
0
10
69.5
20
-16
11
69.665753
21
-15.9781771
0
LINE
8
0
10
69.665753
20
-15.9781771
11
70.14705
21
-15.91481
0
LINE
8
0
10
70.14705
20
-15.91481
11
70.595544
21
-15.7290378
0
LINE
8
0
10
70.595544
20
-15.7290378
11
70.75
21
-15.66506
0
LINE
8
0
10
70.75
20
-15.66506
11
71.1351343
21
-15.3695427
0
LINE
8
0
10
71.1351343
20
-15.3695427
11
71.26777
21
-15.26777
0
LINE
8
0
10
71.26777
20
-15.26777
11
71.5632873
21
-14.8826357
0
LINE
8
0
10
71.5632873
20
-14.8826357
11
71.66506
21
-14.75
0
LINE
8
0
10
71.66506
20
-14.75
11
71.8508322
21
-14.301506
0
LINE
8
0
10
71.8508322
20
-14.301506
11
71.91481
21
-14.14705
0
LINE
8
0
10
71.91481
20
-14.14705
11
71.9781771
21
-13.665753
0
LINE
8
0
10
71.9781771
20
-13.665753
11
72
21
-13.5
0
LINE
8
0
10
72
20
-13.5
11
72
21
-11.7809994
0
LINE
8
0
10
72
20
-11.7809994
11
72
21
-11.7301893
0
LINE
8
0
10
72
20
-11.7301893
11
72
21
-11.4508641
0
LINE
8
0
10
72
20
-11.4508641
11
72
21
-11.4508641
0
ENDSEC
0
EOF
