0
SECTION
2
ENTITIES
0
LINE
8
0
10
16
20
43.8735665
11
16
21
42.58358
0
LINE
8
0
10
16
20
42.58358
11
16
21
42.529772
0
LINE
8
0
10
16
20
42.529772
11
16
21
41.753243
0
LINE
8
0
10
16
20
41.753243
11
16.7759649
21
41.753243
0
LINE
8
0
10
16.7759649
20
41.753243
11
17.8
21
41.753243
0
LINE
8
0
10
17.8
20
41.753243
11
17.8
21
41.2569064
0
LINE
8
0
10
17.8
20
41.2569064
11
17.8
21
40.4301894
0
LINE
8
0
10
17.8
20
40.4301894
11
17.8
21
39.9600738
0
LINE
8
0
10
17.8
20
39.9600738
11
17.8
21
26.7527674
0
LINE
8
0
10
17.8
20
26.7527674
11
17.6062855
21
26.7527676
0
LINE
8
0
10
17.6062855
20
26.7527676
11
17.2108591
21
26.7527685
0
LINE
8
0
10
17.2108591
20
26.7527685
11
16
21
26.7527685
0
LINE
8
0
10
16
20
26.7527685
11
16
21
25.6407322
0
LINE
8
0
10
16
20
25.6407322
11
16
21
25.5460174
0
LINE
8
0
10
16
20
25.5460174
11
16
21
25.5012313
0
LINE
8
0
10
16
20
25.5012313
11
16
21
25.4816414
0
LINE
8
0
10
16
20
25.4816414
11
16
21
25.4761589
0
LINE
8
0
10
16
20
25.4761589
11
16.7705173
21
25.4761587
0
LINE
8
0
10
16.7705173
20
25.4761587
11
18.4638303
21
25.4761587
0
LINE
8
0
10
18.4638303
20
25.4761587
11
29
21
25.4761587
0
LINE
8
0
10
29
20
25.4761587
11
29.0471957
21
25.3938753
0
LINE
8
0
10
29.0471957
20
25.3938753
11
30.1649123
21
23.4451922
0
LINE
8
0
10
30.1649123
20
23.4451922
11
30.2
21
23.3840193
0
LINE
8
0
10
30.2
20
23.3840193
11
30.2
21
15.2875686
0
LINE
8
0
10
30.2
20
15.2875686
11
30.2
21
14.759169
0
LINE
8
0
10
30.2
20
14.759169
11
30.2
21
13.7766659
0
LINE
8
0
10
30.2
20
13.7766659
11
30.2
21
12.9406539
0
LINE
8
0
10
30.2
20
12.9406539
11
29.7308187
21
12.9406539
0
LINE
8
0
10
29.7308187
20
12.9406539
11
28.2
21
12.9406539
0
LINE
8
0
10
28.2
20
12.9406539
11
28.2
21
13.7766659
0
LINE
8
0
10
28.2
20
13.7766659
11
28.2
21
14.759169
0
LINE
8
0
10
28.2
20
14.759169
11
28.2
21
16.2829063
0
LINE
8
0
10
28.2
20
16.2829063
11
28.2
21
16.6609481
0
LINE
8
0
10
28.2
20
16.6609481
11
14.9698658
21
16.6609481
0
LINE
8
0
10
14.9698658
20
16.6609481
11
12.8738562
21
16.6609481
0
LINE
8
0
10
12.8738562
20
16.6609481
11
2.4
21
16.6609427
0
LINE
8
0
10
2.4
20
16.6609427
11
2.4
21
24.5804105
0
LINE
8
0
10
2.4
20
24.5804105
11
2.4
21
28.7038555
0
LINE
8
0
10
2.4
20
28.7038555
11
2.4
21
33.6781847
0
LINE
8
0
10
2.4
20
33.6781847
11
2.4
21
35.7460695
0
LINE
8
0
10
2.4
20
35.7460695
11
2.4
21
35.8983449
0
LINE
8
0
10
2.4
20
35.8983449
11
2.4
21
36.1111498
0
LINE
8
0
10
2.4
20
36.1111498
11
2.4
21
40.162885
0
LINE
8
0
10
2.4
20
40.162885
11
2.4
21
40.4017497
0
LINE
8
0
10
2.4
20
40.4017497
11
2.4
21
40.7189444
0
LINE
8
0
10
2.4
20
40.7189444
11
2.4
21
41.1015249
0
LINE
8
0
10
2.4
20
41.1015249
11
2.4
21
42.7284479
0
LINE
8
0
10
2.4
20
42.7284479
11
2.4
21
42.8276011
0
LINE
8
0
10
2.4
20
42.8276011
11
2.4
21
43.2499332
0
LINE
8
0
10
2.4
20
43.2499332
11
2.4
21
43.3481148
0
LINE
8
0
10
2.4
20
43.3481148
11
2.4
21
43.4455064
0
LINE
8
0
10
2.4
20
43.4455064
11
2.4
21
43.8894043
0
LINE
8
0
10
2.4
20
43.8894043
11
2.4
21
47.8330083
0
LINE
8
0
10
2.4
20
47.8330083
11
2.4
21
48.2
0
LINE
8
0
10
2.4
20
48.2
11
2.40833658
21
48.2633232
0
LINE
8
0
10
2.40833658
20
48.2633232
11
2.468148
21
48.71764
0
LINE
8
0
10
2.468148
20
48.71764
11
2.49258977
21
48.7766474
0
LINE
8
0
10
2.49258977
20
48.7766474
11
2.667949
21
49.2
0
LINE
8
0
10
2.667949
20
49.2
11
2.70683018
21
49.2506705
0
LINE
8
0
10
2.70683018
20
49.2506705
11
2.985786
21
49.61421
0
LINE
8
0
10
2.985786
20
49.61421
11
3.03645703
21
49.6530915
0
LINE
8
0
10
3.03645703
20
49.6530915
11
3.4
21
49.93205
0
LINE
8
0
10
3.4
20
49.93205
11
3.45900761
21
49.9564916
0
LINE
8
0
10
3.45900761
20
49.9564916
11
3.882362
21
50.13185
0
LINE
8
0
10
3.882362
20
50.13185
11
3.94568495
21
50.1401868
0
LINE
8
0
10
3.94568495
20
50.1401868
11
4.4
21
50.2
0
LINE
8
0
10
4.4
20
50.2
11
6.21897288
21
50.2
0
LINE
8
0
10
6.21897288
20
50.2
11
6.40701387
21
50.2
0
LINE
8
0
10
6.40701387
20
50.2
11
6.66034793
21
50.2
0
LINE
8
0
10
6.66034793
20
50.2
11
6.98096703
21
50.2
0
LINE
8
0
10
6.98096703
20
50.2
11
7.35625471
21
50.2
0
LINE
8
0
10
7.35625471
20
50.2
11
7.74764135
21
50.2
0
LINE
8
0
10
7.74764135
20
50.2
11
8.08622977
21
50.2
0
LINE
8
0
10
8.08622977
20
50.2
11
11.737413
21
50.2
0
LINE
8
0
10
11.737413
20
50.2
11
11.8209416
21
50.2
0
LINE
8
0
10
11.8209416
20
50.2
11
11.9608118
21
50.2
0
LINE
8
0
10
11.9608118
20
50.2
11
12.1261177
21
50.2
0
LINE
8
0
10
12.1261177
20
50.2
11
12.2841919
21
50.2
0
LINE
8
0
10
12.2841919
20
50.2
11
12.4142415
21
50.2
0
LINE
8
0
10
12.4142415
20
50.2
11
12.7752158
21
50.2
0
LINE
8
0
10
12.7752158
20
50.2
11
12.9080941
21
50.2
0
LINE
8
0
10
12.9080941
20
50.2
11
13.0018889
21
50.2
0
LINE
8
0
10
13.0018889
20
50.2
11
14.5134172
21
50.2
0
LINE
8
0
10
14.5134172
20
50.2
11
14.6491454
21
50.2
0
LINE
8
0
10
14.6491454
20
50.2
11
16
21
50.2
0
LINE
8
0
10
16
20
50.2
11
16
21
49.5722711
0
LINE
8
0
10
16
20
49.5722711
11
16
21
45.2
0
LINE
8
0
10
16
20
45.2
11
16
21
43.9807355
0
LINE
8
0
10
16
20
43.9807355
11
16
21
43.8735665
0
LINE
8
0
10
16
20
43.8735665
11
16
21
43.8735665
0
LINE
8
0
10
35.2
20
-12.7385368
11
35.2
21
-12.8348002
0
LINE
8
0
10
35.2
20
-12.8348002
11
35.2
21
-13.5
0
LINE
8
0
10
35.2
20
-13.5
11
35.1985705
21
-13.5290931
0
LINE
8
0
10
35.1985705
20
-13.5290931
11
35.1855521
21
-13.6097369
0
LINE
8
0
10
35.1855521
20
-13.6097369
11
35.1662232
21
-13.7565471
0
LINE
8
0
10
35.1662232
20
-13.7565471
11
35.1588852
21
-13.904826
0
LINE
8
0
10
35.1588852
20
-13.904826
11
35.1370859
21
-14.0515185
0
LINE
8
0
10
35.1370859
20
-14.0515185
11
35.0529652
21
-14.3292483
0
LINE
8
0
10
35.0529652
20
-14.3292483
11
34.9501635
21
-14.5774335
0
LINE
8
0
10
34.9501635
20
-14.5774335
11
34.8157312
21
-14.8293293
0
LINE
8
0
10
34.8157312
20
-14.8293293
11
34.6452945
21
-15.0514517
0
LINE
8
0
10
34.6452945
20
-15.0514517
11
34.46777
21
-15.26777
0
LINE
8
0
10
34.46777
20
-15.26777
11
34.2689822
21
-15.4309078
0
LINE
8
0
10
34.2689822
20
-15.4309078
11
34.0229004
21
-15.6197288
0
LINE
8
0
10
34.0229004
20
-15.6197288
11
33.8035403
21
-15.7372886
0
LINE
8
0
10
33.8035403
20
-15.7372886
11
33.5016843
21
-15.8623214
0
LINE
8
0
10
33.5016843
20
-15.8623214
11
33.2714548
21
-15.9324372
0
LINE
8
0
10
33.2714548
20
-15.9324372
11
33.1051466
21
-15.9600942
0
LINE
8
0
10
33.1051466
20
-15.9600942
11
32.7
21
-16
0
LINE
8
0
10
32.7
20
-16
11
32.2952323
21
-16
0
LINE
8
0
10
32.2952323
20
-16
11
30.7
21
-16
0
LINE
8
0
10
30.7
20
-16
11
30.6463983
21
-15.9947204
0
LINE
8
0
10
30.6463983
20
-15.9947204
11
30.5606682
21
-15.9816557
0
LINE
8
0
10
30.5606682
20
-15.9816557
11
30.1832593
21
-15.9451953
0
LINE
8
0
10
30.1832593
20
-15.9451953
11
29.7889203
21
-15.8251886
0
LINE
8
0
10
29.7889203
20
-15.8251886
11
29.7000719
21
-15.7883864
0
LINE
8
0
10
29.7000719
20
-15.7883864
11
29.326717
21
-15.5883997
0
LINE
8
0
10
29.326717
20
-15.5883997
11
29.268403
21
-15.5436548
0
LINE
8
0
10
29.268403
20
-15.5436548
11
28.93223
21
-15.26777
0
LINE
8
0
10
28.93223
20
-15.26777
11
28.6371654
21
-14.9082258
0
LINE
8
0
10
28.6371654
20
-14.9082258
11
28.6169298
21
-14.8818537
0
LINE
8
0
10
28.6169298
20
-14.8818537
11
28.3943944
21
-14.4650123
0
LINE
8
0
10
28.3943944
20
-14.4650123
11
28.3873246
21
-14.4479443
0
LINE
8
0
10
28.3873246
20
-14.4479443
11
28.2485538
21
-13.9899333
0
LINE
8
0
10
28.2485538
20
-13.9899333
11
28.2127786
21
-13.7490991
0
LINE
8
0
10
28.2127786
20
-13.7490991
11
28.21204
21
-13.74504
0
LINE
8
0
10
28.21204
20
-13.74504
11
28.2119792
21
-13.7438021
0
LINE
8
0
10
28.2119792
20
-13.7438021
11
28.2
21
-13.5
0
LINE
8
0
10
28.2
20
-13.5
11
28.2
21
-13.4752403
0
LINE
8
0
10
28.2
20
-13.4752403
11
28.2
21
-13.4707123
0
LINE
8
0
10
28.2
20
-13.4707123
11
28.2
21
-13.4626132
0
LINE
8
0
10
28.2
20
-13.4626132
11
28.2
21
-13.4493066
0
LINE
8
0
10
28.2
20
-13.4493066
11
28.2
21
-13.4283388
0
LINE
8
0
10
28.2
20
-13.4283388
11
28.2
21
-13.3961591
0
LINE
8
0
10
28.2
20
-13.3961591
11
28.2
21
-13.3481056
0
LINE
8
0
10
28.2
20
-13.3481056
11
28.2
21
-13.2795565
0
LINE
8
0
10
28.2
20
-13.2795565
11
28.2
21
-13.1901085
0
LINE
8
0
10
28.2
20
-13.1901085
11
28.2
21
-13.0916655
0
LINE
8
0
10
28.2
20
-13.0916655
11
28.2
21
-13.0125235
0
LINE
8
0
10
28.2
20
-13.0125235
11
28.2
21
9.67684373
0
LINE
8
0
10
28.2
20
9.67684373
11
28.2
21
9.75857642
0
LINE
8
0
10
28.2
20
9.75857642
11
28.2
21
9.8723338
0
LINE
8
0
10
28.2
20
9.8723338
11
28.2
21
9.98216106
0
LINE
8
0
10
28.2
20
9.98216106
11
28.2
21
10.0699744
0
LINE
8
0
10
28.2
20
10.0699744
11
28.2
21
10.1337634
0
LINE
8
0
10
28.2
20
10.1337634
11
28.2
21
10.2797085
0
LINE
8
0
10
28.2
20
10.2797085
11
28.2
21
11.0191996
0
LINE
8
0
10
28.2
20
11.0191996
11
28.2
21
11.479282
0
LINE
8
0
10
28.2
20
11.479282
11
28.2
21
11.8576122
0
LINE
8
0
10
28.2
20
11.8576122
11
28.5732393
21
11.8576122
0
LINE
8
0
10
28.5732393
20
11.8576122
11
30.2
21
11.8576122
0
LINE
8
0
10
30.2
20
11.8576122
11
30.2
21
11.69043
0
LINE
8
0
10
30.2
20
11.69043
11
30.2
21
11.6893733
0
LINE
8
0
10
30.2
20
11.6893733
11
30.2
21
11.53281
0
LINE
8
0
10
30.2
20
11.53281
11
30.2
21
11.5095063
0
LINE
8
0
10
30.2
20
11.5095063
11
30.2
21
10
0
LINE
8
0
10
30.2
20
10
11
30.7939284
21
10
0
LINE
8
0
10
30.7939284
20
10
11
35.2
21
10
0
LINE
8
0
10
35.2
20
10
11
35.2
21
9.52611476
0
LINE
8
0
10
35.2
20
9.52611476
11
35.2
21
6.73867321
0
LINE
8
0
10
35.2
20
6.73867321
11
35.2
21
5.87893442
0
LINE
8
0
10
35.2
20
5.87893442
11
35.2
21
4.85714576
0
LINE
8
0
10
35.2
20
4.85714576
11
35.2
21
3.74078614
0
LINE
8
0
10
35.2
20
3.74078614
11
35.2
21
2.65602715
0
LINE
8
0
10
35.2
20
2.65602715
11
35.2
21
1.76381661
0
LINE
8
0
10
35.2
20
1.76381661
11
35.2
21
-6.90900953
0
LINE
8
0
10
35.2
20
-6.90900953
11
35.2
21
-7.79085979
0
LINE
8
0
10
35.2
20
-7.79085979
11
35.2
21
-8.796697
0
LINE
8
0
10
35.2
20
-8.796697
11
35.2
21
-9.78572631
0
LINE
8
0
10
35.2
20
-9.78572631
11
35.2
21
-10.6575477
0
LINE
8
0
10
35.2
20
-10.6575477
11
35.2
21
-11.3659917
0
LINE
8
0
10
35.2
20
-11.3659917
11
35.2
21
-11.9068203
0
LINE
8
0
10
35.2
20
-11.9068203
11
35.2
21
-12.2984481
0
LINE
8
0
10
35.2
20
-12.2984481
11
35.2
21
-12.5670869
0
LINE
8
0
10
35.2
20
-12.5670869
11
35.2
21
-12.7385368
0
LINE
8
0
10
35.2
20
-12.7385368
11
35.2
21
-12.7385368
0
LINE
8
0
10
72
20
10.9134503
11
72
21
12.8012319
0
LINE
8
0
10
72
20
12.8012319
11
72
21
14.221815
0
LINE
8
0
10
72
20
14.221815
11
70.8030678
21
14.2198259
0
LINE
8
0
10
70.8030678
20
14.2198259
11
64.2
21
14.2327786
0
LINE
8
0
10
64.2
20
14.2327786
11
64.2
21
14.8084003
0
LINE
8
0
10
64.2
20
14.8084003
11
64.2
21
15.0264278
0
LINE
8
0
10
64.2
20
15.0264278
11
64.2
21
15.2674002
0
LINE
8
0
10
64.2
20
15.2674002
11
64.2
21
15.5190017
0
LINE
8
0
10
64.2
20
15.5190017
11
64.2
21
15.602775
0
LINE
8
0
10
64.2
20
15.602775
11
64.2
21
15.8458052
0
LINE
8
0
10
64.2
20
15.8458052
11
64.2
21
15.8924335
0
LINE
8
0
10
64.2
20
15.8924335
11
64.2
21
15.9387029
0
LINE
8
0
10
64.2
20
15.9387029
11
64.2
21
16.1810136
0
LINE
8
0
10
64.2
20
16.1810136
11
64.2
21
16.2608848
0
LINE
8
0
10
64.2
20
16.2608848
11
64.2
21
16.5124701
0
LINE
8
0
10
64.2
20
16.5124701
11
64.2
21
16.7387009
0
LINE
8
0
10
64.2
20
16.7387009
11
64.2
21
16.9615374
0
LINE
8
0
10
64.2
20
16.9615374
11
64.2
21
17.3065549
0
LINE
8
0
10
64.2
20
17.3065549
11
64.2
21
17.6515698
0
LINE
8
0
10
64.2
20
17.6515698
11
66.0828734
21
17.6515698
0
LINE
8
0
10
66.0828734
20
17.6515698
11
72
21
17.6515698
0
LINE
8
0
10
72
20
17.6515698
11
72
21
19.3120141
0
LINE
8
0
10
72
20
19.3120141
11
72
21
25.1269657
0
LINE
8
0
10
72
20
25.1269657
11
72
21
25.4601151
0
LINE
8
0
10
72
20
25.4601151
11
66.3235564
21
25.4601151
0
LINE
8
0
10
66.3235564
20
25.4601151
11
65.4
21
25.4593926
0
LINE
8
0
10
65.4
20
25.4593926
11
65.2858168
21
25.4351222
0
LINE
8
0
10
65.2858168
20
25.4351222
11
65.27059
21
25.4316052
0
LINE
8
0
10
65.27059
20
25.4316052
11
65.2575281
21
25.4228821
0
LINE
8
0
10
65.2575281
20
25.4228821
11
65.15
21
25.3510765
0
LINE
8
0
10
65.15
20
25.3510765
11
65.143868
21
25.3434904
0
LINE
8
0
10
65.143868
20
25.3434904
11
65.0676306
21
25.2491731
0
LINE
8
0
10
65.0676306
20
25.2491731
11
65.0471205
21
25.2217955
0
LINE
8
0
10
65.0471205
20
25.2217955
11
65.04645
21
25.220836
0
LINE
8
0
10
65.04645
20
25.220836
11
65.0458303
21
25.2195193
0
LINE
8
0
10
65.0458303
20
25.2195193
11
64.9681837
21
25.0436396
0
LINE
8
0
10
64.9681837
20
25.0436396
11
64.9648312
21
25.0326626
0
LINE
8
0
10
64.9648312
20
25.0326626
11
64.9199675
21
24.8450966
0
LINE
8
0
10
64.9199675
20
24.8450966
11
64.915914
21
24.8216382
0
LINE
8
0
10
64.915914
20
24.8216382
11
64.9020714
21
24.6410909
0
LINE
8
0
10
64.9020714
20
24.6410909
11
64.9
21
24.6044345
0
LINE
8
0
10
64.9
20
24.6044345
11
64.9
21
23.2
0
LINE
8
0
10
64.9
20
23.2
11
64.5430063
21
23.2
0
LINE
8
0
10
64.5430063
20
23.2
11
63.3754823
21
23.2
0
LINE
8
0
10
63.3754823
20
23.2
11
62.88849
21
23.2
0
LINE
8
0
10
62.88849
20
23.2
11
62.2761915
21
22.648684
0
LINE
8
0
10
62.2761915
20
22.648684
11
62
21
22.4
0
LINE
8
0
10
62
20
22.4
11
62
21
16.879457
0
LINE
8
0
10
62
20
16.879457
11
62
21
16.4372425
0
LINE
8
0
10
62
20
16.4372425
11
62
21
16.1117311
0
LINE
8
0
10
62
20
16.1117311
11
62
21
15.6949452
0
LINE
8
0
10
62
20
15.6949452
11
62
21
15.3697443
0
LINE
8
0
10
62
20
15.3697443
11
62
21
14.9450274
0
LINE
8
0
10
62
20
14.9450274
11
62
21
14.4860124
0
LINE
8
0
10
62
20
14.4860124
11
62
21
14.050352
0
LINE
8
0
10
62
20
14.050352
11
62
21
13.6763782
0
LINE
8
0
10
62
20
13.6763782
11
62
21
10
0
LINE
8
0
10
62
20
10
11
59.8775382
21
10
0
LINE
8
0
10
59.8775382
20
10
11
57.3
21
10
0
LINE
8
0
10
57.3
20
10
11
57.3
21
9.1848281
0
LINE
8
0
10
57.3
20
9.1848281
11
57.3
21
8.63583023
0
LINE
8
0
10
57.3
20
8.63583023
11
57.3
21
7.9266277
0
LINE
8
0
10
57.3
20
7.9266277
11
57.3
21
7.08650469
0
LINE
8
0
10
57.3
20
7.08650469
11
57.3
21
6.19349294
0
LINE
8
0
10
57.3
20
6.19349294
11
57.3
21
5.36638955
0
LINE
8
0
10
57.3
20
5.36638955
11
57.3
21
4.72622453
0
LINE
8
0
10
57.3
20
4.72622453
11
57.3
21
-4.26585652
0
LINE
8
0
10
57.3
20
-4.26585652
11
57.3
21
-5.47293694
0
LINE
8
0
10
57.3
20
-5.47293694
11
57.3
21
-6.74334013
0
LINE
8
0
10
57.3
20
-6.74334013
11
57.3
21
-7.92891919
0
LINE
8
0
10
57.3
20
-7.92891919
11
57.3
21
-8.94659905
0
LINE
8
0
10
57.3
20
-8.94659905
11
57.3
21
-9.77040387
0
LINE
8
0
10
57.3
20
-9.77040387
11
57.3
21
-10.409475
0
LINE
8
0
10
57.3
20
-10.409475
11
57.3
21
-10.8885997
0
LINE
8
0
10
57.3
20
-10.8885997
11
57.3
21
-11.2361607
0
LINE
8
0
10
57.3
20
-11.2361607
11
57.3
21
-11.4742187
0
LINE
8
0
10
57.3
20
-11.4742187
11
57.3
21
-11.7261484
0
LINE
8
0
10
57.3
20
-11.7261484
11
57.3
21
-11.9420702
0
LINE
8
0
10
57.3
20
-11.9420702
11
57.3
21
-14.17729
0
LINE
8
0
10
57.3
20
-14.17729
11
57.3
21
-14.2163667
0
LINE
8
0
10
57.3
20
-14.2163667
11
57.3
21
-14.5
0
LINE
8
0
10
57.3
20
-14.5
11
57.3308836
21
-14.7807331
0
LINE
8
0
10
57.3308836
20
-14.7807331
11
57.3450517
21
-14.8628722
0
LINE
8
0
10
57.3450517
20
-14.8628722
11
57.3821322
21
-14.9748235
0
LINE
8
0
10
57.3821322
20
-14.9748235
11
57.4759133
21
-15.2012311
0
LINE
8
0
10
57.4759133
20
-15.2012311
11
57.5288213
21
-15.2932207
0
LINE
8
0
10
57.5288213
20
-15.2932207
11
57.6817352
21
-15.4925001
0
LINE
8
0
10
57.6817352
20
-15.4925001
11
57.7422026
21
-15.5634504
0
LINE
8
0
10
57.7422026
20
-15.5634504
11
57.9461053
21
-15.7199119
0
LINE
8
0
10
57.9461053
20
-15.7199119
11
58.0839127
21
-15.8168176
0
LINE
8
0
10
58.0839127
20
-15.8168176
11
58.3318528
21
-15.9195177
0
LINE
8
0
10
58.3318528
20
-15.9195177
11
58.4705693
21
-15.9603575
0
LINE
8
0
10
58.4705693
20
-15.9603575
11
58.4892458
21
-15.9623493
0
LINE
8
0
10
58.4892458
20
-15.9623493
11
58.5835801
21
-15.9787373
0
LINE
8
0
10
58.5835801
20
-15.9787373
11
58.6660143
21
-15.9938184
0
LINE
8
0
10
58.6660143
20
-15.9938184
11
58.67679
21
-15.99493
0
LINE
8
0
10
58.67679
20
-15.99493
11
58.6876499
21
-15.9956003
0
LINE
8
0
10
58.6876499
20
-15.9956003
11
58.73836
21
-15.99873
0
LINE
8
0
10
58.73836
20
-15.99873
11
58.7491115
21
-15.9989515
0
LINE
8
0
10
58.7491115
20
-15.9989515
11
58.8
21
-16
0
LINE
8
0
10
58.8
20
-16
11
68.3241998
21
-16
0
LINE
8
0
10
68.3241998
20
-16
11
69.5
21
-16
0
LINE
8
0
10
69.5
20
-16
11
69.6537205
21
-15.9797613
0
LINE
8
0
10
69.6537205
20
-15.9797613
11
70.14705
21
-15.91481
0
LINE
8
0
10
70.14705
20
-15.91481
11
70.6067564
21
-15.7243934
0
LINE
8
0
10
70.6067564
20
-15.7243934
11
70.75
21
-15.66506
0
LINE
8
0
10
70.75
20
-15.66506
11
71.1447627
21
-15.3621547
0
LINE
8
0
10
71.1447627
20
-15.3621547
11
71.26777
21
-15.26777
0
LINE
8
0
10
71.26777
20
-15.26777
11
71.5706753
21
-14.8730073
0
LINE
8
0
10
71.5706753
20
-14.8730073
11
71.66506
21
-14.75
0
LINE
8
0
10
71.66506
20
-14.75
11
71.8554766
21
-14.2902936
0
LINE
8
0
10
71.8554766
20
-14.2902936
11
71.91481
21
-14.14705
0
LINE
8
0
10
71.91481
20
-14.14705
11
71.9797613
21
-13.6537205
0
LINE
8
0
10
71.9797613
20
-13.6537205
11
72
21
-13.5
0
LINE
8
0
10
72
20
-13.5
11
72
21
-11.905786
0
LINE
8
0
10
72
20
-11.905786
11
72
21
-11.8586643
0
LINE
8
0
10
72
20
-11.8586643
11
72
21
-11.599616
0
LINE
8
0
10
72
20
-11.599616
11
72
21
-11.3556461
0
LINE
8
0
10
72
20
-11.3556461
11
72
21
-11.0266468
0
LINE
8
0
10
72
20
-11.0266468
11
72
21
-10.5975017
0
LINE
8
0
10
72
20
-10.5975017
11
72
21
-10.1049927
0
LINE
8
0
10
72
20
-10.1049927
11
72
21
-9.25414198
0
LINE
8
0
10
72
20
-9.25414198
11
72
21
-8.07263088
0
LINE
8
0
10
72
20
-8.07263088
11
72
21
-6.98211306
0
LINE
8
0
10
72
20
-6.98211306
11
72
21
-4.44522371
0
LINE
8
0
10
72
20
-4.44522371
11
72
21
-2.52344868
0
LINE
8
0
10
72
20
-2.52344868
11
71.9928255
21
-2.2862212
0
LINE
8
0
10
71.9928255
20
-2.2862212
11
71.9822529
21
-1.91968352
0
LINE
8
0
10
71.9822529
20
-1.91968352
11
71.9820922
21
-1.91780306
0
LINE
8
0
10
71.9820922
20
-1.91780306
11
71.9818701
21
-1.91526326
0
LINE
8
0
10
71.9818701
20
-1.91526326
11
71.9510102
21
-1.512837
0
LINE
8
0
10
71.9510102
20
-1.512837
11
71.9246758
21
-1.17759078
0
LINE
8
0
10
71.9246758
20
-1.17759078
11
71.9163893
21
-1.11419617
0
LINE
8
0
10
71.9163893
20
-1.11419617
11
71.9073334
21
-1.04658043
0
LINE
8
0
10
71.9073334
20
-1.04658043
11
71.8658893
21
-0.685078049
0
LINE
8
0
10
71.8658893
20
-0.685078049
11
71.8197037
21
-0.292691975
0
LINE
8
0
10
71.8197037
20
-0.292691975
11
71.8140393
21
-0.258380896
0
LINE
8
0
10
71.8140393
20
-0.258380896
11
71.8091993
21
-0.229821915
0
LINE
8
0
10
71.8091993
20
-0.229821915
11
71.7481148
21
0.20496626
0
LINE
8
0
10
71.7481148
20
0.20496626
11
71.6984761
21
0.548251253
0
LINE
8
0
10
71.6984761
20
0.548251253
11
71.6841334
21
0.673506453
0
LINE
8
0
10
71.6841334
20
0.673506453
11
71.656248
21
0.909293642
0
LINE
8
0
10
71.656248
20
0.909293642
11
71.6164787
21
1.17087078
0
LINE
8
0
10
71.6164787
20
1.17087078
11
71.5963296
21
1.29922765
0
LINE
8
0
10
71.5963296
20
1.29922765
11
71.5496373
21
1.70322025
0
LINE
8
0
10
71.5496373
20
1.70322025
11
71.5100074
21
2.03334388
0
LINE
8
0
10
71.5100074
20
2.03334388
11
71.4917625
21
2.26696501
0
LINE
8
0
10
71.4917625
20
2.26696501
11
71.4513814
21
2.75935225
0
LINE
8
0
10
71.4513814
20
2.75935225
11
71.4466864
21
2.87745029
0
LINE
8
0
10
71.4466864
20
2.87745029
11
71.4204646
21
3.48574692
0
LINE
8
0
10
71.4204646
20
3.48574692
11
71.4204267
21
3.55849767
0
LINE
8
0
10
71.4204267
20
3.55849767
11
71.4182419
21
4.22138699
0
LINE
8
0
10
71.4182419
20
4.22138699
11
71.4233558
21
4.35101835
0
LINE
8
0
10
71.4233558
20
4.35101835
11
71.4466249
21
4.97572236
0
LINE
8
0
10
71.4466249
20
4.97572236
11
71.474754
21
5.33061821
0
LINE
8
0
10
71.474754
20
5.33061821
11
71.5079609
21
5.75859481
0
LINE
8
0
10
71.5079609
20
5.75859481
11
71.5945606
21
6.48814751
0
LINE
8
0
10
71.5945606
20
6.48814751
11
71.6027174
21
6.58135893
0
LINE
8
0
10
71.6027174
20
6.58135893
11
71.6151215
21
6.68679134
0
LINE
8
0
10
71.6151215
20
6.68679134
11
71.7054494
21
7.45793059
0
LINE
8
0
10
71.7054494
20
7.45793059
11
71.772709
21
7.91690854
0
LINE
8
0
10
71.772709
20
7.91690854
11
71.8220789
21
8.40564107
0
LINE
8
0
10
71.8220789
20
8.40564107
11
71.9007172
21
9.05886538
0
LINE
8
0
10
71.9007172
20
9.05886538
11
71.9279349
21
9.44603878
0
LINE
8
0
10
71.9279349
20
9.44603878
11
71.9758225
21
10.0370092
0
LINE
8
0
10
71.9758225
20
10.0370092
11
71.9825611
21
10.2942526
0
LINE
8
0
10
71.9825611
20
10.2942526
11
71.9921851
21
10.6515203
0
LINE
8
0
10
71.9921851
20
10.6515203
11
72
21
10.9134503
0
LINE
8
0
10
72
20
10.9134503
11
72
21
10.9134503
0
ENDSEC
0
EOF
