0
SECTION
2
ENTITIES
0
LINE
8
0
10
16
20
27.8733331
11
16
21
29.5647865
0
LINE
8
0
10
16
20
29.5647865
11
13.3284704
21
29.5647865
0
LINE
8
0
10
13.3284704
20
29.5647865
11
2.4
21
29.5647865
0
LINE
8
0
10
2.4
20
29.5647865
11
2.4
21
28.6540183
0
LINE
8
0
10
2.4
20
28.6540183
11
2.4
21
27.8733331
0
LINE
8
0
10
2.4
20
27.8733331
11
2.4
21
24.2582564
0
LINE
8
0
10
2.4
20
24.2582564
11
2.4
21
15.5661576
0
LINE
8
0
10
2.4
20
15.5661576
11
8.93491548
21
15.566161
0
LINE
8
0
10
8.93491548
20
15.566161
11
19.9453699
21
15.566161
0
LINE
8
0
10
19.9453699
20
15.566161
11
28.2
21
15.566161
0
LINE
8
0
10
28.2
20
15.566161
11
28.2
21
13.8250825
0
LINE
8
0
10
28.2
20
13.8250825
11
28.2
21
13.7428406
0
LINE
8
0
10
28.2
20
13.7428406
11
28.4368954
21
13.7428406
0
LINE
8
0
10
28.4368954
20
13.7428406
11
30.2
21
13.7428406
0
LINE
8
0
10
30.2
20
13.7428406
11
30.2
21
14.0454453
0
LINE
8
0
10
30.2
20
14.0454453
11
30.2
21
16.510614
0
LINE
8
0
10
30.2
20
16.510614
11
30.2
21
22.0720765
0
LINE
8
0
10
30.2
20
22.0720765
11
30.0156825
21
22.393421
0
LINE
8
0
10
30.0156825
20
22.393421
11
29.2479215
21
23.7319739
0
LINE
8
0
10
29.2479215
20
23.7319739
11
29
21
24.1642133
0
LINE
8
0
10
29
20
24.1642133
11
21.2871374
21
24.1642133
0
LINE
8
0
10
21.2871374
20
24.1642133
11
20.0475702
21
24.1642133
0
LINE
8
0
10
20.0475702
20
24.1642133
11
16
21
24.1642143
0
LINE
8
0
10
16
20
24.1642143
11
16
21
24.1930141
0
LINE
8
0
10
16
20
24.1930141
11
16
21
24.2959212
0
LINE
8
0
10
16
20
24.2959212
11
16
21
24.5311847
0
LINE
8
0
10
16
20
24.5311847
11
16
21
25.0287268
0
LINE
8
0
10
16
20
25.0287268
11
16
21
27.8733331
0
LINE
8
0
10
16
20
27.8733331
11
16
21
27.8733331
0
LINE
8
0
10
16
20
30.8703122
11
7.19249918
21
30.8703122
0
LINE
8
0
10
7.19249918
20
30.8703122
11
2.4
21
30.8703122
0
LINE
8
0
10
2.4
20
30.8703122
11
2.4
21
34.2436184
0
LINE
8
0
10
2.4
20
34.2436184
11
2.4
21
35.2508663
0
LINE
8
0
10
2.4
20
35.2508663
11
2.4
21
35.3250383
0
LINE
8
0
10
2.4
20
35.3250383
11
2.4
21
35.4286937
0
LINE
8
0
10
2.4
20
35.4286937
11
2.4
21
40.0411368
0
LINE
8
0
10
2.4
20
40.0411368
11
2.4
21
40.2044901
0
LINE
8
0
10
2.4
20
40.2044901
11
2.4
21
40.4214112
0
LINE
8
0
10
2.4
20
40.4214112
11
2.4
21
40.6830479
0
LINE
8
0
10
2.4
20
40.6830479
11
2.4
21
42.6215556
0
LINE
8
0
10
2.4
20
42.6215556
11
2.4
21
42.7396984
0
LINE
8
0
10
2.4
20
42.7396984
11
2.4
21
43.0515063
0
LINE
8
0
10
2.4
20
43.0515063
11
2.4
21
43.1696771
0
LINE
8
0
10
2.4
20
43.1696771
11
2.4
21
43.2868972
0
LINE
8
0
10
2.4
20
43.2868972
11
2.4
21
43.6167687
0
LINE
8
0
10
2.4
20
43.6167687
11
2.4
21
47.6499963
0
LINE
8
0
10
2.4
20
47.6499963
11
2.4
21
47.9752473
0
LINE
8
0
10
2.4
20
47.9752473
11
2.4
21
48.2318614
0
LINE
8
0
10
2.4
20
48.2318614
11
2.4298722
21
48.4534236
0
LINE
8
0
10
2.4298722
20
48.4534236
11
2.468148
21
48.7441598
0
LINE
8
0
10
2.468148
20
48.7441598
11
2.56780106
21
48.9847418
0
LINE
8
0
10
2.56780106
20
48.9847418
11
2.667949
21
49.2265192
0
LINE
8
0
10
2.667949
20
49.2265192
11
2.84775096
21
49.4608409
0
LINE
8
0
10
2.84775096
20
49.4608409
11
2.985786
21
49.6407302
0
LINE
8
0
10
2.985786
20
49.6407302
11
3.24702015
21
49.8411834
0
LINE
8
0
10
3.24702015
20
49.8411834
11
3.4
21
49.9585699
0
LINE
8
0
10
3.4
20
49.9585699
11
3.7278778
21
50.094384
0
LINE
8
0
10
3.7278778
20
50.094384
11
3.882362
21
50.1583732
0
LINE
8
0
10
3.882362
20
50.1583732
11
4.04814391
21
50.1801994
0
LINE
8
0
10
4.04814391
20
50.1801994
11
4.4
21
50.2399101
0
LINE
8
0
10
4.4
20
50.2399101
11
8.42895498
21
50.2399101
0
LINE
8
0
10
8.42895498
20
50.2399101
11
13
21
50.2399101
0
LINE
8
0
10
13
20
50.2399101
11
13.5532072
21
50.2166594
0
LINE
8
0
10
13.5532072
20
50.2166594
11
13.6822321
21
50.2160387
0
LINE
8
0
10
13.6822321
20
50.2160387
11
14.0078903
21
50.2113578
0
LINE
8
0
10
14.0078903
20
50.2113578
11
14.4056527
21
50.2057013
0
LINE
8
0
10
14.4056527
20
50.2057013
11
14.6451079
21
50.2
0
LINE
8
0
10
14.6451079
20
50.2
11
15.4631725
21
50.2
0
LINE
8
0
10
15.4631725
20
50.2
11
15.9206779
21
50.2
0
LINE
8
0
10
15.9206779
20
50.2
11
17.1125864
21
50.2
0
LINE
8
0
10
17.1125864
20
50.2
11
17.4891475
21
50.2
0
LINE
8
0
10
17.4891475
20
50.2
11
17.6636124
21
50.2
0
LINE
8
0
10
17.6636124
20
50.2
11
17.7515395
21
50.2
0
LINE
8
0
10
17.7515395
20
50.2
11
17.8
21
50.2
0
LINE
8
0
10
17.8
20
50.2
11
17.8
21
49.7492009
0
LINE
8
0
10
17.8
20
49.7492009
11
17.8
21
45.2
0
LINE
8
0
10
17.8
20
45.2
11
17.8
21
45.111967
0
LINE
8
0
10
17.8
20
45.111967
11
17.8
21
43.8789376
0
LINE
8
0
10
17.8
20
43.8789376
11
17.8
21
43.7637358
0
LINE
8
0
10
17.8
20
43.7637358
11
17.8
21
43.6371908
0
LINE
8
0
10
17.8
20
43.6371908
11
17.8
21
42.4549186
0
LINE
8
0
10
17.8
20
42.4549186
11
17.8
21
41.5391325
0
LINE
8
0
10
17.8
20
41.5391325
11
17.8
21
40.9310235
0
LINE
8
0
10
17.8
20
40.9310235
11
17.8
21
40.5852202
0
LINE
8
0
10
17.8
20
40.5852202
11
17.8
21
30.8703096
0
LINE
8
0
10
17.8
20
30.8703096
11
16.7824072
21
30.8703103
0
LINE
8
0
10
16.7824072
20
30.8703103
11
16
21
30.8703122
0
LINE
8
0
10
16
20
30.8703122
11
16
21
30.8703122
0
LINE
8
0
10
35.2
20
-12.4056428
11
35.2
21
-12.0341469
0
LINE
8
0
10
35.2
20
-12.0341469
11
35.2
21
-11.5475158
0
LINE
8
0
10
35.2
20
-11.5475158
11
35.2
21
-10.9486606
0
LINE
8
0
10
35.2
20
-10.9486606
11
35.2
21
-10.2692951
0
LINE
8
0
10
35.2
20
-10.2692951
11
35.2
21
-9.57838418
0
LINE
8
0
10
35.2
20
-9.57838418
11
35.2
21
-8.9726401
0
LINE
8
0
10
35.2
20
-8.9726401
11
35.2
21
4.34255495
0
LINE
8
0
10
35.2
20
4.34255495
11
35.2
21
4.95541553
0
LINE
8
0
10
35.2
20
4.95541553
11
35.2
21
5.70053789
0
LINE
8
0
10
35.2
20
5.70053789
11
35.2
21
6.46736675
0
LINE
8
0
10
35.2
20
6.46736675
11
35.2
21
7.16923471
0
LINE
8
0
10
35.2
20
7.16923471
11
35.2
21
7.7597904
0
LINE
8
0
10
35.2
20
7.7597904
11
35.2
21
9.67448761
0
LINE
8
0
10
35.2
20
9.67448761
11
35.2
21
10
0
LINE
8
0
10
35.2
20
10
11
30.6079702
21
10
0
LINE
8
0
10
30.6079702
20
10
11
30.2
21
10
0
LINE
8
0
10
30.2
20
10
11
30.2
21
11.1890699
0
LINE
8
0
10
30.2
20
11.1890699
11
30.2
21
11.2255957
0
LINE
8
0
10
30.2
20
11.2255957
11
30.2
21
11.3435818
0
LINE
8
0
10
30.2
20
11.3435818
11
30.2
21
11.4110903
0
LINE
8
0
10
30.2
20
11.4110903
11
28.856815
21
11.4110903
0
LINE
8
0
10
28.856815
20
11.4110903
11
28.2
21
11.4110903
0
LINE
8
0
10
28.2
20
11.4110903
11
28.2
21
10.6723386
0
LINE
8
0
10
28.2
20
10.6723386
11
28.2
21
10.310724
0
LINE
8
0
10
28.2
20
10.310724
11
26.8106274
21
10.310724
0
LINE
8
0
10
26.8106274
20
10.310724
11
5.17874513
21
10.310724
0
LINE
8
0
10
5.17874513
20
10.310724
11
3.78937257
21
10.310724
0
LINE
8
0
10
3.78937257
20
10.310724
11
2.4
21
10.310724
0
LINE
8
0
10
2.4
20
10.310724
11
2.4
21
10.1006783
0
LINE
8
0
10
2.4
20
10.1006783
11
2.4
21
8.7841866
0
LINE
8
0
10
2.4
20
8.7841866
11
2.4
21
-8.95320683
0
LINE
8
0
10
2.4
20
-8.95320683
11
2.4
21
-9.30070776
0
LINE
8
0
10
2.4
20
-9.30070776
11
2.4
21
-11.6911631
0
LINE
8
0
10
2.4
20
-11.6911631
11
2.4
21
-13.1969002
0
LINE
8
0
10
2.4
20
-13.1969002
11
2.4
21
-13.2160181
0
LINE
8
0
10
2.4
20
-13.2160181
11
2.4
21
-13.7190678
0
LINE
8
0
10
2.4
20
-13.7190678
11
2.4
21
-13.9989869
0
LINE
8
0
10
2.4
20
-13.9989869
11
2.4
21
-14
0
LINE
8
0
10
2.4
20
-14
11
2.40237741
21
-14.0180584
0
LINE
8
0
10
2.40237741
20
-14.0180584
11
2.40475482
21
-14.0361167
0
LINE
8
0
10
2.40475482
20
-14.0361167
11
2.4178835
21
-14.2548227
0
LINE
8
0
10
2.4178835
20
-14.2548227
11
2.45680897
21
-14.471415
0
LINE
8
0
10
2.45680897
20
-14.471415
11
2.60662272
21
-14.8815903
0
LINE
8
0
10
2.60662272
20
-14.8815903
11
2.61413552
21
-14.8997277
0
LINE
8
0
10
2.61413552
20
-14.8997277
11
2.8351164
21
-15.2449009
0
LINE
8
0
10
2.8351164
20
-15.2449009
11
2.83878417
21
-15.2496808
0
LINE
8
0
10
2.83878417
20
-15.2496808
11
2.93917487
21
-15.3532913
0
LINE
8
0
10
2.93917487
20
-15.3532913
11
11.8755131
21
-15.3552611
0
LINE
8
0
10
11.8755131
20
-15.3552611
11
16.55
21
-15.3463405
0
LINE
8
0
10
16.55
20
-15.3463405
11
19.999212
21
-15.3518037
0
LINE
8
0
10
19.999212
20
-15.3518037
11
29.0346273
21
-15.3518037
0
LINE
8
0
10
29.0346273
20
-15.3518037
11
29.3012004
21
-15.5705703
0
LINE
8
0
10
29.3012004
20
-15.5705703
11
29.3146894
21
-15.5809207
0
LINE
8
0
10
29.3146894
20
-15.5809207
11
29.7244692
21
-15.8004183
0
LINE
8
0
10
29.7244692
20
-15.8004183
11
29.7631613
21
-15.816445
0
LINE
8
0
10
29.7631613
20
-15.816445
11
30.1959724
21
-15.9481598
0
LINE
8
0
10
30.1959724
20
-15.9481598
11
30.6102017
21
-15.9881772
0
LINE
8
0
10
30.6102017
20
-15.9881772
11
30.6654541
21
-15.9965973
0
LINE
8
0
10
30.6654541
20
-15.9965973
11
30.7
21
-16
0
LINE
8
0
10
30.7
20
-16
11
32.3636594
21
-16
0
LINE
8
0
10
32.3636594
20
-16
11
32.7
21
-16
0
LINE
8
0
10
32.7
20
-16
11
33.1204842
21
-15.9585835
0
LINE
8
0
10
33.1204842
20
-15.9585835
11
33.2559053
21
-15.936063
0
LINE
8
0
10
33.2559053
20
-15.936063
11
33.5334919
21
-15.8515248
0
LINE
8
0
10
33.5334919
20
-15.8515248
11
33.7734143
21
-15.7521457
0
LINE
8
0
10
33.7734143
20
-15.7521457
11
34.0378957
21
-15.6104044
0
LINE
8
0
10
34.0378957
20
-15.6104044
11
34.2280925
21
-15.4644645
0
LINE
8
0
10
34.2280925
20
-15.4644645
11
34.46777
21
-15.26777
0
LINE
8
0
10
34.46777
20
-15.26777
11
34.6818104
21
-15.006956
0
LINE
8
0
10
34.6818104
20
-15.006956
11
34.8055844
21
-14.8456469
0
LINE
8
0
10
34.8055844
20
-14.8456469
11
34.9676689
21
-14.5419374
0
LINE
8
0
10
34.9676689
20
-14.5419374
11
35.040244
21
-14.3667256
0
LINE
8
0
10
35.040244
20
-14.3667256
11
35.1416679
21
-14.0318682
0
LINE
8
0
10
35.1416679
20
-14.0318682
11
35.1679513
21
-13.8550017
0
LINE
8
0
10
35.1679513
20
-13.8550017
11
35.1767987
21
-13.6762226
0
LINE
8
0
10
35.1767987
20
-13.6762226
11
35.1900757
21
-13.5753784
0
LINE
8
0
10
35.1900757
20
-13.5753784
11
35.1990181
21
-13.5199841
0
LINE
8
0
10
35.1990181
20
-13.5199841
11
35.2
21
-13.5
0
LINE
8
0
10
35.2
20
-13.5
11
35.2
21
-13.0430734
0
LINE
8
0
10
35.2
20
-13.0430734
11
35.2
21
-12.9769499
0
LINE
8
0
10
35.2
20
-12.9769499
11
35.2
21
-12.8591808
0
LINE
8
0
10
35.2
20
-12.8591808
11
35.2
21
-12.6746524
0
LINE
8
0
10
35.2
20
-12.6746524
11
35.2
21
-12.4056428
0
LINE
8
0
10
35.2
20
-12.4056428
11
35.2
21
-12.4056428
0
LINE
8
0
10
72
20
24.1642146
11
72
21
19.8693998
0
LINE
8
0
10
72
20
19.8693998
11
72
21
18.8429594
0
LINE
8
0
10
72
20
18.8429594
11
72
21
18.5896471
0
LINE
8
0
10
72
20
18.5896471
11
71.0973013
21
18.5896471
0
LINE
8
0
10
71.0973013
20
18.5896471
11
64.2
21
18.5896471
0
LINE
8
0
10
64.2
20
18.5896471
11
64.2
21
17.3257962
0
LINE
8
0
10
64.2
20
17.3257962
11
64.2
21
17.160386
0
LINE
8
0
10
64.2
20
17.160386
11
63.6907857
21
17.160386
0
LINE
8
0
10
63.6907857
20
17.160386
11
62
21
17.160386
0
LINE
8
0
10
62
20
17.160386
11
62
21
19.4522551
0
LINE
8
0
10
62
20
19.4522551
11
62
21
22.0720733
0
LINE
8
0
10
62
20
22.0720733
11
62.0523376
21
22.1633202
0
LINE
8
0
10
62.0523376
20
22.1633202
11
62.3889809
21
22.75024
0
LINE
8
0
10
62.3889809
20
22.75024
11
62.88849
21
23.2
0
LINE
8
0
10
62.88849
20
23.2
11
63.0068223
21
23.2
0
LINE
8
0
10
63.0068223
20
23.2
11
64.8764898
21
23.2
0
LINE
8
0
10
64.8764898
20
23.2
11
64.9
21
23.2
0
LINE
8
0
10
64.9
20
23.2
11
64.9
21
23.2924906
0
LINE
8
0
10
64.9
20
23.2924906
11
64.9083529
21
23.4403081
0
LINE
8
0
10
64.9083529
20
23.4403081
11
64.9106612
21
23.4704152
0
LINE
8
0
10
64.9106612
20
23.4704152
11
64.9336245
21
23.6033069
0
LINE
8
0
10
64.9336245
20
23.6033069
11
64.9446231
21
23.64929
0
LINE
8
0
10
64.9446231
20
23.64929
11
64.9793575
21
23.7630187
0
LINE
8
0
10
64.9793575
20
23.7630187
11
65.0030695
21
23.8167296
0
LINE
8
0
10
65.0030695
20
23.8167296
11
65.04645
21
23.9088928
0
LINE
8
0
10
65.04645
20
23.9088928
11
65.0933872
21
23.9760587
0
LINE
8
0
10
65.0933872
20
23.9760587
11
65.1332609
21
24.0292838
0
LINE
8
0
10
65.1332609
20
24.0292838
11
65.184001
21
24.0766557
0
LINE
8
0
10
65.184001
20
24.0766557
11
65.2354259
21
24.1136975
0
LINE
8
0
10
65.2354259
20
24.1136975
11
65.2882583
21
24.141697
0
LINE
8
0
10
65.2882583
20
24.141697
11
65.3463137
21
24.1549977
0
LINE
8
0
10
65.3463137
20
24.1549977
11
65.4
21
24.1642172
0
LINE
8
0
10
65.4
20
24.1642172
11
68.3963666
21
24.1642172
0
LINE
8
0
10
68.3963666
20
24.1642172
11
72
21
24.1642146
0
LINE
8
0
10
72
20
24.1642146
11
72
21
24.1642146
0
LINE
8
0
10
72
20
-7.28026243
11
72
21
-4.57920138
0
LINE
8
0
10
72
20
-4.57920138
11
72
21
-2.60259708
0
LINE
8
0
10
72
20
-2.60259708
11
72
21
-1.20138891
0
LINE
8
0
10
72
20
-1.20138891
11
71.9831755
21
-0.475855793
0
LINE
8
0
10
71.9831755
20
-0.475855793
11
71.9809538
21
-0.358616983
0
LINE
8
0
10
71.9809538
20
-0.358616983
11
71.9585292
21
0.0325294859
0
LINE
8
0
10
71.9585292
20
0.0325294859
11
71.9405514
21
0.337400277
0
LINE
8
0
10
71.9405514
20
0.337400277
11
71.9320453
21
0.519165086
0
LINE
8
0
10
71.9320453
20
0.519165086
11
71.9180475
21
0.809000462
0
LINE
8
0
10
71.9180475
20
0.809000462
11
71.9000946
21
1.03442688
0
LINE
8
0
10
71.9000946
20
1.03442688
11
71.8896389
21
1.16160841
0
LINE
8
0
10
71.8896389
20
1.16160841
11
71.8634603
21
1.59285352
0
LINE
8
0
10
71.8634603
20
1.59285352
11
71.8398519
21
1.96737512
0
LINE
8
0
10
71.8398519
20
1.96737512
11
71.8310105
21
2.18158063
0
LINE
8
0
10
71.8310105
20
2.18158063
11
71.8057996
21
2.76423496
0
LINE
8
0
10
71.8057996
20
2.76423496
11
71.8046793
21
2.81667015
0
LINE
8
0
10
71.8046793
20
2.81667015
11
71.7946353
21
3.25189439
0
LINE
8
0
10
71.7946353
20
3.25189439
11
71.7861651
21
3.53058045
0
LINE
8
0
10
71.7861651
20
3.53058045
11
71.7851488
21
3.56147585
0
LINE
8
0
10
71.7851488
20
3.56147585
11
71.7843656
21
4.35125275
0
LINE
8
0
10
71.7843656
20
4.35125275
11
71.7843118
21
4.36885707
0
LINE
8
0
10
71.7843118
20
4.36885707
11
71.7875641
21
4.48107786
0
LINE
8
0
10
71.7875641
20
4.48107786
11
71.8009215
21
5.19680935
0
LINE
8
0
10
71.8009215
20
5.19680935
11
71.8080287
21
5.37274019
0
LINE
8
0
10
71.8080287
20
5.37274019
11
71.8350827
21
6.05608026
0
LINE
8
0
10
71.8350827
20
6.05608026
11
71.8796953
21
6.78906829
0
LINE
8
0
10
71.8796953
20
6.78906829
11
71.889951
21
6.95909716
0
LINE
8
0
10
71.889951
20
6.95909716
11
71.9032141
21
7.12252747
0
LINE
8
0
10
71.9032141
20
7.12252747
11
71.9408819
21
7.92115999
0
LINE
8
0
10
71.9408819
20
7.92115999
11
71.9761599
21
8.51863864
0
LINE
8
0
10
71.9761599
20
8.51863864
11
71.9810191
21
8.77483566
0
LINE
8
0
10
71.9810191
20
8.77483566
11
71.9862724
21
9.03541437
0
LINE
8
0
10
71.9862724
20
9.03541437
11
71.9937753
21
9.36676787
0
LINE
8
0
10
71.9937753
20
9.36676787
11
72
21
9.630475
0
LINE
8
0
10
72
20
9.630475
11
72
21
11.3366726
0
LINE
8
0
10
72
20
11.3366726
11
72
21
13.7812421
0
LINE
8
0
10
72
20
13.7812421
11
72
21
13.8730883
0
LINE
8
0
10
72
20
13.8730883
11
72
21
13.9079213
0
LINE
8
0
10
72
20
13.9079213
11
71.8152274
21
13.9076143
0
LINE
8
0
10
71.8152274
20
13.9076143
11
64.2
21
13.9216747
0
LINE
8
0
10
64.2
20
13.9216747
11
64.2
21
14.5634224
0
LINE
8
0
10
64.2
20
14.5634224
11
64.2
21
14.9216719
0
LINE
8
0
10
64.2
20
14.9216719
11
62.788149
21
14.9216719
0
LINE
8
0
10
62.788149
20
14.9216719
11
62
21
14.9216719
0
LINE
8
0
10
62
20
14.9216719
11
62
21
14.7176697
0
LINE
8
0
10
62
20
14.7176697
11
62
21
10
0
LINE
8
0
10
62
20
10
11
59.0705143
21
10
0
LINE
8
0
10
59.0705143
20
10
11
57.3
21
10
0
LINE
8
0
10
57.3
20
10
11
57.3
21
9.44005736
0
LINE
8
0
10
57.3
20
9.44005736
11
57.3
21
9.06295002
0
LINE
8
0
10
57.3
20
9.06295002
11
57.3
21
8.57579788
0
LINE
8
0
10
57.3
20
8.57579788
11
57.3
21
7.9987163
0
LINE
8
0
10
57.3
20
7.9987163
11
57.3
21
7.38530537
0
LINE
8
0
10
57.3
20
7.38530537
11
57.3
21
6.81716697
0
LINE
8
0
10
57.3
20
6.81716697
11
57.3
21
6.37743679
0
LINE
8
0
10
57.3
20
6.37743679
11
57.3
21
-7.15705487
0
LINE
8
0
10
57.3
20
-7.15705487
11
57.3
21
-7.98619998
0
LINE
8
0
10
57.3
20
-7.98619998
11
57.3
21
-8.85884158
0
LINE
8
0
10
57.3
20
-8.85884158
11
57.3
21
-9.67321737
0
LINE
8
0
10
57.3
20
-9.67321737
11
57.3
21
-10.372263
0
LINE
8
0
10
57.3
20
-10.372263
11
57.3
21
-10.9381356
0
LINE
8
0
10
57.3
20
-10.9381356
11
57.3
21
-11.3771144
0
LINE
8
0
10
57.3
20
-11.3771144
11
57.3
21
-11.7062257
0
LINE
8
0
10
57.3
20
-11.7062257
11
57.3
21
-11.9449658
0
LINE
8
0
10
57.3
20
-11.9449658
11
57.3
21
-12.2096388
0
LINE
8
0
10
57.3
20
-12.2096388
11
57.3
21
-12.3833158
0
LINE
8
0
10
57.3
20
-12.3833158
11
57.3
21
-12.6203032
0
LINE
8
0
10
57.3
20
-12.6203032
11
57.3
21
-14.17729
0
LINE
8
0
10
57.3
20
-14.17729
11
57.3
21
-14.2045096
0
LINE
8
0
10
57.3
20
-14.2045096
11
57.3
21
-14.5
0
LINE
8
0
10
57.3
20
-14.5
11
57.3321747
21
-14.7924689
0
LINE
8
0
10
57.3321747
20
-14.7924689
11
57.3424144
21
-14.8518336
0
LINE
8
0
10
57.3424144
20
-14.8518336
11
57.3956365
21
-15.0125186
0
LINE
8
0
10
57.3956365
20
-15.0125186
11
57.4650101
21
-15.1800014
0
LINE
8
0
10
57.4650101
20
-15.1800014
11
57.5409496
21
-15.3120351
0
LINE
8
0
10
57.5409496
20
-15.3120351
11
57.6566591
21
-15.4628292
0
LINE
8
0
10
57.6566591
20
-15.4628292
11
57.7434487
21
-15.5646651
0
LINE
8
0
10
57.7434487
20
-15.5646651
11
57.9008786
21
-15.6854665
0
LINE
8
0
10
57.9008786
20
-15.6854665
11
58.0986752
21
-15.8245563
0
LINE
8
0
10
58.0986752
20
-15.8245563
11
58.2970639
21
-15.9067316
0
LINE
8
0
10
58.2970639
20
-15.9067316
11
58.4961653
21
-15.9653495
0
LINE
8
0
10
58.4961653
20
-15.9653495
11
58.5229719
21
-15.9682083
0
LINE
8
0
10
58.5229719
20
-15.9682083
11
58.6003421
21
-15.9816493
0
LINE
8
0
10
58.6003421
20
-15.9816493
11
58.6679521
21
-15.9940183
0
LINE
8
0
10
58.6679521
20
-15.9940183
11
58.67679
21
-15.99493
0
LINE
8
0
10
58.67679
20
-15.99493
11
58.685697
21
-15.9954797
0
LINE
8
0
10
58.685697
20
-15.9954797
11
58.73836
21
-15.99873
0
LINE
8
0
10
58.73836
20
-15.99873
11
58.7471445
21
-15.998911
0
LINE
8
0
10
58.7471445
20
-15.998911
11
58.8
21
-16
0
LINE
8
0
10
58.8
20
-16
11
68.6923413
21
-16
0
LINE
8
0
10
68.6923413
20
-16
11
69.5
21
-16
0
LINE
8
0
10
69.5
20
-16
11
69.6055908
21
-15.986098
0
LINE
8
0
10
69.6055908
20
-15.986098
11
70.14705
21
-15.91481
0
LINE
8
0
10
70.14705
20
-15.91481
11
70.6516058
21
-15.7058162
0
LINE
8
0
10
70.6516058
20
-15.7058162
11
70.75
21
-15.66506
0
LINE
8
0
10
70.75
20
-15.66506
11
71.1832761
21
-15.332603
0
LINE
8
0
10
71.1832761
20
-15.332603
11
71.26777
21
-15.26777
0
LINE
8
0
10
71.26777
20
-15.26777
11
71.600227
21
-14.8344939
0
LINE
8
0
10
71.600227
20
-14.8344939
11
71.66506
21
-14.75
0
LINE
8
0
10
71.66506
20
-14.75
11
71.8740538
21
-14.2454442
0
LINE
8
0
10
71.8740538
20
-14.2454442
11
71.91481
21
-14.14705
0
LINE
8
0
10
71.91481
20
-14.14705
11
71.986098
21
-13.6055908
0
LINE
8
0
10
71.986098
20
-13.6055908
11
72
21
-13.5
0
LINE
8
0
10
72
20
-13.5
11
72
21
-12.4049323
0
LINE
8
0
10
72
20
-12.4049323
11
72
21
-12.3725644
0
LINE
8
0
10
72
20
-12.3725644
11
72
21
-12.1946238
0
LINE
8
0
10
72
20
-12.1946238
11
72
21
-12.0270405
0
LINE
8
0
10
72
20
-12.0270405
11
72
21
-11.8010505
0
LINE
8
0
10
72
20
-11.8010505
11
72
21
-11.5062702
0
LINE
8
0
10
72
20
-11.5062702
11
72
21
-11.1679651
0
LINE
8
0
10
72
20
-11.1679651
11
72
21
-10.5835146
0
LINE
8
0
10
72
20
-10.5835146
11
72
21
-9.77193312
0
LINE
8
0
10
72
20
-9.77193312
11
72
21
-9.02285501
0
LINE
8
0
10
72
20
-9.02285501
11
72
21
-7.28026243
0
LINE
8
0
10
72
20
-7.28026243
11
72
21
-7.28026243
0
ENDSEC
0
EOF
