0
SECTION
2
ENTITIES
0
LINE
8
0
10
16
20
22.9043868
11
16
21
22.8522696
0
LINE
8
0
10
16
20
22.8522696
11
23.324623
21
22.8522679
0
LINE
8
0
10
23.324623
20
22.8522679
11
24.1104445
21
22.8522679
0
LINE
8
0
10
24.1104445
20
22.8522679
11
29
21
22.8522679
0
LINE
8
0
10
29
20
22.8522679
11
29.4486473
21
22.0700725
0
LINE
8
0
10
29.4486473
20
22.0700725
11
29.8664527
21
21.3416497
0
LINE
8
0
10
29.8664527
20
21.3416497
11
30.2
21
20.7601336
0
LINE
8
0
10
30.2
20
20.7601336
11
30.2
21
17.7336594
0
LINE
8
0
10
30.2
20
17.7336594
11
30.2
21
16.3921472
0
LINE
8
0
10
30.2
20
16.3921472
11
30.2
21
14.3698892
0
LINE
8
0
10
30.2
20
14.3698892
11
30.2
21
13.5717573
0
LINE
8
0
10
30.2
20
13.5717573
11
30.2
21
12.8547456
0
LINE
8
0
10
30.2
20
12.8547456
11
30.2
21
12.5683654
0
LINE
8
0
10
30.2
20
12.5683654
11
30.2
21
12.3858827
0
LINE
8
0
10
30.2
20
12.3858827
11
30.2
21
12.0624896
0
LINE
8
0
10
30.2
20
12.0624896
11
30.2
21
11.6819281
0
LINE
8
0
10
30.2
20
11.6819281
11
30.2
21
11.3286517
0
LINE
8
0
10
30.2
20
11.3286517
11
30.2
21
11.0493581
0
LINE
8
0
10
30.2
20
11.0493581
11
30.2
21
10.8535326
0
LINE
8
0
10
30.2
20
10.8535326
11
30.2
21
10.7311594
0
LINE
8
0
10
30.2
20
10.7311594
11
30.2
21
10.666953
0
LINE
8
0
10
30.2
20
10.666953
11
30.2
21
10.6470761
0
LINE
8
0
10
30.2
20
10.6470761
11
30.2
21
10
0
LINE
8
0
10
30.2
20
10
11
30.422012
21
10
0
LINE
8
0
10
30.422012
20
10
11
35.2
21
10
0
LINE
8
0
10
35.2
20
10
11
35.2
21
9.82286047
0
LINE
8
0
10
35.2
20
9.82286047
11
35.2
21
8.78090759
0
LINE
8
0
10
35.2
20
8.78090759
11
35.2
21
8.459535
0
LINE
8
0
10
35.2
20
8.459535
11
35.2
21
8.07758775
0
LINE
8
0
10
35.2
20
8.07758775
11
35.2
21
7.66028963
0
LINE
8
0
10
35.2
20
7.66028963
11
35.2
21
7.2548039
0
LINE
8
0
10
35.2
20
7.2548039
11
35.2
21
6.92129329
0
LINE
8
0
10
35.2
20
6.92129329
11
35.2
21
-11.0362707
0
LINE
8
0
10
35.2
20
-11.0362707
11
35.2
21
-11.3659086
0
LINE
8
0
10
35.2
20
-11.3659086
11
35.2
21
-11.7418931
0
LINE
8
0
10
35.2
20
-11.7418931
11
35.2
21
-12.1115949
0
LINE
8
0
10
35.2
20
-12.1115949
11
35.2
21
-12.437484
0
LINE
8
0
10
35.2
20
-12.437484
11
35.2
21
-12.7023022
0
LINE
8
0
10
35.2
20
-12.7023022
11
35.2
21
-12.9044653
0
LINE
8
0
10
35.2
20
-12.9044653
11
35.2
21
-13.0508568
0
LINE
8
0
10
35.2
20
-13.0508568
11
35.2
21
-13.1512747
0
LINE
8
0
10
35.2
20
-13.1512747
11
35.2
21
-13.2153631
0
LINE
8
0
10
35.2
20
-13.2153631
11
35.2
21
-13.2513466
0
LINE
8
0
10
35.2
20
-13.2513466
11
35.2
21
-13.5
0
LINE
8
0
10
35.2
20
-13.5
11
35.1994657
21
-13.5108751
0
LINE
8
0
10
35.1994657
20
-13.5108751
11
35.1945994
21
-13.5410199
0
LINE
8
0
10
35.1945994
20
-13.5410199
11
35.1873742
21
-13.595898
0
LINE
8
0
10
35.1873742
20
-13.595898
11
35.1770174
21
-13.8051773
0
LINE
8
0
10
35.1770174
20
-13.8051773
11
35.14625
21
-14.0122178
0
LINE
8
0
10
35.14625
20
-14.0122178
11
35.0275228
21
-14.4042029
0
LINE
8
0
10
35.0275228
20
-14.4042029
11
34.9851743
21
-14.5064413
0
LINE
8
0
10
34.9851743
20
-14.5064413
11
34.7954377
21
-14.8619646
0
LINE
8
0
10
34.7954377
20
-14.8619646
11
34.7183263
21
-14.9624604
0
LINE
8
0
10
34.7183263
20
-14.9624604
11
34.46777
21
-15.26777
0
LINE
8
0
10
34.46777
20
-15.26777
11
34.1872028
21
-15.4980212
0
LINE
8
0
10
34.1872028
20
-15.4980212
11
34.0528909
21
-15.6010799
0
LINE
8
0
10
34.0528909
20
-15.6010799
11
33.7432882
21
-15.7670028
0
LINE
8
0
10
33.7432882
20
-15.7670028
11
33.5652994
21
-15.8407281
0
LINE
8
0
10
33.5652994
20
-15.8407281
11
33.2403557
21
-15.9396888
0
LINE
8
0
10
33.2403557
20
-15.9396888
11
33.1358218
21
-15.9570728
0
LINE
8
0
10
33.1358218
20
-15.9570728
11
32.7
21
-16
0
LINE
8
0
10
32.7
20
-16
11
32.4320865
21
-16
0
LINE
8
0
10
32.4320865
20
-16
11
30.7
21
-16
0
LINE
8
0
10
30.7
20
-16
11
30.6845099
21
-15.9984743
0
LINE
8
0
10
30.6845099
20
-15.9984743
11
30.6597352
21
-15.9946988
0
LINE
8
0
10
30.6597352
20
-15.9946988
11
30.2086855
21
-15.9511242
0
LINE
8
0
10
30.2086855
20
-15.9511242
11
29.9532609
21
-15.8733924
0
LINE
8
0
10
29.9532609
20
-15.8733924
11
20.7973281
21
-15.8809718
0
LINE
8
0
10
20.7973281
20
-15.8809718
11
16.55
21
-15.8735174
0
LINE
8
0
10
16.55
20
-15.8735174
11
4.22513352
21
-15.8856599
0
LINE
8
0
10
4.22513352
20
-15.8856599
11
3.7340538
21
-15.8854109
0
LINE
8
0
10
3.7340538
20
-15.8854109
11
3.73055769
21
-15.8845099
0
LINE
8
0
10
3.73055769
20
-15.8845099
11
3.73035607
21
-15.8844265
0
LINE
8
0
10
3.73035607
20
-15.8844265
11
3.40241274
21
-15.7332016
0
LINE
8
0
10
3.40241274
20
-15.7332016
11
3.12135052
21
-15.5346214
0
LINE
8
0
10
3.12135052
20
-15.5346214
11
3.09191526
21
-15.5120562
0
LINE
8
0
10
3.09191526
20
-15.5120562
11
2.85170158
21
-15.2641384
0
LINE
8
0
10
2.85170158
20
-15.2641384
11
2.820427
21
-15.2233809
0
LINE
8
0
10
2.820427
20
-15.2233809
11
2.61886424
21
-14.9085389
0
LINE
8
0
10
2.61886424
20
-14.9085389
11
2.59445461
21
-14.8496091
0
LINE
8
0
10
2.59445461
20
-14.8496091
11
2.45780536
21
-14.4754769
0
LINE
8
0
10
2.45780536
20
-14.4754769
11
2.42230036
21
-14.2779171
0
LINE
8
0
10
2.42230036
20
-14.2779171
11
2.41032533
21
-14.0784294
0
LINE
8
0
10
2.41032533
20
-14.0784294
11
2.40516266
21
-14.0392147
0
LINE
8
0
10
2.40516266
20
-14.0392147
11
2.4
21
-14
0
LINE
8
0
10
2.4
20
-14
11
2.4
21
-13.9978
0
LINE
8
0
10
2.4
20
-13.9978
11
2.4
21
-13.3899413
0
LINE
8
0
10
2.4
20
-13.3899413
11
2.4
21
-12.903453
0
LINE
8
0
10
2.4
20
-12.903453
11
2.4
21
-12.8632931
0
LINE
8
0
10
2.4
20
-12.8632931
11
2.4
21
-9.70026462
0
LINE
8
0
10
2.4
20
-9.70026462
11
2.4
21
-4.67875188
0
LINE
8
0
10
2.4
20
-4.67875188
11
2.4
21
-3.94877363
0
LINE
8
0
10
2.4
20
-3.94877363
11
2.4
21
7.11580482
0
LINE
8
0
10
2.4
20
7.11580482
11
2.4
21
7.93703177
0
LINE
8
0
10
2.4
20
7.93703177
11
2.4
21
8.92593163
0
LINE
8
0
10
2.4
20
8.92593163
11
2.4
21
10.1867652
0
LINE
8
0
10
2.4
20
10.1867652
11
2.4
21
10.556849
0
LINE
8
0
10
2.4
20
10.556849
11
10.8023262
21
10.556849
0
LINE
8
0
10
10.8023262
20
10.556849
11
11
21
10.556849
0
LINE
8
0
10
11
20
10.556849
11
19.4023262
21
10.556849
0
LINE
8
0
10
19.4023262
20
10.556849
11
19.6
21
10.556849
0
LINE
8
0
10
19.6
20
10.556849
11
28.0023262
21
10.556849
0
LINE
8
0
10
28.0023262
20
10.556849
11
28.2
21
10.556849
0
LINE
8
0
10
28.2
20
10.556849
11
28.2
21
10.5825423
0
LINE
8
0
10
28.2
20
10.5825423
11
28.2
21
10.6024234
0
LINE
8
0
10
28.2
20
10.6024234
11
28.2
21
11.3587806
0
LINE
8
0
10
28.2
20
11.3587806
11
28.2
21
11.6485871
0
LINE
8
0
10
28.2
20
11.6485871
11
28.2
21
11.8018352
0
LINE
8
0
10
28.2
20
11.8018352
11
28.2
21
12.0946454
0
LINE
8
0
10
28.2
20
12.0946454
11
28.2
21
12.1214286
0
LINE
8
0
10
28.2
20
12.1214286
11
28.2
21
12.3909387
0
LINE
8
0
10
28.2
20
12.3909387
11
28.2
21
12.3926755
0
LINE
8
0
10
28.2
20
12.3926755
11
28.2
21
12.3942934
0
LINE
8
0
10
28.2
20
12.3942934
11
28.2
21
12.655902
0
LINE
8
0
10
28.2
20
12.655902
11
28.2
21
12.6758656
0
LINE
8
0
10
28.2
20
12.6758656
11
28.2
21
12.9455416
0
LINE
8
0
10
28.2
20
12.9455416
11
28.2
21
13.0460822
0
LINE
8
0
10
28.2
20
13.0460822
11
28.2
21
13.3096407
0
LINE
8
0
10
28.2
20
13.3096407
11
28.2
21
13.7797359
0
LINE
8
0
10
28.2
20
13.7797359
11
28.2
21
14.4713739
0
LINE
8
0
10
28.2
20
14.4713739
11
24.920874
21
14.4713739
0
LINE
8
0
10
24.920874
20
14.4713739
11
4.99597474
21
14.4713739
0
LINE
8
0
10
4.99597474
20
14.4713739
11
2.4
21
14.4713725
0
LINE
8
0
10
2.4
20
14.4713725
11
2.4
21
23.9361023
0
LINE
8
0
10
2.4
20
23.9361023
11
2.4
21
26.1911856
0
LINE
8
0
10
2.4
20
26.1911856
11
2.4
21
28.4826357
0
LINE
8
0
10
2.4
20
28.4826357
11
2.4
21
31.1559024
0
LINE
8
0
10
2.4
20
31.1559024
11
8.15858485
21
31.1559024
0
LINE
8
0
10
8.15858485
20
31.1559024
11
16
21
31.1559024
0
LINE
8
0
10
16
20
31.1559024
11
16
21
26.1911856
0
LINE
8
0
10
16
20
26.1911856
11
16
21
24.4167214
0
LINE
8
0
10
16
20
24.4167214
11
16
21
23.516352
0
LINE
8
0
10
16
20
23.516352
11
16
21
23.090611
0
LINE
8
0
10
16
20
23.090611
11
16
21
22.9043868
0
LINE
8
0
10
16
20
22.9043868
11
16
21
22.9043868
0
LINE
8
0
10
16
20
34.9878531
11
16
21
34.80487
0
LINE
8
0
10
16
20
34.80487
11
16
21
34.7004986
0
LINE
8
0
10
16
20
34.7004986
11
2.98802018
21
34.7004986
0
LINE
8
0
10
2.98802018
20
34.7004986
11
2.4
21
34.7004986
0
LINE
8
0
10
2.4
20
34.7004986
11
2.4
21
34.80487
0
LINE
8
0
10
2.4
20
34.80487
11
2.4
21
34.9878531
0
LINE
8
0
10
2.4
20
34.9878531
11
2.4
21
39.9193887
0
LINE
8
0
10
2.4
20
39.9193887
11
2.4
21
40.0072305
0
LINE
8
0
10
2.4
20
40.0072305
11
2.4
21
40.123878
0
LINE
8
0
10
2.4
20
40.123878
11
2.4
21
40.264571
0
LINE
8
0
10
2.4
20
40.264571
11
2.4
21
42.5146634
0
LINE
8
0
10
2.4
20
42.5146634
11
2.4
21
42.6517958
0
LINE
8
0
10
2.4
20
42.6517958
11
2.4
21
42.8530794
0
LINE
8
0
10
2.4
20
42.8530794
11
2.4
21
42.9912395
0
LINE
8
0
10
2.4
20
42.9912395
11
2.4
21
43.1282879
0
LINE
8
0
10
2.4
20
43.1282879
11
2.4
21
43.3441331
0
LINE
8
0
10
2.4
20
43.3441331
11
2.4
21
45.983199
0
LINE
8
0
10
2.4
20
45.983199
11
2.4
21
47.2941298
0
LINE
8
0
10
2.4
20
47.2941298
11
2.4
21
48.0176803
0
LINE
8
0
10
2.4
20
48.0176803
11
2.4
21
48.3913197
0
LINE
8
0
10
2.4
20
48.3913197
11
2.44573044
21
48.740868
0
LINE
8
0
10
2.44573044
20
48.740868
11
2.468148
21
48.9202129
0
LINE
8
0
10
2.468148
20
48.9202129
11
2.63804501
21
49.3432381
0
LINE
8
0
10
2.63804501
20
49.3432381
11
2.667949
21
49.4225933
0
LINE
8
0
10
2.667949
20
49.4225933
11
2.69064194
21
49.4551005
0
LINE
8
0
10
2.69064194
20
49.4551005
11
2.985786
21
49.8778852
0
LINE
8
0
10
2.985786
20
49.8778852
11
3.19550996
21
50.0547752
0
LINE
8
0
10
3.19550996
20
50.0547752
11
3.4
21
50.2272495
0
LINE
8
0
10
3.4
20
50.2272495
11
3.79327682
21
50.4063047
0
LINE
8
0
10
3.79327682
20
50.4063047
11
3.882362
21
50.4468648
0
LINE
8
0
10
3.882362
20
50.4468648
11
4.36066824
21
50.5160802
0
LINE
8
0
10
4.36066824
20
50.5160802
11
4.4
21
50.5232432
0
LINE
8
0
10
4.4
20
50.5232432
11
12.5972261
21
50.5232432
0
LINE
8
0
10
12.5972261
20
50.5232432
11
13
21
50.5232432
0
LINE
8
0
10
13
20
50.5232432
11
13.0648639
21
50.518593
0
LINE
8
0
10
13.0648639
20
50.518593
11
13.5437327
21
50.5009342
0
LINE
8
0
10
13.5437327
20
50.5009342
11
13.8226008
21
50.4705858
0
LINE
8
0
10
13.8226008
20
50.4705858
11
14.1196365
21
50.4364044
0
LINE
8
0
10
14.1196365
20
50.4364044
11
14.2076638
21
50.4205132
0
LINE
8
0
10
14.2076638
20
50.4205132
11
14.3276301
21
50.3974195
0
LINE
8
0
10
14.3276301
20
50.3974195
11
14.5583486
21
50.3689953
0
LINE
8
0
10
14.5583486
20
50.3689953
11
14.7639941
21
50.3421769
0
LINE
8
0
10
14.7639941
20
50.3421769
11
14.9117013
21
50.3169139
0
LINE
8
0
10
14.9117013
20
50.3169139
11
15.0537051
21
50.2910623
0
LINE
8
0
10
15.0537051
20
50.2910623
11
15.255096
21
50.2711214
0
LINE
8
0
10
15.255096
20
50.2711214
11
15.5225981
21
50.2431134
0
LINE
8
0
10
15.5225981
20
50.2431134
11
15.6128377
21
50.2317433
0
LINE
8
0
10
15.6128377
20
50.2317433
11
15.6765705
21
50.2232288
0
LINE
8
0
10
15.6765705
20
50.2232288
11
15.9135573
21
50.2131733
0
LINE
8
0
10
15.9135573
20
50.2131733
11
16.2286141
21
50.2
0
LINE
8
0
10
16.2286141
20
50.2
11
16.4858722
21
50.2
0
LINE
8
0
10
16.4858722
20
50.2
11
17.223422
21
50.2
0
LINE
8
0
10
17.223422
20
50.2
11
17.5951335
21
50.2
0
LINE
8
0
10
17.5951335
20
50.2
11
17.8
21
50.2
0
LINE
8
0
10
17.8
20
50.2
11
17.8
21
48.2942487
0
LINE
8
0
10
17.8
20
48.2942487
11
17.8
21
45.2
0
LINE
8
0
10
17.8
20
45.2
11
17.8
21
44.8278409
0
LINE
8
0
10
17.8
20
44.8278409
11
17.8
21
43.9940787
0
LINE
8
0
10
17.8
20
43.9940787
11
17.8
21
43.5990807
0
LINE
8
0
10
17.8
20
43.5990807
11
17.8
21
43.1651897
0
LINE
8
0
10
17.8
20
43.1651897
11
17.8
21
42.4079304
0
LINE
8
0
10
17.8
20
42.4079304
11
17.8
21
41.8213586
0
LINE
8
0
10
17.8
20
41.8213586
11
17.8
21
41.4318576
0
LINE
8
0
10
17.8
20
41.4318576
11
17.8
21
41.2103665
0
LINE
8
0
10
17.8
20
41.2103665
11
17.8
21
34.9878518
0
LINE
8
0
10
17.8
20
34.9878518
11
16.0494555
21
34.987853
0
LINE
8
0
10
16.0494555
20
34.987853
11
16
21
34.9878531
0
LINE
8
0
10
16
20
34.9878531
11
16
21
34.9878531
0
LINE
8
0
10
72
20
-11.4712353
11
72
21
-11.063597
0
LINE
8
0
10
72
20
-11.063597
11
72
21
-10.1153011
0
LINE
8
0
10
72
20
-10.1153011
11
72
21
-8.64541947
0
LINE
8
0
10
72
20
-8.64541947
11
72
21
-7.56977757
0
LINE
8
0
10
72
20
-7.56977757
11
72
21
-3.9849335
0
LINE
8
0
10
72
20
-3.9849335
11
72
21
0.777473989
0
LINE
8
0
10
72
20
0.777473989
11
71.9975512
21
0.917816559
0
LINE
8
0
10
71.9975512
20
0.917816559
11
71.9958536
21
1.02399124
0
LINE
8
0
10
71.9958536
20
1.02399124
11
71.9919481
21
1.33196608
0
LINE
8
0
10
71.9919481
20
1.33196608
11
71.9867687
21
1.76391311
0
LINE
8
0
10
71.9867687
20
1.76391311
11
71.9843675
21
1.99922033
0
LINE
8
0
10
71.9843675
20
1.99922033
11
71.9788551
21
2.66571636
0
LINE
8
0
10
71.9788551
20
2.66571636
11
71.9769216
21
2.74517284
0
LINE
8
0
10
71.9769216
20
2.74517284
11
71.9763111
21
2.76911805
0
LINE
8
0
10
71.9763111
20
2.76911805
11
71.9670932
21
3.49573518
0
LINE
8
0
10
71.9670932
20
3.49573518
11
71.9651619
21
3.63720411
0
LINE
8
0
10
71.9651619
20
3.63720411
11
71.9646161
21
4.35053814
0
LINE
8
0
10
71.9646161
20
4.35053814
11
71.9643576
21
4.51632751
0
LINE
8
0
10
71.9643576
20
4.51632751
11
71.9741691
21
5.37769013
0
LINE
8
0
10
71.9741691
20
5.37769013
11
71.9746028
21
5.41789733
0
LINE
8
0
10
71.9746028
20
5.41789733
11
71.9773101
21
5.53320544
0
LINE
8
0
10
71.9773101
20
5.53320544
11
71.9821413
21
6.19677307
0
LINE
8
0
10
71.9821413
20
6.19677307
11
71.9839689
21
6.40853359
0
LINE
8
0
10
71.9839689
20
6.40853359
11
71.9893173
21
6.88578812
0
LINE
8
0
10
71.9893173
20
6.88578812
11
71.9955045
21
7.39383092
0
LINE
8
0
10
71.9955045
20
7.39383092
11
72
21
7.68525743
0
LINE
8
0
10
72
20
7.68525743
11
72
21
9.47452178
0
LINE
8
0
10
72
20
9.47452178
11
72
21
9.98790058
0
LINE
8
0
10
72
20
9.98790058
11
72
21
10.6070772
0
LINE
8
0
10
72
20
10.6070772
11
72
21
12.2239216
0
LINE
8
0
10
72
20
12.2239216
11
72
21
13.6287531
0
LINE
8
0
10
72
20
13.6287531
11
72
21
14.0559714
0
LINE
8
0
10
72
20
14.0559714
11
70.1890019
21
14.0524863
0
LINE
8
0
10
70.1890019
20
14.0524863
11
64.2
21
14.0655929
0
LINE
8
0
10
64.2
20
14.0655929
11
64.2
21
14.588274
0
LINE
8
0
10
64.2
20
14.588274
11
64.2
21
15.019369
0
LINE
8
0
10
64.2
20
15.019369
11
64.2
21
15.1414589
0
LINE
8
0
10
64.2
20
15.1414589
11
64.2
21
15.2532716
0
LINE
8
0
10
64.2
20
15.2532716
11
62.6726261
21
15.2532716
0
LINE
8
0
10
62.6726261
20
15.2532716
11
62
21
15.2532716
0
LINE
8
0
10
62
20
15.2532716
11
62
21
14.9700513
0
LINE
8
0
10
62
20
14.9700513
11
62
21
14.0825429
0
LINE
8
0
10
62
20
14.0825429
11
62
21
13.3982444
0
LINE
8
0
10
62
20
13.3982444
11
62
21
12.9048766
0
LINE
8
0
10
62
20
12.9048766
11
62
21
12.5672934
0
LINE
8
0
10
62
20
12.5672934
11
62
21
10
0
LINE
8
0
10
62
20
10
11
58.2634905
21
10
0
LINE
8
0
10
58.2634905
20
10
11
57.3
21
10
0
LINE
8
0
10
57.3
20
10
11
57.3
21
9.69528663
0
LINE
8
0
10
57.3
20
9.69528663
11
57.3
21
9.4900698
0
LINE
8
0
10
57.3
20
9.4900698
11
57.3
21
9.22496806
0
LINE
8
0
10
57.3
20
9.22496806
11
57.3
21
8.9109279
0
LINE
8
0
10
57.3
20
8.9109279
11
57.3
21
8.57711779
0
LINE
8
0
10
57.3
20
8.57711779
11
57.3
21
8.2679444
0
LINE
8
0
10
57.3
20
8.2679444
11
57.3
21
8.02864905
0
LINE
8
0
10
57.3
20
8.02864905
11
57.3
21
-10.0482532
0
LINE
8
0
10
57.3
20
-10.0482532
11
57.3
21
-10.499463
0
LINE
8
0
10
57.3
20
-10.499463
11
57.3
21
-10.974343
0
LINE
8
0
10
57.3
20
-10.974343
11
57.3
21
-11.4175155
0
LINE
8
0
10
57.3
20
-11.4175155
11
57.3
21
-11.7979269
0
LINE
8
0
10
57.3
20
-11.7979269
11
57.3
21
-12.1058673
0
LINE
8
0
10
57.3
20
-12.1058673
11
57.3
21
-12.3447537
0
LINE
8
0
10
57.3
20
-12.3447537
11
57.3
21
-12.5238518
0
LINE
8
0
10
57.3
20
-12.5238518
11
57.3
21
-12.653771
0
LINE
8
0
10
57.3
20
-12.653771
11
57.3
21
-12.9450589
0
LINE
8
0
10
57.3
20
-12.9450589
11
57.3
21
-13.0404833
0
LINE
8
0
10
57.3
20
-13.0404833
11
57.3
21
-13.2985362
0
LINE
8
0
10
57.3
20
-13.2985362
11
57.3
21
-14.17729
0
LINE
8
0
10
57.3
20
-14.17729
11
57.3
21
-14.1926526
0
LINE
8
0
10
57.3
20
-14.1926526
11
57.3
21
-14.5
0
LINE
8
0
10
57.3
20
-14.5
11
57.3334657
21
-14.8042047
0
LINE
8
0
10
57.3334657
20
-14.8042047
11
57.3397771
21
-14.8407951
0
LINE
8
0
10
57.3397771
20
-14.8407951
11
57.4091408
21
-15.0502138
0
LINE
8
0
10
57.4091408
20
-15.0502138
11
57.454107
21
-15.1587717
0
LINE
8
0
10
57.454107
20
-15.1587717
11
57.553078
21
-15.3308496
0
LINE
8
0
10
57.553078
20
-15.3308496
11
57.631583
21
-15.4331584
0
LINE
8
0
10
57.631583
20
-15.4331584
11
57.7446948
21
-15.5658798
0
LINE
8
0
10
57.7446948
20
-15.5658798
11
57.855652
21
-15.6510211
0
LINE
8
0
10
57.855652
20
-15.6510211
11
58.1134378
21
-15.8322951
0
LINE
8
0
10
58.1134378
20
-15.8322951
11
58.262275
21
-15.8939455
0
LINE
8
0
10
58.262275
20
-15.8939455
11
58.5217614
21
-15.9703415
0
LINE
8
0
10
58.5217614
20
-15.9703415
11
58.5566981
21
-15.9740673
0
LINE
8
0
10
58.5566981
20
-15.9740673
11
58.617104
21
-15.9845612
0
LINE
8
0
10
58.617104
20
-15.9845612
11
58.6698899
21
-15.9942182
0
LINE
8
0
10
58.6698899
20
-15.9942182
11
58.67679
21
-15.99493
0
LINE
8
0
10
58.67679
20
-15.99493
11
58.683744
21
-15.9953592
0
LINE
8
0
10
58.683744
20
-15.9953592
11
58.73836
21
-15.99873
0
LINE
8
0
10
58.73836
20
-15.99873
11
58.7451775
21
-15.9988705
0
LINE
8
0
10
58.7451775
20
-15.9988705
11
58.8
21
-16
0
LINE
8
0
10
58.8
20
-16
11
69.0604828
21
-16
0
LINE
8
0
10
69.0604828
20
-16
11
69.5
21
-16
0
LINE
8
0
10
69.5
20
-16
11
69.5574611
21
-15.9924347
0
LINE
8
0
10
69.5574611
20
-15.9924347
11
70.14705
21
-15.91481
0
LINE
8
0
10
70.14705
20
-15.91481
11
70.6964552
21
-15.687239
0
LINE
8
0
10
70.6964552
20
-15.687239
11
70.75
21
-15.66506
0
LINE
8
0
10
70.75
20
-15.66506
11
71.2217895
21
-15.3030513
0
LINE
8
0
10
71.2217895
20
-15.3030513
11
71.26777
21
-15.26777
0
LINE
8
0
10
71.26777
20
-15.26777
11
71.6297787
21
-14.7959805
0
LINE
8
0
10
71.6297787
20
-14.7959805
11
71.66506
21
-14.75
0
LINE
8
0
10
71.66506
20
-14.75
11
71.892631
21
-14.2005948
0
LINE
8
0
10
71.892631
20
-14.2005948
11
71.91481
21
-14.14705
0
LINE
8
0
10
71.91481
20
-14.14705
11
71.9924347
21
-13.5574611
0
LINE
8
0
10
71.9924347
20
-13.5574611
11
72
21
-13.5
0
LINE
8
0
10
72
20
-13.5
11
72
21
-12.9040787
0
LINE
8
0
10
72
20
-12.9040787
11
72
21
-12.8864645
0
LINE
8
0
10
72
20
-12.8864645
11
72
21
-12.7896315
0
LINE
8
0
10
72
20
-12.7896315
11
72
21
-12.6984349
0
LINE
8
0
10
72
20
-12.6984349
11
72
21
-12.5754541
0
LINE
8
0
10
72
20
-12.5754541
11
72
21
-12.4150386
0
LINE
8
0
10
72
20
-12.4150386
11
72
21
-12.2309375
0
LINE
8
0
10
72
20
-12.2309375
11
72
21
-11.9128873
0
LINE
8
0
10
72
20
-11.9128873
11
72
21
-11.4712353
0
LINE
8
0
10
72
20
-11.4712353
11
72
21
-11.4712353
0
LINE
8
0
10
72
20
17.9893183
11
72
21
19.7876128
0
LINE
8
0
10
72
20
19.7876128
11
72
21
22.852268
0
LINE
8
0
10
72
20
22.852268
11
66.5990373
21
22.8522719
0
LINE
8
0
10
66.5990373
20
22.8522719
11
65.107996
21
22.8522724
0
LINE
8
0
10
65.107996
20
22.8522724
11
63.2
21
22.8522724
0
LINE
8
0
10
63.2
20
22.8522724
11
62.9762265
21
22.4621275
0
LINE
8
0
10
62.9762265
20
22.4621275
11
62.7518884
21
22.0710049
0
LINE
8
0
10
62.7518884
20
22.0710049
11
62.2617256
21
21.2164319
0
LINE
8
0
10
62.2617256
20
21.2164319
11
62
21
20.7601319
0
LINE
8
0
10
62
20
20.7601319
11
62
21
18.0884533
0
LINE
8
0
10
62
20
18.0884533
11
62
21
16.6882795
0
LINE
8
0
10
62
20
16.6882795
11
62
21
16.5480597
0
LINE
8
0
10
62
20
16.5480597
11
63.6535448
21
16.5480597
0
LINE
8
0
10
63.6535448
20
16.5480597
11
64.2
21
16.5480597
0
LINE
8
0
10
64.2
20
16.5480597
11
64.2
21
16.6376468
0
LINE
8
0
10
64.2
20
16.6376468
11
64.2
21
17.3134826
0
LINE
8
0
10
64.2
20
17.3134826
11
64.2
21
17.9893183
0
LINE
8
0
10
64.2
20
17.9893183
11
68.3117147
21
17.9893183
0
LINE
8
0
10
68.3117147
20
17.9893183
11
72
21
17.9893183
0
LINE
8
0
10
72
20
17.9893183
11
72
21
17.9893183
0
ENDSEC
0
EOF
