0
SECTION
2
ENTITIES
0
LINE
8
0
10
16
20
24.26372
11
16
21
25.7706487
0
LINE
8
0
10
16
20
25.7706487
11
16
21
31.5536813
0
LINE
8
0
10
16
20
31.5536813
11
6.86611346
21
31.5536813
0
LINE
8
0
10
6.86611346
20
31.5536813
11
2.4
21
31.5536813
0
LINE
8
0
10
2.4
20
31.5536813
11
2.4
21
28.4397901
0
LINE
8
0
10
2.4
20
28.4397901
11
2.4
21
25.7706487
0
LINE
8
0
10
2.4
20
25.7706487
11
2.4
21
23.8555637
0
LINE
8
0
10
2.4
20
23.8555637
11
2.4
21
14.1976762
0
LINE
8
0
10
2.4
20
14.1976762
11
4.01123956
21
14.1976771
0
LINE
8
0
10
4.01123956
20
14.1976771
11
26.16475
21
14.1976771
0
LINE
8
0
10
26.16475
20
14.1976771
11
28.2
21
14.1976771
0
LINE
8
0
10
28.2
20
14.1976771
11
28.2
21
13.7683992
0
LINE
8
0
10
28.2
20
13.7683992
11
28.2
21
13.476626
0
LINE
8
0
10
28.2
20
13.476626
11
28.2
21
13.3130436
0
LINE
8
0
10
28.2
20
13.3130436
11
28.2
21
13.0383977
0
LINE
8
0
10
28.2
20
13.0383977
11
28.2
21
12.8382091
0
LINE
8
0
10
28.2
20
12.8382091
11
28.2
21
12.6882203
0
LINE
8
0
10
28.2
20
12.6882203
11
28.2
21
12.483432
0
LINE
8
0
10
28.2
20
12.483432
11
28.2
21
12.3685634
0
LINE
8
0
10
28.2
20
12.3685634
11
28.2
21
12.2452515
0
LINE
8
0
10
28.2
20
12.2452515
11
28.2
21
12.0378566
0
LINE
8
0
10
28.2
20
12.0378566
11
28.2
21
11.8527911
0
LINE
8
0
10
28.2
20
11.8527911
11
28.2
21
11.6469401
0
LINE
8
0
10
28.2
20
11.6469401
11
28.2
21
11.2415284
0
LINE
8
0
10
28.2
20
11.2415284
11
28.2
21
11.1037297
0
LINE
8
0
10
28.2
20
11.1037297
11
28.2
21
10.7206413
0
LINE
8
0
10
28.2
20
10.7206413
11
24.0027043
21
10.7206413
0
LINE
8
0
10
24.0027043
20
10.7206413
11
19.6
21
10.7206413
0
LINE
8
0
10
19.6
20
10.7206413
11
15.4027043
21
10.7206413
0
LINE
8
0
10
15.4027043
20
10.7206413
11
11
21
10.7206413
0
LINE
8
0
10
11
20
10.7206413
11
6.80270434
21
10.7206413
0
LINE
8
0
10
6.80270434
20
10.7206413
11
2.4
21
10.7206413
0
LINE
8
0
10
2.4
20
10.7206413
11
2.4
21
10.4588977
0
LINE
8
0
10
2.4
20
10.4588977
11
2.4
21
10.1007256
0
LINE
8
0
10
2.4
20
10.1007256
11
2.4
21
8.23592382
0
LINE
8
0
10
2.4
20
8.23592382
11
2.4
21
7.39612014
0
LINE
8
0
10
2.4
20
7.39612014
11
2.4
21
6.69870938
0
LINE
8
0
10
2.4
20
6.69870938
11
2.4
21
-2.69766533
0
LINE
8
0
10
2.4
20
-2.69766533
11
2.4
21
-3.52326291
0
LINE
8
0
10
2.4
20
-3.52326291
11
2.4
21
-9.20254001
0
LINE
8
0
10
2.4
20
-9.20254001
11
2.4
21
-12.7798914
0
LINE
8
0
10
2.4
20
-12.7798914
11
2.4
21
-12.8253118
0
LINE
8
0
10
2.4
20
-12.8253118
11
2.4
21
-13.3076597
0
LINE
8
0
10
2.4
20
-13.3076597
11
2.4
21
-13.9975033
0
LINE
8
0
10
2.4
20
-13.9975033
11
2.4
21
-14
0
LINE
8
0
10
2.4
20
-14
11
2.40585898
21
-14.0445037
0
LINE
8
0
10
2.40585898
20
-14.0445037
11
2.41171796
21
-14.0890075
0
LINE
8
0
10
2.41171796
20
-14.0890075
11
2.42340458
21
-14.2836907
0
LINE
8
0
10
2.42340458
20
-14.2836907
11
2.45805446
21
-14.4764924
0
LINE
8
0
10
2.45805446
20
-14.4764924
11
2.59141258
21
-14.8416138
0
LINE
8
0
10
2.59141258
20
-14.8416138
11
2.62004642
21
-14.9107417
0
LINE
8
0
10
2.62004642
20
-14.9107417
11
2.81675465
21
-15.2180009
0
LINE
8
0
10
2.81675465
20
-15.2180009
11
2.85493093
21
-15.2677528
0
LINE
8
0
10
2.85493093
20
-15.2677528
11
3.08935919
21
-15.5096997
0
LINE
8
0
10
3.08935919
20
-15.5096997
11
3.12810069
21
-15.539399
0
LINE
8
0
10
3.12810069
20
-15.539399
11
3.40239367
21
-15.7331965
0
LINE
8
0
10
3.40239367
20
-15.7331965
11
3.72243866
21
-15.8807792
0
LINE
8
0
10
3.72243866
20
-15.8807792
11
3.73421382
21
-15.88565
0
LINE
8
0
10
3.73421382
20
-15.88565
11
3.93839373
21
-15.9382723
0
LINE
8
0
10
3.93839373
20
-15.9382723
11
10.6775478
21
-15.9416893
0
LINE
8
0
10
10.6775478
20
-15.9416893
11
14.1094986
21
-15.9319216
0
LINE
8
0
10
14.1094986
20
-15.9319216
11
27.6953367
21
-15.945116
0
LINE
8
0
10
27.6953367
20
-15.945116
11
30.1829193
21
-15.9430568
0
LINE
8
0
10
30.1829193
20
-15.9430568
11
30.2118638
21
-15.9518653
0
LINE
8
0
10
30.2118638
20
-15.9518653
11
30.6721186
21
-15.9963292
0
LINE
8
0
10
30.6721186
20
-15.9963292
11
30.6892739
21
-15.9989435
0
LINE
8
0
10
30.6892739
20
-15.9989435
11
30.7
21
-16
0
LINE
8
0
10
30.7
20
-16
11
32.4491932
21
-16
0
LINE
8
0
10
32.4491932
20
-16
11
32.7
21
-16
0
LINE
8
0
10
32.7
20
-16
11
33.1396562
21
-15.9566951
0
LINE
8
0
10
33.1396562
20
-15.9566951
11
33.2364683
21
-15.9405953
0
LINE
8
0
10
33.2364683
20
-15.9405953
11
33.5732513
21
-15.838029
0
LINE
8
0
10
33.5732513
20
-15.838029
11
33.7357567
21
-15.770717
0
LINE
8
0
10
33.7357567
20
-15.770717
11
34.0566398
21
-15.5987488
0
LINE
8
0
10
34.0566398
20
-15.5987488
11
34.1769803
21
-15.5064103
0
LINE
8
0
10
34.1769803
20
-15.5064103
11
34.46777
21
-15.26777
0
LINE
8
0
10
34.46777
20
-15.26777
11
34.7274553
21
-14.9513365
0
LINE
8
0
10
34.7274553
20
-14.9513365
11
34.7929011
21
-14.866044
0
LINE
8
0
10
34.7929011
20
-14.866044
11
34.9895507
21
-14.4975673
0
LINE
8
0
10
34.9895507
20
-14.4975673
11
35.0243425
21
-14.4135722
0
LINE
8
0
10
35.0243425
20
-14.4135722
11
35.1473955
21
-14.0073052
0
LINE
8
0
10
35.1473955
20
-14.0073052
11
35.1792839
21
-13.7927212
0
LINE
8
0
10
35.1792839
20
-13.7927212
11
35.190018
21
-13.5758168
0
LINE
8
0
10
35.190018
20
-13.5758168
11
35.1957303
21
-13.5324303
0
LINE
8
0
10
35.1957303
20
-13.5324303
11
35.1995775
21
-13.5085978
0
LINE
8
0
10
35.1995775
20
-13.5085978
11
35.2
21
-13.5
0
LINE
8
0
10
35.2
20
-13.5
11
35.2
21
-13.3034149
0
LINE
8
0
10
35.2
20
-13.3034149
11
35.2
21
-13.2749664
0
LINE
8
0
10
35.2
20
-13.2749664
11
35.2
21
-13.2242981
0
LINE
8
0
10
35.2
20
-13.2242981
11
35.2
21
-13.1449079
0
LINE
8
0
10
35.2
20
-13.1449079
11
35.2
21
-13.0291709
0
LINE
8
0
10
35.2
20
-13.0291709
11
35.2
21
-12.869341
0
LINE
8
0
10
35.2
20
-12.869341
11
35.2
21
-12.659976
0
LINE
8
0
10
35.2
20
-12.659976
11
35.2
21
-12.4023284
0
LINE
8
0
10
35.2
20
-12.4023284
11
35.2
21
-12.1100427
0
LINE
8
0
10
35.2
20
-12.1100427
11
35.2
21
-11.8127897
0
LINE
8
0
10
35.2
20
-11.8127897
11
35.2
21
-11.5521783
0
LINE
8
0
10
35.2
20
-11.5521783
11
35.2
21
7.56597787
0
LINE
8
0
10
35.2
20
7.56597787
11
35.2
21
7.829651
0
LINE
8
0
10
35.2
20
7.829651
11
35.2
21
8.15022756
0
LINE
8
0
10
35.2
20
8.15022756
11
35.2
21
8.480143
0
LINE
8
0
10
35.2
20
8.480143
11
35.2
21
8.78211007
0
LINE
8
0
10
35.2
20
8.78211007
11
35.2
21
9.03618689
0
LINE
8
0
10
35.2
20
9.03618689
11
35.2
21
9.85995368
0
LINE
8
0
10
35.2
20
9.85995368
11
35.2
21
10
0
LINE
8
0
10
35.2
20
10
11
30.3755224
21
10
0
LINE
8
0
10
30.3755224
20
10
11
30.2
21
10
0
LINE
8
0
10
30.2
20
10
11
30.2
21
10.5115776
0
LINE
8
0
10
30.2
20
10.5115776
11
30.2
21
10.5272923
0
LINE
8
0
10
30.2
20
10.5272923
11
30.2
21
10.5780538
0
LINE
8
0
10
30.2
20
10.5780538
11
30.2
21
10.6748019
0
LINE
8
0
10
30.2
20
10.6748019
11
30.2
21
10.8296214
0
LINE
8
0
10
30.2
20
10.8296214
11
30.2
21
11.0504306
0
LINE
8
0
10
30.2
20
11.0504306
11
30.2
21
11.3297305
0
LINE
8
0
10
30.2
20
11.3297305
11
30.2
21
11.630602
0
LINE
8
0
10
30.2
20
11.630602
11
30.2
21
11.8862762
0
LINE
8
0
10
30.2
20
11.8862762
11
30.2
21
12.0305468
0
LINE
8
0
10
30.2
20
12.0305468
11
30.2
21
14.1821569
0
LINE
8
0
10
30.2
20
14.1821569
11
30.2
21
14.7490255
0
LINE
8
0
10
30.2
20
14.7490255
11
30.2
21
15.3800277
0
LINE
8
0
10
30.2
20
15.3800277
11
30.2
21
16.9788227
0
LINE
8
0
10
30.2
20
16.9788227
11
30.2
21
18.0394207
0
LINE
8
0
10
30.2
20
18.0394207
11
30.2
21
20.4321479
0
LINE
8
0
10
30.2
20
20.4321479
11
29.8291452
21
21.0787069
0
LINE
8
0
10
29.8291452
20
21.0787069
11
29.4988287
21
21.6545972
0
LINE
8
0
10
29.4988287
20
21.6545972
11
29
21
22.5242815
0
LINE
8
0
10
29
20
22.5242815
11
24.8162712
21
22.5242815
0
LINE
8
0
10
24.8162712
20
22.5242815
11
24.1438863
21
22.5242815
0
LINE
8
0
10
24.1438863
20
22.5242815
11
16
21
22.5242835
0
LINE
8
0
10
16
20
22.5242835
11
16
21
22.58223
0
LINE
8
0
10
16
20
22.58223
11
16
21
22.7892835
0
LINE
8
0
10
16
20
22.7892835
11
16
21
23.2626438
0
LINE
8
0
10
16
20
23.2626438
11
16
21
24.26372
0
LINE
8
0
10
16
20
24.26372
11
16
21
24.26372
0
LINE
8
0
10
16
20
36.0172392
11
16
21
34.9254581
0
LINE
8
0
10
16
20
34.9254581
11
16
21
34.3027194
0
LINE
8
0
10
16
20
34.3027194
11
5.90846193
21
34.3027194
0
LINE
8
0
10
5.90846193
20
34.3027194
11
2.4
21
34.3027194
0
LINE
8
0
10
2.4
20
34.3027194
11
2.4
21
34.9254581
0
LINE
8
0
10
2.4
20
34.9254581
11
2.4
21
36.0172392
0
LINE
8
0
10
2.4
20
36.0172392
11
2.4
21
39.8889516
0
LINE
8
0
10
2.4
20
39.8889516
11
2.4
21
39.9579156
0
LINE
8
0
10
2.4
20
39.9579156
11
2.4
21
40.0494947
0
LINE
8
0
10
2.4
20
40.0494947
11
2.4
21
40.1599517
0
LINE
8
0
10
2.4
20
40.1599517
11
2.4
21
42.4879403
0
LINE
8
0
10
2.4
20
42.4879403
11
2.4
21
42.6298201
0
LINE
8
0
10
2.4
20
42.6298201
11
2.4
21
42.8034727
0
LINE
8
0
10
2.4
20
42.8034727
11
2.4
21
42.9466301
0
LINE
8
0
10
2.4
20
42.9466301
11
2.4
21
43.0886356
0
LINE
8
0
10
2.4
20
43.0886356
11
2.4
21
43.2759742
0
LINE
8
0
10
2.4
20
43.2759742
11
2.4
21
45.5664997
0
LINE
8
0
10
2.4
20
45.5664997
11
2.4
21
47.1238504
0
LINE
8
0
10
2.4
20
47.1238504
11
2.4
21
47.7924369
0
LINE
8
0
10
2.4
20
47.7924369
11
2.4
21
48.4659405
0
LINE
8
0
10
2.4
20
48.4659405
11
2.45514051
21
48.8874162
0
LINE
8
0
10
2.45514051
20
48.8874162
11
2.468148
21
48.9994778
0
LINE
8
0
10
2.468148
20
48.9994778
11
2.51417868
21
49.1216274
0
LINE
8
0
10
2.51417868
20
49.1216274
11
2.667949
21
49.5296825
0
LINE
8
0
10
2.667949
20
49.5296825
11
2.90171687
21
49.8645501
0
LINE
8
0
10
2.90171687
20
49.8645501
11
2.985786
21
49.9849766
0
LINE
8
0
10
2.985786
20
49.9849766
11
3.22419818
21
50.1860634
0
LINE
8
0
10
3.22419818
20
50.1860634
11
3.4
21
50.350118
0
LINE
8
0
10
3.4
20
50.350118
11
3.52194512
21
50.4115445
0
LINE
8
0
10
3.52194512
20
50.4115445
11
3.882362
21
50.5930964
0
LINE
8
0
10
3.882362
20
50.5930964
11
4.13984515
21
50.6343203
0
LINE
8
0
10
4.13984515
20
50.6343203
11
4.4
21
50.689494
0
LINE
8
0
10
4.4
20
50.689494
11
7.74557631
21
50.689494
0
LINE
8
0
10
7.74557631
20
50.689494
11
13
21
50.689494
0
LINE
8
0
10
13
20
50.689494
11
13.3073446
21
50.6546193
0
LINE
8
0
10
13.3073446
20
50.6546193
11
13.5086082
21
50.6379785
0
LINE
8
0
10
13.5086082
20
50.6379785
11
13.5359763
21
50.6335617
0
LINE
8
0
10
13.5359763
20
50.6335617
11
13.5650761
21
50.6286597
0
LINE
8
0
10
13.5650761
20
50.6286597
11
13.8035958
21
50.5953517
0
LINE
8
0
10
13.8035958
20
50.5953517
11
14.0481368
21
50.5598002
0
LINE
8
0
10
14.0481368
20
50.5598002
11
14.076593
21
50.5532039
0
LINE
8
0
10
14.076593
20
50.5532039
11
14.0950718
21
50.548696
0
LINE
8
0
10
14.0950718
20
50.548696
11
14.3899119
21
50.4954696
0
LINE
8
0
10
14.3899119
20
50.4954696
11
14.6534163
21
50.4447447
0
LINE
8
0
10
14.6534163
20
50.4447447
11
14.7297485
21
50.4255726
0
LINE
8
0
10
14.7297485
20
50.4255726
11
14.8029915
21
50.4058315
0
LINE
8
0
10
14.8029915
20
50.4058315
11
15.0489473
21
50.3637646
0
LINE
8
0
10
15.0489473
20
50.3637646
11
15.3683818
21
50.3056119
0
LINE
8
0
10
15.3683818
20
50.3056119
11
15.3969152
21
50.2993875
0
LINE
8
0
10
15.3969152
20
50.2993875
11
15.4177085
21
50.2945438
0
LINE
8
0
10
15.4177085
20
50.2945438
11
15.7166095
21
50.2568824
0
LINE
8
0
10
15.7166095
20
50.2568824
11
15.9625481
21
50.2240259
0
LINE
8
0
10
15.9625481
20
50.2240259
11
16.2570778
21
50.2115288
0
LINE
8
0
10
16.2570778
20
50.2115288
11
16.4085424
21
50.2040637
0
LINE
8
0
10
16.4085424
20
50.2040637
11
16.4865202
21
50.2
0
LINE
8
0
10
16.4865202
20
50.2
11
17.1133744
21
50.2
0
LINE
8
0
10
17.1133744
20
50.2
11
17.556032
21
50.2
0
LINE
8
0
10
17.556032
20
50.2
11
17.8
21
50.2
0
LINE
8
0
10
17.8
20
50.2
11
17.8
21
47.9305107
0
LINE
8
0
10
17.8
20
47.9305107
11
17.8
21
45.2
0
LINE
8
0
10
17.8
20
45.2
11
17.8
21
44.7568094
0
LINE
8
0
10
17.8
20
44.7568094
11
17.8
21
44.022864
0
LINE
8
0
10
17.8
20
44.022864
11
17.8
21
43.557917
0
LINE
8
0
10
17.8
20
43.557917
11
17.8
21
43.0471894
0
LINE
8
0
10
17.8
20
43.0471894
11
17.8
21
42.3961834
0
LINE
8
0
10
17.8
20
42.3961834
11
17.8
21
41.8919151
0
LINE
8
0
10
17.8
20
41.8919151
11
17.8
21
41.5570661
0
LINE
8
0
10
17.8
20
41.5570661
11
17.8
21
41.3666531
0
LINE
8
0
10
17.8
20
41.3666531
11
17.8
21
36.0172373
0
LINE
8
0
10
17.8
20
36.0172373
11
16.2950794
21
36.0172383
0
LINE
8
0
10
16.2950794
20
36.0172383
11
16
21
36.0172392
0
LINE
8
0
10
16
20
36.0172392
11
16
21
36.0172392
0
LINE
8
0
10
72
20
-13.0149395
11
72
21
-13.0288653
0
LINE
8
0
10
72
20
-13.0288653
11
72
21
-13.5
0
LINE
8
0
10
72
20
-13.5
11
71.9940189
21
-13.5454287
0
LINE
8
0
10
71.9940189
20
-13.5454287
11
71.91481
21
-14.14705
0
LINE
8
0
10
71.91481
20
-14.14705
11
71.8972753
21
-14.1893825
0
LINE
8
0
10
71.8972753
20
-14.1893825
11
71.66506
21
-14.75
0
LINE
8
0
10
71.66506
20
-14.75
11
71.6371667
21
-14.7863521
0
LINE
8
0
10
71.6371667
20
-14.7863521
11
71.26777
21
-15.26777
0
LINE
8
0
10
71.26777
20
-15.26777
11
71.2314179
21
-15.2956633
0
LINE
8
0
10
71.2314179
20
-15.2956633
11
70.75
21
-15.66506
0
LINE
8
0
10
70.75
20
-15.66506
11
70.7076675
21
-15.6825947
0
LINE
8
0
10
70.7076675
20
-15.6825947
11
70.14705
21
-15.91481
0
LINE
8
0
10
70.14705
20
-15.91481
11
69.5454287
21
-15.9940189
0
LINE
8
0
10
69.5454287
20
-15.9940189
11
69.5
21
-16
0
LINE
8
0
10
69.5
20
-16
11
69.1525182
21
-16
0
LINE
8
0
10
69.1525182
20
-16
11
58.8
21
-16
0
LINE
8
0
10
58.8
20
-16
11
58.7446858
21
-15.9988603
0
LINE
8
0
10
58.7446858
20
-15.9988603
11
58.73836
21
-15.99873
0
LINE
8
0
10
58.73836
20
-15.99873
11
58.6832558
21
-15.9953291
0
LINE
8
0
10
58.6832558
20
-15.9953291
11
58.67679
21
-15.99493
0
LINE
8
0
10
58.67679
20
-15.99493
11
58.6703743
21
-15.9942682
0
LINE
8
0
10
58.6703743
20
-15.9942682
11
58.6212945
21
-15.9852892
0
LINE
8
0
10
58.6212945
20
-15.9852892
11
58.5651296
21
-15.975532
0
LINE
8
0
10
58.5651296
20
-15.975532
11
58.5281604
21
-15.9715894
0
LINE
8
0
10
58.5281604
20
-15.9715894
11
58.2535778
21
-15.890749
0
LINE
8
0
10
58.2535778
20
-15.890749
11
58.1171285
21
-15.8342298
0
LINE
8
0
10
58.1171285
20
-15.8342298
11
57.8443454
21
-15.6424097
0
LINE
8
0
10
57.8443454
20
-15.6424097
11
57.7450063
21
-15.5661835
0
LINE
8
0
10
57.7450063
20
-15.5661835
11
57.625314
21
-15.4257407
0
LINE
8
0
10
57.625314
20
-15.4257407
11
57.5561101
21
-15.3355532
0
LINE
8
0
10
57.5561101
20
-15.3355532
11
57.4513812
21
-15.1534643
0
LINE
8
0
10
57.4513812
20
-15.1534643
11
57.4125169
21
-15.0596376
0
LINE
8
0
10
57.4125169
20
-15.0596376
11
57.3391178
21
-14.8380354
0
LINE
8
0
10
57.3391178
20
-14.8380354
11
57.3337885
21
-14.8071387
0
LINE
8
0
10
57.3337885
20
-14.8071387
11
57.3
21
-14.5
0
LINE
8
0
10
57.3
20
-14.5
11
57.3
21
-14.1896883
0
LINE
8
0
10
57.3
20
-14.1896883
11
57.3
21
-14.17729
0
LINE
8
0
10
57.3
20
-14.17729
11
57.3
21
-13.4680945
0
LINE
8
0
10
57.3
20
-13.4680945
11
57.3
21
-13.2047751
0
LINE
8
0
10
57.3
20
-13.2047751
11
57.3
21
-13.1289139
0
LINE
8
0
10
57.3
20
-13.1289139
11
57.3
21
-12.8309723
0
LINE
8
0
10
57.3
20
-12.8309723
11
57.3
21
-12.7282583
0
LINE
8
0
10
57.3
20
-12.7282583
11
57.3
21
-12.5866636
0
LINE
8
0
10
57.3
20
-12.5866636
11
57.3
21
-12.3978002
0
LINE
8
0
10
57.3
20
-12.3978002
11
57.3
21
-12.1543429
0
LINE
8
0
10
57.3
20
-12.1543429
11
57.3
21
-11.8535901
0
LINE
8
0
10
57.3
20
-11.8535901
11
57.3
21
-11.5032184
0
LINE
8
0
10
57.3
20
-11.5032184
11
57.3
21
-11.1277788
0
LINE
8
0
10
57.3
20
-11.1277788
11
57.3
21
-10.7710528
0
LINE
8
0
10
57.3
20
-10.7710528
11
57.3
21
8.44145212
0
LINE
8
0
10
57.3
20
8.44145212
11
57.3
21
8.63063875
0
LINE
8
0
10
57.3
20
8.63063875
11
57.3
21
8.8750709
0
LINE
8
0
10
57.3
20
8.8750709
11
57.3
21
9.1389808
0
LINE
8
0
10
57.3
20
9.1389808
11
57.3
21
9.3872606
0
LINE
8
0
10
57.3
20
9.3872606
11
57.3
21
9.59684975
0
LINE
8
0
10
57.3
20
9.59684975
11
57.3
21
9.75909395
0
LINE
8
0
10
57.3
20
9.75909395
11
57.3
21
10
0
LINE
8
0
10
57.3
20
10
11
58.0617345
21
10
0
LINE
8
0
10
58.0617345
20
10
11
62
21
10
0
LINE
8
0
10
62
20
10
11
62
21
12.0296993
0
LINE
8
0
10
62
20
12.0296993
11
62
21
12.2965922
0
LINE
8
0
10
62
20
12.2965922
11
62
21
12.6866483
0
LINE
8
0
10
62
20
12.6866483
11
62
21
13.2276539
0
LINE
8
0
10
62
20
13.2276539
11
62
21
13.9293171
0
LINE
8
0
10
62
20
13.9293171
11
62
21
14.7436827
0
LINE
8
0
10
62
20
14.7436827
11
62
21
15.5177216
0
LINE
8
0
10
62
20
15.5177216
11
62
21
15.7695717
0
LINE
8
0
10
62
20
15.7695717
11
63.1450916
21
15.7695717
0
LINE
8
0
10
63.1450916
20
15.7695717
11
64.2
21
15.7695717
0
LINE
8
0
10
64.2
20
15.7695717
11
64.2
21
15.630492
0
LINE
8
0
10
64.2
20
15.630492
11
64.2
21
15.6175207
0
LINE
8
0
10
64.2
20
15.6175207
11
64.2
21
15.3263919
0
LINE
8
0
10
64.2
20
15.3263919
11
64.2
21
15.1959849
0
LINE
8
0
10
64.2
20
15.1959849
11
64.2
21
14.9101937
0
LINE
8
0
10
64.2
20
14.9101937
11
64.2
21
14.2115365
0
LINE
8
0
10
64.2
20
14.2115365
11
64.2
21
14.188356
0
LINE
8
0
10
64.2
20
14.188356
11
64.2
21
14.1602509
0
LINE
8
0
10
64.2
20
14.1602509
11
64.796064
21
14.1589464
0
LINE
8
0
10
64.796064
20
14.1589464
11
72
21
14.1751488
0
LINE
8
0
10
72
20
14.1751488
11
72
21
13.1965177
0
LINE
8
0
10
72
20
13.1965177
11
72
21
12.3223332
0
LINE
8
0
10
72
20
12.3223332
11
72
21
11.987561
0
LINE
8
0
10
72
20
11.987561
11
72
21
10.8889482
0
LINE
8
0
10
72
20
10.8889482
11
72
21
8.79003312
0
LINE
8
0
10
72
20
8.79003312
11
72
21
6.93642747
0
LINE
8
0
10
72
20
6.93642747
11
71.9971501
21
6.70241423
0
LINE
8
0
10
71.9971501
20
6.70241423
11
71.9957232
21
6.57509204
0
LINE
8
0
10
71.9957232
20
6.57509204
11
71.9908307
21
6.00819591
0
LINE
8
0
10
71.9908307
20
6.00819591
11
71.9878744
21
5.60214313
0
LINE
8
0
10
71.9878744
20
5.60214313
11
71.9860848
21
5.24597267
0
LINE
8
0
10
71.9860848
20
5.24597267
11
71.9841076
21
4.65470758
0
LINE
8
0
10
71.9841076
20
4.65470758
11
71.9838647
21
4.55319478
0
LINE
8
0
10
71.9838647
20
4.55319478
11
71.9842601
21
3.91073127
0
LINE
8
0
10
71.9842601
20
3.91073127
11
71.9842672
21
3.69525576
0
LINE
8
0
10
71.9842672
20
3.69525576
11
71.9850795
21
3.45824001
0
LINE
8
0
10
71.9850795
20
3.45824001
11
71.9876485
21
2.88577952
0
LINE
8
0
10
71.9876485
20
2.88577952
11
71.9902847
21
2.5005213
0
LINE
8
0
10
71.9902847
20
2.5005213
11
71.9931559
21
2.15337398
0
LINE
8
0
10
71.9931559
20
2.15337398
11
71.9997462
21
1.50755385
0
LINE
8
0
10
71.9997462
20
1.50755385
11
71.9998456
21
1.49926954
0
LINE
8
0
10
71.9998456
20
1.49926954
11
72
21
1.48709179
0
LINE
8
0
10
72
20
1.48709179
11
72
21
-0.989168813
0
LINE
8
0
10
72
20
-0.989168813
11
72
21
-5.97739893
0
LINE
8
0
10
72
20
-5.97739893
11
72
21
-8.8115727
0
LINE
8
0
10
72
20
-8.8115727
11
72
21
-9.661974
0
LINE
8
0
10
72
20
-9.661974
11
72
21
-10.8240608
0
LINE
8
0
10
72
20
-10.8240608
11
72
21
-11.5737824
0
LINE
8
0
10
72
20
-11.5737824
11
72
21
-11.8960609
0
LINE
8
0
10
72
20
-11.8960609
11
72
21
-12.2452304
0
LINE
8
0
10
72
20
-12.2452304
11
72
21
-12.4966806
0
LINE
8
0
10
72
20
-12.4966806
11
72
21
-12.6422307
0
LINE
8
0
10
72
20
-12.6422307
11
72
21
-12.7690551
0
LINE
8
0
10
72
20
-12.7690551
11
72
21
-12.8662836
0
LINE
8
0
10
72
20
-12.8662836
11
72
21
-12.9383835
0
LINE
8
0
10
72
20
-12.9383835
11
72
21
-13.0149395
0
LINE
8
0
10
72
20
-13.0149395
11
72
21
-13.0149395
0
LINE
8
0
10
72
20
20.1013683
11
72
21
17.7547998
0
LINE
8
0
10
72
20
17.7547998
11
69.5653173
21
17.7547998
0
LINE
8
0
10
69.5653173
20
17.7547998
11
64.2
21
17.7547998
0
LINE
8
0
10
64.2
20
17.7547998
11
64.2
21
17.3086723
0
LINE
8
0
10
64.2
20
17.3086723
11
64.2
21
16.8625447
0
LINE
8
0
10
64.2
20
16.8625447
11
64.2
21
16.5744052
0
LINE
8
0
10
64.2
20
16.5744052
11
64.2
21
16.4553576
0
LINE
8
0
10
64.2
20
16.4553576
11
64.2
21
16.16508
0
LINE
8
0
10
64.2
20
16.16508
11
64.2
21
16.1548078
0
LINE
8
0
10
64.2
20
16.1548078
11
64.2
21
16.0306156
0
LINE
8
0
10
64.2
20
16.0306156
11
63.1736598
21
16.0306156
0
LINE
8
0
10
63.1736598
20
16.0306156
11
62
21
16.0306156
0
LINE
8
0
10
62
20
16.0306156
11
62
21
16.2024113
0
LINE
8
0
10
62
20
16.2024113
11
62
21
16.7131465
0
LINE
8
0
10
62
20
16.7131465
11
62
21
17.2129445
0
LINE
8
0
10
62
20
17.2129445
11
62
21
18.3199204
0
LINE
8
0
10
62
20
18.3199204
11
62
21
20.4321466
0
LINE
8
0
10
62
20
20.4321466
11
62.3140726
21
20.9797099
0
LINE
8
0
10
62.3140726
20
20.9797099
11
62.7015948
21
21.6553343
0
LINE
8
0
10
62.7015948
20
21.6553343
11
63.0085291
21
22.1904594
0
LINE
8
0
10
63.0085291
20
22.1904594
11
63.2
21
22.5242854
0
LINE
8
0
10
63.2
20
22.5242854
11
64.8325692
21
22.5242854
0
LINE
8
0
10
64.8325692
20
22.5242854
11
67.7300048
21
22.5242845
0
LINE
8
0
10
67.7300048
20
22.5242845
11
72
21
22.5242814
0
LINE
8
0
10
72
20
22.5242814
11
72
21
20.1013683
0
LINE
8
0
10
72
20
20.1013683
11
72
21
20.1013683
0
ENDSEC
0
EOF
