0
SECTION
2
ENTITIES
0
LINE
8
0
10
16.5631966
20
50.2194363
11
16.8730929
21
50.2032865
0
LINE
8
0
10
16.8730929
20
50.2032865
11
16.9127471
21
50.2010156
0
LINE
8
0
10
16.9127471
20
50.2010156
11
16.9294965
21
50.2
0
LINE
8
0
10
16.9294965
20
50.2
11
17.477829
21
50.2
0
LINE
8
0
10
17.477829
20
50.2
11
17.8
21
50.2
0
LINE
8
0
10
17.8
20
50.2
11
17.8
21
47.2030346
0
LINE
8
0
10
17.8
20
47.2030346
11
17.8
21
45.2
0
LINE
8
0
10
17.8
20
45.2
11
17.8
21
44.6147464
0
LINE
8
0
10
17.8
20
44.6147464
11
17.8
21
44.0804346
0
LINE
8
0
10
17.8
20
44.0804346
11
17.8
21
43.4755894
0
LINE
8
0
10
17.8
20
43.4755894
11
17.8
21
42.8111888
0
LINE
8
0
10
17.8
20
42.8111888
11
17.8
21
42.3726893
0
LINE
8
0
10
17.8
20
42.3726893
11
17.8
21
42.0330282
0
LINE
8
0
10
17.8
20
42.0330282
11
17.8
21
41.8074832
0
LINE
8
0
10
17.8
20
41.8074832
11
17.8
21
41.6792263
0
LINE
8
0
10
17.8
20
41.6792263
11
17.8
21
38.0760084
0
LINE
8
0
10
17.8
20
38.0760084
11
16.7863273
21
38.0760091
0
LINE
8
0
10
16.7863273
20
38.0760091
11
16
21
38.0760114
0
LINE
8
0
10
16
20
38.0760114
11
16
21
35.1666342
0
LINE
8
0
10
16
20
35.1666342
11
16
21
33.507161
0
LINE
8
0
10
16
20
33.507161
11
11.7493454
21
33.507161
0
LINE
8
0
10
11.7493454
20
33.507161
11
2.4
21
33.507161
0
LINE
8
0
10
2.4
20
33.507161
11
2.4
21
35.1666342
0
LINE
8
0
10
2.4
20
35.1666342
11
2.4
21
38.0760114
0
LINE
8
0
10
2.4
20
38.0760114
11
2.4
21
39.8280776
0
LINE
8
0
10
2.4
20
39.8280776
11
2.4
21
39.8592858
0
LINE
8
0
10
2.4
20
39.8592858
11
2.4
21
39.9007281
0
LINE
8
0
10
2.4
20
39.9007281
11
2.4
21
39.9507132
0
LINE
8
0
10
2.4
20
39.9507132
11
2.4
21
42.4344942
0
LINE
8
0
10
2.4
20
42.4344942
11
2.4
21
42.5858688
0
LINE
8
0
10
2.4
20
42.5858688
11
2.4
21
42.7042592
0
LINE
8
0
10
2.4
20
42.7042592
11
2.4
21
42.8574113
0
LINE
8
0
10
2.4
20
42.8574113
11
2.4
21
43.009331
0
LINE
8
0
10
2.4
20
43.009331
11
2.4
21
43.1396564
0
LINE
8
0
10
2.4
20
43.1396564
11
2.4
21
44.733101
0
LINE
8
0
10
2.4
20
44.733101
11
2.4
21
46.7832916
0
LINE
8
0
10
2.4
20
46.7832916
11
2.4
21
47.34195
0
LINE
8
0
10
2.4
20
47.34195
11
2.4
21
48.4712602
0
LINE
8
0
10
2.4
20
48.4712602
11
2.4
21
48.6354831
0
LINE
8
0
10
2.4
20
48.6354831
11
2.4340702
21
48.9200731
0
LINE
8
0
10
2.4340702
20
48.9200731
11
2.468148
21
49.2136587
0
LINE
8
0
10
2.468148
20
49.2136587
11
2.53479029
21
49.3905044
0
LINE
8
0
10
2.53479029
20
49.3905044
11
2.667949
21
49.781459
0
LINE
8
0
10
2.667949
20
49.781459
11
2.88674067
21
50.1282227
0
LINE
8
0
10
2.88674067
20
50.1282227
11
2.985786
21
50.2851999
0
LINE
8
0
10
2.985786
20
50.2851999
11
3.13331345
21
50.4228684
0
LINE
8
0
10
3.13331345
20
50.4228684
11
3.4
21
50.711166
0
LINE
8
0
10
3.4
20
50.711166
11
3.7372919
21
50.9079981
0
LINE
8
0
10
3.7372919
20
50.9079981
11
3.882362
21
50.9926542
0
LINE
8
0
10
3.882362
20
50.9926542
11
4.02911639
21
51.0160596
0
LINE
8
0
10
4.02911639
20
51.0160596
11
4.4
21
51.1185595
0
LINE
8
0
10
4.4
20
51.1185595
11
7.49487494
21
51.1185595
0
LINE
8
0
10
7.49487494
20
51.1185595
11
13
21
51.1185595
0
LINE
8
0
10
13
20
51.1185595
11
13.2308261
21
51.07637
0
LINE
8
0
10
13.2308261
20
51.07637
11
13.3908101
21
51.0540802
0
LINE
8
0
10
13.3908101
20
51.0540802
11
13.4383593
21
51.0500169
0
LINE
8
0
10
13.4383593
20
51.0500169
11
13.6203657
21
51.0060802
0
LINE
8
0
10
13.6203657
20
51.0060802
11
13.7912963
21
50.9625739
0
LINE
8
0
10
13.7912963
20
50.9625739
11
13.8450579
21
50.9511978
0
LINE
8
0
10
13.8450579
20
50.9511978
11
13.905125
21
50.9378428
0
LINE
8
0
10
13.905125
20
50.9378428
11
14.0378391
21
50.8910534
0
LINE
8
0
10
14.0378391
20
50.8910534
11
14.1153908
21
50.8619086
0
LINE
8
0
10
14.1153908
20
50.8619086
11
14.2257562
21
50.8279032
0
LINE
8
0
10
14.2257562
20
50.8279032
11
14.4217616
21
50.7638428
0
LINE
8
0
10
14.4217616
20
50.7638428
11
14.4254909
21
50.7628429
0
LINE
8
0
10
14.4254909
20
50.7628429
11
14.4322582
21
50.760926
0
LINE
8
0
10
14.4322582
20
50.760926
11
14.5977976
21
50.6989646
0
LINE
8
0
10
14.5977976
20
50.6989646
11
14.6711657
21
50.6696741
0
LINE
8
0
10
14.6711657
20
50.6696741
11
14.7791718
21
50.6347927
0
LINE
8
0
10
14.7791718
20
50.6347927
11
14.9374337
21
50.5805137
0
LINE
8
0
10
14.9374337
20
50.5805137
11
14.9905938
21
50.5671616
0
LINE
8
0
10
14.9905938
20
50.5671616
11
15.0599423
21
50.5484702
0
LINE
8
0
10
15.0599423
20
50.5484702
11
15.2793344
21
50.477953
0
LINE
8
0
10
15.2793344
20
50.477953
11
15.4383847
21
50.4228792
0
LINE
8
0
10
15.4383847
20
50.4228792
11
15.5854763
21
50.3907917
0
LINE
8
0
10
15.5854763
20
50.3907917
11
15.8443918
21
50.330479
0
LINE
8
0
10
15.8443918
20
50.330479
11
15.9122483
21
50.3125618
0
LINE
8
0
10
15.9122483
20
50.3125618
11
15.9511092
21
50.3015907
0
LINE
8
0
10
15.9511092
20
50.3015907
11
16.225891
21
50.2598116
0
LINE
8
0
10
16.225891
20
50.2598116
11
16.4376806
21
50.2256225
0
LINE
8
0
10
16.4376806
20
50.2256225
11
16.5631966
21
50.2194363
0
LINE
8
0
10
16.5631966
20
50.2194363
11
16.5631966
21
50.2194363
0
LINE
8
0
10
16
20
24.929575
11
16
21
32.3492393
0
LINE
8
0
10
16
20
32.3492393
11
4.28117069
21
32.3492393
0
LINE
8
0
10
4.28117069
20
32.3492393
11
2.4
21
32.3492393
0
LINE
8
0
10
2.4
20
32.3492393
11
2.4
21
28.3540988
0
LINE
8
0
10
2.4
20
28.3540988
11
2.4
21
24.929575
0
LINE
8
0
10
2.4
20
24.929575
11
2.4
21
23.6944867
0
LINE
8
0
10
2.4
20
23.6944867
11
2.4
21
14.6284546
0
LINE
8
0
10
2.4
20
14.6284546
11
2.4
21
13.8799414
0
LINE
8
0
10
2.4
20
13.8799414
11
2.4
21
13.7514875
0
LINE
8
0
10
2.4
20
13.7514875
11
2.4
21
13.6201032
0
LINE
8
0
10
2.4
20
13.6201032
11
4.91345349
21
13.6201032
0
LINE
8
0
10
4.91345349
20
13.6201032
11
23.173093
21
13.6201032
0
LINE
8
0
10
23.173093
20
13.6201032
11
25.6865465
21
13.6201032
0
LINE
8
0
10
25.6865465
20
13.6201032
11
28.2
21
13.6201032
0
LINE
8
0
10
28.2
20
13.6201032
11
28.2
21
13.2241099
0
LINE
8
0
10
28.2
20
13.2241099
11
28.2
21
13.162896
0
LINE
8
0
10
28.2
20
13.162896
11
28.2
21
12.7528569
0
LINE
8
0
10
28.2
20
12.7528569
11
28.2
21
12.6617093
0
LINE
8
0
10
28.2
20
12.6617093
11
28.2
21
12.320339
0
LINE
8
0
10
28.2
20
12.320339
11
28.2
21
11.9538771
0
LINE
8
0
10
28.2
20
11.9538771
11
28.2
21
11.8707125
0
LINE
8
0
10
28.2
20
11.8707125
11
28.2
21
11.3690825
0
LINE
8
0
10
28.2
20
11.3690825
11
28.2
21
11.3371498
0
LINE
8
0
10
28.2
20
11.3371498
11
28.2
21
11.1777625
0
LINE
8
0
10
28.2
20
11.1777625
11
26.0379771
21
11.1777625
0
LINE
8
0
10
26.0379771
20
11.1777625
11
19.6
21
11.1777625
0
LINE
8
0
10
19.6
20
11.1777625
11
17.4379771
21
11.1777625
0
LINE
8
0
10
17.4379771
20
11.1777625
11
11
21
11.1777625
0
LINE
8
0
10
11
20
11.1777625
11
8.83797715
21
11.1777625
0
LINE
8
0
10
8.83797715
20
11.1777625
11
2.4
21
11.1777625
0
LINE
8
0
10
2.4
20
11.1777625
11
2.4
21
10.7189171
0
LINE
8
0
10
2.4
20
10.7189171
11
2.4
21
10.2434519
0
LINE
8
0
10
2.4
20
10.2434519
11
2.4
21
9.92864637
0
LINE
8
0
10
2.4
20
9.92864637
11
2.4
21
6.85590819
0
LINE
8
0
10
2.4
20
6.85590819
11
2.4
21
6.31429689
0
LINE
8
0
10
2.4
20
6.31429689
11
2.4
21
5.86451849
0
LINE
8
0
10
2.4
20
5.86451849
11
2.4
21
-0.195448734
0
LINE
8
0
10
2.4
20
-0.195448734
11
2.4
21
-1.21228496
0
LINE
8
0
10
2.4
20
-1.21228496
11
2.4
21
-8.20709078
0
LINE
8
0
10
2.4
20
-8.20709078
11
2.4
21
-12.6130878
0
LINE
8
0
10
2.4
20
-12.6130878
11
2.4
21
-12.6690293
0
LINE
8
0
10
2.4
20
-12.6690293
11
2.4
21
-13.1430965
0
LINE
8
0
10
2.4
20
-13.1430965
11
2.4
21
-13.9969099
0
LINE
8
0
10
2.4
20
-13.9969099
11
2.4
21
-14
0
LINE
8
0
10
2.4
20
-14
11
2.4072516
21
-14.0550819
0
LINE
8
0
10
2.4072516
20
-14.0550819
11
2.41450322
21
-14.1101638
0
LINE
8
0
10
2.41450322
20
-14.1101638
11
2.42561301
21
-14.2952379
0
LINE
8
0
10
2.42561301
20
-14.2952379
11
2.45855265
21
-14.4785233
0
LINE
8
0
10
2.45855265
20
-14.4785233
11
2.58532852
21
-14.8256232
0
LINE
8
0
10
2.58532852
20
-14.8256232
11
2.62241078
21
-14.9151472
0
LINE
8
0
10
2.62241078
20
-14.9151472
11
2.80940994
21
-15.2072408
0
LINE
8
0
10
2.80940994
20
-15.2072408
11
2.86138964
21
-15.2749816
0
LINE
8
0
10
2.86138964
20
-15.2749816
11
3.08424706
21
-15.5049865
0
LINE
8
0
10
3.08424706
20
-15.5049865
11
3.14160102
21
-15.5489542
0
LINE
8
0
10
3.14160102
20
-15.5489542
11
3.40235553
21
-15.7331864
0
LINE
8
0
10
3.40235553
20
-15.7331864
11
3.70660384
21
-15.8734847
0
LINE
8
0
10
3.70660384
20
-15.8734847
11
3.74152607
21
-15.8879303
0
LINE
8
0
10
3.74152607
20
-15.8879303
11
4.06217607
21
-15.9705699
0
LINE
8
0
10
4.06217607
20
-15.9705699
11
4.07181887
21
-15.9722177
0
LINE
8
0
10
4.07181887
20
-15.9722177
11
4.34836573
21
-15.9956289
0
LINE
8
0
10
4.34836573
20
-15.9956289
11
5.48466471
21
-15.9923948
0
LINE
8
0
10
5.48466471
20
-15.9923948
11
7.45705887
21
-15.9943104
0
LINE
8
0
10
7.45705887
20
-15.9943104
11
30.642236
21
-15.9943104
0
LINE
8
0
10
30.642236
20
-15.9943104
11
30.6968853
21
-15.9995899
0
LINE
8
0
10
30.6968853
20
-15.9995899
11
30.6988018
21
-15.999882
0
LINE
8
0
10
30.6988018
20
-15.999882
11
30.7
21
-16
0
LINE
8
0
10
30.7
20
-16
11
32.4834068
21
-16
0
LINE
8
0
10
32.4834068
20
-16
11
32.7
21
-16
0
LINE
8
0
10
32.7
20
-16
11
33.147325
21
-15.9559398
0
LINE
8
0
10
33.147325
20
-15.9559398
11
33.2286935
21
-15.9424082
0
LINE
8
0
10
33.2286935
20
-15.9424082
11
33.5891551
21
-15.8326306
0
LINE
8
0
10
33.5891551
20
-15.8326306
11
33.7206937
21
-15.7781456
0
LINE
8
0
10
33.7206937
20
-15.7781456
11
34.0641374
21
-15.5940866
0
LINE
8
0
10
34.0641374
20
-15.5940866
11
34.1565355
21
-15.5231887
0
LINE
8
0
10
34.1565355
20
-15.5231887
11
34.46777
21
-15.26777
0
LINE
8
0
10
34.46777
20
-15.26777
11
34.7457133
21
-14.9290886
0
LINE
8
0
10
34.7457133
20
-14.9290886
11
34.7878277
21
-14.8742028
0
LINE
8
0
10
34.7878277
20
-14.8742028
11
34.9983034
21
-14.4798193
0
LINE
8
0
10
34.9983034
20
-14.4798193
11
35.017982
21
-14.4323109
0
LINE
8
0
10
35.017982
20
-14.4323109
11
35.1496865
21
-13.99748
0
LINE
8
0
10
35.1496865
20
-13.99748
11
35.1838169
21
-13.7678091
0
LINE
8
0
10
35.1838169
20
-13.7678091
11
35.1953058
21
-13.5356546
0
LINE
8
0
10
35.1953058
20
-13.5356546
11
35.1979921
21
-13.5152511
0
LINE
8
0
10
35.1979921
20
-13.5152511
11
35.1998013
21
-13.5040433
0
LINE
8
0
10
35.1998013
20
-13.5040433
11
35.2
21
-13.5
0
LINE
8
0
10
35.2
20
-13.5
11
35.2
21
-13.4075515
0
LINE
8
0
10
35.2
20
-13.4075515
11
35.2
21
-13.3941729
0
LINE
8
0
10
35.2
20
-13.3941729
11
35.2
21
-13.3703451
0
LINE
8
0
10
35.2
20
-13.3703451
11
35.2
21
-13.33301
0
LINE
8
0
10
35.2
20
-13.33301
11
35.2
21
-13.2785822
0
LINE
8
0
10
35.2
20
-13.2785822
11
35.2
21
-13.2034186
0
LINE
8
0
10
35.2
20
-13.2034186
11
35.2
21
-13.1049601
0
LINE
8
0
10
35.2
20
-13.1049601
11
35.2
21
-12.9837956
0
LINE
8
0
10
35.2
20
-12.9837956
11
35.2
21
-12.8463417
0
LINE
8
0
10
35.2
20
-12.8463417
11
35.2
21
-12.7065519
0
LINE
8
0
10
35.2
20
-12.7065519
11
35.2
21
-12.5839936
0
LINE
8
0
10
35.2
20
-12.5839936
11
35.2
21
8.85534704
0
LINE
8
0
10
35.2
20
8.85534704
11
35.2
21
8.97934519
0
LINE
8
0
10
35.2
20
8.97934519
11
35.2
21
9.13010344
0
LINE
8
0
10
35.2
20
9.13010344
11
35.2
21
9.28525349
0
LINE
8
0
10
35.2
20
9.28525349
11
35.2
21
9.42726022
0
LINE
8
0
10
35.2
20
9.42726022
11
35.2
21
9.54674548
0
LINE
8
0
10
35.2
20
9.54674548
11
35.2
21
9.93414011
0
LINE
8
0
10
35.2
20
9.93414011
11
35.2
21
10
0
LINE
8
0
10
35.2
20
10
11
30.2825433
21
10
0
LINE
8
0
10
30.2825433
20
10
11
30.2
21
10
0
LINE
8
0
10
30.2
20
10
11
30.2
21
10.2405808
0
LINE
8
0
10
30.2
20
10.2405808
11
30.2
21
10.2479709
0
LINE
8
0
10
30.2
20
10.2479709
11
30.2
21
10.2718427
0
LINE
8
0
10
30.2
20
10.2718427
11
30.2
21
10.3173406
0
LINE
8
0
10
30.2
20
10.3173406
11
30.2
21
10.3901479
0
LINE
8
0
10
30.2
20
10.3901479
11
30.2
21
10.4939883
0
LINE
8
0
10
30.2
20
10.4939883
11
30.2
21
10.6253353
0
LINE
8
0
10
30.2
20
10.6253353
11
30.2
21
10.7668268
0
LINE
8
0
10
30.2
20
10.7668268
11
30.2
21
10.8870633
0
LINE
8
0
10
30.2
20
10.8870633
11
30.2
21
10.9549097
0
LINE
8
0
10
30.2
20
10.9549097
11
30.2
21
16.8369794
0
LINE
8
0
10
30.2
20
16.8369794
11
30.2
21
17.103562
0
LINE
8
0
10
30.2
20
17.103562
11
30.2
21
17.4003048
0
LINE
8
0
10
30.2
20
17.4003048
11
30.2
21
18.1521736
0
LINE
8
0
10
30.2
20
18.1521736
11
30.2
21
18.6509434
0
LINE
8
0
10
30.2
20
18.6509434
11
30.2
21
19.7761765
0
LINE
8
0
10
30.2
20
19.7761765
11
29.7545303
21
20.5528213
0
LINE
8
0
10
29.7545303
20
20.5528213
11
29.5991916
21
20.8236465
0
LINE
8
0
10
29.5991916
20
20.8236465
11
29
21
21.8683088
0
LINE
8
0
10
29
20
21.8683088
11
26.2279248
21
21.8683088
0
LINE
8
0
10
26.2279248
20
21.8683088
11
25.7824127
21
21.8683088
0
LINE
8
0
10
25.7824127
20
21.8683088
11
16
21
21.8683111
0
LINE
8
0
10
16
20
21.8683111
11
16
21
21.9379163
0
LINE
8
0
10
16
20
21.9379163
11
16
21
22.1866284
0
LINE
8
0
10
16
20
22.1866284
11
16
21
22.7552275
0
LINE
8
0
10
16
20
22.7552275
11
16
21
23.9577173
0
LINE
8
0
10
16
20
23.9577173
11
16
21
24.929575
0
LINE
8
0
10
16
20
24.929575
11
16
21
24.929575
0
LINE
8
0
10
72
20
7.33956731
11
72
21
9.04987151
0
LINE
8
0
10
72
20
9.04987151
11
72
21
10.7141738
0
LINE
8
0
10
72
20
10.7141738
11
72
21
12.2941893
0
LINE
8
0
10
72
20
12.2941893
11
72
21
13.1756637
0
LINE
8
0
10
72
20
13.1756637
11
72
21
13.717801
0
LINE
8
0
10
72
20
13.717801
11
72
21
14.5371864
0
LINE
8
0
10
72
20
14.5371864
11
65.5328581
21
14.5188072
0
LINE
8
0
10
65.5328581
20
14.5188072
11
64.2
21
14.5234616
0
LINE
8
0
10
64.2
20
14.5234616
11
64.2
21
15.0583503
0
LINE
8
0
10
64.2
20
15.0583503
11
64.2
21
15.1698587
0
LINE
8
0
10
64.2
20
15.1698587
11
64.2
21
15.504548
0
LINE
8
0
10
64.2
20
15.504548
11
64.2
21
15.6445257
0
LINE
8
0
10
64.2
20
15.6445257
11
64.2
21
15.889933
0
LINE
8
0
10
64.2
20
15.889933
11
64.2
21
16.1334538
0
LINE
8
0
10
64.2
20
16.1334538
11
64.2
21
16.2738837
0
LINE
8
0
10
64.2
20
16.2738837
11
64.2
21
16.6004057
0
LINE
8
0
10
64.2
20
16.6004057
11
64.2
21
16.7148707
0
LINE
8
0
10
64.2
20
16.7148707
11
64.2
21
17.2816553
0
LINE
8
0
10
64.2
20
17.2816553
11
64.8190621
21
17.2838947
0
LINE
8
0
10
64.8190621
20
17.2838947
11
72
21
17.2838947
0
LINE
8
0
10
72
20
17.2838947
11
72
21
17.4251261
0
LINE
8
0
10
72
20
17.4251261
11
72
21
20.7288795
0
LINE
8
0
10
72
20
20.7288795
11
72
21
21.8683081
0
LINE
8
0
10
72
20
21.8683081
11
69.99194
21
21.8683096
0
LINE
8
0
10
69.99194
20
21.8683096
11
64.2817156
21
21.8683114
0
LINE
8
0
10
64.2817156
20
21.8683114
11
63.2
21
21.8683114
0
LINE
8
0
10
63.2
20
21.8683114
11
63.0731343
21
21.6471234
0
LINE
8
0
10
63.0731343
20
21.6471234
11
62.6010075
21
20.8239931
0
LINE
8
0
10
62.6010075
20
20.8239931
11
62.4187666
21
20.5062657
0
LINE
8
0
10
62.4187666
20
20.5062657
11
62
21
19.7761759
0
LINE
8
0
10
62
20
19.7761759
11
62
21
18.7828546
0
LINE
8
0
10
62
20
18.7828546
11
62
21
18.2622746
0
LINE
8
0
10
62
20
18.2622746
11
62
21
18.0272335
0
LINE
8
0
10
62
20
18.0272335
11
62
21
17.7870489
0
LINE
8
0
10
62
20
17.7870489
11
62
21
17.610395
0
LINE
8
0
10
62
20
17.610395
11
62
21
12.8269467
0
LINE
8
0
10
62
20
12.8269467
11
62
21
12.5948311
0
LINE
8
0
10
62
20
12.5948311
11
62
21
12.2308221
0
LINE
8
0
10
62
20
12.2308221
11
62
21
11.8478486
0
LINE
8
0
10
62
20
11.8478486
11
62
21
11.5178759
0
LINE
8
0
10
62
20
11.5178759
11
62
21
11.263456
0
LINE
8
0
10
62
20
11.263456
11
62
21
11.0800235
0
LINE
8
0
10
62
20
11.0800235
11
62
21
10.9545112
0
LINE
8
0
10
62
20
10.9545112
11
62
21
10
0
LINE
8
0
10
62
20
10
11
57.6582226
21
10
0
LINE
8
0
10
57.6582226
20
10
11
57.3
21
10
0
LINE
8
0
10
57.3
20
10
11
57.3
21
9.88670858
0
LINE
8
0
10
57.3
20
9.88670858
11
57.3
21
9.81040964
0
LINE
8
0
10
57.3
20
9.81040964
11
57.3
21
9.71184569
0
LINE
8
0
10
57.3
20
9.71184569
11
57.3
21
9.5950866
0
LINE
8
0
10
57.3
20
9.5950866
11
57.3
21
9.47097711
0
LINE
8
0
10
57.3
20
9.47097711
11
57.3
21
9.35602747
0
LINE
8
0
10
57.3
20
9.35602747
11
57.3
21
9.26705825
0
LINE
8
0
10
57.3
20
9.26705825
11
57.3
21
-12.216652
0
LINE
8
0
10
57.3
20
-12.216652
11
57.3
21
-12.3844103
0
LINE
8
0
10
57.3
20
-12.3844103
11
57.3
21
-12.5609691
0
LINE
8
0
10
57.3
20
-12.5609691
11
57.3
21
-12.7257392
0
LINE
8
0
10
57.3
20
-12.7257392
11
57.3
21
-12.8671749
0
LINE
8
0
10
57.3
20
-12.8671749
11
57.3
21
-12.9816661
0
LINE
8
0
10
57.3
20
-12.9816661
11
57.3
21
-13.0704833
0
LINE
8
0
10
57.3
20
-13.0704833
11
57.3
21
-13.1370713
0
LINE
8
0
10
57.3
20
-13.1370713
11
57.3
21
-13.1853749
0
LINE
8
0
10
57.3
20
-13.1853749
11
57.3
21
-13.4966239
0
LINE
8
0
10
57.3
20
-13.4966239
11
57.3
21
-13.5333589
0
LINE
8
0
10
57.3
20
-13.5333589
11
57.3
21
-13.807211
0
LINE
8
0
10
57.3
20
-13.807211
11
57.3
21
-14.17729
0
LINE
8
0
10
57.3
20
-14.17729
11
57.3
21
-14.1837598
0
LINE
8
0
10
57.3
20
-14.1837598
11
57.3
21
-14.5
0
LINE
8
0
10
57.3
20
-14.5
11
57.334434
21
-14.8130066
0
LINE
8
0
10
57.334434
20
-14.8130066
11
57.3377992
21
-14.8325161
0
LINE
8
0
10
57.3377992
20
-14.8325161
11
57.4192691
21
-15.0784851
0
LINE
8
0
10
57.4192691
20
-15.0784851
11
57.4459296
21
-15.1428494
0
LINE
8
0
10
57.4459296
20
-15.1428494
11
57.5621742
21
-15.3449604
0
LINE
8
0
10
57.5621742
20
-15.3449604
11
57.612776
21
-15.4109053
0
LINE
8
0
10
57.612776
20
-15.4109053
11
57.7456294
21
-15.5667908
0
LINE
8
0
10
57.7456294
20
-15.5667908
11
57.8217321
21
-15.625187
0
LINE
8
0
10
57.8217321
20
-15.625187
11
58.1245097
21
-15.8380992
0
LINE
8
0
10
58.1245097
20
-15.8380992
11
58.2361833
21
-15.8843559
0
LINE
8
0
10
58.2361833
20
-15.8843559
11
58.5409584
21
-15.9740854
0
LINE
8
0
10
58.5409584
20
-15.9740854
11
58.5819926
21
-15.9784615
0
LINE
8
0
10
58.5819926
20
-15.9784615
11
58.6296755
21
-15.9867451
0
LINE
8
0
10
58.6296755
20
-15.9867451
11
58.6713432
21
-15.9943681
0
LINE
8
0
10
58.6713432
20
-15.9943681
11
58.67679
21
-15.99493
0
LINE
8
0
10
58.67679
20
-15.99493
11
58.6822793
21
-15.9952688
0
LINE
8
0
10
58.6822793
20
-15.9952688
11
58.73836
21
-15.99873
0
LINE
8
0
10
58.73836
20
-15.99873
11
58.7437023
21
-15.9988401
0
LINE
8
0
10
58.7437023
20
-15.9988401
11
58.8
21
-16
0
LINE
8
0
10
58.8
20
-16
11
69.336589
21
-16
0
LINE
8
0
10
69.336589
20
-16
11
69.5
21
-16
0
LINE
8
0
10
69.5
20
-16
11
69.5213639
21
-15.9971873
0
LINE
8
0
10
69.5213639
20
-15.9971873
11
70.14705
21
-15.91481
0
LINE
8
0
10
70.14705
20
-15.91481
11
70.7300922
21
-15.6733061
0
LINE
8
0
10
70.7300922
20
-15.6733061
11
70.75
21
-15.66506
0
LINE
8
0
10
70.75
20
-15.66506
11
71.2506746
21
-15.2808875
0
LINE
8
0
10
71.2506746
20
-15.2808875
11
71.26777
21
-15.26777
0
LINE
8
0
10
71.26777
20
-15.26777
11
71.6519425
21
-14.7670954
0
LINE
8
0
10
71.6519425
20
-14.7670954
11
71.66506
21
-14.75
0
LINE
8
0
10
71.66506
20
-14.75
11
71.9065639
21
-14.1669578
0
LINE
8
0
10
71.9065639
20
-14.1669578
11
71.91481
21
-14.14705
0
LINE
8
0
10
71.91481
20
-14.14705
11
71.9971873
21
-13.5213639
0
LINE
8
0
10
71.9971873
20
-13.5213639
11
72
21
-13.5
0
LINE
8
0
10
72
20
-13.5
11
72
21
-13.2784384
0
LINE
8
0
10
72
20
-13.2784384
11
72
21
-13.2718895
0
LINE
8
0
10
72
20
-13.2718895
11
72
21
-13.2358874
0
LINE
8
0
10
72
20
-13.2358874
11
72
21
-13.2019808
0
LINE
8
0
10
72
20
-13.2019808
11
72
21
-13.1562569
0
LINE
8
0
10
72
20
-13.1562569
11
72
21
-13.096615
0
LINE
8
0
10
72
20
-13.096615
11
72
21
-13.0281668
0
LINE
8
0
10
72
20
-13.0281668
11
72
21
-12.9099167
0
LINE
8
0
10
72
20
-12.9099167
11
72
21
-12.745712
0
LINE
8
0
10
72
20
-12.745712
11
72
21
-12.5941534
0
LINE
8
0
10
72
20
-12.5941534
11
72
21
-12.2415802
0
LINE
8
0
10
72
20
-12.2415802
11
72
21
-11.695083
0
LINE
8
0
10
72
20
-11.695083
11
72
21
-11.2951629
0
LINE
8
0
10
72
20
-11.2951629
11
72
21
-9.9623298
0
LINE
8
0
10
72
20
-9.9623298
11
72
21
-7.61650381
0
LINE
8
0
10
72
20
-7.61650381
11
72
21
-6.40799133
0
LINE
8
0
10
72
20
-6.40799133
11
72
21
-4.15452818
0
LINE
8
0
10
72
20
-4.15452818
11
72
21
-1.70375809
0
LINE
8
0
10
72
20
-1.70375809
11
72
21
0.252332941
0
LINE
8
0
10
72
20
0.252332941
11
72
21
6.16118838
0
LINE
8
0
10
72
20
6.16118838
11
72
21
6.77306359
0
LINE
8
0
10
72
20
6.77306359
11
72
21
7.33956731
0
LINE
8
0
10
72
20
7.33956731
11
72
21
7.33956731
0
ENDSEC
0
EOF
