0
SECTION
2
ENTITIES
0
LINE
8
0
10
16
20
35.2872223
11
16
21
33.1093818
0
LINE
8
0
10
16
20
33.1093818
11
14.6697872
21
33.1093818
0
LINE
8
0
10
14.6697872
20
33.1093818
11
2.4
21
33.1093818
0
LINE
8
0
10
2.4
20
33.1093818
11
2.4
21
35.2872223
0
LINE
8
0
10
2.4
20
35.2872223
11
2.4
21
39.1053976
0
LINE
8
0
10
2.4
20
39.1053976
11
2.4
21
39.7976405
0
LINE
8
0
10
2.4
20
39.7976405
11
2.4
21
39.8099709
0
LINE
8
0
10
2.4
20
39.8099709
11
2.4
21
39.8263448
0
LINE
8
0
10
2.4
20
39.8263448
11
2.4
21
39.846094
0
LINE
8
0
10
2.4
20
39.846094
11
2.4
21
42.4077711
0
LINE
8
0
10
2.4
20
42.4077711
11
2.4
21
42.5638931
0
LINE
8
0
10
2.4
20
42.5638931
11
2.4
21
42.6546525
0
LINE
8
0
10
2.4
20
42.6546525
11
2.4
21
42.8128019
0
LINE
8
0
10
2.4
20
42.8128019
11
2.4
21
42.9696787
0
LINE
8
0
10
2.4
20
42.9696787
11
2.4
21
43.0714975
0
LINE
8
0
10
2.4
20
43.0714975
11
2.4
21
44.3164017
0
LINE
8
0
10
2.4
20
44.3164017
11
2.4
21
46.6130123
0
LINE
8
0
10
2.4
20
46.6130123
11
2.4
21
47.1167066
0
LINE
8
0
10
2.4
20
47.1167066
11
2.4
21
48.1349087
0
LINE
8
0
10
2.4
20
48.1349087
11
2.4
21
48.768074
0
LINE
8
0
10
2.4
20
48.768074
11
2.45259602
21
49.2074109
0
LINE
8
0
10
2.45259602
20
49.2074109
11
2.468148
21
49.3556513
0
LINE
8
0
10
2.468148
20
49.3556513
11
2.58344826
21
49.6941735
0
LINE
8
0
10
2.58344826
20
49.6941735
11
2.667949
21
49.9422681
0
LINE
8
0
10
2.667949
20
49.9422681
11
2.79849267
21
50.1491672
0
LINE
8
0
10
2.79849267
20
50.1491672
11
2.985786
21
50.4930403
0
LINE
8
0
10
2.985786
20
50.4930403
11
3.36593399
21
50.903997
0
LINE
8
0
10
3.36593399
20
50.903997
11
3.4
21
50.9493981
0
LINE
8
0
10
3.4
20
50.9493981
11
3.49313484
21
51.0164001
0
LINE
8
0
10
3.49313484
20
51.0164001
11
3.882362
21
51.2964164
0
LINE
8
0
10
3.882362
20
51.2964164
11
4.3354344
21
51.4000115
0
LINE
8
0
10
4.3354344
20
51.4000115
11
4.4
21
51.4178553
0
LINE
8
0
10
4.4
20
51.4178553
11
12.4660859
21
51.4178553
0
LINE
8
0
10
12.4660859
20
51.4178553
11
13
21
51.4178553
0
LINE
8
0
10
13
20
51.4178553
11
13.0757444
21
51.404011
0
LINE
8
0
10
13.0757444
20
51.404011
11
13.4013337
21
51.3675223
0
LINE
8
0
10
13.4013337
20
51.3675223
11
13.5643188
21
51.313813
0
LINE
8
0
10
13.5643188
20
51.313813
11
13.8215597
21
51.2203613
0
LINE
8
0
10
13.8215597
20
51.2203613
11
13.8269623
21
51.2188739
0
LINE
8
0
10
13.8269623
20
51.2188739
11
13.8336269
21
51.2169305
0
LINE
8
0
10
13.8336269
20
51.2169305
11
13.9829063
21
51.1481774
0
LINE
8
0
10
13.9829063
20
51.1481774
11
14.0599934
21
51.1099028
0
LINE
8
0
10
14.0599934
20
51.1099028
11
14.1460669
21
51.0752301
0
LINE
8
0
10
14.1460669
20
51.0752301
11
14.3187174
21
51.0006997
0
LINE
8
0
10
14.3187174
20
51.0006997
11
14.3197239
21
51.0003448
0
LINE
8
0
10
14.3197239
20
51.0003448
11
14.3216816
21
50.9996091
0
LINE
8
0
10
14.3216816
20
50.9996091
11
14.4706026
21
50.9259364
0
LINE
8
0
10
14.4706026
20
50.9259364
11
14.5309062
21
50.8937583
0
LINE
8
0
10
14.5309062
20
50.8937583
11
14.6306414
21
50.8507636
0
LINE
8
0
10
14.6306414
20
50.8507636
11
14.7622772
21
50.7899322
0
LINE
8
0
10
14.7622772
20
50.7899322
11
14.8014007
21
50.7752883
0
LINE
8
0
10
14.8014007
20
50.7752883
11
14.9057214
21
50.7336406
0
LINE
8
0
10
14.9057214
20
50.7336406
11
14.9717804
21
50.7018321
0
LINE
8
0
10
14.9717804
20
50.7018321
11
14.9937236
21
50.6904788
0
LINE
8
0
10
14.9937236
20
50.6904788
11
15.1356188
21
50.6316787
0
LINE
8
0
10
15.1356188
20
50.6316787
11
15.2146044
21
50.5967034
0
LINE
8
0
10
15.2146044
20
50.5967034
11
15.3677954
21
50.5474646
0
LINE
8
0
10
15.3677954
20
50.5474646
11
15.6392424
21
50.4534715
0
LINE
8
0
10
15.6392424
20
50.4534715
11
15.674127
21
50.4398415
0
LINE
8
0
10
15.674127
20
50.4398415
11
15.6939216
21
50.4314937
0
LINE
8
0
10
15.6939216
20
50.4314937
11
15.969912
21
50.3586199
0
LINE
8
0
10
15.969912
20
50.3586199
11
16.1592842
21
50.3051569
0
LINE
8
0
10
16.1592842
20
50.3051569
11
16.2922403
21
50.2849416
0
LINE
8
0
10
16.2922403
20
50.2849416
11
16.6053927
21
50.2343895
0
LINE
8
0
10
16.6053927
20
50.2343895
11
16.6357977
21
50.2290089
0
LINE
8
0
10
16.6357977
20
50.2290089
11
16.6495894
21
50.2264225
0
LINE
8
0
10
16.6495894
20
50.2264225
11
16.9547415
21
50.2089477
0
LINE
8
0
10
16.9547415
20
50.2089477
11
17.1023028
21
50.2
0
LINE
8
0
10
17.1023028
20
50.2
11
17.4387275
21
50.2
0
LINE
8
0
10
17.4387275
20
50.2
11
17.8
21
50.2
0
LINE
8
0
10
17.8
20
50.2
11
17.8
21
46.8392965
0
LINE
8
0
10
17.8
20
46.8392965
11
17.8
21
45.2
0
LINE
8
0
10
17.8
20
45.2
11
17.8
21
44.5437148
0
LINE
8
0
10
17.8
20
44.5437148
11
17.8
21
44.1092198
0
LINE
8
0
10
17.8
20
44.1092198
11
17.8
21
43.4344257
0
LINE
8
0
10
17.8
20
43.4344257
11
17.8
21
42.6931885
0
LINE
8
0
10
17.8
20
42.6931885
11
17.8
21
42.3609422
0
LINE
8
0
10
17.8
20
42.3609422
11
17.8
21
42.1035847
0
LINE
8
0
10
17.8
20
42.1035847
11
17.8
21
41.9326917
0
LINE
8
0
10
17.8
20
41.9326917
11
17.8
21
41.8355129
0
LINE
8
0
10
17.8
20
41.8355129
11
17.8
21
39.1053939
0
LINE
8
0
10
17.8
20
39.1053939
11
17.0319512
21
39.1053945
0
LINE
8
0
10
17.0319512
20
39.1053945
11
16
21
39.1053976
0
LINE
8
0
10
16
20
39.1053976
11
16
21
35.2872223
0
LINE
8
0
10
16
20
35.2872223
11
16
21
35.2872223
0
LINE
8
0
10
16
20
21.540325
11
16
21
21.6157595
0
LINE
8
0
10
16
20
21.6157595
11
16
21
21.8853009
0
LINE
8
0
10
16
20
21.8853009
11
16
21
22.5015193
0
LINE
8
0
10
16
20
22.5015193
11
16
21
23.804716
0
LINE
8
0
10
16
20
23.804716
11
16
21
24.5090381
0
LINE
8
0
10
16
20
24.5090381
11
16
21
32.7470183
0
LINE
8
0
10
16
20
32.7470183
11
2.98869931
21
32.7470183
0
LINE
8
0
10
2.98869931
20
32.7470183
11
2.4
21
32.7470183
0
LINE
8
0
10
2.4
20
32.7470183
11
2.4
21
28.3112531
0
LINE
8
0
10
2.4
20
28.3112531
11
2.4
21
24.5090381
0
LINE
8
0
10
2.4
20
24.5090381
11
2.4
21
23.6139482
0
LINE
8
0
10
2.4
20
23.6139482
11
2.4
21
17.0436373
0
LINE
8
0
10
2.4
20
17.0436373
11
2.4
21
14.2375477
0
LINE
8
0
10
2.4
20
14.2375477
11
2.4
21
13.7559889
0
LINE
8
0
10
2.4
20
13.7559889
11
2.4
21
13.3084506
0
LINE
8
0
10
2.4
20
13.3084506
11
2.4
21
13.2233927
0
LINE
8
0
10
2.4
20
13.2233927
11
9.58412954
21
13.2233927
0
LINE
8
0
10
9.58412954
20
13.2233927
11
11
21
13.2233927
0
LINE
8
0
10
11
20
13.2233927
11
18.1841295
21
13.2233927
0
LINE
8
0
10
18.1841295
20
13.2233927
11
19.6
21
13.2233927
0
LINE
8
0
10
19.6
20
13.2233927
11
26.7841295
21
13.2233927
0
LINE
8
0
10
26.7841295
20
13.2233927
11
28.2
21
13.2233927
0
LINE
8
0
10
28.2
20
13.2233927
11
28.2
21
12.7851753
0
LINE
8
0
10
28.2
20
12.7851753
11
28.2
21
12.7508479
0
LINE
8
0
10
28.2
20
12.7508479
11
28.2
21
12.2962268
0
LINE
8
0
10
28.2
20
12.2962268
11
28.2
21
11.8081898
0
LINE
8
0
10
28.2
20
11.8081898
11
28.2
21
11.7871405
0
LINE
8
0
10
28.2
20
11.7871405
11
28.2
21
11.5919213
0
LINE
8
0
10
28.2
20
11.5919213
11
25.2006719
21
11.5919213
0
LINE
8
0
10
25.2006719
20
11.5919213
11
19.6
21
11.5919213
0
LINE
8
0
10
19.6
20
11.5919213
11
16.6006719
21
11.5919213
0
LINE
8
0
10
16.6006719
20
11.5919213
11
11
21
11.5919213
0
LINE
8
0
10
11
20
11.5919213
11
8.00067186
21
11.5919213
0
LINE
8
0
10
8.00067186
20
11.5919213
11
2.4
21
11.5919213
0
LINE
8
0
10
2.4
20
11.5919213
11
2.4
21
11.1639732
0
LINE
8
0
10
2.4
20
11.1639732
11
2.4
21
10.578445
0
LINE
8
0
10
2.4
20
10.578445
11
2.4
21
10.135729
0
LINE
8
0
10
2.4
20
10.135729
11
2.4
21
9.84260676
0
LINE
8
0
10
2.4
20
9.84260676
11
2.4
21
6.16590038
0
LINE
8
0
10
2.4
20
6.16590038
11
2.4
21
5.77338526
0
LINE
8
0
10
2.4
20
5.77338526
11
2.4
21
5.44742305
0
LINE
8
0
10
2.4
20
5.44742305
11
2.4
21
1.05565956
0
LINE
8
0
10
2.4
20
1.05565956
11
2.4
21
-0.0567959939
0
LINE
8
0
10
2.4
20
-0.0567959939
11
2.4
21
-7.70936617
0
LINE
8
0
10
2.4
20
-7.70936617
11
2.4
21
-12.5296861
0
LINE
8
0
10
2.4
20
-12.5296861
11
2.4
21
-12.590888
0
LINE
8
0
10
2.4
20
-12.590888
11
2.4
21
-13.0608148
0
LINE
8
0
10
2.4
20
-13.0608148
11
2.4
21
-13.9966131
0
LINE
8
0
10
2.4
20
-13.9966131
11
2.4
21
-14
0
LINE
8
0
10
2.4
20
-14
11
2.40794792
21
-14.060371
0
LINE
8
0
10
2.40794792
20
-14.060371
11
2.41589584
21
-14.120742
0
LINE
8
0
10
2.41589584
20
-14.120742
11
2.42671723
21
-14.3010115
0
LINE
8
0
10
2.42671723
20
-14.3010115
11
2.45880175
21
-14.4795388
0
LINE
8
0
10
2.45880175
20
-14.4795388
11
2.5822865
21
-14.8176279
0
LINE
8
0
10
2.5822865
20
-14.8176279
11
2.62359296
21
-14.91735
0
LINE
8
0
10
2.62359296
20
-14.91735
11
2.80573759
21
-15.2018608
0
LINE
8
0
10
2.80573759
20
-15.2018608
11
2.86461899
21
-15.278596
0
LINE
8
0
10
2.86461899
20
-15.278596
11
3.08169099
21
-15.5026299
0
LINE
8
0
10
3.08169099
20
-15.5026299
11
3.14835118
21
-15.5537318
0
LINE
8
0
10
3.14835118
20
-15.5537318
11
3.40233646
21
-15.7331813
0
LINE
8
0
10
3.40233646
20
-15.7331813
11
3.69868643
21
-15.8698374
0
LINE
8
0
10
3.69868643
20
-15.8698374
11
3.7451822
21
-15.8890705
0
LINE
8
0
10
3.7451822
20
-15.8890705
11
4.05750806
21
-15.9695647
0
LINE
8
0
10
4.05750806
20
-15.9695647
11
4.07422506
21
-15.9724214
0
LINE
8
0
10
4.07422506
20
-15.9724214
11
4.4
21
-16
0
LINE
8
0
10
4.4
20
-16
11
4.61021482
21
-16
0
LINE
8
0
10
4.61021482
20
-16
11
30.3343138
21
-16
0
LINE
8
0
10
30.3343138
20
-16
11
30.8206277
21
-16
0
LINE
8
0
10
30.8206277
20
-16
11
32.5005136
21
-16
0
LINE
8
0
10
32.5005136
20
-16
11
32.7
21
-16
0
LINE
8
0
10
32.7
20
-16
11
33.1511593
21
-15.9555621
0
LINE
8
0
10
33.1511593
20
-15.9555621
11
33.2248061
21
-15.9433146
0
LINE
8
0
10
33.2248061
20
-15.9433146
11
33.597107
21
-15.8299315
0
LINE
8
0
10
33.597107
20
-15.8299315
11
33.7131622
21
-15.7818598
0
LINE
8
0
10
33.7131622
20
-15.7818598
11
34.0678862
21
-15.5917555
0
LINE
8
0
10
34.0678862
20
-15.5917555
11
34.1463131
21
-15.5315778
0
LINE
8
0
10
34.1463131
20
-15.5315778
11
34.46777
21
-15.26777
0
LINE
8
0
10
34.46777
20
-15.26777
11
34.7548423
21
-14.9179647
0
LINE
8
0
10
34.7548423
20
-14.9179647
11
34.785291
21
-14.8782822
0
LINE
8
0
10
34.785291
20
-14.8782822
11
35.0026797
21
-14.4709452
0
LINE
8
0
10
35.0026797
20
-14.4709452
11
35.0148017
21
-14.4416802
0
LINE
8
0
10
35.0148017
20
-14.4416802
11
35.150832
21
-13.9925674
0
LINE
8
0
10
35.150832
20
-13.9925674
11
35.1860834
21
-13.755353
0
LINE
8
0
10
35.1860834
20
-13.755353
11
35.1979496
21
-13.5155734
0
LINE
8
0
10
35.1979496
20
-13.5155734
11
35.199123
21
-13.5066615
0
LINE
8
0
10
35.199123
20
-13.5066615
11
35.1999132
21
-13.5017661
0
LINE
8
0
10
35.1999132
20
-13.5017661
11
35.2
21
-13.5
0
LINE
8
0
10
35.2
20
-13.5
11
35.2
21
-13.4596198
0
LINE
8
0
10
35.2
20
-13.4596198
11
35.2
21
-13.4537762
0
LINE
8
0
10
35.2
20
-13.4537762
11
35.2
21
-13.4433685
0
LINE
8
0
10
35.2
20
-13.4433685
11
35.2
21
-13.4270611
0
LINE
8
0
10
35.2
20
-13.4270611
11
35.2
21
-13.4032878
0
LINE
8
0
10
35.2
20
-13.4032878
11
35.2
21
-13.3704574
0
LINE
8
0
10
35.2
20
-13.3704574
11
35.2
21
-13.3274521
0
LINE
8
0
10
35.2
20
-13.3274521
11
35.2
21
-13.2745291
0
LINE
8
0
10
35.2
20
-13.2745291
11
35.2
21
-13.2144912
0
LINE
8
0
10
35.2
20
-13.2144912
11
35.2
21
-13.153433
0
LINE
8
0
10
35.2
20
-13.153433
11
35.2
21
-13.0999012
0
LINE
8
0
10
35.2
20
-13.0999012
11
35.2
21
9.50003163
0
LINE
8
0
10
35.2
20
9.50003163
11
35.2
21
9.55419228
0
LINE
8
0
10
35.2
20
9.55419228
11
35.2
21
9.62004137
0
LINE
8
0
10
35.2
20
9.62004137
11
35.2
21
9.68780874
0
LINE
8
0
10
35.2
20
9.68780874
11
35.2
21
9.74983529
0
LINE
8
0
10
35.2
20
9.74983529
11
35.2
21
9.80202478
0
LINE
8
0
10
35.2
20
9.80202478
11
35.2
21
9.97123332
0
LINE
8
0
10
35.2
20
9.97123332
11
35.2
21
10
0
LINE
8
0
10
35.2
20
10
11
30.2360538
21
10
0
LINE
8
0
10
30.2360538
20
10
11
30.2
21
10
0
LINE
8
0
10
30.2
20
10
11
30.2
21
10.1050823
0
LINE
8
0
10
30.2
20
10.1050823
11
30.2
21
10.1083102
0
LINE
8
0
10
30.2
20
10.1083102
11
30.2
21
10.1187371
0
LINE
8
0
10
30.2
20
10.1187371
11
30.2
21
10.1386099
0
LINE
8
0
10
30.2
20
10.1386099
11
30.2
21
10.1704111
0
LINE
8
0
10
30.2
20
10.1704111
11
30.2
21
10.2157672
0
LINE
8
0
10
30.2
20
10.2157672
11
30.2
21
10.2731377
0
LINE
8
0
10
30.2
20
10.2731377
11
30.2
21
10.3349392
0
LINE
8
0
10
30.2
20
10.3349392
11
30.2
21
10.3874568
0
LINE
8
0
10
30.2
20
10.3874568
11
30.2
21
10.4170912
0
LINE
8
0
10
30.2
20
10.4170912
11
30.2
21
18.1643907
0
LINE
8
0
10
30.2
20
18.1643907
11
30.2
21
18.2808302
0
LINE
8
0
10
30.2
20
18.2808302
11
30.2
21
18.4104433
0
LINE
8
0
10
30.2
20
18.4104433
11
30.2
21
18.7388491
0
LINE
8
0
10
30.2
20
18.7388491
11
30.2
21
18.9567047
0
LINE
8
0
10
30.2
20
18.9567047
11
30.2
21
19.4481908
0
LINE
8
0
10
30.2
20
19.4481908
11
29.7172228
21
20.2898785
0
LINE
8
0
10
29.7172228
20
20.2898785
11
29.6493731
21
20.4081711
0
LINE
8
0
10
29.6493731
20
20.4081711
11
29
21
21.5403224
0
LINE
8
0
10
29
20
21.5403224
11
26.9337515
21
21.5403224
0
LINE
8
0
10
26.9337515
20
21.5403224
11
26.6016759
21
21.5403224
0
LINE
8
0
10
26.6016759
20
21.5403224
11
16
21
21.540325
0
LINE
8
0
10
16
20
21.540325
11
16
21
21.540325
0
LINE
8
0
10
72
20
18.3501072
11
72
21
19.5996019
0
LINE
8
0
10
72
20
19.5996019
11
72
21
21.042635
0
LINE
8
0
10
72
20
21.042635
11
72
21
21.5403215
0
LINE
8
0
10
72
20
21.5403215
11
71.1229075
21
21.5403221
0
LINE
8
0
10
71.1229075
20
21.5403221
11
64.0062888
21
21.5403244
0
LINE
8
0
10
64.0062888
20
21.5403244
11
63.2
21
21.5403244
0
LINE
8
0
10
63.2
20
21.5403244
11
63.1054369
21
21.3754553
0
LINE
8
0
10
63.1054369
20
21.3754553
11
62.5507139
21
20.4083225
0
LINE
8
0
10
62.5507139
20
20.4083225
11
62.4711136
21
20.2695437
0
LINE
8
0
10
62.4711136
20
20.2695437
11
62
21
19.4481905
0
LINE
8
0
10
62
20
19.4481905
11
62
21
19.0143217
0
LINE
8
0
10
62
20
19.0143217
11
62
21
18.7869397
0
LINE
8
0
10
62
20
18.7869397
11
62
21
18.684277
0
LINE
8
0
10
62
20
18.684277
11
62
21
18.5793677
0
LINE
8
0
10
62
20
18.5793677
11
62
21
18.5022078
0
LINE
8
0
10
62
20
18.5022078
11
62
21
11.2347707
0
LINE
8
0
10
62
20
11.2347707
11
62
21
11.1333859
0
LINE
8
0
10
62
20
11.1333859
11
62
21
10.9743918
0
LINE
8
0
10
62
20
10.9743918
11
62
21
10.8071144
0
LINE
8
0
10
62
20
10.8071144
11
62
21
10.6629869
0
LINE
8
0
10
62
20
10.6629869
11
62
21
10.5518599
0
LINE
8
0
10
62
20
10.5518599
11
62
21
10.4717391
0
LINE
8
0
10
62
20
10.4717391
11
62
21
10.4169171
0
LINE
8
0
10
62
20
10.4169171
11
62
21
10
0
LINE
8
0
10
62
20
10
11
57.4564666
21
10
0
LINE
8
0
10
57.4564666
20
10
11
57.3
21
10
0
LINE
8
0
10
57.3
20
10
11
57.3
21
9.95051589
0
LINE
8
0
10
57.3
20
9.95051589
11
57.3
21
9.91718959
0
LINE
8
0
10
57.3
20
9.91718959
11
57.3
21
9.87413824
0
LINE
8
0
10
57.3
20
9.87413824
11
57.3
21
9.8231395
0
LINE
8
0
10
57.3
20
9.8231395
11
57.3
21
9.76893021
0
LINE
8
0
10
57.3
20
9.76893021
11
57.3
21
9.71872182
0
LINE
8
0
10
57.3
20
9.71872182
11
57.3
21
9.67986131
0
LINE
8
0
10
57.3
20
9.67986131
11
57.3
21
-12.9394516
0
LINE
8
0
10
57.3
20
-12.9394516
11
57.3
21
-13.012726
0
LINE
8
0
10
57.3
20
-13.012726
11
57.3
21
-13.0898445
0
LINE
8
0
10
57.3
20
-13.0898445
11
57.3
21
-13.1618137
0
LINE
8
0
10
57.3
20
-13.1618137
11
57.3
21
-13.2235908
0
LINE
8
0
10
57.3
20
-13.2235908
11
57.3
21
-13.273599
0
LINE
8
0
10
57.3
20
-13.273599
11
57.3
21
-13.3123931
0
LINE
8
0
10
57.3
20
-13.3123931
11
57.3
21
-13.3414778
0
LINE
8
0
10
57.3
20
-13.3414778
11
57.3
21
-13.3625761
0
LINE
8
0
10
57.3
20
-13.3625761
11
57.3
21
-13.6804789
0
LINE
8
0
10
57.3
20
-13.6804789
11
57.3
21
-13.6976507
0
LINE
8
0
10
57.3
20
-13.6976507
11
57.3
21
-13.9767692
0
LINE
8
0
10
57.3
20
-13.9767692
11
57.3
21
-14.17729
0
LINE
8
0
10
57.3
20
-14.17729
11
57.3
21
-14.1807956
0
LINE
8
0
10
57.3
20
-14.1807956
11
57.3
21
-14.5
0
LINE
8
0
10
57.3
20
-14.5
11
57.3347568
21
-14.8159405
0
LINE
8
0
10
57.3347568
20
-14.8159405
11
57.3371399
21
-14.8297565
0
LINE
8
0
10
57.3371399
20
-14.8297565
11
57.4226452
21
-15.0879089
0
LINE
8
0
10
57.4226452
20
-15.0879089
11
57.4432038
21
-15.137542
0
LINE
8
0
10
57.4432038
20
-15.137542
11
57.5652063
21
-15.3496641
0
LINE
8
0
10
57.5652063
20
-15.3496641
11
57.606507
21
-15.4034876
0
LINE
8
0
10
57.606507
20
-15.4034876
11
57.7459409
21
-15.5670945
0
LINE
8
0
10
57.7459409
20
-15.5670945
11
57.8104254
21
-15.6165757
0
LINE
8
0
10
57.8104254
20
-15.6165757
11
58.1282004
21
-15.8400339
0
LINE
8
0
10
58.1282004
20
-15.8400339
11
58.2274861
21
-15.8811594
0
LINE
8
0
10
58.2274861
20
-15.8811594
11
58.5473574
21
-15.9753334
0
LINE
8
0
10
58.5473574
20
-15.9753334
11
58.5904242
21
-15.9799263
0
LINE
8
0
10
58.5904242
20
-15.9799263
11
58.633866
21
-15.9874731
0
LINE
8
0
10
58.633866
20
-15.9874731
11
58.6718277
21
-15.9944181
0
LINE
8
0
10
58.6718277
20
-15.9944181
11
58.67679
21
-15.99493
0
LINE
8
0
10
58.67679
20
-15.99493
11
58.6817911
21
-15.9952387
0
LINE
8
0
10
58.6817911
20
-15.9952387
11
58.73836
21
-15.99873
0
LINE
8
0
10
58.73836
20
-15.99873
11
58.7432105
21
-15.9988299
0
LINE
8
0
10
58.7432105
20
-15.9988299
11
58.8
21
-16
0
LINE
8
0
10
58.8
20
-16
11
69.4286244
21
-16
0
LINE
8
0
10
69.4286244
20
-16
11
69.5
21
-16
0
LINE
8
0
10
69.5
20
-16
11
69.5093314
21
-15.9987714
0
LINE
8
0
10
69.5093314
20
-15.9987714
11
70.14705
21
-15.91481
0
LINE
8
0
10
70.14705
20
-15.91481
11
70.7413046
21
-15.6686618
0
LINE
8
0
10
70.7413046
20
-15.6686618
11
70.75
21
-15.66506
0
LINE
8
0
10
70.75
20
-15.66506
11
71.260303
21
-15.2734995
0
LINE
8
0
10
71.260303
20
-15.2734995
11
71.26777
21
-15.26777
0
LINE
8
0
10
71.26777
20
-15.26777
11
71.6593305
21
-14.757467
0
LINE
8
0
10
71.6593305
20
-14.757467
11
71.66506
21
-14.75
0
LINE
8
0
10
71.66506
20
-14.75
11
71.9112082
21
-14.1557454
0
LINE
8
0
10
71.9112082
20
-14.1557454
11
71.91481
21
-14.14705
0
LINE
8
0
10
71.91481
20
-14.14705
11
71.9987714
21
-13.5093314
0
LINE
8
0
10
71.9987714
20
-13.5093314
11
72
21
-13.5
0
LINE
8
0
10
72
20
-13.5
11
72
21
-13.403225
0
LINE
8
0
10
72
20
-13.403225
11
72
21
-13.4003645
0
LINE
8
0
10
72
20
-13.4003645
11
72
21
-13.3846393
0
LINE
8
0
10
72
20
-13.3846393
11
72
21
-13.3698294
0
LINE
8
0
10
72
20
-13.3698294
11
72
21
-13.3498578
0
LINE
8
0
10
72
20
-13.3498578
11
72
21
-13.3238071
0
LINE
8
0
10
72
20
-13.3238071
11
72
21
-13.2939099
0
LINE
8
0
10
72
20
-13.2939099
11
72
21
-13.2422599
0
LINE
8
0
10
72
20
-13.2422599
11
72
21
-13.1705376
0
LINE
8
0
10
72
20
-13.1705376
11
72
21
-13.1043389
0
LINE
8
0
10
72
20
-13.1043389
11
72
21
-12.9503399
0
LINE
8
0
10
72
20
-12.9503399
11
72
21
-12.7116376
0
LINE
8
0
10
72
20
-12.7116376
11
72
21
-12.5369581
0
LINE
8
0
10
72
20
-12.5369581
11
72
21
-11.9547952
0
LINE
8
0
10
72
20
-11.9547952
11
72
21
-10.9301713
0
LINE
8
0
10
72
20
-10.9301713
11
72
21
-10.40231
0
LINE
8
0
10
72
20
-10.40231
11
72
21
-9.41802887
0
LINE
8
0
10
72
20
-9.41802887
11
72
21
-8.34756684
0
LINE
8
0
10
72
20
-8.34756684
11
72
21
-7.49317369
0
LINE
8
0
10
72
20
-7.49317369
11
72
21
11.2182203
0
LINE
8
0
10
72
20
11.2182203
11
72
21
11.4854789
0
LINE
8
0
10
72
20
11.4854789
11
72
21
11.7329197
0
LINE
8
0
10
72
20
11.7329197
11
72
21
12.4799566
0
LINE
8
0
10
72
20
12.4799566
11
72
21
13.2069006
0
LINE
8
0
10
72
20
13.2069006
11
72
21
14.8258895
0
LINE
8
0
10
72
20
14.8258895
11
67.6570461
21
14.8081742
0
LINE
8
0
10
67.6570461
20
14.8081742
11
64.2
21
14.8202466
0
LINE
8
0
10
64.2
20
14.8202466
11
64.2
21
14.9243295
0
LINE
8
0
10
64.2
20
14.9243295
11
64.2
21
14.9460277
0
LINE
8
0
10
64.2
20
14.9460277
11
64.2
21
15.4415759
0
LINE
8
0
10
64.2
20
15.4415759
11
64.2
21
15.5154855
0
LINE
8
0
10
64.2
20
15.5154855
11
64.2
21
15.8883299
0
LINE
8
0
10
64.2
20
15.8883299
11
64.2
21
16.2583082
0
LINE
8
0
10
64.2
20
16.2583082
11
64.2
21
16.3334217
0
LINE
8
0
10
64.2
20
16.3334217
11
64.2
21
16.8180686
0
LINE
8
0
10
64.2
20
16.8180686
11
64.2
21
16.8446273
0
LINE
8
0
10
64.2
20
16.8446273
11
64.2
21
16.9761353
0
LINE
8
0
10
64.2
20
16.9761353
11
67.934269
21
16.9896439
0
LINE
8
0
10
67.934269
20
16.9896439
11
72
21
16.9901308
0
LINE
8
0
10
72
20
16.9901308
11
72
21
18.3501072
0
LINE
8
0
10
72
20
18.3501072
11
72
21
18.3501072
0
ENDSEC
0
EOF
