0
SECTION
2
ENTITIES
0
LINE
8
0
10
16
20
21.2123388
11
16
21
21.2936027
0
LINE
8
0
10
16
20
21.2936027
11
16
21
21.5839733
0
LINE
8
0
10
16
20
21.5839733
11
16
21
22.2478112
0
LINE
8
0
10
16
20
22.2478112
11
16
21
23.6517146
0
LINE
8
0
10
16
20
23.6517146
11
16
21
24.0885012
0
LINE
8
0
10
16
20
24.0885012
11
16
21
30.5456241
0
LINE
8
0
10
16
20
30.5456241
11
16
21
32.7116023
0
LINE
8
0
10
16
20
32.7116023
11
16
21
33.1447977
0
LINE
8
0
10
16
20
33.1447977
11
16
21
35.4078104
0
LINE
8
0
10
16
20
35.4078104
11
16
21
39.6397976
0
LINE
8
0
10
16
20
39.6397976
11
15.4457802
21
39.6397976
0
LINE
8
0
10
15.4457802
20
39.6397976
11
2.4
21
39.6397976
0
LINE
8
0
10
2.4
20
39.6397976
11
2.4
21
35.4078104
0
LINE
8
0
10
2.4
20
35.4078104
11
2.4
21
33.1447977
0
LINE
8
0
10
2.4
20
33.1447977
11
2.4
21
32.8848805
0
LINE
8
0
10
2.4
20
32.8848805
11
2.4
21
32.7116023
0
LINE
8
0
10
2.4
20
32.7116023
11
2.4
21
28.2684075
0
LINE
8
0
10
2.4
20
28.2684075
11
2.4
21
24.0885012
0
LINE
8
0
10
2.4
20
24.0885012
11
2.4
21
23.5334096
0
LINE
8
0
10
2.4
20
23.5334096
11
2.4
21
19.4588199
0
LINE
8
0
10
2.4
20
19.4588199
11
2.4
21
14.5951541
0
LINE
8
0
10
2.4
20
14.5951541
11
2.4
21
13.7604902
0
LINE
8
0
10
2.4
20
13.7604902
11
2.4
21
13.3297886
0
LINE
8
0
10
2.4
20
13.3297886
11
2.4
21
12.8210199
0
LINE
8
0
10
2.4
20
12.8210199
11
2.4
21
12.2927464
0
LINE
8
0
10
2.4
20
12.2927464
11
2.4
21
11.8121491
0
LINE
8
0
10
2.4
20
11.8121491
11
2.4
21
11.6043512
0
LINE
8
0
10
2.4
20
11.6043512
11
2.4
21
10.9801875
0
LINE
8
0
10
2.4
20
10.9801875
11
2.4
21
10.4379729
0
LINE
8
0
10
2.4
20
10.4379729
11
2.4
21
10.0280062
0
LINE
8
0
10
2.4
20
10.0280062
11
2.4
21
9.75656714
0
LINE
8
0
10
2.4
20
9.75656714
11
2.4
21
5.47589256
0
LINE
8
0
10
2.4
20
5.47589256
11
2.4
21
5.23247363
0
LINE
8
0
10
2.4
20
5.23247363
11
2.4
21
5.0303276
0
LINE
8
0
10
2.4
20
5.0303276
11
2.4
21
2.30676786
0
LINE
8
0
10
2.4
20
2.30676786
11
2.4
21
1.09869298
0
LINE
8
0
10
2.4
20
1.09869298
11
2.4
21
-7.21164155
0
LINE
8
0
10
2.4
20
-7.21164155
11
2.4
21
-12.4462843
0
LINE
8
0
10
2.4
20
-12.4462843
11
2.4
21
-12.5127468
0
LINE
8
0
10
2.4
20
-12.5127468
11
2.4
21
-12.9785332
0
LINE
8
0
10
2.4
20
-12.9785332
11
2.4
21
-13.9963164
0
LINE
8
0
10
2.4
20
-13.9963164
11
2.4
21
-14
0
LINE
8
0
10
2.4
20
-14
11
2.40864423
21
-14.06566
0
LINE
8
0
10
2.40864423
20
-14.06566
11
2.41728847
21
-14.1313201
0
LINE
8
0
10
2.41728847
20
-14.1313201
11
2.42782144
21
-14.3067851
0
LINE
8
0
10
2.42782144
20
-14.3067851
11
2.45905085
21
-14.4805543
0
LINE
8
0
10
2.45905085
20
-14.4805543
11
2.57924447
21
-14.8096326
0
LINE
8
0
10
2.57924447
20
-14.8096326
11
2.62477514
21
-14.9195528
0
LINE
8
0
10
2.62477514
20
-14.9195528
11
2.80206524
21
-15.1964808
0
LINE
8
0
10
2.80206524
20
-15.1964808
11
2.86784834
21
-15.2822104
0
LINE
8
0
10
2.86784834
20
-15.2822104
11
3.07913492
21
-15.5002734
0
LINE
8
0
10
3.07913492
20
-15.5002734
11
3.15510135
21
-15.5585094
0
LINE
8
0
10
3.15510135
20
-15.5585094
11
3.4023174
21
-15.7331762
0
LINE
8
0
10
3.4023174
20
-15.7331762
11
3.69076902
21
-15.8661901
0
LINE
8
0
10
3.69076902
20
-15.8661901
11
3.74883832
21
-15.8902107
0
LINE
8
0
10
3.74883832
20
-15.8902107
11
4.05284006
21
-15.9685595
0
LINE
8
0
10
4.05284006
20
-15.9685595
11
4.07663125
21
-15.9726251
0
LINE
8
0
10
4.07663125
20
-15.9726251
11
4.4
21
-16
0
LINE
8
0
10
4.4
20
-16
11
4.89107093
21
-16
0
LINE
8
0
10
4.89107093
20
-16
11
29.8457412
21
-16
0
LINE
8
0
10
29.8457412
20
-16
11
30.9817914
21
-16
0
LINE
8
0
10
30.9817914
20
-16
11
32.5176203
21
-16
0
LINE
8
0
10
32.5176203
20
-16
11
32.7
21
-16
0
LINE
8
0
10
32.7
20
-16
11
33.1549937
21
-15.9551844
0
LINE
8
0
10
33.1549937
20
-15.9551844
11
33.2209187
21
-15.9442211
0
LINE
8
0
10
33.2209187
20
-15.9442211
11
33.6050588
21
-15.8272323
0
LINE
8
0
10
33.6050588
20
-15.8272323
11
33.7056307
21
-15.7855741
0
LINE
8
0
10
33.7056307
20
-15.7855741
11
34.071635
21
-15.5894244
0
LINE
8
0
10
34.071635
20
-15.5894244
11
34.1360906
21
-15.539967
0
LINE
8
0
10
34.1360906
20
-15.539967
11
34.46777
21
-15.26777
0
LINE
8
0
10
34.46777
20
-15.26777
11
34.7639713
21
-14.9068408
0
LINE
8
0
10
34.7639713
20
-14.9068408
11
34.7827544
21
-14.8823617
0
LINE
8
0
10
34.7827544
20
-14.8823617
11
35.007056
21
-14.4620712
0
LINE
8
0
10
35.007056
20
-14.4620712
11
35.0116214
21
-14.4510496
0
LINE
8
0
10
35.0116214
20
-14.4510496
11
35.1484472
21
-13.9993104
0
LINE
8
0
10
35.1484472
20
-13.9993104
11
36.1453491
21
-14.0027948
0
LINE
8
0
10
36.1453491
20
-14.0027948
11
40.8432916
21
-13.9621902
0
LINE
8
0
10
40.8432916
20
-13.9621902
11
50.2546349
21
-13.8915628
0
LINE
8
0
10
50.2546349
20
-13.8915628
11
52.0037313
21
-13.9806955
0
LINE
8
0
10
52.0037313
20
-13.9806955
11
57.3
21
-13.9763616
0
LINE
8
0
10
57.3
20
-13.9763616
11
57.3
21
-14.1463275
0
LINE
8
0
10
57.3
20
-14.1463275
11
57.3
21
-14.17729
0
LINE
8
0
10
57.3
20
-14.17729
11
57.3
21
-14.1778313
0
LINE
8
0
10
57.3
20
-14.1778313
11
57.3
21
-14.5
0
LINE
8
0
10
57.3
20
-14.5
11
57.3350795
21
-14.8188745
0
LINE
8
0
10
57.3350795
20
-14.8188745
11
57.3364806
21
-14.8269969
0
LINE
8
0
10
57.3364806
20
-14.8269969
11
57.4260212
21
-15.0973327
0
LINE
8
0
10
57.4260212
20
-15.0973327
11
57.4404781
21
-15.1322346
0
LINE
8
0
10
57.4404781
20
-15.1322346
11
57.5682384
21
-15.3543677
0
LINE
8
0
10
57.5682384
20
-15.3543677
11
57.6002379
21
-15.3960699
0
LINE
8
0
10
57.6002379
20
-15.3960699
11
57.7462524
21
-15.5673982
0
LINE
8
0
10
57.7462524
20
-15.5673982
11
57.7991188
21
-15.6079643
0
LINE
8
0
10
57.7991188
20
-15.6079643
11
58.131891
21
-15.8419686
0
LINE
8
0
10
58.131891
20
-15.8419686
11
58.2187889
21
-15.8779629
0
LINE
8
0
10
58.2187889
20
-15.8779629
11
58.5537564
21
-15.9765814
0
LINE
8
0
10
58.5537564
20
-15.9765814
11
58.5988557
21
-15.981391
0
LINE
8
0
10
58.5988557
20
-15.981391
11
58.6380565
21
-15.9882011
0
LINE
8
0
10
58.6380565
20
-15.9882011
11
58.6723121
21
-15.9944681
0
LINE
8
0
10
58.6723121
20
-15.9944681
11
58.67679
21
-15.99493
0
LINE
8
0
10
58.67679
20
-15.99493
11
58.6813029
21
-15.9952085
0
LINE
8
0
10
58.6813029
20
-15.9952085
11
58.73836
21
-15.99873
0
LINE
8
0
10
58.73836
20
-15.99873
11
58.7427187
21
-15.9988198
0
LINE
8
0
10
58.7427187
20
-15.9988198
11
58.8
21
-16
0
LINE
8
0
10
58.8
20
-16
11
69.2241925
21
-16
0
LINE
8
0
10
69.2241925
20
-16
11
69.4929996
21
-16
0
LINE
8
0
10
69.4929996
20
-16
11
69.4953489
21
-16
0
LINE
8
0
10
69.4953489
20
-16
11
69.4976791
21
-16
0
LINE
8
0
10
69.4976791
20
-16
11
70.0952318
21
-15.9213268
0
LINE
8
0
10
70.0952318
20
-15.9213268
11
70.1435658
21
-15.91481
0
LINE
8
0
10
70.1435658
20
-15.91481
11
70.7181609
21
-15.676805
0
LINE
8
0
10
70.7181609
20
-15.676805
11
70.7465159
21
-15.66506
0
LINE
8
0
10
70.7465159
20
-15.66506
11
71.2416146
21
-15.2851659
0
LINE
8
0
10
71.2416146
20
-15.2851659
11
71.2642854
21
-15.26777
0
LINE
8
0
10
71.2642854
20
-15.26777
11
71.6451514
21
-14.7714047
0
LINE
8
0
10
71.6451514
20
-14.7714047
11
71.661576
21
-14.75
0
LINE
8
0
10
71.661576
20
-14.75
11
71.9014257
21
-14.1709514
0
LINE
8
0
10
71.9014257
20
-14.1709514
11
71.911326
21
-14.14705
0
LINE
8
0
10
71.911326
20
-14.14705
11
71.9173769
21
-14.109927
0
LINE
8
0
10
71.9173769
20
-14.109927
11
71.9976793
21
-13.5
0
LINE
8
0
10
71.9976793
20
-13.5
11
71.9997438
21
-0.226015255
0
LINE
8
0
10
71.9997438
20
-0.226015255
11
71.9997438
21
15.3131172
0
LINE
8
0
10
71.9997438
20
15.3131172
11
66.8977059
21
15.2912157
0
LINE
8
0
10
66.8977059
20
15.2912157
11
64.2
21
15.3062881
0
LINE
8
0
10
64.2
20
15.3062881
11
64.2
21
15.3786039
0
LINE
8
0
10
64.2
20
15.3786039
11
64.2
21
15.3864452
0
LINE
8
0
10
64.2
20
15.3864452
11
64.2
21
15.8867268
0
LINE
8
0
10
64.2
20
15.8867268
11
64.2
21
16.3831627
0
LINE
8
0
10
64.2
20
16.3831627
11
64.2
21
16.3929597
0
LINE
8
0
10
64.2
20
16.3929597
11
64.2
21
16.4871482
0
LINE
8
0
10
64.2
20
16.4871482
11
67.3242814
21
16.5052476
0
LINE
8
0
10
67.3242814
20
16.5052476
11
71.9997438
21
16.4868828
0
LINE
8
0
10
71.9997438
20
16.4868828
11
71.9997438
21
18.9968101
0
LINE
8
0
10
71.9997438
20
18.9968101
11
71.9996116
21
19.4348847
0
LINE
8
0
10
71.9996116
20
19.4348847
11
71.9981323
21
21.2123358
0
LINE
8
0
10
71.9981323
20
21.2123358
11
71.0820223
21
21.2123351
0
LINE
8
0
10
71.0820223
20
21.2123351
11
63.730862
21
21.2123373
0
LINE
8
0
10
63.730862
20
21.2123373
11
63.2
21
21.2123373
0
LINE
8
0
10
63.2
20
21.2123373
11
63.1377395
21
21.1037873
0
LINE
8
0
10
63.1377395
20
21.1037873
11
62.5835094
21
20.1375138
0
LINE
8
0
10
62.5835094
20
20.1375138
11
33.1840859
21
20.1375138
0
LINE
8
0
10
33.1840859
20
20.1375138
11
29.6164906
21
20.1375138
0
LINE
8
0
10
29.6164906
20
20.1375138
11
29
21
21.2123361
0
LINE
8
0
10
29
20
21.2123361
11
27.6395783
21
21.2123361
0
LINE
8
0
10
27.6395783
20
21.2123361
11
27.4209391
21
21.2123361
0
LINE
8
0
10
27.4209391
20
21.2123361
11
16
21
21.2123388
0
LINE
8
0
10
16
20
21.2123388
11
16
21
21.2123388
0
LINE
8
0
10
48.2892846
20
-5.22295033
11
48.1
21
-5.247758
0
LINE
8
0
10
48.1
20
-5.247758
11
48.0960146
21
-5.24723567
0
LINE
8
0
10
48.0960146
20
-5.24723567
11
47.90673
21
-5.222428
0
LINE
8
0
10
47.90673
20
-5.222428
11
47.9030137
21
-5.22089626
0
LINE
8
0
10
47.9030137
20
-5.22089626
11
47.72651
21
-5.148148
0
LINE
8
0
10
47.72651
20
-5.148148
11
47.7233139
21
-5.14571034
0
LINE
8
0
10
47.7233139
20
-5.14571034
11
47.57152
21
-5.029936
0
LINE
8
0
10
47.57152
20
-5.029936
11
47.5690601
21
-5.02675707
0
LINE
8
0
10
47.5690601
20
-5.02675707
11
47.45223
21
-4.875777
0
LINE
8
0
10
47.45223
20
-4.875777
11
47.4506725
21
-4.87207153
0
LINE
8
0
10
47.4506725
20
-4.87207153
11
47.3767
21
-4.696084
0
LINE
8
0
10
47.3767
20
-4.696084
11
47.3761498
21
-4.69210227
0
LINE
8
0
10
47.3761498
20
-4.69210227
11
47.35002
21
-4.502994
0
LINE
8
0
10
47.35002
20
-4.502994
11
47.3505145
21
-4.49900499
0
LINE
8
0
10
47.3505145
20
-4.49900499
11
47.374
21
-4.309551
0
LINE
8
0
10
47.374
20
-4.309551
11
47.3755058
21
-4.30582412
0
LINE
8
0
10
47.3755058
20
-4.30582412
11
47.44702
21
-4.12882
0
LINE
8
0
10
47.44702
20
-4.12882
11
47.5617346
21
-3.97622396
0
LINE
8
0
10
47.5617346
20
-3.97622396
11
47.56415
21
-3.973011
0
LINE
8
0
10
47.56415
20
-3.973011
11
48.0944751
21
-3.43145591
0
LINE
8
0
10
48.0944751
20
-3.43145591
11
48.1
21
-3.425814
0
LINE
8
0
10
48.1
20
-3.425814
11
48.6303251
21
-3.96736909
0
LINE
8
0
10
48.6303251
20
-3.96736909
11
48.63585
21
-3.973011
0
LINE
8
0
10
48.63585
20
-3.973011
11
48.6382654
21
-3.97622396
0
LINE
8
0
10
48.6382654
20
-3.97622396
11
48.75298
21
-4.12882
0
LINE
8
0
10
48.75298
20
-4.12882
11
48.7544858
21
-4.13254688
0
LINE
8
0
10
48.7544858
20
-4.13254688
11
48.826
21
-4.309551
0
LINE
8
0
10
48.826
20
-4.309551
11
48.8264945
21
-4.31354001
0
LINE
8
0
10
48.8264945
20
-4.31354001
11
48.84998
21
-4.502994
0
LINE
8
0
10
48.84998
20
-4.502994
11
48.8494298
21
-4.50697573
0
LINE
8
0
10
48.8494298
20
-4.50697573
11
48.8233
21
-4.696084
0
LINE
8
0
10
48.8233
20
-4.696084
11
48.8217425
21
-4.69978947
0
LINE
8
0
10
48.8217425
20
-4.69978947
11
48.74777
21
-4.875777
0
LINE
8
0
10
48.74777
20
-4.875777
11
48.7453101
21
-4.87895593
0
LINE
8
0
10
48.7453101
20
-4.87895593
11
48.62848
21
-5.029936
0
LINE
8
0
10
48.62848
20
-5.029936
11
48.6252839
21
-5.03237366
0
LINE
8
0
10
48.6252839
20
-5.03237366
11
48.47349
21
-5.148148
0
LINE
8
0
10
48.47349
20
-5.148148
11
48.4697737
21
-5.14967974
0
LINE
8
0
10
48.4697737
20
-5.14967974
11
48.29327
21
-5.222428
0
LINE
8
0
10
48.29327
20
-5.222428
11
48.2892846
21
-5.22295033
0
LINE
8
0
10
48.2892846
20
-5.22295033
11
48.2892846
21
-5.22295033
0
LINE
8
0
10
16.3558601
20
50.3115235
11
16.3643559
21
50.3087266
0
LINE
8
0
10
16.3643559
20
50.3087266
11
16.6667114
21
50.2552203
0
LINE
8
0
10
16.6667114
20
50.2552203
11
16.8159517
21
50.2272325
0
LINE
8
0
10
16.8159517
20
50.2272325
11
16.9967359
21
50.2168798
0
LINE
8
0
10
16.9967359
20
50.2168798
11
17.2751091
21
50.2
0
LINE
8
0
10
17.2751091
20
50.2
11
17.399626
21
50.2
0
LINE
8
0
10
17.399626
20
50.2
11
17.8
21
50.2
0
LINE
8
0
10
17.8
20
50.2
11
17.8
21
46.4755585
0
LINE
8
0
10
17.8
20
46.4755585
11
17.8
21
45.2
0
LINE
8
0
10
17.8
20
45.2
11
17.8
21
44.4726833
0
LINE
8
0
10
17.8
20
44.4726833
11
17.8
21
44.1380051
0
LINE
8
0
10
17.8
20
44.1380051
11
17.8
21
43.3932619
0
LINE
8
0
10
17.8
20
43.3932619
11
17.8
21
42.5751883
0
LINE
8
0
10
17.8
20
42.5751883
11
17.8
21
42.3491951
0
LINE
8
0
10
17.8
20
42.3491951
11
17.8
21
42.1741412
0
LINE
8
0
10
17.8
20
42.1741412
11
17.8
21
42.0579003
0
LINE
8
0
10
17.8
20
42.0579003
11
17.8
21
41.9917994
0
LINE
8
0
10
17.8
20
41.9917994
11
17.8
21
40.1347795
0
LINE
8
0
10
17.8
20
40.1347795
11
17.2775752
21
40.1347798
0
LINE
8
0
10
17.2775752
20
40.1347798
11
16.2523675
21
40.1347829
0
LINE
8
0
10
16.2523675
20
40.1347829
11
14.0932232
21
40.1347829
0
LINE
8
0
10
14.0932232
20
40.1347829
11
2.4
21
40.1347829
0
LINE
8
0
10
2.4
20
40.1347829
11
2.4
21
42.3810481
0
LINE
8
0
10
2.4
20
42.3810481
11
2.4
21
42.5419175
0
LINE
8
0
10
2.4
20
42.5419175
11
2.4
21
42.6050458
0
LINE
8
0
10
2.4
20
42.6050458
11
2.4
21
42.7681924
0
LINE
8
0
10
2.4
20
42.7681924
11
2.4
21
42.9300264
0
LINE
8
0
10
2.4
20
42.9300264
11
2.4
21
43.0033386
0
LINE
8
0
10
2.4
20
43.0033386
11
2.4
21
43.8997024
0
LINE
8
0
10
2.4
20
43.8997024
11
2.4
21
46.4427329
0
LINE
8
0
10
2.4
20
46.4427329
11
2.4
21
46.8914632
0
LINE
8
0
10
2.4
20
46.8914632
11
2.4
21
47.7985572
0
LINE
8
0
10
2.4
20
47.7985572
11
2.4
21
48.9006648
0
LINE
8
0
10
2.4
20
48.9006648
11
2.4286597
21
49.1400606
0
LINE
8
0
10
2.4286597
20
49.1400606
11
2.468148
21
49.5164602
0
LINE
8
0
10
2.468148
20
49.5164602
11
2.59042652
21
49.8754707
0
LINE
8
0
10
2.59042652
20
49.8754707
11
2.667949
21
50.1391428
0
LINE
8
0
10
2.667949
20
50.1391428
11
2.97957271
21
50.7112852
0
LINE
8
0
10
2.97957271
20
50.7112852
11
2.985786
21
50.725349
0
LINE
8
0
10
2.985786
20
50.725349
11
3.06303448
21
50.8283007
0
LINE
8
0
10
3.06303448
20
50.8283007
11
3.4
21
51.2773879
0
LINE
8
0
10
3.4
20
51.2773879
11
3.47542835
21
51.3316517
0
LINE
8
0
10
3.47542835
20
51.3316517
11
3.8696246
21
51.6582106
0
LINE
8
0
10
3.8696246
20
51.6582106
11
3.882362
21
51.6687625
0
LINE
8
0
10
3.882362
20
51.6687625
11
4.38040021
21
51.7998975
0
LINE
8
0
10
4.38040021
20
51.7998975
11
4.4
21
51.8050579
0
LINE
8
0
10
4.4
20
51.8050579
11
12.835391
21
51.8050579
0
LINE
8
0
10
12.835391
20
51.8050579
11
13
21
51.8050579
0
LINE
8
0
10
13
20
51.8050579
11
13.384854
21
51.7544539
0
LINE
8
0
10
13.384854
20
51.7544539
11
13.3954016
21
51.7520812
0
LINE
8
0
10
13.3954016
20
51.7520812
11
13.4048388
21
51.7481515
0
LINE
8
0
10
13.4048388
20
51.7481515
11
13.7809842
21
51.5981822
0
LINE
8
0
10
13.7809842
20
51.5981822
11
13.9081482
21
51.5111955
0
LINE
8
0
10
13.9081482
20
51.5111955
11
14.0447325
21
51.4350833
0
LINE
8
0
10
14.0447325
20
51.4350833
11
14.2112591
21
51.3314047
0
LINE
8
0
10
14.2112591
20
51.3314047
11
14.2544024
21
51.2971376
0
LINE
8
0
10
14.2544024
20
51.2971376
11
14.2811039
21
51.2729984
0
LINE
8
0
10
14.2811039
20
51.2729984
11
14.3921567
21
51.2006914
0
LINE
8
0
10
14.3921567
20
51.2006914
11
14.4559064
21
51.155252
0
LINE
8
0
10
14.4559064
20
51.155252
11
14.5291492
21
51.11371
0
LINE
8
0
10
14.5291492
20
51.11371
11
14.6500757
21
51.0392289
0
LINE
8
0
10
14.6500757
20
51.0392289
11
14.676222
21
51.026294
0
LINE
8
0
10
14.676222
20
51.026294
11
14.7515024
21
50.9861243
0
LINE
8
0
10
14.7515024
20
50.9861243
11
14.822343
21
50.9407088
0
LINE
8
0
10
14.822343
20
50.9407088
11
14.8435496
21
50.9259015
0
LINE
8
0
10
14.8435496
20
50.9259015
11
14.9666972
21
50.8573928
0
LINE
8
0
10
14.9666972
20
50.8573928
11
15.0349974
21
50.8163093
0
LINE
8
0
10
15.0349974
20
50.8163093
11
15.1207737
21
50.7750066
0
LINE
8
0
10
15.1207737
20
50.7750066
11
15.2434364
21
50.7115412
0
LINE
8
0
10
15.2434364
20
50.7115412
11
15.2853474
21
50.6941736
0
LINE
8
0
10
15.2853474
20
50.6941736
11
15.434098
21
50.628306
0
LINE
8
0
10
15.434098
20
50.628306
11
15.4576515
21
50.6164031
0
LINE
8
0
10
15.4576515
20
50.6164031
11
15.4639584
21
50.6129818
0
LINE
8
0
10
15.4639584
20
50.6129818
11
15.7267999
21
50.5102846
0
LINE
8
0
10
15.7267999
20
50.5102846
11
15.892888
21
50.4402416
0
LINE
8
0
10
15.892888
20
50.4402416
11
16.0275757
21
50.4046781
0
LINE
8
0
10
16.0275757
20
50.4046781
11
16.3376987
21
50.3171249
0
LINE
8
0
10
16.3376987
20
50.3171249
11
16.3558601
21
50.3115235
0
LINE
8
0
10
16.3558601
20
50.3115235
11
16.3558601
21
50.3115235
0
ENDSEC
0
EOF
