0
SECTION
2
ENTITIES
0
LINE
8
0
10
16
20
23.4987133
11
16
21
23.6679643
0
LINE
8
0
10
16
20
23.6679643
11
16
21
26.170044
0
LINE
8
0
10
16
20
26.170044
11
16
21
32.3138225
0
LINE
8
0
10
16
20
32.3138225
11
16
21
33.5425775
0
LINE
8
0
10
16
20
33.5425775
11
16
21
35.5283985
0
LINE
8
0
10
16
20
35.5283985
11
16
21
39.2420184
0
LINE
8
0
10
16
20
39.2420184
11
13.8478297
21
39.2420184
0
LINE
8
0
10
13.8478297
20
39.2420184
11
2.4
21
39.2420184
0
LINE
8
0
10
2.4
20
39.2420184
11
2.4
21
35.5283985
0
LINE
8
0
10
2.4
20
35.5283985
11
2.4
21
33.5425775
0
LINE
8
0
10
2.4
20
33.5425775
11
2.4
21
32.8053245
0
LINE
8
0
10
2.4
20
32.8053245
11
2.4
21
32.3138225
0
LINE
8
0
10
2.4
20
32.3138225
11
2.4
21
28.2255618
0
LINE
8
0
10
2.4
20
28.2255618
11
2.4
21
23.6679643
0
LINE
8
0
10
2.4
20
23.6679643
11
2.4
21
23.4528711
0
LINE
8
0
10
2.4
20
23.4528711
11
2.4
21
21.8740026
0
LINE
8
0
10
2.4
20
21.8740026
11
2.4
21
14.9527604
0
LINE
8
0
10
2.4
20
14.9527604
11
2.4
21
13.7649915
0
LINE
8
0
10
2.4
20
13.7649915
11
2.4
21
13.3511265
0
LINE
8
0
10
2.4
20
13.3511265
11
2.4
21
12.8622462
0
LINE
8
0
10
2.4
20
12.8622462
11
2.4
21
12.3546235
0
LINE
8
0
10
2.4
20
12.3546235
11
2.4
21
11.8928133
0
LINE
8
0
10
2.4
20
11.8928133
11
2.4
21
11.3707057
0
LINE
8
0
10
2.4
20
11.3707057
11
2.4
21
10.7964019
0
LINE
8
0
10
2.4
20
10.7964019
11
2.4
21
10.2975008
0
LINE
8
0
10
2.4
20
10.2975008
11
2.4
21
9.92028329
0
LINE
8
0
10
2.4
20
9.92028329
11
2.4
21
9.67052753
0
LINE
8
0
10
2.4
20
9.67052753
11
2.4
21
4.78588475
0
LINE
8
0
10
2.4
20
4.78588475
11
2.4
21
4.69156201
0
LINE
8
0
10
2.4
20
4.69156201
11
2.4
21
4.61323216
0
LINE
8
0
10
2.4
20
4.61323216
11
2.4
21
3.55787616
0
LINE
8
0
10
2.4
20
3.55787616
11
2.4
21
2.25418195
0
LINE
8
0
10
2.4
20
2.25418195
11
2.4
21
-6.71391694
0
LINE
8
0
10
2.4
20
-6.71391694
11
2.4
21
-12.3628825
0
LINE
8
0
10
2.4
20
-12.3628825
11
2.4
21
-12.4346055
0
LINE
8
0
10
2.4
20
-12.4346055
11
2.4
21
-12.8962516
0
LINE
8
0
10
2.4
20
-12.8962516
11
2.4
21
-13.9960197
0
LINE
8
0
10
2.4
20
-13.9960197
11
2.4
21
-14
0
LINE
8
0
10
2.4
20
-14
11
2.40934055
21
-14.0709491
0
LINE
8
0
10
2.40934055
20
-14.0709491
11
2.4186811
21
-14.1418983
0
LINE
8
0
10
2.4186811
20
-14.1418983
11
2.42892566
21
-14.3125587
0
LINE
8
0
10
2.42892566
20
-14.3125587
11
2.45929994
21
-14.4815698
0
LINE
8
0
10
2.45929994
20
-14.4815698
11
2.57620244
21
-14.8016373
0
LINE
8
0
10
2.57620244
20
-14.8016373
11
2.62595732
21
-14.9217556
0
LINE
8
0
10
2.62595732
20
-14.9217556
11
2.79839289
21
-15.1911008
0
LINE
8
0
10
2.79839289
20
-15.1911008
11
2.87107769
21
-15.2858247
0
LINE
8
0
10
2.87107769
20
-15.2858247
11
3.07657886
21
-15.4979168
0
LINE
8
0
10
3.07657886
20
-15.4979168
11
3.16185151
21
-15.563287
0
LINE
8
0
10
3.16185151
20
-15.563287
11
3.40229833
21
-15.7331711
0
LINE
8
0
10
3.40229833
20
-15.7331711
11
3.68285162
21
-15.8625429
0
LINE
8
0
10
3.68285162
20
-15.8625429
11
3.75249445
21
-15.8913508
0
LINE
8
0
10
3.75249445
20
-15.8913508
11
4.04817205
21
-15.9675543
0
LINE
8
0
10
4.04817205
20
-15.9675543
11
4.07903745
21
-15.9728288
0
LINE
8
0
10
4.07903745
20
-15.9728288
11
4.4
21
-16
0
LINE
8
0
10
4.4
20
-16
11
5.17192705
21
-16
0
LINE
8
0
10
5.17192705
20
-16
11
29.3571686
21
-16
0
LINE
8
0
10
29.3571686
20
-16
11
31.1429552
21
-16
0
LINE
8
0
10
31.1429552
20
-16
11
32.5347271
21
-16
0
LINE
8
0
10
32.5347271
20
-16
11
32.7
21
-16
0
LINE
8
0
10
32.7
20
-16
11
33.1588281
21
-15.9548068
0
LINE
8
0
10
33.1588281
20
-15.9548068
11
33.2170314
21
-15.9451276
0
LINE
8
0
10
33.2170314
20
-15.9451276
11
33.6130107
21
-15.8245331
0
LINE
8
0
10
33.6130107
20
-15.8245331
11
33.6980991
21
-15.7892884
0
LINE
8
0
10
33.6980991
20
-15.7892884
11
34.0753838
21
-15.5870933
0
LINE
8
0
10
34.0753838
20
-15.5870933
11
34.1258682
21
-15.5483562
0
LINE
8
0
10
34.1258682
20
-15.5483562
11
34.46777
21
-15.26777
0
LINE
8
0
10
34.46777
20
-15.26777
11
34.7731002
21
-14.8957169
0
LINE
8
0
10
34.7731002
20
-14.8957169
11
34.7802177
21
-14.8864411
0
LINE
8
0
10
34.7802177
20
-14.8864411
11
34.9187888
21
-14.6267902
0
LINE
8
0
10
34.9187888
20
-14.6267902
11
41.7023128
21
-14.6410528
0
LINE
8
0
10
41.7023128
20
-14.6410528
11
45.65767
21
-14.6202871
0
LINE
8
0
10
45.65767
20
-14.6202871
11
50.6131374
21
-14.6435894
0
LINE
8
0
10
50.6131374
20
-14.6435894
11
57.3151152
21
-14.637398
0
LINE
8
0
10
57.3151152
20
-14.637398
11
57.3354023
21
-14.8218084
0
LINE
8
0
10
57.3354023
20
-14.8218084
11
57.3358213
21
-14.8242372
0
LINE
8
0
10
57.3358213
20
-14.8242372
11
57.4293973
21
-15.1067565
0
LINE
8
0
10
57.4293973
20
-15.1067565
11
57.4377523
21
-15.1269272
0
LINE
8
0
10
57.4377523
20
-15.1269272
11
57.5712705
21
-15.3590713
0
LINE
8
0
10
57.5712705
20
-15.3590713
11
57.5939689
21
-15.3886522
0
LINE
8
0
10
57.5939689
20
-15.3886522
11
57.746564
21
-15.5677019
0
LINE
8
0
10
57.746564
20
-15.5677019
11
57.7878121
21
-15.599353
0
LINE
8
0
10
57.7878121
20
-15.599353
11
58.1355817
21
-15.8439033
0
LINE
8
0
10
58.1355817
20
-15.8439033
11
58.2100917
21
-15.8747663
0
LINE
8
0
10
58.2100917
20
-15.8747663
11
58.5601554
21
-15.9778294
0
LINE
8
0
10
58.5601554
20
-15.9778294
11
58.6072872
21
-15.9828558
0
LINE
8
0
10
58.6072872
20
-15.9828558
11
58.642247
21
-15.9889291
0
LINE
8
0
10
58.642247
20
-15.9889291
11
58.6727966
21
-15.9945181
0
LINE
8
0
10
58.6727966
20
-15.9945181
11
58.67679
21
-15.99493
0
LINE
8
0
10
58.67679
20
-15.99493
11
58.6808146
21
-15.9951784
0
LINE
8
0
10
58.6808146
20
-15.9951784
11
58.73836
21
-15.99873
0
LINE
8
0
10
58.73836
20
-15.99873
11
58.742227
21
-15.9988097
0
LINE
8
0
10
58.742227
20
-15.9988097
11
58.8
21
-16
0
LINE
8
0
10
58.8
20
-16
11
67.9955202
21
-16
0
LINE
8
0
10
67.9955202
20
-16
11
69.4618143
21
-16
0
LINE
8
0
10
69.4618143
20
-16
11
69.4746292
21
-16
0
LINE
8
0
10
69.4746292
20
-16
11
69.4873398
21
-16
0
LINE
8
0
10
69.4873398
20
-16
11
69.8643909
21
-15.9503578
0
LINE
8
0
10
69.8643909
20
-15.9503578
11
70.1280442
21
-15.91481
0
LINE
8
0
10
70.1280442
20
-15.91481
11
70.5763234
21
-15.7291267
0
LINE
8
0
10
70.5763234
20
-15.7291267
11
70.730995
21
-15.66506
0
LINE
8
0
10
70.730995
20
-15.66506
11
71.1250972
21
-15.3626615
0
LINE
8
0
10
71.1250972
20
-15.3626615
11
71.2487624
21
-15.26777
0
LINE
8
0
10
71.2487624
20
-15.26777
11
71.5564623
21
-14.8667587
0
LINE
8
0
10
71.5564623
20
-14.8667587
11
71.6460553
21
-14.75
0
LINE
8
0
10
71.6460553
20
-14.75
11
71.841801
21
-14.2774278
0
LINE
8
0
10
71.841801
20
-14.2774278
11
71.8958056
21
-14.14705
0
LINE
8
0
10
71.8958056
20
-14.14705
11
71.9288117
21
-13.9445508
0
LINE
8
0
10
71.9288117
20
-13.9445508
11
71.9873409
21
-13.5
0
LINE
8
0
10
71.9873409
20
-13.5
11
71.9908864
21
9.29598971
0
LINE
8
0
10
71.9908864
20
9.29598971
11
71.9862478
21
14.0465384
0
LINE
8
0
10
71.9862478
20
14.0465384
11
71.9923637
21
16.8238746
0
LINE
8
0
10
71.9923637
20
16.8238746
11
71.9931322
21
16.8953411
0
LINE
8
0
10
71.9931322
20
16.8953411
11
71.9898123
21
20.8843535
0
LINE
8
0
10
71.9898123
20
20.8843535
11
66.9925974
21
20.8843492
0
LINE
8
0
10
66.9925974
20
20.8843492
11
63.4554352
21
20.8843503
0
LINE
8
0
10
63.4554352
20
20.8843503
11
63.2
21
20.8843503
0
LINE
8
0
10
63.2
20
20.8843503
11
63.1700421
21
20.8321192
0
LINE
8
0
10
63.1700421
20
20.8321192
11
62.9033629
21
20.3671769
0
LINE
8
0
10
62.9033629
20
20.3671769
11
48.7572247
21
20.3671769
0
LINE
8
0
10
48.7572247
20
20.3671769
11
29.2966371
21
20.3671769
0
LINE
8
0
10
29.2966371
20
20.3671769
11
29
21
20.8843497
0
LINE
8
0
10
29
20
20.8843497
11
28.3454051
21
20.8843497
0
LINE
8
0
10
28.3454051
20
20.8843497
11
28.2402023
21
20.8843497
0
LINE
8
0
10
28.2402023
20
20.8843497
11
16
21
20.8843527
0
LINE
8
0
10
16
20
20.8843527
11
16
21
20.9714459
0
LINE
8
0
10
16
20
20.9714459
11
16
21
21.2826458
0
LINE
8
0
10
16
20
21.2826458
11
16
21
21.994103
0
LINE
8
0
10
16
20
21.994103
11
16
21
23.4987133
0
LINE
8
0
10
16
20
23.4987133
11
16
21
23.4987133
0
LINE
8
0
10
17.5231991
20
41.1641652
11
17.8
21
41.164165
0
LINE
8
0
10
17.8
20
41.164165
11
17.8
21
42.148086
0
LINE
8
0
10
17.8
20
42.148086
11
17.8
21
42.1831088
0
LINE
8
0
10
17.8
20
42.1831088
11
17.8
21
42.2446978
0
LINE
8
0
10
17.8
20
42.2446978
11
17.8
21
42.3374481
0
LINE
8
0
10
17.8
20
42.3374481
11
17.8
21
42.457188
0
LINE
8
0
10
17.8
20
42.457188
11
17.8
21
43.3520981
0
LINE
8
0
10
17.8
20
43.3520981
11
17.8
21
44.1667904
0
LINE
8
0
10
17.8
20
44.1667904
11
17.8
21
44.4016518
0
LINE
8
0
10
17.8
20
44.4016518
11
17.8
21
45.2
0
LINE
8
0
10
17.8
20
45.2
11
17.8
21
46.1118204
0
LINE
8
0
10
17.8
20
46.1118204
11
17.8
21
50.2
0
LINE
8
0
10
17.8
20
50.2
11
17.4364573
21
50.2
0
LINE
8
0
10
17.4364573
20
50.2
11
17.43125
21
50.2
0
LINE
8
0
10
17.43125
20
50.2
11
17.2248045
21
50.2135288
0
LINE
8
0
10
17.2248045
20
50.2135288
11
17.0387303
21
50.2248118
0
LINE
8
0
10
17.0387303
20
50.2248118
11
16.9823139
21
50.2280425
0
LINE
8
0
10
16.9823139
20
50.2280425
11
16.697625
21
50.2814316
0
LINE
8
0
10
16.697625
20
50.2814316
11
16.5229098
21
50.3123501
0
LINE
8
0
10
16.5229098
20
50.3123501
11
16.3785679
21
50.3598692
0
LINE
8
0
10
16.3785679
20
50.3598692
11
16.0895852
21
50.4489982
0
LINE
8
0
10
16.0895852
20
50.4489982
11
16.0700079
21
50.4582027
0
LINE
8
0
10
16.0700079
20
50.4582027
11
15.7794729
21
50.5807277
0
LINE
8
0
10
15.7794729
20
50.5807277
11
15.654471
21
50.6295683
0
LINE
8
0
10
15.654471
20
50.6295683
11
15.5645986
21
50.6783218
0
LINE
8
0
10
15.5645986
20
50.6783218
11
15.456689
21
50.7328544
0
LINE
8
0
10
15.456689
20
50.7328544
11
15.4100767
21
50.7625337
0
LINE
8
0
10
15.4100767
20
50.7625337
11
15.2738005
21
50.8428632
0
LINE
8
0
10
15.2738005
20
50.8428632
11
15.2650064
21
50.8494102
0
LINE
8
0
10
15.2650064
20
50.8494102
11
15.2289643
21
50.8740649
0
LINE
8
0
10
15.2289643
20
50.8740649
11
15.1162298
21
50.9418762
0
LINE
8
0
10
15.1162298
20
50.9418762
11
15.0865275
21
50.9584001
0
LINE
8
0
10
15.0865275
20
50.9584001
11
14.9738138
21
51.0371017
0
LINE
8
0
10
14.9738138
20
51.0371017
11
14.9097866
21
51.0781491
0
LINE
8
0
10
14.9097866
20
51.0781491
11
14.8417449
21
51.1333583
0
LINE
8
0
10
14.8417449
20
51.1333583
11
14.7502199
21
51.2009505
0
LINE
8
0
10
14.7502199
20
51.2009505
11
14.7191705
21
51.2303441
0
LINE
8
0
10
14.7191705
20
51.2303441
11
14.6071249
21
51.3259105
0
LINE
8
0
10
14.6071249
20
51.3259105
11
14.6046676
21
51.3286981
0
LINE
8
0
10
14.6046676
20
51.3286981
11
14.6046138
21
51.3287901
0
LINE
8
0
10
14.6046138
20
51.3287901
11
14.5972815
21
51.3367842
0
LINE
8
0
10
14.5972815
20
51.3367842
11
14.4152226
21
51.501373
0
LINE
8
0
10
14.4152226
20
51.501373
11
14.316519
21
51.5797694
0
LINE
8
0
10
14.316519
20
51.5797694
11
14.1631669
21
51.7320368
0
LINE
8
0
10
14.1631669
20
51.7320368
11
14.1456056
21
51.7465279
0
LINE
8
0
10
14.1456056
20
51.7465279
11
13.7808864
21
51.9960145
0
LINE
8
0
10
13.7808864
20
51.9960145
11
13.4235632
21
52.1384795
0
LINE
8
0
10
13.4235632
20
52.1384795
11
13.4013109
21
52.1477454
0
LINE
8
0
10
13.4013109
20
52.1477454
11
13.3764403
21
52.1533401
0
LINE
8
0
10
13.3764403
20
52.1533401
11
13
21
52.2028378
0
LINE
8
0
10
13
20
52.2028378
11
12.6509755
21
52.2028378
0
LINE
8
0
10
12.6509755
20
52.2028378
11
4.4
21
52.2028378
0
LINE
8
0
10
4.4
20
52.2028378
11
4.3584421
21
52.1918961
0
LINE
8
0
10
4.3584421
20
52.1918961
11
3.882362
21
52.0665427
0
LINE
8
0
10
3.882362
20
52.0665427
11
3.84958489
21
52.0393896
0
LINE
8
0
10
3.84958489
20
52.0393896
11
3.4
21
51.6669458
0
LINE
8
0
10
3.4
20
51.6669458
11
3.38509457
21
51.6440708
0
LINE
8
0
10
3.38509457
20
51.6440708
11
3.09511264
21
51.199055
0
LINE
8
0
10
3.09511264
20
51.199055
11
2.985786
21
51.0533515
0
LINE
8
0
10
2.985786
20
51.0533515
11
2.74952565
21
50.5185762
0
LINE
8
0
10
2.74952565
20
50.5185762
11
2.667949
21
50.3688012
0
LINE
8
0
10
2.667949
20
50.3688012
11
2.53385012
21
49.9126995
0
LINE
8
0
10
2.53385012
20
49.9126995
11
2.468148
21
49.689232
0
LINE
8
0
10
2.468148
20
49.689232
11
2.46468115
21
49.6513435
0
LINE
8
0
10
2.46468115
20
49.6513435
11
2.43624017
21
49.373126
0
LINE
8
0
10
2.43624017
20
49.373126
11
2.40472339
21
49.0727103
0
LINE
8
0
10
2.40472339
20
49.0727103
11
2.4
21
49.0332557
0
LINE
8
0
10
2.4
20
49.0332557
11
2.4
21
47.4622057
0
LINE
8
0
10
2.4
20
47.4622057
11
2.4
21
46.6662197
0
LINE
8
0
10
2.4
20
46.6662197
11
2.4
21
46.2724535
0
LINE
8
0
10
2.4
20
46.2724535
11
2.4
21
43.4830031
0
LINE
8
0
10
2.4
20
43.4830031
11
2.4
21
42.9351797
0
LINE
8
0
10
2.4
20
42.9351797
11
2.4
21
42.8903741
0
LINE
8
0
10
2.4
20
42.8903741
11
2.4
21
42.723583
0
LINE
8
0
10
2.4
20
42.723583
11
2.4
21
42.555439
0
LINE
8
0
10
2.4
20
42.555439
11
2.4
21
42.5199418
0
LINE
8
0
10
2.4
20
42.5199418
11
2.4
21
42.354325
0
LINE
8
0
10
2.4
20
42.354325
11
2.4
21
41.1641668
0
LINE
8
0
10
2.4
20
41.1641668
11
8.59552199
21
41.1641668
0
LINE
8
0
10
8.59552199
20
41.1641668
11
16.9800044
21
41.1641668
0
LINE
8
0
10
16.9800044
20
41.1641668
11
17.5231991
21
41.1641652
0
LINE
8
0
10
17.5231991
20
41.1641652
11
17.5231991
21
41.1641652
0
LINE
8
0
10
48.84998
20
-4.502994
11
48.8286974
21
-4.33131033
0
LINE
8
0
10
48.8286974
20
-4.33131033
11
48.826
21
-4.309551
0
LINE
8
0
10
48.826
20
-4.309551
11
48.7611936
21
-4.14914943
0
LINE
8
0
10
48.7611936
20
-4.14914943
11
48.75298
21
-4.12882
0
LINE
8
0
10
48.75298
20
-4.12882
11
48.6490253
21
-3.99053709
0
LINE
8
0
10
48.6490253
20
-3.99053709
11
48.63585
21
-3.973011
0
LINE
8
0
10
48.63585
20
-3.973011
11
48.6057126
21
-3.94223542
0
LINE
8
0
10
48.6057126
20
-3.94223542
11
48.1
21
-3.425814
0
LINE
8
0
10
48.1
20
-3.425814
11
48.0698626
21
-3.45658958
0
LINE
8
0
10
48.0698626
20
-3.45658958
11
47.56415
21
-3.973011
0
LINE
8
0
10
47.56415
20
-3.973011
11
47.5509747
21
-3.99053709
0
LINE
8
0
10
47.5509747
20
-3.99053709
11
47.44702
21
-4.12882
0
LINE
8
0
10
47.44702
20
-4.12882
11
47.3822136
21
-4.28922157
0
LINE
8
0
10
47.3822136
20
-4.28922157
11
47.374
21
-4.309551
0
LINE
8
0
10
47.374
20
-4.309551
11
47.3527174
21
-4.48123467
0
LINE
8
0
10
47.3527174
20
-4.48123467
11
47.35002
21
-4.502994
0
LINE
8
0
10
47.35002
20
-4.502994
11
47.3736989
21
-4.67436437
0
LINE
8
0
10
47.3736989
20
-4.67436437
11
47.3767
21
-4.696084
0
LINE
8
0
10
47.3767
20
-4.696084
11
47.443734
21
-4.85556433
0
LINE
8
0
10
47.443734
20
-4.85556433
11
47.45223
21
-4.875777
0
LINE
8
0
10
47.45223
20
-4.875777
11
47.5581017
21
-5.01259551
0
LINE
8
0
10
47.5581017
20
-5.01259551
11
47.57152
21
-5.029936
0
LINE
8
0
10
47.57152
20
-5.029936
11
47.709076
21
-5.13485099
0
LINE
8
0
10
47.709076
20
-5.13485099
11
47.72651
21
-5.148148
0
LINE
8
0
10
47.72651
20
-5.148148
11
47.886458
21
-5.21407265
0
LINE
8
0
10
47.886458
20
-5.21407265
11
47.90673
21
-5.222428
0
LINE
8
0
10
47.90673
20
-5.222428
11
48.0782601
21
-5.24490877
0
LINE
8
0
10
48.0782601
20
-5.24490877
11
48.1
21
-5.247758
0
LINE
8
0
10
48.1
20
-5.247758
11
48.2715301
21
-5.22527723
0
LINE
8
0
10
48.2715301
20
-5.22527723
11
48.29327
21
-5.222428
0
LINE
8
0
10
48.29327
20
-5.222428
11
48.453218
21
-5.15650335
0
LINE
8
0
10
48.453218
20
-5.15650335
11
48.47349
21
-5.148148
0
LINE
8
0
10
48.47349
20
-5.148148
11
48.611046
21
-5.04323301
0
LINE
8
0
10
48.611046
20
-5.04323301
11
48.62848
21
-5.029936
0
LINE
8
0
10
48.62848
20
-5.029936
11
48.7343517
21
-4.89311749
0
LINE
8
0
10
48.7343517
20
-4.89311749
11
48.74777
21
-4.875777
0
LINE
8
0
10
48.74777
20
-4.875777
11
48.814804
21
-4.71629667
0
LINE
8
0
10
48.814804
20
-4.71629667
11
48.8233
21
-4.696084
0
LINE
8
0
10
48.8233
20
-4.696084
11
48.8469789
21
-4.52471363
0
LINE
8
0
10
48.8469789
20
-4.52471363
11
48.84998
21
-4.502994
0
LINE
8
0
10
48.84998
20
-4.502994
11
48.84998
21
-4.502994
0
ENDSEC
0
EOF
