0
SECTION
2
ENTITIES
0
LINE
8
0
10
47.4367956
20
-4.83905713
11
47.45223
21
-4.875777
0
LINE
8
0
10
47.45223
20
-4.875777
11
47.5471433
21
-4.99843394
0
LINE
8
0
10
47.5471433
20
-4.99843394
11
47.57152
21
-5.029936
0
LINE
8
0
10
47.57152
20
-5.029936
11
47.6948381
21
-5.12399163
0
LINE
8
0
10
47.6948381
20
-5.12399163
11
47.72651
21
-5.148148
0
LINE
8
0
10
47.72651
20
-5.148148
11
47.8699024
21
-5.20724904
0
LINE
8
0
10
47.8699024
20
-5.20724904
11
47.90673
21
-5.222428
0
LINE
8
0
10
47.90673
20
-5.222428
11
48.0605057
21
-5.24258187
0
LINE
8
0
10
48.0605057
20
-5.24258187
11
48.1
21
-5.247758
0
LINE
8
0
10
48.1
20
-5.247758
11
48.2537757
21
-5.22760413
0
LINE
8
0
10
48.2537757
20
-5.22760413
11
48.29327
21
-5.222428
0
LINE
8
0
10
48.29327
20
-5.222428
11
48.4366624
21
-5.16332696
0
LINE
8
0
10
48.4366624
20
-5.16332696
11
48.47349
21
-5.148148
0
LINE
8
0
10
48.47349
20
-5.148148
11
48.5968081
21
-5.05409237
0
LINE
8
0
10
48.5968081
20
-5.05409237
11
48.62848
21
-5.029936
0
LINE
8
0
10
48.62848
20
-5.029936
11
48.7233933
21
-4.90727906
0
LINE
8
0
10
48.7233933
20
-4.90727906
11
48.74777
21
-4.875777
0
LINE
8
0
10
48.74777
20
-4.875777
11
48.8078656
21
-4.73280387
0
LINE
8
0
10
48.8078656
20
-4.73280387
11
48.8233
21
-4.696084
0
LINE
8
0
10
48.8233
20
-4.696084
11
48.844528
21
-4.54245152
0
LINE
8
0
10
48.844528
20
-4.54245152
11
48.84998
21
-4.502994
0
LINE
8
0
10
48.84998
20
-4.502994
11
48.8309003
21
-4.34908066
0
LINE
8
0
10
48.8309003
20
-4.34908066
11
48.826
21
-4.309551
0
LINE
8
0
10
48.826
20
-4.309551
11
48.7679015
21
-4.16575199
0
LINE
8
0
10
48.7679015
20
-4.16575199
11
48.75298
21
-4.12882
0
LINE
8
0
10
48.75298
20
-4.12882
11
48.6597853
21
-4.00485023
0
LINE
8
0
10
48.6597853
20
-4.00485023
11
48.63585
21
-3.973011
0
LINE
8
0
10
48.63585
20
-3.973011
11
48.5811001
21
-3.91710174
0
LINE
8
0
10
48.5811001
20
-3.91710174
11
48.1
21
-3.425814
0
LINE
8
0
10
48.1
20
-3.425814
11
48.0452501
21
-3.48172326
0
LINE
8
0
10
48.0452501
20
-3.48172326
11
47.56415
21
-3.973011
0
LINE
8
0
10
47.56415
20
-3.973011
11
47.5402147
21
-4.00485023
0
LINE
8
0
10
47.5402147
20
-4.00485023
11
47.44702
21
-4.12882
0
LINE
8
0
10
47.44702
20
-4.12882
11
47.3889215
21
-4.27261901
0
LINE
8
0
10
47.3889215
20
-4.27261901
11
47.374
21
-4.309551
0
LINE
8
0
10
47.374
20
-4.309551
11
47.3549203
21
-4.46346434
0
LINE
8
0
10
47.3549203
20
-4.46346434
11
47.35002
21
-4.502994
0
LINE
8
0
10
47.35002
20
-4.502994
11
47.371248
21
-4.65662648
0
LINE
8
0
10
47.371248
20
-4.65662648
11
47.3767
21
-4.696084
0
LINE
8
0
10
47.3767
20
-4.696084
11
47.4367956
21
-4.83905713
0
LINE
8
0
10
47.4367956
20
-4.83905713
11
47.4367956
21
-4.83905713
0
LINE
8
0
10
16
20
4.49549737
11
16
21
4.349365
0
LINE
8
0
10
16
20
4.349365
11
16
21
4.34322203
0
LINE
8
0
10
16
20
4.34322203
11
16
21
4.2032283
0
LINE
8
0
10
16
20
4.2032283
11
10.3112242
21
4.2032283
0
LINE
8
0
10
10.3112242
20
4.2032283
11
2.4
21
4.2032283
0
LINE
8
0
10
2.4
20
4.2032283
11
2.4
21
3.40967092
0
LINE
8
0
10
2.4
20
3.40967092
11
2.4
21
-6.21619232
0
LINE
8
0
10
2.4
20
-6.21619232
11
2.4
21
-12.2794807
0
LINE
8
0
10
2.4
20
-12.2794807
11
2.4
21
-12.3564642
0
LINE
8
0
10
2.4
20
-12.3564642
11
2.4
21
-12.81397
0
LINE
8
0
10
2.4
20
-12.81397
11
2.4
21
-13.995723
0
LINE
8
0
10
2.4
20
-13.995723
11
2.4
21
-14
0
LINE
8
0
10
2.4
20
-14
11
2.41003686
21
-14.0762382
0
LINE
8
0
10
2.41003686
20
-14.0762382
11
2.42007373
21
-14.1524764
0
LINE
8
0
10
2.42007373
20
-14.1524764
11
2.43002987
21
-14.3183323
0
LINE
8
0
10
2.43002987
20
-14.3183323
11
2.45954904
21
-14.4825852
0
LINE
8
0
10
2.45954904
20
-14.4825852
11
2.57316041
21
-14.793642
0
LINE
8
0
10
2.57316041
20
-14.793642
11
2.62713951
21
-14.9239584
0
LINE
8
0
10
2.62713951
20
-14.9239584
11
2.79472054
21
-15.1857208
0
LINE
8
0
10
2.79472054
20
-15.1857208
11
2.87430704
21
-15.2894391
0
LINE
8
0
10
2.87430704
20
-15.2894391
11
3.07402279
21
-15.4955602
0
LINE
8
0
10
3.07402279
20
-15.4955602
11
3.16860168
21
-15.5680646
0
LINE
8
0
10
3.16860168
20
-15.5680646
11
3.40227926
21
-15.733166
0
LINE
8
0
10
3.40227926
20
-15.733166
11
3.67493421
21
-15.8588956
0
LINE
8
0
10
3.67493421
20
-15.8588956
11
3.75615057
21
-15.892491
0
LINE
8
0
10
3.75615057
20
-15.892491
11
4.04350405
21
-15.9665492
0
LINE
8
0
10
4.04350405
20
-15.9665492
11
4.08144364
21
-15.9730324
0
LINE
8
0
10
4.08144364
20
-15.9730324
11
4.4
21
-16
0
LINE
8
0
10
4.4
20
-16
11
5.45278316
21
-16
0
LINE
8
0
10
5.45278316
20
-16
11
28.868596
21
-16
0
LINE
8
0
10
28.868596
20
-16
11
31.304119
21
-16
0
LINE
8
0
10
31.304119
20
-16
11
32.5518339
21
-16
0
LINE
8
0
10
32.5518339
20
-16
11
32.7
21
-16
0
LINE
8
0
10
32.7
20
-16
11
33.1626625
21
-15.9544291
0
LINE
8
0
10
33.1626625
20
-15.9544291
11
33.213144
21
-15.946034
0
LINE
8
0
10
33.213144
20
-15.946034
11
33.6209626
21
-15.821834
0
LINE
8
0
10
33.6209626
20
-15.821834
11
33.6905676
21
-15.7930026
0
LINE
8
0
10
33.6905676
20
-15.7930026
11
34.0791327
21
-15.5847622
0
LINE
8
0
10
34.0791327
20
-15.5847622
11
34.1156458
21
-15.5567453
0
LINE
8
0
10
34.1156458
20
-15.5567453
11
34.46777
21
-15.26777
0
LINE
8
0
10
34.46777
20
-15.26777
11
34.6891304
21
-14.9980364
0
LINE
8
0
10
34.6891304
20
-14.9980364
11
37.9118348
21
-14.9980364
0
LINE
8
0
10
37.9118348
20
-14.9980364
11
45.65767
21
-14.979281
0
LINE
8
0
10
45.65767
20
-14.979281
11
53.6038524
21
-14.9994309
0
LINE
8
0
10
53.6038524
20
-14.9994309
11
57.3954448
21
-15.00348
0
LINE
8
0
10
57.3954448
20
-15.00348
11
57.4327734
21
-15.1161803
0
LINE
8
0
10
57.4327734
20
-15.1161803
11
57.4350265
21
-15.1216197
0
LINE
8
0
10
57.4350265
20
-15.1216197
11
57.5743026
21
-15.3637749
0
LINE
8
0
10
57.5743026
20
-15.3637749
11
57.5876999
21
-15.3812345
0
LINE
8
0
10
57.5876999
20
-15.3812345
11
57.7468755
21
-15.5680055
0
LINE
8
0
10
57.7468755
20
-15.5680055
11
57.7765055
21
-15.5907416
0
LINE
8
0
10
57.7765055
20
-15.5907416
11
58.1392723
21
-15.845838
0
LINE
8
0
10
58.1392723
20
-15.845838
11
58.2013944
21
-15.8715698
0
LINE
8
0
10
58.2013944
20
-15.8715698
11
58.5665544
21
-15.9790774
0
LINE
8
0
10
58.5665544
20
-15.9790774
11
58.6157188
21
-15.9843205
0
LINE
8
0
10
58.6157188
20
-15.9843205
11
58.6464375
21
-15.9896571
0
LINE
8
0
10
58.6464375
20
-15.9896571
11
58.673281
21
-15.994568
0
LINE
8
0
10
58.673281
20
-15.994568
11
58.67679
21
-15.99493
0
LINE
8
0
10
58.67679
20
-15.99493
11
58.6803264
21
-15.9951483
0
LINE
8
0
10
58.6803264
20
-15.9951483
11
58.73836
21
-15.99873
0
LINE
8
0
10
58.73836
20
-15.99873
11
58.7417352
21
-15.9987995
0
LINE
8
0
10
58.7417352
20
-15.9987995
11
58.8
21
-16
0
LINE
8
0
10
58.8
20
-16
11
66.7668478
21
-16
0
LINE
8
0
10
66.7668478
20
-16
11
69.430629
21
-16
0
LINE
8
0
10
69.430629
20
-16
11
69.4539095
21
-16
0
LINE
8
0
10
69.4539095
20
-16
11
69.4770006
21
-16
0
LINE
8
0
10
69.4770006
20
-16
11
69.63355
21
-15.9793888
0
LINE
8
0
10
69.63355
20
-15.9793888
11
70.1125226
21
-15.91481
0
LINE
8
0
10
70.1125226
20
-15.91481
11
70.4344859
21
-15.7814484
0
LINE
8
0
10
70.4344859
20
-15.7814484
11
70.715474
21
-15.66506
0
LINE
8
0
10
70.715474
20
-15.66506
11
71.0085797
21
-15.4401571
0
LINE
8
0
10
71.0085797
20
-15.4401571
11
71.2332393
21
-15.26777
0
LINE
8
0
10
71.2332393
20
-15.26777
11
71.4677732
21
-14.9621126
0
LINE
8
0
10
71.4677732
20
-14.9621126
11
71.6305346
21
-14.75
0
LINE
8
0
10
71.6305346
20
-14.75
11
71.7821764
21
-14.3839041
0
LINE
8
0
10
71.7821764
20
-14.3839041
11
71.8802851
21
-14.14705
0
LINE
8
0
10
71.8802851
20
-14.14705
11
71.9402466
21
-13.7791746
0
LINE
8
0
10
71.9402466
20
-13.7791746
11
71.9770025
21
-13.5
0
LINE
8
0
10
71.9770025
20
-13.5
11
71.979229
21
0.815710791
0
LINE
8
0
10
71.979229
20
0.815710791
11
71.9682685
21
12.0406272
0
LINE
8
0
10
71.9682685
20
12.0406272
11
71.9827195
21
18.6031041
0
LINE
8
0
10
71.9827195
20
18.6031041
11
71.9830892
21
18.6374826
0
LINE
8
0
10
71.9830892
20
18.6374826
11
71.9814922
21
20.5563712
0
LINE
8
0
10
71.9814922
20
20.5563712
11
63.8371383
21
20.5563642
0
LINE
8
0
10
63.8371383
20
20.5563642
11
63.3526549
21
20.5563635
0
LINE
8
0
10
63.3526549
20
20.5563635
11
63.2859101
21
20.5563634
0
LINE
8
0
10
63.2859101
20
20.5563634
11
63.145384
21
20.5563634
0
LINE
8
0
10
63.145384
20
20.5563634
11
62.9301325
21
20.5563634
0
LINE
8
0
10
62.9301325
20
20.5563634
11
29.0963812
21
20.5563634
0
LINE
8
0
10
29.0963812
20
20.5563634
11
29.0332962
21
20.5563634
0
LINE
8
0
10
29.0332962
20
20.5563634
11
28.9772029
21
20.5563634
0
LINE
8
0
10
28.9772029
20
20.5563634
11
16
21
20.5563665
0
LINE
8
0
10
16
20
20.5563665
11
16
21
20.649289
0
LINE
8
0
10
16
20
20.649289
11
16
21
20.9813183
0
LINE
8
0
10
16
20
20.9813183
11
16
21
21.7403948
0
LINE
8
0
10
16
20
21.7403948
11
16
21
23.2557879
0
LINE
8
0
10
16
20
23.2557879
11
15.5410296
21
23.2557879
0
LINE
8
0
10
15.5410296
20
23.2557879
11
2.4
21
23.2557879
0
LINE
8
0
10
2.4
20
23.2557879
11
2.4
21
15.3103667
0
LINE
8
0
10
2.4
20
15.3103667
11
2.4
21
13.7694929
0
LINE
8
0
10
2.4
20
13.7694929
11
2.4
21
13.3724645
0
LINE
8
0
10
2.4
20
13.3724645
11
2.4
21
12.9034725
0
LINE
8
0
10
2.4
20
12.9034725
11
2.4
21
12.4165006
0
LINE
8
0
10
2.4
20
12.4165006
11
2.4
21
11.9734775
0
LINE
8
0
10
2.4
20
11.9734775
11
2.4
21
11.1370603
0
LINE
8
0
10
2.4
20
11.1370603
11
2.4
21
10.6126162
0
LINE
8
0
10
2.4
20
10.6126162
11
2.4
21
10.1570287
0
LINE
8
0
10
2.4
20
10.1570287
11
2.4
21
9.81256041
0
LINE
8
0
10
2.4
20
9.81256041
11
2.4
21
9.58448792
0
LINE
8
0
10
2.4
20
9.58448792
11
2.4
21
4.49549737
0
LINE
8
0
10
2.4
20
4.49549737
11
2.85897043
21
4.49549737
0
LINE
8
0
10
2.85897043
20
4.49549737
11
16
21
4.49549737
0
LINE
8
0
10
16
20
4.49549737
11
16
21
4.49549737
0
LINE
8
0
10
16
20
31.9160427
11
16
21
23.5480525
0
LINE
8
0
10
16
20
23.5480525
11
2.85897043
21
23.5480525
0
LINE
8
0
10
2.85897043
20
23.5480525
11
2.4
21
23.5480525
0
LINE
8
0
10
2.4
20
23.5480525
11
2.4
21
28.1827162
0
LINE
8
0
10
2.4
20
28.1827162
11
2.4
21
31.9160427
0
LINE
8
0
10
2.4
20
31.9160427
11
2.4
21
32.7257685
0
LINE
8
0
10
2.4
20
32.7257685
11
2.4
21
33.9403573
0
LINE
8
0
10
2.4
20
33.9403573
11
2.4
21
35.6489866
0
LINE
8
0
10
2.4
20
35.6489866
11
2.4
21
38.8442391
0
LINE
8
0
10
2.4
20
38.8442391
11
12.2498792
21
38.8442391
0
LINE
8
0
10
12.2498792
20
38.8442391
11
16
21
38.8442391
0
LINE
8
0
10
16
20
38.8442391
11
16
21
35.6489866
0
LINE
8
0
10
16
20
35.6489866
11
16
21
33.9403573
0
LINE
8
0
10
16
20
33.9403573
11
16
21
31.9160427
0
LINE
8
0
10
16
20
31.9160427
11
16
21
31.9160427
0
LINE
8
0
10
14.179915
20
52.1132572
11
14.1262961
21
52.1575021
0
LINE
8
0
10
14.1262961
20
52.1575021
11
13.7807886
21
52.3938469
0
LINE
8
0
10
13.7807886
20
52.3938469
11
13.4422875
21
52.5288074
0
LINE
8
0
10
13.4422875
20
52.5288074
11
13.4072201
21
52.5434096
0
LINE
8
0
10
13.4072201
20
52.5434096
11
13.3680266
21
52.5522263
0
LINE
8
0
10
13.3680266
20
52.5522263
11
13
21
52.6006176
0
LINE
8
0
10
13
20
52.6006176
11
12.46656
21
52.6006176
0
LINE
8
0
10
12.46656
20
52.6006176
11
4.4
21
52.6006176
0
LINE
8
0
10
4.4
20
52.6006176
11
4.33648399
21
52.5838948
0
LINE
8
0
10
4.33648399
20
52.5838948
11
3.882362
21
52.464323
0
LINE
8
0
10
3.882362
20
52.464323
11
3.82954519
21
52.4205687
0
LINE
8
0
10
3.82954519
20
52.4205687
11
3.4
21
52.0647261
0
LINE
8
0
10
3.4
20
52.0647261
11
3.36819854
21
52.0159211
0
LINE
8
0
10
3.36819854
20
52.0159211
11
2.985786
21
51.4290582
0
LINE
8
0
10
2.985786
20
51.4290582
11
2.97705192
21
51.4062932
0
LINE
8
0
10
2.97705192
20
51.4062932
11
2.84667068
21
51.0664592
0
LINE
8
0
10
2.84667068
20
51.0664592
11
2.667949
21
50.6619229
0
LINE
8
0
10
2.667949
20
50.6619229
11
2.5878039
21
50.3258713
0
LINE
8
0
10
2.5878039
20
50.3258713
11
2.468148
21
49.9188951
0
LINE
8
0
10
2.468148
20
49.9188951
11
2.4447271
21
49.6629327
0
LINE
8
0
10
2.4447271
20
49.6629327
11
2.4
21
49.2254
0
LINE
8
0
10
2.4
20
49.2254
11
2.4
21
49.0316275
0
LINE
8
0
10
2.4
20
49.0316275
11
2.4
21
48.5977721
0
LINE
8
0
10
2.4
20
48.5977721
11
2.4
21
47.1258542
0
LINE
8
0
10
2.4
20
47.1258542
11
2.4
21
46.4409763
0
LINE
8
0
10
2.4
20
46.4409763
11
2.4
21
46.1021741
0
LINE
8
0
10
2.4
20
46.1021741
11
2.4
21
43.0663037
0
LINE
8
0
10
2.4
20
43.0663037
11
2.4
21
42.8670208
0
LINE
8
0
10
2.4
20
42.8670208
11
2.4
21
42.8507218
0
LINE
8
0
10
2.4
20
42.8507218
11
2.4
21
42.6789736
0
LINE
8
0
10
2.4
20
42.6789736
11
2.4
21
42.5058323
0
LINE
8
0
10
2.4
20
42.5058323
11
2.4
21
42.4979662
0
LINE
8
0
10
2.4
20
42.4979662
11
2.4
21
42.3276019
0
LINE
8
0
10
2.4
20
42.3276019
11
2.4
21
42.1935508
0
LINE
8
0
10
2.4
20
42.1935508
11
3.09782073
21
42.1935508
0
LINE
8
0
10
3.09782073
20
42.1935508
11
17.7076414
21
42.1935508
0
LINE
8
0
10
17.7076414
20
42.1935508
11
17.7688231
21
42.1935506
0
LINE
8
0
10
17.7688231
20
42.1935506
11
17.8
21
42.1935506
0
LINE
8
0
10
17.8
20
42.1935506
11
17.8
21
42.3043726
0
LINE
8
0
10
17.8
20
42.3043726
11
17.8
21
42.3083173
0
LINE
8
0
10
17.8
20
42.3083173
11
17.8
21
42.3152543
0
LINE
8
0
10
17.8
20
42.3152543
11
17.8
21
42.325701
0
LINE
8
0
10
17.8
20
42.325701
11
17.8
21
42.3391877
0
LINE
8
0
10
17.8
20
42.3391877
11
17.8
21
43.3109344
0
LINE
8
0
10
17.8
20
43.3109344
11
17.8
21
44.1955757
0
LINE
8
0
10
17.8
20
44.1955757
11
17.8
21
44.3306203
0
LINE
8
0
10
17.8
20
44.3306203
11
17.8
21
45.2
0
LINE
8
0
10
17.8
20
45.2
11
17.8
21
45.7480824
0
LINE
8
0
10
17.8
20
45.7480824
11
17.8
21
50.2
0
LINE
8
0
10
17.8
20
50.2
11
17.5814796
21
50.2
0
LINE
8
0
10
17.5814796
20
50.2
11
17.5636456
21
50.2
0
LINE
8
0
10
17.5636456
20
50.2
11
17.2454844
21
50.2208498
0
LINE
8
0
10
17.2454844
20
50.2208498
11
17.0721979
21
50.2387085
0
LINE
8
0
10
17.0721979
20
50.2387085
11
16.8680263
21
50.2814842
0
LINE
8
0
10
16.8680263
20
50.2814842
11
16.7285387
21
50.307643
0
LINE
8
0
10
16.7285387
20
50.307643
11
16.6814637
21
50.3159736
0
LINE
8
0
10
16.6814637
20
50.3159736
11
16.4012756
21
50.4082148
0
LINE
8
0
10
16.4012756
20
50.4082148
11
16.2400799
21
50.4579314
0
LINE
8
0
10
16.2400799
20
50.4579314
11
15.8686784
21
50.6325494
0
LINE
8
0
10
15.8686784
20
50.6325494
11
15.8319098
21
50.6519174
0
LINE
8
0
10
15.8319098
20
50.6519174
11
15.8023052
21
50.6693068
0
LINE
8
0
10
15.8023052
20
50.6693068
11
15.6715456
21
50.7402405
0
LINE
8
0
10
15.6715456
20
50.7402405
11
15.6436284
21
50.7543486
0
LINE
8
0
10
15.6436284
20
50.7543486
11
15.5167641
21
50.8351266
0
LINE
8
0
10
15.5167641
20
50.8351266
11
15.4578009
21
50.8698831
0
LINE
8
0
10
15.4578009
20
50.8698831
11
15.3726821
21
50.9332514
0
LINE
8
0
10
15.3726821
20
50.9332514
11
15.2878
21
50.9913153
0
LINE
8
0
10
15.2878
20
50.9913153
11
15.1645598
21
51.0907679
0
LINE
8
0
10
15.1645598
20
51.0907679
11
15.1324967
21
51.11836
0
LINE
8
0
10
15.1324967
20
51.11836
11
15.0238294
21
51.2201514
0
LINE
8
0
10
15.0238294
20
51.2201514
11
14.9966598
21
51.2421968
0
LINE
8
0
10
14.9966598
20
51.2421968
11
14.9902378
21
51.2469396
0
LINE
8
0
10
14.9902378
20
51.2469396
11
14.8791495
21
51.3521037
0
LINE
8
0
10
14.8791495
20
51.3521037
11
14.8473519
21
51.3792247
0
LINE
8
0
10
14.8473519
20
51.3792247
11
14.7464267
21
51.4937177
0
LINE
8
0
10
14.7464267
20
51.4937177
11
14.7442138
21
51.4974959
0
LINE
8
0
10
14.7442138
20
51.4974959
11
14.6058458
21
51.6483528
0
LINE
8
0
10
14.6058458
20
51.6483528
11
14.5079837
21
51.7875089
0
LINE
8
0
10
14.5079837
20
51.7875089
11
14.179915
21
52.1132572
0
LINE
8
0
10
14.179915
20
52.1132572
11
14.179915
21
52.1132572
0
ENDSEC
0
EOF
