0
SECTION
2
ENTITIES
0
LINE
8
0
10
16
20
4.32650053
11
16
21
4
0
LINE
8
0
10
16
20
4
11
15.6676536
21
4
0
LINE
8
0
10
15.6676536
20
4
11
2.4
21
4
0
LINE
8
0
10
2.4
20
4
11
2.4
21
-5.71846771
0
LINE
8
0
10
2.4
20
-5.71846771
11
2.4
21
-12.196079
0
LINE
8
0
10
2.4
20
-12.196079
11
2.4
21
-12.278323
0
LINE
8
0
10
2.4
20
-12.278323
11
2.4
21
-12.7316884
0
LINE
8
0
10
2.4
20
-12.7316884
11
2.4
21
-13.9954263
0
LINE
8
0
10
2.4
20
-13.9954263
11
2.4
21
-14
0
LINE
8
0
10
2.4
20
-14
11
2.41073317
21
-14.0815273
0
LINE
8
0
10
2.41073317
20
-14.0815273
11
2.42146636
21
-14.1630546
0
LINE
8
0
10
2.42146636
20
-14.1630546
11
2.43113409
21
-14.3241059
0
LINE
8
0
10
2.43113409
20
-14.3241059
11
2.45979814
21
-14.4836007
0
LINE
8
0
10
2.45979814
20
-14.4836007
11
2.57011839
21
-14.7856467
0
LINE
8
0
10
2.57011839
20
-14.7856467
11
2.62832169
21
-14.9261612
0
LINE
8
0
10
2.62832169
20
-14.9261612
11
2.79104819
21
-15.1803408
0
LINE
8
0
10
2.79104819
20
-15.1803408
11
2.8775364
21
-15.2930535
0
LINE
8
0
10
2.8775364
20
-15.2930535
11
3.07146672
21
-15.4932036
0
LINE
8
0
10
3.07146672
20
-15.4932036
11
3.17535184
21
-15.5728422
0
LINE
8
0
10
3.17535184
20
-15.5728422
11
3.40226019
21
-15.7331609
0
LINE
8
0
10
3.40226019
20
-15.7331609
11
3.6670168
21
-15.8552483
0
LINE
8
0
10
3.6670168
20
-15.8552483
11
3.7598067
21
-15.8936312
0
LINE
8
0
10
3.7598067
20
-15.8936312
11
4.03883604
21
-15.965544
0
LINE
8
0
10
4.03883604
20
-15.965544
11
4.08384983
21
-15.9732361
0
LINE
8
0
10
4.08384983
20
-15.9732361
11
4.4
21
-16
0
LINE
8
0
10
4.4
20
-16
11
5.73363928
21
-16
0
LINE
8
0
10
5.73363928
20
-16
11
28.3800233
21
-16
0
LINE
8
0
10
28.3800233
20
-16
11
31.4652828
21
-16
0
LINE
8
0
10
31.4652828
20
-16
11
32.5689406
21
-16
0
LINE
8
0
10
32.5689406
20
-16
11
32.7
21
-16
0
LINE
8
0
10
32.7
20
-16
11
33.1664969
21
-15.9540514
0
LINE
8
0
10
33.1664969
20
-15.9540514
11
33.2092566
21
-15.9469405
0
LINE
8
0
10
33.2092566
20
-15.9469405
11
33.6289145
21
-15.8191348
0
LINE
8
0
10
33.6289145
20
-15.8191348
11
33.6830361
21
-15.7967169
0
LINE
8
0
10
33.6830361
20
-15.7967169
11
34.0828815
21
-15.5824311
0
LINE
8
0
10
34.0828815
20
-15.5824311
11
34.1054234
21
-15.5651345
0
LINE
8
0
10
34.1054234
20
-15.5651345
11
34.459472
21
-15.2745798
0
LINE
8
0
10
34.459472
20
-15.2745798
11
45.4042732
21
-15.2745798
0
LINE
8
0
10
45.4042732
20
-15.2745798
11
45.65767
21
-15.2741371
0
LINE
8
0
10
45.65767
20
-15.2741371
11
45.9330233
21
-15.2746256
0
LINE
8
0
10
45.9330233
20
-15.2746256
11
46.561543
21
-15.275563
0
LINE
8
0
10
46.561543
20
-15.275563
11
57.5191977
21
-15.2673974
0
LINE
8
0
10
57.5191977
20
-15.2673974
11
57.5773347
21
-15.3684785
0
LINE
8
0
10
57.5773347
20
-15.3684785
11
57.5814309
21
-15.3738168
0
LINE
8
0
10
57.5814309
20
-15.3738168
11
57.747187
21
-15.5683092
0
LINE
8
0
10
57.747187
20
-15.5683092
11
57.7651988
21
-15.5821303
0
LINE
8
0
10
57.7651988
20
-15.5821303
11
58.142963
21
-15.8477727
0
LINE
8
0
10
58.142963
20
-15.8477727
11
58.1926972
21
-15.8683733
0
LINE
8
0
10
58.1926972
20
-15.8683733
11
58.5729534
21
-15.9803254
0
LINE
8
0
10
58.5729534
20
-15.9803254
11
58.6241503
21
-15.9857853
0
LINE
8
0
10
58.6241503
20
-15.9857853
11
58.650628
21
-15.9903851
0
LINE
8
0
10
58.650628
20
-15.9903851
11
58.6737655
21
-15.994618
0
LINE
8
0
10
58.6737655
20
-15.994618
11
58.67679
21
-15.99493
0
LINE
8
0
10
58.67679
20
-15.99493
11
58.6798382
21
-15.9951181
0
LINE
8
0
10
58.6798382
20
-15.9951181
11
58.73836
21
-15.99873
0
LINE
8
0
10
58.73836
20
-15.99873
11
58.7412435
21
-15.9987894
0
LINE
8
0
10
58.7412435
20
-15.9987894
11
58.8
21
-16
0
LINE
8
0
10
58.8
20
-16
11
65.5381755
21
-16
0
LINE
8
0
10
65.5381755
20
-16
11
69.3994437
21
-16
0
LINE
8
0
10
69.3994437
20
-16
11
69.4331898
21
-16
0
LINE
8
0
10
69.4331898
20
-16
11
69.4606155
21
-16
0
LINE
8
0
10
69.4606155
20
-16
11
69.564812
21
-15.9865639
0
LINE
8
0
10
69.564812
20
-15.9865639
11
70.097001
21
-15.91481
0
LINE
8
0
10
70.097001
20
-15.91481
11
70.2926485
21
-15.8337702
0
LINE
8
0
10
70.2926485
20
-15.8337702
11
70.699953
21
-15.66506
0
LINE
8
0
10
70.699953
20
-15.66506
11
70.8920623
21
-15.5176527
0
LINE
8
0
10
70.8920623
20
-15.5176527
11
71.2177162
21
-15.26777
0
LINE
8
0
10
71.2177162
20
-15.26777
11
71.379084
21
-15.0574666
0
LINE
8
0
10
71.379084
20
-15.0574666
11
71.6150139
21
-14.75
0
LINE
8
0
10
71.6150139
20
-14.75
11
71.7225517
21
-14.4903805
0
LINE
8
0
10
71.7225517
20
-14.4903805
11
71.8647647
21
-14.14705
0
LINE
8
0
10
71.8647647
20
-14.14705
11
71.9516815
21
-13.6137983
0
LINE
8
0
10
71.9516815
20
-13.6137983
11
71.966664
21
-13.5
0
LINE
8
0
10
71.966664
20
-13.5
11
71.9675717
21
-7.66456813
0
LINE
8
0
10
71.9675717
20
-7.66456813
11
71.9502892
21
10.034716
0
LINE
8
0
10
71.9502892
20
10.034716
11
71.9719497
21
19.8711059
0
LINE
8
0
10
71.9719497
20
19.8711059
11
71.9719497
21
20.2283885
0
LINE
8
0
10
71.9719497
20
20.2283885
11
65.4557985
21
20.2283789
0
LINE
8
0
10
65.4557985
20
20.2283789
11
64.4695034
21
20.2283767
0
LINE
8
0
10
64.4695034
20
20.2283767
11
62.3929329
21
20.2283774
0
LINE
8
0
10
62.3929329
20
20.2283774
11
59.2121391
21
20.2283774
0
LINE
8
0
10
59.2121391
20
20.2283774
11
30.424236
21
20.2283774
0
LINE
8
0
10
30.424236
20
20.2283774
11
29.4920217
21
20.2283772
0
LINE
8
0
10
29.4920217
20
20.2283772
11
28.6631253
21
20.2283773
0
LINE
8
0
10
28.6631253
20
20.2283773
11
16
21
20.2283803
0
LINE
8
0
10
16
20
20.2283803
11
16
21
20.3271322
0
LINE
8
0
10
16
20
20.3271322
11
16
21
20.6799907
0
LINE
8
0
10
16
20
20.6799907
11
16
21
21.4866867
0
LINE
8
0
10
16
20
21.4866867
11
16
21
22.8580085
0
LINE
8
0
10
16
20
22.8580085
11
14.291688
21
22.8580085
0
LINE
8
0
10
14.291688
20
22.8580085
11
2.4
21
22.8580085
0
LINE
8
0
10
2.4
20
22.8580085
11
2.4
21
15.667973
0
LINE
8
0
10
2.4
20
15.667973
11
2.4
21
13.7739942
0
LINE
8
0
10
2.4
20
13.7739942
11
2.4
21
13.3938024
0
LINE
8
0
10
2.4
20
13.3938024
11
2.4
21
12.9446988
0
LINE
8
0
10
2.4
20
12.9446988
11
2.4
21
12.4783778
0
LINE
8
0
10
2.4
20
12.4783778
11
2.4
21
12.0541417
0
LINE
8
0
10
2.4
20
12.0541417
11
2.4
21
10.9034148
0
LINE
8
0
10
2.4
20
10.9034148
11
2.4
21
10.4288306
0
LINE
8
0
10
2.4
20
10.4288306
11
2.4
21
10.0165566
0
LINE
8
0
10
2.4
20
10.0165566
11
2.4
21
9.70483753
0
LINE
8
0
10
2.4
20
9.70483753
11
2.4
21
9.49844831
0
LINE
8
0
10
2.4
20
9.49844831
11
2.4
21
4.89327736
0
LINE
8
0
10
2.4
20
4.89327736
11
4.10831205
21
4.89327736
0
LINE
8
0
10
4.10831205
20
4.89327736
11
16
21
4.89327736
0
LINE
8
0
10
16
20
4.89327736
11
16
21
4.349365
0
LINE
8
0
10
16
20
4.349365
11
16
21
4.32650053
0
LINE
8
0
10
16
20
4.32650053
11
16
21
4.32650053
0
LINE
8
0
10
16
20
43.4766546
11
16
21
42.9983938
0
LINE
8
0
10
16
20
42.9983938
11
3.44143214
21
42.9983938
0
LINE
8
0
10
3.44143214
20
42.9983938
11
2.4
21
42.9983938
0
LINE
8
0
10
2.4
20
42.9983938
11
2.4
21
45.9318947
0
LINE
8
0
10
2.4
20
45.9318947
11
2.4
21
46.2157329
0
LINE
8
0
10
2.4
20
46.2157329
11
2.4
21
46.7895028
0
LINE
8
0
10
2.4
20
46.7895028
11
2.4
21
48.0226307
0
LINE
8
0
10
2.4
20
48.0226307
11
2.4
21
48.9970024
0
LINE
8
0
10
2.4
20
48.9970024
11
2.4
21
49.4321851
0
LINE
8
0
10
2.4
20
49.4321851
11
2.42477305
21
49.6745219
0
LINE
8
0
10
2.42477305
20
49.6745219
11
2.46620497
21
50.1273232
0
LINE
8
0
10
2.46620497
20
50.1273232
11
2.46747429
21
50.1432528
0
LINE
8
0
10
2.46747429
20
50.1432528
11
2.468148
21
50.1521406
0
LINE
8
0
10
2.468148
20
50.1521406
11
2.65458177
21
50.9338644
0
LINE
8
0
10
2.65458177
20
50.9338644
11
2.66698168
21
50.9937366
0
LINE
8
0
10
2.66698168
20
50.9937366
11
2.667949
21
50.9984072
0
LINE
8
0
10
2.667949
20
50.9984072
11
2.96427657
21
51.7707742
0
LINE
8
0
10
2.96427657
20
51.7707742
11
2.985786
21
51.8268378
0
LINE
8
0
10
2.985786
20
51.8268378
11
3.3513025
21
52.3877714
0
LINE
8
0
10
3.3513025
20
52.3877714
11
3.4
21
52.4625063
0
LINE
8
0
10
3.4
20
52.4625063
11
3.80950549
21
52.8017477
0
LINE
8
0
10
3.80950549
20
52.8017477
11
3.882362
21
52.8621033
0
LINE
8
0
10
3.882362
20
52.8621033
11
4.31452588
21
52.9758934
0
LINE
8
0
10
4.31452588
20
52.9758934
11
4.4
21
52.9983975
0
LINE
8
0
10
4.4
20
52.9983975
11
12.2821445
21
52.9983975
0
LINE
8
0
10
12.2821445
20
52.9983975
11
13
21
52.9983975
0
LINE
8
0
10
13
20
52.9983975
11
13.3596129
21
52.9511125
0
LINE
8
0
10
13.3596129
20
52.9511125
11
13.4131294
21
52.9390737
0
LINE
8
0
10
13.4131294
20
52.9390737
11
13.4610119
21
52.9191353
0
LINE
8
0
10
13.4610119
20
52.9191353
11
13.7806908
21
52.7916792
0
LINE
8
0
10
13.7806908
20
52.7916792
11
14.1069866
21
52.5684762
0
LINE
8
0
10
14.1069866
20
52.5684762
11
14.196663
21
52.4944776
0
LINE
8
0
10
14.196663
20
52.4944776
11
14.5075659
21
52.1857736
0
LINE
8
0
10
14.5075659
20
52.1857736
11
14.8372719
21
51.7169444
0
LINE
8
0
10
14.8372719
20
51.7169444
11
14.8838139
21
51.6662017
0
LINE
8
0
10
14.8838139
20
51.6662017
11
14.8881858
21
51.6587372
0
LINE
8
0
10
14.8881858
20
51.6587372
11
14.9520484
21
51.5862892
0
LINE
8
0
10
14.9520484
20
51.5862892
11
15.1906565
21
51.2824323
0
LINE
8
0
10
15.1906565
20
51.2824323
11
15.2606348
21
51.207159
0
LINE
8
0
10
15.2606348
20
51.207159
11
15.3093167
21
51.1615574
0
LINE
8
0
10
15.3093167
20
51.1615574
11
15.4540767
21
51.0369834
0
LINE
8
0
10
15.4540767
20
51.0369834
11
15.4696392
21
51.0244248
0
LINE
8
0
10
15.4696392
20
51.0244248
11
15.4803578
21
51.0170926
0
LINE
8
0
10
15.4803578
20
51.0170926
11
15.5346037
21
50.9767083
0
LINE
8
0
10
15.5346037
20
50.9767083
11
15.6967897
21
50.8521048
0
LINE
8
0
10
15.6967897
20
50.8521048
11
15.8205315
21
50.7665112
0
LINE
8
0
10
15.8205315
20
50.7665112
11
15.8820491
21
50.7303765
0
LINE
8
0
10
15.8820491
20
50.7303765
11
16.3135995
21
50.5030551
0
LINE
8
0
10
16.3135995
20
50.5030551
11
16.3905746
21
50.4668645
0
LINE
8
0
10
16.3905746
20
50.4668645
11
16.4239833
21
50.4565605
0
LINE
8
0
10
16.4239833
20
50.4565605
11
16.5207212
21
50.4247132
0
LINE
8
0
10
16.5207212
20
50.4247132
11
16.5990033
21
50.3970688
0
LINE
8
0
10
16.5990033
20
50.3970688
11
16.9462811
21
50.2894665
0
LINE
8
0
10
16.9462811
20
50.2894665
11
17.0985863
21
50.2575573
0
LINE
8
0
10
17.0985863
20
50.2575573
11
17.5890296
21
50.2070127
0
LINE
8
0
10
17.5890296
20
50.2070127
11
17.6960412
21
50.2
0
LINE
8
0
10
17.6960412
20
50.2
11
17.7265019
21
50.2
0
LINE
8
0
10
17.7265019
20
50.2
11
17.8
21
50.2
0
LINE
8
0
10
17.8
20
50.2
11
17.8
21
45.3843443
0
LINE
8
0
10
17.8
20
45.3843443
11
17.8
21
45.2
0
LINE
8
0
10
17.8
20
45.2
11
17.8
21
44.2595888
0
LINE
8
0
10
17.8
20
44.2595888
11
17.8
21
44.224361
0
LINE
8
0
10
17.8
20
44.224361
11
17.8
21
43.4989776
0
LINE
8
0
10
17.8
20
43.4989776
11
16.8218888
21
43.4588013
0
LINE
8
0
10
16.8218888
20
43.4588013
11
16
21
43.4766546
0
LINE
8
0
10
16
20
43.4766546
11
16
21
43.4766546
0
LINE
8
0
10
16
20
38.4464599
11
16
21
35.7695746
0
LINE
8
0
10
16
20
35.7695746
11
16
21
34.3381371
0
LINE
8
0
10
16
20
34.3381371
11
16
21
31.5182629
0
LINE
8
0
10
16
20
31.5182629
11
16
21
23.9458327
0
LINE
8
0
10
16
20
23.9458327
11
4.10831205
21
23.9458327
0
LINE
8
0
10
4.10831205
20
23.9458327
11
2.4
21
23.9458327
0
LINE
8
0
10
2.4
20
23.9458327
11
2.4
21
28.1398705
0
LINE
8
0
10
2.4
20
28.1398705
11
2.4
21
31.5182629
0
LINE
8
0
10
2.4
20
31.5182629
11
2.4
21
32.6462126
0
LINE
8
0
10
2.4
20
32.6462126
11
2.4
21
34.3381371
0
LINE
8
0
10
2.4
20
34.3381371
11
2.4
21
35.7695746
0
LINE
8
0
10
2.4
20
35.7695746
11
2.4
21
38.4464599
0
LINE
8
0
10
2.4
20
38.4464599
11
10.6519287
21
38.4464599
0
LINE
8
0
10
10.6519287
20
38.4464599
11
16
21
38.4464599
0
LINE
8
0
10
16
20
38.4464599
11
16
21
38.4464599
0
LINE
8
0
10
48.84998
20
-4.502994
11
48.8331031
21
-4.36685098
0
LINE
8
0
10
48.8331031
20
-4.36685098
11
48.826
21
-4.309551
0
LINE
8
0
10
48.826
20
-4.309551
11
48.7746093
21
-4.18235454
0
LINE
8
0
10
48.7746093
20
-4.18235454
11
48.75298
21
-4.12882
0
LINE
8
0
10
48.75298
20
-4.12882
11
48.6705452
21
-4.01916337
0
LINE
8
0
10
48.6705452
20
-4.01916337
11
48.63585
21
-3.973011
0
LINE
8
0
10
48.63585
20
-3.973011
11
48.5564876
21
-3.89196807
0
LINE
8
0
10
48.5564876
20
-3.89196807
11
48.1
21
-3.425814
0
LINE
8
0
10
48.1
20
-3.425814
11
48.0206376
21
-3.50685693
0
LINE
8
0
10
48.0206376
20
-3.50685693
11
47.56415
21
-3.973011
0
LINE
8
0
10
47.56415
20
-3.973011
11
47.5294548
21
-4.01916337
0
LINE
8
0
10
47.5294548
20
-4.01916337
11
47.44702
21
-4.12882
0
LINE
8
0
10
47.44702
20
-4.12882
11
47.3956293
21
-4.25601646
0
LINE
8
0
10
47.3956293
20
-4.25601646
11
47.374
21
-4.309551
0
LINE
8
0
10
47.374
20
-4.309551
11
47.3571231
21
-4.44569402
0
LINE
8
0
10
47.3571231
20
-4.44569402
11
47.35002
21
-4.502994
0
LINE
8
0
10
47.35002
20
-4.502994
11
47.3687971
21
-4.63888858
0
LINE
8
0
10
47.3687971
20
-4.63888858
11
47.3767
21
-4.696084
0
LINE
8
0
10
47.3767
20
-4.696084
11
47.4298572
21
-4.82254992
0
LINE
8
0
10
47.4298572
20
-4.82254992
11
47.45223
21
-4.875777
0
LINE
8
0
10
47.45223
20
-4.875777
11
47.536185
21
-4.98427238
0
LINE
8
0
10
47.536185
20
-4.98427238
11
47.57152
21
-5.029936
0
LINE
8
0
10
47.57152
20
-5.029936
11
47.6806002
21
-5.11313228
0
LINE
8
0
10
47.6806002
20
-5.11313228
11
47.72651
21
-5.148148
0
LINE
8
0
10
47.72651
20
-5.148148
11
47.8533468
21
-5.20042543
0
LINE
8
0
10
47.8533468
20
-5.20042543
11
47.90673
21
-5.222428
0
LINE
8
0
10
47.90673
20
-5.222428
11
48.0427513
21
-5.24025497
0
LINE
8
0
10
48.0427513
20
-5.24025497
11
48.1
21
-5.247758
0
LINE
8
0
10
48.1
20
-5.247758
11
48.2360213
21
-5.22993103
0
LINE
8
0
10
48.2360213
20
-5.22993103
11
48.29327
21
-5.222428
0
LINE
8
0
10
48.29327
20
-5.222428
11
48.4201068
21
-5.17015057
0
LINE
8
0
10
48.4201068
20
-5.17015057
11
48.47349
21
-5.148148
0
LINE
8
0
10
48.47349
20
-5.148148
11
48.5825702
21
-5.06495172
0
LINE
8
0
10
48.5825702
20
-5.06495172
11
48.62848
21
-5.029936
0
LINE
8
0
10
48.62848
20
-5.029936
11
48.712435
21
-4.92144062
0
LINE
8
0
10
48.712435
20
-4.92144062
11
48.74777
21
-4.875777
0
LINE
8
0
10
48.74777
20
-4.875777
11
48.8009272
21
-4.74931108
0
LINE
8
0
10
48.8009272
20
-4.74931108
11
48.8233
21
-4.696084
0
LINE
8
0
10
48.8233
20
-4.696084
11
48.8420771
21
-4.56018942
0
LINE
8
0
10
48.8420771
20
-4.56018942
11
48.84998
21
-4.502994
0
LINE
8
0
10
48.84998
20
-4.502994
11
48.84998
21
-4.502994
0
ENDSEC
0
EOF
