0
SECTION
2
ENTITIES
0
LINE
8
0
10
3.40224112
20
-15.7331558
11
3.18210201
21
-15.5776198
0
LINE
8
0
10
3.18210201
20
-15.5776198
11
3.06891066
21
-15.4908471
0
LINE
8
0
10
3.06891066
20
-15.4908471
11
2.88076575
21
-15.2966679
0
LINE
8
0
10
2.88076575
20
-15.2966679
11
2.78737583
21
-15.1749608
0
LINE
8
0
10
2.78737583
20
-15.1749608
11
2.62950387
21
-14.928364
0
LINE
8
0
10
2.62950387
20
-14.928364
11
2.56707636
21
-14.7776514
0
LINE
8
0
10
2.56707636
20
-14.7776514
11
2.46004723
21
-14.4846162
0
LINE
8
0
10
2.46004723
20
-14.4846162
11
2.43223831
21
-14.3298795
0
LINE
8
0
10
2.43223831
20
-14.3298795
11
2.42285899
21
-14.1736328
0
LINE
8
0
10
2.42285899
20
-14.1736328
11
2.41142949
21
-14.0868163
0
LINE
8
0
10
2.41142949
20
-14.0868163
11
2.4
21
-14
0
LINE
8
0
10
2.4
20
-14
11
2.4
21
-13.9951295
0
LINE
8
0
10
2.4
20
-13.9951295
11
2.4
21
-12.6494068
0
LINE
8
0
10
2.4
20
-12.6494068
11
2.4
21
-12.2001817
0
LINE
8
0
10
2.4
20
-12.2001817
11
2.4
21
-12.1126772
0
LINE
8
0
10
2.4
20
-12.1126772
11
2.4
21
-5.22074309
0
LINE
8
0
10
2.4
20
-5.22074309
11
2.4
21
4
0
LINE
8
0
10
2.4
20
4
11
14.9881599
21
4
0
LINE
8
0
10
14.9881599
20
4
11
16
21
4
0
LINE
8
0
10
16
20
4
11
16
21
4.30977903
0
LINE
8
0
10
16
20
4.30977903
11
16
21
4.349365
0
LINE
8
0
10
16
20
4.349365
11
16
21
5.29105735
0
LINE
8
0
10
16
20
5.29105735
11
5.35765366
21
5.29105735
0
LINE
8
0
10
5.35765366
20
5.29105735
11
2.4
21
5.29105735
0
LINE
8
0
10
2.4
20
5.29105735
11
2.4
21
9.4124087
0
LINE
8
0
10
2.4
20
9.4124087
11
2.4
21
9.59711466
0
LINE
8
0
10
2.4
20
9.59711466
11
2.4
21
9.87608446
0
LINE
8
0
10
2.4
20
9.87608446
11
2.4
21
10.245045
0
LINE
8
0
10
2.4
20
10.245045
11
2.4
21
10.6697693
0
LINE
8
0
10
2.4
20
10.6697693
11
2.4
21
12.1348059
0
LINE
8
0
10
2.4
20
12.1348059
11
2.4
21
12.5402549
0
LINE
8
0
10
2.4
20
12.5402549
11
2.4
21
12.9859251
0
LINE
8
0
10
2.4
20
12.9859251
11
2.4
21
13.4151404
0
LINE
8
0
10
2.4
20
13.4151404
11
2.4
21
13.7784955
0
LINE
8
0
10
2.4
20
13.7784955
11
2.4
21
16.0255793
0
LINE
8
0
10
2.4
20
16.0255793
11
2.4
21
22.4602292
0
LINE
8
0
10
2.4
20
22.4602292
11
13.0423463
21
22.4602292
0
LINE
8
0
10
13.0423463
20
22.4602292
11
16
21
22.4602292
0
LINE
8
0
10
16
20
22.4602292
11
16
21
21.2329785
0
LINE
8
0
10
16
20
21.2329785
11
16
21
20.3786632
0
LINE
8
0
10
16
20
20.3786632
11
16
21
20.0049754
0
LINE
8
0
10
16
20
20.0049754
11
16
21
19.9003942
0
LINE
8
0
10
16
20
19.9003942
11
28.3490477
21
19.9003912
0
LINE
8
0
10
28.3490477
20
19.9003912
11
29.9507473
21
19.900391
0
LINE
8
0
10
29.9507473
20
19.900391
11
31.7520908
21
19.9003913
0
LINE
8
0
10
31.7520908
20
19.9003913
11
55.4941458
21
19.9003913
0
LINE
8
0
10
55.4941458
20
19.9003913
11
61.6404819
21
19.9003913
0
LINE
8
0
10
61.6404819
20
19.9003913
11
65.6530967
21
19.90039
0
LINE
8
0
10
65.6530967
20
19.90039
11
67.558942
21
19.9003943
0
LINE
8
0
10
67.558942
20
19.9003943
11
71.946896
21
19.9004008
0
LINE
8
0
10
71.946896
20
19.9004008
11
71.946896
21
14.6525963
0
LINE
8
0
10
71.946896
20
14.6525963
11
71.93231
21
8.02880475
0
LINE
8
0
10
71.93231
20
8.02880475
11
71.9511003
21
-11.2147236
0
LINE
8
0
10
71.9511003
20
-11.2147236
11
71.9498237
21
-13.5
0
LINE
8
0
10
71.9498237
20
-13.5
11
71.9373657
21
-13.6064076
0
LINE
8
0
10
71.9373657
20
-13.6064076
11
71.8492442
21
-14.14705
0
LINE
8
0
10
71.8492442
20
-14.14705
11
71.6629271
21
-14.5968569
0
LINE
8
0
10
71.6629271
20
-14.5968569
11
71.5994932
21
-14.75
0
LINE
8
0
10
71.5994932
20
-14.75
11
71.2903949
21
-15.1528206
0
LINE
8
0
10
71.2903949
20
-15.1528206
11
71.2021931
21
-15.26777
0
LINE
8
0
10
71.2021931
20
-15.26777
11
70.7755449
21
-15.5951482
0
LINE
8
0
10
70.7755449
20
-15.5951482
11
70.6844321
21
-15.66506
0
LINE
8
0
10
70.6844321
20
-15.66506
11
70.150811
21
-15.8860919
0
LINE
8
0
10
70.150811
20
-15.8860919
11
70.0814794
21
-15.91481
0
LINE
8
0
10
70.0814794
20
-15.91481
11
69.8928876
21
-15.9402374
0
LINE
8
0
10
69.8928876
20
-15.9402374
11
69.4294307
21
-16
0
LINE
8
0
10
69.4294307
20
-16
11
69.4124701
21
-16
0
LINE
8
0
10
69.4124701
20
-16
11
69.3682584
21
-16
0
LINE
8
0
10
69.3682584
20
-16
11
64.3095031
21
-16
0
LINE
8
0
10
64.3095031
20
-16
11
58.8
21
-16
0
LINE
8
0
10
58.8
20
-16
11
58.7407517
21
-15.9987793
0
LINE
8
0
10
58.7407517
20
-15.9987793
11
58.73836
21
-15.99873
0
LINE
8
0
10
58.73836
20
-15.99873
11
58.6793499
21
-15.995088
0
LINE
8
0
10
58.6793499
20
-15.995088
11
58.67679
21
-15.99493
0
LINE
8
0
10
58.67679
20
-15.99493
11
58.6742499
21
-15.994668
0
LINE
8
0
10
58.6742499
20
-15.994668
11
58.6548184
21
-15.991113
0
LINE
8
0
10
58.6548184
20
-15.991113
11
58.6325818
21
-15.98725
0
LINE
8
0
10
58.6325818
20
-15.98725
11
58.5793524
21
-15.9815733
0
LINE
8
0
10
58.5793524
20
-15.9815733
11
58.184
21
-15.8651767
0
LINE
8
0
10
58.184
20
-15.8651767
11
58.1466536
21
-15.8497074
0
LINE
8
0
10
58.1466536
20
-15.8497074
11
57.7538922
21
-15.5735189
0
LINE
8
0
10
57.7538922
20
-15.5735189
11
57.7474986
21
-15.5686129
0
LINE
8
0
10
57.7474986
20
-15.5686129
11
57.663877
21
-15.4704943
0
LINE
8
0
10
57.663877
20
-15.4704943
11
53.5538442
21
-15.4643645
0
LINE
8
0
10
53.5538442
20
-15.4643645
11
45.65767
21
-15.4503562
0
LINE
8
0
10
45.65767
20
-15.4503562
11
38.3911327
21
-15.463052
0
LINE
8
0
10
38.3911327
20
-15.463052
11
34.2298137
21
-15.463052
0
LINE
8
0
10
34.2298137
20
-15.463052
11
34.0952009
21
-15.5735237
0
LINE
8
0
10
34.0952009
20
-15.5735237
11
34.0866303
21
-15.5801
0
LINE
8
0
10
34.0866303
20
-15.5801
11
33.6755046
21
-15.8004312
0
LINE
8
0
10
33.6755046
20
-15.8004312
11
33.6368664
21
-15.8164357
0
LINE
8
0
10
33.6368664
20
-15.8164357
11
33.2053692
21
-15.9478469
0
LINE
8
0
10
33.2053692
20
-15.9478469
11
33.1703313
21
-15.9536737
0
LINE
8
0
10
33.1703313
20
-15.9536737
11
32.7
21
-16
0
LINE
8
0
10
32.7
20
-16
11
32.5860474
21
-16
0
LINE
8
0
10
32.5860474
20
-16
11
31.6264466
21
-16
0
LINE
8
0
10
31.6264466
20
-16
11
27.8914507
21
-16
0
LINE
8
0
10
27.8914507
20
-16
11
6.01449539
21
-16
0
LINE
8
0
10
6.01449539
20
-16
11
4.4
21
-16
0
LINE
8
0
10
4.4
20
-16
11
4.08625602
21
-15.9734398
0
LINE
8
0
10
4.08625602
20
-15.9734398
11
4.03416804
21
-15.9645388
0
LINE
8
0
10
4.03416804
20
-15.9645388
11
3.76346283
21
-15.8947713
0
LINE
8
0
10
3.76346283
20
-15.8947713
11
3.65909939
21
-15.8516011
0
LINE
8
0
10
3.65909939
20
-15.8516011
11
3.40224112
21
-15.7331558
0
LINE
8
0
10
3.40224112
20
-15.7331558
11
3.40224112
21
-15.7331558
0
LINE
8
0
10
16
20
47.396183
11
16
21
47.3148365
0
LINE
8
0
10
16
20
47.3148365
11
16
21
47.2485843
0
LINE
8
0
10
16
20
47.2485843
11
16
21
46.9725905
0
LINE
8
0
10
16
20
46.9725905
11
16
21
45.1843864
0
LINE
8
0
10
16
20
45.1843864
11
16
21
44.4866952
0
LINE
8
0
10
16
20
44.4866952
11
16
21
43.8717774
0
LINE
8
0
10
16
20
43.8717774
11
16
21
43.3961743
0
LINE
8
0
10
16
20
43.3961743
11
5.87334478
21
43.3961743
0
LINE
8
0
10
5.87334478
20
43.3961743
11
2.4
21
43.3961743
0
LINE
8
0
10
2.4
20
43.3961743
11
2.4
21
45.7616153
0
LINE
8
0
10
2.4
20
45.7616153
11
2.4
21
45.9904895
0
LINE
8
0
10
2.4
20
45.9904895
11
2.4
21
46.4531513
0
LINE
8
0
10
2.4
20
46.4531513
11
2.4
21
47.4474893
0
LINE
8
0
10
2.4
20
47.4474893
11
2.4
21
48.9623773
0
LINE
8
0
10
2.4
20
48.9623773
11
2.4
21
49.6389703
0
LINE
8
0
10
2.4
20
49.6389703
11
2.404819
21
49.6861111
0
LINE
8
0
10
2.404819
20
49.6861111
11
2.41287859
21
49.7741928
0
LINE
8
0
10
2.41287859
20
49.7741928
11
2.44898441
21
50.2273103
0
LINE
8
0
10
2.44898441
20
50.2273103
11
2.468148
21
50.480126
0
LINE
8
0
10
2.468148
20
50.480126
11
2.54473838
21
50.8012723
0
LINE
8
0
10
2.54473838
20
50.8012723
11
2.65903285
21
51.3531357
0
LINE
8
0
10
2.65903285
20
51.3531357
11
2.667949
21
51.3961867
0
LINE
8
0
10
2.667949
20
51.3961867
11
2.95150121
21
52.1352552
0
LINE
8
0
10
2.95150121
20
52.1352552
11
2.985786
21
52.2246173
0
LINE
8
0
10
2.985786
20
52.2246173
11
3.33440647
21
52.7596217
0
LINE
8
0
10
3.33440647
20
52.7596217
11
3.4
21
52.8602866
0
LINE
8
0
10
3.4
20
52.8602866
11
3.78946578
21
53.1829267
0
LINE
8
0
10
3.78946578
20
53.1829267
11
3.882362
21
53.2598836
0
LINE
8
0
10
3.882362
20
53.2598836
11
4.29256776
21
53.367892
0
LINE
8
0
10
4.29256776
20
53.367892
11
4.4
21
53.3961774
0
LINE
8
0
10
4.4
20
53.3961774
11
12.0977291
21
53.3961774
0
LINE
8
0
10
12.0977291
20
53.3961774
11
13
21
53.3961774
0
LINE
8
0
10
13
20
53.3961774
11
13.3511992
21
53.3499987
0
LINE
8
0
10
13.3511992
20
53.3499987
11
13.4190386
21
53.3347379
0
LINE
8
0
10
13.4190386
20
53.3347379
11
13.4797362
21
53.3094633
0
LINE
8
0
10
13.4797362
20
53.3094633
11
13.780593
21
53.1895116
0
LINE
8
0
10
13.780593
20
53.1895116
11
14.0876771
21
52.9794504
0
LINE
8
0
10
14.0876771
20
52.9794504
11
14.2134111
21
52.8756979
0
LINE
8
0
10
14.2134111
20
52.8756979
11
14.5071482
21
52.5840384
0
LINE
8
0
10
14.5071482
20
52.5840384
11
14.9418365
21
51.9659284
0
LINE
8
0
10
14.9418365
20
51.9659284
11
14.9588082
21
51.9400207
0
LINE
8
0
10
14.9588082
20
51.9400207
11
14.9641298
21
51.9309343
0
LINE
8
0
10
14.9641298
20
51.9309343
11
15.1902911
21
51.4961152
0
LINE
8
0
10
15.1902911
20
51.4961152
11
15.391854
21
51.0153348
0
LINE
8
0
10
15.391854
20
51.0153348
11
15.4034272
21
50.9853994
0
LINE
8
0
10
15.4034272
20
50.9853994
11
15.7247016
21
49.9055391
0
LINE
8
0
10
15.7247016
20
49.9055391
11
15.7310686
21
49.8751085
0
LINE
8
0
10
15.7310686
20
49.8751085
11
15.9304481
21
48.6800463
0
LINE
8
0
10
15.9304481
20
48.6800463
11
15.9979401
21
47.4274768
0
LINE
8
0
10
15.9979401
20
47.4274768
11
15.9992867
21
47.4088442
0
LINE
8
0
10
15.9992867
20
47.4088442
11
16
21
47.396183
0
LINE
8
0
10
16
20
47.396183
11
16
21
47.396183
0
LINE
8
0
10
16
20
24.343613
11
16
21
31.1204831
0
LINE
8
0
10
16
20
31.1204831
11
16
21
34.7359169
0
LINE
8
0
10
16
20
34.7359169
11
16
21
35.8901627
0
LINE
8
0
10
16
20
35.8901627
11
16
21
38.0486807
0
LINE
8
0
10
16
20
38.0486807
11
9.05397822
21
38.0486807
0
LINE
8
0
10
9.05397822
20
38.0486807
11
2.4
21
38.0486807
0
LINE
8
0
10
2.4
20
38.0486807
11
2.4
21
35.8901627
0
LINE
8
0
10
2.4
20
35.8901627
11
2.4
21
34.7359169
0
LINE
8
0
10
2.4
20
34.7359169
11
2.4
21
32.5666566
0
LINE
8
0
10
2.4
20
32.5666566
11
2.4
21
31.1204831
0
LINE
8
0
10
2.4
20
31.1204831
11
2.4
21
28.0970248
0
LINE
8
0
10
2.4
20
28.0970248
11
2.4
21
24.343613
0
LINE
8
0
10
2.4
20
24.343613
11
5.35765366
21
24.343613
0
LINE
8
0
10
5.35765366
20
24.343613
11
16
21
24.343613
0
LINE
8
0
10
16
20
24.343613
11
16
21
24.343613
0
LINE
8
0
10
48.5683323
20
-5.07581107
11
48.62848
21
-5.029936
0
LINE
8
0
10
48.62848
20
-5.029936
11
48.7014766
21
-4.93560218
0
LINE
8
0
10
48.7014766
20
-4.93560218
11
48.74777
21
-4.875777
0
LINE
8
0
10
48.74777
20
-4.875777
11
48.7939887
21
-4.76581828
0
LINE
8
0
10
48.7939887
20
-4.76581828
11
48.8233
21
-4.696084
0
LINE
8
0
10
48.8233
20
-4.696084
11
48.8396262
21
-4.57792731
0
LINE
8
0
10
48.8396262
20
-4.57792731
11
48.84998
21
-4.502994
0
LINE
8
0
10
48.84998
20
-4.502994
11
48.835306
21
-4.3846213
0
LINE
8
0
10
48.835306
20
-4.3846213
11
48.826
21
-4.309551
0
LINE
8
0
10
48.826
20
-4.309551
11
48.7813172
21
-4.1989571
0
LINE
8
0
10
48.7813172
20
-4.1989571
11
48.75298
21
-4.12882
0
LINE
8
0
10
48.75298
20
-4.12882
11
48.6813052
21
-4.03347651
0
LINE
8
0
10
48.6813052
20
-4.03347651
11
48.63585
21
-3.973011
0
LINE
8
0
10
48.63585
20
-3.973011
11
48.5318751
21
-3.86683439
0
LINE
8
0
10
48.5318751
20
-3.86683439
11
48.1
21
-3.425814
0
LINE
8
0
10
48.1
20
-3.425814
11
47.9960251
21
-3.53199061
0
LINE
8
0
10
47.9960251
20
-3.53199061
11
47.56415
21
-3.973011
0
LINE
8
0
10
47.56415
20
-3.973011
11
47.5186948
21
-4.03347651
0
LINE
8
0
10
47.5186948
20
-4.03347651
11
47.44702
21
-4.12882
0
LINE
8
0
10
47.44702
20
-4.12882
11
47.4023372
21
-4.2394139
0
LINE
8
0
10
47.4023372
20
-4.2394139
11
47.374
21
-4.309551
0
LINE
8
0
10
47.374
20
-4.309551
11
47.359326
21
-4.4279237
0
LINE
8
0
10
47.359326
20
-4.4279237
11
47.35002
21
-4.502994
0
LINE
8
0
10
47.35002
20
-4.502994
11
47.3663462
21
-4.62115069
0
LINE
8
0
10
47.3663462
20
-4.62115069
11
47.3767
21
-4.696084
0
LINE
8
0
10
47.3767
20
-4.696084
11
47.4229187
21
-4.80604272
0
LINE
8
0
10
47.4229187
20
-4.80604272
11
47.45223
21
-4.875777
0
LINE
8
0
10
47.45223
20
-4.875777
11
47.5252266
21
-4.97011082
0
LINE
8
0
10
47.5252266
20
-4.97011082
11
47.57152
21
-5.029936
0
LINE
8
0
10
47.57152
20
-5.029936
11
47.6663623
21
-5.10227293
0
LINE
8
0
10
47.6663623
20
-5.10227293
11
47.72651
21
-5.148148
0
LINE
8
0
10
47.72651
20
-5.148148
11
47.8367912
21
-5.19360182
0
LINE
8
0
10
47.8367912
20
-5.19360182
11
47.90673
21
-5.222428
0
LINE
8
0
10
47.90673
20
-5.222428
11
48.0249968
21
-5.23792807
0
LINE
8
0
10
48.0249968
20
-5.23792807
11
48.1
21
-5.247758
0
LINE
8
0
10
48.1
20
-5.247758
11
48.2182668
21
-5.23225793
0
LINE
8
0
10
48.2182668
20
-5.23225793
11
48.29327
21
-5.222428
0
LINE
8
0
10
48.29327
20
-5.222428
11
48.4035512
21
-5.17697418
0
LINE
8
0
10
48.4035512
20
-5.17697418
11
48.47349
21
-5.148148
0
LINE
8
0
10
48.47349
20
-5.148148
11
48.5683323
21
-5.07581107
0
LINE
8
0
10
48.5683323
20
-5.07581107
11
48.5683323
21
-5.07581107
0
ENDSEC
0
EOF
