0
SECTION
2
ENTITIES
0
LINE
8
0
10
15.5521793
20
56.6804267
11
15.5815012
21
56
0
LINE
8
0
10
15.5815012
20
56
11
15.5815012
21
49.9721488
0
LINE
8
0
10
15.5815012
20
49.9721488
11
15.5815012
21
44.54756
0
LINE
8
0
10
15.5815012
20
44.54756
11
15.5815012
21
38.5197088
0
LINE
8
0
10
15.5815012
20
38.5197088
11
15.5815012
21
33.09512
0
LINE
8
0
10
15.5815012
20
33.09512
11
15.5815012
21
27.0672688
0
LINE
8
0
10
15.5815012
20
27.0672688
11
15.5815012
21
21.64268
0
LINE
8
0
10
15.5815012
20
21.64268
11
15.5815012
21
15.6148288
0
LINE
8
0
10
15.5815012
20
15.6148288
11
15.5815012
21
10.19024
0
LINE
8
0
10
15.5815012
20
10.19024
11
15.5815012
21
4.16238935
0
LINE
8
0
10
15.5815012
20
4.16238935
11
15.5815012
21
-1.262199
0
LINE
8
0
10
15.5815012
20
-1.262199
11
15.5363285
21
-2.28278032
0
LINE
8
0
10
15.5363285
20
-2.28278032
11
15.5087713
21
-2.90539239
0
LINE
8
0
10
15.5087713
20
-2.90539239
11
15.41421
21
-3.62069229
0
LINE
8
0
10
15.41421
20
-3.62069229
11
15.1958668
21
-4.59321293
0
LINE
8
0
10
15.1958668
20
-4.59321293
11
15
21
-5.12132359
0
LINE
8
0
10
15
20
-5.12132359
11
14.7600102
21
-5.47061704
0
LINE
8
0
10
14.7600102
20
-5.47061704
11
14.51764
21
-5.82336668
0
LINE
8
0
10
14.51764
20
-5.82336668
11
14.102013
21
-6.01564528
0
LINE
8
0
10
14.102013
20
-6.01564528
11
14
21
-6.06283875
0
LINE
8
0
10
14
20
-6.06283875
11
6.03616303
21
-6.06283875
0
LINE
8
0
10
6.03616303
20
-6.06283875
11
4.4
21
-6.06283875
0
LINE
8
0
10
4.4
20
-6.06283875
11
4.02019949
21
-5.88713355
0
LINE
8
0
10
4.02019949
20
-5.88713355
11
3.882362
21
-5.82336668
0
LINE
8
0
10
3.882362
20
-5.82336668
11
3.63937062
21
-5.46970083
0
LINE
8
0
10
3.63937062
20
-5.46970083
11
3.4
21
-5.12132359
0
LINE
8
0
10
3.4
20
-5.12132359
11
3.32240582
21
-4.91211614
0
LINE
8
0
10
3.32240582
20
-4.91211614
11
3.20413136
21
-4.59321293
0
LINE
8
0
10
3.20413136
20
-4.59321293
11
3.098158
21
-4.12119306
0
LINE
8
0
10
3.098158
20
-4.12119306
11
2.985786
21
-3.62069229
0
LINE
8
0
10
2.985786
20
-3.62069229
11
2.92929881
21
-3.19339095
0
LINE
8
0
10
2.92929881
20
-3.19339095
11
2.89122563
21
-2.90539239
0
LINE
8
0
10
2.89122563
20
-2.90539239
11
2.84912954
21
-1.95431738
0
LINE
8
0
10
2.84912954
20
-1.95431738
11
2.8184964
21
-1.262199
0
LINE
8
0
10
2.8184964
20
-1.262199
11
2.8184964
21
4.76565165
0
LINE
8
0
10
2.8184964
20
4.76565165
11
2.8184964
21
10.19024
0
LINE
8
0
10
2.8184964
20
10.19024
11
2.8184964
21
16.2180912
0
LINE
8
0
10
2.8184964
20
16.2180912
11
2.8184964
21
21.64268
0
LINE
8
0
10
2.8184964
20
21.64268
11
2.8184964
21
27.6705312
0
LINE
8
0
10
2.8184964
20
27.6705312
11
2.8184964
21
33.09512
0
LINE
8
0
10
2.8184964
20
33.09512
11
2.8184964
21
39.1229712
0
LINE
8
0
10
2.8184964
20
39.1229712
11
2.8184964
21
44.54756
0
LINE
8
0
10
2.8184964
20
44.54756
11
2.8184964
21
50.5754112
0
LINE
8
0
10
2.8184964
20
50.5754112
11
2.8184964
21
56
0
LINE
8
0
10
2.8184964
20
56
11
2.86066251
21
56.9785408
0
LINE
8
0
10
2.86066251
20
56.9785408
11
2.88742236
21
57.5995264
0
LINE
8
0
10
2.88742236
20
57.5995264
11
2.985786
21
58.3636109
0
LINE
8
0
10
2.985786
20
58.3636109
11
3.17744122
21
59.2401865
0
LINE
8
0
10
3.17744122
20
59.2401865
11
3.4
21
59.8561058
0
LINE
8
0
10
3.4
20
59.8561058
11
3.69881882
21
60.3025118
0
LINE
8
0
10
3.69881882
20
60.3025118
11
3.882362
21
60.5767053
0
LINE
8
0
10
3.882362
20
60.5767053
11
4.35080001
21
60.7991169
0
LINE
8
0
10
4.35080001
20
60.7991169
11
4.4
21
60.8224774
0
LINE
8
0
10
4.4
20
60.8224774
11
13.217733
21
60.8224774
0
LINE
8
0
10
13.217733
20
60.8224774
11
14
21
60.8224774
0
LINE
8
0
10
14
20
60.8224774
11
14.4177574
21
60.6241305
0
LINE
8
0
10
14.4177574
20
60.6241305
11
14.51764
21
60.5767053
0
LINE
8
0
10
14.51764
20
60.5767053
11
14.7848665
21
60.1774913
0
LINE
8
0
10
14.7848665
20
60.1774913
11
15
21
59.8561058
0
LINE
8
0
10
15
20
59.8561058
11
15.0910591
21
59.6041043
0
LINE
8
0
10
15.0910591
20
59.6041043
11
15.2225566
21
59.2401865
0
LINE
8
0
10
15.2225566
20
59.2401865
11
15.3129696
21
58.8266591
0
LINE
8
0
10
15.3129696
20
58.8266591
11
15.41421
21
58.3636109
0
LINE
8
0
10
15.41421
20
58.3636109
11
15.4742284
21
57.8973946
0
LINE
8
0
10
15.4742284
20
57.8973946
11
15.5125746
21
57.5995264
0
LINE
8
0
10
15.5125746
20
57.5995264
11
15.5521793
21
56.6804267
0
LINE
8
0
10
15.5521793
20
56.6804267
11
15.5521793
21
56.6804267
0
ENDSEC
0
EOF
