0
SECTION
2
ENTITIES
0
LINE
8
0
10
16
20
43.7939547
11
16
21
44.1553419
0
LINE
8
0
10
16
20
44.1553419
11
16
21
44.6225874
0
LINE
8
0
10
16
20
44.6225874
11
16
21
45.1527283
0
LINE
8
0
10
16
20
45.1527283
11
16
21
46.5114959
0
LINE
8
0
10
16
20
46.5114959
11
16
21
47.3470935
0
LINE
8
0
10
16
20
47.3470935
11
16
21
47.5476786
0
LINE
8
0
10
16
20
47.5476786
11
16
21
47.7939628
0
LINE
8
0
10
16
20
47.7939628
11
15.9978403
21
47.8322959
0
LINE
8
0
10
15.9978403
20
47.8322959
11
15.9937634
21
47.8887078
0
LINE
8
0
10
15.9937634
20
47.8887078
11
15.9290859
21
49.0890454
0
LINE
8
0
10
15.9290859
20
49.0890454
11
15.7380204
21
50.2342738
0
LINE
8
0
10
15.7380204
20
50.2342738
11
15.7187436
21
50.3264055
0
LINE
8
0
10
15.7187436
20
50.3264055
11
15.4125863
21
51.3554548
0
LINE
8
0
10
15.4125863
20
51.3554548
11
15.3775472
21
51.446087
0
LINE
8
0
10
15.3775472
20
51.446087
11
15.1866437
21
51.9014421
0
LINE
8
0
10
15.1866437
20
51.9014421
11
14.9724426
21
52.3132665
0
LINE
8
0
10
14.9724426
20
52.3132665
11
14.9674024
21
52.3218724
0
LINE
8
0
10
14.9674024
20
52.3218724
11
14.9160158
21
52.4003152
0
LINE
8
0
10
14.9160158
20
52.4003152
11
14.5067305
21
52.9823032
0
LINE
8
0
10
14.5067305
20
52.9823032
11
14.2301592
21
53.2569183
0
LINE
8
0
10
14.2301592
20
53.2569183
11
14.0683675
21
53.3904245
0
LINE
8
0
10
14.0683675
20
53.3904245
11
13.7804952
21
53.5873439
0
LINE
8
0
10
13.7804952
20
53.5873439
11
13.4984606
21
53.6997912
0
LINE
8
0
10
13.4984606
20
53.6997912
11
13.4249479
21
53.7304021
0
LINE
8
0
10
13.4249479
20
53.7304021
11
13.3427854
21
53.7488849
0
LINE
8
0
10
13.3427854
20
53.7488849
11
13
21
53.7939573
0
LINE
8
0
10
13
20
53.7939573
11
11.9133136
21
53.7939573
0
LINE
8
0
10
11.9133136
20
53.7939573
11
4.4
21
53.7939573
0
LINE
8
0
10
4.4
20
53.7939573
11
4.27060965
21
53.7598906
0
LINE
8
0
10
4.27060965
20
53.7598906
11
3.882362
21
53.6576638
0
LINE
8
0
10
3.882362
20
53.6576638
11
3.76942608
21
53.5641058
0
LINE
8
0
10
3.76942608
20
53.5641058
11
3.4
21
53.2580669
0
LINE
8
0
10
3.4
20
53.2580669
11
3.31751043
21
53.131472
0
LINE
8
0
10
3.31751043
20
53.131472
11
2.985786
21
52.6223968
0
LINE
8
0
10
2.985786
20
52.6223968
11
2.93872585
21
52.4997362
0
LINE
8
0
10
2.93872585
20
52.4997362
11
2.667949
21
51.7939663
0
LINE
8
0
10
2.667949
20
51.7939663
11
2.65108402
21
51.7125348
0
LINE
8
0
10
2.65108402
20
51.7125348
11
2.468148
21
50.8292402
0
LINE
8
0
10
2.468148
20
50.8292402
11
2.45757901
21
50.6686799
0
LINE
8
0
10
2.45757901
20
50.6686799
11
2.43049453
21
50.3113677
0
LINE
8
0
10
2.43049453
20
50.3113677
11
2.4
21
49.9286703
0
LINE
8
0
10
2.4
20
49.9286703
11
2.4
21
49.6185169
0
LINE
8
0
10
2.4
20
49.6185169
11
2.4
21
48.9277522
0
LINE
8
0
10
2.4
20
48.9277522
11
2.4
21
46.8723479
0
LINE
8
0
10
2.4
20
46.8723479
11
2.4
21
46.1167998
0
LINE
8
0
10
2.4
20
46.1167998
11
2.4
21
45.765246
0
LINE
8
0
10
2.4
20
45.765246
11
2.4
21
45.5913359
0
LINE
8
0
10
2.4
20
45.5913359
11
2.4
21
43.7939547
0
LINE
8
0
10
2.4
20
43.7939547
11
8.30525741
21
43.7939547
0
LINE
8
0
10
8.30525741
20
43.7939547
11
16
21
43.7939547
0
LINE
8
0
10
16
20
43.7939547
11
16
21
43.7939547
0
LINE
8
0
10
16
20
20.9792703
11
16
21
22.0624498
0
LINE
8
0
10
16
20
22.0624498
11
11.7930047
21
22.0624498
0
LINE
8
0
10
11.7930047
20
22.0624498
11
2.4
21
22.0624498
0
LINE
8
0
10
2.4
20
22.0624498
11
2.4
21
16.3831856
0
LINE
8
0
10
2.4
20
16.3831856
11
2.4
21
13.7829969
0
LINE
8
0
10
2.4
20
13.7829969
11
2.4
21
13.4364783
0
LINE
8
0
10
2.4
20
13.4364783
11
2.4
21
13.0271514
0
LINE
8
0
10
2.4
20
13.0271514
11
2.4
21
12.602132
0
LINE
8
0
10
2.4
20
12.602132
11
2.4
21
12.2154702
0
LINE
8
0
10
2.4
20
12.2154702
11
2.4
21
10.4361238
0
LINE
8
0
10
2.4
20
10.4361238
11
2.4
21
10.0612593
0
LINE
8
0
10
2.4
20
10.0612593
11
2.4
21
9.73561236
0
LINE
8
0
10
2.4
20
9.73561236
11
2.4
21
9.48939178
0
LINE
8
0
10
2.4
20
9.48939178
11
2.4
21
9.32636909
0
LINE
8
0
10
2.4
20
9.32636909
11
2.4
21
5.68883734
0
LINE
8
0
10
2.4
20
5.68883734
11
6.60699528
21
5.68883734
0
LINE
8
0
10
6.60699528
20
5.68883734
11
16
21
5.68883734
0
LINE
8
0
10
16
20
5.68883734
11
16
21
4.349365
0
LINE
8
0
10
16
20
4.349365
11
16
21
4.29305753
0
LINE
8
0
10
16
20
4.29305753
11
16
21
4
0
LINE
8
0
10
16
20
4
11
14.3086662
21
4
0
LINE
8
0
10
14.3086662
20
4
11
2.4
21
4
0
LINE
8
0
10
2.4
20
4
11
2.4
21
-4.72301848
0
LINE
8
0
10
2.4
20
-4.72301848
11
2.4
21
-12.0292754
0
LINE
8
0
10
2.4
20
-12.0292754
11
2.4
21
-12.1220405
0
LINE
8
0
10
2.4
20
-12.1220405
11
2.4
21
-12.5671251
0
LINE
8
0
10
2.4
20
-12.5671251
11
2.4
21
-13.9948328
0
LINE
8
0
10
2.4
20
-13.9948328
11
2.4
21
-14
0
LINE
8
0
10
2.4
20
-14
11
2.4121258
21
-14.0921054
0
LINE
8
0
10
2.4121258
20
-14.0921054
11
2.42425161
21
-14.1842109
0
LINE
8
0
10
2.42425161
20
-14.1842109
11
2.43334252
21
-14.3356531
0
LINE
8
0
10
2.43334252
20
-14.3356531
11
2.46029633
21
-14.4856317
0
LINE
8
0
10
2.46029633
20
-14.4856317
11
2.56403433
21
-14.7696561
0
LINE
8
0
10
2.56403433
20
-14.7696561
11
2.63068605
21
-14.9305668
0
LINE
8
0
10
2.63068605
20
-14.9305668
11
2.78370348
21
-15.1695808
0
LINE
8
0
10
2.78370348
20
-15.1695808
11
2.8839951
21
-15.3002823
0
LINE
8
0
10
2.8839951
20
-15.3002823
11
3.06635459
21
-15.4884905
0
LINE
8
0
10
3.06635459
20
-15.4884905
11
3.18885217
21
-15.5823974
0
LINE
8
0
10
3.18885217
20
-15.5823974
11
3.40222205
21
-15.7331507
0
LINE
8
0
10
3.40222205
20
-15.7331507
11
3.65118198
21
-15.8479538
0
LINE
8
0
10
3.65118198
20
-15.8479538
11
3.76711895
21
-15.8959115
0
LINE
8
0
10
3.76711895
20
-15.8959115
11
4.02950003
21
-15.9635336
0
LINE
8
0
10
4.02950003
20
-15.9635336
11
4.08866222
21
-15.9736435
0
LINE
8
0
10
4.08866222
20
-15.9736435
11
4.4
21
-16
0
LINE
8
0
10
4.4
20
-16
11
6.29535151
21
-16
0
LINE
8
0
10
6.29535151
20
-16
11
27.4028781
21
-16
0
LINE
8
0
10
27.4028781
20
-16
11
31.7876103
21
-16
0
LINE
8
0
10
31.7876103
20
-16
11
32.6031542
21
-16
0
LINE
8
0
10
32.6031542
20
-16
11
32.7
21
-16
0
LINE
8
0
10
32.7
20
-16
11
33.1741657
21
-15.953296
0
LINE
8
0
10
33.1741657
20
-15.953296
11
33.2014818
21
-15.9487534
0
LINE
8
0
10
33.2014818
20
-15.9487534
11
33.6448183
21
-15.8137365
0
LINE
8
0
10
33.6448183
20
-15.8137365
11
33.6679731
21
-15.8041455
0
LINE
8
0
10
33.6679731
20
-15.8041455
11
34.0001553
21
-15.6261218
0
LINE
8
0
10
34.0001553
20
-15.6261218
11
41.4812258
21
-15.6338722
0
LINE
8
0
10
41.4812258
20
-15.6338722
11
45.65767
21
-15.6265754
0
LINE
8
0
10
45.65767
20
-15.6265754
11
49.6098132
21
-15.6335867
0
LINE
8
0
10
49.6098132
20
-15.6335867
11
57.822503
21
-15.6211053
0
LINE
8
0
10
57.822503
20
-15.6211053
11
58.1503443
21
-15.8516421
0
LINE
8
0
10
58.1503443
20
-15.8516421
11
58.1753028
21
-15.8619802
0
LINE
8
0
10
58.1753028
20
-15.8619802
11
58.5857514
21
-15.9828213
0
LINE
8
0
10
58.5857514
20
-15.9828213
11
58.6410134
21
-15.9887148
0
LINE
8
0
10
58.6410134
20
-15.9887148
11
58.6590089
21
-15.991841
0
LINE
8
0
10
58.6590089
20
-15.991841
11
58.6747344
21
-15.9947179
0
LINE
8
0
10
58.6747344
20
-15.9947179
11
58.67679
21
-15.99493
0
LINE
8
0
10
58.67679
20
-15.99493
11
58.6788617
21
-15.9950579
0
LINE
8
0
10
58.6788617
20
-15.9950579
11
58.73836
21
-15.99873
0
LINE
8
0
10
58.73836
20
-15.99873
11
58.74026
21
-15.9987691
0
LINE
8
0
10
58.74026
20
-15.9987691
11
58.8
21
-16
0
LINE
8
0
10
58.8
20
-16
11
63.0808307
21
-16
0
LINE
8
0
10
63.0808307
20
-16
11
69.3370731
21
-16
0
LINE
8
0
10
69.3370731
20
-16
11
69.3917504
21
-16
0
LINE
8
0
10
69.3917504
20
-16
11
69.3982459
21
-16
0
LINE
8
0
10
69.3982459
20
-16
11
69.7808254
21
-15.9506665
0
LINE
8
0
10
69.7808254
20
-15.9506665
11
70.0516935
21
-15.91481
0
LINE
8
0
10
70.0516935
20
-15.91481
11
70.6519476
21
-15.6707002
0
LINE
8
0
10
70.6519476
20
-15.6707002
11
70.6658167
21
-15.66506
0
LINE
8
0
10
70.6658167
20
-15.66506
11
70.8359339
21
-15.5368989
0
LINE
8
0
10
70.8359339
20
-15.5368989
11
71.18667
21
-15.26777
0
LINE
8
0
10
71.18667
20
-15.26777
11
71.2017058
21
-15.2481746
0
LINE
8
0
10
71.2017058
20
-15.2481746
11
71.5839725
21
-14.75
0
LINE
8
0
10
71.5839725
20
-14.75
11
71.6033024
21
-14.7033333
0
LINE
8
0
10
71.6033024
20
-14.7033333
11
71.8337237
21
-14.14705
0
LINE
8
0
10
71.8337237
20
-14.14705
11
71.8662351
21
-13.9475865
0
LINE
8
0
10
71.8662351
20
-13.9475865
11
71.918638
21
-13.5
0
LINE
8
0
10
71.918638
20
-13.5
11
71.9240075
21
-3.88735055
0
LINE
8
0
10
71.9240075
20
-3.88735055
11
71.9143307
21
6.02289353
0
LINE
8
0
10
71.9143307
20
6.02289353
11
71.9218424
21
9.4340866
0
LINE
8
0
10
71.9218424
20
9.4340866
11
71.9218424
21
19.5724131
0
LINE
8
0
10
71.9218424
20
19.5724131
11
69.6620855
21
19.5724098
0
LINE
8
0
10
69.6620855
20
19.5724098
11
66.8366899
21
19.5724033
0
LINE
8
0
10
66.8366899
20
19.5724033
11
60.8880308
21
19.5724053
0
LINE
8
0
10
60.8880308
20
19.5724053
11
51.7761524
21
19.5724053
0
LINE
8
0
10
51.7761524
20
19.5724053
11
33.0799456
21
19.5724053
0
LINE
8
0
10
33.0799456
20
19.5724053
11
30.4094728
21
19.5724048
0
LINE
8
0
10
30.4094728
20
19.5724048
11
28.0349701
21
19.5724051
0
LINE
8
0
10
28.0349701
20
19.5724051
11
16
21
19.572408
0
LINE
8
0
10
16
20
19.572408
11
16
21
19.6828186
0
LINE
8
0
10
16
20
19.6828186
11
16
21
20.0773356
0
LINE
8
0
10
16
20
20.0773356
11
16
21
20.9792703
0
LINE
8
0
10
16
20
20.9792703
11
16
21
20.9792703
0
LINE
8
0
10
16
20
30.7227033
11
16
21
35.1336967
0
LINE
8
0
10
16
20
35.1336967
11
16
21
36.0107508
0
LINE
8
0
10
16
20
36.0107508
11
16
21
37.6509014
0
LINE
8
0
10
16
20
37.6509014
11
7.45602773
21
37.6509014
0
LINE
8
0
10
7.45602773
20
37.6509014
11
2.4
21
37.6509014
0
LINE
8
0
10
2.4
20
37.6509014
11
2.4
21
36.0107508
0
LINE
8
0
10
2.4
20
36.0107508
11
2.4
21
35.1336967
0
LINE
8
0
10
2.4
20
35.1336967
11
2.4
21
32.4871007
0
LINE
8
0
10
2.4
20
32.4871007
11
2.4
21
30.7227033
0
LINE
8
0
10
2.4
20
30.7227033
11
2.4
21
28.0541792
0
LINE
8
0
10
2.4
20
28.0541792
11
2.4
21
24.7413933
0
LINE
8
0
10
2.4
20
24.7413933
11
6.60699528
21
24.7413933
0
LINE
8
0
10
6.60699528
20
24.7413933
11
16
21
24.7413933
0
LINE
8
0
10
16
20
24.7413933
11
16
21
30.7227033
0
LINE
8
0
10
16
20
30.7227033
11
16
21
30.7227033
0
LINE
8
0
10
48.8371753
20
-4.59566521
11
48.84998
21
-4.502994
0
LINE
8
0
10
48.84998
20
-4.502994
11
48.8375089
21
-4.40239162
0
LINE
8
0
10
48.8375089
20
-4.40239162
11
48.826
21
-4.309551
0
LINE
8
0
10
48.826
20
-4.309551
11
48.7880251
21
-4.21555965
0
LINE
8
0
10
48.7880251
20
-4.21555965
11
48.75298
21
-4.12882
0
LINE
8
0
10
48.75298
20
-4.12882
11
48.6920651
21
-4.04778964
0
LINE
8
0
10
48.6920651
20
-4.04778964
11
48.63585
21
-3.973011
0
LINE
8
0
10
48.63585
20
-3.973011
11
48.5072626
21
-3.84170071
0
LINE
8
0
10
48.5072626
20
-3.84170071
11
48.1
21
-3.425814
0
LINE
8
0
10
48.1
20
-3.425814
11
47.9714126
21
-3.55712429
0
LINE
8
0
10
47.9714126
20
-3.55712429
11
47.56415
21
-3.973011
0
LINE
8
0
10
47.56415
20
-3.973011
11
47.5079349
21
-4.04778964
0
LINE
8
0
10
47.5079349
20
-4.04778964
11
47.44702
21
-4.12882
0
LINE
8
0
10
47.44702
20
-4.12882
11
47.4090451
21
-4.22281135
0
LINE
8
0
10
47.4090451
20
-4.22281135
11
47.374
21
-4.309551
0
LINE
8
0
10
47.374
20
-4.309551
11
47.3615289
21
-4.41015338
0
LINE
8
0
10
47.3615289
20
-4.41015338
11
47.35002
21
-4.502994
0
LINE
8
0
10
47.35002
20
-4.502994
11
47.3638953
21
-4.60341279
0
LINE
8
0
10
47.3638953
20
-4.60341279
11
47.3767
21
-4.696084
0
LINE
8
0
10
47.3767
20
-4.696084
11
47.4159803
21
-4.78953552
0
LINE
8
0
10
47.4159803
20
-4.78953552
11
47.45223
21
-4.875777
0
LINE
8
0
10
47.45223
20
-4.875777
11
47.5142682
21
-4.95594926
0
LINE
8
0
10
47.5142682
20
-4.95594926
11
47.57152
21
-5.029936
0
LINE
8
0
10
47.57152
20
-5.029936
11
47.6521244
21
-5.09141358
0
LINE
8
0
10
47.6521244
20
-5.09141358
11
47.72651
21
-5.148148
0
LINE
8
0
10
47.72651
20
-5.148148
11
47.8202356
21
-5.18677821
0
LINE
8
0
10
47.8202356
20
-5.18677821
11
47.90673
21
-5.222428
0
LINE
8
0
10
47.90673
20
-5.222428
11
48.0072424
21
-5.23560117
0
LINE
8
0
10
48.0072424
20
-5.23560117
11
48.1
21
-5.247758
0
LINE
8
0
10
48.1
20
-5.247758
11
48.2005124
21
-5.23458483
0
LINE
8
0
10
48.2005124
20
-5.23458483
11
48.29327
21
-5.222428
0
LINE
8
0
10
48.29327
20
-5.222428
11
48.3869956
21
-5.18379779
0
LINE
8
0
10
48.3869956
20
-5.18379779
11
48.47349
21
-5.148148
0
LINE
8
0
10
48.47349
20
-5.148148
11
48.5540944
21
-5.08667042
0
LINE
8
0
10
48.5540944
20
-5.08667042
11
48.62848
21
-5.029936
0
LINE
8
0
10
48.62848
20
-5.029936
11
48.6905182
21
-4.94976374
0
LINE
8
0
10
48.6905182
20
-4.94976374
11
48.74777
21
-4.875777
0
LINE
8
0
10
48.74777
20
-4.875777
11
48.7870503
21
-4.78232548
0
LINE
8
0
10
48.7870503
20
-4.78232548
11
48.8233
21
-4.696084
0
LINE
8
0
10
48.8233
20
-4.696084
11
48.8371753
21
-4.59566521
0
LINE
8
0
10
48.8371753
20
-4.59566521
11
48.8371753
21
-4.59566521
0
ENDSEC
0
EOF
