0
SECTION
2
ENTITIES
0
LINE
8
0
10
61.8521584
20
-16
11
69.3058878
21
-16
0
LINE
8
0
10
69.3058878
20
-16
11
69.3589574
21
-16
0
LINE
8
0
10
69.3589574
20
-16
11
69.4285391
21
-15.9910606
0
LINE
8
0
10
69.4285391
20
-15.9910606
11
70.0045524
21
-15.91481
0
LINE
8
0
10
70.0045524
20
-15.91481
11
70.4630849
21
-15.7283352
0
LINE
8
0
10
70.4630849
20
-15.7283352
11
70.6186755
21
-15.66506
0
LINE
8
0
10
70.6186755
20
-15.66506
11
71.0574478
21
-15.3345024
0
LINE
8
0
10
71.0574478
20
-15.3345024
11
71.1460279
21
-15.26777
0
LINE
8
0
10
71.1460279
20
-15.26777
11
71.5061076
21
-14.807045
0
LINE
8
0
10
71.5061076
20
-14.807045
11
71.5506904
21
-14.75
0
LINE
8
0
10
71.5506904
20
-14.75
11
71.785551
21
-14.193314
0
LINE
8
0
10
71.785551
20
-14.193314
11
71.8050694
21
-14.14705
0
LINE
8
0
10
71.8050694
20
-14.14705
11
71.8275532
21
-14.0116129
0
LINE
8
0
10
71.8275532
20
-14.0116129
11
71.8874522
21
-13.5
0
LINE
8
0
10
71.8874522
20
-13.5
11
71.8969148
21
3.44002252
0
LINE
8
0
10
71.8969148
20
3.44002252
11
71.8963514
21
4.0169823
0
LINE
8
0
10
71.8963514
20
4.0169823
11
71.8967888
21
4.21557693
0
LINE
8
0
10
71.8967888
20
4.21557693
11
71.8967888
21
19.2444254
0
LINE
8
0
10
71.8967888
20
19.2444254
11
71.765229
21
19.2444252
0
LINE
8
0
10
71.765229
20
19.2444252
11
68.0202832
21
19.2444167
0
LINE
8
0
10
68.0202832
20
19.2444167
11
60.1355798
21
19.2444193
0
LINE
8
0
10
60.1355798
20
19.2444193
11
48.058159
21
19.2444193
0
LINE
8
0
10
48.058159
20
19.2444193
11
34.4078004
21
19.2444193
0
LINE
8
0
10
34.4078004
20
19.2444193
11
30.8681983
21
19.2444186
0
LINE
8
0
10
30.8681983
20
19.2444186
11
27.7208925
21
19.2444191
0
LINE
8
0
10
27.7208925
20
19.2444191
11
16
21
19.2444219
0
LINE
8
0
10
16
20
19.2444219
11
16
21
19.3606618
0
LINE
8
0
10
16
20
19.3606618
11
16
21
19.7760081
0
LINE
8
0
10
16
20
19.7760081
11
16
21
20.7255621
0
LINE
8
0
10
16
20
20.7255621
11
16
21
21.6646705
0
LINE
8
0
10
16
20
21.6646705
11
10.5436631
21
21.6646705
0
LINE
8
0
10
10.5436631
20
21.6646705
11
2.4
21
21.6646705
0
LINE
8
0
10
2.4
20
21.6646705
11
2.4
21
16.740792
0
LINE
8
0
10
2.4
20
16.740792
11
2.4
21
13.7874982
0
LINE
8
0
10
2.4
20
13.7874982
11
2.4
21
13.4578163
0
LINE
8
0
10
2.4
20
13.4578163
11
2.4
21
13.0683777
0
LINE
8
0
10
2.4
20
13.0683777
11
2.4
21
12.6640091
0
LINE
8
0
10
2.4
20
12.6640091
11
2.4
21
12.2961344
0
LINE
8
0
10
2.4
20
12.2961344
11
2.4
21
10.2024783
0
LINE
8
0
10
2.4
20
10.2024783
11
2.4
21
9.87747368
0
LINE
8
0
10
2.4
20
9.87747368
11
2.4
21
9.59514026
0
LINE
8
0
10
2.4
20
9.59514026
11
2.4
21
9.3816689
0
LINE
8
0
10
2.4
20
9.3816689
11
2.4
21
9.24032948
0
LINE
8
0
10
2.4
20
9.24032948
11
2.4
21
6.08661733
0
LINE
8
0
10
2.4
20
6.08661733
11
7.85633689
21
6.08661733
0
LINE
8
0
10
7.85633689
20
6.08661733
11
16
21
6.08661733
0
LINE
8
0
10
16
20
6.08661733
11
16
21
4.349365
0
LINE
8
0
10
16
20
4.349365
11
16
21
4.27633603
0
LINE
8
0
10
16
20
4.27633603
11
16
21
4
0
LINE
8
0
10
16
20
4
11
13.6291724
21
4
0
LINE
8
0
10
13.6291724
20
4
11
2.4
21
4
0
LINE
8
0
10
2.4
20
4
11
2.4
21
-4.22529387
0
LINE
8
0
10
2.4
20
-4.22529387
11
2.4
21
-11.9458736
0
LINE
8
0
10
2.4
20
-11.9458736
11
2.4
21
-12.0438992
0
LINE
8
0
10
2.4
20
-12.0438992
11
2.4
21
-12.4848435
0
LINE
8
0
10
2.4
20
-12.4848435
11
2.4
21
-13.9945361
0
LINE
8
0
10
2.4
20
-13.9945361
11
2.4
21
-14
0
LINE
8
0
10
2.4
20
-14
11
2.41282212
21
-14.0973945
0
LINE
8
0
10
2.41282212
20
-14.0973945
11
2.42564424
21
-14.1947891
0
LINE
8
0
10
2.42564424
20
-14.1947891
11
2.43444674
21
-14.3414267
0
LINE
8
0
10
2.43444674
20
-14.3414267
11
2.46054543
21
-14.4866471
0
LINE
8
0
10
2.46054543
20
-14.4866471
11
2.56099231
21
-14.7616608
0
LINE
8
0
10
2.56099231
20
-14.7616608
11
2.63186823
21
-14.9327696
0
LINE
8
0
10
2.63186823
20
-14.9327696
11
2.78003113
21
-15.1642008
0
LINE
8
0
10
2.78003113
20
-15.1642008
11
2.88722445
21
-15.3038967
0
LINE
8
0
10
2.88722445
20
-15.3038967
11
3.06379852
21
-15.4861339
0
LINE
8
0
10
3.06379852
20
-15.4861339
11
3.19560234
21
-15.587175
0
LINE
8
0
10
3.19560234
20
-15.587175
11
3.40220298
21
-15.7331456
0
LINE
8
0
10
3.40220298
20
-15.7331456
11
3.64326457
21
-15.8443065
0
LINE
8
0
10
3.64326457
20
-15.8443065
11
3.77077508
21
-15.8970516
0
LINE
8
0
10
3.77077508
20
-15.8970516
11
4.02483203
21
-15.9625285
0
LINE
8
0
10
4.02483203
20
-15.9625285
11
4.09106841
21
-15.9738472
0
LINE
8
0
10
4.09106841
20
-15.9738472
11
4.4
21
-16
0
LINE
8
0
10
4.4
20
-16
11
6.57620762
21
-16
0
LINE
8
0
10
6.57620762
20
-16
11
26.9143055
21
-16
0
LINE
8
0
10
26.9143055
20
-16
11
31.9487741
21
-16
0
LINE
8
0
10
31.9487741
20
-16
11
32.6202609
21
-16
0
LINE
8
0
10
32.6202609
20
-16
11
32.7
21
-16
0
LINE
8
0
10
32.7
20
-16
11
33.1780001
21
-15.9529184
0
LINE
8
0
10
33.1780001
20
-15.9529184
11
33.1975944
21
-15.9496598
0
LINE
8
0
10
33.1975944
20
-15.9496598
11
33.6527701
21
-15.8110373
0
LINE
8
0
10
33.6527701
20
-15.8110373
11
33.6604416
21
-15.8078597
0
LINE
8
0
10
33.6604416
20
-15.8078597
11
33.7704969
21
-15.7488787
0
LINE
8
0
10
33.7704969
20
-15.7488787
11
38.3126886
21
-15.7535844
0
LINE
8
0
10
38.3126886
20
-15.7535844
11
45.65767
21
-15.7394126
0
LINE
8
0
10
45.65767
20
-15.7394126
11
51.0965467
21
-15.747939
0
LINE
8
0
10
51.0965467
20
-15.747939
11
57.9889139
21
-15.7374642
0
LINE
8
0
10
57.9889139
20
-15.7374642
11
58.1540349
21
-15.8535768
0
LINE
8
0
10
58.1540349
20
-15.8535768
11
58.1666055
21
-15.8587837
0
LINE
8
0
10
58.1666055
20
-15.8587837
11
58.5921504
21
-15.9840693
0
LINE
8
0
10
58.5921504
20
-15.9840693
11
58.6494449
21
-15.9901795
0
LINE
8
0
10
58.6494449
20
-15.9901795
11
58.6631994
21
-15.992569
0
LINE
8
0
10
58.6631994
20
-15.992569
11
58.6752188
21
-15.9947679
0
LINE
8
0
10
58.6752188
20
-15.9947679
11
58.67679
21
-15.99493
0
LINE
8
0
10
58.67679
20
-15.99493
11
58.6783734
21
-15.9950277
0
LINE
8
0
10
58.6783734
20
-15.9950277
11
58.73836
21
-15.99873
0
LINE
8
0
10
58.73836
20
-15.99873
11
58.7397682
21
-15.998759
0
LINE
8
0
10
58.7397682
20
-15.998759
11
58.8
21
-16
0
LINE
8
0
10
58.8
20
-16
11
61.8521584
21
-16
0
LINE
8
0
10
61.8521584
20
-16
11
61.8521584
21
-16
0
LINE
8
0
10
16
20
37.2531222
11
16
21
36.1313389
0
LINE
8
0
10
16
20
36.1313389
11
16
21
35.5314765
0
LINE
8
0
10
16
20
35.5314765
11
16
21
30.3249235
0
LINE
8
0
10
16
20
30.3249235
11
16
21
25.1391735
0
LINE
8
0
10
16
20
25.1391735
11
7.85633689
21
25.1391735
0
LINE
8
0
10
7.85633689
20
25.1391735
11
2.4
21
25.1391735
0
LINE
8
0
10
2.4
20
25.1391735
11
2.4
21
28.0113335
0
LINE
8
0
10
2.4
20
28.0113335
11
2.4
21
30.3249235
0
LINE
8
0
10
2.4
20
30.3249235
11
2.4
21
32.4075447
0
LINE
8
0
10
2.4
20
32.4075447
11
2.4
21
35.5314765
0
LINE
8
0
10
2.4
20
35.5314765
11
2.4
21
36.1313389
0
LINE
8
0
10
2.4
20
36.1313389
11
2.4
21
37.2531222
0
LINE
8
0
10
2.4
20
37.2531222
11
5.85807724
21
37.2531222
0
LINE
8
0
10
5.85807724
20
37.2531222
11
16
21
37.2531222
0
LINE
8
0
10
16
20
37.2531222
11
16
21
37.2531222
0
LINE
8
0
10
16
20
47.7805207
11
16
21
47.4456027
0
LINE
8
0
10
16
20
47.4456027
11
16
21
46.0504012
0
LINE
8
0
10
16
20
46.0504012
11
16
21
45.1210703
0
LINE
8
0
10
16
20
45.1210703
11
16
21
44.7584796
0
LINE
8
0
10
16
20
44.7584796
11
16
21
44.4389064
0
LINE
8
0
10
16
20
44.4389064
11
16
21
44.1917352
0
LINE
8
0
10
16
20
44.1917352
11
10.73717
21
44.1917352
0
LINE
8
0
10
10.73717
20
44.1917352
11
2.4
21
44.1917352
0
LINE
8
0
10
2.4
20
44.1917352
11
2.4
21
45.4210566
0
LINE
8
0
10
2.4
20
45.4210566
11
2.4
21
45.5400026
0
LINE
8
0
10
2.4
20
45.5400026
11
2.4
21
45.7804483
0
LINE
8
0
10
2.4
20
45.7804483
11
2.4
21
46.2972064
0
LINE
8
0
10
2.4
20
46.2972064
11
2.4
21
48.893127
0
LINE
8
0
10
2.4
20
48.893127
11
2.4
21
49.5257107
0
LINE
8
0
10
2.4
20
49.5257107
11
2.4
21
50.2447704
0
LINE
8
0
10
2.4
20
50.2447704
11
2.41200465
21
50.3954252
0
LINE
8
0
10
2.41200465
20
50.3954252
11
2.42266688
21
50.5360868
0
LINE
8
0
10
2.42266688
20
50.5360868
11
2.468148
21
51.2270197
0
LINE
8
0
10
2.468148
20
51.2270197
11
2.64313519
21
52.0719339
0
LINE
8
0
10
2.64313519
20
52.0719339
11
2.667949
21
52.1917458
0
LINE
8
0
10
2.667949
20
52.1917458
11
2.92595049
21
52.8642173
0
LINE
8
0
10
2.92595049
20
52.8642173
11
2.985786
21
53.0201763
0
LINE
8
0
10
2.985786
20
53.0201763
11
3.3006144
21
53.5033223
0
LINE
8
0
10
3.3006144
20
53.5033223
11
3.4
21
53.6558471
0
LINE
8
0
10
3.4
20
53.6558471
11
3.74938638
21
53.9452848
0
LINE
8
0
10
3.74938638
20
53.9452848
11
3.882362
21
54.0554441
0
LINE
8
0
10
3.882362
20
54.0554441
11
4.24865154
21
54.1518893
0
LINE
8
0
10
4.24865154
20
54.1518893
11
4.4
21
54.1917372
0
LINE
8
0
10
4.4
20
54.1917372
11
11.7288981
21
54.1917372
0
LINE
8
0
10
11.7288981
20
54.1917372
11
13
21
54.1917372
0
LINE
8
0
10
13
20
54.1917372
11
13.3343717
21
54.1477711
0
LINE
8
0
10
13.3343717
20
54.1477711
11
13.4308571
21
54.1260663
0
LINE
8
0
10
13.4308571
20
54.1260663
11
13.517185
21
54.0901192
0
LINE
8
0
10
13.517185
20
54.0901192
11
13.7803975
21
53.9851762
0
LINE
8
0
10
13.7803975
20
53.9851762
11
14.049058
21
53.8013987
0
LINE
8
0
10
14.049058
20
53.8013987
11
14.2469073
21
53.6381386
0
LINE
8
0
10
14.2469073
20
53.6381386
11
14.5063127
21
53.380568
0
LINE
8
0
10
14.5063127
20
53.380568
11
14.8901952
21
52.8347019
0
LINE
8
0
10
14.8901952
20
52.8347019
11
14.9759966
21
52.7037241
0
LINE
8
0
10
14.9759966
20
52.7037241
11
14.9807553
21
52.6955988
0
LINE
8
0
10
14.9807553
20
52.6955988
11
15.1829963
21
52.3067691
0
LINE
8
0
10
15.1829963
20
52.3067691
11
15.3632405
21
51.8768393
0
LINE
8
0
10
15.3632405
20
51.8768393
11
15.4217453
21
51.7255102
0
LINE
8
0
10
15.4217453
20
51.7255102
11
15.7127856
21
50.7472719
0
LINE
8
0
10
15.7127856
20
50.7472719
11
15.7449723
21
50.5934391
0
LINE
8
0
10
15.7449723
20
50.5934391
11
15.9277236
21
49.4980446
0
LINE
8
0
10
15.9277236
20
49.4980446
11
15.9895868
21
48.3499388
0
LINE
8
0
10
15.9895868
20
48.3499388
11
15.996394
21
48.2557476
0
LINE
8
0
10
15.996394
20
48.2557476
11
16
21
48.1917427
0
LINE
8
0
10
16
20
48.1917427
11
16
21
47.7805207
0
LINE
8
0
10
16
20
47.7805207
11
16
21
47.7805207
0
LINE
8
0
10
48.8397118
20
-4.42016195
11
48.84998
21
-4.502994
0
LINE
8
0
10
48.84998
20
-4.502994
11
48.8347243
21
-4.6134031
0
LINE
8
0
10
48.8347243
20
-4.6134031
11
48.8233
21
-4.696084
0
LINE
8
0
10
48.8233
20
-4.696084
11
48.7801119
21
-4.79883268
0
LINE
8
0
10
48.7801119
20
-4.79883268
11
48.74777
21
-4.875777
0
LINE
8
0
10
48.74777
20
-4.875777
11
48.6795598
21
-4.96392531
0
LINE
8
0
10
48.6795598
20
-4.96392531
11
48.62848
21
-5.029936
0
LINE
8
0
10
48.62848
20
-5.029936
11
48.5398565
21
-5.09752977
0
LINE
8
0
10
48.5398565
20
-5.09752977
11
48.47349
21
-5.148148
0
LINE
8
0
10
48.47349
20
-5.148148
11
48.37044
21
-5.1906214
0
LINE
8
0
10
48.37044
20
-5.1906214
11
48.29327
21
-5.222428
0
LINE
8
0
10
48.29327
20
-5.222428
11
48.182758
21
-5.23691173
0
LINE
8
0
10
48.182758
20
-5.23691173
11
48.1
21
-5.247758
0
LINE
8
0
10
48.1
20
-5.247758
11
47.989488
21
-5.23327427
0
LINE
8
0
10
47.989488
20
-5.23327427
11
47.90673
21
-5.222428
0
LINE
8
0
10
47.90673
20
-5.222428
11
47.80368
21
-5.1799546
0
LINE
8
0
10
47.80368
20
-5.1799546
11
47.72651
21
-5.148148
0
LINE
8
0
10
47.72651
20
-5.148148
11
47.6378865
21
-5.08055423
0
LINE
8
0
10
47.6378865
20
-5.08055423
11
47.57152
21
-5.029936
0
LINE
8
0
10
47.57152
20
-5.029936
11
47.5033098
21
-4.94178769
0
LINE
8
0
10
47.5033098
20
-4.94178769
11
47.45223
21
-4.875777
0
LINE
8
0
10
47.45223
20
-4.875777
11
47.4090419
21
-4.77302832
0
LINE
8
0
10
47.4090419
20
-4.77302832
11
47.3767
21
-4.696084
0
LINE
8
0
10
47.3767
20
-4.696084
11
47.3614443
21
-4.5856749
0
LINE
8
0
10
47.3614443
20
-4.5856749
11
47.35002
21
-4.502994
0
LINE
8
0
10
47.35002
20
-4.502994
11
47.3637318
21
-4.39238305
0
LINE
8
0
10
47.3637318
20
-4.39238305
11
47.374
21
-4.309551
0
LINE
8
0
10
47.374
20
-4.309551
11
47.4157529
21
-4.20620879
0
LINE
8
0
10
47.4157529
20
-4.20620879
11
47.44702
21
-4.12882
0
LINE
8
0
10
47.44702
20
-4.12882
11
47.4971749
21
-4.06210278
0
LINE
8
0
10
47.4971749
20
-4.06210278
11
47.56415
21
-3.973011
0
LINE
8
0
10
47.56415
20
-3.973011
11
47.9468002
21
-3.58225796
0
LINE
8
0
10
47.9468002
20
-3.58225796
11
48.1
21
-3.425814
0
LINE
8
0
10
48.1
20
-3.425814
11
48.4826502
21
-3.81656704
0
LINE
8
0
10
48.4826502
20
-3.81656704
11
48.63585
21
-3.973011
0
LINE
8
0
10
48.63585
20
-3.973011
11
48.7028251
21
-4.06210278
0
LINE
8
0
10
48.7028251
20
-4.06210278
11
48.75298
21
-4.12882
0
LINE
8
0
10
48.75298
20
-4.12882
11
48.7947329
21
-4.23216221
0
LINE
8
0
10
48.7947329
20
-4.23216221
11
48.826
21
-4.309551
0
LINE
8
0
10
48.826
20
-4.309551
11
48.8397118
21
-4.42016195
0
LINE
8
0
10
48.8397118
20
-4.42016195
11
48.8397118
21
-4.42016195
0
ENDSEC
0
EOF
