0
SECTION
2
ENTITIES
0
LINE
8
0
10
16
20
45.0894122
11
16
21
45.5893066
0
LINE
8
0
10
16
20
45.5893066
11
16
21
47.544112
0
LINE
8
0
10
16
20
47.544112
11
16
21
48.0133628
0
LINE
8
0
10
16
20
48.0133628
11
16
21
48.5895226
0
LINE
8
0
10
16
20
48.5895226
11
15.9949477
21
48.6791993
0
LINE
8
0
10
15.9949477
20
48.6791993
11
15.9854101
21
48.8111699
0
LINE
8
0
10
15.9854101
20
48.8111699
11
15.9263614
21
49.9070438
0
LINE
8
0
10
15.9263614
20
49.9070438
11
15.7519241
21
50.9526044
0
LINE
8
0
10
15.7519241
20
50.9526044
11
15.7068277
21
51.1681383
0
LINE
8
0
10
15.7068277
20
51.1681383
11
15.4309044
21
52.0955656
0
LINE
8
0
10
15.4309044
20
52.0955656
11
15.3489337
21
52.3075915
0
LINE
8
0
10
15.3489337
20
52.3075915
11
15.1793488
21
52.712096
0
LINE
8
0
10
15.1793488
20
52.712096
11
14.989068
21
53.077931
0
LINE
8
0
10
14.989068
20
53.077931
11
14.9845907
21
53.0855759
0
LINE
8
0
10
14.9845907
20
53.0855759
11
14.8643745
21
53.2690887
0
LINE
8
0
10
14.8643745
20
53.2690887
11
14.505895
21
53.7788327
0
LINE
8
0
10
14.505895
20
53.7788327
11
14.2636554
21
54.019359
0
LINE
8
0
10
14.2636554
20
54.019359
11
14.0297485
21
54.2123728
0
LINE
8
0
10
14.0297485
20
54.2123728
11
13.7802997
21
54.3830086
0
LINE
8
0
10
13.7802997
20
54.3830086
11
13.5359093
21
54.4804471
0
LINE
8
0
10
13.5359093
20
54.4804471
11
13.4367664
21
54.5217305
0
LINE
8
0
10
13.4367664
20
54.5217305
11
13.325958
21
54.5466574
0
LINE
8
0
10
13.325958
20
54.5466574
11
13
21
54.5895171
0
LINE
8
0
10
13
20
54.5895171
11
11.5444826
21
54.5895171
0
LINE
8
0
10
11.5444826
20
54.5895171
11
4.4
21
54.5895171
0
LINE
8
0
10
4.4
20
54.5895171
11
4.22669342
21
54.5438879
0
LINE
8
0
10
4.22669342
20
54.5438879
11
3.882362
21
54.4532244
0
LINE
8
0
10
3.882362
20
54.4532244
11
3.72934667
21
54.3264638
0
LINE
8
0
10
3.72934667
20
54.3264638
11
3.4
21
54.0536274
0
LINE
8
0
10
3.4
20
54.0536274
11
3.28371836
21
53.8751727
0
LINE
8
0
10
3.28371836
20
53.8751727
11
2.985786
21
53.4179559
0
LINE
8
0
10
2.985786
20
53.4179559
11
2.91317513
21
53.2286983
0
LINE
8
0
10
2.91317513
20
53.2286983
11
2.667949
21
52.5895253
0
LINE
8
0
10
2.667949
20
52.5895253
11
2.63518636
21
52.431333
0
LINE
8
0
10
2.63518636
20
52.431333
11
2.468148
21
51.6247993
0
LINE
8
0
10
2.468148
20
51.6247993
11
2.40111877
21
50.6065151
0
LINE
8
0
10
2.40111877
20
50.6065151
11
2.4
21
50.5895192
0
LINE
8
0
10
2.4
20
50.5895192
11
2.4
21
50.4898245
0
LINE
8
0
10
2.4
20
50.4898245
11
2.4
21
50.3836709
0
LINE
8
0
10
2.4
20
50.3836709
11
2.4
21
49.4329044
0
LINE
8
0
10
2.4
20
49.4329044
11
2.4
21
48.8585019
0
LINE
8
0
10
2.4
20
48.8585019
11
2.4
21
45.722065
0
LINE
8
0
10
2.4
20
45.722065
11
2.4
21
45.4440968
0
LINE
8
0
10
2.4
20
45.4440968
11
2.4
21
45.3147592
0
LINE
8
0
10
2.4
20
45.3147592
11
2.4
21
45.2507772
0
LINE
8
0
10
2.4
20
45.2507772
11
2.4
21
44.5895156
0
LINE
8
0
10
2.4
20
44.5895156
11
13.1690827
21
44.5895156
0
LINE
8
0
10
13.1690827
20
44.5895156
11
16
21
44.5895156
0
LINE
8
0
10
16
20
44.5895156
11
16
21
44.722471
0
LINE
8
0
10
16
20
44.722471
11
16
21
44.8943719
0
LINE
8
0
10
16
20
44.8943719
11
16
21
45.0894122
0
LINE
8
0
10
16
20
45.0894122
11
16
21
45.0894122
0
LINE
8
0
10
16
20
18.9164357
11
16
21
19.0385049
0
LINE
8
0
10
16
20
19.0385049
11
16
21
19.4746806
0
LINE
8
0
10
16
20
19.4746806
11
16
21
20.471854
0
LINE
8
0
10
16
20
20.471854
11
16
21
21.2668911
0
LINE
8
0
10
16
20
21.2668911
11
9.29432149
21
21.2668911
0
LINE
8
0
10
9.29432149
20
21.2668911
11
2.4
21
21.2668911
0
LINE
8
0
10
2.4
20
21.2668911
11
2.4
21
17.0983983
0
LINE
8
0
10
2.4
20
17.0983983
11
2.4
21
13.7919996
0
LINE
8
0
10
2.4
20
13.7919996
11
2.4
21
13.4791543
0
LINE
8
0
10
2.4
20
13.4791543
11
2.4
21
13.109604
0
LINE
8
0
10
2.4
20
13.109604
11
2.4
21
12.7258862
0
LINE
8
0
10
2.4
20
12.7258862
11
2.4
21
12.3767986
0
LINE
8
0
10
2.4
20
12.3767986
11
2.4
21
9.9688328
0
LINE
8
0
10
2.4
20
9.9688328
11
2.4
21
9.69368803
0
LINE
8
0
10
2.4
20
9.69368803
11
2.4
21
9.45466816
0
LINE
8
0
10
2.4
20
9.45466816
11
2.4
21
9.27394602
0
LINE
8
0
10
2.4
20
9.27394602
11
2.4
21
9.15428987
0
LINE
8
0
10
2.4
20
9.15428987
11
2.4
21
6.48439732
0
LINE
8
0
10
2.4
20
6.48439732
11
9.10567851
21
6.48439732
0
LINE
8
0
10
9.10567851
20
6.48439732
11
16
21
6.48439732
0
LINE
8
0
10
16
20
6.48439732
11
16
21
4.349365
0
LINE
8
0
10
16
20
4.349365
11
16
21
4.25961453
0
LINE
8
0
10
16
20
4.25961453
11
16
21
4
0
LINE
8
0
10
16
20
4
11
12.9496787
21
4
0
LINE
8
0
10
12.9496787
20
4
11
2.4
21
4
0
LINE
8
0
10
2.4
20
4
11
2.4
21
-3.72756925
0
LINE
8
0
10
2.4
20
-3.72756925
11
2.4
21
-11.8624719
0
LINE
8
0
10
2.4
20
-11.8624719
11
2.4
21
-11.9657579
0
LINE
8
0
10
2.4
20
-11.9657579
11
2.4
21
-12.4025619
0
LINE
8
0
10
2.4
20
-12.4025619
11
2.4
21
-13.9942394
0
LINE
8
0
10
2.4
20
-13.9942394
11
2.4
21
-14
0
LINE
8
0
10
2.4
20
-14
11
2.41351843
21
-14.1026836
0
LINE
8
0
10
2.41351843
20
-14.1026836
11
2.42703687
21
-14.2053672
0
LINE
8
0
10
2.42703687
20
-14.2053672
11
2.43555095
21
-14.3472003
0
LINE
8
0
10
2.43555095
20
-14.3472003
11
2.46079452
21
-14.4876626
0
LINE
8
0
10
2.46079452
20
-14.4876626
11
2.55795028
21
-14.7536655
0
LINE
8
0
10
2.55795028
20
-14.7536655
11
2.63305041
21
-14.9349724
0
LINE
8
0
10
2.63305041
20
-14.9349724
11
2.77635878
21
-15.1588208
0
LINE
8
0
10
2.77635878
20
-15.1588208
11
2.8904538
21
-15.3075111
0
LINE
8
0
10
2.8904538
20
-15.3075111
11
3.06124246
21
-15.4837773
0
LINE
8
0
10
3.06124246
20
-15.4837773
11
3.2023525
21
-15.5919526
0
LINE
8
0
10
3.2023525
20
-15.5919526
11
3.40218392
21
-15.7331405
0
LINE
8
0
10
3.40218392
20
-15.7331405
11
3.63534716
21
-15.8406593
0
LINE
8
0
10
3.63534716
20
-15.8406593
11
3.7744312
21
-15.8981918
0
LINE
8
0
10
3.7744312
20
-15.8981918
11
4.02016402
21
-15.9615233
0
LINE
8
0
10
4.02016402
20
-15.9615233
11
4.0934746
21
-15.9740509
0
LINE
8
0
10
4.0934746
20
-15.9740509
11
4.4
21
-16
0
LINE
8
0
10
4.4
20
-16
11
6.85706373
21
-16
0
LINE
8
0
10
6.85706373
20
-16
11
26.4257329
21
-16
0
LINE
8
0
10
26.4257329
20
-16
11
32.1099379
21
-16
0
LINE
8
0
10
32.1099379
20
-16
11
32.6373677
21
-16
0
LINE
8
0
10
32.6373677
20
-16
11
32.7
21
-16
0
LINE
8
0
10
32.7
20
-16
11
33.1818345
21
-15.9525407
0
LINE
8
0
10
33.1818345
20
-15.9525407
11
33.193707
21
-15.9505663
0
LINE
8
0
10
33.193707
20
-15.9505663
11
33.5408385
21
-15.8448484
0
LINE
8
0
10
33.5408385
20
-15.8448484
11
38.1473421
21
-15.849031
0
LINE
8
0
10
38.1473421
20
-15.849031
11
45.65767
21
-15.8345402
0
LINE
8
0
10
45.65767
20
-15.8345402
11
58.0551094
21
-15.8539755
0
LINE
8
0
10
58.0551094
20
-15.8539755
11
58.1553247
21
-15.8538232
0
LINE
8
0
10
58.1553247
20
-15.8538232
11
58.1577255
21
-15.8555115
0
LINE
8
0
10
58.1577255
20
-15.8555115
11
58.1579083
21
-15.8555872
0
LINE
8
0
10
58.1579083
20
-15.8555872
11
58.5985495
21
-15.9853173
0
LINE
8
0
10
58.5985495
20
-15.9853173
11
58.6578764
21
-15.9916443
0
LINE
8
0
10
58.6578764
20
-15.9916443
11
58.6673899
21
-15.993297
0
LINE
8
0
10
58.6673899
20
-15.993297
11
58.6757033
21
-15.9948179
0
LINE
8
0
10
58.6757033
20
-15.9948179
11
58.67679
21
-15.99493
0
LINE
8
0
10
58.67679
20
-15.99493
11
58.6778852
21
-15.9949976
0
LINE
8
0
10
58.6778852
20
-15.9949976
11
58.73836
21
-15.99873
0
LINE
8
0
10
58.73836
20
-15.99873
11
58.7392765
21
-15.9987489
0
LINE
8
0
10
58.7392765
20
-15.9987489
11
58.8
21
-16
0
LINE
8
0
10
58.8
20
-16
11
60.623486
21
-16
0
LINE
8
0
10
60.623486
20
-16
11
69.2747025
21
-16
0
LINE
8
0
10
69.2747025
20
-16
11
69.3064084
21
-16
0
LINE
8
0
10
69.3064084
20
-16
11
69.5594302
21
-15.9674933
0
LINE
8
0
10
69.5594302
20
-15.9674933
11
69.9574113
21
-15.91481
0
LINE
8
0
10
69.9574113
20
-15.91481
11
70.2742221
21
-15.7859702
0
LINE
8
0
10
70.2742221
20
-15.7859702
11
70.5715343
21
-15.66506
0
LINE
8
0
10
70.5715343
20
-15.66506
11
70.8988165
21
-15.4184956
0
LINE
8
0
10
70.8988165
20
-15.4184956
11
71.0988887
21
-15.26777
0
LINE
8
0
10
71.0988887
20
-15.26777
11
71.3795983
21
-14.9085995
0
LINE
8
0
10
71.3795983
20
-14.9085995
11
71.5035501
21
-14.75
0
LINE
8
0
10
71.5035501
20
-14.75
11
71.6914203
21
-14.3046944
0
LINE
8
0
10
71.6914203
20
-14.3046944
11
71.7579294
21
-14.14705
0
LINE
8
0
10
71.7579294
20
-14.14705
11
71.8345426
21
-13.6855488
0
LINE
8
0
10
71.8345426
20
-13.6855488
11
71.8562664
21
-13.5
0
LINE
8
0
10
71.8562664
20
-13.5
11
71.8599346
21
-6.93330091
0
LINE
8
0
10
71.8599346
20
-6.93330091
11
71.8499004
21
0.828705829
0
LINE
8
0
10
71.8499004
20
0.828705829
11
71.8476657
21
1.24481327
0
LINE
8
0
10
71.8476657
20
1.24481327
11
71.8557875
21
8.22229135
0
LINE
8
0
10
71.8557875
20
8.22229135
11
71.8557875
21
18.916436
0
LINE
8
0
10
71.8557875
20
18.916436
11
69.2038765
21
18.91643
0
LINE
8
0
10
69.2038765
20
18.91643
11
59.3831288
21
18.9164332
0
LINE
8
0
10
59.3831288
20
18.9164332
11
44.3401656
21
18.9164332
0
LINE
8
0
10
44.3401656
20
18.9164332
11
35.7356551
21
18.9164332
0
LINE
8
0
10
35.7356551
20
18.9164332
11
31.3269238
21
18.9164324
0
LINE
8
0
10
31.3269238
20
18.9164324
11
27.4068149
21
18.916433
0
LINE
8
0
10
27.4068149
20
18.916433
11
16
21
18.9164357
0
LINE
8
0
10
16
20
18.9164357
11
16
21
18.9164357
0
LINE
8
0
10
16
20
29.9271437
11
16
21
25.5369538
0
LINE
8
0
10
16
20
25.5369538
11
9.10567851
21
25.5369538
0
LINE
8
0
10
9.10567851
20
25.5369538
11
2.4
21
25.5369538
0
LINE
8
0
10
2.4
20
25.5369538
11
2.4
21
27.9684879
0
LINE
8
0
10
2.4
20
27.9684879
11
2.4
21
29.9271437
0
LINE
8
0
10
2.4
20
29.9271437
11
2.4
21
32.3279887
0
LINE
8
0
10
2.4
20
32.3279887
11
2.4
21
35.9292563
0
LINE
8
0
10
2.4
20
35.9292563
11
2.4
21
36.251927
0
LINE
8
0
10
2.4
20
36.251927
11
2.4
21
36.855343
0
LINE
8
0
10
2.4
20
36.855343
11
4.26012674
21
36.855343
0
LINE
8
0
10
4.26012674
20
36.855343
11
16
21
36.855343
0
LINE
8
0
10
16
20
36.855343
11
16
21
36.251927
0
LINE
8
0
10
16
20
36.251927
11
16
21
35.9292563
0
LINE
8
0
10
16
20
35.9292563
11
16
21
29.9271437
0
LINE
8
0
10
16
20
29.9271437
11
16
21
29.9271437
0
LINE
8
0
10
48.7731734
20
-4.81533988
11
48.74777
21
-4.875777
0
LINE
8
0
10
48.74777
20
-4.875777
11
48.6686015
21
-4.97808687
0
LINE
8
0
10
48.6686015
20
-4.97808687
11
48.62848
21
-5.029936
0
LINE
8
0
10
48.62848
20
-5.029936
11
48.5256186
21
-5.10838912
0
LINE
8
0
10
48.5256186
20
-5.10838912
11
48.47349
21
-5.148148
0
LINE
8
0
10
48.47349
20
-5.148148
11
48.3538844
21
-5.19744501
0
LINE
8
0
10
48.3538844
20
-5.19744501
11
48.29327
21
-5.222428
0
LINE
8
0
10
48.29327
20
-5.222428
11
48.1650035
21
-5.23923862
0
LINE
8
0
10
48.1650035
20
-5.23923862
11
48.1
21
-5.247758
0
LINE
8
0
10
48.1
20
-5.247758
11
47.9717335
21
-5.23094738
0
LINE
8
0
10
47.9717335
20
-5.23094738
11
47.90673
21
-5.222428
0
LINE
8
0
10
47.90673
20
-5.222428
11
47.7871244
21
-5.17313099
0
LINE
8
0
10
47.7871244
20
-5.17313099
11
47.72651
21
-5.148148
0
LINE
8
0
10
47.72651
20
-5.148148
11
47.6236486
21
-5.06969488
0
LINE
8
0
10
47.6236486
20
-5.06969488
11
47.57152
21
-5.029936
0
LINE
8
0
10
47.57152
20
-5.029936
11
47.4923515
21
-4.92762613
0
LINE
8
0
10
47.4923515
20
-4.92762613
11
47.45223
21
-4.875777
0
LINE
8
0
10
47.45223
20
-4.875777
11
47.4021034
21
-4.75652112
0
LINE
8
0
10
47.4021034
20
-4.75652112
11
47.3767
21
-4.696084
0
LINE
8
0
10
47.3767
20
-4.696084
11
47.3589934
21
-4.567937
0
LINE
8
0
10
47.3589934
20
-4.567937
11
47.35002
21
-4.502994
0
LINE
8
0
10
47.35002
20
-4.502994
11
47.3659347
21
-4.37461273
0
LINE
8
0
10
47.3659347
20
-4.37461273
11
47.374
21
-4.309551
0
LINE
8
0
10
47.374
20
-4.309551
11
47.4224608
21
-4.18960623
0
LINE
8
0
10
47.4224608
20
-4.18960623
11
47.44702
21
-4.12882
0
LINE
8
0
10
47.44702
20
-4.12882
11
47.486415
21
-4.07641592
0
LINE
8
0
10
47.486415
20
-4.07641592
11
47.56415
21
-3.973011
0
LINE
8
0
10
47.56415
20
-3.973011
11
47.9221877
21
-3.60739164
0
LINE
8
0
10
47.9221877
20
-3.60739164
11
48.1
21
-3.425814
0
LINE
8
0
10
48.1
20
-3.425814
11
48.4580377
21
-3.79143336
0
LINE
8
0
10
48.4580377
20
-3.79143336
11
48.63585
21
-3.973011
0
LINE
8
0
10
48.63585
20
-3.973011
11
48.713585
21
-4.07641592
0
LINE
8
0
10
48.713585
20
-4.07641592
11
48.75298
21
-4.12882
0
LINE
8
0
10
48.75298
20
-4.12882
11
48.8014408
21
-4.24876477
0
LINE
8
0
10
48.8014408
20
-4.24876477
11
48.826
21
-4.309551
0
LINE
8
0
10
48.826
20
-4.309551
11
48.8419147
21
-4.43793227
0
LINE
8
0
10
48.8419147
20
-4.43793227
11
48.84998
21
-4.502994
0
LINE
8
0
10
48.84998
20
-4.502994
11
48.8322734
21
-4.631141
0
LINE
8
0
10
48.8322734
20
-4.631141
11
48.8233
21
-4.696084
0
LINE
8
0
10
48.8233
20
-4.696084
11
48.7731734
21
-4.81533988
0
LINE
8
0
10
48.7731734
20
-4.81533988
11
48.7731734
21
-4.81533988
0
ENDSEC
0
EOF
