0
SECTION
2
ENTITIES
0
LINE
8
0
10
16
20
36.3725151
11
16
21
36.4575638
0
LINE
8
0
10
16
20
36.4575638
11
2.66217625
21
36.4575638
0
LINE
8
0
10
2.66217625
20
36.4575638
11
2.4
21
36.4575638
0
LINE
8
0
10
2.4
20
36.4575638
11
2.4
21
36.3725151
0
LINE
8
0
10
2.4
20
36.3725151
11
2.4
21
36.3270361
0
LINE
8
0
10
2.4
20
36.3270361
11
2.4
21
32.2484328
0
LINE
8
0
10
2.4
20
32.2484328
11
2.4
21
29.5293639
0
LINE
8
0
10
2.4
20
29.5293639
11
2.4
21
27.9256422
0
LINE
8
0
10
2.4
20
27.9256422
11
2.4
21
25.9347341
0
LINE
8
0
10
2.4
20
25.9347341
11
10.3550201
21
25.9347341
0
LINE
8
0
10
10.3550201
20
25.9347341
11
16
21
25.9347341
0
LINE
8
0
10
16
20
25.9347341
11
16
21
29.5293639
0
LINE
8
0
10
16
20
29.5293639
11
16
21
36.3270361
0
LINE
8
0
10
16
20
36.3270361
11
16
21
36.3725151
0
LINE
8
0
10
16
20
36.3725151
11
16
21
36.3725151
0
LINE
8
0
10
16
20
18.7163481
11
16
21
18.5884495
0
LINE
8
0
10
16
20
18.5884495
11
27.0927372
21
18.5884469
0
LINE
8
0
10
27.0927372
20
18.5884469
11
31.7856494
21
18.5884462
0
LINE
8
0
10
31.7856494
20
18.5884462
11
37.0635099
21
18.5884472
0
LINE
8
0
10
37.0635099
20
18.5884472
11
40.6221723
21
18.5884472
0
LINE
8
0
10
40.6221723
20
18.5884472
11
58.6306777
21
18.5884472
0
LINE
8
0
10
58.6306777
20
18.5884472
11
70.3874697
21
18.5884433
0
LINE
8
0
10
70.3874697
20
18.5884433
11
71.8137354
21
18.5884466
0
LINE
8
0
10
71.8137354
20
18.5884466
11
71.8137354
21
12.8368616
0
LINE
8
0
10
71.8137354
20
12.8368616
11
71.7969568
21
-1.57784498
0
LINE
8
0
10
71.7969568
20
-1.57784498
11
71.8015733
21
-2.43747744
0
LINE
8
0
10
71.8015733
20
-2.43747744
11
71.8158742
21
-13.5
0
LINE
8
0
10
71.8158742
20
-13.5
11
71.8057583
21
-13.5749777
0
LINE
8
0
10
71.8057583
20
-13.5749777
11
71.7107893
21
-14.14705
0
LINE
8
0
10
71.7107893
20
-14.14705
11
71.5972896
21
-14.4160747
0
LINE
8
0
10
71.5972896
20
-14.4160747
11
71.4564097
21
-14.75
0
LINE
8
0
10
71.4564097
20
-14.75
11
71.2530891
21
-15.0101541
0
LINE
8
0
10
71.2530891
20
-15.0101541
11
71.0517494
21
-15.26777
0
LINE
8
0
10
71.0517494
20
-15.26777
11
70.7401852
21
-15.5024888
0
LINE
8
0
10
70.7401852
20
-15.5024888
11
70.5243931
21
-15.66506
0
LINE
8
0
10
70.5243931
20
-15.66506
11
70.0853594
21
-15.8436052
0
LINE
8
0
10
70.0853594
20
-15.8436052
11
69.9102702
21
-15.91481
0
LINE
8
0
10
69.9102702
20
-15.91481
11
69.6903213
21
-15.943926
0
LINE
8
0
10
69.6903213
20
-15.943926
11
69.2538595
21
-16
0
LINE
8
0
10
69.2538595
20
-16
11
69.2435171
21
-16
0
LINE
8
0
10
69.2435171
20
-16
11
59.3948137
21
-16
0
LINE
8
0
10
59.3948137
20
-16
11
58.8
21
-16
0
LINE
8
0
10
58.8
20
-16
11
58.7387847
21
-15.9987388
0
LINE
8
0
10
58.7387847
20
-15.9987388
11
58.73836
21
-15.99873
0
LINE
8
0
10
58.73836
20
-15.99873
11
58.677397
21
-15.9949675
0
LINE
8
0
10
58.677397
20
-15.9949675
11
58.67679
21
-15.99493
0
LINE
8
0
10
58.67679
20
-15.99493
11
58.6761877
21
-15.9948679
0
LINE
8
0
10
58.6761877
20
-15.9948679
11
58.6715804
21
-15.994025
0
LINE
8
0
10
58.6715804
20
-15.994025
11
58.666308
21
-15.993109
0
LINE
8
0
10
58.666308
20
-15.993109
11
58.6049485
21
-15.9865653
0
LINE
8
0
10
58.6049485
20
-15.9865653
11
58.3306581
21
-15.9058109
0
LINE
8
0
10
58.3306581
20
-15.9058109
11
46.7955774
21
-15.9212892
0
LINE
8
0
10
46.7955774
20
-15.9212892
11
44.8973763
21
-15.9212892
0
LINE
8
0
10
44.8973763
20
-15.9212892
11
42.850143
21
-15.9231741
0
LINE
8
0
10
42.850143
20
-15.9231741
11
33.3111801
21
-15.9145127
0
LINE
8
0
10
33.3111801
20
-15.9145127
11
33.1898196
21
-15.9514727
0
LINE
8
0
10
33.1898196
20
-15.9514727
11
33.1856689
21
-15.952163
0
LINE
8
0
10
33.1856689
20
-15.952163
11
32.7
21
-16
0
LINE
8
0
10
32.7
20
-16
11
32.6544745
21
-16
0
LINE
8
0
10
32.6544745
20
-16
11
32.2711017
21
-16
0
LINE
8
0
10
32.2711017
20
-16
11
25.9371603
21
-16
0
LINE
8
0
10
25.9371603
20
-16
11
7.13791985
21
-16
0
LINE
8
0
10
7.13791985
20
-16
11
4.4
21
-16
0
LINE
8
0
10
4.4
20
-16
11
4.0958808
21
-15.9742546
0
LINE
8
0
10
4.0958808
20
-15.9742546
11
4.01549601
21
-15.9605181
0
LINE
8
0
10
4.01549601
20
-15.9605181
11
3.77808733
21
-15.899332
0
LINE
8
0
10
3.77808733
20
-15.899332
11
3.62742975
21
-15.837012
0
LINE
8
0
10
3.62742975
20
-15.837012
11
3.40216485
21
-15.7331354
0
LINE
8
0
10
3.40216485
20
-15.7331354
11
3.20910267
21
-15.5967302
0
LINE
8
0
10
3.20910267
20
-15.5967302
11
3.05868639
21
-15.4814208
0
LINE
8
0
10
3.05868639
20
-15.4814208
11
2.89368316
21
-15.3111255
0
LINE
8
0
10
2.89368316
20
-15.3111255
11
2.77268643
21
-15.1534407
0
LINE
8
0
10
2.77268643
20
-15.1534407
11
2.63423259
21
-14.9371752
0
LINE
8
0
10
2.63423259
20
-14.9371752
11
2.55490825
21
-14.7456702
0
LINE
8
0
10
2.55490825
20
-14.7456702
11
2.46104362
21
-14.4886781
0
LINE
8
0
10
2.46104362
20
-14.4886781
11
2.43665517
21
-14.3529739
0
LINE
8
0
10
2.43665517
20
-14.3529739
11
2.4284295
21
-14.2159454
0
LINE
8
0
10
2.4284295
20
-14.2159454
11
2.41421474
21
-14.1079726
0
LINE
8
0
10
2.41421474
20
-14.1079726
11
2.4
21
-14
0
LINE
8
0
10
2.4
20
-14
11
2.4
21
-13.9939427
0
LINE
8
0
10
2.4
20
-13.9939427
11
2.4
21
-12.3202803
0
LINE
8
0
10
2.4
20
-12.3202803
11
2.4
21
-11.8876167
0
LINE
8
0
10
2.4
20
-11.8876167
11
2.4
21
-11.7790701
0
LINE
8
0
10
2.4
20
-11.7790701
11
2.4
21
-3.22984464
0
LINE
8
0
10
2.4
20
-3.22984464
11
2.4
21
4
0
LINE
8
0
10
2.4
20
4
11
12.270185
21
4
0
LINE
8
0
10
12.270185
20
4
11
16
21
4
0
LINE
8
0
10
16
20
4
11
16
21
4.24289303
0
LINE
8
0
10
16
20
4.24289303
11
16
21
4.349365
0
LINE
8
0
10
16
20
4.349365
11
16
21
6.88217731
0
LINE
8
0
10
16
20
6.88217731
11
10.3550201
21
6.88217731
0
LINE
8
0
10
10.3550201
20
6.88217731
11
2.4
21
6.88217731
0
LINE
8
0
10
2.4
20
6.88217731
11
2.4
21
9.06825026
0
LINE
8
0
10
2.4
20
9.06825026
11
2.4
21
9.16622315
0
LINE
8
0
10
2.4
20
9.16622315
11
2.4
21
9.31419605
0
LINE
8
0
10
2.4
20
9.31419605
11
2.4
21
9.50990239
0
LINE
8
0
10
2.4
20
9.50990239
11
2.4
21
9.73518731
0
LINE
8
0
10
2.4
20
9.73518731
11
2.4
21
12.4574628
0
LINE
8
0
10
2.4
20
12.4574628
11
2.4
21
12.7877633
0
LINE
8
0
10
2.4
20
12.7877633
11
2.4
21
13.1508303
0
LINE
8
0
10
2.4
20
13.1508303
11
2.4
21
13.5004922
0
LINE
8
0
10
2.4
20
13.5004922
11
2.4
21
13.7965009
0
LINE
8
0
10
2.4
20
13.7965009
11
2.4
21
17.4560046
0
LINE
8
0
10
2.4
20
17.4560046
11
2.4
21
20.8691118
0
LINE
8
0
10
2.4
20
20.8691118
11
8.04497988
21
20.8691118
0
LINE
8
0
10
8.04497988
20
20.8691118
11
16
21
20.8691118
0
LINE
8
0
10
16
20
20.8691118
11
16
21
20.2181458
0
LINE
8
0
10
16
20
20.2181458
11
16
21
19.173353
0
LINE
8
0
10
16
20
19.173353
11
16
21
18.7163481
0
LINE
8
0
10
16
20
18.7163481
11
16
21
18.7163481
0
LINE
8
0
10
16
20
44.987296
11
16
21
45.0060355
0
LINE
8
0
10
16
20
45.0060355
11
16
21
45.0302641
0
LINE
8
0
10
16
20
45.0302641
11
16
21
45.0577541
0
LINE
8
0
10
16
20
45.0577541
11
16
21
45.1282119
0
LINE
8
0
10
16
20
45.1282119
11
16
21
47.6426212
0
LINE
8
0
10
16
20
47.6426212
11
16
21
48.2462049
0
LINE
8
0
10
16
20
48.2462049
11
16
21
48.9873024
0
LINE
8
0
10
16
20
48.9873024
11
15.9935013
21
49.102651
0
LINE
8
0
10
15.9935013
20
49.102651
11
15.9812335
21
49.2724009
0
LINE
8
0
10
15.9812335
20
49.2724009
11
15.9249991
21
50.3160429
0
LINE
8
0
10
15.9249991
20
50.3160429
11
15.7588759
21
51.3117698
0
LINE
8
0
10
15.7588759
20
51.3117698
11
15.7008697
21
51.5890047
0
LINE
8
0
10
15.7008697
20
51.5890047
11
15.4400634
21
52.465621
0
LINE
8
0
10
15.4400634
20
52.465621
11
15.334627
21
52.7383437
0
LINE
8
0
10
15.334627
20
52.7383437
11
15.1757014
21
53.117423
0
LINE
8
0
10
15.1757014
20
53.117423
11
14.9973808
21
53.4602633
0
LINE
8
0
10
14.9973808
20
53.4602633
11
14.9931849
21
53.4674276
0
LINE
8
0
10
14.9931849
20
53.4674276
11
14.8385538
21
53.7034754
0
LINE
8
0
10
14.8385538
20
53.7034754
11
14.5054773
21
54.1770975
0
LINE
8
0
10
14.5054773
20
54.1770975
11
14.2804035
21
54.4005793
0
LINE
8
0
10
14.2804035
20
54.4005793
11
14.010439
21
54.623347
0
LINE
8
0
10
14.010439
20
54.623347
11
13.7802019
21
54.7808409
0
LINE
8
0
10
13.7802019
20
54.7808409
11
13.5546337
21
54.8707751
0
LINE
8
0
10
13.5546337
20
54.8707751
11
13.4426756
21
54.9173947
0
LINE
8
0
10
13.4426756
20
54.9173947
11
13.3175443
21
54.9455436
0
LINE
8
0
10
13.3175443
20
54.9455436
11
13
21
54.987297
0
LINE
8
0
10
13
20
54.987297
11
11.3600671
21
54.987297
0
LINE
8
0
10
11.3600671
20
54.987297
11
4.4
21
54.987297
0
LINE
8
0
10
4.4
20
54.987297
11
4.20473531
21
54.9358865
0
LINE
8
0
10
4.20473531
20
54.9358865
11
3.882362
21
54.8510046
0
LINE
8
0
10
3.882362
20
54.8510046
11
3.70930697
21
54.7076429
0
LINE
8
0
10
3.70930697
20
54.7076429
11
3.4
21
54.4514077
0
LINE
8
0
10
3.4
20
54.4514077
11
3.26682233
21
54.247023
0
LINE
8
0
10
3.26682233
20
54.247023
11
2.985786
21
53.8157354
0
LINE
8
0
10
2.985786
20
53.8157354
11
2.90039977
21
53.5931793
0
LINE
8
0
10
2.90039977
20
53.5931793
11
2.667949
21
52.9873048
0
LINE
8
0
10
2.667949
20
52.9873048
11
2.62723753
21
52.7907322
0
LINE
8
0
10
2.62723753
20
52.7907322
11
2.468148
21
52.0225788
0
LINE
8
0
10
2.468148
20
52.0225788
11
2.40430848
21
51.0527516
0
LINE
8
0
10
2.40430848
20
51.0527516
11
2.4
21
50.9872991
0
LINE
8
0
10
2.4
20
50.9872991
11
2.4
21
50.6033673
0
LINE
8
0
10
2.4
20
50.6033673
11
2.4
21
50.1945616
0
LINE
8
0
10
2.4
20
50.1945616
11
2.4
21
49.3400981
0
LINE
8
0
10
2.4
20
49.3400981
11
2.4
21
48.8238768
0
LINE
8
0
10
2.4
20
48.8238768
11
2.4
21
45.1469236
0
LINE
8
0
10
2.4
20
45.1469236
11
2.4
21
45.1077453
0
LINE
8
0
10
2.4
20
45.1077453
11
2.4
21
45.0895158
0
LINE
8
0
10
2.4
20
45.0895158
11
2.4
21
45.0804978
0
LINE
8
0
10
2.4
20
45.0804978
11
2.4
21
44.987296
0
LINE
8
0
10
2.4
20
44.987296
11
15.6009953
21
44.987296
0
LINE
8
0
10
15.6009953
20
44.987296
11
16
21
44.987296
0
LINE
8
0
10
16
20
44.987296
11
16
21
44.987296
0
LINE
8
0
10
47.4291687
20
-4.17300368
11
47.374
21
-4.309551
0
LINE
8
0
10
47.374
20
-4.309551
11
47.3681376
21
-4.35684241
0
LINE
8
0
10
47.3681376
20
-4.35684241
11
47.35002
21
-4.502994
0
LINE
8
0
10
47.35002
20
-4.502994
11
47.3565425
21
-4.55019911
0
LINE
8
0
10
47.3565425
20
-4.55019911
11
47.3767
21
-4.696084
0
LINE
8
0
10
47.3767
20
-4.696084
11
47.395165
21
-4.74001392
0
LINE
8
0
10
47.395165
20
-4.74001392
11
47.45223
21
-4.875777
0
LINE
8
0
10
47.45223
20
-4.875777
11
47.4813931
21
-4.91346457
0
LINE
8
0
10
47.4813931
20
-4.91346457
11
47.57152
21
-5.029936
0
LINE
8
0
10
47.57152
20
-5.029936
11
47.6094107
21
-5.05883553
0
LINE
8
0
10
47.6094107
20
-5.05883553
11
47.72651
21
-5.148148
0
LINE
8
0
10
47.72651
20
-5.148148
11
47.7705688
21
-5.16630738
0
LINE
8
0
10
47.7705688
20
-5.16630738
11
47.90673
21
-5.222428
0
LINE
8
0
10
47.90673
20
-5.222428
11
47.9539791
21
-5.22862048
0
LINE
8
0
10
47.9539791
20
-5.22862048
11
48.1
21
-5.247758
0
LINE
8
0
10
48.1
20
-5.247758
11
48.1472491
21
-5.24156552
0
LINE
8
0
10
48.1472491
20
-5.24156552
11
48.29327
21
-5.222428
0
LINE
8
0
10
48.29327
20
-5.222428
11
48.3373288
21
-5.20426862
0
LINE
8
0
10
48.3373288
20
-5.20426862
11
48.47349
21
-5.148148
0
LINE
8
0
10
48.47349
20
-5.148148
11
48.5113807
21
-5.11924847
0
LINE
8
0
10
48.5113807
20
-5.11924847
11
48.62848
21
-5.029936
0
LINE
8
0
10
48.62848
20
-5.029936
11
48.6576431
21
-4.99224843
0
LINE
8
0
10
48.6576431
20
-4.99224843
11
48.74777
21
-4.875777
0
LINE
8
0
10
48.74777
20
-4.875777
11
48.766235
21
-4.83184708
0
LINE
8
0
10
48.766235
20
-4.83184708
11
48.8233
21
-4.696084
0
LINE
8
0
10
48.8233
20
-4.696084
11
48.8298225
21
-4.64887889
0
LINE
8
0
10
48.8298225
20
-4.64887889
11
48.84998
21
-4.502994
0
LINE
8
0
10
48.84998
20
-4.502994
11
48.8441176
21
-4.45570259
0
LINE
8
0
10
48.8441176
20
-4.45570259
11
48.826
21
-4.309551
0
LINE
8
0
10
48.826
20
-4.309551
11
48.8081487
21
-4.26536732
0
LINE
8
0
10
48.8081487
20
-4.26536732
11
48.75298
21
-4.12882
0
LINE
8
0
10
48.75298
20
-4.12882
11
48.724345
21
-4.09072905
0
LINE
8
0
10
48.724345
20
-4.09072905
11
48.63585
21
-3.973011
0
LINE
8
0
10
48.63585
20
-3.973011
11
48.4334252
21
-3.76629969
0
LINE
8
0
10
48.4334252
20
-3.76629969
11
48.1
21
-3.425814
0
LINE
8
0
10
48.1
20
-3.425814
11
47.8975752
21
-3.63252531
0
LINE
8
0
10
47.8975752
20
-3.63252531
11
47.56415
21
-3.973011
0
LINE
8
0
10
47.56415
20
-3.973011
11
47.475655
21
-4.09072905
0
LINE
8
0
10
47.475655
20
-4.09072905
11
47.44702
21
-4.12882
0
LINE
8
0
10
47.44702
20
-4.12882
11
47.4291687
21
-4.17300368
0
LINE
8
0
10
47.4291687
20
-4.17300368
11
47.4291687
21
-4.17300368
0
ENDSEC
0
EOF
