0
SECTION
2
ENTITIES
0
LINE
8
0
10
16
20
37.1225966
11
16
21
35.6620042
0
LINE
8
0
10
16
20
35.6620042
11
16
21
32.7408212
0
LINE
8
0
10
16
20
32.7408212
11
16
21
28.7338042
0
LINE
8
0
10
16
20
28.7338042
11
16
21
26.7302946
0
LINE
8
0
10
16
20
26.7302946
11
12.8537034
21
26.7302946
0
LINE
8
0
10
12.8537034
20
26.7302946
11
2.4
21
26.7302946
0
LINE
8
0
10
2.4
20
26.7302946
11
2.4
21
27.8399509
0
LINE
8
0
10
2.4
20
27.8399509
11
2.4
21
28.7338042
0
LINE
8
0
10
2.4
20
28.7338042
11
2.4
21
32.0893208
0
LINE
8
0
10
2.4
20
32.0893208
11
2.4
21
35.6620042
0
LINE
8
0
10
2.4
20
35.6620042
11
2.4
21
36.3259099
0
LINE
8
0
10
2.4
20
36.3259099
11
2.4
21
37.1225966
0
LINE
8
0
10
2.4
20
37.1225966
11
13.7062966
21
37.1225966
0
LINE
8
0
10
13.7062966
20
37.1225966
11
16
21
37.1225966
0
LINE
8
0
10
16
20
37.1225966
11
16
21
37.1225966
0
LINE
8
0
10
16
20
48.7118891
11
16
21
47.8396397
0
LINE
8
0
10
16
20
47.8396397
11
16
21
45.7828558
0
LINE
8
0
10
16
20
45.7828558
11
16
21
44.3222634
0
LINE
8
0
10
16
20
44.3222634
11
4.69370335
21
44.3222634
0
LINE
8
0
10
4.69370335
20
44.3222634
11
2.4
21
44.3222634
0
LINE
8
0
10
2.4
20
44.3222634
11
2.4
21
44.9714156
0
LINE
8
0
10
2.4
20
44.9714156
11
2.4
21
45.7828558
0
LINE
8
0
10
2.4
20
45.7828558
11
2.4
21
48.7546266
0
LINE
8
0
10
2.4
20
48.7546266
11
2.4
21
49.1544856
0
LINE
8
0
10
2.4
20
49.1544856
11
2.4
21
49.8163431
0
LINE
8
0
10
2.4
20
49.8163431
11
2.4
21
50.8304529
0
LINE
8
0
10
2.4
20
50.8304529
11
2.4
21
51.7828589
0
LINE
8
0
10
2.4
20
51.7828589
11
2.4106879
21
51.9452245
0
LINE
8
0
10
2.4106879
20
51.9452245
11
2.468148
21
52.8181378
0
LINE
8
0
10
2.468148
20
52.8181378
11
2.61133987
21
53.5095304
0
LINE
8
0
10
2.61133987
20
53.5095304
11
2.667949
21
53.7828639
0
LINE
8
0
10
2.667949
20
53.7828639
11
2.87484905
21
54.3221413
0
LINE
8
0
10
2.87484905
20
54.3221413
11
2.985786
21
54.6112944
0
LINE
8
0
10
2.985786
20
54.6112944
11
3.23303026
21
54.9907236
0
LINE
8
0
10
3.23303026
20
54.9907236
11
3.4
21
55.2469682
0
LINE
8
0
10
3.4
20
55.2469682
11
3.66922756
21
55.4700009
0
LINE
8
0
10
3.66922756
20
55.4700009
11
3.882362
21
55.6465652
0
LINE
8
0
10
3.882362
20
55.6465652
11
4.16081908
21
55.7198838
0
LINE
8
0
10
4.16081908
20
55.7198838
11
4.4
21
55.7828568
0
LINE
8
0
10
4.4
20
55.7828568
11
10.9912362
21
55.7828568
0
LINE
8
0
10
10.9912362
20
55.7828568
11
13
21
55.7828568
0
LINE
8
0
10
13
20
55.7828568
11
13.3007168
21
55.743316
0
LINE
8
0
10
13.3007168
20
55.743316
11
13.4544941
21
55.7087231
0
LINE
8
0
10
13.4544941
20
55.7087231
11
13.5920824
21
55.651431
0
LINE
8
0
10
13.5920824
20
55.651431
11
13.7800063
21
55.5765056
0
LINE
8
0
10
13.7800063
20
55.5765056
11
13.9718199
21
55.4452953
0
LINE
8
0
10
13.9718199
20
55.4452953
11
14.3138997
21
55.16302
0
LINE
8
0
10
14.3138997
20
55.16302
11
14.5046418
21
54.973627
0
LINE
8
0
10
14.5046418
20
54.973627
11
14.7869125
21
54.572249
0
LINE
8
0
10
14.7869125
20
54.572249
11
15.0103732
21
54.2311311
0
LINE
8
0
10
15.0103732
20
54.2311311
11
15.0140063
21
54.2249278
0
LINE
8
0
10
15.0140063
20
54.2249278
11
15.1684066
21
53.9280769
0
LINE
8
0
10
15.1684066
20
53.9280769
11
15.3060135
21
53.5998482
0
LINE
8
0
10
15.3060135
20
53.5998482
11
15.4583815
21
53.2057318
0
LINE
8
0
10
15.4583815
20
53.2057318
11
15.6889538
21
52.4307375
0
LINE
8
0
10
15.6889538
20
52.4307375
11
15.7727796
21
52.0301004
0
LINE
8
0
10
15.7727796
20
52.0301004
11
15.9222746
21
51.1340412
0
LINE
8
0
10
15.9222746
20
51.1340412
11
15.9728802
21
50.194863
0
LINE
8
0
10
15.9728802
20
50.194863
11
15.9906086
21
49.9495545
0
LINE
8
0
10
15.9906086
20
49.9495545
11
16
21
49.7828621
0
LINE
8
0
10
16
20
49.7828621
11
16
21
48.7118891
0
LINE
8
0
10
16
20
48.7118891
11
16
21
48.7118891
0
LINE
8
0
10
16
20
7.67773729
11
16
21
4.349365
0
LINE
8
0
10
16
20
4.349365
11
16
21
4.20945003
0
LINE
8
0
10
16
20
4.20945003
11
16
21
4
0
LINE
8
0
10
16
20
4
11
10.9111976
21
4
0
LINE
8
0
10
10.9111976
20
4
11
2.4
21
4
0
LINE
8
0
10
2.4
20
4
11
2.4
21
-2.23439541
0
LINE
8
0
10
2.4
20
-2.23439541
11
2.4
21
-11.6122665
0
LINE
8
0
10
2.4
20
-11.6122665
11
2.4
21
-11.7313342
0
LINE
8
0
10
2.4
20
-11.7313342
11
2.4
21
-12.1557171
0
LINE
8
0
10
2.4
20
-12.1557171
11
2.4
21
-13.9933492
0
LINE
8
0
10
2.4
20
-13.9933492
11
2.4
21
-14
0
LINE
8
0
10
2.4
20
-14
11
2.41560737
21
-14.1185508
0
LINE
8
0
10
2.41560737
20
-14.1185508
11
2.43121475
21
-14.2371017
0
LINE
8
0
10
2.43121475
20
-14.2371017
11
2.4388636
21
-14.3645211
0
LINE
8
0
10
2.4388636
20
-14.3645211
11
2.46154182
21
-14.490709
0
LINE
8
0
10
2.46154182
20
-14.490709
11
2.5488242
21
-14.7296796
0
LINE
8
0
10
2.5488242
20
-14.7296796
11
2.63659695
21
-14.9415808
0
LINE
8
0
10
2.63659695
20
-14.9415808
11
2.76534173
21
-15.1426807
0
LINE
8
0
10
2.76534173
20
-15.1426807
11
2.90014186
21
-15.3183543
0
LINE
8
0
10
2.90014186
20
-15.3183543
11
3.05357426
21
-15.4767076
0
LINE
8
0
10
3.05357426
20
-15.4767076
11
3.222603
21
-15.6062854
0
LINE
8
0
10
3.222603
20
-15.6062854
11
3.40212671
21
-15.7331252
0
LINE
8
0
10
3.40212671
20
-15.7331252
11
3.61159493
21
-15.8297175
0
LINE
8
0
10
3.61159493
20
-15.8297175
11
3.78539958
21
-15.9016123
0
LINE
8
0
10
3.78539958
20
-15.9016123
11
4.00616
21
-15.9585078
0
LINE
8
0
10
4.00616
20
-15.9585078
11
4.10069318
21
-15.974662
0
LINE
8
0
10
4.10069318
20
-15.974662
11
4.4
21
-16
0
LINE
8
0
10
4.4
20
-16
11
7.69963208
21
-16
0
LINE
8
0
10
7.69963208
20
-16
11
24.960015
21
-16
0
LINE
8
0
10
24.960015
20
-16
11
32.5934292
21
-16
0
LINE
8
0
10
32.5934292
20
-16
11
32.688688
21
-16
0
LINE
8
0
10
32.688688
20
-16
11
32.7
21
-16
0
LINE
8
0
10
32.7
20
-16
11
32.8518634
21
-15.9850419
0
LINE
8
0
10
32.8518634
20
-15.9850419
11
35.4369648
21
-15.9927375
0
LINE
8
0
10
35.4369648
20
-15.9927375
11
36.8020945
21
-15.9951633
0
LINE
8
0
10
36.8020945
20
-15.9951633
11
37
21
-15.99528
0
LINE
8
0
10
37
20
-15.99528
11
37.0044529
21
-15.9949475
0
LINE
8
0
10
37.0044529
20
-15.9949475
11
37.1227948
21
-15.9864755
0
LINE
8
0
10
37.1227948
20
-15.9864755
11
37.1609254
21
-15.9818555
0
LINE
8
0
10
37.1609254
20
-15.9818555
11
37.1670945
21
-15.9809525
0
LINE
8
0
10
37.1670945
20
-15.9809525
11
37.1745098
21
-15.9796196
0
LINE
8
0
10
37.1745098
20
-15.9796196
11
46.0852777
21
-15.9788294
0
LINE
8
0
10
46.0852777
20
-15.9788294
11
50.8624208
21
-15.9774852
0
LINE
8
0
10
50.8624208
20
-15.9774852
11
57.6890244
21
-15.973299
0
LINE
8
0
10
57.6890244
20
-15.973299
11
63.9651499
21
-15.9785547
0
LINE
8
0
10
63.9651499
20
-15.9785547
11
69.2120472
21
-15.9748581
0
LINE
8
0
10
69.2120472
20
-15.9748581
11
69.4867891
21
-15.9438121
0
LINE
8
0
10
69.4867891
20
-15.9438121
11
69.7513678
21
-15.9131973
0
LINE
8
0
10
69.7513678
20
-15.9131973
11
69.932772
21
-15.8609236
0
LINE
8
0
10
69.932772
20
-15.8609236
11
70.4165318
21
-15.6697728
0
LINE
8
0
10
70.4165318
20
-15.6697728
11
70.435399
21
-15.660197
0
LINE
8
0
10
70.435399
20
-15.660197
11
70.486665
21
-15.6224546
0
LINE
8
0
10
70.486665
20
-15.6224546
11
70.9574708
21
-15.26777
0
LINE
8
0
10
70.9574708
20
-15.26777
11
71.0000706
21
-15.2132632
0
LINE
8
0
10
71.0000706
20
-15.2132632
11
71.362129
21
-14.75
0
LINE
8
0
10
71.362129
20
-14.75
11
71.4090283
21
-14.6388355
0
LINE
8
0
10
71.4090283
20
-14.6388355
11
71.6165092
21
-14.14705
0
LINE
8
0
10
71.6165092
20
-14.14705
11
71.6537122
21
-13.9229474
0
LINE
8
0
10
71.6537122
20
-13.9229474
11
71.7107754
21
-13.5
0
LINE
8
0
10
71.7107754
20
-13.5
11
71.7049191
21
-8.96984399
0
LINE
8
0
10
71.7049191
20
-8.96984399
11
71.6955388
21
-7.22316148
0
LINE
8
0
10
71.6955388
20
-7.22316148
11
71.7150348
21
9.52602443
0
LINE
8
0
10
71.7150348
20
9.52602443
11
71.7150348
21
17.9324709
0
LINE
8
0
10
71.7150348
20
17.9324709
11
69.423853
21
17.9324715
0
LINE
8
0
10
69.423853
20
17.9324715
11
58.5042379
21
17.9324754
0
LINE
8
0
10
58.5042379
20
17.9324754
11
58.1
21
18.3831433
0
LINE
8
0
10
58.1
20
18.3831433
11
55.576144
21
18.3831433
0
LINE
8
0
10
55.576144
20
18.3831433
11
38
21
18.3831433
0
LINE
8
0
10
38
20
18.3831433
11
38
21
17.9324748
0
LINE
8
0
10
38
20
17.9324748
11
32.7031004
21
17.9324738
0
LINE
8
0
10
32.7031004
20
17.9324738
11
26.464582
21
17.9324747
0
LINE
8
0
10
26.464582
20
17.9324747
11
16
21
17.9324772
0
LINE
8
0
10
16
20
17.9324772
11
16
21
18.0720345
0
LINE
8
0
10
16
20
18.0720345
11
16
21
18.5706979
0
LINE
8
0
10
16
20
18.5706979
11
16
21
19.7107295
0
LINE
8
0
10
16
20
19.7107295
11
16
21
20.0735531
0
LINE
8
0
10
16
20
20.0735531
11
5.54629665
21
20.0735531
0
LINE
8
0
10
5.54629665
20
20.0735531
11
2.4
21
20.0735531
0
LINE
8
0
10
2.4
20
20.0735531
11
2.4
21
18.1712172
0
LINE
8
0
10
2.4
20
18.1712172
11
2.4
21
13.8055036
0
LINE
8
0
10
2.4
20
13.8055036
11
2.4
21
13.5431681
0
LINE
8
0
10
2.4
20
13.5431681
11
2.4
21
13.2332829
0
LINE
8
0
10
2.4
20
13.2332829
11
2.4
21
12.9115176
0
LINE
8
0
10
2.4
20
12.9115176
11
2.4
21
12.6187912
0
LINE
8
0
10
2.4
20
12.6187912
11
2.4
21
9.26789633
0
LINE
8
0
10
2.4
20
9.26789633
11
2.4
21
9.1423311
0
LINE
8
0
10
2.4
20
9.1423311
11
2.4
21
9.03325185
0
LINE
8
0
10
2.4
20
9.03325185
11
2.4
21
8.95077739
0
LINE
8
0
10
2.4
20
8.95077739
11
2.4
21
8.89617104
0
LINE
8
0
10
2.4
20
8.89617104
11
2.4
21
7.67773729
0
LINE
8
0
10
2.4
20
7.67773729
11
12.8537034
21
7.67773729
0
LINE
8
0
10
12.8537034
20
7.67773729
11
16
21
7.67773729
0
LINE
8
0
10
16
20
7.67773729
11
16
21
7.67773729
0
LINE
8
0
10
48.84998
20
-4.502994
11
48.8249207
21
-4.68435468
0
LINE
8
0
10
48.8249207
20
-4.68435468
11
48.8233
21
-4.696084
0
LINE
8
0
10
48.8233
20
-4.696084
11
48.7523581
21
-4.86486149
0
LINE
8
0
10
48.7523581
20
-4.86486149
11
48.74777
21
-4.875777
0
LINE
8
0
10
48.74777
20
-4.875777
11
48.6357263
21
-5.02057156
0
LINE
8
0
10
48.6357263
20
-5.02057156
11
48.62848
21
-5.029936
0
LINE
8
0
10
48.62848
20
-5.029936
11
48.4829049
21
-5.14096717
0
LINE
8
0
10
48.4829049
20
-5.14096717
11
48.47349
21
-5.148148
0
LINE
8
0
10
48.47349
20
-5.148148
11
48.3042175
21
-5.21791584
0
LINE
8
0
10
48.3042175
20
-5.21791584
11
48.29327
21
-5.222428
0
LINE
8
0
10
48.29327
20
-5.222428
11
48.1117403
21
-5.24621932
0
LINE
8
0
10
48.1117403
20
-5.24621932
11
48.1
21
-5.247758
0
LINE
8
0
10
48.1
20
-5.247758
11
47.9184703
21
-5.22396668
0
LINE
8
0
10
47.9184703
20
-5.22396668
11
47.90673
21
-5.222428
0
LINE
8
0
10
47.90673
20
-5.222428
11
47.7374575
21
-5.15266016
0
LINE
8
0
10
47.7374575
20
-5.15266016
11
47.72651
21
-5.148148
0
LINE
8
0
10
47.72651
20
-5.148148
11
47.5809349
21
-5.03711683
0
LINE
8
0
10
47.5809349
20
-5.03711683
11
47.57152
21
-5.029936
0
LINE
8
0
10
47.57152
20
-5.029936
11
47.4594763
21
-4.88514144
0
LINE
8
0
10
47.4594763
20
-4.88514144
11
47.45223
21
-4.875777
0
LINE
8
0
10
47.45223
20
-4.875777
11
47.3812881
21
-4.70699951
0
LINE
8
0
10
47.3812881
20
-4.70699951
11
47.3767
21
-4.696084
0
LINE
8
0
10
47.3767
20
-4.696084
11
47.3516407
21
-4.51472332
0
LINE
8
0
10
47.3516407
20
-4.51472332
11
47.35002
21
-4.502994
0
LINE
8
0
10
47.35002
20
-4.502994
11
47.3725433
21
-4.32130176
0
LINE
8
0
10
47.3725433
20
-4.32130176
11
47.374
21
-4.309551
0
LINE
8
0
10
47.374
20
-4.309551
11
47.4425844
21
-4.13979857
0
LINE
8
0
10
47.4425844
20
-4.13979857
11
47.44702
21
-4.12882
0
LINE
8
0
10
47.44702
20
-4.12882
11
47.4541351
21
-4.11935533
0
LINE
8
0
10
47.4541351
20
-4.11935533
11
47.56415
21
-3.973011
0
LINE
8
0
10
47.56415
20
-3.973011
11
47.8483502
21
-3.68279267
0
LINE
8
0
10
47.8483502
20
-3.68279267
11
48.1
21
-3.425814
0
LINE
8
0
10
48.1
20
-3.425814
11
48.3842002
21
-3.71603233
0
LINE
8
0
10
48.3842002
20
-3.71603233
11
48.63585
21
-3.973011
0
LINE
8
0
10
48.63585
20
-3.973011
11
48.7458649
21
-4.11935533
0
LINE
8
0
10
48.7458649
20
-4.11935533
11
48.75298
21
-4.12882
0
LINE
8
0
10
48.75298
20
-4.12882
11
48.8215644
21
-4.29857243
0
LINE
8
0
10
48.8215644
20
-4.29857243
11
48.826
21
-4.309551
0
LINE
8
0
10
48.826
20
-4.309551
11
48.8485233
21
-4.49124324
0
LINE
8
0
10
48.8485233
20
-4.49124324
11
48.84998
21
-4.502994
0
LINE
8
0
10
48.84998
20
-4.502994
11
48.84998
21
-4.502994
0
ENDSEC
0
EOF
