0
SECTION
2
ENTITIES
0
LINE
8
0
10
16
20
50.5784219
11
16
21
49.1775733
0
LINE
8
0
10
16
20
49.1775733
11
16
21
48.0366582
0
LINE
8
0
10
16
20
48.0366582
11
16
21
46.5784154
0
LINE
8
0
10
16
20
46.5784154
11
16
21
43.5267029
0
LINE
8
0
10
16
20
43.5267029
11
7.19238658
21
43.5267029
0
LINE
8
0
10
7.19238658
20
43.5267029
11
2.4
21
43.5267029
0
LINE
8
0
10
2.4
20
43.5267029
11
2.4
21
44.8830195
0
LINE
8
0
10
2.4
20
44.8830195
11
2.4
21
46.5784154
0
LINE
8
0
10
2.4
20
46.5784154
11
2.4
21
48.6853763
0
LINE
8
0
10
2.4
20
48.6853763
11
2.4
21
48.9688731
0
LINE
8
0
10
2.4
20
48.9688731
11
2.4
21
49.4381246
0
LINE
8
0
10
2.4
20
49.4381246
11
2.4
21
51.0575385
0
LINE
8
0
10
2.4
20
51.0575385
11
2.4
21
52.5784187
0
LINE
8
0
10
2.4
20
52.5784187
11
2.41706733
21
52.8376975
0
LINE
8
0
10
2.41706733
20
52.8376975
11
2.468148
21
53.6136969
0
LINE
8
0
10
2.468148
20
53.6136969
11
2.5954422
21
54.2283286
0
LINE
8
0
10
2.5954422
20
54.2283286
11
2.667949
21
54.578423
0
LINE
8
0
10
2.667949
20
54.578423
11
2.84929833
21
55.0511034
0
LINE
8
0
10
2.84929833
20
55.0511034
11
2.985786
21
55.4068535
0
LINE
8
0
10
2.985786
20
55.4068535
11
3.19923819
21
55.7344242
0
LINE
8
0
10
3.19923819
20
55.7344242
11
3.4
21
56.0425287
0
LINE
8
0
10
3.4
20
56.0425287
11
3.62914816
21
56.232359
0
LINE
8
0
10
3.62914816
20
56.232359
11
3.882362
21
56.4421257
0
LINE
8
0
10
3.882362
20
56.4421257
11
4.11690286
21
56.5038811
0
LINE
8
0
10
4.11690286
20
56.5038811
11
4.4
21
56.5784166
0
LINE
8
0
10
4.4
20
56.5784166
11
10.6224052
21
56.5784166
0
LINE
8
0
10
10.6224052
20
56.5784166
11
13
21
56.5784166
0
LINE
8
0
10
13
20
56.5784166
11
13.2838894
21
56.5410884
0
LINE
8
0
10
13.2838894
20
56.5410884
11
13.4663126
21
56.5000515
0
LINE
8
0
10
13.4663126
20
56.5000515
11
13.6295311
21
56.4320868
0
LINE
8
0
10
13.6295311
20
56.4320868
11
13.7798107
21
56.3721703
0
LINE
8
0
10
13.7798107
20
56.3721703
11
13.9332009
21
56.2672436
0
LINE
8
0
10
13.9332009
20
56.2672436
11
14.3473958
21
55.9254607
0
LINE
8
0
10
14.3473958
20
55.9254607
11
14.5038063
21
55.7701566
0
LINE
8
0
10
14.5038063
20
55.7701566
11
14.7352711
21
55.4410225
0
LINE
8
0
10
14.7352711
20
55.4410225
11
15.0275616
21
54.9948345
0
LINE
8
0
10
15.0275616
20
54.9948345
11
15.0306318
21
54.9895923
0
LINE
8
0
10
15.0306318
20
54.9895923
11
15.1611117
21
54.7387308
0
LINE
8
0
10
15.1611117
20
54.7387308
11
15.2774
21
54.4613527
0
LINE
8
0
10
15.2774
20
54.4613527
11
15.4766997
21
53.9458426
0
LINE
8
0
10
15.4766997
20
53.9458426
11
15.6770379
21
53.2724703
0
LINE
8
0
10
15.6770379
20
53.2724703
11
15.7866832
21
52.748431
0
LINE
8
0
10
15.7866832
20
52.748431
11
15.9195501
21
51.9520395
0
LINE
8
0
10
15.9195501
20
51.9520395
11
15.9645269
21
51.1173251
0
LINE
8
0
10
15.9645269
20
51.1173251
11
15.987716
21
50.7964579
0
LINE
8
0
10
15.987716
20
50.7964579
11
16
21
50.5784219
0
LINE
8
0
10
16
20
50.5784219
11
16
21
50.5784219
0
LINE
8
0
10
16
20
4.17600703
11
16
21
4
0
LINE
8
0
10
16
20
4
11
9.55221013
21
4
0
LINE
8
0
10
9.55221013
20
4
11
2.4
21
4
0
LINE
8
0
10
2.4
20
4
11
2.4
21
-1.23894618
0
LINE
8
0
10
2.4
20
-1.23894618
11
2.4
21
-11.445463
0
LINE
8
0
10
2.4
20
-11.445463
11
2.4
21
-11.5750516
0
LINE
8
0
10
2.4
20
-11.5750516
11
2.4
21
-11.9911538
0
LINE
8
0
10
2.4
20
-11.9911538
11
2.4
21
-13.9927558
0
LINE
8
0
10
2.4
20
-13.9927558
11
2.4
21
-14
0
LINE
8
0
10
2.4
20
-14
11
2.417
21
-14.1291289
0
LINE
8
0
10
2.417
20
-14.1291289
11
2.43400001
21
-14.258258
0
LINE
8
0
10
2.43400001
20
-14.258258
11
2.44107203
21
-14.3760683
0
LINE
8
0
10
2.44107203
20
-14.3760683
11
2.46204001
21
-14.49274
0
LINE
8
0
10
2.46204001
20
-14.49274
11
2.54274014
21
-14.713689
0
LINE
8
0
10
2.54274014
20
-14.713689
11
2.63896131
21
-14.9459863
0
LINE
8
0
10
2.63896131
20
-14.9459863
11
2.75799702
21
-15.1319207
0
LINE
8
0
10
2.75799702
20
-15.1319207
11
2.90660056
21
-15.3255831
0
LINE
8
0
10
2.90660056
20
-15.3255831
11
3.04846212
21
-15.4719945
0
LINE
8
0
10
3.04846212
20
-15.4719945
11
3.23610333
21
-15.6158406
0
LINE
8
0
10
3.23610333
20
-15.6158406
11
3.40208857
21
-15.733115
0
LINE
8
0
10
3.40208857
20
-15.733115
11
3.59576011
21
-15.8224229
0
LINE
8
0
10
3.59576011
20
-15.8224229
11
3.79271183
21
-15.9038926
0
LINE
8
0
10
3.79271183
20
-15.9038926
11
3.99682399
21
-15.9564974
0
LINE
8
0
10
3.99682399
20
-15.9564974
11
4.10550557
21
-15.9750694
0
LINE
8
0
10
4.10550557
20
-15.9750694
11
4.4
21
-16
0
LINE
8
0
10
4.4
20
-16
11
8.26134431
21
-16
0
LINE
8
0
10
8.26134431
20
-16
11
23.9828698
21
-16
0
LINE
8
0
10
23.9828698
20
-16
11
31.5501242
21
-16
0
LINE
8
0
10
31.5501242
20
-16
11
32.9644099
21
-16
0
LINE
8
0
10
32.9644099
20
-16
11
37
21
-16
0
LINE
8
0
10
37
20
-16
11
37.0908008
21
-15.9955984
0
LINE
8
0
10
37.0908008
20
-15.9955984
11
37.1067158
21
-15.9935034
0
LINE
8
0
10
37.1067158
20
-15.9935034
11
37.1966719
21
-15.9803361
0
LINE
8
0
10
37.1966719
20
-15.9803361
11
37.2849199
21
-15.9585252
0
LINE
8
0
10
37.2849199
20
-15.9585252
11
37.2997503
21
-15.9523822
0
LINE
8
0
10
37.2997503
20
-15.9523822
11
37.4552366
21
-15.8796925
0
LINE
8
0
10
37.4552366
20
-15.8796925
11
50.6703251
21
-15.8882824
0
LINE
8
0
10
50.6703251
20
-15.8882824
11
53.11421
21
-15.8849421
0
LINE
8
0
10
53.11421
20
-15.8849421
11
54.0712095
21
-15.8863001
0
LINE
8
0
10
54.0712095
20
-15.8863001
11
59.2887493
21
-15.889006
0
LINE
8
0
10
59.2887493
20
-15.889006
11
69.1897845
21
-15.8859294
0
LINE
8
0
10
69.1897845
20
-15.8859294
11
69.2597749
21
-15.8808161
0
LINE
8
0
10
69.2597749
20
-15.8808161
11
69.7178244
21
-15.8202193
0
LINE
8
0
10
69.7178244
20
-15.8202193
11
69.9410702
21
-15.7609347
0
LINE
8
0
10
69.9410702
20
-15.7609347
11
70.1656707
21
-15.6690961
0
LINE
8
0
10
70.1656707
20
-15.6690961
11
70.4633335
21
-15.5237314
0
LINE
8
0
10
70.4633335
20
-15.5237314
11
70.5525049
21
-15.4555499
0
LINE
8
0
10
70.5525049
20
-15.4555499
11
70.8729955
21
-15.2083532
0
LINE
8
0
10
70.8729955
20
-15.2083532
11
70.9212059
21
-15.1508506
0
LINE
8
0
10
70.9212059
20
-15.1508506
11
71.1666858
21
-14.8539419
0
LINE
8
0
10
71.1666858
20
-14.8539419
11
71.1998587
21
-14.8123595
0
LINE
8
0
10
71.1998587
20
-14.8123595
11
71.4034922
21
-14.4277331
0
LINE
8
0
10
71.4034922
20
-14.4277331
11
71.4368216
21
-14.3487673
0
LINE
8
0
10
71.4368216
20
-14.3487673
11
71.5551471
21
-13.9409782
0
LINE
8
0
10
71.5551471
20
-13.9409782
11
71.5576086
21
-13.922457
0
LINE
8
0
10
71.5576086
20
-13.922457
11
71.5974296
21
-13.4845964
0
LINE
8
0
10
71.5974296
20
-13.4845964
11
71.5941209
21
-12.868478
0
LINE
8
0
10
71.5941209
20
-12.868478
11
71.596024
21
-11.2334989
0
LINE
8
0
10
71.596024
20
-11.2334989
11
71.596024
21
17.2764997
0
LINE
8
0
10
71.596024
20
17.2764997
11
63.8256078
21
17.276502
0
LINE
8
0
10
63.8256078
20
17.276502
11
59.1286716
21
17.2765036
0
LINE
8
0
10
59.1286716
20
17.2765036
11
58.1
21
18.4233265
0
LINE
8
0
10
58.1
20
18.4233265
11
51.6774979
21
18.4233265
0
LINE
8
0
10
51.6774979
20
18.4233265
11
38
21
18.4233265
0
LINE
8
0
10
38
20
18.4233265
11
38
21
17.2765022
0
LINE
8
0
10
38
20
17.2765022
11
33.6205515
21
17.2765014
0
LINE
8
0
10
33.6205515
20
17.2765014
11
25.8364268
21
17.2765026
0
LINE
8
0
10
25.8364268
20
17.2765026
11
16
21
17.2765049
0
LINE
8
0
10
16
20
17.2765049
11
16
21
17.4277208
0
LINE
8
0
10
16
20
17.4277208
11
16
21
17.9680429
0
LINE
8
0
10
16
20
17.9680429
11
16
21
19.2033131
0
LINE
8
0
10
16
20
19.2033131
11
16
21
19.2779944
0
LINE
8
0
10
16
20
19.2779944
11
3.04761342
21
19.2779944
0
LINE
8
0
10
3.04761342
20
19.2779944
11
2.4
21
19.2779944
0
LINE
8
0
10
2.4
20
19.2779944
11
2.4
21
18.8864298
0
LINE
8
0
10
2.4
20
18.8864298
11
2.4
21
13.8145062
0
LINE
8
0
10
2.4
20
13.8145062
11
2.4
21
13.585844
0
LINE
8
0
10
2.4
20
13.585844
11
2.4
21
13.3157355
0
LINE
8
0
10
2.4
20
13.3157355
11
2.4
21
13.0352718
0
LINE
8
0
10
2.4
20
13.0352718
11
2.4
21
12.7801196
0
LINE
8
0
10
2.4
20
12.7801196
11
2.4
21
8.80060535
0
LINE
8
0
10
2.4
20
8.80060535
11
2.4
21
8.77475982
0
LINE
8
0
10
2.4
20
8.77475982
11
2.4
21
8.75230765
0
LINE
8
0
10
2.4
20
8.75230765
11
2.4
21
8.73533164
0
LINE
8
0
10
2.4
20
8.73533164
11
2.4
21
8.72409182
0
LINE
8
0
10
2.4
20
8.72409182
11
2.4
21
8.47329727
0
LINE
8
0
10
2.4
20
8.47329727
11
15.3523866
21
8.47329727
0
LINE
8
0
10
15.3523866
20
8.47329727
11
16
21
8.47329727
0
LINE
8
0
10
16
20
8.47329727
11
16
21
4.349365
0
LINE
8
0
10
16
20
4.349365
11
16
21
4.17600703
0
LINE
8
0
10
16
20
4.17600703
11
16
21
4.17600703
0
LINE
8
0
10
16
20
27.5258551
11
16
21
27.9382446
0
LINE
8
0
10
16
20
27.9382446
11
16
21
28.7630232
0
LINE
8
0
10
16
20
28.7630232
11
16
21
34.8664446
0
LINE
8
0
10
16
20
34.8664446
11
16
21
37.9181571
0
LINE
8
0
10
16
20
37.9181571
11
11.2076134
21
37.9181571
0
LINE
8
0
10
11.2076134
20
37.9181571
11
2.4
21
37.9181571
0
LINE
8
0
10
2.4
20
37.9181571
11
2.4
21
36.2535867
0
LINE
8
0
10
2.4
20
36.2535867
11
2.4
21
34.8664446
0
LINE
8
0
10
2.4
20
34.8664446
11
2.4
21
31.9302089
0
LINE
8
0
10
2.4
20
31.9302089
11
2.4
21
27.9382446
0
LINE
8
0
10
2.4
20
27.9382446
11
2.4
21
27.7542596
0
LINE
8
0
10
2.4
20
27.7542596
11
2.4
21
27.5258551
0
LINE
8
0
10
2.4
20
27.5258551
11
15.3523866
21
27.5258551
0
LINE
8
0
10
15.3523866
20
27.5258551
11
16
21
27.5258551
0
LINE
8
0
10
16
20
27.5258551
11
16
21
27.5258551
0
LINE
8
0
10
48.84998
20
-4.502994
11
48.8466989
21
-4.52674047
0
LINE
8
0
10
48.8466989
20
-4.52674047
11
48.8233
21
-4.696084
0
LINE
8
0
10
48.8233
20
-4.696084
11
48.8140112
21
-4.71818289
0
LINE
8
0
10
48.8140112
20
-4.71818289
11
48.74777
21
-4.875777
0
LINE
8
0
10
48.74777
20
-4.875777
11
48.7330996
21
-4.89473568
0
LINE
8
0
10
48.7330996
20
-4.89473568
11
48.62848
21
-5.029936
0
LINE
8
0
10
48.62848
20
-5.029936
11
48.6094191
21
-5.04447387
0
LINE
8
0
10
48.6094191
20
-5.04447387
11
48.47349
21
-5.148148
0
LINE
8
0
10
48.47349
20
-5.148148
11
48.4513263
21
-5.15728306
0
LINE
8
0
10
48.4513263
20
-5.15728306
11
48.29327
21
-5.222428
0
LINE
8
0
10
48.29327
20
-5.222428
11
48.2695014
21
-5.22554312
0
LINE
8
0
10
48.2695014
20
-5.22554312
11
48.1
21
-5.247758
0
LINE
8
0
10
48.1
20
-5.247758
11
48.0762314
21
-5.24464288
0
LINE
8
0
10
48.0762314
20
-5.24464288
11
47.90673
21
-5.222428
0
LINE
8
0
10
47.90673
20
-5.222428
11
47.8845663
21
-5.21329294
0
LINE
8
0
10
47.8845663
20
-5.21329294
11
47.72651
21
-5.148148
0
LINE
8
0
10
47.72651
20
-5.148148
11
47.7074491
21
-5.13361013
0
LINE
8
0
10
47.7074491
20
-5.13361013
11
47.57152
21
-5.029936
0
LINE
8
0
10
47.57152
20
-5.029936
11
47.5568496
21
-5.01097732
0
LINE
8
0
10
47.5568496
20
-5.01097732
11
47.45223
21
-4.875777
0
LINE
8
0
10
47.45223
20
-4.875777
11
47.4429412
21
-4.85367811
0
LINE
8
0
10
47.4429412
20
-4.85367811
11
47.3767
21
-4.696084
0
LINE
8
0
10
47.3767
20
-4.696084
11
47.3734189
21
-4.67233753
0
LINE
8
0
10
47.3734189
20
-4.67233753
11
47.35002
21
-4.502994
0
LINE
8
0
10
47.35002
20
-4.502994
11
47.3529691
21
-4.47920412
0
LINE
8
0
10
47.3529691
20
-4.47920412
11
47.374
21
-4.309551
0
LINE
8
0
10
47.374
20
-4.309551
11
47.3829801
21
-4.28732445
0
LINE
8
0
10
47.3829801
20
-4.28732445
11
47.44702
21
-4.12882
0
LINE
8
0
10
47.44702
20
-4.12882
11
47.4614248
21
-4.1096584
0
LINE
8
0
10
47.4614248
20
-4.1096584
11
47.56415
21
-3.973011
0
LINE
8
0
10
47.56415
20
-3.973011
11
47.7991252
21
-3.73306002
0
LINE
8
0
10
47.7991252
20
-3.73306002
11
48.1
21
-3.425814
0
LINE
8
0
10
48.1
20
-3.425814
11
48.3349752
21
-3.66576498
0
LINE
8
0
10
48.3349752
20
-3.66576498
11
48.63585
21
-3.973011
0
LINE
8
0
10
48.63585
20
-3.973011
11
48.7385752
21
-4.1096584
0
LINE
8
0
10
48.7385752
20
-4.1096584
11
48.75298
21
-4.12882
0
LINE
8
0
10
48.75298
20
-4.12882
11
48.7619601
21
-4.15104655
0
LINE
8
0
10
48.7619601
20
-4.15104655
11
48.826
21
-4.309551
0
LINE
8
0
10
48.826
20
-4.309551
11
48.8289491
21
-4.33334088
0
LINE
8
0
10
48.8289491
20
-4.33334088
11
48.84998
21
-4.502994
0
LINE
8
0
10
48.84998
20
-4.502994
11
48.84998
21
-4.502994
0
ENDSEC
0
EOF
