0
SECTION
2
ENTITIES
0
LINE
8
0
10
16
20
16.7834072
11
16
21
17.3653878
0
LINE
8
0
10
16
20
17.3653878
11
16
21
18.4824339
0
LINE
8
0
10
16
20
18.4824339
11
16
21
19.6611643
0
LINE
8
0
10
16
20
19.6611643
11
14.1489302
21
19.6611643
0
LINE
8
0
10
14.1489302
20
19.6611643
11
2.4
21
19.6611643
0
LINE
8
0
10
2.4
20
19.6611643
11
2.4
21
19.0182211
0
LINE
8
0
10
2.4
20
19.0182211
11
2.4
21
18.4824339
0
LINE
8
0
10
2.4
20
18.4824339
11
2.4
21
13.8235089
0
LINE
8
0
10
2.4
20
13.8235089
11
2.4
21
13.6285199
0
LINE
8
0
10
2.4
20
13.6285199
11
2.4
21
13.3981881
0
LINE
8
0
10
2.4
20
13.3981881
11
2.4
21
13.159026
0
LINE
8
0
10
2.4
20
13.159026
11
2.4
21
12.9414481
0
LINE
8
0
10
2.4
20
12.9414481
11
2.4
21
9.26885675
0
LINE
8
0
10
2.4
20
9.26885675
11
2.4
21
8.73307063
0
LINE
8
0
10
2.4
20
8.73307063
11
2.4
21
8.09012675
0
LINE
8
0
10
2.4
20
8.09012675
11
4.25106981
21
8.09012675
0
LINE
8
0
10
4.25106981
20
8.09012675
11
16
21
8.09012675
0
LINE
8
0
10
16
20
8.09012675
11
16
21
4.349365
0
LINE
8
0
10
16
20
4.349365
11
16
21
4.14256404
0
LINE
8
0
10
16
20
4.14256404
11
16
21
4
0
LINE
8
0
10
16
20
4
11
8.19322269
21
4
0
LINE
8
0
10
8.19322269
20
4
11
2.4
21
4
0
LINE
8
0
10
2.4
20
4
11
2.4
21
-0.24349695
0
LINE
8
0
10
2.4
20
-0.24349695
11
2.4
21
-11.2786594
0
LINE
8
0
10
2.4
20
-11.2786594
11
2.4
21
-11.4187691
0
LINE
8
0
10
2.4
20
-11.4187691
11
2.4
21
-11.8265906
0
LINE
8
0
10
2.4
20
-11.8265906
11
2.4
21
-13.9921623
0
LINE
8
0
10
2.4
20
-13.9921623
11
2.4
21
-14
0
LINE
8
0
10
2.4
20
-14
11
2.41839263
21
-14.1397071
0
LINE
8
0
10
2.41839263
20
-14.1397071
11
2.43678527
21
-14.2794143
0
LINE
8
0
10
2.43678527
20
-14.2794143
11
2.44328047
21
-14.3876155
0
LINE
8
0
10
2.44328047
20
-14.3876155
11
2.4625382
21
-14.4947709
0
LINE
8
0
10
2.4625382
20
-14.4947709
11
2.53665609
21
-14.6976984
0
LINE
8
0
10
2.53665609
20
-14.6976984
11
2.64132567
21
-14.9503919
0
LINE
8
0
10
2.64132567
20
-14.9503919
11
2.75065232
21
-15.1211607
0
LINE
8
0
10
2.75065232
20
-15.1211607
11
2.91305927
21
-15.3328119
0
LINE
8
0
10
2.91305927
20
-15.3328119
11
3.04334999
21
-15.4672813
0
LINE
8
0
10
3.04334999
20
-15.4672813
11
3.24960366
21
-15.6253958
0
LINE
8
0
10
3.24960366
20
-15.6253958
11
3.40205044
21
-15.7331048
0
LINE
8
0
10
3.40205044
20
-15.7331048
11
3.5799253
21
-15.8151284
0
LINE
8
0
10
3.5799253
20
-15.8151284
11
3.80002409
21
-15.9061729
0
LINE
8
0
10
3.80002409
20
-15.9061729
11
3.98748798
21
-15.9544871
0
LINE
8
0
10
3.98748798
20
-15.9544871
11
4.11031795
21
-15.9754768
0
LINE
8
0
10
4.11031795
20
-15.9754768
11
4.4
21
-16
0
LINE
8
0
10
4.4
20
-16
11
8.82305653
21
-16
0
LINE
8
0
10
8.82305653
20
-16
11
23.0057246
21
-16
0
LINE
8
0
10
23.0057246
20
-16
11
29.8322795
21
-16
0
LINE
8
0
10
29.8322795
20
-16
11
33.3594224
21
-16
0
LINE
8
0
10
33.3594224
20
-16
11
37
21
-16
0
LINE
8
0
10
37
20
-16
11
37.081913
21
-15.9960292
0
LINE
8
0
10
37.081913
20
-15.9960292
11
37.1216041
21
-15.9908045
0
LINE
8
0
10
37.1216041
20
-15.9908045
11
37.2027551
21
-15.978926
0
LINE
8
0
10
37.2027551
20
-15.978926
11
37.2823652
21
-15.95925
0
LINE
8
0
10
37.2823652
20
-15.95925
11
37.3193512
21
-15.9439299
0
LINE
8
0
10
37.3193512
20
-15.9439299
11
37.5435004
21
-15.8391404
0
LINE
8
0
10
37.5435004
20
-15.8391404
11
37.5569023
21
-15.8288568
0
LINE
8
0
10
37.5569023
20
-15.8288568
11
37.6904292
21
-15.7087226
0
LINE
8
0
10
37.6904292
20
-15.7087226
11
46.2128932
21
-15.7041197
0
LINE
8
0
10
46.2128932
20
-15.7041197
11
53.11421
21
-15.6946869
0
LINE
8
0
10
53.11421
20
-15.6946869
11
68.2537672
21
-15.71617
0
LINE
8
0
10
68.2537672
20
-15.71617
11
69.1609783
21
-15.7166405
0
LINE
8
0
10
69.1609783
20
-15.7166405
11
69.4308253
21
-15.6810208
0
LINE
8
0
10
69.4308253
20
-15.6810208
11
69.6265915
21
-15.6596366
0
LINE
8
0
10
69.6265915
20
-15.6596366
11
69.8441381
21
-15.5945309
0
LINE
8
0
10
69.8441381
20
-15.5945309
11
70.1632913
21
-15.4690424
0
LINE
8
0
10
70.1632913
20
-15.4690424
11
70.3136767
21
-15.390546
0
LINE
8
0
10
70.3136767
20
-15.390546
11
70.6493342
21
-15.1371822
0
LINE
8
0
10
70.6493342
20
-15.1371822
11
70.7573489
21
-15.0491419
0
LINE
8
0
10
70.7573489
20
-15.0491419
11
70.8453891
21
-14.9411274
0
LINE
8
0
10
70.8453891
20
-14.9411274
11
71.098746
21
-14.6054702
0
LINE
8
0
10
71.098746
20
-14.6054702
11
71.1772424
21
-14.4550813
0
LINE
8
0
10
71.1772424
20
-14.4550813
11
71.3027309
21
-14.1359332
0
LINE
8
0
10
71.3027309
20
-14.1359332
11
71.3375334
21
-14.0389609
0
LINE
8
0
10
71.3375334
20
-14.0389609
11
71.3678366
21
-13.9183915
0
LINE
8
0
10
71.3678366
20
-13.9183915
11
71.4182263
21
-13.5115309
0
LINE
8
0
10
71.4182263
20
-13.5115309
11
71.4248505
21
-13.4527783
0
LINE
8
0
10
71.4248505
20
-13.4527783
11
71.4248505
21
-11.4031834
0
LINE
8
0
10
71.4248505
20
-11.4031834
11
71.4012727
21
8.2348459
0
LINE
8
0
10
71.4012727
20
8.2348459
11
71.424357
21
16.6205371
0
LINE
8
0
10
71.424357
20
16.6205371
11
68.4413921
21
16.6205364
0
LINE
8
0
10
68.4413921
20
16.6205364
11
61.9077741
21
16.6205299
0
LINE
8
0
10
61.9077741
20
16.6205299
11
60.9570964
21
16.6205305
0
LINE
8
0
10
60.9570964
20
16.6205305
11
60.5812007
21
16.6205316
0
LINE
8
0
10
60.5812007
20
16.6205316
11
60.1557154
21
16.6205315
0
LINE
8
0
10
60.1557154
20
16.6205315
11
59.6
21
16.6205315
0
LINE
8
0
10
59.6
20
16.6205315
11
59.6
21
16.791223
0
LINE
8
0
10
59.6
20
16.791223
11
59.4664277
21
16.9401368
0
LINE
8
0
10
59.4664277
20
16.9401368
11
58.1
21
18.4635097
0
LINE
8
0
10
58.1
20
18.4635097
11
47.7788517
21
18.4635097
0
LINE
8
0
10
47.7788517
20
18.4635097
11
38
21
18.4635097
0
LINE
8
0
10
38
20
18.4635097
11
38
21
16.6205297
0
LINE
8
0
10
38
20
16.6205297
11
34.5380025
21
16.620529
0
LINE
8
0
10
34.5380025
20
16.620529
11
25.2082715
21
16.6205304
0
LINE
8
0
10
25.2082715
20
16.6205304
11
16
21
16.6205326
0
LINE
8
0
10
16
20
16.6205326
11
16
21
16.7834072
0
LINE
8
0
10
16
20
16.7834072
11
16
21
16.7834072
0
LINE
8
0
10
16
20
28.321415
11
16
21
27.1426843
0
LINE
8
0
10
16
20
27.1426843
11
4.25106981
21
27.1426843
0
LINE
8
0
10
4.25106981
20
27.1426843
11
2.4
21
27.1426843
0
LINE
8
0
10
2.4
20
27.1426843
11
2.4
21
27.6665654
0
LINE
8
0
10
2.4
20
27.6665654
11
2.4
21
28.321415
0
LINE
8
0
10
2.4
20
28.321415
11
2.4
21
31.771097
0
LINE
8
0
10
2.4
20
31.771097
11
2.4
21
34.070885
0
LINE
8
0
10
2.4
20
34.070885
11
2.4
21
36.1812635
0
LINE
8
0
10
2.4
20
36.1812635
11
2.4
21
38.7137177
0
LINE
8
0
10
2.4
20
38.7137177
11
8.70893019
21
38.7137177
0
LINE
8
0
10
8.70893019
20
38.7137177
11
16
21
38.7137177
0
LINE
8
0
10
16
20
38.7137177
11
16
21
34.070885
0
LINE
8
0
10
16
20
34.070885
11
16
21
28.321415
0
LINE
8
0
10
16
20
28.321415
11
16
21
28.321415
0
LINE
8
0
10
16
20
48.2336767
11
16
21
47.373975
0
LINE
8
0
10
16
20
47.373975
11
16
21
42.7311423
0
LINE
8
0
10
16
20
42.7311423
11
9.69106981
21
42.7311423
0
LINE
8
0
10
9.69106981
20
42.7311423
11
2.4
21
42.7311423
0
LINE
8
0
10
2.4
20
42.7311423
11
2.4
21
44.7946235
0
LINE
8
0
10
2.4
20
44.7946235
11
2.4
21
47.373975
0
LINE
8
0
10
2.4
20
47.373975
11
2.4
21
48.6161261
0
LINE
8
0
10
2.4
20
48.6161261
11
2.4
21
48.7832606
0
LINE
8
0
10
2.4
20
48.7832606
11
2.4
21
49.0599061
0
LINE
8
0
10
2.4
20
49.0599061
11
2.4
21
51.284624
0
LINE
8
0
10
2.4
20
51.284624
11
2.4
21
53.3739785
0
LINE
8
0
10
2.4
20
53.3739785
11
2.42344675
21
53.7301704
0
LINE
8
0
10
2.42344675
20
53.7301704
11
2.468148
21
54.4092559
0
LINE
8
0
10
2.468148
20
54.4092559
11
2.57954454
21
54.9471269
0
LINE
8
0
10
2.57954454
20
54.9471269
11
2.667949
21
55.373982
0
LINE
8
0
10
2.667949
20
55.373982
11
2.82374761
21
55.7800654
0
LINE
8
0
10
2.82374761
20
55.7800654
11
2.985786
21
56.2024125
0
LINE
8
0
10
2.985786
20
56.2024125
11
3.16544612
21
56.4781249
0
LINE
8
0
10
3.16544612
20
56.4781249
11
3.4
21
56.8380893
0
LINE
8
0
10
3.4
20
56.8380893
11
3.58906875
21
56.9947171
0
LINE
8
0
10
3.58906875
20
56.9947171
11
3.882362
21
57.2376863
0
LINE
8
0
10
3.882362
20
57.2376863
11
4.07298663
21
57.2878783
0
LINE
8
0
10
4.07298663
20
57.2878783
11
4.4
21
57.3739764
0
LINE
8
0
10
4.4
20
57.3739764
11
10.2535743
21
57.3739764
0
LINE
8
0
10
10.2535743
20
57.3739764
11
13
21
57.3739764
0
LINE
8
0
10
13
20
57.3739764
11
13.2670619
21
57.3388608
0
LINE
8
0
10
13.2670619
20
57.3388608
11
13.4781311
21
57.2913798
0
LINE
8
0
10
13.4781311
20
57.2913798
11
13.6669798
21
57.2127427
0
LINE
8
0
10
13.6669798
20
57.2127427
11
13.7796152
21
57.167835
0
LINE
8
0
10
13.7796152
20
57.167835
11
13.8945819
21
57.0891919
0
LINE
8
0
10
13.8945819
20
57.0891919
11
14.380892
21
56.6879015
0
LINE
8
0
10
14.380892
20
56.6879015
11
14.5029708
21
56.5666861
0
LINE
8
0
10
14.5029708
20
56.5666861
11
14.6836298
21
56.309796
0
LINE
8
0
10
14.6836298
20
56.309796
11
15.0447499
21
55.758538
0
LINE
8
0
10
15.0447499
20
55.758538
11
15.0472573
21
55.7542568
0
LINE
8
0
10
15.0472573
20
55.7542568
11
15.1538169
21
55.5493847
0
LINE
8
0
10
15.1538169
20
55.5493847
11
15.2487865
21
55.3228571
0
LINE
8
0
10
15.2487865
20
55.3228571
11
15.4950178
21
54.6859535
0
LINE
8
0
10
15.4950178
20
54.6859535
11
15.6651219
21
54.1142031
0
LINE
8
0
10
15.6651219
20
54.1142031
11
15.8005869
21
53.4667617
0
LINE
8
0
10
15.8005869
20
53.4667617
11
15.9168256
21
52.7700378
0
LINE
8
0
10
15.9168256
20
52.7700378
11
15.9561736
21
52.0397871
0
LINE
8
0
10
15.9561736
20
52.0397871
11
15.9848233
21
51.6433613
0
LINE
8
0
10
15.9848233
20
51.6433613
11
16
21
51.3739816
0
LINE
8
0
10
16
20
51.3739816
11
16
21
49.6432575
0
LINE
8
0
10
16
20
49.6432575
11
16
21
48.2336767
0
LINE
8
0
10
16
20
48.2336767
11
16
21
48.2336767
0
LINE
8
0
10
47.4829447
20
-4.08103212
11
47.56415
21
-3.973011
0
LINE
8
0
10
47.56415
20
-3.973011
11
47.7499002
21
-3.78332737
0
LINE
8
0
10
47.7499002
20
-3.78332737
11
48.1
21
-3.425814
0
LINE
8
0
10
48.1
20
-3.425814
11
48.2857502
21
-3.61549763
0
LINE
8
0
10
48.2857502
20
-3.61549763
11
48.63585
21
-3.973011
0
LINE
8
0
10
48.63585
20
-3.973011
11
48.7170553
21
-4.08103212
0
LINE
8
0
10
48.7170553
20
-4.08103212
11
48.75298
21
-4.12882
0
LINE
8
0
10
48.75298
20
-4.12882
11
48.7753758
21
-4.18425166
0
LINE
8
0
10
48.7753758
20
-4.18425166
11
48.826
21
-4.309551
0
LINE
8
0
10
48.826
20
-4.309551
11
48.8333549
21
-4.36888153
0
LINE
8
0
10
48.8333549
20
-4.36888153
11
48.84998
21
-4.502994
0
LINE
8
0
10
48.84998
20
-4.502994
11
48.841797
21
-4.56221626
0
LINE
8
0
10
48.841797
20
-4.56221626
11
48.8233
21
-4.696084
0
LINE
8
0
10
48.8233
20
-4.696084
11
48.8001343
21
-4.75119729
0
LINE
8
0
10
48.8001343
20
-4.75119729
11
48.74777
21
-4.875777
0
LINE
8
0
10
48.74777
20
-4.875777
11
48.7111828
21
-4.92305881
0
LINE
8
0
10
48.7111828
20
-4.92305881
11
48.62848
21
-5.029936
0
LINE
8
0
10
48.62848
20
-5.029936
11
48.5809433
21
-5.06619257
0
LINE
8
0
10
48.5809433
20
-5.06619257
11
48.47349
21
-5.148148
0
LINE
8
0
10
48.47349
20
-5.148148
11
48.4182151
21
-5.17093028
0
LINE
8
0
10
48.4182151
20
-5.17093028
11
48.29327
21
-5.222428
0
LINE
8
0
10
48.29327
20
-5.222428
11
48.2339925
21
-5.23019692
0
LINE
8
0
10
48.2339925
20
-5.23019692
11
48.1
21
-5.247758
0
LINE
8
0
10
48.1
20
-5.247758
11
48.0407225
21
-5.23998908
0
LINE
8
0
10
48.0407225
20
-5.23998908
11
47.90673
21
-5.222428
0
LINE
8
0
10
47.90673
20
-5.222428
11
47.8514551
21
-5.19964572
0
LINE
8
0
10
47.8514551
20
-5.19964572
11
47.72651
21
-5.148148
0
LINE
8
0
10
47.72651
20
-5.148148
11
47.6789733
21
-5.11189143
0
LINE
8
0
10
47.6789733
20
-5.11189143
11
47.57152
21
-5.029936
0
LINE
8
0
10
47.57152
20
-5.029936
11
47.5349328
21
-4.98265419
0
LINE
8
0
10
47.5349328
20
-4.98265419
11
47.45223
21
-4.875777
0
LINE
8
0
10
47.45223
20
-4.875777
11
47.4290643
21
-4.82066371
0
LINE
8
0
10
47.4290643
20
-4.82066371
11
47.3767
21
-4.696084
0
LINE
8
0
10
47.3767
20
-4.696084
11
47.368517
21
-4.63686174
0
LINE
8
0
10
47.368517
20
-4.63686174
11
47.35002
21
-4.502994
0
LINE
8
0
10
47.35002
20
-4.502994
11
47.3573749
21
-4.44366347
0
LINE
8
0
10
47.3573749
20
-4.44366347
11
47.374
21
-4.309551
0
LINE
8
0
10
47.374
20
-4.309551
11
47.3963958
21
-4.25411934
0
LINE
8
0
10
47.3963958
20
-4.25411934
11
47.44702
21
-4.12882
0
LINE
8
0
10
47.44702
20
-4.12882
11
47.4829447
21
-4.08103212
0
LINE
8
0
10
47.4829447
20
-4.08103212
11
47.4829447
21
-4.08103212
0
ENDSEC
0
EOF
