0
SECTION
2
ENTITIES
0
LINE
8
0
10
16
20
16.4612503
11
16
21
16.2925464
0
LINE
8
0
10
16
20
16.2925464
11
24.8941939
21
16.2925443
0
LINE
8
0
10
24.8941939
20
16.2925443
11
34.996728
21
16.2925428
0
LINE
8
0
10
34.996728
20
16.2925428
11
38
21
16.2925434
0
LINE
8
0
10
38
20
16.2925434
11
38
21
18.4836013
0
LINE
8
0
10
38
20
18.4836013
11
45.8295286
21
18.4836013
0
LINE
8
0
10
45.8295286
20
18.4836013
11
58.1
21
18.4836013
0
LINE
8
0
10
58.1
20
18.4836013
11
59.194043
21
17.2638986
0
LINE
8
0
10
59.194043
20
17.2638986
11
59.6
21
16.8113156
0
LINE
8
0
10
59.6
20
16.8113156
11
59.6
21
16.292545
0
LINE
8
0
10
59.6
20
16.292545
11
61.2889464
21
16.292545
0
LINE
8
0
10
61.2889464
20
16.292545
11
62.5820938
21
16.2925452
0
LINE
8
0
10
62.5820938
20
16.2925452
11
63.7245271
21
16.2925419
0
LINE
8
0
10
63.7245271
20
16.2925419
11
66.6138548
21
16.2925401
0
LINE
8
0
10
66.6138548
20
16.2925401
11
71.2973061
21
16.2925447
0
LINE
8
0
10
71.2973061
20
16.2925447
11
71.3054088
21
5.42323468
0
LINE
8
0
10
71.3054088
20
5.42323468
11
71.2993036
21
3.20544332
0
LINE
8
0
10
71.2993036
20
3.20544332
11
71.3052225
21
-1.72440102
0
LINE
8
0
10
71.3052225
20
-1.72440102
11
71.2966993
21
-13.4314175
0
LINE
8
0
10
71.2966993
20
-13.4314175
11
71.2959938
21
-13.5547894
0
LINE
8
0
10
71.2959938
20
-13.5547894
11
71.2910861
21
-13.615386
0
LINE
8
0
10
71.2910861
20
-13.615386
11
71.2749966
21
-13.779982
0
LINE
8
0
10
71.2749966
20
-13.779982
11
71.2701287
21
-13.8098833
0
LINE
8
0
10
71.2701287
20
-13.8098833
11
71.2316398
21
-14.0098393
0
LINE
8
0
10
71.2316398
20
-14.0098393
11
71.2310793
21
-14.012063
0
LINE
8
0
10
71.2310793
20
-14.012063
11
71.2253406
21
-14.0313938
0
LINE
8
0
10
71.2253406
20
-14.0313938
11
71.1675699
21
-14.1923631
0
LINE
8
0
10
71.1675699
20
-14.1923631
11
71.1478566
21
-14.242499
0
LINE
8
0
10
71.1478566
20
-14.242499
11
70.9705208
21
-14.5822516
0
LINE
8
0
10
70.9705208
20
-14.5822516
11
70.8892189
21
-14.6899635
0
LINE
8
0
10
70.8892189
20
-14.6899635
11
70.668707
21
-14.9605045
0
LINE
8
0
10
70.668707
20
-14.9605045
11
70.3981657
21
-15.1810167
0
LINE
8
0
10
70.3981657
20
-15.1810167
11
70.2904537
21
-15.2623208
0
LINE
8
0
10
70.2904537
20
-15.2623208
11
69.950709
21
-15.4396566
0
LINE
8
0
10
69.950709
20
-15.4396566
11
69.9005724
21
-15.4593699
0
LINE
8
0
10
69.9005724
20
-15.4593699
11
69.7532935
21
-15.5034465
0
LINE
8
0
10
69.7532935
20
-15.5034465
11
69.5582478
21
-15.5492425
0
LINE
8
0
10
69.5582478
20
-15.5492425
11
69.5180848
21
-15.5619287
0
LINE
8
0
10
69.5180848
20
-15.5619287
11
69.4434915
21
-15.5705559
0
LINE
8
0
10
69.4434915
20
-15.5705559
11
69.1396175
21
-15.5884893
0
LINE
8
0
10
69.1396175
20
-15.5884893
11
53.3952317
21
-15.5999581
0
LINE
8
0
10
53.3952317
20
-15.5999581
11
53.11421
21
-15.5995593
0
LINE
8
0
10
53.11421
20
-15.5995593
11
53.0085307
21
-15.5997038
0
LINE
8
0
10
53.0085307
20
-15.5997038
11
52.3125191
21
-15.6000797
0
LINE
8
0
10
52.3125191
20
-15.6000797
11
37.7962948
21
-15.5936955
0
LINE
8
0
10
37.7962948
20
-15.5936955
11
37.772956
21
-15.634179
0
LINE
8
0
10
37.772956
20
-15.634179
11
37.7704255
21
-15.6374767
0
LINE
8
0
10
37.7704255
20
-15.6374767
11
37.5650512
21
-15.8222519
0
LINE
8
0
10
37.5650512
20
-15.8222519
11
37.5411404
21
-15.8405992
0
LINE
8
0
10
37.5411404
20
-15.8405992
11
37.3291516
21
-15.9397037
0
LINE
8
0
10
37.3291516
20
-15.9397037
11
37.2810879
21
-15.9596124
0
LINE
8
0
10
37.2810879
20
-15.9596124
11
37.2057967
21
-15.978221
0
LINE
8
0
10
37.2057967
20
-15.978221
11
37.1290482
21
-15.989455
0
LINE
8
0
10
37.1290482
20
-15.989455
11
37.0774691
21
-15.9962446
0
LINE
8
0
10
37.0774691
20
-15.9962446
11
37
21
-16
0
LINE
8
0
10
37
20
-16
11
33.5569286
21
-16
0
LINE
8
0
10
33.5569286
20
-16
11
28.9733571
21
-16
0
LINE
8
0
10
28.9733571
20
-16
11
22.517152
21
-16
0
LINE
8
0
10
22.517152
20
-16
11
9.10391265
21
-16
0
LINE
8
0
10
9.10391265
20
-16
11
4.4
21
-16
0
LINE
8
0
10
4.4
20
-16
11
4.11272415
21
-15.9756805
0
LINE
8
0
10
4.11272415
20
-15.9756805
11
3.98281998
21
-15.9534819
0
LINE
8
0
10
3.98281998
20
-15.9534819
11
3.80368021
21
-15.9073131
0
LINE
8
0
10
3.80368021
20
-15.9073131
11
3.57200789
21
-15.8114811
0
LINE
8
0
10
3.57200789
20
-15.8114811
11
3.40203137
21
-15.7330997
0
LINE
8
0
10
3.40203137
20
-15.7330997
11
3.25635383
21
-15.6301734
0
LINE
8
0
10
3.25635383
20
-15.6301734
11
3.04079392
21
-15.4649247
0
LINE
8
0
10
3.04079392
20
-15.4649247
11
2.91628862
21
-15.3364263
0
LINE
8
0
10
2.91628862
20
-15.3364263
11
2.74697997
21
-15.1157807
0
LINE
8
0
10
2.74697997
20
-15.1157807
11
2.64250785
21
-14.9525947
0
LINE
8
0
10
2.64250785
20
-14.9525947
11
2.53361406
21
-14.6897031
0
LINE
8
0
10
2.53361406
20
-14.6897031
11
2.4627873
21
-14.4957864
0
LINE
8
0
10
2.4627873
20
-14.4957864
11
2.44438468
21
-14.3933891
0
LINE
8
0
10
2.44438468
20
-14.3933891
11
2.4381779
21
-14.2899925
0
LINE
8
0
10
2.4381779
20
-14.2899925
11
2.41908894
21
-14.1449962
0
LINE
8
0
10
2.41908894
20
-14.1449962
11
2.4
21
-14
0
LINE
8
0
10
2.4
20
-14
11
2.4
21
-13.9918656
0
LINE
8
0
10
2.4
20
-13.9918656
11
2.4
21
-11.744309
0
LINE
8
0
10
2.4
20
-11.744309
11
2.4
21
-11.3406279
0
LINE
8
0
10
2.4
20
-11.3406279
11
2.4
21
-11.1952577
0
LINE
8
0
10
2.4
20
-11.1952577
11
2.4
21
0.254227664
0
LINE
8
0
10
2.4
20
0.254227664
11
2.4
21
4
0
LINE
8
0
10
2.4
20
4
11
7.51372897
21
4
0
LINE
8
0
10
7.51372897
20
4
11
16
21
4
0
LINE
8
0
10
16
20
4
11
16
21
4.12584254
0
LINE
8
0
10
16
20
4.12584254
11
16
21
4.349365
0
LINE
8
0
10
16
20
4.349365
11
16
21
7.69234676
0
LINE
8
0
10
16
20
7.69234676
11
5.50041143
21
7.69234676
0
LINE
8
0
10
5.50041143
20
7.69234676
11
2.4
21
7.69234676
0
LINE
8
0
10
2.4
20
7.69234676
11
2.4
21
8.76923243
0
LINE
8
0
10
2.4
20
8.76923243
11
2.4
21
9.6666364
0
LINE
8
0
10
2.4
20
9.6666364
11
2.4
21
13.0221123
0
LINE
8
0
10
2.4
20
13.0221123
11
2.4
21
13.2209031
0
LINE
8
0
10
2.4
20
13.2209031
11
2.4
21
13.4394144
0
LINE
8
0
10
2.4
20
13.4394144
11
2.4
21
13.6498579
0
LINE
8
0
10
2.4
20
13.6498579
11
2.4
21
13.8280103
0
LINE
8
0
10
2.4
20
13.8280103
11
2.4
21
18.0846533
0
LINE
8
0
10
2.4
20
18.0846533
11
2.4
21
18.982059
0
LINE
8
0
10
2.4
20
18.982059
11
2.4
21
20.0589436
0
LINE
8
0
10
2.4
20
20.0589436
11
12.8995886
21
20.0589436
0
LINE
8
0
10
12.8995886
20
20.0589436
11
16
21
20.0589436
0
LINE
8
0
10
16
20
20.0589436
11
16
21
18.0846533
0
LINE
8
0
10
16
20
18.0846533
11
16
21
17.0640602
0
LINE
8
0
10
16
20
17.0640602
11
16
21
16.4612503
0
LINE
8
0
10
16
20
16.4612503
11
16
21
16.4612503
0
LINE
8
0
10
16
20
26.7449041
11
16
21
28.7191948
0
LINE
8
0
10
16
20
28.7191948
11
16
21
33.6731052
0
LINE
8
0
10
16
20
33.6731052
11
16
21
39.1114979
0
LINE
8
0
10
16
20
39.1114979
11
7.45958857
21
39.1114979
0
LINE
8
0
10
7.45958857
20
39.1114979
11
2.4
21
39.1114979
0
LINE
8
0
10
2.4
20
39.1114979
11
2.4
21
36.1451019
0
LINE
8
0
10
2.4
20
36.1451019
11
2.4
21
33.6731052
0
LINE
8
0
10
2.4
20
33.6731052
11
2.4
21
31.691541
0
LINE
8
0
10
2.4
20
31.691541
11
2.4
21
28.7191948
0
LINE
8
0
10
2.4
20
28.7191948
11
2.4
21
27.6223679
0
LINE
8
0
10
2.4
20
27.6223679
11
2.4
21
26.7449041
0
LINE
8
0
10
2.4
20
26.7449041
11
5.50041143
21
26.7449041
0
LINE
8
0
10
5.50041143
20
26.7449041
11
16
21
26.7449041
0
LINE
8
0
10
16
20
26.7449041
11
16
21
26.7449041
0
LINE
8
0
10
16
20
51.7717615
11
16
21
49.8760996
0
LINE
8
0
10
16
20
49.8760996
11
16
21
48.332186
0
LINE
8
0
10
16
20
48.332186
11
16
21
47.7717548
0
LINE
8
0
10
16
20
47.7717548
11
16
21
42.3333621
0
LINE
8
0
10
16
20
42.3333621
11
10.9404114
21
42.3333621
0
LINE
8
0
10
10.9404114
20
42.3333621
11
2.4
21
42.3333621
0
LINE
8
0
10
2.4
20
42.3333621
11
2.4
21
44.7504255
0
LINE
8
0
10
2.4
20
44.7504255
11
2.4
21
47.7717548
0
LINE
8
0
10
2.4
20
47.7717548
11
2.4
21
48.581501
0
LINE
8
0
10
2.4
20
48.581501
11
2.4
21
48.6904543
0
LINE
8
0
10
2.4
20
48.6904543
11
2.4
21
48.8707968
0
LINE
8
0
10
2.4
20
48.8707968
11
2.4
21
51.3981668
0
LINE
8
0
10
2.4
20
51.3981668
11
2.4
21
53.7717584
0
LINE
8
0
10
2.4
20
53.7717584
11
2.42663646
21
54.1764069
0
LINE
8
0
10
2.42663646
20
54.1764069
11
2.468148
21
54.8070355
0
LINE
8
0
10
2.468148
20
54.8070355
11
2.57159571
21
55.306526
0
LINE
8
0
10
2.57159571
20
55.306526
11
2.667949
21
55.7717615
0
LINE
8
0
10
2.667949
20
55.7717615
11
2.81097225
21
56.1445464
0
LINE
8
0
10
2.81097225
20
56.1445464
11
2.985786
21
56.6001921
0
LINE
8
0
10
2.985786
20
56.6001921
11
3.14855008
21
56.8499752
0
LINE
8
0
10
3.14855008
20
56.8499752
11
3.4
21
57.2358696
0
LINE
8
0
10
3.4
20
57.2358696
11
3.56902905
21
57.3758961
0
LINE
8
0
10
3.56902905
20
57.3758961
11
3.882362
21
57.6354665
0
LINE
8
0
10
3.882362
20
57.6354665
11
4.05102852
21
57.6798769
0
LINE
8
0
10
4.05102852
20
57.6798769
11
4.4
21
57.7717563
0
LINE
8
0
10
4.4
20
57.7717563
11
10.0691588
21
57.7717563
0
LINE
8
0
10
10.0691588
20
57.7717563
11
13
21
57.7717563
0
LINE
8
0
10
13
20
57.7717563
11
13.2586482
21
57.737747
0
LINE
8
0
10
13.2586482
20
57.737747
11
13.4840403
21
57.687044
0
LINE
8
0
10
13.4840403
20
57.687044
11
13.6857042
21
57.6030707
0
LINE
8
0
10
13.6857042
20
57.6030707
11
13.7795174
21
57.5656673
0
LINE
8
0
10
13.7795174
20
57.5656673
11
13.8752724
21
57.500166
0
LINE
8
0
10
13.8752724
20
57.500166
11
14.3976401
21
57.0691218
0
LINE
8
0
10
14.3976401
20
57.0691218
11
14.5025531
21
56.9649509
0
LINE
8
0
10
14.5025531
20
56.9649509
11
14.6578091
21
56.7441828
0
LINE
8
0
10
14.6578091
20
56.7441828
11
15.0533441
21
56.1403897
0
LINE
8
0
10
15.0533441
20
56.1403897
11
15.05557
21
56.136589
0
LINE
8
0
10
15.05557
20
56.136589
11
15.1501694
21
55.9547116
0
LINE
8
0
10
15.1501694
20
55.9547116
11
15.2344798
21
55.7536094
0
LINE
8
0
10
15.2344798
20
55.7536094
11
15.5041768
21
55.0560089
0
LINE
8
0
10
15.5041768
20
55.0560089
11
15.659164
21
54.5350695
0
LINE
8
0
10
15.659164
20
54.5350695
11
15.8075387
21
53.825927
0
LINE
8
0
10
15.8075387
20
53.825927
11
15.9154633
21
53.179037
0
LINE
8
0
10
15.9154633
20
53.179037
11
15.9519969
21
52.5010182
0
LINE
8
0
10
15.9519969
20
52.5010182
11
15.9833769
21
52.066813
0
LINE
8
0
10
15.9833769
20
52.066813
11
16
21
51.7717615
0
LINE
8
0
10
16
20
51.7717615
11
16
21
51.7717615
0
LINE
8
0
10
48.2611378
20
-3.59036395
11
48.1
21
-3.425814
0
LINE
8
0
10
48.1
20
-3.425814
11
47.7252877
21
-3.80846105
0
LINE
8
0
10
47.7252877
20
-3.80846105
11
47.56415
21
-3.973011
0
LINE
8
0
10
47.56415
20
-3.973011
11
47.4937047
21
-4.06671898
0
LINE
8
0
10
47.4937047
20
-4.06671898
11
47.44702
21
-4.12882
0
LINE
8
0
10
47.44702
20
-4.12882
11
47.4031037
21
-4.23751679
0
LINE
8
0
10
47.4031037
20
-4.23751679
11
47.374
21
-4.309551
0
LINE
8
0
10
47.374
20
-4.309551
11
47.3595777
21
-4.42589315
0
LINE
8
0
10
47.3595777
20
-4.42589315
11
47.35002
21
-4.502994
0
LINE
8
0
10
47.35002
20
-4.502994
11
47.3660661
21
-4.61912384
0
LINE
8
0
10
47.3660661
20
-4.61912384
11
47.3767
21
-4.696084
0
LINE
8
0
10
47.3767
20
-4.696084
11
47.4221259
21
-4.8041565
0
LINE
8
0
10
47.4221259
20
-4.8041565
11
47.45223
21
-4.875777
0
LINE
8
0
10
47.45223
20
-4.875777
11
47.5239744
21
-4.96849263
0
LINE
8
0
10
47.5239744
20
-4.96849263
11
47.57152
21
-5.029936
0
LINE
8
0
10
47.57152
20
-5.029936
11
47.6647354
21
-5.10103207
0
LINE
8
0
10
47.6647354
20
-5.10103207
11
47.72651
21
-5.148148
0
LINE
8
0
10
47.72651
20
-5.148148
11
47.8348995
21
-5.19282211
0
LINE
8
0
10
47.8348995
20
-5.19282211
11
47.90673
21
-5.222428
0
LINE
8
0
10
47.90673
20
-5.222428
11
48.0229681
21
-5.23766219
0
LINE
8
0
10
48.0229681
20
-5.23766219
11
48.1
21
-5.247758
0
LINE
8
0
10
48.1
20
-5.247758
11
48.2162381
21
-5.23252381
0
LINE
8
0
10
48.2162381
20
-5.23252381
11
48.29327
21
-5.222428
0
LINE
8
0
10
48.29327
20
-5.222428
11
48.4016595
21
-5.17775389
0
LINE
8
0
10
48.4016595
20
-5.17775389
11
48.47349
21
-5.148148
0
LINE
8
0
10
48.47349
20
-5.148148
11
48.5667054
21
-5.07705193
0
LINE
8
0
10
48.5667054
20
-5.07705193
11
48.62848
21
-5.029936
0
LINE
8
0
10
48.62848
20
-5.029936
11
48.7002244
21
-4.93722037
0
LINE
8
0
10
48.7002244
20
-4.93722037
11
48.74777
21
-4.875777
0
LINE
8
0
10
48.74777
20
-4.875777
11
48.7931959
21
-4.7677045
0
LINE
8
0
10
48.7931959
20
-4.7677045
11
48.8233
21
-4.696084
0
LINE
8
0
10
48.8233
20
-4.696084
11
48.8393461
21
-4.57995416
0
LINE
8
0
10
48.8393461
20
-4.57995416
11
48.84998
21
-4.502994
0
LINE
8
0
10
48.84998
20
-4.502994
11
48.8355577
21
-4.38665185
0
LINE
8
0
10
48.8355577
20
-4.38665185
11
48.826
21
-4.309551
0
LINE
8
0
10
48.826
20
-4.309551
11
48.7820837
21
-4.20085421
0
LINE
8
0
10
48.7820837
20
-4.20085421
11
48.75298
21
-4.12882
0
LINE
8
0
10
48.75298
20
-4.12882
11
48.7062953
21
-4.06671898
0
LINE
8
0
10
48.7062953
20
-4.06671898
11
48.63585
21
-3.973011
0
LINE
8
0
10
48.63585
20
-3.973011
11
48.2611378
21
-3.59036395
0
LINE
8
0
10
48.2611378
20
-3.59036395
11
48.2611378
21
-3.59036395
0
ENDSEC
0
EOF
