0
SECTION
2
ENTITIES
0
LINE
8
0
10
16
20
15.6365741
11
16
21
15.8169367
0
LINE
8
0
10
16
20
15.8169367
11
16
21
16.4614052
0
LINE
8
0
10
16
20
16.4614052
11
16
21
17.2890922
0
LINE
8
0
10
16
20
17.2890922
11
16
21
20.8545023
0
LINE
8
0
10
16
20
20.8545023
11
10.4009053
21
20.8545023
0
LINE
8
0
10
10.4009053
20
20.8545023
11
2.4
21
20.8545023
0
LINE
8
0
10
2.4
20
20.8545023
11
2.4
21
18.909735
0
LINE
8
0
10
2.4
20
18.909735
11
2.4
21
17.2890922
0
LINE
8
0
10
2.4
20
17.2890922
11
2.4
21
13.8370129
0
LINE
8
0
10
2.4
20
13.8370129
11
2.4
21
13.6925338
0
LINE
8
0
10
2.4
20
13.6925338
11
2.4
21
13.521867
0
LINE
8
0
10
2.4
20
13.521867
11
2.4
21
13.3446574
0
LINE
8
0
10
2.4
20
13.3446574
11
2.4
21
13.1834407
0
LINE
8
0
10
2.4
20
13.1834407
11
2.4
21
10.4621957
0
LINE
8
0
10
2.4
20
10.4621957
11
2.4
21
8.84155604
0
LINE
8
0
10
2.4
20
8.84155604
11
2.4
21
6.89678678
0
LINE
8
0
10
2.4
20
6.89678678
11
7.99909466
21
6.89678678
0
LINE
8
0
10
7.99909466
20
6.89678678
11
16
21
6.89678678
0
LINE
8
0
10
16
20
6.89678678
11
16
21
4.349365
0
LINE
8
0
10
16
20
4.349365
11
16
21
4.09239954
0
LINE
8
0
10
16
20
4.09239954
11
16
21
4
0
LINE
8
0
10
16
20
4
11
6.15474153
21
4
0
LINE
8
0
10
6.15474153
20
4
11
2.4
21
4
0
LINE
8
0
10
2.4
20
4
11
2.4
21
1.24967689
0
LINE
8
0
10
2.4
20
1.24967689
11
2.4
21
-11.0284541
0
LINE
8
0
10
2.4
20
-11.0284541
11
2.4
21
-11.1843454
0
LINE
8
0
10
2.4
20
-11.1843454
11
2.4
21
-11.5797457
0
LINE
8
0
10
2.4
20
-11.5797457
11
2.4
21
-13.9912722
0
LINE
8
0
10
2.4
20
-13.9912722
11
2.4
21
-14
0
LINE
8
0
10
2.4
20
-14
11
2.42048157
21
-14.1555743
0
LINE
8
0
10
2.42048157
20
-14.1555743
11
2.44096315
21
-14.3111488
0
LINE
8
0
10
2.44096315
20
-14.3111488
11
2.44659311
21
-14.4049363
0
LINE
8
0
10
2.44659311
20
-14.4049363
11
2.46328549
21
-14.4978174
0
LINE
8
0
10
2.46328549
20
-14.4978174
11
2.52753
21
-14.6737125
0
LINE
8
0
10
2.52753
20
-14.6737125
11
2.64487221
21
-14.9570003
0
LINE
8
0
10
2.64487221
20
-14.9570003
11
2.73963527
21
-15.1050207
0
LINE
8
0
10
2.73963527
20
-15.1050207
11
2.92274732
21
-15.3436551
0
LINE
8
0
10
2.92274732
20
-15.3436551
11
3.03568179
21
-15.4602116
0
LINE
8
0
10
3.03568179
20
-15.4602116
11
3.26985416
21
-15.6397286
0
LINE
8
0
10
3.26985416
20
-15.6397286
11
3.40199323
21
-15.7330895
0
LINE
8
0
10
3.40199323
20
-15.7330895
11
3.55617307
21
-15.8041866
0
LINE
8
0
10
3.55617307
20
-15.8041866
11
3.81099246
21
-15.9095934
0
LINE
8
0
10
3.81099246
20
-15.9095934
11
3.97348397
21
-15.9514715
0
LINE
8
0
10
3.97348397
20
-15.9514715
11
4.11753653
21
-15.9760879
0
LINE
8
0
10
4.11753653
20
-15.9760879
11
4.4
21
-16
0
LINE
8
0
10
4.4
20
-16
11
9.66562488
21
-16
0
LINE
8
0
10
9.66562488
20
-16
11
21.5400067
21
-16
0
LINE
8
0
10
21.5400067
20
-16
11
27.2555124
21
-16
0
LINE
8
0
10
27.2555124
20
-16
11
33.951941
21
-16
0
LINE
8
0
10
33.951941
20
-16
11
37
21
-16
0
LINE
8
0
10
37
20
-16
11
37.0685813
21
-15.9966755
0
LINE
8
0
10
37.0685813
20
-15.9966755
11
37.1439365
21
-15.986756
0
LINE
8
0
10
37.1439365
20
-15.986756
11
37.2118799
21
-15.9768109
0
LINE
8
0
10
37.2118799
20
-15.9768109
11
37.2785331
21
-15.9603372
0
LINE
8
0
10
37.2785331
20
-15.9603372
11
37.3487525
21
-15.9312514
0
LINE
8
0
10
37.3487525
20
-15.9312514
11
37.5364205
21
-15.8435168
0
LINE
8
0
10
37.5364205
20
-15.8435168
11
37.5813492
21
-15.809042
0
LINE
8
0
10
37.5813492
20
-15.809042
11
37.7631616
21
-15.6454655
0
LINE
8
0
10
37.7631616
20
-15.6454655
11
37.783634
21
-15.618785
0
LINE
8
0
10
37.783634
20
-15.618785
11
37.9324971
21
-15.3605679
0
LINE
8
0
10
37.9324971
20
-15.3605679
11
37.9352207
21
-15.3539926
0
LINE
8
0
10
37.9352207
20
-15.3539926
11
37.9587214
21
-15.2712331
0
LINE
8
0
10
37.9587214
20
-15.2712331
11
43.6264652
21
-15.2684127
0
LINE
8
0
10
43.6264652
20
-15.2684127
11
53.11421
21
-15.2483711
0
LINE
8
0
10
53.11421
20
-15.2483711
11
59.6945208
21
-15.2601315
0
LINE
8
0
10
59.6945208
20
-15.2601315
11
69.0854013
21
-15.2631884
0
LINE
8
0
10
69.0854013
20
-15.2631884
11
69.2215844
21
-15.2408764
0
LINE
8
0
10
69.2215844
20
-15.2408764
11
69.4069109
21
-15.2382759
0
LINE
8
0
10
69.4069109
20
-15.2382759
11
69.4750206
21
-15.2162649
0
LINE
8
0
10
69.4750206
20
-15.2162649
11
69.7598384
21
-15.1563533
0
LINE
8
0
10
69.7598384
20
-15.1563533
11
69.7619265
21
-15.1556937
0
LINE
8
0
10
69.7619265
20
-15.1556937
11
69.7625463
21
-15.1555482
0
LINE
8
0
10
69.7625463
20
-15.1555482
11
70.0559491
21
-15.0002674
0
LINE
8
0
10
70.0559491
20
-15.0002674
11
70.1105982
21
-14.9743318
0
LINE
8
0
10
70.1105982
20
-14.9743318
11
70.3560307
21
-14.7744479
0
LINE
8
0
10
70.3560307
20
-14.7744479
11
70.4266899
21
-14.718482
0
LINE
8
0
10
70.4266899
20
-14.718482
11
70.6361776
21
-14.4608474
0
LINE
8
0
10
70.6361776
20
-14.4608474
11
70.6825318
21
-14.4023982
0
LINE
8
0
10
70.6825318
20
-14.4023982
11
70.8633429
21
-14.0552096
0
LINE
8
0
10
70.8633429
20
-14.0552096
11
70.8637582
21
-14.0543463
0
LINE
8
0
10
70.8637582
20
-14.0543463
11
70.8647855
21
-14.051416
0
LINE
8
0
10
70.8647855
20
-14.051416
11
70.9141083
21
-13.8737803
0
LINE
8
0
10
70.9141083
20
-13.8737803
11
70.9201652
21
-13.8499285
0
LINE
8
0
10
70.9201652
20
-13.8499285
11
70.9464788
21
-13.6987009
0
LINE
8
0
10
70.9464788
20
-13.6987009
11
70.9551477
21
-13.6471908
0
LINE
8
0
10
70.9551477
20
-13.6471908
11
70.9644076
21
-13.5324439
0
LINE
8
0
10
70.9644076
20
-13.5324439
11
70.9717391
21
-13.4520466
0
LINE
8
0
10
70.9717391
20
-13.4520466
11
70.9713984
21
-13.3772013
0
LINE
8
0
10
70.9713984
20
-13.3772013
11
70.9649293
21
-5.14106767
0
LINE
8
0
10
70.9649293
20
-5.14106767
11
70.954111
21
1.863192
0
LINE
8
0
10
70.954111
20
1.863192
11
70.9649293
21
8.33501095
0
LINE
8
0
10
70.9649293
20
8.33501095
11
70.9713984
21
15.6365636
0
LINE
8
0
10
70.9713984
20
15.6365636
11
69.2593885
21
15.6365646
0
LINE
8
0
10
69.2593885
20
15.6365646
11
66.5838802
21
15.6365724
0
LINE
8
0
10
66.5838802
20
15.6365724
11
63.5554085
21
15.6365719
0
LINE
8
0
10
63.5554085
20
15.6365719
11
59.6
21
15.6365719
0
LINE
8
0
10
59.6
20
15.6365719
11
59.6
21
16.8515007
0
LINE
8
0
10
59.6
20
16.8515007
11
58.6492737
21
17.9114223
0
LINE
8
0
10
58.6492737
20
17.9114223
11
58.1
21
18.5237845
0
LINE
8
0
10
58.1
20
18.5237845
11
41.9308824
21
18.5237845
0
LINE
8
0
10
41.9308824
20
18.5237845
11
38
21
18.5237845
0
LINE
8
0
10
38
20
18.5237845
11
38
21
15.6365708
0
LINE
8
0
10
38
20
15.6365708
11
35.9141791
21
15.6365704
0
LINE
8
0
10
35.9141791
20
15.6365704
11
24.2660387
21
15.6365721
0
LINE
8
0
10
24.2660387
20
15.6365721
11
16
21
15.6365741
0
LINE
8
0
10
16
20
15.6365741
11
16
21
15.6365741
0
LINE
8
0
10
16
20
48.4660055
11
16
21
48.0607702
0
LINE
8
0
10
16
20
48.0607702
11
16
21
41.5378015
0
LINE
8
0
10
16
20
41.5378015
11
13.4390947
21
41.5378015
0
LINE
8
0
10
13.4390947
20
41.5378015
11
2.4
21
41.5378015
0
LINE
8
0
10
2.4
20
41.5378015
11
2.4
21
44.6620295
0
LINE
8
0
10
2.4
20
44.6620295
11
2.4
21
48.4660055
0
LINE
8
0
10
2.4
20
48.4660055
11
15.8409053
21
48.4660055
0
LINE
8
0
10
15.8409053
20
48.4660055
11
16
21
48.4660055
0
LINE
8
0
10
16
20
48.4660055
11
16
21
48.4660055
0
LINE
8
0
10
16
20
52.5673212
11
16
21
50.3417838
0
LINE
8
0
10
16
20
50.3417838
11
16
21
48.5673145
0
LINE
8
0
10
16
20
48.5673145
11
2.55909466
21
48.5673145
0
LINE
8
0
10
2.55909466
20
48.5673145
11
2.4
21
48.5673145
0
LINE
8
0
10
2.4
20
48.5673145
11
2.4
21
51.6252524
0
LINE
8
0
10
2.4
20
51.6252524
11
2.4
21
54.5673182
0
LINE
8
0
10
2.4
20
54.5673182
11
2.43301588
21
55.0688798
0
LINE
8
0
10
2.43301588
20
55.0688798
11
2.468148
21
55.6025945
0
LINE
8
0
10
2.468148
20
55.6025945
11
2.55569805
21
56.0253242
0
LINE
8
0
10
2.55569805
20
56.0253242
11
2.667949
21
56.5673206
0
LINE
8
0
10
2.667949
20
56.5673206
11
2.78542153
21
56.8735085
0
LINE
8
0
10
2.78542153
20
56.8735085
11
2.985786
21
57.3957511
0
LINE
8
0
10
2.985786
20
57.3957511
11
3.11475801
21
57.5936758
0
LINE
8
0
10
3.11475801
20
57.5936758
11
3.4
21
58.0314301
0
LINE
8
0
10
3.4
20
58.0314301
11
3.52894964
21
58.1382542
0
LINE
8
0
10
3.52894964
20
58.1382542
11
3.882362
21
58.4310271
0
LINE
8
0
10
3.882362
20
58.4310271
11
4.00711229
21
58.4638742
0
LINE
8
0
10
4.00711229
20
58.4638742
11
4.4
21
58.5673161
0
LINE
8
0
10
4.4
20
58.5673161
11
9.70032783
21
58.5673161
0
LINE
8
0
10
9.70032783
20
58.5673161
11
13
21
58.5673161
0
LINE
8
0
10
13
20
58.5673161
11
13.2418208
21
58.5355194
0
LINE
8
0
10
13.2418208
20
58.5355194
11
13.4958588
21
58.4783724
0
LINE
8
0
10
13.4958588
20
58.4783724
11
13.7231529
21
58.3837266
0
LINE
8
0
10
13.7231529
20
58.3837266
11
13.7793218
21
58.361332
0
LINE
8
0
10
13.7793218
20
58.361332
11
13.8366533
21
58.3221143
0
LINE
8
0
10
13.8366533
20
58.3221143
11
14.4311363
21
57.8315625
0
LINE
8
0
10
14.4311363
20
57.8315625
11
14.5017176
21
57.7614804
0
LINE
8
0
10
14.5017176
20
57.7614804
11
14.6061678
21
57.6129563
0
LINE
8
0
10
14.6061678
20
57.6129563
11
15.0705324
21
56.9040932
0
LINE
8
0
10
15.0705324
20
56.9040932
11
15.0721955
21
56.9012535
0
LINE
8
0
10
15.0721955
20
56.9012535
11
15.1428746
21
56.7653655
0
LINE
8
0
10
15.1428746
20
56.7653655
11
15.2058663
21
56.6151138
0
LINE
8
0
10
15.2058663
20
56.6151138
11
15.5224949
21
55.7961197
0
LINE
8
0
10
15.5224949
20
55.7961197
11
15.6472481
21
55.3768022
0
LINE
8
0
10
15.6472481
20
55.3768022
11
15.8214424
21
54.5442576
0
LINE
8
0
10
15.8214424
20
54.5442576
11
15.9127388
21
53.9970353
0
LINE
8
0
10
15.9127388
20
53.9970353
11
15.9436436
21
53.4234802
0
LINE
8
0
10
15.9436436
20
53.4234802
11
15.9804843
21
52.9137164
0
LINE
8
0
10
15.9804843
20
52.9137164
11
16
21
52.5673212
0
LINE
8
0
10
16
20
52.5673212
11
16
21
52.5673212
0
LINE
8
0
10
16
20
29.5147544
11
16
21
25.9493435
0
LINE
8
0
10
16
20
25.9493435
11
7.99909466
21
25.9493435
0
LINE
8
0
10
7.99909466
20
25.9493435
11
2.4
21
25.9493435
0
LINE
8
0
10
2.4
20
25.9493435
11
2.4
21
27.5339729
0
LINE
8
0
10
2.4
20
27.5339729
11
2.4
21
29.5147544
0
LINE
8
0
10
2.4
20
29.5147544
11
2.4
21
31.5324291
0
LINE
8
0
10
2.4
20
31.5324291
11
2.4
21
32.8775456
0
LINE
8
0
10
2.4
20
32.8775456
11
2.4
21
36.0727787
0
LINE
8
0
10
2.4
20
36.0727787
11
2.4
21
39.9070585
0
LINE
8
0
10
2.4
20
39.9070585
11
4.96090534
21
39.9070585
0
LINE
8
0
10
4.96090534
20
39.9070585
11
16
21
39.9070585
0
LINE
8
0
10
16
20
39.9070585
11
16
21
32.8775456
0
LINE
8
0
10
16
20
32.8775456
11
16
21
29.5147544
0
LINE
8
0
10
16
20
29.5147544
11
16
21
29.5147544
0
LINE
8
0
10
48.84998
20
-4.502994
11
48.8399635
21
-4.4221925
0
LINE
8
0
10
48.8399635
20
-4.4221925
11
48.826
21
-4.309551
0
LINE
8
0
10
48.826
20
-4.309551
11
48.7954994
21
-4.23405932
0
LINE
8
0
10
48.7954994
20
-4.23405932
11
48.75298
21
-4.12882
0
LINE
8
0
10
48.75298
20
-4.12882
11
48.6847754
21
-4.03809271
0
LINE
8
0
10
48.6847754
20
-4.03809271
11
48.63585
21
-3.973011
0
LINE
8
0
10
48.63585
20
-3.973011
11
48.2119128
21
-3.5400966
0
LINE
8
0
10
48.2119128
20
-3.5400966
11
48.1
21
-3.425814
0
LINE
8
0
10
48.1
20
-3.425814
11
47.6760628
21
-3.8587284
0
LINE
8
0
10
47.6760628
20
-3.8587284
11
47.56415
21
-3.973011
0
LINE
8
0
10
47.56415
20
-3.973011
11
47.5152246
21
-4.03809271
0
LINE
8
0
10
47.5152246
20
-4.03809271
11
47.44702
21
-4.12882
0
LINE
8
0
10
47.44702
20
-4.12882
11
47.4165194
21
-4.20431168
0
LINE
8
0
10
47.4165194
20
-4.20431168
11
47.374
21
-4.309551
0
LINE
8
0
10
47.374
20
-4.309551
11
47.3639835
21
-4.3903525
0
LINE
8
0
10
47.3639835
20
-4.3903525
11
47.35002
21
-4.502994
0
LINE
8
0
10
47.35002
20
-4.502994
11
47.3611643
21
-4.58364805
0
LINE
8
0
10
47.3611643
20
-4.58364805
11
47.3767
21
-4.696084
0
LINE
8
0
10
47.3767
20
-4.696084
11
47.408249
21
-4.7711421
0
LINE
8
0
10
47.408249
20
-4.7711421
11
47.45223
21
-4.875777
0
LINE
8
0
10
47.45223
20
-4.875777
11
47.5020577
21
-4.9401695
0
LINE
8
0
10
47.5020577
20
-4.9401695
11
47.57152
21
-5.029936
0
LINE
8
0
10
47.57152
20
-5.029936
11
47.6362596
21
-5.07931337
0
LINE
8
0
10
47.6362596
20
-5.07931337
11
47.72651
21
-5.148148
0
LINE
8
0
10
47.72651
20
-5.148148
11
47.8017882
21
-5.17917489
0
LINE
8
0
10
47.8017882
20
-5.17917489
11
47.90673
21
-5.222428
0
LINE
8
0
10
47.90673
20
-5.222428
11
47.9874592
21
-5.23300839
0
LINE
8
0
10
47.9874592
20
-5.23300839
11
48.1
21
-5.247758
0
LINE
8
0
10
48.1
20
-5.247758
11
48.1807292
21
-5.23717761
0
LINE
8
0
10
48.1807292
20
-5.23717761
11
48.29327
21
-5.222428
0
LINE
8
0
10
48.29327
20
-5.222428
11
48.3685482
21
-5.19140111
0
LINE
8
0
10
48.3685482
20
-5.19140111
11
48.47349
21
-5.148148
0
LINE
8
0
10
48.47349
20
-5.148148
11
48.5382296
21
-5.09877063
0
LINE
8
0
10
48.5382296
20
-5.09877063
11
48.62848
21
-5.029936
0
LINE
8
0
10
48.62848
20
-5.029936
11
48.6783077
21
-4.9655435
0
LINE
8
0
10
48.6783077
20
-4.9655435
11
48.74777
21
-4.875777
0
LINE
8
0
10
48.74777
20
-4.875777
11
48.779319
21
-4.8007189
0
LINE
8
0
10
48.779319
20
-4.8007189
11
48.8233
21
-4.696084
0
LINE
8
0
10
48.8233
20
-4.696084
11
48.8344443
21
-4.61542995
0
LINE
8
0
10
48.8344443
20
-4.61542995
11
48.84998
21
-4.502994
0
LINE
8
0
10
48.84998
20
-4.502994
11
48.84998
21
-4.502994
0
ENDSEC
0
EOF
