0
SECTION
2
ENTITIES
0
LINE
8
0
10
16
20
4.04223504
11
16
21
4
0
LINE
8
0
10
16
20
4
11
4.11626037
21
4
0
LINE
8
0
10
4.11626037
20
4
11
2.4
21
4
0
LINE
8
0
10
2.4
20
4
11
2.4
21
2.74285074
0
LINE
8
0
10
2.4
20
2.74285074
11
2.4
21
-10.7782488
0
LINE
8
0
10
2.4
20
-10.7782488
11
2.4
21
-10.9499216
0
LINE
8
0
10
2.4
20
-10.9499216
11
2.4
21
-11.3329009
0
LINE
8
0
10
2.4
20
-11.3329009
11
2.4
21
-13.990382
0
LINE
8
0
10
2.4
20
-13.990382
11
2.4
21
-14
0
LINE
8
0
10
2.4
20
-14
11
2.42257051
21
-14.1714415
0
LINE
8
0
10
2.42257051
20
-14.1714415
11
2.44514104
21
-14.3428832
0
LINE
8
0
10
2.44514104
20
-14.3428832
11
2.44990576
21
-14.4222571
0
LINE
8
0
10
2.44990576
20
-14.4222571
11
2.46403278
21
-14.5008638
0
LINE
8
0
10
2.46403278
20
-14.5008638
11
2.51840392
21
-14.6497266
0
LINE
8
0
10
2.51840392
20
-14.6497266
11
2.64841875
21
-14.9636087
0
LINE
8
0
10
2.64841875
20
-14.9636087
11
2.72861821
21
-15.0888806
0
LINE
8
0
10
2.72861821
20
-15.0888806
11
2.93243538
21
-15.3544983
0
LINE
8
0
10
2.93243538
20
-15.3544983
11
3.02801359
21
-15.4531419
0
LINE
8
0
10
3.02801359
20
-15.4531419
11
3.29010465
21
-15.6540614
0
LINE
8
0
10
3.29010465
20
-15.6540614
11
3.40193602
21
-15.7330742
0
LINE
8
0
10
3.40193602
20
-15.7330742
11
3.53242084
21
-15.7932448
0
LINE
8
0
10
3.53242084
20
-15.7932448
11
3.82196084
21
-15.9130139
0
LINE
8
0
10
3.82196084
20
-15.9130139
11
3.95947995
21
-15.948456
0
LINE
8
0
10
3.95947995
20
-15.948456
11
4.12475511
21
-15.976699
0
LINE
8
0
10
4.12475511
20
-15.976699
11
4.4
21
-16
0
LINE
8
0
10
4.4
20
-16
11
10.5081932
21
-16
0
LINE
8
0
10
10.5081932
20
-16
11
20.0742889
21
-16
0
LINE
8
0
10
20.0742889
20
-16
11
24.6787453
21
-16
0
LINE
8
0
10
24.6787453
20
-16
11
34.5444596
21
-16
0
LINE
8
0
10
34.5444596
20
-16
11
37
21
-16
0
LINE
8
0
10
37
20
-16
11
37.0552497
21
-15.9973217
0
LINE
8
0
10
37.0552497
20
-15.9973217
11
37.166269
21
-15.9827076
0
LINE
8
0
10
37.166269
20
-15.9827076
11
37.2210047
21
-15.9746957
0
LINE
8
0
10
37.2210047
20
-15.9746957
11
37.2747011
21
-15.9614244
0
LINE
8
0
10
37.2747011
20
-15.9614244
11
37.3781538
21
-15.9185729
0
LINE
8
0
10
37.3781538
20
-15.9185729
11
37.5293407
21
-15.8478932
0
LINE
8
0
10
37.5293407
20
-15.8478932
11
37.6057961
21
-15.7892273
0
LINE
8
0
10
37.6057961
20
-15.7892273
11
37.7522656
21
-15.6574487
0
LINE
8
0
10
37.7522656
20
-15.6574487
11
37.7996512
21
-15.5956942
0
LINE
8
0
10
37.7996512
20
-15.5956942
11
37.9195764
21
-15.3876724
0
LINE
8
0
10
37.9195764
20
-15.3876724
11
37.9411903
21
-15.3354918
0
LINE
8
0
10
37.9411903
20
-15.3354918
11
37.9796037
21
-15.200216
0
LINE
8
0
10
37.9796037
20
-15.200216
11
37.9854567
21
-15.1557528
0
LINE
8
0
10
37.9854567
20
-15.1557528
11
38
21
-15
0
LINE
8
0
10
38
20
-15
11
38
21
-14.4129414
0
LINE
8
0
10
38
20
-14.4129414
11
40.0259392
21
-14.4156297
0
LINE
8
0
10
40.0259392
20
-14.4156297
11
53.11421
21
-14.3873998
0
LINE
8
0
10
53.11421
20
-14.3873998
11
56.0601284
21
-14.3960959
0
LINE
8
0
10
56.0601284
20
-14.3960959
11
64.7501647
21
-14.4145721
0
LINE
8
0
10
64.7501647
20
-14.4145721
11
68.9433081
21
-14.4106284
0
LINE
8
0
10
68.9433081
20
-14.4106284
11
69.0731926
21
-14.3834034
0
LINE
8
0
10
69.0731926
20
-14.3834034
11
69.1319342
21
-14.3861894
0
LINE
8
0
10
69.1319342
20
-14.3861894
11
69.2333778
21
-14.3504153
0
LINE
8
0
10
69.2333778
20
-14.3504153
11
69.3471353
21
-14.3329728
0
LINE
8
0
10
69.3471353
20
-14.3329728
11
69.4148458
21
-14.2961929
0
LINE
8
0
10
69.4148458
20
-14.2961929
11
69.5728835
21
-14.231673
0
LINE
8
0
10
69.5728835
20
-14.231673
11
69.6115467
21
-14.2001152
0
LINE
8
0
10
69.6115467
20
-14.2001152
11
69.7801032
21
-14.0718932
0
LINE
8
0
10
69.7801032
20
-14.0718932
11
69.805506
21
-14.0406475
0
LINE
8
0
10
69.805506
20
-14.0406475
11
69.9398755
21
-13.864676
0
LINE
8
0
10
69.9398755
20
-13.864676
11
69.9678495
21
-13.8111159
0
LINE
8
0
10
69.9678495
20
-13.8111159
11
70.0411772
21
-13.6389297
0
LINE
8
0
10
70.0411772
20
-13.6389297
11
70.0574642
21
-13.5941474
0
LINE
8
0
10
70.0574642
20
-13.5941474
11
70.0726004
21
-13.528645
0
LINE
8
0
10
70.0726004
20
-13.528645
11
70.0884109
21
-13.4710989
0
LINE
8
0
10
70.0884109
20
-13.4710989
11
70.0943894
21
-13.4237274
0
LINE
8
0
10
70.0943894
20
-13.4237274
11
70.1082941
21
-13.3535229
0
LINE
8
0
10
70.1082941
20
-13.3535229
11
70.1092173
21
-13.3256981
0
LINE
8
0
10
70.1092173
20
-13.3256981
11
70.1193226
21
-13.2444118
0
LINE
8
0
10
70.1193226
20
-13.2444118
11
70.1188384
21
-13.2351081
0
LINE
8
0
10
70.1188384
20
-13.2351081
11
70.123232
21
-7.81919564
0
LINE
8
0
10
70.123232
20
-7.81919564
11
70.1111263
21
-0.0752320387
0
LINE
8
0
10
70.1111263
20
-0.0752320387
11
70.1047809
21
1.863192
0
LINE
8
0
10
70.1047809
20
1.863192
11
70.1111263
21
3.47631403
0
LINE
8
0
10
70.1111263
20
3.47631403
11
70.1236006
21
10.2444434
0
LINE
8
0
10
70.1236006
20
10.2444434
11
70.119628
21
14.65261
0
LINE
8
0
10
70.119628
20
14.65261
11
69.7793559
21
14.6526128
0
LINE
8
0
10
69.7793559
20
14.6526128
11
66.9551016
21
14.6526123
0
LINE
8
0
10
66.9551016
20
14.6526123
11
59.6
21
14.6526123
0
LINE
8
0
10
59.6
20
14.6526123
11
59.6
21
16.8468563
0
LINE
8
0
10
59.6
20
16.8468563
11
59.0987498
21
16.8468563
0
LINE
8
0
10
59.0987498
20
16.8468563
11
38
21
16.8468212
0
LINE
8
0
10
38
20
16.8468212
11
38
21
14.6526119
0
LINE
8
0
10
38
20
14.6526119
11
37.2903556
21
14.6526118
0
LINE
8
0
10
37.2903556
20
14.6526118
11
23.3238058
21
14.6526139
0
LINE
8
0
10
23.3238058
20
14.6526139
11
16
21
14.6526156
0
LINE
8
0
10
16
20
14.6526156
11
16
21
14.8504662
0
LINE
8
0
10
16
20
14.8504662
11
16
21
15.5574225
0
LINE
8
0
10
16
20
15.5574225
11
16
21
16.0957505
0
LINE
8
0
10
16
20
16.0957505
11
16
21
22.0478404
0
LINE
8
0
10
16
20
22.0478404
11
6.6528805
21
22.0478404
0
LINE
8
0
10
6.6528805
20
22.0478404
11
2.4
21
22.0478404
0
LINE
8
0
10
2.4
20
22.0478404
11
2.4
21
18.801249
0
LINE
8
0
10
2.4
20
18.801249
11
2.4
21
16.0957505
0
LINE
8
0
10
2.4
20
16.0957505
11
2.4
21
13.8505169
0
LINE
8
0
10
2.4
20
13.8505169
11
2.4
21
13.7565477
0
LINE
8
0
10
2.4
20
13.7565477
11
2.4
21
13.6455459
0
LINE
8
0
10
2.4
20
13.6455459
11
2.4
21
13.5302887
0
LINE
8
0
10
2.4
20
13.5302887
11
2.4
21
13.4254333
0
LINE
8
0
10
2.4
20
13.4254333
11
2.4
21
11.6555347
0
LINE
8
0
10
2.4
20
11.6555347
11
2.4
21
8.95004144
0
LINE
8
0
10
2.4
20
8.95004144
11
2.4
21
5.70344681
0
LINE
8
0
10
2.4
20
5.70344681
11
11.7471195
21
5.70344681
0
LINE
8
0
10
11.7471195
20
5.70344681
11
16
21
5.70344681
0
LINE
8
0
10
16
20
5.70344681
11
16
21
4.349365
0
LINE
8
0
10
16
20
4.349365
11
16
21
4.04223504
0
LINE
8
0
10
16
20
4.04223504
11
16
21
4.04223504
0
LINE
8
0
10
16
20
36.5647709
11
16
21
40.3444612
0
LINE
8
0
10
16
20
40.3444612
11
16
21
41.1003988
0
LINE
8
0
10
16
20
41.1003988
11
16
21
47.2726648
0
LINE
8
0
10
16
20
47.2726648
11
12.0928805
21
47.2726648
0
LINE
8
0
10
12.0928805
20
47.2726648
11
2.4
21
47.2726648
0
LINE
8
0
10
2.4
20
47.2726648
11
2.4
21
44.5294354
0
LINE
8
0
10
2.4
20
44.5294354
11
2.4
21
41.1003988
0
LINE
8
0
10
2.4
20
41.1003988
11
2.4
21
40.6468362
0
LINE
8
0
10
2.4
20
40.6468362
11
2.4
21
40.3444612
0
LINE
8
0
10
2.4
20
40.3444612
11
2.4
21
35.9642939
0
LINE
8
0
10
2.4
20
35.9642939
11
2.4
21
31.6842062
0
LINE
8
0
10
2.4
20
31.6842062
11
2.4
21
31.2937612
0
LINE
8
0
10
2.4
20
31.2937612
11
2.4
21
30.7080938
0
LINE
8
0
10
2.4
20
30.7080938
11
2.4
21
27.4013804
0
LINE
8
0
10
2.4
20
27.4013804
11
2.4
21
24.7560028
0
LINE
8
0
10
2.4
20
24.7560028
11
11.7471195
21
24.7560028
0
LINE
8
0
10
11.7471195
20
24.7560028
11
16
21
24.7560028
0
LINE
8
0
10
16
20
24.7560028
11
16
21
30.7080938
0
LINE
8
0
10
16
20
30.7080938
11
16
21
31.6842062
0
LINE
8
0
10
16
20
31.6842062
11
16
21
36.5647709
0
LINE
8
0
10
16
20
36.5647709
11
16
21
36.5647709
0
LINE
8
0
10
16
20
53.7606608
11
16
21
51.04031
0
LINE
8
0
10
16
20
51.04031
11
16
21
49.7606552
0
LINE
8
0
10
16
20
49.7606552
11
6.3071195
21
49.7606552
0
LINE
8
0
10
6.3071195
20
49.7606552
11
2.4
21
49.7606552
0
LINE
8
0
10
2.4
20
49.7606552
11
2.4
21
51.9658807
0
LINE
8
0
10
2.4
20
51.9658807
11
2.4
21
55.7606579
0
LINE
8
0
10
2.4
20
55.7606579
11
2.44258501
21
56.4075892
0
LINE
8
0
10
2.44258501
20
56.4075892
11
2.468148
21
56.7959331
0
LINE
8
0
10
2.468148
20
56.7959331
11
2.53185156
21
57.1035216
0
LINE
8
0
10
2.53185156
20
57.1035216
11
2.667949
21
57.7606592
0
LINE
8
0
10
2.667949
20
57.7606592
11
2.74709546
21
57.9669515
0
LINE
8
0
10
2.74709546
20
57.9669515
11
2.985786
21
58.5890897
0
LINE
8
0
10
2.985786
20
58.5890897
11
3.06406991
21
58.7092268
0
LINE
8
0
10
3.06406991
20
58.7092268
11
3.4
21
59.2247709
0
LINE
8
0
10
3.4
20
59.2247709
11
3.46883053
21
59.2817913
0
LINE
8
0
10
3.46883053
20
59.2817913
11
3.882362
21
59.6243679
0
LINE
8
0
10
3.882362
20
59.6243679
11
3.94123795
21
59.6398701
0
LINE
8
0
10
3.94123795
20
59.6398701
11
4.4
21
59.7606558
0
LINE
8
0
10
4.4
20
59.7606558
11
9.1470814
21
59.7606558
0
LINE
8
0
10
9.1470814
20
59.7606558
11
13
21
59.7606558
0
LINE
8
0
10
13
20
59.7606558
11
13.2165796
21
59.7321781
0
LINE
8
0
10
13.2165796
20
59.7321781
11
13.5135866
21
59.665365
0
LINE
8
0
10
13.5135866
20
59.665365
11
13.7789624
21
59.5548618
0
LINE
8
0
10
13.7789624
20
59.5548618
11
13.779336
21
59.5546008
0
LINE
8
0
10
13.779336
20
59.5546008
11
13.789138
21
59.546444
0
LINE
8
0
10
13.789138
20
59.546444
11
14.4813805
21
58.9752236
0
LINE
8
0
10
14.4813805
20
58.9752236
11
14.5004644
21
58.9562747
0
LINE
8
0
10
14.5004644
20
58.9562747
11
14.5287058
21
58.9161166
0
LINE
8
0
10
14.5287058
20
58.9161166
11
15.0963149
21
58.0496484
0
LINE
8
0
10
15.0963149
20
58.0496484
11
15.0971338
21
58.0482503
0
LINE
8
0
10
15.0971338
20
58.0482503
11
15.1319323
21
57.9813464
0
LINE
8
0
10
15.1319323
20
57.9813464
11
15.162946
21
57.9073706
0
LINE
8
0
10
15.162946
20
57.9073706
11
15.5499721
21
56.9062859
0
LINE
8
0
10
15.5499721
20
56.9062859
11
15.6293742
21
56.6394014
0
LINE
8
0
10
15.6293742
20
56.6394014
11
15.8422979
21
55.6217536
0
LINE
8
0
10
15.8422979
20
55.6217536
11
15.9086521
21
55.2240328
0
LINE
8
0
10
15.9086521
20
55.2240328
11
15.9311136
21
54.8071734
0
LINE
8
0
10
15.9311136
20
54.8071734
11
15.9761452
21
54.1840715
0
LINE
8
0
10
15.9761452
20
54.1840715
11
16
21
53.7606608
0
LINE
8
0
10
16
20
53.7606608
11
16
21
53.7606608
0
LINE
8
0
10
48.84998
20
-4.502994
11
48.8270915
21
-4.66864363
0
LINE
8
0
10
48.8270915
20
-4.66864363
11
48.8233
21
-4.696084
0
LINE
8
0
10
48.8233
20
-4.696084
11
48.7585037
21
-4.8502405
0
LINE
8
0
10
48.7585037
20
-4.8502405
11
48.74777
21
-4.875777
0
LINE
8
0
10
48.74777
20
-4.875777
11
48.6454325
21
-5.00802819
0
LINE
8
0
10
48.6454325
20
-5.00802819
11
48.62848
21
-5.029936
0
LINE
8
0
10
48.62848
20
-5.029936
11
48.4955159
21
-5.13134868
0
LINE
8
0
10
48.4955159
20
-5.13134868
11
48.47349
21
-5.148148
0
LINE
8
0
10
48.47349
20
-5.148148
11
48.3188814
21
-5.21187194
0
LINE
8
0
10
48.3188814
20
-5.21187194
11
48.29327
21
-5.222428
0
LINE
8
0
10
48.29327
20
-5.222428
11
48.1274659
21
-5.24415831
0
LINE
8
0
10
48.1274659
20
-5.24415831
11
48.1
21
-5.247758
0
LINE
8
0
10
48.1
20
-5.247758
11
47.9341959
21
-5.22602769
0
LINE
8
0
10
47.9341959
20
-5.22602769
11
47.90673
21
-5.222428
0
LINE
8
0
10
47.90673
20
-5.222428
11
47.7521214
21
-5.15870406
0
LINE
8
0
10
47.7521214
20
-5.15870406
11
47.72651
21
-5.148148
0
LINE
8
0
10
47.72651
20
-5.148148
11
47.5935459
21
-5.04673532
0
LINE
8
0
10
47.5935459
20
-5.04673532
11
47.57152
21
-5.029936
0
LINE
8
0
10
47.57152
20
-5.029936
11
47.4691825
21
-4.89768481
0
LINE
8
0
10
47.4691825
20
-4.89768481
11
47.45223
21
-4.875777
0
LINE
8
0
10
47.45223
20
-4.875777
11
47.3874337
21
-4.7216205
0
LINE
8
0
10
47.3874337
20
-4.7216205
11
47.3767
21
-4.696084
0
LINE
8
0
10
47.3767
20
-4.696084
11
47.3538115
21
-4.53043437
0
LINE
8
0
10
47.3538115
20
-4.53043437
11
47.35002
21
-4.502994
0
LINE
8
0
10
47.35002
20
-4.502994
11
47.3705922
21
-4.33704153
0
LINE
8
0
10
47.3705922
20
-4.33704153
11
47.374
21
-4.309551
0
LINE
8
0
10
47.374
20
-4.309551
11
47.436643
21
-4.15450401
0
LINE
8
0
10
47.436643
20
-4.15450401
11
47.44702
21
-4.12882
0
LINE
8
0
10
47.44702
20
-4.12882
11
47.5475044
21
-3.9951533
0
LINE
8
0
10
47.5475044
20
-3.9951533
11
47.56415
21
-3.973011
0
LINE
8
0
10
47.56415
20
-3.973011
11
47.6022253
21
-3.93412942
0
LINE
8
0
10
47.6022253
20
-3.93412942
11
48.1
21
-3.425814
0
LINE
8
0
10
48.1
20
-3.425814
11
48.1380753
21
-3.46469558
0
LINE
8
0
10
48.1380753
20
-3.46469558
11
48.63585
21
-3.973011
0
LINE
8
0
10
48.63585
20
-3.973011
11
48.6524956
21
-3.9951533
0
LINE
8
0
10
48.6524956
20
-3.9951533
11
48.75298
21
-4.12882
0
LINE
8
0
10
48.75298
20
-4.12882
11
48.815623
21
-4.28386699
0
LINE
8
0
10
48.815623
20
-4.28386699
11
48.826
21
-4.309551
0
LINE
8
0
10
48.826
20
-4.309551
11
48.8465722
21
-4.47550347
0
LINE
8
0
10
48.8465722
20
-4.47550347
11
48.84998
21
-4.502994
0
LINE
8
0
10
48.84998
20
-4.502994
11
48.84998
21
-4.502994
0
ENDSEC
0
EOF
