0
SECTION
2
ENTITIES
0
LINE
8
0
10
16
20
-3.274226
11
16
21
-3.99161008
0
LINE
8
0
10
16
20
-3.99161008
11
16
21
-4.92878417
0
LINE
8
0
10
16
20
-4.92878417
11
16
21
-5.53763507
0
LINE
8
0
10
16
20
-5.53763507
11
16
21
-6.80688216
0
LINE
8
0
10
16
20
-6.80688216
11
16
21
-8.92117527
0
LINE
8
0
10
16
20
-8.92117527
11
16
21
-9.32132024
0
LINE
8
0
10
16
20
-9.32132024
11
16
21
-11.8312862
0
LINE
8
0
10
16
20
-11.8312862
11
15.9760978
21
-12.0698084
0
LINE
8
0
10
15.9760978
20
-12.0698084
11
15.93185
21
-12.4572011
0
LINE
8
0
10
15.93185
20
-12.4572011
11
15.8111035
21
-12.8077429
0
LINE
8
0
10
15.8111035
20
-12.8077429
11
15.73205
21
-13.0372435
0
LINE
8
0
10
15.73205
20
-13.0372435
11
15.4715851
21
-13.4454172
0
LINE
8
0
10
15.4715851
20
-13.4454172
11
15.41421
21
-13.5353292
0
LINE
8
0
10
15.41421
20
-13.5353292
11
15.0142768
21
-13.9043521
0
LINE
8
0
10
15.0142768
20
-13.9043521
11
15
21
-13.9175255
0
LINE
8
0
10
15
20
-13.9175255
11
14.8009981
21
-14.0166484
0
LINE
8
0
10
14.8009981
20
-14.0166484
11
14.51764
21
-14.1484854
0
LINE
8
0
10
14.51764
20
-14.1484854
11
14.4970467
21
-14.1515307
0
LINE
8
0
10
14.4970467
20
-14.1515307
11
14
21
-14.2250314
0
LINE
8
0
10
14
20
-14.2250314
11
13.4099485
21
-14.2250314
0
LINE
8
0
10
13.4099485
20
-14.2250314
11
4.4
21
-14.2250314
0
LINE
8
0
10
4.4
20
-14.2250314
11
4.36874763
21
-14.2204099
0
LINE
8
0
10
4.36874763
20
-14.2204099
11
3.882362
21
-14.1484854
0
LINE
8
0
10
3.882362
20
-14.1484854
11
3.86447007
21
-14.1401613
0
LINE
8
0
10
3.86447007
20
-14.1401613
11
3.59900273
21
-14.0166484
0
LINE
8
0
10
3.59900273
20
-14.0166484
11
3.41322521
21
-13.9241128
0
LINE
8
0
10
3.41322521
20
-13.9241128
11
3.4
21
-13.9175255
0
LINE
8
0
10
3.4
20
-13.9175255
11
3.03949357
21
-13.5848855
0
LINE
8
0
10
3.03949357
20
-13.5848855
11
2.985786
21
-13.5353292
0
LINE
8
0
10
2.985786
20
-13.5353292
11
2.75082471
21
-13.1671185
0
LINE
8
0
10
2.75082471
20
-13.1671185
11
2.667949
21
-13.0372435
0
LINE
8
0
10
2.667949
20
-13.0372435
11
2.55135879
21
-12.6987692
0
LINE
8
0
10
2.55135879
20
-12.6987692
11
2.468148
21
-12.4572011
0
LINE
8
0
10
2.468148
20
-12.4572011
11
2.42390151
21
-12.0698084
0
LINE
8
0
10
2.42390151
20
-12.0698084
11
2.4
21
-11.8312862
0
LINE
8
0
10
2.4
20
-11.8312862
11
2.4
21
-10.2747476
0
LINE
8
0
10
2.4
20
-10.2747476
11
2.4
21
-8.62362197
0
LINE
8
0
10
2.4
20
-8.62362197
11
2.4
21
-8.43891161
0
LINE
8
0
10
2.4
20
-8.43891161
11
2.4
21
-7.09784268
0
LINE
8
0
10
2.4
20
-7.09784268
11
2.4
21
-5.9835957
0
LINE
8
0
10
2.4
20
-5.9835957
11
2.4
21
-5.71926147
0
LINE
8
0
10
2.4
20
-5.71926147
11
2.4
21
-4.74508224
0
LINE
8
0
10
2.4
20
-4.74508224
11
2.4
21
-4.44514013
0
LINE
8
0
10
2.4
20
-4.44514013
11
2.4
21
-3.56315269
0
LINE
8
0
10
2.4
20
-3.56315269
11
2.4
21
-2.73593612
0
LINE
8
0
10
2.4
20
-2.73593612
11
2.4
21
-2.41707878
0
LINE
8
0
10
2.4
20
-2.41707878
11
2.4
21
-1.61269492
0
LINE
8
0
10
2.4
20
-1.61269492
11
2.4
21
-1.29111565
0
LINE
8
0
10
2.4
20
-1.29111565
11
2.4
21
-0.998845045
0
LINE
8
0
10
2.4
20
-0.998845045
11
2.4
21
-0.764625529
0
LINE
8
0
10
2.4
20
-0.764625529
11
2.4
21
1.90071758
0
LINE
8
0
10
2.4
20
1.90071758
11
2.4
21
4.99974028
0
LINE
8
0
10
2.4
20
4.99974028
11
2.4
21
8.84183238
0
LINE
8
0
10
2.4
20
8.84183238
11
2.4
21
17.4453261
0
LINE
8
0
10
2.4
20
17.4453261
11
2.4
21
18.5904626
0
LINE
8
0
10
2.4
20
18.5904626
11
2.4
21
22.0120284
0
LINE
8
0
10
2.4
20
22.0120284
11
2.4
21
24.7492809
0
LINE
8
0
10
2.4
20
24.7492809
11
6.32823752
21
24.7492809
0
LINE
8
0
10
6.32823752
20
24.7492809
11
16
21
24.7492809
0
LINE
8
0
10
16
20
24.7492809
11
16
21
18.5904626
0
LINE
8
0
10
16
20
18.5904626
11
16
21
17.4453261
0
LINE
8
0
10
16
20
17.4453261
11
16
21
8.84183238
0
LINE
8
0
10
16
20
8.84183238
11
16
21
-0.315993394
0
LINE
8
0
10
16
20
-0.315993394
11
16
21
-0.943780718
0
LINE
8
0
10
16
20
-0.943780718
11
16
21
-1.64101437
0
LINE
8
0
10
16
20
-1.64101437
11
16
21
-2.14607242
0
LINE
8
0
10
16
20
-2.14607242
11
16
21
-2.67782821
0
LINE
8
0
10
16
20
-2.67782821
11
16
21
-3.274226
0
LINE
8
0
10
16
20
-3.274226
11
16
21
-3.274226
0
LINE
8
0
10
16
20
58.9876225
11
16
21
58.3506956
0
LINE
8
0
10
16
20
58.3506956
11
16
21
57.763183
0
LINE
8
0
10
16
20
57.763183
11
16
21
57.1905203
0
LINE
8
0
10
16
20
57.1905203
11
16
21
56.5664369
0
LINE
8
0
10
16
20
56.5664369
11
16
21
55.99017
0
LINE
8
0
10
16
20
55.99017
11
16
21
46.3976789
0
LINE
8
0
10
16
20
46.3976789
11
16
21
39.268575
0
LINE
8
0
10
16
20
39.268575
11
16
21
33.4095374
0
LINE
8
0
10
16
20
33.4095374
11
16
21
27.2507191
0
LINE
8
0
10
16
20
27.2507191
11
12.0717625
21
27.2507191
0
LINE
8
0
10
12.0717625
20
27.2507191
11
2.4
21
27.2507191
0
LINE
8
0
10
2.4
20
27.2507191
11
2.4
21
30.6100745
0
LINE
8
0
10
2.4
20
30.6100745
11
2.4
21
33.4095374
0
LINE
8
0
10
2.4
20
33.4095374
11
2.4
21
39.268575
0
LINE
8
0
10
2.4
20
39.268575
11
2.4
21
46.3976789
0
LINE
8
0
10
2.4
20
46.3976789
11
2.4
21
51.0914418
0
LINE
8
0
10
2.4
20
51.0914418
11
2.4
21
53.5380428
0
LINE
8
0
10
2.4
20
53.5380428
11
2.4
21
55.9494123
0
LINE
8
0
10
2.4
20
55.9494123
11
2.4
21
56.1327904
0
LINE
8
0
10
2.4
20
56.1327904
11
2.4
21
56.3878747
0
LINE
8
0
10
2.4
20
56.3878747
11
2.4
21
56.6948464
0
LINE
8
0
10
2.4
20
56.6948464
11
2.4
21
57.487548
0
LINE
8
0
10
2.4
20
57.487548
11
2.4
21
57.8065956
0
LINE
8
0
10
2.4
20
57.8065956
11
2.4
21
58.6021806
0
LINE
8
0
10
2.4
20
58.6021806
11
2.4
21
58.9146794
0
LINE
8
0
10
2.4
20
58.9146794
11
2.4
21
59.7447841
0
LINE
8
0
10
2.4
20
59.7447841
11
2.4
21
60.6515232
0
LINE
8
0
10
2.4
20
60.6515232
11
2.4
21
60.9312581
0
LINE
8
0
10
2.4
20
60.9312581
11
2.4
21
61.9494856
0
LINE
8
0
10
2.4
20
61.9494856
11
2.4
21
62.1845208
0
LINE
8
0
10
2.4
20
62.1845208
11
2.4
21
63.3701299
0
LINE
8
0
10
2.4
20
63.3701299
11
2.4
21
64.8543602
0
LINE
8
0
10
2.4
20
64.8543602
11
2.4
21
64.9672861
0
LINE
8
0
10
2.4
20
64.9672861
11
2.4
21
66.5802832
0
LINE
8
0
10
2.4
20
66.5802832
11
2.4098807
21
66.6799023
0
LINE
8
0
10
2.4098807
20
66.6799023
11
2.468148
21
67.2014298
0
LINE
8
0
10
2.468148
20
67.2014298
11
2.65007233
21
67.7391126
0
LINE
8
0
10
2.65007233
20
67.7391126
11
2.667949
21
67.7919472
0
LINE
8
0
10
2.667949
20
67.7919472
11
2.79436912
21
67.9936394
0
LINE
8
0
10
2.79436912
20
67.9936394
11
2.985786
21
68.278211
0
LINE
8
0
10
2.985786
20
68.278211
11
3.02884097
21
68.315899
0
LINE
8
0
10
3.02884097
20
68.315899
11
3.4
21
68.6407904
0
LINE
8
0
10
3.4
20
68.6407904
11
3.50710866
21
68.6914006
0
LINE
8
0
10
3.50710866
20
68.6914006
11
3.882362
21
68.8687186
0
LINE
8
0
10
3.882362
20
68.8687186
11
4.02948109
21
68.8908141
0
LINE
8
0
10
4.02948109
20
68.8908141
11
4.4
21
68.9464596
0
LINE
8
0
10
4.4
20
68.9464596
11
7.29768115
21
68.9464596
0
LINE
8
0
10
7.29768115
20
68.9464596
11
14
21
68.9464596
0
LINE
8
0
10
14
20
68.9464596
11
14.1531689
21
68.9234556
0
LINE
8
0
10
14.1531689
20
68.9234556
11
14.51764
21
68.8687186
0
LINE
8
0
10
14.51764
20
68.8687186
11
14.6444645
21
68.8087923
0
LINE
8
0
10
14.6444645
20
68.8087923
11
15
21
68.6407904
0
LINE
8
0
10
15
20
68.6407904
11
15.0789326
21
68.5716963
0
LINE
8
0
10
15.0789326
20
68.5716963
11
15.41421
21
68.278211
0
LINE
8
0
10
15.41421
20
68.278211
11
15.4406661
21
68.238879
0
LINE
8
0
10
15.4406661
20
68.238879
11
15.6056287
21
67.9936394
0
LINE
8
0
10
15.6056287
20
67.9936394
11
15.7139438
21
67.8208346
0
LINE
8
0
10
15.7139438
20
67.8208346
11
15.73205
21
67.7919472
0
LINE
8
0
10
15.73205
20
67.7919472
11
15.8870967
21
67.333699
0
LINE
8
0
10
15.8870967
20
67.333699
11
15.93185
21
67.2014298
0
LINE
8
0
10
15.93185
20
67.2014298
11
15.990119
21
66.6799023
0
LINE
8
0
10
15.990119
20
66.6799023
11
16
21
66.5802832
0
LINE
8
0
10
16
20
66.5802832
11
16
21
63.9995803
0
LINE
8
0
10
16
20
63.9995803
11
16
21
62.2852822
0
LINE
8
0
10
16
20
62.2852822
11
16
21
61.8562933
0
LINE
8
0
10
16
20
61.8562933
11
16
21
60.6296039
0
LINE
8
0
10
16
20
60.6296039
11
16
21
59.7215859
0
LINE
8
0
10
16
20
59.7215859
11
16
21
58.9876225
0
LINE
8
0
10
16
20
58.9876225
11
16
21
58.9876225
0
ENDSEC
0
EOF
