0
SECTION
2
ENTITIES
0
LINE
8
0
10
16
20
22.3693224
11
16
21
14.0422128
0
LINE
8
0
10
16
20
14.0422128
11
2.92316919
21
14.0422128
0
LINE
8
0
10
2.92316919
20
14.0422128
11
2.4
21
14.0422128
0
LINE
8
0
10
2.4
20
14.0422128
11
2.4
21
18.5842769
0
LINE
8
0
10
2.4
20
18.5842769
11
2.4
21
22.3693224
0
LINE
8
0
10
2.4
20
22.3693224
11
2.4
21
23.1954005
0
LINE
8
0
10
2.4
20
23.1954005
11
2.4
21
24.4345206
0
LINE
8
0
10
2.4
20
24.4345206
11
2.4
21
27.1361954
0
LINE
8
0
10
2.4
20
27.1361954
11
2.4
21
29.2975295
0
LINE
8
0
10
2.4
20
29.2975295
11
10.0368308
21
29.2975295
0
LINE
8
0
10
10.0368308
20
29.2975295
11
16
21
29.2975295
0
LINE
8
0
10
16
20
29.2975295
11
16
21
24.4345206
0
LINE
8
0
10
16
20
24.4345206
11
16
21
22.3693224
0
LINE
8
0
10
16
20
22.3693224
11
16
21
22.3693224
0
LINE
8
0
10
16
20
52.1473368
11
16
21
52.4373626
0
LINE
8
0
10
16
20
52.4373626
11
16
21
56.1473399
0
LINE
8
0
10
16
20
56.1473399
11
15.9674672
21
56.7247818
0
LINE
8
0
10
15.9674672
20
56.7247818
11
15.9060537
21
57.5745596
0
LINE
8
0
10
15.9060537
20
57.5745596
11
15.9004785
21
57.6780277
0
LINE
8
0
10
15.9004785
20
57.6780277
11
15.8840089
21
57.7767455
0
LINE
8
0
10
15.8840089
20
57.7767455
11
15.6801881
21
58.7508868
0
LINE
8
0
10
15.6801881
20
58.7508868
11
15.6009187
21
59.1366004
0
LINE
8
0
10
15.6009187
20
59.1366004
11
15.5905938
21
59.1693021
0
LINE
8
0
10
15.5905938
20
59.1693021
11
15.1464535
21
60.3337337
0
LINE
8
0
10
15.1464535
20
60.3337337
11
15.0910063
21
60.444165
0
LINE
8
0
10
15.0910063
20
60.444165
11
14.5661614
21
61.2532785
0
LINE
8
0
10
14.5661614
20
61.2532785
11
14.462527
21
61.383105
0
LINE
8
0
10
14.462527
20
61.383105
11
13.895466
21
61.8549874
0
LINE
8
0
10
13.895466
20
61.8549874
11
13.7533098
21
61.9542925
0
LINE
8
0
10
13.7533098
20
61.9542925
11
13.5490421
21
62.0393501
0
LINE
8
0
10
13.5490421
20
62.0393501
11
13.1660972
21
62.1254953
0
LINE
8
0
10
13.1660972
20
62.1254953
11
13
21
62.1473352
0
LINE
8
0
10
13
20
62.1473352
11
8.04058853
21
62.1473352
0
LINE
8
0
10
8.04058853
20
62.1473352
11
4.4
21
62.1473352
0
LINE
8
0
10
4.4
20
62.1473352
11
3.95685884
21
62.0306622
0
LINE
8
0
10
3.95685884
20
62.0306622
11
3.882362
21
62.0110495
0
LINE
8
0
10
3.882362
20
62.0110495
11
3.81585605
21
61.9559524
0
LINE
8
0
10
3.81585605
20
61.9559524
11
3.4
21
61.6114506
0
LINE
8
0
10
3.4
20
61.6114506
11
3.35665674
21
61.5449346
0
LINE
8
0
10
3.35665674
20
61.5449346
11
2.985786
21
60.9757679
0
LINE
8
0
10
2.985786
20
60.9757679
11
2.96832551
21
60.9302577
0
LINE
8
0
10
2.96832551
20
60.9302577
11
2.70767791
21
60.2508883
0
LINE
8
0
10
2.70767791
20
60.2508883
11
2.6704433
21
60.1538376
0
LINE
8
0
10
2.6704433
20
60.1538376
11
2.667949
21
60.1473363
0
LINE
8
0
10
2.667949
20
60.1473363
11
2.48415858
21
59.2599163
0
LINE
8
0
10
2.48415858
20
59.2599163
11
2.468148
21
59.1826103
0
LINE
8
0
10
2.468148
20
59.1826103
11
2.46172327
21
59.085008
0
LINE
8
0
10
2.46172327
20
59.085008
11
2.4
21
58.1473373
0
LINE
8
0
10
2.4
20
58.1473373
11
2.4
21
52.6471374
0
LINE
8
0
10
2.4
20
52.6471374
11
2.4
21
52.1473368
0
LINE
8
0
10
2.4
20
52.1473368
11
13.8031692
21
52.1473368
0
LINE
8
0
10
13.8031692
20
52.1473368
11
16
21
52.1473368
0
LINE
8
0
10
16
20
52.1473368
11
16
21
52.1473368
0
LINE
8
0
10
16
20
13.7090674
11
16
21
12.9175253
0
LINE
8
0
10
16
20
12.9175253
11
16
21
12.6846987
0
LINE
8
0
10
16
20
12.6846987
11
21.4393401
21
12.6846974
0
LINE
8
0
10
21.4393401
20
12.6846974
11
33.5002484
21
12.6846955
0
LINE
8
0
10
33.5002484
20
12.6846955
11
38
21
12.6846958
0
LINE
8
0
10
38
20
12.6846958
11
38
21
2.22283373
0
LINE
8
0
10
38
20
2.22283373
11
38
21
-13.8181366
0
LINE
8
0
10
38
20
-13.8181366
11
38
21
-14.2708701
0
LINE
8
0
10
38
20
-14.2708701
11
38
21
-14.6901046
0
LINE
8
0
10
38
20
-14.6901046
11
38
21
-15
0
LINE
8
0
10
38
20
-15
11
37.9924752
21
-15.0805869
0
LINE
8
0
10
37.9924752
20
-15.0805869
11
37.9730048
21
-15.2284981
0
LINE
8
0
10
37.9730048
20
-15.2284981
11
37.9531296
21
-15.2984902
0
LINE
8
0
10
37.9531296
20
-15.2984902
11
37.8937351
21
-15.4418814
0
LINE
8
0
10
37.8937351
20
-15.4418814
11
37.8316854
21
-15.5495124
0
LINE
8
0
10
37.8316854
20
-15.5495124
11
37.7304736
21
-15.6814151
0
LINE
8
0
10
37.7304736
20
-15.6814151
11
37.6546899
21
-15.7495977
0
LINE
8
0
10
37.6546899
20
-15.7495977
11
37.5151809
21
-15.856646
0
LINE
8
0
10
37.5151809
20
-15.856646
11
37.4369565
21
-15.8932158
0
LINE
8
0
10
37.4369565
20
-15.8932158
11
37.2670369
21
-15.9635988
0
LINE
8
0
10
37.2670369
20
-15.9635988
11
37.2392543
21
-15.9704654
0
LINE
8
0
10
37.2392543
20
-15.9704654
11
37.2109339
21
-15.9746108
0
LINE
8
0
10
37.2109339
20
-15.9746108
11
37.0285863
21
-15.9986143
0
LINE
8
0
10
37.0285863
20
-15.9986143
11
37
21
-16
0
LINE
8
0
10
37
20
-16
11
35.7294969
21
-16
0
LINE
8
0
10
35.7294969
20
-16
11
19.5252112
21
-16
0
LINE
8
0
10
19.5252112
20
-16
11
17.1428532
21
-16
0
LINE
8
0
10
17.1428532
20
-16
11
12.1933299
21
-16
0
LINE
8
0
10
12.1933299
20
-16
11
4.4
21
-16
0
LINE
8
0
10
4.4
20
-16
11
4.13919227
21
-15.9779212
0
LINE
8
0
10
4.13919227
20
-15.9779212
11
3.93147192
21
-15.942425
0
LINE
8
0
10
3.93147192
20
-15.942425
11
3.8438976
21
-15.9198549
0
LINE
8
0
10
3.8438976
20
-15.9198549
11
3.48491638
21
-15.7713612
0
LINE
8
0
10
3.48491638
20
-15.7713612
11
3.40182161
21
-15.7330436
0
LINE
8
0
10
3.40182161
20
-15.7330436
11
3.33060565
21
-15.6827271
0
LINE
8
0
10
3.33060565
20
-15.6827271
11
3.01267719
21
-15.4390024
0
LINE
8
0
10
3.01267719
20
-15.4390024
11
2.95181149
21
-15.3761846
0
LINE
8
0
10
2.95181149
20
-15.3761846
11
2.7065841
21
-15.0566006
0
LINE
8
0
10
2.7065841
20
-15.0566006
11
2.65551183
21
-14.9768254
0
LINE
8
0
10
2.65551183
20
-14.9768254
11
2.50015176
21
-14.6017548
0
LINE
8
0
10
2.50015176
20
-14.6017548
11
2.46552737
21
-14.5069567
0
LINE
8
0
10
2.46552737
20
-14.5069567
11
2.45653106
21
-14.4568987
0
LINE
8
0
10
2.45653106
20
-14.4568987
11
2.45349681
21
-14.4063522
0
LINE
8
0
10
2.45349681
20
-14.4063522
11
2.42674839
21
-14.203176
0
LINE
8
0
10
2.42674839
20
-14.203176
11
2.4
21
-14
0
LINE
8
0
10
2.4
20
-14
11
2.4
21
-13.9886017
0
LINE
8
0
10
2.4
20
-13.9886017
11
2.4
21
-10.8392112
0
LINE
8
0
10
2.4
20
-10.8392112
11
2.4
21
-10.481074
0
LINE
8
0
10
2.4
20
-10.481074
11
2.4
21
-10.2778382
0
LINE
8
0
10
2.4
20
-10.2778382
11
2.4
21
3.71620843
0
LINE
8
0
10
2.4
20
3.71620843
11
2.4
21
3.73651738
0
LINE
8
0
10
2.4
20
3.73651738
11
2.4
21
3.76111541
0
LINE
8
0
10
2.4
20
3.76111541
11
2.4
21
3.78778807
0
LINE
8
0
10
2.4
20
3.78778807
11
2.4
21
4.23047712
0
LINE
8
0
10
2.4
20
4.23047712
11
2.4
21
4.50822627
0
LINE
8
0
10
2.4
20
4.50822627
11
2.4
21
5.38196304
0
LINE
8
0
10
2.4
20
5.38196304
11
2.4
21
9.16701224
0
LINE
8
0
10
2.4
20
9.16701224
11
2.4
21
13.7090674
0
LINE
8
0
10
2.4
20
13.7090674
11
15.4768308
21
13.7090674
0
LINE
8
0
10
15.4768308
20
13.7090674
11
16
21
13.7090674
0
LINE
8
0
10
16
20
13.7090674
11
16
21
13.7090674
0
LINE
8
0
10
16
20
43.4870776
11
16
21
37.9577824
0
LINE
8
0
10
16
20
37.9577824
11
16
21
33.0947748
0
LINE
8
0
10
16
20
33.0947748
11
8.36316919
21
33.0947748
0
LINE
8
0
10
8.36316919
20
33.0947748
11
2.4
21
33.0947748
0
LINE
8
0
10
2.4
20
33.0947748
11
2.4
21
35.7473244
0
LINE
8
0
10
2.4
20
35.7473244
11
2.4
21
37.9577824
0
LINE
8
0
10
2.4
20
37.9577824
11
2.4
21
40.1695005
0
LINE
8
0
10
2.4
20
40.1695005
11
2.4
21
43.4870776
0
LINE
8
0
10
2.4
20
43.4870776
11
2.4
21
44.2642474
0
LINE
8
0
10
2.4
20
44.2642474
11
2.4
21
44.8859832
0
LINE
8
0
10
2.4
20
44.8859832
11
4.59683081
21
44.8859832
0
LINE
8
0
10
4.59683081
20
44.8859832
11
16
21
44.8859832
0
LINE
8
0
10
16
20
44.8859832
11
16
21
43.4870776
0
LINE
8
0
10
16
20
43.4870776
11
16
21
43.4870776
0
ENDSEC
0
EOF
