0
SECTION
2
ENTITIES
0
LINE
8
0
10
16
20
36.7644429
11
16
21
41.7170947
0
LINE
8
0
10
16
20
41.7170947
11
16
21
43.6926429
0
LINE
8
0
10
16
20
43.6926429
11
16
21
44.6804176
0
LINE
8
0
10
16
20
44.6804176
11
14.448806
21
44.6804176
0
LINE
8
0
10
14.448806
20
44.6804176
11
2.4
21
44.6804176
0
LINE
8
0
10
2.4
20
44.6804176
11
2.4
21
44.1416314
0
LINE
8
0
10
2.4
20
44.1416314
11
2.4
21
43.6926429
0
LINE
8
0
10
2.4
20
43.6926429
11
2.4
21
39.9308326
0
LINE
8
0
10
2.4
20
39.9308326
11
2.4
21
36.7644429
0
LINE
8
0
10
2.4
20
36.7644429
11
2.4
21
35.6388396
0
LINE
8
0
10
2.4
20
35.6388396
11
2.4
21
34.2881156
0
LINE
8
0
10
2.4
20
34.2881156
11
12.111194
21
34.2881156
0
LINE
8
0
10
12.111194
20
34.2881156
11
16
21
34.2881156
0
LINE
8
0
10
16
20
34.2881156
11
16
21
36.7644429
0
LINE
8
0
10
16
20
36.7644429
11
16
21
36.7644429
0
LINE
8
0
10
16
20
28.1041915
11
16
21
25.6278635
0
LINE
8
0
10
16
20
25.6278635
11
16
21
21.1759829
0
LINE
8
0
10
16
20
21.1759829
11
16
21
15.2355536
0
LINE
8
0
10
16
20
15.2355536
11
6.67119404
21
15.2355536
0
LINE
8
0
10
6.67119404
20
15.2355536
11
2.4
21
15.2355536
0
LINE
8
0
10
2.4
20
15.2355536
11
2.4
21
18.4757909
0
LINE
8
0
10
2.4
20
18.4757909
11
2.4
21
21.1759829
0
LINE
8
0
10
2.4
20
21.1759829
11
2.4
21
22.9567326
0
LINE
8
0
10
2.4
20
22.9567326
11
2.4
21
25.6278635
0
LINE
8
0
10
2.4
20
25.6278635
11
2.4
21
27.0036029
0
LINE
8
0
10
2.4
20
27.0036029
11
2.4
21
28.1041915
0
LINE
8
0
10
2.4
20
28.1041915
11
6.28880596
21
28.1041915
0
LINE
8
0
10
6.28880596
20
28.1041915
11
16
21
28.1041915
0
LINE
8
0
10
16
20
28.1041915
11
16
21
28.1041915
0
LINE
8
0
10
16
20
52.3529024
11
16
21
53.5032309
0
LINE
8
0
10
16
20
53.5032309
11
16
21
57.3406795
0
LINE
8
0
10
16
20
57.3406795
11
15.9631282
21
57.9951369
0
LINE
8
0
10
15.9631282
20
57.9951369
11
15.8987793
21
58.885531
0
LINE
8
0
10
15.8987793
20
58.885531
11
15.8897971
21
58.9366218
0
LINE
8
0
10
15.8897971
20
58.9366218
11
15.6123113
21
60.2868282
0
LINE
8
0
10
15.6123113
20
60.2868282
11
15.560549
21
60.4507736
0
LINE
8
0
10
15.560549
20
60.4507736
11
15.1708514
21
61.4724694
0
LINE
8
0
10
15.1708514
20
61.4724694
11
15.0615799
21
61.6900995
0
LINE
8
0
10
15.0615799
20
61.6900995
11
14.6067656
21
62.3912521
0
LINE
8
0
10
14.6067656
20
62.3912521
11
14.4395292
21
62.600755
0
LINE
8
0
10
14.4395292
20
62.600755
11
13.953531
21
63.0051807
0
LINE
8
0
10
13.953531
20
63.0051807
11
13.7404834
21
63.1540079
0
LINE
8
0
10
13.7404834
20
63.1540079
11
13.5667698
21
63.2263427
0
LINE
8
0
10
13.5667698
20
63.2263427
11
13.1408561
21
63.3221539
0
LINE
8
0
10
13.1408561
20
63.3221539
11
13
21
63.3406749
0
LINE
8
0
10
13
20
63.3406749
11
7.48734209
21
63.3406749
0
LINE
8
0
10
7.48734209
20
63.3406749
11
4.4
21
63.3406749
0
LINE
8
0
10
4.4
20
63.3406749
11
4.02420132
21
63.2417323
0
LINE
8
0
10
4.02420132
20
63.2417323
11
3.882362
21
63.2043903
0
LINE
8
0
10
3.882362
20
63.2043903
11
3.75573705
21
63.0994875
0
LINE
8
0
10
3.75573705
20
63.0994875
11
3.4
21
62.8047892
0
LINE
8
0
10
3.4
20
62.8047892
11
3.30596863
21
62.6604856
0
LINE
8
0
10
3.30596863
20
62.6604856
11
2.985786
21
62.1691087
0
LINE
8
0
10
2.985786
20
62.1691087
11
2.92999937
21
62.0237027
0
LINE
8
0
10
2.92999937
20
62.0237027
11
2.667949
21
61.340677
0
LINE
8
0
10
2.667949
20
61.340677
11
2.64565442
21
61.2330289
0
LINE
8
0
10
2.64565442
20
61.2330289
11
2.468148
21
60.3759496
0
LINE
8
0
10
2.468148
20
60.3759496
11
2.4654894
21
60.335561
0
LINE
8
0
10
2.4654894
20
60.335561
11
2.4
21
59.340677
0
LINE
8
0
10
2.4
20
59.340677
11
2.4
21
53.6325379
0
LINE
8
0
10
2.4
20
53.6325379
11
2.4
21
52.7974013
0
LINE
8
0
10
2.4
20
52.7974013
11
2.4
21
52.3529024
0
LINE
8
0
10
2.4
20
52.3529024
11
3.95119404
21
52.3529024
0
LINE
8
0
10
3.95119404
20
52.3529024
11
16
21
52.3529024
0
LINE
8
0
10
16
20
52.3529024
11
16
21
52.3529024
0
LINE
8
0
10
16
20
11.9510548
11
16
21
11.7007402
0
LINE
8
0
10
16
20
11.7007402
11
20.4971073
21
11.7007391
0
LINE
8
0
10
20.4971073
20
11.7007391
11
30.4687578
21
11.7007376
0
LINE
8
0
10
30.4687578
20
11.7007376
11
38
21
11.700738
0
LINE
8
0
10
38
20
11.700738
11
38
21
-5.80929926
0
LINE
8
0
10
38
20
-5.80929926
11
38
21
-14.3693168
0
LINE
8
0
10
38
20
-14.3693168
11
38
21
-14.610911
0
LINE
8
0
10
38
20
-14.610911
11
38
21
-14.8346291
0
LINE
8
0
10
38
20
-14.8346291
11
38
21
-15
0
LINE
8
0
10
38
20
-15
11
37.9959845
21
-15.043004
0
LINE
8
0
10
37.9959845
20
-15.043004
11
37.9697054
21
-15.2426392
0
LINE
8
0
10
37.9697054
20
-15.2426392
11
37.9590993
21
-15.2799894
0
LINE
8
0
10
37.9590993
20
-15.2799894
11
37.8808144
21
-15.4689859
0
LINE
8
0
10
37.8808144
20
-15.4689859
11
37.8477025
21
-15.5264215
0
LINE
8
0
10
37.8477025
20
-15.5264215
11
37.7195776
21
-15.6933983
0
LINE
8
0
10
37.7195776
20
-15.6933983
11
37.6791368
21
-15.7297829
0
LINE
8
0
10
37.6791368
20
-15.7297829
11
37.5081011
21
-15.8610223
0
LINE
8
0
10
37.5081011
20
-15.8610223
11
37.4663578
21
-15.8805373
0
LINE
8
0
10
37.4663578
20
-15.8805373
11
37.2632048
21
-15.964686
0
LINE
8
0
10
37.2632048
20
-15.964686
11
37.248379
21
-15.9683502
0
LINE
8
0
10
37.248379
20
-15.9683502
11
37.2332663
21
-15.9705624
0
LINE
8
0
10
37.2332663
20
-15.9705624
11
37.0152547
21
-15.9992605
0
LINE
8
0
10
37.0152547
20
-15.9992605
11
37
21
-16
0
LINE
8
0
10
37
20
-16
11
36.3220155
21
-16
0
LINE
8
0
10
36.3220155
20
-16
11
16.9484441
21
-16
0
LINE
8
0
10
16.9484441
20
-16
11
15.6771353
21
-16
0
LINE
8
0
10
15.6771353
20
-16
11
13.0358982
21
-16
0
LINE
8
0
10
13.0358982
20
-16
11
4.4
21
-16
0
LINE
8
0
10
4.4
20
-16
11
4.14641085
21
-15.9785323
0
LINE
8
0
10
4.14641085
20
-15.9785323
11
3.9174679
21
-15.9394094
0
LINE
8
0
10
3.9174679
20
-15.9394094
11
3.85486598
21
-15.9232754
0
LINE
8
0
10
3.85486598
20
-15.9232754
11
3.46116416
21
-15.7604194
0
LINE
8
0
10
3.46116416
20
-15.7604194
11
3.40176441
21
-15.7330283
0
LINE
8
0
10
3.40176441
20
-15.7330283
11
3.35085614
21
-15.6970599
0
LINE
8
0
10
3.35085614
20
-15.6970599
11
3.00500899
21
-15.4319327
0
LINE
8
0
10
3.00500899
20
-15.4319327
11
2.96149954
21
-15.3870278
0
LINE
8
0
10
2.96149954
20
-15.3870278
11
2.69556705
21
-15.0404606
0
LINE
8
0
10
2.69556705
20
-15.0404606
11
2.65905837
21
-14.9834338
0
LINE
8
0
10
2.65905837
20
-14.9834338
11
2.49102568
21
-14.5777689
0
LINE
8
0
10
2.49102568
20
-14.5777689
11
2.46627466
21
-14.5100031
0
LINE
8
0
10
2.46627466
20
-14.5100031
11
2.4598437
21
-14.4742195
0
LINE
8
0
10
2.4598437
20
-14.4742195
11
2.45767469
21
-14.4380866
0
LINE
8
0
10
2.45767469
20
-14.4380866
11
2.42883733
21
-14.2190432
0
LINE
8
0
10
2.42883733
20
-14.2190432
11
2.4
21
-14
0
LINE
8
0
10
2.4
20
-14
11
2.4
21
-13.9877115
0
LINE
8
0
10
2.4
20
-13.9877115
11
2.4
21
-10.5923663
0
LINE
8
0
10
2.4
20
-10.5923663
11
2.4
21
-10.2466503
0
LINE
8
0
10
2.4
20
-10.2466503
11
2.4
21
-10.0276328
0
LINE
8
0
10
2.4
20
-10.0276328
11
2.4
21
3.47115261
0
LINE
8
0
10
2.4
20
3.47115261
11
2.4
21
3.50899846
0
LINE
8
0
10
2.4
20
3.50899846
11
2.4
21
3.55483705
0
LINE
8
0
10
2.4
20
3.55483705
11
2.4
21
3.60454172
0
LINE
8
0
10
2.4
20
3.60454172
11
2.4
21
4.42949558
0
LINE
8
0
10
2.4
20
4.42949558
11
2.4
21
4.69181705
0
LINE
8
0
10
2.4
20
4.69181705
11
2.4
21
6.57530292
0
LINE
8
0
10
2.4
20
6.57530292
11
2.4
21
9.27549764
0
LINE
8
0
10
2.4
20
9.27549764
11
2.4
21
12.5157286
0
LINE
8
0
10
2.4
20
12.5157286
11
11.728806
21
12.5157286
0
LINE
8
0
10
11.728806
20
12.5157286
11
16
21
12.5157286
0
LINE
8
0
10
16
20
12.5157286
11
16
21
11.9510548
0
LINE
8
0
10
16
20
11.9510548
11
16
21
11.9510548
0
ENDSEC
0
EOF
