0
SECTION
2
ENTITIES
0
LINE
8
0
10
16
20
43.2948631
11
16
21
45.0781979
0
LINE
8
0
10
16
20
45.0781979
11
13.1994643
21
45.0781979
0
LINE
8
0
10
13.1994643
20
45.0781979
11
2.4
21
45.0781979
0
LINE
8
0
10
2.4
20
45.0781979
11
2.4
21
44.1054698
0
LINE
8
0
10
2.4
20
44.1054698
11
2.4
21
43.2948631
0
LINE
8
0
10
2.4
20
43.2948631
11
2.4
21
39.8512766
0
LINE
8
0
10
2.4
20
39.8512766
11
2.4
21
36.3666631
0
LINE
8
0
10
2.4
20
36.3666631
11
2.4
21
35.602678
0
LINE
8
0
10
2.4
20
35.602678
11
2.4
21
34.6858959
0
LINE
8
0
10
2.4
20
34.6858959
11
13.3605357
21
34.6858959
0
LINE
8
0
10
13.3605357
20
34.6858959
11
16
21
34.6858959
0
LINE
8
0
10
16
20
34.6858959
11
16
21
36.3666631
0
LINE
8
0
10
16
20
36.3666631
11
16
21
39.7281956
0
LINE
8
0
10
16
20
39.7281956
11
16
21
43.2948631
0
LINE
8
0
10
16
20
43.2948631
11
16
21
43.2948631
0
LINE
8
0
10
16
20
57.7384594
11
16
21
54.0319326
0
LINE
8
0
10
16
20
54.0319326
11
16
21
51.9551221
0
LINE
8
0
10
16
20
51.9551221
11
5.20053565
21
51.9551221
0
LINE
8
0
10
5.20053565
20
51.9551221
11
2.4
21
51.9551221
0
LINE
8
0
10
2.4
20
51.9551221
11
2.4
21
52.7576233
0
LINE
8
0
10
2.4
20
52.7576233
11
2.4
21
54.2653842
0
LINE
8
0
10
2.4
20
54.2653842
11
2.4
21
59.7384569
0
LINE
8
0
10
2.4
20
59.7384569
11
2.46279248
21
60.6923706
0
LINE
8
0
10
2.46279248
20
60.6923706
11
2.468148
21
60.7737299
0
LINE
8
0
10
2.468148
20
60.7737299
11
2.63770558
21
61.5924287
0
LINE
8
0
10
2.63770558
20
61.5924287
11
2.667949
21
61.7384573
0
LINE
8
0
10
2.667949
20
61.7384573
11
2.91722399
21
62.3881843
0
LINE
8
0
10
2.91722399
20
62.3881843
11
2.985786
21
62.566889
0
LINE
8
0
10
2.985786
20
62.566889
11
3.2890726
21
63.0323359
0
LINE
8
0
10
3.2890726
20
63.0323359
11
3.4
21
63.2025687
0
LINE
8
0
10
3.4
20
63.2025687
11
3.73569738
21
63.4806658
0
LINE
8
0
10
3.73569738
20
63.4806658
11
3.882362
21
63.6021706
0
LINE
8
0
10
3.882362
20
63.6021706
11
4.04664882
21
63.6454223
0
LINE
8
0
10
4.04664882
20
63.6454223
11
4.4
21
63.7384548
0
LINE
8
0
10
4.4
20
63.7384548
11
7.30292662
21
63.7384548
0
LINE
8
0
10
7.30292662
20
63.7384548
11
13
21
63.7384548
0
LINE
8
0
10
13
20
63.7384548
11
13.1324424
21
63.7210401
0
LINE
8
0
10
13.1324424
20
63.7210401
11
13.5726791
21
63.6220069
0
LINE
8
0
10
13.5726791
20
63.6220069
11
13.736208
21
63.553913
0
LINE
8
0
10
13.736208
20
63.553913
11
13.972886
21
63.3885784
0
LINE
8
0
10
13.972886
20
63.3885784
11
14.4318633
21
63.0066384
0
LINE
8
0
10
14.4318633
20
63.0066384
11
14.6203003
21
62.7705767
0
LINE
8
0
10
14.6203003
20
62.7705767
11
15.0517711
21
62.105411
0
LINE
8
0
10
15.0517711
20
62.105411
11
15.178984
21
61.852048
0
LINE
8
0
10
15.178984
20
61.852048
11
15.5505341
21
60.8779307
0
LINE
8
0
10
15.5505341
20
60.8779307
11
15.6161089
21
60.6702375
0
LINE
8
0
10
15.6161089
20
60.6702375
11
15.8819635
21
59.3766265
0
LINE
8
0
10
15.8819635
20
59.3766265
11
15.89976
21
59.2754007
0
LINE
8
0
10
15.89976
20
59.2754007
11
15.9616818
21
58.4185886
0
LINE
8
0
10
15.9616818
20
58.4185886
11
16
21
57.7384594
0
LINE
8
0
10
16
20
57.7384594
11
16
21
57.7384594
0
LINE
8
0
10
16
20
26.0256444
11
16
21
20.7782031
0
LINE
8
0
10
16
20
20.7782031
11
16
21
15.6333339
0
LINE
8
0
10
16
20
15.6333339
11
7.92053565
21
15.6333339
0
LINE
8
0
10
7.92053565
20
15.6333339
11
2.4
21
15.6333339
0
LINE
8
0
10
2.4
20
15.6333339
11
2.4
21
18.4396289
0
LINE
8
0
10
2.4
20
18.4396289
11
2.4
21
20.7782031
0
LINE
8
0
10
2.4
20
20.7782031
11
2.4
21
22.8771766
0
LINE
8
0
10
2.4
20
22.8771766
11
2.4
21
26.0256444
0
LINE
8
0
10
2.4
20
26.0256444
11
2.4
21
26.9594054
0
LINE
8
0
10
2.4
20
26.9594054
11
2.4
21
27.7064122
0
LINE
8
0
10
2.4
20
27.7064122
11
5.03946435
21
27.7064122
0
LINE
8
0
10
5.03946435
20
27.7064122
11
16
21
27.7064122
0
LINE
8
0
10
16
20
27.7064122
11
16
21
26.0256444
0
LINE
8
0
10
16
20
26.0256444
11
16
21
26.0256444
0
LINE
8
0
10
16
20
11.372754
11
16
21
11.628898
0
LINE
8
0
10
16
20
11.628898
11
16
21
12.1179489
0
LINE
8
0
10
16
20
12.1179489
11
10.4794643
21
12.1179489
0
LINE
8
0
10
10.4794643
20
12.1179489
11
2.4
21
12.1179489
0
LINE
8
0
10
2.4
20
12.1179489
11
2.4
21
9.31165944
0
LINE
8
0
10
2.4
20
9.31165944
11
2.4
21
6.97308288
0
LINE
8
0
10
2.4
20
6.97308288
11
2.4
21
4.75301398
0
LINE
8
0
10
2.4
20
4.75301398
11
2.4
21
4.49583507
0
LINE
8
0
10
2.4
20
4.49583507
11
2.4
21
3.5434596
0
LINE
8
0
10
2.4
20
3.5434596
11
2.4
21
3.4860776
0
LINE
8
0
10
2.4
20
3.4860776
11
2.4
21
3.43315882
0
LINE
8
0
10
2.4
20
3.43315882
11
2.4
21
3.38946734
0
LINE
8
0
10
2.4
20
3.38946734
11
2.4
21
-9.94423106
0
LINE
8
0
10
2.4
20
-9.94423106
11
2.4
21
-10.168509
0
LINE
8
0
10
2.4
20
-10.168509
11
2.4
21
-10.5100847
0
LINE
8
0
10
2.4
20
-10.5100847
11
2.4
21
-13.9874148
0
LINE
8
0
10
2.4
20
-13.9874148
11
2.4
21
-14
0
LINE
8
0
10
2.4
20
-14
11
2.42953365
21
-14.2243323
0
LINE
8
0
10
2.42953365
20
-14.2243323
11
2.45906732
21
-14.4486648
0
LINE
8
0
10
2.45906732
20
-14.4486648
11
2.46094792
21
-14.4799931
0
LINE
8
0
10
2.46094792
20
-14.4799931
11
2.46652375
21
-14.5110186
0
LINE
8
0
10
2.46652375
20
-14.5110186
11
2.48798365
21
-14.5697736
0
LINE
8
0
10
2.48798365
20
-14.5697736
11
2.66024055
21
-14.9856366
0
LINE
8
0
10
2.66024055
20
-14.9856366
11
2.6918947
21
-15.0350805
0
LINE
8
0
10
2.6918947
20
-15.0350805
11
2.9647289
21
-15.3906422
0
LINE
8
0
10
2.9647289
20
-15.3906422
11
3.00245292
21
-15.4295761
0
LINE
8
0
10
3.00245292
20
-15.4295761
11
3.35760631
21
-15.7018375
0
LINE
8
0
10
3.35760631
20
-15.7018375
11
3.40174534
21
-15.7330232
0
LINE
8
0
10
3.40174534
20
-15.7330232
11
3.45324675
21
-15.7567721
0
LINE
8
0
10
3.45324675
20
-15.7567721
11
3.8585221
21
-15.9244155
0
LINE
8
0
10
3.8585221
20
-15.9244155
11
3.9127999
21
-15.9384043
0
LINE
8
0
10
3.9127999
20
-15.9384043
11
4.14881704
21
-15.978736
0
LINE
8
0
10
4.14881704
20
-15.978736
11
4.4
21
-16
0
LINE
8
0
10
4.4
20
-16
11
13.3167544
21
-16
0
LINE
8
0
10
13.3167544
20
-16
11
15.1885627
21
-16
0
LINE
8
0
10
15.1885627
20
-16
11
16.0895217
21
-16
0
LINE
8
0
10
16.0895217
20
-16
11
36.5195217
21
-16
0
LINE
8
0
10
36.5195217
20
-16
11
37
21
-16
0
LINE
8
0
10
37
20
-16
11
37.0108108
21
-15.9994759
0
LINE
8
0
10
37.0108108
20
-15.9994759
11
37.2407104
21
-15.9692129
0
LINE
8
0
10
37.2407104
20
-15.9692129
11
37.2514206
21
-15.9676452
0
LINE
8
0
10
37.2514206
20
-15.9676452
11
37.2619275
21
-15.9650484
0
LINE
8
0
10
37.2619275
20
-15.9650484
11
37.4761582
21
-15.8763111
0
LINE
8
0
10
37.4761582
20
-15.8763111
11
37.5057411
21
-15.8624811
0
LINE
8
0
10
37.5057411
20
-15.8624811
11
37.6872858
21
-15.723178
0
LINE
8
0
10
37.6872858
20
-15.723178
11
37.7159456
21
-15.6973927
0
LINE
8
0
10
37.7159456
20
-15.6973927
11
37.8530416
21
-15.5187246
0
LINE
8
0
10
37.8530416
20
-15.5187246
11
37.8765075
21
-15.4780207
0
LINE
8
0
10
37.8765075
20
-15.4780207
11
37.9610892
21
-15.2738225
0
LINE
8
0
10
37.9610892
20
-15.2738225
11
37.9686055
21
-15.2473529
0
LINE
8
0
10
37.9686055
20
-15.2473529
11
37.9971543
21
-15.0304763
0
LINE
8
0
10
37.9971543
20
-15.0304763
11
38
21
-15
0
LINE
8
0
10
38
20
-15
11
38
21
-14.8828039
0
LINE
8
0
10
38
20
-14.8828039
11
38
21
-14.724258
0
LINE
8
0
10
38
20
-14.724258
11
38
21
-14.5530435
0
LINE
8
0
10
38
20
-14.5530435
11
38
21
-8.48667692
0
LINE
8
0
10
38
20
-8.48667692
11
38
21
11.372752
0
LINE
8
0
10
38
20
11.372752
11
29.4582609
21
11.3727516
0
LINE
8
0
10
29.4582609
20
11.3727516
11
20.1830297
21
11.372753
0
LINE
8
0
10
20.1830297
20
11.372753
11
16
21
11.372754
0
LINE
8
0
10
16
20
11.372754
11
16
21
11.372754
0
ENDSEC
0
EOF
