0
SECTION
2
ENTITIES
0
LINE
8
0
10
13.1072012
20
64.9176988
11
13
21
64.9317945
0
LINE
8
0
10
13
20
64.9317945
11
6.74968018
21
64.9317945
0
LINE
8
0
10
6.74968018
20
64.9317945
11
4.4
21
64.9317945
0
LINE
8
0
10
4.4
20
64.9317945
11
4.1139913
21
64.8564923
0
LINE
8
0
10
4.1139913
20
64.8564923
11
3.882362
21
64.7955114
0
LINE
8
0
10
3.882362
20
64.7955114
11
3.67557838
21
64.6242008
0
LINE
8
0
10
3.67557838
20
64.6242008
11
3.4
21
64.3959073
0
LINE
8
0
10
3.4
20
64.3959073
11
3.23838449
21
64.1478868
0
LINE
8
0
10
3.23838449
20
64.1478868
11
2.985786
21
63.7602298
0
LINE
8
0
10
2.985786
20
63.7602298
11
2.87889784
21
63.4816293
0
LINE
8
0
10
2.87889784
20
63.4816293
11
2.667949
21
62.9317981
0
LINE
8
0
10
2.667949
20
62.9317981
11
2.61385905
21
62.6706279
0
LINE
8
0
10
2.61385905
20
62.6706279
11
2.468148
21
61.9670707
0
LINE
8
0
10
2.468148
20
61.9670707
11
2.45470174
21
61.7627996
0
LINE
8
0
10
2.45470174
20
61.7627996
11
2.4
21
60.9317966
0
LINE
8
0
10
2.4
20
60.9317966
11
2.4
21
56.1639234
0
LINE
8
0
10
2.4
20
56.1639234
11
2.4
21
52.6382894
0
LINE
8
0
10
2.4
20
52.6382894
11
2.4
21
50.7617813
0
LINE
8
0
10
2.4
20
50.7617813
11
8.9485605
21
50.7617813
0
LINE
8
0
10
8.9485605
20
50.7617813
11
16
21
50.7617813
0
LINE
8
0
10
16
20
50.7617813
11
16
21
55.6180377
0
LINE
8
0
10
16
20
55.6180377
11
16
21
58.9317989
0
LINE
8
0
10
16
20
58.9317989
11
15.9573428
21
59.6889437
0
LINE
8
0
10
15.9573428
20
59.6889437
11
15.9027019
21
60.4450095
0
LINE
8
0
10
15.9027019
20
60.4450095
11
15.8584627
21
60.6966408
0
LINE
8
0
10
15.8584627
20
60.6966408
11
15.6275015
21
61.8204653
0
LINE
8
0
10
15.6275015
20
61.8204653
11
15.5204894
21
62.1594021
0
LINE
8
0
10
15.5204894
20
62.1594021
11
15.2033818
21
62.9907837
0
LINE
8
0
10
15.2033818
20
62.9907837
11
15.0223447
21
63.3513455
0
LINE
8
0
10
15.0223447
20
63.3513455
11
14.6609046
21
63.9085503
0
LINE
8
0
10
14.6609046
20
63.9085503
11
14.4088655
21
64.2242884
0
LINE
8
0
10
14.4088655
20
64.2242884
11
14.030951
21
64.5387717
0
LINE
8
0
10
14.030951
20
64.5387717
11
13.7233817
21
64.7536284
0
LINE
8
0
10
13.7233817
20
64.7536284
11
13.5904068
21
64.8089994
0
LINE
8
0
10
13.5904068
20
64.8089994
11
13.1072012
21
64.9176988
0
LINE
8
0
10
13.1072012
20
64.9176988
11
13.1072012
21
64.9176988
0
LINE
8
0
10
14.0057601
20
-15.9992416
11
14.1164502
21
-15.9901164
0
LINE
8
0
10
14.1164502
20
-15.9901164
11
29.0639158
21
-15.9901164
0
LINE
8
0
10
29.0639158
20
-15.9901164
11
34.6845463
21
-15.9828475
0
LINE
8
0
10
34.6845463
20
-15.9828475
11
37
21
-15.9828475
0
LINE
8
0
10
37
20
-15.9828475
11
37.2067082
21
-15.9556373
0
LINE
8
0
10
37.2067082
20
-15.9556373
11
37.25882
21
-15.9487773
0
LINE
8
0
10
37.25882
20
-15.9487773
11
37.4507688
21
-15.8692695
0
LINE
8
0
10
37.4507688
20
-15.8692695
11
37.5
21
-15.8488784
0
LINE
8
0
10
37.5
20
-15.8488784
11
37.6630481
21
-15.723768
0
LINE
8
0
10
37.6630481
20
-15.723768
11
37.70711
21
-15.6899573
0
LINE
8
0
10
37.70711
20
-15.6899573
11
37.829786
21
-15.5300817
0
LINE
8
0
10
37.829786
20
-15.5300817
11
37.86603
21
-15.482848
0
LINE
8
0
10
37.86603
20
-15.482848
11
37.9407872
21
-15.3023681
0
LINE
8
0
10
37.9407872
20
-15.3023681
11
37.96593
21
-15.2416686
0
LINE
8
0
10
37.96593
20
-15.2416686
11
37.9902495
21
-15.0569204
0
LINE
8
0
10
37.9902495
20
-15.0569204
11
38
21
-14.9828489
0
LINE
8
0
10
38
20
-14.9828489
11
38
21
-12.9648056
0
LINE
8
0
10
38
20
-12.9648056
11
38
21
10.3887942
0
LINE
8
0
10
38
20
10.3887942
11
26.4267702
21
10.3887937
0
LINE
8
0
10
26.4267702
20
10.3887937
11
19.2407968
21
10.3887948
0
LINE
8
0
10
19.2407968
20
10.3887948
11
16
21
10.3887956
0
LINE
8
0
10
16
20
10.3887956
11
16
21
10.6624275
0
LINE
8
0
10
16
20
10.6624275
11
16
21
10.9246101
0
LINE
8
0
10
16
20
10.9246101
11
6.7314395
21
10.9246101
0
LINE
8
0
10
6.7314395
20
10.9246101
11
2.4
21
10.9246101
0
LINE
8
0
10
2.4
20
10.9246101
11
2.4
21
9.42014484
0
LINE
8
0
10
2.4
20
9.42014484
11
2.4
21
8.16642276
0
LINE
8
0
10
2.4
20
8.16642276
11
2.4
21
4.93660477
0
LINE
8
0
10
2.4
20
4.93660477
11
2.4
21
4.69485353
0
LINE
8
0
10
2.4
20
4.69485353
11
2.4
21
3.36021325
0
LINE
8
0
10
2.4
20
3.36021325
11
2.4
21
3.27979924
0
LINE
8
0
10
2.4
20
3.27979924
11
2.4
21
3.20563991
0
LINE
8
0
10
2.4
20
3.20563991
11
2.4
21
3.14441152
0
LINE
8
0
10
2.4
20
3.14441152
11
2.4
21
-9.69402573
0
LINE
8
0
10
2.4
20
-9.69402573
11
2.4
21
-9.93408522
0
LINE
8
0
10
2.4
20
-9.93408522
11
2.4
21
-10.2632399
0
LINE
8
0
10
2.4
20
-10.2632399
11
2.4
21
-13.9865246
0
LINE
8
0
10
2.4
20
-13.9865246
11
2.4
21
-14
0
LINE
8
0
10
2.4
20
-14
11
2.43162259
21
-14.2401995
0
LINE
8
0
10
2.43162259
20
-14.2401995
11
2.4632452
21
-14.4803992
0
LINE
8
0
10
2.4632452
20
-14.4803992
11
2.46426057
21
-14.4973138
0
LINE
8
0
10
2.46426057
20
-14.4973138
11
2.46727105
21
-14.514065
0
LINE
8
0
10
2.46727105
20
-14.514065
11
2.47885757
21
-14.5457877
0
LINE
8
0
10
2.47885757
20
-14.5457877
11
2.66378709
21
-14.992245
0
LINE
8
0
10
2.66378709
20
-14.992245
11
2.68087764
21
-15.0189405
0
LINE
8
0
10
2.68087764
20
-15.0189405
11
2.97441695
21
-15.4014854
0
LINE
8
0
10
2.97441695
20
-15.4014854
11
2.99478472
21
-15.4225064
0
LINE
8
0
10
2.99478472
20
-15.4225064
11
3.3778568
21
-15.7161703
0
LINE
8
0
10
3.3778568
20
-15.7161703
11
3.40168813
21
-15.7330079
0
LINE
8
0
10
3.40168813
20
-15.7330079
11
3.42949452
21
-15.7458303
0
LINE
8
0
10
3.42949452
20
-15.7458303
11
3.86949048
21
-15.927836
0
LINE
8
0
10
3.86949048
20
-15.927836
11
3.89879588
21
-15.9353888
0
LINE
8
0
10
3.89879588
20
-15.9353888
11
4.15603562
21
-15.9793471
0
LINE
8
0
10
4.15603562
20
-15.9793471
11
4.4
21
-16
0
LINE
8
0
10
4.4
20
-16
11
13.9465871
21
-16
0
LINE
8
0
10
13.9465871
20
-16
11
14
21
-16
0
LINE
8
0
10
14
20
-16
11
14.0057601
21
-15.9992416
0
LINE
8
0
10
14.0057601
20
-15.9992416
11
14.0057601
21
-15.9992416
0
LINE
8
0
10
16
20
25.1012465
11
16
21
19.5848637
0
LINE
8
0
10
16
20
19.5848637
11
16
21
16.8266747
0
LINE
8
0
10
16
20
16.8266747
11
11.6685605
21
16.8266747
0
LINE
8
0
10
11.6685605
20
16.8266747
11
2.4
21
16.8266747
0
LINE
8
0
10
2.4
20
16.8266747
11
2.4
21
18.3311429
0
LINE
8
0
10
2.4
20
18.3311429
11
2.4
21
19.5848637
0
LINE
8
0
10
2.4
20
19.5848637
11
2.4
21
22.6385087
0
LINE
8
0
10
2.4
20
22.6385087
11
2.4
21
26.513073
0
LINE
8
0
10
2.4
20
26.513073
11
2.4
21
26.8339429
0
LINE
8
0
10
2.4
20
26.8339429
11
2.4
21
27.2189859
0
LINE
8
0
10
2.4
20
27.2189859
11
14.8914395
21
27.2189859
0
LINE
8
0
10
14.8914395
20
27.2189859
11
16
21
27.2189859
0
LINE
8
0
10
16
20
27.2189859
11
16
21
26.513073
0
LINE
8
0
10
16
20
26.513073
11
16
21
25.1012465
0
LINE
8
0
10
16
20
25.1012465
11
16
21
25.1012465
0
LINE
8
0
10
16
20
35.8792363
11
16
21
35.1733233
0
LINE
8
0
10
16
20
35.1733233
11
3.5085605
21
35.1733233
0
LINE
8
0
10
3.5085605
20
35.1733233
11
2.4
21
35.1733233
0
LINE
8
0
10
2.4
20
35.1733233
11
2.4
21
35.4870624
0
LINE
8
0
10
2.4
20
35.4870624
11
2.4
21
35.8792363
0
LINE
8
0
10
2.4
20
35.8792363
11
2.4
21
39.6126087
0
LINE
8
0
10
2.4
20
39.6126087
11
2.4
21
42.1015237
0
LINE
8
0
10
2.4
20
42.1015237
11
2.4
21
43.9969851
0
LINE
8
0
10
2.4
20
43.9969851
11
2.4
21
46.2715387
0
LINE
8
0
10
2.4
20
46.2715387
11
9.4514395
21
46.2715387
0
LINE
8
0
10
9.4514395
20
46.2715387
11
16
21
46.2715387
0
LINE
8
0
10
16
20
46.2715387
11
16
21
42.1015237
0
LINE
8
0
10
16
20
42.1015237
11
16
21
35.8792363
0
LINE
8
0
10
16
20
35.8792363
11
16
21
35.8792363
0
ENDSEC
0
EOF
