0
SECTION
2
ENTITIES
0
LINE
8
0
10
16
20
18.0200155
11
16
21
18.3915243
0
LINE
8
0
10
16
20
18.3915243
11
16
21
19.1345425
0
LINE
8
0
10
16
20
19.1345425
11
16
21
25.3197313
0
LINE
8
0
10
16
20
25.3197313
11
16
21
28.4123239
0
LINE
8
0
10
16
20
28.4123239
11
11.1434147
21
28.4123239
0
LINE
8
0
10
11.1434147
20
28.4123239
11
2.4
21
28.4123239
0
LINE
8
0
10
2.4
20
28.4123239
11
2.4
21
26.7254569
0
LINE
8
0
10
2.4
20
26.7254569
11
2.4
21
25.3197313
0
LINE
8
0
10
2.4
20
25.3197313
11
2.4
21
22.3998409
0
LINE
8
0
10
2.4
20
22.3998409
11
2.4
21
18.3915243
0
LINE
8
0
10
2.4
20
18.3915243
11
2.4
21
18.2226569
0
LINE
8
0
10
2.4
20
18.2226569
11
2.4
21
18.0200155
0
LINE
8
0
10
2.4
20
18.0200155
11
15.4165853
21
18.0200155
0
LINE
8
0
10
15.4165853
20
18.0200155
11
16
21
18.0200155
0
LINE
8
0
10
16
20
18.0200155
11
16
21
18.0200155
0
LINE
8
0
10
16
20
9.73127121
11
16
21
9.69595705
0
LINE
8
0
10
16
20
9.69595705
11
16
21
9.40483707
0
LINE
8
0
10
16
20
9.40483707
11
18.298564
21
9.40483652
0
LINE
8
0
10
18.298564
20
9.40483652
11
23.3952795
21
9.40483575
0
LINE
8
0
10
23.3952795
20
9.40483575
11
38
21
9.40483642
0
LINE
8
0
10
38
20
9.40483642
11
38
21
-2.20180472
0
LINE
8
0
10
38
20
-2.20180472
11
38
21
-5.88405417
0
LINE
8
0
10
38
20
-5.88405417
11
38
21
-12.653838
0
LINE
8
0
10
38
20
-12.653838
11
38
21
-14.6790872
0
LINE
8
0
10
38
20
-14.6790872
11
38
21
-14.7458985
0
LINE
8
0
10
38
20
-14.7458985
11
37.9952205
21
-14.7912724
0
LINE
8
0
10
37.9952205
20
-14.7912724
11
37.9817672
21
-14.9189901
0
LINE
8
0
10
37.9817672
20
-14.9189901
11
37.9701026
21
-15.0140816
0
LINE
8
0
10
37.9701026
20
-15.0140816
11
37.96593
21
-15.0480978
0
LINE
8
0
10
37.96593
20
-15.0480978
11
37.8991745
21
-15.2210483
0
LINE
8
0
10
37.8991745
20
-15.2210483
11
37.86603
21
-15.3069172
0
LINE
8
0
10
37.86603
20
-15.3069172
11
37.7842212
21
-15.4213279
0
LINE
8
0
10
37.7842212
20
-15.4213279
11
37.70711
21
-15.529169
0
LINE
8
0
10
37.70711
20
-15.529169
11
37.6231466
21
-15.5983081
0
LINE
8
0
10
37.6231466
20
-15.5983081
11
37.5
21
-15.6997144
0
LINE
8
0
10
37.5
20
-15.6997144
11
37.4195984
21
-15.7354515
0
LINE
8
0
10
37.4195984
20
-15.7354515
11
37.25882
21
-15.8069157
0
LINE
8
0
10
37.25882
20
-15.8069157
11
37.1822344
21
-15.8177364
0
LINE
8
0
10
37.1822344
20
-15.8177364
11
37
21
-15.8434805
0
LINE
8
0
10
37
20
-15.8434805
11
33.7155592
21
-15.8434805
0
LINE
8
0
10
33.7155592
20
-15.8434805
11
25.5
21
-15.8434805
0
LINE
8
0
10
25.5
20
-15.8434805
11
21.73774
21
-15.8489011
0
LINE
8
0
10
21.73774
20
-15.8489011
11
14.7298518
21
-15.8568891
0
LINE
8
0
10
14.7298518
20
-15.8568891
11
14.6744425
21
-15.8826065
0
LINE
8
0
10
14.6744425
20
-15.8826065
11
14.6715691
21
-15.8837975
0
LINE
8
0
10
14.6715691
20
-15.8837975
11
14.3399087
21
-15.9701953
0
LINE
8
0
10
14.3399087
20
-15.9701953
11
14.0362222
21
-15.9952312
0
LINE
8
0
10
14.0362222
20
-15.9952312
11
14
21
-16
0
LINE
8
0
10
14
20
-16
11
13.6641164
21
-16
0
LINE
8
0
10
13.6641164
20
-16
11
4.4
21
-16
0
LINE
8
0
10
4.4
20
-16
11
4.1632542
21
-15.9799582
0
LINE
8
0
10
4.1632542
20
-15.9799582
11
3.88479186
21
-15.9323732
0
LINE
8
0
10
3.88479186
20
-15.9323732
11
3.88045886
21
-15.9312565
0
LINE
8
0
10
3.88045886
20
-15.9312565
11
3.40574229
21
-15.7348885
0
LINE
8
0
10
3.40574229
20
-15.7348885
11
3.40163093
21
-15.7329927
0
LINE
8
0
10
3.40163093
20
-15.7329927
11
3.3981073
21
-15.7305031
0
LINE
8
0
10
3.3981073
20
-15.7305031
11
2.98711652
21
-15.4154367
0
LINE
8
0
10
2.98711652
20
-15.4154367
11
2.98410501
21
-15.4123286
0
LINE
8
0
10
2.98410501
20
-15.4123286
11
2.66986059
21
-15.0028005
0
LINE
8
0
10
2.66986059
20
-15.0028005
11
2.66733363
21
-14.9988534
0
LINE
8
0
10
2.66733363
20
-14.9988534
11
2.46973148
21
-14.5218018
0
LINE
8
0
10
2.46973148
20
-14.5218018
11
2.46801834
21
-14.5171114
0
LINE
8
0
10
2.46801834
20
-14.5171114
11
2.46757322
21
-14.5146346
0
LINE
8
0
10
2.46757322
20
-14.5146346
11
2.46742309
21
-14.5121337
0
LINE
8
0
10
2.46742309
20
-14.5121337
11
2.43371153
21
-14.2560667
0
LINE
8
0
10
2.43371153
20
-14.2560667
11
2.4
21
-14
0
LINE
8
0
10
2.4
20
-14
11
2.4
21
-13.9856345
0
LINE
8
0
10
2.4
20
-13.9856345
11
2.4
21
-10.016395
0
LINE
8
0
10
2.4
20
-10.016395
11
2.4
21
-9.69966144
0
LINE
8
0
10
2.4
20
-9.69966144
11
2.4
21
-9.44382041
0
LINE
8
0
10
2.4
20
-9.44382041
11
2.4
21
2.89935569
0
LINE
8
0
10
2.4
20
2.89935569
11
2.4
21
2.97812099
0
LINE
8
0
10
2.4
20
2.97812099
11
2.4
21
3.07352087
0
LINE
8
0
10
2.4
20
3.07352087
11
2.4
21
3.17696689
0
LINE
8
0
10
2.4
20
3.17696689
11
2.4
21
4.893872
0
LINE
8
0
10
2.4
20
4.893872
11
2.4
21
5.12019555
0
LINE
8
0
10
2.4
20
5.12019555
11
2.4
21
9.35976263
0
LINE
8
0
10
2.4
20
9.35976263
11
2.4
21
9.52863025
0
LINE
8
0
10
2.4
20
9.52863025
11
2.4
21
9.73127121
0
LINE
8
0
10
2.4
20
9.73127121
11
2.98341466
21
9.73127121
0
LINE
8
0
10
2.98341466
20
9.73127121
11
16
21
9.73127121
0
LINE
8
0
10
16
20
9.73127121
11
16
21
9.73127121
0
LINE
8
0
10
16
20
57.2041429
11
16
21
60.1251385
0
LINE
8
0
10
16
20
60.1251385
11
15.9530038
21
60.9592988
0
LINE
8
0
10
15.9530038
20
60.9592988
11
15.9056438
21
61.6146184
0
LINE
8
0
10
15.9056438
20
61.6146184
11
15.834962
21
62.016655
0
LINE
8
0
10
15.834962
20
62.016655
11
15.6388942
21
62.9706931
0
LINE
8
0
10
15.6388942
20
62.9706931
11
15.4904446
21
63.4408736
0
LINE
8
0
10
15.4904446
20
63.4408736
11
15.2277797
21
64.1295194
0
LINE
8
0
10
15.2277797
20
64.1295194
11
14.9929183
21
64.59728
0
LINE
8
0
10
14.9929183
20
64.59728
11
14.7015088
21
65.046524
0
LINE
8
0
10
14.7015088
20
65.046524
11
14.3858677
21
65.4419385
0
LINE
8
0
10
14.3858677
20
65.4419385
11
14.0890161
21
65.688965
0
LINE
8
0
10
14.0890161
20
65.688965
11
13.7105553
21
65.9533437
0
LINE
8
0
10
13.7105553
20
65.9533437
11
13.6081345
21
65.995992
0
LINE
8
0
10
13.6081345
20
65.995992
11
13.08196
21
66.1143574
0
LINE
8
0
10
13.08196
20
66.1143574
11
13
21
66.1251342
0
LINE
8
0
10
13
20
66.1251342
11
6.19643374
21
66.1251342
0
LINE
8
0
10
6.19643374
20
66.1251342
11
4.4
21
66.1251342
0
LINE
8
0
10
4.4
20
66.1251342
11
4.18133378
21
66.0675624
0
LINE
8
0
10
4.18133378
20
66.0675624
11
3.882362
21
65.9888522
0
LINE
8
0
10
3.882362
20
65.9888522
11
3.61545938
21
65.7677359
0
LINE
8
0
10
3.61545938
20
65.7677359
11
3.4
21
65.5892459
0
LINE
8
0
10
3.4
20
65.5892459
11
3.18769639
21
65.2634378
0
LINE
8
0
10
3.18769639
20
65.2634378
11
2.985786
21
64.9535706
0
LINE
8
0
10
2.985786
20
64.9535706
11
2.8405717
21
64.5750743
0
LINE
8
0
10
2.8405717
20
64.5750743
11
2.667949
21
64.1251389
0
LINE
8
0
10
2.667949
20
64.1251389
11
2.59001251
21
63.7488271
0
LINE
8
0
10
2.59001251
20
63.7488271
11
2.468148
21
63.1604115
0
LINE
8
0
10
2.468148
20
63.1604115
11
2.446611
21
62.8332285
0
LINE
8
0
10
2.446611
20
62.8332285
11
2.4
21
62.1251363
0
LINE
8
0
10
2.4
20
62.1251363
11
2.4
21
58.0624625
0
LINE
8
0
10
2.4
20
58.0624625
11
2.4
21
52.5189554
0
LINE
8
0
10
2.4
20
52.5189554
11
2.4
21
49.5684405
0
LINE
8
0
10
2.4
20
49.5684405
11
12.6965853
21
49.5684405
0
LINE
8
0
10
12.6965853
20
49.5684405
11
16
21
49.5684405
0
LINE
8
0
10
16
20
49.5684405
11
16
21
57.2041429
0
LINE
8
0
10
16
20
57.2041429
11
16
21
57.2041429
0
LINE
8
0
10
16
20
33.9799825
11
16
21
37.0725757
0
LINE
8
0
10
16
20
37.0725757
11
16
21
40.9081843
0
LINE
8
0
10
16
20
40.9081843
11
16
21
47.4648795
0
LINE
8
0
10
16
20
47.4648795
11
5.70341466
21
47.4648795
0
LINE
8
0
10
5.70341466
20
47.4648795
11
2.4
21
47.4648795
0
LINE
8
0
10
2.4
20
47.4648795
11
2.4
21
43.8885003
0
LINE
8
0
10
2.4
20
43.8885003
11
2.4
21
40.9081843
0
LINE
8
0
10
2.4
20
40.9081843
11
2.4
21
39.3739409
0
LINE
8
0
10
2.4
20
39.3739409
11
2.4
21
37.0725757
0
LINE
8
0
10
2.4
20
37.0725757
11
2.4
21
35.3544684
0
LINE
8
0
10
2.4
20
35.3544684
11
2.4
21
33.9799825
0
LINE
8
0
10
2.4
20
33.9799825
11
7.25658534
21
33.9799825
0
LINE
8
0
10
7.25658534
20
33.9799825
11
16
21
33.9799825
0
LINE
8
0
10
16
20
33.9799825
11
16
21
33.9799825
0
ENDSEC
0
EOF
