0
SECTION
2
ENTITIES
0
LINE
8
0
10
16
20
33.5822022
11
16
21
37.4703555
0
LINE
8
0
10
16
20
37.4703555
11
16
21
40.5104045
0
LINE
8
0
10
16
20
40.5104045
11
16
21
47.8626598
0
LINE
8
0
10
16
20
47.8626598
11
4.45407304
21
47.8626598
0
LINE
8
0
10
4.45407304
20
47.8626598
11
2.4
21
47.8626598
0
LINE
8
0
10
2.4
20
47.8626598
11
2.4
21
43.8523387
0
LINE
8
0
10
2.4
20
43.8523387
11
2.4
21
40.5104045
0
LINE
8
0
10
2.4
20
40.5104045
11
2.4
21
39.2943849
0
LINE
8
0
10
2.4
20
39.2943849
11
2.4
21
37.4703555
0
LINE
8
0
10
2.4
20
37.4703555
11
2.4
21
35.3102704
0
LINE
8
0
10
2.4
20
35.3102704
11
2.4
21
33.5822022
0
LINE
8
0
10
2.4
20
33.5822022
11
8.50592696
21
33.5822022
0
LINE
8
0
10
8.50592696
20
33.5822022
11
16
21
33.5822022
0
LINE
8
0
10
16
20
33.5822022
11
16
21
33.5822022
0
LINE
8
0
10
16
20
24.9219507
11
16
21
18.4177955
0
LINE
8
0
10
16
20
18.4177955
11
16
21
17.9937442
0
LINE
8
0
10
16
20
17.9937442
11
3.06592696
21
17.9937442
0
LINE
8
0
10
3.06592696
20
17.9937442
11
2.4
21
17.9937442
0
LINE
8
0
10
2.4
20
17.9937442
11
2.4
21
18.1822117
0
LINE
8
0
10
2.4
20
18.1822117
11
2.4
21
18.4177955
0
LINE
8
0
10
2.4
20
18.4177955
11
2.4
21
22.3202849
0
LINE
8
0
10
2.4
20
22.3202849
11
2.4
21
24.9219507
0
LINE
8
0
10
2.4
20
24.9219507
11
2.4
21
26.6892948
0
LINE
8
0
10
2.4
20
26.6892948
11
2.4
21
28.8101033
0
LINE
8
0
10
2.4
20
28.8101033
11
9.89407304
21
28.8101033
0
LINE
8
0
10
9.89407304
20
28.8101033
11
16
21
28.8101033
0
LINE
8
0
10
16
20
28.8101033
11
16
21
24.9219507
0
LINE
8
0
10
16
20
24.9219507
11
16
21
24.9219507
0
LINE
8
0
10
16
20
49.1706602
11
16
21
57.7328446
0
LINE
8
0
10
16
20
57.7328446
11
16
21
60.5229184
0
LINE
8
0
10
16
20
60.5229184
11
15.9515575
21
61.3827506
0
LINE
8
0
10
15.9515575
20
61.3827506
11
15.9066245
21
62.004488
0
LINE
8
0
10
15.9066245
20
62.004488
11
15.8271284
21
62.4566597
0
LINE
8
0
10
15.8271284
20
62.4566597
11
15.6426917
21
63.3541024
0
LINE
8
0
10
15.6426917
20
63.3541024
11
15.4804297
21
63.8680307
0
LINE
8
0
10
15.4804297
20
63.8680307
11
15.2359123
21
64.509098
0
LINE
8
0
10
15.2359123
20
64.509098
11
14.9831095
21
65.0125915
0
LINE
8
0
10
14.9831095
20
65.0125915
11
14.7150435
21
65.4258485
0
LINE
8
0
10
14.7150435
20
65.4258485
11
14.3782018
21
65.8478218
0
LINE
8
0
10
14.3782018
20
65.8478218
11
14.1083711
21
66.0723628
0
LINE
8
0
10
14.1083711
20
66.0723628
11
13.7062799
21
66.3532488
0
LINE
8
0
10
13.7062799
20
66.3532488
11
13.6140438
21
66.3916562
0
LINE
8
0
10
13.6140438
20
66.3916562
11
13.0735463
21
66.5132436
0
LINE
8
0
10
13.0735463
20
66.5132436
11
13
21
66.5229141
0
LINE
8
0
10
13
20
66.5229141
11
6.01201827
21
66.5229141
0
LINE
8
0
10
6.01201827
20
66.5229141
11
4.4
21
66.5229141
0
LINE
8
0
10
4.4
20
66.5229141
11
4.20378127
21
66.4712524
0
LINE
8
0
10
4.20378127
20
66.4712524
11
3.882362
21
66.3866325
0
LINE
8
0
10
3.882362
20
66.3866325
11
3.59541971
21
66.1489142
0
LINE
8
0
10
3.59541971
20
66.1489142
11
3.4
21
65.9870254
0
LINE
8
0
10
3.4
20
65.9870254
11
3.17080035
21
65.6352881
0
LINE
8
0
10
3.17080035
20
65.6352881
11
2.985786
21
65.3513509
0
LINE
8
0
10
2.985786
20
65.3513509
11
2.82779631
21
64.9395559
0
LINE
8
0
10
2.82779631
20
64.9395559
11
2.667949
21
64.5229192
0
LINE
8
0
10
2.667949
20
64.5229192
11
2.58206367
21
64.1082269
0
LINE
8
0
10
2.58206367
20
64.1082269
11
2.468148
21
63.5581917
0
LINE
8
0
10
2.468148
20
63.5581917
11
2.44391408
21
63.1900382
0
LINE
8
0
10
2.44391408
20
63.1900382
11
2.4
21
62.5229162
0
LINE
8
0
10
2.4
20
62.5229162
11
2.4
21
58.6953089
0
LINE
8
0
10
2.4
20
58.6953089
11
2.4
21
52.4791774
0
LINE
8
0
10
2.4
20
52.4791774
11
2.4
21
49.1706602
0
LINE
8
0
10
2.4
20
49.1706602
11
13.945927
21
49.1706602
0
LINE
8
0
10
13.945927
20
49.1706602
11
16
21
49.1706602
0
LINE
8
0
10
16
20
49.1706602
11
16
21
49.1706602
0
LINE
8
0
10
16
20
9.34783312
11
16
21
9.75754241
0
LINE
8
0
10
16
20
9.75754241
11
15.334073
21
9.75754241
0
LINE
8
0
10
15.334073
20
9.75754241
11
2.4
21
9.75754241
0
LINE
8
0
10
2.4
20
9.75754241
11
2.4
21
9.58792207
0
LINE
8
0
10
2.4
20
9.58792207
11
2.4
21
9.52431445
0
LINE
8
0
10
2.4
20
9.52431445
11
2.4
21
5.18139248
0
LINE
8
0
10
2.4
20
5.18139248
11
2.4
21
4.96021148
0
LINE
8
0
10
2.4
20
4.96021148
11
2.4
21
3.11588478
0
LINE
8
0
10
2.4
20
3.11588478
11
2.4
21
3.00476142
0
LINE
8
0
10
2.4
20
3.00476142
11
2.4
21
2.90228135
0
LINE
8
0
10
2.4
20
2.90228135
11
2.4
21
2.81767042
0
LINE
8
0
10
2.4
20
2.81767042
11
2.4
21
-9.36041864
0
LINE
8
0
10
2.4
20
-9.36041864
11
2.4
21
-9.62152019
0
LINE
8
0
10
2.4
20
-9.62152019
11
2.4
21
-9.93411341
0
LINE
8
0
10
2.4
20
-9.93411341
11
2.4
21
-13.9853377
0
LINE
8
0
10
2.4
20
-13.9853377
11
2.4
21
-14
0
LINE
8
0
10
2.4
20
-14
11
2.43440784
21
-14.2613558
0
LINE
8
0
10
2.43440784
20
-14.2613558
11
2.468148
21
-14.51764
0
LINE
8
0
10
2.468148
20
-14.51764
11
2.47010565
21
-14.5223662
0
LINE
8
0
10
2.47010565
20
-14.5223662
11
2.667949
21
-15
0
LINE
8
0
10
2.667949
20
-15
11
2.67106317
21
-15.0040584
0
LINE
8
0
10
2.67106317
20
-15.0040584
11
2.985786
21
-15.41421
0
LINE
8
0
10
2.985786
20
-15.41421
11
2.98985242
21
-15.4173288
0
LINE
8
0
10
2.98985242
20
-15.4173288
11
3.40161306
21
-15.7329854
0
LINE
8
0
10
3.40161306
20
-15.7329854
11
3.40633131
21
-15.7349384
0
LINE
8
0
10
3.40633131
20
-15.7349384
11
3.882362
21
-15.93185
0
LINE
8
0
10
3.882362
20
-15.93185
11
3.88489791
21
-15.9321839
0
LINE
8
0
10
3.88489791
20
-15.9321839
11
4.16566039
21
-15.9801619
0
LINE
8
0
10
4.16566039
20
-15.9801619
11
4.4
21
-16
0
LINE
8
0
10
4.4
20
-16
11
13.5699595
21
-16
0
LINE
8
0
10
13.5699595
20
-16
11
14
21
-16
0
LINE
8
0
10
14
20
-16
11
14.0463763
21
-15.9938943
0
LINE
8
0
10
14.0463763
20
-15.9938943
11
14.3436574
21
-15.9693865
0
LINE
8
0
10
14.3436574
20
-15.9693865
11
14.6683224
21
-15.884811
0
LINE
8
0
10
14.6683224
20
-15.884811
11
14.6813258
21
-15.8794213
0
LINE
8
0
10
14.6813258
20
-15.8794213
11
14.9320727
21
-15.7630408
0
LINE
8
0
10
14.9320727
20
-15.7630408
11
16.7202534
21
-15.7610025
0
LINE
8
0
10
16.7202534
20
-15.7610025
11
25.5
21
-15.7483529
0
LINE
8
0
10
25.5
20
-15.7483529
11
29.3353097
21
-15.7483529
0
LINE
8
0
10
29.3353097
20
-15.7483529
11
37
21
-15.7483529
0
LINE
8
0
10
37
20
-15.7483529
11
37.0850734
21
-15.7363347
0
LINE
8
0
10
37.0850734
20
-15.7363347
11
37.25882
21
-15.7117862
0
LINE
8
0
10
37.25882
20
-15.7117862
11
37.3303462
21
-15.6799936
0
LINE
8
0
10
37.3303462
20
-15.6799936
11
37.5
21
-15.6045855
0
LINE
8
0
10
37.5
20
-15.6045855
11
37.5453975
21
-15.5672025
0
LINE
8
0
10
37.5453975
20
-15.5672025
11
37.70711
21
-15.4340414
0
LINE
8
0
10
37.70711
20
-15.4340414
11
37.7219295
21
-15.4133161
0
LINE
8
0
10
37.7219295
20
-15.4133161
11
37.7909623
21
-15.3167728
0
LINE
8
0
10
37.7909623
20
-15.3167728
11
37.8521655
21
-15.2170976
0
LINE
8
0
10
37.8521655
20
-15.2170976
11
37.86603
21
-15.1945171
0
LINE
8
0
10
37.86603
20
-15.1945171
11
37.934267
21
-14.9886423
0
LINE
8
0
10
37.934267
20
-14.9886423
11
37.96593
21
-14.8931141
0
LINE
8
0
10
37.96593
20
-14.8931141
11
37.9793709
21
-14.7655139
0
LINE
8
0
10
37.9793709
20
-14.7655139
11
38
21
-14.5696738
0
LINE
8
0
10
38
20
-14.5696738
11
38
21
-14.2813067
0
LINE
8
0
10
38
20
-14.2813067
11
38
21
-5.54004029
0
LINE
8
0
10
38
20
-5.54004029
11
38
21
-1.05413199
0
LINE
8
0
10
38
20
-1.05413199
11
38
21
1.38586223
0
LINE
8
0
10
38
20
1.38586223
11
38
21
9.07685048
0
LINE
8
0
10
38
20
9.07685048
11
22.3847826
21
9.07684977
0
LINE
8
0
10
22.3847826
20
9.07684977
11
17.9844864
21
9.07685044
0
LINE
8
0
10
17.9844864
20
9.07685044
11
16
21
9.07685091
0
LINE
8
0
10
16
20
9.07685091
11
16
21
9.34783312
0
LINE
8
0
10
16
20
9.34783312
11
16
21
9.34783312
0
ENDSEC
0
EOF
