0
SECTION
2
ENTITIES
0
LINE
8
0
10
16
20
7.86433891
11
16
21
11.3486609
0
LINE
8
0
10
16
20
11.3486609
11
10.3367066
21
11.3486609
0
LINE
8
0
10
10.3367066
20
11.3486609
11
2.4
21
11.3486609
0
LINE
8
0
10
2.4
20
11.3486609
11
2.4
21
9.90614567
0
LINE
8
0
10
2.4
20
9.90614567
11
2.4
21
9.36520253
0
LINE
8
0
10
2.4
20
9.36520253
11
2.4
21
5.4261802
0
LINE
8
0
10
2.4
20
5.4261802
11
2.4
21
5.22556943
0
LINE
8
0
10
2.4
20
5.22556943
11
2.4
21
2.8715563
0
LINE
8
0
10
2.4
20
2.8715563
11
2.4
21
2.72972361
0
LINE
8
0
10
2.4
20
2.72972361
11
2.4
21
2.59892279
0
LINE
8
0
10
2.4
20
2.59892279
11
2.4
21
2.49092932
0
LINE
8
0
10
2.4
20
2.49092932
11
2.4
21
-9.02681154
0
LINE
8
0
10
2.4
20
-9.02681154
11
2.4
21
-9.30895515
0
LINE
8
0
10
2.4
20
-9.30895515
11
2.4
21
-9.60498695
0
LINE
8
0
10
2.4
20
-9.60498695
11
2.4
21
-13.9841509
0
LINE
8
0
10
2.4
20
-13.9841509
11
2.4
21
-14
0
LINE
8
0
10
2.4
20
-14
11
2.4371931
21
-14.2825121
0
LINE
8
0
10
2.4371931
20
-14.2825121
11
2.468148
21
-14.51764
0
LINE
8
0
10
2.468148
20
-14.51764
11
2.48643765
21
-14.5617949
0
LINE
8
0
10
2.48643765
20
-14.5617949
11
2.667949
21
-15
0
LINE
8
0
10
2.667949
20
-15
11
2.69704359
21
-15.0379165
0
LINE
8
0
10
2.69704359
20
-15.0379165
11
2.985786
21
-15.41421
0
LINE
8
0
10
2.985786
20
-15.41421
11
3.02377712
21
-15.4433479
0
LINE
8
0
10
3.02377712
20
-15.4433479
11
3.40154685
21
-15.732947
0
LINE
8
0
10
3.40154685
20
-15.732947
11
3.44562771
21
-15.7511935
0
LINE
8
0
10
3.44562771
20
-15.7511935
11
3.882362
21
-15.93185
0
LINE
8
0
10
3.882362
20
-15.93185
11
3.90605413
21
-15.9349692
0
LINE
8
0
10
3.90605413
20
-15.9349692
11
4.17528516
21
-15.9809767
0
LINE
8
0
10
4.17528516
20
-15.9809767
11
4.4
21
-16
0
LINE
8
0
10
4.4
20
-16
11
13.1933319
21
-16
0
LINE
8
0
10
13.1933319
20
-16
11
14
21
-16
0
LINE
8
0
10
14
20
-16
11
14.0869924
21
-15.988547
0
LINE
8
0
10
14.0869924
20
-15.988547
11
14.3586522
21
-15.9661514
0
LINE
8
0
10
14.3586522
20
-15.9661514
11
14.6553357
21
-15.8888651
0
LINE
8
0
10
14.6553357
20
-15.8888651
11
14.708859
21
-15.8666803
0
LINE
8
0
10
14.708859
20
-15.8666803
11
15.0013055
21
-15.7309456
0
LINE
8
0
10
15.0013055
20
-15.7309456
11
15.2877615
21
-15.5280369
0
LINE
8
0
10
15.2877615
20
-15.5280369
11
15.3076309
21
-15.5127833
0
LINE
8
0
10
15.3076309
20
-15.5127833
11
15.5625202
21
-15.2475636
0
LINE
8
0
10
15.5625202
20
-15.2475636
11
15.5682026
21
-15.2401582
0
LINE
8
0
10
15.5682026
20
-15.2401582
11
15.7043975
21
-15.0260048
0
LINE
8
0
10
15.7043975
20
-15.0260048
11
19.2428664
21
-15.0244214
0
LINE
8
0
10
19.2428664
20
-15.0244214
11
25.5
21
-15.0074103
0
LINE
8
0
10
25.5
20
-15.0074103
11
31.217245
21
-15.0074103
0
LINE
8
0
10
31.217245
20
-15.0074103
11
37
21
-15.0074103
0
LINE
8
0
10
37
20
-15.0074103
11
37.1213138
21
-14.9813924
0
LINE
8
0
10
37.1213138
20
-14.9813924
11
37.25882
21
-14.9519072
0
LINE
8
0
10
37.25882
20
-14.9519072
11
37.346425
21
-14.8928088
0
LINE
8
0
10
37.346425
20
-14.8928088
11
37.5
21
-14.789213
0
LINE
8
0
10
37.5
20
-14.789213
11
37.5345594
21
-14.7460265
0
LINE
8
0
10
37.5345594
20
-14.7460265
11
37.6226339
21
-14.6359602
0
LINE
8
0
10
37.6226339
20
-14.6359602
11
37.6760232
21
-14.529825
0
LINE
8
0
10
37.6760232
20
-14.529825
11
37.70711
21
-14.4680243
0
LINE
8
0
10
37.70711
20
-14.4680243
11
37.7724321
21
-14.2474765
0
LINE
8
0
10
37.7724321
20
-14.2474765
11
37.8376726
21
-14.0272043
0
LINE
8
0
10
37.8376726
20
-14.0272043
11
37.8454208
21
-13.9505108
0
LINE
8
0
10
37.8454208
20
-13.9505108
11
37.86603
21
-13.7465031
0
LINE
8
0
10
37.86603
20
-13.7465031
11
37.8767971
21
-13.5490633
0
LINE
8
0
10
37.8767971
20
-13.5490633
11
37.8794726
21
-13.5
0
LINE
8
0
10
37.8794726
20
-13.5
11
37.8794726
21
-12.7621809
0
LINE
8
0
10
37.8794726
20
-12.7621809
11
37.8794726
21
-8.016842
0
LINE
8
0
10
37.8794726
20
-8.016842
11
37.8794726
21
-7.27902291
0
LINE
8
0
10
37.8794726
20
-7.27902291
11
37.8794726
21
-2.533684
0
LINE
8
0
10
37.8794726
20
-2.533684
11
37.8794726
21
-1.79586491
0
LINE
8
0
10
37.8794726
20
-1.79586491
11
37.8794726
21
2.949474
0
LINE
8
0
10
37.8794726
20
2.949474
11
37.8820326
21
4.31505937
0
LINE
8
0
10
37.8820326
20
4.31505937
11
37.8785187
21
7.76490317
0
LINE
8
0
10
37.8785187
20
7.76490317
11
37.7968688
21
7.76490169
0
LINE
8
0
10
37.7968688
20
7.76490169
11
37.5324534
21
7.76490628
0
LINE
8
0
10
37.5324534
20
7.76490628
11
27.7139752
21
7.76490628
0
LINE
8
0
10
27.7139752
20
7.76490628
11
18.342795
21
7.76490586
0
LINE
8
0
10
18.342795
20
7.76490586
11
16.7281759
21
7.7649061
0
LINE
8
0
10
16.7281759
20
7.7649061
11
16
21
7.76490627
0
LINE
8
0
10
16
20
7.76490627
11
16
21
7.86433891
0
LINE
8
0
10
16
20
7.86433891
11
16
21
7.86433891
0
LINE
8
0
10
16
20
48.7040843
11
16
21
50.9703406
0
LINE
8
0
10
16
20
50.9703406
11
16
21
59.8476514
0
LINE
8
0
10
16
20
59.8476514
11
16
21
62.1140378
0
LINE
8
0
10
16
20
62.1140378
11
15.9457721
21
63.0765574
0
LINE
8
0
10
15.9457721
20
63.0765574
11
15.910547
21
63.5639665
0
LINE
8
0
10
15.910547
20
63.5639665
11
15.795794
21
64.2166787
0
LINE
8
0
10
15.795794
20
64.2166787
11
15.6578819
21
64.8877395
0
LINE
8
0
10
15.6578819
20
64.8877395
11
15.44037
21
65.5766593
0
LINE
8
0
10
15.44037
20
65.5766593
11
15.2684427
21
66.0274123
0
LINE
8
0
10
15.2684427
20
66.0274123
11
14.9438743
21
66.6738375
0
LINE
8
0
10
14.9438743
20
66.6738375
11
14.7691825
21
66.9431467
0
LINE
8
0
10
14.7691825
20
66.9431467
11
14.3475381
21
67.4713552
0
LINE
8
0
10
14.3475381
20
67.4713552
11
14.1857911
21
67.6059538
0
LINE
8
0
10
14.1857911
20
67.6059538
11
13.6891781
21
67.9528693
0
LINE
8
0
10
13.6891781
20
67.9528693
11
13.6376808
21
67.974313
0
LINE
8
0
10
13.6376808
20
67.974313
11
13.0398914
21
68.1087884
0
LINE
8
0
10
13.0398914
20
68.1087884
11
13
21
68.1140337
0
LINE
8
0
10
13
20
68.1140337
11
5.27435635
21
68.1140337
0
LINE
8
0
10
5.27435635
20
68.1140337
11
4.4
21
68.1140337
0
LINE
8
0
10
4.4
20
68.1140337
11
4.29357125
21
68.0860125
0
LINE
8
0
10
4.29357125
20
68.0860125
11
3.882362
21
67.9777535
0
LINE
8
0
10
3.882362
20
67.9777535
11
3.51526104
21
67.6736276
0
LINE
8
0
10
3.51526104
20
67.6736276
11
3.4
21
67.5781435
0
LINE
8
0
10
3.4
20
67.5781435
11
3.10321621
21
67.1226894
0
LINE
8
0
10
3.10321621
20
67.1226894
11
2.985786
21
66.9424719
0
LINE
8
0
10
2.985786
20
66.9424719
11
2.77669479
21
66.3974826
0
LINE
8
0
10
2.77669479
20
66.3974826
11
2.667949
21
66.1140402
0
LINE
8
0
10
2.667949
20
66.1140402
11
2.55026829
21
65.5458258
0
LINE
8
0
10
2.55026829
20
65.5458258
11
2.468148
21
65.1493128
0
LINE
8
0
10
2.468148
20
65.1493128
11
2.43312643
21
64.6172768
0
LINE
8
0
10
2.43312643
20
64.6172768
11
2.4
21
64.1140358
0
LINE
8
0
10
2.4
20
64.1140358
11
2.4
21
61.2266943
0
LINE
8
0
10
2.4
20
61.2266943
11
2.4
21
52.3200655
0
LINE
8
0
10
2.4
20
52.3200655
11
2.4
21
48.7040843
0
LINE
8
0
10
2.4
20
48.7040843
11
2.4
21
48.3292361
0
LINE
8
0
10
2.4
20
48.3292361
11
2.4
21
47.5795403
0
LINE
8
0
10
2.4
20
47.5795403
11
2.4
21
43.7076923
0
LINE
8
0
10
2.4
20
43.7076923
11
2.4
21
39.0614748
0
LINE
8
0
10
2.4
20
39.0614748
11
2.62329342
21
39.0614748
0
LINE
8
0
10
2.62329342
20
39.0614748
11
16
21
39.0614748
0
LINE
8
0
10
16
20
39.0614748
11
16
21
47.5795403
0
LINE
8
0
10
16
20
47.5795403
11
16
21
48.3292361
0
LINE
8
0
10
16
20
48.3292361
11
16
21
48.7040843
0
LINE
8
0
10
16
20
48.7040843
11
16
21
48.7040843
0
LINE
8
0
10
16
20
16.4026232
11
16
21
20.0089147
0
LINE
8
0
10
16
20
20.0089147
11
16
21
23.3308285
0
LINE
8
0
10
16
20
23.3308285
11
16
21
30.4012207
0
LINE
8
0
10
16
20
30.4012207
11
4.89670658
21
30.4012207
0
LINE
8
0
10
4.89670658
20
30.4012207
11
2.4
21
30.4012207
0
LINE
8
0
10
2.4
20
30.4012207
11
2.4
21
26.5446468
0
LINE
8
0
10
2.4
20
26.5446468
11
2.4
21
23.3308285
0
LINE
8
0
10
2.4
20
23.3308285
11
2.4
21
22.0020611
0
LINE
8
0
10
2.4
20
22.0020611
11
2.4
21
20.0089147
0
LINE
8
0
10
2.4
20
20.0089147
11
2.4
21
18.0054217
0
LINE
8
0
10
2.4
20
18.0054217
11
2.4
21
16.4026232
0
LINE
8
0
10
2.4
20
16.4026232
11
8.06329342
21
16.4026232
0
LINE
8
0
10
8.06329342
20
16.4026232
11
16
21
16.4026232
0
LINE
8
0
10
16
20
16.4026232
11
16
21
16.4026232
0
LINE
8
0
10
16
20
31.9910812
11
16
21
38.350527
0
LINE
8
0
10
16
20
38.350527
11
16
21
38.9192852
0
LINE
8
0
10
16
20
38.9192852
11
15.7767066
21
38.9192852
0
LINE
8
0
10
15.7767066
20
38.9192852
11
2.4
21
38.9192852
0
LINE
8
0
10
2.4
20
38.9192852
11
2.4
21
35.1334783
0
LINE
8
0
10
2.4
20
35.1334783
11
2.4
21
31.9910812
0
LINE
8
0
10
2.4
20
31.9910812
11
13.5032934
21
31.9910812
0
LINE
8
0
10
13.5032934
20
31.9910812
11
16
21
31.9910812
0
LINE
8
0
10
16
20
31.9910812
11
16
21
31.9910812
0
ENDSEC
0
EOF
