0
SECTION
2
ENTITIES
0
LINE
8
0
10
16
20
7.43692011
11
16
21
7.49346536
0
LINE
8
0
10
16
20
7.49346536
11
16
21
11.7464405
0
LINE
8
0
10
16
20
11.7464405
11
9.08736497
21
11.7464405
0
LINE
8
0
10
9.08736497
20
11.7464405
11
2.4
21
11.7464405
0
LINE
8
0
10
2.4
20
11.7464405
11
2.4
21
9.98570157
0
LINE
8
0
10
2.4
20
9.98570157
11
2.4
21
9.32542455
0
LINE
8
0
10
2.4
20
9.32542455
11
2.4
21
5.48737712
0
LINE
8
0
10
2.4
20
5.48737712
11
2.4
21
5.29190892
0
LINE
8
0
10
2.4
20
5.29190892
11
2.4
21
2.81047419
0
LINE
8
0
10
2.4
20
2.81047419
11
2.4
21
2.66096415
0
LINE
8
0
10
2.4
20
2.66096415
11
2.4
21
2.52308315
0
LINE
8
0
10
2.4
20
2.52308315
11
2.4
21
2.40924405
0
LINE
8
0
10
2.4
20
2.40924405
11
2.4
21
-8.94340977
0
LINE
8
0
10
2.4
20
-8.94340977
11
2.4
21
-9.23081389
0
LINE
8
0
10
2.4
20
-9.23081389
11
2.4
21
-9.52270533
0
LINE
8
0
10
2.4
20
-9.52270533
11
2.4
21
-13.9838541
0
LINE
8
0
10
2.4
20
-13.9838541
11
2.4
21
-14
0
LINE
8
0
10
2.4
20
-14
11
2.43788941
21
-14.2878012
0
LINE
8
0
10
2.43788941
20
-14.2878012
11
2.468148
21
-14.51764
0
LINE
8
0
10
2.468148
20
-14.51764
11
2.49052065
21
-14.5716521
0
LINE
8
0
10
2.49052065
20
-14.5716521
11
2.667949
21
-15
0
LINE
8
0
10
2.667949
20
-15
11
2.70353869
21
-15.046381
0
LINE
8
0
10
2.70353869
20
-15.046381
11
2.985786
21
-15.41421
0
LINE
8
0
10
2.985786
20
-15.41421
11
3.03225829
21
-15.4498527
0
LINE
8
0
10
3.03225829
20
-15.4498527
11
3.4015303
21
-15.7329374
0
LINE
8
0
10
3.4015303
20
-15.7329374
11
3.45545182
21
-15.7552573
0
LINE
8
0
10
3.45545182
20
-15.7552573
11
3.882362
21
-15.93185
0
LINE
8
0
10
3.882362
20
-15.93185
11
3.91134319
21
-15.9356655
0
LINE
8
0
10
3.91134319
20
-15.9356655
11
4.17769135
21
-15.9811803
0
LINE
8
0
10
4.17769135
20
-15.9811803
11
4.4
21
-16
0
LINE
8
0
10
4.4
20
-16
11
13.099175
21
-16
0
LINE
8
0
10
13.099175
20
-16
11
14
21
-16
0
LINE
8
0
10
14
20
-16
11
14.0971464
21
-15.9872102
0
LINE
8
0
10
14.0971464
20
-15.9872102
11
14.3624009
21
-15.9653427
0
LINE
8
0
10
14.3624009
20
-15.9653427
11
14.6520891
21
-15.8898786
0
LINE
8
0
10
14.6520891
20
-15.8898786
11
14.7157423
21
-15.8634951
0
LINE
8
0
10
14.7157423
20
-15.8634951
11
15.0012934
21
-15.7309608
0
LINE
8
0
10
15.0012934
20
-15.7309608
11
15.2809951
21
-15.5328364
0
LINE
8
0
10
15.2809951
20
-15.5328364
11
15.3101439
21
-15.5104591
0
LINE
8
0
10
15.3101439
20
-15.5104591
11
15.5590233
21
-15.2514929
0
LINE
8
0
10
15.5590233
20
-15.2514929
11
15.5720659
21
-15.2344957
0
LINE
8
0
10
15.5720659
20
-15.2344957
11
15.7901799
21
-14.8915323
0
LINE
8
0
10
15.7901799
20
-14.8915323
11
15.7926581
21
-14.8855493
0
LINE
8
0
10
15.7926581
20
-14.8855493
11
15.8715144
21
-14.6674335
0
LINE
8
0
10
15.8715144
20
-14.6674335
11
23.3106825
21
-14.6848738
0
LINE
8
0
10
23.3106825
20
-14.6848738
11
25.5
21
-14.6723952
0
LINE
8
0
10
25.5
20
-14.6723952
11
35.5198513
21
-14.6723952
0
LINE
8
0
10
35.5198513
20
-14.6723952
11
37
21
-14.6723952
0
LINE
8
0
10
37
20
-14.6723952
11
37.2016778
21
-14.6036029
0
LINE
8
0
10
37.2016778
20
-14.6036029
11
37.25882
21
-14.5841146
0
LINE
8
0
10
37.25882
20
-14.5841146
11
37.3926443
21
-14.4405137
0
LINE
8
0
10
37.3926443
20
-14.4405137
11
37.5
21
-14.3253129
0
LINE
8
0
10
37.5
20
-14.3253129
11
37.5488453
21
-14.228211
0
LINE
8
0
10
37.5488453
20
-14.228211
11
37.619003
21
-14.0887372
0
LINE
8
0
10
37.619003
20
-14.0887372
11
37.6493416
21
-13.9119063
0
LINE
8
0
10
37.6493416
20
-13.9119063
11
37.70711
21
-13.5752314
0
LINE
8
0
10
37.70711
20
-13.5752314
11
37.7128286
21
-13.5186269
0
LINE
8
0
10
37.7128286
20
-13.5186269
11
37.7147103
21
-13.5
0
LINE
8
0
10
37.7147103
20
-13.5
11
37.7147103
21
-13.2377681
0
LINE
8
0
10
37.7147103
20
-13.2377681
11
37.7147103
21
-8.016842
0
LINE
8
0
10
37.7147103
20
-8.016842
11
37.7147103
21
-7.75461009
0
LINE
8
0
10
37.7147103
20
-7.75461009
11
37.7147103
21
-2.533684
0
LINE
8
0
10
37.7147103
20
-2.533684
11
37.7147103
21
-2.27145209
0
LINE
8
0
10
37.7147103
20
-2.27145209
11
37.7147103
21
2.949474
0
LINE
8
0
10
37.7147103
20
2.949474
11
37.7152385
21
3.25600582
0
LINE
8
0
10
37.7152385
20
3.25600582
11
37.7152385
21
7.43692355
0
LINE
8
0
10
37.7152385
20
7.43692355
11
37.5664896
21
7.43691956
0
LINE
8
0
10
37.5664896
20
7.43691956
11
37.4531625
21
7.43691751
0
LINE
8
0
10
37.4531625
20
7.43691751
11
37.302795
21
7.43692012
0
LINE
8
0
10
37.302795
20
7.43692012
11
22.6614907
21
7.43692012
0
LINE
8
0
10
22.6614907
20
7.43692012
11
17.3322981
21
7.43691988
0
LINE
8
0
10
17.3322981
20
7.43691988
11
16.4140983
21
7.43692001
0
LINE
8
0
10
16.4140983
20
7.43692001
11
16
21
7.43692011
0
LINE
8
0
10
16
20
7.43692011
11
16
21
7.43692011
0
LINE
8
0
10
16
20
48.7836404
11
16
21
52.011856
0
LINE
8
0
10
16
20
52.011856
11
16
21
60.3763531
0
LINE
8
0
10
16
20
60.3763531
11
16
21
62.5118177
0
LINE
8
0
10
16
20
62.5118177
11
15.9443258
21
63.5000091
0
LINE
8
0
10
15.9443258
20
63.5000091
11
15.9115277
21
63.9538361
0
LINE
8
0
10
15.9115277
20
63.9538361
11
15.7879604
21
64.6566835
0
LINE
8
0
10
15.7879604
20
64.6566835
11
15.6616795
21
65.2711488
0
LINE
8
0
10
15.6616795
20
65.2711488
11
15.4303551
21
66.0038164
0
LINE
8
0
10
15.4303551
20
66.0038164
11
15.2765753
21
66.4069909
0
LINE
8
0
10
15.2765753
20
66.4069909
11
14.9340655
21
67.089149
0
LINE
8
0
10
14.9340655
20
67.089149
11
14.7827172
21
67.3224712
0
LINE
8
0
10
14.7827172
20
67.3224712
11
14.3398722
21
67.8772386
0
LINE
8
0
10
14.3398722
20
67.8772386
11
14.2051461
21
67.9893516
0
LINE
8
0
10
14.2051461
20
67.9893516
11
13.6849027
21
68.3527744
0
LINE
8
0
10
13.6849027
20
68.3527744
11
13.64359
21
68.3699771
0
LINE
8
0
10
13.64359
20
68.3699771
11
13.0314777
21
68.5076746
0
LINE
8
0
10
13.0314777
20
68.5076746
11
13
21
68.5118136
0
LINE
8
0
10
13
20
68.5118136
11
5.08994087
21
68.5118136
0
LINE
8
0
10
5.08994087
20
68.5118136
11
4.4
21
68.5118136
0
LINE
8
0
10
4.4
20
68.5118136
11
4.31601874
21
68.4897025
0
LINE
8
0
10
4.31601874
20
68.4897025
11
3.882362
21
68.3755338
0
LINE
8
0
10
3.882362
20
68.3755338
11
3.49522138
21
68.054806
0
LINE
8
0
10
3.49522138
20
68.054806
11
3.4
21
67.975923
0
LINE
8
0
10
3.4
20
67.975923
11
3.08632018
21
67.4945397
0
LINE
8
0
10
3.08632018
20
67.4945397
11
2.985786
21
67.3402522
0
LINE
8
0
10
2.985786
20
67.3402522
11
2.76391941
21
66.7619642
0
LINE
8
0
10
2.76391941
20
66.7619642
11
2.667949
21
66.5118205
0
LINE
8
0
10
2.667949
20
66.5118205
11
2.54231945
21
65.9052256
0
LINE
8
0
10
2.54231945
20
65.9052256
11
2.468148
21
65.5470931
0
LINE
8
0
10
2.468148
20
65.5470931
11
2.43042951
21
64.9740864
0
LINE
8
0
10
2.43042951
20
64.9740864
11
2.4
21
64.5118157
0
LINE
8
0
10
2.4
20
64.5118157
11
2.4
21
61.8595407
0
LINE
8
0
10
2.4
20
61.8595407
11
2.4
21
52.2802875
0
LINE
8
0
10
2.4
20
52.2802875
11
2.4
21
48.7836404
0
LINE
8
0
10
2.4
20
48.7836404
11
2.4
21
48.2496801
0
LINE
8
0
10
2.4
20
48.2496801
11
2.4
21
47.1817605
0
LINE
8
0
10
2.4
20
47.1817605
11
2.4
21
43.6715307
0
LINE
8
0
10
2.4
20
43.6715307
11
2.4
21
39.4592551
0
LINE
8
0
10
2.4
20
39.4592551
11
3.87263503
21
39.4592551
0
LINE
8
0
10
3.87263503
20
39.4592551
11
16
21
39.4592551
0
LINE
8
0
10
16
20
39.4592551
11
16
21
47.1817605
0
LINE
8
0
10
16
20
47.1817605
11
16
21
48.2496801
0
LINE
8
0
10
16
20
48.2496801
11
16
21
48.7836404
0
LINE
8
0
10
16
20
48.7836404
11
16
21
48.7836404
0
LINE
8
0
10
16
20
31.5933009
11
16
21
34.7705064
0
LINE
8
0
10
16
20
34.7705064
11
16
21
38.5215049
0
LINE
8
0
10
16
20
38.5215049
11
14.527365
21
38.5215049
0
LINE
8
0
10
14.527365
20
38.5215049
11
2.4
21
38.5215049
0
LINE
8
0
10
2.4
20
38.5215049
11
2.4
21
35.0892803
0
LINE
8
0
10
2.4
20
35.0892803
11
2.4
21
31.5933009
0
LINE
8
0
10
2.4
20
31.5933009
11
14.752635
21
31.5933009
0
LINE
8
0
10
14.752635
20
31.5933009
11
16
21
31.5933009
0
LINE
8
0
10
16
20
31.5933009
11
16
21
31.5933009
0
LINE
8
0
10
16
20
22.9330479
11
16
21
20.4066945
0
LINE
8
0
10
16
20
20.4066945
11
16
21
16.0048429
0
LINE
8
0
10
16
20
16.0048429
11
9.31263503
21
16.0048429
0
LINE
8
0
10
9.31263503
20
16.0048429
11
2.4
21
16.0048429
0
LINE
8
0
10
2.4
20
16.0048429
11
2.4
21
17.9612242
0
LINE
8
0
10
2.4
20
17.9612242
11
2.4
21
20.4066945
0
LINE
8
0
10
2.4
20
20.4066945
11
2.4
21
21.9225051
0
LINE
8
0
10
2.4
20
21.9225051
11
2.4
21
22.9330479
0
LINE
8
0
10
2.4
20
22.9330479
11
2.4
21
26.5084848
0
LINE
8
0
10
2.4
20
26.5084848
11
2.4
21
30.799
0
LINE
8
0
10
2.4
20
30.799
11
3.64736497
21
30.799
0
LINE
8
0
10
3.64736497
20
30.799
11
16
21
30.799
0
LINE
8
0
10
16
20
30.799
11
16
21
22.9330479
0
LINE
8
0
10
16
20
22.9330479
11
16
21
22.9330479
0
ENDSEC
0
EOF
