0
SECTION
2
ENTITIES
0
LINE
8
0
10
16
20
60.9050548
11
16
21
62.9095976
0
LINE
8
0
10
16
20
62.9095976
11
15.9428794
21
63.9234608
0
LINE
8
0
10
15.9428794
20
63.9234608
11
15.9125083
21
64.3437058
0
LINE
8
0
10
15.9125083
20
64.3437058
11
15.7801268
21
65.0966882
0
LINE
8
0
10
15.7801268
20
65.0966882
11
15.665477
21
65.6545581
0
LINE
8
0
10
15.665477
20
65.6545581
11
15.4203402
21
66.4309735
0
LINE
8
0
10
15.4203402
20
66.4309735
11
15.2847079
21
66.7865695
0
LINE
8
0
10
15.2847079
20
66.7865695
11
14.9242567
21
67.5044605
0
LINE
8
0
10
14.9242567
20
67.5044605
11
14.796252
21
67.7017958
0
LINE
8
0
10
14.796252
20
67.7017958
11
14.3322063
21
68.2831219
0
LINE
8
0
10
14.3322063
20
68.2831219
11
14.2245011
21
68.3727493
0
LINE
8
0
10
14.2245011
20
68.3727493
11
13.6806273
21
68.7526796
0
LINE
8
0
10
13.6806273
20
68.7526796
11
13.6494993
21
68.7656413
0
LINE
8
0
10
13.6494993
20
68.7656413
11
13.023064
21
68.9065608
0
LINE
8
0
10
13.023064
20
68.9065608
11
13
21
68.9095935
0
LINE
8
0
10
13
20
68.9095935
11
4.9055254
21
68.9095935
0
LINE
8
0
10
4.9055254
20
68.9095935
11
4.4
21
68.9095935
0
LINE
8
0
10
4.4
20
68.9095935
11
4.33846624
21
68.8933925
0
LINE
8
0
10
4.33846624
20
68.8933925
11
3.882362
21
68.7733141
0
LINE
8
0
10
3.882362
20
68.7733141
11
3.47518171
21
68.4359843
0
LINE
8
0
10
3.47518171
20
68.4359843
11
3.4
21
68.3737026
0
LINE
8
0
10
3.4
20
68.3737026
11
3.06942414
21
67.86639
0
LINE
8
0
10
3.06942414
20
67.86639
11
2.985786
21
67.7380325
0
LINE
8
0
10
2.985786
20
67.7380325
11
2.75114402
21
67.1264459
0
LINE
8
0
10
2.75114402
20
67.1264459
11
2.667949
21
66.9096008
0
LINE
8
0
10
2.667949
20
66.9096008
11
2.5343706
21
66.2646253
0
LINE
8
0
10
2.5343706
20
66.2646253
11
2.468148
21
65.9448734
0
LINE
8
0
10
2.468148
20
65.9448734
11
2.4277326
21
65.3308961
0
LINE
8
0
10
2.4277326
20
65.3308961
11
2.4
21
64.9095956
0
LINE
8
0
10
2.4
20
64.9095956
11
2.4
21
62.4923871
0
LINE
8
0
10
2.4
20
62.4923871
11
2.4
21
52.2405096
0
LINE
8
0
10
2.4
20
52.2405096
11
2.4
21
48.8631965
0
LINE
8
0
10
2.4
20
48.8631965
11
2.4
21
48.1701241
0
LINE
8
0
10
2.4
20
48.1701241
11
2.4
21
46.7839807
0
LINE
8
0
10
2.4
20
46.7839807
11
2.4
21
43.6353692
0
LINE
8
0
10
2.4
20
43.6353692
11
2.4
21
39.8570353
0
LINE
8
0
10
2.4
20
39.8570353
11
5.12197665
21
39.8570353
0
LINE
8
0
10
5.12197665
20
39.8570353
11
16
21
39.8570353
0
LINE
8
0
10
16
20
39.8570353
11
16
21
46.7839807
0
LINE
8
0
10
16
20
46.7839807
11
16
21
48.1701241
0
LINE
8
0
10
16
20
48.1701241
11
16
21
48.8631965
0
LINE
8
0
10
16
20
48.8631965
11
16
21
53.0533714
0
LINE
8
0
10
16
20
53.0533714
11
16
21
60.9050548
0
LINE
8
0
10
16
20
60.9050548
11
16
21
60.9050548
0
LINE
8
0
10
16
20
38.1237247
11
16
21
31.1967793
0
LINE
8
0
10
16
20
31.1967793
11
16
21
31.1955207
0
LINE
8
0
10
16
20
31.1955207
11
16
21
31.1892272
0
LINE
8
0
10
16
20
31.1892272
11
16
21
22.5352673
0
LINE
8
0
10
16
20
22.5352673
11
16
21
20.8044743
0
LINE
8
0
10
16
20
20.8044743
11
16
21
15.6070627
0
LINE
8
0
10
16
20
15.6070627
11
10.5619766
21
15.6070627
0
LINE
8
0
10
10.5619766
20
15.6070627
11
2.4
21
15.6070627
0
LINE
8
0
10
2.4
20
15.6070627
11
2.4
21
17.9170267
0
LINE
8
0
10
2.4
20
17.9170267
11
2.4
21
20.8044743
0
LINE
8
0
10
2.4
20
20.8044743
11
2.4
21
21.8429491
0
LINE
8
0
10
2.4
20
21.8429491
11
2.4
21
22.5352673
0
LINE
8
0
10
2.4
20
22.5352673
11
2.4
21
26.4723228
0
LINE
8
0
10
2.4
20
26.4723228
11
2.4
21
31.1955207
0
LINE
8
0
10
2.4
20
31.1955207
11
2.4
21
31.1960241
0
LINE
8
0
10
2.4
20
31.1960241
11
2.4
21
31.1967793
0
LINE
8
0
10
2.4
20
31.1967793
11
2.4
21
35.0450823
0
LINE
8
0
10
2.4
20
35.0450823
11
2.4
21
38.1237247
0
LINE
8
0
10
2.4
20
38.1237247
11
13.2780234
21
38.1237247
0
LINE
8
0
10
13.2780234
20
38.1237247
11
16
21
38.1237247
0
LINE
8
0
10
16
20
38.1237247
11
16
21
38.1237247
0
LINE
8
0
10
16
20
7.1225918
11
16
21
12.1442201
0
LINE
8
0
10
16
20
12.1442201
11
7.83802335
21
12.1442201
0
LINE
8
0
10
7.83802335
20
12.1442201
11
2.4
21
12.1442201
0
LINE
8
0
10
2.4
20
12.1442201
11
2.4
21
10.0652575
0
LINE
8
0
10
2.4
20
10.0652575
11
2.4
21
9.28564657
0
LINE
8
0
10
2.4
20
9.28564657
11
2.4
21
5.54857405
0
LINE
8
0
10
2.4
20
5.54857405
11
2.4
21
5.35824841
0
LINE
8
0
10
2.4
20
5.35824841
11
2.4
21
2.74939207
0
LINE
8
0
10
2.4
20
2.74939207
11
2.4
21
2.5922047
0
LINE
8
0
10
2.4
20
2.5922047
11
2.4
21
2.44724351
0
LINE
8
0
10
2.4
20
2.44724351
11
2.4
21
2.32755877
0
LINE
8
0
10
2.4
20
2.32755877
11
2.4
21
-8.86000799
0
LINE
8
0
10
2.4
20
-8.86000799
11
2.4
21
-9.15267263
0
LINE
8
0
10
2.4
20
-9.15267263
11
2.4
21
-9.44042371
0
LINE
8
0
10
2.4
20
-9.44042371
11
2.4
21
-13.9835574
0
LINE
8
0
10
2.4
20
-13.9835574
11
2.4
21
-14
0
LINE
8
0
10
2.4
20
-14
11
2.43858573
21
-14.2930903
0
LINE
8
0
10
2.43858573
20
-14.2930903
11
2.468148
21
-14.51764
0
LINE
8
0
10
2.468148
20
-14.51764
11
2.49460365
21
-14.5815093
0
LINE
8
0
10
2.49460365
20
-14.5815093
11
2.667949
21
-15
0
LINE
8
0
10
2.667949
20
-15
11
2.7100338
21
-15.0548455
0
LINE
8
0
10
2.7100338
20
-15.0548455
11
2.985786
21
-15.41421
0
LINE
8
0
10
2.985786
20
-15.41421
11
3.04073946
21
-15.4563574
0
LINE
8
0
10
3.04073946
20
-15.4563574
11
3.40151375
21
-15.7329278
0
LINE
8
0
10
3.40151375
20
-15.7329278
11
3.46527592
21
-15.7593211
0
LINE
8
0
10
3.46527592
20
-15.7593211
11
3.882362
21
-15.93185
0
LINE
8
0
10
3.882362
20
-15.93185
11
3.91663224
21
-15.9363619
0
LINE
8
0
10
3.91663224
20
-15.9363619
11
4.18009755
21
-15.981384
0
LINE
8
0
10
4.18009755
20
-15.981384
11
4.4
21
-16
0
LINE
8
0
10
4.4
20
-16
11
13.0050181
21
-16
0
LINE
8
0
10
13.0050181
20
-16
11
14
21
-16
0
LINE
8
0
10
14
20
-16
11
14.1073005
21
-15.9858733
0
LINE
8
0
10
14.1073005
20
-15.9858733
11
14.3661496
21
-15.9645339
0
LINE
8
0
10
14.3661496
20
-15.9645339
11
14.6488424
21
-15.8908921
0
LINE
8
0
10
14.6488424
20
-15.8908921
11
14.7226256
21
-15.8603099
0
LINE
8
0
10
14.7226256
20
-15.8603099
11
15.0012812
21
-15.730976
0
LINE
8
0
10
15.0012812
20
-15.730976
11
15.2742288
21
-15.5376359
0
LINE
8
0
10
15.2742288
20
-15.5376359
11
15.3126569
21
-15.5081349
0
LINE
8
0
10
15.3126569
20
-15.5081349
11
15.5555263
21
-15.2554221
0
LINE
8
0
10
15.5555263
20
-15.2554221
11
15.5759292
21
-15.2288331
0
LINE
8
0
10
15.5759292
20
-15.2288331
11
15.7887762
21
-14.8941515
0
LINE
8
0
10
15.7887762
20
-14.8941515
11
15.7960193
21
-14.8766651
0
LINE
8
0
10
15.7960193
20
-14.8766651
11
15.9443365
21
-14.4664206
0
LINE
8
0
10
15.9443365
20
-14.4664206
11
15.9855005
21
-14.2369482
0
LINE
8
0
10
15.9855005
20
-14.2369482
11
15.9857458
21
-14.2353743
0
LINE
8
0
10
15.9857458
20
-14.2353743
11
15.9946673
21
-14.0880568
0
LINE
8
0
10
15.9946673
20
-14.0880568
11
22.1981873
21
-14.0959414
0
LINE
8
0
10
22.1981873
20
-14.0959414
11
23.6737342
21
-14.0869832
0
LINE
8
0
10
23.6737342
20
-14.0869832
11
32.9629915
21
-14.0869832
0
LINE
8
0
10
32.9629915
20
-14.0869832
11
37
21
-14.0555003
0
LINE
8
0
10
37
20
-14.0555003
11
37.1602813
21
-13.8952413
0
LINE
8
0
10
37.1602813
20
-13.8952413
11
37.25882
21
-13.7967215
0
LINE
8
0
10
37.25882
20
-13.7967215
11
37.3110142
21
-13.6325241
0
LINE
8
0
10
37.3110142
20
-13.6325241
11
37.3531353
21
-13.5
0
LINE
8
0
10
37.3531353
20
-13.5
11
37.3531353
21
-11.3557698
0
LINE
8
0
10
37.3531353
20
-11.3557698
11
37.3531353
21
-8.016842
0
LINE
8
0
10
37.3531353
20
-8.016842
11
37.3531353
21
-5.87261185
0
LINE
8
0
10
37.3531353
20
-5.87261185
11
37.3531353
21
-2.533684
0
LINE
8
0
10
37.3531353
20
-2.533684
11
37.3531353
21
-0.389453846
0
LINE
8
0
10
37.3531353
20
-0.389453846
11
37.3531353
21
2.949474
0
LINE
8
0
10
37.3531353
20
2.949474
11
37.3738924
21
6.81778825
0
LINE
8
0
10
37.3738924
20
6.81778825
11
37.3743418
21
7.1089342
0
LINE
8
0
10
37.3743418
20
7.1089342
11
37.3676817
21
7.10893431
0
LINE
8
0
10
37.3676817
20
7.10893431
11
37.2410997
21
7.10893405
0
LINE
8
0
10
37.2410997
20
7.10893405
11
37.1765702
21
7.10893489
0
LINE
8
0
10
37.1765702
20
7.10893489
11
37.136829
21
7.10893382
0
LINE
8
0
10
37.136829
20
7.10893382
11
37.1094562
21
7.10893332
0
LINE
8
0
10
37.1094562
20
7.10893332
11
37.0731366
21
7.10893395
0
LINE
8
0
10
37.0731366
20
7.10893395
11
17.6090062
21
7.10893395
0
LINE
8
0
10
17.6090062
20
7.10893395
11
16.3218012
21
7.1089339
0
LINE
8
0
10
16.3218012
20
7.1089339
11
16.1000207
21
7.10893393
0
LINE
8
0
10
16.1000207
20
7.10893393
11
16
21
7.10893395
0
LINE
8
0
10
16
20
7.10893395
11
16
21
7.1225918
0
LINE
8
0
10
16
20
7.1225918
11
16
21
7.1225918
0
ENDSEC
0
EOF
