0
SECTION
2
ENTITIES
0
LINE
8
0
10
16
20
26.813647
11
16
21
30.7977408
0
LINE
8
0
10
16
20
30.7977408
11
16
21
31.5945592
0
LINE
8
0
10
16
20
31.5945592
11
16
21
37.7259444
0
LINE
8
0
10
16
20
37.7259444
11
12.0286817
21
37.7259444
0
LINE
8
0
10
12.0286817
20
37.7259444
11
2.4
21
37.7259444
0
LINE
8
0
10
2.4
20
37.7259444
11
2.4
21
35.0008843
0
LINE
8
0
10
2.4
20
35.0008843
11
2.4
21
31.5945592
0
LINE
8
0
10
2.4
20
31.5945592
11
2.4
21
31.1164682
0
LINE
8
0
10
2.4
20
31.1164682
11
2.4
21
30.7977408
0
LINE
8
0
10
2.4
20
30.7977408
11
2.4
21
26.4361608
0
LINE
8
0
10
2.4
20
26.4361608
11
2.4
21
22.1374867
0
LINE
8
0
10
2.4
20
22.1374867
11
2.4
21
21.7633932
0
LINE
8
0
10
2.4
20
21.7633932
11
2.4
21
21.2022542
0
LINE
8
0
10
2.4
20
21.2022542
11
2.4
21
17.8728292
0
LINE
8
0
10
2.4
20
17.8728292
11
2.4
21
15.2092824
0
LINE
8
0
10
2.4
20
15.2092824
11
11.8113183
21
15.2092824
0
LINE
8
0
10
11.8113183
20
15.2092824
11
16
21
15.2092824
0
LINE
8
0
10
16
20
15.2092824
11
16
21
21.2022542
0
LINE
8
0
10
16
20
21.2022542
11
16
21
22.1374867
0
LINE
8
0
10
16
20
22.1374867
11
16
21
26.813647
0
LINE
8
0
10
16
20
26.813647
11
16
21
26.813647
0
LINE
8
0
10
16
20
7.14021028
11
16
21
8.16528841
0
LINE
8
0
10
16
20
8.16528841
11
16
21
12.5419998
0
LINE
8
0
10
16
20
12.5419998
11
6.58868174
21
12.5419998
0
LINE
8
0
10
6.58868174
20
12.5419998
11
2.4
21
12.5419998
0
LINE
8
0
10
2.4
20
12.5419998
11
2.4
21
10.1448134
0
LINE
8
0
10
2.4
20
10.1448134
11
2.4
21
9.24586858
0
LINE
8
0
10
2.4
20
9.24586858
11
2.4
21
5.60977098
0
LINE
8
0
10
2.4
20
5.60977098
11
2.4
21
5.42458789
0
LINE
8
0
10
2.4
20
5.42458789
11
2.4
21
2.68830995
0
LINE
8
0
10
2.4
20
2.68830995
11
2.4
21
2.52344524
0
LINE
8
0
10
2.4
20
2.52344524
11
2.4
21
2.37140388
0
LINE
8
0
10
2.4
20
2.37140388
11
2.4
21
2.2458735
0
LINE
8
0
10
2.4
20
2.2458735
11
2.4
21
-8.77660622
0
LINE
8
0
10
2.4
20
-8.77660622
11
2.4
21
-9.07453138
0
LINE
8
0
10
2.4
20
-9.07453138
11
2.4
21
-9.3581421
0
LINE
8
0
10
2.4
20
-9.3581421
11
2.4
21
-13.9832607
0
LINE
8
0
10
2.4
20
-13.9832607
11
2.4
21
-14
0
LINE
8
0
10
2.4
20
-14
11
2.43928204
21
-14.2983793
0
LINE
8
0
10
2.43928204
20
-14.2983793
11
2.468148
21
-14.51764
0
LINE
8
0
10
2.468148
20
-14.51764
11
2.49868665
21
-14.5913665
0
LINE
8
0
10
2.49868665
20
-14.5913665
11
2.667949
21
-15
0
LINE
8
0
10
2.667949
20
-15
11
2.7165289
21
-15.0633101
0
LINE
8
0
10
2.7165289
20
-15.0633101
11
2.985786
21
-15.41421
0
LINE
8
0
10
2.985786
20
-15.41421
11
3.04922064
21
-15.4628622
0
LINE
8
0
10
3.04922064
20
-15.4628622
11
3.4014972
21
-15.7329182
0
LINE
8
0
10
3.4014972
20
-15.7329182
11
3.47510002
21
-15.7633848
0
LINE
8
0
10
3.47510002
20
-15.7633848
11
3.882362
21
-15.93185
0
LINE
8
0
10
3.882362
20
-15.93185
11
3.92192129
21
-15.9370582
0
LINE
8
0
10
3.92192129
20
-15.9370582
11
4.18250374
21
-15.9815877
0
LINE
8
0
10
4.18250374
20
-15.9815877
11
4.4
21
-16
0
LINE
8
0
10
4.4
20
-16
11
12.9108612
21
-16
0
LINE
8
0
10
12.9108612
20
-16
11
14
21
-16
0
LINE
8
0
10
14
20
-16
11
14.1174545
21
-15.9845365
0
LINE
8
0
10
14.1174545
20
-15.9845365
11
14.3698983
21
-15.9637251
0
LINE
8
0
10
14.3698983
20
-15.9637251
11
14.6455958
21
-15.8919057
0
LINE
8
0
10
14.6455958
20
-15.8919057
11
14.7295089
21
-15.8571246
0
LINE
8
0
10
14.7295089
20
-15.8571246
11
15.0012691
21
-15.7309912
0
LINE
8
0
10
15.0012691
20
-15.7309912
11
15.2674624
21
-15.5424353
0
LINE
8
0
10
15.2674624
20
-15.5424353
11
15.3151698
21
-15.5058106
0
LINE
8
0
10
15.3151698
20
-15.5058106
11
15.5520294
21
-15.2593514
0
LINE
8
0
10
15.5520294
20
-15.2593514
11
15.5797925
21
-15.2231705
0
LINE
8
0
10
15.5797925
20
-15.2231705
11
15.7873725
21
-14.8967708
0
LINE
8
0
10
15.7873725
20
-14.8967708
11
15.7993805
21
-14.8677809
0
LINE
8
0
10
15.7993805
20
-14.8677809
11
15.9440275
21
-14.467688
0
LINE
8
0
10
15.9440275
20
-14.467688
11
15.9841729
21
-14.243894
0
LINE
8
0
10
15.9841729
20
-14.243894
11
15.9859018
21
-14.2327988
0
LINE
8
0
10
15.9859018
20
-14.2327988
11
16
21
-14
0
LINE
8
0
10
16
20
-14
11
16
21
-13.9027498
0
LINE
8
0
10
16
20
-13.9027498
11
16
21
-13.8888998
0
LINE
8
0
10
16
20
-13.8888998
11
16
21
-13.8720272
0
LINE
8
0
10
16
20
-13.8720272
11
16
21
-13.7258922
0
LINE
8
0
10
16
20
-13.7258922
11
16
21
-13.709289
0
LINE
8
0
10
16
20
-13.709289
11
16
21
-13.556115
0
LINE
8
0
10
16
20
-13.556115
11
16
21
-13.3943013
0
LINE
8
0
10
16
20
-13.3943013
11
16
21
-13.3788836
0
LINE
8
0
10
16
20
-13.3788836
11
16
21
-13.3635223
0
LINE
8
0
10
16
20
-13.3635223
11
16
21
-13.3494746
0
LINE
8
0
10
16
20
-13.3494746
11
16
21
-13.1041036
0
LINE
8
0
10
16
20
-13.1041036
11
16
21
7.01951081
0
LINE
8
0
10
16
20
7.01951081
11
16
21
7.14021028
0
LINE
8
0
10
16
20
7.14021028
11
16
21
7.14021028
0
LINE
8
0
10
16
20
48.9427527
11
16
21
48.0905682
0
LINE
8
0
10
16
20
48.0905682
11
16
21
46.3862008
0
LINE
8
0
10
16
20
46.3862008
11
16
21
40.2548156
0
LINE
8
0
10
16
20
40.2548156
11
6.37131826
21
40.2548156
0
LINE
8
0
10
6.37131826
20
40.2548156
11
2.4
21
40.2548156
0
LINE
8
0
10
2.4
20
40.2548156
11
2.4
21
43.5992076
0
LINE
8
0
10
2.4
20
43.5992076
11
2.4
21
46.3862008
0
LINE
8
0
10
2.4
20
46.3862008
11
2.4
21
48.0905682
0
LINE
8
0
10
2.4
20
48.0905682
11
2.4
21
48.9427527
0
LINE
8
0
10
2.4
20
48.9427527
11
2.4
21
52.2007316
0
LINE
8
0
10
2.4
20
52.2007316
11
2.4
21
63.1252335
0
LINE
8
0
10
2.4
20
63.1252335
11
2.4
21
65.3073755
0
LINE
8
0
10
2.4
20
65.3073755
11
2.42503568
21
65.6877058
0
LINE
8
0
10
2.42503568
20
65.6877058
11
2.468148
21
66.3426536
0
LINE
8
0
10
2.468148
20
66.3426536
11
2.52642176
21
66.6240251
0
LINE
8
0
10
2.52642176
20
66.6240251
11
2.667949
21
67.307381
0
LINE
8
0
10
2.667949
20
67.307381
11
2.73836864
21
67.4909275
0
LINE
8
0
10
2.73836864
20
67.4909275
11
2.985786
21
68.1358127
0
LINE
8
0
10
2.985786
20
68.1358127
11
3.05252811
21
68.2382403
0
LINE
8
0
10
3.05252811
20
68.2382403
11
3.4
21
68.7714821
0
LINE
8
0
10
3.4
20
68.7714821
11
3.45514204
21
68.8171627
0
LINE
8
0
10
3.45514204
20
68.8171627
11
3.882362
21
69.1710943
0
LINE
8
0
10
3.882362
20
69.1710943
11
4.36091373
21
69.2970825
0
LINE
8
0
10
4.36091373
20
69.2970825
11
4.4
21
69.3073734
0
LINE
8
0
10
4.4
20
69.3073734
11
4.72110992
21
69.3073734
0
LINE
8
0
10
4.72110992
20
69.3073734
11
13
21
69.3073734
0
LINE
8
0
10
13
20
69.3073734
11
13.0146502
21
69.305447
0
LINE
8
0
10
13.0146502
20
69.305447
11
13.6554085
21
69.1613055
0
LINE
8
0
10
13.6554085
20
69.1613055
11
13.6763518
21
69.1525847
0
LINE
8
0
10
13.6763518
20
69.1525847
11
14.2438561
21
68.7561471
0
LINE
8
0
10
14.2438561
20
68.7561471
11
14.3245404
21
68.6890053
0
LINE
8
0
10
14.3245404
20
68.6890053
11
14.8097867
21
68.0811203
0
LINE
8
0
10
14.8097867
20
68.0811203
11
14.9144479
21
67.919772
0
LINE
8
0
10
14.9144479
20
67.919772
11
15.2928405
21
67.1661481
0
LINE
8
0
10
15.2928405
20
67.1661481
11
15.4103253
21
66.8581307
0
LINE
8
0
10
15.4103253
20
66.8581307
11
15.6692746
21
66.0379674
0
LINE
8
0
10
15.6692746
20
66.0379674
11
15.7722933
21
65.5366929
0
LINE
8
0
10
15.7722933
20
65.5366929
11
15.9134889
21
64.7335754
0
LINE
8
0
10
15.9134889
20
64.7335754
11
15.9414331
21
64.3469125
0
LINE
8
0
10
15.9414331
20
64.3469125
11
16
21
63.3073774
0
LINE
8
0
10
16
20
63.3073774
11
16
21
61.4337565
0
LINE
8
0
10
16
20
61.4337565
11
16
21
54.0948867
0
LINE
8
0
10
16
20
54.0948867
11
16
21
48.9427527
0
LINE
8
0
10
16
20
48.9427527
11
16
21
48.9427527
0
ENDSEC
0
EOF
