0
SECTION
2
ENTITIES
0
LINE
8
0
10
16
20
-13.0841261
11
16
21
-13.2401205
0
LINE
8
0
10
16
20
-13.2401205
11
16
21
-13.3877858
0
LINE
8
0
10
16
20
-13.3877858
11
16
21
-13.4469902
0
LINE
8
0
10
16
20
-13.4469902
11
16
21
-13.588109
0
LINE
8
0
10
16
20
-13.588109
11
16
21
-13.642415
0
LINE
8
0
10
16
20
-13.642415
11
16
21
-13.6869923
0
LINE
8
0
10
16
20
-13.6869923
11
16
21
-14
0
LINE
8
0
10
16
20
-14
11
15.9862137
21
-14.2276478
0
LINE
8
0
10
15.9862137
20
-14.2276478
11
15.9815177
21
-14.2577857
0
LINE
8
0
10
15.9815177
20
-14.2577857
11
15.9434096
21
-14.4702229
0
LINE
8
0
10
15.9434096
20
-14.4702229
11
15.8061029
21
-14.8500124
0
LINE
8
0
10
15.8061029
20
-14.8500124
11
15.7845651
21
-14.9020093
0
LINE
8
0
10
15.7845651
20
-14.9020093
11
15.587519
21
-15.2118454
0
LINE
8
0
10
15.587519
20
-15.2118454
11
15.5450355
21
-15.26721
0
LINE
8
0
10
15.5450355
20
-15.26721
11
15.3201958
21
-15.5011622
0
LINE
8
0
10
15.3201958
20
-15.5011622
11
15.2539297
21
-15.5520343
0
LINE
8
0
10
15.2539297
20
-15.5520343
11
15.0012448
21
-15.7310215
0
LINE
8
0
10
15.0012448
20
-15.7310215
11
14.7432755
21
-15.8507542
0
LINE
8
0
10
14.7432755
20
-15.8507542
11
14.6391024
21
-15.8939327
0
LINE
8
0
10
14.6391024
20
-15.8939327
11
14.3773957
21
-15.9621075
0
LINE
8
0
10
14.3773957
20
-15.9621075
11
14.1377626
21
-15.9818628
0
LINE
8
0
10
14.1377626
20
-15.9818628
11
14
21
-16
0
LINE
8
0
10
14
20
-16
11
12.7225474
21
-16
0
LINE
8
0
10
12.7225474
20
-16
11
4.4
21
-16
0
LINE
8
0
10
4.4
20
-16
11
4.18731612
21
-15.9819951
0
LINE
8
0
10
4.18731612
20
-15.9819951
11
3.9324994
21
-15.9384509
0
LINE
8
0
10
3.9324994
20
-15.9384509
11
3.882362
21
-15.93185
0
LINE
8
0
10
3.882362
20
-15.93185
11
3.49474822
21
-15.7715124
0
LINE
8
0
10
3.49474822
20
-15.7715124
11
3.40146409
21
-15.732899
0
LINE
8
0
10
3.40146409
20
-15.732899
11
3.06618298
21
-15.4758717
0
LINE
8
0
10
3.06618298
20
-15.4758717
11
2.985786
21
-15.41421
0
LINE
8
0
10
2.985786
20
-15.41421
11
2.72951911
21
-15.0802391
0
LINE
8
0
10
2.72951911
20
-15.0802391
11
2.667949
21
-15
0
LINE
8
0
10
2.667949
20
-15
11
2.50685265
21
-14.6110808
0
LINE
8
0
10
2.50685265
20
-14.6110808
11
2.468148
21
-14.51764
0
LINE
8
0
10
2.468148
20
-14.51764
11
2.44067467
21
-14.3089575
0
LINE
8
0
10
2.44067467
20
-14.3089575
11
2.4
21
-14
0
LINE
8
0
10
2.4
20
-14
11
2.4
21
-13.9826672
0
LINE
8
0
10
2.4
20
-13.9826672
11
2.4
21
-9.19357886
0
LINE
8
0
10
2.4
20
-9.19357886
11
2.4
21
-8.91824886
0
LINE
8
0
10
2.4
20
-8.91824886
11
2.4
21
-8.60980267
0
LINE
8
0
10
2.4
20
-8.60980267
11
2.4
21
2.08250295
0
LINE
8
0
10
2.4
20
2.08250295
11
2.4
21
2.2197246
0
LINE
8
0
10
2.4
20
2.2197246
11
2.4
21
2.38592634
0
LINE
8
0
10
2.4
20
2.38592634
11
2.4
21
2.56614572
0
LINE
8
0
10
2.4
20
2.56614572
11
2.4
21
5.55726687
0
LINE
8
0
10
2.4
20
5.55726687
11
2.4
21
5.73216484
0
LINE
8
0
10
2.4
20
5.73216484
11
2.4
21
9.16631262
0
LINE
8
0
10
2.4
20
9.16631262
11
2.4
21
10.3039252
0
LINE
8
0
10
2.4
20
10.3039252
11
2.4
21
13.337559
0
LINE
8
0
10
2.4
20
13.337559
11
4.08999851
21
13.337559
0
LINE
8
0
10
4.08999851
20
13.337559
11
16
21
13.337559
0
LINE
8
0
10
16
20
13.337559
11
16
21
11.5716966
0
LINE
8
0
10
16
20
11.5716966
11
16
21
7.53850229
0
LINE
8
0
10
16
20
7.53850229
11
16
21
7.06360735
0
LINE
8
0
10
16
20
7.06360735
11
16
21
-11.9423362
0
LINE
8
0
10
16
20
-11.9423362
11
16
21
-12.9077543
0
LINE
8
0
10
16
20
-12.9077543
11
16
21
-12.9630253
0
LINE
8
0
10
16
20
-12.9630253
11
16
21
-13.0234647
0
LINE
8
0
10
16
20
-13.0234647
11
16
21
-13.0841261
0
LINE
8
0
10
16
20
-13.0841261
11
16
21
-13.0841261
0
LINE
8
0
10
16
20
64.1029371
11
16
21
62.4911599
0
LINE
8
0
10
16
20
62.4911599
11
16
21
56.1779174
0
LINE
8
0
10
16
20
56.1779174
11
16
21
49.1018649
0
LINE
8
0
10
16
20
49.1018649
11
16
21
47.9314562
0
LINE
8
0
10
16
20
47.9314562
11
16
21
45.5906412
0
LINE
8
0
10
16
20
45.5906412
11
16
21
41.0503761
0
LINE
8
0
10
16
20
41.0503761
11
8.87000149
21
41.0503761
0
LINE
8
0
10
8.87000149
20
41.0503761
11
2.4
21
41.0503761
0
LINE
8
0
10
2.4
20
41.0503761
11
2.4
21
43.5268844
0
LINE
8
0
10
2.4
20
43.5268844
11
2.4
21
45.5906412
0
LINE
8
0
10
2.4
20
45.5906412
11
2.4
21
47.9314562
0
LINE
8
0
10
2.4
20
47.9314562
11
2.4
21
49.1018649
0
LINE
8
0
10
2.4
20
49.1018649
11
2.4
21
52.1211756
0
LINE
8
0
10
2.4
20
52.1211756
11
2.4
21
64.3909262
0
LINE
8
0
10
2.4
20
64.3909262
11
2.4
21
66.1029353
0
LINE
8
0
10
2.4
20
66.1029353
11
2.41964185
21
66.4013251
0
LINE
8
0
10
2.41964185
20
66.4013251
11
2.468148
21
67.1382142
0
LINE
8
0
10
2.468148
20
67.1382142
11
2.51052407
21
67.3428245
0
LINE
8
0
10
2.51052407
20
67.3428245
11
2.667949
21
68.1029416
0
LINE
8
0
10
2.667949
20
68.1029416
11
2.71281788
21
68.2198908
0
LINE
8
0
10
2.71281788
20
68.2198908
11
2.985786
21
68.9313733
0
LINE
8
0
10
2.985786
20
68.9313733
11
3.01873604
21
68.9819409
0
LINE
8
0
10
3.01873604
20
68.9819409
11
3.4
21
69.5670412
0
LINE
8
0
10
3.4
20
69.5670412
11
3.41506271
21
69.5795193
0
LINE
8
0
10
3.41506271
20
69.5795193
11
3.88119537
21
69.9656884
0
LINE
8
0
10
3.88119537
20
69.9656884
11
3.88168957
21
69.9660837
0
LINE
8
0
10
3.88168957
20
69.9660837
11
3.8824999
21
69.9665886
0
LINE
8
0
10
3.8824999
20
69.9665886
11
4.28634632
21
70.0620283
0
LINE
8
0
10
4.28634632
20
70.0620283
11
4.4
21
70.0774498
0
LINE
8
0
10
4.4
20
70.0774498
11
6.00804575
21
70.0774498
0
LINE
8
0
10
6.00804575
20
70.0774498
11
13
21
70.0774498
0
LINE
8
0
10
13
20
70.0774498
11
13.1826705
21
70.0665062
0
LINE
8
0
10
13.1826705
20
70.0665062
11
13.5481843
21
69.9794131
0
LINE
8
0
10
13.5481843
20
69.9794131
11
13.667227
21
69.9526339
0
LINE
8
0
10
13.667227
20
69.9526339
11
13.6678009
21
69.9523949
0
LINE
8
0
10
13.6678009
20
69.9523949
11
14.2825661
21
69.5229426
0
LINE
8
0
10
14.2825661
20
69.5229426
11
14.3092085
21
69.500772
0
LINE
8
0
10
14.3092085
20
69.500772
11
14.8368562
21
68.8397694
0
LINE
8
0
10
14.8368562
20
68.8397694
11
14.8948304
21
68.750395
0
LINE
8
0
10
14.8948304
20
68.750395
11
15.3091058
21
67.9253052
0
LINE
8
0
10
15.3091058
20
67.9253052
11
15.3902954
21
67.712445
0
LINE
8
0
10
15.3902954
20
67.712445
11
15.6768697
21
66.8047859
0
LINE
8
0
10
15.6768697
20
66.8047859
11
15.7566261
21
66.4167024
0
LINE
8
0
10
15.7566261
20
66.4167024
11
15.9154502
21
65.5133146
0
LINE
8
0
10
15.9154502
20
65.5133146
11
15.9385404
21
65.1938159
0
LINE
8
0
10
15.9385404
20
65.1938159
11
16
21
64.1029371
0
LINE
8
0
10
16
20
64.1029371
11
16
21
64.1029371
0
LINE
8
0
10
16
20
14.4137219
11
16
21
18.7183742
0
LINE
8
0
10
16
20
18.7183742
11
16
21
21.3419266
0
LINE
8
0
10
16
20
21.3419266
11
14.9699985
21
21.3419266
0
LINE
8
0
10
14.9699985
20
21.3419266
11
2.4
21
21.3419266
0
LINE
8
0
10
2.4
20
21.3419266
11
2.4
21
17.7844342
0
LINE
8
0
10
2.4
20
17.7844342
11
2.4
21
14.4137219
0
LINE
8
0
10
2.4
20
14.4137219
11
14.3100015
21
14.4137219
0
LINE
8
0
10
14.3100015
20
14.4137219
11
16
21
14.4137219
0
LINE
8
0
10
16
20
14.4137219
11
16
21
14.4137219
0
LINE
8
0
10
16
20
32.3901188
11
16
21
30.0021812
0
LINE
8
0
10
16
20
30.0021812
11
16
21
21.9978141
0
LINE
8
0
10
16
20
21.9978141
11
3.43000149
21
21.9978141
0
LINE
8
0
10
3.43000149
20
21.9978141
11
2.4
21
21.9978141
0
LINE
8
0
10
2.4
20
21.9978141
11
2.4
21
26.3638368
0
LINE
8
0
10
2.4
20
26.3638368
11
2.4
21
30.0021812
0
LINE
8
0
10
2.4
20
30.0021812
11
2.4
21
30.9573562
0
LINE
8
0
10
2.4
20
30.9573562
11
2.4
21
32.3901188
0
LINE
8
0
10
2.4
20
32.3901188
11
2.4
21
34.9124883
0
LINE
8
0
10
2.4
20
34.9124883
11
2.4
21
36.9303839
0
LINE
8
0
10
2.4
20
36.9303839
11
9.52999851
21
36.9303839
0
LINE
8
0
10
9.52999851
20
36.9303839
11
16
21
36.9303839
0
LINE
8
0
10
16
20
36.9303839
11
16
21
32.3901188
0
LINE
8
0
10
16
20
32.3901188
11
16
21
32.3901188
0
ENDSEC
0
EOF
