0
SECTION
2
ENTITIES
0
LINE
8
0
10
16
20
-13.5191725
11
16
21
-13.4461499
0
LINE
8
0
10
16
20
-13.4461499
11
16
21
-13.3075393
0
LINE
8
0
10
16
20
-13.3075393
11
16
21
-13.2270342
0
LINE
8
0
10
16
20
-13.2270342
11
16
21
-13.0821232
0
LINE
8
0
10
16
20
-13.0821232
11
16
21
-12.9290385
0
LINE
8
0
10
16
20
-12.9290385
11
16
21
-12.8457552
0
LINE
8
0
10
16
20
-12.8457552
11
16
21
-12.7627768
0
LINE
8
0
10
16
20
-12.7627768
11
16
21
-12.6868942
0
LINE
8
0
10
16
20
-12.6868942
11
16
21
-11.3614525
0
LINE
8
0
10
16
20
-11.3614525
11
16
21
7.08565562
0
LINE
8
0
10
16
20
7.08565562
11
16
21
7.73764829
0
LINE
8
0
10
16
20
7.73764829
11
16
21
13.2749007
0
LINE
8
0
10
16
20
13.2749007
11
16
21
13.7353386
0
LINE
8
0
10
16
20
13.7353386
11
2.84065689
21
13.7353386
0
LINE
8
0
10
2.84065689
20
13.7353386
11
2.4
21
13.7353386
0
LINE
8
0
10
2.4
20
13.7353386
11
2.4
21
10.3834811
0
LINE
8
0
10
2.4
20
10.3834811
11
2.4
21
9.12653464
0
LINE
8
0
10
2.4
20
9.12653464
11
2.4
21
5.79336177
0
LINE
8
0
10
2.4
20
5.79336177
11
2.4
21
5.62360636
0
LINE
8
0
10
2.4
20
5.62360636
11
2.4
21
2.5050636
0
LINE
8
0
10
2.4
20
2.5050636
11
2.4
21
2.31716688
0
LINE
8
0
10
2.4
20
2.31716688
11
2.4
21
2.14388496
0
LINE
8
0
10
2.4
20
2.14388496
11
2.4
21
2.00081768
0
LINE
8
0
10
2.4
20
2.00081768
11
2.4
21
-8.5264009
0
LINE
8
0
10
2.4
20
-8.5264009
11
2.4
21
-8.8401076
0
LINE
8
0
10
2.4
20
-8.8401076
11
2.4
21
-9.11129725
0
LINE
8
0
10
2.4
20
-9.11129725
11
2.4
21
-13.9823705
0
LINE
8
0
10
2.4
20
-13.9823705
11
2.4
21
-14
0
LINE
8
0
10
2.4
20
-14
11
2.44137098
21
-14.3142466
0
LINE
8
0
10
2.44137098
20
-14.3142466
11
2.468148
21
-14.51764
0
LINE
8
0
10
2.468148
20
-14.51764
11
2.51093565
21
-14.620938
0
LINE
8
0
10
2.51093565
20
-14.620938
11
2.667949
21
-15
0
LINE
8
0
10
2.667949
20
-15
11
2.73601422
21
-15.0887036
0
LINE
8
0
10
2.73601422
20
-15.0887036
11
2.985786
21
-15.41421
0
LINE
8
0
10
2.985786
20
-15.41421
11
3.07466416
21
-15.4823765
0
LINE
8
0
10
3.07466416
20
-15.4823765
11
3.40144754
21
-15.7328893
0
LINE
8
0
10
3.40144754
20
-15.7328893
11
3.50457232
21
-15.7755761
0
LINE
8
0
10
3.50457232
20
-15.7755761
11
3.882362
21
-15.93185
0
LINE
8
0
10
3.882362
20
-15.93185
11
3.93778846
21
-15.9391472
0
LINE
8
0
10
3.93778846
20
-15.9391472
11
4.18972232
21
-15.9821988
0
LINE
8
0
10
4.18972232
20
-15.9821988
11
4.4
21
-16
0
LINE
8
0
10
4.4
20
-16
11
12.6283906
21
-16
0
LINE
8
0
10
12.6283906
20
-16
11
14
21
-16
0
LINE
8
0
10
14
20
-16
11
14.1479166
21
-15.980526
0
LINE
8
0
10
14.1479166
20
-15.980526
11
14.3811444
21
-15.9612988
0
LINE
8
0
10
14.3811444
20
-15.9612988
11
14.6358558
21
-15.8949462
0
LINE
8
0
10
14.6358558
20
-15.8949462
11
14.7501588
21
-15.847569
0
LINE
8
0
10
14.7501588
20
-15.847569
11
15.0012326
21
-15.7310367
0
LINE
8
0
10
15.0012326
20
-15.7310367
11
15.2471633
21
-15.5568338
0
LINE
8
0
10
15.2471633
20
-15.5568338
11
15.3227088
21
-15.498838
0
LINE
8
0
10
15.3227088
20
-15.498838
11
15.5415386
21
-15.2711392
0
LINE
8
0
10
15.5415386
20
-15.2711392
11
15.5913823
21
-15.2061828
0
LINE
8
0
10
15.5913823
20
-15.2061828
11
15.7831614
21
-14.9046286
0
LINE
8
0
10
15.7831614
20
-14.9046286
11
15.8094641
21
-14.8411282
0
LINE
8
0
10
15.8094641
20
-14.8411282
11
15.9431006
21
-14.4714903
0
LINE
8
0
10
15.9431006
20
-14.4714903
11
15.9801901
21
-14.2647315
0
LINE
8
0
10
15.9801901
20
-14.2647315
11
15.9863697
21
-14.2250723
0
LINE
8
0
10
15.9863697
20
-14.2250723
11
16
21
-14
0
LINE
8
0
10
16
20
-14
11
16
21
-13.5791135
0
LINE
8
0
10
16
20
-13.5791135
11
16
21
-13.5191725
0
LINE
8
0
10
16
20
-13.5191725
11
16
21
-13.5191725
0
LINE
8
0
10
16
20
63.0198616
11
16
21
57.2194328
0
LINE
8
0
10
16
20
57.2194328
11
16
21
49.181421
0
LINE
8
0
10
16
20
49.181421
11
16
21
47.8519003
0
LINE
8
0
10
16
20
47.8519003
11
16
21
45.1928614
0
LINE
8
0
10
16
20
45.1928614
11
16
21
41.4481564
0
LINE
8
0
10
16
20
41.4481564
11
10.1193431
21
41.4481564
0
LINE
8
0
10
10.1193431
20
41.4481564
11
2.4
21
41.4481564
0
LINE
8
0
10
2.4
20
41.4481564
11
2.4
21
43.4907228
0
LINE
8
0
10
2.4
20
43.4907228
11
2.4
21
45.1928614
0
LINE
8
0
10
2.4
20
45.1928614
11
2.4
21
47.8519003
0
LINE
8
0
10
2.4
20
47.8519003
11
2.4
21
49.181421
0
LINE
8
0
10
2.4
20
49.181421
11
2.4
21
52.0813976
0
LINE
8
0
10
2.4
20
52.0813976
11
2.4
21
65.0237726
0
LINE
8
0
10
2.4
20
65.0237726
11
2.4
21
66.5007152
0
LINE
8
0
10
2.4
20
66.5007152
11
2.41694494
21
66.7581347
0
LINE
8
0
10
2.41694494
20
66.7581347
11
2.468148
21
67.5359944
0
LINE
8
0
10
2.468148
20
67.5359944
11
2.50257523
21
67.7022243
0
LINE
8
0
10
2.50257523
20
67.7022243
11
2.667949
21
68.5007218
0
LINE
8
0
10
2.667949
20
68.5007218
11
2.7000425
21
68.5843725
0
LINE
8
0
10
2.7000425
20
68.5843725
11
2.985786
21
69.3291535
0
LINE
8
0
10
2.985786
20
69.3291535
11
3.00184
21
69.3537913
0
LINE
8
0
10
3.00184
20
69.3537913
11
3.31416719
21
69.8330988
0
LINE
8
0
10
3.31416719
20
69.8330988
11
3.3240334
21
69.8522639
0
LINE
8
0
10
3.3240334
20
69.8522639
11
3.43954318
21
69.9918977
0
LINE
8
0
10
3.43954318
20
69.9918977
11
3.51269095
21
70.0504034
0
LINE
8
0
10
3.51269095
20
70.0504034
11
3.64939299
21
70.1355795
0
LINE
8
0
10
3.64939299
20
70.1355795
11
3.93407003
21
70.2942036
0
LINE
8
0
10
3.93407003
20
70.2942036
11
4.23175533
21
70.3539218
0
LINE
8
0
10
4.23175533
20
70.3539218
11
4.4
21
70.3767507
0
LINE
8
0
10
4.4
20
70.3767507
11
12.222255
21
70.3767507
0
LINE
8
0
10
12.222255
20
70.3767507
11
13
21
70.3767507
0
LINE
8
0
10
13
20
70.3767507
11
13.0751642
21
70.3722477
0
LINE
8
0
10
13.0751642
20
70.3722477
11
13.2794739
21
70.3567369
0
LINE
8
0
10
13.2794739
20
70.3567369
11
13.4229304
21
70.3422008
0
LINE
8
0
10
13.4229304
20
70.3422008
11
13.4930735
21
70.3225586
0
LINE
8
0
10
13.4930735
20
70.3225586
11
13.8715833
21
70.1928476
0
LINE
8
0
10
13.8715833
20
70.1928476
11
13.9992323
21
70.1189408
0
LINE
8
0
10
13.9992323
20
70.1189408
11
14.30178
21
69.9056934
0
LINE
8
0
10
14.30178
20
69.9056934
11
14.305321
21
69.9020048
0
LINE
8
0
10
14.305321
20
69.9020048
11
14.3069705
21
69.8998556
0
LINE
8
0
10
14.3069705
20
69.8998556
11
14.8503909
21
69.219094
0
LINE
8
0
10
14.8503909
20
69.219094
11
14.8850216
21
69.1657065
0
LINE
8
0
10
14.8850216
20
69.1657065
11
15.3172384
21
68.3048838
0
LINE
8
0
10
15.3172384
20
68.3048838
11
15.3802805
21
68.1396021
0
LINE
8
0
10
15.3802805
20
68.1396021
11
15.6806672
21
67.1881952
0
LINE
8
0
10
15.6806672
20
67.1881952
11
15.7487925
21
66.8567072
0
LINE
8
0
10
15.7487925
20
66.8567072
11
15.9164309
21
65.9031843
0
LINE
8
0
10
15.9164309
20
65.9031843
11
15.9370941
21
65.6172676
0
LINE
8
0
10
15.9370941
20
65.6172676
11
16
21
64.500717
0
LINE
8
0
10
16
20
64.500717
11
16
21
63.0198616
0
LINE
8
0
10
16
20
63.0198616
11
16
21
63.0198616
0
LINE
8
0
10
16
20
29.6044014
11
16
21
22.3955944
0
LINE
8
0
10
16
20
22.3955944
11
4.67934311
21
22.3955944
0
LINE
8
0
10
4.67934311
20
22.3955944
11
2.4
21
22.3955944
0
LINE
8
0
10
2.4
20
22.3955944
11
2.4
21
26.3276747
0
LINE
8
0
10
2.4
20
26.3276747
11
2.4
21
29.6044014
0
LINE
8
0
10
2.4
20
29.6044014
11
2.4
21
30.8778003
0
LINE
8
0
10
2.4
20
30.8778003
11
2.4
21
32.7878986
0
LINE
8
0
10
2.4
20
32.7878986
11
2.4
21
34.8682902
0
LINE
8
0
10
2.4
20
34.8682902
11
2.4
21
36.5326036
0
LINE
8
0
10
2.4
20
36.5326036
11
8.28065689
21
36.5326036
0
LINE
8
0
10
8.28065689
20
36.5326036
11
16
21
36.5326036
0
LINE
8
0
10
16
20
36.5326036
11
16
21
32.7878986
0
LINE
8
0
10
16
20
32.7878986
11
16
21
29.6044014
0
LINE
8
0
10
16
20
29.6044014
11
16
21
29.6044014
0
LINE
8
0
10
16
20
20.9441473
11
16
21
15.1383537
0
LINE
8
0
10
16
20
15.1383537
11
16
21
14.0159416
0
LINE
8
0
10
16
20
14.0159416
11
15.5593431
21
14.0159416
0
LINE
8
0
10
15.5593431
20
14.0159416
11
2.4
21
14.0159416
0
LINE
8
0
10
2.4
20
14.0159416
11
2.4
21
17.7402367
0
LINE
8
0
10
2.4
20
17.7402367
11
2.4
21
20.9441473
0
LINE
8
0
10
2.4
20
20.9441473
11
13.7206569
21
20.9441473
0
LINE
8
0
10
13.7206569
20
20.9441473
11
16
21
20.9441473
0
LINE
8
0
10
16
20
20.9441473
11
16
21
20.9441473
0
ENDSEC
0
EOF
