0
SECTION
2
ENTITIES
0
LINE
8
0
10
16
20
59.3024635
11
16
21
64.0772651
0
LINE
8
0
10
16
20
64.0772651
11
16
21
65.2962767
0
LINE
8
0
10
16
20
65.2962767
11
15.9342014
21
66.464171
0
LINE
8
0
10
15.9342014
20
66.464171
11
15.9183921
21
66.6829235
0
LINE
8
0
10
15.9183921
20
66.6829235
11
15.7331253
21
67.7367167
0
LINE
8
0
10
15.7331253
20
67.7367167
11
15.6882623
21
67.9550137
0
LINE
8
0
10
15.6882623
20
67.9550137
11
15.3602507
21
68.9939164
0
LINE
8
0
10
15.3602507
20
68.9939164
11
15.3335036
21
69.064041
0
LINE
8
0
10
15.3335036
20
69.064041
11
14.9937338
21
69.7407421
0
LINE
8
0
10
14.9937338
20
69.7407421
11
14.9454339
21
69.8427371
0
LINE
8
0
10
14.9454339
20
69.8427371
11
14.8437128
21
69.9757614
0
LINE
8
0
10
14.8437128
20
69.9757614
11
14.6621858
21
70.1720016
0
LINE
8
0
10
14.6621858
20
70.1720016
11
14.6405176
21
70.1969008
0
LINE
8
0
10
14.6405176
20
70.1969008
11
14.5981596
21
70.2329512
0
LINE
8
0
10
14.5981596
20
70.2329512
11
14.3512477
21
70.3984663
0
LINE
8
0
10
14.3512477
20
70.3984663
11
14.1069058
21
70.5268485
0
LINE
8
0
10
14.1069058
20
70.5268485
11
13.9778943
21
70.575307
0
LINE
8
0
10
13.9778943
20
70.575307
11
13.6992971
21
70.6590875
0
LINE
8
0
10
13.6992971
20
70.6590875
11
13.3696714
21
70.717457
0
LINE
8
0
10
13.3696714
20
70.717457
11
13.3389281
21
70.7230465
0
LINE
8
0
10
13.3389281
20
70.7230465
11
13.225332
21
70.7296727
0
LINE
8
0
10
13.225332
20
70.7296727
11
13.0266762
21
70.7392724
0
LINE
8
0
10
13.0266762
20
70.7392724
11
13
21
70.7388239
0
LINE
8
0
10
13
20
70.7388239
11
4.69156961
21
70.7388239
0
LINE
8
0
10
4.69156961
20
70.7388239
11
4.4
21
70.7388239
0
LINE
8
0
10
4.4
20
70.7388239
11
4.364615
21
70.7351185
0
LINE
8
0
10
4.364615
20
70.7351185
11
3.889034
21
70.6494592
0
LINE
8
0
10
3.889034
20
70.6494592
11
3.53511727
21
70.4797575
0
LINE
8
0
10
3.53511727
20
70.4797575
11
3.406907
21
70.4182811
0
LINE
8
0
10
3.406907
20
70.4182811
11
3.20768007
21
70.2420875
0
LINE
8
0
10
3.20768007
20
70.2420875
11
3.00597862
21
70.0247059
0
LINE
8
0
10
3.00597862
20
70.0247059
11
2.99070359
21
69.9977287
0
LINE
8
0
10
2.99070359
20
69.9977287
11
2.85004794
21
69.7281461
0
LINE
8
0
10
2.85004794
20
69.7281461
11
2.77216071
21
69.5679068
0
LINE
8
0
10
2.77216071
20
69.5679068
11
2.67449173
21
69.3133358
0
LINE
8
0
10
2.67449173
20
69.3133358
11
2.667949
21
69.2962824
0
LINE
8
0
10
2.667949
20
69.2962824
11
2.48667754
21
68.4210238
0
LINE
8
0
10
2.48667754
20
68.4210238
11
2.468148
21
68.331555
0
LINE
8
0
10
2.468148
20
68.331555
11
2.41155111
21
67.471754
0
LINE
8
0
10
2.41155111
20
67.471754
11
2.4
21
67.296275
0
LINE
8
0
10
2.4
20
67.296275
11
2.4
21
66.2894653
0
LINE
8
0
10
2.4
20
66.2894653
11
2.4
21
52.0018417
0
LINE
8
0
10
2.4
20
52.0018417
11
2.4
21
49.3405332
0
LINE
8
0
10
2.4
20
49.3405332
11
2.4
21
47.6927884
0
LINE
8
0
10
2.4
20
47.6927884
11
2.4
21
44.3973018
0
LINE
8
0
10
2.4
20
44.3973018
11
2.4
21
43.4183996
0
LINE
8
0
10
2.4
20
43.4183996
11
2.4
21
42.2437169
0
LINE
8
0
10
2.4
20
42.2437169
11
12.6180263
21
42.2437169
0
LINE
8
0
10
12.6180263
20
42.2437169
11
16
21
42.2437169
0
LINE
8
0
10
16
20
42.2437169
11
16
21
44.3973018
0
LINE
8
0
10
16
20
44.3973018
11
16
21
47.6927884
0
LINE
8
0
10
16
20
47.6927884
11
16
21
49.3405332
0
LINE
8
0
10
16
20
49.3405332
11
16
21
59.3024635
0
LINE
8
0
10
16
20
59.3024635
11
16
21
59.3024635
0
LINE
8
0
10
16
20
23.1911549
11
16
21
28.8088418
0
LINE
8
0
10
16
20
28.8088418
11
16
21
33.5834582
0
LINE
8
0
10
16
20
33.5834582
11
16
21
35.7370431
0
LINE
8
0
10
16
20
35.7370431
11
5.78197366
21
35.7370431
0
LINE
8
0
10
5.78197366
20
35.7370431
11
2.4
21
35.7370431
0
LINE
8
0
10
2.4
20
35.7370431
11
2.4
21
34.7798942
0
LINE
8
0
10
2.4
20
34.7798942
11
2.4
21
33.5834582
0
LINE
8
0
10
2.4
20
33.5834582
11
2.4
21
30.7186884
0
LINE
8
0
10
2.4
20
30.7186884
11
2.4
21
28.8088418
0
LINE
8
0
10
2.4
20
28.8088418
11
2.4
21
26.2553507
0
LINE
8
0
10
2.4
20
26.2553507
11
2.4
21
23.1911549
0
LINE
8
0
10
2.4
20
23.1911549
11
7.17802634
21
23.1911549
0
LINE
8
0
10
7.17802634
20
23.1911549
11
16
21
23.1911549
0
LINE
8
0
10
16
20
23.1911549
11
16
21
23.1911549
0
LINE
8
0
10
16
20
7.12975215
11
16
21
8.1359403
0
LINE
8
0
10
16
20
8.1359403
11
16
21
13.7445884
0
LINE
8
0
10
16
20
13.7445884
11
16
21
14.5309001
0
LINE
8
0
10
16
20
14.5309001
11
16
21
20.1485886
0
LINE
8
0
10
16
20
20.1485886
11
11.2219737
21
20.1485886
0
LINE
8
0
10
11.2219737
20
20.1485886
11
2.4
21
20.1485886
0
LINE
8
0
10
2.4
20
20.1485886
11
2.4
21
17.6518417
0
LINE
8
0
10
2.4
20
17.6518417
11
2.4
21
14.5309001
0
LINE
8
0
10
2.4
20
14.5309001
11
2.4
21
13.7445884
0
LINE
8
0
10
2.4
20
13.7445884
11
2.4
21
10.5425929
0
LINE
8
0
10
2.4
20
10.5425929
11
2.4
21
9.04697868
0
LINE
8
0
10
2.4
20
9.04697868
11
2.4
21
5.91575562
0
LINE
8
0
10
2.4
20
5.91575562
11
2.4
21
5.75628533
0
LINE
8
0
10
2.4
20
5.75628533
11
2.4
21
2.38289936
0
LINE
8
0
10
2.4
20
2.38289936
11
2.4
21
2.17964798
0
LINE
8
0
10
2.4
20
2.17964798
11
2.4
21
1.99220568
0
LINE
8
0
10
2.4
20
1.99220568
11
2.4
21
1.83744713
0
LINE
8
0
10
2.4
20
1.83744713
11
2.4
21
-8.35959735
0
LINE
8
0
10
2.4
20
-8.35959735
11
2.4
21
-8.68382508
0
LINE
8
0
10
2.4
20
-8.68382508
11
2.4
21
-8.94673401
0
LINE
8
0
10
2.4
20
-8.94673401
11
2.4
21
-13.9817771
0
LINE
8
0
10
2.4
20
-13.9817771
11
2.4
21
-14
0
LINE
8
0
10
2.4
20
-14
11
2.44276361
21
-14.3248247
0
LINE
8
0
10
2.44276361
20
-14.3248247
11
2.468148
21
-14.51764
0
LINE
8
0
10
2.468148
20
-14.51764
11
2.51910165
21
-14.6406524
0
LINE
8
0
10
2.51910165
20
-14.6406524
11
2.667949
21
-15
0
LINE
8
0
10
2.667949
20
-15
11
2.74900443
21
-15.1056327
0
LINE
8
0
10
2.74900443
20
-15.1056327
11
2.985786
21
-15.41421
0
LINE
8
0
10
2.985786
20
-15.41421
11
3.0916265
21
-15.4953861
0
LINE
8
0
10
3.0916265
20
-15.4953861
11
3.40141443
21
-15.7328701
0
LINE
8
0
10
3.40141443
20
-15.7328701
11
3.52422053
21
-15.7837037
0
LINE
8
0
10
3.52422053
20
-15.7837037
11
3.882362
21
-15.93185
0
LINE
8
0
10
3.882362
20
-15.93185
11
3.94836657
21
-15.9405399
0
LINE
8
0
10
3.94836657
20
-15.9405399
11
4.1945347
21
-15.9826062
0
LINE
8
0
10
4.1945347
20
-15.9826062
11
4.4
21
-16
0
LINE
8
0
10
4.4
20
-16
11
12.4400768
21
-16
0
LINE
8
0
10
12.4400768
20
-16
11
14
21
-16
0
LINE
8
0
10
14
20
-16
11
14.1682247
21
-15.9778523
0
LINE
8
0
10
14.1682247
20
-15.9778523
11
14.3886418
21
-15.9596812
0
LINE
8
0
10
14.3886418
20
-15.9596812
11
14.6293625
21
-15.8969733
0
LINE
8
0
10
14.6293625
20
-15.8969733
11
14.7639254
21
-15.8411985
0
LINE
8
0
10
14.7639254
20
-15.8411985
11
15.0012083
21
-15.7310671
0
LINE
8
0
10
15.0012083
20
-15.7310671
11
15.2336306
21
-15.5664327
0
LINE
8
0
10
15.2336306
20
-15.5664327
11
15.3277347
21
-15.4941896
0
LINE
8
0
10
15.3277347
20
-15.4941896
11
15.5345447
21
-15.2789978
0
LINE
8
0
10
15.5345447
20
-15.2789978
11
15.5991089
21
-15.1948576
0
LINE
8
0
10
15.5991089
20
-15.1948576
11
15.7803539
21
-14.9098671
0
LINE
8
0
10
15.7803539
20
-14.9098671
11
15.8161865
21
-14.8233597
0
LINE
8
0
10
15.8161865
20
-14.8233597
11
15.9424826
21
-14.4740252
0
LINE
8
0
10
15.9424826
20
-14.4740252
11
15.9775349
21
-14.2786232
0
LINE
8
0
10
15.9775349
20
-14.2786232
11
15.9866816
21
-14.2199213
0
LINE
8
0
10
15.9866816
20
-14.2199213
11
16
21
-14
0
LINE
8
0
10
16
20
-14
11
16
21
-13.363356
0
LINE
8
0
10
16
20
-13.363356
11
16
21
-13.2726877
0
LINE
8
0
10
16
20
-13.2726877
11
16
21
-13.1622318
0
LINE
8
0
10
16
20
-13.1622318
11
16
21
-13.0286373
0
LINE
8
0
10
16
20
-13.0286373
11
16
21
-12.905531
0
LINE
8
0
10
16
20
-12.905531
11
16
21
-12.7661286
0
LINE
8
0
10
16
20
-12.7661286
11
16
21
-12.6188633
0
LINE
8
0
10
16
20
-12.6188633
11
16
21
-12.4903362
0
LINE
8
0
10
16
20
-12.4903362
11
16
21
-12.3622798
0
LINE
8
0
10
16
20
-12.3622798
11
16
21
-12.2451739
0
LINE
8
0
10
16
20
-12.2451739
11
16
21
-10.1996852
0
LINE
8
0
10
16
20
-10.1996852
11
16
21
7.12975215
0
LINE
8
0
10
16
20
7.12975215
11
16
21
7.12975215
0
ENDSEC
0
EOF
