0
SECTION
2
ENTITIES
0
LINE
8
0
10
16
20
-12.0243138
11
16
21
-12.1620313
0
LINE
8
0
10
16
20
-12.1620313
11
16
21
-12.3126268
0
LINE
8
0
10
16
20
-12.3126268
11
16
21
-12.4637757
0
LINE
8
0
10
16
20
-12.4637757
11
16
21
-12.6081313
0
LINE
8
0
10
16
20
-12.6081313
11
16
21
-12.7447794
0
LINE
8
0
10
16
20
-12.7447794
11
16
21
-12.8891863
0
LINE
8
0
10
16
20
-12.8891863
11
16
21
-13.0202727
0
LINE
8
0
10
16
20
-13.0202727
11
16
21
-13.1494453
0
LINE
8
0
10
16
20
-13.1494453
11
16
21
-13.2554773
0
LINE
8
0
10
16
20
-13.2554773
11
16
21
-14
0
LINE
8
0
10
16
20
-14
11
15.9868376
21
-14.2173459
0
LINE
8
0
10
15.9868376
20
-14.2173459
11
15.9762073
21
-14.2855691
0
LINE
8
0
10
15.9762073
20
-14.2855691
11
15.9421736
21
-14.4752927
0
LINE
8
0
10
15.9421736
20
-14.4752927
11
15.8195477
21
-14.8144755
0
LINE
8
0
10
15.8195477
20
-14.8144755
11
15.7789502
21
-14.9124864
0
LINE
8
0
10
15.7789502
20
-14.9124864
11
15.6029721
21
-15.1891951
0
LINE
8
0
10
15.6029721
20
-15.1891951
11
15.5310478
21
-15.2829271
0
LINE
8
0
10
15.5310478
20
-15.2829271
11
15.3302477
21
-15.4918654
0
LINE
8
0
10
15.3302477
20
-15.4918654
11
15.2268642
21
-15.5712322
0
LINE
8
0
10
15.2268642
20
-15.5712322
11
15.0011961
21
-15.7310823
0
LINE
8
0
10
15.0011961
20
-15.7310823
11
14.7708087
21
-15.8380133
0
LINE
8
0
10
14.7708087
20
-15.8380133
11
14.6261158
21
-15.8979868
0
LINE
8
0
10
14.6261158
20
-15.8979868
11
14.3923905
21
-15.9588724
0
LINE
8
0
10
14.3923905
20
-15.9588724
11
14.1783787
21
-15.9765155
0
LINE
8
0
10
14.1783787
20
-15.9765155
11
14
21
-16
0
LINE
8
0
10
14
20
-16
11
12.3459199
21
-16
0
LINE
8
0
10
12.3459199
20
-16
11
4.4
21
-16
0
LINE
8
0
10
4.4
20
-16
11
4.1969409
21
-15.9828099
0
LINE
8
0
10
4.1969409
20
-15.9828099
11
3.95365562
21
-15.9412362
0
LINE
8
0
10
3.95365562
20
-15.9412362
11
3.882362
21
-15.93185
0
LINE
8
0
10
3.882362
20
-15.93185
11
3.53404463
21
-15.7877674
0
LINE
8
0
10
3.53404463
20
-15.7877674
11
3.40139788
21
-15.7328605
0
LINE
8
0
10
3.40139788
20
-15.7328605
11
3.10010768
21
-15.5018908
0
LINE
8
0
10
3.10010768
20
-15.5018908
11
2.985786
21
-15.41421
0
LINE
8
0
10
2.985786
20
-15.41421
11
2.75549953
21
-15.1140972
0
LINE
8
0
10
2.75549953
20
-15.1140972
11
2.667949
21
-15
0
LINE
8
0
10
2.667949
20
-15
11
2.52318465
21
-14.6505096
0
LINE
8
0
10
2.52318465
20
-14.6505096
11
2.468148
21
-14.51764
0
LINE
8
0
10
2.468148
20
-14.51764
11
2.44345992
21
-14.3301138
0
LINE
8
0
10
2.44345992
20
-14.3301138
11
2.4
21
-14
0
LINE
8
0
10
2.4
20
-14
11
2.4
21
-13.9814804
0
LINE
8
0
10
2.4
20
-13.9814804
11
2.4
21
-8.8644524
0
LINE
8
0
10
2.4
20
-8.8644524
11
2.4
21
-8.60568382
0
LINE
8
0
10
2.4
20
-8.60568382
11
2.4
21
-8.27619557
0
LINE
8
0
10
2.4
20
-8.27619557
11
2.4
21
1.75576185
0
LINE
8
0
10
2.4
20
1.75576185
11
2.4
21
1.91636604
0
LINE
8
0
10
2.4
20
1.91636604
11
2.4
21
2.11088852
0
LINE
8
0
10
2.4
20
2.11088852
11
2.4
21
2.32181725
0
LINE
8
0
10
2.4
20
2.32181725
11
2.4
21
5.82262482
0
LINE
8
0
10
2.4
20
5.82262482
11
2.4
21
5.97695255
0
LINE
8
0
10
2.4
20
5.97695255
11
2.4
21
9.0072007
0
LINE
8
0
10
2.4
20
9.0072007
11
2.4
21
10.6221488
0
LINE
8
0
10
2.4
20
10.6221488
11
2.4
21
13.6650324
0
LINE
8
0
10
2.4
20
13.6650324
11
2.4
21
14.928681
0
LINE
8
0
10
2.4
20
14.928681
11
2.4
21
17.6076442
0
LINE
8
0
10
2.4
20
17.6076442
11
2.4
21
19.7508092
0
LINE
8
0
10
2.4
20
19.7508092
11
9.97263205
21
19.7508092
0
LINE
8
0
10
9.97263205
20
19.7508092
11
16
21
19.7508092
0
LINE
8
0
10
16
20
19.7508092
11
16
21
14.928681
0
LINE
8
0
10
16
20
14.928681
11
16
21
13.6650324
0
LINE
8
0
10
16
20
13.6650324
11
16
21
8.3350863
0
LINE
8
0
10
16
20
8.3350863
11
16
21
7.15180042
0
LINE
8
0
10
16
20
7.15180042
11
16
21
-9.61880147
0
LINE
8
0
10
16
20
-9.61880147
11
16
21
-12.0243138
0
LINE
8
0
10
16
20
-12.0243138
11
16
21
-12.0243138
0
LINE
8
0
10
16
20
28.411062
11
16
21
23.5889352
0
LINE
8
0
10
16
20
23.5889352
11
8.42736795
21
23.5889352
0
LINE
8
0
10
8.42736795
20
23.5889352
11
2.4
21
23.5889352
0
LINE
8
0
10
2.4
20
23.5889352
11
2.4
21
26.2191887
0
LINE
8
0
10
2.4
20
26.2191887
11
2.4
21
28.411062
0
LINE
8
0
10
2.4
20
28.411062
11
2.4
21
30.6391324
0
LINE
8
0
10
2.4
20
30.6391324
11
2.4
21
33.981238
0
LINE
8
0
10
2.4
20
33.981238
11
2.4
21
34.7356962
0
LINE
8
0
10
2.4
20
34.7356962
11
2.4
21
35.3392628
0
LINE
8
0
10
2.4
20
35.3392628
11
4.53263205
21
35.3392628
0
LINE
8
0
10
4.53263205
20
35.3392628
11
16
21
35.3392628
0
LINE
8
0
10
16
20
35.3392628
11
16
21
33.981238
0
LINE
8
0
10
16
20
33.981238
11
16
21
28.411062
0
LINE
8
0
10
16
20
28.411062
11
16
21
28.411062
0
LINE
8
0
10
16
20
43.999522
11
16
21
42.6414972
0
LINE
8
0
10
16
20
42.6414972
11
13.867368
21
42.6414972
0
LINE
8
0
10
13.867368
20
42.6414972
11
2.4
21
42.6414972
0
LINE
8
0
10
2.4
20
42.6414972
11
2.4
21
43.382238
0
LINE
8
0
10
2.4
20
43.382238
11
2.4
21
43.999522
0
LINE
8
0
10
2.4
20
43.999522
11
2.4
21
47.6132324
0
LINE
8
0
10
2.4
20
47.6132324
11
2.4
21
49.4200893
0
LINE
8
0
10
2.4
20
49.4200893
11
2.4
21
51.9620637
0
LINE
8
0
10
2.4
20
51.9620637
11
2.4
21
66.9223117
0
LINE
8
0
10
2.4
20
66.9223117
11
2.4
21
67.6940549
0
LINE
8
0
10
2.4
20
67.6940549
11
2.4088542
21
67.8285637
0
LINE
8
0
10
2.4088542
20
67.8285637
11
2.468148
21
68.7293352
0
LINE
8
0
10
2.468148
20
68.7293352
11
2.4787287
21
68.7804235
0
LINE
8
0
10
2.4787287
20
68.7804235
11
2.61436037
21
69.4353131
0
LINE
8
0
10
2.61436037
20
69.4353131
11
2.62125874
21
69.4659854
0
LINE
8
0
10
2.62125874
20
69.4659854
11
2.67138241
21
69.6466115
0
LINE
8
0
10
2.67138241
20
69.6466115
11
2.72075342
21
69.7481837
0
LINE
8
0
10
2.72075342
20
69.7481837
11
2.79073025
21
69.8823022
0
LINE
8
0
10
2.79073025
20
69.8823022
11
2.992458
21
70.1843411
0
LINE
8
0
10
2.992458
20
70.1843411
11
3.23968518
21
70.4029867
0
LINE
8
0
10
3.23968518
20
70.4029867
11
3.406907
21
70.5508754
0
LINE
8
0
10
3.406907
20
70.5508754
11
3.84460529
21
70.7607505
0
LINE
8
0
10
3.84460529
20
70.7607505
11
3.89025248
21
70.779617
0
LINE
8
0
10
3.89025248
20
70.779617
11
3.90950097
21
70.7825882
0
LINE
8
0
10
3.90950097
20
70.7825882
11
4.4
21
70.8339515
0
LINE
8
0
10
4.4
20
70.8339515
11
8.78615065
21
70.8339515
0
LINE
8
0
10
8.78615065
20
70.8339515
11
13
21
70.8339515
0
LINE
8
0
10
13
20
70.8339515
11
13.2472614
21
70.8381086
0
LINE
8
0
10
13.2472614
20
70.8381086
11
13.2969292
21
70.8390694
0
LINE
8
0
10
13.2969292
20
70.8390694
11
13.5638975
21
70.8090797
0
LINE
8
0
10
13.5638975
20
70.8090797
11
13.6131325
21
70.8021806
0
LINE
8
0
10
13.6131325
20
70.8021806
11
13.7119432
21
70.7787717
0
LINE
8
0
10
13.7119432
20
70.7787717
11
13.9717737
21
70.7178131
0
LINE
8
0
10
13.9717737
20
70.7178131
11
14.0375804
21
70.6962382
0
LINE
8
0
10
14.0375804
20
70.6962382
11
14.405477
21
70.5419227
0
LINE
8
0
10
14.405477
20
70.5419227
11
14.425004
21
70.5314993
0
LINE
8
0
10
14.425004
20
70.5314993
11
14.4460178
21
70.5168396
0
LINE
8
0
10
14.4460178
20
70.5168396
11
14.7001381
21
70.3449232
0
LINE
8
0
10
14.7001381
20
70.3449232
11
14.918486
21
70.1509043
0
LINE
8
0
10
14.918486
20
70.1509043
11
14.9383074
21
70.1340345
0
LINE
8
0
10
14.9383074
20
70.1340345
11
14.9682579
21
70.0996181
0
LINE
8
0
10
14.9682579
20
70.0996181
11
15.1108017
21
69.9041652
0
LINE
8
0
10
15.1108017
20
69.9041652
11
15.1624548
21
69.8088824
0
LINE
8
0
10
15.1624548
20
69.8088824
11
15.2323956
21
69.6611881
0
LINE
8
0
10
15.2323956
20
69.6611881
11
15.3416362
21
69.4436195
0
LINE
8
0
10
15.3416362
20
69.4436195
11
15.3502358
21
69.4210735
0
LINE
8
0
10
15.3502358
20
69.4210735
11
15.6920598
21
68.338423
0
LINE
8
0
10
15.6920598
20
68.338423
11
15.7252917
21
68.1767214
0
LINE
8
0
10
15.7252917
20
68.1767214
11
15.9193728
21
67.0727931
0
LINE
8
0
10
15.9193728
20
67.0727931
11
15.9327551
21
66.8876227
0
LINE
8
0
10
15.9327551
20
66.8876227
11
16
21
65.6940566
0
LINE
8
0
10
16
20
65.6940566
11
16
21
64.6059668
0
LINE
8
0
10
16
20
64.6059668
11
16
21
60.3439789
0
LINE
8
0
10
16
20
60.3439789
11
16
21
49.4200893
0
LINE
8
0
10
16
20
49.4200893
11
16
21
47.6132324
0
LINE
8
0
10
16
20
47.6132324
11
16
21
43.999522
0
LINE
8
0
10
16
20
43.999522
11
16
21
43.999522
0
ENDSEC
0
EOF
