0
SECTION
2
ENTITIES
0
LINE
8
0
10
16
20
34.9414825
11
16
21
34.3790178
0
LINE
8
0
10
16
20
34.3790178
11
16
21
28.0132822
0
LINE
8
0
10
16
20
28.0132822
11
16
21
23.9867155
0
LINE
8
0
10
16
20
23.9867155
11
9.67670957
21
23.9867155
0
LINE
8
0
10
9.67670957
20
23.9867155
11
2.4
21
23.9867155
0
LINE
8
0
10
2.4
20
23.9867155
11
2.4
21
26.1830267
0
LINE
8
0
10
2.4
20
26.1830267
11
2.4
21
28.0132822
0
LINE
8
0
10
2.4
20
28.0132822
11
2.4
21
30.5595764
0
LINE
8
0
10
2.4
20
30.5595764
11
2.4
21
34.3790178
0
LINE
8
0
10
2.4
20
34.3790178
11
2.4
21
34.6914982
0
LINE
8
0
10
2.4
20
34.6914982
11
2.4
21
34.9414825
0
LINE
8
0
10
2.4
20
34.9414825
11
3.28329043
21
34.9414825
0
LINE
8
0
10
3.28329043
20
34.9414825
11
16
21
34.9414825
0
LINE
8
0
10
16
20
34.9414825
11
16
21
34.9414825
0
LINE
8
0
10
16
20
66.0918364
11
16
21
65.1346685
0
LINE
8
0
10
16
20
65.1346685
11
16
21
61.3854943
0
LINE
8
0
10
16
20
61.3854943
11
16
21
49.4996455
0
LINE
8
0
10
16
20
49.4996455
11
16
21
47.5336764
0
LINE
8
0
10
16
20
47.5336764
11
16
21
43.6017422
0
LINE
8
0
10
16
20
43.6017422
11
16
21
43.0392775
0
LINE
8
0
10
16
20
43.0392775
11
15.1167096
21
43.0392775
0
LINE
8
0
10
15.1167096
20
43.0392775
11
2.4
21
43.0392775
0
LINE
8
0
10
2.4
20
43.0392775
11
2.4
21
43.3460764
0
LINE
8
0
10
2.4
20
43.3460764
11
2.4
21
43.6017422
0
LINE
8
0
10
2.4
20
43.6017422
11
2.4
21
47.5336764
0
LINE
8
0
10
2.4
20
47.5336764
11
2.4
21
49.4996455
0
LINE
8
0
10
2.4
20
49.4996455
11
2.4
21
51.9222857
0
LINE
8
0
10
2.4
20
51.9222857
11
2.4
21
67.5551581
0
LINE
8
0
10
2.4
20
67.5551581
11
2.4
21
68.0918348
0
LINE
8
0
10
2.4
20
68.0918348
11
2.40615728
21
68.1853733
0
LINE
8
0
10
2.40615728
20
68.1853733
11
2.468148
21
69.1271155
0
LINE
8
0
10
2.468148
20
69.1271155
11
2.47077985
21
69.1398233
0
LINE
8
0
10
2.47077985
20
69.1398233
11
2.50451699
21
69.302721
0
LINE
8
0
10
2.50451699
20
69.302721
11
2.52555531
21
69.396264
0
LINE
8
0
10
2.52555531
20
69.396264
11
2.56594369
21
69.5418079
0
LINE
8
0
10
2.56594369
20
69.5418079
11
2.673931
21
69.8400157
0
LINE
8
0
10
2.673931
20
69.8400157
11
2.95539534
21
70.2614408
0
LINE
8
0
10
2.95539534
20
70.2614408
11
2.992458
21
70.3169333
0
LINE
8
0
10
2.992458
20
70.3169333
11
3.04512643
21
70.3635128
0
LINE
8
0
10
3.04512643
20
70.3635128
11
3.42327759
21
70.6507277
0
LINE
8
0
10
3.42327759
20
70.6507277
11
3.62806408
21
70.7353693
0
LINE
8
0
10
3.62806408
20
70.7353693
11
3.91862726
21
70.8554625
0
LINE
8
0
10
3.91862726
20
70.8554625
11
4.38611697
21
70.9276253
0
LINE
8
0
10
4.38611697
20
70.9276253
11
4.4
21
70.9290791
0
LINE
8
0
10
4.4
20
70.9290791
11
12.8807317
21
70.9290791
0
LINE
8
0
10
12.8807317
20
70.9290791
11
13
21
70.9290791
0
LINE
8
0
10
13
20
70.9290791
11
13.0069985
21
70.9291968
0
LINE
8
0
10
13.0069985
20
70.9291968
11
13.0150656
21
70.9293528
0
LINE
8
0
10
13.0150656
20
70.9293528
11
13.2549286
21
70.9215292
0
LINE
8
0
10
13.2549286
20
70.9215292
11
13.4051712
21
70.9089978
0
LINE
8
0
10
13.4051712
20
70.9089978
11
13.5269614
21
70.8991738
0
LINE
8
0
10
13.5269614
20
70.8991738
11
13.684201
21
70.8776001
0
LINE
8
0
10
13.684201
20
70.8776001
11
13.8366413
21
70.8497909
0
LINE
8
0
10
13.8366413
20
70.8497909
11
14.0934881
21
70.7841624
0
LINE
8
0
10
14.0934881
20
70.7841624
11
14.2127875
21
70.7448818
0
LINE
8
0
10
14.2127875
20
70.7448818
11
14.4098661
21
70.6626451
0
LINE
8
0
10
14.4098661
20
70.6626451
11
14.7030727
21
70.5029981
0
LINE
8
0
10
14.7030727
20
70.5029981
11
14.7267839
21
70.487597
0
LINE
8
0
10
14.7267839
20
70.487597
11
14.7410283
21
70.4751884
0
LINE
8
0
10
14.7410283
20
70.4751884
11
14.9623201
21
70.2913329
0
LINE
8
0
10
14.9623201
20
70.2913329
11
15.0748458
21
70.1643468
0
LINE
8
0
10
15.0748458
20
70.1643468
11
15.1628659
21
70.07114
0
LINE
8
0
10
15.1628659
20
70.07114
11
15.3035161
21
69.8603579
0
LINE
8
0
10
15.3035161
20
69.8603579
11
15.3237868
21
69.8325633
0
LINE
8
0
10
15.3237868
20
69.8325633
11
15.3502777
21
69.7836964
0
LINE
8
0
10
15.3502777
20
69.7836964
11
15.4050211
21
69.6430823
0
LINE
8
0
10
15.4050211
20
69.6430823
11
15.4243938
21
69.5816318
0
LINE
8
0
10
15.4243938
20
69.5816318
11
15.6958574
21
68.7218323
0
LINE
8
0
10
15.6958574
20
68.7218323
11
15.7174581
21
68.6167262
0
LINE
8
0
10
15.7174581
20
68.6167262
11
15.9203534
21
67.4626628
0
LINE
8
0
10
15.9203534
20
67.4626628
11
15.9313087
21
67.3110745
0
LINE
8
0
10
15.9313087
20
67.3110745
11
16
21
66.0918364
0
LINE
8
0
10
16
20
66.0918364
11
16
21
66.0918364
0
LINE
8
0
10
16
20
-13.1475985
11
16
21
-14
0
LINE
8
0
10
16
20
-14
11
15.9869936
21
-14.2147704
0
LINE
8
0
10
15.9869936
20
-14.2147704
11
15.9748797
21
-14.2925149
0
LINE
8
0
10
15.9748797
20
-14.2925149
11
15.9418647
21
-14.4765601
0
LINE
8
0
10
15.9418647
20
-14.4765601
11
15.8229089
21
-14.8055912
0
LINE
8
0
10
15.8229089
20
-14.8055912
11
15.7775465
21
-14.9151057
0
LINE
8
0
10
15.7775465
20
-14.9151057
11
15.6068354
21
-15.1835325
0
LINE
8
0
10
15.6068354
20
-15.1835325
11
15.5275509
21
-15.2868563
0
LINE
8
0
10
15.5275509
20
-15.2868563
11
15.3327607
21
-15.4895412
0
LINE
8
0
10
15.3327607
20
-15.4895412
11
15.2200979
21
-15.5760317
0
LINE
8
0
10
15.2200979
20
-15.5760317
11
15.001184
21
-15.7310975
0
LINE
8
0
10
15.001184
20
-15.7310975
11
14.777692
21
-15.834828
0
LINE
8
0
10
14.777692
20
-15.834828
11
14.6228691
21
-15.8990003
0
LINE
8
0
10
14.6228691
20
-15.8990003
11
14.3961392
21
-15.9580637
0
LINE
8
0
10
14.3961392
20
-15.9580637
11
14.1885327
21
-15.9751787
0
LINE
8
0
10
14.1885327
20
-15.9751787
11
14
21
-16
0
LINE
8
0
10
14
20
-16
11
12.251763
21
-16
0
LINE
8
0
10
12.251763
20
-16
11
4.4
21
-16
0
LINE
8
0
10
4.4
20
-16
11
4.19934709
21
-15.9830136
0
LINE
8
0
10
4.19934709
20
-15.9830136
11
3.95894468
21
-15.9419325
0
LINE
8
0
10
3.95894468
20
-15.9419325
11
3.882362
21
-15.93185
0
LINE
8
0
10
3.882362
20
-15.93185
11
3.54386873
21
-15.7918312
0
LINE
8
0
10
3.54386873
20
-15.7918312
11
3.40138133
21
-15.7328509
0
LINE
8
0
10
3.40138133
20
-15.7328509
11
3.10858885
21
-15.5083956
0
LINE
8
0
10
3.10858885
20
-15.5083956
11
2.985786
21
-15.41421
0
LINE
8
0
10
2.985786
20
-15.41421
11
2.76199463
21
-15.1225617
0
LINE
8
0
10
2.76199463
20
-15.1225617
11
2.667949
21
-15
0
LINE
8
0
10
2.667949
20
-15
11
2.52726765
21
-14.6603668
0
LINE
8
0
10
2.52726765
20
-14.6603668
11
2.468148
21
-14.51764
0
LINE
8
0
10
2.468148
20
-14.51764
11
2.44415624
21
-14.3354029
0
LINE
8
0
10
2.44415624
20
-14.3354029
11
2.4
21
-14
0
LINE
8
0
10
2.4
20
-14
11
2.4
21
-13.9811836
0
LINE
8
0
10
2.4
20
-13.9811836
11
2.4
21
-8.78217078
0
LINE
8
0
10
2.4
20
-8.78217078
11
2.4
21
-8.52754257
0
LINE
8
0
10
2.4
20
-8.52754257
11
2.4
21
-8.1927938
0
LINE
8
0
10
2.4
20
-8.1927938
11
2.4
21
1.67407658
0
LINE
8
0
10
2.4
20
1.67407658
11
2.4
21
1.8405264
0
LINE
8
0
10
2.4
20
1.8405264
11
2.4
21
2.04212907
0
LINE
8
0
10
2.4
20
2.04212907
11
2.4
21
2.26073513
0
LINE
8
0
10
2.4
20
2.26073513
11
2.4
21
5.8889643
0
LINE
8
0
10
2.4
20
5.8889643
11
2.4
21
6.03814948
0
LINE
8
0
10
2.4
20
6.03814948
11
2.4
21
8.96742272
0
LINE
8
0
10
2.4
20
8.96742272
11
2.4
21
10.7017047
0
LINE
8
0
10
2.4
20
10.7017047
11
2.4
21
13.5854764
0
LINE
8
0
10
2.4
20
13.5854764
11
2.4
21
15.326462
0
LINE
8
0
10
2.4
20
15.326462
11
2.4
21
17.5634467
0
LINE
8
0
10
2.4
20
17.5634467
11
2.4
21
19.3530299
0
LINE
8
0
10
2.4
20
19.3530299
11
8.72329043
21
19.3530299
0
LINE
8
0
10
8.72329043
20
19.3530299
11
16
21
19.3530299
0
LINE
8
0
10
16
20
19.3530299
11
16
21
15.326462
0
LINE
8
0
10
16
20
15.326462
11
16
21
13.5854764
0
LINE
8
0
10
16
20
13.5854764
11
16
21
8.5342323
0
LINE
8
0
10
16
20
8.5342323
11
16
21
7.17384869
0
LINE
8
0
10
16
20
7.17384869
11
16
21
-9.03791778
0
LINE
8
0
10
16
20
-9.03791778
11
16
21
-11.8034536
0
LINE
8
0
10
16
20
-11.8034536
11
16
21
-11.9617828
0
LINE
8
0
10
16
20
-11.9617828
11
16
21
-12.1349173
0
LINE
8
0
10
16
20
-12.1349173
11
16
21
-12.3086881
0
LINE
8
0
10
16
20
-12.3086881
11
16
21
-12.4501341
0
LINE
8
0
10
16
20
-12.4501341
11
16
21
-12.5840278
0
LINE
8
0
10
16
20
-12.5840278
11
16
21
-12.7497353
0
LINE
8
0
10
16
20
-12.7497353
11
16
21
-12.8783136
0
LINE
8
0
10
16
20
-12.8783136
11
16
21
-13.0262028
0
LINE
8
0
10
16
20
-13.0262028
11
16
21
-13.1475985
0
LINE
8
0
10
16
20
-13.1475985
11
16
21
-13.1475985
0
ENDSEC
0
EOF
