0
SECTION
2
ENTITIES
0
LINE
8
0
10
16
20
-12.6102844
11
16
21
-12.4232763
0
LINE
8
0
10
16
20
-12.4232763
11
16
21
-12.2921368
0
LINE
8
0
10
16
20
-12.2921368
11
16
21
-12.1536005
0
LINE
8
0
10
16
20
-12.1536005
11
16
21
-11.9572078
0
LINE
8
0
10
16
20
-11.9572078
11
16
21
-11.7615343
0
LINE
8
0
10
16
20
-11.7615343
11
16
21
-11.5825935
0
LINE
8
0
10
16
20
-11.5825935
11
16
21
-8.45703409
0
LINE
8
0
10
16
20
-8.45703409
11
16
21
7.19589695
0
LINE
8
0
10
16
20
7.19589695
11
16
21
8.7333783
0
LINE
8
0
10
16
20
8.7333783
11
16
21
13.5059205
0
LINE
8
0
10
16
20
13.5059205
11
16
21
15.7242429
0
LINE
8
0
10
16
20
15.7242429
11
16
21
18.9552505
0
LINE
8
0
10
16
20
18.9552505
11
7.47394882
21
18.9552505
0
LINE
8
0
10
7.47394882
20
18.9552505
11
2.4
21
18.9552505
0
LINE
8
0
10
2.4
20
18.9552505
11
2.4
21
17.5192492
0
LINE
8
0
10
2.4
20
17.5192492
11
2.4
21
15.7242429
0
LINE
8
0
10
2.4
20
15.7242429
11
2.4
21
13.5059205
0
LINE
8
0
10
2.4
20
13.5059205
11
2.4
21
10.7812606
0
LINE
8
0
10
2.4
20
10.7812606
11
2.4
21
8.92764474
0
LINE
8
0
10
2.4
20
8.92764474
11
2.4
21
6.09934641
0
LINE
8
0
10
2.4
20
6.09934641
11
2.4
21
5.95530379
0
LINE
8
0
10
2.4
20
5.95530379
11
2.4
21
2.19965301
0
LINE
8
0
10
2.4
20
2.19965301
11
2.4
21
1.97336961
0
LINE
8
0
10
2.4
20
1.97336961
11
2.4
21
1.76468676
0
LINE
8
0
10
2.4
20
1.76468676
11
2.4
21
1.5923913
0
LINE
8
0
10
2.4
20
1.5923913
11
2.4
21
-8.10939203
0
LINE
8
0
10
2.4
20
-8.10939203
11
2.4
21
-8.44940131
0
LINE
8
0
10
2.4
20
-8.44940131
11
2.4
21
-8.69988916
0
LINE
8
0
10
2.4
20
-8.69988916
11
2.4
21
-13.9808869
0
LINE
8
0
10
2.4
20
-13.9808869
11
2.4
21
-14
0
LINE
8
0
10
2.4
20
-14
11
2.44485255
21
-14.3406919
0
LINE
8
0
10
2.44485255
20
-14.3406919
11
2.468148
21
-14.51764
0
LINE
8
0
10
2.468148
20
-14.51764
11
2.53135065
21
-14.670224
0
LINE
8
0
10
2.53135065
20
-14.670224
11
2.667949
21
-15
0
LINE
8
0
10
2.667949
20
-15
11
2.76848974
21
-15.1310262
0
LINE
8
0
10
2.76848974
20
-15.1310262
11
2.985786
21
-15.41421
0
LINE
8
0
10
2.985786
20
-15.41421
11
3.11707002
21
-15.5149004
0
LINE
8
0
10
3.11707002
20
-15.5149004
11
3.40136477
21
-15.7328413
0
LINE
8
0
10
3.40136477
20
-15.7328413
11
3.55369283
21
-15.795895
0
LINE
8
0
10
3.55369283
20
-15.795895
11
3.882362
21
-15.93185
0
LINE
8
0
10
3.882362
20
-15.93185
11
3.96423373
21
-15.9426289
0
LINE
8
0
10
3.96423373
20
-15.9426289
11
4.20175328
21
-15.9832173
0
LINE
8
0
10
4.20175328
20
-15.9832173
11
4.4
21
-16
0
LINE
8
0
10
4.4
20
-16
11
12.1576061
21
-16
0
LINE
8
0
10
12.1576061
20
-16
11
14
21
-16
0
LINE
8
0
10
14
20
-16
11
14.1986867
21
-15.9738419
0
LINE
8
0
10
14.1986867
20
-15.9738419
11
14.3998879
21
-15.9572549
0
LINE
8
0
10
14.3998879
20
-15.9572549
11
14.6196225
21
-15.9000138
0
LINE
8
0
10
14.6196225
20
-15.9000138
11
14.7845753
21
-15.8316428
0
LINE
8
0
10
14.7845753
20
-15.8316428
11
15.0011718
21
-15.7311127
0
LINE
8
0
10
15.0011718
20
-15.7311127
11
15.2133315
21
-15.5808312
0
LINE
8
0
10
15.2133315
20
-15.5808312
11
15.3352737
21
-15.4872169
0
LINE
8
0
10
15.3352737
20
-15.4872169
11
15.5240539
21
-15.2907856
0
LINE
8
0
10
15.5240539
20
-15.2907856
11
15.6106987
21
-15.1778699
0
LINE
8
0
10
15.6106987
20
-15.1778699
11
15.7761428
21
-14.9177249
0
LINE
8
0
10
15.7761428
20
-14.9177249
11
15.82627
21
-14.796707
0
LINE
8
0
10
15.82627
20
-14.796707
11
15.9415557
21
-14.4778276
0
LINE
8
0
10
15.9415557
20
-14.4778276
11
15.9735521
21
-14.2994608
0
LINE
8
0
10
15.9735521
20
-14.2994608
11
15.9871495
21
-14.2121949
0
LINE
8
0
10
15.9871495
20
-14.2121949
11
16
21
-14
0
LINE
8
0
10
16
20
-14
11
16
21
-13.0397198
0
LINE
8
0
10
16
20
-13.0397198
11
16
21
-12.9029604
0
LINE
8
0
10
16
20
-12.9029604
11
16
21
-12.7363546
0
LINE
8
0
10
16
20
-12.7363546
11
16
21
-12.6102844
0
LINE
8
0
10
16
20
-12.6102844
11
16
21
-12.6102844
0
LINE
8
0
10
16
20
24.3844957
11
16
21
27.6155024
0
LINE
8
0
10
16
20
27.6155024
11
16
21
34.077512
0
LINE
8
0
10
16
20
34.077512
11
16
21
34.5437024
0
LINE
8
0
10
16
20
34.5437024
11
16
21
34.7767977
0
LINE
8
0
10
16
20
34.7767977
11
15.6339488
21
34.7767977
0
LINE
8
0
10
15.6339488
20
34.7767977
11
2.4
21
34.7767977
0
LINE
8
0
10
2.4
20
34.7767977
11
2.4
21
34.6496548
0
LINE
8
0
10
2.4
20
34.6496548
11
2.4
21
34.5437024
0
LINE
8
0
10
2.4
20
34.5437024
11
2.4
21
30.4800205
0
LINE
8
0
10
2.4
20
30.4800205
11
2.4
21
27.6155024
0
LINE
8
0
10
2.4
20
27.6155024
11
2.4
21
26.1468647
0
LINE
8
0
10
2.4
20
26.1468647
11
2.4
21
24.3844957
0
LINE
8
0
10
2.4
20
24.3844957
11
10.9260512
21
24.3844957
0
LINE
8
0
10
10.9260512
20
24.3844957
11
16
21
24.3844957
0
LINE
8
0
10
16
20
24.3844957
11
16
21
24.3844957
0
LINE
8
0
10
16
20
66.4896163
11
16
21
65.6633702
0
LINE
8
0
10
16
20
65.6633702
11
16
21
62.4270096
0
LINE
8
0
10
16
20
62.4270096
11
16
21
49.5792016
0
LINE
8
0
10
16
20
49.5792016
11
16
21
47.4541205
0
LINE
8
0
10
16
20
47.4541205
11
16
21
43.4370576
0
LINE
8
0
10
16
20
43.4370576
11
16
21
43.2039623
0
LINE
8
0
10
16
20
43.2039623
11
2.76605118
21
43.2039623
0
LINE
8
0
10
2.76605118
20
43.2039623
11
2.4
21
43.2039623
0
LINE
8
0
10
2.4
20
43.2039623
11
2.4
21
43.3075602
0
LINE
8
0
10
2.4
20
43.3075602
11
2.4
21
43.4370576
0
LINE
8
0
10
2.4
20
43.4370576
11
2.4
21
47.4541205
0
LINE
8
0
10
2.4
20
47.4541205
11
2.4
21
49.5792016
0
LINE
8
0
10
2.4
20
49.5792016
11
2.4
21
51.8825077
0
LINE
8
0
10
2.4
20
51.8825077
11
2.4
21
68.1880044
0
LINE
8
0
10
2.4
20
68.1880044
11
2.4
21
68.4896147
0
LINE
8
0
10
2.4
20
68.4896147
11
2.40346037
21
68.542183
0
LINE
8
0
10
2.40346037
20
68.542183
11
2.44479523
21
69.1701283
0
LINE
8
0
10
2.44479523
20
69.1701283
11
2.45403205
21
69.264863
0
LINE
8
0
10
2.45403205
20
69.264863
11
2.473032
21
69.4178242
0
LINE
8
0
10
2.473032
20
69.4178242
11
2.65059022
21
69.9081523
0
LINE
8
0
10
2.65059022
20
69.9081523
11
2.67347772
21
69.9617925
0
LINE
8
0
10
2.67347772
20
69.9617925
11
2.6975613
21
69.9931786
0
LINE
8
0
10
2.6975613
20
69.9931786
11
2.98967885
21
70.3639507
0
LINE
8
0
10
2.98967885
20
70.3639507
11
3.0184489
21
70.3975434
0
LINE
8
0
10
3.0184489
20
70.3975434
11
3.33181281
21
70.6355505
0
LINE
8
0
10
3.33181281
20
70.6355505
11
3.45165216
21
70.7265714
0
LINE
8
0
10
3.45165216
20
70.7265714
11
3.77800937
21
70.8614602
0
LINE
8
0
10
3.77800937
20
70.8614602
11
3.93448602
21
70.9193212
0
LINE
8
0
10
3.93448602
20
70.9193212
11
3.99860218
21
70.9277625
0
LINE
8
0
10
3.99860218
20
70.9277625
11
4.4
21
70.961205
0
LINE
8
0
10
4.4
20
70.961205
11
8.10437341
21
70.961205
0
LINE
8
0
10
8.10437341
20
70.961205
11
13
21
70.961205
0
LINE
8
0
10
13
20
70.961205
11
13.1992246
21
70.974741
0
LINE
8
0
10
13.1992246
20
70.974741
11
13.2129282
21
70.9745935
0
LINE
8
0
10
13.2129282
20
70.9745935
11
13.2384106
21
70.973167
0
LINE
8
0
10
13.2384106
20
70.973167
11
13.4407867
21
70.9622837
0
LINE
8
0
10
13.4407867
20
70.9622837
11
13.6456537
21
70.9434547
0
LINE
8
0
10
13.6456537
20
70.9434547
11
13.7015074
21
70.9384504
0
LINE
8
0
10
13.7015074
20
70.9384504
11
13.7440889
21
70.9330689
0
LINE
8
0
10
13.7440889
20
70.9330689
11
14.0201078
21
70.8812044
0
LINE
8
0
10
14.0201078
20
70.8812044
11
14.1060281
21
70.8606574
0
LINE
8
0
10
14.1060281
20
70.8606574
11
14.3613599
21
70.7768775
0
LINE
8
0
10
14.3613599
20
70.7768775
11
14.4162773
21
70.759078
0
LINE
8
0
10
14.4162773
20
70.759078
11
14.4378768
21
70.7499037
0
LINE
8
0
10
14.4378768
20
70.7499037
11
14.6775899
21
70.6289256
0
LINE
8
0
10
14.6775899
20
70.6289256
11
14.8956994
21
70.4822927
0
LINE
8
0
10
14.8956994
20
70.4822927
11
14.9552649
21
70.4436033
0
LINE
8
0
10
14.9552649
20
70.4436033
11
15.0339516
21
70.3750578
0
LINE
8
0
10
15.0339516
20
70.3750578
11
15.1730169
21
70.2377084
0
LINE
8
0
10
15.1730169
20
70.2377084
11
15.2103066
21
70.185772
0
LINE
8
0
10
15.2103066
20
70.185772
11
15.3489606
21
70.0082501
0
LINE
8
0
10
15.3489606
20
70.0082501
11
15.4079936
21
69.8950764
0
LINE
8
0
10
15.4079936
20
69.8950764
11
15.4867696
21
69.7609756
0
LINE
8
0
10
15.4867696
20
69.7609756
11
15.5181699
21
69.6803207
0
LINE
8
0
10
15.5181699
20
69.6803207
11
15.5743637
21
69.5020734
0
LINE
8
0
10
15.5743637
20
69.5020734
11
15.6996549
21
69.1052416
0
LINE
8
0
10
15.6996549
20
69.1052416
11
15.7096245
21
69.0567309
0
LINE
8
0
10
15.7096245
20
69.0567309
11
15.9213341
21
67.8525324
0
LINE
8
0
10
15.9213341
20
67.8525324
11
15.9298624
21
67.7345262
0
LINE
8
0
10
15.9298624
20
67.7345262
11
16
21
66.4896163
0
LINE
8
0
10
16
20
66.4896163
11
16
21
66.4896163
0
ENDSEC
0
EOF
