0
SECTION
2
ENTITIES
0
LINE
8
0
10
16
20
18.5574712
11
16
21
16.1220239
0
LINE
8
0
10
16
20
16.1220239
11
16
21
13.4263645
0
LINE
8
0
10
16
20
13.4263645
11
16
21
8.93252431
0
LINE
8
0
10
16
20
8.93252431
11
16
21
7.21794522
0
LINE
8
0
10
16
20
7.21794522
11
16
21
-7.8761504
0
LINE
8
0
10
16
20
-7.8761504
11
16
21
-11.3617333
0
LINE
8
0
10
16
20
-11.3617333
11
16
21
-11.5612858
0
LINE
8
0
10
16
20
-11.5612858
11
16
21
-11.7794984
0
LINE
8
0
10
16
20
-11.7794984
11
16
21
-11.9985129
0
LINE
8
0
10
16
20
-11.9985129
11
16
21
-12.1341395
0
LINE
8
0
10
16
20
-12.1341395
11
16
21
-12.2625247
0
LINE
8
0
10
16
20
-12.2625247
11
16
21
-12.4708334
0
LINE
8
0
10
16
20
-12.4708334
11
16
21
-12.5943955
0
LINE
8
0
10
16
20
-12.5943955
11
16
21
-12.779718
0
LINE
8
0
10
16
20
-12.779718
11
16
21
-12.931841
0
LINE
8
0
10
16
20
-12.931841
11
16
21
-14
0
LINE
8
0
10
16
20
-14
11
15.9873055
21
-14.2096194
0
LINE
8
0
10
15.9873055
20
-14.2096194
11
15.9722245
21
-14.3064066
0
LINE
8
0
10
15.9722245
20
-14.3064066
11
15.9412467
21
-14.479095
0
LINE
8
0
10
15.9412467
20
-14.479095
11
15.8296312
21
-14.7878228
0
LINE
8
0
10
15.8296312
20
-14.7878228
11
15.7747391
21
-14.9203442
0
LINE
8
0
10
15.7747391
20
-14.9203442
11
15.614562
21
-15.1722073
0
LINE
8
0
10
15.614562
20
-15.1722073
11
15.520557
21
-15.2947149
0
LINE
8
0
10
15.520557
20
-15.2947149
11
15.3377866
21
-15.4848927
0
LINE
8
0
10
15.3377866
20
-15.4848927
11
15.2065652
21
-15.5856307
0
LINE
8
0
10
15.2065652
20
-15.5856307
11
15.0011597
21
-15.7311279
0
LINE
8
0
10
15.0011597
20
-15.7311279
11
14.7914586
21
-15.8284576
0
LINE
8
0
10
14.7914586
20
-15.8284576
11
14.6163758
21
-15.9010273
0
LINE
8
0
10
14.6163758
20
-15.9010273
11
14.4036366
21
-15.9564461
0
LINE
8
0
10
14.4036366
20
-15.9564461
11
14.2088408
21
-15.972505
0
LINE
8
0
10
14.2088408
20
-15.972505
11
14
21
-16
0
LINE
8
0
10
14
20
-16
11
12.0634492
21
-16
0
LINE
8
0
10
12.0634492
20
-16
11
4.4
21
-16
0
LINE
8
0
10
4.4
20
-16
11
4.20415947
21
-15.983421
0
LINE
8
0
10
4.20415947
20
-15.983421
11
3.96952278
21
-15.9433252
0
LINE
8
0
10
3.96952278
20
-15.9433252
11
3.882362
21
-15.93185
0
LINE
8
0
10
3.882362
20
-15.93185
11
3.56351693
21
-15.7999588
0
LINE
8
0
10
3.56351693
20
-15.7999588
11
3.40134822
21
-15.7328317
0
LINE
8
0
10
3.40134822
20
-15.7328317
11
3.1255512
21
-15.5214051
0
LINE
8
0
10
3.1255512
20
-15.5214051
11
2.985786
21
-15.41421
0
LINE
8
0
10
2.985786
20
-15.41421
11
2.77498484
21
-15.1394907
0
LINE
8
0
10
2.77498484
20
-15.1394907
11
2.667949
21
-15
0
LINE
8
0
10
2.667949
20
-15
11
2.53543365
21
-14.6800812
0
LINE
8
0
10
2.53543365
20
-14.6800812
11
2.468148
21
-14.51764
0
LINE
8
0
10
2.468148
20
-14.51764
11
2.44554886
21
-14.345981
0
LINE
8
0
10
2.44554886
20
-14.345981
11
2.4
21
-14
0
LINE
8
0
10
2.4
20
-14
11
2.4
21
-13.9805902
0
LINE
8
0
10
2.4
20
-13.9805902
11
2.4
21
-8.61760755
0
LINE
8
0
10
2.4
20
-8.61760755
11
2.4
21
-8.37126005
0
LINE
8
0
10
2.4
20
-8.37126005
11
2.4
21
-8.02599025
0
LINE
8
0
10
2.4
20
-8.02599025
11
2.4
21
1.51070603
0
LINE
8
0
10
2.4
20
1.51070603
11
2.4
21
1.68884712
0
LINE
8
0
10
2.4
20
1.68884712
11
2.4
21
1.90461016
0
LINE
8
0
10
2.4
20
1.90461016
11
2.4
21
2.13857089
0
LINE
8
0
10
2.4
20
2.13857089
11
2.4
21
6.02164328
0
LINE
8
0
10
2.4
20
6.02164328
11
2.4
21
6.16054334
0
LINE
8
0
10
2.4
20
6.16054334
11
2.4
21
8.88786676
0
LINE
8
0
10
2.4
20
8.88786676
11
2.4
21
10.8608165
0
LINE
8
0
10
2.4
20
10.8608165
11
2.4
21
13.4263645
0
LINE
8
0
10
2.4
20
13.4263645
11
2.4
21
16.1220239
0
LINE
8
0
10
2.4
20
16.1220239
11
2.4
21
17.4750517
0
LINE
8
0
10
2.4
20
17.4750517
11
2.4
21
18.5574712
0
LINE
8
0
10
2.4
20
18.5574712
11
6.2246072
21
18.5574712
0
LINE
8
0
10
6.2246072
20
18.5574712
11
16
21
18.5574712
0
LINE
8
0
10
16
20
18.5574712
11
16
21
18.5574712
0
LINE
8
0
10
16
20
35.174578
11
16
21
34.1459226
0
LINE
8
0
10
16
20
34.1459226
11
16
21
32.088613
0
LINE
8
0
10
16
20
32.088613
11
16
21
27.2177226
0
LINE
8
0
10
16
20
27.2177226
11
16
21
24.782276
0
LINE
8
0
10
16
20
24.782276
11
12.1753928
21
24.782276
0
LINE
8
0
10
12.1753928
20
24.782276
11
2.4
21
24.782276
0
LINE
8
0
10
2.4
20
24.782276
11
2.4
21
26.1107027
0
LINE
8
0
10
2.4
20
26.1107027
11
2.4
21
27.2177226
0
LINE
8
0
10
2.4
20
27.2177226
11
2.4
21
30.4004645
0
LINE
8
0
10
2.4
20
30.4004645
11
2.4
21
34.1459226
0
LINE
8
0
10
2.4
20
34.1459226
11
2.4
21
34.6134932
0
LINE
8
0
10
2.4
20
34.6134932
11
2.4
21
35.174578
0
LINE
8
0
10
2.4
20
35.174578
11
14.3846072
21
35.174578
0
LINE
8
0
10
14.3846072
20
35.174578
11
16
21
35.174578
0
LINE
8
0
10
16
20
35.174578
11
16
21
35.174578
0
LINE
8
0
10
16
20
42.806182
11
16
21
43.8348374
0
LINE
8
0
10
16
20
43.8348374
11
16
21
47.3745645
0
LINE
8
0
10
16
20
47.3745645
11
16
21
49.6587577
0
LINE
8
0
10
16
20
49.6587577
11
16
21
63.468525
0
LINE
8
0
10
16
20
63.468525
11
16
21
66.1920719
0
LINE
8
0
10
16
20
66.1920719
11
16
21
66.8873962
0
LINE
8
0
10
16
20
66.8873962
11
15.928416
21
68.1579779
0
LINE
8
0
10
15.928416
20
68.1579779
11
15.9223147
21
68.242402
0
LINE
8
0
10
15.9223147
20
68.242402
11
15.7148396
21
69.4225156
0
LINE
8
0
10
15.7148396
20
69.4225156
11
15.7107313
21
69.4467567
0
LINE
8
0
10
15.7107313
20
69.4467567
11
15.6301095
21
69.6893975
0
LINE
8
0
10
15.6301095
20
69.6893975
11
15.5133716
21
69.9341758
0
LINE
8
0
10
15.5133716
20
69.9341758
11
15.5087965
21
69.9453667
0
LINE
8
0
10
15.5087965
20
69.9453667
11
15.4673456
21
70.0084335
0
LINE
8
0
10
15.4673456
20
70.0084335
11
15.3412456
21
70.184063
0
LINE
8
0
10
15.3412456
20
70.184063
11
15.3046829
21
70.2201746
0
LINE
8
0
10
15.3046829
20
70.2201746
11
15.1341761
21
70.3995502
0
LINE
8
0
10
15.1341761
20
70.3995502
11
14.9970366
21
70.5042031
0
LINE
8
0
10
14.9970366
20
70.5042031
11
14.8835125
21
70.5950904
0
LINE
8
0
10
14.8835125
20
70.5950904
11
14.6689358
21
70.721381
0
LINE
8
0
10
14.6689358
20
70.721381
11
14.6450012
21
70.7338328
0
LINE
8
0
10
14.6450012
20
70.7338328
11
14.6203001
21
70.7434754
0
LINE
8
0
10
14.6203001
20
70.7434754
11
14.3701558
21
70.8435327
0
LINE
8
0
10
14.3701558
20
70.8435327
11
14.1727051
21
70.9002209
0
LINE
8
0
10
14.1727051
20
70.9002209
11
14.0773993
21
70.9231754
0
LINE
8
0
10
14.0773993
20
70.9231754
11
13.8274195
21
70.9630526
0
LINE
8
0
10
13.8274195
20
70.9630526
11
13.7457061
21
70.9732595
0
LINE
8
0
10
13.7457061
20
70.9732595
11
13.6003198
21
70.98079
0
LINE
8
0
10
13.6003198
20
70.98079
11
13.5337443
21
70.9835382
0
LINE
8
0
10
13.5337443
20
70.9835382
11
13.3990496
21
70.9886118
0
LINE
8
0
10
13.3990496
20
70.9886118
11
13.2715259
21
70.9918186
0
LINE
8
0
10
13.2715259
20
70.9918186
11
13.1995368
21
70.9934603
0
LINE
8
0
10
13.1995368
20
70.9934603
11
13.0485624
21
70.9947402
0
LINE
8
0
10
13.0485624
20
70.9947402
11
13
21
70.9914407
0
LINE
8
0
10
13
20
70.9914407
11
11.9198863
21
70.9914407
0
LINE
8
0
10
11.9198863
20
70.9914407
11
4.4
21
70.9914407
0
LINE
8
0
10
4.4
20
70.9914407
11
4.31144029
21
70.9840624
0
LINE
8
0
10
4.31144029
20
70.9840624
11
3.89386203
21
70.9290858
0
LINE
8
0
10
3.89386203
20
70.9290858
11
3.75466415
21
70.877614
0
LINE
8
0
10
3.75466415
20
70.877614
11
3.41869232
21
70.7384505
0
LINE
8
0
10
3.41869232
20
70.7384505
11
3.10247189
21
70.5116305
0
LINE
8
0
10
3.10247189
20
70.5116305
11
3.03568674
21
70.4603841
0
LINE
8
0
10
3.03568674
20
70.4603841
11
2.98664487
21
70.4031214
0
LINE
8
0
10
2.98664487
20
70.4031214
11
2.92219548
21
70.3213186
0
LINE
8
0
10
2.92219548
20
70.3213186
11
2.66916879
21
69.9915703
0
LINE
8
0
10
2.66916879
20
69.9915703
11
2.5536727
21
69.7208888
0
LINE
8
0
10
2.5536727
20
69.7208888
11
2.4710114
21
69.5213277
0
LINE
8
0
10
2.4710114
20
69.5213277
11
2.44281734
21
69.3071707
0
LINE
8
0
10
2.44281734
20
69.3071707
11
2.411921
21
69.0584363
0
LINE
8
0
10
2.411921
20
69.0584363
11
2.40988309
21
69.0375351
0
LINE
8
0
10
2.40988309
20
69.0375351
11
2.40076346
21
68.8989926
0
LINE
8
0
10
2.40076346
20
68.8989926
11
2.4
21
68.8873946
0
LINE
8
0
10
2.4
20
68.8873946
11
2.4
21
68.8208508
0
LINE
8
0
10
2.4
20
68.8208508
11
2.4
21
51.8427298
0
LINE
8
0
10
2.4
20
51.8427298
11
2.4
21
49.6587577
0
LINE
8
0
10
2.4
20
49.6587577
11
2.4
21
47.3745645
0
LINE
8
0
10
2.4
20
47.3745645
11
2.4
21
43.8348374
0
LINE
8
0
10
2.4
20
43.8348374
11
2.4
21
43.2633622
0
LINE
8
0
10
2.4
20
43.2633622
11
2.4
21
42.806182
0
LINE
8
0
10
2.4
20
42.806182
11
4.0153928
21
42.806182
0
LINE
8
0
10
4.0153928
20
42.806182
11
16
21
42.806182
0
LINE
8
0
10
16
20
42.806182
11
16
21
42.806182
0
ENDSEC
0
EOF
