0
SECTION
2
ENTITIES
0
LINE
8
0
10
16
20
49.7383138
11
16
21
64.5100404
0
LINE
8
0
10
16
20
64.5100404
11
16
21
66.7207736
0
LINE
8
0
10
16
20
66.7207736
11
16
21
67.285176
0
LINE
8
0
10
16
20
67.285176
11
15.9269697
21
68.5814296
0
LINE
8
0
10
15.9269697
20
68.5814296
11
15.9232953
21
68.6322716
0
LINE
8
0
10
15.9232953
20
68.6322716
11
15.7983493
21
69.3429617
0
LINE
8
0
10
15.7983493
20
69.3429617
11
15.7654823
21
69.5368969
0
LINE
8
0
10
15.7654823
20
69.5368969
11
15.7385873
21
69.6178406
0
LINE
8
0
10
15.7385873
20
69.6178406
11
15.6996441
21
69.6994974
0
LINE
8
0
10
15.6996441
20
69.6994974
11
15.6248225
21
69.882516
0
LINE
8
0
10
15.6248225
20
69.882516
11
15.5567419
21
69.9860995
0
LINE
8
0
10
15.5567419
20
69.9860995
11
15.4713724
21
70.1304312
0
LINE
8
0
10
15.4713724
20
70.1304312
11
15.356327
21
70.2625521
0
LINE
8
0
10
15.356327
20
70.2625521
11
15.2815169
21
70.3554664
0
LINE
8
0
10
15.2815169
20
70.3554664
11
15.0804127
21
70.5313526
0
LINE
8
0
10
15.0804127
20
70.5313526
11
15.0483271
21
70.5611635
0
LINE
8
0
10
15.0483271
20
70.5611635
11
14.9468748
21
70.628989
0
LINE
8
0
10
14.9468748
20
70.628989
11
14.8174027
21
70.7084329
0
LINE
8
0
10
14.8174027
20
70.7084329
11
14.7477895
21
70.7399607
0
LINE
8
0
10
14.7477895
20
70.7399607
11
14.5638487
21
70.8262394
0
LINE
8
0
10
14.5638487
20
70.8262394
11
14.3039057
21
70.9124886
0
LINE
8
0
10
14.3039057
20
70.9124886
11
14.3016842
21
70.9131387
0
LINE
8
0
10
14.3016842
20
70.9131387
11
14.2969316
21
70.9140466
0
LINE
8
0
10
14.2969316
20
70.9140466
11
14.0132621
21
70.969006
0
LINE
8
0
10
14.0132621
20
70.969006
11
13.9075099
21
70.9769358
0
LINE
8
0
10
13.9075099
20
70.9769358
11
13.7504247
21
70.9871651
0
LINE
8
0
10
13.7504247
20
70.9871651
11
13.5878561
21
70.9963787
0
LINE
8
0
10
13.5878561
20
70.9963787
11
13.5607333
21
70.9977835
0
LINE
8
0
10
13.5607333
20
70.9977835
11
13.5070383
21
71
0
LINE
8
0
10
13.5070383
20
71
11
13.4270954
21
71
0
LINE
8
0
10
13.4270954
20
71
11
13.2963438
21
71
0
LINE
8
0
10
13.2963438
20
71
11
13.1425873
21
71
0
LINE
8
0
10
13.1425873
20
71
11
13.0104048
21
71
0
LINE
8
0
10
13.0104048
20
71
11
12.9105189
21
71
0
LINE
8
0
10
12.9105189
20
71
11
4.4
21
71
0
LINE
8
0
10
4.4
20
71
11
4.38922819
21
70.9985818
0
LINE
8
0
10
4.38922819
20
70.9985818
11
3.882362
21
70.93185
0
LINE
8
0
10
3.882362
20
70.93185
11
3.87232426
21
70.9276923
0
LINE
8
0
10
3.87232426
20
70.9276923
11
3.4
21
70.73205
0
LINE
8
0
10
3.4
20
70.73205
11
3.39138039
21
70.7254359
0
LINE
8
0
10
3.39138039
20
70.7254359
11
2.985786
21
70.41421
0
LINE
8
0
10
2.985786
20
70.41421
11
2.97917195
21
70.4055905
0
LINE
8
0
10
2.97917195
20
70.4055905
11
2.667949
21
70
0
LINE
8
0
10
2.667949
20
70
11
2.66379123
21
69.9899623
0
LINE
8
0
10
2.66379123
20
69.9899623
11
2.468148
21
69.51764
0
LINE
8
0
10
2.468148
20
69.51764
11
2.40141813
21
69.0107719
0
LINE
8
0
10
2.40141813
20
69.0107719
11
2.4
21
69
0
LINE
8
0
10
2.4
20
69
11
2.4
21
68.8975254
0
LINE
8
0
10
2.4
20
68.8975254
11
2.4
21
68.8888104
0
LINE
8
0
10
2.4
20
68.8888104
11
2.4
21
68.8790029
0
LINE
8
0
10
2.4
20
68.8790029
11
2.4
21
68.869001
0
LINE
8
0
10
2.4
20
68.869001
11
2.4
21
68.2883759
0
LINE
8
0
10
2.4
20
68.2883759
11
2.4
21
51.8029518
0
LINE
8
0
10
2.4
20
51.8029518
11
2.4
21
49.7383138
0
LINE
8
0
10
2.4
20
49.7383138
11
2.4
21
47.2950086
0
LINE
8
0
10
2.4
20
47.2950086
11
2.4
21
44.2326172
0
LINE
8
0
10
2.4
20
44.2326172
11
2.4
21
43.2191642
0
LINE
8
0
10
2.4
20
43.2191642
11
2.4
21
42.4084017
0
LINE
8
0
10
2.4
20
42.4084017
11
5.26473441
21
42.4084017
0
LINE
8
0
10
5.26473441
20
42.4084017
11
16
21
42.4084017
0
LINE
8
0
10
16
20
42.4084017
11
16
21
44.2326172
0
LINE
8
0
10
16
20
44.2326172
11
16
21
47.2950086
0
LINE
8
0
10
16
20
47.2950086
11
16
21
49.7383138
0
LINE
8
0
10
16
20
49.7383138
11
16
21
49.7383138
0
LINE
8
0
10
16
20
16.5198048
11
16
21
13.3468086
0
LINE
8
0
10
16
20
13.3468086
11
16
21
9.13167031
0
LINE
8
0
10
16
20
9.13167031
11
16
21
7.23999349
0
LINE
8
0
10
16
20
7.23999349
11
16
21
-7.29526671
0
LINE
8
0
10
16
20
-7.29526671
11
16
21
-11.1408732
0
LINE
8
0
10
16
20
-11.1408732
11
16
21
-11.3610373
0
LINE
8
0
10
16
20
-11.3610373
11
16
21
-11.6017889
0
LINE
8
0
10
16
20
-11.6017889
11
16
21
-11.8434252
0
LINE
8
0
10
16
20
-11.8434252
11
16
21
-11.9761422
0
LINE
8
0
10
16
20
-11.9761422
11
16
21
-12.1017731
0
LINE
8
0
10
16
20
-12.1017731
11
16
21
-12.3313824
0
LINE
8
0
10
16
20
-12.3313824
11
16
21
-12.4524364
0
LINE
8
0
10
16
20
-12.4524364
11
16
21
-12.6564756
0
LINE
8
0
10
16
20
-12.6564756
11
16
21
-12.8239622
0
LINE
8
0
10
16
20
-12.8239622
11
16
21
-14
0
LINE
8
0
10
16
20
-14
11
15.9874615
21
-14.2070439
0
LINE
8
0
10
15.9874615
20
-14.2070439
11
15.9708969
21
-14.3133524
0
LINE
8
0
10
15.9708969
20
-14.3133524
11
15.9409377
21
-14.4803625
0
LINE
8
0
10
15.9409377
20
-14.4803625
11
15.8329924
21
-14.7789385
0
LINE
8
0
10
15.8329924
20
-14.7789385
11
15.7733353
21
-14.9229635
0
LINE
8
0
10
15.7733353
20
-14.9229635
11
15.6184252
21
-15.1665448
0
LINE
8
0
10
15.6184252
20
-15.1665448
11
15.5170601
21
-15.2986442
0
LINE
8
0
10
15.5170601
20
-15.2986442
11
15.3402996
21
-15.4825685
0
LINE
8
0
10
15.3402996
20
-15.4825685
11
15.1997988
21
-15.5904301
0
LINE
8
0
10
15.1997988
20
-15.5904301
11
15.0011475
21
-15.7311431
0
LINE
8
0
10
15.0011475
20
-15.7311431
11
14.7983419
21
-15.8252723
0
LINE
8
0
10
14.7983419
20
-15.8252723
11
14.6131291
21
-15.9020409
0
LINE
8
0
10
14.6131291
20
-15.9020409
11
14.4073853
21
-15.9556373
0
LINE
8
0
10
14.4073853
20
-15.9556373
11
14.2189948
21
-15.9711682
0
LINE
8
0
10
14.2189948
20
-15.9711682
11
14
21
-16
0
LINE
8
0
10
14
20
-16
11
11.9692923
21
-16
0
LINE
8
0
10
11.9692923
20
-16
11
4.4
21
-16
0
LINE
8
0
10
4.4
20
-16
11
4.20656567
21
-15.9836247
0
LINE
8
0
10
4.20656567
20
-15.9836247
11
3.97481184
21
-15.9440215
0
LINE
8
0
10
3.97481184
20
-15.9440215
11
3.882362
21
-15.93185
0
LINE
8
0
10
3.882362
20
-15.93185
11
3.57334104
21
-15.8040225
0
LINE
8
0
10
3.57334104
20
-15.8040225
11
3.40133167
21
-15.7328221
0
LINE
8
0
10
3.40133167
20
-15.7328221
11
3.13403237
21
-15.5279099
0
LINE
8
0
10
3.13403237
20
-15.5279099
11
2.985786
21
-15.41421
0
LINE
8
0
10
2.985786
20
-15.41421
11
2.78147995
21
-15.1479553
0
LINE
8
0
10
2.78147995
20
-15.1479553
11
2.667949
21
-15
0
LINE
8
0
10
2.667949
20
-15
11
2.53951665
21
-14.6899383
0
LINE
8
0
10
2.53951665
20
-14.6899383
11
2.468148
21
-14.51764
0
LINE
8
0
10
2.468148
20
-14.51764
11
2.44624518
21
-14.3512701
0
LINE
8
0
10
2.44624518
20
-14.3512701
11
2.4
21
-14
0
LINE
8
0
10
2.4
20
-14
11
2.4
21
-13.9802935
0
LINE
8
0
10
2.4
20
-13.9802935
11
2.4
21
-8.53532593
0
LINE
8
0
10
2.4
20
-8.53532593
11
2.4
21
-8.29311879
0
LINE
8
0
10
2.4
20
-8.29311879
11
2.4
21
-7.94258848
0
LINE
8
0
10
2.4
20
-7.94258848
11
2.4
21
1.42902076
0
LINE
8
0
10
2.4
20
1.42902076
11
2.4
21
1.61300748
0
LINE
8
0
10
2.4
20
1.61300748
11
2.4
21
1.83585071
0
LINE
8
0
10
2.4
20
1.83585071
11
2.4
21
2.07748878
0
LINE
8
0
10
2.4
20
2.07748878
11
2.4
21
6.08798277
0
LINE
8
0
10
2.4
20
6.08798277
11
2.4
21
6.22174027
0
LINE
8
0
10
2.4
20
6.22174027
11
2.4
21
8.84808878
0
LINE
8
0
10
2.4
20
8.84808878
11
2.4
21
10.9403724
0
LINE
8
0
10
2.4
20
10.9403724
11
2.4
21
13.3468086
0
LINE
8
0
10
2.4
20
13.3468086
11
2.4
21
16.5198048
0
LINE
8
0
10
2.4
20
16.5198048
11
2.4
21
17.4308542
0
LINE
8
0
10
2.4
20
17.4308542
11
2.4
21
18.1596918
0
LINE
8
0
10
2.4
20
18.1596918
11
4.97526559
21
18.1596918
0
LINE
8
0
10
4.97526559
20
18.1596918
11
16
21
18.1596918
0
LINE
8
0
10
16
20
18.1596918
11
16
21
16.5198048
0
LINE
8
0
10
16
20
16.5198048
11
16
21
16.5198048
0
LINE
8
0
10
16
20
35.5723583
11
16
21
33.7481428
0
LINE
8
0
10
16
20
33.7481428
11
16
21
30.0997139
0
LINE
8
0
10
16
20
30.0997139
11
16
21
26.8199428
0
LINE
8
0
10
16
20
26.8199428
11
16
21
25.1800563
0
LINE
8
0
10
16
20
25.1800563
11
13.4247344
21
25.1800563
0
LINE
8
0
10
13.4247344
20
25.1800563
11
2.4
21
25.1800563
0
LINE
8
0
10
2.4
20
25.1800563
11
2.4
21
26.0745407
0
LINE
8
0
10
2.4
20
26.0745407
11
2.4
21
26.8199428
0
LINE
8
0
10
2.4
20
26.8199428
11
2.4
21
30.3209086
0
LINE
8
0
10
2.4
20
30.3209086
11
2.4
21
33.7481428
0
LINE
8
0
10
2.4
20
33.7481428
11
2.4
21
34.5773316
0
LINE
8
0
10
2.4
20
34.5773316
11
2.4
21
35.5723583
0
LINE
8
0
10
2.4
20
35.5723583
11
13.1352656
21
35.5723583
0
LINE
8
0
10
13.1352656
20
35.5723583
11
16
21
35.5723583
0
LINE
8
0
10
16
20
35.5723583
11
16
21
35.5723583
0
ENDSEC
0
EOF
