0
SECTION
2
ENTITIES
0
LINE
8
0
10
16
20
65.5515557
11
16
21
49.8178699
0
LINE
8
0
10
16
20
49.8178699
11
16
21
47.2154526
0
LINE
8
0
10
16
20
47.2154526
11
16
21
44.630397
0
LINE
8
0
10
16
20
44.630397
11
16
21
42.0106215
0
LINE
8
0
10
16
20
42.0106215
11
6.51407602
21
42.0106215
0
LINE
8
0
10
6.51407602
20
42.0106215
11
2.4
21
42.0106215
0
LINE
8
0
10
2.4
20
42.0106215
11
2.4
21
43.1749662
0
LINE
8
0
10
2.4
20
43.1749662
11
2.4
21
44.630397
0
LINE
8
0
10
2.4
20
44.630397
11
2.4
21
47.2154526
0
LINE
8
0
10
2.4
20
47.2154526
11
2.4
21
49.8178699
0
LINE
8
0
10
2.4
20
49.8178699
11
2.4
21
51.7631738
0
LINE
8
0
10
2.4
20
51.7631738
11
2.4
21
67.2957562
0
LINE
8
0
10
2.4
20
67.2957562
11
2.4
21
68.686275
0
LINE
8
0
10
2.4
20
68.686275
11
2.4
21
68.7102283
0
LINE
8
0
10
2.4
20
68.7102283
11
2.4
21
68.7337159
0
LINE
8
0
10
2.4
20
68.7337159
11
2.4
21
68.7545872
0
LINE
8
0
10
2.4
20
68.7545872
11
2.4
21
69
0
LINE
8
0
10
2.4
20
69
11
2.40339623
21
69.0257971
0
LINE
8
0
10
2.40339623
20
69.0257971
11
2.468148
21
69.51764
0
LINE
8
0
10
2.468148
20
69.51764
11
2.6579917
21
69.9759611
0
LINE
8
0
10
2.6579917
20
69.9759611
11
2.667949
21
70
0
LINE
8
0
10
2.667949
20
70
11
2.96994625
21
70.3935674
0
LINE
8
0
10
2.96994625
20
70.3935674
11
2.985786
21
70.41421
0
LINE
8
0
10
2.985786
20
70.41421
11
3.3793572
21
70.7162101
0
LINE
8
0
10
3.3793572
20
70.7162101
11
3.4
21
70.73205
0
LINE
8
0
10
3.4
20
70.73205
11
3.85832297
21
70.9218928
0
LINE
8
0
10
3.85832297
20
70.9218928
11
3.882362
21
70.93185
0
LINE
8
0
10
3.882362
20
70.93185
11
4.37420296
21
70.9966037
0
LINE
8
0
10
4.37420296
20
70.9966037
11
4.4
21
71
0
LINE
8
0
10
4.4
20
71
11
12.7857049
21
71
0
LINE
8
0
10
12.7857049
20
71
11
13.024918
21
71
0
LINE
8
0
10
13.024918
20
71
11
13.3414774
21
71
0
LINE
8
0
10
13.3414774
20
71
11
13.4595677
21
71
0
LINE
8
0
10
13.4595677
20
71
11
13.5599894
21
71
0
LINE
8
0
10
13.5599894
20
71
11
13.6480129
21
71
0
LINE
8
0
10
13.6480129
20
71
11
13.7272353
21
71
0
LINE
8
0
10
13.7272353
20
71
11
13.7469836
21
71
0
LINE
8
0
10
13.7469836
20
71
11
13.9783229
21
70.9828525
0
LINE
8
0
10
13.9783229
20
70.9828525
11
14.1878265
21
70.9646362
0
LINE
8
0
10
14.1878265
20
70.9646362
11
14.4263496
21
70.910832
0
LINE
8
0
10
14.4263496
20
70.910832
11
14.4583788
21
70.9029387
0
LINE
8
0
10
14.4583788
20
70.9029387
11
14.4751244
21
70.8964447
0
LINE
8
0
10
14.4751244
20
70.8964447
11
14.7101496
21
70.808784
0
LINE
8
0
10
14.7101496
20
70.808784
11
14.8287248
21
70.7453959
0
LINE
8
0
10
14.8287248
20
70.7453959
11
14.9509443
21
70.6829036
0
LINE
8
0
10
14.9509443
20
70.6829036
11
15.1265474
21
70.5592664
0
LINE
8
0
10
15.1265474
20
70.5592664
11
15.1745951
21
70.5271444
0
LINE
8
0
10
15.1745951
20
70.5271444
11
15.3852795
21
70.3313957
0
LINE
8
0
10
15.3852795
20
70.3313957
11
15.4056638
21
70.3113621
0
LINE
8
0
10
15.4056638
20
70.3113621
11
15.408228
21
70.3076638
0
LINE
8
0
10
15.408228
20
70.3076638
11
15.5840019
21
70.0768103
0
LINE
8
0
10
15.5840019
20
70.0768103
11
15.6018802
21
70.0404196
0
LINE
8
0
10
15.6018802
20
70.0404196
11
15.7252593
21
69.8196936
0
LINE
8
0
10
15.7252593
20
69.8196936
11
15.7449036
21
69.7575921
0
LINE
8
0
10
15.7449036
20
69.7575921
11
15.8264457
21
69.5463125
0
LINE
8
0
10
15.8264457
20
69.5463125
11
15.857888
21
69.4048512
0
LINE
8
0
10
15.857888
20
69.4048512
11
15.881859
21
69.2634078
0
LINE
8
0
10
15.881859
20
69.2634078
11
15.924276
21
69.0221412
0
LINE
8
0
10
15.924276
20
69.0221412
11
15.9255234
21
69.0048813
0
LINE
8
0
10
15.9255234
20
69.0048813
11
16
21
67.6829559
0
LINE
8
0
10
16
20
67.6829559
11
16
21
67.2494753
0
LINE
8
0
10
16
20
67.2494753
11
16
21
65.5515557
0
LINE
8
0
10
16
20
65.5515557
11
16
21
65.5515557
0
LINE
8
0
10
16
20
26.422163
11
16
21
25.5778365
0
LINE
8
0
10
16
20
25.5778365
11
14.674076
21
25.5778365
0
LINE
8
0
10
14.674076
20
25.5778365
11
2.4
21
25.5778365
0
LINE
8
0
10
2.4
20
25.5778365
11
2.4
21
26.0383787
0
LINE
8
0
10
2.4
20
26.0383787
11
2.4
21
26.422163
0
LINE
8
0
10
2.4
20
26.422163
11
2.4
21
30.2413526
0
LINE
8
0
10
2.4
20
30.2413526
11
2.4
21
33.350363
0
LINE
8
0
10
2.4
20
33.350363
11
2.4
21
34.54117
0
LINE
8
0
10
2.4
20
34.54117
11
2.4
21
35.9701385
0
LINE
8
0
10
2.4
20
35.9701385
11
11.885924
21
35.9701385
0
LINE
8
0
10
11.885924
20
35.9701385
11
16
21
35.9701385
0
LINE
8
0
10
16
20
35.9701385
11
16
21
33.350363
0
LINE
8
0
10
16
20
33.350363
11
16
21
28.1108149
0
LINE
8
0
10
16
20
28.1108149
11
16
21
26.422163
0
LINE
8
0
10
16
20
26.422163
11
16
21
26.422163
0
LINE
8
0
10
16
20
-6.71438302
11
16
21
-10.9200131
0
LINE
8
0
10
16
20
-10.9200131
11
16
21
-11.1607888
0
LINE
8
0
10
16
20
-11.1607888
11
16
21
-11.4240794
0
LINE
8
0
10
16
20
-11.4240794
11
16
21
-11.6883376
0
LINE
8
0
10
16
20
-11.6883376
11
16
21
-11.8181449
0
LINE
8
0
10
16
20
-11.8181449
11
16
21
-11.9410215
0
LINE
8
0
10
16
20
-11.9410215
11
16
21
-12.1919314
0
LINE
8
0
10
16
20
-12.1919314
11
16
21
-12.3104773
0
LINE
8
0
10
16
20
-12.3104773
11
16
21
-12.5332332
0
LINE
8
0
10
16
20
-12.5332332
11
16
21
-12.7160835
0
LINE
8
0
10
16
20
-12.7160835
11
16
21
-14
0
LINE
8
0
10
16
20
-14
11
15.9876174
21
-14.2044684
0
LINE
8
0
10
15.9876174
20
-14.2044684
11
15.9695693
21
-14.3202983
0
LINE
8
0
10
15.9695693
20
-14.3202983
11
15.9406287
21
-14.4816299
0
LINE
8
0
10
15.9406287
20
-14.4816299
11
15.8363536
21
-14.7700543
0
LINE
8
0
10
15.8363536
20
-14.7700543
11
15.7719316
21
-14.9255827
0
LINE
8
0
10
15.7719316
20
-14.9255827
11
15.6222885
21
-15.1608822
0
LINE
8
0
10
15.6222885
20
-15.1608822
11
15.5135631
21
-15.3025734
0
LINE
8
0
10
15.5135631
20
-15.3025734
11
15.3428126
21
-15.4802443
0
LINE
8
0
10
15.3428126
20
-15.4802443
11
15.1930324
21
-15.5952296
0
LINE
8
0
10
15.1930324
20
-15.5952296
11
15.0011354
21
-15.7311583
0
LINE
8
0
10
15.0011354
20
-15.7311583
11
14.8052252
21
-15.8220871
0
LINE
8
0
10
14.8052252
20
-15.8220871
11
14.6098825
21
-15.9030544
0
LINE
8
0
10
14.6098825
20
-15.9030544
11
14.411134
21
-15.9548286
0
LINE
8
0
10
14.411134
20
-15.9548286
11
14.2291488
21
-15.9698314
0
LINE
8
0
10
14.2291488
20
-15.9698314
11
14
21
-16
0
LINE
8
0
10
14
20
-16
11
11.8751354
21
-16
0
LINE
8
0
10
11.8751354
20
-16
11
4.4
21
-16
0
LINE
8
0
10
4.4
20
-16
11
4.20897186
21
-15.9838284
0
LINE
8
0
10
4.20897186
20
-15.9838284
11
3.98010089
21
-15.9447179
0
LINE
8
0
10
3.98010089
20
-15.9447179
11
3.882362
21
-15.93185
0
LINE
8
0
10
3.882362
20
-15.93185
11
3.58316514
21
-15.8080863
0
LINE
8
0
10
3.58316514
20
-15.8080863
11
3.40131512
21
-15.7328125
0
LINE
8
0
10
3.40131512
20
-15.7328125
11
3.14251354
21
-15.5344147
0
LINE
8
0
10
3.14251354
20
-15.5344147
11
2.985786
21
-15.41421
0
LINE
8
0
10
2.985786
20
-15.41421
11
2.78797505
21
-15.1564198
0
LINE
8
0
10
2.78797505
20
-15.1564198
11
2.667949
21
-15
0
LINE
8
0
10
2.667949
20
-15
11
2.54359965
21
-14.6997955
0
LINE
8
0
10
2.54359965
20
-14.6997955
11
2.468148
21
-14.51764
0
LINE
8
0
10
2.468148
20
-14.51764
11
2.44694149
21
-14.3565592
0
LINE
8
0
10
2.44694149
20
-14.3565592
11
2.4
21
-14
0
LINE
8
0
10
2.4
20
-14
11
2.4
21
-13.9799968
0
LINE
8
0
10
2.4
20
-13.9799968
11
2.4
21
-8.45304431
0
LINE
8
0
10
2.4
20
-8.45304431
11
2.4
21
-8.21497753
0
LINE
8
0
10
2.4
20
-8.21497753
11
2.4
21
-7.8591867
0
LINE
8
0
10
2.4
20
-7.8591867
11
2.4
21
1.34733548
0
LINE
8
0
10
2.4
20
1.34733548
11
2.4
21
1.53716784
0
LINE
8
0
10
2.4
20
1.53716784
11
2.4
21
1.76709125
0
LINE
8
0
10
2.4
20
1.76709125
11
2.4
21
2.01640666
0
LINE
8
0
10
2.4
20
2.01640666
11
2.4
21
6.15432225
0
LINE
8
0
10
2.4
20
6.15432225
11
2.4
21
6.2829372
0
LINE
8
0
10
2.4
20
6.2829372
11
2.4
21
8.8083108
0
LINE
8
0
10
2.4
20
8.8083108
11
2.4
21
11.0199283
0
LINE
8
0
10
2.4
20
11.0199283
11
2.4
21
13.2672526
0
LINE
8
0
10
2.4
20
13.2672526
11
2.4
21
16.9175858
0
LINE
8
0
10
2.4
20
16.9175858
11
2.4
21
17.3866567
0
LINE
8
0
10
2.4
20
17.3866567
11
2.4
21
17.7619125
0
LINE
8
0
10
2.4
20
17.7619125
11
3.72592398
21
17.7619125
0
LINE
8
0
10
3.72592398
20
17.7619125
11
16
21
17.7619125
0
LINE
8
0
10
16
20
17.7619125
11
16
21
16.9175858
0
LINE
8
0
10
16
20
16.9175858
11
16
21
13.2672526
0
LINE
8
0
10
16
20
13.2672526
11
16
21
9.33081631
0
LINE
8
0
10
16
20
9.33081631
11
16
21
7.26204176
0
LINE
8
0
10
16
20
7.26204176
11
16
21
-6.71438302
0
LINE
8
0
10
16
20
-6.71438302
11
16
21
-6.71438302
0
ENDSEC
0
EOF
