0
SECTION
2
ENTITIES
0
LINE
8
0
10
16
20
-12.0524805
11
16
21
-11.7802699
0
LINE
8
0
10
16
20
-11.7802699
11
16
21
-11.6601477
0
LINE
8
0
10
16
20
-11.6601477
11
16
21
-11.53325
0
LINE
8
0
10
16
20
-11.53325
11
16
21
-11.2463699
0
LINE
8
0
10
16
20
-11.2463699
11
16
21
-10.9605403
0
LINE
8
0
10
16
20
-10.9605403
11
16
21
-10.6991529
0
LINE
8
0
10
16
20
-10.6991529
11
16
21
-6.13349933
0
LINE
8
0
10
16
20
-6.13349933
11
16
21
7.28409003
0
LINE
8
0
10
16
20
7.28409003
11
16
21
9.52996231
0
LINE
8
0
10
16
20
9.52996231
11
16
21
13.1876966
0
LINE
8
0
10
16
20
13.1876966
11
16
21
17.3153668
0
LINE
8
0
10
16
20
17.3153668
11
16
21
17.3641331
0
LINE
8
0
10
16
20
17.3641331
11
2.47658236
21
17.3641331
0
LINE
8
0
10
2.47658236
20
17.3641331
11
2.4
21
17.3641331
0
LINE
8
0
10
2.4
20
17.3641331
11
2.4
21
17.3424592
0
LINE
8
0
10
2.4
20
17.3424592
11
2.4
21
17.3153668
0
LINE
8
0
10
2.4
20
17.3153668
11
2.4
21
13.1876966
0
LINE
8
0
10
2.4
20
13.1876966
11
2.4
21
11.0994842
0
LINE
8
0
10
2.4
20
11.0994842
11
2.4
21
8.76853282
0
LINE
8
0
10
2.4
20
8.76853282
11
2.4
21
6.34413412
0
LINE
8
0
10
2.4
20
6.34413412
11
2.4
21
6.22066174
0
LINE
8
0
10
2.4
20
6.22066174
11
2.4
21
1.95532454
0
LINE
8
0
10
2.4
20
1.95532454
11
2.4
21
1.6983318
0
LINE
8
0
10
2.4
20
1.6983318
11
2.4
21
1.4613282
0
LINE
8
0
10
2.4
20
1.4613282
11
2.4
21
1.26565021
0
LINE
8
0
10
2.4
20
1.26565021
11
2.4
21
-7.77578493
0
LINE
8
0
10
2.4
20
-7.77578493
11
2.4
21
-8.13683627
0
LINE
8
0
10
2.4
20
-8.13683627
11
2.4
21
-8.3707627
0
LINE
8
0
10
2.4
20
-8.3707627
11
2.4
21
-13.9797
0
LINE
8
0
10
2.4
20
-13.9797
11
2.4
21
-14
0
LINE
8
0
10
2.4
20
-14
11
2.4476378
21
-14.3618482
0
LINE
8
0
10
2.4476378
20
-14.3618482
11
2.468148
21
-14.51764
0
LINE
8
0
10
2.468148
20
-14.51764
11
2.54768265
21
-14.7096527
0
LINE
8
0
10
2.54768265
20
-14.7096527
11
2.667949
21
-15
0
LINE
8
0
10
2.667949
20
-15
11
2.79447016
21
-15.1648843
0
LINE
8
0
10
2.79447016
20
-15.1648843
11
2.985786
21
-15.41421
0
LINE
8
0
10
2.985786
20
-15.41421
11
3.15099472
21
-15.5409194
0
LINE
8
0
10
3.15099472
20
-15.5409194
11
3.40129856
21
-15.7328029
0
LINE
8
0
10
3.40129856
20
-15.7328029
11
3.59298924
21
-15.8121501
0
LINE
8
0
10
3.59298924
20
-15.8121501
11
3.882362
21
-15.93185
0
LINE
8
0
10
3.882362
20
-15.93185
11
3.98538995
21
-15.9454142
0
LINE
8
0
10
3.98538995
20
-15.9454142
11
4.21137805
21
-15.9840321
0
LINE
8
0
10
4.21137805
20
-15.9840321
11
4.4
21
-16
0
LINE
8
0
10
4.4
20
-16
11
11.7809785
21
-16
0
LINE
8
0
10
11.7809785
20
-16
11
14
21
-16
0
LINE
8
0
10
14
20
-16
11
14.2393029
21
-15.9684945
0
LINE
8
0
10
14.2393029
20
-15.9684945
11
14.4148826
21
-15.9540198
0
LINE
8
0
10
14.4148826
20
-15.9540198
11
14.6066358
21
-15.9040679
0
LINE
8
0
10
14.6066358
20
-15.9040679
11
14.8121085
21
-15.8189019
0
LINE
8
0
10
14.8121085
20
-15.8189019
11
15.0011232
21
-15.7311735
0
LINE
8
0
10
15.0011232
20
-15.7311735
11
15.1862661
21
-15.6000291
0
LINE
8
0
10
15.1862661
20
-15.6000291
11
15.3453256
21
-15.4779201
0
LINE
8
0
10
15.3453256
20
-15.4779201
11
15.5100662
21
-15.3065027
0
LINE
8
0
10
15.5100662
20
-15.3065027
11
15.6261518
21
-15.1552196
0
LINE
8
0
10
15.6261518
20
-15.1552196
11
15.7705279
21
-14.928202
0
LINE
8
0
10
15.7705279
20
-14.928202
11
15.8397148
21
-14.7611701
0
LINE
8
0
10
15.8397148
20
-14.7611701
11
15.9403197
21
-14.4828974
0
LINE
8
0
10
15.9403197
20
-14.4828974
11
15.9682417
21
-14.3272441
0
LINE
8
0
10
15.9682417
20
-14.3272441
11
15.9877734
21
-14.2018929
0
LINE
8
0
10
15.9877734
20
-14.2018929
11
16
21
-14
0
LINE
8
0
10
16
20
-14
11
16
21
-12.6082047
0
LINE
8
0
10
16
20
-12.6082047
11
16
21
-12.4099907
0
LINE
8
0
10
16
20
-12.4099907
11
16
21
-12.1685183
0
LINE
8
0
10
16
20
-12.1685183
11
16
21
-12.0524805
0
LINE
8
0
10
16
20
-12.0524805
11
16
21
-12.0524805
0
LINE
8
0
10
16
20
41.6128412
11
16
21
45.0281768
0
LINE
8
0
10
16
20
45.0281768
11
16
21
47.1358966
0
LINE
8
0
10
16
20
47.1358966
11
16
21
49.897426
0
LINE
8
0
10
16
20
49.897426
11
16
21
66.5930711
0
LINE
8
0
10
16
20
66.5930711
11
16
21
67.778177
0
LINE
8
0
10
16
20
67.778177
11
16
21
68.0807357
0
LINE
8
0
10
16
20
68.0807357
11
15.9378509
21
69.1838529
0
LINE
8
0
10
15.9378509
20
69.1838529
11
15.9212649
21
69.3505104
0
LINE
8
0
10
15.9212649
20
69.3505104
11
15.8936364
21
69.4748132
0
LINE
8
0
10
15.8936364
20
69.4748132
11
15.8715604
21
69.5320132
0
LINE
8
0
10
15.8715604
20
69.5320132
11
15.8004173
21
69.7569169
0
LINE
8
0
10
15.8004173
20
69.7569169
11
15.7637491
21
69.8225165
0
LINE
8
0
10
15.7637491
20
69.8225165
11
15.6651478
21
70.023217
0
LINE
8
0
10
15.6651478
20
70.023217
11
15.6066728
21
70.1000154
0
LINE
8
0
10
15.6066728
20
70.1000154
11
15.4907273
21
70.2672401
0
LINE
8
0
10
15.4907273
20
70.2672401
11
15.3943361
21
70.3619725
0
LINE
8
0
10
15.3943361
20
70.3619725
11
15.2702418
21
70.4930618
0
LINE
8
0
10
15.2702418
20
70.4930618
11
15.1472686
21
70.5844768
0
LINE
8
0
10
15.1472686
20
70.5844768
11
15.0551215
21
70.6572653
0
LINE
8
0
10
15.0551215
20
70.6572653
11
14.8800263
21
70.7561211
0
LINE
8
0
10
14.8800263
20
70.7561211
11
14.8211101
21
70.791187
0
LINE
8
0
10
14.8211101
20
70.791187
11
14.5750797
21
70.8920127
0
LINE
8
0
10
14.5750797
20
70.8920127
11
14.5737462
21
70.8925854
0
LINE
8
0
10
14.5737462
20
70.8925854
11
14.5691027
21
70.893838
0
LINE
8
0
10
14.5691027
20
70.893838
11
14.3090404
21
70.9601607
0
LINE
8
0
10
14.3090404
20
70.9601607
11
14.0428468
21
70.9861272
0
LINE
8
0
10
14.0428468
20
70.9861272
11
13.8827519
21
71
0
LINE
8
0
10
13.8827519
20
71
11
13.860573
21
71
0
LINE
8
0
10
13.860573
20
71
11
13.809617
21
71
0
LINE
8
0
10
13.809617
20
71
11
13.7543217
21
71
0
LINE
8
0
10
13.7543217
20
71
11
13.6928835
21
71
0
LINE
8
0
10
13.6928835
20
71
11
13.6227916
21
71
0
LINE
8
0
10
13.6227916
20
71
11
13.5403675
21
71
0
LINE
8
0
10
13.5403675
20
71
11
13.0394313
21
71
0
LINE
8
0
10
13.0394313
20
71
11
12.6608909
21
71
0
LINE
8
0
10
12.6608909
20
71
11
4.4
21
71
0
LINE
8
0
10
4.4
20
71
11
4.35917773
21
70.9946255
0
LINE
8
0
10
4.35917773
20
70.9946255
11
3.882362
21
70.93185
0
LINE
8
0
10
3.882362
20
70.93185
11
3.84432169
21
70.9160933
0
LINE
8
0
10
3.84432169
20
70.9160933
11
3.4
21
70.73205
0
LINE
8
0
10
3.4
20
70.73205
11
3.36733401
21
70.7069843
0
LINE
8
0
10
3.36733401
20
70.7069843
11
2.985786
21
70.41421
0
LINE
8
0
10
2.985786
20
70.41421
11
2.96072055
21
70.3815443
0
LINE
8
0
10
2.96072055
20
70.3815443
11
2.667949
21
70
0
LINE
8
0
10
2.667949
20
70
11
2.65219218
21
69.9619598
0
LINE
8
0
10
2.65219218
20
69.9619598
11
2.468148
21
69.51764
0
LINE
8
0
10
2.468148
20
69.51764
11
2.40537433
21
69.0408224
0
LINE
8
0
10
2.40537433
20
69.0408224
11
2.4
21
69
0
LINE
8
0
10
2.4
20
69
11
2.4
21
68.611649
0
LINE
8
0
10
2.4
20
68.611649
11
2.4
21
68.5786214
0
LINE
8
0
10
2.4
20
68.5786214
11
2.4
21
68.5414536
0
LINE
8
0
10
2.4
20
68.5414536
11
2.4
21
68.5035491
0
LINE
8
0
10
2.4
20
68.5035491
11
2.4
21
66.3031365
0
LINE
8
0
10
2.4
20
66.3031365
11
2.4
21
51.7233958
0
LINE
8
0
10
2.4
20
51.7233958
11
2.4
21
49.897426
0
LINE
8
0
10
2.4
20
49.897426
11
2.4
21
47.1358966
0
LINE
8
0
10
2.4
20
47.1358966
11
2.4
21
45.0281768
0
LINE
8
0
10
2.4
20
45.0281768
11
2.4
21
43.1307681
0
LINE
8
0
10
2.4
20
43.1307681
11
2.4
21
41.6128412
0
LINE
8
0
10
2.4
20
41.6128412
11
7.76341764
21
41.6128412
0
LINE
8
0
10
7.76341764
20
41.6128412
11
16
21
41.6128412
0
LINE
8
0
10
16
20
41.6128412
11
16
21
41.6128412
0
LINE
8
0
10
16
20
32.9525832
11
16
21
36.3679188
0
LINE
8
0
10
16
20
36.3679188
11
10.6365824
21
36.3679188
0
LINE
8
0
10
10.6365824
20
36.3679188
11
2.4
21
36.3679188
0
LINE
8
0
10
2.4
20
36.3679188
11
2.4
21
34.5050085
0
LINE
8
0
10
2.4
20
34.5050085
11
2.4
21
32.9525832
0
LINE
8
0
10
2.4
20
32.9525832
11
2.4
21
30.1617966
0
LINE
8
0
10
2.4
20
30.1617966
11
2.4
21
26.0243832
0
LINE
8
0
10
2.4
20
26.0243832
11
2.4
21
26.0022167
0
LINE
8
0
10
2.4
20
26.0022167
11
2.4
21
25.9756168
0
LINE
8
0
10
2.4
20
25.9756168
11
15.9234176
21
25.9756168
0
LINE
8
0
10
15.9234176
20
25.9756168
11
16
21
25.9756168
0
LINE
8
0
10
16
20
25.9756168
11
16
21
26.0243832
0
LINE
8
0
10
16
20
26.0243832
11
16
21
26.1219159
0
LINE
8
0
10
16
20
26.1219159
11
16
21
32.9525832
0
LINE
8
0
10
16
20
32.9525832
11
16
21
32.9525832
0
ENDSEC
0
EOF
