0
SECTION
2
ENTITIES
0
LINE
8
0
10
16
20
-5.55261564
11
16
21
-10.4782928
0
LINE
8
0
10
16
20
-10.4782928
11
16
21
-10.7602919
0
LINE
8
0
10
16
20
-10.7602919
11
16
21
-11.0686605
0
LINE
8
0
10
16
20
-11.0686605
11
16
21
-11.3781624
0
LINE
8
0
10
16
20
-11.3781624
11
16
21
-11.5021504
0
LINE
8
0
10
16
20
-11.5021504
11
16
21
-11.6195183
0
LINE
8
0
10
16
20
-11.6195183
11
16
21
-11.9130295
0
LINE
8
0
10
16
20
-11.9130295
11
16
21
-12.0265592
0
LINE
8
0
10
16
20
-12.0265592
11
16
21
-12.2867483
0
LINE
8
0
10
16
20
-12.2867483
11
16
21
-12.500326
0
LINE
8
0
10
16
20
-12.500326
11
16
21
-14
0
LINE
8
0
10
16
20
-14
11
15.9879294
21
-14.1993174
0
LINE
8
0
10
15.9879294
20
-14.1993174
11
15.9669141
21
-14.33419
0
LINE
8
0
10
15.9669141
20
-14.33419
11
15.9400107
21
-14.4841648
0
LINE
8
0
10
15.9400107
20
-14.4841648
11
15.843076
21
-14.7522858
0
LINE
8
0
10
15.843076
20
-14.7522858
11
15.7691242
21
-14.9308213
0
LINE
8
0
10
15.7691242
20
-14.9308213
11
15.6300151
21
-15.149557
0
LINE
8
0
10
15.6300151
20
-15.149557
11
15.5065692
21
-15.310432
0
LINE
8
0
10
15.5065692
20
-15.310432
11
15.3478385
21
-15.4755959
0
LINE
8
0
10
15.3478385
20
-15.4755959
11
15.1794997
21
-15.6048286
0
LINE
8
0
10
15.1794997
20
-15.6048286
11
15.0011111
21
-15.7311887
0
LINE
8
0
10
15.0011111
20
-15.7311887
11
14.8189918
21
-15.8157167
0
LINE
8
0
10
14.8189918
20
-15.8157167
11
14.6033892
21
-15.9050814
0
LINE
8
0
10
14.6033892
20
-15.9050814
11
14.4186313
21
-15.953211
0
LINE
8
0
10
14.4186313
20
-15.953211
11
14.2494569
21
-15.9671577
0
LINE
8
0
10
14.2494569
20
-15.9671577
11
14
21
-16
0
LINE
8
0
10
14
20
-16
11
11.6868216
21
-16
0
LINE
8
0
10
11.6868216
20
-16
11
4.4
21
-16
0
LINE
8
0
10
4.4
20
-16
11
4.21378425
21
-15.9842358
0
LINE
8
0
10
4.21378425
20
-15.9842358
11
3.990679
21
-15.9461106
0
LINE
8
0
10
3.990679
20
-15.9461106
11
3.882362
21
-15.93185
0
LINE
8
0
10
3.882362
20
-15.93185
11
3.60281334
21
-15.8162138
0
LINE
8
0
10
3.60281334
20
-15.8162138
11
3.40128201
21
-15.7327933
0
LINE
8
0
10
3.40128201
20
-15.7327933
11
3.15947589
21
-15.5474242
0
LINE
8
0
10
3.15947589
20
-15.5474242
11
2.985786
21
-15.41421
0
LINE
8
0
10
2.985786
20
-15.41421
11
2.80096526
21
-15.1733488
0
LINE
8
0
10
2.80096526
20
-15.1733488
11
2.667949
21
-15
0
LINE
8
0
10
2.667949
20
-15
11
2.55176565
21
-14.7195099
0
LINE
8
0
10
2.55176565
20
-14.7195099
11
2.468148
21
-14.51764
0
LINE
8
0
10
2.468148
20
-14.51764
11
2.44833412
21
-14.3671373
0
LINE
8
0
10
2.44833412
20
-14.3671373
11
2.4
21
-14
0
LINE
8
0
10
2.4
20
-14
11
2.4
21
-13.9794033
0
LINE
8
0
10
2.4
20
-13.9794033
11
2.4
21
-8.28848108
0
LINE
8
0
10
2.4
20
-8.28848108
11
2.4
21
-8.05869501
0
LINE
8
0
10
2.4
20
-8.05869501
11
2.4
21
-7.69238315
0
LINE
8
0
10
2.4
20
-7.69238315
11
2.4
21
1.18396493
0
LINE
8
0
10
2.4
20
1.18396493
11
2.4
21
1.38548857
0
LINE
8
0
10
2.4
20
1.38548857
11
2.4
21
1.62957234
0
LINE
8
0
10
2.4
20
1.62957234
11
2.4
21
1.89424242
0
LINE
8
0
10
2.4
20
1.89424242
11
2.4
21
6.28700123
0
LINE
8
0
10
2.4
20
6.28700123
11
2.4
21
6.40533105
0
LINE
8
0
10
2.4
20
6.40533105
11
2.4
21
8.72875484
0
LINE
8
0
10
2.4
20
8.72875484
11
2.4
21
11.1790401
0
LINE
8
0
10
2.4
20
11.1790401
11
2.4
21
13.1081407
0
LINE
8
0
10
2.4
20
13.1081407
11
2.4
21
16.9663527
0
LINE
8
0
10
2.4
20
16.9663527
11
2.4
21
17.3058047
0
LINE
8
0
10
2.4
20
17.3058047
11
2.4
21
17.7131462
0
LINE
8
0
10
2.4
20
17.7131462
11
14.8272407
21
17.7131462
0
LINE
8
0
10
14.8272407
20
17.7131462
11
16
21
17.7131462
0
LINE
8
0
10
16
20
17.7131462
11
16
21
16.9663527
0
LINE
8
0
10
16
20
16.9663527
11
16
21
13.1081407
0
LINE
8
0
10
16
20
13.1081407
11
16
21
9.72910832
0
LINE
8
0
10
16
20
9.72910832
11
16
21
7.30613829
0
LINE
8
0
10
16
20
7.30613829
11
16
21
-5.55261564
0
LINE
8
0
10
16
20
-5.55261564
11
16
21
-5.55261564
0
LINE
8
0
10
16
20
26.3733966
11
16
21
25.6266029
0
LINE
8
0
10
16
20
25.6266029
11
3.57275925
21
25.6266029
0
LINE
8
0
10
3.57275925
20
25.6266029
11
2.4
21
25.6266029
0
LINE
8
0
10
2.4
20
25.6266029
11
2.4
21
25.9585112
0
LINE
8
0
10
2.4
20
25.9585112
11
2.4
21
26.3733966
0
LINE
8
0
10
2.4
20
26.3733966
11
2.4
21
30.0822407
0
LINE
8
0
10
2.4
20
30.0822407
11
2.4
21
32.5548034
0
LINE
8
0
10
2.4
20
32.5548034
11
2.4
21
34.4688469
0
LINE
8
0
10
2.4
20
34.4688469
11
2.4
21
36.7656991
0
LINE
8
0
10
2.4
20
36.7656991
11
9.38724075
21
36.7656991
0
LINE
8
0
10
9.38724075
20
36.7656991
11
16
21
36.7656991
0
LINE
8
0
10
16
20
36.7656991
11
16
21
32.5548034
0
LINE
8
0
10
16
20
32.5548034
11
16
21
26.3733966
0
LINE
8
0
10
16
20
26.3733966
11
16
21
26.3733966
0
LINE
8
0
10
16
20
49.9769821
11
16
21
47.0563407
0
LINE
8
0
10
16
20
47.0563407
11
16
21
45.4259566
0
LINE
8
0
10
16
20
45.4259566
11
16
21
41.2150609
0
LINE
8
0
10
16
20
41.2150609
11
9.01275925
21
41.2150609
0
LINE
8
0
10
9.01275925
20
41.2150609
11
2.4
21
41.2150609
0
LINE
8
0
10
2.4
20
41.2150609
11
2.4
21
43.0865701
0
LINE
8
0
10
2.4
20
43.0865701
11
2.4
21
45.4259566
0
LINE
8
0
10
2.4
20
45.4259566
11
2.4
21
47.0563407
0
LINE
8
0
10
2.4
20
47.0563407
11
2.4
21
49.9769821
0
LINE
8
0
10
2.4
20
49.9769821
11
2.4
21
51.6836178
0
LINE
8
0
10
2.4
20
51.6836178
11
2.4
21
65.3105168
0
LINE
8
0
10
2.4
20
65.3105168
11
2.4
21
68.3208231
0
LINE
8
0
10
2.4
20
68.3208231
11
2.4
21
68.372679
0
LINE
8
0
10
2.4
20
68.372679
11
2.4
21
68.4235269
0
LINE
8
0
10
2.4
20
68.4235269
11
2.4
21
68.4687108
0
LINE
8
0
10
2.4
20
68.4687108
11
2.4
21
69
0
LINE
8
0
10
2.4
20
69
11
2.40735243
21
69.0558477
0
LINE
8
0
10
2.40735243
20
69.0558477
11
2.468148
21
69.51764
0
LINE
8
0
10
2.468148
20
69.51764
11
2.64639265
21
69.9479586
0
LINE
8
0
10
2.64639265
20
69.9479586
11
2.667949
21
70
0
LINE
8
0
10
2.667949
20
70
11
2.95149485
21
70.3695213
0
LINE
8
0
10
2.95149485
20
70.3695213
11
2.985786
21
70.41421
0
LINE
8
0
10
2.985786
20
70.41421
11
3.35531082
21
70.6977585
0
LINE
8
0
10
3.35531082
20
70.6977585
11
3.4
21
70.73205
0
LINE
8
0
10
3.4
20
70.73205
11
3.8303204
21
70.9102938
0
LINE
8
0
10
3.8303204
20
70.9102938
11
3.882362
21
70.93185
0
LINE
8
0
10
3.882362
20
70.93185
11
4.3441525
21
70.9926474
0
LINE
8
0
10
4.3441525
20
70.9926474
11
4.4
21
71
0
LINE
8
0
10
4.4
20
71
11
12.5360769
21
71
0
LINE
8
0
10
12.5360769
20
71
11
13.0539446
21
71
0
LINE
8
0
10
13.0539446
20
71
11
13.7392576
21
71
0
LINE
8
0
10
13.7392576
20
71
11
13.7860155
21
71
0
LINE
8
0
10
13.7860155
20
71
11
13.8257776
21
71
0
LINE
8
0
10
13.8257776
20
71
11
13.8606305
21
71
0
LINE
8
0
10
13.8606305
20
71
11
13.8919986
21
71
0
LINE
8
0
10
13.8919986
20
71
11
13.9209052
21
71
0
LINE
8
0
10
13.9209052
20
71
11
13.9481361
21
71
0
LINE
8
0
10
13.9481361
20
71
11
13.9608735
21
71
0
LINE
8
0
10
13.9608735
20
71
11
14.0936032
21
70.9870533
0
LINE
8
0
10
14.0936032
20
70.9870533
11
14.3891996
21
70.9555798
0
LINE
8
0
10
14.3891996
20
70.9555798
11
14.6146761
21
70.8921359
0
LINE
8
0
10
14.6146761
20
70.8921359
11
14.6519816
21
70.882073
0
LINE
8
0
10
14.6519816
20
70.882073
11
14.865875
21
70.7902137
0
LINE
8
0
10
14.865875
20
70.7902137
11
14.9043773
21
70.7731688
0
LINE
8
0
10
14.9043773
20
70.7731688
11
15.1142459
21
70.6458653
0
LINE
8
0
10
15.1142459
20
70.6458653
11
15.1584074
21
70.6119784
0
LINE
8
0
10
15.1584074
20
70.6119784
11
15.3471285
21
70.458953
0
LINE
8
0
10
15.3471285
20
70.458953
11
15.5115213
21
70.2817012
0
LINE
8
0
10
15.5115213
20
70.2817012
11
15.5863201
21
70.1842231
0
LINE
8
0
10
15.5863201
20
70.1842231
11
15.7129184
21
69.9974684
0
LINE
8
0
10
15.7129184
20
69.9974684
11
15.7682003
21
69.8640059
0
LINE
8
0
10
15.7682003
20
69.8640059
11
15.8626591
21
69.6653467
0
LINE
8
0
10
15.8626591
20
69.6653467
11
15.9228814
21
69.470756
0
LINE
8
0
10
15.9228814
20
69.470756
11
15.944972
21
69.3029649
0
LINE
8
0
10
15.944972
20
69.3029649
11
15.9647438
21
69.1042969
0
LINE
8
0
10
15.9647438
20
69.1042969
11
16
21
68.4785156
0
LINE
8
0
10
16
20
68.4785156
11
16
21
68.3068787
0
LINE
8
0
10
16
20
68.3068787
11
16
21
67.6345865
0
LINE
8
0
10
16
20
67.6345865
11
16
21
49.9769821
0
LINE
8
0
10
16
20
49.9769821
11
16
21
49.9769821
0
ENDSEC
0
EOF
