0
SECTION
2
ENTITIES
0
LINE
8
0
10
16
20
25.2288227
11
16
21
26.7711764
0
LINE
8
0
10
16
20
26.7711764
11
16
21
32.1570236
0
LINE
8
0
10
16
20
32.1570236
11
16
21
37.1634793
0
LINE
8
0
10
16
20
37.1634793
11
8.13789913
21
37.1634793
0
LINE
8
0
10
8.13789913
20
37.1634793
11
2.4
21
37.1634793
0
LINE
8
0
10
2.4
20
37.1634793
11
2.4
21
34.4326853
0
LINE
8
0
10
2.4
20
34.4326853
11
2.4
21
32.1570236
0
LINE
8
0
10
2.4
20
32.1570236
11
2.4
21
30.0026847
0
LINE
8
0
10
2.4
20
30.0026847
11
2.4
21
26.7711764
0
LINE
8
0
10
2.4
20
26.7711764
11
2.4
21
25.9143132
0
LINE
8
0
10
2.4
20
25.9143132
11
2.4
21
25.2288227
0
LINE
8
0
10
2.4
20
25.2288227
11
4.82210087
21
25.2288227
0
LINE
8
0
10
4.82210087
20
25.2288227
11
16
21
25.2288227
0
LINE
8
0
10
16
20
25.2288227
11
16
21
25.2288227
0
LINE
8
0
10
16
20
16.5685721
11
16
21
13.0285847
0
LINE
8
0
10
16
20
13.0285847
11
16
21
9.92825432
0
LINE
8
0
10
16
20
9.92825432
11
16
21
7.32818656
0
LINE
8
0
10
16
20
7.32818656
11
16
21
-4.97173195
0
LINE
8
0
10
16
20
-4.97173195
11
16
21
-10.2574326
0
LINE
8
0
10
16
20
-10.2574326
11
16
21
-10.5600434
0
LINE
8
0
10
16
20
-10.5600434
11
16
21
-10.890951
0
LINE
8
0
10
16
20
-10.890951
11
16
21
-11.2230748
0
LINE
8
0
10
16
20
-11.2230748
11
16
21
-11.3441531
0
LINE
8
0
10
16
20
-11.3441531
11
16
21
-11.4587667
0
LINE
8
0
10
16
20
-11.4587667
11
16
21
-11.7735785
0
LINE
8
0
10
16
20
-11.7735785
11
16
21
-11.8846001
0
LINE
8
0
10
16
20
-11.8846001
11
16
21
-12.1635059
0
LINE
8
0
10
16
20
-12.1635059
11
16
21
-12.3924472
0
LINE
8
0
10
16
20
-12.3924472
11
16
21
-14
0
LINE
8
0
10
16
20
-14
11
15.9880853
21
-14.196742
0
LINE
8
0
10
15.9880853
20
-14.196742
11
15.9655864
21
-14.3411358
0
LINE
8
0
10
15.9655864
20
-14.3411358
11
15.9397018
21
-14.4854323
0
LINE
8
0
10
15.9397018
20
-14.4854323
11
15.8464372
21
-14.7434016
0
LINE
8
0
10
15.8464372
20
-14.7434016
11
15.7677205
21
-14.9334405
0
LINE
8
0
10
15.7677205
20
-14.9334405
11
15.6338784
21
-15.1438945
0
LINE
8
0
10
15.6338784
20
-15.1438945
11
15.5030723
21
-15.3143613
0
LINE
8
0
10
15.5030723
20
-15.3143613
11
15.3503515
21
-15.4732717
0
LINE
8
0
10
15.3503515
20
-15.4732717
11
15.1727333
21
-15.6096281
0
LINE
8
0
10
15.1727333
20
-15.6096281
11
15.0010989
21
-15.7312039
0
LINE
8
0
10
15.0010989
20
-15.7312039
11
14.8258751
21
-15.8125314
0
LINE
8
0
10
14.8258751
20
-15.8125314
11
14.6001425
21
-15.9060949
0
LINE
8
0
10
14.6001425
20
-15.9060949
11
14.42238
21
-15.9524022
0
LINE
8
0
10
14.42238
20
-15.9524022
11
14.2596109
21
-15.9658209
0
LINE
8
0
10
14.2596109
20
-15.9658209
11
14
21
-16
0
LINE
8
0
10
14
20
-16
11
11.5926647
21
-16
0
LINE
8
0
10
11.5926647
20
-16
11
4.4
21
-16
0
LINE
8
0
10
4.4
20
-16
11
4.21619044
21
-15.9844395
0
LINE
8
0
10
4.21619044
20
-15.9844395
11
3.99596806
21
-15.9468069
0
LINE
8
0
10
3.99596806
20
-15.9468069
11
3.882362
21
-15.93185
0
LINE
8
0
10
3.882362
20
-15.93185
11
3.61263744
21
-15.8202776
0
LINE
8
0
10
3.61263744
20
-15.8202776
11
3.40126546
21
-15.7327837
0
LINE
8
0
10
3.40126546
20
-15.7327837
11
3.16795706
21
-15.553929
0
LINE
8
0
10
3.16795706
20
-15.553929
11
2.985786
21
-15.41421
0
LINE
8
0
10
2.985786
20
-15.41421
11
2.80746037
21
-15.1818133
0
LINE
8
0
10
2.80746037
20
-15.1818133
11
2.667949
21
-15
0
LINE
8
0
10
2.667949
20
-15
11
2.55584865
21
-14.7293671
0
LINE
8
0
10
2.55584865
20
-14.7293671
11
2.468148
21
-14.51764
0
LINE
8
0
10
2.468148
20
-14.51764
11
2.44903043
21
-14.3724264
0
LINE
8
0
10
2.44903043
20
-14.3724264
11
2.4
21
-14
0
LINE
8
0
10
2.4
20
-14
11
2.4
21
-13.9791066
0
LINE
8
0
10
2.4
20
-13.9791066
11
2.4
21
-8.20619946
0
LINE
8
0
10
2.4
20
-8.20619946
11
2.4
21
-7.98055376
0
LINE
8
0
10
2.4
20
-7.98055376
11
2.4
21
-7.60898138
0
LINE
8
0
10
2.4
20
-7.60898138
11
2.4
21
1.10227966
0
LINE
8
0
10
2.4
20
1.10227966
11
2.4
21
1.30964893
0
LINE
8
0
10
2.4
20
1.30964893
11
2.4
21
1.56081289
0
LINE
8
0
10
2.4
20
1.56081289
11
2.4
21
1.8331603
0
LINE
8
0
10
2.4
20
1.8331603
11
2.4
21
6.35334072
0
LINE
8
0
10
2.4
20
6.35334072
11
2.4
21
6.46652798
0
LINE
8
0
10
2.4
20
6.46652798
11
2.4
21
8.68897686
0
LINE
8
0
10
2.4
20
8.68897686
11
2.4
21
11.258596
0
LINE
8
0
10
2.4
20
11.258596
11
2.4
21
13.0285847
0
LINE
8
0
10
2.4
20
13.0285847
11
2.4
21
16.5685721
0
LINE
8
0
10
2.4
20
16.5685721
11
2.4
21
17.2696426
0
LINE
8
0
10
2.4
20
17.2696426
11
2.4
21
18.1109255
0
LINE
8
0
10
2.4
20
18.1109255
11
13.5778991
21
18.1109255
0
LINE
8
0
10
13.5778991
20
18.1109255
11
16
21
18.1109255
0
LINE
8
0
10
16
20
18.1109255
11
16
21
16.5685721
0
LINE
8
0
10
16
20
16.5685721
11
16
21
16.5685721
0
LINE
8
0
10
16
20
40.8172807
11
16
21
45.8237364
0
LINE
8
0
10
16
20
45.8237364
11
16
21
46.9767847
0
LINE
8
0
10
16
20
46.9767847
11
16
21
50.0565383
0
LINE
8
0
10
16
20
50.0565383
11
16
21
68.6761018
0
LINE
8
0
10
16
20
68.6761018
11
16
21
68.8355804
0
LINE
8
0
10
16
20
68.8355804
11
16
21
68.8762955
0
LINE
8
0
10
16
20
68.8762955
11
15.9916367
21
69.0247409
0
LINE
8
0
10
15.9916367
20
69.0247409
11
15.9869465
21
69.0718682
0
LINE
8
0
10
15.9869465
20
69.0718682
11
15.9297225
21
69.5065184
0
LINE
8
0
10
15.9297225
20
69.5065184
11
15.9154368
21
69.5526784
0
LINE
8
0
10
15.9154368
20
69.5526784
11
15.8930296
21
69.5998036
0
LINE
8
0
10
15.8930296
20
69.5998036
11
15.7275117
21
69.9993995
0
LINE
8
0
10
15.7275117
20
69.9993995
11
15.6974805
21
70.0437007
0
LINE
8
0
10
15.6974805
20
70.0437007
11
15.4372938
21
70.3827768
0
LINE
8
0
10
15.4372938
20
70.3827768
11
15.3982972
21
70.4248238
0
LINE
8
0
10
15.3982972
20
70.4248238
11
15.3535295
21
70.4611239
0
LINE
8
0
10
15.3535295
20
70.4611239
11
15.027101
21
70.7116056
0
LINE
8
0
10
15.027101
20
70.7116056
11
14.9773167
21
70.7418041
0
LINE
8
0
10
14.9773167
20
70.7418041
11
14.9114674
21
70.7709555
0
LINE
8
0
10
14.9114674
20
70.7709555
11
14.5552769
21
70.9184944
0
LINE
8
0
10
14.5552769
20
70.9184944
11
14.4848725
21
70.9385839
0
LINE
8
0
10
14.4848725
20
70.9385839
11
14.1223613
21
70.9863104
0
LINE
8
0
10
14.1223613
20
70.9863104
11
13.9939096
21
71
0
LINE
8
0
10
13.9939096
20
71
11
13.987697
21
71
0
LINE
8
0
10
13.987697
20
71
11
13.9812374
21
71
0
LINE
8
0
10
13.9812374
20
71
11
13.9743803
21
71
0
LINE
8
0
10
13.9743803
20
71
11
13.9669393
21
71
0
LINE
8
0
10
13.9669393
20
71
11
13.9586716
21
71
0
LINE
8
0
10
13.9586716
20
71
11
13.9492394
21
71
0
LINE
8
0
10
13.9492394
20
71
11
13.9381477
21
71
0
LINE
8
0
10
13.9381477
20
71
11
13.0684578
21
71
0
LINE
8
0
10
13.0684578
20
71
11
12.4112628
21
71
0
LINE
8
0
10
12.4112628
20
71
11
4.4
21
71
0
LINE
8
0
10
4.4
20
71
11
4.32912727
21
70.9906692
0
LINE
8
0
10
4.32912727
20
70.9906692
11
3.882362
21
70.93185
0
LINE
8
0
10
3.882362
20
70.93185
11
3.81631911
21
70.9044943
0
LINE
8
0
10
3.81631911
20
70.9044943
11
3.4
21
70.73205
0
LINE
8
0
10
3.4
20
70.73205
11
3.34328763
21
70.6885327
0
LINE
8
0
10
3.34328763
20
70.6885327
11
2.985786
21
70.41421
0
LINE
8
0
10
2.985786
20
70.41421
11
2.94226915
21
70.3574982
0
LINE
8
0
10
2.94226915
20
70.3574982
11
2.667949
21
70
0
LINE
8
0
10
2.667949
20
70
11
2.64059312
21
69.9339574
0
LINE
8
0
10
2.64059312
20
69.9339574
11
2.468148
21
69.51764
0
LINE
8
0
10
2.468148
20
69.51764
11
2.40933053
21
69.070873
0
LINE
8
0
10
2.40933053
20
69.070873
11
2.4
21
69
0
LINE
8
0
10
2.4
20
69
11
2.4
21
68.3257726
0
LINE
8
0
10
2.4
20
68.3257726
11
2.4
21
68.2684323
0
LINE
8
0
10
2.4
20
68.2684323
11
2.4
21
68.2039044
0
LINE
8
0
10
2.4
20
68.2039044
11
2.4
21
68.1380971
0
LINE
8
0
10
2.4
20
68.1380971
11
2.4
21
64.3178971
0
LINE
8
0
10
2.4
20
64.3178971
11
2.4
21
51.6438399
0
LINE
8
0
10
2.4
20
51.6438399
11
2.4
21
50.0565383
0
LINE
8
0
10
2.4
20
50.0565383
11
2.4
21
46.9767847
0
LINE
8
0
10
2.4
20
46.9767847
11
2.4
21
45.8237364
0
LINE
8
0
10
2.4
20
45.8237364
11
2.4
21
43.0423721
0
LINE
8
0
10
2.4
20
43.0423721
11
2.4
21
40.8172807
0
LINE
8
0
10
2.4
20
40.8172807
11
10.2621009
21
40.8172807
0
LINE
8
0
10
10.2621009
20
40.8172807
11
16
21
40.8172807
0
LINE
8
0
10
16
20
40.8172807
11
16
21
40.8172807
0
ENDSEC
0
EOF
