0
SECTION
2
ENTITIES
0
LINE
8
0
10
16
20
10.1274003
11
16
21
7.35023483
0
LINE
8
0
10
16
20
7.35023483
11
16
21
-4.39084826
0
LINE
8
0
10
16
20
-4.39084826
11
16
21
-10.0365725
0
LINE
8
0
10
16
20
-10.0365725
11
16
21
-10.3597949
0
LINE
8
0
10
16
20
-10.3597949
11
16
21
-10.7132415
0
LINE
8
0
10
16
20
-10.7132415
11
16
21
-11.0679872
0
LINE
8
0
10
16
20
-11.0679872
11
16
21
-11.1861558
0
LINE
8
0
10
16
20
-11.1861558
11
16
21
-11.2980151
0
LINE
8
0
10
16
20
-11.2980151
11
16
21
-11.6341275
0
LINE
8
0
10
16
20
-11.6341275
11
16
21
-11.742641
0
LINE
8
0
10
16
20
-11.742641
11
16
21
-12.0402635
0
LINE
8
0
10
16
20
-12.0402635
11
16
21
-12.2845685
0
LINE
8
0
10
16
20
-12.2845685
11
16
21
-14
0
LINE
8
0
10
16
20
-14
11
15.9882413
21
-14.1941665
0
LINE
8
0
10
15.9882413
20
-14.1941665
11
15.9642588
21
-14.3480817
0
LINE
8
0
10
15.9642588
20
-14.3480817
11
15.9393928
21
-14.4866997
0
LINE
8
0
10
15.9393928
20
-14.4866997
11
15.8497984
21
-14.7345173
0
LINE
8
0
10
15.8497984
20
-14.7345173
11
15.7663168
21
-14.9360598
0
LINE
8
0
10
15.7663168
20
-14.9360598
11
15.6377416
21
-15.1382319
0
LINE
8
0
10
15.6377416
20
-15.1382319
11
15.4995754
21
-15.3182905
0
LINE
8
0
10
15.4995754
20
-15.3182905
11
15.3528645
21
-15.4709475
0
LINE
8
0
10
15.3528645
20
-15.4709475
11
15.165967
21
-15.6144275
0
LINE
8
0
10
15.165967
20
-15.6144275
11
15.0010867
21
-15.7312191
0
LINE
8
0
10
15.0010867
20
-15.7312191
11
14.8327584
21
-15.8093462
0
LINE
8
0
10
14.8327584
20
-15.8093462
11
14.5968958
21
-15.9071085
0
LINE
8
0
10
14.5968958
20
-15.9071085
11
14.4261287
21
-15.9515934
0
LINE
8
0
10
14.4261287
20
-15.9515934
11
14.269765
21
-15.964484
0
LINE
8
0
10
14.269765
20
-15.964484
11
14
21
-16
0
LINE
8
0
10
14
20
-16
11
11.4985078
21
-16
0
LINE
8
0
10
11.4985078
20
-16
11
4.4
21
-16
0
LINE
8
0
10
4.4
20
-16
11
4.21859663
21
-15.9846432
0
LINE
8
0
10
4.21859663
20
-15.9846432
11
4.00125711
21
-15.9475032
0
LINE
8
0
10
4.00125711
20
-15.9475032
11
3.882362
21
-15.93185
0
LINE
8
0
10
3.882362
20
-15.93185
11
3.62246154
21
-15.8243414
0
LINE
8
0
10
3.62246154
20
-15.8243414
11
3.40124891
21
-15.7327741
0
LINE
8
0
10
3.40124891
20
-15.7327741
11
3.17643824
21
-15.5604338
0
LINE
8
0
10
3.17643824
20
-15.5604338
11
2.985786
21
-15.41421
0
LINE
8
0
10
2.985786
20
-15.41421
11
2.81395547
21
-15.1902778
0
LINE
8
0
10
2.81395547
20
-15.1902778
11
2.667949
21
-15
0
LINE
8
0
10
2.667949
20
-15
11
2.55993165
21
-14.7392243
0
LINE
8
0
10
2.55993165
20
-14.7392243
11
2.468148
21
-14.51764
0
LINE
8
0
10
2.468148
20
-14.51764
11
2.44972675
21
-14.3777155
0
LINE
8
0
10
2.44972675
20
-14.3777155
11
2.4
21
-14
0
LINE
8
0
10
2.4
20
-14
11
2.4
21
-13.9788099
0
LINE
8
0
10
2.4
20
-13.9788099
11
2.4
21
-8.12391785
0
LINE
8
0
10
2.4
20
-8.12391785
11
2.4
21
-7.9024125
0
LINE
8
0
10
2.4
20
-7.9024125
11
2.4
21
-7.52557961
0
LINE
8
0
10
2.4
20
-7.52557961
11
2.4
21
1.02059438
0
LINE
8
0
10
2.4
20
1.02059438
11
2.4
21
1.23380929
0
LINE
8
0
10
2.4
20
1.23380929
11
2.4
21
1.49205344
0
LINE
8
0
10
2.4
20
1.49205344
11
2.4
21
1.77207819
0
LINE
8
0
10
2.4
20
1.77207819
11
2.4
21
6.4196802
0
LINE
8
0
10
2.4
20
6.4196802
11
2.4
21
6.52772491
0
LINE
8
0
10
2.4
20
6.52772491
11
2.4
21
8.64919888
0
LINE
8
0
10
2.4
20
8.64919888
11
2.4
21
11.3381519
0
LINE
8
0
10
2.4
20
11.3381519
11
2.4
21
12.9490288
0
LINE
8
0
10
2.4
20
12.9490288
11
2.4
21
16.1707915
0
LINE
8
0
10
2.4
20
16.1707915
11
2.4
21
17.2334806
0
LINE
8
0
10
2.4
20
17.2334806
11
2.4
21
18.5087049
0
LINE
8
0
10
2.4
20
18.5087049
11
12.3285575
21
18.5087049
0
LINE
8
0
10
12.3285575
20
18.5087049
11
16
21
18.5087049
0
LINE
8
0
10
16
20
18.5087049
11
16
21
16.1707915
0
LINE
8
0
10
16
20
16.1707915
11
16
21
12.9490288
0
LINE
8
0
10
16
20
12.9490288
11
16
21
10.1274003
0
LINE
8
0
10
16
20
10.1274003
11
16
21
10.1274003
0
LINE
8
0
10
16
20
69
11
16
21
68.8861049
0
LINE
8
0
10
16
20
68.8861049
11
16
21
68.8671116
0
LINE
8
0
10
16
20
68.8671116
11
16
21
68.8467951
0
LINE
8
0
10
16
20
68.8467951
11
16
21
68.8270077
0
LINE
8
0
10
16
20
68.8270077
11
16
21
68.0513588
0
LINE
8
0
10
16
20
68.0513588
11
16
21
50.1360944
0
LINE
8
0
10
16
20
50.1360944
11
16
21
46.8972288
0
LINE
8
0
10
16
20
46.8972288
11
16
21
46.2215162
0
LINE
8
0
10
16
20
46.2215162
11
16
21
40.4195004
0
LINE
8
0
10
16
20
40.4195004
11
11.5114425
21
40.4195004
0
LINE
8
0
10
11.5114425
20
40.4195004
11
2.4
21
40.4195004
0
LINE
8
0
10
2.4
20
40.4195004
11
2.4
21
42.9981741
0
LINE
8
0
10
2.4
20
42.9981741
11
2.4
21
46.2215162
0
LINE
8
0
10
2.4
20
46.2215162
11
2.4
21
46.8972288
0
LINE
8
0
10
2.4
20
46.8972288
11
2.4
21
50.1360944
0
LINE
8
0
10
2.4
20
50.1360944
11
2.4
21
51.6040619
0
LINE
8
0
10
2.4
20
51.6040619
11
2.4
21
63.3252775
0
LINE
8
0
10
2.4
20
63.3252775
11
2.4
21
67.9553712
0
LINE
8
0
10
2.4
20
67.9553712
11
2.4
21
68.0351298
0
LINE
8
0
10
2.4
20
68.0351298
11
2.4
21
68.1133378
0
LINE
8
0
10
2.4
20
68.1133378
11
2.4
21
68.1828344
0
LINE
8
0
10
2.4
20
68.1828344
11
2.4
21
69
0
LINE
8
0
10
2.4
20
69
11
2.41130862
21
69.0858983
0
LINE
8
0
10
2.41130862
20
69.0858983
11
2.468148
21
69.51764
0
LINE
8
0
10
2.468148
20
69.51764
11
2.63479359
21
69.9199562
0
LINE
8
0
10
2.63479359
20
69.9199562
11
2.667949
21
70
0
LINE
8
0
10
2.667949
20
70
11
2.93304345
21
70.3454751
0
LINE
8
0
10
2.93304345
20
70.3454751
11
2.985786
21
70.41421
0
LINE
8
0
10
2.985786
20
70.41421
11
3.33126444
21
70.679307
0
LINE
8
0
10
3.33126444
20
70.679307
11
3.4
21
70.73205
0
LINE
8
0
10
3.4
20
70.73205
11
3.80231782
21
70.8986948
0
LINE
8
0
10
3.80231782
20
70.8986948
11
3.882362
21
70.93185
0
LINE
8
0
10
3.882362
20
70.93185
11
4.31410204
21
70.988691
0
LINE
8
0
10
4.31410204
20
70.988691
11
4.4
21
71
0
LINE
8
0
10
4.4
20
71
11
12.2864488
21
71
0
LINE
8
0
10
12.2864488
20
71
11
13.0829711
21
71
0
LINE
8
0
10
13.0829711
20
71
11
14
21
71
0
LINE
8
0
10
14
20
71
11
14.0111675
21
70.9985297
0
LINE
8
0
10
14.0111675
20
70.9985297
11
14.51764
21
70.93185
0
LINE
8
0
10
14.51764
20
70.93185
11
14.9895936
21
70.7363605
0
LINE
8
0
10
14.9895936
20
70.7363605
11
15
21
70.73205
0
LINE
8
0
10
15
20
70.73205
11
15.4052739
21
70.4210671
0
LINE
8
0
10
15.4052739
20
70.4210671
11
15.41421
21
70.41421
0
LINE
8
0
10
15.41421
20
70.41421
11
15.7251929
21
70.0089361
0
LINE
8
0
10
15.7251929
20
70.0089361
11
15.73205
21
70
0
LINE
8
0
10
15.73205
20
70
11
15.9275395
21
69.5280464
0
LINE
8
0
10
15.9275395
20
69.5280464
11
15.93185
21
69.51764
0
LINE
8
0
10
15.93185
20
69.51764
11
15.9985297
21
69.0111675
0
LINE
8
0
10
15.9985297
20
69.0111675
11
16
21
69
0
LINE
8
0
10
16
20
69
11
16
21
69
0
LINE
8
0
10
16
20
37.5612596
11
16
21
31.7592438
0
LINE
8
0
10
16
20
31.7592438
11
16
21
27.1689562
0
LINE
8
0
10
16
20
27.1689562
11
16
21
24.8310424
0
LINE
8
0
10
16
20
24.8310424
11
6.07144248
21
24.8310424
0
LINE
8
0
10
6.07144248
20
24.8310424
11
2.4
21
24.8310424
0
LINE
8
0
10
2.4
20
24.8310424
11
2.4
21
25.8701152
0
LINE
8
0
10
2.4
20
25.8701152
11
2.4
21
27.1689562
0
LINE
8
0
10
2.4
20
27.1689562
11
2.4
21
29.9231288
0
LINE
8
0
10
2.4
20
29.9231288
11
2.4
21
31.7592438
0
LINE
8
0
10
2.4
20
31.7592438
11
2.4
21
34.3965237
0
LINE
8
0
10
2.4
20
34.3965237
11
2.4
21
37.5612596
0
LINE
8
0
10
2.4
20
37.5612596
11
6.88855752
21
37.5612596
0
LINE
8
0
10
6.88855752
20
37.5612596
11
16
21
37.5612596
0
LINE
8
0
10
16
20
37.5612596
11
16
21
37.5612596
0
ENDSEC
0
EOF
