0
SECTION
2
ENTITIES
0
LINE
8
0
10
16
20
68.720803
11
16
21
69
0
LINE
8
0
10
16
20
69
11
15.9963959
21
69.0273755
0
LINE
8
0
10
15.9963959
20
69.0273755
11
15.93185
21
69.51764
0
LINE
8
0
10
15.93185
20
69.51764
11
15.9212835
21
69.5431497
0
LINE
8
0
10
15.9212835
20
69.5431497
11
15.73205
21
70
0
LINE
8
0
10
15.73205
20
70
11
15.715241
21
70.0219056
0
LINE
8
0
10
15.715241
20
70.0219056
11
15.41421
21
70.41421
0
LINE
8
0
10
15.41421
20
70.41421
11
15.3923044
21
70.431019
0
LINE
8
0
10
15.3923044
20
70.431019
11
15
21
70.73205
0
LINE
8
0
10
15
20
70.73205
11
14.9744903
21
70.7426165
0
LINE
8
0
10
14.9744903
20
70.7426165
11
14.51764
21
70.93185
0
LINE
8
0
10
14.51764
20
70.93185
11
14.0273755
21
70.9963959
0
LINE
8
0
10
14.0273755
20
70.9963959
11
14
21
71
0
LINE
8
0
10
14
20
71
11
13.0974843
21
71
0
LINE
8
0
10
13.0974843
20
71
11
12.1616348
21
71
0
LINE
8
0
10
12.1616348
20
71
11
4.4
21
71
0
LINE
8
0
10
4.4
20
71
11
4.29907682
21
70.9867129
0
LINE
8
0
10
4.29907682
20
70.9867129
11
3.882362
21
70.93185
0
LINE
8
0
10
3.882362
20
70.93185
11
3.78831653
21
70.8928953
0
LINE
8
0
10
3.78831653
20
70.8928953
11
3.4
21
70.73205
0
LINE
8
0
10
3.4
20
70.73205
11
3.31924125
21
70.6700812
0
LINE
8
0
10
3.31924125
20
70.6700812
11
2.985786
21
70.41421
0
LINE
8
0
10
2.985786
20
70.41421
11
2.92381775
21
70.333452
0
LINE
8
0
10
2.92381775
20
70.333452
11
2.667949
21
70
0
LINE
8
0
10
2.667949
20
70
11
2.62899407
21
69.9059549
0
LINE
8
0
10
2.62899407
20
69.9059549
11
2.468148
21
69.51764
0
LINE
8
0
10
2.468148
20
69.51764
11
2.41328672
21
69.1009236
0
LINE
8
0
10
2.41328672
20
69.1009236
11
2.4
21
69
0
LINE
8
0
10
2.4
20
69
11
2.4
21
68.0398962
0
LINE
8
0
10
2.4
20
68.0398962
11
2.4
21
67.9582433
0
LINE
8
0
10
2.4
20
67.9582433
11
2.4
21
67.8663551
0
LINE
8
0
10
2.4
20
67.8663551
11
2.4
21
67.7726452
0
LINE
8
0
10
2.4
20
67.7726452
11
2.4
21
62.3326578
0
LINE
8
0
10
2.4
20
62.3326578
11
2.4
21
51.5642839
0
LINE
8
0
10
2.4
20
51.5642839
11
2.4
21
50.2156505
0
LINE
8
0
10
2.4
20
50.2156505
11
2.4
21
46.8176728
0
LINE
8
0
10
2.4
20
46.8176728
11
2.4
21
46.619296
0
LINE
8
0
10
2.4
20
46.619296
11
2.4
21
42.9539761
0
LINE
8
0
10
2.4
20
42.9539761
11
2.4
21
40.0217201
0
LINE
8
0
10
2.4
20
40.0217201
11
12.7607841
21
40.0217201
0
LINE
8
0
10
12.7607841
20
40.0217201
11
16
21
40.0217201
0
LINE
8
0
10
16
20
40.0217201
11
16
21
46.619296
0
LINE
8
0
10
16
20
46.619296
11
16
21
46.8176728
0
LINE
8
0
10
16
20
46.8176728
11
16
21
50.2156505
0
LINE
8
0
10
16
20
50.2156505
11
16
21
66.6745463
0
LINE
8
0
10
16
20
66.6745463
11
16
21
68.5759349
0
LINE
8
0
10
16
20
68.5759349
11
16
21
68.6244407
0
LINE
8
0
10
16
20
68.6244407
11
16
21
68.6742438
0
LINE
8
0
10
16
20
68.6742438
11
16
21
68.720803
0
LINE
8
0
10
16
20
68.720803
11
16
21
68.720803
0
LINE
8
0
10
16
20
-11.0281585
11
16
21
-10.9128996
0
LINE
8
0
10
16
20
-10.9128996
11
16
21
-10.5355321
0
LINE
8
0
10
16
20
-10.5355321
11
16
21
-10.1595464
0
LINE
8
0
10
16
20
-10.1595464
11
16
21
-9.81571235
0
LINE
8
0
10
16
20
-9.81571235
11
16
21
-3.80996457
0
LINE
8
0
10
16
20
-3.80996457
11
16
21
7.3722831
0
LINE
8
0
10
16
20
7.3722831
11
16
21
10.3265463
0
LINE
8
0
10
16
20
10.3265463
11
16
21
12.8694728
0
LINE
8
0
10
16
20
12.8694728
11
16
21
15.7730109
0
LINE
8
0
10
16
20
15.7730109
11
16
21
18.9064842
0
LINE
8
0
10
16
20
18.9064842
11
11.0792159
21
18.9064842
0
LINE
8
0
10
11.0792159
20
18.9064842
11
2.4
21
18.9064842
0
LINE
8
0
10
2.4
20
18.9064842
11
2.4
21
17.1973186
0
LINE
8
0
10
2.4
20
17.1973186
11
2.4
21
15.7730109
0
LINE
8
0
10
2.4
20
15.7730109
11
2.4
21
12.8694728
0
LINE
8
0
10
2.4
20
12.8694728
11
2.4
21
11.4177078
0
LINE
8
0
10
2.4
20
11.4177078
11
2.4
21
8.6094209
0
LINE
8
0
10
2.4
20
8.6094209
11
2.4
21
6.58892184
0
LINE
8
0
10
2.4
20
6.58892184
11
2.4
21
6.48601969
0
LINE
8
0
10
2.4
20
6.48601969
11
2.4
21
1.71099607
0
LINE
8
0
10
2.4
20
1.71099607
11
2.4
21
1.42329398
0
LINE
8
0
10
2.4
20
1.42329398
11
2.4
21
1.15796965
0
LINE
8
0
10
2.4
20
1.15796965
11
2.4
21
0.938909111
0
LINE
8
0
10
2.4
20
0.938909111
11
2.4
21
-7.44217783
0
LINE
8
0
10
2.4
20
-7.44217783
11
2.4
21
-7.82427124
0
LINE
8
0
10
2.4
20
-7.82427124
11
2.4
21
-8.04163623
0
LINE
8
0
10
2.4
20
-8.04163623
11
2.4
21
-13.9785131
0
LINE
8
0
10
2.4
20
-13.9785131
11
2.4
21
-14
0
LINE
8
0
10
2.4
20
-14
11
2.45042306
21
-14.3830045
0
LINE
8
0
10
2.45042306
20
-14.3830045
11
2.468148
21
-14.51764
0
LINE
8
0
10
2.468148
20
-14.51764
11
2.56401465
21
-14.7490815
0
LINE
8
0
10
2.56401465
20
-14.7490815
11
2.667949
21
-15
0
LINE
8
0
10
2.667949
20
-15
11
2.82045057
21
-15.1987424
0
LINE
8
0
10
2.82045057
20
-15.1987424
11
2.985786
21
-15.41421
0
LINE
8
0
10
2.985786
20
-15.41421
11
3.18491941
21
-15.5669385
0
LINE
8
0
10
3.18491941
20
-15.5669385
11
3.40123235
21
-15.7327645
0
LINE
8
0
10
3.40123235
20
-15.7327645
11
3.63228565
21
-15.8284051
0
LINE
8
0
10
3.63228565
20
-15.8284051
11
3.882362
21
-15.93185
0
LINE
8
0
10
3.882362
20
-15.93185
11
4.00654616
21
-15.9481996
0
LINE
8
0
10
4.00654616
20
-15.9481996
11
4.22100282
21
-15.9848469
0
LINE
8
0
10
4.22100282
20
-15.9848469
11
4.4
21
-16
0
LINE
8
0
10
4.4
20
-16
11
11.4043509
21
-16
0
LINE
8
0
10
11.4043509
20
-16
11
14
21
-16
0
LINE
8
0
10
14
20
-16
11
14.279919
21
-15.9631472
0
LINE
8
0
10
14.279919
20
-15.9631472
11
14.4298774
21
-15.9507847
0
LINE
8
0
10
14.4298774
20
-15.9507847
11
14.5936492
21
-15.908122
0
LINE
8
0
10
14.5936492
20
-15.908122
11
14.8396417
21
-15.806161
0
LINE
8
0
10
14.8396417
20
-15.806161
11
15.0010746
21
-15.7312343
0
LINE
8
0
10
15.0010746
20
-15.7312343
11
15.1592006
21
-15.619227
0
LINE
8
0
10
15.1592006
20
-15.619227
11
15.3553775
21
-15.4686233
0
LINE
8
0
10
15.3553775
20
-15.4686233
11
15.4960784
21
-15.3222198
0
LINE
8
0
10
15.4960784
20
-15.3222198
11
15.6416049
21
-15.1325693
0
LINE
8
0
10
15.6416049
20
-15.1325693
11
15.7649131
21
-14.9386791
0
LINE
8
0
10
15.7649131
20
-14.9386791
11
15.8531596
21
-14.7256331
0
LINE
8
0
10
15.8531596
20
-14.7256331
11
15.9390838
21
-14.4879672
0
LINE
8
0
10
15.9390838
20
-14.4879672
11
15.9629312
21
-14.3550275
0
LINE
8
0
10
15.9629312
20
-14.3550275
11
15.9883973
21
-14.191591
0
LINE
8
0
10
15.9883973
20
-14.191591
11
16
21
-14
0
LINE
8
0
10
16
20
-14
11
16
21
-12.1766897
0
LINE
8
0
10
16
20
-12.1766897
11
16
21
-11.9170211
0
LINE
8
0
10
16
20
-11.9170211
11
16
21
-11.600682
0
LINE
8
0
10
16
20
-11.600682
11
16
21
-11.4946765
0
LINE
8
0
10
16
20
-11.4946765
11
16
21
-11.1372635
0
LINE
8
0
10
16
20
-11.1372635
11
16
21
-11.0281585
0
LINE
8
0
10
16
20
-11.0281585
11
16
21
-11.0281585
0
LINE
8
0
10
16
20
24.4332621
11
16
21
27.566736
0
LINE
8
0
10
16
20
27.566736
11
16
21
31.361464
0
LINE
8
0
10
16
20
31.361464
11
16
21
37.9590399
0
LINE
8
0
10
16
20
37.9590399
11
5.6392159
21
37.9590399
0
LINE
8
0
10
5.6392159
20
37.9590399
11
2.4
21
37.9590399
0
LINE
8
0
10
2.4
20
37.9590399
11
2.4
21
34.3603621
0
LINE
8
0
10
2.4
20
34.3603621
11
2.4
21
31.361464
0
LINE
8
0
10
2.4
20
31.361464
11
2.4
21
29.8435728
0
LINE
8
0
10
2.4
20
29.8435728
11
2.4
21
27.566736
0
LINE
8
0
10
2.4
20
27.566736
11
2.4
21
25.8259172
0
LINE
8
0
10
2.4
20
25.8259172
11
2.4
21
24.4332621
0
LINE
8
0
10
2.4
20
24.4332621
11
7.3207841
21
24.4332621
0
LINE
8
0
10
7.3207841
20
24.4332621
11
16
21
24.4332621
0
LINE
8
0
10
16
20
24.4332621
11
16
21
24.4332621
0
ENDSEC
0
EOF
