0
SECTION
2
ENTITIES
0
LINE
8
0
10
15.9616036
20
-14.3619733
11
15.9387748
21
-14.4892346
0
LINE
8
0
10
15.9387748
20
-14.4892346
11
15.8565207
21
-14.7167489
0
LINE
8
0
10
15.8565207
20
-14.7167489
11
15.7635093
21
-14.9412983
0
LINE
8
0
10
15.7635093
20
-14.9412983
11
15.6454682
21
-15.1269067
0
LINE
8
0
10
15.6454682
20
-15.1269067
11
15.4925815
21
-15.3261491
0
LINE
8
0
10
15.4925815
20
-15.3261491
11
15.3578905
21
-15.466299
0
LINE
8
0
10
15.3578905
20
-15.466299
11
15.1524342
21
-15.6240265
0
LINE
8
0
10
15.1524342
20
-15.6240265
11
15.0010624
21
-15.7312495
0
LINE
8
0
10
15.0010624
20
-15.7312495
11
14.846525
21
-15.8029757
0
LINE
8
0
10
14.846525
20
-15.8029757
11
14.5904025
21
-15.9091355
0
LINE
8
0
10
14.5904025
20
-15.9091355
11
14.4336261
21
-15.9499759
0
LINE
8
0
10
14.4336261
20
-15.9499759
11
14.290073
21
-15.9618104
0
LINE
8
0
10
14.290073
20
-15.9618104
11
14
21
-16
0
LINE
8
0
10
14
20
-16
11
11.310194
21
-16
0
LINE
8
0
10
11.310194
20
-16
11
4.4
21
-16
0
LINE
8
0
10
4.4
20
-16
11
4.22340902
21
-15.9850506
0
LINE
8
0
10
4.22340902
20
-15.9850506
11
4.01183522
21
-15.9488959
0
LINE
8
0
10
4.01183522
20
-15.9488959
11
3.882362
21
-15.93185
0
LINE
8
0
10
3.882362
20
-15.93185
11
3.64210975
21
-15.8324689
0
LINE
8
0
10
3.64210975
20
-15.8324689
11
3.4012158
21
-15.7327549
0
LINE
8
0
10
3.4012158
20
-15.7327549
11
3.19340058
21
-15.5734433
0
LINE
8
0
10
3.19340058
20
-15.5734433
11
2.985786
21
-15.41421
0
LINE
8
0
10
2.985786
20
-15.41421
11
2.82694568
21
-15.2072069
0
LINE
8
0
10
2.82694568
20
-15.2072069
11
2.667949
21
-15
0
LINE
8
0
10
2.667949
20
-15
11
2.56809765
21
-14.7589386
0
LINE
8
0
10
2.56809765
20
-14.7589386
11
2.468148
21
-14.51764
0
LINE
8
0
10
2.468148
20
-14.51764
11
2.45111937
21
-14.3882936
0
LINE
8
0
10
2.45111937
20
-14.3882936
11
2.4
21
-14
0
LINE
8
0
10
2.4
20
-14
11
2.4
21
-13.9782164
0
LINE
8
0
10
2.4
20
-13.9782164
11
2.4
21
-7.95935461
0
LINE
8
0
10
2.4
20
-7.95935461
11
2.4
21
-7.74612998
0
LINE
8
0
10
2.4
20
-7.74612998
11
2.4
21
-7.35877606
0
LINE
8
0
10
2.4
20
-7.35877606
11
2.4
21
0.857223836
0
LINE
8
0
10
2.4
20
0.857223836
11
2.4
21
1.08213001
0
LINE
8
0
10
2.4
20
1.08213001
11
2.4
21
1.35453453
0
LINE
8
0
10
2.4
20
1.35453453
11
2.4
21
1.64991395
0
LINE
8
0
10
2.4
20
1.64991395
11
2.4
21
6.55235918
0
LINE
8
0
10
2.4
20
6.55235918
11
2.4
21
6.65011877
0
LINE
8
0
10
2.4
20
6.65011877
11
2.4
21
8.56964291
0
LINE
8
0
10
2.4
20
8.56964291
11
2.4
21
11.4972637
0
LINE
8
0
10
2.4
20
11.4972637
11
2.4
21
12.7899168
0
LINE
8
0
10
2.4
20
12.7899168
11
2.4
21
15.3752304
0
LINE
8
0
10
2.4
20
15.3752304
11
2.4
21
17.1611566
0
LINE
8
0
10
2.4
20
17.1611566
11
2.4
21
19.3042636
0
LINE
8
0
10
2.4
20
19.3042636
11
9.82987429
21
19.3042636
0
LINE
8
0
10
9.82987429
20
19.3042636
11
16
21
19.3042636
0
LINE
8
0
10
16
20
19.3042636
11
16
21
15.3752304
0
LINE
8
0
10
16
20
15.3752304
11
16
21
12.7899168
0
LINE
8
0
10
16
20
12.7899168
11
16
21
10.5256923
0
LINE
8
0
10
16
20
10.5256923
11
16
21
7.39433137
0
LINE
8
0
10
16
20
7.39433137
11
16
21
-3.22908088
0
LINE
8
0
10
16
20
-3.22908088
11
16
21
-9.59485221
0
LINE
8
0
10
16
20
-9.59485221
11
16
21
-9.95929786
0
LINE
8
0
10
16
20
-9.95929786
11
16
21
-10.3578226
0
LINE
8
0
10
16
20
-10.3578226
11
16
21
-10.757812
0
LINE
8
0
10
16
20
-10.757812
11
16
21
-10.8701613
0
LINE
8
0
10
16
20
-10.8701613
11
16
21
-10.9765119
0
LINE
8
0
10
16
20
-10.9765119
11
16
21
-11.3552256
0
LINE
8
0
10
16
20
-11.3552256
11
16
21
-11.4587229
0
LINE
8
0
10
16
20
-11.4587229
11
16
21
-11.7937786
0
LINE
8
0
10
16
20
-11.7937786
11
16
21
-12.068811
0
LINE
8
0
10
16
20
-12.068811
11
16
21
-14
0
LINE
8
0
10
16
20
-14
11
15.9885533
21
-14.1890155
0
LINE
8
0
10
15.9885533
20
-14.1890155
11
15.9616036
21
-14.3619733
0
LINE
8
0
10
15.9616036
20
-14.3619733
11
15.9616036
21
-14.3619733
0
LINE
8
0
10
16
20
47.0170761
11
16
21
50.2952066
0
LINE
8
0
10
16
20
50.2952066
11
16
21
65.2977338
0
LINE
8
0
10
16
20
65.2977338
11
16
21
68.324862
0
LINE
8
0
10
16
20
68.324862
11
16
21
68.4020864
0
LINE
8
0
10
16
20
68.4020864
11
16
21
68.481376
0
LINE
8
0
10
16
20
68.481376
11
16
21
68.5555011
0
LINE
8
0
10
16
20
68.5555011
11
16
21
69
0
LINE
8
0
10
16
20
69
11
15.994262
21
69.0435835
0
LINE
8
0
10
15.994262
20
69.0435835
11
15.93185
21
69.51764
0
LINE
8
0
10
15.93185
20
69.51764
11
15.9150275
21
69.5582531
0
LINE
8
0
10
15.9150275
20
69.5582531
11
15.73205
21
70
0
LINE
8
0
10
15.73205
20
70
11
15.705289
21
70.0348751
0
LINE
8
0
10
15.705289
20
70.0348751
11
15.41421
21
70.41421
0
LINE
8
0
10
15.41421
20
70.41421
11
15.3793349
21
70.440971
0
LINE
8
0
10
15.3793349
20
70.440971
11
15
21
70.73205
0
LINE
8
0
10
15
20
70.73205
11
14.9593869
21
70.7488725
0
LINE
8
0
10
14.9593869
20
70.7488725
11
14.51764
21
70.93185
0
LINE
8
0
10
14.51764
20
70.93185
11
14.0435835
21
70.994262
0
LINE
8
0
10
14.0435835
20
70.994262
11
14
21
71
0
LINE
8
0
10
14
20
71
11
13.1119976
21
71
0
LINE
8
0
10
13.1119976
20
71
11
12.0368208
21
71
0
LINE
8
0
10
12.0368208
20
71
11
4.4
21
71
0
LINE
8
0
10
4.4
20
71
11
4.28405159
21
70.9847347
0
LINE
8
0
10
4.28405159
20
70.9847347
11
3.882362
21
70.93185
0
LINE
8
0
10
3.882362
20
70.93185
11
3.77431524
21
70.8870958
0
LINE
8
0
10
3.77431524
20
70.8870958
11
3.4
21
70.73205
0
LINE
8
0
10
3.4
20
70.73205
11
3.30721806
21
70.6608554
0
LINE
8
0
10
3.30721806
20
70.6608554
11
2.985786
21
70.41421
0
LINE
8
0
10
2.985786
20
70.41421
11
2.91459205
21
70.321429
0
LINE
8
0
10
2.91459205
20
70.321429
11
2.667949
21
70
0
LINE
8
0
10
2.667949
20
70
11
2.62319454
21
69.8919537
0
LINE
8
0
10
2.62319454
20
69.8919537
11
2.468148
21
69.51764
0
LINE
8
0
10
2.468148
20
69.51764
11
2.41526482
21
69.1159489
0
LINE
8
0
10
2.41526482
20
69.1159489
11
2.4
21
69
0
LINE
8
0
10
2.4
20
69
11
2.4
21
67.896958
0
LINE
8
0
10
2.4
20
67.896958
11
2.4
21
67.8031488
0
LINE
8
0
10
2.4
20
67.8031488
11
2.4
21
67.6975805
0
LINE
8
0
10
2.4
20
67.6975805
11
2.4
21
67.5899193
0
LINE
8
0
10
2.4
20
67.5899193
11
2.4
21
61.3400381
0
LINE
8
0
10
2.4
20
61.3400381
11
2.4
21
51.5245059
0
LINE
8
0
10
2.4
20
51.5245059
11
2.4
21
50.2952066
0
LINE
8
0
10
2.4
20
50.2952066
11
2.4
21
47.0170761
0
LINE
8
0
10
2.4
20
47.0170761
11
3.13012571
21
47.0170761
0
LINE
8
0
10
3.13012571
20
47.0170761
11
16
21
47.0170761
0
LINE
8
0
10
16
20
47.0170761
11
16
21
47.0170761
0
LINE
8
0
10
16
20
39.6239399
11
16
21
44.692416
0
LINE
8
0
10
16
20
44.692416
11
16
21
46.5521439
0
LINE
8
0
10
16
20
46.5521439
11
15.2698743
21
46.5521439
0
LINE
8
0
10
15.2698743
20
46.5521439
11
2.4
21
46.5521439
0
LINE
8
0
10
2.4
20
46.5521439
11
2.4
21
42.9097781
0
LINE
8
0
10
2.4
20
42.9097781
11
2.4
21
39.6239399
0
LINE
8
0
10
2.4
20
39.6239399
11
14.0101257
21
39.6239399
0
LINE
8
0
10
14.0101257
20
39.6239399
11
16
21
39.6239399
0
LINE
8
0
10
16
20
39.6239399
11
16
21
39.6239399
0
LINE
8
0
10
16
20
38.3568201
11
16
21
30.9636841
0
LINE
8
0
10
16
20
30.9636841
11
16
21
27.9645159
0
LINE
8
0
10
16
20
27.9645159
11
16
21
24.0354819
0
LINE
8
0
10
16
20
24.0354819
11
8.57012571
21
24.0354819
0
LINE
8
0
10
8.57012571
20
24.0354819
11
2.4
21
24.0354819
0
LINE
8
0
10
2.4
20
24.0354819
11
2.4
21
25.7817192
0
LINE
8
0
10
2.4
20
25.7817192
11
2.4
21
27.9645159
0
LINE
8
0
10
2.4
20
27.9645159
11
2.4
21
29.7640168
0
LINE
8
0
10
2.4
20
29.7640168
11
2.4
21
30.9636841
0
LINE
8
0
10
2.4
20
30.9636841
11
2.4
21
34.3242005
0
LINE
8
0
10
2.4
20
34.3242005
11
2.4
21
38.3568201
0
LINE
8
0
10
2.4
20
38.3568201
11
4.38987429
21
38.3568201
0
LINE
8
0
10
4.38987429
20
38.3568201
11
16
21
38.3568201
0
LINE
8
0
10
16
20
38.3568201
11
16
21
38.3568201
0
ENDSEC
0
EOF
