0
SECTION
2
ENTITIES
0
LINE
8
0
10
16
20
-10.1374615
11
16
21
-9.6469847
0
LINE
8
0
10
16
20
-9.6469847
11
16
21
-9.15830387
0
LINE
8
0
10
16
20
-9.15830387
11
16
21
-8.71141164
0
LINE
8
0
10
16
20
-8.71141164
11
16
21
-0.905546126
0
LINE
8
0
10
16
20
-0.905546126
11
16
21
7.48252444
0
LINE
8
0
10
16
20
7.48252444
11
16
21
11.3222763
0
LINE
8
0
10
16
20
11.3222763
11
16
21
12.471693
0
LINE
8
0
10
16
20
12.471693
11
16
21
13.7841081
0
LINE
8
0
10
16
20
13.7841081
11
16
21
20.895381
0
LINE
8
0
10
16
20
20.895381
11
4.83250783
21
20.895381
0
LINE
8
0
10
4.83250783
20
20.895381
11
2.4
21
20.895381
0
LINE
8
0
10
2.4
20
20.895381
11
2.4
21
17.0165086
0
LINE
8
0
10
2.4
20
17.0165086
11
2.4
21
13.7841081
0
LINE
8
0
10
2.4
20
13.7841081
11
2.4
21
12.471693
0
LINE
8
0
10
2.4
20
12.471693
11
2.4
21
11.8154873
0
LINE
8
0
10
2.4
20
11.8154873
11
2.4
21
8.41053099
0
LINE
8
0
10
2.4
20
8.41053099
11
2.4
21
6.89490648
0
LINE
8
0
10
2.4
20
6.89490648
11
2.4
21
6.81771713
0
LINE
8
0
10
2.4
20
6.81771713
11
2.4
21
1.40558548
0
LINE
8
0
10
2.4
20
1.40558548
11
2.4
21
1.07949671
0
LINE
8
0
10
2.4
20
1.07949671
11
2.4
21
0.778771451
0
LINE
8
0
10
2.4
20
0.778771451
11
2.4
21
0.530482739
0
LINE
8
0
10
2.4
20
0.530482739
11
2.4
21
-7.02516896
0
LINE
8
0
10
2.4
20
-7.02516896
11
2.4
21
-7.43356495
0
LINE
8
0
10
2.4
20
-7.43356495
11
2.4
21
-7.63022815
0
LINE
8
0
10
2.4
20
-7.63022815
11
2.4
21
-13.9770295
0
LINE
8
0
10
2.4
20
-13.9770295
11
2.4
21
-14
0
LINE
8
0
10
2.4
20
-14
11
2.45390463
21
-14.4094499
0
LINE
8
0
10
2.45390463
20
-14.4094499
11
2.468148
21
-14.51764
0
LINE
8
0
10
2.468148
20
-14.51764
11
2.58442964
21
-14.7983674
0
LINE
8
0
10
2.58442964
20
-14.7983674
11
2.667949
21
-15
0
LINE
8
0
10
2.667949
20
-15
11
2.8529261
21
-15.241065
0
LINE
8
0
10
2.8529261
20
-15.241065
11
2.985786
21
-15.41421
0
LINE
8
0
10
2.985786
20
-15.41421
11
3.22732528
21
-15.5994624
0
LINE
8
0
10
3.22732528
20
-15.5994624
11
3.40114959
21
-15.7327165
0
LINE
8
0
10
3.40114959
20
-15.7327165
11
3.68140615
21
-15.848724
0
LINE
8
0
10
3.68140615
20
-15.848724
11
3.882362
21
-15.93185
0
LINE
8
0
10
3.882362
20
-15.93185
11
4.03299144
21
-15.9516812
0
LINE
8
0
10
4.03299144
20
-15.9516812
11
4.23303379
21
-15.9858654
0
LINE
8
0
10
4.23303379
20
-15.9858654
11
4.4
21
-16
0
LINE
8
0
10
4.4
20
-16
11
10.9335664
21
-16
0
LINE
8
0
10
10.9335664
20
-16
11
14
21
-16
0
LINE
8
0
10
14
20
-16
11
14.3306892
21
-15.956463
0
LINE
8
0
10
14.3306892
20
-15.956463
11
14.4486209
21
-15.9467408
0
LINE
8
0
10
14.4486209
20
-15.9467408
11
14.5774159
21
-15.9131896
0
LINE
8
0
10
14.5774159
20
-15.9131896
11
14.8740582
21
-15.7902348
0
LINE
8
0
10
14.8740582
20
-15.7902348
11
15.0010138
21
-15.7313102
0
LINE
8
0
10
15.0010138
20
-15.7313102
11
15.1253688
21
-15.6432244
0
LINE
8
0
10
15.1253688
20
-15.6432244
11
15.3679424
21
-15.4570022
0
LINE
8
0
10
15.3679424
20
-15.4570022
11
15.4785938
21
-15.3418662
0
LINE
8
0
10
15.4785938
20
-15.3418662
11
15.6609213
21
-15.1042564
0
LINE
8
0
10
15.6609213
20
-15.1042564
11
15.7578945
21
-14.9517754
0
LINE
8
0
10
15.7578945
20
-14.9517754
11
15.8699655
21
-14.6812119
0
LINE
8
0
10
15.8699655
20
-14.6812119
11
15.9375389
21
-14.4943044
0
LINE
8
0
10
15.9375389
20
-14.4943044
11
15.9562932
21
-14.3897567
0
LINE
8
0
10
15.9562932
20
-14.3897567
11
15.9891771
21
-14.1787136
0
LINE
8
0
10
15.9891771
20
-14.1787136
11
16
21
-14
0
LINE
8
0
10
16
20
-14
11
16
21
-11.637296
0
LINE
8
0
10
16
20
-11.637296
11
16
21
-11.3008089
0
LINE
8
0
10
16
20
-11.3008089
11
16
21
-10.8908866
0
LINE
8
0
10
16
20
-10.8908866
11
16
21
-10.7974216
0
LINE
8
0
10
16
20
-10.7974216
11
16
21
-10.3335055
0
LINE
8
0
10
16
20
-10.3335055
11
16
21
-10.2381721
0
LINE
8
0
10
16
20
-10.2381721
11
16
21
-10.1374615
0
LINE
8
0
10
16
20
-10.1374615
11
16
21
-10.1374615
0
LINE
8
0
10
16
20
67.3205708
11
16
21
67.512669
0
LINE
8
0
10
16
20
67.512669
11
16
21
67.7099046
0
LINE
8
0
10
16
20
67.7099046
11
16
21
67.8942936
0
LINE
8
0
10
16
20
67.8942936
11
16
21
69
0
LINE
8
0
10
16
20
69
11
15.9857265
21
69.1084155
0
LINE
8
0
10
15.9857265
20
69.1084155
11
15.93185
21
69.51764
0
LINE
8
0
10
15.93185
20
69.51764
11
15.8900035
21
69.6186664
0
LINE
8
0
10
15.8900035
20
69.6186664
11
15.73205
21
70
0
LINE
8
0
10
15.73205
20
70
11
15.665481
21
70.086753
0
LINE
8
0
10
15.665481
20
70.086753
11
15.41421
21
70.41421
0
LINE
8
0
10
15.41421
20
70.41421
11
15.327457
21
70.480779
0
LINE
8
0
10
15.327457
20
70.480779
11
15
21
70.73205
0
LINE
8
0
10
15
20
70.73205
11
14.8989736
21
70.7738965
0
LINE
8
0
10
14.8989736
20
70.7738965
11
14.51764
21
70.93185
0
LINE
8
0
10
14.51764
20
70.93185
11
14.1084155
21
70.9857265
0
LINE
8
0
10
14.1084155
20
70.9857265
11
14
21
71
0
LINE
8
0
10
14
20
71
11
13.1700506
21
71
0
LINE
8
0
10
13.1700506
20
71
11
11.5375647
21
71
0
LINE
8
0
10
11.5375647
20
71
11
4.4
21
71
0
LINE
8
0
10
4.4
20
71
11
4.22395067
21
70.9768221
0
LINE
8
0
10
4.22395067
20
70.9768221
11
3.882362
21
70.93185
0
LINE
8
0
10
3.882362
20
70.93185
11
3.71831008
21
70.8638978
0
LINE
8
0
10
3.71831008
20
70.8638978
11
3.4
21
70.73205
0
LINE
8
0
10
3.4
20
70.73205
11
3.2591253
21
70.6239522
0
LINE
8
0
10
3.2591253
20
70.6239522
11
2.985786
21
70.41421
0
LINE
8
0
10
2.985786
20
70.41421
11
2.87768924
21
70.2733367
0
LINE
8
0
10
2.87768924
20
70.2733367
11
2.667949
21
70
0
LINE
8
0
10
2.667949
20
70
11
2.59999643
21
69.8359488
0
LINE
8
0
10
2.59999643
20
69.8359488
11
2.468148
21
69.51764
0
LINE
8
0
10
2.468148
20
69.51764
11
2.42317722
21
69.17605
0
LINE
8
0
10
2.42317722
20
69.17605
11
2.4
21
69
0
LINE
8
0
10
2.4
20
69
11
2.4
21
67.3252052
0
LINE
8
0
10
2.4
20
67.3252052
11
2.4
21
67.1827708
0
LINE
8
0
10
2.4
20
67.1827708
11
2.4
21
67.022482
0
LINE
8
0
10
2.4
20
67.022482
11
2.4
21
66.8590154
0
LINE
8
0
10
2.4
20
66.8590154
11
2.4
21
57.3695594
0
LINE
8
0
10
2.4
20
57.3695594
11
2.4
21
51.365394
0
LINE
8
0
10
2.4
20
51.365394
11
2.4
21
50.6134311
0
LINE
8
0
10
2.4
20
50.6134311
11
2.4
21
48.6081972
0
LINE
8
0
10
2.4
20
48.6081972
11
8.12749217
21
48.6081972
0
LINE
8
0
10
8.12749217
20
48.6081972
11
16
21
48.6081972
0
LINE
8
0
10
16
20
48.6081972
11
16
21
50.6134311
0
LINE
8
0
10
16
20
50.6134311
11
16
21
59.7904836
0
LINE
8
0
10
16
20
59.7904836
11
16
21
67.3205708
0
LINE
8
0
10
16
20
67.3205708
11
16
21
67.3205708
0
LINE
8
0
10
16
20
29.5556352
11
16
21
38.0328199
0
LINE
8
0
10
16
20
38.0328199
11
16
21
39.9479401
0
LINE
8
0
10
16
20
39.9479401
11
16
21
44.9610228
0
LINE
8
0
10
16
20
44.9610228
11
10.2725078
21
44.9610228
0
LINE
8
0
10
10.2725078
20
44.9610228
11
2.4
21
44.9610228
0
LINE
8
0
10
2.4
20
44.9610228
11
2.4
21
42.732986
0
LINE
8
0
10
2.4
20
42.732986
11
2.4
21
39.9479401
0
LINE
8
0
10
2.4
20
39.9479401
11
2.4
21
38.798868
0
LINE
8
0
10
2.4
20
38.798868
11
2.4
21
38.0328199
0
LINE
8
0
10
2.4
20
38.0328199
11
2.4
21
34.1795541
0
LINE
8
0
10
2.4
20
34.1795541
11
2.4
21
29.5556352
0
LINE
8
0
10
2.4
20
29.5556352
11
2.68749217
21
29.5556352
0
LINE
8
0
10
2.68749217
20
29.5556352
11
16
21
29.5556352
0
LINE
8
0
10
16
20
29.5556352
11
16
21
29.5556352
0
LINE
8
0
10
16
20
22.4443608
11
16
21
28.6402838
0
LINE
8
0
10
16
20
28.6402838
11
16
21
29.3725648
0
LINE
8
0
10
16
20
29.3725648
11
15.7125078
21
29.3725648
0
LINE
8
0
10
15.7125078
20
29.3725648
11
2.4
21
29.3725648
0
LINE
8
0
10
2.4
20
29.3725648
11
2.4
21
25.6049272
0
LINE
8
0
10
2.4
20
25.6049272
11
2.4
21
22.4443608
0
LINE
8
0
10
2.4
20
22.4443608
11
13.5674922
21
22.4443608
0
LINE
8
0
10
13.5674922
20
22.4443608
11
16
21
22.4443608
0
LINE
8
0
10
16
20
22.4443608
11
16
21
22.4443608
0
ENDSEC
0
EOF
