0
SECTION
2
ENTITIES
0
LINE
8
0
10
16
20
67.069498
11
16
21
67.2903147
0
LINE
8
0
10
16
20
67.2903147
11
16
21
67.5170368
0
LINE
8
0
10
16
20
67.5170368
11
16
21
67.7289917
0
LINE
8
0
10
16
20
67.7289917
11
16
21
69
0
LINE
8
0
10
16
20
69
11
15.9835927
21
69.1246236
0
LINE
8
0
10
15.9835927
20
69.1246236
11
15.93185
21
69.51764
0
LINE
8
0
10
15.93185
20
69.51764
11
15.8837475
21
69.6337698
0
LINE
8
0
10
15.8837475
20
69.6337698
11
15.73205
21
70
0
LINE
8
0
10
15.73205
20
70
11
15.655529
21
70.0997224
0
LINE
8
0
10
15.655529
20
70.0997224
11
15.41421
21
70.41421
0
LINE
8
0
10
15.41421
20
70.41421
11
15.3144876
21
70.490731
0
LINE
8
0
10
15.3144876
20
70.490731
11
15
21
70.73205
0
LINE
8
0
10
15
20
70.73205
11
14.8838702
21
70.7801525
0
LINE
8
0
10
14.8838702
20
70.7801525
11
14.51764
21
70.93185
0
LINE
8
0
10
14.51764
20
70.93185
11
14.1246236
21
70.9835927
0
LINE
8
0
10
14.1246236
20
70.9835927
11
14
21
71
0
LINE
8
0
10
14
20
71
11
13.1845639
21
71
0
LINE
8
0
10
13.1845639
20
71
11
11.4127506
21
71
0
LINE
8
0
10
11.4127506
20
71
11
4.4
21
71
0
LINE
8
0
10
4.4
20
71
11
4.20892545
21
70.9748439
0
LINE
8
0
10
4.20892545
20
70.9748439
11
3.882362
21
70.93185
0
LINE
8
0
10
3.882362
20
70.93185
11
3.7043088
21
70.8580983
0
LINE
8
0
10
3.7043088
20
70.8580983
11
3.4
21
70.73205
0
LINE
8
0
10
3.4
20
70.73205
11
3.24710211
21
70.6147264
0
LINE
8
0
10
3.24710211
20
70.6147264
11
2.985786
21
70.41421
0
LINE
8
0
10
2.985786
20
70.41421
11
2.86846354
21
70.2613136
0
LINE
8
0
10
2.86846354
20
70.2613136
11
2.667949
21
70
0
LINE
8
0
10
2.667949
20
70
11
2.5941969
21
69.8219475
0
LINE
8
0
10
2.5941969
20
69.8219475
11
2.468148
21
69.51764
0
LINE
8
0
10
2.468148
20
69.51764
11
2.42515532
21
69.1910753
0
LINE
8
0
10
2.42515532
20
69.1910753
11
2.4
21
69
0
LINE
8
0
10
2.4
20
69
11
2.4
21
67.182267
0
LINE
8
0
10
2.4
20
67.182267
11
2.4
21
67.0276763
0
LINE
8
0
10
2.4
20
67.0276763
11
2.4
21
66.8537074
0
LINE
8
0
10
2.4
20
66.8537074
11
2.4
21
66.6762895
0
LINE
8
0
10
2.4
20
66.6762895
11
2.4
21
56.3769397
0
LINE
8
0
10
2.4
20
56.3769397
11
2.4
21
51.325616
0
LINE
8
0
10
2.4
20
51.325616
11
2.4
21
50.6929872
0
LINE
8
0
10
2.4
20
50.6929872
11
2.4
21
49.0059774
0
LINE
8
0
10
2.4
20
49.0059774
11
9.37683379
21
49.0059774
0
LINE
8
0
10
9.37683379
20
49.0059774
11
16
21
49.0059774
0
LINE
8
0
10
16
20
49.0059774
11
16
21
50.6929872
0
LINE
8
0
10
16
20
50.6929872
11
16
21
58.4136711
0
LINE
8
0
10
16
20
58.4136711
11
16
21
67.069498
0
LINE
8
0
10
16
20
67.069498
11
16
21
67.069498
0
LINE
8
0
10
16
20
13.3863275
11
16
21
21.2931603
0
LINE
8
0
10
16
20
21.2931603
11
3.58316621
21
21.2931603
0
LINE
8
0
10
3.58316621
20
21.2931603
11
2.4
21
21.2931603
0
LINE
8
0
10
2.4
20
21.2931603
11
2.4
21
16.9803466
0
LINE
8
0
10
2.4
20
16.9803466
11
2.4
21
13.3863275
0
LINE
8
0
10
2.4
20
13.3863275
11
2.4
21
12.392137
0
LINE
8
0
10
2.4
20
12.392137
11
2.4
21
11.8950432
0
LINE
8
0
10
2.4
20
11.8950432
11
2.4
21
8.37075301
0
LINE
8
0
10
2.4
20
8.37075301
11
2.4
21
6.95610341
0
LINE
8
0
10
2.4
20
6.95610341
11
2.4
21
6.88405661
0
LINE
8
0
10
2.4
20
6.88405661
11
2.4
21
1.34450336
0
LINE
8
0
10
2.4
20
1.34450336
11
2.4
21
1.01073726
0
LINE
8
0
10
2.4
20
1.01073726
11
2.4
21
0.702931812
0
LINE
8
0
10
2.4
20
0.702931812
11
2.4
21
0.448797465
0
LINE
8
0
10
2.4
20
0.448797465
11
2.4
21
-6.94176719
0
LINE
8
0
10
2.4
20
-6.94176719
11
2.4
21
-7.35542369
0
LINE
8
0
10
2.4
20
-7.35542369
11
2.4
21
-7.54794653
0
LINE
8
0
10
2.4
20
-7.54794653
11
2.4
21
-13.9767328
0
LINE
8
0
10
2.4
20
-13.9767328
11
2.4
21
-14
0
LINE
8
0
10
2.4
20
-14
11
2.45460094
21
-14.414739
0
LINE
8
0
10
2.45460094
20
-14.414739
11
2.468148
21
-14.51764
0
LINE
8
0
10
2.468148
20
-14.51764
11
2.58851264
21
-14.8082246
0
LINE
8
0
10
2.58851264
20
-14.8082246
11
2.667949
21
-15
0
LINE
8
0
10
2.667949
20
-15
11
2.8594212
21
-15.2495295
0
LINE
8
0
10
2.8594212
20
-15.2495295
11
2.985786
21
-15.41421
0
LINE
8
0
10
2.985786
20
-15.41421
11
3.23580645
21
-15.6059671
0
LINE
8
0
10
3.23580645
20
-15.6059671
11
3.40113304
21
-15.7327069
0
LINE
8
0
10
3.40113304
20
-15.7327069
11
3.69123026
21
-15.8527878
0
LINE
8
0
10
3.69123026
20
-15.8527878
11
3.882362
21
-15.93185
0
LINE
8
0
10
3.882362
20
-15.93185
11
4.03828049
21
-15.9523776
0
LINE
8
0
10
4.03828049
20
-15.9523776
11
4.23543998
21
-15.9860691
0
LINE
8
0
10
4.23543998
20
-15.9860691
11
4.4
21
-16
0
LINE
8
0
10
4.4
20
-16
11
10.8394095
21
-16
0
LINE
8
0
10
10.8394095
20
-16
11
14
21
-16
0
LINE
8
0
10
14
20
-16
11
14.3408432
21
-15.9551262
0
LINE
8
0
10
14.3408432
20
-15.9551262
11
14.4523696
21
-15.945932
0
LINE
8
0
10
14.4523696
20
-15.945932
11
14.5741692
21
-15.9142031
0
LINE
8
0
10
14.5741692
20
-15.9142031
11
14.8809415
21
-15.7870496
0
LINE
8
0
10
14.8809415
20
-15.7870496
11
15.0010016
21
-15.7313254
0
LINE
8
0
10
15.0010016
20
-15.7313254
11
15.1186024
21
-15.6480239
0
LINE
8
0
10
15.1186024
20
-15.6480239
11
15.3704553
21
-15.454678
0
LINE
8
0
10
15.3704553
20
-15.454678
11
15.4750968
21
-15.3457955
0
LINE
8
0
10
15.4750968
20
-15.3457955
11
15.6647846
21
-15.0985939
0
LINE
8
0
10
15.6647846
20
-15.0985939
11
15.7564908
21
-14.9543947
0
LINE
8
0
10
15.7564908
20
-14.9543947
11
15.8733267
21
-14.6723277
0
LINE
8
0
10
15.8733267
20
-14.6723277
11
15.9372299
21
-14.4955719
0
LINE
8
0
10
15.9372299
20
-14.4955719
11
15.9549656
21
-14.3967026
0
LINE
8
0
10
15.9549656
20
-14.3967026
11
15.9893331
21
-14.1761381
0
LINE
8
0
10
15.9893331
20
-14.1761381
11
16
21
-14
0
LINE
8
0
10
16
20
-14
11
16
21
-11.5294172
0
LINE
8
0
10
16
20
-11.5294172
11
16
21
-11.1775665
0
LINE
8
0
10
16
20
-11.1775665
11
16
21
-10.7489275
0
LINE
8
0
10
16
20
-10.7489275
11
16
21
-10.6579707
0
LINE
8
0
10
16
20
-10.6579707
11
16
21
-10.1727539
0
LINE
8
0
10
16
20
-10.1727539
11
16
21
-10.0801749
0
LINE
8
0
10
16
20
-10.0801749
11
16
21
-9.98237392
0
LINE
8
0
10
16
20
-9.98237392
11
16
21
-9.46927523
0
LINE
8
0
10
16
20
-9.46927523
11
16
21
-8.95805537
0
LINE
8
0
10
16
20
-8.95805537
11
16
21
-8.4905515
0
LINE
8
0
10
16
20
-8.4905515
11
16
21
-0.324662436
0
LINE
8
0
10
16
20
-0.324662436
11
16
21
7.5045727
0
LINE
8
0
10
16
20
7.5045727
11
16
21
11.5214223
0
LINE
8
0
10
16
20
11.5214223
11
16
21
12.392137
0
LINE
8
0
10
16
20
12.392137
11
16
21
13.3863275
0
LINE
8
0
10
16
20
13.3863275
11
16
21
13.3863275
0
LINE
8
0
10
16
20
40.3457199
11
16
21
37.6350401
0
LINE
8
0
10
16
20
37.6350401
11
16
21
29.9534154
0
LINE
8
0
10
16
20
29.9534154
11
3.93683379
21
29.9534154
0
LINE
8
0
10
3.93683379
20
29.9534154
11
2.4
21
29.9534154
0
LINE
8
0
10
2.4
20
29.9534154
11
2.4
21
34.1433925
0
LINE
8
0
10
2.4
20
34.1433925
11
2.4
21
37.6350401
0
LINE
8
0
10
2.4
20
37.6350401
11
2.4
21
38.719312
0
LINE
8
0
10
2.4
20
38.719312
11
2.4
21
40.3457199
0
LINE
8
0
10
2.4
20
40.3457199
11
2.4
21
42.688788
0
LINE
8
0
10
2.4
20
42.688788
11
2.4
21
44.5632426
0
LINE
8
0
10
2.4
20
44.5632426
11
9.02316621
21
44.5632426
0
LINE
8
0
10
9.02316621
20
44.5632426
11
16
21
44.5632426
0
LINE
8
0
10
16
20
44.5632426
11
16
21
40.3457199
0
LINE
8
0
10
16
20
40.3457199
11
16
21
40.3457199
0
LINE
8
0
10
16
20
25.0602632
11
16
21
28.9747846
0
LINE
8
0
10
16
20
28.9747846
11
14.4631662
21
28.9747846
0
LINE
8
0
10
14.4631662
20
28.9747846
11
2.4
21
28.9747846
0
LINE
8
0
10
2.4
20
28.9747846
11
2.4
21
25.5607291
0
LINE
8
0
10
2.4
20
25.5607291
11
2.4
21
22.0465806
0
LINE
8
0
10
2.4
20
22.0465806
11
14.8168338
21
22.0465806
0
LINE
8
0
10
14.8168338
20
22.0465806
11
16
21
22.0465806
0
LINE
8
0
10
16
20
22.0465806
11
16
21
25.0602632
0
LINE
8
0
10
16
20
25.0602632
11
16
21
25.0602632
0
ENDSEC
0
EOF
