0
SECTION
2
ENTITIES
0
LINE
8
0
10
16
20
57.0368585
11
16
21
50.7725433
0
LINE
8
0
10
16
20
50.7725433
11
16
21
49.4037577
0
LINE
8
0
10
16
20
49.4037577
11
10.6261754
21
49.4037577
0
LINE
8
0
10
10.6261754
20
49.4037577
11
2.4
21
49.4037577
0
LINE
8
0
10
2.4
20
49.4037577
11
2.4
21
50.7725433
0
LINE
8
0
10
2.4
20
50.7725433
11
2.4
21
51.285838
0
LINE
8
0
10
2.4
20
51.285838
11
2.4
21
55.3843201
0
LINE
8
0
10
2.4
20
55.3843201
11
2.4
21
66.4935635
0
LINE
8
0
10
2.4
20
66.4935635
11
2.4
21
66.6849327
0
LINE
8
0
10
2.4
20
66.6849327
11
2.4
21
66.8725818
0
LINE
8
0
10
2.4
20
66.8725818
11
2.4
21
67.0393288
0
LINE
8
0
10
2.4
20
67.0393288
11
2.4
21
69
0
LINE
8
0
10
2.4
20
69
11
2.42713342
21
69.2061006
0
LINE
8
0
10
2.42713342
20
69.2061006
11
2.468148
21
69.51764
0
LINE
8
0
10
2.468148
20
69.51764
11
2.58839738
21
69.8079463
0
LINE
8
0
10
2.58839738
20
69.8079463
11
2.667949
21
70
0
LINE
8
0
10
2.667949
20
70
11
2.85923784
21
70.2492905
0
LINE
8
0
10
2.85923784
20
70.2492905
11
2.985786
21
70.41421
0
LINE
8
0
10
2.985786
20
70.41421
11
3.23507892
21
70.6055006
0
LINE
8
0
10
3.23507892
20
70.6055006
11
3.4
21
70.73205
0
LINE
8
0
10
3.4
20
70.73205
11
3.69030751
21
70.8522988
0
LINE
8
0
10
3.69030751
20
70.8522988
11
3.882362
21
70.93185
0
LINE
8
0
10
3.882362
20
70.93185
11
4.19390022
21
70.9728658
0
LINE
8
0
10
4.19390022
20
70.9728658
11
4.4
21
71
0
LINE
8
0
10
4.4
20
71
11
11.2879366
21
71
0
LINE
8
0
10
11.2879366
20
71
11
13.1990771
21
71
0
LINE
8
0
10
13.1990771
20
71
11
14
21
71
0
LINE
8
0
10
14
20
71
11
14.1408316
21
70.9814588
0
LINE
8
0
10
14.1408316
20
70.9814588
11
14.51764
21
70.93185
0
LINE
8
0
10
14.51764
20
70.93185
11
14.8687669
21
70.7864085
0
LINE
8
0
10
14.8687669
20
70.7864085
11
15
21
70.73205
0
LINE
8
0
10
15
20
70.73205
11
15.3015181
21
70.500683
0
LINE
8
0
10
15.3015181
20
70.500683
11
15.41421
21
70.41421
0
LINE
8
0
10
15.41421
20
70.41421
11
15.645577
21
70.1126919
0
LINE
8
0
10
15.645577
20
70.1126919
11
15.73205
21
70
0
LINE
8
0
10
15.73205
20
70
11
15.8774915
21
69.6488731
0
LINE
8
0
10
15.8774915
20
69.6488731
11
15.93185
21
69.51764
0
LINE
8
0
10
15.93185
20
69.51764
11
15.9814588
21
69.1408316
0
LINE
8
0
10
15.9814588
20
69.1408316
11
16
21
69
0
LINE
8
0
10
16
20
69
11
16
21
67.5636898
0
LINE
8
0
10
16
20
67.5636898
11
16
21
67.324169
0
LINE
8
0
10
16
20
67.324169
11
16
21
67.0679603
0
LINE
8
0
10
16
20
67.0679603
11
16
21
66.8184252
0
LINE
8
0
10
16
20
66.8184252
11
16
21
57.0368585
0
LINE
8
0
10
16
20
57.0368585
11
16
21
57.0368585
0
LINE
8
0
10
16
20
21.6909397
11
16
21
21.6488003
0
LINE
8
0
10
16
20
21.6488003
11
16
21
21.4381033
0
LINE
8
0
10
16
20
21.4381033
11
16
21
12.9885469
0
LINE
8
0
10
16
20
12.9885469
11
16
21
12.3125811
0
LINE
8
0
10
16
20
12.3125811
11
16
21
11.7205683
0
LINE
8
0
10
16
20
11.7205683
11
16
21
7.52662097
0
LINE
8
0
10
16
20
7.52662097
11
16
21
0.256221254
0
LINE
8
0
10
16
20
0.256221254
11
16
21
-8.26969136
0
LINE
8
0
10
16
20
-8.26969136
11
16
21
-8.75780687
0
LINE
8
0
10
16
20
-8.75780687
11
16
21
-9.29156575
0
LINE
8
0
10
16
20
-9.29156575
11
16
21
-9.82728631
0
LINE
8
0
10
16
20
-9.82728631
11
16
21
-9.92217758
0
LINE
8
0
10
16
20
-9.92217758
11
16
21
-10.0120023
0
LINE
8
0
10
16
20
-10.0120023
11
16
21
-10.5185197
0
LINE
8
0
10
16
20
-10.5185197
11
16
21
-10.6069684
0
LINE
8
0
10
16
20
-10.6069684
11
16
21
-11.0543241
0
LINE
8
0
10
16
20
-11.0543241
11
16
21
-11.4215384
0
LINE
8
0
10
16
20
-11.4215384
11
16
21
-14
0
LINE
8
0
10
16
20
-14
11
15.9894891
21
-14.1735626
0
LINE
8
0
10
15.9894891
20
-14.1735626
11
15.953638
21
-14.4036484
0
LINE
8
0
10
15.953638
20
-14.4036484
11
15.9369209
21
-14.4968393
0
LINE
8
0
10
15.9369209
20
-14.4968393
11
15.8766879
21
-14.6634435
0
LINE
8
0
10
15.8766879
20
-14.6634435
11
15.7550871
21
-14.9570139
0
LINE
8
0
10
15.7550871
20
-14.9570139
11
15.6686479
21
-15.0929313
0
LINE
8
0
10
15.6686479
20
-15.0929313
11
15.4715999
21
-15.3497247
0
LINE
8
0
10
15.4715999
20
-15.3497247
11
15.3729683
21
-15.4523538
0
LINE
8
0
10
15.3729683
20
-15.4523538
11
15.1118361
21
-15.6528234
0
LINE
8
0
10
15.1118361
20
-15.6528234
11
15.0009895
21
-15.7313406
0
LINE
8
0
10
15.0009895
20
-15.7313406
11
14.8878248
21
-15.7838644
0
LINE
8
0
10
14.8878248
20
-15.7838644
11
14.5709225
21
-15.9152166
0
LINE
8
0
10
14.5709225
20
-15.9152166
11
14.4561183
21
-15.9451232
0
LINE
8
0
10
14.4561183
20
-15.9451232
11
14.3509972
21
-15.9537894
0
LINE
8
0
10
14.3509972
20
-15.9537894
11
14
21
-16
0
LINE
8
0
10
14
20
-16
11
10.7452526
21
-16
0
LINE
8
0
10
10.7452526
20
-16
11
4.4
21
-16
0
LINE
8
0
10
4.4
20
-16
11
4.23784617
21
-15.9862728
0
LINE
8
0
10
4.23784617
20
-15.9862728
11
4.04356955
21
-15.9530739
0
LINE
8
0
10
4.04356955
20
-15.9530739
11
3.882362
21
-15.93185
0
LINE
8
0
10
3.882362
20
-15.93185
11
3.70105436
21
-15.8568515
0
LINE
8
0
10
3.70105436
20
-15.8568515
11
3.40111649
21
-15.7326973
0
LINE
8
0
10
3.40111649
20
-15.7326973
11
3.24428762
21
-15.6124719
0
LINE
8
0
10
3.24428762
20
-15.6124719
11
2.985786
21
-15.41421
0
LINE
8
0
10
2.985786
20
-15.41421
11
2.8659163
21
-15.257994
0
LINE
8
0
10
2.8659163
20
-15.257994
11
2.667949
21
-15
0
LINE
8
0
10
2.667949
20
-15
11
2.59259564
21
-14.8180818
0
LINE
8
0
10
2.59259564
20
-14.8180818
11
2.468148
21
-14.51764
0
LINE
8
0
10
2.468148
20
-14.51764
11
2.45529726
21
-14.4200281
0
LINE
8
0
10
2.45529726
20
-14.4200281
11
2.4
21
-14
0
LINE
8
0
10
2.4
20
-14
11
2.4
21
-13.9764361
0
LINE
8
0
10
2.4
20
-13.9764361
11
2.4
21
-7.46566491
0
LINE
8
0
10
2.4
20
-7.46566491
11
2.4
21
-7.27728243
0
LINE
8
0
10
2.4
20
-7.27728243
11
2.4
21
-6.85836541
0
LINE
8
0
10
2.4
20
-6.85836541
11
2.4
21
0.367112191
0
LINE
8
0
10
2.4
20
0.367112191
11
2.4
21
0.627092173
0
LINE
8
0
10
2.4
20
0.627092173
11
2.4
21
0.941977807
0
LINE
8
0
10
2.4
20
0.941977807
11
2.4
21
1.28342125
0
LINE
8
0
10
2.4
20
1.28342125
11
2.4
21
6.9503961
0
LINE
8
0
10
2.4
20
6.9503961
11
2.4
21
7.01730034
0
LINE
8
0
10
2.4
20
7.01730034
11
2.4
21
8.33097503
0
LINE
8
0
10
2.4
20
8.33097503
11
2.4
21
11.9745991
0
LINE
8
0
10
2.4
20
11.9745991
11
2.4
21
12.3125811
0
LINE
8
0
10
2.4
20
12.3125811
11
2.4
21
12.9885469
0
LINE
8
0
10
2.4
20
12.9885469
11
2.4
21
16.9441846
0
LINE
8
0
10
2.4
20
16.9441846
11
2.4
21
21.6488003
0
LINE
8
0
10
2.4
20
21.6488003
11
2.4
21
21.6656561
0
LINE
8
0
10
2.4
20
21.6656561
11
2.4
21
21.6909397
0
LINE
8
0
10
2.4
20
21.6909397
11
2.4
21
25.5165311
0
LINE
8
0
10
2.4
20
25.5165311
11
2.4
21
28.5770043
0
LINE
8
0
10
2.4
20
28.5770043
11
13.2138246
21
28.5770043
0
LINE
8
0
10
13.2138246
20
28.5770043
11
16
21
28.5770043
0
LINE
8
0
10
16
20
28.5770043
11
16
21
21.6909397
0
LINE
8
0
10
16
20
21.6909397
11
16
21
21.6909397
0
LINE
8
0
10
16
20
44.1654623
11
16
21
40.7434997
0
LINE
8
0
10
16
20
40.7434997
11
16
21
37.2372603
0
LINE
8
0
10
16
20
37.2372603
11
16
21
30.3511957
0
LINE
8
0
10
16
20
30.3511957
11
5.1861754
21
30.3511957
0
LINE
8
0
10
5.1861754
20
30.3511957
11
2.4
21
30.3511957
0
LINE
8
0
10
2.4
20
30.3511957
11
2.4
21
34.1072309
0
LINE
8
0
10
2.4
20
34.1072309
11
2.4
21
37.2372603
0
LINE
8
0
10
2.4
20
37.2372603
11
2.4
21
38.6397561
0
LINE
8
0
10
2.4
20
38.6397561
11
2.4
21
40.7434997
0
LINE
8
0
10
2.4
20
40.7434997
11
2.4
21
42.64459
0
LINE
8
0
10
2.4
20
42.64459
11
2.4
21
44.1654623
0
LINE
8
0
10
2.4
20
44.1654623
11
7.7738246
21
44.1654623
0
LINE
8
0
10
7.7738246
20
44.1654623
11
16
21
44.1654623
0
LINE
8
0
10
16
20
44.1654623
11
16
21
44.1654623
0
ENDSEC
0
EOF
