0
SECTION
2
ENTITIES
0
LINE
8
0
10
16
20
17.0625231
11
16
21
21.2510205
0
LINE
8
0
10
16
20
21.2510205
11
16
21
22.0887195
0
LINE
8
0
10
16
20
22.0887195
11
16
21
28.179224
0
LINE
8
0
10
16
20
28.179224
11
11.964483
21
28.179224
0
LINE
8
0
10
11.964483
20
28.179224
11
2.4
21
28.179224
0
LINE
8
0
10
2.4
20
28.179224
11
2.4
21
25.4723331
0
LINE
8
0
10
2.4
20
25.4723331
11
2.4
21
22.0887195
0
LINE
8
0
10
2.4
20
22.0887195
11
2.4
21
21.5861001
0
LINE
8
0
10
2.4
20
21.5861001
11
2.4
21
21.2510205
0
LINE
8
0
10
2.4
20
21.2510205
11
2.4
21
16.9080226
0
LINE
8
0
10
2.4
20
16.9080226
11
2.4
21
12.5907664
0
LINE
8
0
10
2.4
20
12.5907664
11
2.4
21
12.2330251
0
LINE
8
0
10
2.4
20
12.2330251
11
2.4
21
12.054155
0
LINE
8
0
10
2.4
20
12.054155
11
2.4
21
8.29119705
0
LINE
8
0
10
2.4
20
8.29119705
11
2.4
21
7.07849727
0
LINE
8
0
10
2.4
20
7.07849727
11
2.4
21
7.01673559
0
LINE
8
0
10
2.4
20
7.01673559
11
2.4
21
1.22233913
0
LINE
8
0
10
2.4
20
1.22233913
11
2.4
21
0.873218353
0
LINE
8
0
10
2.4
20
0.873218353
11
2.4
21
0.551252533
0
LINE
8
0
10
2.4
20
0.551252533
11
2.4
21
0.285426917
0
LINE
8
0
10
2.4
20
0.285426917
11
2.4
21
-6.77496364
0
LINE
8
0
10
2.4
20
-6.77496364
11
2.4
21
-7.19914117
0
LINE
8
0
10
2.4
20
-7.19914117
11
2.4
21
-7.3833833
0
LINE
8
0
10
2.4
20
-7.3833833
11
2.4
21
-13.9761394
0
LINE
8
0
10
2.4
20
-13.9761394
11
2.4
21
-14
0
LINE
8
0
10
2.4
20
-14
11
2.45599357
21
-14.4253171
0
LINE
8
0
10
2.45599357
20
-14.4253171
11
2.468148
21
-14.51764
0
LINE
8
0
10
2.468148
20
-14.51764
11
2.59667864
21
-14.827939
0
LINE
8
0
10
2.59667864
20
-14.827939
11
2.667949
21
-15
0
LINE
8
0
10
2.667949
20
-15
11
2.87241141
21
-15.2664585
0
LINE
8
0
10
2.87241141
20
-15.2664585
11
2.985786
21
-15.41421
0
LINE
8
0
10
2.985786
20
-15.41421
11
3.2527688
21
-15.6189767
0
LINE
8
0
10
3.2527688
20
-15.6189767
11
3.40109993
21
-15.7326877
0
LINE
8
0
10
3.40109993
20
-15.7326877
11
3.71087846
21
-15.8609153
0
LINE
8
0
10
3.71087846
20
-15.8609153
11
3.882362
21
-15.93185
0
LINE
8
0
10
3.882362
20
-15.93185
11
4.0488586
21
-15.9537702
0
LINE
8
0
10
4.0488586
20
-15.9537702
11
4.24025237
21
-15.9864765
0
LINE
8
0
10
4.24025237
20
-15.9864765
11
4.4
21
-16
0
LINE
8
0
10
4.4
20
-16
11
10.6510957
21
-16
0
LINE
8
0
10
10.6510957
20
-16
11
14
21
-16
0
LINE
8
0
10
14
20
-16
11
14.3611513
21
-15.9524526
0
LINE
8
0
10
14.3611513
20
-15.9524526
11
14.459867
21
-15.9443145
0
LINE
8
0
10
14.459867
20
-15.9443145
11
14.5676759
21
-15.9162301
0
LINE
8
0
10
14.5676759
20
-15.9162301
11
14.8947081
21
-15.7806791
0
LINE
8
0
10
14.8947081
20
-15.7806791
11
15.0009773
21
-15.7313558
0
LINE
8
0
10
15.0009773
20
-15.7313558
11
15.1050697
21
-15.6576229
0
LINE
8
0
10
15.1050697
20
-15.6576229
11
15.3754813
21
-15.4500296
0
LINE
8
0
10
15.3754813
20
-15.4500296
11
15.468103
21
-15.353654
0
LINE
8
0
10
15.468103
20
-15.353654
11
15.6725111
21
-15.0872687
0
LINE
8
0
10
15.6725111
20
-15.0872687
11
15.7536833
21
-14.9596332
0
LINE
8
0
10
15.7536833
20
-14.9596332
11
15.8800491
21
-14.6545592
0
LINE
8
0
10
15.8800491
20
-14.6545592
11
15.9366119
21
-14.4981067
0
LINE
8
0
10
15.9366119
20
-14.4981067
11
15.9523104
21
-14.4105942
0
LINE
8
0
10
15.9523104
20
-14.4105942
11
15.9896451
21
-14.1709871
0
LINE
8
0
10
15.9896451
20
-14.1709871
11
16
21
-14
0
LINE
8
0
10
16
20
-14
11
16
21
-11.3136597
0
LINE
8
0
10
16
20
-11.3136597
11
16
21
-10.9310817
0
LINE
8
0
10
16
20
-10.9310817
11
16
21
-10.4650093
0
LINE
8
0
10
16
20
-10.4650093
11
16
21
-10.3790687
0
LINE
8
0
10
16
20
-10.3790687
11
16
21
-9.85125073
0
LINE
8
0
10
16
20
-9.85125073
11
16
21
-9.7641803
0
LINE
8
0
10
16
20
-9.7641803
11
16
21
-9.6721987
0
LINE
8
0
10
16
20
-9.6721987
11
16
21
-9.11385628
0
LINE
8
0
10
16
20
-9.11385628
11
16
21
-8.55755838
0
LINE
8
0
10
16
20
-8.55755838
11
16
21
-8.04883122
0
LINE
8
0
10
16
20
-8.04883122
11
16
21
0.837104944
0
LINE
8
0
10
16
20
0.837104944
11
16
21
7.54866924
0
LINE
8
0
10
16
20
7.54866924
11
16
21
11.9197143
0
LINE
8
0
10
16
20
11.9197143
11
16
21
12.2330251
0
LINE
8
0
10
16
20
12.2330251
11
16
21
12.5907664
0
LINE
8
0
10
16
20
12.5907664
11
16
21
17.0625231
0
LINE
8
0
10
16
20
17.0625231
11
16
21
17.0625231
0
LINE
8
0
10
16
20
50.8520994
11
16
21
55.660046
0
LINE
8
0
10
16
20
55.660046
11
16
21
66.5673524
0
LINE
8
0
10
16
20
66.5673524
11
16
21
66.845606
0
LINE
8
0
10
16
20
66.845606
11
16
21
67.1313011
0
LINE
8
0
10
16
20
67.1313011
11
16
21
67.3983879
0
LINE
8
0
10
16
20
67.3983879
11
16
21
69
0
LINE
8
0
10
16
20
69
11
15.9793249
21
69.1570396
0
LINE
8
0
10
15.9793249
20
69.1570396
11
15.93185
21
69.51764
0
LINE
8
0
10
15.93185
20
69.51764
11
15.8712355
21
69.6639765
0
LINE
8
0
10
15.8712355
20
69.6639765
11
15.73205
21
70
0
LINE
8
0
10
15.73205
20
70
11
15.635625
21
70.1256614
0
LINE
8
0
10
15.635625
20
70.1256614
11
15.41421
21
70.41421
0
LINE
8
0
10
15.41421
20
70.41421
11
15.2885486
21
70.510635
0
LINE
8
0
10
15.2885486
20
70.510635
11
15
21
70.73205
0
LINE
8
0
10
15
20
70.73205
11
14.8536635
21
70.7926645
0
LINE
8
0
10
14.8536635
20
70.7926645
11
14.51764
21
70.93185
0
LINE
8
0
10
14.51764
20
70.93185
11
14.1570396
21
70.9793249
0
LINE
8
0
10
14.1570396
20
70.9793249
11
14
21
71
0
LINE
8
0
10
14
20
71
11
13.2135904
21
71
0
LINE
8
0
10
13.2135904
20
71
11
11.1631226
21
71
0
LINE
8
0
10
11.1631226
20
71
11
4.4
21
71
0
LINE
8
0
10
4.4
20
71
11
4.17887499
21
70.9708876
0
LINE
8
0
10
4.17887499
20
70.9708876
11
3.882362
21
70.93185
0
LINE
8
0
10
3.882362
20
70.93185
11
3.67630622
21
70.8464993
0
LINE
8
0
10
3.67630622
20
70.8464993
11
3.4
21
70.73205
0
LINE
8
0
10
3.4
20
70.73205
11
3.22305573
21
70.5962749
0
LINE
8
0
10
3.22305573
20
70.5962749
11
2.985786
21
70.41421
0
LINE
8
0
10
2.985786
20
70.41421
11
2.85001214
21
70.2372674
0
LINE
8
0
10
2.85001214
20
70.2372674
11
2.667949
21
70
0
LINE
8
0
10
2.667949
20
70
11
2.58259785
21
69.7939451
0
LINE
8
0
10
2.58259785
20
69.7939451
11
2.468148
21
69.51764
0
LINE
8
0
10
2.468148
20
69.51764
11
2.42911152
21
69.2211259
0
LINE
8
0
10
2.42911152
20
69.2211259
11
2.4
21
69
0
LINE
8
0
10
2.4
20
69
11
2.4
21
66.8963906
0
LINE
8
0
10
2.4
20
66.8963906
11
2.4
21
66.7174873
0
LINE
8
0
10
2.4
20
66.7174873
11
2.4
21
66.5161581
0
LINE
8
0
10
2.4
20
66.5161581
11
2.4
21
66.3108375
0
LINE
8
0
10
2.4
20
66.3108375
11
2.4
21
54.3917004
0
LINE
8
0
10
2.4
20
54.3917004
11
2.4
21
51.2460601
0
LINE
8
0
10
2.4
20
51.2460601
11
2.4
21
50.8520994
0
LINE
8
0
10
2.4
20
50.8520994
11
2.4
21
49.801538
0
LINE
8
0
10
2.4
20
49.801538
11
11.875517
21
49.801538
0
LINE
8
0
10
11.875517
20
49.801538
11
16
21
49.801538
0
LINE
8
0
10
16
20
49.801538
11
16
21
50.8520994
0
LINE
8
0
10
16
20
50.8520994
11
16
21
50.8520994
0
LINE
8
0
10
16
20
30.748976
11
16
21
36.8394805
0
LINE
8
0
10
16
20
36.8394805
11
16
21
41.1412795
0
LINE
8
0
10
16
20
41.1412795
11
16
21
43.767682
0
LINE
8
0
10
16
20
43.767682
11
6.52448298
21
43.767682
0
LINE
8
0
10
6.52448298
20
43.767682
11
2.4
21
43.767682
0
LINE
8
0
10
2.4
20
43.767682
11
2.4
21
42.600392
0
LINE
8
0
10
2.4
20
42.600392
11
2.4
21
41.1412795
0
LINE
8
0
10
2.4
20
41.1412795
11
2.4
21
38.5602001
0
LINE
8
0
10
2.4
20
38.5602001
11
2.4
21
36.8394805
0
LINE
8
0
10
2.4
20
36.8394805
11
2.4
21
34.0710694
0
LINE
8
0
10
2.4
20
34.0710694
11
2.4
21
30.748976
0
LINE
8
0
10
2.4
20
30.748976
11
6.43551702
21
30.748976
0
LINE
8
0
10
6.43551702
20
30.748976
11
16
21
30.748976
0
LINE
8
0
10
16
20
30.748976
11
16
21
30.748976
0
ENDSEC
0
EOF
