0
SECTION
2
ENTITIES
0
LINE
8
0
10
16
20
36.4417007
11
16
21
41.5390593
0
LINE
8
0
10
16
20
41.5390593
11
16
21
43.3699018
0
LINE
8
0
10
16
20
43.3699018
11
5.27514137
21
43.3699018
0
LINE
8
0
10
5.27514137
20
43.3699018
11
2.4
21
43.3699018
0
LINE
8
0
10
2.4
20
43.3699018
11
2.4
21
42.556194
0
LINE
8
0
10
2.4
20
42.556194
11
2.4
21
41.5390593
0
LINE
8
0
10
2.4
20
41.5390593
11
2.4
21
38.4806441
0
LINE
8
0
10
2.4
20
38.4806441
11
2.4
21
36.4417007
0
LINE
8
0
10
2.4
20
36.4417007
11
2.4
21
34.0349078
0
LINE
8
0
10
2.4
20
34.0349078
11
2.4
21
31.1467562
0
LINE
8
0
10
2.4
20
31.1467562
11
7.68485863
21
31.1467562
0
LINE
8
0
10
7.68485863
20
31.1467562
11
16
21
31.1467562
0
LINE
8
0
10
16
20
31.1467562
11
16
21
36.4417007
0
LINE
8
0
10
16
20
36.4417007
11
16
21
36.4417007
0
LINE
8
0
10
16
20
50.1993182
11
16
21
50.9316555
0
LINE
8
0
10
16
20
50.9316555
11
16
21
54.2832334
0
LINE
8
0
10
16
20
54.2832334
11
16
21
66.3162795
0
LINE
8
0
10
16
20
66.3162795
11
16
21
66.6232516
0
LINE
8
0
10
16
20
66.6232516
11
16
21
66.9384333
0
LINE
8
0
10
16
20
66.9384333
11
16
21
67.233086
0
LINE
8
0
10
16
20
67.233086
11
16
21
69
0
LINE
8
0
10
16
20
69
11
15.9771911
21
69.1732476
0
LINE
8
0
10
15.9771911
20
69.1732476
11
15.93185
21
69.51764
0
LINE
8
0
10
15.93185
20
69.51764
11
15.8649795
21
69.6790798
0
LINE
8
0
10
15.8649795
20
69.6790798
11
15.73205
21
70
0
LINE
8
0
10
15.73205
20
70
11
15.625673
21
70.1386309
0
LINE
8
0
10
15.625673
20
70.1386309
11
15.41421
21
70.41421
0
LINE
8
0
10
15.41421
20
70.41421
11
15.2755791
21
70.520587
0
LINE
8
0
10
15.2755791
20
70.520587
11
15
21
70.73205
0
LINE
8
0
10
15
20
70.73205
11
14.8385602
21
70.7989205
0
LINE
8
0
10
14.8385602
20
70.7989205
11
14.51764
21
70.93185
0
LINE
8
0
10
14.51764
20
70.93185
11
14.1732476
21
70.9771911
0
LINE
8
0
10
14.1732476
20
70.9771911
11
14
21
71
0
LINE
8
0
10
14
20
71
11
13.2281037
21
71
0
LINE
8
0
10
13.2281037
20
71
11
11.0383086
21
71
0
LINE
8
0
10
11.0383086
20
71
11
4.4
21
71
0
LINE
8
0
10
4.4
20
71
11
4.16384976
21
70.9689095
0
LINE
8
0
10
4.16384976
20
70.9689095
11
3.882362
21
70.93185
0
LINE
8
0
10
3.882362
20
70.93185
11
3.66230493
21
70.8406998
0
LINE
8
0
10
3.66230493
20
70.8406998
11
3.4
21
70.73205
0
LINE
8
0
10
3.4
20
70.73205
11
3.21103255
21
70.5870491
0
LINE
8
0
10
3.21103255
20
70.5870491
11
2.985786
21
70.41421
0
LINE
8
0
10
2.985786
20
70.41421
11
2.84078644
21
70.2252444
0
LINE
8
0
10
2.84078644
20
70.2252444
11
2.667949
21
70
0
LINE
8
0
10
2.667949
20
70
11
2.57679832
21
69.7799438
0
LINE
8
0
10
2.57679832
20
69.7799438
11
2.468148
21
69.51764
0
LINE
8
0
10
2.468148
20
69.51764
11
2.43108962
21
69.2361512
0
LINE
8
0
10
2.43108962
20
69.2361512
11
2.4
21
69
0
LINE
8
0
10
2.4
20
69
11
2.4
21
66.7534524
0
LINE
8
0
10
2.4
20
66.7534524
11
2.4
21
66.5623927
0
LINE
8
0
10
2.4
20
66.5623927
11
2.4
21
66.3473835
0
LINE
8
0
10
2.4
20
66.3473835
11
2.4
21
66.1281116
0
LINE
8
0
10
2.4
20
66.1281116
11
2.4
21
53.3990807
0
LINE
8
0
10
2.4
20
53.3990807
11
2.4
21
51.2062821
0
LINE
8
0
10
2.4
20
51.2062821
11
2.4
21
50.9316555
0
LINE
8
0
10
2.4
20
50.9316555
11
2.4
21
50.1993182
0
LINE
8
0
10
2.4
20
50.1993182
11
13.1248586
21
50.1993182
0
LINE
8
0
10
13.1248586
20
50.1993182
11
16
21
50.1993182
0
LINE
8
0
10
16
20
50.1993182
11
16
21
50.1993182
0
LINE
8
0
10
16
20
27.7814438
11
16
21
22.4864993
0
LINE
8
0
10
16
20
22.4864993
11
16
21
20.8532407
0
LINE
8
0
10
16
20
20.8532407
11
16
21
12.686943
0
LINE
8
0
10
16
20
12.686943
11
16
21
12.1929858
0
LINE
8
0
10
16
20
12.1929858
11
16
21
12.1534691
0
LINE
8
0
10
16
20
12.1534691
11
16
21
12.1188603
0
LINE
8
0
10
16
20
12.1188603
11
16
21
7.57071751
0
LINE
8
0
10
16
20
7.57071751
11
16
21
1.41798863
0
LINE
8
0
10
16
20
1.41798863
11
16
21
-7.82797107
0
LINE
8
0
10
16
20
-7.82797107
11
16
21
-8.35730988
0
LINE
8
0
10
16
20
-8.35730988
11
16
21
-8.93614681
0
LINE
8
0
10
16
20
-8.93614681
11
16
21
-9.51711109
0
LINE
8
0
10
16
20
-9.51711109
11
16
21
-9.60618302
0
LINE
8
0
10
16
20
-9.60618302
11
16
21
-9.69049913
0
LINE
8
0
10
16
20
-9.69049913
11
16
21
-10.2396177
0
LINE
8
0
10
16
20
-10.2396177
11
16
21
-10.3230503
0
LINE
8
0
10
16
20
-10.3230503
11
16
21
-10.8078393
0
LINE
8
0
10
16
20
-10.8078393
11
16
21
-11.2057809
0
LINE
8
0
10
16
20
-11.2057809
11
16
21
-14
0
LINE
8
0
10
16
20
-14
11
15.989801
21
-14.1684116
0
LINE
8
0
10
15.989801
20
-14.1684116
11
15.9509828
21
-14.4175401
0
LINE
8
0
10
15.9509828
20
-14.4175401
11
15.9363029
21
-14.4993742
0
LINE
8
0
10
15.9363029
20
-14.4993742
11
15.8834103
21
-14.645675
0
LINE
8
0
10
15.8834103
20
-14.645675
11
15.7522796
21
-14.9622525
0
LINE
8
0
10
15.7522796
20
-14.9622525
11
15.6763744
21
-15.0816061
0
LINE
8
0
10
15.6763744
20
-15.0816061
11
15.464606
21
-15.3575833
0
LINE
8
0
10
15.464606
20
-15.3575833
11
15.3779943
21
-15.4477053
0
LINE
8
0
10
15.3779943
20
-15.4477053
11
15.0983033
21
-15.6624224
0
LINE
8
0
10
15.0983033
20
-15.6624224
11
15.0009652
21
-15.731371
0
LINE
8
0
10
15.0009652
20
-15.731371
11
14.9015914
21
-15.7774939
0
LINE
8
0
10
14.9015914
20
-15.7774939
11
14.5644292
21
-15.9172437
0
LINE
8
0
10
14.5644292
20
-15.9172437
11
14.4636157
21
-15.9435057
0
LINE
8
0
10
14.4636157
20
-15.9435057
11
14.3713053
21
-15.9511157
0
LINE
8
0
10
14.3713053
20
-15.9511157
11
14
21
-16
0
LINE
8
0
10
14
20
-16
11
10.5569388
21
-16
0
LINE
8
0
10
10.5569388
20
-16
11
4.4
21
-16
0
LINE
8
0
10
4.4
20
-16
11
4.24265856
21
-15.9866802
0
LINE
8
0
10
4.24265856
20
-15.9866802
11
4.05414765
21
-15.9544666
0
LINE
8
0
10
4.05414765
20
-15.9544666
11
3.882362
21
-15.93185
0
LINE
8
0
10
3.882362
20
-15.93185
11
3.72070256
21
-15.8649791
0
LINE
8
0
10
3.72070256
20
-15.8649791
11
3.40108338
21
-15.732678
0
LINE
8
0
10
3.40108338
20
-15.732678
11
3.26124997
21
-15.6254815
0
LINE
8
0
10
3.26124997
20
-15.6254815
11
2.985786
21
-15.41421
0
LINE
8
0
10
2.985786
20
-15.41421
11
2.87890651
21
-15.274923
0
LINE
8
0
10
2.87890651
20
-15.274923
11
2.667949
21
-15
0
LINE
8
0
10
2.667949
20
-15
11
2.60076164
21
-14.8377961
0
LINE
8
0
10
2.60076164
20
-14.8377961
11
2.468148
21
-14.51764
0
LINE
8
0
10
2.468148
20
-14.51764
11
2.45668988
21
-14.4306062
0
LINE
8
0
10
2.45668988
20
-14.4306062
11
2.4
21
-14
0
LINE
8
0
10
2.4
20
-14
11
2.4
21
-13.9758427
0
LINE
8
0
10
2.4
20
-13.9758427
11
2.4
21
-7.30110168
0
LINE
8
0
10
2.4
20
-7.30110168
11
2.4
21
-7.12099991
0
LINE
8
0
10
2.4
20
-7.12099991
11
2.4
21
-6.69156187
0
LINE
8
0
10
2.4
20
-6.69156187
11
2.4
21
0.203741643
0
LINE
8
0
10
2.4
20
0.203741643
11
2.4
21
0.475412894
0
LINE
8
0
10
2.4
20
0.475412894
11
2.4
21
0.804458899
0
LINE
8
0
10
2.4
20
0.804458899
11
2.4
21
1.16125701
0
LINE
8
0
10
2.4
20
1.16125701
11
2.4
21
7.08307508
0
LINE
8
0
10
2.4
20
7.08307508
11
2.4
21
7.1396942
0
LINE
8
0
10
2.4
20
7.1396942
11
2.4
21
8.25141907
0
LINE
8
0
10
2.4
20
8.25141907
11
2.4
21
12.1337109
0
LINE
8
0
10
2.4
20
12.1337109
11
2.4
21
12.1534691
0
LINE
8
0
10
2.4
20
12.1534691
11
2.4
21
12.1929858
0
LINE
8
0
10
2.4
20
12.1929858
11
2.4
21
16.8718605
0
LINE
8
0
10
2.4
20
16.8718605
11
2.4
21
20.8532407
0
LINE
8
0
10
2.4
20
20.8532407
11
2.4
21
21.5065441
0
LINE
8
0
10
2.4
20
21.5065441
11
2.4
21
22.4864993
0
LINE
8
0
10
2.4
20
22.4864993
11
2.4
21
25.4281351
0
LINE
8
0
10
2.4
20
25.4281351
11
2.4
21
27.7814438
0
LINE
8
0
10
2.4
20
27.7814438
11
10.7151414
21
27.7814438
0
LINE
8
0
10
10.7151414
20
27.7814438
11
16
21
27.7814438
0
LINE
8
0
10
16
20
27.7814438
11
16
21
27.7814438
0
ENDSEC
0
EOF
