0
SECTION
2
ENTITIES
0
LINE
8
0
10
16
20
-10.1810912
11
16
21
-10.6845968
0
LINE
8
0
10
16
20
-10.6845968
11
16
21
-11.0979022
0
LINE
8
0
10
16
20
-11.0979022
11
16
21
-14
0
LINE
8
0
10
16
20
-14
11
15.989957
21
-14.1658361
0
LINE
8
0
10
15.989957
20
-14.1658361
11
15.9496552
21
-14.4244859
0
LINE
8
0
10
15.9496552
20
-14.4244859
11
15.9359939
21
-14.5006416
0
LINE
8
0
10
15.9359939
20
-14.5006416
11
15.8867715
21
-14.6367908
0
LINE
8
0
10
15.8867715
20
-14.6367908
11
15.7508759
21
-14.9648717
0
LINE
8
0
10
15.7508759
20
-14.9648717
11
15.6802377
21
-15.0759436
0
LINE
8
0
10
15.6802377
20
-15.0759436
11
15.4611091
21
-15.3615126
0
LINE
8
0
10
15.4611091
20
-15.3615126
11
15.3805072
21
-15.4453811
0
LINE
8
0
10
15.3805072
20
-15.4453811
11
15.091537
21
-15.6672218
0
LINE
8
0
10
15.091537
20
-15.6672218
11
15.000953
21
-15.7313862
0
LINE
8
0
10
15.000953
20
-15.7313862
11
14.9084747
21
-15.7743087
0
LINE
8
0
10
14.9084747
20
-15.7743087
11
14.5611826
21
-15.9182572
0
LINE
8
0
10
14.5611826
20
-15.9182572
11
14.4673644
21
-15.9426969
0
LINE
8
0
10
14.4673644
20
-15.9426969
11
14.3814593
21
-15.9497789
0
LINE
8
0
10
14.3814593
20
-15.9497789
11
14
21
-16
0
LINE
8
0
10
14
20
-16
11
10.4627819
21
-16
0
LINE
8
0
10
10.4627819
20
-16
11
4.4
21
-16
0
LINE
8
0
10
4.4
20
-16
11
4.24506475
21
-15.9868839
0
LINE
8
0
10
4.24506475
20
-15.9868839
11
4.05943671
21
-15.9551629
0
LINE
8
0
10
4.05943671
20
-15.9551629
11
3.882362
21
-15.93185
0
LINE
8
0
10
3.882362
20
-15.93185
11
3.73052666
21
-15.8690428
0
LINE
8
0
10
3.73052666
20
-15.8690428
11
3.40106683
21
-15.7326684
0
LINE
8
0
10
3.40106683
20
-15.7326684
11
3.26973114
21
-15.6319862
0
LINE
8
0
10
3.26973114
20
-15.6319862
11
2.985786
21
-15.41421
0
LINE
8
0
10
2.985786
20
-15.41421
11
2.88540162
21
-15.2833876
0
LINE
8
0
10
2.88540162
20
-15.2833876
11
2.667949
21
-15
0
LINE
8
0
10
2.667949
20
-15
11
2.60484464
21
-14.8476533
0
LINE
8
0
10
2.60484464
20
-14.8476533
11
2.468148
21
-14.51764
0
LINE
8
0
10
2.468148
20
-14.51764
11
2.4573862
21
-14.4358953
0
LINE
8
0
10
2.4573862
20
-14.4358953
11
2.4
21
-14
0
LINE
8
0
10
2.4
20
-14
11
2.4
21
-13.9755459
0
LINE
8
0
10
2.4
20
-13.9755459
11
2.4
21
-7.21882007
0
LINE
8
0
10
2.4
20
-7.21882007
11
2.4
21
-7.04285865
0
LINE
8
0
10
2.4
20
-7.04285865
11
2.4
21
-6.60816009
0
LINE
8
0
10
2.4
20
-6.60816009
11
2.4
21
0.122056368
0
LINE
8
0
10
2.4
20
0.122056368
11
2.4
21
0.399573255
0
LINE
8
0
10
2.4
20
0.399573255
11
2.4
21
0.735699446
0
LINE
8
0
10
2.4
20
0.735699446
11
2.4
21
1.10017489
0
LINE
8
0
10
2.4
20
1.10017489
11
2.4
21
7.14941456
0
LINE
8
0
10
2.4
20
7.14941456
11
2.4
21
7.20089112
0
LINE
8
0
10
2.4
20
7.20089112
11
2.4
21
8.21164109
0
LINE
8
0
10
2.4
20
8.21164109
11
2.4
21
11.7952061
0
LINE
8
0
10
2.4
20
11.7952061
11
14.9057998
21
11.7952061
0
LINE
8
0
10
14.9057998
20
11.7952061
11
16
21
11.7952061
0
LINE
8
0
10
16
20
11.7952061
11
16
21
7.59276578
0
LINE
8
0
10
16
20
7.59276578
11
16
21
1.99887232
0
LINE
8
0
10
16
20
1.99887232
11
16
21
-7.60711093
0
LINE
8
0
10
16
20
-7.60711093
11
16
21
-8.15706138
0
LINE
8
0
10
16
20
-8.15706138
11
16
21
-8.75843734
0
LINE
8
0
10
16
20
-8.75843734
11
16
21
-9.36202348
0
LINE
8
0
10
16
20
-9.36202348
11
16
21
-9.44818574
0
LINE
8
0
10
16
20
-9.44818574
11
16
21
-9.52974754
0
LINE
8
0
10
16
20
-9.52974754
11
16
21
-10.1001667
0
LINE
8
0
10
16
20
-10.1001667
11
16
21
-10.1810912
0
LINE
8
0
10
16
20
-10.1810912
11
16
21
-10.1810912
0
LINE
8
0
10
16
20
31.5445365
11
16
21
36.0439209
0
LINE
8
0
10
16
20
36.0439209
11
16
21
41.9368391
0
LINE
8
0
10
16
20
41.9368391
11
16
21
42.9721215
0
LINE
8
0
10
16
20
42.9721215
11
4.02579975
21
42.9721215
0
LINE
8
0
10
4.02579975
20
42.9721215
11
2.4
21
42.9721215
0
LINE
8
0
10
2.4
20
42.9721215
11
2.4
21
42.511996
0
LINE
8
0
10
2.4
20
42.511996
11
2.4
21
41.9368391
0
LINE
8
0
10
2.4
20
41.9368391
11
2.4
21
38.4010882
0
LINE
8
0
10
2.4
20
38.4010882
11
2.4
21
36.0439209
0
LINE
8
0
10
2.4
20
36.0439209
11
2.4
21
33.9987462
0
LINE
8
0
10
2.4
20
33.9987462
11
2.4
21
31.5445365
0
LINE
8
0
10
2.4
20
31.5445365
11
8.93420025
21
31.5445365
0
LINE
8
0
10
8.93420025
20
31.5445365
11
16
21
31.5445365
0
LINE
8
0
10
16
20
31.5445365
11
16
21
31.5445365
0
LINE
8
0
10
16
20
69
11
16
21
67.0677841
0
LINE
8
0
10
16
20
67.0677841
11
16
21
66.7455654
0
LINE
8
0
10
16
20
66.7455654
11
16
21
66.4008973
0
LINE
8
0
10
16
20
66.4008973
11
16
21
66.0652067
0
LINE
8
0
10
16
20
66.0652067
11
16
21
52.9064209
0
LINE
8
0
10
16
20
52.9064209
11
16
21
51.0112116
0
LINE
8
0
10
16
20
51.0112116
11
16
21
50.5970985
0
LINE
8
0
10
16
20
50.5970985
11
14.3742002
21
50.5970985
0
LINE
8
0
10
14.3742002
20
50.5970985
11
2.4
21
50.5970985
0
LINE
8
0
10
2.4
20
50.5970985
11
2.4
21
51.0112116
0
LINE
8
0
10
2.4
20
51.0112116
11
2.4
21
51.1665041
0
LINE
8
0
10
2.4
20
51.1665041
11
2.4
21
52.406461
0
LINE
8
0
10
2.4
20
52.406461
11
2.4
21
65.9453856
0
LINE
8
0
10
2.4
20
65.9453856
11
2.4
21
66.1786089
0
LINE
8
0
10
2.4
20
66.1786089
11
2.4
21
66.4072982
0
LINE
8
0
10
2.4
20
66.4072982
11
2.4
21
66.6105142
0
LINE
8
0
10
2.4
20
66.6105142
11
2.4
21
69
0
LINE
8
0
10
2.4
20
69
11
2.43306771
21
69.2511764
0
LINE
8
0
10
2.43306771
20
69.2511764
11
2.468148
21
69.51764
0
LINE
8
0
10
2.468148
20
69.51764
11
2.5709988
21
69.7659426
0
LINE
8
0
10
2.5709988
20
69.7659426
11
2.667949
21
70
0
LINE
8
0
10
2.667949
20
70
11
2.83156074
21
70.2132213
0
LINE
8
0
10
2.83156074
20
70.2132213
11
2.985786
21
70.41421
0
LINE
8
0
10
2.985786
20
70.41421
11
3.19900936
21
70.5778233
0
LINE
8
0
10
3.19900936
20
70.5778233
11
3.4
21
70.73205
0
LINE
8
0
10
3.4
20
70.73205
11
3.64830364
21
70.8349003
0
LINE
8
0
10
3.64830364
20
70.8349003
11
3.882362
21
70.93185
0
LINE
8
0
10
3.882362
20
70.93185
11
4.14882453
21
70.9669313
0
LINE
8
0
10
4.14882453
20
70.9669313
11
4.4
21
71
0
LINE
8
0
10
4.4
20
71
11
10.9134945
21
71
0
LINE
8
0
10
10.9134945
20
71
11
13.2426169
21
71
0
LINE
8
0
10
13.2426169
20
71
11
14
21
71
0
LINE
8
0
10
14
20
71
11
14.1894556
21
70.9750572
0
LINE
8
0
10
14.1894556
20
70.9750572
11
14.51764
21
70.93185
0
LINE
8
0
10
14.51764
20
70.93185
11
14.8234569
21
70.8051765
0
LINE
8
0
10
14.8234569
20
70.8051765
11
15
21
70.73205
0
LINE
8
0
10
15
20
70.73205
11
15.2626097
21
70.530539
0
LINE
8
0
10
15.2626097
20
70.530539
11
15.41421
21
70.41421
0
LINE
8
0
10
15.41421
20
70.41421
11
15.615721
21
70.1516003
0
LINE
8
0
10
15.615721
20
70.1516003
11
15.73205
21
70
0
LINE
8
0
10
15.73205
20
70
11
15.8587235
21
69.6941831
0
LINE
8
0
10
15.8587235
20
69.6941831
11
15.93185
21
69.51764
0
LINE
8
0
10
15.93185
20
69.51764
11
15.9750572
21
69.1894556
0
LINE
8
0
10
15.9750572
20
69.1894556
11
16
21
69
0
LINE
8
0
10
16
20
69
11
16
21
69
0
LINE
8
0
10
16
20
22.8842791
11
16
21
20.4554609
0
LINE
8
0
10
16
20
20.4554609
11
16
21
12.4919745
0
LINE
8
0
10
16
20
12.4919745
11
3.49420025
21
12.4919745
0
LINE
8
0
10
3.49420025
20
12.4919745
11
2.4
21
12.4919745
0
LINE
8
0
10
2.4
20
12.4919745
11
2.4
21
16.8356985
0
LINE
8
0
10
2.4
20
16.8356985
11
2.4
21
20.4554609
0
LINE
8
0
10
2.4
20
20.4554609
11
2.4
21
21.4269882
0
LINE
8
0
10
2.4
20
21.4269882
11
2.4
21
22.8842791
0
LINE
8
0
10
2.4
20
22.8842791
11
2.4
21
25.3839371
0
LINE
8
0
10
2.4
20
25.3839371
11
2.4
21
27.3836635
0
LINE
8
0
10
2.4
20
27.3836635
11
9.46579975
21
27.3836635
0
LINE
8
0
10
9.46579975
20
27.3836635
11
16
21
27.3836635
0
LINE
8
0
10
16
20
27.3836635
11
16
21
22.8842791
0
LINE
8
0
10
16
20
22.8842791
11
16
21
22.8842791
0
ENDSEC
0
EOF
