0
SECTION
2
ENTITIES
0
LINE
8
0
10
16
20
-9.68181381
11
16
21
-9.75521396
0
LINE
8
0
10
16
20
-9.75521396
11
16
21
-10.3148696
0
LINE
8
0
10
16
20
-10.3148696
11
16
21
-10.7742659
0
LINE
8
0
10
16
20
-10.7742659
11
16
21
-14
0
LINE
8
0
10
16
20
-14
11
15.9904249
21
-14.1581097
0
LINE
8
0
10
15.9904249
20
-14.1581097
11
15.9456724
21
-14.4453235
0
LINE
8
0
10
15.9456724
20
-14.4453235
11
15.935067
21
-14.504444
0
LINE
8
0
10
15.935067
20
-14.504444
11
15.896855
21
-14.6101381
0
LINE
8
0
10
15.896855
20
-14.6101381
11
15.7466648
21
-14.9727295
0
LINE
8
0
10
15.7466648
20
-14.9727295
11
15.6918275
21
-15.0589558
0
LINE
8
0
10
15.6918275
20
-15.0589558
11
15.4506183
21
-15.3733004
0
LINE
8
0
10
15.4506183
20
-15.3733004
11
15.3880462
21
-15.4384085
0
LINE
8
0
10
15.3880462
20
-15.4384085
11
15.0712379
21
-15.6816203
0
LINE
8
0
10
15.0712379
20
-15.6816203
11
15.0009166
21
-15.7314318
0
LINE
8
0
10
15.0009166
20
-15.7314318
11
14.9291246
21
-15.764753
0
LINE
8
0
10
14.9291246
20
-15.764753
11
14.5514426
21
-15.9212977
0
LINE
8
0
10
14.5514426
20
-15.9212977
11
14.4786105
21
-15.9402706
0
LINE
8
0
10
14.4786105
20
-15.9402706
11
14.4119214
21
-15.9457684
0
LINE
8
0
10
14.4119214
20
-15.9457684
11
14
21
-16
0
LINE
8
0
10
14
20
-16
11
10.1803112
21
-16
0
LINE
8
0
10
10.1803112
20
-16
11
4.4
21
-16
0
LINE
8
0
10
4.4
20
-16
11
4.25228333
21
-15.987495
0
LINE
8
0
10
4.25228333
20
-15.987495
11
4.07530387
21
-15.9572519
0
LINE
8
0
10
4.07530387
20
-15.9572519
11
3.882362
21
-15.93185
0
LINE
8
0
10
3.882362
20
-15.93185
11
3.75999897
21
-15.8812342
0
LINE
8
0
10
3.75999897
20
-15.8812342
11
3.40101717
21
-15.7326396
0
LINE
8
0
10
3.40101717
20
-15.7326396
11
3.29517466
21
-15.6515005
0
LINE
8
0
10
3.29517466
20
-15.6515005
11
2.985786
21
-15.41421
0
LINE
8
0
10
2.985786
20
-15.41421
11
2.90488693
21
-15.3087811
0
LINE
8
0
10
2.90488693
20
-15.3087811
11
2.667949
21
-15
0
LINE
8
0
10
2.667949
20
-15
11
2.61709364
21
-14.8772249
0
LINE
8
0
10
2.61709364
20
-14.8772249
11
2.468148
21
-14.51764
0
LINE
8
0
10
2.468148
20
-14.51764
11
2.45947514
21
-14.4517625
0
LINE
8
0
10
2.45947514
20
-14.4517625
11
2.4
21
-14
0
LINE
8
0
10
2.4
20
-14
11
2.4
21
-13.9746558
0
LINE
8
0
10
2.4
20
-13.9746558
11
2.4
21
-6.97197522
0
LINE
8
0
10
2.4
20
-6.97197522
11
2.4
21
-6.80843488
0
LINE
8
0
10
2.4
20
-6.80843488
11
2.4
21
-6.35795477
0
LINE
8
0
10
2.4
20
-6.35795477
11
2.4
21
-0.122999454
0
LINE
8
0
10
2.4
20
-0.122999454
11
2.4
21
0.172054337
0
LINE
8
0
10
2.4
20
0.172054337
11
2.4
21
0.529421084
0
LINE
8
0
10
2.4
20
0.529421084
11
2.4
21
0.916928541
0
LINE
8
0
10
2.4
20
0.916928541
11
2.4
21
7.34843303
0
LINE
8
0
10
2.4
20
7.34843303
11
2.4
21
7.38448191
0
LINE
8
0
10
2.4
20
7.38448191
11
2.4
21
8.09230715
0
LINE
8
0
10
2.4
20
8.09230715
11
2.4
21
10.6018672
0
LINE
8
0
10
2.4
20
10.6018672
11
11.1577749
21
10.6018672
0
LINE
8
0
10
11.1577749
20
10.6018672
11
16
21
10.6018672
0
LINE
8
0
10
16
20
10.6018672
11
16
21
7.65891058
0
LINE
8
0
10
16
20
7.65891058
11
16
21
3.74152339
0
LINE
8
0
10
16
20
3.74152339
11
16
21
-6.9445305
0
LINE
8
0
10
16
20
-6.9445305
11
16
21
-7.55631589
0
LINE
8
0
10
16
20
-7.55631589
11
16
21
-8.22530892
0
LINE
8
0
10
16
20
-8.22530892
11
16
21
-8.89676065
0
LINE
8
0
10
16
20
-8.89676065
11
16
21
-8.9741939
0
LINE
8
0
10
16
20
-8.9741939
11
16
21
-9.04749275
0
LINE
8
0
10
16
20
-9.04749275
11
16
21
-9.68181381
0
LINE
8
0
10
16
20
-9.68181381
11
16
21
-9.68181381
0
LINE
8
0
10
16
20
39.0759874
11
16
21
34.8505815
0
LINE
8
0
10
16
20
34.8505815
11
16
21
32.7378773
0
LINE
8
0
10
16
20
32.7378773
11
12.6822251
21
32.7378773
0
LINE
8
0
10
12.6822251
20
32.7378773
11
2.4
21
32.7378773
0
LINE
8
0
10
2.4
20
32.7378773
11
2.4
21
33.8902614
0
LINE
8
0
10
2.4
20
33.8902614
11
2.4
21
34.8505815
0
LINE
8
0
10
2.4
20
34.8505815
11
2.4
21
38.1624203
0
LINE
8
0
10
2.4
20
38.1624203
11
2.4
21
41.7787815
0
LINE
8
0
10
2.4
20
41.7787815
11
2.4
21
42.3930532
0
LINE
8
0
10
2.4
20
42.3930532
11
2.4
21
43.1301793
0
LINE
8
0
10
2.4
20
43.1301793
11
13.8777749
21
43.1301793
0
LINE
8
0
10
13.8777749
20
43.1301793
11
16
21
43.1301793
0
LINE
8
0
10
16
20
43.1301793
11
16
21
41.7787815
0
LINE
8
0
10
16
20
41.7787815
11
16
21
39.0759874
0
LINE
8
0
10
16
20
39.0759874
11
16
21
39.0759874
0
LINE
8
0
10
16
20
69
11
16
21
66.5718785
0
LINE
8
0
10
16
20
66.5718785
11
16
21
66.1669619
0
LINE
8
0
10
16
20
66.1669619
11
16
21
65.7338343
0
LINE
8
0
10
16
20
65.7338343
11
16
21
65.3119883
0
LINE
8
0
10
16
20
65.3119883
11
16
21
51.5761592
0
LINE
8
0
10
16
20
51.5761592
11
16
21
51.5188965
0
LINE
8
0
10
16
20
51.5188965
11
16
21
51.4513179
0
LINE
8
0
10
16
20
51.4513179
11
16
21
50.4390407
0
LINE
8
0
10
16
20
50.4390407
11
4.52222509
21
50.4390407
0
LINE
8
0
10
4.52222509
20
50.4390407
11
2.4
21
50.4390407
0
LINE
8
0
10
2.4
20
50.4390407
11
2.4
21
51.0471701
0
LINE
8
0
10
2.4
20
51.0471701
11
2.4
21
51.3014049
0
LINE
8
0
10
2.4
20
51.3014049
11
2.4
21
51.3280172
0
LINE
8
0
10
2.4
20
51.3280172
11
2.4
21
51.35967
0
LINE
8
0
10
2.4
20
51.35967
11
2.4
21
51.3933176
0
LINE
8
0
10
2.4
20
51.3933176
11
2.4
21
51.4249738
0
LINE
8
0
10
2.4
20
51.4249738
11
2.4
21
51.4506301
0
LINE
8
0
10
2.4
20
51.4506301
11
2.4
21
65.3972077
0
LINE
8
0
10
2.4
20
65.3972077
11
2.4
21
65.672285
0
LINE
8
0
10
2.4
20
65.672285
11
2.4
21
65.9420147
0
LINE
8
0
10
2.4
20
65.9420147
11
2.4
21
66.1816996
0
LINE
8
0
10
2.4
20
66.1816996
11
2.4
21
69
0
LINE
8
0
10
2.4
20
69
11
2.43900201
21
69.2962523
0
LINE
8
0
10
2.43900201
20
69.2962523
11
2.468148
21
69.51764
0
LINE
8
0
10
2.468148
20
69.51764
11
2.55360021
21
69.7239389
0
LINE
8
0
10
2.55360021
20
69.7239389
11
2.667949
21
70
0
LINE
8
0
10
2.667949
20
70
11
2.80388363
21
70.1771521
0
LINE
8
0
10
2.80388363
20
70.1771521
11
2.985786
21
70.41421
0
LINE
8
0
10
2.985786
20
70.41421
11
3.16293979
21
70.5501459
0
LINE
8
0
10
3.16293979
20
70.5501459
11
3.4
21
70.73205
0
LINE
8
0
10
3.4
20
70.73205
11
3.60629977
21
70.8175018
0
LINE
8
0
10
3.60629977
20
70.8175018
11
3.882362
21
70.93185
0
LINE
8
0
10
3.882362
20
70.93185
11
4.10374885
21
70.9609968
0
LINE
8
0
10
4.10374885
20
70.9609968
11
4.4
21
71
0
LINE
8
0
10
4.4
20
71
11
10.5390525
21
71
0
LINE
8
0
10
10.5390525
20
71
11
13.2861567
21
71
0
LINE
8
0
10
13.2861567
20
71
11
14
21
71
0
LINE
8
0
10
14
20
71
11
14.2380796
21
70.9686556
0
LINE
8
0
10
14.2380796
20
70.9686556
11
14.51764
21
70.93185
0
LINE
8
0
10
14.51764
20
70.93185
11
14.7781468
21
70.8239446
0
LINE
8
0
10
14.7781468
20
70.8239446
11
15
21
70.73205
0
LINE
8
0
10
15
20
70.73205
11
15.2237013
21
70.560395
0
LINE
8
0
10
15.2237013
20
70.560395
11
15.41421
21
70.41421
0
LINE
8
0
10
15.41421
20
70.41421
11
15.585865
21
70.1905087
0
LINE
8
0
10
15.585865
20
70.1905087
11
15.73205
21
70
0
LINE
8
0
10
15.73205
20
70
11
15.8399554
21
69.7394932
0
LINE
8
0
10
15.8399554
20
69.7394932
11
15.93185
21
69.51764
0
LINE
8
0
10
15.93185
20
69.51764
11
15.9686556
21
69.2380796
0
LINE
8
0
10
15.9686556
20
69.2380796
11
16
21
69
0
LINE
8
0
10
16
20
69
11
16
21
69
0
LINE
8
0
10
16
20
19.2621215
11
16
21
24.0776185
0
LINE
8
0
10
16
20
24.0776185
11
16
21
26.1903227
0
LINE
8
0
10
16
20
26.1903227
11
5.71777491
21
26.1903227
0
LINE
8
0
10
5.71777491
20
26.1903227
11
2.4
21
26.1903227
0
LINE
8
0
10
2.4
20
26.1903227
11
2.4
21
25.2513431
0
LINE
8
0
10
2.4
20
25.2513431
11
2.4
21
24.0776185
0
LINE
8
0
10
2.4
20
24.0776185
11
2.4
21
21.1883203
0
LINE
8
0
10
2.4
20
21.1883203
11
2.4
21
19.2621215
0
LINE
8
0
10
2.4
20
19.2621215
11
2.4
21
16.7272125
0
LINE
8
0
10
2.4
20
16.7272125
11
2.4
21
13.6853153
0
LINE
8
0
10
2.4
20
13.6853153
11
7.24222509
21
13.6853153
0
LINE
8
0
10
7.24222509
20
13.6853153
11
16
21
13.6853153
0
LINE
8
0
10
16
20
13.6853153
11
16
21
19.2621215
0
LINE
8
0
10
16
20
19.2621215
11
16
21
19.2621215
0
ENDSEC
0
EOF
