0
SECTION
2
ENTITIES
0
LINE
8
0
10
16
20
51.847794
11
16
21
65.0609155
0
LINE
8
0
10
16
20
65.0609155
11
16
21
65.5114799
0
LINE
8
0
10
16
20
65.5114799
11
16
21
65.9740941
0
LINE
8
0
10
16
20
65.9740941
11
16
21
66.4065766
0
LINE
8
0
10
16
20
66.4065766
11
16
21
69
0
LINE
8
0
10
16
20
69
11
15.9665217
21
69.2542876
0
LINE
8
0
10
15.9665217
20
69.2542876
11
15.93185
21
69.51764
0
LINE
8
0
10
15.93185
20
69.51764
11
15.8336994
21
69.7545965
0
LINE
8
0
10
15.8336994
20
69.7545965
11
15.73205
21
70
0
LINE
8
0
10
15.73205
20
70
11
15.575913
21
70.2034782
0
LINE
8
0
10
15.575913
20
70.2034782
11
15.41421
21
70.41421
0
LINE
8
0
10
15.41421
20
70.41421
11
15.2107318
21
70.570347
0
LINE
8
0
10
15.2107318
20
70.570347
11
15
21
70.73205
0
LINE
8
0
10
15
20
70.73205
11
14.7630435
21
70.8302006
0
LINE
8
0
10
14.7630435
20
70.8302006
11
14.51764
21
70.93185
0
LINE
8
0
10
14.51764
20
70.93185
11
14.2542876
21
70.9665217
0
LINE
8
0
10
14.2542876
20
70.9665217
11
14
21
71
0
LINE
8
0
10
14
20
71
11
13.3006699
21
71
0
LINE
8
0
10
13.3006699
20
71
11
10.4142384
21
71
0
LINE
8
0
10
10.4142384
20
71
11
4.4
21
71
0
LINE
8
0
10
4.4
20
71
11
4.08872362
21
70.9590187
0
LINE
8
0
10
4.08872362
20
70.9590187
11
3.882362
21
70.93185
0
LINE
8
0
10
3.882362
20
70.93185
11
3.59229848
21
70.8117023
0
LINE
8
0
10
3.59229848
20
70.8117023
11
3.4
21
70.73205
0
LINE
8
0
10
3.4
20
70.73205
11
3.1509166
21
70.5409201
0
LINE
8
0
10
3.1509166
20
70.5409201
11
2.985786
21
70.41421
0
LINE
8
0
10
2.985786
20
70.41421
11
2.79465793
21
70.165129
0
LINE
8
0
10
2.79465793
20
70.165129
11
2.667949
21
70
0
LINE
8
0
10
2.667949
20
70
11
2.54780069
21
69.7099377
0
LINE
8
0
10
2.54780069
20
69.7099377
11
2.468148
21
69.51764
0
LINE
8
0
10
2.468148
20
69.51764
11
2.44098011
21
69.3112776
0
LINE
8
0
10
2.44098011
20
69.3112776
11
2.4
21
69
0
LINE
8
0
10
2.4
20
69
11
2.4
21
66.0387614
0
LINE
8
0
10
2.4
20
66.0387614
11
2.4
21
65.7869202
0
LINE
8
0
10
2.4
20
65.7869202
11
2.4
21
65.5035103
0
LINE
8
0
10
2.4
20
65.5035103
11
2.4
21
65.2144818
0
LINE
8
0
10
2.4
20
65.2144818
11
2.4
21
51.6483667
0
LINE
8
0
10
2.4
20
51.6483667
11
2.4
21
51.6076067
0
LINE
8
0
10
2.4
20
51.6076067
11
2.4
21
51.5573146
0
LINE
8
0
10
2.4
20
51.5573146
11
2.4
21
51.5038588
0
LINE
8
0
10
2.4
20
51.5038588
11
2.4
21
51.4535722
0
LINE
8
0
10
2.4
20
51.4535722
11
2.4
21
51.4112935
0
LINE
8
0
10
2.4
20
51.4112935
11
2.4
21
51.0073922
0
LINE
8
0
10
2.4
20
51.0073922
11
2.4
21
50.0412604
0
LINE
8
0
10
2.4
20
50.0412604
11
5.77156671
21
50.0412604
0
LINE
8
0
10
5.77156671
20
50.0412604
11
16
21
50.0412604
0
LINE
8
0
10
16
20
50.0412604
11
16
21
51.6494594
0
LINE
8
0
10
16
20
51.6494594
11
16
21
51.7568211
0
LINE
8
0
10
16
20
51.7568211
11
16
21
51.847794
0
LINE
8
0
10
16
20
51.847794
11
16
21
51.847794
0
LINE
8
0
10
16
20
43.5279596
11
16
21
41.3810017
0
LINE
8
0
10
16
20
41.3810017
11
16
21
37.0870883
0
LINE
8
0
10
16
20
37.0870883
11
16
21
34.4528017
0
LINE
8
0
10
16
20
34.4528017
11
16
21
33.1356576
0
LINE
8
0
10
16
20
33.1356576
11
13.9315667
21
33.1356576
0
LINE
8
0
10
13.9315667
20
33.1356576
11
2.4
21
33.1356576
0
LINE
8
0
10
2.4
20
33.1356576
11
2.4
21
33.8540998
0
LINE
8
0
10
2.4
20
33.8540998
11
2.4
21
34.4528017
0
LINE
8
0
10
2.4
20
34.4528017
11
2.4
21
38.0828643
0
LINE
8
0
10
2.4
20
38.0828643
11
2.4
21
41.3810017
0
LINE
8
0
10
2.4
20
41.3810017
11
2.4
21
42.3568916
0
LINE
8
0
10
2.4
20
42.3568916
11
2.4
21
43.5279596
0
LINE
8
0
10
2.4
20
43.5279596
11
12.6284333
21
43.5279596
0
LINE
8
0
10
12.6284333
20
43.5279596
11
16
21
43.5279596
0
LINE
8
0
10
16
20
43.5279596
11
16
21
43.5279596
0
LINE
8
0
10
16
20
-8.81619662
11
16
21
-8.74167304
0
LINE
8
0
10
16
20
-8.74167304
11
16
21
-8.04759945
0
LINE
8
0
10
16
20
-8.04759945
11
16
21
-7.35606739
0
LINE
8
0
10
16
20
-7.35606739
11
16
21
-6.72367036
0
LINE
8
0
10
16
20
-6.72367036
11
16
21
4.32240708
0
LINE
8
0
10
16
20
4.32240708
11
16
21
7.68095885
0
LINE
8
0
10
16
20
7.68095885
11
16
21
10.2040876
0
LINE
8
0
10
16
20
10.2040876
11
9.90843329
21
10.2040876
0
LINE
8
0
10
9.90843329
20
10.2040876
11
2.4
21
10.2040876
0
LINE
8
0
10
2.4
20
10.2040876
11
2.4
21
8.05252917
0
LINE
8
0
10
2.4
20
8.05252917
11
2.4
21
7.44567884
0
LINE
8
0
10
2.4
20
7.44567884
11
2.4
21
7.41477251
0
LINE
8
0
10
2.4
20
7.41477251
11
2.4
21
0.855846423
0
LINE
8
0
10
2.4
20
0.855846423
11
2.4
21
0.46066163
0
LINE
8
0
10
2.4
20
0.46066163
11
2.4
21
0.0962146978
0
LINE
8
0
10
2.4
20
0.0962146978
11
2.4
21
-0.204684729
0
LINE
8
0
10
2.4
20
-0.204684729
11
2.4
21
-6.27455299
0
LINE
8
0
10
2.4
20
-6.27455299
11
2.4
21
-6.73029362
0
LINE
8
0
10
2.4
20
-6.73029362
11
2.4
21
-6.8896936
0
LINE
8
0
10
2.4
20
-6.8896936
11
2.4
21
-13.9743591
0
LINE
8
0
10
2.4
20
-13.9743591
11
2.4
21
-14
0
LINE
8
0
10
2.4
20
-14
11
2.46017145
21
-14.4570516
0
LINE
8
0
10
2.46017145
20
-14.4570516
11
2.468148
21
-14.51764
0
LINE
8
0
10
2.468148
20
-14.51764
11
2.62117664
21
-14.8870821
0
LINE
8
0
10
2.62117664
20
-14.8870821
11
2.667949
21
-15
0
LINE
8
0
10
2.667949
20
-15
11
2.91138204
21
-15.3172456
0
LINE
8
0
10
2.91138204
20
-15.3172456
11
2.985786
21
-15.41421
0
LINE
8
0
10
2.985786
20
-15.41421
11
3.30365584
21
-15.6580053
0
LINE
8
0
10
3.30365584
20
-15.6580053
11
3.40100062
21
-15.73263
0
LINE
8
0
10
3.40100062
20
-15.73263
11
3.76982307
21
-15.8852979
0
LINE
8
0
10
3.76982307
20
-15.8852979
11
3.882362
21
-15.93185
0
LINE
8
0
10
3.882362
20
-15.93185
11
4.08059293
21
-15.9579482
0
LINE
8
0
10
4.08059293
20
-15.9579482
11
4.25468952
21
-15.9876987
0
LINE
8
0
10
4.25468952
20
-15.9876987
11
4.4
21
-16
0
LINE
8
0
10
4.4
20
-16
11
10.0861543
21
-16
0
LINE
8
0
10
10.0861543
20
-16
11
14
21
-16
0
LINE
8
0
10
14
20
-16
11
14.4220755
21
-15.9444316
0
LINE
8
0
10
14.4220755
20
-15.9444316
11
14.4823592
21
-15.9394618
0
LINE
8
0
10
14.4823592
20
-15.9394618
11
14.5481959
21
-15.9223113
0
LINE
8
0
10
14.5481959
20
-15.9223113
11
14.9360079
21
-15.7615677
0
LINE
8
0
10
14.9360079
20
-15.7615677
11
15.0009044
21
-15.731447
0
LINE
8
0
10
15.0009044
20
-15.731447
11
15.0644715
21
-15.6864198
0
LINE
8
0
10
15.0644715
20
-15.6864198
11
15.3905592
21
-15.4360843
0
LINE
8
0
10
15.3905592
20
-15.4360843
11
15.4471214
21
-15.3772297
0
LINE
8
0
10
15.4471214
20
-15.3772297
11
15.6956908
21
-15.0532932
0
LINE
8
0
10
15.6956908
20
-15.0532932
11
15.745261
21
-14.9753488
0
LINE
8
0
10
15.745261
20
-14.9753488
11
15.9002162
21
-14.6012538
0
LINE
8
0
10
15.9002162
20
-14.6012538
11
15.934758
21
-14.5057114
0
LINE
8
0
10
15.934758
20
-14.5057114
11
15.9443447
21
-14.4522693
0
LINE
8
0
10
15.9443447
20
-14.4522693
11
15.9905809
21
-14.1555342
0
LINE
8
0
10
15.9905809
20
-14.1555342
11
16
21
-14
0
LINE
8
0
10
16
20
-14
11
16
21
-10.6663872
0
LINE
8
0
10
16
20
-10.6663872
11
16
21
-10.1916272
0
LINE
8
0
10
16
20
-10.1916272
11
16
21
-9.61325489
0
LINE
8
0
10
16
20
-9.61325489
11
16
21
-9.54236283
0
LINE
8
0
10
16
20
-9.54236283
11
16
21
-8.88674116
0
LINE
8
0
10
16
20
-8.88674116
11
16
21
-8.81619662
0
LINE
8
0
10
16
20
-8.81619662
11
16
21
-8.81619662
0
LINE
8
0
10
16
20
25.7925424
11
16
21
24.4753983
0
LINE
8
0
10
16
20
24.4753983
11
16
21
18.8643417
0
LINE
8
0
10
16
20
18.8643417
11
16
21
14.0830956
0
LINE
8
0
10
16
20
14.0830956
11
8.49156671
21
14.0830956
0
LINE
8
0
10
8.49156671
20
14.0830956
11
2.4
21
14.0830956
0
LINE
8
0
10
2.4
20
14.0830956
11
2.4
21
16.6910505
0
LINE
8
0
10
2.4
20
16.6910505
11
2.4
21
18.8643417
0
LINE
8
0
10
2.4
20
18.8643417
11
2.4
21
21.1087643
0
LINE
8
0
10
2.4
20
21.1087643
11
2.4
21
24.4753983
0
LINE
8
0
10
2.4
20
24.4753983
11
2.4
21
25.2071451
0
LINE
8
0
10
2.4
20
25.2071451
11
2.4
21
25.7925424
0
LINE
8
0
10
2.4
20
25.7925424
11
4.46843329
21
25.7925424
0
LINE
8
0
10
4.46843329
20
25.7925424
11
16
21
25.7925424
0
LINE
8
0
10
16
20
25.7925424
11
16
21
25.7925424
0
ENDSEC
0
EOF
