0
SECTION
2
ENTITIES
0
LINE
8
0
10
16
20
33.5334378
11
16
21
34.0550219
0
LINE
8
0
10
16
20
34.0550219
11
16
21
35.0981893
0
LINE
8
0
10
16
20
35.0981893
11
16
21
40.9832219
0
LINE
8
0
10
16
20
40.9832219
11
16
21
43.9257398
0
LINE
8
0
10
16
20
43.9257398
11
11.3790917
21
43.9257398
0
LINE
8
0
10
11.3790917
20
43.9257398
11
2.4
21
43.9257398
0
LINE
8
0
10
2.4
20
43.9257398
11
2.4
21
42.32073
0
LINE
8
0
10
2.4
20
42.32073
11
2.4
21
40.9832219
0
LINE
8
0
10
2.4
20
40.9832219
11
2.4
21
38.0033084
0
LINE
8
0
10
2.4
20
38.0033084
11
2.4
21
34.0550219
0
LINE
8
0
10
2.4
20
34.0550219
11
2.4
21
33.8179382
0
LINE
8
0
10
2.4
20
33.8179382
11
2.4
21
33.5334378
0
LINE
8
0
10
2.4
20
33.5334378
11
15.1809083
21
33.5334378
0
LINE
8
0
10
15.1809083
20
33.5334378
11
16
21
33.5334378
0
LINE
8
0
10
16
20
33.5334378
11
16
21
33.5334378
0
LINE
8
0
10
16
20
-10.0683847
11
16
21
-9.47129581
0
LINE
8
0
10
16
20
-9.47129581
11
16
21
-9.40291186
0
LINE
8
0
10
16
20
-9.40291186
11
16
21
-8.72598956
0
LINE
8
0
10
16
20
-8.72598956
11
16
21
-8.65819934
0
LINE
8
0
10
16
20
-8.65819934
11
16
21
-8.58658543
0
LINE
8
0
10
16
20
-8.58658543
11
16
21
-7.86988998
0
LINE
8
0
10
16
20
-7.86988998
11
16
21
-7.15581889
0
LINE
8
0
10
16
20
-7.15581889
11
16
21
-6.50281022
0
LINE
8
0
10
16
20
-6.50281022
11
16
21
4.90329077
0
LINE
8
0
10
16
20
4.90329077
11
16
21
7.70300712
0
LINE
8
0
10
16
20
7.70300712
11
16
21
9.80630794
0
LINE
8
0
10
16
20
9.80630794
11
8.65909168
21
9.80630794
0
LINE
8
0
10
8.65909168
20
9.80630794
11
2.4
21
9.80630794
0
LINE
8
0
10
2.4
20
9.80630794
11
2.4
21
8.01275119
0
LINE
8
0
10
2.4
20
8.01275119
11
2.4
21
7.50687577
0
LINE
8
0
10
2.4
20
7.50687577
11
2.4
21
7.481112
0
LINE
8
0
10
2.4
20
7.481112
11
2.4
21
0.794764305
0
LINE
8
0
10
2.4
20
0.794764305
11
2.4
21
0.391902177
0
LINE
8
0
10
2.4
20
0.391902177
11
2.4
21
0.0203750586
0
LINE
8
0
10
2.4
20
0.0203750586
11
2.4
21
-0.286370003
0
LINE
8
0
10
2.4
20
-0.286370003
11
2.4
21
-6.19115122
0
LINE
8
0
10
2.4
20
-6.19115122
11
2.4
21
-6.65215236
0
LINE
8
0
10
2.4
20
-6.65215236
11
2.4
21
-6.80741198
0
LINE
8
0
10
2.4
20
-6.80741198
11
2.4
21
-13.9740623
0
LINE
8
0
10
2.4
20
-13.9740623
11
2.4
21
-14
0
LINE
8
0
10
2.4
20
-14
11
2.46086777
21
-14.4623407
0
LINE
8
0
10
2.46086777
20
-14.4623407
11
2.468148
21
-14.51764
0
LINE
8
0
10
2.468148
20
-14.51764
11
2.62525964
21
-14.8969393
0
LINE
8
0
10
2.62525964
20
-14.8969393
11
2.667949
21
-15
0
LINE
8
0
10
2.667949
20
-15
11
2.91787714
21
-15.3257101
0
LINE
8
0
10
2.91787714
20
-15.3257101
11
2.985786
21
-15.41421
0
LINE
8
0
10
2.985786
20
-15.41421
11
3.31213701
21
-15.6645101
0
LINE
8
0
10
3.31213701
20
-15.6645101
11
3.40098406
21
-15.7326204
0
LINE
8
0
10
3.40098406
20
-15.7326204
11
3.77964717
21
-15.8893617
0
LINE
8
0
10
3.77964717
20
-15.8893617
11
3.882362
21
-15.93185
0
LINE
8
0
10
3.882362
20
-15.93185
11
4.08588198
21
-15.9586446
0
LINE
8
0
10
4.08588198
20
-15.9586446
11
4.25709572
21
-15.9879024
0
LINE
8
0
10
4.25709572
20
-15.9879024
11
4.4
21
-16
0
LINE
8
0
10
4.4
20
-16
11
9.9919974
21
-16
0
LINE
8
0
10
9.9919974
20
-16
11
14
21
-16
0
LINE
8
0
10
14
20
-16
11
14.4322295
21
-15.9430947
0
LINE
8
0
10
14.4322295
20
-15.9430947
11
14.4861079
21
-15.938653
0
LINE
8
0
10
14.4861079
20
-15.938653
11
14.5449492
21
-15.9233248
0
LINE
8
0
10
14.5449492
20
-15.9233248
11
14.9428912
21
-15.7583825
0
LINE
8
0
10
14.9428912
20
-15.7583825
11
15.0008922
21
-15.7314622
0
LINE
8
0
10
15.0008922
20
-15.7314622
11
15.0577052
21
-15.6912192
0
LINE
8
0
10
15.0577052
20
-15.6912192
11
15.3930721
21
-15.4337601
0
LINE
8
0
10
15.3930721
20
-15.4337601
11
15.4436244
21
-15.381159
0
LINE
8
0
10
15.4436244
20
-15.381159
11
15.6995541
21
-15.0476307
0
LINE
8
0
10
15.6995541
20
-15.0476307
11
15.7438573
21
-14.9779681
0
LINE
8
0
10
15.7438573
20
-14.9779681
11
15.9035774
21
-14.5923696
0
LINE
8
0
10
15.9035774
20
-14.5923696
11
15.934449
21
-14.5069789
0
LINE
8
0
10
15.934449
20
-14.5069789
11
15.9430171
21
-14.4592151
0
LINE
8
0
10
15.9430171
20
-14.4592151
11
15.9907369
21
-14.1529587
0
LINE
8
0
10
15.9907369
20
-14.1529587
11
16
21
-14
0
LINE
8
0
10
16
20
-14
11
16
21
-10.5585084
0
LINE
8
0
10
16
20
-10.5585084
11
16
21
-10.0683847
0
LINE
8
0
10
16
20
-10.0683847
11
16
21
-10.0683847
0
LINE
8
0
10
16
20
24.8731781
11
16
21
18.4665619
0
LINE
8
0
10
16
20
18.4665619
11
16
21
14.4808758
0
LINE
8
0
10
16
20
14.4808758
11
9.74090832
21
14.4808758
0
LINE
8
0
10
9.74090832
20
14.4808758
11
2.4
21
14.4808758
0
LINE
8
0
10
2.4
20
14.4808758
11
2.4
21
16.6548885
0
LINE
8
0
10
2.4
20
16.6548885
11
2.4
21
18.4665619
0
LINE
8
0
10
2.4
20
18.4665619
11
2.4
21
21.0292084
0
LINE
8
0
10
2.4
20
21.0292084
11
2.4
21
24.8731781
0
LINE
8
0
10
2.4
20
24.8731781
11
2.4
21
25.162947
0
LINE
8
0
10
2.4
20
25.162947
11
2.4
21
25.3947622
0
LINE
8
0
10
2.4
20
25.3947622
11
3.21909168
21
25.3947622
0
LINE
8
0
10
3.21909168
20
25.3947622
11
16
21
25.3947622
0
LINE
8
0
10
16
20
25.3947622
11
16
21
24.8731781
0
LINE
8
0
10
16
20
24.8731781
11
16
21
24.8731781
0
LINE
8
0
10
16
20
69
11
16
21
66.2412747
0
LINE
8
0
10
16
20
66.2412747
11
16
21
65.7812263
0
LINE
8
0
10
16
20
65.7812263
11
16
21
65.2891256
0
LINE
8
0
10
16
20
65.2891256
11
16
21
64.8098427
0
LINE
8
0
10
16
20
64.8098427
11
16
21
52.1194288
0
LINE
8
0
10
16
20
52.1194288
11
16
21
51.9947457
0
LINE
8
0
10
16
20
51.9947457
11
16
21
51.8476009
0
LINE
8
0
10
16
20
51.8476009
11
16
21
49.6434802
0
LINE
8
0
10
16
20
49.6434802
11
7.02090832
21
49.6434802
0
LINE
8
0
10
7.02090832
20
49.6434802
11
2.4
21
49.6434802
0
LINE
8
0
10
2.4
20
49.6434802
11
2.4
21
50.9676142
0
LINE
8
0
10
2.4
20
50.9676142
11
2.4
21
51.521182
0
LINE
8
0
10
2.4
20
51.521182
11
2.4
21
51.5791272
0
LINE
8
0
10
2.4
20
51.5791272
11
2.4
21
51.6480477
0
LINE
8
0
10
2.4
20
51.6480477
11
2.4
21
51.7213116
0
LINE
8
0
10
2.4
20
51.7213116
11
2.4
21
51.7902395
0
LINE
8
0
10
2.4
20
51.7902395
11
2.4
21
51.8461032
0
LINE
8
0
10
2.4
20
51.8461032
11
2.4
21
65.0317558
0
LINE
8
0
10
2.4
20
65.0317558
11
2.4
21
65.3347357
0
LINE
8
0
10
2.4
20
65.3347357
11
2.4
21
65.6318257
0
LINE
8
0
10
2.4
20
65.6318257
11
2.4
21
65.8958233
0
LINE
8
0
10
2.4
20
65.8958233
11
2.4
21
69
0
LINE
8
0
10
2.4
20
69
11
2.44295821
21
69.3263029
0
LINE
8
0
10
2.44295821
20
69.3263029
11
2.468148
21
69.51764
0
LINE
8
0
10
2.468148
20
69.51764
11
2.54200116
21
69.6959365
0
LINE
8
0
10
2.54200116
20
69.6959365
11
2.667949
21
70
0
LINE
8
0
10
2.667949
20
70
11
2.78543223
21
70.1531059
0
LINE
8
0
10
2.78543223
20
70.1531059
11
2.985786
21
70.41421
0
LINE
8
0
10
2.985786
20
70.41421
11
3.13889341
21
70.5316943
0
LINE
8
0
10
3.13889341
20
70.5316943
11
3.4
21
70.73205
0
LINE
8
0
10
3.4
20
70.73205
11
3.5782972
21
70.8059028
0
LINE
8
0
10
3.5782972
20
70.8059028
11
3.882362
21
70.93185
0
LINE
8
0
10
3.882362
20
70.93185
11
4.07369839
21
70.9570405
0
LINE
8
0
10
4.07369839
20
70.9570405
11
4.4
21
71
0
LINE
8
0
10
4.4
20
71
11
10.2894244
21
71
0
LINE
8
0
10
10.2894244
20
71
11
13.3151832
21
71
0
LINE
8
0
10
13.3151832
20
71
11
14
21
71
0
LINE
8
0
10
14
20
71
11
14.2704956
21
70.9643878
0
LINE
8
0
10
14.2704956
20
70.9643878
11
14.51764
21
70.93185
0
LINE
8
0
10
14.51764
20
70.93185
11
14.7479402
21
70.8364566
0
LINE
8
0
10
14.7479402
20
70.8364566
11
15
21
70.73205
0
LINE
8
0
10
15
20
70.73205
11
15.1977623
21
70.580299
0
LINE
8
0
10
15.1977623
20
70.580299
11
15.41421
21
70.41421
0
LINE
8
0
10
15.41421
20
70.41421
11
15.565961
21
70.2164477
0
LINE
8
0
10
15.565961
20
70.2164477
11
15.73205
21
70
0
LINE
8
0
10
15.73205
20
70
11
15.8274434
21
69.7696998
0
LINE
8
0
10
15.8274434
20
69.7696998
11
15.93185
21
69.51764
0
LINE
8
0
10
15.93185
20
69.51764
11
15.9643878
21
69.2704956
0
LINE
8
0
10
15.9643878
20
69.2704956
11
16
21
69
0
LINE
8
0
10
16
20
69
11
16
21
69
0
ENDSEC
0
EOF
