0
SECTION
2
ENTITIES
0
LINE
8
0
10
16
20
-8.27641021
11
16
21
-8.34220477
0
LINE
8
0
10
16
20
-8.34220477
11
16
21
-8.40448637
0
LINE
8
0
10
16
20
-8.40448637
11
16
21
-9.1240099
0
LINE
8
0
10
16
20
-9.1240099
11
16
21
-9.18737766
0
LINE
8
0
10
16
20
-9.18737766
11
16
21
-9.82189989
0
LINE
8
0
10
16
20
-9.82189989
11
16
21
-10.3427509
0
LINE
8
0
10
16
20
-10.3427509
11
16
21
-14
0
LINE
8
0
10
16
20
-14
11
15.9910488
21
-14.1478077
0
LINE
8
0
10
15.9910488
20
-14.1478077
11
15.9403619
21
-14.4731068
0
LINE
8
0
10
15.9403619
20
-14.4731068
11
15.9338311
21
-14.5095138
0
LINE
8
0
10
15.9338311
20
-14.5095138
11
15.9102998
21
-14.5746011
0
LINE
8
0
10
15.9102998
20
-14.5746011
11
15.7410499
21
-14.9832066
0
LINE
8
0
10
15.7410499
20
-14.9832066
11
15.7072806
21
-15.0363055
0
LINE
8
0
10
15.7072806
20
-15.0363055
11
15.4366306
21
-15.3890175
0
LINE
8
0
10
15.4366306
20
-15.3890175
11
15.3980981
21
-15.4291117
0
LINE
8
0
10
15.3980981
20
-15.4291117
11
15.0441724
21
-15.7008182
0
LINE
8
0
10
15.0441724
20
-15.7008182
11
15.0008679
21
-15.7314926
0
LINE
8
0
10
15.0008679
20
-15.7314926
11
14.9566578
21
-15.7520121
0
LINE
8
0
10
14.9566578
20
-15.7520121
11
14.5384559
21
-15.9253518
0
LINE
8
0
10
14.5384559
20
-15.9253518
11
14.4936053
21
-15.9370355
0
LINE
8
0
10
14.4936053
20
-15.9370355
11
14.4525376
21
-15.9404211
0
LINE
8
0
10
14.4525376
20
-15.9404211
11
14
21
-16
0
LINE
8
0
10
14
20
-16
11
9.8036836
21
-16
0
LINE
8
0
10
9.8036836
20
-16
11
4.4
21
-16
0
LINE
8
0
10
4.4
20
-16
11
4.2619081
21
-15.9883098
0
LINE
8
0
10
4.2619081
20
-15.9883098
11
4.09646009
21
-15.9600372
0
LINE
8
0
10
4.09646009
20
-15.9600372
11
3.882362
21
-15.93185
0
LINE
8
0
10
3.882362
20
-15.93185
11
3.79929537
21
-15.8974892
0
LINE
8
0
10
3.79929537
20
-15.8974892
11
3.40095096
21
-15.7326012
0
LINE
8
0
10
3.40095096
20
-15.7326012
11
3.32909936
21
-15.6775196
0
LINE
8
0
10
3.32909936
20
-15.6775196
11
2.985786
21
-15.41421
0
LINE
8
0
10
2.985786
20
-15.41421
11
2.93086735
21
-15.3426392
0
LINE
8
0
10
2.93086735
20
-15.3426392
11
2.667949
21
-15
0
LINE
8
0
10
2.667949
20
-15
11
2.63342564
21
-14.9166536
0
LINE
8
0
10
2.63342564
20
-14.9166536
11
2.468148
21
-14.51764
0
LINE
8
0
10
2.468148
20
-14.51764
11
2.46226039
21
-14.4729188
0
LINE
8
0
10
2.46226039
20
-14.4729188
11
2.4
21
-14
0
LINE
8
0
10
2.4
20
-14
11
2.4
21
-13.9734689
0
LINE
8
0
10
2.4
20
-13.9734689
11
2.4
21
-6.64284875
0
LINE
8
0
10
2.4
20
-6.64284875
11
2.4
21
-6.49586984
0
LINE
8
0
10
2.4
20
-6.49586984
11
2.4
21
-6.02434767
0
LINE
8
0
10
2.4
20
-6.02434767
11
2.4
21
-0.449740551
0
LINE
8
0
10
2.4
20
-0.449740551
11
2.4
21
-0.13130422
0
LINE
8
0
10
2.4
20
-0.13130422
11
2.4
21
0.254383269
0
LINE
8
0
10
2.4
20
0.254383269
11
2.4
21
0.67260007
0
LINE
8
0
10
2.4
20
0.67260007
11
2.4
21
7.61379097
0
LINE
8
0
10
2.4
20
7.61379097
11
2.4
21
7.62926962
0
LINE
8
0
10
2.4
20
7.62926962
11
2.4
21
7.93319523
0
LINE
8
0
10
2.4
20
7.93319523
11
2.4
21
9.0107487
0
LINE
8
0
10
2.4
20
9.0107487
11
6.16040845
21
9.0107487
0
LINE
8
0
10
6.16040845
20
9.0107487
11
16
21
9.0107487
0
LINE
8
0
10
16
20
9.0107487
11
16
21
7.74710365
0
LINE
8
0
10
16
20
7.74710365
11
16
21
6.06505815
0
LINE
8
0
10
16
20
6.06505815
11
16
21
-6.06108993
0
LINE
8
0
10
16
20
-6.06108993
11
16
21
-6.7553219
0
LINE
8
0
10
16
20
-6.7553219
11
16
21
-7.51447104
0
LINE
8
0
10
16
20
-7.51447104
11
16
21
-8.27641021
0
LINE
8
0
10
16
20
-8.27641021
11
16
21
-8.27641021
0
LINE
8
0
10
16
20
24.5992023
11
16
21
22.4601313
0
LINE
8
0
10
16
20
22.4601313
11
16
21
17.6710023
0
LINE
8
0
10
16
20
17.6710023
11
16
21
15.2764364
0
LINE
8
0
10
16
20
15.2764364
11
12.2395916
21
15.2764364
0
LINE
8
0
10
12.2395916
20
15.2764364
11
2.4
21
15.2764364
0
LINE
8
0
10
2.4
20
15.2764364
11
2.4
21
16.5825645
0
LINE
8
0
10
2.4
20
16.5825645
11
2.4
21
17.6710023
0
LINE
8
0
10
2.4
20
17.6710023
11
2.4
21
20.8700965
0
LINE
8
0
10
2.4
20
20.8700965
11
2.4
21
24.5992023
0
LINE
8
0
10
2.4
20
24.5992023
11
2.4
21
25.085355
0
LINE
8
0
10
2.4
20
25.085355
11
2.4
21
25.6687384
0
LINE
8
0
10
2.4
20
25.6687384
11
14.3204084
21
25.6687384
0
LINE
8
0
10
14.3204084
20
25.6687384
11
16
21
25.6687384
0
LINE
8
0
10
16
20
25.6687384
11
16
21
24.5992023
0
LINE
8
0
10
16
20
24.5992023
11
16
21
24.5992023
0
LINE
8
0
10
16
20
65.3954906
11
16
21
65.9106709
0
LINE
8
0
10
16
20
65.9106709
11
16
21
69
0
LINE
8
0
10
16
20
69
11
15.9601201
21
69.3029116
0
LINE
8
0
10
15.9601201
20
69.3029116
11
15.93185
21
69.51764
0
LINE
8
0
10
15.93185
20
69.51764
11
15.8149314
21
69.7999065
0
LINE
8
0
10
15.8149314
20
69.7999065
11
15.73205
21
70
0
LINE
8
0
10
15.73205
20
70
11
15.546057
21
70.2423866
0
LINE
8
0
10
15.546057
20
70.2423866
11
15.41421
21
70.41421
0
LINE
8
0
10
15.41421
20
70.41421
11
15.1718234
21
70.600203
0
LINE
8
0
10
15.1718234
20
70.600203
11
15
21
70.73205
0
LINE
8
0
10
15
20
70.73205
11
14.7177335
21
70.8489686
0
LINE
8
0
10
14.7177335
20
70.8489686
11
14.51764
21
70.93185
0
LINE
8
0
10
14.51764
20
70.93185
11
14.3029116
21
70.9601201
0
LINE
8
0
10
14.3029116
20
70.9601201
11
14
21
71
0
LINE
8
0
10
14
20
71
11
13.3442097
21
71
0
LINE
8
0
10
13.3442097
20
71
11
10.0397964
21
71
0
LINE
8
0
10
10.0397964
20
71
11
4.4
21
71
0
LINE
8
0
10
4.4
20
71
11
4.04364793
21
70.9530842
0
LINE
8
0
10
4.04364793
20
70.9530842
11
3.882362
21
70.93185
0
LINE
8
0
10
3.882362
20
70.93185
11
3.55029462
21
70.7943038
0
LINE
8
0
10
3.55029462
20
70.7943038
11
3.4
21
70.73205
0
LINE
8
0
10
3.4
20
70.73205
11
3.11484703
21
70.5132428
0
LINE
8
0
10
3.11484703
20
70.5132428
11
2.985786
21
70.41421
0
LINE
8
0
10
2.985786
20
70.41421
11
2.76698083
21
70.1290598
0
LINE
8
0
10
2.76698083
20
70.1290598
11
2.667949
21
70
0
LINE
8
0
10
2.667949
20
70
11
2.53040211
21
69.667934
0
LINE
8
0
10
2.53040211
20
69.667934
11
2.468148
21
69.51764
0
LINE
8
0
10
2.468148
20
69.51764
11
2.44691441
21
69.3563534
0
LINE
8
0
10
2.44691441
20
69.3563534
11
2.4
21
69
0
LINE
8
0
10
2.4
20
69
11
2.4
21
65.6099469
0
LINE
8
0
10
2.4
20
65.6099469
11
2.4
21
65.3216367
0
LINE
8
0
10
2.4
20
65.3216367
11
2.4
21
64.9971865
0
LINE
8
0
10
2.4
20
64.9971865
11
2.4
21
64.6663039
0
LINE
8
0
10
2.4
20
64.6663039
11
2.4
21
52.2415764
0
LINE
8
0
10
2.4
20
52.2415764
11
2.4
21
52.1555052
0
LINE
8
0
10
2.4
20
52.1555052
11
2.4
21
52.0493056
0
LINE
8
0
10
2.4
20
52.0493056
11
2.4
21
51.9364254
0
LINE
8
0
10
2.4
20
51.9364254
11
2.4
21
51.8302373
0
LINE
8
0
10
2.4
20
51.8302373
11
2.4
21
51.7409591
0
LINE
8
0
10
2.4
20
51.7409591
11
2.4
21
50.8880582
0
LINE
8
0
10
2.4
20
50.8880582
11
2.4
21
48.8479196
0
LINE
8
0
10
2.4
20
48.8479196
11
9.51959155
21
48.8479196
0
LINE
8
0
10
9.51959155
20
48.8479196
11
16
21
48.8479196
0
LINE
8
0
10
16
20
48.8479196
11
16
21
52.2438839
0
LINE
8
0
10
16
20
52.2438839
11
16
21
52.4705949
0
LINE
8
0
10
16
20
52.4705949
11
16
21
52.6626984
0
LINE
8
0
10
16
20
52.6626984
11
16
21
64.307697
0
LINE
8
0
10
16
20
64.307697
11
16
21
64.8444169
0
LINE
8
0
10
16
20
64.8444169
11
16
21
65.3954906
0
LINE
8
0
10
16
20
65.3954906
11
16
21
65.3954906
0
LINE
8
0
10
16
20
44.7213004
11
16
21
40.1876623
0
LINE
8
0
10
16
20
40.1876623
11
16
21
34.3289977
0
LINE
8
0
10
16
20
34.3289977
11
16
21
33.2594616
0
LINE
8
0
10
16
20
33.2594616
11
4.07959155
21
33.2594616
0
LINE
8
0
10
4.07959155
20
33.2594616
11
2.4
21
33.2594616
0
LINE
8
0
10
2.4
20
33.2594616
11
2.4
21
33.734811
0
LINE
8
0
10
2.4
20
33.734811
11
2.4
21
34.3289977
0
LINE
8
0
10
2.4
20
34.3289977
11
2.4
21
37.8441965
0
LINE
8
0
10
2.4
20
37.8441965
11
2.4
21
40.1876623
0
LINE
8
0
10
2.4
20
40.1876623
11
2.4
21
42.2484068
0
LINE
8
0
10
2.4
20
42.2484068
11
2.4
21
44.7213004
0
LINE
8
0
10
2.4
20
44.7213004
11
8.88040845
21
44.7213004
0
LINE
8
0
10
8.88040845
20
44.7213004
11
16
21
44.7213004
0
LINE
8
0
10
16
20
44.7213004
11
16
21
44.7213004
0
ENDSEC
0
EOF
