0
SECTION
2
ENTITIES
0
LINE
8
0
10
16
20
-10.2348722
11
16
21
-14
0
LINE
8
0
10
16
20
-14
11
15.9912048
21
-14.1452322
0
LINE
8
0
10
15.9912048
20
-14.1452322
11
15.9390343
21
-14.4800527
0
LINE
8
0
10
15.9390343
20
-14.4800527
11
15.9335221
21
-14.5107812
0
LINE
8
0
10
15.9335221
20
-14.5107812
11
15.913661
21
-14.5657169
0
LINE
8
0
10
15.913661
20
-14.5657169
11
15.7396462
21
-14.9858259
0
LINE
8
0
10
15.7396462
20
-14.9858259
11
15.7111439
21
-15.0306429
0
LINE
8
0
10
15.7111439
20
-15.0306429
11
15.4331336
21
-15.3929468
0
LINE
8
0
10
15.4331336
20
-15.3929468
11
15.4006111
21
-15.4267874
0
LINE
8
0
10
15.4006111
20
-15.4267874
11
15.0374061
21
-15.7056177
0
LINE
8
0
10
15.0374061
20
-15.7056177
11
15.0008558
21
-15.7315078
0
LINE
8
0
10
15.0008558
20
-15.7315078
11
14.9635411
21
-15.7488268
0
LINE
8
0
10
14.9635411
20
-15.7488268
11
14.5352093
21
-15.9263653
0
LINE
8
0
10
14.5352093
20
-15.9263653
11
14.497354
21
-15.9362267
0
LINE
8
0
10
14.497354
20
-15.9362267
11
14.4626916
21
-15.9390842
0
LINE
8
0
10
14.4626916
20
-15.9390842
11
14
21
-16
0
LINE
8
0
10
14
20
-16
11
9.7095267
21
-16
0
LINE
8
0
10
9.7095267
20
-16
11
4.4
21
-16
0
LINE
8
0
10
4.4
20
-16
11
4.26431429
21
-15.9885135
0
LINE
8
0
10
4.26431429
20
-15.9885135
11
4.10174914
21
-15.9607336
0
LINE
8
0
10
4.10174914
20
-15.9607336
11
3.882362
21
-15.93185
0
LINE
8
0
10
3.882362
20
-15.93185
11
3.80911948
21
-15.901553
0
LINE
8
0
10
3.80911948
20
-15.901553
11
3.40093441
21
-15.7325916
0
LINE
8
0
10
3.40093441
20
-15.7325916
11
3.33758053
21
-15.6840244
0
LINE
8
0
10
3.33758053
20
-15.6840244
11
2.985786
21
-15.41421
0
LINE
8
0
10
2.985786
20
-15.41421
11
2.93736245
21
-15.3511037
0
LINE
8
0
10
2.93736245
20
-15.3511037
11
2.667949
21
-15
0
LINE
8
0
10
2.667949
20
-15
11
2.63750864
21
-14.9265108
0
LINE
8
0
10
2.63750864
20
-14.9265108
11
2.468148
21
-14.51764
0
LINE
8
0
10
2.468148
20
-14.51764
11
2.46295671
21
-14.4782079
0
LINE
8
0
10
2.46295671
20
-14.4782079
11
2.4
21
-14
0
LINE
8
0
10
2.4
20
-14
11
2.4
21
-13.9731722
0
LINE
8
0
10
2.4
20
-13.9731722
11
2.4
21
-6.56056713
0
LINE
8
0
10
2.4
20
-6.56056713
11
2.4
21
-6.41772859
0
LINE
8
0
10
2.4
20
-6.41772859
11
2.4
21
-5.9409459
0
LINE
8
0
10
2.4
20
-5.9409459
11
2.4
21
-0.531425826
0
LINE
8
0
10
2.4
20
-0.531425826
11
2.4
21
-0.207143859
0
LINE
8
0
10
2.4
20
-0.207143859
11
2.4
21
0.185623815
0
LINE
8
0
10
2.4
20
0.185623815
11
2.4
21
0.611517952
0
LINE
8
0
10
2.4
20
0.611517952
11
2.4
21
7.68013046
0
LINE
8
0
10
2.4
20
7.68013046
11
2.4
21
7.69046655
0
LINE
8
0
10
2.4
20
7.69046655
11
2.4
21
7.89341724
0
LINE
8
0
10
2.4
20
7.89341724
11
2.4
21
8.61296908
0
LINE
8
0
10
2.4
20
8.61296908
11
4.91106683
21
8.61296908
0
LINE
8
0
10
4.91106683
20
8.61296908
11
16
21
8.61296908
0
LINE
8
0
10
16
20
8.61296908
11
16
21
7.76915192
0
LINE
8
0
10
16
20
7.76915192
11
16
21
6.64594184
0
LINE
8
0
10
16
20
6.64594184
11
16
21
-5.84022979
0
LINE
8
0
10
16
20
-5.84022979
11
16
21
-6.5550734
0
LINE
8
0
10
16
20
-6.5550734
11
16
21
-7.33676156
0
LINE
8
0
10
16
20
-7.33676156
11
16
21
-8.1213226
0
LINE
8
0
10
16
20
-8.1213226
11
16
21
-8.18420749
0
LINE
8
0
10
16
20
-8.18420749
11
16
21
-8.24373478
0
LINE
8
0
10
16
20
-8.24373478
11
16
21
-8.98455892
0
LINE
8
0
10
16
20
-8.98455892
11
16
21
-9.04541858
0
LINE
8
0
10
16
20
-9.04541858
11
16
21
-9.69865747
0
LINE
8
0
10
16
20
-9.69865747
11
16
21
-10.2348722
0
LINE
8
0
10
16
20
-10.2348722
11
16
21
-10.2348722
0
LINE
8
0
10
16
20
64.0566242
11
16
21
52.9343332
0
LINE
8
0
10
16
20
52.9343332
11
16
21
52.7085195
0
LINE
8
0
10
16
20
52.7085195
11
16
21
52.4420254
0
LINE
8
0
10
16
20
52.4420254
11
16
21
48.4501394
0
LINE
8
0
10
16
20
48.4501394
11
10.7689332
21
48.4501394
0
LINE
8
0
10
10.7689332
20
48.4501394
11
2.4
21
48.4501394
0
LINE
8
0
10
2.4
20
48.4501394
11
2.4
21
50.8482802
0
LINE
8
0
10
2.4
20
50.8482802
11
2.4
21
51.8508477
0
LINE
8
0
10
2.4
20
51.8508477
11
2.4
21
51.9557923
0
LINE
8
0
10
2.4
20
51.9557923
11
2.4
21
52.0806142
0
LINE
8
0
10
2.4
20
52.0806142
11
2.4
21
52.2133026
0
LINE
8
0
10
2.4
20
52.2133026
11
2.4
21
52.338138
0
LINE
8
0
10
2.4
20
52.338138
11
2.4
21
52.4393129
0
LINE
8
0
10
2.4
20
52.4393129
11
2.4
21
64.4835779
0
LINE
8
0
10
2.4
20
64.4835779
11
2.4
21
64.8284118
0
LINE
8
0
10
2.4
20
64.8284118
11
2.4
21
65.1665422
0
LINE
8
0
10
2.4
20
65.1665422
11
2.4
21
65.4670087
0
LINE
8
0
10
2.4
20
65.4670087
11
2.4
21
69
0
LINE
8
0
10
2.4
20
69
11
2.44889251
21
69.3713787
0
LINE
8
0
10
2.44889251
20
69.3713787
11
2.468148
21
69.51764
0
LINE
8
0
10
2.468148
20
69.51764
11
2.52460258
21
69.6539328
0
LINE
8
0
10
2.52460258
20
69.6539328
11
2.667949
21
70
0
LINE
8
0
10
2.667949
20
70
11
2.75775513
21
70.1170367
0
LINE
8
0
10
2.75775513
20
70.1170367
11
2.985786
21
70.41421
0
LINE
8
0
10
2.985786
20
70.41421
11
3.10282384
21
70.504017
0
LINE
8
0
10
3.10282384
20
70.504017
11
3.4
21
70.73205
0
LINE
8
0
10
3.4
20
70.73205
11
3.53629333
21
70.7885043
0
LINE
8
0
10
3.53629333
20
70.7885043
11
3.882362
21
70.93185
0
LINE
8
0
10
3.882362
20
70.93185
11
4.02862271
21
70.9511061
0
LINE
8
0
10
4.02862271
20
70.9511061
11
4.4
21
71
0
LINE
8
0
10
4.4
20
71
11
9.91498235
21
71
0
LINE
8
0
10
9.91498235
20
71
11
13.358723
21
71
0
LINE
8
0
10
13.358723
20
71
11
14
21
71
0
LINE
8
0
10
14
20
71
11
14.3191196
21
70.9579862
0
LINE
8
0
10
14.3191196
20
70.9579862
11
14.51764
21
70.93185
0
LINE
8
0
10
14.51764
20
70.93185
11
14.7026301
21
70.8552246
0
LINE
8
0
10
14.7026301
20
70.8552246
11
15
21
70.73205
0
LINE
8
0
10
15
20
70.73205
11
15.1588539
21
70.610155
0
LINE
8
0
10
15.1588539
20
70.610155
11
15.41421
21
70.41421
0
LINE
8
0
10
15.41421
20
70.41421
11
15.536105
21
70.2553561
0
LINE
8
0
10
15.536105
20
70.2553561
11
15.73205
21
70
0
LINE
8
0
10
15.73205
20
70
11
15.8086754
21
69.8150099
0
LINE
8
0
10
15.8086754
20
69.8150099
11
15.93185
21
69.51764
0
LINE
8
0
10
15.93185
20
69.51764
11
15.9579862
21
69.3191196
0
LINE
8
0
10
15.9579862
20
69.3191196
11
16
21
69
0
LINE
8
0
10
16
20
69
11
16
21
65.745369
0
LINE
8
0
10
16
20
65.745369
11
16
21
65.2026228
0
LINE
8
0
10
16
20
65.2026228
11
16
21
64.6220625
0
LINE
8
0
10
16
20
64.6220625
11
16
21
64.0566242
0
LINE
8
0
10
16
20
64.0566242
11
16
21
64.0566242
0
LINE
8
0
10
16
20
34.7267776
11
16
21
32.8616814
0
LINE
8
0
10
16
20
32.8616814
11
5.32893317
21
32.8616814
0
LINE
8
0
10
5.32893317
20
32.8616814
11
2.4
21
32.8616814
0
LINE
8
0
10
2.4
20
32.8616814
11
2.4
21
33.690613
0
LINE
8
0
10
2.4
20
33.690613
11
2.4
21
34.7267776
0
LINE
8
0
10
2.4
20
34.7267776
11
2.4
21
37.7646405
0
LINE
8
0
10
2.4
20
37.7646405
11
2.4
21
39.7898824
0
LINE
8
0
10
2.4
20
39.7898824
11
2.4
21
42.2122453
0
LINE
8
0
10
2.4
20
42.2122453
11
2.4
21
45.1190806
0
LINE
8
0
10
2.4
20
45.1190806
11
7.63106683
21
45.1190806
0
LINE
8
0
10
7.63106683
20
45.1190806
11
16
21
45.1190806
0
LINE
8
0
10
16
20
45.1190806
11
16
21
39.7898824
0
LINE
8
0
10
16
20
39.7898824
11
16
21
34.7267776
0
LINE
8
0
10
16
20
34.7267776
11
16
21
34.7267776
0
LINE
8
0
10
16
20
26.0665186
11
16
21
24.2014224
0
LINE
8
0
10
16
20
24.2014224
11
16
21
20.4712322
0
LINE
8
0
10
16
20
20.4712322
11
16
21
17.2732224
0
LINE
8
0
10
16
20
17.2732224
11
16
21
15.6742166
0
LINE
8
0
10
16
20
15.6742166
11
13.4889332
21
15.6742166
0
LINE
8
0
10
13.4889332
20
15.6742166
11
2.4
21
15.6742166
0
LINE
8
0
10
2.4
20
15.6742166
11
2.4
21
16.5464025
0
LINE
8
0
10
2.4
20
16.5464025
11
2.4
21
17.2732224
0
LINE
8
0
10
2.4
20
17.2732224
11
2.4
21
20.7905405
0
LINE
8
0
10
2.4
20
20.7905405
11
2.4
21
24.2014224
0
LINE
8
0
10
2.4
20
24.2014224
11
2.4
21
25.0491934
0
LINE
8
0
10
2.4
20
25.0491934
11
2.4
21
26.0665186
0
LINE
8
0
10
2.4
20
26.0665186
11
13.0710668
21
26.0665186
0
LINE
8
0
10
13.0710668
20
26.0665186
11
16
21
26.0665186
0
LINE
8
0
10
16
20
26.0665186
11
16
21
26.0665186
0
ENDSEC
0
EOF
