0
SECTION
2
ENTITIES
0
LINE
8
0
10
16
20
18.0608964
11
16
21
14.8865418
0
LINE
8
0
10
16
20
14.8865418
11
7.38498286
21
14.8865418
0
LINE
8
0
10
7.38498286
20
14.8865418
11
2.4
21
14.8865418
0
LINE
8
0
10
2.4
20
14.8865418
11
2.4
21
16.2973681
0
LINE
8
0
10
2.4
20
16.2973681
11
2.4
21
18.0608964
0
LINE
8
0
10
2.4
20
18.0608964
11
2.4
21
20.3132047
0
LINE
8
0
10
2.4
20
20.3132047
11
2.4
21
21.8147436
0
LINE
8
0
10
2.4
20
21.8147436
11
2.4
21
24.8322239
0
LINE
8
0
10
2.4
20
24.8322239
11
2.4
21
28.4532002
0
LINE
8
0
10
2.4
20
28.4532002
11
5.57501714
21
28.4532002
0
LINE
8
0
10
5.57501714
20
28.4532002
11
16
21
28.4532002
0
LINE
8
0
10
16
20
28.4532002
11
16
21
21.8147436
0
LINE
8
0
10
16
20
21.8147436
11
16
21
18.0608964
0
LINE
8
0
10
16
20
18.0608964
11
16
21
18.0608964
0
LINE
8
0
10
16
20
-7.19079694
11
16
21
-7.23622381
0
LINE
8
0
10
16
20
-7.23622381
11
16
21
-7.2792252
0
LINE
8
0
10
16
20
-7.2792252
11
16
21
-8.14785305
0
LINE
8
0
10
16
20
-8.14785305
11
16
21
-8.19366413
0
LINE
8
0
10
16
20
-8.19366413
11
16
21
-8.95920294
0
LINE
8
0
10
16
20
-8.95920294
11
16
21
-9.58759963
0
LINE
8
0
10
16
20
-9.58759963
11
16
21
-14
0
LINE
8
0
10
16
20
-14
11
15.9921406
21
-14.1297793
0
LINE
8
0
10
15.9921406
20
-14.1297793
11
15.9326367
21
-14.5116642
0
LINE
8
0
10
15.9326367
20
-14.5116642
11
15.93185
21
-14.51764
0
LINE
8
0
10
15.93185
20
-14.51764
11
15.7343566
21
-14.9944315
0
LINE
8
0
10
15.7343566
20
-14.9944315
11
15.73205
21
-15
0
LINE
8
0
10
15.73205
20
-15
11
15.4178792
21
-15.4094282
0
LINE
8
0
10
15.4178792
20
-15.4094282
11
15.41421
21
-15.41421
0
LINE
8
0
10
15.41421
20
-15.41421
11
15.0055626
21
-15.7279261
0
LINE
8
0
10
15.0055626
20
-15.7279261
11
15.0007809
21
-15.7315953
0
LINE
8
0
10
15.0007809
20
-15.7315953
11
14.5232085
21
-15.9295434
0
LINE
8
0
10
14.5232085
20
-15.9295434
11
14.51764
21
-15.93185
0
LINE
8
0
10
14.51764
20
-15.93185
11
14.5116642
21
-15.9326367
0
LINE
8
0
10
14.5116642
20
-15.9326367
11
14
21
-16
0
LINE
8
0
10
14
20
-16
11
9.14458531
21
-16
0
LINE
8
0
10
9.14458531
20
-16
11
4.4
21
-16
0
LINE
8
0
10
4.4
20
-16
11
4.27875145
21
-15.9897356
0
LINE
8
0
10
4.27875145
20
-15.9897356
11
4.13348347
21
-15.9649116
0
LINE
8
0
10
4.13348347
20
-15.9649116
11
3.882362
21
-15.93185
0
LINE
8
0
10
3.882362
20
-15.93185
11
3.86806409
21
-15.9259356
0
LINE
8
0
10
3.86806409
20
-15.9259356
11
3.40083509
21
-15.732534
0
LINE
8
0
10
3.40083509
20
-15.732534
11
3.38846757
21
-15.723053
0
LINE
8
0
10
3.38846757
20
-15.723053
11
2.985786
21
-15.41421
0
LINE
8
0
10
2.985786
20
-15.41421
11
2.97633308
21
-15.4018908
0
LINE
8
0
10
2.97633308
20
-15.4018908
11
2.667949
21
-15
0
LINE
8
0
10
2.667949
20
-15
11
2.66200664
21
-14.9856539
0
LINE
8
0
10
2.66200664
20
-14.9856539
11
2.468148
21
-14.51764
0
LINE
8
0
10
2.468148
20
-14.51764
11
2.46713459
21
-14.5099423
0
LINE
8
0
10
2.46713459
20
-14.5099423
11
2.4
21
-14
0
LINE
8
0
10
2.4
20
-14
11
2.4
21
-13.9713918
0
LINE
8
0
10
2.4
20
-13.9713918
11
2.4
21
-6.06687743
0
LINE
8
0
10
2.4
20
-6.06687743
11
2.4
21
-5.94888103
0
LINE
8
0
10
2.4
20
-5.94888103
11
2.4
21
-5.44053525
0
LINE
8
0
10
2.4
20
-5.44053525
11
2.4
21
-1.02153747
0
LINE
8
0
10
2.4
20
-1.02153747
11
2.4
21
-0.662181695
0
LINE
8
0
10
2.4
20
-0.662181695
11
2.4
21
-0.226932908
0
LINE
8
0
10
2.4
20
-0.226932908
11
2.4
21
0.245025247
0
LINE
8
0
10
2.4
20
0.245025247
11
2.4
21
6.58311186
0
LINE
8
0
10
2.4
20
6.58311186
11
2.4
21
6.7039541
0
LINE
8
0
10
2.4
20
6.7039541
11
2.4
21
6.82619876
0
LINE
8
0
10
2.4
20
6.82619876
11
2.4
21
7.19862246
0
LINE
8
0
10
2.4
20
7.19862246
11
2.4
21
7.65474927
0
LINE
8
0
10
2.4
20
7.65474927
11
2.4
21
8.13090203
0
LINE
8
0
10
2.4
20
8.13090203
11
2.4
21
9.40064266
0
LINE
8
0
10
2.4
20
9.40064266
11
11.0150171
21
9.40064266
0
LINE
8
0
10
11.0150171
20
9.40064266
11
16
21
9.40064266
0
LINE
8
0
10
16
20
9.40064266
11
16
21
6.48879755
0
LINE
8
0
10
16
20
6.48879755
11
16
21
6.13310395
0
LINE
8
0
10
16
20
6.13310395
11
16
21
5.76339632
0
LINE
8
0
10
16
20
5.76339632
11
16
21
5.44475383
0
LINE
8
0
10
16
20
5.44475383
11
16
21
-4.51506894
0
LINE
8
0
10
16
20
-4.51506894
11
16
21
-5.35358241
0
LINE
8
0
10
16
20
-5.35358241
11
16
21
-6.27050473
0
LINE
8
0
10
16
20
-6.27050473
11
16
21
-7.19079694
0
LINE
8
0
10
16
20
-7.19079694
11
16
21
-7.19079694
0
LINE
8
0
10
16
20
54.564142
11
16
21
62.5501873
0
LINE
8
0
10
16
20
62.5501873
11
16
21
63.2879365
0
LINE
8
0
10
16
20
63.2879365
11
16
21
64.0454157
0
LINE
8
0
10
16
20
64.0454157
11
16
21
64.7535577
0
LINE
8
0
10
16
20
64.7535577
11
16
21
69
0
LINE
8
0
10
16
20
69
11
15.945183
21
69.4163676
0
LINE
8
0
10
15.945183
20
69.4163676
11
15.93185
21
69.51764
0
LINE
8
0
10
15.93185
20
69.51764
11
15.7711394
21
69.9056299
0
LINE
8
0
10
15.7711394
20
69.9056299
11
15.73205
21
70
0
LINE
8
0
10
15.73205
20
70
11
15.476393
21
70.3331729
0
LINE
8
0
10
15.476393
20
70.3331729
11
15.41421
21
70.41421
0
LINE
8
0
10
15.41421
20
70.41421
11
15.0810371
21
70.669867
0
LINE
8
0
10
15.0810371
20
70.669867
11
15
21
70.73205
0
LINE
8
0
10
15
20
70.73205
11
14.6120101
21
70.8927606
0
LINE
8
0
10
14.6120101
20
70.8927606
11
14.51764
21
70.93185
0
LINE
8
0
10
14.51764
20
70.93185
11
14.4163676
21
70.945183
0
LINE
8
0
10
14.4163676
20
70.945183
11
14
21
71
0
LINE
8
0
10
14
20
71
11
13.4458025
21
71
0
LINE
8
0
10
13.4458025
20
71
11
9.1660982
21
71
0
LINE
8
0
10
9.1660982
20
71
11
4.4
21
71
0
LINE
8
0
10
4.4
20
71
11
3.93847133
21
70.9392371
0
LINE
8
0
10
3.93847133
20
70.9392371
11
3.882362
21
70.93185
0
LINE
8
0
10
3.882362
20
70.93185
11
3.4522856
21
70.7537073
0
LINE
8
0
10
3.4522856
20
70.7537073
11
3.4
21
70.73205
0
LINE
8
0
10
3.4
20
70.73205
11
3.0306847
21
70.4486622
0
LINE
8
0
10
3.0306847
20
70.4486622
11
2.985786
21
70.41421
0
LINE
8
0
10
2.985786
20
70.41421
11
2.70240092
21
70.0448983
0
LINE
8
0
10
2.70240092
20
70.0448983
11
2.667949
21
70
0
LINE
8
0
10
2.667949
20
70
11
2.48980542
21
69.5699254
0
LINE
8
0
10
2.48980542
20
69.5699254
11
2.468148
21
69.51764
0
LINE
8
0
10
2.468148
20
69.51764
11
2.4607611
21
69.4615304
0
LINE
8
0
10
2.4607611
20
69.4615304
11
2.4
21
69
0
LINE
8
0
10
2.4
20
69
11
2.4
21
64.6093795
0
LINE
8
0
10
2.4
20
64.6093795
11
2.4
21
64.2359751
0
LINE
8
0
10
2.4
20
64.2359751
11
2.4
21
63.8157641
0
LINE
8
0
10
2.4
20
63.8157641
11
2.4
21
63.3872222
0
LINE
8
0
10
2.4
20
63.3872222
11
2.4
21
53.6257323
0
LINE
8
0
10
2.4
20
53.6257323
11
2.4
21
53.4339351
0
LINE
8
0
10
2.4
20
53.4339351
11
2.4
21
53.1972847
0
LINE
8
0
10
2.4
20
53.1972847
11
2.4
21
52.9457474
0
LINE
8
0
10
2.4
20
52.9457474
11
2.4
21
52.7091224
0
LINE
8
0
10
2.4
20
52.7091224
11
2.4
21
52.510179
0
LINE
8
0
10
2.4
20
52.510179
11
2.4
21
50.6096124
0
LINE
8
0
10
2.4
20
50.6096124
11
2.4
21
46.9288406
0
LINE
8
0
10
2.4
20
46.9288406
11
2.4
21
46.6403797
0
LINE
8
0
10
2.4
20
46.6403797
11
2.4
21
46.0634586
0
LINE
8
0
10
2.4
20
46.0634586
11
2.4
21
41.9952757
0
LINE
8
0
10
2.4
20
41.9952757
11
2.4
21
37.4032036
0
LINE
8
0
10
2.4
20
37.4032036
11
2.4
21
37.2873047
0
LINE
8
0
10
2.4
20
37.2873047
11
2.4
21
37.1134564
0
LINE
8
0
10
2.4
20
37.1134564
11
2.4
21
33.4254249
0
LINE
8
0
10
2.4
20
33.4254249
11
2.4
21
30.4749998
0
LINE
8
0
10
2.4
20
30.4749998
11
12.8249829
21
30.4749998
0
LINE
8
0
10
12.8249829
20
30.4749998
11
16
21
30.4749998
0
LINE
8
0
10
16
20
30.4749998
11
16
21
37.1134564
0
LINE
8
0
10
16
20
37.1134564
11
16
21
37.4032036
0
LINE
8
0
10
16
20
37.4032036
11
16
21
38.8519406
0
LINE
8
0
10
16
20
38.8519406
11
16
21
46.0634586
0
LINE
8
0
10
16
20
46.0634586
11
16
21
46.6403797
0
LINE
8
0
10
16
20
46.6403797
11
16
21
47.4799316
0
LINE
8
0
10
16
20
47.4799316
11
16
21
47.6415177
0
LINE
8
0
10
16
20
47.6415177
11
16
21
47.8102589
0
LINE
8
0
10
16
20
47.8102589
11
16
21
53.6308743
0
LINE
8
0
10
16
20
53.6308743
11
16
21
54.1360671
0
LINE
8
0
10
16
20
54.1360671
11
16
21
54.564142
0
LINE
8
0
10
16
20
54.564142
11
16
21
54.564142
0
ENDSEC
0
EOF
