0
SECTION
2
ENTITIES
0
LINE
8
0
10
16
20
21.4169638
11
16
21
18.4586762
0
LINE
8
0
10
16
20
18.4586762
11
16
21
14.4887615
0
LINE
8
0
10
16
20
14.4887615
11
8.63432447
21
14.4887615
0
LINE
8
0
10
8.63432447
20
14.4887615
11
2.4
21
14.4887615
0
LINE
8
0
10
2.4
20
14.4887615
11
2.4
21
16.2531706
0
LINE
8
0
10
2.4
20
16.2531706
11
2.4
21
18.4586762
0
LINE
8
0
10
2.4
20
18.4586762
11
2.4
21
20.2336488
0
LINE
8
0
10
2.4
20
20.2336488
11
2.4
21
21.4169638
0
LINE
8
0
10
2.4
20
21.4169638
11
2.4
21
24.7960623
0
LINE
8
0
10
2.4
20
24.7960623
11
2.4
21
28.8509805
0
LINE
8
0
10
2.4
20
28.8509805
11
4.32567553
21
28.8509805
0
LINE
8
0
10
4.32567553
20
28.8509805
11
16
21
28.8509805
0
LINE
8
0
10
16
20
28.8509805
11
16
21
21.4169638
0
LINE
8
0
10
16
20
21.4169638
11
16
21
21.4169638
0
LINE
8
0
10
16
20
-6.09279526
11
16
21
-7.03570933
0
LINE
8
0
10
16
20
-7.03570933
11
16
21
-7.07822653
0
LINE
8
0
10
16
20
-7.07822653
11
16
21
-7.11847361
0
LINE
8
0
10
16
20
-7.11847361
11
16
21
-8.00840207
0
LINE
8
0
10
16
20
-8.00840207
11
16
21
-8.05170505
0
LINE
8
0
10
16
20
-8.05170505
11
16
21
-8.83596052
0
LINE
8
0
10
16
20
-8.83596052
11
16
21
-9.47972087
0
LINE
8
0
10
16
20
-9.47972087
11
16
21
-14
0
LINE
8
0
10
16
20
-14
11
15.9922966
21
-14.1272038
0
LINE
8
0
10
15.9922966
20
-14.1272038
11
15.9339736
21
-14.5015102
0
LINE
8
0
10
15.9339736
20
-14.5015102
11
15.93185
21
-14.51764
0
LINE
8
0
10
15.93185
20
-14.51764
11
15.7382758
21
-14.9849695
0
LINE
8
0
10
15.7382758
20
-14.9849695
11
15.73205
21
-15
0
LINE
8
0
10
15.73205
20
-15
11
15.424114
21
-15.4013031
0
LINE
8
0
10
15.424114
20
-15.4013031
11
15.41421
21
-15.41421
0
LINE
8
0
10
15.41421
20
-15.41421
11
15.0136723
21
-15.7217003
0
LINE
8
0
10
15.0136723
20
-15.7217003
11
15.0007654
21
-15.7316043
0
LINE
8
0
10
15.0007654
20
-15.7316043
11
14.5326705
21
-15.9256242
0
LINE
8
0
10
14.5326705
20
-15.9256242
11
14.51764
21
-15.93185
0
LINE
8
0
10
14.51764
20
-15.93185
11
14.5015102
21
-15.9339736
0
LINE
8
0
10
14.5015102
20
-15.9339736
11
14
21
-16
0
LINE
8
0
10
14
20
-16
11
9.05042841
21
-16
0
LINE
8
0
10
9.05042841
20
-16
11
4.4
21
-16
0
LINE
8
0
10
4.4
20
-16
11
4.28115764
21
-15.9899393
0
LINE
8
0
10
4.28115764
20
-15.9899393
11
4.13877252
21
-15.9656079
0
LINE
8
0
10
4.13877252
20
-15.9656079
11
3.882362
21
-15.93185
0
LINE
8
0
10
3.882362
20
-15.93185
11
3.87788819
21
-15.9299994
0
LINE
8
0
10
3.87788819
20
-15.9299994
11
3.40081854
21
-15.7325244
0
LINE
8
0
10
3.40081854
20
-15.7325244
11
3.39694875
21
-15.7295578
0
LINE
8
0
10
3.39694875
20
-15.7295578
11
2.985786
21
-15.41421
0
LINE
8
0
10
2.985786
20
-15.41421
11
2.98282818
21
-15.4103553
0
LINE
8
0
10
2.98282818
20
-15.4103553
11
2.667949
21
-15
0
LINE
8
0
10
2.667949
20
-15
11
2.66608964
21
-14.9955111
0
LINE
8
0
10
2.66608964
20
-14.9955111
11
2.468148
21
-14.51764
0
LINE
8
0
10
2.468148
20
-14.51764
11
2.4678309
21
-14.5152314
0
LINE
8
0
10
2.4678309
20
-14.5152314
11
2.4
21
-14
0
LINE
8
0
10
2.4
20
-14
11
2.4
21
-13.9710951
0
LINE
8
0
10
2.4
20
-13.9710951
11
2.4
21
-5.98459582
0
LINE
8
0
10
2.4
20
-5.98459582
11
2.4
21
-5.87073978
0
LINE
8
0
10
2.4
20
-5.87073978
11
2.4
21
-5.35713348
0
LINE
8
0
10
2.4
20
-5.35713348
11
2.4
21
-1.10322275
0
LINE
8
0
10
2.4
20
-1.10322275
11
2.4
21
-0.738021334
0
LINE
8
0
10
2.4
20
-0.738021334
11
2.4
21
-0.295692362
0
LINE
8
0
10
2.4
20
-0.295692362
11
2.4
21
0.183943129
0
LINE
8
0
10
2.4
20
0.183943129
11
2.4
21
6.27475897
0
LINE
8
0
10
2.4
20
6.27475897
11
2.4
21
6.42588682
0
LINE
8
0
10
2.4
20
6.42588682
11
2.4
21
6.57876856
0
LINE
8
0
10
2.4
20
6.57876856
11
2.4
21
7.04452947
0
LINE
8
0
10
2.4
20
7.04452947
11
2.4
21
7.61497127
0
LINE
8
0
10
2.4
20
7.61497127
11
2.4
21
8.21045793
0
LINE
8
0
10
2.4
20
8.21045793
11
2.4
21
9.79842228
0
LINE
8
0
10
2.4
20
9.79842228
11
9.76567553
21
9.79842228
0
LINE
8
0
10
9.76567553
20
9.79842228
11
16
21
9.79842228
0
LINE
8
0
10
16
20
9.79842228
11
16
21
6.1568075
0
LINE
8
0
10
16
20
6.1568075
11
16
21
5.71196961
0
LINE
8
0
10
16
20
5.71196961
11
16
21
5.24960546
0
LINE
8
0
10
16
20
5.24960546
11
16
21
4.85110446
0
LINE
8
0
10
16
20
4.85110446
11
16
21
-4.2942088
0
LINE
8
0
10
16
20
-4.2942088
11
16
21
-5.15333392
0
LINE
8
0
10
16
20
-5.15333392
11
16
21
-6.09279526
0
LINE
8
0
10
16
20
-6.09279526
11
16
21
-6.09279526
0
LINE
8
0
10
16
20
69
11
16
21
64.5882558
0
LINE
8
0
10
16
20
64.5882558
11
16
21
63.8525479
0
LINE
8
0
10
16
20
63.8525479
11
16
21
63.0655821
0
LINE
8
0
10
16
20
63.0655821
11
16
21
62.2991145
0
LINE
8
0
10
16
20
62.2991145
11
16
21
54.8357768
0
LINE
8
0
10
16
20
54.8357768
11
16
21
54.3739917
0
LINE
8
0
10
16
20
54.3739917
11
16
21
53.8290157
0
LINE
8
0
10
16
20
53.8290157
11
16
21
48.3759965
0
LINE
8
0
10
16
20
48.3759965
11
16
21
48.1141793
0
LINE
8
0
10
16
20
48.1141793
11
16
21
47.863464
0
LINE
8
0
10
16
20
47.863464
11
16
21
46.5608238
0
LINE
8
0
10
16
20
46.5608238
11
16
21
45.6656788
0
LINE
8
0
10
16
20
45.6656788
11
16
21
37.5112365
0
LINE
8
0
10
16
20
37.5112365
11
3.19432447
21
37.5112365
0
LINE
8
0
10
3.19432447
20
37.5112365
11
2.4
21
37.5112365
0
LINE
8
0
10
2.4
20
37.5112365
11
2.4
21
41.9591141
0
LINE
8
0
10
2.4
20
41.9591141
11
2.4
21
45.6656788
0
LINE
8
0
10
2.4
20
45.6656788
11
2.4
21
46.5608238
0
LINE
8
0
10
2.4
20
46.5608238
11
2.4
21
47.0083967
0
LINE
8
0
10
2.4
20
47.0083967
11
2.4
21
50.5698344
0
LINE
8
0
10
2.4
20
50.5698344
11
2.4
21
52.6200675
0
LINE
8
0
10
2.4
20
52.6200675
11
2.4
21
52.8346775
0
LINE
8
0
10
2.4
20
52.8346775
11
2.4
21
53.0899362
0
LINE
8
0
10
2.4
20
53.0899362
11
2.4
21
53.3612817
0
LINE
8
0
10
2.4
20
53.3612817
11
2.4
21
53.616568
0
LINE
8
0
10
2.4
20
53.616568
11
2.4
21
53.8234688
0
LINE
8
0
10
2.4
20
53.8234688
11
2.4
21
63.2044962
0
LINE
8
0
10
2.4
20
63.2044962
11
2.4
21
63.6469894
0
LINE
8
0
10
2.4
20
63.6469894
11
2.4
21
64.0808806
0
LINE
8
0
10
2.4
20
64.0808806
11
2.4
21
64.4664413
0
LINE
8
0
10
2.4
20
64.4664413
11
2.4
21
69
0
LINE
8
0
10
2.4
20
69
11
2.4627392
21
69.4765557
0
LINE
8
0
10
2.4627392
20
69.4765557
11
2.468148
21
69.51764
0
LINE
8
0
10
2.468148
20
69.51764
11
2.48400589
21
69.5559241
0
LINE
8
0
10
2.48400589
20
69.5559241
11
2.667949
21
70
0
LINE
8
0
10
2.667949
20
70
11
2.69317522
21
70.0328752
0
LINE
8
0
10
2.69317522
20
70.0328752
11
2.985786
21
70.41421
0
LINE
8
0
10
2.985786
20
70.41421
11
3.01866151
21
70.4394365
0
LINE
8
0
10
3.01866151
20
70.4394365
11
3.4
21
70.73205
0
LINE
8
0
10
3.4
20
70.73205
11
3.43828431
21
70.7479078
0
LINE
8
0
10
3.43828431
20
70.7479078
11
3.882362
21
70.93185
0
LINE
8
0
10
3.882362
20
70.93185
11
3.92344611
21
70.937259
0
LINE
8
0
10
3.92344611
20
70.937259
11
4.4
21
71
0
LINE
8
0
10
4.4
20
71
11
9.04128418
21
71
0
LINE
8
0
10
9.04128418
20
71
11
13.4603158
21
71
0
LINE
8
0
10
13.4603158
20
71
11
14
21
71
0
LINE
8
0
10
14
20
71
11
14.4325756
21
70.9430492
0
LINE
8
0
10
14.4325756
20
70.9430492
11
14.51764
21
70.93185
0
LINE
8
0
10
14.51764
20
70.93185
11
14.5969068
21
70.8990166
0
LINE
8
0
10
14.5969068
20
70.8990166
11
15
21
70.73205
0
LINE
8
0
10
15
20
70.73205
11
15.0680676
21
70.679819
0
LINE
8
0
10
15.0680676
20
70.679819
11
15.41421
21
70.41421
0
LINE
8
0
10
15.41421
20
70.41421
11
15.466441
21
70.3461424
0
LINE
8
0
10
15.466441
20
70.3461424
11
15.73205
21
70
0
LINE
8
0
10
15.73205
20
70
11
15.7648834
21
69.9207332
0
LINE
8
0
10
15.7648834
20
69.9207332
11
15.93185
21
69.51764
0
LINE
8
0
10
15.93185
20
69.51764
11
15.9430492
21
69.4325756
0
LINE
8
0
10
15.9430492
20
69.4325756
11
16
21
69
0
LINE
8
0
10
16
20
69
11
16
21
69
0
LINE
8
0
10
16
20
37.0054235
11
16
21
34.9821728
0
LINE
8
0
10
16
20
34.9821728
11
16
21
30.0772195
0
LINE
8
0
10
16
20
30.0772195
11
14.0743245
21
30.0772195
0
LINE
8
0
10
14.0743245
20
30.0772195
11
2.4
21
30.0772195
0
LINE
8
0
10
2.4
20
30.0772195
11
2.4
21
33.3812269
0
LINE
8
0
10
2.4
20
33.3812269
11
2.4
21
37.0054235
0
LINE
8
0
10
2.4
20
37.0054235
11
15.2056755
21
37.0054235
0
LINE
8
0
10
15.2056755
20
37.0054235
11
16
21
37.0054235
0
LINE
8
0
10
16
20
37.0054235
11
16
21
37.0054235
0
ENDSEC
0
EOF
