0
SECTION
2
ENTITIES
0
LINE
8
0
10
14.5894424
20
-15.9021085
11
15.0006724
21
-15.7316585
0
LINE
8
0
10
15.0006724
20
-15.7316585
11
15.0623303
21
-15.6843459
0
LINE
8
0
10
15.0623303
20
-15.6843459
11
15.41421
21
-15.41421
0
LINE
8
0
10
15.41421
20
-15.41421
11
15.4615226
21
-15.3525521
0
LINE
8
0
10
15.4615226
20
-15.3525521
11
15.73205
21
-15
0
LINE
8
0
10
15.73205
20
-15
11
15.7617915
21
-14.9281976
0
LINE
8
0
10
15.7617915
20
-14.9281976
11
15.93185
21
-14.51764
0
LINE
8
0
10
15.93185
20
-14.51764
11
15.9419946
21
-14.4405859
0
LINE
8
0
10
15.9419946
20
-14.4405859
11
15.9932324
21
-14.1117509
0
LINE
8
0
10
15.9932324
20
-14.1117509
11
16
21
-14
0
LINE
8
0
10
16
20
-14
11
16
21
-8.83244835
0
LINE
8
0
10
16
20
-8.83244835
11
16
21
-8.09650599
0
LINE
8
0
10
16
20
-8.09650599
11
16
21
-7.1999506
0
LINE
8
0
10
16
20
-7.1999506
11
16
21
-7.1716962
0
LINE
8
0
10
16
20
-7.1716962
11
16
21
-6.15396404
0
LINE
8
0
10
16
20
-6.15396404
11
16
21
-6.13024285
0
LINE
8
0
10
16
20
-6.13024285
11
16
21
-6.10518367
0
LINE
8
0
10
16
20
-6.10518367
11
16
21
-5.02653843
0
LINE
8
0
10
16
20
-5.02653843
11
16
21
-3.95184293
0
LINE
8
0
10
16
20
-3.95184293
11
16
21
-2.96904794
0
LINE
8
0
10
16
20
-2.96904794
11
16
21
1.28920823
0
LINE
8
0
10
16
20
1.28920823
11
16
21
2.16686032
0
LINE
8
0
10
16
20
2.16686032
11
16
21
3.18516355
0
LINE
8
0
10
16
20
3.18516355
11
16
21
4.16486725
0
LINE
8
0
10
16
20
4.16486725
11
16
21
12.0201656
0
LINE
8
0
10
16
20
12.0201656
11
16
21
12.0557069
0
LINE
8
0
10
16
20
12.0557069
11
16
21
12.135288
0
LINE
8
0
10
16
20
12.135288
11
16
21
12.1851002
0
LINE
8
0
10
16
20
12.1851002
11
16
21
19.030286
0
LINE
8
0
10
16
20
19.030286
11
13.1496258
21
19.030286
0
LINE
8
0
10
13.1496258
20
19.030286
11
2.4
21
19.030286
0
LINE
8
0
10
2.4
20
19.030286
11
2.4
21
15.9879856
0
LINE
8
0
10
2.4
20
15.9879856
11
2.4
21
12.1851002
0
LINE
8
0
10
2.4
20
12.1851002
11
2.4
21
12.135288
0
LINE
8
0
10
2.4
20
12.135288
11
2.4
21
8.68779333
0
LINE
8
0
10
2.4
20
8.68779333
11
2.4
21
7.37630324
0
LINE
8
0
10
2.4
20
7.37630324
11
2.4
21
6.11997158
0
LINE
8
0
10
2.4
20
6.11997158
11
2.4
21
5.09418736
0
LINE
8
0
10
2.4
20
5.09418736
11
2.4
21
4.75748312
0
LINE
8
0
10
2.4
20
4.75748312
11
2.4
21
4.42464162
0
LINE
8
0
10
2.4
20
4.42464162
11
2.4
21
-0.182549577
0
LINE
8
0
10
2.4
20
-0.182549577
11
2.4
21
-0.708249084
0
LINE
8
0
10
2.4
20
-0.708249084
11
2.4
21
-1.19305917
0
LINE
8
0
10
2.4
20
-1.19305917
11
2.4
21
-1.59333439
0
LINE
8
0
10
2.4
20
-1.59333439
11
2.4
21
-4.85672283
0
LINE
8
0
10
2.4
20
-4.85672283
11
2.4
21
-5.40189223
0
LINE
8
0
10
2.4
20
-5.40189223
11
2.4
21
-5.49090612
0
LINE
8
0
10
2.4
20
-5.49090612
11
2.4
21
-13.9693148
0
LINE
8
0
10
2.4
20
-13.9693148
11
2.4
21
-14
0
LINE
8
0
10
2.4
20
-14
11
2.46042642
21
-14.4589883
0
LINE
8
0
10
2.46042642
20
-14.4589883
11
2.468148
21
-14.51764
0
LINE
8
0
10
2.468148
20
-14.51764
11
2.49078665
21
-14.5722943
0
LINE
8
0
10
2.49078665
20
-14.5722943
11
2.667949
21
-15
0
LINE
8
0
10
2.667949
20
-15
11
2.70396184
21
-15.0469325
0
LINE
8
0
10
2.70396184
20
-15.0469325
11
2.985786
21
-15.41421
0
LINE
8
0
10
2.985786
20
-15.41421
11
3.03271894
21
-15.4502232
0
LINE
8
0
10
3.03271894
20
-15.4502232
11
3.40071911
21
-15.7324667
0
LINE
8
0
10
3.40071911
20
-15.7324667
11
3.45537362
21
-15.7551053
0
LINE
8
0
10
3.45537362
20
-15.7551053
11
3.882362
21
-15.93185
0
LINE
8
0
10
3.882362
20
-15.93185
11
3.9410135
21
-15.9395718
0
LINE
8
0
10
3.9410135
20
-15.9395718
11
4.17050685
21
-15.9697859
0
LINE
8
0
10
4.17050685
20
-15.9697859
11
4.2955948
21
-15.9911615
0
LINE
8
0
10
4.2955948
20
-15.9911615
11
4.4
21
-16
0
LINE
8
0
10
4.4
20
-16
11
8.48548702
21
-16
0
LINE
8
0
10
8.48548702
20
-16
11
14
21
-16
0
LINE
8
0
10
14
20
-16
11
14.4405859
21
-15.9419946
0
LINE
8
0
10
14.4405859
20
-15.9419946
11
14.51764
21
-15.93185
0
LINE
8
0
10
14.51764
20
-15.93185
11
14.5894424
21
-15.9021085
0
LINE
8
0
10
14.5894424
20
-15.9021085
11
14.5894424
21
-15.9021085
0
LINE
8
0
10
16
20
69
11
16
21
63.5964445
0
LINE
8
0
10
16
20
63.5964445
11
16
21
62.6953409
0
LINE
8
0
10
16
20
62.6953409
11
16
21
61.7314561
0
LINE
8
0
10
16
20
61.7314561
11
16
21
60.7926777
0
LINE
8
0
10
16
20
60.7926777
11
16
21
56.4655856
0
LINE
8
0
10
16
20
56.4655856
11
16
21
55.8015393
0
LINE
8
0
10
16
20
55.8015393
11
16
21
55.0178647
0
LINE
8
0
10
16
20
55.0178647
11
16
21
51.7704218
0
LINE
8
0
10
16
20
51.7704218
11
16
21
50.9501488
0
LINE
8
0
10
16
20
50.9501488
11
16
21
50.1646581
0
LINE
8
0
10
16
20
50.1646581
11
16
21
46.083488
0
LINE
8
0
10
16
20
46.083488
11
16
21
43.279
0
LINE
8
0
10
16
20
43.279
11
16
21
39.8979181
0
LINE
8
0
10
16
20
39.8979181
11
10.6903742
21
39.8979181
0
LINE
8
0
10
10.6903742
20
39.8979181
11
2.4
21
39.8979181
0
LINE
8
0
10
2.4
20
39.8979181
11
2.4
21
41.7421446
0
LINE
8
0
10
2.4
20
41.7421446
11
2.4
21
43.279
0
LINE
8
0
10
2.4
20
43.279
11
2.4
21
46.083488
0
LINE
8
0
10
2.4
20
46.083488
11
2.4
21
47.4857334
0
LINE
8
0
10
2.4
20
47.4857334
11
2.4
21
50.3311665
0
LINE
8
0
10
2.4
20
50.3311665
11
2.4
21
53.2793988
0
LINE
8
0
10
2.4
20
53.2793988
11
2.4
21
53.5880076
0
LINE
8
0
10
2.4
20
53.5880076
11
2.4
21
53.9550694
0
LINE
8
0
10
2.4
20
53.9550694
11
2.4
21
54.3452637
0
LINE
8
0
10
2.4
20
54.3452637
11
2.4
21
54.712365
0
LINE
8
0
10
2.4
20
54.712365
11
2.4
21
55.0098882
0
LINE
8
0
10
2.4
20
55.0098882
11
2.4
21
62.1081405
0
LINE
8
0
10
2.4
20
62.1081405
11
2.4
21
62.6343417
0
LINE
8
0
10
2.4
20
62.6343417
11
2.4
21
63.1503135
0
LINE
8
0
10
2.4
20
63.1503135
11
2.4
21
63.6088121
0
LINE
8
0
10
2.4
20
63.6088121
11
2.4
21
69
0
LINE
8
0
10
2.4
20
69
11
2.4616882
21
69.4685725
0
LINE
8
0
10
2.4616882
20
69.4685725
11
2.468148
21
69.51764
0
LINE
8
0
10
2.468148
20
69.51764
11
2.64900973
21
69.9542768
0
LINE
8
0
10
2.64900973
20
69.9542768
11
2.667949
21
70
0
LINE
8
0
10
2.667949
20
70
11
2.95565801
21
70.3749467
0
LINE
8
0
10
2.95565801
20
70.3749467
11
2.985786
21
70.41421
0
LINE
8
0
10
2.985786
20
70.41421
11
3.36073637
21
70.7019217
0
LINE
8
0
10
3.36073637
20
70.7019217
11
3.4
21
70.73205
0
LINE
8
0
10
3.4
20
70.73205
11
3.83663857
21
70.9129108
0
LINE
8
0
10
3.83663857
20
70.9129108
11
3.882362
21
70.93185
0
LINE
8
0
10
3.882362
20
70.93185
11
3.93142926
21
70.93831
0
LINE
8
0
10
3.93142926
20
70.93831
11
4.4
21
71
0
LINE
8
0
10
4.4
20
71
11
8.29240003
21
71
0
LINE
8
0
10
8.29240003
20
71
11
13.5473953
21
71
0
LINE
8
0
10
13.5473953
20
71
11
14
21
71
0
LINE
8
0
10
14
20
71
11
14.5054563
21
70.933454
0
LINE
8
0
10
14.5054563
20
70.933454
11
14.51764
21
70.93185
0
LINE
8
0
10
14.51764
20
70.93185
11
14.9886467
21
70.7367527
0
LINE
8
0
10
14.9886467
20
70.7367527
11
15
21
70.73205
0
LINE
8
0
10
15
20
70.73205
11
15.4044608
21
70.421691
0
LINE
8
0
10
15.4044608
20
70.421691
11
15.41421
21
70.41421
0
LINE
8
0
10
15.41421
20
70.41421
11
15.724569
21
70.0097492
0
LINE
8
0
10
15.724569
20
70.0097492
11
15.73205
21
70
0
LINE
8
0
10
15.73205
20
70
11
15.9271473
21
69.5289933
0
LINE
8
0
10
15.9271473
20
69.5289933
11
15.93185
21
69.51764
0
LINE
8
0
10
15.93185
20
69.51764
11
15.933454
21
69.5054563
0
LINE
8
0
10
15.933454
20
69.5054563
11
16
21
69
0
LINE
8
0
10
16
20
69
11
16
21
69
0
LINE
8
0
10
16
20
31.23766
11
16
21
27.69054
0
LINE
8
0
10
16
20
27.69054
11
16
21
20.8453561
0
LINE
8
0
10
16
20
20.8453561
11
5.25037416
21
20.8453561
0
LINE
8
0
10
5.25037416
20
20.8453561
11
2.4
21
20.8453561
0
LINE
8
0
10
2.4
20
20.8453561
11
2.4
21
24.5790927
0
LINE
8
0
10
2.4
20
24.5790927
11
2.4
21
27.69054
0
LINE
8
0
10
2.4
20
27.69054
11
2.4
21
29.109388
0
LINE
8
0
10
2.4
20
29.109388
11
2.4
21
31.23766
0
LINE
8
0
10
2.4
20
31.23766
11
2.4
21
33.1160389
0
LINE
8
0
10
2.4
20
33.1160389
11
2.4
21
34.6187419
0
LINE
8
0
10
2.4
20
34.6187419
11
7.70962584
21
34.6187419
0
LINE
8
0
10
7.70962584
20
34.6187419
11
16
21
34.6187419
0
LINE
8
0
10
16
20
34.6187419
11
16
21
31.23766
0
LINE
8
0
10
16
20
31.23766
11
16
21
31.23766
0
ENDSEC
0
EOF
