0
SECTION
2
ENTITIES
0
LINE
8
0
10
16
20
-7.03224522
11
16
21
-5.99321244
0
LINE
8
0
10
16
20
-5.99321244
11
16
21
-5.97224557
0
LINE
8
0
10
16
20
-5.97224557
11
16
21
-5.95009606
0
LINE
8
0
10
16
20
-5.95009606
11
16
21
-4.84882896
0
LINE
8
0
10
16
20
-4.84882896
11
16
21
-3.75159443
0
LINE
8
0
10
16
20
-3.75159443
11
16
21
-2.7481878
0
LINE
8
0
10
16
20
-2.7481878
11
16
21
0.695558862
0
LINE
8
0
10
16
20
0.695558862
11
16
21
1.65306947
0
LINE
8
0
10
16
20
1.65306947
11
16
21
2.76402921
0
LINE
8
0
10
16
20
2.76402921
11
16
21
3.8328772
0
LINE
8
0
10
16
20
3.8328772
11
16
21
10.8374219
0
LINE
8
0
10
16
20
10.8374219
11
16
21
11.213546
0
LINE
8
0
10
16
20
11.213546
11
16
21
12.055732
0
LINE
8
0
10
16
20
12.055732
11
16
21
12.5828811
0
LINE
8
0
10
16
20
12.5828811
11
16
21
18.6325067
0
LINE
8
0
10
16
20
18.6325067
11
11.9002842
21
18.6325067
0
LINE
8
0
10
11.9002842
20
18.6325067
11
2.4
21
18.6325067
0
LINE
8
0
10
2.4
20
18.6325067
11
2.4
21
15.9437881
0
LINE
8
0
10
2.4
20
15.9437881
11
2.4
21
12.5828811
0
LINE
8
0
10
2.4
20
12.5828811
11
2.4
21
12.055732
0
LINE
8
0
10
2.4
20
12.055732
11
2.4
21
8.76734923
0
LINE
8
0
10
2.4
20
8.76734923
11
2.4
21
7.33652524
0
LINE
8
0
10
2.4
20
7.33652524
11
2.4
21
5.9658786
0
LINE
8
0
10
2.4
20
5.9658786
11
2.4
21
4.84675716
0
LINE
8
0
10
2.4
20
4.84675716
11
2.4
21
4.47941584
0
LINE
8
0
10
2.4
20
4.47941584
11
2.4
21
4.11628873
0
LINE
8
0
10
2.4
20
4.11628873
11
2.4
21
-0.243631694
0
LINE
8
0
10
2.4
20
-0.243631694
11
2.4
21
-0.777008538
0
LINE
8
0
10
2.4
20
-0.777008538
11
2.4
21
-1.26889881
0
LINE
8
0
10
2.4
20
-1.26889881
11
2.4
21
-1.67501966
0
LINE
8
0
10
2.4
20
-1.67501966
11
2.4
21
-4.77332106
0
LINE
8
0
10
2.4
20
-4.77332106
11
2.4
21
-5.32375097
0
LINE
8
0
10
2.4
20
-5.32375097
11
2.4
21
-5.4086245
0
LINE
8
0
10
2.4
20
-5.4086245
11
2.4
21
-13.9690181
0
LINE
8
0
10
2.4
20
-13.9690181
11
2.4
21
-14
0
LINE
8
0
10
2.4
20
-14
11
2.45903379
21
-14.4484101
0
LINE
8
0
10
2.45903379
20
-14.4484101
11
2.468148
21
-14.51764
0
LINE
8
0
10
2.468148
20
-14.51764
11
2.49486966
21
-14.5821515
0
LINE
8
0
10
2.49486966
20
-14.5821515
11
2.667949
21
-15
0
LINE
8
0
10
2.667949
20
-15
11
2.71045695
21
-15.055397
0
LINE
8
0
10
2.71045695
20
-15.055397
11
2.985786
21
-15.41421
0
LINE
8
0
10
2.985786
20
-15.41421
11
3.04118354
21
-15.4567184
0
LINE
8
0
10
3.04118354
20
-15.4567184
11
3.40070254
21
-15.7324571
0
LINE
8
0
10
3.40070254
20
-15.7324571
11
3.46521429
21
-15.7591787
0
LINE
8
0
10
3.46521429
20
-15.7591787
11
3.882362
21
-15.93185
0
LINE
8
0
10
3.882362
20
-15.93185
11
3.95159161
21
-15.9409645
0
LINE
8
0
10
3.95159161
20
-15.9409645
11
4.17579591
21
-15.9704823
0
LINE
8
0
10
4.17579591
20
-15.9704823
11
4.29800099
21
-15.9913652
0
LINE
8
0
10
4.29800099
20
-15.9913652
11
4.4
21
-16
0
LINE
8
0
10
4.4
20
-16
11
8.39133012
21
-16
0
LINE
8
0
10
8.39133012
20
-16
11
14
21
-16
0
LINE
8
0
10
14
20
-16
11
14.4304319
21
-15.9433314
0
LINE
8
0
10
14.4304319
20
-15.9433314
11
14.51764
21
-15.93185
0
LINE
8
0
10
14.51764
20
-15.93185
11
14.5989044
21
-15.8981892
0
LINE
8
0
10
14.5989044
20
-15.8981892
11
15.0006569
21
-15.7316675
0
LINE
8
0
10
15.0006569
20
-15.7316675
11
15.0704399
21
-15.6781202
0
LINE
8
0
10
15.0704399
20
-15.6781202
11
15.41421
21
-15.41421
0
LINE
8
0
10
15.41421
20
-15.41421
11
15.4677573
21
-15.344427
0
LINE
8
0
10
15.4677573
20
-15.344427
11
15.73205
21
-15
0
LINE
8
0
10
15.73205
20
-15
11
15.7657108
21
-14.9187356
0
LINE
8
0
10
15.7657108
20
-14.9187356
11
15.93185
21
-14.51764
0
LINE
8
0
10
15.93185
20
-14.51764
11
15.9433314
21
-14.4304319
0
LINE
8
0
10
15.9433314
20
-14.4304319
11
15.9933884
21
-14.1091754
0
LINE
8
0
10
15.9933884
20
-14.1091754
11
16
21
-14
0
LINE
8
0
10
16
20
-14
11
16
21
-8.72456959
0
LINE
8
0
10
16
20
-8.72456959
11
16
21
-7.97326357
0
LINE
8
0
10
16
20
-7.97326357
11
16
21
-7.05799152
0
LINE
8
0
10
16
20
-7.05799152
11
16
21
-7.03224522
0
LINE
8
0
10
16
20
-7.03224522
11
16
21
-7.03224522
0
LINE
8
0
10
16
20
62.5024731
11
16
21
63.4311426
0
LINE
8
0
10
16
20
63.4311426
11
16
21
69
0
LINE
8
0
10
16
20
69
11
15.9355879
21
69.4892483
0
LINE
8
0
10
15.9355879
20
69.4892483
11
15.93185
21
69.51764
0
LINE
8
0
10
15.93185
20
69.51764
11
15.9208913
21
69.5440966
0
LINE
8
0
10
15.9208913
20
69.5440966
11
15.73205
21
70
0
LINE
8
0
10
15.73205
20
70
11
15.714617
21
70.0227187
0
LINE
8
0
10
15.714617
20
70.0227187
11
15.41421
21
70.41421
0
LINE
8
0
10
15.41421
20
70.41421
11
15.3914913
21
70.431643
0
LINE
8
0
10
15.3914913
20
70.431643
11
15
21
70.73205
0
LINE
8
0
10
15
20
70.73205
11
14.9735434
21
70.7430087
0
LINE
8
0
10
14.9735434
20
70.7430087
11
14.51764
21
70.93185
0
LINE
8
0
10
14.51764
20
70.93185
11
14.4892483
21
70.9355879
0
LINE
8
0
10
14.4892483
20
70.9355879
11
14
21
71
0
LINE
8
0
10
14
20
71
11
13.5619086
21
71
0
LINE
8
0
10
13.5619086
20
71
11
8.16758601
21
71
0
LINE
8
0
10
8.16758601
20
71
11
4.4
21
71
0
LINE
8
0
10
4.4
20
71
11
3.94645449
21
70.9402881
0
LINE
8
0
10
3.94645449
20
70.9402881
11
3.882362
21
70.93185
0
LINE
8
0
10
3.882362
20
70.93185
11
3.82263728
21
70.9071113
0
LINE
8
0
10
3.82263728
20
70.9071113
11
3.4
21
70.73205
0
LINE
8
0
10
3.4
20
70.73205
11
3.34871318
21
70.6926959
0
LINE
8
0
10
3.34871318
20
70.6926959
11
2.985786
21
70.41421
0
LINE
8
0
10
2.985786
20
70.41421
11
2.94643231
21
70.3629237
0
LINE
8
0
10
2.94643231
20
70.3629237
11
2.667949
21
70
0
LINE
8
0
10
2.667949
20
70
11
2.6432102
21
69.9402755
0
LINE
8
0
10
2.6432102
20
69.9402755
11
2.468148
21
69.51764
0
LINE
8
0
10
2.468148
20
69.51764
11
2.4597101
21
69.4535473
0
LINE
8
0
10
2.4597101
20
69.4535473
11
2.4
21
69
0
LINE
8
0
10
2.4
20
69
11
2.4
21
63.4658739
0
LINE
8
0
10
2.4
20
63.4658739
11
2.4
21
62.995219
0
LINE
8
0
10
2.4
20
62.995219
11
2.4
21
62.465567
0
LINE
8
0
10
2.4
20
62.465567
11
2.4
21
61.9254145
0
LINE
8
0
10
2.4
20
61.9254145
11
2.4
21
55.2076248
0
LINE
8
0
10
2.4
20
55.2076248
11
2.4
21
54.8949979
0
LINE
8
0
10
2.4
20
54.8949979
11
2.4
21
54.5092608
0
LINE
8
0
10
2.4
20
54.5092608
11
2.4
21
54.0992582
0
LINE
8
0
10
2.4
20
54.0992582
11
2.4
21
53.7135627
0
LINE
8
0
10
2.4
20
53.7135627
11
2.4
21
53.3892873
0
LINE
8
0
10
2.4
20
53.3892873
11
2.4
21
50.2913885
0
LINE
8
0
10
2.4
20
50.2913885
11
2.4
21
47.5652895
0
LINE
8
0
10
2.4
20
47.5652895
11
2.4
21
46.003932
0
LINE
8
0
10
2.4
20
46.003932
11
2.4
21
42.8812202
0
LINE
8
0
10
2.4
20
42.8812202
11
2.4
21
41.705983
0
LINE
8
0
10
2.4
20
41.705983
11
2.4
21
40.2956983
0
LINE
8
0
10
2.4
20
40.2956983
11
11.9397158
21
40.2956983
0
LINE
8
0
10
11.9397158
20
40.2956983
11
16
21
40.2956983
0
LINE
8
0
10
16
20
40.2956983
11
16
21
42.8812202
0
LINE
8
0
10
16
20
42.8812202
11
16
21
46.003932
0
LINE
8
0
10
16
20
46.003932
11
16
21
50.5481905
0
LINE
8
0
10
16
20
50.5481905
11
16
21
51.4228104
0
LINE
8
0
10
16
20
51.4228104
11
16
21
52.3361593
0
LINE
8
0
10
16
20
52.3361593
11
16
21
55.2160061
0
LINE
8
0
10
16
20
55.2160061
11
16
21
56.0394639
0
LINE
8
0
10
16
20
56.0394639
11
16
21
56.7372204
0
LINE
8
0
10
16
20
56.7372204
11
16
21
60.5416048
0
LINE
8
0
10
16
20
60.5416048
11
16
21
61.5091017
0
LINE
8
0
10
16
20
61.5091017
11
16
21
62.5024731
0
LINE
8
0
10
16
20
62.5024731
11
16
21
62.5024731
0
LINE
8
0
10
16
20
21.2431363
11
16
21
27.2927602
0
LINE
8
0
10
16
20
27.2927602
11
16
21
31.6354398
0
LINE
8
0
10
16
20
31.6354398
11
16
21
34.2209617
0
LINE
8
0
10
16
20
34.2209617
11
6.46028422
21
34.2209617
0
LINE
8
0
10
6.46028422
20
34.2209617
11
2.4
21
34.2209617
0
LINE
8
0
10
2.4
20
34.2209617
11
2.4
21
33.0718408
0
LINE
8
0
10
2.4
20
33.0718408
11
2.4
21
31.6354398
0
LINE
8
0
10
2.4
20
31.6354398
11
2.4
21
29.029832
0
LINE
8
0
10
2.4
20
29.029832
11
2.4
21
27.2927602
0
LINE
8
0
10
2.4
20
27.2927602
11
2.4
21
24.5429312
0
LINE
8
0
10
2.4
20
24.5429312
11
2.4
21
21.2431363
0
LINE
8
0
10
2.4
20
21.2431363
11
6.49971578
21
21.2431363
0
LINE
8
0
10
6.49971578
20
21.2431363
11
16
21
21.2431363
0
LINE
8
0
10
16
20
21.2431363
11
16
21
21.2431363
0
ENDSEC
0
EOF
