0
SECTION
2
ENTITIES
0
LINE
8
0
10
16
20
1.13927861
11
16
21
2.34289487
0
LINE
8
0
10
16
20
2.34289487
11
16
21
3.50088716
0
LINE
8
0
10
16
20
3.50088716
11
16
21
9.65467826
0
LINE
8
0
10
16
20
9.65467826
11
16
21
10.371385
0
LINE
8
0
10
16
20
10.371385
11
16
21
11.9761761
0
LINE
8
0
10
16
20
11.9761761
11
16
21
12.9806621
0
LINE
8
0
10
16
20
12.9806621
11
16
21
18.2347273
0
LINE
8
0
10
16
20
18.2347273
11
10.6509426
21
18.2347273
0
LINE
8
0
10
10.6509426
20
18.2347273
11
2.4
21
18.2347273
0
LINE
8
0
10
2.4
20
18.2347273
11
2.4
21
15.8995906
0
LINE
8
0
10
2.4
20
15.8995906
11
2.4
21
12.9806621
0
LINE
8
0
10
2.4
20
12.9806621
11
2.4
21
11.9761761
0
LINE
8
0
10
2.4
20
11.9761761
11
2.4
21
8.84690513
0
LINE
8
0
10
2.4
20
8.84690513
11
2.4
21
7.29674724
0
LINE
8
0
10
2.4
20
7.29674724
11
2.4
21
5.81178561
0
LINE
8
0
10
2.4
20
5.81178561
11
2.4
21
4.59932696
0
LINE
8
0
10
2.4
20
4.59932696
11
2.4
21
4.20134856
0
LINE
8
0
10
2.4
20
4.20134856
11
2.4
21
3.80793583
0
LINE
8
0
10
2.4
20
3.80793583
11
2.4
21
-0.304713812
0
LINE
8
0
10
2.4
20
-0.304713812
11
2.4
21
-0.845767992
0
LINE
8
0
10
2.4
20
-0.845767992
11
2.4
21
-1.34473845
0
LINE
8
0
10
2.4
20
-1.34473845
11
2.4
21
-1.75670494
0
LINE
8
0
10
2.4
20
-1.75670494
11
2.4
21
-4.68991929
0
LINE
8
0
10
2.4
20
-4.68991929
11
2.4
21
-5.24560971
0
LINE
8
0
10
2.4
20
-5.24560971
11
2.4
21
-5.32634288
0
LINE
8
0
10
2.4
20
-5.32634288
11
2.4
21
-13.9687214
0
LINE
8
0
10
2.4
20
-13.9687214
11
2.4
21
-14
0
LINE
8
0
10
2.4
20
-14
11
2.45764117
21
-14.437832
0
LINE
8
0
10
2.45764117
20
-14.437832
11
2.468148
21
-14.51764
0
LINE
8
0
10
2.468148
20
-14.51764
11
2.49895266
21
-14.5920087
0
LINE
8
0
10
2.49895266
20
-14.5920087
11
2.667949
21
-15
0
LINE
8
0
10
2.667949
20
-15
11
2.71695206
21
-15.0638615
0
LINE
8
0
10
2.71695206
20
-15.0638615
11
2.985786
21
-15.41421
0
LINE
8
0
10
2.985786
20
-15.41421
11
3.04964815
21
-15.4632135
0
LINE
8
0
10
3.04964815
20
-15.4632135
11
3.40068596
21
-15.7324475
0
LINE
8
0
10
3.40068596
20
-15.7324475
11
3.47505495
21
-15.763252
0
LINE
8
0
10
3.47505495
20
-15.763252
11
3.882362
21
-15.93185
0
LINE
8
0
10
3.882362
20
-15.93185
11
3.96216973
21
-15.9423571
0
LINE
8
0
10
3.96216973
20
-15.9423571
11
4.18108496
21
-15.9711786
0
LINE
8
0
10
4.18108496
20
-15.9711786
11
4.30040719
21
-15.9915689
0
LINE
8
0
10
4.30040719
20
-15.9915689
11
4.4
21
-16
0
LINE
8
0
10
4.4
20
-16
11
8.29717322
21
-16
0
LINE
8
0
10
8.29717322
20
-16
11
14
21
-16
0
LINE
8
0
10
14
20
-16
11
14.4202778
21
-15.9446682
0
LINE
8
0
10
14.4202778
20
-15.9446682
11
14.51764
21
-15.93185
0
LINE
8
0
10
14.51764
20
-15.93185
11
14.6083664
21
-15.8942699
0
LINE
8
0
10
14.6083664
20
-15.8942699
11
15.0006414
21
-15.7316765
0
LINE
8
0
10
15.0006414
20
-15.7316765
11
15.0785496
21
-15.6718945
0
LINE
8
0
10
15.0785496
20
-15.6718945
11
15.41421
21
-15.41421
0
LINE
8
0
10
15.41421
20
-15.41421
11
15.4739921
21
-15.3363018
0
LINE
8
0
10
15.4739921
20
-15.3363018
11
15.73205
21
-15
0
LINE
8
0
10
15.73205
20
-15
11
15.7696301
21
-14.9092736
0
LINE
8
0
10
15.7696301
20
-14.9092736
11
15.93185
21
-14.51764
0
LINE
8
0
10
15.93185
20
-14.51764
11
15.9446682
21
-14.4202778
0
LINE
8
0
10
15.9446682
20
-14.4202778
11
15.9935443
21
-14.1065999
0
LINE
8
0
10
15.9935443
20
-14.1065999
11
16
21
-14
0
LINE
8
0
10
16
20
-14
11
16
21
-8.61669084
0
LINE
8
0
10
16
20
-8.61669084
11
16
21
-7.85002115
0
LINE
8
0
10
16
20
-7.85002115
11
16
21
-6.91603244
0
LINE
8
0
10
16
20
-6.91603244
11
16
21
-6.89279424
0
LINE
8
0
10
16
20
-6.89279424
11
16
21
-5.83246085
0
LINE
8
0
10
16
20
-5.83246085
11
16
21
-5.81424829
0
LINE
8
0
10
16
20
-5.81424829
11
16
21
-5.79500845
0
LINE
8
0
10
16
20
-5.79500845
11
16
21
-4.67111949
0
LINE
8
0
10
16
20
-4.67111949
11
16
21
-3.55134593
0
LINE
8
0
10
16
20
-3.55134593
11
16
21
-2.52732766
0
LINE
8
0
10
16
20
-2.52732766
11
16
21
0.101909491
0
LINE
8
0
10
16
20
0.101909491
11
16
21
1.13927861
0
LINE
8
0
10
16
20
1.13927861
11
16
21
1.13927861
0
LINE
8
0
10
16
20
57.0088552
11
16
21
56.2773885
0
LINE
8
0
10
16
20
56.2773885
11
16
21
55.4141476
0
LINE
8
0
10
16
20
55.4141476
11
16
21
52.9018969
0
LINE
8
0
10
16
20
52.9018969
11
16
21
51.895472
0
LINE
8
0
10
16
20
51.895472
11
16
21
50.9317228
0
LINE
8
0
10
16
20
50.9317228
11
16
21
45.9243761
0
LINE
8
0
10
16
20
45.9243761
11
16
21
42.4834404
0
LINE
8
0
10
16
20
42.4834404
11
16
21
40.6934786
0
LINE
8
0
10
16
20
40.6934786
11
13.1890574
21
40.6934786
0
LINE
8
0
10
13.1890574
20
40.6934786
11
2.4
21
40.6934786
0
LINE
8
0
10
2.4
20
40.6934786
11
2.4
21
41.6698214
0
LINE
8
0
10
2.4
20
41.6698214
11
2.4
21
42.4834404
0
LINE
8
0
10
2.4
20
42.4834404
11
2.4
21
45.9243761
0
LINE
8
0
10
2.4
20
45.9243761
11
2.4
21
47.6448456
0
LINE
8
0
10
2.4
20
47.6448456
11
2.4
21
50.2516105
0
LINE
8
0
10
2.4
20
50.2516105
11
2.4
21
53.4991759
0
LINE
8
0
10
2.4
20
53.4991759
11
2.4
21
53.8391177
0
LINE
8
0
10
2.4
20
53.8391177
11
2.4
21
54.2434471
0
LINE
8
0
10
2.4
20
54.2434471
11
2.4
21
54.6732578
0
LINE
8
0
10
2.4
20
54.6732578
11
2.4
21
55.0776307
0
LINE
8
0
10
2.4
20
55.0776307
11
2.4
21
55.4053613
0
LINE
8
0
10
2.4
20
55.4053613
11
2.4
21
61.7426885
0
LINE
8
0
10
2.4
20
61.7426885
11
2.4
21
62.2967924
0
LINE
8
0
10
2.4
20
62.2967924
11
2.4
21
62.8401245
0
LINE
8
0
10
2.4
20
62.8401245
11
2.4
21
63.3229357
0
LINE
8
0
10
2.4
20
63.3229357
11
2.4
21
69
0
LINE
8
0
10
2.4
20
69
11
2.45773201
21
69.438522
0
LINE
8
0
10
2.45773201
20
69.438522
11
2.468148
21
69.51764
0
LINE
8
0
10
2.468148
20
69.51764
11
2.63741067
21
69.9262743
0
LINE
8
0
10
2.63741067
20
69.9262743
11
2.667949
21
70
0
LINE
8
0
10
2.667949
20
70
11
2.93720661
21
70.3509006
0
LINE
8
0
10
2.93720661
20
70.3509006
11
2.985786
21
70.41421
0
LINE
8
0
10
2.985786
20
70.41421
11
3.33668999
21
70.6834702
0
LINE
8
0
10
3.33668999
20
70.6834702
11
3.4
21
70.73205
0
LINE
8
0
10
3.4
20
70.73205
11
3.808636
21
70.9013118
0
LINE
8
0
10
3.808636
20
70.9013118
11
3.882362
21
70.93185
0
LINE
8
0
10
3.882362
20
70.93185
11
3.96147972
21
70.9422663
0
LINE
8
0
10
3.96147972
20
70.9422663
11
4.4
21
71
0
LINE
8
0
10
4.4
20
71
11
8.04277198
21
71
0
LINE
8
0
10
8.04277198
20
71
11
13.5764219
21
71
0
LINE
8
0
10
13.5764219
20
71
11
14
21
71
0
LINE
8
0
10
14
20
71
11
14.4730403
21
70.9377218
0
LINE
8
0
10
14.4730403
20
70.9377218
11
14.51764
21
70.93185
0
LINE
8
0
10
14.51764
20
70.93185
11
14.95844
21
70.7492647
0
LINE
8
0
10
14.95844
20
70.7492647
11
15
21
70.73205
0
LINE
8
0
10
15
20
70.73205
11
15.3785218
21
70.441595
0
LINE
8
0
10
15.3785218
20
70.441595
11
15.41421
21
70.41421
0
LINE
8
0
10
15.41421
20
70.41421
11
15.704665
21
70.0356882
0
LINE
8
0
10
15.704665
20
70.0356882
11
15.73205
21
70
0
LINE
8
0
10
15.73205
20
70
11
15.9146353
21
69.5592
0
LINE
8
0
10
15.9146353
20
69.5592
11
15.93185
21
69.51764
0
LINE
8
0
10
15.93185
20
69.51764
11
15.9377218
21
69.4730403
0
LINE
8
0
10
15.9377218
20
69.4730403
11
16
21
69
0
LINE
8
0
10
16
20
69
11
16
21
63.2658407
0
LINE
8
0
10
16
20
63.2658407
11
16
21
62.3096052
0
LINE
8
0
10
16
20
62.3096052
11
16
21
61.2867474
0
LINE
8
0
10
16
20
61.2867474
11
16
21
60.290532
0
LINE
8
0
10
16
20
60.290532
11
16
21
57.0088552
0
LINE
8
0
10
16
20
57.0088552
11
16
21
57.0088552
0
LINE
8
0
10
16
20
33.8231814
11
16
21
32.0332196
0
LINE
8
0
10
16
20
32.0332196
11
16
21
26.8949804
0
LINE
8
0
10
16
20
26.8949804
11
16
21
21.6409166
0
LINE
8
0
10
16
20
21.6409166
11
7.74905739
21
21.6409166
0
LINE
8
0
10
7.74905739
20
21.6409166
11
2.4
21
21.6409166
0
LINE
8
0
10
2.4
20
21.6409166
11
2.4
21
24.5067696
0
LINE
8
0
10
2.4
20
24.5067696
11
2.4
21
26.8949804
0
LINE
8
0
10
2.4
20
26.8949804
11
2.4
21
28.9502761
0
LINE
8
0
10
2.4
20
28.9502761
11
2.4
21
32.0332196
0
LINE
8
0
10
2.4
20
32.0332196
11
2.4
21
33.0276428
0
LINE
8
0
10
2.4
20
33.0276428
11
2.4
21
33.8231814
0
LINE
8
0
10
2.4
20
33.8231814
11
5.21094261
21
33.8231814
0
LINE
8
0
10
5.21094261
20
33.8231814
11
16
21
33.8231814
0
LINE
8
0
10
16
20
33.8231814
11
16
21
33.8231814
0
ENDSEC
0
EOF
