0
SECTION
2
ENTITIES
0
LINE
8
0
10
14.438399
20
41.0912589
11
16
21
41.0912589
0
LINE
8
0
10
16
20
41.0912589
11
16
21
42.0856606
0
LINE
8
0
10
16
20
42.0856606
11
16
21
45.8448201
0
LINE
8
0
10
16
20
45.8448201
11
16
21
51.3152552
0
LINE
8
0
10
16
20
51.3152552
11
16
21
52.3681336
0
LINE
8
0
10
16
20
52.3681336
11
16
21
53.4676344
0
LINE
8
0
10
16
20
53.4676344
11
16
21
55.6122891
0
LINE
8
0
10
16
20
55.6122891
11
16
21
56.5153131
0
LINE
8
0
10
16
20
56.5153131
11
16
21
57.28049
0
LINE
8
0
10
16
20
57.28049
11
16
21
60.0394592
0
LINE
8
0
10
16
20
60.0394592
11
16
21
61.0643931
0
LINE
8
0
10
16
20
61.0643931
11
16
21
62.1167374
0
LINE
8
0
10
16
20
62.1167374
11
16
21
63.1005388
0
LINE
8
0
10
16
20
63.1005388
11
16
21
69
0
LINE
8
0
10
16
20
69
11
15.9398556
21
69.4568323
0
LINE
8
0
10
15.9398556
20
69.4568323
11
15.93185
21
69.51764
0
LINE
8
0
10
15.93185
20
69.51764
11
15.9083793
21
69.5743033
0
LINE
8
0
10
15.9083793
20
69.5743033
11
15.73205
21
70
0
LINE
8
0
10
15.73205
20
70
11
15.694713
21
70.0486577
0
LINE
8
0
10
15.694713
20
70.0486577
11
15.41421
21
70.41421
0
LINE
8
0
10
15.41421
20
70.41421
11
15.3655523
21
70.451547
0
LINE
8
0
10
15.3655523
20
70.451547
11
15
21
70.73205
0
LINE
8
0
10
15
20
70.73205
11
14.9433367
21
70.7555207
0
LINE
8
0
10
14.9433367
20
70.7555207
11
14.51764
21
70.93185
0
LINE
8
0
10
14.51764
20
70.93185
11
14.4568323
21
70.9398556
0
LINE
8
0
10
14.4568323
20
70.9398556
11
14
21
71
0
LINE
8
0
10
14
20
71
11
13.5909351
21
71
0
LINE
8
0
10
13.5909351
20
71
11
7.91795796
21
71
0
LINE
8
0
10
7.91795796
20
71
11
4.4
21
71
0
LINE
8
0
10
4.4
20
71
11
3.97650495
21
70.9442445
0
LINE
8
0
10
3.97650495
20
70.9442445
11
3.882362
21
70.93185
0
LINE
8
0
10
3.882362
20
70.93185
11
3.79463471
21
70.8955123
0
LINE
8
0
10
3.79463471
20
70.8955123
11
3.4
21
70.73205
0
LINE
8
0
10
3.4
20
70.73205
11
3.3246668
21
70.6742444
0
LINE
8
0
10
3.3246668
20
70.6742444
11
2.985786
21
70.41421
0
LINE
8
0
10
2.985786
20
70.41421
11
2.92798091
21
70.3388775
0
LINE
8
0
10
2.92798091
20
70.3388775
11
2.667949
21
70
0
LINE
8
0
10
2.667949
20
70
11
2.63161114
21
69.9122731
0
LINE
8
0
10
2.63161114
20
69.9122731
11
2.468148
21
69.51764
0
LINE
8
0
10
2.468148
20
69.51764
11
2.45575391
21
69.4234967
0
LINE
8
0
10
2.45575391
20
69.4234967
11
2.4
21
69
0
LINE
8
0
10
2.4
20
69
11
2.4
21
63.1799975
0
LINE
8
0
10
2.4
20
63.1799975
11
2.4
21
62.68503
0
LINE
8
0
10
2.4
20
62.68503
11
2.4
21
62.1280178
0
LINE
8
0
10
2.4
20
62.1280178
11
2.4
21
61.5599626
0
LINE
8
0
10
2.4
20
61.5599626
11
2.4
21
55.6030979
0
LINE
8
0
10
2.4
20
55.6030979
11
2.4
21
55.2602636
0
LINE
8
0
10
2.4
20
55.2602636
11
2.4
21
54.8372548
0
LINE
8
0
10
2.4
20
54.8372548
11
2.4
21
54.3876359
0
LINE
8
0
10
2.4
20
54.3876359
11
2.4
21
53.9646727
0
LINE
8
0
10
2.4
20
53.9646727
11
2.4
21
53.6090644
0
LINE
8
0
10
2.4
20
53.6090644
11
2.4
21
50.2118326
0
LINE
8
0
10
2.4
20
50.2118326
11
2.4
21
47.7244017
0
LINE
8
0
10
2.4
20
47.7244017
11
2.4
21
45.8448201
0
LINE
8
0
10
2.4
20
45.8448201
11
2.4
21
42.0856606
0
LINE
8
0
10
2.4
20
42.0856606
11
2.4
21
41.6336598
0
LINE
8
0
10
2.4
20
41.6336598
11
2.4
21
41.0912589
0
LINE
8
0
10
2.4
20
41.0912589
11
14.438399
21
41.0912589
0
LINE
8
0
10
14.438399
20
41.0912589
11
14.438399
21
41.0912589
0
LINE
8
0
10
16
20
-2.30646752
11
16
21
-0.49173988
0
LINE
8
0
10
16
20
-0.49173988
11
16
21
0.625487752
0
LINE
8
0
10
16
20
0.625487752
11
16
21
1.92176052
0
LINE
8
0
10
16
20
1.92176052
11
16
21
3.16889712
0
LINE
8
0
10
16
20
3.16889712
11
16
21
8.47193457
0
LINE
8
0
10
16
20
8.47193457
11
16
21
9.52922409
0
LINE
8
0
10
16
20
9.52922409
11
16
21
11.8966201
0
LINE
8
0
10
16
20
11.8966201
11
16
21
13.378443
0
LINE
8
0
10
16
20
13.378443
11
16
21
17.836948
0
LINE
8
0
10
16
20
17.836948
11
9.40160099
21
17.836948
0
LINE
8
0
10
9.40160099
20
17.836948
11
2.4
21
17.836948
0
LINE
8
0
10
2.4
20
17.836948
11
2.4
21
15.8553931
0
LINE
8
0
10
2.4
20
15.8553931
11
2.4
21
13.378443
0
LINE
8
0
10
2.4
20
13.378443
11
2.4
21
11.8966201
0
LINE
8
0
10
2.4
20
11.8966201
11
2.4
21
8.92646103
0
LINE
8
0
10
2.4
20
8.92646103
11
2.4
21
7.25696923
0
LINE
8
0
10
2.4
20
7.25696923
11
2.4
21
5.65769263
0
LINE
8
0
10
2.4
20
5.65769263
11
2.4
21
4.35189676
0
LINE
8
0
10
2.4
20
4.35189676
11
2.4
21
3.92328128
0
LINE
8
0
10
2.4
20
3.92328128
11
2.4
21
3.49958294
0
LINE
8
0
10
2.4
20
3.49958294
11
2.4
21
-0.36579593
0
LINE
8
0
10
2.4
20
-0.36579593
11
2.4
21
-0.914527446
0
LINE
8
0
10
2.4
20
-0.914527446
11
2.4
21
-1.42057809
0
LINE
8
0
10
2.4
20
-1.42057809
11
2.4
21
-1.83839021
0
LINE
8
0
10
2.4
20
-1.83839021
11
2.4
21
-4.60651751
0
LINE
8
0
10
2.4
20
-4.60651751
11
2.4
21
-5.16746845
0
LINE
8
0
10
2.4
20
-5.16746845
11
2.4
21
-5.24406127
0
LINE
8
0
10
2.4
20
-5.24406127
11
2.4
21
-13.9684246
0
LINE
8
0
10
2.4
20
-13.9684246
11
2.4
21
-14
0
LINE
8
0
10
2.4
20
-14
11
2.45624854
21
-14.4272538
0
LINE
8
0
10
2.45624854
20
-14.4272538
11
2.468148
21
-14.51764
0
LINE
8
0
10
2.468148
20
-14.51764
11
2.50303566
21
-14.6018659
0
LINE
8
0
10
2.50303566
20
-14.6018659
11
2.667949
21
-15
0
LINE
8
0
10
2.667949
20
-15
11
2.72344717
21
-15.0723261
0
LINE
8
0
10
2.72344717
20
-15.0723261
11
2.985786
21
-15.41421
0
LINE
8
0
10
2.985786
20
-15.41421
11
3.05811276
21
-15.4697087
0
LINE
8
0
10
3.05811276
20
-15.4697087
11
3.40066939
21
-15.7324379
0
LINE
8
0
10
3.40066939
20
-15.7324379
11
3.48489561
21
-15.7673254
0
LINE
8
0
10
3.48489561
20
-15.7673254
11
3.882362
21
-15.93185
0
LINE
8
0
10
3.882362
20
-15.93185
11
3.97274784
21
-15.9437498
0
LINE
8
0
10
3.97274784
20
-15.9437498
11
4.18637401
21
-15.9718749
0
LINE
8
0
10
4.18637401
20
-15.9718749
11
4.30281338
21
-15.9917726
0
LINE
8
0
10
4.30281338
20
-15.9917726
11
4.4
21
-16
0
LINE
8
0
10
4.4
20
-16
11
8.20301633
21
-16
0
LINE
8
0
10
8.20301633
20
-16
11
14
21
-16
0
LINE
8
0
10
14
20
-16
11
14.4101238
21
-15.9460051
0
LINE
8
0
10
14.4101238
20
-15.9460051
11
14.51764
21
-15.93185
0
LINE
8
0
10
14.51764
20
-15.93185
11
14.6178284
21
-15.8903506
0
LINE
8
0
10
14.6178284
20
-15.8903506
11
15.0006259
21
-15.7316855
0
LINE
8
0
10
15.0006259
20
-15.7316855
11
15.0866592
21
-15.6656687
0
LINE
8
0
10
15.0866592
20
-15.6656687
11
15.41421
21
-15.41421
0
LINE
8
0
10
15.41421
20
-15.41421
11
15.4802268
21
-15.3281767
0
LINE
8
0
10
15.4802268
20
-15.3281767
11
15.73205
21
-15
0
LINE
8
0
10
15.73205
20
-15
11
15.7735494
21
-14.8998116
0
LINE
8
0
10
15.7735494
20
-14.8998116
11
15.93185
21
-14.51764
0
LINE
8
0
10
15.93185
20
-14.51764
11
15.9460051
21
-14.4101238
0
LINE
8
0
10
15.9460051
20
-14.4101238
11
15.9937003
21
-14.1040244
0
LINE
8
0
10
15.9937003
20
-14.1040244
11
16
21
-14
0
LINE
8
0
10
16
20
-14
11
16
21
-8.50881209
0
LINE
8
0
10
16
20
-8.50881209
11
16
21
-7.72677873
0
LINE
8
0
10
16
20
-7.72677873
11
16
21
-6.77407337
0
LINE
8
0
10
16
20
-6.77407337
11
16
21
-6.75334326
0
LINE
8
0
10
16
20
-6.75334326
11
16
21
-5.67170925
0
LINE
8
0
10
16
20
-5.67170925
11
16
21
-5.65625101
0
LINE
8
0
10
16
20
-5.65625101
11
16
21
-5.63992084
0
LINE
8
0
10
16
20
-5.63992084
11
16
21
-4.49341002
0
LINE
8
0
10
16
20
-4.49341002
11
16
21
-3.35109744
0
LINE
8
0
10
16
20
-3.35109744
11
16
21
-2.30646752
0
LINE
8
0
10
16
20
-2.30646752
11
16
21
-2.30646752
0
LINE
8
0
10
16
20
32.4309994
11
16
21
26.4972006
0
LINE
8
0
10
16
20
26.4972006
11
16
21
22.0386969
0
LINE
8
0
10
16
20
22.0386969
11
8.99839901
21
22.0386969
0
LINE
8
0
10
8.99839901
20
22.0386969
11
2.4
21
22.0386969
0
LINE
8
0
10
2.4
20
22.0386969
11
2.4
21
24.470608
0
LINE
8
0
10
2.4
20
24.470608
11
2.4
21
26.4972006
0
LINE
8
0
10
2.4
20
26.4972006
11
2.4
21
28.8707201
0
LINE
8
0
10
2.4
20
28.8707201
11
2.4
21
32.4309994
0
LINE
8
0
10
2.4
20
32.4309994
11
2.4
21
32.9834448
0
LINE
8
0
10
2.4
20
32.9834448
11
2.4
21
33.4254011
0
LINE
8
0
10
2.4
20
33.4254011
11
3.96160099
21
33.4254011
0
LINE
8
0
10
3.96160099
20
33.4254011
11
16
21
33.4254011
0
LINE
8
0
10
16
20
33.4254011
11
16
21
32.4309994
0
LINE
8
0
10
16
20
32.4309994
11
16
21
32.4309994
0
ENDSEC
0
EOF
