0
SECTION
2
ENTITIES
0
LINE
8
0
10
3.31264361
20
70.6650186
11
3.4
21
70.73205
0
LINE
8
0
10
3.4
20
70.73205
11
3.78063342
21
70.8897128
0
LINE
8
0
10
3.78063342
20
70.8897128
11
3.882362
21
70.93185
0
LINE
8
0
10
3.882362
20
70.93185
11
3.99153018
21
70.9462226
0
LINE
8
0
10
3.99153018
20
70.9462226
11
4.4
21
71
0
LINE
8
0
10
4.4
20
71
11
7.79314393
21
71
0
LINE
8
0
10
7.79314393
20
71
11
13.6054484
21
71
0
LINE
8
0
10
13.6054484
20
71
11
14
21
71
0
LINE
8
0
10
14
20
71
11
14.4406243
21
70.9419895
0
LINE
8
0
10
14.4406243
20
70.9419895
11
14.51764
21
70.93185
0
LINE
8
0
10
14.51764
20
70.93185
11
14.9282333
21
70.7617767
0
LINE
8
0
10
14.9282333
20
70.7617767
11
15
21
70.73205
0
LINE
8
0
10
15
20
70.73205
11
15.3525829
21
70.461499
0
LINE
8
0
10
15.3525829
20
70.461499
11
15.41421
21
70.41421
0
LINE
8
0
10
15.41421
20
70.41421
11
15.684761
21
70.0616271
0
LINE
8
0
10
15.684761
20
70.0616271
11
15.73205
21
70
0
LINE
8
0
10
15.73205
20
70
11
15.9021233
21
69.5894067
0
LINE
8
0
10
15.9021233
20
69.5894067
11
15.93185
21
69.51764
0
LINE
8
0
10
15.93185
20
69.51764
11
15.9419895
21
69.4406243
0
LINE
8
0
10
15.9419895
20
69.4406243
11
16
21
69
0
LINE
8
0
10
16
20
69
11
16
21
62.9352369
0
LINE
8
0
10
16
20
62.9352369
11
16
21
61.9238696
0
LINE
8
0
10
16
20
61.9238696
11
16
21
60.8420387
0
LINE
8
0
10
16
20
60.8420387
11
16
21
59.7883864
0
LINE
8
0
10
16
20
59.7883864
11
16
21
57.5521248
0
LINE
8
0
10
16
20
57.5521248
11
16
21
56.7532377
0
LINE
8
0
10
16
20
56.7532377
11
16
21
55.8104306
0
LINE
8
0
10
16
20
55.8104306
11
16
21
54.033372
0
LINE
8
0
10
16
20
54.033372
11
16
21
52.8407952
0
LINE
8
0
10
16
20
52.8407952
11
16
21
51.6987876
0
LINE
8
0
10
16
20
51.6987876
11
16
21
45.7652641
0
LINE
8
0
10
16
20
45.7652641
11
16
21
41.6878807
0
LINE
8
0
10
16
20
41.6878807
11
16
21
41.4890391
0
LINE
8
0
10
16
20
41.4890391
11
15.6877406
21
41.4890391
0
LINE
8
0
10
15.6877406
20
41.4890391
11
2.4
21
41.4890391
0
LINE
8
0
10
2.4
20
41.4890391
11
2.4
21
41.5974982
0
LINE
8
0
10
2.4
20
41.5974982
11
2.4
21
41.6878807
0
LINE
8
0
10
2.4
20
41.6878807
11
2.4
21
45.7652641
0
LINE
8
0
10
2.4
20
45.7652641
11
2.4
21
47.8039578
0
LINE
8
0
10
2.4
20
47.8039578
11
2.4
21
50.1720546
0
LINE
8
0
10
2.4
20
50.1720546
11
2.4
21
53.718953
0
LINE
8
0
10
2.4
20
53.718953
11
2.4
21
54.0902277
0
LINE
8
0
10
2.4
20
54.0902277
11
2.4
21
54.5318248
0
LINE
8
0
10
2.4
20
54.5318248
11
2.4
21
55.0012518
0
LINE
8
0
10
2.4
20
55.0012518
11
2.4
21
55.4428964
0
LINE
8
0
10
2.4
20
55.4428964
11
2.4
21
55.8008345
0
LINE
8
0
10
2.4
20
55.8008345
11
2.4
21
61.3772366
0
LINE
8
0
10
2.4
20
61.3772366
11
2.4
21
61.9592432
0
LINE
8
0
10
2.4
20
61.9592432
11
2.4
21
62.5299355
0
LINE
8
0
10
2.4
20
62.5299355
11
2.4
21
63.0370593
0
LINE
8
0
10
2.4
20
63.0370593
11
2.4
21
69
0
LINE
8
0
10
2.4
20
69
11
2.45377581
21
69.4084714
0
LINE
8
0
10
2.45377581
20
69.4084714
11
2.468148
21
69.51764
0
LINE
8
0
10
2.468148
20
69.51764
11
2.62581162
21
69.8982718
0
LINE
8
0
10
2.62581162
20
69.8982718
11
2.667949
21
70
0
LINE
8
0
10
2.667949
20
70
11
2.91875521
21
70.3268545
0
LINE
8
0
10
2.91875521
20
70.3268545
11
2.985786
21
70.41421
0
LINE
8
0
10
2.985786
20
70.41421
11
3.31264361
21
70.6650186
0
LINE
8
0
10
3.31264361
20
70.6650186
11
3.31264361
21
70.6650186
0
LINE
8
0
10
16
20
-1.08538925
11
16
21
-2.08560737
0
LINE
8
0
10
16
20
-2.08560737
11
16
21
-3.15084894
0
LINE
8
0
10
16
20
-3.15084894
11
16
21
-4.31570054
0
LINE
8
0
10
16
20
-4.31570054
11
16
21
-5.48483323
0
LINE
8
0
10
16
20
-5.48483323
11
16
21
-5.49825373
0
LINE
8
0
10
16
20
-5.49825373
11
16
21
-5.51095766
0
LINE
8
0
10
16
20
-5.51095766
11
16
21
-6.61389228
0
LINE
8
0
10
16
20
-6.61389228
11
16
21
-6.63211429
0
LINE
8
0
10
16
20
-6.63211429
11
16
21
-7.6035363
0
LINE
8
0
10
16
20
-7.6035363
11
16
21
-8.40093333
0
LINE
8
0
10
16
20
-8.40093333
11
16
21
-14
0
LINE
8
0
10
16
20
-14
11
15.9938563
21
-14.1014489
0
LINE
8
0
10
15.9938563
20
-14.1014489
11
15.9473419
21
-14.3999698
0
LINE
8
0
10
15.9473419
20
-14.3999698
11
15.93185
21
-14.51764
0
LINE
8
0
10
15.93185
20
-14.51764
11
15.7774687
21
-14.8903496
0
LINE
8
0
10
15.7774687
20
-14.8903496
11
15.73205
21
-15
0
LINE
8
0
10
15.73205
20
-15
11
15.4864616
21
-15.3200515
0
LINE
8
0
10
15.4864616
20
-15.3200515
11
15.41421
21
-15.41421
0
LINE
8
0
10
15.41421
20
-15.41421
11
15.0947689
21
-15.659443
0
LINE
8
0
10
15.0947689
20
-15.659443
11
15.0006104
21
-15.7316946
0
LINE
8
0
10
15.0006104
20
-15.7316946
11
14.6272904
21
-15.8864313
0
LINE
8
0
10
14.6272904
20
-15.8864313
11
14.51764
21
-15.93185
0
LINE
8
0
10
14.51764
20
-15.93185
11
14.3999698
21
-15.9473419
0
LINE
8
0
10
14.3999698
20
-15.9473419
11
14
21
-16
0
LINE
8
0
10
14
20
-16
11
8.10885943
21
-16
0
LINE
8
0
10
8.10885943
20
-16
11
4.4
21
-16
0
LINE
8
0
10
4.4
20
-16
11
4.30521957
21
-15.9919763
0
LINE
8
0
10
4.30521957
20
-15.9919763
11
4.19166307
21
-15.9725713
0
LINE
8
0
10
4.19166307
20
-15.9725713
11
3.98332595
21
-15.9451425
0
LINE
8
0
10
3.98332595
20
-15.9451425
11
3.882362
21
-15.93185
0
LINE
8
0
10
3.882362
20
-15.93185
11
3.49473628
21
-15.7713988
0
LINE
8
0
10
3.49473628
20
-15.7713988
11
3.40065282
21
-15.7324283
0
LINE
8
0
10
3.40065282
20
-15.7324283
11
3.06657737
21
-15.4762039
0
LINE
8
0
10
3.06657737
20
-15.4762039
11
2.985786
21
-15.41421
0
LINE
8
0
10
2.985786
20
-15.41421
11
2.72994228
21
-15.0807906
0
LINE
8
0
10
2.72994228
20
-15.0807906
11
2.667949
21
-15
0
LINE
8
0
10
2.667949
20
-15
11
2.50711867
21
-14.6117231
0
LINE
8
0
10
2.50711867
20
-14.6117231
11
2.468148
21
-14.51764
0
LINE
8
0
10
2.468148
20
-14.51764
11
2.45485591
21
-14.4166757
0
LINE
8
0
10
2.45485591
20
-14.4166757
11
2.4
21
-14
0
LINE
8
0
10
2.4
20
-14
11
2.4
21
-13.9681279
0
LINE
8
0
10
2.4
20
-13.9681279
11
2.4
21
-5.16177965
0
LINE
8
0
10
2.4
20
-5.16177965
11
2.4
21
-5.08932719
0
LINE
8
0
10
2.4
20
-5.08932719
11
2.4
21
-4.52311574
0
LINE
8
0
10
2.4
20
-4.52311574
11
2.4
21
-1.92007549
0
LINE
8
0
10
2.4
20
-1.92007549
11
2.4
21
-1.49641773
0
LINE
8
0
10
2.4
20
-1.49641773
11
2.4
21
-0.9832869
0
LINE
8
0
10
2.4
20
-0.9832869
11
2.4
21
-0.426878047
0
LINE
8
0
10
2.4
20
-0.426878047
11
2.4
21
3.19123005
0
LINE
8
0
10
2.4
20
3.19123005
11
2.4
21
3.64521399
0
LINE
8
0
10
2.4
20
3.64521399
11
2.4
21
4.10446657
0
LINE
8
0
10
2.4
20
4.10446657
11
2.4
21
5.50359965
0
LINE
8
0
10
2.4
20
5.50359965
11
2.4
21
7.21719123
0
LINE
8
0
10
2.4
20
7.21719123
11
2.4
21
9.00601693
0
LINE
8
0
10
2.4
20
9.00601693
11
2.4
21
11.8170641
0
LINE
8
0
10
2.4
20
11.8170641
11
2.4
21
13.776224
0
LINE
8
0
10
2.4
20
13.776224
11
2.4
21
15.8111956
0
LINE
8
0
10
2.4
20
15.8111956
11
2.4
21
17.4391686
0
LINE
8
0
10
2.4
20
17.4391686
11
8.15225938
21
17.4391686
0
LINE
8
0
10
8.15225938
20
17.4391686
11
16
21
17.4391686
0
LINE
8
0
10
16
20
17.4391686
11
16
21
13.776224
0
LINE
8
0
10
16
20
13.776224
11
16
21
11.8170641
0
LINE
8
0
10
16
20
11.8170641
11
16
21
8.68706316
0
LINE
8
0
10
16
20
8.68706316
11
16
21
7.28919089
0
LINE
8
0
10
16
20
7.28919089
11
16
21
2.83690707
0
LINE
8
0
10
16
20
2.83690707
11
16
21
1.50062618
0
LINE
8
0
10
16
20
1.50062618
11
16
21
0.111696895
0
LINE
8
0
10
16
20
0.111696895
11
16
21
-1.08538925
0
LINE
8
0
10
16
20
-1.08538925
11
16
21
-1.08538925
0
LINE
8
0
10
16
20
26.0994207
11
16
21
22.4364771
0
LINE
8
0
10
16
20
22.4364771
11
10.2477406
21
22.4364771
0
LINE
8
0
10
10.2477406
20
22.4364771
11
2.4
21
22.4364771
0
LINE
8
0
10
2.4
20
22.4364771
11
2.4
21
24.4344464
0
LINE
8
0
10
2.4
20
24.4344464
11
2.4
21
26.0994207
0
LINE
8
0
10
2.4
20
26.0994207
11
2.4
21
28.7911641
0
LINE
8
0
10
2.4
20
28.7911641
11
2.4
21
32.8287793
0
LINE
8
0
10
2.4
20
32.8287793
11
2.4
21
32.9392468
0
LINE
8
0
10
2.4
20
32.9392468
11
2.4
21
33.0276209
0
LINE
8
0
10
2.4
20
33.0276209
11
2.71225938
21
33.0276209
0
LINE
8
0
10
2.71225938
20
33.0276209
11
16
21
33.0276209
0
LINE
8
0
10
16
20
33.0276209
11
16
21
32.8287793
0
LINE
8
0
10
16
20
32.8287793
11
16
21
26.0994207
0
LINE
8
0
10
16
20
26.0994207
11
16
21
26.0994207
0
ENDSEC
0
EOF
