0
SECTION
2
ENTITIES
0
LINE
8
0
10
16
20
39.3011993
11
16
21
43.8757181
0
LINE
8
0
10
16
20
43.8757181
11
16
21
45.2879284
0
LINE
8
0
10
16
20
45.2879284
11
16
21
53.9999817
0
LINE
8
0
10
16
20
53.9999817
11
16
21
55.6767647
0
LINE
8
0
10
16
20
55.6767647
11
16
21
56.0771685
0
LINE
8
0
10
16
20
56.0771685
11
15.6439661
21
56.8438551
0
LINE
8
0
10
15.6439661
20
56.8438551
11
15.4660102
21
57.6760696
0
LINE
8
0
10
15.4660102
20
57.6760696
11
15.4465176
21
57.7933034
0
LINE
8
0
10
15.4465176
20
57.7933034
11
15.4838694
21
58.6003042
0
LINE
8
0
10
15.4838694
20
58.6003042
11
15.5023142
21
58.7117184
0
LINE
8
0
10
15.5023142
20
58.7117184
11
15.7715314
21
59.5929051
0
LINE
8
0
10
15.7715314
20
59.5929051
11
15.7952889
21
59.6417108
0
LINE
8
0
10
15.7952889
20
59.6417108
11
16
21
60.0136563
0
LINE
8
0
10
16
20
60.0136563
11
16
21
60.7666625
0
LINE
8
0
10
16
20
60.7666625
11
16
21
61.9434256
0
LINE
8
0
10
16
20
61.9434256
11
16
21
69
0
LINE
8
0
10
16
20
69
11
15.9547927
21
69.3433763
0
LINE
8
0
10
15.9547927
20
69.3433763
11
15.93185
21
69.51764
0
LINE
8
0
10
15.93185
20
69.51764
11
15.8645872
21
69.6800267
0
LINE
8
0
10
15.8645872
20
69.6800267
11
15.73205
21
70
0
LINE
8
0
10
15.73205
20
70
11
15.625049
21
70.139444
0
LINE
8
0
10
15.625049
20
70.139444
11
15.41421
21
70.41421
0
LINE
8
0
10
15.41421
20
70.41421
11
15.274766
21
70.521211
0
LINE
8
0
10
15.274766
20
70.521211
11
15
21
70.73205
0
LINE
8
0
10
15
20
70.73205
11
14.8376133
21
70.7993128
0
LINE
8
0
10
14.8376133
20
70.7993128
11
14.51764
21
70.93185
0
LINE
8
0
10
14.51764
20
70.93185
11
14.3433763
21
70.9547927
0
LINE
8
0
10
14.3433763
20
70.9547927
11
14
21
71
0
LINE
8
0
10
14
20
71
11
13.6925279
21
71
0
LINE
8
0
10
13.6925279
20
71
11
7.04425979
21
71
0
LINE
8
0
10
7.04425979
20
71
11
4.4
21
71
0
LINE
8
0
10
4.4
20
71
11
4.08168155
21
70.9580916
0
LINE
8
0
10
4.08168155
20
70.9580916
11
3.882362
21
70.93185
0
LINE
8
0
10
3.882362
20
70.93185
11
3.69662568
21
70.8549158
0
LINE
8
0
10
3.69662568
20
70.8549158
11
3.4
21
70.73205
0
LINE
8
0
10
3.4
20
70.73205
11
3.24050447
21
70.6096638
0
LINE
8
0
10
3.24050447
20
70.6096638
11
2.985786
21
70.41421
0
LINE
8
0
10
2.985786
20
70.41421
11
2.863401
21
70.254716
0
LINE
8
0
10
2.863401
20
70.254716
11
2.667949
21
70
0
LINE
8
0
10
2.667949
20
70
11
2.59101445
21
69.8142645
0
LINE
8
0
10
2.59101445
20
69.8142645
11
2.468148
21
69.51764
0
LINE
8
0
10
2.468148
20
69.51764
11
2.44190721
21
69.3183197
0
LINE
8
0
10
2.44190721
20
69.3183197
11
2.4
21
69
0
LINE
8
0
10
2.4
20
69
11
2.4
21
62.1794301
0
LINE
8
0
10
2.4
20
62.1794301
11
2.4
21
61.5993684
0
LINE
8
0
10
2.4
20
61.5993684
11
2.4
21
60.9465954
0
LINE
8
0
10
2.4
20
60.9465954
11
2.4
21
60.2808809
0
LINE
8
0
10
2.4
20
60.2808809
11
2.4
21
56.9872538
0
LINE
8
0
10
2.4
20
56.9872538
11
2.4
21
56.5386935
0
LINE
8
0
10
2.4
20
56.5386935
11
2.4
21
55.9852338
0
LINE
8
0
10
2.4
20
55.9852338
11
2.4
21
55.3969579
0
LINE
8
0
10
2.4
20
55.3969579
11
2.4
21
54.8435579
0
LINE
8
0
10
2.4
20
54.8435579
11
2.4
21
54.3782843
0
LINE
8
0
10
2.4
20
54.3782843
11
2.4
21
49.9333867
0
LINE
8
0
10
2.4
20
49.9333867
11
2.4
21
48.2812945
0
LINE
8
0
10
2.4
20
48.2812945
11
2.4
21
45.2879284
0
LINE
8
0
10
2.4
20
45.2879284
11
2.4
21
43.8757181
0
LINE
8
0
10
2.4
20
43.8757181
11
2.4
21
41.3343187
0
LINE
8
0
10
2.4
20
41.3343187
11
2.4
21
39.3011993
0
LINE
8
0
10
2.4
20
39.3011993
11
9.58379031
21
39.3011993
0
LINE
8
0
10
9.58379031
20
39.3011993
11
16
21
39.3011993
0
LINE
8
0
10
16
20
39.3011993
11
16
21
39.3011993
0
LINE
8
0
10
16
20
35.2154607
11
16
21
30.6409419
0
LINE
8
0
10
16
20
30.6409419
11
16
21
24.8231581
0
LINE
8
0
10
16
20
24.8231581
11
16
21
23.7127413
0
LINE
8
0
10
16
20
23.7127413
11
4.14379031
21
23.7127413
0
LINE
8
0
10
4.14379031
20
23.7127413
11
2.4
21
23.7127413
0
LINE
8
0
10
2.4
20
23.7127413
11
2.4
21
24.2062599
0
LINE
8
0
10
2.4
20
24.2062599
11
2.4
21
24.8231581
0
LINE
8
0
10
2.4
20
24.8231581
11
2.4
21
28.3138284
0
LINE
8
0
10
2.4
20
28.3138284
11
2.4
21
30.6409419
0
LINE
8
0
10
2.4
20
30.6409419
11
2.4
21
32.7202686
0
LINE
8
0
10
2.4
20
32.7202686
11
2.4
21
35.2154607
0
LINE
8
0
10
2.4
20
35.2154607
11
8.81620969
21
35.2154607
0
LINE
8
0
10
8.81620969
20
35.2154607
11
16
21
35.2154607
0
LINE
8
0
10
16
20
35.2154607
11
16
21
35.2154607
0
LINE
8
0
10
16
20
-5.78035984
11
16
21
-5.77718641
0
LINE
8
0
10
16
20
-5.77718641
11
16
21
-5.20429542
0
LINE
8
0
10
16
20
-5.20429542
11
15.7084439
21
-4.57528023
0
LINE
8
0
10
15.7084439
20
-4.57528023
11
15.4055969
21
-3.67915107
0
LINE
8
0
10
15.4055969
20
-3.67915107
11
15.3512447
21
-3.4987246
0
LINE
8
0
10
15.3512447
20
-3.4987246
11
15.2038949
21
-2.76322194
0
LINE
8
0
10
15.2038949
20
-2.76322194
11
15.1797057
21
-2.53555737
0
LINE
8
0
10
15.1797057
20
-2.53555737
11
15.1433193
21
-1.86960415
0
LINE
8
0
10
15.1433193
20
-1.86960415
11
15.2061048
21
-1.18878126
0
LINE
8
0
10
15.2061048
20
-1.18878126
11
15.2275677
21
-0.965525327
0
LINE
8
0
10
15.2275677
20
-0.965525327
11
15.4117748
21
-0.187747978
0
LINE
8
0
10
15.4117748
20
-0.187747978
11
15.4613129
21
-0.0173245082
0
LINE
8
0
10
15.4613129
20
-0.0173245082
11
15.8281856
21
0.966245465
0
LINE
8
0
10
15.8281856
20
0.966245465
11
15.852209
21
1.01762431
0
LINE
8
0
10
15.852209
20
1.01762431
11
16
21
1.31673035
0
LINE
8
0
10
16
20
1.31673035
11
16
21
3.63409757
0
LINE
8
0
10
16
20
3.63409757
11
16
21
11.3397284
0
LINE
8
0
10
16
20
11.3397284
11
16
21
15.0524908
0
LINE
8
0
10
16
20
15.0524908
11
16
21
16.1629074
0
LINE
8
0
10
16
20
16.1629074
11
14.2562097
21
16.1629074
0
LINE
8
0
10
14.2562097
20
16.1629074
11
2.4
21
16.1629074
0
LINE
8
0
10
2.4
20
16.1629074
11
2.4
21
15.5572262
0
LINE
8
0
10
2.4
20
15.5572262
11
2.4
21
15.0524908
0
LINE
8
0
10
2.4
20
15.0524908
11
2.4
21
11.3397284
0
LINE
8
0
10
2.4
20
11.3397284
11
2.4
21
9.48335233
0
LINE
8
0
10
2.4
20
9.48335233
11
2.4
21
6.97852321
0
LINE
8
0
10
2.4
20
6.97852321
11
2.4
21
4.57904175
0
LINE
8
0
10
2.4
20
4.57904175
11
2.4
21
2.61988537
0
LINE
8
0
10
2.4
20
2.61988537
11
2.4
21
1.9768103
0
LINE
8
0
10
2.4
20
1.9768103
11
2.4
21
1.3411127
0
LINE
8
0
10
2.4
20
1.3411127
11
2.4
21
-0.793370753
0
LINE
8
0
10
2.4
20
-0.793370753
11
2.4
21
-1.39584362
0
LINE
8
0
10
2.4
20
-1.39584362
11
2.4
21
-1.95145556
0
LINE
8
0
10
2.4
20
-1.95145556
11
2.4
21
-2.41018713
0
LINE
8
0
10
2.4
20
-2.41018713
11
2.4
21
-4.02270509
0
LINE
8
0
10
2.4
20
-4.02270509
11
2.4
21
-4.62047964
0
LINE
8
0
10
2.4
20
-4.62047964
11
2.4
21
-4.66808995
0
LINE
8
0
10
2.4
20
-4.66808995
11
2.4
21
-13.9663476
0
LINE
8
0
10
2.4
20
-13.9663476
11
2.4
21
-14
0
LINE
8
0
10
2.4
20
-14
11
2.44650014
21
-14.3532067
0
LINE
8
0
10
2.44650014
20
-14.3532067
11
2.468148
21
-14.51764
0
LINE
8
0
10
2.468148
20
-14.51764
11
2.53161669
21
-14.6708662
0
LINE
8
0
10
2.53161669
20
-14.6708662
11
2.667949
21
-15
0
LINE
8
0
10
2.667949
20
-15
11
2.76891295
21
-15.1315777
0
LINE
8
0
10
2.76891295
20
-15.1315777
11
2.985786
21
-15.41421
0
LINE
8
0
10
2.985786
20
-15.41421
11
3.11736502
21
-15.5151749
0
LINE
8
0
10
3.11736502
20
-15.5151749
11
3.40055338
21
-15.7323707
0
LINE
8
0
10
3.40055338
20
-15.7323707
11
3.55378025
21
-15.7958391
0
LINE
8
0
10
3.55378025
20
-15.7958391
11
3.882362
21
-15.93185
0
LINE
8
0
10
3.882362
20
-15.93185
11
4.04679463
21
-15.9534985
0
LINE
8
0
10
4.04679463
20
-15.9534985
11
4.2233974
21
-15.9767493
0
LINE
8
0
10
4.2233974
20
-15.9767493
11
4.31965673
21
-15.9931985
0
LINE
8
0
10
4.31965673
20
-15.9931985
11
4.4
21
-16
0
LINE
8
0
10
4.4
20
-16
11
7.54391804
21
-16
0
LINE
8
0
10
7.54391804
20
-16
11
14
21
-16
0
LINE
8
0
10
14
20
-16
11
14.3390455
21
-15.9553629
0
LINE
8
0
10
14.3390455
20
-15.9553629
11
14.51764
21
-15.93185
0
LINE
8
0
10
14.51764
20
-15.93185
11
14.6840623
21
-15.8629156
0
LINE
8
0
10
14.6840623
20
-15.8629156
11
15.0005174
21
-15.7317487
0
LINE
8
0
10
15.0005174
20
-15.7317487
11
15.1434268
21
-15.6220886
0
LINE
8
0
10
15.1434268
20
-15.6220886
11
15.41421
21
-15.41421
0
LINE
8
0
10
15.41421
20
-15.41421
11
15.5238701
21
-15.2713006
0
LINE
8
0
10
15.5238701
20
-15.2713006
11
15.73205
21
-15
0
LINE
8
0
10
15.73205
20
-15
11
15.8009844
21
-14.8335777
0
LINE
8
0
10
15.8009844
20
-14.8335777
11
15.93185
21
-14.51764
0
LINE
8
0
10
15.93185
20
-14.51764
11
15.9553629
21
-14.3390455
0
LINE
8
0
10
15.9553629
20
-14.3390455
11
15.9947921
21
-14.085996
0
LINE
8
0
10
15.9947921
20
-14.085996
11
16
21
-14
0
LINE
8
0
10
16
20
-14
11
16
21
-7.75366081
0
LINE
8
0
10
16
20
-7.75366081
11
16
21
-6.86408177
0
LINE
8
0
10
16
20
-6.86408177
11
16
21
-5.78035984
0
LINE
8
0
10
16
20
-5.78035984
11
16
21
-5.78035984
0
ENDSEC
0
EOF
