0
SECTION
2
ENTITIES
0
LINE
8
0
10
3.99617512
20
61.2783228
11
3.882362
21
61.2392297
0
LINE
8
0
10
3.882362
20
61.2392297
11
3.55652599
21
60.8871037
0
LINE
8
0
10
3.55652599
20
60.8871037
11
3.4
21
60.6532692
0
LINE
8
0
10
3.4
20
60.6532692
11
3.22812066
21
60.1776025
0
LINE
8
0
10
3.22812066
20
60.1776025
11
2.985786
21
59.5069564
0
LINE
8
0
10
2.985786
20
59.5069564
11
2.91787662
21
59.1877669
0
LINE
8
0
10
2.91787662
20
59.1877669
11
2.79108352
21
58.2028435
0
LINE
8
0
10
2.79108352
20
58.2028435
11
2.71008475
21
57.5736486
0
LINE
8
0
10
2.71008475
20
57.5736486
11
2.667949
21
56.5958518
0
LINE
8
0
10
2.667949
20
56.5958518
11
2.65408822
21
56
0
LINE
8
0
10
2.65408822
20
56
11
2.65408822
21
45.3420495
0
LINE
8
0
10
2.65408822
20
45.3420495
11
2.65408822
21
44.54756
0
LINE
8
0
10
2.65408822
20
44.54756
11
2.65408822
21
33.8896095
0
LINE
8
0
10
2.65408822
20
33.8896095
11
2.65408822
21
33.09512
0
LINE
8
0
10
2.65408822
20
33.09512
11
2.65408822
21
22.4371695
0
LINE
8
0
10
2.65408822
20
22.4371695
11
2.65408822
21
21.64268
0
LINE
8
0
10
2.65408822
20
21.64268
11
2.65408822
21
10.9847295
0
LINE
8
0
10
2.65408822
20
10.9847295
11
2.65408822
21
10.19024
0
LINE
8
0
10
2.65408822
20
10.19024
11
2.65408822
21
-0.467709599
0
LINE
8
0
10
2.65408822
20
-0.467709599
11
2.65408822
21
-1.262199
0
LINE
8
0
10
2.65408822
20
-1.262199
11
2.65626079
21
-1.35312278
0
LINE
8
0
10
2.65626079
20
-1.35312278
11
2.667949
21
-1.8423408
0
LINE
8
0
10
2.667949
20
-1.8423408
11
2.70517432
21
-2.68340145
0
LINE
8
0
10
2.70517432
20
-2.68340145
11
2.71382338
21
-2.87880915
0
LINE
8
0
10
2.71382338
20
-2.87880915
11
2.82332467
21
-3.70711434
0
LINE
8
0
10
2.82332467
20
-3.70711434
11
2.93333909
21
-4.53932624
0
LINE
8
0
10
2.93333909
20
-4.53932624
11
2.96123268
21
-4.66705792
0
LINE
8
0
10
2.96123268
20
-4.66705792
11
2.985786
21
-4.77949559
0
LINE
8
0
10
2.985786
20
-4.77949559
11
3.20062051
21
-5.3587535
0
LINE
8
0
10
3.20062051
20
-5.3587535
11
3.4
21
-5.89631536
0
LINE
8
0
10
3.4
20
-5.89631536
11
3.47564003
21
-6.00640099
0
LINE
8
0
10
3.47564003
20
-6.00640099
11
3.67224859
21
-6.29255819
0
LINE
8
0
10
3.67224859
20
-6.29255819
11
3.83610757
21
-6.46520397
0
LINE
8
0
10
3.83610757
20
-6.46520397
11
3.882362
21
-6.51393918
0
LINE
8
0
10
3.882362
20
-6.51393918
11
4.29774238
21
-6.65304919
0
LINE
8
0
10
4.29774238
20
-6.65304919
11
4.4
21
-6.68729025
0
LINE
8
0
10
4.4
20
-6.68729025
11
11.9328571
21
-6.68729025
0
LINE
8
0
10
11.9328571
20
-6.68729025
11
14
21
-6.68729025
0
LINE
8
0
10
14
20
-6.68729025
11
14.4485999
21
-6.53705749
0
LINE
8
0
10
14.4485999
20
-6.53705749
11
14.51764
21
-6.51393918
0
LINE
8
0
10
14.51764
20
-6.51393918
11
14.7277525
21
-6.29255819
0
LINE
8
0
10
14.7277525
20
-6.29255819
11
15
21
-5.89631536
0
LINE
8
0
10
15
20
-5.89631536
11
15.254556
21
-5.20996232
0
LINE
8
0
10
15.254556
20
-5.20996232
11
15.41421
21
-4.77949559
0
LINE
8
0
10
15.41421
20
-4.77949559
11
15.4666574
21
-4.53932624
0
LINE
8
0
10
15.4666574
20
-4.53932624
11
15.58216
21
-3.6656225
0
LINE
8
0
10
15.58216
20
-3.6656225
11
15.6861752
21
-2.87880915
0
LINE
8
0
10
15.6861752
20
-2.87880915
11
15.73205
21
-1.8423408
0
LINE
8
0
10
15.73205
20
-1.8423408
11
15.7459107
21
-1.262199
0
LINE
8
0
10
15.7459107
20
-1.262199
11
15.7459107
21
9.3957506
0
LINE
8
0
10
15.7459107
20
9.3957506
11
15.7459107
21
10.19024
0
LINE
8
0
10
15.7459107
20
10.19024
11
15.7459107
21
20.8481905
0
LINE
8
0
10
15.7459107
20
20.8481905
11
15.7459107
21
21.64268
0
LINE
8
0
10
15.7459107
20
21.64268
11
15.7459107
21
32.3006305
0
LINE
8
0
10
15.7459107
20
32.3006305
11
15.7459107
21
33.09512
0
LINE
8
0
10
15.7459107
20
33.09512
11
15.7459107
21
43.7530705
0
LINE
8
0
10
15.7459107
20
43.7530705
11
15.7459107
21
44.54756
0
LINE
8
0
10
15.7459107
20
44.54756
11
15.7459107
21
55.2055105
0
LINE
8
0
10
15.7459107
20
55.2055105
11
15.7459107
21
56
0
LINE
8
0
10
15.7459107
20
56
11
15.7438341
21
56.0892658
0
LINE
8
0
10
15.7438341
20
56.0892658
11
15.73205
21
56.5958518
0
LINE
8
0
10
15.73205
20
56.5958518
11
15.6975174
21
57.3971946
0
LINE
8
0
10
15.6975174
20
57.3971946
11
15.6899139
21
57.5736486
0
LINE
8
0
10
15.6899139
20
57.5736486
11
15.5824343
21
58.4085368
0
LINE
8
0
10
15.5824343
20
58.4085368
11
15.48212
21
59.1877669
0
LINE
8
0
10
15.48212
20
59.1877669
11
15.4469181
21
59.3532232
0
LINE
8
0
10
15.4469181
20
59.3532232
11
15.41421
21
59.5069564
0
LINE
8
0
10
15.41421
20
59.5069564
11
15.2166639
21
60.0536628
0
LINE
8
0
10
15.2166639
20
60.0536628
11
15
21
60.6532692
0
LINE
8
0
10
15
20
60.6532692
11
14.954735
21
60.7208901
0
LINE
8
0
10
14.954735
20
60.7208901
11
14.8434747
21
60.8871037
0
LINE
8
0
10
14.8434747
20
60.8871037
11
14.592504
21
61.158327
0
LINE
8
0
10
14.592504
20
61.158327
11
14.51764
21
61.2392297
0
LINE
8
0
10
14.51764
20
61.2392297
11
14.1407394
21
61.3686812
0
LINE
8
0
10
14.1407394
20
61.3686812
11
14
21
61.4170232
0
LINE
8
0
10
14
20
61.4170232
11
7.25907263
21
61.4170232
0
LINE
8
0
10
7.25907263
20
61.4170232
11
4.4
21
61.4170232
0
LINE
8
0
10
4.4
20
61.4170232
11
3.99617512
21
61.2783228
0
LINE
8
0
10
3.99617512
20
61.2783228
11
3.99617512
21
61.2783228
0
ENDSEC
0
EOF
