0
SECTION
2
ENTITIES
0
LINE
8
0
10
15.7337634
20
-14.0444621
11
15.73205
21
-14.0491083
0
LINE
8
0
10
15.73205
20
-14.0491083
11
15.7128157
21
-14.0772634
0
LINE
8
0
10
15.7128157
20
-14.0772634
11
15.41421
21
-14.4924965
0
LINE
8
0
10
15.41421
20
-14.4924965
11
15.3692975
21
-14.5292703
0
LINE
8
0
10
15.3692975
20
-14.5292703
11
15
21
-14.8316491
0
LINE
8
0
10
15
20
-14.8316491
11
14.9093023
21
-14.8717366
0
LINE
8
0
10
14.9093023
20
-14.8717366
11
14.51764
21
-15.0448426
0
LINE
8
0
10
14.51764
20
-15.0448426
11
14.3975841
21
-15.0617083
0
LINE
8
0
10
14.3975841
20
-15.0617083
11
14
21
-15.1175613
0
LINE
8
0
10
14
20
-15.1175613
11
11.6471608
21
-15.1175613
0
LINE
8
0
10
11.6471608
20
-15.1175613
11
4.4
21
-15.1175613
0
LINE
8
0
10
4.4
20
-15.1175613
11
4.27471085
21
-15.0999604
0
LINE
8
0
10
4.27471085
20
-15.0999604
11
3.882362
21
-15.0448426
0
LINE
8
0
10
3.882362
20
-15.0448426
11
3.77585165
21
-14.9977663
0
LINE
8
0
10
3.77585165
20
-14.9977663
11
3.4
21
-14.8316491
0
LINE
8
0
10
3.4
20
-14.8316491
11
3.32927052
21
-14.7737374
0
LINE
8
0
10
3.32927052
20
-14.7737374
11
2.985786
21
-14.4924965
0
LINE
8
0
10
2.985786
20
-14.4924965
11
2.95581531
21
-14.4508188
0
LINE
8
0
10
2.95581531
20
-14.4508188
11
2.68718314
21
-14.0772634
0
LINE
8
0
10
2.68718314
20
-14.0772634
11
2.66991835
21
-14.0519911
0
LINE
8
0
10
2.66991835
20
-14.0519911
11
2.667949
21
-14.0491083
0
LINE
8
0
10
2.667949
20
-14.0491083
11
2.49343515
21
-13.5758718
0
LINE
8
0
10
2.49343515
20
-13.5758718
11
2.468148
21
-13.5072995
0
LINE
8
0
10
2.468148
20
-13.5072995
11
2.42399818
21
-13.1455822
0
LINE
8
0
10
2.42399818
20
-13.1455822
11
2.4
21
-12.9388132
0
LINE
8
0
10
2.4
20
-12.9388132
11
2.4
21
-12.7214136
0
LINE
8
0
10
2.4
20
-12.7214136
11
2.4
21
-10.442514
0
LINE
8
0
10
2.4
20
-10.442514
11
2.4
21
-10.2304239
0
LINE
8
0
10
2.4
20
-10.2304239
11
2.4
21
-8.59943132
0
LINE
8
0
10
2.4
20
-8.59943132
11
2.4
21
-7.39744616
0
LINE
8
0
10
2.4
20
-7.39744616
11
2.4
21
-7.04951791
0
LINE
8
0
10
2.4
20
-7.04951791
11
2.4
21
-6.10346251
0
LINE
8
0
10
2.4
20
-6.10346251
11
2.4
21
-5.31741837
0
LINE
8
0
10
2.4
20
-5.31741837
11
2.4
21
-4.92922121
0
LINE
8
0
10
2.4
20
-4.92922121
11
2.4
21
-4.26152545
0
LINE
8
0
10
2.4
20
-4.26152545
11
2.4
21
-3.84147731
0
LINE
8
0
10
2.4
20
-3.84147731
11
2.4
21
-3.24947192
0
LINE
8
0
10
2.4
20
-3.24947192
11
2.4
21
-2.69422969
0
LINE
8
0
10
2.4
20
-2.69422969
11
2.4
21
-2.26619086
0
LINE
8
0
10
2.4
20
-2.26619086
11
2.4
21
-1.73055119
0
LINE
8
0
10
2.4
20
-1.73055119
11
2.4
21
-1.30083904
0
LINE
8
0
10
2.4
20
-1.30083904
11
2.4
21
-0.910290757
0
LINE
8
0
10
2.4
20
-0.910290757
11
2.4
21
-0.597313577
0
LINE
8
0
10
2.4
20
-0.597313577
11
2.4
21
2.96426654
0
LINE
8
0
10
2.4
20
2.96426654
11
2.4
21
7.10535351
0
LINE
8
0
10
2.4
20
7.10535351
11
2.4
21
12.2393713
0
LINE
8
0
10
2.4
20
12.2393713
11
2.4
21
15.4082209
0
LINE
8
0
10
2.4
20
15.4082209
11
7.2135046
21
15.4082209
0
LINE
8
0
10
7.2135046
20
15.4082209
11
16
21
15.4082209
0
LINE
8
0
10
16
20
15.4082209
11
16
21
12.2393713
0
LINE
8
0
10
16
20
12.2393713
11
16
21
0.00217370265
0
LINE
8
0
10
16
20
0.00217370265
11
16
21
-0.836710732
0
LINE
8
0
10
16
20
-0.836710732
11
16
21
-1.76839323
0
LINE
8
0
10
16
20
-1.76839323
11
16
21
-1.9023879
0
LINE
8
0
10
16
20
-1.9023879
11
16
21
-2.04346563
0
LINE
8
0
10
16
20
-2.04346563
11
16
21
-2.20169324
0
LINE
8
0
10
16
20
-2.20169324
11
16
21
-2.39201918
0
LINE
8
0
10
16
20
-2.39201918
11
16
21
-2.6406566
0
LINE
8
0
10
16
20
-2.6406566
11
16
21
-3.61266012
0
LINE
8
0
10
16
20
-3.61266012
11
16
21
-3.97535803
0
LINE
8
0
10
16
20
-3.97535803
11
16
21
-4.57953488
0
LINE
8
0
10
16
20
-4.57953488
11
16
21
-5.76790238
0
LINE
8
0
10
16
20
-5.76790238
11
16
21
-7.14009488
0
LINE
8
0
10
16
20
-7.14009488
11
16
21
-8.36158793
0
LINE
8
0
10
16
20
-8.36158793
11
16
21
-12.3049844
0
LINE
8
0
10
16
20
-12.3049844
11
16
21
-12.5132625
0
LINE
8
0
10
16
20
-12.5132625
11
16
21
-12.9388132
0
LINE
8
0
10
16
20
-12.9388132
11
15.9760011
21
-13.1455822
0
LINE
8
0
10
15.9760011
20
-13.1455822
11
15.93185
21
-13.5072995
0
LINE
8
0
10
15.93185
20
-13.5072995
11
15.7337634
21
-14.0444621
0
LINE
8
0
10
15.7337634
20
-14.0444621
11
15.7337634
21
-14.0444621
0
LINE
8
0
10
16
20
59.0290334
11
16
21
59.5420238
0
LINE
8
0
10
16
20
59.5420238
11
16
21
60.3301622
0
LINE
8
0
10
16
20
60.3301622
11
16
21
61.0669334
0
LINE
8
0
10
16
20
61.0669334
11
16
21
62.3930234
0
LINE
8
0
10
16
20
62.3930234
11
16
21
63.2072295
0
LINE
8
0
10
16
20
63.2072295
11
16
21
66.1818676
0
LINE
8
0
10
16
20
66.1818676
11
16
21
66.5479377
0
LINE
8
0
10
16
20
66.5479377
11
16
21
67.6651049
0
LINE
8
0
10
16
20
67.6651049
11
15.940876
21
68.1758232
0
LINE
8
0
10
15.940876
20
68.1758232
11
15.93185
21
68.2478305
0
LINE
8
0
10
15.93185
20
68.2478305
11
15.77866
21
68.647505
0
LINE
8
0
10
15.77866
20
68.647505
11
15.73205
21
68.7691141
0
LINE
8
0
10
15.73205
20
68.7691141
11
15.5224693
21
69.0642861
0
LINE
8
0
10
15.5224693
20
69.0642861
11
15.41421
21
69.2167546
0
LINE
8
0
10
15.41421
20
69.2167546
11
15.1760053
21
69.4142863
0
LINE
8
0
10
15.1760053
20
69.4142863
11
15
21
69.5602389
0
LINE
8
0
10
15
20
69.5602389
11
14.7508518
21
69.6717649
0
LINE
8
0
10
14.7508518
20
69.6717649
11
14.51764
21
69.7761601
0
LINE
8
0
10
14.51764
20
69.7761601
11
14.2657591
21
69.8119971
0
LINE
8
0
10
14.2657591
20
69.8119971
11
14
21
69.8498063
0
LINE
8
0
10
14
20
69.8498063
11
9.40008116
21
69.8498063
0
LINE
8
0
10
9.40008116
20
69.8498063
11
4.4
21
69.8498063
0
LINE
8
0
10
4.4
20
69.8498063
11
4.14715857
21
69.8138326
0
LINE
8
0
10
4.14715857
20
69.8138326
11
3.882362
21
69.7761601
0
LINE
8
0
10
3.882362
20
69.7761601
11
3.62896095
21
69.6627308
0
LINE
8
0
10
3.62896095
20
69.6627308
11
3.4
21
69.5602389
0
LINE
8
0
10
3.4
20
69.5602389
11
3.15144015
21
69.3541223
0
LINE
8
0
10
3.15144015
20
69.3541223
11
2.985786
21
69.2167546
0
LINE
8
0
10
2.985786
20
69.2167546
11
2.75880873
21
68.8970791
0
LINE
8
0
10
2.75880873
20
68.8970791
11
2.667949
21
68.7691141
0
LINE
8
0
10
2.667949
20
68.7691141
11
2.49490971
21
68.3176534
0
LINE
8
0
10
2.49490971
20
68.3176534
11
2.468148
21
68.2478305
0
LINE
8
0
10
2.468148
20
68.2478305
11
2.4591223
21
68.1758232
0
LINE
8
0
10
2.4591223
20
68.1758232
11
2.4
21
67.6651049
0
LINE
8
0
10
2.4
20
67.6651049
11
2.4
21
67.0989232
0
LINE
8
0
10
2.4
20
67.0989232
11
2.4
21
67.0353547
0
LINE
8
0
10
2.4
20
67.0353547
11
2.4
21
65.0423279
0
LINE
8
0
10
2.4
20
65.0423279
11
2.4
21
63.6740625
0
LINE
8
0
10
2.4
20
63.6740625
11
2.4
21
63.369825
0
LINE
8
0
10
2.4
20
63.369825
11
2.4
21
62.3232445
0
LINE
8
0
10
2.4
20
62.3232445
11
2.4
21
61.487232
0
LINE
8
0
10
2.4
20
61.487232
11
2.4
21
61.1156601
0
LINE
8
0
10
2.4
20
61.1156601
11
2.4
21
60.4181221
0
LINE
8
0
10
2.4
20
60.4181221
11
2.4
21
60.0090865
0
LINE
8
0
10
2.4
20
60.0090865
11
2.4
21
59.4006969
0
LINE
8
0
10
2.4
20
59.4006969
11
2.4
21
58.8437264
0
LINE
8
0
10
2.4
20
58.8437264
11
2.4
21
58.4183435
0
LINE
8
0
10
2.4
20
58.4183435
11
2.4
21
57.8885901
0
LINE
8
0
10
2.4
20
57.8885901
11
2.4
21
57.460367
0
LINE
8
0
10
2.4
20
57.460367
11
2.4
21
56.9284926
0
LINE
8
0
10
2.4
20
56.9284926
11
2.4
21
56.5182998
0
LINE
8
0
10
2.4
20
56.5182998
11
2.4
21
56.1774419
0
LINE
8
0
10
2.4
20
56.1774419
11
2.4
21
55.9324018
0
LINE
8
0
10
2.4
20
55.9324018
11
2.4
21
52.7101955
0
LINE
8
0
10
2.4
20
52.7101955
11
2.4
21
49.4409108
0
LINE
8
0
10
2.4
20
49.4409108
11
2.4
21
43.168843
0
LINE
8
0
10
2.4
20
43.168843
11
2.4
21
36.5917771
0
LINE
8
0
10
2.4
20
36.5917771
11
5.7464954
21
36.5917771
0
LINE
8
0
10
5.7464954
20
36.5917771
11
16
21
36.5917771
0
LINE
8
0
10
16
20
36.5917771
11
16
21
43.168843
0
LINE
8
0
10
16
20
43.168843
11
16
21
55.9868646
0
LINE
8
0
10
16
20
55.9868646
11
16
21
56.7569046
0
LINE
8
0
10
16
20
56.7569046
11
16
21
57.5908397
0
LINE
8
0
10
16
20
57.5908397
11
16
21
57.830322
0
LINE
8
0
10
16
20
57.830322
11
16
21
58.0760145
0
LINE
8
0
10
16
20
58.0760145
11
16
21
58.3423716
0
LINE
8
0
10
16
20
58.3423716
11
16
21
58.6493084
0
LINE
8
0
10
16
20
58.6493084
11
16
21
59.0290334
0
LINE
8
0
10
16
20
59.0290334
11
16
21
59.0290334
0
LINE
8
0
10
16
20
34.4607829
11
16
21
27.9315208
0
LINE
8
0
10
16
20
27.9315208
11
16
21
24.0684792
0
LINE
8
0
10
16
20
24.0684792
11
16
21
21.0033191
0
LINE
8
0
10
16
20
21.0033191
11
11.1864954
21
21.0033191
0
LINE
8
0
10
11.1864954
20
21.0033191
11
2.4
21
21.0033191
0
LINE
8
0
10
2.4
20
21.0033191
11
2.4
21
22.3656124
0
LINE
8
0
10
2.4
20
22.3656124
11
2.4
21
24.0684792
0
LINE
8
0
10
2.4
20
24.0684792
11
2.4
21
26.3863042
0
LINE
8
0
10
2.4
20
26.3863042
11
2.4
21
27.9315208
0
LINE
8
0
10
2.4
20
27.9315208
11
2.4
21
30.8993672
0
LINE
8
0
10
2.4
20
30.8993672
11
2.4
21
34.4607829
0
LINE
8
0
10
2.4
20
34.4607829
11
12.6535046
21
34.4607829
0
LINE
8
0
10
12.6535046
20
34.4607829
11
16
21
34.4607829
0
LINE
8
0
10
16
20
34.4607829
11
16
21
34.4607829
0
ENDSEC
0
EOF
