0
SECTION
2
ENTITIES
0
LINE
8
0
10
15.8207952
20
69.7857501
11
15.73205
21
70
0
LINE
8
0
10
15.73205
20
70
11
15.555385
21
70.2302303
0
LINE
8
0
10
15.555385
20
70.2302303
11
15.41421
21
70.41421
0
LINE
8
0
10
15.41421
20
70.41421
11
15.1839797
21
70.590875
0
LINE
8
0
10
15.1839797
20
70.590875
11
15
21
70.73205
0
LINE
8
0
10
15
20
70.73205
11
14.7318899
21
70.8431048
0
LINE
8
0
10
14.7318899
20
70.8431048
11
14.51764
21
70.93185
0
LINE
8
0
10
14.51764
20
70.93185
11
14.2299202
21
70.9697298
0
LINE
8
0
10
14.2299202
20
70.9697298
11
14
21
71
0
LINE
8
0
10
14
20
71
11
13.7941207
21
71
0
LINE
8
0
10
13.7941207
20
71
11
6.17056162
21
71
0
LINE
8
0
10
6.17056162
20
71
11
4.4
21
71
0
LINE
8
0
10
4.4
20
71
11
4.18685815
21
70.9719387
0
LINE
8
0
10
4.18685815
20
70.9719387
11
3.882362
21
70.93185
0
LINE
8
0
10
3.882362
20
70.93185
11
3.59861666
21
70.8143194
0
LINE
8
0
10
3.59861666
20
70.8143194
11
3.4
21
70.73205
0
LINE
8
0
10
3.4
20
70.73205
11
3.15634214
21
70.5450833
0
LINE
8
0
10
3.15634214
20
70.5450833
11
2.985786
21
70.41421
0
LINE
8
0
10
2.985786
20
70.41421
11
2.79882109
21
70.1705545
0
LINE
8
0
10
2.79882109
20
70.1705545
11
2.667949
21
70
0
LINE
8
0
10
2.667949
20
70
11
2.55041776
21
69.7162558
0
LINE
8
0
10
2.55041776
20
69.7162558
11
2.468148
21
69.51764
0
LINE
8
0
10
2.468148
20
69.51764
11
2.42806052
21
69.2131427
0
LINE
8
0
10
2.42806052
20
69.2131427
11
2.4
21
69
0
LINE
8
0
10
2.4
20
69
11
2.4
21
61.1788627
0
LINE
8
0
10
2.4
20
61.1788627
11
2.4
21
60.5137069
0
LINE
8
0
10
2.4
20
60.5137069
11
2.4
21
59.765173
0
LINE
8
0
10
2.4
20
59.765173
11
2.4
21
59.0017991
0
LINE
8
0
10
2.4
20
59.0017991
11
2.4
21
58.3714097
0
LINE
8
0
10
2.4
20
58.3714097
11
2.4
21
57.8171234
0
LINE
8
0
10
2.4
20
57.8171234
11
2.4
21
57.1332129
0
LINE
8
0
10
2.4
20
57.1332129
11
2.4
21
56.4062799
0
LINE
8
0
10
2.4
20
56.4062799
11
2.4
21
55.7224431
0
LINE
8
0
10
2.4
20
55.7224431
11
2.4
21
55.1475041
0
LINE
8
0
10
2.4
20
55.1475041
11
2.4
21
49.6549408
0
LINE
8
0
10
2.4
20
49.6549408
11
2.4
21
48.8381873
0
LINE
8
0
10
2.4
20
48.8381873
11
2.4
21
46.6601786
0
LINE
8
0
10
2.4
20
46.6601786
11
7.44918161
21
46.6601786
0
LINE
8
0
10
7.44918161
20
46.6601786
11
16
21
46.6601786
0
LINE
8
0
10
16
20
46.6601786
11
16
21
53.5265432
0
LINE
8
0
10
16
20
53.5265432
11
16
21
54.1246712
0
LINE
8
0
10
16
20
54.1246712
11
15.5057156
21
54.5866808
0
LINE
8
0
10
15.5057156
20
54.5866808
11
15.3136383
21
54.7772471
0
LINE
8
0
10
15.3136383
20
54.7772471
11
14.5274954
21
55.6458338
0
LINE
8
0
10
14.5274954
20
55.6458338
11
14.1665576
21
56.1131144
0
LINE
8
0
10
14.1665576
20
56.1131144
11
13.8788029
21
56.5244025
0
LINE
8
0
10
13.8788029
20
56.5244025
11
13.6002455
21
57.0947011
0
LINE
8
0
10
13.6002455
20
57.0947011
11
13.5060464
21
57.2975502
0
LINE
8
0
10
13.5060464
20
57.2975502
11
13.4719863
21
57.4568333
0
LINE
8
0
10
13.4719863
20
57.4568333
11
13.3797043
21
58.0118413
0
LINE
8
0
10
13.3797043
20
58.0118413
11
13.3855014
21
58.1370894
0
LINE
8
0
10
13.3855014
20
58.1370894
11
13.4789347
21
58.7014666
0
LINE
8
0
10
13.4789347
20
58.7014666
11
13.530462
21
58.8701228
0
LINE
8
0
10
13.530462
20
58.8701228
11
13.7872589
21
59.3976682
0
LINE
8
0
10
13.7872589
20
59.3976682
11
13.9533825
21
59.6995028
0
LINE
8
0
10
13.9533825
20
59.6995028
11
14.3554811
21
60.221327
0
LINE
8
0
10
14.3554811
20
60.221327
11
14.7200346
21
60.6894898
0
LINE
8
0
10
14.7200346
20
60.6894898
11
15.9132786
21
61.9234579
0
LINE
8
0
10
15.9132786
20
61.9234579
11
15.9417708
21
61.9517436
0
LINE
8
0
10
15.9417708
20
61.9517436
11
16
21
62.0036578
0
LINE
8
0
10
16
20
62.0036578
11
16
21
62.0513222
0
LINE
8
0
10
16
20
62.0513222
11
16
21
62.7934728
0
LINE
8
0
10
16
20
62.7934728
11
16
21
69
0
LINE
8
0
10
16
20
69
11
15.9697298
21
69.2299202
0
LINE
8
0
10
15.9697298
20
69.2299202
11
15.93185
21
69.51764
0
LINE
8
0
10
15.93185
20
69.51764
11
15.8207952
21
69.7857501
0
LINE
8
0
10
15.8207952
20
69.7857501
11
15.8207952
21
69.7857501
0
LINE
8
0
10
16
20
6.27718663
11
16
21
10.7828367
0
LINE
8
0
10
16
20
10.7828367
11
16
21
12.2680268
0
LINE
8
0
10
16
20
12.2680268
11
16
21
18.9473629
0
LINE
8
0
10
16
20
18.9473629
11
5.51081839
21
18.9473629
0
LINE
8
0
10
5.51081839
20
18.9473629
11
2.4
21
18.9473629
0
LINE
8
0
10
2.4
20
18.9473629
11
2.4
21
15.3040922
0
LINE
8
0
10
2.4
20
15.3040922
11
2.4
21
12.2680268
0
LINE
8
0
10
2.4
20
12.2680268
11
2.4
21
10.7828367
0
LINE
8
0
10
2.4
20
10.7828367
11
2.4
21
10.0402436
0
LINE
8
0
10
2.4
20
10.0402436
11
2.4
21
6.70007718
0
LINE
8
0
10
2.4
20
6.70007718
11
2.4
21
3.50039088
0
LINE
8
0
10
2.4
20
3.50039088
11
2.4
21
0.887873976
0
LINE
8
0
10
2.4
20
0.887873976
11
2.4
21
0.0303393208
0
LINE
8
0
10
2.4
20
0.0303393208
11
2.4
21
-0.817357542
0
LINE
8
0
10
2.4
20
-0.817357542
11
2.4
21
-1.22094558
0
LINE
8
0
10
2.4
20
-1.22094558
11
2.4
21
-1.8771598
0
LINE
8
0
10
2.4
20
-1.8771598
11
2.4
21
-2.48233304
0
LINE
8
0
10
2.4
20
-2.48233304
11
2.4
21
-2.98198405
0
LINE
8
0
10
2.4
20
-2.98198405
11
2.4
21
-3.43889267
0
LINE
8
0
10
2.4
20
-3.43889267
11
2.4
21
-4.07349083
0
LINE
8
0
10
2.4
20
-4.07349083
11
2.4
21
-4.09211864
0
LINE
8
0
10
2.4
20
-4.09211864
11
2.4
21
-13.9642705
0
LINE
8
0
10
2.4
20
-13.9642705
11
2.4
21
-14
0
LINE
8
0
10
2.4
20
-14
11
2.43675174
21
-14.2791597
0
LINE
8
0
10
2.43675174
20
-14.2791597
11
2.468148
21
-14.51764
0
LINE
8
0
10
2.468148
20
-14.51764
11
2.56019771
21
-14.7398666
0
LINE
8
0
10
2.56019771
20
-14.7398666
11
2.667949
21
-15
0
LINE
8
0
10
2.667949
20
-15
11
2.81437872
21
-15.1908294
0
LINE
8
0
10
2.81437872
20
-15.1908294
11
2.985786
21
-15.41421
0
LINE
8
0
10
2.985786
20
-15.41421
11
3.17661727
21
-15.5606411
0
LINE
8
0
10
3.17661727
20
-15.5606411
11
3.40043737
21
-15.7323035
0
LINE
8
0
10
3.40043737
20
-15.7323035
11
3.6226649
21
-15.8243527
0
LINE
8
0
10
3.6226649
20
-15.8243527
11
3.882362
21
-15.93185
0
LINE
8
0
10
3.882362
20
-15.93185
11
4.12084143
21
-15.9632472
0
LINE
8
0
10
4.12084143
20
-15.9632472
11
4.26042078
21
-15.9816236
0
LINE
8
0
10
4.26042078
20
-15.9816236
11
4.33650008
21
-15.9946244
0
LINE
8
0
10
4.33650008
20
-15.9946244
11
4.4
21
-16
0
LINE
8
0
10
4.4
20
-16
11
6.88481975
21
-16
0
LINE
8
0
10
6.88481975
20
-16
11
14
21
-16
0
LINE
8
0
10
14
20
-16
11
14.2679672
21
-15.9647207
0
LINE
8
0
10
14.2679672
20
-15.9647207
11
14.51764
21
-15.93185
0
LINE
8
0
10
14.51764
20
-15.93185
11
14.7502962
21
-15.8354807
0
LINE
8
0
10
14.7502962
20
-15.8354807
11
15.000409
21
-15.7318119
0
LINE
8
0
10
15.000409
20
-15.7318119
11
15.2001945
21
-15.5785084
0
LINE
8
0
10
15.2001945
20
-15.5785084
11
15.41421
21
-15.41421
0
LINE
8
0
10
15.41421
20
-15.41421
11
15.5675134
21
-15.2144245
0
LINE
8
0
10
15.5675134
20
-15.2144245
11
15.73205
21
-15
0
LINE
8
0
10
15.73205
20
-15
11
15.8284193
21
-14.7673438
0
LINE
8
0
10
15.8284193
20
-14.7673438
11
15.93185
21
-14.51764
0
LINE
8
0
10
15.93185
20
-14.51764
11
15.9647207
21
-14.2679672
0
LINE
8
0
10
15.9647207
20
-14.2679672
11
15.9958839
21
-14.0679676
0
LINE
8
0
10
15.9958839
20
-14.0679676
11
16
21
-14
0
LINE
8
0
10
16
20
-14
11
16
21
-6.99850953
0
LINE
8
0
10
16
20
-6.99850953
11
16
21
-6.65927357
0
LINE
8
0
10
16
20
-6.65927357
11
15.3751373
21
-5.72047331
0
LINE
8
0
10
15.3751373
20
-5.72047331
11
15.1729485
21
-5.39271047
0
LINE
8
0
10
15.1729485
20
-5.39271047
11
14.6865692
21
-4.54790929
0
LINE
8
0
10
14.6865692
20
-4.54790929
11
14.4191073
21
-3.98692205
0
LINE
8
0
10
14.4191073
20
-3.98692205
11
14.2376624
21
-3.59546541
0
LINE
8
0
10
14.2376624
20
-3.59546541
11
14.1518504
21
-3.34154629
0
LINE
8
0
10
14.1518504
20
-3.34154629
11
13.9828557
21
-2.78055477
0
LINE
8
0
10
13.9828557
20
-2.78055477
11
13.9544554
21
-2.63879346
0
LINE
8
0
10
13.9544554
20
-2.63879346
11
13.8923027
21
-2.05382293
0
LINE
8
0
10
13.8923027
20
-2.05382293
11
13.8866626
21
-1.9505958
0
LINE
8
0
10
13.8866626
20
-1.9505958
11
13.8963947
21
-1.84506377
0
LINE
8
0
10
13.8963947
20
-1.84506377
11
13.9532655
21
-1.25349656
0
LINE
8
0
10
13.9532655
20
-1.25349656
11
13.9880954
21
-1.10643445
0
LINE
8
0
10
13.9880954
20
-1.10643445
11
14.1575304
21
-0.523535625
0
LINE
8
0
10
14.1575304
20
-0.523535625
11
14.25943
21
-0.250347091
0
LINE
8
0
10
14.25943
20
-0.250347091
11
14.5027997
21
0.270147581
0
LINE
8
0
10
14.5027997
20
0.270147581
11
14.7591257
21
0.788911729
0
LINE
8
0
10
14.7591257
20
0.788911729
11
15.3231589
21
1.82073542
0
LINE
8
0
10
15.3231589
20
1.82073542
11
16
21
3.05892528
0
LINE
8
0
10
16
20
3.05892528
11
16
21
6.27718663
0
LINE
8
0
10
16
20
6.27718663
11
16
21
6.27718663
0
LINE
8
0
10
16
20
20.9282794
11
16
21
27.6076167
0
LINE
8
0
10
16
20
27.6076167
11
16
21
27.8564833
0
LINE
8
0
10
16
20
27.8564833
11
16
21
29.1008167
0
LINE
8
0
10
16
20
29.1008167
11
16
21
36.5167383
0
LINE
8
0
10
16
20
36.5167383
11
16
21
37.9999217
0
LINE
8
0
10
16
20
37.9999217
11
16
21
43.4449414
0
LINE
8
0
10
16
20
43.4449414
11
10.9508184
21
43.4449414
0
LINE
8
0
10
10.9508184
20
43.4449414
11
2.4
21
43.4449414
0
LINE
8
0
10
2.4
20
43.4449414
11
2.4
21
41.0249327
0
LINE
8
0
10
2.4
20
41.0249327
11
2.4
21
37.9999217
0
LINE
8
0
10
2.4
20
37.9999217
11
2.4
21
37.1100117
0
LINE
8
0
10
2.4
20
37.1100117
11
2.4
21
36.5167383
0
LINE
8
0
10
2.4
20
36.5167383
11
2.4
21
32.4671375
0
LINE
8
0
10
2.4
20
32.4671375
11
2.4
21
27.8564833
0
LINE
8
0
10
2.4
20
27.8564833
11
2.4
21
27.7569367
0
LINE
8
0
10
2.4
20
27.7569367
11
2.4
21
27.6076167
0
LINE
8
0
10
2.4
20
27.6076167
11
2.4
21
23.8968738
0
LINE
8
0
10
2.4
20
23.8968738
11
2.4
21
20.9282794
0
LINE
8
0
10
2.4
20
20.9282794
11
12.8891816
21
20.9282794
0
LINE
8
0
10
12.8891816
20
20.9282794
11
16
21
20.9282794
0
LINE
8
0
10
16
20
20.9282794
11
16
21
20.9282794
0
ENDSEC
0
EOF
