0
SECTION
2
ENTITIES
0
LINE
8
0
10
16
20
19.7429216
11
16
21
11.4724657
0
LINE
8
0
10
16
20
11.4724657
11
16
21
10.6237247
0
LINE
8
0
10
16
20
10.6237247
11
16
21
8.04888294
0
LINE
8
0
10
16
20
8.04888294
11
16
21
3.5279642
0
LINE
8
0
10
16
20
3.5279642
11
15.0491936
21
1.78859154
0
LINE
8
0
10
15.0491936
20
1.78859154
11
14.2568563
21
0.339116017
0
LINE
8
0
10
14.2568563
20
0.339116017
11
14.1172541
21
0.0565828008
0
LINE
8
0
10
14.1172541
20
0.0565828008
11
13.8112141
21
-0.597944964
0
LINE
8
0
10
13.8112141
20
-0.597944964
11
13.7850211
21
-0.668167373
0
LINE
8
0
10
13.7850211
20
-0.668167373
11
13.65614
21
-1.11155053
0
LINE
8
0
10
13.65614
20
-1.11155053
11
9.7493888
21
-1.11155053
0
LINE
8
0
10
9.7493888
20
-1.11155053
11
2.4
21
-1.11155053
0
LINE
8
0
10
2.4
20
-1.11155053
11
2.4
21
-0.525795244
0
LINE
8
0
10
2.4
20
-0.525795244
11
2.4
21
0.393013578
0
LINE
8
0
10
2.4
20
0.393013578
11
2.4
21
3.19220491
0
LINE
8
0
10
2.4
20
3.19220491
11
2.4
21
6.62052118
0
LINE
8
0
10
2.4
20
6.62052118
11
2.4
21
10.1993554
0
LINE
8
0
10
2.4
20
10.1993554
11
2.4
21
10.6237247
0
LINE
8
0
10
2.4
20
10.6237247
11
2.4
21
11.4724657
0
LINE
8
0
10
2.4
20
11.4724657
11
2.4
21
15.2317682
0
LINE
8
0
10
2.4
20
15.2317682
11
2.4
21
19.7429216
0
LINE
8
0
10
2.4
20
19.7429216
11
3.01213516
21
19.7429216
0
LINE
8
0
10
3.01213516
20
19.7429216
11
16
21
19.7429216
0
LINE
8
0
10
16
20
19.7429216
11
16
21
19.7429216
0
LINE
8
0
10
16
20
69
11
16
21
63.668519
0
LINE
8
0
10
16
20
63.668519
11
16
21
63.0310028
0
LINE
8
0
10
16
20
63.0310028
11
16
21
62.2676063
0
LINE
8
0
10
16
20
62.2676063
11
15.067398
21
61.4361464
0
LINE
8
0
10
15.067398
20
61.4361464
11
14.611065
21
60.9831208
0
LINE
8
0
10
14.611065
20
60.9831208
11
13.9511921
21
60.3007271
0
LINE
8
0
10
13.9511921
20
60.3007271
11
13.3676606
21
59.5513509
0
LINE
8
0
10
13.3676606
20
59.5513509
11
13.2585954
21
59.4098114
0
LINE
8
0
10
13.2585954
20
59.4098114
11
13.2135361
21
59.3279418
0
LINE
8
0
10
13.2135361
20
59.3279418
11
13
21
58.8892684
0
LINE
8
0
10
13
20
58.8892684
11
9.65574116
21
58.8892684
0
LINE
8
0
10
9.65574116
20
58.8892684
11
2.4
21
58.8892684
0
LINE
8
0
10
2.4
20
58.8892684
11
2.4
21
59.4276237
0
LINE
8
0
10
2.4
20
59.4276237
11
2.4
21
60.2035178
0
LINE
8
0
10
2.4
20
60.2035178
11
2.4
21
60.8929863
0
LINE
8
0
10
2.4
20
60.8929863
11
2.4
21
69
0
LINE
8
0
10
2.4
20
69
11
2.42410432
21
69.1830921
0
LINE
8
0
10
2.42410432
20
69.1830921
11
2.468148
21
69.51764
0
LINE
8
0
10
2.468148
20
69.51764
11
2.53881871
21
69.6882534
0
LINE
8
0
10
2.53881871
20
69.6882534
11
2.667949
21
70
0
LINE
8
0
10
2.667949
20
70
11
2.78036969
21
70.1465083
0
LINE
8
0
10
2.78036969
20
70.1465083
11
2.985786
21
70.41421
0
LINE
8
0
10
2.985786
20
70.41421
11
3.13229576
21
70.5266318
0
LINE
8
0
10
3.13229576
20
70.5266318
11
3.4
21
70.73205
0
LINE
8
0
10
3.4
20
70.73205
11
3.57061408
21
70.8027204
0
LINE
8
0
10
3.57061408
20
70.8027204
11
3.882362
21
70.93185
0
LINE
8
0
10
3.882362
20
70.93185
11
4.2169086
21
70.975895
0
LINE
8
0
10
4.2169086
20
70.975895
11
4.4
21
71
0
LINE
8
0
10
4.4
20
71
11
5.92093357
21
71
0
LINE
8
0
10
5.92093357
20
71
11
13.8231473
21
71
0
LINE
8
0
10
13.8231473
20
71
11
14
21
71
0
LINE
8
0
10
14
20
71
11
14.1975042
21
70.9739975
0
LINE
8
0
10
14.1975042
20
70.9739975
11
14.51764
21
70.93185
0
LINE
8
0
10
14.51764
20
70.93185
11
14.7016832
21
70.8556168
0
LINE
8
0
10
14.7016832
20
70.8556168
11
15
21
70.73205
0
LINE
8
0
10
15
20
70.73205
11
15.1580408
21
70.6107789
0
LINE
8
0
10
15.1580408
20
70.6107789
11
15.41421
21
70.41421
0
LINE
8
0
10
15.41421
20
70.41421
11
15.5354811
21
70.2561692
0
LINE
8
0
10
15.5354811
20
70.2561692
11
15.73205
21
70
0
LINE
8
0
10
15.73205
20
70
11
15.8082832
21
69.8159568
0
LINE
8
0
10
15.8082832
20
69.8159568
11
15.93185
21
69.51764
0
LINE
8
0
10
15.93185
20
69.51764
11
15.9739975
21
69.1975042
0
LINE
8
0
10
15.9739975
20
69.1975042
11
16
21
69
0
LINE
8
0
10
16
20
69
11
16
21
69
0
LINE
8
0
10
16
20
-14
11
16
21
-7.04153051
0
LINE
8
0
10
16
20
-7.04153051
11
16
21
-6.91330843
0
LINE
8
0
10
16
20
-6.91330843
11
15.807708
21
-6.64945803
0
LINE
8
0
10
15.807708
20
-6.64945803
11
15.7146808
21
-6.52048279
0
LINE
8
0
10
15.7146808
20
-6.52048279
11
14.8657021
21
-5.24496818
0
LINE
8
0
10
14.8657021
20
-5.24496818
11
14.4986736
21
-4.64998831
0
LINE
8
0
10
14.4986736
20
-4.64998831
11
14.2285071
21
-4.18073104
0
LINE
8
0
10
14.2285071
20
-4.18073104
11
13.8677672
21
-3.42409817
0
LINE
8
0
10
13.8677672
20
-3.42409817
11
13.8174391
21
-3.31551832
0
LINE
8
0
10
13.8174391
20
-3.31551832
11
13.7936371
21
-3.24508778
0
LINE
8
0
10
13.7936371
20
-3.24508778
11
13.65614
21
-2.78865507
0
LINE
8
0
10
13.65614
20
-2.78865507
11
5.77452431
21
-2.78865507
0
LINE
8
0
10
5.77452431
20
-2.78865507
11
2.4
21
-2.78865507
0
LINE
8
0
10
2.4
20
-2.78865507
11
2.4
21
-3.1453546
0
LINE
8
0
10
2.4
20
-3.1453546
11
2.4
21
-3.27208913
0
LINE
8
0
10
2.4
20
-3.27208913
11
2.4
21
-3.91720831
0
LINE
8
0
10
2.4
20
-3.91720831
11
2.4
21
-3.9275554
0
LINE
8
0
10
2.4
20
-3.9275554
11
2.4
21
-13.9636771
0
LINE
8
0
10
2.4
20
-13.9636771
11
2.4
21
-14
0
LINE
8
0
10
2.4
20
-14
11
2.43396649
21
-14.2580033
0
LINE
8
0
10
2.43396649
20
-14.2580033
11
2.468148
21
-14.51764
0
LINE
8
0
10
2.468148
20
-14.51764
11
2.56836372
21
-14.759581
0
LINE
8
0
10
2.56836372
20
-14.759581
11
2.667949
21
-15
0
LINE
8
0
10
2.667949
20
-15
11
2.82736894
21
-15.2077585
0
LINE
8
0
10
2.82736894
20
-15.2077585
11
2.985786
21
-15.41421
0
LINE
8
0
10
2.985786
20
-15.41421
11
3.19354649
21
-15.5736314
0
LINE
8
0
10
3.19354649
20
-15.5736314
11
3.40040422
21
-15.7322843
0
LINE
8
0
10
3.40040422
20
-15.7322843
11
3.64234622
21
-15.8324995
0
LINE
8
0
10
3.64234622
20
-15.8324995
11
3.882362
21
-15.93185
0
LINE
8
0
10
3.882362
20
-15.93185
11
4.14199765
21
-15.9660325
0
LINE
8
0
10
4.14199765
20
-15.9660325
11
4.27099888
21
-15.9830163
0
LINE
8
0
10
4.27099888
20
-15.9830163
11
4.34131247
21
-15.9950318
0
LINE
8
0
10
4.34131247
20
-15.9950318
11
4.4
21
-16
0
LINE
8
0
10
4.4
20
-16
11
6.69650595
21
-16
0
LINE
8
0
10
6.69650595
20
-16
11
14
21
-16
0
LINE
8
0
10
14
20
-16
11
14.2476591
21
-15.9673944
0
LINE
8
0
10
14.2476591
20
-15.9673944
11
14.51764
21
-15.93185
0
LINE
8
0
10
14.51764
20
-15.93185
11
14.7692202
21
-15.8276421
0
LINE
8
0
10
14.7692202
20
-15.8276421
11
15.000378
21
-15.7318299
0
LINE
8
0
10
15.000378
20
-15.7318299
11
15.2164138
21
-15.566057
0
LINE
8
0
10
15.2164138
20
-15.566057
11
15.41421
21
-15.41421
0
LINE
8
0
10
15.41421
20
-15.41421
11
15.579983
21
-15.1981742
0
LINE
8
0
10
15.579983
20
-15.1981742
11
15.73205
21
-15
0
LINE
8
0
10
15.73205
20
-15
11
15.8362579
21
-14.7484198
0
LINE
8
0
10
15.8362579
20
-14.7484198
11
15.93185
21
-14.51764
0
LINE
8
0
10
15.93185
20
-14.51764
11
15.9673944
21
-14.2476591
0
LINE
8
0
10
15.9673944
20
-14.2476591
11
15.9961958
21
-14.0628166
0
LINE
8
0
10
15.9961958
20
-14.0628166
11
16
21
-14
0
LINE
8
0
10
16
20
-14
11
16
21
-14
0
LINE
8
0
10
16
20
20.1327189
11
16
21
21.691909
0
LINE
8
0
10
16
20
21.691909
11
16
21
27.0609229
0
LINE
8
0
10
16
20
27.0609229
11
13.8921352
21
27.0609229
0
LINE
8
0
10
13.8921352
20
27.0609229
11
2.4
21
27.0609229
0
LINE
8
0
10
2.4
20
27.0609229
11
2.4
21
23.8084778
0
LINE
8
0
10
2.4
20
23.8084778
11
2.4
21
20.1327189
0
LINE
8
0
10
2.4
20
20.1327189
11
15.3878648
21
20.1327189
0
LINE
8
0
10
15.3878648
20
20.1327189
11
16
21
20.1327189
0
LINE
8
0
10
16
20
20.1327189
11
16
21
20.1327189
0
LINE
8
0
10
16
20
47.4557391
11
16
21
52.3156443
0
LINE
8
0
10
16
20
52.3156443
11
16
21
53.8150047
0
LINE
8
0
10
16
20
53.8150047
11
14.76095
21
54.9731495
0
LINE
8
0
10
14.76095
20
54.9731495
11
14.2794594
21
55.4508526
0
LINE
8
0
10
14.2794594
20
55.4508526
11
13.8447165
21
55.9311876
0
LINE
8
0
10
13.8447165
20
55.9311876
11
13.316417
21
56.6151394
0
LINE
8
0
10
13.316417
20
56.6151394
11
13.2383665
21
56.7266972
0
LINE
8
0
10
13.2383665
20
56.7266972
11
13
21
57.2147116
0
LINE
8
0
10
13
20
57.2147116
11
5.74425884
21
57.2147116
0
LINE
8
0
10
5.74425884
20
57.2147116
11
2.4
21
57.2147116
0
LINE
8
0
10
2.4
20
57.2147116
11
2.4
21
56.6946576
0
LINE
8
0
10
2.4
20
56.6946576
11
2.4
21
55.9735531
0
LINE
8
0
10
2.4
20
55.9735531
11
2.4
21
55.3672812
0
LINE
8
0
10
2.4
20
55.3672812
11
2.4
21
49.5753849
0
LINE
8
0
10
2.4
20
49.5753849
11
2.4
21
48.9972995
0
LINE
8
0
10
2.4
20
48.9972995
11
2.4
21
47.4557391
0
LINE
8
0
10
2.4
20
47.4557391
11
9.94786484
21
47.4557391
0
LINE
8
0
10
9.94786484
20
47.4557391
11
16
21
47.4557391
0
LINE
8
0
10
16
20
47.4557391
11
16
21
47.4557391
0
LINE
8
0
10
16
20
38.7954813
11
16
21
35.7211787
0
LINE
8
0
10
16
20
35.7211787
11
16
21
28.4031771
0
LINE
8
0
10
16
20
28.4031771
11
4.50786484
21
28.4031771
0
LINE
8
0
10
4.50786484
20
28.4031771
11
2.4
21
28.4031771
0
LINE
8
0
10
2.4
20
28.4031771
11
2.4
21
32.3948143
0
LINE
8
0
10
2.4
20
32.3948143
11
2.4
21
35.7211787
0
LINE
8
0
10
2.4
20
35.7211787
11
2.4
21
36.9508997
0
LINE
8
0
10
2.4
20
36.9508997
11
2.4
21
38.7954813
0
LINE
8
0
10
2.4
20
38.7954813
11
2.4
21
40.9365366
0
LINE
8
0
10
2.4
20
40.9365366
11
2.4
21
42.6493809
0
LINE
8
0
10
2.4
20
42.6493809
11
8.45213516
21
42.6493809
0
LINE
8
0
10
8.45213516
20
42.6493809
11
16
21
42.6493809
0
LINE
8
0
10
16
20
42.6493809
11
16
21
38.7954813
0
LINE
8
0
10
16
20
38.7954813
11
16
21
38.7954813
0
ENDSEC
0
EOF
