0
SECTION
2
ENTITIES
0
LINE
8
0
10
16
20
11.0746851
11
16
21
17.7061262
0
LINE
8
0
10
16
20
17.7061262
11
16
21
19.7349389
0
LINE
8
0
10
16
20
19.7349389
11
16
21
20.1407011
0
LINE
8
0
10
16
20
20.1407011
11
16
21
26.6631426
0
LINE
8
0
10
16
20
26.6631426
11
12.6427935
21
26.6631426
0
LINE
8
0
10
12.6427935
20
26.6631426
11
2.4
21
26.6631426
0
LINE
8
0
10
2.4
20
26.6631426
11
2.4
21
23.7642797
0
LINE
8
0
10
2.4
20
23.7642797
11
2.4
21
20.1407011
0
LINE
8
0
10
2.4
20
20.1407011
11
2.4
21
19.8972438
0
LINE
8
0
10
2.4
20
19.8972438
11
2.4
21
19.7349389
0
LINE
8
0
10
2.4
20
19.7349389
11
2.4
21
15.1956062
0
LINE
8
0
10
2.4
20
15.1956062
11
2.4
21
11.0746851
0
LINE
8
0
10
2.4
20
11.0746851
11
2.4
21
10.5441688
0
LINE
8
0
10
2.4
20
10.5441688
11
2.4
21
10.2789113
0
LINE
8
0
10
2.4
20
10.2789113
11
2.4
21
6.58074317
0
LINE
8
0
10
2.4
20
6.58074317
11
2.4
21
3.03811193
0
LINE
8
0
10
2.4
20
3.03811193
11
2.4
21
0.145583379
0
LINE
8
0
10
2.4
20
0.145583379
11
2.4
21
-0.624101313
0
LINE
8
0
10
2.4
20
-0.624101313
11
11.6165959
21
-0.624101313
0
LINE
8
0
10
11.6165959
20
-0.624101313
11
13.65614
21
-0.624101313
0
LINE
8
0
10
13.65614
20
-0.624101313
11
13.9244814
21
-0.0501995891
0
LINE
8
0
10
13.9244814
20
-0.0501995891
11
14.0057217
21
0.114218162
0
LINE
8
0
10
14.0057217
20
0.114218162
11
14.9122109
21
1.7725196
0
LINE
8
0
10
14.9122109
20
1.7725196
11
16
21
3.76248365
0
LINE
8
0
10
16
20
3.76248365
11
16
21
8.9347311
0
LINE
8
0
10
16
20
8.9347311
11
16
21
10.5441688
0
LINE
8
0
10
16
20
10.5441688
11
16
21
11.0746851
0
LINE
8
0
10
16
20
11.0746851
11
16
21
11.0746851
0
LINE
8
0
10
16
20
53.0332233
11
16
21
51.7101949
0
LINE
8
0
10
16
20
51.7101949
11
16
21
47.8535194
0
LINE
8
0
10
16
20
47.8535194
11
11.1972065
21
47.8535194
0
LINE
8
0
10
11.1972065
20
47.8535194
11
2.4
21
47.8535194
0
LINE
8
0
10
2.4
20
47.8535194
11
2.4
21
49.0768556
0
LINE
8
0
10
2.4
20
49.0768556
11
2.4
21
49.5356069
0
LINE
8
0
10
2.4
20
49.5356069
11
2.4
21
55.4771698
0
LINE
8
0
10
2.4
20
55.4771698
11
2.4
21
56.0991082
0
LINE
8
0
10
2.4
20
56.0991082
11
2.4
21
56.7254863
0
LINE
8
0
10
2.4
20
56.7254863
11
3.96621578
21
56.7254863
0
LINE
8
0
10
3.96621578
20
56.7254863
11
13
21
56.7254863
0
LINE
8
0
10
13
20
56.7254863
11
13.503327
21
56.0738645
0
LINE
8
0
10
13.503327
20
56.0738645
11
13.76237
21
55.7876554
0
LINE
8
0
10
13.76237
20
55.7876554
11
14.3885673
21
55.1663839
0
LINE
8
0
10
14.3885673
20
55.1663839
11
15.4761688
21
54.1497986
0
LINE
8
0
10
15.4761688
20
54.1497986
11
15.6687002
21
53.9871493
0
LINE
8
0
10
15.6687002
20
53.9871493
11
16
21
53.7077345
0
LINE
8
0
10
16
20
53.7077345
11
16
21
53.0332233
0
LINE
8
0
10
16
20
53.0332233
11
16
21
53.0332233
0
LINE
8
0
10
16
20
69
11
16
21
64.1060422
0
LINE
8
0
10
16
20
64.1060422
11
16
21
63.5208431
0
LINE
8
0
10
16
20
63.5208431
11
16
21
62.3995805
0
LINE
8
0
10
16
20
62.3995805
11
14.6302116
21
61.1783477
0
LINE
8
0
10
14.6302116
20
61.1783477
11
13.9599582
21
60.5129522
0
LINE
8
0
10
13.9599582
20
60.5129522
11
13.5667708
21
60.1063458
0
LINE
8
0
10
13.5667708
20
60.1063458
11
13
21
59.3784937
0
LINE
8
0
10
13
20
59.3784937
11
11.4337842
21
59.3784937
0
LINE
8
0
10
11.4337842
20
59.3784937
11
2.4
21
59.3784937
0
LINE
8
0
10
2.4
20
59.3784937
11
2.4
21
60.0484233
0
LINE
8
0
10
2.4
20
60.0484233
11
2.4
21
60.7500481
0
LINE
8
0
10
2.4
20
60.7500481
11
2.4
21
69
0
LINE
8
0
10
2.4
20
69
11
2.42212622
21
69.1680668
0
LINE
8
0
10
2.42212622
20
69.1680668
11
2.468148
21
69.51764
0
LINE
8
0
10
2.468148
20
69.51764
11
2.53301918
21
69.6742521
0
LINE
8
0
10
2.53301918
20
69.6742521
11
2.667949
21
70
0
LINE
8
0
10
2.667949
20
70
11
2.77114399
21
70.1344853
0
LINE
8
0
10
2.77114399
20
70.1344853
11
2.985786
21
70.41421
0
LINE
8
0
10
2.985786
20
70.41421
11
3.12027257
21
70.517406
0
LINE
8
0
10
3.12027257
20
70.517406
11
3.4
21
70.73205
0
LINE
8
0
10
3.4
20
70.73205
11
3.55661279
21
70.7969209
0
LINE
8
0
10
3.55661279
20
70.7969209
11
3.882362
21
70.93185
0
LINE
8
0
10
3.882362
20
70.93185
11
4.23193383
21
70.9778731
0
LINE
8
0
10
4.23193383
20
70.9778731
11
4.4
21
71
0
LINE
8
0
10
4.4
20
71
11
5.79611955
21
71
0
LINE
8
0
10
5.79611955
20
71
11
13.8376605
21
71
0
LINE
8
0
10
13.8376605
20
71
11
14
21
71
0
LINE
8
0
10
14
20
71
11
14.1812962
21
70.9761314
0
LINE
8
0
10
14.1812962
20
70.9761314
11
14.51764
21
70.93185
0
LINE
8
0
10
14.51764
20
70.93185
11
14.6865799
21
70.8618728
0
LINE
8
0
10
14.6865799
20
70.8618728
11
15
21
70.73205
0
LINE
8
0
10
15
20
70.73205
11
15.1450713
21
70.6207309
0
LINE
8
0
10
15.1450713
20
70.6207309
11
15.41421
21
70.41421
0
LINE
8
0
10
15.41421
20
70.41421
11
15.5255291
21
70.2691387
0
LINE
8
0
10
15.5255291
20
70.2691387
11
15.73205
21
70
0
LINE
8
0
10
15.73205
20
70
11
15.8020272
21
69.8310601
0
LINE
8
0
10
15.8020272
20
69.8310601
11
15.93185
21
69.51764
0
LINE
8
0
10
15.93185
20
69.51764
11
15.9761314
21
69.1812962
0
LINE
8
0
10
15.9761314
20
69.1812962
11
16
21
69
0
LINE
8
0
10
16
20
69
11
16
21
69
0
LINE
8
0
10
16
20
-7.00379125
11
16
21
-7.32682823
0
LINE
8
0
10
16
20
-7.32682823
11
16
21
-14
0
LINE
8
0
10
16
20
-14
11
15.9963518
21
-14.0602412
0
LINE
8
0
10
15.9963518
20
-14.0602412
11
15.9687312
21
-14.2375051
0
LINE
8
0
10
15.9687312
20
-14.2375051
11
15.93185
21
-14.51764
0
LINE
8
0
10
15.93185
20
-14.51764
11
15.8401772
21
-14.7389578
0
LINE
8
0
10
15.8401772
20
-14.7389578
11
15.73205
21
-15
0
LINE
8
0
10
15.73205
20
-15
11
15.5862177
21
-15.190049
0
LINE
8
0
10
15.5862177
20
-15.190049
11
15.41421
21
-15.41421
0
LINE
8
0
10
15.41421
20
-15.41421
11
15.2245234
21
-15.5598312
0
LINE
8
0
10
15.2245234
20
-15.5598312
11
15.0003625
21
-15.7318389
0
LINE
8
0
10
15.0003625
20
-15.7318389
11
14.7786822
21
-15.8237228
0
LINE
8
0
10
14.7786822
20
-15.8237228
11
14.51764
21
-15.93185
0
LINE
8
0
10
14.51764
20
-15.93185
11
14.2375051
21
-15.9687312
0
LINE
8
0
10
14.2375051
20
-15.9687312
11
14
21
-16
0
LINE
8
0
10
14
20
-16
11
6.60234905
21
-16
0
LINE
8
0
10
6.60234905
20
-16
11
4.4
21
-16
0
LINE
8
0
10
4.4
20
-16
11
4.34371866
21
-15.9952355
0
LINE
8
0
10
4.34371866
20
-15.9952355
11
4.27628794
21
-15.9837126
0
LINE
8
0
10
4.27628794
20
-15.9837126
11
4.15257577
21
-15.9674252
0
LINE
8
0
10
4.15257577
20
-15.9674252
11
3.882362
21
-15.93185
0
LINE
8
0
10
3.882362
20
-15.93185
11
3.65218688
21
-15.8365729
0
LINE
8
0
10
3.65218688
20
-15.8365729
11
3.40038765
21
-15.7322747
0
LINE
8
0
10
3.40038765
20
-15.7322747
11
3.2020111
21
-15.5801266
0
LINE
8
0
10
3.2020111
20
-15.5801266
11
2.985786
21
-15.41421
0
LINE
8
0
10
2.985786
20
-15.41421
11
2.83386405
21
-15.216223
0
LINE
8
0
10
2.83386405
20
-15.216223
11
2.667949
21
-15
0
LINE
8
0
10
2.667949
20
-15
11
2.57244672
21
-14.7694382
0
LINE
8
0
10
2.57244672
20
-14.7694382
11
2.468148
21
-14.51764
0
LINE
8
0
10
2.468148
20
-14.51764
11
2.43257386
21
-14.2474252
0
LINE
8
0
10
2.43257386
20
-14.2474252
11
2.4
21
-14
0
LINE
8
0
10
2.4
20
-14
11
2.4
21
-13.9633804
0
LINE
8
0
10
2.4
20
-13.9633804
11
2.4
21
-3.84527379
0
LINE
8
0
10
2.4
20
-3.84527379
11
2.4
21
-3.83906705
0
LINE
8
0
10
2.4
20
-3.83906705
11
2.4
21
-3.27701269
0
LINE
8
0
10
2.4
20
-3.27701269
11
3.91033604
21
-3.27701269
0
LINE
8
0
10
3.91033604
20
-3.27701269
11
13.65614
21
-3.27701269
0
LINE
8
0
10
13.65614
20
-3.27701269
11
13.999476
21
-3.99714192
0
LINE
8
0
10
13.999476
20
-3.99714192
11
14.1615362
21
-4.27862724
0
LINE
8
0
10
14.1615362
20
-4.27862724
11
14.6109845
21
-5.00721562
0
LINE
8
0
10
14.6109845
20
-5.00721562
11
15.2811796
21
-6.01412389
0
LINE
8
0
10
15.2811796
20
-6.01412389
11
15.5155481
21
-6.33905835
0
LINE
8
0
10
15.5155481
20
-6.33905835
11
16
21
-7.00379125
0
LINE
8
0
10
16
20
-7.00379125
11
16
21
-7.00379125
0
LINE
8
0
10
16
20
35.3233989
11
16
21
28.8009574
0
LINE
8
0
10
16
20
28.8009574
11
5.75720646
21
28.8009574
0
LINE
8
0
10
5.75720646
20
28.8009574
11
2.4
21
28.8009574
0
LINE
8
0
10
2.4
20
28.8009574
11
2.4
21
32.3586527
0
LINE
8
0
10
2.4
20
32.3586527
11
2.4
21
35.3233989
0
LINE
8
0
10
2.4
20
35.3233989
11
2.4
21
36.8713438
0
LINE
8
0
10
2.4
20
36.8713438
11
2.4
21
39.1932611
0
LINE
8
0
10
2.4
20
39.1932611
11
2.4
21
40.8923386
0
LINE
8
0
10
2.4
20
40.8923386
11
2.4
21
42.2516006
0
LINE
8
0
10
2.4
20
42.2516006
11
7.20279354
21
42.2516006
0
LINE
8
0
10
7.20279354
20
42.2516006
11
16
21
42.2516006
0
LINE
8
0
10
16
20
42.2516006
11
16
21
39.1932611
0
LINE
8
0
10
16
20
39.1932611
11
16
21
35.3233989
0
LINE
8
0
10
16
20
35.3233989
11
16
21
35.3233989
0
ENDSEC
0
EOF
