0
SECTION
2
ENTITIES
0
LINE
8
0
10
16
20
-7.38815057
11
16
21
-8.18272138
0
LINE
8
0
10
16
20
-8.18272138
11
16
21
-14
0
LINE
8
0
10
16
20
-14
11
15.9968197
21
-14.0525147
0
LINE
8
0
10
15.9968197
20
-14.0525147
11
15.9727417
21
-14.207043
0
LINE
8
0
10
15.9727417
20
-14.207043
11
15.93185
21
-14.51764
0
LINE
8
0
10
15.93185
20
-14.51764
11
15.851935
21
-14.7105719
0
LINE
8
0
10
15.851935
20
-14.7105719
11
15.73205
21
-15
0
LINE
8
0
10
15.73205
20
-15
11
15.604922
21
-15.1656736
0
LINE
8
0
10
15.604922
20
-15.1656736
11
15.41421
21
-15.41421
0
LINE
8
0
10
15.41421
20
-15.41421
11
15.2488524
21
-15.541154
0
LINE
8
0
10
15.2488524
20
-15.541154
11
15.000316
21
-15.731866
0
LINE
8
0
10
15.000316
20
-15.731866
11
14.8070681
21
-15.811965
0
LINE
8
0
10
14.8070681
20
-15.811965
11
14.51764
21
-15.93185
0
LINE
8
0
10
14.51764
20
-15.93185
11
14.207043
21
-15.9727417
0
LINE
8
0
10
14.207043
20
-15.9727417
11
14
21
-16
0
LINE
8
0
10
14
20
-16
11
6.31987836
21
-16
0
LINE
8
0
10
6.31987836
20
-16
11
4.4
21
-16
0
LINE
8
0
10
4.4
20
-16
11
4.35093724
21
-15.9958466
0
LINE
8
0
10
4.35093724
20
-15.9958466
11
4.2921551
21
-15.9858016
0
LINE
8
0
10
4.2921551
20
-15.9858016
11
4.18431011
21
-15.9716032
0
LINE
8
0
10
4.18431011
20
-15.9716032
11
3.882362
21
-15.93185
0
LINE
8
0
10
3.882362
20
-15.93185
11
3.68170887
21
-15.848793
0
LINE
8
0
10
3.68170887
20
-15.848793
11
3.40033793
21
-15.7322458
0
LINE
8
0
10
3.40033793
20
-15.7322458
11
3.22740492
21
-15.5996121
0
LINE
8
0
10
3.22740492
20
-15.5996121
11
2.985786
21
-15.41421
0
LINE
8
0
10
2.985786
20
-15.41421
11
2.85334938
21
-15.2416166
0
LINE
8
0
10
2.85334938
20
-15.2416166
11
2.667949
21
-15
0
LINE
8
0
10
2.667949
20
-15
11
2.58469573
21
-14.7990098
0
LINE
8
0
10
2.58469573
20
-14.7990098
11
2.468148
21
-14.51764
0
LINE
8
0
10
2.468148
20
-14.51764
11
2.42839597
21
-14.2156907
0
LINE
8
0
10
2.42839597
20
-14.2156907
11
2.4
21
-14
0
LINE
8
0
10
2.4
20
-14
11
2.4
21
-13.9624902
0
LINE
8
0
10
2.4
20
-13.9624902
11
2.4
21
-4.42363507
0
LINE
8
0
10
2.4
20
-4.42363507
11
2.4
21
-3.9848329
0
LINE
8
0
10
2.4
20
-3.9848329
11
9.91016545
21
-3.9848329
0
LINE
8
0
10
9.91016545
20
-3.9848329
11
13.65614
21
-3.9848329
0
LINE
8
0
10
13.65614
20
-3.9848329
11
13.8468316
21
-4.29395793
0
LINE
8
0
10
13.8468316
20
-4.29395793
11
13.9806761
21
-4.4950472
0
LINE
8
0
10
13.9806761
20
-4.4950472
11
14.6390683
21
-5.40785932
0
LINE
8
0
10
14.6390683
20
-5.40785932
11
15.7057642
21
-6.87150887
0
LINE
8
0
10
15.7057642
20
-6.87150887
11
16
21
-7.25260162
0
LINE
8
0
10
16
20
-7.25260162
11
16
21
-7.38815057
0
LINE
8
0
10
16
20
-7.38815057
11
16
21
-7.38815057
0
LINE
8
0
10
16
20
40.3866006
11
16
21
34.1300594
0
LINE
8
0
10
16
20
34.1300594
11
16
21
29.9942982
0
LINE
8
0
10
16
20
29.9942982
11
9.5052313
21
29.9942982
0
LINE
8
0
10
9.5052313
20
29.9942982
11
2.4
21
29.9942982
0
LINE
8
0
10
2.4
20
29.9942982
11
2.4
21
32.250168
0
LINE
8
0
10
2.4
20
32.250168
11
2.4
21
34.1300594
0
LINE
8
0
10
2.4
20
34.1300594
11
2.4
21
36.6326759
0
LINE
8
0
10
2.4
20
36.6326759
11
2.4
21
40.3866006
0
LINE
8
0
10
2.4
20
40.3866006
11
2.4
21
40.7597446
0
LINE
8
0
10
2.4
20
40.7597446
11
2.4
21
41.0582598
0
LINE
8
0
10
2.4
20
41.0582598
11
3.4547687
21
41.0582598
0
LINE
8
0
10
3.4547687
20
41.0582598
11
16
21
41.0582598
0
LINE
8
0
10
16
20
41.0582598
11
16
21
40.3866006
0
LINE
8
0
10
16
20
40.3866006
11
16
21
40.3866006
0
LINE
8
0
10
16
20
10.9417362
11
16
21
18.5415994
0
LINE
8
0
10
16
20
18.5415994
11
16
21
21.3340406
0
LINE
8
0
10
16
20
21.3340406
11
16
21
25.4698018
0
LINE
8
0
10
16
20
25.4698018
11
8.8947687
21
25.4698018
0
LINE
8
0
10
8.8947687
20
25.4698018
11
2.4
21
25.4698018
0
LINE
8
0
10
2.4
20
25.4698018
11
2.4
21
23.6316857
0
LINE
8
0
10
2.4
20
23.6316857
11
2.4
21
21.3340406
0
LINE
8
0
10
2.4
20
21.3340406
11
2.4
21
19.6585759
0
LINE
8
0
10
2.4
20
19.6585759
11
2.4
21
18.5415994
0
LINE
8
0
10
2.4
20
18.5415994
11
2.4
21
15.0871201
0
LINE
8
0
10
2.4
20
15.0871201
11
2.4
21
10.9417362
0
LINE
8
0
10
2.4
20
10.9417362
11
4.0652313
21
10.9417362
0
LINE
8
0
10
4.0652313
20
10.9417362
11
16
21
10.9417362
0
LINE
8
0
10
16
20
10.9417362
11
16
21
10.9417362
0
LINE
8
0
10
16
20
63.9695939
11
16
21
62.6588898
0
LINE
8
0
10
16
20
62.6588898
11
14.7387886
21
61.6304073
0
LINE
8
0
10
14.7387886
20
61.6304073
11
13.6915567
21
60.7374142
0
LINE
8
0
10
13.6915567
20
60.7374142
11
13.3186524
21
60.4049519
0
LINE
8
0
10
13.3186524
20
60.4049519
11
13
21
60.088609
0
LINE
8
0
10
13
20
60.088609
11
5.8269035
21
60.088609
0
LINE
8
0
10
5.8269035
20
60.088609
11
2.4
21
60.088609
0
LINE
8
0
10
2.4
20
60.088609
11
2.4
21
60.3212335
0
LINE
8
0
10
2.4
20
60.3212335
11
2.4
21
69
0
LINE
8
0
10
2.4
20
69
11
2.41619192
21
69.122991
0
LINE
8
0
10
2.41619192
20
69.122991
11
2.468148
21
69.51764
0
LINE
8
0
10
2.468148
20
69.51764
11
2.5156206
21
69.6322485
0
LINE
8
0
10
2.5156206
20
69.6322485
11
2.667949
21
70
0
LINE
8
0
10
2.667949
20
70
11
2.74346688
21
70.0984161
0
LINE
8
0
10
2.74346688
20
70.0984161
11
2.985786
21
70.41421
0
LINE
8
0
10
2.985786
20
70.41421
11
3.084203
21
70.4897286
0
LINE
8
0
10
3.084203
20
70.4897286
11
3.4
21
70.73205
0
LINE
8
0
10
3.4
20
70.73205
11
3.51460893
21
70.7795224
0
LINE
8
0
10
3.51460893
20
70.7795224
11
3.882362
21
70.93185
0
LINE
8
0
10
3.882362
20
70.93185
11
4.27700952
21
70.9838076
0
LINE
8
0
10
4.27700952
20
70.9838076
11
4.4
21
71
0
LINE
8
0
10
4.4
20
71
11
5.42167747
21
71
0
LINE
8
0
10
5.42167747
20
71
11
13.8812003
21
71
0
LINE
8
0
10
13.8812003
20
71
11
14
21
71
0
LINE
8
0
10
14
20
71
11
14.1326722
21
70.982533
0
LINE
8
0
10
14.1326722
20
70.982533
11
14.51764
21
70.93185
0
LINE
8
0
10
14.51764
20
70.93185
11
14.6412699
21
70.8806408
0
LINE
8
0
10
14.6412699
20
70.8806408
11
15
21
70.73205
0
LINE
8
0
10
15
20
70.73205
11
15.1061629
21
70.6505869
0
LINE
8
0
10
15.1061629
20
70.6505869
11
15.41421
21
70.41421
0
LINE
8
0
10
15.41421
20
70.41421
11
15.4956731
21
70.3080471
0
LINE
8
0
10
15.4956731
20
70.3080471
11
15.73205
21
70
0
LINE
8
0
10
15.73205
20
70
11
15.7832592
21
69.8763701
0
LINE
8
0
10
15.7832592
20
69.8763701
11
15.93185
21
69.51764
0
LINE
8
0
10
15.93185
20
69.51764
11
15.982533
21
69.1326722
0
LINE
8
0
10
15.982533
20
69.1326722
11
16
21
69
0
LINE
8
0
10
16
20
69
11
16
21
65.4186115
0
LINE
8
0
10
16
20
65.4186115
11
16
21
64.990364
0
LINE
8
0
10
16
20
64.990364
11
16
21
63.9695939
0
LINE
8
0
10
16
20
63.9695939
11
16
21
63.9695939
0
LINE
8
0
10
16
20
50.1844043
11
16
21
49.8938465
0
LINE
8
0
10
16
20
49.8938465
11
16
21
49.0468602
0
LINE
8
0
10
16
20
49.0468602
11
14.9452313
21
49.0468602
0
LINE
8
0
10
14.9452313
20
49.0468602
11
2.4
21
49.0468602
0
LINE
8
0
10
2.4
20
49.0468602
11
2.4
21
49.315524
0
LINE
8
0
10
2.4
20
49.315524
11
2.4
21
49.4162729
0
LINE
8
0
10
2.4
20
49.4162729
11
2.4
21
55.8068354
0
LINE
8
0
10
2.4
20
55.8068354
11
2.4
21
56.015371
0
LINE
8
0
10
2.4
20
56.015371
11
9.5730965
21
56.015371
0
LINE
8
0
10
9.5730965
20
56.015371
11
13
21
56.015371
0
LINE
8
0
10
13
20
56.015371
11
13.271419
21
55.7460871
0
LINE
8
0
10
13.271419
20
55.7460871
11
13.4840091
21
55.5473783
0
LINE
8
0
10
13.4840091
20
55.5473783
11
14.4087486
21
54.7661648
0
LINE
8
0
10
14.4087486
20
54.7661648
11
16
21
53.4241198
0
LINE
8
0
10
16
20
53.4241198
11
16
21
50.1844043
0
LINE
8
0
10
16
20
50.1844043
11
16
21
50.1844043
0
LINE
8
0
10
16
20
4.46604202
11
16
21
9.61231454
0
LINE
8
0
10
16
20
9.61231454
11
16
21
9.88134456
0
LINE
8
0
10
16
20
9.88134456
11
14.3347687
21
9.88134456
0
LINE
8
0
10
14.3347687
20
9.88134456
11
2.4
21
9.88134456
0
LINE
8
0
10
2.4
20
9.88134456
11
2.4
21
6.46140916
0
LINE
8
0
10
2.4
20
6.46140916
11
2.4
21
2.57583298
0
LINE
8
0
10
2.4
20
2.57583298
11
2.4
21
0.178263939
0
LINE
8
0
10
2.4
20
0.178263939
11
4.72718162
21
0.178263939
0
LINE
8
0
10
4.72718162
20
0.178263939
11
13.65614
21
0.178263939
0
LINE
8
0
10
13.65614
20
0.178263939
11
14.5012629
21
1.72430379
0
LINE
8
0
10
14.5012629
20
1.72430379
11
16
21
4.46604202
0
LINE
8
0
10
16
20
4.46604202
11
16
21
4.46604202
0
ENDSEC
0
EOF
