0
SECTION
2
ENTITIES
0
LINE
8
0
10
16
20
40.6604796
11
16
21
40.4126781
0
LINE
8
0
10
16
20
40.4126781
11
16
21
33.7322796
0
LINE
8
0
10
16
20
33.7322796
11
16
21
30.3920784
0
LINE
8
0
10
16
20
30.3920784
11
10.7545729
21
30.3920784
0
LINE
8
0
10
10.7545729
20
30.3920784
11
2.4
21
30.3920784
0
LINE
8
0
10
2.4
20
30.3920784
11
2.4
21
32.2140064
0
LINE
8
0
10
2.4
20
32.2140064
11
2.4
21
33.7322796
0
LINE
8
0
10
2.4
20
33.7322796
11
2.4
21
36.5531199
0
LINE
8
0
10
2.4
20
36.5531199
11
2.4
21
40.6604796
0
LINE
8
0
10
2.4
20
40.6604796
11
2.4
21
40.7167982
0
LINE
8
0
10
2.4
20
40.7167982
11
2.4
21
40.7843804
0
LINE
8
0
10
2.4
20
40.7843804
11
15.8054271
21
40.7843804
0
LINE
8
0
10
15.8054271
20
40.7843804
11
16
21
40.7843804
0
LINE
8
0
10
16
20
40.7843804
11
16
21
40.6604796
0
LINE
8
0
10
16
20
40.6604796
11
16
21
40.6604796
0
LINE
8
0
10
16
20
65.8561346
11
16
21
69
0
LINE
8
0
10
16
20
69
11
15.9846669
21
69.1164642
0
LINE
8
0
10
15.9846669
20
69.1164642
11
15.93185
21
69.51764
0
LINE
8
0
10
15.93185
20
69.51764
11
15.7770032
21
69.8914735
0
LINE
8
0
10
15.7770032
20
69.8914735
11
15.73205
21
70
0
LINE
8
0
10
15.73205
20
70
11
15.4857211
21
70.3210166
0
LINE
8
0
10
15.4857211
20
70.3210166
11
15.41421
21
70.41421
0
LINE
8
0
10
15.41421
20
70.41421
11
15.0931934
21
70.6605389
0
LINE
8
0
10
15.0931934
20
70.6605389
11
15
21
70.73205
0
LINE
8
0
10
15
20
70.73205
11
14.6261665
21
70.8868968
0
LINE
8
0
10
14.6261665
20
70.8868968
11
14.51764
21
70.93185
0
LINE
8
0
10
14.51764
20
70.93185
11
14.1164642
21
70.9846669
0
LINE
8
0
10
14.1164642
20
70.9846669
11
14
21
71
0
LINE
8
0
10
14
20
71
11
13.8957136
21
71
0
LINE
8
0
10
13.8957136
20
71
11
5.29686345
21
71
0
LINE
8
0
10
5.29686345
20
71
11
4.4
21
71
0
LINE
8
0
10
4.4
20
71
11
4.29203474
21
70.9857858
0
LINE
8
0
10
4.29203474
20
70.9857858
11
3.882362
21
70.93185
0
LINE
8
0
10
3.882362
20
70.93185
11
3.50060764
21
70.7737229
0
LINE
8
0
10
3.50060764
20
70.7737229
11
3.4
21
70.73205
0
LINE
8
0
10
3.4
20
70.73205
11
3.07217981
21
70.4805028
0
LINE
8
0
10
3.07217981
20
70.4805028
11
2.985786
21
70.41421
0
LINE
8
0
10
2.985786
20
70.41421
11
2.73424118
21
70.086393
0
LINE
8
0
10
2.73424118
20
70.086393
11
2.667949
21
70
0
LINE
8
0
10
2.667949
20
70
11
2.50982107
21
69.6182472
0
LINE
8
0
10
2.50982107
20
69.6182472
11
2.468148
21
69.51764
0
LINE
8
0
10
2.468148
20
69.51764
11
2.41421383
21
69.1079657
0
LINE
8
0
10
2.41421383
20
69.1079657
11
2.4
21
69
0
LINE
8
0
10
2.4
20
69
11
2.4
21
60.536401
0
LINE
8
0
10
2.4
20
60.536401
11
2.4
21
60.2428429
0
LINE
8
0
10
2.4
20
60.2428429
11
11.9053304
21
60.2428429
0
LINE
8
0
10
11.9053304
20
60.2428429
11
13
21
60.2428429
0
LINE
8
0
10
13
20
60.2428429
11
14.2204114
21
61.2835093
0
LINE
8
0
10
14.2204114
20
61.2835093
11
16
21
62.7347138
0
LINE
8
0
10
16
20
62.7347138
11
16
21
64.5841374
0
LINE
8
0
10
16
20
64.5841374
11
16
21
65.4802043
0
LINE
8
0
10
16
20
65.4802043
11
16
21
65.8561346
0
LINE
8
0
10
16
20
65.8561346
11
16
21
65.8561346
0
LINE
8
0
10
16
20
4.70056148
11
16
21
9.01269475
0
LINE
8
0
10
16
20
9.01269475
11
16
21
9.48356484
0
LINE
8
0
10
16
20
9.48356484
11
13.0854271
21
9.48356484
0
LINE
8
0
10
13.0854271
20
9.48356484
11
2.4
21
9.48356484
0
LINE
8
0
10
2.4
20
9.48356484
11
2.4
21
6.42163116
0
LINE
8
0
10
2.4
20
6.42163116
11
2.4
21
2.42174
0
LINE
8
0
10
2.4
20
2.42174
11
2.4
21
0.412783571
0
LINE
8
0
10
2.4
20
0.412783571
11
6.17444165
21
0.412783571
0
LINE
8
0
10
6.17444165
20
0.412783571
11
13.65614
21
0.412783571
0
LINE
8
0
10
13.65614
20
0.412783571
11
14.3642802
21
1.70823185
0
LINE
8
0
10
14.3642802
20
1.70823185
11
16
21
4.70056148
0
LINE
8
0
10
16
20
4.70056148
11
16
21
4.70056148
0
LINE
8
0
10
16
20
-8.46801909
11
16
21
-14
0
LINE
8
0
10
16
20
-14
11
15.9969757
21
-14.0499392
0
LINE
8
0
10
15.9969757
20
-14.0499392
11
15.9740785
21
-14.1968889
0
LINE
8
0
10
15.9740785
20
-14.1968889
11
15.93185
21
-14.51764
0
LINE
8
0
10
15.93185
20
-14.51764
11
15.8558543
21
-14.7011099
0
LINE
8
0
10
15.8558543
20
-14.7011099
11
15.73205
21
-15
0
LINE
8
0
10
15.73205
20
-15
11
15.6111568
21
-15.1575484
0
LINE
8
0
10
15.6111568
20
-15.1575484
11
15.41421
21
-15.41421
0
LINE
8
0
10
15.41421
20
-15.41421
11
15.2569621
21
-15.5349283
0
LINE
8
0
10
15.2569621
20
-15.5349283
11
15.0003005
21
-15.731875
0
LINE
8
0
10
15.0003005
20
-15.731875
11
14.8165301
21
-15.8080457
0
LINE
8
0
10
14.8165301
20
-15.8080457
11
14.51764
21
-15.93185
0
LINE
8
0
10
14.51764
20
-15.93185
11
14.1968889
21
-15.9740785
0
LINE
8
0
10
14.1968889
20
-15.9740785
11
14
21
-16
0
LINE
8
0
10
14
20
-16
11
6.22572146
21
-16
0
LINE
8
0
10
6.22572146
20
-16
11
4.4
21
-16
0
LINE
8
0
10
4.4
20
-16
11
4.35334343
21
-15.9960503
0
LINE
8
0
10
4.35334343
20
-15.9960503
11
4.29744416
21
-15.9864979
0
LINE
8
0
10
4.29744416
20
-15.9864979
11
4.19488822
21
-15.9729959
0
LINE
8
0
10
4.19488822
20
-15.9729959
11
3.882362
21
-15.93185
0
LINE
8
0
10
3.882362
20
-15.93185
11
3.69154954
21
-15.8528664
0
LINE
8
0
10
3.69154954
20
-15.8528664
11
3.40032136
21
-15.7322362
0
LINE
8
0
10
3.40032136
20
-15.7322362
11
3.23586953
21
-15.6061073
0
LINE
8
0
10
3.23586953
20
-15.6061073
11
2.985786
21
-15.41421
0
LINE
8
0
10
2.985786
20
-15.41421
11
2.85984449
21
-15.2500811
0
LINE
8
0
10
2.85984449
20
-15.2500811
11
2.667949
21
-15
0
LINE
8
0
10
2.667949
20
-15
11
2.58877873
21
-14.808867
0
LINE
8
0
10
2.58877873
20
-14.808867
11
2.468148
21
-14.51764
0
LINE
8
0
10
2.468148
20
-14.51764
11
2.42700334
21
-14.2051126
0
LINE
8
0
10
2.42700334
20
-14.2051126
11
2.4
21
-14
0
LINE
8
0
10
2.4
20
-14
11
2.4
21
-13.9621935
0
LINE
8
0
10
2.4
20
-13.9621935
11
2.4
21
-4.89115393
0
LINE
8
0
10
2.4
20
-4.89115393
11
2.4
21
-4.24189931
0
LINE
8
0
10
2.4
20
-4.24189931
11
2.4
21
-4.13976039
0
LINE
8
0
10
2.4
20
-4.13976039
11
3.48167549
21
-4.13976039
0
LINE
8
0
10
3.48167549
20
-4.13976039
11
13.65614
21
-4.13976039
0
LINE
8
0
10
13.65614
20
-4.13976039
11
14.3469084
21
-5.09745964
0
LINE
8
0
10
14.3469084
20
-5.09745964
11
15.0965458
21
-6.1260625
0
LINE
8
0
10
15.0965458
20
-6.1260625
11
16
21
-7.29621201
0
LINE
8
0
10
16
20
-7.29621201
11
16
21
-7.71241655
0
LINE
8
0
10
16
20
-7.71241655
11
16
21
-8.46801909
0
LINE
8
0
10
16
20
-8.46801909
11
16
21
-8.46801909
0
LINE
8
0
10
16
20
49.4599924
11
16
21
49.5534354
0
LINE
8
0
10
16
20
49.5534354
11
16
21
53.3724557
0
LINE
8
0
10
16
20
53.3724557
11
15.209364
21
53.9963958
0
LINE
8
0
10
15.209364
20
53.9963958
11
13.9887647
21
55.0258367
0
LINE
8
0
10
13.9887647
20
55.0258367
11
13
21
55.8611381
0
LINE
8
0
10
13
20
55.8611381
11
3.49466963
21
55.8611381
0
LINE
8
0
10
3.49466963
20
55.8611381
11
2.4
21
55.8611381
0
LINE
8
0
10
2.4
20
55.8611381
11
2.4
21
49.7707633
0
LINE
8
0
10
2.4
20
49.7707633
11
2.4
21
49.5630397
0
LINE
8
0
10
2.4
20
49.5630397
11
2.4
21
49.5022837
0
LINE
8
0
10
2.4
20
49.5022837
11
2.4
21
49.476742
0
LINE
8
0
10
2.4
20
49.476742
11
2.4
21
49.3988062
0
LINE
8
0
10
2.4
20
49.3988062
11
2.4
21
49.3207396
0
LINE
8
0
10
2.4
20
49.3207396
11
2.59457292
21
49.3207396
0
LINE
8
0
10
2.59457292
20
49.3207396
11
16
21
49.3207396
0
LINE
8
0
10
16
20
49.3207396
11
16
21
49.4599924
0
LINE
8
0
10
16
20
49.4599924
11
16
21
49.4599924
0
LINE
8
0
10
16
20
18.1438196
11
16
21
11.3395164
0
LINE
8
0
10
16
20
11.3395164
11
5.31457292
21
11.3395164
0
LINE
8
0
10
5.31457292
20
11.3395164
11
2.4
21
11.3395164
0
LINE
8
0
10
2.4
20
11.3395164
11
2.4
21
15.0509581
0
LINE
8
0
10
2.4
20
15.0509581
11
2.4
21
18.1438196
0
LINE
8
0
10
2.4
20
18.1438196
11
2.4
21
19.5790199
0
LINE
8
0
10
2.4
20
19.5790199
11
2.4
21
21.7318204
0
LINE
8
0
10
2.4
20
21.7318204
11
2.4
21
23.5874877
0
LINE
8
0
10
2.4
20
23.5874877
11
2.4
21
25.0720216
0
LINE
8
0
10
2.4
20
25.0720216
11
7.64542708
21
25.0720216
0
LINE
8
0
10
7.64542708
20
25.0720216
11
16
21
25.0720216
0
LINE
8
0
10
16
20
25.0720216
11
16
21
21.7318204
0
LINE
8
0
10
16
20
21.7318204
11
16
21
18.1438196
0
LINE
8
0
10
16
20
18.1438196
11
16
21
18.1438196
0
ENDSEC
0
EOF
