0
SECTION
2
ENTITIES
0
LINE
8
0
10
13.3324822
20
55.3902621
11
16
21
53.2851576
0
LINE
8
0
10
16
20
53.2851576
11
16
21
51.7461277
0
LINE
8
0
10
16
20
51.7461277
11
16
21
50.4527013
0
LINE
8
0
10
16
20
50.4527013
11
16
21
48.525179
0
LINE
8
0
10
16
20
48.525179
11
5.09325615
21
48.525179
0
LINE
8
0
10
5.09325615
20
48.525179
11
2.4
21
48.525179
0
LINE
8
0
10
2.4
20
48.525179
11
2.4
21
49.605768
0
LINE
8
0
10
2.4
20
49.605768
11
2.4
21
50.6845474
0
LINE
8
0
10
2.4
20
50.6845474
11
2.4
21
51.0380927
0
LINE
8
0
10
2.4
20
51.0380927
11
2.4
21
51.8790699
0
LINE
8
0
10
2.4
20
51.8790699
11
2.4
21
54.7543562
0
LINE
8
0
10
2.4
20
54.7543562
11
2.4
21
55.670883
0
LINE
8
0
10
2.4
20
55.670883
11
11.5695643
21
55.670883
0
LINE
8
0
10
11.5695643
20
55.670883
11
13
21
55.670883
0
LINE
8
0
10
13
20
55.670883
11
13.148797
21
55.5451803
0
LINE
8
0
10
13.148797
20
55.5451803
11
13.3324822
21
55.3902621
0
LINE
8
0
10
13.3324822
20
55.3902621
11
13.3324822
21
55.3902621
0
LINE
8
0
10
16
20
-8.3609485
11
16
21
-9.03861453
0
LINE
8
0
10
16
20
-9.03861453
11
16
21
-14
0
LINE
8
0
10
16
20
-14
11
15.9972876
21
-14.0447882
0
LINE
8
0
10
15.9972876
20
-14.0447882
11
15.9767522
21
-14.1765808
0
LINE
8
0
10
15.9767522
20
-14.1765808
11
15.93185
21
-14.51764
0
LINE
8
0
10
15.93185
20
-14.51764
11
15.8636929
21
-14.6821859
0
LINE
8
0
10
15.8636929
20
-14.6821859
11
15.73205
21
-15
0
LINE
8
0
10
15.73205
20
-15
11
15.6236263
21
-15.1412981
0
LINE
8
0
10
15.6236263
20
-15.1412981
11
15.41421
21
-15.41421
0
LINE
8
0
10
15.41421
20
-15.41421
11
15.2731814
21
-15.5224768
0
LINE
8
0
10
15.2731814
20
-15.5224768
11
15.0002695
21
-15.7318931
0
LINE
8
0
10
15.0002695
20
-15.7318931
11
14.8354541
21
-15.8002071
0
LINE
8
0
10
14.8354541
20
-15.8002071
11
14.51764
21
-15.93185
0
LINE
8
0
10
14.51764
20
-15.93185
11
14.1765808
21
-15.9767522
0
LINE
8
0
10
14.1765808
20
-15.9767522
11
14
21
-16
0
LINE
8
0
10
14
20
-16
11
6.03740766
21
-16
0
LINE
8
0
10
6.03740766
20
-16
11
4.4
21
-16
0
LINE
8
0
10
4.4
20
-16
11
4.35815582
21
-15.9964577
0
LINE
8
0
10
4.35815582
20
-15.9964577
11
4.30802227
21
-15.9878906
0
LINE
8
0
10
4.30802227
20
-15.9878906
11
4.21604445
21
-15.9757812
0
LINE
8
0
10
4.21604445
20
-15.9757812
11
3.882362
21
-15.93185
0
LINE
8
0
10
3.882362
20
-15.93185
11
3.71123086
21
-15.8610131
0
LINE
8
0
10
3.71123086
20
-15.8610131
11
3.40028821
21
-15.732217
0
LINE
8
0
10
3.40028821
20
-15.732217
11
3.25279874
21
-15.6190976
0
LINE
8
0
10
3.25279874
20
-15.6190976
11
2.985786
21
-15.41421
0
LINE
8
0
10
2.985786
20
-15.41421
11
2.87283471
21
-15.2670102
0
LINE
8
0
10
2.87283471
20
-15.2670102
11
2.667949
21
-15
0
LINE
8
0
10
2.667949
20
-15
11
2.59694474
21
-14.8285814
0
LINE
8
0
10
2.59694474
20
-14.8285814
11
2.468148
21
-14.51764
0
LINE
8
0
10
2.468148
20
-14.51764
11
2.42421809
21
-14.1839563
0
LINE
8
0
10
2.42421809
20
-14.1839563
11
2.4
21
-14
0
LINE
8
0
10
2.4
20
-14
11
2.4
21
-13.9616
0
LINE
8
0
10
2.4
20
-13.9616
11
2.4
21
-5.82619165
0
LINE
8
0
10
2.4
20
-5.82619165
11
2.4
21
-5.24390432
0
LINE
8
0
10
2.4
20
-5.24390432
11
2.4
21
-4.32907717
0
LINE
8
0
10
2.4
20
-4.32907717
11
12.0882374
21
-4.32907717
0
LINE
8
0
10
12.0882374
20
-4.32907717
11
13.65614
21
-4.32907717
0
LINE
8
0
10
13.65614
20
-4.32907717
11
13.7625886
21
-4.47666028
0
LINE
8
0
10
13.7625886
20
-4.47666028
11
13.878109
21
-4.63516976
0
LINE
8
0
10
13.878109
20
-4.63516976
11
16
21
-7.3834328
0
LINE
8
0
10
16
20
-7.3834328
11
16
21
-8.3609485
0
LINE
8
0
10
16
20
-8.3609485
11
16
21
-8.3609485
0
LINE
8
0
10
16
20
69
11
16
21
66.7311808
0
LINE
8
0
10
16
20
66.7311808
11
16
21
66.4598849
0
LINE
8
0
10
16
20
66.4598849
11
16
21
65.8132243
0
LINE
8
0
10
16
20
65.8132243
11
16
21
64.0891274
0
LINE
8
0
10
16
20
64.0891274
11
16
21
62.8186895
0
LINE
8
0
10
16
20
62.8186895
11
15.0901868
21
62.1054795
0
LINE
8
0
10
15.0901868
20
62.1054795
11
13.6126508
21
60.9395456
0
LINE
8
0
10
13.6126508
20
60.9395456
11
13.1836569
21
60.5897132
0
LINE
8
0
10
13.1836569
20
60.5897132
11
13
21
60.4331057
0
LINE
8
0
10
13
20
60.4331057
11
3.83043566
21
60.4331057
0
LINE
8
0
10
3.83043566
20
60.4331057
11
2.4
21
60.4331057
0
LINE
8
0
10
2.4
20
60.4331057
11
2.4
21
62.8921127
0
LINE
8
0
10
2.4
20
62.8921127
11
2.4
21
69
0
LINE
8
0
10
2.4
20
69
11
2.41025763
21
69.0779151
0
LINE
8
0
10
2.41025763
20
69.0779151
11
2.468148
21
69.51764
0
LINE
8
0
10
2.468148
20
69.51764
11
2.49822202
21
69.5902448
0
LINE
8
0
10
2.49822202
20
69.5902448
11
2.667949
21
70
0
LINE
8
0
10
2.667949
20
70
11
2.71578978
21
70.0623468
0
LINE
8
0
10
2.71578978
20
70.0623468
11
2.985786
21
70.41421
0
LINE
8
0
10
2.985786
20
70.41421
11
3.04813343
21
70.4620512
0
LINE
8
0
10
3.04813343
20
70.4620512
11
3.4
21
70.73205
0
LINE
8
0
10
3.4
20
70.73205
11
3.47260506
21
70.7621239
0
LINE
8
0
10
3.47260506
20
70.7621239
11
3.882362
21
70.93185
0
LINE
8
0
10
3.882362
20
70.93185
11
4.3220852
21
70.9897421
0
LINE
8
0
10
4.3220852
20
70.9897421
11
4.4
21
71
0
LINE
8
0
10
4.4
20
71
11
5.0472354
21
71
0
LINE
8
0
10
5.0472354
20
71
11
13.9247401
21
71
0
LINE
8
0
10
13.9247401
20
71
11
14
21
71
0
LINE
8
0
10
14
20
71
11
14.0840482
21
70.9889346
0
LINE
8
0
10
14.0840482
20
70.9889346
11
14.51764
21
70.93185
0
LINE
8
0
10
14.51764
20
70.93185
11
14.5959599
21
70.8994089
0
LINE
8
0
10
14.5959599
20
70.8994089
11
15
21
70.73205
0
LINE
8
0
10
15
20
70.73205
11
15.0672545
21
70.6804429
0
LINE
8
0
10
15.0672545
20
70.6804429
11
15.41421
21
70.41421
0
LINE
8
0
10
15.41421
20
70.41421
11
15.4658171
21
70.3469555
0
LINE
8
0
10
15.4658171
20
70.3469555
11
15.73205
21
70
0
LINE
8
0
10
15.73205
20
70
11
15.7644911
21
69.9216801
0
LINE
8
0
10
15.7644911
20
69.9216801
11
15.93185
21
69.51764
0
LINE
8
0
10
15.93185
20
69.51764
11
15.9889346
21
69.0840482
0
LINE
8
0
10
15.9889346
20
69.0840482
11
16
21
69
0
LINE
8
0
10
16
20
69
11
16
21
69
0
LINE
8
0
10
16
20
7.81345519
11
16
21
5.16960039
0
LINE
8
0
10
16
20
5.16960039
11
14.0903149
21
1.67608798
0
LINE
8
0
10
14.0903149
20
1.67608798
11
13.65614
21
0.881822835
0
LINE
8
0
10
13.65614
20
0.881822835
11
9.06896173
21
0.881822835
0
LINE
8
0
10
9.06896173
20
0.881822835
11
2.4
21
0.881822835
0
LINE
8
0
10
2.4
20
0.881822835
11
2.4
21
2.11355403
0
LINE
8
0
10
2.4
20
2.11355403
11
2.4
21
6.34207515
0
LINE
8
0
10
2.4
20
6.34207515
11
2.4
21
8.68800541
0
LINE
8
0
10
2.4
20
8.68800541
11
10.5867439
21
8.68800541
0
LINE
8
0
10
10.5867439
20
8.68800541
11
16
21
8.68800541
0
LINE
8
0
10
16
20
8.68800541
11
16
21
7.81345519
0
LINE
8
0
10
16
20
7.81345519
11
16
21
7.81345519
0
LINE
8
0
10
16
20
41.579941
11
16
21
39.86492
0
LINE
8
0
10
16
20
39.86492
11
16
21
36.4348801
0
LINE
8
0
10
16
20
36.4348801
11
16
21
32.93672
0
LINE
8
0
10
16
20
32.93672
11
16
21
31.187639
0
LINE
8
0
10
16
20
31.187639
11
13.2532561
21
31.187639
0
LINE
8
0
10
13.2532561
20
31.187639
11
2.4
21
31.187639
0
LINE
8
0
10
2.4
20
31.187639
11
2.4
21
32.1416832
0
LINE
8
0
10
2.4
20
32.1416832
11
2.4
21
32.93672
0
LINE
8
0
10
2.4
20
32.93672
11
2.4
21
36.394008
0
LINE
8
0
10
2.4
20
36.394008
11
2.4
21
39.86492
0
LINE
8
0
10
2.4
20
39.86492
11
2.4
21
40.644475
0
LINE
8
0
10
2.4
20
40.644475
11
2.4
21
41.579941
0
LINE
8
0
10
2.4
20
41.579941
11
13.3067439
21
41.579941
0
LINE
8
0
10
13.3067439
20
41.579941
11
16
21
41.579941
0
LINE
8
0
10
16
20
41.579941
11
16
21
41.579941
0
LINE
8
0
10
16
20
12.135077
11
16
21
17.34826
0
LINE
8
0
10
16
20
17.34826
11
16
21
22.52738
0
LINE
8
0
10
16
20
22.52738
11
16
21
24.276461
0
LINE
8
0
10
16
20
24.276461
11
5.14674385
21
24.276461
0
LINE
8
0
10
5.14674385
20
24.276461
11
2.4
21
24.276461
0
LINE
8
0
10
2.4
20
24.276461
11
2.4
21
23.4990917
0
LINE
8
0
10
2.4
20
23.4990917
11
2.4
21
22.52738
0
LINE
8
0
10
2.4
20
22.52738
11
2.4
21
19.419908
0
LINE
8
0
10
2.4
20
19.419908
11
2.4
21
17.34826
0
LINE
8
0
10
2.4
20
17.34826
11
2.4
21
14.9786341
0
LINE
8
0
10
2.4
20
14.9786341
11
2.4
21
12.135077
0
LINE
8
0
10
2.4
20
12.135077
11
7.81325615
21
12.135077
0
LINE
8
0
10
7.81325615
20
12.135077
11
16
21
12.135077
0
LINE
8
0
10
16
20
12.135077
11
16
21
12.135077
0
ENDSEC
0
EOF
