0
SECTION
2
ENTITIES
0
LINE
8
0
10
15.9974436
20
-14.0422128
11
16
21
-14
0
LINE
8
0
10
16
20
-14
11
16
21
-9.32391224
0
LINE
8
0
10
16
20
-9.32391224
11
16
21
-8.68521448
0
LINE
8
0
10
16
20
-8.68521448
11
16
21
-7.45344662
0
LINE
8
0
10
16
20
-7.45344662
11
16
21
-7.45325029
0
LINE
8
0
10
16
20
-7.45325029
11
16
21
-7.423807
0
LINE
8
0
10
16
20
-7.423807
11
15.9224828
21
-7.32538976
0
LINE
8
0
10
15.9224828
20
-7.32538976
11
13.65614
21
-4.38269841
0
LINE
8
0
10
13.65614
20
-4.38269841
11
4.95059681
21
-4.38269841
0
LINE
8
0
10
4.95059681
20
-4.38269841
11
2.4
21
-4.38269841
0
LINE
8
0
10
2.4
20
-4.38269841
11
2.4
21
-4.7217099
0
LINE
8
0
10
2.4
20
-4.7217099
11
2.4
21
-5.74490682
0
LINE
8
0
10
2.4
20
-5.74490682
11
2.4
21
-6.29371052
0
LINE
8
0
10
2.4
20
-6.29371052
11
2.4
21
-13.9613033
0
LINE
8
0
10
2.4
20
-13.9613033
11
2.4
21
-14
0
LINE
8
0
10
2.4
20
-14
11
2.42282546
21
-14.1733781
0
LINE
8
0
10
2.42282546
20
-14.1733781
11
2.468148
21
-14.51764
0
LINE
8
0
10
2.468148
20
-14.51764
11
2.60102774
21
-14.8384386
0
LINE
8
0
10
2.60102774
20
-14.8384386
11
2.667949
21
-15
0
LINE
8
0
10
2.667949
20
-15
11
2.87932982
21
-15.2754747
0
LINE
8
0
10
2.87932982
20
-15.2754747
11
2.985786
21
-15.41421
0
LINE
8
0
10
2.985786
20
-15.41421
11
3.26126335
21
-15.6255928
0
LINE
8
0
10
3.26126335
20
-15.6255928
11
3.40027164
21
-15.7322074
0
LINE
8
0
10
3.40027164
20
-15.7322074
11
3.72107153
21
-15.8650865
0
LINE
8
0
10
3.72107153
20
-15.8650865
11
3.882362
21
-15.93185
0
LINE
8
0
10
3.882362
20
-15.93185
11
4.22662256
21
-15.9771739
0
LINE
8
0
10
4.22662256
20
-15.9771739
11
4.31331132
21
-15.9885869
0
LINE
8
0
10
4.31331132
20
-15.9885869
11
4.36056201
21
-15.9966614
0
LINE
8
0
10
4.36056201
20
-15.9966614
11
4.4
21
-16
0
LINE
8
0
10
4.4
20
-16
11
5.94325077
21
-16
0
LINE
8
0
10
5.94325077
20
-16
11
14
21
-16
0
LINE
8
0
10
14
20
-16
11
14.1664268
21
-15.978089
0
LINE
8
0
10
14.1664268
20
-15.978089
11
14.51764
21
-15.93185
0
LINE
8
0
10
14.51764
20
-15.93185
11
14.8449161
21
-15.7962878
0
LINE
8
0
10
14.8449161
20
-15.7962878
11
15.000254
21
-15.7319021
0
LINE
8
0
10
15.000254
20
-15.7319021
11
15.281291
21
-15.5162511
0
LINE
8
0
10
15.281291
20
-15.5162511
11
15.41421
21
-15.41421
0
LINE
8
0
10
15.41421
20
-15.41421
11
15.629861
21
-15.133173
0
LINE
8
0
10
15.629861
20
-15.133173
11
15.73205
21
-15
0
LINE
8
0
10
15.73205
20
-15
11
15.8676122
21
-14.6727239
0
LINE
8
0
10
15.8676122
20
-14.6727239
11
15.93185
21
-14.51764
0
LINE
8
0
10
15.93185
20
-14.51764
11
15.978089
21
-14.1664268
0
LINE
8
0
10
15.978089
20
-14.1664268
11
15.9974436
21
-14.0422128
0
LINE
8
0
10
15.9974436
20
-14.0422128
11
15.9974436
21
-14.0422128
0
LINE
8
0
10
16
20
62.8454965
11
16
21
65.0361488
0
LINE
8
0
10
16
20
65.0361488
11
16
21
66.4277678
0
LINE
8
0
10
16
20
66.4277678
11
16
21
66.9497252
0
LINE
8
0
10
16
20
66.9497252
11
16
21
67.168704
0
LINE
8
0
10
16
20
67.168704
11
16
21
69
0
LINE
8
0
10
16
20
69
11
15.9910685
21
69.0678402
0
LINE
8
0
10
15.9910685
20
69.0678402
11
15.93185
21
69.51764
0
LINE
8
0
10
15.93185
20
69.51764
11
15.7582351
21
69.9367835
0
LINE
8
0
10
15.7582351
20
69.9367835
11
15.73205
21
70
0
LINE
8
0
10
15.73205
20
70
11
15.4558651
21
70.359925
0
LINE
8
0
10
15.4558651
20
70.359925
11
15.41421
21
70.41421
0
LINE
8
0
10
15.41421
20
70.41421
11
15.054285
21
70.6903949
0
LINE
8
0
10
15.054285
20
70.6903949
11
15
21
70.73205
0
LINE
8
0
10
15
20
70.73205
11
14.5808565
21
70.9056649
0
LINE
8
0
10
14.5808565
20
70.9056649
11
14.51764
21
70.93185
0
LINE
8
0
10
14.51764
20
70.93185
11
14.0678402
21
70.9910685
0
LINE
8
0
10
14.0678402
20
70.9910685
11
14
21
71
0
LINE
8
0
10
14
20
71
11
13.9392533
21
71
0
LINE
8
0
10
13.9392533
20
71
11
4.92242138
21
71
0
LINE
8
0
10
4.92242138
20
71
11
4.4
21
71
0
LINE
8
0
10
4.4
20
71
11
4.33711043
21
70.9917202
0
LINE
8
0
10
4.33711043
20
70.9917202
11
3.882362
21
70.93185
0
LINE
8
0
10
3.882362
20
70.93185
11
3.45860377
21
70.7563244
0
LINE
8
0
10
3.45860377
20
70.7563244
11
3.4
21
70.73205
0
LINE
8
0
10
3.4
20
70.73205
11
3.03611024
21
70.4528254
0
LINE
8
0
10
3.03611024
20
70.4528254
11
2.985786
21
70.41421
0
LINE
8
0
10
2.985786
20
70.41421
11
2.70656408
21
70.0503238
0
LINE
8
0
10
2.70656408
20
70.0503238
11
2.667949
21
70
0
LINE
8
0
10
2.667949
20
70
11
2.49242249
21
69.5762435
0
LINE
8
0
10
2.49242249
20
69.5762435
11
2.468148
21
69.51764
0
LINE
8
0
10
2.468148
20
69.51764
11
2.40827953
21
69.0628898
0
LINE
8
0
10
2.40827953
20
69.0628898
11
2.4
21
69
0
LINE
8
0
10
2.4
20
69
11
2.4
21
64.0699685
0
LINE
8
0
10
2.4
20
64.0699685
11
2.4
21
61.6072776
0
LINE
8
0
10
2.4
20
61.6072776
11
2.4
21
60.4863317
0
LINE
8
0
10
2.4
20
60.4863317
11
10.5706704
21
60.4863317
0
LINE
8
0
10
10.5706704
20
60.4863317
11
13
21
60.4863317
0
LINE
8
0
10
13
20
60.4863317
11
14.4311831
21
61.6156882
0
LINE
8
0
10
14.4311831
20
61.6156882
11
16
21
62.8454965
0
LINE
8
0
10
16
20
62.8454965
11
16
21
62.8454965
0
LINE
8
0
10
16
20
31.5854192
11
16
21
32.5389402
0
LINE
8
0
10
16
20
32.5389402
11
16
21
34.4459811
0
LINE
8
0
10
16
20
34.4459811
11
16
21
39.4671402
0
LINE
8
0
10
16
20
39.4671402
11
16
21
41.9777212
0
LINE
8
0
10
16
20
41.9777212
11
12.0574022
21
41.9777212
0
LINE
8
0
10
12.0574022
20
41.9777212
11
2.4
21
41.9777212
0
LINE
8
0
10
2.4
20
41.9777212
11
2.4
21
40.6083134
0
LINE
8
0
10
2.4
20
40.6083134
11
2.4
21
39.4671402
0
LINE
8
0
10
2.4
20
39.4671402
11
2.4
21
36.314452
0
LINE
8
0
10
2.4
20
36.314452
11
2.4
21
32.5389402
0
LINE
8
0
10
2.4
20
32.5389402
11
2.4
21
32.1055216
0
LINE
8
0
10
2.4
20
32.1055216
11
2.4
21
31.5854192
0
LINE
8
0
10
2.4
20
31.5854192
11
14.5025978
21
31.5854192
0
LINE
8
0
10
14.5025978
20
31.5854192
11
16
21
31.5854192
0
LINE
8
0
10
16
20
31.5854192
11
16
21
31.5854192
0
LINE
8
0
10
16
20
22.9251598
11
16
21
16.9504802
0
LINE
8
0
10
16
20
16.9504802
11
16
21
12.5328572
0
LINE
8
0
10
16
20
12.5328572
11
9.06259776
21
12.5328572
0
LINE
8
0
10
9.06259776
20
12.5328572
11
2.4
21
12.5328572
0
LINE
8
0
10
2.4
20
12.5328572
11
2.4
21
14.9424721
0
LINE
8
0
10
2.4
20
14.9424721
11
2.4
21
16.9504802
0
LINE
8
0
10
2.4
20
16.9504802
11
2.4
21
19.340352
0
LINE
8
0
10
2.4
20
19.340352
11
2.4
21
22.9251598
0
LINE
8
0
10
2.4
20
22.9251598
11
2.4
21
23.4548937
0
LINE
8
0
10
2.4
20
23.4548937
11
2.4
21
23.8786808
0
LINE
8
0
10
2.4
20
23.8786808
11
3.89740224
21
23.8786808
0
LINE
8
0
10
3.89740224
20
23.8786808
11
16
21
23.8786808
0
LINE
8
0
10
16
20
23.8786808
11
16
21
22.9251598
0
LINE
8
0
10
16
20
22.9251598
11
16
21
22.9251598
0
LINE
8
0
10
16
20
8.2902257
11
16
21
7.2138354
0
LINE
8
0
10
16
20
7.2138354
11
16
21
5.40411985
0
LINE
8
0
10
16
20
5.40411985
11
13.9533322
21
1.66001604
0
LINE
8
0
10
13.9533322
20
1.66001604
11
13.65614
21
1.11634247
0
LINE
8
0
10
13.65614
20
1.11634247
11
10.5162218
21
1.11634247
0
LINE
8
0
10
10.5162218
20
1.11634247
11
2.4
21
1.11634247
0
LINE
8
0
10
2.4
20
1.11634247
11
2.4
21
1.95946105
0
LINE
8
0
10
2.4
20
1.95946105
11
2.4
21
6.30229715
0
LINE
8
0
10
2.4
20
6.30229715
11
2.4
21
8.2902257
0
LINE
8
0
10
2.4
20
8.2902257
11
9.33740224
21
8.2902257
0
LINE
8
0
10
9.33740224
20
8.2902257
11
16
21
8.2902257
0
LINE
8
0
10
16
20
8.2902257
11
16
21
8.2902257
0
LINE
8
0
10
16
20
53.2415086
11
16
21
52.8424739
0
LINE
8
0
10
16
20
52.8424739
11
16
21
50.9490558
0
LINE
8
0
10
16
20
50.9490558
11
16
21
48.1273988
0
LINE
8
0
10
16
20
48.1273988
11
6.34259776
21
48.1273988
0
LINE
8
0
10
6.34259776
20
48.1273988
11
2.4
21
48.1273988
0
LINE
8
0
10
2.4
20
48.1273988
11
2.4
21
49.7092489
0
LINE
8
0
10
2.4
20
49.7092489
11
2.4
21
51.28845
0
LINE
8
0
10
2.4
20
51.28845
11
2.4
21
51.8059972
0
LINE
8
0
10
2.4
20
51.8059972
11
2.4
21
53.037085
0
LINE
8
0
10
2.4
20
53.037085
11
2.4
21
55.617656
0
LINE
8
0
10
2.4
20
55.617656
11
4.82932958
21
55.617656
0
LINE
8
0
10
4.82932958
20
55.617656
11
13
21
55.617656
0
LINE
8
0
10
13
20
55.617656
11
14.9454115
21
54.07375
0
LINE
8
0
10
14.9454115
20
54.07375
11
16
21
53.2415086
0
LINE
8
0
10
16
20
53.2415086
11
16
21
53.2415086
0
ENDSEC
0
EOF
