0
SECTION
2
ENTITIES
0
LINE
8
0
10
16
20
12.9306375
11
16
21
16.5527004
0
LINE
8
0
10
16
20
16.5527004
11
16
21
23.3229396
0
LINE
8
0
10
16
20
23.3229396
11
16
21
23.4809005
0
LINE
8
0
10
16
20
23.4809005
11
2.64806062
21
23.4809005
0
LINE
8
0
10
2.64806062
20
23.4809005
11
2.4
21
23.4809005
0
LINE
8
0
10
2.4
20
23.4809005
11
2.4
21
23.4106957
0
LINE
8
0
10
2.4
20
23.4106957
11
2.4
21
23.3229396
0
LINE
8
0
10
2.4
20
23.3229396
11
2.4
21
19.2607961
0
LINE
8
0
10
2.4
20
19.2607961
11
2.4
21
16.5527004
0
LINE
8
0
10
2.4
20
16.5527004
11
2.4
21
14.9063101
0
LINE
8
0
10
2.4
20
14.9063101
11
2.4
21
12.9306375
0
LINE
8
0
10
2.4
20
12.9306375
11
10.3119394
21
12.9306375
0
LINE
8
0
10
10.3119394
20
12.9306375
11
16
21
12.9306375
0
LINE
8
0
10
16
20
12.9306375
11
16
21
12.9306375
0
LINE
8
0
10
16
20
-7.423807
11
16
21
-7.85002325
0
LINE
8
0
10
16
20
-7.85002325
11
16
21
-7.85286529
0
LINE
8
0
10
16
20
-7.85286529
11
16
21
-9.00948046
0
LINE
8
0
10
16
20
-9.00948046
11
16
21
-9.60920996
0
LINE
8
0
10
16
20
-9.60920996
11
16
21
-14
0
LINE
8
0
10
16
20
-14
11
15.9975996
21
-14.0396373
0
LINE
8
0
10
15.9975996
20
-14.0396373
11
15.9794259
21
-14.1562728
0
LINE
8
0
10
15.9794259
20
-14.1562728
11
15.93185
21
-14.51764
0
LINE
8
0
10
15.93185
20
-14.51764
11
15.8715314
21
-14.6632619
0
LINE
8
0
10
15.8715314
20
-14.6632619
11
15.73205
21
-15
0
LINE
8
0
10
15.73205
20
-15
11
15.6360958
21
-15.1250478
0
LINE
8
0
10
15.6360958
20
-15.1250478
11
15.41421
21
-15.41421
0
LINE
8
0
10
15.41421
20
-15.41421
11
15.2894007
21
-15.5100253
0
LINE
8
0
10
15.2894007
20
-15.5100253
11
15.0002385
21
-15.7319111
0
LINE
8
0
10
15.0002385
20
-15.7319111
11
14.8543781
21
-15.7923686
0
LINE
8
0
10
14.8543781
20
-15.7923686
11
14.51764
21
-15.93185
0
LINE
8
0
10
14.51764
20
-15.93185
11
14.1562728
21
-15.9794259
0
LINE
8
0
10
14.1562728
20
-15.9794259
11
14
21
-16
0
LINE
8
0
10
14
20
-16
11
5.84909387
21
-16
0
LINE
8
0
10
5.84909387
20
-16
11
4.4
21
-16
0
LINE
8
0
10
4.4
20
-16
11
4.3629682
21
-15.9968651
0
LINE
8
0
10
4.3629682
20
-15.9968651
11
4.31860037
21
-15.9892833
0
LINE
8
0
10
4.31860037
20
-15.9892833
11
4.23720068
21
-15.9785665
0
LINE
8
0
10
4.23720068
20
-15.9785665
11
3.882362
21
-15.93185
0
LINE
8
0
10
3.882362
20
-15.93185
11
3.73091219
21
-15.8691599
0
LINE
8
0
10
3.73091219
20
-15.8691599
11
3.40025506
21
-15.7321978
0
LINE
8
0
10
3.40025506
20
-15.7321978
11
3.26972796
21
-15.632088
0
LINE
8
0
10
3.26972796
20
-15.632088
11
2.985786
21
-15.41421
0
LINE
8
0
10
2.985786
20
-15.41421
11
2.88582493
21
-15.2839392
0
LINE
8
0
10
2.88582493
20
-15.2839392
11
2.667949
21
-15
0
LINE
8
0
10
2.667949
20
-15
11
2.60511075
21
-14.8482958
0
LINE
8
0
10
2.60511075
20
-14.8482958
11
2.468148
21
-14.51764
0
LINE
8
0
10
2.468148
20
-14.51764
11
2.42143283
21
-14.1628
0
LINE
8
0
10
2.42143283
20
-14.1628
11
2.4
21
-14
0
LINE
8
0
10
2.4
20
-14
11
2.4
21
-13.9610066
0
LINE
8
0
10
2.4
20
-13.9610066
11
2.4
21
-6.76122938
0
LINE
8
0
10
2.4
20
-6.76122938
11
2.4
21
-6.24590932
0
LINE
8
0
10
2.4
20
-6.24590932
11
2.4
21
-5.28513975
0
LINE
8
0
10
2.4
20
-5.28513975
11
2.4
21
-4.4127974
0
LINE
8
0
10
2.4
20
-4.4127974
11
8.96318052
21
-4.4127974
0
LINE
8
0
10
8.96318052
20
-4.4127974
11
13.65614
21
-4.4127974
0
LINE
8
0
10
13.65614
20
-4.4127974
11
14.8778736
21
-5.99913509
0
LINE
8
0
10
14.8778736
20
-5.99913509
11
16
21
-7.423807
0
LINE
8
0
10
16
20
-7.423807
11
16
21
-7.423807
0
LINE
8
0
10
16
20
69
11
16
21
67.6062271
0
LINE
8
0
10
16
20
67.6062271
11
16
21
67.4395655
0
LINE
8
0
10
16
20
67.4395655
11
16
21
67.0423113
0
LINE
8
0
10
16
20
67.0423113
11
16
21
65.9831702
0
LINE
8
0
10
16
20
65.9831702
11
16
21
62.8723035
0
LINE
8
0
10
16
20
62.8723035
11
13.7721794
21
61.1258969
0
LINE
8
0
10
13.7721794
20
61.1258969
11
13
21
60.5165648
0
LINE
8
0
10
13
20
60.5165648
11
6.80839721
21
60.5165648
0
LINE
8
0
10
6.80839721
20
60.5165648
11
2.4
21
60.5165648
0
LINE
8
0
10
2.4
20
60.5165648
11
2.4
21
63.3735059
0
LINE
8
0
10
2.4
20
63.3735059
11
2.4
21
65.2478244
0
LINE
8
0
10
2.4
20
65.2478244
11
2.4
21
69
0
LINE
8
0
10
2.4
20
69
11
2.40630143
21
69.0478645
0
LINE
8
0
10
2.40630143
20
69.0478645
11
2.468148
21
69.51764
0
LINE
8
0
10
2.468148
20
69.51764
11
2.48662296
21
69.5622423
0
LINE
8
0
10
2.48662296
20
69.5622423
11
2.667949
21
70
0
LINE
8
0
10
2.667949
20
70
11
2.69733838
21
70.0383007
0
LINE
8
0
10
2.69733838
20
70.0383007
11
2.985786
21
70.41421
0
LINE
8
0
10
2.985786
20
70.41421
11
3.02408705
21
70.4435997
0
LINE
8
0
10
3.02408705
20
70.4435997
11
3.4
21
70.73205
0
LINE
8
0
10
3.4
20
70.73205
11
3.44460248
21
70.7505249
0
LINE
8
0
10
3.44460248
20
70.7505249
11
3.882362
21
70.93185
0
LINE
8
0
10
3.882362
20
70.93185
11
4.35213566
21
70.9936984
0
LINE
8
0
10
4.35213566
20
70.9936984
11
4.4
21
71
0
LINE
8
0
10
4.4
20
71
11
4.79760735
21
71
0
LINE
8
0
10
4.79760735
20
71
11
13.9537666
21
71
0
LINE
8
0
10
13.9537666
20
71
11
14
21
71
0
LINE
8
0
10
14
20
71
11
14.0516322
21
70.9932024
0
LINE
8
0
10
14.0516322
20
70.9932024
11
14.51764
21
70.93185
0
LINE
8
0
10
14.51764
20
70.93185
11
14.5657532
21
70.9119209
0
LINE
8
0
10
14.5657532
20
70.9119209
11
15
21
70.73205
0
LINE
8
0
10
15
20
70.73205
11
15.0413155
21
70.7003469
0
LINE
8
0
10
15.0413155
20
70.7003469
11
15.41421
21
70.41421
0
LINE
8
0
10
15.41421
20
70.41421
11
15.4459131
21
70.3728945
0
LINE
8
0
10
15.4459131
20
70.3728945
11
15.73205
21
70
0
LINE
8
0
10
15.73205
20
70
11
15.7519791
21
69.9518868
0
LINE
8
0
10
15.7519791
20
69.9518868
11
15.93185
21
69.51764
0
LINE
8
0
10
15.93185
20
69.51764
11
15.9932024
21
69.0516322
0
LINE
8
0
10
15.9932024
20
69.0516322
11
16
21
69
0
LINE
8
0
10
16
20
69
11
16
21
69
0
LINE
8
0
10
16
20
32.1411604
11
16
21
31.9831995
0
LINE
8
0
10
16
20
31.9831995
11
15.7519394
21
31.9831995
0
LINE
8
0
10
15.7519394
20
31.9831995
11
2.4
21
31.9831995
0
LINE
8
0
10
2.4
20
31.9831995
11
2.4
21
32.06936
0
LINE
8
0
10
2.4
20
32.06936
11
2.4
21
32.1411604
0
LINE
8
0
10
2.4
20
32.1411604
11
2.4
21
36.2348961
0
LINE
8
0
10
2.4
20
36.2348961
11
2.4
21
39.0693604
0
LINE
8
0
10
2.4
20
39.0693604
11
2.4
21
40.5721518
0
LINE
8
0
10
2.4
20
40.5721518
11
2.4
21
42.3755015
0
LINE
8
0
10
2.4
20
42.3755015
11
10.8080606
21
42.3755015
0
LINE
8
0
10
10.8080606
20
42.3755015
11
16
21
42.3755015
0
LINE
8
0
10
16
20
42.3755015
11
16
21
39.0693604
0
LINE
8
0
10
16
20
39.0693604
11
16
21
32.457082
0
LINE
8
0
10
16
20
32.457082
11
16
21
32.1411604
0
LINE
8
0
10
16
20
32.1411604
11
16
21
32.1411604
0
LINE
8
0
10
16
20
53.2284493
11
16
21
51.4454103
0
LINE
8
0
10
16
20
51.4454103
11
16
21
47.7296185
0
LINE
8
0
10
16
20
47.7296185
11
7.59193938
21
47.7296185
0
LINE
8
0
10
7.59193938
20
47.7296185
11
2.4
21
47.7296185
0
LINE
8
0
10
2.4
20
47.7296185
11
2.4
21
49.8127298
0
LINE
8
0
10
2.4
20
49.8127298
11
2.4
21
51.8923527
0
LINE
8
0
10
2.4
20
51.8923527
11
2.4
21
52.5739017
0
LINE
8
0
10
2.4
20
52.5739017
11
2.4
21
54.1951001
0
LINE
8
0
10
2.4
20
54.1951001
11
2.4
21
55.5874194
0
LINE
8
0
10
2.4
20
55.5874194
11
8.59160279
21
55.5874194
0
LINE
8
0
10
8.59160279
20
55.5874194
11
13
21
55.5874194
0
LINE
8
0
10
13
20
55.5874194
11
14.9296272
21
54.0560401
0
LINE
8
0
10
14.9296272
20
54.0560401
11
16
21
53.2284493
0
LINE
8
0
10
16
20
53.2284493
11
16
21
53.2284493
0
LINE
8
0
10
16
20
5.6386393
11
16
21
6.61421562
0
LINE
8
0
10
16
20
6.61421562
11
16
21
7.89244599
0
LINE
8
0
10
16
20
7.89244599
11
8.08806062
21
7.89244599
0
LINE
8
0
10
8.08806062
20
7.89244599
11
2.4
21
7.89244599
0
LINE
8
0
10
2.4
20
7.89244599
11
2.4
21
6.26251914
0
LINE
8
0
10
2.4
20
6.26251914
11
2.4
21
1.80536807
0
LINE
8
0
10
2.4
20
1.80536807
11
2.4
21
1.3508621
0
LINE
8
0
10
2.4
20
1.3508621
11
11.9634818
21
1.3508621
0
LINE
8
0
10
11.9634818
20
1.3508621
11
13.65614
21
1.3508621
0
LINE
8
0
10
13.65614
20
1.3508621
11
13.8163495
21
1.6439441
0
LINE
8
0
10
13.8163495
20
1.6439441
11
16
21
5.6386393
0
LINE
8
0
10
16
20
5.6386393
11
16
21
5.6386393
0
ENDSEC
0
EOF
