0
SECTION
2
ENTITIES
0
LINE
8
0
10
16
20
53.2352783
11
16
21
52.4381192
0
LINE
8
0
10
16
20
52.4381192
11
16
21
46.934058
0
LINE
8
0
10
16
20
46.934058
11
10.0906226
21
46.934058
0
LINE
8
0
10
10.0906226
20
46.934058
11
2.4
21
46.934058
0
LINE
8
0
10
2.4
20
46.934058
11
2.4
21
50.0196916
0
LINE
8
0
10
2.4
20
50.0196916
11
2.4
21
53.100158
0
LINE
8
0
10
2.4
20
53.100158
11
2.4
21
54.1097107
0
LINE
8
0
10
2.4
20
54.1097107
11
2.4
21
55.5770342
0
LINE
8
0
10
2.4
20
55.5770342
11
5.51619737
21
55.5770342
0
LINE
8
0
10
5.51619737
20
55.5770342
11
13
21
55.5770342
0
LINE
8
0
10
13
20
55.5770342
11
14.0161005
21
54.7691896
0
LINE
8
0
10
14.0161005
20
54.7691896
11
16
21
53.2352783
0
LINE
8
0
10
16
20
53.2352783
11
16
21
53.2352783
0
LINE
8
0
10
16
20
-7.423807
11
16
21
-8.64356917
0
LINE
8
0
10
16
20
-8.64356917
11
16
21
-8.65170262
0
LINE
8
0
10
16
20
-8.65170262
11
16
21
-9.65801242
0
LINE
8
0
10
16
20
-9.65801242
11
16
21
-10.1798054
0
LINE
8
0
10
16
20
-10.1798054
11
16
21
-14
0
LINE
8
0
10
16
20
-14
11
15.9979115
21
-14.0344863
0
LINE
8
0
10
15.9979115
20
-14.0344863
11
15.9820995
21
-14.1359647
0
LINE
8
0
10
15.9820995
20
-14.1359647
11
15.93185
21
-14.51764
0
LINE
8
0
10
15.93185
20
-14.51764
11
15.87937
21
-14.6443379
0
LINE
8
0
10
15.87937
20
-14.6443379
11
15.73205
21
-15
0
LINE
8
0
10
15.73205
20
-15
11
15.6485653
21
-15.1087975
0
LINE
8
0
10
15.6485653
20
-15.1087975
11
15.41421
21
-15.41421
0
LINE
8
0
10
15.41421
20
-15.41421
11
15.30562
21
-15.4975739
0
LINE
8
0
10
15.30562
20
-15.4975739
11
15.0002075
21
-15.7319292
0
LINE
8
0
10
15.0002075
20
-15.7319292
11
14.8733021
21
-15.78453
0
LINE
8
0
10
14.8733021
20
-15.78453
11
14.51764
21
-15.93185
0
LINE
8
0
10
14.51764
20
-15.93185
11
14.1359647
21
-15.9820995
0
LINE
8
0
10
14.1359647
20
-15.9820995
11
14
21
-16
0
LINE
8
0
10
14
20
-16
11
5.66078007
21
-16
0
LINE
8
0
10
5.66078007
20
-16
11
4.4
21
-16
0
LINE
8
0
10
4.4
20
-16
11
4.36778059
21
-15.9972724
0
LINE
8
0
10
4.36778059
20
-15.9972724
11
4.32917848
21
-15.9906759
0
LINE
8
0
10
4.32917848
20
-15.9906759
11
4.2583569
21
-15.9813519
0
LINE
8
0
10
4.2583569
20
-15.9813519
11
3.882362
21
-15.93185
0
LINE
8
0
10
3.882362
20
-15.93185
11
3.75059352
21
-15.8773066
0
LINE
8
0
10
3.75059352
20
-15.8773066
11
3.40022192
21
-15.7321786
0
LINE
8
0
10
3.40022192
20
-15.7321786
11
3.28665717
21
-15.6450783
0
LINE
8
0
10
3.28665717
20
-15.6450783
11
2.985786
21
-15.41421
0
LINE
8
0
10
2.985786
20
-15.41421
11
2.89881515
21
-15.3008683
0
LINE
8
0
10
2.89881515
20
-15.3008683
11
2.667949
21
-15
0
LINE
8
0
10
2.667949
20
-15
11
2.61327675
21
-14.8680101
0
LINE
8
0
10
2.61327675
20
-14.8680101
11
2.468148
21
-14.51764
0
LINE
8
0
10
2.468148
20
-14.51764
11
2.41864758
21
-14.1416436
0
LINE
8
0
10
2.41864758
20
-14.1416436
11
2.4
21
-14
0
LINE
8
0
10
2.4
20
-14
11
2.4
21
-13.9604132
0
LINE
8
0
10
2.4
20
-13.9604132
11
2.4
21
-7.6962671
0
LINE
8
0
10
2.4
20
-7.6962671
11
2.4
21
-7.24791433
0
LINE
8
0
10
2.4
20
-7.24791433
11
2.4
21
-6.41199944
0
LINE
8
0
10
2.4
20
-6.41199944
11
2.4
21
-5.00326208
0
LINE
8
0
10
2.4
20
-5.00326208
11
2.4
21
-4.42300461
0
LINE
8
0
10
2.4
20
-4.42300461
11
5.73220796
21
-4.42300461
0
LINE
8
0
10
5.73220796
20
-4.42300461
11
13.65614
21
-4.42300461
0
LINE
8
0
10
13.65614
20
-4.42300461
11
14.5236247
21
-5.54937424
0
LINE
8
0
10
14.5236247
20
-5.54937424
11
16
21
-7.423807
0
LINE
8
0
10
16
20
-7.423807
11
16
21
-7.423807
0
LINE
8
0
10
16
20
69
11
16
21
68.4812733
0
LINE
8
0
10
16
20
68.4812733
11
16
21
68.4192461
0
LINE
8
0
10
16
20
68.4192461
11
16
21
68.2713982
0
LINE
8
0
10
16
20
68.2713982
11
16
21
67.877213
0
LINE
8
0
10
16
20
67.877213
11
16
21
65.890176
0
LINE
8
0
10
16
20
65.890176
11
16
21
62.8725775
0
LINE
8
0
10
16
20
62.8725775
11
13.6309523
21
61.0270277
0
LINE
8
0
10
13.6309523
20
61.0270277
11
13
21
60.5269487
0
LINE
8
0
10
13
20
60.5269487
11
9.88380263
21
60.5269487
0
LINE
8
0
10
9.88380263
20
60.5269487
11
2.4
21
60.5269487
0
LINE
8
0
10
2.4
20
60.5269487
11
2.4
21
61.3349145
0
LINE
8
0
10
2.4
20
61.3349145
11
2.4
21
64.0264947
0
LINE
8
0
10
2.4
20
64.0264947
11
2.4
21
66.9059626
0
LINE
8
0
10
2.4
20
66.9059626
11
2.4
21
67.603536
0
LINE
8
0
10
2.4
20
67.603536
11
2.4
21
69
0
LINE
8
0
10
2.4
20
69
11
2.40234523
21
69.017814
0
LINE
8
0
10
2.40234523
20
69.017814
11
2.468148
21
69.51764
0
LINE
8
0
10
2.468148
20
69.51764
11
2.47502391
21
69.5342398
0
LINE
8
0
10
2.47502391
20
69.5342398
11
2.667949
21
70
0
LINE
8
0
10
2.667949
20
70
11
2.67888698
21
70.0142545
0
LINE
8
0
10
2.67888698
20
70.0142545
11
2.985786
21
70.41421
0
LINE
8
0
10
2.985786
20
70.41421
11
3.00004067
21
70.4251481
0
LINE
8
0
10
3.00004067
20
70.4251481
11
3.4
21
70.73205
0
LINE
8
0
10
3.4
20
70.73205
11
3.41659991
21
70.7389259
0
LINE
8
0
10
3.41659991
20
70.7389259
11
3.882362
21
70.93185
0
LINE
8
0
10
3.882362
20
70.93185
11
4.38218611
21
70.9976547
0
LINE
8
0
10
4.38218611
20
70.9976547
11
4.4
21
71
0
LINE
8
0
10
4.4
20
71
11
4.5479793
21
71
0
LINE
8
0
10
4.5479793
20
71
11
13.9827931
21
71
0
LINE
8
0
10
13.9827931
20
71
11
14
21
71
0
LINE
8
0
10
14
20
71
11
14.0192162
21
70.9974701
0
LINE
8
0
10
14.0192162
20
70.9974701
11
14.51764
21
70.93185
0
LINE
8
0
10
14.51764
20
70.93185
11
14.5355465
21
70.9244329
0
LINE
8
0
10
14.5355465
20
70.9244329
11
15
21
70.73205
0
LINE
8
0
10
15
20
70.73205
11
15.0153766
21
70.7202509
0
LINE
8
0
10
15.0153766
20
70.7202509
11
15.41421
21
70.41421
0
LINE
8
0
10
15.41421
20
70.41421
11
15.4260091
21
70.3988334
0
LINE
8
0
10
15.4260091
20
70.3988334
11
15.73205
21
70
0
LINE
8
0
10
15.73205
20
70
11
15.7394671
21
69.9820935
0
LINE
8
0
10
15.7394671
20
69.9820935
11
15.93185
21
69.51764
0
LINE
8
0
10
15.93185
20
69.51764
11
15.9974701
21
69.0192162
0
LINE
8
0
10
15.9974701
20
69.0192162
11
16
21
69
0
LINE
8
0
10
16
20
69
11
16
21
69
0
LINE
8
0
10
16
20
15.7571408
11
16
21
13.726198
0
LINE
8
0
10
16
20
13.726198
11
12.8106226
21
13.726198
0
LINE
8
0
10
12.8106226
20
13.726198
11
2.4
21
13.726198
0
LINE
8
0
10
2.4
20
13.726198
11
2.4
21
14.8339861
0
LINE
8
0
10
2.4
20
14.8339861
11
2.4
21
15.7571408
0
LINE
8
0
10
2.4
20
15.7571408
11
2.4
21
19.1016842
0
LINE
8
0
10
2.4
20
19.1016842
11
2.4
21
22.6853408
0
LINE
8
0
10
2.4
20
22.6853408
11
2.4
21
23.3367768
0
LINE
8
0
10
2.4
20
23.3367768
11
2.4
21
24.1185
0
LINE
8
0
10
2.4
20
24.1185
11
13.7493774
21
24.1185
0
LINE
8
0
10
13.7493774
20
24.1185
11
16
21
24.1185
0
LINE
8
0
10
16
20
24.1185
11
16
21
22.6853408
0
LINE
8
0
10
16
20
22.6853408
11
16
21
19.819024
0
LINE
8
0
10
16
20
19.819024
11
16
21
15.7571408
0
LINE
8
0
10
16
20
15.7571408
11
16
21
15.7571408
0
LINE
8
0
10
16
20
32.7787592
11
16
21
31.3456
0
LINE
8
0
10
16
20
31.3456
11
4.65062261
21
31.3456
0
LINE
8
0
10
4.65062261
20
31.3456
11
2.4
21
31.3456
0
LINE
8
0
10
2.4
20
31.3456
11
2.4
21
31.9825596
0
LINE
8
0
10
2.4
20
31.9825596
11
2.4
21
32.7787592
0
LINE
8
0
10
2.4
20
32.7787592
11
2.4
21
36.0757842
0
LINE
8
0
10
2.4
20
36.0757842
11
2.4
21
38.2738008
0
LINE
8
0
10
2.4
20
38.2738008
11
2.4
21
40.4998286
0
LINE
8
0
10
2.4
20
40.4998286
11
2.4
21
43.171062
0
LINE
8
0
10
2.4
20
43.171062
11
8.30937739
21
43.171062
0
LINE
8
0
10
8.30937739
20
43.171062
11
16
21
43.171062
0
LINE
8
0
10
16
20
43.171062
11
16
21
38.2738008
0
LINE
8
0
10
16
20
38.2738008
11
16
21
32.7787592
0
LINE
8
0
10
16
20
32.7787592
11
16
21
32.7787592
0
LINE
8
0
10
16
20
7.09688656
11
16
21
5.95428096
0
LINE
8
0
10
16
20
5.95428096
11
16
21
5.71816978
0
LINE
8
0
10
16
20
5.71816978
11
13.7698958
21
1.63849377
0
LINE
8
0
10
13.7698958
20
1.63849377
11
13.65614
21
1.43039264
0
LINE
8
0
10
13.65614
20
1.43039264
11
3.60186188
21
1.43039264
0
LINE
8
0
10
3.60186188
20
1.43039264
11
2.4
21
1.43039264
0
LINE
8
0
10
2.4
20
1.43039264
11
2.4
21
2.71895395
0
LINE
8
0
10
2.4
20
2.71895395
11
2.4
21
6.18296314
0
LINE
8
0
10
2.4
20
6.18296314
11
2.4
21
7.09688656
0
LINE
8
0
10
2.4
20
7.09688656
11
5.58937739
21
7.09688656
0
LINE
8
0
10
5.58937739
20
7.09688656
11
16
21
7.09688656
0
LINE
8
0
10
16
20
7.09688656
11
16
21
7.09688656
0
ENDSEC
0
EOF
