0
SECTION
2
ENTITIES
0
LINE
8
0
10
16
20
5.48365033
11
16
21
6.00408224
0
LINE
8
0
10
16
20
6.00408224
11
16
21
6.69910684
0
LINE
8
0
10
16
20
6.69910684
11
4.34003578
21
6.69910684
0
LINE
8
0
10
4.34003578
20
6.69910684
11
2.4
21
6.69910684
0
LINE
8
0
10
2.4
20
6.69910684
11
2.4
21
6.14318513
0
LINE
8
0
10
2.4
20
6.14318513
11
2.4
21
4.03609622
0
LINE
8
0
10
2.4
20
4.03609622
11
2.4
21
1.19587301
0
LINE
8
0
10
2.4
20
1.19587301
11
5.04912192
21
1.19587301
0
LINE
8
0
10
5.04912192
20
1.19587301
11
13.65614
21
1.19587301
0
LINE
8
0
10
13.65614
20
1.19587301
11
13.9068785
21
1.65456571
0
LINE
8
0
10
13.9068785
20
1.65456571
11
16
21
5.48365033
0
LINE
8
0
10
16
20
5.48365033
11
16
21
5.48365033
0
LINE
8
0
10
16
20
-10.4651031
11
16
21
-14
0
LINE
8
0
10
16
20
-14
11
15.9980675
21
-14.0319108
0
LINE
8
0
10
15.9980675
20
-14.0319108
11
15.9834364
21
-14.1258106
0
LINE
8
0
10
15.9834364
20
-14.1258106
11
15.93185
21
-14.51764
0
LINE
8
0
10
15.93185
20
-14.51764
11
15.8832893
21
-14.634876
0
LINE
8
0
10
15.8832893
20
-14.634876
11
15.73205
21
-15
0
LINE
8
0
10
15.73205
20
-15
11
15.6548001
21
-15.1006723
0
LINE
8
0
10
15.6548001
20
-15.1006723
11
15.41421
21
-15.41421
0
LINE
8
0
10
15.41421
20
-15.41421
11
15.3137297
21
-15.4913481
0
LINE
8
0
10
15.3137297
20
-15.4913481
11
15.000192
21
-15.7319382
0
LINE
8
0
10
15.000192
20
-15.7319382
11
14.882764
21
-15.7806107
0
LINE
8
0
10
14.882764
20
-15.7806107
11
14.51764
21
-15.93185
0
LINE
8
0
10
14.51764
20
-15.93185
11
14.1258106
21
-15.9834364
0
LINE
8
0
10
14.1258106
20
-15.9834364
11
14
21
-16
0
LINE
8
0
10
14
20
-16
11
5.56662317
21
-16
0
LINE
8
0
10
5.56662317
20
-16
11
4.4
21
-16
0
LINE
8
0
10
4.4
20
-16
11
4.37018678
21
-15.9974761
0
LINE
8
0
10
4.37018678
20
-15.9974761
11
4.33446754
21
-15.9913723
0
LINE
8
0
10
4.33446754
20
-15.9913723
11
4.26893502
21
-15.9827445
0
LINE
8
0
10
4.26893502
20
-15.9827445
11
3.882362
21
-15.93185
0
LINE
8
0
10
3.882362
20
-15.93185
11
3.76043418
21
-15.88138
0
LINE
8
0
10
3.76043418
20
-15.88138
11
3.40020534
21
-15.732169
0
LINE
8
0
10
3.40020534
20
-15.732169
11
3.29512178
21
-15.6515735
0
LINE
8
0
10
3.29512178
20
-15.6515735
11
2.985786
21
-15.41421
0
LINE
8
0
10
2.985786
20
-15.41421
11
2.90531026
21
-15.3093328
0
LINE
8
0
10
2.90531026
20
-15.3093328
11
2.667949
21
-15
0
LINE
8
0
10
2.667949
20
-15
11
2.61735976
21
-14.8778673
0
LINE
8
0
10
2.61735976
20
-14.8778673
11
2.468148
21
-14.51764
0
LINE
8
0
10
2.468148
20
-14.51764
11
2.41725495
21
-14.1310655
0
LINE
8
0
10
2.41725495
20
-14.1310655
11
2.4
21
-14
0
LINE
8
0
10
2.4
20
-14
11
2.4
21
-13.9601164
0
LINE
8
0
10
2.4
20
-13.9601164
11
2.4
21
-8.16378596
0
LINE
8
0
10
2.4
20
-8.16378596
11
2.4
21
-7.74891683
0
LINE
8
0
10
2.4
20
-7.74891683
11
2.4
21
-6.97542929
0
LINE
8
0
10
2.4
20
-6.97542929
11
2.4
21
-5.67189849
0
LINE
8
0
10
2.4
20
-5.67189849
11
2.4
21
-4.39290561
0
LINE
8
0
10
2.4
20
-4.39290561
11
9.74479168
21
-4.39290561
0
LINE
8
0
10
9.74479168
20
-4.39290561
11
13.65614
21
-4.39290561
0
LINE
8
0
10
13.65614
20
-4.39290561
11
15.5682339
21
-6.87562891
0
LINE
8
0
10
15.5682339
20
-6.87562891
11
16
21
-7.423807
0
LINE
8
0
10
16
20
-7.423807
11
16
21
-9.04034213
0
LINE
8
0
10
16
20
-9.04034213
11
16
21
-9.05112128
0
LINE
8
0
10
16
20
-9.05112128
11
16
21
-9.9822784
0
LINE
8
0
10
16
20
-9.9822784
11
16
21
-10.4651031
0
LINE
8
0
10
16
20
-10.4651031
11
16
21
-10.4651031
0
LINE
8
0
10
16
20
22.287561
11
16
21
24.5162803
0
LINE
8
0
10
16
20
24.5162803
11
12.5000358
21
24.5162803
0
LINE
8
0
10
12.5000358
20
24.5162803
11
2.4
21
24.5162803
0
LINE
8
0
10
2.4
20
24.5162803
11
2.4
21
23.3006152
0
LINE
8
0
10
2.4
20
23.3006152
11
2.4
21
22.287561
0
LINE
8
0
10
2.4
20
22.287561
11
2.4
21
19.0221282
0
LINE
8
0
10
2.4
20
19.0221282
11
2.4
21
15.359361
0
LINE
8
0
10
2.4
20
15.359361
11
2.4
21
14.7978241
0
LINE
8
0
10
2.4
20
14.7978241
11
2.4
21
14.1239783
0
LINE
8
0
10
2.4
20
14.1239783
11
14.0599642
21
14.1239783
0
LINE
8
0
10
14.0599642
20
14.1239783
11
16
21
14.1239783
0
LINE
8
0
10
16
20
14.1239783
11
16
21
15.359361
0
LINE
8
0
10
16
20
15.359361
11
16
21
17.8301249
0
LINE
8
0
10
16
20
17.8301249
11
16
21
22.287561
0
LINE
8
0
10
16
20
22.287561
11
16
21
22.287561
0
LINE
8
0
10
16
20
43.5688423
11
16
21
37.876021
0
LINE
8
0
10
16
20
37.876021
11
16
21
33.176539
0
LINE
8
0
10
16
20
33.176539
11
16
21
30.9478197
0
LINE
8
0
10
16
20
30.9478197
11
5.89996422
21
30.9478197
0
LINE
8
0
10
5.89996422
20
30.9478197
11
2.4
21
30.9478197
0
LINE
8
0
10
2.4
20
30.9478197
11
2.4
21
31.9383616
0
LINE
8
0
10
2.4
20
31.9383616
11
2.4
21
33.176539
0
LINE
8
0
10
2.4
20
33.176539
11
2.4
21
35.9962282
0
LINE
8
0
10
2.4
20
35.9962282
11
2.4
21
37.876021
0
LINE
8
0
10
2.4
20
37.876021
11
2.4
21
40.463667
0
LINE
8
0
10
2.4
20
40.463667
11
2.4
21
43.5688423
0
LINE
8
0
10
2.4
20
43.5688423
11
7.06003578
21
43.5688423
0
LINE
8
0
10
7.06003578
20
43.5688423
11
16
21
43.5688423
0
LINE
8
0
10
16
20
43.5688423
11
16
21
43.5688423
0
LINE
8
0
10
16
20
69
11
16
21
68.9187964
0
LINE
8
0
10
16
20
68.9187964
11
16
21
68.9090864
0
LINE
8
0
10
16
20
68.9090864
11
16
21
68.8859417
0
LINE
8
0
10
16
20
68.8859417
11
16
21
68.8242344
0
LINE
8
0
10
16
20
68.8242344
11
16
21
68.5131755
0
LINE
8
0
10
16
20
68.5131755
11
16
21
62.8526676
0
LINE
8
0
10
16
20
62.8526676
11
14.3927306
21
61.6005629
0
LINE
8
0
10
14.3927306
20
61.6005629
11
13
21
60.4967152
0
LINE
8
0
10
13
20
60.4967152
11
6.12147127
21
60.4967152
0
LINE
8
0
10
6.12147127
20
60.4967152
11
2.4
21
60.4967152
0
LINE
8
0
10
2.4
20
60.4967152
11
2.4
21
62.280176
0
LINE
8
0
10
2.4
20
62.280176
11
2.4
21
68.2214273
0
LINE
8
0
10
2.4
20
68.2214273
11
2.4
21
68.6721909
0
LINE
8
0
10
2.4
20
68.6721909
11
2.4
21
68.7813919
0
LINE
8
0
10
2.4
20
68.7813919
11
2.4
21
69
0
LINE
8
0
10
2.4
20
69
11
2.40036713
21
69.0027887
0
LINE
8
0
10
2.40036713
20
69.0027887
11
2.468148
21
69.51764
0
LINE
8
0
10
2.468148
20
69.51764
11
2.46922438
21
69.5202386
0
LINE
8
0
10
2.46922438
20
69.5202386
11
2.667949
21
70
0
LINE
8
0
10
2.667949
20
70
11
2.66966128
21
70.0022315
0
LINE
8
0
10
2.66966128
20
70.0022315
11
2.985786
21
70.41421
0
LINE
8
0
10
2.985786
20
70.41421
11
2.98801748
21
70.4159223
0
LINE
8
0
10
2.98801748
20
70.4159223
11
3.4
21
70.73205
0
LINE
8
0
10
3.4
20
70.73205
11
3.40259862
21
70.7331264
0
LINE
8
0
10
3.40259862
20
70.7331264
11
3.882362
21
70.93185
0
LINE
8
0
10
3.882362
20
70.93185
11
4.39721134
21
70.9996329
0
LINE
8
0
10
4.39721134
20
70.9996329
11
4.4
21
71
0
LINE
8
0
10
4.4
20
71
11
4.42316528
21
71
0
LINE
8
0
10
4.42316528
20
71
11
13.9973064
21
71
0
LINE
8
0
10
13.9973064
20
71
11
14
21
71
0
LINE
8
0
10
14
20
71
11
14.0030082
21
70.999604
0
LINE
8
0
10
14.0030082
20
70.999604
11
14.51764
21
70.93185
0
LINE
8
0
10
14.51764
20
70.93185
11
14.5204432
21
70.9306889
0
LINE
8
0
10
14.5204432
20
70.9306889
11
15
21
70.73205
0
LINE
8
0
10
15
20
70.73205
11
15.0024071
21
70.7302029
0
LINE
8
0
10
15.0024071
20
70.7302029
11
15.41421
21
70.41421
0
LINE
8
0
10
15.41421
20
70.41421
11
15.4160571
21
70.4118029
0
LINE
8
0
10
15.4160571
20
70.4118029
11
15.73205
21
70
0
LINE
8
0
10
15.73205
20
70
11
15.7332111
21
69.9971968
0
LINE
8
0
10
15.7332111
20
69.9971968
11
15.93185
21
69.51764
0
LINE
8
0
10
15.93185
20
69.51764
11
15.999604
21
69.0030082
0
LINE
8
0
10
15.999604
20
69.0030082
11
16
21
69
0
LINE
8
0
10
16
20
69
11
16
21
69
0
LINE
8
0
10
16
20
46.5362777
11
16
21
52.9344737
0
LINE
8
0
10
16
20
52.9344737
11
16
21
53.2386927
0
LINE
8
0
10
16
20
53.2386927
11
15.2428862
21
53.8240779
0
LINE
8
0
10
15.2428862
20
53.8240779
11
13
21
55.6072713
0
LINE
8
0
10
13
20
55.6072713
11
9.27852873
21
55.6072713
0
LINE
8
0
10
9.27852873
20
55.6072713
11
2.4
21
55.6072713
0
LINE
8
0
10
2.4
20
55.6072713
11
2.4
21
54.8776152
0
LINE
8
0
10
2.4
20
54.8776152
11
2.4
21
53.7040607
0
LINE
8
0
10
2.4
20
53.7040607
11
2.4
21
50.1231726
0
LINE
8
0
10
2.4
20
50.1231726
11
2.4
21
46.5362777
0
LINE
8
0
10
2.4
20
46.5362777
11
11.3399642
21
46.5362777
0
LINE
8
0
10
11.3399642
20
46.5362777
11
16
21
46.5362777
0
LINE
8
0
10
16
20
46.5362777
11
16
21
46.5362777
0
ENDSEC
0
EOF
