0
SECTION
2
ENTITIES
0
LINE
8
0
10
2.62144276
20
-14.8877245
11
2.468148
21
-14.51764
0
LINE
8
0
10
2.468148
20
-14.51764
11
2.41586232
21
-14.1204873
0
LINE
8
0
10
2.41586232
20
-14.1204873
11
2.4
21
-14
0
LINE
8
0
10
2.4
20
-14
11
2.4
21
-13.9598197
0
LINE
8
0
10
2.4
20
-13.9598197
11
2.4
21
-8.63130483
0
LINE
8
0
10
2.4
20
-8.63130483
11
2.4
21
-8.24991933
0
LINE
8
0
10
2.4
20
-8.24991933
11
2.4
21
-7.53885914
0
LINE
8
0
10
2.4
20
-7.53885914
11
2.4
21
-6.34053491
0
LINE
8
0
10
2.4
20
-6.34053491
11
2.4
21
-4.3847674
0
LINE
8
0
10
2.4
20
-4.3847674
11
2.4
21
-4.37631909
0
LINE
8
0
10
2.4
20
-4.37631909
11
2.4
21
-4.37234278
0
LINE
8
0
10
2.4
20
-4.37234278
11
2.4
21
-4.36994965
0
LINE
8
0
10
2.4
20
-4.36994965
11
2.4
21
-4.36117782
0
LINE
8
0
10
2.4
20
-4.36117782
11
2.50856954
21
-4.36117782
0
LINE
8
0
10
2.50856954
20
-4.36117782
11
13.65614
21
-4.36117782
0
LINE
8
0
10
13.65614
20
-4.36117782
11
13.663511
21
-4.37139722
0
LINE
8
0
10
13.663511
20
-4.37139722
11
13.6715103
21
-4.38237322
0
LINE
8
0
10
13.6715103
20
-4.38237322
11
16
21
-7.398222
0
LINE
8
0
10
16
20
-7.398222
11
16
21
-7.74379974
0
LINE
8
0
10
16
20
-7.74379974
11
16
21
-9.43711509
0
LINE
8
0
10
16
20
-9.43711509
11
16
21
-9.45053995
0
LINE
8
0
10
16
20
-9.45053995
11
16
21
-10.3065444
0
LINE
8
0
10
16
20
-10.3065444
11
16
21
-10.7504008
0
LINE
8
0
10
16
20
-10.7504008
11
16
21
-14
0
LINE
8
0
10
16
20
-14
11
15.9982235
21
-14.0293353
0
LINE
8
0
10
15.9982235
20
-14.0293353
11
15.9847732
21
-14.1156566
0
LINE
8
0
10
15.9847732
20
-14.1156566
11
15.93185
21
-14.51764
0
LINE
8
0
10
15.93185
20
-14.51764
11
15.8872086
21
-14.625414
0
LINE
8
0
10
15.8872086
20
-14.625414
11
15.73205
21
-15
0
LINE
8
0
10
15.73205
20
-15
11
15.6610348
21
-15.0925472
0
LINE
8
0
10
15.6610348
20
-15.0925472
11
15.41421
21
-15.41421
0
LINE
8
0
10
15.41421
20
-15.41421
11
15.3218393
21
-15.4851224
0
LINE
8
0
10
15.3218393
20
-15.4851224
11
15.0001765
21
-15.7319472
0
LINE
8
0
10
15.0001765
20
-15.7319472
11
14.892226
21
-15.7766914
0
LINE
8
0
10
14.892226
20
-15.7766914
11
14.51764
21
-15.93185
0
LINE
8
0
10
14.51764
20
-15.93185
11
14.1156566
21
-15.9847732
0
LINE
8
0
10
14.1156566
20
-15.9847732
11
14
21
-16
0
LINE
8
0
10
14
20
-16
11
5.47246627
21
-16
0
LINE
8
0
10
5.47246627
20
-16
11
4.4
21
-16
0
LINE
8
0
10
4.4
20
-16
11
4.37259297
21
-15.9976798
0
LINE
8
0
10
4.37259297
20
-15.9976798
11
4.33975659
21
-15.9920686
0
LINE
8
0
10
4.33975659
20
-15.9920686
11
4.27951313
21
-15.9841372
0
LINE
8
0
10
4.27951313
20
-15.9841372
11
3.882362
21
-15.93185
0
LINE
8
0
10
3.882362
20
-15.93185
11
3.77027484
21
-15.8854534
0
LINE
8
0
10
3.77027484
20
-15.8854534
11
3.40018877
21
-15.7321594
0
LINE
8
0
10
3.40018877
20
-15.7321594
11
3.30358639
21
-15.6580687
0
LINE
8
0
10
3.30358639
20
-15.6580687
11
2.985786
21
-15.41421
0
LINE
8
0
10
2.985786
20
-15.41421
11
2.91180537
21
-15.3177973
0
LINE
8
0
10
2.91180537
20
-15.3177973
11
2.667949
21
-15
0
LINE
8
0
10
2.667949
20
-15
11
2.62144276
21
-14.8877245
0
LINE
8
0
10
2.62144276
20
-14.8877245
11
2.62144276
21
-14.8877245
0
LINE
8
0
10
16
20
62.8327578
11
16
21
66.3805399
0
LINE
8
0
10
16
20
66.3805399
11
16
21
68.9886871
0
LINE
8
0
10
16
20
68.9886871
11
15.9915782
21
69.0534645
0
LINE
8
0
10
15.9915782
20
69.0534645
11
15.93185
21
69.5071359
0
LINE
8
0
10
15.93185
20
69.5071359
11
15.7567407
21
69.9298872
0
LINE
8
0
10
15.7567407
20
69.9298872
11
15.73205
21
69.9894963
0
LINE
8
0
10
15.73205
20
69.9894963
11
15.4521347
21
70.3542827
0
LINE
8
0
10
15.4521347
20
70.3542827
11
15.41421
21
70.4037068
0
LINE
8
0
10
15.41421
20
70.4037068
11
15.0480032
21
70.684712
0
LINE
8
0
10
15.0480032
20
70.684712
11
15
21
70.7215466
0
LINE
8
0
10
15
20
70.7215466
11
14.572335
21
70.8986912
0
LINE
8
0
10
14.572335
20
70.8986912
11
14.51764
21
70.9213462
0
LINE
8
0
10
14.51764
20
70.9213462
11
14.0579101
21
70.9818721
0
LINE
8
0
10
14.0579101
20
70.9818721
11
14
21
70.9894961
0
LINE
8
0
10
14
20
70.9894961
11
5.46910391
21
70.9894961
0
LINE
8
0
10
5.46910391
20
70.9894961
11
4.4
21
70.9894961
0
LINE
8
0
10
4.4
20
70.9894961
11
3.94000875
21
70.9289356
0
LINE
8
0
10
3.94000875
20
70.9289356
11
3.882362
21
70.9213462
0
LINE
8
0
10
3.882362
20
70.9213462
11
3.4539634
21
70.7438985
0
LINE
8
0
10
3.4539634
20
70.7438985
11
3.4
21
70.7215466
0
LINE
8
0
10
3.4
20
70.7215466
11
3.03275392
21
70.4397467
0
LINE
8
0
10
3.03275392
20
70.4397467
11
2.985786
21
70.4037068
0
LINE
8
0
10
2.985786
20
70.4037068
11
2.70478345
21
70.0375
0
LINE
8
0
10
2.70478345
20
70.0375
11
2.667949
21
69.9894963
0
LINE
8
0
10
2.667949
20
69.9894963
11
2.49198826
21
69.5646915
0
LINE
8
0
10
2.49198826
20
69.5646915
11
2.468148
21
69.5071359
0
LINE
8
0
10
2.468148
20
69.5071359
11
2.40842154
21
69.0534645
0
LINE
8
0
10
2.40842154
20
69.0534645
11
2.4
21
68.9886871
0
LINE
8
0
10
2.4
20
68.9886871
11
2.4
21
63.2254375
0
LINE
8
0
10
2.4
20
63.2254375
11
2.4
21
60.4820344
0
LINE
8
0
10
2.4
20
60.4820344
11
2.4
21
60.4737605
0
LINE
8
0
10
2.4
20
60.4737605
11
2.4
21
60.4711433
0
LINE
8
0
10
2.4
20
60.4711433
11
2.4
21
60.4698098
0
LINE
8
0
10
2.4
20
60.4698098
11
2.4
21
60.4657769
0
LINE
8
0
10
2.4
20
60.4657769
11
12.9561528
21
60.4657769
0
LINE
8
0
10
12.9561528
20
60.4657769
11
13
21
60.4657769
0
LINE
8
0
10
13
20
60.4657769
11
13.0062521
21
60.4711123
0
LINE
8
0
10
13.0062521
20
60.4711123
11
13.0290706
21
60.4895224
0
LINE
8
0
10
13.0290706
20
60.4895224
11
15.1545089
21
62.1740982
0
LINE
8
0
10
15.1545089
20
62.1740982
11
16
21
62.8327578
0
LINE
8
0
10
16
20
62.8327578
11
16
21
62.8327578
0
LINE
8
0
10
16
20
24.9140606
11
16
21
21.8897812
0
LINE
8
0
10
16
20
21.8897812
11
16
21
15.8412259
0
LINE
8
0
10
16
20
15.8412259
11
16
21
14.9615812
0
LINE
8
0
10
16
20
14.9615812
11
16
21
14.5217586
0
LINE
8
0
10
16
20
14.5217586
11
15.3093058
21
14.5217586
0
LINE
8
0
10
15.3093058
20
14.5217586
11
2.4
21
14.5217586
0
LINE
8
0
10
2.4
20
14.5217586
11
2.4
21
14.761662
0
LINE
8
0
10
2.4
20
14.761662
11
2.4
21
14.9615812
0
LINE
8
0
10
2.4
20
14.9615812
11
2.4
21
18.9425722
0
LINE
8
0
10
2.4
20
18.9425722
11
2.4
21
21.8897812
0
LINE
8
0
10
2.4
20
21.8897812
11
2.4
21
23.2644536
0
LINE
8
0
10
2.4
20
23.2644536
11
2.4
21
24.9140606
0
LINE
8
0
10
2.4
20
24.9140606
11
11.2506942
21
24.9140606
0
LINE
8
0
10
11.2506942
20
24.9140606
11
16
21
24.9140606
0
LINE
8
0
10
16
20
24.9140606
11
16
21
24.9140606
0
LINE
8
0
10
16
20
5.24913087
11
16
21
6.05388353
0
LINE
8
0
10
16
20
6.05388353
11
16
21
6.30132713
0
LINE
8
0
10
16
20
6.30132713
11
3.09069416
21
6.30132713
0
LINE
8
0
10
3.09069416
20
6.30132713
11
2.4
21
6.30132713
0
LINE
8
0
10
2.4
20
6.30132713
11
2.4
21
6.10340713
0
LINE
8
0
10
2.4
20
6.10340713
11
2.4
21
5.35323848
0
LINE
8
0
10
2.4
20
5.35323848
11
2.4
21
0.961353373
0
LINE
8
0
10
2.4
20
0.961353373
11
6.49638196
21
0.961353373
0
LINE
8
0
10
6.49638196
20
0.961353373
11
13.65614
21
0.961353373
0
LINE
8
0
10
13.65614
20
0.961353373
11
14.0438612
21
1.67063765
0
LINE
8
0
10
14.0438612
20
1.67063765
11
16
21
5.24913087
0
LINE
8
0
10
16
20
5.24913087
11
16
21
5.24913087
0
LINE
8
0
10
16
20
43.9666226
11
16
21
37.4782412
0
LINE
8
0
10
16
20
37.4782412
11
16
21
33.5743188
0
LINE
8
0
10
16
20
33.5743188
11
16
21
30.5500394
0
LINE
8
0
10
16
20
30.5500394
11
7.14930584
21
30.5500394
0
LINE
8
0
10
7.14930584
20
30.5500394
11
2.4
21
30.5500394
0
LINE
8
0
10
2.4
20
30.5500394
11
2.4
21
31.8941636
0
LINE
8
0
10
2.4
20
31.8941636
11
2.4
21
33.5743188
0
LINE
8
0
10
2.4
20
33.5743188
11
2.4
21
35.9166722
0
LINE
8
0
10
2.4
20
35.9166722
11
2.4
21
37.4782412
0
LINE
8
0
10
2.4
20
37.4782412
11
2.4
21
40.4275054
0
LINE
8
0
10
2.4
20
40.4275054
11
2.4
21
43.9666226
0
LINE
8
0
10
2.4
20
43.9666226
11
5.81069416
21
43.9666226
0
LINE
8
0
10
5.81069416
20
43.9666226
11
16
21
43.9666226
0
LINE
8
0
10
16
20
43.9666226
11
16
21
43.9666226
0
LINE
8
0
10
16
20
53.2602354
11
16
21
52.2337302
0
LINE
8
0
10
16
20
52.2337302
11
16
21
46.1384974
0
LINE
8
0
10
16
20
46.1384974
11
12.5893058
21
46.1384974
0
LINE
8
0
10
12.5893058
20
46.1384974
11
2.4
21
46.1384974
0
LINE
8
0
10
2.4
20
46.1384974
11
2.4
21
50.2266535
0
LINE
8
0
10
2.4
20
50.2266535
11
2.4
21
54.3079634
0
LINE
8
0
10
2.4
20
54.3079634
11
2.4
21
55.6382131
0
LINE
8
0
10
2.4
20
55.6382131
11
2.44384721
21
55.6382131
0
LINE
8
0
10
2.44384721
20
55.6382131
11
13
21
55.6382131
0
LINE
8
0
10
13
20
55.6382131
11
13.0085852
21
55.6309276
0
LINE
8
0
10
13.0085852
20
55.6309276
11
16
21
53.2602354
0
LINE
8
0
10
16
20
53.2602354
11
16
21
53.2602354
0
ENDSEC
0
EOF
