0
SECTION
2
ENTITIES
0
LINE
8
0
10
16
20
-8.28923688
11
16
21
-7.35461161
0
LINE
8
0
10
16
20
-7.35461161
11
14.2807287
21
-5.12781959
0
LINE
8
0
10
14.2807287
20
-5.12781959
11
13.955671
21
-4.6817969
0
LINE
8
0
10
13.955671
20
-4.6817969
11
13.65614
21
-4.26651943
0
LINE
8
0
10
13.65614
20
-4.26651943
11
6.81185049
21
-4.26651943
0
LINE
8
0
10
6.81185049
20
-4.26651943
11
2.4
21
-4.26651943
0
LINE
8
0
10
2.4
20
-4.26651943
11
2.4
21
-4.62297317
0
LINE
8
0
10
2.4
20
-4.62297317
11
2.4
21
-4.72022073
0
LINE
8
0
10
2.4
20
-4.72022073
11
2.4
21
-4.8818028
0
LINE
8
0
10
2.4
20
-4.8818028
11
2.4
21
-5.22510992
0
LINE
8
0
10
2.4
20
-5.22510992
11
2.4
21
-7.00917132
0
LINE
8
0
10
2.4
20
-7.00917132
11
2.4
21
-8.10228898
0
LINE
8
0
10
2.4
20
-8.10228898
11
2.4
21
-8.75092184
0
LINE
8
0
10
2.4
20
-8.75092184
11
2.4
21
-9.09882369
0
LINE
8
0
10
2.4
20
-9.09882369
11
2.4
21
-13.959523
0
LINE
8
0
10
2.4
20
-13.959523
11
2.4
21
-14
0
LINE
8
0
10
2.4
20
-14
11
2.41446969
21
-14.1099092
0
LINE
8
0
10
2.41446969
20
-14.1099092
11
2.468148
21
-14.51764
0
LINE
8
0
10
2.468148
20
-14.51764
11
2.62552576
21
-14.8975817
0
LINE
8
0
10
2.62552576
20
-14.8975817
11
2.667949
21
-15
0
LINE
8
0
10
2.667949
20
-15
11
2.91830048
21
-15.3262618
0
LINE
8
0
10
2.91830048
20
-15.3262618
11
2.985786
21
-15.41421
0
LINE
8
0
10
2.985786
20
-15.41421
11
3.312051
21
-15.6645638
0
LINE
8
0
10
3.312051
20
-15.6645638
11
3.4001722
21
-15.7321498
0
LINE
8
0
10
3.4001722
20
-15.7321498
11
3.7801155
21
-15.8895268
0
LINE
8
0
10
3.7801155
20
-15.8895268
11
3.882362
21
-15.93185
0
LINE
8
0
10
3.882362
20
-15.93185
11
4.29009124
21
-15.9855299
0
LINE
8
0
10
4.29009124
20
-15.9855299
11
4.34504565
21
-15.9927649
0
LINE
8
0
10
4.34504565
20
-15.9927649
11
4.37499917
21
-15.9978835
0
LINE
8
0
10
4.37499917
20
-15.9978835
11
4.4
21
-16
0
LINE
8
0
10
4.4
20
-16
11
5.37830937
21
-16
0
LINE
8
0
10
5.37830937
20
-16
11
14
21
-16
0
LINE
8
0
10
14
20
-16
11
14.1055026
21
-15.98611
0
LINE
8
0
10
14.1055026
20
-15.98611
11
14.51764
21
-15.93185
0
LINE
8
0
10
14.51764
20
-15.93185
11
14.901688
21
-15.7727721
0
LINE
8
0
10
14.901688
20
-15.7727721
11
15.000161
21
-15.7319562
0
LINE
8
0
10
15.000161
20
-15.7319562
11
15.329949
21
-15.4788967
0
LINE
8
0
10
15.329949
20
-15.4788967
11
15.41421
21
-15.41421
0
LINE
8
0
10
15.41421
20
-15.41421
11
15.6672696
21
-15.084422
0
LINE
8
0
10
15.6672696
20
-15.084422
11
15.73205
21
-15
0
LINE
8
0
10
15.73205
20
-15
11
15.8911279
21
-14.615952
0
LINE
8
0
10
15.8911279
20
-14.615952
11
15.93185
21
-14.51764
0
LINE
8
0
10
15.93185
20
-14.51764
11
15.98611
21
-14.1055026
0
LINE
8
0
10
15.98611
20
-14.1055026
11
15.9983794
21
-14.0267598
0
LINE
8
0
10
15.9983794
20
-14.0267598
11
16
21
-14
0
LINE
8
0
10
16
20
-14
11
16
21
-11.0356985
0
LINE
8
0
10
16
20
-11.0356985
11
16
21
-10.6308104
0
LINE
8
0
10
16
20
-10.6308104
11
16
21
-9.84995861
0
LINE
8
0
10
16
20
-9.84995861
11
16
21
-9.83388804
0
LINE
8
0
10
16
20
-9.83388804
11
16
21
-8.28923688
0
LINE
8
0
10
16
20
-8.28923688
11
16
21
-8.28923688
0
LINE
8
0
10
16
20
6.25928458
11
16
21
5.9452157
0
LINE
8
0
10
16
20
5.9452157
11
16
21
5.01461141
0
LINE
8
0
10
16
20
5.01461141
11
14.1808438
21
1.68670958
0
LINE
8
0
10
14.1808438
20
1.68670958
11
13.65614
21
0.726833741
0
LINE
8
0
10
13.65614
20
0.726833741
11
7.943642
21
0.726833741
0
LINE
8
0
10
7.943642
20
0.726833741
11
2.4
21
0.726833741
0
LINE
8
0
10
2.4
20
0.726833741
11
2.4
21
5.44234701
0
LINE
8
0
10
2.4
20
5.44234701
11
2.4
21
6.0219698
0
LINE
8
0
10
2.4
20
6.0219698
11
2.4
21
6.25928458
0
LINE
8
0
10
2.4
20
6.25928458
11
15.4413525
21
6.25928458
0
LINE
8
0
10
15.4413525
20
6.25928458
11
16
21
6.25928458
0
LINE
8
0
10
16
20
6.25928458
11
16
21
6.25928458
0
LINE
8
0
10
16
20
30.1522592
11
16
21
33.9720986
0
LINE
8
0
10
16
20
33.9720986
11
16
21
37.0804614
0
LINE
8
0
10
16
20
37.0804614
11
16
21
44.3644028
0
LINE
8
0
10
16
20
44.3644028
11
4.56135255
21
44.3644028
0
LINE
8
0
10
4.56135255
20
44.3644028
11
2.4
21
44.3644028
0
LINE
8
0
10
2.4
20
44.3644028
11
2.4
21
40.3913439
0
LINE
8
0
10
2.4
20
40.3913439
11
2.4
21
37.0804614
0
LINE
8
0
10
2.4
20
37.0804614
11
2.4
21
35.8371163
0
LINE
8
0
10
2.4
20
35.8371163
11
2.4
21
33.9720986
0
LINE
8
0
10
2.4
20
33.9720986
11
2.4
21
31.8499656
0
LINE
8
0
10
2.4
20
31.8499656
11
2.4
21
30.1522592
0
LINE
8
0
10
2.4
20
30.1522592
11
8.39864745
21
30.1522592
0
LINE
8
0
10
8.39864745
20
30.1522592
11
16
21
30.1522592
0
LINE
8
0
10
16
20
30.1522592
11
16
21
30.1522592
0
LINE
8
0
10
16
20
62.8128479
11
16
21
63.1641168
0
LINE
8
0
10
16
20
63.1641168
11
16
21
68.974796
0
LINE
8
0
10
16
20
68.974796
11
15.9812371
21
69.1191132
0
LINE
8
0
10
15.9812371
20
69.1191132
11
15.93185
21
69.494238
0
LINE
8
0
10
15.93185
20
69.494238
11
15.7870584
21
69.843796
0
LINE
8
0
10
15.7870584
20
69.843796
11
15.73205
21
69.9765988
0
LINE
8
0
10
15.73205
20
69.9765988
11
15.4987022
21
70.2806983
0
LINE
8
0
10
15.4987022
20
70.2806983
11
15.41421
21
70.39081
0
LINE
8
0
10
15.41421
20
70.39081
11
15.1069461
21
70.6265859
0
LINE
8
0
10
15.1069461
20
70.6265859
11
15
21
70.7086496
0
LINE
8
0
10
15
20
70.7086496
11
14.6394948
21
70.8579757
0
LINE
8
0
10
14.6394948
20
70.8579757
11
14.51764
21
70.9084487
0
LINE
8
0
10
14.51764
20
70.9084487
11
14.1290176
21
70.9596128
0
LINE
8
0
10
14.1290176
20
70.9596128
11
14
21
70.9765983
0
LINE
8
0
10
14
20
70.9765983
11
6.78185168
21
70.9765983
0
LINE
8
0
10
6.78185168
20
70.9765983
11
4.4
21
70.9765983
0
LINE
8
0
10
4.4
20
70.9765983
11
4.01079293
21
70.925357
0
LINE
8
0
10
4.01079293
20
70.925357
11
3.882362
21
70.9084487
0
LINE
8
0
10
3.882362
20
70.9084487
11
3.52022481
21
70.7584472
0
LINE
8
0
10
3.52022481
20
70.7584472
11
3.4
21
70.7086496
0
LINE
8
0
10
3.4
20
70.7086496
11
3.0904256
21
70.471103
0
LINE
8
0
10
3.0904256
20
70.471103
11
2.985786
21
70.39081
0
LINE
8
0
10
2.985786
20
70.39081
11
2.75001229
21
70.0835461
0
LINE
8
0
10
2.75001229
20
70.0835461
11
2.667949
21
69.9765988
0
LINE
8
0
10
2.667949
20
69.9765988
11
2.52126161
21
69.6224658
0
LINE
8
0
10
2.52126161
20
69.6224658
11
2.468148
21
69.494238
0
LINE
8
0
10
2.468148
20
69.494238
11
2.41876231
21
69.1191132
0
LINE
8
0
10
2.41876231
20
69.1191132
11
2.4
21
68.974796
0
LINE
8
0
10
2.4
20
68.974796
11
2.4
21
64.170699
0
LINE
8
0
10
2.4
20
64.170699
11
2.4
21
61.8838685
0
LINE
8
0
10
2.4
20
61.8838685
11
2.4
21
61.1137483
0
LINE
8
0
10
2.4
20
61.1137483
11
2.4
21
60.8701439
0
LINE
8
0
10
2.4
20
60.8701439
11
2.4
21
60.7460228
0
LINE
8
0
10
2.4
20
60.7460228
11
2.4
21
60.370647
0
LINE
8
0
10
2.4
20
60.370647
11
8.9187724
21
60.370647
0
LINE
8
0
10
8.9187724
20
60.370647
11
13
21
60.370647
0
LINE
8
0
10
13
20
60.370647
11
13.5819381
21
60.8672571
0
LINE
8
0
10
13.5819381
20
60.8672571
11
15.7058458
21
62.5808422
0
LINE
8
0
10
15.7058458
20
62.5808422
11
15.9162872
21
62.7476335
0
LINE
8
0
10
15.9162872
20
62.7476335
11
16
21
62.8128479
0
LINE
8
0
10
16
20
62.8128479
11
16
21
62.8128479
0
LINE
8
0
10
16
20
49.6032584
11
16
21
45.7407172
0
LINE
8
0
10
16
20
45.7407172
11
13.8386475
21
45.7407172
0
LINE
8
0
10
13.8386475
20
45.7407172
11
2.4
21
45.7407172
0
LINE
8
0
10
2.4
20
45.7407172
11
2.4
21
50.3301344
0
LINE
8
0
10
2.4
20
50.3301344
11
2.4
21
54.9118661
0
LINE
8
0
10
2.4
20
54.9118661
11
2.4
21
55.7333391
0
LINE
8
0
10
2.4
20
55.7333391
11
6.4812276
21
55.7333391
0
LINE
8
0
10
6.4812276
20
55.7333391
11
13
21
55.7333391
0
LINE
8
0
10
13
20
55.7333391
11
13.7990932
21
55.0552164
0
LINE
8
0
10
13.7990932
20
55.0552164
11
16
21
53.3110007
0
LINE
8
0
10
16
20
53.3110007
11
16
21
49.6032584
0
LINE
8
0
10
16
20
49.6032584
11
16
21
49.6032584
0
LINE
8
0
10
16
20
21.4920014
11
16
21
25.3118408
0
LINE
8
0
10
16
20
25.3118408
11
10.0013525
21
25.3118408
0
LINE
8
0
10
10.0013525
20
25.3118408
11
2.4
21
25.3118408
0
LINE
8
0
10
2.4
20
25.3118408
11
2.4
21
23.228292
0
LINE
8
0
10
2.4
20
23.228292
11
2.4
21
21.4920014
0
LINE
8
0
10
2.4
20
21.4920014
11
2.4
21
18.8630163
0
LINE
8
0
10
2.4
20
18.8630163
11
2.4
21
14.9195386
0
LINE
8
0
10
2.4
20
14.9195386
11
2.4
21
14.7219067
0
LINE
8
0
10
2.4
20
14.7219067
11
2.4
21
14.5638012
0
LINE
8
0
10
2.4
20
14.5638012
11
2.95864745
21
14.5638012
0
LINE
8
0
10
2.95864745
20
14.5638012
11
16
21
14.5638012
0
LINE
8
0
10
16
20
14.5638012
11
16
21
14.9195386
0
LINE
8
0
10
16
20
14.9195386
11
16
21
21.4920014
0
LINE
8
0
10
16
20
21.4920014
11
16
21
21.4920014
0
ENDSEC
0
EOF
