0
SECTION
2
ENTITIES
0
LINE
8
0
10
16
20
-10.9644382
11
16
21
-13.1340291
0
LINE
8
0
10
16
20
-13.1340291
11
15.9468125
21
-13.5922804
0
LINE
8
0
10
15.9468125
20
-13.5922804
11
15.93185
21
-13.7091253
0
LINE
8
0
10
15.93185
20
-13.7091253
11
15.8933188
21
-13.8083853
0
LINE
8
0
10
15.8933188
20
-13.8083853
11
15.73205
21
-14.2238319
0
LINE
8
0
10
15.73205
20
-14.2238319
11
15.6289733
21
-14.3671703
0
LINE
8
0
10
15.6289733
20
-14.3671703
11
15.41421
21
-14.6658145
0
LINE
8
0
10
15.41421
20
-14.6658145
11
15.2388367
21
-14.8094078
0
LINE
8
0
10
15.2388367
20
-14.8094078
11
15
21
-15.004966
0
LINE
8
0
10
15
20
-15.004966
11
14.7642878
21
-15.1091483
0
LINE
8
0
10
14.7642878
20
-15.1091483
11
14.51764
21
-15.2181612
0
LINE
8
0
10
14.51764
20
-15.2181612
11
14.247922
21
-15.2560516
0
LINE
8
0
10
14.247922
20
-15.2560516
11
14
21
-15.2908799
0
LINE
8
0
10
14
20
-15.2908799
11
8.91912029
21
-15.2908799
0
LINE
8
0
10
8.91912029
20
-15.2908799
11
4.4
21
-15.2908799
0
LINE
8
0
10
4.4
20
-15.2908799
11
4.12944216
21
-15.2528714
0
LINE
8
0
10
4.12944216
20
-15.2528714
11
3.882362
21
-15.2181612
0
LINE
8
0
10
3.882362
20
-15.2181612
11
3.64307548
21
-15.1123994
0
LINE
8
0
10
3.64307548
20
-15.1123994
11
3.4
21
-15.004966
0
LINE
8
0
10
3.4
20
-15.004966
11
3.21618277
21
-14.8544605
0
LINE
8
0
10
3.21618277
20
-14.8544605
11
2.985786
21
-14.6658145
0
LINE
8
0
10
2.985786
20
-14.6658145
11
2.86875713
21
-14.5030723
0
LINE
8
0
10
2.86875713
20
-14.5030723
11
2.667949
21
-14.2238319
0
LINE
8
0
10
2.667949
20
-14.2238319
11
2.6136489
21
-14.0839504
0
LINE
8
0
10
2.6136489
20
-14.0839504
11
2.468148
21
-13.7091253
0
LINE
8
0
10
2.468148
20
-13.7091253
11
2.45318591
21
-13.5922804
0
LINE
8
0
10
2.45318591
20
-13.5922804
11
2.4
21
-13.1340291
0
LINE
8
0
10
2.4
20
-13.1340291
11
2.4
21
-12.0256577
0
LINE
8
0
10
2.4
20
-12.0256577
11
2.4
21
-9.93646695
0
LINE
8
0
10
2.4
20
-9.93646695
11
2.4
21
-9.6592334
0
LINE
8
0
10
2.4
20
-9.6592334
11
2.4
21
-8.18060225
0
LINE
8
0
10
2.4
20
-8.18060225
11
2.4
21
-7.09090221
0
LINE
8
0
10
2.4
20
-7.09090221
11
2.4
21
-6.70216949
0
LINE
8
0
10
2.4
20
-6.70216949
11
2.4
21
-5.85486746
0
LINE
8
0
10
2.4
20
-5.85486746
11
2.4
21
-5.15087403
0
LINE
8
0
10
2.4
20
-5.15087403
11
2.4
21
-4.73171114
0
LINE
8
0
10
2.4
20
-4.73171114
11
2.4
21
-4.14063625
0
LINE
8
0
10
2.4
20
-4.14063625
11
2.4
21
-3.69056161
0
LINE
8
0
10
2.4
20
-3.69056161
11
2.4
21
-3.17105173
0
LINE
8
0
10
2.4
20
-3.17105173
11
2.4
21
-2.68380308
0
LINE
8
0
10
2.4
20
-2.68380308
11
2.4
21
-2.22846888
0
LINE
8
0
10
2.4
20
-2.22846888
11
2.4
21
-1.76001526
0
LINE
8
0
10
2.4
20
-1.76001526
11
2.4
21
-1.30326989
0
LINE
8
0
10
2.4
20
-1.30326989
11
2.4
21
-0.888152185
0
LINE
8
0
10
2.4
20
-0.888152185
11
2.4
21
-0.555485589
0
LINE
8
0
10
2.4
20
-0.555485589
11
2.4
21
3.23015378
0
LINE
8
0
10
2.4
20
3.23015378
11
2.4
21
7.63175682
0
LINE
8
0
10
2.4
20
7.63175682
11
2.4
21
13.088756
0
LINE
8
0
10
2.4
20
13.088756
11
2.4
21
14.6126604
0
LINE
8
0
10
2.4
20
14.6126604
11
4.71482137
21
14.6126604
0
LINE
8
0
10
4.71482137
20
14.6126604
11
16
21
14.6126604
0
LINE
8
0
10
16
20
14.6126604
11
16
21
13.088756
0
LINE
8
0
10
16
20
13.088756
11
16
21
0.0817154769
0
LINE
8
0
10
16
20
0.0817154769
11
16
21
-0.809943236
0
LINE
8
0
10
16
20
-0.809943236
11
16
21
-1.80023794
0
LINE
8
0
10
16
20
-1.80023794
11
16
21
-1.84146677
0
LINE
8
0
10
16
20
-1.84146677
11
16
21
-1.88487499
0
LINE
8
0
10
16
20
-1.88487499
11
16
21
-1.93356005
0
LINE
8
0
10
16
20
-1.93356005
11
16
21
-1.99212145
0
LINE
8
0
10
16
20
-1.99212145
11
16
21
-2.06862471
0
LINE
8
0
10
16
20
-2.06862471
11
16
21
-3.13141638
0
LINE
8
0
10
16
20
-3.13141638
11
16
21
-3.267477
0
LINE
8
0
10
16
20
-3.267477
11
16
21
-3.49412478
0
LINE
8
0
10
16
20
-3.49412478
11
16
21
-4.87954792
0
LINE
8
0
10
16
20
-4.87954792
11
16
21
-5.61970944
0
LINE
8
0
10
16
20
-5.61970944
11
16
21
-7.21638422
0
LINE
8
0
10
16
20
-7.21638422
11
16
21
-9.90257147
0
LINE
8
0
10
16
20
-9.90257147
11
16
21
-10.9644382
0
LINE
8
0
10
16
20
-10.9644382
11
16
21
-10.9644382
0
LINE
8
0
10
16
20
61.2200071
11
16
21
62.2560267
0
LINE
8
0
10
16
20
62.2560267
11
16
21
64.3998368
0
LINE
8
0
10
16
20
64.3998368
11
16
21
65.2567403
0
LINE
8
0
10
16
20
65.2567403
11
16
21
67.8718253
0
LINE
8
0
10
16
20
67.8718253
11
15.9658138
21
68.1671288
0
LINE
8
0
10
15.9658138
20
68.1671288
11
15.93185
21
68.4380851
0
LINE
8
0
10
15.93185
20
68.4380851
11
15.8356687
21
68.6890232
0
LINE
8
0
10
15.8356687
20
68.6890232
11
15.73205
21
68.9593724
0
LINE
8
0
10
15.73205
20
68.9593724
11
15.6120233
21
69.1284171
0
LINE
8
0
10
15.6120233
20
69.1284171
11
15.41421
21
69.4070104
0
LINE
8
0
10
15.41421
20
69.4070104
11
15.292633
21
69.5078283
0
LINE
8
0
10
15.292633
20
69.5078283
11
15
21
69.7504947
0
LINE
8
0
10
15
20
69.7504947
11
14.8882083
21
69.8005359
0
LINE
8
0
10
14.8882083
20
69.8005359
11
14.51764
21
69.9664176
0
LINE
8
0
10
14.51764
20
69.9664176
11
14.4165671
21
69.980798
0
LINE
8
0
10
14.4165671
20
69.980798
11
14
21
70.0400624
0
LINE
8
0
10
14
20
70.0400624
11
12.2374315
21
70.0400624
0
LINE
8
0
10
12.2374315
20
70.0400624
11
4.4
21
70.0400624
0
LINE
8
0
10
4.4
20
70.0400624
11
4.30311778
21
70.0262783
0
LINE
8
0
10
4.30311778
20
70.0262783
11
3.882362
21
69.9664176
0
LINE
8
0
10
3.882362
20
69.9664176
11
3.78067904
21
69.9209015
0
LINE
8
0
10
3.78067904
20
69.9209015
11
3.4
21
69.7504947
0
LINE
8
0
10
3.4
20
69.7504947
11
3.2884723
21
69.6580111
0
LINE
8
0
10
3.2884723
20
69.6580111
11
2.985786
21
69.4070104
0
LINE
8
0
10
2.985786
20
69.4070104
11
2.86993936
21
69.2438516
0
LINE
8
0
10
2.86993936
20
69.2438516
11
2.667949
21
68.9593724
0
LINE
8
0
10
2.667949
20
68.9593724
11
2.56884959
21
68.7008213
0
LINE
8
0
10
2.56884959
20
68.7008213
11
2.468148
21
68.4380851
0
LINE
8
0
10
2.468148
20
68.4380851
11
2.43418522
21
68.1671288
0
LINE
8
0
10
2.43418522
20
68.1671288
11
2.4
21
67.8718253
0
LINE
8
0
10
2.4
20
67.8718253
11
2.4
21
66.5464971
0
LINE
8
0
10
2.4
20
66.5464971
11
2.4
21
66.3976948
0
LINE
8
0
10
2.4
20
66.3976948
11
2.4
21
64.5910594
0
LINE
8
0
10
2.4
20
64.5910594
11
2.4
21
63.3507565
0
LINE
8
0
10
2.4
20
63.3507565
11
2.4
21
62.9986912
0
LINE
8
0
10
2.4
20
62.9986912
11
2.4
21
62.0615232
0
LINE
8
0
10
2.4
20
62.0615232
11
2.4
21
61.3129097
0
LINE
8
0
10
2.4
20
61.3129097
11
2.4
21
60.9072037
0
LINE
8
0
10
2.4
20
60.9072037
11
2.4
21
60.2898381
0
LINE
8
0
10
2.4
20
60.2898381
11
2.4
21
59.8484773
0
LINE
8
0
10
2.4
20
59.8484773
11
2.4
21
59.3146752
0
LINE
8
0
10
2.4
20
59.3146752
11
2.4
21
58.8259881
0
LINE
8
0
10
2.4
20
58.8259881
11
2.4
21
58.3723843
0
LINE
8
0
10
2.4
20
58.3723843
11
2.4
21
57.9090887
0
LINE
8
0
10
2.4
20
57.9090887
11
2.4
21
57.4535718
0
LINE
8
0
10
2.4
20
57.4535718
11
2.4
21
56.9869041
0
LINE
8
0
10
2.4
20
56.9869041
11
2.4
21
56.5509061
0
LINE
8
0
10
2.4
20
56.5509061
11
2.4
21
56.1886048
0
LINE
8
0
10
2.4
20
56.1886048
11
2.4
21
55.9281492
0
LINE
8
0
10
2.4
20
55.9281492
11
2.4
21
52.5032336
0
LINE
8
0
10
2.4
20
52.5032336
11
2.4
21
49.028278
0
LINE
8
0
10
2.4
20
49.028278
11
2.4
21
42.3616341
0
LINE
8
0
10
2.4
20
42.3616341
11
2.4
21
37.3873376
0
LINE
8
0
10
2.4
20
37.3873376
11
8.24517863
21
37.3873376
0
LINE
8
0
10
8.24517863
20
37.3873376
11
16
21
37.3873376
0
LINE
8
0
10
16
20
37.3873376
11
16
21
42.3616341
0
LINE
8
0
10
16
20
42.3616341
11
16
21
55.9860383
0
LINE
8
0
10
16
20
55.9860383
11
16
21
56.8045215
0
LINE
8
0
10
16
20
56.8045215
11
16
21
57.6909195
0
LINE
8
0
10
16
20
57.6909195
11
16
21
57.8471068
0
LINE
8
0
10
16
20
57.8471068
11
16
21
58.0073442
0
LINE
8
0
10
16
20
58.0073442
11
16
21
58.1810588
0
LINE
8
0
10
16
20
58.1810588
11
16
21
58.3812391
0
LINE
8
0
10
16
20
58.3812391
11
16
21
58.6288907
0
LINE
8
0
10
16
20
58.6288907
11
16
21
58.9634564
0
LINE
8
0
10
16
20
58.9634564
11
16
21
59.8413822
0
LINE
8
0
10
16
20
59.8413822
11
16
21
60.3337717
0
LINE
8
0
10
16
20
60.3337717
11
16
21
61.2200071
0
LINE
8
0
10
16
20
61.2200071
11
16
21
61.2200071
0
LINE
8
0
10
16
20
21.7988796
11
16
21
23.2729195
0
LINE
8
0
10
16
20
23.2729195
11
16
21
28.7270805
0
LINE
8
0
10
16
20
28.7270805
11
16
21
33.6652224
0
LINE
8
0
10
16
20
33.6652224
11
10.1548214
21
33.6652224
0
LINE
8
0
10
10.1548214
20
33.6652224
11
2.4
21
33.6652224
0
LINE
8
0
10
2.4
20
33.6652224
11
2.4
21
30.9716904
0
LINE
8
0
10
2.4
20
30.9716904
11
2.4
21
28.7270805
0
LINE
8
0
10
2.4
20
28.7270805
11
2.4
21
26.5454161
0
LINE
8
0
10
2.4
20
26.5454161
11
2.4
21
23.2729195
0
LINE
8
0
10
2.4
20
23.2729195
11
2.4
21
22.4540085
0
LINE
8
0
10
2.4
20
22.4540085
11
2.4
21
21.7988796
0
LINE
8
0
10
2.4
20
21.7988796
11
13.6851786
21
21.7988796
0
LINE
8
0
10
13.6851786
20
21.7988796
11
16
21
21.7988796
0
LINE
8
0
10
16
20
21.7988796
11
16
21
21.7988796
0
ENDSEC
0
EOF
