0
SECTION
2
ENTITIES
0
LINE
8
0
10
16
20
45.3429369
11
16
21
46.9727866
0
LINE
8
0
10
16
20
46.9727866
11
16
21
53.3617661
0
LINE
8
0
10
16
20
53.3617661
11
14.5896012
21
54.4795053
0
LINE
8
0
10
14.5896012
20
54.4795053
11
13
21
55.8284651
0
LINE
8
0
10
13
20
55.8284651
11
10.518608
21
55.8284651
0
LINE
8
0
10
10.518608
20
55.8284651
11
2.4
21
55.8284651
0
LINE
8
0
10
2.4
20
55.8284651
11
2.4
21
55.5157687
0
LINE
8
0
10
2.4
20
55.5157687
11
2.4
21
50.4336153
0
LINE
8
0
10
2.4
20
50.4336153
11
2.4
21
45.3429369
0
LINE
8
0
10
2.4
20
45.3429369
11
15.0879891
21
45.3429369
0
LINE
8
0
10
15.0879891
20
45.3429369
11
16
21
45.3429369
0
LINE
8
0
10
16
20
45.3429369
11
16
21
45.3429369
0
LINE
8
0
10
16
20
-7.31100122
11
16
21
-8.83467402
0
LINE
8
0
10
16
20
-8.83467402
11
16
21
-10.230661
0
LINE
8
0
10
16
20
-10.230661
11
16
21
-10.2493773
0
LINE
8
0
10
16
20
-10.2493773
11
16
21
-10.9550763
0
LINE
8
0
10
16
20
-10.9550763
11
16
21
-11.3209963
0
LINE
8
0
10
16
20
-11.3209963
11
16
21
-14
0
LINE
8
0
10
16
20
-14
11
15.9985354
21
-14.0241843
0
LINE
8
0
10
15.9985354
20
-14.0241843
11
15.9874469
21
-14.0953485
0
LINE
8
0
10
15.9874469
20
-14.0953485
11
15.93185
21
-14.51764
0
LINE
8
0
10
15.93185
20
-14.51764
11
15.8950471
21
-14.60649
0
LINE
8
0
10
15.8950471
20
-14.60649
11
15.73205
21
-15
0
LINE
8
0
10
15.73205
20
-15
11
15.6735043
21
-15.0762969
0
LINE
8
0
10
15.6735043
20
-15.0762969
11
15.41421
21
-15.41421
0
LINE
8
0
10
15.41421
20
-15.41421
11
15.3380587
21
-15.4726709
0
LINE
8
0
10
15.3380587
20
-15.4726709
11
15.0001455
21
-15.7319653
0
LINE
8
0
10
15.0001455
20
-15.7319653
11
14.91115
21
-15.7688529
0
LINE
8
0
10
14.91115
20
-15.7688529
11
14.51764
21
-15.93185
0
LINE
8
0
10
14.51764
20
-15.93185
11
14.0953485
21
-15.9874469
0
LINE
8
0
10
14.0953485
20
-15.9874469
11
14
21
-16
0
LINE
8
0
10
14
20
-16
11
5.28415248
21
-16
0
LINE
8
0
10
5.28415248
20
-16
11
4.4
21
-16
0
LINE
8
0
10
4.4
20
-16
11
4.37740536
21
-15.9980872
0
LINE
8
0
10
4.37740536
20
-15.9980872
11
4.3503347
21
-15.9934613
0
LINE
8
0
10
4.3503347
20
-15.9934613
11
4.30066936
21
-15.9869226
0
LINE
8
0
10
4.30066936
20
-15.9869226
11
3.882362
21
-15.93185
0
LINE
8
0
10
3.882362
20
-15.93185
11
3.78995617
21
-15.8936001
0
LINE
8
0
10
3.78995617
20
-15.8936001
11
3.40015562
21
-15.7321402
0
LINE
8
0
10
3.40015562
20
-15.7321402
11
3.32051561
21
-15.671059
0
LINE
8
0
10
3.32051561
20
-15.671059
11
2.985786
21
-15.41421
0
LINE
8
0
10
2.985786
20
-15.41421
11
2.92479559
21
-15.3347264
0
LINE
8
0
10
2.92479559
20
-15.3347264
11
2.667949
21
-15
0
LINE
8
0
10
2.667949
20
-15
11
2.62960877
21
-14.9074389
0
LINE
8
0
10
2.62960877
20
-14.9074389
11
2.468148
21
-14.51764
0
LINE
8
0
10
2.468148
20
-14.51764
11
2.41307706
21
-14.099331
0
LINE
8
0
10
2.41307706
20
-14.099331
11
2.4
21
-14
0
LINE
8
0
10
2.4
20
-14
11
2.4
21
-13.9592263
0
LINE
8
0
10
2.4
20
-13.9592263
11
2.4
21
-9.56634255
0
LINE
8
0
10
2.4
20
-9.56634255
11
2.4
21
-9.25192434
0
LINE
8
0
10
2.4
20
-9.25192434
11
2.4
21
-8.66571883
0
LINE
8
0
10
2.4
20
-8.66571883
11
2.4
21
-7.67780773
0
LINE
8
0
10
2.4
20
-7.67780773
11
2.4
21
-6.06545243
0
LINE
8
0
10
2.4
20
-6.06545243
11
2.4
21
-5.38728652
0
LINE
8
0
10
2.4
20
-5.38728652
11
2.4
21
-5.06809868
0
LINE
8
0
10
2.4
20
-5.06809868
11
2.4
21
-4.87599668
0
LINE
8
0
10
2.4
20
-4.87599668
11
2.4
21
-4.17186104
0
LINE
8
0
10
2.4
20
-4.17186104
11
11.1151314
21
-4.17186104
0
LINE
8
0
10
11.1151314
20
-4.17186104
11
13.65614
21
-4.17186104
0
LINE
8
0
10
13.65614
20
-4.17186104
11
14.2478309
21
-4.99219658
0
LINE
8
0
10
14.2478309
20
-4.99219658
11
14.8899471
21
-5.87326596
0
LINE
8
0
10
14.8899471
20
-5.87326596
11
16
21
-7.31100122
0
LINE
8
0
10
16
20
-7.31100122
11
16
21
-7.31100122
0
LINE
8
0
10
16
20
36.6826816
11
16
21
44.7621831
0
LINE
8
0
10
16
20
44.7621831
11
3.31201093
21
44.7621831
0
LINE
8
0
10
3.31201093
20
44.7621831
11
2.4
21
44.7621831
0
LINE
8
0
10
2.4
20
44.7621831
11
2.4
21
40.3551823
0
LINE
8
0
10
2.4
20
40.3551823
11
2.4
21
36.6826816
0
LINE
8
0
10
2.4
20
36.6826816
11
2.4
21
35.7575603
0
LINE
8
0
10
2.4
20
35.7575603
11
2.4
21
34.3698784
0
LINE
8
0
10
2.4
20
34.3698784
11
2.4
21
31.8057676
0
LINE
8
0
10
2.4
20
31.8057676
11
2.4
21
29.7544789
0
LINE
8
0
10
2.4
20
29.7544789
11
9.64798907
21
29.7544789
0
LINE
8
0
10
9.64798907
20
29.7544789
11
16
21
29.7544789
0
LINE
8
0
10
16
20
29.7544789
11
16
21
34.3698784
0
LINE
8
0
10
16
20
34.3698784
11
16
21
36.6826816
0
LINE
8
0
10
16
20
36.6826816
11
16
21
36.6826816
0
LINE
8
0
10
16
20
4.78009196
11
16
21
5.64062163
0
LINE
8
0
10
16
20
5.64062163
11
16
21
6.6570643
0
LINE
8
0
10
16
20
6.6570643
11
14.1920109
21
6.6570643
0
LINE
8
0
10
14.1920109
20
6.6570643
11
2.4
21
6.6570643
0
LINE
8
0
10
2.4
20
6.6570643
11
2.4
21
5.88902618
0
LINE
8
0
10
2.4
20
5.88902618
11
2.4
21
4.01315319
0
LINE
8
0
10
2.4
20
4.01315319
11
2.4
21
0.492314109
0
LINE
8
0
10
2.4
20
0.492314109
11
9.39090203
21
0.492314109
0
LINE
8
0
10
9.39090203
20
0.492314109
11
13.65614
21
0.492314109
0
LINE
8
0
10
13.65614
20
0.492314109
11
14.3178265
21
1.70278152
0
LINE
8
0
10
14.3178265
20
1.70278152
11
16
21
4.78009196
0
LINE
8
0
10
16
20
4.78009196
11
16
21
4.78009196
0
LINE
8
0
10
16
20
15.3173184
11
16
21
14.1660209
0
LINE
8
0
10
16
20
14.1660209
11
4.20798907
21
14.1660209
0
LINE
8
0
10
4.20798907
20
14.1660209
11
2.4
21
14.1660209
0
LINE
8
0
10
2.4
20
14.1660209
11
2.4
21
14.6777087
0
LINE
8
0
10
2.4
20
14.6777087
11
2.4
21
15.3173184
0
LINE
8
0
10
2.4
20
15.3173184
11
2.4
21
18.7834603
0
LINE
8
0
10
2.4
20
18.7834603
11
2.4
21
21.0942216
0
LINE
8
0
10
2.4
20
21.0942216
11
2.4
21
23.1921304
0
LINE
8
0
10
2.4
20
23.1921304
11
2.4
21
25.7096211
0
LINE
8
0
10
2.4
20
25.7096211
11
8.75201093
21
25.7096211
0
LINE
8
0
10
8.75201093
20
25.7096211
11
16
21
25.7096211
0
LINE
8
0
10
16
20
25.7096211
11
16
21
21.0942216
0
LINE
8
0
10
16
20
21.0942216
11
16
21
15.3173184
0
LINE
8
0
10
16
20
15.3173184
11
16
21
15.3173184
0
LINE
8
0
10
16
20
62.7498451
11
16
21
63.918038
0
LINE
8
0
10
16
20
63.918038
11
16
21
68.960905
0
LINE
8
0
10
16
20
68.960905
11
15.9708961
21
69.184762
0
LINE
8
0
10
15.9708961
20
69.184762
11
15.93185
21
69.4813401
0
LINE
8
0
10
15.93185
20
69.4813401
11
15.817376
21
69.7577049
0
LINE
8
0
10
15.817376
20
69.7577049
11
15.73205
21
69.9637013
0
LINE
8
0
10
15.73205
20
69.9637013
11
15.5452698
21
70.2071138
0
LINE
8
0
10
15.5452698
20
70.2071138
11
15.41421
21
70.3779131
0
LINE
8
0
10
15.41421
20
70.3779131
11
15.165889
21
70.5684598
0
LINE
8
0
10
15.165889
20
70.5684598
11
15
21
70.6957526
0
LINE
8
0
10
15
20
70.6957526
11
14.7066546
21
70.8172602
0
LINE
8
0
10
14.7066546
20
70.8172602
11
14.51764
21
70.8955511
0
LINE
8
0
10
14.51764
20
70.8955511
11
14.2001251
21
70.9373536
0
LINE
8
0
10
14.2001251
20
70.9373536
11
14
21
70.9637006
0
LINE
8
0
10
14
20
70.9637006
11
8.09459945
21
70.9637006
0
LINE
8
0
10
8.09459945
20
70.9637006
11
4.4
21
70.9637006
0
LINE
8
0
10
4.4
20
70.9637006
11
4.08157711
21
70.9217784
0
LINE
8
0
10
4.08157711
20
70.9217784
11
3.882362
21
70.8955511
0
LINE
8
0
10
3.882362
20
70.8955511
11
3.58648622
21
70.7729959
0
LINE
8
0
10
3.58648622
20
70.7729959
11
3.4
21
70.6957526
0
LINE
8
0
10
3.4
20
70.6957526
11
3.14809729
21
70.5024594
0
LINE
8
0
10
3.14809729
20
70.5024594
11
2.985786
21
70.3779131
0
LINE
8
0
10
2.985786
20
70.3779131
11
2.79524114
21
70.1295922
0
LINE
8
0
10
2.79524114
20
70.1295922
11
2.667949
21
69.9637013
0
LINE
8
0
10
2.667949
20
69.9637013
11
2.55053496
21
69.68024
0
LINE
8
0
10
2.55053496
20
69.68024
11
2.468148
21
69.4813401
0
LINE
8
0
10
2.468148
20
69.4813401
11
2.42910309
21
69.184762
0
LINE
8
0
10
2.42910309
20
69.184762
11
2.4
21
68.960905
0
LINE
8
0
10
2.4
20
68.960905
11
2.4
21
65.1159605
0
LINE
8
0
10
2.4
20
65.1159605
11
2.4
21
63.2857027
0
LINE
8
0
10
2.4
20
63.2857027
11
2.4
21
61.7537362
0
LINE
8
0
10
2.4
20
61.7537362
11
2.4
21
61.2691446
0
LINE
8
0
10
2.4
20
61.2691446
11
2.4
21
61.0222359
0
LINE
8
0
10
2.4
20
61.0222359
11
2.4
21
60.2755172
0
LINE
8
0
10
2.4
20
60.2755172
11
4.88139201
21
60.2755172
0
LINE
8
0
10
4.88139201
20
60.2755172
11
13
21
60.2755172
0
LINE
8
0
10
13
20
60.2755172
11
14.157624
21
61.2634019
0
LINE
8
0
10
14.157624
20
61.2634019
11
16
21
62.7498451
0
LINE
8
0
10
16
20
62.7498451
11
16
21
62.7498451
0
ENDSEC
0
EOF
