0
SECTION
2
ENTITIES
0
LINE
8
0
10
16
20
-11.2793423
11
16
21
-11.606294
0
LINE
8
0
10
16
20
-11.606294
11
16
21
-14
0
LINE
8
0
10
16
20
-14
11
15.9986914
21
-14.0216089
0
LINE
8
0
10
15.9986914
20
-14.0216089
11
15.9887837
21
-14.0851945
0
LINE
8
0
10
15.9887837
20
-14.0851945
11
15.93185
21
-14.51764
0
LINE
8
0
10
15.93185
20
-14.51764
11
15.8989664
21
-14.597028
0
LINE
8
0
10
15.8989664
20
-14.597028
11
15.73205
21
-15
0
LINE
8
0
10
15.73205
20
-15
11
15.6797391
21
-15.0681717
0
LINE
8
0
10
15.6797391
20
-15.0681717
11
15.41421
21
-15.41421
0
LINE
8
0
10
15.41421
20
-15.41421
11
15.3461683
21
-15.4664452
0
LINE
8
0
10
15.3461683
20
-15.4664452
11
15.00013
21
-15.7319743
0
LINE
8
0
10
15.00013
20
-15.7319743
11
14.920612
21
-15.7649336
0
LINE
8
0
10
14.920612
20
-15.7649336
11
14.51764
21
-15.93185
0
LINE
8
0
10
14.51764
20
-15.93185
11
14.0851945
21
-15.9887837
0
LINE
8
0
10
14.0851945
20
-15.9887837
11
14
21
-16
0
LINE
8
0
10
14
20
-16
11
5.18999558
21
-16
0
LINE
8
0
10
5.18999558
20
-16
11
4.4
21
-16
0
LINE
8
0
10
4.4
20
-16
11
4.37981155
21
-15.9982909
0
LINE
8
0
10
4.37981155
20
-15.9982909
11
4.35562376
21
-15.9941576
0
LINE
8
0
10
4.35562376
20
-15.9941576
11
4.31124747
21
-15.9883152
0
LINE
8
0
10
4.31124747
20
-15.9883152
11
3.882362
21
-15.93185
0
LINE
8
0
10
3.882362
20
-15.93185
11
3.79979683
21
-15.8976735
0
LINE
8
0
10
3.79979683
20
-15.8976735
11
3.40013905
21
-15.7321306
0
LINE
8
0
10
3.40013905
20
-15.7321306
11
3.32898021
21
-15.6775542
0
LINE
8
0
10
3.32898021
20
-15.6775542
11
2.985786
21
-15.41421
0
LINE
8
0
10
2.985786
20
-15.41421
11
2.9312907
21
-15.3431909
0
LINE
8
0
10
2.9312907
20
-15.3431909
11
2.667949
21
-15
0
LINE
8
0
10
2.667949
20
-15
11
2.63369177
21
-14.9172961
0
LINE
8
0
10
2.63369177
20
-14.9172961
11
2.468148
21
-14.51764
0
LINE
8
0
10
2.468148
20
-14.51764
11
2.41168443
21
-14.0887529
0
LINE
8
0
10
2.41168443
20
-14.0887529
11
2.4
21
-14
0
LINE
8
0
10
2.4
20
-14
11
2.4
21
-13.9589296
0
LINE
8
0
10
2.4
20
-13.9589296
11
2.4
21
-10.0338614
0
LINE
8
0
10
2.4
20
-10.0338614
11
2.4
21
-9.75292684
0
LINE
8
0
10
2.4
20
-9.75292684
11
2.4
21
-9.22914868
0
LINE
8
0
10
2.4
20
-9.22914868
11
2.4
21
-8.34644414
0
LINE
8
0
10
2.4
20
-8.34644414
11
2.4
21
-6.90579495
0
LINE
8
0
10
2.4
20
-6.90579495
11
2.4
21
-5.89277023
0
LINE
8
0
10
2.4
20
-5.89277023
11
2.4
21
-5.41597663
0
LINE
8
0
10
2.4
20
-5.41597663
11
2.4
21
-5.12902019
0
LINE
8
0
10
2.4
20
-5.12902019
11
2.4
21
-4.23292349
0
LINE
8
0
10
2.4
20
-4.23292349
11
2.4
21
-4.20172609
0
LINE
8
0
10
2.4
20
-4.20172609
11
2.4
21
-4.17873468
0
LINE
8
0
10
2.4
20
-4.17873468
11
2.4
21
-4.04423444
0
LINE
8
0
10
2.4
20
-4.04423444
11
4.44911112
21
-4.04423444
0
LINE
8
0
10
4.44911112
20
-4.04423444
11
13.65614
21
-4.04423444
0
LINE
8
0
10
13.65614
20
-4.04423444
11
13.7604515
21
-4.21333103
0
LINE
8
0
10
13.7604515
20
-4.21333103
11
13.8336667
21
-4.32333025
0
LINE
8
0
10
13.8336667
20
-4.32333025
11
14.5399908
21
-5.30259626
0
LINE
8
0
10
14.5399908
20
-5.30259626
11
15.4991655
21
-6.61871233
0
LINE
8
0
10
15.4991655
20
-6.61871233
11
16
21
-7.26739082
0
LINE
8
0
10
16
20
-7.26739082
11
16
21
-9.38011116
0
LINE
8
0
10
16
20
-9.38011116
11
16
21
-10.627434
0
LINE
8
0
10
16
20
-10.627434
11
16
21
-10.6487959
0
LINE
8
0
10
16
20
-10.6487959
11
16
21
-11.2793423
0
LINE
8
0
10
16
20
-11.2793423
11
16
21
-11.2793423
0
LINE
8
0
10
16
20
47.2040041
11
16
21
45.532505
0
LINE
8
0
10
16
20
45.532505
11
16
21
45.3531996
0
LINE
8
0
10
16
20
45.3531996
11
16
21
44.9451568
0
LINE
8
0
10
16
20
44.9451568
11
16
21
43.8711238
0
LINE
8
0
10
16
20
43.8711238
11
16
21
36.2849018
0
LINE
8
0
10
16
20
36.2849018
11
16
21
34.7676582
0
LINE
8
0
10
16
20
34.7676582
11
16
21
29.3566986
0
LINE
8
0
10
16
20
29.3566986
11
10.8973307
21
29.3566986
0
LINE
8
0
10
10.8973307
20
29.3566986
11
2.4
21
29.3566986
0
LINE
8
0
10
2.4
20
29.3566986
11
2.4
21
31.7615696
0
LINE
8
0
10
2.4
20
31.7615696
11
2.4
21
34.7676582
0
LINE
8
0
10
2.4
20
34.7676582
11
2.4
21
35.6780044
0
LINE
8
0
10
2.4
20
35.6780044
11
2.4
21
36.2849018
0
LINE
8
0
10
2.4
20
36.2849018
11
2.4
21
40.3190207
0
LINE
8
0
10
2.4
20
40.3190207
11
2.4
21
44.9451568
0
LINE
8
0
10
2.4
20
44.9451568
11
2.4
21
45.1082668
0
LINE
8
0
10
2.4
20
45.1082668
11
2.4
21
50.5370962
0
LINE
8
0
10
2.4
20
50.5370962
11
2.4
21
55.8877495
0
LINE
8
0
10
2.4
20
55.8877495
11
2.4
21
55.9548454
0
LINE
8
0
10
2.4
20
55.9548454
11
4.21203407
21
55.9548454
0
LINE
8
0
10
4.21203407
20
55.9548454
11
13
21
55.9548454
0
LINE
8
0
10
13
20
55.9548454
11
13.1355129
21
55.8208472
0
LINE
8
0
10
13.1355129
20
55.8208472
11
13.2282305
21
55.7321334
0
LINE
8
0
10
13.2282305
20
55.7321334
11
13.9885627
21
55.0846817
0
LINE
8
0
10
13.9885627
20
55.0846817
11
15.3801092
21
53.9037941
0
LINE
8
0
10
15.3801092
20
53.9037941
11
16
21
53.4125315
0
LINE
8
0
10
16
20
53.4125315
11
16
21
47.2040041
0
LINE
8
0
10
16
20
47.2040041
11
16
21
47.2040041
0
LINE
8
0
10
16
20
26.1074014
11
16
21
20.6964418
0
LINE
8
0
10
16
20
20.6964418
11
16
21
15.7150982
0
LINE
8
0
10
16
20
15.7150982
11
16
21
13.7682406
0
LINE
8
0
10
16
20
13.7682406
11
5.45733068
21
13.7682406
0
LINE
8
0
10
5.45733068
20
13.7682406
11
2.4
21
13.7682406
0
LINE
8
0
10
2.4
20
13.7682406
11
2.4
21
14.6335107
0
LINE
8
0
10
2.4
20
14.6335107
11
2.4
21
15.7150982
0
LINE
8
0
10
2.4
20
15.7150982
11
2.4
21
18.7039044
0
LINE
8
0
10
2.4
20
18.7039044
11
2.4
21
20.6964418
0
LINE
8
0
10
2.4
20
20.6964418
11
2.4
21
23.1559689
0
LINE
8
0
10
2.4
20
23.1559689
11
2.4
21
26.1074014
0
LINE
8
0
10
2.4
20
26.1074014
11
7.50266932
21
26.1074014
0
LINE
8
0
10
7.50266932
20
26.1074014
11
16
21
26.1074014
0
LINE
8
0
10
16
20
26.1074014
11
16
21
26.1074014
0
LINE
8
0
10
16
20
5.33602757
11
16
21
4.5455725
0
LINE
8
0
10
16
20
4.5455725
11
14.4548092
21
1.71885346
0
LINE
8
0
10
14.4548092
20
1.71885346
11
13.65614
21
0.257794477
0
LINE
8
0
10
13.65614
20
0.257794477
11
10.8381621
21
0.257794477
0
LINE
8
0
10
10.8381621
20
0.257794477
11
2.4
21
0.257794477
0
LINE
8
0
10
2.4
20
0.257794477
11
2.4
21
2.58395937
0
LINE
8
0
10
2.4
20
2.58395937
11
2.4
21
5.75608256
0
LINE
8
0
10
2.4
20
5.75608256
11
2.4
21
7.05484401
0
LINE
8
0
10
2.4
20
7.05484401
11
12.9426693
21
7.05484401
0
LINE
8
0
10
12.9426693
20
7.05484401
11
16
21
7.05484401
0
LINE
8
0
10
16
20
7.05484401
11
16
21
5.33602757
0
LINE
8
0
10
16
20
5.33602757
11
16
21
5.33602757
0
LINE
8
0
10
16
20
68.9470139
11
16
21
65.162131
0
LINE
8
0
10
16
20
65.162131
11
16
21
62.6815221
0
LINE
8
0
10
16
20
62.6815221
11
14.7333099
21
61.6595468
0
LINE
8
0
10
14.7333099
20
61.6595468
11
13.4471447
21
60.5619685
0
LINE
8
0
10
13.4471447
20
60.5619685
11
13.1821504
21
60.3294544
0
LINE
8
0
10
13.1821504
20
60.3294544
11
13
21
60.1491346
0
LINE
8
0
10
13
20
60.1491346
11
11.1879659
21
60.1491346
0
LINE
8
0
10
11.1879659
20
60.1491346
11
2.4
21
60.1491346
0
LINE
8
0
10
2.4
20
60.1491346
11
2.4
21
60.2793503
0
LINE
8
0
10
2.4
20
60.2793503
11
2.4
21
60.3040084
0
LINE
8
0
10
2.4
20
60.3040084
11
2.4
21
60.3399256
0
LINE
8
0
10
2.4
20
60.3399256
11
2.4
21
61.2984489
0
LINE
8
0
10
2.4
20
61.2984489
11
2.4
21
61.6681452
0
LINE
8
0
10
2.4
20
61.6681452
11
2.4
21
62.3937241
0
LINE
8
0
10
2.4
20
62.3937241
11
2.4
21
64.6875368
0
LINE
8
0
10
2.4
20
64.6875368
11
2.4
21
66.061222
0
LINE
8
0
10
2.4
20
66.061222
11
2.4
21
68.9470139
0
LINE
8
0
10
2.4
20
68.9470139
11
2.43944386
21
69.2504108
0
LINE
8
0
10
2.43944386
20
69.2504108
11
2.468148
21
69.4684423
0
LINE
8
0
10
2.468148
20
69.4684423
11
2.57980831
21
69.7380143
0
LINE
8
0
10
2.57980831
20
69.7380143
11
2.667949
21
69.9508038
0
LINE
8
0
10
2.667949
20
69.9508038
11
2.84046999
21
70.1756383
0
LINE
8
0
10
2.84046999
20
70.1756383
11
2.985786
21
70.3650163
0
LINE
8
0
10
2.985786
20
70.3650163
11
3.20576898
21
70.5338157
0
LINE
8
0
10
3.20576898
20
70.5338157
11
3.4
21
70.6828556
0
LINE
8
0
10
3.4
20
70.6828556
11
3.65274763
21
70.7875446
0
LINE
8
0
10
3.65274763
20
70.7875446
11
3.882362
21
70.8826536
0
LINE
8
0
10
3.882362
20
70.8826536
11
4.15236129
21
70.9181998
0
LINE
8
0
10
4.15236129
20
70.9181998
11
4.4
21
70.9508028
0
LINE
8
0
10
4.4
20
70.9508028
11
9.40734722
21
70.9508028
0
LINE
8
0
10
9.40734722
20
70.9508028
11
14
21
70.9508028
0
LINE
8
0
10
14
20
70.9508028
11
14.2712326
21
70.9150944
0
LINE
8
0
10
14.2712326
20
70.9150944
11
14.51764
21
70.8826536
0
LINE
8
0
10
14.51764
20
70.8826536
11
14.7738143
21
70.7765447
0
LINE
8
0
10
14.7738143
20
70.7765447
11
15
21
70.6828556
0
LINE
8
0
10
15
20
70.6828556
11
15.224832
21
70.5103337
0
LINE
8
0
10
15.224832
20
70.5103337
11
15.41421
21
70.3650163
0
LINE
8
0
10
15.41421
20
70.3650163
11
15.5918373
21
70.1335293
0
LINE
8
0
10
15.5918373
20
70.1335293
11
15.73205
21
69.9508038
0
LINE
8
0
10
15.73205
20
69.9508038
11
15.8476936
21
69.6716137
0
LINE
8
0
10
15.8476936
20
69.6716137
11
15.93185
21
69.4684423
0
LINE
8
0
10
15.93185
20
69.4684423
11
15.960555
21
69.2504108
0
LINE
8
0
10
15.960555
20
69.2504108
11
16
21
68.9470139
0
LINE
8
0
10
16
20
68.9470139
11
16
21
68.9470139
0
ENDSEC
0
EOF
