0
SECTION
2
ENTITIES
0
LINE
8
0
10
16
20
35.4893421
11
16
21
35.1938391
0
LINE
8
0
10
16
20
35.1938391
11
16
21
28.5611381
0
LINE
8
0
10
16
20
28.5611381
11
13.3960139
21
28.5611381
0
LINE
8
0
10
13.3960139
20
28.5611381
11
2.4
21
28.5611381
0
LINE
8
0
10
2.4
20
28.5611381
11
2.4
21
31.6731735
0
LINE
8
0
10
2.4
20
31.6731735
11
2.4
21
35.4893421
0
LINE
8
0
10
2.4
20
35.4893421
11
15.8839861
21
35.4893421
0
LINE
8
0
10
15.8839861
20
35.4893421
11
16
21
35.4893421
0
LINE
8
0
10
16
20
35.4893421
11
16
21
35.4893421
0
LINE
8
0
10
16
20
-14
11
16
21
-12.1768894
0
LINE
8
0
10
16
20
-12.1768894
11
16
21
-11.9278743
0
LINE
8
0
10
16
20
-11.9278743
11
16
21
-11.4476333
0
LINE
8
0
10
16
20
-11.4476333
11
16
21
-11.4209799
0
LINE
8
0
10
16
20
-11.4209799
11
16
21
-10.4709854
0
LINE
8
0
10
16
20
-10.4709854
11
16
21
-8.27820768
0
LINE
8
0
10
16
20
-8.27820768
11
16
21
-7.1249587
0
LINE
8
0
10
16
20
-7.1249587
11
15.1243106
21
-5.92339562
0
LINE
8
0
10
15.1243106
20
-5.92339562
11
14.7006691
21
-5.33604804
0
LINE
8
0
10
14.7006691
20
-5.33604804
11
14.2698868
21
-4.68883616
0
LINE
8
0
10
14.2698868
20
-4.68883616
11
13.7100684
21
-3.78132981
0
LINE
8
0
10
13.7100684
20
-3.78132981
11
13.6927757
21
-3.75129386
0
LINE
8
0
10
13.6927757
20
-3.75129386
11
13.65614
21
-3.67445233
0
LINE
8
0
10
13.65614
20
-3.67445233
11
3.43992792
21
-3.67445233
0
LINE
8
0
10
3.43992792
20
-3.67445233
11
2.4
21
-3.67445233
0
LINE
8
0
10
2.4
20
-3.67445233
11
2.4
21
-3.73524719
0
LINE
8
0
10
2.4
20
-3.73524719
11
2.4
21
-3.74180959
0
LINE
8
0
10
2.4
20
-3.74180959
11
2.4
21
-3.74970788
0
LINE
8
0
10
2.4
20
-3.74970788
11
2.4
21
-4.48527863
0
LINE
8
0
10
2.4
20
-4.48527863
11
2.4
21
-4.62055516
0
LINE
8
0
10
2.4
20
-4.62055516
11
2.4
21
-4.80411401
0
LINE
8
0
10
2.4
20
-4.80411401
11
2.4
21
-5.63506722
0
LINE
8
0
10
2.4
20
-5.63506722
11
2.4
21
-6.11173253
0
LINE
8
0
10
2.4
20
-6.11173253
11
2.4
21
-6.90373765
0
LINE
8
0
10
2.4
20
-6.90373765
11
2.4
21
-8.58647997
0
LINE
8
0
10
2.4
20
-8.58647997
11
2.4
21
-9.68371697
0
LINE
8
0
10
2.4
20
-9.68371697
11
2.4
21
-10.3560084
0
LINE
8
0
10
2.4
20
-10.3560084
11
2.4
21
-10.7549318
0
LINE
8
0
10
2.4
20
-10.7549318
11
2.4
21
-10.9688991
0
LINE
8
0
10
2.4
20
-10.9688991
11
2.4
21
-13.9583361
0
LINE
8
0
10
2.4
20
-13.9583361
11
2.4
21
-14
0
LINE
8
0
10
2.4
20
-14
11
2.40889918
21
-14.0675966
0
LINE
8
0
10
2.40889918
20
-14.0675966
11
2.468148
21
-14.51764
0
LINE
8
0
10
2.468148
20
-14.51764
11
2.64185778
21
-14.9370105
0
LINE
8
0
10
2.64185778
20
-14.9370105
11
2.667949
21
-15
0
LINE
8
0
10
2.667949
20
-15
11
2.94428092
21
-15.36012
0
LINE
8
0
10
2.94428092
20
-15.36012
11
2.985786
21
-15.41421
0
LINE
8
0
10
2.985786
20
-15.41421
11
3.34590943
21
-15.6905445
0
LINE
8
0
10
3.34590943
20
-15.6905445
11
3.40010591
21
-15.7321114
0
LINE
8
0
10
3.40010591
20
-15.7321114
11
3.81947816
21
-15.9058203
0
LINE
8
0
10
3.81947816
20
-15.9058203
11
3.882362
21
-15.93185
0
LINE
8
0
10
3.882362
20
-15.93185
11
4.3324037
21
-15.9911006
0
LINE
8
0
10
4.3324037
20
-15.9911006
11
4.36620186
21
-15.9955503
0
LINE
8
0
10
4.36620186
20
-15.9955503
11
4.38462394
21
-15.9986983
0
LINE
8
0
10
4.38462394
20
-15.9986983
11
4.4
21
-16
0
LINE
8
0
10
4.4
20
-16
11
5.00168178
21
-16
0
LINE
8
0
10
5.00168178
20
-16
11
14
21
-16
0
LINE
8
0
10
14
20
-16
11
14.0648864
21
-15.9914574
0
LINE
8
0
10
14.0648864
20
-15.9914574
11
14.51764
21
-15.93185
0
LINE
8
0
10
14.51764
20
-15.93185
11
14.939536
21
-15.757095
0
LINE
8
0
10
14.939536
20
-15.757095
11
15.000099
21
-15.7319923
0
LINE
8
0
10
15.000099
20
-15.7319923
11
15.3623876
21
-15.4539937
0
LINE
8
0
10
15.3623876
20
-15.4539937
11
15.41421
21
-15.41421
0
LINE
8
0
10
15.41421
20
-15.41421
11
15.6922086
21
-15.0519214
0
LINE
8
0
10
15.6922086
20
-15.0519214
11
15.73205
21
-15
0
LINE
8
0
10
15.73205
20
-15
11
15.906805
21
-14.578104
0
LINE
8
0
10
15.906805
20
-14.578104
11
15.93185
21
-14.51764
0
LINE
8
0
10
15.93185
20
-14.51764
11
15.9914574
21
-14.0648864
0
LINE
8
0
10
15.9914574
20
-14.0648864
11
15.9990033
21
-14.0164579
0
LINE
8
0
10
15.9990033
20
-14.0164579
11
16
21
-14
0
LINE
8
0
10
16
20
-14
11
16
21
-14
0
LINE
8
0
10
16
20
4.07653359
11
16
21
4.72683943
0
LINE
8
0
10
16
20
4.72683943
11
16
21
7.85040344
0
LINE
8
0
10
16
20
7.85040344
11
10.4439861
21
7.85040344
0
LINE
8
0
10
10.4439861
20
7.85040344
11
2.4
21
7.85040344
0
LINE
8
0
10
2.4
20
7.85040344
11
2.4
21
5.49019532
0
LINE
8
0
10
2.4
20
5.49019532
11
2.4
21
-0.199947692
0
LINE
8
0
10
2.4
20
-0.199947692
11
2.4
21
-0.214998811
0
LINE
8
0
10
2.4
20
-0.214998811
11
13.305967
21
-0.214998811
0
LINE
8
0
10
13.305967
20
-0.214998811
11
13.65614
21
-0.214998811
0
LINE
8
0
10
13.65614
20
-0.214998811
11
13.6663353
21
-0.193194133
0
LINE
8
0
10
13.6663353
20
-0.193194133
11
13.6694219
21
-0.186947286
0
LINE
8
0
10
13.6694219
20
-0.186947286
11
14.7287745
21
1.75099733
0
LINE
8
0
10
14.7287745
20
1.75099733
11
16
21
4.07653359
0
LINE
8
0
10
16
20
4.07653359
11
16
21
4.07653359
0
LINE
8
0
10
16
20
12.9726801
11
16
21
16.5106578
0
LINE
8
0
10
16
20
16.5106578
11
16
21
19.9008822
0
LINE
8
0
10
16
20
19.9008822
11
16
21
26.9029619
0
LINE
8
0
10
16
20
26.9029619
11
5.00398609
21
26.9029619
0
LINE
8
0
10
5.00398609
20
26.9029619
11
2.4
21
26.9029619
0
LINE
8
0
10
2.4
20
26.9029619
11
2.4
21
23.0836457
0
LINE
8
0
10
2.4
20
23.0836457
11
2.4
21
19.9008822
0
LINE
8
0
10
2.4
20
19.9008822
11
2.4
21
18.5447924
0
LINE
8
0
10
2.4
20
18.5447924
11
2.4
21
16.5106578
0
LINE
8
0
10
2.4
20
16.5106578
11
2.4
21
14.5451147
0
LINE
8
0
10
2.4
20
14.5451147
11
2.4
21
12.9726801
0
LINE
8
0
10
2.4
20
12.9726801
11
7.95601391
21
12.9726801
0
LINE
8
0
10
7.95601391
20
12.9726801
11
16
21
12.9726801
0
LINE
8
0
10
16
20
12.9726801
11
16
21
12.9726801
0
LINE
8
0
10
16
20
53.5771121
11
16
21
49.0875639
0
LINE
8
0
10
16
20
49.0875639
11
16
21
47.580104
0
LINE
8
0
10
16
20
47.580104
11
16
21
44.1495972
0
LINE
8
0
10
16
20
44.1495972
11
16
21
35.5632179
0
LINE
8
0
10
16
20
35.5632179
11
2.51601391
21
35.5632179
0
LINE
8
0
10
2.51601391
20
35.5632179
11
2.4
21
35.5632179
0
LINE
8
0
10
2.4
20
35.5632179
11
2.4
21
40.2466975
0
LINE
8
0
10
2.4
20
40.2466975
11
2.4
21
44.1495972
0
LINE
8
0
10
2.4
20
44.1495972
11
2.4
21
45.5208996
0
LINE
8
0
10
2.4
20
45.5208996
11
2.4
21
50.7440581
0
LINE
8
0
10
2.4
20
50.7440581
11
2.4
21
55.8920021
0
LINE
8
0
10
2.4
20
55.8920021
11
2.4
21
56.2834893
0
LINE
8
0
10
2.4
20
56.2834893
11
2.4
21
56.3234028
0
LINE
8
0
10
2.4
20
56.3234028
11
3.20216592
21
56.3234028
0
LINE
8
0
10
3.20216592
20
56.3234028
11
13
21
56.3234028
0
LINE
8
0
10
13
20
56.3234028
11
13.0428233
21
56.2679483
0
LINE
8
0
10
13.0428233
20
56.2679483
11
13.0625651
21
56.2454246
0
LINE
8
0
10
13.0625651
20
56.2454246
11
13.8387532
21
55.477912
0
LINE
8
0
10
13.8387532
20
55.477912
11
14.4126268
21
54.9288206
0
LINE
8
0
10
14.4126268
20
54.9288206
11
16
21
53.5771121
0
LINE
8
0
10
16
20
53.5771121
11
16
21
53.5771121
0
LINE
8
0
10
16
20
68.9192318
11
16
21
67.650317
0
LINE
8
0
10
16
20
67.650317
11
16
21
62.5448761
0
LINE
8
0
10
16
20
62.5448761
11
15.8846817
21
62.4518364
0
LINE
8
0
10
15.8846817
20
62.4518364
11
15.7675905
21
62.351914
0
LINE
8
0
10
15.7675905
20
62.351914
11
14.1274152
21
60.9127742
0
LINE
8
0
10
14.1274152
20
60.9127742
11
13.0959576
21
59.8916828
0
LINE
8
0
10
13.0959576
20
59.8916828
11
13.0532759
21
59.8485521
0
LINE
8
0
10
13.0532759
20
59.8485521
11
13.0391416
21
59.8309189
0
LINE
8
0
10
13.0391416
20
59.8309189
11
13
21
59.7805772
0
LINE
8
0
10
13
20
59.7805772
11
12.1978341
21
59.7805772
0
LINE
8
0
10
12.1978341
20
59.7805772
11
2.4
21
59.7805772
0
LINE
8
0
10
2.4
20
59.7805772
11
2.4
21
59.8311708
0
LINE
8
0
10
2.4
20
59.8311708
11
2.4
21
59.8368918
0
LINE
8
0
10
2.4
20
59.8368918
11
2.4
21
59.8440538
0
LINE
8
0
10
2.4
20
59.8440538
11
2.4
21
60.6026562
0
LINE
8
0
10
2.4
20
60.6026562
11
2.4
21
60.755277
0
LINE
8
0
10
2.4
20
60.755277
11
2.4
21
60.9775856
0
LINE
8
0
10
2.4
20
60.9775856
11
2.4
21
61.8508751
0
LINE
8
0
10
2.4
20
61.8508751
11
2.4
21
62.4661465
0
LINE
8
0
10
2.4
20
62.4661465
11
2.4
21
63.6736998
0
LINE
8
0
10
2.4
20
63.6736998
11
2.4
21
67.4912051
0
LINE
8
0
10
2.4
20
67.4912051
11
2.4
21
67.951745
0
LINE
8
0
10
2.4
20
67.951745
11
2.4
21
68.9192318
0
LINE
8
0
10
2.4
20
68.9192318
11
2.46012541
21
69.3817083
0
LINE
8
0
10
2.46012541
20
69.3817083
11
2.468148
21
69.4426465
0
LINE
8
0
10
2.468148
20
69.4426465
11
2.63835501
21
69.8535629
0
LINE
8
0
10
2.63835501
20
69.8535629
11
2.667949
21
69.9250088
0
LINE
8
0
10
2.667949
20
69.9250088
11
2.93092768
21
70.2677304
0
LINE
8
0
10
2.93092768
20
70.2677304
11
2.985786
21
70.3392226
0
LINE
8
0
10
2.985786
20
70.3392226
11
3.32111235
21
70.5965284
0
LINE
8
0
10
3.32111235
20
70.5965284
11
3.4
21
70.6570615
0
LINE
8
0
10
3.4
20
70.6570615
11
3.78527046
21
70.8166421
0
LINE
8
0
10
3.78527046
20
70.8166421
11
3.882362
21
70.8568585
0
LINE
8
0
10
3.882362
20
70.8568585
11
4.29392965
21
70.9110426
0
LINE
8
0
10
4.29392965
20
70.9110426
11
4.4
21
70.9250073
0
LINE
8
0
10
4.4
20
70.9250073
11
12.0328428
21
70.9250073
0
LINE
8
0
10
12.0328428
20
70.9250073
11
14
21
70.9250073
0
LINE
8
0
10
14
20
70.9250073
11
14.4134476
21
70.870576
0
LINE
8
0
10
14.4134476
20
70.870576
11
14.51764
21
70.8568585
0
LINE
8
0
10
14.51764
20
70.8568585
11
14.9081339
21
70.6951137
0
LINE
8
0
10
14.9081339
20
70.6951137
11
15
21
70.6570615
0
LINE
8
0
10
15
20
70.6570615
11
15.3427178
21
70.3940815
0
LINE
8
0
10
15.3427178
20
70.3940815
11
15.41421
21
70.3392226
0
LINE
8
0
10
15.41421
20
70.3392226
11
15.6849724
21
69.9863604
0
LINE
8
0
10
15.6849724
20
69.9863604
11
15.73205
21
69.9250088
0
LINE
8
0
10
15.73205
20
69.9250088
11
15.9083289
21
69.4994314
0
LINE
8
0
10
15.9083289
20
69.4994314
11
15.93185
21
69.4426465
0
LINE
8
0
10
15.93185
20
69.4426465
11
15.9398728
21
69.3817083
0
LINE
8
0
10
15.9398728
20
69.3817083
11
16
21
68.9192318
0
LINE
8
0
10
16
20
68.9192318
11
16
21
68.9192318
0
ENDSEC
0
EOF
