0
SECTION
2
ENTITIES
0
LINE
8
0
10
16
20
-12.2521402
11
16
21
-11.8470519
0
LINE
8
0
10
16
20
-11.8470519
11
16
21
-11.8177528
0
LINE
8
0
10
16
20
-11.8177528
11
16
21
-11.0164226
0
LINE
8
0
10
16
20
-11.0164226
11
16
21
-9.16679158
0
LINE
8
0
10
16
20
-9.16679158
11
16
21
-7.03447588
0
LINE
8
0
10
16
20
-7.03447588
11
15.4164705
21
-6.2337953
0
LINE
8
0
10
15.4164705
20
-6.2337953
11
15.1341703
21
-5.84240694
0
LINE
8
0
10
15.1341703
20
-5.84240694
11
14.5246044
21
-4.92658872
0
LINE
8
0
10
14.5246044
20
-4.92658872
11
14.0472058
21
-4.15269089
0
LINE
8
0
10
14.0472058
20
-4.15269089
11
13.9218068
21
-3.93488299
0
LINE
8
0
10
13.9218068
20
-3.93488299
11
13.65614
21
-3.3776609
0
LINE
8
0
10
13.65614
20
-3.3776609
11
9.94111479
21
-3.3776609
0
LINE
8
0
10
9.94111479
20
-3.3776609
11
2.4
21
-3.3776609
0
LINE
8
0
10
2.4
20
-3.3776609
11
2.4
21
-3.81851936
0
LINE
8
0
10
2.4
20
-3.81851936
11
2.4
21
-3.86610712
0
LINE
8
0
10
2.4
20
-3.86610712
11
2.4
21
-3.92338209
0
LINE
8
0
10
2.4
20
-3.92338209
11
2.4
21
-4.63855061
0
LINE
8
0
10
2.4
20
-4.63855061
11
2.4
21
-4.82996969
0
LINE
8
0
10
2.4
20
-4.82996969
11
2.4
21
-5.08970927
0
LINE
8
0
10
2.4
20
-5.08970927
11
2.4
21
-5.88809073
0
LINE
8
0
10
2.4
20
-5.88809073
11
2.4
21
-6.45961048
0
LINE
8
0
10
2.4
20
-6.45961048
11
2.4
21
-7.40922137
0
LINE
8
0
10
2.4
20
-7.40922137
11
2.4
21
-9.42682249
0
LINE
8
0
10
2.4
20
-9.42682249
11
2.4
21
-10.3523534
0
LINE
8
0
10
2.4
20
-10.3523534
11
2.4
21
-10.9194382
0
LINE
8
0
10
2.4
20
-10.9194382
11
2.4
21
-11.2559343
0
LINE
8
0
10
2.4
20
-11.2559343
11
2.4
21
-11.436418
0
LINE
8
0
10
2.4
20
-11.436418
11
2.4
21
-13.9580394
0
LINE
8
0
10
2.4
20
-13.9580394
11
2.4
21
-14
0
LINE
8
0
10
2.4
20
-14
11
2.40750655
21
-14.0570184
0
LINE
8
0
10
2.40750655
20
-14.0570184
11
2.468148
21
-14.51764
0
LINE
8
0
10
2.468148
20
-14.51764
11
2.64594078
21
-14.9468677
0
LINE
8
0
10
2.64594078
20
-14.9468677
11
2.667949
21
-15
0
LINE
8
0
10
2.667949
20
-15
11
2.95077603
21
-15.3685845
0
LINE
8
0
10
2.95077603
20
-15.3685845
11
2.985786
21
-15.41421
0
LINE
8
0
10
2.985786
20
-15.41421
11
3.35437404
21
-15.6970397
0
LINE
8
0
10
3.35437404
20
-15.6970397
11
3.40008933
21
-15.7321018
0
LINE
8
0
10
3.40008933
20
-15.7321018
11
3.82931882
21
-15.9098937
0
LINE
8
0
10
3.82931882
20
-15.9098937
11
3.882362
21
-15.93185
0
LINE
8
0
10
3.882362
20
-15.93185
11
4.34298181
21
-15.9924932
0
LINE
8
0
10
4.34298181
20
-15.9924932
11
4.37149092
21
-15.9962466
0
LINE
8
0
10
4.37149092
20
-15.9962466
11
4.38703013
21
-15.998902
0
LINE
8
0
10
4.38703013
20
-15.998902
11
4.4
21
-16
0
LINE
8
0
10
4.4
20
-16
11
4.90752488
21
-16
0
LINE
8
0
10
4.90752488
20
-16
11
14
21
-16
0
LINE
8
0
10
14
20
-16
11
14.0547324
21
-15.9927942
0
LINE
8
0
10
14.0547324
20
-15.9927942
11
14.51764
21
-15.93185
0
LINE
8
0
10
14.51764
20
-15.93185
11
14.948998
21
-15.7531757
0
LINE
8
0
10
14.948998
20
-15.7531757
11
15.0000835
21
-15.7320014
0
LINE
8
0
10
15.0000835
20
-15.7320014
11
15.3704973
21
-15.447768
0
LINE
8
0
10
15.3704973
20
-15.447768
11
15.41421
21
-15.41421
0
LINE
8
0
10
15.41421
20
-15.41421
11
15.6984434
21
-15.0437962
0
LINE
8
0
10
15.6984434
20
-15.0437962
11
15.73205
21
-15
0
LINE
8
0
10
15.73205
20
-15
11
15.9107243
21
-14.568642
0
LINE
8
0
10
15.9107243
20
-14.568642
11
15.93185
21
-14.51764
0
LINE
8
0
10
15.93185
20
-14.51764
11
15.9927942
21
-14.0547324
0
LINE
8
0
10
15.9927942
20
-14.0547324
11
15.9991593
21
-14.0138824
0
LINE
8
0
10
15.9991593
20
-14.0138824
11
16
21
-14
0
LINE
8
0
10
16
20
-14
11
16
21
-12.4621871
0
LINE
8
0
10
16
20
-12.4621871
11
16
21
-12.2521402
0
LINE
8
0
10
16
20
-12.2521402
11
16
21
-12.2521402
0
LINE
8
0
10
16
20
12.5748998
11
16
21
16.9084377
0
LINE
8
0
10
16
20
16.9084377
11
16
21
19.5031023
0
LINE
8
0
10
16
20
19.5031023
11
16
21
27.3007422
0
LINE
8
0
10
16
20
27.3007422
11
3.75464447
21
27.3007422
0
LINE
8
0
10
3.75464447
20
27.3007422
11
2.4
21
27.3007422
0
LINE
8
0
10
2.4
20
27.3007422
11
2.4
21
23.0474841
0
LINE
8
0
10
2.4
20
23.0474841
11
2.4
21
19.5031023
0
LINE
8
0
10
2.4
20
19.5031023
11
2.4
21
18.4652365
0
LINE
8
0
10
2.4
20
18.4652365
11
2.4
21
16.9084377
0
LINE
8
0
10
2.4
20
16.9084377
11
2.4
21
14.5009166
0
LINE
8
0
10
2.4
20
14.5009166
11
2.4
21
12.5748998
0
LINE
8
0
10
2.4
20
12.5748998
11
9.20535553
21
12.5748998
0
LINE
8
0
10
9.20535553
20
12.5748998
11
16
21
12.5748998
0
LINE
8
0
10
16
20
12.5748998
11
16
21
12.5748998
0
LINE
8
0
10
16
20
68.9053407
11
16
21
68.8944099
0
LINE
8
0
10
16
20
68.8944099
11
16
21
68.8367064
0
LINE
8
0
10
16
20
68.8367064
11
16
21
63.1778936
0
LINE
8
0
10
16
20
63.1778936
11
16
21
62.4327949
0
LINE
8
0
10
16
20
62.4327949
11
14.6000476
21
61.2044341
0
LINE
8
0
10
14.6000476
20
61.2044341
11
13.8289255
21
60.4410618
0
LINE
8
0
10
13.8289255
20
60.4410618
11
13.4602215
21
60.068479
0
LINE
8
0
10
13.4602215
20
60.068479
11
13.3381227
21
59.9161554
0
LINE
8
0
10
13.3381227
20
59.9161554
11
13
21
59.4812814
0
LINE
8
0
10
13
20
59.4812814
11
6.07052755
21
59.4812814
0
LINE
8
0
10
6.07052755
20
59.4812814
11
2.4
21
59.4812814
0
LINE
8
0
10
2.4
20
59.4812814
11
2.4
21
59.9183319
0
LINE
8
0
10
2.4
20
59.9183319
11
2.4
21
59.9677525
0
LINE
8
0
10
2.4
20
59.9677525
11
2.4
21
60.0296207
0
LINE
8
0
10
2.4
20
60.0296207
11
2.4
21
60.7643092
0
LINE
8
0
10
2.4
20
60.7643092
11
2.4
21
60.9809112
0
LINE
8
0
10
2.4
20
60.9809112
11
2.4
21
61.2964155
0
LINE
8
0
10
2.4
20
61.2964155
11
2.4
21
62.1270881
0
LINE
8
0
10
2.4
20
62.1270881
11
2.4
21
62.8651471
0
LINE
8
0
10
2.4
20
62.8651471
11
2.4
21
64.3136877
0
LINE
8
0
10
2.4
20
64.3136877
11
2.4
21
68.8930393
0
LINE
8
0
10
2.4
20
68.8930393
11
2.4
21
68.8970065
0
LINE
8
0
10
2.4
20
68.8970065
11
2.4
21
68.9053407
0
LINE
8
0
10
2.4
20
68.9053407
11
2.40254284
21
68.9248999
0
LINE
8
0
10
2.40254284
20
68.9248999
11
2.468148
21
69.4238924
0
LINE
8
0
10
2.468148
20
69.4238924
11
2.47456997
21
69.4395939
0
LINE
8
0
10
2.47456997
20
69.4395939
11
2.6586415
21
69.889641
0
LINE
8
0
10
2.6586415
20
69.889641
11
2.66762836
21
69.9113372
0
LINE
8
0
10
2.66762836
20
69.9113372
11
2.667949
21
69.9121113
0
LINE
8
0
10
2.667949
20
69.9121113
11
2.97615653
21
70.3137765
0
LINE
8
0
10
2.97615653
20
70.3137765
11
2.985786
21
70.3263258
0
LINE
8
0
10
2.985786
20
70.3263258
11
3.37878404
21
70.6278848
0
LINE
8
0
10
3.37878404
20
70.6278848
11
3.4
21
70.6441645
0
LINE
8
0
10
3.4
20
70.6441645
11
3.85153187
21
70.8311908
0
LINE
8
0
10
3.85153187
20
70.8311908
11
3.882362
21
70.843961
0
LINE
8
0
10
3.882362
20
70.843961
11
4.36471383
21
70.9074639
0
LINE
8
0
10
4.36471383
20
70.9074639
11
4.4
21
70.9121096
0
LINE
8
0
10
4.4
20
70.9121096
11
13.3455905
21
70.9121096
0
LINE
8
0
10
13.3455905
20
70.9121096
11
14
21
70.9121096
0
LINE
8
0
10
14
20
70.9121096
11
14.4845551
21
70.8483168
0
LINE
8
0
10
14.4845551
20
70.8483168
11
14.51764
21
70.843961
0
LINE
8
0
10
14.51764
20
70.843961
11
14.9752936
21
70.6543982
0
LINE
8
0
10
14.9752936
20
70.6543982
11
15
21
70.6441645
0
LINE
8
0
10
15
20
70.6441645
11
15.4016607
21
70.3359554
0
LINE
8
0
10
15.4016607
20
70.3359554
11
15.41421
21
70.3263258
0
LINE
8
0
10
15.41421
20
70.3263258
11
15.7315399
21
69.912776
0
LINE
8
0
10
15.7315399
20
69.912776
11
15.73205
21
69.9121113
0
LINE
8
0
10
15.73205
20
69.9121113
11
15.7413575
21
69.889641
0
LINE
8
0
10
15.7413575
20
69.889641
11
15.93185
21
69.4238924
0
LINE
8
0
10
15.93185
20
69.4238924
11
15.9974571
21
68.9248999
0
LINE
8
0
10
15.9974571
20
68.9248999
11
16
21
68.9053407
0
LINE
8
0
10
16
20
68.9053407
11
16
21
68.9053407
0
LINE
8
0
10
16
20
31.6138186
11
16
21
28.1633578
0
LINE
8
0
10
16
20
28.1633578
11
14.6453555
21
28.1633578
0
LINE
8
0
10
14.6453555
20
28.1633578
11
2.4
21
28.1633578
0
LINE
8
0
10
2.4
20
28.1633578
11
2.4
21
31.6289755
0
LINE
8
0
10
2.4
20
31.6289755
11
2.4
21
35.0915618
0
LINE
8
0
10
2.4
20
35.0915618
11
14.6346445
21
35.0915618
0
LINE
8
0
10
14.6346445
20
35.0915618
11
16
21
35.0915618
0
LINE
8
0
10
16
20
35.0915618
11
16
21
31.6138186
0
LINE
8
0
10
16
20
31.6138186
11
16
21
31.6138186
0
LINE
8
0
10
16
20
50.8650934
11
16
21
53.6797348
0
LINE
8
0
10
16
20
53.6797348
11
15.0048249
21
54.5271642
0
LINE
8
0
10
15.0048249
20
54.5271642
11
14.1903734
21
55.3064444
0
LINE
8
0
10
14.1903734
20
55.3064444
11
13.5404659
21
55.9490879
0
LINE
8
0
10
13.5404659
20
55.9490879
11
13.3699269
21
56.1436576
0
LINE
8
0
10
13.3699269
20
56.1436576
11
13
21
56.6226986
0
LINE
8
0
10
13
20
56.6226986
11
9.32947245
21
56.6226986
0
LINE
8
0
10
9.32947245
20
56.6226986
11
2.4
21
56.6226986
0
LINE
8
0
10
2.4
20
56.6226986
11
2.4
21
56.2779079
0
LINE
8
0
10
2.4
20
56.2779079
11
2.4
21
55.8941284
0
LINE
8
0
10
2.4
20
55.8941284
11
2.4
21
50.847539
0
LINE
8
0
10
2.4
20
50.847539
11
2.4
21
45.727216
0
LINE
8
0
10
2.4
20
45.727216
11
2.4
21
43.7518173
0
LINE
8
0
10
2.4
20
43.7518173
11
2.4
21
40.2105359
0
LINE
8
0
10
2.4
20
40.2105359
11
2.4
21
35.9609982
0
LINE
8
0
10
2.4
20
35.9609982
11
3.76535553
21
35.9609982
0
LINE
8
0
10
3.76535553
20
35.9609982
11
16
21
35.9609982
0
LINE
8
0
10
16
20
35.9609982
11
16
21
43.7518173
0
LINE
8
0
10
16
20
43.7518173
11
16
21
48.6935563
0
LINE
8
0
10
16
20
48.6935563
11
16
21
50.8650934
0
LINE
8
0
10
16
20
50.8650934
11
16
21
50.8650934
0
LINE
8
0
10
16
20
4.42224537
11
16
21
3.84201413
0
LINE
8
0
10
16
20
3.84201413
11
14.8657572
21
1.76706927
0
LINE
8
0
10
14.8657572
20
1.76706927
11
13.9205566
21
0.0379505696
0
LINE
8
0
10
13.9205566
20
0.0379505696
11
13.8591081
21
-0.0864117429
0
LINE
8
0
10
13.8591081
20
-0.0864117429
11
13.65614
21
-0.520499579
0
LINE
8
0
10
13.65614
20
-0.520499579
11
6.68489038
21
-0.520499579
0
LINE
8
0
10
6.68489038
20
-0.520499579
11
2.4
21
-0.520499579
0
LINE
8
0
10
2.4
20
-0.520499579
11
2.4
21
-0.220861685
0
LINE
8
0
10
2.4
20
-0.220861685
11
2.4
21
5.3572517
0
LINE
8
0
10
2.4
20
5.3572517
11
2.4
21
8.24818315
0
LINE
8
0
10
2.4
20
8.24818315
11
9.19464447
21
8.24818315
0
LINE
8
0
10
9.19464447
20
8.24818315
11
16
21
8.24818315
0
LINE
8
0
10
16
20
8.24818315
11
16
21
4.42224537
0
LINE
8
0
10
16
20
4.42224537
11
16
21
4.42224537
0
ENDSEC
0
EOF
