0
SECTION
2
ENTITIES
0
LINE
8
0
10
16
20
19.1053225
11
16
21
17.3062175
0
LINE
8
0
10
16
20
17.3062175
11
16
21
12.1771196
0
LINE
8
0
10
16
20
12.1771196
11
10.4546971
21
12.1771196
0
LINE
8
0
10
10.4546971
20
12.1771196
11
2.4
21
12.1771196
0
LINE
8
0
10
2.4
20
12.1771196
11
2.4
21
14.4567186
0
LINE
8
0
10
2.4
20
14.4567186
11
2.4
21
17.3062175
0
LINE
8
0
10
2.4
20
17.3062175
11
2.4
21
18.3856805
0
LINE
8
0
10
2.4
20
18.3856805
11
2.4
21
19.1053225
0
LINE
8
0
10
2.4
20
19.1053225
11
2.4
21
23.0113225
0
LINE
8
0
10
2.4
20
23.0113225
11
2.4
21
27.6985224
0
LINE
8
0
10
2.4
20
27.6985224
11
2.50530286
21
27.6985224
0
LINE
8
0
10
2.50530286
20
27.6985224
11
16
21
27.6985224
0
LINE
8
0
10
16
20
27.6985224
11
16
21
19.1053225
0
LINE
8
0
10
16
20
19.1053225
11
16
21
19.1053225
0
LINE
8
0
10
16
20
-10.0553755
11
16
21
-6.94399306
0
LINE
8
0
10
16
20
-6.94399306
11
15.7086304
21
-6.54419497
0
LINE
8
0
10
15.7086304
20
-6.54419497
11
15.5676715
21
-6.34876584
0
LINE
8
0
10
15.5676715
20
-6.34876584
11
14.779322
21
-5.16434129
0
LINE
8
0
10
14.779322
20
-5.16434129
11
14.3843433
21
-4.52405196
0
LINE
8
0
10
14.3843433
20
-4.52405196
11
14.1508378
21
-4.11847211
0
LINE
8
0
10
14.1508378
20
-4.11847211
11
13.7742817
21
-3.32866546
0
LINE
8
0
10
13.7742817
20
-3.32866546
11
13.7461859
21
-3.26805034
0
LINE
8
0
10
13.7461859
20
-3.26805034
11
13.7328983
21
-3.22873223
0
LINE
8
0
10
13.7328983
20
-3.22873223
11
13.65614
21
-2.97392691
0
LINE
8
0
10
13.65614
20
-2.97392691
11
6.79994225
21
-2.97392691
0
LINE
8
0
10
6.79994225
20
-2.97392691
11
2.4
21
-2.97392691
0
LINE
8
0
10
2.4
20
-2.97392691
11
2.4
21
-3.23396726
0
LINE
8
0
10
2.4
20
-3.23396726
11
2.4
21
-3.25038565
0
LINE
8
0
10
2.4
20
-3.25038565
11
2.4
21
-3.90179153
0
LINE
8
0
10
2.4
20
-3.90179153
11
2.4
21
-3.99040464
0
LINE
8
0
10
2.4
20
-3.99040464
11
2.4
21
-4.0970563
0
LINE
8
0
10
2.4
20
-4.0970563
11
2.4
21
-4.79182258
0
LINE
8
0
10
2.4
20
-4.79182258
11
2.4
21
-5.03938423
0
LINE
8
0
10
2.4
20
-5.03938423
11
2.4
21
-5.37530452
0
LINE
8
0
10
2.4
20
-5.37530452
11
2.4
21
-6.14111425
0
LINE
8
0
10
2.4
20
-6.14111425
11
2.4
21
-6.80748843
0
LINE
8
0
10
2.4
20
-6.80748843
11
2.4
21
-7.91470508
0
LINE
8
0
10
2.4
20
-7.91470508
11
2.4
21
-10.267165
0
LINE
8
0
10
2.4
20
-10.267165
11
2.4
21
-11.0209898
0
LINE
8
0
10
2.4
20
-11.0209898
11
2.4
21
-11.4828681
0
LINE
8
0
10
2.4
20
-11.4828681
11
2.4
21
-11.7569368
0
LINE
8
0
10
2.4
20
-11.7569368
11
2.4
21
-11.9039369
0
LINE
8
0
10
2.4
20
-11.9039369
11
2.4
21
-13.9577427
0
LINE
8
0
10
2.4
20
-13.9577427
11
2.4
21
-14
0
LINE
8
0
10
2.4
20
-14
11
2.40611392
21
-14.0464403
0
LINE
8
0
10
2.40611392
20
-14.0464403
11
2.468148
21
-14.51764
0
LINE
8
0
10
2.468148
20
-14.51764
11
2.65002378
21
-14.9567249
0
LINE
8
0
10
2.65002378
20
-14.9567249
11
2.667949
21
-15
0
LINE
8
0
10
2.667949
20
-15
11
2.95727114
21
-15.377049
0
LINE
8
0
10
2.95727114
20
-15.377049
11
2.985786
21
-15.41421
0
LINE
8
0
10
2.985786
20
-15.41421
11
3.36283865
21
-15.7035349
0
LINE
8
0
10
3.36283865
20
-15.7035349
11
3.40007276
21
-15.7320922
0
LINE
8
0
10
3.40007276
20
-15.7320922
11
3.83915948
21
-15.913967
0
LINE
8
0
10
3.83915948
20
-15.913967
11
3.882362
21
-15.93185
0
LINE
8
0
10
3.882362
20
-15.93185
11
4.35355992
21
-15.9938859
0
LINE
8
0
10
4.35355992
20
-15.9938859
11
4.37677997
21
-15.996943
0
LINE
8
0
10
4.37677997
20
-15.996943
11
4.38943632
21
-15.9991057
0
LINE
8
0
10
4.38943632
20
-15.9991057
11
4.4
21
-16
0
LINE
8
0
10
4.4
20
-16
11
4.81336798
21
-16
0
LINE
8
0
10
4.81336798
20
-16
11
14
21
-16
0
LINE
8
0
10
14
20
-16
11
14.0445783
21
-15.994131
0
LINE
8
0
10
14.0445783
20
-15.994131
11
14.51764
21
-15.93185
0
LINE
8
0
10
14.51764
20
-15.93185
11
14.9584599
21
-15.7492564
0
LINE
8
0
10
14.9584599
20
-15.7492564
11
15.000068
21
-15.7320104
0
LINE
8
0
10
15.000068
20
-15.7320104
11
15.3786069
21
-15.4415422
0
LINE
8
0
10
15.3786069
20
-15.4415422
11
15.41421
21
-15.41421
0
LINE
8
0
10
15.41421
20
-15.41421
11
15.7046781
21
-15.0356711
0
LINE
8
0
10
15.7046781
20
-15.0356711
11
15.73205
21
-15
0
LINE
8
0
10
15.73205
20
-15
11
15.9146436
21
-14.5591801
0
LINE
8
0
10
15.9146436
20
-14.5591801
11
15.93185
21
-14.51764
0
LINE
8
0
10
15.93185
20
-14.51764
11
15.994131
21
-14.0445783
0
LINE
8
0
10
15.994131
20
-14.0445783
11
15.9993153
21
-14.0113069
0
LINE
8
0
10
15.9993153
20
-14.0113069
11
16
21
-14
0
LINE
8
0
10
16
20
-14
11
16
21
-12.7474848
0
LINE
8
0
10
16
20
-12.7474848
11
16
21
-12.5764062
0
LINE
8
0
10
16
20
-12.5764062
11
16
21
-12.2464706
0
LINE
8
0
10
16
20
-12.2464706
11
16
21
-12.2145258
0
LINE
8
0
10
16
20
-12.2145258
11
16
21
-11.5618597
0
LINE
8
0
10
16
20
-11.5618597
11
16
21
-10.0553755
0
LINE
8
0
10
16
20
-10.0553755
11
16
21
-10.0553755
0
LINE
8
0
10
16
20
43.3540375
11
16
21
36.3587784
0
LINE
8
0
10
16
20
36.3587784
11
5.01469714
21
36.3587784
0
LINE
8
0
10
5.01469714
20
36.3587784
11
2.4
21
36.3587784
0
LINE
8
0
10
2.4
20
36.3587784
11
2.4
21
40.1743743
0
LINE
8
0
10
2.4
20
40.1743743
11
2.4
21
43.3540375
0
LINE
8
0
10
2.4
20
43.3540375
11
2.4
21
45.9335323
0
LINE
8
0
10
2.4
20
45.9335323
11
2.4
21
50.9510199
0
LINE
8
0
10
2.4
20
50.9510199
11
2.4
21
55.8962547
0
LINE
8
0
10
2.4
20
55.8962547
11
2.4
21
56.2723264
0
LINE
8
0
10
2.4
20
56.2723264
11
2.4
21
56.7954532
0
LINE
8
0
10
2.4
20
56.7954532
11
2.4
21
57.0242977
0
LINE
8
0
10
2.4
20
57.0242977
11
6.30822136
21
57.0242977
0
LINE
8
0
10
6.30822136
20
57.0242977
11
13
21
57.0242977
0
LINE
8
0
10
13
20
57.0242977
11
13.1247172
21
56.7679701
0
LINE
8
0
10
13.1247172
20
56.7679701
11
13.1616443
21
56.7126713
0
LINE
8
0
10
13.1616443
20
56.7126713
11
13.6970306
21
56.019367
0
LINE
8
0
10
13.6970306
20
56.019367
11
14.0183666
21
55.6527512
0
LINE
8
0
10
14.0183666
20
55.6527512
11
14.5419936
21
55.1349768
0
LINE
8
0
10
14.5419936
20
55.1349768
11
15.5970231
21
54.1255078
0
LINE
8
0
10
15.5970231
20
54.1255078
11
16
21
53.7823576
0
LINE
8
0
10
16
20
53.7823576
11
16
21
52.6426229
0
LINE
8
0
10
16
20
52.6426229
11
16
21
49.8070085
0
LINE
8
0
10
16
20
49.8070085
11
16
21
43.3540375
0
LINE
8
0
10
16
20
43.3540375
11
16
21
43.3540375
0
LINE
8
0
10
16
20
3.60749468
11
16
21
4.1176513
0
LINE
8
0
10
16
20
4.1176513
11
16
21
8.64596287
0
LINE
8
0
10
16
20
8.64596287
11
7.94530286
21
8.64596287
0
LINE
8
0
10
7.94530286
20
8.64596287
11
2.4
21
8.64596287
0
LINE
8
0
10
2.4
20
8.64596287
11
2.4
21
5.22430808
0
LINE
8
0
10
2.4
20
5.22430808
11
2.4
21
-0.241775679
0
LINE
8
0
10
2.4
20
-0.241775679
11
2.4
21
-0.722112896
0
LINE
8
0
10
2.4
20
-0.722112896
11
2.4
21
-0.918778354
0
LINE
8
0
10
2.4
20
-0.918778354
11
9.90858593
21
-0.918778354
0
LINE
8
0
10
9.90858593
20
-0.918778354
11
13.65614
21
-0.918778354
0
LINE
8
0
10
13.65614
20
-0.918778354
11
13.7218582
21
-0.692691206
0
LINE
8
0
10
13.7218582
20
-0.692691206
11
13.7352144
21
-0.656883838
0
LINE
8
0
10
13.7352144
20
-0.656883838
11
14.0518808
21
0.020370647
0
LINE
8
0
10
14.0518808
20
0.020370647
11
14.1716913
21
0.262848425
0
LINE
8
0
10
14.1716913
20
0.262848425
11
15.0027399
21
1.78314121
0
LINE
8
0
10
15.0027399
20
1.78314121
11
16
21
3.60749468
0
LINE
8
0
10
16
20
3.60749468
11
16
21
3.60749468
0
LINE
8
0
10
16
20
34.6937816
11
16
21
28.033798
0
LINE
8
0
10
16
20
28.033798
11
16
21
27.7655776
0
LINE
8
0
10
16
20
27.7655776
11
15.8946971
21
27.7655776
0
LINE
8
0
10
15.8946971
20
27.7655776
11
2.4
21
27.7655776
0
LINE
8
0
10
2.4
20
27.7655776
11
2.4
21
31.5847775
0
LINE
8
0
10
2.4
20
31.5847775
11
2.4
21
34.6937816
0
LINE
8
0
10
2.4
20
34.6937816
11
13.3853029
21
34.6937816
0
LINE
8
0
10
13.3853029
20
34.6937816
11
16
21
34.6937816
0
LINE
8
0
10
16
20
34.6937816
11
16
21
34.6937816
0
LINE
8
0
10
16
20
62.3097527
11
16
21
63.9865912
0
LINE
8
0
10
16
20
63.9865912
11
16
21
68.8634978
0
LINE
8
0
10
16
20
68.8634978
11
15.9892329
21
68.9484307
0
LINE
8
0
10
15.9892329
20
68.9484307
11
15.93185
21
69.3848717
0
LINE
8
0
10
15.93185
20
69.3848717
11
15.763556
21
69.7963455
0
LINE
8
0
10
15.763556
20
69.7963455
11
15.73205
21
69.8733769
0
LINE
8
0
10
15.73205
20
69.8733769
11
15.4524765
21
70.2423625
0
LINE
8
0
10
15.4524765
20
70.2423625
11
15.41421
21
70.2928672
0
LINE
8
0
10
15.41421
20
70.2928672
11
15.0385959
21
70.5847609
0
LINE
8
0
10
15.0385959
20
70.5847609
11
15
21
70.6147542
0
LINE
8
0
10
15
20
70.6147542
11
14.5545156
21
70.8016264
0
LINE
8
0
10
14.5545156
20
70.8016264
11
14.51764
21
70.8170952
0
LINE
8
0
10
14.51764
20
70.8170952
11
14.0362821
21
70.8812742
0
LINE
8
0
10
14.0362821
20
70.8812742
11
14
21
70.8861116
0
LINE
8
0
10
14
20
70.8861116
11
5.06672662
21
70.8861116
0
LINE
8
0
10
5.06672662
20
70.8861116
11
4.4
21
70.8861116
0
LINE
8
0
10
4.4
20
70.8861116
11
3.9205184
21
70.8221826
0
LINE
8
0
10
3.9205184
20
70.8221826
11
3.882362
21
70.8170952
0
LINE
8
0
10
3.882362
20
70.8170952
11
3.44185196
21
70.6323105
0
LINE
8
0
10
3.44185196
20
70.6323105
11
3.4
21
70.6147542
0
LINE
8
0
10
3.4
20
70.6147542
11
3.03077432
21
70.3278278
0
LINE
8
0
10
3.03077432
20
70.3278278
11
2.985786
21
70.2928672
0
LINE
8
0
10
2.985786
20
70.2928672
11
2.71197105
21
69.9314784
0
LINE
8
0
10
2.71197105
20
69.9314784
11
2.667949
21
69.8733769
0
LINE
8
0
10
2.667949
20
69.8733769
11
2.50321666
21
69.4706133
0
LINE
8
0
10
2.50321666
20
69.4706133
11
2.468148
21
69.3848717
0
LINE
8
0
10
2.468148
20
69.3848717
11
2.41076682
21
68.9484307
0
LINE
8
0
10
2.41076682
20
68.9484307
11
2.4
21
68.8634978
0
LINE
8
0
10
2.4
20
68.8634978
11
2.4
21
64.9536755
0
LINE
8
0
10
2.4
20
64.9536755
11
2.4
21
63.2641478
0
LINE
8
0
10
2.4
20
63.2641478
11
2.4
21
62.4033012
0
LINE
8
0
10
2.4
20
62.4033012
11
2.4
21
61.6152455
0
LINE
8
0
10
2.4
20
61.6152455
11
2.4
21
61.2065455
0
LINE
8
0
10
2.4
20
61.2065455
11
2.4
21
60.9259622
0
LINE
8
0
10
2.4
20
60.9259622
11
2.4
21
60.2151876
0
LINE
8
0
10
2.4
20
60.2151876
11
2.4
21
60.0986132
0
LINE
8
0
10
2.4
20
60.0986132
11
2.4
21
60.0054931
0
LINE
8
0
10
2.4
20
60.0054931
11
2.4
21
59.3437809
0
LINE
8
0
10
2.4
20
59.3437809
11
2.4
21
59.3277081
0
LINE
8
0
10
2.4
20
59.3277081
11
2.4
21
59.0796823
0
LINE
8
0
10
2.4
20
59.0796823
11
9.09177864
21
59.0796823
0
LINE
8
0
10
9.09177864
20
59.0796823
11
13
21
59.0796823
0
LINE
8
0
10
13
20
59.0796823
11
13.1174641
21
59.3215525
0
LINE
8
0
10
13.1174641
20
59.3215525
11
13.1448519
21
59.3682858
0
LINE
8
0
10
13.1448519
20
59.3682858
11
13.6371039
21
60.0013919
0
LINE
8
0
10
13.6371039
20
60.0013919
11
13.8671671
21
60.288406
0
LINE
8
0
10
13.8671671
20
60.288406
11
14.5618934
21
60.9904408
0
LINE
8
0
10
14.5618934
20
60.9904408
11
15.07268
21
61.4960939
0
LINE
8
0
10
15.07268
20
61.4960939
11
16
21
62.3097527
0
LINE
8
0
10
16
20
62.3097527
11
16
21
62.3097527
0
ENDSEC
0
EOF
