0
SECTION
2
ENTITIES
0
LINE
8
0
10
16
20
18.1017771
11
16
21
18.3097629
0
LINE
8
0
10
16
20
18.3097629
11
16
21
19.3496928
0
LINE
8
0
10
16
20
19.3496928
11
16
21
26.9700179
0
LINE
8
0
10
16
20
26.9700179
11
16
21
28.4940821
0
LINE
8
0
10
16
20
28.4940821
11
16
21
33.898221
0
LINE
8
0
10
16
20
33.898221
11
10.8866196
21
33.898221
0
LINE
8
0
10
10.8866196
20
33.898221
11
2.4
21
33.898221
0
LINE
8
0
10
2.4
20
33.898221
11
2.4
21
31.4963815
0
LINE
8
0
10
2.4
20
31.4963815
11
2.4
21
28.4940821
0
LINE
8
0
10
2.4
20
28.4940821
11
2.4
21
27.5796436
0
LINE
8
0
10
2.4
20
27.5796436
11
2.4
21
26.9700179
0
LINE
8
0
10
2.4
20
26.9700179
11
2.4
21
22.9389993
0
LINE
8
0
10
2.4
20
22.9389993
11
2.4
21
18.3097629
0
LINE
8
0
10
2.4
20
18.3097629
11
2.4
21
18.2265686
0
LINE
8
0
10
2.4
20
18.2265686
11
2.4
21
18.1017771
0
LINE
8
0
10
2.4
20
18.1017771
11
2.4
21
14.3683226
0
LINE
8
0
10
2.4
20
14.3683226
11
2.4
21
11.381559
0
LINE
8
0
10
2.4
20
11.381559
11
12.9533804
21
11.381559
0
LINE
8
0
10
12.9533804
20
11.381559
11
16
21
11.381559
0
LINE
8
0
10
16
20
11.381559
11
16
21
18.1017771
0
LINE
8
0
10
16
20
18.1017771
11
16
21
18.1017771
0
LINE
8
0
10
16
20
-13.2249382
11
16
21
-13.0453079
0
LINE
8
0
10
16
20
-13.0453079
11
16
21
-13.0080717
0
LINE
8
0
10
16
20
-13.0080717
11
16
21
-12.652734
0
LINE
8
0
10
16
20
-12.652734
11
16
21
-11.8325433
0
LINE
8
0
10
16
20
-11.8325433
11
16
21
-8.95280873
0
LINE
8
0
10
16
20
-8.95280873
11
16
21
-6.70842505
0
LINE
8
0
10
16
20
-6.70842505
11
15.2887572
21
-5.63984642
0
LINE
8
0
10
15.2887572
20
-5.63984642
11
15.0586181
21
-5.26677412
0
LINE
8
0
10
15.0586181
20
-5.26677412
11
14.6088999
21
-4.48565036
0
LINE
8
0
10
14.6088999
20
-4.48565036
11
14.3256218
21
-3.89148934
0
LINE
8
0
10
14.3256218
20
-3.89148934
11
14.1664091
21
-3.54799743
0
LINE
8
0
10
14.1664091
20
-3.54799743
11
14.0911116
21
-3.32519073
0
LINE
8
0
10
14.0911116
20
-3.32519073
11
13.9165629
21
-2.74576241
0
LINE
8
0
10
13.9165629
20
-2.74576241
11
13.8939252
21
-2.63276542
0
LINE
8
0
10
13.8939252
20
-2.63276542
11
13.8299334
21
-2.03048489
0
LINE
8
0
10
13.8299334
20
-2.03048489
11
13.8257828
21
-1.95451951
0
LINE
8
0
10
13.8257828
20
-1.95451951
11
13.8329447
21
-1.87685794
0
LINE
8
0
10
13.8329447
20
-1.87685794
11
13.8915308
21
-1.26744757
0
LINE
8
0
10
13.8915308
20
-1.26744757
11
13.919124
21
-1.15094101
0
LINE
8
0
10
13.919124
20
-1.15094101
11
14.0943675
21
-0.548059459
0
LINE
8
0
10
14.0943675
20
-0.548059459
11
14.1834303
21
-0.309285965
0
LINE
8
0
10
14.1834303
20
-0.309285965
11
14.4374264
21
0.233935427
0
LINE
8
0
10
14.4374264
20
0.233935427
11
14.6739606
21
0.712644137
0
LINE
8
0
10
14.6739606
20
0.712644137
11
15.2767052
21
1.81528508
0
LINE
8
0
10
15.2767052
20
1.81528508
11
16
21
3.13845576
0
LINE
8
0
10
16
20
3.13845576
11
16
21
3.50846316
0
LINE
8
0
10
16
20
3.50846316
11
16
21
9.4415223
0
LINE
8
0
10
16
20
9.4415223
11
5.44661963
21
9.4415223
0
LINE
8
0
10
5.44661963
20
9.4415223
11
2.4
21
9.4415223
0
LINE
8
0
10
2.4
20
9.4415223
11
2.4
21
4.95842084
0
LINE
8
0
10
2.4
20
4.95842084
11
2.4
21
-0.283603667
0
LINE
8
0
10
2.4
20
-0.283603667
11
2.4
21
-0.744251468
0
LINE
8
0
10
2.4
20
-0.744251468
11
2.4
21
-1.3190704
0
LINE
8
0
10
2.4
20
-1.3190704
11
2.4
21
-1.95153171
0
LINE
8
0
10
2.4
20
-1.95153171
11
2.4
21
-1.98327602
0
LINE
8
0
10
2.4
20
-1.98327602
11
2.4
21
-2.61603013
0
LINE
8
0
10
2.4
20
-2.61603013
11
2.4
21
-2.66132047
0
LINE
8
0
10
2.4
20
-2.66132047
11
2.4
21
-2.70960953
0
LINE
8
0
10
2.4
20
-2.70960953
11
2.4
21
-3.35485646
0
LINE
8
0
10
2.4
20
-3.35485646
11
2.4
21
-3.44789572
0
LINE
8
0
10
2.4
20
-3.44789572
11
2.4
21
-4.06833586
0
LINE
8
0
10
2.4
20
-4.06833586
11
2.4
21
-4.23899968
0
LINE
8
0
10
2.4
20
-4.23899968
11
2.4
21
-4.44440473
0
LINE
8
0
10
2.4
20
-4.44440473
11
2.4
21
-5.09836653
0
LINE
8
0
10
2.4
20
-5.09836653
11
2.4
21
-5.4582133
0
LINE
8
0
10
2.4
20
-5.4582133
11
2.4
21
-5.94649504
0
LINE
8
0
10
2.4
20
-5.94649504
11
2.4
21
-6.64716127
0
LINE
8
0
10
2.4
20
-6.64716127
11
2.4
21
-7.50324433
0
LINE
8
0
10
2.4
20
-7.50324433
11
2.4
21
-8.92567251
0
LINE
8
0
10
2.4
20
-8.92567251
11
2.4
21
-11.94785
0
LINE
8
0
10
2.4
20
-11.94785
11
2.4
21
-12.3582626
0
LINE
8
0
10
2.4
20
-12.3582626
11
2.4
21
-12.6097278
0
LINE
8
0
10
2.4
20
-12.6097278
11
2.4
21
-12.7589419
0
LINE
8
0
10
2.4
20
-12.7589419
11
2.4
21
-12.8389746
0
LINE
8
0
10
2.4
20
-12.8389746
11
2.4
21
-13.9571492
0
LINE
8
0
10
2.4
20
-13.9571492
11
2.4
21
-14
0
LINE
8
0
10
2.4
20
-14
11
2.40332867
21
-14.0252839
0
LINE
8
0
10
2.40332867
20
-14.0252839
11
2.468148
21
-14.51764
0
LINE
8
0
10
2.468148
20
-14.51764
11
2.65818979
21
-14.9764393
0
LINE
8
0
10
2.65818979
20
-14.9764393
11
2.667949
21
-15
0
LINE
8
0
10
2.667949
20
-15
11
2.97026136
21
-15.3939781
0
LINE
8
0
10
2.97026136
20
-15.3939781
11
2.985786
21
-15.41421
0
LINE
8
0
10
2.985786
20
-15.41421
11
3.37976786
21
-15.7165252
0
LINE
8
0
10
3.37976786
20
-15.7165252
11
3.40003961
21
-15.732073
0
LINE
8
0
10
3.40003961
20
-15.732073
11
3.85884081
21
-15.9221138
0
LINE
8
0
10
3.85884081
20
-15.9221138
11
3.882362
21
-15.93185
0
LINE
8
0
10
3.882362
20
-15.93185
11
4.37471615
21
-15.9966712
0
LINE
8
0
10
4.37471615
20
-15.9966712
11
4.38735808
21
-15.9983356
0
LINE
8
0
10
4.38735808
20
-15.9983356
11
4.39424871
21
-15.9995131
0
LINE
8
0
10
4.39424871
20
-15.9995131
11
4.4
21
-16
0
LINE
8
0
10
4.4
20
-16
11
4.62505419
21
-16
0
LINE
8
0
10
4.62505419
20
-16
11
14
21
-16
0
LINE
8
0
10
14
20
-16
11
14.0242702
21
-15.9968047
0
LINE
8
0
10
14.0242702
20
-15.9968047
11
14.51764
21
-15.93185
0
LINE
8
0
10
14.51764
20
-15.93185
11
14.9773839
21
-15.7414179
0
LINE
8
0
10
14.9773839
20
-15.7414179
11
15.000037
21
-15.7320284
0
LINE
8
0
10
15.000037
20
-15.7320284
11
15.3948263
21
-15.4290908
0
LINE
8
0
10
15.3948263
20
-15.4290908
11
15.41421
21
-15.41421
0
LINE
8
0
10
15.41421
20
-15.41421
11
15.7171477
21
-15.0194208
0
LINE
8
0
10
15.7171477
20
-15.0194208
11
15.73205
21
-15
0
LINE
8
0
10
15.73205
20
-15
11
15.9224821
21
-14.5402561
0
LINE
8
0
10
15.9224821
20
-14.5402561
11
15.93185
21
-14.51764
0
LINE
8
0
10
15.93185
20
-14.51764
11
15.9968047
21
-14.0242702
0
LINE
8
0
10
15.9968047
20
-14.0242702
11
15.9996272
21
-14.0061559
0
LINE
8
0
10
15.9996272
20
-14.0061559
11
16
21
-14
0
LINE
8
0
10
16
20
-14
11
16
21
-13.3180803
0
LINE
8
0
10
16
20
-13.3180803
11
16
21
-13.2249382
0
LINE
8
0
10
16
20
-13.2249382
11
16
21
-13.2249382
0
LINE
8
0
10
16
20
54.0698695
11
16
21
52.0339129
0
LINE
8
0
10
16
20
52.0339129
11
16
21
42.5584779
0
LINE
8
0
10
16
20
42.5584779
11
16
21
37.154339
0
LINE
8
0
10
16
20
37.154339
11
7.51338037
21
37.154339
0
LINE
8
0
10
7.51338037
20
37.154339
11
2.4
21
37.154339
0
LINE
8
0
10
2.4
20
37.154339
11
2.4
21
40.1020511
0
LINE
8
0
10
2.4
20
40.1020511
11
2.4
21
42.5584779
0
LINE
8
0
10
2.4
20
42.5584779
11
2.4
21
46.3461651
0
LINE
8
0
10
2.4
20
46.3461651
11
2.4
21
51.1579817
0
LINE
8
0
10
2.4
20
51.1579817
11
2.4
21
55.9005073
0
LINE
8
0
10
2.4
20
55.9005073
11
2.4
21
56.2611635
0
LINE
8
0
10
2.4
20
56.2611635
11
2.4
21
56.7628469
0
LINE
8
0
10
2.4
20
56.7628469
11
2.4
21
57.3665791
0
LINE
8
0
10
2.4
20
57.3665791
11
2.4
21
57.4094027
0
LINE
8
0
10
2.4
20
57.4094027
11
2.4
21
58.0423297
0
LINE
8
0
10
2.4
20
58.0423297
11
2.4
21
58.073649
0
LINE
8
0
10
2.4
20
58.073649
11
2.4
21
58.7106893
0
LINE
8
0
10
2.4
20
58.7106893
11
2.4
21
58.7555336
0
LINE
8
0
10
2.4
20
58.7555336
11
2.4
21
58.8045177
0
LINE
8
0
10
2.4
20
58.8045177
11
2.4
21
59.4559921
0
LINE
8
0
10
2.4
20
59.4559921
11
2.4
21
59.5522373
0
LINE
8
0
10
2.4
20
59.5522373
11
2.4
21
60.1798153
0
LINE
8
0
10
2.4
20
60.1798153
11
2.4
21
60.3603345
0
LINE
8
0
10
2.4
20
60.3603345
11
2.4
21
60.5863214
0
LINE
8
0
10
2.4
20
60.5863214
11
2.4
21
61.2492681
0
LINE
8
0
10
2.4
20
61.2492681
11
2.4
21
61.657814
0
LINE
8
0
10
2.4
20
61.657814
11
2.4
21
62.2529054
0
LINE
8
0
10
2.4
20
62.2529054
11
2.4
21
62.9557273
0
LINE
8
0
10
2.4
20
62.9557273
11
2.4
21
64.0621491
0
LINE
8
0
10
2.4
20
64.0621491
11
2.4
21
66.2336512
0
LINE
8
0
10
2.4
20
66.2336512
11
2.4
21
68.7793221
0
LINE
8
0
10
2.4
20
68.7793221
11
2.4324892
21
69.0356097
0
LINE
8
0
10
2.4324892
20
69.0356097
11
2.468148
21
69.3068303
0
LINE
8
0
10
2.468148
20
69.3068303
11
2.56051003
21
69.5326521
0
LINE
8
0
10
2.56051003
20
69.5326521
11
2.667949
21
69.7953359
0
LINE
8
0
10
2.667949
20
69.7953359
11
2.80099021
21
69.9709274
0
LINE
8
0
10
2.80099021
20
69.9709274
11
2.985786
21
70.2148262
0
LINE
8
0
10
2.985786
20
70.2148262
11
3.14508922
21
70.3386214
0
LINE
8
0
10
3.14508922
20
70.3386214
11
3.4
21
70.5367133
0
LINE
8
0
10
3.4
20
70.5367133
11
3.57426865
21
70.6098166
0
LINE
8
0
10
3.57426865
20
70.6098166
11
3.882362
21
70.7390553
0
LINE
8
0
10
3.882362
20
70.7390553
11
4.06323395
21
70.7631706
0
LINE
8
0
10
4.06323395
20
70.7631706
11
4.4
21
70.8080714
0
LINE
8
0
10
4.4
20
70.8080714
11
7.72567533
21
70.8080714
0
LINE
8
0
10
7.72567533
20
70.8080714
11
14
21
70.8080714
0
LINE
8
0
10
14
20
70.8080714
11
14.1809776
21
70.7839421
0
LINE
8
0
10
14.1809776
20
70.7839421
11
14.51764
21
70.7390553
0
LINE
8
0
10
14.51764
20
70.7390553
11
14.6924408
21
70.6657285
0
LINE
8
0
10
14.6924408
20
70.6657285
11
15
21
70.5367133
0
LINE
8
0
10
15
20
70.5367133
11
15.1607107
21
70.4118232
0
LINE
8
0
10
15.1607107
20
70.4118232
11
15.41421
21
70.2148262
0
LINE
8
0
10
15.41421
20
70.2148262
11
15.5497112
21
70.0359895
0
LINE
8
0
10
15.5497112
20
70.0359895
11
15.73205
21
69.7953359
0
LINE
8
0
10
15.73205
20
69.7953359
11
15.8272659
21
69.5625354
0
LINE
8
0
10
15.8272659
20
69.5625354
11
15.93185
21
69.3068303
0
LINE
8
0
10
15.93185
20
69.3068303
11
15.9675098
21
69.0356097
0
LINE
8
0
10
15.9675098
20
69.0356097
11
16
21
68.7793221
0
LINE
8
0
10
16
20
68.7793221
11
16
21
65.6039862
0
LINE
8
0
10
16
20
65.6039862
11
16
21
62.1343409
0
LINE
8
0
10
16
20
62.1343409
11
16
21
62.0610768
0
LINE
8
0
10
16
20
62.0610768
11
14.6810583
21
60.7282599
0
LINE
8
0
10
14.6810583
20
60.7282599
11
14.2350662
21
60.171865
0
LINE
8
0
10
14.2350662
20
60.171865
11
13.8673851
21
59.6989748
0
LINE
8
0
10
13.8673851
20
59.6989748
11
13.7033846
21
59.4191317
0
LINE
8
0
10
13.7033846
20
59.4191317
11
13.4305139
21
58.8572639
0
LINE
8
0
10
13.4305139
20
58.8572639
11
13.3831672
21
58.7191601
0
LINE
8
0
10
13.3831672
20
58.7191601
11
13.2852444
21
58.1284907
0
LINE
8
0
10
13.2852444
20
58.1284907
11
13.2774234
21
58.035954
0
LINE
8
0
10
13.2774234
20
58.035954
11
13.3730302
21
57.463834
0
LINE
8
0
10
13.3730302
20
57.463834
11
13.3948397
21
57.3394966
0
LINE
8
0
10
13.3948397
20
57.3394966
11
13.4604752
21
57.1867853
0
LINE
8
0
10
13.4604752
20
57.1867853
11
13.7468167
21
56.5982758
0
LINE
8
0
10
13.7468167
20
56.5982758
11
13.9679395
21
56.2671421
0
LINE
8
0
10
13.9679395
20
56.2671421
11
14.3512379
21
55.7707856
0
LINE
8
0
10
14.3512379
20
55.7707856
11
14.9741681
21
55.0600779
0
LINE
8
0
10
14.9741681
20
55.0600779
11
15.245234
21
54.7920416
0
LINE
8
0
10
15.245234
20
54.7920416
11
16
21
54.0698695
0
LINE
8
0
10
16
20
54.0698695
11
16
21
54.0698695
0
ENDSEC
0
EOF
