0
SECTION
2
ENTITIES
0
LINE
8
0
10
16
20
42.1606981
11
16
21
53.1473651
0
LINE
8
0
10
16
20
53.1473651
11
16
21
54.2348377
0
LINE
8
0
10
16
20
54.2348377
11
15.5968542
21
54.620574
0
LINE
8
0
10
15.5968542
20
54.620574
11
15.4520688
21
54.7637412
0
LINE
8
0
10
15.4520688
20
54.7637412
11
14.6783416
21
55.646495
0
LINE
8
0
10
14.6783416
20
55.646495
11
14.371087
21
56.0443776
0
LINE
8
0
10
14.371087
20
56.0443776
11
14.0578664
21
56.5134287
0
LINE
8
0
10
14.0578664
20
56.5134287
11
13.8110541
21
57.020695
0
LINE
8
0
10
13.8110541
20
57.020695
11
13.6954475
21
57.2896719
0
LINE
8
0
10
13.6954475
20
57.2896719
11
13.6570336
21
57.5086725
0
LINE
8
0
10
13.6570336
20
57.5086725
11
13.5717629
21
58.0189402
0
LINE
8
0
10
13.5717629
20
58.0189402
11
13.5878818
21
58.209656
0
LINE
8
0
10
13.5878818
20
58.209656
11
13.6748882
21
58.7344784
0
LINE
8
0
10
13.6748882
20
58.7344784
11
13.7582821
21
58.9777263
0
LINE
8
0
10
13.7582821
20
58.9777263
11
13.9963449
21
59.4679213
0
LINE
8
0
10
13.9963449
20
59.4679213
11
14.2286517
21
59.8643193
0
LINE
8
0
10
14.2286517
20
59.8643193
11
14.5340473
21
60.2571016
0
LINE
8
0
10
14.5340473
20
60.2571016
11
15.0880038
21
60.9481869
0
LINE
8
0
10
15.0880038
20
60.9481869
11
16
21
61.8697771
0
LINE
8
0
10
16
20
61.8697771
11
16
21
63.8726798
0
LINE
8
0
10
16
20
63.8726798
11
16
21
66.4126837
0
LINE
8
0
10
16
20
66.4126837
11
16
21
68.7372342
0
LINE
8
0
10
16
20
68.7372342
11
15.9566483
21
69.0791992
0
LINE
8
0
10
15.9566483
20
69.0791992
11
15.93185
21
69.2678096
0
LINE
8
0
10
15.93185
20
69.2678096
11
15.8591208
21
69.4456304
0
LINE
8
0
10
15.8591208
20
69.4456304
11
15.73205
21
69.7563153
0
LINE
8
0
10
15.73205
20
69.7563153
11
15.5983286
21
69.932803
0
LINE
8
0
10
15.5983286
20
69.932803
11
15.41421
21
70.1758056
0
LINE
8
0
10
15.41421
20
70.1758056
11
15.2217681
21
70.3253543
0
LINE
8
0
10
15.2217681
20
70.3253543
11
15
21
70.4976929
0
LINE
8
0
10
15
20
70.4976929
11
14.7614033
21
70.5977796
0
LINE
8
0
10
14.7614033
20
70.5977796
11
14.51764
21
70.7000353
0
LINE
8
0
10
14.51764
20
70.7000353
11
14.2533254
21
70.7352761
0
LINE
8
0
10
14.2533254
20
70.7352761
11
14
21
70.7690514
0
LINE
8
0
10
14
20
70.7690514
11
9.05514968
21
70.7690514
0
LINE
8
0
10
9.05514968
20
70.7690514
11
4.4
21
70.7690514
0
LINE
8
0
10
4.4
20
70.7690514
11
4.13459172
21
70.7336646
0
LINE
8
0
10
4.13459172
20
70.7336646
11
3.882362
21
70.7000353
0
LINE
8
0
10
3.882362
20
70.7000353
11
3.640477
21
70.5985696
0
LINE
8
0
10
3.640477
20
70.5985696
11
3.4
21
70.4976929
0
LINE
8
0
10
3.4
20
70.4976929
11
3.20224667
21
70.3440182
0
LINE
8
0
10
3.20224667
20
70.3440182
11
2.985786
21
70.1758056
0
LINE
8
0
10
2.985786
20
70.1758056
11
2.84549979
21
69.9906519
0
LINE
8
0
10
2.84549979
20
69.9906519
11
2.667949
21
69.7563153
0
LINE
8
0
10
2.667949
20
69.7563153
11
2.58915671
21
69.5636716
0
LINE
8
0
10
2.58915671
20
69.5636716
11
2.468148
21
69.2678096
0
LINE
8
0
10
2.468148
20
69.2678096
11
2.44335039
21
69.0791992
0
LINE
8
0
10
2.44335039
20
69.0791992
11
2.4
21
68.7372342
0
LINE
8
0
10
2.4
20
68.7372342
11
2.4
21
66.8736391
0
LINE
8
0
10
2.4
20
66.8736391
11
2.4
21
64.4611497
0
LINE
8
0
10
2.4
20
64.4611497
11
2.4
21
63.2319404
0
LINE
8
0
10
2.4
20
63.2319404
11
2.4
21
62.5717353
0
LINE
8
0
10
2.4
20
62.5717353
11
2.4
21
61.8834483
0
LINE
8
0
10
2.4
20
61.8834483
11
2.4
21
61.410921
0
LINE
8
0
10
2.4
20
61.410921
11
2.4
21
60.7718883
0
LINE
8
0
10
2.4
20
60.7718883
11
2.4
21
60.4911952
0
LINE
8
0
10
2.4
20
60.4911952
11
2.4
21
60.2669764
0
LINE
8
0
10
2.4
20
60.2669764
11
2.4
21
59.6564655
0
LINE
8
0
10
2.4
20
59.6564655
11
2.4
21
59.5201341
0
LINE
8
0
10
2.4
20
59.5201341
11
2.4
21
58.8848223
0
LINE
8
0
10
2.4
20
58.8848223
11
2.4
21
58.7985445
0
LINE
8
0
10
2.4
20
58.7985445
11
2.4
21
58.7195585
0
LINE
8
0
10
2.4
20
58.7195585
11
2.4
21
58.0966286
0
LINE
8
0
10
2.4
20
58.0966286
11
2.4
21
58.0320804
0
LINE
8
0
10
2.4
20
58.0320804
11
2.4
21
57.4128003
0
LINE
8
0
10
2.4
20
57.4128003
11
2.4
21
57.3373733
0
LINE
8
0
10
2.4
20
57.3373733
11
2.4
21
56.7465437
0
LINE
8
0
10
2.4
20
56.7465437
11
2.4
21
56.2555821
0
LINE
8
0
10
2.4
20
56.2555821
11
2.4
21
55.9026336
0
LINE
8
0
10
2.4
20
55.9026336
11
2.4
21
51.2614626
0
LINE
8
0
10
2.4
20
51.2614626
11
2.4
21
46.5524815
0
LINE
8
0
10
2.4
20
46.5524815
11
2.4
21
42.1606981
0
LINE
8
0
10
2.4
20
42.1606981
11
2.4
21
40.0658895
0
LINE
8
0
10
2.4
20
40.0658895
11
2.4
21
37.5521192
0
LINE
8
0
10
2.4
20
37.5521192
11
8.76272199
21
37.5521192
0
LINE
8
0
10
8.76272199
20
37.5521192
11
16
21
37.5521192
0
LINE
8
0
10
16
20
37.5521192
11
16
21
42.1606981
0
LINE
8
0
10
16
20
42.1606981
11
16
21
42.1606981
0
LINE
8
0
10
16
20
-11.0461997
11
16
21
-6.56348717
0
LINE
8
0
10
16
20
-6.56348717
11
15.5434749
21
-5.87759898
0
LINE
8
0
10
15.5434749
20
-5.87759898
11
15.3957555
21
-5.6381352
0
LINE
8
0
10
15.3957555
20
-5.6381352
11
14.837931
21
-4.66923949
0
LINE
8
0
10
14.837931
20
-4.66923949
11
14.6012918
21
-4.17290128
0
LINE
8
0
10
14.6012918
20
-4.17290128
11
14.3765208
21
-3.68797098
0
LINE
8
0
10
14.3765208
20
-3.68797098
11
14.2702182
21
-3.37341999
0
LINE
8
0
10
14.2702182
20
-3.37341999
11
14.112047
21
-2.8483581
0
LINE
8
0
10
14.112047
20
-2.8483581
11
14.0724166
21
-2.65054091
0
LINE
8
0
10
14.0724166
20
-2.65054091
11
14.0138481
21
-2.09930409
0
LINE
8
0
10
14.0138481
20
-2.09930409
11
14.0053051
21
-1.94294927
0
LINE
8
0
10
14.0053051
20
-1.94294927
11
14.0200462
21
-1.7831033
0
LINE
8
0
10
14.0200462
20
-1.7831033
11
14.073574
21
-1.22630882
0
LINE
8
0
10
14.073574
20
-1.22630882
11
14.1225068
21
-1.01970008
0
LINE
8
0
10
14.1225068
20
-1.01970008
11
14.2806222
21
-0.475743585
0
LINE
8
0
10
14.2806222
20
-0.475743585
11
14.4075383
21
-0.135487028
0
LINE
8
0
10
14.4075383
20
-0.135487028
11
14.6301991
21
0.340717817
0
LINE
8
0
10
14.6301991
20
0.340717817
11
14.9250953
21
0.937541992
0
LINE
8
0
10
14.9250953
20
0.937541992
11
15.4136879
21
1.83135702
0
LINE
8
0
10
15.4136879
20
1.83135702
11
16
21
2.90393631
0
LINE
8
0
10
16
20
2.90393631
11
16
21
3.2038691
0
LINE
8
0
10
16
20
3.2038691
11
16
21
9.83930201
0
LINE
8
0
10
16
20
9.83930201
11
4.19727801
21
9.83930201
0
LINE
8
0
10
4.19727801
20
9.83930201
11
2.4
21
9.83930201
0
LINE
8
0
10
2.4
20
9.83930201
11
2.4
21
4.82547722
0
LINE
8
0
10
2.4
20
4.82547722
11
2.4
21
-0.304517661
0
LINE
8
0
10
2.4
20
-0.304517661
11
2.4
21
-0.755320754
0
LINE
8
0
10
2.4
20
-0.755320754
11
2.4
21
-1.31785497
0
LINE
8
0
10
2.4
20
-1.31785497
11
2.4
21
-1.93679968
0
LINE
8
0
10
2.4
20
-1.93679968
11
2.4
21
-2.002137
0
LINE
8
0
10
2.4
20
-2.002137
11
2.4
21
-2.62124344
0
LINE
8
0
10
2.4
20
-2.62124344
11
2.4
21
-2.70053057
0
LINE
8
0
10
2.4
20
-2.70053057
11
2.4
21
-2.78506738
0
LINE
8
0
10
2.4
20
-2.78506738
11
2.4
21
-3.41530106
0
LINE
8
0
10
2.4
20
-3.41530106
11
2.4
21
-3.54665075
0
LINE
8
0
10
2.4
20
-3.54665075
11
2.4
21
-4.15160803
0
LINE
8
0
10
2.4
20
-4.15160803
11
2.4
21
-4.3632972
0
LINE
8
0
10
2.4
20
-4.3632972
11
2.4
21
-4.61807894
0
LINE
8
0
10
2.4
20
-4.61807894
11
2.4
21
-5.25163851
0
LINE
8
0
10
2.4
20
-5.25163851
11
2.4
21
-5.66762783
0
LINE
8
0
10
2.4
20
-5.66762783
11
2.4
21
-6.2320903
0
LINE
8
0
10
2.4
20
-6.2320903
11
2.4
21
-6.90018479
0
LINE
8
0
10
2.4
20
-6.90018479
11
2.4
21
-7.85112228
0
LINE
8
0
10
2.4
20
-7.85112228
11
2.4
21
-9.43115622
0
LINE
8
0
10
2.4
20
-9.43115622
11
2.4
21
-12.7881925
0
LINE
8
0
10
2.4
20
-12.7881925
11
2.4
21
-13.026899
0
LINE
8
0
10
2.4
20
-13.026899
11
2.4
21
-13.1731576
0
LINE
8
0
10
2.4
20
-13.1731576
11
2.4
21
-13.2599444
0
LINE
8
0
10
2.4
20
-13.2599444
11
2.4
21
-13.3064934
0
LINE
8
0
10
2.4
20
-13.3064934
11
2.4
21
-13.9568525
0
LINE
8
0
10
2.4
20
-13.9568525
11
2.4
21
-14
0
LINE
8
0
10
2.4
20
-14
11
2.40193604
21
-14.0147058
0
LINE
8
0
10
2.40193604
20
-14.0147058
11
2.468148
21
-14.51764
0
LINE
8
0
10
2.468148
20
-14.51764
11
2.66227279
21
-14.9862965
0
LINE
8
0
10
2.66227279
20
-14.9862965
11
2.667949
21
-15
0
LINE
8
0
10
2.667949
20
-15
11
2.97675647
21
-15.4024426
0
LINE
8
0
10
2.97675647
20
-15.4024426
11
2.985786
21
-15.41421
0
LINE
8
0
10
2.985786
20
-15.41421
11
3.38823247
21
-15.7230204
0
LINE
8
0
10
3.38823247
20
-15.7230204
11
3.40002304
21
-15.7320634
0
LINE
8
0
10
3.40002304
20
-15.7320634
11
3.86868147
21
-15.9261872
0
LINE
8
0
10
3.86868147
20
-15.9261872
11
3.882362
21
-15.93185
0
LINE
8
0
10
3.882362
20
-15.93185
11
4.38529427
21
-15.9980639
0
LINE
8
0
10
4.38529427
20
-15.9980639
11
4.39264714
21
-15.999032
0
LINE
8
0
10
4.39264714
20
-15.999032
11
4.3966549
21
-15.9997168
0
LINE
8
0
10
4.3966549
20
-15.9997168
11
4.4
21
-16
0
LINE
8
0
10
4.4
20
-16
11
4.53089729
21
-16
0
LINE
8
0
10
4.53089729
20
-16
11
14
21
-16
0
LINE
8
0
10
14
20
-16
11
14.0141162
21
-15.9981415
0
LINE
8
0
10
14.0141162
20
-15.9981415
11
14.51764
21
-15.93185
0
LINE
8
0
10
14.51764
20
-15.93185
11
14.9868459
21
-15.7374986
0
LINE
8
0
10
14.9868459
20
-15.7374986
11
15.0000215
21
-15.7320375
0
LINE
8
0
10
15.0000215
20
-15.7320375
11
15.4029359
21
-15.422865
0
LINE
8
0
10
15.4029359
20
-15.422865
11
15.41421
21
-15.41421
0
LINE
8
0
10
15.41421
20
-15.41421
11
15.7233824
21
-15.0112956
0
LINE
8
0
10
15.7233824
20
-15.0112956
11
15.73205
21
-15
0
LINE
8
0
10
15.73205
20
-15
11
15.9264014
21
-14.5307941
0
LINE
8
0
10
15.9264014
20
-14.5307941
11
15.93185
21
-14.51764
0
LINE
8
0
10
15.93185
20
-14.51764
11
15.9981415
21
-14.0141162
0
LINE
8
0
10
15.9981415
20
-14.0141162
11
15.9997832
21
-14.0035805
0
LINE
8
0
10
15.9997832
20
-14.0035805
11
16
21
-14
0
LINE
8
0
10
16
20
-14
11
16
21
-13.603378
0
LINE
8
0
10
16
20
-13.603378
11
16
21
-13.5492042
0
LINE
8
0
10
16
20
-13.5492042
11
16
21
-13.4447266
0
LINE
8
0
10
16
20
-13.4447266
11
16
21
-13.4048447
0
LINE
8
0
10
16
20
-13.4048447
11
16
21
-13.1981711
0
LINE
8
0
10
16
20
-13.1981711
11
16
21
-12.7211272
0
LINE
8
0
10
16
20
-12.7211272
11
16
21
-11.0461997
0
LINE
8
0
10
16
20
-11.0461997
11
16
21
-11.0461997
0
LINE
8
0
10
16
20
33.5004408
11
16
21
28.8918619
0
LINE
8
0
10
16
20
28.8918619
11
16
21
26.5722381
0
LINE
8
0
10
16
20
26.5722381
11
16
21
18.4995572
0
LINE
8
0
10
16
20
18.4995572
11
3.32272199
21
18.4995572
0
LINE
8
0
10
3.32272199
20
18.4995572
11
2.4
21
18.4995572
0
LINE
8
0
10
2.4
20
18.4995572
11
2.4
21
22.9028377
0
LINE
8
0
10
2.4
20
22.9028377
11
2.4
21
26.5722381
0
LINE
8
0
10
2.4
20
26.5722381
11
2.4
21
27.5000876
0
LINE
8
0
10
2.4
20
27.5000876
11
2.4
21
28.8918619
0
LINE
8
0
10
2.4
20
28.8918619
11
2.4
21
31.4521835
0
LINE
8
0
10
2.4
20
31.4521835
11
2.4
21
33.5004408
0
LINE
8
0
10
2.4
20
33.5004408
11
9.63727801
21
33.5004408
0
LINE
8
0
10
9.63727801
20
33.5004408
11
16
21
33.5004408
0
LINE
8
0
10
16
20
33.5004408
11
16
21
33.5004408
0
LINE
8
0
10
16
20
10.9837788
11
16
21
15.5616864
0
LINE
8
0
10
16
20
15.5616864
11
16
21
17.9119828
0
LINE
8
0
10
16
20
17.9119828
11
15.077278
21
17.9119828
0
LINE
8
0
10
15.077278
20
17.9119828
11
2.4
21
17.9119828
0
LINE
8
0
10
2.4
20
17.9119828
11
2.4
21
14.3241246
0
LINE
8
0
10
2.4
20
14.3241246
11
2.4
21
10.9837788
0
LINE
8
0
10
2.4
20
10.9837788
11
14.202722
21
10.9837788
0
LINE
8
0
10
14.202722
20
10.9837788
11
16
21
10.9837788
0
LINE
8
0
10
16
20
10.9837788
11
16
21
10.9837788
0
ENDSEC
0
EOF
