0
SECTION
2
ENTITIES
0
LINE
8
0
10
16
20
68.6951463
11
16
21
67.2213812
0
LINE
8
0
10
16
20
67.2213812
11
16
21
65.6110187
0
LINE
8
0
10
16
20
65.6110187
11
16
21
61.6784775
0
LINE
8
0
10
16
20
61.6784775
11
15.4949494
21
61.1681138
0
LINE
8
0
10
15.4949494
20
61.1681138
11
14.8330285
21
60.3423381
0
LINE
8
0
10
14.8330285
20
60.3423381
11
14.5899184
21
60.0296638
0
LINE
8
0
10
14.5899184
20
60.0296638
11
14.2893052
21
59.5167109
0
LINE
8
0
10
14.2893052
20
59.5167109
11
14.0860502
21
59.0981888
0
LINE
8
0
10
14.0860502
20
59.0981888
11
13.9666093
21
58.7497967
0
LINE
8
0
10
13.9666093
20
58.7497967
11
13.8905192
21
58.2908213
0
LINE
8
0
10
13.8905192
20
58.2908213
11
13.8661024
21
58.0019264
0
LINE
8
0
10
13.8661024
20
58.0019264
11
13.941037
21
57.5535109
0
LINE
8
0
10
13.941037
20
57.5535109
11
13.9960554
21
57.2398471
0
LINE
8
0
10
13.9960554
20
57.2398471
11
14.161633
21
56.8546048
0
LINE
8
0
10
14.161633
20
56.8546048
11
14.3689161
21
56.4285816
0
LINE
8
0
10
14.3689161
20
56.4285816
11
14.7742346
21
55.821613
0
LINE
8
0
10
14.7742346
20
55.821613
11
15.0054452
21
55.5222043
0
LINE
8
0
10
15.0054452
20
55.5222043
11
15.9299695
21
54.4674045
0
LINE
8
0
10
15.9299695
20
54.4674045
11
15.9484744
21
54.4491065
0
LINE
8
0
10
15.9484744
20
54.4491065
11
16
21
54.3998059
0
LINE
8
0
10
16
20
54.3998059
11
16
21
54.2608173
0
LINE
8
0
10
16
20
54.2608173
11
16
21
41.7629183
0
LINE
8
0
10
16
20
41.7629183
11
16
21
37.9498995
0
LINE
8
0
10
16
20
37.9498995
11
10.0120636
21
37.9498995
0
LINE
8
0
10
10.0120636
20
37.9498995
11
2.4
21
37.9498995
0
LINE
8
0
10
2.4
20
37.9498995
11
2.4
21
40.0297279
0
LINE
8
0
10
2.4
20
40.0297279
11
2.4
21
41.7629183
0
LINE
8
0
10
2.4
20
41.7629183
11
2.4
21
46.7587978
0
LINE
8
0
10
2.4
20
46.7587978
11
2.4
21
51.3649436
0
LINE
8
0
10
2.4
20
51.3649436
11
2.4
21
55.9047599
0
LINE
8
0
10
2.4
20
55.9047599
11
2.4
21
56.2500006
0
LINE
8
0
10
2.4
20
56.2500006
11
2.4
21
56.7302406
0
LINE
8
0
10
2.4
20
56.7302406
11
2.4
21
57.3081675
0
LINE
8
0
10
2.4
20
57.3081675
11
2.4
21
57.4161979
0
LINE
8
0
10
2.4
20
57.4161979
11
2.4
21
58.0218311
0
LINE
8
0
10
2.4
20
58.0218311
11
2.4
21
58.1196082
0
LINE
8
0
10
2.4
20
58.1196082
11
2.4
21
58.7284276
0
LINE
8
0
10
2.4
20
58.7284276
11
2.4
21
58.8415553
0
LINE
8
0
10
2.4
20
58.8415553
11
2.4
21
58.9651269
0
LINE
8
0
10
2.4
20
58.9651269
11
2.4
21
59.5842761
0
LINE
8
0
10
2.4
20
59.5842761
11
2.4
21
59.7606936
0
LINE
8
0
10
2.4
20
59.7606936
11
2.4
21
60.3541375
0
LINE
8
0
10
2.4
20
60.3541375
11
2.4
21
60.6220558
0
LINE
8
0
10
2.4
20
60.6220558
11
2.4
21
60.9574552
0
LINE
8
0
10
2.4
20
60.9574552
11
2.4
21
61.572574
0
LINE
8
0
10
2.4
20
61.572574
11
2.4
21
62.1090825
0
LINE
8
0
10
2.4
20
62.1090825
11
2.4
21
62.8905653
0
LINE
8
0
10
2.4
20
62.8905653
11
2.4
21
63.5081534
0
LINE
8
0
10
2.4
20
63.5081534
11
2.4
21
64.8601504
0
LINE
8
0
10
2.4
20
64.8601504
11
2.4
21
67.513627
0
LINE
8
0
10
2.4
20
67.513627
11
2.4
21
68.6951463
0
LINE
8
0
10
2.4
20
68.6951463
11
2.45421158
21
69.1227886
0
LINE
8
0
10
2.45421158
20
69.1227886
11
2.468148
21
69.228789
0
LINE
8
0
10
2.468148
20
69.228789
11
2.6178034
21
69.594691
0
LINE
8
0
10
2.6178034
20
69.594691
11
2.667949
21
69.7172948
0
LINE
8
0
10
2.667949
20
69.7172948
11
2.89000938
21
70.0103764
0
LINE
8
0
10
2.89000938
20
70.0103764
11
2.985786
21
70.1367851
0
LINE
8
0
10
2.985786
20
70.1367851
11
3.25940412
21
70.349415
0
LINE
8
0
10
3.25940412
20
70.349415
11
3.4
21
70.4586725
0
LINE
8
0
10
3.4
20
70.4586725
11
3.70668534
21
70.5873226
0
LINE
8
0
10
3.70668534
20
70.5873226
11
3.882362
21
70.6610153
0
LINE
8
0
10
3.882362
20
70.6610153
11
4.20594949
21
70.7041586
0
LINE
8
0
10
4.20594949
20
70.7041586
11
4.4
21
70.7300313
0
LINE
8
0
10
4.4
20
70.7300313
11
10.384624
21
70.7300313
0
LINE
8
0
10
10.384624
20
70.7300313
11
14
21
70.7300313
0
LINE
8
0
10
14
20
70.7300313
11
14.3256731
21
70.68661
0
LINE
8
0
10
14.3256731
20
70.68661
11
14.51764
21
70.6610153
0
LINE
8
0
10
14.51764
20
70.6610153
11
14.8303659
21
70.5298307
0
LINE
8
0
10
14.8303659
20
70.5298307
11
15
21
70.4586725
0
LINE
8
0
10
15
20
70.4586725
11
15.2828255
21
70.2388854
0
LINE
8
0
10
15.2828255
20
70.2388854
11
15.41421
21
70.1367851
0
LINE
8
0
10
15.41421
20
70.1367851
11
15.646946
21
69.8296164
0
LINE
8
0
10
15.646946
20
69.8296164
11
15.73205
21
69.7172948
0
LINE
8
0
10
15.73205
20
69.7172948
11
15.8909757
21
69.3287254
0
LINE
8
0
10
15.8909757
20
69.3287254
11
15.93185
21
69.228789
0
LINE
8
0
10
15.93185
20
69.228789
11
15.9457868
21
69.1227886
0
LINE
8
0
10
15.9457868
20
69.1227886
11
16
21
68.6951463
0
LINE
8
0
10
16
20
68.6951463
11
16
21
68.6951463
0
LINE
8
0
10
16
20
-13.8441453
11
16
21
-13.8734701
0
LINE
8
0
10
16
20
-13.8734701
11
16
21
-13.8886757
0
LINE
8
0
10
16
20
-13.8886757
11
16
21
-14
0
LINE
8
0
10
16
20
-14
11
15.9999391
21
-14.001005
0
LINE
8
0
10
15.9999391
20
-14.001005
11
15.9994784
21
-14.0039621
0
LINE
8
0
10
15.9994784
20
-14.0039621
11
15.93185
21
-14.51764
0
LINE
8
0
10
15.93185
20
-14.51764
11
15.9303207
21
-14.5213321
0
LINE
8
0
10
15.9303207
20
-14.5213321
11
15.73205
21
-15
0
LINE
8
0
10
15.73205
20
-15
11
15.7296172
21
-15.0031705
0
LINE
8
0
10
15.7296172
20
-15.0031705
11
15.41421
21
-15.41421
0
LINE
8
0
10
15.41421
20
-15.41421
11
15.4110456
21
-15.4166393
0
LINE
8
0
10
15.4110456
20
-15.4166393
11
15.000006
21
-15.7320465
0
LINE
8
0
10
15.000006
20
-15.7320465
11
14.9963079
21
-15.7335793
0
LINE
8
0
10
14.9963079
20
-15.7335793
11
14.51764
21
-15.93185
0
LINE
8
0
10
14.51764
20
-15.93185
11
14.0039621
21
-15.9994784
0
LINE
8
0
10
14.0039621
20
-15.9994784
11
14
21
-16
0
LINE
8
0
10
14
20
-16
11
4.43674039
21
-16
0
LINE
8
0
10
4.43674039
20
-16
11
4.4
21
-16
0
LINE
8
0
10
4.4
20
-16
11
4.39906109
21
-15.9999205
0
LINE
8
0
10
4.39906109
20
-15.9999205
11
4.39793619
21
-15.9997283
0
LINE
8
0
10
4.39793619
20
-15.9997283
11
4.39587238
21
-15.9994566
0
LINE
8
0
10
4.39587238
20
-15.9994566
11
3.882362
21
-15.93185
0
LINE
8
0
10
3.882362
20
-15.93185
11
3.87852213
21
-15.9302606
0
LINE
8
0
10
3.87852213
20
-15.9302606
11
3.40000647
21
-15.7320537
0
LINE
8
0
10
3.40000647
20
-15.7320537
11
3.39669708
21
-15.7295156
0
LINE
8
0
10
3.39669708
20
-15.7295156
11
2.985786
21
-15.41421
0
LINE
8
0
10
2.985786
20
-15.41421
11
2.98325158
21
-15.4109071
0
LINE
8
0
10
2.98325158
20
-15.4109071
11
2.667949
21
-15
0
LINE
8
0
10
2.667949
20
-15
11
2.6663558
21
-14.9961537
0
LINE
8
0
10
2.6663558
20
-14.9961537
11
2.468148
21
-14.51764
0
LINE
8
0
10
2.468148
20
-14.51764
11
2.40054341
21
-14.0041276
0
LINE
8
0
10
2.40054341
20
-14.0041276
11
2.4
21
-14
0
LINE
8
0
10
2.4
20
-14
11
2.4
21
-13.9565558
0
LINE
8
0
10
2.4
20
-13.9565558
11
2.4
21
-13.7740123
0
LINE
8
0
10
2.4
20
-13.7740123
11
2.4
21
-13.7609469
0
LINE
8
0
10
2.4
20
-13.7609469
11
2.4
21
-13.7365875
0
LINE
8
0
10
2.4
20
-13.7365875
11
2.4
21
-13.6955354
0
LINE
8
0
10
2.4
20
-13.6955354
11
2.4
21
-13.6285351
0
LINE
8
0
10
2.4
20
-13.6285351
11
2.4
21
-9.93663993
0
LINE
8
0
10
2.4
20
-9.93663993
11
2.4
21
-8.19900023
0
LINE
8
0
10
2.4
20
-8.19900023
11
2.4
21
-7.1532083
0
LINE
8
0
10
2.4
20
-7.1532083
11
2.4
21
-6.51768556
0
LINE
8
0
10
2.4
20
-6.51768556
11
2.4
21
-5.87704237
0
LINE
8
0
10
2.4
20
-5.87704237
11
2.4
21
-5.40491048
0
LINE
8
0
10
2.4
20
-5.40491048
11
2.4
21
-4.79175315
0
LINE
8
0
10
2.4
20
-4.79175315
11
2.4
21
-4.48759473
0
LINE
8
0
10
2.4
20
-4.48759473
11
2.4
21
-4.23488019
0
LINE
8
0
10
2.4
20
-4.23488019
11
2.4
21
-3.64540578
0
LINE
8
0
10
2.4
20
-3.64540578
11
2.4
21
-3.47574566
0
LINE
8
0
10
2.4
20
-3.47574566
11
2.4
21
-2.86052524
0
LINE
8
0
10
2.4
20
-2.86052524
11
2.4
21
-2.73974067
0
LINE
8
0
10
2.4
20
-2.73974067
11
2.4
21
-2.62645674
0
LINE
8
0
10
2.4
20
-2.62645674
11
2.4
21
-2.02099799
0
LINE
8
0
10
2.4
20
-2.02099799
11
2.4
21
-1.92206764
0
LINE
8
0
10
2.4
20
-1.92206764
11
2.4
21
-1.31663955
0
LINE
8
0
10
2.4
20
-1.31663955
11
2.4
21
-0.76639004
0
LINE
8
0
10
2.4
20
-0.76639004
11
2.4
21
-0.325431655
0
LINE
8
0
10
2.4
20
-0.325431655
11
2.4
21
4.6925336
0
LINE
8
0
10
2.4
20
4.6925336
11
2.4
21
10.2370817
0
LINE
8
0
10
2.4
20
10.2370817
11
2.9479364
21
10.2370817
0
LINE
8
0
10
2.9479364
20
10.2370817
11
16
21
10.2370817
0
LINE
8
0
10
16
20
10.2370817
11
16
21
2.89927503
0
LINE
8
0
10
16
20
2.89927503
11
16
21
2.66941685
0
LINE
8
0
10
16
20
2.66941685
11
15.5506705
21
1.84742896
0
LINE
8
0
10
15.5506705
20
1.84742896
11
15.17623
21
1.16243985
0
LINE
8
0
10
15.17623
20
1.16243985
11
14.8229719
21
0.447500206
0
LINE
8
0
10
14.8229719
20
0.447500206
11
14.6316462
21
0.0383119084
0
LINE
8
0
10
14.6316462
20
0.0383119084
11
14.4668768
21
-0.403427711
0
LINE
8
0
10
14.4668768
20
-0.403427711
11
14.3258895
21
-0.888459158
0
LINE
8
0
10
14.3258895
20
-0.888459158
11
14.2556172
21
-1.18517008
0
LINE
8
0
10
14.2556172
20
-1.18517008
11
14.2071476
21
-1.68934865
0
LINE
8
0
10
14.2071476
20
-1.68934865
11
14.1848275
21
-1.93137904
0
LINE
8
0
10
14.1848275
20
-1.93137904
11
14.1977628
21
-2.1681233
0
LINE
8
0
10
14.1977628
20
-2.1681233
11
14.2509079
21
-2.66831641
0
LINE
8
0
10
14.2509079
20
-2.66831641
11
14.3075312
21
-2.95095379
0
LINE
8
0
10
14.3075312
20
-2.95095379
11
14.4493249
21
-3.42164924
0
LINE
8
0
10
14.4493249
20
-3.42164924
11
14.5866324
21
-3.82794453
0
LINE
8
0
10
14.5866324
20
-3.82794453
11
14.8769619
21
-4.45431322
0
LINE
8
0
10
14.8769619
20
-4.45431322
11
15.0669621
21
-4.85282861
0
LINE
8
0
10
15.0669621
20
-4.85282861
11
15.732893
21
-6.00949628
0
LINE
8
0
10
15.732893
20
-6.00949628
11
15.7981925
21
-6.11535155
0
LINE
8
0
10
15.7981925
20
-6.11535155
11
16
21
-6.41854929
0
LINE
8
0
10
16
20
-6.41854929
11
16
21
-13.1395906
0
LINE
8
0
10
16
20
-13.1395906
11
16
21
-13.6097111
0
LINE
8
0
10
16
20
-13.6097111
11
16
21
-13.7436083
0
LINE
8
0
10
16
20
-13.7436083
11
16
21
-13.8016176
0
LINE
8
0
10
16
20
-13.8016176
11
16
21
-13.8441453
0
LINE
8
0
10
16
20
-13.8441453
11
16
21
-13.8441453
0
LINE
8
0
10
16
20
10.5859985
11
16
21
11.9816658
0
LINE
8
0
10
16
20
11.9816658
11
16
21
17.5142025
0
LINE
8
0
10
16
20
17.5142025
11
13.8279364
21
17.5142025
0
LINE
8
0
10
13.8279364
20
17.5142025
11
2.4
21
17.5142025
0
LINE
8
0
10
2.4
20
17.5142025
11
2.4
21
14.2799266
0
LINE
8
0
10
2.4
20
14.2799266
11
2.4
21
10.5859985
0
LINE
8
0
10
2.4
20
10.5859985
11
15.4520636
21
10.5859985
0
LINE
8
0
10
15.4520636
20
10.5859985
11
16
21
10.5859985
0
LINE
8
0
10
16
20
10.5859985
11
16
21
10.5859985
0
LINE
8
0
10
16
20
29.2896417
11
16
21
26.1744583
0
LINE
8
0
10
16
20
26.1744583
11
16
21
18.8973375
0
LINE
8
0
10
16
20
18.8973375
11
4.5720636
21
18.8973375
0
LINE
8
0
10
4.5720636
20
18.8973375
11
2.4
21
18.8973375
0
LINE
8
0
10
2.4
20
18.8973375
11
2.4
21
22.8666761
0
LINE
8
0
10
2.4
20
22.8666761
11
2.4
21
26.1744583
0
LINE
8
0
10
2.4
20
26.1744583
11
2.4
21
27.4205317
0
LINE
8
0
10
2.4
20
27.4205317
11
2.4
21
29.2896417
0
LINE
8
0
10
2.4
20
29.2896417
11
2.4
21
31.4079855
0
LINE
8
0
10
2.4
20
31.4079855
11
2.4
21
33.1026605
0
LINE
8
0
10
2.4
20
33.1026605
11
8.3879364
21
33.1026605
0
LINE
8
0
10
8.3879364
20
33.1026605
11
16
21
33.1026605
0
LINE
8
0
10
16
20
33.1026605
11
16
21
29.2896417
0
LINE
8
0
10
16
20
29.2896417
11
16
21
29.2896417
0
ENDSEC
0
EOF
