0
SECTION
2
ENTITIES
0
LINE
8
0
10
16
20
-8.701365
11
16
21
-10.1900261
0
LINE
8
0
10
16
20
-10.1900261
11
16
21
-13.231637
0
LINE
8
0
10
16
20
-13.231637
11
15.9603876
21
-13.5729288
0
LINE
8
0
10
15.9603876
20
-13.5729288
11
15.93185
21
-13.7957835
0
LINE
8
0
10
15.93185
20
-13.7957835
11
15.8583606
21
-13.9850991
0
LINE
8
0
10
15.8583606
20
-13.9850991
11
15.73205
21
-14.3104894
0
LINE
8
0
10
15.73205
20
-14.3104894
11
15.5762662
21
-14.5271224
0
LINE
8
0
10
15.5762662
20
-14.5271224
11
15.41421
21
-14.7524735
0
LINE
8
0
10
15.41421
20
-14.7524735
11
15.1736063
21
-14.9494765
0
LINE
8
0
10
15.1736063
20
-14.9494765
11
15
21
-15.0916244
0
LINE
8
0
10
15
20
-15.0916244
11
14.6917806
21
-15.2278542
0
LINE
8
0
10
14.6917806
20
-15.2278542
11
14.51764
21
-15.3048205
0
LINE
8
0
10
14.51764
20
-15.3048205
11
14.1730909
21
-15.3532233
0
LINE
8
0
10
14.1730909
20
-15.3532233
11
14
21
-15.3775393
0
LINE
8
0
10
14
20
-15.3775393
11
7.55510003
21
-15.3775393
0
LINE
8
0
10
7.55510003
20
-15.3775393
11
4.4
21
-15.3775393
0
LINE
8
0
10
4.4
20
-15.3775393
11
4.05680781
21
-15.3293269
0
LINE
8
0
10
4.05680781
20
-15.3293269
11
3.882362
21
-15.3048205
0
LINE
8
0
10
3.882362
20
-15.3048205
11
3.57668739
21
-15.1697159
0
LINE
8
0
10
3.57668739
20
-15.1697159
11
3.4
21
-15.0916244
0
LINE
8
0
10
3.4
20
-15.0916244
11
3.15963889
21
-14.8948221
0
LINE
8
0
10
3.15963889
20
-14.8948221
11
2.985786
21
-14.7524735
0
LINE
8
0
10
2.985786
20
-14.7524735
11
2.82522804
21
-14.529199
0
LINE
8
0
10
2.82522804
20
-14.529199
11
2.667949
21
-14.3104894
0
LINE
8
0
10
2.667949
20
-14.3104894
11
2.58588313
21
-14.0990812
0
LINE
8
0
10
2.58588313
20
-14.0990812
11
2.468148
21
-13.7957835
0
LINE
8
0
10
2.468148
20
-13.7957835
11
2.43961125
21
-13.5729288
0
LINE
8
0
10
2.43961125
20
-13.5729288
11
2.4
21
-13.231637
0
LINE
8
0
10
2.4
20
-13.231637
11
2.4
21
-11.6777797
0
LINE
8
0
10
2.4
20
-11.6777797
11
2.4
21
-9.68344344
0
LINE
8
0
10
2.4
20
-9.68344344
11
2.4
21
-9.37363814
0
LINE
8
0
10
2.4
20
-9.37363814
11
2.4
21
-7.97118771
0
LINE
8
0
10
2.4
20
-7.97118771
11
2.4
21
-6.93763024
0
LINE
8
0
10
2.4
20
-6.93763024
11
2.4
21
-6.52849528
0
LINE
8
0
10
2.4
20
-6.52849528
11
2.4
21
-5.73056994
0
LINE
8
0
10
2.4
20
-5.73056994
11
2.4
21
-5.06760187
0
LINE
8
0
10
2.4
20
-5.06760187
11
2.4
21
-4.63295611
0
LINE
8
0
10
2.4
20
-4.63295611
11
2.4
21
-4.08019165
0
LINE
8
0
10
2.4
20
-4.08019165
11
2.4
21
-3.61510376
0
LINE
8
0
10
2.4
20
-3.61510376
11
2.4
21
-3.13184163
0
LINE
8
0
10
2.4
20
-3.13184163
11
2.4
21
-2.67858978
0
LINE
8
0
10
2.4
20
-2.67858978
11
2.4
21
-2.20960789
0
LINE
8
0
10
2.4
20
-2.20960789
11
2.4
21
-1.7747473
0
LINE
8
0
10
2.4
20
-1.7747473
11
2.4
21
-1.30448531
0
LINE
8
0
10
2.4
20
-1.30448531
11
2.4
21
-0.877082899
0
LINE
8
0
10
2.4
20
-0.877082899
11
2.4
21
-0.534571595
0
LINE
8
0
10
2.4
20
-0.534571595
11
2.4
21
3.3630974
0
LINE
8
0
10
2.4
20
3.3630974
11
2.4
21
7.89495847
0
LINE
8
0
10
2.4
20
7.89495847
11
2.4
21
13.5134483
0
LINE
8
0
10
2.4
20
13.5134483
11
2.4
21
14.2148801
0
LINE
8
0
10
2.4
20
14.2148801
11
3.46547975
21
14.2148801
0
LINE
8
0
10
3.46547975
20
14.2148801
11
16
21
14.2148801
0
LINE
8
0
10
16
20
14.2148801
11
16
21
13.5134483
0
LINE
8
0
10
16
20
13.5134483
11
16
21
0.121486364
0
LINE
8
0
10
16
20
0.121486364
11
16
21
-0.796559488
0
LINE
8
0
10
16
20
-0.796559488
11
16
21
-1.59936144
0
LINE
8
0
10
16
20
-1.59936144
11
15.9800514
21
-1.81567669
0
LINE
8
0
10
15.9800514
20
-1.81567669
11
16
21
-2.18078101
0
LINE
8
0
10
16
20
-2.18078101
11
16
21
-2.89079452
0
LINE
8
0
10
16
20
-2.89079452
11
16
21
-2.91353649
0
LINE
8
0
10
16
20
-2.91353649
11
16
21
-2.95141973
0
LINE
8
0
10
16
20
-2.95141973
11
16
21
-4.43537069
0
LINE
8
0
10
16
20
-4.43537069
11
16
21
-4.85951672
0
LINE
8
0
10
16
20
-4.85951672
11
16
21
-6.64378236
0
LINE
8
0
10
16
20
-6.64378236
11
16
21
-8.701365
0
LINE
8
0
10
16
20
-8.701365
11
16
21
-8.701365
0
LINE
8
0
10
16
20
57.7409594
11
16
21
56.8283299
0
LINE
8
0
10
16
20
56.8283299
11
16
21
55.9856251
0
LINE
8
0
10
16
20
55.9856251
11
16
21
41.9580296
0
LINE
8
0
10
16
20
41.9580296
11
16
21
37.7851179
0
LINE
8
0
10
16
20
37.7851179
11
9.49452025
21
37.7851179
0
LINE
8
0
10
9.49452025
20
37.7851179
11
2.4
21
37.7851179
0
LINE
8
0
10
2.4
20
37.7851179
11
2.4
21
41.9580296
0
LINE
8
0
10
2.4
20
41.9580296
11
2.4
21
48.8219616
0
LINE
8
0
10
2.4
20
48.8219616
11
2.4
21
52.3997527
0
LINE
8
0
10
2.4
20
52.3997527
11
2.4
21
55.9260229
0
LINE
8
0
10
2.4
20
55.9260229
11
2.4
21
56.1941862
0
LINE
8
0
10
2.4
20
56.1941862
11
2.4
21
56.5672092
0
LINE
8
0
10
2.4
20
56.5672092
11
2.4
21
57.0161099
0
LINE
8
0
10
2.4
20
57.0161099
11
2.4
21
57.4501741
0
LINE
8
0
10
2.4
20
57.4501741
11
2.4
21
57.919338
0
LINE
8
0
10
2.4
20
57.919338
11
2.4
21
58.3494046
0
LINE
8
0
10
2.4
20
58.3494046
11
2.4
21
58.817119
0
LINE
8
0
10
2.4
20
58.817119
11
2.4
21
59.2716643
0
LINE
8
0
10
2.4
20
59.2716643
11
2.4
21
59.7681727
0
LINE
8
0
10
2.4
20
59.7681727
11
2.4
21
60.2256961
0
LINE
8
0
10
2.4
20
60.2256961
11
2.4
21
60.8029755
0
LINE
8
0
10
2.4
20
60.8029755
11
2.4
21
61.2257486
0
LINE
8
0
10
2.4
20
61.2257486
11
2.4
21
61.9306625
0
LINE
8
0
10
2.4
20
61.9306625
11
2.4
21
62.8131243
0
LINE
8
0
10
2.4
20
62.8131243
11
2.4
21
63.1891036
0
LINE
8
0
10
2.4
20
63.1891036
11
2.4
21
64.3654252
0
LINE
8
0
10
2.4
20
64.3654252
11
2.4
21
66.0788648
0
LINE
8
0
10
2.4
20
66.0788648
11
2.4
21
66.270284
0
LINE
8
0
10
2.4
20
66.270284
11
2.4
21
67.9751856
0
LINE
8
0
10
2.4
20
67.9751856
11
2.42171668
21
68.1627816
0
LINE
8
0
10
2.42171668
20
68.1627816
11
2.468148
21
68.5332124
0
LINE
8
0
10
2.468148
20
68.5332124
11
2.60581952
21
68.8924053
0
LINE
8
0
10
2.60581952
20
68.8924053
11
2.667949
21
69.0545016
0
LINE
8
0
10
2.667949
20
69.0545016
11
2.92550467
21
69.4172379
0
LINE
8
0
10
2.92550467
20
69.4172379
11
2.985786
21
69.5021383
0
LINE
8
0
10
2.985786
20
69.5021383
11
3.35698838
21
69.8099555
0
LINE
8
0
10
3.35698838
20
69.8099555
11
3.4
21
69.8456226
0
LINE
8
0
10
3.4
20
69.8456226
11
3.85653808
21
70.0499868
0
LINE
8
0
10
3.85653808
20
70.0499868
11
3.882362
21
70.0615463
0
LINE
8
0
10
3.882362
20
70.0615463
11
4.38109739
21
70.1325011
0
LINE
8
0
10
4.38109739
20
70.1325011
11
4.4
21
70.1351905
0
LINE
8
0
10
4.4
20
70.1351905
11
13.6561066
21
70.1351905
0
LINE
8
0
10
13.6561066
20
70.1351905
11
14
21
70.1351905
0
LINE
8
0
10
14
20
70.1351905
11
14.491971
21
70.0651984
0
LINE
8
0
10
14.491971
20
70.0651984
11
14.51764
21
70.0615463
0
LINE
8
0
10
14.51764
20
70.0615463
11
14.9568866
21
69.8649214
0
LINE
8
0
10
14.9568866
20
69.8649214
11
15
21
69.8456226
0
LINE
8
0
10
15
20
69.8456226
11
15.3509469
21
69.5545994
0
LINE
8
0
10
15.3509469
20
69.5545994
11
15.41421
21
69.5021383
0
LINE
8
0
10
15.41421
20
69.5021383
11
15.6568004
21
69.1604826
0
LINE
8
0
10
15.6568004
20
69.1604826
11
15.73205
21
69.0545016
0
LINE
8
0
10
15.73205
20
69.0545016
11
15.8641731
21
68.7097823
0
LINE
8
0
10
15.8641731
20
68.7097823
11
15.93185
21
68.5332124
0
LINE
8
0
10
15.93185
20
68.5332124
11
15.9782827
21
68.1627816
0
LINE
8
0
10
15.9782827
20
68.1627816
11
16
21
67.9751856
0
LINE
8
0
10
16
20
67.9751856
11
16
21
64.6111415
0
LINE
8
0
10
16
20
64.6111415
11
16
21
63.5088213
0
LINE
8
0
10
16
20
63.5088213
11
16
21
61.7804253
0
LINE
8
0
10
16
20
61.7804253
11
16
21
60.633499
0
LINE
8
0
10
16
20
60.633499
11
16
21
59.9671908
0
LINE
8
0
10
16
20
59.9671908
11
16
21
59.5969922
0
LINE
8
0
10
16
20
59.5969922
11
16
21
58.6741727
0
LINE
8
0
10
16
20
58.6741727
11
16
21
58.4288194
0
LINE
8
0
10
16
20
58.4288194
11
16
21
58.2472044
0
LINE
8
0
10
16
20
58.2472044
11
16
21
58.1004025
0
LINE
8
0
10
16
20
58.1004025
11
16
21
57.9730091
0
LINE
8
0
10
16
20
57.9730091
11
16
21
57.8554991
0
LINE
8
0
10
16
20
57.8554991
11
16
21
57.7409594
0
LINE
8
0
10
16
20
57.7409594
11
16
21
57.7409594
0
LINE
8
0
10
16
20
33.2674421
11
16
21
29.1248603
0
LINE
8
0
10
16
20
29.1248603
11
16
21
22.8751397
0
LINE
8
0
10
16
20
22.8751397
11
16
21
22.1966599
0
LINE
8
0
10
16
20
22.1966599
11
14.9345202
21
22.1966599
0
LINE
8
0
10
14.9345202
20
22.1966599
11
2.4
21
22.1966599
0
LINE
8
0
10
2.4
20
22.1966599
11
2.4
21
22.4982065
0
LINE
8
0
10
2.4
20
22.4982065
11
2.4
21
22.8751397
0
LINE
8
0
10
2.4
20
22.8751397
11
2.4
21
26.6249721
0
LINE
8
0
10
2.4
20
26.6249721
11
2.4
21
29.1248603
0
LINE
8
0
10
2.4
20
29.1248603
11
2.4
21
31.007852
0
LINE
8
0
10
2.4
20
31.007852
11
2.4
21
33.2674421
0
LINE
8
0
10
2.4
20
33.2674421
11
8.90547975
21
33.2674421
0
LINE
8
0
10
8.90547975
20
33.2674421
11
16
21
33.2674421
0
LINE
8
0
10
16
20
33.2674421
11
16
21
33.2674421
0
ENDSEC
0
EOF
