0
SECTION
2
ENTITIES
0
LINE
8
0
10
16
20
-5.61656289
11
16
21
-9.98219214
0
LINE
8
0
10
16
20
-9.98219214
11
16
21
-13.7190978
0
LINE
8
0
10
16
20
-13.7190978
11
15.9541842
21
-14.0954671
0
LINE
8
0
10
15.9541842
20
-14.0954671
11
15.9357302
21
-14.2503222
0
LINE
8
0
10
15.9357302
20
-14.2503222
11
15.9356155
21
-14.2508236
0
LINE
8
0
10
15.9356155
20
-14.2508236
11
15.9011884
21
-14.3594962
0
LINE
8
0
10
15.9011884
20
-14.3594962
11
15.7743363
21
-14.6787227
0
LINE
8
0
10
15.7743363
20
-14.6787227
11
15.7492845
21
-14.7319149
0
LINE
8
0
10
15.7492845
20
-14.7319149
11
15.6997621
21
-14.8156438
0
LINE
8
0
10
15.6997621
20
-14.8156438
11
15.5201737
21
-15.0579402
0
LINE
8
0
10
15.5201737
20
-15.0579402
11
15.4394341
21
-15.163022
0
LINE
8
0
10
15.4394341
20
-15.163022
11
15.4393356
21
-15.1631295
0
LINE
8
0
10
15.4393356
20
-15.1631295
11
15.4105976
21
-15.1937341
0
LINE
8
0
10
15.4105976
20
-15.1937341
11
15.2571445
21
-15.3164572
0
LINE
8
0
10
15.2571445
20
-15.3164572
11
15.030429
21
-15.4958824
0
LINE
8
0
10
15.030429
20
-15.4958824
11
14.7860267
21
-15.6077964
0
LINE
8
0
10
14.7860267
20
-15.6077964
11
14.5361255
21
-15.7144182
0
LINE
8
0
10
14.5361255
20
-15.7144182
11
14.2592327
21
-15.7550882
0
LINE
8
0
10
14.2592327
20
-15.7550882
11
14
21
-15.7902144
0
LINE
8
0
10
14
20
-15.7902144
11
9.25072869
21
-15.7902144
0
LINE
8
0
10
9.25072869
20
-15.7902144
11
4.4
21
-15.7902144
0
LINE
8
0
10
4.4
20
-15.7902144
11
4.39197154
21
-15.790174
0
LINE
8
0
10
4.39197154
20
-15.790174
11
4.3908008
21
-15.7901589
0
LINE
8
0
10
4.3908008
20
-15.7901589
11
4.36217796
21
-15.7893403
0
LINE
8
0
10
4.36217796
20
-15.7893403
11
4.20389818
21
-15.7694574
0
LINE
8
0
10
4.20389818
20
-15.7694574
11
3.94702671
21
-15.734581
0
LINE
8
0
10
3.94702671
20
-15.734581
11
3.92213897
21
-15.7292695
0
LINE
8
0
10
3.92213897
20
-15.7292695
11
3.91079908
21
-15.7266487
0
LINE
8
0
10
3.91079908
20
-15.7266487
11
3.90613054
21
-15.7255305
0
LINE
8
0
10
3.90613054
20
-15.7255305
11
3.90428798
21
-15.7250862
0
LINE
8
0
10
3.90428798
20
-15.7250862
11
3.90357362
21
-15.7249114
0
LINE
8
0
10
3.90357362
20
-15.7249114
11
3.90329806
21
-15.7248416
0
LINE
8
0
10
3.90329806
20
-15.7248416
11
3.90319223
21
-15.7248166
0
LINE
8
0
10
3.90319223
20
-15.7248166
11
3.7605266
21
-15.6784806
0
LINE
8
0
10
3.7605266
20
-15.6784806
11
3.51449996
21
-15.5732064
0
LINE
8
0
10
3.51449996
20
-15.5732064
11
3.46505398
21
-15.5504604
0
LINE
8
0
10
3.46505398
20
-15.5504604
11
3.43951537
21
-15.5372135
0
LINE
8
0
10
3.43951537
20
-15.5372135
11
3.43059088
21
-15.5323558
0
LINE
8
0
10
3.43059088
20
-15.5323558
11
3.42791267
21
-15.5308711
0
LINE
8
0
10
3.42791267
20
-15.5308711
11
3.4271463
21
-15.5304435
0
LINE
8
0
10
3.4271463
20
-15.5304435
11
3.42693009
21
-15.5303234
0
LINE
8
0
10
3.42693009
20
-15.5303234
11
3.42686907
21
-15.5302897
0
LINE
8
0
10
3.42686907
20
-15.5302897
11
3.35006152
21
-15.4830054
0
LINE
8
0
10
3.35006152
20
-15.4830054
11
3.30429364
21
-15.4503182
0
LINE
8
0
10
3.30429364
20
-15.4503182
11
3.08203874
21
-15.2740082
0
LINE
8
0
10
3.08203874
20
-15.2740082
11
3.03655878
21
-15.237441
0
LINE
8
0
10
3.03655878
20
-15.237441
11
3.01948113
21
-15.222405
0
LINE
8
0
10
3.01948113
20
-15.222405
11
3.01565118
21
-15.2189224
0
LINE
8
0
10
3.01565118
20
-15.2189224
11
3.01490229
21
-15.2182331
0
LINE
8
0
10
3.01490229
20
-15.2182331
11
3.01475994
21
-15.2181033
0
LINE
8
0
10
3.01475994
20
-15.2181033
11
2.98939929
21
-15.1937341
0
LINE
8
0
10
2.98939929
20
-15.1937341
11
2.9606617
21
-15.1631295
0
LINE
8
0
10
2.9606617
20
-15.1631295
11
2.96056546
21
-15.163022
0
LINE
8
0
10
2.96056546
20
-15.163022
11
2.96018855
21
-15.1625968
0
LINE
8
0
10
2.96018855
20
-15.1625968
11
2.95873016
21
-15.160954
0
LINE
8
0
10
2.95873016
20
-15.160954
11
2.95343108
21
-15.1548975
0
LINE
8
0
10
2.95343108
20
-15.1548975
11
2.93787763
21
-15.1364595
0
LINE
8
0
10
2.93787763
20
-15.1364595
11
2.91111409
21
-15.1022648
0
LINE
8
0
10
2.91111409
20
-15.1022648
11
2.72805975
21
-14.8550564
0
LINE
8
0
10
2.72805975
20
-14.8550564
11
2.70966695
21
-14.829507
0
LINE
8
0
10
2.70966695
20
-14.829507
11
2.70235799
21
-14.8188121
0
LINE
8
0
10
2.70235799
20
-14.8188121
11
2.7002381
21
-14.8156438
0
LINE
8
0
10
2.7002381
20
-14.8156438
11
2.69990694
21
-14.8151502
0
LINE
8
0
10
2.69990694
20
-14.8151502
11
2.69972226
21
-14.8148716
0
LINE
8
0
10
2.69972226
20
-14.8148716
11
2.69961957
21
-14.8147164
0
LINE
8
0
10
2.69961957
20
-14.8147164
11
2.69956265
21
-14.8146328
0
LINE
8
0
10
2.69956265
20
-14.8146328
11
2.6995312
21
-14.814585
0
LINE
8
0
10
2.6995312
20
-14.814585
11
2.62566347
21
-14.6787227
0
LINE
8
0
10
2.62566347
20
-14.6787227
11
2.61515358
21
-14.6522579
0
LINE
8
0
10
2.61515358
20
-14.6522579
11
2.49015714
21
-14.3377059
0
LINE
8
0
10
2.49015714
20
-14.3377059
11
2.48443741
21
-14.3217033
0
LINE
8
0
10
2.48443741
20
-14.3217033
11
2.48161867
21
-14.3132677
0
LINE
8
0
10
2.48161867
20
-14.3132677
11
2.48042806
21
-14.3095874
0
LINE
8
0
10
2.48042806
20
-14.3095874
11
2.47995745
21
-14.3081127
0
LINE
8
0
10
2.47995745
20
-14.3081127
11
2.47977622
21
-14.3075392
0
LINE
8
0
10
2.47977622
20
-14.3075392
11
2.4797074
21
-14.3073229
0
LINE
8
0
10
2.4797074
20
-14.3073229
11
2.47968118
21
-14.3072377
0
LINE
8
0
10
2.47968118
20
-14.3072377
11
2.47967135
21
-14.3072082
0
LINE
8
0
10
2.47967135
20
-14.3072082
11
2.46151557
21
-14.237777
0
LINE
8
0
10
2.46151557
20
-14.237777
11
2.44666748
21
-14.1267416
0
LINE
8
0
10
2.44666748
20
-14.1267416
11
2.40119884
21
-13.7630492
0
LINE
8
0
10
2.40119884
20
-13.7630492
11
2.40033114
21
-13.7419233
0
LINE
8
0
10
2.40033114
20
-13.7419233
11
2.40032239
21
-13.7416101
0
LINE
8
0
10
2.40032239
20
-13.7416101
11
2.40025653
21
-13.7391553
0
LINE
8
0
10
2.40025653
20
-13.7391553
11
2.4
21
-13.7190978
0
LINE
8
0
10
2.4
20
-13.7190978
11
2.4
21
-11.9585748
0
LINE
8
0
10
2.4
20
-11.9585748
11
2.4
21
-9.59051203
0
LINE
8
0
10
2.4
20
-9.59051203
11
2.4
21
-8.16530236
0
LINE
8
0
10
2.4
20
-8.16530236
11
2.4
21
-7.66006659
0
LINE
8
0
10
2.4
20
-7.66006659
11
2.4
21
-6.7147005
0
LINE
8
0
10
2.4
20
-6.7147005
11
2.4
21
-6.01799839
0
LINE
8
0
10
2.4
20
-6.01799839
11
2.4
21
-5.48645
0
LINE
8
0
10
2.4
20
-5.48645
11
2.4
21
-4.98478481
0
LINE
8
0
10
2.4
20
-4.98478481
11
2.4
21
-4.56796886
0
LINE
8
0
10
2.4
20
-4.56796886
11
2.4
21
-4.04042592
0
LINE
8
0
10
2.4
20
-4.04042592
11
2.4
21
-3.71752405
0
LINE
8
0
10
2.4
20
-3.71752405
11
2.4
21
-3.16235665
0
LINE
8
0
10
2.4
20
-3.16235665
11
2.4
21
-2.89658105
0
LINE
8
0
10
2.4
20
-2.89658105
11
2.4
21
-2.64730996
0
LINE
8
0
10
2.4
20
-2.64730996
11
2.4
21
-2.09644195
0
LINE
8
0
10
2.4
20
-2.09644195
11
2.4
21
-1.8631395
0
LINE
8
0
10
2.4
20
-1.8631395
11
2.4
21
-1.31177785
0
LINE
8
0
10
2.4
20
-1.31177785
11
2.4
21
-0.810667184
0
LINE
8
0
10
2.4
20
-0.810667184
11
2.4
21
-0.409087631
0
LINE
8
0
10
2.4
20
-0.409087631
11
2.4
21
4.16075912
0
LINE
8
0
10
2.4
20
4.16075912
11
2.4
21
9.4741684
0
LINE
8
0
10
2.4
20
9.4741684
11
2.4
21
11.8282009
0
LINE
8
0
10
2.4
20
11.8282009
11
2.4
21
14.1031345
0
LINE
8
0
10
2.4
20
14.1031345
11
2.4
21
15.9230815
0
LINE
8
0
10
2.4
20
15.9230815
11
8.83056994
21
15.9230815
0
LINE
8
0
10
8.83056994
20
15.9230815
11
16
21
15.9230815
0
LINE
8
0
10
16
20
15.9230815
11
16
21
11.8282009
0
LINE
8
0
10
16
20
11.8282009
11
16
21
4.55959901
0
LINE
8
0
10
16
20
4.55959901
11
16
21
1.69618338
0
LINE
8
0
10
16
20
1.69618338
11
15.5940629
21
0.874629766
0
LINE
8
0
10
15.5940629
20
0.874629766
11
15.528078
21
0.733507654
0
LINE
8
0
10
15.528078
20
0.733507654
11
15.2118954
21
-0.114164216
0
LINE
8
0
10
15.2118954
20
-0.114164216
11
15.1394207
21
-0.36349546
0
LINE
8
0
10
15.1394207
20
-0.36349546
11
14.9837899
21
-1.02061509
0
LINE
8
0
10
14.9837899
20
-1.02061509
11
14.9555534
21
-1.31433008
0
LINE
8
0
10
14.9555534
20
-1.31433008
11
14.9029171
21
-1.8850981
0
LINE
8
0
10
14.9029171
20
-1.8850981
11
14.9334216
21
-2.44340012
0
LINE
8
0
10
14.9334216
20
-2.44340012
11
14.9648734
21
-2.7394184
0
LINE
8
0
10
14.9648734
20
-2.7394184
11
15.0894678
21
-3.36133656
0
LINE
8
0
10
15.0894678
20
-3.36133656
11
15.1657514
21
-3.61456626
0
LINE
8
0
10
15.1657514
20
-3.61456626
11
15.427079
21
-4.38783871
0
LINE
8
0
10
15.427079
20
-4.38783871
11
15.979642
21
-5.57996099
0
LINE
8
0
10
15.979642
20
-5.57996099
11
15.9830863
21
-5.58718511
0
LINE
8
0
10
15.9830863
20
-5.58718511
11
16
21
-5.61656289
0
LINE
8
0
10
16
20
-5.61656289
11
16
21
-5.61656289
0
LINE
8
0
10
16
20
40.1717991
11
16
21
39.5410205
0
LINE
8
0
10
16
20
39.5410205
11
15.0094301
21
39.5410205
0
LINE
8
0
10
15.0094301
20
39.5410205
11
2.4
21
39.5410205
0
LINE
8
0
10
2.4
20
39.5410205
11
2.4
21
39.8850816
0
LINE
8
0
10
2.4
20
39.8850816
11
2.4
21
40.1717991
0
LINE
8
0
10
2.4
20
40.1717991
11
2.4
21
47.5840634
0
LINE
8
0
10
2.4
20
47.5840634
11
2.4
21
51.7788672
0
LINE
8
0
10
2.4
20
51.7788672
11
2.4
21
55.9132651
0
LINE
8
0
10
2.4
20
55.9132651
11
2.4
21
56.2276749
0
LINE
8
0
10
2.4
20
56.2276749
11
2.4
21
56.6650281
0
LINE
8
0
10
2.4
20
56.6650281
11
2.4
21
57.1913445
0
LINE
8
0
10
2.4
20
57.1913445
11
2.4
21
57.4297884
0
LINE
8
0
10
2.4
20
57.4297884
11
2.4
21
57.9808339
0
LINE
8
0
10
2.4
20
57.9808339
11
2.4
21
58.2115268
0
LINE
8
0
10
2.4
20
58.2115268
11
2.4
21
58.7639042
0
LINE
8
0
10
2.4
20
58.7639042
11
2.4
21
59.0135989
0
LINE
8
0
10
2.4
20
59.0135989
11
2.4
21
59.2863452
0
LINE
8
0
10
2.4
20
59.2863452
11
2.4
21
59.8408441
0
LINE
8
0
10
2.4
20
59.8408441
11
2.4
21
60.1776064
0
LINE
8
0
10
2.4
20
60.1776064
11
2.4
21
60.7027819
0
LINE
8
0
10
2.4
20
60.7027819
11
2.4
21
61.1454985
0
LINE
8
0
10
2.4
20
61.1454985
11
2.4
21
61.6997228
0
LINE
8
0
10
2.4
20
61.6997228
11
2.4
21
62.2191858
0
LINE
8
0
10
2.4
20
62.2191858
11
2.4
21
63.0116196
0
LINE
8
0
10
2.4
20
63.0116196
11
2.4
21
64.1658851
0
LINE
8
0
10
2.4
20
64.1658851
11
2.4
21
64.6130057
0
LINE
8
0
10
2.4
20
64.6130057
11
2.4
21
66.4561529
0
LINE
8
0
10
2.4
20
66.4561529
11
2.4
21
68.4599499
0
LINE
8
0
10
2.4
20
68.4599499
11
2.4262227
21
68.6748909
0
LINE
8
0
10
2.4262227
20
68.6748909
11
2.468148
21
68.9989622
0
LINE
8
0
10
2.468148
20
68.9989622
11
2.54529508
21
69.1924852
0
LINE
8
0
10
2.54529508
20
69.1924852
11
2.667949
21
69.5001564
0
LINE
8
0
10
2.667949
20
69.5001564
11
2.76774172
21
69.635285
0
LINE
8
0
10
2.76774172
20
69.635285
11
2.985786
21
69.9305391
0
LINE
8
0
10
2.985786
20
69.9305391
11
3.09181056
21
70.0150702
0
LINE
8
0
10
3.09181056
20
70.0150702
11
3.4
21
70.2607852
0
LINE
8
0
10
3.4
20
70.2607852
11
3.50318844
21
70.305196
0
LINE
8
0
10
3.50318844
20
70.305196
11
3.882362
21
70.4683844
0
LINE
8
0
10
3.882362
20
70.4683844
11
3.98048077
21
70.4818056
0
LINE
8
0
10
3.98048077
20
70.4818056
11
4.4
21
70.5391915
0
LINE
8
0
10
4.4
20
70.5391915
11
6.14671761
21
70.5391915
0
LINE
8
0
10
6.14671761
20
70.5391915
11
14
21
70.5391915
0
LINE
8
0
10
14
20
70.5391915
11
14.0955146
21
70.5261266
0
LINE
8
0
10
14.0955146
20
70.5261266
11
14.51764
21
70.4683844
0
LINE
8
0
10
14.51764
20
70.4683844
11
14.6143158
21
70.4267765
0
LINE
8
0
10
14.6143158
20
70.4267765
11
15
21
70.2607852
0
LINE
8
0
10
15
20
70.2607852
11
15.0988279
21
70.1819911
0
LINE
8
0
10
15.0988279
20
70.1819911
11
15.41421
21
69.9305391
0
LINE
8
0
10
15.41421
20
69.9305391
11
15.5094532
21
69.8015721
0
LINE
8
0
10
15.5094532
20
69.8015721
11
15.73205
21
69.5001564
0
LINE
8
0
10
15.73205
20
69.5001564
11
15.8085494
21
69.3082575
0
LINE
8
0
10
15.8085494
20
69.3082575
11
15.93185
21
68.9989622
0
LINE
8
0
10
15.93185
20
68.9989622
11
15.9737765
21
68.6748909
0
LINE
8
0
10
15.9737765
20
68.6748909
11
16
21
68.4599499
0
LINE
8
0
10
16
20
68.4599499
11
16
21
64.0808327
0
LINE
8
0
10
16
20
64.0808327
11
16
21
60.8413571
0
LINE
8
0
10
16
20
60.8413571
11
16
21
60.7375493
0
LINE
8
0
10
16
20
60.7375493
11
16
21
60.6313454
0
LINE
8
0
10
16
20
60.6313454
11
15.4611462
21
59.7118693
0
LINE
8
0
10
15.4611462
20
59.7118693
11
15.3971227
21
59.5800385
0
LINE
8
0
10
15.3971227
20
59.5800385
11
15.1334936
21
58.8110697
0
LINE
8
0
10
15.1334936
20
58.8110697
11
15.1010686
21
58.6154826
0
LINE
8
0
10
15.1010686
20
58.6154826
11
15.0434603
21
57.9338712
0
LINE
8
0
10
15.0434603
20
57.9338712
11
15.0770505
21
57.7328647
0
LINE
8
0
10
15.0770505
20
57.7328647
11
15.1984868
21
57.0405481
0
LINE
8
0
10
15.1984868
20
57.0405481
11
15.5639485
21
56.1902438
0
LINE
8
0
10
15.5639485
20
56.1902438
11
15.613115
21
56.0891932
0
LINE
8
0
10
15.613115
20
56.0891932
11
16
21
55.509829
0
LINE
8
0
10
16
20
55.509829
11
16
21
46.7734751
0
LINE
8
0
10
16
20
46.7734751
11
16
21
42.3422916
0
LINE
8
0
10
16
20
42.3422916
11
16
21
40.1717991
0
LINE
8
0
10
16
20
40.1717991
11
16
21
40.1717991
0
LINE
8
0
10
16
20
31.5115395
11
16
21
30.8807609
0
LINE
8
0
10
16
20
30.8807609
11
16
21
24.5833391
0
LINE
8
0
10
16
20
24.5833391
11
16
21
20.4884585
0
LINE
8
0
10
16
20
20.4884585
11
9.56943006
21
20.4884585
0
LINE
8
0
10
9.56943006
20
20.4884585
11
2.4
21
20.4884585
0
LINE
8
0
10
2.4
20
20.4884585
11
2.4
21
22.7220298
0
LINE
8
0
10
2.4
20
22.7220298
11
2.4
21
24.5833391
0
LINE
8
0
10
2.4
20
24.5833391
11
2.4
21
27.1023078
0
LINE
8
0
10
2.4
20
27.1023078
11
2.4
21
30.8807609
0
LINE
8
0
10
2.4
20
30.8807609
11
2.4
21
31.2311934
0
LINE
8
0
10
2.4
20
31.2311934
11
2.4
21
31.5115395
0
LINE
8
0
10
2.4
20
31.5115395
11
3.39056994
21
31.5115395
0
LINE
8
0
10
3.39056994
20
31.5115395
11
16
21
31.5115395
0
LINE
8
0
10
16
20
31.5115395
11
16
21
31.5115395
0
ENDSEC
0
EOF
