0
SECTION
2
ENTITIES
0
LINE
8
0
10
16
20
-13.5218494
11
16
21
-13.4224613
0
LINE
8
0
10
16
20
-13.4224613
11
16
21
-13.3007622
0
LINE
8
0
10
16
20
-13.3007622
11
16
21
-7.86678974
0
LINE
8
0
10
16
20
-7.86678974
11
16
21
-5.09774558
0
LINE
8
0
10
16
20
-5.09774558
11
16
21
-4.9259768
0
LINE
8
0
10
16
20
-4.9259768
11
16
21
-4.63787077
0
LINE
8
0
10
16
20
-4.63787077
11
15.7030714
21
-3.75925402
0
LINE
8
0
10
15.7030714
20
-3.75925402
11
15.6759202
21
-3.66912363
0
LINE
8
0
10
15.6759202
20
-3.66912363
11
15.5003474
21
-2.79274488
0
LINE
8
0
10
15.5003474
20
-2.79274488
11
15.4851658
21
-2.64985774
0
LINE
8
0
10
15.4851658
20
-2.64985774
11
15.4414842
21
-1.85038739
0
LINE
8
0
10
15.4414842
20
-1.85038739
11
15.5168577
21
-1.03306614
0
LINE
8
0
10
15.5168577
20
-1.03306614
11
15.5299194
21
-0.897198847
0
LINE
8
0
10
15.5299194
20
-0.897198847
11
15.749569
21
0.0302273138
0
LINE
8
0
10
15.749569
20
0.0302273138
11
15.7706594
21
0.102783406
0
LINE
8
0
10
15.7706594
20
0.102783406
11
16
21
0.717635875
0
LINE
8
0
10
16
20
0.717635875
11
16
21
4.85589711
0
LINE
8
0
10
16
20
4.85589711
11
16
21
13.0215403
0
LINE
8
0
10
16
20
13.0215403
11
16
21
14.7297407
0
LINE
8
0
10
16
20
14.7297407
11
5.08254509
21
14.7297407
0
LINE
8
0
10
5.08254509
20
14.7297407
11
2.4
21
14.7297407
0
LINE
8
0
10
2.4
20
14.7297407
11
2.4
21
13.9705405
0
LINE
8
0
10
2.4
20
13.9705405
11
2.4
21
13.0215403
0
LINE
8
0
10
2.4
20
13.0215403
11
2.4
21
8.68456344
0
LINE
8
0
10
2.4
20
8.68456344
11
2.4
21
3.76192826
0
LINE
8
0
10
2.4
20
3.76192826
11
2.4
21
-0.471829613
0
LINE
8
0
10
2.4
20
-0.471829613
11
2.4
21
-0.843875042
0
LINE
8
0
10
2.4
20
-0.843875042
11
2.4
21
-1.30813158
0
LINE
8
0
10
2.4
20
-1.30813158
11
2.4
21
-1.8189434
0
LINE
8
0
10
2.4
20
-1.8189434
11
2.4
21
-2.15302492
0
LINE
8
0
10
2.4
20
-2.15302492
11
2.4
21
-2.66294987
0
LINE
8
0
10
2.4
20
-2.66294987
11
2.4
21
-3.01421134
0
LINE
8
0
10
2.4
20
-3.01421134
11
2.4
21
-3.3887302
0
LINE
8
0
10
2.4
20
-3.3887302
11
2.4
21
-3.89885785
0
LINE
8
0
10
2.4
20
-3.89885785
11
2.4
21
-4.33669101
0
LINE
8
0
10
2.4
20
-4.33669101
11
2.4
21
-4.81778536
0
LINE
8
0
10
2.4
20
-4.81778536
11
2.4
21
-5.35767738
0
LINE
8
0
10
2.4
20
-5.35767738
11
2.4
21
-6.00747264
0
LINE
8
0
10
2.4
20
-6.00747264
11
2.4
21
-6.47781431
0
LINE
8
0
10
2.4
20
-6.47781431
11
2.4
21
-7.34294411
0
LINE
8
0
10
2.4
20
-7.34294411
11
2.4
21
-8.51685236
0
LINE
8
0
10
2.4
20
-8.51685236
11
2.4
21
-8.9243729
0
LINE
8
0
10
2.4
20
-8.9243729
11
2.4
21
-10.6341459
0
LINE
8
0
10
2.4
20
-10.6341459
11
2.4
21
-13.4750259
0
LINE
8
0
10
2.4
20
-13.4750259
11
2.4
21
-13.5218494
0
LINE
8
0
10
2.4
20
-13.5218494
11
2.40000682
21
-13.5223829
0
LINE
8
0
10
2.40000682
20
-13.5223829
11
2.40000857
21
-13.5224482
0
LINE
8
0
10
2.40000857
20
-13.5224482
11
2.40000881
21
-13.5224565
0
LINE
8
0
10
2.40000881
20
-13.5224565
11
2.40003188
21
-13.5230184
0
LINE
8
0
10
2.40003188
20
-13.5230184
11
2.40422459
21
-13.5565548
0
LINE
8
0
10
2.40422459
20
-13.5565548
11
2.468148
21
-14.055758
0
LINE
8
0
10
2.468148
20
-14.055758
11
2.64651276
21
-14.5152402
0
LINE
8
0
10
2.64651276
20
-14.5152402
11
2.667949
21
-14.5704621
0
LINE
8
0
10
2.667949
20
-14.5704621
11
2.9818512
21
-15.0069788
0
LINE
8
0
10
2.9818512
20
-15.0069788
11
2.985786
21
-15.0124505
0
LINE
8
0
10
2.985786
20
-15.0124505
11
3.06061991
21
-15.0737229
0
LINE
8
0
10
3.06061991
20
-15.0737229
11
3.39029432
21
-15.3352465
0
LINE
8
0
10
3.39029432
20
-15.3352465
11
3.39493569
21
-15.3385614
0
LINE
8
0
10
3.39493569
20
-15.3385614
11
3.40272482
21
-15.3433565
0
LINE
8
0
10
3.40272482
20
-15.3433565
11
3.40273101
21
-15.3433599
0
LINE
8
0
10
3.40273101
20
-15.3433599
11
3.40275294
21
-15.3433721
0
LINE
8
0
10
3.40275294
20
-15.3433721
11
3.40283065
21
-15.3434155
0
LINE
8
0
10
3.40283065
20
-15.3434155
11
3.40310225
21
-15.343566
0
LINE
8
0
10
3.40310225
20
-15.343566
11
3.4040073
21
-15.3440587
0
LINE
8
0
10
3.4040073
20
-15.3440587
11
3.40659719
21
-15.345402
0
LINE
8
0
10
3.40659719
20
-15.345402
11
3.41161156
21
-15.3477087
0
LINE
8
0
10
3.41161156
20
-15.3477087
11
3.86210403
21
-15.5404733
0
LINE
8
0
10
3.86210403
20
-15.5404733
11
3.88582551
21
-15.5481777
0
LINE
8
0
10
3.88582551
20
-15.5481777
11
3.88584311
21
-15.5481819
0
LINE
8
0
10
3.88584311
20
-15.5481819
11
3.88588893
21
-15.5481935
0
LINE
8
0
10
3.88588893
20
-15.5481935
11
3.8860077
21
-15.5482226
0
LINE
8
0
10
3.8860077
20
-15.5482226
11
3.88631407
21
-15.5482964
0
LINE
8
0
10
3.88631407
20
-15.5482964
11
3.88709033
21
-15.5484824
0
LINE
8
0
10
3.88709033
20
-15.5484824
11
3.88897585
21
-15.5489181
0
LINE
8
0
10
3.88897585
20
-15.5489181
11
3.89311401
21
-15.5498013
0
LINE
8
0
10
3.89311401
20
-15.5498013
11
4.36346412
21
-15.6136624
0
LINE
8
0
10
4.36346412
20
-15.6136624
11
4.39295335
21
-15.6173668
0
LINE
8
0
10
4.39295335
20
-15.6173668
11
4.39828609
21
-15.6175193
0
LINE
8
0
10
4.39828609
20
-15.6175193
11
4.39850421
21
-15.6175222
0
LINE
8
0
10
4.39850421
20
-15.6175222
11
4.4
21
-15.6175297
0
LINE
8
0
10
4.4
20
-15.6175297
11
5.30374286
21
-15.6175297
0
LINE
8
0
10
5.30374286
20
-15.6175297
11
14
21
-15.6175297
0
LINE
8
0
10
14
20
-15.6175297
11
14.4746738
21
-15.5532111
0
LINE
8
0
10
14.4746738
20
-15.5532111
11
14.5207136
21
-15.5464488
0
LINE
8
0
10
14.5207136
20
-15.5464488
11
14.9783007
21
-15.3512165
0
LINE
8
0
10
14.9783007
20
-15.3512165
11
15.0030858
21
-15.3398672
0
LINE
8
0
10
15.0030858
20
-15.3398672
11
15.3393768
21
-15.0737229
0
LINE
8
0
10
15.3393768
20
-15.0737229
11
15.4099888
21
-15.0159068
0
LINE
8
0
10
15.4099888
20
-15.0159068
11
15.41421
21
-15.0124505
0
LINE
8
0
10
15.41421
20
-15.0124505
11
15.705358
21
-14.6075792
0
LINE
8
0
10
15.705358
20
-14.6075792
11
15.73205
21
-14.5704621
0
LINE
8
0
10
15.73205
20
-14.5704621
11
15.8974123
21
-14.1444734
0
LINE
8
0
10
15.8974123
20
-14.1444734
11
15.93185
21
-14.055758
0
LINE
8
0
10
15.93185
20
-14.055758
11
15.9957753
21
-13.5565548
0
LINE
8
0
10
15.9957753
20
-13.5565548
11
16
21
-13.5218494
0
LINE
8
0
10
16
20
-13.5218494
11
16
21
-13.5218494
0
LINE
8
0
10
16
20
30.3181997
11
16
21
26.8063984
0
LINE
8
0
10
16
20
26.8063984
11
16
21
23.3899997
0
LINE
8
0
10
16
20
23.3899997
11
16
21
21.6817993
0
LINE
8
0
10
16
20
21.6817993
11
13.3174549
21
21.6817993
0
LINE
8
0
10
13.3174549
20
21.6817993
11
2.4
21
21.6817993
0
LINE
8
0
10
2.4
20
21.6817993
11
2.4
21
22.613545
0
LINE
8
0
10
2.4
20
22.613545
11
2.4
21
23.3899997
0
LINE
8
0
10
2.4
20
23.3899997
11
2.4
21
26.8636399
0
LINE
8
0
10
2.4
20
26.8636399
11
2.4
21
30.3181997
0
LINE
8
0
10
2.4
20
30.3181997
11
2.4
21
31.1163368
0
LINE
8
0
10
2.4
20
31.1163368
11
2.4
21
32.0741013
0
LINE
8
0
10
2.4
20
32.0741013
11
13.2425451
21
32.0741013
0
LINE
8
0
10
13.2425451
20
32.0741013
11
16
21
32.0741013
0
LINE
8
0
10
16
20
32.0741013
11
16
21
30.3181997
0
LINE
8
0
10
16
20
30.3181997
11
16
21
30.3181997
0
LINE
8
0
10
16
20
58.8674483
11
16
21
58.8739746
0
LINE
8
0
10
16
20
58.8739746
11
16
21
60.3536211
0
LINE
8
0
10
16
20
60.3536211
11
16
21
60.8357751
0
LINE
8
0
10
16
20
60.8357751
11
16
21
62.6743454
0
LINE
8
0
10
16
20
62.6743454
11
16
21
65.9940363
0
LINE
8
0
10
16
20
65.9940363
11
16
21
66.9512704
0
LINE
8
0
10
16
20
66.9512704
11
16
21
68.2452577
0
LINE
8
0
10
16
20
68.2452577
11
15.9390857
21
68.7445423
0
LINE
8
0
10
15.9390857
20
68.7445423
11
15.93185
21
68.8004709
0
LINE
8
0
10
15.93185
20
68.8004709
11
15.9105706
21
68.8538494
0
LINE
8
0
10
15.9105706
20
68.8538494
11
15.73205
21
69.3016688
0
LINE
8
0
10
15.73205
20
69.3016688
11
15.6640536
21
69.3937418
0
LINE
8
0
10
15.6640536
20
69.3937418
11
15.41421
21
69.7320503
0
LINE
8
0
10
15.41421
20
69.7320503
11
15.2913247
21
69.8300259
0
LINE
8
0
10
15.2913247
20
69.8300259
11
15
21
70.0622953
0
LINE
8
0
10
15
20
70.0622953
11
14.829692
21
70.1355927
0
LINE
8
0
10
14.829692
20
70.1355927
11
14.51764
21
70.2698956
0
LINE
8
0
10
14.51764
20
70.2698956
11
14.3192726
21
70.2970301
0
LINE
8
0
10
14.3192726
20
70.2970301
11
14
21
70.3407016
0
LINE
8
0
10
14
20
70.3407016
11
10.2386771
21
70.3407016
0
LINE
8
0
10
10.2386771
20
70.3407016
11
4.4
21
70.3407016
0
LINE
8
0
10
4.4
20
70.3407016
11
4.19907162
21
70.3132167
0
LINE
8
0
10
4.19907162
20
70.3132167
11
3.882362
21
70.2698956
0
LINE
8
0
10
3.882362
20
70.2698956
11
3.70417873
21
70.1932092
0
LINE
8
0
10
3.70417873
20
70.1932092
11
3.4
21
70.0622953
0
LINE
8
0
10
3.4
20
70.0622953
11
3.26391163
21
69.953794
0
LINE
8
0
10
3.26391163
20
69.953794
11
2.985786
21
69.7320503
0
LINE
8
0
10
2.985786
20
69.7320503
11
2.90082737
21
69.6170078
0
LINE
8
0
10
2.90082737
20
69.6170078
11
2.667949
21
69.3016688
0
LINE
8
0
10
2.667949
20
69.3016688
11
2.63048207
21
69.2076849
0
LINE
8
0
10
2.63048207
20
69.2076849
11
2.468148
21
68.8004709
0
LINE
8
0
10
2.468148
20
68.8004709
11
2.46091248
21
68.7445423
0
LINE
8
0
10
2.46091248
20
68.7445423
11
2.4
21
68.2452577
0
LINE
8
0
10
2.4
20
68.2452577
11
2.4
21
67.6531549
0
LINE
8
0
10
2.4
20
67.6531549
11
2.4
21
65.4416448
0
LINE
8
0
10
2.4
20
65.4416448
11
2.4
21
65.122375
0
LINE
8
0
10
2.4
20
65.122375
11
2.4
21
63.6885224
0
LINE
8
0
10
2.4
20
63.6885224
11
2.4
21
62.7041447
0
LINE
8
0
10
2.4
20
62.7041447
11
2.4
21
62.2564236
0
LINE
8
0
10
2.4
20
62.2564236
11
2.4
21
61.5380805
0
LINE
8
0
10
2.4
20
61.5380805
11
2.4
21
60.9642653
0
LINE
8
0
10
2.4
20
60.9642653
11
2.4
21
60.4902909
0
LINE
8
0
10
2.4
20
60.4902909
11
2.4
21
60.0332701
0
LINE
8
0
10
2.4
20
60.0332701
11
2.4
21
59.527259
0
LINE
8
0
10
2.4
20
59.527259
11
2.4
21
59.1426316
0
LINE
8
0
10
2.4
20
59.1426316
11
2.4
21
58.7905116
0
LINE
8
0
10
2.4
20
58.7905116
11
2.4
21
58.2804657
0
LINE
8
0
10
2.4
20
58.2804657
11
2.4
21
57.950086
0
LINE
8
0
10
2.4
20
57.950086
11
2.4
21
57.4399813
0
LINE
8
0
10
2.4
20
57.4399813
11
2.4
21
57.1037272
0
LINE
8
0
10
2.4
20
57.1037272
11
2.4
21
56.6161186
0
LINE
8
0
10
2.4
20
56.6161186
11
2.4
21
56.2109306
0
LINE
8
0
10
2.4
20
56.2109306
11
2.4
21
55.919644
0
LINE
8
0
10
2.4
20
55.919644
11
2.4
21
52.08931
0
LINE
8
0
10
2.4
20
52.08931
11
2.4
21
48.2030125
0
LINE
8
0
10
2.4
20
48.2030125
11
2.4
21
40.7472161
0
LINE
8
0
10
2.4
20
40.7472161
11
2.4
21
38.9784587
0
LINE
8
0
10
2.4
20
38.9784587
11
5.15745491
21
38.9784587
0
LINE
8
0
10
5.15745491
20
38.9784587
11
16
21
38.9784587
0
LINE
8
0
10
16
20
38.9784587
11
16
21
40.7472161
0
LINE
8
0
10
16
20
40.7472161
11
16
21
55.9843856
0
LINE
8
0
10
16
20
55.9843856
11
16
21
56.8997553
0
LINE
8
0
10
16
20
56.8997553
11
16
21
57.4629498
0
LINE
8
0
10
16
20
57.4629498
11
15.9290606
21
57.8673801
0
LINE
8
0
10
15.9290606
20
57.8673801
11
15.9264788
21
57.8828298
0
LINE
8
0
10
15.9264788
20
57.8828298
11
16
21
58.75272
0
LINE
8
0
10
16
20
58.75272
11
16
21
58.8638223
0
LINE
8
0
10
16
20
58.8638223
11
16
21
58.8674483
0
LINE
8
0
10
16
20
58.8674483
11
16
21
58.8674483
0
ENDSEC
0
EOF
