0
SECTION
2
ENTITIES
0
LINE
8
0
10
16
20
61.7267905
11
16
21
63.3199441
0
LINE
8
0
10
16
20
63.3199441
11
16
21
67.711596
0
LINE
8
0
10
16
20
67.711596
11
16
21
67.908083
0
LINE
8
0
10
16
20
67.908083
11
16
21
68.1736937
0
LINE
8
0
10
16
20
68.1736937
11
15.9721731
21
68.4017776
0
LINE
8
0
10
15.9721731
20
68.4017776
11
15.93185
21
68.723467
0
LINE
8
0
10
15.93185
20
68.723467
11
15.8240575
21
69.0047053
0
LINE
8
0
10
15.8240575
20
69.0047053
11
15.73205
21
69.2355062
0
LINE
8
0
10
15.73205
20
69.2355062
11
15.7155871
21
69.2577984
0
LINE
8
0
10
15.7155871
20
69.2577984
11
15.41421
21
69.6658874
0
LINE
8
0
10
15.41421
20
69.6658874
11
15.3554903
21
69.7127042
0
LINE
8
0
10
15.3554903
20
69.7127042
11
15
21
69.996132
0
LINE
8
0
10
15
20
69.996132
11
14.901484
21
70.0385314
0
LINE
8
0
10
14.901484
20
70.0385314
11
14.51764
21
70.2037327
0
LINE
8
0
10
14.51764
20
70.2037327
11
14.3938586
21
70.2206646
0
LINE
8
0
10
14.3938586
20
70.2206646
11
14
21
70.2745383
0
LINE
8
0
10
14
20
70.2745383
11
11.6026636
21
70.2745383
0
LINE
8
0
10
11.6026636
20
70.2745383
11
4.4
21
70.2745383
0
LINE
8
0
10
4.4
20
70.2745383
11
4.27193524
21
70.2570204
0
LINE
8
0
10
4.27193524
20
70.2570204
11
3.882362
21
70.2037327
0
LINE
8
0
10
3.882362
20
70.2037327
11
3.77117549
21
70.1558803
0
LINE
8
0
10
3.77117549
20
70.1558803
11
3.4
21
69.996132
0
LINE
8
0
10
3.4
20
69.996132
11
3.32127865
21
69.9333686
0
LINE
8
0
10
3.32127865
20
69.9333686
11
2.985786
21
69.6658874
0
LINE
8
0
10
2.985786
20
69.6658874
11
2.94518925
21
69.6109153
0
LINE
8
0
10
2.94518925
20
69.6109153
11
2.667949
21
69.2355062
0
LINE
8
0
10
2.667949
20
69.2355062
11
2.65887774
21
69.2127514
0
LINE
8
0
10
2.65887774
20
69.2127514
11
2.57594106
21
69.0047053
0
LINE
8
0
10
2.57594106
20
69.0047053
11
2.47881628
21
68.7513006
0
LINE
8
0
10
2.47881628
20
68.7513006
11
2.468148
21
68.723467
0
LINE
8
0
10
2.468148
20
68.723467
11
2.42782613
21
68.4017776
0
LINE
8
0
10
2.42782613
20
68.4017776
11
2.4
21
68.1736937
0
LINE
8
0
10
2.4
20
68.1736937
11
2.4
21
68.0521555
0
LINE
8
0
10
2.4
20
68.0521555
11
2.4
21
65.7178579
0
LINE
8
0
10
2.4
20
65.7178579
11
2.4
21
65.4412049
0
LINE
8
0
10
2.4
20
65.4412049
11
2.4
21
63.9141566
0
LINE
8
0
10
2.4
20
63.9141566
11
2.4
21
62.8657977
0
LINE
8
0
10
2.4
20
62.8657977
11
2.4
21
62.4419905
0
LINE
8
0
10
2.4
20
62.4419905
11
2.4
21
61.6689412
0
LINE
8
0
10
2.4
20
61.6689412
11
2.4
21
61.0514264
0
LINE
8
0
10
2.4
20
61.0514264
11
2.4
21
60.5945191
0
LINE
8
0
10
2.4
20
60.5945191
11
2.4
21
60.0974121
0
LINE
8
0
10
2.4
20
60.0974121
11
2.4
21
59.6075636
0
LINE
8
0
10
2.4
20
59.6075636
11
2.4
21
59.1856425
0
LINE
8
0
10
2.4
20
59.1856425
11
2.4
21
58.7993807
0
LINE
8
0
10
2.4
20
58.7993807
11
2.4
21
58.3034453
0
LINE
8
0
10
2.4
20
58.3034453
11
2.4
21
57.9398366
0
LINE
8
0
10
2.4
20
57.9398366
11
2.4
21
57.4433789
0
LINE
8
0
10
2.4
20
57.4433789
11
2.4
21
57.0745214
0
LINE
8
0
10
2.4
20
57.0745214
11
2.4
21
56.5998155
0
LINE
8
0
10
2.4
20
56.5998155
11
2.4
21
56.2053491
0
LINE
8
0
10
2.4
20
56.2053491
11
2.4
21
55.9217703
0
LINE
8
0
10
2.4
20
55.9217703
11
2.4
21
52.1927909
0
LINE
8
0
10
2.4
20
52.1927909
11
2.4
21
48.4093289
0
LINE
8
0
10
2.4
20
48.4093289
11
2.4
21
41.1508206
0
LINE
8
0
10
2.4
20
41.1508206
11
2.4
21
38.5806784
0
LINE
8
0
10
2.4
20
38.5806784
11
6.40679652
21
38.5806784
0
LINE
8
0
10
6.40679652
20
38.5806784
11
16
21
38.5806784
0
LINE
8
0
10
16
20
38.5806784
11
16
21
41.1508206
0
LINE
8
0
10
16
20
41.1508206
11
16
21
55.9847988
0
LINE
8
0
10
16
20
55.9847988
11
16
21
56.8759469
0
LINE
8
0
10
16
20
56.8759469
11
16
21
57.8410392
0
LINE
8
0
10
16
20
57.8410392
11
16
21
57.8722839
0
LINE
8
0
10
16
20
57.8722839
11
16
21
57.9043388
0
LINE
8
0
10
16
20
57.9043388
11
16
21
57.9390897
0
LINE
8
0
10
16
20
57.9390897
11
16
21
57.979135
0
LINE
8
0
10
16
20
57.979135
11
16
21
58.0286768
0
LINE
8
0
10
16
20
58.0286768
11
16
21
58.0956054
0
LINE
8
0
10
16
20
58.0956054
11
16
21
59.1082122
0
LINE
8
0
10
16
20
59.1082122
11
16
21
59.2340291
0
LINE
8
0
10
16
20
59.2340291
11
16
21
59.4604827
0
LINE
8
0
10
16
20
59.4604827
11
16
21
60.8292225
0
LINE
8
0
10
16
20
60.8292225
11
16
21
61.7267905
0
LINE
8
0
10
16
20
61.7267905
11
16
21
61.7267905
0
LINE
8
0
10
16
20
-5.49857865
11
16
21
-6.29895206
0
LINE
8
0
10
16
20
-6.29895206
11
16
21
-8.64120187
0
LINE
8
0
10
16
20
-8.64120187
11
16
21
-13.4268529
0
LINE
8
0
10
16
20
-13.4268529
11
15.9875377
21
-13.5342254
0
LINE
8
0
10
15.9875377
20
-13.5342254
11
15.93185
21
-13.9690998
0
LINE
8
0
10
15.93185
20
-13.9690998
11
15.8696467
21
-14.1293426
0
LINE
8
0
10
15.8696467
20
-14.1293426
11
15.73205
21
-14.4838046
0
LINE
8
0
10
15.73205
20
-14.4838046
11
15.6618285
21
-14.5814525
0
LINE
8
0
10
15.6618285
20
-14.5814525
11
15.41421
21
-14.9257915
0
LINE
8
0
10
15.41421
20
-14.9257915
11
15.3534454
21
-14.9755452
0
LINE
8
0
10
15.3534454
20
-14.9755452
11
15
21
-15.2649413
0
LINE
8
0
10
15
20
-15.2649413
11
14.956089
21
-15.284349
0
LINE
8
0
10
14.956089
20
-15.284349
11
14.51764
21
-15.4781391
0
LINE
8
0
10
14.51764
20
-15.4781391
11
14.4884628
21
-15.4822379
0
LINE
8
0
10
14.4884628
20
-15.4822379
11
14
21
-15.5508579
0
LINE
8
0
10
14
20
-15.5508579
11
13.5729405
21
-15.5508579
0
LINE
8
0
10
13.5729405
20
-15.5508579
11
4.4
21
-15.5508579
0
LINE
8
0
10
4.4
20
-15.5508579
11
4.37657132
21
-15.5475666
0
LINE
8
0
10
4.37657132
20
-15.5475666
11
3.882362
21
-15.4781391
0
LINE
8
0
10
3.882362
20
-15.4781391
11
3.85323581
21
-15.465266
0
LINE
8
0
10
3.85323581
20
-15.465266
11
3.4
21
-15.2649413
0
LINE
8
0
10
3.4
20
-15.2649413
11
3.35685409
21
-15.229614
0
LINE
8
0
10
3.35685409
20
-15.229614
11
2.985786
21
-14.9257915
0
LINE
8
0
10
2.985786
20
-14.9257915
11
2.92914457
21
-14.8470267
0
LINE
8
0
10
2.92914457
20
-14.8470267
11
2.667949
21
-14.4838046
0
LINE
8
0
10
2.667949
20
-14.4838046
11
2.61155441
21
-14.3385265
0
LINE
8
0
10
2.61155441
20
-14.3385265
11
2.468148
21
-13.9690998
0
LINE
8
0
10
2.468148
20
-13.9690998
11
2.41246195
21
-13.5342254
0
LINE
8
0
10
2.41246195
20
-13.5342254
11
2.4
21
-13.4268529
0
LINE
8
0
10
2.4
20
-13.4268529
11
2.4
21
-10.9820238
0
LINE
8
0
10
2.4
20
-10.9820238
11
2.4
21
-9.17739641
0
LINE
8
0
10
2.4
20
-9.17739641
11
2.4
21
-8.80244762
0
LINE
8
0
10
2.4
20
-8.80244762
11
2.4
21
-7.55235864
0
LINE
8
0
10
2.4
20
-7.55235864
11
2.4
21
-6.63108629
0
LINE
8
0
10
2.4
20
-6.63108629
11
2.4
21
-6.18114685
0
LINE
8
0
10
2.4
20
-6.18114685
11
2.4
21
-5.4819749
0
LINE
8
0
10
2.4
20
-5.4819749
11
2.4
21
-4.90105753
0
LINE
8
0
10
2.4
20
-4.90105753
11
2.4
21
-4.43544605
0
LINE
8
0
10
2.4
20
-4.43544605
11
2.4
21
-3.95930245
0
LINE
8
0
10
2.4
20
-3.95930245
11
2.4
21
-3.46418805
0
LINE
8
0
10
2.4
20
-3.46418805
11
2.4
21
-3.05342144
0
LINE
8
0
10
2.4
20
-3.05342144
11
2.4
21
-2.66816317
0
LINE
8
0
10
2.4
20
-2.66816317
11
2.4
21
-2.17188591
0
LINE
8
0
10
2.4
20
-2.17188591
11
2.4
21
-1.80421137
0
LINE
8
0
10
2.4
20
-1.80421137
11
2.4
21
-1.30691616
0
LINE
8
0
10
2.4
20
-1.30691616
11
2.4
21
-0.854944328
0
LINE
8
0
10
2.4
20
-0.854944328
11
2.4
21
-0.492743607
0
LINE
8
0
10
2.4
20
-0.492743607
11
2.4
21
3.62898464
0
LINE
8
0
10
2.4
20
3.62898464
11
2.4
21
8.42136178
0
LINE
8
0
10
2.4
20
8.42136178
11
2.4
21
13.4193201
0
LINE
8
0
10
2.4
20
13.4193201
11
2.4
21
13.9263425
0
LINE
8
0
10
2.4
20
13.9263425
11
2.4
21
14.3319604
0
LINE
8
0
10
2.4
20
14.3319604
11
3.83320348
21
14.3319604
0
LINE
8
0
10
3.83320348
20
14.3319604
11
16
21
14.3319604
0
LINE
8
0
10
16
20
14.3319604
11
16
21
13.4193201
0
LINE
8
0
10
16
20
13.4193201
11
16
21
9.05666159
0
LINE
8
0
10
16
20
9.05666159
11
16
21
0.290611007
0
LINE
8
0
10
16
20
0.290611007
11
15.956914
21
0.17509928
0
LINE
8
0
10
15.956914
20
0.17509928
11
15.9529518
21
0.161468238
0
LINE
8
0
10
15.9529518
20
0.161468238
11
15.7119626
21
-0.8560601
0
LINE
8
0
10
15.7119626
20
-0.8560601
11
15.7039591
21
-0.939311499
0
LINE
8
0
10
15.7039591
20
-0.939311499
11
15.6210066
21
-1.83881716
0
LINE
8
0
10
15.6210066
20
-1.83881716
11
15.6690805
21
-2.71867695
0
LINE
8
0
10
15.6690805
20
-2.71867695
11
15.6788388
21
-2.81052038
0
LINE
8
0
10
15.6788388
20
-2.81052038
11
15.8714044
21
-3.77171932
0
LINE
8
0
10
15.8714044
20
-3.77171932
11
15.882178
21
-3.80748328
0
LINE
8
0
10
15.882178
20
-3.80748328
11
16
21
-4.1561205
0
LINE
8
0
10
16
20
-4.1561205
11
16
21
-5.49857865
0
LINE
8
0
10
16
20
-5.49857865
11
16
21
-5.49857865
0
LINE
8
0
10
16
20
32.4718816
11
16
21
29.9204199
0
LINE
8
0
10
16
20
29.9204199
11
16
21
24.8174993
0
LINE
8
0
10
16
20
24.8174993
11
16
21
22.9922199
0
LINE
8
0
10
16
20
22.9922199
11
16
21
22.0795796
0
LINE
8
0
10
16
20
22.0795796
11
14.5667965
21
22.0795796
0
LINE
8
0
10
14.5667965
20
22.0795796
11
2.4
21
22.0795796
0
LINE
8
0
10
2.4
20
22.0795796
11
2.4
21
22.5773834
0
LINE
8
0
10
2.4
20
22.5773834
11
2.4
21
22.9922199
0
LINE
8
0
10
2.4
20
22.9922199
11
2.4
21
26.784084
0
LINE
8
0
10
2.4
20
26.784084
11
2.4
21
29.9204199
0
LINE
8
0
10
2.4
20
29.9204199
11
2.4
21
31.0801752
0
LINE
8
0
10
2.4
20
31.0801752
11
2.4
21
32.4718816
0
LINE
8
0
10
2.4
20
32.4718816
11
11.9932035
21
32.4718816
0
LINE
8
0
10
11.9932035
20
32.4718816
11
16
21
32.4718816
0
LINE
8
0
10
16
20
32.4718816
11
16
21
32.4718816
0
ENDSEC
0
EOF
