0
SECTION
2
ENTITIES
0
LINE
8
0
10
16
20
-3.54043825
11
16
21
-3.99119345
0
LINE
8
0
10
16
20
-3.99119345
11
16
21
-4.099324
0
LINE
8
0
10
16
20
-4.099324
11
16
21
-6.07118051
0
LINE
8
0
10
16
20
-6.07118051
11
16
21
-7.50015853
0
LINE
8
0
10
16
20
-7.50015853
11
16
21
-9.41561399
0
LINE
8
0
10
16
20
-9.41561399
11
16
21
-13.329245
0
LINE
8
0
10
16
20
-13.329245
11
15.9739626
21
-13.5535771
0
LINE
8
0
10
15.9739626
20
-13.5535771
11
15.93185
21
-13.8824416
0
LINE
8
0
10
15.93185
20
-13.8824416
11
15.8418811
21
-14.1142119
0
LINE
8
0
10
15.8418811
20
-14.1142119
11
15.73205
21
-14.397147
0
LINE
8
0
10
15.73205
20
-14.397147
11
15.618299
21
-14.5553258
0
LINE
8
0
10
15.618299
20
-14.5553258
11
15.41421
21
-14.8391325
0
LINE
8
0
10
15.41421
20
-14.8391325
11
15.2969021
21
-14.9351837
0
LINE
8
0
10
15.2969021
20
-14.9351837
11
15
21
-15.1782829
0
LINE
8
0
10
15
20
-15.1782829
11
14.8897011
21
-15.2270325
0
LINE
8
0
10
14.8897011
20
-15.2270325
11
14.51764
21
-15.3914798
0
LINE
8
0
10
14.51764
20
-15.3914798
11
14.4158281
21
-15.4057824
0
LINE
8
0
10
14.4158281
20
-15.4057824
11
14
21
-15.4641986
0
LINE
8
0
10
14
20
-15.4641986
11
12.2089202
21
-15.4641986
0
LINE
8
0
10
12.2089202
20
-15.4641986
11
4.4
21
-15.4641986
0
LINE
8
0
10
4.4
20
-15.4641986
11
4.30174055
21
-15.450395
0
LINE
8
0
10
4.30174055
20
-15.450395
11
3.882362
21
-15.3914798
0
LINE
8
0
10
3.882362
20
-15.3914798
11
3.78072827
21
-15.3465601
0
LINE
8
0
10
3.78072827
20
-15.3465601
11
3.4
21
-15.1782829
0
LINE
8
0
10
3.4
20
-15.1782829
11
3.29162306
21
-15.0895453
0
LINE
8
0
10
3.29162306
20
-15.0895453
11
2.985786
21
-14.8391325
0
LINE
8
0
10
2.985786
20
-14.8391325
11
2.87643795
21
-14.6870746
0
LINE
8
0
10
2.87643795
20
-14.6870746
11
2.667949
21
-14.397147
0
LINE
8
0
10
2.667949
20
-14.397147
11
2.57659607
21
-14.1618128
0
LINE
8
0
10
2.57659607
20
-14.1618128
11
2.468148
21
-13.8824416
0
LINE
8
0
10
2.468148
20
-13.8824416
11
2.4260366
21
-13.5535771
0
LINE
8
0
10
2.4260366
20
-13.5535771
11
2.4
21
-13.329245
0
LINE
8
0
10
2.4
20
-13.329245
11
2.4
21
-11.3299018
0
LINE
8
0
10
2.4
20
-11.3299018
11
2.4
21
-9.43041992
0
LINE
8
0
10
2.4
20
-9.43041992
11
2.4
21
-9.08804288
0
LINE
8
0
10
2.4
20
-9.08804288
11
2.4
21
-7.76177318
0
LINE
8
0
10
2.4
20
-7.76177318
11
2.4
21
-6.78435826
0
LINE
8
0
10
2.4
20
-6.78435826
11
2.4
21
-6.35482106
0
LINE
8
0
10
2.4
20
-6.35482106
11
2.4
21
-5.60627242
0
LINE
8
0
10
2.4
20
-5.60627242
11
2.4
21
-4.9843297
0
LINE
8
0
10
2.4
20
-4.9843297
11
2.4
21
-4.53420108
0
LINE
8
0
10
2.4
20
-4.53420108
11
2.4
21
-4.01974705
0
LINE
8
0
10
2.4
20
-4.01974705
11
2.4
21
-3.53964591
0
LINE
8
0
10
2.4
20
-3.53964591
11
2.4
21
-3.09263153
0
LINE
8
0
10
2.4
20
-3.09263153
11
2.4
21
-2.67337647
0
LINE
8
0
10
2.4
20
-2.67337647
11
2.4
21
-2.1907469
0
LINE
8
0
10
2.4
20
-2.1907469
11
2.4
21
-1.78947933
0
LINE
8
0
10
2.4
20
-1.78947933
11
2.4
21
-1.30570074
0
LINE
8
0
10
2.4
20
-1.30570074
11
2.4
21
-0.866013614
0
LINE
8
0
10
2.4
20
-0.866013614
11
2.4
21
-0.513657601
0
LINE
8
0
10
2.4
20
-0.513657601
11
2.4
21
3.49604102
0
LINE
8
0
10
2.4
20
3.49604102
11
2.4
21
8.15816013
0
LINE
8
0
10
2.4
20
8.15816013
11
2.4
21
13.8170999
0
LINE
8
0
10
2.4
20
13.8170999
11
2.4
21
13.8821445
0
LINE
8
0
10
2.4
20
13.8821445
11
2.4
21
13.9341801
0
LINE
8
0
10
2.4
20
13.9341801
11
2.58386186
21
13.9341801
0
LINE
8
0
10
2.58386186
20
13.9341801
11
16
21
13.9341801
0
LINE
8
0
10
16
20
13.9341801
11
16
21
13.8170999
0
LINE
8
0
10
16
20
13.8170999
11
16
21
13.2574261
0
LINE
8
0
10
16
20
13.2574261
11
16
21
11.6767747
0
LINE
8
0
10
16
20
11.6767747
11
16
21
0.161257251
0
LINE
8
0
10
16
20
0.161257251
11
16
21
-0.367381927
0
LINE
8
0
10
16
20
-0.367381927
11
15.8940057
21
-0.814921353
0
LINE
8
0
10
15.8940057
20
-0.814921353
11
15.8910606
21
-0.845556855
0
LINE
8
0
10
15.8910606
20
-0.845556855
11
15.800529
21
-1.82724692
0
LINE
8
0
10
15.800529
20
-1.82724692
11
15.8529952
21
-2.78749615
0
LINE
8
0
10
15.8529952
20
-2.78749615
11
15.8573302
21
-2.82829588
0
LINE
8
0
10
15.8573302
20
-2.82829588
11
16
21
-3.54043825
0
LINE
8
0
10
16
20
-3.54043825
11
16
21
-3.54043825
0
LINE
8
0
10
16
20
57.8638915
11
16
21
57.9386739
0
LINE
8
0
10
16
20
57.9386739
11
16
21
58.0197461
0
LINE
8
0
10
16
20
58.0197461
11
16
21
58.1131697
0
LINE
8
0
10
16
20
58.1131697
11
16
21
58.2287481
0
LINE
8
0
10
16
20
58.2287481
11
16
21
58.384889
0
LINE
8
0
10
16
20
58.384889
11
16
21
59.3526022
0
LINE
8
0
10
16
20
59.3526022
11
16
21
59.60061
0
LINE
8
0
10
16
20
59.60061
11
16
21
60.0469908
0
LINE
8
0
10
16
20
60.0469908
11
16
21
61.3048239
0
LINE
8
0
10
16
20
61.3048239
11
16
21
62.6178059
0
LINE
8
0
10
16
20
62.6178059
11
16
21
63.9655428
0
LINE
8
0
10
16
20
63.9655428
11
16
21
68.0785458
0
LINE
8
0
10
16
20
68.0785458
11
15.9907516
21
68.1584344
0
LINE
8
0
10
15.9907516
20
68.1584344
11
15.93185
21
68.6283397
0
LINE
8
0
10
15.93185
20
68.6283397
11
15.7572094
21
69.0839893
0
LINE
8
0
10
15.7572094
20
69.0839893
11
15.73205
21
69.1496307
0
LINE
8
0
10
15.73205
20
69.1496307
11
15.4189261
21
69.5906241
0
LINE
8
0
10
15.4189261
20
69.5906241
11
15.41421
21
69.5972662
0
LINE
8
0
10
15.41421
20
69.5972662
11
15.3373027
21
69.6610416
0
LINE
8
0
10
15.3373027
20
69.6610416
11
15
21
69.9299687
0
LINE
8
0
10
15
20
69.9299687
11
14.9732761
21
69.9414701
0
LINE
8
0
10
14.9732761
20
69.9414701
11
14.51764
21
70.1375698
0
LINE
8
0
10
14.51764
20
70.1375698
11
14.4684446
21
70.1442992
0
LINE
8
0
10
14.4684446
20
70.1442992
11
14
21
70.208375
0
LINE
8
0
10
14
20
70.208375
11
12.9666501
21
70.208375
0
LINE
8
0
10
12.9666501
20
70.208375
11
4.4
21
70.208375
0
LINE
8
0
10
4.4
20
70.208375
11
4.34479886
21
70.2008241
0
LINE
8
0
10
4.34479886
20
70.2008241
11
3.882362
21
70.1375698
0
LINE
8
0
10
3.882362
20
70.1375698
11
3.83817226
21
70.1185514
0
LINE
8
0
10
3.83817226
20
70.1185514
11
3.4
21
69.9299687
0
LINE
8
0
10
3.4
20
69.9299687
11
3.37864567
21
69.9129432
0
LINE
8
0
10
3.37864567
20
69.9129432
11
3.06269401
21
69.6610416
0
LINE
8
0
10
3.06269401
20
69.6610416
11
2.99073534
21
69.6013704
0
LINE
8
0
10
2.99073534
20
69.6013704
11
2.985786
21
69.5972662
0
LINE
8
0
10
2.985786
20
69.5972662
11
2.6984213
21
69.1925481
0
LINE
8
0
10
2.6984213
20
69.1925481
11
2.667949
21
69.1496307
0
LINE
8
0
10
2.667949
20
69.1496307
11
2.50732079
21
68.7305415
0
LINE
8
0
10
2.50732079
20
68.7305415
11
2.468148
21
68.6283397
0
LINE
8
0
10
2.468148
20
68.6283397
11
2.40924815
21
68.1584344
0
LINE
8
0
10
2.40924815
20
68.1584344
11
2.4
21
68.0785458
0
LINE
8
0
10
2.4
20
68.0785458
11
2.4
21
65.994071
0
LINE
8
0
10
2.4
20
65.994071
11
2.4
21
65.7600349
0
LINE
8
0
10
2.4
20
65.7600349
11
2.4
21
64.1397909
0
LINE
8
0
10
2.4
20
64.1397909
11
2.4
21
63.0274506
0
LINE
8
0
10
2.4
20
63.0274506
11
2.4
21
62.6275574
0
LINE
8
0
10
2.4
20
62.6275574
11
2.4
21
61.7998019
0
LINE
8
0
10
2.4
20
61.7998019
11
2.4
21
61.1385875
0
LINE
8
0
10
2.4
20
61.1385875
11
2.4
21
60.6987473
0
LINE
8
0
10
2.4
20
60.6987473
11
2.4
21
60.1615541
0
LINE
8
0
10
2.4
20
60.1615541
11
2.4
21
59.6878682
0
LINE
8
0
10
2.4
20
59.6878682
11
2.4
21
59.2286534
0
LINE
8
0
10
2.4
20
59.2286534
11
2.4
21
58.8082498
0
LINE
8
0
10
2.4
20
58.8082498
11
2.4
21
58.326425
0
LINE
8
0
10
2.4
20
58.326425
11
2.4
21
57.9295873
0
LINE
8
0
10
2.4
20
57.9295873
11
2.4
21
57.4467765
0
LINE
8
0
10
2.4
20
57.4467765
11
2.4
21
57.0453156
0
LINE
8
0
10
2.4
20
57.0453156
11
2.4
21
56.5835124
0
LINE
8
0
10
2.4
20
56.5835124
11
2.4
21
56.1997677
0
LINE
8
0
10
2.4
20
56.1997677
11
2.4
21
55.9238966
0
LINE
8
0
10
2.4
20
55.9238966
11
2.4
21
52.2962718
0
LINE
8
0
10
2.4
20
52.2962718
11
2.4
21
48.6156453
0
LINE
8
0
10
2.4
20
48.6156453
11
2.4
21
41.5544251
0
LINE
8
0
10
2.4
20
41.5544251
11
2.4
21
38.1828981
0
LINE
8
0
10
2.4
20
38.1828981
11
7.65613814
21
38.1828981
0
LINE
8
0
10
7.65613814
20
38.1828981
11
16
21
38.1828981
0
LINE
8
0
10
16
20
38.1828981
11
16
21
41.5544251
0
LINE
8
0
10
16
20
41.5544251
11
16
21
55.985212
0
LINE
8
0
10
16
20
55.985212
11
16
21
56.8521384
0
LINE
8
0
10
16
20
56.8521384
11
16
21
57.7909993
0
LINE
8
0
10
16
20
57.7909993
11
16
21
57.8638915
0
LINE
8
0
10
16
20
57.8638915
11
16
21
57.8638915
0
LINE
8
0
10
16
20
22.4773599
11
16
21
22.5944401
0
LINE
8
0
10
16
20
22.5944401
11
16
21
22.8286003
0
LINE
8
0
10
16
20
22.8286003
11
16
21
29.5226401
0
LINE
8
0
10
16
20
29.5226401
11
16
21
32.8696619
0
LINE
8
0
10
16
20
32.8696619
11
10.7438619
21
32.8696619
0
LINE
8
0
10
10.7438619
20
32.8696619
11
2.4
21
32.8696619
0
LINE
8
0
10
2.4
20
32.8696619
11
2.4
21
31.0440136
0
LINE
8
0
10
2.4
20
31.0440136
11
2.4
21
29.5226401
0
LINE
8
0
10
2.4
20
29.5226401
11
2.4
21
26.704528
0
LINE
8
0
10
2.4
20
26.704528
11
2.4
21
22.5944401
0
LINE
8
0
10
2.4
20
22.5944401
11
2.4
21
22.5412218
0
LINE
8
0
10
2.4
20
22.5412218
11
2.4
21
22.4773599
0
LINE
8
0
10
2.4
20
22.4773599
11
15.8161381
21
22.4773599
0
LINE
8
0
10
15.8161381
20
22.4773599
11
16
21
22.4773599
0
LINE
8
0
10
16
20
22.4773599
11
16
21
22.4773599
0
ENDSEC
0
EOF
