0
SECTION
2
ENTITIES
0
LINE
8
0
10
16
20
-1.78431559
11
16
21
-0.823326984
0
LINE
8
0
10
16
20
-0.823326984
11
16
21
0.0419445898
0
LINE
8
0
10
16
20
0.0419445898
11
16
21
12.6640636
0
LINE
8
0
10
16
20
12.6640636
11
16
21
15.0104407
0
LINE
8
0
10
16
20
15.0104407
11
12.435837
21
15.0104407
0
LINE
8
0
10
12.435837
20
15.0104407
11
2.4
21
15.0104407
0
LINE
8
0
10
2.4
20
15.0104407
11
2.4
21
12.6640636
0
LINE
8
0
10
2.4
20
12.6640636
11
2.4
21
7.36855517
0
LINE
8
0
10
2.4
20
7.36855517
11
2.4
21
3.09721016
0
LINE
8
0
10
2.4
20
3.09721016
11
2.4
21
-0.576399583
0
LINE
8
0
10
2.4
20
-0.576399583
11
2.4
21
-0.899221471
0
LINE
8
0
10
2.4
20
-0.899221471
11
2.4
21
-1.30205446
0
LINE
8
0
10
2.4
20
-1.30205446
11
2.4
21
-1.74528323
0
LINE
8
0
10
2.4
20
-1.74528323
11
2.4
21
-2.24732987
0
LINE
8
0
10
2.4
20
-2.24732987
11
2.4
21
-2.68901639
0
LINE
8
0
10
2.4
20
-2.68901639
11
2.4
21
-3.21026182
0
LINE
8
0
10
2.4
20
-3.21026182
11
2.4
21
-3.76601946
0
LINE
8
0
10
2.4
20
-3.76601946
11
2.4
21
-4.20108085
0
LINE
8
0
10
2.4
20
-4.20108085
11
2.4
21
-4.83046618
0
LINE
8
0
10
2.4
20
-4.83046618
11
2.4
21
-5.2341462
0
LINE
8
0
10
2.4
20
-5.2341462
11
2.4
21
-5.97916499
0
LINE
8
0
10
2.4
20
-5.97916499
11
2.4
21
-6.8758437
0
LINE
8
0
10
2.4
20
-6.8758437
11
2.4
21
-7.24417419
0
LINE
8
0
10
2.4
20
-7.24417419
11
2.4
21
-8.39001678
0
LINE
8
0
10
2.4
20
-8.39001678
11
2.4
21
-9.94482865
0
LINE
8
0
10
2.4
20
-9.94482865
11
2.4
21
-10.1894905
0
LINE
8
0
10
2.4
20
-10.1894905
11
2.4
21
-12.3735356
0
LINE
8
0
10
2.4
20
-12.3735356
11
2.4
21
-13.0364212
0
LINE
8
0
10
2.4
20
-13.0364212
11
2.46676056
21
-13.6116321
0
LINE
8
0
10
2.46676056
20
-13.6116321
11
2.468148
21
-13.6224672
0
LINE
8
0
10
2.468148
20
-13.6224672
11
2.47172103
21
-13.6316716
0
LINE
8
0
10
2.47172103
20
-13.6316716
11
2.667949
21
-14.1371743
0
LINE
8
0
10
2.667949
20
-14.1371743
11
2.71831807
21
-14.2072182
0
LINE
8
0
10
2.71831807
20
-14.2072182
11
2.985786
21
-14.5791555
0
LINE
8
0
10
2.985786
20
-14.5791555
11
3.09592996
21
-14.669339
0
LINE
8
0
10
3.09592996
20
-14.669339
11
3.4
21
-14.9183076
0
LINE
8
0
10
3.4
20
-14.9183076
11
3.56320563
21
-14.9904425
0
LINE
8
0
10
3.56320563
20
-14.9904425
11
3.882362
21
-15.1315019
0
LINE
8
0
10
3.882362
20
-15.1315019
11
4.07724823
21
-15.15888
0
LINE
8
0
10
4.07724823
20
-15.15888
11
4.4
21
-15.2042206
0
LINE
8
0
10
4.4
20
-15.2042206
11
8.11685946
21
-15.2042206
0
LINE
8
0
10
8.11685946
20
-15.2042206
11
14
21
-15.2042206
0
LINE
8
0
10
14
20
-15.2042206
11
14.1979243
21
-15.1764159
0
LINE
8
0
10
14.1979243
20
-15.1764159
11
14.51764
21
-15.1315019
0
LINE
8
0
10
14.51764
20
-15.1315019
11
14.6905377
21
-15.0550829
0
LINE
8
0
10
14.6905377
20
-15.0550829
11
15
21
-14.9183076
0
LINE
8
0
10
15
20
-14.9183076
11
15.1272721
21
-14.814099
0
LINE
8
0
10
15.1272721
20
-14.814099
11
15.41421
21
-14.5791555
0
LINE
8
0
10
15.41421
20
-14.5791555
11
15.4877105
21
-14.4769455
0
LINE
8
0
10
15.4877105
20
-14.4769455
11
15.73205
21
-14.1371743
0
LINE
8
0
10
15.73205
20
-14.1371743
11
15.7585842
21
-14.0688197
0
LINE
8
0
10
15.7585842
20
-14.0688197
11
15.93185
21
-13.6224672
0
LINE
8
0
10
15.93185
20
-13.6224672
11
15.9332375
21
-13.6116321
0
LINE
8
0
10
15.9332375
20
-13.6116321
11
16
21
-13.0364212
0
LINE
8
0
10
16
20
-13.0364212
11
16
21
-11.7388504
0
LINE
8
0
10
16
20
-11.7388504
11
16
21
-11.1037779
0
LINE
8
0
10
16
20
-11.1037779
11
16
21
-7.78898607
0
LINE
8
0
10
16
20
-7.78898607
11
16
21
-6.37990216
0
LINE
8
0
10
16
20
-6.37990216
11
16
21
-5.32372515
0
LINE
8
0
10
16
20
-5.32372515
11
16
21
-4.03682983
0
LINE
8
0
10
16
20
-4.03682983
11
16
21
-3.62141752
0
LINE
8
0
10
16
20
-3.62141752
11
16
21
-3.37203825
0
LINE
8
0
10
16
20
-3.37203825
11
16
21
-2.35464066
0
LINE
8
0
10
16
20
-2.35464066
11
16
21
-2.19207031
0
LINE
8
0
10
16
20
-2.19207031
11
16
21
-2.06762665
0
LINE
8
0
10
16
20
-2.06762665
11
16
21
-1.96417031
0
LINE
8
0
10
16
20
-1.96417031
11
16
21
-1.87192734
0
LINE
8
0
10
16
20
-1.87192734
11
16
21
-1.78431559
0
LINE
8
0
10
16
20
-1.78431559
11
16
21
-1.78431559
0
LINE
8
0
10
16
20
60.0857722
11
16
21
60.7003526
0
LINE
8
0
10
16
20
60.7003526
11
16
21
61.8065152
0
LINE
8
0
10
16
20
61.8065152
11
16
21
62.7316281
0
LINE
8
0
10
16
20
62.7316281
11
16
21
65.2908522
0
LINE
8
0
10
16
20
65.2908522
11
16
21
65.902339
0
LINE
8
0
10
16
20
65.902339
11
16
21
67.7684651
0
LINE
8
0
10
16
20
67.7684651
11
15.9533449
21
68.171476
0
LINE
8
0
10
15.9533449
20
68.171476
11
15.93185
21
68.3429578
0
LINE
8
0
10
15.93185
20
68.3429578
11
15.8681187
21
68.5092374
0
LINE
8
0
10
15.8681187
20
68.5092374
11
15.73205
21
68.8642432
0
LINE
8
0
10
15.73205
20
68.8642432
11
15.5856236
21
69.0704654
0
LINE
8
0
10
15.5856236
20
69.0704654
11
15.41421
21
69.3118825
0
LINE
8
0
10
15.41421
20
69.3118825
11
15.180042
21
69.5060667
0
LINE
8
0
10
15.180042
20
69.5060667
11
15
21
69.6553668
0
LINE
8
0
10
15
20
69.6553668
11
14.6951813
21
69.7918161
0
LINE
8
0
10
14.6951813
20
69.7918161
11
14.51764
21
69.8712888
0
LINE
8
0
10
14.51764
20
69.8712888
11
14.1748625
21
69.9200554
0
LINE
8
0
10
14.1748625
20
69.9200554
11
14
21
69.9449344
0
LINE
8
0
10
14
20
69.9449344
11
7.58124369
21
69.9449344
0
LINE
8
0
10
7.58124369
20
69.9449344
11
4.4
21
69.9449344
0
LINE
8
0
10
4.4
20
69.9449344
11
4.05883822
21
69.8963975
0
LINE
8
0
10
4.05883822
20
69.8963975
11
3.882362
21
69.8712888
0
LINE
8
0
10
3.882362
20
69.8712888
11
3.58047068
21
69.7361504
0
LINE
8
0
10
3.58047068
20
69.7361504
11
3.4
21
69.6553668
0
LINE
8
0
10
3.4
20
69.6553668
11
3.16567857
21
69.4610573
0
LINE
8
0
10
3.16567857
20
69.4610573
11
2.985786
21
69.3118825
0
LINE
8
0
10
2.985786
20
69.3118825
11
2.83275113
21
69.0963516
0
LINE
8
0
10
2.83275113
20
69.0963516
11
2.667949
21
68.8642432
0
LINE
8
0
10
2.667949
20
68.8642432
11
2.59283429
21
68.6682641
0
LINE
8
0
10
2.59283429
20
68.6682641
11
2.468148
21
68.3429578
0
LINE
8
0
10
2.468148
20
68.3429578
11
2.44665376
21
68.171476
0
LINE
8
0
10
2.44665376
20
68.171476
11
2.4
21
67.7684651
0
LINE
8
0
10
2.4
20
67.7684651
11
2.4
21
66.8227101
0
LINE
8
0
10
2.4
20
66.8227101
11
2.4
21
66.7165247
0
LINE
8
0
10
2.4
20
66.7165247
11
2.4
21
64.8166937
0
LINE
8
0
10
2.4
20
64.8166937
11
2.4
21
63.5124095
0
LINE
8
0
10
2.4
20
63.5124095
11
2.4
21
63.1842581
0
LINE
8
0
10
2.4
20
63.1842581
11
2.4
21
62.1923839
0
LINE
8
0
10
2.4
20
62.1923839
11
2.4
21
61.4000708
0
LINE
8
0
10
2.4
20
61.4000708
11
2.4
21
61.0114319
0
LINE
8
0
10
2.4
20
61.0114319
11
2.4
21
60.3539801
0
LINE
8
0
10
2.4
20
60.3539801
11
2.4
21
59.9287819
0
LINE
8
0
10
2.4
20
59.9287819
11
2.4
21
59.3576861
0
LINE
8
0
10
2.4
20
59.3576861
11
2.4
21
58.8348572
0
LINE
8
0
10
2.4
20
58.8348572
11
2.4
21
58.3953639
0
LINE
8
0
10
2.4
20
58.3953639
11
2.4
21
57.8988394
0
LINE
8
0
10
2.4
20
57.8988394
11
2.4
21
57.4569694
0
LINE
8
0
10
2.4
20
57.4569694
11
2.4
21
56.9576983
0
LINE
8
0
10
2.4
20
56.9576983
11
2.4
21
56.5346029
0
LINE
8
0
10
2.4
20
56.5346029
11
2.4
21
56.1830234
0
LINE
8
0
10
2.4
20
56.1830234
11
2.4
21
55.9302755
0
LINE
8
0
10
2.4
20
55.9302755
11
2.4
21
52.6067145
0
LINE
8
0
10
2.4
20
52.6067145
11
2.4
21
49.2345944
0
LINE
8
0
10
2.4
20
49.2345944
11
2.4
21
42.7652386
0
LINE
8
0
10
2.4
20
42.7652386
11
2.4
21
36.9895573
0
LINE
8
0
10
2.4
20
36.9895573
11
11.404163
21
36.9895573
0
LINE
8
0
10
11.404163
20
36.9895573
11
16
21
36.9895573
0
LINE
8
0
10
16
20
36.9895573
11
16
21
42.7652386
0
LINE
8
0
10
16
20
42.7652386
11
16
21
55.9864515
0
LINE
8
0
10
16
20
55.9864515
11
16
21
56.780713
0
LINE
8
0
10
16
20
56.780713
11
16
21
57.6408796
0
LINE
8
0
10
16
20
57.6408796
11
16
21
57.8387144
0
LINE
8
0
10
16
20
57.8387144
11
16
21
58.0416793
0
LINE
8
0
10
16
20
58.0416793
11
16
21
58.2617152
0
LINE
8
0
10
16
20
58.2617152
11
16
21
58.5152738
0
LINE
8
0
10
16
20
58.5152738
11
16
21
58.8289621
0
LINE
8
0
10
16
20
58.8289621
11
16
21
59.2527401
0
LINE
8
0
10
16
20
59.2527401
11
16
21
60.0857722
0
LINE
8
0
10
16
20
60.0857722
11
16
21
60.0857722
0
LINE
8
0
10
16
20
28.3293006
11
16
21
23.6706994
0
LINE
8
0
10
16
20
23.6706994
11
16
21
21.4010993
0
LINE
8
0
10
16
20
21.4010993
11
5.96416298
21
21.4010993
0
LINE
8
0
10
5.96416298
20
21.4010993
11
2.4
21
21.4010993
0
LINE
8
0
10
2.4
20
21.4010993
11
2.4
21
22.4098105
0
LINE
8
0
10
2.4
20
22.4098105
11
2.4
21
23.6706994
0
LINE
8
0
10
2.4
20
23.6706994
11
2.4
21
26.4658601
0
LINE
8
0
10
2.4
20
26.4658601
11
2.4
21
28.3293006
0
LINE
8
0
10
2.4
20
28.3293006
11
2.4
21
30.9355288
0
LINE
8
0
10
2.4
20
30.9355288
11
2.4
21
34.0630027
0
LINE
8
0
10
2.4
20
34.0630027
11
6.99583702
21
34.0630027
0
LINE
8
0
10
6.99583702
20
34.0630027
11
16
21
34.0630027
0
LINE
8
0
10
16
20
34.0630027
11
16
21
28.3293006
0
LINE
8
0
10
16
20
28.3293006
11
16
21
28.3293006
0
ENDSEC
0
EOF
