0
SECTION
2
ENTITIES
0
LINE
8
0
10
16
20
55.9872778
11
16
21
56.7330961
0
LINE
8
0
10
16
20
56.7330961
11
16
21
57.5407997
0
LINE
8
0
10
16
20
57.5407997
11
16
21
57.8219296
0
LINE
8
0
10
16
20
57.8219296
11
16
21
58.1103496
0
LINE
8
0
10
16
20
58.1103496
11
16
21
58.4230279
0
LINE
8
0
10
16
20
58.4230279
11
16
21
58.7833431
0
LINE
8
0
10
16
20
58.7833431
11
16
21
59.2291047
0
LINE
8
0
10
16
20
59.2291047
11
16
21
59.8313075
0
LINE
8
0
10
16
20
59.8313075
11
16
21
60.5745522
0
LINE
8
0
10
16
20
60.5745522
11
16
21
61.4335143
0
LINE
8
0
10
16
20
61.4335143
11
16
21
62.9795315
0
LINE
8
0
10
16
20
62.9795315
11
16
21
63.6828309
0
LINE
8
0
10
16
20
63.6828309
11
16
21
67.072883
0
LINE
8
0
10
16
20
67.072883
11
16
21
67.1935364
0
LINE
8
0
10
16
20
67.1935364
11
16
21
67.5617447
0
LINE
8
0
10
16
20
67.5617447
11
15.9563603
21
67.9387083
0
LINE
8
0
10
15.9563603
20
67.9387083
11
15.93185
21
68.1439226
0
LINE
8
0
10
15.93185
20
68.1439226
11
15.8713116
21
68.3106485
0
LINE
8
0
10
15.8713116
20
68.3106485
11
15.73205
21
68.6739849
0
LINE
8
0
10
15.73205
20
68.6739849
11
15.6967553
21
68.7236928
0
LINE
8
0
10
15.6967553
20
68.7236928
11
15.41421
21
69.1216267
0
LINE
8
0
10
15.41421
20
69.1216267
11
15.3170729
21
69.2021779
0
LINE
8
0
10
15.3170729
20
69.2021779
11
15
21
69.4651111
0
LINE
8
0
10
15
20
69.4651111
11
14.8468987
21
69.5336455
0
LINE
8
0
10
14.8468987
20
69.5336455
11
14.51764
21
69.6810314
0
LINE
8
0
10
14.51764
20
69.6810314
11
14.3308223
21
69.7076097
0
LINE
8
0
10
14.3308223
20
69.7076097
11
14
21
69.7546782
0
LINE
8
0
10
14
20
69.7546782
11
10.418594
21
69.7546782
0
LINE
8
0
10
10.418594
20
69.7546782
11
4.4
21
69.7546782
0
LINE
8
0
10
4.4
20
69.7546782
11
4.20964555
21
69.7275966
0
LINE
8
0
10
4.20964555
20
69.7275966
11
3.882362
21
69.6810314
0
LINE
8
0
10
3.882362
20
69.6810314
11
3.71782775
21
69.6073794
0
LINE
8
0
10
3.71782775
20
69.6073794
11
3.4
21
69.4651111
0
LINE
8
0
10
3.4
20
69.4651111
11
3.2823074
21
69.3675153
0
LINE
8
0
10
3.2823074
20
69.3675153
11
2.985786
21
69.1216267
0
LINE
8
0
10
2.985786
20
69.1216267
11
2.92230435
21
69.0322206
0
LINE
8
0
10
2.92230435
20
69.0322206
11
2.667949
21
68.6739849
0
LINE
8
0
10
2.667949
20
68.6739849
11
2.64984329
21
68.6267459
0
LINE
8
0
10
2.64984329
20
68.6267459
11
2.52868667
21
68.3106485
0
LINE
8
0
10
2.52868667
20
68.3106485
11
2.47615001
21
68.1659606
0
LINE
8
0
10
2.47615001
20
68.1659606
11
2.468148
21
68.1439226
0
LINE
8
0
10
2.468148
20
68.1439226
11
2.44363846
21
67.9387083
0
LINE
8
0
10
2.44363846
20
67.9387083
11
2.4
21
67.5617447
0
LINE
8
0
10
2.4
20
67.5617447
11
2.4
21
67.3751363
0
LINE
8
0
10
2.4
20
67.3751363
11
2.4
21
67.3541847
0
LINE
8
0
10
2.4
20
67.3541847
11
2.4
21
65.2679622
0
LINE
8
0
10
2.4
20
65.2679622
11
2.4
21
63.8357154
0
LINE
8
0
10
2.4
20
63.8357154
11
2.4
21
63.5553919
0
LINE
8
0
10
2.4
20
63.5553919
11
2.4
21
62.4541052
0
LINE
8
0
10
2.4
20
62.4541052
11
2.4
21
61.5743931
0
LINE
8
0
10
2.4
20
61.5743931
11
2.4
21
61.2198882
0
LINE
8
0
10
2.4
20
61.2198882
11
2.4
21
60.4822641
0
LINE
8
0
10
2.4
20
60.4822641
11
2.4
21
60.0893911
0
LINE
8
0
10
2.4
20
60.0893911
11
2.4
21
59.4437078
0
LINE
8
0
10
2.4
20
59.4437078
11
2.4
21
58.8525955
0
LINE
8
0
10
2.4
20
58.8525955
11
2.4
21
58.4413232
0
LINE
8
0
10
2.4
20
58.4413232
11
2.4
21
57.8783408
0
LINE
8
0
10
2.4
20
57.8783408
11
2.4
21
57.4637646
0
LINE
8
0
10
2.4
20
57.4637646
11
2.4
21
56.8992868
0
LINE
8
0
10
2.4
20
56.8992868
11
2.4
21
56.5019967
0
LINE
8
0
10
2.4
20
56.5019967
11
2.4
21
56.1718605
0
LINE
8
0
10
2.4
20
56.1718605
11
2.4
21
55.9345281
0
LINE
8
0
10
2.4
20
55.9345281
11
2.4
21
52.8136764
0
LINE
8
0
10
2.4
20
52.8136764
11
2.4
21
49.6472271
0
LINE
8
0
10
2.4
20
49.6472271
11
2.4
21
43.5724475
0
LINE
8
0
10
2.4
20
43.5724475
11
2.4
21
36.1939968
0
LINE
8
0
10
2.4
20
36.1939968
11
13.9028462
21
36.1939968
0
LINE
8
0
10
13.9028462
20
36.1939968
11
16
21
36.1939968
0
LINE
8
0
10
16
20
36.1939968
11
16
21
43.5724475
0
LINE
8
0
10
16
20
43.5724475
11
16
21
55.9872778
0
LINE
8
0
10
16
20
55.9872778
11
16
21
55.9872778
0
LINE
8
0
10
16
20
20.6055388
11
16
21
24.466259
0
LINE
8
0
10
16
20
24.466259
11
16
21
27.533741
0
LINE
8
0
10
16
20
27.533741
11
16
21
34.8585632
0
LINE
8
0
10
16
20
34.8585632
11
4.49715379
21
34.8585632
0
LINE
8
0
10
4.49715379
20
34.8585632
11
2.4
21
34.8585632
0
LINE
8
0
10
2.4
20
34.8585632
11
2.4
21
30.8632057
0
LINE
8
0
10
2.4
20
30.8632057
11
2.4
21
27.533741
0
LINE
8
0
10
2.4
20
27.533741
11
2.4
21
26.3067482
0
LINE
8
0
10
2.4
20
26.3067482
11
2.4
21
24.466259
0
LINE
8
0
10
2.4
20
24.466259
11
2.4
21
22.3214144
0
LINE
8
0
10
2.4
20
22.3214144
11
2.4
21
20.6055388
0
LINE
8
0
10
2.4
20
20.6055388
11
8.46284621
21
20.6055388
0
LINE
8
0
10
8.46284621
20
20.6055388
11
16
21
20.6055388
0
LINE
8
0
10
16
20
20.6055388
11
16
21
20.6055388
0
LINE
8
0
10
16
20
-8.93418978
11
16
21
-7.9002876
0
LINE
8
0
10
16
20
-7.9002876
11
16
21
-6.21207962
0
LINE
8
0
10
16
20
-6.21207962
11
16
21
-5.12223992
0
LINE
8
0
10
16
20
-5.12223992
11
16
21
-4.32929855
0
LINE
8
0
10
16
20
-4.32929855
11
16
21
-3.85328199
0
LINE
8
0
10
16
20
-3.85328199
11
16
21
-2.92667255
0
LINE
8
0
10
16
20
-2.92667255
11
16
21
-2.59196804
0
LINE
8
0
10
16
20
-2.59196804
11
16
21
-2.33575984
0
LINE
8
0
10
16
20
-2.33575984
11
16
21
-2.12276096
0
LINE
8
0
10
16
20
-2.12276096
11
16
21
-1.93284847
0
LINE
8
0
10
16
20
-1.93284847
11
16
21
-1.75247087
0
LINE
8
0
10
16
20
-1.75247087
11
16
21
-0.85009448
0
LINE
8
0
10
16
20
-0.85009448
11
16
21
-0.0375971845
0
LINE
8
0
10
16
20
-0.0375971845
11
16
21
11.8146789
0
LINE
8
0
10
16
20
11.8146789
11
16
21
15.8060012
0
LINE
8
0
10
16
20
15.8060012
11
9.93715379
21
15.8060012
0
LINE
8
0
10
9.93715379
20
15.8060012
11
2.4
21
15.8060012
0
LINE
8
0
10
2.4
20
15.8060012
11
2.4
21
11.8146789
0
LINE
8
0
10
2.4
20
11.8146789
11
2.4
21
6.84215186
0
LINE
8
0
10
2.4
20
6.84215186
11
2.4
21
2.83132292
0
LINE
8
0
10
2.4
20
2.83132292
11
2.4
21
-0.618227571
0
LINE
8
0
10
2.4
20
-0.618227571
11
2.4
21
-0.921360043
0
LINE
8
0
10
2.4
20
-0.921360043
11
2.4
21
-1.29962362
0
LINE
8
0
10
2.4
20
-1.29962362
11
2.4
21
-1.71581916
0
LINE
8
0
10
2.4
20
-1.71581916
11
2.4
21
-2.28505185
0
LINE
8
0
10
2.4
20
-2.28505185
11
2.4
21
-2.69944299
0
LINE
8
0
10
2.4
20
-2.69944299
11
2.4
21
-3.28868202
0
LINE
8
0
10
2.4
20
-3.28868202
11
2.4
21
-3.91693517
0
LINE
8
0
10
2.4
20
-3.91693517
11
2.4
21
-4.32197005
0
LINE
8
0
10
2.4
20
-4.32197005
11
2.4
21
-5.02797624
0
LINE
8
0
10
2.4
20
-5.02797624
11
2.4
21
-5.40069053
0
LINE
8
0
10
2.4
20
-5.40069053
11
2.4
21
-6.22776003
0
LINE
8
0
10
2.4
20
-6.22776003
11
2.4
21
-7.22319213
0
LINE
8
0
10
2.4
20
-7.22319213
11
2.4
21
-7.55071814
0
LINE
8
0
10
2.4
20
-7.55071814
11
2.4
21
-8.80884585
0
LINE
8
0
10
2.4
20
-8.80884585
11
2.4
21
-10.5160192
0
LINE
8
0
10
2.4
20
-10.5160192
11
2.4
21
-10.6955375
0
LINE
8
0
10
2.4
20
-10.6955375
11
2.4
21
-12.8230857
0
LINE
8
0
10
2.4
20
-12.8230857
11
2.40752058
21
-12.8921688
0
LINE
8
0
10
2.40752058
20
-12.8921688
11
2.468148
21
-13.3888863
0
LINE
8
0
10
2.468148
20
-13.3888863
11
2.62760294
21
-13.821287
0
LINE
8
0
10
2.62760294
20
-13.821287
11
2.667949
21
-13.9306952
0
LINE
8
0
10
2.667949
20
-13.9306952
11
2.96781025
21
-14.3696338
0
LINE
8
0
10
2.96781025
20
-14.3696338
11
2.985786
21
-14.3959469
0
LINE
8
0
10
2.985786
20
-14.3959469
11
3.21521145
21
-14.5936882
0
LINE
8
0
10
3.21521145
20
-14.5936882
11
3.4
21
-14.7449907
0
LINE
8
0
10
3.4
20
-14.7449907
11
3.41819054
21
-14.7530307
0
LINE
8
0
10
3.41819054
20
-14.7530307
11
3.882362
21
-14.9581834
0
LINE
8
0
10
3.882362
20
-14.9581834
11
3.92758668
21
-14.9645366
0
LINE
8
0
10
3.92758668
20
-14.9645366
11
4.4
21
-15.0309019
0
LINE
8
0
10
4.4
20
-15.0309019
11
5.38881895
21
-15.0309019
0
LINE
8
0
10
5.38881895
20
-15.0309019
11
14
21
-15.0309019
0
LINE
8
0
10
14
20
-15.0309019
11
14.052655
21
-15.0235049
0
LINE
8
0
10
14.052655
20
-15.0235049
11
14.51764
21
-14.9581834
0
LINE
8
0
10
14.51764
20
-14.9581834
11
14.5577621
21
-14.9404498
0
LINE
8
0
10
14.5577621
20
-14.9404498
11
15
21
-14.7449907
0
LINE
8
0
10
15
20
-14.7449907
11
15.0141855
21
-14.7333758
0
LINE
8
0
10
15.0141855
20
-14.7333758
11
15.1847868
21
-14.5936882
0
LINE
8
0
10
15.1847868
20
-14.5936882
11
15.3961121
21
-14.4115452
0
LINE
8
0
10
15.3961121
20
-14.4115452
11
15.41421
21
-14.3959469
0
LINE
8
0
10
15.41421
20
-14.3959469
11
15.6856757
21
-13.9985778
0
LINE
8
0
10
15.6856757
20
-13.9985778
11
15.73205
21
-13.9306952
0
LINE
8
0
10
15.73205
20
-13.9306952
11
15.8783972
21
-13.5338374
0
LINE
8
0
10
15.8783972
20
-13.5338374
11
15.93185
21
-13.3888863
0
LINE
8
0
10
15.93185
20
-13.3888863
11
15.9924792
21
-12.8921688
0
LINE
8
0
10
15.9924792
20
-12.8921688
11
16
21
-12.8230857
0
LINE
8
0
10
16
20
-12.8230857
11
16
21
-8.93418978
0
LINE
8
0
10
16
20
-8.93418978
11
16
21
-8.93418978
0
ENDSEC
0
EOF
