0
SECTION
2
ENTITIES
0
LINE
8
0
10
16
20
58.5036843
11
16
21
58.9173778
0
LINE
8
0
10
16
20
58.9173778
11
16
21
59.429176
0
LINE
8
0
10
16
20
59.429176
11
16
21
60.1205912
0
LINE
8
0
10
16
20
60.1205912
11
16
21
60.8189422
0
LINE
8
0
10
16
20
60.8189422
11
16
21
61.8000952
0
LINE
8
0
10
16
20
61.8000952
11
16
21
63.5660396
0
LINE
8
0
10
16
20
63.5660396
11
16
21
64.1584323
0
LINE
8
0
10
16
20
64.1584323
11
16
21
67.4403507
0
LINE
8
0
10
16
20
67.4403507
11
15.9930837
21
67.504311
0
LINE
8
0
10
15.9930837
20
67.504311
11
15.93185
21
68.0169955
0
LINE
8
0
10
15.93185
20
68.0169955
11
15.7470302
21
68.525999
0
LINE
8
0
10
15.7470302
20
68.525999
11
15.73205
21
68.5672557
0
LINE
8
0
10
15.73205
20
68.5672557
11
15.5838788
21
68.787539
0
LINE
8
0
10
15.5838788
20
68.787539
11
15.41421
21
69.0264989
0
LINE
8
0
10
15.41421
20
69.0264989
11
15.3855883
21
69.0502335
0
LINE
8
0
10
15.3855883
20
69.0502335
11
15
21
69.3699832
0
LINE
8
0
10
15
20
69.3699832
11
14.9227575
21
69.4045601
0
LINE
8
0
10
14.9227575
20
69.4045601
11
14.51764
21
69.5859027
0
LINE
8
0
10
14.51764
20
69.5859027
11
14.4088022
21
69.6013869
0
LINE
8
0
10
14.4088022
20
69.6013869
11
14
21
69.6595501
0
LINE
8
0
10
14
20
69.6595501
11
11.8372692
21
69.6595501
0
LINE
8
0
10
11.8372692
20
69.6595501
11
4.4
21
69.6595501
0
LINE
8
0
10
4.4
20
69.6595501
11
4.28504921
21
69.6431961
0
LINE
8
0
10
4.28504921
20
69.6431961
11
3.882362
21
69.5859027
0
LINE
8
0
10
3.882362
20
69.5859027
11
3.78650629
21
69.5429939
0
LINE
8
0
10
3.78650629
20
69.5429939
11
3.4
21
69.3699832
0
LINE
8
0
10
3.4
20
69.3699832
11
3.34062181
21
69.3207442
0
LINE
8
0
10
3.34062181
20
69.3207442
11
2.985786
21
69.0264989
0
LINE
8
0
10
2.985786
20
69.0264989
11
2.96708095
21
69.0001551
0
LINE
8
0
10
2.96708095
20
69.0001551
11
2.81611879
21
68.787539
0
LINE
8
0
10
2.81611879
20
68.787539
11
2.6846501
21
68.5920844
0
LINE
8
0
10
2.6846501
20
68.5920844
11
2.667949
21
68.5672557
0
LINE
8
0
10
2.667949
20
68.5672557
11
2.50512995
21
68.1188459
0
LINE
8
0
10
2.50512995
20
68.1188459
11
2.468148
21
68.0169955
0
LINE
8
0
10
2.468148
20
68.0169955
11
2.40691611
21
67.504311
0
LINE
8
0
10
2.40691611
20
67.504311
11
2.4
21
67.4403507
0
LINE
8
0
10
2.4
20
67.4403507
11
2.4
21
65.4935965
0
LINE
8
0
10
2.4
20
65.4935965
11
2.4
21
63.9973684
0
LINE
8
0
10
2.4
20
63.9973684
11
2.4
21
63.7409588
0
LINE
8
0
10
2.4
20
63.7409588
11
2.4
21
62.5849659
0
LINE
8
0
10
2.4
20
62.5849659
11
2.4
21
61.6615542
0
LINE
8
0
10
2.4
20
61.6615542
11
2.4
21
61.3241164
0
LINE
8
0
10
2.4
20
61.3241164
11
2.4
21
60.5464061
0
LINE
8
0
10
2.4
20
60.5464061
11
2.4
21
60.1696957
0
LINE
8
0
10
2.4
20
60.1696957
11
2.4
21
59.4867187
0
LINE
8
0
10
2.4
20
59.4867187
11
2.4
21
58.8614646
0
LINE
8
0
10
2.4
20
58.8614646
11
2.4
21
58.4643028
0
LINE
8
0
10
2.4
20
58.4643028
11
2.4
21
57.8680915
0
LINE
8
0
10
2.4
20
57.8680915
11
2.4
21
57.4671622
0
LINE
8
0
10
2.4
20
57.4671622
11
2.4
21
56.870081
0
LINE
8
0
10
2.4
20
56.870081
11
2.4
21
56.4856935
0
LINE
8
0
10
2.4
20
56.4856935
11
2.4
21
56.166279
0
LINE
8
0
10
2.4
20
56.166279
11
2.4
21
55.9366544
0
LINE
8
0
10
2.4
20
55.9366544
11
2.4
21
52.9171573
0
LINE
8
0
10
2.4
20
52.9171573
11
2.4
21
49.8535435
0
LINE
8
0
10
2.4
20
49.8535435
11
2.4
21
43.976052
0
LINE
8
0
10
2.4
20
43.976052
11
2.4
21
35.7962165
0
LINE
8
0
10
2.4
20
35.7962165
11
15.1521878
21
35.7962165
0
LINE
8
0
10
15.1521878
20
35.7962165
11
16
21
35.7962165
0
LINE
8
0
10
16
20
35.7962165
11
16
21
43.976052
0
LINE
8
0
10
16
20
43.976052
11
16
21
55.987691
0
LINE
8
0
10
16
20
55.987691
11
16
21
56.7092876
0
LINE
8
0
10
16
20
56.7092876
11
16
21
57.4907598
0
LINE
8
0
10
16
20
57.4907598
11
16
21
57.8135373
0
LINE
8
0
10
16
20
57.8135373
11
16
21
58.1446848
0
LINE
8
0
10
16
20
58.1446848
11
16
21
58.5036843
0
LINE
8
0
10
16
20
58.5036843
11
16
21
58.5036843
0
LINE
8
0
10
16
20
-8.66048033
11
16
21
-9.50679164
0
LINE
8
0
10
16
20
-9.50679164
11
16
21
-12.6900876
0
LINE
8
0
10
16
20
-12.6900876
11
15.97779
21
-12.8941001
0
LINE
8
0
10
15.97779
20
-12.8941001
11
15.93185
21
-13.270473
0
LINE
8
0
10
15.93185
20
-13.270473
11
15.8502314
21
-13.491803
0
LINE
8
0
10
15.8502314
20
-13.491803
11
15.73205
21
-13.812282
0
LINE
8
0
10
15.73205
20
-13.812282
11
15.6412707
21
-13.9451644
0
LINE
8
0
10
15.6412707
20
-13.9451644
11
15.41421
21
-14.2775339
0
LINE
8
0
10
15.41421
20
-14.2775339
11
15.3380091
21
-14.3432106
0
LINE
8
0
10
15.3380091
20
-14.3432106
11
15
21
-14.6345434
0
LINE
8
0
10
15
20
-14.6345434
11
14.9484461
21
-14.6585298
0
LINE
8
0
10
14.9484461
20
-14.6585298
11
14.51764
21
-14.8589612
0
LINE
8
0
10
14.51764
20
-14.8589612
11
14.4875516
21
-14.8634105
0
LINE
8
0
10
14.4875516
20
-14.8634105
11
14
21
-14.9355082
0
LINE
8
0
10
14
20
-14.9355082
11
13.6050453
21
-14.9355082
0
LINE
8
0
10
13.6050453
20
-14.9355082
11
4.4
21
-14.9355082
0
LINE
8
0
10
4.4
20
-14.9355082
11
4.37821184
21
-14.9322862
0
LINE
8
0
10
4.37821184
20
-14.9322862
11
3.882362
21
-14.8589612
0
LINE
8
0
10
3.882362
20
-14.8589612
11
3.85164571
21
-14.84467
0
LINE
8
0
10
3.85164571
20
-14.84467
11
3.4
21
-14.6345434
0
LINE
8
0
10
3.4
20
-14.6345434
11
3.3470712
21
-14.588925
0
LINE
8
0
10
3.3470712
20
-14.588925
11
2.985786
21
-14.2775339
0
LINE
8
0
10
2.985786
20
-14.2775339
11
2.91009933
21
-14.166743
0
LINE
8
0
10
2.91009933
20
-14.166743
11
2.667949
21
-13.812282
0
LINE
8
0
10
2.667949
20
-13.812282
11
2.58897026
21
-13.5981118
0
LINE
8
0
10
2.58897026
20
-13.5981118
11
2.468148
21
-13.270473
0
LINE
8
0
10
2.468148
20
-13.270473
11
2.42220937
21
-12.8941001
0
LINE
8
0
10
2.42220937
20
-12.8941001
11
2.4
21
-12.6900876
0
LINE
8
0
10
2.4
20
-12.6900876
11
2.4
21
-10.948561
0
LINE
8
0
10
2.4
20
-10.948561
11
2.4
21
-10.8016144
0
LINE
8
0
10
2.4
20
-10.8016144
11
2.4
21
-9.01826039
0
LINE
8
0
10
2.4
20
-9.01826039
11
2.4
21
-7.70399011
0
LINE
8
0
10
2.4
20
-7.70399011
11
2.4
21
-7.39686634
0
LINE
8
0
10
2.4
20
-7.39686634
11
2.4
21
-6.35205755
0
LINE
8
0
10
2.4
20
-6.35205755
11
2.4
21
-5.4839627
0
LINE
8
0
10
2.4
20
-5.4839627
11
2.4
21
-5.12673127
0
LINE
8
0
10
2.4
20
-5.12673127
11
2.4
21
-4.38241464
0
LINE
8
0
10
2.4
20
-4.38241464
11
2.4
21
-3.99239302
0
LINE
8
0
10
2.4
20
-3.99239302
11
2.4
21
-3.32789211
0
LINE
8
0
10
2.4
20
-3.32789211
11
2.4
21
-2.7046563
0
LINE
8
0
10
2.4
20
-2.7046563
11
2.4
21
-2.30391284
0
LINE
8
0
10
2.4
20
-2.30391284
11
2.4
21
-1.70108713
0
LINE
8
0
10
2.4
20
-1.70108713
11
2.4
21
-1.29840819
0
LINE
8
0
10
2.4
20
-1.29840819
11
2.4
21
-0.932429329
0
LINE
8
0
10
2.4
20
-0.932429329
11
2.4
21
-0.639141565
0
LINE
8
0
10
2.4
20
-0.639141565
11
2.4
21
2.6983793
0
LINE
8
0
10
2.4
20
2.6983793
11
2.4
21
6.5789502
0
LINE
8
0
10
2.4
20
6.5789502
11
2.4
21
11.3899865
0
LINE
8
0
10
2.4
20
11.3899865
11
2.4
21
16.2037815
0
LINE
8
0
10
2.4
20
16.2037815
11
8.68781217
21
16.2037815
0
LINE
8
0
10
8.68781217
20
16.2037815
11
16
21
16.2037815
0
LINE
8
0
10
16
20
16.2037815
11
16
21
11.3899865
0
LINE
8
0
10
16
20
11.3899865
11
16
21
-0.0773680716
0
LINE
8
0
10
16
20
-0.0773680716
11
16
21
-0.863478228
0
LINE
8
0
10
16
20
-0.863478228
11
16
21
-1.73654852
0
LINE
8
0
10
16
20
-1.73654852
11
16
21
-1.96330903
0
LINE
8
0
10
16
20
-1.96330903
11
16
21
-2.20205628
0
LINE
8
0
10
16
20
-2.20205628
11
16
21
-2.46982643
0
LINE
8
0
10
16
20
-2.46982643
11
16
21
-2.7919169
0
LINE
8
0
10
16
20
-2.7919169
11
16
21
-3.2126885
0
LINE
8
0
10
16
20
-3.2126885
11
16
21
-4.09390386
0
LINE
8
0
10
16
20
-4.09390386
11
16
21
-4.68323906
0
LINE
8
0
10
16
20
-4.68323906
11
16
21
-5.66494497
0
LINE
8
0
10
16
20
-5.66494497
11
16
21
-6.65625685
0
LINE
8
0
10
16
20
-6.65625685
11
16
21
-8.66048033
0
LINE
8
0
10
16
20
-8.66048033
11
16
21
-8.66048033
0
LINE
8
0
10
16
20
35.2563435
11
16
21
27.1359612
0
LINE
8
0
10
16
20
27.1359612
11
16
21
24.8640388
0
LINE
8
0
10
16
20
24.8640388
11
16
21
20.2077585
0
LINE
8
0
10
16
20
20.2077585
11
9.71218783
21
20.2077585
0
LINE
8
0
10
9.71218783
20
20.2077585
11
2.4
21
20.2077585
0
LINE
8
0
10
2.4
20
20.2077585
11
2.4
21
22.2772164
0
LINE
8
0
10
2.4
20
22.2772164
11
2.4
21
24.8640388
0
LINE
8
0
10
2.4
20
24.8640388
11
2.4
21
26.2271922
0
LINE
8
0
10
2.4
20
26.2271922
11
2.4
21
27.1359612
0
LINE
8
0
10
2.4
20
27.1359612
11
2.4
21
30.8270441
0
LINE
8
0
10
2.4
20
30.8270441
11
2.4
21
35.2563435
0
LINE
8
0
10
2.4
20
35.2563435
11
3.24781217
21
35.2563435
0
LINE
8
0
10
3.24781217
20
35.2563435
11
16
21
35.2563435
0
LINE
8
0
10
16
20
35.2563435
11
16
21
35.2563435
0
ENDSEC
0
EOF
