0
SECTION
2
ENTITIES
0
LINE
8
0
10
16
20
-9.42067305
11
16
21
-7.10043408
0
LINE
8
0
10
16
20
-7.10043408
11
16
21
-6.20765002
0
LINE
8
0
10
16
20
-6.20765002
11
16
21
-5.03717958
0
LINE
8
0
10
16
20
-5.03717958
11
16
21
-4.33452573
0
LINE
8
0
10
16
20
-4.33452573
11
16
21
-3.49870444
0
LINE
8
0
10
16
20
-3.49870444
11
16
21
-2.99186577
0
LINE
8
0
10
16
20
-2.99186577
11
16
21
-2.60389303
0
LINE
8
0
10
16
20
-2.60389303
11
16
21
-2.2813516
0
LINE
8
0
10
16
20
-2.2813516
11
16
21
-1.99376959
0
LINE
8
0
10
16
20
-1.99376959
11
16
21
-1.72062616
0
LINE
8
0
10
16
20
-1.72062616
11
16
21
-0.876861977
0
LINE
8
0
10
16
20
-0.876861977
11
16
21
-0.117138959
0
LINE
8
0
10
16
20
-0.117138959
11
16
21
10.9652942
0
LINE
8
0
10
16
20
10.9652942
11
16
21
16.6015617
0
LINE
8
0
10
16
20
16.6015617
11
7.43847056
21
16.6015617
0
LINE
8
0
10
7.43847056
20
16.6015617
11
2.4
21
16.6015617
0
LINE
8
0
10
2.4
20
16.6015617
11
2.4
21
10.9652942
0
LINE
8
0
10
2.4
20
10.9652942
11
2.4
21
6.31574855
0
LINE
8
0
10
2.4
20
6.31574855
11
2.4
21
2.56543568
0
LINE
8
0
10
2.4
20
2.56543568
11
2.4
21
-0.660055559
0
LINE
8
0
10
2.4
20
-0.660055559
11
2.4
21
-0.943498615
0
LINE
8
0
10
2.4
20
-0.943498615
11
2.4
21
-1.29719277
0
LINE
8
0
10
2.4
20
-1.29719277
11
2.4
21
-1.68635509
0
LINE
8
0
10
2.4
20
-1.68635509
11
2.4
21
-2.32277383
0
LINE
8
0
10
2.4
20
-2.32277383
11
2.4
21
-2.7098696
0
LINE
8
0
10
2.4
20
-2.7098696
11
2.4
21
-3.36710221
0
LINE
8
0
10
2.4
20
-3.36710221
11
2.4
21
-4.06785087
0
LINE
8
0
10
2.4
20
-4.06785087
11
2.4
21
-4.44285924
0
LINE
8
0
10
2.4
20
-4.44285924
11
2.4
21
-5.22548631
0
LINE
8
0
10
2.4
20
-5.22548631
11
2.4
21
-5.56723487
0
LINE
8
0
10
2.4
20
-5.56723487
11
2.4
21
-6.47635507
0
LINE
8
0
10
2.4
20
-6.47635507
11
2.4
21
-7.57054055
0
LINE
8
0
10
2.4
20
-7.57054055
11
2.4
21
-7.85726209
0
LINE
8
0
10
2.4
20
-7.85726209
11
2.4
21
-9.22767492
0
LINE
8
0
10
2.4
20
-9.22767492
11
2.4
21
-11.0872097
0
LINE
8
0
10
2.4
20
-11.0872097
11
2.4
21
-11.2015845
0
LINE
8
0
10
2.4
20
-11.2015845
11
2.4
21
-12.5570895
0
LINE
8
0
10
2.4
20
-12.5570895
11
2.43689816
21
-12.8960313
0
LINE
8
0
10
2.43689816
20
-12.8960313
11
2.468148
21
-13.1520597
0
LINE
8
0
10
2.468148
20
-13.1520597
11
2.55033757
21
-13.3749366
0
LINE
8
0
10
2.55033757
20
-13.3749366
11
2.667949
21
-13.6938688
0
LINE
8
0
10
2.667949
20
-13.6938688
11
2.8523884
21
-13.9638523
0
LINE
8
0
10
2.8523884
20
-13.9638523
11
2.985786
21
-14.159121
0
LINE
8
0
10
2.985786
20
-14.159121
11
3.27641677
21
-14.4096152
0
LINE
8
0
10
3.27641677
20
-14.4096152
11
3.4
21
-14.5161294
0
LINE
8
0
10
3.4
20
-14.5161294
11
3.77400885
21
-14.6901357
0
LINE
8
0
10
3.77400885
20
-14.6901357
11
3.882362
21
-14.7405485
0
LINE
8
0
10
3.882362
20
-14.7405485
11
4.2990024
21
-14.8021603
0
LINE
8
0
10
4.2990024
20
-14.8021603
11
4.4
21
-14.8170954
0
LINE
8
0
10
4.4
20
-14.8170954
11
12.169213
21
-14.8170954
0
LINE
8
0
10
12.169213
20
-14.8170954
11
14
21
-14.8170954
0
LINE
8
0
10
14
20
-14.8170954
11
14.4115017
21
-14.7562437
0
LINE
8
0
10
14.4115017
20
-14.7562437
11
14.51764
21
-14.7405485
0
LINE
8
0
10
14.51764
20
-14.7405485
11
14.8796271
21
-14.572135
0
LINE
8
0
10
14.8796271
20
-14.572135
11
15
21
-14.5161294
0
LINE
8
0
10
15
20
-14.5161294
11
15.2799061
21
-14.274876
0
LINE
8
0
10
15.2799061
20
-14.274876
11
15.41421
21
-14.159121
0
LINE
8
0
10
15.41421
20
-14.159121
11
15.5968658
21
-13.8917511
0
LINE
8
0
10
15.5968658
20
-13.8917511
11
15.73205
21
-13.6938688
0
LINE
8
0
10
15.73205
20
-13.6938688
11
15.8220656
21
-13.4497686
0
LINE
8
0
10
15.8220656
20
-13.4497686
11
15.93185
21
-13.1520597
0
LINE
8
0
10
15.93185
20
-13.1520597
11
15.9631008
21
-12.8960313
0
LINE
8
0
10
15.9631008
20
-12.8960313
11
16
21
-12.5570895
0
LINE
8
0
10
16
20
-12.5570895
11
16
21
-10.0793935
0
LINE
8
0
10
16
20
-10.0793935
11
16
21
-9.42067305
0
LINE
8
0
10
16
20
-9.42067305
11
16
21
-9.42067305
0
LINE
8
0
10
16
20
34.1199999
11
16
21
35.3984364
0
LINE
8
0
10
16
20
35.3984364
11
16
21
35.752301
0
LINE
8
0
10
16
20
35.752301
11
16
21
44.3796565
0
LINE
8
0
10
16
20
44.3796565
11
16
21
55.9881042
0
LINE
8
0
10
16
20
55.9881042
11
16
21
56.6854792
0
LINE
8
0
10
16
20
56.6854792
11
16
21
57.4407199
0
LINE
8
0
10
16
20
57.4407199
11
16
21
57.8051449
0
LINE
8
0
10
16
20
57.8051449
11
16
21
58.1790199
0
LINE
8
0
10
16
20
58.1790199
11
16
21
58.5843407
0
LINE
8
0
10
16
20
58.5843407
11
16
21
59.0514125
0
LINE
8
0
10
16
20
59.0514125
11
16
21
59.6292473
0
LINE
8
0
10
16
20
59.6292473
11
16
21
60.4098749
0
LINE
8
0
10
16
20
60.4098749
11
16
21
61.0633322
0
LINE
8
0
10
16
20
61.0633322
11
16
21
62.166676
0
LINE
8
0
10
16
20
62.166676
11
16
21
64.1525478
0
LINE
8
0
10
16
20
64.1525478
11
16
21
64.6340337
0
LINE
8
0
10
16
20
64.6340337
11
16
21
67.3015169
0
LINE
8
0
10
16
20
67.3015169
11
15.9794789
21
67.4912912
0
LINE
8
0
10
15.9794789
20
67.4912912
11
15.93185
21
67.8900683
0
LINE
8
0
10
15.93185
20
67.8900683
11
15.7880932
21
68.2859824
0
LINE
8
0
10
15.7880932
20
68.2859824
11
15.73205
21
68.4403292
0
LINE
8
0
10
15.73205
20
68.4403292
11
15.4497954
21
68.8599519
0
LINE
8
0
10
15.4497954
20
68.8599519
11
15.41421
21
68.9128547
0
LINE
8
0
10
15.41421
20
68.9128547
11
15.0125829
21
69.2644209
0
LINE
8
0
10
15.0125829
20
69.2644209
11
15
21
69.2748553
0
LINE
8
0
10
15
20
69.2748553
11
14.9986162
21
69.2754748
0
LINE
8
0
10
14.9986162
20
69.2754748
11
14.51764
21
69.4907739
0
LINE
8
0
10
14.51764
20
69.4907739
11
14.4867821
21
69.4951641
0
LINE
8
0
10
14.4867821
20
69.4951641
11
14
21
69.564422
0
LINE
8
0
10
14
20
69.564422
11
13.2559443
21
69.564422
0
LINE
8
0
10
13.2559443
20
69.564422
11
4.4
21
69.564422
0
LINE
8
0
10
4.4
20
69.564422
11
4.36045287
21
69.5587957
0
LINE
8
0
10
4.36045287
20
69.5587957
11
3.882362
21
69.4907739
0
LINE
8
0
10
3.882362
20
69.4907739
11
3.85518482
21
69.4786084
0
LINE
8
0
10
3.85518482
20
69.4786084
11
3.4
21
69.2748553
0
LINE
8
0
10
3.4
20
69.2748553
11
3.39893623
21
69.2739732
0
LINE
8
0
10
3.39893623
20
69.2739732
11
3.38741697
21
69.2644209
0
LINE
8
0
10
3.38741697
20
69.2644209
11
3.02075751
21
68.9434667
0
LINE
8
0
10
3.02075751
20
68.9434667
11
2.985786
21
68.9128547
0
LINE
8
0
10
2.985786
20
68.9128547
11
2.73043011
21
68.5332168
0
LINE
8
0
10
2.73043011
20
68.5332168
11
2.667949
21
68.4403292
0
LINE
8
0
10
2.667949
20
68.4403292
11
2.5341099
21
68.0717313
0
LINE
8
0
10
2.5341099
20
68.0717313
11
2.468148
21
67.8900683
0
LINE
8
0
10
2.468148
20
67.8900683
11
2.42052049
21
67.4912912
0
LINE
8
0
10
2.42052049
20
67.4912912
11
2.4
21
67.3015169
0
LINE
8
0
10
2.4
20
67.3015169
11
2.4
21
65.7192307
0
LINE
8
0
10
2.4
20
65.7192307
11
2.4
21
64.1590213
0
LINE
8
0
10
2.4
20
64.1590213
11
2.4
21
63.9265257
0
LINE
8
0
10
2.4
20
63.9265257
11
2.4
21
62.7158266
0
LINE
8
0
10
2.4
20
62.7158266
11
2.4
21
61.7487153
0
LINE
8
0
10
2.4
20
61.7487153
11
2.4
21
61.4283446
0
LINE
8
0
10
2.4
20
61.4283446
11
2.4
21
60.6105481
0
LINE
8
0
10
2.4
20
60.6105481
11
2.4
21
60.2500002
0
LINE
8
0
10
2.4
20
60.2500002
11
2.4
21
59.5297296
0
LINE
8
0
10
2.4
20
59.5297296
11
2.4
21
58.8703338
0
LINE
8
0
10
2.4
20
58.8703338
11
2.4
21
58.4872825
0
LINE
8
0
10
2.4
20
58.4872825
11
2.4
21
57.8578422
0
LINE
8
0
10
2.4
20
57.8578422
11
2.4
21
57.4705599
0
LINE
8
0
10
2.4
20
57.4705599
11
2.4
21
56.8408753
0
LINE
8
0
10
2.4
20
56.8408753
11
2.4
21
56.4693904
0
LINE
8
0
10
2.4
20
56.4693904
11
2.4
21
56.1606976
0
LINE
8
0
10
2.4
20
56.1606976
11
2.4
21
55.9387807
0
LINE
8
0
10
2.4
20
55.9387807
11
2.4
21
53.0206382
0
LINE
8
0
10
2.4
20
53.0206382
11
2.4
21
50.0598599
0
LINE
8
0
10
2.4
20
50.0598599
11
2.4
21
44.3796565
0
LINE
8
0
10
2.4
20
44.3796565
11
2.4
21
35.752301
0
LINE
8
0
10
2.4
20
35.752301
11
2.4
21
35.3984364
0
LINE
8
0
10
2.4
20
35.3984364
11
2.4
21
30.7908825
0
LINE
8
0
10
2.4
20
30.7908825
11
2.4
21
26.7381814
0
LINE
8
0
10
2.4
20
26.7381814
11
2.4
21
26.1476363
0
LINE
8
0
10
2.4
20
26.1476363
11
2.4
21
25.2618186
0
LINE
8
0
10
2.4
20
25.2618186
11
2.4
21
22.2330184
0
LINE
8
0
10
2.4
20
22.2330184
11
2.4
21
19.8099783
0
LINE
8
0
10
2.4
20
19.8099783
11
10.9615294
21
19.8099783
0
LINE
8
0
10
10.9615294
20
19.8099783
11
16
21
19.8099783
0
LINE
8
0
10
16
20
19.8099783
11
16
21
25.2618186
0
LINE
8
0
10
16
20
25.2618186
11
16
21
26.7381814
0
LINE
8
0
10
16
20
26.7381814
11
16
21
34.1199999
0
LINE
8
0
10
16
20
34.1199999
11
16
21
34.1199999
0
ENDSEC
0
EOF
