0
SECTION
2
ENTITIES
0
LINE
8
0
10
16
20
58.2476902
11
16
21
58.7456534
0
LINE
8
0
10
16
20
58.7456534
11
16
21
59.3194819
0
LINE
8
0
10
16
20
59.3194819
11
16
21
60.02939
0
LINE
8
0
10
16
20
60.02939
11
16
21
60.9884423
0
LINE
8
0
10
16
20
60.9884423
11
16
21
61.5521122
0
LINE
8
0
10
16
20
61.5521122
11
16
21
62.8998377
0
LINE
8
0
10
16
20
62.8998377
11
16
21
65.325564
0
LINE
8
0
10
16
20
65.325564
11
16
21
65.5852365
0
LINE
8
0
10
16
20
65.5852365
11
16
21
67.0238495
0
LINE
8
0
10
16
20
67.0238495
11
15.9522693
21
67.4652514
0
LINE
8
0
10
15.9522693
20
67.4652514
11
15.93185
21
67.6362141
0
LINE
8
0
10
15.93185
20
67.6362141
11
15.870219
21
67.8059492
0
LINE
8
0
10
15.870219
20
67.8059492
11
15.73205
21
68.1864762
0
LINE
8
0
10
15.73205
20
68.1864762
11
15.5720276
21
68.4243785
0
LINE
8
0
10
15.5720276
20
68.4243785
11
15.41421
21
68.6589972
0
LINE
8
0
10
15.41421
20
68.6589972
11
15.1476467
21
68.8923347
0
LINE
8
0
10
15.1476467
20
68.8923347
11
15
21
69.0215774
0
LINE
8
0
10
15
20
69.0215774
11
14.6483901
21
69.1877184
0
LINE
8
0
10
14.6483901
20
69.1877184
11
14.51764
21
69.2495018
0
LINE
8
0
10
14.51764
20
69.2495018
11
14.1221561
21
69.3088983
0
LINE
8
0
10
14.1221561
20
69.3088983
11
14
21
69.327244
0
LINE
8
0
10
14
20
69.327244
11
6.60967407
21
69.327244
0
LINE
8
0
10
6.60967407
20
69.327244
11
4.4
21
69.327244
0
LINE
8
0
10
4.4
20
69.327244
11
4.00935523
21
69.268574
0
LINE
8
0
10
4.00935523
20
69.268574
11
3.882362
21
69.2495018
0
LINE
8
0
10
3.882362
20
69.2495018
11
3.54143364
21
69.0884091
0
LINE
8
0
10
3.54143364
20
69.0884091
11
3.4
21
69.0215774
0
LINE
8
0
10
3.4
20
69.0215774
11
3.14088116
21
68.7947585
0
LINE
8
0
10
3.14088116
20
68.7947585
11
2.985786
21
68.6589972
0
LINE
8
0
10
2.985786
20
68.6589972
11
2.82199012
21
68.4154817
0
LINE
8
0
10
2.82199012
20
68.4154817
11
2.667949
21
68.1864762
0
LINE
8
0
10
2.667949
20
68.1864762
11
2.59206979
21
67.977502
0
LINE
8
0
10
2.59206979
20
67.977502
11
2.468148
21
67.6362141
0
LINE
8
0
10
2.468148
20
67.6362141
11
2.44772927
21
67.4652514
0
LINE
8
0
10
2.44772927
20
67.4652514
11
2.4
21
67.0238495
0
LINE
8
0
10
2.4
20
67.0238495
11
2.4
21
66.1704992
0
LINE
8
0
10
2.4
20
66.1704992
11
2.4
21
64.4823273
0
LINE
8
0
10
2.4
20
64.4823273
11
2.4
21
64.2976595
0
LINE
8
0
10
2.4
20
64.2976595
11
2.4
21
62.9775479
0
LINE
8
0
10
2.4
20
62.9775479
11
2.4
21
61.9230375
0
LINE
8
0
10
2.4
20
61.9230375
11
2.4
21
61.636801
0
LINE
8
0
10
2.4
20
61.636801
11
2.4
21
60.7388321
0
LINE
8
0
10
2.4
20
60.7388321
11
2.4
21
60.4106094
0
LINE
8
0
10
2.4
20
60.4106094
11
2.4
21
59.6157514
0
LINE
8
0
10
2.4
20
59.6157514
11
2.4
21
58.888072
0
LINE
8
0
10
2.4
20
58.888072
11
2.4
21
58.5332417
0
LINE
8
0
10
2.4
20
58.5332417
11
2.4
21
57.8373436
0
LINE
8
0
10
2.4
20
57.8373436
11
2.4
21
57.4773551
0
LINE
8
0
10
2.4
20
57.4773551
11
2.4
21
56.7824637
0
LINE
8
0
10
2.4
20
56.7824637
11
2.4
21
56.4367841
0
LINE
8
0
10
2.4
20
56.4367841
11
2.4
21
56.1495347
0
LINE
8
0
10
2.4
20
56.1495347
11
2.4
21
55.9430333
0
LINE
8
0
10
2.4
20
55.9430333
11
2.4
21
53.2276
0
LINE
8
0
10
2.4
20
53.2276
11
2.4
21
50.4724927
0
LINE
8
0
10
2.4
20
50.4724927
11
2.4
21
45.1868655
0
LINE
8
0
10
2.4
20
45.1868655
11
2.4
21
37.1588106
0
LINE
8
0
10
2.4
20
37.1588106
11
2.4
21
34.6028768
0
LINE
8
0
10
2.4
20
34.6028768
11
2.4
21
30.7185593
0
LINE
8
0
10
2.4
20
30.7185593
11
2.4
21
26.0573783
0
LINE
8
0
10
2.4
20
26.0573783
11
2.58021267
21
26.0573783
0
LINE
8
0
10
2.58021267
20
26.0573783
11
16
21
26.0573783
0
LINE
8
0
10
16
20
26.0573783
11
16
21
34.6028768
0
LINE
8
0
10
16
20
34.6028768
11
16
21
37.1588106
0
LINE
8
0
10
16
20
37.1588106
11
16
21
45.1868655
0
LINE
8
0
10
16
20
45.1868655
11
16
21
55.9889305
0
LINE
8
0
10
16
20
55.9889305
11
16
21
56.6378623
0
LINE
8
0
10
16
20
56.6378623
11
16
21
57.3406401
0
LINE
8
0
10
16
20
57.3406401
11
16
21
57.7883601
0
LINE
8
0
10
16
20
57.7883601
11
16
21
58.2476902
0
LINE
8
0
10
16
20
58.2476902
11
16
21
58.2476902
0
LINE
8
0
10
16
20
-0.903629473
11
16
21
-0.196680733
0
LINE
8
0
10
16
20
-0.196680733
11
16
21
10.1159095
0
LINE
8
0
10
16
20
10.1159095
11
16
21
17.3971223
0
LINE
8
0
10
16
20
17.3971223
11
4.93978733
21
17.3971223
0
LINE
8
0
10
4.93978733
20
17.3971223
11
2.4
21
17.3971223
0
LINE
8
0
10
2.4
20
17.3971223
11
2.4
21
10.1159095
0
LINE
8
0
10
2.4
20
10.1159095
11
2.4
21
5.78934524
0
LINE
8
0
10
2.4
20
5.78934524
11
2.4
21
2.29954844
0
LINE
8
0
10
2.4
20
2.29954844
11
2.4
21
-0.701883547
0
LINE
8
0
10
2.4
20
-0.701883547
11
2.4
21
-0.965637187
0
LINE
8
0
10
2.4
20
-0.965637187
11
2.4
21
-1.29476192
0
LINE
8
0
10
2.4
20
-1.29476192
11
2.4
21
-1.65689102
0
LINE
8
0
10
2.4
20
-1.65689102
11
2.4
21
-2.36049581
0
LINE
8
0
10
2.4
20
-2.36049581
11
2.4
21
-2.72029621
0
LINE
8
0
10
2.4
20
-2.72029621
11
2.4
21
-3.4455224
0
LINE
8
0
10
2.4
20
-3.4455224
11
2.4
21
-4.21876658
0
LINE
8
0
10
2.4
20
-4.21876658
11
2.4
21
-4.56374844
0
LINE
8
0
10
2.4
20
-4.56374844
11
2.4
21
-5.42299637
0
LINE
8
0
10
2.4
20
-5.42299637
11
2.4
21
-5.7337792
0
LINE
8
0
10
2.4
20
-5.7337792
11
2.4
21
-6.72495012
0
LINE
8
0
10
2.4
20
-6.72495012
11
2.4
21
-7.91788898
0
LINE
8
0
10
2.4
20
-7.91788898
11
2.4
21
-8.16380604
0
LINE
8
0
10
2.4
20
-8.16380604
11
2.4
21
-9.64650399
0
LINE
8
0
10
2.4
20
-9.64650399
11
2.4
21
-11.6584002
0
LINE
8
0
10
2.4
20
-11.6584002
11
2.4
21
-11.7076315
0
LINE
8
0
10
2.4
20
-11.7076315
11
2.4
21
-12.2910932
0
LINE
8
0
10
2.4
20
-12.2910932
11
2.46627574
21
-12.8998938
0
LINE
8
0
10
2.46627574
20
-12.8998938
11
2.468148
21
-12.9152332
0
LINE
8
0
10
2.468148
20
-12.9152332
11
2.47307219
21
-12.9285863
0
LINE
8
0
10
2.47307219
20
-12.9285863
11
2.667949
21
-13.4570425
0
LINE
8
0
10
2.667949
20
-13.4570425
11
2.73696655
21
-13.5580708
0
LINE
8
0
10
2.73696655
20
-13.5580708
11
2.985786
21
-13.9222952
0
LINE
8
0
10
2.985786
20
-13.9222952
11
3.1351079
21
-14.0509955
0
LINE
8
0
10
3.1351079
20
-14.0509955
11
3.4
21
-14.2793013
0
LINE
8
0
10
3.4
20
-14.2793013
11
3.61873514
21
-14.3810671
0
LINE
8
0
10
3.61873514
20
-14.3810671
11
3.882362
21
-14.5037233
0
LINE
8
0
10
3.882362
20
-14.5037233
11
4.14058352
21
-14.5419085
0
LINE
8
0
10
4.14058352
20
-14.5419085
11
4.4
21
-14.5802698
0
LINE
8
0
10
4.4
20
-14.5802698
11
9.29754845
21
-14.5802698
0
LINE
8
0
10
9.29754845
20
-14.5802698
11
14
21
-14.5802698
0
LINE
8
0
10
14
20
-14.5802698
11
14.259402
21
-14.5419102
0
LINE
8
0
10
14.259402
20
-14.5419102
11
14.51764
21
-14.5037233
0
LINE
8
0
10
14.51764
20
-14.5037233
11
14.741989
21
-14.3993455
0
LINE
8
0
10
14.741989
20
-14.3993455
11
15
21
-14.2793013
0
LINE
8
0
10
15
20
-14.2793013
11
15.1637002
21
-14.1382068
0
LINE
8
0
10
15.1637002
20
-14.1382068
11
15.41421
21
-13.9222952
0
LINE
8
0
10
15.41421
20
-13.9222952
11
15.5080559
21
-13.7849244
0
LINE
8
0
10
15.5080559
20
-13.7849244
11
15.73205
21
-13.4570425
0
LINE
8
0
10
15.73205
20
-13.4570425
11
15.765734
21
-13.3656997
0
LINE
8
0
10
15.765734
20
-13.3656997
11
15.93185
21
-12.9152332
0
LINE
8
0
10
15.93185
20
-12.9152332
11
15.9337223
21
-12.8998938
0
LINE
8
0
10
15.9337223
20
-12.8998938
11
16
21
-12.2910932
0
LINE
8
0
10
16
20
-12.2910932
11
16
21
-11.2245972
0
LINE
8
0
10
16
20
-11.2245972
11
16
21
-10.9410585
0
LINE
8
0
10
16
20
-10.9410585
11
16
21
-7.98878855
0
LINE
8
0
10
16
20
-7.98878855
11
16
21
-7.29306012
0
LINE
8
0
10
16
20
-7.29306012
11
16
21
-5.74506061
0
LINE
8
0
10
16
20
-5.74506061
11
16
21
-4.81576947
0
LINE
8
0
10
16
20
-4.81576947
11
16
21
-4.07073633
0
LINE
8
0
10
16
20
-4.07073633
11
16
21
-3.39176349
0
LINE
8
0
10
16
20
-3.39176349
11
16
21
-2.87202622
0
LINE
8
0
10
16
20
-2.87202622
11
16
21
-2.43994225
0
LINE
8
0
10
16
20
-2.43994225
11
16
21
-2.05469072
0
LINE
8
0
10
16
20
-2.05469072
11
16
21
-1.68878144
0
LINE
8
0
10
16
20
-1.68878144
11
16
21
-0.903629473
0
LINE
8
0
10
16
20
-0.903629473
11
16
21
-0.903629473
0
LINE
8
0
10
16
20
19.0144177
11
16
21
25.483596
0
LINE
8
0
10
16
20
25.483596
11
16
21
25.9426217
0
LINE
8
0
10
16
20
25.9426217
11
15.8197873
21
25.9426217
0
LINE
8
0
10
15.8197873
20
25.9426217
11
2.4
21
25.9426217
0
LINE
8
0
10
2.4
20
25.9426217
11
2.4
21
22.1446224
0
LINE
8
0
10
2.4
20
22.1446224
11
2.4
21
19.0144177
0
LINE
8
0
10
2.4
20
19.0144177
11
13.4602127
21
19.0144177
0
LINE
8
0
10
13.4602127
20
19.0144177
11
16
21
19.0144177
0
LINE
8
0
10
16
20
19.0144177
11
16
21
19.0144177
0
ENDSEC
0
EOF
