0
SECTION
2
ENTITIES
0
LINE
8
0
10
16
20
-2.75712354
11
16
21
-3.4082926
0
LINE
8
0
10
16
20
-3.4082926
11
16
21
-4.19155895
0
LINE
8
0
10
16
20
-4.19155895
11
16
21
-5.21480011
0
LINE
8
0
10
16
20
-5.21480011
11
16
21
-5.77825694
0
LINE
8
0
10
16
20
-5.77825694
11
16
21
-7.16082267
0
LINE
8
0
10
16
20
-7.16082267
11
16
21
-9.46388032
0
LINE
8
0
10
16
20
-9.46388032
11
16
21
-9.76549748
0
LINE
8
0
10
16
20
-9.76549748
11
16
21
-11.6574337
0
LINE
8
0
10
16
20
-11.6574337
11
15.9600402
21
-12.0561965
0
LINE
8
0
10
15.9600402
20
-12.0561965
11
15.93185
21
-12.3030034
0
LINE
8
0
10
15.93185
20
-12.3030034
11
15.8196721
21
-12.6286672
0
LINE
8
0
10
15.8196721
20
-12.6286672
11
15.73205
21
-12.883045
0
LINE
8
0
10
15.73205
20
-12.883045
11
15.6032352
21
-13.0849097
0
LINE
8
0
10
15.6032352
20
-13.0849097
11
15.41421
21
-13.3811305
0
LINE
8
0
10
15.41421
20
-13.3811305
11
15.2999258
21
-13.4865823
0
LINE
8
0
10
15.2999258
20
-13.4865823
11
15
21
-13.763327
0
LINE
8
0
10
15
20
-13.763327
11
14.9143425
21
-13.805992
0
LINE
8
0
10
14.9143425
20
-13.805992
11
14.51764
21
-14.00359
0
LINE
8
0
10
14.51764
20
-14.00359
11
14.457751
21
-14.0130712
0
LINE
8
0
10
14.457751
20
-14.0130712
11
14
21
-14.0855385
0
LINE
8
0
10
14
20
-14.0855385
11
13.0945245
21
-14.0855385
0
LINE
8
0
10
13.0945245
20
-14.0855385
11
4.4
21
-14.0855385
0
LINE
8
0
10
4.4
20
-14.0855385
11
4.34973295
21
-14.0775806
0
LINE
8
0
10
4.34973295
20
-14.0775806
11
3.882362
21
-14.00359
0
LINE
8
0
10
3.882362
20
-14.00359
11
3.81964082
21
-13.9723494
0
LINE
8
0
10
3.81964082
20
-13.9723494
11
3.4
21
-13.763327
0
LINE
8
0
10
3.4
20
-13.763327
11
3.30753034
21
-13.6780048
0
LINE
8
0
10
3.30753034
20
-13.6780048
11
2.985786
21
-13.3811305
0
LINE
8
0
10
2.985786
20
-13.3811305
11
2.86369769
21
-13.189805
0
LINE
8
0
10
2.86369769
20
-13.189805
11
2.667949
21
-12.883045
0
LINE
8
0
10
2.667949
20
-12.883045
11
2.54507568
21
-12.5263327
0
LINE
8
0
10
2.54507568
20
-12.5263327
11
2.468148
21
-12.3030034
0
LINE
8
0
10
2.468148
20
-12.3030034
11
2.43995868
21
-12.0561965
0
LINE
8
0
10
2.43995868
20
-12.0561965
11
2.4
21
-11.6574337
0
LINE
8
0
10
2.4
20
-11.6574337
11
2.4
21
-10.4841621
0
LINE
8
0
10
2.4
20
-10.4841621
11
2.4
21
-8.77689394
0
LINE
8
0
10
2.4
20
-8.77689394
11
2.4
21
-8.61258583
0
LINE
8
0
10
2.4
20
-8.61258583
11
2.4
21
-7.2221402
0
LINE
8
0
10
2.4
20
-7.2221402
11
2.4
21
-6.06686787
0
LINE
8
0
10
2.4
20
-6.06686787
11
2.4
21
-5.8180165
0
LINE
8
0
10
2.4
20
-5.8180165
11
2.4
21
-4.80552684
0
LINE
8
0
10
2.4
20
-4.80552684
11
2.4
21
-4.52059798
0
LINE
8
0
10
2.4
20
-4.52059798
11
2.4
21
-3.60236279
0
LINE
8
0
10
2.4
20
-3.60236279
11
2.4
21
-2.74114942
0
LINE
8
0
10
2.4
20
-2.74114942
11
2.4
21
-2.43593977
0
LINE
8
0
10
2.4
20
-2.43593977
11
2.4
21
-1.59796288
0
LINE
8
0
10
2.4
20
-1.59796288
11
2.4
21
-1.28990023
0
LINE
8
0
10
2.4
20
-1.28990023
11
2.4
21
-1.00991433
0
LINE
8
0
10
2.4
20
-1.00991433
11
2.4
21
-0.785539523
0
LINE
8
0
10
2.4
20
-0.785539523
11
2.4
21
1.76777396
0
LINE
8
0
10
2.4
20
1.76777396
11
2.4
21
4.73653863
0
LINE
8
0
10
2.4
20
4.73653863
11
2.4
21
8.41714002
0
LINE
8
0
10
2.4
20
8.41714002
11
2.4
21
16.6590119
0
LINE
8
0
10
2.4
20
16.6590119
11
2.4
21
18.9882424
0
LINE
8
0
10
2.4
20
18.9882424
11
2.4
21
21.9678303
0
LINE
8
0
10
2.4
20
21.9678303
11
2.4
21
24.3515007
0
LINE
8
0
10
2.4
20
24.3515007
11
10.8224209
21
24.3515007
0
LINE
8
0
10
10.8224209
20
24.3515007
11
16
21
24.3515007
0
LINE
8
0
10
16
20
24.3515007
11
16
21
18.9882424
0
LINE
8
0
10
16
20
18.9882424
11
16
21
16.6590119
0
LINE
8
0
10
16
20
16.6590119
11
16
21
8.41714002
0
LINE
8
0
10
16
20
8.41714002
11
16
21
-0.355764281
0
LINE
8
0
10
16
20
-0.355764281
11
16
21
-0.957164466
0
LINE
8
0
10
16
20
-0.957164466
11
16
21
-1.62509202
0
LINE
8
0
10
16
20
-1.62509202
11
16
21
-2.17653298
0
LINE
8
0
10
16
20
-2.17653298
11
16
21
-2.75712354
0
LINE
8
0
10
16
20
-2.75712354
11
16
21
-2.75712354
0
LINE
8
0
10
16
20
64.3661612
11
16
21
66.400357
0
LINE
8
0
10
16
20
66.400357
11
15.9751169
21
66.6512256
0
LINE
8
0
10
15.9751169
20
66.6512256
11
15.93185
21
67.0384793
0
LINE
8
0
10
15.93185
20
67.0384793
11
15.796765
21
67.437729
0
LINE
8
0
10
15.796765
20
67.437729
11
15.73205
21
67.6289958
0
LINE
8
0
10
15.73205
20
67.6289958
11
15.4432765
21
68.0897041
0
LINE
8
0
10
15.4432765
20
68.0897041
11
15.41421
21
68.1360778
0
LINE
8
0
10
15.41421
20
68.1360778
11
15.1767536
21
68.3591399
0
LINE
8
0
10
15.1767536
20
68.3591399
11
15
21
68.5138614
0
LINE
8
0
10
15
20
68.5138614
11
14.9743924
21
68.5259614
0
LINE
8
0
10
14.9743924
20
68.5259614
11
14.51764
21
68.7417909
0
LINE
8
0
10
14.51764
20
68.7417909
11
14.4533084
21
68.7514527
0
LINE
8
0
10
14.4533084
20
68.7514527
11
14
21
68.8195315
0
LINE
8
0
10
14
20
68.8195315
11
12.5998671
21
68.8195315
0
LINE
8
0
10
12.5998671
20
68.8195315
11
4.4
21
68.8195315
0
LINE
8
0
10
4.4
20
68.8195315
11
4.32599046
21
68.8084162
0
LINE
8
0
10
4.32599046
20
68.8084162
11
3.882362
21
68.7417909
0
LINE
8
0
10
3.882362
20
68.7417909
11
3.82690472
21
68.7155867
0
LINE
8
0
10
3.82690472
20
68.7155867
11
3.4
21
68.5138614
0
LINE
8
0
10
3.4
20
68.5138614
11
3.38112845
21
68.4973422
0
LINE
8
0
10
3.38112845
20
68.4973422
11
3.2232447
21
68.3591399
0
LINE
8
0
10
3.2232447
20
68.3591399
11
3.01226495
21
68.1609507
0
LINE
8
0
10
3.01226495
20
68.1609507
11
2.985786
21
68.1360778
0
LINE
8
0
10
2.985786
20
68.1360778
11
2.73349466
21
67.7335711
0
LINE
8
0
10
2.73349466
20
67.7335711
11
2.667949
21
67.6289958
0
LINE
8
0
10
2.667949
20
67.6289958
11
2.54275501
21
67.2589806
0
LINE
8
0
10
2.54275501
20
67.2589806
11
2.468148
21
67.0384793
0
LINE
8
0
10
2.468148
20
67.0384793
11
2.42488234
21
66.6512256
0
LINE
8
0
10
2.42488234
20
66.6512256
11
2.4
21
66.400357
0
LINE
8
0
10
2.4
20
66.400357
11
2.4
21
65.1289391
0
LINE
8
0
10
2.4
20
65.1289391
11
2.4
21
65.0399272
0
LINE
8
0
10
2.4
20
65.0399272
11
2.4
21
63.5009906
0
LINE
8
0
10
2.4
20
63.5009906
11
2.4
21
62.271682
0
LINE
8
0
10
2.4
20
62.271682
11
2.4
21
62.0537137
0
LINE
8
0
10
2.4
20
62.0537137
11
2.4
21
60.9954001
0
LINE
8
0
10
2.4
20
60.9954001
11
2.4
21
60.7318278
0
LINE
8
0
10
2.4
20
60.7318278
11
2.4
21
59.787795
0
LINE
8
0
10
2.4
20
59.787795
11
2.4
21
58.9235486
0
LINE
8
0
10
2.4
20
58.9235486
11
2.4
21
58.6251603
0
LINE
8
0
10
2.4
20
58.6251603
11
2.4
21
57.7963463
0
LINE
8
0
10
2.4
20
57.7963463
11
2.4
21
57.4909456
0
LINE
8
0
10
2.4
20
57.4909456
11
2.4
21
56.6656407
0
LINE
8
0
10
2.4
20
56.6656407
11
2.4
21
56.3715716
0
LINE
8
0
10
2.4
20
56.3715716
11
2.4
21
56.1272089
0
LINE
8
0
10
2.4
20
56.1272089
11
2.4
21
55.9515386
0
LINE
8
0
10
2.4
20
55.9515386
11
2.4
21
53.6415237
0
LINE
8
0
10
2.4
20
53.6415237
11
2.4
21
51.2977582
0
LINE
8
0
10
2.4
20
51.2977582
11
2.4
21
46.8012834
0
LINE
8
0
10
2.4
20
46.8012834
11
2.4
21
39.9718297
0
LINE
8
0
10
2.4
20
39.9718297
11
2.4
21
33.0117576
0
LINE
8
0
10
2.4
20
33.0117576
11
2.4
21
30.5739129
0
LINE
8
0
10
2.4
20
30.5739129
11
2.4
21
27.6484993
0
LINE
8
0
10
2.4
20
27.6484993
11
7.57757913
21
27.6484993
0
LINE
8
0
10
7.57757913
20
27.6484993
11
16
21
27.6484993
0
LINE
8
0
10
16
20
27.6484993
11
16
21
33.0117576
0
LINE
8
0
10
16
20
33.0117576
11
16
21
39.9718297
0
LINE
8
0
10
16
20
39.9718297
11
16
21
46.8012834
0
LINE
8
0
10
16
20
46.8012834
11
16
21
55.9905832
0
LINE
8
0
10
16
20
55.9905832
11
16
21
56.5426284
0
LINE
8
0
10
16
20
56.5426284
11
16
21
57.1404804
0
LINE
8
0
10
16
20
57.1404804
11
16
21
57.7547906
0
LINE
8
0
10
16
20
57.7547906
11
16
21
58.3850307
0
LINE
8
0
10
16
20
58.3850307
11
16
21
59.0682789
0
LINE
8
0
10
16
20
59.0682789
11
16
21
59.8556206
0
LINE
8
0
10
16
20
59.8556206
11
16
21
60.8296753
0
LINE
8
0
10
16
20
60.8296753
11
16
21
62.145577
0
LINE
8
0
10
16
20
62.145577
11
16
21
62.5296722
0
LINE
8
0
10
16
20
62.5296722
11
16
21
64.3661612
0
LINE
8
0
10
16
20
64.3661612
11
16
21
64.3661612
0
ENDSEC
0
EOF
