0
SECTION
2
ENTITIES
0
LINE
8
0
10
16
20
-2.83641886
11
16
21
-3.54235919
0
LINE
8
0
10
16
20
-3.54235919
11
16
21
-4.39150781
0
LINE
8
0
10
16
20
-4.39150781
11
16
21
-5.50081606
0
LINE
8
0
10
16
20
-5.50081606
11
16
21
-6.01887881
0
LINE
8
0
10
16
20
-6.01887881
11
16
21
-7.51476319
0
LINE
8
0
10
16
20
-7.51476319
11
16
21
-10.0065854
0
LINE
8
0
10
16
20
-10.0065854
11
16
21
-10.2096747
0
LINE
8
0
10
16
20
-10.2096747
11
16
21
-11.4835813
0
LINE
8
0
10
16
20
-11.4835813
11
15.9439825
21
-12.0425846
0
LINE
8
0
10
15.9439825
20
-12.0425846
11
15.93185
21
-12.1488057
0
LINE
8
0
10
15.93185
20
-12.1488057
11
15.7907045
21
-12.5585652
0
LINE
8
0
10
15.7907045
20
-12.5585652
11
15.73205
21
-12.7288466
0
LINE
8
0
10
15.73205
20
-12.7288466
11
15.5572969
21
-13.0027008
0
LINE
8
0
10
15.5572969
20
-13.0027008
11
15.41421
21
-13.2269319
0
LINE
8
0
10
15.41421
20
-13.2269319
11
15.2393486
21
-13.3882791
0
LINE
8
0
10
15.2393486
20
-13.3882791
11
15
21
-13.6091286
0
LINE
8
0
10
15
20
-13.6091286
11
14.8419102
21
-13.6878713
0
LINE
8
0
10
14.8419102
20
-13.6878713
11
14.51764
21
-13.8493906
0
LINE
8
0
10
14.51764
20
-13.8493906
11
14.3768216
21
-13.8716841
0
LINE
8
0
10
14.3768216
20
-13.8716841
11
14
21
-13.9313393
0
LINE
8
0
10
14
20
-13.9313393
11
11.5573519
21
-13.9313393
0
LINE
8
0
10
11.5573519
20
-13.9313393
11
4.4
21
-13.9313393
0
LINE
8
0
10
4.4
20
-13.9313393
11
4.26439754
21
-13.9098715
0
LINE
8
0
10
4.26439754
20
-13.9098715
11
3.882362
21
-13.8493906
0
LINE
8
0
10
3.882362
20
-13.8493906
11
3.73488429
21
-13.7759338
0
LINE
8
0
10
3.73488429
20
-13.7759338
11
3.4
21
-13.6091286
0
LINE
8
0
10
3.4
20
-13.6091286
11
3.2293376
21
-13.4516575
0
LINE
8
0
10
3.2293376
20
-13.4516575
11
2.985786
21
-13.2269319
0
LINE
8
0
10
2.985786
20
-13.2269319
11
2.79898389
21
-12.9341929
0
LINE
8
0
10
2.79898389
20
-12.9341929
11
2.667949
21
-12.7288466
0
LINE
8
0
10
2.667949
20
-12.7288466
11
2.50125623
21
-12.2449224
0
LINE
8
0
10
2.50125623
20
-12.2449224
11
2.468148
21
-12.1488057
0
LINE
8
0
10
2.468148
20
-12.1488057
11
2.45601584
21
-12.0425846
0
LINE
8
0
10
2.45601584
20
-12.0425846
11
2.4
21
-11.4835813
0
LINE
8
0
10
2.4
20
-11.4835813
11
2.4
21
-10.6935767
0
LINE
8
0
10
2.4
20
-10.6935767
11
2.4
21
-8.93016592
0
LINE
8
0
10
2.4
20
-8.93016592
11
2.4
21
-8.78626004
0
LINE
8
0
10
2.4
20
-8.78626004
11
2.4
21
-7.34643773
0
LINE
8
0
10
2.4
20
-7.34643773
11
2.4
21
-6.15014004
0
LINE
8
0
10
2.4
20
-6.15014004
11
2.4
21
-5.91677153
0
LINE
8
0
10
2.4
20
-5.91677153
11
2.4
21
-4.86597144
0
LINE
8
0
10
2.4
20
-4.86597144
11
2.4
21
-4.59605584
0
LINE
8
0
10
2.4
20
-4.59605584
11
2.4
21
-3.64157288
0
LINE
8
0
10
2.4
20
-3.64157288
11
2.4
21
-2.74636273
0
LINE
8
0
10
2.4
20
-2.74636273
11
2.4
21
-2.45480076
0
LINE
8
0
10
2.4
20
-2.45480076
11
2.4
21
-1.58323085
0
LINE
8
0
10
2.4
20
-1.58323085
11
2.4
21
-1.2886848
0
LINE
8
0
10
2.4
20
-1.2886848
11
2.4
21
-1.02098362
0
LINE
8
0
10
2.4
20
-1.02098362
11
2.4
21
-0.806453517
0
LINE
8
0
10
2.4
20
-0.806453517
11
2.4
21
1.63483034
0
LINE
8
0
10
2.4
20
1.63483034
11
2.4
21
4.47333697
0
LINE
8
0
10
2.4
20
4.47333697
11
2.4
21
7.99244766
0
LINE
8
0
10
2.4
20
7.99244766
11
2.4
21
15.8726977
0
LINE
8
0
10
2.4
20
15.8726977
11
2.4
21
19.3860222
0
LINE
8
0
10
2.4
20
19.3860222
11
2.4
21
21.9236323
0
LINE
8
0
10
2.4
20
21.9236323
11
2.4
21
23.9537204
0
LINE
8
0
10
2.4
20
23.9537204
11
9.57307925
21
23.9537204
0
LINE
8
0
10
9.57307925
20
23.9537204
11
16
21
23.9537204
0
LINE
8
0
10
16
20
23.9537204
11
16
21
19.3860222
0
LINE
8
0
10
16
20
19.3860222
11
16
21
15.8726977
0
LINE
8
0
10
16
20
15.8726977
11
16
21
7.99244766
0
LINE
8
0
10
16
20
7.99244766
11
16
21
-0.395535169
0
LINE
8
0
10
16
20
-0.395535169
11
16
21
-0.970548214
0
LINE
8
0
10
16
20
-0.970548214
11
16
21
-1.60916966
0
LINE
8
0
10
16
20
-1.60916966
11
16
21
-2.20699355
0
LINE
8
0
10
16
20
-2.20699355
11
16
21
-2.83641886
0
LINE
8
0
10
16
20
-2.83641886
11
16
21
-2.83641886
0
LINE
8
0
10
16
20
59.1489353
11
16
21
58.4193659
0
LINE
8
0
10
16
20
58.4193659
11
16
21
57.7463982
0
LINE
8
0
10
16
20
57.7463982
11
16
21
57.0904405
0
LINE
8
0
10
16
20
57.0904405
11
16
21
56.51882
0
LINE
8
0
10
16
20
56.51882
11
16
21
55.9909964
0
LINE
8
0
10
16
20
55.9909964
11
16
21
47.2048879
0
LINE
8
0
10
16
20
47.2048879
11
16
21
40.6750845
0
LINE
8
0
10
16
20
40.6750845
11
16
21
32.6139778
0
LINE
8
0
10
16
20
32.6139778
11
16
21
28.0462796
0
LINE
8
0
10
16
20
28.0462796
11
8.82692075
21
28.0462796
0
LINE
8
0
10
8.82692075
20
28.0462796
11
2.4
21
28.0462796
0
LINE
8
0
10
2.4
20
28.0462796
11
2.4
21
30.5377513
0
LINE
8
0
10
2.4
20
30.5377513
11
2.4
21
32.6139778
0
LINE
8
0
10
2.4
20
32.6139778
11
2.4
21
40.6750845
0
LINE
8
0
10
2.4
20
40.6750845
11
2.4
21
47.2048879
0
LINE
8
0
10
2.4
20
47.2048879
11
2.4
21
51.5040746
0
LINE
8
0
10
2.4
20
51.5040746
11
2.4
21
53.7450046
0
LINE
8
0
10
2.4
20
53.7450046
11
2.4
21
55.9536649
0
LINE
8
0
10
2.4
20
55.9536649
11
2.4
21
56.1216275
0
LINE
8
0
10
2.4
20
56.1216275
11
2.4
21
56.3552684
0
LINE
8
0
10
2.4
20
56.3552684
11
2.4
21
56.6364349
0
LINE
8
0
10
2.4
20
56.6364349
11
2.4
21
57.4943432
0
LINE
8
0
10
2.4
20
57.4943432
11
2.4
21
57.786097
0
LINE
8
0
10
2.4
20
57.786097
11
2.4
21
58.6481399
0
LINE
8
0
10
2.4
20
58.6481399
11
2.4
21
58.9324177
0
LINE
8
0
10
2.4
20
58.9324177
11
2.4
21
59.8308059
0
LINE
8
0
10
2.4
20
59.8308059
11
2.4
21
60.8121323
0
LINE
8
0
10
2.4
20
60.8121323
11
2.4
21
61.0595421
0
LINE
8
0
10
2.4
20
61.0595421
11
2.4
21
62.1579419
0
LINE
8
0
10
2.4
20
62.1579419
11
2.4
21
62.3588431
0
LINE
8
0
10
2.4
20
62.3588431
11
2.4
21
63.6318512
0
LINE
8
0
10
2.4
20
63.6318512
11
2.4
21
65.2254941
0
LINE
8
0
10
2.4
20
65.2254941
11
2.4
21
65.2905921
0
LINE
8
0
10
2.4
20
65.2905921
11
2.4
21
66.2204309
0
LINE
8
0
10
2.4
20
66.2204309
11
2.43988398
21
66.6225488
0
LINE
8
0
10
2.43988398
20
66.6225488
11
2.468148
21
66.8755289
0
LINE
8
0
10
2.468148
20
66.8755289
11
2.57260848
21
67.1842621
0
LINE
8
0
10
2.57260848
20
67.1842621
11
2.667949
21
67.4660443
0
LINE
8
0
10
2.667949
20
67.4660443
11
2.78093428
21
67.6463075
0
LINE
8
0
10
2.78093428
20
67.6463075
11
2.985786
21
67.9731289
0
LINE
8
0
10
2.985786
20
67.9731289
11
3.07499507
21
68.056927
0
LINE
8
0
10
3.07499507
20
68.056927
11
3.4
21
68.3622287
0
LINE
8
0
10
3.4
20
68.3622287
11
3.45161328
21
68.3884016
0
LINE
8
0
10
3.45161328
20
68.3884016
11
3.882362
21
68.6068323
0
LINE
8
0
10
3.882362
20
68.6068323
11
3.90118319
21
68.6098657
0
LINE
8
0
10
3.90118319
20
68.6098657
11
4.4
21
68.6902601
0
LINE
8
0
10
4.4
20
68.6902601
11
4.50454113
21
68.6902601
0
LINE
8
0
10
4.50454113
20
68.6902601
11
14
21
68.6902601
0
LINE
8
0
10
14
20
68.6902601
11
14.0058171
21
68.6893225
0
LINE
8
0
10
14.0058171
20
68.6893225
11
14.51764
21
68.6068323
0
LINE
8
0
10
14.51764
20
68.6068323
11
14.5375395
21
68.5967413
0
LINE
8
0
10
14.5375395
20
68.5967413
11
15
21
68.3622287
0
LINE
8
0
10
15
20
68.3622287
11
15.056768
21
68.3089032
0
LINE
8
0
10
15.056768
20
68.3089032
11
15.41421
21
67.9731289
0
LINE
8
0
10
15.41421
20
67.9731289
11
15.5121368
21
67.8168932
0
LINE
8
0
10
15.5121368
20
67.8168932
11
15.73205
21
67.4660443
0
LINE
8
0
10
15.73205
20
67.4660443
11
15.8436035
21
67.1363454
0
LINE
8
0
10
15.8436035
20
67.1363454
11
15.93185
21
66.8755289
0
LINE
8
0
10
15.93185
20
66.8755289
11
15.9601149
21
66.6225488
0
LINE
8
0
10
15.9601149
20
66.6225488
11
16
21
66.2204309
0
LINE
8
0
10
16
20
66.2204309
11
16
21
64.7327421
0
LINE
8
0
10
16
20
64.7327421
11
16
21
62.7740622
0
LINE
8
0
10
16
20
62.7740622
11
16
21
62.4348607
0
LINE
8
0
10
16
20
62.4348607
11
16
21
61.0297466
0
LINE
8
0
10
16
20
61.0297466
11
16
21
59.9896553
0
LINE
8
0
10
16
20
59.9896553
11
16
21
59.1489353
0
LINE
8
0
10
16
20
59.1489353
11
16
21
59.1489353
0
ENDSEC
0
EOF
