0
SECTION
2
ENTITIES
0
LINE
8
0
10
16
20
-10.9157527
11
16
21
-8.57658474
0
LINE
8
0
10
16
20
-8.57658474
11
16
21
-6.74074442
0
LINE
8
0
10
16
20
-6.74074442
11
16
21
-6.35886389
0
LINE
8
0
10
16
20
-6.35886389
11
16
21
-4.9913544
0
LINE
8
0
10
16
20
-4.9913544
11
16
21
-3.94455898
0
LINE
8
0
10
16
20
-3.94455898
11
16
21
-3.07430483
0
LINE
8
0
10
16
20
-3.07430483
11
16
21
-2.29837524
0
LINE
8
0
10
16
20
-2.29837524
11
16
21
-1.56140259
0
LINE
8
0
10
16
20
-1.56140259
11
16
21
-1.01069946
0
LINE
8
0
10
16
20
-1.01069946
11
16
21
-0.51484783
0
LINE
8
0
10
16
20
-0.51484783
11
16
21
6.71837058
0
LINE
8
0
10
16
20
6.71837058
11
16
21
13.5137552
0
LINE
8
0
10
16
20
13.5137552
11
16
21
20.5793616
0
LINE
8
0
10
16
20
20.5793616
11
16
21
22.7603796
0
LINE
8
0
10
16
20
22.7603796
11
5.82505441
21
22.7603796
0
LINE
8
0
10
5.82505441
20
22.7603796
11
2.4
21
22.7603796
0
LINE
8
0
10
2.4
20
22.7603796
11
2.4
21
21.7910383
0
LINE
8
0
10
2.4
20
21.7910383
11
2.4
21
20.5793616
0
LINE
8
0
10
2.4
20
20.5793616
11
2.4
21
13.5137552
0
LINE
8
0
10
2.4
20
13.5137552
11
2.4
21
6.71837058
0
LINE
8
0
10
2.4
20
6.71837058
11
2.4
21
3.68373201
0
LINE
8
0
10
2.4
20
3.68373201
11
2.4
21
1.23599948
0
LINE
8
0
10
2.4
20
1.23599948
11
2.4
21
-0.869195499
0
LINE
8
0
10
2.4
20
-0.869195499
11
2.4
21
-1.05419147
0
LINE
8
0
10
2.4
20
-1.05419147
11
2.4
21
-1.28503853
0
LINE
8
0
10
2.4
20
-1.28503853
11
2.4
21
-1.53903475
0
LINE
8
0
10
2.4
20
-1.53903475
11
2.4
21
-2.51138372
0
LINE
8
0
10
2.4
20
-2.51138372
11
2.4
21
-2.76200264
0
LINE
8
0
10
2.4
20
-2.76200264
11
2.4
21
-3.75920317
0
LINE
8
0
10
2.4
20
-3.75920317
11
2.4
21
-4.82242939
0
LINE
8
0
10
2.4
20
-4.82242939
11
2.4
21
-5.04730524
0
LINE
8
0
10
2.4
20
-5.04730524
11
2.4
21
-6.21303663
0
LINE
8
0
10
2.4
20
-6.21303663
11
2.4
21
-6.39995654
0
LINE
8
0
10
2.4
20
-6.39995654
11
2.4
21
-7.71933029
0
LINE
8
0
10
2.4
20
-7.71933029
11
2.4
21
-9.30728268
0
LINE
8
0
10
2.4
20
-9.30728268
11
2.4
21
-9.38998184
0
LINE
8
0
10
2.4
20
-9.38998184
11
2.4
21
-10.9157527
0
LINE
8
0
10
2.4
20
-10.9157527
11
2.41661427
21
-11.0999629
0
LINE
8
0
10
2.41661427
20
-11.0999629
11
2.468148
21
-11.5923543
0
LINE
8
0
10
2.468148
20
-11.5923543
11
2.61782318
21
-12.0666367
0
LINE
8
0
10
2.61782318
20
-12.0666367
11
2.667949
21
-12.2254727
0
LINE
8
0
10
2.667949
20
-12.2254727
11
2.95232037
21
-12.7118916
0
LINE
8
0
10
2.95232037
20
-12.7118916
11
2.985786
21
-12.7643358
0
LINE
8
0
10
2.985786
20
-12.7643358
11
2.9947594
21
-12.7726156
0
LINE
8
0
10
2.9947594
20
-12.7726156
11
3.4
21
-13.1465332
0
LINE
8
0
10
3.4
20
-13.1465332
11
3.4806147
21
-13.1866872
0
LINE
8
0
10
3.4806147
20
-13.1866872
11
3.882362
21
-13.3867925
0
LINE
8
0
10
3.882362
20
-13.3867925
11
4.00839131
21
-13.4067444
0
LINE
8
0
10
4.00839131
20
-13.4067444
11
4.4
21
-13.4687416
0
LINE
8
0
10
4.4
20
-13.4687416
11
6.94583423
21
-13.4687416
0
LINE
8
0
10
6.94583423
20
-13.4687416
11
14
21
-13.4687416
0
LINE
8
0
10
14
20
-13.4687416
11
14.1340336
21
-13.4475226
0
LINE
8
0
10
14.1340336
20
-13.4475226
11
14.51764
21
-13.3867925
0
LINE
8
0
10
14.51764
20
-13.3867925
11
14.6246132
21
-13.333509
0
LINE
8
0
10
14.6246132
20
-13.333509
11
15
21
-13.1465332
0
LINE
8
0
10
15
20
-13.1465332
11
15.057617
21
-13.0933694
0
LINE
8
0
10
15.057617
20
-13.0933694
11
15.41421
21
-12.7643358
0
LINE
8
0
10
15.41421
20
-12.7643358
11
15.4194819
21
-12.7560743
0
LINE
8
0
10
15.4194819
20
-12.7560743
11
15.4476759
21
-12.7118916
0
LINE
8
0
10
15.4476759
20
-12.7118916
11
15.6850042
21
-12.3059446
0
LINE
8
0
10
15.6850042
20
-12.3059446
11
15.73205
21
-12.2254727
0
LINE
8
0
10
15.73205
20
-12.2254727
11
15.8640025
21
-11.8073471
0
LINE
8
0
10
15.8640025
20
-11.8073471
11
15.93185
21
-11.5923543
0
LINE
8
0
10
15.93185
20
-11.5923543
11
15.9833852
21
-11.0999629
0
LINE
8
0
10
15.9833852
20
-11.0999629
11
16
21
-10.9157527
0
LINE
8
0
10
16
20
-10.9157527
11
16
21
-10.9157527
0
LINE
8
0
10
16
20
65.6668356
11
16
21
63.5072322
0
LINE
8
0
10
16
20
63.5072322
11
16
21
63.3027118
0
LINE
8
0
10
16
20
63.3027118
11
16
21
61.6299605
0
LINE
8
0
10
16
20
61.6299605
11
16
21
60.3917593
0
LINE
8
0
10
16
20
60.3917593
11
16
21
59.3909044
0
LINE
8
0
10
16
20
59.3909044
11
16
21
58.5223713
0
LINE
8
0
10
16
20
58.5223713
11
16
21
57.7212211
0
LINE
8
0
10
16
20
57.7212211
11
16
21
56.9403207
0
LINE
8
0
10
16
20
56.9403207
11
16
21
56.4473946
0
LINE
8
0
10
16
20
56.4473946
11
16
21
55.9922359
0
LINE
8
0
10
16
20
55.9922359
11
16
21
48.4157014
0
LINE
8
0
10
16
20
48.4157014
11
16
21
42.7848489
0
LINE
8
0
10
16
20
42.7848489
11
16
21
31.4206384
0
LINE
8
0
10
16
20
31.4206384
11
16
21
29.2396204
0
LINE
8
0
10
16
20
29.2396204
11
12.5749456
21
29.2396204
0
LINE
8
0
10
12.5749456
20
29.2396204
11
2.4
21
29.2396204
0
LINE
8
0
10
2.4
20
29.2396204
11
2.4
21
30.4292666
0
LINE
8
0
10
2.4
20
30.4292666
11
2.4
21
31.4206384
0
LINE
8
0
10
2.4
20
31.4206384
11
2.4
21
42.7848489
0
LINE
8
0
10
2.4
20
42.7848489
11
2.4
21
48.4157014
0
LINE
8
0
10
2.4
20
48.4157014
11
2.4
21
52.1230237
0
LINE
8
0
10
2.4
20
52.1230237
11
2.4
21
54.0554474
0
LINE
8
0
10
2.4
20
54.0554474
11
2.4
21
55.9600438
0
LINE
8
0
10
2.4
20
55.9600438
11
2.4
21
56.1048832
0
LINE
8
0
10
2.4
20
56.1048832
11
2.4
21
56.306359
0
LINE
8
0
10
2.4
20
56.306359
11
2.4
21
56.5488176
0
LINE
8
0
10
2.4
20
56.5488176
11
2.4
21
57.5045361
0
LINE
8
0
10
2.4
20
57.5045361
11
2.4
21
57.7553491
0
LINE
8
0
10
2.4
20
57.7553491
11
2.4
21
58.7170788
0
LINE
8
0
10
2.4
20
58.7170788
11
2.4
21
58.9590251
0
LINE
8
0
10
2.4
20
58.9590251
11
2.4
21
59.9598386
0
LINE
8
0
10
2.4
20
59.9598386
11
2.4
21
61.0530461
0
LINE
8
0
10
2.4
20
61.0530461
11
2.4
21
61.2519681
0
LINE
8
0
10
2.4
20
61.2519681
11
2.4
21
62.4706265
0
LINE
8
0
10
2.4
20
62.4706265
11
2.4
21
62.6203264
0
LINE
8
0
10
2.4
20
62.6203264
11
2.4
21
64.0244332
0
LINE
8
0
10
2.4
20
64.0244332
11
2.4
21
65.6668356
0
LINE
8
0
10
2.4
20
65.6668356
11
2.40463644
21
65.7189224
0
LINE
8
0
10
2.40463644
20
65.7189224
11
2.468148
21
66.3394875
0
LINE
8
0
10
2.468148
20
66.3394875
11
2.50294926
21
66.4519886
0
LINE
8
0
10
2.50294926
20
66.4519886
11
2.63840862
21
66.8898832
0
LINE
8
0
10
2.63840862
20
66.8898832
11
2.66216888
21
66.9601067
0
LINE
8
0
10
2.66216888
20
66.9601067
11
2.667949
21
66.97719
0
LINE
8
0
10
2.667949
20
66.97719
11
2.92325317
21
67.3845169
0
LINE
8
0
10
2.92325317
20
67.3845169
11
2.985786
21
67.4842821
0
LINE
8
0
10
2.985786
20
67.4842821
11
3.26318543
21
67.7448559
0
LINE
8
0
10
3.26318543
20
67.7448559
11
3.4
21
67.8733762
0
LINE
8
0
10
3.4
20
67.8733762
11
3.67739384
21
68.0140416
0
LINE
8
0
10
3.67739384
20
68.0140416
11
3.882362
21
68.11798
0
LINE
8
0
10
3.882362
20
68.11798
11
4.15445506
21
68.1618335
0
LINE
8
0
10
4.15445506
20
68.1618335
11
4.4
21
68.201408
0
LINE
8
0
10
4.4
20
68.201408
11
9.32581537
21
68.201408
0
LINE
8
0
10
9.32581537
20
68.201408
11
14
21
68.201408
0
LINE
8
0
10
14
20
68.201408
11
14.2740934
21
68.1572323
0
LINE
8
0
10
14.2740934
20
68.1572323
11
14.51764
21
68.11798
0
LINE
8
0
10
14.51764
20
68.11798
11
14.8053219
21
67.972097
0
LINE
8
0
10
14.8053219
20
67.972097
11
15
21
67.8733762
0
LINE
8
0
10
15
20
67.8733762
11
15.3050976
21
67.5867802
0
LINE
8
0
10
15.3050976
20
67.5867802
11
15.41421
21
67.4842821
0
LINE
8
0
10
15.41421
20
67.4842821
11
15.7187175
21
66.9984606
0
LINE
8
0
10
15.7187175
20
66.9984606
11
15.73205
21
66.97719
0
LINE
8
0
10
15.73205
20
66.97719
11
15.7615902
21
66.8898832
0
LINE
8
0
10
15.7615902
20
66.8898832
11
15.93185
21
66.3394875
0
LINE
8
0
10
15.93185
20
66.3394875
11
15.9953634
21
65.7189224
0
LINE
8
0
10
15.9953634
20
65.7189224
11
16
21
65.6668356
0
LINE
8
0
10
16
20
65.6668356
11
16
21
65.6668356
0
ENDSEC
0
EOF
