0
SECTION
2
ENTITIES
0
LINE
8
0
10
16
20
50.0301193
11
16
21
55.9938886
0
LINE
8
0
10
16
20
55.9938886
11
16
21
56.3521608
0
LINE
8
0
10
16
20
56.3521608
11
16
21
56.7401611
0
LINE
8
0
10
16
20
56.7401611
11
16
21
57.6876516
0
LINE
8
0
10
16
20
57.6876516
11
16
21
58.6597119
0
LINE
8
0
10
16
20
58.6597119
11
16
21
59.7135298
0
LINE
8
0
10
16
20
59.7135298
11
16
21
60.9278981
0
LINE
8
0
10
16
20
60.9278981
11
16
21
62.4302458
0
LINE
8
0
10
16
20
62.4302458
11
16
21
64.4598465
0
LINE
8
0
10
16
20
64.4598465
11
16
21
64.4847922
0
LINE
8
0
10
16
20
64.4847922
11
16
21
64.748202
0
LINE
8
0
10
16
20
64.748202
11
15.949505
21
65.3154581
0
LINE
8
0
10
15.949505
20
65.3154581
11
15.93185
21
65.5084831
0
LINE
8
0
10
15.93185
20
65.5084831
11
15.9057134
21
65.603028
0
LINE
8
0
10
15.9057134
20
65.603028
11
15.73205
21
66.1644275
0
LINE
8
0
10
15.73205
20
66.1644275
11
15.6287723
21
66.3446526
0
LINE
8
0
10
15.6287723
20
66.3446526
11
15.41421
21
66.7190785
0
LINE
8
0
10
15.41421
20
66.7190785
11
15.1718138
21
66.9681269
0
LINE
8
0
10
15.1718138
20
66.9681269
11
15
21
67.1446571
0
LINE
8
0
10
15
20
67.1446571
11
14.6453527
21
67.3413627
0
LINE
8
0
10
14.6453527
20
67.3413627
11
14.51764
21
67.4121973
0
LINE
8
0
10
14.51764
20
67.4121973
11
14.1075908
21
67.4844824
0
LINE
8
0
10
14.1075908
20
67.4844824
11
14
21
67.5034498
0
LINE
8
0
10
14
20
67.5034498
11
6.31868314
21
67.5034498
0
LINE
8
0
10
6.31868314
20
67.5034498
11
4.4
21
67.5034498
0
LINE
8
0
10
4.4
20
67.5034498
11
3.99938999
21
67.4328285
0
LINE
8
0
10
3.99938999
20
67.4328285
11
3.882362
21
67.4121973
0
LINE
8
0
10
3.882362
20
67.4121973
11
3.54674921
21
67.2260496
0
LINE
8
0
10
3.54674921
20
67.2260496
11
3.4
21
67.1446571
0
LINE
8
0
10
3.4
20
67.1446571
11
3.16418874
21
66.902377
0
LINE
8
0
10
3.16418874
20
66.902377
11
2.985786
21
66.7190785
0
LINE
8
0
10
2.985786
20
66.7190785
11
2.85779336
21
66.495723
0
LINE
8
0
10
2.85779336
20
66.495723
11
2.667949
21
66.1644275
0
LINE
8
0
10
2.667949
20
66.1644275
11
2.62769195
21
66.03429
0
LINE
8
0
10
2.62769195
20
66.03429
11
2.49428472
21
65.603028
0
LINE
8
0
10
2.49428472
20
65.603028
11
2.47457427
21
65.5317289
0
LINE
8
0
10
2.47457427
20
65.5317289
11
2.468148
21
65.5084831
0
LINE
8
0
10
2.468148
20
65.5084831
11
2.45049356
21
65.3154581
0
LINE
8
0
10
2.45049356
20
65.3154581
11
2.4
21
64.748202
0
LINE
8
0
10
2.4
20
64.748202
11
2.4
21
64.5478759
0
LINE
8
0
10
2.4
20
64.5478759
11
2.4
21
62.9689708
0
LINE
8
0
10
2.4
20
62.9689708
11
2.4
21
62.8875392
0
LINE
8
0
10
2.4
20
62.8875392
11
2.4
21
61.5085361
0
LINE
8
0
10
2.4
20
61.5085361
11
2.4
21
61.3742644
0
LINE
8
0
10
2.4
20
61.3742644
11
2.4
21
60.1318821
0
LINE
8
0
10
2.4
20
60.1318821
11
2.4
21
58.9945016
0
LINE
8
0
10
2.4
20
58.9945016
11
2.4
21
58.8089974
0
LINE
8
0
10
2.4
20
58.8089974
11
2.4
21
57.7143519
0
LINE
8
0
10
2.4
20
57.7143519
11
2.4
21
57.5181266
0
LINE
8
0
10
2.4
20
57.5181266
11
2.4
21
56.4319946
0
LINE
8
0
10
2.4
20
56.4319946
11
2.4
21
56.2411465
0
LINE
8
0
10
2.4
20
56.2411465
11
2.4
21
56.0825574
0
LINE
8
0
10
2.4
20
56.0825574
11
2.4
21
55.968549
0
LINE
8
0
10
2.4
20
55.968549
11
2.4
21
54.469371
0
LINE
8
0
10
2.4
20
54.469371
11
2.4
21
52.9482892
0
LINE
8
0
10
2.4
20
52.9482892
11
2.4
21
50.0301193
0
LINE
8
0
10
2.4
20
50.0301193
11
2.4
21
45.597868
0
LINE
8
0
10
2.4
20
45.597868
11
2.4
21
32.342965
0
LINE
8
0
10
2.4
20
32.342965
11
2.4
21
29.8295186
0
LINE
8
0
10
2.4
20
29.8295186
11
3.97231205
21
29.8295186
0
LINE
8
0
10
3.97231205
20
29.8295186
11
16
21
29.8295186
0
LINE
8
0
10
16
20
29.8295186
11
16
21
32.342965
0
LINE
8
0
10
16
20
32.342965
11
16
21
45.597868
0
LINE
8
0
10
16
20
45.597868
11
16
21
50.0301193
0
LINE
8
0
10
16
20
50.0301193
11
16
21
50.0301193
0
LINE
8
0
10
16
20
-7.50292768
11
16
21
-5.79114985
0
LINE
8
0
10
16
20
-5.79114985
11
16
21
-4.48082536
0
LINE
8
0
10
16
20
-4.48082536
11
16
21
-3.39148612
0
LINE
8
0
10
16
20
-3.39148612
11
16
21
-2.4202175
0
LINE
8
0
10
16
20
-2.4202175
11
16
21
-1.49771316
0
LINE
8
0
10
16
20
-1.49771316
11
16
21
-1.06423445
0
LINE
8
0
10
16
20
-1.06423445
11
16
21
-0.673931378
0
LINE
8
0
10
16
20
-0.673931378
11
16
21
5.01960114
0
LINE
8
0
10
16
20
5.01960114
11
16
21
10.3684986
0
LINE
8
0
10
16
20
10.3684986
11
16
21
19.8717124
0
LINE
8
0
10
16
20
19.8717124
11
16
21
22.1704814
0
LINE
8
0
10
16
20
22.1704814
11
14.427688
21
22.1704814
0
LINE
8
0
10
14.427688
20
22.1704814
11
2.4
21
22.1704814
0
LINE
8
0
10
2.4
20
22.1704814
11
2.4
21
19.8717124
0
LINE
8
0
10
2.4
20
19.8717124
11
2.4
21
10.3684986
0
LINE
8
0
10
2.4
20
10.3684986
11
2.4
21
5.01960114
0
LINE
8
0
10
2.4
20
5.01960114
11
2.4
21
2.6309254
0
LINE
8
0
10
2.4
20
2.6309254
11
2.4
21
0.704225003
0
LINE
8
0
10
2.4
20
0.704225003
11
2.4
21
-0.952851475
0
LINE
8
0
10
2.4
20
-0.952851475
11
2.4
21
-1.09846862
0
LINE
8
0
10
2.4
20
-1.09846862
11
2.4
21
-1.28017684
0
LINE
8
0
10
2.4
20
-1.28017684
11
2.4
21
-1.48010661
0
LINE
8
0
10
2.4
20
-1.48010661
11
2.4
21
-2.58682768
0
LINE
8
0
10
2.4
20
-2.58682768
11
2.4
21
-2.78285585
0
LINE
8
0
10
2.4
20
-2.78285585
11
2.4
21
-3.91604356
0
LINE
8
0
10
2.4
20
-3.91604356
11
2.4
21
-5.1242608
0
LINE
8
0
10
2.4
20
-5.1242608
11
2.4
21
-5.28908363
0
LINE
8
0
10
2.4
20
-5.28908363
11
2.4
21
-6.60805676
0
LINE
8
0
10
2.4
20
-6.60805676
11
2.4
21
-6.73304521
0
LINE
8
0
10
2.4
20
-6.73304521
11
2.4
21
-8.21652038
0
LINE
8
0
10
2.4
20
-8.21652038
11
2.4
21
-10.0019795
0
LINE
8
0
10
2.4
20
-10.0019795
11
2.4
21
-10.0030697
0
LINE
8
0
10
2.4
20
-10.0030697
11
2.4
21
-10.0231839
0
LINE
8
0
10
2.4
20
-10.0231839
11
2.40318985
21
-10.0585513
0
LINE
8
0
10
2.40318985
20
-10.0585513
11
2.468148
21
-10.7528119
0
LINE
8
0
10
2.468148
20
-10.7528119
11
2.61775656
21
-11.2823629
0
LINE
8
0
10
2.61775656
20
-11.2823629
11
2.667949
21
-11.44141
0
LINE
8
0
10
2.667949
20
-11.44141
11
2.69524903
21
-11.4881069
0
LINE
8
0
10
2.69524903
20
-11.4881069
11
2.985786
21
-11.9850748
0
LINE
8
0
10
2.985786
20
-11.9850748
11
3.12910428
21
-12.1294164
0
LINE
8
0
10
3.12910428
20
-12.1294164
11
3.4
21
-12.4022472
0
LINE
8
0
10
3.4
20
-12.4022472
11
3.64342909
21
-12.5345906
0
LINE
8
0
10
3.64342909
20
-12.5345906
11
3.882362
21
-12.6644916
0
LINE
8
0
10
3.882362
20
-12.6644916
11
4.18006526
21
-12.7159344
0
LINE
8
0
10
4.18006526
20
-12.7159344
11
4.4
21
-12.753937
0
LINE
8
0
10
4.4
20
-12.753937
11
10.0674954
21
-12.753937
0
LINE
8
0
10
10.0674954
20
-12.753937
11
14
21
-12.753937
0
LINE
8
0
10
14
20
-12.753937
11
14.2963102
21
-12.702735
0
LINE
8
0
10
14.2963102
20
-12.702735
11
14.51764
21
-12.6644916
0
LINE
8
0
10
14.51764
20
-12.6644916
11
14.7636162
21
-12.5307632
0
LINE
8
0
10
14.7636162
20
-12.5307632
11
15
21
-12.4022472
0
LINE
8
0
10
15
20
-12.4022472
11
15.1649314
21
-12.2361367
0
LINE
8
0
10
15.1649314
20
-12.2361367
11
15.41421
21
-11.9850748
0
LINE
8
0
10
15.41421
20
-11.9850748
11
15.4920282
21
-11.8519677
0
LINE
8
0
10
15.4920282
20
-11.8519677
11
15.73205
21
-11.44141
0
LINE
8
0
10
15.73205
20
-11.44141
11
15.7430858
21
-11.4064401
0
LINE
8
0
10
15.7430858
20
-11.4064401
11
15.7822422
21
-11.2823629
0
LINE
8
0
10
15.7822422
20
-11.2823629
11
15.896974
21
-10.8762577
0
LINE
8
0
10
15.896974
20
-10.8762577
11
15.93185
21
-10.7528119
0
LINE
8
0
10
15.93185
20
-10.7528119
11
15.9968101
21
-10.0585513
0
LINE
8
0
10
15.9968101
20
-10.0585513
11
16
21
-10.0231839
0
LINE
8
0
10
16
20
-10.0231839
11
16
21
-9.9923468
0
LINE
8
0
10
16
20
-9.9923468
11
16
21
-7.70323189
0
LINE
8
0
10
16
20
-7.70323189
11
16
21
-7.50292768
0
LINE
8
0
10
16
20
-7.50292768
11
16
21
-7.50292768
0
ENDSEC
0
EOF
