0
SECTION
2
ENTITIES
0
LINE
8
0
10
16
20
56.6400812
11
16
21
57.6708668
0
LINE
8
0
10
16
20
57.6708668
11
16
21
58.7283821
0
LINE
8
0
10
16
20
58.7283821
11
16
21
59.8748426
0
LINE
8
0
10
16
20
59.8748426
11
16
21
61.1959675
0
LINE
8
0
10
16
20
61.1959675
11
16
21
62.8303885
0
LINE
8
0
10
16
20
62.8303885
11
16
21
64.197201
0
LINE
8
0
10
16
20
64.197201
11
15.9730204
21
64.5443899
0
LINE
8
0
10
15.9730204
20
64.5443899
11
15.93185
21
64.9945136
0
LINE
8
0
10
15.93185
20
64.9945136
11
15.7806851
21
65.5413279
0
LINE
8
0
10
15.7806851
20
65.5413279
11
15.73205
21
65.7172574
0
LINE
8
0
10
15.73205
20
65.7172574
11
15.5553284
21
66.0623447
0
LINE
8
0
10
15.5553284
20
66.0623447
11
15.41421
21
66.3086061
0
LINE
8
0
10
15.41421
20
66.3086061
11
15.3607242
21
66.3635597
0
LINE
8
0
10
15.3607242
20
66.3635597
11
15
21
66.734186
0
LINE
8
0
10
15
20
66.734186
11
14.8454449
21
66.8199102
0
LINE
8
0
10
14.8454449
20
66.8199102
11
14.51764
21
67.001724
0
LINE
8
0
10
14.51764
20
67.001724
11
14.3047292
21
67.0392568
0
LINE
8
0
10
14.3047292
20
67.0392568
11
14
21
67.0929778
0
LINE
8
0
10
14
20
67.0929778
11
9.83428289
21
67.0929778
0
LINE
8
0
10
9.83428289
20
67.0929778
11
4.4
21
67.0929778
0
LINE
8
0
10
4.4
20
67.0929778
11
4.18274194
21
67.0546786
0
LINE
8
0
10
4.18274194
20
67.0546786
11
3.882362
21
67.001724
0
LINE
8
0
10
3.882362
20
67.001724
11
3.70810098
21
66.9050701
0
LINE
8
0
10
3.70810098
20
66.9050701
11
3.4
21
66.734186
0
LINE
8
0
10
3.4
20
66.734186
11
3.29723356
21
66.6286004
0
LINE
8
0
10
3.29723356
20
66.6286004
11
2.985786
21
66.3086061
0
LINE
8
0
10
2.985786
20
66.3086061
11
2.95754387
21
66.2593217
0
LINE
8
0
10
2.95754387
20
66.2593217
11
2.84466889
21
66.0623447
0
LINE
8
0
10
2.84466889
20
66.0623447
11
2.70573094
21
65.7910347
0
LINE
8
0
10
2.70573094
20
65.7910347
11
2.667949
21
65.7172574
0
LINE
8
0
10
2.667949
20
65.7172574
11
2.54072909
21
65.257062
0
LINE
8
0
10
2.54072909
20
65.257062
11
2.468148
21
64.9945136
0
LINE
8
0
10
2.468148
20
64.9945136
11
2.42697882
21
64.5443899
0
LINE
8
0
10
2.42697882
20
64.5443899
11
2.4
21
64.197201
0
LINE
8
0
10
2.4
20
64.197201
11
2.4
21
63.1432931
0
LINE
8
0
10
2.4
20
63.1432931
11
2.4
21
63.0959956
0
LINE
8
0
10
2.4
20
63.0959956
11
2.4
21
61.6368201
0
LINE
8
0
10
2.4
20
61.6368201
11
2.4
21
61.5348736
0
LINE
8
0
10
2.4
20
61.5348736
11
2.4
21
60.2179039
0
LINE
8
0
10
2.4
20
60.2179039
11
2.4
21
59.0122399
0
LINE
8
0
10
2.4
20
59.0122399
11
2.4
21
58.8549567
0
LINE
8
0
10
2.4
20
58.8549567
11
2.4
21
57.6938532
0
LINE
8
0
10
2.4
20
57.6938532
11
2.4
21
57.5249218
0
LINE
8
0
10
2.4
20
57.5249218
11
2.4
21
56.373583
0
LINE
8
0
10
2.4
20
56.373583
11
2.4
21
56.2085402
0
LINE
8
0
10
2.4
20
56.2085402
11
2.4
21
56.0713945
0
LINE
8
0
10
2.4
20
56.0713945
11
2.4
21
55.9728016
0
LINE
8
0
10
2.4
20
55.9728016
11
2.4
21
54.6763329
0
LINE
8
0
10
2.4
20
54.6763329
11
2.4
21
53.360922
0
LINE
8
0
10
2.4
20
53.360922
11
2.4
21
50.8373283
0
LINE
8
0
10
2.4
20
50.8373283
11
2.4
21
47.0043776
0
LINE
8
0
10
2.4
20
47.0043776
11
2.4
21
35.5417175
0
LINE
8
0
10
2.4
20
35.5417175
11
2.4
21
29.033958
0
LINE
8
0
10
2.4
20
29.033958
11
6.47099528
21
29.033958
0
LINE
8
0
10
6.47099528
20
29.033958
11
16
21
29.033958
0
LINE
8
0
10
16
20
29.033958
11
16
21
35.5417175
0
LINE
8
0
10
16
20
35.5417175
11
16
21
47.0043776
0
LINE
8
0
10
16
20
47.0043776
11
16
21
50.8373283
0
LINE
8
0
10
16
20
50.8373283
11
16
21
55.9947149
0
LINE
8
0
10
16
20
55.9947149
11
16
21
56.3045438
0
LINE
8
0
10
16
20
56.3045438
11
16
21
56.6400812
0
LINE
8
0
10
16
20
56.6400812
11
16
21
56.6400812
0
LINE
8
0
10
16
20
22.966042
11
16
21
17.0141205
0
LINE
8
0
10
16
20
17.0141205
11
16
21
8.79587028
0
LINE
8
0
10
16
20
8.79587028
11
16
21
4.17021642
0
LINE
8
0
10
16
20
4.17021642
11
16
21
-0.753473153
0
LINE
8
0
10
16
20
-0.753473153
11
16
21
-1.09100195
0
LINE
8
0
10
16
20
-1.09100195
11
16
21
-1.46586845
0
LINE
8
0
10
16
20
-1.46586845
11
16
21
-2.48113863
0
LINE
8
0
10
16
20
-2.48113863
11
16
21
-3.55007676
0
LINE
8
0
10
16
20
-3.55007676
11
16
21
-4.74895855
0
LINE
8
0
10
16
20
-4.74895855
11
16
21
-6.19104758
0
LINE
8
0
10
16
20
-6.19104758
11
16
21
-8.07495957
0
LINE
8
0
10
16
20
-8.07495957
11
16
21
-8.18447563
0
LINE
8
0
10
16
20
-8.18447563
11
16
21
-9.45473976
0
LINE
8
0
10
16
20
-9.45473976
11
15.9618186
21
-9.9385237
0
LINE
8
0
10
15.9618186
20
-9.9385237
11
15.93185
21
-10.258813
0
LINE
8
0
10
15.93185
20
-10.258813
11
15.8328739
21
-10.609145
0
LINE
8
0
10
15.8328739
20
-10.609145
11
15.73205
21
-10.9660216
0
LINE
8
0
10
15.73205
20
-10.9660216
11
15.647831
21
-11.1269386
0
LINE
8
0
10
15.647831
20
-11.1269386
11
15.41421
21
-11.5733143
0
LINE
8
0
10
15.41421
20
-11.5733143
11
15.3874425
21
-11.6034291
0
LINE
8
0
10
15.3874425
20
-11.6034291
11
15.2468182
21
-11.7616341
0
LINE
8
0
10
15.2468182
20
-11.7616341
11
15.0366105
21
-11.9733456
0
LINE
8
0
10
15.0366105
20
-11.9733456
11
15
21
-12.0102179
0
LINE
8
0
10
15
20
-12.0102179
11
14.6085529
21
-12.2230379
0
LINE
8
0
10
14.6085529
20
-12.2230379
11
14.51764
21
-12.272464
0
LINE
8
0
10
14.51764
20
-12.272464
11
14.1208695
21
-12.3410216
0
LINE
8
0
10
14.1208695
20
-12.3410216
11
14
21
-12.3619077
0
LINE
8
0
10
14
20
-12.3619077
11
6.71185861
21
-12.3619077
0
LINE
8
0
10
6.71185861
20
-12.3619077
11
4.4
21
-12.3619077
0
LINE
8
0
10
4.4
20
-12.3619077
11
3.99239323
21
-12.2914772
0
LINE
8
0
10
3.99239323
20
-12.2914772
11
3.882362
21
-12.272464
0
LINE
8
0
10
3.882362
20
-12.272464
11
3.45403503
21
-12.0395947
0
LINE
8
0
10
3.45403503
20
-12.0395947
11
3.4
21
-12.0102179
0
LINE
8
0
10
3.4
20
-12.0102179
11
3.15317939
21
-11.7616341
0
LINE
8
0
10
3.15317939
20
-11.7616341
11
2.985786
21
-11.5733143
0
LINE
8
0
10
2.985786
20
-11.5733143
11
2.95096992
21
-11.5067908
0
LINE
8
0
10
2.95096992
20
-11.5067908
11
2.667949
21
-10.9660216
0
LINE
8
0
10
2.667949
20
-10.9660216
11
2.56466657
21
-10.6004478
0
LINE
8
0
10
2.56466657
20
-10.6004478
11
2.468148
21
-10.258813
0
LINE
8
0
10
2.468148
20
-10.258813
11
2.4381803
21
-9.9385237
0
LINE
8
0
10
2.4381803
20
-9.9385237
11
2.4
21
-9.45473976
0
LINE
8
0
10
2.4
20
-9.45473976
11
2.4
21
-8.46511542
0
LINE
8
0
10
2.4
20
-8.46511542
11
2.4
21
-6.89958954
0
LINE
8
0
10
2.4
20
-6.89958954
11
2.4
21
-6.80556683
0
LINE
8
0
10
2.4
20
-6.80556683
11
2.4
21
-5.40997283
0
LINE
8
0
10
2.4
20
-5.40997283
11
2.4
21
-5.27517651
0
LINE
8
0
10
2.4
20
-5.27517651
11
2.4
21
-3.99446375
0
LINE
8
0
10
2.4
20
-3.99446375
11
2.4
21
-2.79328246
0
LINE
8
0
10
2.4
20
-2.79328246
11
2.4
21
-2.62454966
0
LINE
8
0
10
2.4
20
-2.62454966
11
2.4
21
-1.45064254
0
LINE
8
0
10
2.4
20
-1.45064254
11
2.4
21
-1.27774599
0
LINE
8
0
10
2.4
20
-1.27774599
11
2.4
21
-1.12060719
0
LINE
8
0
10
2.4
20
-1.12060719
11
2.4
21
-0.994679463
0
LINE
8
0
10
2.4
20
-0.994679463
11
2.4
21
0.438337763
0
LINE
8
0
10
2.4
20
0.438337763
11
2.4
21
2.10452209
0
LINE
8
0
10
2.4
20
2.10452209
11
2.4
21
4.17021642
0
LINE
8
0
10
2.4
20
4.17021642
11
2.4
21
8.79587028
0
LINE
8
0
10
2.4
20
8.79587028
11
2.4
21
17.0141205
0
LINE
8
0
10
2.4
20
17.0141205
11
2.4
21
22.966042
0
LINE
8
0
10
2.4
20
22.966042
11
11.9290047
21
22.966042
0
LINE
8
0
10
11.9290047
20
22.966042
11
16
21
22.966042
0
LINE
8
0
10
16
20
22.966042
11
16
21
22.966042
0
ENDSEC
0
EOF
