0
SECTION
2
ENTITIES
0
LINE
8
0
10
16
20
28.6361778
11
16
21
37.1410938
0
LINE
8
0
10
16
20
37.1410938
11
16
21
47.7076323
0
LINE
8
0
10
16
20
47.7076323
11
16
21
51.2409328
0
LINE
8
0
10
16
20
51.2409328
11
16
21
55.9951281
0
LINE
8
0
10
16
20
55.9951281
11
16
21
56.2807354
0
LINE
8
0
10
16
20
56.2807354
11
16
21
56.5900413
0
LINE
8
0
10
16
20
56.5900413
11
16
21
57.6624745
0
LINE
8
0
10
16
20
57.6624745
11
16
21
58.7627173
0
LINE
8
0
10
16
20
58.7627173
11
16
21
59.9554989
0
LINE
8
0
10
16
20
59.9554989
11
16
21
61.3300021
0
LINE
8
0
10
16
20
61.3300021
11
16
21
63.0304598
0
LINE
8
0
10
16
20
63.0304598
11
16
21
63.9040642
0
LINE
8
0
10
16
20
63.9040642
11
15.9543408
21
64.4916322
0
LINE
8
0
10
15.9543408
20
64.4916322
11
15.93185
21
64.7375288
0
LINE
8
0
10
15.93185
20
64.7375288
11
15.8492706
21
65.0362463
0
LINE
8
0
10
15.8492706
20
65.0362463
11
15.73205
21
65.4602723
0
LINE
8
0
10
15.73205
20
65.4602723
11
15.4562426
21
65.9988463
0
LINE
8
0
10
15.4562426
20
65.9988463
11
15.41421
21
66.0809234
0
LINE
8
0
10
15.41421
20
66.0809234
11
15.2306168
21
66.2920031
0
LINE
8
0
10
15.2306168
20
66.2920031
11
15
21
66.5289504
0
LINE
8
0
10
15
20
66.5289504
11
14.945491
21
66.5591839
0
LINE
8
0
10
14.945491
20
66.5591839
11
14.51764
21
66.7964874
0
LINE
8
0
10
14.51764
20
66.7964874
11
14.4032984
21
66.816644
0
LINE
8
0
10
14.4032984
20
66.816644
11
14
21
66.8877419
0
LINE
8
0
10
14
20
66.8877419
11
11.5920828
21
66.8877419
0
LINE
8
0
10
11.5920828
20
66.8877419
11
4.4
21
66.8877419
0
LINE
8
0
10
4.4
20
66.8877419
11
4.27441792
21
66.8656037
0
LINE
8
0
10
4.27441792
20
66.8656037
11
3.882362
21
66.7964874
0
LINE
8
0
10
3.882362
20
66.7964874
11
3.78877686
21
66.7445803
0
LINE
8
0
10
3.78877686
20
66.7445803
11
3.4
21
66.5289504
0
LINE
8
0
10
3.4
20
66.5289504
11
3.36375598
21
66.4917121
0
LINE
8
0
10
3.36375598
20
66.4917121
11
3.16938101
21
66.2920031
0
LINE
8
0
10
3.16938101
20
66.2920031
11
3.01691263
21
66.1167095
0
LINE
8
0
10
3.01691263
20
66.1167095
11
2.985786
21
66.0809234
0
LINE
8
0
10
2.985786
20
66.0809234
11
2.75901118
21
65.6380906
0
LINE
8
0
10
2.75901118
20
65.6380906
11
2.667949
21
65.4602723
0
LINE
8
0
10
2.667949
20
65.4602723
11
2.5738065
21
65.1197285
0
LINE
8
0
10
2.5738065
20
65.1197285
11
2.468148
21
64.7375288
0
LINE
8
0
10
2.468148
20
64.7375288
11
2.44565782
21
64.4916322
0
LINE
8
0
10
2.44565782
20
64.4916322
11
2.4
21
63.9040642
0
LINE
8
0
10
2.4
20
63.9040642
11
2.4
21
63.2304542
0
LINE
8
0
10
2.4
20
63.2304542
11
2.4
21
63.2002238
0
LINE
8
0
10
2.4
20
63.2002238
11
2.4
21
61.7009621
0
LINE
8
0
10
2.4
20
61.7009621
11
2.4
21
61.6151782
0
LINE
8
0
10
2.4
20
61.6151782
11
2.4
21
60.2609148
0
LINE
8
0
10
2.4
20
60.2609148
11
2.4
21
59.021109
0
LINE
8
0
10
2.4
20
59.021109
11
2.4
21
58.8779363
0
LINE
8
0
10
2.4
20
58.8779363
11
2.4
21
57.6836039
0
LINE
8
0
10
2.4
20
57.6836039
11
2.4
21
57.5283194
0
LINE
8
0
10
2.4
20
57.5283194
11
2.4
21
56.3443773
0
LINE
8
0
10
2.4
20
56.3443773
11
2.4
21
56.192237
0
LINE
8
0
10
2.4
20
56.192237
11
2.4
21
56.0658131
0
LINE
8
0
10
2.4
20
56.0658131
11
2.4
21
55.9749279
0
LINE
8
0
10
2.4
20
55.9749279
11
2.4
21
54.7798138
0
LINE
8
0
10
2.4
20
54.7798138
11
2.4
21
53.5672383
0
LINE
8
0
10
2.4
20
53.5672383
11
2.4
21
51.2409328
0
LINE
8
0
10
2.4
20
51.2409328
11
2.4
21
47.7076323
0
LINE
8
0
10
2.4
20
47.7076323
11
2.4
21
37.1410938
0
LINE
8
0
10
2.4
20
37.1410938
11
2.4
21
28.6361778
0
LINE
8
0
10
2.4
20
28.6361778
11
7.72033689
21
28.6361778
0
LINE
8
0
10
7.72033689
20
28.6361778
11
16
21
28.6361778
0
LINE
8
0
10
16
20
28.6361778
11
16
21
28.6361778
0
LINE
8
0
10
16
20
15.5853245
11
16
21
23.3638222
0
LINE
8
0
10
16
20
23.3638222
11
10.6796631
21
23.3638222
0
LINE
8
0
10
10.6796631
20
23.3638222
11
2.4
21
23.3638222
0
LINE
8
0
10
2.4
20
23.3638222
11
2.4
21
15.5853245
0
LINE
8
0
10
2.4
20
15.5853245
11
2.4
21
8.00955612
0
LINE
8
0
10
2.4
20
8.00955612
11
2.4
21
3.74552406
0
LINE
8
0
10
2.4
20
3.74552406
11
2.4
21
1.84132043
0
LINE
8
0
10
2.4
20
1.84132043
11
2.4
21
0.305394143
0
LINE
8
0
10
2.4
20
0.305394143
11
2.4
21
-1.01559346
0
LINE
8
0
10
2.4
20
-1.01559346
11
2.4
21
-1.13167648
0
LINE
8
0
10
2.4
20
-1.13167648
11
2.4
21
-1.27653056
0
LINE
8
0
10
2.4
20
-1.27653056
11
2.4
21
-1.4359105
0
LINE
8
0
10
2.4
20
-1.4359105
11
2.4
21
-2.64341065
0
LINE
8
0
10
2.4
20
-2.64341065
11
2.4
21
-2.79849576
0
LINE
8
0
10
2.4
20
-2.79849576
11
2.4
21
-4.03367385
0
LINE
8
0
10
2.4
20
-4.03367385
11
2.4
21
-5.35063436
0
LINE
8
0
10
2.4
20
-5.35063436
11
2.4
21
-5.47041743
0
LINE
8
0
10
2.4
20
-5.47041743
11
2.4
21
-6.90432186
0
LINE
8
0
10
2.4
20
-6.90432186
11
2.4
21
-6.98286171
0
LINE
8
0
10
2.4
20
-6.98286171
11
2.4
21
-8.58941294
0
LINE
8
0
10
2.4
20
-8.58941294
11
2.4
21
-9.16884098
0
LINE
8
0
10
2.4
20
-9.16884098
11
2.4577945
21
-9.90115719
0
LINE
8
0
10
2.4577945
20
-9.90115719
11
2.468148
21
-10.0118135
0
LINE
8
0
10
2.468148
20
-10.0118135
11
2.50149407
21
-10.1298445
0
LINE
8
0
10
2.50149407
20
-10.1298445
11
2.667949
21
-10.7190208
0
LINE
8
0
10
2.667949
20
-10.7190208
11
2.86100279
21
-11.0878894
0
LINE
8
0
10
2.86100279
20
-11.0878894
11
2.985786
21
-11.3263141
0
LINE
8
0
10
2.985786
20
-11.3263141
11
3.35513841
21
-11.7418406
0
LINE
8
0
10
3.35513841
20
-11.7418406
11
3.4
21
-11.7923116
0
LINE
8
0
10
3.4
20
-11.7923116
11
3.74406665
21
-12.0012629
0
LINE
8
0
10
3.74406665
20
-12.0012629
11
3.882362
21
-12.0764502
0
LINE
8
0
10
3.882362
20
-12.0764502
11
3.89855722
21
-12.0792487
0
LINE
8
0
10
3.89855722
20
-12.0792487
11
4.4
21
-12.1658931
0
LINE
8
0
10
4.4
20
-12.1658931
11
5.0340402
21
-12.1658931
0
LINE
8
0
10
5.0340402
20
-12.1658931
11
14
21
-12.1658931
0
LINE
8
0
10
14
20
-12.1658931
11
14.0331491
21
-12.160165
0
LINE
8
0
10
14.0331491
20
-12.160165
11
14.51764
21
-12.0764502
0
LINE
8
0
10
14.51764
20
-12.0764502
11
14.5310212
21
-12.0691753
0
LINE
8
0
10
14.5310212
20
-12.0691753
11
14.6559348
21
-12.0012629
0
LINE
8
0
10
14.6559348
20
-12.0012629
11
14.9636691
21
-11.8143748
0
LINE
8
0
10
14.9636691
20
-11.8143748
11
15
21
-11.7923116
0
LINE
8
0
10
15
20
-11.7923116
11
15.3182735
21
-11.434248
0
LINE
8
0
10
15.3182735
20
-11.434248
11
15.41421
21
-11.3263141
0
LINE
8
0
10
15.41421
20
-11.3263141
11
15.5963186
21
-10.9783624
0
LINE
8
0
10
15.5963186
20
-10.9783624
11
15.73205
21
-10.7190208
0
LINE
8
0
10
15.73205
20
-10.7190208
11
15.8008238
21
-10.4755886
0
LINE
8
0
10
15.8008238
20
-10.4755886
11
15.93185
21
-10.0118135
0
LINE
8
0
10
15.93185
20
-10.0118135
11
15.9422038
21
-9.90115719
0
LINE
8
0
10
15.9422038
20
-9.90115719
11
16
21
-9.16884098
0
LINE
8
0
10
16
20
-9.16884098
11
16
21
-8.4250975
0
LINE
8
0
10
16
20
-8.4250975
11
16
21
-8.36097551
0
LINE
8
0
10
16
20
-8.36097551
11
16
21
-6.39099644
0
LINE
8
0
10
16
20
-6.39099644
11
16
21
-4.88302515
0
LINE
8
0
10
16
20
-4.88302515
11
16
21
-3.62937209
0
LINE
8
0
10
16
20
-3.62937209
11
16
21
-2.51159919
0
LINE
8
0
10
16
20
-2.51159919
11
16
21
-1.44994609
0
LINE
8
0
10
16
20
-1.44994609
11
16
21
-1.1043857
0
LINE
8
0
10
16
20
-1.1043857
11
16
21
-0.79324404
0
LINE
8
0
10
16
20
-0.79324404
11
16
21
3.74552406
0
LINE
8
0
10
16
20
3.74552406
11
16
21
8.00955612
0
LINE
8
0
10
16
20
8.00955612
11
16
21
15.5853245
0
LINE
8
0
10
16
20
15.5853245
11
16
21
15.5853245
0
ENDSEC
0
EOF
