0
SECTION
2
ENTITIES
0
LINE
8
0
10
16
20
57.6205126
11
16
21
58.934393
0
LINE
8
0
10
16
20
58.934393
11
16
21
60.3587808
0
LINE
8
0
10
16
20
60.3587808
11
16
21
62.0001756
0
LINE
8
0
10
16
20
62.0001756
11
16
21
62.1582442
0
LINE
8
0
10
16
20
62.1582442
11
15.9323441
21
63.1932193
0
LINE
8
0
10
15.9323441
20
63.1932193
11
15.93185
21
63.1994517
0
LINE
8
0
10
15.93185
20
63.1994517
11
15.9296865
21
63.2084637
0
LINE
8
0
10
15.9296865
20
63.2084637
11
15.73205
21
64.0317095
0
LINE
8
0
10
15.73205
20
64.0317095
11
15.5070667
21
64.5375988
0
LINE
8
0
10
15.5070667
20
64.5375988
11
15.41421
21
64.7463893
0
LINE
8
0
10
15.41421
20
64.7463893
11
15.1294937
21
65.1233296
0
LINE
8
0
10
15.1294937
20
65.1233296
11
15
21
65.2722094
0
LINE
8
0
10
15
20
65.2722094
11
14.960949
21
65.296446
0
LINE
8
0
10
14.960949
20
65.296446
11
14.51764
21
65.5715868
0
LINE
8
0
10
14.51764
20
65.5715868
11
14.4042319
21
65.5939587
0
LINE
8
0
10
14.4042319
20
65.5939587
11
14
21
65.6736979
0
LINE
8
0
10
14
20
65.6736979
11
11.5404108
21
65.6736979
0
LINE
8
0
10
11.5404108
20
65.6736979
11
4.4
21
65.6736979
0
LINE
8
0
10
4.4
20
65.6736979
11
4.27284427
21
65.6486139
0
LINE
8
0
10
4.27284427
20
65.6486139
11
3.882362
21
65.5715868
0
LINE
8
0
10
3.882362
20
65.5715868
11
3.79261128
21
65.5158843
0
LINE
8
0
10
3.79261128
20
65.5158843
11
3.4
21
65.2722094
0
LINE
8
0
10
3.4
20
65.2722094
11
3.37572537
21
65.2443007
0
LINE
8
0
10
3.37572537
20
65.2443007
11
3.27050504
21
65.1233296
0
LINE
8
0
10
3.27050504
20
65.1233296
11
3.04452442
21
64.8241555
0
LINE
8
0
10
3.04452442
20
64.8241555
11
2.985786
21
64.7463893
0
LINE
8
0
10
2.985786
20
64.7463893
11
2.79280381
21
64.3124482
0
LINE
8
0
10
2.79280381
20
64.3124482
11
2.667949
21
64.0317095
0
LINE
8
0
10
2.667949
20
64.0317095
11
2.60363245
21
63.7638055
0
LINE
8
0
10
2.60363245
20
63.7638055
11
2.468148
21
63.1994517
0
LINE
8
0
10
2.468148
20
63.1994517
11
2.46765395
21
63.1932193
0
LINE
8
0
10
2.46765395
20
63.1932193
11
2.4
21
62.1582442
0
LINE
8
0
10
2.4
20
62.1582442
11
2.4
21
62.0216721
0
LINE
8
0
10
2.4
20
62.0216721
11
2.4
21
62.0167011
0
LINE
8
0
10
2.4
20
62.0167011
11
2.4
21
60.4759693
0
LINE
8
0
10
2.4
20
60.4759693
11
2.4
21
59.0654547
0
LINE
8
0
10
2.4
20
59.0654547
11
2.4
21
58.9928345
0
LINE
8
0
10
2.4
20
58.9928345
11
2.4
21
57.6323574
0
LINE
8
0
10
2.4
20
57.6323574
11
2.4
21
57.5453075
0
LINE
8
0
10
2.4
20
57.5453075
11
2.4
21
56.1983484
0
LINE
8
0
10
2.4
20
56.1983484
11
2.4
21
56.1107213
0
LINE
8
0
10
2.4
20
56.1107213
11
2.4
21
56.0379059
0
LINE
8
0
10
2.4
20
56.0379059
11
2.4
21
55.9855594
0
LINE
8
0
10
2.4
20
55.9855594
11
2.4
21
55.2972184
0
LINE
8
0
10
2.4
20
55.2972184
11
2.4
21
54.5988202
0
LINE
8
0
10
2.4
20
54.5988202
11
2.4
21
53.2589552
0
LINE
8
0
10
2.4
20
53.2589552
11
2.4
21
51.2239062
0
LINE
8
0
10
2.4
20
51.2239062
11
2.4
21
45.1379751
0
LINE
8
0
10
2.4
20
45.1379751
11
2.4
21
26.6472764
0
LINE
8
0
10
2.4
20
26.6472764
11
13.967045
21
26.6472764
0
LINE
8
0
10
13.967045
20
26.6472764
11
16
21
26.6472764
0
LINE
8
0
10
16
20
26.6472764
11
16
21
45.1379751
0
LINE
8
0
10
16
20
45.1379751
11
16
21
51.2239062
0
LINE
8
0
10
16
20
51.2239062
11
16
21
53.2589552
0
LINE
8
0
10
16
20
53.2589552
11
16
21
55.997194
0
LINE
8
0
10
16
20
55.997194
11
16
21
56.1616931
0
LINE
8
0
10
16
20
56.1616931
11
16
21
56.3398417
0
LINE
8
0
10
16
20
56.3398417
11
16
21
57.6205126
0
LINE
8
0
10
16
20
57.6205126
11
16
21
57.6205126
0
LINE
8
0
10
16
20
8.44134467
11
16
21
25.3527236
0
LINE
8
0
10
16
20
25.3527236
11
4.43295503
21
25.3527236
0
LINE
8
0
10
4.43295503
20
25.3527236
11
2.4
21
25.3527236
0
LINE
8
0
10
2.4
20
25.3527236
11
2.4
21
8.44134467
0
LINE
8
0
10
2.4
20
8.44134467
11
2.4
21
4.07798531
0
LINE
8
0
10
2.4
20
4.07798531
11
2.4
21
1.62206226
0
LINE
8
0
10
2.4
20
1.62206226
11
2.4
21
0.525312165
0
LINE
8
0
10
2.4
20
0.525312165
11
2.4
21
-0.359323956
0
LINE
8
0
10
2.4
20
-0.359323956
11
2.4
21
-1.12016343
0
LINE
8
0
10
2.4
20
-1.12016343
11
2.4
21
-1.18702291
0
LINE
8
0
10
2.4
20
-1.18702291
11
2.4
21
-1.27045345
0
LINE
8
0
10
2.4
20
-1.27045345
11
2.4
21
-1.36225033
0
LINE
8
0
10
2.4
20
-1.36225033
11
2.4
21
-2.7377156
0
LINE
8
0
10
2.4
20
-2.7377156
11
2.4
21
-2.82456228
0
LINE
8
0
10
2.4
20
-2.82456228
11
2.4
21
-4.22972433
0
LINE
8
0
10
2.4
20
-4.22972433
11
2.4
21
-5.72792362
0
LINE
8
0
10
2.4
20
-5.72792362
11
2.4
21
-5.77264043
0
LINE
8
0
10
2.4
20
-5.77264043
11
2.4
21
-7.39809702
0
LINE
8
0
10
2.4
20
-7.39809702
11
2.4
21
-7.39922255
0
LINE
8
0
10
2.4
20
-7.39922255
11
2.4
21
-7.43228164
0
LINE
8
0
10
2.4
20
-7.43228164
11
2.40934249
21
-7.57275568
0
LINE
8
0
10
2.40934249
20
-7.57275568
11
2.468148
21
-8.44279418
0
LINE
8
0
10
2.468148
20
-8.44279418
11
2.52005557
21
-8.69521726
0
LINE
8
0
10
2.52005557
20
-8.69521726
11
2.667949
21
-9.29712533
0
LINE
8
0
10
2.667949
20
-9.29712533
11
2.81762182
21
-9.62595017
0
LINE
8
0
10
2.81762182
20
-9.62595017
11
2.985786
21
-9.99540041
0
LINE
8
0
10
2.985786
20
-9.99540041
11
3.34863911
21
-10.4647813
0
LINE
8
0
10
3.34863911
20
-10.4647813
11
3.4
21
-10.5312191
0
LINE
8
0
10
3.4
20
-10.5312191
11
3.68690692
21
-10.731557
0
LINE
8
0
10
3.68690692
20
-10.731557
11
3.882362
21
-10.8502539
0
LINE
8
0
10
3.882362
20
-10.8502539
11
3.91108639
21
-10.8557981
0
LINE
8
0
10
3.91108639
20
-10.8557981
11
4.4
21
-10.9501677
0
LINE
8
0
10
4.4
20
-10.9501677
11
5.33737829
21
-10.9501677
0
LINE
8
0
10
5.33737829
20
-10.9501677
11
14
21
-10.9501677
0
LINE
8
0
10
14
20
-10.9501677
11
14.0485964
21
-10.940788
0
LINE
8
0
10
14.0485964
20
-10.940788
11
14.51764
21
-10.8502539
0
LINE
8
0
10
14.51764
20
-10.8502539
11
14.5406164
21
-10.8363003
0
LINE
8
0
10
14.5406164
20
-10.8363003
11
14.7130943
21
-10.731557
0
LINE
8
0
10
14.7130943
20
-10.731557
11
14.9623341
21
-10.5575204
0
LINE
8
0
10
14.9623341
20
-10.5575204
11
15
21
-10.5312191
0
LINE
8
0
10
15
20
-10.5312191
11
15.3027091
21
-10.1396321
0
LINE
8
0
10
15.3027091
20
-10.1396321
11
15.41421
21
-9.99540041
0
LINE
8
0
10
15.41421
20
-9.99540041
11
15.5720634
21
-9.64860677
0
LINE
8
0
10
15.5720634
20
-9.64860677
11
15.73205
21
-9.29712533
0
LINE
8
0
10
15.73205
20
-9.29712533
11
15.777148
21
-9.11358445
0
LINE
8
0
10
15.777148
20
-9.11358445
11
15.8799427
21
-8.69521726
0
LINE
8
0
10
15.8799427
20
-8.69521726
11
15.9144064
21
-8.52762087
0
LINE
8
0
10
15.9144064
20
-8.52762087
11
15.93185
21
-8.44279418
0
LINE
8
0
10
15.93185
20
-8.44279418
11
15.9906572
21
-7.57275568
0
LINE
8
0
10
15.9906572
20
-7.57275568
11
16
21
-7.43228164
0
LINE
8
0
10
16
20
-7.43228164
11
16
21
-7.39074076
0
LINE
8
0
10
16
20
-7.39074076
11
16
21
-5.55335812
0
LINE
8
0
10
16
20
-5.55335812
11
16
21
-4.0258487
0
LINE
8
0
10
16
20
-4.0258487
11
16
21
-2.66390202
0
LINE
8
0
10
16
20
-2.66390202
11
16
21
-1.3703343
0
LINE
8
0
10
16
20
-1.3703343
11
16
21
-1.17130444
0
LINE
8
0
10
16
20
-1.17130444
11
16
21
-0.992098475
0
LINE
8
0
10
16
20
-0.992098475
11
16
21
1.62206226
0
LINE
8
0
10
16
20
1.62206226
11
16
21
4.07798531
0
LINE
8
0
10
16
20
4.07798531
11
16
21
8.44134467
0
LINE
8
0
10
16
20
8.44134467
11
16
21
8.44134467
0
ENDSEC
0
EOF
