0
SECTION
2
ENTITIES
0
LINE
8
0
10
16
20
51.927161
11
16
21
46.7373514
0
LINE
8
0
10
16
20
46.7373514
11
16
21
26.2494962
0
LINE
8
0
10
16
20
26.2494962
11
15.2163866
21
26.2494962
0
LINE
8
0
10
15.2163866
20
26.2494962
11
2.4
21
26.2494962
0
LINE
8
0
10
2.4
20
26.2494962
11
2.4
21
46.7373514
0
LINE
8
0
10
2.4
20
46.7373514
11
2.4
21
51.927161
0
LINE
8
0
10
2.4
20
51.927161
11
2.4
21
53.6625597
0
LINE
8
0
10
2.4
20
53.6625597
11
2.4
21
54.8051366
0
LINE
8
0
10
2.4
20
54.8051366
11
2.4
21
55.4006993
0
LINE
8
0
10
2.4
20
55.4006993
11
2.4
21
55.9876857
0
LINE
8
0
10
2.4
20
55.9876857
11
2.4
21
56.0323244
0
LINE
8
0
10
2.4
20
56.0323244
11
2.4
21
56.0944182
0
LINE
8
0
10
2.4
20
56.0944182
11
2.4
21
56.1691427
0
LINE
8
0
10
2.4
20
56.1691427
11
2.4
21
57.5487052
0
LINE
8
0
10
2.4
20
57.5487052
11
2.4
21
57.6221081
0
LINE
8
0
10
2.4
20
57.6221081
11
2.4
21
59.0158141
0
LINE
8
0
10
2.4
20
59.0158141
11
2.4
21
59.0743238
0
LINE
8
0
10
2.4
20
59.0743238
11
2.4
21
60.5189802
0
LINE
8
0
10
2.4
20
60.5189802
11
2.4
21
61.6880623
0
LINE
8
0
10
2.4
20
61.6880623
11
2.41622227
21
61.9994279
0
LINE
8
0
10
2.41622227
20
61.9994279
11
2.468148
21
62.7860803
0
LINE
8
0
10
2.468148
20
62.7860803
11
2.50651257
21
62.9772541
0
LINE
8
0
10
2.50651257
20
62.9772541
11
2.57784626
21
63.3327195
0
LINE
8
0
10
2.57784626
20
63.3327195
11
2.63932416
21
63.5888027
0
LINE
8
0
10
2.63932416
20
63.5888027
11
2.667949
21
63.7080365
0
LINE
8
0
10
2.667949
20
63.7080365
11
2.85077138
21
64.1191165
0
LINE
8
0
10
2.85077138
20
64.1191165
11
2.985786
21
64.4227113
0
LINE
8
0
10
2.985786
20
64.4227113
11
3.12350201
21
64.6050392
0
LINE
8
0
10
3.12350201
20
64.6050392
11
3.4
21
64.9710929
0
LINE
8
0
10
3.4
20
64.9710929
11
3.46515064
21
65.0176552
0
LINE
8
0
10
3.46515064
20
65.0176552
11
3.86927982
21
65.3064813
0
LINE
8
0
10
3.86927982
20
65.3064813
11
3.88073633
21
65.3135918
0
LINE
8
0
10
3.88073633
20
65.3135918
11
3.882362
21
65.3146007
0
LINE
8
0
10
3.882362
20
65.3146007
11
4.37453273
21
65.4116869
0
LINE
8
0
10
4.37453273
20
65.4116869
11
4.4
21
65.4167109
0
LINE
8
0
10
4.4
20
65.4167109
11
13.5073834
21
65.4167109
0
LINE
8
0
10
13.5073834
20
65.4167109
11
14
21
65.4167109
0
LINE
8
0
10
14
20
65.4167109
11
14.5155858
21
65.3150059
0
LINE
8
0
10
14.5155858
20
65.3150059
11
14.51764
21
65.3146007
0
LINE
8
0
10
14.51764
20
65.3146007
11
14.5307221
21
65.3064813
0
LINE
8
0
10
14.5307221
20
65.3064813
11
15
21
64.9710929
0
LINE
8
0
10
15
20
64.9710929
11
15.0916447
21
64.8497605
0
LINE
8
0
10
15.0916447
20
64.8497605
11
15.41421
21
64.4227113
0
LINE
8
0
10
15.41421
20
64.4227113
11
15.6319185
21
63.9331885
0
LINE
8
0
10
15.6319185
20
63.9331885
11
15.73205
21
63.7080365
0
LINE
8
0
10
15.73205
20
63.7080365
11
15.8221523
21
63.3327195
0
LINE
8
0
10
15.8221523
20
63.3327195
11
15.93185
21
62.7860803
0
LINE
8
0
10
15.93185
20
62.7860803
11
15.9837773
21
61.9994279
0
LINE
8
0
10
15.9837773
20
61.9994279
11
16
21
61.6880623
0
LINE
8
0
10
16
20
61.6880623
11
16
21
60.4394372
0
LINE
8
0
10
16
20
60.4394372
11
16
21
58.9687281
0
LINE
8
0
10
16
20
58.9687281
11
16
21
57.6121202
0
LINE
8
0
10
16
20
57.6121202
11
16
21
56.2898018
0
LINE
8
0
10
16
20
56.2898018
11
16
21
56.1378846
0
LINE
8
0
10
16
20
56.1378846
11
16
21
55.9976071
0
LINE
8
0
10
16
20
55.9976071
11
16
21
53.6625597
0
LINE
8
0
10
16
20
53.6625597
11
16
21
51.927161
0
LINE
8
0
10
16
20
51.927161
11
16
21
51.927161
0
LINE
8
0
10
16
20
-1.18468819
11
16
21
-1.03186936
0
LINE
8
0
10
16
20
-1.03186936
11
16
21
1.1973699
0
LINE
8
0
10
16
20
1.1973699
11
16
21
3.29167115
0
LINE
8
0
10
16
20
3.29167115
11
16
21
7.0125487
0
LINE
8
0
10
16
20
7.0125487
11
16
21
25.7505038
0
LINE
8
0
10
16
20
25.7505038
11
3.18361342
21
25.7505038
0
LINE
8
0
10
3.18361342
20
25.7505038
11
2.4
21
25.7505038
0
LINE
8
0
10
2.4
20
25.7505038
11
2.4
21
7.0125487
0
LINE
8
0
10
2.4
20
7.0125487
11
2.4
21
3.29167115
0
LINE
8
0
10
2.4
20
3.29167115
11
2.4
21
1.1973699
0
LINE
8
0
10
2.4
20
1.1973699
11
2.4
21
0.262110511
0
LINE
8
0
10
2.4
20
0.262110511
11
2.4
21
-0.492267576
0
LINE
8
0
10
2.4
20
-0.492267576
11
2.4
21
-1.14107742
0
LINE
8
0
10
2.4
20
-1.14107742
11
2.4
21
-1.19809219
0
LINE
8
0
10
2.4
20
-1.19809219
11
2.4
21
-1.26923802
0
LINE
8
0
10
2.4
20
-1.26923802
11
2.4
21
-1.3475183
0
LINE
8
0
10
2.4
20
-1.3475183
11
2.4
21
-2.75657659
0
LINE
8
0
10
2.4
20
-2.75657659
11
2.4
21
-2.82977559
0
LINE
8
0
10
2.4
20
-2.82977559
11
2.4
21
-4.26893443
0
LINE
8
0
10
2.4
20
-4.26893443
11
2.4
21
-5.80338147
0
LINE
8
0
10
2.4
20
-5.80338147
11
2.4
21
-5.83308503
0
LINE
8
0
10
2.4
20
-5.83308503
11
2.4
21
-6.94171757
0
LINE
8
0
10
2.4
20
-6.94171757
11
2.42233289
21
-7.36250471
0
LINE
8
0
10
2.42233289
20
-7.36250471
11
2.468148
21
-8.04034779
0
LINE
8
0
10
2.468148
20
-8.04034779
11
2.63349713
21
-8.84442964
0
LINE
8
0
10
2.63349713
20
-8.84442964
11
2.667949
21
-8.98464451
0
LINE
8
0
10
2.667949
20
-8.98464451
11
2.70281538
21
-9.06124448
0
LINE
8
0
10
2.70281538
20
-9.06124448
11
2.985786
21
-9.68292004
0
LINE
8
0
10
2.985786
20
-9.68292004
11
3.21979039
21
-9.98562435
0
LINE
8
0
10
3.21979039
20
-9.98562435
11
3.4
21
-10.2187342
0
LINE
8
0
10
3.4
20
-10.2187342
11
3.78752596
21
-10.4893311
0
LINE
8
0
10
3.78752596
20
-10.4893311
11
3.882362
21
-10.5555524
0
LINE
8
0
10
3.882362
20
-10.5555524
11
4.33848331
21
-10.6567835
0
LINE
8
0
10
4.33848331
20
-10.6567835
11
4.4
21
-10.6704372
0
LINE
8
0
10
4.4
20
-10.6704372
11
12.9228545
21
-10.6704372
0
LINE
8
0
10
12.9228545
20
-10.6704372
11
14
21
-10.6704372
0
LINE
8
0
10
14
20
-10.6704372
11
14.4371281
21
-10.573422
0
LINE
8
0
10
14.4371281
20
-10.573422
11
14.51764
21
-10.5555524
0
LINE
8
0
10
14.51764
20
-10.5555524
11
14.8678418
21
-10.3110171
0
LINE
8
0
10
14.8678418
20
-10.3110171
11
15
21
-10.2187342
0
LINE
8
0
10
15
20
-10.2187342
11
15.226587
21
-9.92561939
0
LINE
8
0
10
15.226587
20
-9.92561939
11
15.41421
21
-9.68292004
0
LINE
8
0
10
15.41421
20
-9.68292004
11
15.5160098
21
-9.45927241
0
LINE
8
0
10
15.5160098
20
-9.45927241
11
15.73205
21
-8.98464451
0
LINE
8
0
10
15.73205
20
-8.98464451
11
15.7425556
21
-8.94188855
0
LINE
8
0
10
15.7425556
20
-8.94188855
11
15.7665017
21
-8.84442964
0
LINE
8
0
10
15.7665017
20
-8.84442964
11
15.8762842
21
-8.3105592
0
LINE
8
0
10
15.8762842
20
-8.3105592
11
15.93185
21
-8.04034779
0
LINE
8
0
10
15.93185
20
-8.04034779
11
15.9776665
21
-7.36250471
0
LINE
8
0
10
15.9776665
20
-7.36250471
11
16
21
-6.94171757
0
LINE
8
0
10
16
20
-6.94171757
11
16
21
-5.68742472
0
LINE
8
0
10
16
20
-5.68742472
11
16
21
-4.10514402
0
LINE
8
0
10
16
20
-4.10514402
11
16
21
-2.69436258
0
LINE
8
0
10
16
20
-2.69436258
11
16
21
-1.35441195
0
LINE
8
0
10
16
20
-1.35441195
11
16
21
-1.18468819
0
LINE
8
0
10
16
20
-1.18468819
11
16
21
-1.18468819
0
ENDSEC
0
EOF
