0
SECTION
2
ENTITIES
0
LINE
8
0
10
16
20
64.2764766
11
16
21
65.9944579
0
LINE
8
0
10
16
20
65.9944579
11
16
21
68.3168218
0
LINE
8
0
10
16
20
68.3168218
11
15.9506493
21
68.7213251
0
LINE
8
0
10
15.9506493
20
68.7213251
11
15.93185
21
68.8666347
0
LINE
8
0
10
15.93185
20
68.8666347
11
15.7979123
21
69.2026183
0
LINE
8
0
10
15.7979123
20
69.2026183
11
15.73205
21
69.3678313
0
LINE
8
0
10
15.73205
20
69.3678313
11
15.5435317
21
69.6231002
0
LINE
8
0
10
15.5435317
20
69.6231002
11
15.41421
21
69.7982133
0
LINE
8
0
10
15.41421
20
69.7982133
11
15.1934535
21
69.9742194
0
LINE
8
0
10
15.1934535
20
69.9742194
11
15
21
70.1284586
0
LINE
8
0
10
15
20
70.1284586
11
14.762819
21
70.2305382
0
LINE
8
0
10
14.762819
20
70.2305382
11
14.51764
21
70.3360586
0
LINE
8
0
10
14.51764
20
70.3360586
11
14.2737931
21
70.369413
0
LINE
8
0
10
14.2737931
20
70.369413
11
14
21
70.4068649
0
LINE
8
0
10
14
20
70.4068649
11
9.5253094
21
70.4068649
0
LINE
8
0
10
9.5253094
20
70.4068649
11
4.4
21
70.4068649
0
LINE
8
0
10
4.4
20
70.4068649
11
4.15531435
21
70.3733956
0
LINE
8
0
10
4.15531435
20
70.3733956
11
3.882362
21
70.3360586
0
LINE
8
0
10
3.882362
20
70.3360586
11
3.64210109
21
70.2326539
0
LINE
8
0
10
3.64210109
20
70.2326539
11
3.4
21
70.1284586
0
LINE
8
0
10
3.4
20
70.1284586
11
3.17283869
21
69.9473476
0
LINE
8
0
10
3.17283869
20
69.9473476
11
2.985786
21
69.7982133
0
LINE
8
0
10
2.985786
20
69.7982133
11
2.78747772
21
69.5296853
0
LINE
8
0
10
2.78747772
20
69.5296853
11
2.667949
21
69.3678313
0
LINE
8
0
10
2.667949
20
69.3678313
11
2.52343471
21
69.0053188
0
LINE
8
0
10
2.52343471
20
69.0053188
11
2.468148
21
68.8666347
0
LINE
8
0
10
2.468148
20
68.8666347
11
2.44934922
21
68.7213251
0
LINE
8
0
10
2.44934922
20
68.7213251
11
2.4
21
68.3168218
0
LINE
8
0
10
2.4
20
68.3168218
11
2.4
21
67.2541542
0
LINE
8
0
10
2.4
20
67.2541542
11
2.4
21
65.1654318
0
LINE
8
0
10
2.4
20
65.1654318
11
2.4
21
64.803545
0
LINE
8
0
10
2.4
20
64.803545
11
2.4
21
63.4628881
0
LINE
8
0
10
2.4
20
63.4628881
11
2.4
21
62.5424918
0
LINE
8
0
10
2.4
20
62.5424918
11
2.4
21
62.0708567
0
LINE
8
0
10
2.4
20
62.0708567
11
2.4
21
61.4072199
0
LINE
8
0
10
2.4
20
61.4072199
11
2.4
21
60.8771042
0
LINE
8
0
10
2.4
20
60.8771042
11
2.4
21
60.3860628
0
LINE
8
0
10
2.4
20
60.3860628
11
2.4
21
59.9691281
0
LINE
8
0
10
2.4
20
59.9691281
11
2.4
21
59.4469544
0
LINE
8
0
10
2.4
20
59.4469544
11
2.4
21
59.0996207
0
LINE
8
0
10
2.4
20
59.0996207
11
2.4
21
58.7816424
0
LINE
8
0
10
2.4
20
58.7816424
11
2.4
21
58.2574861
0
LINE
8
0
10
2.4
20
58.2574861
11
2.4
21
57.9603353
0
LINE
8
0
10
2.4
20
57.9603353
11
2.4
21
57.4365837
0
LINE
8
0
10
2.4
20
57.4365837
11
2.4
21
57.1329329
0
LINE
8
0
10
2.4
20
57.1329329
11
2.4
21
56.6324218
0
LINE
8
0
10
2.4
20
56.6324218
11
2.4
21
56.216512
0
LINE
8
0
10
2.4
20
56.216512
11
2.4
21
55.9175177
0
LINE
8
0
10
2.4
20
55.9175177
11
2.4
21
51.985829
0
LINE
8
0
10
2.4
20
51.985829
11
2.4
21
47.9966961
0
LINE
8
0
10
2.4
20
47.9966961
11
2.4
21
40.3436116
0
LINE
8
0
10
2.4
20
40.3436116
11
2.4
21
39.3762389
0
LINE
8
0
10
2.4
20
39.3762389
11
14.4918867
21
39.3762389
0
LINE
8
0
10
14.4918867
20
39.3762389
11
16
21
39.3762389
0
LINE
8
0
10
16
20
39.3762389
11
16
21
40.3436116
0
LINE
8
0
10
16
20
40.3436116
11
16
21
55.9839724
0
LINE
8
0
10
16
20
55.9839724
11
16
21
56.4748749
0
LINE
8
0
10
16
20
56.4748749
11
15.7997025
21
56.9408986
0
LINE
8
0
10
15.7997025
20
56.9408986
11
15.6450572
21
57.8225416
0
LINE
8
0
10
15.6450572
20
57.8225416
11
15.6321393
21
57.8998436
0
LINE
8
0
10
15.6321393
20
57.8998436
11
15.7063434
21
58.7778132
0
LINE
8
0
10
15.7063434
20
58.7778132
11
15.7169357
21
58.8417063
0
LINE
8
0
10
15.7169357
20
58.8417063
11
16
21
59.6673647
0
LINE
8
0
10
16
20
59.6673647
11
16
21
59.8780197
0
LINE
8
0
10
16
20
59.8780197
11
16
21
59.9447597
0
LINE
8
0
10
16
20
59.9447597
11
16
21
62.0287467
0
LINE
8
0
10
16
20
62.0287467
11
16
21
64.2764766
0
LINE
8
0
10
16
20
64.2764766
11
16
21
64.2764766
0
LINE
8
0
10
16
20
21.2840191
11
16
21
23.7877795
0
LINE
8
0
10
16
20
23.7877795
11
16
21
28.7952974
0
LINE
8
0
10
16
20
28.7952974
11
16
21
30.7159795
0
LINE
8
0
10
16
20
30.7159795
11
16
21
31.6763211
0
LINE
8
0
10
16
20
31.6763211
11
3.90811329
21
31.6763211
0
LINE
8
0
10
3.90811329
20
31.6763211
11
2.4
21
31.6763211
0
LINE
8
0
10
2.4
20
31.6763211
11
2.4
21
31.1524984
0
LINE
8
0
10
2.4
20
31.1524984
11
2.4
21
30.7159795
0
LINE
8
0
10
2.4
20
30.7159795
11
2.4
21
26.9431959
0
LINE
8
0
10
2.4
20
26.9431959
11
2.4
21
23.7877795
0
LINE
8
0
10
2.4
20
23.7877795
11
2.4
21
22.6497066
0
LINE
8
0
10
2.4
20
22.6497066
11
2.4
21
21.2840191
0
LINE
8
0
10
2.4
20
21.2840191
11
6.33188671
21
21.2840191
0
LINE
8
0
10
6.33188671
20
21.2840191
11
16
21
21.2840191
0
LINE
8
0
10
16
20
21.2840191
11
16
21
21.2840191
0
LINE
8
0
10
16
20
12.6237605
11
16
21
15.1275209
0
LINE
8
0
10
16
20
15.1275209
11
12.0681133
21
15.1275209
0
LINE
8
0
10
12.0681133
20
15.1275209
11
2.4
21
15.1275209
0
LINE
8
0
10
2.4
20
15.1275209
11
2.4
21
14.0147385
0
LINE
8
0
10
2.4
20
14.0147385
11
2.4
21
12.6237605
0
LINE
8
0
10
2.4
20
12.6237605
11
2.4
21
8.94776509
0
LINE
8
0
10
2.4
20
8.94776509
11
2.4
21
3.89487188
0
LINE
8
0
10
2.4
20
3.89487188
11
2.4
21
-0.450915619
0
LINE
8
0
10
2.4
20
-0.450915619
11
2.4
21
-0.832805756
0
LINE
8
0
10
2.4
20
-0.832805756
11
2.4
21
-1.30934701
0
LINE
8
0
10
2.4
20
-1.30934701
11
2.4
21
-1.83367544
0
LINE
8
0
10
2.4
20
-1.83367544
11
2.4
21
-2.13416393
0
LINE
8
0
10
2.4
20
-2.13416393
11
2.4
21
-2.65773656
0
LINE
8
0
10
2.4
20
-2.65773656
11
2.4
21
-2.97500124
0
LINE
8
0
10
2.4
20
-2.97500124
11
2.4
21
-3.31327235
0
LINE
8
0
10
2.4
20
-3.31327235
11
2.4
21
-3.83841325
0
LINE
8
0
10
2.4
20
-3.83841325
11
2.4
21
-4.23793598
0
LINE
8
0
10
2.4
20
-4.23793598
11
2.4
21
-4.7345132
0
LINE
8
0
10
2.4
20
-4.7345132
11
2.4
21
-5.23337986
0
LINE
8
0
10
2.4
20
-5.23337986
11
2.4
21
-5.83379843
0
LINE
8
0
10
2.4
20
-5.83379843
11
2.4
21
-6.32454234
0
LINE
8
0
10
2.4
20
-6.32454234
11
2.4
21
-7.13352957
0
LINE
8
0
10
2.4
20
-7.13352957
11
2.4
21
-8.2312571
0
LINE
8
0
10
2.4
20
-8.2312571
11
2.4
21
-8.67134938
0
LINE
8
0
10
2.4
20
-8.67134938
11
2.4
21
-10.2862679
0
LINE
8
0
10
2.4
20
-10.2862679
11
2.4
21
-12.9695422
0
LINE
8
0
10
2.4
20
-12.9695422
11
2.4
21
-13.5875989
0
LINE
8
0
10
2.4
20
-13.5875989
11
2.40009006
21
-13.5946404
0
LINE
8
0
10
2.40009006
20
-13.5946404
11
2.40774641
21
-13.6578097
0
LINE
8
0
10
2.40774641
20
-13.6578097
11
2.45576329
21
-14.0456991
0
LINE
8
0
10
2.45576329
20
-14.0456991
11
2.468148
21
-14.1424161
0
LINE
8
0
10
2.468148
20
-14.1424161
11
2.47482009
21
-14.1596041
0
LINE
8
0
10
2.47482009
20
-14.1596041
11
2.54470931
21
-14.3396443
0
LINE
8
0
10
2.54470931
20
-14.3396443
11
2.6610962
21
-14.6325332
0
LINE
8
0
10
2.6610962
20
-14.6325332
11
2.67318178
21
-14.6547226
0
LINE
8
0
10
2.67318178
20
-14.6547226
11
2.95226841
21
-15.0312629
0
LINE
8
0
10
2.95226841
20
-15.0312629
11
2.98692896
21
-15.0742172
0
LINE
8
0
10
2.98692896
20
-15.0742172
11
3.02972019
21
-15.1092422
0
LINE
8
0
10
3.02972019
20
-15.1092422
11
3.37997763
21
-15.3867094
0
LINE
8
0
10
3.37997763
20
-15.3867094
11
3.44590769
21
-15.4228746
0
LINE
8
0
10
3.44590769
20
-15.4228746
11
3.82824489
21
-15.5864757
0
LINE
8
0
10
3.82824489
20
-15.5864757
11
3.91108491
21
-15.6113945
0
LINE
8
0
10
3.91108491
20
-15.6113945
11
4.31027547
21
-15.6655941
0
LINE
8
0
10
4.31027547
20
-15.6655941
11
4.4
21
-15.6750913
0
LINE
8
0
10
4.4
20
-15.6750913
11
11.7805952
21
-15.6750913
0
LINE
8
0
10
11.7805952
20
-15.6750913
11
14
21
-15.6750913
0
LINE
8
0
10
14
20
-15.6750913
11
14.0036736
21
-15.6750728
0
LINE
8
0
10
14.0036736
20
-15.6750728
11
14.0042099
21
-15.6750658
0
LINE
8
0
10
14.0042099
20
-15.6750658
11
14.0173044
21
-15.6746913
0
LINE
8
0
10
14.0173044
20
-15.6746913
11
14.0897241
21
-15.6655941
0
LINE
8
0
10
14.0897241
20
-15.6655941
11
14.4889162
21
-15.6113945
0
LINE
8
0
10
14.4889162
20
-15.6113945
11
14.499972
21
-15.6090353
0
LINE
8
0
10
14.499972
20
-15.6090353
11
14.5050076
21
-15.6078711
0
LINE
8
0
10
14.5050076
20
-15.6078711
11
14.5070831
21
-15.6073744
0
LINE
8
0
10
14.5070831
20
-15.6073744
11
14.5079013
21
-15.6071771
0
LINE
8
0
10
14.5079013
20
-15.6071771
11
14.5082184
21
-15.6070995
0
LINE
8
0
10
14.5082184
20
-15.6070995
11
14.5083404
21
-15.6070685
0
LINE
8
0
10
14.5083404
20
-15.6070685
11
14.5083869
21
-15.6070574
0
LINE
8
0
10
14.5083869
20
-15.6070574
11
14.5717571
21
-15.5864757
0
LINE
8
0
10
14.5717571
20
-15.5864757
11
14.9540927
21
-15.4228746
0
LINE
8
0
10
14.9540927
20
-15.4228746
11
14.9739178
21
-15.4137548
0
LINE
8
0
10
14.9739178
20
-15.4137548
11
14.9841569
21
-15.4084436
0
LINE
8
0
10
14.9841569
20
-15.4084436
11
14.9877343
21
-15.406496
0
LINE
8
0
10
14.9877343
20
-15.406496
11
14.9888093
21
-15.4059007
0
LINE
8
0
10
14.9888093
20
-15.4059007
11
14.9891156
21
-15.4057292
0
LINE
8
0
10
14.9891156
20
-15.4057292
11
14.9892022
21
-15.4056811
0
LINE
8
0
10
14.9892022
20
-15.4056811
11
14.9892273
21
-15.4056676
0
LINE
8
0
10
14.9892273
20
-15.4056676
11
15.0200216
21
-15.3867094
0
LINE
8
0
10
15.0200216
20
-15.3867094
11
15.038373
21
-15.3736038
0
LINE
8
0
10
15.038373
20
-15.3736038
11
15.3837642
21
-15.0996095
0
LINE
8
0
10
15.3837642
20
-15.0996095
11
15.3981503
21
-15.0880426
0
LINE
8
0
10
15.3981503
20
-15.0880426
11
15.4035521
21
-15.0832864
0
LINE
8
0
10
15.4035521
20
-15.0832864
11
15.4047642
21
-15.0821848
0
LINE
8
0
10
15.4047642
20
-15.0821848
11
15.4050006
21
-15.0819667
0
LINE
8
0
10
15.4050006
20
-15.0819667
11
15.405046
21
-15.0819257
0
LINE
8
0
10
15.405046
20
-15.0819257
11
15.4130673
21
-15.0742172
0
LINE
8
0
10
15.4130673
20
-15.0742172
11
15.4221577
21
-15.0645363
0
LINE
8
0
10
15.4221577
20
-15.0645363
11
15.4221889
21
-15.0645024
0
LINE
8
0
10
15.4221889
20
-15.0645024
11
15.4223078
21
-15.0643678
0
LINE
8
0
10
15.4223078
20
-15.0643678
11
15.4227694
21
-15.0638482
0
LINE
8
0
10
15.4227694
20
-15.0638482
11
15.4244445
21
-15.0619324
0
LINE
8
0
10
15.4244445
20
-15.0619324
11
15.4293649
21
-15.0561001
0
LINE
8
0
10
15.4293649
20
-15.0561001
11
15.4378309
21
-15.0452836
0
LINE
8
0
10
15.4378309
20
-15.0452836
11
15.7223086
21
-14.6611099
0
LINE
8
0
10
15.7223086
20
-14.6611099
11
15.7252893
21
-14.6569693
0
LINE
8
0
10
15.7252893
20
-14.6569693
11
15.7264736
21
-14.6552361
0
LINE
8
0
10
15.7264736
20
-14.6552361
11
15.7268174
21
-14.6547226
0
LINE
8
0
10
15.7268174
20
-14.6547226
11
15.726871
21
-14.6546427
0
LINE
8
0
10
15.726871
20
-14.6546427
11
15.7269006
21
-14.6545975
0
LINE
8
0
10
15.7269006
20
-14.6545975
11
15.7269174
21
-14.6545724
0
LINE
8
0
10
15.7269174
20
-14.6545724
11
15.7269264
21
-14.6545588
0
LINE
8
0
10
15.7269264
20
-14.6545588
11
15.7269316
21
-14.6545511
0
LINE
8
0
10
15.7269316
20
-14.6545511
11
15.7389029
21
-14.6325332
0
LINE
8
0
10
15.7389029
20
-14.6325332
11
15.7406058
21
-14.6282443
0
LINE
8
0
10
15.7406058
20
-14.6282443
11
15.8552891
21
-14.3396443
0
LINE
8
0
10
15.8552891
20
-14.3396443
11
15.93185
21
-14.1424161
0
LINE
8
0
10
15.93185
20
-14.1424161
11
15.9442351
21
-14.0456991
0
LINE
8
0
10
15.9442351
20
-14.0456991
11
15.9995796
21
-13.6030287
0
LINE
8
0
10
15.9995796
20
-13.6030287
11
15.9998836
21
-13.5956121
0
LINE
8
0
10
15.9998836
20
-13.5956121
11
15.9998868
21
-13.5955021
0
LINE
8
0
10
15.9998868
20
-13.5955021
11
15.9999095
21
-13.5946404
0
LINE
8
0
10
15.9999095
20
-13.5946404
11
16
21
-13.5875989
0
LINE
8
0
10
16
20
-13.5875989
11
16
21
-12.2757049
0
LINE
8
0
10
16
20
-12.2757049
11
16
21
-10.6693124
0
LINE
8
0
10
16
20
-10.6693124
11
16
21
-7.09237762
0
LINE
8
0
10
16
20
-7.09237762
11
16
21
-4.99722225
0
LINE
8
0
10
16
20
-4.99722225
11
15.8473022
21
-4.6677858
0
LINE
8
0
10
15.8473022
20
-4.6677858
11
15.5239647
21
-3.71102477
0
LINE
8
0
10
15.5239647
20
-3.71102477
11
15.4804361
21
-3.56652794
0
LINE
8
0
10
15.4804361
20
-3.56652794
11
15.3218561
21
-2.77496939
0
LINE
8
0
10
15.3218561
20
-2.77496939
11
15.3012511
21
-2.58103854
0
LINE
8
0
10
15.3012511
20
-2.58103854
11
15.2619618
21
-1.86195763
0
LINE
8
0
10
15.2619618
20
-1.86195763
11
15.3297562
21
-1.12682079
0
LINE
8
0
10
15.3297562
20
-1.12682079
11
15.3478762
21
-0.938337594
0
LINE
8
0
10
15.3478762
20
-0.938337594
11
15.5461862
21
-0.101013611
0
LINE
8
0
10
15.5461862
20
-0.101013611
11
15.5844047
21
0.0304675322
0
LINE
8
0
10
15.5844047
20
0.0304675322
11
15.9762938
21
1.08110553
0
LINE
8
0
10
15.9762938
20
1.08110553
11
15.9796085
21
1.08819455
0
LINE
8
0
10
15.9796085
20
1.08819455
11
16
21
1.12946383
0
LINE
8
0
10
16
20
1.12946383
11
16
21
1.27330243
0
LINE
8
0
10
16
20
1.27330243
11
16
21
12.6237605
0
LINE
8
0
10
16
20
12.6237605
11
16
21
12.6237605
0
ENDSEC
0
EOF
