0
SECTION
2
ENTITIES
0
LINE
8
0
10
15.7619177
20
-7.65937422
11
15.73205
21
-7.80462046
0
LINE
8
0
10
15.73205
20
-7.80462046
11
15.5638531
21
-8.24615106
0
LINE
8
0
10
15.5638531
20
-8.24615106
11
15.41421
21
-8.63896981
0
LINE
8
0
10
15.41421
20
-8.63896981
11
15.3125197
21
-8.79614197
0
LINE
8
0
10
15.3125197
20
-8.79614197
11
15
21
-9.27917625
0
LINE
8
0
10
15
20
-9.27917625
11
14.9974609
21
-9.28129471
0
LINE
8
0
10
14.9974609
20
-9.28129471
11
14.9845435
21
-9.29207216
0
LINE
8
0
10
14.9845435
20
-9.29207216
11
14.584365
21
-9.57150731
0
LINE
8
0
10
14.584365
20
-9.57150731
11
14.51764
21
-9.61809933
0
LINE
8
0
10
14.51764
20
-9.61809933
11
14.1055509
21
-9.7095624
0
LINE
8
0
10
14.1055509
20
-9.7095624
11
14
21
-9.73298811
0
LINE
8
0
10
14
20
-9.73298811
11
6.45796725
21
-9.73298811
0
LINE
8
0
10
6.45796725
20
-9.73298811
11
4.4
21
-9.73298811
0
LINE
8
0
10
4.4
20
-9.73298811
11
3.96926812
21
-9.63738719
0
LINE
8
0
10
3.96926812
20
-9.63738719
11
3.882362
21
-9.61809933
0
LINE
8
0
10
3.882362
20
-9.61809933
11
3.41545658
21
-9.29207216
0
LINE
8
0
10
3.41545658
20
-9.29207216
11
3.4
21
-9.27917625
0
LINE
8
0
10
3.4
20
-9.27917625
11
3.39600256
21
-9.27299786
0
LINE
8
0
10
3.39600256
20
-9.27299786
11
2.985786
21
-8.63896981
0
LINE
8
0
10
2.985786
20
-8.63896981
11
2.79452344
21
-8.13688793
0
LINE
8
0
10
2.79452344
20
-8.13688793
11
2.667949
21
-7.80462046
0
LINE
8
0
10
2.667949
20
-7.80462046
11
2.58473415
21
-7.39995394
0
LINE
8
0
10
2.58473415
20
-7.39995394
11
2.468148
21
-6.68400638
0
LINE
8
0
10
2.468148
20
-6.68400638
11
2.42693526
21
-5.90925657
0
LINE
8
0
10
2.42693526
20
-5.90925657
11
2.4
21
-5.21424007
0
LINE
8
0
10
2.4
20
-5.21424007
11
2.4
21
-4.38656471
0
LINE
8
0
10
2.4
20
-4.38656471
11
2.4
21
-2.8454155
0
LINE
8
0
10
2.4
20
-2.8454155
11
2.4
21
-2.81315956
0
LINE
8
0
10
2.4
20
-2.81315956
11
2.4
21
-1.30332219
0
LINE
8
0
10
2.4
20
-1.30332219
11
2.4
21
-1.26559175
0
LINE
8
0
10
2.4
20
-1.26559175
11
2.4
21
-1.23130005
0
LINE
8
0
10
2.4
20
-1.23130005
11
2.4
21
-1.2038194
0
LINE
8
0
10
2.4
20
-1.2038194
11
2.4
21
-0.891098436
0
LINE
8
0
10
2.4
20
-0.891098436
11
2.4
21
-0.527494451
0
LINE
8
0
10
2.4
20
-0.527494451
11
2.4
21
-0.0767071758
0
LINE
8
0
10
2.4
20
-0.0767071758
11
2.4
21
0.932728664
0
LINE
8
0
10
2.4
20
0.932728664
11
2.4
21
2.7261608
0
LINE
8
0
10
2.4
20
2.7261608
11
2.4
21
13.4739029
0
LINE
8
0
10
2.4
20
13.4739029
11
2.4
21
39.7840279
0
LINE
8
0
10
2.4
20
39.7840279
11
2.4
21
51.5354801
0
LINE
8
0
10
2.4
20
51.5354801
11
2.4
21
54.0369254
0
LINE
8
0
10
2.4
20
54.0369254
11
2.4
21
54.8733731
0
LINE
8
0
10
2.4
20
54.8733731
11
2.4
21
55.4240858
0
LINE
8
0
10
2.4
20
55.4240858
11
2.4
21
55.711142
0
LINE
8
0
10
2.4
20
55.711142
11
2.4
21
55.9940646
0
LINE
8
0
10
2.4
20
55.9940646
11
2.4
21
56.0155801
0
LINE
8
0
10
2.4
20
56.0155801
11
2.4
21
56.0455088
0
LINE
8
0
10
2.4
20
56.0455088
11
2.4
21
56.0815254
0
LINE
8
0
10
2.4
20
56.0815254
11
2.4
21
57.558898
0
LINE
8
0
10
2.4
20
57.558898
11
2.4
21
57.5913602
0
LINE
8
0
10
2.4
20
57.5913602
11
2.4
21
59.084753
0
LINE
8
0
10
2.4
20
59.084753
11
2.4
21
59.1009312
0
LINE
8
0
10
2.4
20
59.1009312
11
2.4
21
59.9561006
0
LINE
8
0
10
2.4
20
59.9561006
11
2.42299045
21
60.5608516
0
LINE
8
0
10
2.42299045
20
60.5608516
11
2.468148
21
61.4306201
0
LINE
8
0
10
2.468148
20
61.4306201
11
2.50287458
21
61.6493574
0
LINE
8
0
10
2.50287458
20
61.6493574
11
2.55088323
21
61.9517445
0
LINE
8
0
10
2.55088323
20
61.9517445
11
2.62438552
21
62.3180125
0
LINE
8
0
10
2.62438552
20
62.3180125
11
2.667949
21
62.5350952
0
LINE
8
0
10
2.667949
20
62.5350952
11
2.80960329
21
62.916145
0
LINE
8
0
10
2.80960329
20
62.916145
11
2.985786
21
63.3900562
0
LINE
8
0
10
2.985786
20
63.3900562
11
3.04552554
21
63.4846721
0
LINE
8
0
10
3.04552554
20
63.4846721
11
3.22291947
21
63.7656281
0
LINE
8
0
10
3.22291947
20
63.7656281
11
3.36043478
21
63.9476902
0
LINE
8
0
10
3.36043478
20
63.9476902
11
3.4
21
64.0000703
0
LINE
8
0
10
3.4
20
64.0000703
11
3.76051266
21
64.2577238
0
LINE
8
0
10
3.76051266
20
64.2577238
11
3.882362
21
64.3448081
0
LINE
8
0
10
3.882362
20
64.3448081
11
4.22760118
21
64.4232287
0
LINE
8
0
10
4.22760118
20
64.4232287
11
4.4
21
64.4623891
0
LINE
8
0
10
4.4
20
64.4623891
11
10.627722
21
64.4623891
0
LINE
8
0
10
10.627722
20
64.4623891
11
14
21
64.4623891
0
LINE
8
0
10
14
20
64.4623891
11
14.3569638
21
64.3813055
0
LINE
8
0
10
14.3569638
20
64.3813055
11
14.51764
21
64.3448081
0
LINE
8
0
10
14.51764
20
64.3448081
11
14.9306115
21
64.0496616
0
LINE
8
0
10
14.9306115
20
64.0496616
11
15
21
64.0000703
0
LINE
8
0
10
15
20
64.0000703
11
15.1770788
21
63.7656281
0
LINE
8
0
10
15.1770788
20
63.7656281
11
15.41421
21
63.3900562
0
LINE
8
0
10
15.41421
20
63.3900562
11
15.5340269
21
63.0677565
0
LINE
8
0
10
15.5340269
20
63.0677565
11
15.73205
21
62.5350952
0
LINE
8
0
10
15.73205
20
62.5350952
11
15.8491152
21
61.9517445
0
LINE
8
0
10
15.8491152
20
61.9517445
11
15.93185
21
61.4306201
0
LINE
8
0
10
15.93185
20
61.4306201
11
15.9770089
21
60.5608516
0
LINE
8
0
10
15.9770089
20
60.5608516
11
16
21
59.9561006
0
LINE
8
0
10
16
20
59.9561006
11
16
21
59.0717336
0
LINE
8
0
10
16
20
59.0717336
11
16
21
57.5869431
0
LINE
8
0
10
16
20
57.5869431
11
16
21
56.1396821
0
LINE
8
0
10
16
20
56.1396821
11
16
21
56.0664592
0
LINE
8
0
10
16
20
56.0664592
11
16
21
55.9988467
0
LINE
8
0
10
16
20
55.9988467
11
16
21
54.8733731
0
LINE
8
0
10
16
20
54.8733731
11
16
21
54.0369254
0
LINE
8
0
10
16
20
54.0369254
11
16
21
51.5354801
0
LINE
8
0
10
16
20
51.5354801
11
16
21
39.7840279
0
LINE
8
0
10
16
20
39.7840279
11
16
21
13.4739029
0
LINE
8
0
10
16
20
13.4739029
11
16
21
2.7261608
0
LINE
8
0
10
16
20
2.7261608
11
16
21
0.932728664
0
LINE
8
0
10
16
20
0.932728664
11
16
21
-0.0767071758
0
LINE
8
0
10
16
20
-0.0767071758
11
16
21
-1.15118202
0
LINE
8
0
10
16
20
-1.15118202
11
16
21
-1.22483943
0
LINE
8
0
10
16
20
-1.22483943
11
16
21
-1.30664488
0
LINE
8
0
10
16
20
-1.30664488
11
16
21
-2.78574427
0
LINE
8
0
10
16
20
-2.78574427
11
16
21
-4.34302999
0
LINE
8
0
10
16
20
-4.34302999
11
16
21
-5.21424007
0
LINE
8
0
10
16
20
-5.21424007
11
15.9730639
21
-5.90925657
0
LINE
8
0
10
15.9730639
20
-5.90925657
11
15.93185
21
-6.68400638
0
LINE
8
0
10
15.93185
20
-6.68400638
11
15.8845505
21
-6.97446841
0
LINE
8
0
10
15.8845505
20
-6.97446841
11
15.8152644
21
-7.39995394
0
LINE
8
0
10
15.8152644
20
-7.39995394
11
15.7619177
21
-7.65937422
0
LINE
8
0
10
15.7619177
20
-7.65937422
11
15.7619177
21
-7.65937422
0
ENDSEC
0
EOF
