0
SECTION
2
ENTITIES
0
LINE
8
0
10
6.15944563
20
-8.20910442
11
14
21
-8.20910442
0
LINE
8
0
10
14
20
-8.20910442
11
14.0889348
21
-8.18551895
0
LINE
8
0
10
14.0889348
20
-8.18551895
11
14.51764
21
-8.07184223
0
LINE
8
0
10
14.51764
20
-8.07184223
11
14.5629947
21
-8.03400131
0
LINE
8
0
10
14.5629947
20
-8.03400131
11
14.7761329
21
-7.85616927
0
LINE
8
0
10
14.7761329
20
-7.85616927
11
14.9530852
21
-7.66972563
0
LINE
8
0
10
14.9530852
20
-7.66972563
11
15
21
-7.62029486
0
LINE
8
0
10
15
20
-7.62029486
11
15.2539832
21
-7.12456705
0
LINE
8
0
10
15.2539832
20
-7.12456705
11
15.41421
21
-6.81182987
0
LINE
8
0
10
15.41421
20
-6.81182987
11
15.5024387
21
-6.51935072
0
LINE
8
0
10
15.5024387
20
-6.51935072
11
15.6457109
21
-6.04440813
0
LINE
8
0
10
15.6457109
20
-6.04440813
11
15.692988
21
-5.82791282
0
LINE
8
0
10
15.692988
20
-5.82791282
11
15.73205
21
-5.64903997
0
LINE
8
0
10
15.73205
20
-5.64903997
11
15.8092274
21
-4.99434326
0
LINE
8
0
10
15.8092274
20
-4.99434326
11
15.8819214
21
-4.37766443
0
LINE
8
0
10
15.8819214
20
-4.37766443
11
15.9004593
21
-4.11788921
0
LINE
8
0
10
15.9004593
20
-4.11788921
11
15.93185
21
-3.67799288
0
LINE
8
0
10
15.93185
20
-3.67799288
11
15.9513289
21
-2.82826654
0
LINE
8
0
10
15.9513289
20
-2.82826654
11
15.955802
21
-2.27020708
0
LINE
8
0
10
15.955802
20
-2.27020708
11
15.9634575
21
-1.262199
0
LINE
8
0
10
15.9634575
20
-1.262199
11
15.9634575
21
4.8786772
0
LINE
8
0
10
15.9634575
20
4.8786772
11
15.9634575
21
11.0195539
0
LINE
8
0
10
15.9634575
20
11.0195539
11
15.9634575
21
37.5773698
0
LINE
8
0
10
15.9634575
20
37.5773698
11
15.9634575
21
43.7182465
0
LINE
8
0
10
15.9634575
20
43.7182465
11
15.9634575
21
49.8591233
0
LINE
8
0
10
15.9634575
20
49.8591233
11
15.9634575
21
56
0
LINE
8
0
10
15.9634575
20
56
11
15.9562781
21
56.9709926
0
LINE
8
0
10
15.9562781
20
56.9709926
11
15.9518882
21
57.5292248
0
LINE
8
0
10
15.9518882
20
57.5292248
11
15.93185
21
58.4262194
0
LINE
8
0
10
15.93185
20
58.4262194
11
15.8898557
21
59.0305188
0
LINE
8
0
10
15.8898557
20
59.0305188
11
15.73205
21
60.4045623
0
LINE
8
0
10
15.73205
20
60.4045623
11
15.6806778
21
60.6460209
0
LINE
8
0
10
15.6806778
20
60.6460209
11
15.41421
21
61.5520336
0
LINE
8
0
10
15.41421
20
61.5520336
11
15.0055384
21
62.370188
0
LINE
8
0
10
15.0055384
20
62.370188
11
15
21
62.3812758
0
LINE
8
0
10
15
20
62.3812758
11
14.9880968
21
62.3941393
0
LINE
8
0
10
14.9880968
20
62.3941393
11
14.51764
21
62.7963561
0
LINE
8
0
10
14.51764
20
62.7963561
11
14.396831
21
62.829184
0
LINE
8
0
10
14.396831
20
62.829184
11
14
21
62.9370196
0
LINE
8
0
10
14
20
62.9370196
11
11.2041593
21
62.9370196
0
LINE
8
0
10
11.2041593
20
62.9370196
11
4.4
21
62.9370196
0
LINE
8
0
10
4.4
20
62.9370196
11
4.25922905
21
62.8987674
0
LINE
8
0
10
4.25922905
20
62.8987674
11
3.882362
21
62.7963561
0
LINE
8
0
10
3.882362
20
62.7963561
11
3.79587139
21
62.7224087
0
LINE
8
0
10
3.79587139
20
62.7224087
11
3.41190326
21
62.3941393
0
LINE
8
0
10
3.41190326
20
62.3941393
11
3.40261048
21
62.3840969
0
LINE
8
0
10
3.40261048
20
62.3840969
11
3.4
21
62.3812758
0
LINE
8
0
10
3.4
20
62.3812758
11
3.11691699
21
61.8145533
0
LINE
8
0
10
3.11691699
20
61.8145533
11
2.985786
21
61.5520336
0
LINE
8
0
10
2.985786
20
61.5520336
11
2.8807426
21
61.1948675
0
LINE
8
0
10
2.8807426
20
61.1948675
11
2.71932069
21
60.6460209
0
LINE
8
0
10
2.71932069
20
60.6460209
11
2.69190367
21
60.5171553
0
LINE
8
0
10
2.69190367
20
60.5171553
11
2.667949
21
60.4045623
0
LINE
8
0
10
2.667949
20
60.4045623
11
2.58455761
21
59.6784503
0
LINE
8
0
10
2.58455761
20
59.6784503
11
2.5101425
21
59.0305188
0
LINE
8
0
10
2.5101425
20
59.0305188
11
2.49508118
21
58.813786
0
LINE
8
0
10
2.49508118
20
58.813786
11
2.468148
21
58.4262194
0
LINE
8
0
10
2.468148
20
58.4262194
11
2.44811037
21
57.5292248
0
LINE
8
0
10
2.44811037
20
57.5292248
11
2.44372065
21
56.9709926
0
LINE
8
0
10
2.44372065
20
56.9709926
11
2.43654142
21
56
0
LINE
8
0
10
2.43654142
20
56
11
2.43654142
21
49.8591233
0
LINE
8
0
10
2.43654142
20
49.8591233
11
2.43654142
21
43.7182465
0
LINE
8
0
10
2.43654142
20
43.7182465
11
2.43654142
21
17.1604307
0
LINE
8
0
10
2.43654142
20
17.1604307
11
2.43654142
21
11.0195539
0
LINE
8
0
10
2.43654142
20
11.0195539
11
2.43654142
21
4.8786772
0
LINE
8
0
10
2.43654142
20
4.8786772
11
2.43654142
21
-1.262199
0
LINE
8
0
10
2.43654142
20
-1.262199
11
2.4441967
21
-2.27020708
0
LINE
8
0
10
2.4441967
20
-2.27020708
11
2.44866965
21
-2.82826654
0
LINE
8
0
10
2.44866965
20
-2.82826654
11
2.468148
21
-3.67799288
0
LINE
8
0
10
2.468148
20
-3.67799288
11
2.51807681
21
-4.37766443
0
LINE
8
0
10
2.51807681
20
-4.37766443
11
2.667949
21
-5.64903997
0
LINE
8
0
10
2.667949
20
-5.64903997
11
2.75428729
21
-6.04440813
0
LINE
8
0
10
2.75428729
20
-6.04440813
11
2.985786
21
-6.81182987
0
LINE
8
0
10
2.985786
20
-6.81182987
11
3.30623781
21
-7.43728861
0
LINE
8
0
10
3.30623781
20
-7.43728861
11
3.4
21
-7.62029486
0
LINE
8
0
10
3.4
20
-7.62029486
11
3.62386802
21
-7.85616927
0
LINE
8
0
10
3.62386802
20
-7.85616927
11
3.882362
21
-8.07184223
0
LINE
8
0
10
3.882362
20
-8.07184223
11
3.94478625
21
-8.08839704
0
LINE
8
0
10
3.94478625
20
-8.08839704
11
4.4
21
-8.20910442
0
LINE
8
0
10
4.4
20
-8.20910442
11
6.15944563
21
-8.20910442
0
LINE
8
0
10
6.15944563
20
-8.20910442
11
6.15944563
21
-8.20910442
0
ENDSEC
0
EOF
