0
SECTION
2
ENTITIES
0
LINE
8
0
10
15.9411243
20
-14.1474829
11
15.9347136
21
-14.1954192
0
LINE
8
0
10
15.9347136
20
-14.1954192
11
15.9268754
21
-14.2253942
0
LINE
8
0
10
15.9268754
20
-14.2253942
11
15.9268712
21
-14.2254069
0
LINE
8
0
10
15.9268712
20
-14.2254069
11
15.9268598
21
-14.2254437
0
LINE
8
0
10
15.9268598
20
-14.2254437
11
15.9268301
21
-14.2255371
0
LINE
8
0
10
15.9268301
20
-14.2255371
11
15.9267523
21
-14.2257847
0
LINE
8
0
10
15.9267523
20
-14.2257847
11
15.9265486
21
-14.2264213
0
LINE
8
0
10
15.9265486
20
-14.2264213
11
15.926035
21
-14.2280102
0
LINE
8
0
10
15.926035
20
-14.2280102
11
15.9248182
21
-14.231652
0
LINE
8
0
10
15.9248182
20
-14.231652
11
15.9223479
21
-14.2385607
0
LINE
8
0
10
15.9223479
20
-14.2385607
11
15.762725
21
-14.6402511
0
LINE
8
0
10
15.762725
20
-14.6402511
11
15.7566196
21
-14.6556279
0
LINE
8
0
10
15.7566196
20
-14.6556279
11
15.7136991
21
-14.734568
0
LINE
8
0
10
15.7136991
20
-14.734568
11
15.7136806
21
-14.7345958
0
LINE
8
0
10
15.7136806
20
-14.7345958
11
15.7136482
21
-14.7346444
0
LINE
8
0
10
15.7136482
20
-14.7346444
11
15.7135881
21
-14.7347346
0
LINE
8
0
10
15.7135881
20
-14.7347346
11
15.7134817
21
-14.7348964
0
LINE
8
0
10
15.7134817
20
-14.7348964
11
15.7132898
21
-14.7351832
0
LINE
8
0
10
15.7132898
20
-14.7351832
11
15.7120571
21
-14.7370241
0
LINE
8
0
10
15.7120571
20
-14.7370241
11
15.7078111
21
-14.7432382
0
LINE
8
0
10
15.7078111
20
-14.7432382
11
15.6971243
21
-14.7580831
0
LINE
8
0
10
15.6971243
20
-14.7580831
11
15.4633575
21
-15.0737742
0
LINE
8
0
10
15.4633575
20
-15.0737742
11
15.4457426
21
-15.0962798
0
LINE
8
0
10
15.4457426
20
-15.0962798
11
15.4355047
21
-15.1084149
0
LINE
8
0
10
15.4355047
20
-15.1084149
11
15.4320194
21
-15.1124011
0
LINE
8
0
10
15.4320194
20
-15.1124011
11
15.431059
21
-15.1134823
0
LINE
8
0
10
15.431059
20
-15.1134823
11
15.4308115
21
-15.1137622
0
LINE
8
0
10
15.4308115
20
-15.1137622
11
15.4307467
21
-15.1138329
0
LINE
8
0
10
15.4307467
20
-15.1138329
11
15.4118325
21
-15.1339757
0
LINE
8
0
10
15.4118325
20
-15.1339757
11
15.3951426
21
-15.1500145
0
LINE
8
0
10
15.3951426
20
-15.1500145
11
15.3950483
21
-15.1500999
0
LINE
8
0
10
15.3950483
20
-15.1500999
11
15.3945563
21
-15.1505536
0
LINE
8
0
10
15.3945563
20
-15.1505536
11
15.3920344
21
-15.1528457
0
LINE
8
0
10
15.3920344
20
-15.1528457
11
15.3807949
21
-15.1627418
0
LINE
8
0
10
15.3807949
20
-15.1627418
11
15.3508621
21
-15.1868088
0
LINE
8
0
10
15.3508621
20
-15.1868088
11
15.0670401
21
-15.411961
0
LINE
8
0
10
15.0670401
20
-15.411961
11
15.0349791
21
-15.4348574
0
LINE
8
0
10
15.0349791
20
-15.4348574
11
14.9811794
21
-15.4679787
0
LINE
8
0
10
14.9811794
20
-15.4679787
11
14.9811356
21
-15.4680022
0
LINE
8
0
10
14.9811356
20
-15.4680022
11
14.9809841
21
-15.4680864
0
LINE
8
0
10
14.9809841
20
-15.4680864
11
14.980449
21
-15.4683859
0
LINE
8
0
10
14.980449
20
-15.4683859
11
14.978571
21
-15.4694259
0
LINE
8
0
10
14.978571
20
-15.4694259
11
14.972321
21
-15.4728285
0
LINE
8
0
10
14.972321
20
-15.4728285
11
14.9544326
21
-15.4821076
0
LINE
8
0
10
14.9544326
20
-15.4821076
11
14.9197968
21
-15.4980405
0
LINE
8
0
10
14.9197968
20
-15.4980405
11
14.6056163
21
-15.6324782
0
LINE
8
0
10
14.6056163
20
-15.6324782
11
14.5025976
21
-15.665937
0
LINE
8
0
10
14.5025976
20
-15.665937
11
14.5025219
21
-15.665955
0
LINE
8
0
10
14.5025219
20
-15.665955
11
14.5023236
21
-15.6660055
0
LINE
8
0
10
14.5023236
20
-15.6660055
11
14.5018082
21
-15.6661316
0
LINE
8
0
10
14.5018082
20
-15.6661316
11
14.500478
21
-15.6664525
0
LINE
8
0
10
14.500478
20
-15.6664525
11
14.497104
21
-15.6672599
0
LINE
8
0
10
14.497104
20
-15.6672599
11
14.4889178
21
-15.6691524
0
LINE
8
0
10
14.4889178
20
-15.6691524
11
14.4709447
21
-15.6729878
0
LINE
8
0
10
14.4709447
20
-15.6729878
11
14.1429124
21
-15.7175257
0
LINE
8
0
10
14.1429124
20
-15.7175257
11
14.0275625
21
-15.7320158
0
LINE
8
0
10
14.0275625
20
-15.7320158
11
14.0067056
21
-15.7326123
0
LINE
8
0
10
14.0067056
20
-15.7326123
11
14.0058513
21
-15.7326234
0
LINE
8
0
10
14.0058513
20
-15.7326234
11
14
21
-15.7326529
0
LINE
8
0
10
14
20
-15.7326529
11
10.4649333
21
-15.7326529
0
LINE
8
0
10
10.4649333
20
-15.7326529
11
4.4
21
-15.7326529
0
LINE
8
0
10
4.4
20
-15.7326529
11
4.25708683
21
-15.7175257
0
LINE
8
0
10
4.25708683
20
-15.7175257
11
3.92905581
21
-15.6729878
0
LINE
8
0
10
3.92905581
20
-15.6729878
11
3.79438575
21
-15.6324782
0
LINE
8
0
10
3.79438575
20
-15.6324782
11
3.48020383
21
-15.4980405
0
LINE
8
0
10
3.48020383
20
-15.4980405
11
3.36501958
21
-15.4348574
0
LINE
8
0
10
3.36501958
20
-15.4348574
11
3.07719888
21
-15.2068514
0
LINE
8
0
10
3.07719888
20
-15.2068514
11
2.98816413
21
-15.1339757
0
LINE
8
0
10
2.98816413
20
-15.1339757
11
2.9160467
21
-15.0446015
0
LINE
8
0
10
2.9160467
20
-15.0446015
11
2.68670994
21
-14.7351832
0
LINE
8
0
10
2.68670994
20
-14.7351832
11
2.64337983
21
-14.6556279
0
LINE
8
0
10
2.64337983
20
-14.6556279
11
2.48138572
21
-14.247968
0
LINE
8
0
10
2.48138572
20
-14.247968
11
2.46528464
21
-14.1954192
0
LINE
8
0
10
2.46528464
20
-14.1954192
11
2.41490595
21
-13.7884509
0
LINE
8
0
10
2.41490595
20
-13.7884509
11
2.4001733
21
-13.6668978
0
LINE
8
0
10
2.4001733
20
-13.6668978
11
2.4
21
-13.6533484
0
LINE
8
0
10
2.4
20
-13.6533484
11
2.4
21
-12.4640585
0
LINE
8
0
10
2.4
20
-12.4640585
11
2.4
21
-9.93838998
0
LINE
8
0
10
2.4
20
-9.93838998
11
2.4
21
-8.41832587
0
LINE
8
0
10
2.4
20
-8.41832587
11
2.4
21
-7.94566185
0
LINE
8
0
10
2.4
20
-7.94566185
11
2.4
21
-6.92411504
0
LINE
8
0
10
2.4
20
-6.92411504
11
2.4
21
-6.17127036
0
LINE
8
0
10
2.4
20
-6.17127036
11
2.4
21
-5.66012421
0
LINE
8
0
10
2.4
20
-5.66012421
11
2.4
21
-5.10908233
0
LINE
8
0
10
2.4
20
-5.10908233
11
2.4
21
-4.65124103
0
LINE
8
0
10
2.4
20
-4.65124103
11
2.4
21
-4.13918095
0
LINE
8
0
10
2.4
20
-4.13918095
11
2.4
21
-3.77796865
0
LINE
8
0
10
2.4
20
-3.77796865
11
2.4
21
-3.2378145
0
LINE
8
0
10
2.4
20
-3.2378145
11
2.4
21
-2.93579115
0
LINE
8
0
10
2.4
20
-2.93579115
11
2.4
21
-2.65252326
0
LINE
8
0
10
2.4
20
-2.65252326
11
2.4
21
-2.11530294
0
LINE
8
0
10
2.4
20
-2.11530294
11
2.4
21
-1.84840747
0
LINE
8
0
10
2.4
20
-1.84840747
11
2.4
21
-1.31056243
0
LINE
8
0
10
2.4
20
-1.31056243
11
2.4
21
-0.82173647
0
LINE
8
0
10
2.4
20
-0.82173647
11
2.4
21
-0.430001625
0
LINE
8
0
10
2.4
20
-0.430001625
11
2.4
21
4.0278155
0
LINE
8
0
10
2.4
20
4.0278155
11
2.4
21
9.21096674
0
LINE
8
0
10
2.4
20
9.21096674
11
2.4
21
12.2259807
0
LINE
8
0
10
2.4
20
12.2259807
11
2.4
21
14.0589365
0
LINE
8
0
10
2.4
20
14.0589365
11
2.4
21
15.5253012
0
LINE
8
0
10
2.4
20
15.5253012
11
10.8187717
21
15.5253012
0
LINE
8
0
10
10.8187717
20
15.5253012
11
16
21
15.5253012
0
LINE
8
0
10
16
20
15.5253012
11
16
21
12.2259807
0
LINE
8
0
10
16
20
12.2259807
11
16
21
2.91645072
0
LINE
8
0
10
16
20
2.91645072
11
16
21
1.4128236
0
LINE
8
0
10
16
20
1.4128236
11
15.7868357
21
0.981412156
0
LINE
8
0
10
15.7868357
20
0.981412156
11
15.7521859
21
0.907306591
0
LINE
8
0
10
15.7521859
20
0.907306591
11
15.3981501
21
-0.0418483417
0
LINE
8
0
10
15.3981501
20
-0.0418483417
11
15.3428034
21
-0.232254535
0
LINE
8
0
10
15.3428034
20
-0.232254535
11
15.165833
21
-0.979476341
0
LINE
8
0
10
15.165833
20
-0.979476341
11
15.1426548
21
-1.22057543
0
LINE
8
0
10
15.1426548
20
-1.22057543
11
15.0824395
21
-1.87352786
0
LINE
8
0
10
15.0824395
20
-1.87352786
11
15.1173364
21
-2.51221933
0
LINE
8
0
10
15.1173364
20
-2.51221933
11
15.1433647
21
-2.75719389
0
LINE
8
0
10
15.1433647
20
-2.75719389
11
15.2849519
21
-3.46393225
0
LINE
8
0
10
15.2849519
20
-3.46393225
11
15.3448581
21
-3.66279551
0
LINE
8
0
10
15.3448581
20
-3.66279551
11
15.6371906
21
-4.52781225
0
LINE
8
0
10
15.6371906
20
-4.52781225
11
16
21
-5.31055219
0
LINE
8
0
10
16
20
-5.31055219
11
16
21
-6.3179655
0
LINE
8
0
10
16
20
-6.3179655
11
16
21
-8.03786264
0
LINE
8
0
10
16
20
-8.03786264
11
16
21
-11.1289485
0
LINE
8
0
10
16
20
-11.1289485
11
16
21
-13.6533484
0
LINE
8
0
10
16
20
-13.6533484
11
15.9998258
21
-13.6668978
0
LINE
8
0
10
15.9998258
20
-13.6668978
11
15.9997822
21
-13.6685561
0
LINE
8
0
10
15.9997822
20
-13.6685561
11
15.999776
21
-13.6687677
0
LINE
8
0
10
15.999776
20
-13.6687677
11
15.9991911
21
-13.6830389
0
LINE
8
0
10
15.9991911
20
-13.6830389
11
15.9411243
21
-14.1474829
0
LINE
8
0
10
15.9411243
20
-14.1474829
11
15.9411243
21
-14.1474829
0
LINE
8
0
10
16
20
62.5589169
11
16
21
65.0376453
0
LINE
8
0
10
16
20
65.0376453
11
16
21
68.3883859
0
LINE
8
0
10
16
20
68.3883859
11
15.9622129
21
68.698108
0
LINE
8
0
10
15.9622129
20
68.698108
11
15.93185
21
68.9327984
0
LINE
8
0
10
15.93185
20
68.9327984
11
15.8263078
21
69.1975517
0
LINE
8
0
10
15.8263078
20
69.1975517
11
15.73205
21
69.4339939
0
LINE
8
0
10
15.73205
20
69.4339939
11
15.587894
21
69.6291926
0
LINE
8
0
10
15.587894
20
69.6291926
11
15.41421
21
69.8643762
0
LINE
8
0
10
15.41421
20
69.8643762
11
15.25082
21
69.9946448
0
LINE
8
0
10
15.25082
20
69.9946448
11
15
21
70.1946219
0
LINE
8
0
10
15
20
70.1946219
11
14.8298155
21
70.2678671
0
LINE
8
0
10
14.8298155
20
70.2678671
11
14.51764
21
70.4022215
0
LINE
8
0
10
14.51764
20
70.4022215
11
14.346657
21
70.4256093
0
LINE
8
0
10
14.346657
20
70.4256093
11
14
21
70.4730282
0
LINE
8
0
10
14
20
70.4730282
11
10.8892959
21
70.4730282
0
LINE
8
0
10
10.8892959
20
70.4730282
11
4.4
21
70.4730282
0
LINE
8
0
10
4.4
20
70.4730282
11
4.22990005
21
70.4497611
0
LINE
8
0
10
4.22990005
20
70.4497611
11
3.882362
21
70.4022215
0
LINE
8
0
10
3.882362
20
70.4022215
11
3.71389344
21
70.3297152
0
LINE
8
0
10
3.71389344
20
70.3297152
11
3.4
21
70.1946219
0
LINE
8
0
10
3.4
20
70.1946219
11
3.23700492
21
70.0646694
0
LINE
8
0
10
3.23700492
20
70.0646694
11
2.985786
21
69.8643762
0
LINE
8
0
10
2.985786
20
69.8643762
11
2.83901073
21
69.6656287
0
LINE
8
0
10
2.83901073
20
69.6656287
11
2.667949
21
69.4339939
0
LINE
8
0
10
2.667949
20
69.4339939
11
2.55744196
21
69.1567881
0
LINE
8
0
10
2.55744196
20
69.1567881
11
2.468148
21
68.9327984
0
LINE
8
0
10
2.468148
20
68.9327984
11
2.43778596
21
68.698108
0
LINE
8
0
10
2.43778596
20
68.698108
11
2.4
21
68.3883859
0
LINE
8
0
10
2.4
20
68.3883859
11
2.4
21
66.8551536
0
LINE
8
0
10
2.4
20
66.8551536
11
2.4
21
64.8892187
0
LINE
8
0
10
2.4
20
64.8892187
11
2.4
21
64.4847151
0
LINE
8
0
10
2.4
20
64.4847151
11
2.4
21
63.2372538
0
LINE
8
0
10
2.4
20
63.2372538
11
2.4
21
62.3808388
0
LINE
8
0
10
2.4
20
62.3808388
11
2.4
21
61.8852897
0
LINE
8
0
10
2.4
20
61.8852897
11
2.4
21
61.2763592
0
LINE
8
0
10
2.4
20
61.2763592
11
2.4
21
60.7899431
0
LINE
8
0
10
2.4
20
60.7899431
11
2.4
21
60.2818346
0
LINE
8
0
10
2.4
20
60.2818346
11
2.4
21
59.9049861
0
LINE
8
0
10
2.4
20
59.9049861
11
2.4
21
59.3666498
0
LINE
8
0
10
2.4
20
59.3666498
11
2.4
21
59.0566098
0
LINE
8
0
10
2.4
20
59.0566098
11
2.4
21
58.7727733
0
LINE
8
0
10
2.4
20
58.7727733
11
2.4
21
58.2345064
0
LINE
8
0
10
2.4
20
58.2345064
11
2.4
21
57.9705846
0
LINE
8
0
10
2.4
20
57.9705846
11
2.4
21
57.433186
0
LINE
8
0
10
2.4
20
57.433186
11
2.4
21
57.1621387
0
LINE
8
0
10
2.4
20
57.1621387
11
2.4
21
56.6487249
0
LINE
8
0
10
2.4
20
56.6487249
11
2.4
21
56.2220934
0
LINE
8
0
10
2.4
20
56.2220934
11
2.4
21
55.9153914
0
LINE
8
0
10
2.4
20
55.9153914
11
2.4
21
51.8823481
0
LINE
8
0
10
2.4
20
51.8823481
11
2.4
21
47.7903797
0
LINE
8
0
10
2.4
20
47.7903797
11
2.4
21
39.9400072
0
LINE
8
0
10
2.4
20
39.9400072
11
2.4
21
39.7740192
0
LINE
8
0
10
2.4
20
39.7740192
11
15.7412283
21
39.7740192
0
LINE
8
0
10
15.7412283
20
39.7740192
11
16
21
39.7740192
0
LINE
8
0
10
16
20
39.7740192
11
16
21
39.9400072
0
LINE
8
0
10
16
20
39.9400072
11
16
21
47.2641566
0
LINE
8
0
10
16
20
47.2641566
11
16
21
55.890782
0
LINE
8
0
10
16
20
55.890782
11
15.9241648
21
56.0043461
0
LINE
8
0
10
15.9241648
20
56.0043461
11
15.9145274
21
56.0241535
0
LINE
8
0
10
15.9145274
20
56.0241535
11
15.4990946
21
56.9907234
0
LINE
8
0
10
15.4990946
20
56.9907234
11
15.3610538
21
57.7777032
0
LINE
8
0
10
15.3610538
20
57.7777032
11
15.3377998
21
57.9168574
0
LINE
8
0
10
15.3377998
20
57.9168574
11
15.403706
21
58.6966479
0
LINE
8
0
10
15.403706
20
58.6966479
11
15.4252147
21
58.826388
0
LINE
8
0
10
15.4252147
20
58.826388
11
15.7248908
21
59.700501
0
LINE
8
0
10
15.7248908
20
59.700501
11
15.7541065
21
59.7606589
0
LINE
8
0
10
15.7541065
20
59.7606589
11
16
21
60.1802406
0
LINE
8
0
10
16
20
60.1802406
11
16
21
61.383148
0
LINE
8
0
10
16
20
61.383148
11
16
21
62.5589169
0
LINE
8
0
10
16
20
62.5589169
11
16
21
62.5589169
0
LINE
8
0
10
16
20
30.7841964
11
16
21
24.1855593
0
LINE
8
0
10
16
20
24.1855593
11
16
21
20.8862388
0
LINE
8
0
10
16
20
20.8862388
11
7.58122832
21
20.8862388
0
LINE
8
0
10
7.58122832
20
20.8862388
11
2.4
21
20.8862388
0
LINE
8
0
10
2.4
20
20.8862388
11
2.4
21
22.6858682
0
LINE
8
0
10
2.4
20
22.6858682
11
2.4
21
24.1855593
0
LINE
8
0
10
2.4
20
24.1855593
11
2.4
21
27.0227519
0
LINE
8
0
10
2.4
20
27.0227519
11
2.4
21
31.1137593
0
LINE
8
0
10
2.4
20
31.1137593
11
2.4
21
31.18866
0
LINE
8
0
10
2.4
20
31.18866
11
2.4
21
31.2785408
0
LINE
8
0
10
2.4
20
31.2785408
11
2.65877168
21
31.2785408
0
LINE
8
0
10
2.65877168
20
31.2785408
11
16
21
31.2785408
0
LINE
8
0
10
16
20
31.2785408
11
16
21
31.1137593
0
LINE
8
0
10
16
20
31.1137593
11
16
21
30.7841964
0
LINE
8
0
10
16
20
30.7841964
11
16
21
30.7841964
0
ENDSEC
0
EOF
