0
SECTION
2
ENTITIES
0
LINE
8
0
10
16
20
30.0852013
11
16
21
25.3788987
0
LINE
8
0
10
16
20
25.3788987
11
16
21
19.692898
0
LINE
8
0
10
16
20
19.692898
11
11.3292532
21
19.692898
0
LINE
8
0
10
11.3292532
20
19.692898
11
2.4
21
19.692898
0
LINE
8
0
10
2.4
20
19.692898
11
2.4
21
22.7943529
0
LINE
8
0
10
2.4
20
22.7943529
11
2.4
21
25.3788987
0
LINE
8
0
10
2.4
20
25.3788987
11
2.4
21
27.2614197
0
LINE
8
0
10
2.4
20
27.2614197
11
2.4
21
30.0852013
0
LINE
8
0
10
2.4
20
30.0852013
11
2.4
21
31.3195895
0
LINE
8
0
10
2.4
20
31.3195895
11
2.4
21
32.3071
0
LINE
8
0
10
2.4
20
32.3071
11
12.5107468
21
32.3071
0
LINE
8
0
10
12.5107468
20
32.3071
11
16
21
32.3071
0
LINE
8
0
10
16
20
32.3071
11
16
21
30.0852013
0
LINE
8
0
10
16
20
30.0852013
11
16
21
30.0852013
0
LINE
8
0
10
16
20
62.1672076
11
16
21
68.6030781
0
LINE
8
0
10
16
20
68.6030781
11
15.9969037
21
68.6284566
0
LINE
8
0
10
15.9969037
20
68.6284566
11
15.93185
21
69.1312898
0
LINE
8
0
10
15.93185
20
69.1312898
11
15.9114944
21
69.182352
0
LINE
8
0
10
15.9114944
20
69.182352
11
15.73205
21
69.6324815
0
LINE
8
0
10
15.73205
20
69.6324815
11
15.7209809
21
69.6474699
0
LINE
8
0
10
15.7209809
20
69.6474699
11
15.5344452
21
69.9000558
0
LINE
8
0
10
15.5344452
20
69.9000558
11
15.4209675
21
70.0498254
0
LINE
8
0
10
15.4209675
20
70.0498254
11
15.41421
21
70.0587441
0
LINE
8
0
10
15.41421
20
70.0587441
11
15.0262807
21
70.3602086
0
LINE
8
0
10
15.0262807
20
70.3602086
11
15
21
70.3806316
0
LINE
8
0
10
15
20
70.3806316
11
14.5608998
21
70.5648287
0
LINE
8
0
10
14.5608998
20
70.5648287
11
14.51764
21
70.5829753
0
LINE
8
0
10
14.51764
20
70.5829753
11
14.0513352
21
70.6451467
0
LINE
8
0
10
14.0513352
20
70.6451467
11
14
21
70.6519911
0
LINE
8
0
10
14
20
70.6519911
11
5.35642726
21
70.6519911
0
LINE
8
0
10
5.35642726
20
70.6519911
11
4.4
21
70.6519911
0
LINE
8
0
10
4.4
20
70.6519911
11
3.92963322
21
70.589278
0
LINE
8
0
10
3.92963322
20
70.589278
11
3.882362
21
70.5829753
0
LINE
8
0
10
3.882362
20
70.5829753
11
3.43170909
21
70.3939329
0
LINE
8
0
10
3.43170909
20
70.3939329
11
3.4
21
70.3806316
0
LINE
8
0
10
3.4
20
70.3806316
11
2.99505585
21
70.0659477
0
LINE
8
0
10
2.99505585
20
70.0659477
11
2.985786
21
70.0587441
0
LINE
8
0
10
2.985786
20
70.0587441
11
2.86555198
21
69.9000558
0
LINE
8
0
10
2.86555198
20
69.9000558
11
2.667949
21
69.6324815
0
LINE
8
0
10
2.667949
20
69.6324815
11
2.65946369
21
69.6111962
0
LINE
8
0
10
2.65946369
20
69.6111962
11
2.468148
21
69.1312898
0
LINE
8
0
10
2.468148
20
69.1312898
11
2.40309617
21
68.6284566
0
LINE
8
0
10
2.40309617
20
68.6284566
11
2.4
21
68.6030781
0
LINE
8
0
10
2.4
20
68.6030781
11
2.4
21
65.6581516
0
LINE
8
0
10
2.4
20
65.6581516
11
2.4
21
64.0605795
0
LINE
8
0
10
2.4
20
64.0605795
11
2.4
21
63.5282252
0
LINE
8
0
10
2.4
20
63.5282252
11
2.4
21
62.5603511
0
LINE
8
0
10
2.4
20
62.5603511
11
2.4
21
61.8958799
0
LINE
8
0
10
2.4
20
61.8958799
11
2.4
21
61.328589
0
LINE
8
0
10
2.4
20
61.328589
11
2.4
21
60.8837772
0
LINE
8
0
10
2.4
20
60.8837772
11
2.4
21
60.5284597
0
LINE
8
0
10
2.4
20
60.5284597
11
2.4
21
59.96915
0
LINE
8
0
10
2.4
20
59.96915
11
2.4
21
59.7125601
0
LINE
8
0
10
2.4
20
59.7125601
11
2.4
21
59.1257361
0
LINE
8
0
10
2.4
20
59.1257361
11
2.4
21
58.9275771
0
LINE
8
0
10
2.4
20
58.9275771
11
2.4
21
58.7461659
0
LINE
8
0
10
2.4
20
58.7461659
11
2.4
21
58.1655675
0
LINE
8
0
10
2.4
20
58.1655675
11
2.4
21
58.0013325
0
LINE
8
0
10
2.4
20
58.0013325
11
2.4
21
57.4229932
0
LINE
8
0
10
2.4
20
57.4229932
11
2.4
21
57.249756
0
LINE
8
0
10
2.4
20
57.249756
11
2.4
21
56.6976343
0
LINE
8
0
10
2.4
20
56.6976343
11
2.4
21
56.2388378
0
LINE
8
0
10
2.4
20
56.2388378
11
2.4
21
55.9090125
0
LINE
8
0
10
2.4
20
55.9090125
11
2.4
21
51.5719054
0
LINE
8
0
10
2.4
20
51.5719054
11
2.4
21
47.1714306
0
LINE
8
0
10
2.4
20
47.1714306
11
2.4
21
40.9673587
0
LINE
8
0
10
2.4
20
40.9673587
11
2.4
21
39.9574048
0
LINE
8
0
10
2.4
20
39.9574048
11
2.4
21
38.74546
0
LINE
8
0
10
2.4
20
38.74546
11
5.88925317
21
38.74546
0
LINE
8
0
10
5.88925317
20
38.74546
11
16
21
38.74546
0
LINE
8
0
10
16
20
38.74546
11
16
21
40.9673587
0
LINE
8
0
10
16
20
40.9673587
11
16
21
48.6128542
0
LINE
8
0
10
16
20
48.6128542
11
16
21
54.8853168
0
LINE
8
0
10
16
20
54.8853168
11
15.6596525
21
55.273623
0
LINE
8
0
10
15.6596525
20
55.273623
11
15.5805297
21
55.3760839
0
LINE
8
0
10
15.5805297
20
55.3760839
11
14.9910156
21
56.2588874
0
LINE
8
0
10
14.9910156
20
56.2588874
11
14.8627907
21
56.5224243
0
LINE
8
0
10
14.8627907
20
56.5224243
11
14.5972711
21
57.1401976
0
LINE
8
0
10
14.5972711
20
57.1401976
11
14.5090437
21
57.6431878
0
LINE
8
0
10
14.5090437
20
57.6431878
11
14.4547814
21
57.9678988
0
LINE
8
0
10
14.4547814
20
57.9678988
11
14.4957939
21
58.453152
0
LINE
8
0
10
14.4957939
20
58.453152
11
14.5500514
21
58.7804332
0
LINE
8
0
10
14.5500514
20
58.7804332
11
14.7415864
21
59.3391136
0
LINE
8
0
10
14.7415864
20
59.3391136
11
14.8752257
21
59.6142901
0
LINE
8
0
10
14.8752257
20
59.6142901
11
15.3124516
21
60.3603528
0
LINE
8
0
10
15.3124516
20
60.3603528
11
15.4309908
21
60.5128112
0
LINE
8
0
10
15.4309908
20
60.5128112
11
16
21
61.2226754
0
LINE
8
0
10
16
20
61.2226754
11
16
21
62.1672076
0
LINE
8
0
10
16
20
62.1672076
11
16
21
62.1672076
0
LINE
8
0
10
16
20
5.73466746
11
16
21
2.29008689
0
LINE
8
0
10
16
20
2.29008689
11
16
21
2.20037794
0
LINE
8
0
10
16
20
2.20037794
11
15.8246359
21
1.87957283
0
LINE
8
0
10
15.8246359
20
1.87957283
11
15.6784994
21
1.61223556
0
LINE
8
0
10
15.6784994
20
1.61223556
11
15.2085174
21
0.661064986
0
LINE
8
0
10
15.2085174
20
0.661064986
11
15.0798621
21
0.385909781
0
LINE
8
0
10
15.0798621
20
0.385909781
11
14.8393861
21
-0.258795963
0
LINE
8
0
10
14.8393861
20
-0.258795963
11
14.7326551
21
-0.625977309
0
LINE
8
0
10
14.7326551
20
-0.625977309
11
14.6197035
21
-1.10289258
0
LINE
8
0
10
14.6197035
20
-1.10289258
11
14.5813505
21
-1.50183936
0
LINE
8
0
10
14.5813505
20
-1.50183936
11
14.5438723
21
-1.90823857
0
LINE
8
0
10
14.5438723
20
-1.90823857
11
14.5655922
21
-2.30576171
0
LINE
8
0
10
14.5655922
20
-2.30576171
11
14.6078906
21
-2.7038674
0
LINE
8
0
10
14.6078906
20
-2.7038674
11
14.6984995
21
-3.15614518
0
LINE
8
0
10
14.6984995
20
-3.15614518
11
14.8075382
21
-3.51810775
0
LINE
8
0
10
14.8075382
20
-3.51810775
11
15.0068557
21
-4.10789162
0
LINE
8
0
10
15.0068557
20
-4.10789162
11
15.4283019
21
-5.0171371
0
LINE
8
0
10
15.4283019
20
-5.0171371
11
15.5250242
21
-5.22000686
0
LINE
8
0
10
15.5250242
20
-5.22000686
11
16
21
-6.04500114
0
LINE
8
0
10
16
20
-6.04500114
11
16
21
-7.68867935
0
LINE
8
0
10
16
20
-7.68867935
11
16
21
-13.8505968
0
LINE
8
0
10
16
20
-13.8505968
11
15.9995747
21
-13.8836702
0
LINE
8
0
10
15.9995747
20
-13.8836702
11
15.9994684
21
-13.887718
0
LINE
8
0
10
15.9994684
20
-13.887718
11
15.9994532
21
-13.8882344
0
LINE
8
0
10
15.9994532
20
-13.8882344
11
15.9980255
21
-13.9230698
0
LINE
8
0
10
15.9980255
20
-13.9230698
11
15.9777479
21
-14.0852592
0
LINE
8
0
10
15.9777479
20
-14.0852592
11
15.946022
21
-14.3224926
0
LINE
8
0
10
15.946022
20
-14.3224926
11
15.9072311
21
-14.4708362
0
LINE
8
0
10
15.9072311
20
-14.4708362
11
15.9072101
21
-14.4708992
0
LINE
8
0
10
15.9072101
20
-14.4708992
11
15.9071541
21
-14.4710812
0
LINE
8
0
10
15.9071541
20
-14.4710812
11
15.907007
21
-14.4715433
0
LINE
8
0
10
15.907007
20
-14.4715433
11
15.9066219
21
-14.4727687
0
LINE
8
0
10
15.9066219
20
-14.4727687
11
15.9056137
21
-14.4759196
0
LINE
8
0
10
15.9056137
20
-14.4759196
11
15.9030719
21
-14.4837828
0
LINE
8
0
10
15.9030719
20
-14.4837828
11
15.8970503
21
-14.5018058
0
LINE
8
0
10
15.8970503
20
-14.5018058
11
15.8848248
21
-14.5359964
0
LINE
8
0
10
15.8848248
20
-14.5359964
11
15.8290826
21
-14.6762715
0
LINE
8
0
10
15.8290826
20
-14.6762715
11
15.8097697
21
-14.7249122
0
LINE
8
0
10
15.8097697
20
-14.7249122
11
15.6740016
21
-14.974619
0
LINE
8
0
10
15.6740016
20
-14.974619
11
15.6739431
21
-14.9747068
0
LINE
8
0
10
15.6739431
20
-14.9747068
11
15.6738407
21
-14.9748604
0
LINE
8
0
10
15.6738407
20
-14.9748604
11
15.6736505
21
-14.9751457
0
LINE
8
0
10
15.6736505
20
-14.9751457
11
15.673314
21
-14.9756578
0
LINE
8
0
10
15.673314
20
-14.9756578
11
15.6727068
21
-14.9765649
0
LINE
8
0
10
15.6727068
20
-14.9765649
11
15.6688076
21
-14.982388
0
LINE
8
0
10
15.6688076
20
-14.982388
11
15.6553764
21
-15.0020447
0
LINE
8
0
10
15.6553764
20
-15.0020447
11
15.6215715
21
-15.0490028
0
LINE
8
0
10
15.6215715
20
-15.0490028
11
15.5399374
21
-15.159246
0
LINE
8
0
10
15.5399374
20
-15.159246
11
15.4948754
21
-15.2168189
0
LINE
8
0
10
15.4948754
20
-15.2168189
11
15.4686853
21
-15.2478626
0
LINE
8
0
10
15.4686853
20
-15.2478626
11
15.4597694
21
-15.2580597
0
LINE
8
0
10
15.4597694
20
-15.2580597
11
15.4573124
21
-15.2608257
0
LINE
8
0
10
15.4573124
20
-15.2608257
11
15.4566794
21
-15.2615417
0
LINE
8
0
10
15.4566794
20
-15.2615417
11
15.4565135
21
-15.2617226
0
LINE
8
0
10
15.4565135
20
-15.2617226
11
15.4081279
21
-15.3132511
0
LINE
8
0
10
15.4081279
20
-15.3132511
11
15.3654324
21
-15.3542809
0
LINE
8
0
10
15.3654324
20
-15.3542809
11
15.3651913
21
-15.3544995
0
LINE
8
0
10
15.3651913
20
-15.3544995
11
15.3639326
21
-15.3556601
0
LINE
8
0
10
15.3639326
20
-15.3556601
11
15.3574812
21
-15.3615237
0
LINE
8
0
10
15.3574812
20
-15.3615237
11
15.3287287
21
-15.3868395
0
LINE
8
0
10
15.3287287
20
-15.3868395
11
15.2521557
21
-15.4484068
0
LINE
8
0
10
15.2521557
20
-15.4484068
11
15.1530417
21
-15.5270327
0
LINE
8
0
10
15.1530417
20
-15.5270327
11
15.0798515
21
-15.5793015
0
LINE
8
0
10
15.0798515
20
-15.5793015
11
14.9570355
21
-15.6549119
0
LINE
8
0
10
14.9570355
20
-15.6549119
11
14.9569357
21
-15.6549657
0
LINE
8
0
10
14.9569357
20
-15.6549657
11
14.9565899
21
-15.6551577
0
LINE
8
0
10
14.9565899
20
-15.6551577
11
14.9553683
21
-15.6558415
0
LINE
8
0
10
14.9553683
20
-15.6558415
11
14.9510811
21
-15.6582157
0
LINE
8
0
10
14.9510811
20
-15.6582157
11
14.9368134
21
-15.6659834
0
LINE
8
0
10
14.9368134
20
-15.6659834
11
14.8959771
21
-15.687166
0
LINE
8
0
10
14.8959771
20
-15.687166
11
14.8169093
21
-15.7235382
0
LINE
8
0
10
14.8169093
20
-15.7235382
11
14.7071937
21
-15.7704855
0
LINE
8
0
10
14.7071937
20
-15.7704855
11
14.4852296
21
-15.8425758
0
LINE
8
0
10
14.4852296
20
-15.8425758
11
14.4850665
21
-15.8426147
0
LINE
8
0
10
14.4850665
20
-15.8426147
11
14.4846394
21
-15.8427234
0
LINE
8
0
10
14.4846394
20
-15.8427234
11
14.4835287
21
-15.8429952
0
LINE
8
0
10
14.4835287
20
-15.8429952
11
14.4806628
21
-15.8436865
0
LINE
8
0
10
14.4806628
20
-15.8436865
11
14.4733932
21
-15.8454262
0
LINE
8
0
10
14.4733932
20
-15.8454262
11
14.4557551
21
-15.8495037
0
LINE
8
0
10
14.4557551
20
-15.8495037
11
14.4170304
21
-15.8577675
0
LINE
8
0
10
14.4170304
20
-15.8577675
11
14.3024776
21
-15.8733206
0
LINE
8
0
10
14.3024776
20
-15.8733206
11
14.0583366
21
-15.9039893
0
LINE
8
0
10
14.0583366
20
-15.9039893
11
14.0141925
21
-15.9052519
0
LINE
8
0
10
14.0141925
20
-15.9052519
11
14.0123844
21
-15.9052752
0
LINE
8
0
10
14.0123844
20
-15.9052752
11
14
21
-15.9053376
0
LINE
8
0
10
14
20
-15.9053376
11
6.51794743
21
-15.9053376
0
LINE
8
0
10
6.51794743
20
-15.9053376
11
4.4
21
-15.9053376
0
LINE
8
0
10
4.4
20
-15.9053376
11
4.09752088
21
-15.8733206
0
LINE
8
0
10
4.09752088
20
-15.8733206
11
3.98296851
21
-15.8577675
0
LINE
8
0
10
3.98296851
20
-15.8577675
11
3.69280832
21
-15.7704855
0
LINE
8
0
10
3.69280832
20
-15.7704855
11
3.58309222
21
-15.7235382
0
LINE
8
0
10
3.58309222
20
-15.7235382
11
3.32014542
21
-15.5793015
0
LINE
8
0
10
3.32014542
20
-15.5793015
11
3.21963498
21
-15.4996791
0
LINE
8
0
10
3.21963498
20
-15.4996791
11
2.99186963
21
-15.3132511
0
LINE
8
0
10
2.99186963
20
-15.3132511
11
2.80738157
21
-15.0846175
0
LINE
8
0
10
2.80738157
20
-15.0846175
11
2.72729442
21
-14.9765649
0
LINE
8
0
10
2.72729442
20
-14.9765649
11
2.59023074
21
-14.7249122
0
LINE
8
0
10
2.59023074
20
-14.7249122
11
2.53366045
21
-14.5825524
0
LINE
8
0
10
2.53366045
20
-14.5825524
11
2.45397743
21
-14.3224926
0
LINE
8
0
10
2.45397743
20
-14.3224926
11
2.43638459
21
-14.1803744
0
LINE
8
0
10
2.43638459
20
-14.1803744
11
2.40042301
21
-13.8836702
0
LINE
8
0
10
2.40042301
20
-13.8836702
11
2.4
21
-13.8505968
0
LINE
8
0
10
2.4
20
-13.8505968
11
2.4
21
-10.9476074
0
LINE
8
0
10
2.4
20
-10.9476074
11
2.4
21
-8.89475613
0
LINE
8
0
10
2.4
20
-8.89475613
11
2.4
21
-7.65925533
0
LINE
8
0
10
2.4
20
-7.65925533
11
2.4
21
-7.08887607
0
LINE
8
0
10
2.4
20
-7.08887607
11
2.4
21
-6.29587144
0
LINE
8
0
10
2.4
20
-6.29587144
11
2.4
21
-5.71145444
0
LINE
8
0
10
2.4
20
-5.71145444
11
2.4
21
-5.13910158
0
LINE
8
0
10
2.4
20
-5.13910158
11
2.4
21
-4.73618977
0
LINE
8
0
10
2.4
20
-4.73618977
11
2.4
21
-4.40142453
0
LINE
8
0
10
2.4
20
-4.40142453
11
2.4
21
-3.84291585
0
LINE
8
0
10
2.4
20
-3.84291585
11
2.4
21
-3.59663485
0
LINE
8
0
10
2.4
20
-3.59663485
11
2.4
21
-3.01144094
0
LINE
8
0
10
2.4
20
-3.01144094
11
2.4
21
-2.81816086
0
LINE
8
0
10
2.4
20
-2.81816086
11
2.4
21
-2.63688335
0
LINE
8
0
10
2.4
20
-2.63688335
11
2.4
21
-2.05871997
0
LINE
8
0
10
2.4
20
-2.05871997
11
2.4
21
-1.89260357
0
LINE
8
0
10
2.4
20
-1.89260357
11
2.4
21
-1.3142087
0
LINE
8
0
10
2.4
20
-1.3142087
11
2.4
21
-0.788528612
0
LINE
8
0
10
2.4
20
-0.788528612
11
2.4
21
-0.367259643
0
LINE
8
0
10
2.4
20
-0.367259643
11
2.4
21
4.42664636
0
LINE
8
0
10
2.4
20
4.42664636
11
2.4
21
10.0005717
0
LINE
8
0
10
2.4
20
10.0005717
11
2.4
21
11.0326413
0
LINE
8
0
10
2.4
20
11.0326413
11
2.4
21
14.1915306
0
LINE
8
0
10
2.4
20
14.1915306
11
2.4
21
16.718642
0
LINE
8
0
10
2.4
20
16.718642
11
7.07074683
21
16.718642
0
LINE
8
0
10
7.07074683
20
16.718642
11
16
21
16.718642
0
LINE
8
0
10
16
20
16.718642
11
16
21
11.0326413
0
LINE
8
0
10
16
20
11.0326413
11
16
21
7.84589559
0
LINE
8
0
10
16
20
7.84589559
11
16
21
5.73466746
0
LINE
8
0
10
16
20
5.73466746
11
16
21
5.73466746
0
ENDSEC
0
EOF
