0
SECTION
2
ENTITIES
0
LINE
8
0
10
16
20
-10.9439594
11
16
21
-6.85941777
0
LINE
8
0
10
16
20
-6.85941777
11
16
21
-6.85336293
0
LINE
8
0
10
16
20
-6.85336293
11
15.0340396
21
-5.40209385
0
LINE
8
0
10
15.0340396
20
-5.40209385
11
14.7214807
21
-4.89541304
0
LINE
8
0
10
14.7214807
20
-4.89541304
11
14.3798689
21
-4.30206124
0
LINE
8
0
10
14.3798689
20
-4.30206124
11
14.0499517
21
-3.6100774
0
LINE
8
0
10
14.0499517
20
-3.6100774
11
13.9562975
21
-3.40802389
0
LINE
8
0
10
13.9562975
20
-3.40802389
11
13.9120049
21
-3.27696148
0
LINE
8
0
10
13.9120049
20
-3.27696148
11
13.7210787
21
-2.64316672
0
LINE
8
0
10
13.7210787
20
-2.64316672
11
13.7154338
21
-2.61498992
0
LINE
8
0
10
13.7154338
20
-2.61498992
11
13.65614
21
-2.05692617
0
LINE
8
0
10
13.65614
20
-2.05692617
11
3.99972593
21
-2.05692617
0
LINE
8
0
10
3.99972593
20
-2.05692617
11
2.4
21
-2.05692617
0
LINE
8
0
10
2.4
20
-2.05692617
11
2.4
21
-2.61081683
0
LINE
8
0
10
2.4
20
-2.61081683
11
2.4
21
-2.62211038
0
LINE
8
0
10
2.4
20
-2.62211038
11
2.4
21
-2.63415168
0
LINE
8
0
10
2.4
20
-2.63415168
11
2.4
21
-3.29441186
0
LINE
8
0
10
2.4
20
-3.29441186
11
2.4
21
-3.34914069
0
LINE
8
0
10
2.4
20
-3.34914069
11
2.4
21
-3.98506369
0
LINE
8
0
10
2.4
20
-3.98506369
11
2.4
21
-4.11470216
0
LINE
8
0
10
2.4
20
-4.11470216
11
2.4
21
-4.27073051
0
LINE
8
0
10
2.4
20
-4.27073051
11
2.4
21
-4.94509456
0
LINE
8
0
10
2.4
20
-4.94509456
11
2.4
21
-5.24879876
0
LINE
8
0
10
2.4
20
-5.24879876
11
2.4
21
-5.66089978
0
LINE
8
0
10
2.4
20
-5.66089978
11
2.4
21
-6.39413776
0
LINE
8
0
10
2.4
20
-6.39413776
11
2.4
21
-7.15536638
0
LINE
8
0
10
2.4
20
-7.15536638
11
2.4
21
-8.42018879
0
LINE
8
0
10
2.4
20
-8.42018879
11
2.4
21
-11.1075075
0
LINE
8
0
10
2.4
20
-11.1075075
11
2.4
21
-11.6896262
0
LINE
8
0
10
2.4
20
-11.6896262
11
2.4
21
-12.0462979
0
LINE
8
0
10
2.4
20
-12.0462979
11
2.4
21
-12.2579394
0
LINE
8
0
10
2.4
20
-12.2579394
11
2.4
21
-12.3714557
0
LINE
8
0
10
2.4
20
-12.3714557
11
2.4
21
-13.9574459
0
LINE
8
0
10
2.4
20
-13.9574459
11
2.4
21
-14
0
LINE
8
0
10
2.4
20
-14
11
2.40033328
21
-14.0054747
0
LINE
8
0
10
2.40033328
20
-14.0054747
11
2.40236065
21
-14.017931
0
LINE
8
0
10
2.40236065
20
-14.017931
11
2.40472129
21
-14.0358621
0
LINE
8
0
10
2.40472129
20
-14.0358621
11
2.44091699
21
-14.4011604
0
LINE
8
0
10
2.44091699
20
-14.4011604
11
2.468148
21
-14.51764
0
LINE
8
0
10
2.468148
20
-14.51764
11
2.54662817
21
-14.7487192
0
LINE
8
0
10
2.54662817
20
-14.7487192
11
2.56047039
21
-14.7821371
0
LINE
8
0
10
2.56047039
20
-14.7821371
11
2.667949
21
-15
0
LINE
8
0
10
2.667949
20
-15
11
2.7335629
21
-15.1053668
0
LINE
8
0
10
2.7335629
20
-15.1053668
11
2.75558265
21
-15.1340633
0
LINE
8
0
10
2.75558265
20
-15.1340633
11
2.985786
21
-15.41421
0
LINE
8
0
10
2.985786
20
-15.41421
11
3.26987618
21
-15.6470482
0
LINE
8
0
10
3.26987618
20
-15.6470482
11
3.29862911
21
-15.6691007
0
LINE
8
0
10
3.29862911
20
-15.6691007
11
3.40005619
21
-15.7320826
0
LINE
8
0
10
3.40005619
20
-15.7320826
11
3.62029432
21
-15.8405487
0
LINE
8
0
10
3.62029432
20
-15.8405487
11
3.65365617
21
-15.8543583
0
LINE
8
0
10
3.65365617
20
-15.8543583
11
3.882362
21
-15.93185
0
LINE
8
0
10
3.882362
20
-15.93185
11
4.00202467
21
-15.9597158
0
LINE
8
0
10
4.00202467
20
-15.9597158
11
4.0206208
21
-15.9627415
0
LINE
8
0
10
4.0206208
20
-15.9627415
11
4.4
21
-16
0
LINE
8
0
10
4.4
20
-16
11
4.71921109
21
-16
0
LINE
8
0
10
4.71921109
20
-16
11
14
21
-16
0
LINE
8
0
10
14
20
-16
11
14.0111988
21
-15.999052
0
LINE
8
0
10
14.0111988
20
-15.999052
11
14.0344243
21
-15.9954679
0
LINE
8
0
10
14.0344243
20
-15.9954679
11
14.51764
21
-15.93185
0
LINE
8
0
10
14.51764
20
-15.93185
11
14.5496363
21
-15.91861
0
LINE
8
0
10
14.5496363
20
-15.91861
11
14.9999182
21
-15.7320972
0
LINE
8
0
10
14.9999182
20
-15.7320972
11
15.0275459
21
-15.7109129
0
LINE
8
0
10
15.0275459
20
-15.7109129
11
15.41421
21
-15.41421
0
LINE
8
0
10
15.41421
20
-15.41421
11
15.4353471
21
-15.3866641
0
LINE
8
0
10
15.4353471
20
-15.3866641
11
15.73205
21
-15
0
LINE
8
0
10
15.73205
20
-15
11
15.7453372
21
-14.9679219
0
LINE
8
0
10
15.7453372
20
-14.9679219
11
15.93185
21
-14.51764
0
LINE
8
0
10
15.93185
20
-14.51764
11
15.9338399
21
-14.507235
0
LINE
8
0
10
15.9338399
20
-14.507235
11
15.9994664
21
-14.0087624
0
LINE
8
0
10
15.9994664
20
-14.0087624
11
16
21
-14
0
LINE
8
0
10
16
20
-14
11
16
21
-13.0327826
0
LINE
8
0
10
16
20
-13.0327826
11
16
21
-12.9006722
0
LINE
8
0
10
16
20
-12.9006722
11
16
21
-12.6458893
0
LINE
8
0
10
16
20
-12.6458893
11
16
21
-12.6112988
0
LINE
8
0
10
16
20
-12.6112988
11
16
21
-12.1072969
0
LINE
8
0
10
16
20
-12.1072969
11
16
21
-10.9439594
0
LINE
8
0
10
16
20
-10.9439594
11
16
21
-10.9439594
0
LINE
8
0
10
16
20
36.7565587
11
16
21
42.9562577
0
LINE
8
0
10
16
20
42.9562577
11
16
21
50.9204607
0
LINE
8
0
10
16
20
50.9204607
11
16
21
53.9049012
0
LINE
8
0
10
16
20
53.9049012
11
14.8936138
21
54.9635092
0
LINE
8
0
10
14.8936138
20
54.9635092
11
14.4962673
21
55.3564146
0
LINE
8
0
10
14.4962673
20
55.3564146
11
14.0241342
21
55.8950763
0
LINE
8
0
10
14.0241342
20
55.8950763
11
13.5647919
21
56.4899067
0
LINE
8
0
10
13.5647919
20
56.4899067
11
13.4357669
21
56.683123
0
LINE
8
0
10
13.4357669
20
56.683123
11
13.1098963
21
57.3528755
0
LINE
8
0
10
13.1098963
20
57.3528755
11
13.0942318
21
57.3893214
0
LINE
8
0
10
13.0942318
20
57.3893214
11
13.0890268
21
57.4189956
0
LINE
8
0
10
13.0890268
20
57.4189956
11
13
21
57.9517405
0
LINE
8
0
10
13
20
57.9517405
11
4.04229173
21
57.9517405
0
LINE
8
0
10
4.04229173
20
57.9517405
11
2.4
21
57.9517405
0
LINE
8
0
10
2.4
20
57.9517405
11
2.4
21
57.4060051
0
LINE
8
0
10
2.4
20
57.4060051
11
2.4
21
57.3957848
0
LINE
8
0
10
2.4
20
57.3957848
11
2.4
21
56.77915
0
LINE
8
0
10
2.4
20
56.77915
11
2.4
21
56.266745
0
LINE
8
0
10
2.4
20
56.266745
11
2.4
21
55.898381
0
LINE
8
0
10
2.4
20
55.898381
11
2.4
21
51.0545008
0
LINE
8
0
10
2.4
20
51.0545008
11
2.4
21
46.1398487
0
LINE
8
0
10
2.4
20
46.1398487
11
2.4
21
42.9562577
0
LINE
8
0
10
2.4
20
42.9562577
11
2.4
21
40.1382127
0
LINE
8
0
10
2.4
20
40.1382127
11
2.4
21
36.7565587
0
LINE
8
0
10
2.4
20
36.7565587
11
12.1359612
21
36.7565587
0
LINE
8
0
10
12.1359612
20
36.7565587
11
16
21
36.7565587
0
LINE
8
0
10
16
20
36.7565587
11
16
21
36.7565587
0
LINE
8
0
10
16
20
28.0963023
11
16
21
27.3677977
0
LINE
8
0
10
16
20
27.3677977
11
16
21
23.725273
0
LINE
8
0
10
16
20
23.725273
11
16
21
18.7075427
0
LINE
8
0
10
16
20
18.7075427
11
16
21
17.7039973
0
LINE
8
0
10
16
20
17.7039973
11
16
21
11.7793393
0
LINE
8
0
10
16
20
11.7793393
11
6.69596124
21
11.7793393
0
LINE
8
0
10
6.69596124
20
11.7793393
11
2.4
21
11.7793393
0
LINE
8
0
10
2.4
20
11.7793393
11
2.4
21
14.4125206
0
LINE
8
0
10
2.4
20
14.4125206
11
2.4
21
17.7039973
0
LINE
8
0
10
2.4
20
17.7039973
11
2.4
21
18.3061245
0
LINE
8
0
10
2.4
20
18.3061245
11
2.4
21
18.7075427
0
LINE
8
0
10
2.4
20
18.7075427
11
2.4
21
22.9751609
0
LINE
8
0
10
2.4
20
22.9751609
11
2.4
21
27.3677977
0
LINE
8
0
10
2.4
20
27.3677977
11
2.4
21
27.6591995
0
LINE
8
0
10
2.4
20
27.6591995
11
2.4
21
28.0963023
0
LINE
8
0
10
2.4
20
28.0963023
11
2.4
21
31.5405795
0
LINE
8
0
10
2.4
20
31.5405795
11
2.4
21
34.2960013
0
LINE
8
0
10
2.4
20
34.2960013
11
6.26403876
21
34.2960013
0
LINE
8
0
10
6.26403876
20
34.2960013
11
16
21
34.2960013
0
LINE
8
0
10
16
20
34.2960013
11
16
21
28.0963023
0
LINE
8
0
10
16
20
28.0963023
11
16
21
28.0963023
0
LINE
8
0
10
16
20
68.82141
11
16
21
64.7952887
0
LINE
8
0
10
16
20
64.7952887
11
16
21
62.1867106
0
LINE
8
0
10
16
20
62.1867106
11
15.5453124
21
61.7877538
0
LINE
8
0
10
15.5453124
20
61.7877538
11
15.2948613
21
61.5398197
0
LINE
8
0
10
15.2948613
20
61.5398197
11
14.2741127
21
60.508333
0
LINE
8
0
10
14.2741127
20
60.508333
11
13.936085
21
60.0866285
0
LINE
8
0
10
13.936085
20
60.0866285
11
13.5061185
21
59.5336303
0
LINE
8
0
10
13.5061185
20
59.5336303
11
13.4104244
21
59.3703421
0
LINE
8
0
10
13.4104244
20
59.3703421
11
13.1027458
21
58.7368015
0
LINE
8
0
10
13.1027458
20
58.7368015
11
13.0914461
21
58.7038418
0
LINE
8
0
10
13.0914461
20
58.7038418
11
13
21
58.1522395
0
LINE
8
0
10
13
20
58.1522395
11
11.3577083
21
58.1522395
0
LINE
8
0
10
11.3577083
20
58.1522395
11
2.4
21
58.1522395
0
LINE
8
0
10
2.4
20
58.1522395
11
2.4
21
58.7018202
0
LINE
8
0
10
2.4
20
58.7018202
11
2.4
21
58.7125227
0
LINE
8
0
10
2.4
20
58.7125227
11
2.4
21
58.7242132
0
LINE
8
0
10
2.4
20
58.7242132
11
2.4
21
59.3918501
0
LINE
8
0
10
2.4
20
59.3918501
11
2.4
21
59.4480091
0
LINE
8
0
10
2.4
20
59.4480091
11
2.4
21
60.0926542
0
LINE
8
0
10
2.4
20
60.0926542
11
2.4
21
60.2294738
0
LINE
8
0
10
2.4
20
60.2294738
11
2.4
21
60.4007545
0
LINE
8
0
10
2.4
20
60.4007545
11
2.4
21
61.0876151
0
LINE
8
0
10
2.4
20
61.0876151
11
2.4
21
61.4321797
0
LINE
8
0
10
2.4
20
61.4321797
11
2.4
21
61.9340754
0
LINE
8
0
10
2.4
20
61.9340754
11
2.4
21
62.6795142
0
LINE
8
0
10
2.4
20
62.6795142
11
2.4
21
63.6631484
0
LINE
8
0
10
2.4
20
63.6631484
11
2.4
21
65.5936634
0
LINE
8
0
10
2.4
20
65.5936634
11
2.4
21
68.82141
0
LINE
8
0
10
2.4
20
68.82141
11
2.42162801
21
68.9920202
0
LINE
8
0
10
2.42162801
20
68.9920202
11
2.468148
21
69.345851
0
LINE
8
0
10
2.468148
20
69.345851
11
2.60458775
21
69.6794405
0
LINE
8
0
10
2.60458775
20
69.6794405
11
2.667949
21
69.8343564
0
LINE
8
0
10
2.667949
20
69.8343564
11
2.89890297
21
70.139176
0
LINE
8
0
10
2.89890297
20
70.139176
11
2.985786
21
70.2538467
0
LINE
8
0
10
2.985786
20
70.2538467
11
3.30034574
21
70.498292
0
LINE
8
0
10
3.30034574
20
70.498292
11
3.4
21
70.5757338
0
LINE
8
0
10
3.4
20
70.5757338
11
3.77652335
21
70.7336775
0
LINE
8
0
10
3.77652335
20
70.7336775
11
3.882362
21
70.7780753
0
LINE
8
0
10
3.882362
20
70.7780753
11
4.29137054
21
70.8326081
0
LINE
8
0
10
4.29137054
20
70.8326081
11
4.4
21
70.8470915
0
LINE
8
0
10
4.4
20
70.8470915
11
12.003799
21
70.8470915
0
LINE
8
0
10
12.003799
20
70.8470915
11
14
21
70.8470915
0
LINE
8
0
10
14
20
70.8470915
11
14.4081254
21
70.7926766
0
LINE
8
0
10
14.4081254
20
70.7926766
11
14.51764
21
70.7780753
0
LINE
8
0
10
14.51764
20
70.7780753
11
14.8919401
21
70.6210635
0
LINE
8
0
10
14.8919401
20
70.6210635
11
15
21
70.5757338
0
LINE
8
0
10
15
20
70.5757338
11
15.3120652
21
70.3332246
0
LINE
8
0
10
15.3120652
20
70.3332246
11
15.41421
21
70.2538467
0
LINE
8
0
10
15.41421
20
70.2538467
11
15.6435175
21
69.9512029
0
LINE
8
0
10
15.6435175
20
69.9512029
11
15.73205
21
69.8343564
0
LINE
8
0
10
15.73205
20
69.8343564
11
15.868135
21
69.5016327
0
LINE
8
0
10
15.868135
20
69.5016327
11
15.93185
21
69.345851
0
LINE
8
0
10
15.93185
20
69.345851
11
15.9783714
21
68.9920202
0
LINE
8
0
10
15.9783714
20
68.9920202
11
16
21
68.82141
0
LINE
8
0
10
16
20
68.82141
11
16
21
68.82141
0
LINE
8
0
10
16
20
3.81305723
11
16
21
3.37297522
0
LINE
8
0
10
16
20
3.37297522
11
15.1397225
21
1.79921315
0
LINE
8
0
10
15.1397225
20
1.79921315
11
14.422826
21
0.487746281
0
LINE
8
0
10
14.422826
20
0.487746281
11
14.2446536
21
0.127153037
0
LINE
8
0
10
14.2446536
20
0.127153037
11
13.9593224
21
-0.483084901
0
LINE
8
0
10
13.9593224
20
-0.483084901
11
13.9081129
21
-0.620375333
0
LINE
8
0
10
13.9081129
20
-0.620375333
11
13.7157412
21
-1.28218193
0
LINE
8
0
10
13.7157412
20
-1.28218193
11
13.7094876
21
-1.30858632
0
LINE
8
0
10
13.7094876
20
-1.30858632
11
13.65614
21
-1.86350641
0
LINE
8
0
10
13.65614
20
-1.86350641
11
11.8765099
21
-1.86350641
0
LINE
8
0
10
11.8765099
20
-1.86350641
11
2.4
21
-1.86350641
0
LINE
8
0
10
2.4
20
-1.86350641
11
2.4
21
-1.32028582
0
LINE
8
0
10
2.4
20
-1.32028582
11
2.4
21
-0.733182182
0
LINE
8
0
10
2.4
20
-0.733182182
11
2.4
21
-0.262689673
0
LINE
8
0
10
2.4
20
-0.262689673
11
2.4
21
5.09136446
0
LINE
8
0
10
2.4
20
5.09136446
11
2.4
21
9.04374258
0
LINE
8
0
10
2.4
20
9.04374258
11
11.7040388
21
9.04374258
0
LINE
8
0
10
11.7040388
20
9.04374258
11
16
21
9.04374258
0
LINE
8
0
10
16
20
9.04374258
11
16
21
3.81305723
0
LINE
8
0
10
16
20
3.81305723
11
16
21
3.81305723
0
ENDSEC
0
EOF
