0
SECTION
2
ENTITIES
0
LINE
8
0
10
16
20
35.4893421
11
16
21
35.1938391
0
LINE
8
0
10
16
20
35.1938391
11
16
21
28.5611381
0
LINE
8
0
10
16
20
28.5611381
11
5.00398609
21
28.5611381
0
LINE
8
0
10
5.00398609
20
28.5611381
11
2.4
21
28.5611381
0
LINE
8
0
10
2.4
20
28.5611381
11
2.4
21
31.6731735
0
LINE
8
0
10
2.4
20
31.6731735
11
2.4
21
35.4893421
0
LINE
8
0
10
2.4
20
35.4893421
11
2.51601391
21
35.4893421
0
LINE
8
0
10
2.51601391
20
35.4893421
11
16
21
35.4893421
0
LINE
8
0
10
16
20
35.4893421
11
16
21
35.4893421
0
LINE
8
0
10
16
20
-14
11
16
21
-12.1768894
0
LINE
8
0
10
16
20
-12.1768894
11
16
21
-11.9278743
0
LINE
8
0
10
16
20
-11.9278743
11
16
21
-11.4476333
0
LINE
8
0
10
16
20
-11.4476333
11
16
21
-11.4209799
0
LINE
8
0
10
16
20
-11.4209799
11
16
21
-10.4709854
0
LINE
8
0
10
16
20
-10.4709854
11
16
21
-8.27820768
0
LINE
8
0
10
16
20
-8.27820768
11
16
21
-7.1249587
0
LINE
8
0
10
16
20
-7.1249587
11
15.1243106
21
-5.92339562
0
LINE
8
0
10
15.1243106
20
-5.92339562
11
14.7006691
21
-5.33604804
0
LINE
8
0
10
14.7006691
20
-5.33604804
11
14.2698868
21
-4.68883616
0
LINE
8
0
10
14.2698868
20
-4.68883616
11
13.7100684
21
-3.78132981
0
LINE
8
0
10
13.7100684
20
-3.78132981
11
13.6927757
21
-3.75129386
0
LINE
8
0
10
13.6927757
20
-3.75129386
11
13.65614
21
-3.67445233
0
LINE
8
0
10
13.65614
20
-3.67445233
11
12.6162121
21
-3.67445233
0
LINE
8
0
10
12.6162121
20
-3.67445233
11
2.4
21
-3.67445233
0
LINE
8
0
10
2.4
20
-3.67445233
11
2.4
21
-3.73524719
0
LINE
8
0
10
2.4
20
-3.73524719
11
2.4
21
-3.74180959
0
LINE
8
0
10
2.4
20
-3.74180959
11
2.4
21
-3.74970788
0
LINE
8
0
10
2.4
20
-3.74970788
11
2.4
21
-4.48527863
0
LINE
8
0
10
2.4
20
-4.48527863
11
2.4
21
-4.62055516
0
LINE
8
0
10
2.4
20
-4.62055516
11
2.4
21
-4.80411401
0
LINE
8
0
10
2.4
20
-4.80411401
11
2.4
21
-5.63506722
0
LINE
8
0
10
2.4
20
-5.63506722
11
2.4
21
-6.11173253
0
LINE
8
0
10
2.4
20
-6.11173253
11
2.4
21
-6.90373765
0
LINE
8
0
10
2.4
20
-6.90373765
11
2.4
21
-8.58647997
0
LINE
8
0
10
2.4
20
-8.58647997
11
2.4
21
-9.68371697
0
LINE
8
0
10
2.4
20
-9.68371697
11
2.4
21
-10.3560084
0
LINE
8
0
10
2.4
20
-10.3560084
11
2.4
21
-10.7549318
0
LINE
8
0
10
2.4
20
-10.7549318
11
2.4
21
-10.9688991
0
LINE
8
0
10
2.4
20
-10.9688991
11
2.4
21
-13.9583361
0
LINE
8
0
10
2.4
20
-13.9583361
11
2.4
21
-14
0
LINE
8
0
10
2.4
20
-14
11
2.40062821
21
-14.0103193
0
LINE
8
0
10
2.40062821
20
-14.0103193
11
2.40444959
21
-14.0337983
0
LINE
8
0
10
2.40444959
20
-14.0337983
11
2.40889918
21
-14.0675966
0
LINE
8
0
10
2.40889918
20
-14.0675966
11
2.44271069
21
-14.4088328
0
LINE
8
0
10
2.44271069
20
-14.4088328
11
2.468148
21
-14.51764
0
LINE
8
0
10
2.468148
20
-14.51764
11
2.54145872
21
-14.7334981
0
LINE
8
0
10
2.54145872
20
-14.7334981
11
2.56754995
21
-14.7964876
0
LINE
8
0
10
2.56754995
20
-14.7964876
11
2.667949
21
-15
0
LINE
8
0
10
2.667949
20
-15
11
2.72924094
21
-15.0984264
0
LINE
8
0
10
2.72924094
20
-15.0984264
11
2.77074602
21
-15.1525164
0
LINE
8
0
10
2.77074602
20
-15.1525164
11
2.985786
21
-15.41421
0
LINE
8
0
10
2.985786
20
-15.41421
11
3.25116331
21
-15.6317113
0
LINE
8
0
10
3.25116331
20
-15.6317113
11
3.30535978
21
-15.6732781
0
LINE
8
0
10
3.30535978
20
-15.6732781
11
3.40010591
21
-15.7321114
0
LINE
8
0
10
3.40010591
20
-15.7321114
11
3.60583707
21
-15.8334329
0
LINE
8
0
10
3.60583707
20
-15.8334329
11
3.66872091
21
-15.8594626
0
LINE
8
0
10
3.66872091
20
-15.8594626
11
3.882362
21
-15.93185
0
LINE
8
0
10
3.882362
20
-15.93185
11
3.99414255
21
-15.9578803
0
LINE
8
0
10
3.99414255
20
-15.9578803
11
4.02919444
21
-15.9635835
0
LINE
8
0
10
4.02919444
20
-15.9635835
11
4.4
21
-16
0
LINE
8
0
10
4.4
20
-16
11
5.00168178
21
-16
0
LINE
8
0
10
5.00168178
20
-16
11
14
21
-16
0
LINE
8
0
10
14
20
-16
11
14.0211086
21
-15.998213
0
LINE
8
0
10
14.0211086
20
-15.998213
11
14.0648864
21
-15.9914574
0
LINE
8
0
10
14.0648864
20
-15.9914574
11
14.51764
21
-15.93185
0
LINE
8
0
10
14.51764
20
-15.93185
11
14.5779498
21
-15.906894
0
LINE
8
0
10
14.5779498
20
-15.906894
11
14.9998458
21
-15.732139
0
LINE
8
0
10
14.9998458
20
-15.732139
11
15.0519214
21
-15.6922086
0
LINE
8
0
10
15.0519214
20
-15.6922086
11
15.41421
21
-15.41421
0
LINE
8
0
10
15.41421
20
-15.41421
11
15.4540514
21
-15.3622886
0
LINE
8
0
10
15.4540514
20
-15.3622886
11
15.73205
21
-15
0
LINE
8
0
10
15.73205
20
-15
11
15.757095
21
-14.939536
0
LINE
8
0
10
15.757095
20
-14.939536
11
15.93185
21
-14.51764
0
LINE
8
0
10
15.93185
20
-14.51764
11
15.9356008
21
-14.4980276
0
LINE
8
0
10
15.9356008
20
-14.4980276
11
15.9989943
21
-14.0165163
0
LINE
8
0
10
15.9989943
20
-14.0165163
11
16
21
-14
0
LINE
8
0
10
16
20
-14
11
16
21
-14
0
LINE
8
0
10
16
20
4.07653359
11
16
21
4.72683943
0
LINE
8
0
10
16
20
4.72683943
11
16
21
7.85040344
0
LINE
8
0
10
16
20
7.85040344
11
7.95601391
21
7.85040344
0
LINE
8
0
10
7.95601391
20
7.85040344
11
2.4
21
7.85040344
0
LINE
8
0
10
2.4
20
7.85040344
11
2.4
21
5.49019532
0
LINE
8
0
10
2.4
20
5.49019532
11
2.4
21
-0.199947692
0
LINE
8
0
10
2.4
20
-0.199947692
11
2.4
21
-0.214998811
0
LINE
8
0
10
2.4
20
-0.214998811
11
2.75017303
21
-0.214998811
0
LINE
8
0
10
2.75017303
20
-0.214998811
11
13.65614
21
-0.214998811
0
LINE
8
0
10
13.65614
20
-0.214998811
11
13.6663353
21
-0.193194133
0
LINE
8
0
10
13.6663353
20
-0.193194133
11
13.6694219
21
-0.186947286
0
LINE
8
0
10
13.6694219
20
-0.186947286
11
14.7287745
21
1.75099733
0
LINE
8
0
10
14.7287745
20
1.75099733
11
16
21
4.07653359
0
LINE
8
0
10
16
20
4.07653359
11
16
21
4.07653359
0
LINE
8
0
10
16
20
12.9726801
11
16
21
16.5106578
0
LINE
8
0
10
16
20
16.5106578
11
16
21
19.9008822
0
LINE
8
0
10
16
20
19.9008822
11
16
21
26.9029619
0
LINE
8
0
10
16
20
26.9029619
11
13.3960139
21
26.9029619
0
LINE
8
0
10
13.3960139
20
26.9029619
11
2.4
21
26.9029619
0
LINE
8
0
10
2.4
20
26.9029619
11
2.4
21
23.0836457
0
LINE
8
0
10
2.4
20
23.0836457
11
2.4
21
19.9008822
0
LINE
8
0
10
2.4
20
19.9008822
11
2.4
21
18.5447924
0
LINE
8
0
10
2.4
20
18.5447924
11
2.4
21
16.5106578
0
LINE
8
0
10
2.4
20
16.5106578
11
2.4
21
14.5451147
0
LINE
8
0
10
2.4
20
14.5451147
11
2.4
21
12.9726801
0
LINE
8
0
10
2.4
20
12.9726801
11
10.4439861
21
12.9726801
0
LINE
8
0
10
10.4439861
20
12.9726801
11
16
21
12.9726801
0
LINE
8
0
10
16
20
12.9726801
11
16
21
12.9726801
0
LINE
8
0
10
16
20
53.5771121
11
16
21
49.0875639
0
LINE
8
0
10
16
20
49.0875639
11
16
21
47.580104
0
LINE
8
0
10
16
20
47.580104
11
16
21
44.1495972
0
LINE
8
0
10
16
20
44.1495972
11
16
21
35.5632179
0
LINE
8
0
10
16
20
35.5632179
11
15.8839861
21
35.5632179
0
LINE
8
0
10
15.8839861
20
35.5632179
11
2.4
21
35.5632179
0
LINE
8
0
10
2.4
20
35.5632179
11
2.4
21
40.2466975
0
LINE
8
0
10
2.4
20
40.2466975
11
2.4
21
44.1495972
0
LINE
8
0
10
2.4
20
44.1495972
11
2.4
21
45.5208996
0
LINE
8
0
10
2.4
20
45.5208996
11
2.4
21
50.7440581
0
LINE
8
0
10
2.4
20
50.7440581
11
2.4
21
55.8920021
0
LINE
8
0
10
2.4
20
55.8920021
11
2.4
21
56.2834893
0
LINE
8
0
10
2.4
20
56.2834893
11
2.4
21
56.3234028
0
LINE
8
0
10
2.4
20
56.3234028
11
12.1978341
21
56.3234028
0
LINE
8
0
10
12.1978341
20
56.3234028
11
13
21
56.3234028
0
LINE
8
0
10
13
20
56.3234028
11
13.0428233
21
56.2679483
0
LINE
8
0
10
13.0428233
20
56.2679483
11
13.0625651
21
56.2454246
0
LINE
8
0
10
13.0625651
20
56.2454246
11
13.8387532
21
55.477912
0
LINE
8
0
10
13.8387532
20
55.477912
11
14.4126268
21
54.9288206
0
LINE
8
0
10
14.4126268
20
54.9288206
11
16
21
53.5771121
0
LINE
8
0
10
16
20
53.5771121
11
16
21
53.5771121
0
LINE
8
0
10
16
20
68.9192318
11
16
21
67.650317
0
LINE
8
0
10
16
20
67.650317
11
16
21
62.5448761
0
LINE
8
0
10
16
20
62.5448761
11
15.8846817
21
62.4518364
0
LINE
8
0
10
15.8846817
20
62.4518364
11
15.7675905
21
62.351914
0
LINE
8
0
10
15.7675905
20
62.351914
11
14.1274152
21
60.9127742
0
LINE
8
0
10
14.1274152
20
60.9127742
11
13.0959576
21
59.8916828
0
LINE
8
0
10
13.0959576
20
59.8916828
11
13.0532759
21
59.8485521
0
LINE
8
0
10
13.0532759
20
59.8485521
11
13.0391416
21
59.8309189
0
LINE
8
0
10
13.0391416
20
59.8309189
11
13
21
59.7805772
0
LINE
8
0
10
13
20
59.7805772
11
3.20216592
21
59.7805772
0
LINE
8
0
10
3.20216592
20
59.7805772
11
2.4
21
59.7805772
0
LINE
8
0
10
2.4
20
59.7805772
11
2.4
21
59.8311708
0
LINE
8
0
10
2.4
20
59.8311708
11
2.4
21
59.8368918
0
LINE
8
0
10
2.4
20
59.8368918
11
2.4
21
59.8440538
0
LINE
8
0
10
2.4
20
59.8440538
11
2.4
21
60.6026562
0
LINE
8
0
10
2.4
20
60.6026562
11
2.4
21
60.755277
0
LINE
8
0
10
2.4
20
60.755277
11
2.4
21
60.9775856
0
LINE
8
0
10
2.4
20
60.9775856
11
2.4
21
61.8508751
0
LINE
8
0
10
2.4
20
61.8508751
11
2.4
21
62.4661465
0
LINE
8
0
10
2.4
20
62.4661465
11
2.4
21
63.6736998
0
LINE
8
0
10
2.4
20
63.6736998
11
2.4
21
67.4912051
0
LINE
8
0
10
2.4
20
67.4912051
11
2.4
21
67.951745
0
LINE
8
0
10
2.4
20
67.951745
11
2.4
21
68.9192318
0
LINE
8
0
10
2.4
20
68.9192318
11
2.46012541
21
69.3817083
0
LINE
8
0
10
2.46012541
20
69.3817083
11
2.468148
21
69.4426465
0
LINE
8
0
10
2.468148
20
69.4426465
11
2.49166919
21
69.4994314
0
LINE
8
0
10
2.49166919
20
69.4994314
11
2.667949
21
69.9250088
0
LINE
8
0
10
2.667949
20
69.9250088
11
2.71502617
21
69.9863604
0
LINE
8
0
10
2.71502617
20
69.9863604
11
2.985786
21
70.3392226
0
LINE
8
0
10
2.985786
20
70.3392226
11
3.05727888
21
70.3940815
0
LINE
8
0
10
3.05727888
20
70.3940815
11
3.4
21
70.6570615
0
LINE
8
0
10
3.4
20
70.6570615
11
3.49186653
21
70.6951137
0
LINE
8
0
10
3.49186653
20
70.6951137
11
3.882362
21
70.8568585
0
LINE
8
0
10
3.882362
20
70.8568585
11
3.98655402
21
70.870576
0
LINE
8
0
10
3.98655402
20
70.870576
11
4.4
21
70.9250073
0
LINE
8
0
10
4.4
20
70.9250073
11
6.36715724
21
70.9250073
0
LINE
8
0
10
6.36715724
20
70.9250073
11
14
21
70.9250073
0
LINE
8
0
10
14
20
70.9250073
11
14.1060708
21
70.9110426
0
LINE
8
0
10
14.1060708
20
70.9110426
11
14.51764
21
70.8568585
0
LINE
8
0
10
14.51764
20
70.8568585
11
14.6147311
21
70.8166421
0
LINE
8
0
10
14.6147311
20
70.8166421
11
15
21
70.6570615
0
LINE
8
0
10
15
20
70.6570615
11
15.0788869
21
70.5965284
0
LINE
8
0
10
15.0788869
20
70.5965284
11
15.41421
21
70.3392226
0
LINE
8
0
10
15.41421
20
70.3392226
11
15.4690688
21
70.2677304
0
LINE
8
0
10
15.4690688
20
70.2677304
11
15.73205
21
69.9250088
0
LINE
8
0
10
15.73205
20
69.9250088
11
15.7616438
21
69.8535629
0
LINE
8
0
10
15.7616438
20
69.8535629
11
15.93185
21
69.4426465
0
LINE
8
0
10
15.93185
20
69.4426465
11
15.9398728
21
69.3817083
0
LINE
8
0
10
15.9398728
20
69.3817083
11
16
21
68.9192318
0
LINE
8
0
10
16
20
68.9192318
11
16
21
68.9192318
0
ENDSEC
0
EOF
