0
SECTION
2
ENTITIES
0
LINE
8
0
10
3.24608668
20
-6.78169285
11
3.4
21
-7.08210008
0
LINE
8
0
10
3.4
20
-7.08210008
11
3.57664585
21
-7.26821841
0
LINE
8
0
10
3.57664585
20
-7.26821841
11
3.882362
21
-7.59033118
0
LINE
8
0
10
3.882362
20
-7.59033118
11
3.97604538
21
-7.62170555
0
LINE
8
0
10
3.97604538
20
-7.62170555
11
4.4
21
-7.76366714
0
LINE
8
0
10
4.4
20
-7.76366714
11
5.42973641
21
-7.76366714
0
LINE
8
0
10
5.42973641
20
-7.76366714
11
14
21
-7.76366714
0
LINE
8
0
10
14
20
-7.76366714
11
14.0613233
21
-7.74313043
0
LINE
8
0
10
14.0613233
20
-7.74313043
11
14.51764
21
-7.59033118
0
LINE
8
0
10
14.51764
20
-7.59033118
11
14.6501315
21
-7.45073408
0
LINE
8
0
10
14.6501315
20
-7.45073408
11
15
21
-7.08210008
0
LINE
8
0
10
15
20
-7.08210008
11
15.353033
21
-6.393039
0
LINE
8
0
10
15.353033
20
-6.393039
11
15.41421
21
-6.27363245
0
LINE
8
0
10
15.41421
20
-6.27363245
11
15.4584059
21
-6.12712368
0
LINE
8
0
10
15.4584059
20
-6.12712368
11
15.73205
21
-4.87403967
0
LINE
8
0
10
15.73205
20
-4.87403967
11
15.7842111
21
-4.43155133
0
LINE
8
0
10
15.7842111
20
-4.43155133
11
15.8534104
21
-3.46183057
0
LINE
8
0
10
15.8534104
20
-3.46183057
11
15.898809
21
-2.82564393
0
LINE
8
0
10
15.898809
20
-2.82564393
11
15.93185
21
-1.44282305
0
LINE
8
0
10
15.93185
20
-1.44282305
11
15.9332218
21
-1.262199
0
LINE
8
0
10
15.9332218
20
-1.262199
11
15.9332218
21
9.95971546
0
LINE
8
0
10
15.9332218
20
9.95971546
11
15.9332218
21
21.1816309
0
LINE
8
0
10
15.9332218
20
21.1816309
11
15.9332218
21
32.4035463
0
LINE
8
0
10
15.9332218
20
32.4035463
11
15.9332218
21
33.5561691
0
LINE
8
0
10
15.9332218
20
33.5561691
11
15.9332218
21
44.7780846
0
LINE
8
0
10
15.9332218
20
44.7780846
11
15.9332218
21
56
0
LINE
8
0
10
15.9332218
20
56
11
15.93185
21
56.1855284
0
LINE
8
0
10
15.93185
20
56.1855284
11
15.9055859
21
57.3145477
0
LINE
8
0
10
15.9055859
20
57.3145477
11
15.9007625
21
57.521902
0
LINE
8
0
10
15.9007625
20
57.521902
11
15.8423384
21
58.3626251
0
LINE
8
0
10
15.8423384
20
58.3626251
11
15.7922825
21
59.0829339
0
LINE
8
0
10
15.7922825
20
59.0829339
11
15.7638793
21
59.3302414
0
LINE
8
0
10
15.7638793
20
59.3302414
11
15.73205
21
59.6073896
0
LINE
8
0
10
15.73205
20
59.6073896
11
15.6210361
21
60.129178
0
LINE
8
0
10
15.6210361
20
60.129178
11
15.4939765
21
60.7263781
0
LINE
8
0
10
15.4939765
20
60.7263781
11
15.4456548
21
60.890674
0
LINE
8
0
10
15.4456548
20
60.890674
11
15.41421
21
60.9975908
0
LINE
8
0
10
15.41421
20
60.9975908
11
15.1795217
21
61.467433
0
LINE
8
0
10
15.1795217
20
61.467433
11
15
21
61.8268329
0
LINE
8
0
10
15
20
61.8268329
11
14.8624277
21
61.975507
0
LINE
8
0
10
14.8624277
20
61.975507
11
14.51764
21
62.3481055
0
LINE
8
0
10
14.51764
20
62.3481055
11
14.4779313
21
62.361744
0
LINE
8
0
10
14.4779313
20
62.361744
11
14.0616236
21
62.5047398
0
LINE
8
0
10
14.0616236
20
62.5047398
11
14.0043422
21
62.5203056
0
LINE
8
0
10
14.0043422
20
62.5203056
11
14
21
62.5214855
0
LINE
8
0
10
14
20
62.5214855
11
4.4862404
21
62.5214855
0
LINE
8
0
10
4.4862404
20
62.5214855
11
4.4
21
62.5214855
0
LINE
8
0
10
4.4
20
62.5214855
11
4.3383766
21
62.5047398
0
LINE
8
0
10
4.3383766
20
62.5047398
11
3.882362
21
62.3481055
0
LINE
8
0
10
3.882362
20
62.3481055
11
3.82466491
21
62.2857532
0
LINE
8
0
10
3.82466491
20
62.2857532
11
3.4
21
61.8268329
0
LINE
8
0
10
3.4
20
61.8268329
11
3.10812202
21
61.2425033
0
LINE
8
0
10
3.10812202
20
61.2425033
11
2.985786
21
60.9975908
0
LINE
8
0
10
2.985786
20
60.9975908
11
2.90602027
21
60.7263781
0
LINE
8
0
10
2.90602027
20
60.7263781
11
2.667949
21
59.6073896
0
LINE
8
0
10
2.667949
20
59.6073896
11
2.60771618
21
59.0829339
0
LINE
8
0
10
2.60771618
20
59.0829339
11
2.5370237
21
58.0656715
0
LINE
8
0
10
2.5370237
20
58.0656715
11
2.49923568
21
57.521902
0
LINE
8
0
10
2.49923568
20
57.521902
11
2.468148
21
56.1855284
0
LINE
8
0
10
2.468148
20
56.1855284
11
2.46677626
21
56
0
LINE
8
0
10
2.46677626
20
56
11
2.46677626
21
44.7780846
0
LINE
8
0
10
2.46677626
20
44.7780846
11
2.46677626
21
33.5561691
0
LINE
8
0
10
2.46677626
20
33.5561691
11
2.46677626
21
22.3342537
0
LINE
8
0
10
2.46677626
20
22.3342537
11
2.46677626
21
21.1816309
0
LINE
8
0
10
2.46677626
20
21.1816309
11
2.46677626
21
9.95971546
0
LINE
8
0
10
2.46677626
20
9.95971546
11
2.46677626
21
-1.262199
0
LINE
8
0
10
2.46677626
20
-1.262199
11
2.468148
21
-1.44282305
0
LINE
8
0
10
2.468148
20
-1.44282305
11
2.49582593
21
-2.60116246
0
LINE
8
0
10
2.49582593
20
-2.60116246
11
2.50118916
21
-2.82564393
0
LINE
8
0
10
2.50118916
20
-2.82564393
11
2.56097078
21
-3.66339535
0
LINE
8
0
10
2.56097078
20
-3.66339535
11
2.61578762
21
-4.43155133
0
LINE
8
0
10
2.61578762
20
-4.43155133
11
2.64108813
21
-4.64617965
0
LINE
8
0
10
2.64108813
20
-4.64617965
11
2.667949
21
-4.87403967
0
LINE
8
0
10
2.667949
20
-4.87403967
11
2.7917513
21
-5.44096119
0
LINE
8
0
10
2.7917513
20
-5.44096119
11
2.9415905
21
-6.12712368
0
LINE
8
0
10
2.9415905
20
-6.12712368
11
2.96894239
21
-6.21779515
0
LINE
8
0
10
2.96894239
20
-6.21779515
11
2.985786
21
-6.27363245
0
LINE
8
0
10
2.985786
20
-6.27363245
11
3.24608668
21
-6.78169285
0
LINE
8
0
10
3.24608668
20
-6.78169285
11
3.24608668
21
-6.78169285
0
ENDSEC
0
EOF
