0
SECTION
2
ENTITIES
0
LINE
8
0
10
16
20
68.9331228
11
16
21
66.406224
0
LINE
8
0
10
16
20
66.406224
11
16
21
62.6131991
0
LINE
8
0
10
16
20
62.6131991
11
15.3089958
21
62.0556916
0
LINE
8
0
10
15.3089958
20
62.0556916
11
14.6073676
21
61.4569412
0
LINE
8
0
10
14.6073676
20
61.4569412
11
13.6547828
21
60.6211143
0
LINE
8
0
10
13.6547828
20
60.6211143
11
13
21
59.9729121
0
LINE
8
0
10
13
20
59.9729121
11
8.91378561
21
59.9729121
0
LINE
8
0
10
8.91378561
20
59.9729121
11
2.4
21
59.9729121
0
LINE
8
0
10
2.4
20
59.9729121
11
2.4
21
60.4410033
0
LINE
8
0
10
2.4
20
60.4410033
11
2.4
21
60.5296427
0
LINE
8
0
10
2.4
20
60.5296427
11
2.4
21
60.6587556
0
LINE
8
0
10
2.4
20
60.6587556
11
2.4
21
61.574662
0
LINE
8
0
10
2.4
20
61.574662
11
2.4
21
62.0671458
0
LINE
8
0
10
2.4
20
62.0671458
11
2.4
21
63.0337119
0
LINE
8
0
10
2.4
20
63.0337119
11
2.4
21
66.089371
0
LINE
8
0
10
2.4
20
66.089371
11
2.4
21
67.0064835
0
LINE
8
0
10
2.4
20
67.0064835
11
2.4
21
68.9331228
0
LINE
8
0
10
2.4
20
68.9331228
11
2.44978463
21
69.3160595
0
LINE
8
0
10
2.44978463
20
69.3160595
11
2.468148
21
69.4555444
0
LINE
8
0
10
2.468148
20
69.4555444
11
2.52198698
21
69.5855225
0
LINE
8
0
10
2.52198698
20
69.5855225
11
2.667949
21
69.9379063
0
LINE
8
0
10
2.667949
20
69.9379063
11
2.76159327
21
70.0599449
0
LINE
8
0
10
2.76159327
20
70.0599449
11
2.985786
21
70.3521195
0
LINE
8
0
10
2.985786
20
70.3521195
11
3.11622237
21
70.4522076
0
LINE
8
0
10
3.11622237
20
70.4522076
11
3.4
21
70.6699585
0
LINE
8
0
10
3.4
20
70.6699585
11
3.55902657
21
70.7358292
0
LINE
8
0
10
3.55902657
20
70.7358292
11
3.882362
21
70.8697561
0
LINE
8
0
10
3.882362
20
70.8697561
11
4.05766125
21
70.8928352
0
LINE
8
0
10
4.05766125
20
70.8928352
11
4.4
21
70.9379051
0
LINE
8
0
10
4.4
20
70.9379051
11
7.67990501
21
70.9379051
0
LINE
8
0
10
7.67990501
20
70.9379051
11
14
21
70.9379051
0
LINE
8
0
10
14
20
70.9379051
11
14.1768552
21
70.9146212
0
LINE
8
0
10
14.1768552
20
70.9146212
11
14.51764
21
70.8697561
0
LINE
8
0
10
14.51764
20
70.8697561
11
14.6809923
21
70.8020933
0
LINE
8
0
10
14.6809923
20
70.8020933
11
15
21
70.6699585
0
LINE
8
0
10
15
20
70.6699585
11
15.136558
21
70.5651721
0
LINE
8
0
10
15.136558
20
70.5651721
11
15.41421
21
70.3521195
0
LINE
8
0
10
15.41421
20
70.3521195
11
15.5142981
21
70.2216844
0
LINE
8
0
10
15.5142981
20
70.2216844
11
15.73205
21
69.9379063
0
LINE
8
0
10
15.73205
20
69.9379063
11
15.790917
21
69.7957886
0
LINE
8
0
10
15.790917
20
69.7957886
11
15.93185
21
69.4555444
0
LINE
8
0
10
15.93185
20
69.4555444
11
15.9502139
21
69.3160595
0
LINE
8
0
10
15.9502139
20
69.3160595
11
16
21
68.9331228
0
LINE
8
0
10
16
20
68.9331228
11
16
21
68.9331228
0
LINE
8
0
10
16
20
4.31105304
11
16
21
5.0314335
0
LINE
8
0
10
16
20
5.0314335
11
16
21
7.45262373
0
LINE
8
0
10
16
20
7.45262373
11
6.7066723
21
7.45262373
0
LINE
8
0
10
6.7066723
20
7.45262373
11
2.4
21
7.45262373
0
LINE
8
0
10
2.4
20
7.45262373
11
2.4
21
5.62313894
0
LINE
8
0
10
2.4
20
5.62313894
11
2.4
21
1.15476555
0
LINE
8
0
10
2.4
20
1.15476555
11
2.4
21
0.0232748452
0
LINE
8
0
10
2.4
20
0.0232748452
11
3.77071789
21
0.0232748452
0
LINE
8
0
10
3.77071789
20
0.0232748452
11
13.65614
21
0.0232748452
0
LINE
8
0
10
13.65614
20
0.0232748452
11
14.5917918
21
1.7349254
0
LINE
8
0
10
14.5917918
20
1.7349254
11
16
21
4.31105304
0
LINE
8
0
10
16
20
4.31105304
11
16
21
4.31105304
0
LINE
8
0
10
16
20
46.4666518
11
16
21
44.547377
0
LINE
8
0
10
16
20
44.547377
11
16
21
39.4955436
0
LINE
8
0
10
16
20
39.4955436
11
16
21
35.887122
0
LINE
8
0
10
16
20
35.887122
11
16
21
35.165438
0
LINE
8
0
10
16
20
35.165438
11
16
21
28.9589184
0
LINE
8
0
10
16
20
28.9589184
11
6.2533277
21
28.9589184
0
LINE
8
0
10
6.2533277
20
28.9589184
11
2.4
21
28.9589184
0
LINE
8
0
10
2.4
20
28.9589184
11
2.4
21
31.7173716
0
LINE
8
0
10
2.4
20
31.7173716
11
2.4
21
35.165438
0
LINE
8
0
10
2.4
20
35.165438
11
2.4
21
35.5984484
0
LINE
8
0
10
2.4
20
35.5984484
11
2.4
21
35.887122
0
LINE
8
0
10
2.4
20
35.887122
11
2.4
21
40.2828591
0
LINE
8
0
10
2.4
20
40.2828591
11
2.4
21
44.547377
0
LINE
8
0
10
2.4
20
44.547377
11
2.4
21
45.3145832
0
LINE
8
0
10
2.4
20
45.3145832
11
2.4
21
50.6405771
0
LINE
8
0
10
2.4
20
50.6405771
11
2.4
21
55.8898758
0
LINE
8
0
10
2.4
20
55.8898758
11
2.4
21
56.1310679
0
LINE
8
0
10
2.4
20
56.1310679
11
6.48621439
21
56.1310679
0
LINE
8
0
10
6.48621439
20
56.1310679
11
13
21
56.1310679
0
LINE
8
0
10
13
20
56.1310679
11
13.487133
21
55.6493796
0
LINE
8
0
10
13.487133
20
55.6493796
11
13.8204287
21
55.330477
0
LINE
8
0
10
13.8204287
20
55.330477
11
16
21
53.4744893
0
LINE
8
0
10
16
20
53.4744893
11
16
21
47.3100345
0
LINE
8
0
10
16
20
47.3100345
11
16
21
46.4666518
0
LINE
8
0
10
16
20
46.4666518
11
16
21
46.4666518
0
LINE
8
0
10
16
20
16.112878
11
16
21
20.298662
0
LINE
8
0
10
16
20
20.298662
11
16
21
26.5051816
0
LINE
8
0
10
16
20
26.5051816
11
12.1466723
21
26.5051816
0
LINE
8
0
10
12.1466723
20
26.5051816
11
2.4
21
26.5051816
0
LINE
8
0
10
2.4
20
26.5051816
11
2.4
21
23.1198073
0
LINE
8
0
10
2.4
20
23.1198073
11
2.4
21
20.298662
0
LINE
8
0
10
2.4
20
20.298662
11
2.4
21
18.6243484
0
LINE
8
0
10
2.4
20
18.6243484
11
2.4
21
16.112878
0
LINE
8
0
10
2.4
20
16.112878
11
2.4
21
14.5893127
0
LINE
8
0
10
2.4
20
14.5893127
11
2.4
21
13.3704604
0
LINE
8
0
10
2.4
20
13.3704604
11
11.6933277
21
13.3704604
0
LINE
8
0
10
11.6933277
20
13.3704604
11
16
21
13.3704604
0
LINE
8
0
10
16
20
13.3704604
11
16
21
16.112878
0
LINE
8
0
10
16
20
16.112878
11
16
21
16.112878
0
LINE
8
0
10
16
20
-14
11
16
21
-11.8915917
0
LINE
8
0
10
16
20
-11.8915917
11
16
21
-11.6036083
0
LINE
8
0
10
16
20
-11.6036083
11
16
21
-11.0482146
0
LINE
8
0
10
16
20
-11.0482146
11
16
21
-11.0242069
0
LINE
8
0
10
16
20
-11.0242069
11
16
21
-9.9255483
0
LINE
8
0
10
16
20
-9.9255483
11
16
21
-7.38962378
0
LINE
8
0
10
16
20
-7.38962378
11
16
21
-7.21544152
0
LINE
8
0
10
16
20
-7.21544152
11
14.8321507
21
-5.61299594
0
LINE
8
0
10
14.8321507
20
-5.61299594
11
14.2671679
21
-4.82968914
0
LINE
8
0
10
14.2671679
20
-4.82968914
11
14.0151692
21
-4.4510836
0
LINE
8
0
10
14.0151692
20
-4.4510836
11
13.65614
21
-3.86907119
0
LINE
8
0
10
13.65614
20
-3.86907119
11
6.60331842
21
-3.86907119
0
LINE
8
0
10
6.60331842
20
-3.86907119
11
2.4
21
-3.86907119
0
LINE
8
0
10
2.4
20
-3.86907119
11
2.4
21
-4.33200666
0
LINE
8
0
10
2.4
20
-4.33200666
11
2.4
21
-4.41114062
0
LINE
8
0
10
2.4
20
-4.41114062
11
2.4
21
-4.51851875
0
LINE
8
0
10
2.4
20
-4.51851875
11
2.4
21
-5.38204371
0
LINE
8
0
10
2.4
20
-5.38204371
11
2.4
21
-5.76385458
0
LINE
8
0
10
2.4
20
-5.76385458
11
2.4
21
-6.39825394
0
LINE
8
0
10
2.4
20
-6.39825394
11
2.4
21
-7.74613746
0
LINE
8
0
10
2.4
20
-7.74613746
11
2.4
21
-9.01508056
0
LINE
8
0
10
2.4
20
-9.01508056
11
2.4
21
-9.79257853
0
LINE
8
0
10
2.4
20
-9.79257853
11
2.4
21
-10.2539293
0
LINE
8
0
10
2.4
20
-10.2539293
11
2.4
21
-10.5013803
0
LINE
8
0
10
2.4
20
-10.5013803
11
2.4
21
-13.9586328
0
LINE
8
0
10
2.4
20
-13.9586328
11
2.4
21
-14
0
LINE
8
0
10
2.4
20
-14
11
2.40072652
21
-14.0119341
0
LINE
8
0
10
2.40072652
20
-14.0119341
11
2.4051459
21
-14.0390873
0
LINE
8
0
10
2.4051459
20
-14.0390873
11
2.41029181
21
-14.0781747
0
LINE
8
0
10
2.41029181
20
-14.0781747
11
2.44330858
21
-14.4113903
0
LINE
8
0
10
2.44330858
20
-14.4113903
11
2.468148
21
-14.51764
0
LINE
8
0
10
2.468148
20
-14.51764
11
2.53973557
21
-14.7284244
0
LINE
8
0
10
2.53973557
20
-14.7284244
11
2.5699098
21
-14.8012711
0
LINE
8
0
10
2.5699098
20
-14.8012711
11
2.667949
21
-15
0
LINE
8
0
10
2.667949
20
-15
11
2.72780029
21
-15.0961129
0
LINE
8
0
10
2.72780029
20
-15.0961129
11
2.77580048
21
-15.1586674
0
LINE
8
0
10
2.77580048
20
-15.1586674
11
2.985786
21
-15.41421
0
LINE
8
0
10
2.985786
20
-15.41421
11
3.24492568
21
-15.626599
0
LINE
8
0
10
3.24492568
20
-15.626599
11
3.30760334
21
-15.6746706
0
LINE
8
0
10
3.30760334
20
-15.6746706
11
3.40012248
21
-15.732121
0
LINE
8
0
10
3.40012248
20
-15.732121
11
3.60101798
21
-15.8310609
0
LINE
8
0
10
3.60101798
20
-15.8310609
11
3.67374249
21
-15.861164
0
LINE
8
0
10
3.67374249
20
-15.861164
11
3.882362
21
-15.93185
0
LINE
8
0
10
3.882362
20
-15.93185
11
3.99151518
21
-15.9572684
0
LINE
8
0
10
3.99151518
20
-15.9572684
11
4.03205231
21
-15.9638642
0
LINE
8
0
10
4.03205231
20
-15.9638642
11
4.4
21
-16
0
LINE
8
0
10
4.4
20
-16
11
5.09583868
21
-16
0
LINE
8
0
10
5.09583868
20
-16
11
14
21
-16
0
LINE
8
0
10
14
20
-16
11
14.0244119
21
-15.9979334
0
LINE
8
0
10
14.0244119
20
-15.9979334
11
14.0750404
21
-15.9901205
0
LINE
8
0
10
14.0750404
20
-15.9901205
11
14.51764
21
-15.93185
0
LINE
8
0
10
14.51764
20
-15.93185
11
14.5873877
21
-15.9029886
0
LINE
8
0
10
14.5873877
20
-15.9029886
11
14.9998217
21
-15.7321529
0
LINE
8
0
10
14.9998217
20
-15.7321529
11
15.0600466
21
-15.6859739
0
LINE
8
0
10
15.0600466
20
-15.6859739
11
15.41421
21
-15.41421
0
LINE
8
0
10
15.41421
20
-15.41421
11
15.4602861
21
-15.3541634
0
LINE
8
0
10
15.4602861
20
-15.3541634
11
15.73205
21
-15
0
LINE
8
0
10
15.73205
20
-15
11
15.7610143
21
-14.930074
0
LINE
8
0
10
15.7610143
20
-14.930074
11
15.93185
21
-14.51764
0
LINE
8
0
10
15.93185
20
-14.51764
11
15.9361877
21
-14.4949585
0
LINE
8
0
10
15.9361877
20
-14.4949585
11
15.9988369
21
-14.0191009
0
LINE
8
0
10
15.9988369
20
-14.0191009
11
16
21
-14
0
LINE
8
0
10
16
20
-14
11
16
21
-14
0
ENDSEC
0
EOF
