0
SECTION
2
ENTITIES
0
LINE
8
0
10
16
20
-11.2793423
11
16
21
-11.606294
0
LINE
8
0
10
16
20
-11.606294
11
16
21
-14
0
LINE
8
0
10
16
20
-14
11
15.9986795
21
-14.0216856
0
LINE
8
0
10
15.9986795
20
-14.0216856
11
15.9367747
21
-14.4918893
0
LINE
8
0
10
15.9367747
20
-14.4918893
11
15.93185
21
-14.51764
0
LINE
8
0
10
15.93185
20
-14.51764
11
15.7649336
21
-14.920612
0
LINE
8
0
10
15.7649336
20
-14.920612
11
15.73205
21
-15
0
LINE
8
0
10
15.73205
20
-15
11
15.4665209
21
-15.3460383
0
LINE
8
0
10
15.4665209
20
-15.3460383
11
15.41421
21
-15.41421
0
LINE
8
0
10
15.41421
20
-15.41421
11
15.0681717
21
-15.6797391
0
LINE
8
0
10
15.0681717
20
-15.6797391
11
14.9997976
21
-15.7321669
0
LINE
8
0
10
14.9997976
20
-15.7321669
11
14.5968256
21
-15.8990833
0
LINE
8
0
10
14.5968256
20
-15.8990833
11
14.51764
21
-15.93185
0
LINE
8
0
10
14.51764
20
-15.93185
11
14.0851945
21
-15.9887837
0
LINE
8
0
10
14.0851945
20
-15.9887837
11
14.0277151
21
-15.9976538
0
LINE
8
0
10
14.0277151
20
-15.9976538
11
14
21
-16
0
LINE
8
0
10
14
20
-16
11
5.18999558
21
-16
0
LINE
8
0
10
5.18999558
20
-16
11
4.4
21
-16
0
LINE
8
0
10
4.4
20
-16
11
4.03491019
21
-15.9641449
0
LINE
8
0
10
4.03491019
20
-15.9641449
11
3.98888781
21
-15.9566566
0
LINE
8
0
10
3.98888781
20
-15.9566566
11
3.882362
21
-15.93185
0
LINE
8
0
10
3.882362
20
-15.93185
11
3.67876407
21
-15.8628655
0
LINE
8
0
10
3.67876407
20
-15.8628655
11
3.5961989
21
-15.828689
0
LINE
8
0
10
3.5961989
20
-15.828689
11
3.40013905
21
-15.7321306
0
LINE
8
0
10
3.40013905
20
-15.7321306
11
3.30984689
21
-15.6760631
0
LINE
8
0
10
3.30984689
20
-15.6760631
11
3.23868806
21
-15.6214867
0
LINE
8
0
10
3.23868806
20
-15.6214867
11
2.985786
21
-15.41421
0
LINE
8
0
10
2.985786
20
-15.41421
11
2.78085494
21
-15.1648185
0
LINE
8
0
10
2.78085494
20
-15.1648185
11
2.72635964
21
-15.0937994
0
LINE
8
0
10
2.72635964
20
-15.0937994
11
2.667949
21
-15
0
LINE
8
0
10
2.667949
20
-15
11
2.57226965
21
-14.8060546
0
LINE
8
0
10
2.57226965
20
-14.8060546
11
2.53801242
21
-14.7233507
0
LINE
8
0
10
2.53801242
20
-14.7233507
11
2.468148
21
-14.51764
0
LINE
8
0
10
2.468148
20
-14.51764
11
2.44390648
21
-14.4139478
0
LINE
8
0
10
2.44390648
20
-14.4139478
11
2.41168443
21
-14.0887529
0
LINE
8
0
10
2.41168443
20
-14.0887529
11
2.40584221
21
-14.0443764
0
LINE
8
0
10
2.40584221
20
-14.0443764
11
2.40082482
21
-14.013549
0
LINE
8
0
10
2.40082482
20
-14.013549
11
2.4
21
-14
0
LINE
8
0
10
2.4
20
-14
11
2.4
21
-13.9589296
0
LINE
8
0
10
2.4
20
-13.9589296
11
2.4
21
-10.0338614
0
LINE
8
0
10
2.4
20
-10.0338614
11
2.4
21
-9.75292684
0
LINE
8
0
10
2.4
20
-9.75292684
11
2.4
21
-9.22914868
0
LINE
8
0
10
2.4
20
-9.22914868
11
2.4
21
-8.34644414
0
LINE
8
0
10
2.4
20
-8.34644414
11
2.4
21
-6.90579495
0
LINE
8
0
10
2.4
20
-6.90579495
11
2.4
21
-5.89277023
0
LINE
8
0
10
2.4
20
-5.89277023
11
2.4
21
-5.41597663
0
LINE
8
0
10
2.4
20
-5.41597663
11
2.4
21
-5.12902019
0
LINE
8
0
10
2.4
20
-5.12902019
11
2.4
21
-4.23292349
0
LINE
8
0
10
2.4
20
-4.23292349
11
2.4
21
-4.20172609
0
LINE
8
0
10
2.4
20
-4.20172609
11
2.4
21
-4.17873468
0
LINE
8
0
10
2.4
20
-4.17873468
11
2.4
21
-4.04423444
0
LINE
8
0
10
2.4
20
-4.04423444
11
11.6070289
21
-4.04423444
0
LINE
8
0
10
11.6070289
20
-4.04423444
11
13.65614
21
-4.04423444
0
LINE
8
0
10
13.65614
20
-4.04423444
11
13.7604515
21
-4.21333103
0
LINE
8
0
10
13.7604515
20
-4.21333103
11
13.8336667
21
-4.32333025
0
LINE
8
0
10
13.8336667
20
-4.32333025
11
14.5399908
21
-5.30259626
0
LINE
8
0
10
14.5399908
20
-5.30259626
11
15.4991655
21
-6.61871233
0
LINE
8
0
10
15.4991655
20
-6.61871233
11
16
21
-7.26739082
0
LINE
8
0
10
16
20
-7.26739082
11
16
21
-9.38011116
0
LINE
8
0
10
16
20
-9.38011116
11
16
21
-10.627434
0
LINE
8
0
10
16
20
-10.627434
11
16
21
-10.6487959
0
LINE
8
0
10
16
20
-10.6487959
11
16
21
-11.2793423
0
LINE
8
0
10
16
20
-11.2793423
11
16
21
-11.2793423
0
LINE
8
0
10
16
20
47.2040041
11
16
21
45.532505
0
LINE
8
0
10
16
20
45.532505
11
16
21
45.3531996
0
LINE
8
0
10
16
20
45.3531996
11
16
21
44.9451568
0
LINE
8
0
10
16
20
44.9451568
11
16
21
43.8711238
0
LINE
8
0
10
16
20
43.8711238
11
16
21
36.2849018
0
LINE
8
0
10
16
20
36.2849018
11
16
21
34.7676582
0
LINE
8
0
10
16
20
34.7676582
11
16
21
29.3566986
0
LINE
8
0
10
16
20
29.3566986
11
7.50266932
21
29.3566986
0
LINE
8
0
10
7.50266932
20
29.3566986
11
2.4
21
29.3566986
0
LINE
8
0
10
2.4
20
29.3566986
11
2.4
21
31.7615696
0
LINE
8
0
10
2.4
20
31.7615696
11
2.4
21
34.7676582
0
LINE
8
0
10
2.4
20
34.7676582
11
2.4
21
35.6780044
0
LINE
8
0
10
2.4
20
35.6780044
11
2.4
21
36.2849018
0
LINE
8
0
10
2.4
20
36.2849018
11
2.4
21
40.3190207
0
LINE
8
0
10
2.4
20
40.3190207
11
2.4
21
44.9451568
0
LINE
8
0
10
2.4
20
44.9451568
11
2.4
21
45.1082668
0
LINE
8
0
10
2.4
20
45.1082668
11
2.4
21
50.5370962
0
LINE
8
0
10
2.4
20
50.5370962
11
2.4
21
55.8877495
0
LINE
8
0
10
2.4
20
55.8877495
11
2.4
21
55.9548454
0
LINE
8
0
10
2.4
20
55.9548454
11
11.1879659
21
55.9548454
0
LINE
8
0
10
11.1879659
20
55.9548454
11
13
21
55.9548454
0
LINE
8
0
10
13
20
55.9548454
11
13.1355129
21
55.8208472
0
LINE
8
0
10
13.1355129
20
55.8208472
11
13.2282305
21
55.7321334
0
LINE
8
0
10
13.2282305
20
55.7321334
11
13.9885627
21
55.0846817
0
LINE
8
0
10
13.9885627
20
55.0846817
11
15.3801092
21
53.9037941
0
LINE
8
0
10
15.3801092
20
53.9037941
11
16
21
53.4125315
0
LINE
8
0
10
16
20
53.4125315
11
16
21
47.2040041
0
LINE
8
0
10
16
20
47.2040041
11
16
21
47.2040041
0
LINE
8
0
10
16
20
26.1074014
11
16
21
20.6964418
0
LINE
8
0
10
16
20
20.6964418
11
16
21
15.7150982
0
LINE
8
0
10
16
20
15.7150982
11
16
21
13.7682406
0
LINE
8
0
10
16
20
13.7682406
11
12.9426693
21
13.7682406
0
LINE
8
0
10
12.9426693
20
13.7682406
11
2.4
21
13.7682406
0
LINE
8
0
10
2.4
20
13.7682406
11
2.4
21
14.6335107
0
LINE
8
0
10
2.4
20
14.6335107
11
2.4
21
15.7150982
0
LINE
8
0
10
2.4
20
15.7150982
11
2.4
21
18.7039044
0
LINE
8
0
10
2.4
20
18.7039044
11
2.4
21
20.6964418
0
LINE
8
0
10
2.4
20
20.6964418
11
2.4
21
23.1559689
0
LINE
8
0
10
2.4
20
23.1559689
11
2.4
21
26.1074014
0
LINE
8
0
10
2.4
20
26.1074014
11
10.8973307
21
26.1074014
0
LINE
8
0
10
10.8973307
20
26.1074014
11
16
21
26.1074014
0
LINE
8
0
10
16
20
26.1074014
11
16
21
26.1074014
0
LINE
8
0
10
16
20
5.33602757
11
16
21
4.5455725
0
LINE
8
0
10
16
20
4.5455725
11
14.4548092
21
1.71885346
0
LINE
8
0
10
14.4548092
20
1.71885346
11
13.65614
21
0.257794477
0
LINE
8
0
10
13.65614
20
0.257794477
11
5.21797793
21
0.257794477
0
LINE
8
0
10
5.21797793
20
0.257794477
11
2.4
21
0.257794477
0
LINE
8
0
10
2.4
20
0.257794477
11
2.4
21
2.58395937
0
LINE
8
0
10
2.4
20
2.58395937
11
2.4
21
5.75608256
0
LINE
8
0
10
2.4
20
5.75608256
11
2.4
21
7.05484401
0
LINE
8
0
10
2.4
20
7.05484401
11
5.45733068
21
7.05484401
0
LINE
8
0
10
5.45733068
20
7.05484401
11
16
21
7.05484401
0
LINE
8
0
10
16
20
7.05484401
11
16
21
5.33602757
0
LINE
8
0
10
16
20
5.33602757
11
16
21
5.33602757
0
LINE
8
0
10
16
20
68.9470139
11
16
21
65.162131
0
LINE
8
0
10
16
20
65.162131
11
16
21
62.6815221
0
LINE
8
0
10
16
20
62.6815221
11
14.7333099
21
61.6595468
0
LINE
8
0
10
14.7333099
20
61.6595468
11
13.4471447
21
60.5619685
0
LINE
8
0
10
13.4471447
20
60.5619685
11
13.1821504
21
60.3294544
0
LINE
8
0
10
13.1821504
20
60.3294544
11
13
21
60.1491346
0
LINE
8
0
10
13
20
60.1491346
11
4.21203407
21
60.1491346
0
LINE
8
0
10
4.21203407
20
60.1491346
11
2.4
21
60.1491346
0
LINE
8
0
10
2.4
20
60.1491346
11
2.4
21
60.2793503
0
LINE
8
0
10
2.4
20
60.2793503
11
2.4
21
60.3040084
0
LINE
8
0
10
2.4
20
60.3040084
11
2.4
21
60.3399256
0
LINE
8
0
10
2.4
20
60.3399256
11
2.4
21
61.2984489
0
LINE
8
0
10
2.4
20
61.2984489
11
2.4
21
61.6681452
0
LINE
8
0
10
2.4
20
61.6681452
11
2.4
21
62.3937241
0
LINE
8
0
10
2.4
20
62.3937241
11
2.4
21
64.6875368
0
LINE
8
0
10
2.4
20
64.6875368
11
2.4
21
66.061222
0
LINE
8
0
10
2.4
20
66.061222
11
2.4
21
68.9470139
0
LINE
8
0
10
2.4
20
68.9470139
11
2.43944386
21
69.2504108
0
LINE
8
0
10
2.43944386
20
69.2504108
11
2.468148
21
69.4684423
0
LINE
8
0
10
2.468148
20
69.4684423
11
2.55230477
21
69.6716137
0
LINE
8
0
10
2.55230477
20
69.6716137
11
2.667949
21
69.9508038
0
LINE
8
0
10
2.667949
20
69.9508038
11
2.80816037
21
70.1335293
0
LINE
8
0
10
2.80816037
20
70.1335293
11
2.985786
21
70.3650163
0
LINE
8
0
10
2.985786
20
70.3650163
11
3.17516586
21
70.5103337
0
LINE
8
0
10
3.17516586
20
70.5103337
11
3.4
21
70.6828556
0
LINE
8
0
10
3.4
20
70.6828556
11
3.62618662
21
70.7765447
0
LINE
8
0
10
3.62618662
20
70.7765447
11
3.882362
21
70.8826536
0
LINE
8
0
10
3.882362
20
70.8826536
11
4.12876848
21
70.9150944
0
LINE
8
0
10
4.12876848
20
70.9150944
11
4.4
21
70.9508028
0
LINE
8
0
10
4.4
20
70.9508028
11
8.99265278
21
70.9508028
0
LINE
8
0
10
8.99265278
20
70.9508028
11
14
21
70.9508028
0
LINE
8
0
10
14
20
70.9508028
11
14.2476397
21
70.9181998
0
LINE
8
0
10
14.2476397
20
70.9181998
11
14.51764
21
70.8826536
0
LINE
8
0
10
14.51764
20
70.8826536
11
14.7472534
21
70.7875446
0
LINE
8
0
10
14.7472534
20
70.7875446
11
15
21
70.6828556
0
LINE
8
0
10
15
20
70.6828556
11
15.1942291
21
70.5338157
0
LINE
8
0
10
15.1942291
20
70.5338157
11
15.41421
21
70.3650163
0
LINE
8
0
10
15.41421
20
70.3650163
11
15.5595274
21
70.1756383
0
LINE
8
0
10
15.5595274
20
70.1756383
11
15.73205
21
69.9508038
0
LINE
8
0
10
15.73205
20
69.9508038
11
15.8201902
21
69.7380143
0
LINE
8
0
10
15.8201902
20
69.7380143
11
15.93185
21
69.4684423
0
LINE
8
0
10
15.93185
20
69.4684423
11
15.960555
21
69.2504108
0
LINE
8
0
10
15.960555
20
69.2504108
11
16
21
68.9470139
0
LINE
8
0
10
16
20
68.9470139
11
16
21
68.9470139
0
ENDSEC
0
EOF
