0
SECTION
2
ENTITIES
0
LINE
8
0
10
16
20
45.3429369
11
16
21
46.9727866
0
LINE
8
0
10
16
20
46.9727866
11
16
21
53.3617661
0
LINE
8
0
10
16
20
53.3617661
11
14.5896012
21
54.4795053
0
LINE
8
0
10
14.5896012
20
54.4795053
11
13
21
55.8284651
0
LINE
8
0
10
13
20
55.8284651
11
4.88139201
21
55.8284651
0
LINE
8
0
10
4.88139201
20
55.8284651
11
2.4
21
55.8284651
0
LINE
8
0
10
2.4
20
55.8284651
11
2.4
21
55.5157687
0
LINE
8
0
10
2.4
20
55.5157687
11
2.4
21
50.4336153
0
LINE
8
0
10
2.4
20
50.4336153
11
2.4
21
45.3429369
0
LINE
8
0
10
2.4
20
45.3429369
11
3.31201093
21
45.3429369
0
LINE
8
0
10
3.31201093
20
45.3429369
11
16
21
45.3429369
0
LINE
8
0
10
16
20
45.3429369
11
16
21
45.3429369
0
LINE
8
0
10
16
20
-7.31100122
11
16
21
-8.83467402
0
LINE
8
0
10
16
20
-8.83467402
11
16
21
-10.230661
0
LINE
8
0
10
16
20
-10.230661
11
16
21
-10.2493773
0
LINE
8
0
10
16
20
-10.2493773
11
16
21
-10.9550763
0
LINE
8
0
10
16
20
-10.9550763
11
16
21
-11.3209963
0
LINE
8
0
10
16
20
-11.3209963
11
16
21
-14
0
LINE
8
0
10
16
20
-14
11
15.9985221
21
-14.0242702
0
LINE
8
0
10
15.9985221
20
-14.0242702
11
15.9373617
21
-14.4888202
0
LINE
8
0
10
15.9373617
20
-14.4888202
11
15.93185
21
-14.51764
0
LINE
8
0
10
15.93185
20
-14.51764
11
15.7688529
21
-14.91115
0
LINE
8
0
10
15.7688529
20
-14.91115
11
15.73205
21
-15
0
LINE
8
0
10
15.73205
20
-15
11
15.4727557
21
-15.3379131
0
LINE
8
0
10
15.4727557
20
-15.3379131
11
15.41421
21
-15.41421
0
LINE
8
0
10
15.41421
20
-15.41421
11
15.0762969
21
-15.6735043
0
LINE
8
0
10
15.0762969
20
-15.6735043
11
14.9997734
21
-15.7321808
0
LINE
8
0
10
14.9997734
20
-15.7321808
11
14.6062634
21
-15.8951779
0
LINE
8
0
10
14.6062634
20
-15.8951779
11
14.51764
21
-15.93185
0
LINE
8
0
10
14.51764
20
-15.93185
11
14.0953485
21
-15.9874469
0
LINE
8
0
10
14.0953485
20
-15.9874469
11
14.0310184
21
-15.9973741
0
LINE
8
0
10
14.0310184
20
-15.9973741
11
14
21
-16
0
LINE
8
0
10
14
20
-16
11
5.28415248
21
-16
0
LINE
8
0
10
5.28415248
20
-16
11
4.4
21
-16
0
LINE
8
0
10
4.4
20
-16
11
4.03776807
21
-15.9644255
0
LINE
8
0
10
4.03776807
20
-15.9644255
11
3.98626043
21
-15.9560448
0
LINE
8
0
10
3.98626043
20
-15.9560448
11
3.882362
21
-15.93185
0
LINE
8
0
10
3.882362
20
-15.93185
11
3.68378565
21
-15.8645669
0
LINE
8
0
10
3.68378565
20
-15.8645669
11
3.59137981
21
-15.8263171
0
LINE
8
0
10
3.59137981
20
-15.8263171
11
3.40015562
21
-15.7321402
0
LINE
8
0
10
3.40015562
20
-15.7321402
11
3.31209045
21
-15.6774555
0
LINE
8
0
10
3.31209045
20
-15.6774555
11
3.23245043
21
-15.6163744
0
LINE
8
0
10
3.23245043
20
-15.6163744
11
2.985786
21
-15.41421
0
LINE
8
0
10
2.985786
20
-15.41421
11
2.7859094
21
-15.1709695
0
LINE
8
0
10
2.7859094
20
-15.1709695
11
2.72491899
21
-15.0914859
0
LINE
8
0
10
2.72491899
20
-15.0914859
11
2.667949
21
-15
0
LINE
8
0
10
2.667949
20
-15
11
2.57462951
21
-14.8108381
0
LINE
8
0
10
2.57462951
20
-14.8108381
11
2.53628927
21
-14.718277
0
LINE
8
0
10
2.53628927
20
-14.718277
11
2.468148
21
-14.51764
0
LINE
8
0
10
2.468148
20
-14.51764
11
2.44450438
21
-14.4165053
0
LINE
8
0
10
2.44450438
20
-14.4165053
11
2.41307706
21
-14.099331
0
LINE
8
0
10
2.41307706
20
-14.099331
11
2.40653853
21
-14.0496655
0
LINE
8
0
10
2.40653853
20
-14.0496655
11
2.40092313
21
-14.0151638
0
LINE
8
0
10
2.40092313
20
-14.0151638
11
2.4
21
-14
0
LINE
8
0
10
2.4
20
-14
11
2.4
21
-13.9592263
0
LINE
8
0
10
2.4
20
-13.9592263
11
2.4
21
-9.56634255
0
LINE
8
0
10
2.4
20
-9.56634255
11
2.4
21
-9.25192434
0
LINE
8
0
10
2.4
20
-9.25192434
11
2.4
21
-8.66571883
0
LINE
8
0
10
2.4
20
-8.66571883
11
2.4
21
-7.67780773
0
LINE
8
0
10
2.4
20
-7.67780773
11
2.4
21
-6.06545243
0
LINE
8
0
10
2.4
20
-6.06545243
11
2.4
21
-5.38728652
0
LINE
8
0
10
2.4
20
-5.38728652
11
2.4
21
-5.06809868
0
LINE
8
0
10
2.4
20
-5.06809868
11
2.4
21
-4.87599668
0
LINE
8
0
10
2.4
20
-4.87599668
11
2.4
21
-4.17186104
0
LINE
8
0
10
2.4
20
-4.17186104
11
4.94100855
21
-4.17186104
0
LINE
8
0
10
4.94100855
20
-4.17186104
11
13.65614
21
-4.17186104
0
LINE
8
0
10
13.65614
20
-4.17186104
11
14.2478309
21
-4.99219658
0
LINE
8
0
10
14.2478309
20
-4.99219658
11
14.8899471
21
-5.87326596
0
LINE
8
0
10
14.8899471
20
-5.87326596
11
16
21
-7.31100122
0
LINE
8
0
10
16
20
-7.31100122
11
16
21
-7.31100122
0
LINE
8
0
10
16
20
36.6826816
11
16
21
44.7621831
0
LINE
8
0
10
16
20
44.7621831
11
15.0879891
21
44.7621831
0
LINE
8
0
10
15.0879891
20
44.7621831
11
2.4
21
44.7621831
0
LINE
8
0
10
2.4
20
44.7621831
11
2.4
21
40.3551823
0
LINE
8
0
10
2.4
20
40.3551823
11
2.4
21
36.6826816
0
LINE
8
0
10
2.4
20
36.6826816
11
2.4
21
35.7575603
0
LINE
8
0
10
2.4
20
35.7575603
11
2.4
21
34.3698784
0
LINE
8
0
10
2.4
20
34.3698784
11
2.4
21
31.8057676
0
LINE
8
0
10
2.4
20
31.8057676
11
2.4
21
29.7544789
0
LINE
8
0
10
2.4
20
29.7544789
11
8.75201093
21
29.7544789
0
LINE
8
0
10
8.75201093
20
29.7544789
11
16
21
29.7544789
0
LINE
8
0
10
16
20
29.7544789
11
16
21
34.3698784
0
LINE
8
0
10
16
20
34.3698784
11
16
21
36.6826816
0
LINE
8
0
10
16
20
36.6826816
11
16
21
36.6826816
0
LINE
8
0
10
16
20
4.78009196
11
16
21
5.64062163
0
LINE
8
0
10
16
20
5.64062163
11
16
21
6.6570643
0
LINE
8
0
10
16
20
6.6570643
11
4.20798907
21
6.6570643
0
LINE
8
0
10
4.20798907
20
6.6570643
11
2.4
21
6.6570643
0
LINE
8
0
10
2.4
20
6.6570643
11
2.4
21
5.88902618
0
LINE
8
0
10
2.4
20
5.88902618
11
2.4
21
4.01315319
0
LINE
8
0
10
2.4
20
4.01315319
11
2.4
21
0.492314109
0
LINE
8
0
10
2.4
20
0.492314109
11
6.66523797
21
0.492314109
0
LINE
8
0
10
6.66523797
20
0.492314109
11
13.65614
21
0.492314109
0
LINE
8
0
10
13.65614
20
0.492314109
11
14.3178265
21
1.70278152
0
LINE
8
0
10
14.3178265
20
1.70278152
11
16
21
4.78009196
0
LINE
8
0
10
16
20
4.78009196
11
16
21
4.78009196
0
LINE
8
0
10
16
20
15.3173184
11
16
21
14.1660209
0
LINE
8
0
10
16
20
14.1660209
11
14.1920109
21
14.1660209
0
LINE
8
0
10
14.1920109
20
14.1660209
11
2.4
21
14.1660209
0
LINE
8
0
10
2.4
20
14.1660209
11
2.4
21
14.6777087
0
LINE
8
0
10
2.4
20
14.6777087
11
2.4
21
15.3173184
0
LINE
8
0
10
2.4
20
15.3173184
11
2.4
21
18.7834603
0
LINE
8
0
10
2.4
20
18.7834603
11
2.4
21
21.0942216
0
LINE
8
0
10
2.4
20
21.0942216
11
2.4
21
23.1921304
0
LINE
8
0
10
2.4
20
23.1921304
11
2.4
21
25.7096211
0
LINE
8
0
10
2.4
20
25.7096211
11
9.64798907
21
25.7096211
0
LINE
8
0
10
9.64798907
20
25.7096211
11
16
21
25.7096211
0
LINE
8
0
10
16
20
25.7096211
11
16
21
21.0942216
0
LINE
8
0
10
16
20
21.0942216
11
16
21
15.3173184
0
LINE
8
0
10
16
20
15.3173184
11
16
21
15.3173184
0
LINE
8
0
10
16
20
62.7498451
11
16
21
63.918038
0
LINE
8
0
10
16
20
63.918038
11
16
21
68.960905
0
LINE
8
0
10
16
20
68.960905
11
15.9708961
21
69.184762
0
LINE
8
0
10
15.9708961
20
69.184762
11
15.93185
21
69.4813401
0
LINE
8
0
10
15.93185
20
69.4813401
11
15.8494635
21
69.68024
0
LINE
8
0
10
15.8494635
20
69.68024
11
15.73205
21
69.9637013
0
LINE
8
0
10
15.73205
20
69.9637013
11
15.6047567
21
70.1295922
0
LINE
8
0
10
15.6047567
20
70.1295922
11
15.41421
21
70.3779131
0
LINE
8
0
10
15.41421
20
70.3779131
11
15.2519003
21
70.5024594
0
LINE
8
0
10
15.2519003
20
70.5024594
11
15
21
70.6957526
0
LINE
8
0
10
15
20
70.6957526
11
14.8135145
21
70.7729959
0
LINE
8
0
10
14.8135145
20
70.7729959
11
14.51764
21
70.8955511
0
LINE
8
0
10
14.51764
20
70.8955511
11
14.3184241
21
70.9217784
0
LINE
8
0
10
14.3184241
20
70.9217784
11
14
21
70.9637006
0
LINE
8
0
10
14
20
70.9637006
11
10.3054005
21
70.9637006
0
LINE
8
0
10
10.3054005
20
70.9637006
11
4.4
21
70.9637006
0
LINE
8
0
10
4.4
20
70.9637006
11
4.1998757
21
70.9373536
0
LINE
8
0
10
4.1998757
20
70.9373536
11
3.882362
21
70.8955511
0
LINE
8
0
10
3.882362
20
70.8955511
11
3.69334666
21
70.8172602
0
LINE
8
0
10
3.69334666
20
70.8172602
11
3.4
21
70.6957526
0
LINE
8
0
10
3.4
20
70.6957526
11
3.23410935
21
70.5684598
0
LINE
8
0
10
3.23410935
20
70.5684598
11
2.985786
21
70.3779131
0
LINE
8
0
10
2.985786
20
70.3779131
11
2.85472747
21
70.2071138
0
LINE
8
0
10
2.85472747
20
70.2071138
11
2.667949
21
69.9637013
0
LINE
8
0
10
2.667949
20
69.9637013
11
2.58262256
21
69.7577049
0
LINE
8
0
10
2.58262256
20
69.7577049
11
2.468148
21
69.4813401
0
LINE
8
0
10
2.468148
20
69.4813401
11
2.42910309
21
69.184762
0
LINE
8
0
10
2.42910309
20
69.184762
11
2.4
21
68.960905
0
LINE
8
0
10
2.4
20
68.960905
11
2.4
21
65.1159605
0
LINE
8
0
10
2.4
20
65.1159605
11
2.4
21
63.2857027
0
LINE
8
0
10
2.4
20
63.2857027
11
2.4
21
61.7537362
0
LINE
8
0
10
2.4
20
61.7537362
11
2.4
21
61.2691446
0
LINE
8
0
10
2.4
20
61.2691446
11
2.4
21
61.0222359
0
LINE
8
0
10
2.4
20
61.0222359
11
2.4
21
60.2755172
0
LINE
8
0
10
2.4
20
60.2755172
11
10.518608
21
60.2755172
0
LINE
8
0
10
10.518608
20
60.2755172
11
13
21
60.2755172
0
LINE
8
0
10
13
20
60.2755172
11
14.157624
21
61.2634019
0
LINE
8
0
10
14.157624
20
61.2634019
11
16
21
62.7498451
0
LINE
8
0
10
16
20
62.7498451
11
16
21
62.7498451
0
ENDSEC
0
EOF
