0
SECTION
2
ENTITIES
0
LINE
8
0
10
16
20
-8.28923688
11
16
21
-7.35461161
0
LINE
8
0
10
16
20
-7.35461161
11
14.2807287
21
-5.12781959
0
LINE
8
0
10
14.2807287
20
-5.12781959
11
13.955671
21
-4.6817969
0
LINE
8
0
10
13.955671
20
-4.6817969
11
13.65614
21
-4.26651943
0
LINE
8
0
10
13.65614
20
-4.26651943
11
9.24428951
21
-4.26651943
0
LINE
8
0
10
9.24428951
20
-4.26651943
11
2.4
21
-4.26651943
0
LINE
8
0
10
2.4
20
-4.26651943
11
2.4
21
-4.62297317
0
LINE
8
0
10
2.4
20
-4.62297317
11
2.4
21
-4.72022073
0
LINE
8
0
10
2.4
20
-4.72022073
11
2.4
21
-4.8818028
0
LINE
8
0
10
2.4
20
-4.8818028
11
2.4
21
-5.22510992
0
LINE
8
0
10
2.4
20
-5.22510992
11
2.4
21
-7.00917132
0
LINE
8
0
10
2.4
20
-7.00917132
11
2.4
21
-8.10228898
0
LINE
8
0
10
2.4
20
-8.10228898
11
2.4
21
-8.75092184
0
LINE
8
0
10
2.4
20
-8.75092184
11
2.4
21
-9.09882369
0
LINE
8
0
10
2.4
20
-9.09882369
11
2.4
21
-13.959523
0
LINE
8
0
10
2.4
20
-13.959523
11
2.4
21
-14
0
LINE
8
0
10
2.4
20
-14
11
2.40102144
21
-14.0167787
0
LINE
8
0
10
2.40102144
20
-14.0167787
11
2.40723484
21
-14.0549546
0
LINE
8
0
10
2.40723484
20
-14.0549546
11
2.41446969
21
-14.1099092
0
LINE
8
0
10
2.41446969
20
-14.1099092
11
2.44510228
21
-14.4190628
0
LINE
8
0
10
2.44510228
20
-14.4190628
11
2.468148
21
-14.51764
0
LINE
8
0
10
2.468148
20
-14.51764
11
2.53456612
21
-14.7132033
0
LINE
8
0
10
2.53456612
20
-14.7132033
11
2.57698936
21
-14.8156216
0
LINE
8
0
10
2.57698936
20
-14.8156216
11
2.667949
21
-15
0
LINE
8
0
10
2.667949
20
-15
11
2.72347834
21
-15.0891724
0
LINE
8
0
10
2.72347834
20
-15.0891724
11
2.79096386
21
-15.1771206
0
LINE
8
0
10
2.79096386
20
-15.1771206
11
2.985786
21
-15.41421
0
LINE
8
0
10
2.985786
20
-15.41421
11
3.22621281
21
-15.611262
0
LINE
8
0
10
3.22621281
20
-15.611262
11
3.31433401
21
-15.678848
0
LINE
8
0
10
3.31433401
20
-15.678848
11
3.4001722
21
-15.7321498
0
LINE
8
0
10
3.4001722
20
-15.7321498
11
3.58656073
21
-15.8239452
0
LINE
8
0
10
3.58656073
20
-15.8239452
11
3.68880722
21
-15.8662684
0
LINE
8
0
10
3.68880722
20
-15.8662684
11
3.882362
21
-15.93185
0
LINE
8
0
10
3.882362
20
-15.93185
11
3.98363306
21
-15.9554329
0
LINE
8
0
10
3.98363306
20
-15.9554329
11
4.04062595
21
-15.9647062
0
LINE
8
0
10
4.04062595
20
-15.9647062
11
4.4
21
-16
0
LINE
8
0
10
4.4
20
-16
11
5.37830937
21
-16
0
LINE
8
0
10
5.37830937
20
-16
11
14
21
-16
0
LINE
8
0
10
14
20
-16
11
14.0343217
21
-15.9970945
0
LINE
8
0
10
14.0343217
20
-15.9970945
11
14.1055026
21
-15.98611
0
LINE
8
0
10
14.1055026
20
-15.98611
11
14.51764
21
-15.93185
0
LINE
8
0
10
14.51764
20
-15.93185
11
14.6157013
21
-15.8912726
0
LINE
8
0
10
14.6157013
20
-15.8912726
11
14.9997493
21
-15.7321947
0
LINE
8
0
10
14.9997493
20
-15.7321947
11
15.084422
21
-15.6672696
0
LINE
8
0
10
15.084422
20
-15.6672696
11
15.41421
21
-15.41421
0
LINE
8
0
10
15.41421
20
-15.41421
11
15.4789904
21
-15.329788
0
LINE
8
0
10
15.4789904
20
-15.329788
11
15.73205
21
-15
0
LINE
8
0
10
15.73205
20
-15
11
15.7727721
21
-14.901688
0
LINE
8
0
10
15.7727721
20
-14.901688
11
15.93185
21
-14.51764
0
LINE
8
0
10
15.93185
20
-14.51764
11
15.9379486
21
-14.485751
0
LINE
8
0
10
15.9379486
20
-14.485751
11
15.9983647
21
-14.0268548
0
LINE
8
0
10
15.9983647
20
-14.0268548
11
16
21
-14
0
LINE
8
0
10
16
20
-14
11
16
21
-11.0356985
0
LINE
8
0
10
16
20
-11.0356985
11
16
21
-10.6308104
0
LINE
8
0
10
16
20
-10.6308104
11
16
21
-9.84995861
0
LINE
8
0
10
16
20
-9.84995861
11
16
21
-9.83388804
0
LINE
8
0
10
16
20
-9.83388804
11
16
21
-8.28923688
0
LINE
8
0
10
16
20
-8.28923688
11
16
21
-8.28923688
0
LINE
8
0
10
16
20
6.25928458
11
16
21
5.9452157
0
LINE
8
0
10
16
20
5.9452157
11
16
21
5.01461141
0
LINE
8
0
10
16
20
5.01461141
11
14.1808438
21
1.68670958
0
LINE
8
0
10
14.1808438
20
1.68670958
11
13.65614
21
0.726833741
0
LINE
8
0
10
13.65614
20
0.726833741
11
8.112498
21
0.726833741
0
LINE
8
0
10
8.112498
20
0.726833741
11
2.4
21
0.726833741
0
LINE
8
0
10
2.4
20
0.726833741
11
2.4
21
5.44234701
0
LINE
8
0
10
2.4
20
5.44234701
11
2.4
21
6.0219698
0
LINE
8
0
10
2.4
20
6.0219698
11
2.4
21
6.25928458
0
LINE
8
0
10
2.4
20
6.25928458
11
2.95864745
21
6.25928458
0
LINE
8
0
10
2.95864745
20
6.25928458
11
16
21
6.25928458
0
LINE
8
0
10
16
20
6.25928458
11
16
21
6.25928458
0
LINE
8
0
10
16
20
30.1522592
11
16
21
33.9720986
0
LINE
8
0
10
16
20
33.9720986
11
16
21
37.0804614
0
LINE
8
0
10
16
20
37.0804614
11
16
21
44.3644028
0
LINE
8
0
10
16
20
44.3644028
11
13.8386475
21
44.3644028
0
LINE
8
0
10
13.8386475
20
44.3644028
11
2.4
21
44.3644028
0
LINE
8
0
10
2.4
20
44.3644028
11
2.4
21
40.3913439
0
LINE
8
0
10
2.4
20
40.3913439
11
2.4
21
37.0804614
0
LINE
8
0
10
2.4
20
37.0804614
11
2.4
21
35.8371163
0
LINE
8
0
10
2.4
20
35.8371163
11
2.4
21
33.9720986
0
LINE
8
0
10
2.4
20
33.9720986
11
2.4
21
31.8499656
0
LINE
8
0
10
2.4
20
31.8499656
11
2.4
21
30.1522592
0
LINE
8
0
10
2.4
20
30.1522592
11
10.0013525
21
30.1522592
0
LINE
8
0
10
10.0013525
20
30.1522592
11
16
21
30.1522592
0
LINE
8
0
10
16
20
30.1522592
11
16
21
30.1522592
0
LINE
8
0
10
16
20
62.8128479
11
16
21
63.1641168
0
LINE
8
0
10
16
20
63.1641168
11
16
21
68.974796
0
LINE
8
0
10
16
20
68.974796
11
15.9812371
21
69.1191132
0
LINE
8
0
10
15.9812371
20
69.1191132
11
15.93185
21
69.494238
0
LINE
8
0
10
15.93185
20
69.494238
11
15.8787367
21
69.6224658
0
LINE
8
0
10
15.8787367
20
69.6224658
11
15.73205
21
69.9765988
0
LINE
8
0
10
15.73205
20
69.9765988
11
15.6499859
21
70.0835461
0
LINE
8
0
10
15.6499859
20
70.0835461
11
15.41421
21
70.39081
0
LINE
8
0
10
15.41421
20
70.39081
11
15.3095714
21
70.471103
0
LINE
8
0
10
15.3095714
20
70.471103
11
15
21
70.7086496
0
LINE
8
0
10
15
20
70.7086496
11
14.8797757
21
70.7584472
0
LINE
8
0
10
14.8797757
20
70.7584472
11
14.51764
21
70.9084487
0
LINE
8
0
10
14.51764
20
70.9084487
11
14.3892086
21
70.925357
0
LINE
8
0
10
14.3892086
20
70.925357
11
14
21
70.9765983
0
LINE
8
0
10
14
20
70.9765983
11
11.6181483
21
70.9765983
0
LINE
8
0
10
11.6181483
20
70.9765983
11
4.4
21
70.9765983
0
LINE
8
0
10
4.4
20
70.9765983
11
4.27098293
21
70.9596128
0
LINE
8
0
10
4.27098293
20
70.9596128
11
3.882362
21
70.9084487
0
LINE
8
0
10
3.882362
20
70.9084487
11
3.76050671
21
70.8579757
0
LINE
8
0
10
3.76050671
20
70.8579757
11
3.4
21
70.7086496
0
LINE
8
0
10
3.4
20
70.7086496
11
3.29305284
21
70.6265859
0
LINE
8
0
10
3.29305284
20
70.6265859
11
2.985786
21
70.39081
0
LINE
8
0
10
2.985786
20
70.39081
11
2.90129457
21
70.2806983
0
LINE
8
0
10
2.90129457
20
70.2806983
11
2.667949
21
69.9765988
0
LINE
8
0
10
2.667949
20
69.9765988
11
2.61294035
21
69.843796
0
LINE
8
0
10
2.61294035
20
69.843796
11
2.468148
21
69.494238
0
LINE
8
0
10
2.468148
20
69.494238
11
2.41876231
21
69.1191132
0
LINE
8
0
10
2.41876231
20
69.1191132
11
2.4
21
68.974796
0
LINE
8
0
10
2.4
20
68.974796
11
2.4
21
64.170699
0
LINE
8
0
10
2.4
20
64.170699
11
2.4
21
61.8838685
0
LINE
8
0
10
2.4
20
61.8838685
11
2.4
21
61.1137483
0
LINE
8
0
10
2.4
20
61.1137483
11
2.4
21
60.8701439
0
LINE
8
0
10
2.4
20
60.8701439
11
2.4
21
60.7460228
0
LINE
8
0
10
2.4
20
60.7460228
11
2.4
21
60.370647
0
LINE
8
0
10
2.4
20
60.370647
11
6.4812276
21
60.370647
0
LINE
8
0
10
6.4812276
20
60.370647
11
13
21
60.370647
0
LINE
8
0
10
13
20
60.370647
11
13.5819381
21
60.8672571
0
LINE
8
0
10
13.5819381
20
60.8672571
11
15.7058458
21
62.5808422
0
LINE
8
0
10
15.7058458
20
62.5808422
11
15.9162872
21
62.7476335
0
LINE
8
0
10
15.9162872
20
62.7476335
11
16
21
62.8128479
0
LINE
8
0
10
16
20
62.8128479
11
16
21
62.8128479
0
LINE
8
0
10
16
20
49.6032584
11
16
21
45.7407172
0
LINE
8
0
10
16
20
45.7407172
11
4.56135255
21
45.7407172
0
LINE
8
0
10
4.56135255
20
45.7407172
11
2.4
21
45.7407172
0
LINE
8
0
10
2.4
20
45.7407172
11
2.4
21
50.3301344
0
LINE
8
0
10
2.4
20
50.3301344
11
2.4
21
54.9118661
0
LINE
8
0
10
2.4
20
54.9118661
11
2.4
21
55.7333391
0
LINE
8
0
10
2.4
20
55.7333391
11
8.9187724
21
55.7333391
0
LINE
8
0
10
8.9187724
20
55.7333391
11
13
21
55.7333391
0
LINE
8
0
10
13
20
55.7333391
11
13.7990932
21
55.0552164
0
LINE
8
0
10
13.7990932
20
55.0552164
11
16
21
53.3110007
0
LINE
8
0
10
16
20
53.3110007
11
16
21
49.6032584
0
LINE
8
0
10
16
20
49.6032584
11
16
21
49.6032584
0
LINE
8
0
10
16
20
21.4920014
11
16
21
25.3118408
0
LINE
8
0
10
16
20
25.3118408
11
8.39864745
21
25.3118408
0
LINE
8
0
10
8.39864745
20
25.3118408
11
2.4
21
25.3118408
0
LINE
8
0
10
2.4
20
25.3118408
11
2.4
21
23.228292
0
LINE
8
0
10
2.4
20
23.228292
11
2.4
21
21.4920014
0
LINE
8
0
10
2.4
20
21.4920014
11
2.4
21
18.8630163
0
LINE
8
0
10
2.4
20
18.8630163
11
2.4
21
14.9195386
0
LINE
8
0
10
2.4
20
14.9195386
11
2.4
21
14.7219067
0
LINE
8
0
10
2.4
20
14.7219067
11
2.4
21
14.5638012
0
LINE
8
0
10
2.4
20
14.5638012
11
15.4413525
21
14.5638012
0
LINE
8
0
10
15.4413525
20
14.5638012
11
16
21
14.5638012
0
LINE
8
0
10
16
20
14.5638012
11
16
21
14.9195386
0
LINE
8
0
10
16
20
14.9195386
11
16
21
21.4920014
0
LINE
8
0
10
16
20
21.4920014
11
16
21
21.4920014
0
ENDSEC
0
EOF
