0
SECTION
2
ENTITIES
0
LINE
8
0
10
16
20
5.48365033
11
16
21
6.00408224
0
LINE
8
0
10
16
20
6.00408224
11
16
21
6.69910684
0
LINE
8
0
10
16
20
6.69910684
11
14.0599642
21
6.69910684
0
LINE
8
0
10
14.0599642
20
6.69910684
11
2.4
21
6.69910684
0
LINE
8
0
10
2.4
20
6.69910684
11
2.4
21
6.14318513
0
LINE
8
0
10
2.4
20
6.14318513
11
2.4
21
4.03609622
0
LINE
8
0
10
2.4
20
4.03609622
11
2.4
21
1.19587301
0
LINE
8
0
10
2.4
20
1.19587301
11
11.0070181
21
1.19587301
0
LINE
8
0
10
11.0070181
20
1.19587301
11
13.65614
21
1.19587301
0
LINE
8
0
10
13.65614
20
1.19587301
11
13.9068785
21
1.65456571
0
LINE
8
0
10
13.9068785
20
1.65456571
11
16
21
5.48365033
0
LINE
8
0
10
16
20
5.48365033
11
16
21
5.48365033
0
LINE
8
0
10
16
20
-10.4651031
11
16
21
-14
0
LINE
8
0
10
16
20
-14
11
15.9980499
21
-14.0320241
0
LINE
8
0
10
15.9980499
20
-14.0320241
11
15.9391225
21
-14.4796128
0
LINE
8
0
10
15.9391225
20
-14.4796128
11
15.93185
21
-14.51764
0
LINE
8
0
10
15.93185
20
-14.51764
11
15.7806107
21
-14.882764
0
LINE
8
0
10
15.7806107
20
-14.882764
11
15.73205
21
-15
0
LINE
8
0
10
15.73205
20
-15
11
15.4914599
21
-15.3135377
0
LINE
8
0
10
15.4914599
20
-15.3135377
11
15.41421
21
-15.41421
0
LINE
8
0
10
15.41421
20
-15.41421
11
15.1006723
21
-15.6548001
0
LINE
8
0
10
15.1006723
20
-15.6548001
11
14.9997011
21
-15.7322226
0
LINE
8
0
10
14.9997011
20
-15.7322226
11
14.634577
21
-15.8834619
0
LINE
8
0
10
14.634577
20
-15.8834619
11
14.51764
21
-15.93185
0
LINE
8
0
10
14.51764
20
-15.93185
11
14.1258106
21
-15.9834364
0
LINE
8
0
10
14.1258106
20
-15.9834364
11
14.0409282
21
-15.9965352
0
LINE
8
0
10
14.0409282
20
-15.9965352
11
14
21
-16
0
LINE
8
0
10
14
20
-16
11
5.56662317
21
-16
0
LINE
8
0
10
5.56662317
20
-16
11
4.4
21
-16
0
LINE
8
0
10
4.4
20
-16
11
4.04634171
21
-15.9652676
0
LINE
8
0
10
4.04634171
20
-15.9652676
11
3.97837831
21
-15.9542092
0
LINE
8
0
10
3.97837831
20
-15.9542092
11
3.882362
21
-15.93185
0
LINE
8
0
10
3.882362
20
-15.93185
11
3.69885038
21
-15.8696713
0
LINE
8
0
10
3.69885038
20
-15.8696713
11
3.57692256
21
-15.8192013
0
LINE
8
0
10
3.57692256
20
-15.8192013
11
3.40020534
21
-15.732169
0
LINE
8
0
10
3.40020534
20
-15.732169
11
3.31882112
21
-15.6816329
0
LINE
8
0
10
3.31882112
20
-15.6816329
11
3.21373756
21
-15.6010374
0
LINE
8
0
10
3.21373756
20
-15.6010374
11
2.985786
21
-15.41421
0
LINE
8
0
10
2.985786
20
-15.41421
11
2.80107278
21
-15.1894226
0
LINE
8
0
10
2.80107278
20
-15.1894226
11
2.72059704
21
-15.0845454
0
LINE
8
0
10
2.72059704
20
-15.0845454
11
2.667949
21
-15
0
LINE
8
0
10
2.667949
20
-15
11
2.58170907
21
-14.8251886
0
LINE
8
0
10
2.58170907
20
-14.8251886
11
2.53111983
21
-14.703056
0
LINE
8
0
10
2.53111983
20
-14.703056
11
2.468148
21
-14.51764
0
LINE
8
0
10
2.468148
20
-14.51764
11
2.44629807
21
-14.4241777
0
LINE
8
0
10
2.44629807
20
-14.4241777
11
2.41725495
21
-14.1310655
0
LINE
8
0
10
2.41725495
20
-14.1310655
11
2.40862747
21
-14.0655327
0
LINE
8
0
10
2.40862747
20
-14.0655327
11
2.40121806
21
-14.0200084
0
LINE
8
0
10
2.40121806
20
-14.0200084
11
2.4
21
-14
0
LINE
8
0
10
2.4
20
-14
11
2.4
21
-13.9601164
0
LINE
8
0
10
2.4
20
-13.9601164
11
2.4
21
-8.16378596
0
LINE
8
0
10
2.4
20
-8.16378596
11
2.4
21
-7.74891683
0
LINE
8
0
10
2.4
20
-7.74891683
11
2.4
21
-6.97542929
0
LINE
8
0
10
2.4
20
-6.97542929
11
2.4
21
-5.67189849
0
LINE
8
0
10
2.4
20
-5.67189849
11
2.4
21
-4.39290561
0
LINE
8
0
10
2.4
20
-4.39290561
11
6.31134832
21
-4.39290561
0
LINE
8
0
10
6.31134832
20
-4.39290561
11
13.65614
21
-4.39290561
0
LINE
8
0
10
13.65614
20
-4.39290561
11
15.5682339
21
-6.87562891
0
LINE
8
0
10
15.5682339
20
-6.87562891
11
16
21
-7.423807
0
LINE
8
0
10
16
20
-7.423807
11
16
21
-9.04034213
0
LINE
8
0
10
16
20
-9.04034213
11
16
21
-9.05112128
0
LINE
8
0
10
16
20
-9.05112128
11
16
21
-9.9822784
0
LINE
8
0
10
16
20
-9.9822784
11
16
21
-10.4651031
0
LINE
8
0
10
16
20
-10.4651031
11
16
21
-10.4651031
0
LINE
8
0
10
16
20
22.287561
11
16
21
24.5162803
0
LINE
8
0
10
16
20
24.5162803
11
5.89996422
21
24.5162803
0
LINE
8
0
10
5.89996422
20
24.5162803
11
2.4
21
24.5162803
0
LINE
8
0
10
2.4
20
24.5162803
11
2.4
21
23.3006152
0
LINE
8
0
10
2.4
20
23.3006152
11
2.4
21
22.287561
0
LINE
8
0
10
2.4
20
22.287561
11
2.4
21
19.0221282
0
LINE
8
0
10
2.4
20
19.0221282
11
2.4
21
15.359361
0
LINE
8
0
10
2.4
20
15.359361
11
2.4
21
14.7978241
0
LINE
8
0
10
2.4
20
14.7978241
11
2.4
21
14.1239783
0
LINE
8
0
10
2.4
20
14.1239783
11
4.34003578
21
14.1239783
0
LINE
8
0
10
4.34003578
20
14.1239783
11
16
21
14.1239783
0
LINE
8
0
10
16
20
14.1239783
11
16
21
15.359361
0
LINE
8
0
10
16
20
15.359361
11
16
21
17.8301249
0
LINE
8
0
10
16
20
17.8301249
11
16
21
22.287561
0
LINE
8
0
10
16
20
22.287561
11
16
21
22.287561
0
LINE
8
0
10
16
20
43.5688423
11
16
21
37.876021
0
LINE
8
0
10
16
20
37.876021
11
16
21
33.176539
0
LINE
8
0
10
16
20
33.176539
11
16
21
30.9478197
0
LINE
8
0
10
16
20
30.9478197
11
12.5000358
21
30.9478197
0
LINE
8
0
10
12.5000358
20
30.9478197
11
2.4
21
30.9478197
0
LINE
8
0
10
2.4
20
30.9478197
11
2.4
21
31.9383616
0
LINE
8
0
10
2.4
20
31.9383616
11
2.4
21
33.176539
0
LINE
8
0
10
2.4
20
33.176539
11
2.4
21
35.9962282
0
LINE
8
0
10
2.4
20
35.9962282
11
2.4
21
37.876021
0
LINE
8
0
10
2.4
20
37.876021
11
2.4
21
40.463667
0
LINE
8
0
10
2.4
20
40.463667
11
2.4
21
43.5688423
0
LINE
8
0
10
2.4
20
43.5688423
11
11.3399642
21
43.5688423
0
LINE
8
0
10
11.3399642
20
43.5688423
11
16
21
43.5688423
0
LINE
8
0
10
16
20
43.5688423
11
16
21
43.5688423
0
LINE
8
0
10
16
20
69
11
16
21
68.9187964
0
LINE
8
0
10
16
20
68.9187964
11
16
21
68.9090864
0
LINE
8
0
10
16
20
68.9090864
11
16
21
68.8859417
0
LINE
8
0
10
16
20
68.8859417
11
16
21
68.8242344
0
LINE
8
0
10
16
20
68.8242344
11
16
21
68.5131755
0
LINE
8
0
10
16
20
68.5131755
11
16
21
62.8526676
0
LINE
8
0
10
16
20
62.8526676
11
14.3927306
21
61.6005629
0
LINE
8
0
10
14.3927306
20
61.6005629
11
13
21
60.4967152
0
LINE
8
0
10
13
20
60.4967152
11
9.27852873
21
60.4967152
0
LINE
8
0
10
9.27852873
20
60.4967152
11
2.4
21
60.4967152
0
LINE
8
0
10
2.4
20
60.4967152
11
2.4
21
62.280176
0
LINE
8
0
10
2.4
20
62.280176
11
2.4
21
68.2214273
0
LINE
8
0
10
2.4
20
68.2214273
11
2.4
21
68.6721909
0
LINE
8
0
10
2.4
20
68.6721909
11
2.4
21
68.7813919
0
LINE
8
0
10
2.4
20
68.7813919
11
2.4
21
69
0
LINE
8
0
10
2.4
20
69
11
2.40036713
21
69.0027887
0
LINE
8
0
10
2.40036713
20
69.0027887
11
2.468148
21
69.51764
0
LINE
8
0
10
2.468148
20
69.51764
11
2.66687262
21
69.9974014
0
LINE
8
0
10
2.66687262
20
69.9974014
11
2.667949
21
70
0
LINE
8
0
10
2.667949
20
70
11
2.98407372
21
70.4119785
0
LINE
8
0
10
2.98407372
20
70.4119785
11
2.985786
21
70.41421
0
LINE
8
0
10
2.985786
20
70.41421
11
3.39776852
21
70.7303377
0
LINE
8
0
10
3.39776852
20
70.7303377
11
3.4
21
70.73205
0
LINE
8
0
10
3.4
20
70.73205
11
3.87976338
21
70.9307736
0
LINE
8
0
10
3.87976338
20
70.9307736
11
3.882362
21
70.93185
0
LINE
8
0
10
3.882362
20
70.93185
11
4.39721134
21
70.9996329
0
LINE
8
0
10
4.39721134
20
70.9996329
11
4.4
21
71
0
LINE
8
0
10
4.4
20
71
11
4.42316528
21
71
0
LINE
8
0
10
4.42316528
20
71
11
13.9973064
21
71
0
LINE
8
0
10
13.9973064
20
71
11
14
21
71
0
LINE
8
0
10
14
20
71
11
14.0030082
21
70.999604
0
LINE
8
0
10
14.0030082
20
70.999604
11
14.51764
21
70.93185
0
LINE
8
0
10
14.51764
20
70.93185
11
14.9971968
21
70.7332111
0
LINE
8
0
10
14.9971968
20
70.7332111
11
15
21
70.73205
0
LINE
8
0
10
15
20
70.73205
11
15.4118029
21
70.4160571
0
LINE
8
0
10
15.4118029
20
70.4160571
11
15.41421
21
70.41421
0
LINE
8
0
10
15.41421
20
70.41421
11
15.7302029
21
70.0024071
0
LINE
8
0
10
15.7302029
20
70.0024071
11
15.73205
21
70
0
LINE
8
0
10
15.73205
20
70
11
15.9306889
21
69.5204432
0
LINE
8
0
10
15.9306889
20
69.5204432
11
15.93185
21
69.51764
0
LINE
8
0
10
15.93185
20
69.51764
11
15.999604
21
69.0030082
0
LINE
8
0
10
15.999604
20
69.0030082
11
16
21
69
0
LINE
8
0
10
16
20
69
11
16
21
69
0
LINE
8
0
10
16
20
46.5362777
11
16
21
52.9344737
0
LINE
8
0
10
16
20
52.9344737
11
16
21
53.2386927
0
LINE
8
0
10
16
20
53.2386927
11
15.2428862
21
53.8240779
0
LINE
8
0
10
15.2428862
20
53.8240779
11
13
21
55.6072713
0
LINE
8
0
10
13
20
55.6072713
11
6.12147127
21
55.6072713
0
LINE
8
0
10
6.12147127
20
55.6072713
11
2.4
21
55.6072713
0
LINE
8
0
10
2.4
20
55.6072713
11
2.4
21
54.8776152
0
LINE
8
0
10
2.4
20
54.8776152
11
2.4
21
53.7040607
0
LINE
8
0
10
2.4
20
53.7040607
11
2.4
21
50.1231726
0
LINE
8
0
10
2.4
20
50.1231726
11
2.4
21
46.5362777
0
LINE
8
0
10
2.4
20
46.5362777
11
7.06003578
21
46.5362777
0
LINE
8
0
10
7.06003578
20
46.5362777
11
16
21
46.5362777
0
LINE
8
0
10
16
20
46.5362777
11
16
21
46.5362777
0
ENDSEC
0
EOF
