0
SECTION
2
ENTITIES
0
LINE
8
0
10
16
20
53.2352783
11
16
21
52.4381192
0
LINE
8
0
10
16
20
52.4381192
11
16
21
46.934058
0
LINE
8
0
10
16
20
46.934058
11
8.30937739
21
46.934058
0
LINE
8
0
10
8.30937739
20
46.934058
11
2.4
21
46.934058
0
LINE
8
0
10
2.4
20
46.934058
11
2.4
21
50.0196916
0
LINE
8
0
10
2.4
20
50.0196916
11
2.4
21
53.100158
0
LINE
8
0
10
2.4
20
53.100158
11
2.4
21
54.1097107
0
LINE
8
0
10
2.4
20
54.1097107
11
2.4
21
55.5770342
0
LINE
8
0
10
2.4
20
55.5770342
11
9.88380263
21
55.5770342
0
LINE
8
0
10
9.88380263
20
55.5770342
11
13
21
55.5770342
0
LINE
8
0
10
13
20
55.5770342
11
14.0161005
21
54.7691896
0
LINE
8
0
10
14.0161005
20
54.7691896
11
16
21
53.2352783
0
LINE
8
0
10
16
20
53.2352783
11
16
21
53.2352783
0
LINE
8
0
10
16
20
-7.423807
11
16
21
-8.64356917
0
LINE
8
0
10
16
20
-8.64356917
11
16
21
-8.65170262
0
LINE
8
0
10
16
20
-8.65170262
11
16
21
-9.65801242
0
LINE
8
0
10
16
20
-9.65801242
11
16
21
-10.1798054
0
LINE
8
0
10
16
20
-10.1798054
11
16
21
-14
0
LINE
8
0
10
16
20
-14
11
15.9978925
21
-14.0346087
0
LINE
8
0
10
15.9978925
20
-14.0346087
11
15.9397095
21
-14.4765436
0
LINE
8
0
10
15.9397095
20
-14.4765436
11
15.93185
21
-14.51764
0
LINE
8
0
10
15.93185
20
-14.51764
11
15.78453
21
-14.8733021
0
LINE
8
0
10
15.78453
20
-14.8733021
11
15.73205
21
-15
0
LINE
8
0
10
15.73205
20
-15
11
15.4976947
21
-15.3054125
0
LINE
8
0
10
15.4976947
20
-15.3054125
11
15.41421
21
-15.41421
0
LINE
8
0
10
15.41421
20
-15.41421
11
15.1087975
21
-15.6485653
0
LINE
8
0
10
15.1087975
20
-15.6485653
11
14.9996769
21
-15.7322365
0
LINE
8
0
10
14.9996769
20
-15.7322365
11
14.6440149
21
-15.8795565
0
LINE
8
0
10
14.6440149
20
-15.8795565
11
14.51764
21
-15.93185
0
LINE
8
0
10
14.51764
20
-15.93185
11
14.1359647
21
-15.9820995
0
LINE
8
0
10
14.1359647
20
-15.9820995
11
14.0442315
21
-15.9962555
0
LINE
8
0
10
14.0442315
20
-15.9962555
11
14
21
-16
0
LINE
8
0
10
14
20
-16
11
5.66078007
21
-16
0
LINE
8
0
10
5.66078007
20
-16
11
4.4
21
-16
0
LINE
8
0
10
4.4
20
-16
11
4.04919959
21
-15.9655482
0
LINE
8
0
10
4.04919959
20
-15.9655482
11
3.97575094
21
-15.9535974
0
LINE
8
0
10
3.97575094
20
-15.9535974
11
3.882362
21
-15.93185
0
LINE
8
0
10
3.882362
20
-15.93185
11
3.70387196
21
-15.8713727
0
LINE
8
0
10
3.70387196
20
-15.8713727
11
3.57210347
21
-15.8168294
0
LINE
8
0
10
3.57210347
20
-15.8168294
11
3.40022192
21
-15.7321786
0
LINE
8
0
10
3.40022192
20
-15.7321786
11
3.32106467
21
-15.6830254
0
LINE
8
0
10
3.32106467
20
-15.6830254
11
3.20749993
21
-15.5959251
0
LINE
8
0
10
3.20749993
20
-15.5959251
11
2.985786
21
-15.41421
0
LINE
8
0
10
2.985786
20
-15.41421
11
2.80612724
21
-15.1955737
0
LINE
8
0
10
2.80612724
20
-15.1955737
11
2.71915639
21
-15.082232
0
LINE
8
0
10
2.71915639
20
-15.082232
11
2.667949
21
-15
0
LINE
8
0
10
2.667949
20
-15
11
2.58406892
21
-14.8299721
0
LINE
8
0
10
2.58406892
20
-14.8299721
11
2.52939668
21
-14.6979823
0
LINE
8
0
10
2.52939668
20
-14.6979823
11
2.468148
21
-14.51764
0
LINE
8
0
10
2.468148
20
-14.51764
11
2.44689597
21
-14.4267352
0
LINE
8
0
10
2.44689597
20
-14.4267352
11
2.41864758
21
-14.1416436
0
LINE
8
0
10
2.41864758
20
-14.1416436
11
2.40932378
21
-14.0708218
0
LINE
8
0
10
2.40932378
20
-14.0708218
11
2.40131636
21
-14.0216232
0
LINE
8
0
10
2.40131636
20
-14.0216232
11
2.4
21
-14
0
LINE
8
0
10
2.4
20
-14
11
2.4
21
-13.9604132
0
LINE
8
0
10
2.4
20
-13.9604132
11
2.4
21
-7.6962671
0
LINE
8
0
10
2.4
20
-7.6962671
11
2.4
21
-7.24791433
0
LINE
8
0
10
2.4
20
-7.24791433
11
2.4
21
-6.41199944
0
LINE
8
0
10
2.4
20
-6.41199944
11
2.4
21
-5.00326208
0
LINE
8
0
10
2.4
20
-5.00326208
11
2.4
21
-4.42300461
0
LINE
8
0
10
2.4
20
-4.42300461
11
10.323932
21
-4.42300461
0
LINE
8
0
10
10.323932
20
-4.42300461
11
13.65614
21
-4.42300461
0
LINE
8
0
10
13.65614
20
-4.42300461
11
14.5236247
21
-5.54937424
0
LINE
8
0
10
14.5236247
20
-5.54937424
11
16
21
-7.423807
0
LINE
8
0
10
16
20
-7.423807
11
16
21
-7.423807
0
LINE
8
0
10
16
20
69
11
16
21
68.4812733
0
LINE
8
0
10
16
20
68.4812733
11
16
21
68.4192461
0
LINE
8
0
10
16
20
68.4192461
11
16
21
68.2713982
0
LINE
8
0
10
16
20
68.2713982
11
16
21
67.877213
0
LINE
8
0
10
16
20
67.877213
11
16
21
65.890176
0
LINE
8
0
10
16
20
65.890176
11
16
21
62.8725775
0
LINE
8
0
10
16
20
62.8725775
11
13.6309523
21
61.0270277
0
LINE
8
0
10
13.6309523
20
61.0270277
11
13
21
60.5269487
0
LINE
8
0
10
13
20
60.5269487
11
5.51619737
21
60.5269487
0
LINE
8
0
10
5.51619737
20
60.5269487
11
2.4
21
60.5269487
0
LINE
8
0
10
2.4
20
60.5269487
11
2.4
21
61.3349145
0
LINE
8
0
10
2.4
20
61.3349145
11
2.4
21
64.0264947
0
LINE
8
0
10
2.4
20
64.0264947
11
2.4
21
66.9059626
0
LINE
8
0
10
2.4
20
66.9059626
11
2.4
21
67.603536
0
LINE
8
0
10
2.4
20
67.603536
11
2.4
21
69
0
LINE
8
0
10
2.4
20
69
11
2.40234523
21
69.017814
0
LINE
8
0
10
2.40234523
20
69.017814
11
2.468148
21
69.51764
0
LINE
8
0
10
2.468148
20
69.51764
11
2.66107309
21
69.9834002
0
LINE
8
0
10
2.66107309
20
69.9834002
11
2.667949
21
70
0
LINE
8
0
10
2.667949
20
70
11
2.97484802
21
70.3999555
0
LINE
8
0
10
2.97484802
20
70.3999555
11
2.985786
21
70.41421
0
LINE
8
0
10
2.985786
20
70.41421
11
3.38574533
21
70.7211119
0
LINE
8
0
10
3.38574533
20
70.7211119
11
3.4
21
70.73205
0
LINE
8
0
10
3.4
20
70.73205
11
3.86576209
21
70.9249741
0
LINE
8
0
10
3.86576209
20
70.9249741
11
3.882362
21
70.93185
0
LINE
8
0
10
3.882362
20
70.93185
11
4.38218611
21
70.9976547
0
LINE
8
0
10
4.38218611
20
70.9976547
11
4.4
21
71
0
LINE
8
0
10
4.4
20
71
11
4.5479793
21
71
0
LINE
8
0
10
4.5479793
20
71
11
13.9827931
21
71
0
LINE
8
0
10
13.9827931
20
71
11
14
21
71
0
LINE
8
0
10
14
20
71
11
14.0192162
21
70.9974701
0
LINE
8
0
10
14.0192162
20
70.9974701
11
14.51764
21
70.93185
0
LINE
8
0
10
14.51764
20
70.93185
11
14.9820935
21
70.7394671
0
LINE
8
0
10
14.9820935
20
70.7394671
11
15
21
70.73205
0
LINE
8
0
10
15
20
70.73205
11
15.3988334
21
70.4260091
0
LINE
8
0
10
15.3988334
20
70.4260091
11
15.41421
21
70.41421
0
LINE
8
0
10
15.41421
20
70.41421
11
15.7202509
21
70.0153766
0
LINE
8
0
10
15.7202509
20
70.0153766
11
15.73205
21
70
0
LINE
8
0
10
15.73205
20
70
11
15.9244329
21
69.5355465
0
LINE
8
0
10
15.9244329
20
69.5355465
11
15.93185
21
69.51764
0
LINE
8
0
10
15.93185
20
69.51764
11
15.9974701
21
69.0192162
0
LINE
8
0
10
15.9974701
20
69.0192162
11
16
21
69
0
LINE
8
0
10
16
20
69
11
16
21
69
0
LINE
8
0
10
16
20
15.7571408
11
16
21
13.726198
0
LINE
8
0
10
16
20
13.726198
11
5.58937739
21
13.726198
0
LINE
8
0
10
5.58937739
20
13.726198
11
2.4
21
13.726198
0
LINE
8
0
10
2.4
20
13.726198
11
2.4
21
14.8339861
0
LINE
8
0
10
2.4
20
14.8339861
11
2.4
21
15.7571408
0
LINE
8
0
10
2.4
20
15.7571408
11
2.4
21
19.1016842
0
LINE
8
0
10
2.4
20
19.1016842
11
2.4
21
22.6853408
0
LINE
8
0
10
2.4
20
22.6853408
11
2.4
21
23.3367768
0
LINE
8
0
10
2.4
20
23.3367768
11
2.4
21
24.1185
0
LINE
8
0
10
2.4
20
24.1185
11
4.65062261
21
24.1185
0
LINE
8
0
10
4.65062261
20
24.1185
11
16
21
24.1185
0
LINE
8
0
10
16
20
24.1185
11
16
21
22.6853408
0
LINE
8
0
10
16
20
22.6853408
11
16
21
19.819024
0
LINE
8
0
10
16
20
19.819024
11
16
21
15.7571408
0
LINE
8
0
10
16
20
15.7571408
11
16
21
15.7571408
0
LINE
8
0
10
16
20
32.7787592
11
16
21
31.3456
0
LINE
8
0
10
16
20
31.3456
11
13.7493774
21
31.3456
0
LINE
8
0
10
13.7493774
20
31.3456
11
2.4
21
31.3456
0
LINE
8
0
10
2.4
20
31.3456
11
2.4
21
31.9825596
0
LINE
8
0
10
2.4
20
31.9825596
11
2.4
21
32.7787592
0
LINE
8
0
10
2.4
20
32.7787592
11
2.4
21
36.0757842
0
LINE
8
0
10
2.4
20
36.0757842
11
2.4
21
38.2738008
0
LINE
8
0
10
2.4
20
38.2738008
11
2.4
21
40.4998286
0
LINE
8
0
10
2.4
20
40.4998286
11
2.4
21
43.171062
0
LINE
8
0
10
2.4
20
43.171062
11
10.0906226
21
43.171062
0
LINE
8
0
10
10.0906226
20
43.171062
11
16
21
43.171062
0
LINE
8
0
10
16
20
43.171062
11
16
21
38.2738008
0
LINE
8
0
10
16
20
38.2738008
11
16
21
32.7787592
0
LINE
8
0
10
16
20
32.7787592
11
16
21
32.7787592
0
LINE
8
0
10
16
20
7.09688656
11
16
21
5.95428096
0
LINE
8
0
10
16
20
5.95428096
11
16
21
5.71816978
0
LINE
8
0
10
16
20
5.71816978
11
13.7698958
21
1.63849377
0
LINE
8
0
10
13.7698958
20
1.63849377
11
13.65614
21
1.43039264
0
LINE
8
0
10
13.65614
20
1.43039264
11
12.4542781
21
1.43039264
0
LINE
8
0
10
12.4542781
20
1.43039264
11
2.4
21
1.43039264
0
LINE
8
0
10
2.4
20
1.43039264
11
2.4
21
2.71895395
0
LINE
8
0
10
2.4
20
2.71895395
11
2.4
21
6.18296314
0
LINE
8
0
10
2.4
20
6.18296314
11
2.4
21
7.09688656
0
LINE
8
0
10
2.4
20
7.09688656
11
12.8106226
21
7.09688656
0
LINE
8
0
10
12.8106226
20
7.09688656
11
16
21
7.09688656
0
LINE
8
0
10
16
20
7.09688656
11
16
21
7.09688656
0
ENDSEC
0
EOF
