0
SECTION
2
ENTITIES
0
LINE
8
0
10
16
20
12.9306375
11
16
21
16.5527004
0
LINE
8
0
10
16
20
16.5527004
11
16
21
23.3229396
0
LINE
8
0
10
16
20
23.3229396
11
16
21
23.4809005
0
LINE
8
0
10
16
20
23.4809005
11
15.7519394
21
23.4809005
0
LINE
8
0
10
15.7519394
20
23.4809005
11
2.4
21
23.4809005
0
LINE
8
0
10
2.4
20
23.4809005
11
2.4
21
23.4106957
0
LINE
8
0
10
2.4
20
23.4106957
11
2.4
21
23.3229396
0
LINE
8
0
10
2.4
20
23.3229396
11
2.4
21
19.2607961
0
LINE
8
0
10
2.4
20
19.2607961
11
2.4
21
16.5527004
0
LINE
8
0
10
2.4
20
16.5527004
11
2.4
21
14.9063101
0
LINE
8
0
10
2.4
20
14.9063101
11
2.4
21
12.9306375
0
LINE
8
0
10
2.4
20
12.9306375
11
8.08806062
21
12.9306375
0
LINE
8
0
10
8.08806062
20
12.9306375
11
16
21
12.9306375
0
LINE
8
0
10
16
20
12.9306375
11
16
21
12.9306375
0
LINE
8
0
10
16
20
-7.423807
11
16
21
-7.85002325
0
LINE
8
0
10
16
20
-7.85002325
11
16
21
-7.85286529
0
LINE
8
0
10
16
20
-7.85286529
11
16
21
-9.00948046
0
LINE
8
0
10
16
20
-9.00948046
11
16
21
-9.60920996
0
LINE
8
0
10
16
20
-9.60920996
11
16
21
-14
0
LINE
8
0
10
16
20
-14
11
15.9975778
21
-14.039778
0
LINE
8
0
10
15.9975778
20
-14.039778
11
15.9408834
21
-14.4704054
0
LINE
8
0
10
15.9408834
20
-14.4704054
11
15.93185
21
-14.51764
0
LINE
8
0
10
15.93185
20
-14.51764
11
15.7923686
21
-14.8543781
0
LINE
8
0
10
15.7923686
20
-14.8543781
11
15.73205
21
-15
0
LINE
8
0
10
15.73205
20
-15
11
15.5101642
21
-15.2891622
0
LINE
8
0
10
15.5101642
20
-15.2891622
11
15.41421
21
-15.41421
0
LINE
8
0
10
15.41421
20
-15.41421
11
15.1250478
21
-15.6360958
0
LINE
8
0
10
15.1250478
20
-15.6360958
11
14.9996287
21
-15.7322643
0
LINE
8
0
10
14.9996287
20
-15.7322643
11
14.6628906
21
-15.8717458
0
LINE
8
0
10
14.6628906
20
-15.8717458
11
14.51764
21
-15.93185
0
LINE
8
0
10
14.51764
20
-15.93185
11
14.1562728
21
-15.9794259
0
LINE
8
0
10
14.1562728
20
-15.9794259
11
14.0508381
21
-15.9956963
0
LINE
8
0
10
14.0508381
20
-15.9956963
11
14
21
-16
0
LINE
8
0
10
14
20
-16
11
5.84909387
21
-16
0
LINE
8
0
10
5.84909387
20
-16
11
4.4
21
-16
0
LINE
8
0
10
4.4
20
-16
11
4.05491535
21
-15.9661096
0
LINE
8
0
10
4.05491535
20
-15.9661096
11
3.9704962
21
-15.9523737
0
LINE
8
0
10
3.9704962
20
-15.9523737
11
3.882362
21
-15.93185
0
LINE
8
0
10
3.882362
20
-15.93185
11
3.71391512
21
-15.8747756
0
LINE
8
0
10
3.71391512
20
-15.8747756
11
3.56246531
21
-15.8120855
0
LINE
8
0
10
3.56246531
20
-15.8120855
11
3.40025506
21
-15.7321978
0
LINE
8
0
10
3.40025506
20
-15.7321978
11
3.32555179
21
-15.6858103
0
LINE
8
0
10
3.32555179
20
-15.6858103
11
3.19502468
21
-15.5857005
0
LINE
8
0
10
3.19502468
20
-15.5857005
11
2.985786
21
-15.41421
0
LINE
8
0
10
2.985786
20
-15.41421
11
2.81623615
21
-15.2078758
0
LINE
8
0
10
2.81623615
20
-15.2078758
11
2.71627508
21
-15.077605
0
LINE
8
0
10
2.71627508
20
-15.077605
11
2.667949
21
-15
0
LINE
8
0
10
2.667949
20
-15
11
2.58878863
21
-14.8395391
0
LINE
8
0
10
2.58878863
20
-14.8395391
11
2.52595038
21
-14.6878349
0
LINE
8
0
10
2.52595038
20
-14.6878349
11
2.468148
21
-14.51764
0
LINE
8
0
10
2.468148
20
-14.51764
11
2.44809176
21
-14.4318502
0
LINE
8
0
10
2.44809176
20
-14.4318502
11
2.42143283
21
-14.1628
0
LINE
8
0
10
2.42143283
20
-14.1628
11
2.41071641
21
-14.0813999
0
LINE
8
0
10
2.41071641
20
-14.0813999
11
2.40151298
21
-14.0248529
0
LINE
8
0
10
2.40151298
20
-14.0248529
11
2.4
21
-14
0
LINE
8
0
10
2.4
20
-14
11
2.4
21
-13.9610066
0
LINE
8
0
10
2.4
20
-13.9610066
11
2.4
21
-6.76122938
0
LINE
8
0
10
2.4
20
-6.76122938
11
2.4
21
-6.24590932
0
LINE
8
0
10
2.4
20
-6.24590932
11
2.4
21
-5.28513975
0
LINE
8
0
10
2.4
20
-5.28513975
11
2.4
21
-4.4127974
0
LINE
8
0
10
2.4
20
-4.4127974
11
7.09295948
21
-4.4127974
0
LINE
8
0
10
7.09295948
20
-4.4127974
11
13.65614
21
-4.4127974
0
LINE
8
0
10
13.65614
20
-4.4127974
11
14.8778736
21
-5.99913509
0
LINE
8
0
10
14.8778736
20
-5.99913509
11
16
21
-7.423807
0
LINE
8
0
10
16
20
-7.423807
11
16
21
-7.423807
0
LINE
8
0
10
16
20
69
11
16
21
67.6062271
0
LINE
8
0
10
16
20
67.6062271
11
16
21
67.4395655
0
LINE
8
0
10
16
20
67.4395655
11
16
21
67.0423113
0
LINE
8
0
10
16
20
67.0423113
11
16
21
65.9831702
0
LINE
8
0
10
16
20
65.9831702
11
16
21
62.8723035
0
LINE
8
0
10
16
20
62.8723035
11
13.7721794
21
61.1258969
0
LINE
8
0
10
13.7721794
20
61.1258969
11
13
21
60.5165648
0
LINE
8
0
10
13
20
60.5165648
11
8.59160279
21
60.5165648
0
LINE
8
0
10
8.59160279
20
60.5165648
11
2.4
21
60.5165648
0
LINE
8
0
10
2.4
20
60.5165648
11
2.4
21
63.3735059
0
LINE
8
0
10
2.4
20
63.3735059
11
2.4
21
65.2478244
0
LINE
8
0
10
2.4
20
65.2478244
11
2.4
21
69
0
LINE
8
0
10
2.4
20
69
11
2.40630143
21
69.0478645
0
LINE
8
0
10
2.40630143
20
69.0478645
11
2.468148
21
69.51764
0
LINE
8
0
10
2.468148
20
69.51764
11
2.64947404
21
69.9553977
0
LINE
8
0
10
2.64947404
20
69.9553977
11
2.667949
21
70
0
LINE
8
0
10
2.667949
20
70
11
2.95639662
21
70.3759093
0
LINE
8
0
10
2.95639662
20
70.3759093
11
2.985786
21
70.41421
0
LINE
8
0
10
2.985786
20
70.41421
11
3.36169895
21
70.7026603
0
LINE
8
0
10
3.36169895
20
70.7026603
11
3.4
21
70.73205
0
LINE
8
0
10
3.4
20
70.73205
11
3.83775952
21
70.9133751
0
LINE
8
0
10
3.83775952
20
70.9133751
11
3.882362
21
70.93185
0
LINE
8
0
10
3.882362
20
70.93185
11
4.35213566
21
70.9936984
0
LINE
8
0
10
4.35213566
20
70.9936984
11
4.4
21
71
0
LINE
8
0
10
4.4
20
71
11
4.79760735
21
71
0
LINE
8
0
10
4.79760735
20
71
11
13.9537666
21
71
0
LINE
8
0
10
13.9537666
20
71
11
14
21
71
0
LINE
8
0
10
14
20
71
11
14.0516322
21
70.9932024
0
LINE
8
0
10
14.0516322
20
70.9932024
11
14.51764
21
70.93185
0
LINE
8
0
10
14.51764
20
70.93185
11
14.9518868
21
70.7519791
0
LINE
8
0
10
14.9518868
20
70.7519791
11
15
21
70.73205
0
LINE
8
0
10
15
20
70.73205
11
15.3728945
21
70.4459131
0
LINE
8
0
10
15.3728945
20
70.4459131
11
15.41421
21
70.41421
0
LINE
8
0
10
15.41421
20
70.41421
11
15.7003469
21
70.0413155
0
LINE
8
0
10
15.7003469
20
70.0413155
11
15.73205
21
70
0
LINE
8
0
10
15.73205
20
70
11
15.9119209
21
69.5657532
0
LINE
8
0
10
15.9119209
20
69.5657532
11
15.93185
21
69.51764
0
LINE
8
0
10
15.93185
20
69.51764
11
15.9932024
21
69.0516322
0
LINE
8
0
10
15.9932024
20
69.0516322
11
16
21
69
0
LINE
8
0
10
16
20
69
11
16
21
69
0
LINE
8
0
10
16
20
32.1411604
11
16
21
31.9831995
0
LINE
8
0
10
16
20
31.9831995
11
2.64806062
21
31.9831995
0
LINE
8
0
10
2.64806062
20
31.9831995
11
2.4
21
31.9831995
0
LINE
8
0
10
2.4
20
31.9831995
11
2.4
21
32.06936
0
LINE
8
0
10
2.4
20
32.06936
11
2.4
21
32.1411604
0
LINE
8
0
10
2.4
20
32.1411604
11
2.4
21
36.2348961
0
LINE
8
0
10
2.4
20
36.2348961
11
2.4
21
39.0693604
0
LINE
8
0
10
2.4
20
39.0693604
11
2.4
21
40.5721518
0
LINE
8
0
10
2.4
20
40.5721518
11
2.4
21
42.3755015
0
LINE
8
0
10
2.4
20
42.3755015
11
7.59193938
21
42.3755015
0
LINE
8
0
10
7.59193938
20
42.3755015
11
16
21
42.3755015
0
LINE
8
0
10
16
20
42.3755015
11
16
21
39.0693604
0
LINE
8
0
10
16
20
39.0693604
11
16
21
32.457082
0
LINE
8
0
10
16
20
32.457082
11
16
21
32.1411604
0
LINE
8
0
10
16
20
32.1411604
11
16
21
32.1411604
0
LINE
8
0
10
16
20
53.2284493
11
16
21
51.4454103
0
LINE
8
0
10
16
20
51.4454103
11
16
21
47.7296185
0
LINE
8
0
10
16
20
47.7296185
11
10.8080606
21
47.7296185
0
LINE
8
0
10
10.8080606
20
47.7296185
11
2.4
21
47.7296185
0
LINE
8
0
10
2.4
20
47.7296185
11
2.4
21
49.8127298
0
LINE
8
0
10
2.4
20
49.8127298
11
2.4
21
51.8923527
0
LINE
8
0
10
2.4
20
51.8923527
11
2.4
21
52.5739017
0
LINE
8
0
10
2.4
20
52.5739017
11
2.4
21
54.1951001
0
LINE
8
0
10
2.4
20
54.1951001
11
2.4
21
55.5874194
0
LINE
8
0
10
2.4
20
55.5874194
11
6.80839721
21
55.5874194
0
LINE
8
0
10
6.80839721
20
55.5874194
11
13
21
55.5874194
0
LINE
8
0
10
13
20
55.5874194
11
14.9296272
21
54.0560401
0
LINE
8
0
10
14.9296272
20
54.0560401
11
16
21
53.2284493
0
LINE
8
0
10
16
20
53.2284493
11
16
21
53.2284493
0
LINE
8
0
10
16
20
5.63863946
11
16
21
6.61421562
0
LINE
8
0
10
16
20
6.61421562
11
16
21
7.89244599
0
LINE
8
0
10
16
20
7.89244599
11
10.3119394
21
7.89244599
0
LINE
8
0
10
10.3119394
20
7.89244599
11
2.4
21
7.89244599
0
LINE
8
0
10
2.4
20
7.89244599
11
2.4
21
6.26251914
0
LINE
8
0
10
2.4
20
6.26251914
11
2.4
21
1.80536807
0
LINE
8
0
10
2.4
20
1.80536807
11
2.4
21
1.3508621
0
LINE
8
0
10
2.4
20
1.3508621
11
4.09265819
21
1.3508621
0
LINE
8
0
10
4.09265819
20
1.3508621
11
13.65614
21
1.3508621
0
LINE
8
0
10
13.65614
20
1.3508621
11
13.816766
21
1.64470624
0
LINE
8
0
10
13.816766
20
1.64470624
11
16
21
5.63863946
0
LINE
8
0
10
16
20
5.63863946
11
16
21
5.63863946
0
ENDSEC
0
EOF
