0
SECTION
2
ENTITIES
0
LINE
8
0
10
13.3324822
20
55.3902621
11
16
21
53.2851576
0
LINE
8
0
10
16
20
53.2851576
11
16
21
51.7461277
0
LINE
8
0
10
16
20
51.7461277
11
16
21
50.4527013
0
LINE
8
0
10
16
20
50.4527013
11
16
21
48.525179
0
LINE
8
0
10
16
20
48.525179
11
13.3067439
21
48.525179
0
LINE
8
0
10
13.3067439
20
48.525179
11
2.4
21
48.525179
0
LINE
8
0
10
2.4
20
48.525179
11
2.4
21
49.605768
0
LINE
8
0
10
2.4
20
49.605768
11
2.4
21
50.6845474
0
LINE
8
0
10
2.4
20
50.6845474
11
2.4
21
51.0380927
0
LINE
8
0
10
2.4
20
51.0380927
11
2.4
21
51.8790699
0
LINE
8
0
10
2.4
20
51.8790699
11
2.4
21
54.7543562
0
LINE
8
0
10
2.4
20
54.7543562
11
2.4
21
55.670883
0
LINE
8
0
10
2.4
20
55.670883
11
3.83043566
21
55.670883
0
LINE
8
0
10
3.83043566
20
55.670883
11
13
21
55.670883
0
LINE
8
0
10
13
20
55.670883
11
13.148797
21
55.5451803
0
LINE
8
0
10
13.148797
20
55.5451803
11
13.3324822
21
55.3902621
0
LINE
8
0
10
13.3324822
20
55.3902621
11
13.3324822
21
55.3902621
0
LINE
8
0
10
16
20
-8.3609485
11
16
21
-9.03861453
0
LINE
8
0
10
16
20
-9.03861453
11
16
21
-14
0
LINE
8
0
10
16
20
-14
11
15.997263
21
-14.0449472
0
LINE
8
0
10
15.997263
20
-14.0449472
11
15.9420573
21
-14.4642671
0
LINE
8
0
10
15.9420573
20
-14.4642671
11
15.93185
21
-14.51764
0
LINE
8
0
10
15.93185
20
-14.51764
11
15.8002071
21
-14.8354541
0
LINE
8
0
10
15.8002071
20
-14.8354541
11
15.73205
21
-15
0
LINE
8
0
10
15.73205
20
-15
11
15.5226337
21
-15.2729119
0
LINE
8
0
10
15.5226337
20
-15.2729119
11
15.41421
21
-15.41421
0
LINE
8
0
10
15.41421
20
-15.41421
11
15.1412981
21
-15.6236263
0
LINE
8
0
10
15.1412981
20
-15.6236263
11
14.9995804
21
-15.7322922
0
LINE
8
0
10
14.9995804
20
-15.7322922
11
14.6817663
21
-15.8639351
0
LINE
8
0
10
14.6817663
20
-15.8639351
11
14.51764
21
-15.93185
0
LINE
8
0
10
14.51764
20
-15.93185
11
14.1765808
21
-15.9767522
0
LINE
8
0
10
14.1765808
20
-15.9767522
11
14.0574446
21
-15.995137
0
LINE
8
0
10
14.0574446
20
-15.995137
11
14
21
-16
0
LINE
8
0
10
14
20
-16
11
6.03740766
21
-16
0
LINE
8
0
10
6.03740766
20
-16
11
4.4
21
-16
0
LINE
8
0
10
4.4
20
-16
11
4.06063111
21
-15.9666709
0
LINE
8
0
10
4.06063111
20
-15.9666709
11
3.96524145
21
-15.9511501
0
LINE
8
0
10
3.96524145
20
-15.9511501
11
3.882362
21
-15.93185
0
LINE
8
0
10
3.882362
20
-15.93185
11
3.72395827
21
-15.8781785
0
LINE
8
0
10
3.72395827
20
-15.8781785
11
3.55282714
21
-15.8073416
0
LINE
8
0
10
3.55282714
20
-15.8073416
11
3.40028821
21
-15.732217
0
LINE
8
0
10
3.40028821
20
-15.732217
11
3.3300389
21
-15.6885952
0
LINE
8
0
10
3.3300389
20
-15.6885952
11
3.18254943
21
-15.5754759
0
LINE
8
0
10
3.18254943
20
-15.5754759
11
2.985786
21
-15.41421
0
LINE
8
0
10
2.985786
20
-15.41421
11
2.82634507
21
-15.2201778
0
LINE
8
0
10
2.82634507
20
-15.2201778
11
2.71339378
21
-15.072978
0
LINE
8
0
10
2.71339378
20
-15.072978
11
2.667949
21
-15
0
LINE
8
0
10
2.667949
20
-15
11
2.59350834
21
-14.8491062
0
LINE
8
0
10
2.59350834
20
-14.8491062
11
2.52250408
21
-14.6776875
0
LINE
8
0
10
2.52250408
20
-14.6776875
11
2.468148
21
-14.51764
0
LINE
8
0
10
2.468148
20
-14.51764
11
2.44928756
21
-14.4369652
0
LINE
8
0
10
2.44928756
20
-14.4369652
11
2.42421809
21
-14.1839563
0
LINE
8
0
10
2.42421809
20
-14.1839563
11
2.41210904
21
-14.0919781
0
LINE
8
0
10
2.41210904
20
-14.0919781
11
2.4017096
21
-14.0280827
0
LINE
8
0
10
2.4017096
20
-14.0280827
11
2.4
21
-14
0
LINE
8
0
10
2.4
20
-14
11
2.4
21
-13.9616
0
LINE
8
0
10
2.4
20
-13.9616
11
2.4
21
-5.82619165
0
LINE
8
0
10
2.4
20
-5.82619165
11
2.4
21
-5.24390432
0
LINE
8
0
10
2.4
20
-5.24390432
11
2.4
21
-4.32907717
0
LINE
8
0
10
2.4
20
-4.32907717
11
3.9679026
21
-4.32907717
0
LINE
8
0
10
3.9679026
20
-4.32907717
11
13.65614
21
-4.32907717
0
LINE
8
0
10
13.65614
20
-4.32907717
11
13.7625886
21
-4.47666028
0
LINE
8
0
10
13.7625886
20
-4.47666028
11
13.878109
21
-4.63516976
0
LINE
8
0
10
13.878109
20
-4.63516976
11
16
21
-7.3834328
0
LINE
8
0
10
16
20
-7.3834328
11
16
21
-8.3609485
0
LINE
8
0
10
16
20
-8.3609485
11
16
21
-8.3609485
0
LINE
8
0
10
16
20
69
11
16
21
66.7311808
0
LINE
8
0
10
16
20
66.7311808
11
16
21
66.4598849
0
LINE
8
0
10
16
20
66.4598849
11
16
21
65.8132243
0
LINE
8
0
10
16
20
65.8132243
11
16
21
64.0891274
0
LINE
8
0
10
16
20
64.0891274
11
16
21
62.8186895
0
LINE
8
0
10
16
20
62.8186895
11
15.0901868
21
62.1054795
0
LINE
8
0
10
15.0901868
20
62.1054795
11
13.6126508
21
60.9395456
0
LINE
8
0
10
13.6126508
20
60.9395456
11
13.1836569
21
60.5897132
0
LINE
8
0
10
13.1836569
20
60.5897132
11
13
21
60.4331057
0
LINE
8
0
10
13
20
60.4331057
11
11.5695643
21
60.4331057
0
LINE
8
0
10
11.5695643
20
60.4331057
11
2.4
21
60.4331057
0
LINE
8
0
10
2.4
20
60.4331057
11
2.4
21
62.8921127
0
LINE
8
0
10
2.4
20
62.8921127
11
2.4
21
69
0
LINE
8
0
10
2.4
20
69
11
2.41025763
21
69.0779151
0
LINE
8
0
10
2.41025763
20
69.0779151
11
2.468148
21
69.51764
0
LINE
8
0
10
2.468148
20
69.51764
11
2.63787498
21
69.9273952
0
LINE
8
0
10
2.63787498
20
69.9273952
11
2.667949
21
70
0
LINE
8
0
10
2.667949
20
70
11
2.93794522
21
70.3518632
0
LINE
8
0
10
2.93794522
20
70.3518632
11
2.985786
21
70.41421
0
LINE
8
0
10
2.985786
20
70.41421
11
3.33765257
21
70.6842088
0
LINE
8
0
10
3.33765257
20
70.6842088
11
3.4
21
70.73205
0
LINE
8
0
10
3.4
20
70.73205
11
3.80975694
21
70.9017761
0
LINE
8
0
10
3.80975694
20
70.9017761
11
3.882362
21
70.93185
0
LINE
8
0
10
3.882362
20
70.93185
11
4.3220852
21
70.9897421
0
LINE
8
0
10
4.3220852
20
70.9897421
11
4.4
21
71
0
LINE
8
0
10
4.4
20
71
11
5.0472354
21
71
0
LINE
8
0
10
5.0472354
20
71
11
13.9247401
21
71
0
LINE
8
0
10
13.9247401
20
71
11
14
21
71
0
LINE
8
0
10
14
20
71
11
14.0840482
21
70.9889346
0
LINE
8
0
10
14.0840482
20
70.9889346
11
14.51764
21
70.93185
0
LINE
8
0
10
14.51764
20
70.93185
11
14.9216801
21
70.7644911
0
LINE
8
0
10
14.9216801
20
70.7644911
11
15
21
70.73205
0
LINE
8
0
10
15
20
70.73205
11
15.3469555
21
70.4658171
0
LINE
8
0
10
15.3469555
20
70.4658171
11
15.41421
21
70.41421
0
LINE
8
0
10
15.41421
20
70.41421
11
15.6804429
21
70.0672545
0
LINE
8
0
10
15.6804429
20
70.0672545
11
15.73205
21
70
0
LINE
8
0
10
15.73205
20
70
11
15.8994089
21
69.5959599
0
LINE
8
0
10
15.8994089
20
69.5959599
11
15.93185
21
69.51764
0
LINE
8
0
10
15.93185
20
69.51764
11
15.9889346
21
69.0840482
0
LINE
8
0
10
15.9889346
20
69.0840482
11
16
21
69
0
LINE
8
0
10
16
20
69
11
16
21
69
0
LINE
8
0
10
16
20
7.81345519
11
16
21
5.16960082
0
LINE
8
0
10
16
20
5.16960082
11
14.0914437
21
1.6781534
0
LINE
8
0
10
14.0914437
20
1.6781534
11
13.65614
21
0.881822835
0
LINE
8
0
10
13.65614
20
0.881822835
11
6.98717827
21
0.881822835
0
LINE
8
0
10
6.98717827
20
0.881822835
11
2.4
21
0.881822835
0
LINE
8
0
10
2.4
20
0.881822835
11
2.4
21
2.11355403
0
LINE
8
0
10
2.4
20
2.11355403
11
2.4
21
6.34207515
0
LINE
8
0
10
2.4
20
6.34207515
11
2.4
21
8.68800541
0
LINE
8
0
10
2.4
20
8.68800541
11
7.81325615
21
8.68800541
0
LINE
8
0
10
7.81325615
20
8.68800541
11
16
21
8.68800541
0
LINE
8
0
10
16
20
8.68800541
11
16
21
7.81345519
0
LINE
8
0
10
16
20
7.81345519
11
16
21
7.81345519
0
LINE
8
0
10
16
20
41.579941
11
16
21
39.86492
0
LINE
8
0
10
16
20
39.86492
11
16
21
36.4348801
0
LINE
8
0
10
16
20
36.4348801
11
16
21
32.93672
0
LINE
8
0
10
16
20
32.93672
11
16
21
31.187639
0
LINE
8
0
10
16
20
31.187639
11
5.14674385
21
31.187639
0
LINE
8
0
10
5.14674385
20
31.187639
11
2.4
21
31.187639
0
LINE
8
0
10
2.4
20
31.187639
11
2.4
21
32.1416832
0
LINE
8
0
10
2.4
20
32.1416832
11
2.4
21
32.93672
0
LINE
8
0
10
2.4
20
32.93672
11
2.4
21
36.394008
0
LINE
8
0
10
2.4
20
36.394008
11
2.4
21
39.86492
0
LINE
8
0
10
2.4
20
39.86492
11
2.4
21
40.644475
0
LINE
8
0
10
2.4
20
40.644475
11
2.4
21
41.579941
0
LINE
8
0
10
2.4
20
41.579941
11
5.09325615
21
41.579941
0
LINE
8
0
10
5.09325615
20
41.579941
11
16
21
41.579941
0
LINE
8
0
10
16
20
41.579941
11
16
21
41.579941
0
LINE
8
0
10
16
20
12.135077
11
16
21
17.34826
0
LINE
8
0
10
16
20
17.34826
11
16
21
22.52738
0
LINE
8
0
10
16
20
22.52738
11
16
21
24.276461
0
LINE
8
0
10
16
20
24.276461
11
13.2532561
21
24.276461
0
LINE
8
0
10
13.2532561
20
24.276461
11
2.4
21
24.276461
0
LINE
8
0
10
2.4
20
24.276461
11
2.4
21
23.4990917
0
LINE
8
0
10
2.4
20
23.4990917
11
2.4
21
22.52738
0
LINE
8
0
10
2.4
20
22.52738
11
2.4
21
19.419908
0
LINE
8
0
10
2.4
20
19.419908
11
2.4
21
17.34826
0
LINE
8
0
10
2.4
20
17.34826
11
2.4
21
14.9786341
0
LINE
8
0
10
2.4
20
14.9786341
11
2.4
21
12.135077
0
LINE
8
0
10
2.4
20
12.135077
11
10.5867439
21
12.135077
0
LINE
8
0
10
10.5867439
20
12.135077
11
16
21
12.135077
0
LINE
8
0
10
16
20
12.135077
11
16
21
12.135077
0
ENDSEC
0
EOF
