0
SECTION
2
ENTITIES
0
LINE
8
0
10
16
20
17.7460398
11
16
21
22.1296002
0
LINE
8
0
10
16
20
22.1296002
11
16
21
24.6742413
0
LINE
8
0
10
16
20
24.6742413
11
12.0039145
21
24.6742413
0
LINE
8
0
10
12.0039145
20
24.6742413
11
2.4
21
24.6742413
0
LINE
8
0
10
2.4
20
24.6742413
11
2.4
21
23.5432897
0
LINE
8
0
10
2.4
20
23.5432897
11
2.4
21
22.1296002
0
LINE
8
0
10
2.4
20
22.1296002
11
2.4
21
19.499464
0
LINE
8
0
10
2.4
20
19.499464
11
2.4
21
17.7460398
0
LINE
8
0
10
2.4
20
17.7460398
11
2.4
21
15.0147961
0
LINE
8
0
10
2.4
20
15.0147961
11
2.4
21
11.7372967
0
LINE
8
0
10
2.4
20
11.7372967
11
11.8360855
21
11.7372967
0
LINE
8
0
10
11.8360855
20
11.7372967
11
16
21
11.7372967
0
LINE
8
0
10
16
20
11.7372967
11
16
21
17.7460398
0
LINE
8
0
10
16
20
17.7460398
11
16
21
17.7460398
0
LINE
8
0
10
16
20
50.6497815
11
16
21
49.9563469
0
LINE
8
0
10
16
20
49.9563469
11
16
21
48.9229593
0
LINE
8
0
10
16
20
48.9229593
11
14.5560855
21
48.9229593
0
LINE
8
0
10
14.5560855
20
48.9229593
11
2.4
21
48.9229593
0
LINE
8
0
10
2.4
20
48.9229593
11
2.4
21
49.5022871
0
LINE
8
0
10
2.4
20
49.5022871
11
2.4
21
50.0806447
0
LINE
8
0
10
2.4
20
50.0806447
11
2.4
21
50.2701882
0
LINE
8
0
10
2.4
20
50.2701882
11
2.4
21
50.7210548
0
LINE
8
0
10
2.4
20
50.7210548
11
2.4
21
52.2625598
0
LINE
8
0
10
2.4
20
52.2625598
11
2.4
21
55.7660105
0
LINE
8
0
10
2.4
20
55.7660105
11
7.86788301
21
55.7660105
0
LINE
8
0
10
7.86788301
20
55.7660105
11
13
21
55.7660105
0
LINE
8
0
10
13
20
55.7660105
11
13.5687808
21
55.2855085
0
LINE
8
0
10
13.5687808
20
55.2855085
11
14.2709231
21
54.693329
0
LINE
8
0
10
14.2709231
20
54.693329
11
16
21
53.3288067
0
LINE
8
0
10
16
20
53.3288067
11
16
21
50.6497815
0
LINE
8
0
10
16
20
50.6497815
11
16
21
50.6497815
0
LINE
8
0
10
16
20
62.7918825
11
16
21
63.142106
0
LINE
8
0
10
16
20
63.142106
11
16
21
65.1986808
0
LINE
8
0
10
16
20
65.1986808
11
16
21
65.9700446
0
LINE
8
0
10
16
20
65.9700446
11
16
21
66.2936577
0
LINE
8
0
10
16
20
66.2936577
11
16
21
69
0
LINE
8
0
10
16
20
69
11
15.9868007
21
69.1002562
0
LINE
8
0
10
15.9868007
20
69.1002562
11
15.93185
21
69.51764
0
LINE
8
0
10
15.93185
20
69.51764
11
15.8931529
21
69.6110632
0
LINE
8
0
10
15.8931529
20
69.6110632
11
15.73205
21
70
0
LINE
8
0
10
15.73205
20
70
11
15.6704909
21
70.0802239
0
LINE
8
0
10
15.6704909
20
70.0802239
11
15.41421
21
70.41421
0
LINE
8
0
10
15.41421
20
70.41421
11
15.3339861
21
70.4757691
0
LINE
8
0
10
15.3339861
20
70.4757691
11
15
21
70.73205
0
LINE
8
0
10
15
20
70.73205
11
14.9065768
21
70.7707471
0
LINE
8
0
10
14.9065768
20
70.7707471
11
14.51764
21
70.93185
0
LINE
8
0
10
14.51764
20
70.93185
11
14.1002562
21
70.9868007
0
LINE
8
0
10
14.1002562
20
70.9868007
11
14
21
71
0
LINE
8
0
10
14
20
71
11
13.9102268
21
71
0
LINE
8
0
10
13.9102268
20
71
11
5.17204943
21
71
0
LINE
8
0
10
5.17204943
20
71
11
4.4
21
71
0
LINE
8
0
10
4.4
20
71
11
4.30705997
21
70.9877639
0
LINE
8
0
10
4.30705997
20
70.9877639
11
3.882362
21
70.93185
0
LINE
8
0
10
3.882362
20
70.93185
11
3.79575565
21
70.8959766
0
LINE
8
0
10
3.79575565
20
70.8959766
11
3.4
21
70.73205
0
LINE
8
0
10
3.4
20
70.73205
11
3.32562938
21
70.674983
0
LINE
8
0
10
3.32562938
20
70.674983
11
2.985786
21
70.41421
0
LINE
8
0
10
2.985786
20
70.41421
11
2.92871952
21
70.3398401
0
LINE
8
0
10
2.92871952
20
70.3398401
11
2.667949
21
70
0
LINE
8
0
10
2.667949
20
70
11
2.63207545
21
69.913394
0
LINE
8
0
10
2.63207545
20
69.913394
11
2.468148
21
69.51764
0
LINE
8
0
10
2.468148
20
69.51764
11
2.41223573
21
69.0929404
0
LINE
8
0
10
2.41223573
20
69.0929404
11
2.4
21
69
0
LINE
8
0
10
2.4
20
69
11
2.4
21
61.7142569
0
LINE
8
0
10
2.4
20
61.7142569
11
2.4
21
60.3379743
0
LINE
8
0
10
2.4
20
60.3379743
11
7.53211699
21
60.3379743
0
LINE
8
0
10
7.53211699
20
60.3379743
11
13
21
60.3379743
0
LINE
8
0
10
13
20
60.3379743
11
13.7020342
21
60.9366113
0
LINE
8
0
10
13.7020342
20
60.9366113
11
15.3418759
21
62.2738561
0
LINE
8
0
10
15.3418759
20
62.2738561
11
15.7491904
21
62.5952708
0
LINE
8
0
10
15.7491904
20
62.5952708
11
16
21
62.7918825
0
LINE
8
0
10
16
20
62.7918825
11
16
21
62.7918825
0
LINE
8
0
10
16
20
9.08578513
11
16
21
8.41307497
0
LINE
8
0
10
16
20
8.41307497
11
16
21
4.9350815
0
LINE
8
0
10
16
20
4.9350815
11
14.2287825
21
1.69487698
0
LINE
8
0
10
14.2287825
20
1.69487698
11
13.65614
21
0.647303203
0
LINE
8
0
10
13.65614
20
0.647303203
11
8.43443831
21
0.647303203
0
LINE
8
0
10
8.43443831
20
0.647303203
11
2.4
21
0.647303203
0
LINE
8
0
10
2.4
20
0.647303203
11
2.4
21
2.26764702
0
LINE
8
0
10
2.4
20
2.26764702
11
2.4
21
6.38185316
0
LINE
8
0
10
2.4
20
6.38185316
11
2.4
21
9.08578513
0
LINE
8
0
10
2.4
20
9.08578513
11
6.56391453
21
9.08578513
0
LINE
8
0
10
6.56391453
20
9.08578513
11
16
21
9.08578513
0
LINE
8
0
10
16
20
9.08578513
11
16
21
9.08578513
0
LINE
8
0
10
16
20
-14
11
16
21
-8.75331681
0
LINE
8
0
10
16
20
-8.75331681
11
16
21
-8.03668252
0
LINE
8
0
10
16
20
-8.03668252
11
16
21
-7.33982241
0
LINE
8
0
10
16
20
-7.33982241
11
14.4873274
21
-5.38061613
0
LINE
8
0
10
14.4873274
20
-5.38061613
11
14.0547485
21
-4.78705996
0
LINE
8
0
10
14.0547485
20
-4.78705996
11
13.65614
21
-4.23441878
0
LINE
8
0
10
13.65614
20
-4.23441878
11
8.27118355
21
-4.23441878
0
LINE
8
0
10
8.27118355
20
-4.23441878
11
2.4
21
-4.23441878
0
LINE
8
0
10
2.4
20
-4.23441878
11
2.4
21
-4.74290182
0
LINE
8
0
10
2.4
20
-4.74290182
11
2.4
21
-5.35867279
0
LINE
8
0
10
2.4
20
-5.35867279
11
2.4
21
-13.9618968
0
LINE
8
0
10
2.4
20
-13.9618968
11
2.4
21
-14
0
LINE
8
0
10
2.4
20
-14
11
2.4018079
21
-14.0296975
0
LINE
8
0
10
2.4018079
20
-14.0296975
11
2.41280535
21
-14.0972672
0
LINE
8
0
10
2.41280535
20
-14.0972672
11
2.42561072
21
-14.1945344
0
LINE
8
0
10
2.42561072
20
-14.1945344
11
2.44988546
21
-14.4395227
0
LINE
8
0
10
2.44988546
20
-14.4395227
11
2.468148
21
-14.51764
0
LINE
8
0
10
2.468148
20
-14.51764
11
2.52078093
21
-14.6726138
0
LINE
8
0
10
2.52078093
20
-14.6726138
11
2.59586819
21
-14.8538897
0
LINE
8
0
10
2.59586819
20
-14.8538897
11
2.667949
21
-15
0
LINE
8
0
10
2.667949
20
-15
11
2.71195313
21
-15.0706645
0
LINE
8
0
10
2.71195313
20
-15.0706645
11
2.83139953
21
-15.2263289
0
LINE
8
0
10
2.83139953
20
-15.2263289
11
2.985786
21
-15.41421
0
LINE
8
0
10
2.985786
20
-15.41421
11
3.17631181
21
-15.5703636
0
LINE
8
0
10
3.17631181
20
-15.5703636
11
3.33228246
21
-15.6899877
0
LINE
8
0
10
3.33228246
20
-15.6899877
11
3.40030478
21
-15.7322266
0
LINE
8
0
10
3.40030478
20
-15.7322266
11
3.54800805
21
-15.8049697
0
LINE
8
0
10
3.54800805
20
-15.8049697
11
3.72897985
21
-15.87988
0
LINE
8
0
10
3.72897985
20
-15.87988
11
3.882362
21
-15.93185
0
LINE
8
0
10
3.882362
20
-15.93185
11
3.96261408
21
-15.9505382
0
LINE
8
0
10
3.96261408
20
-15.9505382
11
4.06348899
21
-15.9669516
0
LINE
8
0
10
4.06348899
20
-15.9669516
11
4.4
21
-16
0
LINE
8
0
10
4.4
20
-16
11
6.13156456
21
-16
0
LINE
8
0
10
6.13156456
20
-16
11
14
21
-16
0
LINE
8
0
10
14
20
-16
11
14.0607479
21
-15.9948573
0
LINE
8
0
10
14.0607479
20
-15.9948573
11
14.1867349
21
-15.9754154
0
LINE
8
0
10
14.1867349
20
-15.9754154
11
14.51764
21
-15.93185
0
LINE
8
0
10
14.51764
20
-15.93185
11
14.6912042
21
-15.8600297
0
LINE
8
0
10
14.6912042
20
-15.8600297
11
14.9995563
21
-15.7323061
0
LINE
8
0
10
14.9995563
20
-15.7323061
11
15.1494233
21
-15.6173915
0
LINE
8
0
10
15.1494233
20
-15.6173915
11
15.41421
21
-15.41421
0
LINE
8
0
10
15.41421
20
-15.41421
11
15.5288685
21
-15.2647867
0
LINE
8
0
10
15.5288685
20
-15.2647867
11
15.73205
21
-15
0
LINE
8
0
10
15.73205
20
-15
11
15.8041264
21
-14.8259921
0
LINE
8
0
10
15.8041264
20
-14.8259921
11
15.93185
21
-14.51764
0
LINE
8
0
10
15.93185
20
-14.51764
11
15.9426443
21
-14.4611979
0
LINE
8
0
10
15.9426443
20
-14.4611979
11
15.9971056
21
-14.0475318
0
LINE
8
0
10
15.9971056
20
-14.0475318
11
16
21
-14
0
LINE
8
0
10
16
20
-14
11
16
21
-14
0
LINE
8
0
10
16
20
38.4237791
11
16
21
33.3344998
0
LINE
8
0
10
16
20
33.3344998
11
16
21
30.7898587
0
LINE
8
0
10
16
20
30.7898587
11
6.39608547
21
30.7898587
0
LINE
8
0
10
6.39608547
20
30.7898587
11
2.4
21
30.7898587
0
LINE
8
0
10
2.4
20
30.7898587
11
2.4
21
32.1778448
0
LINE
8
0
10
2.4
20
32.1778448
11
2.4
21
33.3344998
0
LINE
8
0
10
2.4
20
33.3344998
11
2.4
21
36.473564
0
LINE
8
0
10
2.4
20
36.473564
11
2.4
21
40.2626998
0
LINE
8
0
10
2.4
20
40.2626998
11
2.4
21
40.6806366
0
LINE
8
0
10
2.4
20
40.6806366
11
2.4
21
41.1821607
0
LINE
8
0
10
2.4
20
41.1821607
11
3.84391453
21
41.1821607
0
LINE
8
0
10
3.84391453
20
41.1821607
11
16
21
41.1821607
0
LINE
8
0
10
16
20
41.1821607
11
16
21
40.2626998
0
LINE
8
0
10
16
20
40.2626998
11
16
21
38.4237791
0
LINE
8
0
10
16
20
38.4237791
11
16
21
38.4237791
0
ENDSEC
0
EOF
