0
SECTION
2
ENTITIES
0
LINE
8
0
10
16
20
-7.38815057
11
16
21
-8.18272138
0
LINE
8
0
10
16
20
-8.18272138
11
16
21
-14
0
LINE
8
0
10
16
20
-14
11
15.9967908
21
-14.0527011
0
LINE
8
0
10
15.9967908
20
-14.0527011
11
15.9438182
21
-14.4550597
0
LINE
8
0
10
15.9438182
20
-14.4550597
11
15.93185
21
-14.51764
0
LINE
8
0
10
15.93185
20
-14.51764
11
15.811965
21
-14.8070681
0
LINE
8
0
10
15.811965
20
-14.8070681
11
15.73205
21
-15
0
LINE
8
0
10
15.73205
20
-15
11
15.541338
21
-15.2485364
0
LINE
8
0
10
15.541338
20
-15.2485364
11
15.41421
21
-15.41421
0
LINE
8
0
10
15.41421
20
-15.41421
11
15.1656736
21
-15.604922
0
LINE
8
0
10
15.1656736
20
-15.604922
11
14.999508
21
-15.732334
0
LINE
8
0
10
14.999508
20
-15.732334
11
14.7100799
21
-15.852219
0
LINE
8
0
10
14.7100799
20
-15.852219
11
14.51764
21
-15.93185
0
LINE
8
0
10
14.51764
20
-15.93185
11
14.207043
21
-15.9727417
0
LINE
8
0
10
14.207043
20
-15.9727417
11
14.0673544
21
-15.9942981
0
LINE
8
0
10
14.0673544
20
-15.9942981
11
14
21
-16
0
LINE
8
0
10
14
20
-16
11
6.31987836
21
-16
0
LINE
8
0
10
6.31987836
20
-16
11
4.4
21
-16
0
LINE
8
0
10
4.4
20
-16
11
4.06920475
21
-15.9675129
0
LINE
8
0
10
4.06920475
20
-15.9675129
11
3.95735933
21
-15.9493146
0
LINE
8
0
10
3.95735933
20
-15.9493146
11
3.882362
21
-15.93185
0
LINE
8
0
10
3.882362
20
-15.93185
11
3.73902301
21
-15.8832829
0
LINE
8
0
10
3.73902301
20
-15.8832829
11
3.53836988
21
-15.8002258
0
LINE
8
0
10
3.53836988
20
-15.8002258
11
3.40033793
21
-15.7322458
0
LINE
8
0
10
3.40033793
20
-15.7322458
11
3.33676957
21
-15.6927726
0
LINE
8
0
10
3.33676957
20
-15.6927726
11
3.16383656
21
-15.5601389
0
LINE
8
0
10
3.16383656
20
-15.5601389
11
2.985786
21
-15.41421
0
LINE
8
0
10
2.985786
20
-15.41421
11
2.84150845
21
-15.238631
0
LINE
8
0
10
2.84150845
20
-15.238631
11
2.70907183
21
-15.0660376
0
LINE
8
0
10
2.70907183
20
-15.0660376
11
2.667949
21
-15
0
LINE
8
0
10
2.667949
20
-15
11
2.6005879
21
-14.8634567
0
LINE
8
0
10
2.6005879
20
-14.8634567
11
2.51733463
21
-14.6624665
0
LINE
8
0
10
2.51733463
20
-14.6624665
11
2.468148
21
-14.51764
0
LINE
8
0
10
2.468148
20
-14.51764
11
2.45108125
21
-14.4446376
0
LINE
8
0
10
2.45108125
20
-14.4446376
11
2.42839597
21
-14.2156907
0
LINE
8
0
10
2.42839597
20
-14.2156907
11
2.41419798
21
-14.1078453
0
LINE
8
0
10
2.41419798
20
-14.1078453
11
2.40200452
21
-14.0329272
0
LINE
8
0
10
2.40200452
20
-14.0329272
11
2.4
21
-14
0
LINE
8
0
10
2.4
20
-14
11
2.4
21
-13.9624902
0
LINE
8
0
10
2.4
20
-13.9624902
11
2.4
21
-4.42363507
0
LINE
8
0
10
2.4
20
-4.42363507
11
2.4
21
-3.9848329
0
LINE
8
0
10
2.4
20
-3.9848329
11
6.14597455
21
-3.9848329
0
LINE
8
0
10
6.14597455
20
-3.9848329
11
13.65614
21
-3.9848329
0
LINE
8
0
10
13.65614
20
-3.9848329
11
13.8468316
21
-4.29395793
0
LINE
8
0
10
13.8468316
20
-4.29395793
11
13.9806761
21
-4.4950472
0
LINE
8
0
10
13.9806761
20
-4.4950472
11
14.6390683
21
-5.40785932
0
LINE
8
0
10
14.6390683
20
-5.40785932
11
15.7057642
21
-6.87150887
0
LINE
8
0
10
15.7057642
20
-6.87150887
11
16
21
-7.25260162
0
LINE
8
0
10
16
20
-7.25260162
11
16
21
-7.38815057
0
LINE
8
0
10
16
20
-7.38815057
11
16
21
-7.38815057
0
LINE
8
0
10
16
20
40.3866006
11
16
21
34.1300594
0
LINE
8
0
10
16
20
34.1300594
11
16
21
29.9942982
0
LINE
8
0
10
16
20
29.9942982
11
8.8947687
21
29.9942982
0
LINE
8
0
10
8.8947687
20
29.9942982
11
2.4
21
29.9942982
0
LINE
8
0
10
2.4
20
29.9942982
11
2.4
21
32.250168
0
LINE
8
0
10
2.4
20
32.250168
11
2.4
21
34.1300594
0
LINE
8
0
10
2.4
20
34.1300594
11
2.4
21
36.6326759
0
LINE
8
0
10
2.4
20
36.6326759
11
2.4
21
40.3866006
0
LINE
8
0
10
2.4
20
40.3866006
11
2.4
21
40.7597446
0
LINE
8
0
10
2.4
20
40.7597446
11
2.4
21
41.0582598
0
LINE
8
0
10
2.4
20
41.0582598
11
14.9452313
21
41.0582598
0
LINE
8
0
10
14.9452313
20
41.0582598
11
16
21
41.0582598
0
LINE
8
0
10
16
20
41.0582598
11
16
21
40.3866006
0
LINE
8
0
10
16
20
40.3866006
11
16
21
40.3866006
0
LINE
8
0
10
16
20
10.9417362
11
16
21
18.5415994
0
LINE
8
0
10
16
20
18.5415994
11
16
21
21.3340406
0
LINE
8
0
10
16
20
21.3340406
11
16
21
25.4698018
0
LINE
8
0
10
16
20
25.4698018
11
9.5052313
21
25.4698018
0
LINE
8
0
10
9.5052313
20
25.4698018
11
2.4
21
25.4698018
0
LINE
8
0
10
2.4
20
25.4698018
11
2.4
21
23.6316857
0
LINE
8
0
10
2.4
20
23.6316857
11
2.4
21
21.3340406
0
LINE
8
0
10
2.4
20
21.3340406
11
2.4
21
19.6585759
0
LINE
8
0
10
2.4
20
19.6585759
11
2.4
21
18.5415994
0
LINE
8
0
10
2.4
20
18.5415994
11
2.4
21
15.0871201
0
LINE
8
0
10
2.4
20
15.0871201
11
2.4
21
10.9417362
0
LINE
8
0
10
2.4
20
10.9417362
11
14.3347687
21
10.9417362
0
LINE
8
0
10
14.3347687
20
10.9417362
11
16
21
10.9417362
0
LINE
8
0
10
16
20
10.9417362
11
16
21
10.9417362
0
LINE
8
0
10
16
20
63.9695939
11
16
21
62.6588898
0
LINE
8
0
10
16
20
62.6588898
11
14.7387886
21
61.6304073
0
LINE
8
0
10
14.7387886
20
61.6304073
11
13.6915567
21
60.7374142
0
LINE
8
0
10
13.6915567
20
60.7374142
11
13.3186524
21
60.4049519
0
LINE
8
0
10
13.3186524
20
60.4049519
11
13
21
60.088609
0
LINE
8
0
10
13
20
60.088609
11
9.5730965
21
60.088609
0
LINE
8
0
10
9.5730965
20
60.088609
11
2.4
21
60.088609
0
LINE
8
0
10
2.4
20
60.088609
11
2.4
21
60.3212335
0
LINE
8
0
10
2.4
20
60.3212335
11
2.4
21
69
0
LINE
8
0
10
2.4
20
69
11
2.41619192
21
69.122991
0
LINE
8
0
10
2.41619192
20
69.122991
11
2.468148
21
69.51764
0
LINE
8
0
10
2.468148
20
69.51764
11
2.6204764
21
69.8853915
0
LINE
8
0
10
2.6204764
20
69.8853915
11
2.667949
21
70
0
LINE
8
0
10
2.667949
20
70
11
2.91026812
21
70.3157939
0
LINE
8
0
10
2.91026812
20
70.3157939
11
2.985786
21
70.41421
0
LINE
8
0
10
2.985786
20
70.41421
11
3.301583
21
70.6565314
0
LINE
8
0
10
3.301583
20
70.6565314
11
3.4
21
70.73205
0
LINE
8
0
10
3.4
20
70.73205
11
3.76775307
21
70.8843776
0
LINE
8
0
10
3.76775307
20
70.8843776
11
3.882362
21
70.93185
0
LINE
8
0
10
3.882362
20
70.93185
11
4.27700952
21
70.9838076
0
LINE
8
0
10
4.27700952
20
70.9838076
11
4.4
21
71
0
LINE
8
0
10
4.4
20
71
11
5.42167747
21
71
0
LINE
8
0
10
5.42167747
20
71
11
13.8812003
21
71
0
LINE
8
0
10
13.8812003
20
71
11
14
21
71
0
LINE
8
0
10
14
20
71
11
14.1326722
21
70.982533
0
LINE
8
0
10
14.1326722
20
70.982533
11
14.51764
21
70.93185
0
LINE
8
0
10
14.51764
20
70.93185
11
14.8763701
21
70.7832592
0
LINE
8
0
10
14.8763701
20
70.7832592
11
15
21
70.73205
0
LINE
8
0
10
15
20
70.73205
11
15.3080471
21
70.4956731
0
LINE
8
0
10
15.3080471
20
70.4956731
11
15.41421
21
70.41421
0
LINE
8
0
10
15.41421
20
70.41421
11
15.6505869
21
70.1061629
0
LINE
8
0
10
15.6505869
20
70.1061629
11
15.73205
21
70
0
LINE
8
0
10
15.73205
20
70
11
15.8806408
21
69.6412699
0
LINE
8
0
10
15.8806408
20
69.6412699
11
15.93185
21
69.51764
0
LINE
8
0
10
15.93185
20
69.51764
11
15.982533
21
69.1326722
0
LINE
8
0
10
15.982533
20
69.1326722
11
16
21
69
0
LINE
8
0
10
16
20
69
11
16
21
65.4186115
0
LINE
8
0
10
16
20
65.4186115
11
16
21
64.990364
0
LINE
8
0
10
16
20
64.990364
11
16
21
63.9695939
0
LINE
8
0
10
16
20
63.9695939
11
16
21
63.9695939
0
LINE
8
0
10
16
20
50.1844043
11
16
21
49.8938465
0
LINE
8
0
10
16
20
49.8938465
11
16
21
49.0468602
0
LINE
8
0
10
16
20
49.0468602
11
3.4547687
21
49.0468602
0
LINE
8
0
10
3.4547687
20
49.0468602
11
2.4
21
49.0468602
0
LINE
8
0
10
2.4
20
49.0468602
11
2.4
21
49.315524
0
LINE
8
0
10
2.4
20
49.315524
11
2.4
21
49.4162729
0
LINE
8
0
10
2.4
20
49.4162729
11
2.4
21
55.8068354
0
LINE
8
0
10
2.4
20
55.8068354
11
2.4
21
56.015371
0
LINE
8
0
10
2.4
20
56.015371
11
5.8269035
21
56.015371
0
LINE
8
0
10
5.8269035
20
56.015371
11
13
21
56.015371
0
LINE
8
0
10
13
20
56.015371
11
13.271419
21
55.7460871
0
LINE
8
0
10
13.271419
20
55.7460871
11
13.4840091
21
55.5473783
0
LINE
8
0
10
13.4840091
20
55.5473783
11
14.4087486
21
54.7661648
0
LINE
8
0
10
14.4087486
20
54.7661648
11
16
21
53.4241198
0
LINE
8
0
10
16
20
53.4241198
11
16
21
50.1844043
0
LINE
8
0
10
16
20
50.1844043
11
16
21
50.1844043
0
LINE
8
0
10
16
20
4.46604286
11
16
21
9.61231454
0
LINE
8
0
10
16
20
9.61231454
11
16
21
9.88134456
0
LINE
8
0
10
16
20
9.88134456
11
4.0652313
21
9.88134456
0
LINE
8
0
10
4.0652313
20
9.88134456
11
2.4
21
9.88134456
0
LINE
8
0
10
2.4
20
9.88134456
11
2.4
21
6.46140916
0
LINE
8
0
10
2.4
20
6.46140916
11
2.4
21
2.57583298
0
LINE
8
0
10
2.4
20
2.57583298
11
2.4
21
0.178263939
0
LINE
8
0
10
2.4
20
0.178263939
11
11.3289584
21
0.178263939
0
LINE
8
0
10
11.3289584
20
0.178263939
11
13.65614
21
0.178263939
0
LINE
8
0
10
13.65614
20
0.178263939
11
14.5034601
21
1.72832414
0
LINE
8
0
10
14.5034601
20
1.72832414
11
16
21
4.46604286
0
LINE
8
0
10
16
20
4.46604286
11
16
21
4.46604286
0
ENDSEC
0
EOF
