0
SECTION
2
ENTITIES
0
LINE
8
0
10
16
20
62.7405069
11
16
21
64.0106834
0
LINE
8
0
10
16
20
64.0106834
11
16
21
64.5435653
0
LINE
8
0
10
16
20
64.5435653
11
16
21
69
0
LINE
8
0
10
16
20
69
11
15.9782653
21
69.1650882
0
LINE
8
0
10
15.9782653
20
69.1650882
11
15.93185
21
69.51764
0
LINE
8
0
10
15.93185
20
69.51764
11
15.8681288
21
69.6714766
0
LINE
8
0
10
15.8681288
20
69.6714766
11
15.73205
21
70
0
LINE
8
0
10
15.73205
20
70
11
15.6306829
21
70.1321018
0
LINE
8
0
10
15.6306829
20
70.1321018
11
15.41421
21
70.41421
0
LINE
8
0
10
15.41421
20
70.41421
11
15.2821082
21
70.5155771
0
LINE
8
0
10
15.2821082
20
70.5155771
11
15
21
70.73205
0
LINE
8
0
10
15
20
70.73205
11
14.8461634
21
70.7957712
0
LINE
8
0
10
14.8461634
20
70.7957712
11
14.51764
21
70.93185
0
LINE
8
0
10
14.51764
20
70.93185
11
14.1650882
21
70.9782653
0
LINE
8
0
10
14.1650882
20
70.9782653
11
14
21
71
0
LINE
8
0
10
14
20
71
11
13.8521738
21
71
0
LINE
8
0
10
13.8521738
20
71
11
5.67130552
21
71
0
LINE
8
0
10
5.67130552
20
71
11
4.4
21
71
0
LINE
8
0
10
4.4
20
71
11
4.24695906
21
70.9798513
0
LINE
8
0
10
4.24695906
20
70.9798513
11
3.882362
21
70.93185
0
LINE
8
0
10
3.882362
20
70.93185
11
3.73975049
21
70.8727786
0
LINE
8
0
10
3.73975049
20
70.8727786
11
3.4
21
70.73205
0
LINE
8
0
10
3.4
20
70.73205
11
3.27753662
21
70.6380798
0
LINE
8
0
10
3.27753662
20
70.6380798
11
2.985786
21
70.41421
0
LINE
8
0
10
2.985786
20
70.41421
11
2.89181671
21
70.2917478
0
LINE
8
0
10
2.89181671
20
70.2917478
11
2.667949
21
70
0
LINE
8
0
10
2.667949
20
70
11
2.60887735
21
69.8573891
0
LINE
8
0
10
2.60887735
20
69.8573891
11
2.468148
21
69.51764
0
LINE
8
0
10
2.468148
20
69.51764
11
2.42014812
21
69.1530415
0
LINE
8
0
10
2.42014812
20
69.1530415
11
2.4
21
69
0
LINE
8
0
10
2.4
20
69
11
2.4
21
60.6071099
0
LINE
8
0
10
2.4
20
60.6071099
11
2.4
21
59.8933288
0
LINE
8
0
10
2.4
20
59.8933288
11
2.4
21
59.6777895
0
LINE
8
0
10
2.4
20
59.6777895
11
10.0935223
21
59.6777895
0
LINE
8
0
10
10.0935223
20
59.6777895
11
13
21
59.6777895
0
LINE
8
0
10
13
20
59.6777895
11
13.1823496
21
59.9119645
0
LINE
8
0
10
13.1823496
20
59.9119645
11
13.3088514
21
60.0427837
0
LINE
8
0
10
13.3088514
20
60.0427837
11
14.1930252
21
60.9205491
0
LINE
8
0
10
14.1930252
20
60.9205491
11
15.5891678
21
62.165278
0
LINE
8
0
10
15.5891678
20
62.165278
11
15.775543
21
62.3242034
0
LINE
8
0
10
15.775543
20
62.3242034
11
16
21
62.5072417
0
LINE
8
0
10
16
20
62.5072417
11
16
21
62.7405069
0
LINE
8
0
10
16
20
62.7405069
11
16
21
62.7405069
0
LINE
8
0
10
16
20
41.8538204
11
16
21
39.591041
0
LINE
8
0
10
16
20
39.591041
11
16
21
34.925619
0
LINE
8
0
10
16
20
34.925619
11
16
21
29.1987376
0
LINE
8
0
10
16
20
29.1987376
11
11.3934519
21
29.1987376
0
LINE
8
0
10
11.3934519
20
29.1987376
11
2.4
21
29.1987376
0
LINE
8
0
10
2.4
20
29.1987376
11
2.4
21
32.3224911
0
LINE
8
0
10
2.4
20
32.3224911
11
2.4
21
34.925619
0
LINE
8
0
10
2.4
20
34.925619
11
2.4
21
36.7917878
0
LINE
8
0
10
2.4
20
36.7917878
11
2.4
21
39.591041
0
LINE
8
0
10
2.4
20
39.591041
11
2.4
21
40.8481406
0
LINE
8
0
10
2.4
20
40.8481406
11
2.4
21
41.8538204
0
LINE
8
0
10
2.4
20
41.8538204
11
12.4465481
21
41.8538204
0
LINE
8
0
10
12.4465481
20
41.8538204
11
16
21
41.8538204
0
LINE
8
0
10
16
20
41.8538204
11
16
21
41.8538204
0
LINE
8
0
10
16
20
52.083617
11
16
21
53.6131963
0
LINE
8
0
10
16
20
53.6131963
11
15.2487164
21
54.2468212
0
LINE
8
0
10
15.2487164
20
54.2468212
11
14.8121155
21
54.6156585
0
LINE
8
0
10
14.8121155
20
54.6156585
11
14.0161845
21
55.3596183
0
LINE
8
0
10
14.0161845
20
55.3596183
11
13.2452805
21
56.1244582
0
LINE
8
0
10
13.2452805
20
56.1244582
11
13.1619375
21
56.2165414
0
LINE
8
0
10
13.1619375
20
56.2165414
11
13
21
56.4261905
0
LINE
8
0
10
13
20
56.4261905
11
5.3064777
21
56.4261905
0
LINE
8
0
10
5.3064777
20
56.4261905
11
2.4
21
56.4261905
0
LINE
8
0
10
2.4
20
56.4261905
11
2.4
21
56.2246632
0
LINE
8
0
10
2.4
20
56.2246632
11
2.4
21
55.5870583
0
LINE
8
0
10
2.4
20
55.5870583
11
2.4
21
49.4958289
0
LINE
8
0
10
2.4
20
49.4958289
11
2.4
21
49.1564118
0
LINE
8
0
10
2.4
20
49.1564118
11
2.4
21
48.2512996
0
LINE
8
0
10
2.4
20
48.2512996
11
5.95345193
21
48.2512996
0
LINE
8
0
10
5.95345193
20
48.2512996
11
16
21
48.2512996
0
LINE
8
0
10
16
20
48.2512996
11
16
21
51.1047454
0
LINE
8
0
10
16
20
51.1047454
11
16
21
52.083617
0
LINE
8
0
10
16
20
52.083617
11
16
21
52.083617
0
LINE
8
0
10
16
20
13.330546
11
16
21
19.337159
0
LINE
8
0
10
16
20
19.337159
11
16
21
20.538481
0
LINE
8
0
10
16
20
20.538481
11
16
21
26.2653624
0
LINE
8
0
10
16
20
26.2653624
11
7.00654807
21
26.2653624
0
LINE
8
0
10
7.00654807
20
26.2653624
11
2.4
21
26.2653624
0
LINE
8
0
10
2.4
20
26.2653624
11
2.4
21
23.7200817
0
LINE
8
0
10
2.4
20
23.7200817
11
2.4
21
20.538481
0
LINE
8
0
10
2.4
20
20.538481
11
2.4
21
19.8176878
0
LINE
8
0
10
2.4
20
19.8176878
11
2.4
21
19.337159
0
LINE
8
0
10
2.4
20
19.337159
11
2.4
21
15.1594441
0
LINE
8
0
10
2.4
20
15.1594441
11
2.4
21
10.6769046
0
LINE
8
0
10
2.4
20
10.6769046
11
2.4
21
10.4646128
0
LINE
8
0
10
2.4
20
10.4646128
11
2.4
21
10.3584672
0
LINE
8
0
10
2.4
20
10.3584672
11
2.4
21
6.54096517
0
LINE
8
0
10
2.4
20
6.54096517
11
2.4
21
2.88401895
0
LINE
8
0
10
2.4
20
2.88401895
11
2.4
21
-0.101846821
0
LINE
8
0
10
2.4
20
-0.101846821
11
2.4
21
-0.318600545
0
LINE
8
0
10
2.4
20
-0.318600545
11
11.0606207
21
-0.318600545
0
LINE
8
0
10
11.0606207
20
-0.318600545
11
13.65614
21
-0.318600545
0
LINE
8
0
10
13.65614
20
-0.318600545
11
13.7317086
21
-0.156981979
0
LINE
8
0
10
13.7317086
20
-0.156981979
11
13.754587
21
-0.110679694
0
LINE
8
0
10
13.754587
20
-0.110679694
11
13.7547434
21
-0.110393731
0
LINE
8
0
10
13.7547434
20
-0.110393731
11
13.7549003
21
-0.110106983
0
LINE
8
0
10
13.7549003
20
-0.110106983
11
13.7550572
21
-0.109819317
0
LINE
8
0
10
13.7550572
20
-0.109819317
11
14.7781377
21
1.76177131
0
LINE
8
0
10
14.7781377
20
1.76177131
11
16
21
3.99700422
0
LINE
8
0
10
16
20
3.99700422
11
16
21
9.81856356
0
LINE
8
0
10
16
20
9.81856356
11
16
21
10.4646128
0
LINE
8
0
10
16
20
10.4646128
11
16
21
10.6769046
0
LINE
8
0
10
16
20
10.6769046
11
16
21
13.330546
0
LINE
8
0
10
16
20
13.330546
11
16
21
13.330546
0
LINE
8
0
10
16
20
-14
11
16
21
-7.61212594
0
LINE
8
0
10
16
20
-7.61212594
11
16
21
-7.09427408
0
LINE
8
0
10
16
20
-7.09427408
11
15.2233882
21
-6.02865867
0
LINE
8
0
10
15.2233882
20
-6.02865867
11
14.8476784
21
-5.50776499
0
LINE
8
0
10
14.8476784
20
-5.50776499
11
14.3562669
21
-4.76946305
0
LINE
8
0
10
14.3562669
20
-4.76946305
11
13.8243988
21
-3.90726616
0
LINE
8
0
10
13.8243988
20
-3.90726616
11
13.770445
21
-3.81355279
0
LINE
8
0
10
13.770445
20
-3.81355279
11
13.65614
21
-3.57380412
0
LINE
8
0
10
13.65614
20
-3.57380412
11
5.64461709
21
-3.57380412
0
LINE
8
0
10
5.64461709
20
-3.57380412
11
2.4
21
-3.57380412
0
LINE
8
0
10
2.4
20
-3.57380412
11
2.4
21
-3.7609258
0
LINE
8
0
10
2.4
20
-3.7609258
11
2.4
21
-3.76299217
0
LINE
8
0
10
2.4
20
-3.76299217
11
2.4
21
-13.9630836
0
LINE
8
0
10
2.4
20
-13.9630836
11
2.4
21
-14
0
LINE
8
0
10
2.4
20
-14
11
2.40220114
21
-14.0361569
0
LINE
8
0
10
2.40220114
20
-14.0361569
11
2.41559061
21
-14.1184235
0
LINE
8
0
10
2.41559061
20
-14.1184235
11
2.43118123
21
-14.236847
0
LINE
8
0
10
2.43118123
20
-14.236847
11
2.45227705
21
-14.4497526
0
LINE
8
0
10
2.45227705
20
-14.4497526
11
2.468148
21
-14.51764
0
LINE
8
0
10
2.468148
20
-14.51764
11
2.51388833
21
-14.6523191
0
LINE
8
0
10
2.51388833
20
-14.6523191
11
2.60530761
21
-14.8730237
0
LINE
8
0
10
2.60530761
20
-14.8730237
11
2.667949
21
-15
0
LINE
8
0
10
2.667949
20
-15
11
2.70619052
21
-15.0614106
0
LINE
8
0
10
2.70619052
20
-15.0614106
11
2.85161737
21
-15.250933
0
LINE
8
0
10
2.85161737
20
-15.250933
11
2.985786
21
-15.41421
0
LINE
8
0
10
2.985786
20
-15.41421
11
3.15136131
21
-15.5499143
0
LINE
8
0
10
3.15136131
20
-15.5499143
11
3.34125668
21
-15.6955576
0
LINE
8
0
10
3.34125668
20
-15.6955576
11
3.40037107
21
-15.732265
0
LINE
8
0
10
3.40037107
20
-15.732265
11
3.52873171
21
-15.795482
0
LINE
8
0
10
3.52873171
20
-15.795482
11
3.74906617
21
-15.8866857
0
LINE
8
0
10
3.74906617
20
-15.8866857
11
3.882362
21
-15.93185
0
LINE
8
0
10
3.882362
20
-15.93185
11
3.95210459
21
-15.9480909
0
LINE
8
0
10
3.95210459
20
-15.9480909
11
4.07492051
21
-15.9680743
0
LINE
8
0
10
4.07492051
20
-15.9680743
11
4.4
21
-16
0
LINE
8
0
10
4.4
20
-16
11
6.50819216
21
-16
0
LINE
8
0
10
6.50819216
20
-16
11
14
21
-16
0
LINE
8
0
10
14
20
-16
11
14.073961
21
-15.9937388
0
LINE
8
0
10
14.073961
20
-15.9937388
11
14.2273511
21
-15.9700681
0
LINE
8
0
10
14.2273511
20
-15.9700681
11
14.51764
21
-15.93185
0
LINE
8
0
10
14.51764
20
-15.93185
11
14.7289556
21
-15.8444083
0
LINE
8
0
10
14.7289556
20
-15.8444083
11
14.9994598
21
-15.7323618
0
LINE
8
0
10
14.9994598
20
-15.7323618
11
15.1819239
21
-15.5924525
0
LINE
8
0
10
15.1819239
20
-15.5924525
11
15.41421
21
-15.41421
0
LINE
8
0
10
15.41421
20
-15.41421
11
15.5538075
21
-15.2322861
0
LINE
8
0
10
15.5538075
20
-15.2322861
11
15.73205
21
-15
0
LINE
8
0
10
15.73205
20
-15
11
15.8198035
21
-14.7881442
0
LINE
8
0
10
15.8198035
20
-14.7881442
11
15.93185
21
-14.51764
0
LINE
8
0
10
15.93185
20
-14.51764
11
15.9449921
21
-14.4489214
0
LINE
8
0
10
15.9449921
20
-14.4489214
11
15.996476
21
-14.0578704
0
LINE
8
0
10
15.996476
20
-14.0578704
11
16
21
-14
0
LINE
8
0
10
16
20
-14
11
16
21
-14
0
ENDSEC
0
EOF
