0
SECTION
2
ENTITIES
0
LINE
8
0
10
16
20
47.0579589
11
16
21
52.9210937
0
LINE
8
0
10
16
20
52.9210937
11
16
21
53.969838
0
LINE
8
0
10
16
20
53.969838
11
15.1333328
21
54.7799152
0
LINE
8
0
10
15.1333328
20
54.7799152
11
14.7965489
21
55.1140499
0
LINE
8
0
10
14.7965489
20
55.1140499
11
14.1861059
21
55.7885107
0
LINE
8
0
10
14.1861059
20
55.7885107
11
13.7414873
21
56.3641269
0
LINE
8
0
10
13.7414873
20
56.3641269
11
13.5585847
21
56.6255498
0
LINE
8
0
10
13.5585847
20
56.6255498
11
13.2379759
21
57.2819414
0
LINE
8
0
10
13.2379759
20
57.2819414
11
13.2006293
21
57.3623638
0
LINE
8
0
10
13.2006293
20
57.3623638
11
13.1871257
21
57.4255138
0
LINE
8
0
10
13.1871257
20
57.4255138
11
13.0844453
21
58.043061
0
LINE
8
0
10
13.0844453
20
58.043061
11
13.0857345
21
58.0709159
0
LINE
8
0
10
13.0857345
20
58.0709159
11
13.1898805
21
58.7000021
0
LINE
8
0
10
13.1898805
20
58.7000021
11
13.2103092
21
58.7668682
0
LINE
8
0
10
13.2103092
20
58.7668682
11
13.5003975
21
59.362805
0
LINE
8
0
10
13.5003975
20
59.362805
11
13.6059889
21
59.5546571
0
LINE
8
0
10
13.6059889
20
59.5546571
11
13.8615709
21
59.886339
0
LINE
8
0
10
13.8615709
20
59.886339
11
14.3356134
21
60.4951084
0
LINE
8
0
10
14.3356134
20
60.4951084
11
15.2621718
21
61.4532893
0
LINE
8
0
10
15.2621718
20
61.4532893
11
15.5045844
21
61.693945
0
LINE
8
0
10
15.5045844
20
61.693945
11
16
21
62.135632
0
LINE
8
0
10
16
20
62.135632
11
16
21
62.5411625
0
LINE
8
0
10
16
20
62.5411625
11
16
21
63.2309959
0
LINE
8
0
10
16
20
63.2309959
11
16
21
69
0
LINE
8
0
10
16
20
69
11
15.9718637
21
69.2137122
0
LINE
8
0
10
15.9718637
20
69.2137122
11
15.93185
21
69.51764
0
LINE
8
0
10
15.93185
20
69.51764
11
15.8493608
21
69.7167866
0
LINE
8
0
10
15.8493608
20
69.7167866
11
15.73205
21
70
0
LINE
8
0
10
15.73205
20
70
11
15.600827
21
70.1710103
0
LINE
8
0
10
15.600827
20
70.1710103
11
15.41421
21
70.41421
0
LINE
8
0
10
15.41421
20
70.41421
11
15.2431997
21
70.545433
0
LINE
8
0
10
15.2431997
20
70.545433
11
15
21
70.73205
0
LINE
8
0
10
15
20
70.73205
11
14.8008534
21
70.8145392
0
LINE
8
0
10
14.8008534
20
70.8145392
11
14.51764
21
70.93185
0
LINE
8
0
10
14.51764
20
70.93185
11
14.2137122
21
70.9718637
0
LINE
8
0
10
14.2137122
20
70.9718637
11
14
21
71
0
LINE
8
0
10
14
20
71
11
13.808634
21
71
0
LINE
8
0
10
13.808634
20
71
11
6.0457476
21
71
0
LINE
8
0
10
6.0457476
20
71
11
4.4
21
71
0
LINE
8
0
10
4.4
20
71
11
4.20188337
21
70.9739168
0
LINE
8
0
10
4.20188337
20
70.9739168
11
3.882362
21
70.93185
0
LINE
8
0
10
3.882362
20
70.93185
11
3.69774663
21
70.8553801
0
LINE
8
0
10
3.69774663
20
70.8553801
11
3.4
21
70.73205
0
LINE
8
0
10
3.4
20
70.73205
11
3.24146705
21
70.6104025
0
LINE
8
0
10
3.24146705
20
70.6104025
11
2.985786
21
70.41421
0
LINE
8
0
10
2.985786
20
70.41421
11
2.86413961
21
70.2556786
0
LINE
8
0
10
2.86413961
20
70.2556786
11
2.667949
21
70
0
LINE
8
0
10
2.667949
20
70
11
2.59147876
21
69.8153854
0
LINE
8
0
10
2.59147876
20
69.8153854
11
2.468148
21
69.51764
0
LINE
8
0
10
2.468148
20
69.51764
11
2.42608242
21
69.1981174
0
LINE
8
0
10
2.42608242
20
69.1981174
11
2.4
21
69
0
LINE
8
0
10
2.4
20
69
11
2.4
21
61.0359245
0
LINE
8
0
10
2.4
20
61.0359245
11
2.4
21
60.3586124
0
LINE
8
0
10
2.4
20
60.3586124
11
2.4
21
59.5963984
0
LINE
8
0
10
2.4
20
59.5963984
11
2.4
21
58.8190732
0
LINE
8
0
10
2.4
20
58.8190732
11
2.4
21
58.5691463
0
LINE
8
0
10
2.4
20
58.5691463
11
2.4
21
57.9997563
0
LINE
8
0
10
2.4
20
57.9997563
11
2.4
21
57.2972099
0
LINE
8
0
10
2.4
20
57.2972099
11
2.4
21
56.5504688
0
LINE
8
0
10
2.4
20
56.5504688
11
2.4
21
55.8479981
0
LINE
8
0
10
2.4
20
55.8479981
11
2.4
21
55.2573927
0
LINE
8
0
10
2.4
20
55.2573927
11
2.4
21
49.6151628
0
LINE
8
0
10
2.4
20
49.6151628
11
2.4
21
48.9177434
0
LINE
8
0
10
2.4
20
48.9177434
11
2.4
21
47.0579589
0
LINE
8
0
10
2.4
20
47.0579589
11
9.70147677
21
47.0579589
0
LINE
8
0
10
9.70147677
20
47.0579589
11
16
21
47.0579589
0
LINE
8
0
10
16
20
47.0579589
11
16
21
47.0579589
0
LINE
8
0
10
16
20
27.4587031
11
16
21
25.2719296
0
LINE
8
0
10
16
20
25.2719296
11
16
21
20.5304991
0
LINE
8
0
10
16
20
20.5304991
11
4.26147677
21
20.5304991
0
LINE
8
0
10
4.26147677
20
20.5304991
11
2.4
21
20.5304991
0
LINE
8
0
10
2.4
20
20.5304991
11
2.4
21
23.8526758
0
LINE
8
0
10
2.4
20
23.8526758
11
2.4
21
27.4587031
0
LINE
8
0
10
2.4
20
27.4587031
11
3.25852323
21
27.4587031
0
LINE
8
0
10
3.25852323
20
27.4587031
11
16
21
27.4587031
0
LINE
8
0
10
16
20
27.4587031
11
16
21
27.4587031
0
LINE
8
0
10
16
20
38.3977015
11
16
21
43.0471611
0
LINE
8
0
10
16
20
43.0471611
11
8.69852323
21
43.0471611
0
LINE
8
0
10
8.69852323
20
43.0471611
11
2.4
21
43.0471611
0
LINE
8
0
10
2.4
20
43.0471611
11
2.4
21
40.9807347
0
LINE
8
0
10
2.4
20
40.9807347
11
2.4
21
38.3977015
0
LINE
8
0
10
2.4
20
38.3977015
11
2.4
21
37.0304557
0
LINE
8
0
10
2.4
20
37.0304557
11
2.4
21
36.1189585
0
LINE
8
0
10
2.4
20
36.1189585
11
2.4
21
32.4309759
0
LINE
8
0
10
2.4
20
32.4309759
11
2.4
21
28.0053969
0
LINE
8
0
10
2.4
20
28.0053969
11
15.1414768
21
28.0053969
0
LINE
8
0
10
15.1414768
20
28.0053969
11
16
21
28.0053969
0
LINE
8
0
10
16
20
28.0053969
11
16
21
36.1189585
0
LINE
8
0
10
16
20
36.1189585
11
16
21
38.3977015
0
LINE
8
0
10
16
20
38.3977015
11
16
21
38.3977015
0
LINE
8
0
10
16
20
-6.80421145
11
16
21
-6.89063077
0
LINE
8
0
10
16
20
-6.89063077
11
16
21
-14
0
LINE
8
0
10
16
20
-14
11
15.9960039
21
-14.0656242
0
LINE
8
0
10
15.9960039
20
-14.0656242
11
15.946753
21
-14.439714
0
LINE
8
0
10
15.946753
20
-14.439714
11
15.93185
21
-14.51764
0
LINE
8
0
10
15.93185
20
-14.51764
11
15.8315614
21
-14.7597582
0
LINE
8
0
10
15.8315614
20
-14.7597582
11
15.73205
21
-15
0
LINE
8
0
10
15.73205
20
-15
11
15.5725118
21
-15.2079106
0
LINE
8
0
10
15.5725118
20
-15.2079106
11
15.41421
21
-15.41421
0
LINE
8
0
10
15.41421
20
-15.41421
11
15.2062994
21
-15.5737482
0
LINE
8
0
10
15.2062994
20
-15.5737482
11
14.9993874
21
-15.7324036
0
LINE
8
0
10
14.9993874
20
-15.7324036
11
14.7572692
21
-15.8326922
0
LINE
8
0
10
14.7572692
20
-15.8326922
11
14.51764
21
-15.93185
0
LINE
8
0
10
14.51764
20
-15.93185
11
14.2578132
21
-15.9660576
0
LINE
8
0
10
14.2578132
20
-15.9660576
11
14.0838708
21
-15.9928999
0
LINE
8
0
10
14.0838708
20
-15.9928999
11
14
21
-16
0
LINE
8
0
10
14
20
-16
11
6.79066285
21
-16
0
LINE
8
0
10
6.79066285
20
-16
11
4.4
21
-16
0
LINE
8
0
10
4.4
20
-16
11
4.08349415
21
-15.9689163
0
LINE
8
0
10
4.08349415
20
-15.9689163
11
3.94422247
21
-15.9462554
0
LINE
8
0
10
3.94422247
20
-15.9462554
11
3.882362
21
-15.93185
0
LINE
8
0
10
3.882362
20
-15.93185
11
3.7641309
21
-15.8917901
0
LINE
8
0
10
3.7641309
20
-15.8917901
11
3.51427446
21
-15.7883662
0
LINE
8
0
10
3.51427446
20
-15.7883662
11
3.40042079
21
-15.7322939
0
LINE
8
0
10
3.40042079
20
-15.7322939
11
3.34798735
21
-15.699735
0
LINE
8
0
10
3.34798735
20
-15.699735
11
3.13264843
21
-15.5345774
0
LINE
8
0
10
3.13264843
20
-15.5345774
11
2.985786
21
-15.41421
0
LINE
8
0
10
2.985786
20
-15.41421
11
2.86678074
21
-15.2693862
0
LINE
8
0
10
2.86678074
20
-15.2693862
11
2.70186857
21
-15.0544701
0
LINE
8
0
10
2.70186857
20
-15.0544701
11
2.667949
21
-15
0
LINE
8
0
10
2.667949
20
-15
11
2.61238717
21
-14.8873742
0
LINE
8
0
10
2.61238717
20
-14.8873742
11
2.50871888
21
-14.637098
0
LINE
8
0
10
2.50871888
20
-14.637098
11
2.468148
21
-14.51764
0
LINE
8
0
10
2.468148
20
-14.51764
11
2.45407074
21
-14.457425
0
LINE
8
0
10
2.45407074
20
-14.457425
11
2.43535911
21
-14.2685815
0
LINE
8
0
10
2.43535911
20
-14.2685815
11
2.41767955
21
-14.1342907
0
LINE
8
0
10
2.41767955
20
-14.1342907
11
2.40249606
21
-14.0410015
0
LINE
8
0
10
2.40249606
20
-14.0410015
11
2.4
21
-14
0
LINE
8
0
10
2.4
20
-14
11
2.4
21
-13.9639738
0
LINE
8
0
10
2.4
20
-13.9639738
11
2.4
21
-4.00983702
0
LINE
8
0
10
2.4
20
-4.00983702
11
2.4
21
-3.99534957
0
LINE
8
0
10
2.4
20
-3.99534957
11
2.4
21
-3.3554909
0
LINE
8
0
10
2.4
20
-3.3554909
11
2.4
21
-3.06366933
0
LINE
8
0
10
2.4
20
-3.06366933
11
2.4
21
-2.55817268
0
LINE
8
0
10
2.4
20
-2.55817268
11
2.4
21
-1.94591925
0
LINE
8
0
10
2.4
20
-1.94591925
11
2.4
21
-1.28202769
0
LINE
8
0
10
2.4
20
-1.28202769
11
2.4
21
-1.12571043
0
LINE
8
0
10
2.4
20
-1.12571043
11
2.4
21
-0.247727962
0
LINE
8
0
10
2.4
20
-0.247727962
11
2.4
21
0.640443777
0
LINE
8
0
10
2.4
20
0.640443777
11
2.4
21
3.34629789
0
LINE
8
0
10
2.4
20
3.34629789
11
2.4
21
6.66029918
0
LINE
8
0
10
2.4
20
6.66029918
11
2.4
21
10.1197995
0
LINE
8
0
10
2.4
20
10.1197995
11
2.4
21
10.7032807
0
LINE
8
0
10
2.4
20
10.7032807
11
2.4
21
11.8702463
0
LINE
8
0
10
2.4
20
11.8702463
11
2.4
21
15.2679302
0
LINE
8
0
10
2.4
20
15.2679302
11
2.4
21
19.3451422
0
LINE
8
0
10
2.4
20
19.3451422
11
14.1385232
21
19.3451422
0
LINE
8
0
10
14.1385232
20
19.3451422
11
16
21
19.3451422
0
LINE
8
0
10
16
20
19.3451422
11
16
21
11.8702463
0
LINE
8
0
10
16
20
11.8702463
11
16
21
10.7032807
0
LINE
8
0
10
16
20
10.7032807
11
16
21
7.15195451
0
LINE
8
0
10
16
20
7.15195451
11
16
21
3.29344625
0
LINE
8
0
10
16
20
3.29344625
11
15.1901541
21
1.81194205
0
LINE
8
0
10
15.1901541
20
1.81194205
11
14.5120601
21
0.571458622
0
LINE
8
0
10
14.5120601
20
0.571458622
11
14.5107021
21
0.568969479
0
LINE
8
0
10
14.5107021
20
0.568969479
11
14.5093444
21
0.566488285
0
LINE
8
0
10
14.5093444
20
0.566488285
11
14.507991
21
0.564013873
0
LINE
8
0
10
14.507991
20
0.564013873
11
14.3100269
21
0.163365191
0
LINE
8
0
10
14.3100269
20
0.163365191
11
14.0353221
21
-0.424146027
0
LINE
8
0
10
14.0353221
20
-0.424146027
11
13.9712758
21
-0.595851499
0
LINE
8
0
10
13.9712758
20
-0.595851499
11
13.7847126
21
-1.23767537
0
LINE
8
0
10
13.7847126
20
-1.23767537
11
13.7712223
21
-1.2946353
0
LINE
8
0
10
13.7712223
20
-1.2946353
11
13.7092933
21
-1.93881841
0
LINE
8
0
10
13.7092933
20
-1.93881841
11
13.7071402
21
-1.96216603
0
LINE
8
0
10
13.7071402
20
-1.96216603
11
13.708388
21
-1.98500372
0
LINE
8
0
10
13.708388
20
-1.98500372
11
13.775964
21
-2.62101797
0
LINE
8
0
10
13.775964
20
-2.62101797
11
13.7873715
21
-2.67795908
0
LINE
8
0
10
13.7873715
20
-2.67795908
11
13.9727438
21
-3.29331703
0
LINE
8
0
10
13.9727438
20
-3.29331703
11
14.0275508
21
-3.45549186
0
LINE
8
0
10
14.0275508
20
-3.45549186
11
14.1434373
21
-3.70551011
0
LINE
8
0
10
14.1434373
20
-3.70551011
11
14.4575381
21
-4.36432017
0
LINE
8
0
10
14.4575381
20
-4.36432017
11
14.8358111
21
-5.02134939
0
LINE
8
0
10
14.8358111
20
-5.02134939
11
15.1204197
21
-5.48272075
0
LINE
8
0
10
15.1204197
20
-5.48272075
11
16
21
-6.80421145
0
LINE
8
0
10
16
20
-6.80421145
11
16
21
-6.80421145
0
ENDSEC
0
EOF
