0
SECTION
2
ENTITIES
0
LINE
8
0
10
15.992372
20
-1.43616851
11
15.9936932
21
-1.262199
0
LINE
8
0
10
15.9936932
20
-1.262199
11
15.9936932
21
-0.202361066
0
LINE
8
0
10
15.9936932
20
-0.202361066
11
15.9936932
21
0.85747696
0
LINE
8
0
10
15.9936932
20
0.85747696
11
15.9936932
21
1.91731499
0
LINE
8
0
10
15.9936932
20
1.91731499
11
15.9936932
21
53.8803239
0
LINE
8
0
10
15.9936932
20
53.8803239
11
15.9936932
21
54.940162
0
LINE
8
0
10
15.9936932
20
54.940162
11
15.9936932
21
56
0
LINE
8
0
10
15.9936932
20
56
11
15.9924541
21
56.1675811
0
LINE
8
0
10
15.9924541
20
56.1675811
11
15.9815633
21
57.552512
0
LINE
8
0
10
15.9815633
20
57.552512
11
15.9644464
21
58.3187328
0
LINE
8
0
10
15.9644464
20
58.3187328
11
15.9478706
21
59.032206
0
LINE
8
0
10
15.9478706
20
59.032206
11
15.93185
21
59.462031
0
LINE
8
0
10
15.93185
20
59.462031
11
15.8670026
21
60.0266592
0
LINE
8
0
10
15.8670026
20
60.0266592
11
15.8051007
21
60.5656596
0
LINE
8
0
10
15.8051007
20
60.5656596
11
15.7641728
21
60.8234589
0
LINE
8
0
10
15.7641728
20
60.8234589
11
15.73205
21
61.0257886
0
LINE
8
0
10
15.73205
20
61.0257886
11
15.592854
21
61.499061
0
LINE
8
0
10
15.592854
20
61.499061
11
15.41421
21
62.1064764
0
LINE
8
0
10
15.41421
20
62.1064764
11
15.3866388
21
62.1616735
0
LINE
8
0
10
15.3866388
20
62.1616735
11
15.3257677
21
62.2835366
0
LINE
8
0
10
15.3257677
20
62.2835366
11
15.087326
21
62.661186
0
LINE
8
0
10
15.087326
20
62.661186
11
15
21
62.7994939
0
LINE
8
0
10
15
20
62.7994939
11
14.7172672
21
63.0412143
0
LINE
8
0
10
14.7172672
20
63.0412143
11
14.51764
21
63.2118916
0
LINE
8
0
10
14.51764
20
63.2118916
11
14.2772008
21
63.2772292
0
LINE
8
0
10
14.2772008
20
63.2772292
11
14
21
63.3525538
0
LINE
8
0
10
14
20
63.3525538
11
9.90544106
21
63.3525538
0
LINE
8
0
10
9.90544106
20
63.3525538
11
4.4
21
63.3525538
0
LINE
8
0
10
4.4
20
63.3525538
11
4.16119874
21
63.2876612
0
LINE
8
0
10
4.16119874
20
63.2876612
11
3.882362
21
63.2118916
0
LINE
8
0
10
3.882362
20
63.2118916
11
3.57244868
21
62.9469324
0
LINE
8
0
10
3.57244868
20
62.9469324
11
3.4
21
62.7994939
0
LINE
8
0
10
3.4
20
62.7994939
11
3.07422918
21
62.2835366
0
LINE
8
0
10
3.07422918
20
62.2835366
11
2.985786
21
62.1064764
0
LINE
8
0
10
2.985786
20
62.1064764
11
2.90040426
21
61.8161686
0
LINE
8
0
10
2.90040426
20
61.8161686
11
2.667949
21
61.0257886
0
LINE
8
0
10
2.667949
20
61.0257886
11
2.59489798
21
60.5656596
0
LINE
8
0
10
2.59489798
20
60.5656596
11
2.468148
21
59.462031
0
LINE
8
0
10
2.468148
20
59.462031
11
2.4521279
21
59.032206
0
LINE
8
0
10
2.4521279
20
59.032206
11
2.43555251
21
58.3187328
0
LINE
8
0
10
2.43555251
20
58.3187328
11
2.41843618
21
57.552512
0
LINE
8
0
10
2.41843618
20
57.552512
11
2.40754563
21
56.1675811
0
LINE
8
0
10
2.40754563
20
56.1675811
11
2.40630659
21
56
0
LINE
8
0
10
2.40630659
20
56
11
2.40630659
21
54.940162
0
LINE
8
0
10
2.40630659
20
54.940162
11
2.40630659
21
53.8803239
0
LINE
8
0
10
2.40630659
20
53.8803239
11
2.40630659
21
52.8204859
0
LINE
8
0
10
2.40630659
20
52.8204859
11
2.40630659
21
0.85747696
0
LINE
8
0
10
2.40630659
20
0.85747696
11
2.40630659
21
-0.202361066
0
LINE
8
0
10
2.40630659
20
-0.202361066
11
2.40630659
21
-1.262199
0
LINE
8
0
10
2.40630659
20
-1.262199
11
2.40762779
21
-1.43616851
0
LINE
8
0
10
2.40762779
20
-1.43616851
11
2.41893005
21
-2.84627447
0
LINE
8
0
10
2.41893005
20
-2.84627447
11
2.43853971
21
-3.70172874
0
LINE
8
0
10
2.43853971
20
-3.70172874
11
2.45427954
21
-4.36620997
0
LINE
8
0
10
2.45427954
20
-4.36620997
11
2.468148
21
-4.72912008
0
LINE
8
0
10
2.468148
20
-4.72912008
11
2.54045437
21
-5.34250687
0
LINE
8
0
10
2.54045437
20
-5.34250687
11
2.61344585
21
-5.96169157
0
LINE
8
0
10
2.61344585
20
-5.96169157
11
2.64472095
21
-6.15374842
0
LINE
8
0
10
2.64472095
20
-6.15374842
11
2.667949
21
-6.29639098
0
LINE
8
0
10
2.667949
20
-6.29639098
11
2.82617396
21
-6.8209063
0
LINE
8
0
10
2.82617396
20
-6.8209063
11
2.985786
21
-7.3500273
0
LINE
8
0
10
2.985786
20
-7.3500273
11
3.0459421
21
-7.46744125
0
LINE
8
0
10
3.0459421
20
-7.46744125
11
3.18667052
21
-7.74211425
0
LINE
8
0
10
3.18667052
20
-7.74211425
11
3.34516658
21
-7.98708282
0
LINE
8
0
10
3.34516658
20
-7.98708282
11
3.4
21
-8.07183321
0
LINE
8
0
10
3.4
20
-8.07183321
11
3.72839007
21
-8.34582466
0
LINE
8
0
10
3.72839007
20
-8.34582466
11
3.882362
21
-8.47428787
0
LINE
8
0
10
3.882362
20
-8.47428787
11
4.18091314
21
-8.55345286
0
LINE
8
0
10
4.18091314
20
-8.55345286
11
4.4
21
-8.61155483
0
LINE
8
0
10
4.4
20
-8.61155483
11
9.66566824
21
-8.61155483
0
LINE
8
0
10
9.66566824
20
-8.61155483
11
14
21
-8.61155483
0
LINE
8
0
10
14
20
-8.61155483
11
14.3057199
21
-8.5304885
0
LINE
8
0
10
14.3057199
20
-8.5304885
11
14.51764
21
-8.47428787
0
LINE
8
0
10
14.51764
20
-8.47428787
11
14.8949867
21
-8.1594495
0
LINE
8
0
10
14.8949867
20
-8.1594495
11
15
21
-8.07183321
0
LINE
8
0
10
15
20
-8.07183321
11
15.2133274
21
-7.74211425
0
LINE
8
0
10
15.2133274
20
-7.74211425
11
15.41421
21
-7.3500273
0
LINE
8
0
10
15.41421
20
-7.3500273
11
15.581783
21
-6.79452541
0
LINE
8
0
10
15.581783
20
-6.79452541
11
15.73205
21
-6.29639098
0
LINE
8
0
10
15.73205
20
-6.29639098
11
15.7865529
21
-5.96169157
0
LINE
8
0
10
15.7865529
20
-5.96169157
11
15.93185
21
-4.72912008
0
LINE
8
0
10
15.93185
20
-4.72912008
11
15.9457189
21
-4.36620997
0
LINE
8
0
10
15.9457189
20
-4.36620997
11
15.9614592
21
-3.70172874
0
LINE
8
0
10
15.9614592
20
-3.70172874
11
15.9810694
21
-2.84627447
0
LINE
8
0
10
15.9810694
20
-2.84627447
11
15.992372
21
-1.43616851
0
LINE
8
0
10
15.992372
20
-1.43616851
11
15.992372
21
-1.43616851
0
ENDSEC
0
EOF
