0
SECTION
2
ENTITIES
0
LINE
8
0
10
3.50463629
20
-15.7836223
11
3.77417406
21
-15.895193
0
LINE
8
0
10
3.77417406
20
-15.895193
11
3.882362
21
-15.93185
0
LINE
8
0
10
3.882362
20
-15.93185
11
3.93896772
21
-15.9450317
0
LINE
8
0
10
3.93896772
20
-15.9450317
11
4.08920991
21
-15.9694776
0
LINE
8
0
10
4.08920991
20
-15.9694776
11
4.4
21
-16
0
LINE
8
0
10
4.4
20
-16
11
6.97897665
21
-16
0
LINE
8
0
10
6.97897665
20
-16
11
14
21
-16
0
LINE
8
0
10
14
20
-16
11
14.0904774
21
-15.9923406
0
LINE
8
0
10
14.0904774
20
-15.9923406
11
14.2781213
21
-15.9633839
0
LINE
8
0
10
14.2781213
20
-15.9633839
11
14.51764
21
-15.93185
0
LINE
8
0
10
14.51764
20
-15.93185
11
14.7761449
21
-15.8248815
0
LINE
8
0
10
14.7761449
20
-15.8248815
11
14.9993391
21
-15.7324315
0
LINE
8
0
10
14.9993391
20
-15.7324315
11
15.2225497
21
-15.5612787
0
LINE
8
0
10
15.2225497
20
-15.5612787
11
15.41421
21
-15.41421
0
LINE
8
0
10
15.41421
20
-15.41421
11
15.5849813
21
-15.1916603
0
LINE
8
0
10
15.5849813
20
-15.1916603
11
15.73205
21
-15
0
LINE
8
0
10
15.73205
20
-15
11
15.8393999
21
-14.7408342
0
LINE
8
0
10
15.8393999
20
-14.7408342
11
15.93185
21
-14.51764
0
LINE
8
0
10
15.93185
20
-14.51764
11
15.9479269
21
-14.4335757
0
LINE
8
0
10
15.9479269
20
-14.4335757
11
15.9956891
21
-14.0707935
0
LINE
8
0
10
15.9956891
20
-14.0707935
11
16
21
-14
0
LINE
8
0
10
16
20
-14
11
16
21
-7.10638828
0
LINE
8
0
10
16
20
-7.10638828
11
16
21
-6.51433569
0
LINE
8
0
10
16
20
-6.51433569
11
15.629855
21
-5.95822588
0
LINE
8
0
10
15.629855
20
-5.95822588
11
15.5100859
21
-5.76407155
0
LINE
8
0
10
15.5100859
20
-5.76407155
11
14.9156002
21
-4.73149842
0
LINE
8
0
10
14.9156002
20
-4.73149842
11
14.6947773
21
-4.26833399
0
LINE
8
0
10
14.6947773
20
-4.26833399
11
14.447774
21
-3.73543895
0
LINE
8
0
10
14.447774
20
-3.73543895
11
14.3309571
21
-3.38977554
0
LINE
8
0
10
14.3309571
20
-3.38977554
11
14.1783398
21
-2.88315046
0
LINE
8
0
10
14.1783398
20
-2.88315046
11
14.1329467
21
-2.65656896
0
LINE
8
0
10
14.1329467
20
-2.65656896
11
14.0762174
21
-2.12264213
0
LINE
8
0
10
14.0762174
20
-2.12264213
11
14.066185
21
-1.93902556
0
LINE
8
0
10
14.066185
20
-1.93902556
11
14.0834962
21
-1.75130913
0
LINE
8
0
10
14.0834962
20
-1.75130913
11
14.1353087
21
-1.21235781
0
LINE
8
0
10
14.1353087
20
-1.21235781
11
14.1914781
21
-0.975193525
0
LINE
8
0
10
14.1914781
20
-0.975193525
11
14.3437851
21
-0.451219751
0
LINE
8
0
10
14.3437851
20
-0.451219751
11
14.483538
21
-0.0765481541
0
LINE
8
0
10
14.483538
20
-0.0765481541
11
14.6955724
21
0.37692997
0
LINE
8
0
10
14.6955724
20
0.37692997
11
15.0102604
21
1.01380958
0
LINE
8
0
10
15.0102604
20
1.01380958
11
15.0124118
21
1.01774296
0
LINE
8
0
10
15.0124118
20
1.01774296
11
15.01457
21
1.02168712
0
LINE
8
0
10
15.01457
20
1.02168712
11
15.0167287
21
1.02564392
0
LINE
8
0
10
15.0167287
20
1.02564392
11
15.4648318
21
1.84538921
0
LINE
8
0
10
15.4648318
20
1.84538921
11
16
21
2.82440761
0
LINE
8
0
10
16
20
2.82440761
11
16
21
5.37421515
0
LINE
8
0
10
16
20
5.37421515
11
16
21
10.8623926
0
LINE
8
0
10
16
20
10.8623926
11
16
21
12.6658074
0
LINE
8
0
10
16
20
12.6658074
11
16
21
18.5495835
0
LINE
8
0
10
16
20
18.5495835
11
11.63984
21
18.5495835
0
LINE
8
0
10
11.63984
20
18.5495835
11
2.4
21
18.5495835
0
LINE
8
0
10
2.4
20
18.5495835
11
2.4
21
15.3402542
0
LINE
8
0
10
2.4
20
15.3402542
11
2.4
21
12.6658074
0
LINE
8
0
10
2.4
20
12.6658074
11
2.4
21
10.8623926
0
LINE
8
0
10
2.4
20
10.8623926
11
2.4
21
9.96068773
0
LINE
8
0
10
2.4
20
9.96068773
11
2.4
21
6.73985519
0
LINE
8
0
10
2.4
20
6.73985519
11
2.4
21
3.65448386
0
LINE
8
0
10
2.4
20
3.65448386
11
2.4
21
1.13530418
0
LINE
8
0
10
2.4
20
1.13530418
11
2.4
21
0.308406603
0
LINE
8
0
10
2.4
20
0.308406603
11
2.4
21
-0.50900465
0
LINE
8
0
10
2.4
20
-0.50900465
11
2.4
21
-1.15986346
0
LINE
8
0
10
2.4
20
-1.15986346
11
2.4
21
-1.80840035
0
LINE
8
0
10
2.4
20
-1.80840035
11
2.4
21
-2.4064934
0
LINE
8
0
10
2.4
20
-2.4064934
11
2.4
21
-2.90029878
0
LINE
8
0
10
2.4
20
-2.90029878
11
2.4
21
-3.52229445
0
LINE
8
0
10
2.4
20
-3.52229445
11
2.4
21
-4.15163209
0
LINE
8
0
10
2.4
20
-4.15163209
11
2.4
21
-4.17440025
0
LINE
8
0
10
2.4
20
-4.17440025
11
2.4
21
-13.9645673
0
LINE
8
0
10
2.4
20
-13.9645673
11
2.4
21
-14
0
LINE
8
0
10
2.4
20
-14
11
2.40269268
21
-14.0442312
0
LINE
8
0
10
2.40269268
20
-14.0442312
11
2.41907218
21
-14.1448688
0
LINE
8
0
10
2.41907218
20
-14.1448688
11
2.43814437
21
-14.2897378
0
LINE
8
0
10
2.43814437
20
-14.2897378
11
2.45526653
21
-14.46254
0
LINE
8
0
10
2.45526653
20
-14.46254
11
2.468148
21
-14.51764
0
LINE
8
0
10
2.468148
20
-14.51764
11
2.50527258
21
-14.6269506
0
LINE
8
0
10
2.50527258
20
-14.6269506
11
2.61710688
21
-14.8969412
0
LINE
8
0
10
2.61710688
20
-14.8969412
11
2.667949
21
-15
0
LINE
8
0
10
2.667949
20
-15
11
2.69898727
21
-15.0498431
0
LINE
8
0
10
2.69898727
20
-15.0498431
11
2.87688966
21
-15.2816882
0
LINE
8
0
10
2.87688966
20
-15.2816882
11
2.985786
21
-15.41421
0
LINE
8
0
10
2.985786
20
-15.41421
11
3.12017318
21
-15.5243527
0
LINE
8
0
10
3.12017318
20
-15.5243527
11
3.35247446
21
-15.7025199
0
LINE
8
0
10
3.35247446
20
-15.7025199
11
3.40045394
21
-15.7323131
0
LINE
8
0
10
3.40045394
20
-15.7323131
11
3.50463629
21
-15.7836223
0
LINE
8
0
10
3.50463629
20
-15.7836223
11
3.50463629
21
-15.7836223
0
LINE
8
0
10
16
20
43.8427217
11
16
21
37.6021419
0
LINE
8
0
10
16
20
37.6021419
11
16
21
36.9145181
0
LINE
8
0
10
16
20
36.9145181
11
16
21
33.4763968
0
LINE
8
0
10
16
20
33.4763968
11
16
21
28.2542631
0
LINE
8
0
10
16
20
28.2542631
11
16
21
27.2098369
0
LINE
8
0
10
16
20
27.2098369
11
16
21
21.3260597
0
LINE
8
0
10
16
20
21.3260597
11
6.76016
21
21.3260597
0
LINE
8
0
10
6.76016
20
21.3260597
11
2.4
21
21.3260597
0
LINE
8
0
10
2.4
20
21.3260597
11
2.4
21
23.9410718
0
LINE
8
0
10
2.4
20
23.9410718
11
2.4
21
27.2098369
0
LINE
8
0
10
2.4
20
27.2098369
11
2.4
21
27.8364926
0
LINE
8
0
10
2.4
20
27.8364926
11
2.4
21
28.2542631
0
LINE
8
0
10
2.4
20
28.2542631
11
2.4
21
32.5032991
0
LINE
8
0
10
2.4
20
32.5032991
11
2.4
21
36.9145181
0
LINE
8
0
10
2.4
20
36.9145181
11
2.4
21
37.1895676
0
LINE
8
0
10
2.4
20
37.1895676
11
2.4
21
37.6021419
0
LINE
8
0
10
2.4
20
37.6021419
11
2.4
21
41.0691307
0
LINE
8
0
10
2.4
20
41.0691307
11
2.4
21
43.8427217
0
LINE
8
0
10
2.4
20
43.8427217
11
6.19984
21
43.8427217
0
LINE
8
0
10
6.19984
20
43.8427217
11
16
21
43.8427217
0
LINE
8
0
10
16
20
43.8427217
11
16
21
43.8427217
0
LINE
8
0
10
16
20
69
11
16
21
62.3559497
0
LINE
8
0
10
16
20
62.3559497
11
16
21
61.8099792
0
LINE
8
0
10
16
20
61.8099792
11
15.1044559
21
60.8838711
0
LINE
8
0
10
15.1044559
20
60.8838711
11
14.8493914
21
60.556315
0
LINE
8
0
10
14.8493914
20
60.556315
11
14.300776
21
59.8443485
0
LINE
8
0
10
14.300776
20
59.8443485
11
14.0741203
21
59.4325314
0
LINE
8
0
10
14.0741203
20
59.4325314
11
13.8506148
21
58.9733774
0
LINE
8
0
10
13.8506148
20
58.9733774
11
13.7679889
21
58.7029311
0
LINE
8
0
10
13.7679889
20
58.7029311
11
13.6852683
21
58.203263
0
LINE
8
0
10
13.6852683
20
58.203263
11
13.6749634
21
57.9806216
0
LINE
8
0
10
13.6749634
20
57.9806216
11
13.7568468
21
57.4881528
0
LINE
8
0
10
13.7568468
20
57.4881528
11
13.8114635
21
57.2327366
0
LINE
8
0
10
13.8114635
20
57.2327366
11
13.9625151
21
56.9074609
0
LINE
8
0
10
13.9625151
20
56.9074609
11
14.1990212
21
56.4232552
0
LINE
8
0
10
14.1990212
20
56.4232552
11
14.5916278
21
55.8621019
0
LINE
8
0
10
14.5916278
20
55.8621019
11
14.8688849
21
55.5031569
0
LINE
8
0
10
14.8688849
20
55.5031569
11
15.8307278
21
54.4404443
0
LINE
8
0
10
15.8307278
20
54.4404443
11
15.8780983
21
54.3934464
0
LINE
8
0
10
15.8780983
20
54.3934464
11
16
21
54.2795044
0
LINE
8
0
10
16
20
54.2795044
11
16
21
54.1319926
0
LINE
8
0
10
16
20
54.1319926
11
16
21
46.2623983
0
LINE
8
0
10
16
20
46.2623983
11
12.20016
21
46.2623983
0
LINE
8
0
10
12.20016
20
46.2623983
11
2.4
21
46.2623983
0
LINE
8
0
10
2.4
20
46.2623983
11
2.4
21
48.7586312
0
LINE
8
0
10
2.4
20
48.7586312
11
2.4
21
49.6947188
0
LINE
8
0
10
2.4
20
49.6947188
11
2.4
21
55.0376156
0
LINE
8
0
10
2.4
20
55.0376156
11
2.4
21
55.596888
0
LINE
8
0
10
2.4
20
55.596888
11
2.4
21
56.262091
0
LINE
8
0
10
2.4
20
56.262091
11
2.4
21
56.9692159
0
LINE
8
0
10
2.4
20
56.9692159
11
2.4
21
57.6344906
0
LINE
8
0
10
2.4
20
57.6344906
11
2.4
21
58.1736732
0
LINE
8
0
10
2.4
20
58.1736732
11
2.4
21
59.1845251
0
LINE
8
0
10
2.4
20
59.1845251
11
2.4
21
59.9339476
0
LINE
8
0
10
2.4
20
59.9339476
11
2.4
21
60.6688014
0
LINE
8
0
10
2.4
20
60.6688014
11
2.4
21
61.3218009
0
LINE
8
0
10
2.4
20
61.3218009
11
2.4
21
69
0
LINE
8
0
10
2.4
20
69
11
2.43003862
21
69.228168
0
LINE
8
0
10
2.43003862
20
69.228168
11
2.468148
21
69.51764
0
LINE
8
0
10
2.468148
20
69.51764
11
2.57987971
21
69.7873829
0
LINE
8
0
10
2.57987971
20
69.7873829
11
2.667949
21
70
0
LINE
8
0
10
2.667949
20
70
11
2.84568821
21
70.2316324
0
LINE
8
0
10
2.84568821
20
70.2316324
11
2.985786
21
70.41421
0
LINE
8
0
10
2.985786
20
70.41421
11
3.21742067
21
70.5919509
0
LINE
8
0
10
3.21742067
20
70.5919509
11
3.4
21
70.73205
0
LINE
8
0
10
3.4
20
70.73205
11
3.66974405
21
70.8437812
0
LINE
8
0
10
3.66974405
20
70.8437812
11
3.882362
21
70.93185
0
LINE
8
0
10
3.882362
20
70.93185
11
4.17183292
21
70.9699605
0
LINE
8
0
10
4.17183292
20
70.9699605
11
4.4
21
71
0
LINE
8
0
10
4.4
20
71
11
6.29537564
21
71
0
LINE
8
0
10
6.29537564
20
71
11
13.7796075
21
71
0
LINE
8
0
10
13.7796075
20
71
11
14
21
71
0
LINE
8
0
10
14
20
71
11
14.2461283
21
70.9675959
0
LINE
8
0
10
14.2461283
20
70.9675959
11
14.51764
21
70.93185
0
LINE
8
0
10
14.51764
20
70.93185
11
14.7706467
21
70.8270512
0
LINE
8
0
10
14.7706467
20
70.8270512
11
15
21
70.73205
0
LINE
8
0
10
15
20
70.73205
11
15.2172608
21
70.565337
0
LINE
8
0
10
15.2172608
20
70.565337
11
15.41421
21
70.41421
0
LINE
8
0
10
15.41421
20
70.41421
11
15.580923
21
70.1969492
0
LINE
8
0
10
15.580923
20
70.1969492
11
15.73205
21
70
0
LINE
8
0
10
15.73205
20
70
11
15.8368488
21
69.7469933
0
LINE
8
0
10
15.8368488
20
69.7469933
11
15.93185
21
69.51764
0
LINE
8
0
10
15.93185
20
69.51764
11
15.9675959
21
69.2461283
0
LINE
8
0
10
15.9675959
20
69.2461283
11
16
21
69
0
LINE
8
0
10
16
20
69
11
16
21
69
0
ENDSEC
0
EOF
