0
SECTION
2
ENTITIES
0
LINE
8
0
10
16
20
4.48534547
11
16
21
10.9419486
0
LINE
8
0
10
16
20
10.9419486
11
16
21
13.063588
0
LINE
8
0
10
16
20
13.063588
11
16
21
18.1518042
0
LINE
8
0
10
16
20
18.1518042
11
10.3904984
21
18.1518042
0
LINE
8
0
10
10.3904984
20
18.1518042
11
2.4
21
18.1518042
0
LINE
8
0
10
2.4
20
18.1518042
11
2.4
21
15.3764162
0
LINE
8
0
10
2.4
20
15.3764162
11
2.4
21
13.063588
0
LINE
8
0
10
2.4
20
13.063588
11
2.4
21
10.9419486
0
LINE
8
0
10
2.4
20
10.9419486
11
2.4
21
9.88113183
0
LINE
8
0
10
2.4
20
9.88113183
11
2.4
21
6.77963319
0
LINE
8
0
10
2.4
20
6.77963319
11
2.4
21
3.80857684
0
LINE
8
0
10
2.4
20
3.80857684
11
2.4
21
1.38273437
0
LINE
8
0
10
2.4
20
1.38273437
11
2.4
21
0.586473886
0
LINE
8
0
10
2.4
20
0.586473886
11
2.4
21
-0.200651759
0
LINE
8
0
10
2.4
20
-0.200651759
11
2.4
21
-1.09878134
0
LINE
8
0
10
2.4
20
-1.09878134
11
2.4
21
-1.73964089
0
LINE
8
0
10
2.4
20
-1.73964089
11
2.4
21
-2.33065376
0
LINE
8
0
10
2.4
20
-2.33065376
11
2.4
21
-2.8186135
0
LINE
8
0
10
2.4
20
-2.8186135
11
2.4
21
-3.60569622
0
LINE
8
0
10
2.4
20
-3.60569622
11
2.4
21
-4.22977335
0
LINE
8
0
10
2.4
20
-4.22977335
11
2.4
21
-4.25668187
0
LINE
8
0
10
2.4
20
-4.25668187
11
2.4
21
-13.964864
0
LINE
8
0
10
2.4
20
-13.964864
11
2.4
21
-14
0
LINE
8
0
10
2.4
20
-14
11
2.40279098
21
-14.0458461
0
LINE
8
0
10
2.40279098
20
-14.0458461
11
2.41976849
21
-14.1501579
0
LINE
8
0
10
2.41976849
20
-14.1501579
11
2.439537
21
-14.300316
0
LINE
8
0
10
2.439537
20
-14.300316
11
2.45586443
21
-14.4650975
0
LINE
8
0
10
2.45586443
20
-14.4650975
11
2.468148
21
-14.51764
0
LINE
8
0
10
2.468148
20
-14.51764
11
2.50354943
21
-14.6218769
0
LINE
8
0
10
2.50354943
20
-14.6218769
11
2.61946673
21
-14.9017247
0
LINE
8
0
10
2.61946673
20
-14.9017247
11
2.667949
21
-15
0
LINE
8
0
10
2.667949
20
-15
11
2.69754662
21
-15.0475297
0
LINE
8
0
10
2.69754662
20
-15.0475297
11
2.88194412
21
-15.2878393
0
LINE
8
0
10
2.88194412
20
-15.2878393
11
2.985786
21
-15.41421
0
LINE
8
0
10
2.985786
20
-15.41421
11
3.11393556
21
-15.5192404
0
LINE
8
0
10
3.11393556
20
-15.5192404
11
3.35471802
21
-15.7039124
0
LINE
8
0
10
3.35471802
20
-15.7039124
11
3.40047051
21
-15.7323227
0
LINE
8
0
10
3.40047051
20
-15.7323227
11
3.49981721
21
-15.7812504
0
LINE
8
0
10
3.49981721
20
-15.7812504
11
3.77919564
21
-15.8968944
0
LINE
8
0
10
3.77919564
20
-15.8968944
11
3.882362
21
-15.93185
0
LINE
8
0
10
3.882362
20
-15.93185
11
3.93634035
21
-15.9444199
0
LINE
8
0
10
3.93634035
20
-15.9444199
11
4.09206779
21
-15.9697583
0
LINE
8
0
10
4.09206779
20
-15.9697583
11
4.4
21
-16
0
LINE
8
0
10
4.4
20
-16
11
7.07313355
21
-16
0
LINE
8
0
10
7.07313355
20
-16
11
14
21
-16
0
LINE
8
0
10
14
20
-16
11
14.0937806
21
-15.9920609
0
LINE
8
0
10
14.0937806
20
-15.9920609
11
14.2882753
21
-15.9620471
0
LINE
8
0
10
14.2882753
20
-15.9620471
11
14.51764
21
-15.93185
0
LINE
8
0
10
14.51764
20
-15.93185
11
14.7855828
21
-15.8209762
0
LINE
8
0
10
14.7855828
20
-15.8209762
11
14.999315
21
-15.7324454
0
LINE
8
0
10
14.999315
20
-15.7324454
11
15.2306748
21
-15.5550439
0
LINE
8
0
10
15.2306748
20
-15.5550439
11
15.41421
21
-15.41421
0
LINE
8
0
10
15.41421
20
-15.41421
11
15.5912161
21
-15.1835352
0
LINE
8
0
10
15.5912161
20
-15.1835352
11
15.73205
21
-15
0
LINE
8
0
10
15.73205
20
-15
11
15.8433192
21
-14.7313722
0
LINE
8
0
10
15.8433192
20
-14.7313722
11
15.93185
21
-14.51764
0
LINE
8
0
10
15.93185
20
-14.51764
11
15.9485139
21
-14.4305066
0
LINE
8
0
10
15.9485139
20
-14.4305066
11
15.9955317
21
-14.0733781
0
LINE
8
0
10
15.9955317
20
-14.0733781
11
16
21
-14
0
LINE
8
0
10
16
20
-14
11
16
21
-7.21426704
0
LINE
8
0
10
16
20
-7.21426704
11
16
21
-6.36939781
0
LINE
8
0
10
16
20
-6.36939781
11
15.8845726
21
-6.19597844
0
LINE
8
0
10
15.8845726
20
-6.19597844
11
15.8472234
21
-6.13543263
0
LINE
8
0
10
15.8472234
20
-6.13543263
11
15.1446313
21
-4.91508754
0
LINE
8
0
10
15.1446313
20
-4.91508754
11
14.9704474
21
-4.54974593
0
LINE
8
0
10
14.9704474
20
-4.54974593
11
14.6578857
21
-3.8754125
0
LINE
8
0
10
14.6578857
20
-3.8754125
11
14.5100637
21
-3.4380048
0
LINE
8
0
10
14.5100637
20
-3.4380048
11
14.373824
21
-2.98574615
0
LINE
8
0
10
14.373824
20
-2.98574615
11
14.3114381
21
-2.67434445
0
LINE
8
0
10
14.3114381
20
-2.67434445
11
14.2601321
21
-2.19146134
0
LINE
8
0
10
14.2601321
20
-2.19146134
11
14.2457073
21
-1.92745533
0
LINE
8
0
10
14.2457073
20
-1.92745533
11
14.2705976
21
-1.65755448
0
LINE
8
0
10
14.2705976
20
-1.65755448
11
14.3173518
21
-1.17121906
0
LINE
8
0
10
14.3173518
20
-1.17121906
11
14.3948609
21
-0.843952601
0
LINE
8
0
10
14.3948609
20
-0.843952601
11
14.5300397
21
-0.378903878
0
LINE
8
0
10
14.5300397
20
-0.378903878
11
14.7076459
21
0.0972507824
0
LINE
8
0
10
14.7076459
20
0.0972507824
11
14.8883452
21
0.48371236
0
LINE
8
0
10
14.8883452
20
0.48371236
11
15.2613951
21
1.23870744
0
LINE
8
0
10
15.2613951
20
1.23870744
11
15.2639454
21
1.2433703
0
LINE
8
0
10
15.2639454
20
1.2433703
11
15.2665039
21
1.24804594
0
LINE
8
0
10
15.2665039
20
1.24804594
11
15.269063
21
1.25273656
0
LINE
8
0
10
15.269063
20
1.25273656
11
15.6021706
21
1.86211279
0
LINE
8
0
10
15.6021706
20
1.86211279
11
16
21
2.58988829
0
LINE
8
0
10
16
20
2.58988829
11
16
21
4.48534547
0
LINE
8
0
10
16
20
4.48534547
11
16
21
4.48534547
0
LINE
8
0
10
16
20
37.3122979
11
16
21
37.7440412
0
LINE
8
0
10
16
20
37.7440412
11
16
21
44.2405019
0
LINE
8
0
10
16
20
44.2405019
11
4.95049839
21
44.2405019
0
LINE
8
0
10
4.95049839
20
44.2405019
11
2.4
21
44.2405019
0
LINE
8
0
10
2.4
20
44.2405019
11
2.4
21
41.1133287
0
LINE
8
0
10
2.4
20
41.1133287
11
2.4
21
37.3122979
0
LINE
8
0
10
2.4
20
37.3122979
11
2.56950161
21
37.3122979
0
LINE
8
0
10
2.56950161
20
37.3122979
11
16
21
37.3122979
0
LINE
8
0
10
16
20
37.3122979
11
16
21
37.3122979
0
LINE
8
0
10
16
20
69
11
16
21
61.9184266
0
LINE
8
0
10
16
20
61.9184266
11
16
21
61.6068194
0
LINE
8
0
10
16
20
61.6068194
11
15.4888771
21
61.0782524
0
LINE
8
0
10
15.4888771
20
61.0782524
11
15.3433016
21
60.8913031
0
LINE
8
0
10
15.3433016
20
60.8913031
11
14.6481695
21
59.9891943
0
LINE
8
0
10
14.6481695
20
59.9891943
11
14.3609818
21
59.4673946
0
LINE
8
0
10
14.3609818
20
59.4673946
11
14.1707675
21
59.076632
0
LINE
8
0
10
14.1707675
20
59.076632
11
14.0570431
21
58.7043957
0
LINE
8
0
10
14.0570431
20
58.7043957
11
13.9850351
21
58.2694365
0
LINE
8
0
10
13.9850351
20
58.2694365
11
13.9702224
21
57.9494019
0
LINE
8
0
10
13.9702224
20
57.9494019
11
14.0417074
21
57.5194723
0
LINE
8
0
10
14.0417074
20
57.5194723
11
14.1168806
21
57.167923
0
LINE
8
0
10
14.1168806
20
57.167923
11
14.3247846
21
56.7202206
0
LINE
8
0
10
14.3247846
20
56.7202206
11
14.5192394
21
56.3221078
0
LINE
8
0
10
14.5192394
20
56.3221078
11
15.0166981
21
55.6110894
0
LINE
8
0
10
15.0166981
20
55.6110894
11
15.2102743
21
55.36048
0
LINE
8
0
10
15.2102743
20
55.36048
11
16
21
54.4879348
0
LINE
8
0
10
16
20
54.4879348
11
16
21
52.0309002
0
LINE
8
0
10
16
20
52.0309002
11
16
21
45.8646181
0
LINE
8
0
10
16
20
45.8646181
11
13.4495016
21
45.8646181
0
LINE
8
0
10
13.4495016
20
45.8646181
11
2.4
21
45.8646181
0
LINE
8
0
10
2.4
20
45.8646181
11
2.4
21
48.6790751
0
LINE
8
0
10
2.4
20
48.6790751
11
2.4
21
49.7344968
0
LINE
8
0
10
2.4
20
49.7344968
11
2.4
21
54.927727
0
LINE
8
0
10
2.4
20
54.927727
11
2.4
21
55.471333
0
LINE
8
0
10
2.4
20
55.471333
11
2.4
21
56.1179022
0
LINE
8
0
10
2.4
20
56.1179022
11
2.4
21
56.8052189
0
LINE
8
0
10
2.4
20
56.8052189
11
2.4
21
57.4518577
0
LINE
8
0
10
2.4
20
57.4518577
11
2.4
21
57.9759366
0
LINE
8
0
10
2.4
20
57.9759366
11
2.4
21
59.3672511
0
LINE
8
0
10
2.4
20
59.3672511
11
2.4
21
60.1027222
0
LINE
8
0
10
2.4
20
60.1027222
11
2.4
21
60.8238959
0
LINE
8
0
10
2.4
20
60.8238959
11
2.4
21
61.4647391
0
LINE
8
0
10
2.4
20
61.4647391
11
2.4
21
69
0
LINE
8
0
10
2.4
20
69
11
2.43201672
21
69.2431933
0
LINE
8
0
10
2.43201672
20
69.2431933
11
2.468148
21
69.51764
0
LINE
8
0
10
2.468148
20
69.51764
11
2.57408018
21
69.7733817
0
LINE
8
0
10
2.57408018
20
69.7733817
11
2.667949
21
70
0
LINE
8
0
10
2.667949
20
70
11
2.83646251
21
70.2196094
0
LINE
8
0
10
2.83646251
20
70.2196094
11
2.985786
21
70.41421
0
LINE
8
0
10
2.985786
20
70.41421
11
3.20539748
21
70.5827251
0
LINE
8
0
10
3.20539748
20
70.5827251
11
3.4
21
70.73205
0
LINE
8
0
10
3.4
20
70.73205
11
3.65574276
21
70.8379817
0
LINE
8
0
10
3.65574276
20
70.8379817
11
3.882362
21
70.93185
0
LINE
8
0
10
3.882362
20
70.93185
11
4.15680769
21
70.9679823
0
LINE
8
0
10
4.15680769
20
70.9679823
11
4.4
21
71
0
LINE
8
0
10
4.4
20
71
11
6.42018967
21
71
0
LINE
8
0
10
6.42018967
20
71
11
13.7650942
21
71
0
LINE
8
0
10
13.7650942
20
71
11
14
21
71
0
LINE
8
0
10
14
20
71
11
14.2623363
21
70.9654621
0
LINE
8
0
10
14.2623363
20
70.9654621
11
14.51764
21
70.93185
0
LINE
8
0
10
14.51764
20
70.93185
11
14.7555434
21
70.8333072
0
LINE
8
0
10
14.7555434
20
70.8333072
11
15
21
70.73205
0
LINE
8
0
10
15
20
70.73205
11
15.2042913
21
70.575289
0
LINE
8
0
10
15.2042913
20
70.575289
11
15.41421
21
70.41421
0
LINE
8
0
10
15.41421
20
70.41421
11
15.570971
21
70.2099187
0
LINE
8
0
10
15.570971
20
70.2099187
11
15.73205
21
70
0
LINE
8
0
10
15.73205
20
70
11
15.8305928
21
69.7620966
0
LINE
8
0
10
15.8305928
20
69.7620966
11
15.93185
21
69.51764
0
LINE
8
0
10
15.93185
20
69.51764
11
15.9654621
21
69.2623363
0
LINE
8
0
10
15.9654621
20
69.2623363
11
16
21
69
0
LINE
8
0
10
16
20
69
11
16
21
69
0
LINE
8
0
10
16
20
28.6520429
11
16
21
26.8120571
0
LINE
8
0
10
16
20
26.8120571
11
16
21
21.7238399
0
LINE
8
0
10
16
20
21.7238399
11
8.00950161
21
21.7238399
0
LINE
8
0
10
8.00950161
20
21.7238399
11
2.4
21
21.7238399
0
LINE
8
0
10
2.4
20
21.7238399
11
2.4
21
23.9852698
0
LINE
8
0
10
2.4
20
23.9852698
11
2.4
21
26.8120571
0
LINE
8
0
10
2.4
20
26.8120571
11
2.4
21
27.9160486
0
LINE
8
0
10
2.4
20
27.9160486
11
2.4
21
28.6520429
0
LINE
8
0
10
2.4
20
28.6520429
11
2.4
21
32.5394607
0
LINE
8
0
10
2.4
20
32.5394607
11
2.4
21
37.2043621
0
LINE
8
0
10
2.4
20
37.2043621
11
15.8304984
21
37.2043621
0
LINE
8
0
10
15.8304984
20
37.2043621
11
16
21
37.2043621
0
LINE
8
0
10
16
20
37.2043621
11
16
21
28.6520429
0
LINE
8
0
10
16
20
28.6520429
11
16
21
28.6520429
0
ENDSEC
0
EOF
