0
SECTION
2
ENTITIES
0
LINE
8
0
10
16
20
2.35536897
11
16
21
3.59647579
0
LINE
8
0
10
16
20
3.59647579
11
16
21
11.0215045
0
LINE
8
0
10
16
20
11.0215045
11
16
21
13.4613686
0
LINE
8
0
10
16
20
13.4613686
11
16
21
17.7540248
0
LINE
8
0
10
16
20
17.7540248
11
9.14115677
21
17.7540248
0
LINE
8
0
10
9.14115677
20
17.7540248
11
2.4
21
17.7540248
0
LINE
8
0
10
2.4
20
17.7540248
11
2.4
21
15.4125782
0
LINE
8
0
10
2.4
20
15.4125782
11
2.4
21
13.4613686
0
LINE
8
0
10
2.4
20
13.4613686
11
2.4
21
11.0215045
0
LINE
8
0
10
2.4
20
11.0215045
11
2.4
21
9.80157593
0
LINE
8
0
10
2.4
20
9.80157593
11
2.4
21
6.81941119
0
LINE
8
0
10
2.4
20
6.81941119
11
2.4
21
3.96266982
0
LINE
8
0
10
2.4
20
3.96266982
11
2.4
21
1.63016457
0
LINE
8
0
10
2.4
20
1.63016457
11
2.4
21
0.864541168
0
LINE
8
0
10
2.4
20
0.864541168
11
2.4
21
0.107701133
0
LINE
8
0
10
2.4
20
0.107701133
11
2.4
21
-1.03769922
0
LINE
8
0
10
2.4
20
-1.03769922
11
2.4
21
-1.67088144
0
LINE
8
0
10
2.4
20
-1.67088144
11
2.4
21
-2.25481412
0
LINE
8
0
10
2.4
20
-2.25481412
11
2.4
21
-2.73692823
0
LINE
8
0
10
2.4
20
-2.73692823
11
2.4
21
-3.689098
0
LINE
8
0
10
2.4
20
-3.689098
11
2.4
21
-4.30791461
0
LINE
8
0
10
2.4
20
-4.30791461
11
2.4
21
-4.33896349
0
LINE
8
0
10
2.4
20
-4.33896349
11
2.4
21
-13.9651607
0
LINE
8
0
10
2.4
20
-13.9651607
11
2.4
21
-14
0
LINE
8
0
10
2.4
20
-14
11
2.40288929
21
-14.0474609
0
LINE
8
0
10
2.40288929
20
-14.0474609
11
2.4204648
21
-14.155447
0
LINE
8
0
10
2.4204648
20
-14.155447
11
2.44092963
21
-14.3108941
0
LINE
8
0
10
2.44092963
20
-14.3108941
11
2.45646233
21
-14.467655
0
LINE
8
0
10
2.45646233
20
-14.467655
11
2.468148
21
-14.51764
0
LINE
8
0
10
2.468148
20
-14.51764
11
2.50182628
21
-14.6168033
0
LINE
8
0
10
2.50182628
20
-14.6168033
11
2.62182658
21
-14.9065082
0
LINE
8
0
10
2.62182658
20
-14.9065082
11
2.667949
21
-15
0
LINE
8
0
10
2.667949
20
-15
11
2.69610597
21
-15.0452162
0
LINE
8
0
10
2.69610597
20
-15.0452162
11
2.88699858
21
-15.2939903
0
LINE
8
0
10
2.88699858
20
-15.2939903
11
2.985786
21
-15.41421
0
LINE
8
0
10
2.985786
20
-15.41421
11
3.10769793
21
-15.5141281
0
LINE
8
0
10
3.10769793
20
-15.5141281
11
3.35696157
21
-15.7053048
0
LINE
8
0
10
3.35696157
20
-15.7053048
11
3.40048709
21
-15.7323323
0
LINE
8
0
10
3.40048709
20
-15.7323323
11
3.49499812
21
-15.7788785
0
LINE
8
0
10
3.49499812
20
-15.7788785
11
3.78421721
21
-15.8985959
0
LINE
8
0
10
3.78421721
20
-15.8985959
11
3.882362
21
-15.93185
0
LINE
8
0
10
3.882362
20
-15.93185
11
3.93371297
21
-15.9438081
0
LINE
8
0
10
3.93371297
20
-15.9438081
11
4.09492567
21
-15.9700389
0
LINE
8
0
10
4.09492567
20
-15.9700389
11
4.4
21
-16
0
LINE
8
0
10
4.4
20
-16
11
7.16729044
21
-16
0
LINE
8
0
10
7.16729044
20
-16
11
14
21
-16
0
LINE
8
0
10
14
20
-16
11
14.0970839
21
-15.9917813
0
LINE
8
0
10
14.0970839
20
-15.9917813
11
14.2984293
21
-15.9607102
0
LINE
8
0
10
14.2984293
20
-15.9607102
11
14.51764
21
-15.93185
0
LINE
8
0
10
14.51764
20
-15.93185
11
14.7950206
21
-15.8170708
0
LINE
8
0
10
14.7950206
20
-15.8170708
11
14.9992909
21
-15.7324593
0
LINE
8
0
10
14.9992909
20
-15.7324593
11
15.2388
21
-15.5488092
0
LINE
8
0
10
15.2388
20
-15.5488092
11
15.41421
21
-15.41421
0
LINE
8
0
10
15.41421
20
-15.41421
11
15.5974508
21
-15.17541
0
LINE
8
0
10
15.5974508
20
-15.17541
11
15.73205
21
-15
0
LINE
8
0
10
15.73205
20
-15
11
15.8472385
21
-14.7219103
0
LINE
8
0
10
15.8472385
20
-14.7219103
11
15.93185
21
-14.51764
0
LINE
8
0
10
15.93185
20
-14.51764
11
15.9491008
21
-14.4274374
0
LINE
8
0
10
15.9491008
20
-14.4274374
11
15.9953743
21
-14.0759628
0
LINE
8
0
10
15.9953743
20
-14.0759628
11
16
21
-14
0
LINE
8
0
10
16
20
-14
11
16
21
-7.32214579
0
LINE
8
0
10
16
20
-7.32214579
11
16
21
-6.37111209
0
LINE
8
0
10
16
20
-6.37111209
11
16
21
-6.18657406
0
LINE
8
0
10
16
20
-6.18657406
11
15.3736624
21
-5.09867667
0
LINE
8
0
10
15.3736624
20
-5.09867667
11
15.2461174
21
-4.83115787
0
LINE
8
0
10
15.2461174
20
-4.83115787
11
14.8679973
21
-4.01538604
0
LINE
8
0
10
14.8679973
20
-4.01538604
11
14.6891703
21
-3.48623405
0
LINE
8
0
10
14.6891703
20
-3.48623405
11
14.5693081
21
-3.08834184
0
LINE
8
0
10
14.5693081
20
-3.08834184
11
14.4899295
21
-2.69211995
0
LINE
8
0
10
14.4899295
20
-2.69211995
11
14.4440469
21
-2.26028055
0
LINE
8
0
10
14.4440469
20
-2.26028055
11
14.4252297
21
-1.91588509
0
LINE
8
0
10
14.4252297
20
-1.91588509
11
14.4576991
21
-1.56379984
0
LINE
8
0
10
14.4576991
20
-1.56379984
11
14.499395
21
-1.13008031
0
LINE
8
0
10
14.499395
20
-1.13008031
11
14.5982437
21
-0.712711676
0
LINE
8
0
10
14.5982437
20
-0.712711676
11
14.7162943
21
-0.306588004
0
LINE
8
0
10
14.7162943
20
-0.306588004
11
14.9317538
21
0.271049719
0
LINE
8
0
10
14.9317538
20
0.271049719
11
15.0811179
21
0.59049475
0
LINE
8
0
10
15.0811179
20
0.59049475
11
15.5125298
21
1.4636053
0
LINE
8
0
10
15.5125298
20
1.4636053
11
15.5154791
21
1.46899764
0
LINE
8
0
10
15.5154791
20
1.46899764
11
15.5184379
21
1.47440476
0
LINE
8
0
10
15.5184379
20
1.47440476
11
15.5213973
21
1.47982921
0
LINE
8
0
10
15.5213973
20
1.47982921
11
15.7395094
21
1.87883637
0
LINE
8
0
10
15.7395094
20
1.87883637
11
16
21
2.35536897
0
LINE
8
0
10
16
20
2.35536897
11
16
21
2.35536897
0
LINE
8
0
10
16
20
26.4142773
11
16
21
22.1216202
0
LINE
8
0
10
16
20
22.1216202
11
9.25884323
21
22.1216202
0
LINE
8
0
10
9.25884323
20
22.1216202
11
2.4
21
22.1216202
0
LINE
8
0
10
2.4
20
22.1216202
11
2.4
21
24.0294678
0
LINE
8
0
10
2.4
20
24.0294678
11
2.4
21
26.4142773
0
LINE
8
0
10
2.4
20
26.4142773
11
2.4
21
27.9956045
0
LINE
8
0
10
2.4
20
27.9956045
11
2.4
21
29.0498227
0
LINE
8
0
10
2.4
20
29.0498227
11
2.4
21
32.5756223
0
LINE
8
0
10
2.4
20
32.5756223
11
2.4
21
36.8065818
0
LINE
8
0
10
2.4
20
36.8065818
11
14.5811568
21
36.8065818
0
LINE
8
0
10
14.5811568
20
36.8065818
11
16
21
36.8065818
0
LINE
8
0
10
16
20
36.8065818
11
16
21
29.0498227
0
LINE
8
0
10
16
20
29.0498227
11
16
21
26.4142773
0
LINE
8
0
10
16
20
26.4142773
11
16
21
26.4142773
0
LINE
8
0
10
16
20
69
11
16
21
61.4809035
0
LINE
8
0
10
16
20
61.4809035
11
16
21
61.4036596
0
LINE
8
0
10
16
20
61.4036596
11
15.8732984
21
61.2726338
0
LINE
8
0
10
15.8732984
20
61.2726338
11
15.8372119
21
61.2262911
0
LINE
8
0
10
15.8372119
20
61.2262911
11
14.995563
21
60.13404
0
LINE
8
0
10
14.995563
20
60.13404
11
14.6478432
21
59.5022579
0
LINE
8
0
10
14.6478432
20
59.5022579
11
14.4909203
21
59.1798866
0
LINE
8
0
10
14.4909203
20
59.1798866
11
14.3460973
21
58.7058602
0
LINE
8
0
10
14.3460973
20
58.7058602
11
14.284802
21
58.33561
0
LINE
8
0
10
14.284802
20
58.33561
11
14.2654814
21
57.9181822
0
LINE
8
0
10
14.2654814
20
57.9181822
11
14.326568
21
57.5507917
0
LINE
8
0
10
14.326568
20
57.5507917
11
14.4222977
21
57.1031095
0
LINE
8
0
10
14.4222977
20
57.1031095
11
14.6870542
21
56.5329804
0
LINE
8
0
10
14.6870542
20
56.5329804
11
14.8394577
21
56.2209605
0
LINE
8
0
10
14.8394577
20
56.2209605
11
15.4417684
21
55.3600769
0
LINE
8
0
10
15.4417684
20
55.3600769
11
15.5516638
21
55.2178031
0
LINE
8
0
10
15.5516638
20
55.2178031
11
16
21
54.7224494
0
LINE
8
0
10
16
20
54.7224494
11
16
21
48.612615
0
LINE
8
0
10
16
20
48.612615
11
16
21
45.4668378
0
LINE
8
0
10
16
20
45.4668378
11
14.6988432
21
45.4668378
0
LINE
8
0
10
14.6988432
20
45.4668378
11
2.4
21
45.4668378
0
LINE
8
0
10
2.4
20
45.4668378
11
2.4
21
48.599519
0
LINE
8
0
10
2.4
20
48.599519
11
2.4
21
49.7742748
0
LINE
8
0
10
2.4
20
49.7742748
11
2.4
21
54.8178385
0
LINE
8
0
10
2.4
20
54.8178385
11
2.4
21
55.345778
0
LINE
8
0
10
2.4
20
55.345778
11
2.4
21
55.9737133
0
LINE
8
0
10
2.4
20
55.9737133
11
2.4
21
56.6412219
0
LINE
8
0
10
2.4
20
56.6412219
11
2.4
21
57.2692249
0
LINE
8
0
10
2.4
20
57.2692249
11
2.4
21
57.7782001
0
LINE
8
0
10
2.4
20
57.7782001
11
2.4
21
59.549977
0
LINE
8
0
10
2.4
20
59.549977
11
2.4
21
60.2714969
0
LINE
8
0
10
2.4
20
60.2714969
11
2.4
21
60.9789904
0
LINE
8
0
10
2.4
20
60.9789904
11
2.4
21
61.6076773
0
LINE
8
0
10
2.4
20
61.6076773
11
2.4
21
69
0
LINE
8
0
10
2.4
20
69
11
2.43399482
21
69.2582185
0
LINE
8
0
10
2.43399482
20
69.2582185
11
2.468148
21
69.51764
0
LINE
8
0
10
2.468148
20
69.51764
11
2.56828066
21
69.7593805
0
LINE
8
0
10
2.56828066
20
69.7593805
11
2.667949
21
70
0
LINE
8
0
10
2.667949
20
70
11
2.82723681
21
70.2075863
0
LINE
8
0
10
2.82723681
20
70.2075863
11
2.985786
21
70.41421
0
LINE
8
0
10
2.985786
20
70.41421
11
3.19337429
21
70.5734993
0
LINE
8
0
10
3.19337429
20
70.5734993
11
3.4
21
70.73205
0
LINE
8
0
10
3.4
20
70.73205
11
3.64174147
21
70.8321822
0
LINE
8
0
10
3.64174147
20
70.8321822
11
3.882362
21
70.93185
0
LINE
8
0
10
3.882362
20
70.93185
11
4.14178246
21
70.9660042
0
LINE
8
0
10
4.14178246
20
70.9660042
11
4.4
21
71
0
LINE
8
0
10
4.4
20
71
11
6.54500369
21
71
0
LINE
8
0
10
6.54500369
20
71
11
13.750581
21
71
0
LINE
8
0
10
13.750581
20
71
11
14
21
71
0
LINE
8
0
10
14
20
71
11
14.2785443
21
70.9633282
0
LINE
8
0
10
14.2785443
20
70.9633282
11
14.51764
21
70.93185
0
LINE
8
0
10
14.51764
20
70.93185
11
14.7404401
21
70.8395632
0
LINE
8
0
10
14.7404401
20
70.8395632
11
15
21
70.73205
0
LINE
8
0
10
15
20
70.73205
11
15.1913219
21
70.585241
0
LINE
8
0
10
15.1913219
20
70.585241
11
15.41421
21
70.41421
0
LINE
8
0
10
15.41421
20
70.41421
11
15.561019
21
70.2228881
0
LINE
8
0
10
15.561019
20
70.2228881
11
15.73205
21
70
0
LINE
8
0
10
15.73205
20
70
11
15.8243368
21
69.7771999
0
LINE
8
0
10
15.8243368
20
69.7771999
11
15.93185
21
69.51764
0
LINE
8
0
10
15.93185
20
69.51764
11
15.9633282
21
69.2785443
0
LINE
8
0
10
15.9633282
20
69.2785443
11
16
21
69
0
LINE
8
0
10
16
20
69
11
16
21
69
0
LINE
8
0
10
16
20
41.3240618
11
16
21
37.7100782
0
LINE
8
0
10
16
20
37.7100782
11
3.81884323
21
37.7100782
0
LINE
8
0
10
3.81884323
20
37.7100782
11
2.4
21
37.7100782
0
LINE
8
0
10
2.4
20
37.7100782
11
2.4
21
41.1575267
0
LINE
8
0
10
2.4
20
41.1575267
11
2.4
21
44.6382822
0
LINE
8
0
10
2.4
20
44.6382822
11
3.70115677
21
44.6382822
0
LINE
8
0
10
3.70115677
20
44.6382822
11
16
21
44.6382822
0
LINE
8
0
10
16
20
44.6382822
11
16
21
41.3240618
0
LINE
8
0
10
16
20
41.3240618
11
16
21
41.3240618
0
ENDSEC
0
EOF
