0
SECTION
2
ENTITIES
0
LINE
8
0
10
16
20
45.1943299
11
16
21
45.0690575
0
LINE
8
0
10
16
20
45.0690575
11
15.9481848
21
45.0690575
0
LINE
8
0
10
15.9481848
20
45.0690575
11
2.4
21
45.0690575
0
LINE
8
0
10
2.4
20
45.0690575
11
2.4
21
48.5199628
0
LINE
8
0
10
2.4
20
48.5199628
11
2.4
21
49.8140527
0
LINE
8
0
10
2.4
20
49.8140527
11
2.4
21
54.7079499
0
LINE
8
0
10
2.4
20
54.7079499
11
2.4
21
55.220223
0
LINE
8
0
10
2.4
20
55.220223
11
2.4
21
55.8295245
0
LINE
8
0
10
2.4
20
55.8295245
11
2.4
21
56.4772249
0
LINE
8
0
10
2.4
20
56.4772249
11
2.4
21
57.086592
0
LINE
8
0
10
2.4
20
57.086592
11
2.4
21
57.5804635
0
LINE
8
0
10
2.4
20
57.5804635
11
2.4
21
59.732703
0
LINE
8
0
10
2.4
20
59.732703
11
2.4
21
60.4402715
0
LINE
8
0
10
2.4
20
60.4402715
11
2.4
21
61.1340849
0
LINE
8
0
10
2.4
20
61.1340849
11
2.4
21
61.7506155
0
LINE
8
0
10
2.4
20
61.7506155
11
2.4
21
69
0
LINE
8
0
10
2.4
20
69
11
2.43597292
21
69.2732438
0
LINE
8
0
10
2.43597292
20
69.2732438
11
2.468148
21
69.51764
0
LINE
8
0
10
2.468148
20
69.51764
11
2.56248113
21
69.7453792
0
LINE
8
0
10
2.56248113
20
69.7453792
11
2.667949
21
70
0
LINE
8
0
10
2.667949
20
70
11
2.8180111
21
70.1955632
0
LINE
8
0
10
2.8180111
20
70.1955632
11
2.985786
21
70.41421
0
LINE
8
0
10
2.985786
20
70.41421
11
3.1813511
21
70.5642735
0
LINE
8
0
10
3.1813511
20
70.5642735
11
3.4
21
70.73205
0
LINE
8
0
10
3.4
20
70.73205
11
3.62774018
21
70.8263827
0
LINE
8
0
10
3.62774018
20
70.8263827
11
3.882362
21
70.93185
0
LINE
8
0
10
3.882362
20
70.93185
11
4.12675723
21
70.964026
0
LINE
8
0
10
4.12675723
20
70.964026
11
4.4
21
71
0
LINE
8
0
10
4.4
20
71
11
6.66981772
21
71
0
LINE
8
0
10
6.66981772
20
71
11
13.7360677
21
71
0
LINE
8
0
10
13.7360677
20
71
11
14
21
71
0
LINE
8
0
10
14
20
71
11
14.2947523
21
70.9611943
0
LINE
8
0
10
14.2947523
20
70.9611943
11
14.51764
21
70.93185
0
LINE
8
0
10
14.51764
20
70.93185
11
14.7253367
21
70.8458192
0
LINE
8
0
10
14.7253367
20
70.8458192
11
15
21
70.73205
0
LINE
8
0
10
15
20
70.73205
11
15.1783524
21
70.595193
0
LINE
8
0
10
15.1783524
20
70.595193
11
15.41421
21
70.41421
0
LINE
8
0
10
15.41421
20
70.41421
11
15.551067
21
70.2358576
0
LINE
8
0
10
15.551067
20
70.2358576
11
15.73205
21
70
0
LINE
8
0
10
15.73205
20
70
11
15.8180808
21
69.7923033
0
LINE
8
0
10
15.8180808
20
69.7923033
11
15.93185
21
69.51764
0
LINE
8
0
10
15.93185
20
69.51764
11
15.9611943
21
69.2947523
0
LINE
8
0
10
15.9611943
20
69.2947523
11
16
21
69
0
LINE
8
0
10
16
20
69
11
16
21
61.44752
0
LINE
8
0
10
16
20
61.44752
11
16
21
61.1315649
0
LINE
8
0
10
16
20
61.1315649
11
15.3429566
21
60.2788857
0
LINE
8
0
10
15.3429566
20
60.2788857
11
14.9347046
21
59.5371211
0
LINE
8
0
10
14.9347046
20
59.5371211
11
14.8110731
21
59.2831412
0
LINE
8
0
10
14.8110731
20
59.2831412
11
14.6351515
21
58.7073248
0
LINE
8
0
10
14.6351515
20
58.7073248
11
14.5845688
21
58.4017836
0
LINE
8
0
10
14.5845688
20
58.4017836
11
14.5607405
21
57.8869625
0
LINE
8
0
10
14.5607405
20
57.8869625
11
14.6114285
21
57.5821112
0
LINE
8
0
10
14.6114285
20
57.5821112
11
14.7277148
21
57.0382959
0
LINE
8
0
10
14.7277148
20
57.0382959
11
15.0493238
21
56.3457402
0
LINE
8
0
10
15.0493238
20
56.3457402
11
15.1596759
21
56.1198132
0
LINE
8
0
10
15.1596759
20
56.1198132
11
15.8668387
21
55.1090644
0
LINE
8
0
10
15.8668387
20
55.1090644
11
15.8930533
21
55.0751262
0
LINE
8
0
10
15.8930533
20
55.0751262
11
16
21
54.9569639
0
LINE
8
0
10
16
20
54.9569639
11
16
21
45.1943299
0
LINE
8
0
10
16
20
45.1943299
11
16
21
45.1943299
0
LINE
8
0
10
16
20
-5.97235493
11
16
21
-6.49435451
0
LINE
8
0
10
16
20
-6.49435451
11
16
21
-7.43002454
0
LINE
8
0
10
16
20
-7.43002454
11
16
21
-14
0
LINE
8
0
10
16
20
-14
11
15.9952169
21
-14.0785474
0
LINE
8
0
10
15.9952169
20
-14.0785474
11
15.9496878
21
-14.4243683
0
LINE
8
0
10
15.9496878
20
-14.4243683
11
15.93185
21
-14.51764
0
LINE
8
0
10
15.93185
20
-14.51764
11
15.8511578
21
-14.7124483
0
LINE
8
0
10
15.8511578
20
-14.7124483
11
15.73205
21
-15
0
LINE
8
0
10
15.73205
20
-15
11
15.6036856
21
-15.1672849
0
LINE
8
0
10
15.6036856
20
-15.1672849
11
15.41421
21
-15.41421
0
LINE
8
0
10
15.41421
20
-15.41421
11
15.2469251
21
-15.5425744
0
LINE
8
0
10
15.2469251
20
-15.5425744
11
14.9992668
21
-15.7324733
0
LINE
8
0
10
14.9992668
20
-15.7324733
11
14.8044585
21
-15.8131655
0
LINE
8
0
10
14.8044585
20
-15.8131655
11
14.51764
21
-15.93185
0
LINE
8
0
10
14.51764
20
-15.93185
11
14.3085834
21
-15.9593734
0
LINE
8
0
10
14.3085834
20
-15.9593734
11
14.1003872
21
-15.9915016
0
LINE
8
0
10
14.1003872
20
-15.9915016
11
14
21
-16
0
LINE
8
0
10
14
20
-16
11
7.26144734
21
-16
0
LINE
8
0
10
7.26144734
20
-16
11
4.4
21
-16
0
LINE
8
0
10
4.4
20
-16
11
4.09778355
21
-15.9703196
0
LINE
8
0
10
4.09778355
20
-15.9703196
11
3.9310856
21
-15.9431962
0
LINE
8
0
10
3.9310856
20
-15.9431962
11
3.882362
21
-15.93185
0
LINE
8
0
10
3.882362
20
-15.93185
11
3.78923879
21
-15.9002973
0
LINE
8
0
10
3.78923879
20
-15.9002973
11
3.49017904
21
-15.7765065
0
LINE
8
0
10
3.49017904
20
-15.7765065
11
3.40050366
21
-15.7323419
0
LINE
8
0
10
3.40050366
20
-15.7323419
11
3.35920513
21
-15.7066973
0
LINE
8
0
10
3.35920513
20
-15.7066973
11
3.10146031
21
-15.5090158
0
LINE
8
0
10
3.10146031
20
-15.5090158
11
2.985786
21
-15.41421
0
LINE
8
0
10
2.985786
20
-15.41421
11
2.89205304
21
-15.3001414
0
LINE
8
0
10
2.89205304
20
-15.3001414
11
2.69466531
21
-15.0429027
0
LINE
8
0
10
2.69466531
20
-15.0429027
11
2.667949
21
-15
0
LINE
8
0
10
2.667949
20
-15
11
2.62418644
21
-14.9112917
0
LINE
8
0
10
2.62418644
20
-14.9112917
11
2.50010313
21
-14.6117296
0
LINE
8
0
10
2.50010313
20
-14.6117296
11
2.468148
21
-14.51764
0
LINE
8
0
10
2.468148
20
-14.51764
11
2.45706023
21
-14.4702125
0
LINE
8
0
10
2.45706023
20
-14.4702125
11
2.44232226
21
-14.3214723
0
LINE
8
0
10
2.44232226
20
-14.3214723
11
2.42116112
21
-14.1607361
0
LINE
8
0
10
2.42116112
20
-14.1607361
11
2.4029876
21
-14.0490758
0
LINE
8
0
10
2.4029876
20
-14.0490758
11
2.4
21
-14
0
LINE
8
0
10
2.4
20
-14
11
2.4
21
-13.9654574
0
LINE
8
0
10
2.4
20
-13.9654574
11
2.4
21
-4.4212451
0
LINE
8
0
10
2.4
20
-4.4212451
11
2.4
21
-4.38605586
0
LINE
8
0
10
2.4
20
-4.38605586
11
2.4
21
-3.77249977
0
LINE
8
0
10
2.4
20
-3.77249977
11
2.4
21
-2.65524296
0
LINE
8
0
10
2.4
20
-2.65524296
11
2.4
21
-2.17897448
0
LINE
8
0
10
2.4
20
-2.17897448
11
2.4
21
-1.60212198
0
LINE
8
0
10
2.4
20
-1.60212198
11
2.4
21
-0.976617106
0
LINE
8
0
10
2.4
20
-0.976617106
11
2.4
21
0.416054025
0
LINE
8
0
10
2.4
20
0.416054025
11
2.4
21
1.14260845
0
LINE
8
0
10
2.4
20
1.14260845
11
2.4
21
1.87759477
0
LINE
8
0
10
2.4
20
1.87759477
11
2.4
21
4.11676281
0
LINE
8
0
10
2.4
20
4.11676281
11
2.4
21
6.8591892
0
LINE
8
0
10
2.4
20
6.8591892
11
2.4
21
9.72202003
0
LINE
8
0
10
2.4
20
9.72202003
11
2.4
21
11.1010605
0
LINE
8
0
10
2.4
20
11.1010605
11
2.4
21
13.8591491
0
LINE
8
0
10
2.4
20
13.8591491
11
2.4
21
15.4487402
0
LINE
8
0
10
2.4
20
15.4487402
11
2.4
21
17.3562455
0
LINE
8
0
10
2.4
20
17.3562455
11
7.89181516
21
17.3562455
0
LINE
8
0
10
7.89181516
20
17.3562455
11
16
21
17.3562455
0
LINE
8
0
10
16
20
17.3562455
11
16
21
13.8591491
0
LINE
8
0
10
16
20
13.8591491
11
16
21
11.1010605
0
LINE
8
0
10
16
20
11.1010605
11
16
21
2.7076061
0
LINE
8
0
10
16
20
2.7076061
11
16
21
2.12084965
0
LINE
8
0
10
16
20
2.12084965
11
15.8768482
21
1.89555995
0
LINE
8
0
10
15.8768482
20
1.89555995
11
15.7737316
21
1.70692185
0
LINE
8
0
10
15.7737316
20
1.70692185
11
15.7703718
21
1.70076358
0
LINE
8
0
10
15.7703718
20
1.70076358
11
15.7670128
21
1.69462498
0
LINE
8
0
10
15.7670128
20
1.69462498
11
15.7636644
21
1.68850315
0
LINE
8
0
10
15.7636644
20
1.68850315
11
15.2738907
21
0.69727714
0
LINE
8
0
10
15.2738907
20
0.69727714
11
15.1558618
21
0.444848655
0
LINE
8
0
10
15.1558618
20
0.444848655
11
14.902549
21
-0.23427213
0
LINE
8
0
10
14.902549
20
-0.23427213
11
14.8016265
21
-0.581470752
0
LINE
8
0
10
14.8016265
20
-0.581470752
11
14.6814382
21
-1.08894157
0
LINE
8
0
10
14.6814382
20
-1.08894157
11
14.6448005
21
-1.47004519
0
LINE
8
0
10
14.6448005
20
-1.47004519
11
14.6047521
21
-1.90431486
0
LINE
8
0
10
14.6047521
20
-1.90431486
11
14.6279616
21
-2.32909975
0
LINE
8
0
10
14.6279616
20
-2.32909975
11
14.6684208
21
-2.70989545
0
LINE
8
0
10
14.6684208
20
-2.70989545
11
14.7647923
21
-3.19093753
0
LINE
8
0
10
14.7647923
20
-3.19093753
11
14.868277
21
-3.53446331
0
LINE
8
0
10
14.868277
20
-3.53446331
11
15.078109
21
-4.15535959
0
LINE
8
0
10
15.078109
20
-4.15535959
11
15.5217874
21
-5.11256981
0
LINE
8
0
10
15.5217874
20
-5.11256981
11
15.6026934
21
-5.28226579
0
LINE
8
0
10
15.6026934
20
-5.28226579
11
16
21
-5.97235493
0
LINE
8
0
10
16
20
-5.97235493
11
16
21
-5.97235493
0
LINE
8
0
10
16
20
36.4088015
11
16
21
29.4476025
0
LINE
8
0
10
16
20
29.4476025
11
16
21
26.0164975
0
LINE
8
0
10
16
20
26.0164975
11
16
21
22.5194005
0
LINE
8
0
10
16
20
22.5194005
11
10.5081848
21
22.5194005
0
LINE
8
0
10
10.5081848
20
22.5194005
11
2.4
21
22.5194005
0
LINE
8
0
10
2.4
20
22.5194005
11
2.4
21
24.0736658
0
LINE
8
0
10
2.4
20
24.0736658
11
2.4
21
26.0164975
0
LINE
8
0
10
2.4
20
26.0164975
11
2.4
21
28.0751605
0
LINE
8
0
10
2.4
20
28.0751605
11
2.4
21
29.4476025
0
LINE
8
0
10
2.4
20
29.4476025
11
2.4
21
32.6117839
0
LINE
8
0
10
2.4
20
32.6117839
11
2.4
21
36.4088015
0
LINE
8
0
10
2.4
20
36.4088015
11
13.3318152
21
36.4088015
0
LINE
8
0
10
13.3318152
20
36.4088015
11
16
21
36.4088015
0
LINE
8
0
10
16
20
36.4088015
11
16
21
36.4088015
0
LINE
8
0
10
16
20
45.0360625
11
16
21
44.9040823
0
LINE
8
0
10
16
20
44.9040823
11
16
21
38.1078585
0
LINE
8
0
10
16
20
38.1078585
11
5.06818484
21
38.1078585
0
LINE
8
0
10
5.06818484
20
38.1078585
11
2.4
21
38.1078585
0
LINE
8
0
10
2.4
20
38.1078585
11
2.4
21
41.2017247
0
LINE
8
0
10
2.4
20
41.2017247
11
2.4
21
45.0360625
0
LINE
8
0
10
2.4
20
45.0360625
11
2.45181516
21
45.0360625
0
LINE
8
0
10
2.45181516
20
45.0360625
11
16
21
45.0360625
0
LINE
8
0
10
16
20
45.0360625
11
16
21
45.0360625
0
ENDSEC
0
EOF
