0
SECTION
2
ENTITIES
0
LINE
8
0
10
16
20
-6.61759693
11
16
21
-7.5379033
0
LINE
8
0
10
16
20
-7.5379033
11
16
21
-14
0
LINE
8
0
10
16
20
-14
11
15.9950595
21
-14.081132
0
LINE
8
0
10
15.9950595
20
-14.081132
11
15.9502748
21
-14.4212992
0
LINE
8
0
10
15.9502748
20
-14.4212992
11
15.93185
21
-14.51764
0
LINE
8
0
10
15.93185
20
-14.51764
11
15.8550771
21
-14.7029863
0
LINE
8
0
10
15.8550771
20
-14.7029863
11
15.73205
21
-15
0
LINE
8
0
10
15.73205
20
-15
11
15.6099203
21
-15.1591597
0
LINE
8
0
10
15.6099203
20
-15.1591597
11
15.41421
21
-15.41421
0
LINE
8
0
10
15.41421
20
-15.41421
11
15.2550503
21
-15.5363397
0
LINE
8
0
10
15.2550503
20
-15.5363397
11
14.9992426
21
-15.7324872
0
LINE
8
0
10
14.9992426
20
-15.7324872
11
14.8138963
21
-15.8092601
0
LINE
8
0
10
14.8138963
20
-15.8092601
11
14.51764
21
-15.93185
0
LINE
8
0
10
14.51764
20
-15.93185
11
14.3187374
21
-15.9580366
0
LINE
8
0
10
14.3187374
20
-15.9580366
11
14.1036905
21
-15.991222
0
LINE
8
0
10
14.1036905
20
-15.991222
11
14
21
-16
0
LINE
8
0
10
14
20
-16
11
7.35560424
21
-16
0
LINE
8
0
10
7.35560424
20
-16
11
4.4
21
-16
0
LINE
8
0
10
4.4
20
-16
11
4.10064143
21
-15.9706003
0
LINE
8
0
10
4.10064143
20
-15.9706003
11
3.92845823
21
-15.9425844
0
LINE
8
0
10
3.92845823
20
-15.9425844
11
3.882362
21
-15.93185
0
LINE
8
0
10
3.882362
20
-15.93185
11
3.79426037
21
-15.9019988
0
LINE
8
0
10
3.79426037
20
-15.9019988
11
3.48535995
21
-15.7741346
0
LINE
8
0
10
3.48535995
20
-15.7741346
11
3.40052023
21
-15.7323515
0
LINE
8
0
10
3.40052023
20
-15.7323515
11
3.36144869
21
-15.7080898
0
LINE
8
0
10
3.36144869
20
-15.7080898
11
3.09522269
21
-15.5039035
0
LINE
8
0
10
3.09522269
20
-15.5039035
11
2.985786
21
-15.41421
0
LINE
8
0
10
2.985786
20
-15.41421
11
2.8971075
21
-15.3062924
0
LINE
8
0
10
2.8971075
20
-15.3062924
11
2.69322466
21
-15.0405892
0
LINE
8
0
10
2.69322466
20
-15.0405892
11
2.667949
21
-15
0
LINE
8
0
10
2.667949
20
-15
11
2.62654629
21
-14.9160752
0
LINE
8
0
10
2.62654629
20
-14.9160752
11
2.49837998
21
-14.6066559
0
LINE
8
0
10
2.49837998
20
-14.6066559
11
2.468148
21
-14.51764
0
LINE
8
0
10
2.468148
20
-14.51764
11
2.45765812
21
-14.4727699
0
LINE
8
0
10
2.45765812
20
-14.4727699
11
2.44371488
21
-14.3320504
0
LINE
8
0
10
2.44371488
20
-14.3320504
11
2.42185743
21
-14.1660251
0
LINE
8
0
10
2.42185743
20
-14.1660251
11
2.40308591
21
-14.0506906
0
LINE
8
0
10
2.40308591
20
-14.0506906
11
2.4
21
-14
0
LINE
8
0
10
2.4
20
-14
11
2.4
21
-13.9657541
0
LINE
8
0
10
2.4
20
-13.9657541
11
2.4
21
-4.50352672
0
LINE
8
0
10
2.4
20
-4.50352672
11
2.4
21
-4.46419712
0
LINE
8
0
10
2.4
20
-4.46419712
11
2.4
21
-3.85590155
0
LINE
8
0
10
2.4
20
-3.85590155
11
2.4
21
-2.57355768
0
LINE
8
0
10
2.4
20
-2.57355768
11
2.4
21
-2.10313484
0
LINE
8
0
10
2.4
20
-2.10313484
11
2.4
21
-1.53336253
0
LINE
8
0
10
2.4
20
-1.53336253
11
2.4
21
-0.915534988
0
LINE
8
0
10
2.4
20
-0.915534988
11
2.4
21
0.724406917
0
LINE
8
0
10
2.4
20
0.724406917
11
2.4
21
1.42067573
0
LINE
8
0
10
2.4
20
1.42067573
11
2.4
21
2.12502497
0
LINE
8
0
10
2.4
20
2.12502497
11
2.4
21
4.27085579
0
LINE
8
0
10
2.4
20
4.27085579
11
2.4
21
6.8989672
0
LINE
8
0
10
2.4
20
6.8989672
11
2.4
21
9.64246413
0
LINE
8
0
10
2.4
20
9.64246413
11
2.4
21
11.1806165
0
LINE
8
0
10
2.4
20
11.1806165
11
2.4
21
14.2569297
0
LINE
8
0
10
2.4
20
14.2569297
11
2.4
21
15.4849022
0
LINE
8
0
10
2.4
20
15.4849022
11
2.4
21
16.9584661
0
LINE
8
0
10
2.4
20
16.9584661
11
6.64247354
21
16.9584661
0
LINE
8
0
10
6.64247354
20
16.9584661
11
16
21
16.9584661
0
LINE
8
0
10
16
20
16.9584661
11
16
21
14.2569297
0
LINE
8
0
10
16
20
14.2569297
11
16
21
11.1806165
0
LINE
8
0
10
16
20
11.1806165
11
16
21
1.99714633
0
LINE
8
0
10
16
20
1.99714633
11
16
21
1.96561508
0
LINE
8
0
10
16
20
1.96561508
11
16
21
1.94977571
0
LINE
8
0
10
16
20
1.94977571
11
16
21
1.88344989
0
LINE
8
0
10
16
20
1.88344989
11
15.4666635
21
0.80405953
0
LINE
8
0
10
15.4666635
20
0.80405953
11
15.3799697
21
0.618647592
0
LINE
8
0
10
15.3799697
20
0.618647592
11
15.0888036
21
-0.161956256
0
LINE
8
0
10
15.0888036
20
-0.161956256
11
15.0050093
21
-0.450229827
0
LINE
8
0
10
15.0050093
20
-0.450229827
11
14.8634813
21
-1.04780282
0
LINE
8
0
10
14.8634813
20
-1.04780282
11
14.8319019
21
-1.37629055
0
LINE
8
0
10
14.8319019
20
-1.37629055
11
14.7842745
21
-1.89274462
0
LINE
8
0
10
14.7842745
20
-1.89274462
11
14.8118763
21
-2.39791896
0
LINE
8
0
10
14.8118763
20
-2.39791896
11
14.8469122
21
-2.72767094
0
LINE
8
0
10
14.8469122
20
-2.72767094
11
14.9602764
21
-3.29353322
0
LINE
8
0
10
14.9602764
20
-3.29353322
11
15.0473836
21
-3.58269256
0
LINE
8
0
10
15.0473836
20
-3.58269256
11
15.2882206
21
-4.29533313
0
LINE
8
0
10
15.2882206
20
-4.29533313
11
15.7974575
21
-5.39398175
0
LINE
8
0
10
15.7974575
20
-5.39398175
11
15.8317245
21
-5.46585492
0
LINE
8
0
10
15.8317245
20
-5.46585492
11
16
21
-5.7581358
0
LINE
8
0
10
16
20
-5.7581358
11
16
21
-6.61759693
0
LINE
8
0
10
16
20
-6.61759693
11
16
21
-6.61759693
0
LINE
8
0
10
16
20
22.9171807
11
16
21
25.6187177
0
LINE
8
0
10
16
20
25.6187177
11
16
21
29.8453823
0
LINE
8
0
10
16
20
29.8453823
11
16
21
36.0110213
0
LINE
8
0
10
16
20
36.0110213
11
12.0824735
21
36.0110213
0
LINE
8
0
10
12.0824735
20
36.0110213
11
2.4
21
36.0110213
0
LINE
8
0
10
2.4
20
36.0110213
11
2.4
21
32.6479455
0
LINE
8
0
10
2.4
20
32.6479455
11
2.4
21
29.8453823
0
LINE
8
0
10
2.4
20
29.8453823
11
2.4
21
28.1547165
0
LINE
8
0
10
2.4
20
28.1547165
11
2.4
21
25.6187177
0
LINE
8
0
10
2.4
20
25.6187177
11
2.4
21
24.1178638
0
LINE
8
0
10
2.4
20
24.1178638
11
2.4
21
22.9171807
0
LINE
8
0
10
2.4
20
22.9171807
11
11.7575265
21
22.9171807
0
LINE
8
0
10
11.7575265
20
22.9171807
11
16
21
22.9171807
0
LINE
8
0
10
16
20
22.9171807
11
16
21
22.9171807
0
LINE
8
0
10
16
20
69
11
16
21
61.6128218
0
LINE
8
0
10
16
20
61.6128218
11
16
21
60.8255801
0
LINE
8
0
10
16
20
60.8255801
11
15.6903501
21
60.4237315
0
LINE
8
0
10
15.6903501
20
60.4237315
11
15.221566
21
59.5719843
0
LINE
8
0
10
15.221566
20
59.5719843
11
15.1312258
21
59.3863959
0
LINE
8
0
10
15.1312258
20
59.3863959
11
14.9242058
21
58.7087893
0
LINE
8
0
10
14.9242058
20
58.7087893
11
14.8843357
21
58.4679571
0
LINE
8
0
10
14.8843357
20
58.4679571
11
14.8559995
21
57.8557428
0
LINE
8
0
10
14.8559995
20
57.8557428
11
14.8962891
21
57.6134307
0
LINE
8
0
10
14.8962891
20
57.6134307
11
15.0331319
21
56.9734823
0
LINE
8
0
10
15.0331319
20
56.9734823
11
15.4115934
21
56.1584999
0
LINE
8
0
10
15.4115934
20
56.1584999
11
15.4798941
21
56.0186658
0
LINE
8
0
10
15.4798941
20
56.0186658
11
16
21
55.2752778
0
LINE
8
0
10
16
20
55.2752778
11
16
21
54.7670464
0
LINE
8
0
10
16
20
54.7670464
11
16
21
45.1288165
0
LINE
8
0
10
16
20
45.1288165
11
16
21
44.6712777
0
LINE
8
0
10
16
20
44.6712777
11
16
21
38.5056387
0
LINE
8
0
10
16
20
38.5056387
11
6.31752646
21
38.5056387
0
LINE
8
0
10
6.31752646
20
38.5056387
11
2.4
21
38.5056387
0
LINE
8
0
10
2.4
20
38.5056387
11
2.4
21
41.2459227
0
LINE
8
0
10
2.4
20
41.2459227
11
2.4
21
44.6712777
0
LINE
8
0
10
2.4
20
44.6712777
11
2.4
21
45.1288165
0
LINE
8
0
10
2.4
20
45.1288165
11
2.4
21
48.4404067
0
LINE
8
0
10
2.4
20
48.4404067
11
2.4
21
49.8538307
0
LINE
8
0
10
2.4
20
49.8538307
11
2.4
21
54.5980614
0
LINE
8
0
10
2.4
20
54.5980614
11
2.4
21
55.0946679
0
LINE
8
0
10
2.4
20
55.0946679
11
2.4
21
55.6853356
0
LINE
8
0
10
2.4
20
55.6853356
11
2.4
21
56.3132279
0
LINE
8
0
10
2.4
20
56.3132279
11
2.4
21
56.9039592
0
LINE
8
0
10
2.4
20
56.9039592
11
2.4
21
57.3827269
0
LINE
8
0
10
2.4
20
57.3827269
11
2.4
21
59.9154289
0
LINE
8
0
10
2.4
20
59.9154289
11
2.4
21
60.6090461
0
LINE
8
0
10
2.4
20
60.6090461
11
2.4
21
61.2891794
0
LINE
8
0
10
2.4
20
61.2891794
11
2.4
21
61.8935537
0
LINE
8
0
10
2.4
20
61.8935537
11
2.4
21
69
0
LINE
8
0
10
2.4
20
69
11
2.43795101
21
69.2882691
0
LINE
8
0
10
2.43795101
20
69.2882691
11
2.468148
21
69.51764
0
LINE
8
0
10
2.468148
20
69.51764
11
2.5566816
21
69.731378
0
LINE
8
0
10
2.5566816
20
69.731378
11
2.667949
21
70
0
LINE
8
0
10
2.667949
20
70
11
2.8087854
21
70.1835401
0
LINE
8
0
10
2.8087854
20
70.1835401
11
2.985786
21
70.41421
0
LINE
8
0
10
2.985786
20
70.41421
11
3.16932791
21
70.5550477
0
LINE
8
0
10
3.16932791
20
70.5550477
11
3.4
21
70.73205
0
LINE
8
0
10
3.4
20
70.73205
11
3.61373889
21
70.8205832
0
LINE
8
0
10
3.61373889
20
70.8205832
11
3.882362
21
70.93185
0
LINE
8
0
10
3.882362
20
70.93185
11
4.111732
21
70.9620479
0
LINE
8
0
10
4.111732
20
70.9620479
11
4.4
21
71
0
LINE
8
0
10
4.4
20
71
11
6.79463174
21
71
0
LINE
8
0
10
6.79463174
20
71
11
13.7215544
21
71
0
LINE
8
0
10
13.7215544
20
71
11
14
21
71
0
LINE
8
0
10
14
20
71
11
14.3109603
21
70.9590605
0
LINE
8
0
10
14.3109603
20
70.9590605
11
14.51764
21
70.93185
0
LINE
8
0
10
14.51764
20
70.93185
11
14.7102334
21
70.8520752
0
LINE
8
0
10
14.7102334
20
70.8520752
11
15
21
70.73205
0
LINE
8
0
10
15
20
70.73205
11
15.1653829
21
70.605145
0
LINE
8
0
10
15.1653829
20
70.605145
11
15.41421
21
70.41421
0
LINE
8
0
10
15.41421
20
70.41421
11
15.541115
21
70.2488271
0
LINE
8
0
10
15.541115
20
70.2488271
11
15.73205
21
70
0
LINE
8
0
10
15.73205
20
70
11
15.8118248
21
69.8074066
0
LINE
8
0
10
15.8118248
20
69.8074066
11
15.93185
21
69.51764
0
LINE
8
0
10
15.93185
20
69.51764
11
15.9590605
21
69.3109603
0
LINE
8
0
10
15.9590605
20
69.3109603
11
16
21
69
0
LINE
8
0
10
16
20
69
11
16
21
69
0
ENDSEC
0
EOF
