0
SECTION
2
ENTITIES
0
LINE
8
0
10
16
20
-7.86153956
11
16
21
-14
0
LINE
8
0
10
16
20
-14
11
15.9945874
21
-14.0888859
0
LINE
8
0
10
15.9945874
20
-14.0888859
11
15.9520356
21
-14.4120918
0
LINE
8
0
10
15.9520356
20
-14.4120918
11
15.93185
21
-14.51764
0
LINE
8
0
10
15.93185
20
-14.51764
11
15.8668349
21
-14.6746003
0
LINE
8
0
10
15.8668349
20
-14.6746003
11
15.73205
21
-15
0
LINE
8
0
10
15.73205
20
-15
11
15.6286246
21
-15.1347843
0
LINE
8
0
10
15.6286246
20
-15.1347843
11
15.41421
21
-15.41421
0
LINE
8
0
10
15.41421
20
-15.41421
11
15.2794257
21
-15.5176354
0
LINE
8
0
10
15.2794257
20
-15.5176354
11
14.9991702
21
-15.732529
0
LINE
8
0
10
14.9991702
20
-15.732529
11
14.8422099
21
-15.797544
0
LINE
8
0
10
14.8422099
20
-15.797544
11
14.51764
21
-15.93185
0
LINE
8
0
10
14.51764
20
-15.93185
11
14.3491995
21
-15.9540261
0
LINE
8
0
10
14.3491995
20
-15.9540261
11
14.1136003
21
-15.9903831
0
LINE
8
0
10
14.1136003
20
-15.9903831
11
14
21
-16
0
LINE
8
0
10
14
20
-16
11
7.63807494
21
-16
0
LINE
8
0
10
7.63807494
20
-16
11
4.4
21
-16
0
LINE
8
0
10
4.4
20
-16
11
4.10921507
21
-15.9714423
0
LINE
8
0
10
4.10921507
20
-15.9714423
11
3.92057611
21
-15.9407489
0
LINE
8
0
10
3.92057611
20
-15.9407489
11
3.882362
21
-15.93185
0
LINE
8
0
10
3.882362
20
-15.93185
11
3.80932511
21
-15.9071031
0
LINE
8
0
10
3.80932511
20
-15.9071031
11
3.4709027
21
-15.7670188
0
LINE
8
0
10
3.4709027
20
-15.7670188
11
3.40056995
21
-15.7323803
0
LINE
8
0
10
3.40056995
20
-15.7323803
11
3.36817935
21
-15.7122671
0
LINE
8
0
10
3.36817935
20
-15.7122671
11
3.07650981
21
-15.4885666
0
LINE
8
0
10
3.07650981
20
-15.4885666
11
2.985786
21
-15.41421
0
LINE
8
0
10
2.985786
20
-15.41421
11
2.91227087
21
-15.3247455
0
LINE
8
0
10
2.91227087
20
-15.3247455
11
2.68890271
21
-15.0336487
0
LINE
8
0
10
2.68890271
20
-15.0336487
11
2.667949
21
-15
0
LINE
8
0
10
2.667949
20
-15
11
2.63362585
21
-14.9304258
0
LINE
8
0
10
2.63362585
20
-14.9304258
11
2.49321054
21
-14.5914348
0
LINE
8
0
10
2.49321054
20
-14.5914348
11
2.468148
21
-14.51764
0
LINE
8
0
10
2.468148
20
-14.51764
11
2.45945182
21
-14.4804424
0
LINE
8
0
10
2.45945182
20
-14.4804424
11
2.44789277
21
-14.3637849
0
LINE
8
0
10
2.44789277
20
-14.3637849
11
2.42394637
21
-14.1818924
0
LINE
8
0
10
2.42394637
20
-14.1818924
11
2.40338083
21
-14.0555352
0
LINE
8
0
10
2.40338083
20
-14.0555352
11
2.4
21
-14
0
LINE
8
0
10
2.4
20
-14
11
2.4
21
-13.9666443
0
LINE
8
0
10
2.4
20
-13.9666443
11
2.4
21
-4.75037157
0
LINE
8
0
10
2.4
20
-4.75037157
11
2.4
21
-4.6986209
0
LINE
8
0
10
2.4
20
-4.6986209
11
2.4
21
-4.10610687
0
LINE
8
0
10
2.4
20
-4.10610687
11
2.4
21
-2.32850186
0
LINE
8
0
10
2.4
20
-2.32850186
11
2.4
21
-1.87561592
0
LINE
8
0
10
2.4
20
-1.87561592
11
2.4
21
-1.32708417
0
LINE
8
0
10
2.4
20
-1.32708417
11
2.4
21
-0.732288635
0
LINE
8
0
10
2.4
20
-0.732288635
11
2.4
21
1.64946559
0
LINE
8
0
10
2.4
20
1.64946559
11
2.4
21
2.25487758
0
LINE
8
0
10
2.4
20
2.25487758
11
2.4
21
2.86731557
0
LINE
8
0
10
2.4
20
2.86731557
11
2.4
21
4.73313474
0
LINE
8
0
10
2.4
20
4.73313474
11
2.4
21
7.01830121
0
LINE
8
0
10
2.4
20
7.01830121
11
2.4
21
9.40379643
0
LINE
8
0
10
2.4
20
9.40379643
11
2.4
21
11.4192843
0
LINE
8
0
10
2.4
20
11.4192843
11
2.4
21
15.4502714
0
LINE
8
0
10
2.4
20
15.4502714
11
2.4
21
15.5933883
0
LINE
8
0
10
2.4
20
15.5933883
11
2.4
21
15.7651281
0
LINE
8
0
10
2.4
20
15.7651281
11
2.8944487
21
15.7651281
0
LINE
8
0
10
2.8944487
20
15.7651281
11
16
21
15.7651281
0
LINE
8
0
10
16
20
15.7651281
11
16
21
15.4502714
0
LINE
8
0
10
16
20
15.4502714
11
16
21
11.4192843
0
LINE
8
0
10
16
20
11.4192843
11
16
21
4.51188857
0
LINE
8
0
10
16
20
4.51188857
11
16
21
4.48817217
0
LINE
8
0
10
16
20
4.48817217
11
16
21
4.4762585
0
LINE
8
0
10
16
20
4.4762585
11
16
21
1.37547248
0
LINE
8
0
10
16
20
1.37547248
11
16
21
1.17695686
0
LINE
8
0
10
16
20
1.17695686
11
16
21
0.99984763
0
LINE
8
0
10
16
20
0.99984763
11
15.6475676
21
0.0549913656
0
LINE
8
0
10
15.6475676
20
0.0549913656
11
15.6151576
21
-0.0565070535
0
LINE
8
0
10
15.6151576
20
-0.0565070535
11
15.4096109
21
-0.92438658
0
LINE
8
0
10
15.4096109
20
-0.92438658
11
15.3932063
21
-1.09502662
0
LINE
8
0
10
15.3932063
20
-1.09502662
11
15.3228417
21
-1.85803392
0
LINE
8
0
10
15.3228417
20
-1.85803392
11
15.3636204
21
-2.60437657
0
LINE
8
0
10
15.3636204
20
-2.60437657
11
15.3823862
21
-2.78099743
0
LINE
8
0
10
15.3823862
20
-2.78099743
11
15.5467289
21
-3.6013203
0
LINE
8
0
10
15.5467289
20
-3.6013203
11
15.5847036
21
-3.72738032
0
LINE
8
0
10
15.5847036
20
-3.72738032
11
15.9185555
21
-4.71525377
0
LINE
8
0
10
15.9185555
20
-4.71525377
11
16
21
-4.89096548
0
LINE
8
0
10
16
20
-4.89096548
11
16
21
-5.91663739
0
LINE
8
0
10
16
20
-5.91663739
11
16
21
-5.92231891
0
LINE
8
0
10
16
20
-5.92231891
11
16
21
-6.9873242
0
LINE
8
0
10
16
20
-6.9873242
11
16
21
-7.86153956
0
LINE
8
0
10
16
20
-7.86153956
11
16
21
-7.86153956
0
LINE
8
0
10
16
20
55.2041031
11
16
21
56.6700429
0
LINE
8
0
10
16
20
56.6700429
11
15.9493832
21
56.7790416
0
LINE
8
0
10
15.9493832
20
56.7790416
11
15.7508708
21
57.7073891
0
LINE
8
0
10
15.7508708
20
57.7073891
11
15.7417766
21
57.7620837
0
LINE
8
0
10
15.7417766
20
57.7620837
11
15.7836363
21
58.6664777
0
LINE
8
0
10
15.7836363
20
58.6664777
11
15.7913684
21
58.7131829
0
LINE
8
0
10
15.7913684
20
58.7131829
11
16
21
59.3960643
0
LINE
8
0
10
16
20
59.3960643
11
16
21
59.730267
0
LINE
8
0
10
16
20
59.730267
11
16
21
60.9595304
0
LINE
8
0
10
16
20
60.9595304
11
16
21
62.1087275
0
LINE
8
0
10
16
20
62.1087275
11
16
21
69
0
LINE
8
0
10
16
20
69
11
15.9526589
21
69.3595843
0
LINE
8
0
10
15.9526589
20
69.3595843
11
15.93185
21
69.51764
0
LINE
8
0
10
15.93185
20
69.51764
11
15.7930567
21
69.8527166
0
LINE
8
0
10
15.7930567
20
69.8527166
11
15.73205
21
70
0
LINE
8
0
10
15.73205
20
70
11
15.511259
21
70.2877355
0
LINE
8
0
10
15.511259
20
70.2877355
11
15.41421
21
70.41421
0
LINE
8
0
10
15.41421
20
70.41421
11
15.1264745
21
70.635001
0
LINE
8
0
10
15.1264745
20
70.635001
11
15
21
70.73205
0
LINE
8
0
10
15
20
70.73205
11
14.6649234
21
70.8708433
0
LINE
8
0
10
14.6649234
20
70.8708433
11
14.51764
21
70.93185
0
LINE
8
0
10
14.51764
20
70.93185
11
14.3595843
21
70.9526589
0
LINE
8
0
10
14.3595843
20
70.9526589
11
14
21
71
0
LINE
8
0
10
14
20
71
11
13.6780147
21
71
0
LINE
8
0
10
13.6780147
20
71
11
7.16907381
21
71
0
LINE
8
0
10
7.16907381
20
71
11
4.4
21
71
0
LINE
8
0
10
4.4
20
71
11
4.06665632
21
70.9561134
0
LINE
8
0
10
4.06665632
20
70.9561134
11
3.882362
21
70.93185
0
LINE
8
0
10
3.882362
20
70.93185
11
3.57173503
21
70.8031847
0
LINE
8
0
10
3.57173503
20
70.8031847
11
3.4
21
70.73205
0
LINE
8
0
10
3.4
20
70.73205
11
3.13325834
21
70.5273704
0
LINE
8
0
10
3.13325834
20
70.5273704
11
2.985786
21
70.41421
0
LINE
8
0
10
2.985786
20
70.41421
11
2.7811083
21
70.1474709
0
LINE
8
0
10
2.7811083
20
70.1474709
11
2.667949
21
70
0
LINE
8
0
10
2.667949
20
70
11
2.53928302
21
69.6893743
0
LINE
8
0
10
2.53928302
20
69.6893743
11
2.468148
21
69.51764
0
LINE
8
0
10
2.468148
20
69.51764
11
2.44388531
21
69.333345
0
LINE
8
0
10
2.44388531
20
69.333345
11
2.4
21
69
0
LINE
8
0
10
2.4
20
69
11
2.4
21
62.3223683
0
LINE
8
0
10
2.4
20
62.3223683
11
2.4
21
61.7544629
0
LINE
8
0
10
2.4
20
61.7544629
11
2.4
21
61.11537
0
LINE
8
0
10
2.4
20
61.11537
11
2.4
21
60.4636068
0
LINE
8
0
10
2.4
20
60.4636068
11
2.4
21
56.7895173
0
LINE
8
0
10
2.4
20
56.7895173
11
2.4
21
56.3560607
0
LINE
8
0
10
2.4
20
56.3560607
11
2.4
21
55.8212368
0
LINE
8
0
10
2.4
20
55.8212368
11
2.4
21
55.2527691
0
LINE
8
0
10
2.4
20
55.2527691
11
2.4
21
54.7180029
0
LINE
8
0
10
2.4
20
54.7180029
11
2.4
21
54.2683957
0
LINE
8
0
10
2.4
20
54.2683957
11
2.4
21
49.9731647
0
LINE
8
0
10
2.4
20
49.9731647
11
2.4
21
48.2017384
0
LINE
8
0
10
2.4
20
48.2017384
11
2.4
21
45.3674843
0
LINE
8
0
10
2.4
20
45.3674843
11
2.4
21
43.4779383
0
LINE
8
0
10
2.4
20
43.4779383
11
2.4
21
41.3785168
0
LINE
8
0
10
2.4
20
41.3785168
11
2.4
21
39.6989795
0
LINE
8
0
10
2.4
20
39.6989795
11
10.0655513
21
39.6989795
0
LINE
8
0
10
10.0655513
20
39.6989795
11
16
21
39.6989795
0
LINE
8
0
10
16
20
39.6989795
11
16
21
43.4779383
0
LINE
8
0
10
16
20
43.4779383
11
16
21
45.3674843
0
LINE
8
0
10
16
20
45.3674843
11
16
21
53.6164493
0
LINE
8
0
10
16
20
53.6164493
11
16
21
55.2041031
0
LINE
8
0
10
16
20
55.2041031
11
16
21
55.2041031
0
LINE
8
0
10
16
20
24.4253783
11
16
21
24.1105215
0
LINE
8
0
10
16
20
24.1105215
11
15.5055513
21
24.1105215
0
LINE
8
0
10
15.5055513
20
24.1105215
11
2.4
21
24.1105215
0
LINE
8
0
10
2.4
20
24.1105215
11
2.4
21
24.2504579
0
LINE
8
0
10
2.4
20
24.2504579
11
2.4
21
24.4253783
0
LINE
8
0
10
2.4
20
24.4253783
11
2.4
21
28.3933843
0
LINE
8
0
10
2.4
20
28.3933843
11
2.4
21
31.0387217
0
LINE
8
0
10
2.4
20
31.0387217
11
2.4
21
32.7564302
0
LINE
8
0
10
2.4
20
32.7564302
11
2.4
21
34.8176805
0
LINE
8
0
10
2.4
20
34.8176805
11
8.3344487
21
34.8176805
0
LINE
8
0
10
8.3344487
20
34.8176805
11
16
21
34.8176805
0
LINE
8
0
10
16
20
34.8176805
11
16
21
31.0387217
0
LINE
8
0
10
16
20
31.0387217
11
16
21
24.4253783
0
LINE
8
0
10
16
20
24.4253783
11
16
21
24.4253783
0
ENDSEC
0
EOF
