0
SECTION
2
ENTITIES
0
LINE
8
0
10
16
20
25.4697076
11
16
21
24.5083015
0
LINE
8
0
10
16
20
24.5083015
11
16
21
24.0275982
0
LINE
8
0
10
16
20
24.0275982
11
3.15489292
21
24.0275982
0
LINE
8
0
10
3.15489292
20
24.0275982
11
2.4
21
24.0275982
0
LINE
8
0
10
2.4
20
24.0275982
11
2.4
21
24.2898
0
LINE
8
0
10
2.4
20
24.2898
11
2.4
21
24.5083015
0
LINE
8
0
10
2.4
20
24.5083015
11
2.4
21
28.4729403
0
LINE
8
0
10
2.4
20
28.4729403
11
2.4
21
31.4365015
0
LINE
8
0
10
2.4
20
31.4365015
11
2.4
21
32.7925918
0
LINE
8
0
10
2.4
20
32.7925918
11
2.4
21
34.4199002
0
LINE
8
0
10
2.4
20
34.4199002
11
7.08510708
21
34.4199002
0
LINE
8
0
10
7.08510708
20
34.4199002
11
16
21
34.4199002
0
LINE
8
0
10
16
20
34.4199002
11
16
21
31.4365015
0
LINE
8
0
10
16
20
31.4365015
11
16
21
25.4697076
0
LINE
8
0
10
16
20
25.4697076
11
16
21
25.4697076
0
LINE
8
0
10
16
20
53.232917
11
16
21
54.7314415
0
LINE
8
0
10
16
20
54.7314415
11
16
21
56.2963222
0
LINE
8
0
10
16
20
56.2963222
11
16
21
56.6029965
0
LINE
8
0
10
16
20
56.6029965
11
16
21
57.7049361
0
LINE
8
0
10
16
20
57.7049361
11
16
21
58.638664
0
LINE
8
0
10
16
20
58.638664
11
16
21
58.7840951
0
LINE
8
0
10
16
20
58.7840951
11
16
21
59.9526213
0
LINE
8
0
10
16
20
59.9526213
11
16
21
61.1523982
0
LINE
8
0
10
16
20
61.1523982
11
16
21
62.2740294
0
LINE
8
0
10
16
20
62.2740294
11
16
21
69
0
LINE
8
0
10
16
20
69
11
15.950525
21
69.3757923
0
LINE
8
0
10
15.950525
20
69.3757923
11
15.93185
21
69.51764
0
LINE
8
0
10
15.93185
20
69.51764
11
15.7868007
21
69.86782
0
LINE
8
0
10
15.7868007
20
69.86782
11
15.73205
21
70
0
LINE
8
0
10
15.73205
20
70
11
15.501307
21
70.300705
0
LINE
8
0
10
15.501307
20
70.300705
11
15.41421
21
70.41421
0
LINE
8
0
10
15.41421
20
70.41421
11
15.113505
21
70.644953
0
LINE
8
0
10
15.113505
20
70.644953
11
15
21
70.73205
0
LINE
8
0
10
15
20
70.73205
11
14.64982
21
70.8770993
0
LINE
8
0
10
14.64982
20
70.8770993
11
14.51764
21
70.93185
0
LINE
8
0
10
14.51764
20
70.93185
11
14.3757923
21
70.950525
0
LINE
8
0
10
14.3757923
20
70.950525
11
14
21
71
0
LINE
8
0
10
14
20
71
11
13.6635014
21
71
0
LINE
8
0
10
13.6635014
20
71
11
7.29388784
21
71
0
LINE
8
0
10
7.29388784
20
71
11
4.4
21
71
0
LINE
8
0
10
4.4
20
71
11
4.05163109
21
70.9541352
0
LINE
8
0
10
4.05163109
20
70.9541352
11
3.882362
21
70.93185
0
LINE
8
0
10
3.882362
20
70.93185
11
3.55773374
21
70.7973852
0
LINE
8
0
10
3.55773374
20
70.7973852
11
3.4
21
70.73205
0
LINE
8
0
10
3.4
20
70.73205
11
3.12123515
21
70.5181446
0
LINE
8
0
10
3.12123515
20
70.5181446
11
2.985786
21
70.41421
0
LINE
8
0
10
2.985786
20
70.41421
11
2.7718826
21
70.1354478
0
LINE
8
0
10
2.7718826
20
70.1354478
11
2.667949
21
70
0
LINE
8
0
10
2.667949
20
70
11
2.53348349
21
69.6753731
0
LINE
8
0
10
2.53348349
20
69.6753731
11
2.468148
21
69.51764
0
LINE
8
0
10
2.468148
20
69.51764
11
2.44586341
21
69.3483703
0
LINE
8
0
10
2.44586341
20
69.3483703
11
2.4
21
69
0
LINE
8
0
10
2.4
20
69
11
2.4
21
62.4653065
0
LINE
8
0
10
2.4
20
62.4653065
11
2.4
21
61.9095574
0
LINE
8
0
10
2.4
20
61.9095574
11
2.4
21
61.2841446
0
LINE
8
0
10
2.4
20
61.2841446
11
2.4
21
60.6463328
0
LINE
8
0
10
2.4
20
60.6463328
11
2.4
21
56.5917807
0
LINE
8
0
10
2.4
20
56.5917807
11
2.4
21
56.1734278
0
LINE
8
0
10
2.4
20
56.1734278
11
2.4
21
55.6572398
0
LINE
8
0
10
2.4
20
55.6572398
11
2.4
21
55.1085802
0
LINE
8
0
10
2.4
20
55.1085802
11
2.4
21
54.5924478
0
LINE
8
0
10
2.4
20
54.5924478
11
2.4
21
54.1585072
0
LINE
8
0
10
2.4
20
54.1585072
11
2.4
21
50.0129427
0
LINE
8
0
10
2.4
20
50.0129427
11
2.4
21
48.1221823
0
LINE
8
0
10
2.4
20
48.1221823
11
2.4
21
45.4470403
0
LINE
8
0
10
2.4
20
45.4470403
11
2.4
21
43.0801585
0
LINE
8
0
10
2.4
20
43.0801585
11
2.4
21
41.4227148
0
LINE
8
0
10
2.4
20
41.4227148
11
2.4
21
40.0967598
0
LINE
8
0
10
2.4
20
40.0967598
11
11.3148929
21
40.0967598
0
LINE
8
0
10
11.3148929
20
40.0967598
11
16
21
40.0967598
0
LINE
8
0
10
16
20
40.0967598
11
16
21
43.0801585
0
LINE
8
0
10
16
20
43.0801585
11
16
21
45.4470403
0
LINE
8
0
10
16
20
45.4470403
11
16
21
53.232917
0
LINE
8
0
10
16
20
53.232917
11
16
21
53.232917
0
LINE
8
0
10
16
20
-4.8662646
11
16
21
-4.86795128
0
LINE
8
0
10
16
20
-4.86795128
11
16
21
-6.05608837
0
LINE
8
0
10
16
20
-6.05608837
11
16
21
-6.06427799
0
LINE
8
0
10
16
20
-6.06427799
11
16
21
-7.11056662
0
LINE
8
0
10
16
20
-7.11056662
11
16
21
-7.96941831
0
LINE
8
0
10
16
20
-7.96941831
11
16
21
-14
0
LINE
8
0
10
16
20
-14
11
15.99443
21
-14.0914705
0
LINE
8
0
10
15.99443
20
-14.0914705
11
15.9526226
21
-14.4090226
0
LINE
8
0
10
15.9526226
20
-14.4090226
11
15.93185
21
-14.51764
0
LINE
8
0
10
15.93185
20
-14.51764
11
15.8707542
21
-14.6651383
0
LINE
8
0
10
15.8707542
20
-14.6651383
11
15.73205
21
-15
0
LINE
8
0
10
15.73205
20
-15
11
15.6348594
21
-15.1266591
0
LINE
8
0
10
15.6348594
20
-15.1266591
11
15.41421
21
-15.41421
0
LINE
8
0
10
15.41421
20
-15.41421
11
15.2875509
21
-15.5114006
0
LINE
8
0
10
15.2875509
20
-15.5114006
11
14.9991461
21
-15.7325429
0
LINE
8
0
10
14.9991461
20
-15.7325429
11
14.8516478
21
-15.7936387
0
LINE
8
0
10
14.8516478
20
-15.7936387
11
14.51764
21
-15.93185
0
LINE
8
0
10
14.51764
20
-15.93185
11
14.3593536
21
-15.9526892
0
LINE
8
0
10
14.3593536
20
-15.9526892
11
14.1169036
21
-15.9901034
0
LINE
8
0
10
14.1169036
20
-15.9901034
11
14
21
-16
0
LINE
8
0
10
14
20
-16
11
7.73223183
21
-16
0
LINE
8
0
10
7.73223183
20
-16
11
4.4
21
-16
0
LINE
8
0
10
4.4
20
-16
11
4.11207295
21
-15.971723
0
LINE
8
0
10
4.11207295
20
-15.971723
11
3.91794874
21
-15.9401371
0
LINE
8
0
10
3.91794874
20
-15.9401371
11
3.882362
21
-15.93185
0
LINE
8
0
10
3.882362
20
-15.93185
11
3.81434669
21
-15.9088046
0
LINE
8
0
10
3.81434669
20
-15.9088046
11
3.46608361
21
-15.7646469
0
LINE
8
0
10
3.46608361
20
-15.7646469
11
3.40058652
21
-15.7323899
0
LINE
8
0
10
3.40058652
20
-15.7323899
11
3.37042291
21
-15.7136596
0
LINE
8
0
10
3.37042291
20
-15.7136596
11
3.07027219
21
-15.4834543
0
LINE
8
0
10
3.07027219
20
-15.4834543
11
2.985786
21
-15.41421
0
LINE
8
0
10
2.985786
20
-15.41421
11
2.91732533
21
-15.3308966
0
LINE
8
0
10
2.91732533
20
-15.3308966
11
2.68746206
21
-15.0313353
0
LINE
8
0
10
2.68746206
20
-15.0313353
11
2.667949
21
-15
0
LINE
8
0
10
2.667949
20
-15
11
2.6359857
21
-14.9352093
0
LINE
8
0
10
2.6359857
20
-14.9352093
11
2.49148739
21
-14.5863611
0
LINE
8
0
10
2.49148739
20
-14.5863611
11
2.468148
21
-14.51764
0
LINE
8
0
10
2.468148
20
-14.51764
11
2.46004971
21
-14.4829999
0
LINE
8
0
10
2.46004971
20
-14.4829999
11
2.4492854
21
-14.374363
0
LINE
8
0
10
2.4492854
20
-14.374363
11
2.42464269
21
-14.1871814
0
LINE
8
0
10
2.42464269
20
-14.1871814
11
2.40347914
21
-14.05715
0
LINE
8
0
10
2.40347914
20
-14.05715
11
2.4
21
-14
0
LINE
8
0
10
2.4
20
-14
11
2.4
21
-13.966941
0
LINE
8
0
10
2.4
20
-13.966941
11
2.4
21
-4.83265318
0
LINE
8
0
10
2.4
20
-4.83265318
11
2.4
21
-4.77676216
0
LINE
8
0
10
2.4
20
-4.77676216
11
2.4
21
-4.18950864
0
LINE
8
0
10
2.4
20
-4.18950864
11
2.4
21
-2.24681658
0
LINE
8
0
10
2.4
20
-2.24681658
11
2.4
21
-1.79977628
0
LINE
8
0
10
2.4
20
-1.79977628
11
2.4
21
-1.25832471
0
LINE
8
0
10
2.4
20
-1.25832471
11
2.4
21
-0.671206518
0
LINE
8
0
10
2.4
20
-0.671206518
11
2.4
21
1.95781848
0
LINE
8
0
10
2.4
20
1.95781848
11
2.4
21
2.53294486
0
LINE
8
0
10
2.4
20
2.53294486
11
2.4
21
3.11474577
0
LINE
8
0
10
2.4
20
3.11474577
11
2.4
21
4.88722772
0
LINE
8
0
10
2.4
20
4.88722772
11
2.4
21
7.05807922
0
LINE
8
0
10
2.4
20
7.05807922
11
2.4
21
9.32424053
0
LINE
8
0
10
2.4
20
9.32424053
11
2.4
21
11.4988403
0
LINE
8
0
10
2.4
20
11.4988403
11
2.4
21
15.3673478
0
LINE
8
0
10
2.4
20
15.3673478
11
2.4
21
15.6344056
0
LINE
8
0
10
2.4
20
15.6344056
11
2.4
21
15.8480512
0
LINE
8
0
10
2.4
20
15.8480512
11
15.2451071
21
15.8480512
0
LINE
8
0
10
15.2451071
20
15.8480512
11
16
21
15.8480512
0
LINE
8
0
10
16
20
15.8480512
11
16
21
15.3673478
0
LINE
8
0
10
16
20
15.3673478
11
16
21
11.4988403
0
LINE
8
0
10
16
20
11.4988403
11
16
21
5.35013598
0
LINE
8
0
10
16
20
5.35013598
11
16
21
5.32902453
0
LINE
8
0
10
16
20
5.32902453
11
16
21
5.31841943
0
LINE
8
0
10
16
20
5.31841943
11
16
21
2.55821616
0
LINE
8
0
10
16
20
2.55821616
11
16
21
1.5089469
0
LINE
8
0
10
16
20
1.5089469
11
16
21
0.572822763
0
LINE
8
0
10
16
20
0.572822763
11
15.8338222
21
0.127307239
0
LINE
8
0
10
15.8338222
20
0.127307239
11
15.8185404
21
0.074733871
0
LINE
8
0
10
15.8185404
20
0.074733871
11
15.591654
21
-0.883247833
0
LINE
8
0
10
15.591654
20
-0.883247833
11
15.5803077
21
-1.00127197
0
LINE
8
0
10
15.5803077
20
-1.00127197
11
15.502364
21
-1.84646368
0
LINE
8
0
10
15.502364
20
-1.84646368
11
15.5475351
21
-2.67319578
0
LINE
8
0
10
15.5475351
20
-2.67319578
11
15.5608776
21
-2.79877293
0
LINE
8
0
10
15.5608776
20
-2.79877293
11
15.742213
21
-3.70391599
0
LINE
8
0
10
15.742213
20
-3.70391599
11
15.7638102
21
-3.77560958
0
LINE
8
0
10
15.7638102
20
-3.77560958
11
16
21
-4.47449912
0
LINE
8
0
10
16
20
-4.47449912
11
16
21
-4.86448279
0
LINE
8
0
10
16
20
-4.86448279
11
16
21
-4.8662646
0
LINE
8
0
10
16
20
-4.8662646
11
16
21
-4.8662646
0
ENDSEC
0
EOF
