0
SECTION
2
ENTITIES
0
LINE
8
0
10
16
20
27.4586066
11
16
21
31.8342813
0
LINE
8
0
10
16
20
31.8342813
11
16
21
34.0221199
0
LINE
8
0
10
16
20
34.0221199
11
5.83576547
21
34.0221199
0
LINE
8
0
10
5.83576547
20
34.0221199
11
2.4
21
34.0221199
0
LINE
8
0
10
2.4
20
34.0221199
11
2.4
21
32.8287534
0
LINE
8
0
10
2.4
20
32.8287534
11
2.4
21
31.8342813
0
LINE
8
0
10
2.4
20
31.8342813
11
2.4
21
28.5524963
0
LINE
8
0
10
2.4
20
28.5524963
11
2.4
21
24.9060813
0
LINE
8
0
10
2.4
20
24.9060813
11
2.4
21
24.3259616
0
LINE
8
0
10
2.4
20
24.3259616
11
2.4
21
23.6298179
0
LINE
8
0
10
2.4
20
23.6298179
11
4.40423453
21
23.6298179
0
LINE
8
0
10
4.40423453
20
23.6298179
11
16
21
23.6298179
0
LINE
8
0
10
16
20
23.6298179
11
16
21
24.9060813
0
LINE
8
0
10
16
20
24.9060813
11
16
21
27.4586066
0
LINE
8
0
10
16
20
27.4586066
11
16
21
27.4586066
0
LINE
8
0
10
16
20
16.2458306
11
16
21
14.9695668
0
LINE
8
0
10
16
20
14.9695668
11
16
21
11.5783963
0
LINE
8
0
10
16
20
11.5783963
11
16
21
6.1883834
0
LINE
8
0
10
16
20
6.1883834
11
16
21
6.1698769
0
LINE
8
0
10
16
20
6.1698769
11
16
21
6.16058037
0
LINE
8
0
10
16
20
6.16058037
11
16
21
3.74095985
0
LINE
8
0
10
16
20
3.74095985
11
16
21
1.84093694
0
LINE
8
0
10
16
20
1.84093694
11
16
21
0.23722315
0
LINE
8
0
10
16
20
0.23722315
11
16
21
0.113408716
0
LINE
8
0
10
16
20
0.113408716
11
15.7736972
21
-0.842109086
0
LINE
8
0
10
15.7736972
20
-0.842109086
11
15.7674092
21
-0.907517328
0
LINE
8
0
10
15.7674092
20
-0.907517328
11
15.6818864
21
-1.83489345
0
LINE
8
0
10
15.6818864
20
-1.83489345
11
15.7314498
21
-2.74201499
0
LINE
8
0
10
15.7314498
20
-2.74201499
11
15.739369
21
-2.81654842
0
LINE
8
0
10
15.739369
20
-2.81654842
11
15.9376972
21
-3.80651168
0
LINE
8
0
10
15.9376972
20
-3.80651168
11
15.9429168
21
-3.82383883
0
LINE
8
0
10
15.9429168
20
-3.82383883
11
16
21
-3.99274886
0
LINE
8
0
10
16
20
-3.99274886
11
16
21
-5.0195704
0
LINE
8
0
10
16
20
-5.0195704
11
16
21
-5.02426188
0
LINE
8
0
10
16
20
-5.02426188
11
16
21
-5.02870287
0
LINE
8
0
10
16
20
-5.02870287
11
16
21
-6.19553935
0
LINE
8
0
10
16
20
-6.19553935
11
16
21
-6.20623706
0
LINE
8
0
10
16
20
-6.20623706
11
16
21
-7.23380904
0
LINE
8
0
10
16
20
-7.23380904
11
16
21
-8.07729707
0
LINE
8
0
10
16
20
-8.07729707
11
16
21
-14
0
LINE
8
0
10
16
20
-14
11
15.9942726
21
-14.0940552
0
LINE
8
0
10
15.9942726
20
-14.0940552
11
15.9532096
21
-14.4059535
0
LINE
8
0
10
15.9532096
20
-14.4059535
11
15.93185
21
-14.51764
0
LINE
8
0
10
15.93185
20
-14.51764
11
15.8746735
21
-14.6556763
0
LINE
8
0
10
15.8746735
20
-14.6556763
11
15.73205
21
-15
0
LINE
8
0
10
15.73205
20
-15
11
15.6410941
21
-15.1185339
0
LINE
8
0
10
15.6410941
20
-15.1185339
11
15.41421
21
-15.41421
0
LINE
8
0
10
15.41421
20
-15.41421
11
15.2956761
21
-15.5051659
0
LINE
8
0
10
15.2956761
20
-15.5051659
11
14.999122
21
-15.7325568
0
LINE
8
0
10
14.999122
20
-15.7325568
11
14.8610856
21
-15.7897333
0
LINE
8
0
10
14.8610856
20
-15.7897333
11
14.51764
21
-15.93185
0
LINE
8
0
10
14.51764
20
-15.93185
11
14.3695076
21
-15.9513524
0
LINE
8
0
10
14.3695076
20
-15.9513524
11
14.1202068
21
-15.9898238
0
LINE
8
0
10
14.1202068
20
-15.9898238
11
14
21
-16
0
LINE
8
0
10
14
20
-16
11
7.82638873
21
-16
0
LINE
8
0
10
7.82638873
20
-16
11
4.4
21
-16
0
LINE
8
0
10
4.4
20
-16
11
4.11493083
21
-15.9720036
0
LINE
8
0
10
4.11493083
20
-15.9720036
11
3.91532136
21
-15.9395252
0
LINE
8
0
10
3.91532136
20
-15.9395252
11
3.882362
21
-15.93185
0
LINE
8
0
10
3.882362
20
-15.93185
11
3.81936826
21
-15.910506
0
LINE
8
0
10
3.81936826
20
-15.910506
11
3.46126453
21
-15.7622749
0
LINE
8
0
10
3.46126453
20
-15.7622749
11
3.4006031
21
-15.7323995
0
LINE
8
0
10
3.4006031
20
-15.7323995
11
3.37266647
21
-15.7150521
0
LINE
8
0
10
3.37266647
20
-15.7150521
11
3.06403456
21
-15.4783419
0
LINE
8
0
10
3.06403456
20
-15.4783419
11
2.985786
21
-15.41421
0
LINE
8
0
10
2.985786
20
-15.41421
11
2.92237979
21
-15.3370476
0
LINE
8
0
10
2.92237979
20
-15.3370476
11
2.68602141
21
-15.0290218
0
LINE
8
0
10
2.68602141
20
-15.0290218
11
2.667949
21
-15
0
LINE
8
0
10
2.667949
20
-15
11
2.63834556
21
-14.9399928
0
LINE
8
0
10
2.63834556
20
-14.9399928
11
2.48976424
21
-14.5812874
0
LINE
8
0
10
2.48976424
20
-14.5812874
11
2.468148
21
-14.51764
0
LINE
8
0
10
2.468148
20
-14.51764
11
2.46064761
21
-14.4855574
0
LINE
8
0
10
2.46064761
20
-14.4855574
11
2.45067802
21
-14.3849412
0
LINE
8
0
10
2.45067802
20
-14.3849412
11
2.425339
21
-14.1924705
0
LINE
8
0
10
2.425339
20
-14.1924705
11
2.40357745
21
-14.0587649
0
LINE
8
0
10
2.40357745
20
-14.0587649
11
2.4
21
-14
0
LINE
8
0
10
2.4
20
-14
11
2.4
21
-13.9672377
0
LINE
8
0
10
2.4
20
-13.9672377
11
2.4
21
-4.9149348
0
LINE
8
0
10
2.4
20
-4.9149348
11
2.4
21
-4.85490342
0
LINE
8
0
10
2.4
20
-4.85490342
11
2.4
21
-4.27291042
0
LINE
8
0
10
2.4
20
-4.27291042
11
2.4
21
-2.16513131
0
LINE
8
0
10
2.4
20
-2.16513131
11
2.4
21
-1.72393664
0
LINE
8
0
10
2.4
20
-1.72393664
11
2.4
21
-1.18956526
0
LINE
8
0
10
2.4
20
-1.18956526
11
2.4
21
-0.6101244
0
LINE
8
0
10
2.4
20
-0.6101244
11
2.4
21
2.26617138
0
LINE
8
0
10
2.4
20
2.26617138
11
2.4
21
2.81101215
0
LINE
8
0
10
2.4
20
2.81101215
11
2.4
21
3.36217597
0
LINE
8
0
10
2.4
20
3.36217597
11
2.4
21
5.0413207
0
LINE
8
0
10
2.4
20
5.0413207
11
2.4
21
7.09785722
0
LINE
8
0
10
2.4
20
7.09785722
11
2.4
21
9.24468463
0
LINE
8
0
10
2.4
20
9.24468463
11
2.4
21
11.5783963
0
LINE
8
0
10
2.4
20
11.5783963
11
2.4
21
14.9695668
0
LINE
8
0
10
2.4
20
14.9695668
11
2.4
21
15.6786031
0
LINE
8
0
10
2.4
20
15.6786031
11
2.4
21
16.2458306
0
LINE
8
0
10
2.4
20
16.2458306
11
13.9957655
21
16.2458306
0
LINE
8
0
10
13.9957655
20
16.2458306
11
16
21
16.2458306
0
LINE
8
0
10
16
20
16.2458306
11
16
21
16.2458306
0
LINE
8
0
10
16
20
57.4670115
11
16
21
56.404855
0
LINE
8
0
10
16
20
56.404855
11
16
21
55.7305846
0
LINE
8
0
10
16
20
55.7305846
11
16
21
54.2587799
0
LINE
8
0
10
16
20
54.2587799
11
16
21
52.8493846
0
LINE
8
0
10
16
20
52.8493846
11
16
21
45.5265963
0
LINE
8
0
10
16
20
45.5265963
11
16
21
42.6823787
0
LINE
8
0
10
16
20
42.6823787
11
16
21
40.4945401
0
LINE
8
0
10
16
20
40.4945401
11
12.5642345
21
40.4945401
0
LINE
8
0
10
12.5642345
20
40.4945401
11
2.4
21
40.4945401
0
LINE
8
0
10
2.4
20
40.4945401
11
2.4
21
41.4669128
0
LINE
8
0
10
2.4
20
41.4669128
11
2.4
21
42.6823787
0
LINE
8
0
10
2.4
20
42.6823787
11
2.4
21
45.5265963
0
LINE
8
0
10
2.4
20
45.5265963
11
2.4
21
48.0426262
0
LINE
8
0
10
2.4
20
48.0426262
11
2.4
21
50.0527206
0
LINE
8
0
10
2.4
20
50.0527206
11
2.4
21
54.0486186
0
LINE
8
0
10
2.4
20
54.0486186
11
2.4
21
54.4668928
0
LINE
8
0
10
2.4
20
54.4668928
11
2.4
21
54.9643913
0
LINE
8
0
10
2.4
20
54.9643913
11
2.4
21
55.4932428
0
LINE
8
0
10
2.4
20
55.4932428
11
2.4
21
55.990795
0
LINE
8
0
10
2.4
20
55.990795
11
2.4
21
56.3940441
0
LINE
8
0
10
2.4
20
56.3940441
11
2.4
21
60.8290587
0
LINE
8
0
10
2.4
20
60.8290587
11
2.4
21
61.4529193
0
LINE
8
0
10
2.4
20
61.4529193
11
2.4
21
62.064652
0
LINE
8
0
10
2.4
20
62.064652
11
2.4
21
62.6082447
0
LINE
8
0
10
2.4
20
62.6082447
11
2.4
21
69
0
LINE
8
0
10
2.4
20
69
11
2.44784151
21
69.3633955
0
LINE
8
0
10
2.44784151
20
69.3633955
11
2.468148
21
69.51764
0
LINE
8
0
10
2.468148
20
69.51764
11
2.52768396
21
69.6613719
0
LINE
8
0
10
2.52768396
20
69.6613719
11
2.667949
21
70
0
LINE
8
0
10
2.667949
20
70
11
2.7626569
21
70.1234248
0
LINE
8
0
10
2.7626569
20
70.1234248
11
2.985786
21
70.41421
0
LINE
8
0
10
2.985786
20
70.41421
11
3.10921196
21
70.5089188
0
LINE
8
0
10
3.10921196
20
70.5089188
11
3.4
21
70.73205
0
LINE
8
0
10
3.4
20
70.73205
11
3.54373245
21
70.7915857
0
LINE
8
0
10
3.54373245
20
70.7915857
11
3.882362
21
70.93185
0
LINE
8
0
10
3.882362
20
70.93185
11
4.03660586
21
70.9521571
0
LINE
8
0
10
4.03660586
20
70.9521571
11
4.4
21
71
0
LINE
8
0
10
4.4
20
71
11
7.41870186
21
71
0
LINE
8
0
10
7.41870186
20
71
11
13.6489882
21
71
0
LINE
8
0
10
13.6489882
20
71
11
14
21
71
0
LINE
8
0
10
14
20
71
11
14.3920003
21
70.9483911
0
LINE
8
0
10
14.3920003
20
70.9483911
11
14.51764
21
70.93185
0
LINE
8
0
10
14.51764
20
70.93185
11
14.6347167
21
70.8833553
0
LINE
8
0
10
14.6347167
20
70.8833553
11
15
21
70.73205
0
LINE
8
0
10
15
20
70.73205
11
15.1005356
21
70.654905
0
LINE
8
0
10
15.1005356
20
70.654905
11
15.41421
21
70.41421
0
LINE
8
0
10
15.41421
20
70.41421
11
15.491355
21
70.3136744
0
LINE
8
0
10
15.491355
20
70.3136744
11
15.73205
21
70
0
LINE
8
0
10
15.73205
20
70
11
15.7805447
21
69.8829233
0
LINE
8
0
10
15.7805447
20
69.8829233
11
15.93185
21
69.51764
0
LINE
8
0
10
15.93185
20
69.51764
11
15.9483911
21
69.3920003
0
LINE
8
0
10
15.9483911
20
69.3920003
11
16
21
69
0
LINE
8
0
10
16
20
69
11
16
21
62.4393313
0
LINE
8
0
10
16
20
62.4393313
11
16
21
61.345266
0
LINE
8
0
10
16
20
61.345266
11
16
21
60.1749757
0
LINE
8
0
10
16
20
60.1749757
11
16
21
59.035168
0
LINE
8
0
10
16
20
59.035168
11
16
21
58.3670292
0
LINE
8
0
10
16
20
58.3670292
11
16
21
57.4670115
0
LINE
8
0
10
16
20
57.4670115
11
16
21
57.4670115
0
ENDSEC
0
EOF
