0
SECTION
2
ENTITIES
0
LINE
8
0
10
16
20
-2.8466654
11
16
21
-1.27480016
0
LINE
8
0
10
16
20
-1.27480016
11
16
21
-1.25160693
0
LINE
8
0
10
16
20
-1.25160693
11
16
21
-1.2307238
0
LINE
8
0
10
16
20
-1.2307238
11
16
21
-0.926091896
0
LINE
8
0
10
16
20
-0.926091896
11
16
21
-0.639899659
0
LINE
8
0
10
16
20
-0.639899659
11
16
21
-0.13143113
0
LINE
8
0
10
16
20
-0.13143113
11
16
21
2.91573664
0
LINE
8
0
10
16
20
2.91573664
11
16
21
51.402496
0
LINE
8
0
10
16
20
51.402496
11
16
21
54.7342326
0
LINE
8
0
10
16
20
54.7342326
11
16
21
55.4434349
0
LINE
8
0
10
16
20
55.4434349
11
16
21
55.6805821
0
LINE
8
0
10
16
20
55.6805821
11
16
21
55.999673
0
LINE
8
0
10
16
20
55.999673
11
16
21
56.0188423
0
LINE
8
0
10
16
20
56.0188423
11
16
21
56.0396022
0
LINE
8
0
10
16
20
56.0396022
11
16
21
57.5701583
0
LINE
8
0
10
16
20
57.5701583
11
16
21
58.0415694
0
LINE
8
0
10
16
20
58.0415694
11
15.975996
21
59.0747717
0
LINE
8
0
10
15.975996
20
59.0747717
11
15.93185
21
60.2591889
0
LINE
8
0
10
15.93185
20
60.2591889
11
15.9185643
21
60.3748681
0
LINE
8
0
10
15.9185643
20
60.3748681
11
15.905882
21
60.4852968
0
LINE
8
0
10
15.905882
20
60.4852968
11
15.8084897
21
61.0987584
0
LINE
8
0
10
15.8084897
20
61.0987584
11
15.73205
21
61.5802239
0
LINE
8
0
10
15.73205
20
61.5802239
11
15.6664536
21
61.8032545
0
LINE
8
0
10
15.6664536
20
61.8032545
11
15.5577274
21
62.1729393
0
LINE
8
0
10
15.5577274
20
62.1729393
11
15.4614992
21
62.4317905
0
LINE
8
0
10
15.4614992
20
62.4317905
11
15.41421
21
62.5589918
0
LINE
8
0
10
15.41421
20
62.5589918
11
15.1763743
21
62.9356814
0
LINE
8
0
10
15.1763743
20
62.9356814
11
15
21
63.2150252
0
LINE
8
0
10
15
20
63.2150252
11
14.8304041
21
63.36002
0
LINE
8
0
10
14.8304041
20
63.36002
11
14.51764
21
63.627427
0
LINE
8
0
10
14.51764
20
63.627427
11
14.41363
21
63.655691
0
LINE
8
0
10
14.41363
20
63.655691
11
14
21
63.7680879
0
LINE
8
0
10
14
20
63.7680879
11
12.6150414
21
63.7680879
0
LINE
8
0
10
12.6150414
20
63.7680879
11
4.4
21
63.7680879
0
LINE
8
0
10
4.4
20
63.7680879
11
4.31922699
21
63.7461384
0
LINE
8
0
10
4.31922699
20
63.7461384
11
3.882362
21
63.627427
0
LINE
8
0
10
3.882362
20
63.627427
11
3.7482987
21
63.5128101
0
LINE
8
0
10
3.7482987
20
63.5128101
11
3.4
21
63.2150252
0
LINE
8
0
10
3.4
20
63.2150252
11
3.12190896
21
62.7745833
0
LINE
8
0
10
3.12190896
20
62.7745833
11
2.985786
21
62.5589918
0
LINE
8
0
10
2.985786
20
62.5589918
11
2.84226994
21
62.1729393
0
LINE
8
0
10
2.84226994
20
62.1729393
11
2.667949
21
61.5802239
0
LINE
8
0
10
2.667949
20
61.5802239
11
2.49411614
21
60.4852968
0
LINE
8
0
10
2.49411614
20
60.4852968
11
2.468148
21
60.2591889
0
LINE
8
0
10
2.468148
20
60.2591889
11
2.42400333
21
59.0747717
0
LINE
8
0
10
2.42400333
20
59.0747717
11
2.4
21
58.0415694
0
LINE
8
0
10
2.4
20
58.0415694
11
2.4
21
57.5708615
0
LINE
8
0
10
2.4
20
57.5708615
11
2.4
21
57.5656933
0
LINE
8
0
10
2.4
20
57.5656933
11
2.4
21
56.0231138
0
LINE
8
0
10
2.4
20
56.0231138
11
2.4
21
56.0129025
0
LINE
8
0
10
2.4
20
56.0129025
11
2.4
21
56.0044172
0
LINE
8
0
10
2.4
20
56.0044172
11
2.4
21
55.9983172
0
LINE
8
0
10
2.4
20
55.9983172
11
2.4
21
55.9181038
0
LINE
8
0
10
2.4
20
55.9181038
11
2.4
21
55.8367185
0
LINE
8
0
10
2.4
20
55.8367185
11
2.4
21
55.6805821
0
LINE
8
0
10
2.4
20
55.6805821
11
2.4
21
55.4434349
0
LINE
8
0
10
2.4
20
55.4434349
11
2.4
21
54.7342326
0
LINE
8
0
10
2.4
20
54.7342326
11
2.4
21
51.402496
0
LINE
8
0
10
2.4
20
51.402496
11
2.4
21
2.91573664
0
LINE
8
0
10
2.4
20
2.91573664
11
2.4
21
-0.13143113
0
LINE
8
0
10
2.4
20
-0.13143113
11
2.4
21
-0.639899659
0
LINE
8
0
10
2.4
20
-0.639899659
11
2.4
21
-0.926091896
0
LINE
8
0
10
2.4
20
-0.926091896
11
2.4
21
-1.05389776
0
LINE
8
0
10
2.4
20
-1.05389776
11
2.4
21
-1.15698568
0
LINE
8
0
10
2.4
20
-1.15698568
11
2.4
21
-1.24564739
0
LINE
8
0
10
2.4
20
-1.24564739
11
2.4
21
-1.25343862
0
LINE
8
0
10
2.4
20
-1.25343862
11
2.4
21
-1.2631609
0
LINE
8
0
10
2.4
20
-1.2631609
11
2.4
21
-1.27385813
0
LINE
8
0
10
2.4
20
-1.27385813
11
2.4
21
-2.85088154
0
LINE
8
0
10
2.4
20
-2.85088154
11
2.4
21
-2.8558421
0
LINE
8
0
10
2.4
20
-2.8558421
11
2.4
21
-3.30486206
0
LINE
8
0
10
2.4
20
-3.30486206
11
2.42591952
21
-4.3990944
0
LINE
8
0
10
2.42591952
20
-4.3990944
11
2.468148
21
-5.50413003
0
LINE
8
0
10
2.468148
20
-5.50413003
11
2.49013749
21
-5.69067049
0
LINE
8
0
10
2.49013749
20
-5.69067049
11
2.51233533
21
-5.87897417
0
LINE
8
0
10
2.51233533
20
-5.87897417
11
2.60162986
21
-6.42732175
0
LINE
8
0
10
2.60162986
20
-6.42732175
11
2.667949
21
-6.83458505
0
LINE
8
0
10
2.667949
20
-6.83458505
11
2.75478974
21
-7.12246187
0
LINE
8
0
10
2.75478974
20
-7.12246187
11
2.90730585
21
-7.62805955
0
LINE
8
0
10
2.90730585
20
-7.62805955
11
2.96090428
21
-7.76876111
0
LINE
8
0
10
2.96090428
20
-7.76876111
11
2.985786
21
-7.83407719
0
LINE
8
0
10
2.985786
20
-7.83407719
11
3.25927015
21
-8.2567692
0
LINE
8
0
10
3.25927015
20
-8.2567692
11
3.4
21
-8.47428089
0
LINE
8
0
10
3.4
20
-8.47428089
11
3.61977307
21
-8.65764801
0
LINE
8
0
10
3.61977307
20
-8.65764801
11
3.882362
21
-8.8767335
0
LINE
8
0
10
3.882362
20
-8.8767335
11
4.05076073
21
-8.92138676
0
LINE
8
0
10
4.05076073
20
-8.92138676
11
4.4
21
-9.01400524
0
LINE
8
0
10
4.4
20
-9.01400524
11
7.09078212
21
-9.01400524
0
LINE
8
0
10
7.09078212
20
-9.01400524
11
14
21
-9.01400524
0
LINE
8
0
10
14
20
-9.01400524
11
14.1562244
21
-8.97257995
0
LINE
8
0
10
14.1562244
20
-8.97257995
11
14.51764
21
-8.8767335
0
LINE
8
0
10
14.51764
20
-8.8767335
11
14.7304836
21
-8.6991479
0
LINE
8
0
10
14.7304836
20
-8.6991479
11
15
21
-8.47428089
0
LINE
8
0
10
15
20
-8.47428089
11
15.3460018
21
-7.93950043
0
LINE
8
0
10
15.3460018
20
-7.93950043
11
15.41421
21
-7.83407719
0
LINE
8
0
10
15.41421
20
-7.83407719
11
15.4926909
21
-7.62805955
0
LINE
8
0
10
15.4926909
20
-7.62805955
11
15.73205
21
-6.83458505
0
LINE
8
0
10
15.73205
20
-6.83458505
11
15.8876629
21
-5.87897417
0
LINE
8
0
10
15.8876629
20
-5.87897417
11
15.93185
21
-5.50413003
0
LINE
8
0
10
15.93185
20
-5.50413003
11
15.9740797
21
-4.3990944
0
LINE
8
0
10
15.9740797
20
-4.3990944
11
16
21
-3.30486206
0
LINE
8
0
10
16
20
-3.30486206
11
16
21
-2.8466654
0
LINE
8
0
10
16
20
-2.8466654
11
16
21
-2.8466654
0
ENDSEC
0
EOF
