0
SECTION
2
ENTITIES
0
LINE
8
0
10
16
20
23.2320377
11
16
21
25.3038611
0
LINE
8
0
10
16
20
25.3038611
11
16
21
29.4475057
0
LINE
8
0
10
16
20
29.4475057
11
16
21
32.2320611
0
LINE
8
0
10
16
20
32.2320611
11
16
21
33.6243397
0
LINE
8
0
10
16
20
33.6243397
11
4.58642385
21
33.6243397
0
LINE
8
0
10
4.58642385
20
33.6243397
11
2.4
21
33.6243397
0
LINE
8
0
10
2.4
20
33.6243397
11
2.4
21
32.864915
0
LINE
8
0
10
2.4
20
32.864915
11
2.4
21
32.2320611
0
LINE
8
0
10
2.4
20
32.2320611
11
2.4
21
28.6320522
0
LINE
8
0
10
2.4
20
28.6320522
11
2.4
21
25.3038611
0
LINE
8
0
10
2.4
20
25.3038611
11
2.4
21
24.3621232
0
LINE
8
0
10
2.4
20
24.3621232
11
2.4
21
23.2320377
0
LINE
8
0
10
2.4
20
23.2320377
11
5.65357615
21
23.2320377
0
LINE
8
0
10
5.65357615
20
23.2320377
11
16
21
23.2320377
0
LINE
8
0
10
16
20
23.2320377
11
16
21
23.2320377
0
LINE
8
0
10
16
20
-3.9602816
11
16
21
-5.17465801
0
LINE
8
0
10
16
20
-5.17465801
11
16
21
-5.18225916
0
LINE
8
0
10
16
20
-5.18225916
11
16
21
-5.18945447
0
LINE
8
0
10
16
20
-5.18945447
11
16
21
-6.33499033
0
LINE
8
0
10
16
20
-6.33499033
11
16
21
-6.34819614
0
LINE
8
0
10
16
20
-6.34819614
11
16
21
-7.35705146
0
LINE
8
0
10
16
20
-7.35705146
11
16
21
-8.18517582
0
LINE
8
0
10
16
20
-8.18517582
11
16
21
-14
0
LINE
8
0
10
16
20
-14
11
15.9941152
21
-14.0966398
0
LINE
8
0
10
15.9941152
20
-14.0966398
11
15.9537965
21
-14.4028843
0
LINE
8
0
10
15.9537965
20
-14.4028843
11
15.93185
21
-14.51764
0
LINE
8
0
10
15.93185
20
-14.51764
11
15.8785928
21
-14.6462144
0
LINE
8
0
10
15.8785928
20
-14.6462144
11
15.73205
21
-15
0
LINE
8
0
10
15.73205
20
-15
11
15.6473289
21
-15.1104088
0
LINE
8
0
10
15.6473289
20
-15.1104088
11
15.41421
21
-15.41421
0
LINE
8
0
10
15.41421
20
-15.41421
11
15.3038012
21
-15.4989311
0
LINE
8
0
10
15.3038012
20
-15.4989311
11
14.9990979
21
-15.7325707
0
LINE
8
0
10
14.9990979
20
-15.7325707
11
14.8705235
21
-15.785828
0
LINE
8
0
10
14.8705235
20
-15.785828
11
14.51764
21
-15.93185
0
LINE
8
0
10
14.51764
20
-15.93185
11
14.3796617
21
-15.9500156
0
LINE
8
0
10
14.3796617
20
-15.9500156
11
14.1235101
21
-15.9895442
0
LINE
8
0
10
14.1235101
20
-15.9895442
11
14
21
-16
0
LINE
8
0
10
14
20
-16
11
7.92054563
21
-16
0
LINE
8
0
10
7.92054563
20
-16
11
4.4
21
-16
0
LINE
8
0
10
4.4
20
-16
11
4.11778871
21
-15.9722843
0
LINE
8
0
10
4.11778871
20
-15.9722843
11
3.91269399
21
-15.9389134
0
LINE
8
0
10
3.91269399
20
-15.9389134
11
3.882362
21
-15.93185
0
LINE
8
0
10
3.882362
20
-15.93185
11
3.82438984
21
-15.9122075
0
LINE
8
0
10
3.82438984
20
-15.9122075
11
3.45644544
21
-15.759903
0
LINE
8
0
10
3.45644544
20
-15.759903
11
3.40061967
21
-15.7324091
0
LINE
8
0
10
3.40061967
20
-15.7324091
11
3.37491002
21
-15.7164445
0
LINE
8
0
10
3.37491002
20
-15.7164445
11
3.05779694
21
-15.4732296
0
LINE
8
0
10
3.05779694
20
-15.4732296
11
2.985786
21
-15.41421
0
LINE
8
0
10
2.985786
20
-15.41421
11
2.92743425
21
-15.3431986
0
LINE
8
0
10
2.92743425
20
-15.3431986
11
2.68458075
21
-15.0267083
0
LINE
8
0
10
2.68458075
20
-15.0267083
11
2.667949
21
-15
0
LINE
8
0
10
2.667949
20
-15
11
2.64070541
21
-14.9447763
0
LINE
8
0
10
2.64070541
20
-14.9447763
11
2.48804109
21
-14.5762137
0
LINE
8
0
10
2.48804109
20
-14.5762137
11
2.468148
21
-14.51764
0
LINE
8
0
10
2.468148
20
-14.51764
11
2.46124551
21
-14.4881148
0
LINE
8
0
10
2.46124551
20
-14.4881148
11
2.45207065
21
-14.3955193
0
LINE
8
0
10
2.45207065
20
-14.3955193
11
2.42603531
21
-14.1977596
0
LINE
8
0
10
2.42603531
20
-14.1977596
11
2.40367575
21
-14.0603797
0
LINE
8
0
10
2.40367575
20
-14.0603797
11
2.4
21
-14
0
LINE
8
0
10
2.4
20
-14
11
2.4
21
-13.9675345
0
LINE
8
0
10
2.4
20
-13.9675345
11
2.4
21
-4.99721642
0
LINE
8
0
10
2.4
20
-4.99721642
11
2.4
21
-4.93304467
0
LINE
8
0
10
2.4
20
-4.93304467
11
2.4
21
-4.35631219
0
LINE
8
0
10
2.4
20
-4.35631219
11
2.4
21
-2.08344604
0
LINE
8
0
10
2.4
20
-2.08344604
11
2.4
21
-1.648097
0
LINE
8
0
10
2.4
20
-1.648097
11
2.4
21
-1.12080581
0
LINE
8
0
10
2.4
20
-1.12080581
11
2.4
21
-0.549042283
0
LINE
8
0
10
2.4
20
-0.549042283
11
2.4
21
2.57452427
0
LINE
8
0
10
2.4
20
2.57452427
11
2.4
21
3.08907943
0
LINE
8
0
10
2.4
20
3.08907943
11
2.4
21
3.60960617
0
LINE
8
0
10
2.4
20
3.60960617
11
2.4
21
5.19541368
0
LINE
8
0
10
2.4
20
5.19541368
11
2.4
21
7.13763522
0
LINE
8
0
10
2.4
20
7.13763522
11
2.4
21
9.16512873
0
LINE
8
0
10
2.4
20
9.16512873
11
2.4
21
11.6579522
0
LINE
8
0
10
2.4
20
11.6579522
11
2.4
21
14.5717859
0
LINE
8
0
10
2.4
20
14.5717859
11
2.4
21
15.7228006
0
LINE
8
0
10
2.4
20
15.7228006
11
2.4
21
16.6436099
0
LINE
8
0
10
2.4
20
16.6436099
11
12.7464239
21
16.6436099
0
LINE
8
0
10
12.7464239
20
16.6436099
11
16
21
16.6436099
0
LINE
8
0
10
16
20
16.6436099
11
16
21
14.5717859
0
LINE
8
0
10
16
20
14.5717859
11
16
21
11.6579522
0
LINE
8
0
10
16
20
11.6579522
11
16
21
7.02663081
0
LINE
8
0
10
16
20
7.02663081
11
16
21
7.01072926
0
LINE
8
0
10
16
20
7.01072926
11
16
21
7.0027413
0
LINE
8
0
10
16
20
7.0027413
11
16
21
4.92370353
0
LINE
8
0
10
16
20
4.92370353
11
16
21
2.17292699
0
LINE
8
0
10
16
20
2.17292699
11
16
21
0.658357493
0
LINE
8
0
10
16
20
0.658357493
11
16
21
-0.614093086
0
LINE
8
0
10
16
20
-0.614093086
11
15.9557404
21
-0.800970339
0
LINE
8
0
10
15.9557404
20
-0.800970339
11
15.9545106
21
-0.813762683
0
LINE
8
0
10
15.9545106
20
-0.813762683
11
15.8614088
21
-1.82332322
0
LINE
8
0
10
15.8614088
20
-1.82332322
11
15.9153646
21
-2.81083419
0
LINE
8
0
10
15.9153646
20
-2.81083419
11
15.9178603
21
-2.83432392
0
LINE
8
0
10
15.9178603
20
-2.83432392
11
16
21
-3.24432746
0
LINE
8
0
10
16
20
-3.24432746
11
16
21
-3.9602816
0
LINE
8
0
10
16
20
-3.9602816
11
16
21
-3.9602816
0
LINE
8
0
10
16
20
57.2290869
11
16
21
58.0953944
0
LINE
8
0
10
16
20
58.0953944
11
16
21
59.2862408
0
LINE
8
0
10
16
20
59.2862408
11
16
21
60.39733
0
LINE
8
0
10
16
20
60.39733
11
16
21
61.5381339
0
LINE
8
0
10
16
20
61.5381339
11
16
21
62.6046332
0
LINE
8
0
10
16
20
62.6046332
11
16
21
69
0
LINE
8
0
10
16
20
69
11
15.9462573
21
69.4082083
0
LINE
8
0
10
15.9462573
20
69.4082083
11
15.93185
21
69.51764
0
LINE
8
0
10
15.93185
20
69.51764
11
15.7742887
21
69.8980267
0
LINE
8
0
10
15.7742887
20
69.8980267
11
15.73205
21
70
0
LINE
8
0
10
15.73205
20
70
11
15.481403
21
70.3266439
0
LINE
8
0
10
15.481403
20
70.3266439
11
15.41421
21
70.41421
0
LINE
8
0
10
15.41421
20
70.41421
11
15.0875661
21
70.664857
0
LINE
8
0
10
15.0875661
20
70.664857
11
15
21
70.73205
0
LINE
8
0
10
15
20
70.73205
11
14.6196133
21
70.8896113
0
LINE
8
0
10
14.6196133
20
70.8896113
11
14.51764
21
70.93185
0
LINE
8
0
10
14.51764
20
70.93185
11
14.4082083
21
70.9462573
0
LINE
8
0
10
14.4082083
20
70.9462573
11
14
21
71
0
LINE
8
0
10
14
20
71
11
13.6344749
21
71
0
LINE
8
0
10
13.6344749
20
71
11
7.54351589
21
71
0
LINE
8
0
10
7.54351589
20
71
11
4.4
21
71
0
LINE
8
0
10
4.4
20
71
11
4.02158063
21
70.9501789
0
LINE
8
0
10
4.02158063
20
70.9501789
11
3.882362
21
70.93185
0
LINE
8
0
10
3.882362
20
70.93185
11
3.52973116
21
70.7857862
0
LINE
8
0
10
3.52973116
20
70.7857862
11
3.4
21
70.73205
0
LINE
8
0
10
3.4
20
70.73205
11
3.09718877
21
70.499693
0
LINE
8
0
10
3.09718877
20
70.499693
11
2.985786
21
70.41421
0
LINE
8
0
10
2.985786
20
70.41421
11
2.7534312
21
70.1114017
0
LINE
8
0
10
2.7534312
20
70.1114017
11
2.667949
21
70
0
LINE
8
0
10
2.667949
20
70
11
2.52188444
21
69.6473706
0
LINE
8
0
10
2.52188444
20
69.6473706
11
2.468148
21
69.51764
0
LINE
8
0
10
2.468148
20
69.51764
11
2.44981961
21
69.3784208
0
LINE
8
0
10
2.44981961
20
69.3784208
11
2.4
21
69
0
LINE
8
0
10
2.4
20
69
11
2.4
21
62.7511829
0
LINE
8
0
10
2.4
20
62.7511829
11
2.4
21
62.2197465
0
LINE
8
0
10
2.4
20
62.2197465
11
2.4
21
61.6216939
0
LINE
8
0
10
2.4
20
61.6216939
11
2.4
21
61.0117847
0
LINE
8
0
10
2.4
20
61.0117847
11
2.4
21
56.1963076
0
LINE
8
0
10
2.4
20
56.1963076
11
2.4
21
55.8081621
0
LINE
8
0
10
2.4
20
55.8081621
11
2.4
21
55.3292458
0
LINE
8
0
10
2.4
20
55.3292458
11
2.4
21
54.8202025
0
LINE
8
0
10
2.4
20
54.8202025
11
2.4
21
54.3413378
0
LINE
8
0
10
2.4
20
54.3413378
11
2.4
21
53.9387301
0
LINE
8
0
10
2.4
20
53.9387301
11
2.4
21
50.0924986
0
LINE
8
0
10
2.4
20
50.0924986
11
2.4
21
47.96307
0
LINE
8
0
10
2.4
20
47.96307
11
2.4
21
45.6061522
0
LINE
8
0
10
2.4
20
45.6061522
11
2.4
21
42.2845989
0
LINE
8
0
10
2.4
20
42.2845989
11
2.4
21
41.5111108
0
LINE
8
0
10
2.4
20
41.5111108
11
2.4
21
40.8923203
0
LINE
8
0
10
2.4
20
40.8923203
11
13.8135761
21
40.8923203
0
LINE
8
0
10
13.8135761
20
40.8923203
11
16
21
40.8923203
0
LINE
8
0
10
16
20
40.8923203
11
16
21
42.2845989
0
LINE
8
0
10
16
20
42.2845989
11
16
21
45.6061522
0
LINE
8
0
10
16
20
45.6061522
11
16
21
52.4658523
0
LINE
8
0
10
16
20
52.4658523
11
16
21
53.7861183
0
LINE
8
0
10
16
20
53.7861183
11
16
21
55.1648471
0
LINE
8
0
10
16
20
55.1648471
11
16
21
56.2067136
0
LINE
8
0
10
16
20
56.2067136
11
16
21
57.2290869
0
LINE
8
0
10
16
20
57.2290869
11
16
21
57.2290869
0
ENDSEC
0
EOF
