0
SECTION
2
ENTITIES
0
LINE
8
0
10
16
20
-7.48029388
11
16
21
-8.29305458
0
LINE
8
0
10
16
20
-8.29305458
11
16
21
-14
0
LINE
8
0
10
16
20
-14
11
15.9939578
21
-14.0992244
0
LINE
8
0
10
15.9939578
20
-14.0992244
11
15.9543835
21
-14.3998152
0
LINE
8
0
10
15.9543835
20
-14.3998152
11
15.93185
21
-14.51764
0
LINE
8
0
10
15.93185
20
-14.51764
11
15.8825121
21
-14.6367524
0
LINE
8
0
10
15.8825121
20
-14.6367524
11
15.73205
21
-15
0
LINE
8
0
10
15.73205
20
-15
11
15.6535637
21
-15.1022836
0
LINE
8
0
10
15.6535637
20
-15.1022836
11
15.41421
21
-15.41421
0
LINE
8
0
10
15.41421
20
-15.41421
11
15.3119264
21
-15.4926963
0
LINE
8
0
10
15.3119264
20
-15.4926963
11
14.9990737
21
-15.7325847
0
LINE
8
0
10
14.9990737
20
-15.7325847
11
14.8799614
21
-15.7819226
0
LINE
8
0
10
14.8799614
20
-15.7819226
11
14.51764
21
-15.93185
0
LINE
8
0
10
14.51764
20
-15.93185
11
14.3898157
21
-15.9486787
0
LINE
8
0
10
14.3898157
20
-15.9486787
11
14.1268134
21
-15.9892645
0
LINE
8
0
10
14.1268134
20
-15.9892645
11
14
21
-16
0
LINE
8
0
10
14
20
-16
11
8.01470253
21
-16
0
LINE
8
0
10
8.01470253
20
-16
11
4.4
21
-16
0
LINE
8
0
10
4.4
20
-16
11
4.12064659
21
-15.972565
0
LINE
8
0
10
4.12064659
20
-15.972565
11
3.91006662
21
-15.9383016
0
LINE
8
0
10
3.91006662
20
-15.9383016
11
3.882362
21
-15.93185
0
LINE
8
0
10
3.882362
20
-15.93185
11
3.82941142
21
-15.9139089
0
LINE
8
0
10
3.82941142
20
-15.9139089
11
3.45162636
21
-15.7575311
0
LINE
8
0
10
3.45162636
20
-15.7575311
11
3.40063624
21
-15.7324187
0
LINE
8
0
10
3.40063624
20
-15.7324187
11
3.37715358
21
-15.717837
0
LINE
8
0
10
3.37715358
20
-15.717837
11
3.05155931
21
-15.4681173
0
LINE
8
0
10
3.05155931
20
-15.4681173
11
2.985786
21
-15.41421
0
LINE
8
0
10
2.985786
20
-15.41421
11
2.93248871
21
-15.3493497
0
LINE
8
0
10
2.93248871
20
-15.3493497
11
2.6831401
21
-15.0243948
0
LINE
8
0
10
2.6831401
20
-15.0243948
11
2.667949
21
-15
0
LINE
8
0
10
2.667949
20
-15
11
2.64306527
21
-14.9495598
0
LINE
8
0
10
2.64306527
20
-14.9495598
11
2.48631794
21
-14.5711401
0
LINE
8
0
10
2.48631794
20
-14.5711401
11
2.468148
21
-14.51764
0
LINE
8
0
10
2.468148
20
-14.51764
11
2.46184341
21
-14.4906723
0
LINE
8
0
10
2.46184341
20
-14.4906723
11
2.45346328
21
-14.4060975
0
LINE
8
0
10
2.45346328
20
-14.4060975
11
2.42673163
21
-14.2030487
0
LINE
8
0
10
2.42673163
20
-14.2030487
11
2.40377406
21
-14.0619946
0
LINE
8
0
10
2.40377406
20
-14.0619946
11
2.4
21
-14
0
LINE
8
0
10
2.4
20
-14
11
2.4
21
-13.9678312
0
LINE
8
0
10
2.4
20
-13.9678312
11
2.4
21
-5.07949803
0
LINE
8
0
10
2.4
20
-5.07949803
11
2.4
21
-5.01118593
0
LINE
8
0
10
2.4
20
-5.01118593
11
2.4
21
-4.43971396
0
LINE
8
0
10
2.4
20
-4.43971396
11
2.4
21
-2.00176076
0
LINE
8
0
10
2.4
20
-2.00176076
11
2.4
21
-1.57225737
0
LINE
8
0
10
2.4
20
-1.57225737
11
2.4
21
-1.05204635
0
LINE
8
0
10
2.4
20
-1.05204635
11
2.4
21
-0.487960165
0
LINE
8
0
10
2.4
20
-0.487960165
11
2.4
21
2.88287716
0
LINE
8
0
10
2.4
20
2.88287716
11
2.4
21
3.36714671
0
LINE
8
0
10
2.4
20
3.36714671
11
2.4
21
3.85703637
0
LINE
8
0
10
2.4
20
3.85703637
11
2.4
21
5.34950667
0
LINE
8
0
10
2.4
20
5.34950667
11
2.4
21
7.17741323
0
LINE
8
0
10
2.4
20
7.17741323
11
2.4
21
9.08557283
0
LINE
8
0
10
2.4
20
9.08557283
11
2.4
21
11.7375082
0
LINE
8
0
10
2.4
20
11.7375082
11
2.4
21
14.1740049
0
LINE
8
0
10
2.4
20
14.1740049
11
2.4
21
15.7669981
0
LINE
8
0
10
2.4
20
15.7669981
11
2.4
21
17.0413893
0
LINE
8
0
10
2.4
20
17.0413893
11
11.4970822
21
17.0413893
0
LINE
8
0
10
11.4970822
20
17.0413893
11
16
21
17.0413893
0
LINE
8
0
10
16
20
17.0413893
11
16
21
14.1740049
0
LINE
8
0
10
16
20
14.1740049
11
16
21
11.7375082
0
LINE
8
0
10
16
20
11.7375082
11
16
21
7.86487822
0
LINE
8
0
10
16
20
7.86487822
11
16
21
7.85158162
0
LINE
8
0
10
16
20
7.85158162
11
16
21
7.84490223
0
LINE
8
0
10
16
20
7.84490223
11
16
21
6.10644721
0
LINE
8
0
10
16
20
6.10644721
11
16
21
2.50491703
0
LINE
8
0
10
16
20
2.50491703
11
16
21
1.07949184
0
LINE
8
0
10
16
20
1.07949184
11
16
21
-0.402093961
0
LINE
8
0
10
16
20
-0.402093961
11
16
21
-1.67903862
0
LINE
8
0
10
16
20
-1.67903862
11
16
21
-1.86474723
0
LINE
8
0
10
16
20
-1.86474723
11
16
21
-2.95060044
0
LINE
8
0
10
16
20
-2.95060044
11
16
21
-4.13799107
0
LINE
8
0
10
16
20
-4.13799107
11
16
21
-5.32974562
0
LINE
8
0
10
16
20
-5.32974562
11
16
21
-5.34025644
0
LINE
8
0
10
16
20
-5.34025644
11
16
21
-5.35020606
0
LINE
8
0
10
16
20
-5.35020606
11
16
21
-6.4744413
0
LINE
8
0
10
16
20
-6.4744413
11
16
21
-6.49015522
0
LINE
8
0
10
16
20
-6.49015522
11
16
21
-7.48029388
0
LINE
8
0
10
16
20
-7.48029388
11
16
21
-7.48029388
0
LINE
8
0
10
16
20
32.6298409
11
16
21
33.2265594
0
LINE
8
0
10
16
20
33.2265594
11
3.33708224
21
33.2265594
0
LINE
8
0
10
3.33708224
20
33.2265594
11
2.4
21
33.2265594
0
LINE
8
0
10
2.4
20
33.2265594
11
2.4
21
32.9010766
0
LINE
8
0
10
2.4
20
32.9010766
11
2.4
21
32.6298409
0
LINE
8
0
10
2.4
20
32.6298409
11
2.4
21
28.7116082
0
LINE
8
0
10
2.4
20
28.7116082
11
2.4
21
25.7016409
0
LINE
8
0
10
2.4
20
25.7016409
11
2.4
21
24.3982848
0
LINE
8
0
10
2.4
20
24.3982848
11
2.4
21
22.8342574
0
LINE
8
0
10
2.4
20
22.8342574
11
6.90291776
21
22.8342574
0
LINE
8
0
10
6.90291776
20
22.8342574
11
16
21
22.8342574
0
LINE
8
0
10
16
20
22.8342574
11
16
21
25.7016409
0
LINE
8
0
10
16
20
25.7016409
11
16
21
31.4364047
0
LINE
8
0
10
16
20
31.4364047
11
16
21
32.6298409
0
LINE
8
0
10
16
20
32.6298409
11
16
21
32.6298409
0
LINE
8
0
10
16
20
41.8868191
11
16
21
41.2901006
0
LINE
8
0
10
16
20
41.2901006
11
15.0629178
21
41.2901006
0
LINE
8
0
10
15.0629178
20
41.2901006
11
2.4
21
41.2901006
0
LINE
8
0
10
2.4
20
41.2901006
11
2.4
21
41.5553088
0
LINE
8
0
10
2.4
20
41.5553088
11
2.4
21
41.8868191
0
LINE
8
0
10
2.4
20
41.8868191
11
2.4
21
45.6857082
0
LINE
8
0
10
2.4
20
45.6857082
11
2.4
21
47.8835139
0
LINE
8
0
10
2.4
20
47.8835139
11
2.4
21
50.1322766
0
LINE
8
0
10
2.4
20
50.1322766
11
2.4
21
53.8288415
0
LINE
8
0
10
2.4
20
53.8288415
11
2.4
21
54.2157828
0
LINE
8
0
10
2.4
20
54.2157828
11
2.4
21
54.6760136
0
LINE
8
0
10
2.4
20
54.6760136
11
2.4
21
55.1652488
0
LINE
8
0
10
2.4
20
55.1652488
11
2.4
21
55.6255293
0
LINE
8
0
10
2.4
20
55.6255293
11
2.4
21
55.998571
0
LINE
8
0
10
2.4
20
55.998571
11
2.4
21
61.1945107
0
LINE
8
0
10
2.4
20
61.1945107
11
2.4
21
61.7904685
0
LINE
8
0
10
2.4
20
61.7904685
11
2.4
21
62.374841
0
LINE
8
0
10
2.4
20
62.374841
11
2.4
21
62.8941211
0
LINE
8
0
10
2.4
20
62.8941211
11
2.4
21
69
0
LINE
8
0
10
2.4
20
69
11
2.45179771
21
69.3934461
0
LINE
8
0
10
2.45179771
20
69.3934461
11
2.468148
21
69.51764
0
LINE
8
0
10
2.468148
20
69.51764
11
2.51608491
21
69.6333694
0
LINE
8
0
10
2.51608491
20
69.6333694
11
2.667949
21
70
0
LINE
8
0
10
2.667949
20
70
11
2.74420549
21
70.0993786
0
LINE
8
0
10
2.74420549
20
70.0993786
11
2.985786
21
70.41421
0
LINE
8
0
10
2.985786
20
70.41421
11
3.08516558
21
70.4904672
0
LINE
8
0
10
3.08516558
20
70.4904672
11
3.4
21
70.73205
0
LINE
8
0
10
3.4
20
70.73205
11
3.51572987
21
70.7799867
0
LINE
8
0
10
3.51572987
20
70.7799867
11
3.882362
21
70.93185
0
LINE
8
0
10
3.882362
20
70.93185
11
4.00655541
21
70.9482008
0
LINE
8
0
10
4.00655541
20
70.9482008
11
4.4
21
71
0
LINE
8
0
10
4.4
20
71
11
7.66832991
21
71
0
LINE
8
0
10
7.66832991
20
71
11
13.6199616
21
71
0
LINE
8
0
10
13.6199616
20
71
11
14
21
71
0
LINE
8
0
10
14
20
71
11
14.4244163
21
70.9441234
0
LINE
8
0
10
14.4244163
20
70.9441234
11
14.51764
21
70.93185
0
LINE
8
0
10
14.51764
20
70.93185
11
14.60451
21
70.8958673
0
LINE
8
0
10
14.60451
20
70.8958673
11
15
21
70.73205
0
LINE
8
0
10
15
20
70.73205
11
15.0745966
21
70.674809
0
LINE
8
0
10
15.0745966
20
70.674809
11
15.41421
21
70.41421
0
LINE
8
0
10
15.41421
20
70.41421
11
15.471451
21
70.3396134
0
LINE
8
0
10
15.471451
20
70.3396134
11
15.73205
21
70
0
LINE
8
0
10
15.73205
20
70
11
15.7680327
21
69.91313
0
LINE
8
0
10
15.7680327
20
69.91313
11
15.93185
21
69.51764
0
LINE
8
0
10
15.93185
20
69.51764
11
15.9441234
21
69.4244163
0
LINE
8
0
10
15.9441234
20
69.4244163
11
16
21
69
0
LINE
8
0
10
16
20
69
11
16
21
62.7699351
0
LINE
8
0
10
16
20
62.7699351
11
16
21
61.7310017
0
LINE
8
0
10
16
20
61.7310017
11
16
21
60.6196844
0
LINE
8
0
10
16
20
60.6196844
11
16
21
59.5373136
0
LINE
8
0
10
16
20
59.5373136
11
16
21
57.8237596
0
LINE
8
0
10
16
20
57.8237596
11
16
21
56.9911623
0
LINE
8
0
10
16
20
56.9911623
11
16
21
56.0085721
0
LINE
8
0
10
16
20
56.0085721
11
16
21
54.5991095
0
LINE
8
0
10
16
20
54.5991095
11
16
21
53.3134567
0
LINE
8
0
10
16
20
53.3134567
11
16
21
52.0823199
0
LINE
8
0
10
16
20
52.0823199
11
16
21
45.6857082
0
LINE
8
0
10
16
20
45.6857082
11
16
21
41.8868191
0
LINE
8
0
10
16
20
41.8868191
11
16
21
41.8868191
0
ENDSEC
0
EOF
