0
SECTION
2
ENTITIES
0
LINE
8
0
10
14.438399
20
33.4254011
11
16
21
33.4254011
0
LINE
8
0
10
16
20
33.4254011
11
16
21
32.4309994
0
LINE
8
0
10
16
20
32.4309994
11
16
21
26.4972006
0
LINE
8
0
10
16
20
26.4972006
11
16
21
22.0386969
0
LINE
8
0
10
16
20
22.0386969
11
9.40160099
21
22.0386969
0
LINE
8
0
10
9.40160099
20
22.0386969
11
2.4
21
22.0386969
0
LINE
8
0
10
2.4
20
22.0386969
11
2.4
21
24.470608
0
LINE
8
0
10
2.4
20
24.470608
11
2.4
21
26.4972006
0
LINE
8
0
10
2.4
20
26.4972006
11
2.4
21
28.8707201
0
LINE
8
0
10
2.4
20
28.8707201
11
2.4
21
32.4309994
0
LINE
8
0
10
2.4
20
32.4309994
11
2.4
21
32.9834448
0
LINE
8
0
10
2.4
20
32.9834448
11
2.4
21
33.4254011
0
LINE
8
0
10
2.4
20
33.4254011
11
14.438399
21
33.4254011
0
LINE
8
0
10
14.438399
20
33.4254011
11
14.438399
21
33.4254011
0
LINE
8
0
10
16
20
51.3152552
11
16
21
45.8448201
0
LINE
8
0
10
16
20
45.8448201
11
16
21
42.0856606
0
LINE
8
0
10
16
20
42.0856606
11
16
21
41.0912589
0
LINE
8
0
10
16
20
41.0912589
11
3.96160099
21
41.0912589
0
LINE
8
0
10
3.96160099
20
41.0912589
11
2.4
21
41.0912589
0
LINE
8
0
10
2.4
20
41.0912589
11
2.4
21
41.6336598
0
LINE
8
0
10
2.4
20
41.6336598
11
2.4
21
42.0856606
0
LINE
8
0
10
2.4
20
42.0856606
11
2.4
21
45.8448201
0
LINE
8
0
10
2.4
20
45.8448201
11
2.4
21
47.7244017
0
LINE
8
0
10
2.4
20
47.7244017
11
2.4
21
50.2118326
0
LINE
8
0
10
2.4
20
50.2118326
11
2.4
21
53.6090644
0
LINE
8
0
10
2.4
20
53.6090644
11
2.4
21
53.9646727
0
LINE
8
0
10
2.4
20
53.9646727
11
2.4
21
54.3876359
0
LINE
8
0
10
2.4
20
54.3876359
11
2.4
21
54.8372548
0
LINE
8
0
10
2.4
20
54.8372548
11
2.4
21
55.2602636
0
LINE
8
0
10
2.4
20
55.2602636
11
2.4
21
55.6030979
0
LINE
8
0
10
2.4
20
55.6030979
11
2.4
21
61.5599626
0
LINE
8
0
10
2.4
20
61.5599626
11
2.4
21
62.1280178
0
LINE
8
0
10
2.4
20
62.1280178
11
2.4
21
62.68503
0
LINE
8
0
10
2.4
20
62.68503
11
2.4
21
63.1799975
0
LINE
8
0
10
2.4
20
63.1799975
11
2.4
21
69
0
LINE
8
0
10
2.4
20
69
11
2.45575391
21
69.4234967
0
LINE
8
0
10
2.45575391
20
69.4234967
11
2.468148
21
69.51764
0
LINE
8
0
10
2.468148
20
69.51764
11
2.50448586
21
69.6053669
0
LINE
8
0
10
2.50448586
20
69.6053669
11
2.667949
21
70
0
LINE
8
0
10
2.667949
20
70
11
2.72575409
21
70.0753325
0
LINE
8
0
10
2.72575409
20
70.0753325
11
2.985786
21
70.41421
0
LINE
8
0
10
2.985786
20
70.41421
11
3.0611192
21
70.4720156
0
LINE
8
0
10
3.0611192
20
70.4720156
11
3.4
21
70.73205
0
LINE
8
0
10
3.4
20
70.73205
11
3.48772729
21
70.7683877
0
LINE
8
0
10
3.48772729
20
70.7683877
11
3.882362
21
70.93185
0
LINE
8
0
10
3.882362
20
70.93185
11
3.97650495
21
70.9442445
0
LINE
8
0
10
3.97650495
20
70.9442445
11
4.4
21
71
0
LINE
8
0
10
4.4
20
71
11
7.91795796
21
71
0
LINE
8
0
10
7.91795796
20
71
11
13.5909351
21
71
0
LINE
8
0
10
13.5909351
20
71
11
14
21
71
0
LINE
8
0
10
14
20
71
11
14.4568323
21
70.9398556
0
LINE
8
0
10
14.4568323
20
70.9398556
11
14.51764
21
70.93185
0
LINE
8
0
10
14.51764
20
70.93185
11
14.5743033
21
70.9083793
0
LINE
8
0
10
14.5743033
20
70.9083793
11
15
21
70.73205
0
LINE
8
0
10
15
20
70.73205
11
15.0486577
21
70.694713
0
LINE
8
0
10
15.0486577
20
70.694713
11
15.41421
21
70.41421
0
LINE
8
0
10
15.41421
20
70.41421
11
15.451547
21
70.3655523
0
LINE
8
0
10
15.451547
20
70.3655523
11
15.73205
21
70
0
LINE
8
0
10
15.73205
20
70
11
15.7555207
21
69.9433367
0
LINE
8
0
10
15.7555207
20
69.9433367
11
15.93185
21
69.51764
0
LINE
8
0
10
15.93185
20
69.51764
11
15.9398556
21
69.4568323
0
LINE
8
0
10
15.9398556
20
69.4568323
11
16
21
69
0
LINE
8
0
10
16
20
69
11
16
21
63.1005388
0
LINE
8
0
10
16
20
63.1005388
11
16
21
62.1167374
0
LINE
8
0
10
16
20
62.1167374
11
16
21
61.0643931
0
LINE
8
0
10
16
20
61.0643931
11
16
21
60.0394592
0
LINE
8
0
10
16
20
60.0394592
11
16
21
57.28049
0
LINE
8
0
10
16
20
57.28049
11
16
21
56.5153131
0
LINE
8
0
10
16
20
56.5153131
11
16
21
55.6122891
0
LINE
8
0
10
16
20
55.6122891
11
16
21
53.4676344
0
LINE
8
0
10
16
20
53.4676344
11
16
21
52.3681336
0
LINE
8
0
10
16
20
52.3681336
11
16
21
51.3152552
0
LINE
8
0
10
16
20
51.3152552
11
16
21
51.3152552
0
LINE
8
0
10
16
20
-2.30646752
11
16
21
-0.49173988
0
LINE
8
0
10
16
20
-0.49173988
11
16
21
0.625487752
0
LINE
8
0
10
16
20
0.625487752
11
16
21
1.92176052
0
LINE
8
0
10
16
20
1.92176052
11
16
21
3.16889712
0
LINE
8
0
10
16
20
3.16889712
11
16
21
8.47193457
0
LINE
8
0
10
16
20
8.47193457
11
16
21
9.52922409
0
LINE
8
0
10
16
20
9.52922409
11
16
21
9.53328635
0
LINE
8
0
10
16
20
9.53328635
11
16
21
9.54137305
0
LINE
8
0
10
16
20
9.54137305
11
16
21
11.8966201
0
LINE
8
0
10
16
20
11.8966201
11
16
21
13.378443
0
LINE
8
0
10
16
20
13.378443
11
16
21
17.836948
0
LINE
8
0
10
16
20
17.836948
11
8.99839901
21
17.836948
0
LINE
8
0
10
8.99839901
20
17.836948
11
2.4
21
17.836948
0
LINE
8
0
10
2.4
20
17.836948
11
2.4
21
15.8553931
0
LINE
8
0
10
2.4
20
15.8553931
11
2.4
21
13.378443
0
LINE
8
0
10
2.4
20
13.378443
11
2.4
21
11.8966201
0
LINE
8
0
10
2.4
20
11.8966201
11
2.4
21
8.92646103
0
LINE
8
0
10
2.4
20
8.92646103
11
2.4
21
7.25696923
0
LINE
8
0
10
2.4
20
7.25696923
11
2.4
21
5.65769263
0
LINE
8
0
10
2.4
20
5.65769263
11
2.4
21
4.35189676
0
LINE
8
0
10
2.4
20
4.35189676
11
2.4
21
3.92328128
0
LINE
8
0
10
2.4
20
3.92328128
11
2.4
21
3.49958294
0
LINE
8
0
10
2.4
20
3.49958294
11
2.4
21
-0.36579593
0
LINE
8
0
10
2.4
20
-0.36579593
11
2.4
21
-0.914527446
0
LINE
8
0
10
2.4
20
-0.914527446
11
2.4
21
-1.42057809
0
LINE
8
0
10
2.4
20
-1.42057809
11
2.4
21
-1.83839021
0
LINE
8
0
10
2.4
20
-1.83839021
11
2.4
21
-4.60651751
0
LINE
8
0
10
2.4
20
-4.60651751
11
2.4
21
-5.16746845
0
LINE
8
0
10
2.4
20
-5.16746845
11
2.4
21
-5.24406127
0
LINE
8
0
10
2.4
20
-5.24406127
11
2.4
21
-13.9684246
0
LINE
8
0
10
2.4
20
-13.9684246
11
2.4
21
-14
0
LINE
8
0
10
2.4
20
-14
11
2.40397068
21
-14.0652243
0
LINE
8
0
10
2.40397068
20
-14.0652243
11
2.42812426
21
-14.2136268
0
LINE
8
0
10
2.42812426
20
-14.2136268
11
2.45624854
21
-14.4272538
0
LINE
8
0
10
2.45624854
20
-14.4272538
11
2.4630392
21
-14.4957873
0
LINE
8
0
10
2.4630392
20
-14.4957873
11
2.468148
21
-14.51764
0
LINE
8
0
10
2.468148
20
-14.51764
11
2.48287164
21
-14.5609927
0
LINE
8
0
10
2.48287164
20
-14.5609927
11
2.64778497
21
-14.9591268
0
LINE
8
0
10
2.64778497
20
-14.9591268
11
2.667949
21
-15
0
LINE
8
0
10
2.667949
20
-15
11
2.6802588
21
-15.0197678
0
LINE
8
0
10
2.6802588
20
-15.0197678
11
2.94259763
21
-15.3616518
0
LINE
8
0
10
2.94259763
20
-15.3616518
11
2.985786
21
-15.41421
0
LINE
8
0
10
2.985786
20
-15.41421
11
3.03908406
21
-15.4578927
0
LINE
8
0
10
3.03908406
20
-15.4578927
11
3.38164069
21
-15.7206219
0
LINE
8
0
10
3.38164069
20
-15.7206219
11
3.40066939
21
-15.7324379
0
LINE
8
0
10
3.40066939
20
-15.7324379
11
3.44198819
21
-15.7527872
0
LINE
8
0
10
3.44198819
20
-15.7527872
11
3.83945458
21
-15.9173118
0
LINE
8
0
10
3.83945458
20
-15.9173118
11
3.882362
21
-15.93185
0
LINE
8
0
10
3.882362
20
-15.93185
11
3.90481187
21
-15.9370779
0
LINE
8
0
10
3.90481187
20
-15.9370779
11
4.12636235
21
-15.9731263
0
LINE
8
0
10
4.12636235
20
-15.9731263
11
4.4
21
-16
0
LINE
8
0
10
4.4
20
-16
11
8.20301633
21
-16
0
LINE
8
0
10
8.20301633
20
-16
11
14
21
-16
0
LINE
8
0
10
14
20
-16
11
14.1334199
21
-15.9887052
0
LINE
8
0
10
14.1334199
20
-15.9887052
11
14.4101238
21
-15.9460051
0
LINE
8
0
10
14.4101238
20
-15.9460051
11
14.51764
21
-15.93185
0
LINE
8
0
10
14.51764
20
-15.93185
11
14.8988371
21
-15.7741119
0
LINE
8
0
10
14.8988371
20
-15.7741119
11
14.9990255
21
-15.7326125
0
LINE
8
0
10
14.9990255
20
-15.7326125
11
15.3281767
21
-15.4802268
0
LINE
8
0
10
15.3281767
20
-15.4802268
11
15.41421
21
-15.41421
0
LINE
8
0
10
15.41421
20
-15.41421
11
15.6660332
21
-15.0860333
0
LINE
8
0
10
15.6660332
20
-15.0860333
11
15.73205
21
-15
0
LINE
8
0
10
15.73205
20
-15
11
15.8903506
21
-14.6178284
0
LINE
8
0
10
15.8903506
20
-14.6178284
11
15.93185
21
-14.51764
0
LINE
8
0
10
15.93185
20
-14.51764
11
15.9555574
21
-14.3936769
0
LINE
8
0
10
15.9555574
20
-14.3936769
11
15.993643
21
-14.1043937
0
LINE
8
0
10
15.993643
20
-14.1043937
11
16
21
-14
0
LINE
8
0
10
16
20
-14
11
16
21
-8.50881209
0
LINE
8
0
10
16
20
-8.50881209
11
16
21
-7.72677873
0
LINE
8
0
10
16
20
-7.72677873
11
16
21
-6.77407337
0
LINE
8
0
10
16
20
-6.77407337
11
16
21
-6.75334326
0
LINE
8
0
10
16
20
-6.75334326
11
16
21
-5.67170925
0
LINE
8
0
10
16
20
-5.67170925
11
16
21
-5.65625101
0
LINE
8
0
10
16
20
-5.65625101
11
16
21
-5.63992084
0
LINE
8
0
10
16
20
-5.63992084
11
16
21
-4.49341002
0
LINE
8
0
10
16
20
-4.49341002
11
16
21
-3.35109744
0
LINE
8
0
10
16
20
-3.35109744
11
16
21
-2.30646752
0
LINE
8
0
10
16
20
-2.30646752
11
16
21
-2.30646752
0
ENDSEC
0
EOF
