0
SECTION
2
ENTITIES
0
LINE
8
0
10
16
20
1.13927861
11
16
21
2.34289487
0
LINE
8
0
10
16
20
2.34289487
11
16
21
3.50088716
0
LINE
8
0
10
16
20
3.50088716
11
16
21
9.65467826
0
LINE
8
0
10
16
20
9.65467826
11
16
21
10.371385
0
LINE
8
0
10
16
20
10.371385
11
16
21
10.3741387
0
LINE
8
0
10
16
20
10.3741387
11
16
21
10.3796205
0
LINE
8
0
10
16
20
10.3796205
11
16
21
11.9761761
0
LINE
8
0
10
16
20
11.9761761
11
16
21
12.9806621
0
LINE
8
0
10
16
20
12.9806621
11
16
21
18.2347273
0
LINE
8
0
10
16
20
18.2347273
11
7.74905739
21
18.2347273
0
LINE
8
0
10
7.74905739
20
18.2347273
11
2.4
21
18.2347273
0
LINE
8
0
10
2.4
20
18.2347273
11
2.4
21
15.8995906
0
LINE
8
0
10
2.4
20
15.8995906
11
2.4
21
12.9806621
0
LINE
8
0
10
2.4
20
12.9806621
11
2.4
21
11.9761761
0
LINE
8
0
10
2.4
20
11.9761761
11
2.4
21
8.84690513
0
LINE
8
0
10
2.4
20
8.84690513
11
2.4
21
7.29674724
0
LINE
8
0
10
2.4
20
7.29674724
11
2.4
21
5.81178561
0
LINE
8
0
10
2.4
20
5.81178561
11
2.4
21
4.59932696
0
LINE
8
0
10
2.4
20
4.59932696
11
2.4
21
4.20134856
0
LINE
8
0
10
2.4
20
4.20134856
11
2.4
21
3.80793583
0
LINE
8
0
10
2.4
20
3.80793583
11
2.4
21
-0.304713812
0
LINE
8
0
10
2.4
20
-0.304713812
11
2.4
21
-0.845767992
0
LINE
8
0
10
2.4
20
-0.845767992
11
2.4
21
-1.34473845
0
LINE
8
0
10
2.4
20
-1.34473845
11
2.4
21
-1.75670494
0
LINE
8
0
10
2.4
20
-1.75670494
11
2.4
21
-4.68991929
0
LINE
8
0
10
2.4
20
-4.68991929
11
2.4
21
-5.24560971
0
LINE
8
0
10
2.4
20
-5.24560971
11
2.4
21
-5.32634288
0
LINE
8
0
10
2.4
20
-5.32634288
11
2.4
21
-13.9687214
0
LINE
8
0
10
2.4
20
-13.9687214
11
2.4
21
-14
0
LINE
8
0
10
2.4
20
-14
11
2.40406899
21
-14.0668392
0
LINE
8
0
10
2.40406899
20
-14.0668392
11
2.42882057
21
-14.2189159
0
LINE
8
0
10
2.42882057
20
-14.2189159
11
2.45764117
21
-14.437832
0
LINE
8
0
10
2.45764117
20
-14.437832
11
2.4636371
21
-14.4983448
0
LINE
8
0
10
2.4636371
20
-14.4983448
11
2.468148
21
-14.51764
0
LINE
8
0
10
2.468148
20
-14.51764
11
2.48114849
21
-14.555919
0
LINE
8
0
10
2.48114849
20
-14.555919
11
2.65014483
21
-14.9639103
0
LINE
8
0
10
2.65014483
20
-14.9639103
11
2.667949
21
-15
0
LINE
8
0
10
2.667949
20
-15
11
2.67881815
21
-15.0174543
0
LINE
8
0
10
2.67881815
20
-15.0174543
11
2.94765209
21
-15.3678028
0
LINE
8
0
10
2.94765209
20
-15.3678028
11
2.985786
21
-15.41421
0
LINE
8
0
10
2.985786
20
-15.41421
11
3.03284644
21
-15.4527804
0
LINE
8
0
10
3.03284644
20
-15.4527804
11
3.38388425
21
-15.7220144
0
LINE
8
0
10
3.38388425
20
-15.7220144
11
3.40068596
21
-15.7324475
0
LINE
8
0
10
3.40068596
20
-15.7324475
11
3.43716911
21
-15.7504153
0
LINE
8
0
10
3.43716911
20
-15.7504153
11
3.84447616
21
-15.9190132
0
LINE
8
0
10
3.84447616
20
-15.9190132
11
3.882362
21
-15.93185
0
LINE
8
0
10
3.882362
20
-15.93185
11
3.9021845
21
-15.9364661
0
LINE
8
0
10
3.9021845
20
-15.9364661
11
4.12922023
21
-15.973407
0
LINE
8
0
10
4.12922023
20
-15.973407
11
4.4
21
-16
0
LINE
8
0
10
4.4
20
-16
11
8.29717322
21
-16
0
LINE
8
0
10
8.29717322
20
-16
11
14
21
-16
0
LINE
8
0
10
14
20
-16
11
14.1367232
21
-15.9884256
0
LINE
8
0
10
14.1367232
20
-15.9884256
11
14.4202778
21
-15.9446682
0
LINE
8
0
10
14.4202778
20
-15.9446682
11
14.51764
21
-15.93185
0
LINE
8
0
10
14.51764
20
-15.93185
11
14.9082749
21
-15.7702066
0
LINE
8
0
10
14.9082749
20
-15.7702066
11
14.9990013
21
-15.7326265
0
LINE
8
0
10
14.9990013
20
-15.7326265
11
15.3363018
21
-15.4739921
0
LINE
8
0
10
15.3363018
20
-15.4739921
11
15.41421
21
-15.41421
0
LINE
8
0
10
15.41421
20
-15.41421
11
15.6722679
21
-15.0779082
0
LINE
8
0
10
15.6722679
20
-15.0779082
11
15.73205
21
-15
0
LINE
8
0
10
15.73205
20
-15
11
15.8942699
21
-14.6083664
0
LINE
8
0
10
15.8942699
20
-14.6083664
11
15.93185
21
-14.51764
0
LINE
8
0
10
15.93185
20
-14.51764
11
15.9561443
21
-14.3906078
0
LINE
8
0
10
15.9561443
20
-14.3906078
11
15.9934856
21
-14.1069783
0
LINE
8
0
10
15.9934856
20
-14.1069783
11
16
21
-14
0
LINE
8
0
10
16
20
-14
11
16
21
-8.61669084
0
LINE
8
0
10
16
20
-8.61669084
11
16
21
-7.85002115
0
LINE
8
0
10
16
20
-7.85002115
11
16
21
-6.91603244
0
LINE
8
0
10
16
20
-6.91603244
11
16
21
-6.89279424
0
LINE
8
0
10
16
20
-6.89279424
11
16
21
-5.83246085
0
LINE
8
0
10
16
20
-5.83246085
11
16
21
-5.81424829
0
LINE
8
0
10
16
20
-5.81424829
11
16
21
-5.79500845
0
LINE
8
0
10
16
20
-5.79500845
11
16
21
-4.67111949
0
LINE
8
0
10
16
20
-4.67111949
11
16
21
-3.55134593
0
LINE
8
0
10
16
20
-3.55134593
11
16
21
-2.52732766
0
LINE
8
0
10
16
20
-2.52732766
11
16
21
0.101909491
0
LINE
8
0
10
16
20
0.101909491
11
16
21
1.13927861
0
LINE
8
0
10
16
20
1.13927861
11
16
21
1.13927861
0
LINE
8
0
10
16
20
57.0088552
11
16
21
56.2773885
0
LINE
8
0
10
16
20
56.2773885
11
16
21
55.4141476
0
LINE
8
0
10
16
20
55.4141476
11
16
21
52.9018969
0
LINE
8
0
10
16
20
52.9018969
11
16
21
51.895472
0
LINE
8
0
10
16
20
51.895472
11
16
21
50.9317228
0
LINE
8
0
10
16
20
50.9317228
11
16
21
45.9243761
0
LINE
8
0
10
16
20
45.9243761
11
16
21
42.4834404
0
LINE
8
0
10
16
20
42.4834404
11
16
21
40.6934786
0
LINE
8
0
10
16
20
40.6934786
11
5.21094261
21
40.6934786
0
LINE
8
0
10
5.21094261
20
40.6934786
11
2.4
21
40.6934786
0
LINE
8
0
10
2.4
20
40.6934786
11
2.4
21
41.6698214
0
LINE
8
0
10
2.4
20
41.6698214
11
2.4
21
42.4834404
0
LINE
8
0
10
2.4
20
42.4834404
11
2.4
21
45.9243761
0
LINE
8
0
10
2.4
20
45.9243761
11
2.4
21
47.6448456
0
LINE
8
0
10
2.4
20
47.6448456
11
2.4
21
50.2516105
0
LINE
8
0
10
2.4
20
50.2516105
11
2.4
21
53.4991759
0
LINE
8
0
10
2.4
20
53.4991759
11
2.4
21
53.8391177
0
LINE
8
0
10
2.4
20
53.8391177
11
2.4
21
54.2434471
0
LINE
8
0
10
2.4
20
54.2434471
11
2.4
21
54.6732578
0
LINE
8
0
10
2.4
20
54.6732578
11
2.4
21
55.0776307
0
LINE
8
0
10
2.4
20
55.0776307
11
2.4
21
55.4053613
0
LINE
8
0
10
2.4
20
55.4053613
11
2.4
21
61.7426885
0
LINE
8
0
10
2.4
20
61.7426885
11
2.4
21
62.2967924
0
LINE
8
0
10
2.4
20
62.2967924
11
2.4
21
62.8401245
0
LINE
8
0
10
2.4
20
62.8401245
11
2.4
21
63.3229357
0
LINE
8
0
10
2.4
20
63.3229357
11
2.4
21
69
0
LINE
8
0
10
2.4
20
69
11
2.45773201
21
69.438522
0
LINE
8
0
10
2.45773201
20
69.438522
11
2.468148
21
69.51764
0
LINE
8
0
10
2.468148
20
69.51764
11
2.49868633
21
69.5913657
0
LINE
8
0
10
2.49868633
20
69.5913657
11
2.667949
21
70
0
LINE
8
0
10
2.667949
20
70
11
2.71652839
21
70.0633094
0
LINE
8
0
10
2.71652839
20
70.0633094
11
2.985786
21
70.41421
0
LINE
8
0
10
2.985786
20
70.41421
11
3.04909601
21
70.4627898
0
LINE
8
0
10
3.04909601
20
70.4627898
11
3.4
21
70.73205
0
LINE
8
0
10
3.4
20
70.73205
11
3.473726
21
70.7625882
0
LINE
8
0
10
3.473726
20
70.7625882
11
3.882362
21
70.93185
0
LINE
8
0
10
3.882362
20
70.93185
11
3.96147972
21
70.9422663
0
LINE
8
0
10
3.96147972
20
70.9422663
11
4.4
21
71
0
LINE
8
0
10
4.4
20
71
11
8.04277198
21
71
0
LINE
8
0
10
8.04277198
20
71
11
13.5764219
21
71
0
LINE
8
0
10
13.5764219
20
71
11
14
21
71
0
LINE
8
0
10
14
20
71
11
14.4730403
21
70.9377218
0
LINE
8
0
10
14.4730403
20
70.9377218
11
14.51764
21
70.93185
0
LINE
8
0
10
14.51764
20
70.93185
11
14.5592
21
70.9146353
0
LINE
8
0
10
14.5592
20
70.9146353
11
15
21
70.73205
0
LINE
8
0
10
15
20
70.73205
11
15.0356882
21
70.704665
0
LINE
8
0
10
15.0356882
20
70.704665
11
15.41421
21
70.41421
0
LINE
8
0
10
15.41421
20
70.41421
11
15.441595
21
70.3785218
0
LINE
8
0
10
15.441595
20
70.3785218
11
15.73205
21
70
0
LINE
8
0
10
15.73205
20
70
11
15.7492647
21
69.95844
0
LINE
8
0
10
15.7492647
20
69.95844
11
15.93185
21
69.51764
0
LINE
8
0
10
15.93185
20
69.51764
11
15.9377218
21
69.4730403
0
LINE
8
0
10
15.9377218
20
69.4730403
11
16
21
69
0
LINE
8
0
10
16
20
69
11
16
21
63.2658407
0
LINE
8
0
10
16
20
63.2658407
11
16
21
62.3096052
0
LINE
8
0
10
16
20
62.3096052
11
16
21
61.2867474
0
LINE
8
0
10
16
20
61.2867474
11
16
21
60.290532
0
LINE
8
0
10
16
20
60.290532
11
16
21
57.0088552
0
LINE
8
0
10
16
20
57.0088552
11
16
21
57.0088552
0
LINE
8
0
10
16
20
33.8231814
11
16
21
32.0332196
0
LINE
8
0
10
16
20
32.0332196
11
16
21
26.8949804
0
LINE
8
0
10
16
20
26.8949804
11
16
21
21.6409166
0
LINE
8
0
10
16
20
21.6409166
11
10.6509426
21
21.6409166
0
LINE
8
0
10
10.6509426
20
21.6409166
11
2.4
21
21.6409166
0
LINE
8
0
10
2.4
20
21.6409166
11
2.4
21
24.5067696
0
LINE
8
0
10
2.4
20
24.5067696
11
2.4
21
26.8949804
0
LINE
8
0
10
2.4
20
26.8949804
11
2.4
21
28.9502761
0
LINE
8
0
10
2.4
20
28.9502761
11
2.4
21
32.0332196
0
LINE
8
0
10
2.4
20
32.0332196
11
2.4
21
33.0276428
0
LINE
8
0
10
2.4
20
33.0276428
11
2.4
21
33.8231814
0
LINE
8
0
10
2.4
20
33.8231814
11
13.1890574
21
33.8231814
0
LINE
8
0
10
13.1890574
20
33.8231814
11
16
21
33.8231814
0
LINE
8
0
10
16
20
33.8231814
11
16
21
33.8231814
0
ENDSEC
0
EOF
