0
SECTION
2
ENTITIES
0
LINE
8
0
10
16
20
-6.41535889
11
16
21
-5.38195738
0
LINE
8
0
10
16
20
-5.38195738
11
16
21
-4.35233992
0
LINE
8
0
10
16
20
-4.35233992
11
16
21
-3.41076823
0
LINE
8
0
10
16
20
-3.41076823
11
16
21
2.47650697
0
LINE
8
0
10
16
20
2.47650697
11
16
21
3.19444204
0
LINE
8
0
10
16
20
3.19444204
11
16
21
4.02743224
0
LINE
8
0
10
16
20
4.02743224
11
16
21
4.82884733
0
LINE
8
0
10
16
20
4.82884733
11
16
21
11.3895408
0
LINE
8
0
10
16
20
11.3895408
11
13.6316909
21
11.3895408
0
LINE
8
0
10
13.6316909
20
11.3895408
11
2.4
21
11.3895408
0
LINE
8
0
10
2.4
20
11.3895408
11
2.4
21
8.52868153
0
LINE
8
0
10
2.4
20
8.52868153
11
2.4
21
7.45585925
0
LINE
8
0
10
2.4
20
7.45585925
11
2.4
21
6.42815754
0
LINE
8
0
10
2.4
20
6.42815754
11
2.4
21
5.58904776
0
LINE
8
0
10
2.4
20
5.58904776
11
2.4
21
5.31361769
0
LINE
8
0
10
2.4
20
5.31361769
11
2.4
21
5.0413474
0
LINE
8
0
10
2.4
20
5.0413474
11
2.4
21
-0.0603853416
0
LINE
8
0
10
2.4
20
-0.0603853416
11
2.4
21
-0.570730177
0
LINE
8
0
10
2.4
20
-0.570730177
11
2.4
21
-1.04137989
0
LINE
8
0
10
2.4
20
-1.04137989
11
2.4
21
-1.42996384
0
LINE
8
0
10
2.4
20
-1.42996384
11
2.4
21
-5.02352638
0
LINE
8
0
10
2.4
20
-5.02352638
11
2.4
21
-5.55817474
0
LINE
8
0
10
2.4
20
-5.55817474
11
2.4
21
-5.65546935
0
LINE
8
0
10
2.4
20
-5.65546935
11
2.4
21
-13.9699082
0
LINE
8
0
10
2.4
20
-13.9699082
11
2.4
21
-14
0
LINE
8
0
10
2.4
20
-14
11
2.40446222
21
-14.0732986
0
LINE
8
0
10
2.40446222
20
-14.0732986
11
2.43160583
21
-14.2400722
0
LINE
8
0
10
2.43160583
20
-14.2400722
11
2.46321168
21
-14.4801446
0
LINE
8
0
10
2.46321168
20
-14.4801446
11
2.46602869
21
-14.5085747
0
LINE
8
0
10
2.46602869
20
-14.5085747
11
2.468148
21
-14.51764
0
LINE
8
0
10
2.468148
20
-14.51764
11
2.47425589
21
-14.5356242
0
LINE
8
0
10
2.47425589
20
-14.5356242
11
2.65958424
21
-14.9830443
0
LINE
8
0
10
2.65958424
20
-14.9830443
11
2.667949
21
-15
0
LINE
8
0
10
2.667949
20
-15
11
2.67305554
21
-15.0082004
0
LINE
8
0
10
2.67305554
20
-15.0082004
11
2.96786992
21
-15.392407
0
LINE
8
0
10
2.96786992
20
-15.392407
11
2.985786
21
-15.41421
0
LINE
8
0
10
2.985786
20
-15.41421
11
3.00789594
21
-15.4323311
0
LINE
8
0
10
3.00789594
20
-15.4323311
11
3.39285847
21
-15.7275843
0
LINE
8
0
10
3.39285847
20
-15.7275843
11
3.40075225
21
-15.732486
0
LINE
8
0
10
3.40075225
20
-15.732486
11
3.41789277
21
-15.7409276
0
LINE
8
0
10
3.41789277
20
-15.7409276
11
3.86456247
21
-15.925819
0
LINE
8
0
10
3.86456247
20
-15.925819
11
3.882362
21
-15.93185
0
LINE
8
0
10
3.882362
20
-15.93185
11
3.89167501
21
-15.9340187
0
LINE
8
0
10
3.89167501
20
-15.9340187
11
4.14065175
21
-15.9745297
0
LINE
8
0
10
4.14065175
20
-15.9745297
11
4.4
21
-16
0
LINE
8
0
10
4.4
20
-16
11
8.67380082
21
-16
0
LINE
8
0
10
8.67380082
20
-16
11
14
21
-16
0
LINE
8
0
10
14
20
-16
11
14.1499363
21
-15.987307
0
LINE
8
0
10
14.1499363
20
-15.987307
11
14.460894
21
-15.9393209
0
LINE
8
0
10
14.460894
20
-15.9393209
11
14.51764
21
-15.93185
0
LINE
8
0
10
14.51764
20
-15.93185
11
14.9460264
21
-15.7545851
0
LINE
8
0
10
14.9460264
20
-15.7545851
11
14.9989048
21
-15.7326822
0
LINE
8
0
10
14.9989048
20
-15.7326822
11
15.3688025
21
-15.449053
0
LINE
8
0
10
15.3688025
20
-15.449053
11
15.41421
21
-15.41421
0
LINE
8
0
10
15.41421
20
-15.41421
11
15.697207
21
-15.0454075
0
LINE
8
0
10
15.697207
20
-15.0454075
11
15.73205
21
-15
0
LINE
8
0
10
15.73205
20
-15
11
15.909947
21
-14.5705184
0
LINE
8
0
10
15.909947
20
-14.5705184
11
15.93185
21
-14.51764
0
LINE
8
0
10
15.93185
20
-14.51764
11
15.9584922
21
-14.3783312
0
LINE
8
0
10
15.9584922
20
-14.3783312
11
15.9928561
21
-14.1173168
0
LINE
8
0
10
15.9928561
20
-14.1173168
11
16
21
-14
0
LINE
8
0
10
16
20
-14
11
16
21
-9.04820586
0
LINE
8
0
10
16
20
-9.04820586
11
16
21
-8.34299083
0
LINE
8
0
10
16
20
-8.34299083
11
16
21
-7.48386875
0
LINE
8
0
10
16
20
-7.48386875
11
16
21
-7.45059815
0
LINE
8
0
10
16
20
-7.45059815
11
16
21
-6.47546723
0
LINE
8
0
10
16
20
-6.47546723
11
16
21
-6.44623741
0
LINE
8
0
10
16
20
-6.44623741
11
16
21
-6.41535889
0
LINE
8
0
10
16
20
-6.41535889
11
16
21
-6.41535889
0
LINE
8
0
10
16
20
63.0810766
11
16
21
63.9270483
0
LINE
8
0
10
16
20
63.9270483
11
16
21
69
0
LINE
8
0
10
16
20
69
11
15.9345137
21
69.4974077
0
LINE
8
0
10
15.9345137
20
69.4974077
11
15.93185
21
69.51764
0
LINE
8
0
10
15.93185
20
69.51764
11
15.9240407
21
69.5364934
0
LINE
8
0
10
15.9240407
20
69.5364934
11
15.73205
21
70
0
LINE
8
0
10
15.73205
20
70
11
15.719627
21
70.0161897
0
LINE
8
0
10
15.719627
20
70.0161897
11
15.41421
21
70.41421
0
LINE
8
0
10
15.41421
20
70.41421
11
15.3980203
21
70.426633
0
LINE
8
0
10
15.3980203
20
70.426633
11
15
21
70.73205
0
LINE
8
0
10
15
20
70.73205
11
14.9811466
21
70.7398593
0
LINE
8
0
10
14.9811466
20
70.7398593
11
14.51764
21
70.93185
0
LINE
8
0
10
14.51764
20
70.93185
11
14.4974077
21
70.9345137
0
LINE
8
0
10
14.4974077
20
70.9345137
11
14
21
71
0
LINE
8
0
10
14
20
71
11
13.5183688
21
71
0
LINE
8
0
10
13.5183688
20
71
11
8.54202808
21
71
0
LINE
8
0
10
8.54202808
20
71
11
4.4
21
71
0
LINE
8
0
10
4.4
20
71
11
3.90137881
21
70.9343537
0
LINE
8
0
10
3.90137881
20
70.9343537
11
3.882362
21
70.93185
0
LINE
8
0
10
3.882362
20
70.93185
11
3.41772085
21
70.7393902
0
LINE
8
0
10
3.41772085
20
70.7393902
11
3.4
21
70.73205
0
LINE
8
0
10
3.4
20
70.73205
11
3.00100325
21
70.4258867
0
LINE
8
0
10
3.00100325
20
70.4258867
11
2.985786
21
70.41421
0
LINE
8
0
10
2.985786
20
70.41421
11
2.67962559
21
70.0152171
0
LINE
8
0
10
2.67962559
20
70.0152171
11
2.667949
21
70
0
LINE
8
0
10
2.667949
20
70
11
2.47548822
21
69.5353608
0
LINE
8
0
10
2.47548822
20
69.5353608
11
2.468148
21
69.51764
0
LINE
8
0
10
2.468148
20
69.51764
11
2.4656444
21
69.4986231
0
LINE
8
0
10
2.4656444
20
69.4986231
11
2.4
21
69
0
LINE
8
0
10
2.4
20
69
11
2.4
21
63.8946885
0
LINE
8
0
10
2.4
20
63.8946885
11
2.4
21
63.4605025
0
LINE
8
0
10
2.4
20
63.4605025
11
2.4
21
62.9718909
0
LINE
8
0
10
2.4
20
62.9718909
11
2.4
21
62.4735924
0
LINE
8
0
10
2.4
20
62.4735924
11
2.4
21
54.6144151
0
LINE
8
0
10
2.4
20
54.6144151
11
2.4
21
54.3470993
0
LINE
8
0
10
2.4
20
54.3470993
11
2.4
21
54.0172697
0
LINE
8
0
10
2.4
20
54.0172697
11
2.4
21
53.6666917
0
LINE
8
0
10
2.4
20
53.6666917
11
2.4
21
53.3368976
0
LINE
8
0
10
2.4
20
53.3368976
11
2.4
21
53.0596217
0
LINE
8
0
10
2.4
20
53.0596217
11
2.4
21
50.4107225
0
LINE
8
0
10
2.4
20
50.4107225
11
2.4
21
47.3266211
0
LINE
8
0
10
2.4
20
47.3266211
11
2.4
21
46.2425999
0
LINE
8
0
10
2.4
20
46.2425999
11
2.4
21
44.0745596
0
LINE
8
0
10
2.4
20
44.0745596
11
2.4
21
41.8144677
0
LINE
8
0
10
2.4
20
41.8144677
11
2.4
21
39.1023575
0
LINE
8
0
10
2.4
20
39.1023575
11
10.2083091
21
39.1023575
0
LINE
8
0
10
10.2083091
20
39.1023575
11
16
21
39.1023575
0
LINE
8
0
10
16
20
39.1023575
11
16
21
44.0745596
0
LINE
8
0
10
16
20
44.0745596
11
16
21
46.2425999
0
LINE
8
0
10
16
20
46.2425999
11
16
21
49.3975934
0
LINE
8
0
10
16
20
49.3975934
11
16
21
50.0048256
0
LINE
8
0
10
16
20
50.0048256
11
16
21
50.6389467
0
LINE
8
0
10
16
20
50.6389467
11
16
21
54.6215817
0
LINE
8
0
10
16
20
54.6215817
11
16
21
55.3256901
0
LINE
8
0
10
16
20
55.3256901
11
16
21
55.922316
0
LINE
8
0
10
16
20
55.922316
11
16
21
61.2948233
0
LINE
8
0
10
16
20
61.2948233
11
16
21
62.1761648
0
LINE
8
0
10
16
20
62.1761648
11
16
21
63.0810766
0
LINE
8
0
10
16
20
63.0810766
11
16
21
63.0810766
0
LINE
8
0
10
16
20
12.8976405
11
16
21
18.9300406
0
LINE
8
0
10
16
20
18.9300406
11
16
21
19.8258447
0
LINE
8
0
10
16
20
19.8258447
11
2.75169093
21
19.8258447
0
LINE
8
0
10
2.75169093
20
19.8258447
11
2.4
21
19.8258447
0
LINE
8
0
10
2.4
20
19.8258447
11
2.4
21
16.0763806
0
LINE
8
0
10
2.4
20
16.0763806
11
2.4
21
12.8976405
0
LINE
8
0
10
2.4
20
12.8976405
11
4.76830907
21
12.8976405
0
LINE
8
0
10
4.76830907
20
12.8976405
11
16
21
12.8976405
0
LINE
8
0
10
16
20
12.8976405
11
16
21
12.8976405
0
LINE
8
0
10
16
20
28.4860996
11
16
21
30.4421004
0
LINE
8
0
10
16
20
30.4421004
11
16
21
35.4143025
0
LINE
8
0
10
16
20
35.4143025
11
8.19169093
21
35.4143025
0
LINE
8
0
10
8.19169093
20
35.4143025
11
2.4
21
35.4143025
0
LINE
8
0
10
2.4
20
35.4143025
11
2.4
21
33.2044349
0
LINE
8
0
10
2.4
20
33.2044349
11
2.4
21
30.4421004
0
LINE
8
0
10
2.4
20
30.4421004
11
2.4
21
29.2684999
0
LINE
8
0
10
2.4
20
29.2684999
11
2.4
21
28.4860996
0
LINE
8
0
10
2.4
20
28.4860996
11
2.4
21
24.6514159
0
LINE
8
0
10
2.4
20
24.6514159
11
2.4
21
20.0497955
0
LINE
8
0
10
2.4
20
20.0497955
11
15.6483091
21
20.0497955
0
LINE
8
0
10
15.6483091
20
20.0497955
11
16
21
20.0497955
0
LINE
8
0
10
16
20
20.0497955
11
16
21
28.4860996
0
LINE
8
0
10
16
20
28.4860996
11
16
21
28.4860996
0
ENDSEC
0
EOF
