0
SECTION
2
ENTITIES
0
LINE
8
0
10
16
20
44.4723394
11
16
21
46.3221559
0
LINE
8
0
10
16
20
46.3221559
11
16
21
49.014061
0
LINE
8
0
10
16
20
49.014061
11
16
21
49.532164
0
LINE
8
0
10
16
20
49.532164
11
16
21
50.0732091
0
LINE
8
0
10
16
20
50.0732091
11
16
21
54.4234402
0
LINE
8
0
10
16
20
54.4234402
11
16
21
55.0877655
0
LINE
8
0
10
16
20
55.0877655
11
16
21
55.6506812
0
LINE
8
0
10
16
20
55.6506812
11
16
21
61.5458961
0
LINE
8
0
10
16
20
61.5458961
11
16
21
62.3985191
0
LINE
8
0
10
16
20
62.3985191
11
16
21
63.2739444
0
LINE
8
0
10
16
20
63.2739444
11
16
21
64.0923502
0
LINE
8
0
10
16
20
64.0923502
11
16
21
69
0
LINE
8
0
10
16
20
69
11
15.9366476
21
69.4811997
0
LINE
8
0
10
15.9366476
20
69.4811997
11
15.93185
21
69.51764
0
LINE
8
0
10
15.93185
20
69.51764
11
15.9177847
21
69.5515967
0
LINE
8
0
10
15.9177847
20
69.5515967
11
15.73205
21
70
0
LINE
8
0
10
15.73205
20
70
11
15.709675
21
70.0291592
0
LINE
8
0
10
15.709675
20
70.0291592
11
15.41421
21
70.41421
0
LINE
8
0
10
15.41421
20
70.41421
11
15.3850508
21
70.436585
0
LINE
8
0
10
15.3850508
20
70.436585
11
15
21
70.73205
0
LINE
8
0
10
15
20
70.73205
11
14.9660433
21
70.7461153
0
LINE
8
0
10
14.9660433
20
70.7461153
11
14.51764
21
70.93185
0
LINE
8
0
10
14.51764
20
70.93185
11
14.4811997
21
70.9366476
0
LINE
8
0
10
14.4811997
20
70.9366476
11
14
21
71
0
LINE
8
0
10
14
20
71
11
13.5038556
21
71
0
LINE
8
0
10
13.5038556
20
71
11
8.6668421
21
71
0
LINE
8
0
10
8.6668421
20
71
11
4.4
21
71
0
LINE
8
0
10
4.4
20
71
11
3.88635358
21
70.9323755
0
LINE
8
0
10
3.88635358
20
70.9323755
11
3.882362
21
70.93185
0
LINE
8
0
10
3.882362
20
70.93185
11
3.40371956
21
70.7335907
0
LINE
8
0
10
3.40371956
20
70.7335907
11
3.4
21
70.73205
0
LINE
8
0
10
3.4
20
70.73205
11
2.98898006
21
70.4166609
0
LINE
8
0
10
2.98898006
20
70.4166609
11
2.985786
21
70.41421
0
LINE
8
0
10
2.985786
20
70.41421
11
2.67039989
21
70.003194
0
LINE
8
0
10
2.67039989
20
70.003194
11
2.667949
21
70
0
LINE
8
0
10
2.667949
20
70
11
2.46968869
21
69.5213595
0
LINE
8
0
10
2.46968869
20
69.5213595
11
2.468148
21
69.51764
0
LINE
8
0
10
2.468148
20
69.51764
11
2.4676225
21
69.5136484
0
LINE
8
0
10
2.4676225
20
69.5136484
11
2.4
21
69
0
LINE
8
0
10
2.4
20
69
11
2.4
21
64.0376267
0
LINE
8
0
10
2.4
20
64.0376267
11
2.4
21
63.6155971
0
LINE
8
0
10
2.4
20
63.6155971
11
2.4
21
63.1406655
0
LINE
8
0
10
2.4
20
63.1406655
11
2.4
21
62.6563183
0
LINE
8
0
10
2.4
20
62.6563183
11
2.4
21
54.4166785
0
LINE
8
0
10
2.4
20
54.4166785
11
2.4
21
54.1644665
0
LINE
8
0
10
2.4
20
54.1644665
11
2.4
21
53.8532727
0
LINE
8
0
10
2.4
20
53.8532727
11
2.4
21
53.5225028
0
LINE
8
0
10
2.4
20
53.5225028
11
2.4
21
53.2113426
0
LINE
8
0
10
2.4
20
53.2113426
11
2.4
21
52.9497332
0
LINE
8
0
10
2.4
20
52.9497332
11
2.4
21
50.4505004
0
LINE
8
0
10
2.4
20
50.4505004
11
2.4
21
47.247065
0
LINE
8
0
10
2.4
20
47.247065
11
2.4
21
46.3221559
0
LINE
8
0
10
2.4
20
46.3221559
11
2.4
21
44.4723394
0
LINE
8
0
10
2.4
20
44.4723394
11
2.4
21
41.8506293
0
LINE
8
0
10
2.4
20
41.8506293
11
2.4
21
38.7045773
0
LINE
8
0
10
2.4
20
38.7045773
11
11.4576507
21
38.7045773
0
LINE
8
0
10
11.4576507
20
38.7045773
11
16
21
38.7045773
0
LINE
8
0
10
16
20
38.7045773
11
16
21
44.4723394
0
LINE
8
0
10
16
20
44.4723394
11
16
21
44.4723394
0
LINE
8
0
10
16
20
30.0443206
11
16
21
35.8120827
0
LINE
8
0
10
16
20
35.8120827
11
6.94234932
21
35.8120827
0
LINE
8
0
10
6.94234932
20
35.8120827
11
2.4
21
35.8120827
0
LINE
8
0
10
2.4
20
35.8120827
11
2.4
21
33.2486329
0
LINE
8
0
10
2.4
20
33.2486329
11
2.4
21
30.0443206
0
LINE
8
0
10
2.4
20
30.0443206
11
2.4
21
29.3480559
0
LINE
8
0
10
2.4
20
29.3480559
11
2.4
21
28.8838794
0
LINE
8
0
10
2.4
20
28.8838794
11
2.4
21
24.6875775
0
LINE
8
0
10
2.4
20
24.6875775
11
2.4
21
20.2236244
0
LINE
8
0
10
2.4
20
20.2236244
11
2.4
21
19.9949809
0
LINE
8
0
10
2.4
20
19.9949809
11
2.4
21
19.6520156
0
LINE
8
0
10
2.4
20
19.6520156
11
2.4
21
16.1205781
0
LINE
8
0
10
2.4
20
16.1205781
11
2.4
21
13.2954207
0
LINE
8
0
10
2.4
20
13.2954207
11
6.01765068
21
13.2954207
0
LINE
8
0
10
6.01765068
20
13.2954207
11
16
21
13.2954207
0
LINE
8
0
10
16
20
13.2954207
11
16
21
19.6520156
0
LINE
8
0
10
16
20
19.6520156
11
16
21
20.2236244
0
LINE
8
0
10
16
20
20.2236244
11
16
21
23.0816699
0
LINE
8
0
10
16
20
23.0816699
11
16
21
28.8838794
0
LINE
8
0
10
16
20
28.8838794
11
16
21
30.0443206
0
LINE
8
0
10
16
20
30.0443206
11
16
21
30.0443206
0
LINE
8
0
10
16
20
-7.59004913
11
16
21
-7.62582782
0
LINE
8
0
10
16
20
-7.62582782
11
16
21
-8.46623325
0
LINE
8
0
10
16
20
-8.46623325
11
16
21
-9.15608461
0
LINE
8
0
10
16
20
-9.15608461
11
16
21
-14
0
LINE
8
0
10
16
20
-14
11
15.9926987
21
-14.1199014
0
LINE
8
0
10
15.9926987
20
-14.1199014
11
15.9590791
21
-14.3752621
0
LINE
8
0
10
15.9590791
20
-14.3752621
11
15.93185
21
-14.51764
0
LINE
8
0
10
15.93185
20
-14.51764
11
15.9138663
21
-14.5610565
0
LINE
8
0
10
15.9138663
20
-14.5610565
11
15.73205
21
-15
0
LINE
8
0
10
15.73205
20
-15
11
15.7034417
21
-15.0372824
0
LINE
8
0
10
15.7034417
20
-15.0372824
11
15.41421
21
-15.41421
0
LINE
8
0
10
15.41421
20
-15.41421
11
15.3769276
21
-15.4428183
0
LINE
8
0
10
15.3769276
20
-15.4428183
11
14.9988807
21
-15.7326961
0
LINE
8
0
10
14.9988807
20
-15.7326961
11
14.9554642
21
-15.7506798
0
LINE
8
0
10
14.9554642
20
-15.7506798
11
14.51764
21
-15.93185
0
LINE
8
0
10
14.51764
20
-15.93185
11
14.471048
21
-15.9379841
0
LINE
8
0
10
14.471048
20
-15.9379841
11
14.1532396
21
-15.9870274
0
LINE
8
0
10
14.1532396
20
-15.9870274
11
14
21
-16
0
LINE
8
0
10
14
20
-16
11
8.76795772
21
-16
0
LINE
8
0
10
8.76795772
20
-16
11
4.4
21
-16
0
LINE
8
0
10
4.4
20
-16
11
4.14350963
21
-15.9748103
0
LINE
8
0
10
4.14350963
20
-15.9748103
11
3.88904764
21
-15.9334069
0
LINE
8
0
10
3.88904764
20
-15.9334069
11
3.882362
21
-15.93185
0
LINE
8
0
10
3.882362
20
-15.93185
11
3.86958405
21
-15.9275205
0
LINE
8
0
10
3.86958405
20
-15.9275205
11
3.41307368
21
-15.7385556
0
LINE
8
0
10
3.41307368
20
-15.7385556
11
3.40076883
21
-15.7324956
0
LINE
8
0
10
3.40076883
20
-15.7324956
11
3.39510203
21
-15.7289767
0
LINE
8
0
10
3.39510203
20
-15.7289767
11
3.00165831
21
-15.4272188
0
LINE
8
0
10
3.00165831
20
-15.4272188
11
2.985786
21
-15.41421
0
LINE
8
0
10
2.985786
20
-15.41421
11
2.97292438
21
-15.398558
0
LINE
8
0
10
2.97292438
20
-15.398558
11
2.67161489
21
-15.0058869
0
LINE
8
0
10
2.67161489
20
-15.0058869
11
2.667949
21
-15
0
LINE
8
0
10
2.667949
20
-15
11
2.6619441
21
-14.9878278
0
LINE
8
0
10
2.6619441
20
-14.9878278
11
2.47253274
21
-14.5305506
0
LINE
8
0
10
2.47253274
20
-14.5305506
11
2.468148
21
-14.51764
0
LINE
8
0
10
2.468148
20
-14.51764
11
2.46662659
21
-14.5111322
0
LINE
8
0
10
2.46662659
20
-14.5111322
11
2.46460431
21
-14.4907227
0
LINE
8
0
10
2.46460431
20
-14.4907227
11
2.43230214
21
-14.2453613
0
LINE
8
0
10
2.43230214
20
-14.2453613
11
2.40456053
21
-14.0749134
0
LINE
8
0
10
2.40456053
20
-14.0749134
11
2.4
21
-14
0
LINE
8
0
10
2.4
20
-14
11
2.4
21
-13.970205
0
LINE
8
0
10
2.4
20
-13.970205
11
2.4
21
-5.73775097
0
LINE
8
0
10
2.4
20
-5.73775097
11
2.4
21
-5.636316
0
LINE
8
0
10
2.4
20
-5.636316
11
2.4
21
-5.10692816
0
LINE
8
0
10
2.4
20
-5.10692816
11
2.4
21
-1.34827857
0
LINE
8
0
10
2.4
20
-1.34827857
11
2.4
21
-0.965540252
0
LINE
8
0
10
2.4
20
-0.965540252
11
2.4
21
-0.501970723
0
LINE
8
0
10
2.4
20
-0.501970723
11
2.4
21
0.000696776078
0
LINE
8
0
10
2.4
20
0.000696776078
11
2.4
21
5.34970029
0
LINE
8
0
10
2.4
20
5.34970029
11
2.4
21
5.59168497
0
LINE
8
0
10
2.4
20
5.59168497
11
2.4
21
5.83647796
0
LINE
8
0
10
2.4
20
5.83647796
11
2.4
21
6.58225053
0
LINE
8
0
10
2.4
20
6.58225053
11
2.4
21
7.49563726
0
LINE
8
0
10
2.4
20
7.49563726
11
2.4
21
8.44912563
0
LINE
8
0
10
2.4
20
8.44912563
11
2.4
21
10.9917611
0
LINE
8
0
10
2.4
20
10.9917611
11
12.3823493
21
10.9917611
0
LINE
8
0
10
12.3823493
20
10.9917611
11
16
21
10.9917611
0
LINE
8
0
10
16
20
10.9917611
11
16
21
5.16083737
0
LINE
8
0
10
16
20
5.16083737
11
16
21
4.44856658
0
LINE
8
0
10
16
20
4.44856658
11
16
21
3.70823289
0
LINE
8
0
10
16
20
3.70823289
11
16
21
3.07015635
0
LINE
8
0
10
16
20
3.07015635
11
16
21
-3.63162837
0
LINE
8
0
10
16
20
-3.63162837
11
16
21
-4.55258842
0
LINE
8
0
10
16
20
-4.55258842
11
16
21
-5.55966685
0
LINE
8
0
10
16
20
-5.55966685
11
16
21
-6.5704465
0
LINE
8
0
10
16
20
-6.5704465
11
16
21
-6.60423469
0
LINE
8
0
10
16
20
-6.60423469
11
16
21
-6.63621882
0
LINE
8
0
10
16
20
-6.63621882
11
16
21
-7.59004913
0
LINE
8
0
10
16
20
-7.59004913
11
16
21
-7.59004913
0
ENDSEC
0
EOF
