0
SECTION
2
ENTITIES
0
LINE
8
0
10
13.1840872
20
46.5
11
13.2621174
21
46.5
0
LINE
8
0
10
13.2621174
20
46.5
11
13.3436385
21
46.5
0
LINE
8
0
10
13.3436385
20
46.5
11
13.4163291
21
46.5
0
LINE
8
0
10
13.4163291
20
46.5
11
13.4736446
21
46.5
0
LINE
8
0
10
13.4736446
20
46.5
11
13.5141691
21
46.5
0
LINE
8
0
10
13.5141691
20
46.5
11
13.5393971
21
46.5
0
LINE
8
0
10
13.5393971
20
46.5
11
13.551849
21
46.5
0
LINE
8
0
10
13.551849
20
46.5
11
13.75
21
46.5
0
LINE
8
0
10
13.75
20
46.5
11
13.75
21
46.1793878
0
LINE
8
0
10
13.75
20
46.1793878
11
13.75
21
42.9065218
0
LINE
8
0
10
13.75
20
42.9065218
11
13.75
21
41.6406522
0
LINE
8
0
10
13.75
20
41.6406522
11
-9.46386837
21
41.6406522
0
LINE
8
0
10
-9.46386837
20
41.6406522
11
-18.5499992
21
41.6406522
0
LINE
8
0
10
-18.5499992
20
41.6406522
11
-18.5499992
21
41.9679388
0
LINE
8
0
10
-18.5499992
20
41.9679388
11
-18.5499992
21
46.1793878
0
LINE
8
0
10
-18.5499992
20
46.1793878
11
-18.5499992
21
46.4417554
0
LINE
8
0
10
-18.5499992
20
46.4417554
11
-18.5499992
21
46.4496935
0
LINE
8
0
10
-18.5499992
20
46.4496935
11
-18.5499992
21
46.4558664
0
LINE
8
0
10
-18.5499992
20
46.4558664
11
-18.5499992
21
46.4600029
0
LINE
8
0
10
-18.5499992
20
46.4600029
11
-18.5499992
21
46.4620025
0
LINE
8
0
10
-18.5499992
20
46.4620025
11
-18.5499992
21
46.4836872
0
LINE
8
0
10
-18.5499992
20
46.4836872
11
-18.5499992
21
46.5
0
LINE
8
0
10
-18.5499992
20
46.5
11
-18.4670728
21
46.5
0
LINE
8
0
10
-18.4670728
20
46.5
11
-17.8907007
21
46.5
0
LINE
8
0
10
-17.8907007
20
46.5
11
-17.8169342
21
46.5
0
LINE
8
0
10
-17.8169342
20
46.5
11
-17.7192606
21
46.5
0
LINE
8
0
10
-17.7192606
20
46.5
11
-17.5989506
21
46.5
0
LINE
8
0
10
-17.5989506
20
46.5
11
-17.4636114
21
46.5
0
LINE
8
0
10
-17.4636114
20
46.5
11
-17.3297923
21
46.5
0
LINE
8
0
10
-17.3297923
20
46.5
11
-17.2214866
21
46.5
0
LINE
8
0
10
-17.2214866
20
46.5
11
-17.1617497
21
46.5
0
LINE
8
0
10
-17.1617497
20
46.5
11
10.0065874
21
46.5
0
LINE
8
0
10
10.0065874
20
46.5
11
10.2107656
21
46.5
0
LINE
8
0
10
10.2107656
20
46.5
11
13.0936257
21
46.5
0
LINE
8
0
10
13.0936257
20
46.5
11
13.1243503
21
46.5
0
LINE
8
0
10
13.1243503
20
46.5
11
13.1840872
21
46.5
0
LINE
8
0
10
13.1840872
20
46.5
11
13.1840872
21
46.5
0
LINE
8
0
10
13.1840872
20
-1.10000002
11
13.2621174
21
-1.10000002
0
LINE
8
0
10
13.2621174
20
-1.10000002
11
13.3436385
21
-1.10000002
0
LINE
8
0
10
13.3436385
20
-1.10000002
11
13.4163291
21
-1.10000002
0
LINE
8
0
10
13.4163291
20
-1.10000002
11
13.4736446
21
-1.10000002
0
LINE
8
0
10
13.4736446
20
-1.10000002
11
13.5141691
21
-1.10000002
0
LINE
8
0
10
13.5141691
20
-1.10000002
11
13.5393971
21
-1.10000002
0
LINE
8
0
10
13.5393971
20
-1.10000002
11
13.551849
21
-1.10000002
0
LINE
8
0
10
13.551849
20
-1.10000002
11
13.75
21
-1.10000002
0
LINE
8
0
10
13.75
20
-1.10000002
11
13.75
21
-0.772975551
0
LINE
8
0
10
13.75
20
-0.772975551
11
13.75
21
2.56534772
0
LINE
8
0
10
13.75
20
2.56534772
11
13.75
21
3.85934782
0
LINE
8
0
10
13.75
20
3.85934782
11
4.66386914
21
3.85934782
0
LINE
8
0
10
4.66386914
20
3.85934782
11
-18.5499992
21
3.85934782
0
LINE
8
0
10
-18.5499992
20
3.85934782
11
-18.5499992
21
3.53206122
0
LINE
8
0
10
-18.5499992
20
3.53206122
11
-18.5499992
21
-0.772975551
0
LINE
8
0
10
-18.5499992
20
-0.772975551
11
-18.5499992
21
-1.03180794
0
LINE
8
0
10
-18.5499992
20
-1.03180794
11
-18.5499992
21
-1.0391904
0
LINE
8
0
10
-18.5499992
20
-1.0391904
11
-18.5499992
21
-1.04468271
0
LINE
8
0
10
-18.5499992
20
-1.04468271
11
-18.5499992
21
-1.04808053
0
LINE
8
0
10
-18.5499992
20
-1.04808053
11
-18.5499992
21
-1.07991452
0
LINE
8
0
10
-18.5499992
20
-1.07991452
11
-18.5499992
21
-1.08190747
0
LINE
8
0
10
-18.5499992
20
-1.08190747
11
-18.5499992
21
-1.10000002
0
LINE
8
0
10
-18.5499992
20
-1.10000002
11
-18.5243925
21
-1.10000002
0
LINE
8
0
10
-18.5243925
20
-1.10000002
11
-18.4670728
21
-1.10000002
0
LINE
8
0
10
-18.4670728
20
-1.10000002
11
-17.8907007
21
-1.10000002
0
LINE
8
0
10
-17.8907007
20
-1.10000002
11
-17.8169342
21
-1.10000002
0
LINE
8
0
10
-17.8169342
20
-1.10000002
11
-17.7192606
21
-1.10000002
0
LINE
8
0
10
-17.7192606
20
-1.10000002
11
-17.5989506
21
-1.10000002
0
LINE
8
0
10
-17.5989506
20
-1.10000002
11
-17.4636114
21
-1.10000002
0
LINE
8
0
10
-17.4636114
20
-1.10000002
11
-17.3297923
21
-1.10000002
0
LINE
8
0
10
-17.3297923
20
-1.10000002
11
-17.2214866
21
-1.10000002
0
LINE
8
0
10
-17.2214866
20
-1.10000002
11
-17.1617497
21
-1.10000002
0
LINE
8
0
10
-17.1617497
20
-1.10000002
11
10.0065874
21
-1.10000002
0
LINE
8
0
10
10.0065874
20
-1.10000002
11
10.2107656
21
-1.10000002
0
LINE
8
0
10
10.2107656
20
-1.10000002
11
13.0936257
21
-1.10000002
0
LINE
8
0
10
13.0936257
20
-1.10000002
11
13.1243503
21
-1.10000002
0
LINE
8
0
10
13.1243503
20
-1.10000002
11
13.1840872
21
-1.10000002
0
LINE
8
0
10
13.1840872
20
-1.10000002
11
13.1840872
21
-1.10000002
0
ENDSEC
0
EOF
