0
SECTION
2
ENTITIES
0
LINE
8
0
10
9.16740265
20
4
11
-2.67965916
21
4
0
LINE
8
0
10
-2.67965916
20
4
11
-9.16740265
21
4
0
LINE
8
0
10
-9.16740265
20
4
11
-9.15147514
21
-0.0369243257
0
LINE
8
0
10
-9.15147514
20
-0.0369243257
11
-9.15659311
21
-1.10000002
0
LINE
8
0
10
-9.15659311
20
-1.10000002
11
6.96184309
21
-1.10000002
0
LINE
8
0
10
6.96184309
20
-1.10000002
11
9.15659311
21
-1.10000002
0
LINE
8
0
10
9.15659311
20
-1.10000002
11
9.15147514
21
-0.0369243257
0
LINE
8
0
10
9.15147514
20
-0.0369243257
11
9.16740265
21
4
0
LINE
8
0
10
9.16740265
20
4
11
9.16740265
21
4
0
LINE
8
0
10
9.16740265
20
41.5
11
-2.67965916
21
41.5
0
LINE
8
0
10
-2.67965916
20
41.5
11
-9.16740265
21
41.5
0
LINE
8
0
10
-9.16740265
20
41.5
11
-9.15147514
21
45.4577689
0
LINE
8
0
10
-9.15147514
20
45.4577689
11
-9.15659311
21
46.5
0
LINE
8
0
10
-9.15659311
20
46.5
11
6.96184309
21
46.5
0
LINE
8
0
10
6.96184309
20
46.5
11
9.15659311
21
46.5
0
LINE
8
0
10
9.15659311
20
46.5
11
9.15147514
21
45.4577689
0
LINE
8
0
10
9.15147514
20
45.4577689
11
9.16740265
21
41.5
0
LINE
8
0
10
9.16740265
20
41.5
11
9.16740265
21
41.5
0
LINE
8
0
10
13.75
20
46.5
11
13.75
21
44.2557144
0
LINE
8
0
10
13.75
20
44.2557144
11
13.75
21
41.5
0
LINE
8
0
10
13.75
20
41.5
11
12.0694925
21
41.5
0
LINE
8
0
10
12.0694925
20
41.5
11
11.7038759
21
41.5
0
LINE
8
0
10
11.7038759
20
41.5
11
11.2050081
21
41.5
0
LINE
8
0
10
11.2050081
20
41.5
11
10.8325974
21
41.5
0
LINE
8
0
10
10.8325974
20
41.5
11
10.8485249
21
45.4577689
0
LINE
8
0
10
10.8485249
20
45.4577689
11
10.8434069
21
46.5
0
LINE
8
0
10
10.8434069
20
46.5
11
10.9054698
21
46.5
0
LINE
8
0
10
10.9054698
20
46.5
11
11.414304
21
46.5
0
LINE
8
0
10
11.414304
20
46.5
11
11.8155122
21
46.5
0
LINE
8
0
10
11.8155122
20
46.5
11
12.0991838
21
46.5
0
LINE
8
0
10
12.0991838
20
46.5
11
12.27578
21
46.5
0
LINE
8
0
10
12.27578
20
46.5
11
12.3629429
21
46.5
0
LINE
8
0
10
12.3629429
20
46.5
11
13.75
21
46.5
0
LINE
8
0
10
13.75
20
46.5
11
13.75
21
46.5
0
LINE
8
0
10
13.75
20
-1.10000002
11
13.75
21
1.18917129
0
LINE
8
0
10
13.75
20
1.18917129
11
13.75
21
4
0
LINE
8
0
10
13.75
20
4
11
12.0694925
21
4
0
LINE
8
0
10
12.0694925
20
4
11
11.7038759
21
4
0
LINE
8
0
10
11.7038759
20
4
11
11.2050081
21
4
0
LINE
8
0
10
11.2050081
20
4
11
10.8325974
21
4
0
LINE
8
0
10
10.8325974
20
4
11
10.8485249
21
-0.0369243257
0
LINE
8
0
10
10.8485249
20
-0.0369243257
11
10.8434069
21
-1.10000002
0
LINE
8
0
10
10.8434069
20
-1.10000002
11
10.9054698
21
-1.10000002
0
LINE
8
0
10
10.9054698
20
-1.10000002
11
11.414304
21
-1.10000002
0
LINE
8
0
10
11.414304
20
-1.10000002
11
11.8155122
21
-1.10000002
0
LINE
8
0
10
11.8155122
20
-1.10000002
11
12.0991838
21
-1.10000002
0
LINE
8
0
10
12.0991838
20
-1.10000002
11
12.27578
21
-1.10000002
0
LINE
8
0
10
12.27578
20
-1.10000002
11
12.3629429
21
-1.10000002
0
LINE
8
0
10
12.3629429
20
-1.10000002
11
13.75
21
-1.10000002
0
LINE
8
0
10
13.75
20
-1.10000002
11
13.75
21
-1.10000002
0
LINE
8
0
10
-10.8434069
20
46.5
11
-10.8485249
21
45.4577689
0
LINE
8
0
10
-10.8485249
20
45.4577689
11
-10.8325974
21
41.5
0
LINE
8
0
10
-10.8325974
20
41.5
11
-11.5190902
21
41.5
0
LINE
8
0
10
-11.5190902
20
41.5
11
-12.5492298
21
41.5
0
LINE
8
0
10
-12.5492298
20
41.5
11
-13.3976903
21
41.5
0
LINE
8
0
10
-13.3976903
20
41.5
11
-18.5499992
21
41.5
0
LINE
8
0
10
-18.5499992
20
41.5
11
-18.5499992
21
41.7755714
0
LINE
8
0
10
-18.5499992
20
41.7755714
11
-18.5499992
21
44.2557144
0
LINE
8
0
10
-18.5499992
20
44.2557144
11
-18.5499992
21
46.0922881
0
LINE
8
0
10
-18.5499992
20
46.0922881
11
-18.5499992
21
46.1478543
0
LINE
8
0
10
-18.5499992
20
46.1478543
11
-18.5499992
21
46.1910649
0
LINE
8
0
10
-18.5499992
20
46.1910649
11
-18.5499992
21
46.2200203
0
LINE
8
0
10
-18.5499992
20
46.2200203
11
-18.5499992
21
46.2340175
0
LINE
8
0
10
-18.5499992
20
46.2340175
11
-18.5499992
21
46.3858104
0
LINE
8
0
10
-18.5499992
20
46.3858104
11
-18.5499992
21
46.5
0
LINE
8
0
10
-18.5499992
20
46.5
11
-17.9695144
21
46.5
0
LINE
8
0
10
-17.9695144
20
46.5
11
-13.9349093
21
46.5
0
LINE
8
0
10
-13.9349093
20
46.5
11
-13.4185438
21
46.5
0
LINE
8
0
10
-13.4185438
20
46.5
11
-12.7348288
21
46.5
0
LINE
8
0
10
-12.7348288
20
46.5
11
-11.8926584
21
46.5
0
LINE
8
0
10
-11.8926584
20
46.5
11
-10.9452847
21
46.5
0
LINE
8
0
10
-10.9452847
20
46.5
11
-10.8434069
21
46.5
0
LINE
8
0
10
-10.8434069
20
46.5
11
-10.8434069
21
46.5
0
LINE
8
0
10
-10.8434069
20
-1.10000002
11
-10.8485249
21
-0.0369243257
0
LINE
8
0
10
-10.8485249
20
-0.0369243257
11
-10.8325974
21
4
0
LINE
8
0
10
-10.8325974
20
4
11
-11.5190902
21
4
0
LINE
8
0
10
-11.5190902
20
4
11
-12.5492298
21
4
0
LINE
8
0
10
-12.5492298
20
4
11
-13.3976903
21
4
0
LINE
8
0
10
-13.3976903
20
4
11
-18.5499992
21
4
0
LINE
8
0
10
-18.5499992
20
4
11
-18.5499992
21
3.72442856
0
LINE
8
0
10
-18.5499992
20
3.72442856
11
-18.5499992
21
1.18917129
0
LINE
8
0
10
-18.5499992
20
1.18917129
11
-18.5499992
21
-0.622655412
0
LINE
8
0
10
-18.5499992
20
-0.622655412
11
-18.5499992
21
-0.674332641
0
LINE
8
0
10
-18.5499992
20
-0.674332641
11
-18.5499992
21
-0.712778799
0
LINE
8
0
10
-18.5499992
20
-0.712778799
11
-18.5499992
21
-0.736563578
0
LINE
8
0
10
-18.5499992
20
-0.736563578
11
-18.5499992
21
-0.959401481
0
LINE
8
0
10
-18.5499992
20
-0.959401481
11
-18.5499992
21
-0.973352163
0
LINE
8
0
10
-18.5499992
20
-0.973352163
11
-18.5499992
21
-1.10000002
0
LINE
8
0
10
-18.5499992
20
-1.10000002
11
-18.3707522
21
-1.10000002
0
LINE
8
0
10
-18.3707522
20
-1.10000002
11
-17.9695144
21
-1.10000002
0
LINE
8
0
10
-17.9695144
20
-1.10000002
11
-13.9349093
21
-1.10000002
0
LINE
8
0
10
-13.9349093
20
-1.10000002
11
-13.4185438
21
-1.10000002
0
LINE
8
0
10
-13.4185438
20
-1.10000002
11
-12.7348288
21
-1.10000002
0
LINE
8
0
10
-12.7348288
20
-1.10000002
11
-11.8926584
21
-1.10000002
0
LINE
8
0
10
-11.8926584
20
-1.10000002
11
-10.9452847
21
-1.10000002
0
LINE
8
0
10
-10.9452847
20
-1.10000002
11
-10.8434069
21
-1.10000002
0
LINE
8
0
10
-10.8434069
20
-1.10000002
11
-10.8434069
21
-1.10000002
0
ENDSEC
0
EOF
