0
SECTION
2
ENTITIES
0
LINE
8
0
10
-16.7319218
20
-1.10000002
11
-15.5500002
21
-1.10000002
0
LINE
8
0
10
-15.5500002
20
-1.10000002
11
-15.5500002
21
0.03205682
0
LINE
8
0
10
-15.5500002
20
0.03205682
11
-15.5500002
21
0.113124288
0
LINE
8
0
10
-15.5500002
20
0.113124288
11
-15.5500002
21
0.29644842
0
LINE
8
0
10
-15.5500002
20
0.29644842
11
-15.5500002
21
0.456543968
0
LINE
8
0
10
-15.5500002
20
0.456543968
11
-17.1643062
21
0.456543968
0
LINE
8
0
10
-17.1643062
20
0.456543968
11
-18.5499992
21
0.456543968
0
LINE
8
0
10
-18.5499992
20
0.456543968
11
-18.5499992
21
0.407652211
0
LINE
8
0
10
-18.5499992
20
0.407652211
11
-18.5499992
21
0.405479754
0
LINE
8
0
10
-18.5499992
20
0.405479754
11
-18.5499992
21
0.326070912
0
LINE
8
0
10
-18.5499992
20
0.326070912
11
-18.5499992
21
0.184571133
0
LINE
8
0
10
-18.5499992
20
0.184571133
11
-18.5499992
21
-1.10000002
0
LINE
8
0
10
-18.5499992
20
-1.10000002
11
-16.7319218
21
-1.10000002
0
LINE
8
0
10
-16.7319218
20
-1.10000002
11
-16.7319218
21
-1.10000002
0
LINE
8
0
10
-16.4417122
20
46.5
11
-15.5500002
21
46.5
0
LINE
8
0
10
-15.5500002
20
46.5
11
-15.5500002
21
45.2032523
0
LINE
8
0
10
-15.5500002
20
45.2032523
11
-15.5500002
21
44.563858
0
LINE
8
0
10
-15.5500002
20
44.563858
11
-15.5500002
21
44.4276986
0
LINE
8
0
10
-15.5500002
20
44.4276986
11
-15.5500002
21
44.3405762
0
LINE
8
0
10
-15.5500002
20
44.3405762
11
-15.5500002
21
44.1597781
0
LINE
8
0
10
-15.5500002
20
44.1597781
11
-15.5500002
21
44.0450287
0
LINE
8
0
10
-15.5500002
20
44.0450287
11
-15.5500002
21
43.8294665
0
LINE
8
0
10
-15.5500002
20
43.8294665
11
-15.5500002
21
43.6931381
0
LINE
8
0
10
-15.5500002
20
43.6931381
11
-15.5500002
21
43.4548394
0
LINE
8
0
10
-15.5500002
20
43.4548394
11
-15.5500002
21
43.3038826
0
LINE
8
0
10
-15.5500002
20
43.3038826
11
-15.5500002
21
43.0562287
0
LINE
8
0
10
-15.5500002
20
43.0562287
11
-15.5500002
21
42.8982468
0
LINE
8
0
10
-15.5500002
20
42.8982468
11
-15.5500002
21
42.6550658
0
LINE
8
0
10
-15.5500002
20
42.6550658
11
-15.5500002
21
42.4980927
0
LINE
8
0
10
-15.5500002
20
42.4980927
11
-15.5500002
21
42.2727485
0
LINE
8
0
10
-15.5500002
20
42.2727485
11
-15.5500002
21
42.125
0
LINE
8
0
10
-15.5500002
20
42.125
11
-15.5500002
21
41.9295503
0
LINE
8
0
10
-15.5500002
20
41.9295503
11
-15.5500002
21
41.7990761
0
LINE
8
0
10
-15.5500002
20
41.7990761
11
-15.5500002
21
41.6436344
0
LINE
8
0
10
-15.5500002
20
41.6436344
11
-15.5500002
21
41.5378952
0
LINE
8
0
10
-15.5500002
20
41.5378952
11
-15.5500002
21
40.9853515
0
LINE
8
0
10
-15.5500002
20
40.9853515
11
-15.5500002
21
40.5499992
0
LINE
8
0
10
-15.5500002
20
40.5499992
11
-17.3144547
21
40.5499992
0
LINE
8
0
10
-17.3144547
20
40.5499992
11
-18.5499992
21
40.5499992
0
LINE
8
0
10
-18.5499992
20
40.5499992
11
-18.5499992
21
41.1717165
0
LINE
8
0
10
-18.5499992
20
41.1717165
11
-18.5499992
21
41.5378952
0
LINE
8
0
10
-18.5499992
20
41.5378952
11
-18.5499992
21
41.6974499
0
LINE
8
0
10
-18.5499992
20
41.6974499
11
-18.5499992
21
41.7990761
0
LINE
8
0
10
-18.5499992
20
41.7990761
11
-18.5499992
21
41.9986421
0
LINE
8
0
10
-18.5499992
20
41.9986421
11
-18.5499992
21
42.125
0
LINE
8
0
10
-18.5499992
20
42.125
11
-18.5499992
21
42.3535366
0
LINE
8
0
10
-18.5499992
20
42.3535366
11
-18.5499992
21
42.4980927
0
LINE
8
0
10
-18.5499992
20
42.4980927
11
-18.5499992
21
42.7427935
0
LINE
8
0
10
-18.5499992
20
42.7427935
11
-18.5499992
21
42.8982468
0
LINE
8
0
10
-18.5499992
20
42.8982468
11
-18.5499992
21
43.1453834
0
LINE
8
0
10
-18.5499992
20
43.1453834
11
-18.5499992
21
43.3038826
0
LINE
8
0
10
-18.5499992
20
43.3038826
11
-18.5499992
21
43.5397516
0
LINE
8
0
10
-18.5499992
20
43.5397516
11
-18.5499992
21
43.6931381
0
LINE
8
0
10
-18.5499992
20
43.6931381
11
-18.5499992
21
43.9049355
0
LINE
8
0
10
-18.5499992
20
43.9049355
11
-18.5499992
21
44.0450287
0
LINE
8
0
10
-18.5499992
20
44.0450287
11
-18.5499992
21
44.2215944
0
LINE
8
0
10
-18.5499992
20
44.2215944
11
-18.5499992
21
44.3405762
0
LINE
8
0
10
-18.5499992
20
44.3405762
11
-18.5499992
21
44.4729625
0
LINE
8
0
10
-18.5499992
20
44.4729625
11
-18.5499992
21
44.563858
0
LINE
8
0
10
-18.5499992
20
44.563858
11
-18.5499992
21
44.6456657
0
LINE
8
0
10
-18.5499992
20
44.6456657
11
-18.5499992
21
44.7028275
0
LINE
8
0
10
-18.5499992
20
44.7028275
11
-18.5499992
21
44.7304208
0
LINE
8
0
10
-18.5499992
20
44.7304208
11
-18.5499992
21
44.75
0
LINE
8
0
10
-18.5499992
20
44.75
11
-18.5499992
21
45.3417907
0
LINE
8
0
10
-18.5499992
20
45.3417907
11
-18.5499992
21
46.5
0
LINE
8
0
10
-18.5499992
20
46.5
11
-16.4417122
21
46.5
0
LINE
8
0
10
-16.4417122
20
46.5
11
-16.4417122
21
46.5
0
ENDSEC
0
EOF
