0
SECTION
2
ENTITIES
0
LINE
8
0
10
-16.4758545
20
46.5
11
-15.5500002
21
46.5
0
LINE
8
0
10
-15.5500002
20
46.5
11
-15.5500002
21
45.2407116
0
LINE
8
0
10
-15.5500002
20
45.2407116
11
-15.5500002
21
44.563858
0
LINE
8
0
10
-15.5500002
20
44.563858
11
-15.5500002
21
44.4330238
0
LINE
8
0
10
-15.5500002
20
44.4330238
11
-15.5500002
21
44.3405762
0
LINE
8
0
10
-15.5500002
20
44.3405762
11
-15.5500002
21
44.1670506
0
LINE
8
0
10
-15.5500002
20
44.1670506
11
-15.5500002
21
44.0450287
0
LINE
8
0
10
-15.5500002
20
44.0450287
11
-15.5500002
21
43.8383452
0
LINE
8
0
10
-15.5500002
20
43.8383452
11
-15.5500002
21
43.6931381
0
LINE
8
0
10
-15.5500002
20
43.6931381
11
-15.5500002
21
43.4648291
0
LINE
8
0
10
-15.5500002
20
43.4648291
11
-15.5500002
21
43.3038826
0
LINE
8
0
10
-15.5500002
20
43.3038826
11
-15.5500002
21
43.0667175
0
LINE
8
0
10
-15.5500002
20
43.0667175
11
-15.5500002
21
42.8982468
0
LINE
8
0
10
-15.5500002
20
42.8982468
11
-15.5500002
21
42.6653867
0
LINE
8
0
10
-15.5500002
20
42.6653867
11
-15.5500002
21
42.4980927
0
LINE
8
0
10
-15.5500002
20
42.4980927
11
-15.5500002
21
42.282253
0
LINE
8
0
10
-15.5500002
20
42.282253
11
-15.5500002
21
42.125
0
LINE
8
0
10
-15.5500002
20
42.125
11
-15.5500002
21
41.9376788
0
LINE
8
0
10
-15.5500002
20
41.9376788
11
-15.5500002
21
41.7990761
0
LINE
8
0
10
-15.5500002
20
41.7990761
11
-15.5500002
21
41.6499657
0
LINE
8
0
10
-15.5500002
20
41.6499657
11
-15.5500002
21
41.5378952
0
LINE
8
0
10
-15.5500002
20
41.5378952
11
-15.5500002
21
41.0072768
0
LINE
8
0
10
-15.5500002
20
41.0072768
11
-15.5500002
21
40.5499992
0
LINE
8
0
10
-15.5500002
20
40.5499992
11
-17.25223
21
40.5499992
0
LINE
8
0
10
-17.25223
20
40.5499992
11
-18.5499992
21
40.5499992
0
LINE
8
0
10
-18.5499992
20
40.5499992
11
-18.5499992
21
41.1497912
0
LINE
8
0
10
-18.5499992
20
41.1497912
11
-18.5499992
21
41.5378952
0
LINE
8
0
10
-18.5499992
20
41.5378952
11
-18.5499992
21
41.6911187
0
LINE
8
0
10
-18.5499992
20
41.6911187
11
-18.5499992
21
41.7990761
0
LINE
8
0
10
-18.5499992
20
41.7990761
11
-18.5499992
21
41.9905137
0
LINE
8
0
10
-18.5499992
20
41.9905137
11
-18.5499992
21
42.125
0
LINE
8
0
10
-18.5499992
20
42.125
11
-18.5499992
21
42.3440321
0
LINE
8
0
10
-18.5499992
20
42.3440321
11
-18.5499992
21
42.4980927
0
LINE
8
0
10
-18.5499992
20
42.4980927
11
-18.5499992
21
42.7324726
0
LINE
8
0
10
-18.5499992
20
42.7324726
11
-18.5499992
21
42.8982468
0
LINE
8
0
10
-18.5499992
20
42.8982468
11
-18.5499992
21
43.1348946
0
LINE
8
0
10
-18.5499992
20
43.1348946
11
-18.5499992
21
43.3038826
0
LINE
8
0
10
-18.5499992
20
43.3038826
11
-18.5499992
21
43.5297619
0
LINE
8
0
10
-18.5499992
20
43.5297619
11
-18.5499992
21
43.6931381
0
LINE
8
0
10
-18.5499992
20
43.6931381
11
-18.5499992
21
43.8960568
0
LINE
8
0
10
-18.5499992
20
43.8960568
11
-18.5499992
21
44.0450287
0
LINE
8
0
10
-18.5499992
20
44.0450287
11
-18.5499992
21
44.2143219
0
LINE
8
0
10
-18.5499992
20
44.2143219
11
-18.5499992
21
44.3405762
0
LINE
8
0
10
-18.5499992
20
44.3405762
11
-18.5499992
21
44.4676374
0
LINE
8
0
10
-18.5499992
20
44.4676374
11
-18.5499992
21
44.563858
0
LINE
8
0
10
-18.5499992
20
44.563858
11
-18.5499992
21
44.6424662
0
LINE
8
0
10
-18.5499992
20
44.6424662
11
-18.5499992
21
44.7028275
0
LINE
8
0
10
-18.5499992
20
44.7028275
11
-18.5499992
21
44.7293743
0
LINE
8
0
10
-18.5499992
20
44.7293743
11
-18.5499992
21
44.75
0
LINE
8
0
10
-18.5499992
20
44.75
11
-18.5499992
21
45.3200403
0
LINE
8
0
10
-18.5499992
20
45.3200403
11
-18.5499992
21
46.5
0
LINE
8
0
10
-18.5499992
20
46.5
11
-16.4758545
21
46.5
0
LINE
8
0
10
-16.4758545
20
46.5
11
-16.4758545
21
46.5
0
LINE
8
0
10
-15.7099608
20
0.365780087
11
-15.5500002
21
0.365780087
0
LINE
8
0
10
-15.5500002
20
0.365780087
11
-15.5500002
21
0.349916311
0
LINE
8
0
10
-15.5500002
20
0.349916311
11
-15.5500002
21
0.159572977
0
LINE
8
0
10
-15.5500002
20
0.159572977
11
-15.5500002
21
0.0754015582
0
LINE
8
0
10
-15.5500002
20
0.0754015582
11
-15.5500002
21
-1.10000002
0
LINE
8
0
10
-15.5500002
20
-1.10000002
11
-16.6977795
21
-1.10000002
0
LINE
8
0
10
-16.6977795
20
-1.10000002
11
-18.5499992
21
-1.10000002
0
LINE
8
0
10
-18.5499992
20
-1.10000002
11
-18.5499992
21
0.208694535
0
LINE
8
0
10
-18.5499992
20
0.208694535
11
-18.5499992
21
0.352851587
0
LINE
8
0
10
-18.5499992
20
0.352851587
11
-18.5499992
21
0.360720163
0
LINE
8
0
10
-18.5499992
20
0.360720163
11
-18.5499992
21
0.360935431
0
LINE
8
0
10
-18.5499992
20
0.360935431
11
-18.5499992
21
0.365780087
0
LINE
8
0
10
-18.5499992
20
0.365780087
11
-15.7099608
21
0.365780087
0
LINE
8
0
10
-15.7099608
20
0.365780087
11
-15.7099608
21
0.365780087
0
ENDSEC
0
EOF
