0
SECTION
2
ENTITIES
0
LINE
8
0
10
8.88072491
20
0.343391932
11
8.89173123
21
4
0
LINE
8
0
10
8.89173123
20
4
11
-2.9558459
21
4
0
LINE
8
0
10
-2.9558459
20
4
11
-8.89173123
21
4
0
LINE
8
0
10
-8.89173123
20
4
11
-8.88072491
21
0.343391932
0
LINE
8
0
10
-8.88072491
20
0.343391932
11
-8.88561516
21
-1.10000002
0
LINE
8
0
10
-8.88561516
20
-1.10000002
11
6.13205019
21
-1.10000002
0
LINE
8
0
10
6.13205019
20
-1.10000002
11
8.88561516
21
-1.10000002
0
LINE
8
0
10
8.88561516
20
-1.10000002
11
8.88072491
21
0.343391932
0
LINE
8
0
10
8.88072491
20
0.343391932
11
8.88072491
21
0.343391932
0
LINE
8
0
10
8.88072491
20
45.0849099
11
8.89173123
21
41.5
0
LINE
8
0
10
8.89173123
20
41.5
11
-2.9558459
21
41.5
0
LINE
8
0
10
-2.9558459
20
41.5
11
-8.89173123
21
41.5
0
LINE
8
0
10
-8.89173123
20
41.5
11
-8.88072491
21
45.0849099
0
LINE
8
0
10
-8.88072491
20
45.0849099
11
-8.88561516
21
46.5
0
LINE
8
0
10
-8.88561516
20
46.5
11
6.13205019
21
46.5
0
LINE
8
0
10
6.13205019
20
46.5
11
8.88561516
21
46.5
0
LINE
8
0
10
8.88561516
20
46.5
11
8.88072491
21
45.0849099
0
LINE
8
0
10
8.88072491
20
45.0849099
11
8.88072491
21
45.0849099
0
LINE
8
0
10
13.75
20
46.5
11
13.75
21
44.0419729
0
LINE
8
0
10
13.75
20
44.0419729
11
13.75
21
41.5
0
LINE
8
0
10
13.75
20
41.5
11
11.8697385
21
41.5
0
LINE
8
0
10
11.8697385
20
41.5
11
11.4606628
21
41.5
0
LINE
8
0
10
11.4606628
20
41.5
11
11.1082688
21
41.5
0
LINE
8
0
10
11.1082688
20
41.5
11
11.1192751
21
45.0849099
0
LINE
8
0
10
11.1192751
20
45.0849099
11
11.1143848
21
46.5
0
LINE
8
0
10
11.1143848
20
46.5
11
11.1918567
21
46.5
0
LINE
8
0
10
11.1918567
20
46.5
11
11.6312753
21
46.5
0
LINE
8
0
10
11.6312753
20
46.5
11
11.9419632
21
46.5
0
LINE
8
0
10
11.9419632
20
46.5
11
12.1353781
21
46.5
0
LINE
8
0
10
12.1353781
20
46.5
11
12.2308422
21
46.5
0
LINE
8
0
10
12.2308422
20
46.5
11
13.75
21
46.5
0
LINE
8
0
10
13.75
20
46.5
11
13.75
21
46.5
0
LINE
8
0
10
13.75
20
-1.10000002
11
13.75
21
1.4071876
0
LINE
8
0
10
13.75
20
1.4071876
11
13.75
21
4
0
LINE
8
0
10
13.75
20
4
11
11.8697385
21
4
0
LINE
8
0
10
11.8697385
20
4
11
11.4606628
21
4
0
LINE
8
0
10
11.4606628
20
4
11
11.1082688
21
4
0
LINE
8
0
10
11.1082688
20
4
11
11.1192751
21
0.343391932
0
LINE
8
0
10
11.1192751
20
0.343391932
11
11.1143848
21
-1.10000002
0
LINE
8
0
10
11.1143848
20
-1.10000002
11
11.1918567
21
-1.10000002
0
LINE
8
0
10
11.1918567
20
-1.10000002
11
11.6312753
21
-1.10000002
0
LINE
8
0
10
11.6312753
20
-1.10000002
11
11.9419632
21
-1.10000002
0
LINE
8
0
10
11.9419632
20
-1.10000002
11
12.1353781
21
-1.10000002
0
LINE
8
0
10
12.1353781
20
-1.10000002
11
12.2308422
21
-1.10000002
0
LINE
8
0
10
12.2308422
20
-1.10000002
11
13.75
21
-1.10000002
0
LINE
8
0
10
13.75
20
-1.10000002
11
13.75
21
-1.10000002
0
LINE
8
0
10
-11.258626
20
46.5
11
-11.1143848
21
46.5
0
LINE
8
0
10
-11.1143848
20
46.5
11
-11.1192751
21
45.0849099
0
LINE
8
0
10
-11.1192751
20
45.0849099
11
-11.1082688
21
41.5
0
LINE
8
0
10
-11.1082688
20
41.5
11
-11.8359467
21
41.5
0
LINE
8
0
10
-11.8359467
20
41.5
11
-12.7852597
21
41.5
0
LINE
8
0
10
-12.7852597
20
41.5
11
-18.5499992
21
41.5
0
LINE
8
0
10
-18.5499992
20
41.5
11
-18.5499992
21
41.7541973
0
LINE
8
0
10
-18.5499992
20
41.7541973
11
-18.5499992
21
44.0419729
0
LINE
8
0
10
-18.5499992
20
44.0419729
11
-18.5499992
21
46.0534584
0
LINE
8
0
10
-18.5499992
20
46.0534584
11
-18.5499992
21
46.1143166
0
LINE
8
0
10
-18.5499992
20
46.1143166
11
-18.5499992
21
46.1616425
0
LINE
8
0
10
-18.5499992
20
46.1616425
11
-18.5499992
21
46.1933556
0
LINE
8
0
10
-18.5499992
20
46.1933556
11
-18.5499992
21
46.2086858
0
LINE
8
0
10
-18.5499992
20
46.2086858
11
-18.5499992
21
46.3749352
0
LINE
8
0
10
-18.5499992
20
46.3749352
11
-18.5499992
21
46.5
0
LINE
8
0
10
-18.5499992
20
46.5
11
-17.9142302
21
46.5
0
LINE
8
0
10
-17.9142302
20
46.5
11
-13.4953769
21
46.5
0
LINE
8
0
10
-13.4953769
20
46.5
11
-12.9298337
21
46.5
0
LINE
8
0
10
-12.9298337
20
46.5
11
-12.181003
21
46.5
0
LINE
8
0
10
-12.181003
20
46.5
11
-11.258626
21
46.5
0
LINE
8
0
10
-11.258626
20
46.5
11
-11.258626
21
46.5
0
LINE
8
0
10
-11.258626
20
-1.10000002
11
-11.1143848
21
-1.10000002
0
LINE
8
0
10
-11.1143848
20
-1.10000002
11
-11.1192751
21
0.343391932
0
LINE
8
0
10
-11.1192751
20
0.343391932
11
-11.1082688
21
4
0
LINE
8
0
10
-11.1082688
20
4
11
-11.8359467
21
4
0
LINE
8
0
10
-11.8359467
20
4
11
-12.7852597
21
4
0
LINE
8
0
10
-12.7852597
20
4
11
-18.5499992
21
4
0
LINE
8
0
10
-18.5499992
20
4
11
-18.5499992
21
3.74580271
0
LINE
8
0
10
-18.5499992
20
3.74580271
11
-18.5499992
21
1.4071876
0
LINE
8
0
10
-18.5499992
20
1.4071876
11
-18.5499992
21
-0.57719402
0
LINE
8
0
10
-18.5499992
20
-0.57719402
11
-18.5499992
21
-0.633792891
0
LINE
8
0
10
-18.5499992
20
-0.633792891
11
-18.5499992
21
-0.675900587
0
LINE
8
0
10
-18.5499992
20
-0.675900587
11
-18.5499992
21
-0.701950583
0
LINE
8
0
10
-18.5499992
20
-0.701950583
11
-18.5499992
21
-0.946011143
0
LINE
8
0
10
-18.5499992
20
-0.946011143
11
-18.5499992
21
-0.961290462
0
LINE
8
0
10
-18.5499992
20
-0.961290462
11
-18.5499992
21
-1.10000002
0
LINE
8
0
10
-18.5499992
20
-1.10000002
11
-18.353681
21
-1.10000002
0
LINE
8
0
10
-18.353681
20
-1.10000002
11
-17.9142302
21
-1.10000002
0
LINE
8
0
10
-17.9142302
20
-1.10000002
11
-13.4953769
21
-1.10000002
0
LINE
8
0
10
-13.4953769
20
-1.10000002
11
-12.9298337
21
-1.10000002
0
LINE
8
0
10
-12.9298337
20
-1.10000002
11
-12.181003
21
-1.10000002
0
LINE
8
0
10
-12.181003
20
-1.10000002
11
-11.258626
21
-1.10000002
0
LINE
8
0
10
-11.258626
20
-1.10000002
11
-11.258626
21
-1.10000002
0
ENDSEC
0
EOF
