0
SECTION
2
ENTITIES
0
LINE
8
0
10
-17.1900053
20
40.5499992
11
-15.5500002
21
40.5499992
0
LINE
8
0
10
-15.5500002
20
40.5499992
11
-15.5500002
21
41.0292021
0
LINE
8
0
10
-15.5500002
20
41.0292021
11
-15.5500002
21
41.5378952
0
LINE
8
0
10
-15.5500002
20
41.5378952
11
-15.5500002
21
41.6562969
0
LINE
8
0
10
-15.5500002
20
41.6562969
11
-15.5500002
21
41.7990761
0
LINE
8
0
10
-15.5500002
20
41.7990761
11
-15.5500002
21
41.9458072
0
LINE
8
0
10
-15.5500002
20
41.9458072
11
-15.5500002
21
42.125
0
LINE
8
0
10
-15.5500002
20
42.125
11
-15.5500002
21
42.2917575
0
LINE
8
0
10
-15.5500002
20
42.2917575
11
-15.5500002
21
42.4980927
0
LINE
8
0
10
-15.5500002
20
42.4980927
11
-15.5500002
21
42.6757076
0
LINE
8
0
10
-15.5500002
20
42.6757076
11
-15.5500002
21
42.8982468
0
LINE
8
0
10
-15.5500002
20
42.8982468
11
-15.5500002
21
43.0772063
0
LINE
8
0
10
-15.5500002
20
43.0772063
11
-15.5500002
21
43.3038826
0
LINE
8
0
10
-15.5500002
20
43.3038826
11
-15.5500002
21
43.4748188
0
LINE
8
0
10
-15.5500002
20
43.4748188
11
-15.5500002
21
43.6931381
0
LINE
8
0
10
-15.5500002
20
43.6931381
11
-15.5500002
21
43.8472239
0
LINE
8
0
10
-15.5500002
20
43.8472239
11
-15.5500002
21
44.0450287
0
LINE
8
0
10
-15.5500002
20
44.0450287
11
-15.5500002
21
44.1743231
0
LINE
8
0
10
-15.5500002
20
44.1743231
11
-15.5500002
21
44.3405762
0
LINE
8
0
10
-15.5500002
20
44.3405762
11
-15.5500002
21
44.4383489
0
LINE
8
0
10
-15.5500002
20
44.4383489
11
-15.5500002
21
44.563858
0
LINE
8
0
10
-15.5500002
20
44.563858
11
-15.5500002
21
45.2781709
0
LINE
8
0
10
-15.5500002
20
45.2781709
11
-15.5500002
21
46.5
0
LINE
8
0
10
-15.5500002
20
46.5
11
-16.5099968
21
46.5
0
LINE
8
0
10
-16.5099968
20
46.5
11
-18.5499992
21
46.5
0
LINE
8
0
10
-18.5499992
20
46.5
11
-18.5499992
21
45.2982899
0
LINE
8
0
10
-18.5499992
20
45.2982899
11
-18.5499992
21
44.75
0
LINE
8
0
10
-18.5499992
20
44.75
11
-18.5499992
21
44.7283277
0
LINE
8
0
10
-18.5499992
20
44.7283277
11
-18.5499992
21
44.7028275
0
LINE
8
0
10
-18.5499992
20
44.7028275
11
-18.5499992
21
44.6392667
0
LINE
8
0
10
-18.5499992
20
44.6392667
11
-18.5499992
21
44.563858
0
LINE
8
0
10
-18.5499992
20
44.563858
11
-18.5499992
21
44.4623122
0
LINE
8
0
10
-18.5499992
20
44.4623122
11
-18.5499992
21
44.3405762
0
LINE
8
0
10
-18.5499992
20
44.3405762
11
-18.5499992
21
44.2070494
0
LINE
8
0
10
-18.5499992
20
44.2070494
11
-18.5499992
21
44.0450287
0
LINE
8
0
10
-18.5499992
20
44.0450287
11
-18.5499992
21
43.8871781
0
LINE
8
0
10
-18.5499992
20
43.8871781
11
-18.5499992
21
43.6931381
0
LINE
8
0
10
-18.5499992
20
43.6931381
11
-18.5499992
21
43.5197723
0
LINE
8
0
10
-18.5499992
20
43.5197723
11
-18.5499992
21
43.3038826
0
LINE
8
0
10
-18.5499992
20
43.3038826
11
-18.5499992
21
43.1244059
0
LINE
8
0
10
-18.5499992
20
43.1244059
11
-18.5499992
21
42.8982468
0
LINE
8
0
10
-18.5499992
20
42.8982468
11
-18.5499992
21
42.7221517
0
LINE
8
0
10
-18.5499992
20
42.7221517
11
-18.5499992
21
42.4980927
0
LINE
8
0
10
-18.5499992
20
42.4980927
11
-18.5499992
21
42.3345277
0
LINE
8
0
10
-18.5499992
20
42.3345277
11
-18.5499992
21
42.125
0
LINE
8
0
10
-18.5499992
20
42.125
11
-18.5499992
21
41.9823852
0
LINE
8
0
10
-18.5499992
20
41.9823852
11
-18.5499992
21
41.7990761
0
LINE
8
0
10
-18.5499992
20
41.7990761
11
-18.5499992
21
41.6847874
0
LINE
8
0
10
-18.5499992
20
41.6847874
11
-18.5499992
21
41.5378952
0
LINE
8
0
10
-18.5499992
20
41.5378952
11
-18.5499992
21
41.1278659
0
LINE
8
0
10
-18.5499992
20
41.1278659
11
-18.5499992
21
40.5499992
0
LINE
8
0
10
-18.5499992
20
40.5499992
11
-17.1900053
21
40.5499992
0
LINE
8
0
10
-17.1900053
20
40.5499992
11
-17.1900053
21
40.5499992
0
LINE
8
0
10
-16.6636372
20
-1.10000002
11
-15.5500002
21
-1.10000002
0
LINE
8
0
10
-15.5500002
20
-1.10000002
11
-15.5500002
21
0.118746296
0
LINE
8
0
10
-15.5500002
20
0.118746296
11
-15.5500002
21
0.206021665
0
LINE
8
0
10
-15.5500002
20
0.206021665
11
-15.5500002
21
0.315762686
0
LINE
8
0
10
-15.5500002
20
0.315762686
11
-17.2726401
21
0.315762686
0
LINE
8
0
10
-17.2726401
20
0.315762686
11
-18.5499992
21
0.315762686
0
LINE
8
0
10
-18.5499992
20
0.315762686
11
-18.5499992
21
0.232817937
0
LINE
8
0
10
-18.5499992
20
0.232817937
11
-18.5499992
21
-1.10000002
0
LINE
8
0
10
-18.5499992
20
-1.10000002
11
-16.6636372
21
-1.10000002
0
LINE
8
0
10
-16.6636372
20
-1.10000002
11
-16.6636372
21
-1.10000002
0
ENDSEC
0
EOF
