0
SECTION
2
ENTITIES
0
LINE
8
0
10
-16.527068
20
46.5
11
-15.5500002
21
46.5
0
LINE
8
0
10
-15.5500002
20
46.5
11
-15.5500002
21
45.2969005
0
LINE
8
0
10
-15.5500002
20
45.2969005
11
-15.5500002
21
44.563858
0
LINE
8
0
10
-15.5500002
20
44.563858
11
-15.5500002
21
44.4410115
0
LINE
8
0
10
-15.5500002
20
44.4410115
11
-15.5500002
21
44.3405762
0
LINE
8
0
10
-15.5500002
20
44.3405762
11
-15.5500002
21
44.1779594
0
LINE
8
0
10
-15.5500002
20
44.1779594
11
-15.5500002
21
44.0450287
0
LINE
8
0
10
-15.5500002
20
44.0450287
11
-15.5500002
21
43.8516633
0
LINE
8
0
10
-15.5500002
20
43.8516633
11
-15.5500002
21
43.6931381
0
LINE
8
0
10
-15.5500002
20
43.6931381
11
-15.5500002
21
43.4798136
0
LINE
8
0
10
-15.5500002
20
43.4798136
11
-15.5500002
21
43.3038826
0
LINE
8
0
10
-15.5500002
20
43.3038826
11
-15.5500002
21
43.0824507
0
LINE
8
0
10
-15.5500002
20
43.0824507
11
-15.5500002
21
42.8982468
0
LINE
8
0
10
-15.5500002
20
42.8982468
11
-15.5500002
21
42.6808681
0
LINE
8
0
10
-15.5500002
20
42.6808681
11
-15.5500002
21
42.4980927
0
LINE
8
0
10
-15.5500002
20
42.4980927
11
-15.5500002
21
42.2965097
0
LINE
8
0
10
-15.5500002
20
42.2965097
11
-15.5500002
21
42.125
0
LINE
8
0
10
-15.5500002
20
42.125
11
-15.5500002
21
41.9498715
0
LINE
8
0
10
-15.5500002
20
41.9498715
11
-15.5500002
21
41.7990761
0
LINE
8
0
10
-15.5500002
20
41.7990761
11
-15.5500002
21
41.6594625
0
LINE
8
0
10
-15.5500002
20
41.6594625
11
-15.5500002
21
41.5378952
0
LINE
8
0
10
-15.5500002
20
41.5378952
11
-15.5500002
21
41.0401647
0
LINE
8
0
10
-15.5500002
20
41.0401647
11
-15.5500002
21
40.5499992
0
LINE
8
0
10
-15.5500002
20
40.5499992
11
-17.158893
21
40.5499992
0
LINE
8
0
10
-17.158893
20
40.5499992
11
-18.5499992
21
40.5499992
0
LINE
8
0
10
-18.5499992
20
40.5499992
11
-18.5499992
21
41.1169033
0
LINE
8
0
10
-18.5499992
20
41.1169033
11
-18.5499992
21
41.5378952
0
LINE
8
0
10
-18.5499992
20
41.5378952
11
-18.5499992
21
41.6816218
0
LINE
8
0
10
-18.5499992
20
41.6816218
11
-18.5499992
21
41.7990761
0
LINE
8
0
10
-18.5499992
20
41.7990761
11
-18.5499992
21
41.978321
0
LINE
8
0
10
-18.5499992
20
41.978321
11
-18.5499992
21
42.125
0
LINE
8
0
10
-18.5499992
20
42.125
11
-18.5499992
21
42.3297754
0
LINE
8
0
10
-18.5499992
20
42.3297754
11
-18.5499992
21
42.4980927
0
LINE
8
0
10
-18.5499992
20
42.4980927
11
-18.5499992
21
42.7169912
0
LINE
8
0
10
-18.5499992
20
42.7169912
11
-18.5499992
21
42.8982468
0
LINE
8
0
10
-18.5499992
20
42.8982468
11
-18.5499992
21
43.1191615
0
LINE
8
0
10
-18.5499992
20
43.1191615
11
-18.5499992
21
43.3038826
0
LINE
8
0
10
-18.5499992
20
43.3038826
11
-18.5499992
21
43.5147774
0
LINE
8
0
10
-18.5499992
20
43.5147774
11
-18.5499992
21
43.6931381
0
LINE
8
0
10
-18.5499992
20
43.6931381
11
-18.5499992
21
43.8827388
0
LINE
8
0
10
-18.5499992
20
43.8827388
11
-18.5499992
21
44.0450287
0
LINE
8
0
10
-18.5499992
20
44.0450287
11
-18.5499992
21
44.2034131
0
LINE
8
0
10
-18.5499992
20
44.2034131
11
-18.5499992
21
44.3405762
0
LINE
8
0
10
-18.5499992
20
44.3405762
11
-18.5499992
21
44.4596496
0
LINE
8
0
10
-18.5499992
20
44.4596496
11
-18.5499992
21
44.563858
0
LINE
8
0
10
-18.5499992
20
44.563858
11
-18.5499992
21
44.637667
0
LINE
8
0
10
-18.5499992
20
44.637667
11
-18.5499992
21
44.7028275
0
LINE
8
0
10
-18.5499992
20
44.7028275
11
-18.5499992
21
44.7278044
0
LINE
8
0
10
-18.5499992
20
44.7278044
11
-18.5499992
21
44.75
0
LINE
8
0
10
-18.5499992
20
44.75
11
-18.5499992
21
45.2874147
0
LINE
8
0
10
-18.5499992
20
45.2874147
11
-18.5499992
21
46.5
0
LINE
8
0
10
-18.5499992
20
46.5
11
-16.527068
21
46.5
0
LINE
8
0
10
-16.527068
20
46.5
11
-16.527068
21
46.5
0
LINE
8
0
10
-16.5550323
20
0.29327172
11
-15.5500002
21
0.29327172
0
LINE
8
0
10
-15.5500002
20
0.29327172
11
-15.5500002
21
0.229246009
0
LINE
8
0
10
-15.5500002
20
0.229246009
11
-15.5500002
21
0.140418666
0
LINE
8
0
10
-15.5500002
20
0.140418666
11
-15.5500002
21
-1.10000002
0
LINE
8
0
10
-15.5500002
20
-1.10000002
11
-16.646566
21
-1.10000002
0
LINE
8
0
10
-16.646566
20
-1.10000002
11
-18.5499992
21
-1.10000002
0
LINE
8
0
10
-18.5499992
20
-1.10000002
11
-18.5499992
21
0.244879638
0
LINE
8
0
10
-18.5499992
20
0.244879638
11
-18.5499992
21
0.29327172
0
LINE
8
0
10
-18.5499992
20
0.29327172
11
-16.5550323
21
0.29327172
0
LINE
8
0
10
-16.5550323
20
0.29327172
11
-16.5550323
21
0.29327172
0
ENDSEC
0
EOF
