0
SECTION
2
ENTITIES
0
LINE
8
0
10
-16.5782814
20
-1.10000002
11
-15.5500002
21
-1.10000002
0
LINE
8
0
10
-15.5500002
20
-1.10000002
11
-15.5500002
21
0.227108142
0
LINE
8
0
10
-15.5500002
20
0.227108142
11
-15.5500002
21
0.261772424
0
LINE
8
0
10
-15.5500002
20
0.261772424
11
-16.6927666
21
0.261772424
0
LINE
8
0
10
-16.6927666
20
0.261772424
11
-18.5499992
21
0.261772424
0
LINE
8
0
10
-18.5499992
20
0.261772424
11
-18.5499992
21
0.231542695
0
LINE
8
0
10
-18.5499992
20
0.231542695
11
-18.5499992
21
-1.10000002
0
LINE
8
0
10
-18.5499992
20
-1.10000002
11
-16.5782814
21
-1.10000002
0
LINE
8
0
10
-16.5782814
20
-1.10000002
11
-16.5782814
21
-1.10000002
0
LINE
8
0
10
-16.5953526
20
46.5
11
-15.5500002
21
46.5
0
LINE
8
0
10
-15.5500002
20
46.5
11
-15.5500002
21
45.3718191
0
LINE
8
0
10
-15.5500002
20
45.3718191
11
-15.5500002
21
44.563858
0
LINE
8
0
10
-15.5500002
20
44.563858
11
-15.5500002
21
44.4516619
0
LINE
8
0
10
-15.5500002
20
44.4516619
11
-15.5500002
21
44.3405762
0
LINE
8
0
10
-15.5500002
20
44.3405762
11
-15.5500002
21
44.1925044
0
LINE
8
0
10
-15.5500002
20
44.1925044
11
-15.5500002
21
44.0450287
0
LINE
8
0
10
-15.5500002
20
44.0450287
11
-15.5500002
21
43.8694207
0
LINE
8
0
10
-15.5500002
20
43.8694207
11
-15.5500002
21
43.6931381
0
LINE
8
0
10
-15.5500002
20
43.6931381
11
-15.5500002
21
43.4997929
0
LINE
8
0
10
-15.5500002
20
43.4997929
11
-15.5500002
21
43.3038826
0
LINE
8
0
10
-15.5500002
20
43.3038826
11
-15.5500002
21
43.1034283
0
LINE
8
0
10
-15.5500002
20
43.1034283
11
-15.5500002
21
42.8982468
0
LINE
8
0
10
-15.5500002
20
42.8982468
11
-15.5500002
21
42.7015099
0
LINE
8
0
10
-15.5500002
20
42.7015099
11
-15.5500002
21
42.4980927
0
LINE
8
0
10
-15.5500002
20
42.4980927
11
-15.5500002
21
42.3155187
0
LINE
8
0
10
-15.5500002
20
42.3155187
11
-15.5500002
21
42.125
0
LINE
8
0
10
-15.5500002
20
42.125
11
-15.5500002
21
41.9661284
0
LINE
8
0
10
-15.5500002
20
41.9661284
11
-15.5500002
21
41.7990761
0
LINE
8
0
10
-15.5500002
20
41.7990761
11
-15.5500002
21
41.672125
0
LINE
8
0
10
-15.5500002
20
41.672125
11
-15.5500002
21
41.5378952
0
LINE
8
0
10
-15.5500002
20
41.5378952
11
-15.5500002
21
41.0840153
0
LINE
8
0
10
-15.5500002
20
41.0840153
11
-15.5500002
21
40.5499992
0
LINE
8
0
10
-15.5500002
20
40.5499992
11
-17.0344435
21
40.5499992
0
LINE
8
0
10
-17.0344435
20
40.5499992
11
-18.5499992
21
40.5499992
0
LINE
8
0
10
-18.5499992
20
40.5499992
11
-18.5499992
21
41.0730527
0
LINE
8
0
10
-18.5499992
20
41.0730527
11
-18.5499992
21
41.5378952
0
LINE
8
0
10
-18.5499992
20
41.5378952
11
-18.5499992
21
41.6689593
0
LINE
8
0
10
-18.5499992
20
41.6689593
11
-18.5499992
21
41.7990761
0
LINE
8
0
10
-18.5499992
20
41.7990761
11
-18.5499992
21
41.9620641
0
LINE
8
0
10
-18.5499992
20
41.9620641
11
-18.5499992
21
42.125
0
LINE
8
0
10
-18.5499992
20
42.125
11
-18.5499992
21
42.3107664
0
LINE
8
0
10
-18.5499992
20
42.3107664
11
-18.5499992
21
42.4980927
0
LINE
8
0
10
-18.5499992
20
42.4980927
11
-18.5499992
21
42.6963494
0
LINE
8
0
10
-18.5499992
20
42.6963494
11
-18.5499992
21
42.8982468
0
LINE
8
0
10
-18.5499992
20
42.8982468
11
-18.5499992
21
43.0981839
0
LINE
8
0
10
-18.5499992
20
43.0981839
11
-18.5499992
21
43.3038826
0
LINE
8
0
10
-18.5499992
20
43.3038826
11
-18.5499992
21
43.4947981
0
LINE
8
0
10
-18.5499992
20
43.4947981
11
-18.5499992
21
43.6931381
0
LINE
8
0
10
-18.5499992
20
43.6931381
11
-18.5499992
21
43.8649813
0
LINE
8
0
10
-18.5499992
20
43.8649813
11
-18.5499992
21
44.0450287
0
LINE
8
0
10
-18.5499992
20
44.0450287
11
-18.5499992
21
44.1888681
0
LINE
8
0
10
-18.5499992
20
44.1888681
11
-18.5499992
21
44.3405762
0
LINE
8
0
10
-18.5499992
20
44.3405762
11
-18.5499992
21
44.4489993
0
LINE
8
0
10
-18.5499992
20
44.4489993
11
-18.5499992
21
44.563858
0
LINE
8
0
10
-18.5499992
20
44.563858
11
-18.5499992
21
44.631268
0
LINE
8
0
10
-18.5499992
20
44.631268
11
-18.5499992
21
44.7028275
0
LINE
8
0
10
-18.5499992
20
44.7028275
11
-18.5499992
21
44.7257113
0
LINE
8
0
10
-18.5499992
20
44.7257113
11
-18.5499992
21
44.75
0
LINE
8
0
10
-18.5499992
20
44.75
11
-18.5499992
21
45.2439139
0
LINE
8
0
10
-18.5499992
20
45.2439139
11
-18.5499992
21
46.5
0
LINE
8
0
10
-18.5499992
20
46.5
11
-16.5953526
21
46.5
0
LINE
8
0
10
-16.5953526
20
46.5
11
-16.5953526
21
46.5
0
ENDSEC
0
EOF
