0
SECTION
2
ENTITIES
0
LINE
8
0
10
8.71686053
20
46.5
11
8.70695135
21
42.9632021
0
LINE
8
0
10
8.70695135
20
42.9632021
11
8.71077676
21
41.5
0
LINE
8
0
10
8.71077676
20
41.5
11
-6.27613044
21
41.5
0
LINE
8
0
10
-6.27613044
20
41.5
11
-8.71077676
21
41.5
0
LINE
8
0
10
-8.71077676
20
41.5
11
-8.70695135
21
42.9632021
0
LINE
8
0
10
-8.70695135
20
42.9632021
11
-8.71686053
21
46.5
0
LINE
8
0
10
-8.71686053
20
46.5
11
2.21100992
21
46.5
0
LINE
8
0
10
2.21100992
20
46.5
11
8.71686053
21
46.5
0
LINE
8
0
10
8.71686053
20
46.5
11
8.71686053
21
46.5
0
LINE
8
0
10
8.71686053
20
-1.10000002
11
8.70695135
21
2.50753385
0
LINE
8
0
10
8.70695135
20
2.50753385
11
8.71077676
21
4
0
LINE
8
0
10
8.71077676
20
4
11
-6.27613044
21
4
0
LINE
8
0
10
-6.27613044
20
4
11
-8.71077676
21
4
0
LINE
8
0
10
-8.71077676
20
4
11
-8.70695135
21
2.50753385
0
LINE
8
0
10
-8.70695135
20
2.50753385
11
-8.71686053
21
-1.10000002
0
LINE
8
0
10
-8.71686053
20
-1.10000002
11
2.21100992
21
-1.10000002
0
LINE
8
0
10
2.21100992
20
-1.10000002
11
8.71686053
21
-1.10000002
0
LINE
8
0
10
8.71686053
20
-1.10000002
11
8.71686053
21
-1.10000002
0
LINE
8
0
10
-13.0558445
20
46.5
11
-12.4411237
21
46.5
0
LINE
8
0
10
-12.4411237
20
46.5
11
-11.6271772
21
46.5
0
LINE
8
0
10
-11.6271772
20
46.5
11
-11.2831395
21
46.5
0
LINE
8
0
10
-11.2831395
20
46.5
11
-11.2930487
21
42.9632021
0
LINE
8
0
10
-11.2930487
20
42.9632021
11
-11.2892232
21
41.5
0
LINE
8
0
10
-11.2892232
20
41.5
11
-12.1728291
21
41.5
0
LINE
8
0
10
-12.1728291
20
41.5
11
-18.5499992
21
41.5
0
LINE
8
0
10
-18.5499992
20
41.5
11
-18.5499992
21
41.7328231
0
LINE
8
0
10
-18.5499992
20
41.7328231
11
-18.5499992
21
43.8282314
0
LINE
8
0
10
-18.5499992
20
43.8282314
11
-18.5499992
21
46.0146287
0
LINE
8
0
10
-18.5499992
20
46.0146287
11
-18.5499992
21
46.080779
0
LINE
8
0
10
-18.5499992
20
46.080779
11
-18.5499992
21
46.1322201
0
LINE
8
0
10
-18.5499992
20
46.1322201
11
-18.5499992
21
46.1666908
0
LINE
8
0
10
-18.5499992
20
46.1666908
11
-18.5499992
21
46.1833541
0
LINE
8
0
10
-18.5499992
20
46.1833541
11
-18.5499992
21
46.3640599
0
LINE
8
0
10
-18.5499992
20
46.3640599
11
-18.5499992
21
46.5
0
LINE
8
0
10
-18.5499992
20
46.5
11
-17.8589459
21
46.5
0
LINE
8
0
10
-17.8589459
20
46.5
11
-13.0558445
21
46.5
0
LINE
8
0
10
-13.0558445
20
46.5
11
-13.0558445
21
46.5
0
LINE
8
0
10
-13.0558445
20
-1.10000002
11
-12.4411237
21
-1.10000002
0
LINE
8
0
10
-12.4411237
20
-1.10000002
11
-11.6271772
21
-1.10000002
0
LINE
8
0
10
-11.6271772
20
-1.10000002
11
-11.2831395
21
-1.10000002
0
LINE
8
0
10
-11.2831395
20
-1.10000002
11
-11.2930487
21
2.50753385
0
LINE
8
0
10
-11.2930487
20
2.50753385
11
-11.2892232
21
4
0
LINE
8
0
10
-11.2892232
20
4
11
-12.1728291
21
4
0
LINE
8
0
10
-12.1728291
20
4
11
-18.5499992
21
4
0
LINE
8
0
10
-18.5499992
20
4
11
-18.5499992
21
3.76717686
0
LINE
8
0
10
-18.5499992
20
3.76717686
11
-18.5499992
21
1.62520392
0
LINE
8
0
10
-18.5499992
20
1.62520392
11
-18.5499992
21
-0.531732628
0
LINE
8
0
10
-18.5499992
20
-0.531732628
11
-18.5499992
21
-0.59325314
0
LINE
8
0
10
-18.5499992
20
-0.59325314
11
-18.5499992
21
-0.639022375
0
LINE
8
0
10
-18.5499992
20
-0.639022375
11
-18.5499992
21
-0.667337588
0
LINE
8
0
10
-18.5499992
20
-0.667337588
11
-18.5499992
21
-0.932620806
0
LINE
8
0
10
-18.5499992
20
-0.932620806
11
-18.5499992
21
-0.949228761
0
LINE
8
0
10
-18.5499992
20
-0.949228761
11
-18.5499992
21
-1.10000002
0
LINE
8
0
10
-18.5499992
20
-1.10000002
11
-18.3366099
21
-1.10000002
0
LINE
8
0
10
-18.3366099
20
-1.10000002
11
-17.8589459
21
-1.10000002
0
LINE
8
0
10
-17.8589459
20
-1.10000002
11
-13.0558445
21
-1.10000002
0
LINE
8
0
10
-13.0558445
20
-1.10000002
11
-13.0558445
21
-1.10000002
0
LINE
8
0
10
12.0987415
20
46.5
11
13.75
21
46.5
0
LINE
8
0
10
13.75
20
46.5
11
13.75
21
43.8282314
0
LINE
8
0
10
13.75
20
43.8282314
11
13.75
21
41.5
0
LINE
8
0
10
13.75
20
41.5
11
11.6699845
21
41.5
0
LINE
8
0
10
11.6699845
20
41.5
11
11.2892232
21
41.5
0
LINE
8
0
10
11.2892232
20
41.5
11
11.2930487
21
42.9632021
0
LINE
8
0
10
11.2930487
20
42.9632021
11
11.2831395
21
46.5
0
LINE
8
0
10
11.2831395
20
46.5
11
11.4470384
21
46.5
0
LINE
8
0
10
11.4470384
20
46.5
11
11.7847426
21
46.5
0
LINE
8
0
10
11.7847426
20
46.5
11
11.9949762
21
46.5
0
LINE
8
0
10
11.9949762
20
46.5
11
12.0987415
21
46.5
0
LINE
8
0
10
12.0987415
20
46.5
11
12.0987415
21
46.5
0
LINE
8
0
10
12.0987415
20
-1.10000002
11
13.75
21
-1.10000002
0
LINE
8
0
10
13.75
20
-1.10000002
11
13.75
21
1.62520392
0
LINE
8
0
10
13.75
20
1.62520392
11
13.75
21
4
0
LINE
8
0
10
13.75
20
4
11
11.6699845
21
4
0
LINE
8
0
10
11.6699845
20
4
11
11.2892232
21
4
0
LINE
8
0
10
11.2892232
20
4
11
11.2930487
21
2.50753385
0
LINE
8
0
10
11.2930487
20
2.50753385
11
11.2831395
21
-1.10000002
0
LINE
8
0
10
11.2831395
20
-1.10000002
11
11.4470384
21
-1.10000002
0
LINE
8
0
10
11.4470384
20
-1.10000002
11
11.7847426
21
-1.10000002
0
LINE
8
0
10
11.7847426
20
-1.10000002
11
11.9949762
21
-1.10000002
0
LINE
8
0
10
11.9949762
20
-1.10000002
11
12.0987415
21
-1.10000002
0
LINE
8
0
10
12.0987415
20
-1.10000002
11
12.0987415
21
-1.10000002
0
ENDSEC
0
EOF
