0
SECTION
2
ENTITIES
0
LINE
8
0
10
-16.4246411
20
-1.10000002
11
-15.5500002
21
-1.10000002
0
LINE
8
0
10
-15.5500002
20
-1.10000002
11
-15.5500002
21
0.0898999439
0
LINE
8
0
10
-15.5500002
20
0.0898999439
11
-15.5500002
21
0.269714474
0
LINE
8
0
10
-15.5500002
20
0.269714474
11
-15.5500002
21
0.501925909
0
LINE
8
0
10
-15.5500002
20
0.501925909
11
-16.2085206
21
0.501925909
0
LINE
8
0
10
-16.2085206
20
0.501925909
11
-18.5499992
21
0.501925909
0
LINE
8
0
10
-18.5499992
20
0.501925909
11
-18.5499992
21
0.431010601
0
LINE
8
0
10
-18.5499992
20
0.431010601
11
-18.5499992
21
0.42785955
0
LINE
8
0
10
-18.5499992
20
0.42785955
11
-18.5499992
21
0.312680575
0
LINE
8
0
10
-18.5499992
20
0.312680575
11
-18.5499992
21
0.172509432
0
LINE
8
0
10
-18.5499992
20
0.172509432
11
-18.5499992
21
0.126879948
0
LINE
8
0
10
-18.5499992
20
0.126879948
11
-18.5499992
21
-1.10000002
0
LINE
8
0
10
-18.5499992
20
-1.10000002
11
-16.4246411
21
-1.10000002
0
LINE
8
0
10
-16.4246411
20
-1.10000002
11
-16.4246411
21
-1.10000002
0
LINE
8
0
10
-16.7544323
20
40.5499992
11
-15.5500002
21
40.5499992
0
LINE
8
0
10
-15.5500002
20
40.5499992
11
-15.5500002
21
41.1826791
0
LINE
8
0
10
-15.5500002
20
41.1826791
11
-15.5500002
21
41.5378952
0
LINE
8
0
10
-15.5500002
20
41.5378952
11
-15.5500002
21
41.7006155
0
LINE
8
0
10
-15.5500002
20
41.7006155
11
-15.5500002
21
41.7990761
0
LINE
8
0
10
-15.5500002
20
41.7990761
11
-15.5500002
21
42.0027064
0
LINE
8
0
10
-15.5500002
20
42.0027064
11
-15.5500002
21
42.125
0
LINE
8
0
10
-15.5500002
20
42.125
11
-15.5500002
21
42.3582889
0
LINE
8
0
10
-15.5500002
20
42.3582889
11
-15.5500002
21
42.4980927
0
LINE
8
0
10
-15.5500002
20
42.4980927
11
-15.5500002
21
42.7479539
0
LINE
8
0
10
-15.5500002
20
42.7479539
11
-15.5500002
21
42.8982468
0
LINE
8
0
10
-15.5500002
20
42.8982468
11
-15.5500002
21
43.1506278
0
LINE
8
0
10
-15.5500002
20
43.1506278
11
-15.5500002
21
43.3038826
0
LINE
8
0
10
-15.5500002
20
43.3038826
11
-15.5500002
21
43.5447464
0
LINE
8
0
10
-15.5500002
20
43.5447464
11
-15.5500002
21
43.6931381
0
LINE
8
0
10
-15.5500002
20
43.6931381
11
-15.5500002
21
43.9093749
0
LINE
8
0
10
-15.5500002
20
43.9093749
11
-15.5500002
21
44.0450287
0
LINE
8
0
10
-15.5500002
20
44.0450287
11
-15.5500002
21
44.2252306
0
LINE
8
0
10
-15.5500002
20
44.2252306
11
-15.5500002
21
44.3405762
0
LINE
8
0
10
-15.5500002
20
44.3405762
11
-15.5500002
21
44.4756251
0
LINE
8
0
10
-15.5500002
20
44.4756251
11
-15.5500002
21
44.563858
0
LINE
8
0
10
-15.5500002
20
44.563858
11
-15.5500002
21
45.540386
0
LINE
8
0
10
-15.5500002
20
45.540386
11
-15.5500002
21
46.5
0
LINE
8
0
10
-15.5500002
20
46.5
11
-16.7489929
21
46.5
0
LINE
8
0
10
-16.7489929
20
46.5
11
-18.5499992
21
46.5
0
LINE
8
0
10
-18.5499992
20
46.5
11
-18.5499992
21
45.1460371
0
LINE
8
0
10
-18.5499992
20
45.1460371
11
-18.5499992
21
44.75
0
LINE
8
0
10
-18.5499992
20
44.75
11
-18.5499992
21
44.7210018
0
LINE
8
0
10
-18.5499992
20
44.7210018
11
-18.5499992
21
44.7028275
0
LINE
8
0
10
-18.5499992
20
44.7028275
11
-18.5499992
21
44.6168704
0
LINE
8
0
10
-18.5499992
20
44.6168704
11
-18.5499992
21
44.563858
0
LINE
8
0
10
-18.5499992
20
44.563858
11
-18.5499992
21
44.425036
0
LINE
8
0
10
-18.5499992
20
44.425036
11
-18.5499992
21
44.3405762
0
LINE
8
0
10
-18.5499992
20
44.3405762
11
-18.5499992
21
44.1561419
0
LINE
8
0
10
-18.5499992
20
44.1561419
11
-18.5499992
21
44.0450287
0
LINE
8
0
10
-18.5499992
20
44.0450287
11
-18.5499992
21
43.8250271
0
LINE
8
0
10
-18.5499992
20
43.8250271
11
-18.5499992
21
43.6931381
0
LINE
8
0
10
-18.5499992
20
43.6931381
11
-18.5499992
21
43.4498446
0
LINE
8
0
10
-18.5499992
20
43.4498446
11
-18.5499992
21
43.3038826
0
LINE
8
0
10
-18.5499992
20
43.3038826
11
-18.5499992
21
43.0509844
0
LINE
8
0
10
-18.5499992
20
43.0509844
11
-18.5499992
21
42.8982468
0
LINE
8
0
10
-18.5499992
20
42.8982468
11
-18.5499992
21
42.6499054
0
LINE
8
0
10
-18.5499992
20
42.6499054
11
-18.5499992
21
42.4980927
0
LINE
8
0
10
-18.5499992
20
42.4980927
11
-18.5499992
21
42.2679963
0
LINE
8
0
10
-18.5499992
20
42.2679963
11
-18.5499992
21
42.125
0
LINE
8
0
10
-18.5499992
20
42.125
11
-18.5499992
21
41.9254861
0
LINE
8
0
10
-18.5499992
20
41.9254861
11
-18.5499992
21
41.7990761
0
LINE
8
0
10
-18.5499992
20
41.7990761
11
-18.5499992
21
41.6404688
0
LINE
8
0
10
-18.5499992
20
41.6404688
11
-18.5499992
21
41.5378952
0
LINE
8
0
10
-18.5499992
20
41.5378952
11
-18.5499992
21
40.9743889
0
LINE
8
0
10
-18.5499992
20
40.9743889
11
-18.5499992
21
40.5499992
0
LINE
8
0
10
-18.5499992
20
40.5499992
11
-16.7544323
21
40.5499992
0
LINE
8
0
10
-16.7544323
20
40.5499992
11
-16.7544323
21
40.5499992
0
ENDSEC
0
EOF
