0
SECTION
2
ENTITIES
0
LINE
8
0
10
-16.3734276
20
-1.10000002
11
-15.5500002
21
-1.10000002
0
LINE
8
0
10
-15.5500002
20
-1.10000002
11
-15.5500002
21
0.0202269111
0
LINE
8
0
10
-15.5500002
20
0.0202269111
11
-15.5500002
21
0.189512637
0
LINE
8
0
10
-15.5500002
20
0.189512637
11
-15.5500002
21
0.474650556
0
LINE
8
0
10
-15.5500002
20
0.474650556
11
-15.5500002
21
0.687750928
0
LINE
8
0
10
-15.5500002
20
0.687750928
11
-16.992607
21
0.687750928
0
LINE
8
0
10
-16.992607
20
0.687750928
11
-18.5499992
21
0.687750928
0
LINE
8
0
10
-18.5499992
20
0.687750928
11
-18.5499992
21
0.586455446
0
LINE
8
0
10
-18.5499992
20
0.586455446
11
-18.5499992
21
0.501085772
0
LINE
8
0
10
-18.5499992
20
0.501085772
11
-18.5499992
21
0.494998937
0
LINE
8
0
10
-18.5499992
20
0.494998937
11
-18.5499992
21
0.272509562
0
LINE
8
0
10
-18.5499992
20
0.272509562
11
-18.5499992
21
0.136324329
0
LINE
8
0
10
-18.5499992
20
0.136324329
11
-18.5499992
21
0.0919923662
0
LINE
8
0
10
-18.5499992
20
0.0919923662
11
-18.5499992
21
-1.10000002
0
LINE
8
0
10
-18.5499992
20
-1.10000002
11
-16.3734276
21
-1.10000002
0
LINE
8
0
10
-16.3734276
20
-1.10000002
11
-16.3734276
21
-1.10000002
0
LINE
8
0
10
-16.8002064
20
46.5
11
-15.5500002
21
46.5
0
LINE
8
0
10
-15.5500002
20
46.5
11
-15.5500002
21
45.5965749
0
LINE
8
0
10
-15.5500002
20
45.5965749
11
-15.5500002
21
44.563858
0
LINE
8
0
10
-15.5500002
20
44.563858
11
-15.5500002
21
44.4836129
0
LINE
8
0
10
-15.5500002
20
44.4836129
11
-15.5500002
21
44.3405762
0
LINE
8
0
10
-15.5500002
20
44.3405762
11
-15.5500002
21
44.2361394
0
LINE
8
0
10
-15.5500002
20
44.2361394
11
-15.5500002
21
44.0450287
0
LINE
8
0
10
-15.5500002
20
44.0450287
11
-15.5500002
21
43.922693
0
LINE
8
0
10
-15.5500002
20
43.922693
11
-15.5500002
21
43.6931381
0
LINE
8
0
10
-15.5500002
20
43.6931381
11
-15.5500002
21
43.5597309
0
LINE
8
0
10
-15.5500002
20
43.5597309
11
-15.5500002
21
43.3038826
0
LINE
8
0
10
-15.5500002
20
43.3038826
11
-15.5500002
21
43.166361
0
LINE
8
0
10
-15.5500002
20
43.166361
11
-15.5500002
21
42.8982468
0
LINE
8
0
10
-15.5500002
20
42.8982468
11
-15.5500002
21
42.7634353
0
LINE
8
0
10
-15.5500002
20
42.7634353
11
-15.5500002
21
42.4980927
0
LINE
8
0
10
-15.5500002
20
42.4980927
11
-15.5500002
21
42.3725456
0
LINE
8
0
10
-15.5500002
20
42.3725456
11
-15.5500002
21
42.125
0
LINE
8
0
10
-15.5500002
20
42.125
11
-15.5500002
21
42.014899
0
LINE
8
0
10
-15.5500002
20
42.014899
11
-15.5500002
21
41.7990761
0
LINE
8
0
10
-15.5500002
20
41.7990761
11
-15.5500002
21
41.7101124
0
LINE
8
0
10
-15.5500002
20
41.7101124
11
-15.5500002
21
41.5378952
0
LINE
8
0
10
-15.5500002
20
41.5378952
11
-15.5500002
21
41.215567
0
LINE
8
0
10
-15.5500002
20
41.215567
11
-15.5500002
21
40.5499992
0
LINE
8
0
10
-15.5500002
20
40.5499992
11
-16.6610953
21
40.5499992
0
LINE
8
0
10
-16.6610953
20
40.5499992
11
-18.5499992
21
40.5499992
0
LINE
8
0
10
-18.5499992
20
40.5499992
11
-18.5499992
21
40.9415009
0
LINE
8
0
10
-18.5499992
20
40.9415009
11
-18.5499992
21
41.5378952
0
LINE
8
0
10
-18.5499992
20
41.5378952
11
-18.5499992
21
41.630972
0
LINE
8
0
10
-18.5499992
20
41.630972
11
-18.5499992
21
41.7990761
0
LINE
8
0
10
-18.5499992
20
41.7990761
11
-18.5499992
21
41.9132935
0
LINE
8
0
10
-18.5499992
20
41.9132935
11
-18.5499992
21
42.125
0
LINE
8
0
10
-18.5499992
20
42.125
11
-18.5499992
21
42.2537396
0
LINE
8
0
10
-18.5499992
20
42.2537396
11
-18.5499992
21
42.4980927
0
LINE
8
0
10
-18.5499992
20
42.4980927
11
-18.5499992
21
42.634424
0
LINE
8
0
10
-18.5499992
20
42.634424
11
-18.5499992
21
42.8982468
0
LINE
8
0
10
-18.5499992
20
42.8982468
11
-18.5499992
21
43.0352512
0
LINE
8
0
10
-18.5499992
20
43.0352512
11
-18.5499992
21
43.3038826
0
LINE
8
0
10
-18.5499992
20
43.3038826
11
-18.5499992
21
43.4348601
0
LINE
8
0
10
-18.5499992
20
43.4348601
11
-18.5499992
21
43.6931381
0
LINE
8
0
10
-18.5499992
20
43.6931381
11
-18.5499992
21
43.8117091
0
LINE
8
0
10
-18.5499992
20
43.8117091
11
-18.5499992
21
44.0450287
0
LINE
8
0
10
-18.5499992
20
44.0450287
11
-18.5499992
21
44.1452331
0
LINE
8
0
10
-18.5499992
20
44.1452331
11
-18.5499992
21
44.3405762
0
LINE
8
0
10
-18.5499992
20
44.3405762
11
-18.5499992
21
44.4170483
0
LINE
8
0
10
-18.5499992
20
44.4170483
11
-18.5499992
21
44.563858
0
LINE
8
0
10
-18.5499992
20
44.563858
11
-18.5499992
21
44.6120711
0
LINE
8
0
10
-18.5499992
20
44.6120711
11
-18.5499992
21
44.7028275
0
LINE
8
0
10
-18.5499992
20
44.7028275
11
-18.5499992
21
44.719432
0
LINE
8
0
10
-18.5499992
20
44.719432
11
-18.5499992
21
44.75
0
LINE
8
0
10
-18.5499992
20
44.75
11
-18.5499992
21
45.1134114
0
LINE
8
0
10
-18.5499992
20
45.1134114
11
-18.5499992
21
46.5
0
LINE
8
0
10
-18.5499992
20
46.5
11
-16.8002064
21
46.5
0
LINE
8
0
10
-16.8002064
20
46.5
11
-16.8002064
21
46.5
0
ENDSEC
0
EOF
