0
SECTION
2
ENTITIES
0
LINE
8
0
10
11.627522
20
46.5
11
11.3971408
21
46.5
0
LINE
8
0
10
11.3971408
20
46.5
11
11.4058608
21
42.9943082
0
LINE
8
0
10
11.4058608
20
42.9943082
11
11.401954
21
41.5
0
LINE
8
0
10
11.401954
20
41.5
11
11.4702305
21
41.5
0
LINE
8
0
10
11.4702305
20
41.5
11
13.75
21
41.5
0
LINE
8
0
10
13.75
20
41.5
11
13.75
21
43.61449
0
LINE
8
0
10
13.75
20
43.61449
11
13.75
21
46.5
0
LINE
8
0
10
13.75
20
46.5
11
11.9666409
21
46.5
0
LINE
8
0
10
11.9666409
20
46.5
11
11.8545743
21
46.5
0
LINE
8
0
10
11.8545743
20
46.5
11
11.627522
21
46.5
0
LINE
8
0
10
11.627522
20
46.5
11
11.627522
21
46.5
0
LINE
8
0
10
11.627522
20
-1.10000002
11
11.3971408
21
-1.10000002
0
LINE
8
0
10
11.3971408
20
-1.10000002
11
11.4058608
21
2.47580559
0
LINE
8
0
10
11.4058608
20
2.47580559
11
11.401954
21
4
0
LINE
8
0
10
11.401954
20
4
11
11.4702305
21
4
0
LINE
8
0
10
11.4702305
20
4
11
13.75
21
4
0
LINE
8
0
10
13.75
20
4
11
13.75
21
1.84322024
0
LINE
8
0
10
13.75
20
1.84322024
11
13.75
21
-1.10000002
0
LINE
8
0
10
13.75
20
-1.10000002
11
11.9666409
21
-1.10000002
0
LINE
8
0
10
11.9666409
20
-1.10000002
11
11.8545743
21
-1.10000002
0
LINE
8
0
10
11.8545743
20
-1.10000002
11
11.627522
21
-1.10000002
0
LINE
8
0
10
11.627522
20
-1.10000002
11
11.627522
21
-1.10000002
0
LINE
8
0
10
-2.74674547
20
46.5
11
8.60285924
21
46.5
0
LINE
8
0
10
8.60285924
20
46.5
11
8.59413922
21
42.9943082
0
LINE
8
0
10
8.59413922
20
42.9943082
11
8.59804596
21
41.5
0
LINE
8
0
10
8.59804596
20
41.5
11
5.91065824
21
41.5
0
LINE
8
0
10
5.91065824
20
41.5
11
-8.59804596
21
41.5
0
LINE
8
0
10
-8.59804596
20
41.5
11
-8.59413922
21
42.9943082
0
LINE
8
0
10
-8.59413922
20
42.9943082
11
-8.60285924
21
46.5
0
LINE
8
0
10
-8.60285924
20
46.5
11
-2.74674547
21
46.5
0
LINE
8
0
10
-2.74674547
20
46.5
11
-2.74674547
21
46.5
0
LINE
8
0
10
-2.74674547
20
-1.10000002
11
8.60285924
21
-1.10000002
0
LINE
8
0
10
8.60285924
20
-1.10000002
11
8.59413922
21
2.47580559
0
LINE
8
0
10
8.59413922
20
2.47580559
11
8.59804596
21
4
0
LINE
8
0
10
8.59804596
20
4
11
5.91065824
21
4
0
LINE
8
0
10
5.91065824
20
4
11
-8.59804596
21
4
0
LINE
8
0
10
-8.59804596
20
4
11
-8.59413922
21
2.47580559
0
LINE
8
0
10
-8.59413922
20
2.47580559
11
-8.60285924
21
-1.10000002
0
LINE
8
0
10
-8.60285924
20
-1.10000002
11
-2.74674547
21
-1.10000002
0
LINE
8
0
10
-2.74674547
20
-1.10000002
11
-2.74674547
21
-1.10000002
0
LINE
8
0
10
-11.9524137
20
46.5
11
-12.6163122
21
46.5
0
LINE
8
0
10
-12.6163122
20
46.5
11
-17.8036616
21
46.5
0
LINE
8
0
10
-17.8036616
20
46.5
11
-18.5499992
21
46.5
0
LINE
8
0
10
-18.5499992
20
46.5
11
-18.5499992
21
46.3531847
0
LINE
8
0
10
-18.5499992
20
46.3531847
11
-18.5499992
21
46.1580225
0
LINE
8
0
10
-18.5499992
20
46.1580225
11
-18.5499992
21
46.1400261
0
LINE
8
0
10
-18.5499992
20
46.1400261
11
-18.5499992
21
46.1027977
0
LINE
8
0
10
-18.5499992
20
46.1027977
11
-18.5499992
21
46.0472413
0
LINE
8
0
10
-18.5499992
20
46.0472413
11
-18.5499992
21
45.975799
0
LINE
8
0
10
-18.5499992
20
45.975799
11
-18.5499992
21
43.61449
0
LINE
8
0
10
-18.5499992
20
43.61449
11
-18.5499992
21
41.711449
0
LINE
8
0
10
-18.5499992
20
41.711449
11
-18.5499992
21
41.5
0
LINE
8
0
10
-18.5499992
20
41.5
11
-11.5603984
21
41.5
0
LINE
8
0
10
-11.5603984
20
41.5
11
-11.401954
21
41.5
0
LINE
8
0
10
-11.401954
20
41.5
11
-11.4058608
21
42.9943082
0
LINE
8
0
10
-11.4058608
20
42.9943082
11
-11.3971408
21
46.5
0
LINE
8
0
10
-11.3971408
20
46.5
11
-11.9524137
21
46.5
0
LINE
8
0
10
-11.9524137
20
46.5
11
-11.9524137
21
46.5
0
LINE
8
0
10
-11.9524137
20
-1.10000002
11
-12.6163122
21
-1.10000002
0
LINE
8
0
10
-12.6163122
20
-1.10000002
11
-17.8036616
21
-1.10000002
0
LINE
8
0
10
-17.8036616
20
-1.10000002
11
-18.3195387
21
-1.10000002
0
LINE
8
0
10
-18.3195387
20
-1.10000002
11
-18.5499992
21
-1.10000002
0
LINE
8
0
10
-18.5499992
20
-1.10000002
11
-18.5499992
21
-0.93716706
0
LINE
8
0
10
-18.5499992
20
-0.93716706
11
-18.5499992
21
-0.919230469
0
LINE
8
0
10
-18.5499992
20
-0.919230469
11
-18.5499992
21
-0.632724594
0
LINE
8
0
10
-18.5499992
20
-0.632724594
11
-18.5499992
21
-0.602144163
0
LINE
8
0
10
-18.5499992
20
-0.602144163
11
-18.5499992
21
-0.552713389
0
LINE
8
0
10
-18.5499992
20
-0.552713389
11
-18.5499992
21
-0.486271237
0
LINE
8
0
10
-18.5499992
20
-0.486271237
11
-18.5499992
21
1.84322024
0
LINE
8
0
10
-18.5499992
20
1.84322024
11
-18.5499992
21
3.788551
0
LINE
8
0
10
-18.5499992
20
3.788551
11
-18.5499992
21
4
0
LINE
8
0
10
-18.5499992
20
4
11
-11.5603984
21
4
0
LINE
8
0
10
-11.5603984
20
4
11
-11.401954
21
4
0
LINE
8
0
10
-11.401954
20
4
11
-11.4058608
21
2.47580559
0
LINE
8
0
10
-11.4058608
20
2.47580559
11
-11.3971408
21
-1.10000002
0
LINE
8
0
10
-11.3971408
20
-1.10000002
11
-11.9524137
21
-1.10000002
0
LINE
8
0
10
-11.9524137
20
-1.10000002
11
-11.9524137
21
-1.10000002
0
ENDSEC
0
EOF
