0
SECTION
2
ENTITIES
0
LINE
8
0
10
-17.6277985
20
1.32922173
11
-15.5500002
21
1.32922173
0
LINE
8
0
10
-15.5500002
20
1.32922173
11
-15.5500002
21
1.19733986
0
LINE
8
0
10
-15.5500002
20
1.19733986
11
-15.5500002
21
1.19282956
0
LINE
8
0
10
-15.5500002
20
1.19282956
11
-15.5500002
21
0.894505078
0
LINE
8
0
10
-15.5500002
20
0.894505078
11
-15.5500002
21
0.611761125
0
LINE
8
0
10
-15.5500002
20
0.611761125
11
-15.5500002
21
0.246132939
0
LINE
8
0
10
-15.5500002
20
0.246132939
11
-15.5500002
21
0.00237501808
0
LINE
8
0
10
-15.5500002
20
0.00237501808
11
-15.5500002
21
-0.142343499
0
LINE
8
0
10
-15.5500002
20
-0.142343499
11
-15.5500002
21
-1.10000002
0
LINE
8
0
10
-15.5500002
20
-1.10000002
11
-16.2539296
21
-1.10000002
0
LINE
8
0
10
-16.2539296
20
-1.10000002
11
-18.5499992
21
-1.10000002
0
LINE
8
0
10
-18.5499992
20
-1.10000002
11
-18.5499992
21
0.0105880079
0
LINE
8
0
10
-18.5499992
20
0.0105880079
11
-18.5499992
21
0.0518924216
0
LINE
8
0
10
-18.5499992
20
0.0518924216
11
-18.5499992
21
0.1787772
0
LINE
8
0
10
-18.5499992
20
0.1787772
11
-18.5499992
21
0.651657506
0
LINE
8
0
10
-18.5499992
20
0.651657506
11
-18.5499992
21
0.664594504
0
LINE
8
0
10
-18.5499992
20
0.664594504
11
-18.5499992
21
0.731615521
0
LINE
8
0
10
-18.5499992
20
0.731615521
11
-18.5499992
21
0.894505078
0
LINE
8
0
10
-18.5499992
20
0.894505078
11
-18.5499992
21
0.915007332
0
LINE
8
0
10
-18.5499992
20
0.915007332
11
-18.5499992
21
1.19733986
0
LINE
8
0
10
-18.5499992
20
1.19733986
11
-18.5499992
21
1.20674848
0
LINE
8
0
10
-18.5499992
20
1.20674848
11
-18.5499992
21
1.32922173
0
LINE
8
0
10
-18.5499992
20
1.32922173
11
-17.6277985
21
1.32922173
0
LINE
8
0
10
-17.6277985
20
1.32922173
11
-17.6277985
21
1.32922173
0
LINE
8
0
10
-16.9197044
20
46.5
11
-15.5500002
21
46.5
0
LINE
8
0
10
-15.5500002
20
46.5
11
-15.5500002
21
45.7276824
0
LINE
8
0
10
-15.5500002
20
45.7276824
11
-15.5500002
21
44.563858
0
LINE
8
0
10
-15.5500002
20
44.563858
11
-15.5500002
21
44.502251
0
LINE
8
0
10
-15.5500002
20
44.502251
11
-15.5500002
21
44.3405762
0
LINE
8
0
10
-15.5500002
20
44.3405762
11
-15.5500002
21
44.2615931
0
LINE
8
0
10
-15.5500002
20
44.2615931
11
-15.5500002
21
44.0450287
0
LINE
8
0
10
-15.5500002
20
44.0450287
11
-15.5500002
21
43.9537685
0
LINE
8
0
10
-15.5500002
20
43.9537685
11
-15.5500002
21
43.6931381
0
LINE
8
0
10
-15.5500002
20
43.6931381
11
-15.5500002
21
43.5946948
0
LINE
8
0
10
-15.5500002
20
43.5946948
11
-15.5500002
21
43.3038826
0
LINE
8
0
10
-15.5500002
20
43.3038826
11
-15.5500002
21
43.2030718
0
LINE
8
0
10
-15.5500002
20
43.2030718
11
-15.5500002
21
42.8982468
0
LINE
8
0
10
-15.5500002
20
42.8982468
11
-15.5500002
21
42.7995584
0
LINE
8
0
10
-15.5500002
20
42.7995584
11
-15.5500002
21
42.4980927
0
LINE
8
0
10
-15.5500002
20
42.4980927
11
-15.5500002
21
42.4058113
0
LINE
8
0
10
-15.5500002
20
42.4058113
11
-15.5500002
21
42.125
0
LINE
8
0
10
-15.5500002
20
42.125
11
-15.5500002
21
42.0433486
0
LINE
8
0
10
-15.5500002
20
42.0433486
11
-15.5500002
21
41.7990761
0
LINE
8
0
10
-15.5500002
20
41.7990761
11
-15.5500002
21
41.7322717
0
LINE
8
0
10
-15.5500002
20
41.7322717
11
-15.5500002
21
41.5378952
0
LINE
8
0
10
-15.5500002
20
41.5378952
11
-15.5500002
21
41.2923056
0
LINE
8
0
10
-15.5500002
20
41.2923056
11
-15.5500002
21
40.5499992
0
LINE
8
0
10
-15.5500002
20
40.5499992
11
-16.4433088
21
40.5499992
0
LINE
8
0
10
-16.4433088
20
40.5499992
11
-18.5499992
21
40.5499992
0
LINE
8
0
10
-18.5499992
20
40.5499992
11
-18.5499992
21
40.8647624
0
LINE
8
0
10
-18.5499992
20
40.8647624
11
-18.5499992
21
41.5378952
0
LINE
8
0
10
-18.5499992
20
41.5378952
11
-18.5499992
21
41.6088126
0
LINE
8
0
10
-18.5499992
20
41.6088126
11
-18.5499992
21
41.7990761
0
LINE
8
0
10
-18.5499992
20
41.7990761
11
-18.5499992
21
41.8848439
0
LINE
8
0
10
-18.5499992
20
41.8848439
11
-18.5499992
21
42.125
0
LINE
8
0
10
-18.5499992
20
42.125
11
-18.5499992
21
42.2204739
0
LINE
8
0
10
-18.5499992
20
42.2204739
11
-18.5499992
21
42.4980927
0
LINE
8
0
10
-18.5499992
20
42.4980927
11
-18.5499992
21
42.5983009
0
LINE
8
0
10
-18.5499992
20
42.5983009
11
-18.5499992
21
42.8982468
0
LINE
8
0
10
-18.5499992
20
42.8982468
11
-18.5499992
21
42.9985404
0
LINE
8
0
10
-18.5499992
20
42.9985404
11
-18.5499992
21
43.3038826
0
LINE
8
0
10
-18.5499992
20
43.3038826
11
-18.5499992
21
43.3998963
0
LINE
8
0
10
-18.5499992
20
43.3998963
11
-18.5499992
21
43.6931381
0
LINE
8
0
10
-18.5499992
20
43.6931381
11
-18.5499992
21
43.7806336
0
LINE
8
0
10
-18.5499992
20
43.7806336
11
-18.5499992
21
44.0450287
0
LINE
8
0
10
-18.5499992
20
44.0450287
11
-18.5499992
21
44.1197794
0
LINE
8
0
10
-18.5499992
20
44.1197794
11
-18.5499992
21
44.3405762
0
LINE
8
0
10
-18.5499992
20
44.3405762
11
-18.5499992
21
44.3984102
0
LINE
8
0
10
-18.5499992
20
44.3984102
11
-18.5499992
21
44.563858
0
LINE
8
0
10
-18.5499992
20
44.563858
11
-18.5499992
21
44.600873
0
LINE
8
0
10
-18.5499992
20
44.600873
11
-18.5499992
21
44.7028275
0
LINE
8
0
10
-18.5499992
20
44.7028275
11
-18.5499992
21
44.7157691
0
LINE
8
0
10
-18.5499992
20
44.7157691
11
-18.5499992
21
44.75
0
LINE
8
0
10
-18.5499992
20
44.75
11
-18.5499992
21
45.037285
0
LINE
8
0
10
-18.5499992
20
45.037285
11
-18.5499992
21
46.5
0
LINE
8
0
10
-18.5499992
20
46.5
11
-16.9197044
21
46.5
0
LINE
8
0
10
-16.9197044
20
46.5
11
-16.9197044
21
46.5
0
ENDSEC
0
EOF
