0
SECTION
2
ENTITIES
0
LINE
8
0
10
-17.3643299
20
1.85526436
11
-15.5500002
21
1.85526436
0
LINE
8
0
10
-15.5500002
20
1.85526436
11
-15.5500002
21
1.6553343
0
LINE
8
0
10
-15.5500002
20
1.6553343
11
-15.5500002
21
1.63603873
0
LINE
8
0
10
-15.5500002
20
1.63603873
11
-15.5500002
21
1.62455877
0
LINE
8
0
10
-15.5500002
20
1.62455877
11
-15.5500002
21
1.22379649
0
LINE
8
0
10
-15.5500002
20
1.22379649
11
-15.5500002
21
1.20362462
0
LINE
8
0
10
-15.5500002
20
1.20362462
11
-15.5500002
21
0.951970814
0
LINE
8
0
10
-15.5500002
20
0.951970814
11
-15.5500002
21
0.445711903
0
LINE
8
0
10
-15.5500002
20
0.445711903
11
-15.5500002
21
0.115551443
0
LINE
8
0
10
-15.5500002
20
0.115551443
11
-15.5500002
21
-0.104560764
0
LINE
8
0
10
-15.5500002
20
-0.104560764
11
-15.5500002
21
-0.235240876
0
LINE
8
0
10
-15.5500002
20
-0.235240876
11
-15.5500002
21
-1.10000002
0
LINE
8
0
10
-15.5500002
20
-1.10000002
11
-16.185645
21
-1.10000002
0
LINE
8
0
10
-16.185645
20
-1.10000002
11
-18.5499992
21
-1.10000002
0
LINE
8
0
10
-18.5499992
20
-1.10000002
11
-18.5499992
21
-0.0359287683
0
LINE
8
0
10
-18.5499992
20
-0.0359287683
11
-18.5499992
21
0.00364561758
0
LINE
8
0
10
-18.5499992
20
0.00364561758
11
-18.5499992
21
0.125215851
0
LINE
8
0
10
-18.5499992
20
0.125215851
11
-18.5499992
21
0.741176688
0
LINE
8
0
10
-18.5499992
20
0.741176688
11
-18.5499992
21
0.758028065
0
LINE
8
0
10
-18.5499992
20
0.758028065
11
-18.5499992
21
0.814564135
0
LINE
8
0
10
-18.5499992
20
0.814564135
11
-18.5499992
21
0.951970814
0
LINE
8
0
10
-18.5499992
20
0.951970814
11
-18.5499992
21
0.988680525
0
LINE
8
0
10
-18.5499992
20
0.988680525
11
-18.5499992
21
1.22379649
0
LINE
8
0
10
-18.5499992
20
1.22379649
11
-18.5499992
21
1.26587566
0
LINE
8
0
10
-18.5499992
20
1.26587566
11
-18.5499992
21
1.63603873
0
LINE
8
0
10
-18.5499992
20
1.63603873
11
-18.5499992
21
1.6553343
0
LINE
8
0
10
-18.5499992
20
1.6553343
11
-18.5499992
21
1.85526436
0
LINE
8
0
10
-18.5499992
20
1.85526436
11
-17.3643299
21
1.85526436
0
LINE
8
0
10
-17.3643299
20
1.85526436
11
-17.3643299
21
1.85526436
0
LINE
8
0
10
-16.987989
20
46.5
11
-15.5500002
21
46.5
0
LINE
8
0
10
-15.5500002
20
46.5
11
-15.5500002
21
45.802601
0
LINE
8
0
10
-15.5500002
20
45.802601
11
-15.5500002
21
44.563858
0
LINE
8
0
10
-15.5500002
20
44.563858
11
-15.5500002
21
44.5129013
0
LINE
8
0
10
-15.5500002
20
44.5129013
11
-15.5500002
21
44.3405762
0
LINE
8
0
10
-15.5500002
20
44.3405762
11
-15.5500002
21
44.2761381
0
LINE
8
0
10
-15.5500002
20
44.2761381
11
-15.5500002
21
44.0450287
0
LINE
8
0
10
-15.5500002
20
44.0450287
11
-15.5500002
21
43.9715259
0
LINE
8
0
10
-15.5500002
20
43.9715259
11
-15.5500002
21
43.6931381
0
LINE
8
0
10
-15.5500002
20
43.6931381
11
-15.5500002
21
43.6146741
0
LINE
8
0
10
-15.5500002
20
43.6146741
11
-15.5500002
21
43.3038826
0
LINE
8
0
10
-15.5500002
20
43.3038826
11
-15.5500002
21
43.2240493
0
LINE
8
0
10
-15.5500002
20
43.2240493
11
-15.5500002
21
42.8982468
0
LINE
8
0
10
-15.5500002
20
42.8982468
11
-15.5500002
21
42.8202002
0
LINE
8
0
10
-15.5500002
20
42.8202002
11
-15.5500002
21
42.4980927
0
LINE
8
0
10
-15.5500002
20
42.4980927
11
-15.5500002
21
42.4248202
0
LINE
8
0
10
-15.5500002
20
42.4248202
11
-15.5500002
21
42.125
0
LINE
8
0
10
-15.5500002
20
42.125
11
-15.5500002
21
42.0596055
0
LINE
8
0
10
-15.5500002
20
42.0596055
11
-15.5500002
21
41.7990761
0
LINE
8
0
10
-15.5500002
20
41.7990761
11
-15.5500002
21
41.7449341
0
LINE
8
0
10
-15.5500002
20
41.7449341
11
-15.5500002
21
41.5378952
0
LINE
8
0
10
-15.5500002
20
41.5378952
11
-15.5500002
21
41.3361561
0
LINE
8
0
10
-15.5500002
20
41.3361561
11
-15.5500002
21
40.5499992
0
LINE
8
0
10
-15.5500002
20
40.5499992
11
-16.3188594
21
40.5499992
0
LINE
8
0
10
-16.3188594
20
40.5499992
11
-18.5499992
21
40.5499992
0
LINE
8
0
10
-18.5499992
20
40.5499992
11
-18.5499992
21
40.8209119
0
LINE
8
0
10
-18.5499992
20
40.8209119
11
-18.5499992
21
41.5378952
0
LINE
8
0
10
-18.5499992
20
41.5378952
11
-18.5499992
21
41.5961502
0
LINE
8
0
10
-18.5499992
20
41.5961502
11
-18.5499992
21
41.7990761
0
LINE
8
0
10
-18.5499992
20
41.7990761
11
-18.5499992
21
41.868587
0
LINE
8
0
10
-18.5499992
20
41.868587
11
-18.5499992
21
42.125
0
LINE
8
0
10
-18.5499992
20
42.125
11
-18.5499992
21
42.2014649
0
LINE
8
0
10
-18.5499992
20
42.2014649
11
-18.5499992
21
42.4980927
0
LINE
8
0
10
-18.5499992
20
42.4980927
11
-18.5499992
21
42.5776591
0
LINE
8
0
10
-18.5499992
20
42.5776591
11
-18.5499992
21
42.8982468
0
LINE
8
0
10
-18.5499992
20
42.8982468
11
-18.5499992
21
42.9775628
0
LINE
8
0
10
-18.5499992
20
42.9775628
11
-18.5499992
21
43.3038826
0
LINE
8
0
10
-18.5499992
20
43.3038826
11
-18.5499992
21
43.3799169
0
LINE
8
0
10
-18.5499992
20
43.3799169
11
-18.5499992
21
43.6931381
0
LINE
8
0
10
-18.5499992
20
43.6931381
11
-18.5499992
21
43.7628761
0
LINE
8
0
10
-18.5499992
20
43.7628761
11
-18.5499992
21
44.0450287
0
LINE
8
0
10
-18.5499992
20
44.0450287
11
-18.5499992
21
44.1052344
0
LINE
8
0
10
-18.5499992
20
44.1052344
11
-18.5499992
21
44.3405762
0
LINE
8
0
10
-18.5499992
20
44.3405762
11
-18.5499992
21
44.3877599
0
LINE
8
0
10
-18.5499992
20
44.3877599
11
-18.5499992
21
44.563858
0
LINE
8
0
10
-18.5499992
20
44.563858
11
-18.5499992
21
44.594474
0
LINE
8
0
10
-18.5499992
20
44.594474
11
-18.5499992
21
44.7028275
0
LINE
8
0
10
-18.5499992
20
44.7028275
11
-18.5499992
21
44.713676
0
LINE
8
0
10
-18.5499992
20
44.713676
11
-18.5499992
21
44.75
0
LINE
8
0
10
-18.5499992
20
44.75
11
-18.5499992
21
44.9937842
0
LINE
8
0
10
-18.5499992
20
44.9937842
11
-18.5499992
21
46.5
0
LINE
8
0
10
-18.5499992
20
46.5
11
-16.987989
21
46.5
0
LINE
8
0
10
-16.987989
20
46.5
11
-16.987989
21
46.5
0
ENDSEC
0
EOF
