0
SECTION
2
ENTITIES
0
LINE
8
0
10
8.53770072
20
4
11
0.0827566296
21
4
0
LINE
8
0
10
0.0827566296
20
4
11
-8.53770072
21
4
0
LINE
8
0
10
-8.53770072
20
4
11
-8.52596701
21
-0.969879513
0
LINE
8
0
10
-8.52596701
20
-0.969879513
11
-8.52626938
21
-1.10000002
0
LINE
8
0
10
-8.52626938
20
-1.10000002
11
-8.31018532
21
-1.10000002
0
LINE
8
0
10
-8.31018532
20
-1.10000002
11
8.52626938
21
-1.10000002
0
LINE
8
0
10
8.52626938
20
-1.10000002
11
8.52596701
21
-0.969879513
0
LINE
8
0
10
8.52596701
20
-0.969879513
11
8.53770072
21
4
0
LINE
8
0
10
8.53770072
20
4
11
8.53770072
21
4
0
LINE
8
0
10
8.53770072
20
41.5
11
0.0827566296
21
41.5
0
LINE
8
0
10
0.0827566296
20
41.5
11
-8.53770072
21
41.5
0
LINE
8
0
10
-8.53770072
20
41.5
11
-8.52596701
21
46.3724309
0
LINE
8
0
10
-8.52596701
20
46.3724309
11
-8.52626938
21
46.5
0
LINE
8
0
10
-8.52626938
20
46.5
11
-8.31018532
21
46.5
0
LINE
8
0
10
-8.31018532
20
46.5
11
8.52626938
21
46.5
0
LINE
8
0
10
8.52626938
20
46.5
11
8.52596701
21
46.3724309
0
LINE
8
0
10
8.52596701
20
46.3724309
11
8.53770072
21
41.5
0
LINE
8
0
10
8.53770072
20
41.5
11
8.53770072
21
41.5
0
LINE
8
0
10
-17.7483774
20
46.5
11
-12.1767798
21
46.5
0
LINE
8
0
10
-12.1767798
20
46.5
11
-11.4737306
21
46.5
0
LINE
8
0
10
-11.4737306
20
46.5
11
-11.474033
21
46.3724309
0
LINE
8
0
10
-11.474033
20
46.3724309
11
-11.4622993
21
41.5
0
LINE
8
0
10
-11.4622993
20
41.5
11
-12.0020284
21
41.5
0
LINE
8
0
10
-12.0020284
20
41.5
11
-18.5499992
21
41.5
0
LINE
8
0
10
-18.5499992
20
41.5
11
-18.5499992
21
41.6900748
0
LINE
8
0
10
-18.5499992
20
41.6900748
11
-18.5499992
21
43.4007485
0
LINE
8
0
10
-18.5499992
20
43.4007485
11
-18.5499992
21
45.9369693
0
LINE
8
0
10
-18.5499992
20
45.9369693
11
-18.5499992
21
46.0137036
0
LINE
8
0
10
-18.5499992
20
46.0137036
11
-18.5499992
21
46.0733753
0
LINE
8
0
10
-18.5499992
20
46.0733753
11
-18.5499992
21
46.1133614
0
LINE
8
0
10
-18.5499992
20
46.1133614
11
-18.5499992
21
46.1326908
0
LINE
8
0
10
-18.5499992
20
46.1326908
11
-18.5499992
21
46.3423095
0
LINE
8
0
10
-18.5499992
20
46.3423095
11
-18.5499992
21
46.5
0
LINE
8
0
10
-18.5499992
20
46.5
11
-17.7483774
21
46.5
0
LINE
8
0
10
-17.7483774
20
46.5
11
-17.7483774
21
46.5
0
LINE
8
0
10
-17.7483774
20
-1.10000002
11
-12.1767798
21
-1.10000002
0
LINE
8
0
10
-12.1767798
20
-1.10000002
11
-11.4737306
21
-1.10000002
0
LINE
8
0
10
-11.4737306
20
-1.10000002
11
-11.474033
21
-0.969879513
0
LINE
8
0
10
-11.474033
20
-0.969879513
11
-11.4622993
21
4
0
LINE
8
0
10
-11.4622993
20
4
11
-12.0020284
21
4
0
LINE
8
0
10
-12.0020284
20
4
11
-18.5499992
21
4
0
LINE
8
0
10
-18.5499992
20
4
11
-18.5499992
21
3.80992515
0
LINE
8
0
10
-18.5499992
20
3.80992515
11
-18.5499992
21
2.06123655
0
LINE
8
0
10
-18.5499992
20
2.06123655
11
-18.5499992
21
-0.440809845
0
LINE
8
0
10
-18.5499992
20
-0.440809845
11
-18.5499992
21
-0.512173639
0
LINE
8
0
10
-18.5499992
20
-0.512173639
11
-18.5499992
21
-0.565265952
0
LINE
8
0
10
-18.5499992
20
-0.565265952
11
-18.5499992
21
-0.598111599
0
LINE
8
0
10
-18.5499992
20
-0.598111599
11
-18.5499992
21
-0.905840131
0
LINE
8
0
10
-18.5499992
20
-0.905840131
11
-18.5499992
21
-0.925105359
0
LINE
8
0
10
-18.5499992
20
-0.925105359
11
-18.5499992
21
-1.10000002
0
LINE
8
0
10
-18.5499992
20
-1.10000002
11
-18.3024676
21
-1.10000002
0
LINE
8
0
10
-18.3024676
20
-1.10000002
11
-17.7483774
21
-1.10000002
0
LINE
8
0
10
-17.7483774
20
-1.10000002
11
-17.7483774
21
-1.10000002
0
LINE
8
0
10
11.474033
20
-0.969879513
11
11.4622993
21
4
0
LINE
8
0
10
11.4622993
20
4
11
11.6142752
21
4
0
LINE
8
0
10
11.6142752
20
4
11
13.75
21
4
0
LINE
8
0
10
13.75
20
4
11
13.75
21
2.06123655
0
LINE
8
0
10
13.75
20
2.06123655
11
13.75
21
-1.10000002
0
LINE
8
0
10
13.75
20
-1.10000002
11
11.8345402
21
-1.10000002
0
LINE
8
0
10
11.8345402
20
-1.10000002
11
11.7141724
21
-1.10000002
0
LINE
8
0
10
11.7141724
20
-1.10000002
11
11.4737306
21
-1.10000002
0
LINE
8
0
10
11.4737306
20
-1.10000002
11
11.474033
21
-0.969879513
0
LINE
8
0
10
11.474033
20
-0.969879513
11
11.474033
21
-0.969879513
0
LINE
8
0
10
11.474033
20
46.3724309
11
11.4622993
21
41.5
0
LINE
8
0
10
11.4622993
20
41.5
11
11.6142752
21
41.5
0
LINE
8
0
10
11.6142752
20
41.5
11
13.75
21
41.5
0
LINE
8
0
10
13.75
20
41.5
11
13.75
21
43.4007485
0
LINE
8
0
10
13.75
20
43.4007485
11
13.75
21
46.5
0
LINE
8
0
10
13.75
20
46.5
11
11.8345402
21
46.5
0
LINE
8
0
10
11.8345402
20
46.5
11
11.7141724
21
46.5
0
LINE
8
0
10
11.7141724
20
46.5
11
11.4737306
21
46.5
0
LINE
8
0
10
11.4737306
20
46.5
11
11.474033
21
46.3724309
0
LINE
8
0
10
11.474033
20
46.3724309
11
11.474033
21
46.3724309
0
ENDSEC
0
EOF
