0
SECTION
2
ENTITIES
0
LINE
8
0
10
-15.6760397
20
2.15675639
11
-15.5500002
21
2.15675639
0
LINE
8
0
10
-15.5500002
20
2.15675639
11
-15.5500002
21
1.67214325
0
LINE
8
0
10
-15.5500002
20
1.67214325
11
-15.5500002
21
1.62537247
0
LINE
8
0
10
-15.5500002
20
1.62537247
11
-15.5500002
21
1.59754606
0
LINE
8
0
10
-15.5500002
20
1.59754606
11
-15.5500002
21
1.23702481
0
LINE
8
0
10
-15.5500002
20
1.23702481
11
-15.5500002
21
1.20902215
0
LINE
8
0
10
-15.5500002
20
1.20902215
11
-15.5500002
21
0.980703682
0
LINE
8
0
10
-15.5500002
20
0.980703682
11
-15.5500002
21
0.362687292
0
LINE
8
0
10
-15.5500002
20
0.362687292
11
-15.5500002
21
0.0502606951
0
LINE
8
0
10
-15.5500002
20
0.0502606951
11
-15.5500002
21
-0.158028656
0
LINE
8
0
10
-15.5500002
20
-0.158028656
11
-15.5500002
21
-0.281689564
0
LINE
8
0
10
-15.5500002
20
-0.281689564
11
-15.5500002
21
-1.10000002
0
LINE
8
0
10
-15.5500002
20
-1.10000002
11
-16.1515027
21
-1.10000002
0
LINE
8
0
10
-16.1515027
20
-1.10000002
11
-18.5499992
21
-1.10000002
0
LINE
8
0
10
-18.5499992
20
-1.10000002
11
-18.5499992
21
-0.0591871564
0
LINE
8
0
10
-18.5499992
20
-0.0591871564
11
-18.5499992
21
-0.0204777844
0
LINE
8
0
10
-18.5499992
20
-0.0204777844
11
-18.5499992
21
0.0984351758
0
LINE
8
0
10
-18.5499992
20
0.0984351758
11
-18.5499992
21
0.785936279
0
LINE
8
0
10
-18.5499992
20
0.785936279
11
-18.5499992
21
0.804744846
0
LINE
8
0
10
-18.5499992
20
0.804744846
11
-18.5499992
21
0.856038442
0
LINE
8
0
10
-18.5499992
20
0.856038442
11
-18.5499992
21
0.980703682
0
LINE
8
0
10
-18.5499992
20
0.980703682
11
-18.5499992
21
1.02551712
0
LINE
8
0
10
-18.5499992
20
1.02551712
11
-18.5499992
21
1.23702481
0
LINE
8
0
10
-18.5499992
20
1.23702481
11
-18.5499992
21
1.29543924
0
LINE
8
0
10
-18.5499992
20
1.29543924
11
-18.5499992
21
1.62537247
0
LINE
8
0
10
-18.5499992
20
1.62537247
11
-18.5499992
21
1.67214325
0
LINE
8
0
10
-18.5499992
20
1.67214325
11
-18.5499992
21
2.15675639
0
LINE
8
0
10
-18.5499992
20
2.15675639
11
-15.6760397
21
2.15675639
0
LINE
8
0
10
-15.6760397
20
2.15675639
11
-15.6760397
21
2.15675639
0
LINE
8
0
10
-17.0221313
20
46.5
11
-15.5500002
21
46.5
0
LINE
8
0
10
-15.5500002
20
46.5
11
-15.5500002
21
45.8400603
0
LINE
8
0
10
-15.5500002
20
45.8400603
11
-15.5500002
21
44.563858
0
LINE
8
0
10
-15.5500002
20
44.563858
11
-15.5500002
21
44.5182265
0
LINE
8
0
10
-15.5500002
20
44.5182265
11
-15.5500002
21
44.3405762
0
LINE
8
0
10
-15.5500002
20
44.3405762
11
-15.5500002
21
44.2834106
0
LINE
8
0
10
-15.5500002
20
44.2834106
11
-15.5500002
21
44.0450287
0
LINE
8
0
10
-15.5500002
20
44.0450287
11
-15.5500002
21
43.9804046
0
LINE
8
0
10
-15.5500002
20
43.9804046
11
-15.5500002
21
43.6931381
0
LINE
8
0
10
-15.5500002
20
43.6931381
11
-15.5500002
21
43.6246638
0
LINE
8
0
10
-15.5500002
20
43.6246638
11
-15.5500002
21
43.3038826
0
LINE
8
0
10
-15.5500002
20
43.3038826
11
-15.5500002
21
43.2345381
0
LINE
8
0
10
-15.5500002
20
43.2345381
11
-15.5500002
21
42.8982468
0
LINE
8
0
10
-15.5500002
20
42.8982468
11
-15.5500002
21
42.8305211
0
LINE
8
0
10
-15.5500002
20
42.8305211
11
-15.5500002
21
42.4980927
0
LINE
8
0
10
-15.5500002
20
42.4980927
11
-15.5500002
21
42.4343247
0
LINE
8
0
10
-15.5500002
20
42.4343247
11
-15.5500002
21
42.125
0
LINE
8
0
10
-15.5500002
20
42.125
11
-15.5500002
21
42.0677339
0
LINE
8
0
10
-15.5500002
20
42.0677339
11
-15.5500002
21
41.7990761
0
LINE
8
0
10
-15.5500002
20
41.7990761
11
-15.5500002
21
41.7512654
0
LINE
8
0
10
-15.5500002
20
41.7512654
11
-15.5500002
21
41.5378952
0
LINE
8
0
10
-15.5500002
20
41.5378952
11
-15.5500002
21
41.3580814
0
LINE
8
0
10
-15.5500002
20
41.3580814
11
-15.5500002
21
40.5499992
0
LINE
8
0
10
-15.5500002
20
40.5499992
11
-16.2566347
21
40.5499992
0
LINE
8
0
10
-16.2566347
20
40.5499992
11
-18.5499992
21
40.5499992
0
LINE
8
0
10
-18.5499992
20
40.5499992
11
-18.5499992
21
40.7989866
0
LINE
8
0
10
-18.5499992
20
40.7989866
11
-18.5499992
21
41.5378952
0
LINE
8
0
10
-18.5499992
20
41.5378952
11
-18.5499992
21
41.5898189
0
LINE
8
0
10
-18.5499992
20
41.5898189
11
-18.5499992
21
41.7990761
0
LINE
8
0
10
-18.5499992
20
41.7990761
11
-18.5499992
21
41.8604586
0
LINE
8
0
10
-18.5499992
20
41.8604586
11
-18.5499992
21
42.125
0
LINE
8
0
10
-18.5499992
20
42.125
11
-18.5499992
21
42.1919604
0
LINE
8
0
10
-18.5499992
20
42.1919604
11
-18.5499992
21
42.4980927
0
LINE
8
0
10
-18.5499992
20
42.4980927
11
-18.5499992
21
42.5673382
0
LINE
8
0
10
-18.5499992
20
42.5673382
11
-18.5499992
21
42.8982468
0
LINE
8
0
10
-18.5499992
20
42.8982468
11
-18.5499992
21
42.9670741
0
LINE
8
0
10
-18.5499992
20
42.9670741
11
-18.5499992
21
43.3038826
0
LINE
8
0
10
-18.5499992
20
43.3038826
11
-18.5499992
21
43.3699273
0
LINE
8
0
10
-18.5499992
20
43.3699273
11
-18.5499992
21
43.6931381
0
LINE
8
0
10
-18.5499992
20
43.6931381
11
-18.5499992
21
43.7539974
0
LINE
8
0
10
-18.5499992
20
43.7539974
11
-18.5499992
21
44.0450287
0
LINE
8
0
10
-18.5499992
20
44.0450287
11
-18.5499992
21
44.0979619
0
LINE
8
0
10
-18.5499992
20
44.0979619
11
-18.5499992
21
44.3405762
0
LINE
8
0
10
-18.5499992
20
44.3405762
11
-18.5499992
21
44.3824347
0
LINE
8
0
10
-18.5499992
20
44.3824347
11
-18.5499992
21
44.563858
0
LINE
8
0
10
-18.5499992
20
44.563858
11
-18.5499992
21
44.5912745
0
LINE
8
0
10
-18.5499992
20
44.5912745
11
-18.5499992
21
44.7028275
0
LINE
8
0
10
-18.5499992
20
44.7028275
11
-18.5499992
21
44.7126294
0
LINE
8
0
10
-18.5499992
20
44.7126294
11
-18.5499992
21
44.75
0
LINE
8
0
10
-18.5499992
20
44.75
11
-18.5499992
21
44.9720338
0
LINE
8
0
10
-18.5499992
20
44.9720338
11
-18.5499992
21
46.5
0
LINE
8
0
10
-18.5499992
20
46.5
11
-17.0221313
21
46.5
0
LINE
8
0
10
-17.0221313
20
46.5
11
-17.0221313
21
46.5
0
ENDSEC
0
EOF
