0
SECTION
2
ENTITIES
0
LINE
8
0
10
-16.0905614
20
3.35367261
11
-15.5500002
21
3.35367261
0
LINE
8
0
10
-15.5500002
20
3.35367261
11
-15.5500002
21
2.9246304
0
LINE
8
0
10
-15.5500002
20
2.9246304
11
-15.5500002
21
2.81994661
0
LINE
8
0
10
-15.5500002
20
2.81994661
11
-15.5500002
21
2.71762144
0
LINE
8
0
10
-15.5500002
20
2.71762144
11
-15.5500002
21
2.31984376
0
LINE
8
0
10
-15.5500002
20
2.31984376
11
-15.5500002
21
2.15649089
0
LINE
8
0
10
-15.5500002
20
2.15649089
11
-15.5500002
21
2.03051585
0
LINE
8
0
10
-15.5500002
20
2.03051585
11
-15.5500002
21
1.72257012
0
LINE
8
0
10
-15.5500002
20
1.72257012
11
-15.5500002
21
1.59337368
0
LINE
8
0
10
-15.5500002
20
1.59337368
11
-15.5500002
21
1.51650791
0
LINE
8
0
10
-15.5500002
20
1.51650791
11
-15.5500002
21
1.27670975
0
LINE
8
0
10
-15.5500002
20
1.27670975
11
-15.5500002
21
1.22521473
0
LINE
8
0
10
-15.5500002
20
1.22521473
11
-15.5500002
21
1.06690229
0
LINE
8
0
10
-15.5500002
20
1.06690229
11
-15.5500002
21
0.11361346
0
LINE
8
0
10
-15.5500002
20
0.11361346
11
-15.5500002
21
-0.145611548
0
LINE
8
0
10
-15.5500002
20
-0.145611548
11
-15.5500002
21
-0.318432329
0
LINE
8
0
10
-15.5500002
20
-0.318432329
11
-15.5500002
21
-0.42103563
0
LINE
8
0
10
-15.5500002
20
-0.42103563
11
-15.5500002
21
-1.10000002
0
LINE
8
0
10
-15.5500002
20
-1.10000002
11
-16.0490758
21
-1.10000002
0
LINE
8
0
10
-16.0490758
20
-1.10000002
11
-18.5499992
21
-1.10000002
0
LINE
8
0
10
-18.5499992
20
-1.10000002
11
-18.5499992
21
-0.128962321
0
LINE
8
0
10
-18.5499992
20
-0.128962321
11
-18.5499992
21
-0.0928479904
0
LINE
8
0
10
-18.5499992
20
-0.0928479904
11
-18.5499992
21
0.0180931512
0
LINE
8
0
10
-18.5499992
20
0.0180931512
11
-18.5499992
21
0.920215052
0
LINE
8
0
10
-18.5499992
20
0.920215052
11
-18.5499992
21
0.944895187
0
LINE
8
0
10
-18.5499992
20
0.944895187
11
-18.5499992
21
0.980461363
0
LINE
8
0
10
-18.5499992
20
0.980461363
11
-18.5499992
21
1.06690229
0
LINE
8
0
10
-18.5499992
20
1.06690229
11
-18.5499992
21
1.13602691
0
LINE
8
0
10
-18.5499992
20
1.13602691
11
-18.5499992
21
1.27670975
0
LINE
8
0
10
-18.5499992
20
1.27670975
11
-18.5499992
21
1.38413
0
LINE
8
0
10
-18.5499992
20
1.38413
11
-18.5499992
21
1.59337368
0
LINE
8
0
10
-18.5499992
20
1.59337368
11
-18.5499992
21
1.72257012
0
LINE
8
0
10
-18.5499992
20
1.72257012
11
-18.5499992
21
2.03051585
0
LINE
8
0
10
-18.5499992
20
2.03051585
11
-18.5499992
21
2.15649089
0
LINE
8
0
10
-18.5499992
20
2.15649089
11
-18.5499992
21
2.63369577
0
LINE
8
0
10
-18.5499992
20
2.63369577
11
-18.5499992
21
2.71762144
0
LINE
8
0
10
-18.5499992
20
2.71762144
11
-18.5499992
21
3.35367261
0
LINE
8
0
10
-18.5499992
20
3.35367261
11
-16.0905614
21
3.35367261
0
LINE
8
0
10
-16.0905614
20
3.35367261
11
-16.0905614
21
3.35367261
0
LINE
8
0
10
-16.0699605
20
40.5499992
11
-15.5500002
21
40.5499992
0
LINE
8
0
10
-15.5500002
20
40.5499992
11
-15.5500002
21
41.4238573
0
LINE
8
0
10
-15.5500002
20
41.4238573
11
-15.5500002
21
41.5378952
0
LINE
8
0
10
-15.5500002
20
41.5378952
11
-15.5500002
21
41.7702591
0
LINE
8
0
10
-15.5500002
20
41.7702591
11
-15.5500002
21
41.7990761
0
LINE
8
0
10
-15.5500002
20
41.7990761
11
-15.5500002
21
42.0921193
0
LINE
8
0
10
-15.5500002
20
42.0921193
11
-15.5500002
21
42.125
0
LINE
8
0
10
-15.5500002
20
42.125
11
-15.5500002
21
42.4628382
0
LINE
8
0
10
-15.5500002
20
42.4628382
11
-15.5500002
21
42.4980927
0
LINE
8
0
10
-15.5500002
20
42.4980927
11
-15.5500002
21
42.8614838
0
LINE
8
0
10
-15.5500002
20
42.8614838
11
-15.5500002
21
42.8982468
0
LINE
8
0
10
-15.5500002
20
42.8982468
11
-15.5500002
21
43.2660045
0
LINE
8
0
10
-15.5500002
20
43.2660045
11
-15.5500002
21
43.3038826
0
LINE
8
0
10
-15.5500002
20
43.3038826
11
-15.5500002
21
43.6546328
0
LINE
8
0
10
-15.5500002
20
43.6546328
11
-15.5500002
21
43.6931381
0
LINE
8
0
10
-15.5500002
20
43.6931381
11
-15.5500002
21
44.0070407
0
LINE
8
0
10
-15.5500002
20
44.0070407
11
-15.5500002
21
44.0450287
0
LINE
8
0
10
-15.5500002
20
44.0450287
11
-15.5500002
21
44.3052281
0
LINE
8
0
10
-15.5500002
20
44.3052281
11
-15.5500002
21
44.3405762
0
LINE
8
0
10
-15.5500002
20
44.3405762
11
-15.5500002
21
44.534202
0
LINE
8
0
10
-15.5500002
20
44.534202
11
-15.5500002
21
44.563858
0
LINE
8
0
10
-15.5500002
20
44.563858
11
-15.5500002
21
45.9524382
0
LINE
8
0
10
-15.5500002
20
45.9524382
11
-15.5500002
21
46.5
0
LINE
8
0
10
-15.5500002
20
46.5
11
-17.1245582
21
46.5
0
LINE
8
0
10
-17.1245582
20
46.5
11
-18.5499992
21
46.5
0
LINE
8
0
10
-18.5499992
20
46.5
11
-18.5499992
21
44.9067826
0
LINE
8
0
10
-18.5499992
20
44.9067826
11
-18.5499992
21
44.75
0
LINE
8
0
10
-18.5499992
20
44.75
11
-18.5499992
21
44.7094898
0
LINE
8
0
10
-18.5499992
20
44.7094898
11
-18.5499992
21
44.7028275
0
LINE
8
0
10
-18.5499992
20
44.7028275
11
-18.5499992
21
44.5816761
0
LINE
8
0
10
-18.5499992
20
44.5816761
11
-18.5499992
21
44.563858
0
LINE
8
0
10
-18.5499992
20
44.563858
11
-18.5499992
21
44.3664592
0
LINE
8
0
10
-18.5499992
20
44.3664592
11
-18.5499992
21
44.3405762
0
LINE
8
0
10
-18.5499992
20
44.3405762
11
-18.5499992
21
44.0761444
0
LINE
8
0
10
-18.5499992
20
44.0761444
11
-18.5499992
21
44.0450287
0
LINE
8
0
10
-18.5499992
20
44.0450287
11
-18.5499992
21
43.7273613
0
LINE
8
0
10
-18.5499992
20
43.7273613
11
-18.5499992
21
43.6931381
0
LINE
8
0
10
-18.5499992
20
43.6931381
11
-18.5499992
21
43.3399583
0
LINE
8
0
10
-18.5499992
20
43.3399583
11
-18.5499992
21
43.3038826
0
LINE
8
0
10
-18.5499992
20
43.3038826
11
-18.5499992
21
42.9356077
0
LINE
8
0
10
-18.5499992
20
42.9356077
11
-18.5499992
21
42.8982468
0
LINE
8
0
10
-18.5499992
20
42.8982468
11
-18.5499992
21
42.5363755
0
LINE
8
0
10
-18.5499992
20
42.5363755
11
-18.5499992
21
42.4980927
0
LINE
8
0
10
-18.5499992
20
42.4980927
11
-18.5499992
21
42.163447
0
LINE
8
0
10
-18.5499992
20
42.163447
11
-18.5499992
21
42.125
0
LINE
8
0
10
-18.5499992
20
42.125
11
-18.5499992
21
41.8360732
0
LINE
8
0
10
-18.5499992
20
41.8360732
11
-18.5499992
21
41.7990761
0
LINE
8
0
10
-18.5499992
20
41.7990761
11
-18.5499992
21
41.5708252
0
LINE
8
0
10
-18.5499992
20
41.5708252
11
-18.5499992
21
41.5378952
0
LINE
8
0
10
-18.5499992
20
41.5378952
11
-18.5499992
21
40.7332107
0
LINE
8
0
10
-18.5499992
20
40.7332107
11
-18.5499992
21
40.5499992
0
LINE
8
0
10
-18.5499992
20
40.5499992
11
-16.0699605
21
40.5499992
0
LINE
8
0
10
-16.0699605
20
40.5499992
11
-16.0699605
21
40.5499992
0
ENDSEC
0
EOF
