0
SECTION
2
ENTITIES
0
LINE
8
0
10
-17.1416294
20
46.5
11
-15.5500002
21
46.5
0
LINE
8
0
10
-15.5500002
20
46.5
11
-15.5500002
21
45.9711678
0
LINE
8
0
10
-15.5500002
20
45.9711678
11
-15.5500002
21
44.563858
0
LINE
8
0
10
-15.5500002
20
44.563858
11
-15.5500002
21
44.5368645
0
LINE
8
0
10
-15.5500002
20
44.5368645
11
-15.5500002
21
44.3405762
0
LINE
8
0
10
-15.5500002
20
44.3405762
11
-15.5500002
21
44.3088644
0
LINE
8
0
10
-15.5500002
20
44.3088644
11
-15.5500002
21
44.0450287
0
LINE
8
0
10
-15.5500002
20
44.0450287
11
-15.5500002
21
44.0114801
0
LINE
8
0
10
-15.5500002
20
44.0114801
11
-15.5500002
21
43.6931381
0
LINE
8
0
10
-15.5500002
20
43.6931381
11
-15.5500002
21
43.6596276
0
LINE
8
0
10
-15.5500002
20
43.6596276
11
-15.5500002
21
43.3038826
0
LINE
8
0
10
-15.5500002
20
43.3038826
11
-15.5500002
21
43.2712489
0
LINE
8
0
10
-15.5500002
20
43.2712489
11
-15.5500002
21
42.8982468
0
LINE
8
0
10
-15.5500002
20
42.8982468
11
-15.5500002
21
42.8666443
0
LINE
8
0
10
-15.5500002
20
42.8666443
11
-15.5500002
21
42.4980927
0
LINE
8
0
10
-15.5500002
20
42.4980927
11
-15.5500002
21
42.4675904
0
LINE
8
0
10
-15.5500002
20
42.4675904
11
-15.5500002
21
42.125
0
LINE
8
0
10
-15.5500002
20
42.125
11
-15.5500002
21
42.0961835
0
LINE
8
0
10
-15.5500002
20
42.0961835
11
-15.5500002
21
41.7990761
0
LINE
8
0
10
-15.5500002
20
41.7990761
11
-15.5500002
21
41.7734247
0
LINE
8
0
10
-15.5500002
20
41.7734247
11
-15.5500002
21
41.5378952
0
LINE
8
0
10
-15.5500002
20
41.5378952
11
-15.5500002
21
41.4348199
0
LINE
8
0
10
-15.5500002
20
41.4348199
11
-15.5500002
21
40.5499992
0
LINE
8
0
10
-15.5500002
20
40.5499992
11
-16.0388482
21
40.5499992
0
LINE
8
0
10
-16.0388482
20
40.5499992
11
-18.5499992
21
40.5499992
0
LINE
8
0
10
-18.5499992
20
40.5499992
11
-18.5499992
21
40.7222481
0
LINE
8
0
10
-18.5499992
20
40.7222481
11
-18.5499992
21
41.5378952
0
LINE
8
0
10
-18.5499992
20
41.5378952
11
-18.5499992
21
41.5676596
0
LINE
8
0
10
-18.5499992
20
41.5676596
11
-18.5499992
21
41.7990761
0
LINE
8
0
10
-18.5499992
20
41.7990761
11
-18.5499992
21
41.832009
0
LINE
8
0
10
-18.5499992
20
41.832009
11
-18.5499992
21
42.125
0
LINE
8
0
10
-18.5499992
20
42.125
11
-18.5499992
21
42.1586947
0
LINE
8
0
10
-18.5499992
20
42.1586947
11
-18.5499992
21
42.4980927
0
LINE
8
0
10
-18.5499992
20
42.4980927
11
-18.5499992
21
42.531215
0
LINE
8
0
10
-18.5499992
20
42.531215
11
-18.5499992
21
42.8982468
0
LINE
8
0
10
-18.5499992
20
42.8982468
11
-18.5499992
21
42.9303633
0
LINE
8
0
10
-18.5499992
20
42.9303633
11
-18.5499992
21
43.3038826
0
LINE
8
0
10
-18.5499992
20
43.3038826
11
-18.5499992
21
43.3349634
0
LINE
8
0
10
-18.5499992
20
43.3349634
11
-18.5499992
21
43.6931381
0
LINE
8
0
10
-18.5499992
20
43.6931381
11
-18.5499992
21
43.7229219
0
LINE
8
0
10
-18.5499992
20
43.7229219
11
-18.5499992
21
44.0450287
0
LINE
8
0
10
-18.5499992
20
44.0450287
11
-18.5499992
21
44.0725081
0
LINE
8
0
10
-18.5499992
20
44.0725081
11
-18.5499992
21
44.3405762
0
LINE
8
0
10
-18.5499992
20
44.3405762
11
-18.5499992
21
44.3637966
0
LINE
8
0
10
-18.5499992
20
44.3637966
11
-18.5499992
21
44.563858
0
LINE
8
0
10
-18.5499992
20
44.563858
11
-18.5499992
21
44.5800763
0
LINE
8
0
10
-18.5499992
20
44.5800763
11
-18.5499992
21
44.7028275
0
LINE
8
0
10
-18.5499992
20
44.7028275
11
-18.5499992
21
44.7089665
0
LINE
8
0
10
-18.5499992
20
44.7089665
11
-18.5499992
21
44.75
0
LINE
8
0
10
-18.5499992
20
44.75
11
-18.5499992
21
44.8959074
0
LINE
8
0
10
-18.5499992
20
44.8959074
11
-18.5499992
21
46.5
0
LINE
8
0
10
-18.5499992
20
46.5
11
-17.1416294
21
46.5
0
LINE
8
0
10
-17.1416294
20
46.5
11
-17.1416294
21
46.5
0
LINE
8
0
10
-16.0320046
20
-1.10000002
11
-15.5500002
21
-1.10000002
0
LINE
8
0
10
-15.5500002
20
-1.10000002
11
-15.5500002
21
-0.444259974
0
LINE
8
0
10
-15.5500002
20
-0.444259974
11
-15.5500002
21
-0.345166275
0
LINE
8
0
10
-15.5500002
20
-0.345166275
11
-15.5500002
21
-0.178256922
0
LINE
8
0
10
-15.5500002
20
-0.178256922
11
-15.5500002
21
0.0721011541
0
LINE
8
0
10
-15.5500002
20
0.0721011541
11
-15.5500002
21
1.08126872
0
LINE
8
0
10
-15.5500002
20
1.08126872
11
-15.5500002
21
1.2279135
0
LINE
8
0
10
-15.5500002
20
1.2279135
11
-15.5500002
21
1.28332391
0
LINE
8
0
10
-15.5500002
20
1.28332391
11
-15.5500002
21
1.50300155
0
LINE
8
0
10
-15.5500002
20
1.50300155
11
-15.5500002
21
1.58804055
0
LINE
8
0
10
-15.5500002
20
1.58804055
11
-15.5500002
21
1.7309746
0
LINE
8
0
10
-15.5500002
20
1.7309746
11
-15.5500002
21
2.00509176
0
LINE
8
0
10
-15.5500002
20
2.00509176
11
-15.5500002
21
2.15259846
0
LINE
8
0
10
-15.5500002
20
2.15259846
11
-15.5500002
21
2.3438716
0
LINE
8
0
10
-15.5500002
20
2.3438716
11
-15.5500002
21
2.68802959
0
LINE
8
0
10
-15.5500002
20
2.68802959
11
-15.5500002
21
2.83093765
0
LINE
8
0
10
-15.5500002
20
2.83093765
11
-15.5500002
21
2.97713977
0
LINE
8
0
10
-15.5500002
20
2.97713977
11
-15.5500002
21
3.46549294
0
LINE
8
0
10
-15.5500002
20
3.46549294
11
-15.5500002
21
3.49053483
0
LINE
8
0
10
-15.5500002
20
3.49053483
11
-15.5500002
21
3.59681957
0
LINE
8
0
10
-15.5500002
20
3.59681957
11
-18.0714595
21
3.59681957
0
LINE
8
0
10
-18.0714595
20
3.59681957
11
-18.5499992
21
3.59681957
0
LINE
8
0
10
-18.5499992
20
3.59681957
11
-18.5499992
21
3.46549294
0
LINE
8
0
10
-18.5499992
20
3.46549294
11
-18.5499992
21
3.43779279
0
LINE
8
0
10
-18.5499992
20
3.43779279
11
-18.5499992
21
3.41348909
0
LINE
8
0
10
-18.5499992
20
3.41348909
11
-18.5499992
21
2.68802959
0
LINE
8
0
10
-18.5499992
20
2.68802959
11
-18.5499992
21
2.57081841
0
LINE
8
0
10
-18.5499992
20
2.57081841
11
-18.5499992
21
2.15259846
0
LINE
8
0
10
-18.5499992
20
2.15259846
11
-18.5499992
21
2.00509176
0
LINE
8
0
10
-18.5499992
20
2.00509176
11
-18.5499992
21
1.7309746
0
LINE
8
0
10
-18.5499992
20
1.7309746
11
-18.5499992
21
1.58804055
0
LINE
8
0
10
-18.5499992
20
1.58804055
11
-18.5499992
21
1.3989118
0
LINE
8
0
10
-18.5499992
20
1.3989118
11
-18.5499992
21
1.28332391
0
LINE
8
0
10
-18.5499992
20
1.28332391
11
-18.5499992
21
1.15444521
0
LINE
8
0
10
-18.5499992
20
1.15444521
11
-18.5499992
21
1.08126872
0
LINE
8
0
10
-18.5499992
20
1.08126872
11
-18.5499992
21
1.00119852
0
LINE
8
0
10
-18.5499992
20
1.00119852
11
-18.5499992
21
0.968253577
0
LINE
8
0
10
-18.5499992
20
0.968253577
11
-18.5499992
21
0.942594848
0
LINE
8
0
10
-18.5499992
20
0.942594848
11
-18.5499992
21
0.00470281378
0
LINE
8
0
10
-18.5499992
20
0.00470281378
11
-18.5499992
21
-0.104909691
0
LINE
8
0
10
-18.5499992
20
-0.104909691
11
-18.5499992
21
-0.140591515
0
LINE
8
0
10
-18.5499992
20
-0.140591515
11
-18.5499992
21
-1.10000002
0
LINE
8
0
10
-18.5499992
20
-1.10000002
11
-16.0320046
21
-1.10000002
0
LINE
8
0
10
-16.0320046
20
-1.10000002
11
-16.0320046
21
-1.10000002
0
ENDSEC
0
EOF
