0
SECTION
2
ENTITIES
0
LINE
8
0
10
11.5737704
20
46.5
11
11.7024395
21
46.5
0
LINE
8
0
10
11.7024395
20
46.5
11
13.75
21
46.5
0
LINE
8
0
10
13.75
20
46.5
11
13.75
21
43.187007
0
LINE
8
0
10
13.75
20
43.187007
11
13.75
21
41.5
0
LINE
8
0
10
13.75
20
41.5
11
11.85444
21
41.5
0
LINE
8
0
10
11.85444
20
41.5
11
11.5634714
21
41.5
0
LINE
8
0
10
11.5634714
20
41.5
11
11.4934255
21
41.5
0
LINE
8
0
10
11.4934255
20
41.5
11
11.4970398
21
43.0248459
0
LINE
8
0
10
11.4970398
20
43.0248459
11
11.4888028
21
46.5
0
LINE
8
0
10
11.4888028
20
46.5
11
11.5737704
21
46.5
0
LINE
8
0
10
11.5737704
20
46.5
11
11.5737704
21
46.5
0
LINE
8
0
10
11.5737704
20
-1.10000002
11
11.7024395
21
-1.10000002
0
LINE
8
0
10
11.7024395
20
-1.10000002
11
13.75
21
-1.10000002
0
LINE
8
0
10
13.75
20
-1.10000002
11
13.75
21
2.27925287
0
LINE
8
0
10
13.75
20
2.27925287
11
13.75
21
4
0
LINE
8
0
10
13.75
20
4
11
11.85444
21
4
0
LINE
8
0
10
11.85444
20
4
11
11.5634714
21
4
0
LINE
8
0
10
11.5634714
20
4
11
11.4934255
21
4
0
LINE
8
0
10
11.4934255
20
4
11
11.4970398
21
2.44465719
0
LINE
8
0
10
11.4970398
20
2.44465719
11
11.4888028
21
-1.10000002
0
LINE
8
0
10
11.4888028
20
-1.10000002
11
11.5737704
21
-1.10000002
0
LINE
8
0
10
11.5737704
20
-1.10000002
11
11.5737704
21
-1.10000002
0
LINE
8
0
10
-12.7383557
20
4
11
-11.705006
21
4
0
LINE
8
0
10
-11.705006
20
4
11
-11.4934255
21
4
0
LINE
8
0
10
-11.4934255
20
4
11
-11.4970398
21
2.44465719
0
LINE
8
0
10
-11.4970398
20
2.44465719
11
-11.4888028
21
-1.10000002
0
LINE
8
0
10
-11.4888028
20
-1.10000002
11
-11.7372474
21
-1.10000002
0
LINE
8
0
10
-11.7372474
20
-1.10000002
11
-17.6930931
21
-1.10000002
0
LINE
8
0
10
-17.6930931
20
-1.10000002
11
-18.2853964
21
-1.10000002
0
LINE
8
0
10
-18.2853964
20
-1.10000002
11
-18.5499992
21
-1.10000002
0
LINE
8
0
10
-18.5499992
20
-1.10000002
11
-18.5499992
21
-0.913043658
0
LINE
8
0
10
-18.5499992
20
-0.913043658
11
-18.5499992
21
-0.892449794
0
LINE
8
0
10
-18.5499992
20
-0.892449794
11
-18.5499992
21
-0.563498604
0
LINE
8
0
10
-18.5499992
20
-0.563498604
11
-18.5499992
21
-0.52838774
0
LINE
8
0
10
-18.5499992
20
-0.52838774
11
-18.5499992
21
-0.471633888
0
LINE
8
0
10
-18.5499992
20
-0.471633888
11
-18.5499992
21
-0.395348454
0
LINE
8
0
10
-18.5499992
20
-0.395348454
11
-18.5499992
21
2.27925287
0
LINE
8
0
10
-18.5499992
20
2.27925287
11
-18.5499992
21
3.8312993
0
LINE
8
0
10
-18.5499992
20
3.8312993
11
-18.5499992
21
4
0
LINE
8
0
10
-18.5499992
20
4
11
-12.7383557
21
4
0
LINE
8
0
10
-12.7383557
20
4
11
-12.7383557
21
4
0
LINE
8
0
10
-12.7383557
20
41.5
11
-11.705006
21
41.5
0
LINE
8
0
10
-11.705006
20
41.5
11
-11.4934255
21
41.5
0
LINE
8
0
10
-11.4934255
20
41.5
11
-11.4970398
21
43.0248459
0
LINE
8
0
10
-11.4970398
20
43.0248459
11
-11.4888028
21
46.5
0
LINE
8
0
10
-11.4888028
20
46.5
11
-11.7372474
21
46.5
0
LINE
8
0
10
-11.7372474
20
46.5
11
-17.6930931
21
46.5
0
LINE
8
0
10
-17.6930931
20
46.5
11
-18.5499992
21
46.5
0
LINE
8
0
10
-18.5499992
20
46.5
11
-18.5499992
21
46.3314343
0
LINE
8
0
10
-18.5499992
20
46.3314343
11
-18.5499992
21
46.1073591
0
LINE
8
0
10
-18.5499992
20
46.1073591
11
-18.5499992
21
46.0866966
0
LINE
8
0
10
-18.5499992
20
46.0866966
11
-18.5499992
21
46.0439529
0
LINE
8
0
10
-18.5499992
20
46.0439529
11
-18.5499992
21
45.9801659
0
LINE
8
0
10
-18.5499992
20
45.9801659
11
-18.5499992
21
45.8981396
0
LINE
8
0
10
-18.5499992
20
45.8981396
11
-18.5499992
21
43.187007
0
LINE
8
0
10
-18.5499992
20
43.187007
11
-18.5499992
21
41.6687007
0
LINE
8
0
10
-18.5499992
20
41.6687007
11
-18.5499992
21
41.5
0
LINE
8
0
10
-18.5499992
20
41.5
11
-12.7383557
21
41.5
0
LINE
8
0
10
-12.7383557
20
41.5
11
-12.7383557
21
41.5
0
LINE
8
0
10
5.89593765
20
4
11
-8.50657449
21
4
0
LINE
8
0
10
-8.50657449
20
4
11
-8.50296021
21
2.44465719
0
LINE
8
0
10
-8.50296021
20
2.44465719
11
-8.51119724
21
-1.10000002
0
LINE
8
0
10
-8.51119724
20
-1.10000002
11
2.56150393
21
-1.10000002
0
LINE
8
0
10
2.56150393
20
-1.10000002
11
8.51119724
21
-1.10000002
0
LINE
8
0
10
8.51119724
20
-1.10000002
11
8.50296021
21
2.44465719
0
LINE
8
0
10
8.50296021
20
2.44465719
11
8.50657449
21
4
0
LINE
8
0
10
8.50657449
20
4
11
5.89593765
21
4
0
LINE
8
0
10
5.89593765
20
4
11
5.89593765
21
4
0
LINE
8
0
10
5.89593765
20
41.5
11
-8.50657449
21
41.5
0
LINE
8
0
10
-8.50657449
20
41.5
11
-8.50296021
21
43.0248459
0
LINE
8
0
10
-8.50296021
20
43.0248459
11
-8.51119724
21
46.5
0
LINE
8
0
10
-8.51119724
20
46.5
11
2.56150393
21
46.5
0
LINE
8
0
10
2.56150393
20
46.5
11
8.51119724
21
46.5
0
LINE
8
0
10
8.51119724
20
46.5
11
8.50296021
21
43.0248459
0
LINE
8
0
10
8.50296021
20
43.0248459
11
8.50657449
21
41.5
0
LINE
8
0
10
8.50657449
20
41.5
11
5.89593765
21
41.5
0
LINE
8
0
10
5.89593765
20
41.5
11
5.89593765
21
41.5
0
ENDSEC
0
EOF
