0
SECTION
2
ENTITIES
0
LINE
8
0
10
-18.3264372
20
5.10204012
11
-15.5500002
21
5.10204012
0
LINE
8
0
10
-15.5500002
20
5.10204012
11
-15.5500002
21
5.03237992
0
LINE
8
0
10
-15.5500002
20
5.03237992
11
-15.5500002
21
5.02995539
0
LINE
8
0
10
-15.5500002
20
5.02995539
11
-15.5500002
21
5.02337307
0
LINE
8
0
10
-15.5500002
20
5.02337307
11
-15.5500002
21
4.34216139
0
LINE
8
0
10
-15.5500002
20
4.34216139
11
-15.5500002
21
4.27470751
0
LINE
8
0
10
-15.5500002
20
4.27470751
11
-15.5500002
21
4.13475759
0
LINE
8
0
10
-15.5500002
20
4.13475759
11
-15.5500002
21
3.90271039
0
LINE
8
0
10
-15.5500002
20
3.90271039
11
-15.5500002
21
3.64152867
0
LINE
8
0
10
-15.5500002
20
3.64152867
11
-15.5500002
21
3.3356366
0
LINE
8
0
10
-15.5500002
20
3.3356366
11
-15.5500002
21
3.2396866
0
LINE
8
0
10
-15.5500002
20
3.2396866
11
-15.5500002
21
2.88589285
0
LINE
8
0
10
-15.5500002
20
2.88589285
11
-15.5500002
21
2.54007036
0
LINE
8
0
10
-15.5500002
20
2.54007036
11
-15.5500002
21
2.46401082
0
LINE
8
0
10
-15.5500002
20
2.46401082
11
-15.5500002
21
2.1331363
0
LINE
8
0
10
-15.5500002
20
2.1331363
11
-15.5500002
21
1.87797132
0
LINE
8
0
10
-15.5500002
20
1.87797132
11
-15.5500002
21
1.77299699
0
LINE
8
0
10
-15.5500002
20
1.77299699
11
-15.5500002
21
1.5613749
0
LINE
8
0
10
-15.5500002
20
1.5613749
11
-15.5500002
21
1.43546977
0
LINE
8
0
10
-15.5500002
20
1.43546977
11
-15.5500002
21
1.3163947
0
LINE
8
0
10
-15.5500002
20
1.3163947
11
-15.5500002
21
1.24140732
0
LINE
8
0
10
-15.5500002
20
1.24140732
11
-15.5500002
21
1.15310089
0
LINE
8
0
10
-15.5500002
20
1.15310089
11
-15.5500002
21
-0.135460373
0
LINE
8
0
10
-15.5500002
20
-0.135460373
11
-15.5500002
21
-0.341483792
0
LINE
8
0
10
-15.5500002
20
-0.341483792
11
-15.5500002
21
-0.478836003
0
LINE
8
0
10
-15.5500002
20
-0.478836003
11
-15.5500002
21
-0.560381695
0
LINE
8
0
10
-15.5500002
20
-0.560381695
11
-15.5500002
21
-1.10000002
0
LINE
8
0
10
-15.5500002
20
-1.10000002
11
-15.9466489
21
-1.10000002
0
LINE
8
0
10
-15.9466489
20
-1.10000002
11
-18.5499992
21
-1.10000002
0
LINE
8
0
10
-18.5499992
20
-1.10000002
11
-18.5499992
21
-0.198737485
0
LINE
8
0
10
-18.5499992
20
-0.198737485
11
-18.5499992
21
-0.165218196
0
LINE
8
0
10
-18.5499992
20
-0.165218196
11
-18.5499992
21
-0.0622488734
0
LINE
8
0
10
-18.5499992
20
-0.0622488734
11
-18.5499992
21
1.05449383
0
LINE
8
0
10
-18.5499992
20
1.05449383
11
-18.5499992
21
1.08504553
0
LINE
8
0
10
-18.5499992
20
1.08504553
11
-18.5499992
21
1.10488428
0
LINE
8
0
10
-18.5499992
20
1.10488428
11
-18.5499992
21
1.15310089
0
LINE
8
0
10
-18.5499992
20
1.15310089
11
-18.5499992
21
1.2465367
0
LINE
8
0
10
-18.5499992
20
1.2465367
11
-18.5499992
21
1.3163947
0
LINE
8
0
10
-18.5499992
20
1.3163947
11
-18.5499992
21
1.47282076
0
LINE
8
0
10
-18.5499992
20
1.47282076
11
-18.5499992
21
1.5613749
0
LINE
8
0
10
-18.5499992
20
1.5613749
11
-18.5499992
21
1.77299699
0
LINE
8
0
10
-18.5499992
20
1.77299699
11
-18.5499992
21
1.87797132
0
LINE
8
0
10
-18.5499992
20
1.87797132
11
-18.5499992
21
2.1331363
0
LINE
8
0
10
-18.5499992
20
2.1331363
11
-18.5499992
21
2.25643163
0
LINE
8
0
10
-18.5499992
20
2.25643163
11
-18.5499992
21
2.54007036
0
LINE
8
0
10
-18.5499992
20
2.54007036
11
-18.5499992
21
2.70039825
0
LINE
8
0
10
-18.5499992
20
2.70039825
11
-18.5499992
21
2.99727328
0
LINE
8
0
10
-18.5499992
20
2.99727328
11
-18.5499992
21
3.3356366
0
LINE
8
0
10
-18.5499992
20
3.3356366
11
-18.5499992
21
3.59549228
0
LINE
8
0
10
-18.5499992
20
3.59549228
11
-18.5499992
21
3.90271039
0
LINE
8
0
10
-18.5499992
20
3.90271039
11
-18.5499992
21
4.13475759
0
LINE
8
0
10
-18.5499992
20
4.13475759
11
-18.5499992
21
4.97892357
0
LINE
8
0
10
-18.5499992
20
4.97892357
11
-18.5499992
21
5.00884184
0
LINE
8
0
10
-18.5499992
20
5.00884184
11
-18.5499992
21
5.02337307
0
LINE
8
0
10
-18.5499992
20
5.02337307
11
-18.5499992
21
5.10204012
0
LINE
8
0
10
-18.5499992
20
5.10204012
11
-18.3264372
21
5.10204012
0
LINE
8
0
10
-18.3264372
20
5.10204012
11
-18.3264372
21
5.10204012
0
LINE
8
0
10
-18.4541583
20
18.0739577
11
-15.5500002
21
18.0739577
0
LINE
8
0
10
-15.5500002
20
18.0739577
11
-15.5500002
21
18.2432545
0
LINE
8
0
10
-15.5500002
20
18.2432545
11
-15.5500002
21
18.2624541
0
LINE
8
0
10
-15.5500002
20
18.2624541
11
-15.5500002
21
18.3026459
0
LINE
8
0
10
-15.5500002
20
18.3026459
11
-15.5500002
21
18.364982
0
LINE
8
0
10
-15.5500002
20
18.364982
11
-15.5500002
21
18.4372051
0
LINE
8
0
10
-15.5500002
20
18.4372051
11
-15.5500002
21
18.4958876
0
LINE
8
0
10
-15.5500002
20
18.4958876
11
-15.5500002
21
20.3139285
0
LINE
8
0
10
-15.5500002
20
20.3139285
11
-15.5500002
21
20.3960887
0
LINE
8
0
10
-15.5500002
20
20.3960887
11
-15.5500002
21
20.7336944
0
LINE
8
0
10
-15.5500002
20
20.7336944
11
-17.4478283
21
20.7336944
0
LINE
8
0
10
-17.4478283
20
20.7336944
11
-18.5499992
21
20.7336944
0
LINE
8
0
10
-18.5499992
20
20.7336944
11
-18.5499992
21
20.4595314
0
LINE
8
0
10
-18.5499992
20
20.4595314
11
-18.5499992
21
20.3960887
0
LINE
8
0
10
-18.5499992
20
20.3960887
11
-18.5499992
21
20.3139285
0
LINE
8
0
10
-18.5499992
20
20.3139285
11
-18.5499992
21
18.4958876
0
LINE
8
0
10
-18.5499992
20
18.4958876
11
-18.5499992
21
18.4372051
0
LINE
8
0
10
-18.5499992
20
18.4372051
11
-18.5499992
21
18.364982
0
LINE
8
0
10
-18.5499992
20
18.364982
11
-18.5499992
21
18.3026459
0
LINE
8
0
10
-18.5499992
20
18.3026459
11
-18.5499992
21
18.2624541
0
LINE
8
0
10
-18.5499992
20
18.2624541
11
-18.5499992
21
18.2432545
0
LINE
8
0
10
-18.5499992
20
18.2432545
11
-18.5499992
21
18.2388017
0
LINE
8
0
10
-18.5499992
20
18.2388017
11
-18.5499992
21
18.0739577
0
LINE
8
0
10
-18.5499992
20
18.0739577
11
-18.4541583
21
18.0739577
0
LINE
8
0
10
-18.4541583
20
18.0739577
11
-18.4541583
21
18.0739577
0
LINE
8
0
10
-15.8832864
20
40.5499992
11
-15.5500002
21
40.5499992
0
LINE
8
0
10
-15.5500002
20
40.5499992
11
-15.5500002
21
41.4896332
0
LINE
8
0
10
-15.5500002
20
41.4896332
11
-15.5500002
21
41.5378952
0
LINE
8
0
10
-15.5500002
20
41.5378952
11
-15.5500002
21
41.7892528
0
LINE
8
0
10
-15.5500002
20
41.7892528
11
-15.5500002
21
41.7990761
0
LINE
8
0
10
-15.5500002
20
41.7990761
11
-15.5500002
21
42.1165046
0
LINE
8
0
10
-15.5500002
20
42.1165046
11
-15.5500002
21
42.125
0
LINE
8
0
10
-15.5500002
20
42.125
11
-15.5500002
21
42.4913516
0
LINE
8
0
10
-15.5500002
20
42.4913516
11
-15.5500002
21
42.4980927
0
LINE
8
0
10
-15.5500002
20
42.4980927
11
-15.5500002
21
42.8924465
0
LINE
8
0
10
-15.5500002
20
42.8924465
11
-15.5500002
21
42.8982468
0
LINE
8
0
10
-15.5500002
20
42.8982468
11
-15.5500002
21
43.2974708
0
LINE
8
0
10
-15.5500002
20
43.2974708
11
-15.5500002
21
43.3038826
0
LINE
8
0
10
-15.5500002
20
43.3038826
11
-15.5500002
21
43.6846018
0
LINE
8
0
10
-15.5500002
20
43.6846018
11
-15.5500002
21
43.6931381
0
LINE
8
0
10
-15.5500002
20
43.6931381
11
-15.5500002
21
44.0336769
0
LINE
8
0
10
-15.5500002
20
44.0336769
11
-15.5500002
21
44.0450287
0
LINE
8
0
10
-15.5500002
20
44.0450287
11
-15.5500002
21
44.3270456
0
LINE
8
0
10
-15.5500002
20
44.3270456
11
-15.5500002
21
44.3405762
0
LINE
8
0
10
-15.5500002
20
44.3405762
11
-15.5500002
21
44.5501775
0
LINE
8
0
10
-15.5500002
20
44.5501775
11
-15.5500002
21
44.563858
0
LINE
8
0
10
-15.5500002
20
44.563858
11
-15.5500002
21
46.0648161
0
LINE
8
0
10
-15.5500002
20
46.0648161
11
-15.5500002
21
46.5
0
LINE
8
0
10
-15.5500002
20
46.5
11
-17.2269851
21
46.5
0
LINE
8
0
10
-17.2269851
20
46.5
11
-18.5499992
21
46.5
0
LINE
8
0
10
-18.5499992
20
46.5
11
-18.5499992
21
44.8415313
0
LINE
8
0
10
-18.5499992
20
44.8415313
11
-18.5499992
21
44.75
0
LINE
8
0
10
-18.5499992
20
44.75
11
-18.5499992
21
44.7063501
0
LINE
8
0
10
-18.5499992
20
44.7063501
11
-18.5499992
21
44.7028275
0
LINE
8
0
10
-18.5499992
20
44.7028275
11
-18.5499992
21
44.5720776
0
LINE
8
0
10
-18.5499992
20
44.5720776
11
-18.5499992
21
44.563858
0
LINE
8
0
10
-18.5499992
20
44.563858
11
-18.5499992
21
44.3504837
0
LINE
8
0
10
-18.5499992
20
44.3504837
11
-18.5499992
21
44.3405762
0
LINE
8
0
10
-18.5499992
20
44.3405762
11
-18.5499992
21
44.0543269
0
LINE
8
0
10
-18.5499992
20
44.0543269
11
-18.5499992
21
44.0450287
0
LINE
8
0
10
-18.5499992
20
44.0450287
11
-18.5499992
21
43.7007252
0
LINE
8
0
10
-18.5499992
20
43.7007252
11
-18.5499992
21
43.6931381
0
LINE
8
0
10
-18.5499992
20
43.6931381
11
-18.5499992
21
43.3099893
0
LINE
8
0
10
-18.5499992
20
43.3099893
11
-18.5499992
21
43.3038826
0
LINE
8
0
10
-18.5499992
20
43.3038826
11
-18.5499992
21
42.9041413
0
LINE
8
0
10
-18.5499992
20
42.9041413
11
-18.5499992
21
42.8982468
0
LINE
8
0
10
-18.5499992
20
42.8982468
11
-18.5499992
21
42.5054128
0
LINE
8
0
10
-18.5499992
20
42.5054128
11
-18.5499992
21
42.4980927
0
LINE
8
0
10
-18.5499992
20
42.4980927
11
-18.5499992
21
42.1349335
0
LINE
8
0
10
-18.5499992
20
42.1349335
11
-18.5499992
21
42.125
0
LINE
8
0
10
-18.5499992
20
42.125
11
-18.5499992
21
41.8116879
0
LINE
8
0
10
-18.5499992
20
41.8116879
11
-18.5499992
21
41.7990761
0
LINE
8
0
10
-18.5499992
20
41.7990761
11
-18.5499992
21
41.5518315
0
LINE
8
0
10
-18.5499992
20
41.5518315
11
-18.5499992
21
41.5378952
0
LINE
8
0
10
-18.5499992
20
41.5378952
11
-18.5499992
21
40.6674348
0
LINE
8
0
10
-18.5499992
20
40.6674348
11
-18.5499992
21
40.5499992
0
LINE
8
0
10
-18.5499992
20
40.5499992
11
-15.8832864
21
40.5499992
0
LINE
8
0
10
-15.8832864
20
40.5499992
11
-15.8832864
21
40.5499992
0
ENDSEC
0
EOF
