0
SECTION
2
ENTITIES
0
LINE
8
0
10
-17.2440563
20
46.5
11
-15.5500002
21
46.5
0
LINE
8
0
10
-15.5500002
20
46.5
11
-15.5500002
21
46.0835457
0
LINE
8
0
10
-15.5500002
20
46.0835457
11
-15.5500002
21
44.563858
0
LINE
8
0
10
-15.5500002
20
44.563858
11
-15.5500002
21
44.55284
0
LINE
8
0
10
-15.5500002
20
44.55284
11
-15.5500002
21
44.3405762
0
LINE
8
0
10
-15.5500002
20
44.3405762
11
-15.5500002
21
44.3306819
0
LINE
8
0
10
-15.5500002
20
44.3306819
11
-15.5500002
21
44.0450287
0
LINE
8
0
10
-15.5500002
20
44.0450287
11
-15.5500002
21
44.0381162
0
LINE
8
0
10
-15.5500002
20
44.0381162
11
-15.5500002
21
43.6931381
0
LINE
8
0
10
-15.5500002
20
43.6931381
11
-15.5500002
21
43.6895966
0
LINE
8
0
10
-15.5500002
20
43.6895966
11
-15.5500002
21
43.3038826
0
LINE
8
0
10
-15.5500002
20
43.3038826
11
-15.5500002
21
43.3027152
0
LINE
8
0
10
-15.5500002
20
43.3027152
11
-15.5500002
21
42.8982468
0
LINE
8
0
10
-15.5500002
20
42.8982468
11
-15.5500002
21
42.897607
0
LINE
8
0
10
-15.5500002
20
42.897607
11
-15.5500002
21
42.4980927
0
LINE
8
0
10
-15.5500002
20
42.4980927
11
-15.5500002
21
42.4961038
0
LINE
8
0
10
-15.5500002
20
42.4961038
11
-15.5500002
21
42.125
0
LINE
8
0
10
-15.5500002
20
42.125
11
-15.5500002
21
42.1205688
0
LINE
8
0
10
-15.5500002
20
42.1205688
11
-15.5500002
21
41.7990761
0
LINE
8
0
10
-15.5500002
20
41.7990761
11
-15.5500002
21
41.7924184
0
LINE
8
0
10
-15.5500002
20
41.7924184
11
-15.5500002
21
41.5378952
0
LINE
8
0
10
-15.5500002
20
41.5378952
11
-15.5500002
21
41.5005958
0
LINE
8
0
10
-15.5500002
20
41.5005958
11
-15.5500002
21
40.5499992
0
LINE
8
0
10
-15.5500002
20
40.5499992
11
-15.8521741
21
40.5499992
0
LINE
8
0
10
-15.8521741
20
40.5499992
11
-18.5499992
21
40.5499992
0
LINE
8
0
10
-18.5499992
20
40.5499992
11
-18.5499992
21
40.6564722
0
LINE
8
0
10
-18.5499992
20
40.6564722
11
-18.5499992
21
41.5378952
0
LINE
8
0
10
-18.5499992
20
41.5378952
11
-18.5499992
21
41.5486659
0
LINE
8
0
10
-18.5499992
20
41.5486659
11
-18.5499992
21
41.7990761
0
LINE
8
0
10
-18.5499992
20
41.7990761
11
-18.5499992
21
41.8076237
0
LINE
8
0
10
-18.5499992
20
41.8076237
11
-18.5499992
21
42.125
0
LINE
8
0
10
-18.5499992
20
42.125
11
-18.5499992
21
42.1301813
0
LINE
8
0
10
-18.5499992
20
42.1301813
11
-18.5499992
21
42.4980927
0
LINE
8
0
10
-18.5499992
20
42.4980927
11
-18.5499992
21
42.5002523
0
LINE
8
0
10
-18.5499992
20
42.5002523
11
-18.5499992
21
42.8982468
0
LINE
8
0
10
-18.5499992
20
42.8982468
11
-18.5499992
21
42.8988969
0
LINE
8
0
10
-18.5499992
20
42.8988969
11
-18.5499992
21
43.3038826
0
LINE
8
0
10
-18.5499992
20
43.3038826
11
-18.5499992
21
43.3049944
0
LINE
8
0
10
-18.5499992
20
43.3049944
11
-18.5499992
21
43.6931381
0
LINE
8
0
10
-18.5499992
20
43.6931381
11
-18.5499992
21
43.6962858
0
LINE
8
0
10
-18.5499992
20
43.6962858
11
-18.5499992
21
44.0450287
0
LINE
8
0
10
-18.5499992
20
44.0450287
11
-18.5499992
21
44.0506906
0
LINE
8
0
10
-18.5499992
20
44.0506906
11
-18.5499992
21
44.3405762
0
LINE
8
0
10
-18.5499992
20
44.3405762
11
-18.5499992
21
44.3478211
0
LINE
8
0
10
-18.5499992
20
44.3478211
11
-18.5499992
21
44.563858
0
LINE
8
0
10
-18.5499992
20
44.563858
11
-18.5499992
21
44.5704779
0
LINE
8
0
10
-18.5499992
20
44.5704779
11
-18.5499992
21
44.7028275
0
LINE
8
0
10
-18.5499992
20
44.7028275
11
-18.5499992
21
44.7058268
0
LINE
8
0
10
-18.5499992
20
44.7058268
11
-18.5499992
21
44.75
0
LINE
8
0
10
-18.5499992
20
44.75
11
-18.5499992
21
44.8306561
0
LINE
8
0
10
-18.5499992
20
44.8306561
11
-18.5499992
21
46.5
0
LINE
8
0
10
-18.5499992
20
46.5
11
-17.2440563
21
46.5
0
LINE
8
0
10
-17.2440563
20
46.5
11
-17.2440563
21
46.5
0
LINE
8
0
10
-16.939356
20
5.50069323
11
-15.5500002
21
5.50069323
0
LINE
8
0
10
-15.5500002
20
5.50069323
11
-15.5500002
21
4.99882924
0
LINE
8
0
10
-15.5500002
20
4.99882924
11
-15.5500002
21
4.98136176
0
LINE
8
0
10
-15.5500002
20
4.98136176
11
-15.5500002
21
4.93393973
0
LINE
8
0
10
-15.5500002
20
4.93393973
11
-15.5500002
21
4.38530893
0
LINE
8
0
10
-15.5500002
20
4.38530893
11
-15.5500002
21
4.29240968
0
LINE
8
0
10
-15.5500002
20
4.29240968
11
-15.5500002
21
4.09966696
0
LINE
8
0
10
-15.5500002
20
4.09966696
11
-15.5500002
21
3.78008544
0
LINE
8
0
10
-15.5500002
20
3.78008544
11
-15.5500002
21
3.67172744
0
LINE
8
0
10
-15.5500002
20
3.67172744
11
-15.5500002
21
3.30966533
0
LINE
8
0
10
-15.5500002
20
3.30966533
11
-15.5500002
21
3.29219597
0
LINE
8
0
10
-15.5500002
20
3.29219597
11
-15.5500002
21
2.89688389
0
LINE
8
0
10
-15.5500002
20
2.89688389
11
-15.5500002
21
2.51047852
0
LINE
8
0
10
-15.5500002
20
2.51047852
11
-15.5500002
21
2.48803866
0
LINE
8
0
10
-15.5500002
20
2.48803866
11
-15.5500002
21
2.12924386
0
LINE
8
0
10
-15.5500002
20
2.12924386
11
-15.5500002
21
1.85254723
0
LINE
8
0
10
-15.5500002
20
1.85254723
11
-15.5500002
21
1.78140147
0
LINE
8
0
10
-15.5500002
20
1.78140147
11
-15.5500002
21
1.55604177
0
LINE
8
0
10
-15.5500002
20
1.55604177
11
-15.5500002
21
1.42196341
0
LINE
8
0
10
-15.5500002
20
1.42196341
11
-15.5500002
21
1.32300885
0
LINE
8
0
10
-15.5500002
20
1.32300885
11
-15.5500002
21
1.24410608
0
LINE
8
0
10
-15.5500002
20
1.24410608
11
-15.5500002
21
1.16746732
0
LINE
8
0
10
-15.5500002
20
1.16746732
11
-15.5500002
21
-0.176972679
0
LINE
8
0
10
-15.5500002
20
-0.176972679
11
-15.5500002
21
-0.374129166
0
LINE
8
0
10
-15.5500002
20
-0.374129166
11
-15.5500002
21
-0.505569949
0
LINE
8
0
10
-15.5500002
20
-0.505569949
11
-15.5500002
21
-0.58360604
0
LINE
8
0
10
-15.5500002
20
-0.58360604
11
-15.5500002
21
-1.10000002
0
LINE
8
0
10
-15.5500002
20
-1.10000002
11
-15.9295777
21
-1.10000002
0
LINE
8
0
10
-15.9295777
20
-1.10000002
11
-18.5499992
21
-1.10000002
0
LINE
8
0
10
-18.5499992
20
-1.10000002
11
-18.5499992
21
-0.210366679
0
LINE
8
0
10
-18.5499992
20
-0.210366679
11
-18.5499992
21
-0.177279897
0
LINE
8
0
10
-18.5499992
20
-0.177279897
11
-18.5499992
21
-0.0756392108
0
LINE
8
0
10
-18.5499992
20
-0.0756392108
11
-18.5499992
21
1.07687362
0
LINE
8
0
10
-18.5499992
20
1.07687362
11
-18.5499992
21
1.10840392
0
LINE
8
0
10
-18.5499992
20
1.10840392
11
-18.5499992
21
1.12562144
0
LINE
8
0
10
-18.5499992
20
1.12562144
11
-18.5499992
21
1.16746732
0
LINE
8
0
10
-18.5499992
20
1.16746732
11
-18.5499992
21
1.264955
0
LINE
8
0
10
-18.5499992
20
1.264955
11
-18.5499992
21
1.32300885
0
LINE
8
0
10
-18.5499992
20
1.32300885
11
-18.5499992
21
1.48760256
0
LINE
8
0
10
-18.5499992
20
1.48760256
11
-18.5499992
21
1.55604177
0
LINE
8
0
10
-18.5499992
20
1.55604177
11
-18.5499992
21
1.78140147
0
LINE
8
0
10
-18.5499992
20
1.78140147
11
-18.5499992
21
1.85254723
0
LINE
8
0
10
-18.5499992
20
1.85254723
11
-18.5499992
21
2.12924386
0
LINE
8
0
10
-18.5499992
20
2.12924386
11
-18.5499992
21
2.19355427
0
LINE
8
0
10
-18.5499992
20
2.19355427
11
-18.5499992
21
2.51047852
0
LINE
8
0
10
-18.5499992
20
2.51047852
11
-18.5499992
21
2.55778008
0
LINE
8
0
10
-18.5499992
20
2.55778008
11
-18.5499992
21
2.90916937
0
LINE
8
0
10
-18.5499992
20
2.90916937
11
-18.5499992
21
3.30966533
0
LINE
8
0
10
-18.5499992
20
3.30966533
11
-18.5499992
21
3.35697657
0
LINE
8
0
10
-18.5499992
20
3.35697657
11
-18.5499992
21
3.78008544
0
LINE
8
0
10
-18.5499992
20
3.78008544
11
-18.5499992
21
4.09966696
0
LINE
8
0
10
-18.5499992
20
4.09966696
11
-18.5499992
21
4.61370515
0
LINE
8
0
10
-18.5499992
20
4.61370515
11
-18.5499992
21
4.82925011
0
LINE
8
0
10
-18.5499992
20
4.82925011
11
-18.5499992
21
4.93393973
0
LINE
8
0
10
-18.5499992
20
4.93393973
11
-18.5499992
21
5.50069323
0
LINE
8
0
10
-18.5499992
20
5.50069323
11
-16.939356
21
5.50069323
0
LINE
8
0
10
-16.939356
20
5.50069323
11
-16.939356
21
5.50069323
0
LINE
8
0
10
-18.3291678
20
17.788455
11
-15.5500002
21
17.788455
0
LINE
8
0
10
-15.5500002
20
17.788455
11
-15.5500002
21
18.1785394
0
LINE
8
0
10
-15.5500002
20
18.1785394
11
-15.5500002
21
18.2227779
0
LINE
8
0
10
-15.5500002
20
18.2227779
11
-15.5500002
21
18.3153858
0
LINE
8
0
10
-15.5500002
20
18.3153858
11
-15.5500002
21
18.4590171
0
LINE
8
0
10
-15.5500002
20
18.4590171
11
-15.5500002
21
18.6254297
0
LINE
8
0
10
-15.5500002
20
18.6254297
11
-15.5500002
21
18.7606426
0
LINE
8
0
10
-15.5500002
20
18.7606426
11
-15.5500002
21
20.006058
0
LINE
8
0
10
-15.5500002
20
20.006058
11
-15.5500002
21
20.1953671
0
LINE
8
0
10
-15.5500002
20
20.1953671
11
-15.5500002
21
20.9732597
0
LINE
8
0
10
-15.5500002
20
20.9732597
11
-16.0104375
21
20.9732597
0
LINE
8
0
10
-16.0104375
20
20.9732597
11
-18.5499992
21
20.9732597
0
LINE
8
0
10
-18.5499992
20
20.9732597
11
-18.5499992
21
20.3415483
0
LINE
8
0
10
-18.5499992
20
20.3415483
11
-18.5499992
21
20.1953671
0
LINE
8
0
10
-18.5499992
20
20.1953671
11
-18.5499992
21
20.006058
0
LINE
8
0
10
-18.5499992
20
20.006058
11
-18.5499992
21
18.7606426
0
LINE
8
0
10
-18.5499992
20
18.7606426
11
-18.5499992
21
18.6254297
0
LINE
8
0
10
-18.5499992
20
18.6254297
11
-18.5499992
21
18.4590171
0
LINE
8
0
10
-18.5499992
20
18.4590171
11
-18.5499992
21
18.3153858
0
LINE
8
0
10
-18.5499992
20
18.3153858
11
-18.5499992
21
18.2227779
0
LINE
8
0
10
-18.5499992
20
18.2227779
11
-18.5499992
21
18.1785394
0
LINE
8
0
10
-18.5499992
20
18.1785394
11
-18.5499992
21
18.1682794
0
LINE
8
0
10
-18.5499992
20
18.1682794
11
-18.5499992
21
17.788455
0
LINE
8
0
10
-18.5499992
20
17.788455
11
-18.3291678
21
17.788455
0
LINE
8
0
10
-18.3291678
20
17.788455
11
-18.3291678
21
17.788455
0
ENDSEC
0
EOF
