0
SECTION
2
ENTITIES
0
LINE
8
0
10
-15.7899494
20
40.5499992
11
-15.5500002
21
40.5499992
0
LINE
8
0
10
-15.5500002
20
40.5499992
11
-15.5500002
21
41.5225211
0
LINE
8
0
10
-15.5500002
20
41.5225211
11
-15.5500002
21
41.5378952
0
LINE
8
0
10
-15.5500002
20
41.5378952
11
-15.5500002
21
41.7987496
0
LINE
8
0
10
-15.5500002
20
41.7987496
11
-15.5500002
21
41.7990761
0
LINE
8
0
10
-15.5500002
20
41.7990761
11
-15.5500002
21
41.8322613
0
LINE
8
0
10
-15.5500002
20
41.8322613
11
-15.8554572
21
41.8322613
0
LINE
8
0
10
-15.8554572
20
41.8322613
11
-18.5499992
21
41.8322613
0
LINE
8
0
10
-18.5499992
20
41.8322613
11
-18.5499992
21
41.7994952
0
LINE
8
0
10
-18.5499992
20
41.7994952
11
-18.5499992
21
41.7990761
0
LINE
8
0
10
-18.5499992
20
41.7990761
11
-18.5499992
21
41.5423347
0
LINE
8
0
10
-18.5499992
20
41.5423347
11
-18.5499992
21
41.5378952
0
LINE
8
0
10
-18.5499992
20
41.5378952
11
-18.5499992
21
40.6345469
0
LINE
8
0
10
-18.5499992
20
40.6345469
11
-18.5499992
21
40.5499992
0
LINE
8
0
10
-18.5499992
20
40.5499992
11
-15.7899494
21
40.5499992
0
LINE
8
0
10
-15.7899494
20
40.5499992
11
-15.7899494
21
40.5499992
0
LINE
8
0
10
-18.3880516
20
18.9818368
11
-15.5500002
21
18.9818368
0
LINE
8
0
10
-15.5500002
20
18.9818368
11
-15.5500002
21
18.6470873
0
LINE
8
0
10
-15.5500002
20
18.6470873
11
-15.5500002
21
18.3408655
0
LINE
8
0
10
-15.5500002
20
18.3408655
11
-15.5500002
21
18.1434256
0
LINE
8
0
10
-15.5500002
20
18.1434256
11
-15.5500002
21
18.049109
0
LINE
8
0
10
-15.5500002
20
18.049109
11
-15.5500002
21
17.2174496
0
LINE
8
0
10
-15.5500002
20
17.2174496
11
-18.0791868
21
17.2174496
0
LINE
8
0
10
-18.0791868
20
17.2174496
11
-18.5499992
21
17.2174496
0
LINE
8
0
10
-18.5499992
20
17.2174496
11
-18.5499992
21
18.0272349
0
LINE
8
0
10
-18.5499992
20
18.0272349
11
-18.5499992
21
18.049109
0
LINE
8
0
10
-18.5499992
20
18.049109
11
-18.5499992
21
18.1434256
0
LINE
8
0
10
-18.5499992
20
18.1434256
11
-18.5499992
21
18.3408655
0
LINE
8
0
10
-18.5499992
20
18.3408655
11
-18.5499992
21
18.6470873
0
LINE
8
0
10
-18.5499992
20
18.6470873
11
-18.5499992
21
18.9818368
0
LINE
8
0
10
-18.5499992
20
18.9818368
11
-18.3880516
21
18.9818368
0
LINE
8
0
10
-18.3880516
20
18.9818368
11
-18.3880516
21
18.9818368
0
LINE
8
0
10
-15.8554572
20
1.83226231
11
-15.5500002
21
1.83226231
0
LINE
8
0
10
-15.5500002
20
1.83226231
11
-15.5500002
21
1.80169905
0
LINE
8
0
10
-15.5500002
20
1.80169905
11
-15.5500002
21
1.79821043
0
LINE
8
0
10
-15.5500002
20
1.79821043
11
-15.5500002
21
1.54537551
0
LINE
8
0
10
-15.5500002
20
1.54537551
11
-15.5500002
21
1.39495069
0
LINE
8
0
10
-15.5500002
20
1.39495069
11
-15.5500002
21
1.33623717
0
LINE
8
0
10
-15.5500002
20
1.33623717
11
-15.5500002
21
1.24950361
0
LINE
8
0
10
-15.5500002
20
1.24950361
11
-15.5500002
21
1.19620019
0
LINE
8
0
10
-15.5500002
20
1.19620019
11
-15.5500002
21
-0.25999729
0
LINE
8
0
10
-15.5500002
20
-0.25999729
11
-15.5500002
21
-0.439419913
0
LINE
8
0
10
-15.5500002
20
-0.439419913
11
-15.5500002
21
-0.55903784
0
LINE
8
0
10
-15.5500002
20
-0.55903784
11
-15.5500002
21
-0.630054728
0
LINE
8
0
10
-15.5500002
20
-0.630054728
11
-15.5500002
21
-1.10000002
0
LINE
8
0
10
-15.5500002
20
-1.10000002
11
-15.8954354
21
-1.10000002
0
LINE
8
0
10
-15.8954354
20
-1.10000002
11
-18.5499992
21
-1.10000002
0
LINE
8
0
10
-18.5499992
20
-1.10000002
11
-18.5499992
21
-0.233625067
0
LINE
8
0
10
-18.5499992
20
-0.233625067
11
-18.5499992
21
-0.201403299
0
LINE
8
0
10
-18.5499992
20
-0.201403299
11
-18.5499992
21
-0.102419886
0
LINE
8
0
10
-18.5499992
20
-0.102419886
11
-18.5499992
21
1.12163321
0
LINE
8
0
10
-18.5499992
20
1.12163321
11
-18.5499992
21
1.1551207
0
LINE
8
0
10
-18.5499992
20
1.1551207
11
-18.5499992
21
1.16709574
0
LINE
8
0
10
-18.5499992
20
1.16709574
11
-18.5499992
21
1.19620019
0
LINE
8
0
10
-18.5499992
20
1.19620019
11
-18.5499992
21
1.30179159
0
LINE
8
0
10
-18.5499992
20
1.30179159
11
-18.5499992
21
1.33623717
0
LINE
8
0
10
-18.5499992
20
1.33623717
11
-18.5499992
21
1.51716614
0
LINE
8
0
10
-18.5499992
20
1.51716614
11
-18.5499992
21
1.54537551
0
LINE
8
0
10
-18.5499992
20
1.54537551
11
-18.5499992
21
1.79821043
0
LINE
8
0
10
-18.5499992
20
1.79821043
11
-18.5499992
21
1.80169905
0
LINE
8
0
10
-18.5499992
20
1.80169905
11
-18.5499992
21
1.83226231
0
LINE
8
0
10
-18.5499992
20
1.83226231
11
-15.8554572
21
1.83226231
0
LINE
8
0
10
-15.8554572
20
1.83226231
11
-15.8554572
21
1.83226231
0
LINE
8
0
10
-15.7119479
20
19.0181632
11
-15.5500002
21
19.0181632
0
LINE
8
0
10
-15.5500002
20
19.0181632
11
-15.5500002
21
19.2901527
0
LINE
8
0
10
-15.5500002
20
19.2901527
11
-15.5500002
21
19.390317
0
LINE
8
0
10
-15.5500002
20
19.390317
11
-15.5500002
21
19.7939239
0
LINE
8
0
10
-15.5500002
20
19.7939239
11
-15.5500002
21
20.0688443
0
LINE
8
0
10
-15.5500002
20
20.0688443
11
-15.5500002
21
20.4672246
0
LINE
8
0
10
-15.5500002
20
20.4672246
11
-15.5500002
21
20.6958318
0
LINE
8
0
10
-15.5500002
20
20.6958318
11
-15.5500002
21
20.8155956
0
LINE
8
0
10
-15.5500002
20
20.8155956
11
-15.5500002
21
20.8724738
0
LINE
8
0
10
-15.5500002
20
20.8724738
11
-15.5500002
21
21.0499992
0
LINE
8
0
10
-15.5500002
20
21.0499992
11
-15.9214378
21
21.0499992
0
LINE
8
0
10
-15.9214378
20
21.0499992
11
-18.5499992
21
21.0499992
0
LINE
8
0
10
-18.5499992
20
21.0499992
11
-18.5499992
21
20.8724738
0
LINE
8
0
10
-18.5499992
20
20.8724738
11
-18.5499992
21
20.8155956
0
LINE
8
0
10
-18.5499992
20
20.8155956
11
-18.5499992
21
20.6958318
0
LINE
8
0
10
-18.5499992
20
20.6958318
11
-18.5499992
21
20.4672246
0
LINE
8
0
10
-18.5499992
20
20.4672246
11
-18.5499992
21
20.105582
0
LINE
8
0
10
-18.5499992
20
20.105582
11
-18.5499992
21
19.7939239
0
LINE
8
0
10
-18.5499992
20
19.7939239
11
-18.5499992
21
19.390317
0
LINE
8
0
10
-18.5499992
20
19.390317
11
-18.5499992
21
19.2901527
0
LINE
8
0
10
-18.5499992
20
19.2901527
11
-18.5499992
21
19.0181632
0
LINE
8
0
10
-18.5499992
20
19.0181632
11
-15.7119479
21
19.0181632
0
LINE
8
0
10
-15.7119479
20
19.0181632
11
-15.7119479
21
19.0181632
0
LINE
8
0
10
-15.6910554
20
5.9000001
11
-15.5500002
21
5.9000001
0
LINE
8
0
10
-15.5500002
20
5.9000001
11
-15.5500002
21
5.72102328
0
LINE
8
0
10
-15.5500002
20
5.72102328
11
-15.5500002
21
4.93172786
0
LINE
8
0
10
-15.5500002
20
4.93172786
11
-15.5500002
21
4.88417451
0
LINE
8
0
10
-15.5500002
20
4.88417451
11
-15.5500002
21
4.75507305
0
LINE
8
0
10
-15.5500002
20
4.75507305
11
-15.5500002
21
4.47160402
0
LINE
8
0
10
-15.5500002
20
4.47160402
11
-15.5500002
21
4.32781401
0
LINE
8
0
10
-15.5500002
20
4.32781401
11
-15.5500002
21
4.15749359
0
LINE
8
0
10
-15.5500002
20
4.15749359
11
-16.6915925
21
4.15749359
0
LINE
8
0
10
-16.6915925
20
4.15749359
11
-18.5499992
21
4.15749359
0
LINE
8
0
10
-18.5499992
20
4.15749359
11
-18.5499992
21
4.47006663
0
LINE
8
0
10
-18.5499992
20
4.47006663
11
-18.5499992
21
4.75507305
0
LINE
8
0
10
-18.5499992
20
4.75507305
11
-18.5499992
21
5.47469298
0
LINE
8
0
10
-18.5499992
20
5.47469298
11
-18.5499992
21
5.64732671
0
LINE
8
0
10
-18.5499992
20
5.64732671
11
-18.5499992
21
5.72102328
0
LINE
8
0
10
-18.5499992
20
5.72102328
11
-18.5499992
21
5.75243444
0
LINE
8
0
10
-18.5499992
20
5.75243444
11
-18.5499992
21
5.9000001
0
LINE
8
0
10
-18.5499992
20
5.9000001
11
-15.6910554
21
5.9000001
0
LINE
8
0
10
-15.6910554
20
5.9000001
11
-15.6910554
21
5.9000001
0
LINE
8
0
10
-17.2781986
20
46.5
11
-15.5500002
21
46.5
0
LINE
8
0
10
-15.5500002
20
46.5
11
-15.5500002
21
46.121005
0
LINE
8
0
10
-15.5500002
20
46.121005
11
-15.5500002
21
44.563858
0
LINE
8
0
10
-15.5500002
20
44.563858
11
-15.5500002
21
44.5581652
0
LINE
8
0
10
-15.5500002
20
44.5581652
11
-15.5500002
21
44.3405762
0
LINE
8
0
10
-15.5500002
20
44.3405762
11
-15.5500002
21
44.3379544
0
LINE
8
0
10
-15.5500002
20
44.3379544
11
-15.5500002
21
44.1574936
0
LINE
8
0
10
-15.5500002
20
44.1574936
11
-16.6915925
21
44.1574936
0
LINE
8
0
10
-16.6915925
20
44.1574936
11
-18.5499992
21
44.1574936
0
LINE
8
0
10
-18.5499992
20
44.1574936
11
-18.5499992
21
44.3405762
0
LINE
8
0
10
-18.5499992
20
44.3405762
11
-18.5499992
21
44.3424959
0
LINE
8
0
10
-18.5499992
20
44.3424959
11
-18.5499992
21
44.563858
0
LINE
8
0
10
-18.5499992
20
44.563858
11
-18.5499992
21
44.5672784
0
LINE
8
0
10
-18.5499992
20
44.5672784
11
-18.5499992
21
44.7028275
0
LINE
8
0
10
-18.5499992
20
44.7028275
11
-18.5499992
21
44.7047803
0
LINE
8
0
10
-18.5499992
20
44.7047803
11
-18.5499992
21
44.75
0
LINE
8
0
10
-18.5499992
20
44.75
11
-18.5499992
21
44.8089057
0
LINE
8
0
10
-18.5499992
20
44.8089057
11
-18.5499992
21
46.5
0
LINE
8
0
10
-18.5499992
20
46.5
11
-17.2781986
21
46.5
0
LINE
8
0
10
-17.2781986
20
46.5
11
-17.2781986
21
46.5
0
ENDSEC
0
EOF
