0
SECTION
2
ENTITIES
0
LINE
8
0
10
-15.5775879
20
17.7454913
11
-15.5500002
21
17.7454913
0
LINE
8
0
10
-15.5500002
20
17.7454913
11
-15.5500002
21
17.3982873
0
LINE
8
0
10
-15.5500002
20
17.3982873
11
-15.5500002
21
16.0754386
0
LINE
8
0
10
-15.5500002
20
16.0754386
11
-17.5792248
21
16.0754386
0
LINE
8
0
10
-17.5792248
20
16.0754386
11
-18.5499992
21
16.0754386
0
LINE
8
0
10
-18.5499992
20
16.0754386
11
-18.5499992
21
17.7451458
0
LINE
8
0
10
-18.5499992
20
17.7451458
11
-18.5499992
21
17.7454913
0
LINE
8
0
10
-18.5499992
20
17.7454913
11
-15.5775879
21
17.7454913
0
LINE
8
0
10
-15.5775879
20
17.7454913
11
-15.5775879
21
17.7454913
0
LINE
8
0
10
-17.3464832
20
46.5
11
-15.5500002
21
46.5
0
LINE
8
0
10
-15.5500002
20
46.5
11
-15.5500002
21
46.1959236
0
LINE
8
0
10
-15.5500002
20
46.1959236
11
-15.5500002
21
44.7630593
0
LINE
8
0
10
-15.5500002
20
44.7630593
11
-15.5500002
21
44.7320243
0
LINE
8
0
10
-15.5500002
20
44.7320243
11
-15.5500002
21
44.710335
0
LINE
8
0
10
-15.5500002
20
44.710335
11
-16.0274521
21
44.710335
0
LINE
8
0
10
-16.0274521
20
44.710335
11
-18.5499992
21
44.710335
0
LINE
8
0
10
-18.5499992
20
44.710335
11
-18.5499992
21
44.75
0
LINE
8
0
10
-18.5499992
20
44.75
11
-18.5499992
21
44.7654049
0
LINE
8
0
10
-18.5499992
20
44.7654049
11
-18.5499992
21
46.5
0
LINE
8
0
10
-18.5499992
20
46.5
11
-17.3464832
21
46.5
0
LINE
8
0
10
-17.3464832
20
46.5
11
-17.3464832
21
46.5
0
LINE
8
0
10
-16.5833467
20
41.2941095
11
-15.5500002
21
41.2941095
0
LINE
8
0
10
-15.5500002
20
41.2941095
11
-15.5500002
21
41.1737535
0
LINE
8
0
10
-15.5500002
20
41.1737535
11
-15.5500002
21
41.1312112
0
LINE
8
0
10
-15.5500002
20
41.1312112
11
-15.5500002
21
40.5499992
0
LINE
8
0
10
-15.5500002
20
40.5499992
11
-15.6654999
21
40.5499992
0
LINE
8
0
10
-15.6654999
20
40.5499992
11
-18.5499992
21
40.5499992
0
LINE
8
0
10
-18.5499992
20
40.5499992
11
-18.5499992
21
40.5906963
0
LINE
8
0
10
-18.5499992
20
40.5906963
11
-18.5499992
21
41.1312112
0
LINE
8
0
10
-18.5499992
20
41.1312112
11
-18.5499992
21
41.1737535
0
LINE
8
0
10
-18.5499992
20
41.1737535
11
-18.5499992
21
41.2941095
0
LINE
8
0
10
-18.5499992
20
41.2941095
11
-16.5833467
21
41.2941095
0
LINE
8
0
10
-16.5833467
20
41.2941095
11
-16.5833467
21
41.2941095
0
LINE
8
0
10
-16.5833467
20
1.29410944
11
-15.5500002
21
1.29410944
0
LINE
8
0
10
-15.5500002
20
1.29410944
11
-15.5500002
21
1.26029866
0
LINE
8
0
10
-15.5500002
20
1.26029866
11
-15.5500002
21
1.25366593
0
LINE
8
0
10
-15.5500002
20
1.25366593
11
-15.5500002
21
-0.426046512
0
LINE
8
0
10
-15.5500002
20
-0.426046512
11
-15.5500002
21
-0.570001409
0
LINE
8
0
10
-15.5500002
20
-0.570001409
11
-15.5500002
21
-0.665973623
0
LINE
8
0
10
-15.5500002
20
-0.665973623
11
-15.5500002
21
-0.722952105
0
LINE
8
0
10
-15.5500002
20
-0.722952105
11
-15.5500002
21
-1.10000002
0
LINE
8
0
10
-15.5500002
20
-1.10000002
11
-15.8271508
21
-1.10000002
0
LINE
8
0
10
-15.8271508
20
-1.10000002
11
-18.5499992
21
-1.10000002
0
LINE
8
0
10
-18.5499992
20
-1.10000002
11
-18.5499992
21
-0.280141843
0
LINE
8
0
10
-18.5499992
20
-0.280141843
11
-18.5499992
21
-0.249650103
0
LINE
8
0
10
-18.5499992
20
-0.249650103
11
-18.5499992
21
-0.155981235
0
LINE
8
0
10
-18.5499992
20
-0.155981235
11
-18.5499992
21
1.21115239
0
LINE
8
0
10
-18.5499992
20
1.21115239
11
-18.5499992
21
1.24855426
0
LINE
8
0
10
-18.5499992
20
1.24855426
11
-18.5499992
21
1.25004436
0
LINE
8
0
10
-18.5499992
20
1.25004436
11
-18.5499992
21
1.25366593
0
LINE
8
0
10
-18.5499992
20
1.25366593
11
-18.5499992
21
1.29410944
0
LINE
8
0
10
-18.5499992
20
1.29410944
11
-16.5833467
21
1.29410944
0
LINE
8
0
10
-16.5833467
20
1.29410944
11
-16.5833467
21
1.29410944
0
LINE
8
0
10
-16.805986
20
21.0499992
11
-15.5500002
21
21.0499992
0
LINE
8
0
10
-15.5500002
20
21.0499992
11
-15.5500002
21
20.4497117
0
LINE
8
0
10
-15.5500002
20
20.4497117
11
-15.5500002
21
20.2573825
0
LINE
8
0
10
-15.5500002
20
20.2573825
11
-15.5500002
21
20.2545087
0
LINE
8
0
10
-15.5500002
20
20.2545087
11
-18.5224115
21
20.2545087
0
LINE
8
0
10
-18.5224115
20
20.2545087
11
-18.5499992
21
20.2545087
0
LINE
8
0
10
-18.5499992
20
20.2545087
11
-18.5499992
21
20.2573825
0
LINE
8
0
10
-18.5499992
20
20.2573825
11
-18.5499992
21
20.4497117
0
LINE
8
0
10
-18.5499992
20
20.4497117
11
-18.5499992
21
21.0499992
0
LINE
8
0
10
-18.5499992
20
21.0499992
11
-16.805986
21
21.0499992
0
LINE
8
0
10
-16.805986
20
21.0499992
11
-16.805986
21
21.0499992
0
LINE
8
0
10
-16.0274521
20
4.7103358
11
-15.5500002
21
4.7103358
0
LINE
8
0
10
-15.5500002
20
4.7103358
11
-15.5500002
21
4.79752511
0
LINE
8
0
10
-15.5500002
20
4.79752511
11
-15.5500002
21
5.00394008
0
LINE
8
0
10
-15.5500002
20
5.00394008
11
-15.5500002
21
5.9000001
0
LINE
8
0
10
-15.5500002
20
5.9000001
11
-16.2562028
21
5.9000001
0
LINE
8
0
10
-16.2562028
20
5.9000001
11
-18.5499992
21
5.9000001
0
LINE
8
0
10
-18.5499992
20
5.9000001
11
-18.5499992
21
5.16120226
0
LINE
8
0
10
-18.5499992
20
5.16120226
11
-18.5499992
21
5.00394008
0
LINE
8
0
10
-18.5499992
20
5.00394008
11
-18.5499992
21
4.7103358
0
LINE
8
0
10
-18.5499992
20
4.7103358
11
-16.0274521
21
4.7103358
0
LINE
8
0
10
-16.0274521
20
4.7103358
11
-16.0274521
21
4.7103358
0
ENDSEC
0
EOF
