0
SECTION
2
ENTITIES
0
LINE
8
0
10
-17.2482601
20
21.0499992
11
-15.5500002
21
21.0499992
0
LINE
8
0
10
-15.5500002
20
21.0499992
11
-15.5500002
21
20.3676358
0
LINE
8
0
10
-15.5500002
20
20.3676358
11
-15.5500002
21
20.2815966
0
LINE
8
0
10
-15.5500002
20
20.2815966
11
-16.7963317
21
20.2815966
0
LINE
8
0
10
-16.7963317
20
20.2815966
11
-18.5499992
21
20.2815966
0
LINE
8
0
10
-18.5499992
20
20.2815966
11
-18.5499992
21
20.3676358
0
LINE
8
0
10
-18.5499992
20
20.3676358
11
-18.5499992
21
21.0499992
0
LINE
8
0
10
-18.5499992
20
21.0499992
11
-17.2482601
21
21.0499992
0
LINE
8
0
10
-17.2482601
20
21.0499992
11
-17.2482601
21
21.0499992
0
LINE
8
0
10
-16.5387765
20
5.9000001
11
-15.5500002
21
5.9000001
0
LINE
8
0
10
-15.5500002
20
5.9000001
11
-15.5500002
21
4.79528159
0
LINE
8
0
10
-15.5500002
20
4.79528159
11
-15.5500002
21
4.73366175
0
LINE
8
0
10
-15.5500002
20
4.73366175
11
-16.5890731
21
4.73366175
0
LINE
8
0
10
-16.5890731
20
4.73366175
11
-18.5499992
21
4.73366175
0
LINE
8
0
10
-18.5499992
20
4.73366175
11
-18.5499992
21
4.86558617
0
LINE
8
0
10
-18.5499992
20
4.86558617
11
-18.5499992
21
5.9000001
0
LINE
8
0
10
-18.5499992
20
5.9000001
11
-16.5387765
21
5.9000001
0
LINE
8
0
10
-16.5387765
20
5.9000001
11
-16.5387765
21
5.9000001
0
LINE
8
0
10
-17.3806255
20
46.5
11
-15.5500002
21
46.5
0
LINE
8
0
10
-15.5500002
20
46.5
11
-15.5500002
21
46.2333829
0
LINE
8
0
10
-15.5500002
20
46.2333829
11
-15.5500002
21
44.9770337
0
LINE
8
0
10
-15.5500002
20
44.9770337
11
-15.5500002
21
44.9498219
0
LINE
8
0
10
-15.5500002
20
44.9498219
11
-15.5500002
21
44.8189068
0
LINE
8
0
10
-15.5500002
20
44.8189068
11
-15.5500002
21
44.7336614
0
LINE
8
0
10
-15.5500002
20
44.7336614
11
-16.5890731
21
44.7336614
0
LINE
8
0
10
-16.5890731
20
44.7336614
11
-18.5499992
21
44.7336614
0
LINE
8
0
10
-18.5499992
20
44.7336614
11
-18.5499992
21
44.7647806
0
LINE
8
0
10
-18.5499992
20
44.7647806
11
-18.5499992
21
46.5
0
LINE
8
0
10
-18.5499992
20
46.5
11
-17.3806255
21
46.5
0
LINE
8
0
10
-17.3806255
20
46.5
11
-17.3806255
21
46.5
0
LINE
8
0
10
-17.3036678
20
17.7184034
11
-15.5500002
21
17.7184034
0
LINE
8
0
10
-15.5500002
20
17.7184034
11
-15.5500002
21
17.4535229
0
LINE
8
0
10
-15.5500002
20
17.4535229
11
-15.5500002
21
16.9718048
0
LINE
8
0
10
-15.5500002
20
16.9718048
11
-15.5500002
21
16.6643196
0
LINE
8
0
10
-15.5500002
20
16.6643196
11
-15.5500002
21
15.5044332
0
LINE
8
0
10
-15.5500002
20
15.5044332
11
-17.3292437
21
15.5044332
0
LINE
8
0
10
-17.3292437
20
15.5044332
11
-18.5499992
21
15.5044332
0
LINE
8
0
10
-18.5499992
20
15.5044332
11
-18.5499992
21
16.9718048
0
LINE
8
0
10
-18.5499992
20
16.9718048
11
-18.5499992
21
17.4535229
0
LINE
8
0
10
-18.5499992
20
17.4535229
11
-18.5499992
21
17.7184034
0
LINE
8
0
10
-18.5499992
20
17.7184034
11
-17.3036678
21
17.7184034
0
LINE
8
0
10
-17.3036678
20
17.7184034
11
-17.3036678
21
17.7184034
0
LINE
8
0
10
-15.5500002
20
-0.509071122
11
-15.5500002
21
1.04602081
0
LINE
8
0
10
-15.5500002
20
1.04602081
11
-15.5500002
21
1.26183283
0
LINE
8
0
10
-15.5500002
20
1.26183283
11
-16.0179505
21
1.26183283
0
LINE
8
0
10
-16.0179505
20
1.26183283
11
-18.5499992
21
1.26183283
0
LINE
8
0
10
-18.5499992
20
1.26183283
11
-18.5499992
21
1.25591199
0
LINE
8
0
10
-18.5499992
20
1.25591199
11
-18.5499992
21
-0.18276191
0
LINE
8
0
10
-18.5499992
20
-0.18276191
11
-18.5499992
21
-0.273773505
0
LINE
8
0
10
-18.5499992
20
-0.273773505
11
-18.5499992
21
-0.303400231
0
LINE
8
0
10
-18.5499992
20
-0.303400231
11
-18.5499992
21
-1.10000002
0
LINE
8
0
10
-18.5499992
20
-1.10000002
11
-15.7930085
21
-1.10000002
0
LINE
8
0
10
-15.7930085
20
-1.10000002
11
-15.5500002
21
-1.10000002
0
LINE
8
0
10
-15.5500002
20
-1.10000002
11
-15.5500002
21
-0.769400794
0
LINE
8
0
10
-15.5500002
20
-0.769400794
11
-15.5500002
21
-0.719441514
0
LINE
8
0
10
-15.5500002
20
-0.719441514
11
-15.5500002
21
-0.635292157
0
LINE
8
0
10
-15.5500002
20
-0.635292157
11
-15.5500002
21
-0.509071122
0
LINE
8
0
10
-15.5500002
20
-0.509071122
11
-15.5500002
21
-0.509071122
0
LINE
8
0
10
-15.5500002
20
40.8377101
11
-15.5500002
21
40.9377072
0
LINE
8
0
10
-15.5500002
20
40.9377072
11
-15.5500002
21
41.2618332
0
LINE
8
0
10
-15.5500002
20
41.2618332
11
-16.0179505
21
41.2618332
0
LINE
8
0
10
-16.0179505
20
41.2618332
11
-18.5499992
21
41.2618332
0
LINE
8
0
10
-18.5499992
20
41.2618332
11
-18.5499992
21
40.9377072
0
LINE
8
0
10
-18.5499992
20
40.9377072
11
-18.5499992
21
40.8377101
0
LINE
8
0
10
-18.5499992
20
40.8377101
11
-18.5499992
21
40.8180872
0
LINE
8
0
10
-18.5499992
20
40.8180872
11
-18.5499992
21
40.568771
0
LINE
8
0
10
-18.5499992
20
40.568771
11
-18.5499992
21
40.5499992
0
LINE
8
0
10
-18.5499992
20
40.5499992
11
-15.6032752
21
40.5499992
0
LINE
8
0
10
-15.6032752
20
40.5499992
11
-15.5500002
21
40.5499992
0
LINE
8
0
10
-15.5500002
20
40.5499992
11
-15.5500002
21
40.8180872
0
LINE
8
0
10
-15.5500002
20
40.8180872
11
-15.5500002
21
40.8377101
0
LINE
8
0
10
-15.5500002
20
40.8377101
11
-15.5500002
21
40.8377101
0
ENDSEC
0
EOF
