0
SECTION
2
ENTITIES
0
LINE
8
0
10
-16.9542722
20
14.647925
11
-15.5500002
21
14.647925
0
LINE
8
0
10
-15.5500002
20
14.647925
11
-15.5500002
21
15.563368
0
LINE
8
0
10
-15.5500002
20
15.563368
11
-15.5500002
21
15.8060514
0
LINE
8
0
10
-15.5500002
20
15.8060514
11
-15.5500002
21
16.1862485
0
LINE
8
0
10
-15.5500002
20
16.1862485
11
-15.5500002
21
16.7202622
0
LINE
8
0
10
-15.5500002
20
16.7202622
11
-15.5500002
21
17.4116414
0
LINE
8
0
10
-15.5500002
20
17.4116414
11
-15.5500002
21
18.0341374
0
LINE
8
0
10
-15.5500002
20
18.0341374
11
-16.2270306
21
18.0341374
0
LINE
8
0
10
-16.2270306
20
18.0341374
11
-18.5499992
21
18.0341374
0
LINE
8
0
10
-18.5499992
20
18.0341374
11
-18.5499992
21
17.4116414
0
LINE
8
0
10
-18.5499992
20
17.4116414
11
-18.5499992
21
16.7202622
0
LINE
8
0
10
-18.5499992
20
16.7202622
11
-18.5499992
21
16.1862485
0
LINE
8
0
10
-18.5499992
20
16.1862485
11
-18.5499992
21
15.8060514
0
LINE
8
0
10
-18.5499992
20
15.8060514
11
-18.5499992
21
14.647925
0
LINE
8
0
10
-18.5499992
20
14.647925
11
-16.9542722
21
14.647925
0
LINE
8
0
10
-16.9542722
20
14.647925
11
-16.9542722
21
14.647925
0
LINE
8
0
10
-17.9116712
20
21.0499992
11
-15.5500002
21
21.0499992
0
LINE
8
0
10
-15.5500002
20
21.0499992
11
-15.5500002
21
20.7153917
0
LINE
8
0
10
-15.5500002
20
20.7153917
11
-15.5500002
21
20.5973766
0
LINE
8
0
10
-15.5500002
20
20.5973766
11
-15.5500002
21
20.3399095
0
LINE
8
0
10
-15.5500002
20
20.3399095
11
-15.5500002
21
19.9658626
0
LINE
8
0
10
-15.5500002
20
19.9658626
11
-17.8729688
21
19.9658626
0
LINE
8
0
10
-17.8729688
20
19.9658626
11
-18.5499992
21
19.9658626
0
LINE
8
0
10
-18.5499992
20
19.9658626
11
-18.5499992
21
20.3399095
0
LINE
8
0
10
-18.5499992
20
20.3399095
11
-18.5499992
21
20.5973766
0
LINE
8
0
10
-18.5499992
20
20.5973766
11
-18.5499992
21
20.7153917
0
LINE
8
0
10
-18.5499992
20
20.7153917
11
-18.5499992
21
21.0499992
0
LINE
8
0
10
-18.5499992
20
21.0499992
11
-17.9116712
21
21.0499992
0
LINE
8
0
10
-17.9116712
20
21.0499992
11
-17.9116712
21
21.0499992
0
LINE
8
0
10
-16.4754331
20
28.2415215
11
-15.5500002
21
28.2415215
0
LINE
8
0
10
-15.5500002
20
28.2415215
11
-15.5500002
21
36.5397886
0
LINE
8
0
10
-15.5500002
20
36.5397886
11
-15.5500002
21
41.0531895
0
LINE
8
0
10
-15.5500002
20
41.0531895
11
-15.5500002
21
41.0830061
0
LINE
8
0
10
-15.5500002
20
41.0830061
11
-15.5500002
21
41.2903155
0
LINE
8
0
10
-15.5500002
20
41.2903155
11
-15.5500002
21
41.4860852
0
LINE
8
0
10
-15.5500002
20
41.4860852
11
-16.4023358
21
41.4860852
0
LINE
8
0
10
-16.4023358
20
41.4860852
11
-18.5499992
21
41.4860852
0
LINE
8
0
10
-18.5499992
20
41.4860852
11
-18.5499992
21
41.2903155
0
LINE
8
0
10
-18.5499992
20
41.2903155
11
-18.5499992
21
41.0830061
0
LINE
8
0
10
-18.5499992
20
41.0830061
11
-18.5499992
21
40.5309273
0
LINE
8
0
10
-18.5499992
20
40.5309273
11
-18.5499992
21
28.9470435
0
LINE
8
0
10
-18.5499992
20
28.9470435
11
-18.5499992
21
28.2415215
0
LINE
8
0
10
-18.5499992
20
28.2415215
11
-16.4754331
21
28.2415215
0
LINE
8
0
10
-16.4754331
20
28.2415215
11
-16.4754331
21
28.2415215
0
LINE
8
0
10
-16.1958074
20
4.5157919
11
-15.5500002
21
4.5157919
0
LINE
8
0
10
-15.5500002
20
4.5157919
11
-15.5500002
21
4.59917667
0
LINE
8
0
10
-15.5500002
20
4.59917667
11
-15.5500002
21
4.87591183
0
LINE
8
0
10
-15.5500002
20
4.87591183
11
-15.5500002
21
5.02809849
0
LINE
8
0
10
-15.5500002
20
5.02809849
11
-15.5500002
21
5.9000001
0
LINE
8
0
10
-15.5500002
20
5.9000001
11
-16.9626371
21
5.9000001
0
LINE
8
0
10
-16.9626371
20
5.9000001
11
-18.5499992
21
5.9000001
0
LINE
8
0
10
-18.5499992
20
5.9000001
11
-18.5499992
21
4.87591183
0
LINE
8
0
10
-18.5499992
20
4.87591183
11
-18.5499992
21
4.59917667
0
LINE
8
0
10
-18.5499992
20
4.59917667
11
-18.5499992
21
4.5157919
0
LINE
8
0
10
-18.5499992
20
4.5157919
11
-16.1958074
21
4.5157919
0
LINE
8
0
10
-16.1958074
20
4.5157919
11
-16.1958074
21
4.5157919
0
LINE
8
0
10
-16.1958074
20
44.5157923
11
-15.5500002
21
44.5157923
0
LINE
8
0
10
-15.5500002
20
44.5157923
11
-15.5500002
21
44.615038
0
LINE
8
0
10
-15.5500002
20
44.615038
11
-15.5500002
21
44.9626572
0
LINE
8
0
10
-15.5500002
20
44.9626572
11
-15.5500002
21
45.1731933
0
LINE
8
0
10
-15.5500002
20
45.1731933
11
-15.5500002
21
45.2765184
0
LINE
8
0
10
-15.5500002
20
45.2765184
11
-15.5500002
21
45.2979954
0
LINE
8
0
10
-15.5500002
20
45.2979954
11
-15.5500002
21
46.2895719
0
LINE
8
0
10
-15.5500002
20
46.2895719
11
-15.5500002
21
46.5
0
LINE
8
0
10
-15.5500002
20
46.5
11
-17.4318389
21
46.5
0
LINE
8
0
10
-17.4318389
20
46.5
11
-18.5499992
21
46.5
0
LINE
8
0
10
-18.5499992
20
46.5
11
-18.5499992
21
44.8407756
0
LINE
8
0
10
-18.5499992
20
44.8407756
11
-18.5499992
21
44.75346
0
LINE
8
0
10
-18.5499992
20
44.75346
11
-18.5499992
21
44.5728333
0
LINE
8
0
10
-18.5499992
20
44.5728333
11
-18.5499992
21
44.5157923
0
LINE
8
0
10
-18.5499992
20
44.5157923
11
-16.1958074
21
44.5157923
0
LINE
8
0
10
-16.1958074
20
44.5157923
11
-16.1958074
21
44.5157923
0
LINE
8
0
10
-15.5500002
20
1.13927292
11
-15.5500002
21
0.799382531
0
LINE
8
0
10
-15.5500002
20
0.799382531
11
-15.5500002
21
0.593751819
0
LINE
8
0
10
-15.5500002
20
0.593751819
11
-15.5500002
21
-0.633608039
0
LINE
8
0
10
-15.5500002
20
-0.633608039
11
-15.5500002
21
-0.733228278
0
LINE
8
0
10
-15.5500002
20
-0.733228278
11
-15.5500002
21
-0.799643351
0
LINE
8
0
10
-15.5500002
20
-0.799643351
11
-15.5500002
21
-0.839073826
0
LINE
8
0
10
-15.5500002
20
-0.839073826
11
-15.5500002
21
-1.10000002
0
LINE
8
0
10
-15.5500002
20
-1.10000002
11
-15.7417951
21
-1.10000002
0
LINE
8
0
10
-15.7417951
20
-1.10000002
11
-18.5499992
21
-1.10000002
0
LINE
8
0
10
-18.5499992
20
-1.10000002
11
-18.5499992
21
-0.338287814
0
LINE
8
0
10
-18.5499992
20
-0.338287814
11
-18.5499992
21
-0.309958608
0
LINE
8
0
10
-18.5499992
20
-0.309958608
11
-18.5499992
21
-0.222932922
0
LINE
8
0
10
-18.5499992
20
-0.222932922
11
-18.5499992
21
1.16715114
0
LINE
8
0
10
-18.5499992
20
1.16715114
11
-18.5499992
21
1.31552285
0
LINE
8
0
10
-18.5499992
20
1.31552285
11
-18.5499992
21
1.48608608
0
LINE
8
0
10
-18.5499992
20
1.48608608
11
-16.4023358
21
1.48608608
0
LINE
8
0
10
-16.4023358
20
1.48608608
11
-15.5500002
21
1.48608608
0
LINE
8
0
10
-15.5500002
20
1.48608608
11
-15.5500002
21
1.13927292
0
LINE
8
0
10
-15.5500002
20
1.13927292
11
-15.5500002
21
1.13927292
0
ENDSEC
0
EOF
