0
SECTION
2
ENTITIES
0
LINE
8
0
10
-17.4489101
20
46.5
11
-15.5500002
21
46.5
0
LINE
8
0
10
-15.5500002
20
46.5
11
-15.5500002
21
46.3083015
0
LINE
8
0
10
-15.5500002
20
46.3083015
11
-15.5500002
21
45.4049826
0
LINE
8
0
10
-15.5500002
20
45.4049826
11
-15.5500002
21
45.3854172
0
LINE
8
0
10
-15.5500002
20
45.3854172
11
-15.5500002
21
45.2912888
0
LINE
8
0
10
-15.5500002
20
45.2912888
11
-15.5500002
21
45.0994919
0
LINE
8
0
10
-15.5500002
20
45.0994919
11
-15.5500002
21
44.7828134
0
LINE
8
0
10
-15.5500002
20
44.7828134
11
-15.5500002
21
44.3582259
0
LINE
8
0
10
-15.5500002
20
44.3582259
11
-18.3128587
21
44.3582259
0
LINE
8
0
10
-18.3128587
20
44.3582259
11
-18.5499992
21
44.3582259
0
LINE
8
0
10
-18.5499992
20
44.3582259
11
-18.5499992
21
44.6022557
0
LINE
8
0
10
-18.5499992
20
44.6022557
11
-18.5499992
21
44.7801247
0
LINE
8
0
10
-18.5499992
20
44.7801247
11
-18.5499992
21
44.8661073
0
LINE
8
0
10
-18.5499992
20
44.8661073
11
-18.5499992
21
46.5
0
LINE
8
0
10
-18.5499992
20
46.5
11
-17.4489101
21
46.5
0
LINE
8
0
10
-17.4489101
20
46.5
11
-17.4489101
21
46.5
0
LINE
8
0
10
-16.8292817
20
14.3624222
11
-15.5500002
21
14.3624222
0
LINE
8
0
10
-15.5500002
20
14.3624222
11
-15.5500002
21
15.1963841
0
LINE
8
0
10
-15.5500002
20
15.1963841
11
-15.5500002
21
15.4174669
0
LINE
8
0
10
-15.5500002
20
15.4174669
11
-15.5500002
21
15.7638237
0
LINE
8
0
10
-15.5500002
20
15.7638237
11
-15.5500002
21
16.2503062
0
LINE
8
0
10
-15.5500002
20
16.2503062
11
-15.5500002
21
16.8801476
0
LINE
8
0
10
-15.5500002
20
16.8801476
11
-15.5500002
21
17.6294304
0
LINE
8
0
10
-15.5500002
20
17.6294304
11
-15.5500002
21
18.3137843
0
LINE
8
0
10
-15.5500002
20
18.3137843
11
-15.9535376
21
18.3137843
0
LINE
8
0
10
-15.9535376
20
18.3137843
11
-18.5499992
21
18.3137843
0
LINE
8
0
10
-18.5499992
20
18.3137843
11
-18.5499992
21
17.6294304
0
LINE
8
0
10
-18.5499992
20
17.6294304
11
-18.5499992
21
16.8801476
0
LINE
8
0
10
-18.5499992
20
16.8801476
11
-18.5499992
21
16.2503062
0
LINE
8
0
10
-18.5499992
20
16.2503062
11
-18.5499992
21
15.7638237
0
LINE
8
0
10
-18.5499992
20
15.7638237
11
-18.5499992
21
15.4174669
0
LINE
8
0
10
-18.5499992
20
15.4174669
11
-18.5499992
21
14.3624222
0
LINE
8
0
10
-18.5499992
20
14.3624222
11
-16.8292817
21
14.3624222
0
LINE
8
0
10
-16.8292817
20
14.3624222
11
-16.8292817
21
14.3624222
0
LINE
8
0
10
-17.2353293
20
1.65235186
11
-15.5500002
21
1.65235186
0
LINE
8
0
10
-15.5500002
20
1.65235186
11
-15.5500002
21
1.39888299
0
LINE
8
0
10
-15.5500002
20
1.39888299
11
-15.5500002
21
0.939961217
0
LINE
8
0
10
-15.5500002
20
0.939961217
11
-15.5500002
21
0.63032356
0
LINE
8
0
10
-15.5500002
20
0.63032356
11
-15.5500002
21
0.442995489
0
LINE
8
0
10
-15.5500002
20
0.442995489
11
-15.5500002
21
-0.675120344
0
LINE
8
0
10
-15.5500002
20
-0.675120344
11
-15.5500002
21
-0.765873652
0
LINE
8
0
10
-15.5500002
20
-0.765873652
11
-15.5500002
21
-0.826377296
0
LINE
8
0
10
-15.5500002
20
-0.826377296
11
-15.5500002
21
-0.862298171
0
LINE
8
0
10
-15.5500002
20
-0.862298171
11
-15.5500002
21
-1.10000002
0
LINE
8
0
10
-15.5500002
20
-1.10000002
11
-15.7247239
21
-1.10000002
0
LINE
8
0
10
-15.7247239
20
-1.10000002
11
-18.5499992
21
-1.10000002
0
LINE
8
0
10
-18.5499992
20
-1.10000002
11
-18.5499992
21
-0.349917008
0
LINE
8
0
10
-18.5499992
20
-0.349917008
11
-18.5499992
21
-0.322020309
0
LINE
8
0
10
-18.5499992
20
-0.322020309
11
-18.5499992
21
-0.23632326
0
LINE
8
0
10
-18.5499992
20
-0.23632326
11
-18.5499992
21
1.13253814
0
LINE
8
0
10
-18.5499992
20
1.13253814
11
-18.5499992
21
1.27864464
0
LINE
8
0
10
-18.5499992
20
1.27864464
11
-18.5499992
21
1.5148139
0
LINE
8
0
10
-18.5499992
20
1.5148139
11
-18.5499992
21
1.65235186
0
LINE
8
0
10
-18.5499992
20
1.65235186
11
-17.2353293
21
1.65235186
0
LINE
8
0
10
-17.2353293
20
1.65235186
11
-17.2353293
21
1.65235186
0
LINE
8
0
10
-17.2353293
20
41.6523508
11
-15.5500002
21
41.6523508
0
LINE
8
0
10
-15.5500002
20
41.6523508
11
-15.5500002
21
41.4969417
0
LINE
8
0
10
-15.5500002
20
41.4969417
11
-15.5500002
21
41.4439693
0
LINE
8
0
10
-15.5500002
20
41.4439693
11
-15.5500002
21
33.4254409
0
LINE
8
0
10
-15.5500002
20
33.4254409
11
-15.5500002
21
28.0019563
0
LINE
8
0
10
-15.5500002
20
28.0019563
11
-17.1941285
21
28.0019563
0
LINE
8
0
10
-17.1941285
20
28.0019563
11
-18.5499992
21
28.0019563
0
LINE
8
0
10
-18.5499992
20
28.0019563
11
-18.5499992
21
29.2553898
0
LINE
8
0
10
-18.5499992
20
29.2553898
11
-18.5499992
21
40.5161159
0
LINE
8
0
10
-18.5499992
20
40.5161159
11
-18.5499992
21
41.4969417
0
LINE
8
0
10
-18.5499992
20
41.4969417
11
-18.5499992
21
41.6523508
0
LINE
8
0
10
-18.5499992
20
41.6523508
11
-17.2353293
21
41.6523508
0
LINE
8
0
10
-17.2353293
20
41.6523508
11
-17.2353293
21
41.6523508
0
LINE
8
0
10
-18.3128587
20
4.35822715
11
-15.5500002
21
4.35822715
0
LINE
8
0
10
-15.5500002
20
4.35822715
11
-15.5500002
21
4.71495949
0
LINE
8
0
10
-15.5500002
20
4.71495949
11
-15.5500002
21
4.96706319
0
LINE
8
0
10
-15.5500002
20
4.96706319
11
-15.5500002
21
5.10570413
0
LINE
8
0
10
-15.5500002
20
5.10570413
11
-15.5500002
21
5.9000001
0
LINE
8
0
10
-15.5500002
20
5.9000001
11
-17.103924
21
5.9000001
0
LINE
8
0
10
-17.103924
20
5.9000001
11
-18.5499992
21
5.9000001
0
LINE
8
0
10
-18.5499992
20
5.9000001
11
-18.5499992
21
4.96706319
0
LINE
8
0
10
-18.5499992
20
4.96706319
11
-18.5499992
21
4.71495949
0
LINE
8
0
10
-18.5499992
20
4.71495949
11
-18.5499992
21
4.35822715
0
LINE
8
0
10
-18.5499992
20
4.35822715
11
-18.3128587
21
4.35822715
0
LINE
8
0
10
-18.3128587
20
4.35822715
11
-18.3128587
21
4.35822715
0
LINE
8
0
10
-18.1464618
20
19.6862157
11
-15.5500002
21
19.6862157
0
LINE
8
0
10
-15.5500002
20
19.6862157
11
-15.5500002
21
20.2397796
0
LINE
8
0
10
-15.5500002
20
20.2397796
11
-15.5500002
21
20.5859071
0
LINE
8
0
10
-15.5500002
20
20.5859071
11
-15.5500002
21
20.7541794
0
LINE
8
0
10
-15.5500002
20
20.7541794
11
-15.5500002
21
20.8313104
0
LINE
8
0
10
-15.5500002
20
20.8313104
11
-15.5500002
21
21.0499992
0
LINE
8
0
10
-15.5500002
20
21.0499992
11
-18.1328082
21
21.0499992
0
LINE
8
0
10
-18.1328082
20
21.0499992
11
-18.5499992
21
21.0499992
0
LINE
8
0
10
-18.5499992
20
21.0499992
11
-18.5499992
21
20.8313104
0
LINE
8
0
10
-18.5499992
20
20.8313104
11
-18.5499992
21
20.7541794
0
LINE
8
0
10
-18.5499992
20
20.7541794
11
-18.5499992
21
20.5859071
0
LINE
8
0
10
-18.5499992
20
20.5859071
11
-18.5499992
21
20.2397796
0
LINE
8
0
10
-18.5499992
20
20.2397796
11
-18.5499992
21
19.6862157
0
LINE
8
0
10
-18.5499992
20
19.6862157
11
-18.1464618
21
19.6862157
0
LINE
8
0
10
-18.1464618
20
19.6862157
11
-18.1464618
21
19.6862157
0
ENDSEC
0
EOF
