0
SECTION
2
ENTITIES
0
LINE
8
0
10
-15.7076528
20
-1.10000002
11
-15.5500002
21
-1.10000002
0
LINE
8
0
10
-15.5500002
20
-1.10000002
11
-15.5500002
21
-0.885522515
0
LINE
8
0
10
-15.5500002
20
-0.885522515
11
-15.5500002
21
-0.853111242
0
LINE
8
0
10
-15.5500002
20
-0.853111242
11
-15.5500002
21
-0.798519026
0
LINE
8
0
10
-15.5500002
20
-0.798519026
11
-15.5500002
21
-0.71663265
0
LINE
8
0
10
-15.5500002
20
-0.71663265
11
-15.5500002
21
0.29223916
0
LINE
8
0
10
-15.5500002
20
0.29223916
11
-15.5500002
21
0.46126459
0
LINE
8
0
10
-15.5500002
20
0.46126459
11
-15.5500002
21
0.74064951
0
LINE
8
0
10
-15.5500002
20
0.74064951
11
-15.5500002
21
1.15473294
0
LINE
8
0
10
-15.5500002
20
1.15473294
11
-15.5500002
21
1.71669834
0
LINE
8
0
10
-15.5500002
20
1.71669834
11
-15.5500002
21
1.88599062
0
LINE
8
0
10
-15.5500002
20
1.88599062
11
-17.749993
21
1.88599062
0
LINE
8
0
10
-17.749993
20
1.88599062
11
-18.5499992
21
1.88599062
0
LINE
8
0
10
-18.5499992
20
1.88599062
11
-18.5499992
21
1.81379962
0
LINE
8
0
10
-18.5499992
20
1.81379962
11
-18.5499992
21
1.78679834
0
LINE
8
0
10
-18.5499992
20
1.78679834
11
-18.5499992
21
1.47427415
0
LINE
8
0
10
-18.5499992
20
1.47427415
11
-18.5499992
21
1.24176643
0
LINE
8
0
10
-18.5499992
20
1.24176643
11
-18.5499992
21
1.09792515
0
LINE
8
0
10
-18.5499992
20
1.09792515
11
-18.5499992
21
-0.249713597
0
LINE
8
0
10
-18.5499992
20
-0.249713597
11
-18.5499992
21
-0.33408201
0
LINE
8
0
10
-18.5499992
20
-0.33408201
11
-18.5499992
21
-0.361546202
0
LINE
8
0
10
-18.5499992
20
-0.361546202
11
-18.5499992
21
-1.10000002
0
LINE
8
0
10
-18.5499992
20
-1.10000002
11
-15.7076528
21
-1.10000002
0
LINE
8
0
10
-15.7076528
20
-1.10000002
11
-15.7076528
21
-1.10000002
0
LINE
8
0
10
-17.4659812
20
46.5
11
-15.5500002
21
46.5
0
LINE
8
0
10
-15.5500002
20
46.5
11
-15.5500002
21
46.3270311
0
LINE
8
0
10
-15.5500002
20
46.3270311
11
-15.5500002
21
45.5119698
0
LINE
8
0
10
-15.5500002
20
45.5119698
11
-15.5500002
21
45.4943161
0
LINE
8
0
10
-15.5500002
20
45.4943161
11
-15.5500002
21
45.4093844
0
LINE
8
0
10
-15.5500002
20
45.4093844
11
-15.5500002
21
45.2363267
0
LINE
8
0
10
-15.5500002
20
45.2363267
11
-15.5500002
21
44.9505889
0
LINE
8
0
10
-15.5500002
20
44.9505889
11
-15.5500002
21
44.5299997
0
LINE
8
0
10
-15.5500002
20
44.5299997
11
-15.5500002
21
44.1150971
0
LINE
8
0
10
-15.5500002
20
44.1150971
11
-17.8387589
21
44.1150971
0
LINE
8
0
10
-17.8387589
20
44.1150971
11
-18.5499992
21
44.1150971
0
LINE
8
0
10
-18.5499992
20
44.1150971
11
-18.5499992
21
44.3703571
0
LINE
8
0
10
-18.5499992
20
44.3703571
11
-18.5499992
21
44.6316781
0
LINE
8
0
10
-18.5499992
20
44.6316781
11
-18.5499992
21
44.8067894
0
LINE
8
0
10
-18.5499992
20
44.8067894
11
-18.5499992
21
44.891439
0
LINE
8
0
10
-18.5499992
20
44.891439
11
-18.5499992
21
46.5
0
LINE
8
0
10
-18.5499992
20
46.5
11
-17.4659812
21
46.5
0
LINE
8
0
10
-17.4659812
20
46.5
11
-17.4659812
21
46.5
0
LINE
8
0
10
-17.749993
20
41.8859898
11
-15.5500002
21
41.8859898
0
LINE
8
0
10
-15.5500002
20
41.8859898
11
-15.5500002
21
41.8347491
0
LINE
8
0
10
-15.5500002
20
41.8347491
11
-15.5500002
21
30.3110931
0
LINE
8
0
10
-15.5500002
20
30.3110931
11
-15.5500002
21
27.7623911
0
LINE
8
0
10
-15.5500002
20
27.7623911
11
-17.9128239
21
27.7623911
0
LINE
8
0
10
-17.9128239
20
27.7623911
11
-18.5499992
21
27.7623911
0
LINE
8
0
10
-18.5499992
20
27.7623911
11
-18.5499992
21
29.5637362
0
LINE
8
0
10
-18.5499992
20
29.5637362
11
-18.5499992
21
40.5013045
0
LINE
8
0
10
-18.5499992
20
40.5013045
11
-18.5499992
21
41.784833
0
LINE
8
0
10
-18.5499992
20
41.784833
11
-18.5499992
21
41.8859898
0
LINE
8
0
10
-18.5499992
20
41.8859898
11
-17.749993
21
41.8859898
0
LINE
8
0
10
-17.749993
20
41.8859898
11
-17.749993
21
41.8859898
0
LINE
8
0
10
-18.3539453
20
21.0499992
11
-15.5500002
21
21.0499992
0
LINE
8
0
10
-15.5500002
20
21.0499992
11
-15.5500002
21
20.947229
0
LINE
8
0
10
-15.5500002
20
20.947229
11
-15.5500002
21
20.9109822
0
LINE
8
0
10
-15.5500002
20
20.9109822
11
-15.5500002
21
20.8319046
0
LINE
8
0
10
-15.5500002
20
20.8319046
11
-15.5500002
21
20.6692462
0
LINE
8
0
10
-15.5500002
20
20.6692462
11
-15.5500002
21
20.3489828
0
LINE
8
0
10
-15.5500002
20
20.3489828
11
-15.5500002
21
19.8133512
0
LINE
8
0
10
-15.5500002
20
19.8133512
11
-15.5500002
21
19.3083868
0
LINE
8
0
10
-15.5500002
20
19.3083868
11
-15.5500002
21
18.8736415
0
LINE
8
0
10
-15.5500002
20
18.8736415
11
-15.5500002
21
18.4056724
0
LINE
8
0
10
-15.5500002
20
18.4056724
11
-15.5500002
21
17.7463669
0
LINE
8
0
10
-15.5500002
20
17.7463669
11
-15.5500002
21
17.024729
0
LINE
8
0
10
-15.5500002
20
17.024729
11
-15.5500002
21
16.3486539
0
LINE
8
0
10
-15.5500002
20
16.3486539
11
-15.5500002
21
15.7803503
0
LINE
8
0
10
-15.5500002
20
15.7803503
11
-15.5500002
21
15.3413989
0
LINE
8
0
10
-15.5500002
20
15.3413989
11
-15.5500002
21
15.0288825
0
LINE
8
0
10
-15.5500002
20
15.0288825
11
-15.5500002
21
14.8294003
0
LINE
8
0
10
-15.5500002
20
14.8294003
11
-15.5500002
21
14.0769195
0
LINE
8
0
10
-15.5500002
20
14.0769195
11
-16.7042912
21
14.0769195
0
LINE
8
0
10
-16.7042912
20
14.0769195
11
-18.5499992
21
14.0769195
0
LINE
8
0
10
-18.5499992
20
14.0769195
11
-18.5499992
21
15.0288825
0
LINE
8
0
10
-18.5499992
20
15.0288825
11
-18.5499992
21
15.3413989
0
LINE
8
0
10
-18.5499992
20
15.3413989
11
-18.5499992
21
15.7803503
0
LINE
8
0
10
-18.5499992
20
15.7803503
11
-18.5499992
21
16.3486539
0
LINE
8
0
10
-18.5499992
20
16.3486539
11
-18.5499992
21
17.024729
0
LINE
8
0
10
-18.5499992
20
17.024729
11
-18.5499992
21
17.7463669
0
LINE
8
0
10
-18.5499992
20
17.7463669
11
-18.5499992
21
18.4056724
0
LINE
8
0
10
-18.5499992
20
18.4056724
11
-18.5499992
21
18.8736415
0
LINE
8
0
10
-18.5499992
20
18.8736415
11
-18.5499992
21
19.3083868
0
LINE
8
0
10
-18.5499992
20
19.3083868
11
-18.5499992
21
19.8133512
0
LINE
8
0
10
-18.5499992
20
19.8133512
11
-18.5499992
21
20.3489828
0
LINE
8
0
10
-18.5499992
20
20.3489828
11
-18.5499992
21
20.6692462
0
LINE
8
0
10
-18.5499992
20
20.6692462
11
-18.5499992
21
20.8319046
0
LINE
8
0
10
-18.5499992
20
20.8319046
11
-18.5499992
21
20.9109822
0
LINE
8
0
10
-18.5499992
20
20.9109822
11
-18.5499992
21
20.947229
0
LINE
8
0
10
-18.5499992
20
20.947229
11
-18.5499992
21
21.0499992
0
LINE
8
0
10
-18.5499992
20
21.0499992
11
-18.3539453
21
21.0499992
0
LINE
8
0
10
-18.3539453
20
21.0499992
11
-18.3539453
21
21.0499992
0
LINE
8
0
10
-17.2452109
20
5.9000001
11
-15.5500002
21
5.9000001
0
LINE
8
0
10
-15.5500002
20
5.9000001
11
-15.5500002
21
5.18330976
0
LINE
8
0
10
-15.5500002
20
5.18330976
11
-15.5500002
21
5.05821455
0
LINE
8
0
10
-15.5500002
20
5.05821455
11
-15.5500002
21
4.83074231
0
LINE
8
0
10
-15.5500002
20
4.83074231
11
-15.5500002
21
4.47736931
0
LINE
8
0
10
-15.5500002
20
4.47736931
11
-15.5500002
21
4.11509675
0
LINE
8
0
10
-15.5500002
20
4.11509675
11
-17.8387589
21
4.11509675
0
LINE
8
0
10
-17.8387589
20
4.11509675
11
-18.5499992
21
4.11509675
0
LINE
8
0
10
-18.5499992
20
4.11509675
11
-18.5499992
21
4.47736931
0
LINE
8
0
10
-18.5499992
20
4.47736931
11
-18.5499992
21
4.83074231
0
LINE
8
0
10
-18.5499992
20
4.83074231
11
-18.5499992
21
5.05821455
0
LINE
8
0
10
-18.5499992
20
5.05821455
11
-18.5499992
21
5.9000001
0
LINE
8
0
10
-18.5499992
20
5.9000001
11
-17.2452109
21
5.9000001
0
LINE
8
0
10
-17.2452109
20
5.9000001
11
-17.2452109
21
5.9000001
0
ENDSEC
0
EOF
