0
SECTION
2
ENTITIES
0
LINE
8
0
10
-18.1113659
20
3.74458953
11
-15.5500002
21
3.74458953
0
LINE
8
0
10
-15.5500002
20
3.74458953
11
-15.5500002
21
4.19494286
0
LINE
8
0
10
-15.5500002
20
4.19494286
11
-15.5500002
21
4.63141654
0
LINE
8
0
10
-15.5500002
20
4.63141654
11
-15.5500002
21
4.94652513
0
LINE
8
0
10
-15.5500002
20
4.94652513
11
-15.5500002
21
5.14936592
0
LINE
8
0
10
-15.5500002
20
5.14936592
11
-15.5500002
21
5.2609154
0
LINE
8
0
10
-15.5500002
20
5.2609154
11
-15.5500002
21
5.9000001
0
LINE
8
0
10
-15.5500002
20
5.9000001
11
-17.3864977
21
5.9000001
0
LINE
8
0
10
-17.3864977
20
5.9000001
11
-18.5499992
21
5.9000001
0
LINE
8
0
10
-18.5499992
20
5.9000001
11
-18.5499992
21
5.14936592
0
LINE
8
0
10
-18.5499992
20
5.14936592
11
-18.5499992
21
4.94652513
0
LINE
8
0
10
-18.5499992
20
4.94652513
11
-18.5499992
21
4.63141654
0
LINE
8
0
10
-18.5499992
20
4.63141654
11
-18.5499992
21
4.19494286
0
LINE
8
0
10
-18.5499992
20
4.19494286
11
-18.5499992
21
3.74458953
0
LINE
8
0
10
-18.5499992
20
3.74458953
11
-18.1113659
21
3.74458953
0
LINE
8
0
10
-18.1113659
20
3.74458953
11
-18.1113659
21
3.74458953
0
LINE
8
0
10
-18.1113659
20
43.7445884
11
-15.5500002
21
43.7445884
0
LINE
8
0
10
-15.5500002
20
43.7445884
11
-15.5500002
21
44.2434345
0
LINE
8
0
10
-15.5500002
20
44.2434345
11
-15.5500002
21
44.7433179
0
LINE
8
0
10
-15.5500002
20
44.7433179
11
-15.5500002
21
45.1183643
0
LINE
8
0
10
-15.5500002
20
45.1183643
11
-15.5500002
21
45.3731615
0
LINE
8
0
10
-15.5500002
20
45.3731615
11
-15.5500002
21
45.5274799
0
LINE
8
0
10
-15.5500002
20
45.5274799
11
-15.5500002
21
45.6032149
0
LINE
8
0
10
-15.5500002
20
45.6032149
11
-15.5500002
21
45.6189571
0
LINE
8
0
10
-15.5500002
20
45.6189571
11
-15.5500002
21
46.3457608
0
LINE
8
0
10
-15.5500002
20
46.3457608
11
-15.5500002
21
46.5
0
LINE
8
0
10
-15.5500002
20
46.5
11
-17.4830524
21
46.5
0
LINE
8
0
10
-17.4830524
20
46.5
11
-18.5499992
21
46.5
0
LINE
8
0
10
-18.5499992
20
46.5
11
-18.5499992
21
44.9167706
0
LINE
8
0
10
-18.5499992
20
44.9167706
11
-18.5499992
21
44.8334542
0
LINE
8
0
10
-18.5499992
20
44.8334542
11
-18.5499992
21
44.6611005
0
LINE
8
0
10
-18.5499992
20
44.6611005
11
-18.5499992
21
44.4038948
0
LINE
8
0
10
-18.5499992
20
44.4038948
11
-18.5499992
21
44.0731435
0
LINE
8
0
10
-18.5499992
20
44.0731435
11
-18.5499992
21
43.9987651
0
LINE
8
0
10
-18.5499992
20
43.9987651
11
-18.5499992
21
43.7445884
0
LINE
8
0
10
-18.5499992
20
43.7445884
11
-18.1113659
21
43.7445884
0
LINE
8
0
10
-18.1113659
20
43.7445884
11
-18.1113659
21
43.7445884
0
LINE
8
0
10
-17.4011851
20
2.26787206
11
-15.5500002
21
2.26787206
0
LINE
8
0
10
-15.5500002
20
2.26787206
11
-15.5500002
21
2.02730679
0
LINE
8
0
10
-15.5500002
20
2.02730679
11
-15.5500002
21
1.41169679
0
LINE
8
0
10
-15.5500002
20
1.41169679
11
-15.5500002
21
0.910582891
0
LINE
8
0
10
-15.5500002
20
0.910582891
11
-15.5500002
21
0.541337803
0
LINE
8
0
10
-15.5500002
20
0.541337803
11
-15.5500002
21
0.292205619
0
LINE
8
0
10
-15.5500002
20
0.292205619
11
-15.5500002
21
0.14148283
0
LINE
8
0
10
-15.5500002
20
0.14148283
11
-15.5500002
21
-0.758144955
0
LINE
8
0
10
-15.5500002
20
-0.758144955
11
-15.5500002
21
-0.8311644
0
LINE
8
0
10
-15.5500002
20
-0.8311644
11
-15.5500002
21
-0.879845188
0
LINE
8
0
10
-15.5500002
20
-0.879845188
11
-15.5500002
21
-0.908746859
0
LINE
8
0
10
-15.5500002
20
-0.908746859
11
-15.5500002
21
-1.10000002
0
LINE
8
0
10
-15.5500002
20
-1.10000002
11
-15.6905816
21
-1.10000002
0
LINE
8
0
10
-15.6905816
20
-1.10000002
11
-18.5499992
21
-1.10000002
0
LINE
8
0
10
-18.5499992
20
-1.10000002
11
-18.5499992
21
-0.373175396
0
LINE
8
0
10
-18.5499992
20
-0.373175396
11
-18.5499992
21
-0.346143711
0
LINE
8
0
10
-18.5499992
20
-0.346143711
11
-18.5499992
21
-0.263103935
0
LINE
8
0
10
-18.5499992
20
-0.263103935
11
-18.5499992
21
1.06331215
0
LINE
8
0
10
-18.5499992
20
1.06331215
11
-18.5499992
21
1.20488822
0
LINE
8
0
10
-18.5499992
20
1.20488822
11
-18.5499992
21
1.4337344
0
LINE
8
0
10
-18.5499992
20
1.4337344
11
-18.5499992
21
1.74133695
0
LINE
8
0
10
-18.5499992
20
1.74133695
11
-18.5499992
21
1.86830847
0
LINE
8
0
10
-18.5499992
20
1.86830847
11
-18.5499992
21
2.13725337
0
LINE
8
0
10
-18.5499992
20
2.13725337
11
-18.5499992
21
2.26787206
0
LINE
8
0
10
-18.5499992
20
2.26787206
11
-17.4011851
21
2.26787206
0
LINE
8
0
10
-17.4011851
20
2.26787206
11
-17.4011851
21
2.26787206
0
LINE
8
0
10
-17.4011851
20
42.2678714
11
-15.5500002
21
42.2678714
0
LINE
8
0
10
-15.5500002
20
42.2678714
11
-15.5500002
21
30.7614694
0
LINE
8
0
10
-15.5500002
20
30.7614694
11
-15.5500002
21
27.807467
0
LINE
8
0
10
-15.5500002
20
27.807467
11
-15.5500002
21
27.3311217
0
LINE
8
0
10
-15.5500002
20
27.3311217
11
-15.5500002
21
20.9194352
0
LINE
8
0
10
-15.5500002
20
20.9194352
11
-15.5500002
21
18.0687336
0
LINE
8
0
10
-15.5500002
20
18.0687336
11
-15.5500002
21
17.6514378
0
LINE
8
0
10
-15.5500002
20
17.6514378
11
-15.5500002
21
17.0635241
0
LINE
8
0
10
-15.5500002
20
17.0635241
11
-15.5500002
21
16.4200276
0
LINE
8
0
10
-15.5500002
20
16.4200276
11
-15.5500002
21
15.8171601
0
LINE
8
0
10
-15.5500002
20
15.8171601
11
-15.5500002
21
15.3103944
0
LINE
8
0
10
-15.5500002
20
15.3103944
11
-15.5500002
21
14.9189741
0
LINE
8
0
10
-15.5500002
20
14.9189741
11
-15.5500002
21
14.640298
0
LINE
8
0
10
-15.5500002
20
14.640298
11
-15.5500002
21
14.4624164
0
LINE
8
0
10
-15.5500002
20
14.4624164
11
-15.5500002
21
13.7914168
0
LINE
8
0
10
-15.5500002
20
13.7914168
11
-16.5793007
21
13.7914168
0
LINE
8
0
10
-16.5793007
20
13.7914168
11
-18.5499992
21
13.7914168
0
LINE
8
0
10
-18.5499992
20
13.7914168
11
-18.5499992
21
14.640298
0
LINE
8
0
10
-18.5499992
20
14.640298
11
-18.5499992
21
14.9189741
0
LINE
8
0
10
-18.5499992
20
14.9189741
11
-18.5499992
21
15.3103944
0
LINE
8
0
10
-18.5499992
20
15.3103944
11
-18.5499992
21
15.8171601
0
LINE
8
0
10
-18.5499992
20
15.8171601
11
-18.5499992
21
16.4200276
0
LINE
8
0
10
-18.5499992
20
16.4200276
11
-18.5499992
21
17.0635241
0
LINE
8
0
10
-18.5499992
20
17.0635241
11
-18.5499992
21
17.6514378
0
LINE
8
0
10
-18.5499992
20
17.6514378
11
-18.5499992
21
18.0687336
0
LINE
8
0
10
-18.5499992
20
18.0687336
11
-18.5499992
21
20.9194352
0
LINE
8
0
10
-18.5499992
20
20.9194352
11
-18.5499992
21
20.9964847
0
LINE
8
0
10
-18.5499992
20
20.9964847
11
-18.5499992
21
21.1152147
0
LINE
8
0
10
-18.5499992
20
21.1152147
11
-18.5499992
21
27.5928453
0
LINE
8
0
10
-18.5499992
20
27.5928453
11
-18.5499992
21
29.8720826
0
LINE
8
0
10
-18.5499992
20
29.8720826
11
-18.5499992
21
40.4864931
0
LINE
8
0
10
-18.5499992
20
40.4864931
11
-18.5499992
21
41.7320989
0
LINE
8
0
10
-18.5499992
20
41.7320989
11
-18.5499992
21
42.1084861
0
LINE
8
0
10
-18.5499992
20
42.1084861
11
-18.5499992
21
42.2678714
0
LINE
8
0
10
-18.5499992
20
42.2678714
11
-17.4011851
21
42.2678714
0
LINE
8
0
10
-17.4011851
20
42.2678714
11
-17.4011851
21
42.2678714
0
ENDSEC
0
EOF
