0
SECTION
2
ENTITIES
0
LINE
8
0
10
-17.5001235
20
46.5
11
-15.5500002
21
46.5
0
LINE
8
0
10
-15.5500002
20
46.5
11
-15.5500002
21
46.3644904
0
LINE
8
0
10
-15.5500002
20
46.3644904
11
-15.5500002
21
45.7259443
0
LINE
8
0
10
-15.5500002
20
45.7259443
11
-15.5500002
21
45.7121137
0
LINE
8
0
10
-15.5500002
20
45.7121137
11
-15.5500002
21
45.6455754
0
LINE
8
0
10
-15.5500002
20
45.6455754
11
-15.5500002
21
45.5099963
0
LINE
8
0
10
-15.5500002
20
45.5099963
11
-15.5500002
21
45.2861397
0
LINE
8
0
10
-15.5500002
20
45.2861397
11
-15.5500002
21
44.9566362
0
LINE
8
0
10
-15.5500002
20
44.9566362
11
-15.5500002
21
44.5174548
0
LINE
8
0
10
-15.5500002
20
44.5174548
11
-15.5500002
21
43.996284
0
LINE
8
0
10
-15.5500002
20
43.996284
11
-15.5500002
21
43.467181
0
LINE
8
0
10
-15.5500002
20
43.467181
11
-15.5500002
21
43.0374854
0
LINE
8
0
10
-15.5500002
20
43.0374854
11
-15.5500002
21
42.797688
0
LINE
8
0
10
-15.5500002
20
42.797688
11
-15.5500002
21
30.0773474
0
LINE
8
0
10
-15.5500002
20
30.0773474
11
-15.5500002
21
25.4014592
0
LINE
8
0
10
-15.5500002
20
25.4014592
11
-15.5500002
21
19.7683596
0
LINE
8
0
10
-15.5500002
20
19.7683596
11
-15.5500002
21
17.2638257
0
LINE
8
0
10
-15.5500002
20
17.2638257
11
-15.5500002
21
16.8972032
0
LINE
8
0
10
-15.5500002
20
16.8972032
11
-15.5500002
21
16.3806813
0
LINE
8
0
10
-15.5500002
20
16.3806813
11
-15.5500002
21
15.8153261
0
LINE
8
0
10
-15.5500002
20
15.8153261
11
-15.5500002
21
15.2856664
0
LINE
8
0
10
-15.5500002
20
15.2856664
11
-15.5500002
21
14.8404384
0
LINE
8
0
10
-15.5500002
20
14.8404384
11
-15.5500002
21
14.4965493
0
LINE
8
0
10
-15.5500002
20
14.4965493
11
-15.5500002
21
14.2517135
0
LINE
8
0
10
-15.5500002
20
14.2517135
11
-15.5500002
21
14.0954325
0
LINE
8
0
10
-15.5500002
20
14.0954325
11
-15.5500002
21
13.505914
0
LINE
8
0
10
-15.5500002
20
13.505914
11
-16.4543102
21
13.505914
0
LINE
8
0
10
-16.4543102
20
13.505914
11
-18.5499992
21
13.505914
0
LINE
8
0
10
-18.5499992
20
13.505914
11
-18.5499992
21
14.2517135
0
LINE
8
0
10
-18.5499992
20
14.2517135
11
-18.5499992
21
14.4965493
0
LINE
8
0
10
-18.5499992
20
14.4965493
11
-18.5499992
21
14.8404384
0
LINE
8
0
10
-18.5499992
20
14.8404384
11
-18.5499992
21
15.2856664
0
LINE
8
0
10
-18.5499992
20
15.2856664
11
-18.5499992
21
15.8153261
0
LINE
8
0
10
-18.5499992
20
15.8153261
11
-18.5499992
21
16.3806813
0
LINE
8
0
10
-18.5499992
20
16.3806813
11
-18.5499992
21
16.8972032
0
LINE
8
0
10
-18.5499992
20
16.8972032
11
-18.5499992
21
17.2638257
0
LINE
8
0
10
-18.5499992
20
17.2638257
11
-18.5499992
21
19.7683596
0
LINE
8
0
10
-18.5499992
20
19.7683596
11
-18.5499992
21
20.5246913
0
LINE
8
0
10
-18.5499992
20
20.5246913
11
-18.5499992
21
21.6901656
0
LINE
8
0
10
-18.5499992
20
21.6901656
11
-18.5499992
21
27.9705834
0
LINE
8
0
10
-18.5499992
20
27.9705834
11
-18.5499992
21
30.1804289
0
LINE
8
0
10
-18.5499992
20
30.1804289
11
-18.5499992
21
40.4716818
0
LINE
8
0
10
-18.5499992
20
40.4716818
11
-18.5499992
21
41.6793648
0
LINE
8
0
10
-18.5499992
20
41.6793648
11
-18.5499992
21
42.0442929
0
LINE
8
0
10
-18.5499992
20
42.0442929
11
-18.5499992
21
42.4529959
0
LINE
8
0
10
-18.5499992
20
42.4529959
11
-18.5499992
21
42.8720082
0
LINE
8
0
10
-18.5499992
20
42.8720082
11
-18.5499992
21
43.2639556
0
LINE
8
0
10
-18.5499992
20
43.2639556
11
-18.5499992
21
43.2856286
0
LINE
8
0
10
-18.5499992
20
43.2856286
11
-18.5499992
21
43.6438554
0
LINE
8
0
10
-18.5499992
20
43.6438554
11
-18.5499992
21
43.9348699
0
LINE
8
0
10
-18.5499992
20
43.9348699
11
-18.5499992
21
44.1119732
0
LINE
8
0
10
-18.5499992
20
44.1119732
11
-18.5499992
21
44.4374325
0
LINE
8
0
10
-18.5499992
20
44.4374325
11
-18.5499992
21
44.6905229
0
LINE
8
0
10
-18.5499992
20
44.6905229
11
-18.5499992
21
44.8601189
0
LINE
8
0
10
-18.5499992
20
44.8601189
11
-18.5499992
21
44.9421023
0
LINE
8
0
10
-18.5499992
20
44.9421023
11
-18.5499992
21
46.5
0
LINE
8
0
10
-18.5499992
20
46.5
11
-17.5001235
21
46.5
0
LINE
8
0
10
-17.5001235
20
46.5
11
-17.5001235
21
46.5
0
LINE
8
0
10
-17.5277846
20
5.9000001
11
-15.5500002
21
5.9000001
0
LINE
8
0
10
-15.5500002
20
5.9000001
11
-15.5500002
21
5.33852103
0
LINE
8
0
10
-15.5500002
20
5.33852103
11
-15.5500002
21
5.24051728
0
LINE
8
0
10
-15.5500002
20
5.24051728
11
-15.5500002
21
5.06230795
0
LINE
8
0
10
-15.5500002
20
5.06230795
11
-15.5500002
21
4.78546378
0
LINE
8
0
10
-15.5500002
20
4.78546378
11
-15.5500002
21
4.40199217
0
LINE
8
0
10
-15.5500002
20
4.40199217
11
-15.5500002
21
3.93148427
0
LINE
8
0
10
-15.5500002
20
3.93148427
11
-15.5500002
21
3.43652692
0
LINE
8
0
10
-15.5500002
20
3.43652692
11
-15.5500002
21
3.01429007
0
LINE
8
0
10
-15.5500002
20
3.01429007
11
-15.5500002
21
2.74367997
0
LINE
8
0
10
-15.5500002
20
2.74367997
11
-15.5500002
21
2.22872965
0
LINE
8
0
10
-15.5500002
20
2.22872965
11
-15.5500002
21
1.6475502
0
LINE
8
0
10
-15.5500002
20
1.6475502
11
-15.5500002
21
1.10669524
0
LINE
8
0
10
-15.5500002
20
1.10669524
11
-15.5500002
21
0.66643284
0
LINE
8
0
10
-15.5500002
20
0.66643284
11
-15.5500002
21
0.342026096
0
LINE
8
0
10
-15.5500002
20
0.342026096
11
-15.5500002
21
0.123146649
0
LINE
8
0
10
-15.5500002
20
0.123146649
11
-15.5500002
21
-0.00927350001
0
LINE
8
0
10
-15.5500002
20
-0.00927350001
11
-15.5500002
21
-0.799657261
0
LINE
8
0
10
-15.5500002
20
-0.799657261
11
-15.5500002
21
-0.863809774
0
LINE
8
0
10
-15.5500002
20
-0.863809774
11
-15.5500002
21
-0.906579133
0
LINE
8
0
10
-15.5500002
20
-0.906579133
11
-15.5500002
21
-0.931971203
0
LINE
8
0
10
-15.5500002
20
-0.931971203
11
-15.5500002
21
-1.10000002
0
LINE
8
0
10
-15.5500002
20
-1.10000002
11
-15.6735105
21
-1.10000002
0
LINE
8
0
10
-15.6735105
20
-1.10000002
11
-18.5499992
21
-1.10000002
0
LINE
8
0
10
-18.5499992
20
-1.10000002
11
-18.5499992
21
-0.38480459
0
LINE
8
0
10
-18.5499992
20
-0.38480459
11
-18.5499992
21
-0.358205412
0
LINE
8
0
10
-18.5499992
20
-0.358205412
11
-18.5499992
21
-0.276494272
0
LINE
8
0
10
-18.5499992
20
-0.276494272
11
-18.5499992
21
1.02869916
0
LINE
8
0
10
-18.5499992
20
1.02869916
11
-18.5499992
21
1.16801001
0
LINE
8
0
10
-18.5499992
20
1.16801001
11
-18.5499992
21
1.39319464
0
LINE
8
0
10
-18.5499992
20
1.39319464
11
-18.5499992
21
1.69587556
0
LINE
8
0
10
-18.5499992
20
1.69587556
11
-18.5499992
21
1.92281732
0
LINE
8
0
10
-18.5499992
20
1.92281732
11
-18.5499992
21
2.18488511
0
LINE
8
0
10
-18.5499992
20
2.18488511
11
-18.5499992
21
2.52081994
0
LINE
8
0
10
-18.5499992
20
2.52081994
11
-18.5499992
21
2.55228618
0
LINE
8
0
10
-18.5499992
20
2.55228618
11
-18.5499992
21
2.92180089
0
LINE
8
0
10
-18.5499992
20
2.92180089
11
-18.5499992
21
3.01429007
0
LINE
8
0
10
-18.5499992
20
3.01429007
11
-18.5499992
21
3.43652692
0
LINE
8
0
10
-18.5499992
20
3.43652692
11
-18.5499992
21
3.93148427
0
LINE
8
0
10
-18.5499992
20
3.93148427
11
-18.5499992
21
4.40199217
0
LINE
8
0
10
-18.5499992
20
4.40199217
11
-18.5499992
21
4.78546378
0
LINE
8
0
10
-18.5499992
20
4.78546378
11
-18.5499992
21
5.06230795
0
LINE
8
0
10
-18.5499992
20
5.06230795
11
-18.5499992
21
5.24051728
0
LINE
8
0
10
-18.5499992
20
5.24051728
11
-18.5499992
21
5.9000001
0
LINE
8
0
10
-18.5499992
20
5.9000001
11
-17.5277846
21
5.9000001
0
LINE
8
0
10
-17.5277846
20
5.9000001
11
-17.5277846
21
5.9000001
0
ENDSEC
0
EOF
