0
SECTION
2
ENTITIES
0
LINE
8
0
10
-2.14782991
20
29.8504156
11
-2.14011359
21
29.8347607
0
LINE
8
0
10
-2.14011359
20
29.8347607
11
-1.85246721
21
29.4597392
0
LINE
8
0
10
-1.85246721
20
29.4597392
11
-1.84184504
21
29.4458904
0
LINE
8
0
10
-1.84184504
20
29.4458904
11
-1.59845002
21
29.1859174
0
LINE
8
0
10
-1.59845002
20
29.1859174
11
4.99263763
21
22.1459007
0
LINE
8
0
10
4.99263763
20
22.1459007
11
5.34792027
21
21.8342032
0
LINE
8
0
10
5.34792027
20
21.8342032
11
5.36104012
21
21.8226929
0
LINE
8
0
10
5.36104012
20
21.8226929
11
5.77030521
21
21.5862958
0
LINE
8
0
10
5.77030521
20
21.5862958
11
5.78541851
21
21.5775661
0
LINE
8
0
10
5.78541851
20
21.5775661
11
6.23293808
21
21.4255563
0
LINE
8
0
10
6.23293808
20
21.4255563
11
6.24946404
21
21.4199429
0
LINE
8
0
10
6.24946404
20
21.4199429
11
6.71804085
21
21.3581585
0
LINE
8
0
10
6.71804085
20
21.3581585
11
6.73534441
21
21.3558769
0
LINE
8
0
10
6.73534441
20
21.3558769
11
7.20697099
21
21.3866964
0
LINE
8
0
10
7.20697099
20
21.3866964
11
7.22438717
21
21.3878345
0
LINE
8
0
10
7.22438717
20
21.3878345
11
7.68093922
21
21.5100697
0
LINE
8
0
10
7.68093922
20
21.5100697
11
7.69779873
21
21.5145836
0
LINE
8
0
10
7.69779873
20
21.5145836
11
8.12173138
21
21.7235402
0
LINE
8
0
10
8.12173138
20
21.7235402
11
8.13738632
21
21.7312565
0
LINE
8
0
10
8.13738632
20
21.7312565
11
8.51240689
21
22.0189036
0
LINE
8
0
10
8.51240689
20
22.0189036
11
8.52625561
21
22.0295258
0
LINE
8
0
10
8.52625561
20
22.0295258
11
8.83795405
21
22.3848066
0
LINE
8
0
10
8.83795405
20
22.3848066
11
8.84946442
21
22.3979263
0
LINE
8
0
10
8.84946442
20
22.3979263
11
9.08586149
21
22.8071923
0
LINE
8
0
10
9.08586149
20
22.8071923
11
9.09459114
21
22.8223057
0
LINE
8
0
10
9.09459114
20
22.8223057
11
9.24660195
21
23.2698262
0
LINE
8
0
10
9.24660195
20
23.2698262
11
9.25221539
21
23.2863522
0
LINE
8
0
10
9.25221539
20
23.2863522
11
9.31399883
21
23.7549285
0
LINE
8
0
10
9.31399883
20
23.7549285
11
9.31628036
21
23.7722321
0
LINE
8
0
10
9.31628036
20
23.7722321
11
9.28546176
21
24.2438582
0
LINE
8
0
10
9.28546176
20
24.2438582
11
9.28432369
21
24.2612743
0
LINE
8
0
10
9.28432369
20
24.2612743
11
9.16208762
21
24.7178264
0
LINE
8
0
10
9.16208762
20
24.7178264
11
9.1575737
21
24.7346859
0
LINE
8
0
10
9.1575737
20
24.7346859
11
8.94861713
21
25.1586176
0
LINE
8
0
10
8.94861713
20
25.1586176
11
8.9409008
21
25.1742725
0
LINE
8
0
10
8.9409008
20
25.1742725
11
8.65325465
21
25.549294
0
LINE
8
0
10
8.65325465
20
25.549294
11
8.64263248
21
25.5631428
0
LINE
8
0
10
8.64263248
20
25.5631428
11
8.39923746
21
25.8231158
0
LINE
8
0
10
8.39923746
20
25.8231158
11
1.8081497
21
32.8631325
0
LINE
8
0
10
1.8081497
20
32.8631325
11
1.45286729
21
33.17483
0
LINE
8
0
10
1.45286729
20
33.17483
11
1.43974745
21
33.1863403
0
LINE
8
0
10
1.43974745
20
33.1863403
11
1.03048247
21
33.4227392
0
LINE
8
0
10
1.03048247
20
33.4227392
11
1.01536918
21
33.431469
0
LINE
8
0
10
1.01536918
20
33.431469
11
0.567849322
21
33.5834788
0
LINE
8
0
10
0.567849322
20
33.5834788
11
0.551323354
21
33.5890923
0
LINE
8
0
10
0.551323354
20
33.5890923
11
0.0827466012
21
33.6508748
0
LINE
8
0
10
0.0827466012
20
33.6508748
11
0.0654430464
21
33.6531563
0
LINE
8
0
10
0.0654430464
20
33.6531563
11
-0.406183484
21
33.6223386
0
LINE
8
0
10
-0.406183484
20
33.6223386
11
-0.42359966
21
33.6212006
0
LINE
8
0
10
-0.42359966
20
33.6212006
11
-0.880151598
21
33.4989636
0
LINE
8
0
10
-0.880151598
20
33.4989636
11
-0.897011101
21
33.4944496
0
LINE
8
0
10
-0.897011101
20
33.4944496
11
-1.32094346
21
33.2854949
0
LINE
8
0
10
-1.32094346
20
33.2854949
11
-1.3365984
21
33.2777786
0
LINE
8
0
10
-1.3365984
20
33.2777786
11
-1.71161965
21
32.9901297
0
LINE
8
0
10
-1.71161965
20
32.9901297
11
-1.7254684
21
32.9795074
0
LINE
8
0
10
-1.7254684
20
32.9795074
11
-2.03716661
21
32.6242266
0
LINE
8
0
10
-2.03716661
20
32.6242266
11
-2.04867697
21
32.6111069
0
LINE
8
0
10
-2.04867697
20
32.6111069
11
-2.28507404
21
32.2018427
0
LINE
8
0
10
-2.28507404
20
32.2018427
11
-2.29380369
21
32.1867294
0
LINE
8
0
10
-2.29380369
20
32.1867294
11
-2.4458145
21
31.7392089
0
LINE
8
0
10
-2.4458145
20
31.7392089
11
-2.45142794
21
31.722683
0
LINE
8
0
10
-2.45142794
20
31.722683
11
-2.51321138
21
31.2541066
0
LINE
8
0
10
-2.51321138
20
31.2541066
11
-2.51549292
21
31.2368031
0
LINE
8
0
10
-2.51549292
20
31.2368031
11
-2.48467431
21
30.7651751
0
LINE
8
0
10
-2.48467431
20
30.7651751
11
-2.48353624
21
30.7477589
0
LINE
8
0
10
-2.48353624
20
30.7477589
11
-2.36130017
21
30.2912087
0
LINE
8
0
10
-2.36130017
20
30.2912087
11
-2.35678625
21
30.2743492
0
LINE
8
0
10
-2.35678625
20
30.2743492
11
-2.14782991
21
29.8504156
0
LINE
8
0
10
-2.14782991
20
29.8504156
11
-2.14782991
21
29.8504156
0
LINE
8
0
10
3.40226603
20
13.1730547
11
3.38715273
21
13.1817843
0
LINE
8
0
10
3.38715273
20
13.1817843
11
2.97788763
21
13.4181814
0
LINE
8
0
10
2.97788763
20
13.4181814
11
2.9647678
21
13.4296918
0
LINE
8
0
10
2.9647678
20
13.4296918
11
2.60948539
21
13.7413902
0
LINE
8
0
10
2.60948539
20
13.7413902
11
-10.5726897
21
27.8214217
0
LINE
8
0
10
-10.5726897
20
27.8214217
11
-11.0594797
21
28.3413677
0
LINE
8
0
10
-11.0594797
20
28.3413677
11
-11.0701019
21
28.3552165
0
LINE
8
0
10
-11.0701019
20
28.3552165
11
-11.357749
21
28.730238
0
LINE
8
0
10
-11.357749
20
28.730238
11
-11.3654653
21
28.7458929
0
LINE
8
0
10
-11.3654653
20
28.7458929
11
-11.5744209
21
29.1698265
0
LINE
8
0
10
-11.5744209
20
29.1698265
11
-11.5789349
21
29.186686
0
LINE
8
0
10
-11.5789349
20
29.186686
11
-11.7011719
21
29.6432381
0
LINE
8
0
10
-11.7011719
20
29.6432381
11
-11.7023099
21
29.6606542
0
LINE
8
0
10
-11.7023099
20
29.6606542
11
-11.7331285
21
30.1322803
0
LINE
8
0
10
-11.7331285
20
30.1322803
11
-11.730847
21
30.1495839
0
LINE
8
0
10
-11.730847
20
30.1495839
11
-11.6690636
21
30.6181602
0
LINE
8
0
10
-11.6690636
20
30.6181602
11
-11.6634501
21
30.6346862
0
LINE
8
0
10
-11.6634501
20
30.6346862
11
-11.5114384
21
31.0822067
0
LINE
8
0
10
-11.5114384
20
31.0822067
11
-11.5027088
21
31.09732
0
LINE
8
0
10
-11.5027088
20
31.09732
11
-11.2663126
21
31.5065842
0
LINE
8
0
10
-11.2663126
20
31.5065842
11
-11.2548022
21
31.519704
0
LINE
8
0
10
-11.2548022
20
31.519704
11
-10.9431038
21
31.8749866
0
LINE
8
0
10
-10.9431038
20
31.8749866
11
-10.929255
21
31.8856089
0
LINE
8
0
10
-10.929255
20
31.8856089
11
-10.5542336
21
32.1732559
0
LINE
8
0
10
-10.5542336
20
32.1732559
11
-10.5385786
21
32.1809722
0
LINE
8
0
10
-10.5385786
20
32.1809722
11
-10.114646
21
32.3899269
0
LINE
8
0
10
-10.114646
20
32.3899269
11
-10.0977865
21
32.3944409
0
LINE
8
0
10
-10.0977865
20
32.3944409
11
-9.6412344
21
32.5166779
0
LINE
8
0
10
-9.6412344
20
32.5166779
11
-9.62381824
21
32.5178159
0
LINE
8
0
10
-9.62381824
20
32.5178159
11
-9.15219212
21
32.5486336
0
LINE
8
0
10
-9.15219212
20
32.5486336
11
-9.13488858
21
32.5463521
0
LINE
8
0
10
-9.13488858
20
32.5463521
11
-8.66631222
21
32.4845695
0
LINE
8
0
10
-8.66631222
20
32.4845695
11
-8.64978623
21
32.4789561
0
LINE
8
0
10
-8.64978623
20
32.4789561
11
-8.20226574
21
32.3269463
0
LINE
8
0
10
-8.20226574
20
32.3269463
11
-8.18715246
21
32.3182165
0
LINE
8
0
10
-8.18715246
20
32.3182165
11
-7.77788782
21
32.0818176
0
LINE
8
0
10
-7.77788782
20
32.0818176
11
-7.76476798
21
32.0703073
0
LINE
8
0
10
-7.76476798
20
32.0703073
11
-7.40948534
21
31.7586098
0
LINE
8
0
10
-7.40948534
20
31.7586098
11
5.77268997
21
17.6785783
0
LINE
8
0
10
5.77268997
20
17.6785783
11
6.25948
21
17.1586323
0
LINE
8
0
10
6.25948
20
17.1586323
11
6.27010218
21
17.1447835
0
LINE
8
0
10
6.27010218
20
17.1447835
11
6.55774879
21
16.769762
0
LINE
8
0
10
6.55774879
20
16.769762
11
6.5654651
21
16.7541071
0
LINE
8
0
10
6.5654651
20
16.7541071
11
6.77442122
21
16.3301735
0
LINE
8
0
10
6.77442122
20
16.3301735
11
6.77893514
21
16.313314
0
LINE
8
0
10
6.77893514
20
16.313314
11
6.90117121
21
15.8567629
0
LINE
8
0
10
6.90117121
20
15.8567629
11
6.90230927
21
15.8393467
0
LINE
8
0
10
6.90230927
20
15.8393467
11
6.93312788
21
15.3677197
0
LINE
8
0
10
6.93312788
20
15.3677197
11
6.93084636
21
15.3504161
0
LINE
8
0
10
6.93084636
20
15.3504161
11
6.86906338
21
14.8818398
0
LINE
8
0
10
6.86906338
20
14.8818398
11
6.86344992
21
14.8653138
0
LINE
8
0
10
6.86344992
20
14.8653138
11
6.71143866
21
14.4177942
0
LINE
8
0
10
6.71143866
20
14.4177942
11
6.70270901
21
14.4026809
0
LINE
8
0
10
6.70270901
20
14.4026809
11
6.46631193
21
13.9934158
0
LINE
8
0
10
6.46631193
20
13.9934158
11
6.45480158
21
13.980296
0
LINE
8
0
10
6.45480158
20
13.980296
11
6.1431036
21
13.6250134
0
LINE
8
0
10
6.1431036
20
13.6250134
11
6.12925484
21
13.6143912
0
LINE
8
0
10
6.12925484
20
13.6143912
11
5.75423336
21
13.326745
0
LINE
8
0
10
5.75423336
20
13.326745
11
5.73857844
21
13.3190287
0
LINE
8
0
10
5.73857844
20
13.3190287
11
5.31464624
21
13.1100721
0
LINE
8
0
10
5.31464624
20
13.1100721
11
5.29778674
21
13.1055582
0
LINE
8
0
10
5.29778674
20
13.1055582
11
4.84123468
21
12.9833221
0
LINE
8
0
10
4.84123468
20
12.9833221
11
4.82381851
21
12.9821841
0
LINE
8
0
10
4.82381851
20
12.9821841
11
4.35219193
21
12.9513655
0
LINE
8
0
10
4.35219193
20
12.9513655
11
4.33488838
21
12.953647
0
LINE
8
0
10
4.33488838
20
12.953647
11
3.86631179
21
13.0154305
0
LINE
8
0
10
3.86631179
20
13.0154305
11
3.84978582
21
13.0210439
0
LINE
8
0
10
3.84978582
20
13.0210439
11
3.40226603
21
13.1730547
0
LINE
8
0
10
3.40226603
20
13.1730547
11
3.40226603
21
13.1730547
0
LINE
8
0
10
-1.64079395
20
14.0143488
11
-1.60997546
21
13.5427227
0
LINE
8
0
10
-1.60997546
20
13.5427227
11
-1.61225699
21
13.5254191
0
LINE
8
0
10
-1.61225699
20
13.5254191
11
-1.67404032
21
13.0568419
0
LINE
8
0
10
-1.67404032
20
13.0568419
11
-1.67965377
21
13.0403159
0
LINE
8
0
10
-1.67965377
20
13.0403159
11
-1.8316648
21
12.5927963
0
LINE
8
0
10
-1.8316648
20
12.5927963
11
-1.84039444
21
12.577683
0
LINE
8
0
10
-1.84039444
20
12.577683
11
-2.07679129
21
12.1684179
0
LINE
8
0
10
-2.07679129
20
12.1684179
11
-2.08830165
21
12.1552981
0
LINE
8
0
10
-2.08830165
20
12.1552981
11
-2.4000001
21
11.8000164
0
LINE
8
0
10
-2.4000001
20
11.8000164
11
-2.41384884
21
11.7893942
0
LINE
8
0
10
-2.41384884
20
11.7893942
11
-2.7888701
21
11.5017471
0
LINE
8
0
10
-2.7888701
20
11.5017471
11
-2.80452502
21
11.4940308
0
LINE
8
0
10
-2.80452502
20
11.4940308
11
-3.22845721
21
11.2850752
0
LINE
8
0
10
-3.22845721
20
11.2850752
11
-3.24531672
21
11.2805612
0
LINE
8
0
10
-3.24531672
20
11.2805612
11
-3.70186877
21
11.1583242
0
LINE
8
0
10
-3.70186877
20
11.1583242
11
-3.71928494
21
11.1571862
0
LINE
8
0
10
-3.71928494
20
11.1571862
11
-4.19091129
21
11.1263676
0
LINE
8
0
10
-4.19091129
20
11.1263676
11
-4.20821485
21
11.1286491
0
LINE
8
0
10
-4.20821485
20
11.1286491
11
-4.67679167
21
11.1904325
0
LINE
8
0
10
-4.67679167
20
11.1904325
11
-4.69331764
21
11.196046
0
LINE
8
0
10
-4.69331764
20
11.196046
11
-5.14083767
21
11.3480577
0
LINE
8
0
10
-5.14083767
20
11.3480577
11
-5.15595097
21
11.3567874
0
LINE
8
0
10
-5.15595097
20
11.3567874
11
-5.56521606
21
11.5931835
0
LINE
8
0
10
-5.56521606
20
11.5931835
11
-5.57833589
21
11.6046939
0
LINE
8
0
10
-5.57833589
20
11.6046939
11
-5.93361807
21
11.9163923
0
LINE
8
0
10
-5.93361807
20
11.9163923
11
-12.5247057
21
18.9564081
0
LINE
8
0
10
-12.5247057
20
18.9564081
11
-12.7681007
21
19.2163811
0
LINE
8
0
10
-12.7681007
20
19.2163811
11
-12.7787229
21
19.2302298
0
LINE
8
0
10
-12.7787229
20
19.2302298
11
-13.0663691
21
19.6052513
0
LINE
8
0
10
-13.0663691
20
19.6052513
11
-13.0740854
21
19.6209063
0
LINE
8
0
10
-13.0740854
20
19.6209063
11
-13.283042
21
20.0448399
0
LINE
8
0
10
-13.283042
20
20.0448399
11
-13.2875559
21
20.0616994
0
LINE
8
0
10
-13.2875559
20
20.0616994
11
-13.4097919
21
20.5182514
0
LINE
8
0
10
-13.4097919
20
20.5182514
11
-13.41093
21
20.5356676
0
LINE
8
0
10
-13.41093
20
20.5356676
11
-13.4417486
21
21.0072937
0
LINE
8
0
10
-13.4417486
20
21.0072937
11
-13.4394671
21
21.0245972
0
LINE
8
0
10
-13.4394671
20
21.0245972
11
-13.3776836
21
21.4931736
0
LINE
8
0
10
-13.3776836
20
21.4931736
11
-13.3720702
21
21.5096996
0
LINE
8
0
10
-13.3720702
20
21.5096996
11
-13.2200594
21
21.9572201
0
LINE
8
0
10
-13.2200594
20
21.9572201
11
-13.2113297
21
21.9723333
0
LINE
8
0
10
-13.2113297
20
21.9723333
11
-12.9749327
21
22.3815975
0
LINE
8
0
10
-12.9749327
20
22.3815975
11
-12.9634223
21
22.3947174
0
LINE
8
0
10
-12.9634223
20
22.3947174
11
-12.6517239
21
22.75
0
LINE
8
0
10
-12.6517239
20
22.75
11
-12.6378751
21
22.7606222
0
LINE
8
0
10
-12.6378751
20
22.7606222
11
-12.2628546
21
23.0482693
0
LINE
8
0
10
-12.2628546
20
23.0482693
11
-12.2471996
21
23.0559855
0
LINE
8
0
10
-12.2471996
20
23.0559855
11
-11.823267
21
23.2649403
0
LINE
8
0
10
-11.823267
20
23.2649403
11
-11.8064075
21
23.2694542
0
LINE
8
0
10
-11.8064075
20
23.2694542
11
-11.3498554
21
23.3916912
0
LINE
8
0
10
-11.3498554
20
23.3916912
11
-11.3324393
21
23.3928293
0
LINE
8
0
10
-11.3324393
20
23.3928293
11
-10.8608131
21
23.4236488
0
LINE
8
0
10
-10.8608131
20
23.4236488
11
-10.8435096
21
23.4213673
0
LINE
8
0
10
-10.8435096
20
23.4213673
11
-10.3749323
21
23.3595829
0
LINE
8
0
10
-10.3749323
20
23.3595829
11
-10.3584063
21
23.3539694
0
LINE
8
0
10
-10.3584063
20
23.3539694
11
-9.91088676
21
23.2019577
0
LINE
8
0
10
-9.91088676
20
23.2019577
11
-9.89577346
21
23.1932281
0
LINE
8
0
10
-9.89577346
20
23.1932281
11
-9.48650837
21
22.9568329
0
LINE
8
0
10
-9.48650837
20
22.9568329
11
-9.47338853
21
22.9453225
0
LINE
8
0
10
-9.47338853
20
22.9453225
11
-9.11810589
21
22.6336231
0
LINE
8
0
10
-9.11810589
20
22.6336231
11
-2.52701846
21
15.5936074
0
LINE
8
0
10
-2.52701846
20
15.5936074
11
-2.28362346
21
15.3336344
0
LINE
8
0
10
-2.28362346
20
15.3336344
11
-2.27300128
21
15.3197856
0
LINE
8
0
10
-2.27300128
20
15.3197856
11
-1.98535478
21
14.9447641
0
LINE
8
0
10
-1.98535478
20
14.9447641
11
-1.97763846
21
14.9291092
0
LINE
8
0
10
-1.97763846
20
14.9291092
11
-1.76868212
21
14.5051765
0
LINE
8
0
10
-1.76868212
20
14.5051765
11
-1.7641682
21
14.488317
0
LINE
8
0
10
-1.7641682
20
14.488317
11
-1.64193201
21
14.031765
0
LINE
8
0
10
-1.64193201
20
14.031765
11
-1.64079395
21
14.0143488
0
LINE
8
0
10
-1.64079395
20
14.0143488
11
-1.64079395
21
14.0143488
0
LINE
8
0
10
-15.403335
20
46.5
11
13.2285208
21
46.5
0
LINE
8
0
10
13.2285208
20
46.5
11
13.2507605
21
46.5
0
LINE
8
0
10
13.2507605
20
46.5
11
13.6416027
21
46.5
0
LINE
8
0
10
13.6416027
20
46.5
11
13.6443812
21
46.5
0
LINE
8
0
10
13.6443812
20
46.5
11
13.6496325
21
46.5
0
LINE
8
0
10
13.6496325
20
46.5
11
13.657022
21
46.5
0
LINE
8
0
10
13.657022
20
46.5
11
13.6658996
21
46.5
0
LINE
8
0
10
13.6658996
20
46.5
11
13.6753969
21
46.5
0
LINE
8
0
10
13.6753969
20
46.5
11
13.684592
21
46.5
0
LINE
8
0
10
13.684592
20
46.5
11
13.6926782
21
46.5
0
LINE
8
0
10
13.6926782
20
46.5
11
13.699079
21
46.5
0
LINE
8
0
10
13.699079
20
46.5
11
13.7034833
21
46.5
0
LINE
8
0
10
13.7034833
20
46.5
11
13.75
21
46.5
0
LINE
8
0
10
13.75
20
46.5
11
13.75
21
46.376107
0
LINE
8
0
10
13.75
20
46.376107
11
13.75
21
46.2979631
0
LINE
8
0
10
13.75
20
46.2979631
11
13.75
21
45.2256133
0
LINE
8
0
10
13.75
20
45.2256133
11
13.75
21
-0.89485484
0
LINE
8
0
10
13.75
20
-0.89485484
11
13.75
21
-0.973629201
0
LINE
8
0
10
13.75
20
-0.973629201
11
13.75
21
-1.10000002
0
LINE
8
0
10
13.75
20
-1.10000002
11
13.7034833
21
-1.10000002
0
LINE
8
0
10
13.7034833
20
-1.10000002
11
13.699079
21
-1.10000002
0
LINE
8
0
10
13.699079
20
-1.10000002
11
13.6926782
21
-1.10000002
0
LINE
8
0
10
13.6926782
20
-1.10000002
11
13.684592
21
-1.10000002
0
LINE
8
0
10
13.684592
20
-1.10000002
11
13.6753969
21
-1.10000002
0
LINE
8
0
10
13.6753969
20
-1.10000002
11
13.6658996
21
-1.10000002
0
LINE
8
0
10
13.6658996
20
-1.10000002
11
13.657022
21
-1.10000002
0
LINE
8
0
10
13.657022
20
-1.10000002
11
13.6496325
21
-1.10000002
0
LINE
8
0
10
13.6496325
20
-1.10000002
11
13.6443812
21
-1.10000002
0
LINE
8
0
10
13.6443812
20
-1.10000002
11
13.6416027
21
-1.10000002
0
LINE
8
0
10
13.6416027
20
-1.10000002
11
13.2507605
21
-1.10000002
0
LINE
8
0
10
13.2507605
20
-1.10000002
11
13.2285208
21
-1.10000002
0
LINE
8
0
10
13.2285208
20
-1.10000002
11
-15.403335
21
-1.10000002
0
LINE
8
0
10
-15.403335
20
-1.10000002
11
-15.4076398
21
-1.10000002
0
LINE
8
0
10
-15.4076398
20
-1.10000002
11
-15.4145234
21
-1.10000002
0
LINE
8
0
10
-15.4145234
20
-1.10000002
11
-15.4234009
21
-1.10000002
0
LINE
8
0
10
-15.4234009
20
-1.10000002
11
-15.4334042
21
-1.10000002
0
LINE
8
0
10
-15.4334042
20
-1.10000002
11
-15.4435458
21
-1.10000002
0
LINE
8
0
10
-15.4435458
20
-1.10000002
11
-15.4529058
21
-1.10000002
0
LINE
8
0
10
-15.4529058
20
-1.10000002
11
-15.4607728
21
-1.10000002
0
LINE
8
0
10
-15.4607728
20
-1.10000002
11
-15.4667045
21
-1.10000002
0
LINE
8
0
10
-15.4667045
20
-1.10000002
11
-15.592291
21
-1.10000002
0
LINE
8
0
10
-15.592291
20
-1.10000002
11
-18.5499992
21
-1.10000002
0
LINE
8
0
10
-18.5499992
20
-1.10000002
11
-18.5499992
21
-0.477838142
0
LINE
8
0
10
-18.5499992
20
-0.477838142
11
-18.5499992
21
-0.45469902
0
LINE
8
0
10
-18.5499992
20
-0.45469902
11
-18.5499992
21
-0.383616972
0
LINE
8
0
10
-18.5499992
20
-0.383616972
11
-18.5499992
21
0.7517952
0
LINE
8
0
10
-18.5499992
20
0.7517952
11
-18.5499992
21
0.872984312
0
LINE
8
0
10
-18.5499992
20
0.872984312
11
-18.5499992
21
1.06887664
0
LINE
8
0
10
-18.5499992
20
1.06887664
11
-18.5499992
21
1.33218443
0
LINE
8
0
10
-18.5499992
20
1.33218443
11
-18.5499992
21
2.35888812
0
LINE
8
0
10
-18.5499992
20
2.35888812
11
-18.5499992
21
2.56593903
0
LINE
8
0
10
-18.5499992
20
2.56593903
11
-18.5499992
21
2.8313498
0
LINE
8
0
10
-18.5499992
20
2.8313498
11
-18.5499992
21
3.2927803
0
LINE
8
0
10
-18.5499992
20
3.2927803
11
-18.5499992
21
3.56946935
0
LINE
8
0
10
-18.5499992
20
3.56946935
11
-18.5499992
21
5.88756705
0
LINE
8
0
10
-18.5499992
20
5.88756705
11
-18.5499992
21
11.2556535
0
LINE
8
0
10
-18.5499992
20
11.2556535
11
-18.5499992
21
16.7503441
0
LINE
8
0
10
-18.5499992
20
16.7503441
11
-18.5499992
21
26.2897724
0
LINE
8
0
10
-18.5499992
20
26.2897724
11
-18.5499992
21
30.9924888
0
LINE
8
0
10
-18.5499992
20
30.9924888
11
-18.5499992
21
32.6471998
0
LINE
8
0
10
-18.5499992
20
32.6471998
11
-18.5499992
21
40.3531908
0
LINE
8
0
10
-18.5499992
20
40.3531908
11
-18.5499992
21
41.2574922
0
LINE
8
0
10
-18.5499992
20
41.2574922
11
-18.5499992
21
41.5307468
0
LINE
8
0
10
-18.5499992
20
41.5307468
11
-18.5499992
21
41.8367797
0
LINE
8
0
10
-18.5499992
20
41.8367797
11
-18.5499992
21
42.150532
0
LINE
8
0
10
-18.5499992
20
42.150532
11
-18.5499992
21
42.4440185
0
LINE
8
0
10
-18.5499992
20
42.4440185
11
-18.5499992
21
42.9107648
0
LINE
8
0
10
-18.5499992
20
42.9107648
11
-18.5499992
21
43.1937877
0
LINE
8
0
10
-18.5499992
20
43.1937877
11
-18.5499992
21
43.4237084
0
LINE
8
0
10
-18.5499992
20
43.4237084
11
-18.5499992
21
44.4226109
0
LINE
8
0
10
-18.5499992
20
44.4226109
11
-18.5499992
21
44.705734
0
LINE
8
0
10
-18.5499992
20
44.705734
11
-18.5499992
21
44.925902
0
LINE
8
0
10
-18.5499992
20
44.925902
11
-18.5499992
21
45.0734368
0
LINE
8
0
10
-18.5499992
20
45.0734368
11
-18.5499992
21
45.1447557
0
LINE
8
0
10
-18.5499992
20
45.1447557
11
-18.5499992
21
46.5
0
LINE
8
0
10
-18.5499992
20
46.5
11
-17.6366927
21
46.5
0
LINE
8
0
10
-17.6366927
20
46.5
11
-15.592291
21
46.5
0
LINE
8
0
10
-15.592291
20
46.5
11
-15.4667045
21
46.5
0
LINE
8
0
10
-15.4667045
20
46.5
11
-15.4607728
21
46.5
0
LINE
8
0
10
-15.4607728
20
46.5
11
-15.4529058
21
46.5
0
LINE
8
0
10
-15.4529058
20
46.5
11
-15.4435458
21
46.5
0
LINE
8
0
10
-15.4435458
20
46.5
11
-15.4334042
21
46.5
0
LINE
8
0
10
-15.4334042
20
46.5
11
-15.4234009
21
46.5
0
LINE
8
0
10
-15.4234009
20
46.5
11
-15.4145234
21
46.5
0
LINE
8
0
10
-15.4145234
20
46.5
11
-15.4076398
21
46.5
0
LINE
8
0
10
-15.4076398
20
46.5
11
-15.403335
21
46.5
0
LINE
8
0
10
-15.403335
20
46.5
11
-15.403335
21
46.5
0
ENDSEC
0
EOF
