0
SECTION
2
ENTITIES
0
LINE
8
0
10
-1.30047871
20
33.2955819
11
-0.897011101
21
33.4944496
0
LINE
8
0
10
-0.897011101
20
33.4944496
11
-0.858112175
21
33.5048644
0
LINE
8
0
10
-0.858112175
20
33.5048644
11
-0.42359966
21
33.6212006
0
LINE
8
0
10
-0.42359966
20
33.6212006
11
-0.383416356
21
33.6238263
0
LINE
8
0
10
-0.383416356
20
33.6238263
11
0.0654430464
21
33.6531563
0
LINE
8
0
10
0.0654430464
20
33.6531563
11
0.105366505
21
33.6478923
0
LINE
8
0
10
0.105366505
20
33.6478923
11
0.551323354
21
33.5890923
0
LINE
8
0
10
0.551323354
20
33.5890923
11
0.589452733
21
33.5761408
0
LINE
8
0
10
0.589452733
20
33.5761408
11
1.01536918
21
33.431469
0
LINE
8
0
10
1.01536918
20
33.431469
11
1.05023918
21
33.4113274
0
LINE
8
0
10
1.05023918
20
33.4113274
11
1.43974745
21
33.1863403
0
LINE
8
0
10
1.43974745
20
33.1863403
11
1.47001806
21
33.1597832
0
LINE
8
0
10
1.47001806
20
33.1597832
11
1.8081497
21
32.8631325
0
LINE
8
0
10
1.8081497
20
32.8631325
11
8.08106168
21
26.162963
0
LINE
8
0
10
8.08106168
20
26.162963
11
8.64263248
21
25.5631428
0
LINE
8
0
10
8.64263248
20
25.5631428
11
8.66714038
21
25.5311904
0
LINE
8
0
10
8.66714038
20
25.5311904
11
8.9409008
21
25.1742725
0
LINE
8
0
10
8.9409008
20
25.1742725
11
8.95870422
21
25.1381529
0
LINE
8
0
10
8.95870422
20
25.1381529
11
9.1575737
21
24.7346859
0
LINE
8
0
10
9.1575737
20
24.7346859
11
9.1679884
21
24.695787
0
LINE
8
0
10
9.1679884
20
24.695787
11
9.28432369
21
24.2612743
0
LINE
8
0
10
9.28432369
20
24.2612743
11
9.28694948
21
24.2210911
0
LINE
8
0
10
9.28694948
20
24.2210911
11
9.31628036
21
23.7722321
0
LINE
8
0
10
9.31628036
20
23.7722321
11
9.31101632
21
23.7323086
0
LINE
8
0
10
9.31101632
20
23.7323086
11
9.25221539
21
23.2863522
0
LINE
8
0
10
9.25221539
20
23.2863522
11
9.23926383
21
23.2482227
0
LINE
8
0
10
9.23926383
20
23.2482227
11
9.09459114
21
22.8223057
0
LINE
8
0
10
9.09459114
20
22.8223057
11
9.07444975
21
22.7874356
0
LINE
8
0
10
9.07444975
20
22.7874356
11
8.84946442
21
22.3979263
0
LINE
8
0
10
8.84946442
20
22.3979263
11
8.82290723
21
22.3676559
0
LINE
8
0
10
8.82290723
20
22.3676559
11
8.52625561
21
22.0295258
0
LINE
8
0
10
8.52625561
20
22.0295258
11
8.49430328
21
22.0050178
0
LINE
8
0
10
8.49430328
20
22.0050178
11
8.13738632
21
21.7312565
0
LINE
8
0
10
8.13738632
20
21.7312565
11
8.10126661
21
21.7134531
0
LINE
8
0
10
8.10126661
20
21.7134531
11
7.69779873
21
21.5145836
0
LINE
8
0
10
7.69779873
20
21.5145836
11
7.65889979
21
21.504169
0
LINE
8
0
10
7.65889979
20
21.504169
11
7.22438717
21
21.3878345
0
LINE
8
0
10
7.22438717
20
21.3878345
11
7.18420386
21
21.3852087
0
LINE
8
0
10
7.18420386
20
21.3852087
11
6.73534441
21
21.3558769
0
LINE
8
0
10
6.73534441
20
21.3558769
11
6.69542095
21
21.361141
0
LINE
8
0
10
6.69542095
20
21.361141
11
6.24946404
21
21.4199429
0
LINE
8
0
10
6.24946404
20
21.4199429
11
6.21133468
21
21.4328943
0
LINE
8
0
10
6.21133468
20
21.4328943
11
5.78541851
21
21.5775661
0
LINE
8
0
10
5.78541851
20
21.5775661
11
5.7505485
21
21.5977075
0
LINE
8
0
10
5.7505485
20
21.5977075
11
5.36104012
21
21.8226929
0
LINE
8
0
10
5.36104012
20
21.8226929
11
5.33076949
21
21.84925
0
LINE
8
0
10
5.33076949
20
21.84925
11
4.99263763
21
22.1459007
0
LINE
8
0
10
4.99263763
20
22.1459007
11
-1.28027425
21
28.8460702
0
LINE
8
0
10
-1.28027425
20
28.8460702
11
-1.84184504
21
29.4458904
0
LINE
8
0
10
-1.84184504
20
29.4458904
11
-1.86635295
21
29.4778428
0
LINE
8
0
10
-1.86635295
20
29.4778428
11
-2.14011359
21
29.8347607
0
LINE
8
0
10
-2.14011359
20
29.8347607
11
-2.15791699
21
29.8708805
0
LINE
8
0
10
-2.15791699
20
29.8708805
11
-2.35678625
21
30.2743492
0
LINE
8
0
10
-2.35678625
20
30.2743492
11
-2.36720095
21
30.313248
0
LINE
8
0
10
-2.36720095
20
30.313248
11
-2.48353624
21
30.7477589
0
LINE
8
0
10
-2.48353624
20
30.7477589
11
-2.48616204
21
30.7879423
0
LINE
8
0
10
-2.48616204
20
30.7879423
11
-2.51549292
21
31.2368031
0
LINE
8
0
10
-2.51549292
20
31.2368031
11
-2.51022887
21
31.2767265
0
LINE
8
0
10
-2.51022887
20
31.2767265
11
-2.45142794
21
31.722683
0
LINE
8
0
10
-2.45142794
20
31.722683
11
-2.43847638
21
31.7608124
0
LINE
8
0
10
-2.43847638
20
31.7608124
11
-2.29380369
21
32.1867294
0
LINE
8
0
10
-2.29380369
20
32.1867294
11
-2.2736623
21
32.2215994
0
LINE
8
0
10
-2.2736623
20
32.2215994
11
-2.04867697
21
32.6111069
0
LINE
8
0
10
-2.04867697
20
32.6111069
11
-2.0221198
21
32.6413773
0
LINE
8
0
10
-2.0221198
20
32.6413773
11
-1.7254684
21
32.9795074
0
LINE
8
0
10
-1.7254684
20
32.9795074
11
-1.69351601
21
33.0040156
0
LINE
8
0
10
-1.69351601
20
33.0040156
11
-1.3365984
21
33.2777786
0
LINE
8
0
10
-1.3365984
20
33.2777786
11
-1.30047871
21
33.2955819
0
LINE
8
0
10
-1.30047871
20
33.2955819
11
-1.30047871
21
33.2955819
0
LINE
8
0
10
-17.6537639
20
46.5
11
-15.6475753
21
46.5
0
LINE
8
0
10
-15.6475753
20
46.5
11
-15.357817
21
46.5
0
LINE
8
0
10
-15.357817
20
46.5
11
-15.3441313
21
46.5
0
LINE
8
0
10
-15.3441313
20
46.5
11
-15.3259801
21
46.5
0
LINE
8
0
10
-15.3259801
20
46.5
11
-15.3043843
21
46.5
0
LINE
8
0
10
-15.3043843
20
46.5
11
-15.2809852
21
46.5
0
LINE
8
0
10
-15.2809852
20
46.5
11
-15.2579053
21
46.5
0
LINE
8
0
10
-15.2579053
20
46.5
11
-15.2374227
21
46.5
0
LINE
8
0
10
-15.2374227
20
46.5
11
-15.2215406
21
46.5
0
LINE
8
0
10
-15.2215406
20
46.5
11
-15.2116084
21
46.5
0
LINE
8
0
10
-15.2116084
20
46.5
11
12.5468221
21
46.5
0
LINE
8
0
10
12.5468221
20
46.5
11
12.5981345
21
46.5
0
LINE
8
0
10
12.5981345
20
46.5
11
13.4999013
21
46.5
0
LINE
8
0
10
13.4999013
20
46.5
11
13.5063122
21
46.5
0
LINE
8
0
10
13.5063122
20
46.5
11
13.5184282
21
46.5
0
LINE
8
0
10
13.5184282
20
46.5
11
13.5354775
21
46.5
0
LINE
8
0
10
13.5354775
20
46.5
11
13.5559601
21
46.5
0
LINE
8
0
10
13.5559601
20
46.5
11
13.5778728
21
46.5
0
LINE
8
0
10
13.5778728
20
46.5
11
13.5990881
21
46.5
0
LINE
8
0
10
13.5990881
20
46.5
11
13.6177448
21
46.5
0
LINE
8
0
10
13.6177448
20
46.5
11
13.632513
21
46.5
0
LINE
8
0
10
13.632513
20
46.5
11
13.6426749
21
46.5
0
LINE
8
0
10
13.6426749
20
46.5
11
13.75
21
46.5
0
LINE
8
0
10
13.75
20
46.5
11
13.75
21
46.2141492
0
LINE
8
0
10
13.75
20
46.2141492
11
13.75
21
46.0338523
0
LINE
8
0
10
13.75
20
46.0338523
11
13.75
21
43.5596835
0
LINE
8
0
10
13.75
20
43.5596835
11
13.75
21
-0.626680789
0
LINE
8
0
10
13.75
20
-0.626680789
11
13.75
21
-0.808432169
0
LINE
8
0
10
13.75
20
-0.808432169
11
13.75
21
-1.10000002
0
LINE
8
0
10
13.75
20
-1.10000002
11
13.6426749
21
-1.10000002
0
LINE
8
0
10
13.6426749
20
-1.10000002
11
13.632513
21
-1.10000002
0
LINE
8
0
10
13.632513
20
-1.10000002
11
13.6177448
21
-1.10000002
0
LINE
8
0
10
13.6177448
20
-1.10000002
11
13.5990881
21
-1.10000002
0
LINE
8
0
10
13.5990881
20
-1.10000002
11
13.5778728
21
-1.10000002
0
LINE
8
0
10
13.5778728
20
-1.10000002
11
13.5559601
21
-1.10000002
0
LINE
8
0
10
13.5559601
20
-1.10000002
11
13.5354775
21
-1.10000002
0
LINE
8
0
10
13.5354775
20
-1.10000002
11
13.5184282
21
-1.10000002
0
LINE
8
0
10
13.5184282
20
-1.10000002
11
13.5063122
21
-1.10000002
0
LINE
8
0
10
13.5063122
20
-1.10000002
11
13.4999013
21
-1.10000002
0
LINE
8
0
10
13.4999013
20
-1.10000002
11
12.5981345
21
-1.10000002
0
LINE
8
0
10
12.5981345
20
-1.10000002
11
12.5468221
21
-1.10000002
0
LINE
8
0
10
12.5468221
20
-1.10000002
11
-15.2116084
21
-1.10000002
0
LINE
8
0
10
-15.2116084
20
-1.10000002
11
-15.2215406
21
-1.10000002
0
LINE
8
0
10
-15.2215406
20
-1.10000002
11
-15.2374227
21
-1.10000002
0
LINE
8
0
10
-15.2374227
20
-1.10000002
11
-15.2579053
21
-1.10000002
0
LINE
8
0
10
-15.2579053
20
-1.10000002
11
-15.2809852
21
-1.10000002
0
LINE
8
0
10
-15.2809852
20
-1.10000002
11
-15.3043843
21
-1.10000002
0
LINE
8
0
10
-15.3043843
20
-1.10000002
11
-15.3259801
21
-1.10000002
0
LINE
8
0
10
-15.3259801
20
-1.10000002
11
-15.3441313
21
-1.10000002
0
LINE
8
0
10
-15.3441313
20
-1.10000002
11
-15.357817
21
-1.10000002
0
LINE
8
0
10
-15.357817
20
-1.10000002
11
-15.6475753
21
-1.10000002
0
LINE
8
0
10
-15.6475753
20
-1.10000002
11
-18.5499992
21
-1.10000002
0
LINE
8
0
10
-18.5499992
20
-1.10000002
11
-18.5499992
21
-0.489467336
0
LINE
8
0
10
-18.5499992
20
-0.489467336
11
-18.5499992
21
-0.466760721
0
LINE
8
0
10
-18.5499992
20
-0.466760721
11
-18.5499992
21
-0.397007309
0
LINE
8
0
10
-18.5499992
20
-0.397007309
11
-18.5499992
21
0.717182205
0
LINE
8
0
10
-18.5499992
20
0.717182205
11
-18.5499992
21
0.8361061
0
LINE
8
0
10
-18.5499992
20
0.8361061
11
-18.5499992
21
1.02833689
0
LINE
8
0
10
-18.5499992
20
1.02833689
11
-18.5499992
21
1.28672304
0
LINE
8
0
10
-18.5499992
20
1.28672304
11
-18.5499992
21
2.41339697
0
LINE
8
0
10
-18.5499992
20
2.41339697
11
-18.5499992
21
2.61357077
0
LINE
8
0
10
-18.5499992
20
2.61357077
11
-18.5499992
21
2.87016603
0
LINE
8
0
10
-18.5499992
20
2.87016603
11
-18.5499992
21
3.38534206
0
LINE
8
0
10
-18.5499992
20
3.38534206
11
-18.5499992
21
3.65042791
0
LINE
8
0
10
-18.5499992
20
3.65042791
11
-18.5499992
21
5.87131407
0
LINE
8
0
10
-18.5499992
20
5.87131407
11
-18.5499992
21
11.014285
0
LINE
8
0
10
-18.5499992
20
11.014285
11
-18.5499992
21
16.2785507
0
LINE
8
0
10
-18.5499992
20
16.2785507
11
-18.5499992
21
26.8647233
0
LINE
8
0
10
-18.5499992
20
26.8647233
11
-18.5499992
21
31.370227
0
LINE
8
0
10
-18.5499992
20
31.370227
11
-18.5499992
21
32.9555462
0
LINE
8
0
10
-18.5499992
20
32.9555462
11
-18.5499992
21
40.3383794
0
LINE
8
0
10
-18.5499992
20
40.3383794
11
-18.5499992
21
41.2047581
0
LINE
8
0
10
-18.5499992
20
41.2047581
11
-18.5499992
21
41.4665536
0
LINE
8
0
10
-18.5499992
20
41.4665536
11
-18.5499992
21
41.7597526
0
LINE
8
0
10
-18.5499992
20
41.7597526
11
-18.5499992
21
42.0603475
0
LINE
8
0
10
-18.5499992
20
42.0603475
11
-18.5499992
21
42.3415264
0
LINE
8
0
10
-18.5499992
20
42.3415264
11
-18.5499992
21
42.8639068
0
LINE
8
0
10
-18.5499992
20
42.8639068
11
-18.5499992
21
43.1375293
0
LINE
8
0
10
-18.5499992
20
43.1375293
11
-18.5499992
21
43.3598133
0
LINE
8
0
10
-18.5499992
20
43.3598133
11
-18.5499992
21
44.4614406
0
LINE
8
0
10
-18.5499992
20
44.4614406
11
-18.5499992
21
44.7392717
0
LINE
8
0
10
-18.5499992
20
44.7392717
11
-18.5499992
21
44.9553244
0
LINE
8
0
10
-18.5499992
20
44.9553244
11
-18.5499992
21
45.1001015
0
LINE
8
0
10
-18.5499992
20
45.1001015
11
-18.5499992
21
45.1700873
0
LINE
8
0
10
-18.5499992
20
45.1700873
11
-18.5499992
21
46.5
0
LINE
8
0
10
-18.5499992
20
46.5
11
-17.6537639
21
46.5
0
LINE
8
0
10
-17.6537639
20
46.5
11
-17.6537639
21
46.5
0
LINE
8
0
10
3.40226603
20
13.1730547
11
3.82818241
21
13.028382
0
LINE
8
0
10
3.82818241
20
13.028382
11
3.86631179
21
13.0154305
0
LINE
8
0
10
3.86631179
20
13.0154305
11
4.31226848
21
12.9566295
0
LINE
8
0
10
4.31226848
20
12.9566295
11
4.35219193
21
12.9513655
0
LINE
8
0
10
4.35219193
20
12.9513655
11
4.80105138
21
12.9806964
0
LINE
8
0
10
4.80105138
20
12.9806964
11
4.84123468
21
12.9833221
0
LINE
8
0
10
4.84123468
20
12.9833221
11
5.27574731
21
13.0996574
0
LINE
8
0
10
5.27574731
20
13.0996574
11
5.31464624
21
13.1100721
0
LINE
8
0
10
5.31464624
20
13.1100721
11
5.71811369
21
13.3089416
0
LINE
8
0
10
5.71811369
20
13.3089416
11
5.75423336
21
13.326745
0
LINE
8
0
10
5.75423336
20
13.326745
11
6.11115119
21
13.6005055
0
LINE
8
0
10
6.11115119
20
13.6005055
11
6.1431036
21
13.6250134
0
LINE
8
0
10
6.1431036
20
13.6250134
11
6.43975478
21
13.9631452
0
LINE
8
0
10
6.43975478
20
13.9631452
11
6.46631193
21
13.9934158
0
LINE
8
0
10
6.46631193
20
13.9934158
11
6.69129726
21
14.3829242
0
LINE
8
0
10
6.69129726
20
14.3829242
11
6.71143866
21
14.4177942
0
LINE
8
0
10
6.71143866
20
14.4177942
11
6.85611178
21
14.8437104
0
LINE
8
0
10
6.85611178
20
14.8437104
11
6.86906338
21
14.8818398
0
LINE
8
0
10
6.86906338
20
14.8818398
11
6.92786387
21
15.3277962
0
LINE
8
0
10
6.92786387
20
15.3277962
11
6.93312788
21
15.3677197
0
LINE
8
0
10
6.93312788
20
15.3677197
11
6.903797
21
15.8165795
0
LINE
8
0
10
6.903797
20
15.8165795
11
6.90117121
21
15.8567629
0
LINE
8
0
10
6.90117121
20
15.8567629
11
6.78483592
21
16.2912746
0
LINE
8
0
10
6.78483592
20
16.2912746
11
6.77442122
21
16.3301735
0
LINE
8
0
10
6.77442122
20
16.3301735
11
6.57555218
21
16.7336422
0
LINE
8
0
10
6.57555218
20
16.7336422
11
6.55774879
21
16.769762
0
LINE
8
0
10
6.55774879
20
16.769762
11
6.28398793
21
17.1266799
0
LINE
8
0
10
6.28398793
20
17.1266799
11
6.25948
21
17.1586323
0
LINE
8
0
10
6.25948
20
17.1586323
11
5.13633842
21
18.3582726
0
LINE
8
0
10
5.13633842
20
18.3582726
11
-7.40948534
21
31.7586098
0
LINE
8
0
10
-7.40948534
20
31.7586098
11
-7.74761719
21
32.0552605
0
LINE
8
0
10
-7.74761719
20
32.0552605
11
-7.77788782
21
32.0818176
0
LINE
8
0
10
-7.77788782
20
32.0818176
11
-8.16739576
21
32.3068047
0
LINE
8
0
10
-8.16739576
20
32.3068047
11
-8.20226574
21
32.3269463
0
LINE
8
0
10
-8.20226574
20
32.3269463
11
-8.62818278
21
32.4716181
0
LINE
8
0
10
-8.62818278
20
32.4716181
11
-8.66631222
21
32.4845695
0
LINE
8
0
10
-8.66631222
20
32.4845695
11
-9.11226869
21
32.5433696
0
LINE
8
0
10
-9.11226869
20
32.5433696
11
-9.15219212
21
32.5486336
0
LINE
8
0
10
-9.15219212
20
32.5486336
11
-9.60105113
21
32.5193036
0
LINE
8
0
10
-9.60105113
20
32.5193036
11
-9.6412344
21
32.5166779
0
LINE
8
0
10
-9.6412344
20
32.5166779
11
-10.075747
21
32.4003417
0
LINE
8
0
10
-10.075747
20
32.4003417
11
-10.114646
21
32.3899269
0
LINE
8
0
10
-10.114646
20
32.3899269
11
-10.5181138
21
32.1910592
0
LINE
8
0
10
-10.5181138
20
32.1910592
11
-10.5542336
21
32.1732559
0
LINE
8
0
10
-10.5542336
20
32.1732559
11
-10.9111514
21
31.8994946
0
LINE
8
0
10
-10.9111514
20
31.8994946
11
-10.9431038
21
31.8749866
0
LINE
8
0
10
-10.9431038
20
31.8749866
11
-11.2397554
21
31.5368548
0
LINE
8
0
10
-11.2397554
20
31.5368548
11
-11.2663126
21
31.5065842
0
LINE
8
0
10
-11.2663126
20
31.5065842
11
-11.4912971
21
31.1170767
0
LINE
8
0
10
-11.4912971
20
31.1170767
11
-11.5114384
21
31.0822067
0
LINE
8
0
10
-11.5114384
20
31.0822067
11
-11.6561119
21
30.6562897
0
LINE
8
0
10
-11.6561119
20
30.6562897
11
-11.6690636
21
30.6181602
0
LINE
8
0
10
-11.6690636
20
30.6181602
11
-11.7278645
21
30.1722038
0
LINE
8
0
10
-11.7278645
20
30.1722038
11
-11.7331285
21
30.1322803
0
LINE
8
0
10
-11.7331285
20
30.1322803
11
-11.7037977
21
29.6834213
0
LINE
8
0
10
-11.7037977
20
29.6834213
11
-11.7011719
21
29.6432381
0
LINE
8
0
10
-11.7011719
20
29.6432381
11
-11.5848357
21
29.2087254
0
LINE
8
0
10
-11.5848357
20
29.2087254
11
-11.5744209
21
29.1698265
0
LINE
8
0
10
-11.5744209
20
29.1698265
11
-11.3755523
21
28.7663578
0
LINE
8
0
10
-11.3755523
20
28.7663578
11
-11.357749
21
28.730238
0
LINE
8
0
10
-11.357749
20
28.730238
11
-11.0839877
21
28.3733201
0
LINE
8
0
10
-11.0839877
20
28.3733201
11
-11.0594797
21
28.3413677
0
LINE
8
0
10
-11.0594797
20
28.3413677
11
-9.93633815
21
27.1417274
0
LINE
8
0
10
-9.93633815
20
27.1417274
11
2.60948539
21
13.7413902
0
LINE
8
0
10
2.60948539
20
13.7413902
11
2.94761702
21
13.4447386
0
LINE
8
0
10
2.94761702
20
13.4447386
11
2.97788763
21
13.4181814
0
LINE
8
0
10
2.97788763
20
13.4181814
11
3.36739601
21
13.1931961
0
LINE
8
0
10
3.36739601
20
13.1931961
11
3.40226603
21
13.1730547
0
LINE
8
0
10
3.40226603
20
13.1730547
11
3.40226603
21
13.1730547
0
LINE
8
0
10
-2.43195248
20
11.7755084
11
-2.4000001
21
11.8000164
0
LINE
8
0
10
-2.4000001
20
11.8000164
11
-2.10334847
21
12.1381474
0
LINE
8
0
10
-2.10334847
20
12.1381474
11
-2.07679129
21
12.1684179
0
LINE
8
0
10
-2.07679129
20
12.1684179
11
-1.85180618
21
12.5579263
0
LINE
8
0
10
-1.85180618
20
12.5579263
11
-1.8316648
21
12.5927963
0
LINE
8
0
10
-1.8316648
20
12.5927963
11
-1.68699189
21
13.0187125
0
LINE
8
0
10
-1.68699189
20
13.0187125
11
-1.67404032
21
13.0568419
0
LINE
8
0
10
-1.67404032
20
13.0568419
11
-1.61523949
21
13.5027992
0
LINE
8
0
10
-1.61523949
20
13.5027992
11
-1.60997546
21
13.5427227
0
LINE
8
0
10
-1.60997546
20
13.5427227
11
-1.63930623
21
13.9915817
0
LINE
8
0
10
-1.63930623
20
13.9915817
11
-1.64193201
21
14.031765
0
LINE
8
0
10
-1.64193201
20
14.031765
11
-1.75826741
21
14.4662776
0
LINE
8
0
10
-1.75826741
20
14.4662776
11
-1.76868212
21
14.5051765
0
LINE
8
0
10
-1.76868212
20
14.5051765
11
-1.96755138
21
14.9086444
0
LINE
8
0
10
-1.96755138
20
14.9086444
11
-1.98535478
21
14.9447641
0
LINE
8
0
10
-1.98535478
20
14.9447641
11
-2.25911553
21
15.301682
0
LINE
8
0
10
-2.25911553
20
15.301682
11
-2.28362346
21
15.3336344
0
LINE
8
0
10
-2.28362346
20
15.3336344
11
-2.84519423
21
15.9334545
0
LINE
8
0
10
-2.84519423
20
15.9334545
11
-9.11810589
21
22.6336231
0
LINE
8
0
10
-9.11810589
20
22.6336231
11
-9.45623774
21
22.9302756
0
LINE
8
0
10
-9.45623774
20
22.9302756
11
-9.48650837
21
22.9568329
0
LINE
8
0
10
-9.48650837
20
22.9568329
11
-9.87601675
21
23.1818165
0
LINE
8
0
10
-9.87601675
20
23.1818165
11
-9.91088676
21
23.2019577
0
LINE
8
0
10
-9.91088676
20
23.2019577
11
-10.3368029
21
23.3466313
0
LINE
8
0
10
-10.3368029
20
23.3466313
11
-10.3749323
21
23.3595829
0
LINE
8
0
10
-10.3749323
20
23.3595829
11
-10.8208896
21
23.4183847
0
LINE
8
0
10
-10.8208896
20
23.4183847
11
-10.8608131
21
23.4236488
0
LINE
8
0
10
-10.8608131
20
23.4236488
11
-11.3096722
21
23.3943171
0
LINE
8
0
10
-11.3096722
20
23.3943171
11
-11.3498554
21
23.3916912
0
LINE
8
0
10
-11.3498554
20
23.3916912
11
-11.784368
21
23.275355
0
LINE
8
0
10
-11.784368
20
23.275355
11
-11.823267
21
23.2649403
0
LINE
8
0
10
-11.823267
20
23.2649403
11
-12.2267349
21
23.0660725
0
LINE
8
0
10
-12.2267349
20
23.0660725
11
-12.2628546
21
23.0482693
0
LINE
8
0
10
-12.2628546
20
23.0482693
11
-12.6197715
21
22.774508
0
LINE
8
0
10
-12.6197715
20
22.774508
11
-12.6517239
21
22.75
0
LINE
8
0
10
-12.6517239
20
22.75
11
-12.9483755
21
22.4118681
0
LINE
8
0
10
-12.9483755
20
22.4118681
11
-12.9749327
21
22.3815975
0
LINE
8
0
10
-12.9749327
20
22.3815975
11
-13.199918
21
21.99209
0
LINE
8
0
10
-13.199918
20
21.99209
11
-13.2200594
21
21.9572201
0
LINE
8
0
10
-13.2200594
20
21.9572201
11
-13.3647321
21
21.531303
0
LINE
8
0
10
-13.3647321
20
21.531303
11
-13.3776836
21
21.4931736
0
LINE
8
0
10
-13.3776836
20
21.4931736
11
-13.4364846
21
21.0472171
0
LINE
8
0
10
-13.4364846
20
21.0472171
11
-13.4417486
21
21.0072937
0
LINE
8
0
10
-13.4417486
20
21.0072937
11
-13.4124177
21
20.5584347
0
LINE
8
0
10
-13.4124177
20
20.5584347
11
-13.4097919
21
20.5182514
0
LINE
8
0
10
-13.4097919
20
20.5182514
11
-13.2934567
21
20.0837388
0
LINE
8
0
10
-13.2934567
20
20.0837388
11
-13.283042
21
20.0448399
0
LINE
8
0
10
-13.283042
20
20.0448399
11
-13.0841725
21
19.6413711
0
LINE
8
0
10
-13.0841725
20
19.6413711
11
-13.0663691
21
19.6052513
0
LINE
8
0
10
-13.0663691
20
19.6052513
11
-12.7926086
21
19.2483335
0
LINE
8
0
10
-12.7926086
20
19.2483335
11
-12.7681007
21
19.2163811
0
LINE
8
0
10
-12.7681007
20
19.2163811
11
-12.2065299
21
18.6165609
0
LINE
8
0
10
-12.2065299
20
18.6165609
11
-5.93361807
21
11.9163923
0
LINE
8
0
10
-5.93361807
20
11.9163923
11
-5.59548665
21
11.6197407
0
LINE
8
0
10
-5.59548665
20
11.6197407
11
-5.56521606
21
11.5931835
0
LINE
8
0
10
-5.56521606
20
11.5931835
11
-5.17570768
21
11.3681991
0
LINE
8
0
10
-5.17570768
20
11.3681991
11
-5.14083767
21
11.3480577
0
LINE
8
0
10
-5.14083767
20
11.3480577
11
-4.71492106
21
11.2033842
0
LINE
8
0
10
-4.71492106
20
11.2033842
11
-4.67679167
21
11.1904325
0
LINE
8
0
10
-4.67679167
20
11.1904325
11
-4.23083476
21
11.1316316
0
LINE
8
0
10
-4.23083476
20
11.1316316
11
-4.19091129
21
11.1263676
0
LINE
8
0
10
-4.19091129
20
11.1263676
11
-3.74205206
21
11.1556984
0
LINE
8
0
10
-3.74205206
20
11.1556984
11
-3.70186877
21
11.1583242
0
LINE
8
0
10
-3.70186877
20
11.1583242
11
-3.26735615
21
11.2746604
0
LINE
8
0
10
-3.26735615
20
11.2746604
11
-3.22845721
21
11.2850752
0
LINE
8
0
10
-3.22845721
20
11.2850752
11
-2.82498977
21
11.4839438
0
LINE
8
0
10
-2.82498977
20
11.4839438
11
-2.7888701
21
11.5017471
0
LINE
8
0
10
-2.7888701
20
11.5017471
11
-2.43195248
21
11.7755084
0
LINE
8
0
10
-2.43195248
20
11.7755084
11
-2.43195248
21
11.7755084
0
ENDSEC
0
EOF
