0
SECTION
2
ENTITIES
0
LINE
8
0
10
3.40226603
20
13.1730547
11
3.7849756
21
13.0430582
0
LINE
8
0
10
3.7849756
20
13.0430582
11
3.86631179
21
13.0154305
0
LINE
8
0
10
3.86631179
20
13.0154305
11
4.26702869
21
12.9625945
0
LINE
8
0
10
4.26702869
20
12.9625945
11
4.35219193
21
12.9513655
0
LINE
8
0
10
4.35219193
20
12.9513655
11
4.75551711
21
12.9777209
0
LINE
8
0
10
4.75551711
20
12.9777209
11
4.84123468
21
12.9833221
0
LINE
8
0
10
4.84123468
20
12.9833221
11
5.23166845
21
13.0878559
0
LINE
8
0
10
5.23166845
20
13.0878559
11
5.31464624
21
13.1100721
0
LINE
8
0
10
5.31464624
20
13.1100721
11
5.67718419
21
13.2887674
0
LINE
8
0
10
5.67718419
20
13.2887674
11
5.75423336
21
13.326745
0
LINE
8
0
10
5.75423336
20
13.326745
11
6.07494389
21
13.572734
0
LINE
8
0
10
6.07494389
20
13.572734
11
6.1431036
21
13.6250134
0
LINE
8
0
10
6.1431036
20
13.6250134
11
6.40966119
21
13.9288436
0
LINE
8
0
10
6.40966119
20
13.9288436
11
6.46631193
21
13.9934158
0
LINE
8
0
10
6.46631193
20
13.9934158
11
6.66847377
21
14.3434108
0
LINE
8
0
10
6.66847377
20
14.3434108
11
6.71143866
21
14.4177942
0
LINE
8
0
10
6.71143866
20
14.4177942
11
6.84143551
21
14.8005036
0
LINE
8
0
10
6.84143551
20
14.8005036
11
6.86906338
21
14.8818398
0
LINE
8
0
10
6.86906338
20
14.8818398
11
6.9218989
21
15.2825565
0
LINE
8
0
10
6.9218989
20
15.2825565
11
6.93312788
21
15.3677197
0
LINE
8
0
10
6.93312788
20
15.3677197
11
6.90677245
21
15.7710452
0
LINE
8
0
10
6.90677245
20
15.7710452
11
6.90117121
21
15.8567629
0
LINE
8
0
10
6.90117121
20
15.8567629
11
6.79663748
21
16.2471959
0
LINE
8
0
10
6.79663748
20
16.2471959
11
6.77442122
21
16.3301735
0
LINE
8
0
10
6.77442122
20
16.3301735
11
6.59572632
21
16.6927126
0
LINE
8
0
10
6.59572632
20
16.6927126
11
6.55774879
21
16.769762
0
LINE
8
0
10
6.55774879
20
16.769762
11
6.31175943
21
17.0904726
0
LINE
8
0
10
6.31175943
20
17.0904726
11
6.25948
21
17.1586323
0
LINE
8
0
10
6.25948
20
17.1586323
11
3.86363533
21
19.7176612
0
LINE
8
0
10
3.86363533
20
19.7176612
11
-7.40948534
21
31.7586098
0
LINE
8
0
10
-7.40948534
20
31.7586098
11
-7.71331562
21
32.025167
0
LINE
8
0
10
-7.71331562
20
32.025167
11
-7.77788782
21
32.0818176
0
LINE
8
0
10
-7.77788782
20
32.0818176
11
-8.12788238
21
32.283981
0
LINE
8
0
10
-8.12788238
20
32.283981
11
-8.20226574
21
32.3269463
0
LINE
8
0
10
-8.20226574
20
32.3269463
11
-8.5849759
21
32.4569419
0
LINE
8
0
10
-8.5849759
20
32.4569419
11
-8.66631222
21
32.4845695
0
LINE
8
0
10
-8.66631222
20
32.4845695
11
-9.06702892
21
32.5374047
0
LINE
8
0
10
-9.06702892
20
32.5374047
11
-9.15219212
21
32.5486336
0
LINE
8
0
10
-9.15219212
20
32.5486336
11
-9.55551691
21
32.5222789
0
LINE
8
0
10
-9.55551691
20
32.5222789
11
-9.6412344
21
32.5166779
0
LINE
8
0
10
-9.6412344
20
32.5166779
11
-10.0316682
21
32.4121433
0
LINE
8
0
10
-10.0316682
20
32.4121433
11
-10.114646
21
32.3899269
0
LINE
8
0
10
-10.114646
20
32.3899269
11
-10.4771843
21
32.2112332
0
LINE
8
0
10
-10.4771843
20
32.2112332
11
-10.5542336
21
32.1732559
0
LINE
8
0
10
-10.5542336
20
32.1732559
11
-10.8749441
21
31.9272662
0
LINE
8
0
10
-10.8749441
20
31.9272662
11
-10.9431038
21
31.8749866
0
LINE
8
0
10
-10.9431038
20
31.8749866
11
-11.2096618
21
31.5711564
0
LINE
8
0
10
-11.2096618
20
31.5711564
11
-11.2663126
21
31.5065842
0
LINE
8
0
10
-11.2663126
20
31.5065842
11
-11.4684736
21
31.15659
0
LINE
8
0
10
-11.4684736
20
31.15659
11
-11.5114384
21
31.0822067
0
LINE
8
0
10
-11.5114384
20
31.0822067
11
-11.6414356
21
30.6994966
0
LINE
8
0
10
-11.6414356
20
30.6994966
11
-11.6690636
21
30.6181602
0
LINE
8
0
10
-11.6690636
20
30.6181602
11
-11.7218995
21
30.2174435
0
LINE
8
0
10
-11.7218995
20
30.2174435
11
-11.7331285
21
30.1322803
0
LINE
8
0
10
-11.7331285
20
30.1322803
11
-11.7067731
21
29.7289556
0
LINE
8
0
10
-11.7067731
20
29.7289556
11
-11.7011719
21
29.6432381
0
LINE
8
0
10
-11.7011719
20
29.6432381
11
-11.5966374
21
29.2528043
0
LINE
8
0
10
-11.5966374
20
29.2528043
11
-11.5744209
21
29.1698265
0
LINE
8
0
10
-11.5744209
20
29.1698265
11
-11.3957264
21
28.8072874
0
LINE
8
0
10
-11.3957264
20
28.8072874
11
-11.357749
21
28.730238
0
LINE
8
0
10
-11.357749
20
28.730238
11
-11.1117592
21
28.4095274
0
LINE
8
0
10
-11.1117592
20
28.4095274
11
-11.0594797
21
28.3413677
0
LINE
8
0
10
-11.0594797
20
28.3413677
11
-8.66363508
21
25.7823388
0
LINE
8
0
10
-8.66363508
20
25.7823388
11
2.60948539
21
13.7413902
0
LINE
8
0
10
2.60948539
20
13.7413902
11
2.91331548
21
13.4748322
0
LINE
8
0
10
2.91331548
20
13.4748322
11
2.97788763
21
13.4181814
0
LINE
8
0
10
2.97788763
20
13.4181814
11
3.32788258
21
13.2160196
0
LINE
8
0
10
3.32788258
20
13.2160196
11
3.40226603
21
13.1730547
0
LINE
8
0
10
3.40226603
20
13.1730547
11
3.40226603
21
13.1730547
0
LINE
8
0
10
-0.3378821
20
33.6268016
11
-0.42359966
21
33.6212006
0
LINE
8
0
10
-0.42359966
20
33.6212006
11
-0.81403333
21
33.516666
0
LINE
8
0
10
-0.81403333
20
33.516666
11
-0.897011101
21
33.4944496
0
LINE
8
0
10
-0.897011101
20
33.4944496
11
-1.25954919
21
33.3157559
0
LINE
8
0
10
-1.25954919
20
33.3157559
11
-1.3365984
21
33.2777786
0
LINE
8
0
10
-1.3365984
20
33.2777786
11
-1.65730873
21
33.0317873
0
LINE
8
0
10
-1.65730873
20
33.0317873
11
-1.7254684
21
32.9795074
0
LINE
8
0
10
-1.7254684
20
32.9795074
11
-1.99202619
21
32.6756787
0
LINE
8
0
10
-1.99202619
20
32.6756787
11
-2.04867697
21
32.6111069
0
LINE
8
0
10
-2.04867697
20
32.6111069
11
-2.2508388
21
32.2611127
0
LINE
8
0
10
-2.2508388
20
32.2611127
11
-2.29380369
21
32.1867294
0
LINE
8
0
10
-2.29380369
20
32.1867294
11
-2.42380015
21
31.8040193
0
LINE
8
0
10
-2.42380015
20
31.8040193
11
-2.45142794
21
31.722683
0
LINE
8
0
10
-2.45142794
20
31.722683
11
-2.50426385
21
31.3219663
0
LINE
8
0
10
-2.50426385
20
31.3219663
11
-2.51549292
21
31.2368031
0
LINE
8
0
10
-2.51549292
20
31.2368031
11
-2.48913749
21
30.8334767
0
LINE
8
0
10
-2.48913749
20
30.8334767
11
-2.48353624
21
30.7477589
0
LINE
8
0
10
-2.48353624
20
30.7477589
11
-2.37900251
21
30.3573267
0
LINE
8
0
10
-2.37900251
20
30.3573267
11
-2.35678625
21
30.2743492
0
LINE
8
0
10
-2.35678625
20
30.2743492
11
-2.17809116
21
29.9118101
0
LINE
8
0
10
-2.17809116
20
29.9118101
11
-2.14011359
21
29.8347607
0
LINE
8
0
10
-2.14011359
20
29.8347607
11
-1.89412442
21
29.5140501
0
LINE
8
0
10
-1.89412442
20
29.5140501
11
-1.84184504
21
29.4458904
0
LINE
8
0
10
-1.84184504
20
29.4458904
11
-0.643922699
21
28.1663758
0
LINE
8
0
10
-0.643922699
20
28.1663758
11
4.99263763
21
22.1459007
0
LINE
8
0
10
4.99263763
20
22.1459007
11
5.29646792
21
21.8793435
0
LINE
8
0
10
5.29646792
20
21.8793435
11
5.36104012
21
21.8226929
0
LINE
8
0
10
5.36104012
20
21.8226929
11
5.71103507
21
21.620531
0
LINE
8
0
10
5.71103507
20
21.620531
11
5.78541851
21
21.5775661
0
LINE
8
0
10
5.78541851
20
21.5775661
11
6.16812789
21
21.4475705
0
LINE
8
0
10
6.16812789
20
21.4475705
11
6.24946404
21
21.4199429
0
LINE
8
0
10
6.24946404
20
21.4199429
11
6.65018113
21
21.3671062
0
LINE
8
0
10
6.65018113
20
21.3671062
11
6.73534441
21
21.3558769
0
LINE
8
0
10
6.73534441
20
21.3558769
11
7.1386696
21
21.3822331
0
LINE
8
0
10
7.1386696
20
21.3822331
11
7.22438717
21
21.3878345
0
LINE
8
0
10
7.22438717
20
21.3878345
11
7.61482094
21
21.4923675
0
LINE
8
0
10
7.61482094
20
21.4923675
11
7.69779873
21
21.5145836
0
LINE
8
0
10
7.69779873
20
21.5145836
11
8.06033707
21
21.6932789
0
LINE
8
0
10
8.06033707
20
21.6932789
11
8.13738632
21
21.7312565
0
LINE
8
0
10
8.13738632
20
21.7312565
11
8.45809607
21
21.9772462
0
LINE
8
0
10
8.45809607
20
21.9772462
11
8.52625561
21
22.0295258
0
LINE
8
0
10
8.52625561
20
22.0295258
11
8.7928136
21
22.3333545
0
LINE
8
0
10
8.7928136
20
22.3333545
11
8.84946442
21
22.3979263
0
LINE
8
0
10
8.84946442
20
22.3979263
11
9.05162625
21
22.7479221
0
LINE
8
0
10
9.05162625
20
22.7479221
11
9.09459114
21
22.8223057
0
LINE
8
0
10
9.09459114
20
22.8223057
11
9.2245876
21
23.2050158
0
LINE
8
0
10
9.2245876
20
23.2050158
11
9.25221539
21
23.2863522
0
LINE
8
0
10
9.25221539
20
23.2863522
11
9.3050513
21
23.6870689
0
LINE
8
0
10
9.3050513
20
23.6870689
11
9.31628036
21
23.7722321
0
LINE
8
0
10
9.31628036
20
23.7722321
11
9.28992494
21
24.1755569
0
LINE
8
0
10
9.28992494
20
24.1755569
11
9.28432369
21
24.2612743
0
LINE
8
0
10
9.28432369
20
24.2612743
11
9.17978996
21
24.6517081
0
LINE
8
0
10
9.17978996
20
24.6517081
11
9.1575737
21
24.7346859
0
LINE
8
0
10
9.1575737
20
24.7346859
11
8.97887841
21
25.0972234
0
LINE
8
0
10
8.97887841
20
25.0972234
11
8.9409008
21
25.1742725
0
LINE
8
0
10
8.9409008
20
25.1742725
11
8.69491183
21
25.4949831
0
LINE
8
0
10
8.69491183
20
25.4949831
11
8.64263248
21
25.5631428
0
LINE
8
0
10
8.64263248
20
25.5631428
11
7.44471013
21
26.8426574
0
LINE
8
0
10
7.44471013
20
26.8426574
11
1.8081497
21
32.8631325
0
LINE
8
0
10
1.8081497
20
32.8631325
11
1.50431961
21
33.1296897
0
LINE
8
0
10
1.50431961
20
33.1296897
11
1.43974745
21
33.1863403
0
LINE
8
0
10
1.43974745
20
33.1863403
11
1.0897526
21
33.3885037
0
LINE
8
0
10
1.0897526
20
33.3885037
11
1.01536918
21
33.431469
0
LINE
8
0
10
1.01536918
20
33.431469
11
0.632659555
21
33.5614646
0
LINE
8
0
10
0.632659555
20
33.5614646
11
0.551323354
21
33.5890923
0
LINE
8
0
10
0.551323354
20
33.5890923
11
0.150606314
21
33.6419274
0
LINE
8
0
10
0.150606314
20
33.6419274
11
0.0654430464
21
33.6531563
0
LINE
8
0
10
0.0654430464
20
33.6531563
11
-0.3378821
21
33.6268016
0
LINE
8
0
10
-0.3378821
20
33.6268016
11
-0.3378821
21
33.6268016
0
LINE
8
0
10
-3.48154575
20
16.6131489
11
-9.11810589
21
22.6336231
0
LINE
8
0
10
-9.11810589
20
22.6336231
11
-9.42193617
21
22.9001819
0
LINE
8
0
10
-9.42193617
20
22.9001819
11
-9.48650837
21
22.9568329
0
LINE
8
0
10
-9.48650837
20
22.9568329
11
-9.83650332
21
23.1589931
0
LINE
8
0
10
-9.83650332
20
23.1589931
11
-9.91088676
21
23.2019577
0
LINE
8
0
10
-9.91088676
20
23.2019577
11
-10.2935961
21
23.331955
0
LINE
8
0
10
-10.2935961
20
23.331955
11
-10.3749323
21
23.3595829
0
LINE
8
0
10
-10.3749323
20
23.3595829
11
-10.7756498
21
23.4124196
0
LINE
8
0
10
-10.7756498
20
23.4124196
11
-10.8608131
21
23.4236488
0
LINE
8
0
10
-10.8608131
20
23.4236488
11
-11.2641379
21
23.3972926
0
LINE
8
0
10
-11.2641379
20
23.3972926
11
-11.3498554
21
23.3916912
0
LINE
8
0
10
-11.3498554
20
23.3916912
11
-11.7402892
21
23.2871567
0
LINE
8
0
10
-11.7402892
20
23.2871567
11
-11.823267
21
23.2649403
0
LINE
8
0
10
-11.823267
20
23.2649403
11
-12.1858053
21
23.0862465
0
LINE
8
0
10
-12.1858053
20
23.0862465
11
-12.2628546
21
23.0482693
0
LINE
8
0
10
-12.2628546
20
23.0482693
11
-12.5835643
21
22.8022795
0
LINE
8
0
10
-12.5835643
20
22.8022795
11
-12.6517239
21
22.75
0
LINE
8
0
10
-12.6517239
20
22.75
11
-12.9182819
21
22.4461697
0
LINE
8
0
10
-12.9182819
20
22.4461697
11
-12.9749327
21
22.3815975
0
LINE
8
0
10
-12.9749327
20
22.3815975
11
-13.1770945
21
22.0316034
0
LINE
8
0
10
-13.1770945
20
22.0316034
11
-13.2200594
21
21.9572201
0
LINE
8
0
10
-13.2200594
20
21.9572201
11
-13.3500559
21
21.5745099
0
LINE
8
0
10
-13.3500559
20
21.5745099
11
-13.3776836
21
21.4931736
0
LINE
8
0
10
-13.3776836
20
21.4931736
11
-13.4305196
21
21.0924569
0
LINE
8
0
10
-13.4305196
20
21.0924569
11
-13.4417486
21
21.0072937
0
LINE
8
0
10
-13.4417486
20
21.0072937
11
-13.4153932
21
20.6039689
0
LINE
8
0
10
-13.4153932
20
20.6039689
11
-13.4097919
21
20.5182514
0
LINE
8
0
10
-13.4097919
20
20.5182514
11
-13.3052582
21
20.1278177
0
LINE
8
0
10
-13.3052582
20
20.1278177
11
-13.283042
21
20.0448399
0
LINE
8
0
10
-13.283042
20
20.0448399
11
-13.1043467
21
19.6823007
0
LINE
8
0
10
-13.1043467
20
19.6823007
11
-13.0663691
21
19.6052513
0
LINE
8
0
10
-13.0663691
20
19.6052513
11
-12.8203801
21
19.2845408
0
LINE
8
0
10
-12.8203801
20
19.2845408
11
-12.7681007
21
19.2163811
0
LINE
8
0
10
-12.7681007
20
19.2163811
11
-11.5701784
21
17.9368666
0
LINE
8
0
10
-11.5701784
20
17.9368666
11
-5.93361807
21
11.9163923
0
LINE
8
0
10
-5.93361807
20
11.9163923
11
-5.62978818
21
11.6498343
0
LINE
8
0
10
-5.62978818
20
11.6498343
11
-5.56521606
21
11.5931835
0
LINE
8
0
10
-5.56521606
20
11.5931835
11
-5.21522111
21
11.3910225
0
LINE
8
0
10
-5.21522111
20
11.3910225
11
-5.14083767
21
11.3480577
0
LINE
8
0
10
-5.14083767
20
11.3480577
11
-4.7581279
21
11.2180605
0
LINE
8
0
10
-4.7581279
20
11.2180605
11
-4.67679167
21
11.1904325
0
LINE
8
0
10
-4.67679167
20
11.1904325
11
-4.27607457
21
11.1375966
0
LINE
8
0
10
-4.27607457
20
11.1375966
11
-4.19091129
21
11.1263676
0
LINE
8
0
10
-4.19091129
20
11.1263676
11
-3.7875863
21
11.152723
0
LINE
8
0
10
-3.7875863
20
11.152723
11
-3.70186877
21
11.1583242
0
LINE
8
0
10
-3.70186877
20
11.1583242
11
-3.311435
21
11.2628588
0
LINE
8
0
10
-3.311435
20
11.2628588
11
-3.22845721
21
11.2850752
0
LINE
8
0
10
-3.22845721
20
11.2850752
11
-2.86591927
21
11.4637697
0
LINE
8
0
10
-2.86591927
20
11.4637697
11
-2.7888701
21
11.5017471
0
LINE
8
0
10
-2.7888701
20
11.5017471
11
-2.46815976
21
11.7477369
0
LINE
8
0
10
-2.46815976
20
11.7477369
11
-2.4000001
21
11.8000164
0
LINE
8
0
10
-2.4000001
20
11.8000164
11
-2.13344211
21
12.1038459
0
LINE
8
0
10
-2.13344211
20
12.1038459
11
-2.07679129
21
12.1684179
0
LINE
8
0
10
-2.07679129
20
12.1684179
11
-1.87462965
21
12.5184129
0
LINE
8
0
10
-1.87462965
20
12.5184129
11
-1.8316648
21
12.5927963
0
LINE
8
0
10
-1.8316648
20
12.5927963
11
-1.70166814
21
12.9755057
0
LINE
8
0
10
-1.70166814
20
12.9755057
11
-1.67404032
21
13.0568419
0
LINE
8
0
10
-1.67404032
20
13.0568419
11
-1.6212045
21
13.4575593
0
LINE
8
0
10
-1.6212045
20
13.4575593
11
-1.60997546
21
13.5427227
0
LINE
8
0
10
-1.60997546
20
13.5427227
11
-1.63633079
21
13.9460475
0
LINE
8
0
10
-1.63633079
20
13.9460475
11
-1.64193201
21
14.031765
0
LINE
8
0
10
-1.64193201
20
14.031765
11
-1.74646584
21
14.4221988
0
LINE
8
0
10
-1.74646584
20
14.4221988
11
-1.76868212
21
14.5051765
0
LINE
8
0
10
-1.76868212
20
14.5051765
11
-1.94737721
21
14.8677149
0
LINE
8
0
10
-1.94737721
20
14.8677149
11
-1.98535478
21
14.9447641
0
LINE
8
0
10
-1.98535478
20
14.9447641
11
-2.23134405
21
15.2654747
0
LINE
8
0
10
-2.23134405
20
15.2654747
11
-2.28362346
21
15.3336344
0
LINE
8
0
10
-2.28362346
20
15.3336344
11
-3.48154575
21
16.6131489
0
LINE
8
0
10
-3.48154575
20
16.6131489
11
-3.48154575
21
16.6131489
0
LINE
8
0
10
13.230174
20
46.5
11
13.2560194
21
46.5
0
LINE
8
0
10
13.2560194
20
46.5
11
13.2923885
21
46.5
0
LINE
8
0
10
13.2923885
20
46.5
11
13.3360811
21
46.5
0
LINE
8
0
10
13.3360811
20
46.5
11
13.3828245
21
46.5
0
LINE
8
0
10
13.3828245
20
46.5
11
13.4280802
21
46.5
0
LINE
8
0
10
13.4280802
20
46.5
11
13.4678781
21
46.5
0
LINE
8
0
10
13.4678781
20
46.5
11
13.499381
21
46.5
0
LINE
8
0
10
13.499381
20
46.5
11
13.5210579
21
46.5
0
LINE
8
0
10
13.5210579
20
46.5
11
13.75
21
46.5
0
LINE
8
0
10
13.75
20
46.5
11
13.75
21
45.8902334
0
LINE
8
0
10
13.75
20
45.8902334
11
13.75
21
45.5056307
0
LINE
8
0
10
13.75
20
45.5056307
11
13.75
21
40.2278241
0
LINE
8
0
10
13.75
20
40.2278241
11
13.75
21
-0.0903326861
0
LINE
8
0
10
13.75
20
-0.0903326861
11
13.75
21
-0.478038106
0
LINE
8
0
10
13.75
20
-0.478038106
11
13.75
21
-1.10000002
0
LINE
8
0
10
13.75
20
-1.10000002
11
13.5210579
21
-1.10000002
0
LINE
8
0
10
13.5210579
20
-1.10000002
11
13.499381
21
-1.10000002
0
LINE
8
0
10
13.499381
20
-1.10000002
11
13.4678781
21
-1.10000002
0
LINE
8
0
10
13.4678781
20
-1.10000002
11
13.4280802
21
-1.10000002
0
LINE
8
0
10
13.4280802
20
-1.10000002
11
13.3828245
21
-1.10000002
0
LINE
8
0
10
13.3828245
20
-1.10000002
11
13.3360811
21
-1.10000002
0
LINE
8
0
10
13.3360811
20
-1.10000002
11
13.2923885
21
-1.10000002
0
LINE
8
0
10
13.2923885
20
-1.10000002
11
13.2560194
21
-1.10000002
0
LINE
8
0
10
13.2560194
20
-1.10000002
11
13.230174
21
-1.10000002
0
LINE
8
0
10
13.230174
20
-1.10000002
11
13.2164986
21
-1.10000002
0
LINE
8
0
10
13.2164986
20
-1.10000002
11
11.2928825
21
-1.10000002
0
LINE
8
0
10
11.2928825
20
-1.10000002
11
11.1834247
21
-1.10000002
0
LINE
8
0
10
11.1834247
20
-1.10000002
11
-14.8281551
21
-1.10000002
0
LINE
8
0
10
-14.8281551
20
-1.10000002
11
-14.8493421
21
-1.10000002
0
LINE
8
0
10
-14.8493421
20
-1.10000002
11
-14.8832214
21
-1.10000002
0
LINE
8
0
10
-14.8832214
20
-1.10000002
11
-14.926914
21
-1.10000002
0
LINE
8
0
10
-14.926914
20
-1.10000002
11
-14.9761472
21
-1.10000002
0
LINE
8
0
10
-14.9761472
20
-1.10000002
11
-15.0260614
21
-1.10000002
0
LINE
8
0
10
-15.0260614
20
-1.10000002
11
-15.0721287
21
-1.10000002
0
LINE
8
0
10
-15.0721287
20
-1.10000002
11
-15.1108481
21
-1.10000002
0
LINE
8
0
10
-15.1108481
20
-1.10000002
11
-15.140042
21
-1.10000002
0
LINE
8
0
10
-15.140042
20
-1.10000002
11
-15.7581438
21
-1.10000002
0
LINE
8
0
10
-15.7581438
20
-1.10000002
11
-18.5499992
21
-1.10000002
0
LINE
8
0
10
-18.5499992
20
-1.10000002
11
-18.5499992
21
-0.512725724
0
LINE
8
0
10
-18.5499992
20
-0.512725724
11
-18.5499992
21
-0.490884123
0
LINE
8
0
10
-18.5499992
20
-0.490884123
11
-18.5499992
21
-0.423787984
0
LINE
8
0
10
-18.5499992
20
-0.423787984
11
-18.5499992
21
0.647956215
0
LINE
8
0
10
-18.5499992
20
0.647956215
11
-18.5499992
21
0.762349676
0
LINE
8
0
10
-18.5499992
20
0.762349676
11
-18.5499992
21
0.947257387
0
LINE
8
0
10
-18.5499992
20
0.947257387
11
-18.5499992
21
1.19580025
0
LINE
8
0
10
-18.5499992
20
1.19580025
11
-18.5499992
21
2.52241468
0
LINE
8
0
10
-18.5499992
20
2.52241468
11
-18.5499992
21
2.70883425
0
LINE
8
0
10
-18.5499992
20
2.70883425
11
-18.5499992
21
2.94779849
0
LINE
8
0
10
-18.5499992
20
2.94779849
11
-18.5499992
21
3.57046559
0
LINE
8
0
10
-18.5499992
20
3.57046559
11
-18.5499992
21
3.81234503
0
LINE
8
0
10
-18.5499992
20
3.81234503
11
-18.5499992
21
5.83880812
0
LINE
8
0
10
-18.5499992
20
5.83880812
11
-18.5499992
21
10.5315478
0
LINE
8
0
10
-18.5499992
20
10.5315478
11
-18.5499992
21
15.3349638
0
LINE
8
0
10
-18.5499992
20
15.3349638
11
-18.5499992
21
28.014625
0
LINE
8
0
10
-18.5499992
20
28.014625
11
-18.5499992
21
32.1257033
0
LINE
8
0
10
-18.5499992
20
32.1257033
11
-18.5499992
21
33.5722389
0
LINE
8
0
10
-18.5499992
20
33.5722389
11
-18.5499992
21
40.3087566
0
LINE
8
0
10
-18.5499992
20
40.3087566
11
-18.5499992
21
41.09929
0
LINE
8
0
10
-18.5499992
20
41.09929
11
-18.5499992
21
41.338167
0
LINE
8
0
10
-18.5499992
20
41.338167
11
-18.5499992
21
41.6056986
0
LINE
8
0
10
-18.5499992
20
41.6056986
11
-18.5499992
21
41.8799785
0
LINE
8
0
10
-18.5499992
20
41.8799785
11
-18.5499992
21
42.1365421
0
LINE
8
0
10
-18.5499992
20
42.1365421
11
-18.5499992
21
42.7701909
0
LINE
8
0
10
-18.5499992
20
42.7701909
11
-18.5499992
21
43.0250124
0
LINE
8
0
10
-18.5499992
20
43.0250124
11
-18.5499992
21
43.2320229
0
LINE
8
0
10
-18.5499992
20
43.2320229
11
-18.5499992
21
44.5391
0
LINE
8
0
10
-18.5499992
20
44.5391
11
-18.5499992
21
44.806347
0
LINE
8
0
10
-18.5499992
20
44.806347
11
-18.5499992
21
45.0141692
0
LINE
8
0
10
-18.5499992
20
45.0141692
11
-18.5499992
21
45.153431
0
LINE
8
0
10
-18.5499992
20
45.153431
11
-18.5499992
21
45.2207507
0
LINE
8
0
10
-18.5499992
20
45.2207507
11
-18.5499992
21
46.5
0
LINE
8
0
10
-18.5499992
20
46.5
11
-17.6879062
21
46.5
0
LINE
8
0
10
-17.6879062
20
46.5
11
-15.7581438
21
46.5
0
LINE
8
0
10
-15.7581438
20
46.5
11
-15.140042
21
46.5
0
LINE
8
0
10
-15.140042
20
46.5
11
-15.1108481
21
46.5
0
LINE
8
0
10
-15.1108481
20
46.5
11
-15.0721287
21
46.5
0
LINE
8
0
10
-15.0721287
20
46.5
11
-15.0260614
21
46.5
0
LINE
8
0
10
-15.0260614
20
46.5
11
-14.9761472
21
46.5
0
LINE
8
0
10
-14.9761472
20
46.5
11
-14.926914
21
46.5
0
LINE
8
0
10
-14.926914
20
46.5
11
-14.8832214
21
46.5
0
LINE
8
0
10
-14.8832214
20
46.5
11
-14.8493421
21
46.5
0
LINE
8
0
10
-14.8493421
20
46.5
11
-14.8281551
21
46.5
0
LINE
8
0
10
-14.8281551
20
46.5
11
11.1834247
21
46.5
0
LINE
8
0
10
11.1834247
20
46.5
11
11.2928825
21
46.5
0
LINE
8
0
10
11.2928825
20
46.5
11
13.2164986
21
46.5
0
LINE
8
0
10
13.2164986
20
46.5
11
13.230174
21
46.5
0
LINE
8
0
10
13.230174
20
46.5
11
13.230174
21
46.5
0
ENDSEC
0
EOF
