0
SECTION
2
ENTITIES
0
LINE
8
0
10
11.4843455
20
46.5
11
13.75
21
46.5
0
LINE
8
0
10
13.75
20
46.5
11
13.75
21
42.5457825
0
LINE
8
0
10
13.75
20
42.5457825
11
13.75
21
41.5
0
LINE
8
0
10
13.75
20
41.5
11
12.5749346
21
41.5
0
LINE
8
0
10
12.5749346
20
41.5
11
12.394562
21
41.5
0
LINE
8
0
10
12.394562
20
41.5
11
12.0536176
21
41.5
0
LINE
8
0
10
12.0536176
20
41.5
11
11.4424611
21
41.5
0
LINE
8
0
10
11.4424611
20
41.5
11
11.3297691
21
41.5
0
LINE
8
0
10
11.3297691
20
41.5
11
11.3334427
21
42.8111998
0
LINE
8
0
10
11.3334427
20
42.8111998
11
11.3237987
21
46.5
0
LINE
8
0
10
11.3237987
20
46.5
11
11.4843455
21
46.5
0
LINE
8
0
10
11.4843455
20
46.5
11
11.4843455
21
46.5
0
LINE
8
0
10
11.4843455
20
-1.10000002
11
13.75
21
-1.10000002
0
LINE
8
0
10
13.75
20
-1.10000002
11
13.75
21
2.93330181
0
LINE
8
0
10
13.75
20
2.93330181
11
13.75
21
4
0
LINE
8
0
10
13.75
20
4
11
12.5749346
21
4
0
LINE
8
0
10
12.5749346
20
4
11
12.394562
21
4
0
LINE
8
0
10
12.394562
20
4
11
12.0536176
21
4
0
LINE
8
0
10
12.0536176
20
4
11
11.4424611
21
4
0
LINE
8
0
10
11.4424611
20
4
11
11.3297691
21
4
0
LINE
8
0
10
11.3297691
20
4
11
11.3334427
21
2.66257625
0
LINE
8
0
10
11.3334427
20
2.66257625
11
11.3237987
21
-1.10000002
0
LINE
8
0
10
11.3237987
20
-1.10000002
11
11.4843455
21
-1.10000002
0
LINE
8
0
10
11.4843455
20
-1.10000002
11
11.4843455
21
-1.10000002
0
LINE
8
0
10
8.67620132
20
46.5
11
8.66655728
21
42.8111998
0
LINE
8
0
10
8.66655728
20
42.8111998
11
8.67023092
21
41.5
0
LINE
8
0
10
8.67023092
20
41.5
11
-6.25831202
21
41.5
0
LINE
8
0
10
-6.25831202
20
41.5
11
-8.67023092
21
41.5
0
LINE
8
0
10
-8.67023092
20
41.5
11
-8.66655728
21
42.8111998
0
LINE
8
0
10
-8.66655728
20
42.8111998
11
-8.67620132
21
46.5
0
LINE
8
0
10
-8.67620132
20
46.5
11
-2.53834524
21
46.5
0
LINE
8
0
10
-2.53834524
20
46.5
11
8.67620132
21
46.5
0
LINE
8
0
10
8.67620132
20
46.5
11
8.67620132
21
46.5
0
LINE
8
0
10
8.67620132
20
-1.10000002
11
8.66655728
21
2.66257625
0
LINE
8
0
10
8.66655728
20
2.66257625
11
8.67023092
21
4
0
LINE
8
0
10
8.67023092
20
4
11
6.25831202
21
4
0
LINE
8
0
10
6.25831202
20
4
11
-8.67023092
21
4
0
LINE
8
0
10
-8.67023092
20
4
11
-8.66655728
21
2.66257625
0
LINE
8
0
10
-8.66655728
20
2.66257625
11
-8.67620132
21
-1.10000002
0
LINE
8
0
10
-8.67620132
20
-1.10000002
11
-2.53834524
21
-1.10000002
0
LINE
8
0
10
-2.53834524
20
-1.10000002
11
8.67620132
21
-1.10000002
0
LINE
8
0
10
8.67620132
20
-1.10000002
11
8.67620132
21
-1.10000002
0
LINE
8
0
10
-14.9473377
20
4
11
-14.3067599
21
4
0
LINE
8
0
10
-14.3067599
20
4
11
-13.2769044
21
4
0
LINE
8
0
10
-13.2769044
20
4
11
-11.6134177
21
4
0
LINE
8
0
10
-11.6134177
20
4
11
-11.3297691
21
4
0
LINE
8
0
10
-11.3297691
20
4
11
-11.3334427
21
2.66257625
0
LINE
8
0
10
-11.3334427
20
2.66257625
11
-11.3237987
21
-1.10000002
0
LINE
8
0
10
-11.3237987
20
-1.10000002
11
-11.5290937
21
-1.10000002
0
LINE
8
0
10
-11.5290937
20
-1.10000002
11
-11.7572258
21
-1.10000002
0
LINE
8
0
10
-11.7572258
20
-1.10000002
11
-17.5272403
21
-1.10000002
0
LINE
8
0
10
-17.5272403
20
-1.10000002
11
-18.234183
21
-1.10000002
0
LINE
8
0
10
-18.234183
20
-1.10000002
11
-18.5499992
21
-1.10000002
0
LINE
8
0
10
-18.5499992
20
-1.10000002
11
-18.5499992
21
-0.876858555
0
LINE
8
0
10
-18.5499992
20
-0.876858555
11
-18.5499992
21
-0.852278781
0
LINE
8
0
10
-18.5499992
20
-0.852278781
11
-18.5499992
21
-0.459659619
0
LINE
8
0
10
-18.5499992
20
-0.459659619
11
-18.5499992
21
-0.417753104
0
LINE
8
0
10
-18.5499992
20
-0.417753104
11
-18.5499992
21
-0.350014636
0
LINE
8
0
10
-18.5499992
20
-0.350014636
11
-18.5499992
21
-0.258964279
0
LINE
8
0
10
-18.5499992
20
-0.258964279
11
-18.5499992
21
2.93330181
0
LINE
8
0
10
-18.5499992
20
2.93330181
11
-18.5499992
21
3.89542175
0
LINE
8
0
10
-18.5499992
20
3.89542175
11
-18.5499992
21
4
0
LINE
8
0
10
-18.5499992
20
4
11
-14.9473377
21
4
0
LINE
8
0
10
-14.9473377
20
4
11
-14.9473377
21
4
0
LINE
8
0
10
-14.9473377
20
41.5
11
-14.3067599
21
41.5
0
LINE
8
0
10
-14.3067599
20
41.5
11
-13.2769044
21
41.5
0
LINE
8
0
10
-13.2769044
20
41.5
11
-11.6134177
21
41.5
0
LINE
8
0
10
-11.6134177
20
41.5
11
-11.3297691
21
41.5
0
LINE
8
0
10
-11.3297691
20
41.5
11
-11.3334427
21
42.8111998
0
LINE
8
0
10
-11.3334427
20
42.8111998
11
-11.3237987
21
46.5
0
LINE
8
0
10
-11.3237987
20
46.5
11
-11.5290937
21
46.5
0
LINE
8
0
10
-11.5290937
20
46.5
11
-11.7572258
21
46.5
0
LINE
8
0
10
-11.7572258
20
46.5
11
-17.5272403
21
46.5
0
LINE
8
0
10
-17.5272403
20
46.5
11
-18.5499992
21
46.5
0
LINE
8
0
10
-18.5499992
20
46.5
11
-18.5499992
21
46.2988087
0
LINE
8
0
10
-18.5499992
20
46.2988087
11
-18.5499992
21
46.0313641
0
LINE
8
0
10
-18.5499992
20
46.0313641
11
-18.5499992
21
46.0067024
0
LINE
8
0
10
-18.5499992
20
46.0067024
11
-18.5499992
21
45.9556858
0
LINE
8
0
10
-18.5499992
20
45.9556858
11
-18.5499992
21
45.8795529
0
LINE
8
0
10
-18.5499992
20
45.8795529
11
-18.5499992
21
45.7816505
0
LINE
8
0
10
-18.5499992
20
45.7816505
11
-18.5499992
21
42.5457825
0
LINE
8
0
10
-18.5499992
20
42.5457825
11
-18.5499992
21
41.6045783
0
LINE
8
0
10
-18.5499992
20
41.6045783
11
-18.5499992
21
41.5
0
LINE
8
0
10
-18.5499992
20
41.5
11
-14.9473377
21
41.5
0
LINE
8
0
10
-14.9473377
20
41.5
11
-14.9473377
21
41.5
0
ENDSEC
0
EOF
