0
SECTION
2
ENTITIES
0
LINE
8
0
10
-13.3427177
20
21.5961134
11
-13.3776836
21
21.4931736
0
LINE
8
0
10
-13.3776836
20
21.4931736
11
-13.427537
21
21.1150768
0
LINE
8
0
10
-13.427537
20
21.1150768
11
-13.4417486
21
21.0072937
0
LINE
8
0
10
-13.4417486
20
21.0072937
11
-13.4168809
21
20.626736
0
LINE
8
0
10
-13.4168809
20
20.626736
11
-13.4097919
21
20.5182514
0
LINE
8
0
10
-13.4097919
20
20.5182514
11
-13.311159
21
20.1498571
0
LINE
8
0
10
-13.311159
20
20.1498571
11
-13.283042
21
20.0448399
0
LINE
8
0
10
-13.283042
20
20.0448399
11
-13.1144338
21
19.7027655
0
LINE
8
0
10
-13.1144338
20
19.7027655
11
-13.0663691
21
19.6052513
0
LINE
8
0
10
-13.0663691
20
19.6052513
11
-12.8342658
21
19.3026444
0
LINE
8
0
10
-12.8342658
20
19.3026444
11
-12.7681007
21
19.2163811
0
LINE
8
0
10
-12.7681007
20
19.2163811
11
-11.2520026
21
17.5970194
0
LINE
8
0
10
-11.2520026
20
17.5970194
11
-5.93361807
21
11.9163923
0
LINE
8
0
10
-5.93361807
20
11.9163923
11
-5.64693894
21
11.6648812
0
LINE
8
0
10
-5.64693894
20
11.6648812
11
-5.56521606
21
11.5931835
0
LINE
8
0
10
-5.56521606
20
11.5931835
11
-5.23497783
21
11.4024342
0
LINE
8
0
10
-5.23497783
20
11.4024342
11
-5.14083767
21
11.3480577
0
LINE
8
0
10
-5.14083767
20
11.3480577
11
-4.77973132
21
11.2253987
0
LINE
8
0
10
-4.77973132
20
11.2253987
11
-4.67679167
21
11.1904325
0
LINE
8
0
10
-4.67679167
20
11.1904325
11
-4.29869448
21
11.1405791
0
LINE
8
0
10
-4.29869448
20
11.1405791
11
-4.19091129
21
11.1263676
0
LINE
8
0
10
-4.19091129
20
11.1263676
11
-3.81035342
21
11.1512353
0
LINE
8
0
10
-3.81035342
20
11.1512353
11
-3.70186877
21
11.1583242
0
LINE
8
0
10
-3.70186877
20
11.1583242
11
-3.33347443
21
11.2569579
0
LINE
8
0
10
-3.33347443
20
11.2569579
11
-3.22845721
21
11.2850752
0
LINE
8
0
10
-3.22845721
20
11.2850752
11
-2.88638402
21
11.4536826
0
LINE
8
0
10
-2.88638402
20
11.4536826
11
-2.7888701
21
11.5017471
0
LINE
8
0
10
-2.7888701
20
11.5017471
11
-2.4862634
21
11.7338511
0
LINE
8
0
10
-2.4862634
20
11.7338511
11
-2.4000001
21
11.8000164
0
LINE
8
0
10
-2.4000001
20
11.8000164
11
-2.14848892
21
12.0866952
0
LINE
8
0
10
-2.14848892
20
12.0866952
11
-2.07679129
21
12.1684179
0
LINE
8
0
10
-2.07679129
20
12.1684179
11
-1.88604138
21
12.4986562
0
LINE
8
0
10
-1.88604138
20
12.4986562
11
-1.8316648
21
12.5927963
0
LINE
8
0
10
-1.8316648
20
12.5927963
11
-1.70900627
21
12.9539023
0
LINE
8
0
10
-1.70900627
20
12.9539023
11
-1.67404032
21
13.0568419
0
LINE
8
0
10
-1.67404032
20
13.0568419
11
-1.62418701
21
13.4349394
0
LINE
8
0
10
-1.62418701
20
13.4349394
11
-1.60997546
21
13.5427227
0
LINE
8
0
10
-1.60997546
20
13.5427227
11
-1.63484307
21
13.9232804
0
LINE
8
0
10
-1.63484307
20
13.9232804
11
-1.64193201
21
14.031765
0
LINE
8
0
10
-1.64193201
20
14.031765
11
-1.74056506
21
14.4001593
0
LINE
8
0
10
-1.74056506
20
14.4001593
11
-1.76868212
21
14.5051765
0
LINE
8
0
10
-1.76868212
20
14.5051765
11
-1.93729013
21
14.8472501
0
LINE
8
0
10
-1.93729013
20
14.8472501
11
-1.98535478
21
14.9447641
0
LINE
8
0
10
-1.98535478
20
14.9447641
11
-2.21745831
21
15.247371
0
LINE
8
0
10
-2.21745831
20
15.247371
11
-2.28362346
21
15.3336344
0
LINE
8
0
10
-2.28362346
20
15.3336344
11
-3.79972151
21
16.952996
0
LINE
8
0
10
-3.79972151
20
16.952996
11
-9.11810589
21
22.6336231
0
LINE
8
0
10
-9.11810589
20
22.6336231
11
-9.40478539
21
22.885135
0
LINE
8
0
10
-9.40478539
20
22.885135
11
-9.48650837
21
22.9568329
0
LINE
8
0
10
-9.48650837
20
22.9568329
11
-9.81674661
21
23.1475815
0
LINE
8
0
10
-9.81674661
20
23.1475815
11
-9.91088676
21
23.2019577
0
LINE
8
0
10
-9.91088676
20
23.2019577
11
-10.2719927
21
23.3246168
0
LINE
8
0
10
-10.2719927
20
23.3246168
11
-10.3749323
21
23.3595829
0
LINE
8
0
10
-10.3749323
20
23.3595829
11
-10.7530298
21
23.409437
0
LINE
8
0
10
-10.7530298
20
23.409437
11
-10.8608131
21
23.4236488
0
LINE
8
0
10
-10.8608131
20
23.4236488
11
-11.2413708
21
23.3987804
0
LINE
8
0
10
-11.2413708
20
23.3987804
11
-11.3498554
21
23.3916912
0
LINE
8
0
10
-11.3498554
20
23.3916912
11
-11.7182498
21
23.2930575
0
LINE
8
0
10
-11.7182498
20
23.2930575
11
-11.823267
21
23.2649403
0
LINE
8
0
10
-11.823267
20
23.2649403
11
-12.1653406
21
23.0963336
0
LINE
8
0
10
-12.1653406
20
23.0963336
11
-12.2628546
21
23.0482693
0
LINE
8
0
10
-12.2628546
20
23.0482693
11
-12.5654607
21
22.8161653
0
LINE
8
0
10
-12.5654607
20
22.8161653
11
-12.6517239
21
22.75
0
LINE
8
0
10
-12.6517239
20
22.75
11
-12.903235
21
22.4633205
0
LINE
8
0
10
-12.903235
20
22.4633205
11
-12.9749327
21
22.3815975
0
LINE
8
0
10
-12.9749327
20
22.3815975
11
-13.1656828
21
22.05136
0
LINE
8
0
10
-13.1656828
20
22.05136
11
-13.2200594
21
21.9572201
0
LINE
8
0
10
-13.2200594
20
21.9572201
11
-13.3427177
21
21.5961134
0
LINE
8
0
10
-13.3427177
20
21.5961134
11
-13.3427177
21
21.5961134
0
LINE
8
0
10
3.40226603
20
13.1730547
11
3.76337219
21
13.0503963
0
LINE
8
0
10
3.76337219
20
13.0503963
11
3.86631179
21
13.0154305
0
LINE
8
0
10
3.86631179
20
13.0154305
11
4.24440879
21
12.9655771
0
LINE
8
0
10
4.24440879
20
12.9655771
11
4.35219193
21
12.9513655
0
LINE
8
0
10
4.35219193
20
12.9513655
11
4.73274998
21
12.9762332
0
LINE
8
0
10
4.73274998
20
12.9762332
11
4.84123468
21
12.9833221
0
LINE
8
0
10
4.84123468
20
12.9833221
11
5.20962902
21
13.0819551
0
LINE
8
0
10
5.20962902
20
13.0819551
11
5.31464624
21
13.1100721
0
LINE
8
0
10
5.31464624
20
13.1100721
11
5.65671944
21
13.2786803
0
LINE
8
0
10
5.65671944
20
13.2786803
11
5.75423336
21
13.326745
0
LINE
8
0
10
5.75423336
20
13.326745
11
6.05684024
21
13.5588483
0
LINE
8
0
10
6.05684024
20
13.5588483
11
6.1431036
21
13.6250134
0
LINE
8
0
10
6.1431036
20
13.6250134
11
6.3946144
21
13.9116929
0
LINE
8
0
10
6.3946144
20
13.9116929
11
6.46631193
21
13.9934158
0
LINE
8
0
10
6.46631193
20
13.9934158
11
6.65706202
21
14.3236541
0
LINE
8
0
10
6.65706202
20
14.3236541
11
6.71143866
21
14.4177942
0
LINE
8
0
10
6.71143866
20
14.4177942
11
6.83409737
21
14.7789002
0
LINE
8
0
10
6.83409737
20
14.7789002
11
6.86906338
21
14.8818398
0
LINE
8
0
10
6.86906338
20
14.8818398
11
6.91891641
21
15.2599366
0
LINE
8
0
10
6.91891641
20
15.2599366
11
6.93312788
21
15.3677197
0
LINE
8
0
10
6.93312788
20
15.3677197
11
6.90826018
21
15.7482781
0
LINE
8
0
10
6.90826018
20
15.7482781
11
6.90117121
21
15.8567629
0
LINE
8
0
10
6.90117121
20
15.8567629
11
6.80253826
21
16.2251565
0
LINE
8
0
10
6.80253826
20
16.2251565
11
6.77442122
21
16.3301735
0
LINE
8
0
10
6.77442122
20
16.3301735
11
6.60581339
21
16.6722478
0
LINE
8
0
10
6.60581339
20
16.6722478
11
6.55774879
21
16.769762
0
LINE
8
0
10
6.55774879
20
16.769762
11
6.32564518
21
17.0723689
0
LINE
8
0
10
6.32564518
20
17.0723689
11
6.25948
21
17.1586323
0
LINE
8
0
10
6.25948
20
17.1586323
11
3.22728378
21
20.3973556
0
LINE
8
0
10
3.22728378
20
20.3973556
11
-7.40948534
21
31.7586098
0
LINE
8
0
10
-7.40948534
20
31.7586098
11
-7.69616484
21
32.0101202
0
LINE
8
0
10
-7.69616484
20
32.0101202
11
-7.77788782
21
32.0818176
0
LINE
8
0
10
-7.77788782
20
32.0818176
11
-8.10812569
21
32.2725692
0
LINE
8
0
10
-8.10812569
20
32.2725692
11
-8.20226574
21
32.3269463
0
LINE
8
0
10
-8.20226574
20
32.3269463
11
-8.56337246
21
32.4496039
0
LINE
8
0
10
-8.56337246
20
32.4496039
11
-8.66631222
21
32.4845695
0
LINE
8
0
10
-8.66631222
20
32.4845695
11
-9.04440904
21
32.5344222
0
LINE
8
0
10
-9.04440904
20
32.5344222
11
-9.15219212
21
32.5486336
0
LINE
8
0
10
-9.15219212
20
32.5486336
11
-9.5327498
21
32.5237666
0
LINE
8
0
10
-9.5327498
20
32.5237666
11
-9.6412344
21
32.5166779
0
LINE
8
0
10
-9.6412344
20
32.5166779
11
-10.0096287
21
32.4180442
0
LINE
8
0
10
-10.0096287
20
32.4180442
11
-10.114646
21
32.3899269
0
LINE
8
0
10
-10.114646
20
32.3899269
11
-10.4567195
21
32.2213202
0
LINE
8
0
10
-10.4567195
20
32.2213202
11
-10.5542336
21
32.1732559
0
LINE
8
0
10
-10.5542336
20
32.1732559
11
-10.8568404
21
31.9411519
0
LINE
8
0
10
-10.8568404
20
31.9411519
11
-10.9431038
21
31.8749866
0
LINE
8
0
10
-10.9431038
20
31.8749866
11
-11.194615
21
31.5883071
0
LINE
8
0
10
-11.194615
20
31.5883071
11
-11.2663126
21
31.5065842
0
LINE
8
0
10
-11.2663126
20
31.5065842
11
-11.4570619
21
31.1763467
0
LINE
8
0
10
-11.4570619
20
31.1763467
11
-11.5114384
21
31.0822067
0
LINE
8
0
10
-11.5114384
20
31.0822067
11
-11.6340975
21
30.7211
0
LINE
8
0
10
-11.6340975
20
30.7211
11
-11.6690636
21
30.6181602
0
LINE
8
0
10
-11.6690636
20
30.6181602
11
-11.718917
21
30.2400634
0
LINE
8
0
10
-11.718917
20
30.2400634
11
-11.7331285
21
30.1322803
0
LINE
8
0
10
-11.7331285
20
30.1322803
11
-11.7082608
21
29.7517227
0
LINE
8
0
10
-11.7082608
20
29.7517227
11
-11.7011719
21
29.6432381
0
LINE
8
0
10
-11.7011719
20
29.6432381
11
-11.6025382
21
29.2748437
0
LINE
8
0
10
-11.6025382
20
29.2748437
11
-11.5744209
21
29.1698265
0
LINE
8
0
10
-11.5744209
20
29.1698265
11
-11.4058135
21
28.8277522
0
LINE
8
0
10
-11.4058135
20
28.8277522
11
-11.357749
21
28.730238
0
LINE
8
0
10
-11.357749
20
28.730238
11
-11.125645
21
28.4276311
0
LINE
8
0
10
-11.125645
20
28.4276311
11
-11.0594797
21
28.3413677
0
LINE
8
0
10
-11.0594797
20
28.3413677
11
-8.02728355
21
25.1026444
0
LINE
8
0
10
-8.02728355
20
25.1026444
11
2.60948539
21
13.7413902
0
LINE
8
0
10
2.60948539
20
13.7413902
11
2.8961647
21
13.4898791
0
LINE
8
0
10
2.8961647
20
13.4898791
11
2.97788763
21
13.4181814
0
LINE
8
0
10
2.97788763
20
13.4181814
11
3.30812587
21
13.2274313
0
LINE
8
0
10
3.30812587
20
13.2274313
11
3.40226603
21
13.1730547
0
LINE
8
0
10
3.40226603
20
13.1730547
11
3.40226603
21
13.1730547
0
LINE
8
0
10
-2.14011359
20
29.8347607
11
-2.18817824
21
29.9322749
0
LINE
8
0
10
-2.18817824
20
29.9322749
11
-2.35678625
21
30.2743492
0
LINE
8
0
10
-2.35678625
20
30.2743492
11
-2.38490329
21
30.379366
0
LINE
8
0
10
-2.38490329
20
30.379366
11
-2.48353624
21
30.7477589
0
LINE
8
0
10
-2.48353624
20
30.7477589
11
-2.49062521
21
30.8562439
0
LINE
8
0
10
-2.49062521
20
30.8562439
11
-2.51549292
21
31.2368031
0
LINE
8
0
10
-2.51549292
20
31.2368031
11
-2.50128134
21
31.3445861
0
LINE
8
0
10
-2.50128134
20
31.3445861
11
-2.45142794
21
31.722683
0
LINE
8
0
10
-2.45142794
20
31.722683
11
-2.41646204
21
31.8256227
0
LINE
8
0
10
-2.41646204
20
31.8256227
11
-2.29380369
21
32.1867294
0
LINE
8
0
10
-2.29380369
20
32.1867294
11
-2.23942706
21
32.2808694
0
LINE
8
0
10
-2.23942706
20
32.2808694
11
-2.04867697
21
32.6111069
0
LINE
8
0
10
-2.04867697
20
32.6111069
11
-1.97697938
21
32.6928294
0
LINE
8
0
10
-1.97697938
20
32.6928294
11
-1.7254684
21
32.9795074
0
LINE
8
0
10
-1.7254684
20
32.9795074
11
-1.63920509
21
33.0456732
0
LINE
8
0
10
-1.63920509
20
33.0456732
11
-1.3365984
21
33.2777786
0
LINE
8
0
10
-1.3365984
20
33.2777786
11
-1.23908444
21
33.3258429
0
LINE
8
0
10
-1.23908444
20
33.3258429
11
-0.897011101
21
33.4944496
0
LINE
8
0
10
-0.897011101
20
33.4944496
11
-0.791993907
21
33.5225669
0
LINE
8
0
10
-0.791993907
20
33.5225669
11
-0.42359966
21
33.6212006
0
LINE
8
0
10
-0.42359966
20
33.6212006
11
-0.315114972
21
33.6282893
0
LINE
8
0
10
-0.315114972
20
33.6282893
11
0.0654430464
21
33.6531563
0
LINE
8
0
10
0.0654430464
20
33.6531563
11
0.173226218
21
33.6389449
0
LINE
8
0
10
0.173226218
20
33.6389449
11
0.551323354
21
33.5890923
0
LINE
8
0
10
0.551323354
20
33.5890923
11
0.654262966
21
33.5541266
0
LINE
8
0
10
0.654262966
20
33.5541266
11
1.01536918
21
33.431469
0
LINE
8
0
10
1.01536918
20
33.431469
11
1.10950931
21
33.3770919
0
LINE
8
0
10
1.10950931
20
33.3770919
11
1.43974745
21
33.1863403
0
LINE
8
0
10
1.43974745
20
33.1863403
11
1.52147038
21
33.1146429
0
LINE
8
0
10
1.52147038
20
33.1146429
11
1.8081497
21
32.8631325
0
LINE
8
0
10
1.8081497
20
32.8631325
11
7.12653435
21
27.1825046
0
LINE
8
0
10
7.12653435
20
27.1825046
11
8.64263248
21
25.5631428
0
LINE
8
0
10
8.64263248
20
25.5631428
11
8.70879756
21
25.4768794
0
LINE
8
0
10
8.70879756
20
25.4768794
11
8.9409008
21
25.1742725
0
LINE
8
0
10
8.9409008
20
25.1742725
11
8.9889655
21
25.0767587
0
LINE
8
0
10
8.9889655
20
25.0767587
11
9.1575737
21
24.7346859
0
LINE
8
0
10
9.1575737
20
24.7346859
11
9.18569074
21
24.6296687
0
LINE
8
0
10
9.18569074
20
24.6296687
11
9.28432369
21
24.2612743
0
LINE
8
0
10
9.28432369
20
24.2612743
11
9.29141266
21
24.1527897
0
LINE
8
0
10
9.29141266
20
24.1527897
11
9.31628036
21
23.7722321
0
LINE
8
0
10
9.31628036
20
23.7722321
11
9.30206879
21
23.664449
0
LINE
8
0
10
9.30206879
20
23.664449
11
9.25221539
21
23.2863522
0
LINE
8
0
10
9.25221539
20
23.2863522
11
9.21724949
21
23.1834124
0
LINE
8
0
10
9.21724949
20
23.1834124
11
9.09459114
21
22.8223057
0
LINE
8
0
10
9.09459114
20
22.8223057
11
9.04021451
21
22.7281653
0
LINE
8
0
10
9.04021451
20
22.7281653
11
8.84946442
21
22.3979263
0
LINE
8
0
10
8.84946442
20
22.3979263
11
8.77776678
21
22.3162038
0
LINE
8
0
10
8.77776678
20
22.3162038
11
8.52625561
21
22.0295258
0
LINE
8
0
10
8.52625561
20
22.0295258
11
8.43999246
21
21.9633605
0
LINE
8
0
10
8.43999246
20
21.9633605
11
8.13738632
21
21.7312565
0
LINE
8
0
10
8.13738632
20
21.7312565
11
8.0398723
21
21.6831918
0
LINE
8
0
10
8.0398723
20
21.6831918
11
7.69779873
21
21.5145836
0
LINE
8
0
10
7.69779873
20
21.5145836
11
7.59278151
21
21.4864668
0
LINE
8
0
10
7.59278151
20
21.4864668
11
7.22438717
21
21.3878345
0
LINE
8
0
10
7.22438717
20
21.3878345
11
7.11590247
21
21.3807454
0
LINE
8
0
10
7.11590247
20
21.3807454
11
6.73534441
21
21.3558769
0
LINE
8
0
10
6.73534441
20
21.3558769
11
6.62756122
21
21.3700887
0
LINE
8
0
10
6.62756122
20
21.3700887
11
6.24946404
21
21.4199429
0
LINE
8
0
10
6.24946404
20
21.4199429
11
6.14652449
21
21.4549085
0
LINE
8
0
10
6.14652449
20
21.4549085
11
5.78541851
21
21.5775661
0
LINE
8
0
10
5.78541851
20
21.5775661
11
5.69127835
21
21.6319428
0
LINE
8
0
10
5.69127835
20
21.6319428
11
5.36104012
21
21.8226929
0
LINE
8
0
10
5.36104012
20
21.8226929
11
5.27931713
21
21.8943903
0
LINE
8
0
10
5.27931713
20
21.8943903
11
4.99263763
21
22.1459007
0
LINE
8
0
10
4.99263763
20
22.1459007
11
-0.325746926
21
27.8265286
0
LINE
8
0
10
-0.325746926
20
27.8265286
11
-1.84184504
21
29.4458904
0
LINE
8
0
10
-1.84184504
20
29.4458904
11
-1.90801016
21
29.5321538
0
LINE
8
0
10
-1.90801016
20
29.5321538
11
-2.14011359
21
29.8347607
0
LINE
8
0
10
-2.14011359
20
29.8347607
11
-2.14011359
21
29.8347607
0
LINE
8
0
10
-14.945203
20
46.5
11
-14.8868999
21
46.5
0
LINE
8
0
10
-14.8868999
20
46.5
11
-14.8237282
21
46.5
0
LINE
8
0
10
-14.8237282
20
46.5
11
-14.7614184
21
46.5
0
LINE
8
0
10
-14.7614184
20
46.5
11
-14.7061207
21
46.5
0
LINE
8
0
10
-14.7061207
20
46.5
11
-14.6632428
21
46.5
0
LINE
8
0
10
-14.6632428
20
46.5
11
-14.6364285
21
46.5
0
LINE
8
0
10
-14.6364285
20
46.5
11
10.5017261
21
46.5
0
LINE
8
0
10
10.5017261
20
46.5
11
10.6402565
21
46.5
0
LINE
8
0
10
10.6402565
20
46.5
11
13.0747972
21
46.5
0
LINE
8
0
10
13.0747972
20
46.5
11
13.0921049
21
46.5
0
LINE
8
0
10
13.0921049
20
46.5
11
13.124815
21
46.5
0
LINE
8
0
10
13.124815
20
46.5
11
13.170844
21
46.5
0
LINE
8
0
10
13.170844
20
46.5
11
13.2261417
21
46.5
0
LINE
8
0
10
13.2261417
20
46.5
11
13.2853003
21
46.5
0
LINE
8
0
10
13.2853003
20
46.5
11
13.3425763
21
46.5
0
LINE
8
0
10
13.3425763
20
46.5
11
13.3929447
21
46.5
0
LINE
8
0
10
13.3929447
20
46.5
11
13.432815
21
46.5
0
LINE
8
0
10
13.432815
20
46.5
11
13.4602494
21
46.5
0
LINE
8
0
10
13.4602494
20
46.5
11
13.75
21
46.5
0
LINE
8
0
10
13.75
20
46.5
11
13.75
21
45.7282755
0
LINE
8
0
10
13.75
20
45.7282755
11
13.75
21
45.2415198
0
LINE
8
0
10
13.75
20
45.2415198
11
13.75
21
38.5618944
0
LINE
8
0
10
13.75
20
38.5618944
11
13.75
21
0.177841365
0
LINE
8
0
10
13.75
20
0.177841365
11
13.75
21
-0.312841074
0
LINE
8
0
10
13.75
20
-0.312841074
11
13.75
21
-1.10000002
0
LINE
8
0
10
13.75
20
-1.10000002
11
13.4602494
21
-1.10000002
0
LINE
8
0
10
13.4602494
20
-1.10000002
11
13.432815
21
-1.10000002
0
LINE
8
0
10
13.432815
20
-1.10000002
11
13.3929447
21
-1.10000002
0
LINE
8
0
10
13.3929447
20
-1.10000002
11
13.3425763
21
-1.10000002
0
LINE
8
0
10
13.3425763
20
-1.10000002
11
13.2853003
21
-1.10000002
0
LINE
8
0
10
13.2853003
20
-1.10000002
11
13.2261417
21
-1.10000002
0
LINE
8
0
10
13.2261417
20
-1.10000002
11
13.170844
21
-1.10000002
0
LINE
8
0
10
13.170844
20
-1.10000002
11
13.124815
21
-1.10000002
0
LINE
8
0
10
13.124815
20
-1.10000002
11
13.0921049
21
-1.10000002
0
LINE
8
0
10
13.0921049
20
-1.10000002
11
13.0747972
21
-1.10000002
0
LINE
8
0
10
13.0747972
20
-1.10000002
11
10.6402565
21
-1.10000002
0
LINE
8
0
10
10.6402565
20
-1.10000002
11
10.5017261
21
-1.10000002
0
LINE
8
0
10
10.5017261
20
-1.10000002
11
-14.6364285
21
-1.10000002
0
LINE
8
0
10
-14.6364285
20
-1.10000002
11
-14.6632428
21
-1.10000002
0
LINE
8
0
10
-14.6632428
20
-1.10000002
11
-14.7061207
21
-1.10000002
0
LINE
8
0
10
-14.7061207
20
-1.10000002
11
-14.7614184
21
-1.10000002
0
LINE
8
0
10
-14.7614184
20
-1.10000002
11
-14.8237282
21
-1.10000002
0
LINE
8
0
10
-14.8237282
20
-1.10000002
11
-14.8868999
21
-1.10000002
0
LINE
8
0
10
-14.8868999
20
-1.10000002
11
-14.945203
21
-1.10000002
0
LINE
8
0
10
-14.945203
20
-1.10000002
11
-14.9942065
21
-1.10000002
0
LINE
8
0
10
-14.9942065
20
-1.10000002
11
-15.0311545
21
-1.10000002
0
LINE
8
0
10
-15.0311545
20
-1.10000002
11
-15.8134281
21
-1.10000002
0
LINE
8
0
10
-15.8134281
20
-1.10000002
11
-18.5499992
21
-1.10000002
0
LINE
8
0
10
-18.5499992
20
-1.10000002
11
-18.5499992
21
-0.524354918
0
LINE
8
0
10
-18.5499992
20
-0.524354918
11
-18.5499992
21
-0.502945824
0
LINE
8
0
10
-18.5499992
20
-0.502945824
11
-18.5499992
21
-0.437178321
0
LINE
8
0
10
-18.5499992
20
-0.437178321
11
-18.5499992
21
0.613343221
0
LINE
8
0
10
-18.5499992
20
0.613343221
11
-18.5499992
21
0.725471464
0
LINE
8
0
10
-18.5499992
20
0.725471464
11
-18.5499992
21
0.906717636
0
LINE
8
0
10
-18.5499992
20
0.906717636
11
-18.5499992
21
1.15033886
0
LINE
8
0
10
-18.5499992
20
1.15033886
11
-18.5499992
21
2.57692353
0
LINE
8
0
10
-18.5499992
20
2.57692353
11
-18.5499992
21
2.75646599
0
LINE
8
0
10
-18.5499992
20
2.75646599
11
-18.5499992
21
2.98661473
0
LINE
8
0
10
-18.5499992
20
2.98661473
11
-18.5499992
21
3.66302736
0
LINE
8
0
10
-18.5499992
20
3.66302736
11
-18.5499992
21
3.89330358
0
LINE
8
0
10
-18.5499992
20
3.89330358
11
-18.5499992
21
5.82255514
0
LINE
8
0
10
-18.5499992
20
5.82255514
11
-18.5499992
21
10.2901793
0
LINE
8
0
10
-18.5499992
20
10.2901793
11
-18.5499992
21
14.8631704
0
LINE
8
0
10
-18.5499992
20
14.8631704
11
-18.5499992
21
28.5895758
0
LINE
8
0
10
-18.5499992
20
28.5895758
11
-18.5499992
21
32.5034415
0
LINE
8
0
10
-18.5499992
20
32.5034415
11
-18.5499992
21
33.8805853
0
LINE
8
0
10
-18.5499992
20
33.8805853
11
-18.5499992
21
40.2939453
0
LINE
8
0
10
-18.5499992
20
40.2939453
11
-18.5499992
21
41.0465559
0
LINE
8
0
10
-18.5499992
20
41.0465559
11
-18.5499992
21
41.2739738
0
LINE
8
0
10
-18.5499992
20
41.2739738
11
-18.5499992
21
41.5286716
0
LINE
8
0
10
-18.5499992
20
41.5286716
11
-18.5499992
21
41.789794
0
LINE
8
0
10
-18.5499992
20
41.789794
11
-18.5499992
21
42.03405
0
LINE
8
0
10
-18.5499992
20
42.03405
11
-18.5499992
21
42.7233329
0
LINE
8
0
10
-18.5499992
20
42.7233329
11
-18.5499992
21
42.9687539
0
LINE
8
0
10
-18.5499992
20
42.9687539
11
-18.5499992
21
43.1681277
0
LINE
8
0
10
-18.5499992
20
43.1681277
11
-18.5499992
21
44.5779297
0
LINE
8
0
10
-18.5499992
20
44.5779297
11
-18.5499992
21
44.8398847
0
LINE
8
0
10
-18.5499992
20
44.8398847
11
-18.5499992
21
45.0435916
0
LINE
8
0
10
-18.5499992
20
45.0435916
11
-18.5499992
21
45.1800957
0
LINE
8
0
10
-18.5499992
20
45.1800957
11
-18.5499992
21
45.2460823
0
LINE
8
0
10
-18.5499992
20
45.2460823
11
-18.5499992
21
46.5
0
LINE
8
0
10
-18.5499992
20
46.5
11
-17.7049773
21
46.5
0
LINE
8
0
10
-17.7049773
20
46.5
11
-15.8134281
21
46.5
0
LINE
8
0
10
-15.8134281
20
46.5
11
-15.0311545
21
46.5
0
LINE
8
0
10
-15.0311545
20
46.5
11
-14.9942065
21
46.5
0
LINE
8
0
10
-14.9942065
20
46.5
11
-14.945203
21
46.5
0
LINE
8
0
10
-14.945203
20
46.5
11
-14.945203
21
46.5
0
ENDSEC
0
EOF
