0
SECTION
2
ENTITIES
0
LINE
8
0
10
0.675866377
20
33.5467885
11
0.551323354
21
33.5890923
0
LINE
8
0
10
0.551323354
20
33.5890923
11
0.195846122
21
33.6359624
0
LINE
8
0
10
0.195846122
20
33.6359624
11
0.0654430464
21
33.6531563
0
LINE
8
0
10
0.0654430464
20
33.6531563
11
-0.292347844
21
33.629777
0
LINE
8
0
10
-0.292347844
20
33.629777
11
-0.42359966
21
33.6212006
0
LINE
8
0
10
-0.42359966
20
33.6212006
11
-0.769954485
21
33.5284677
0
LINE
8
0
10
-0.769954485
20
33.5284677
11
-0.897011101
21
33.4944496
0
LINE
8
0
10
-0.897011101
20
33.4944496
11
-1.21861968
21
33.3359299
0
LINE
8
0
10
-1.21861968
20
33.3359299
11
-1.3365984
21
33.2777786
0
LINE
8
0
10
-1.3365984
20
33.2777786
11
-1.62110145
21
33.059559
0
LINE
8
0
10
-1.62110145
20
33.059559
11
-1.7254684
21
32.9795074
0
LINE
8
0
10
-1.7254684
20
32.9795074
11
-1.96193258
21
32.7099801
0
LINE
8
0
10
-1.96193258
20
32.7099801
11
-2.04867697
21
32.6111069
0
LINE
8
0
10
-2.04867697
20
32.6111069
11
-2.22801531
21
32.300626
0
LINE
8
0
10
-2.22801531
20
32.300626
11
-2.29380369
21
32.1867294
0
LINE
8
0
10
-2.29380369
20
32.1867294
11
-2.40912392
21
31.8472262
0
LINE
8
0
10
-2.40912392
20
31.8472262
11
-2.45142794
21
31.722683
0
LINE
8
0
10
-2.45142794
20
31.722683
11
-2.49829882
21
31.367206
0
LINE
8
0
10
-2.49829882
20
31.367206
11
-2.51549292
21
31.2368031
0
LINE
8
0
10
-2.51549292
20
31.2368031
11
-2.49211294
21
30.8790111
0
LINE
8
0
10
-2.49211294
20
30.8790111
11
-2.48353624
21
30.7477589
0
LINE
8
0
10
-2.48353624
20
30.7477589
11
-2.39080407
21
30.4014053
0
LINE
8
0
10
-2.39080407
20
30.4014053
11
-2.35678625
21
30.2743492
0
LINE
8
0
10
-2.35678625
20
30.2743492
11
-2.19826532
21
29.9527397
0
LINE
8
0
10
-2.19826532
20
29.9527397
11
-2.14011359
21
29.8347607
0
LINE
8
0
10
-2.14011359
20
29.8347607
11
-1.9218959
21
29.5502574
0
LINE
8
0
10
-1.9218959
20
29.5502574
11
-1.84184504
21
29.4458904
0
LINE
8
0
10
-1.84184504
20
29.4458904
11
-0.00757115217
21
27.4866814
0
LINE
8
0
10
-0.00757115217
20
27.4866814
11
4.99263763
21
22.1459007
0
LINE
8
0
10
4.99263763
20
22.1459007
11
5.26216635
21
21.9094371
0
LINE
8
0
10
5.26216635
20
21.9094371
11
5.36104012
21
21.8226929
0
LINE
8
0
10
5.36104012
20
21.8226929
11
5.67152164
21
21.6433545
0
LINE
8
0
10
5.67152164
20
21.6433545
11
5.78541851
21
21.5775661
0
LINE
8
0
10
5.78541851
20
21.5775661
11
6.12492109
21
21.4622466
0
LINE
8
0
10
6.12492109
20
21.4622466
11
6.24946404
21
21.4199429
0
LINE
8
0
10
6.24946404
20
21.4199429
11
6.60494132
21
21.3730713
0
LINE
8
0
10
6.60494132
20
21.3730713
11
6.73534441
21
21.3558769
0
LINE
8
0
10
6.73534441
20
21.3558769
11
7.09313534
21
21.3792576
0
LINE
8
0
10
7.09313534
20
21.3792576
11
7.22438717
21
21.3878345
0
LINE
8
0
10
7.22438717
20
21.3878345
11
7.57074208
21
21.480566
0
LINE
8
0
10
7.57074208
20
21.480566
11
7.69779873
21
21.5145836
0
LINE
8
0
10
7.69779873
20
21.5145836
11
8.01940753
21
21.6731047
0
LINE
8
0
10
8.01940753
20
21.6731047
11
8.13738632
21
21.7312565
0
LINE
8
0
10
8.13738632
20
21.7312565
11
8.42188885
21
21.9494747
0
LINE
8
0
10
8.42188885
20
21.9494747
11
8.52625561
21
22.0295258
0
LINE
8
0
10
8.52625561
20
22.0295258
11
8.76271996
21
22.2990531
0
LINE
8
0
10
8.76271996
20
22.2990531
11
8.84946442
21
22.3979263
0
LINE
8
0
10
8.84946442
20
22.3979263
11
9.02880276
21
22.7084086
0
LINE
8
0
10
9.02880276
20
22.7084086
11
9.09459114
21
22.8223057
0
LINE
8
0
10
9.09459114
20
22.8223057
11
9.20991137
21
23.161809
0
LINE
8
0
10
9.20991137
20
23.161809
11
9.25221539
21
23.2863522
0
LINE
8
0
10
9.25221539
20
23.2863522
11
9.29908627
21
23.6418291
0
LINE
8
0
10
9.29908627
20
23.6418291
11
9.31628036
21
23.7722321
0
LINE
8
0
10
9.31628036
20
23.7722321
11
9.29290039
21
24.1300226
0
LINE
8
0
10
9.29290039
20
24.1300226
11
9.28432369
21
24.2612743
0
LINE
8
0
10
9.28432369
20
24.2612743
11
9.19159152
21
24.6076292
0
LINE
8
0
10
9.19159152
20
24.6076292
11
9.1575737
21
24.7346859
0
LINE
8
0
10
9.1575737
20
24.7346859
11
8.9990526
21
25.056294
0
LINE
8
0
10
8.9990526
20
25.056294
11
8.9409008
21
25.1742725
0
LINE
8
0
10
8.9409008
20
25.1742725
11
8.72268328
21
25.4587758
0
LINE
8
0
10
8.72268328
20
25.4587758
11
8.64263248
21
25.5631428
0
LINE
8
0
10
8.64263248
20
25.5631428
11
6.80835857
21
27.5223518
0
LINE
8
0
10
6.80835857
20
27.5223518
11
1.8081497
21
32.8631325
0
LINE
8
0
10
1.8081497
20
32.8631325
11
1.53862116
21
33.0995961
0
LINE
8
0
10
1.53862116
20
33.0995961
11
1.43974745
21
33.1863403
0
LINE
8
0
10
1.43974745
20
33.1863403
11
1.12926602
21
33.3656801
0
LINE
8
0
10
1.12926602
20
33.3656801
11
1.01536918
21
33.431469
0
LINE
8
0
10
1.01536918
20
33.431469
11
0.675866377
21
33.5467885
0
LINE
8
0
10
0.675866377
20
33.5467885
11
0.675866377
21
33.5467885
0
LINE
8
0
10
3.40226603
20
13.1730547
11
3.28836915
21
13.2388431
0
LINE
8
0
10
3.28836915
20
13.2388431
11
2.97788763
21
13.4181814
0
LINE
8
0
10
2.97788763
20
13.4181814
11
2.87901393
21
13.5049259
0
LINE
8
0
10
2.87901393
20
13.5049259
11
2.60948539
21
13.7413902
0
LINE
8
0
10
2.60948539
20
13.7413902
11
-7.39093201
21
24.4229501
0
LINE
8
0
10
-7.39093201
20
24.4229501
11
-11.0594797
21
28.3413677
0
LINE
8
0
10
-11.0594797
20
28.3413677
11
-11.1395308
21
28.4457347
0
LINE
8
0
10
-11.1395308
20
28.4457347
11
-11.357749
21
28.730238
0
LINE
8
0
10
-11.357749
20
28.730238
11
-11.4159005
21
28.848217
0
LINE
8
0
10
-11.4159005
20
28.848217
11
-11.5744209
21
29.1698265
0
LINE
8
0
10
-11.5744209
20
29.1698265
11
-11.608439
21
29.2968832
0
LINE
8
0
10
-11.608439
20
29.2968832
11
-11.7011719
21
29.6432381
0
LINE
8
0
10
-11.7011719
20
29.6432381
11
-11.7097486
21
29.7744898
0
LINE
8
0
10
-11.7097486
20
29.7744898
11
-11.7331285
21
30.1322803
0
LINE
8
0
10
-11.7331285
20
30.1322803
11
-11.7159345
21
30.2626833
0
LINE
8
0
10
-11.7159345
20
30.2626833
11
-11.6690636
21
30.6181602
0
LINE
8
0
10
-11.6690636
20
30.6181602
11
-11.6267593
21
30.7427034
0
LINE
8
0
10
-11.6267593
20
30.7427034
11
-11.5114384
21
31.0822067
0
LINE
8
0
10
-11.5114384
20
31.0822067
11
-11.4456502
21
31.1961033
0
LINE
8
0
10
-11.4456502
20
31.1961033
11
-11.2663126
21
31.5065842
0
LINE
8
0
10
-11.2663126
20
31.5065842
11
-11.1795681
21
31.6054579
0
LINE
8
0
10
-11.1795681
20
31.6054579
11
-10.9431038
21
31.8749866
0
LINE
8
0
10
-10.9431038
20
31.8749866
11
-10.8387368
21
31.9550377
0
LINE
8
0
10
-10.8387368
20
31.9550377
11
-10.5542336
21
32.1732559
0
LINE
8
0
10
-10.5542336
20
32.1732559
11
-10.4362548
21
32.2314072
0
LINE
8
0
10
-10.4362548
20
32.2314072
11
-10.114646
21
32.3899269
0
LINE
8
0
10
-10.114646
20
32.3899269
11
-9.98758931
21
32.423945
0
LINE
8
0
10
-9.98758931
20
32.423945
11
-9.6412344
21
32.5166779
0
LINE
8
0
10
-9.6412344
20
32.5166779
11
-9.5099827
21
32.5252543
0
LINE
8
0
10
-9.5099827
20
32.5252543
11
-9.15219212
21
32.5486336
0
LINE
8
0
10
-9.15219212
20
32.5486336
11
-9.02178915
21
32.5314397
0
LINE
8
0
10
-9.02178915
20
32.5314397
11
-8.66631222
21
32.4845695
0
LINE
8
0
10
-8.66631222
20
32.4845695
11
-8.54176902
21
32.4422658
0
LINE
8
0
10
-8.54176902
20
32.4422658
11
-8.20226574
21
32.3269463
0
LINE
8
0
10
-8.20226574
20
32.3269463
11
-8.08836899
21
32.2611574
0
LINE
8
0
10
-8.08836899
20
32.2611574
11
-7.77788782
21
32.0818176
0
LINE
8
0
10
-7.77788782
20
32.0818176
11
-7.67901405
21
31.9950734
0
LINE
8
0
10
-7.67901405
20
31.9950734
11
-7.40948534
21
31.7586098
0
LINE
8
0
10
-7.40948534
20
31.7586098
11
2.59093223
21
21.0770499
0
LINE
8
0
10
2.59093223
20
21.0770499
11
6.25948
21
17.1586323
0
LINE
8
0
10
6.25948
20
17.1586323
11
6.33953092
21
17.0542653
0
LINE
8
0
10
6.33953092
20
17.0542653
11
6.55774879
21
16.769762
0
LINE
8
0
10
6.55774879
20
16.769762
11
6.61590046
21
16.651783
0
LINE
8
0
10
6.61590046
20
16.651783
11
6.77442122
21
16.3301735
0
LINE
8
0
10
6.77442122
20
16.3301735
11
6.80843903
21
16.2031171
0
LINE
8
0
10
6.80843903
20
16.2031171
11
6.90117121
21
15.8567629
0
LINE
8
0
10
6.90117121
20
15.8567629
11
6.9097479
21
15.7255109
0
LINE
8
0
10
6.9097479
20
15.7255109
11
6.93312788
21
15.3677197
0
LINE
8
0
10
6.93312788
20
15.3677197
11
6.91593392
21
15.2373167
0
LINE
8
0
10
6.91593392
20
15.2373167
11
6.86906338
21
14.8818398
0
LINE
8
0
10
6.86906338
20
14.8818398
11
6.82675924
21
14.7572968
0
LINE
8
0
10
6.82675924
20
14.7572968
11
6.71143866
21
14.4177942
0
LINE
8
0
10
6.71143866
20
14.4177942
11
6.64565028
21
14.3038974
0
LINE
8
0
10
6.64565028
20
14.3038974
11
6.46631193
21
13.9934158
0
LINE
8
0
10
6.46631193
20
13.9934158
11
6.3795676
21
13.8945421
0
LINE
8
0
10
6.3795676
20
13.8945421
11
6.1431036
21
13.6250134
0
LINE
8
0
10
6.1431036
20
13.6250134
11
6.03873659
21
13.5449626
0
LINE
8
0
10
6.03873659
20
13.5449626
11
5.75423336
21
13.326745
0
LINE
8
0
10
5.75423336
20
13.326745
11
5.63625469
21
13.2685932
0
LINE
8
0
10
5.63625469
20
13.2685932
11
5.31464624
21
13.1100721
0
LINE
8
0
10
5.31464624
20
13.1100721
11
5.1875896
21
13.0760543
0
LINE
8
0
10
5.1875896
20
13.0760543
11
4.84123468
21
12.9833221
0
LINE
8
0
10
4.84123468
20
12.9833221
11
4.70998285
21
12.9747454
0
LINE
8
0
10
4.70998285
20
12.9747454
11
4.35219193
21
12.9513655
0
LINE
8
0
10
4.35219193
20
12.9513655
11
4.2217889
21
12.9685596
0
LINE
8
0
10
4.2217889
20
12.9685596
11
3.86631179
21
13.0154305
0
LINE
8
0
10
3.86631179
20
13.0154305
11
3.74176878
21
13.0577345
0
LINE
8
0
10
3.74176878
20
13.0577345
11
3.40226603
21
13.1730547
0
LINE
8
0
10
3.40226603
20
13.1730547
11
3.40226603
21
13.1730547
0
LINE
8
0
10
-14.6713092
20
46.5
11
-14.7477385
21
46.5
0
LINE
8
0
10
-14.7477385
20
46.5
11
-14.8182772
21
46.5
0
LINE
8
0
10
-14.8182772
20
46.5
11
-14.8775649
21
46.5
0
LINE
8
0
10
-14.8775649
20
46.5
11
-14.9222669
21
46.5
0
LINE
8
0
10
-14.9222669
20
46.5
11
-15.8687123
21
46.5
0
LINE
8
0
10
-15.8687123
20
46.5
11
-17.7220485
21
46.5
0
LINE
8
0
10
-17.7220485
20
46.5
11
-18.5499992
21
46.5
0
LINE
8
0
10
-18.5499992
20
46.5
11
-18.5499992
21
45.271414
0
LINE
8
0
10
-18.5499992
20
45.271414
11
-18.5499992
21
45.2067604
0
LINE
8
0
10
-18.5499992
20
45.2067604
11
-18.5499992
21
45.073014
0
LINE
8
0
10
-18.5499992
20
45.073014
11
-18.5499992
21
44.8734224
0
LINE
8
0
10
-18.5499992
20
44.8734224
11
-18.5499992
21
44.6167594
0
LINE
8
0
10
-18.5499992
20
44.6167594
11
-18.5499992
21
43.1042326
0
LINE
8
0
10
-18.5499992
20
43.1042326
11
-18.5499992
21
42.9124954
0
LINE
8
0
10
-18.5499992
20
42.9124954
11
-18.5499992
21
42.676475
0
LINE
8
0
10
-18.5499992
20
42.676475
11
-18.5499992
21
41.9315578
0
LINE
8
0
10
-18.5499992
20
41.9315578
11
-18.5499992
21
41.6996095
0
LINE
8
0
10
-18.5499992
20
41.6996095
11
-18.5499992
21
41.4516445
0
LINE
8
0
10
-18.5499992
20
41.4516445
11
-18.5499992
21
41.2097805
0
LINE
8
0
10
-18.5499992
20
41.2097805
11
-18.5499992
21
40.9938218
0
LINE
8
0
10
-18.5499992
20
40.9938218
11
-18.5499992
21
40.2791339
0
LINE
8
0
10
-18.5499992
20
40.2791339
11
-18.5499992
21
34.1889316
0
LINE
8
0
10
-18.5499992
20
34.1889316
11
-18.5499992
21
32.8811797
0
LINE
8
0
10
-18.5499992
20
32.8811797
11
-18.5499992
21
29.1645267
0
LINE
8
0
10
-18.5499992
20
29.1645267
11
-18.5499992
21
14.391377
0
LINE
8
0
10
-18.5499992
20
14.391377
11
-18.5499992
21
10.0488107
0
LINE
8
0
10
-18.5499992
20
10.0488107
11
-18.5499992
21
5.80630217
0
LINE
8
0
10
-18.5499992
20
5.80630217
11
-18.5499992
21
3.97426214
0
LINE
8
0
10
-18.5499992
20
3.97426214
11
-18.5499992
21
3.75558912
0
LINE
8
0
10
-18.5499992
20
3.75558912
11
-18.5499992
21
3.02543096
0
LINE
8
0
10
-18.5499992
20
3.02543096
11
-18.5499992
21
2.80409774
0
LINE
8
0
10
-18.5499992
20
2.80409774
11
-18.5499992
21
2.63143238
0
LINE
8
0
10
-18.5499992
20
2.63143238
11
-18.5499992
21
1.10487747
0
LINE
8
0
10
-18.5499992
20
1.10487747
11
-18.5499992
21
0.866177886
0
LINE
8
0
10
-18.5499992
20
0.866177886
11
-18.5499992
21
0.688593253
0
LINE
8
0
10
-18.5499992
20
0.688593253
11
-18.5499992
21
0.578730226
0
LINE
8
0
10
-18.5499992
20
0.578730226
11
-18.5499992
21
-0.450568659
0
LINE
8
0
10
-18.5499992
20
-0.450568659
11
-18.5499992
21
-0.515007525
0
LINE
8
0
10
-18.5499992
20
-0.515007525
11
-18.5499992
21
-0.535984112
0
LINE
8
0
10
-18.5499992
20
-0.535984112
11
-18.5499992
21
-1.10000002
0
LINE
8
0
10
-18.5499992
20
-1.10000002
11
-15.8687123
21
-1.10000002
0
LINE
8
0
10
-15.8687123
20
-1.10000002
11
-14.9222669
21
-1.10000002
0
LINE
8
0
10
-14.9222669
20
-1.10000002
11
-14.8775649
21
-1.10000002
0
LINE
8
0
10
-14.8775649
20
-1.10000002
11
-14.8182772
21
-1.10000002
0
LINE
8
0
10
-14.8182772
20
-1.10000002
11
-14.7477385
21
-1.10000002
0
LINE
8
0
10
-14.7477385
20
-1.10000002
11
-14.6713092
21
-1.10000002
0
LINE
8
0
10
-14.6713092
20
-1.10000002
11
-14.5959227
21
-1.10000002
0
LINE
8
0
10
-14.5959227
20
-1.10000002
11
-14.52902
21
-1.10000002
0
LINE
8
0
10
-14.52902
20
-1.10000002
11
-14.4771436
21
-1.10000002
0
LINE
8
0
10
-14.4771436
20
-1.10000002
11
-14.4447019
21
-1.10000002
0
LINE
8
0
10
-14.4447019
20
-1.10000002
11
9.8200274
21
-1.10000002
0
LINE
8
0
10
9.8200274
20
-1.10000002
11
9.98763053
21
-1.10000002
0
LINE
8
0
10
9.98763053
20
-1.10000002
11
12.9330958
21
-1.10000002
0
LINE
8
0
10
12.9330958
20
-1.10000002
11
12.9540358
21
-1.10000002
0
LINE
8
0
10
12.9540358
20
-1.10000002
11
12.9936106
21
-1.10000002
0
LINE
8
0
10
12.9936106
20
-1.10000002
11
13.0492994
21
-1.10000002
0
LINE
8
0
10
13.0492994
20
-1.10000002
11
13.1162022
21
-1.10000002
0
LINE
8
0
10
13.1162022
20
-1.10000002
11
13.1877762
21
-1.10000002
0
LINE
8
0
10
13.1877762
20
-1.10000002
11
13.2570724
21
-1.10000002
0
LINE
8
0
10
13.2570724
20
-1.10000002
11
13.3180114
21
-1.10000002
0
LINE
8
0
10
13.3180114
20
-1.10000002
11
13.366249
21
-1.10000002
0
LINE
8
0
10
13.366249
20
-1.10000002
11
13.399441
21
-1.10000002
0
LINE
8
0
10
13.399441
20
-1.10000002
11
13.75
21
-1.10000002
0
LINE
8
0
10
13.75
20
-1.10000002
11
13.75
21
-0.147644042
0
LINE
8
0
10
13.75
20
-0.147644042
11
13.75
21
0.446015416
0
LINE
8
0
10
13.75
20
0.446015416
11
13.75
21
36.8959647
0
LINE
8
0
10
13.75
20
36.8959647
11
13.75
21
44.977409
0
LINE
8
0
10
13.75
20
44.977409
11
13.75
21
45.5663177
0
LINE
8
0
10
13.75
20
45.5663177
11
13.75
21
46.5
0
LINE
8
0
10
13.75
20
46.5
11
13.399441
21
46.5
0
LINE
8
0
10
13.399441
20
46.5
11
13.366249
21
46.5
0
LINE
8
0
10
13.366249
20
46.5
11
13.3180114
21
46.5
0
LINE
8
0
10
13.3180114
20
46.5
11
13.2570724
21
46.5
0
LINE
8
0
10
13.2570724
20
46.5
11
13.1877762
21
46.5
0
LINE
8
0
10
13.1877762
20
46.5
11
13.1162022
21
46.5
0
LINE
8
0
10
13.1162022
20
46.5
11
13.0492994
21
46.5
0
LINE
8
0
10
13.0492994
20
46.5
11
12.9936106
21
46.5
0
LINE
8
0
10
12.9936106
20
46.5
11
12.9540358
21
46.5
0
LINE
8
0
10
12.9540358
20
46.5
11
12.9330958
21
46.5
0
LINE
8
0
10
12.9330958
20
46.5
11
9.98763053
21
46.5
0
LINE
8
0
10
9.98763053
20
46.5
11
9.8200274
21
46.5
0
LINE
8
0
10
9.8200274
20
46.5
11
-14.4447019
21
46.5
0
LINE
8
0
10
-14.4447019
20
46.5
11
-14.4771436
21
46.5
0
LINE
8
0
10
-14.4771436
20
46.5
11
-14.52902
21
46.5
0
LINE
8
0
10
-14.52902
20
46.5
11
-14.5959227
21
46.5
0
LINE
8
0
10
-14.5959227
20
46.5
11
-14.6713092
21
46.5
0
LINE
8
0
10
-14.6713092
20
46.5
11
-14.6713092
21
46.5
0
LINE
8
0
10
-13.3170598
20
20.1718965
11
-13.283042
21
20.0448399
0
LINE
8
0
10
-13.283042
20
20.0448399
11
-13.1245209
21
19.7232304
0
LINE
8
0
10
-13.1245209
20
19.7232304
11
-13.0663691
21
19.6052513
0
LINE
8
0
10
-13.0663691
20
19.6052513
11
-12.8481515
21
19.3207481
0
LINE
8
0
10
-12.8481515
20
19.3207481
11
-12.7681007
21
19.2163811
0
LINE
8
0
10
-12.7681007
20
19.2163811
11
-10.9338269
21
17.2571723
0
LINE
8
0
10
-10.9338269
20
17.2571723
11
-5.93361807
21
11.9163923
0
LINE
8
0
10
-5.93361807
20
11.9163923
11
-5.6640897
21
11.679928
0
LINE
8
0
10
-5.6640897
20
11.679928
11
-5.56521606
21
11.5931835
0
LINE
8
0
10
-5.56521606
20
11.5931835
11
-5.25473454
21
11.4138459
0
LINE
8
0
10
-5.25473454
20
11.4138459
11
-5.14083767
21
11.3480577
0
LINE
8
0
10
-5.14083767
20
11.3480577
11
-4.80133474
21
11.2327368
0
LINE
8
0
10
-4.80133474
20
11.2327368
11
-4.67679167
21
11.1904325
0
LINE
8
0
10
-4.67679167
20
11.1904325
11
-4.32131439
21
11.1435617
0
LINE
8
0
10
-4.32131439
20
11.1435617
11
-4.19091129
21
11.1263676
0
LINE
8
0
10
-4.19091129
20
11.1263676
11
-3.83312054
21
11.1497475
0
LINE
8
0
10
-3.83312054
20
11.1497475
11
-3.70186877
21
11.1583242
0
LINE
8
0
10
-3.70186877
20
11.1583242
11
-3.35551386
21
11.2510571
0
LINE
8
0
10
-3.35551386
20
11.2510571
11
-3.22845721
21
11.2850752
0
LINE
8
0
10
-3.22845721
20
11.2850752
11
-2.90684876
21
11.4435956
0
LINE
8
0
10
-2.90684876
20
11.4435956
11
-2.7888701
21
11.5017471
0
LINE
8
0
10
-2.7888701
20
11.5017471
11
-2.50436704
21
11.7199654
0
LINE
8
0
10
-2.50436704
20
11.7199654
11
-2.4000001
21
11.8000164
0
LINE
8
0
10
-2.4000001
20
11.8000164
11
-2.16353574
21
12.0695444
0
LINE
8
0
10
-2.16353574
20
12.0695444
11
-2.07679129
21
12.1684179
0
LINE
8
0
10
-2.07679129
20
12.1684179
11
-1.89745312
21
12.4788995
0
LINE
8
0
10
-1.89745312
20
12.4788995
11
-1.8316648
21
12.5927963
0
LINE
8
0
10
-1.8316648
20
12.5927963
11
-1.71634439
21
12.9322989
0
LINE
8
0
10
-1.71634439
20
12.9322989
11
-1.67404032
21
13.0568419
0
LINE
8
0
10
-1.67404032
20
13.0568419
11
-1.62716952
21
13.4123195
0
LINE
8
0
10
-1.62716952
20
13.4123195
11
-1.60997546
21
13.5427227
0
LINE
8
0
10
-1.60997546
20
13.5427227
11
-1.63335535
21
13.9005133
0
LINE
8
0
10
-1.63335535
20
13.9005133
11
-1.64193201
21
14.031765
0
LINE
8
0
10
-1.64193201
20
14.031765
11
-1.73466427
21
14.3781199
0
LINE
8
0
10
-1.73466427
20
14.3781199
11
-1.76868212
21
14.5051765
0
LINE
8
0
10
-1.76868212
20
14.5051765
11
-1.92720305
21
14.8267853
0
LINE
8
0
10
-1.92720305
20
14.8267853
11
-1.98535478
21
14.9447641
0
LINE
8
0
10
-1.98535478
20
14.9447641
11
-2.20357256
21
15.2292674
0
LINE
8
0
10
-2.20357256
20
15.2292674
11
-2.28362346
21
15.3336344
0
LINE
8
0
10
-2.28362346
20
15.3336344
11
-4.11789728
21
17.2928432
0
LINE
8
0
10
-4.11789728
20
17.2928432
11
-9.11810589
21
22.6336231
0
LINE
8
0
10
-9.11810589
20
22.6336231
11
-9.3876346
21
22.8700882
0
LINE
8
0
10
-9.3876346
20
22.8700882
11
-9.48650837
21
22.9568329
0
LINE
8
0
10
-9.48650837
20
22.9568329
11
-9.79698989
21
23.1361698
0
LINE
8
0
10
-9.79698989
20
23.1361698
11
-9.91088676
21
23.2019577
0
LINE
8
0
10
-9.91088676
20
23.2019577
11
-10.2503893
21
23.3172786
0
LINE
8
0
10
-10.2503893
20
23.3172786
11
-10.3749323
21
23.3595829
0
LINE
8
0
10
-10.3749323
20
23.3595829
11
-10.7304099
21
23.4064545
0
LINE
8
0
10
-10.7304099
20
23.4064545
11
-10.8608131
21
23.4236488
0
LINE
8
0
10
-10.8608131
20
23.4236488
11
-11.2186037
21
23.4002682
0
LINE
8
0
10
-11.2186037
20
23.4002682
11
-11.3498554
21
23.3916912
0
LINE
8
0
10
-11.3498554
20
23.3916912
11
-11.6962103
21
23.2989583
0
LINE
8
0
10
-11.6962103
20
23.2989583
11
-11.823267
21
23.2649403
0
LINE
8
0
10
-11.823267
20
23.2649403
11
-12.1448758
21
23.1064206
0
LINE
8
0
10
-12.1448758
20
23.1064206
11
-12.2628546
21
23.0482693
0
LINE
8
0
10
-12.2628546
20
23.0482693
11
-12.5473571
21
22.8300511
0
LINE
8
0
10
-12.5473571
20
22.8300511
11
-12.6517239
21
22.75
0
LINE
8
0
10
-12.6517239
20
22.75
11
-12.8881882
21
22.4804713
0
LINE
8
0
10
-12.8881882
20
22.4804713
11
-12.9749327
21
22.3815975
0
LINE
8
0
10
-12.9749327
20
22.3815975
11
-13.154271
21
22.0711167
0
LINE
8
0
10
-13.154271
20
22.0711167
11
-13.2200594
21
21.9572201
0
LINE
8
0
10
-13.2200594
20
21.9572201
11
-13.3353796
21
21.6177168
0
LINE
8
0
10
-13.3353796
20
21.6177168
11
-13.3776836
21
21.4931736
0
LINE
8
0
10
-13.3776836
20
21.4931736
11
-13.4245545
21
21.1376967
0
LINE
8
0
10
-13.4245545
20
21.1376967
11
-13.4417486
21
21.0072937
0
LINE
8
0
10
-13.4417486
20
21.0072937
11
-13.4183686
21
20.6495031
0
LINE
8
0
10
-13.4183686
20
20.6495031
11
-13.4097919
21
20.5182514
0
LINE
8
0
10
-13.4097919
20
20.5182514
11
-13.3170598
21
20.1718965
0
LINE
8
0
10
-13.3170598
20
20.1718965
11
-13.3170598
21
20.1718965
0
ENDSEC
0
EOF
