0
SECTION
2
ENTITIES
0
LINE
8
0
10
5.63200821
20
21.666178
11
5.36104012
21
21.8226929
0
LINE
8
0
10
5.36104012
20
21.8226929
11
5.22786478
21
21.9395306
0
LINE
8
0
10
5.22786478
20
21.9395306
11
4.99263763
21
22.1459007
0
LINE
8
0
10
4.99263763
20
22.1459007
11
0.628780395
21
26.8069869
0
LINE
8
0
10
0.628780395
20
26.8069869
11
-1.84184504
21
29.4458904
0
LINE
8
0
10
-1.84184504
20
29.4458904
11
-1.94966737
21
29.5864647
0
LINE
8
0
10
-1.94966737
20
29.5864647
11
-2.14011359
21
29.8347607
0
LINE
8
0
10
-2.14011359
20
29.8347607
11
-2.21843949
21
29.9936693
0
LINE
8
0
10
-2.21843949
20
29.9936693
11
-2.35678625
21
30.2743492
0
LINE
8
0
10
-2.35678625
20
30.2743492
11
-2.40260563
21
30.445484
0
LINE
8
0
10
-2.40260563
20
30.445484
11
-2.48353624
21
30.7477589
0
LINE
8
0
10
-2.48353624
20
30.7477589
11
-2.49508839
21
30.9245455
0
LINE
8
0
10
-2.49508839
20
30.9245455
11
-2.51549292
21
31.2368031
0
LINE
8
0
10
-2.51549292
20
31.2368031
11
-2.4923338
21
31.4124458
0
LINE
8
0
10
-2.4923338
20
31.4124458
11
-2.45142794
21
31.722683
0
LINE
8
0
10
-2.45142794
20
31.722683
11
-2.3944477
21
31.890433
0
LINE
8
0
10
-2.3944477
20
31.890433
11
-2.29380369
21
32.1867294
0
LINE
8
0
10
-2.29380369
20
32.1867294
11
-2.20519182
21
32.3401394
0
LINE
8
0
10
-2.20519182
20
32.3401394
11
-2.04867697
21
32.6111069
0
LINE
8
0
10
-2.04867697
20
32.6111069
11
-1.93183896
21
32.7442815
0
LINE
8
0
10
-1.93183896
20
32.7442815
11
-1.7254684
21
32.9795074
0
LINE
8
0
10
-1.7254684
20
32.9795074
11
-1.58489417
21
33.0873307
0
LINE
8
0
10
-1.58489417
20
33.0873307
11
-1.3365984
21
33.2777786
0
LINE
8
0
10
-1.3365984
20
33.2777786
11
-1.17769017
21
33.3561039
0
LINE
8
0
10
-1.17769017
20
33.3561039
11
-0.897011101
21
33.4944496
0
LINE
8
0
10
-0.897011101
20
33.4944496
11
-0.72587564
21
33.5402693
0
LINE
8
0
10
-0.72587564
20
33.5402693
11
-0.42359966
21
33.6212006
0
LINE
8
0
10
-0.42359966
20
33.6212006
11
-0.246813588
21
33.6327524
0
LINE
8
0
10
-0.246813588
20
33.6327524
11
0.0654430464
21
33.6531563
0
LINE
8
0
10
0.0654430464
20
33.6531563
11
0.24108593
21
33.6299975
0
LINE
8
0
10
0.24108593
20
33.6299975
11
0.551323354
21
33.5890923
0
LINE
8
0
10
0.551323354
20
33.5890923
11
0.719073199
21
33.5321124
0
LINE
8
0
10
0.719073199
20
33.5321124
11
1.01536918
21
33.431469
0
LINE
8
0
10
1.01536918
20
33.431469
11
1.16877944
21
33.3428564
0
LINE
8
0
10
1.16877944
20
33.3428564
11
1.43974745
21
33.1863403
0
LINE
8
0
10
1.43974745
20
33.1863403
11
1.5729227
21
33.0695026
0
LINE
8
0
10
1.5729227
20
33.0695026
11
1.8081497
21
32.8631325
0
LINE
8
0
10
1.8081497
20
32.8631325
11
6.17200701
21
28.2020463
0
LINE
8
0
10
6.17200701
20
28.2020463
11
8.64263248
21
25.5631428
0
LINE
8
0
10
8.64263248
20
25.5631428
11
8.75045473
21
25.4225685
0
LINE
8
0
10
8.75045473
20
25.4225685
11
8.9409008
21
25.1742725
0
LINE
8
0
10
8.9409008
20
25.1742725
11
9.01922679
21
25.0153645
0
LINE
8
0
10
9.01922679
20
25.0153645
11
9.1575737
21
24.7346859
0
LINE
8
0
10
9.1575737
20
24.7346859
11
9.20339308
21
24.5635504
0
LINE
8
0
10
9.20339308
20
24.5635504
11
9.28432369
21
24.2612743
0
LINE
8
0
10
9.28432369
20
24.2612743
11
9.29587584
21
24.0844884
0
LINE
8
0
10
9.29587584
20
24.0844884
11
9.31628036
21
23.7722321
0
LINE
8
0
10
9.31628036
20
23.7722321
11
9.29312125
21
23.5965893
0
LINE
8
0
10
9.29312125
20
23.5965893
11
9.25221539
21
23.2863522
0
LINE
8
0
10
9.25221539
20
23.2863522
11
9.19523514
21
23.1186021
0
LINE
8
0
10
9.19523514
20
23.1186021
11
9.09459114
21
22.8223057
0
LINE
8
0
10
9.09459114
20
22.8223057
11
9.00597927
21
22.668895
0
LINE
8
0
10
9.00597927
20
22.668895
11
8.84946442
21
22.3979263
0
LINE
8
0
10
8.84946442
20
22.3979263
11
8.73262633
21
22.2647517
0
LINE
8
0
10
8.73262633
20
22.2647517
11
8.52625561
21
22.0295258
0
LINE
8
0
10
8.52625561
20
22.0295258
11
8.38568164
21
21.9217032
0
LINE
8
0
10
8.38568164
20
21.9217032
11
8.13738632
21
21.7312565
0
LINE
8
0
10
8.13738632
20
21.7312565
11
7.97847798
21
21.6529305
0
LINE
8
0
10
7.97847798
20
21.6529305
11
7.69779873
21
21.5145836
0
LINE
8
0
10
7.69779873
20
21.5145836
11
7.52666322
21
21.4687646
0
LINE
8
0
10
7.52666322
20
21.4687646
11
7.22438717
21
21.3878345
0
LINE
8
0
10
7.22438717
20
21.3878345
11
7.04760108
21
21.3762821
0
LINE
8
0
10
7.04760108
20
21.3762821
11
6.73534441
21
21.3558769
0
LINE
8
0
10
6.73534441
20
21.3558769
11
6.5597015
21
21.3790364
0
LINE
8
0
10
6.5597015
20
21.3790364
11
6.24946404
21
21.4199429
0
LINE
8
0
10
6.24946404
20
21.4199429
11
6.0817143
21
21.4769228
0
LINE
8
0
10
6.0817143
20
21.4769228
11
5.78541851
21
21.5775661
0
LINE
8
0
10
5.78541851
20
21.5775661
11
5.63200821
21
21.666178
0
LINE
8
0
10
5.63200821
20
21.666178
11
5.63200821
21
21.666178
0
LINE
8
0
10
-1.7228627
20
14.334041
11
-1.76868212
21
14.5051765
0
LINE
8
0
10
-1.76868212
20
14.5051765
11
-1.90702888
21
14.7858558
0
LINE
8
0
10
-1.90702888
20
14.7858558
11
-1.98535478
21
14.9447641
0
LINE
8
0
10
-1.98535478
20
14.9447641
11
-2.17580108
21
15.1930601
0
LINE
8
0
10
-2.17580108
20
15.1930601
11
-2.28362346
21
15.3336344
0
LINE
8
0
10
-2.28362346
20
15.3336344
11
-4.7542488
21
17.9725375
0
LINE
8
0
10
-4.7542488
20
17.9725375
11
-9.11810589
21
22.6336231
0
LINE
8
0
10
-9.11810589
20
22.6336231
11
-9.35333303
21
22.8399945
0
LINE
8
0
10
-9.35333303
20
22.8399945
11
-9.48650837
21
22.9568329
0
LINE
8
0
10
-9.48650837
20
22.9568329
11
-9.75747646
21
23.1133465
0
LINE
8
0
10
-9.75747646
20
23.1133465
11
-9.91088676
21
23.2019577
0
LINE
8
0
10
-9.91088676
20
23.2019577
11
-10.2071826
21
23.3026023
0
LINE
8
0
10
-10.2071826
20
23.3026023
11
-10.3749323
21
23.3595829
0
LINE
8
0
10
-10.3749323
20
23.3595829
11
-10.6851701
21
23.4004894
0
LINE
8
0
10
-10.6851701
20
23.4004894
11
-10.8608131
21
23.4236488
0
LINE
8
0
10
-10.8608131
20
23.4236488
11
-11.1730695
21
23.4032437
0
LINE
8
0
10
-11.1730695
20
23.4032437
11
-11.3498554
21
23.3916912
0
LINE
8
0
10
-11.3498554
20
23.3916912
11
-11.6521315
21
23.31076
0
LINE
8
0
10
-11.6521315
20
23.31076
11
-11.823267
21
23.2649403
0
LINE
8
0
10
-11.823267
20
23.2649403
11
-12.1039462
21
23.1265946
0
LINE
8
0
10
-12.1039462
20
23.1265946
11
-12.2628546
21
23.0482693
0
LINE
8
0
10
-12.2628546
20
23.0482693
11
-12.5111499
21
22.8578226
0
LINE
8
0
10
-12.5111499
20
22.8578226
11
-12.6517239
21
22.75
0
LINE
8
0
10
-12.6517239
20
22.75
11
-12.8580946
21
22.5147729
0
LINE
8
0
10
-12.8580946
20
22.5147729
11
-12.9749327
21
22.3815975
0
LINE
8
0
10
-12.9749327
20
22.3815975
11
-13.1314475
21
22.11063
0
LINE
8
0
10
-13.1314475
20
22.11063
11
-13.2200594
21
21.9572201
0
LINE
8
0
10
-13.2200594
20
21.9572201
11
-13.3207034
21
21.6609237
0
LINE
8
0
10
-13.3207034
20
21.6609237
11
-13.3776836
21
21.4931736
0
LINE
8
0
10
-13.3776836
20
21.4931736
11
-13.4185895
21
21.1829364
0
LINE
8
0
10
-13.4185895
20
21.1829364
11
-13.4417486
21
21.0072937
0
LINE
8
0
10
-13.4417486
20
21.0072937
11
-13.4213441
21
20.6950373
0
LINE
8
0
10
-13.4213441
20
20.6950373
11
-13.4097919
21
20.5182514
0
LINE
8
0
10
-13.4097919
20
20.5182514
11
-13.3288613
21
20.2159754
0
LINE
8
0
10
-13.3288613
20
20.2159754
11
-13.283042
21
20.0448399
0
LINE
8
0
10
-13.283042
20
20.0448399
11
-13.144695
21
19.76416
0
LINE
8
0
10
-13.144695
20
19.76416
11
-13.0663691
21
19.6052513
0
LINE
8
0
10
-13.0663691
20
19.6052513
11
-12.875923
21
19.3569554
0
LINE
8
0
10
-12.875923
20
19.3569554
11
-12.7681007
21
19.2163811
0
LINE
8
0
10
-12.7681007
20
19.2163811
11
-10.2974753
21
16.5774779
0
LINE
8
0
10
-10.2974753
20
16.5774779
11
-5.93361807
21
11.9163923
0
LINE
8
0
10
-5.93361807
20
11.9163923
11
-5.69839123
21
11.7100216
0
LINE
8
0
10
-5.69839123
20
11.7100216
11
-5.56521606
21
11.5931835
0
LINE
8
0
10
-5.56521606
20
11.5931835
11
-5.29424797
21
11.4366693
0
LINE
8
0
10
-5.29424797
20
11.4366693
11
-5.14083767
21
11.3480577
0
LINE
8
0
10
-5.14083767
20
11.3480577
11
-4.84454158
21
11.2474131
0
LINE
8
0
10
-4.84454158
20
11.2474131
11
-4.67679167
21
11.1904325
0
LINE
8
0
10
-4.67679167
20
11.1904325
11
-4.3665542
21
11.1495267
0
LINE
8
0
10
-4.3665542
20
11.1495267
11
-4.19091129
21
11.1263676
0
LINE
8
0
10
-4.19091129
20
11.1263676
11
-3.87865478
21
11.1467721
0
LINE
8
0
10
-3.87865478
20
11.1467721
11
-3.70186877
21
11.1583242
0
LINE
8
0
10
-3.70186877
20
11.1583242
11
-3.39959272
21
11.2392555
0
LINE
8
0
10
-3.39959272
20
11.2392555
11
-3.22845721
21
11.2850752
0
LINE
8
0
10
-3.22845721
20
11.2850752
11
-2.94777826
21
11.4234215
0
LINE
8
0
10
-2.94777826
20
11.4234215
11
-2.7888701
21
11.5017471
0
LINE
8
0
10
-2.7888701
20
11.5017471
11
-2.54057432
21
11.6921938
0
LINE
8
0
10
-2.54057432
20
11.6921938
11
-2.4000001
21
11.8000164
0
LINE
8
0
10
-2.4000001
20
11.8000164
11
-2.19362938
21
12.0352429
0
LINE
8
0
10
-2.19362938
20
12.0352429
11
-2.07679129
21
12.1684179
0
LINE
8
0
10
-2.07679129
20
12.1684179
11
-1.92027659
21
12.439386
0
LINE
8
0
10
-1.92027659
20
12.439386
11
-1.8316648
21
12.5927963
0
LINE
8
0
10
-1.8316648
20
12.5927963
11
-1.73102064
21
12.8890921
0
LINE
8
0
10
-1.73102064
20
12.8890921
11
-1.67404032
21
13.0568419
0
LINE
8
0
10
-1.67404032
20
13.0568419
11
-1.63313453
21
13.3670796
0
LINE
8
0
10
-1.63313453
20
13.3670796
11
-1.60997546
21
13.5427227
0
LINE
8
0
10
-1.60997546
20
13.5427227
11
-1.6303799
21
13.8549791
0
LINE
8
0
10
-1.6303799
20
13.8549791
11
-1.64193201
21
14.031765
0
LINE
8
0
10
-1.64193201
20
14.031765
11
-1.7228627
21
14.334041
0
LINE
8
0
10
-1.7228627
20
14.334041
11
-1.7228627
21
14.334041
0
LINE
8
0
10
3.40226603
20
13.1730547
11
3.24885572
21
13.2616666
0
LINE
8
0
10
3.24885572
20
13.2616666
11
2.97788763
21
13.4181814
0
LINE
8
0
10
2.97788763
20
13.4181814
11
2.84471238
21
13.5350195
0
LINE
8
0
10
2.84471238
20
13.5350195
11
2.60948539
21
13.7413902
0
LINE
8
0
10
2.60948539
20
13.7413902
11
-6.11822894
21
23.0635614
0
LINE
8
0
10
-6.11822894
20
23.0635614
11
-11.0594797
21
28.3413677
0
LINE
8
0
10
-11.0594797
20
28.3413677
11
-11.1673023
21
28.481942
0
LINE
8
0
10
-11.1673023
20
28.481942
11
-11.357749
21
28.730238
0
LINE
8
0
10
-11.357749
20
28.730238
11
-11.4360746
21
28.8891466
0
LINE
8
0
10
-11.4360746
20
28.8891466
11
-11.5744209
21
29.1698265
0
LINE
8
0
10
-11.5744209
20
29.1698265
11
-11.6202407
21
29.340962
0
LINE
8
0
10
-11.6202407
20
29.340962
11
-11.7011719
21
29.6432381
0
LINE
8
0
10
-11.7011719
20
29.6432381
11
-11.712724
21
29.820024
0
LINE
8
0
10
-11.712724
20
29.820024
11
-11.7331285
21
30.1322803
0
LINE
8
0
10
-11.7331285
20
30.1322803
11
-11.7099694
21
30.3079231
0
LINE
8
0
10
-11.7099694
20
30.3079231
11
-11.6690636
21
30.6181602
0
LINE
8
0
10
-11.6690636
20
30.6181602
11
-11.612083
21
30.7859103
0
LINE
8
0
10
-11.612083
20
30.7859103
11
-11.5114384
21
31.0822067
0
LINE
8
0
10
-11.5114384
20
31.0822067
11
-11.4228268
21
31.2356167
0
LINE
8
0
10
-11.4228268
20
31.2356167
11
-11.2663126
21
31.5065842
0
LINE
8
0
10
-11.2663126
20
31.5065842
11
-11.1494745
21
31.6397595
0
LINE
8
0
10
-11.1494745
20
31.6397595
11
-10.9431038
21
31.8749866
0
LINE
8
0
10
-10.9431038
20
31.8749866
11
-10.8025295
21
31.9828092
0
LINE
8
0
10
-10.8025295
20
31.9828092
11
-10.5542336
21
32.1732559
0
LINE
8
0
10
-10.5542336
20
32.1732559
11
-10.3953252
21
32.2515812
0
LINE
8
0
10
-10.3953252
20
32.2515812
11
-10.114646
21
32.3899269
0
LINE
8
0
10
-10.114646
20
32.3899269
11
-9.94351045
21
32.4357466
0
LINE
8
0
10
-9.94351045
20
32.4357466
11
-9.6412344
21
32.5166779
0
LINE
8
0
10
-9.6412344
20
32.5166779
11
-9.46444848
21
32.5282297
0
LINE
8
0
10
-9.46444848
20
32.5282297
11
-9.15219212
21
32.5486336
0
LINE
8
0
10
-9.15219212
20
32.5486336
11
-8.97654938
21
32.5254748
0
LINE
8
0
10
-8.97654938
20
32.5254748
11
-8.66631222
21
32.4845695
0
LINE
8
0
10
-8.66631222
20
32.4845695
11
-8.49856214
21
32.4275897
0
LINE
8
0
10
-8.49856214
20
32.4275897
11
-8.20226574
21
32.3269463
0
LINE
8
0
10
-8.20226574
20
32.3269463
11
-8.04885561
21
32.2383337
0
LINE
8
0
10
-8.04885561
20
32.2383337
11
-7.77788782
21
32.0818176
0
LINE
8
0
10
-7.77788782
20
32.0818176
11
-7.64471248
21
31.9649799
0
LINE
8
0
10
-7.64471248
20
31.9649799
11
-7.40948534
21
31.7586098
0
LINE
8
0
10
-7.40948534
20
31.7586098
11
1.31822914
21
22.4364386
0
LINE
8
0
10
1.31822914
20
22.4364386
11
6.25948
21
17.1586323
0
LINE
8
0
10
6.25948
20
17.1586323
11
6.36730242
21
17.018058
0
LINE
8
0
10
6.36730242
20
17.018058
11
6.55774879
21
16.769762
0
LINE
8
0
10
6.55774879
20
16.769762
11
6.6360746
21
16.6108534
0
LINE
8
0
10
6.6360746
20
16.6108534
11
6.77442122
21
16.3301735
0
LINE
8
0
10
6.77442122
20
16.3301735
11
6.82024059
21
16.1590383
0
LINE
8
0
10
6.82024059
20
16.1590383
11
6.90117121
21
15.8567629
0
LINE
8
0
10
6.90117121
20
15.8567629
11
6.91272336
21
15.6799766
0
LINE
8
0
10
6.91272336
20
15.6799766
11
6.93312788
21
15.3677197
0
LINE
8
0
10
6.93312788
20
15.3677197
11
6.90996894
21
15.1920769
0
LINE
8
0
10
6.90996894
20
15.1920769
11
6.86906338
21
14.8818398
0
LINE
8
0
10
6.86906338
20
14.8818398
11
6.81208296
21
14.71409
0
LINE
8
0
10
6.81208296
20
14.71409
11
6.71143866
21
14.4177942
0
LINE
8
0
10
6.71143866
20
14.4177942
11
6.62282678
21
14.2643839
0
LINE
8
0
10
6.62282678
20
14.2643839
11
6.46631193
21
13.9934158
0
LINE
8
0
10
6.46631193
20
13.9934158
11
6.34947401
21
13.8602405
0
LINE
8
0
10
6.34947401
20
13.8602405
11
6.1431036
21
13.6250134
0
LINE
8
0
10
6.1431036
20
13.6250134
11
6.00252929
21
13.5171911
0
LINE
8
0
10
6.00252929
20
13.5171911
11
5.75423336
21
13.326745
0
LINE
8
0
10
5.75423336
20
13.326745
11
5.59532519
21
13.2484191
0
LINE
8
0
10
5.59532519
20
13.2484191
11
5.31464624
21
13.1100721
0
LINE
8
0
10
5.31464624
20
13.1100721
11
5.14351074
21
13.0642528
0
LINE
8
0
10
5.14351074
20
13.0642528
11
4.84123468
21
12.9833221
0
LINE
8
0
10
4.84123468
20
12.9833221
11
4.66444859
21
12.97177
0
LINE
8
0
10
4.66444859
20
12.97177
11
4.35219193
21
12.9513655
0
LINE
8
0
10
4.35219193
20
12.9513655
11
4.1765491
21
12.9745246
0
LINE
8
0
10
4.1765491
20
12.9745246
11
3.86631179
21
13.0154305
0
LINE
8
0
10
3.86631179
20
13.0154305
11
3.69856196
21
13.0724107
0
LINE
8
0
10
3.69856196
20
13.0724107
11
3.40226603
21
13.1730547
0
LINE
8
0
10
3.40226603
20
13.1730547
11
3.40226603
21
13.1730547
0
LINE
8
0
10
-14.7044919
20
46.5
11
-15.9792809
21
46.5
0
LINE
8
0
10
-15.9792809
20
46.5
11
-17.7561908
21
46.5
0
LINE
8
0
10
-17.7561908
20
46.5
11
-18.5499992
21
46.5
0
LINE
8
0
10
-18.5499992
20
46.5
11
-18.5499992
21
45.3220773
0
LINE
8
0
10
-18.5499992
20
45.3220773
11
-18.5499992
21
45.2600899
0
LINE
8
0
10
-18.5499992
20
45.2600899
11
-18.5499992
21
45.1318588
0
LINE
8
0
10
-18.5499992
20
45.1318588
11
-18.5499992
21
44.9404978
0
LINE
8
0
10
-18.5499992
20
44.9404978
11
-18.5499992
21
44.6944188
0
LINE
8
0
10
-18.5499992
20
44.6944188
11
-18.5499992
21
42.9764422
0
LINE
8
0
10
-18.5499992
20
42.9764422
11
-18.5499992
21
42.7999785
0
LINE
8
0
10
-18.5499992
20
42.7999785
11
-18.5499992
21
42.582759
0
LINE
8
0
10
-18.5499992
20
42.582759
11
-18.5499992
21
41.7265736
0
LINE
8
0
10
-18.5499992
20
41.7265736
11
-18.5499992
21
41.5192404
0
LINE
8
0
10
-18.5499992
20
41.5192404
11
-18.5499992
21
41.2975905
0
LINE
8
0
10
-18.5499992
20
41.2975905
11
-18.5499992
21
41.081394
0
LINE
8
0
10
-18.5499992
20
41.081394
11
-18.5499992
21
40.8883536
0
LINE
8
0
10
-18.5499992
20
40.8883536
11
-18.5499992
21
40.2495111
0
LINE
8
0
10
-18.5499992
20
40.2495111
11
-18.5499992
21
34.8056243
0
LINE
8
0
10
-18.5499992
20
34.8056243
11
-18.5499992
21
33.636656
0
LINE
8
0
10
-18.5499992
20
33.636656
11
-18.5499992
21
30.3144284
0
LINE
8
0
10
-18.5499992
20
30.3144284
11
-18.5499992
21
13.4477902
0
LINE
8
0
10
-18.5499992
20
13.4477902
11
-18.5499992
21
9.56607359
0
LINE
8
0
10
-18.5499992
20
9.56607359
11
-18.5499992
21
5.77379621
0
LINE
8
0
10
-18.5499992
20
5.77379621
11
-18.5499992
21
4.13617926
0
LINE
8
0
10
-18.5499992
20
4.13617926
11
-18.5499992
21
3.94071265
0
LINE
8
0
10
-18.5499992
20
3.94071265
11
-18.5499992
21
3.10306342
0
LINE
8
0
10
-18.5499992
20
3.10306342
11
-18.5499992
21
2.89936122
0
LINE
8
0
10
-18.5499992
20
2.89936122
11
-18.5499992
21
2.74045008
0
LINE
8
0
10
-18.5499992
20
2.74045008
11
-18.5499992
21
1.01395469
0
LINE
8
0
10
-18.5499992
20
1.01395469
11
-18.5499992
21
0.785098384
0
LINE
8
0
10
-18.5499992
20
0.785098384
11
-18.5499992
21
0.614836829
0
LINE
8
0
10
-18.5499992
20
0.614836829
11
-18.5499992
21
0.509504236
0
LINE
8
0
10
-18.5499992
20
0.509504236
11
-18.5499992
21
-0.477349334
0
LINE
8
0
10
-18.5499992
20
-0.477349334
11
-18.5499992
21
-0.539130927
0
LINE
8
0
10
-18.5499992
20
-0.539130927
11
-18.5499992
21
-0.559242501
0
LINE
8
0
10
-18.5499992
20
-0.559242501
11
-18.5499992
21
-1.10000002
0
LINE
8
0
10
-18.5499992
20
-1.10000002
11
-15.9792809
21
-1.10000002
0
LINE
8
0
10
-15.9792809
20
-1.10000002
11
-14.7044919
21
-1.10000002
0
LINE
8
0
10
-14.7044919
20
-1.10000002
11
-14.6442817
21
-1.10000002
0
LINE
8
0
10
-14.6442817
20
-1.10000002
11
-14.5644258
21
-1.10000002
0
LINE
8
0
10
-14.5644258
20
-1.10000002
11
-14.4694155
21
-1.10000002
0
LINE
8
0
10
-14.4694155
20
-1.10000002
11
-14.3664712
21
-1.10000002
0
LINE
8
0
10
-14.3664712
20
-1.10000002
11
-14.2649315
21
-1.10000002
0
LINE
8
0
10
-14.2649315
20
-1.10000002
11
-14.1748186
21
-1.10000002
0
LINE
8
0
10
-14.1748186
20
-1.10000002
11
-14.1049451
21
-1.10000002
0
LINE
8
0
10
-14.1049451
20
-1.10000002
11
-14.0612487
21
-1.10000002
0
LINE
8
0
10
-14.0612487
20
-1.10000002
11
8.45663005
21
-1.10000002
0
LINE
8
0
10
8.45663005
20
-1.10000002
11
8.68237854
21
-1.10000002
0
LINE
8
0
10
8.68237854
20
-1.10000002
11
12.6496931
21
-1.10000002
0
LINE
8
0
10
12.6496931
20
-1.10000002
11
12.6778976
21
-1.10000002
0
LINE
8
0
10
12.6778976
20
-1.10000002
11
12.7312018
21
-1.10000002
0
LINE
8
0
10
12.7312018
20
-1.10000002
11
12.8062104
21
-1.10000002
0
LINE
8
0
10
12.8062104
20
-1.10000002
11
12.8963232
21
-1.10000002
0
LINE
8
0
10
12.8963232
20
-1.10000002
11
12.9927279
21
-1.10000002
0
LINE
8
0
10
12.9927279
20
-1.10000002
11
13.0860645
21
-1.10000002
0
LINE
8
0
10
13.0860645
20
-1.10000002
11
13.1681446
21
-1.10000002
0
LINE
8
0
10
13.1681446
20
-1.10000002
11
13.233117
21
-1.10000002
0
LINE
8
0
10
13.233117
20
-1.10000002
11
13.277824
21
-1.10000002
0
LINE
8
0
10
13.277824
20
-1.10000002
11
13.75
21
-1.10000002
0
LINE
8
0
10
13.75
20
-1.10000002
11
13.75
21
0.182750022
0
LINE
8
0
10
13.75
20
0.182750022
11
13.75
21
0.982363519
0
LINE
8
0
10
13.75
20
0.982363519
11
13.75
21
33.5641053
0
LINE
8
0
10
13.75
20
33.5641053
11
13.75
21
44.4491874
0
LINE
8
0
10
13.75
20
44.4491874
11
13.75
21
45.2424019
0
LINE
8
0
10
13.75
20
45.2424019
11
13.75
21
46.5
0
LINE
8
0
10
13.75
20
46.5
11
13.277824
21
46.5
0
LINE
8
0
10
13.277824
20
46.5
11
13.233117
21
46.5
0
LINE
8
0
10
13.233117
20
46.5
11
13.1681446
21
46.5
0
LINE
8
0
10
13.1681446
20
46.5
11
13.0860645
21
46.5
0
LINE
8
0
10
13.0860645
20
46.5
11
12.9927279
21
46.5
0
LINE
8
0
10
12.9927279
20
46.5
11
12.8963232
21
46.5
0
LINE
8
0
10
12.8963232
20
46.5
11
12.8062104
21
46.5
0
LINE
8
0
10
12.8062104
20
46.5
11
12.7312018
21
46.5
0
LINE
8
0
10
12.7312018
20
46.5
11
12.6778976
21
46.5
0
LINE
8
0
10
12.6778976
20
46.5
11
12.6496931
21
46.5
0
LINE
8
0
10
12.6496931
20
46.5
11
8.68237854
21
46.5
0
LINE
8
0
10
8.68237854
20
46.5
11
8.45663005
21
46.5
0
LINE
8
0
10
8.45663005
20
46.5
11
-14.0612487
21
46.5
0
LINE
8
0
10
-14.0612487
20
46.5
11
-14.1049451
21
46.5
0
LINE
8
0
10
-14.1049451
20
46.5
11
-14.1748186
21
46.5
0
LINE
8
0
10
-14.1748186
20
46.5
11
-14.2649315
21
46.5
0
LINE
8
0
10
-14.2649315
20
46.5
11
-14.3664712
21
46.5
0
LINE
8
0
10
-14.3664712
20
46.5
11
-14.4694155
21
46.5
0
LINE
8
0
10
-14.4694155
20
46.5
11
-14.5644258
21
46.5
0
LINE
8
0
10
-14.5644258
20
46.5
11
-14.6442817
21
46.5
0
LINE
8
0
10
-14.6442817
20
46.5
11
-14.7044919
21
46.5
0
LINE
8
0
10
-14.7044919
20
46.5
11
-14.7044919
21
46.5
0
ENDSEC
0
EOF
