0
SECTION
2
ENTITIES
0
LINE
8
0
10
-3.9014219
20
11.1452844
11
-4.19091129
21
11.1263676
0
LINE
8
0
10
-4.19091129
20
11.1263676
11
-4.38917411
21
11.1525092
0
LINE
8
0
10
-4.38917411
20
11.1525092
11
-4.67679167
21
11.1904325
0
LINE
8
0
10
-4.67679167
20
11.1904325
11
-4.866145
21
11.2547513
0
LINE
8
0
10
-4.866145
20
11.2547513
11
-5.14083767
21
11.3480577
0
LINE
8
0
10
-5.14083767
20
11.3480577
11
-5.31400469
21
11.448081
0
LINE
8
0
10
-5.31400469
20
11.448081
11
-5.56521606
21
11.5931835
0
LINE
8
0
10
-5.56521606
20
11.5931835
11
-5.71554199
21
11.7250684
0
LINE
8
0
10
-5.71554199
20
11.7250684
11
-5.93361807
21
11.9163923
0
LINE
8
0
10
-5.93361807
20
11.9163923
11
-9.97929953
21
16.2376308
0
LINE
8
0
10
-9.97929953
20
16.2376308
11
-12.7681007
21
19.2163811
0
LINE
8
0
10
-12.7681007
20
19.2163811
11
-12.8898087
21
19.375059
0
LINE
8
0
10
-12.8898087
20
19.375059
11
-13.0663691
21
19.6052513
0
LINE
8
0
10
-13.0663691
20
19.6052513
11
-13.1547821
21
19.7846248
0
LINE
8
0
10
-13.1547821
20
19.7846248
11
-13.283042
21
20.0448399
0
LINE
8
0
10
-13.283042
20
20.0448399
11
-13.3347621
21
20.2380148
0
LINE
8
0
10
-13.3347621
20
20.2380148
11
-13.4097919
21
20.5182514
0
LINE
8
0
10
-13.4097919
20
20.5182514
11
-13.4228318
21
20.7178044
0
LINE
8
0
10
-13.4228318
20
20.7178044
11
-13.4417486
21
21.0072937
0
LINE
8
0
10
-13.4417486
20
21.0072937
11
-13.415607
21
21.2055563
0
LINE
8
0
10
-13.415607
20
21.2055563
11
-13.3776836
21
21.4931736
0
LINE
8
0
10
-13.3776836
20
21.4931736
11
-13.3133653
21
21.6825271
0
LINE
8
0
10
-13.3133653
20
21.6825271
11
-13.2200594
21
21.9572201
0
LINE
8
0
10
-13.2200594
20
21.9572201
11
-13.1200358
21
22.1303867
0
LINE
8
0
10
-13.1200358
20
22.1303867
11
-12.9749327
21
22.3815975
0
LINE
8
0
10
-12.9749327
20
22.3815975
11
-12.8430478
21
22.5319236
0
LINE
8
0
10
-12.8430478
20
22.5319236
11
-12.6517239
21
22.75
0
LINE
8
0
10
-12.6517239
20
22.75
11
-12.4930463
21
22.8717084
0
LINE
8
0
10
-12.4930463
20
22.8717084
11
-12.2628546
21
23.0482693
0
LINE
8
0
10
-12.2628546
20
23.0482693
11
-12.0834815
21
23.1366816
0
LINE
8
0
10
-12.0834815
20
23.1366816
11
-11.823267
21
23.2649403
0
LINE
8
0
10
-11.823267
20
23.2649403
11
-11.6300921
21
23.3166608
0
LINE
8
0
10
-11.6300921
20
23.3166608
11
-11.3498554
21
23.3916912
0
LINE
8
0
10
-11.3498554
20
23.3916912
11
-11.1503024
21
23.4047315
0
LINE
8
0
10
-11.1503024
20
23.4047315
11
-10.8608131
21
23.4236488
0
LINE
8
0
10
-10.8608131
20
23.4236488
11
-10.6625501
21
23.3975068
0
LINE
8
0
10
-10.6625501
20
23.3975068
11
-10.3749323
21
23.3595829
0
LINE
8
0
10
-10.3749323
20
23.3595829
11
-10.1855792
21
23.2952642
0
LINE
8
0
10
-10.1855792
20
23.2952642
11
-9.91088676
21
23.2019577
0
LINE
8
0
10
-9.91088676
20
23.2019577
11
-9.73771975
21
23.1019349
0
LINE
8
0
10
-9.73771975
20
23.1019349
11
-9.48650837
21
22.9568329
0
LINE
8
0
10
-9.48650837
20
22.9568329
11
-9.33618225
21
22.8249476
0
LINE
8
0
10
-9.33618225
20
22.8249476
11
-9.11810589
21
22.6336231
0
LINE
8
0
10
-9.11810589
20
22.6336231
11
-5.07242456
21
18.3123847
0
LINE
8
0
10
-5.07242456
20
18.3123847
11
-2.28362346
21
15.3336344
0
LINE
8
0
10
-2.28362346
20
15.3336344
11
-2.16191534
21
15.1749564
0
LINE
8
0
10
-2.16191534
20
15.1749564
11
-1.98535478
21
14.9447641
0
LINE
8
0
10
-1.98535478
20
14.9447641
11
-1.8969418
21
14.765391
0
LINE
8
0
10
-1.8969418
20
14.765391
11
-1.76868212
21
14.5051765
0
LINE
8
0
10
-1.76868212
20
14.5051765
11
-1.71696191
21
14.3120016
0
LINE
8
0
10
-1.71696191
20
14.3120016
11
-1.64193201
21
14.031765
0
LINE
8
0
10
-1.64193201
20
14.031765
11
-1.62889218
21
13.832212
0
LINE
8
0
10
-1.62889218
20
13.832212
11
-1.60997546
21
13.5427227
0
LINE
8
0
10
-1.60997546
20
13.5427227
11
-1.63611703
21
13.3444597
0
LINE
8
0
10
-1.63611703
20
13.3444597
11
-1.67404032
21
13.0568419
0
LINE
8
0
10
-1.67404032
20
13.0568419
11
-1.73835877
21
12.8674887
0
LINE
8
0
10
-1.73835877
20
12.8674887
11
-1.8316648
21
12.5927963
0
LINE
8
0
10
-1.8316648
20
12.5927963
11
-1.93168832
21
12.4196293
0
LINE
8
0
10
-1.93168832
20
12.4196293
11
-2.07679129
21
12.1684179
0
LINE
8
0
10
-2.07679129
20
12.1684179
11
-2.20867619
21
12.0180922
0
LINE
8
0
10
-2.20867619
20
12.0180922
11
-2.4000001
21
11.8000164
0
LINE
8
0
10
-2.4000001
20
11.8000164
11
-2.55867796
21
11.678308
0
LINE
8
0
10
-2.55867796
20
11.678308
11
-2.7888701
21
11.5017471
0
LINE
8
0
10
-2.7888701
20
11.5017471
11
-2.96824301
21
11.4133344
0
LINE
8
0
10
-2.96824301
20
11.4133344
11
-3.22845721
21
11.2850752
0
LINE
8
0
10
-3.22845721
20
11.2850752
11
-3.42163214
21
11.2333546
0
LINE
8
0
10
-3.42163214
20
11.2333546
11
-3.70186877
21
11.1583242
0
LINE
8
0
10
-3.70186877
20
11.1583242
11
-3.9014219
21
11.1452844
0
LINE
8
0
10
-3.9014219
20
11.1452844
11
-3.9014219
21
11.1452844
0
LINE
8
0
10
3.40226603
20
13.1730547
11
3.67695856
21
13.0797488
0
LINE
8
0
10
3.67695856
20
13.0797488
11
3.86631179
21
13.0154305
0
LINE
8
0
10
3.86631179
20
13.0154305
11
4.15392921
21
12.9775071
0
LINE
8
0
10
4.15392921
20
12.9775071
11
4.35219193
21
12.9513655
0
LINE
8
0
10
4.35219193
20
12.9513655
11
4.64168146
21
12.9702823
0
LINE
8
0
10
4.64168146
20
12.9702823
11
4.84123468
21
12.9833221
0
LINE
8
0
10
4.84123468
20
12.9833221
11
5.12147131
21
13.058352
0
LINE
8
0
10
5.12147131
20
13.058352
11
5.31464624
21
13.1100721
0
LINE
8
0
10
5.31464624
20
13.1100721
11
5.57486045
21
13.238332
0
LINE
8
0
10
5.57486045
20
13.238332
11
5.75423336
21
13.326745
0
LINE
8
0
10
5.75423336
20
13.326745
11
5.98442564
21
13.5033054
0
LINE
8
0
10
5.98442564
20
13.5033054
11
6.1431036
21
13.6250134
0
LINE
8
0
10
6.1431036
20
13.6250134
11
6.33442722
21
13.8430897
0
LINE
8
0
10
6.33442722
20
13.8430897
11
6.46631193
21
13.9934158
0
LINE
8
0
10
6.46631193
20
13.9934158
11
6.61141503
21
14.2446272
0
LINE
8
0
10
6.61141503
20
14.2446272
11
6.71143866
21
14.4177942
0
LINE
8
0
10
6.71143866
20
14.4177942
11
6.80474483
21
14.6924866
0
LINE
8
0
10
6.80474483
20
14.6924866
11
6.86906338
21
14.8818398
0
LINE
8
0
10
6.86906338
20
14.8818398
11
6.90698645
21
15.169457
0
LINE
8
0
10
6.90698645
20
15.169457
11
6.93312788
21
15.3677197
0
LINE
8
0
10
6.93312788
20
15.3677197
11
6.91421108
21
15.6572095
0
LINE
8
0
10
6.91421108
20
15.6572095
11
6.90117121
21
15.8567629
0
LINE
8
0
10
6.90117121
20
15.8567629
11
6.82614137
21
16.1369989
0
LINE
8
0
10
6.82614137
20
16.1369989
11
6.77442122
21
16.3301735
0
LINE
8
0
10
6.77442122
20
16.3301735
11
6.64616168
21
16.5903885
0
LINE
8
0
10
6.64616168
20
16.5903885
11
6.55774879
21
16.769762
0
LINE
8
0
10
6.55774879
20
16.769762
11
6.38118817
21
16.9999543
0
LINE
8
0
10
6.38118817
20
16.9999543
11
6.25948
21
17.1586323
0
LINE
8
0
10
6.25948
20
17.1586323
11
0.681877592
21
23.1161329
0
LINE
8
0
10
0.681877592
20
23.1161329
11
-7.40948534
21
31.7586098
0
LINE
8
0
10
-7.40948534
20
31.7586098
11
-7.6275617
21
31.9499331
0
LINE
8
0
10
-7.6275617
20
31.9499331
11
-7.77788782
21
32.0818176
0
LINE
8
0
10
-7.77788782
20
32.0818176
11
-8.02909892
21
32.2269219
0
LINE
8
0
10
-8.02909892
20
32.2269219
11
-8.20226574
21
32.3269463
0
LINE
8
0
10
-8.20226574
20
32.3269463
11
-8.47695869
21
32.4202516
0
LINE
8
0
10
-8.47695869
20
32.4202516
11
-8.66631222
21
32.4845695
0
LINE
8
0
10
-8.66631222
20
32.4845695
11
-8.9539295
21
32.5224923
0
LINE
8
0
10
-8.9539295
20
32.5224923
11
-9.15219212
21
32.5486336
0
LINE
8
0
10
-9.15219212
20
32.5486336
11
-9.44168137
21
32.5297173
0
LINE
8
0
10
-9.44168137
20
32.5297173
11
-9.6412344
21
32.5166779
0
LINE
8
0
10
-9.6412344
20
32.5166779
11
-9.92147103
21
32.4416475
0
LINE
8
0
10
-9.92147103
20
32.4416475
11
-10.114646
21
32.3899269
0
LINE
8
0
10
-10.114646
20
32.3899269
11
-10.3748604
21
32.2616682
0
LINE
8
0
10
-10.3748604
20
32.2616682
11
-10.5542336
21
32.1732559
0
LINE
8
0
10
-10.5542336
20
32.1732559
11
-10.7844258
21
31.996695
0
LINE
8
0
10
-10.7844258
20
31.996695
11
-10.9431038
21
31.8749866
0
LINE
8
0
10
-10.9431038
20
31.8749866
11
-11.1344277
21
31.6569103
0
LINE
8
0
10
-11.1344277
20
31.6569103
11
-11.2663126
21
31.5065842
0
LINE
8
0
10
-11.2663126
20
31.5065842
11
-11.4114151
21
31.2553734
0
LINE
8
0
10
-11.4114151
20
31.2553734
11
-11.5114384
21
31.0822067
0
LINE
8
0
10
-11.5114384
20
31.0822067
11
-11.6047448
21
30.8075138
0
LINE
8
0
10
-11.6047448
20
30.8075138
11
-11.6690636
21
30.6181602
0
LINE
8
0
10
-11.6690636
20
30.6181602
11
-11.7069869
21
30.330543
0
LINE
8
0
10
-11.7069869
20
30.330543
11
-11.7331285
21
30.1322803
0
LINE
8
0
10
-11.7331285
20
30.1322803
11
-11.7142118
21
29.8427911
0
LINE
8
0
10
-11.7142118
20
29.8427911
11
-11.7011719
21
29.6432381
0
LINE
8
0
10
-11.7011719
20
29.6432381
11
-11.6261415
21
29.3630014
0
LINE
8
0
10
-11.6261415
20
29.3630014
11
-11.5744209
21
29.1698265
0
LINE
8
0
10
-11.5744209
20
29.1698265
11
-11.4461617
21
28.9096115
0
LINE
8
0
10
-11.4461617
20
28.9096115
11
-11.357749
21
28.730238
0
LINE
8
0
10
-11.357749
20
28.730238
11
-11.1811881
21
28.5000457
0
LINE
8
0
10
-11.1811881
20
28.5000457
11
-11.0594797
21
28.3413677
0
LINE
8
0
10
-11.0594797
20
28.3413677
11
-5.4818774
21
22.3838671
0
LINE
8
0
10
-5.4818774
20
22.3838671
11
2.60948539
21
13.7413902
0
LINE
8
0
10
2.60948539
20
13.7413902
11
2.8275616
21
13.5500663
0
LINE
8
0
10
2.8275616
20
13.5500663
11
2.97788763
21
13.4181814
0
LINE
8
0
10
2.97788763
20
13.4181814
11
3.22909901
21
13.2730783
0
LINE
8
0
10
3.22909901
20
13.2730783
11
3.40226603
21
13.1730547
0
LINE
8
0
10
3.40226603
20
13.1730547
11
3.40226603
21
13.1730547
0
LINE
8
0
10
0.263705834
20
33.627015
11
0.551323354
21
33.5890923
0
LINE
8
0
10
0.551323354
20
33.5890923
11
0.740676611
21
33.5247743
0
LINE
8
0
10
0.740676611
20
33.5247743
11
1.01536918
21
33.431469
0
LINE
8
0
10
1.01536918
20
33.431469
11
1.18853615
21
33.3314446
0
LINE
8
0
10
1.18853615
20
33.3314446
11
1.43974745
21
33.1863403
0
LINE
8
0
10
1.43974745
20
33.1863403
11
1.59007348
21
33.0544558
0
LINE
8
0
10
1.59007348
20
33.0544558
11
1.8081497
21
32.8631325
0
LINE
8
0
10
1.8081497
20
32.8631325
11
5.85383123
21
28.5418935
0
LINE
8
0
10
5.85383123
20
28.5418935
11
8.64263248
21
25.5631428
0
LINE
8
0
10
8.64263248
20
25.5631428
11
8.76434046
21
25.4044648
0
LINE
8
0
10
8.76434046
20
25.4044648
11
8.9409008
21
25.1742725
0
LINE
8
0
10
8.9409008
20
25.1742725
11
9.02931388
21
24.9948998
0
LINE
8
0
10
9.02931388
20
24.9948998
11
9.1575737
21
24.7346859
0
LINE
8
0
10
9.1575737
20
24.7346859
11
9.20929386
21
24.541511
0
LINE
8
0
10
9.20929386
20
24.541511
11
9.28432369
21
24.2612743
0
LINE
8
0
10
9.28432369
20
24.2612743
11
9.29736357
21
24.0617213
0
LINE
8
0
10
9.29736357
20
24.0617213
11
9.31628036
21
23.7722321
0
LINE
8
0
10
9.31628036
20
23.7722321
11
9.29013874
21
23.5739694
0
LINE
8
0
10
9.29013874
20
23.5739694
11
9.25221539
21
23.2863522
0
LINE
8
0
10
9.25221539
20
23.2863522
11
9.18789703
21
23.0969986
0
LINE
8
0
10
9.18789703
20
23.0969986
11
9.09459114
21
22.8223057
0
LINE
8
0
10
9.09459114
20
22.8223057
11
8.99456752
21
22.6491383
0
LINE
8
0
10
8.99456752
20
22.6491383
11
8.84946442
21
22.3979263
0
LINE
8
0
10
8.84946442
20
22.3979263
11
8.71757951
21
22.247601
0
LINE
8
0
10
8.71757951
20
22.247601
11
8.52625561
21
22.0295258
0
LINE
8
0
10
8.52625561
20
22.0295258
11
8.36757803
21
21.9078174
0
LINE
8
0
10
8.36757803
20
21.9078174
11
8.13738632
21
21.7312565
0
LINE
8
0
10
8.13738632
20
21.7312565
11
7.95801321
21
21.6428434
0
LINE
8
0
10
7.95801321
20
21.6428434
11
7.69779873
21
21.5145836
0
LINE
8
0
10
7.69779873
20
21.5145836
11
7.5046238
21
21.4628638
0
LINE
8
0
10
7.5046238
20
21.4628638
11
7.22438717
21
21.3878345
0
LINE
8
0
10
7.22438717
20
21.3878345
11
7.02483395
21
21.3747943
0
LINE
8
0
10
7.02483395
20
21.3747943
11
6.73534441
21
21.3558769
0
LINE
8
0
10
6.73534441
20
21.3558769
11
6.53708159
21
21.3820189
0
LINE
8
0
10
6.53708159
20
21.3820189
11
6.24946404
21
21.4199429
0
LINE
8
0
10
6.24946404
20
21.4199429
11
6.0601109
21
21.4842608
0
LINE
8
0
10
6.0601109
20
21.4842608
11
5.78541851
21
21.5775661
0
LINE
8
0
10
5.78541851
20
21.5775661
11
5.61225149
21
21.6775898
0
LINE
8
0
10
5.61225149
20
21.6775898
11
5.36104012
21
21.8226929
0
LINE
8
0
10
5.36104012
20
21.8226929
11
5.21071399
21
21.9545774
0
LINE
8
0
10
5.21071399
20
21.9545774
11
4.99263763
21
22.1459007
0
LINE
8
0
10
4.99263763
20
22.1459007
11
0.946956168
21
26.4671397
0
LINE
8
0
10
0.946956168
20
26.4671397
11
-1.84184504
21
29.4458904
0
LINE
8
0
10
-1.84184504
20
29.4458904
11
-1.96355311
21
29.6045684
0
LINE
8
0
10
-1.96355311
20
29.6045684
11
-2.14011359
21
29.8347607
0
LINE
8
0
10
-2.14011359
20
29.8347607
11
-2.22852657
21
30.0141342
0
LINE
8
0
10
-2.22852657
20
30.0141342
11
-2.35678625
21
30.2743492
0
LINE
8
0
10
-2.35678625
20
30.2743492
11
-2.40850641
21
30.4675234
0
LINE
8
0
10
-2.40850641
20
30.4675234
11
-2.48353624
21
30.7477589
0
LINE
8
0
10
-2.48353624
20
30.7477589
11
-2.49657612
21
30.9473127
0
LINE
8
0
10
-2.49657612
20
30.9473127
11
-2.51549292
21
31.2368031
0
LINE
8
0
10
-2.51549292
20
31.2368031
11
-2.48935129
21
31.4350657
0
LINE
8
0
10
-2.48935129
20
31.4350657
11
-2.45142794
21
31.722683
0
LINE
8
0
10
-2.45142794
20
31.722683
11
-2.38710958
21
31.9120365
0
LINE
8
0
10
-2.38710958
20
31.9120365
11
-2.29380369
21
32.1867294
0
LINE
8
0
10
-2.29380369
20
32.1867294
11
-2.19378007
21
32.3598961
0
LINE
8
0
10
-2.19378007
20
32.3598961
11
-2.04867697
21
32.6111069
0
LINE
8
0
10
-2.04867697
20
32.6111069
11
-1.91679216
21
32.7614322
0
LINE
8
0
10
-1.91679216
20
32.7614322
11
-1.7254684
21
32.9795074
0
LINE
8
0
10
-1.7254684
20
32.9795074
11
-1.56679053
21
33.1012166
0
LINE
8
0
10
-1.56679053
20
33.1012166
11
-1.3365984
21
33.2777786
0
LINE
8
0
10
-1.3365984
20
33.2777786
11
-1.15722541
21
33.3661909
0
LINE
8
0
10
-1.15722541
20
33.3661909
11
-0.897011101
21
33.4944496
0
LINE
8
0
10
-0.897011101
20
33.4944496
11
-0.703836217
21
33.5461702
0
LINE
8
0
10
-0.703836217
20
33.5461702
11
-0.42359966
21
33.6212006
0
LINE
8
0
10
-0.42359966
20
33.6212006
11
-0.22404646
21
33.63424
0
LINE
8
0
10
-0.22404646
20
33.63424
11
0.0654430464
21
33.6531563
0
LINE
8
0
10
0.0654430464
20
33.6531563
11
0.263705834
21
33.627015
0
LINE
8
0
10
0.263705834
20
33.627015
11
0.263705834
21
33.627015
0
LINE
8
0
10
7.77493138
20
46.5
11
-13.869522
21
46.5
0
LINE
8
0
10
-13.869522
20
46.5
11
-13.9188459
21
46.5
0
LINE
8
0
10
-13.9188459
20
46.5
11
-13.9977179
21
46.5
0
LINE
8
0
10
-13.9977179
20
46.5
11
-14.0994358
21
46.5
0
LINE
8
0
10
-14.0994358
20
46.5
11
-14.2140522
21
46.5
0
LINE
8
0
10
-14.2140522
20
46.5
11
-14.3302541
21
46.5
0
LINE
8
0
10
-14.3302541
20
46.5
11
-14.4375001
21
46.5
0
LINE
8
0
10
-14.4375001
20
46.5
11
-14.5276401
21
46.5
0
LINE
8
0
10
-14.5276401
20
46.5
11
-14.5956044
21
46.5
0
LINE
8
0
10
-14.5956044
20
46.5
11
-16.0345651
21
46.5
0
LINE
8
0
10
-16.0345651
20
46.5
11
-17.7732619
21
46.5
0
LINE
8
0
10
-17.7732619
20
46.5
11
-18.5499992
21
46.5
0
LINE
8
0
10
-18.5499992
20
46.5
11
-18.5499992
21
45.347409
0
LINE
8
0
10
-18.5499992
20
45.347409
11
-18.5499992
21
45.2867546
0
LINE
8
0
10
-18.5499992
20
45.2867546
11
-18.5499992
21
45.1612812
0
LINE
8
0
10
-18.5499992
20
45.1612812
11
-18.5499992
21
44.9740354
0
LINE
8
0
10
-18.5499992
20
44.9740354
11
-18.5499992
21
44.7332485
0
LINE
8
0
10
-18.5499992
20
44.7332485
11
-18.5499992
21
42.912547
0
LINE
8
0
10
-18.5499992
20
42.912547
11
-18.5499992
21
42.7437201
0
LINE
8
0
10
-18.5499992
20
42.7437201
11
-18.5499992
21
42.5359011
0
LINE
8
0
10
-18.5499992
20
42.5359011
11
-18.5499992
21
41.6240814
0
LINE
8
0
10
-18.5499992
20
41.6240814
11
-18.5499992
21
41.4290559
0
LINE
8
0
10
-18.5499992
20
41.4290559
11
-18.5499992
21
41.2205635
0
LINE
8
0
10
-18.5499992
20
41.2205635
11
-18.5499992
21
41.0172007
0
LINE
8
0
10
-18.5499992
20
41.0172007
11
-18.5499992
21
40.8356196
0
LINE
8
0
10
-18.5499992
20
40.8356196
11
-18.5499992
21
40.2346998
0
LINE
8
0
10
-18.5499992
20
40.2346998
11
-18.5499992
21
35.1139707
0
LINE
8
0
10
-18.5499992
20
35.1139707
11
-18.5499992
21
34.0143942
0
LINE
8
0
10
-18.5499992
20
34.0143942
11
-18.5499992
21
30.8893793
0
LINE
8
0
10
-18.5499992
20
30.8893793
11
-18.5499992
21
12.9759968
0
LINE
8
0
10
-18.5499992
20
12.9759968
11
-18.5499992
21
9.32470502
0
LINE
8
0
10
-18.5499992
20
9.32470502
11
-18.5499992
21
5.75754324
0
LINE
8
0
10
-18.5499992
20
5.75754324
11
-18.5499992
21
4.21713781
0
LINE
8
0
10
-18.5499992
20
4.21713781
11
-18.5499992
21
4.03327442
0
LINE
8
0
10
-18.5499992
20
4.03327442
11
-18.5499992
21
3.14187965
0
LINE
8
0
10
-18.5499992
20
3.14187965
11
-18.5499992
21
2.94699296
0
LINE
8
0
10
-18.5499992
20
2.94699296
11
-18.5499992
21
2.79495893
0
LINE
8
0
10
-18.5499992
20
2.79495893
11
-18.5499992
21
0.968493295
0
LINE
8
0
10
-18.5499992
20
0.968493295
11
-18.5499992
21
0.744558633
0
LINE
8
0
10
-18.5499992
20
0.744558633
11
-18.5499992
21
0.577958617
0
LINE
8
0
10
-18.5499992
20
0.577958617
11
-18.5499992
21
0.474891241
0
LINE
8
0
10
-18.5499992
20
0.474891241
11
-18.5499992
21
-0.490739671
0
LINE
8
0
10
-18.5499992
20
-0.490739671
11
-18.5499992
21
-0.551192628
0
LINE
8
0
10
-18.5499992
20
-0.551192628
11
-18.5499992
21
-0.570871695
0
LINE
8
0
10
-18.5499992
20
-0.570871695
11
-18.5499992
21
-1.10000002
0
LINE
8
0
10
-18.5499992
20
-1.10000002
11
-16.0345651
21
-1.10000002
0
LINE
8
0
10
-16.0345651
20
-1.10000002
11
-14.5956044
21
-1.10000002
0
LINE
8
0
10
-14.5956044
20
-1.10000002
11
-14.5276401
21
-1.10000002
0
LINE
8
0
10
-14.5276401
20
-1.10000002
11
-14.4375001
21
-1.10000002
0
LINE
8
0
10
-14.4375001
20
-1.10000002
11
-14.3302541
21
-1.10000002
0
LINE
8
0
10
-14.3302541
20
-1.10000002
11
-14.2140522
21
-1.10000002
0
LINE
8
0
10
-14.2140522
20
-1.10000002
11
-14.0994358
21
-1.10000002
0
LINE
8
0
10
-14.0994358
20
-1.10000002
11
-13.9977179
21
-1.10000002
0
LINE
8
0
10
-13.9977179
20
-1.10000002
11
-13.9188459
21
-1.10000002
0
LINE
8
0
10
-13.9188459
20
-1.10000002
11
-13.869522
21
-1.10000002
0
LINE
8
0
10
-13.869522
20
-1.10000002
11
7.77493138
21
-1.10000002
0
LINE
8
0
10
7.77493138
20
-1.10000002
11
8.02975255
21
-1.10000002
0
LINE
8
0
10
8.02975255
20
-1.10000002
11
12.5079917
21
-1.10000002
0
LINE
8
0
10
12.5079917
20
-1.10000002
11
12.5398285
21
-1.10000002
0
LINE
8
0
10
12.5398285
20
-1.10000002
11
12.5999974
21
-1.10000002
0
LINE
8
0
10
12.5999974
20
-1.10000002
11
12.6846659
21
-1.10000002
0
LINE
8
0
10
12.6846659
20
-1.10000002
11
12.7863838
21
-1.10000002
0
LINE
8
0
10
12.7863838
20
-1.10000002
11
12.8952038
21
-1.10000002
0
LINE
8
0
10
12.8952038
20
-1.10000002
11
13.0005605
21
-1.10000002
0
LINE
8
0
10
13.0005605
20
-1.10000002
11
13.0932113
21
-1.10000002
0
LINE
8
0
10
13.0932113
20
-1.10000002
11
13.166551
21
-1.10000002
0
LINE
8
0
10
13.166551
20
-1.10000002
11
13.2170156
21
-1.10000002
0
LINE
8
0
10
13.2170156
20
-1.10000002
11
13.75
21
-1.10000002
0
LINE
8
0
10
13.75
20
-1.10000002
11
13.75
21
0.347947053
0
LINE
8
0
10
13.75
20
0.347947053
11
13.75
21
1.25053757
0
LINE
8
0
10
13.75
20
1.25053757
11
13.75
21
31.8981756
0
LINE
8
0
10
13.75
20
31.8981756
11
13.75
21
44.1850766
0
LINE
8
0
10
13.75
20
44.1850766
11
13.75
21
45.080444
0
LINE
8
0
10
13.75
20
45.080444
11
13.75
21
46.5
0
LINE
8
0
10
13.75
20
46.5
11
13.2170156
21
46.5
0
LINE
8
0
10
13.2170156
20
46.5
11
13.166551
21
46.5
0
LINE
8
0
10
13.166551
20
46.5
11
13.0932113
21
46.5
0
LINE
8
0
10
13.0932113
20
46.5
11
13.0005605
21
46.5
0
LINE
8
0
10
13.0005605
20
46.5
11
12.8952038
21
46.5
0
LINE
8
0
10
12.8952038
20
46.5
11
12.7863838
21
46.5
0
LINE
8
0
10
12.7863838
20
46.5
11
12.6846659
21
46.5
0
LINE
8
0
10
12.6846659
20
46.5
11
12.5999974
21
46.5
0
LINE
8
0
10
12.5999974
20
46.5
11
12.5398285
21
46.5
0
LINE
8
0
10
12.5398285
20
46.5
11
12.5079917
21
46.5
0
LINE
8
0
10
12.5079917
20
46.5
11
8.02975255
21
46.5
0
LINE
8
0
10
8.02975255
20
46.5
11
7.77493138
21
46.5
0
LINE
8
0
10
7.77493138
20
46.5
11
7.77493138
21
46.5
0
ENDSEC
0
EOF
