0
SECTION
2
ENTITIES
0
LINE
8
0
10
12.7001555
20
46.5
11
12.8295527
21
46.5
0
LINE
8
0
10
12.8295527
20
46.5
11
12.9433445
21
46.5
0
LINE
8
0
10
12.9433445
20
46.5
11
13.0334189
21
46.5
0
LINE
8
0
10
13.0334189
20
46.5
11
13.0953986
21
46.5
0
LINE
8
0
10
13.0953986
20
46.5
11
13.75
21
46.5
0
LINE
8
0
10
13.75
20
46.5
11
13.75
21
44.7565283
0
LINE
8
0
10
13.75
20
44.7565283
11
13.75
21
43.656855
0
LINE
8
0
10
13.75
20
43.656855
11
13.75
21
28.5663162
0
LINE
8
0
10
13.75
20
28.5663162
11
13.75
21
1.78688567
0
LINE
8
0
10
13.75
20
1.78688567
11
13.75
21
0.678341117
0
LINE
8
0
10
13.75
20
0.678341117
11
13.75
21
-1.10000002
0
LINE
8
0
10
13.75
20
-1.10000002
11
13.0953986
21
-1.10000002
0
LINE
8
0
10
13.0953986
20
-1.10000002
11
13.0334189
21
-1.10000002
0
LINE
8
0
10
13.0334189
20
-1.10000002
11
12.9433445
21
-1.10000002
0
LINE
8
0
10
12.9433445
20
-1.10000002
11
12.8295527
21
-1.10000002
0
LINE
8
0
10
12.8295527
20
-1.10000002
11
12.7001555
21
-1.10000002
0
LINE
8
0
10
12.7001555
20
-1.10000002
11
12.5665048
21
-1.10000002
0
LINE
8
0
10
12.5665048
20
-1.10000002
11
12.4415768
21
-1.10000002
0
LINE
8
0
10
12.4415768
20
-1.10000002
11
12.3375887
21
-1.10000002
0
LINE
8
0
10
12.3375887
20
-1.10000002
11
12.2636903
21
-1.10000002
0
LINE
8
0
10
12.2636903
20
-1.10000002
11
12.224589
21
-1.10000002
0
LINE
8
0
10
12.224589
20
-1.10000002
11
6.72450056
21
-1.10000002
0
LINE
8
0
10
6.72450056
20
-1.10000002
11
6.41153403
21
-1.10000002
0
LINE
8
0
10
6.41153403
20
-1.10000002
11
-13.4860688
21
-1.10000002
0
LINE
8
0
10
-13.4860688
20
-1.10000002
11
-13.5466474
21
-1.10000002
0
LINE
8
0
10
-13.5466474
20
-1.10000002
11
-13.6435165
21
-1.10000002
0
LINE
8
0
10
-13.6435165
20
-1.10000002
11
-13.7684445
21
-1.10000002
0
LINE
8
0
10
-13.7684445
20
-1.10000002
11
-13.9092142
21
-1.10000002
0
LINE
8
0
10
-13.9092142
20
-1.10000002
11
-14.0519311
21
-1.10000002
0
LINE
8
0
10
-14.0519311
20
-1.10000002
11
-14.1836487
21
-1.10000002
0
LINE
8
0
10
-14.1836487
20
-1.10000002
11
-14.294357
21
-1.10000002
0
LINE
8
0
10
-14.294357
20
-1.10000002
11
-14.3778294
21
-1.10000002
0
LINE
8
0
10
-14.3778294
20
-1.10000002
11
-16.1451337
21
-1.10000002
0
LINE
8
0
10
-16.1451337
20
-1.10000002
11
-18.5499992
21
-1.10000002
0
LINE
8
0
10
-18.5499992
20
-1.10000002
11
-18.5499992
21
-0.594130083
0
LINE
8
0
10
-18.5499992
20
-0.594130083
11
-18.5499992
21
-0.57531603
0
LINE
8
0
10
-18.5499992
20
-0.57531603
11
-18.5499992
21
-0.517520346
0
LINE
8
0
10
-18.5499992
20
-0.517520346
11
-18.5499992
21
0.405665252
0
LINE
8
0
10
-18.5499992
20
0.405665252
11
-18.5499992
21
0.504202193
0
LINE
8
0
10
-18.5499992
20
0.504202193
11
-18.5499992
21
0.663479132
0
LINE
8
0
10
-18.5499992
20
0.663479132
11
-18.5499992
21
0.877570512
0
LINE
8
0
10
-18.5499992
20
0.877570512
11
-18.5499992
21
2.90397663
0
LINE
8
0
10
-18.5499992
20
2.90397663
11
-18.5499992
21
3.04225644
0
LINE
8
0
10
-18.5499992
20
3.04225644
11
-18.5499992
21
3.21951212
0
LINE
8
0
10
-18.5499992
20
3.21951212
11
-18.5499992
21
4.21839795
0
LINE
8
0
10
-18.5499992
20
4.21839795
11
-18.5499992
21
4.37905493
0
LINE
8
0
10
-18.5499992
20
4.37905493
11
-18.5499992
21
5.72503728
0
LINE
8
0
10
-18.5499992
20
5.72503728
11
-18.5499992
21
8.8419679
0
LINE
8
0
10
-18.5499992
20
8.8419679
11
-18.5499992
21
12.03241
0
LINE
8
0
10
-18.5499992
20
12.03241
11
-18.5499992
21
32.039281
0
LINE
8
0
10
-18.5499992
20
32.039281
11
-18.5499992
21
34.7698705
0
LINE
8
0
10
-18.5499992
20
34.7698705
11
-18.5499992
21
35.7306634
0
LINE
8
0
10
-18.5499992
20
35.7306634
11
-18.5499992
21
40.205077
0
LINE
8
0
10
-18.5499992
20
40.205077
11
-18.5499992
21
40.7301514
0
LINE
8
0
10
-18.5499992
20
40.7301514
11
-18.5499992
21
40.8888142
0
LINE
8
0
10
-18.5499992
20
40.8888142
11
-18.5499992
21
41.0665094
0
LINE
8
0
10
-18.5499992
20
41.0665094
11
-18.5499992
21
41.2486869
0
LINE
8
0
10
-18.5499992
20
41.2486869
11
-18.5499992
21
41.4190971
0
LINE
8
0
10
-18.5499992
20
41.4190971
11
-18.5499992
21
42.4421851
0
LINE
8
0
10
-18.5499992
20
42.4421851
11
-18.5499992
21
42.6312032
0
LINE
8
0
10
-18.5499992
20
42.6312032
11
-18.5499992
21
42.7847567
0
LINE
8
0
10
-18.5499992
20
42.7847567
11
-18.5499992
21
44.8109079
0
LINE
8
0
10
-18.5499992
20
44.8109079
11
-18.5499992
21
45.0411108
0
LINE
8
0
10
-18.5499992
20
45.0411108
11
-18.5499992
21
45.220126
0
LINE
8
0
10
-18.5499992
20
45.220126
11
-18.5499992
21
45.3400841
0
LINE
8
0
10
-18.5499992
20
45.3400841
11
-18.5499992
21
45.3980724
0
LINE
8
0
10
-18.5499992
20
45.3980724
11
-18.5499992
21
46.5
0
LINE
8
0
10
-18.5499992
20
46.5
11
-17.8074042
21
46.5
0
LINE
8
0
10
-17.8074042
20
46.5
11
-16.1451337
21
46.5
0
LINE
8
0
10
-16.1451337
20
46.5
11
-14.3778294
21
46.5
0
LINE
8
0
10
-14.3778294
20
46.5
11
-14.294357
21
46.5
0
LINE
8
0
10
-14.294357
20
46.5
11
-14.1836487
21
46.5
0
LINE
8
0
10
-14.1836487
20
46.5
11
-14.0519311
21
46.5
0
LINE
8
0
10
-14.0519311
20
46.5
11
-13.9092142
21
46.5
0
LINE
8
0
10
-13.9092142
20
46.5
11
-13.7684445
21
46.5
0
LINE
8
0
10
-13.7684445
20
46.5
11
-13.6435165
21
46.5
0
LINE
8
0
10
-13.6435165
20
46.5
11
-13.5466474
21
46.5
0
LINE
8
0
10
-13.5466474
20
46.5
11
-13.4860688
21
46.5
0
LINE
8
0
10
-13.4860688
20
46.5
11
6.41153403
21
46.5
0
LINE
8
0
10
6.41153403
20
46.5
11
6.72450056
21
46.5
0
LINE
8
0
10
6.72450056
20
46.5
11
12.224589
21
46.5
0
LINE
8
0
10
12.224589
20
46.5
11
12.2636903
21
46.5
0
LINE
8
0
10
12.2636903
20
46.5
11
12.3375887
21
46.5
0
LINE
8
0
10
12.3375887
20
46.5
11
12.4415768
21
46.5
0
LINE
8
0
10
12.4415768
20
46.5
11
12.5665048
21
46.5
0
LINE
8
0
10
12.5665048
20
46.5
11
12.7001555
21
46.5
0
LINE
8
0
10
12.7001555
20
46.5
11
12.7001555
21
46.5
0
LINE
8
0
10
-1.88669854
20
32.7957336
11
-2.04867697
21
32.6111069
0
LINE
8
0
10
-2.04867697
20
32.6111069
11
-2.17095658
21
32.3994094
0
LINE
8
0
10
-2.17095658
20
32.3994094
11
-2.29380369
21
32.1867294
0
LINE
8
0
10
-2.29380369
20
32.1867294
11
-2.37243335
21
31.9552434
0
LINE
8
0
10
-2.37243335
20
31.9552434
11
-2.45142794
21
31.722683
0
LINE
8
0
10
-2.45142794
20
31.722683
11
-2.48338627
21
31.4803054
0
LINE
8
0
10
-2.48338627
20
31.4803054
11
-2.51549292
21
31.2368031
0
LINE
8
0
10
-2.51549292
20
31.2368031
11
-2.49955157
21
30.9928471
0
LINE
8
0
10
-2.49955157
20
30.9928471
11
-2.48353624
21
30.7477589
0
LINE
8
0
10
-2.48353624
20
30.7477589
11
-2.42030797
21
30.511602
0
LINE
8
0
10
-2.42030797
20
30.511602
11
-2.35678625
21
30.2743492
0
LINE
8
0
10
-2.35678625
20
30.2743492
11
-2.24870074
21
30.0550638
0
LINE
8
0
10
-2.24870074
20
30.0550638
11
-2.14011359
21
29.8347607
0
LINE
8
0
10
-2.14011359
20
29.8347607
11
-1.99132458
21
29.6407757
0
LINE
8
0
10
-1.99132458
20
29.6407757
11
-1.84184504
21
29.4458904
0
LINE
8
0
10
-1.84184504
20
29.4458904
11
1.58330771
21
25.7874453
0
LINE
8
0
10
1.58330771
20
25.7874453
11
4.99263763
21
22.1459007
0
LINE
8
0
10
4.99263763
20
22.1459007
11
5.17641242
21
21.9846709
0
LINE
8
0
10
5.17641242
20
21.9846709
11
5.36104012
21
21.8226929
0
LINE
8
0
10
5.36104012
20
21.8226929
11
5.57273806
21
21.7004133
0
LINE
8
0
10
5.57273806
20
21.7004133
11
5.78541851
21
21.5775661
0
LINE
8
0
10
5.78541851
20
21.5775661
11
6.01690411
21
21.498937
0
LINE
8
0
10
6.01690411
20
21.498937
11
6.24946404
21
21.4199429
0
LINE
8
0
10
6.24946404
20
21.4199429
11
6.49184178
21
21.3879841
0
LINE
8
0
10
6.49184178
20
21.3879841
11
6.73534441
21
21.3558769
0
LINE
8
0
10
6.73534441
20
21.3558769
11
6.97929969
21
21.3718187
0
LINE
8
0
10
6.97929969
20
21.3718187
11
7.22438717
21
21.3878345
0
LINE
8
0
10
7.22438717
20
21.3878345
11
7.46054494
21
21.4510623
0
LINE
8
0
10
7.46054494
20
21.4510623
11
7.69779873
21
21.5145836
0
LINE
8
0
10
7.69779873
20
21.5145836
11
7.91708367
21
21.6226692
0
LINE
8
0
10
7.91708367
20
21.6226692
11
8.13738632
21
21.7312565
0
LINE
8
0
10
8.13738632
20
21.7312565
11
8.33137082
21
21.8800459
0
LINE
8
0
10
8.33137082
20
21.8800459
11
8.52625561
21
22.0295258
0
LINE
8
0
10
8.52625561
20
22.0295258
11
8.68748587
21
22.2132996
0
LINE
8
0
10
8.68748587
20
22.2132996
11
8.84946442
21
22.3979263
0
LINE
8
0
10
8.84946442
20
22.3979263
11
8.97174403
21
22.6096248
0
LINE
8
0
10
8.97174403
20
22.6096248
11
9.09459114
21
22.8223057
0
LINE
8
0
10
9.09459114
20
22.8223057
11
9.1732208
21
23.0537918
0
LINE
8
0
10
9.1732208
20
23.0537918
11
9.25221539
21
23.2863522
0
LINE
8
0
10
9.25221539
20
23.2863522
11
9.28417372
21
23.5287297
0
LINE
8
0
10
9.28417372
20
23.5287297
11
9.31628036
21
23.7722321
0
LINE
8
0
10
9.31628036
20
23.7722321
11
9.30033902
21
24.0161871
0
LINE
8
0
10
9.30033902
20
24.0161871
11
9.28432369
21
24.2612743
0
LINE
8
0
10
9.28432369
20
24.2612743
11
9.22109542
21
24.4974321
0
LINE
8
0
10
9.22109542
20
24.4974321
11
9.1575737
21
24.7346859
0
LINE
8
0
10
9.1575737
20
24.7346859
11
9.04948807
21
24.9539704
0
LINE
8
0
10
9.04948807
20
24.9539704
11
8.9409008
21
25.1742725
0
LINE
8
0
10
8.9409008
20
25.1742725
11
8.79211191
21
25.3682575
0
LINE
8
0
10
8.79211191
20
25.3682575
11
8.64263248
21
25.5631428
0
LINE
8
0
10
8.64263248
20
25.5631428
11
5.21747967
21
29.2215879
0
LINE
8
0
10
5.21747967
20
29.2215879
11
1.8081497
21
32.8631325
0
LINE
8
0
10
1.8081497
20
32.8631325
11
1.62437503
21
33.0243623
0
LINE
8
0
10
1.62437503
20
33.0243623
11
1.43974745
21
33.1863403
0
LINE
8
0
10
1.43974745
20
33.1863403
11
1.22804956
21
33.3086209
0
LINE
8
0
10
1.22804956
20
33.3086209
11
1.01536918
21
33.431469
0
LINE
8
0
10
1.01536918
20
33.431469
11
0.783883433
21
33.5100981
0
LINE
8
0
10
0.783883433
20
33.5100981
11
0.551323354
21
33.5890923
0
LINE
8
0
10
0.551323354
20
33.5890923
11
0.308945642
21
33.6210501
0
LINE
8
0
10
0.308945642
20
33.6210501
11
0.0654430464
21
33.6531563
0
LINE
8
0
10
0.0654430464
20
33.6531563
11
-0.178512204
21
33.6372154
0
LINE
8
0
10
-0.178512204
20
33.6372154
11
-0.42359966
21
33.6212006
0
LINE
8
0
10
-0.42359966
20
33.6212006
11
-0.659757372
21
33.5579718
0
LINE
8
0
10
-0.659757372
20
33.5579718
11
-0.897011101
21
33.4944496
0
LINE
8
0
10
-0.897011101
20
33.4944496
11
-1.11629589
21
33.3863649
0
LINE
8
0
10
-1.11629589
20
33.3863649
11
-1.3365984
21
33.2777786
0
LINE
8
0
10
-1.3365984
20
33.2777786
11
-1.53058325
21
33.1289883
0
LINE
8
0
10
-1.53058325
20
33.1289883
11
-1.7254684
21
32.9795074
0
LINE
8
0
10
-1.7254684
20
32.9795074
11
-1.88669854
21
32.7957336
0
LINE
8
0
10
-1.88669854
20
32.7957336
11
-1.88669854
21
32.7957336
0
LINE
8
0
10
-5.70877609
20
18.992079
11
-9.11810589
21
22.6336231
0
LINE
8
0
10
-9.11810589
20
22.6336231
11
-9.30188068
21
22.7948539
0
LINE
8
0
10
-9.30188068
20
22.7948539
11
-9.48650837
21
22.9568329
0
LINE
8
0
10
-9.48650837
20
22.9568329
11
-9.69820632
21
23.0791115
0
LINE
8
0
10
-9.69820632
20
23.0791115
11
-9.91088676
21
23.2019577
0
LINE
8
0
10
-9.91088676
20
23.2019577
11
-10.1423724
21
23.2805878
0
LINE
8
0
10
-10.1423724
20
23.2805878
11
-10.3749323
21
23.3595829
0
LINE
8
0
10
-10.3749323
20
23.3595829
11
-10.6173103
21
23.3915417
0
LINE
8
0
10
-10.6173103
20
23.3915417
11
-10.8608131
21
23.4236488
0
LINE
8
0
10
-10.8608131
20
23.4236488
11
-11.1047682
21
23.407707
0
LINE
8
0
10
-11.1047682
20
23.407707
11
-11.3498554
21
23.3916912
0
LINE
8
0
10
-11.3498554
20
23.3916912
11
-11.5860132
21
23.3284625
0
LINE
8
0
10
-11.5860132
20
23.3284625
11
-11.823267
21
23.2649403
0
LINE
8
0
10
-11.823267
20
23.2649403
11
-12.0425519
21
23.1568556
0
LINE
8
0
10
-12.0425519
20
23.1568556
11
-12.2628546
21
23.0482693
0
LINE
8
0
10
-12.2628546
20
23.0482693
11
-12.4568391
21
22.8994799
0
LINE
8
0
10
-12.4568391
20
22.8994799
11
-12.6517239
21
22.75
0
LINE
8
0
10
-12.6517239
20
22.75
11
-12.8129541
21
22.5662252
0
LINE
8
0
10
-12.8129541
20
22.5662252
11
-12.9749327
21
22.3815975
0
LINE
8
0
10
-12.9749327
20
22.3815975
11
-13.0972123
21
22.1699
0
LINE
8
0
10
-13.0972123
20
22.1699
11
-13.2200594
21
21.9572201
0
LINE
8
0
10
-13.2200594
20
21.9572201
11
-13.2986891
21
21.725734
0
LINE
8
0
10
-13.2986891
20
21.725734
11
-13.3776836
21
21.4931736
0
LINE
8
0
10
-13.3776836
20
21.4931736
11
-13.409642
21
21.2507961
0
LINE
8
0
10
-13.409642
20
21.2507961
11
-13.4417486
21
21.0072937
0
LINE
8
0
10
-13.4417486
20
21.0072937
11
-13.4258073
21
20.7633387
0
LINE
8
0
10
-13.4258073
20
20.7633387
11
-13.4097919
21
20.5182514
0
LINE
8
0
10
-13.4097919
20
20.5182514
11
-13.3465637
21
20.2820936
0
LINE
8
0
10
-13.3465637
20
20.2820936
11
-13.283042
21
20.0448399
0
LINE
8
0
10
-13.283042
20
20.0448399
11
-13.1749563
21
19.8255544
0
LINE
8
0
10
-13.1749563
20
19.8255544
11
-13.0663691
21
19.6052513
0
LINE
8
0
10
-13.0663691
20
19.6052513
11
-12.9175802
21
19.4112663
0
LINE
8
0
10
-12.9175802
20
19.4112663
11
-12.7681007
21
19.2163811
0
LINE
8
0
10
-12.7681007
20
19.2163811
11
-9.34294799
21
15.5579364
0
LINE
8
0
10
-9.34294799
20
15.5579364
11
-5.93361807
21
11.9163923
0
LINE
8
0
10
-5.93361807
20
11.9163923
11
-5.74984352
21
11.7551621
0
LINE
8
0
10
-5.74984352
20
11.7551621
11
-5.56521606
21
11.5931835
0
LINE
8
0
10
-5.56521606
20
11.5931835
11
-5.35351812
21
11.4709044
0
LINE
8
0
10
-5.35351812
20
11.4709044
11
-5.14083767
21
11.3480577
0
LINE
8
0
10
-5.14083767
20
11.3480577
11
-4.90935184
21
11.2694276
0
LINE
8
0
10
-4.90935184
20
11.2694276
11
-4.67679167
21
11.1904325
0
LINE
8
0
10
-4.67679167
20
11.1904325
11
-4.43441392
21
11.1584742
0
LINE
8
0
10
-4.43441392
20
11.1584742
11
-4.19091129
21
11.1263676
0
LINE
8
0
10
-4.19091129
20
11.1263676
11
-3.94695614
21
11.1423089
0
LINE
8
0
10
-3.94695614
20
11.1423089
11
-3.70186877
21
11.1583242
0
LINE
8
0
10
-3.70186877
20
11.1583242
11
-3.465711
21
11.221553
0
LINE
8
0
10
-3.465711
20
11.221553
11
-3.22845721
21
11.2850752
0
LINE
8
0
10
-3.22845721
20
11.2850752
11
-3.00917251
21
11.3931603
0
LINE
8
0
10
-3.00917251
20
11.3931603
11
-2.7888701
21
11.5017471
0
LINE
8
0
10
-2.7888701
20
11.5017471
11
-2.59488524
21
11.6505365
0
LINE
8
0
10
-2.59488524
20
11.6505365
11
-2.4000001
21
11.8000164
0
LINE
8
0
10
-2.4000001
20
11.8000164
11
-2.23876983
21
11.9837907
0
LINE
8
0
10
-2.23876983
20
11.9837907
11
-2.07679129
21
12.1684179
0
LINE
8
0
10
-2.07679129
20
12.1684179
11
-1.9545118
21
12.3801159
0
LINE
8
0
10
-1.9545118
20
12.3801159
11
-1.8316648
21
12.5927963
0
LINE
8
0
10
-1.8316648
20
12.5927963
11
-1.75303502
21
12.8242819
0
LINE
8
0
10
-1.75303502
20
12.8242819
11
-1.67404032
21
13.0568419
0
LINE
8
0
10
-1.67404032
20
13.0568419
11
-1.64208205
21
13.2992198
0
LINE
8
0
10
-1.64208205
20
13.2992198
11
-1.60997546
21
13.5427227
0
LINE
8
0
10
-1.60997546
20
13.5427227
11
-1.62591674
21
13.7866777
0
LINE
8
0
10
-1.62591674
20
13.7866777
11
-1.64193201
21
14.031765
0
LINE
8
0
10
-1.64193201
20
14.031765
11
-1.70516034
21
14.2679228
0
LINE
8
0
10
-1.70516034
20
14.2679228
11
-1.76868212
21
14.5051765
0
LINE
8
0
10
-1.76868212
20
14.5051765
11
-1.87676764
21
14.7244615
0
LINE
8
0
10
-1.87676764
20
14.7244615
11
-1.98535478
21
14.9447641
0
LINE
8
0
10
-1.98535478
20
14.9447641
11
-2.13414385
21
15.1387491
0
LINE
8
0
10
-2.13414385
20
15.1387491
11
-2.28362346
21
15.3336344
0
LINE
8
0
10
-2.28362346
20
15.3336344
11
-5.70877609
21
18.992079
0
LINE
8
0
10
-5.70877609
20
18.992079
11
-5.70877609
21
18.992079
0
LINE
8
0
10
3.40226603
20
13.1730547
11
3.63375174
21
13.094425
0
LINE
8
0
10
3.63375174
20
13.094425
11
3.86631179
21
13.0154305
0
LINE
8
0
10
3.86631179
20
13.0154305
11
4.10868941
21
12.9834721
0
LINE
8
0
10
4.10868941
20
12.9834721
11
4.35219193
21
12.9513655
0
LINE
8
0
10
4.35219193
20
12.9513655
11
4.5961472
21
12.9673068
0
LINE
8
0
10
4.5961472
20
12.9673068
11
4.84123468
21
12.9833221
0
LINE
8
0
10
4.84123468
20
12.9833221
11
5.07739246
21
13.0465504
0
LINE
8
0
10
5.07739246
20
13.0465504
11
5.31464624
21
13.1100721
0
LINE
8
0
10
5.31464624
20
13.1100721
11
5.53393095
21
13.2181578
0
LINE
8
0
10
5.53393095
20
13.2181578
11
5.75423336
21
13.326745
0
LINE
8
0
10
5.75423336
20
13.326745
11
5.94821833
21
13.4755339
0
LINE
8
0
10
5.94821833
20
13.4755339
11
6.1431036
21
13.6250134
0
LINE
8
0
10
6.1431036
20
13.6250134
11
6.30433363
21
13.8087881
0
LINE
8
0
10
6.30433363
20
13.8087881
11
6.46631193
21
13.9934158
0
LINE
8
0
10
6.46631193
20
13.9934158
11
6.58859154
21
14.2051138
0
LINE
8
0
10
6.58859154
20
14.2051138
11
6.71143866
21
14.4177942
0
LINE
8
0
10
6.71143866
20
14.4177942
11
6.79006855
21
14.6492798
0
LINE
8
0
10
6.79006855
20
14.6492798
11
6.86906338
21
14.8818398
0
LINE
8
0
10
6.86906338
20
14.8818398
11
6.90102147
21
15.1242173
0
LINE
8
0
10
6.90102147
20
15.1242173
11
6.93312788
21
15.3677197
0
LINE
8
0
10
6.93312788
20
15.3677197
11
6.91718654
21
15.6116752
0
LINE
8
0
10
6.91718654
20
15.6116752
11
6.90117121
21
15.8567629
0
LINE
8
0
10
6.90117121
20
15.8567629
11
6.83794293
21
16.0929202
0
LINE
8
0
10
6.83794293
20
16.0929202
11
6.77442122
21
16.3301735
0
LINE
8
0
10
6.77442122
20
16.3301735
11
6.66633582
21
16.5494589
0
LINE
8
0
10
6.66633582
20
16.5494589
11
6.55774879
21
16.769762
0
LINE
8
0
10
6.55774879
20
16.769762
11
6.40895967
21
16.963747
0
LINE
8
0
10
6.40895967
20
16.963747
11
6.25948
21
17.1586323
0
LINE
8
0
10
6.25948
20
17.1586323
11
-0.590825501
21
24.4755216
0
LINE
8
0
10
-0.590825501
20
24.4755216
11
-7.40948534
21
31.7586098
0
LINE
8
0
10
-7.40948534
20
31.7586098
11
-7.59326013
21
31.9198396
0
LINE
8
0
10
-7.59326013
20
31.9198396
11
-7.77788782
21
32.0818176
0
LINE
8
0
10
-7.77788782
20
32.0818176
11
-7.98958553
21
32.2040982
0
LINE
8
0
10
-7.98958553
20
32.2040982
11
-8.20226574
21
32.3269463
0
LINE
8
0
10
-8.20226574
20
32.3269463
11
-8.43375181
21
32.4055754
0
LINE
8
0
10
-8.43375181
20
32.4055754
11
-8.66631222
21
32.4845695
0
LINE
8
0
10
-8.66631222
20
32.4845695
11
-8.90868973
21
32.5165274
0
LINE
8
0
10
-8.90868973
20
32.5165274
11
-9.15219212
21
32.5486336
0
LINE
8
0
10
-9.15219212
20
32.5486336
11
-9.39614715
21
32.5326927
0
LINE
8
0
10
-9.39614715
20
32.5326927
11
-9.6412344
21
32.5166779
0
LINE
8
0
10
-9.6412344
20
32.5166779
11
-9.87739217
21
32.4534491
0
LINE
8
0
10
-9.87739217
20
32.4534491
11
-10.114646
21
32.3899269
0
LINE
8
0
10
-10.114646
20
32.3899269
11
-10.3339309
21
32.2818422
0
LINE
8
0
10
-10.3339309
20
32.2818422
11
-10.5542336
21
32.1732559
0
LINE
8
0
10
-10.5542336
20
32.1732559
11
-10.7482185
21
32.0244666
0
LINE
8
0
10
-10.7482185
20
32.0244666
11
-10.9431038
21
31.8749866
0
LINE
8
0
10
-10.9431038
20
31.8749866
11
-11.1043341
21
31.6912119
0
LINE
8
0
10
-11.1043341
20
31.6912119
11
-11.2663126
21
31.5065842
0
LINE
8
0
10
-11.2663126
20
31.5065842
11
-11.3885917
21
31.2948867
0
LINE
8
0
10
-11.3885917
20
31.2948867
11
-11.5114384
21
31.0822067
0
LINE
8
0
10
-11.5114384
20
31.0822067
11
-11.5900685
21
30.8507207
0
LINE
8
0
10
-11.5900685
20
30.8507207
11
-11.6690636
21
30.6181602
0
LINE
8
0
10
-11.6690636
20
30.6181602
11
-11.7010219
21
30.3757827
0
LINE
8
0
10
-11.7010219
20
30.3757827
11
-11.7331285
21
30.1322803
0
LINE
8
0
10
-11.7331285
20
30.1322803
11
-11.7171872
21
29.8883253
0
LINE
8
0
10
-11.7171872
20
29.8883253
11
-11.7011719
21
29.6432381
0
LINE
8
0
10
-11.7011719
20
29.6432381
11
-11.6379431
21
29.4070803
0
LINE
8
0
10
-11.6379431
20
29.4070803
11
-11.5744209
21
29.1698265
0
LINE
8
0
10
-11.5744209
20
29.1698265
11
-11.4663358
21
28.9505411
0
LINE
8
0
10
-11.4663358
20
28.9505411
11
-11.357749
21
28.730238
0
LINE
8
0
10
-11.357749
20
28.730238
11
-11.2089596
21
28.536253
0
LINE
8
0
10
-11.2089596
20
28.536253
11
-11.0594797
21
28.3413677
0
LINE
8
0
10
-11.0594797
20
28.3413677
11
-4.20917433
21
21.0244784
0
LINE
8
0
10
-4.20917433
20
21.0244784
11
2.60948539
21
13.7413902
0
LINE
8
0
10
2.60948539
20
13.7413902
11
2.79326006
21
13.58016
0
LINE
8
0
10
2.79326006
20
13.58016
11
2.97788763
21
13.4181814
0
LINE
8
0
10
2.97788763
20
13.4181814
11
3.18958558
21
13.2959018
0
LINE
8
0
10
3.18958558
20
13.2959018
11
3.40226603
21
13.1730547
0
LINE
8
0
10
3.40226603
20
13.1730547
11
3.40226603
21
13.1730547
0
ENDSEC
0
EOF
