0
SECTION
2
ENTITIES
0
LINE
8
0
10
-8.41214837
20
32.3982374
11
-8.66631222
21
32.4845695
0
LINE
8
0
10
-8.66631222
20
32.4845695
11
-8.88606984
21
32.5135449
0
LINE
8
0
10
-8.88606984
20
32.5135449
11
-9.15219212
21
32.5486336
0
LINE
8
0
10
-9.15219212
20
32.5486336
11
-9.37338005
21
32.5341804
0
LINE
8
0
10
-9.37338005
20
32.5341804
11
-9.6412344
21
32.5166779
0
LINE
8
0
10
-9.6412344
20
32.5166779
11
-9.85535274
21
32.4593499
0
LINE
8
0
10
-9.85535274
20
32.4593499
11
-10.114646
21
32.3899269
0
LINE
8
0
10
-10.114646
20
32.3899269
11
-10.3134661
21
32.2919292
0
LINE
8
0
10
-10.3134661
20
32.2919292
11
-10.5542336
21
32.1732559
0
LINE
8
0
10
-10.5542336
20
32.1732559
11
-10.7301149
21
32.0383523
0
LINE
8
0
10
-10.7301149
20
32.0383523
11
-10.9431038
21
31.8749866
0
LINE
8
0
10
-10.9431038
20
31.8749866
11
-11.0892872
21
31.7083626
0
LINE
8
0
10
-11.0892872
20
31.7083626
11
-11.2663126
21
31.5065842
0
LINE
8
0
10
-11.2663126
20
31.5065842
11
-11.37718
21
31.3146434
0
LINE
8
0
10
-11.37718
20
31.3146434
11
-11.5114384
21
31.0822067
0
LINE
8
0
10
-11.5114384
20
31.0822067
11
-11.5827303
21
30.8723241
0
LINE
8
0
10
-11.5827303
20
30.8723241
11
-11.6690636
21
30.6181602
0
LINE
8
0
10
-11.6690636
20
30.6181602
11
-11.6980394
21
30.3984026
0
LINE
8
0
10
-11.6980394
20
30.3984026
11
-11.7331285
21
30.1322803
0
LINE
8
0
10
-11.7331285
20
30.1322803
11
-11.7186749
21
29.9110924
0
LINE
8
0
10
-11.7186749
20
29.9110924
11
-11.7011719
21
29.6432381
0
LINE
8
0
10
-11.7011719
20
29.6432381
11
-11.6438439
21
29.4291197
0
LINE
8
0
10
-11.6438439
20
29.4291197
11
-11.5744209
21
29.1698265
0
LINE
8
0
10
-11.5744209
20
29.1698265
11
-11.4764228
21
28.9710059
0
LINE
8
0
10
-11.4764228
20
28.9710059
11
-11.357749
21
28.730238
0
LINE
8
0
10
-11.357749
20
28.730238
11
-11.2228454
21
28.5543566
0
LINE
8
0
10
-11.2228454
20
28.5543566
11
-11.0594797
21
28.3413677
0
LINE
8
0
10
-11.0594797
20
28.3413677
11
-3.5728228
21
20.3447841
0
LINE
8
0
10
-3.5728228
20
20.3447841
11
2.60948539
21
13.7413902
0
LINE
8
0
10
2.60948539
20
13.7413902
11
2.77610928
21
13.5952068
0
LINE
8
0
10
2.77610928
20
13.5952068
11
2.97788763
21
13.4181814
0
LINE
8
0
10
2.97788763
20
13.4181814
11
3.16982886
21
13.3073136
0
LINE
8
0
10
3.16982886
20
13.3073136
11
3.40226603
21
13.1730547
0
LINE
8
0
10
3.40226603
20
13.1730547
11
3.61214833
21
13.1017631
0
LINE
8
0
10
3.61214833
20
13.1017631
11
3.86631179
21
13.0154305
0
LINE
8
0
10
3.86631179
20
13.0154305
11
4.08606952
21
12.9864546
0
LINE
8
0
10
4.08606952
20
12.9864546
11
4.35219193
21
12.9513655
0
LINE
8
0
10
4.35219193
20
12.9513655
11
4.57338007
21
12.9658191
0
LINE
8
0
10
4.57338007
20
12.9658191
11
4.84123468
21
12.9833221
0
LINE
8
0
10
4.84123468
20
12.9833221
11
5.05535303
21
13.0406496
0
LINE
8
0
10
5.05535303
20
13.0406496
11
5.31464624
21
13.1100721
0
LINE
8
0
10
5.31464624
20
13.1100721
11
5.5134662
21
13.2080707
0
LINE
8
0
10
5.5134662
20
13.2080707
11
5.75423336
21
13.326745
0
LINE
8
0
10
5.75423336
20
13.326745
11
5.93011468
21
13.4616482
0
LINE
8
0
10
5.93011468
20
13.4616482
11
6.1431036
21
13.6250134
0
LINE
8
0
10
6.1431036
20
13.6250134
11
6.28928683
21
13.7916374
0
LINE
8
0
10
6.28928683
20
13.7916374
11
6.46631193
21
13.9934158
0
LINE
8
0
10
6.46631193
20
13.9934158
11
6.57717979
21
14.1853571
0
LINE
8
0
10
6.57717979
20
14.1853571
11
6.71143866
21
14.4177942
0
LINE
8
0
10
6.71143866
20
14.4177942
11
6.78273042
21
14.6276764
0
LINE
8
0
10
6.78273042
20
14.6276764
11
6.86906338
21
14.8818398
0
LINE
8
0
10
6.86906338
20
14.8818398
11
6.89803898
21
15.1015974
0
LINE
8
0
10
6.89803898
20
15.1015974
11
6.93312788
21
15.3677197
0
LINE
8
0
10
6.93312788
20
15.3677197
11
6.91867426
21
15.588908
0
LINE
8
0
10
6.91867426
20
15.588908
11
6.90117121
21
15.8567629
0
LINE
8
0
10
6.90117121
20
15.8567629
11
6.84384371
21
16.0708808
0
LINE
8
0
10
6.84384371
20
16.0708808
11
6.77442122
21
16.3301735
0
LINE
8
0
10
6.77442122
20
16.3301735
11
6.67642289
21
16.5289941
0
LINE
8
0
10
6.67642289
20
16.5289941
11
6.55774879
21
16.769762
0
LINE
8
0
10
6.55774879
20
16.769762
11
6.42284541
21
16.9456434
0
LINE
8
0
10
6.42284541
20
16.9456434
11
6.25948
21
17.1586323
0
LINE
8
0
10
6.25948
20
17.1586323
11
-1.22717705
21
25.1552159
0
LINE
8
0
10
-1.22717705
20
25.1552159
11
-7.40948534
21
31.7586098
0
LINE
8
0
10
-7.40948534
20
31.7586098
11
-7.57610934
21
31.9047928
0
LINE
8
0
10
-7.57610934
20
31.9047928
11
-7.77788782
21
32.0818176
0
LINE
8
0
10
-7.77788782
20
32.0818176
11
-7.96982884
21
32.1926864
0
LINE
8
0
10
-7.96982884
20
32.1926864
11
-8.20226574
21
32.3269463
0
LINE
8
0
10
-8.20226574
20
32.3269463
11
-8.41214837
21
32.3982374
0
LINE
8
0
10
-8.41214837
20
32.3982374
11
-8.41214837
21
32.3982374
0
LINE
8
0
10
-2.14011359
20
29.8347607
11
-2.25878782
21
30.0755286
0
LINE
8
0
10
-2.25878782
20
30.0755286
11
-2.35678625
21
30.2743492
0
LINE
8
0
10
-2.35678625
20
30.2743492
11
-2.42620875
21
30.5336414
0
LINE
8
0
10
-2.42620875
20
30.5336414
11
-2.48353624
21
30.7477589
0
LINE
8
0
10
-2.48353624
20
30.7477589
11
-2.5010393
21
31.0156143
0
LINE
8
0
10
-2.5010393
20
31.0156143
11
-2.51549292
21
31.2368031
0
LINE
8
0
10
-2.51549292
20
31.2368031
11
-2.48040375
21
31.5029253
0
LINE
8
0
10
-2.48040375
20
31.5029253
11
-2.45142794
21
31.722683
0
LINE
8
0
10
-2.45142794
20
31.722683
11
-2.36509524
21
31.9768468
0
LINE
8
0
10
-2.36509524
20
31.9768468
11
-2.29380369
21
32.1867294
0
LINE
8
0
10
-2.29380369
20
32.1867294
11
-2.15954483
21
32.4191661
0
LINE
8
0
10
-2.15954483
20
32.4191661
11
-2.04867697
21
32.6111069
0
LINE
8
0
10
-2.04867697
20
32.6111069
11
-1.87165174
21
32.8128843
0
LINE
8
0
10
-1.87165174
20
32.8128843
11
-1.7254684
21
32.9795074
0
LINE
8
0
10
-1.7254684
20
32.9795074
11
-1.51247961
21
33.1428742
0
LINE
8
0
10
-1.51247961
20
33.1428742
11
-1.3365984
21
33.2777786
0
LINE
8
0
10
-1.3365984
20
33.2777786
11
-1.09583114
21
33.3964519
0
LINE
8
0
10
-1.09583114
20
33.3964519
11
-0.897011101
21
33.4944496
0
LINE
8
0
10
-0.897011101
20
33.4944496
11
-0.63771795
21
33.5638726
0
LINE
8
0
10
-0.63771795
20
33.5638726
11
-0.42359966
21
33.6212006
0
LINE
8
0
10
-0.42359966
20
33.6212006
11
-0.155745076
21
33.6387031
0
LINE
8
0
10
-0.155745076
20
33.6387031
11
0.0654430464
21
33.6531563
0
LINE
8
0
10
0.0654430464
20
33.6531563
11
0.331565547
21
33.6180676
0
LINE
8
0
10
0.331565547
20
33.6180676
11
0.551323354
21
33.5890923
0
LINE
8
0
10
0.551323354
20
33.5890923
11
0.805486844
21
33.5027601
0
LINE
8
0
10
0.805486844
20
33.5027601
11
1.01536918
21
33.431469
0
LINE
8
0
10
1.01536918
20
33.431469
11
1.24780627
21
33.2972091
0
LINE
8
0
10
1.24780627
20
33.2972091
11
1.43974745
21
33.1863403
0
LINE
8
0
10
1.43974745
20
33.1863403
11
1.6415258
21
33.0093155
0
LINE
8
0
10
1.6415258
20
33.0093155
11
1.8081497
21
32.8631325
0
LINE
8
0
10
1.8081497
20
32.8631325
11
4.8993039
21
29.5614351
0
LINE
8
0
10
4.8993039
20
29.5614351
11
8.64263248
21
25.5631428
0
LINE
8
0
10
8.64263248
20
25.5631428
11
8.80599764
21
25.3501539
0
LINE
8
0
10
8.80599764
20
25.3501539
11
8.9409008
21
25.1742725
0
LINE
8
0
10
8.9409008
20
25.1742725
11
9.05957516
21
24.9335056
0
LINE
8
0
10
9.05957516
20
24.9335056
11
9.1575737
21
24.7346859
0
LINE
8
0
10
9.1575737
20
24.7346859
11
9.2269962
21
24.4753927
0
LINE
8
0
10
9.2269962
20
24.4753927
11
9.28432369
21
24.2612743
0
LINE
8
0
10
9.28432369
20
24.2612743
11
9.30182675
21
23.99342
0
LINE
8
0
10
9.30182675
20
23.99342
11
9.31628036
21
23.7722321
0
LINE
8
0
10
9.31628036
20
23.7722321
11
9.2811912
21
23.5061098
0
LINE
8
0
10
9.2811912
20
23.5061098
11
9.25221539
21
23.2863522
0
LINE
8
0
10
9.25221539
20
23.2863522
11
9.16588269
21
23.0321883
0
LINE
8
0
10
9.16588269
20
23.0321883
11
9.09459114
21
22.8223057
0
LINE
8
0
10
9.09459114
20
22.8223057
11
8.96033228
21
22.589868
0
LINE
8
0
10
8.96033228
20
22.589868
11
8.84946442
21
22.3979263
0
LINE
8
0
10
8.84946442
20
22.3979263
11
8.67243906
21
22.1961489
0
LINE
8
0
10
8.67243906
20
22.1961489
11
8.52625561
21
22.0295258
0
LINE
8
0
10
8.52625561
20
22.0295258
11
8.31326721
21
21.8661601
0
LINE
8
0
10
8.31326721
20
21.8661601
11
8.13738632
21
21.7312565
0
LINE
8
0
10
8.13738632
20
21.7312565
11
7.8966189
21
21.6125821
0
LINE
8
0
10
7.8966189
20
21.6125821
11
7.69779873
21
21.5145836
0
LINE
8
0
10
7.69779873
20
21.5145836
11
7.43850551
21
21.4451616
0
LINE
8
0
10
7.43850551
20
21.4451616
11
7.22438717
21
21.3878345
0
LINE
8
0
10
7.22438717
20
21.3878345
11
6.95653256
21
21.370331
0
LINE
8
0
10
6.95653256
20
21.370331
11
6.73534441
21
21.3558769
0
LINE
8
0
10
6.73534441
20
21.3558769
11
6.46922187
21
21.3909666
0
LINE
8
0
10
6.46922187
20
21.3909666
11
6.24946404
21
21.4199429
0
LINE
8
0
10
6.24946404
20
21.4199429
11
5.99530071
21
21.506275
0
LINE
8
0
10
5.99530071
20
21.506275
11
5.78541851
21
21.5775661
0
LINE
8
0
10
5.78541851
20
21.5775661
11
5.55298135
21
21.711825
0
LINE
8
0
10
5.55298135
20
21.711825
11
5.36104012
21
21.8226929
0
LINE
8
0
10
5.36104012
20
21.8226929
11
5.15926164
21
21.9997177
0
LINE
8
0
10
5.15926164
20
21.9997177
11
4.99263763
21
22.1459007
0
LINE
8
0
10
4.99263763
20
22.1459007
11
1.90148349
21
25.4475981
0
LINE
8
0
10
1.90148349
20
25.4475981
11
-1.84184504
21
29.4458904
0
LINE
8
0
10
-1.84184504
20
29.4458904
11
-2.00521032
21
29.6588793
0
LINE
8
0
10
-2.00521032
20
29.6588793
11
-2.14011359
21
29.8347607
0
LINE
8
0
10
-2.14011359
20
29.8347607
11
-2.14011359
21
29.8347607
0
LINE
8
0
10
-13.4066595
20
21.273416
11
-13.4417486
21
21.0072937
0
LINE
8
0
10
-13.4417486
20
21.0072937
11
-13.427295
21
20.7861058
0
LINE
8
0
10
-13.427295
20
20.7861058
11
-13.4097919
21
20.5182514
0
LINE
8
0
10
-13.4097919
20
20.5182514
11
-13.3524645
21
20.3041331
0
LINE
8
0
10
-13.3524645
20
20.3041331
11
-13.283042
21
20.0448399
0
LINE
8
0
10
-13.283042
20
20.0448399
11
-13.1850434
21
19.8460193
0
LINE
8
0
10
-13.1850434
20
19.8460193
11
-13.0663691
21
19.6052513
0
LINE
8
0
10
-13.0663691
20
19.6052513
11
-12.9314659
21
19.42937
0
LINE
8
0
10
-12.9314659
20
19.42937
11
-12.7681007
21
19.2163811
0
LINE
8
0
10
-12.7681007
20
19.2163811
11
-9.02477221
21
15.2180893
0
LINE
8
0
10
-9.02477221
20
15.2180893
11
-5.93361807
21
11.9163923
0
LINE
8
0
10
-5.93361807
20
11.9163923
11
-5.76699428
21
11.7702089
0
LINE
8
0
10
-5.76699428
20
11.7702089
11
-5.56521606
21
11.5931835
0
LINE
8
0
10
-5.56521606
20
11.5931835
11
-5.37327483
21
11.4823161
0
LINE
8
0
10
-5.37327483
20
11.4823161
11
-5.14083767
21
11.3480577
0
LINE
8
0
10
-5.14083767
20
11.3480577
11
-4.93095526
21
11.2767658
0
LINE
8
0
10
-4.93095526
20
11.2767658
11
-4.67679167
21
11.1904325
0
LINE
8
0
10
-4.67679167
20
11.1904325
11
-4.45703383
21
11.1614567
0
LINE
8
0
10
-4.45703383
20
11.1614567
11
-4.19091129
21
11.1263676
0
LINE
8
0
10
-4.19091129
20
11.1263676
11
-3.96972325
21
11.1408212
0
LINE
8
0
10
-3.96972325
20
11.1408212
11
-3.70186877
21
11.1583242
0
LINE
8
0
10
-3.70186877
20
11.1583242
11
-3.48775043
21
11.2156522
0
LINE
8
0
10
-3.48775043
20
11.2156522
11
-3.22845721
21
11.2850752
0
LINE
8
0
10
-3.22845721
20
11.2850752
11
-3.02963726
21
11.3830733
0
LINE
8
0
10
-3.02963726
20
11.3830733
11
-2.7888701
21
11.5017471
0
LINE
8
0
10
-2.7888701
20
11.5017471
11
-2.61298888
21
11.6366507
0
LINE
8
0
10
-2.61298888
20
11.6366507
11
-2.4000001
21
11.8000164
0
LINE
8
0
10
-2.4000001
20
11.8000164
11
-2.25381665
21
11.96664
0
LINE
8
0
10
-2.25381665
20
11.96664
11
-2.07679129
21
12.1684179
0
LINE
8
0
10
-2.07679129
20
12.1684179
11
-1.96592353
21
12.3603592
0
LINE
8
0
10
-1.96592353
20
12.3603592
11
-1.8316648
21
12.5927963
0
LINE
8
0
10
-1.8316648
20
12.5927963
11
-1.76037315
21
12.8026785
0
LINE
8
0
10
-1.76037315
20
12.8026785
11
-1.67404032
21
13.0568419
0
LINE
8
0
10
-1.67404032
20
13.0568419
11
-1.64506455
21
13.2765999
0
LINE
8
0
10
-1.64506455
20
13.2765999
11
-1.60997546
21
13.5427227
0
LINE
8
0
10
-1.60997546
20
13.5427227
11
-1.62442902
21
13.7639106
0
LINE
8
0
10
-1.62442902
20
13.7639106
11
-1.64193201
21
14.031765
0
LINE
8
0
10
-1.64193201
20
14.031765
11
-1.69925956
21
14.2458833
0
LINE
8
0
10
-1.69925956
20
14.2458833
11
-1.76868212
21
14.5051765
0
LINE
8
0
10
-1.76868212
20
14.5051765
11
-1.86668055
21
14.7039967
0
LINE
8
0
10
-1.86668055
20
14.7039967
11
-1.98535478
21
14.9447641
0
LINE
8
0
10
-1.98535478
20
14.9447641
11
-2.12025811
21
15.1206455
0
LINE
8
0
10
-2.12025811
20
15.1206455
11
-2.28362346
21
15.3336344
0
LINE
8
0
10
-2.28362346
20
15.3336344
11
-6.02695185
21
19.3319262
0
LINE
8
0
10
-6.02695185
20
19.3319262
11
-9.11810589
21
22.6336231
0
LINE
8
0
10
-9.11810589
20
22.6336231
11
-9.28472989
21
22.779807
0
LINE
8
0
10
-9.28472989
20
22.779807
11
-9.48650837
21
22.9568329
0
LINE
8
0
10
-9.48650837
20
22.9568329
11
-9.6784496
21
23.0676999
0
LINE
8
0
10
-9.6784496
20
23.0676999
11
-9.91088676
21
23.2019577
0
LINE
8
0
10
-9.91088676
20
23.2019577
11
-10.120769
21
23.2732497
0
LINE
8
0
10
-10.120769
20
23.2732497
11
-10.3749323
21
23.3595829
0
LINE
8
0
10
-10.3749323
20
23.3595829
11
-10.5946903
21
23.3885592
0
LINE
8
0
10
-10.5946903
20
23.3885592
11
-10.8608131
21
23.4236488
0
LINE
8
0
10
-10.8608131
20
23.4236488
11
-11.0820011
21
23.4091948
0
LINE
8
0
10
-11.0820011
20
23.4091948
11
-11.3498554
21
23.3916912
0
LINE
8
0
10
-11.3498554
20
23.3916912
11
-11.5639738
21
23.3343633
0
LINE
8
0
10
-11.5639738
20
23.3343633
11
-11.823267
21
23.2649403
0
LINE
8
0
10
-11.823267
20
23.2649403
11
-12.0220872
21
23.1669426
0
LINE
8
0
10
-12.0220872
20
23.1669426
11
-12.2628546
21
23.0482693
0
LINE
8
0
10
-12.2628546
20
23.0482693
11
-12.4387355
21
22.9133657
0
LINE
8
0
10
-12.4387355
20
22.9133657
11
-12.6517239
21
22.75
0
LINE
8
0
10
-12.6517239
20
22.75
11
-12.7979073
21
22.583376
0
LINE
8
0
10
-12.7979073
20
22.583376
11
-12.9749327
21
22.3815975
0
LINE
8
0
10
-12.9749327
20
22.3815975
11
-13.0858005
21
22.1896567
0
LINE
8
0
10
-13.0858005
20
22.1896567
11
-13.2200594
21
21.9572201
0
LINE
8
0
10
-13.2200594
20
21.9572201
11
-13.2913509
21
21.7473374
0
LINE
8
0
10
-13.2913509
20
21.7473374
11
-13.3776836
21
21.4931736
0
LINE
8
0
10
-13.3776836
20
21.4931736
11
-13.4066595
21
21.273416
0
LINE
8
0
10
-13.4066595
20
21.273416
11
-13.4066595
21
21.273416
0
LINE
8
0
10
-13.3605481
20
46.5
11
-13.4664158
21
46.5
0
LINE
8
0
10
-13.4664158
20
46.5
11
-13.6029489
21
46.5
0
LINE
8
0
10
-13.6029489
20
46.5
11
-13.7567952
21
46.5
0
LINE
8
0
10
-13.7567952
20
46.5
11
-13.9127697
21
46.5
0
LINE
8
0
10
-13.9127697
20
46.5
11
-14.056723
21
46.5
0
LINE
8
0
10
-14.056723
20
46.5
11
-14.1777154
21
46.5
0
LINE
8
0
10
-14.1777154
20
46.5
11
-14.2689419
21
46.5
0
LINE
8
0
10
-14.2689419
20
46.5
11
-16.2004179
21
46.5
0
LINE
8
0
10
-16.2004179
20
46.5
11
-17.8244754
21
46.5
0
LINE
8
0
10
-17.8244754
20
46.5
11
-18.5499992
21
46.5
0
LINE
8
0
10
-18.5499992
20
46.5
11
-18.5499992
21
45.423404
0
LINE
8
0
10
-18.5499992
20
45.423404
11
-18.5499992
21
45.3667488
0
LINE
8
0
10
-18.5499992
20
45.3667488
11
-18.5499992
21
45.2495484
0
LINE
8
0
10
-18.5499992
20
45.2495484
11
-18.5499992
21
45.0746485
0
LINE
8
0
10
-18.5499992
20
45.0746485
11
-18.5499992
21
44.8497376
0
LINE
8
0
10
-18.5499992
20
44.8497376
11
-18.5499992
21
42.7208615
0
LINE
8
0
10
-18.5499992
20
42.7208615
11
-18.5499992
21
42.5749447
0
LINE
8
0
10
-18.5499992
20
42.5749447
11
-18.5499992
21
42.3953272
0
LINE
8
0
10
-18.5499992
20
42.3953272
11
-18.5499992
21
41.316605
0
LINE
8
0
10
-18.5499992
20
41.316605
11
-18.5499992
21
41.1585024
0
LINE
8
0
10
-18.5499992
20
41.1585024
11
-18.5499992
21
40.9894824
0
LINE
8
0
10
-18.5499992
20
40.9894824
11
-18.5499992
21
40.824621
0
LINE
8
0
10
-18.5499992
20
40.824621
11
-18.5499992
21
40.6774173
0
LINE
8
0
10
-18.5499992
20
40.6774173
11
-18.5499992
21
40.1902656
0
LINE
8
0
10
-18.5499992
20
40.1902656
11
-18.5499992
21
36.0390098
0
LINE
8
0
10
-18.5499992
20
36.0390098
11
-18.5499992
21
35.1476087
0
LINE
8
0
10
-18.5499992
20
35.1476087
11
-18.5499992
21
32.6142318
0
LINE
8
0
10
-18.5499992
20
32.6142318
11
-18.5499992
21
11.5606166
0
LINE
8
0
10
-18.5499992
20
11.5606166
11
-18.5499992
21
8.60059933
0
LINE
8
0
10
-18.5499992
20
8.60059933
11
-18.5499992
21
5.70878431
0
LINE
8
0
10
-18.5499992
20
5.70878431
11
-18.5499992
21
4.46001349
0
LINE
8
0
10
-18.5499992
20
4.46001349
11
-18.5499992
21
4.31095971
0
LINE
8
0
10
-18.5499992
20
4.31095971
11
-18.5499992
21
3.25832835
0
LINE
8
0
10
-18.5499992
20
3.25832835
11
-18.5499992
21
3.08988818
0
LINE
8
0
10
-18.5499992
20
3.08988818
11
-18.5499992
21
2.95848548
0
LINE
8
0
10
-18.5499992
20
2.95848548
11
-18.5499992
21
0.832109121
0
LINE
8
0
10
-18.5499992
20
0.832109121
11
-18.5499992
21
0.622939381
0
LINE
8
0
10
-18.5499992
20
0.622939381
11
-18.5499992
21
0.467323981
0
LINE
8
0
10
-18.5499992
20
0.467323981
11
-18.5499992
21
0.371052257
0
LINE
8
0
10
-18.5499992
20
0.371052257
11
-18.5499992
21
-0.530910683
0
LINE
8
0
10
-18.5499992
20
-0.530910683
11
-18.5499992
21
-0.587377731
0
LINE
8
0
10
-18.5499992
20
-0.587377731
11
-18.5499992
21
-0.605759277
0
LINE
8
0
10
-18.5499992
20
-0.605759277
11
-18.5499992
21
-1.10000002
0
LINE
8
0
10
-18.5499992
20
-1.10000002
11
-16.2004179
21
-1.10000002
0
LINE
8
0
10
-16.2004179
20
-1.10000002
11
-14.2689419
21
-1.10000002
0
LINE
8
0
10
-14.2689419
20
-1.10000002
11
-14.1777154
21
-1.10000002
0
LINE
8
0
10
-14.1777154
20
-1.10000002
11
-14.056723
21
-1.10000002
0
LINE
8
0
10
-14.056723
20
-1.10000002
11
-13.9127697
21
-1.10000002
0
LINE
8
0
10
-13.9127697
20
-1.10000002
11
-13.7567952
21
-1.10000002
0
LINE
8
0
10
-13.7567952
20
-1.10000002
11
-13.6029489
21
-1.10000002
0
LINE
8
0
10
-13.6029489
20
-1.10000002
11
-13.4664158
21
-1.10000002
0
LINE
8
0
10
-13.4664158
20
-1.10000002
11
-13.3605481
21
-1.10000002
0
LINE
8
0
10
-13.3605481
20
-1.10000002
11
-13.2943422
21
-1.10000002
0
LINE
8
0
10
-13.2943422
20
-1.10000002
11
5.72983536
21
-1.10000002
0
LINE
8
0
10
5.72983536
20
-1.10000002
11
6.07187457
21
-1.10000002
0
LINE
8
0
10
6.07187457
20
-1.10000002
11
12.0828876
21
-1.10000002
0
LINE
8
0
10
12.0828876
20
-1.10000002
11
12.1256212
21
-1.10000002
0
LINE
8
0
10
12.1256212
20
-1.10000002
11
12.2063843
21
-1.10000002
0
LINE
8
0
10
12.2063843
20
-1.10000002
11
12.3200323
21
-1.10000002
0
LINE
8
0
10
12.3200323
20
-1.10000002
11
12.4565653
21
-1.10000002
0
LINE
8
0
10
12.4565653
20
-1.10000002
11
12.6026313
21
-1.10000002
0
LINE
8
0
10
12.6026313
20
-1.10000002
11
12.7440487
21
-1.10000002
0
LINE
8
0
10
12.7440487
20
-1.10000002
11
12.8684111
21
-1.10000002
0
LINE
8
0
10
12.8684111
20
-1.10000002
11
12.9668529
21
-1.10000002
0
LINE
8
0
10
12.9668529
20
-1.10000002
11
13.0345901
21
-1.10000002
0
LINE
8
0
10
13.0345901
20
-1.10000002
11
13.75
21
-1.10000002
0
LINE
8
0
10
13.75
20
-1.10000002
11
13.75
21
0.843538149
0
LINE
8
0
10
13.75
20
0.843538149
11
13.75
21
2.05505972
0
LINE
8
0
10
13.75
20
2.05505972
11
13.75
21
26.9003865
0
LINE
8
0
10
13.75
20
26.9003865
11
13.75
21
43.3927442
0
LINE
8
0
10
13.75
20
43.3927442
11
13.75
21
44.5945704
0
LINE
8
0
10
13.75
20
44.5945704
11
13.75
21
46.5
0
LINE
8
0
10
13.75
20
46.5
11
13.0345901
21
46.5
0
LINE
8
0
10
13.0345901
20
46.5
11
12.9668529
21
46.5
0
LINE
8
0
10
12.9668529
20
46.5
11
12.8684111
21
46.5
0
LINE
8
0
10
12.8684111
20
46.5
11
12.7440487
21
46.5
0
LINE
8
0
10
12.7440487
20
46.5
11
12.6026313
21
46.5
0
LINE
8
0
10
12.6026313
20
46.5
11
12.4565653
21
46.5
0
LINE
8
0
10
12.4565653
20
46.5
11
12.3200323
21
46.5
0
LINE
8
0
10
12.3200323
20
46.5
11
12.2063843
21
46.5
0
LINE
8
0
10
12.2063843
20
46.5
11
12.1256212
21
46.5
0
LINE
8
0
10
12.1256212
20
46.5
11
12.0828876
21
46.5
0
LINE
8
0
10
12.0828876
20
46.5
11
6.07187457
21
46.5
0
LINE
8
0
10
6.07187457
20
46.5
11
5.72983536
21
46.5
0
LINE
8
0
10
5.72983536
20
46.5
11
-13.2943422
21
46.5
0
LINE
8
0
10
-13.2943422
20
46.5
11
-13.3605481
21
46.5
0
LINE
8
0
10
-13.3605481
20
46.5
11
-13.3605481
21
46.5
0
ENDSEC
0
EOF
