0
SECTION
2
ENTITIES
0
LINE
8
0
10
-2.35775712
20
31.9984502
11
-2.45142794
21
31.722683
0
LINE
8
0
10
-2.45142794
20
31.722683
11
-2.47742124
21
31.5255452
0
LINE
8
0
10
-2.47742124
20
31.5255452
11
-2.51549292
21
31.2368031
0
LINE
8
0
10
-2.51549292
20
31.2368031
11
-2.50252702
21
31.0383815
0
LINE
8
0
10
-2.50252702
20
31.0383815
11
-2.48353624
21
30.7477589
0
LINE
8
0
10
-2.48353624
20
30.7477589
11
-2.43210953
21
30.5556807
0
LINE
8
0
10
-2.43210953
20
30.5556807
11
-2.35678625
21
30.2743492
0
LINE
8
0
10
-2.35678625
20
30.2743492
11
-2.2688749
21
30.0959934
0
LINE
8
0
10
-2.2688749
20
30.0959934
11
-2.14011359
21
29.8347607
0
LINE
8
0
10
-2.14011359
20
29.8347607
11
-2.01909606
21
29.676983
0
LINE
8
0
10
-2.01909606
20
29.676983
11
-1.84184504
21
29.4458904
0
LINE
8
0
10
-1.84184504
20
29.4458904
11
2.21965926
21
25.1077509
0
LINE
8
0
10
2.21965926
20
25.1077509
11
4.99263763
21
22.1459007
0
LINE
8
0
10
4.99263763
20
22.1459007
11
5.14211085
21
22.0147645
0
LINE
8
0
10
5.14211085
20
22.0147645
11
5.36104012
21
21.8226929
0
LINE
8
0
10
5.36104012
20
21.8226929
11
5.53322463
21
21.7232368
0
LINE
8
0
10
5.53322463
20
21.7232368
11
5.78541851
21
21.5775661
0
LINE
8
0
10
5.78541851
20
21.5775661
11
5.97369731
21
21.5136131
0
LINE
8
0
10
5.97369731
20
21.5136131
11
6.24946404
21
21.4199429
0
LINE
8
0
10
6.24946404
20
21.4199429
11
6.44660197
21
21.3939492
0
LINE
8
0
10
6.44660197
20
21.3939492
11
6.73534441
21
21.3558769
0
LINE
8
0
10
6.73534441
20
21.3558769
11
6.93376543
21
21.3688432
0
LINE
8
0
10
6.93376543
20
21.3688432
11
7.22438717
21
21.3878345
0
LINE
8
0
10
7.22438717
20
21.3878345
11
7.41646608
21
21.4392609
0
LINE
8
0
10
7.41646608
20
21.4392609
11
7.69779873
21
21.5145836
0
LINE
8
0
10
7.69779873
20
21.5145836
11
7.87615413
21
21.602495
0
LINE
8
0
10
7.87615413
20
21.602495
11
8.13738632
21
21.7312565
0
LINE
8
0
10
8.13738632
20
21.7312565
11
8.29516361
21
21.8522743
0
LINE
8
0
10
8.29516361
20
21.8522743
11
8.52625561
21
22.0295258
0
LINE
8
0
10
8.52625561
20
22.0295258
11
8.65739224
21
22.1789982
0
LINE
8
0
10
8.65739224
20
22.1789982
11
8.84946442
21
22.3979263
0
LINE
8
0
10
8.84946442
20
22.3979263
11
8.94892053
21
22.5701112
0
LINE
8
0
10
8.94892053
20
22.5701112
11
9.09459114
21
22.8223057
0
LINE
8
0
10
9.09459114
20
22.8223057
11
9.15854457
21
23.0105849
0
LINE
8
0
10
9.15854457
20
23.0105849
11
9.25221539
21
23.2863522
0
LINE
8
0
10
9.25221539
20
23.2863522
11
9.27820869
21
23.4834899
0
LINE
8
0
10
9.27820869
20
23.4834899
11
9.31628036
21
23.7722321
0
LINE
8
0
10
9.31628036
20
23.7722321
11
9.30331447
21
23.9706529
0
LINE
8
0
10
9.30331447
20
23.9706529
11
9.28432369
21
24.2612743
0
LINE
8
0
10
9.28432369
20
24.2612743
11
9.23289698
21
24.4533533
0
LINE
8
0
10
9.23289698
20
24.4533533
11
9.1575737
21
24.7346859
0
LINE
8
0
10
9.1575737
20
24.7346859
11
9.06966225
21
24.9130409
0
LINE
8
0
10
9.06966225
20
24.9130409
11
8.9409008
21
25.1742725
0
LINE
8
0
10
8.9409008
20
25.1742725
11
8.81988336
21
25.3320502
0
LINE
8
0
10
8.81988336
20
25.3320502
11
8.64263248
21
25.5631428
0
LINE
8
0
10
8.64263248
20
25.5631428
11
4.58112812
21
29.9012823
0
LINE
8
0
10
4.58112812
20
29.9012823
11
1.8081497
21
32.8631325
0
LINE
8
0
10
1.8081497
20
32.8631325
11
1.65867657
21
32.9942687
0
LINE
8
0
10
1.65867657
20
32.9942687
11
1.43974745
21
33.1863403
0
LINE
8
0
10
1.43974745
20
33.1863403
11
1.26756298
21
33.2857972
0
LINE
8
0
10
1.26756298
20
33.2857972
11
1.01536918
21
33.431469
0
LINE
8
0
10
1.01536918
20
33.431469
11
0.827090255
21
33.495422
0
LINE
8
0
10
0.827090255
20
33.495422
11
0.551323354
21
33.5890923
0
LINE
8
0
10
0.551323354
20
33.5890923
11
0.354185451
21
33.6150852
0
LINE
8
0
10
0.354185451
20
33.6150852
11
0.0654430464
21
33.6531563
0
LINE
8
0
10
0.0654430464
20
33.6531563
11
-0.132977948
21
33.6401908
0
LINE
8
0
10
-0.132977948
20
33.6401908
11
-0.42359966
21
33.6212006
0
LINE
8
0
10
-0.42359966
20
33.6212006
11
-0.615678527
21
33.5697735
0
LINE
8
0
10
-0.615678527
20
33.5697735
11
-0.897011101
21
33.4944496
0
LINE
8
0
10
-0.897011101
20
33.4944496
11
-1.07536638
21
33.4065389
0
LINE
8
0
10
-1.07536638
20
33.4065389
11
-1.3365984
21
33.2777786
0
LINE
8
0
10
-1.3365984
20
33.2777786
11
-1.49437597
21
33.15676
0
LINE
8
0
10
-1.49437597
20
33.15676
11
-1.7254684
21
32.9795074
0
LINE
8
0
10
-1.7254684
20
32.9795074
11
-1.85660493
21
32.830035
0
LINE
8
0
10
-1.85660493
20
32.830035
11
-2.04867697
21
32.6111069
0
LINE
8
0
10
-2.04867697
20
32.6111069
11
-2.14813308
21
32.4389227
0
LINE
8
0
10
-2.14813308
20
32.4389227
11
-2.29380369
21
32.1867294
0
LINE
8
0
10
-2.29380369
20
32.1867294
11
-2.35775712
21
31.9984502
0
LINE
8
0
10
-2.35775712
20
31.9984502
11
-2.35775712
21
31.9984502
0
LINE
8
0
10
3.40226603
20
13.1730547
11
3.15007215
21
13.3187253
0
LINE
8
0
10
3.15007215
20
13.3187253
11
2.97788763
21
13.4181814
0
LINE
8
0
10
2.97788763
20
13.4181814
11
2.75895851
21
13.6102536
0
LINE
8
0
10
2.75895851
20
13.6102536
11
2.60948539
21
13.7413902
0
LINE
8
0
10
2.60948539
20
13.7413902
11
-2.93647126
21
19.6650898
0
LINE
8
0
10
-2.93647126
20
19.6650898
11
-11.0594797
21
28.3413677
0
LINE
8
0
10
-11.0594797
20
28.3413677
11
-11.2367312
21
28.5724603
0
LINE
8
0
10
-11.2367312
20
28.5724603
11
-11.357749
21
28.730238
0
LINE
8
0
10
-11.357749
20
28.730238
11
-11.4865099
21
28.9914707
0
LINE
8
0
10
-11.4865099
20
28.9914707
11
-11.5744209
21
29.1698265
0
LINE
8
0
10
-11.5744209
20
29.1698265
11
-11.6497448
21
29.4511592
0
LINE
8
0
10
-11.6497448
20
29.4511592
11
-11.7011719
21
29.6432381
0
LINE
8
0
10
-11.7011719
20
29.6432381
11
-11.7201627
21
29.9338595
0
LINE
8
0
10
-11.7201627
20
29.9338595
11
-11.7331285
21
30.1322803
0
LINE
8
0
10
-11.7331285
20
30.1322803
11
-11.6950569
21
30.4210225
0
LINE
8
0
10
-11.6950569
20
30.4210225
11
-11.6690636
21
30.6181602
0
LINE
8
0
10
-11.6690636
20
30.6181602
11
-11.5753922
21
30.8939275
0
LINE
8
0
10
-11.5753922
20
30.8939275
11
-11.5114384
21
31.0822067
0
LINE
8
0
10
-11.5114384
20
31.0822067
11
-11.3657683
21
31.3344
0
LINE
8
0
10
-11.3657683
20
31.3344
11
-11.2663126
21
31.5065842
0
LINE
8
0
10
-11.2663126
20
31.5065842
11
-11.0742404
21
31.7255134
0
LINE
8
0
10
-11.0742404
20
31.7255134
11
-10.9431038
21
31.8749866
0
LINE
8
0
10
-10.9431038
20
31.8749866
11
-10.7120112
21
32.0522381
0
LINE
8
0
10
-10.7120112
20
32.0522381
11
-10.5542336
21
32.1732559
0
LINE
8
0
10
-10.5542336
20
32.1732559
11
-10.2930014
21
32.3020162
0
LINE
8
0
10
-10.2930014
20
32.3020162
11
-10.114646
21
32.3899269
0
LINE
8
0
10
-10.114646
20
32.3899269
11
-9.83331331
21
32.4652508
0
LINE
8
0
10
-9.83331331
20
32.4652508
11
-9.6412344
21
32.5166779
0
LINE
8
0
10
-9.6412344
20
32.5166779
11
-9.35061294
21
32.5356681
0
LINE
8
0
10
-9.35061294
20
32.5356681
11
-9.15219212
21
32.5486336
0
LINE
8
0
10
-9.15219212
20
32.5486336
11
-8.86344996
21
32.5105625
0
LINE
8
0
10
-8.86344996
20
32.5105625
11
-8.66631222
21
32.4845695
0
LINE
8
0
10
-8.66631222
20
32.4845695
11
-8.39054493
21
32.3908993
0
LINE
8
0
10
-8.39054493
20
32.3908993
11
-8.20226574
21
32.3269463
0
LINE
8
0
10
-8.20226574
20
32.3269463
11
-7.95007215
21
32.1812745
0
LINE
8
0
10
-7.95007215
20
32.1812745
11
-7.77788782
21
32.0818176
0
LINE
8
0
10
-7.77788782
20
32.0818176
11
-7.55895856
21
31.889746
0
LINE
8
0
10
-7.55895856
20
31.889746
11
-7.40948534
21
31.7586098
0
LINE
8
0
10
-7.40948534
20
31.7586098
11
-1.86352859
21
25.8349102
0
LINE
8
0
10
-1.86352859
20
25.8349102
11
6.25948
21
17.1586323
0
LINE
8
0
10
6.25948
20
17.1586323
11
6.43673116
21
16.9275397
0
LINE
8
0
10
6.43673116
20
16.9275397
11
6.55774879
21
16.769762
0
LINE
8
0
10
6.55774879
20
16.769762
11
6.68650996
21
16.5085293
0
LINE
8
0
10
6.68650996
20
16.5085293
11
6.77442122
21
16.3301735
0
LINE
8
0
10
6.77442122
20
16.3301735
11
6.84974449
21
16.0488414
0
LINE
8
0
10
6.84974449
20
16.0488414
11
6.90117121
21
15.8567629
0
LINE
8
0
10
6.90117121
20
15.8567629
11
6.92016199
21
15.5661409
0
LINE
8
0
10
6.92016199
20
15.5661409
11
6.93312788
21
15.3677197
0
LINE
8
0
10
6.93312788
20
15.3677197
11
6.89505649
21
15.0789775
0
LINE
8
0
10
6.89505649
20
15.0789775
11
6.86906338
21
14.8818398
0
LINE
8
0
10
6.86906338
20
14.8818398
11
6.77539228
21
14.606073
0
LINE
8
0
10
6.77539228
20
14.606073
11
6.71143866
21
14.4177942
0
LINE
8
0
10
6.71143866
20
14.4177942
11
6.56576805
21
14.1656004
0
LINE
8
0
10
6.56576805
20
14.1656004
11
6.46631193
21
13.9934158
0
LINE
8
0
10
6.46631193
20
13.9934158
11
6.27424004
21
13.7744866
0
LINE
8
0
10
6.27424004
20
13.7744866
11
6.1431036
21
13.6250134
0
LINE
8
0
10
6.1431036
20
13.6250134
11
5.91201103
21
13.4477625
0
LINE
8
0
10
5.91201103
20
13.4477625
11
5.75423336
21
13.326745
0
LINE
8
0
10
5.75423336
20
13.326745
11
5.49300145
21
13.1979836
0
LINE
8
0
10
5.49300145
20
13.1979836
11
5.31464624
21
13.1100721
0
LINE
8
0
10
5.31464624
20
13.1100721
11
5.0333136
21
13.0347489
0
LINE
8
0
10
5.0333136
20
13.0347489
11
4.84123468
21
12.9833221
0
LINE
8
0
10
4.84123468
20
12.9833221
11
4.55061294
21
12.9643314
0
LINE
8
0
10
4.55061294
20
12.9643314
11
4.35219193
21
12.9513655
0
LINE
8
0
10
4.35219193
20
12.9513655
11
4.06344962
21
12.9894371
0
LINE
8
0
10
4.06344962
20
12.9894371
11
3.86631179
21
13.0154305
0
LINE
8
0
10
3.86631179
20
13.0154305
11
3.59054492
21
13.1091013
0
LINE
8
0
10
3.59054492
20
13.1091013
11
3.40226603
21
13.1730547
0
LINE
8
0
10
3.40226603
20
13.1730547
11
3.40226603
21
13.1730547
0
LINE
8
0
10
-10.0991656
20
23.2659115
11
-10.3749323
21
23.3595829
0
LINE
8
0
10
-10.3749323
20
23.3595829
11
-10.5720704
21
23.3855766
0
LINE
8
0
10
-10.5720704
20
23.3855766
11
-10.8608131
21
23.4236488
0
LINE
8
0
10
-10.8608131
20
23.4236488
11
-11.059234
21
23.4106826
0
LINE
8
0
10
-11.059234
20
23.4106826
11
-11.3498554
21
23.3916912
0
LINE
8
0
10
-11.3498554
20
23.3916912
11
-11.5419343
21
23.3402641
0
LINE
8
0
10
-11.5419343
20
23.3402641
11
-11.823267
21
23.2649403
0
LINE
8
0
10
-11.823267
20
23.2649403
11
-12.0016224
21
23.1770296
0
LINE
8
0
10
-12.0016224
20
23.1770296
11
-12.2628546
21
23.0482693
0
LINE
8
0
10
-12.2628546
20
23.0482693
11
-12.4206319
21
22.9272514
0
LINE
8
0
10
-12.4206319
20
22.9272514
11
-12.6517239
21
22.75
0
LINE
8
0
10
-12.6517239
20
22.75
11
-12.7828605
21
22.6005268
0
LINE
8
0
10
-12.7828605
20
22.6005268
11
-12.9749327
21
22.3815975
0
LINE
8
0
10
-12.9749327
20
22.3815975
11
-13.0743888
21
22.2094134
0
LINE
8
0
10
-13.0743888
20
22.2094134
11
-13.2200594
21
21.9572201
0
LINE
8
0
10
-13.2200594
20
21.9572201
11
-13.2840128
21
21.7689409
0
LINE
8
0
10
-13.2840128
20
21.7689409
11
-13.3776836
21
21.4931736
0
LINE
8
0
10
-13.3776836
20
21.4931736
11
-13.4036769
21
21.2960359
0
LINE
8
0
10
-13.4036769
20
21.2960359
11
-13.4417486
21
21.0072937
0
LINE
8
0
10
-13.4417486
20
21.0072937
11
-13.4287827
21
20.8088729
0
LINE
8
0
10
-13.4287827
20
20.8088729
11
-13.4097919
21
20.5182514
0
LINE
8
0
10
-13.4097919
20
20.5182514
11
-13.3583652
21
20.3261725
0
LINE
8
0
10
-13.3583652
20
20.3261725
11
-13.283042
21
20.0448399
0
LINE
8
0
10
-13.283042
20
20.0448399
11
-13.1951305
21
19.8664841
0
LINE
8
0
10
-13.1951305
20
19.8664841
11
-13.0663691
21
19.6052513
0
LINE
8
0
10
-13.0663691
20
19.6052513
11
-12.9453516
21
19.4474736
0
LINE
8
0
10
-12.9453516
20
19.4474736
11
-12.7681007
21
19.2163811
0
LINE
8
0
10
-12.7681007
20
19.2163811
11
-8.70659644
21
14.8782421
0
LINE
8
0
10
-8.70659644
20
14.8782421
11
-5.93361807
21
11.9163923
0
LINE
8
0
10
-5.93361807
20
11.9163923
11
-5.78414504
21
11.7852557
0
LINE
8
0
10
-5.78414504
20
11.7852557
11
-5.56521606
21
11.5931835
0
LINE
8
0
10
-5.56521606
20
11.5931835
11
-5.39303155
21
11.4937278
0
LINE
8
0
10
-5.39303155
20
11.4937278
11
-5.14083767
21
11.3480577
0
LINE
8
0
10
-5.14083767
20
11.3480577
11
-4.95255867
21
11.2841039
0
LINE
8
0
10
-4.95255867
20
11.2841039
11
-4.67679167
21
11.1904325
0
LINE
8
0
10
-4.67679167
20
11.1904325
11
-4.47965374
21
11.1644392
0
LINE
8
0
10
-4.47965374
20
11.1644392
11
-4.19091129
21
11.1263676
0
LINE
8
0
10
-4.19091129
20
11.1263676
11
-3.99249037
21
11.1393335
0
LINE
8
0
10
-3.99249037
20
11.1393335
11
-3.70186877
21
11.1583242
0
LINE
8
0
10
-3.70186877
20
11.1583242
11
-3.50978986
21
11.2097513
0
LINE
8
0
10
-3.50978986
20
11.2097513
11
-3.22845721
21
11.2850752
0
LINE
8
0
10
-3.22845721
20
11.2850752
11
-3.05010201
21
11.3729862
0
LINE
8
0
10
-3.05010201
20
11.3729862
11
-2.7888701
21
11.5017471
0
LINE
8
0
10
-2.7888701
20
11.5017471
11
-2.63109252
21
11.622765
0
LINE
8
0
10
-2.63109252
20
11.622765
11
-2.4000001
21
11.8000164
0
LINE
8
0
10
-2.4000001
20
11.8000164
11
-2.26886346
21
11.9494892
0
LINE
8
0
10
-2.26886346
20
11.9494892
11
-2.07679129
21
12.1684179
0
LINE
8
0
10
-2.07679129
20
12.1684179
11
-1.97733527
21
12.3406024
0
LINE
8
0
10
-1.97733527
20
12.3406024
11
-1.8316648
21
12.5927963
0
LINE
8
0
10
-1.8316648
20
12.5927963
11
-1.76771127
21
12.7810751
0
LINE
8
0
10
-1.76771127
20
12.7810751
11
-1.67404032
21
13.0568419
0
LINE
8
0
10
-1.67404032
20
13.0568419
11
-1.64804706
21
13.25398
0
LINE
8
0
10
-1.64804706
20
13.25398
11
-1.60997546
21
13.5427227
0
LINE
8
0
10
-1.60997546
20
13.5427227
11
-1.6229413
21
13.7411435
0
LINE
8
0
10
-1.6229413
20
13.7411435
11
-1.64193201
21
14.031765
0
LINE
8
0
10
-1.64193201
20
14.031765
11
-1.69335877
21
14.2238439
0
LINE
8
0
10
-1.69335877
20
14.2238439
11
-1.76868212
21
14.5051765
0
LINE
8
0
10
-1.76868212
20
14.5051765
11
-1.85659347
21
14.6835319
0
LINE
8
0
10
-1.85659347
20
14.6835319
11
-1.98535478
21
14.9447641
0
LINE
8
0
10
-1.98535478
20
14.9447641
11
-2.10637237
21
15.1025418
0
LINE
8
0
10
-2.10637237
20
15.1025418
11
-2.28362346
21
15.3336344
0
LINE
8
0
10
-2.28362346
20
15.3336344
11
-6.34512761
21
19.6717734
0
LINE
8
0
10
-6.34512761
20
19.6717734
11
-9.11810589
21
22.6336231
0
LINE
8
0
10
-9.11810589
20
22.6336231
11
-9.26757911
21
22.7647601
0
LINE
8
0
10
-9.26757911
20
22.7647601
11
-9.48650837
21
22.9568329
0
LINE
8
0
10
-9.48650837
20
22.9568329
11
-9.65869289
21
23.0562882
0
LINE
8
0
10
-9.65869289
20
23.0562882
11
-9.91088676
21
23.2019577
0
LINE
8
0
10
-9.91088676
20
23.2019577
11
-10.0991656
21
23.2659115
0
LINE
8
0
10
-10.0991656
20
23.2659115
11
-10.0991656
21
23.2659115
0
LINE
8
0
10
12.1984878
20
46.5
11
12.0751799
21
46.5
0
LINE
8
0
10
12.0751799
20
46.5
11
11.9875521
21
46.5
0
LINE
8
0
10
11.9875521
20
46.5
11
11.9411863
21
46.5
0
LINE
8
0
10
11.9411863
20
46.5
11
5.41924857
21
46.5
0
LINE
8
0
10
5.41924857
20
46.5
11
5.04813668
21
46.5
0
LINE
8
0
10
5.04813668
20
46.5
11
-13.1026155
21
46.5
0
LINE
8
0
10
-13.1026155
20
46.5
11
-13.1744489
21
46.5
0
LINE
8
0
10
-13.1744489
20
46.5
11
-13.2893152
21
46.5
0
LINE
8
0
10
-13.2893152
20
46.5
11
-13.4374532
21
46.5
0
LINE
8
0
10
-13.4374532
20
46.5
11
-13.6043762
21
46.5
0
LINE
8
0
10
-13.6043762
20
46.5
11
-13.7736082
21
46.5
0
LINE
8
0
10
-13.7736082
20
46.5
11
-13.9297973
21
46.5
0
LINE
8
0
10
-13.9297973
20
46.5
11
-14.0610738
21
46.5
0
LINE
8
0
10
-14.0610738
20
46.5
11
-14.1600544
21
46.5
0
LINE
8
0
10
-14.1600544
20
46.5
11
-16.2557022
21
46.5
0
LINE
8
0
10
-16.2557022
20
46.5
11
-17.8415465
21
46.5
0
LINE
8
0
10
-17.8415465
20
46.5
11
-18.5499992
21
46.5
0
LINE
8
0
10
-18.5499992
20
46.5
11
-18.5499992
21
45.4487357
0
LINE
8
0
10
-18.5499992
20
45.4487357
11
-18.5499992
21
45.3934136
0
LINE
8
0
10
-18.5499992
20
45.3934136
11
-18.5499992
21
45.2789707
0
LINE
8
0
10
-18.5499992
20
45.2789707
11
-18.5499992
21
45.1081862
0
LINE
8
0
10
-18.5499992
20
45.1081862
11
-18.5499992
21
44.8885673
0
LINE
8
0
10
-18.5499992
20
44.8885673
11
-18.5499992
21
42.6569663
0
LINE
8
0
10
-18.5499992
20
42.6569663
11
-18.5499992
21
42.5186862
0
LINE
8
0
10
-18.5499992
20
42.5186862
11
-18.5499992
21
42.3484692
0
LINE
8
0
10
-18.5499992
20
42.3484692
11
-18.5499992
21
41.2141129
0
LINE
8
0
10
-18.5499992
20
41.2141129
11
-18.5499992
21
41.0683178
0
LINE
8
0
10
-18.5499992
20
41.0683178
11
-18.5499992
21
40.9124554
0
LINE
8
0
10
-18.5499992
20
40.9124554
11
-18.5499992
21
40.7604277
0
LINE
8
0
10
-18.5499992
20
40.7604277
11
-18.5499992
21
40.6246833
0
LINE
8
0
10
-18.5499992
20
40.6246833
11
-18.5499992
21
40.1754543
0
LINE
8
0
10
-18.5499992
20
40.1754543
11
-18.5499992
21
36.3473561
0
LINE
8
0
10
-18.5499992
20
36.3473561
11
-18.5499992
21
35.5253469
0
LINE
8
0
10
-18.5499992
20
35.5253469
11
-18.5499992
21
33.1891827
0
LINE
8
0
10
-18.5499992
20
33.1891827
11
-18.5499992
21
11.0888232
0
LINE
8
0
10
-18.5499992
20
11.0888232
11
-18.5499992
21
8.35923077
0
LINE
8
0
10
-18.5499992
20
8.35923077
11
-18.5499992
21
5.69253133
0
LINE
8
0
10
-18.5499992
20
5.69253133
11
-18.5499992
21
4.54097205
0
LINE
8
0
10
-18.5499992
20
4.54097205
11
-18.5499992
21
4.40352148
0
LINE
8
0
10
-18.5499992
20
4.40352148
11
-18.5499992
21
3.29714458
0
LINE
8
0
10
-18.5499992
20
3.29714458
11
-18.5499992
21
3.13751992
0
LINE
8
0
10
-18.5499992
20
3.13751992
11
-18.5499992
21
3.01299433
0
LINE
8
0
10
-18.5499992
20
3.01299433
11
-18.5499992
21
0.786647729
0
LINE
8
0
10
-18.5499992
20
0.786647729
11
-18.5499992
21
0.582399631
0
LINE
8
0
10
-18.5499992
20
0.582399631
11
-18.5499992
21
0.430445769
0
LINE
8
0
10
-18.5499992
20
0.430445769
11
-18.5499992
21
0.336439262
0
LINE
8
0
10
-18.5499992
20
0.336439262
11
-18.5499992
21
-0.544301021
0
LINE
8
0
10
-18.5499992
20
-0.544301021
11
-18.5499992
21
-0.599439432
0
LINE
8
0
10
-18.5499992
20
-0.599439432
11
-18.5499992
21
-0.617388471
0
LINE
8
0
10
-18.5499992
20
-0.617388471
11
-18.5499992
21
-1.10000002
0
LINE
8
0
10
-18.5499992
20
-1.10000002
11
-16.2557022
21
-1.10000002
0
LINE
8
0
10
-16.2557022
20
-1.10000002
11
-14.1600544
21
-1.10000002
0
LINE
8
0
10
-14.1600544
20
-1.10000002
11
-14.0610738
21
-1.10000002
0
LINE
8
0
10
-14.0610738
20
-1.10000002
11
-13.9297973
21
-1.10000002
0
LINE
8
0
10
-13.9297973
20
-1.10000002
11
-13.7736082
21
-1.10000002
0
LINE
8
0
10
-13.7736082
20
-1.10000002
11
-13.6043762
21
-1.10000002
0
LINE
8
0
10
-13.6043762
20
-1.10000002
11
-13.4374532
21
-1.10000002
0
LINE
8
0
10
-13.4374532
20
-1.10000002
11
-13.2893152
21
-1.10000002
0
LINE
8
0
10
-13.2893152
20
-1.10000002
11
-13.1744489
21
-1.10000002
0
LINE
8
0
10
-13.1744489
20
-1.10000002
11
-13.1026155
21
-1.10000002
0
LINE
8
0
10
-13.1026155
20
-1.10000002
11
5.04813668
21
-1.10000002
0
LINE
8
0
10
5.04813668
20
-1.10000002
11
5.41924857
21
-1.10000002
0
LINE
8
0
10
5.41924857
20
-1.10000002
11
11.9411863
21
-1.10000002
0
LINE
8
0
10
11.9411863
20
-1.10000002
11
11.9875521
21
-1.10000002
0
LINE
8
0
10
11.9875521
20
-1.10000002
11
12.0751799
21
-1.10000002
0
LINE
8
0
10
12.0751799
20
-1.10000002
11
12.1984878
21
-1.10000002
0
LINE
8
0
10
12.1984878
20
-1.10000002
11
12.3466259
21
-1.10000002
0
LINE
8
0
10
12.3466259
20
-1.10000002
11
12.5051072
21
-1.10000002
0
LINE
8
0
10
12.5051072
20
-1.10000002
11
12.6585448
21
-1.10000002
0
LINE
8
0
10
12.6585448
20
-1.10000002
11
12.7934778
21
-1.10000002
0
LINE
8
0
10
12.7934778
20
-1.10000002
11
12.9002869
21
-1.10000002
0
LINE
8
0
10
12.9002869
20
-1.10000002
11
12.9737817
21
-1.10000002
0
LINE
8
0
10
12.9737817
20
-1.10000002
11
13.75
21
-1.10000002
0
LINE
8
0
10
13.75
20
-1.10000002
11
13.75
21
1.00873518
0
LINE
8
0
10
13.75
20
1.00873518
11
13.75
21
2.32323378
0
LINE
8
0
10
13.75
20
2.32323378
11
13.75
21
25.2344568
0
LINE
8
0
10
13.75
20
25.2344568
11
13.75
21
43.1286334
0
LINE
8
0
10
13.75
20
43.1286334
11
13.75
21
44.4326126
0
LINE
8
0
10
13.75
20
44.4326126
11
13.75
21
46.5
0
LINE
8
0
10
13.75
20
46.5
11
12.9737817
21
46.5
0
LINE
8
0
10
12.9737817
20
46.5
11
12.9002869
21
46.5
0
LINE
8
0
10
12.9002869
20
46.5
11
12.7934778
21
46.5
0
LINE
8
0
10
12.7934778
20
46.5
11
12.6585448
21
46.5
0
LINE
8
0
10
12.6585448
20
46.5
11
12.5051072
21
46.5
0
LINE
8
0
10
12.5051072
20
46.5
11
12.3466259
21
46.5
0
LINE
8
0
10
12.3466259
20
46.5
11
12.1984878
21
46.5
0
LINE
8
0
10
12.1984878
20
46.5
11
12.1984878
21
46.5
0
ENDSEC
0
EOF
