0
SECTION
2
ENTITIES
0
LINE
8
0
10
-11.0591936
20
31.7426642
11
-11.2663126
21
31.5065842
0
LINE
8
0
10
-11.2663126
20
31.5065842
11
-11.3543566
21
31.3541567
0
LINE
8
0
10
-11.3543566
20
31.3541567
11
-11.5114384
21
31.0822067
0
LINE
8
0
10
-11.5114384
20
31.0822067
11
-11.568054
21
30.915531
0
LINE
8
0
10
-11.568054
20
30.915531
11
-11.6690636
21
30.6181602
0
LINE
8
0
10
-11.6690636
20
30.6181602
11
-11.6920744
21
30.4436424
0
LINE
8
0
10
-11.6920744
20
30.4436424
11
-11.7331285
21
30.1322803
0
LINE
8
0
10
-11.7331285
20
30.1322803
11
-11.7216504
21
29.9566266
0
LINE
8
0
10
-11.7216504
20
29.9566266
11
-11.7011719
21
29.6432381
0
LINE
8
0
10
-11.7011719
20
29.6432381
11
-11.6556456
21
29.4731986
0
LINE
8
0
10
-11.6556456
20
29.4731986
11
-11.5744209
21
29.1698265
0
LINE
8
0
10
-11.5744209
20
29.1698265
11
-11.4965969
21
29.0119355
0
LINE
8
0
10
-11.4965969
20
29.0119355
11
-11.357749
21
28.730238
0
LINE
8
0
10
-11.357749
20
28.730238
11
-11.2506169
21
28.5905639
0
LINE
8
0
10
-11.2506169
20
28.5905639
11
-11.0594797
21
28.3413677
0
LINE
8
0
10
-11.0594797
20
28.3413677
11
-2.30011973
21
18.9853954
0
LINE
8
0
10
-2.30011973
20
18.9853954
11
2.60948539
21
13.7413902
0
LINE
8
0
10
2.60948539
20
13.7413902
11
2.74180773
21
13.6253004
0
LINE
8
0
10
2.74180773
20
13.6253004
11
2.97788763
21
13.4181814
0
LINE
8
0
10
2.97788763
20
13.4181814
11
3.13031543
21
13.330137
0
LINE
8
0
10
3.13031543
20
13.330137
11
3.40226603
21
13.1730547
0
LINE
8
0
10
3.40226603
20
13.1730547
11
3.56894152
21
13.1164394
0
LINE
8
0
10
3.56894152
20
13.1164394
11
3.86631179
21
13.0154305
0
LINE
8
0
10
3.86631179
20
13.0154305
11
4.04082973
21
12.9924197
0
LINE
8
0
10
4.04082973
20
12.9924197
11
4.35219193
21
12.9513655
0
LINE
8
0
10
4.35219193
20
12.9513655
11
4.52784581
21
12.9628436
0
LINE
8
0
10
4.52784581
20
12.9628436
11
4.84123468
21
12.9833221
0
LINE
8
0
10
4.84123468
20
12.9833221
11
5.01127417
21
13.0288481
0
LINE
8
0
10
5.01127417
20
13.0288481
11
5.31464624
21
13.1100721
0
LINE
8
0
10
5.31464624
20
13.1100721
11
5.4725367
21
13.1878965
0
LINE
8
0
10
5.4725367
20
13.1878965
11
5.75423336
21
13.326745
0
LINE
8
0
10
5.75423336
20
13.326745
11
5.89390738
21
13.4338767
0
LINE
8
0
10
5.89390738
20
13.4338767
11
6.1431036
21
13.6250134
0
LINE
8
0
10
6.1431036
20
13.6250134
11
6.25919324
21
13.7573358
0
LINE
8
0
10
6.25919324
20
13.7573358
11
6.46631193
21
13.9934158
0
LINE
8
0
10
6.46631193
20
13.9934158
11
6.5543563
21
14.1458436
0
LINE
8
0
10
6.5543563
20
14.1458436
11
6.71143866
21
14.4177942
0
LINE
8
0
10
6.71143866
20
14.4177942
11
6.76805414
21
14.5844696
0
LINE
8
0
10
6.76805414
20
14.5844696
11
6.86906338
21
14.8818398
0
LINE
8
0
10
6.86906338
20
14.8818398
11
6.892074
21
15.0563576
0
LINE
8
0
10
6.892074
20
15.0563576
11
6.93312788
21
15.3677197
0
LINE
8
0
10
6.93312788
20
15.3677197
11
6.92164971
21
15.5433737
0
LINE
8
0
10
6.92164971
20
15.5433737
11
6.90117121
21
15.8567629
0
LINE
8
0
10
6.90117121
20
15.8567629
11
6.85564527
21
16.026802
0
LINE
8
0
10
6.85564527
20
16.026802
11
6.77442122
21
16.3301735
0
LINE
8
0
10
6.77442122
20
16.3301735
11
6.69659703
21
16.4880645
0
LINE
8
0
10
6.69659703
20
16.4880645
11
6.55774879
21
16.769762
0
LINE
8
0
10
6.55774879
20
16.769762
11
6.45061691
21
16.9094361
0
LINE
8
0
10
6.45061691
20
16.9094361
11
6.25948
21
17.1586323
0
LINE
8
0
10
6.25948
20
17.1586323
11
-2.49988014
21
26.5146046
0
LINE
8
0
10
-2.49988014
20
26.5146046
11
-7.40948534
21
31.7586098
0
LINE
8
0
10
-7.40948534
20
31.7586098
11
-7.54180777
21
31.8746992
0
LINE
8
0
10
-7.54180777
20
31.8746992
11
-7.77788782
21
32.0818176
0
LINE
8
0
10
-7.77788782
20
32.0818176
11
-7.93031545
21
32.1698627
0
LINE
8
0
10
-7.93031545
20
32.1698627
11
-8.20226574
21
32.3269463
0
LINE
8
0
10
-8.20226574
20
32.3269463
11
-8.36894149
21
32.3835612
0
LINE
8
0
10
-8.36894149
20
32.3835612
11
-8.66631222
21
32.4845695
0
LINE
8
0
10
-8.66631222
20
32.4845695
11
-8.84083007
21
32.50758
0
LINE
8
0
10
-8.84083007
20
32.50758
11
-9.15219212
21
32.5486336
0
LINE
8
0
10
-9.15219212
20
32.5486336
11
-9.32784583
21
32.5371558
0
LINE
8
0
10
-9.32784583
20
32.5371558
11
-9.6412344
21
32.5166779
0
LINE
8
0
10
-9.6412344
20
32.5166779
11
-9.81127389
21
32.4711516
0
LINE
8
0
10
-9.81127389
20
32.4711516
11
-10.114646
21
32.3899269
0
LINE
8
0
10
-10.114646
20
32.3899269
11
-10.2725366
21
32.3121032
0
LINE
8
0
10
-10.2725366
20
32.3121032
11
-10.5542336
21
32.1732559
0
LINE
8
0
10
-10.5542336
20
32.1732559
11
-10.6939076
21
32.0661239
0
LINE
8
0
10
-10.6939076
20
32.0661239
11
-10.9431038
21
31.8749866
0
LINE
8
0
10
-10.9431038
20
31.8749866
11
-11.0591936
21
31.7426642
0
LINE
8
0
10
-11.0591936
20
31.7426642
11
-11.0591936
21
31.7426642
0
LINE
8
0
10
-2.14011359
20
29.8347607
11
-2.27896198
21
30.1164582
0
LINE
8
0
10
-2.27896198
20
30.1164582
11
-2.35678625
21
30.2743492
0
LINE
8
0
10
-2.35678625
20
30.2743492
11
-2.43801031
21
30.5777201
0
LINE
8
0
10
-2.43801031
20
30.5777201
11
-2.48353624
21
30.7477589
0
LINE
8
0
10
-2.48353624
20
30.7477589
11
-2.50401475
21
31.0611487
0
LINE
8
0
10
-2.50401475
20
31.0611487
11
-2.51549292
21
31.2368031
0
LINE
8
0
10
-2.51549292
20
31.2368031
11
-2.47443873
21
31.5481651
0
LINE
8
0
10
-2.47443873
20
31.5481651
11
-2.45142794
21
31.722683
0
LINE
8
0
10
-2.45142794
20
31.722683
11
-2.35041901
21
32.0200537
0
LINE
8
0
10
-2.35041901
20
32.0200537
11
-2.29380369
21
32.1867294
0
LINE
8
0
10
-2.29380369
20
32.1867294
11
-2.13672134
21
32.4586794
0
LINE
8
0
10
-2.13672134
20
32.4586794
11
-2.04867697
21
32.6111069
0
LINE
8
0
10
-2.04867697
20
32.6111069
11
-1.84155813
21
32.8471857
0
LINE
8
0
10
-1.84155813
20
32.8471857
11
-1.7254684
21
32.9795074
0
LINE
8
0
10
-1.7254684
20
32.9795074
11
-1.47627233
21
33.1706459
0
LINE
8
0
10
-1.47627233
20
33.1706459
11
-1.3365984
21
33.2777786
0
LINE
8
0
10
-1.3365984
20
33.2777786
11
-1.05490162
21
33.4166259
0
LINE
8
0
10
-1.05490162
20
33.4166259
11
-0.897011101
21
33.4944496
0
LINE
8
0
10
-0.897011101
20
33.4944496
11
-0.593639105
21
33.5756743
0
LINE
8
0
10
-0.593639105
20
33.5756743
11
-0.42359966
21
33.6212006
0
LINE
8
0
10
-0.42359966
20
33.6212006
11
-0.11021082
21
33.6416785
0
LINE
8
0
10
-0.11021082
20
33.6416785
11
0.0654430464
21
33.6531563
0
LINE
8
0
10
0.0654430464
20
33.6531563
11
0.376805355
21
33.6121027
0
LINE
8
0
10
0.376805355
20
33.6121027
11
0.551323354
21
33.5890923
0
LINE
8
0
10
0.551323354
20
33.5890923
11
0.848693666
21
33.4880839
0
LINE
8
0
10
0.848693666
20
33.4880839
11
1.01536918
21
33.431469
0
LINE
8
0
10
1.01536918
20
33.431469
11
1.28731969
21
33.2743854
0
LINE
8
0
10
1.28731969
20
33.2743854
11
1.43974745
21
33.1863403
0
LINE
8
0
10
1.43974745
20
33.1863403
11
1.67582735
21
32.9792219
0
LINE
8
0
10
1.67582735
20
32.9792219
11
1.8081497
21
32.8631325
0
LINE
8
0
10
1.8081497
20
32.8631325
11
4.26295234
21
30.2411295
0
LINE
8
0
10
4.26295234
20
30.2411295
11
8.64263248
21
25.5631428
0
LINE
8
0
10
8.64263248
20
25.5631428
11
8.83376909
21
25.3139466
0
LINE
8
0
10
8.83376909
20
25.3139466
11
8.9409008
21
25.1742725
0
LINE
8
0
10
8.9409008
20
25.1742725
11
9.07974935
21
24.8925762
0
LINE
8
0
10
9.07974935
20
24.8925762
11
9.1575737
21
24.7346859
0
LINE
8
0
10
9.1575737
20
24.7346859
11
9.23879776
21
24.4313138
0
LINE
8
0
10
9.23879776
20
24.4313138
11
9.28432369
21
24.2612743
0
LINE
8
0
10
9.28432369
20
24.2612743
11
9.3048022
21
23.9478858
0
LINE
8
0
10
9.3048022
20
23.9478858
11
9.31628036
21
23.7722321
0
LINE
8
0
10
9.31628036
20
23.7722321
11
9.27522618
21
23.46087
0
LINE
8
0
10
9.27522618
20
23.46087
11
9.25221539
21
23.2863522
0
LINE
8
0
10
9.25221539
20
23.2863522
11
9.15120646
21
22.9889814
0
LINE
8
0
10
9.15120646
20
22.9889814
11
9.09459114
21
22.8223057
0
LINE
8
0
10
9.09459114
20
22.8223057
11
8.93750879
21
22.5503545
0
LINE
8
0
10
8.93750879
20
22.5503545
11
8.84946442
21
22.3979263
0
LINE
8
0
10
8.84946442
20
22.3979263
11
8.64234542
21
22.1618475
0
LINE
8
0
10
8.64234542
20
22.1618475
11
8.52625561
21
22.0295258
0
LINE
8
0
10
8.52625561
20
22.0295258
11
8.27706
21
21.8383885
0
LINE
8
0
10
8.27706
20
21.8383885
11
8.13738632
21
21.7312565
0
LINE
8
0
10
8.13738632
20
21.7312565
11
7.85568936
21
21.5924079
0
LINE
8
0
10
7.85568936
20
21.5924079
11
7.69779873
21
21.5145836
0
LINE
8
0
10
7.69779873
20
21.5145836
11
7.39442666
21
21.4333601
0
LINE
8
0
10
7.39442666
20
21.4333601
11
7.22438717
21
21.3878345
0
LINE
8
0
10
7.22438717
20
21.3878345
11
6.9109983
21
21.3673554
0
LINE
8
0
10
6.9109983
20
21.3673554
11
6.73534441
21
21.3558769
0
LINE
8
0
10
6.73534441
20
21.3558769
11
6.42398206
21
21.3969317
0
LINE
8
0
10
6.42398206
20
21.3969317
11
6.24946404
21
21.4199429
0
LINE
8
0
10
6.24946404
20
21.4199429
11
5.95209391
21
21.5209512
0
LINE
8
0
10
5.95209391
20
21.5209512
11
5.78541851
21
21.5775661
0
LINE
8
0
10
5.78541851
20
21.5775661
11
5.51346792
21
21.7346485
0
LINE
8
0
10
5.51346792
20
21.7346485
11
5.36104012
21
21.8226929
0
LINE
8
0
10
5.36104012
20
21.8226929
11
5.12496007
21
22.0298113
0
LINE
8
0
10
5.12496007
20
22.0298113
11
4.99263763
21
22.1459007
0
LINE
8
0
10
4.99263763
20
22.1459007
11
2.53783504
21
24.7679037
0
LINE
8
0
10
2.53783504
20
24.7679037
11
-1.84184504
21
29.4458904
0
LINE
8
0
10
-1.84184504
20
29.4458904
11
-2.03298179
21
29.6950866
0
LINE
8
0
10
-2.03298179
20
29.6950866
11
-2.14011359
21
29.8347607
0
LINE
8
0
10
-2.14011359
20
29.8347607
11
-2.14011359
21
29.8347607
0
LINE
8
0
10
-13.6344467
20
46.5
11
-13.8028716
21
46.5
0
LINE
8
0
10
-13.8028716
20
46.5
11
-13.9444322
21
46.5
0
LINE
8
0
10
-13.9444322
20
46.5
11
-14.0511669
21
46.5
0
LINE
8
0
10
-14.0511669
20
46.5
11
-16.3109865
21
46.5
0
LINE
8
0
10
-16.3109865
20
46.5
11
-17.8586177
21
46.5
0
LINE
8
0
10
-17.8586177
20
46.5
11
-18.5499992
21
46.5
0
LINE
8
0
10
-18.5499992
20
46.5
11
-18.5499992
21
45.4740674
0
LINE
8
0
10
-18.5499992
20
45.4740674
11
-18.5499992
21
45.4200783
0
LINE
8
0
10
-18.5499992
20
45.4200783
11
-18.5499992
21
45.3083931
0
LINE
8
0
10
-18.5499992
20
45.3083931
11
-18.5499992
21
45.1417238
0
LINE
8
0
10
-18.5499992
20
45.1417238
11
-18.5499992
21
44.927397
0
LINE
8
0
10
-18.5499992
20
44.927397
11
-18.5499992
21
42.5930711
0
LINE
8
0
10
-18.5499992
20
42.5930711
11
-18.5499992
21
42.4624278
0
LINE
8
0
10
-18.5499992
20
42.4624278
11
-18.5499992
21
42.3016112
0
LINE
8
0
10
-18.5499992
20
42.3016112
11
-18.5499992
21
41.1116207
0
LINE
8
0
10
-18.5499992
20
41.1116207
11
-18.5499992
21
40.9781333
0
LINE
8
0
10
-18.5499992
20
40.9781333
11
-18.5499992
21
40.8354283
0
LINE
8
0
10
-18.5499992
20
40.8354283
11
-18.5499992
21
40.6962344
0
LINE
8
0
10
-18.5499992
20
40.6962344
11
-18.5499992
21
40.5719492
0
LINE
8
0
10
-18.5499992
20
40.5719492
11
-18.5499992
21
40.1606429
0
LINE
8
0
10
-18.5499992
20
40.1606429
11
-18.5499992
21
36.6557025
0
LINE
8
0
10
-18.5499992
20
36.6557025
11
-18.5499992
21
35.903085
0
LINE
8
0
10
-18.5499992
20
35.903085
11
-18.5499992
21
33.7641336
0
LINE
8
0
10
-18.5499992
20
33.7641336
11
-18.5499992
21
10.6170298
0
LINE
8
0
10
-18.5499992
20
10.6170298
11
-18.5499992
21
8.11786221
0
LINE
8
0
10
-18.5499992
20
8.11786221
11
-18.5499992
21
5.67627835
0
LINE
8
0
10
-18.5499992
20
5.67627835
11
-18.5499992
21
4.6219306
0
LINE
8
0
10
-18.5499992
20
4.6219306
11
-18.5499992
21
4.49608324
0
LINE
8
0
10
-18.5499992
20
4.49608324
11
-18.5499992
21
3.33596081
0
LINE
8
0
10
-18.5499992
20
3.33596081
11
-18.5499992
21
3.18515166
0
LINE
8
0
10
-18.5499992
20
3.18515166
11
-18.5499992
21
3.06750318
0
LINE
8
0
10
-18.5499992
20
3.06750318
11
-18.5499992
21
0.741186337
0
LINE
8
0
10
-18.5499992
20
0.741186337
11
-18.5499992
21
0.54185988
0
LINE
8
0
10
-18.5499992
20
0.54185988
11
-18.5499992
21
0.393567558
0
LINE
8
0
10
-18.5499992
20
0.393567558
11
-18.5499992
21
0.301826267
0
LINE
8
0
10
-18.5499992
20
0.301826267
11
-18.5499992
21
-0.557691358
0
LINE
8
0
10
-18.5499992
20
-0.557691358
11
-18.5499992
21
-0.611501133
0
LINE
8
0
10
-18.5499992
20
-0.611501133
11
-18.5499992
21
-0.629017665
0
LINE
8
0
10
-18.5499992
20
-0.629017665
11
-18.5499992
21
-1.10000002
0
LINE
8
0
10
-18.5499992
20
-1.10000002
11
-16.3109865
21
-1.10000002
0
LINE
8
0
10
-16.3109865
20
-1.10000002
11
-14.0511669
21
-1.10000002
0
LINE
8
0
10
-14.0511669
20
-1.10000002
11
-13.9444322
21
-1.10000002
0
LINE
8
0
10
-13.9444322
20
-1.10000002
11
-13.8028716
21
-1.10000002
0
LINE
8
0
10
-13.8028716
20
-1.10000002
11
-13.6344467
21
-1.10000002
0
LINE
8
0
10
-13.6344467
20
-1.10000002
11
-13.4519572
21
-1.10000002
0
LINE
8
0
10
-13.4519572
20
-1.10000002
11
-13.2719576
21
-1.10000002
0
LINE
8
0
10
-13.2719576
20
-1.10000002
11
-13.1122145
21
-1.10000002
0
LINE
8
0
10
-13.1122145
20
-1.10000002
11
-12.9883497
21
-1.10000002
0
LINE
8
0
10
-12.9883497
20
-1.10000002
11
-12.9108889
21
-1.10000002
0
LINE
8
0
10
-12.9108889
20
-1.10000002
11
4.36643801
21
-1.10000002
0
LINE
8
0
10
4.36643801
20
-1.10000002
11
4.76662258
21
-1.10000002
0
LINE
8
0
10
4.76662258
20
-1.10000002
11
11.7994849
21
-1.10000002
0
LINE
8
0
10
11.7994849
20
-1.10000002
11
11.8494831
21
-1.10000002
0
LINE
8
0
10
11.8494831
20
-1.10000002
11
11.9439755
21
-1.10000002
0
LINE
8
0
10
11.9439755
20
-1.10000002
11
12.0769432
21
-1.10000002
0
LINE
8
0
10
12.0769432
20
-1.10000002
11
12.2366864
21
-1.10000002
0
LINE
8
0
10
12.2366864
20
-1.10000002
11
12.4075831
21
-1.10000002
0
LINE
8
0
10
12.4075831
20
-1.10000002
11
12.5730409
21
-1.10000002
0
LINE
8
0
10
12.5730409
20
-1.10000002
11
12.7185444
21
-1.10000002
0
LINE
8
0
10
12.7185444
20
-1.10000002
11
12.8337209
21
-1.10000002
0
LINE
8
0
10
12.8337209
20
-1.10000002
11
12.9129732
21
-1.10000002
0
LINE
8
0
10
12.9129732
20
-1.10000002
11
13.75
21
-1.10000002
0
LINE
8
0
10
13.75
20
-1.10000002
11
13.75
21
1.17393221
0
LINE
8
0
10
13.75
20
1.17393221
11
13.75
21
2.59140783
0
LINE
8
0
10
13.75
20
2.59140783
11
13.75
21
23.5685271
0
LINE
8
0
10
13.75
20
23.5685271
11
13.75
21
42.8645226
0
LINE
8
0
10
13.75
20
42.8645226
11
13.75
21
44.2706547
0
LINE
8
0
10
13.75
20
44.2706547
11
13.75
21
46.5
0
LINE
8
0
10
13.75
20
46.5
11
12.9129732
21
46.5
0
LINE
8
0
10
12.9129732
20
46.5
11
12.8337209
21
46.5
0
LINE
8
0
10
12.8337209
20
46.5
11
12.7185444
21
46.5
0
LINE
8
0
10
12.7185444
20
46.5
11
12.5730409
21
46.5
0
LINE
8
0
10
12.5730409
20
46.5
11
12.4075831
21
46.5
0
LINE
8
0
10
12.4075831
20
46.5
11
12.2366864
21
46.5
0
LINE
8
0
10
12.2366864
20
46.5
11
12.0769432
21
46.5
0
LINE
8
0
10
12.0769432
20
46.5
11
11.9439755
21
46.5
0
LINE
8
0
10
11.9439755
20
46.5
11
11.8494831
21
46.5
0
LINE
8
0
10
11.8494831
20
46.5
11
11.7994849
21
46.5
0
LINE
8
0
10
11.7994849
20
46.5
11
4.76662258
21
46.5
0
LINE
8
0
10
4.76662258
20
46.5
11
4.36643801
21
46.5
0
LINE
8
0
10
4.36643801
20
46.5
11
-12.9108889
21
46.5
0
LINE
8
0
10
-12.9108889
20
46.5
11
-12.9883497
21
46.5
0
LINE
8
0
10
-12.9883497
20
46.5
11
-13.1122145
21
46.5
0
LINE
8
0
10
-13.1122145
20
46.5
11
-13.2719576
21
46.5
0
LINE
8
0
10
-13.2719576
20
46.5
11
-13.4519572
21
46.5
0
LINE
8
0
10
-13.4519572
20
46.5
11
-13.6344467
21
46.5
0
LINE
8
0
10
-13.6344467
20
46.5
11
-13.6344467
21
46.5
0
LINE
8
0
10
-11.5198949
20
23.3461649
11
-11.3498554
21
23.3916912
0
LINE
8
0
10
-11.3498554
20
23.3916912
11
-11.0364669
21
23.4121703
0
LINE
8
0
10
-11.0364669
20
23.4121703
11
-10.8608131
21
23.4236488
0
LINE
8
0
10
-10.8608131
20
23.4236488
11
-10.5494505
21
23.382594
0
LINE
8
0
10
-10.5494505
20
23.382594
11
-10.3749323
21
23.3595829
0
LINE
8
0
10
-10.3749323
20
23.3595829
11
-10.0775622
21
23.2585734
0
LINE
8
0
10
-10.0775622
20
23.2585734
11
-9.91088676
21
23.2019577
0
LINE
8
0
10
-9.91088676
20
23.2019577
11
-9.63893617
21
23.0448766
0
LINE
8
0
10
-9.63893617
20
23.0448766
11
-9.48650837
21
22.9568329
0
LINE
8
0
10
-9.48650837
20
22.9568329
11
-9.25042832
21
22.7497133
0
LINE
8
0
10
-9.25042832
20
22.7497133
11
-9.11810589
21
22.6336231
0
LINE
8
0
10
-9.11810589
20
22.6336231
11
-6.66330337
21
20.0116205
0
LINE
8
0
10
-6.66330337
20
20.0116205
11
-2.28362346
21
15.3336344
0
LINE
8
0
10
-2.28362346
20
15.3336344
11
-2.09248662
21
15.0844382
0
LINE
8
0
10
-2.09248662
20
15.0844382
11
-1.98535478
21
14.9447641
0
LINE
8
0
10
-1.98535478
20
14.9447641
11
-1.84650639
21
14.6630672
0
LINE
8
0
10
-1.84650639
20
14.6630672
11
-1.76868212
21
14.5051765
0
LINE
8
0
10
-1.76868212
20
14.5051765
11
-1.68745799
21
14.2018045
0
LINE
8
0
10
-1.68745799
20
14.2018045
11
-1.64193201
21
14.031765
0
LINE
8
0
10
-1.64193201
20
14.031765
11
-1.62145358
21
13.7183764
0
LINE
8
0
10
-1.62145358
20
13.7183764
11
-1.60997546
21
13.5427227
0
LINE
8
0
10
-1.60997546
20
13.5427227
11
-1.65102957
21
13.23136
0
LINE
8
0
10
-1.65102957
20
13.23136
11
-1.67404032
21
13.0568419
0
LINE
8
0
10
-1.67404032
20
13.0568419
11
-1.7750494
21
12.7594717
0
LINE
8
0
10
-1.7750494
20
12.7594717
11
-1.8316648
21
12.5927963
0
LINE
8
0
10
-1.8316648
20
12.5927963
11
-1.988747
21
12.3208457
0
LINE
8
0
10
-1.988747
20
12.3208457
11
-2.07679129
21
12.1684179
0
LINE
8
0
10
-2.07679129
20
12.1684179
11
-2.28391028
21
11.9323385
0
LINE
8
0
10
-2.28391028
20
11.9323385
11
-2.4000001
21
11.8000164
0
LINE
8
0
10
-2.4000001
20
11.8000164
11
-2.64919616
21
11.6088792
0
LINE
8
0
10
-2.64919616
20
11.6088792
11
-2.7888701
21
11.5017471
0
LINE
8
0
10
-2.7888701
20
11.5017471
11
-3.07056675
21
11.3628992
0
LINE
8
0
10
-3.07056675
20
11.3628992
11
-3.22845721
21
11.2850752
0
LINE
8
0
10
-3.22845721
20
11.2850752
11
-3.53182929
21
11.2038505
0
LINE
8
0
10
-3.53182929
20
11.2038505
11
-3.70186877
21
11.1583242
0
LINE
8
0
10
-3.70186877
20
11.1583242
11
-4.01525749
21
11.1378457
0
LINE
8
0
10
-4.01525749
20
11.1378457
11
-4.19091129
21
11.1263676
0
LINE
8
0
10
-4.19091129
20
11.1263676
11
-4.50227364
21
11.1674218
0
LINE
8
0
10
-4.50227364
20
11.1674218
11
-4.67679167
21
11.1904325
0
LINE
8
0
10
-4.67679167
20
11.1904325
11
-4.97416209
21
11.2914421
0
LINE
8
0
10
-4.97416209
20
11.2914421
11
-5.14083767
21
11.3480577
0
LINE
8
0
10
-5.14083767
20
11.3480577
11
-5.41278826
21
11.5051395
0
LINE
8
0
10
-5.41278826
20
11.5051395
11
-5.56521606
21
11.5931835
0
LINE
8
0
10
-5.56521606
20
11.5931835
11
-5.80129581
21
11.8003025
0
LINE
8
0
10
-5.80129581
20
11.8003025
11
-5.93361807
21
11.9163923
0
LINE
8
0
10
-5.93361807
20
11.9163923
11
-8.38842067
21
14.5383949
0
LINE
8
0
10
-8.38842067
20
14.5383949
11
-12.7681007
21
19.2163811
0
LINE
8
0
10
-12.7681007
20
19.2163811
11
-12.9592373
21
19.4655773
0
LINE
8
0
10
-12.9592373
20
19.4655773
11
-13.0663691
21
19.6052513
0
LINE
8
0
10
-13.0663691
20
19.6052513
11
-13.2052176
21
19.8869489
0
LINE
8
0
10
-13.2052176
20
19.8869489
11
-13.283042
21
20.0448399
0
LINE
8
0
10
-13.283042
20
20.0448399
11
-13.364266
21
20.3482119
0
LINE
8
0
10
-13.364266
20
20.3482119
11
-13.4097919
21
20.5182514
0
LINE
8
0
10
-13.4097919
20
20.5182514
11
-13.4302705
21
20.83164
0
LINE
8
0
10
-13.4302705
20
20.83164
11
-13.4417486
21
21.0072937
0
LINE
8
0
10
-13.4417486
20
21.0072937
11
-13.4006944
21
21.3186557
0
LINE
8
0
10
-13.4006944
20
21.3186557
11
-13.3776836
21
21.4931736
0
LINE
8
0
10
-13.3776836
20
21.4931736
11
-13.2766747
21
21.7905443
0
LINE
8
0
10
-13.2766747
20
21.7905443
11
-13.2200594
21
21.9572201
0
LINE
8
0
10
-13.2200594
20
21.9572201
11
-13.062977
21
22.2291701
0
LINE
8
0
10
-13.062977
20
22.2291701
11
-12.9749327
21
22.3815975
0
LINE
8
0
10
-12.9749327
20
22.3815975
11
-12.7678137
21
22.6176776
0
LINE
8
0
10
-12.7678137
20
22.6176776
11
-12.6517239
21
22.75
0
LINE
8
0
10
-12.6517239
20
22.75
11
-12.4025283
21
22.9411372
0
LINE
8
0
10
-12.4025283
20
22.9411372
11
-12.2628546
21
23.0482693
0
LINE
8
0
10
-12.2628546
20
23.0482693
11
-11.9811576
21
23.1871166
0
LINE
8
0
10
-11.9811576
20
23.1871166
11
-11.823267
21
23.2649403
0
LINE
8
0
10
-11.823267
20
23.2649403
11
-11.5198949
21
23.3461649
0
LINE
8
0
10
-11.5198949
20
23.3461649
11
-11.5198949
21
23.3461649
0
ENDSEC
0
EOF
