0
SECTION
2
ENTITIES
0
LINE
8
0
10
3.40226603
20
13.1730547
11
3.11055872
21
13.3415488
0
LINE
8
0
10
3.11055872
20
13.3415488
11
2.97788763
21
13.4181814
0
LINE
8
0
10
2.97788763
20
13.4181814
11
2.72465696
21
13.6403472
0
LINE
8
0
10
2.72465696
20
13.6403472
11
2.60948539
21
13.7413902
0
LINE
8
0
10
2.60948539
20
13.7413902
11
-1.66376819
21
18.3057011
0
LINE
8
0
10
-1.66376819
20
18.3057011
11
-11.0594797
21
28.3413677
0
LINE
8
0
10
-11.0594797
20
28.3413677
11
-11.2645027
21
28.6086676
0
LINE
8
0
10
-11.2645027
20
28.6086676
11
-11.357749
21
28.730238
0
LINE
8
0
10
-11.357749
20
28.730238
11
-11.506684
21
29.0324004
0
LINE
8
0
10
-11.506684
20
29.0324004
11
-11.5744209
21
29.1698265
0
LINE
8
0
10
-11.5744209
20
29.1698265
11
-11.6615464
21
29.495238
0
LINE
8
0
10
-11.6615464
20
29.495238
11
-11.7011719
21
29.6432381
0
LINE
8
0
10
-11.7011719
20
29.6432381
11
-11.7231381
21
29.9793937
0
LINE
8
0
10
-11.7231381
20
29.9793937
11
-11.7331285
21
30.1322803
0
LINE
8
0
10
-11.7331285
20
30.1322803
11
-11.6890919
21
30.4662623
0
LINE
8
0
10
-11.6890919
20
30.4662623
11
-11.6690636
21
30.6181602
0
LINE
8
0
10
-11.6690636
20
30.6181602
11
-11.5607159
21
30.9371344
0
LINE
8
0
10
-11.5607159
20
30.9371344
11
-11.5114384
21
31.0822067
0
LINE
8
0
10
-11.5114384
20
31.0822067
11
-11.3429449
21
31.3739134
0
LINE
8
0
10
-11.3429449
20
31.3739134
11
-11.2663126
21
31.5065842
0
LINE
8
0
10
-11.2663126
20
31.5065842
11
-11.0441468
21
31.759815
0
LINE
8
0
10
-11.0441468
20
31.759815
11
-10.9431038
21
31.8749866
0
LINE
8
0
10
-10.9431038
20
31.8749866
11
-10.6758039
21
32.0800096
0
LINE
8
0
10
-10.6758039
20
32.0800096
11
-10.5542336
21
32.1732559
0
LINE
8
0
10
-10.5542336
20
32.1732559
11
-10.2520718
21
32.3221902
0
LINE
8
0
10
-10.2520718
20
32.3221902
11
-10.114646
21
32.3899269
0
LINE
8
0
10
-10.114646
20
32.3899269
11
-9.78923446
21
32.4770524
0
LINE
8
0
10
-9.78923446
20
32.4770524
11
-9.6412344
21
32.5166779
0
LINE
8
0
10
-9.6412344
20
32.5166779
11
-9.30507872
21
32.5386434
0
LINE
8
0
10
-9.30507872
20
32.5386434
11
-9.15219212
21
32.5486336
0
LINE
8
0
10
-9.15219212
20
32.5486336
11
-8.81821018
21
32.5045975
0
LINE
8
0
10
-8.81821018
20
32.5045975
11
-8.66631222
21
32.4845695
0
LINE
8
0
10
-8.66631222
20
32.4845695
11
-8.34733804
21
32.3762232
0
LINE
8
0
10
-8.34733804
20
32.3762232
11
-8.20226574
21
32.3269463
0
LINE
8
0
10
-8.20226574
20
32.3269463
11
-7.91055876
21
32.1584508
0
LINE
8
0
10
-7.91055876
20
32.1584508
11
-7.77788782
21
32.0818176
0
LINE
8
0
10
-7.77788782
20
32.0818176
11
-7.52465699
21
31.8596525
0
LINE
8
0
10
-7.52465699
20
31.8596525
11
-7.40948534
21
31.7586098
0
LINE
8
0
10
-7.40948534
20
31.7586098
11
-3.13623169
21
27.1942989
0
LINE
8
0
10
-3.13623169
20
27.1942989
11
6.25948
21
17.1586323
0
LINE
8
0
10
6.25948
20
17.1586323
11
6.46450266
21
16.8913324
0
LINE
8
0
10
6.46450266
20
16.8913324
11
6.55774879
21
16.769762
0
LINE
8
0
10
6.55774879
20
16.769762
11
6.7066841
21
16.4675996
0
LINE
8
0
10
6.7066841
20
16.4675996
11
6.77442122
21
16.3301735
0
LINE
8
0
10
6.77442122
20
16.3301735
11
6.86154605
21
16.0047626
0
LINE
8
0
10
6.86154605
20
16.0047626
11
6.90117121
21
15.8567629
0
LINE
8
0
10
6.90117121
20
15.8567629
11
6.92313744
21
15.5206066
0
LINE
8
0
10
6.92313744
20
15.5206066
11
6.93312788
21
15.3677197
0
LINE
8
0
10
6.93312788
20
15.3677197
11
6.88909151
21
15.0337377
0
LINE
8
0
10
6.88909151
20
15.0337377
11
6.86906338
21
14.8818398
0
LINE
8
0
10
6.86906338
20
14.8818398
11
6.76071601
21
14.5628662
0
LINE
8
0
10
6.76071601
20
14.5628662
11
6.71143866
21
14.4177942
0
LINE
8
0
10
6.71143866
20
14.4177942
11
6.54294455
21
14.1260869
0
LINE
8
0
10
6.54294455
20
14.1260869
11
6.46631193
21
13.9934158
0
LINE
8
0
10
6.46631193
20
13.9934158
11
6.24414645
21
13.740185
0
LINE
8
0
10
6.24414645
20
13.740185
11
6.1431036
21
13.6250134
0
LINE
8
0
10
6.1431036
20
13.6250134
11
5.87580373
21
13.419991
0
LINE
8
0
10
5.87580373
20
13.419991
11
5.75423336
21
13.326745
0
LINE
8
0
10
5.75423336
20
13.326745
11
5.45207195
21
13.1778094
0
LINE
8
0
10
5.45207195
20
13.1778094
11
5.31464624
21
13.1100721
0
LINE
8
0
10
5.31464624
20
13.1100721
11
4.98923474
21
13.0229473
0
LINE
8
0
10
4.98923474
20
13.0229473
11
4.84123468
21
12.9833221
0
LINE
8
0
10
4.84123468
20
12.9833221
11
4.50507868
21
12.9613559
0
LINE
8
0
10
4.50507868
20
12.9613559
11
4.35219193
21
12.9513655
0
LINE
8
0
10
4.35219193
20
12.9513655
11
4.01820983
21
12.9954022
0
LINE
8
0
10
4.01820983
20
12.9954022
11
3.86631179
21
13.0154305
0
LINE
8
0
10
3.86631179
20
13.0154305
11
3.54733811
21
13.1237775
0
LINE
8
0
10
3.54733811
20
13.1237775
11
3.40226603
21
13.1730547
0
LINE
8
0
10
3.40226603
20
13.1730547
11
3.40226603
21
13.1730547
0
LINE
8
0
10
12.1267469
20
46.5
11
11.9553987
21
46.5
0
LINE
8
0
10
11.9553987
20
46.5
11
11.8127711
21
46.5
0
LINE
8
0
10
11.8127711
20
46.5
11
11.711414
21
46.5
0
LINE
8
0
10
11.711414
20
46.5
11
11.6577835
21
46.5
0
LINE
8
0
10
11.6577835
20
46.5
11
4.11399658
21
46.5
0
LINE
8
0
10
4.11399658
20
46.5
11
3.68473934
21
46.5
0
LINE
8
0
10
3.68473934
20
46.5
11
-12.7191623
21
46.5
0
LINE
8
0
10
-12.7191623
20
46.5
11
-12.8022504
21
46.5
0
LINE
8
0
10
-12.8022504
20
46.5
11
-12.9351138
21
46.5
0
LINE
8
0
10
-12.9351138
20
46.5
11
-13.106462
21
46.5
0
LINE
8
0
10
-13.106462
20
46.5
11
-13.2995382
21
46.5
0
LINE
8
0
10
-13.2995382
20
46.5
11
-13.4952853
21
46.5
0
LINE
8
0
10
-13.4952853
20
46.5
11
-13.6759459
21
46.5
0
LINE
8
0
10
-13.6759459
20
46.5
11
-13.8277906
21
46.5
0
LINE
8
0
10
-13.8277906
20
46.5
11
-13.9422794
21
46.5
0
LINE
8
0
10
-13.9422794
20
46.5
11
-16.3662707
21
46.5
0
LINE
8
0
10
-16.3662707
20
46.5
11
-17.8756888
21
46.5
0
LINE
8
0
10
-17.8756888
20
46.5
11
-18.5499992
21
46.5
0
LINE
8
0
10
-18.5499992
20
46.5
11
-18.5499992
21
45.499399
0
LINE
8
0
10
-18.5499992
20
45.499399
11
-18.5499992
21
45.446743
0
LINE
8
0
10
-18.5499992
20
45.446743
11
-18.5499992
21
45.3378155
0
LINE
8
0
10
-18.5499992
20
45.3378155
11
-18.5499992
21
45.1752615
0
LINE
8
0
10
-18.5499992
20
45.1752615
11
-18.5499992
21
44.9662267
0
LINE
8
0
10
-18.5499992
20
44.9662267
11
-18.5499992
21
42.5291759
0
LINE
8
0
10
-18.5499992
20
42.5291759
11
-18.5499992
21
42.4061693
0
LINE
8
0
10
-18.5499992
20
42.4061693
11
-18.5499992
21
42.2547533
0
LINE
8
0
10
-18.5499992
20
42.2547533
11
-18.5499992
21
41.0091286
0
LINE
8
0
10
-18.5499992
20
41.0091286
11
-18.5499992
21
40.8879488
0
LINE
8
0
10
-18.5499992
20
40.8879488
11
-18.5499992
21
40.7584013
0
LINE
8
0
10
-18.5499992
20
40.7584013
11
-18.5499992
21
40.6320412
0
LINE
8
0
10
-18.5499992
20
40.6320412
11
-18.5499992
21
40.5192151
0
LINE
8
0
10
-18.5499992
20
40.5192151
11
-18.5499992
21
40.1458315
0
LINE
8
0
10
-18.5499992
20
40.1458315
11
-18.5499992
21
36.9640489
0
LINE
8
0
10
-18.5499992
20
36.9640489
11
-18.5499992
21
36.2808232
0
LINE
8
0
10
-18.5499992
20
36.2808232
11
-18.5499992
21
34.3390844
0
LINE
8
0
10
-18.5499992
20
34.3390844
11
-18.5499992
21
10.1452364
0
LINE
8
0
10
-18.5499992
20
10.1452364
11
-18.5499992
21
7.87649365
0
LINE
8
0
10
-18.5499992
20
7.87649365
11
-18.5499992
21
5.66002538
0
LINE
8
0
10
-18.5499992
20
5.66002538
11
-18.5499992
21
4.70288916
0
LINE
8
0
10
-18.5499992
20
4.70288916
11
-18.5499992
21
4.58864501
0
LINE
8
0
10
-18.5499992
20
4.58864501
11
-18.5499992
21
3.37477705
0
LINE
8
0
10
-18.5499992
20
3.37477705
11
-18.5499992
21
3.2327834
0
LINE
8
0
10
-18.5499992
20
3.2327834
11
-18.5499992
21
3.12201203
0
LINE
8
0
10
-18.5499992
20
3.12201203
11
-18.5499992
21
0.695724946
0
LINE
8
0
10
-18.5499992
20
0.695724946
11
-18.5499992
21
0.501320129
0
LINE
8
0
10
-18.5499992
20
0.501320129
11
-18.5499992
21
0.356689346
0
LINE
8
0
10
-18.5499992
20
0.356689346
11
-18.5499992
21
0.267213272
0
LINE
8
0
10
-18.5499992
20
0.267213272
11
-18.5499992
21
-0.571081696
0
LINE
8
0
10
-18.5499992
20
-0.571081696
11
-18.5499992
21
-0.623562834
0
LINE
8
0
10
-18.5499992
20
-0.623562834
11
-18.5499992
21
-0.640646859
0
LINE
8
0
10
-18.5499992
20
-0.640646859
11
-18.5499992
21
-1.10000002
0
LINE
8
0
10
-18.5499992
20
-1.10000002
11
-16.3662707
21
-1.10000002
0
LINE
8
0
10
-16.3662707
20
-1.10000002
11
-13.9422794
21
-1.10000002
0
LINE
8
0
10
-13.9422794
20
-1.10000002
11
-13.8277906
21
-1.10000002
0
LINE
8
0
10
-13.8277906
20
-1.10000002
11
-13.6759459
21
-1.10000002
0
LINE
8
0
10
-13.6759459
20
-1.10000002
11
-13.4952853
21
-1.10000002
0
LINE
8
0
10
-13.4952853
20
-1.10000002
11
-13.2995382
21
-1.10000002
0
LINE
8
0
10
-13.2995382
20
-1.10000002
11
-13.106462
21
-1.10000002
0
LINE
8
0
10
-13.106462
20
-1.10000002
11
-12.9351138
21
-1.10000002
0
LINE
8
0
10
-12.9351138
20
-1.10000002
11
-12.8022504
21
-1.10000002
0
LINE
8
0
10
-12.8022504
20
-1.10000002
11
-12.7191623
21
-1.10000002
0
LINE
8
0
10
-12.7191623
20
-1.10000002
11
3.68473934
21
-1.10000002
0
LINE
8
0
10
3.68473934
20
-1.10000002
11
4.11399658
21
-1.10000002
0
LINE
8
0
10
4.11399658
20
-1.10000002
11
11.6577835
21
-1.10000002
0
LINE
8
0
10
11.6577835
20
-1.10000002
11
11.711414
21
-1.10000002
0
LINE
8
0
10
11.711414
20
-1.10000002
11
11.8127711
21
-1.10000002
0
LINE
8
0
10
11.8127711
20
-1.10000002
11
11.9553987
21
-1.10000002
0
LINE
8
0
10
11.9553987
20
-1.10000002
11
12.1267469
21
-1.10000002
0
LINE
8
0
10
12.1267469
20
-1.10000002
11
12.3100589
21
-1.10000002
0
LINE
8
0
10
12.3100589
20
-1.10000002
11
12.4875369
21
-1.10000002
0
LINE
8
0
10
12.4875369
20
-1.10000002
11
12.643611
21
-1.10000002
0
LINE
8
0
10
12.643611
20
-1.10000002
11
12.7671549
21
-1.10000002
0
LINE
8
0
10
12.7671549
20
-1.10000002
11
12.8521647
21
-1.10000002
0
LINE
8
0
10
12.8521647
20
-1.10000002
11
13.75
21
-1.10000002
0
LINE
8
0
10
13.75
20
-1.10000002
11
13.75
21
1.33912924
0
LINE
8
0
10
13.75
20
1.33912924
11
13.75
21
2.85958188
0
LINE
8
0
10
13.75
20
2.85958188
11
13.75
21
21.9025974
0
LINE
8
0
10
13.75
20
21.9025974
11
13.75
21
42.6004118
0
LINE
8
0
10
13.75
20
42.6004118
11
13.75
21
44.1086968
0
LINE
8
0
10
13.75
20
44.1086968
11
13.75
21
46.5
0
LINE
8
0
10
13.75
20
46.5
11
12.8521647
21
46.5
0
LINE
8
0
10
12.8521647
20
46.5
11
12.7671549
21
46.5
0
LINE
8
0
10
12.7671549
20
46.5
11
12.643611
21
46.5
0
LINE
8
0
10
12.643611
20
46.5
11
12.4875369
21
46.5
0
LINE
8
0
10
12.4875369
20
46.5
11
12.3100589
21
46.5
0
LINE
8
0
10
12.3100589
20
46.5
11
12.1267469
21
46.5
0
LINE
8
0
10
12.1267469
20
46.5
11
12.1267469
21
46.5
0
LINE
8
0
10
-2.14011359
20
29.8347607
11
-2.04686753
21
29.7131903
0
LINE
8
0
10
-2.04686753
20
29.7131903
11
-1.84184504
21
29.4458904
0
LINE
8
0
10
-1.84184504
20
29.4458904
11
2.85601081
21
24.4280565
0
LINE
8
0
10
2.85601081
20
24.4280565
11
4.99263763
21
22.1459007
0
LINE
8
0
10
4.99263763
20
22.1459007
11
5.10780928
21
22.044858
0
LINE
8
0
10
5.10780928
20
22.044858
11
5.36104012
21
21.8226929
0
LINE
8
0
10
5.36104012
20
21.8226929
11
5.49371121
21
21.7460602
0
LINE
8
0
10
5.49371121
20
21.7460602
11
5.78541851
21
21.5775661
0
LINE
8
0
10
5.78541851
20
21.5775661
11
5.93049052
21
21.5282892
0
LINE
8
0
10
5.93049052
20
21.5282892
11
6.24946404
21
21.4199429
0
LINE
8
0
10
6.24946404
20
21.4199429
11
6.40136215
21
21.3999143
0
LINE
8
0
10
6.40136215
20
21.3999143
11
6.73534441
21
21.3558769
0
LINE
8
0
10
6.73534441
20
21.3558769
11
6.88823116
21
21.3658677
0
LINE
8
0
10
6.88823116
20
21.3658677
11
7.22438717
21
21.3878345
0
LINE
8
0
10
7.22438717
20
21.3878345
11
7.37238723
21
21.4274594
0
LINE
8
0
10
7.37238723
20
21.4274594
11
7.69779873
21
21.5145836
0
LINE
8
0
10
7.69779873
20
21.5145836
11
7.83522459
21
21.5823208
0
LINE
8
0
10
7.83522459
20
21.5823208
11
8.13738632
21
21.7312565
0
LINE
8
0
10
8.13738632
20
21.7312565
11
8.25895639
21
21.8245028
0
LINE
8
0
10
8.25895639
20
21.8245028
11
8.52625561
21
22.0295258
0
LINE
8
0
10
8.52625561
20
22.0295258
11
8.6272986
21
22.1446968
0
LINE
8
0
10
8.6272986
20
22.1446968
11
8.84946442
21
22.3979263
0
LINE
8
0
10
8.84946442
20
22.3979263
11
8.92609704
21
22.5305977
0
LINE
8
0
10
8.92609704
20
22.5305977
11
9.09459114
21
22.8223057
0
LINE
8
0
10
9.09459114
20
22.8223057
11
9.14386834
21
22.967378
0
LINE
8
0
10
9.14386834
20
22.967378
11
9.25221539
21
23.2863522
0
LINE
8
0
10
9.25221539
20
23.2863522
11
9.27224367
21
23.4382501
0
LINE
8
0
10
9.27224367
20
23.4382501
11
9.31628036
21
23.7722321
0
LINE
8
0
10
9.31628036
20
23.7722321
11
9.30628993
21
23.9251187
0
LINE
8
0
10
9.30628993
20
23.9251187
11
9.28432369
21
24.2612743
0
LINE
8
0
10
9.28432369
20
24.2612743
11
9.24469854
21
24.4092744
0
LINE
8
0
10
9.24469854
20
24.4092744
11
9.1575737
21
24.7346859
0
LINE
8
0
10
9.1575737
20
24.7346859
11
9.08983644
21
24.8721115
0
LINE
8
0
10
9.08983644
20
24.8721115
11
8.9409008
21
25.1742725
0
LINE
8
0
10
8.9409008
20
25.1742725
11
8.84765481
21
25.2958429
0
LINE
8
0
10
8.84765481
20
25.2958429
11
8.64263248
21
25.5631428
0
LINE
8
0
10
8.64263248
20
25.5631428
11
3.94477656
21
30.5809767
0
LINE
8
0
10
3.94477656
20
30.5809767
11
1.8081497
21
32.8631325
0
LINE
8
0
10
1.8081497
20
32.8631325
11
1.69297812
21
32.9641752
0
LINE
8
0
10
1.69297812
20
32.9641752
11
1.43974745
21
33.1863403
0
LINE
8
0
10
1.43974745
20
33.1863403
11
1.3070764
21
33.2629736
0
LINE
8
0
10
1.3070764
20
33.2629736
11
1.01536918
21
33.431469
0
LINE
8
0
10
1.01536918
20
33.431469
11
0.870297077
21
33.4807459
0
LINE
8
0
10
0.870297077
20
33.4807459
11
0.551323354
21
33.5890923
0
LINE
8
0
10
0.551323354
20
33.5890923
11
0.399425259
21
33.6091202
0
LINE
8
0
10
0.399425259
20
33.6091202
11
0.0654430464
21
33.6531563
0
LINE
8
0
10
0.0654430464
20
33.6531563
11
-0.0874436923
21
33.6431661
0
LINE
8
0
10
-0.0874436923
20
33.6431661
11
-0.42359966
21
33.6212006
0
LINE
8
0
10
-0.42359966
20
33.6212006
11
-0.571599682
21
33.5815751
0
LINE
8
0
10
-0.571599682
20
33.5815751
11
-0.897011101
21
33.4944496
0
LINE
8
0
10
-0.897011101
20
33.4944496
11
-1.03443687
21
33.426713
0
LINE
8
0
10
-1.03443687
20
33.426713
11
-1.3365984
21
33.2777786
0
LINE
8
0
10
-1.3365984
20
33.2777786
11
-1.45816869
21
33.1845317
0
LINE
8
0
10
-1.45816869
20
33.1845317
11
-1.7254684
21
32.9795074
0
LINE
8
0
10
-1.7254684
20
32.9795074
11
-1.82651132
21
32.8643364
0
LINE
8
0
10
-1.82651132
20
32.8643364
11
-2.04867697
21
32.6111069
0
LINE
8
0
10
-2.04867697
20
32.6111069
11
-2.12530959
21
32.4784361
0
LINE
8
0
10
-2.12530959
20
32.4784361
11
-2.29380369
21
32.1867294
0
LINE
8
0
10
-2.29380369
20
32.1867294
11
-2.34308089
21
32.0416571
0
LINE
8
0
10
-2.34308089
20
32.0416571
11
-2.45142794
21
31.722683
0
LINE
8
0
10
-2.45142794
20
31.722683
11
-2.47145622
21
31.570785
0
LINE
8
0
10
-2.47145622
20
31.570785
11
-2.51549292
21
31.2368031
0
LINE
8
0
10
-2.51549292
20
31.2368031
11
-2.50550248
21
31.0839159
0
LINE
8
0
10
-2.50550248
20
31.0839159
11
-2.48353624
21
30.7477589
0
LINE
8
0
10
-2.48353624
20
30.7477589
11
-2.44391109
21
30.5997594
0
LINE
8
0
10
-2.44391109
20
30.5997594
11
-2.35678625
21
30.2743492
0
LINE
8
0
10
-2.35678625
20
30.2743492
11
-2.28904907
21
30.1369231
0
LINE
8
0
10
-2.28904907
20
30.1369231
11
-2.14011359
21
29.8347607
0
LINE
8
0
10
-2.14011359
20
29.8347607
11
-2.14011359
21
29.8347607
0
LINE
8
0
10
-2.07860088
20
15.0663345
11
-1.98535478
21
14.9447641
0
LINE
8
0
10
-1.98535478
20
14.9447641
11
-1.83641931
21
14.6426024
0
LINE
8
0
10
-1.83641931
20
14.6426024
11
-1.76868212
21
14.5051765
0
LINE
8
0
10
-1.76868212
20
14.5051765
11
-1.6815572
21
14.179765
0
LINE
8
0
10
-1.6815572
20
14.179765
11
-1.64193201
21
14.031765
0
LINE
8
0
10
-1.64193201
20
14.031765
11
-1.61996586
21
13.6956093
0
LINE
8
0
10
-1.61996586
20
13.6956093
11
-1.60997546
21
13.5427227
0
LINE
8
0
10
-1.60997546
20
13.5427227
11
-1.65401207
21
13.2087401
0
LINE
8
0
10
-1.65401207
20
13.2087401
11
-1.67404032
21
13.0568419
0
LINE
8
0
10
-1.67404032
20
13.0568419
11
-1.78238752
21
12.7378683
0
LINE
8
0
10
-1.78238752
20
12.7378683
11
-1.8316648
21
12.5927963
0
LINE
8
0
10
-1.8316648
20
12.5927963
11
-2.00015874
21
12.301089
0
LINE
8
0
10
-2.00015874
20
12.301089
11
-2.07679129
21
12.1684179
0
LINE
8
0
10
-2.07679129
20
12.1684179
11
-2.2989571
21
11.9151878
0
LINE
8
0
10
-2.2989571
20
11.9151878
11
-2.4000001
21
11.8000164
0
LINE
8
0
10
-2.4000001
20
11.8000164
11
-2.6672998
21
11.5949934
0
LINE
8
0
10
-2.6672998
20
11.5949934
11
-2.7888701
21
11.5017471
0
LINE
8
0
10
-2.7888701
20
11.5017471
11
-3.0910315
21
11.3528121
0
LINE
8
0
10
-3.0910315
20
11.3528121
11
-3.22845721
21
11.2850752
0
LINE
8
0
10
-3.22845721
20
11.2850752
11
-3.55386871
21
11.1979497
0
LINE
8
0
10
-3.55386871
20
11.1979497
11
-3.70186877
21
11.1583242
0
LINE
8
0
10
-3.70186877
20
11.1583242
11
-4.03802461
21
11.136358
0
LINE
8
0
10
-4.03802461
20
11.136358
11
-4.19091129
21
11.1263676
0
LINE
8
0
10
-4.19091129
20
11.1263676
11
-4.52489355
21
11.1704043
0
LINE
8
0
10
-4.52489355
20
11.1704043
11
-4.67679167
21
11.1904325
0
LINE
8
0
10
-4.67679167
20
11.1904325
11
-4.99576551
21
11.2987802
0
LINE
8
0
10
-4.99576551
20
11.2987802
11
-5.14083767
21
11.3480577
0
LINE
8
0
10
-5.14083767
20
11.3480577
11
-5.43254497
21
11.5165512
0
LINE
8
0
10
-5.43254497
20
11.5165512
11
-5.56521606
21
11.5931835
0
LINE
8
0
10
-5.56521606
20
11.5931835
11
-5.81844657
21
11.8153493
0
LINE
8
0
10
-5.81844657
20
11.8153493
11
-5.93361807
21
11.9163923
0
LINE
8
0
10
-5.93361807
20
11.9163923
11
-8.07024489
21
14.1985478
0
LINE
8
0
10
-8.07024489
20
14.1985478
11
-12.7681007
21
19.2163811
0
LINE
8
0
10
-12.7681007
20
19.2163811
11
-12.9731231
21
19.4836809
0
LINE
8
0
10
-12.9731231
20
19.4836809
11
-13.0663691
21
19.6052513
0
LINE
8
0
10
-13.0663691
20
19.6052513
11
-13.2153047
21
19.9074137
0
LINE
8
0
10
-13.2153047
20
19.9074137
11
-13.283042
21
20.0448399
0
LINE
8
0
10
-13.283042
20
20.0448399
11
-13.3701668
21
20.3702514
0
LINE
8
0
10
-13.3701668
20
20.3702514
11
-13.4097919
21
20.5182514
0
LINE
8
0
10
-13.4097919
20
20.5182514
11
-13.4317582
21
20.8544071
0
LINE
8
0
10
-13.4317582
20
20.8544071
11
-13.4417486
21
21.0072937
0
LINE
8
0
10
-13.4417486
20
21.0072937
11
-13.3977119
21
21.3412756
0
LINE
8
0
10
-13.3977119
20
21.3412756
11
-13.3776836
21
21.4931736
0
LINE
8
0
10
-13.3776836
20
21.4931736
11
-13.2693366
21
21.8121478
0
LINE
8
0
10
-13.2693366
20
21.8121478
11
-13.2200594
21
21.9572201
0
LINE
8
0
10
-13.2200594
20
21.9572201
11
-13.0515653
21
22.2489267
0
LINE
8
0
10
-13.0515653
20
22.2489267
11
-12.9749327
21
22.3815975
0
LINE
8
0
10
-12.9749327
20
22.3815975
11
-12.7527669
21
22.6348284
0
LINE
8
0
10
-12.7527669
20
22.6348284
11
-12.6517239
21
22.75
0
LINE
8
0
10
-12.6517239
20
22.75
11
-12.3844246
21
22.955023
0
LINE
8
0
10
-12.3844246
20
22.955023
11
-12.2628546
21
23.0482693
0
LINE
8
0
10
-12.2628546
20
23.0482693
11
-11.9606928
21
23.1972036
0
LINE
8
0
10
-11.9606928
20
23.1972036
11
-11.823267
21
23.2649403
0
LINE
8
0
10
-11.823267
20
23.2649403
11
-11.4978555
21
23.3520658
0
LINE
8
0
10
-11.4978555
20
23.3520658
11
-11.3498554
21
23.3916912
0
LINE
8
0
10
-11.3498554
20
23.3916912
11
-11.0136997
21
23.4136581
0
LINE
8
0
10
-11.0136997
20
23.4136581
11
-10.8608131
21
23.4236488
0
LINE
8
0
10
-10.8608131
20
23.4236488
11
-10.5268306
21
23.3796115
0
LINE
8
0
10
-10.5268306
20
23.3796115
11
-10.3749323
21
23.3595829
0
LINE
8
0
10
-10.3749323
20
23.3595829
11
-10.0559588
21
23.2512352
0
LINE
8
0
10
-10.0559588
20
23.2512352
11
-9.91088676
21
23.2019577
0
LINE
8
0
10
-9.91088676
20
23.2019577
11
-9.61917946
21
23.0334649
0
LINE
8
0
10
-9.61917946
20
23.0334649
11
-9.48650837
21
22.9568329
0
LINE
8
0
10
-9.48650837
20
22.9568329
11
-9.23327754
21
22.7346664
0
LINE
8
0
10
-9.23327754
20
22.7346664
11
-9.11810589
21
22.6336231
0
LINE
8
0
10
-9.11810589
20
22.6336231
11
-6.98147914
21
20.3514677
0
LINE
8
0
10
-6.98147914
20
20.3514677
11
-2.28362346
21
15.3336344
0
LINE
8
0
10
-2.28362346
20
15.3336344
11
-2.07860088
21
15.0663345
0
LINE
8
0
10
-2.07860088
20
15.0663345
11
-2.07860088
21
15.0663345
0
ENDSEC
0
EOF
