0
SECTION
2
ENTITIES
0
LINE
8
0
10
3.40226603
20
13.1730547
11
3.5257347
21
13.1311156
0
LINE
8
0
10
3.5257347
20
13.1311156
11
3.86631179
21
13.0154305
0
LINE
8
0
10
3.86631179
20
13.0154305
11
3.99558993
21
12.9983847
0
LINE
8
0
10
3.99558993
20
12.9983847
11
4.35219193
21
12.9513655
0
LINE
8
0
10
4.35219193
20
12.9513655
11
4.48231155
21
12.9598682
0
LINE
8
0
10
4.48231155
20
12.9598682
11
4.84123468
21
12.9833221
0
LINE
8
0
10
4.84123468
20
12.9833221
11
4.96719531
21
13.0170465
0
LINE
8
0
10
4.96719531
20
13.0170465
11
5.31464624
21
13.1100721
0
LINE
8
0
10
5.31464624
20
13.1100721
11
5.4316072
21
13.1677223
0
LINE
8
0
10
5.4316072
20
13.1677223
11
5.75423336
21
13.326745
0
LINE
8
0
10
5.75423336
20
13.326745
11
5.85770008
21
13.4061053
0
LINE
8
0
10
5.85770008
20
13.4061053
11
6.1431036
21
13.6250134
0
LINE
8
0
10
6.1431036
20
13.6250134
11
6.22909965
21
13.7230342
0
LINE
8
0
10
6.22909965
20
13.7230342
11
6.46631193
21
13.9934158
0
LINE
8
0
10
6.46631193
20
13.9934158
11
6.53153281
21
14.1063302
0
LINE
8
0
10
6.53153281
20
14.1063302
11
6.71143866
21
14.4177942
0
LINE
8
0
10
6.71143866
20
14.4177942
11
6.75337787
21
14.5412628
0
LINE
8
0
10
6.75337787
20
14.5412628
11
6.86906338
21
14.8818398
0
LINE
8
0
10
6.86906338
20
14.8818398
11
6.88610902
21
15.0111178
0
LINE
8
0
10
6.88610902
20
15.0111178
11
6.93312788
21
15.3677197
0
LINE
8
0
10
6.93312788
20
15.3677197
11
6.92462517
21
15.4978394
0
LINE
8
0
10
6.92462517
20
15.4978394
11
6.90117121
21
15.8567629
0
LINE
8
0
10
6.90117121
20
15.8567629
11
6.86744683
21
15.9827233
0
LINE
8
0
10
6.86744683
20
15.9827233
11
6.77442122
21
16.3301735
0
LINE
8
0
10
6.77442122
20
16.3301735
11
6.71677118
21
16.4471348
0
LINE
8
0
10
6.71677118
20
16.4471348
11
6.55774879
21
16.769762
0
LINE
8
0
10
6.55774879
20
16.769762
11
6.47838841
21
16.8732288
0
LINE
8
0
10
6.47838841
20
16.8732288
11
6.25948
21
17.1586323
0
LINE
8
0
10
6.25948
20
17.1586323
11
-3.77258324
21
27.8739932
0
LINE
8
0
10
-3.77258324
20
27.8739932
11
-7.40948534
21
31.7586098
0
LINE
8
0
10
-7.40948534
20
31.7586098
11
-7.5075062
21
31.8446057
0
LINE
8
0
10
-7.5075062
20
31.8446057
11
-7.77788782
21
32.0818176
0
LINE
8
0
10
-7.77788782
20
32.0818176
11
-7.89080207
21
32.147039
0
LINE
8
0
10
-7.89080207
20
32.147039
11
-8.20226574
21
32.3269463
0
LINE
8
0
10
-8.20226574
20
32.3269463
11
-8.3257346
21
32.3688851
0
LINE
8
0
10
-8.3257346
20
32.3688851
11
-8.66631222
21
32.4845695
0
LINE
8
0
10
-8.66631222
20
32.4845695
11
-8.7955903
21
32.5016151
0
LINE
8
0
10
-8.7955903
20
32.5016151
11
-9.15219212
21
32.5486336
0
LINE
8
0
10
-9.15219212
20
32.5486336
11
-9.28231161
21
32.5401311
0
LINE
8
0
10
-9.28231161
20
32.5401311
11
-9.6412344
21
32.5166779
0
LINE
8
0
10
-9.6412344
20
32.5166779
11
-9.76719503
21
32.4829532
0
LINE
8
0
10
-9.76719503
20
32.4829532
11
-10.114646
21
32.3899269
0
LINE
8
0
10
-10.114646
20
32.3899269
11
-10.231607
21
32.3322773
0
LINE
8
0
10
-10.231607
20
32.3322773
11
-10.5542336
21
32.1732559
0
LINE
8
0
10
-10.5542336
20
32.1732559
11
-10.6577003
21
32.0938954
0
LINE
8
0
10
-10.6577003
20
32.0938954
11
-10.9431038
21
31.8749866
0
LINE
8
0
10
-10.9431038
20
31.8749866
11
-11.0291
21
31.7769658
0
LINE
8
0
10
-11.0291
20
31.7769658
11
-11.2663126
21
31.5065842
0
LINE
8
0
10
-11.2663126
20
31.5065842
11
-11.3315332
21
31.39367
0
LINE
8
0
10
-11.3315332
20
31.39367
11
-11.5114384
21
31.0822067
0
LINE
8
0
10
-11.5114384
20
31.0822067
11
-11.5533777
21
30.9587379
0
LINE
8
0
10
-11.5533777
20
30.9587379
11
-11.6690636
21
30.6181602
0
LINE
8
0
10
-11.6690636
20
30.6181602
11
-11.6861093
21
30.4888822
0
LINE
8
0
10
-11.6861093
20
30.4888822
11
-11.7331285
21
30.1322803
0
LINE
8
0
10
-11.7331285
20
30.1322803
11
-11.7246258
21
30.0021609
0
LINE
8
0
10
-11.7246258
20
30.0021609
11
-11.7011719
21
29.6432381
0
LINE
8
0
10
-11.7011719
20
29.6432381
11
-11.6674472
21
29.5172774
0
LINE
8
0
10
-11.6674472
20
29.5172774
11
-11.5744209
21
29.1698265
0
LINE
8
0
10
-11.5744209
20
29.1698265
11
-11.516771
21
29.0528652
0
LINE
8
0
10
-11.516771
20
29.0528652
11
-11.357749
21
28.730238
0
LINE
8
0
10
-11.357749
20
28.730238
11
-11.2783885
21
28.6267712
0
LINE
8
0
10
-11.2783885
20
28.6267712
11
-11.0594797
21
28.3413677
0
LINE
8
0
10
-11.0594797
20
28.3413677
11
-1.02741665
21
17.6260068
0
LINE
8
0
10
-1.02741665
20
17.6260068
11
2.60948539
21
13.7413902
0
LINE
8
0
10
2.60948539
20
13.7413902
11
2.70750619
21
13.655394
0
LINE
8
0
10
2.70750619
20
13.655394
11
2.97788763
21
13.4181814
0
LINE
8
0
10
2.97788763
20
13.4181814
11
3.09080201
21
13.3529605
0
LINE
8
0
10
3.09080201
20
13.3529605
11
3.40226603
21
13.1730547
0
LINE
8
0
10
3.40226603
20
13.1730547
11
3.40226603
21
13.1730547
0
LINE
8
0
10
-2.68540344
20
11.5811076
11
-2.4000001
21
11.8000164
0
LINE
8
0
10
-2.4000001
20
11.8000164
11
-2.31400392
21
11.898037
0
LINE
8
0
10
-2.31400392
20
11.898037
11
-2.07679129
21
12.1684179
0
LINE
8
0
10
-2.07679129
20
12.1684179
11
-2.01157047
21
12.2813323
0
LINE
8
0
10
-2.01157047
20
12.2813323
11
-1.8316648
21
12.5927963
0
LINE
8
0
10
-1.8316648
20
12.5927963
11
-1.78972565
21
12.7162649
0
LINE
8
0
10
-1.78972565
20
12.7162649
11
-1.67404032
21
13.0568419
0
LINE
8
0
10
-1.67404032
20
13.0568419
11
-1.65699458
21
13.1861202
0
LINE
8
0
10
-1.65699458
20
13.1861202
11
-1.60997546
21
13.5427227
0
LINE
8
0
10
-1.60997546
20
13.5427227
11
-1.61847814
21
13.6728422
0
LINE
8
0
10
-1.61847814
20
13.6728422
11
-1.64193201
21
14.031765
0
LINE
8
0
10
-1.64193201
20
14.031765
11
-1.67565642
21
14.1577256
0
LINE
8
0
10
-1.67565642
20
14.1577256
11
-1.76868212
21
14.5051765
0
LINE
8
0
10
-1.76868212
20
14.5051765
11
-1.82633222
21
14.6221376
0
LINE
8
0
10
-1.82633222
20
14.6221376
11
-1.98535478
21
14.9447641
0
LINE
8
0
10
-1.98535478
20
14.9447641
11
-2.06471514
21
15.0482309
0
LINE
8
0
10
-2.06471514
20
15.0482309
11
-2.28362346
21
15.3336344
0
LINE
8
0
10
-2.28362346
20
15.3336344
11
-7.2996549
21
20.6913149
0
LINE
8
0
10
-7.2996549
20
20.6913149
11
-9.11810589
21
22.6336231
0
LINE
8
0
10
-9.11810589
20
22.6336231
11
-9.21612675
21
22.7196196
0
LINE
8
0
10
-9.21612675
20
22.7196196
11
-9.48650837
21
22.9568329
0
LINE
8
0
10
-9.48650837
20
22.9568329
11
-9.59942274
21
23.0220533
0
LINE
8
0
10
-9.59942274
20
23.0220533
11
-9.91088676
21
23.2019577
0
LINE
8
0
10
-9.91088676
20
23.2019577
11
-10.0343554
21
23.243897
0
LINE
8
0
10
-10.0343554
20
23.243897
11
-10.3749323
21
23.3595829
0
LINE
8
0
10
-10.3749323
20
23.3595829
11
-10.5042106
21
23.3766289
0
LINE
8
0
10
-10.5042106
20
23.3766289
11
-10.8608131
21
23.4236488
0
LINE
8
0
10
-10.8608131
20
23.4236488
11
-10.9909326
21
23.4151459
0
LINE
8
0
10
-10.9909326
20
23.4151459
11
-11.3498554
21
23.3916912
0
LINE
8
0
10
-11.3498554
20
23.3916912
11
-11.4758161
21
23.3579666
0
LINE
8
0
10
-11.4758161
20
23.3579666
11
-11.823267
21
23.2649403
0
LINE
8
0
10
-11.823267
20
23.2649403
11
-11.9402281
21
23.2072906
0
LINE
8
0
10
-11.9402281
20
23.2072906
11
-12.2628546
21
23.0482693
0
LINE
8
0
10
-12.2628546
20
23.0482693
11
-12.366321
21
22.9689088
0
LINE
8
0
10
-12.366321
20
22.9689088
11
-12.6517239
21
22.75
0
LINE
8
0
10
-12.6517239
20
22.75
11
-12.73772
21
22.6519791
0
LINE
8
0
10
-12.73772
20
22.6519791
11
-12.9749327
21
22.3815975
0
LINE
8
0
10
-12.9749327
20
22.3815975
11
-13.0401535
21
22.2686834
0
LINE
8
0
10
-13.0401535
20
22.2686834
11
-13.2200594
21
21.9572201
0
LINE
8
0
10
-13.2200594
20
21.9572201
11
-13.2619985
21
21.8337512
0
LINE
8
0
10
-13.2619985
20
21.8337512
11
-13.3776836
21
21.4931736
0
LINE
8
0
10
-13.3776836
20
21.4931736
11
-13.3947294
21
21.3638955
0
LINE
8
0
10
-13.3947294
20
21.3638955
11
-13.4417486
21
21.0072937
0
LINE
8
0
10
-13.4417486
20
21.0072937
11
-13.4332459
21
20.8771742
0
LINE
8
0
10
-13.4332459
20
20.8771742
11
-13.4097919
21
20.5182514
0
LINE
8
0
10
-13.4097919
20
20.5182514
11
-13.3760676
21
20.3922908
0
LINE
8
0
10
-13.3760676
20
20.3922908
11
-13.283042
21
20.0448399
0
LINE
8
0
10
-13.283042
20
20.0448399
11
-13.2253918
21
19.9278785
0
LINE
8
0
10
-13.2253918
20
19.9278785
11
-13.0663691
21
19.6052513
0
LINE
8
0
10
-13.0663691
20
19.6052513
11
-12.9870088
21
19.5017846
0
LINE
8
0
10
-12.9870088
20
19.5017846
11
-12.7681007
21
19.2163811
0
LINE
8
0
10
-12.7681007
20
19.2163811
11
-7.75206912
21
13.8587006
0
LINE
8
0
10
-7.75206912
20
13.8587006
11
-5.93361807
21
11.9163923
0
LINE
8
0
10
-5.93361807
20
11.9163923
11
-5.83559733
21
11.8303961
0
LINE
8
0
10
-5.83559733
20
11.8303961
11
-5.56521606
21
11.5931835
0
LINE
8
0
10
-5.56521606
20
11.5931835
11
-5.45230169
21
11.5279629
0
LINE
8
0
10
-5.45230169
20
11.5279629
11
-5.14083767
21
11.3480577
0
LINE
8
0
10
-5.14083767
20
11.3480577
11
-5.01736893
21
11.3061184
0
LINE
8
0
10
-5.01736893
20
11.3061184
11
-4.67679167
21
11.1904325
0
LINE
8
0
10
-4.67679167
20
11.1904325
11
-4.54751346
21
11.1733868
0
LINE
8
0
10
-4.54751346
20
11.1733868
11
-4.19091129
21
11.1263676
0
LINE
8
0
10
-4.19091129
20
11.1263676
11
-4.06079173
21
11.1348703
0
LINE
8
0
10
-4.06079173
20
11.1348703
11
-3.70186877
21
11.1583242
0
LINE
8
0
10
-3.70186877
20
11.1583242
11
-3.57590814
21
11.1920489
0
LINE
8
0
10
-3.57590814
20
11.1920489
11
-3.22845721
21
11.2850752
0
LINE
8
0
10
-3.22845721
20
11.2850752
11
-3.11149625
21
11.3427251
0
LINE
8
0
10
-3.11149625
20
11.3427251
11
-2.7888701
21
11.5017471
0
LINE
8
0
10
-2.7888701
20
11.5017471
11
-2.68540344
21
11.5811076
0
LINE
8
0
10
-2.68540344
20
11.5811076
11
-2.68540344
21
11.5811076
0
LINE
8
0
10
1.7101289
20
32.9491284
11
1.8081497
21
32.8631325
0
LINE
8
0
10
1.8081497
20
32.8631325
11
3.62660078
21
30.920824
0
LINE
8
0
10
3.62660078
20
30.920824
11
8.64263248
21
25.5631428
0
LINE
8
0
10
8.64263248
20
25.5631428
11
8.86154054
21
25.2777393
0
LINE
8
0
10
8.86154054
20
25.2777393
11
8.9409008
21
25.1742725
0
LINE
8
0
10
8.9409008
20
25.1742725
11
9.09992353
21
24.8516467
0
LINE
8
0
10
9.09992353
20
24.8516467
11
9.1575737
21
24.7346859
0
LINE
8
0
10
9.1575737
20
24.7346859
11
9.25059932
21
24.387235
0
LINE
8
0
10
9.25059932
20
24.387235
11
9.28432369
21
24.2612743
0
LINE
8
0
10
9.28432369
20
24.2612743
11
9.30777765
21
23.9023516
0
LINE
8
0
10
9.30777765
20
23.9023516
11
9.31628036
21
23.7722321
0
LINE
8
0
10
9.31628036
20
23.7722321
11
9.26926116
21
23.4156302
0
LINE
8
0
10
9.26926116
20
23.4156302
11
9.25221539
21
23.2863522
0
LINE
8
0
10
9.25221539
20
23.2863522
11
9.13653023
21
22.9457745
0
LINE
8
0
10
9.13653023
20
22.9457745
11
9.09459114
21
22.8223057
0
LINE
8
0
10
9.09459114
20
22.8223057
11
8.91468529
21
22.510841
0
LINE
8
0
10
8.91468529
20
22.510841
11
8.84946442
21
22.3979263
0
LINE
8
0
10
8.84946442
20
22.3979263
11
8.61225179
21
22.1275461
0
LINE
8
0
10
8.61225179
20
22.1275461
11
8.52625561
21
22.0295258
0
LINE
8
0
10
8.52625561
20
22.0295258
11
8.24085279
21
21.810617
0
LINE
8
0
10
8.24085279
20
21.810617
11
8.13738632
21
21.7312565
0
LINE
8
0
10
8.13738632
20
21.7312565
11
7.81475982
21
21.5722338
0
LINE
8
0
10
7.81475982
20
21.5722338
11
7.69779873
21
21.5145836
0
LINE
8
0
10
7.69779873
20
21.5145836
11
7.3503478
21
21.4215587
0
LINE
8
0
10
7.3503478
20
21.4215587
11
7.22438717
21
21.3878345
0
LINE
8
0
10
7.22438717
20
21.3878345
11
6.86546403
21
21.3643799
0
LINE
8
0
10
6.86546403
20
21.3643799
11
6.73534441
21
21.3558769
0
LINE
8
0
10
6.73534441
20
21.3558769
11
6.37874224
21
21.4028968
0
LINE
8
0
10
6.37874224
20
21.4028968
11
6.24946404
21
21.4199429
0
LINE
8
0
10
6.24946404
20
21.4199429
11
5.90888712
21
21.5356273
0
LINE
8
0
10
5.90888712
20
21.5356273
11
5.78541851
21
21.5775661
0
LINE
8
0
10
5.78541851
20
21.5775661
11
5.47395449
21
21.757472
0
LINE
8
0
10
5.47395449
20
21.757472
11
5.36104012
21
21.8226929
0
LINE
8
0
10
5.36104012
20
21.8226929
11
5.0906585
21
22.0599048
0
LINE
8
0
10
5.0906585
20
22.0599048
11
4.99263763
21
22.1459007
0
LINE
8
0
10
4.99263763
20
22.1459007
11
3.17418658
21
24.0882093
0
LINE
8
0
10
3.17418658
20
24.0882093
11
-1.84184504
21
29.4458904
0
LINE
8
0
10
-1.84184504
20
29.4458904
11
-2.06075327
21
29.7312939
0
LINE
8
0
10
-2.06075327
20
29.7312939
11
-2.14011359
21
29.8347607
0
LINE
8
0
10
-2.14011359
20
29.8347607
11
-2.29913615
21
30.1573879
0
LINE
8
0
10
-2.29913615
20
30.1573879
11
-2.35678625
21
30.2743492
0
LINE
8
0
10
-2.35678625
20
30.2743492
11
-2.44981187
21
30.6217987
0
LINE
8
0
10
-2.44981187
20
30.6217987
11
-2.48353624
21
30.7477589
0
LINE
8
0
10
-2.48353624
20
30.7477589
11
-2.5069902
21
31.106683
0
LINE
8
0
10
-2.5069902
20
31.106683
11
-2.51549292
21
31.2368031
0
LINE
8
0
10
-2.51549292
20
31.2368031
11
-2.46847371
21
31.5934049
0
LINE
8
0
10
-2.46847371
20
31.5934049
11
-2.45142794
21
31.722683
0
LINE
8
0
10
-2.45142794
20
31.722683
11
-2.33574278
21
32.0632606
0
LINE
8
0
10
-2.33574278
20
32.0632606
11
-2.29380369
21
32.1867294
0
LINE
8
0
10
-2.29380369
20
32.1867294
11
-2.11389784
21
32.4981928
0
LINE
8
0
10
-2.11389784
20
32.4981928
11
-2.04867697
21
32.6111069
0
LINE
8
0
10
-2.04867697
20
32.6111069
11
-1.81146451
21
32.8814871
0
LINE
8
0
10
-1.81146451
20
32.8814871
11
-1.7254684
21
32.9795074
0
LINE
8
0
10
-1.7254684
20
32.9795074
11
-1.44006505
21
33.1984176
0
LINE
8
0
10
-1.44006505
20
33.1984176
11
-1.3365984
21
33.2777786
0
LINE
8
0
10
-1.3365984
20
33.2777786
11
-1.01397211
21
33.4368
0
LINE
8
0
10
-1.01397211
20
33.4368
11
-0.897011101
21
33.4944496
0
LINE
8
0
10
-0.897011101
20
33.4944496
11
-0.54956026
21
33.5874759
0
LINE
8
0
10
-0.54956026
20
33.5874759
11
-0.42359966
21
33.6212006
0
LINE
8
0
10
-0.42359966
20
33.6212006
11
-0.0646765644
21
33.6446538
0
LINE
8
0
10
-0.0646765644
20
33.6446538
11
0.0654430464
21
33.6531563
0
LINE
8
0
10
0.0654430464
20
33.6531563
11
0.422045163
21
33.6061378
0
LINE
8
0
10
0.422045163
20
33.6061378
11
0.551323354
21
33.5890923
0
LINE
8
0
10
0.551323354
20
33.5890923
11
0.891900488
21
33.4734078
0
LINE
8
0
10
0.891900488
20
33.4734078
11
1.01536918
21
33.431469
0
LINE
8
0
10
1.01536918
20
33.431469
11
1.32683311
21
33.2515617
0
LINE
8
0
10
1.32683311
20
33.2515617
11
1.43974745
21
33.1863403
0
LINE
8
0
10
1.43974745
20
33.1863403
11
1.7101289
21
32.9491284
0
LINE
8
0
10
1.7101289
20
32.9491284
11
1.7101289
21
32.9491284
0
LINE
8
0
10
3.00304066
20
46.5
11
3.46137059
21
46.5
0
LINE
8
0
10
3.46137059
20
46.5
11
11.5160822
21
46.5
0
LINE
8
0
10
11.5160822
20
46.5
11
11.5733449
21
46.5
0
LINE
8
0
10
11.5733449
20
46.5
11
11.6815667
21
46.5
0
LINE
8
0
10
11.6815667
20
46.5
11
11.8338542
21
46.5
0
LINE
8
0
10
11.8338542
20
46.5
11
12.0168074
21
46.5
0
LINE
8
0
10
12.0168074
20
46.5
11
12.2125348
21
46.5
0
LINE
8
0
10
12.2125348
20
46.5
11
12.402033
21
46.5
0
LINE
8
0
10
12.402033
20
46.5
11
12.5686777
21
46.5
0
LINE
8
0
10
12.5686777
20
46.5
11
12.7005889
21
46.5
0
LINE
8
0
10
12.7005889
20
46.5
11
12.7913563
21
46.5
0
LINE
8
0
10
12.7913563
20
46.5
11
13.75
21
46.5
0
LINE
8
0
10
13.75
20
46.5
11
13.75
21
43.9467389
0
LINE
8
0
10
13.75
20
43.9467389
11
13.75
21
42.336301
0
LINE
8
0
10
13.75
20
42.336301
11
13.75
21
20.2366677
0
LINE
8
0
10
13.75
20
20.2366677
11
13.75
21
3.12775593
0
LINE
8
0
10
13.75
20
3.12775593
11
13.75
21
1.50432628
0
LINE
8
0
10
13.75
20
1.50432628
11
13.75
21
-1.10000002
0
LINE
8
0
10
13.75
20
-1.10000002
11
12.7913563
21
-1.10000002
0
LINE
8
0
10
12.7913563
20
-1.10000002
11
12.7005889
21
-1.10000002
0
LINE
8
0
10
12.7005889
20
-1.10000002
11
12.5686777
21
-1.10000002
0
LINE
8
0
10
12.5686777
20
-1.10000002
11
12.402033
21
-1.10000002
0
LINE
8
0
10
12.402033
20
-1.10000002
11
12.2125348
21
-1.10000002
0
LINE
8
0
10
12.2125348
20
-1.10000002
11
12.0168074
21
-1.10000002
0
LINE
8
0
10
12.0168074
20
-1.10000002
11
11.8338542
21
-1.10000002
0
LINE
8
0
10
11.8338542
20
-1.10000002
11
11.6815667
21
-1.10000002
0
LINE
8
0
10
11.6815667
20
-1.10000002
11
11.5733449
21
-1.10000002
0
LINE
8
0
10
11.5733449
20
-1.10000002
11
11.5160822
21
-1.10000002
0
LINE
8
0
10
11.5160822
20
-1.10000002
11
3.46137059
21
-1.10000002
0
LINE
8
0
10
3.46137059
20
-1.10000002
11
3.00304066
21
-1.10000002
0
LINE
8
0
10
3.00304066
20
-1.10000002
11
-12.5274357
21
-1.10000002
0
LINE
8
0
10
-12.5274357
20
-1.10000002
11
-12.6161512
21
-1.10000002
0
LINE
8
0
10
-12.6161512
20
-1.10000002
11
-12.7580131
21
-1.10000002
0
LINE
8
0
10
-12.7580131
20
-1.10000002
11
-12.9409663
21
-1.10000002
0
LINE
8
0
10
-12.9409663
20
-1.10000002
11
-13.1471192
21
-1.10000002
0
LINE
8
0
10
-13.1471192
20
-1.10000002
11
-13.3561238
21
-1.10000002
0
LINE
8
0
10
-13.3561238
20
-1.10000002
11
-13.5490201
21
-1.10000002
0
LINE
8
0
10
-13.5490201
20
-1.10000002
11
-13.711149
21
-1.10000002
0
LINE
8
0
10
-13.711149
20
-1.10000002
11
-13.8333919
21
-1.10000002
0
LINE
8
0
10
-13.8333919
20
-1.10000002
11
-16.421555
21
-1.10000002
0
LINE
8
0
10
-16.421555
20
-1.10000002
11
-18.5499992
21
-1.10000002
0
LINE
8
0
10
-18.5499992
20
-1.10000002
11
-18.5499992
21
-0.652276053
0
LINE
8
0
10
-18.5499992
20
-0.652276053
11
-18.5499992
21
-0.635624535
0
LINE
8
0
10
-18.5499992
20
-0.635624535
11
-18.5499992
21
-0.584472033
0
LINE
8
0
10
-18.5499992
20
-0.584472033
11
-18.5499992
21
0.232600277
0
LINE
8
0
10
-18.5499992
20
0.232600277
11
-18.5499992
21
0.319811134
0
LINE
8
0
10
-18.5499992
20
0.319811134
11
-18.5499992
21
0.460780378
0
LINE
8
0
10
-18.5499992
20
0.460780378
11
-18.5499992
21
0.650263554
0
LINE
8
0
10
-18.5499992
20
0.650263554
11
-18.5499992
21
3.17652088
0
LINE
8
0
10
-18.5499992
20
3.17652088
11
-18.5499992
21
3.28041514
0
LINE
8
0
10
-18.5499992
20
3.28041514
11
-18.5499992
21
3.41359328
0
LINE
8
0
10
-18.5499992
20
3.41359328
11
-18.5499992
21
4.68120677
0
LINE
8
0
10
-18.5499992
20
4.68120677
11
-18.5499992
21
4.78384772
0
LINE
8
0
10
-18.5499992
20
4.78384772
11
-18.5499992
21
5.6437724
0
LINE
8
0
10
-18.5499992
20
5.6437724
11
-18.5499992
21
7.63512508
0
LINE
8
0
10
-18.5499992
20
7.63512508
11
-18.5499992
21
9.67344297
0
LINE
8
0
10
-18.5499992
20
9.67344297
11
-18.5499992
21
34.9140353
0
LINE
8
0
10
-18.5499992
20
34.9140353
11
-18.5499992
21
36.6585614
0
LINE
8
0
10
-18.5499992
20
36.6585614
11
-18.5499992
21
37.2723952
0
LINE
8
0
10
-18.5499992
20
37.2723952
11
-18.5499992
21
40.1310201
0
LINE
8
0
10
-18.5499992
20
40.1310201
11
-18.5499992
21
40.466481
0
LINE
8
0
10
-18.5499992
20
40.466481
11
-18.5499992
21
40.5678479
0
LINE
8
0
10
-18.5499992
20
40.5678479
11
-18.5499992
21
40.6813743
0
LINE
8
0
10
-18.5499992
20
40.6813743
11
-18.5499992
21
40.7977643
0
LINE
8
0
10
-18.5499992
20
40.7977643
11
-18.5499992
21
40.9066364
0
LINE
8
0
10
-18.5499992
20
40.9066364
11
-18.5499992
21
42.2078953
0
LINE
8
0
10
-18.5499992
20
42.2078953
11
-18.5499992
21
42.3499109
0
LINE
8
0
10
-18.5499992
20
42.3499109
11
-18.5499992
21
42.4652808
0
LINE
8
0
10
-18.5499992
20
42.4652808
11
-18.5499992
21
45.0050564
0
LINE
8
0
10
-18.5499992
20
45.0050564
11
-18.5499992
21
45.2087992
0
LINE
8
0
10
-18.5499992
20
45.2087992
11
-18.5499992
21
45.3672379
0
LINE
8
0
10
-18.5499992
20
45.3672379
11
-18.5499992
21
45.4734078
0
LINE
8
0
10
-18.5499992
20
45.4734078
11
-18.5499992
21
45.5247307
0
LINE
8
0
10
-18.5499992
20
45.5247307
11
-18.5499992
21
46.5
0
LINE
8
0
10
-18.5499992
20
46.5
11
-17.89276
21
46.5
0
LINE
8
0
10
-17.89276
20
46.5
11
-16.421555
21
46.5
0
LINE
8
0
10
-16.421555
20
46.5
11
-13.8333919
21
46.5
0
LINE
8
0
10
-13.8333919
20
46.5
11
-13.711149
21
46.5
0
LINE
8
0
10
-13.711149
20
46.5
11
-13.5490201
21
46.5
0
LINE
8
0
10
-13.5490201
20
46.5
11
-13.3561238
21
46.5
0
LINE
8
0
10
-13.3561238
20
46.5
11
-13.1471192
21
46.5
0
LINE
8
0
10
-13.1471192
20
46.5
11
-12.9409663
21
46.5
0
LINE
8
0
10
-12.9409663
20
46.5
11
-12.7580131
21
46.5
0
LINE
8
0
10
-12.7580131
20
46.5
11
-12.6161512
21
46.5
0
LINE
8
0
10
-12.6161512
20
46.5
11
-12.5274357
21
46.5
0
LINE
8
0
10
-12.5274357
20
46.5
11
3.00304066
21
46.5
0
LINE
8
0
10
3.00304066
20
46.5
11
3.00304066
21
46.5
0
ENDSEC
0
EOF
