0
SECTION
2
ENTITIES
0
LINE
8
0
10
4.45954442
20
12.9583805
11
4.35219193
21
12.9513655
0
LINE
8
0
10
4.35219193
20
12.9513655
11
3.97297004
21
13.0013672
0
LINE
8
0
10
3.97297004
20
13.0013672
11
3.86631179
21
13.0154305
0
LINE
8
0
10
3.86631179
20
13.0154305
11
3.50413129
21
13.1384537
0
LINE
8
0
10
3.50413129
20
13.1384537
11
3.40226603
21
13.1730547
0
LINE
8
0
10
3.40226603
20
13.1730547
11
3.07104529
21
13.3643723
0
LINE
8
0
10
3.07104529
20
13.3643723
11
2.97788763
21
13.4181814
0
LINE
8
0
10
2.97788763
20
13.4181814
11
2.69035541
21
13.6704409
0
LINE
8
0
10
2.69035541
20
13.6704409
11
2.60948539
21
13.7413902
0
LINE
8
0
10
2.60948539
20
13.7413902
11
-0.391065118
21
16.9463124
0
LINE
8
0
10
-0.391065118
20
16.9463124
11
-11.0594797
21
28.3413677
0
LINE
8
0
10
-11.0594797
20
28.3413677
11
-11.2922742
21
28.6448749
0
LINE
8
0
10
-11.2922742
20
28.6448749
11
-11.357749
21
28.730238
0
LINE
8
0
10
-11.357749
20
28.730238
11
-11.5268581
21
29.07333
0
LINE
8
0
10
-11.5268581
20
29.07333
11
-11.5744209
21
29.1698265
0
LINE
8
0
10
-11.5744209
20
29.1698265
11
-11.6733481
21
29.5393169
0
LINE
8
0
10
-11.6733481
20
29.5393169
11
-11.7011719
21
29.6432381
0
LINE
8
0
10
-11.7011719
20
29.6432381
11
-11.7261136
21
30.024928
0
LINE
8
0
10
-11.7261136
20
30.024928
11
-11.7331285
21
30.1322803
0
LINE
8
0
10
-11.7331285
20
30.1322803
11
-11.6831268
21
30.5115021
0
LINE
8
0
10
-11.6831268
20
30.5115021
11
-11.6690636
21
30.6181602
0
LINE
8
0
10
-11.6690636
20
30.6181602
11
-11.5460396
21
30.9803413
0
LINE
8
0
10
-11.5460396
20
30.9803413
11
-11.5114384
21
31.0822067
0
LINE
8
0
10
-11.5114384
20
31.0822067
11
-11.3201215
21
31.4134267
0
LINE
8
0
10
-11.3201215
20
31.4134267
11
-11.2663126
21
31.5065842
0
LINE
8
0
10
-11.2663126
20
31.5065842
11
-11.0140532
21
31.7941166
0
LINE
8
0
10
-11.0140532
20
31.7941166
11
-10.9431038
21
31.8749866
0
LINE
8
0
10
-10.9431038
20
31.8749866
11
-10.6395966
21
32.1077812
0
LINE
8
0
10
-10.6395966
20
32.1077812
11
-10.5542336
21
32.1732559
0
LINE
8
0
10
-10.5542336
20
32.1732559
11
-10.2111423
21
32.3423643
0
LINE
8
0
10
-10.2111423
20
32.3423643
11
-10.114646
21
32.3899269
0
LINE
8
0
10
-10.114646
20
32.3899269
11
-9.7451556
21
32.4888541
0
LINE
8
0
10
-9.7451556
20
32.4888541
11
-9.6412344
21
32.5166779
0
LINE
8
0
10
-9.6412344
20
32.5166779
11
-9.25954451
21
32.5416188
0
LINE
8
0
10
-9.25954451
20
32.5416188
11
-9.15219212
21
32.5486336
0
LINE
8
0
10
-9.15219212
20
32.5486336
11
-8.77297041
21
32.4986326
0
LINE
8
0
10
-8.77297041
20
32.4986326
11
-8.66631222
21
32.4845695
0
LINE
8
0
10
-8.66631222
20
32.4845695
11
-8.30413116
21
32.361547
0
LINE
8
0
10
-8.30413116
20
32.361547
11
-8.20226574
21
32.3269463
0
LINE
8
0
10
-8.20226574
20
32.3269463
11
-7.87104538
21
32.1356272
0
LINE
8
0
10
-7.87104538
20
32.1356272
11
-7.77788782
21
32.0818176
0
LINE
8
0
10
-7.77788782
20
32.0818176
11
-7.49035542
21
31.8295589
0
LINE
8
0
10
-7.49035542
20
31.8295589
11
-7.40948534
21
31.7586098
0
LINE
8
0
10
-7.40948534
20
31.7586098
11
-4.40893478
21
28.5536876
0
LINE
8
0
10
-4.40893478
20
28.5536876
11
6.25948
21
17.1586323
0
LINE
8
0
10
6.25948
20
17.1586323
11
6.49227415
21
16.8551251
0
LINE
8
0
10
6.49227415
20
16.8551251
11
6.55774879
21
16.769762
0
LINE
8
0
10
6.55774879
20
16.769762
11
6.72685825
21
16.42667
0
LINE
8
0
10
6.72685825
20
16.42667
11
6.77442122
21
16.3301735
0
LINE
8
0
10
6.77442122
20
16.3301735
11
6.87334761
21
15.9606839
0
LINE
8
0
10
6.87334761
20
15.9606839
11
6.90117121
21
15.8567629
0
LINE
8
0
10
6.90117121
20
15.8567629
11
6.92611289
21
15.4750722
0
LINE
8
0
10
6.92611289
20
15.4750722
11
6.93312788
21
15.3677197
0
LINE
8
0
10
6.93312788
20
15.3677197
11
6.88312653
21
14.9884979
0
LINE
8
0
10
6.88312653
20
14.9884979
11
6.86906338
21
14.8818398
0
LINE
8
0
10
6.86906338
20
14.8818398
11
6.74603973
21
14.5196594
0
LINE
8
0
10
6.74603973
20
14.5196594
11
6.71143866
21
14.4177942
0
LINE
8
0
10
6.71143866
20
14.4177942
11
6.52012106
21
14.0865735
0
LINE
8
0
10
6.52012106
20
14.0865735
11
6.46631193
21
13.9934158
0
LINE
8
0
10
6.46631193
20
13.9934158
11
6.21405286
21
13.7058834
0
LINE
8
0
10
6.21405286
20
13.7058834
11
6.1431036
21
13.6250134
0
LINE
8
0
10
6.1431036
20
13.6250134
11
5.83959643
21
13.3922196
0
LINE
8
0
10
5.83959643
20
13.3922196
11
5.75423336
21
13.326745
0
LINE
8
0
10
5.75423336
20
13.326745
11
5.41114246
21
13.1576352
0
LINE
8
0
10
5.41114246
20
13.1576352
11
5.31464624
21
13.1100721
0
LINE
8
0
10
5.31464624
20
13.1100721
11
4.94515589
21
13.0111457
0
LINE
8
0
10
4.94515589
20
13.0111457
11
4.84123468
21
12.9833221
0
LINE
8
0
10
4.84123468
20
12.9833221
11
4.45954442
21
12.9583805
0
LINE
8
0
10
4.45954442
20
12.9583805
11
4.45954442
21
12.9583805
0
LINE
8
0
10
1.34658982
20
33.2401499
11
1.43974745
21
33.1863403
0
LINE
8
0
10
1.43974745
20
33.1863403
11
1.72727967
21
32.9340816
0
LINE
8
0
10
1.72727967
20
32.9340816
11
1.8081497
21
32.8631325
0
LINE
8
0
10
1.8081497
20
32.8631325
11
3.308425
21
31.2606712
0
LINE
8
0
10
3.308425
20
31.2606712
11
8.64263248
21
25.5631428
0
LINE
8
0
10
8.64263248
20
25.5631428
11
8.87542627
21
25.2596356
0
LINE
8
0
10
8.87542627
20
25.2596356
11
8.9409008
21
25.1742725
0
LINE
8
0
10
8.9409008
20
25.1742725
11
9.11001063
21
24.831182
0
LINE
8
0
10
9.11001063
20
24.831182
11
9.1575737
21
24.7346859
0
LINE
8
0
10
9.1575737
20
24.7346859
11
9.2565001
21
24.3651955
0
LINE
8
0
10
9.2565001
20
24.3651955
11
9.28432369
21
24.2612743
0
LINE
8
0
10
9.28432369
20
24.2612743
11
9.30926538
21
23.8795844
0
LINE
8
0
10
9.30926538
20
23.8795844
11
9.31628036
21
23.7722321
0
LINE
8
0
10
9.31628036
20
23.7722321
11
9.26627865
21
23.3930104
0
LINE
8
0
10
9.26627865
20
23.3930104
11
9.25221539
21
23.2863522
0
LINE
8
0
10
9.25221539
20
23.2863522
11
9.12919211
21
22.9241711
0
LINE
8
0
10
9.12919211
20
22.9241711
11
9.09459114
21
22.8223057
0
LINE
8
0
10
9.09459114
20
22.8223057
11
8.90327355
21
22.4910842
0
LINE
8
0
10
8.90327355
20
22.4910842
11
8.84946442
21
22.3979263
0
LINE
8
0
10
8.84946442
20
22.3979263
11
8.59720497
21
22.1103954
0
LINE
8
0
10
8.59720497
20
22.1103954
11
8.52625561
21
22.0295258
0
LINE
8
0
10
8.52625561
20
22.0295258
11
8.22274918
21
21.7967312
0
LINE
8
0
10
8.22274918
20
21.7967312
11
8.13738632
21
21.7312565
0
LINE
8
0
10
8.13738632
20
21.7312565
11
7.79429504
21
21.5621467
0
LINE
8
0
10
7.79429504
20
21.5621467
11
7.69779873
21
21.5145836
0
LINE
8
0
10
7.69779873
20
21.5145836
11
7.32830837
21
21.4156579
0
LINE
8
0
10
7.32830837
20
21.4156579
11
7.22438717
21
21.3878345
0
LINE
8
0
10
7.22438717
20
21.3878345
11
6.8426969
21
21.3628921
0
LINE
8
0
10
6.8426969
20
21.3628921
11
6.73534441
21
21.3558769
0
LINE
8
0
10
6.73534441
20
21.3558769
11
6.35612234
21
21.4058794
0
LINE
8
0
10
6.35612234
20
21.4058794
11
6.24946404
21
21.4199429
0
LINE
8
0
10
6.24946404
20
21.4199429
11
5.88728372
21
21.5429654
0
LINE
8
0
10
5.88728372
20
21.5429654
11
5.78541851
21
21.5775661
0
LINE
8
0
10
5.78541851
20
21.5775661
11
5.45419778
21
21.7688837
0
LINE
8
0
10
5.45419778
20
21.7688837
11
5.36104012
21
21.8226929
0
LINE
8
0
10
5.36104012
20
21.8226929
11
5.07350771
21
22.0749516
0
LINE
8
0
10
5.07350771
20
22.0749516
11
4.99263763
21
22.1459007
0
LINE
8
0
10
4.99263763
20
22.1459007
11
3.49236236
21
23.748362
0
LINE
8
0
10
3.49236236
20
23.748362
11
-1.84184504
21
29.4458904
0
LINE
8
0
10
-1.84184504
20
29.4458904
11
-2.074639
21
29.7493976
0
LINE
8
0
10
-2.074639
20
29.7493976
11
-2.14011359
21
29.8347607
0
LINE
8
0
10
-2.14011359
20
29.8347607
11
-2.30922323
21
30.1778527
0
LINE
8
0
10
-2.30922323
20
30.1778527
11
-2.35678625
21
30.2743492
0
LINE
8
0
10
-2.35678625
20
30.2743492
11
-2.45571265
21
30.6438381
0
LINE
8
0
10
-2.45571265
20
30.6438381
11
-2.48353624
21
30.7477589
0
LINE
8
0
10
-2.48353624
20
30.7477589
11
-2.50847793
21
31.1294502
0
LINE
8
0
10
-2.50847793
20
31.1294502
11
-2.51549292
21
31.2368031
0
LINE
8
0
10
-2.51549292
20
31.2368031
11
-2.4654912
21
31.6160248
0
LINE
8
0
10
-2.4654912
20
31.6160248
11
-2.45142794
21
31.722683
0
LINE
8
0
10
-2.45142794
20
31.722683
11
-2.32840467
21
32.084864
0
LINE
8
0
10
-2.32840467
20
32.084864
11
-2.29380369
21
32.1867294
0
LINE
8
0
10
-2.29380369
20
32.1867294
11
-2.1024861
21
32.5179494
0
LINE
8
0
10
-2.1024861
20
32.5179494
11
-2.04867697
21
32.6111069
0
LINE
8
0
10
-2.04867697
20
32.6111069
11
-1.79641771
21
32.8986378
0
LINE
8
0
10
-1.79641771
20
32.8986378
11
-1.7254684
21
32.9795074
0
LINE
8
0
10
-1.7254684
20
32.9795074
11
-1.42196141
21
33.2123035
0
LINE
8
0
10
-1.42196141
20
33.2123035
11
-1.3365984
21
33.2777786
0
LINE
8
0
10
-1.3365984
20
33.2777786
11
-0.993507352
21
33.446887
0
LINE
8
0
10
-0.993507352
20
33.446887
11
-0.897011101
21
33.4944496
0
LINE
8
0
10
-0.897011101
20
33.4944496
11
-0.527520837
21
33.5933768
0
LINE
8
0
10
-0.527520837
20
33.5933768
11
-0.42359966
21
33.6212006
0
LINE
8
0
10
-0.42359966
20
33.6212006
11
-0.0419094364
21
33.6461415
0
LINE
8
0
10
-0.0419094364
20
33.6461415
11
0.0654430464
21
33.6531563
0
LINE
8
0
10
0.0654430464
20
33.6531563
11
0.444665067
21
33.6031553
0
LINE
8
0
10
0.444665067
20
33.6031553
11
0.551323354
21
33.5890923
0
LINE
8
0
10
0.551323354
20
33.5890923
11
0.913503899
21
33.4660697
0
LINE
8
0
10
0.913503899
20
33.4660697
11
1.01536918
21
33.431469
0
LINE
8
0
10
1.01536918
20
33.431469
11
1.34658982
21
33.2401499
0
LINE
8
0
10
1.34658982
20
33.2401499
11
1.34658982
21
33.2401499
0
LINE
8
0
10
-1.79706377
20
12.6946615
11
-1.67404032
21
13.0568419
0
LINE
8
0
10
-1.67404032
20
13.0568419
11
-1.65997708
21
13.1635003
0
LINE
8
0
10
-1.65997708
20
13.1635003
11
-1.60997546
21
13.5427227
0
LINE
8
0
10
-1.60997546
20
13.5427227
11
-1.61699042
21
13.6500751
0
LINE
8
0
10
-1.61699042
20
13.6500751
11
-1.64193201
21
14.031765
0
LINE
8
0
10
-1.64193201
20
14.031765
11
-1.66975563
21
14.1356862
0
LINE
8
0
10
-1.66975563
20
14.1356862
11
-1.76868212
21
14.5051765
0
LINE
8
0
10
-1.76868212
20
14.5051765
11
-1.81624514
21
14.6016729
0
LINE
8
0
10
-1.81624514
20
14.6016729
11
-1.98535478
21
14.9447641
0
LINE
8
0
10
-1.98535478
20
14.9447641
11
-2.0508294
21
15.0301272
0
LINE
8
0
10
-2.0508294
20
15.0301272
11
-2.28362346
21
15.3336344
0
LINE
8
0
10
-2.28362346
20
15.3336344
11
-7.61783066
21
21.031162
0
LINE
8
0
10
-7.61783066
20
21.031162
11
-9.11810589
21
22.6336231
0
LINE
8
0
10
-9.11810589
20
22.6336231
11
-9.19897596
21
22.7045727
0
LINE
8
0
10
-9.19897596
20
22.7045727
11
-9.48650837
21
22.9568329
0
LINE
8
0
10
-9.48650837
20
22.9568329
11
-9.57966603
21
23.0106416
0
LINE
8
0
10
-9.57966603
20
23.0106416
11
-9.91088676
21
23.2019577
0
LINE
8
0
10
-9.91088676
20
23.2019577
11
-10.012752
21
23.2365589
0
LINE
8
0
10
-10.012752
20
23.2365589
11
-10.3749323
21
23.3595829
0
LINE
8
0
10
-10.3749323
20
23.3595829
11
-10.4815907
21
23.3736464
0
LINE
8
0
10
-10.4815907
20
23.3736464
11
-10.8608131
21
23.4236488
0
LINE
8
0
10
-10.8608131
20
23.4236488
11
-10.9681655
21
23.4166336
0
LINE
8
0
10
-10.9681655
20
23.4166336
11
-11.3498554
21
23.3916912
0
LINE
8
0
10
-11.3498554
20
23.3916912
11
-11.4537766
21
23.3638674
0
LINE
8
0
10
-11.4537766
20
23.3638674
11
-11.823267
21
23.2649403
0
LINE
8
0
10
-11.823267
20
23.2649403
11
-11.9197633
21
23.2173776
0
LINE
8
0
10
-11.9197633
20
23.2173776
11
-12.2628546
21
23.0482693
0
LINE
8
0
10
-12.2628546
20
23.0482693
11
-12.3482174
21
22.9827945
0
LINE
8
0
10
-12.3482174
20
22.9827945
11
-12.6517239
21
22.75
0
LINE
8
0
10
-12.6517239
20
22.75
11
-12.7226732
21
22.6691299
0
LINE
8
0
10
-12.7226732
20
22.6691299
11
-12.9749327
21
22.3815975
0
LINE
8
0
10
-12.9749327
20
22.3815975
11
-13.0287418
21
22.2884401
0
LINE
8
0
10
-13.0287418
20
22.2884401
11
-13.2200594
21
21.9572201
0
LINE
8
0
10
-13.2200594
20
21.9572201
11
-13.2546604
21
21.8553547
0
LINE
8
0
10
-13.2546604
20
21.8553547
11
-13.3776836
21
21.4931736
0
LINE
8
0
10
-13.3776836
20
21.4931736
11
-13.3917469
21
21.3865154
0
LINE
8
0
10
-13.3917469
20
21.3865154
11
-13.4417486
21
21.0072937
0
LINE
8
0
10
-13.4417486
20
21.0072937
11
-13.4347336
21
20.8999413
0
LINE
8
0
10
-13.4347336
20
20.8999413
11
-13.4097919
21
20.5182514
0
LINE
8
0
10
-13.4097919
20
20.5182514
11
-13.3819684
21
20.4143302
0
LINE
8
0
10
-13.3819684
20
20.4143302
11
-13.283042
21
20.0448399
0
LINE
8
0
10
-13.283042
20
20.0448399
11
-13.2354789
21
19.9483433
0
LINE
8
0
10
-13.2354789
20
19.9483433
11
-13.0663691
21
19.6052513
0
LINE
8
0
10
-13.0663691
20
19.6052513
11
-13.0008945
21
19.5198882
0
LINE
8
0
10
-13.0008945
20
19.5198882
11
-12.7681007
21
19.2163811
0
LINE
8
0
10
-12.7681007
20
19.2163811
11
-7.43389335
21
13.5188534
0
LINE
8
0
10
-7.43389335
20
13.5188534
11
-5.93361807
21
11.9163923
0
LINE
8
0
10
-5.93361807
20
11.9163923
11
-5.8527481
21
11.845443
0
LINE
8
0
10
-5.8527481
20
11.845443
11
-5.56521606
21
11.5931835
0
LINE
8
0
10
-5.56521606
20
11.5931835
11
-5.4720584
21
11.5393746
0
LINE
8
0
10
-5.4720584
20
11.5393746
11
-5.14083767
21
11.3480577
0
LINE
8
0
10
-5.14083767
20
11.3480577
11
-5.03897235
21
11.3134566
0
LINE
8
0
10
-5.03897235
20
11.3134566
11
-4.67679167
21
11.1904325
0
LINE
8
0
10
-4.67679167
20
11.1904325
11
-4.57013337
21
11.1763693
0
LINE
8
0
10
-4.57013337
20
11.1763693
11
-4.19091129
21
11.1263676
0
LINE
8
0
10
-4.19091129
20
11.1263676
11
-4.08355885
21
11.1333826
0
LINE
8
0
10
-4.08355885
20
11.1333826
11
-3.70186877
21
11.1583242
0
LINE
8
0
10
-3.70186877
20
11.1583242
11
-3.59794757
21
11.186148
0
LINE
8
0
10
-3.59794757
20
11.186148
11
-3.22845721
21
11.2850752
0
LINE
8
0
10
-3.22845721
20
11.2850752
11
-3.131961
21
11.3326381
0
LINE
8
0
10
-3.131961
20
11.3326381
11
-2.7888701
21
11.5017471
0
LINE
8
0
10
-2.7888701
20
11.5017471
11
-2.70350708
21
11.5672219
0
LINE
8
0
10
-2.70350708
20
11.5672219
11
-2.4000001
21
11.8000164
0
LINE
8
0
10
-2.4000001
20
11.8000164
11
-2.32905073
21
11.8808863
0
LINE
8
0
10
-2.32905073
20
11.8808863
11
-2.07679129
21
12.1684179
0
LINE
8
0
10
-2.07679129
20
12.1684179
11
-2.02298221
21
12.2615756
0
LINE
8
0
10
-2.02298221
20
12.2615756
11
-1.8316648
21
12.5927963
0
LINE
8
0
10
-1.8316648
20
12.5927963
11
-1.79706377
21
12.6946615
0
LINE
8
0
10
-1.79706377
20
12.6946615
11
-1.79706377
21
12.6946615
0
LINE
8
0
10
13.75
20
46.5
11
13.75
21
43.7847811
0
LINE
8
0
10
13.75
20
43.7847811
11
13.75
21
42.0721902
0
LINE
8
0
10
13.75
20
42.0721902
11
13.75
21
18.570738
0
LINE
8
0
10
13.75
20
18.570738
11
13.75
21
3.39592998
0
LINE
8
0
10
13.75
20
3.39592998
11
13.75
21
1.66952331
0
LINE
8
0
10
13.75
20
1.66952331
11
13.75
21
-1.10000002
0
LINE
8
0
10
13.75
20
-1.10000002
11
12.7305478
21
-1.10000002
0
LINE
8
0
10
12.7305478
20
-1.10000002
11
12.6340229
21
-1.10000002
0
LINE
8
0
10
12.6340229
20
-1.10000002
11
12.4937443
21
-1.10000002
0
LINE
8
0
10
12.4937443
20
-1.10000002
11
12.3165291
21
-1.10000002
0
LINE
8
0
10
12.3165291
20
-1.10000002
11
12.1150106
21
-1.10000002
0
LINE
8
0
10
12.1150106
20
-1.10000002
11
11.906868
21
-1.10000002
0
LINE
8
0
10
11.906868
20
-1.10000002
11
11.7123097
21
-1.10000002
0
LINE
8
0
10
11.7123097
20
-1.10000002
11
11.5503623
21
-1.10000002
0
LINE
8
0
10
11.5503623
20
-1.10000002
11
11.4352758
21
-1.10000002
0
LINE
8
0
10
11.4352758
20
-1.10000002
11
11.3743808
21
-1.10000002
0
LINE
8
0
10
11.3743808
20
-1.10000002
11
2.8087446
21
-1.10000002
0
LINE
8
0
10
2.8087446
20
-1.10000002
11
2.32134199
21
-1.10000002
0
LINE
8
0
10
2.32134199
20
-1.10000002
11
-12.335709
21
-1.10000002
0
LINE
8
0
10
-12.335709
20
-1.10000002
11
-12.4300519
21
-1.10000002
0
LINE
8
0
10
-12.4300519
20
-1.10000002
11
-12.5809124
21
-1.10000002
0
LINE
8
0
10
-12.5809124
20
-1.10000002
11
-12.7754707
21
-1.10000002
0
LINE
8
0
10
-12.7754707
20
-1.10000002
11
-12.9947002
21
-1.10000002
0
LINE
8
0
10
-12.9947002
20
-1.10000002
11
-13.2169623
21
-1.10000002
0
LINE
8
0
10
-13.2169623
20
-1.10000002
11
-13.4220944
21
-1.10000002
0
LINE
8
0
10
-13.4220944
20
-1.10000002
11
-13.5945074
21
-1.10000002
0
LINE
8
0
10
-13.5945074
20
-1.10000002
11
-13.7245044
21
-1.10000002
0
LINE
8
0
10
-13.7245044
20
-1.10000002
11
-16.4768393
21
-1.10000002
0
LINE
8
0
10
-16.4768393
20
-1.10000002
11
-18.5499992
21
-1.10000002
0
LINE
8
0
10
-18.5499992
20
-1.10000002
11
-18.5499992
21
-0.663905247
0
LINE
8
0
10
-18.5499992
20
-0.663905247
11
-18.5499992
21
-0.647686236
0
LINE
8
0
10
-18.5499992
20
-0.647686236
11
-18.5499992
21
-0.59786237
0
LINE
8
0
10
-18.5499992
20
-0.59786237
11
-18.5499992
21
0.197987283
0
LINE
8
0
10
-18.5499992
20
0.197987283
11
-18.5499992
21
0.282932922
0
LINE
8
0
10
-18.5499992
20
0.282932922
11
-18.5499992
21
0.420240628
0
LINE
8
0
10
-18.5499992
20
0.420240628
11
-18.5499992
21
0.604802162
0
LINE
8
0
10
-18.5499992
20
0.604802162
11
-18.5499992
21
3.23102973
0
LINE
8
0
10
-18.5499992
20
3.23102973
11
-18.5499992
21
3.32804688
0
LINE
8
0
10
-18.5499992
20
3.32804688
11
-18.5499992
21
3.45240951
0
LINE
8
0
10
-18.5499992
20
3.45240951
11
-18.5499992
21
4.77376853
0
LINE
8
0
10
-18.5499992
20
4.77376853
11
-18.5499992
21
4.86480628
0
LINE
8
0
10
-18.5499992
20
4.86480628
11
-18.5499992
21
5.62751943
0
LINE
8
0
10
-18.5499992
20
5.62751943
11
-18.5499992
21
7.39375652
0
LINE
8
0
10
-18.5499992
20
7.39375652
11
-18.5499992
21
9.20164957
0
LINE
8
0
10
-18.5499992
20
9.20164957
11
-18.5499992
21
35.4889861
0
LINE
8
0
10
-18.5499992
20
35.4889861
11
-18.5499992
21
37.0362995
0
LINE
8
0
10
-18.5499992
20
37.0362995
11
-18.5499992
21
37.5807416
0
LINE
8
0
10
-18.5499992
20
37.5807416
11
-18.5499992
21
40.1162088
0
LINE
8
0
10
-18.5499992
20
40.1162088
11
-18.5499992
21
40.4137469
0
LINE
8
0
10
-18.5499992
20
40.4137469
11
-18.5499992
21
40.5036547
0
LINE
8
0
10
-18.5499992
20
40.5036547
11
-18.5499992
21
40.6043473
0
LINE
8
0
10
-18.5499992
20
40.6043473
11
-18.5499992
21
40.7075798
0
LINE
8
0
10
-18.5499992
20
40.7075798
11
-18.5499992
21
40.8041443
0
LINE
8
0
10
-18.5499992
20
40.8041443
11
-18.5499992
21
42.1610373
0
LINE
8
0
10
-18.5499992
20
42.1610373
11
-18.5499992
21
42.2936524
0
LINE
8
0
10
-18.5499992
20
42.2936524
11
-18.5499992
21
42.4013856
0
LINE
8
0
10
-18.5499992
20
42.4013856
11
-18.5499992
21
45.0438861
0
LINE
8
0
10
-18.5499992
20
45.0438861
11
-18.5499992
21
45.2423369
0
LINE
8
0
10
-18.5499992
20
45.2423369
11
-18.5499992
21
45.3966603
0
LINE
8
0
10
-18.5499992
20
45.3966603
11
-18.5499992
21
45.5000725
0
LINE
8
0
10
-18.5499992
20
45.5000725
11
-18.5499992
21
45.5500624
0
LINE
8
0
10
-18.5499992
20
45.5500624
11
-18.5499992
21
46.5
0
LINE
8
0
10
-18.5499992
20
46.5
11
-17.9098311
21
46.5
0
LINE
8
0
10
-17.9098311
20
46.5
11
-16.4768393
21
46.5
0
LINE
8
0
10
-16.4768393
20
46.5
11
-13.7245044
21
46.5
0
LINE
8
0
10
-13.7245044
20
46.5
11
-13.5945074
21
46.5
0
LINE
8
0
10
-13.5945074
20
46.5
11
-13.4220944
21
46.5
0
LINE
8
0
10
-13.4220944
20
46.5
11
-13.2169623
21
46.5
0
LINE
8
0
10
-13.2169623
20
46.5
11
-12.9947002
21
46.5
0
LINE
8
0
10
-12.9947002
20
46.5
11
-12.7754707
21
46.5
0
LINE
8
0
10
-12.7754707
20
46.5
11
-12.5809124
21
46.5
0
LINE
8
0
10
-12.5809124
20
46.5
11
-12.4300519
21
46.5
0
LINE
8
0
10
-12.4300519
20
46.5
11
-12.335709
21
46.5
0
LINE
8
0
10
-12.335709
20
46.5
11
2.32134199
21
46.5
0
LINE
8
0
10
2.32134199
20
46.5
11
2.8087446
21
46.5
0
LINE
8
0
10
2.8087446
20
46.5
11
11.3743808
21
46.5
0
LINE
8
0
10
11.3743808
20
46.5
11
11.4352758
21
46.5
0
LINE
8
0
10
11.4352758
20
46.5
11
11.5503623
21
46.5
0
LINE
8
0
10
11.5503623
20
46.5
11
11.7123097
21
46.5
0
LINE
8
0
10
11.7123097
20
46.5
11
11.906868
21
46.5
0
LINE
8
0
10
11.906868
20
46.5
11
12.1150106
21
46.5
0
LINE
8
0
10
12.1150106
20
46.5
11
12.3165291
21
46.5
0
LINE
8
0
10
12.3165291
20
46.5
11
12.4937443
21
46.5
0
LINE
8
0
10
12.4937443
20
46.5
11
12.6340229
21
46.5
0
LINE
8
0
10
12.6340229
20
46.5
11
12.7305478
21
46.5
0
LINE
8
0
10
12.7305478
20
46.5
11
13.75
21
46.5
0
LINE
8
0
10
13.75
20
46.5
11
13.75
21
46.5
0
ENDSEC
0
EOF
