0
SECTION
2
ENTITIES
0
LINE
8
0
10
6.49729757
20
14.0470601
11
6.71143866
21
14.4177942
0
LINE
8
0
10
6.71143866
20
14.4177942
11
6.73136346
21
14.4764526
0
LINE
8
0
10
6.73136346
20
14.4764526
11
6.86906338
21
14.8818398
0
LINE
8
0
10
6.86906338
20
14.8818398
11
6.87716155
21
14.9432582
0
LINE
8
0
10
6.87716155
20
14.9432582
11
6.93312788
21
15.3677197
0
LINE
8
0
10
6.93312788
20
15.3677197
11
6.92908835
21
15.4295379
0
LINE
8
0
10
6.92908835
20
15.4295379
11
6.90117121
21
15.8567629
0
LINE
8
0
10
6.90117121
20
15.8567629
11
6.88514917
21
15.9166051
0
LINE
8
0
10
6.88514917
20
15.9166051
11
6.77442122
21
16.3301735
0
LINE
8
0
10
6.77442122
20
16.3301735
11
6.74703239
21
16.3857404
0
LINE
8
0
10
6.74703239
20
16.3857404
11
6.55774879
21
16.769762
0
LINE
8
0
10
6.55774879
20
16.769762
11
6.52004565
21
16.8189178
0
LINE
8
0
10
6.52004565
20
16.8189178
11
6.25948
21
17.1586323
0
LINE
8
0
10
6.25948
20
17.1586323
11
-5.68163788
21
29.9130762
0
LINE
8
0
10
-5.68163788
20
29.9130762
11
-7.40948534
21
31.7586098
0
LINE
8
0
10
-7.40948534
20
31.7586098
11
-7.45605385
21
31.7994654
0
LINE
8
0
10
-7.45605385
20
31.7994654
11
-7.77788782
21
32.0818176
0
LINE
8
0
10
-7.77788782
20
32.0818176
11
-7.83153199
21
32.1128035
0
LINE
8
0
10
-7.83153199
20
32.1128035
11
-8.20226574
21
32.3269463
0
LINE
8
0
10
-8.20226574
20
32.3269463
11
-8.26092428
21
32.3468709
0
LINE
8
0
10
-8.26092428
20
32.3468709
11
-8.66631222
21
32.4845695
0
LINE
8
0
10
-8.66631222
20
32.4845695
11
-8.72773064
21
32.4926677
0
LINE
8
0
10
-8.72773064
20
32.4926677
11
-9.15219212
21
32.5486336
0
LINE
8
0
10
-9.15219212
20
32.5486336
11
-9.21401029
21
32.5445942
0
LINE
8
0
10
-9.21401029
20
32.5445942
11
-9.6412344
21
32.5166779
0
LINE
8
0
10
-9.6412344
20
32.5166779
11
-9.70107674
21
32.5006557
0
LINE
8
0
10
-9.70107674
20
32.5006557
11
-10.114646
21
32.3899269
0
LINE
8
0
10
-10.114646
20
32.3899269
11
-10.1702127
21
32.3625383
0
LINE
8
0
10
-10.1702127
20
32.3625383
11
-10.5542336
21
32.1732559
0
LINE
8
0
10
-10.5542336
20
32.1732559
11
-10.6033893
21
32.1355527
0
LINE
8
0
10
-10.6033893
20
32.1355527
11
-10.9431038
21
31.8749866
0
LINE
8
0
10
-10.9431038
20
31.8749866
11
-10.9839595
21
31.8284181
0
LINE
8
0
10
-10.9839595
20
31.8284181
11
-11.2663126
21
31.5065842
0
LINE
8
0
10
-11.2663126
20
31.5065842
11
-11.2972981
21
31.4529401
0
LINE
8
0
10
-11.2972981
20
31.4529401
11
-11.5114384
21
31.0822067
0
LINE
8
0
10
-11.5114384
20
31.0822067
11
-11.5313632
21
31.0235482
0
LINE
8
0
10
-11.5313632
20
31.0235482
11
-11.6690636
21
30.6181602
0
LINE
8
0
10
-11.6690636
20
30.6181602
11
-11.6771618
21
30.5567418
0
LINE
8
0
10
-11.6771618
20
30.5567418
11
-11.7331285
21
30.1322803
0
LINE
8
0
10
-11.7331285
20
30.1322803
11
-11.729089
21
30.0704622
0
LINE
8
0
10
-11.729089
20
30.0704622
11
-11.7011719
21
29.6432381
0
LINE
8
0
10
-11.7011719
20
29.6432381
11
-11.6851497
21
29.5833957
0
LINE
8
0
10
-11.6851497
20
29.5833957
11
-11.5744209
21
29.1698265
0
LINE
8
0
10
-11.5744209
20
29.1698265
11
-11.5470322
21
29.1142596
0
LINE
8
0
10
-11.5470322
20
29.1142596
11
-11.357749
21
28.730238
0
LINE
8
0
10
-11.357749
20
28.730238
11
-11.3200458
21
28.6810822
0
LINE
8
0
10
-11.3200458
20
28.6810822
11
-11.0594797
21
28.3413677
0
LINE
8
0
10
-11.0594797
20
28.3413677
11
0.881637953
21
15.5869238
0
LINE
8
0
10
0.881637953
20
15.5869238
11
2.60948539
21
13.7413902
0
LINE
8
0
10
2.60948539
20
13.7413902
11
2.65605386
21
13.7005345
0
LINE
8
0
10
2.65605386
20
13.7005345
11
2.97788763
21
13.4181814
0
LINE
8
0
10
2.97788763
20
13.4181814
11
3.03153186
21
13.3871958
0
LINE
8
0
10
3.03153186
20
13.3871958
11
3.40226603
21
13.1730547
0
LINE
8
0
10
3.40226603
20
13.1730547
11
3.46092447
21
13.1531299
0
LINE
8
0
10
3.46092447
20
13.1531299
11
3.86631179
21
13.0154305
0
LINE
8
0
10
3.86631179
20
13.0154305
11
3.92773025
21
13.0073322
0
LINE
8
0
10
3.92773025
20
13.0073322
11
4.35219193
21
12.9513655
0
LINE
8
0
10
4.35219193
20
12.9513655
11
4.41401016
21
12.955405
0
LINE
8
0
10
4.41401016
20
12.955405
11
4.84123468
21
12.9833221
0
LINE
8
0
10
4.84123468
20
12.9833221
11
4.90107703
21
12.9993442
0
LINE
8
0
10
4.90107703
20
12.9993442
11
5.31464624
21
13.1100721
0
LINE
8
0
10
5.31464624
20
13.1100721
11
5.37021296
21
13.137461
0
LINE
8
0
10
5.37021296
20
13.137461
11
5.75423336
21
13.326745
0
LINE
8
0
10
5.75423336
20
13.326745
11
5.80338913
21
13.3644481
0
LINE
8
0
10
5.80338913
20
13.3644481
11
6.1431036
21
13.6250134
0
LINE
8
0
10
6.1431036
20
13.6250134
11
6.18395927
21
13.6715819
0
LINE
8
0
10
6.18395927
20
13.6715819
11
6.46631193
21
13.9934158
0
LINE
8
0
10
6.46631193
20
13.9934158
11
6.49729757
21
14.0470601
0
LINE
8
0
10
6.49729757
20
14.0470601
11
6.49729757
21
14.0470601
0
LINE
8
0
10
-13.2556531
20
19.989273
11
-13.283042
21
20.0448399
0
LINE
8
0
10
-13.283042
20
20.0448399
11
-13.3937699
21
20.4584091
0
LINE
8
0
10
-13.3937699
20
20.4584091
11
-13.4097919
21
20.5182514
0
LINE
8
0
10
-13.4097919
20
20.5182514
11
-13.4377091
21
20.9454755
0
LINE
8
0
10
-13.4377091
20
20.9454755
11
-13.4417486
21
21.0072937
0
LINE
8
0
10
-13.4417486
20
21.0072937
11
-13.3857819
21
21.4317552
0
LINE
8
0
10
-13.3857819
20
21.4317552
11
-13.3776836
21
21.4931736
0
LINE
8
0
10
-13.3776836
20
21.4931736
11
-13.2399841
21
21.8985615
0
LINE
8
0
10
-13.2399841
20
21.8985615
11
-13.2200594
21
21.9572201
0
LINE
8
0
10
-13.2200594
20
21.9572201
11
-13.0059183
21
22.3279534
0
LINE
8
0
10
-13.0059183
20
22.3279534
11
-12.9749327
21
22.3815975
0
LINE
8
0
10
-12.9749327
20
22.3815975
11
-12.6925796
21
22.7034315
0
LINE
8
0
10
-12.6925796
20
22.7034315
11
-12.6517239
21
22.75
0
LINE
8
0
10
-12.6517239
20
22.75
11
-12.3120102
21
23.0105661
0
LINE
8
0
10
-12.3120102
20
23.0105661
11
-12.2628546
21
23.0482693
0
LINE
8
0
10
-12.2628546
20
23.0482693
11
-11.8788338
21
23.2375516
0
LINE
8
0
10
-11.8788338
20
23.2375516
11
-11.823267
21
23.2649403
0
LINE
8
0
10
-11.823267
20
23.2649403
11
-11.4096978
21
23.3756691
0
LINE
8
0
10
-11.4096978
20
23.3756691
11
-11.3498554
21
23.3916912
0
LINE
8
0
10
-11.3498554
20
23.3916912
11
-10.9226313
21
23.4196092
0
LINE
8
0
10
-10.9226313
20
23.4196092
11
-10.8608131
21
23.4236488
0
LINE
8
0
10
-10.8608131
20
23.4236488
11
-10.4363508
21
23.3676813
0
LINE
8
0
10
-10.4363508
20
23.3676813
11
-10.3749323
21
23.3595829
0
LINE
8
0
10
-10.3749323
20
23.3595829
11
-9.96954518
21
23.2218826
0
LINE
8
0
10
-9.96954518
20
23.2218826
11
-9.91088676
21
23.2019577
0
LINE
8
0
10
-9.91088676
20
23.2019577
11
-9.5401526
21
22.9878183
0
LINE
8
0
10
-9.5401526
20
22.9878183
11
-9.48650837
21
22.9568329
0
LINE
8
0
10
-9.48650837
20
22.9568329
11
-9.16467439
21
22.674479
0
LINE
8
0
10
-9.16467439
20
22.674479
11
-9.11810589
21
22.6336231
0
LINE
8
0
10
-9.11810589
20
22.6336231
11
-8.25418219
21
21.7108563
0
LINE
8
0
10
-8.25418219
20
21.7108563
11
-2.28362346
21
15.3336344
0
LINE
8
0
10
-2.28362346
20
15.3336344
11
-2.02305791
21
14.9939199
0
LINE
8
0
10
-2.02305791
20
14.9939199
11
-1.98535478
21
14.9447641
0
LINE
8
0
10
-1.98535478
20
14.9447641
11
-1.79607098
21
14.5607433
0
LINE
8
0
10
-1.79607098
20
14.5607433
11
-1.76868212
21
14.5051765
0
LINE
8
0
10
-1.76868212
20
14.5051765
11
-1.65795406
21
14.0916073
0
LINE
8
0
10
-1.65795406
20
14.0916073
11
-1.64193201
21
14.031765
0
LINE
8
0
10
-1.64193201
20
14.031765
11
-1.61401498
21
13.6045409
0
LINE
8
0
10
-1.61401498
20
13.6045409
11
-1.60997546
21
13.5427227
0
LINE
8
0
10
-1.60997546
20
13.5427227
11
-1.6659421
21
13.1182604
0
LINE
8
0
10
-1.6659421
20
13.1182604
11
-1.67404032
21
13.0568419
0
LINE
8
0
10
-1.67404032
20
13.0568419
11
-1.81174003
21
12.6514547
0
LINE
8
0
10
-1.81174003
20
12.6514547
11
-1.8316648
21
12.5927963
0
LINE
8
0
10
-1.8316648
20
12.5927963
11
-2.04580568
21
12.2220622
0
LINE
8
0
10
-2.04580568
20
12.2220622
11
-2.07679129
21
12.1684179
0
LINE
8
0
10
-2.07679129
20
12.1684179
11
-2.35914437
21
11.8465848
0
LINE
8
0
10
-2.35914437
20
11.8465848
11
-2.4000001
21
11.8000164
0
LINE
8
0
10
-2.4000001
20
11.8000164
11
-2.73971436
21
11.5394503
0
LINE
8
0
10
-2.73971436
20
11.5394503
11
-2.7888701
21
11.5017471
0
LINE
8
0
10
-2.7888701
20
11.5017471
11
-3.1728905
21
11.312464
0
LINE
8
0
10
-3.1728905
20
11.312464
11
-3.22845721
21
11.2850752
0
LINE
8
0
10
-3.22845721
20
11.2850752
11
-3.64202643
21
11.1743464
0
LINE
8
0
10
-3.64202643
20
11.1743464
11
-3.70186877
21
11.1583242
0
LINE
8
0
10
-3.70186877
20
11.1583242
11
-4.12909309
21
11.1304071
0
LINE
8
0
10
-4.12909309
20
11.1304071
11
-4.19091129
21
11.1263676
0
LINE
8
0
10
-4.19091129
20
11.1263676
11
-4.61537318
21
11.1823343
0
LINE
8
0
10
-4.61537318
20
11.1823343
11
-4.67679167
21
11.1904325
0
LINE
8
0
10
-4.67679167
20
11.1904325
11
-5.08217919
21
11.3281329
0
LINE
8
0
10
-5.08217919
20
11.3281329
11
-5.14083767
21
11.3480577
0
LINE
8
0
10
-5.14083767
20
11.3480577
11
-5.51157183
21
11.562198
0
LINE
8
0
10
-5.51157183
20
11.562198
11
-5.56521606
21
11.5931835
0
LINE
8
0
10
-5.56521606
20
11.5931835
11
-5.88704962
21
11.8755366
0
LINE
8
0
10
-5.88704962
20
11.8755366
11
-5.93361807
21
11.9163923
0
LINE
8
0
10
-5.93361807
20
11.9163923
11
-6.7975418
21
12.8391591
0
LINE
8
0
10
-6.7975418
20
12.8391591
11
-12.7681007
21
19.2163811
0
LINE
8
0
10
-12.7681007
20
19.2163811
11
-13.028666
21
19.5560955
0
LINE
8
0
10
-13.028666
20
19.5560955
11
-13.0663691
21
19.6052513
0
LINE
8
0
10
-13.0663691
20
19.6052513
11
-13.2556531
21
19.989273
0
LINE
8
0
10
-13.2556531
20
19.989273
11
-13.2556531
21
19.989273
0
LINE
8
0
10
-2.14011359
20
29.8347607
11
-2.3293974
21
30.2187823
0
LINE
8
0
10
-2.3293974
20
30.2187823
11
-2.35678625
21
30.2743492
0
LINE
8
0
10
-2.35678625
20
30.2743492
11
-2.46751421
21
30.6879168
0
LINE
8
0
10
-2.46751421
20
30.6879168
11
-2.48353624
21
30.7477589
0
LINE
8
0
10
-2.48353624
20
30.7477589
11
-2.51145338
21
31.1749846
0
LINE
8
0
10
-2.51145338
20
31.1749846
11
-2.51549292
21
31.2368031
0
LINE
8
0
10
-2.51549292
20
31.2368031
11
-2.45952617
21
31.6612645
0
LINE
8
0
10
-2.45952617
20
31.6612645
11
-2.45142794
21
31.722683
0
LINE
8
0
10
-2.45142794
20
31.722683
11
-2.31372844
21
32.1280709
0
LINE
8
0
10
-2.31372844
20
32.1280709
11
-2.29380369
21
32.1867294
0
LINE
8
0
10
-2.29380369
20
32.1867294
11
-2.0796626
21
32.5574628
0
LINE
8
0
10
-2.0796626
20
32.5574628
11
-2.04867697
21
32.6111069
0
LINE
8
0
10
-2.04867697
20
32.6111069
11
-1.76632409
21
32.9329392
0
LINE
8
0
10
-1.76632409
20
32.9329392
11
-1.7254684
21
32.9795074
0
LINE
8
0
10
-1.7254684
20
32.9795074
11
-1.38575413
21
33.2400752
0
LINE
8
0
10
-1.38575413
20
33.2400752
11
-1.3365984
21
33.2777786
0
LINE
8
0
10
-1.3365984
20
33.2777786
11
-0.952577838
21
33.467061
0
LINE
8
0
10
-0.952577838
20
33.467061
11
-0.897011101
21
33.4944496
0
LINE
8
0
10
-0.897011101
20
33.4944496
11
-0.483441992
21
33.6051784
0
LINE
8
0
10
-0.483441992
20
33.6051784
11
-0.42359966
21
33.6212006
0
LINE
8
0
10
-0.42359966
20
33.6212006
11
0.00362481948
21
33.6491169
0
LINE
8
0
10
0.00362481948
20
33.6491169
11
0.0654430464
21
33.6531563
0
LINE
8
0
10
0.0654430464
20
33.6531563
11
0.489904875
21
33.5971904
0
LINE
8
0
10
0.489904875
20
33.5971904
11
0.551323354
21
33.5890923
0
LINE
8
0
10
0.551323354
20
33.5890923
11
0.956710721
21
33.4513936
0
LINE
8
0
10
0.956710721
20
33.4513936
11
1.01536918
21
33.431469
0
LINE
8
0
10
1.01536918
20
33.431469
11
1.38610324
21
33.2173262
0
LINE
8
0
10
1.38610324
20
33.2173262
11
1.43974745
21
33.1863403
0
LINE
8
0
10
1.43974745
20
33.1863403
11
1.76158122
21
32.9039881
0
LINE
8
0
10
1.76158122
20
32.9039881
11
1.8081497
21
32.8631325
0
LINE
8
0
10
1.8081497
20
32.8631325
11
2.67207344
21
31.9403656
0
LINE
8
0
10
2.67207344
20
31.9403656
11
8.64263248
21
25.5631428
0
LINE
8
0
10
8.64263248
20
25.5631428
11
8.90319772
21
25.2234283
0
LINE
8
0
10
8.90319772
20
25.2234283
11
8.9409008
21
25.1742725
0
LINE
8
0
10
8.9409008
20
25.1742725
11
9.13018482
21
24.7902526
0
LINE
8
0
10
9.13018482
20
24.7902526
11
9.1575737
21
24.7346859
0
LINE
8
0
10
9.1575737
20
24.7346859
11
9.26830166
21
24.3211167
0
LINE
8
0
10
9.26830166
20
24.3211167
11
9.28432369
21
24.2612743
0
LINE
8
0
10
9.28432369
20
24.2612743
11
9.31224083
21
23.8340502
0
LINE
8
0
10
9.31224083
20
23.8340502
11
9.31628036
21
23.7722321
0
LINE
8
0
10
9.31628036
20
23.7722321
11
9.26031362
21
23.3477706
0
LINE
8
0
10
9.26031362
20
23.3477706
11
9.25221539
21
23.2863522
0
LINE
8
0
10
9.25221539
20
23.2863522
11
9.11451589
21
22.8809642
0
LINE
8
0
10
9.11451589
20
22.8809642
11
9.09459114
21
22.8223057
0
LINE
8
0
10
9.09459114
20
22.8223057
11
8.88045005
21
22.4515707
0
LINE
8
0
10
8.88045005
20
22.4515707
11
8.84946442
21
22.3979263
0
LINE
8
0
10
8.84946442
20
22.3979263
11
8.56711133
21
22.076094
0
LINE
8
0
10
8.56711133
20
22.076094
11
8.52625561
21
22.0295258
0
LINE
8
0
10
8.52625561
20
22.0295258
11
8.18654197
21
21.7689597
0
LINE
8
0
10
8.18654197
20
21.7689597
11
8.13738632
21
21.7312565
0
LINE
8
0
10
8.13738632
20
21.7312565
11
7.7533655
21
21.5419725
0
LINE
8
0
10
7.7533655
20
21.5419725
11
7.69779873
21
21.5145836
0
LINE
8
0
10
7.69779873
20
21.5145836
11
7.28422952
21
21.4038565
0
LINE
8
0
10
7.28422952
20
21.4038565
11
7.22438717
21
21.3878345
0
LINE
8
0
10
7.22438717
20
21.3878345
11
6.79716264
21
21.3599166
0
LINE
8
0
10
6.79716264
20
21.3599166
11
6.73534441
21
21.3558769
0
LINE
8
0
10
6.73534441
20
21.3558769
11
6.31088252
21
21.4118445
0
LINE
8
0
10
6.31088252
20
21.4118445
11
6.24946404
21
21.4199429
0
LINE
8
0
10
6.24946404
20
21.4199429
11
5.84407693
21
21.5576415
0
LINE
8
0
10
5.84407693
20
21.5576415
11
5.78541851
21
21.5775661
0
LINE
8
0
10
5.78541851
20
21.5775661
11
5.41468435
21
21.7917072
0
LINE
8
0
10
5.41468435
20
21.7917072
11
5.36104012
21
21.8226929
0
LINE
8
0
10
5.36104012
20
21.8226929
11
5.03920614
21
22.1050451
0
LINE
8
0
10
5.03920614
20
22.1050451
11
4.99263763
21
22.1459007
0
LINE
8
0
10
4.99263763
20
22.1459007
11
4.1287139
21
23.0686676
0
LINE
8
0
10
4.1287139
20
23.0686676
11
-1.84184504
21
29.4458904
0
LINE
8
0
10
-1.84184504
20
29.4458904
11
-2.10241048
21
29.7856049
0
LINE
8
0
10
-2.10241048
20
29.7856049
11
-2.14011359
21
29.8347607
0
LINE
8
0
10
-2.14011359
20
29.8347607
11
-2.14011359
21
29.8347607
0
LINE
8
0
10
-12.6898622
20
46.5
11
-12.9386394
21
46.5
0
LINE
8
0
10
-12.9386394
20
46.5
11
-13.168243
21
46.5
0
LINE
8
0
10
-13.168243
20
46.5
11
-13.3612243
21
46.5
0
LINE
8
0
10
-13.3612243
20
46.5
11
-13.5067294
21
46.5
0
LINE
8
0
10
-13.5067294
20
46.5
11
-16.5874078
21
46.5
0
LINE
8
0
10
-16.5874078
20
46.5
11
-17.9439734
21
46.5
0
LINE
8
0
10
-17.9439734
20
46.5
11
-18.5499992
21
46.5
0
LINE
8
0
10
-18.5499992
20
46.5
11
-18.5499992
21
45.6007257
0
LINE
8
0
10
-18.5499992
20
45.6007257
11
-18.5499992
21
45.553402
0
LINE
8
0
10
-18.5499992
20
45.553402
11
-18.5499992
21
45.4555051
0
LINE
8
0
10
-18.5499992
20
45.4555051
11
-18.5499992
21
45.3094123
0
LINE
8
0
10
-18.5499992
20
45.3094123
11
-18.5499992
21
45.1215455
0
LINE
8
0
10
-18.5499992
20
45.1215455
11
-18.5499992
21
42.2735952
0
LINE
8
0
10
-18.5499992
20
42.2735952
11
-18.5499992
21
42.1811355
0
LINE
8
0
10
-18.5499992
20
42.1811355
11
-18.5499992
21
42.0673214
0
LINE
8
0
10
-18.5499992
20
42.0673214
11
-18.5499992
21
40.59916
0
LINE
8
0
10
-18.5499992
20
40.59916
11
-18.5499992
21
40.5272107
0
LINE
8
0
10
-18.5499992
20
40.5272107
11
-18.5499992
21
40.4502932
0
LINE
8
0
10
-18.5499992
20
40.4502932
11
-18.5499992
21
40.3752681
0
LINE
8
0
10
-18.5499992
20
40.3752681
11
-18.5499992
21
40.3082788
0
LINE
8
0
10
-18.5499992
20
40.3082788
11
-18.5499992
21
40.086586
0
LINE
8
0
10
-18.5499992
20
40.086586
11
-18.5499992
21
38.1974343
0
LINE
8
0
10
-18.5499992
20
38.1974343
11
-18.5499992
21
37.7917759
0
LINE
8
0
10
-18.5499992
20
37.7917759
11
-18.5499992
21
36.6388879
0
LINE
8
0
10
-18.5499992
20
36.6388879
11
-18.5499992
21
8.25806276
0
LINE
8
0
10
-18.5499992
20
8.25806276
11
-18.5499992
21
6.91101939
0
LINE
8
0
10
-18.5499992
20
6.91101939
11
-18.5499992
21
5.59501347
0
LINE
8
0
10
-18.5499992
20
5.59501347
11
-18.5499992
21
5.02672339
0
LINE
8
0
10
-18.5499992
20
5.02672339
11
-18.5499992
21
4.95889206
0
LINE
8
0
10
-18.5499992
20
4.95889206
11
-18.5499992
21
3.53004197
0
LINE
8
0
10
-18.5499992
20
3.53004197
11
-18.5499992
21
3.42331036
0
LINE
8
0
10
-18.5499992
20
3.42331036
11
-18.5499992
21
3.34004743
0
LINE
8
0
10
-18.5499992
20
3.34004743
11
-18.5499992
21
0.513879379
0
LINE
8
0
10
-18.5499992
20
0.513879379
11
-18.5499992
21
0.339161126
0
LINE
8
0
10
-18.5499992
20
0.339161126
11
-18.5499992
21
0.209176498
0
LINE
8
0
10
-18.5499992
20
0.209176498
11
-18.5499992
21
0.128761293
0
LINE
8
0
10
-18.5499992
20
0.128761293
11
-18.5499992
21
-0.624643045
0
LINE
8
0
10
-18.5499992
20
-0.624643045
11
-18.5499992
21
-0.671809638
0
LINE
8
0
10
-18.5499992
20
-0.671809638
11
-18.5499992
21
-0.687163635
0
LINE
8
0
10
-18.5499992
20
-0.687163635
11
-18.5499992
21
-1.10000002
0
LINE
8
0
10
-18.5499992
20
-1.10000002
11
-16.5874078
21
-1.10000002
0
LINE
8
0
10
-16.5874078
20
-1.10000002
11
-13.5067294
21
-1.10000002
0
LINE
8
0
10
-13.5067294
20
-1.10000002
11
-13.3612243
21
-1.10000002
0
LINE
8
0
10
-13.3612243
20
-1.10000002
11
-13.168243
21
-1.10000002
0
LINE
8
0
10
-13.168243
20
-1.10000002
11
-12.9386394
21
-1.10000002
0
LINE
8
0
10
-12.9386394
20
-1.10000002
11
-12.6898622
21
-1.10000002
0
LINE
8
0
10
-12.6898622
20
-1.10000002
11
-12.4444794
21
-1.10000002
0
LINE
8
0
10
-12.4444794
20
-1.10000002
11
-12.226711
21
-1.10000002
0
LINE
8
0
10
-12.226711
20
-1.10000002
11
-12.0578534
21
-1.10000002
0
LINE
8
0
10
-12.0578534
20
-1.10000002
11
-11.9522558
21
-1.10000002
0
LINE
8
0
10
-11.9522558
20
-1.10000002
11
0.957944644
21
-1.10000002
0
LINE
8
0
10
0.957944644
20
-1.10000002
11
1.50349261
21
-1.10000002
0
LINE
8
0
10
1.50349261
20
-1.10000002
11
11.0909781
21
-1.10000002
0
LINE
8
0
10
11.0909781
20
-1.10000002
11
11.1591376
21
-1.10000002
0
LINE
8
0
10
11.1591376
20
-1.10000002
11
11.2879536
21
-1.10000002
0
LINE
8
0
10
11.2879536
20
-1.10000002
11
11.4692206
21
-1.10000002
0
LINE
8
0
10
11.4692206
20
-1.10000002
11
11.686989
21
-1.10000002
0
LINE
8
0
10
11.686989
20
-1.10000002
11
11.9199623
21
-1.10000002
0
LINE
8
0
10
11.9199623
20
-1.10000002
11
12.1455212
21
-1.10000002
0
LINE
8
0
10
12.1455212
20
-1.10000002
11
12.3438776
21
-1.10000002
0
LINE
8
0
10
12.3438776
20
-1.10000002
11
12.5008909
21
-1.10000002
0
LINE
8
0
10
12.5008909
20
-1.10000002
11
12.6089308
21
-1.10000002
0
LINE
8
0
10
12.6089308
20
-1.10000002
11
13.75
21
-1.10000002
0
LINE
8
0
10
13.75
20
-1.10000002
11
13.75
21
1.99991737
0
LINE
8
0
10
13.75
20
1.99991737
11
13.75
21
3.93227808
0
LINE
8
0
10
13.75
20
3.93227808
11
13.75
21
15.2388785
0
LINE
8
0
10
13.75
20
15.2388785
11
13.75
21
41.5439685
0
LINE
8
0
10
13.75
20
41.5439685
11
13.75
21
43.4608653
0
LINE
8
0
10
13.75
20
43.4608653
11
13.75
21
46.5
0
LINE
8
0
10
13.75
20
46.5
11
12.6089308
21
46.5
0
LINE
8
0
10
12.6089308
20
46.5
11
12.5008909
21
46.5
0
LINE
8
0
10
12.5008909
20
46.5
11
12.3438776
21
46.5
0
LINE
8
0
10
12.3438776
20
46.5
11
12.1455212
21
46.5
0
LINE
8
0
10
12.1455212
20
46.5
11
11.9199623
21
46.5
0
LINE
8
0
10
11.9199623
20
46.5
11
11.686989
21
46.5
0
LINE
8
0
10
11.686989
20
46.5
11
11.4692206
21
46.5
0
LINE
8
0
10
11.4692206
20
46.5
11
11.2879536
21
46.5
0
LINE
8
0
10
11.2879536
20
46.5
11
11.1591376
21
46.5
0
LINE
8
0
10
11.1591376
20
46.5
11
11.0909781
21
46.5
0
LINE
8
0
10
11.0909781
20
46.5
11
1.50349261
21
46.5
0
LINE
8
0
10
1.50349261
20
46.5
11
0.957944644
21
46.5
0
LINE
8
0
10
0.957944644
20
46.5
11
-11.9522558
21
46.5
0
LINE
8
0
10
-11.9522558
20
46.5
11
-12.0578534
21
46.5
0
LINE
8
0
10
-12.0578534
20
46.5
11
-12.226711
21
46.5
0
LINE
8
0
10
-12.226711
20
46.5
11
-12.4444794
21
46.5
0
LINE
8
0
10
-12.4444794
20
46.5
11
-12.6898622
21
46.5
0
LINE
8
0
10
-12.6898622
20
46.5
11
-12.6898622
21
46.5
0
ENDSEC
0
EOF
