0
SECTION
2
ENTITIES
0
LINE
8
0
10
-13.2889543
20
46.5
11
-16.6979763
21
46.5
0
LINE
8
0
10
-16.6979763
20
46.5
11
-17.9781157
21
46.5
0
LINE
8
0
10
-17.9781157
20
46.5
11
-18.5499992
21
46.5
0
LINE
8
0
10
-18.5499992
20
46.5
11
-18.5499992
21
45.6513891
0
LINE
8
0
10
-18.5499992
20
45.6513891
11
-18.5499992
21
45.6067314
0
LINE
8
0
10
-18.5499992
20
45.6067314
11
-18.5499992
21
45.5143499
0
LINE
8
0
10
-18.5499992
20
45.5143499
11
-18.5499992
21
45.3764876
0
LINE
8
0
10
-18.5499992
20
45.3764876
11
-18.5499992
21
45.1992049
0
LINE
8
0
10
-18.5499992
20
45.1992049
11
-18.5499992
21
42.1458049
0
LINE
8
0
10
-18.5499992
20
42.1458049
11
-18.5499992
21
42.0686186
0
LINE
8
0
10
-18.5499992
20
42.0686186
11
-18.5499992
21
41.9736054
0
LINE
8
0
10
-18.5499992
20
41.9736054
11
-18.5499992
21
40.3941758
0
LINE
8
0
10
-18.5499992
20
40.3941758
11
-18.5499992
21
40.3468417
0
LINE
8
0
10
-18.5499992
20
40.3468417
11
-18.5499992
21
40.2962392
0
LINE
8
0
10
-18.5499992
20
40.2962392
11
-18.5499992
21
40.2468816
0
LINE
8
0
10
-18.5499992
20
40.2468816
11
-18.5499992
21
40.2028106
0
LINE
8
0
10
-18.5499992
20
40.2028106
11
-18.5499992
21
40.0569632
0
LINE
8
0
10
-18.5499992
20
40.0569632
11
-18.5499992
21
38.814127
0
LINE
8
0
10
-18.5499992
20
38.814127
11
-18.5499992
21
38.5472522
0
LINE
8
0
10
-18.5499992
20
38.5472522
11
-18.5499992
21
37.7887896
0
LINE
8
0
10
-18.5499992
20
37.7887896
11
-18.5499992
21
7.31447594
0
LINE
8
0
10
-18.5499992
20
7.31447594
11
-18.5499992
21
6.42828227
0
LINE
8
0
10
-18.5499992
20
6.42828227
11
-18.5499992
21
5.56250752
0
LINE
8
0
10
-18.5499992
20
5.56250752
11
-18.5499992
21
5.18864051
0
LINE
8
0
10
-18.5499992
20
5.18864051
11
-18.5499992
21
5.14401559
0
LINE
8
0
10
-18.5499992
20
5.14401559
11
-18.5499992
21
3.60767444
0
LINE
8
0
10
-18.5499992
20
3.60767444
11
-18.5499992
21
3.51857384
0
LINE
8
0
10
-18.5499992
20
3.51857384
11
-18.5499992
21
3.44906513
0
LINE
8
0
10
-18.5499992
20
3.44906513
11
-18.5499992
21
0.422956596
0
LINE
8
0
10
-18.5499992
20
0.422956596
11
-18.5499992
21
0.258081625
0
LINE
8
0
10
-18.5499992
20
0.258081625
11
-18.5499992
21
0.135420074
0
LINE
8
0
10
-18.5499992
20
0.135420074
11
-18.5499992
21
0.0595353032
0
LINE
8
0
10
-18.5499992
20
0.0595353032
11
-18.5499992
21
-0.65142372
0
LINE
8
0
10
-18.5499992
20
-0.65142372
11
-18.5499992
21
-0.69593304
0
LINE
8
0
10
-18.5499992
20
-0.69593304
11
-18.5499992
21
-0.710422023
0
LINE
8
0
10
-18.5499992
20
-0.710422023
11
-18.5499992
21
-1.10000002
0
LINE
8
0
10
-18.5499992
20
-1.10000002
11
-16.6979763
21
-1.10000002
0
LINE
8
0
10
-16.6979763
20
-1.10000002
11
-13.2889543
21
-1.10000002
0
LINE
8
0
10
-13.2889543
20
-1.10000002
11
-13.1279411
21
-1.10000002
0
LINE
8
0
10
-13.1279411
20
-1.10000002
11
-12.9143916
21
-1.10000002
0
LINE
8
0
10
-12.9143916
20
-1.10000002
11
-12.6603165
21
-1.10000002
0
LINE
8
0
10
-12.6603165
20
-1.10000002
11
-12.3850242
21
-1.10000002
0
LINE
8
0
10
-12.3850242
20
-1.10000002
11
-12.1134881
21
-1.10000002
0
LINE
8
0
10
-12.1134881
20
-1.10000002
11
-11.8725096
21
-1.10000002
0
LINE
8
0
10
-11.8725096
20
-1.10000002
11
-11.685655
21
-1.10000002
0
LINE
8
0
10
-11.685655
20
-1.10000002
11
-11.5688025
21
-1.10000002
0
LINE
8
0
10
-11.5688025
20
-1.10000002
11
-0.405452702
21
-1.10000002
0
LINE
8
0
10
-0.405452702
20
-1.10000002
11
0.198240621
21
-1.10000002
0
LINE
8
0
10
0.198240621
20
-1.10000002
11
10.8075753
21
-1.10000002
0
LINE
8
0
10
10.8075753
20
-1.10000002
11
10.8829994
21
-1.10000002
0
LINE
8
0
10
10.8829994
20
-1.10000002
11
11.0255448
21
-1.10000002
0
LINE
8
0
10
11.0255448
20
-1.10000002
11
11.2261316
21
-1.10000002
0
LINE
8
0
10
11.2261316
20
-1.10000002
11
11.4671101
21
-1.10000002
0
LINE
8
0
10
11.4671101
20
-1.10000002
11
11.724914
21
-1.10000002
0
LINE
8
0
10
11.724914
20
-1.10000002
11
11.9745133
21
-1.10000002
0
LINE
8
0
10
11.9745133
20
-1.10000002
11
12.1940108
21
-1.10000002
0
LINE
8
0
10
12.1940108
20
-1.10000002
11
12.3677589
21
-1.10000002
0
LINE
8
0
10
12.3677589
20
-1.10000002
11
12.4873139
21
-1.10000002
0
LINE
8
0
10
12.4873139
20
-1.10000002
11
13.75
21
-1.10000002
0
LINE
8
0
10
13.75
20
-1.10000002
11
13.75
21
2.33031144
0
LINE
8
0
10
13.75
20
2.33031144
11
13.75
21
4.46862618
0
LINE
8
0
10
13.75
20
4.46862618
11
13.75
21
11.9070191
0
LINE
8
0
10
13.75
20
11.9070191
11
13.75
21
41.0157469
0
LINE
8
0
10
13.75
20
41.0157469
11
13.75
21
43.1369496
0
LINE
8
0
10
13.75
20
43.1369496
11
13.75
21
46.5
0
LINE
8
0
10
13.75
20
46.5
11
12.4873139
21
46.5
0
LINE
8
0
10
12.4873139
20
46.5
11
12.3677589
21
46.5
0
LINE
8
0
10
12.3677589
20
46.5
11
12.1940108
21
46.5
0
LINE
8
0
10
12.1940108
20
46.5
11
11.9745133
21
46.5
0
LINE
8
0
10
11.9745133
20
46.5
11
11.724914
21
46.5
0
LINE
8
0
10
11.724914
20
46.5
11
11.4671101
21
46.5
0
LINE
8
0
10
11.4671101
20
46.5
11
11.2261316
21
46.5
0
LINE
8
0
10
11.2261316
20
46.5
11
11.0255448
21
46.5
0
LINE
8
0
10
11.0255448
20
46.5
11
10.8829994
21
46.5
0
LINE
8
0
10
10.8829994
20
46.5
11
10.8075753
21
46.5
0
LINE
8
0
10
10.8075753
20
46.5
11
0.198240621
21
46.5
0
LINE
8
0
10
0.198240621
20
46.5
11
-0.405452702
21
46.5
0
LINE
8
0
10
-0.405452702
20
46.5
11
-11.5688025
21
46.5
0
LINE
8
0
10
-11.5688025
20
46.5
11
-11.685655
21
46.5
0
LINE
8
0
10
-11.685655
20
46.5
11
-11.8725096
21
46.5
0
LINE
8
0
10
-11.8725096
20
46.5
11
-12.1134881
21
46.5
0
LINE
8
0
10
-12.1134881
20
46.5
11
-12.3850242
21
46.5
0
LINE
8
0
10
-12.3850242
20
46.5
11
-12.6603165
21
46.5
0
LINE
8
0
10
-12.6603165
20
46.5
11
-12.9143916
21
46.5
0
LINE
8
0
10
-12.9143916
20
46.5
11
-13.1279411
21
46.5
0
LINE
8
0
10
-13.1279411
20
46.5
11
-13.2889543
21
46.5
0
LINE
8
0
10
-13.2889543
20
46.5
11
-13.2889543
21
46.5
0
LINE
8
0
10
3.40226603
20
13.1730547
11
3.41771766
21
13.1678062
0
LINE
8
0
10
3.41771766
20
13.1678062
11
3.86631179
21
13.0154305
0
LINE
8
0
10
3.86631179
20
13.0154305
11
3.88249045
21
13.0132972
0
LINE
8
0
10
3.88249045
20
13.0132972
11
4.35219193
21
12.9513655
0
LINE
8
0
10
4.35219193
20
12.9513655
11
4.3684759
21
12.9524296
0
LINE
8
0
10
4.3684759
20
12.9524296
11
4.84123468
21
12.9833221
0
LINE
8
0
10
4.84123468
20
12.9833221
11
4.85699817
21
12.9875426
0
LINE
8
0
10
4.85699817
20
12.9875426
11
5.31464624
21
13.1100721
0
LINE
8
0
10
5.31464624
20
13.1100721
11
5.32928346
21
13.1172868
0
LINE
8
0
10
5.32928346
20
13.1172868
11
5.75423336
21
13.326745
0
LINE
8
0
10
5.75423336
20
13.326745
11
5.76718182
21
13.3366767
0
LINE
8
0
10
5.76718182
20
13.3366767
11
6.1431036
21
13.6250134
0
LINE
8
0
10
6.1431036
20
13.6250134
11
6.15386568
21
13.6372803
0
LINE
8
0
10
6.15386568
20
13.6372803
11
6.46631193
21
13.9934158
0
LINE
8
0
10
6.46631193
20
13.9934158
11
6.47447407
21
14.0075466
0
LINE
8
0
10
6.47447407
20
14.0075466
11
6.71143866
21
14.4177942
0
LINE
8
0
10
6.71143866
20
14.4177942
11
6.71668719
21
14.4332459
0
LINE
8
0
10
6.71668719
20
14.4332459
11
6.86906338
21
14.8818398
0
LINE
8
0
10
6.86906338
20
14.8818398
11
6.87119657
21
14.8980184
0
LINE
8
0
10
6.87119657
20
14.8980184
11
6.93312788
21
15.3677197
0
LINE
8
0
10
6.93312788
20
15.3677197
11
6.9320638
21
15.3840036
0
LINE
8
0
10
6.9320638
20
15.3840036
11
6.90117121
21
15.8567629
0
LINE
8
0
10
6.90117121
20
15.8567629
11
6.89695073
21
15.8725263
0
LINE
8
0
10
6.89695073
20
15.8725263
11
6.77442122
21
16.3301735
0
LINE
8
0
10
6.77442122
20
16.3301735
11
6.76720653
21
16.3448108
0
LINE
8
0
10
6.76720653
20
16.3448108
11
6.55774879
21
16.769762
0
LINE
8
0
10
6.55774879
20
16.769762
11
6.54781715
21
16.7827105
0
LINE
8
0
10
6.54781715
20
16.7827105
11
6.25948
21
17.1586323
0
LINE
8
0
10
6.25948
20
17.1586323
11
-6.95434097
21
31.2724649
0
LINE
8
0
10
-6.95434097
20
31.2724649
11
-7.40948534
21
31.7586098
0
LINE
8
0
10
-7.40948534
20
31.7586098
11
-7.42175228
21
31.7693718
0
LINE
8
0
10
-7.42175228
20
31.7693718
11
-7.77788782
21
32.0818176
0
LINE
8
0
10
-7.77788782
20
32.0818176
11
-7.79201861
21
32.0899798
0
LINE
8
0
10
-7.79201861
20
32.0899798
11
-8.20226574
21
32.3269463
0
LINE
8
0
10
-8.20226574
20
32.3269463
11
-8.21771739
21
32.3321947
0
LINE
8
0
10
-8.21771739
20
32.3321947
11
-8.66631222
21
32.4845695
0
LINE
8
0
10
-8.66631222
20
32.4845695
11
-8.68249087
21
32.4867027
0
LINE
8
0
10
-8.68249087
20
32.4867027
11
-9.15219212
21
32.5486336
0
LINE
8
0
10
-9.15219212
20
32.5486336
11
-9.16847607
21
32.5475695
0
LINE
8
0
10
-9.16847607
20
32.5475695
11
-9.6412344
21
32.5166779
0
LINE
8
0
10
-9.6412344
20
32.5166779
11
-9.65699789
21
32.5124573
0
LINE
8
0
10
-9.65699789
20
32.5124573
11
-10.114646
21
32.3899269
0
LINE
8
0
10
-10.114646
20
32.3899269
11
-10.1292832
21
32.3827123
0
LINE
8
0
10
-10.1292832
20
32.3827123
11
-10.5542336
21
32.1732559
0
LINE
8
0
10
-10.5542336
20
32.1732559
11
-10.567182
21
32.1633243
0
LINE
8
0
10
-10.567182
20
32.1633243
11
-10.9431038
21
31.8749866
0
LINE
8
0
10
-10.9431038
20
31.8749866
11
-10.9538659
21
31.8627197
0
LINE
8
0
10
-10.9538659
20
31.8627197
11
-11.2663126
21
31.5065842
0
LINE
8
0
10
-11.2663126
20
31.5065842
11
-11.2744747
21
31.4924534
0
LINE
8
0
10
-11.2744747
20
31.4924534
11
-11.5114384
21
31.0822067
0
LINE
8
0
10
-11.5114384
20
31.0822067
11
-11.5166869
21
31.0667551
0
LINE
8
0
10
-11.5166869
20
31.0667551
11
-11.6690636
21
30.6181602
0
LINE
8
0
10
-11.6690636
20
30.6181602
11
-11.6711968
21
30.6019816
0
LINE
8
0
10
-11.6711968
20
30.6019816
11
-11.7331285
21
30.1322803
0
LINE
8
0
10
-11.7331285
20
30.1322803
11
-11.7320645
21
30.1159964
0
LINE
8
0
10
-11.7320645
20
30.1159964
11
-11.7011719
21
29.6432381
0
LINE
8
0
10
-11.7011719
20
29.6432381
11
-11.6969514
21
29.6274746
0
LINE
8
0
10
-11.6969514
20
29.6274746
11
-11.5744209
21
29.1698265
0
LINE
8
0
10
-11.5744209
20
29.1698265
11
-11.5672063
21
29.1551892
0
LINE
8
0
10
-11.5672063
20
29.1551892
11
-11.357749
21
28.730238
0
LINE
8
0
10
-11.357749
20
28.730238
11
-11.3478173
21
28.7172895
0
LINE
8
0
10
-11.3478173
20
28.7172895
11
-11.0594797
21
28.3413677
0
LINE
8
0
10
-11.0594797
20
28.3413677
11
2.15434102
21
14.2275351
0
LINE
8
0
10
2.15434102
20
14.2275351
11
2.60948539
21
13.7413902
0
LINE
8
0
10
2.60948539
20
13.7413902
11
2.62175232
21
13.7306281
0
LINE
8
0
10
2.62175232
20
13.7306281
11
2.97788763
21
13.4181814
0
LINE
8
0
10
2.97788763
20
13.4181814
11
2.99201843
21
13.4100193
0
LINE
8
0
10
2.99201843
20
13.4100193
11
3.40226603
21
13.1730547
0
LINE
8
0
10
3.40226603
20
13.1730547
11
3.40226603
21
13.1730547
0
LINE
8
0
10
8.85762656
20
22.4120572
11
9.09459114
21
22.8223057
0
LINE
8
0
10
9.09459114
20
22.8223057
11
9.09983966
21
22.8377573
0
LINE
8
0
10
9.09983966
20
22.8377573
11
9.25221539
21
23.2863522
0
LINE
8
0
10
9.25221539
20
23.2863522
11
9.2543486
21
23.3025308
0
LINE
8
0
10
9.2543486
20
23.3025308
11
9.31628036
21
23.7722321
0
LINE
8
0
10
9.31628036
20
23.7722321
11
9.31521628
21
23.788516
0
LINE
8
0
10
9.31521628
20
23.788516
11
9.28432369
21
24.2612743
0
LINE
8
0
10
9.28432369
20
24.2612743
11
9.28010322
21
24.2770378
0
LINE
8
0
10
9.28010322
20
24.2770378
11
9.1575737
21
24.7346859
0
LINE
8
0
10
9.1575737
20
24.7346859
11
9.150359
21
24.7493231
0
LINE
8
0
10
9.150359
20
24.7493231
11
8.9409008
21
25.1742725
0
LINE
8
0
10
8.9409008
20
25.1742725
11
8.93096917
21
25.187221
0
LINE
8
0
10
8.93096917
20
25.187221
11
8.64263248
21
25.5631428
0
LINE
8
0
10
8.64263248
20
25.5631428
11
2.03572188
21
32.62006
0
LINE
8
0
10
2.03572188
20
32.62006
11
1.8081497
21
32.8631325
0
LINE
8
0
10
1.8081497
20
32.8631325
11
1.79588277
21
32.8738945
0
LINE
8
0
10
1.79588277
20
32.8738945
11
1.43974745
21
33.1863403
0
LINE
8
0
10
1.43974745
20
33.1863403
11
1.42561666
21
33.1945025
0
LINE
8
0
10
1.42561666
20
33.1945025
11
1.01536918
21
33.431469
0
LINE
8
0
10
1.01536918
20
33.431469
11
0.999917543
21
33.4367174
0
LINE
8
0
10
0.999917543
20
33.4367174
11
0.551323354
21
33.5890923
0
LINE
8
0
10
0.551323354
20
33.5890923
11
0.535144684
21
33.5912254
0
LINE
8
0
10
0.535144684
20
33.5912254
11
0.0654430464
21
33.6531563
0
LINE
8
0
10
0.0654430464
20
33.6531563
11
0.0491590754
21
33.6520922
0
LINE
8
0
10
0.0491590754
20
33.6520922
11
-0.42359966
21
33.6212006
0
LINE
8
0
10
-0.42359966
20
33.6212006
11
-0.439363147
21
33.6169801
0
LINE
8
0
10
-0.439363147
20
33.6169801
11
-0.897011101
21
33.4944496
0
LINE
8
0
10
-0.897011101
20
33.4944496
11
-0.911648323
21
33.487235
0
LINE
8
0
10
-0.911648323
20
33.487235
11
-1.3365984
21
33.2777786
0
LINE
8
0
10
-1.3365984
20
33.2777786
11
-1.34954685
21
33.2678469
0
LINE
8
0
10
-1.34954685
20
33.2678469
11
-1.7254684
21
32.9795074
0
LINE
8
0
10
-1.7254684
20
32.9795074
11
-1.73623048
21
32.9672406
0
LINE
8
0
10
-1.73623048
20
32.9672406
11
-2.04867697
21
32.6111069
0
LINE
8
0
10
-2.04867697
20
32.6111069
11
-2.05683911
21
32.5969761
0
LINE
8
0
10
-2.05683911
20
32.5969761
11
-2.29380369
21
32.1867294
0
LINE
8
0
10
-2.29380369
20
32.1867294
11
-2.29905221
21
32.1712778
0
LINE
8
0
10
-2.29905221
20
32.1712778
11
-2.45142794
21
31.722683
0
LINE
8
0
10
-2.45142794
20
31.722683
11
-2.45356115
21
31.7065043
0
LINE
8
0
10
-2.45356115
20
31.7065043
11
-2.51549292
21
31.2368031
0
LINE
8
0
10
-2.51549292
20
31.2368031
11
-2.51442883
21
31.220519
0
LINE
8
0
10
-2.51442883
20
31.220519
11
-2.48353624
21
30.7477589
0
LINE
8
0
10
-2.48353624
20
30.7477589
11
-2.47931577
21
30.7319954
0
LINE
8
0
10
-2.47931577
20
30.7319954
11
-2.35678625
21
30.2743492
0
LINE
8
0
10
-2.35678625
20
30.2743492
11
-2.34957156
21
30.2597119
0
LINE
8
0
10
-2.34957156
20
30.2597119
11
-2.14011359
21
29.8347607
0
LINE
8
0
10
-2.14011359
20
29.8347607
11
-2.13018195
21
29.8218122
0
LINE
8
0
10
-2.13018195
20
29.8218122
11
-1.84184504
21
29.4458904
0
LINE
8
0
10
-1.84184504
20
29.4458904
11
4.76506545
21
22.3889732
0
LINE
8
0
10
4.76506545
20
22.3889732
11
4.99263763
21
22.1459007
0
LINE
8
0
10
4.99263763
20
22.1459007
11
5.00490457
21
22.1351387
0
LINE
8
0
10
5.00490457
20
22.1351387
11
5.36104012
21
21.8226929
0
LINE
8
0
10
5.36104012
20
21.8226929
11
5.37517092
21
21.8145307
0
LINE
8
0
10
5.37517092
20
21.8145307
11
5.78541851
21
21.5775661
0
LINE
8
0
10
5.78541851
20
21.5775661
11
5.80087013
21
21.5723177
0
LINE
8
0
10
5.80087013
20
21.5723177
11
6.24946404
21
21.4199429
0
LINE
8
0
10
6.24946404
20
21.4199429
11
6.26564271
21
21.4178096
0
LINE
8
0
10
6.26564271
20
21.4178096
11
6.73534441
21
21.3558769
0
LINE
8
0
10
6.73534441
20
21.3558769
11
6.75162838
21
21.356941
0
LINE
8
0
10
6.75162838
20
21.356941
11
7.22438717
21
21.3878345
0
LINE
8
0
10
7.22438717
20
21.3878345
11
7.24015066
21
21.392055
0
LINE
8
0
10
7.24015066
20
21.392055
11
7.69779873
21
21.5145836
0
LINE
8
0
10
7.69779873
20
21.5145836
11
7.71243596
21
21.5217983
0
LINE
8
0
10
7.71243596
20
21.5217983
11
8.13738632
21
21.7312565
0
LINE
8
0
10
8.13738632
20
21.7312565
11
8.15033475
21
21.7411881
0
LINE
8
0
10
8.15033475
20
21.7411881
11
8.52625561
21
22.0295258
0
LINE
8
0
10
8.52625561
20
22.0295258
11
8.5370177
21
22.0417926
0
LINE
8
0
10
8.5370177
20
22.0417926
11
8.84946442
21
22.3979263
0
LINE
8
0
10
8.84946442
20
22.3979263
11
8.85762656
21
22.4120572
0
LINE
8
0
10
8.85762656
20
22.4120572
11
8.85762656
21
22.4120572
0
LINE
8
0
10
-1.67404032
20
13.0568419
11
-1.82641628
21
12.6082479
0
LINE
8
0
10
-1.82641628
20
12.6082479
11
-1.8316648
21
12.5927963
0
LINE
8
0
10
-1.8316648
20
12.5927963
11
-2.06862915
21
12.1825487
0
LINE
8
0
10
-2.06862915
20
12.1825487
11
-2.07679129
21
12.1684179
0
LINE
8
0
10
-2.07679129
20
12.1684179
11
-2.389238
21
11.8122833
0
LINE
8
0
10
-2.389238
20
11.8122833
11
-2.4000001
21
11.8000164
0
LINE
8
0
10
-2.4000001
20
11.8000164
11
-2.77592164
21
11.5116788
0
LINE
8
0
10
-2.77592164
20
11.5116788
11
-2.7888701
21
11.5017471
0
LINE
8
0
10
-2.7888701
20
11.5017471
11
-3.21382
21
11.2922899
0
LINE
8
0
10
-3.21382
20
11.2922899
11
-3.22845721
21
11.2850752
0
LINE
8
0
10
-3.22845721
20
11.2850752
11
-3.68610528
21
11.1625447
0
LINE
8
0
10
-3.68610528
20
11.1625447
11
-3.70186877
21
11.1583242
0
LINE
8
0
10
-3.70186877
20
11.1583242
11
-4.17462733
21
11.1274317
0
LINE
8
0
10
-4.17462733
20
11.1274317
11
-4.19091129
21
11.1263676
0
LINE
8
0
10
-4.19091129
20
11.1263676
11
-4.660613
21
11.1882993
0
LINE
8
0
10
-4.660613
20
11.1882993
11
-4.67679167
21
11.1904325
0
LINE
8
0
10
-4.67679167
20
11.1904325
11
-5.12538603
21
11.3428092
0
LINE
8
0
10
-5.12538603
20
11.3428092
11
-5.14083767
21
11.3480577
0
LINE
8
0
10
-5.14083767
20
11.3480577
11
-5.55108526
21
11.5850214
0
LINE
8
0
10
-5.55108526
20
11.5850214
11
-5.56521606
21
11.5931835
0
LINE
8
0
10
-5.56521606
20
11.5931835
11
-5.92135115
21
11.9056302
0
LINE
8
0
10
-5.92135115
20
11.9056302
11
-5.93361807
21
11.9163923
0
LINE
8
0
10
-5.93361807
20
11.9163923
11
-6.16119025
21
12.1594648
0
LINE
8
0
10
-6.16119025
20
12.1594648
11
-12.7681007
21
19.2163811
0
LINE
8
0
10
-12.7681007
20
19.2163811
11
-13.0564374
21
19.5923028
0
LINE
8
0
10
-13.0564374
20
19.5923028
11
-13.0663691
21
19.6052513
0
LINE
8
0
10
-13.0663691
20
19.6052513
11
-13.2758273
21
20.0302026
0
LINE
8
0
10
-13.2758273
20
20.0302026
11
-13.283042
21
20.0448399
0
LINE
8
0
10
-13.283042
20
20.0448399
11
-13.4055715
21
20.5024879
0
LINE
8
0
10
-13.4055715
20
20.5024879
11
-13.4097919
21
20.5182514
0
LINE
8
0
10
-13.4097919
20
20.5182514
11
-13.4406845
21
20.9910097
0
LINE
8
0
10
-13.4406845
20
20.9910097
11
-13.4417486
21
21.0072937
0
LINE
8
0
10
-13.4417486
20
21.0072937
11
-13.3798169
21
21.4769949
0
LINE
8
0
10
-13.3798169
20
21.4769949
11
-13.3776836
21
21.4931736
0
LINE
8
0
10
-13.3776836
20
21.4931736
11
-13.2253079
21
21.9417684
0
LINE
8
0
10
-13.2253079
20
21.9417684
11
-13.2200594
21
21.9572201
0
LINE
8
0
10
-13.2200594
20
21.9572201
11
-12.9830948
21
22.3674667
0
LINE
8
0
10
-12.9830948
20
22.3674667
11
-12.9749327
21
22.3815975
0
LINE
8
0
10
-12.9749327
20
22.3815975
11
-12.662486
21
22.7377331
0
LINE
8
0
10
-12.662486
20
22.7377331
11
-12.6517239
21
22.75
0
LINE
8
0
10
-12.6517239
20
22.75
11
-12.275803
21
23.0383376
0
LINE
8
0
10
-12.275803
20
23.0383376
11
-12.2628546
21
23.0482693
0
LINE
8
0
10
-12.2628546
20
23.0482693
11
-11.8379042
21
23.2577256
0
LINE
8
0
10
-11.8379042
20
23.2577256
11
-11.823267
21
23.2649403
0
LINE
8
0
10
-11.823267
20
23.2649403
11
-11.3656189
21
23.3874707
0
LINE
8
0
10
-11.3656189
20
23.3874707
11
-11.3498554
21
23.3916912
0
LINE
8
0
10
-11.3498554
20
23.3916912
11
-10.8770971
21
23.4225847
0
LINE
8
0
10
-10.8770971
20
23.4225847
11
-10.8608131
21
23.4236488
0
LINE
8
0
10
-10.8608131
20
23.4236488
11
-10.391111
21
23.3617161
0
LINE
8
0
10
-10.391111
20
23.3617161
11
-10.3749323
21
23.3595829
0
LINE
8
0
10
-10.3749323
20
23.3595829
11
-9.92633839
21
23.2072063
0
LINE
8
0
10
-9.92633839
20
23.2072063
11
-9.91088676
21
23.2019577
0
LINE
8
0
10
-9.91088676
20
23.2019577
11
-9.50063917
21
22.964995
0
LINE
8
0
10
-9.50063917
20
22.964995
11
-9.48650837
21
22.9568329
0
LINE
8
0
10
-9.48650837
20
22.9568329
11
-9.13037282
21
22.6443852
0
LINE
8
0
10
-9.13037282
20
22.6443852
11
-9.11810589
21
22.6336231
0
LINE
8
0
10
-9.11810589
20
22.6336231
11
-8.89053371
21
22.3905507
0
LINE
8
0
10
-8.89053371
20
22.3905507
11
-2.28362346
21
15.3336344
0
LINE
8
0
10
-2.28362346
20
15.3336344
11
-1.99528643
21
14.9577126
0
LINE
8
0
10
-1.99528643
20
14.9577126
11
-1.98535478
21
14.9447641
0
LINE
8
0
10
-1.98535478
20
14.9447641
11
-1.77589681
21
14.5198138
0
LINE
8
0
10
-1.77589681
20
14.5198138
11
-1.76868212
21
14.5051765
0
LINE
8
0
10
-1.76868212
20
14.5051765
11
-1.64615249
21
14.0475285
0
LINE
8
0
10
-1.64615249
20
14.0475285
11
-1.64193201
21
14.031765
0
LINE
8
0
10
-1.64193201
20
14.031765
11
-1.61103954
21
13.5590067
0
LINE
8
0
10
-1.61103954
20
13.5590067
11
-1.60997546
21
13.5427227
0
LINE
8
0
10
-1.60997546
20
13.5427227
11
-1.67190711
21
13.0730205
0
LINE
8
0
10
-1.67190711
20
13.0730205
11
-1.67404032
21
13.0568419
0
LINE
8
0
10
-1.67404032
20
13.0568419
11
-1.67404032
21
13.0568419
0
ENDSEC
0
EOF
