0
SECTION
2
ENTITIES
0
LINE
8
0
10
-1.93531825
20
29.5485781
11
-2.12876513
21
29.8007862
0
LINE
8
0
10
-2.12876513
20
29.8007862
11
-2.19758789
21
29.9218691
0
LINE
8
0
10
-2.19758789
20
29.9218691
11
-2.33811443
21
30.2069713
0
LINE
8
0
10
-2.33811443
20
30.2069713
11
-2.38714839
21
30.3373292
0
LINE
8
0
10
-2.38714839
20
30.3373292
11
-2.46935414
21
30.6443667
0
LINE
8
0
10
-2.46935414
20
30.6443667
11
-2.49739199
21
30.7807909
0
LINE
8
0
10
-2.49739199
20
30.7807909
11
-2.51811801
21
31.0979684
0
LINE
8
0
10
-2.51811801
20
31.0979684
11
-2.52446916
21
31.2370987
0
LINE
8
0
10
-2.52446916
20
31.2370987
11
-2.50897736
21
31.3755097
0
LINE
8
0
10
-2.50897736
20
31.3755097
11
-2.46742699
21
31.6906349
0
LINE
8
0
10
-2.46742699
20
31.6906349
11
-2.43047372
21
31.8249182
0
LINE
8
0
10
-2.43047372
20
31.8249182
11
-2.32824398
21
32.125883
0
LINE
8
0
10
-2.32824398
20
32.125883
11
-2.2707391
21
32.2527319
0
LINE
8
0
10
-2.2707391
20
32.2527319
11
-2.11175822
21
32.5279687
0
LINE
8
0
10
-2.11175822
20
32.5279687
11
-2.03511766
21
32.6442616
0
LINE
8
0
10
-2.03511766
20
32.6442616
11
-1.82549554
21
32.8831937
0
LINE
8
0
10
-1.82549554
20
32.8831937
11
-1.73160652
21
32.9860644
0
LINE
8
0
10
-1.73160652
20
32.9860644
11
-1.62278085
21
33.0729818
0
LINE
8
0
10
-1.62278085
20
33.0729818
11
-1.37057295
21
33.2664303
0
LINE
8
0
10
-1.37057295
20
33.2664303
11
-1.24949029
21
33.3352521
0
LINE
8
0
10
-1.24949029
20
33.3352521
11
-0.96438887
21
33.4757775
0
LINE
8
0
10
-0.96438887
20
33.4757775
11
-0.834030672
21
33.5248118
0
LINE
8
0
10
-0.834030672
20
33.5248118
11
-0.526992058
21
33.6070182
0
LINE
8
0
10
-0.526992058
20
33.6070182
11
-0.39056819
21
33.6350558
0
LINE
8
0
10
-0.39056819
20
33.6350558
11
-0.073391667
21
33.6557812
0
LINE
8
0
10
-0.073391667
20
33.6557812
11
0.0657386727
21
33.662133
0
LINE
8
0
10
0.0657386727
20
33.662133
11
0.204149632
21
33.6466409
0
LINE
8
0
10
0.204149632
20
33.6466409
11
0.51927513
21
33.6050911
0
LINE
8
0
10
0.51927513
20
33.6050911
11
0.653558572
21
33.5681385
0
LINE
8
0
10
0.653558572
20
33.5681385
11
0.954522963
21
33.4659093
0
LINE
8
0
10
0.954522963
20
33.4659093
11
1.08137238
21
33.4084037
0
LINE
8
0
10
1.08137238
20
33.4084037
11
1.35660974
21
33.2494216
0
LINE
8
0
10
1.35660974
20
33.2494216
11
1.47290171
21
33.1727814
0
LINE
8
0
10
1.47290171
20
33.1727814
11
1.71183492
21
32.9631597
0
LINE
8
0
10
1.71183492
20
32.9631597
11
1.81470588
21
32.8692711
0
LINE
8
0
10
1.81470588
20
32.8692711
11
2.61532885
21
32.0141163
0
LINE
8
0
10
2.61532885
20
32.0141163
11
7.04794273
21
27.2795904
0
LINE
8
0
10
7.04794273
20
27.2795904
11
7.84856574
21
26.4244356
0
LINE
8
0
10
7.84856574
20
26.4244356
11
8.64918876
21
25.5692808
0
LINE
8
0
10
8.64918876
20
25.5692808
11
8.73610578
21
25.4604551
0
LINE
8
0
10
8.73610578
20
25.4604551
11
8.92955251
21
25.208247
0
LINE
8
0
10
8.92955251
20
25.208247
11
8.99837527
21
25.0871648
0
LINE
8
0
10
8.99837527
20
25.0871648
11
9.13890196
21
24.8020638
0
LINE
8
0
10
9.13890196
20
24.8020638
11
9.18793592
21
24.6717052
0
LINE
8
0
10
9.18793592
20
24.6717052
11
9.27014167
21
24.3646665
0
LINE
8
0
10
9.27014167
20
24.3646665
11
9.29817927
21
24.228243
0
LINE
8
0
10
9.29817927
20
24.228243
11
9.31890529
21
23.9110667
0
LINE
8
0
10
9.31890529
20
23.9110667
11
9.32525678
21
23.7719365
0
LINE
8
0
10
9.32525678
20
23.7719365
11
9.30976498
21
23.6335254
0
LINE
8
0
10
9.30976498
20
23.6335254
11
9.26821461
21
23.3184002
0
LINE
8
0
10
9.26821461
20
23.3184002
11
9.23126125
21
23.1841169
0
LINE
8
0
10
9.23126125
20
23.1841169
11
9.12903151
21
22.8831521
0
LINE
8
0
10
9.12903151
20
22.8831521
11
9.07152655
21
22.7563026
0
LINE
8
0
10
9.07152655
20
22.7563026
11
8.91254566
21
22.4810645
0
LINE
8
0
10
8.91254566
20
22.4810645
11
8.83590511
21
22.3647723
0
LINE
8
0
10
8.83590511
20
22.3647723
11
8.62628283
21
22.1258402
0
LINE
8
0
10
8.62628283
20
22.1258402
11
8.53239394
21
22.0229695
0
LINE
8
0
10
8.53239394
20
22.0229695
11
8.42356827
21
21.9360521
0
LINE
8
0
10
8.42356827
20
21.9360521
11
8.17136083
21
21.7426048
0
LINE
8
0
10
8.17136083
20
21.7426048
11
8.05027809
21
21.6737824
0
LINE
8
0
10
8.05027809
20
21.6737824
11
7.76517648
21
21.5332557
0
LINE
8
0
10
7.76517648
20
21.5332557
11
7.6348182
21
21.4842214
0
LINE
8
0
10
7.6348182
20
21.4842214
11
7.3277795
21
21.4020162
0
LINE
8
0
10
7.3277795
20
21.4020162
11
7.19135561
21
21.3739786
0
LINE
8
0
10
7.19135561
20
21.3739786
11
6.87417906
21
21.353252
0
LINE
8
0
10
6.87417906
20
21.353252
11
6.7350488
21
21.3469008
0
LINE
8
0
10
6.7350488
20
21.3469008
11
6.59663779
21
21.3623923
0
LINE
8
0
10
6.59663779
20
21.3623923
11
6.28151225
21
21.4039433
0
LINE
8
0
10
6.28151225
20
21.4039433
11
6.14722882
21
21.4408967
0
LINE
8
0
10
6.14722882
20
21.4408967
11
5.84626462
21
21.5431258
0
LINE
8
0
10
5.84626462
20
21.5431258
11
5.71941523
21
21.6006307
0
LINE
8
0
10
5.71941523
20
21.6006307
11
5.44417778
21
21.7596116
0
LINE
8
0
10
5.44417778
20
21.7596116
11
5.3278859
21
21.8362525
0
LINE
8
0
10
5.3278859
20
21.8362525
11
5.08895253
21
22.0458742
0
LINE
8
0
10
5.08895253
20
22.0458742
11
4.98608153
21
22.1397627
0
LINE
8
0
10
4.98608153
20
22.1397627
11
4.18545852
21
22.9949176
0
LINE
8
0
10
4.18545852
20
22.9949176
11
-0.247155283
21
27.7294434
0
LINE
8
0
10
-0.247155283
20
27.7294434
11
-1.04777825
21
28.5845983
0
LINE
8
0
10
-1.04777825
20
28.5845983
11
-1.84840122
21
29.4397524
0
LINE
8
0
10
-1.84840122
20
29.4397524
11
-1.93531825
21
29.5485781
0
LINE
8
0
10
-1.93531825
20
29.5485781
11
-1.93531825
21
29.5485781
0
LINE
8
0
10
12.1190775
20
46.5
11
11.8890094
21
46.5
0
LINE
8
0
10
11.8890094
20
46.5
11
11.6273899
21
46.5
0
LINE
8
0
10
11.6273899
20
46.5
11
11.3571706
21
46.5
0
LINE
8
0
10
11.3571706
20
46.5
11
11.1045871
21
46.5
0
LINE
8
0
10
11.1045871
20
46.5
11
10.8943404
21
46.5
0
LINE
8
0
10
10.8943404
20
46.5
11
10.7449303
21
46.5
0
LINE
8
0
10
10.7449303
20
46.5
11
10.665874
21
46.5
0
LINE
8
0
10
10.665874
20
46.5
11
-0.454385373
21
46.5
0
LINE
8
0
10
-0.454385373
20
46.5
11
-1.08715138
21
46.5
0
LINE
8
0
10
-1.08715138
20
46.5
11
-11.3770759
21
46.5
0
LINE
8
0
10
-11.3770759
20
46.5
11
-11.4995557
21
46.5
0
LINE
8
0
10
-11.4995557
20
46.5
11
-11.695409
21
46.5
0
LINE
8
0
10
-11.695409
20
46.5
11
-11.9479925
21
46.5
0
LINE
8
0
10
-11.9479925
20
46.5
11
-12.2326052
21
46.5
0
LINE
8
0
10
-12.2326052
20
46.5
11
-12.521155
21
46.5
0
LINE
8
0
10
-12.521155
20
46.5
11
-12.7874659
21
46.5
0
LINE
8
0
10
-12.7874659
20
46.5
11
-13.0112995
21
46.5
0
LINE
8
0
10
-13.0112995
20
46.5
11
-13.1800668
21
46.5
0
LINE
8
0
10
-13.1800668
20
46.5
11
-16.7532606
21
46.5
0
LINE
8
0
10
-16.7532606
20
46.5
11
-17.9951869
21
46.5
0
LINE
8
0
10
-17.9951869
20
46.5
11
-18.5499992
21
46.5
0
LINE
8
0
10
-18.5499992
20
46.5
11
-18.5499992
21
45.6767207
0
LINE
8
0
10
-18.5499992
20
45.6767207
11
-18.5499992
21
45.6333962
0
LINE
8
0
10
-18.5499992
20
45.6333962
11
-18.5499992
21
45.5437723
0
LINE
8
0
10
-18.5499992
20
45.5437723
11
-18.5499992
21
45.4100253
0
LINE
8
0
10
-18.5499992
20
45.4100253
11
-18.5499992
21
45.2380346
0
LINE
8
0
10
-18.5499992
20
45.2380346
11
-18.5499992
21
42.0819097
0
LINE
8
0
10
-18.5499992
20
42.0819097
11
-18.5499992
21
42.0123601
0
LINE
8
0
10
-18.5499992
20
42.0123601
11
-18.5499992
21
41.9267475
0
LINE
8
0
10
-18.5499992
20
41.9267475
11
-18.5499992
21
40.2916836
0
LINE
8
0
10
-18.5499992
20
40.2916836
11
-18.5499992
21
40.2566572
0
LINE
8
0
10
-18.5499992
20
40.2566572
11
-18.5499992
21
40.2192121
0
LINE
8
0
10
-18.5499992
20
40.2192121
11
-18.5499992
21
40.1826884
0
LINE
8
0
10
-18.5499992
20
40.1826884
11
-18.5499992
21
40.1500765
0
LINE
8
0
10
-18.5499992
20
40.1500765
11
-18.5499992
21
40.0421519
0
LINE
8
0
10
-18.5499992
20
40.0421519
11
-18.5499992
21
39.1224734
0
LINE
8
0
10
-18.5499992
20
39.1224734
11
-18.5499992
21
38.9249904
0
LINE
8
0
10
-18.5499992
20
38.9249904
11
-18.5499992
21
38.3637404
0
LINE
8
0
10
-18.5499992
20
38.3637404
11
-18.5499992
21
6.84268254
0
LINE
8
0
10
-18.5499992
20
6.84268254
11
-18.5499992
21
6.1869137
0
LINE
8
0
10
-18.5499992
20
6.1869137
11
-18.5499992
21
5.54625454
0
LINE
8
0
10
-18.5499992
20
5.54625454
11
-18.5499992
21
5.26959906
0
LINE
8
0
10
-18.5499992
20
5.26959906
11
-18.5499992
21
5.23657736
0
LINE
8
0
10
-18.5499992
20
5.23657736
11
-18.5499992
21
3.64649067
0
LINE
8
0
10
-18.5499992
20
3.64649067
11
-18.5499992
21
3.56620558
0
LINE
8
0
10
-18.5499992
20
3.56620558
11
-18.5499992
21
3.50357399
0
LINE
8
0
10
-18.5499992
20
3.50357399
11
-18.5499992
21
0.377495204
0
LINE
8
0
10
-18.5499992
20
0.377495204
11
-18.5499992
21
0.217541874
0
LINE
8
0
10
-18.5499992
20
0.217541874
11
-18.5499992
21
0.0985418624
0
LINE
8
0
10
-18.5499992
20
0.0985418624
11
-18.5499992
21
0.0249223084
0
LINE
8
0
10
-18.5499992
20
0.0249223084
11
-18.5499992
21
-0.664814058
0
LINE
8
0
10
-18.5499992
20
-0.664814058
11
-18.5499992
21
-0.707994741
0
LINE
8
0
10
-18.5499992
20
-0.707994741
11
-18.5499992
21
-0.722051217
0
LINE
8
0
10
-18.5499992
20
-0.722051217
11
-18.5499992
21
-1.10000002
0
LINE
8
0
10
-18.5499992
20
-1.10000002
11
-16.7532606
21
-1.10000002
0
LINE
8
0
10
-16.7532606
20
-1.10000002
11
-13.1800668
21
-1.10000002
0
LINE
8
0
10
-13.1800668
20
-1.10000002
11
-13.0112995
21
-1.10000002
0
LINE
8
0
10
-13.0112995
20
-1.10000002
11
-12.7874659
21
-1.10000002
0
LINE
8
0
10
-12.7874659
20
-1.10000002
11
-12.521155
21
-1.10000002
0
LINE
8
0
10
-12.521155
20
-1.10000002
11
-12.2326052
21
-1.10000002
0
LINE
8
0
10
-12.2326052
20
-1.10000002
11
-11.9479925
21
-1.10000002
0
LINE
8
0
10
-11.9479925
20
-1.10000002
11
-11.695409
21
-1.10000002
0
LINE
8
0
10
-11.695409
20
-1.10000002
11
-11.4995557
21
-1.10000002
0
LINE
8
0
10
-11.4995557
20
-1.10000002
11
-11.3770759
21
-1.10000002
0
LINE
8
0
10
-11.3770759
20
-1.10000002
11
-1.08715138
21
-1.10000002
0
LINE
8
0
10
-1.08715138
20
-1.10000002
11
-0.454385373
21
-1.10000002
0
LINE
8
0
10
-0.454385373
20
-1.10000002
11
10.665874
21
-1.10000002
0
LINE
8
0
10
10.665874
20
-1.10000002
11
10.7449303
21
-1.10000002
0
LINE
8
0
10
10.7449303
20
-1.10000002
11
10.8943404
21
-1.10000002
0
LINE
8
0
10
10.8943404
20
-1.10000002
11
11.1045871
21
-1.10000002
0
LINE
8
0
10
11.1045871
20
-1.10000002
11
11.3571706
21
-1.10000002
0
LINE
8
0
10
11.3571706
20
-1.10000002
11
11.6273899
21
-1.10000002
0
LINE
8
0
10
11.6273899
20
-1.10000002
11
11.8890094
21
-1.10000002
0
LINE
8
0
10
11.8890094
20
-1.10000002
11
12.1190775
21
-1.10000002
0
LINE
8
0
10
12.1190775
20
-1.10000002
11
12.3011929
21
-1.10000002
0
LINE
8
0
10
12.3011929
20
-1.10000002
11
12.4265054
21
-1.10000002
0
LINE
8
0
10
12.4265054
20
-1.10000002
11
13.75
21
-1.10000002
0
LINE
8
0
10
13.75
20
-1.10000002
11
13.75
21
2.49550847
0
LINE
8
0
10
13.75
20
2.49550847
11
13.75
21
4.73680024
0
LINE
8
0
10
13.75
20
4.73680024
11
13.75
21
10.2410894
0
LINE
8
0
10
13.75
20
10.2410894
11
13.75
21
40.7516361
0
LINE
8
0
10
13.75
20
40.7516361
11
13.75
21
42.9749917
0
LINE
8
0
10
13.75
20
42.9749917
11
13.75
21
46.5
0
LINE
8
0
10
13.75
20
46.5
11
12.4265054
21
46.5
0
LINE
8
0
10
12.4265054
20
46.5
11
12.3011929
21
46.5
0
LINE
8
0
10
12.3011929
20
46.5
11
12.1190775
21
46.5
0
LINE
8
0
10
12.1190775
20
46.5
11
12.1190775
21
46.5
0
LINE
8
0
10
5.78820804
20
13.3380933
11
6.04041609
21
13.5315401
0
LINE
8
0
10
6.04041609
20
13.5315401
11
6.14924177
21
13.6184571
0
LINE
8
0
10
6.14924177
20
13.6184571
11
6.24313066
21
13.7213281
0
LINE
8
0
10
6.24313066
20
13.7213281
11
6.45275263
21
13.9602614
0
LINE
8
0
10
6.45275263
20
13.9602614
11
6.52939318
21
14.0765533
0
LINE
8
0
10
6.52939318
20
14.0765533
11
6.68837406
21
14.3517908
0
LINE
8
0
10
6.68837406
20
14.3517908
11
6.74587903
21
14.4786403
0
LINE
8
0
10
6.74587903
20
14.4786403
11
6.84810908
21
14.7796045
0
LINE
8
0
10
6.84810908
20
14.7796045
11
6.88506243
21
14.9138878
0
LINE
8
0
10
6.88506243
20
14.9138878
11
6.9266125
21
15.229013
0
LINE
8
0
10
6.9266125
20
15.229013
11
6.94210413
21
15.367424
0
LINE
8
0
10
6.94210413
20
15.367424
11
6.93575297
21
15.5065543
0
LINE
8
0
10
6.93575297
20
15.5065543
11
6.91502696
21
15.8237312
0
LINE
8
0
10
6.91502696
20
15.8237312
11
6.88698919
21
15.9601554
0
LINE
8
0
10
6.88698919
20
15.9601554
11
6.80478344
21
16.2671935
0
LINE
8
0
10
6.80478344
20
16.2671935
11
6.75574948
21
16.3975514
0
LINE
8
0
10
6.75574948
20
16.3975514
11
6.61522309
21
16.6826536
0
LINE
8
0
10
6.61522309
20
16.6826536
11
6.54640033
21
16.8037365
0
LINE
8
0
10
6.54640033
20
16.8037365
11
6.3529533
21
17.0559446
0
LINE
8
0
10
6.3529533
20
17.0559446
11
6.26603627
21
17.1647703
0
LINE
8
0
10
6.26603627
20
17.1647703
11
5.30528866
21
18.1909553
0
LINE
8
0
10
5.30528866
20
18.1909553
11
4.34454113
21
19.2171409
0
LINE
8
0
10
4.34454113
20
19.2171409
11
3.38379355
21
20.2433266
0
LINE
8
0
10
3.38379355
20
20.2433266
11
-5.48143405
21
29.7123771
0
LINE
8
0
10
-5.48143405
20
29.7123771
11
-6.44218162
21
30.7385628
0
LINE
8
0
10
-6.44218162
20
30.7385628
11
-7.40292924
21
31.7647478
0
LINE
8
0
10
-7.40292924
20
31.7647478
11
-7.50580024
21
31.858637
0
LINE
8
0
10
-7.50580024
20
31.858637
11
-7.7447336
21
32.0682587
0
LINE
8
0
10
-7.7447336
20
32.0682587
11
-7.86102549
21
32.1448989
0
LINE
8
0
10
-7.86102549
20
32.1448989
11
-8.13626262
21
32.303881
0
LINE
8
0
10
-8.13626262
20
32.303881
11
-8.26311218
21
32.3613866
0
LINE
8
0
10
-8.26311218
20
32.3613866
11
-8.564077
21
32.4636158
0
LINE
8
0
10
-8.564077
20
32.4636158
11
-8.69836026
21
32.5005684
0
LINE
8
0
10
-8.69836026
20
32.5005684
11
-9.0134855
21
32.5421182
0
LINE
8
0
10
-9.0134855
20
32.5421182
11
-9.15189651
21
32.5576103
0
LINE
8
0
10
-9.15189651
20
32.5576103
11
-9.29102676
21
32.5512585
0
LINE
8
0
10
-9.29102676
20
32.5512585
11
-9.60820301
21
32.5305331
0
LINE
8
0
10
-9.60820301
20
32.5305331
11
-9.7446269
21
32.5024955
0
LINE
8
0
10
-9.7446269
20
32.5024955
11
-10.0516656
21
32.4202891
0
LINE
8
0
10
-10.0516656
20
32.4202891
11
-10.1820239
21
32.3712548
0
LINE
8
0
10
-10.1820239
20
32.3712548
11
-10.4671255
21
32.2307294
0
LINE
8
0
10
-10.4671255
20
32.2307294
11
-10.5882081
21
32.1619076
0
LINE
8
0
10
-10.5882081
20
32.1619076
11
-10.8404161
21
31.9684603
0
LINE
8
0
10
-10.8404161
20
31.9684603
11
-10.9492418
21
31.8815429
0
LINE
8
0
10
-10.9492418
20
31.8815429
11
-11.043131
21
31.7786716
0
LINE
8
0
10
-11.043131
20
31.7786716
11
-11.2527533
21
31.5397382
0
LINE
8
0
10
-11.2527533
20
31.5397382
11
-11.3293935
21
31.4234467
0
LINE
8
0
10
-11.3293935
20
31.4234467
11
-11.4883738
21
31.1482098
0
LINE
8
0
10
-11.4883738
20
31.1482098
11
-11.5458787
21
31.0213603
0
LINE
8
0
10
-11.5458787
20
31.0213603
11
-11.6481091
21
30.7203955
0
LINE
8
0
10
-11.6481091
20
30.7203955
11
-11.6850625
21
30.5861122
0
LINE
8
0
10
-11.6850625
20
30.5861122
11
-11.7266128
21
30.270987
0
LINE
8
0
10
-11.7266128
20
30.270987
11
-11.7421046
21
30.132576
0
LINE
8
0
10
-11.7421046
20
30.132576
11
-11.7357535
21
29.9934457
0
LINE
8
0
10
-11.7357535
20
29.9934457
11
-11.7150275
21
29.6762695
0
LINE
8
0
10
-11.7150275
20
29.6762695
11
-11.6869895
21
29.5398452
0
LINE
8
0
10
-11.6869895
20
29.5398452
11
-11.6047832
21
29.2328065
0
LINE
8
0
10
-11.6047832
20
29.2328065
11
-11.5557492
21
29.1024486
0
LINE
8
0
10
-11.5557492
20
29.1024486
11
-11.4152231
21
28.8173464
0
LINE
8
0
10
-11.4152231
20
28.8173464
11
-11.3464004
21
28.6962635
0
LINE
8
0
10
-11.3464004
20
28.6962635
11
-11.152953
21
28.4440554
0
LINE
8
0
10
-11.152953
20
28.4440554
11
-11.066036
21
28.3352297
0
LINE
8
0
10
-11.066036
20
28.3352297
11
-10.1052884
21
27.3090447
0
LINE
8
0
10
-10.1052884
20
27.3090447
11
-9.14454092
21
26.2828591
0
LINE
8
0
10
-9.14454092
20
26.2828591
11
-8.18379339
21
25.2566734
0
LINE
8
0
10
-8.18379339
20
25.2566734
11
0.681434053
21
15.7876229
0
LINE
8
0
10
0.681434053
20
15.7876229
11
1.64218164
21
14.7614372
0
LINE
8
0
10
1.64218164
20
14.7614372
11
2.6029292
21
13.7352519
0
LINE
8
0
10
2.6029292
20
13.7352519
11
2.7058002
21
13.641363
0
LINE
8
0
10
2.7058002
20
13.641363
11
2.94473341
21
13.4317407
0
LINE
8
0
10
2.94473341
20
13.4317407
11
3.06102538
21
13.3551002
0
LINE
8
0
10
3.06102538
20
13.3551002
11
3.33626283
21
13.1961193
0
LINE
8
0
10
3.33626283
20
13.1961193
11
3.46311222
21
13.1386143
0
LINE
8
0
10
3.46311222
20
13.1386143
11
3.76407657
21
13.0363846
0
LINE
8
0
10
3.76407657
20
13.0363846
11
3.89836
21
12.9994312
0
LINE
8
0
10
3.89836
20
12.9994312
11
4.21348539
21
12.9578809
0
LINE
8
0
10
4.21348539
20
12.9578809
11
4.35189632
21
12.9423891
0
LINE
8
0
10
4.35189632
20
12.9423891
11
4.49102674
21
12.9487402
0
LINE
8
0
10
4.49102674
20
12.9487402
11
4.8082033
21
12.9694662
0
LINE
8
0
10
4.8082033
20
12.9694662
11
4.94462719
21
12.9975042
0
LINE
8
0
10
4.94462719
20
12.9975042
11
5.25166588
21
13.0797099
0
LINE
8
0
10
5.25166588
20
13.0797099
11
5.38202399
21
13.1287439
0
LINE
8
0
10
5.38202399
20
13.1287439
11
5.6671253
21
13.2692706
0
LINE
8
0
10
5.6671253
20
13.2692706
11
5.78820804
21
13.3380933
0
LINE
8
0
10
5.78820804
20
13.3380933
11
5.78820804
21
13.3380933
0
LINE
8
0
10
-13.0380139
20
22.29846
11
-13.1969948
21
22.0232232
0
LINE
8
0
10
-13.1969948
20
22.0232232
11
-13.2544998
21
21.8963736
0
LINE
8
0
10
-13.2544998
20
21.8963736
11
-13.3567295
21
21.5954088
0
LINE
8
0
10
-13.3567295
20
21.5954088
11
-13.3936829
21
21.4611256
0
LINE
8
0
10
-13.3936829
20
21.4611256
11
-13.4352332
21
21.1460003
0
LINE
8
0
10
-13.4352332
20
21.1460003
11
-13.450725
21
21.0075893
0
LINE
8
0
10
-13.450725
20
21.0075893
11
-13.4443739
21
20.8684591
0
LINE
8
0
10
-13.4443739
20
20.8684591
11
-13.4236479
21
20.5512828
0
LINE
8
0
10
-13.4236479
20
20.5512828
11
-13.3956099
21
20.4148586
0
LINE
8
0
10
-13.3956099
20
20.4148586
11
-13.3134042
21
20.1078199
0
LINE
8
0
10
-13.3134042
20
20.1078199
11
-13.2643702
21
19.9774619
0
LINE
8
0
10
-13.2643702
20
19.9774619
11
-13.1238435
21
19.6923597
0
LINE
8
0
10
-13.1238435
20
19.6923597
11
-13.0550208
21
19.5712768
0
LINE
8
0
10
-13.0550208
20
19.5712768
11
-12.861574
21
19.3190687
0
LINE
8
0
10
-12.861574
20
19.3190687
11
-12.774657
21
19.2102431
0
LINE
8
0
10
-12.774657
20
19.2102431
11
-11.974034
21
18.3550889
0
LINE
8
0
10
-11.974034
20
18.3550889
11
-11.173411
21
17.4999341
0
LINE
8
0
10
-11.173411
20
17.4999341
11
-6.74079719
21
12.7654088
0
LINE
8
0
10
-6.74079719
20
12.7654088
11
-5.94017434
21
11.9102543
0
LINE
8
0
10
-5.94017434
20
11.9102543
11
-5.83730334
21
11.8163651
0
LINE
8
0
10
-5.83730334
20
11.8163651
11
-5.59837028
21
11.6067428
0
LINE
8
0
10
-5.59837028
20
11.6067428
11
-5.48207823
21
11.5301026
0
LINE
8
0
10
-5.48207823
20
11.5301026
11
-5.20684078
21
11.3711223
0
LINE
8
0
10
-5.20684078
20
11.3711223
11
-5.07999139
21
11.3136174
0
LINE
8
0
10
-5.07999139
20
11.3136174
11
-4.77902689
21
11.211387
0
LINE
8
0
10
-4.77902689
20
11.211387
11
-4.64474345
21
11.1744337
0
LINE
8
0
10
-4.64474345
20
11.1744337
11
-4.32961791
21
11.1328833
0
LINE
8
0
10
-4.32961791
20
11.1328833
11
-4.1912069
21
11.1173915
0
LINE
8
0
10
-4.1912069
20
11.1173915
11
-4.05207665
21
11.1237426
0
LINE
8
0
10
-4.05207665
20
11.1237426
11
-3.73490024
21
11.1444687
0
LINE
8
0
10
-3.73490024
20
11.1444687
11
-3.59847635
21
11.1725066
0
LINE
8
0
10
-3.59847635
20
11.1725066
11
-3.29143766
21
11.254713
0
LINE
8
0
10
-3.29143766
20
11.254713
11
-3.16107946
21
11.3037469
0
LINE
8
0
10
-3.16107946
20
11.3037469
11
-2.87597816
21
11.444273
0
LINE
8
0
10
-2.87597816
20
11.444273
11
-2.7548955
21
11.5130958
0
LINE
8
0
10
-2.7548955
20
11.5130958
11
-2.5026876
21
11.7065431
0
LINE
8
0
10
-2.5026876
20
11.7065431
11
-2.39386193
21
11.7934601
0
LINE
8
0
10
-2.39386193
20
11.7934601
11
-2.29997287
21
11.8963311
0
LINE
8
0
10
-2.29997287
20
11.8963311
11
-2.09035059
21
12.1352639
0
LINE
8
0
10
-2.09035059
20
12.1352639
11
-2.01371008
21
12.2515558
0
LINE
8
0
10
-2.01371008
20
12.2515558
11
-1.85472935
21
12.5267932
0
LINE
8
0
10
-1.85472935
20
12.5267932
11
-1.79722447
21
12.6536424
0
LINE
8
0
10
-1.79722447
20
12.6536424
11
-1.69499457
21
12.9546066
0
LINE
8
0
10
-1.69499457
20
12.9546066
11
-1.65804126
21
13.0888902
0
LINE
8
0
10
-1.65804126
20
13.0888902
11
-1.61649097
21
13.4040161
0
LINE
8
0
10
-1.61649097
20
13.4040161
11
-1.60099921
21
13.5424271
0
LINE
8
0
10
-1.60099921
20
13.5424271
11
-1.60735041
21
13.6815573
0
LINE
8
0
10
-1.60735041
20
13.6815573
11
-1.62807635
21
13.9987336
0
LINE
8
0
10
-1.62807635
20
13.9987336
11
-1.65611411
21
14.1351575
0
LINE
8
0
10
-1.65611411
20
14.1351575
11
-1.73831994
21
14.4421962
0
LINE
8
0
10
-1.73831994
20
14.4421962
11
-1.78735394
21
14.5725545
0
LINE
8
0
10
-1.78735394
20
14.5725545
11
-1.92788048
21
14.8576561
0
LINE
8
0
10
-1.92788048
20
14.8576561
11
-1.99670329
21
14.9787386
0
LINE
8
0
10
-1.99670329
20
14.9787386
11
-2.19015024
21
15.2309467
0
LINE
8
0
10
-2.19015024
20
15.2309467
11
-2.27706718
21
15.3397724
0
LINE
8
0
10
-2.27706718
20
15.3397724
11
-3.07769011
21
16.1949269
0
LINE
8
0
10
-3.07769011
20
16.1949269
11
-3.87831313
21
17.0500817
0
LINE
8
0
10
-3.87831313
20
17.0500817
11
-8.31092677
21
21.784607
0
LINE
8
0
10
-8.31092677
20
21.784607
11
-9.11154962
21
22.6397611
0
LINE
8
0
10
-9.11154962
20
22.6397611
11
-9.21442062
21
22.7336503
0
LINE
8
0
10
-9.21442062
20
22.7336503
11
-9.45335398
21
22.9432732
0
LINE
8
0
10
-9.45335398
20
22.9432732
11
-9.56964621
21
23.0199141
0
LINE
8
0
10
-9.56964621
20
23.0199141
11
-9.84488365
21
23.1788938
0
LINE
8
0
10
-9.84488365
20
23.1788938
11
-9.97173287
21
23.2363981
0
LINE
8
0
10
-9.97173287
20
23.2363981
11
-10.2726971
21
23.3386284
0
LINE
8
0
10
-10.2726971
20
23.3386284
11
-10.4069807
21
23.3755818
0
LINE
8
0
10
-10.4069807
20
23.3755818
11
-10.7221065
21
23.4171328
0
LINE
8
0
10
-10.7221065
20
23.4171328
11
-10.8605175
21
23.4326249
0
LINE
8
0
10
-10.8605175
20
23.4326249
11
-10.9996478
21
23.4262738
0
LINE
8
0
10
-10.9996478
20
23.4262738
11
-11.316824
21
23.4055471
0
LINE
8
0
10
-11.316824
20
23.4055471
11
-11.4532479
21
23.3775089
0
LINE
8
0
10
-11.4532479
20
23.3775089
11
-11.7602866
21
23.2953025
0
LINE
8
0
10
-11.7602866
20
23.2953025
11
-11.8906446
21
23.2462689
0
LINE
8
0
10
-11.8906446
20
23.2462689
11
-12.1757462
21
23.1057434
0
LINE
8
0
10
-12.1757462
20
23.1057434
11
-12.2968291
21
23.0369203
0
LINE
8
0
10
-12.2968291
20
23.0369203
11
-12.5490365
21
22.843473
0
LINE
8
0
10
-12.5490365
20
22.843473
11
-12.6578622
21
22.7565563
0
LINE
8
0
10
-12.6578622
20
22.7565563
11
-12.7517511
21
22.6536849
0
LINE
8
0
10
-12.7517511
20
22.6536849
11
-12.9613734
21
22.4147516
0
LINE
8
0
10
-12.9613734
20
22.4147516
11
-13.0380139
21
22.29846
0
LINE
8
0
10
-13.0380139
20
22.29846
11
-13.0380139
21
22.29846
0
ENDSEC
0
EOF
