0
SECTION
2
ENTITIES
0
LINE
8
0
10
-5.21726625
20
11.3116583
11
-4.98371627
21
11.2057824
0
LINE
8
0
10
-4.98371627
20
11.2057824
11
-4.84172877
21
11.166709
0
LINE
8
0
10
-4.84172877
20
11.166709
11
-4.59449125
21
11.0986719
0
LINE
8
0
10
-4.59449125
20
11.0986719
11
-4.44813935
21
11.0822913
0
LINE
8
0
10
-4.44813935
20
11.0822913
11
-4.1933022
21
11.0537686
0
LINE
8
0
10
-4.1933022
20
11.0537686
11
-4.0461898
21
11.0604842
0
LINE
8
0
10
-4.0461898
20
11.0604842
11
-3.79002852
21
11.0721775
0
LINE
8
0
10
-3.79002852
20
11.0721775
11
-3.64577775
21
11.1018241
0
LINE
8
0
10
-3.64577775
20
11.1018241
11
-3.39459944
21
11.1534459
0
LINE
8
0
10
-3.39459944
20
11.1534459
11
-3.25676236
21
11.205293
0
LINE
8
0
10
-3.25676236
20
11.205293
11
-3.01675186
21
11.2955729
0
LINE
8
0
10
-3.01675186
20
11.2955729
11
-2.88872248
21
11.3683441
0
LINE
8
0
10
-2.88872248
20
11.3683441
11
-2.66578987
21
11.4950579
0
LINE
8
0
10
-2.66578987
20
11.4950579
11
-2.55072067
21
11.5869615
0
LINE
8
0
10
-2.55072067
20
11.5869615
11
-2.35035502
21
11.7469894
0
LINE
8
0
10
-2.35035502
20
11.7469894
11
-2.25107938
21
11.8557623
0
LINE
8
0
10
-2.25107938
20
11.8557623
11
-2.07821451
21
12.0451645
0
LINE
8
0
10
-2.07821451
20
12.0451645
11
-1.997177
21
12.1681283
0
LINE
8
0
10
-1.997177
20
12.1681283
11
-1.85606938
21
12.3822405
0
LINE
8
0
10
-1.85606938
20
12.3822405
11
-1.79526535
21
12.5163673
0
LINE
8
0
10
-1.79526535
20
12.5163673
11
-1.68938962
21
12.7499175
0
LINE
8
0
10
-1.68938962
20
12.7499175
11
-1.65031623
21
12.8919052
0
LINE
8
0
10
-1.65031623
20
12.8919052
11
-1.58227923
21
13.1391427
0
LINE
8
0
10
-1.58227923
20
13.1391427
11
-1.56589868
21
13.2854946
0
LINE
8
0
10
-1.56589868
20
13.2854946
11
-1.5373758
21
13.5403318
0
LINE
8
0
10
-1.5373758
20
13.5403318
11
-1.54409138
21
13.6874442
0
LINE
8
0
10
-1.54409138
20
13.6874442
11
-1.555785
21
13.9436052
0
LINE
8
0
10
-1.555785
20
13.9436052
11
-1.58543135
21
14.0878559
0
LINE
8
0
10
-1.58543135
20
14.0878559
11
-1.63705343
21
14.3390344
0
LINE
8
0
10
-1.63705343
20
14.3390344
11
-1.6889006
21
14.4768716
0
LINE
8
0
10
-1.6889006
20
14.4768716
11
-1.77918004
21
14.7168822
0
LINE
8
0
10
-1.77918004
20
14.7168822
11
-1.85195133
21
14.8449115
0
LINE
8
0
10
-1.85195133
20
14.8449115
11
-1.97866521
21
15.0678441
0
LINE
8
0
10
-1.97866521
20
15.0678441
11
-2.07056873
21
15.1829133
0
LINE
8
0
10
-2.07056873
20
15.1829133
11
-2.23059691
21
15.383279
0
LINE
8
0
10
-2.23059691
20
15.383279
11
-3.6622018
21
16.912393
0
LINE
8
0
10
-3.6622018
20
16.912393
11
-4.50875787
21
17.8166092
0
LINE
8
0
10
-4.50875787
20
17.8166092
11
-5.94036276
21
19.3457219
0
LINE
8
0
10
-5.94036276
20
19.3457219
11
-6.78691892
21
20.2499385
0
LINE
8
0
10
-6.78691892
20
20.2499385
11
-8.21852351
21
21.7790525
0
LINE
8
0
10
-8.21852351
20
21.7790525
11
-9.06507949
21
22.6832683
0
LINE
8
0
10
-9.06507949
20
22.6832683
11
-9.17385238
21
22.7825441
0
LINE
8
0
10
-9.17385238
20
22.7825441
11
-9.36325458
21
22.9554089
0
LINE
8
0
10
-9.36325458
20
22.9554089
11
-9.48621869
21
23.0364468
0
LINE
8
0
10
-9.48621869
20
23.0364468
11
-9.70033092
21
23.1775538
0
LINE
8
0
10
-9.70033092
20
23.1775538
11
-9.83445771
21
23.2383572
0
LINE
8
0
10
-9.83445771
20
23.2383572
11
-10.068008
21
23.344233
0
LINE
8
0
10
-10.068008
20
23.344233
11
-10.2099957
21
23.3833064
0
LINE
8
0
10
-10.2099957
20
23.3833064
11
-10.4572332
21
23.4513441
0
LINE
8
0
10
-10.4572332
20
23.4513441
11
-10.6035851
21
23.4677251
0
LINE
8
0
10
-10.6035851
20
23.4677251
11
-10.8584222
21
23.4962478
0
LINE
8
0
10
-10.8584222
20
23.4962478
11
-11.0055346
21
23.4895322
0
LINE
8
0
10
-11.0055346
20
23.4895322
11
-11.2616956
21
23.4778389
0
LINE
8
0
10
-11.2616956
20
23.4778389
11
-11.4059464
21
23.448192
0
LINE
8
0
10
-11.4059464
20
23.448192
11
-11.6571248
21
23.3965701
0
LINE
8
0
10
-11.6571248
20
23.3965701
11
-11.7949617
21
23.3447234
0
LINE
8
0
10
-11.7949617
20
23.3447234
11
-12.0349723
21
23.2544435
0
LINE
8
0
10
-12.0349723
20
23.2544435
11
-12.163002
21
23.1816719
0
LINE
8
0
10
-12.163002
20
23.1816719
11
-12.3859346
21
23.0549575
0
LINE
8
0
10
-12.3859346
20
23.0549575
11
-12.5010038
21
22.9630543
0
LINE
8
0
10
-12.5010038
20
22.9630543
11
-12.7013694
21
22.8030264
0
LINE
8
0
10
-12.7013694
20
22.8030264
11
-12.8006449
21
22.6942532
0
LINE
8
0
10
-12.8006449
20
22.6942532
11
-12.9735096
21
22.5048516
0
LINE
8
0
10
-12.9735096
20
22.5048516
11
-13.0545472
21
22.3818881
0
LINE
8
0
10
-13.0545472
20
22.3818881
11
-13.1956548
21
22.1677753
0
LINE
8
0
10
-13.1956548
20
22.1677753
11
-13.2564589
21
22.0336482
0
LINE
8
0
10
-13.2564589
20
22.0336482
11
-13.3623347
21
21.8000979
0
LINE
8
0
10
-13.3623347
20
21.8000979
11
-13.4014081
21
21.6581106
0
LINE
8
0
10
-13.4014081
20
21.6581106
11
-13.4694452
21
21.4108737
0
LINE
8
0
10
-13.4694452
20
21.4108737
11
-13.4858258
21
21.2645218
0
LINE
8
0
10
-13.4858258
20
21.2645218
11
-13.5143485
21
21.0096846
0
LINE
8
0
10
-13.5143485
20
21.0096846
11
-13.507633
21
20.8625722
0
LINE
8
0
10
-13.507633
20
20.8625722
11
-13.4959396
21
20.6064106
0
LINE
8
0
10
-13.4959396
20
20.6064106
11
-13.4662931
21
20.4621595
0
LINE
8
0
10
-13.4662931
20
20.4621595
11
-13.4146706
21
20.2109816
0
LINE
8
0
10
-13.4146706
20
20.2109816
11
-13.3628235
21
20.0731448
0
LINE
8
0
10
-13.3628235
20
20.0731448
11
-13.2725443
21
19.8331342
0
LINE
8
0
10
-13.2725443
20
19.8331342
11
-13.199773
21
19.7051045
0
LINE
8
0
10
-13.199773
20
19.7051045
11
-13.0730592
21
19.4821713
0
LINE
8
0
10
-13.0730592
20
19.4821713
11
-12.9811556
21
19.3671021
0
LINE
8
0
10
-12.9811556
20
19.3671021
11
-12.8211271
21
19.1667371
0
LINE
8
0
10
-12.8211271
20
19.1667371
11
-11.3895222
21
17.6376231
0
LINE
8
0
10
-11.3895222
20
17.6376231
11
-10.5429661
21
16.7334072
0
LINE
8
0
10
-10.5429661
20
16.7334072
11
-9.1113612
21
15.2042939
0
LINE
8
0
10
-9.1113612
20
15.2042939
11
-8.26480504
21
14.3000773
0
LINE
8
0
10
-8.26480504
20
14.3000773
11
-6.83320045
21
12.7709639
0
LINE
8
0
10
-6.83320045
20
12.7709639
11
-5.98664447
21
11.8667477
0
LINE
8
0
10
-5.98664447
20
11.8667477
11
-5.87787157
21
11.7674719
0
LINE
8
0
10
-5.87787157
20
11.7674719
11
-5.68846968
21
11.5946072
0
LINE
8
0
10
-5.68846968
20
11.5946072
11
-5.56550574
21
11.51357
0
LINE
8
0
10
-5.56550574
20
11.51357
11
-5.35139322
21
11.3724624
0
LINE
8
0
10
-5.35139322
20
11.3724624
11
-5.21726625
21
11.3116583
0
LINE
8
0
10
-5.21726625
20
11.3116583
11
-5.21726625
21
11.3116583
0
LINE
8
0
10
10.5241726
20
46.5
11
10.6068612
21
46.5
0
LINE
8
0
10
10.6068612
20
46.5
11
10.763136
21
46.5
0
LINE
8
0
10
10.763136
20
46.5
11
10.9830425
21
46.5
0
LINE
8
0
10
10.9830425
20
46.5
11
11.2472311
21
46.5
0
LINE
8
0
10
11.2472311
20
46.5
11
11.5298658
21
46.5
0
LINE
8
0
10
11.5298658
20
46.5
11
11.8035055
21
46.5
0
LINE
8
0
10
11.8035055
20
46.5
11
12.0441441
21
46.5
0
LINE
8
0
10
12.0441441
20
46.5
11
12.2346269
21
46.5
0
LINE
8
0
10
12.2346269
20
46.5
11
12.365697
21
46.5
0
LINE
8
0
10
12.365697
20
46.5
11
13.75
21
46.5
0
LINE
8
0
10
13.75
20
46.5
11
13.75
21
42.8130338
0
LINE
8
0
10
13.75
20
42.8130338
11
13.75
21
40.4875253
0
LINE
8
0
10
13.75
20
40.4875253
11
13.75
21
8.57515972
0
LINE
8
0
10
13.75
20
8.57515972
11
13.75
21
5.00497429
0
LINE
8
0
10
13.75
20
5.00497429
11
13.75
21
2.6607055
0
LINE
8
0
10
13.75
20
2.6607055
11
13.75
21
-1.10000002
0
LINE
8
0
10
13.75
20
-1.10000002
11
12.365697
21
-1.10000002
0
LINE
8
0
10
12.365697
20
-1.10000002
11
12.2346269
21
-1.10000002
0
LINE
8
0
10
12.2346269
20
-1.10000002
11
12.0441441
21
-1.10000002
0
LINE
8
0
10
12.0441441
20
-1.10000002
11
11.8035055
21
-1.10000002
0
LINE
8
0
10
11.8035055
20
-1.10000002
11
11.5298658
21
-1.10000002
0
LINE
8
0
10
11.5298658
20
-1.10000002
11
11.2472311
21
-1.10000002
0
LINE
8
0
10
11.2472311
20
-1.10000002
11
10.9830425
21
-1.10000002
0
LINE
8
0
10
10.9830425
20
-1.10000002
11
10.763136
21
-1.10000002
0
LINE
8
0
10
10.763136
20
-1.10000002
11
10.6068612
21
-1.10000002
0
LINE
8
0
10
10.6068612
20
-1.10000002
11
10.5241726
21
-1.10000002
0
LINE
8
0
10
10.5241726
20
-1.10000002
11
-1.10701137
21
-1.10000002
0
LINE
8
0
10
-1.10701137
20
-1.10000002
11
-1.76885005
21
-1.10000002
0
LINE
8
0
10
-1.76885005
20
-1.10000002
11
-11.1853493
21
-1.10000002
0
LINE
8
0
10
-11.1853493
20
-1.10000002
11
-11.3134565
21
-1.10000002
0
LINE
8
0
10
-11.3134565
20
-1.10000002
11
-11.5183083
21
-1.10000002
0
LINE
8
0
10
-11.5183083
20
-1.10000002
11
-11.7824968
21
-1.10000002
0
LINE
8
0
10
-11.7824968
20
-1.10000002
11
-12.0801862
21
-1.10000002
0
LINE
8
0
10
-12.0801862
20
-1.10000002
11
-12.3819935
21
-1.10000002
0
LINE
8
0
10
-12.3819935
20
-1.10000002
11
-12.6605402
21
-1.10000002
0
LINE
8
0
10
-12.6605402
20
-1.10000002
11
-12.8946579
21
-1.10000002
0
LINE
8
0
10
-12.8946579
20
-1.10000002
11
-13.0711793
21
-1.10000002
0
LINE
8
0
10
-13.0711793
20
-1.10000002
11
-16.8085449
21
-1.10000002
0
LINE
8
0
10
-16.8085449
20
-1.10000002
11
-18.5499992
21
-1.10000002
0
LINE
8
0
10
-18.5499992
20
-1.10000002
11
-18.5499992
21
-0.733680411
0
LINE
8
0
10
-18.5499992
20
-0.733680411
11
-18.5499992
21
-0.720056442
0
LINE
8
0
10
-18.5499992
20
-0.720056442
11
-18.5499992
21
-0.678204395
0
LINE
8
0
10
-18.5499992
20
-0.678204395
11
-18.5499992
21
-0.00969068649
0
LINE
8
0
10
-18.5499992
20
-0.00969068649
11
-18.5499992
21
0.0616636505
0
LINE
8
0
10
-18.5499992
20
0.0616636505
11
-18.5499992
21
0.177002123
0
LINE
8
0
10
-18.5499992
20
0.177002123
11
-18.5499992
21
0.332033813
0
LINE
8
0
10
-18.5499992
20
0.332033813
11
-18.5499992
21
3.55808284
0
LINE
8
0
10
-18.5499992
20
3.55808284
11
-18.5499992
21
3.61383732
0
LINE
8
0
10
-18.5499992
20
3.61383732
11
-18.5499992
21
3.6853069
0
LINE
8
0
10
-18.5499992
20
3.6853069
11
-18.5499992
21
5.32913912
0
LINE
8
0
10
-18.5499992
20
5.32913912
11
-18.5499992
21
5.35055762
0
LINE
8
0
10
-18.5499992
20
5.35055762
11
-18.5499992
21
5.53000157
0
LINE
8
0
10
-18.5499992
20
5.53000157
11
-18.5499992
21
5.94554514
0
LINE
8
0
10
-18.5499992
20
5.94554514
11
-18.5499992
21
6.37088913
0
LINE
8
0
10
-18.5499992
20
6.37088913
11
-18.5499992
21
38.9386913
0
LINE
8
0
10
-18.5499992
20
38.9386913
11
-18.5499992
21
39.3027286
0
LINE
8
0
10
-18.5499992
20
39.3027286
11
-18.5499992
21
39.4308197
0
LINE
8
0
10
-18.5499992
20
39.4308197
11
-18.5499992
21
40.0273405
0
LINE
8
0
10
-18.5499992
20
40.0273405
11
-18.5499992
21
40.0973425
0
LINE
8
0
10
-18.5499992
20
40.0973425
11
-18.5499992
21
40.1184951
0
LINE
8
0
10
-18.5499992
20
40.1184951
11
-18.5499992
21
40.1421851
0
LINE
8
0
10
-18.5499992
20
40.1421851
11
-18.5499992
21
40.1664727
0
LINE
8
0
10
-18.5499992
20
40.1664727
11
-18.5499992
21
40.1891915
0
LINE
8
0
10
-18.5499992
20
40.1891915
11
-18.5499992
21
41.8798895
0
LINE
8
0
10
-18.5499992
20
41.8798895
11
-18.5499992
21
41.9561017
0
LINE
8
0
10
-18.5499992
20
41.9561017
11
-18.5499992
21
42.0180145
0
LINE
8
0
10
-18.5499992
20
42.0180145
11
-18.5499992
21
45.2768643
0
LINE
8
0
10
-18.5499992
20
45.2768643
11
-18.5499992
21
45.443563
0
LINE
8
0
10
-18.5499992
20
45.443563
11
-18.5499992
21
45.5731947
0
LINE
8
0
10
-18.5499992
20
45.5731947
11
-18.5499992
21
45.6600609
0
LINE
8
0
10
-18.5499992
20
45.6600609
11
-18.5499992
21
45.7020524
0
LINE
8
0
10
-18.5499992
20
45.7020524
11
-18.5499992
21
46.5
0
LINE
8
0
10
-18.5499992
20
46.5
11
-18.012258
21
46.5
0
LINE
8
0
10
-18.012258
20
46.5
11
-16.8085449
21
46.5
0
LINE
8
0
10
-16.8085449
20
46.5
11
-13.0711793
21
46.5
0
LINE
8
0
10
-13.0711793
20
46.5
11
-12.8946579
21
46.5
0
LINE
8
0
10
-12.8946579
20
46.5
11
-12.6605402
21
46.5
0
LINE
8
0
10
-12.6605402
20
46.5
11
-12.3819935
21
46.5
0
LINE
8
0
10
-12.3819935
20
46.5
11
-12.0801862
21
46.5
0
LINE
8
0
10
-12.0801862
20
46.5
11
-11.7824968
21
46.5
0
LINE
8
0
10
-11.7824968
20
46.5
11
-11.5183083
21
46.5
0
LINE
8
0
10
-11.5183083
20
46.5
11
-11.3134565
21
46.5
0
LINE
8
0
10
-11.3134565
20
46.5
11
-11.1853493
21
46.5
0
LINE
8
0
10
-11.1853493
20
46.5
11
-1.76885005
21
46.5
0
LINE
8
0
10
-1.76885005
20
46.5
11
-1.10701137
21
46.5
0
LINE
8
0
10
-1.10701137
20
46.5
11
10.5241726
21
46.5
0
LINE
8
0
10
10.5241726
20
46.5
11
10.5241726
21
46.5
0
LINE
8
0
10
6.54592641
20
13.9931258
11
6.68703403
21
14.207238
0
LINE
8
0
10
6.68703403
20
14.207238
11
6.74783815
21
14.3413652
0
LINE
8
0
10
6.74783815
20
14.3413652
11
6.85371396
21
14.5749154
0
LINE
8
0
10
6.85371396
20
14.5749154
11
6.89278739
21
14.7169028
0
LINE
8
0
10
6.89278739
20
14.7169028
11
6.96082447
21
14.9641403
0
LINE
8
0
10
6.96082447
20
14.9641403
11
6.97720488
21
15.1104922
0
LINE
8
0
10
6.97720488
20
15.1104922
11
7.00572761
21
15.3653287
0
LINE
8
0
10
7.00572761
20
15.3653287
11
6.99901207
21
15.5124411
0
LINE
8
0
10
6.99901207
20
15.5124411
11
6.98731838
21
15.7686027
0
LINE
8
0
10
6.98731838
20
15.7686027
11
6.95767203
21
15.9128538
0
LINE
8
0
10
6.95767203
20
15.9128538
11
6.90605018
21
16.1640317
0
LINE
8
0
10
6.90605018
20
16.1640317
11
6.85420305
21
16.3018685
0
LINE
8
0
10
6.85420305
20
16.3018685
11
6.76392353
21
16.5418792
0
LINE
8
0
10
6.76392353
20
16.5418792
11
6.69115229
21
16.6699088
0
LINE
8
0
10
6.69115229
20
16.6699088
11
6.56443848
21
16.892842
0
LINE
8
0
10
6.56443848
20
16.892842
11
6.47253487
21
17.0079112
0
LINE
8
0
10
6.47253487
20
17.0079112
11
6.3125064
21
17.2082763
0
LINE
8
0
10
6.3125064
20
17.2082763
11
4.59458083
21
19.0432128
0
LINE
8
0
10
4.59458083
20
19.0432128
11
3.57871344
21
20.1282718
0
LINE
8
0
10
3.57871344
20
20.1282718
11
1.86078757
21
21.9632084
0
LINE
8
0
10
1.86078757
20
21.9632084
11
0.84492027
21
23.0482681
0
LINE
8
0
10
0.84492027
20
23.0482681
11
-0.873005521
21
24.8832034
0
LINE
8
0
10
-0.873005521
20
24.8832034
11
-1.88887287
21
25.9682632
0
LINE
8
0
10
-1.88887287
20
25.9682632
11
-3.60679851
21
27.8031997
0
LINE
8
0
10
-3.60679851
20
27.8031997
11
-4.62266586
21
28.8882594
0
LINE
8
0
10
-4.62266586
20
28.8882594
11
-6.34059173
21
30.7231959
0
LINE
8
0
10
-6.34059173
20
30.7231959
11
-7.35645912
21
31.808255
0
LINE
8
0
10
-7.35645912
20
31.808255
11
-7.46523201
21
31.9075308
0
LINE
8
0
10
-7.46523201
20
31.9075308
11
-7.65463421
21
32.0803943
0
LINE
8
0
10
-7.65463421
20
32.0803943
11
-7.77759797
21
32.1614315
0
LINE
8
0
10
-7.77759797
20
32.1614315
11
-7.99171019
21
32.3025409
0
LINE
8
0
10
-7.99171019
20
32.3025409
11
-8.12583733
21
32.3633458
0
LINE
8
0
10
-8.12583733
20
32.3633458
11
-8.35938731
21
32.4692216
0
LINE
8
0
10
-8.35938731
20
32.4692216
11
-8.50137464
21
32.5082943
0
LINE
8
0
10
-8.50137464
20
32.5082943
11
-8.74861216
21
32.5763308
0
LINE
8
0
10
-8.74861216
20
32.5763308
11
-8.89496406
21
32.5927117
0
LINE
8
0
10
-8.89496406
20
32.5927117
11
-9.1498012
21
32.6212332
0
LINE
8
0
10
-9.1498012
20
32.6212332
11
-9.2969136
21
32.614517
0
LINE
8
0
10
-9.2969136
20
32.614517
11
-9.55307519
21
32.6028236
0
LINE
8
0
10
-9.55307519
20
32.6028236
11
-9.69732595
21
32.5731774
0
LINE
8
0
10
-9.69732595
20
32.5731774
11
-9.94850382
21
32.5215568
0
LINE
8
0
10
-9.94850382
20
32.5215568
11
-10.086341
21
32.4697093
0
LINE
8
0
10
-10.086341
20
32.4697093
11
-10.3263516
21
32.3794295
0
LINE
8
0
10
-10.3263516
20
32.3794295
11
-10.4543809
21
32.3066593
0
LINE
8
0
10
-10.4543809
20
32.3066593
11
-10.6773135
21
32.1799449
0
LINE
8
0
10
-10.6773135
20
32.1799449
11
-10.7923827
21
32.0880409
0
LINE
8
0
10
-10.7923827
20
32.0880409
11
-10.9927484
21
31.928013
0
LINE
8
0
10
-10.9927484
20
31.928013
11
-11.0920242
21
31.8192398
0
LINE
8
0
10
-11.0920242
20
31.8192398
11
-11.2648889
21
31.6298382
0
LINE
8
0
10
-11.2648889
20
31.6298382
11
-11.3459261
21
31.5068748
0
LINE
8
0
10
-11.3459261
20
31.5068748
11
-11.4870337
21
31.292762
0
LINE
8
0
10
-11.4870337
20
31.292762
11
-11.5478379
21
31.1586348
0
LINE
8
0
10
-11.5478379
20
31.1586348
11
-11.6537137
21
30.9250846
0
LINE
8
0
10
-11.6537137
20
30.9250846
11
-11.6927871
21
30.7830972
0
LINE
8
0
10
-11.6927871
20
30.7830972
11
-11.7608242
21
30.5358603
0
LINE
8
0
10
-11.7608242
20
30.5358603
11
-11.7772048
21
30.3895084
0
LINE
8
0
10
-11.7772048
20
30.3895084
11
-11.8057275
21
30.1346713
0
LINE
8
0
10
-11.8057275
20
30.1346713
11
-11.799012
21
29.9875589
0
LINE
8
0
10
-11.799012
20
29.9875589
11
-11.7873186
21
29.7313973
0
LINE
8
0
10
-11.7873186
20
29.7313973
11
-11.757672
21
29.5871462
0
LINE
8
0
10
-11.757672
20
29.5871462
11
-11.7060502
21
29.3359683
0
LINE
8
0
10
-11.7060502
20
29.3359683
11
-11.6542031
21
29.1981315
0
LINE
8
0
10
-11.6542031
20
29.1981315
11
-11.5639232
21
28.9581208
0
LINE
8
0
10
-11.5639232
20
28.9581208
11
-11.491152
21
28.8300912
0
LINE
8
0
10
-11.491152
20
28.8300912
11
-11.3644382
21
28.607158
0
LINE
8
0
10
-11.3644382
20
28.607158
11
-11.2725346
21
28.4920888
0
LINE
8
0
10
-11.2725346
20
28.4920888
11
-11.1125067
21
28.2917237
0
LINE
8
0
10
-11.1125067
20
28.2917237
11
-9.39458085
21
26.4567872
0
LINE
8
0
10
-9.39458085
20
26.4567872
11
-8.37871345
21
25.3717282
0
LINE
8
0
10
-8.37871345
20
25.3717282
11
-6.66078759
21
23.5367916
0
LINE
8
0
10
-6.66078759
20
23.5367916
11
-5.64492037
21
22.4517319
0
LINE
8
0
10
-5.64492037
20
22.4517319
11
-3.92699451
21
20.6167966
0
LINE
8
0
10
-3.92699451
20
20.6167966
11
-2.9111272
21
19.5317368
0
LINE
8
0
10
-2.9111272
20
19.5317368
11
-1.1932014
21
17.6968003
0
LINE
8
0
10
-1.1932014
20
17.6968003
11
-0.177334037
21
16.6117406
0
LINE
8
0
10
-0.177334037
20
16.6117406
11
1.54059175
21
14.7768041
0
LINE
8
0
10
1.54059175
20
14.7768041
11
2.55645908
21
13.6917447
0
LINE
8
0
10
2.55645908
20
13.6917447
11
2.66523197
21
13.5924692
0
LINE
8
0
10
2.66523197
20
13.5924692
11
2.85463402
21
13.4196045
0
LINE
8
0
10
2.85463402
20
13.4196045
11
2.97759787
21
13.3385669
0
LINE
8
0
10
2.97759787
20
13.3385669
11
3.19171009
21
13.1974593
0
LINE
8
0
10
3.19171009
20
13.1974593
11
3.32583706
21
13.1366552
0
LINE
8
0
10
3.32583706
20
13.1366552
11
3.55938733
21
13.0307794
0
LINE
8
0
10
3.55938733
20
13.0307794
11
3.70137484
21
12.991706
0
LINE
8
0
10
3.70137484
20
12.991706
11
3.94861236
21
12.9236689
0
LINE
8
0
10
3.94861236
20
12.9236689
11
4.09496417
21
12.9072883
0
LINE
8
0
10
4.09496417
20
12.9072883
11
4.34980101
21
12.8787656
0
LINE
8
0
10
4.34980101
20
12.8787656
11
4.49691359
21
12.8854811
0
LINE
8
0
10
4.49691359
20
12.8854811
11
4.75307487
21
12.8971745
0
LINE
8
0
10
4.75307487
20
12.8971745
11
4.89732564
21
12.926821
0
LINE
8
0
10
4.89732564
20
12.926821
11
5.14850411
21
12.9784435
0
LINE
8
0
10
5.14850411
20
12.9784435
11
5.2863411
21
13.0302906
0
LINE
8
0
10
5.2863411
20
13.0302906
11
5.52635145
21
13.1205698
0
LINE
8
0
10
5.52635145
20
13.1205698
11
5.65438092
21
13.1933411
0
LINE
8
0
10
5.65438092
20
13.1933411
11
5.87731383
21
13.3200549
0
LINE
8
0
10
5.87731383
20
13.3200549
11
5.99238302
21
13.4119585
0
LINE
8
0
10
5.99238302
20
13.4119585
11
6.19274868
21
13.571987
0
LINE
8
0
10
6.19274868
20
13.571987
11
6.29202414
21
13.6807598
0
LINE
8
0
10
6.29202414
20
13.6807598
11
6.46488886
21
13.870162
0
LINE
8
0
10
6.46488886
20
13.870162
11
6.54592641
21
13.9931258
0
LINE
8
0
10
6.54592641
20
13.9931258
11
6.54592641
21
13.9931258
0
LINE
8
0
10
5.2377865
20
21.8241169
11
5.04838431
21
21.9969816
0
LINE
8
0
10
5.04838431
20
21.9969816
11
4.93961141
21
22.0962567
0
LINE
8
0
10
4.93961141
20
22.0962567
11
4.09305525
21
23.0004733
0
LINE
8
0
10
4.09305525
20
23.0004733
11
2.66145051
21
24.5295861
0
LINE
8
0
10
2.66145051
20
24.5295861
11
1.8148944
21
25.4338026
0
LINE
8
0
10
1.8148944
20
25.4338026
11
0.383289545
21
26.9629166
0
LINE
8
0
10
0.383289545
20
26.9629166
11
-0.46326657
21
27.8671325
0
LINE
8
0
10
-0.46326657
20
27.8671325
11
-1.89487135
21
29.3962464
0
LINE
8
0
10
-1.89487135
20
29.3962464
11
-2.05489952
21
29.5966115
0
LINE
8
0
10
-2.05489952
20
29.5966115
11
-2.14680313
21
29.7116807
0
LINE
8
0
10
-2.14680313
20
29.7116807
11
-2.27351709
21
29.9346139
0
LINE
8
0
10
-2.27351709
20
29.9346139
11
-2.34628833
21
30.0626435
0
LINE
8
0
10
-2.34628833
20
30.0626435
11
-2.43656785
21
30.302653
0
LINE
8
0
10
-2.43656785
20
30.302653
11
-2.48841497
21
30.4404898
0
LINE
8
0
10
-2.48841497
20
30.4404898
11
-2.54003698
21
30.6916689
0
LINE
8
0
10
-2.54003698
20
30.6916689
11
-2.56968341
21
30.83592
0
LINE
8
0
10
-2.56968341
20
30.83592
11
-2.58137696
21
31.0920816
0
LINE
8
0
10
-2.58137696
20
31.0920816
11
-2.58809249
21
31.239194
0
LINE
8
0
10
-2.58809249
20
31.239194
11
-2.55956962
21
31.4940311
0
LINE
8
0
10
-2.55956962
20
31.4940311
11
-2.54318903
21
31.640383
0
LINE
8
0
10
-2.54318903
20
31.640383
11
-2.4751521
21
31.8876199
0
LINE
8
0
10
-2.4751521
20
31.8876199
11
-2.43607876
21
32.0296073
0
LINE
8
0
10
-2.43607876
20
32.0296073
11
-2.33020295
21
32.2631563
0
LINE
8
0
10
-2.33020295
20
32.2631563
11
-2.26939891
21
32.3972828
0
LINE
8
0
10
-2.26939891
20
32.3972828
11
-2.1282913
21
32.6113956
0
LINE
8
0
10
-2.1282913
20
32.6113956
11
-2.04725375
21
32.7343604
0
LINE
8
0
10
-2.04725375
20
32.7343604
11
-1.87438895
21
32.9237632
0
LINE
8
0
10
-1.87438895
20
32.9237632
11
-1.77511336
21
33.0325358
0
LINE
8
0
10
-1.77511336
20
33.0325358
11
-1.57474778
21
33.1925636
0
LINE
8
0
10
-1.57474778
20
33.1925636
11
-1.45967858
21
33.2844676
0
LINE
8
0
10
-1.45967858
20
33.2844676
11
-1.23674582
21
33.411182
0
LINE
8
0
10
-1.23674582
20
33.411182
11
-1.10871644
21
33.4839522
0
LINE
8
0
10
-1.10871644
20
33.4839522
11
-0.868706012
21
33.574232
0
LINE
8
0
10
-0.868706012
20
33.574232
11
-0.730868936
21
33.6260795
0
LINE
8
0
10
-0.730868936
20
33.6260795
11
-0.479690582
21
33.6777001
0
LINE
8
0
10
-0.479690582
20
33.6777001
11
-0.335439837
21
33.7073463
0
LINE
8
0
10
-0.335439837
20
33.7073463
11
-0.0792784369
21
33.7190397
0
LINE
8
0
10
-0.0792784369
20
33.7190397
11
0.0678340546
21
33.7257559
0
LINE
8
0
10
0.0678340546
20
33.7257559
11
0.322670953
21
33.6972344
0
LINE
8
0
10
0.322670953
20
33.6972344
11
0.469022792
21
33.6808535
0
LINE
8
0
10
0.469022792
20
33.6808535
11
0.716260292
21
33.612817
0
LINE
8
0
10
0.716260292
20
33.612817
11
0.85824781
21
33.5737443
0
LINE
8
0
10
0.85824781
20
33.5737443
11
1.09179805
21
33.4678685
0
LINE
8
0
10
1.09179805
20
33.4678685
11
1.22592504
21
33.4070636
0
LINE
8
0
10
1.22592504
20
33.4070636
11
1.44003726
21
33.2659542
0
LINE
8
0
10
1.44003726
20
33.2659542
11
1.56300111
21
33.184917
0
LINE
8
0
10
1.56300111
20
33.184917
11
1.75240323
21
33.0120523
0
LINE
8
0
10
1.75240323
20
33.0120523
11
1.86117608
21
32.9127772
0
LINE
8
0
10
1.86117608
20
32.9127772
11
2.7077322
21
32.0085606
0
LINE
8
0
10
2.7077322
20
32.0085606
11
4.13933709
21
30.4794479
0
LINE
8
0
10
4.13933709
20
30.4794479
11
4.98589325
21
29.5752313
0
LINE
8
0
10
4.98589325
20
29.5752313
11
6.41749784
21
28.0461173
0
LINE
8
0
10
6.41749784
20
28.0461173
11
7.264054
21
27.1419008
0
LINE
8
0
10
7.264054
20
27.1419008
11
8.69565888
21
25.612788
0
LINE
8
0
10
8.69565888
20
25.612788
11
8.85568736
21
25.4124217
0
LINE
8
0
10
8.85568736
20
25.4124217
11
8.94759097
21
25.2973525
0
LINE
8
0
10
8.94759097
20
25.2973525
11
9.07430478
21
25.0744205
0
LINE
8
0
10
9.07430478
20
25.0744205
11
9.14707602
21
24.9463916
0
LINE
8
0
10
9.14707602
20
24.9463916
11
9.23735524
21
24.7063809
0
LINE
8
0
10
9.23735524
20
24.7063809
11
9.28920236
21
24.5685434
0
LINE
8
0
10
9.28920236
20
24.5685434
11
9.34082482
21
24.3173655
0
LINE
8
0
10
9.34082482
20
24.3173655
11
9.37047098
21
24.1731151
0
LINE
8
0
10
9.37047098
20
24.1731151
11
9.38216438
21
23.9169535
0
LINE
8
0
10
9.38216438
20
23.9169535
11
9.38888027
21
23.7698411
0
LINE
8
0
10
9.38888027
20
23.7698411
11
9.36035754
21
23.515004
0
LINE
8
0
10
9.36035754
20
23.515004
11
9.34397695
21
23.3686521
0
LINE
8
0
10
9.34397695
20
23.3686521
11
9.27593987
21
23.121414
0
LINE
8
0
10
9.27593987
20
23.121414
11
9.23686644
21
22.9794267
0
LINE
8
0
10
9.23686644
20
22.9794267
11
9.13099064
21
22.7458764
0
LINE
8
0
10
9.13099064
20
22.7458764
11
9.07018651
21
22.6117492
0
LINE
8
0
10
9.07018651
20
22.6117492
11
8.9290789
21
22.3976376
0
LINE
8
0
10
8.9290789
20
22.3976376
11
8.84804134
21
22.2746735
0
LINE
8
0
10
8.84804134
20
22.2746735
11
8.67517662
21
22.0852719
0
LINE
8
0
10
8.67517662
20
22.0852719
11
8.57590116
21
21.9764994
0
LINE
8
0
10
8.57590116
20
21.9764994
11
8.37553551
21
21.8164703
0
LINE
8
0
10
8.37553551
20
21.8164703
11
8.26046631
21
21.7245663
0
LINE
8
0
10
8.26046631
20
21.7245663
11
8.0375334
21
21.5978531
0
LINE
8
0
10
8.0375334
20
21.5978531
11
7.90950393
21
21.5250822
0
LINE
8
0
10
7.90950393
20
21.5250822
11
7.66949358
21
21.4348024
0
LINE
8
0
10
7.66949358
20
21.4348024
11
7.53165642
21
21.3829549
0
LINE
8
0
10
7.53165642
20
21.3829549
11
7.28047795
21
21.3313331
0
LINE
8
0
10
7.28047795
20
21.3313331
11
7.13622718
21
21.3016869
0
LINE
8
0
10
7.13622718
20
21.3016869
11
6.8800659
21
21.2899935
0
LINE
8
0
10
6.8800659
20
21.2899935
11
6.7329535
21
21.283278
0
LINE
8
0
10
6.7329535
20
21.283278
11
6.47811665
21
21.3118007
0
LINE
8
0
10
6.47811665
20
21.3118007
11
6.33176475
21
21.3281809
0
LINE
8
0
10
6.33176475
20
21.3281809
11
6.08452724
21
21.3962174
0
LINE
8
0
10
6.08452724
20
21.3962174
11
5.94253973
21
21.4352908
0
LINE
8
0
10
5.94253973
20
21.4352908
11
5.70898945
21
21.5411667
0
LINE
8
0
10
5.70898945
20
21.5411667
11
5.57486249
21
21.6019708
0
LINE
8
0
10
5.57486249
20
21.6019708
11
5.36075026
21
21.743079
0
LINE
8
0
10
5.36075026
20
21.743079
11
5.2377865
21
21.8241169
0
LINE
8
0
10
5.2377865
20
21.8241169
11
5.2377865
21
21.8241169
0
ENDSEC
0
EOF
