0
SECTION
2
ENTITIES
0
LINE
8
0
10
-11.7862368
20
31.0413105
11
-11.6351906
21
31.3745025
0
LINE
8
0
10
-11.6351906
20
31.3745025
11
-11.5997438
21
31.4282885
0
LINE
8
0
10
-11.5997438
20
31.4282885
11
-11.3984342
21
31.733749
0
LINE
8
0
10
-11.3984342
20
31.733749
11
-11.3550097
21
31.7813273
0
LINE
8
0
10
-11.3550097
20
31.7813273
11
-11.1083948
21
32.051537
0
LINE
8
0
10
-11.1083948
20
32.051537
11
-11.0580622
21
32.0917371
0
LINE
8
0
10
-11.0580622
20
32.0917371
11
-10.7722128
21
32.3200367
0
LINE
8
0
10
-10.7722128
20
32.3200367
11
-10.7162113
21
32.3518678
0
LINE
8
0
10
-10.7162113
20
32.3518678
11
-10.3981669
21
32.5326441
0
LINE
8
0
10
-10.3981669
20
32.5326441
11
-10.3378754
21
32.5553224
0
LINE
8
0
10
-10.3378754
20
32.5553224
11
-9.99546692
21
32.6841186
0
LINE
8
0
10
-9.99546692
20
32.6841186
11
-9.93236986
21
32.6970863
0
LINE
8
0
10
-9.93236986
20
32.6970863
11
-9.57402989
21
32.7707337
0
LINE
8
0
10
-9.57402989
20
32.7707337
11
-9.50968116
21
32.7736711
0
LINE
8
0
10
-9.50968116
20
32.7736711
11
-9.14423135
21
32.7903515
0
LINE
8
0
10
-9.14423135
20
32.7903515
11
-9.08021529
21
32.7831862
0
LINE
8
0
10
-9.08021529
20
32.7831862
11
-8.71665555
21
32.7424941
0
LINE
8
0
10
-8.71665555
20
32.7424941
11
-8.65454845
21
32.7254032
0
LINE
8
0
10
-8.65454845
20
32.7254032
11
-8.30182963
21
32.6283392
0
LINE
8
0
10
-8.30182963
20
32.6283392
11
-8.24316096
21
32.6017431
0
LINE
8
0
10
-8.24316096
20
32.6017431
11
-7.90996947
21
32.4506977
0
LINE
8
0
10
-7.90996947
20
32.4506977
11
-7.85618358
21
32.4152505
0
LINE
8
0
10
-7.85618358
20
32.4152505
11
-7.55072306
21
32.2139417
0
LINE
8
0
10
-7.55072306
20
32.2139417
11
-7.50314454
21
32.1705176
0
LINE
8
0
10
-7.50314454
20
32.1705176
11
-7.23293604
21
31.9239011
0
LINE
8
0
10
-7.23293604
20
31.9239011
11
-4.8894865
21
29.420835
0
LINE
8
0
10
-4.8894865
20
29.420835
11
-4.49914319
21
29.0039048
0
LINE
8
0
10
-4.49914319
20
29.0039048
11
-2.15569324
21
26.5008404
0
LINE
8
0
10
-2.15569324
20
26.5008404
11
-1.76534994
21
26.0839102
0
LINE
8
0
10
-1.76534994
20
26.0839102
11
0.578099847
21
23.5808441
0
LINE
8
0
10
0.578099847
20
23.5808441
11
0.968443144
21
23.1639139
0
LINE
8
0
10
0.968443144
20
23.1639139
11
3.31189304
21
20.6608479
0
LINE
8
0
10
3.31189304
20
20.6608479
11
3.70223632
21
20.2439179
0
LINE
8
0
10
3.70223632
20
20.2439179
11
6.04568606
21
17.7408519
0
LINE
8
0
10
6.04568606
20
17.7408519
11
6.43602937
21
17.3239217
0
LINE
8
0
10
6.43602937
20
17.3239217
11
6.47622905
21
17.2735889
0
LINE
8
0
10
6.47622905
20
17.2735889
11
6.70453146
21
16.9877403
0
LINE
8
0
10
6.70453146
20
16.9877403
11
6.73636254
21
16.9317388
0
LINE
8
0
10
6.73636254
20
16.9317388
11
6.91713728
21
16.6136953
0
LINE
8
0
10
6.91713728
20
16.6136953
11
6.93981584
21
16.5534036
0
LINE
8
0
10
6.93981584
20
16.5534036
11
7.06861202
21
16.2109951
0
LINE
8
0
10
7.06861202
20
16.2109951
11
7.08157969
21
16.1478982
0
LINE
8
0
10
7.08157969
20
16.1478982
11
7.1552258
21
15.7895574
0
LINE
8
0
10
7.1552258
20
15.7895574
11
7.15816325
21
15.7252087
0
LINE
8
0
10
7.15816325
20
15.7252087
11
7.17484566
21
15.3597589
0
LINE
8
0
10
7.17484566
20
15.3597589
11
7.1676806
21
15.2957428
0
LINE
8
0
10
7.1676806
20
15.2957428
11
7.12698891
21
14.9321831
0
LINE
8
0
10
7.12698891
20
14.9321831
11
7.10989775
21
14.8700761
0
LINE
8
0
10
7.10989775
20
14.8700761
11
7.01283341
21
14.5173581
0
LINE
8
0
10
7.01283341
20
14.5173581
11
6.98623704
21
14.4586893
0
LINE
8
0
10
6.98623704
20
14.4586893
11
6.83519084
21
14.1254974
0
LINE
8
0
10
6.83519084
20
14.1254974
11
6.79974404
21
14.0717115
0
LINE
8
0
10
6.79974404
20
14.0717115
11
6.5984344
21
13.766251
0
LINE
8
0
10
6.5984344
20
13.766251
11
6.55501002
21
13.7186726
0
LINE
8
0
10
6.55501002
20
13.7186726
11
6.30839469
21
13.4484645
0
LINE
8
0
10
6.30839469
20
13.4484645
11
6.25806207
21
13.4082646
0
LINE
8
0
10
6.25806207
20
13.4082646
11
5.97221266
21
13.1799618
0
LINE
8
0
10
5.97221266
20
13.1799618
11
5.91621108
21
13.1481309
0
LINE
8
0
10
5.91621108
20
13.1481309
11
5.59816672
21
12.9673561
0
LINE
8
0
10
5.59816672
20
12.9673561
11
5.53787517
21
12.9446776
0
LINE
8
0
10
5.53787517
20
12.9446776
11
5.19546713
21
12.8158814
0
LINE
8
0
10
5.19546713
20
12.8158814
11
5.13237008
21
12.8029137
0
LINE
8
0
10
5.13237008
20
12.8029137
11
4.7740297
21
12.729268
0
LINE
8
0
10
4.7740297
20
12.729268
11
4.70968097
21
12.7263305
0
LINE
8
0
10
4.70968097
20
12.7263305
11
4.34423116
21
12.7096477
0
LINE
8
0
10
4.34423116
20
12.7096477
11
4.2802151
21
12.7168127
0
LINE
8
0
10
4.2802151
20
12.7168127
11
3.91665536
21
12.7575048
0
LINE
8
0
10
3.91665536
20
12.7575048
11
3.85454833
21
12.774596
0
LINE
8
0
10
3.85454833
20
12.774596
11
3.50182992
21
12.8716599
0
LINE
8
0
10
3.50182992
20
12.8716599
11
3.44316118
21
12.8982564
0
LINE
8
0
10
3.44316118
20
12.8982564
11
3.10996948
21
13.0493026
0
LINE
8
0
10
3.10996948
20
13.0493026
11
3.05618362
21
13.0847494
0
LINE
8
0
10
3.05618362
20
13.0847494
11
2.7507229
21
13.286059
0
LINE
8
0
10
2.7507229
20
13.286059
11
2.70314435
21
13.3294833
0
LINE
8
0
10
2.70314435
20
13.3294833
11
2.43293625
21
13.5760991
0
LINE
8
0
10
2.43293625
20
13.5760991
11
0.0894863607
21
16.0791651
0
LINE
8
0
10
0.0894863607
20
16.0791651
11
-0.300856924
21
16.4960952
0
LINE
8
0
10
-0.300856924
20
16.4960952
11
-2.64430671
21
18.9991596
0
LINE
8
0
10
-2.64430671
20
18.9991596
11
-3.03465003
21
19.4160898
0
LINE
8
0
10
-3.03465003
20
19.4160898
11
-5.37809976
21
21.9191559
0
LINE
8
0
10
-5.37809976
20
21.9191559
11
-5.76844305
21
22.3360861
0
LINE
8
0
10
-5.76844305
20
22.3360861
11
-8.11189299
21
24.8391521
0
LINE
8
0
10
-8.11189299
20
24.8391521
11
-8.5022363
21
25.2560821
0
LINE
8
0
10
-8.5022363
20
25.2560821
11
-10.8456862
21
27.7591481
0
LINE
8
0
10
-10.8456862
20
27.7591481
11
-11.2360296
21
28.1760783
0
LINE
8
0
10
-11.2360296
20
28.1760783
11
-11.2762292
21
28.2264111
0
LINE
8
0
10
-11.2762292
20
28.2264111
11
-11.5045312
21
28.5122597
0
LINE
8
0
10
-11.5045312
20
28.5122597
11
-11.5363623
21
28.5682612
0
LINE
8
0
10
-11.5363623
20
28.5682612
11
-11.7171371
21
28.8863047
0
LINE
8
0
10
-11.7171371
20
28.8863047
11
-11.7398156
21
28.9465964
0
LINE
8
0
10
-11.7398156
20
28.9465964
11
-11.8686118
21
29.2890049
0
LINE
8
0
10
-11.8686118
20
29.2890049
11
-11.8815794
21
29.3521016
0
LINE
8
0
10
-11.8815794
20
29.3521016
11
-11.9552259
21
29.7104416
0
LINE
8
0
10
-11.9552259
20
29.7104416
11
-11.9581634
21
29.7747904
0
LINE
8
0
10
-11.9581634
20
29.7747904
11
-11.9748454
21
30.140241
0
LINE
8
0
10
-11.9748454
20
30.140241
11
-11.9676804
21
30.2042572
0
LINE
8
0
10
-11.9676804
20
30.2042572
11
-11.9269891
21
30.5678177
0
LINE
8
0
10
-11.9269891
20
30.5678177
11
-11.9098979
21
30.6299248
0
LINE
8
0
10
-11.9098979
20
30.6299248
11
-11.8128331
21
30.982642
0
LINE
8
0
10
-11.8128331
20
30.982642
11
-11.7862368
21
31.0413105
0
LINE
8
0
10
-11.7862368
20
31.0413105
11
-11.7862368
21
31.0413105
0
LINE
8
0
10
-1.74335964
20
12.2467138
11
-1.94466907
21
11.9412532
0
LINE
8
0
10
-1.94466907
20
11.9412532
11
-1.9880934
21
11.8936746
0
LINE
8
0
10
-1.9880934
20
11.8936746
11
-2.23470894
21
11.6234666
0
LINE
8
0
10
-2.23470894
20
11.6234666
11
-2.28504159
21
11.5832669
0
LINE
8
0
10
-2.28504159
20
11.5832669
11
-2.57089079
21
11.3549649
0
LINE
8
0
10
-2.57089079
20
11.3549649
11
-2.62689237
21
11.3231338
0
LINE
8
0
10
-2.62689237
20
11.3231338
11
-2.94493674
21
11.1423591
0
LINE
8
0
10
-2.94493674
20
11.1423591
11
-3.00522832
21
11.1196805
0
LINE
8
0
10
-3.00522832
20
11.1196805
11
-3.34763636
21
10.9908843
0
LINE
8
0
10
-3.34763636
20
10.9908843
11
-3.41073334
21
10.9779167
0
LINE
8
0
10
-3.41073334
20
10.9779167
11
-3.76907373
21
10.9042702
0
LINE
8
0
10
-3.76907373
20
10.9042702
11
-3.83342252
21
10.9013327
0
LINE
8
0
10
-3.83342252
20
10.9013327
11
-4.19887213
21
10.8846507
0
LINE
8
0
10
-4.19887213
20
10.8846507
11
-4.26288812
21
10.8918157
0
LINE
8
0
10
-4.26288812
20
10.8918157
11
-4.62644827
21
10.932507
0
LINE
8
0
10
-4.62644827
20
10.932507
11
-4.6885553
21
10.9495981
0
LINE
8
0
10
-4.6885553
20
10.9495981
11
-5.04127371
21
11.0466629
0
LINE
8
0
10
-5.04127371
20
11.0466629
11
-5.09994251
21
11.0732593
0
LINE
8
0
10
-5.09994251
20
11.0732593
11
-5.43313401
21
11.2243055
0
LINE
8
0
10
-5.43313401
20
11.2243055
11
-5.48691983
21
11.2597523
0
LINE
8
0
10
-5.48691983
20
11.2597523
11
-5.79238076
21
11.4610619
0
LINE
8
0
10
-5.79238076
20
11.4610619
11
-5.83995928
21
11.5044862
0
LINE
8
0
10
-5.83995928
20
11.5044862
11
-6.11016737
21
11.7511012
0
LINE
8
0
10
-6.11016737
20
11.7511012
11
-8.06304233
21
13.8369898
0
LINE
8
0
10
-8.06304233
20
13.8369898
11
-8.38832849
21
14.1844317
0
LINE
8
0
10
-8.38832849
20
14.1844317
11
-10.3412034
21
16.2703195
0
LINE
8
0
10
-10.3412034
20
16.2703195
11
-10.6664894
21
16.6177611
0
LINE
8
0
10
-10.6664894
20
16.6177611
11
-12.6193644
21
18.7036498
0
LINE
8
0
10
-12.6193644
20
18.7036498
11
-12.9446505
21
19.0510917
0
LINE
8
0
10
-12.9446505
20
19.0510917
11
-12.9848503
21
19.1014244
0
LINE
8
0
10
-12.9848503
20
19.1014244
11
-13.2131523
21
19.387273
0
LINE
8
0
10
-13.2131523
20
19.387273
11
-13.2449832
21
19.4432745
0
LINE
8
0
10
-13.2449832
20
19.4432745
11
-13.425758
21
19.7613181
0
LINE
8
0
10
-13.425758
20
19.7613181
11
-13.4484365
21
19.8216098
0
LINE
8
0
10
-13.4484365
20
19.8216098
11
-13.5772327
21
20.1640182
0
LINE
8
0
10
-13.5772327
20
20.1640182
11
-13.5902004
21
20.227115
0
LINE
8
0
10
-13.5902004
20
20.227115
11
-13.6638461
21
20.585455
0
LINE
8
0
10
-13.6638461
20
20.585455
11
-13.6667836
21
20.6498037
0
LINE
8
0
10
-13.6667836
20
20.6498037
11
-13.6834664
21
21.0152543
0
LINE
8
0
10
-13.6834664
20
21.0152543
11
-13.6763014
21
21.0792705
0
LINE
8
0
10
-13.6763014
20
21.0792705
11
-13.6356093
21
21.4428295
0
LINE
8
0
10
-13.6356093
20
21.4428295
11
-13.6185181
21
21.5049366
0
LINE
8
0
10
-13.6185181
20
21.5049366
11
-13.5214541
21
21.8576554
0
LINE
8
0
10
-13.5214541
20
21.8576554
11
-13.4948577
21
21.9163239
0
LINE
8
0
10
-13.4948577
20
21.9163239
11
-13.3438115
21
22.2495158
0
LINE
8
0
10
-13.3438115
20
22.2495158
11
-13.3083647
21
22.3033018
0
LINE
8
0
10
-13.3083647
20
22.3033018
11
-13.1070551
21
22.6087624
0
LINE
8
0
10
-13.1070551
20
22.6087624
11
-13.0636308
21
22.6563409
0
LINE
8
0
10
-13.0636308
20
22.6563409
11
-12.817015
21
22.926549
0
LINE
8
0
10
-12.817015
20
22.926549
11
-12.7666824
21
22.9667486
0
LINE
8
0
10
-12.7666824
20
22.9667486
11
-12.4808338
21
23.1950514
0
LINE
8
0
10
-12.4808338
20
23.1950514
11
-12.4248323
21
23.2268825
0
LINE
8
0
10
-12.4248323
20
23.2268825
11
-12.1067879
21
23.4076572
0
LINE
8
0
10
-12.1067879
20
23.4076572
11
-12.0464963
21
23.4303358
0
LINE
8
0
10
-12.0464963
20
23.4303358
11
-11.7040878
21
23.559132
0
LINE
8
0
10
-11.7040878
20
23.559132
11
-11.6409909
21
23.5720997
0
LINE
8
0
10
-11.6409909
20
23.5720997
11
-11.2826501
21
23.6457454
0
LINE
8
0
10
-11.2826501
20
23.6457454
11
-11.2183012
21
23.6486828
0
LINE
8
0
10
-11.2183012
20
23.6486828
11
-10.8528522
21
23.6653648
0
LINE
8
0
10
-10.8528522
20
23.6653648
11
-10.7888363
21
23.6581999
0
LINE
8
0
10
-10.7888363
20
23.6581999
11
-10.4252758
21
23.6175094
0
LINE
8
0
10
-10.4252758
20
23.6175094
11
-10.3631687
21
23.6004182
0
LINE
8
0
10
-10.3631687
20
23.6004182
11
-10.0104507
21
23.5033526
0
LINE
8
0
10
-10.0104507
20
23.5033526
11
-9.95178185
21
23.4767562
0
LINE
8
0
10
-9.95178185
20
23.4767562
11
-9.61858995
21
23.3257108
0
LINE
8
0
10
-9.61858995
20
23.3257108
11
-9.56480419
21
23.2902641
0
LINE
8
0
10
-9.56480419
20
23.2902641
11
-9.25934367
21
23.0889536
0
LINE
8
0
10
-9.25934367
20
23.0889536
11
-9.21176509
21
23.0455293
0
LINE
8
0
10
-9.21176509
20
23.0455293
11
-8.94155699
21
22.7989144
0
LINE
8
0
10
-8.94155699
20
22.7989144
11
-6.98868204
21
20.7130258
0
LINE
8
0
10
-6.98868204
20
20.7130258
11
-6.66339594
21
20.3655839
0
LINE
8
0
10
-6.66339594
20
20.3655839
11
-4.71052099
21
18.2796969
0
LINE
8
0
10
-4.71052099
20
18.2796969
11
-4.38523496
21
17.932255
0
LINE
8
0
10
-4.38523496
20
17.932255
11
-2.43236021
21
15.8463663
0
LINE
8
0
10
-2.43236021
20
15.8463663
11
-2.10707412
21
15.4989246
0
LINE
8
0
10
-2.10707412
20
15.4989246
11
-2.06687438
21
15.448592
0
LINE
8
0
10
-2.06687438
20
15.448592
11
-1.83857207
21
15.1627434
0
LINE
8
0
10
-1.83857207
20
15.1627434
11
-1.80674104
21
15.1067419
0
LINE
8
0
10
-1.80674104
20
15.1067419
11
-1.62596619
21
14.7886975
0
LINE
8
0
10
-1.62596619
20
14.7886975
11
-1.60328764
21
14.728406
0
LINE
8
0
10
-1.60328764
20
14.728406
11
-1.47449155
21
14.3859975
0
LINE
8
0
10
-1.47449155
20
14.3859975
11
-1.46152387
21
14.3229004
0
LINE
8
0
10
-1.46152387
20
14.3229004
11
-1.38787776
21
13.9645605
0
LINE
8
0
10
-1.38787776
20
13.9645605
11
-1.38494029
21
13.9002117
0
LINE
8
0
10
-1.38494029
20
13.9002117
11
-1.36825778
21
13.5347619
0
LINE
8
0
10
-1.36825778
20
13.5347619
11
-1.37542284
21
13.4707459
0
LINE
8
0
10
-1.37542284
20
13.4707459
11
-1.41611463
21
13.1071861
0
LINE
8
0
10
-1.41611463
20
13.1071861
11
-1.43320579
21
13.045079
0
LINE
8
0
10
-1.43320579
20
13.045079
11
-1.53026993
21
12.6923602
0
LINE
8
0
10
-1.53026993
20
12.6923602
11
-1.55686635
21
12.6336915
0
LINE
8
0
10
-1.55686635
20
12.6336915
11
-1.70791286
21
12.3004996
0
LINE
8
0
10
-1.70791286
20
12.3004996
11
-1.74335964
21
12.2467138
0
LINE
8
0
10
-1.74335964
20
12.2467138
11
-1.74335964
21
12.2467138
0
LINE
8
0
10
6.21573471
20
28.5092062
11
6.54102081
21
28.1617643
0
LINE
8
0
10
6.54102081
20
28.1617643
11
8.49389535
21
26.0758757
0
LINE
8
0
10
8.49389535
20
26.0758757
11
8.81918138
21
25.7284341
0
LINE
8
0
10
8.81918138
20
25.7284341
11
8.85938119
21
25.6781013
0
LINE
8
0
10
8.85938119
20
25.6781013
11
9.08768401
21
25.3922527
0
LINE
8
0
10
9.08768401
20
25.3922527
11
9.11951495
21
25.3362512
0
LINE
8
0
10
9.11951495
20
25.3362512
11
9.3002897
21
25.018206
0
LINE
8
0
10
9.3002897
20
25.018206
11
9.32296826
21
24.9579144
0
LINE
8
0
10
9.32296826
20
24.9579144
11
9.45176444
21
24.6155075
0
LINE
8
0
10
9.45176444
20
24.6155075
11
9.46473217
21
24.5524105
0
LINE
8
0
10
9.46473217
20
24.5524105
11
9.53837787
21
24.1940689
0
LINE
8
0
10
9.53837787
20
24.1940689
11
9.54131533
21
24.1297201
0
LINE
8
0
10
9.54131533
20
24.1297201
11
9.55799814
21
23.7642712
0
LINE
8
0
10
9.55799814
20
23.7642712
11
9.55083302
21
23.7002552
0
LINE
8
0
10
9.55083302
20
23.7002552
11
9.51014092
21
23.3366947
0
LINE
8
0
10
9.51014092
20
23.3366947
11
9.49304982
21
23.2745876
0
LINE
8
0
10
9.49304982
20
23.2745876
11
9.39598589
21
22.9218688
0
LINE
8
0
10
9.39598589
20
22.9218688
11
9.36938946
21
22.8631999
0
LINE
8
0
10
9.36938946
20
22.8631999
11
9.21834326
21
22.5300097
0
LINE
8
0
10
9.21834326
20
22.5300097
11
9.18289646
21
22.4762239
0
LINE
8
0
10
9.18289646
20
22.4762239
11
8.98158682
21
22.1707618
0
LINE
8
0
10
8.98158682
20
22.1707618
11
8.9381625
21
22.1231832
0
LINE
8
0
10
8.9381625
20
22.1231832
11
8.69154677
21
21.8529751
0
LINE
8
0
10
8.69154677
20
21.8529751
11
8.64121415
21
21.8127753
0
LINE
8
0
10
8.64121415
20
21.8127753
11
8.35536474
21
21.5844741
0
LINE
8
0
10
8.35536474
20
21.5844741
11
8.29936309
21
21.552643
0
LINE
8
0
10
8.29936309
20
21.552643
11
7.98131913
21
21.3718683
0
LINE
8
0
10
7.98131913
20
21.3718683
11
7.92102759
21
21.3491897
0
LINE
8
0
10
7.92102759
20
21.3491897
11
7.57861955
21
21.2203935
0
LINE
8
0
10
7.57861955
20
21.2203935
11
7.51552257
21
21.2074261
0
LINE
8
0
10
7.51552257
20
21.2074261
11
7.15718218
21
21.1337804
0
LINE
8
0
10
7.15718218
20
21.1337804
11
7.09283345
21
21.1308429
0
LINE
8
0
10
7.09283345
20
21.1308429
11
6.72738364
21
21.1141593
0
LINE
8
0
10
6.72738364
20
21.1141593
11
6.66336758
21
21.1213243
0
LINE
8
0
10
6.66336758
20
21.1213243
11
6.29980743
21
21.1620164
0
LINE
8
0
10
6.29980743
20
21.1620164
11
6.2377004
21
21.1791076
0
LINE
8
0
10
6.2377004
20
21.1791076
11
5.8849824
21
21.2761715
0
LINE
8
0
10
5.8849824
20
21.2761715
11
5.82631367
21
21.302768
0
LINE
8
0
10
5.82631367
20
21.302768
11
5.49312176
21
21.453815
0
LINE
8
0
10
5.49312176
20
21.453815
11
5.43933587
21
21.4892616
0
LINE
8
0
10
5.43933587
20
21.4892616
11
5.13387535
21
21.6905705
0
LINE
8
0
10
5.13387535
20
21.6905705
11
5.08629683
21
21.7339948
0
LINE
8
0
10
5.08629683
20
21.7339948
11
4.81608874
21
21.9806113
0
LINE
8
0
10
4.81608874
20
21.9806113
11
2.86321379
21
24.0664983
0
LINE
8
0
10
2.86321379
20
24.0664983
11
2.53792769
21
24.4139402
0
LINE
8
0
10
2.53792769
20
24.4139402
11
0.585052762
21
26.4998289
0
LINE
8
0
10
0.585052762
20
26.4998289
11
0.259766686
21
26.8472705
0
LINE
8
0
10
0.259766686
20
26.8472705
11
-1.69310809
21
28.9331575
0
LINE
8
0
10
-1.69310809
20
28.9331575
11
-2.01839417
21
29.2805994
0
LINE
8
0
10
-2.01839417
20
29.2805994
11
-2.05859388
21
29.3309319
0
LINE
8
0
10
-2.05859388
20
29.3309319
11
-2.28689629
21
29.6167821
0
LINE
8
0
10
-2.28689629
20
29.6167821
11
-2.31872733
21
29.6727839
0
LINE
8
0
10
-2.31872733
20
29.6727839
11
-2.49950208
21
29.9908274
0
LINE
8
0
10
-2.49950208
20
29.9908274
11
-2.52218064
21
30.0511189
0
LINE
8
0
10
-2.52218064
20
30.0511189
11
-2.65097682
21
30.3935273
0
LINE
8
0
10
-2.65097682
20
30.3935273
11
-2.66394448
21
30.4566244
0
LINE
8
0
10
-2.66394448
20
30.4566244
11
-2.73759059
21
30.8149643
0
LINE
8
0
10
-2.73759059
20
30.8149643
11
-2.74052809
21
30.8793131
0
LINE
8
0
10
-2.74052809
20
30.8793131
11
-2.75721049
21
31.2447637
0
LINE
8
0
10
-2.75721049
20
31.2447637
11
-2.75004543
21
31.3087799
0
LINE
8
0
10
-2.75004543
20
31.3087799
11
-2.70935374
21
31.6723388
0
LINE
8
0
10
-2.70935374
20
31.6723388
11
-2.69226258
21
31.7344459
0
LINE
8
0
10
-2.69226258
20
31.7344459
11
-2.59519844
21
32.0871647
0
LINE
8
0
10
-2.59519844
20
32.0871647
11
-2.56860201
21
32.1458333
0
LINE
8
0
10
-2.56860201
20
32.1458333
11
-2.4175556
21
32.4790252
0
LINE
8
0
10
-2.4175556
20
32.4790252
11
-2.38210884
21
32.5328112
0
LINE
8
0
10
-2.38210884
20
32.5328112
11
-2.1807994
21
32.8382733
0
LINE
8
0
10
-2.1807994
20
32.8382733
11
-2.13737505
21
32.8858517
0
LINE
8
0
10
-2.13737505
20
32.8858517
11
-1.89075942
21
33.1560597
0
LINE
8
0
10
-1.89075942
20
33.1560597
11
-1.84042678
21
33.1962598
0
LINE
8
0
10
-1.84042678
20
33.1962598
11
-1.55457758
21
33.4245594
0
LINE
8
0
10
-1.55457758
20
33.4245594
11
-1.498576
21
33.4563899
0
LINE
8
0
10
-1.498576
20
33.4563899
11
-1.18053174
21
33.6371663
0
LINE
8
0
10
-1.18053174
20
33.6371663
11
-1.12024016
21
33.6598451
0
LINE
8
0
10
-1.12024016
20
33.6598451
11
-0.777832118
21
33.7886413
0
LINE
8
0
10
-0.777832118
20
33.7886413
11
-0.714735121
21
33.801609
0
LINE
8
0
10
-0.714735121
20
33.801609
11
-0.356394533
21
33.8752531
0
LINE
8
0
10
-0.356394533
20
33.8752531
11
-0.292045772
21
33.8781906
0
LINE
8
0
10
-0.292045772
20
33.8781906
11
0.0734038088
21
33.8948742
0
LINE
8
0
10
0.0734038088
20
33.8948742
11
0.137419851
21
33.8877089
0
LINE
8
0
10
0.137419851
20
33.8877089
11
0.500979873
21
33.8470168
0
LINE
8
0
10
0.500979873
20
33.8470168
11
0.563086911
21
33.8299259
0
LINE
8
0
10
0.563086911
20
33.8299259
11
0.915805265
21
33.7328619
0
LINE
8
0
10
0.915805265
20
33.7328619
11
0.974474022
21
33.7062652
0
LINE
8
0
10
0.974474022
20
33.7062652
11
1.30766572
21
33.5552199
0
LINE
8
0
10
1.30766572
20
33.5552199
11
1.36145156
21
33.5197732
0
LINE
8
0
10
1.36145156
20
33.5197732
11
1.66691218
21
33.3184644
0
LINE
8
0
10
1.66691218
20
33.3184644
11
1.71449072
21
33.2750403
0
LINE
8
0
10
1.71449072
20
33.2750403
11
1.98469891
21
33.0284221
0
LINE
8
0
10
1.98469891
20
33.0284221
11
3.93757366
21
30.9425351
0
LINE
8
0
10
3.93757366
20
30.9425351
11
4.26285976
21
30.5950932
0
LINE
8
0
10
4.26285976
20
30.5950932
11
6.21573471
21
28.5092062
0
LINE
8
0
10
6.21573471
20
28.5092062
11
6.21573471
21
28.5092062
0
LINE
8
0
10
-12.5336145
20
46.5
11
-12.7780163
21
46.5
0
LINE
8
0
10
-12.7780163
20
46.5
11
-12.9622918
21
46.5
0
LINE
8
0
10
-12.9622918
20
46.5
11
-16.8638291
21
46.5
0
LINE
8
0
10
-16.8638291
20
46.5
11
-18.0293292
21
46.5
0
LINE
8
0
10
-18.0293292
20
46.5
11
-18.5499992
21
46.5
0
LINE
8
0
10
-18.5499992
20
46.5
11
-18.5499992
21
45.7273841
0
LINE
8
0
10
-18.5499992
20
45.7273841
11
-18.5499992
21
45.6867256
0
LINE
8
0
10
-18.5499992
20
45.6867256
11
-18.5499992
21
45.6026171
0
LINE
8
0
10
-18.5499992
20
45.6026171
11
-18.5499992
21
45.4771007
0
LINE
8
0
10
-18.5499992
20
45.4771007
11
-18.5499992
21
45.315694
0
LINE
8
0
10
-18.5499992
20
45.315694
11
-18.5499992
21
41.9541193
0
LINE
8
0
10
-18.5499992
20
41.9541193
11
-18.5499992
21
41.8998432
0
LINE
8
0
10
-18.5499992
20
41.8998432
11
-18.5499992
21
41.8330315
0
LINE
8
0
10
-18.5499992
20
41.8330315
11
-18.5499992
21
40.0866993
0
LINE
8
0
10
-18.5499992
20
40.0866993
11
-18.5499992
21
40.0762882
0
LINE
8
0
10
-18.5499992
20
40.0762882
11
-18.5499992
21
40.0651581
0
LINE
8
0
10
-18.5499992
20
40.0651581
11
-18.5499992
21
40.0543019
0
LINE
8
0
10
-18.5499992
20
40.0543019
11
-18.5499992
21
40.0446084
0
LINE
8
0
10
-18.5499992
20
40.0446084
11
-18.5499992
21
40.0125291
0
LINE
8
0
10
-18.5499992
20
40.0125291
11
-18.5499992
21
39.7391661
0
LINE
8
0
10
-18.5499992
20
39.7391661
11
-18.5499992
21
39.6804667
0
LINE
8
0
10
-18.5499992
20
39.6804667
11
-18.5499992
21
39.5136421
0
LINE
8
0
10
-18.5499992
20
39.5136421
11
-18.5499992
21
5.89909573
0
LINE
8
0
10
-18.5499992
20
5.89909573
11
-18.5499992
21
5.70417658
0
LINE
8
0
10
-18.5499992
20
5.70417658
11
-18.5499992
21
5.51374859
0
LINE
8
0
10
-18.5499992
20
5.51374859
11
-18.5499992
21
5.43151618
0
LINE
8
0
10
-18.5499992
20
5.43151618
11
-18.5499992
21
5.42170089
0
LINE
8
0
10
-18.5499992
20
5.42170089
11
-18.5499992
21
3.72412313
0
LINE
8
0
10
-18.5499992
20
3.72412313
11
-18.5499992
21
3.66146906
0
LINE
8
0
10
-18.5499992
20
3.66146906
11
-18.5499992
21
3.61259169
0
LINE
8
0
10
-18.5499992
20
3.61259169
11
-18.5499992
21
0.286572421
0
LINE
8
0
10
-18.5499992
20
0.286572421
11
-18.5499992
21
0.136462373
0
LINE
8
0
10
-18.5499992
20
0.136462373
11
-18.5499992
21
0.0247854387
0
LINE
8
0
10
-18.5499992
20
0.0247854387
11
-18.5499992
21
-0.0443036813
0
LINE
8
0
10
-18.5499992
20
-0.0443036813
11
-18.5499992
21
-0.691594732
0
LINE
8
0
10
-18.5499992
20
-0.691594732
11
-18.5499992
21
-0.732118143
0
LINE
8
0
10
-18.5499992
20
-0.732118143
11
-18.5499992
21
-0.745309605
0
LINE
8
0
10
-18.5499992
20
-0.745309605
11
-18.5499992
21
-1.10000002
0
LINE
8
0
10
-18.5499992
20
-1.10000002
11
-16.8638291
21
-1.10000002
0
LINE
8
0
10
-16.8638291
20
-1.10000002
11
-12.9622918
21
-1.10000002
0
LINE
8
0
10
-12.9622918
20
-1.10000002
11
-12.7780163
21
-1.10000002
0
LINE
8
0
10
-12.7780163
20
-1.10000002
11
-12.5336145
21
-1.10000002
0
LINE
8
0
10
-12.5336145
20
-1.10000002
11
-12.2428321
21
-1.10000002
0
LINE
8
0
10
-12.2428321
20
-1.10000002
11
-11.9277672
21
-1.10000002
0
LINE
8
0
10
-11.9277672
20
-1.10000002
11
-11.6170012
21
-1.10000002
0
LINE
8
0
10
-11.6170012
20
-1.10000002
11
-11.3412076
21
-1.10000002
0
LINE
8
0
10
-11.3412076
20
-1.10000002
11
-11.1273572
21
-1.10000002
0
LINE
8
0
10
-11.1273572
20
-1.10000002
11
-10.9936227
21
-1.10000002
0
LINE
8
0
10
-10.9936227
20
-1.10000002
11
-2.45054872
21
-1.10000002
0
LINE
8
0
10
-2.45054872
20
-1.10000002
11
-1.75963736
21
-1.10000002
0
LINE
8
0
10
-1.75963736
20
-1.10000002
11
10.3824712
21
-1.10000002
0
LINE
8
0
10
10.3824712
20
-1.10000002
11
10.4687921
21
-1.10000002
0
LINE
8
0
10
10.4687921
20
-1.10000002
11
10.6319316
21
-1.10000002
0
LINE
8
0
10
10.6319316
20
-1.10000002
11
10.861498
21
-1.10000002
0
LINE
8
0
10
10.861498
20
-1.10000002
11
11.1372916
21
-1.10000002
0
LINE
8
0
10
11.1372916
20
-1.10000002
11
11.4323416
21
-1.10000002
0
LINE
8
0
10
11.4323416
20
-1.10000002
11
11.7180015
21
-1.10000002
0
LINE
8
0
10
11.7180015
20
-1.10000002
11
11.9692107
21
-1.10000002
0
LINE
8
0
10
11.9692107
20
-1.10000002
11
12.1680609
21
-1.10000002
0
LINE
8
0
10
12.1680609
20
-1.10000002
11
12.3048885
21
-1.10000002
0
LINE
8
0
10
12.3048885
20
-1.10000002
11
13.75
21
-1.10000002
0
LINE
8
0
10
13.75
20
-1.10000002
11
13.75
21
2.82590253
0
LINE
8
0
10
13.75
20
2.82590253
11
13.75
21
5.27314834
0
LINE
8
0
10
13.75
20
5.27314834
11
13.75
21
6.90923001
0
LINE
8
0
10
13.75
20
6.90923001
11
13.75
21
40.2234145
0
LINE
8
0
10
13.75
20
40.2234145
11
13.75
21
42.6510759
0
LINE
8
0
10
13.75
20
42.6510759
11
13.75
21
46.5
0
LINE
8
0
10
13.75
20
46.5
11
12.3048885
21
46.5
0
LINE
8
0
10
12.3048885
20
46.5
11
12.1680609
21
46.5
0
LINE
8
0
10
12.1680609
20
46.5
11
11.9692107
21
46.5
0
LINE
8
0
10
11.9692107
20
46.5
11
11.7180015
21
46.5
0
LINE
8
0
10
11.7180015
20
46.5
11
11.4323416
21
46.5
0
LINE
8
0
10
11.4323416
20
46.5
11
11.1372916
21
46.5
0
LINE
8
0
10
11.1372916
20
46.5
11
10.861498
21
46.5
0
LINE
8
0
10
10.861498
20
46.5
11
10.6319316
21
46.5
0
LINE
8
0
10
10.6319316
20
46.5
11
10.4687921
21
46.5
0
LINE
8
0
10
10.4687921
20
46.5
11
10.3824712
21
46.5
0
LINE
8
0
10
10.3824712
20
46.5
11
-1.75963736
21
46.5
0
LINE
8
0
10
-1.75963736
20
46.5
11
-2.45054872
21
46.5
0
LINE
8
0
10
-2.45054872
20
46.5
11
-10.9936227
21
46.5
0
LINE
8
0
10
-10.9936227
20
46.5
11
-11.1273572
21
46.5
0
LINE
8
0
10
-11.1273572
20
46.5
11
-11.3412076
21
46.5
0
LINE
8
0
10
-11.3412076
20
46.5
11
-11.6170012
21
46.5
0
LINE
8
0
10
-11.6170012
20
46.5
11
-11.9277672
21
46.5
0
LINE
8
0
10
-11.9277672
20
46.5
11
-12.2428321
21
46.5
0
LINE
8
0
10
-12.2428321
20
46.5
11
-12.5336145
21
46.5
0
LINE
8
0
10
-12.5336145
20
46.5
11
-12.5336145
21
46.5
0
ENDSEC
0
EOF
