0
SECTION
2
ENTITIES
0
LINE
8
0
10
-16.9649181
20
46.5
11
-16.7393529
21
46.5
0
LINE
8
0
10
-16.7393529
20
46.5
11
-16.516321
21
46.5
0
LINE
8
0
10
-16.516321
20
46.5
11
-16.3358116
21
46.5
0
LINE
8
0
10
-16.3358116
20
46.5
11
-16.2362501
21
46.5
0
LINE
8
0
10
-16.2362501
20
46.5
11
7.51097908
21
46.5
0
LINE
8
0
10
7.51097908
20
46.5
11
7.85127603
21
46.5
0
LINE
8
0
10
7.85127603
20
46.5
11
12.6560429
21
46.5
0
LINE
8
0
10
12.6560429
20
46.5
11
12.7072506
21
46.5
0
LINE
8
0
10
12.7072506
20
46.5
11
12.8068121
21
46.5
0
LINE
8
0
10
12.8068121
20
46.5
11
12.9368623
21
46.5
0
LINE
8
0
10
12.9368623
20
46.5
11
13.0727309
21
46.5
0
LINE
8
0
10
13.0727309
20
46.5
11
13.1938819
21
46.5
0
LINE
8
0
10
13.1938819
20
46.5
11
13.2894077
21
46.5
0
LINE
8
0
10
13.2894077
20
46.5
11
13.3569485
21
46.5
0
LINE
8
0
10
13.3569485
20
46.5
11
13.3989952
21
46.5
0
LINE
8
0
10
13.3989952
20
46.5
11
13.4197483
21
46.5
0
LINE
8
0
10
13.4197483
20
46.5
11
13.75
21
46.5
0
LINE
8
0
10
13.75
20
46.5
11
13.75
21
45.9656463
0
LINE
8
0
10
13.75
20
45.9656463
11
13.75
21
41.5
0
LINE
8
0
10
13.75
20
41.5
11
13.6675245
21
41.5
0
LINE
8
0
10
13.6675245
20
41.5
11
13.6495808
21
41.5
0
LINE
8
0
10
13.6495808
20
41.5
11
13.6250975
21
41.5
0
LINE
8
0
10
13.6250975
20
41.5
11
13.5952905
21
41.5
0
LINE
8
0
10
13.5952905
20
41.5
11
13.5641332
21
41.5
0
LINE
8
0
10
13.5641332
20
41.5
11
13.5380435
21
41.5
0
LINE
8
0
10
13.5380435
20
41.5
11
13.5230698
21
41.5
0
LINE
8
0
10
13.5230698
20
41.5
11
12.4633413
21
41.5
0
LINE
8
0
10
12.4633413
20
41.5
11
12.4076089
21
41.5
0
LINE
8
0
10
12.4076089
20
41.5
11
-18.0667385
21
41.5
0
LINE
8
0
10
-18.0667385
20
41.5
11
-18.0999424
21
41.5
0
LINE
8
0
10
-18.0999424
20
41.5
11
-18.1499925
21
41.5
0
LINE
8
0
10
-18.1499925
20
41.5
11
-18.204938
21
41.5
0
LINE
8
0
10
-18.204938
20
41.5
11
-18.2554949
21
41.5
0
LINE
8
0
10
-18.2554949
20
41.5
11
-18.2971354
21
41.5
0
LINE
8
0
10
-18.2971354
20
41.5
11
-18.5499992
21
41.5
0
LINE
8
0
10
-18.5499992
20
41.5
11
-18.5499992
21
41.9465646
0
LINE
8
0
10
-18.5499992
20
41.9465646
11
-18.5499992
21
45.9656463
0
LINE
8
0
10
-18.5499992
20
45.9656463
11
-18.5499992
21
46.4029257
0
LINE
8
0
10
-18.5499992
20
46.4029257
11
-18.5499992
21
46.4161558
0
LINE
8
0
10
-18.5499992
20
46.4161558
11
-18.5499992
21
46.426444
0
LINE
8
0
10
-18.5499992
20
46.426444
11
-18.5499992
21
46.4333382
0
LINE
8
0
10
-18.5499992
20
46.4333382
11
-18.5499992
21
46.4366708
0
LINE
8
0
10
-18.5499992
20
46.4366708
11
-18.5499992
21
46.472812
0
LINE
8
0
10
-18.5499992
20
46.472812
11
-18.5499992
21
46.5
0
LINE
8
0
10
-18.5499992
20
46.5
11
-18.4117886
21
46.5
0
LINE
8
0
10
-18.4117886
20
46.5
11
-17.4511683
21
46.5
0
LINE
8
0
10
-17.4511683
20
46.5
11
-17.3282241
21
46.5
0
LINE
8
0
10
-17.3282241
20
46.5
11
-17.1654348
21
46.5
0
LINE
8
0
10
-17.1654348
20
46.5
11
-16.9649181
21
46.5
0
LINE
8
0
10
-16.9649181
20
46.5
11
-16.9649181
21
46.5
0
LINE
8
0
10
-16.9649181
20
-1.10000002
11
-16.7393529
21
-1.10000002
0
LINE
8
0
10
-16.7393529
20
-1.10000002
11
-16.516321
21
-1.10000002
0
LINE
8
0
10
-16.516321
20
-1.10000002
11
-16.3358116
21
-1.10000002
0
LINE
8
0
10
-16.3358116
20
-1.10000002
11
-16.2362501
21
-1.10000002
0
LINE
8
0
10
-16.2362501
20
-1.10000002
11
7.51097908
21
-1.10000002
0
LINE
8
0
10
7.51097908
20
-1.10000002
11
7.85127603
21
-1.10000002
0
LINE
8
0
10
7.85127603
20
-1.10000002
11
12.6560429
21
-1.10000002
0
LINE
8
0
10
12.6560429
20
-1.10000002
11
12.7072506
21
-1.10000002
0
LINE
8
0
10
12.7072506
20
-1.10000002
11
12.8068121
21
-1.10000002
0
LINE
8
0
10
12.8068121
20
-1.10000002
11
12.9368623
21
-1.10000002
0
LINE
8
0
10
12.9368623
20
-1.10000002
11
13.0727309
21
-1.10000002
0
LINE
8
0
10
13.0727309
20
-1.10000002
11
13.1938819
21
-1.10000002
0
LINE
8
0
10
13.1938819
20
-1.10000002
11
13.2894077
21
-1.10000002
0
LINE
8
0
10
13.2894077
20
-1.10000002
11
13.3569485
21
-1.10000002
0
LINE
8
0
10
13.3569485
20
-1.10000002
11
13.3989952
21
-1.10000002
0
LINE
8
0
10
13.3989952
20
-1.10000002
11
13.4197483
21
-1.10000002
0
LINE
8
0
10
13.4197483
20
-1.10000002
11
13.75
21
-1.10000002
0
LINE
8
0
10
13.75
20
-1.10000002
11
13.75
21
-0.554959235
0
LINE
8
0
10
13.75
20
-0.554959235
11
13.75
21
4
0
LINE
8
0
10
13.75
20
4
11
13.6675245
21
4
0
LINE
8
0
10
13.6675245
20
4
11
13.6495808
21
4
0
LINE
8
0
10
13.6495808
20
4
11
13.6250975
21
4
0
LINE
8
0
10
13.6250975
20
4
11
13.5952905
21
4
0
LINE
8
0
10
13.5952905
20
4
11
13.5641332
21
4
0
LINE
8
0
10
13.5641332
20
4
11
13.5380435
21
4
0
LINE
8
0
10
13.5380435
20
4
11
13.5230698
21
4
0
LINE
8
0
10
13.5230698
20
4
11
12.4633413
21
4
0
LINE
8
0
10
12.4633413
20
4
11
12.4076089
21
4
0
LINE
8
0
10
12.4076089
20
4
11
-18.0667385
21
4
0
LINE
8
0
10
-18.0667385
20
4
11
-18.0999424
21
4
0
LINE
8
0
10
-18.0999424
20
4
11
-18.1499925
21
4
0
LINE
8
0
10
-18.1499925
20
4
11
-18.204938
21
4
0
LINE
8
0
10
-18.204938
20
4
11
-18.2554949
21
4
0
LINE
8
0
10
-18.2554949
20
4
11
-18.2971354
21
4
0
LINE
8
0
10
-18.2971354
20
4
11
-18.5499992
21
4
0
LINE
8
0
10
-18.5499992
20
4
11
-18.5499992
21
3.55343537
0
LINE
8
0
10
-18.5499992
20
3.55343537
11
-18.5499992
21
-0.554959235
0
LINE
8
0
10
-18.5499992
20
-0.554959235
11
-18.5499992
21
-0.986346545
0
LINE
8
0
10
-18.5499992
20
-0.986346545
11
-18.5499992
21
-0.998650647
0
LINE
8
0
10
-18.5499992
20
-0.998650647
11
-18.5499992
21
-1.00780449
0
LINE
8
0
10
-18.5499992
20
-1.00780449
11
-18.5499992
21
-1.01346754
0
LINE
8
0
10
-18.5499992
20
-1.01346754
11
-18.5499992
21
-1.06652418
0
LINE
8
0
10
-18.5499992
20
-1.06652418
11
-18.5499992
21
-1.06984577
0
LINE
8
0
10
-18.5499992
20
-1.06984577
11
-18.5499992
21
-1.10000002
0
LINE
8
0
10
-18.5499992
20
-1.10000002
11
-18.5073214
21
-1.10000002
0
LINE
8
0
10
-18.5073214
20
-1.10000002
11
-18.4117886
21
-1.10000002
0
LINE
8
0
10
-18.4117886
20
-1.10000002
11
-17.4511683
21
-1.10000002
0
LINE
8
0
10
-17.4511683
20
-1.10000002
11
-17.3282241
21
-1.10000002
0
LINE
8
0
10
-17.3282241
20
-1.10000002
11
-17.1654348
21
-1.10000002
0
LINE
8
0
10
-17.1654348
20
-1.10000002
11
-16.9649181
21
-1.10000002
0
LINE
8
0
10
-16.9649181
20
-1.10000002
11
-16.9649181
21
-1.10000002
0
ENDSEC
0
EOF
