0
SECTION
2
ENTITIES
0
LINE
8
0
10
-10.9337293
20
46.5
11
-10.9450636
21
43.6835774
0
LINE
8
0
10
-10.9450636
20
43.6835774
11
-10.9375176
21
41.5
0
LINE
8
0
10
-10.9375176
20
41.5
11
-12.8434557
21
41.5
0
LINE
8
0
10
-12.8434557
20
41.5
11
-14.4488738
21
41.5
0
LINE
8
0
10
-14.4488738
20
41.5
11
-15.4323795
21
41.5
0
LINE
8
0
10
-15.4323795
20
41.5
11
-16.0412625
21
41.5
0
LINE
8
0
10
-16.0412625
20
41.5
11
-16.4199923
21
41.5
0
LINE
8
0
10
-16.4199923
20
41.5
11
-18.5499992
21
41.5
0
LINE
8
0
10
-18.5499992
20
41.5
11
-18.5499992
21
41.56183
0
LINE
8
0
10
-18.5499992
20
41.56183
11
-18.5499992
21
42.1182996
0
LINE
8
0
10
-18.5499992
20
42.1182996
11
-18.5499992
21
45.7039911
0
LINE
8
0
10
-18.5499992
20
45.7039911
11
-18.5499992
21
45.8124775
0
LINE
8
0
10
-18.5499992
20
45.8124775
11
-18.5499992
21
45.896841
0
LINE
8
0
10
-18.5499992
20
45.896841
11
-18.5499992
21
45.953373
0
LINE
8
0
10
-18.5499992
20
45.953373
11
-18.5499992
21
45.9807008
0
LINE
8
0
10
-18.5499992
20
45.9807008
11
-18.5499992
21
46.2770583
0
LINE
8
0
10
-18.5499992
20
46.2770583
11
-18.5499992
21
46.5
0
LINE
8
0
10
-18.5499992
20
46.5
11
-17.4166718
21
46.5
0
LINE
8
0
10
-17.4166718
20
46.5
11
-11.9693202
21
46.5
0
LINE
8
0
10
-11.9693202
20
46.5
11
-11.7539453
21
46.5
0
LINE
8
0
10
-11.7539453
20
46.5
11
-11.44772
21
46.5
0
LINE
8
0
10
-11.44772
20
46.5
11
-11.0643265
21
46.5
0
LINE
8
0
10
-11.0643265
20
46.5
11
-10.9337293
21
46.5
0
LINE
8
0
10
-10.9337293
20
46.5
11
-10.9337293
21
46.5
0
LINE
8
0
10
-10.9337293
20
-1.10000002
11
-10.9450636
21
1.77275103
0
LINE
8
0
10
-10.9450636
20
1.77275103
11
-10.9375176
21
4
0
LINE
8
0
10
-10.9375176
20
4
11
-12.8434557
21
4
0
LINE
8
0
10
-12.8434557
20
4
11
-14.4488738
21
4
0
LINE
8
0
10
-14.4488738
20
4
11
-15.4323795
21
4
0
LINE
8
0
10
-15.4323795
20
4
11
-16.0412625
21
4
0
LINE
8
0
10
-16.0412625
20
4
11
-16.4199923
21
4
0
LINE
8
0
10
-16.4199923
20
4
11
-18.5499992
21
4
0
LINE
8
0
10
-18.5499992
20
4
11
-18.5499992
21
3.93817004
0
LINE
8
0
10
-18.5499992
20
3.93817004
11
-18.5499992
21
3.36933444
0
LINE
8
0
10
-18.5499992
20
3.36933444
11
-18.5499992
21
-0.168041495
0
LINE
8
0
10
-18.5499992
20
-0.168041495
11
-18.5499992
21
-0.268935134
0
LINE
8
0
10
-18.5499992
20
-0.268935134
11
-18.5499992
21
-0.34399668
0
LINE
8
0
10
-18.5499992
20
-0.34399668
11
-18.5499992
21
-0.39043363
0
LINE
8
0
10
-18.5499992
20
-0.39043363
11
-18.5499992
21
-0.825498107
0
LINE
8
0
10
-18.5499992
20
-0.825498107
11
-18.5499992
21
-0.852735153
0
LINE
8
0
10
-18.5499992
20
-0.852735153
11
-18.5499992
21
-1.10000002
0
LINE
8
0
10
-18.5499992
20
-1.10000002
11
-18.2000407
21
-1.10000002
0
LINE
8
0
10
-18.2000407
20
-1.10000002
11
-17.4166718
21
-1.10000002
0
LINE
8
0
10
-17.4166718
20
-1.10000002
11
-11.9693202
21
-1.10000002
0
LINE
8
0
10
-11.9693202
20
-1.10000002
11
-11.7539453
21
-1.10000002
0
LINE
8
0
10
-11.7539453
20
-1.10000002
11
-11.44772
21
-1.10000002
0
LINE
8
0
10
-11.44772
20
-1.10000002
11
-11.0643265
21
-1.10000002
0
LINE
8
0
10
-11.0643265
20
-1.10000002
11
-10.9337293
21
-1.10000002
0
LINE
8
0
10
-10.9337293
20
-1.10000002
11
-10.9337293
21
-1.10000002
0
LINE
8
0
10
11.371565
20
46.5
11
11.0494009
21
46.5
0
LINE
8
0
10
11.0494009
20
46.5
11
10.9337293
21
46.5
0
LINE
8
0
10
10.9337293
20
46.5
11
10.9450636
21
43.6835774
0
LINE
8
0
10
10.9450636
20
43.6835774
11
10.9375176
21
41.5
0
LINE
8
0
10
10.9375176
20
41.5
11
11.7478866
21
41.5
0
LINE
8
0
10
11.7478866
20
41.5
11
12.3857103
21
41.5
0
LINE
8
0
10
12.3857103
20
41.5
11
12.7470453
21
41.5
0
LINE
8
0
10
12.7470453
20
41.5
11
12.9486224
21
41.5
0
LINE
8
0
10
12.9486224
20
41.5
11
13.0552643
21
41.5
0
LINE
8
0
10
13.0552643
20
41.5
11
13.75
21
41.5
0
LINE
8
0
10
13.75
20
41.5
11
13.75
21
42.1182996
0
LINE
8
0
10
13.75
20
42.1182996
11
13.75
21
46.5
0
LINE
8
0
10
13.75
20
46.5
11
11.6110423
21
46.5
0
LINE
8
0
10
11.6110423
20
46.5
11
11.371565
21
46.5
0
LINE
8
0
10
11.371565
20
46.5
11
11.371565
21
46.5
0
LINE
8
0
10
11.371565
20
-1.10000002
11
11.0494009
21
-1.10000002
0
LINE
8
0
10
11.0494009
20
-1.10000002
11
10.9337293
21
-1.10000002
0
LINE
8
0
10
10.9337293
20
-1.10000002
11
10.9450636
21
1.77275103
0
LINE
8
0
10
10.9450636
20
1.77275103
11
10.9375176
21
4
0
LINE
8
0
10
10.9375176
20
4
11
11.7478866
21
4
0
LINE
8
0
10
11.7478866
20
4
11
12.3857103
21
4
0
LINE
8
0
10
12.3857103
20
4
11
12.7470453
21
4
0
LINE
8
0
10
12.7470453
20
4
11
12.9486224
21
4
0
LINE
8
0
10
12.9486224
20
4
11
13.0552643
21
4
0
LINE
8
0
10
13.0552643
20
4
11
13.75
21
4
0
LINE
8
0
10
13.75
20
4
11
13.75
21
3.36933444
0
LINE
8
0
10
13.75
20
3.36933444
11
13.75
21
-1.10000002
0
LINE
8
0
10
13.75
20
-1.10000002
11
11.6110423
21
-1.10000002
0
LINE
8
0
10
11.6110423
20
-1.10000002
11
11.371565
21
-1.10000002
0
LINE
8
0
10
11.371565
20
-1.10000002
11
11.371565
21
-1.10000002
0
LINE
8
0
10
9.06248236
20
4
11
9.05493637
21
1.77275103
0
LINE
8
0
10
9.05493637
20
1.77275103
11
9.06627068
21
-1.10000002
0
LINE
8
0
10
9.06627068
20
-1.10000002
11
9.01278938
21
-1.10000002
0
LINE
8
0
10
9.01278938
20
-1.10000002
11
-8.78475842
21
-1.10000002
0
LINE
8
0
10
-8.78475842
20
-1.10000002
11
-9.02771504
21
-1.10000002
0
LINE
8
0
10
-9.02771504
20
-1.10000002
11
-9.06627068
21
-1.10000002
0
LINE
8
0
10
-9.06627068
20
-1.10000002
11
-9.05493637
21
1.77275103
0
LINE
8
0
10
-9.05493637
20
1.77275103
11
-9.06248236
21
4
0
LINE
8
0
10
-9.06248236
20
4
11
-8.62758128
21
4
0
LINE
8
0
10
-8.62758128
20
4
11
5.02360063
21
4
0
LINE
8
0
10
5.02360063
20
4
11
8.62758128
21
4
0
LINE
8
0
10
8.62758128
20
4
11
9.06248236
21
4
0
LINE
8
0
10
9.06248236
20
4
11
9.06248236
21
4
0
LINE
8
0
10
9.06248236
20
41.5
11
9.05493637
21
43.6835774
0
LINE
8
0
10
9.05493637
20
43.6835774
11
9.06627068
21
46.5
0
LINE
8
0
10
9.06627068
20
46.5
11
9.01278938
21
46.5
0
LINE
8
0
10
9.01278938
20
46.5
11
-8.78475842
21
46.5
0
LINE
8
0
10
-8.78475842
20
46.5
11
-9.02771504
21
46.5
0
LINE
8
0
10
-9.02771504
20
46.5
11
-9.06627068
21
46.5
0
LINE
8
0
10
-9.06627068
20
46.5
11
-9.05493637
21
43.6835774
0
LINE
8
0
10
-9.05493637
20
43.6835774
11
-9.06248236
21
41.5
0
LINE
8
0
10
-9.06248236
20
41.5
11
-8.62758128
21
41.5
0
LINE
8
0
10
-8.62758128
20
41.5
11
-5.02360063
21
41.5
0
LINE
8
0
10
-5.02360063
20
41.5
11
8.62758128
21
41.5
0
LINE
8
0
10
8.62758128
20
41.5
11
9.06248236
21
41.5
0
LINE
8
0
10
9.06248236
20
41.5
11
9.06248236
21
41.5
0
ENDSEC
0
EOF
