0
SECTION
2
ENTITIES
0
LINE
8
0
10
-12.1036706
20
46.5
11
-11.7753482
21
46.5
0
LINE
8
0
10
-11.7753482
20
46.5
11
-11.4515056
21
46.5
0
LINE
8
0
10
-11.4515056
20
46.5
11
-11.1641069
21
46.5
0
LINE
8
0
10
-11.1641069
20
46.5
11
-10.941258
21
46.5
0
LINE
8
0
10
-10.941258
20
46.5
11
-10.8018961
21
46.5
0
LINE
8
0
10
-10.8018961
20
46.5
11
-3.1322474
21
46.5
0
LINE
8
0
10
-3.1322474
20
46.5
11
-2.41226336
21
46.5
0
LINE
8
0
10
-2.41226336
20
46.5
11
10.2407699
21
46.5
0
LINE
8
0
10
10.2407699
20
46.5
11
10.3307231
21
46.5
0
LINE
8
0
10
10.3307231
20
46.5
11
10.5007272
21
46.5
0
LINE
8
0
10
10.5007272
20
46.5
11
10.7399535
21
46.5
0
LINE
8
0
10
10.7399535
20
46.5
11
11.0273522
21
46.5
0
LINE
8
0
10
11.0273522
20
46.5
11
11.3348175
21
46.5
0
LINE
8
0
10
11.3348175
20
46.5
11
11.6324976
21
46.5
0
LINE
8
0
10
11.6324976
20
46.5
11
11.8942774
21
46.5
0
LINE
8
0
10
11.8942774
20
46.5
11
12.1014949
21
46.5
0
LINE
8
0
10
12.1014949
20
46.5
11
12.24408
21
46.5
0
LINE
8
0
10
12.24408
20
46.5
11
13.75
21
46.5
0
LINE
8
0
10
13.75
20
46.5
11
13.75
21
42.4891181
0
LINE
8
0
10
13.75
20
42.4891181
11
13.75
21
40.0369141
0
LINE
8
0
10
13.75
20
40.0369141
11
13.6178687
21
40.0369141
0
LINE
8
0
10
13.6178687
20
40.0369141
11
13.4238273
21
40.0369141
0
LINE
8
0
10
13.4238273
20
40.0369141
11
12.3957248
21
40.0369141
0
LINE
8
0
10
12.3957248
20
40.0369141
11
-17.9305121
21
40.0369141
0
LINE
8
0
10
-17.9305121
20
40.0369141
11
-18.1245535
21
40.0369141
0
LINE
8
0
10
-18.1245535
20
40.0369141
11
-18.5499992
21
40.0369141
0
LINE
8
0
10
-18.5499992
20
40.0369141
11
-18.5499992
21
41.7861736
0
LINE
8
0
10
-18.5499992
20
41.7861736
11
-18.5499992
21
41.8435848
0
LINE
8
0
10
-18.5499992
20
41.8435848
11
-18.5499992
21
41.8902242
0
LINE
8
0
10
-18.5499992
20
41.8902242
11
-18.5499992
21
45.3545237
0
LINE
8
0
10
-18.5499992
20
45.3545237
11
-18.5499992
21
45.5106384
0
LINE
8
0
10
-18.5499992
20
45.5106384
11
-18.5499992
21
45.6320394
0
LINE
8
0
10
-18.5499992
20
45.6320394
11
-18.5499992
21
45.7133904
0
LINE
8
0
10
-18.5499992
20
45.7133904
11
-18.5499992
21
45.7527157
0
LINE
8
0
10
-18.5499992
20
45.7527157
11
-18.5499992
21
46.5
0
LINE
8
0
10
-18.5499992
20
46.5
11
-18.0464003
21
46.5
0
LINE
8
0
10
-18.0464003
20
46.5
11
-16.9191134
21
46.5
0
LINE
8
0
10
-16.9191134
20
46.5
11
-12.8534043
21
46.5
0
LINE
8
0
10
-12.8534043
20
46.5
11
-12.6613747
21
46.5
0
LINE
8
0
10
-12.6613747
20
46.5
11
-12.4066887
21
46.5
0
LINE
8
0
10
-12.4066887
20
46.5
11
-12.1036706
21
46.5
0
LINE
8
0
10
-12.1036706
20
46.5
11
-12.1036706
21
46.5
0
LINE
8
0
10
-12.1036706
20
-1.10000002
11
-11.7753482
21
-1.10000002
0
LINE
8
0
10
-11.7753482
20
-1.10000002
11
-11.4515056
21
-1.10000002
0
LINE
8
0
10
-11.4515056
20
-1.10000002
11
-11.1641069
21
-1.10000002
0
LINE
8
0
10
-11.1641069
20
-1.10000002
11
-10.941258
21
-1.10000002
0
LINE
8
0
10
-10.941258
20
-1.10000002
11
-10.8018961
21
-1.10000002
0
LINE
8
0
10
-10.8018961
20
-1.10000002
11
-3.1322474
21
-1.10000002
0
LINE
8
0
10
-3.1322474
20
-1.10000002
11
-2.41226336
21
-1.10000002
0
LINE
8
0
10
-2.41226336
20
-1.10000002
11
10.2407699
21
-1.10000002
0
LINE
8
0
10
10.2407699
20
-1.10000002
11
10.3307231
21
-1.10000002
0
LINE
8
0
10
10.3307231
20
-1.10000002
11
10.5007272
21
-1.10000002
0
LINE
8
0
10
10.5007272
20
-1.10000002
11
10.7399535
21
-1.10000002
0
LINE
8
0
10
10.7399535
20
-1.10000002
11
11.0273522
21
-1.10000002
0
LINE
8
0
10
11.0273522
20
-1.10000002
11
11.3348175
21
-1.10000002
0
LINE
8
0
10
11.3348175
20
-1.10000002
11
11.6324976
21
-1.10000002
0
LINE
8
0
10
11.6324976
20
-1.10000002
11
11.8942774
21
-1.10000002
0
LINE
8
0
10
11.8942774
20
-1.10000002
11
12.1014949
21
-1.10000002
0
LINE
8
0
10
12.1014949
20
-1.10000002
11
12.24408
21
-1.10000002
0
LINE
8
0
10
12.24408
20
-1.10000002
11
13.75
21
-1.10000002
0
LINE
8
0
10
13.75
20
-1.10000002
11
13.75
21
2.99109956
0
LINE
8
0
10
13.75
20
2.99109956
11
13.75
21
5.46308589
0
LINE
8
0
10
13.75
20
5.46308589
11
13.6178687
21
5.46308589
0
LINE
8
0
10
13.6178687
20
5.46308589
11
13.4238273
21
5.46308589
0
LINE
8
0
10
13.4238273
20
5.46308589
11
12.3957248
21
5.46308589
0
LINE
8
0
10
12.3957248
20
5.46308589
11
-17.9305121
21
5.46308589
0
LINE
8
0
10
-17.9305121
20
5.46308589
11
-18.1245535
21
5.46308589
0
LINE
8
0
10
-18.1245535
20
5.46308589
11
-18.5499992
21
5.46308589
0
LINE
8
0
10
-18.5499992
20
5.46308589
11
-18.5499992
21
3.76293936
0
LINE
8
0
10
-18.5499992
20
3.76293936
11
-18.5499992
21
3.7091008
0
LINE
8
0
10
-18.5499992
20
3.7091008
11
-18.5499992
21
3.66710054
0
LINE
8
0
10
-18.5499992
20
3.66710054
11
-18.5499992
21
0.241111029
0
LINE
8
0
10
-18.5499992
20
0.241111029
11
-18.5499992
21
0.0959226221
0
LINE
8
0
10
-18.5499992
20
0.0959226221
11
-18.5499992
21
-0.0120927732
0
LINE
8
0
10
-18.5499992
20
-0.0120927732
11
-18.5499992
21
-0.0789166762
0
LINE
8
0
10
-18.5499992
20
-0.0789166762
11
-18.5499992
21
-0.70498507
0
LINE
8
0
10
-18.5499992
20
-0.70498507
11
-18.5499992
21
-0.744179844
0
LINE
8
0
10
-18.5499992
20
-0.744179844
11
-18.5499992
21
-0.756938799
0
LINE
8
0
10
-18.5499992
20
-0.756938799
11
-18.5499992
21
-1.10000002
0
LINE
8
0
10
-18.5499992
20
-1.10000002
11
-16.9191134
21
-1.10000002
0
LINE
8
0
10
-16.9191134
20
-1.10000002
11
-12.8534043
21
-1.10000002
0
LINE
8
0
10
-12.8534043
20
-1.10000002
11
-12.6613747
21
-1.10000002
0
LINE
8
0
10
-12.6613747
20
-1.10000002
11
-12.4066887
21
-1.10000002
0
LINE
8
0
10
-12.4066887
20
-1.10000002
11
-12.1036706
21
-1.10000002
0
LINE
8
0
10
-12.1036706
20
-1.10000002
11
-12.1036706
21
-1.10000002
0
ENDSEC
0
EOF
