0
SECTION
2
ENTITIES
0
LINE
8
0
10
12.1832715
20
46.5
11
13.75
21
46.5
0
LINE
8
0
10
13.75
20
46.5
11
13.75
21
42.3271602
0
LINE
8
0
10
13.75
20
42.3271602
11
13.75
21
40.2764793
0
LINE
8
0
10
13.75
20
40.2764793
11
12.7603631
21
40.2764793
0
LINE
8
0
10
12.7603631
20
40.2764793
11
11.3070318
21
40.2764793
0
LINE
8
0
10
11.3070318
20
40.2764793
11
3.60674973
21
40.2764793
0
LINE
8
0
10
3.60674973
20
40.2764793
11
-13.9101642
21
40.2764793
0
LINE
8
0
10
-13.9101642
20
40.2764793
11
-15.3634955
21
40.2764793
0
LINE
8
0
10
-15.3634955
20
40.2764793
11
-18.5499992
21
40.2764793
0
LINE
8
0
10
-18.5499992
20
40.2764793
11
-18.5499992
21
41.7393156
0
LINE
8
0
10
-18.5499992
20
41.7393156
11
-18.5499992
21
41.7873263
0
LINE
8
0
10
-18.5499992
20
41.7873263
11
-18.5499992
21
41.826329
0
LINE
8
0
10
-18.5499992
20
41.826329
11
-18.5499992
21
45.3933535
0
LINE
8
0
10
-18.5499992
20
45.3933535
11
-18.5499992
21
45.544176
0
LINE
8
0
10
-18.5499992
20
45.544176
11
-18.5499992
21
45.6614618
0
LINE
8
0
10
-18.5499992
20
45.6614618
11
-18.5499992
21
45.7400551
0
LINE
8
0
10
-18.5499992
20
45.7400551
11
-18.5499992
21
45.7780474
0
LINE
8
0
10
-18.5499992
20
45.7780474
11
-18.5499992
21
46.5
0
LINE
8
0
10
-18.5499992
20
46.5
11
-18.0634715
21
46.5
0
LINE
8
0
10
-18.0634715
20
46.5
11
-16.9743977
21
46.5
0
LINE
8
0
10
-16.9743977
20
46.5
11
-12.7445168
21
46.5
0
LINE
8
0
10
-12.7445168
20
46.5
11
-12.5447332
21
46.5
0
LINE
8
0
10
-12.5447332
20
46.5
11
-12.279763
21
46.5
0
LINE
8
0
10
-12.279763
20
46.5
11
-11.9645091
21
46.5
0
LINE
8
0
10
-11.9645091
20
46.5
11
-11.6229292
21
46.5
0
LINE
8
0
10
-11.6229292
20
46.5
11
-11.2860099
21
46.5
0
LINE
8
0
10
-11.2860099
20
46.5
11
-10.9870062
21
46.5
0
LINE
8
0
10
-10.9870062
20
46.5
11
-10.7551588
21
46.5
0
LINE
8
0
10
-10.7551588
20
46.5
11
-10.6101694
21
46.5
0
LINE
8
0
10
-10.6101694
20
46.5
11
-3.81394607
21
46.5
0
LINE
8
0
10
-3.81394607
20
46.5
11
-3.06488935
21
46.5
0
LINE
8
0
10
-3.06488935
20
46.5
11
10.0990685
21
46.5
0
LINE
8
0
10
10.0990685
20
46.5
11
10.192654
21
46.5
0
LINE
8
0
10
10.192654
20
46.5
11
10.3695228
21
46.5
0
LINE
8
0
10
10.3695228
20
46.5
11
10.618409
21
46.5
0
LINE
8
0
10
10.618409
20
46.5
11
10.9174127
21
46.5
0
LINE
8
0
10
10.9174127
20
46.5
11
11.2372933
21
46.5
0
LINE
8
0
10
11.2372933
20
46.5
11
11.5469936
21
46.5
0
LINE
8
0
10
11.5469936
20
46.5
11
11.819344
21
46.5
0
LINE
8
0
10
11.819344
20
46.5
11
12.0349289
21
46.5
0
LINE
8
0
10
12.0349289
20
46.5
11
12.1832715
21
46.5
0
LINE
8
0
10
12.1832715
20
46.5
11
12.1832715
21
46.5
0
LINE
8
0
10
12.1832715
20
-1.10000002
11
13.75
21
-1.10000002
0
LINE
8
0
10
13.75
20
-1.10000002
11
13.75
21
3.15629659
0
LINE
8
0
10
13.75
20
3.15629659
11
13.75
21
5.22352068
0
LINE
8
0
10
13.75
20
5.22352068
11
12.7603631
21
5.22352068
0
LINE
8
0
10
12.7603631
20
5.22352068
11
11.3070318
21
5.22352068
0
LINE
8
0
10
11.3070318
20
5.22352068
11
3.60674973
21
5.22352068
0
LINE
8
0
10
3.60674973
20
5.22352068
11
-13.9101642
21
5.22352068
0
LINE
8
0
10
-13.9101642
20
5.22352068
11
-15.3634955
21
5.22352068
0
LINE
8
0
10
-15.3634955
20
5.22352068
11
-18.5499992
21
5.22352068
0
LINE
8
0
10
-18.5499992
20
5.22352068
11
-18.5499992
21
3.8017556
0
LINE
8
0
10
-18.5499992
20
3.8017556
11
-18.5499992
21
3.75673254
0
LINE
8
0
10
-18.5499992
20
3.75673254
11
-18.5499992
21
3.72160939
0
LINE
8
0
10
-18.5499992
20
3.72160939
11
-18.5499992
21
0.195649638
0
LINE
8
0
10
-18.5499992
20
0.195649638
11
-18.5499992
21
0.0553828713
0
LINE
8
0
10
-18.5499992
20
0.0553828713
11
-18.5499992
21
-0.0489709851
0
LINE
8
0
10
-18.5499992
20
-0.0489709851
11
-18.5499992
21
-0.113529671
0
LINE
8
0
10
-18.5499992
20
-0.113529671
11
-18.5499992
21
-0.718375407
0
LINE
8
0
10
-18.5499992
20
-0.718375407
11
-18.5499992
21
-0.756241545
0
LINE
8
0
10
-18.5499992
20
-0.756241545
11
-18.5499992
21
-0.768567993
0
LINE
8
0
10
-18.5499992
20
-0.768567993
11
-18.5499992
21
-1.10000002
0
LINE
8
0
10
-18.5499992
20
-1.10000002
11
-16.9743977
21
-1.10000002
0
LINE
8
0
10
-16.9743977
20
-1.10000002
11
-12.7445168
21
-1.10000002
0
LINE
8
0
10
-12.7445168
20
-1.10000002
11
-12.5447332
21
-1.10000002
0
LINE
8
0
10
-12.5447332
20
-1.10000002
11
-12.279763
21
-1.10000002
0
LINE
8
0
10
-12.279763
20
-1.10000002
11
-11.9645091
21
-1.10000002
0
LINE
8
0
10
-11.9645091
20
-1.10000002
11
-11.6229292
21
-1.10000002
0
LINE
8
0
10
-11.6229292
20
-1.10000002
11
-11.2860099
21
-1.10000002
0
LINE
8
0
10
-11.2860099
20
-1.10000002
11
-10.9870062
21
-1.10000002
0
LINE
8
0
10
-10.9870062
20
-1.10000002
11
-10.7551588
21
-1.10000002
0
LINE
8
0
10
-10.7551588
20
-1.10000002
11
-10.6101694
21
-1.10000002
0
LINE
8
0
10
-10.6101694
20
-1.10000002
11
-3.81394607
21
-1.10000002
0
LINE
8
0
10
-3.81394607
20
-1.10000002
11
-3.06488935
21
-1.10000002
0
LINE
8
0
10
-3.06488935
20
-1.10000002
11
10.0990685
21
-1.10000002
0
LINE
8
0
10
10.0990685
20
-1.10000002
11
10.192654
21
-1.10000002
0
LINE
8
0
10
10.192654
20
-1.10000002
11
10.3695228
21
-1.10000002
0
LINE
8
0
10
10.3695228
20
-1.10000002
11
10.618409
21
-1.10000002
0
LINE
8
0
10
10.618409
20
-1.10000002
11
10.9174127
21
-1.10000002
0
LINE
8
0
10
10.9174127
20
-1.10000002
11
11.2372933
21
-1.10000002
0
LINE
8
0
10
11.2372933
20
-1.10000002
11
11.5469936
21
-1.10000002
0
LINE
8
0
10
11.5469936
20
-1.10000002
11
11.819344
21
-1.10000002
0
LINE
8
0
10
11.819344
20
-1.10000002
11
12.0349289
21
-1.10000002
0
LINE
8
0
10
12.0349289
20
-1.10000002
11
12.1832715
21
-1.10000002
0
LINE
8
0
10
12.1832715
20
-1.10000002
11
12.1832715
21
-1.10000002
0
ENDSEC
0
EOF
