0
SECTION
2
ENTITIES
0
LINE
8
0
10
-11.1205143
20
46.5
11
-11.4705102
21
46.5
0
LINE
8
0
10
-11.4705102
20
46.5
11
-11.8253476
21
46.5
0
LINE
8
0
10
-11.8253476
20
46.5
11
-12.1528373
21
46.5
0
LINE
8
0
10
-12.1528373
20
46.5
11
-12.4280916
21
46.5
0
LINE
8
0
10
-12.4280916
20
46.5
11
-12.6356293
21
46.5
0
LINE
8
0
10
-12.6356293
20
46.5
11
-17.0296819
21
46.5
0
LINE
8
0
10
-17.0296819
20
46.5
11
-18.0805426
21
46.5
0
LINE
8
0
10
-18.0805426
20
46.5
11
-18.5499992
21
46.5
0
LINE
8
0
10
-18.5499992
20
46.5
11
-18.5499992
21
45.8033791
0
LINE
8
0
10
-18.5499992
20
45.8033791
11
-18.5499992
21
45.7667198
0
LINE
8
0
10
-18.5499992
20
45.7667198
11
-18.5499992
21
45.6908842
0
LINE
8
0
10
-18.5499992
20
45.6908842
11
-18.5499992
21
45.5777137
0
LINE
8
0
10
-18.5499992
20
45.5777137
11
-18.5499992
21
45.4321832
0
LINE
8
0
10
-18.5499992
20
45.4321832
11
-18.5499992
21
41.7624338
0
LINE
8
0
10
-18.5499992
20
41.7624338
11
-18.5499992
21
41.7310678
0
LINE
8
0
10
-18.5499992
20
41.7310678
11
-18.5499992
21
41.6924576
0
LINE
8
0
10
-18.5499992
20
41.6924576
11
-18.5499992
21
40.5160445
0
LINE
8
0
10
-18.5499992
20
40.5160445
11
-12.6024376
21
40.5160445
0
LINE
8
0
10
-12.6024376
20
40.5160445
11
-9.88981631
21
40.5160445
0
LINE
8
0
10
-9.88981631
20
40.5160445
11
-5.18222538
21
40.5160445
0
LINE
8
0
10
-5.18222538
20
40.5160445
11
9.19023633
21
40.5160445
0
LINE
8
0
10
9.19023633
20
40.5160445
11
11.9028576
21
40.5160445
0
LINE
8
0
10
11.9028576
20
40.5160445
11
13.75
21
40.5160445
0
LINE
8
0
10
13.75
20
40.5160445
11
13.75
21
42.1652023
0
LINE
8
0
10
13.75
20
42.1652023
11
13.75
21
46.5
0
LINE
8
0
10
13.75
20
46.5
11
12.1224631
21
46.5
0
LINE
8
0
10
12.1224631
20
46.5
11
11.9683629
21
46.5
0
LINE
8
0
10
11.9683629
20
46.5
11
11.7444106
21
46.5
0
LINE
8
0
10
11.7444106
20
46.5
11
11.4614897
21
46.5
0
LINE
8
0
10
11.4614897
20
46.5
11
11.1397692
21
46.5
0
LINE
8
0
10
11.1397692
20
46.5
11
10.8074732
21
46.5
0
LINE
8
0
10
10.8074732
20
46.5
11
10.4968644
21
46.5
0
LINE
8
0
10
10.4968644
20
46.5
11
10.2383185
21
46.5
0
LINE
8
0
10
10.2383185
20
46.5
11
10.0545849
21
46.5
0
LINE
8
0
10
10.0545849
20
46.5
11
9.95736714
21
46.5
0
LINE
8
0
10
9.95736714
20
46.5
11
-3.71751534
21
46.5
0
LINE
8
0
10
-3.71751534
20
46.5
11
-4.49564474
21
46.5
0
LINE
8
0
10
-4.49564474
20
46.5
11
-10.4184428
21
46.5
0
LINE
8
0
10
-10.4184428
20
46.5
11
-10.5690595
21
46.5
0
LINE
8
0
10
-10.5690595
20
46.5
11
-10.8099055
21
46.5
0
LINE
8
0
10
-10.8099055
20
46.5
11
-11.1205143
21
46.5
0
LINE
8
0
10
-11.1205143
20
46.5
11
-11.1205143
21
46.5
0
LINE
8
0
10
-11.1205143
20
-1.10000002
11
-11.4705102
21
-1.10000002
0
LINE
8
0
10
-11.4705102
20
-1.10000002
11
-11.8253476
21
-1.10000002
0
LINE
8
0
10
-11.8253476
20
-1.10000002
11
-12.1528373
21
-1.10000002
0
LINE
8
0
10
-12.1528373
20
-1.10000002
11
-12.4280916
21
-1.10000002
0
LINE
8
0
10
-12.4280916
20
-1.10000002
11
-12.6356293
21
-1.10000002
0
LINE
8
0
10
-12.6356293
20
-1.10000002
11
-17.0296819
21
-1.10000002
0
LINE
8
0
10
-17.0296819
20
-1.10000002
11
-18.5499992
21
-1.10000002
0
LINE
8
0
10
-18.5499992
20
-1.10000002
11
-18.5499992
21
-0.780197187
0
LINE
8
0
10
-18.5499992
20
-0.780197187
11
-18.5499992
21
-0.768303246
0
LINE
8
0
10
-18.5499992
20
-0.768303246
11
-18.5499992
21
-0.731765745
0
LINE
8
0
10
-18.5499992
20
-0.731765745
11
-18.5499992
21
-0.148142666
0
LINE
8
0
10
-18.5499992
20
-0.148142666
11
-18.5499992
21
-0.085849197
0
LINE
8
0
10
-18.5499992
20
-0.085849197
11
-18.5499992
21
0.0148431206
0
LINE
8
0
10
-18.5499992
20
0.0148431206
11
-18.5499992
21
0.150188246
0
LINE
8
0
10
-18.5499992
20
0.150188246
11
-18.5499992
21
3.77611824
0
LINE
8
0
10
-18.5499992
20
3.77611824
11
-18.5499992
21
3.80436428
0
LINE
8
0
10
-18.5499992
20
3.80436428
11
-18.5499992
21
3.84057183
0
LINE
8
0
10
-18.5499992
20
3.84057183
11
-18.5499992
21
4.98395547
0
LINE
8
0
10
-18.5499992
20
4.98395547
11
-12.6024376
21
4.98395547
0
LINE
8
0
10
-12.6024376
20
4.98395547
11
-9.88981631
21
4.98395547
0
LINE
8
0
10
-9.88981631
20
4.98395547
11
-5.18222538
21
4.98395547
0
LINE
8
0
10
-5.18222538
20
4.98395547
11
9.19023633
21
4.98395547
0
LINE
8
0
10
9.19023633
20
4.98395547
11
11.9028576
21
4.98395547
0
LINE
8
0
10
11.9028576
20
4.98395547
11
13.75
21
4.98395547
0
LINE
8
0
10
13.75
20
4.98395547
11
13.75
21
3.32149363
0
LINE
8
0
10
13.75
20
3.32149363
11
13.75
21
-1.10000002
0
LINE
8
0
10
13.75
20
-1.10000002
11
12.1224631
21
-1.10000002
0
LINE
8
0
10
12.1224631
20
-1.10000002
11
11.9683629
21
-1.10000002
0
LINE
8
0
10
11.9683629
20
-1.10000002
11
11.7444106
21
-1.10000002
0
LINE
8
0
10
11.7444106
20
-1.10000002
11
11.4614897
21
-1.10000002
0
LINE
8
0
10
11.4614897
20
-1.10000002
11
11.1397692
21
-1.10000002
0
LINE
8
0
10
11.1397692
20
-1.10000002
11
10.8074732
21
-1.10000002
0
LINE
8
0
10
10.8074732
20
-1.10000002
11
10.4968644
21
-1.10000002
0
LINE
8
0
10
10.4968644
20
-1.10000002
11
10.2383185
21
-1.10000002
0
LINE
8
0
10
10.2383185
20
-1.10000002
11
10.0545849
21
-1.10000002
0
LINE
8
0
10
10.0545849
20
-1.10000002
11
9.95736714
21
-1.10000002
0
LINE
8
0
10
9.95736714
20
-1.10000002
11
-3.71751534
21
-1.10000002
0
LINE
8
0
10
-3.71751534
20
-1.10000002
11
-4.49564474
21
-1.10000002
0
LINE
8
0
10
-4.49564474
20
-1.10000002
11
-10.4184428
21
-1.10000002
0
LINE
8
0
10
-10.4184428
20
-1.10000002
11
-10.5690595
21
-1.10000002
0
LINE
8
0
10
-10.5690595
20
-1.10000002
11
-10.8099055
21
-1.10000002
0
LINE
8
0
10
-10.8099055
20
-1.10000002
11
-11.1205143
21
-1.10000002
0
LINE
8
0
10
-11.1205143
20
-1.10000002
11
-11.1205143
21
-1.10000002
0
ENDSEC
0
EOF
