0
SECTION
2
ENTITIES
0
LINE
8
0
10
9.03681466
20
4
11
11.6751944
21
4
0
LINE
8
0
10
11.6751944
20
4
11
11.6751944
21
4.74439026
0
LINE
8
0
10
11.6751944
20
4.74439026
11
11.9534118
21
4.74439026
0
LINE
8
0
10
11.9534118
20
4.74439026
11
13.75
21
4.74439026
0
LINE
8
0
10
13.75
20
4.74439026
11
13.75
21
3.48669066
0
LINE
8
0
10
13.75
20
3.48669066
11
13.75
21
-1.10000002
0
LINE
8
0
10
13.75
20
-1.10000002
11
12.0616546
21
-1.10000002
0
LINE
8
0
10
12.0616546
20
-1.10000002
11
11.9017969
21
-1.10000002
0
LINE
8
0
10
11.9017969
20
-1.10000002
11
11.6694773
21
-1.10000002
0
LINE
8
0
10
11.6694773
20
-1.10000002
11
11.3759858
21
-1.10000002
0
LINE
8
0
10
11.3759858
20
-1.10000002
11
11.042245
21
-1.10000002
0
LINE
8
0
10
11.042245
20
-1.10000002
11
10.6975337
21
-1.10000002
0
LINE
8
0
10
10.6975337
20
-1.10000002
11
10.3753199
21
-1.10000002
0
LINE
8
0
10
10.3753199
20
-1.10000002
11
10.1071141
21
-1.10000002
0
LINE
8
0
10
10.1071141
20
-1.10000002
11
9.91651578
21
-1.10000002
0
LINE
8
0
10
9.91651578
20
-1.10000002
11
9.81566577
21
-1.10000002
0
LINE
8
0
10
9.81566577
20
-1.10000002
11
-4.37014134
21
-1.10000002
0
LINE
8
0
10
-4.37014134
20
-1.10000002
11
-5.17734342
21
-1.10000002
0
LINE
8
0
10
-5.17734342
20
-1.10000002
11
-10.2267162
21
-1.10000002
0
LINE
8
0
10
-10.2267162
20
-1.10000002
11
-10.3829603
21
-1.10000002
0
LINE
8
0
10
-10.3829603
20
-1.10000002
11
-10.6328048
21
-1.10000002
0
LINE
8
0
10
-10.6328048
20
-1.10000002
11
-10.9550186
21
-1.10000002
0
LINE
8
0
10
-10.9550186
20
-1.10000002
11
-11.3180912
21
-1.10000002
0
LINE
8
0
10
-11.3180912
20
-1.10000002
11
-11.6861862
21
-1.10000002
0
LINE
8
0
10
-11.6861862
20
-1.10000002
11
-12.0259116
21
-1.10000002
0
LINE
8
0
10
-12.0259116
20
-1.10000002
11
-12.31145
21
-1.10000002
0
LINE
8
0
10
-12.31145
20
-1.10000002
11
-12.5267418
21
-1.10000002
0
LINE
8
0
10
-12.5267418
20
-1.10000002
11
-17.0849662
21
-1.10000002
0
LINE
8
0
10
-17.0849662
20
-1.10000002
11
-18.5499992
21
-1.10000002
0
LINE
8
0
10
-18.5499992
20
-1.10000002
11
-18.5499992
21
-0.791826382
0
LINE
8
0
10
-18.5499992
20
-0.791826382
11
-18.5499992
21
-0.780364947
0
LINE
8
0
10
-18.5499992
20
-0.780364947
11
-18.5499992
21
-0.745156082
0
LINE
8
0
10
-18.5499992
20
-0.745156082
11
-18.5499992
21
-0.182755661
0
LINE
8
0
10
-18.5499992
20
-0.182755661
11
-18.5499992
21
-0.122727409
0
LINE
8
0
10
-18.5499992
20
-0.122727409
11
-18.5499992
21
-0.0256966301
0
LINE
8
0
10
-18.5499992
20
-0.0256966301
11
-18.5499992
21
0.104726854
0
LINE
8
0
10
-18.5499992
20
0.104726854
11
-18.5499992
21
3.83062709
0
LINE
8
0
10
-18.5499992
20
3.83062709
11
-18.5499992
21
3.85199603
0
LINE
8
0
10
-18.5499992
20
3.85199603
11
-18.5499992
21
3.87938806
0
LINE
8
0
10
-18.5499992
20
3.87938806
11
-18.5499992
21
4.74439026
0
LINE
8
0
10
-18.5499992
20
4.74439026
11
-12.7652158
21
4.74439026
0
LINE
8
0
10
-12.7652158
20
4.74439026
11
-11.6751944
21
4.74439026
0
LINE
8
0
10
-11.6751944
20
4.74439026
11
-11.6751944
21
4
0
LINE
8
0
10
-11.6751944
20
4
11
-10.9631853
21
4
0
LINE
8
0
10
-10.9631853
20
4
11
-8.32480551
21
4
0
LINE
8
0
10
-8.32480551
20
4
11
-8.32480551
21
4.74439026
0
LINE
8
0
10
-8.32480551
20
4.74439026
11
-5.65429757
21
4.74439026
0
LINE
8
0
10
-5.65429757
20
4.74439026
11
8.32480551
21
4.74439026
0
LINE
8
0
10
8.32480551
20
4.74439026
11
8.32480551
21
4
0
LINE
8
0
10
8.32480551
20
4
11
9.03681466
21
4
0
LINE
8
0
10
9.03681466
20
4
11
9.03681466
21
4
0
LINE
8
0
10
9.03681466
20
41.5
11
11.6751944
21
41.5
0
LINE
8
0
10
11.6751944
20
41.5
11
11.6751944
21
40.7556097
0
LINE
8
0
10
11.6751944
20
40.7556097
11
11.9534118
21
40.7556097
0
LINE
8
0
10
11.9534118
20
40.7556097
11
13.75
21
40.7556097
0
LINE
8
0
10
13.75
20
40.7556097
11
13.75
21
42.0032445
0
LINE
8
0
10
13.75
20
42.0032445
11
13.75
21
46.5
0
LINE
8
0
10
13.75
20
46.5
11
12.0616546
21
46.5
0
LINE
8
0
10
12.0616546
20
46.5
11
11.9017969
21
46.5
0
LINE
8
0
10
11.9017969
20
46.5
11
11.6694773
21
46.5
0
LINE
8
0
10
11.6694773
20
46.5
11
11.3759858
21
46.5
0
LINE
8
0
10
11.3759858
20
46.5
11
11.042245
21
46.5
0
LINE
8
0
10
11.042245
20
46.5
11
10.6975337
21
46.5
0
LINE
8
0
10
10.6975337
20
46.5
11
10.3753199
21
46.5
0
LINE
8
0
10
10.3753199
20
46.5
11
10.1071141
21
46.5
0
LINE
8
0
10
10.1071141
20
46.5
11
9.91651578
21
46.5
0
LINE
8
0
10
9.91651578
20
46.5
11
9.81566577
21
46.5
0
LINE
8
0
10
9.81566577
20
46.5
11
-4.37014134
21
46.5
0
LINE
8
0
10
-4.37014134
20
46.5
11
-5.17734342
21
46.5
0
LINE
8
0
10
-5.17734342
20
46.5
11
-10.2267162
21
46.5
0
LINE
8
0
10
-10.2267162
20
46.5
11
-10.3829603
21
46.5
0
LINE
8
0
10
-10.3829603
20
46.5
11
-10.6328048
21
46.5
0
LINE
8
0
10
-10.6328048
20
46.5
11
-10.9550186
21
46.5
0
LINE
8
0
10
-10.9550186
20
46.5
11
-11.3180912
21
46.5
0
LINE
8
0
10
-11.3180912
20
46.5
11
-11.6861862
21
46.5
0
LINE
8
0
10
-11.6861862
20
46.5
11
-12.0259116
21
46.5
0
LINE
8
0
10
-12.0259116
20
46.5
11
-12.31145
21
46.5
0
LINE
8
0
10
-12.31145
20
46.5
11
-12.5267418
21
46.5
0
LINE
8
0
10
-12.5267418
20
46.5
11
-17.0849662
21
46.5
0
LINE
8
0
10
-17.0849662
20
46.5
11
-18.0976138
21
46.5
0
LINE
8
0
10
-18.0976138
20
46.5
11
-18.5499992
21
46.5
0
LINE
8
0
10
-18.5499992
20
46.5
11
-18.5499992
21
45.8287107
0
LINE
8
0
10
-18.5499992
20
45.8287107
11
-18.5499992
21
45.7933846
0
LINE
8
0
10
-18.5499992
20
45.7933846
11
-18.5499992
21
45.7203066
0
LINE
8
0
10
-18.5499992
20
45.7203066
11
-18.5499992
21
45.6112514
0
LINE
8
0
10
-18.5499992
20
45.6112514
11
-18.5499992
21
45.4710129
0
LINE
8
0
10
-18.5499992
20
45.4710129
11
-18.5499992
21
41.6985386
0
LINE
8
0
10
-18.5499992
20
41.6985386
11
-18.5499992
21
41.6748094
0
LINE
8
0
10
-18.5499992
20
41.6748094
11
-18.5499992
21
41.6455997
0
LINE
8
0
10
-18.5499992
20
41.6455997
11
-18.5499992
21
40.7556097
0
LINE
8
0
10
-18.5499992
20
40.7556097
11
-12.7652158
21
40.7556097
0
LINE
8
0
10
-12.7652158
20
40.7556097
11
-11.6751944
21
40.7556097
0
LINE
8
0
10
-11.6751944
20
40.7556097
11
-11.6751944
21
41.5
0
LINE
8
0
10
-11.6751944
20
41.5
11
-10.9631853
21
41.5
0
LINE
8
0
10
-10.9631853
20
41.5
11
-8.32480551
21
41.5
0
LINE
8
0
10
-8.32480551
20
41.5
11
-8.32480551
21
40.7556097
0
LINE
8
0
10
-8.32480551
20
40.7556097
11
5.65429757
21
40.7556097
0
LINE
8
0
10
5.65429757
20
40.7556097
11
8.32480551
21
40.7556097
0
LINE
8
0
10
8.32480551
20
40.7556097
11
8.32480551
21
41.5
0
LINE
8
0
10
8.32480551
20
41.5
11
9.03681466
21
41.5
0
LINE
8
0
10
9.03681466
20
41.5
11
9.03681466
21
41.5
0
ENDSEC
0
EOF
