0
SECTION
2
ENTITIES
0
LINE
8
0
10
13.1097946
20
4.26525983
11
13.75
21
4.26525983
0
LINE
8
0
10
13.75
20
4.26525983
11
13.75
21
3.81708472
0
LINE
8
0
10
13.75
20
3.81708472
11
13.75
21
-1.10000002
0
LINE
8
0
10
13.75
20
-1.10000002
11
11.9400377
21
-1.10000002
0
LINE
8
0
10
11.9400377
20
-1.10000002
11
11.7686649
21
-1.10000002
0
LINE
8
0
10
11.7686649
20
-1.10000002
11
11.5196105
21
-1.10000002
0
LINE
8
0
10
11.5196105
20
-1.10000002
11
11.2049779
21
-1.10000002
0
LINE
8
0
10
11.2049779
20
-1.10000002
11
10.8471967
21
-1.10000002
0
LINE
8
0
10
10.8471967
20
-1.10000002
11
10.4776548
21
-1.10000002
0
LINE
8
0
10
10.4776548
20
-1.10000002
11
10.1322309
21
-1.10000002
0
LINE
8
0
10
10.1322309
20
-1.10000002
11
9.84470529
21
-1.10000002
0
LINE
8
0
10
9.84470529
20
-1.10000002
11
9.64037759
21
-1.10000002
0
LINE
8
0
10
9.64037759
20
-1.10000002
11
9.53226304
21
-1.10000002
0
LINE
8
0
10
9.53226304
20
-1.10000002
11
-5.67539332
21
-1.10000002
0
LINE
8
0
10
-5.67539332
20
-1.10000002
11
-6.54074076
21
-1.10000002
0
LINE
8
0
10
-6.54074076
20
-1.10000002
11
-9.84326293
21
-1.10000002
0
LINE
8
0
10
-9.84326293
20
-1.10000002
11
-10.0107618
21
-1.10000002
0
LINE
8
0
10
-10.0107618
20
-1.10000002
11
-10.2786035
21
-1.10000002
0
LINE
8
0
10
-10.2786035
20
-1.10000002
11
-10.6240273
21
-1.10000002
0
LINE
8
0
10
-10.6240273
20
-1.10000002
11
-11.0132532
21
-1.10000002
0
LINE
8
0
10
-11.0132532
20
-1.10000002
11
-11.4078632
21
-1.10000002
0
LINE
8
0
10
-11.4078632
20
-1.10000002
11
-11.7720602
21
-1.10000002
0
LINE
8
0
10
-11.7720602
20
-1.10000002
11
-12.0781668
21
-1.10000002
0
LINE
8
0
10
-12.0781668
20
-1.10000002
11
-12.3089668
21
-1.10000002
0
LINE
8
0
10
-12.3089668
20
-1.10000002
11
-17.1955347
21
-1.10000002
0
LINE
8
0
10
-17.1955347
20
-1.10000002
11
-18.5499992
21
-1.10000002
0
LINE
8
0
10
-18.5499992
20
-1.10000002
11
-18.5499992
21
-0.81508477
0
LINE
8
0
10
-18.5499992
20
-0.81508477
11
-18.5499992
21
-0.804488349
0
LINE
8
0
10
-18.5499992
20
-0.804488349
11
-18.5499992
21
-0.771936757
0
LINE
8
0
10
-18.5499992
20
-0.771936757
11
-18.5499992
21
-0.25198165
0
LINE
8
0
10
-18.5499992
20
-0.25198165
11
-18.5499992
21
-0.196483833
0
LINE
8
0
10
-18.5499992
20
-0.196483833
11
-18.5499992
21
-0.106776131
0
LINE
8
0
10
-18.5499992
20
-0.106776131
11
-18.5499992
21
0.0138040711
0
LINE
8
0
10
-18.5499992
20
0.0138040711
11
-18.5499992
21
3.93964479
0
LINE
8
0
10
-18.5499992
20
3.93964479
11
-18.5499992
21
3.94725951
0
LINE
8
0
10
-18.5499992
20
3.94725951
11
-18.5499992
21
3.95702052
0
LINE
8
0
10
-18.5499992
20
3.95702052
11
-18.5499992
21
4.26525983
0
LINE
8
0
10
-18.5499992
20
4.26525983
11
-16.4886199
21
4.26525983
0
LINE
8
0
10
-16.4886199
20
4.26525983
11
-11.9518203
21
4.26525983
0
LINE
8
0
10
-11.9518203
20
4.26525983
11
-11.9518203
21
4
0
LINE
8
0
10
-11.9518203
20
4
11
-8.98835309
21
4
0
LINE
8
0
10
-8.98835309
20
4
11
-8.04817934
21
4
0
LINE
8
0
10
-8.04817934
20
4
11
-8.04817934
21
4.26525983
0
LINE
8
0
10
-8.04817934
20
4.26525983
11
3.06679419
21
4.26525983
0
LINE
8
0
10
3.06679419
20
4.26525983
11
8.04817934
21
4.26525983
0
LINE
8
0
10
8.04817934
20
4.26525983
11
8.04817934
21
4
0
LINE
8
0
10
8.04817934
20
4
11
11.0116466
21
4
0
LINE
8
0
10
11.0116466
20
4
11
11.9518203
21
4
0
LINE
8
0
10
11.9518203
20
4
11
11.9518203
21
4.26525983
0
LINE
8
0
10
11.9518203
20
4.26525983
11
13.1097946
21
4.26525983
0
LINE
8
0
10
13.1097946
20
4.26525983
11
13.1097946
21
4.26525983
0
LINE
8
0
10
13.1097946
20
41.2347402
11
13.75
21
41.2347402
0
LINE
8
0
10
13.75
20
41.2347402
11
13.75
21
41.6793287
0
LINE
8
0
10
13.75
20
41.6793287
11
13.75
21
46.5
0
LINE
8
0
10
13.75
20
46.5
11
11.9400377
21
46.5
0
LINE
8
0
10
11.9400377
20
46.5
11
11.7686649
21
46.5
0
LINE
8
0
10
11.7686649
20
46.5
11
11.5196105
21
46.5
0
LINE
8
0
10
11.5196105
20
46.5
11
11.2049779
21
46.5
0
LINE
8
0
10
11.2049779
20
46.5
11
10.8471967
21
46.5
0
LINE
8
0
10
10.8471967
20
46.5
11
10.4776548
21
46.5
0
LINE
8
0
10
10.4776548
20
46.5
11
10.1322309
21
46.5
0
LINE
8
0
10
10.1322309
20
46.5
11
9.84470529
21
46.5
0
LINE
8
0
10
9.84470529
20
46.5
11
9.64037759
21
46.5
0
LINE
8
0
10
9.64037759
20
46.5
11
9.53226304
21
46.5
0
LINE
8
0
10
9.53226304
20
46.5
11
-5.67539332
21
46.5
0
LINE
8
0
10
-5.67539332
20
46.5
11
-6.54074076
21
46.5
0
LINE
8
0
10
-6.54074076
20
46.5
11
-9.84326293
21
46.5
0
LINE
8
0
10
-9.84326293
20
46.5
11
-10.0107618
21
46.5
0
LINE
8
0
10
-10.0107618
20
46.5
11
-10.2786035
21
46.5
0
LINE
8
0
10
-10.2786035
20
46.5
11
-10.6240273
21
46.5
0
LINE
8
0
10
-10.6240273
20
46.5
11
-11.0132532
21
46.5
0
LINE
8
0
10
-11.0132532
20
46.5
11
-11.4078632
21
46.5
0
LINE
8
0
10
-11.4078632
20
46.5
11
-11.7720602
21
46.5
0
LINE
8
0
10
-11.7720602
20
46.5
11
-12.0781668
21
46.5
0
LINE
8
0
10
-12.0781668
20
46.5
11
-12.3089668
21
46.5
0
LINE
8
0
10
-12.3089668
20
46.5
11
-17.1955347
21
46.5
0
LINE
8
0
10
-17.1955347
20
46.5
11
-18.1317561
21
46.5
0
LINE
8
0
10
-18.1317561
20
46.5
11
-18.5499992
21
46.5
0
LINE
8
0
10
-18.5499992
20
46.5
11
-18.5499992
21
45.8793741
0
LINE
8
0
10
-18.5499992
20
45.8793741
11
-18.5499992
21
45.846714
0
LINE
8
0
10
-18.5499992
20
45.846714
11
-18.5499992
21
45.7791514
0
LINE
8
0
10
-18.5499992
20
45.7791514
11
-18.5499992
21
45.6783268
0
LINE
8
0
10
-18.5499992
20
45.6783268
11
-18.5499992
21
45.5486723
0
LINE
8
0
10
-18.5499992
20
45.5486723
11
-18.5499992
21
41.5707483
0
LINE
8
0
10
-18.5499992
20
41.5707483
11
-18.5499992
21
41.5622925
0
LINE
8
0
10
-18.5499992
20
41.5622925
11
-18.5499992
21
41.5518837
0
LINE
8
0
10
-18.5499992
20
41.5518837
11
-18.5499992
21
41.2347402
0
LINE
8
0
10
-18.5499992
20
41.2347402
11
-16.4886199
21
41.2347402
0
LINE
8
0
10
-16.4886199
20
41.2347402
11
-11.9518203
21
41.2347402
0
LINE
8
0
10
-11.9518203
20
41.2347402
11
-11.9518203
21
41.5
0
LINE
8
0
10
-11.9518203
20
41.5
11
-8.98835309
21
41.5
0
LINE
8
0
10
-8.98835309
20
41.5
11
-8.04817934
21
41.5
0
LINE
8
0
10
-8.04817934
20
41.5
11
-8.04817934
21
41.2347402
0
LINE
8
0
10
-8.04817934
20
41.2347402
11
-3.06679419
21
41.2347402
0
LINE
8
0
10
-3.06679419
20
41.2347402
11
8.04817934
21
41.2347402
0
LINE
8
0
10
8.04817934
20
41.2347402
11
8.04817934
21
41.5
0
LINE
8
0
10
8.04817934
20
41.5
11
11.0116466
21
41.5
0
LINE
8
0
10
11.0116466
20
41.5
11
11.9518203
21
41.5
0
LINE
8
0
10
11.9518203
20
41.5
11
11.9518203
21
41.2347402
0
LINE
8
0
10
11.9518203
20
41.2347402
11
13.1097946
21
41.2347402
0
LINE
8
0
10
13.1097946
20
41.2347402
11
13.1097946
21
41.2347402
0
ENDSEC
0
EOF
