0
SECTION
2
ENTITIES
0
LINE
8
0
10
9.49506938
20
4
11
9.05657313
21
4
0
LINE
8
0
10
9.05657313
20
4
11
8.53774553
21
4
0
LINE
8
0
10
8.53774553
20
4
11
8.25700218
21
4
0
LINE
8
0
10
8.25700218
20
4
11
0.716483878
21
4
0
LINE
8
0
10
0.716483878
20
4
11
-8.25700218
21
4
0
LINE
8
0
10
-8.25700218
20
4
11
-8.53774553
21
4
0
LINE
8
0
10
-8.53774553
20
4
11
-9.05657313
21
4
0
LINE
8
0
10
-9.05657313
20
4
11
-9.49506938
21
4
0
LINE
8
0
10
-9.49506938
20
4
11
-9.46624049
21
-0.575418919
0
LINE
8
0
10
-9.46624049
20
-0.575418919
11
-9.47113228
21
-1.10000002
0
LINE
8
0
10
-9.47113228
20
-1.10000002
11
-9.45246407
21
-1.10000002
0
LINE
8
0
10
-9.45246407
20
-1.10000002
11
-9.26808306
21
-1.10000002
0
LINE
8
0
10
-9.26808306
20
-1.10000002
11
-8.58583678
21
-1.10000002
0
LINE
8
0
10
-8.58583678
20
-1.10000002
11
-7.63327131
21
-1.10000002
0
LINE
8
0
10
-7.63327131
20
-1.10000002
11
9.10715894
21
-1.10000002
0
LINE
8
0
10
9.10715894
20
-1.10000002
11
9.22617032
21
-1.10000002
0
LINE
8
0
10
9.22617032
20
-1.10000002
11
9.45109212
21
-1.10000002
0
LINE
8
0
10
9.45109212
20
-1.10000002
11
9.47113228
21
-1.10000002
0
LINE
8
0
10
9.47113228
20
-1.10000002
11
9.46624049
21
-0.575418919
0
LINE
8
0
10
9.46624049
20
-0.575418919
11
9.49506938
21
4
0
LINE
8
0
10
9.49506938
20
4
11
9.49506938
21
4
0
LINE
8
0
10
9.49506938
20
41.5
11
9.05657313
21
41.5
0
LINE
8
0
10
9.05657313
20
41.5
11
8.53774553
21
41.5
0
LINE
8
0
10
8.53774553
20
41.5
11
8.25700218
21
41.5
0
LINE
8
0
10
8.25700218
20
41.5
11
0.716483878
21
41.5
0
LINE
8
0
10
0.716483878
20
41.5
11
-8.25700218
21
41.5
0
LINE
8
0
10
-8.25700218
20
41.5
11
-8.53774553
21
41.5
0
LINE
8
0
10
-8.53774553
20
41.5
11
-9.05657313
21
41.5
0
LINE
8
0
10
-9.05657313
20
41.5
11
-9.49506938
21
41.5
0
LINE
8
0
10
-9.49506938
20
41.5
11
-9.46624049
21
45.9857048
0
LINE
8
0
10
-9.46624049
20
45.9857048
11
-9.47113228
21
46.5
0
LINE
8
0
10
-9.47113228
20
46.5
11
-9.45246407
21
46.5
0
LINE
8
0
10
-9.45246407
20
46.5
11
-9.26808306
21
46.5
0
LINE
8
0
10
-9.26808306
20
46.5
11
-8.58583678
21
46.5
0
LINE
8
0
10
-8.58583678
20
46.5
11
-7.63327131
21
46.5
0
LINE
8
0
10
-7.63327131
20
46.5
11
9.10715894
21
46.5
0
LINE
8
0
10
9.10715894
20
46.5
11
9.22617032
21
46.5
0
LINE
8
0
10
9.22617032
20
46.5
11
9.45109212
21
46.5
0
LINE
8
0
10
9.45109212
20
46.5
11
9.47113228
21
46.5
0
LINE
8
0
10
9.47113228
20
46.5
11
9.46624049
21
45.9857048
0
LINE
8
0
10
9.46624049
20
45.9857048
11
9.49506938
21
41.5
0
LINE
8
0
10
9.49506938
20
41.5
11
9.49506938
21
41.5
0
LINE
8
0
10
11.2948104
20
46.5
11
11.5689669
21
46.5
0
LINE
8
0
10
11.5689669
20
46.5
11
11.7576122
21
46.5
0
LINE
8
0
10
11.7576122
20
46.5
11
13.75
21
46.5
0
LINE
8
0
10
13.75
20
46.5
11
13.75
21
41.9045581
0
LINE
8
0
10
13.75
20
41.9045581
11
13.75
21
41.5
0
LINE
8
0
10
13.75
20
41.5
11
13.2665337
21
41.5
0
LINE
8
0
10
13.2665337
20
41.5
11
13.1695289
21
41.5
0
LINE
8
0
10
13.1695289
20
41.5
11
12.9923797
21
41.5
0
LINE
8
0
10
12.9923797
20
41.5
11
12.6778685
21
41.5
0
LINE
8
0
10
12.6778685
20
41.5
11
12.1266371
21
41.5
0
LINE
8
0
10
12.1266371
20
41.5
11
11.2061824
21
41.5
0
LINE
8
0
10
11.2061824
20
41.5
11
10.9434268
21
41.5
0
LINE
8
0
10
10.9434268
20
41.5
11
10.5049306
21
41.5
0
LINE
8
0
10
10.5049306
20
41.5
11
10.5337595
21
45.9857048
0
LINE
8
0
10
10.5337595
20
45.9857048
11
10.5288677
21
46.5
0
LINE
8
0
10
10.5288677
20
46.5
11
10.5546243
21
46.5
0
LINE
8
0
10
10.5546243
20
46.5
11
10.9484661
21
46.5
0
LINE
8
0
10
10.9484661
20
46.5
11
11.2948104
21
46.5
0
LINE
8
0
10
11.2948104
20
46.5
11
11.2948104
21
46.5
0
LINE
8
0
10
11.2948104
20
-1.10000002
11
11.5689669
21
-1.10000002
0
LINE
8
0
10
11.5689669
20
-1.10000002
11
11.7576122
21
-1.10000002
0
LINE
8
0
10
11.7576122
20
-1.10000002
11
13.75
21
-1.10000002
0
LINE
8
0
10
13.75
20
-1.10000002
11
13.75
21
3.58735076
0
LINE
8
0
10
13.75
20
3.58735076
11
13.75
21
4
0
LINE
8
0
10
13.75
20
4
11
13.2665337
21
4
0
LINE
8
0
10
13.2665337
20
4
11
13.1695289
21
4
0
LINE
8
0
10
13.1695289
20
4
11
12.9923797
21
4
0
LINE
8
0
10
12.9923797
20
4
11
12.6778685
21
4
0
LINE
8
0
10
12.6778685
20
4
11
12.1266371
21
4
0
LINE
8
0
10
12.1266371
20
4
11
11.2061824
21
4
0
LINE
8
0
10
11.2061824
20
4
11
10.9434268
21
4
0
LINE
8
0
10
10.9434268
20
4
11
10.5049306
21
4
0
LINE
8
0
10
10.5049306
20
4
11
10.5337595
21
-0.575418919
0
LINE
8
0
10
10.5337595
20
-0.575418919
11
10.5288677
21
-1.10000002
0
LINE
8
0
10
10.5288677
20
-1.10000002
11
10.5546243
21
-1.10000002
0
LINE
8
0
10
10.5546243
20
-1.10000002
11
10.9484661
21
-1.10000002
0
LINE
8
0
10
10.9484661
20
-1.10000002
11
11.2948104
21
-1.10000002
0
LINE
8
0
10
11.2948104
20
-1.10000002
11
11.2948104
21
-1.10000002
0
LINE
8
0
10
-15.405706
20
4
11
-16.2271928
21
4
0
LINE
8
0
10
-16.2271928
20
4
11
-16.7328171
21
4
0
LINE
8
0
10
-16.7328171
20
4
11
-17.0471756
21
4
0
LINE
8
0
10
-17.0471756
20
4
11
-17.2416274
21
4
0
LINE
8
0
10
-17.2416274
20
4
11
-18.5499992
21
4
0
LINE
8
0
10
-18.5499992
20
4
11
-18.5499992
21
3.95954419
0
LINE
8
0
10
-18.5499992
20
3.95954419
11
-18.5499992
21
3.58735076
0
LINE
8
0
10
-18.5499992
20
3.58735076
11
-18.5499992
21
-0.122580104
0
LINE
8
0
10
-18.5499992
20
-0.122580104
11
-18.5499992
21
-0.228395384
0
LINE
8
0
10
-18.5499992
20
-0.228395384
11
-18.5499992
21
-0.307118468
0
LINE
8
0
10
-18.5499992
20
-0.307118468
11
-18.5499992
21
-0.355820635
0
LINE
8
0
10
-18.5499992
20
-0.355820635
11
-18.5499992
21
-0.812107769
0
LINE
8
0
10
-18.5499992
20
-0.812107769
11
-18.5499992
21
-0.840673452
0
LINE
8
0
10
-18.5499992
20
-0.840673452
11
-18.5499992
21
-0.849972352
0
LINE
8
0
10
-18.5499992
20
-0.849972352
11
-18.5499992
21
-1.10000002
0
LINE
8
0
10
-18.5499992
20
-1.10000002
11
-17.3613875
21
-1.10000002
0
LINE
8
0
10
-17.3613875
20
-1.10000002
11
-11.9823043
21
-1.10000002
0
LINE
8
0
10
-11.9823043
20
-1.10000002
11
-11.728242
21
-1.10000002
0
LINE
8
0
10
-11.728242
20
-1.10000002
11
-11.3912831
21
-1.10000002
0
LINE
8
0
10
-11.3912831
20
-1.10000002
11
-10.9903788
21
-1.10000002
0
LINE
8
0
10
-10.9903788
20
-1.10000002
11
-10.5559963
21
-1.10000002
0
LINE
8
0
10
-10.5559963
20
-1.10000002
11
-10.5288677
21
-1.10000002
0
LINE
8
0
10
-10.5288677
20
-1.10000002
11
-10.5337595
21
-0.575418919
0
LINE
8
0
10
-10.5337595
20
-0.575418919
11
-10.5049306
21
4
0
LINE
8
0
10
-10.5049306
20
4
11
-10.9434268
21
4
0
LINE
8
0
10
-10.9434268
20
4
11
-11.4622543
21
4
0
LINE
8
0
10
-11.4622543
20
4
11
-14.065224
21
4
0
LINE
8
0
10
-14.065224
20
4
11
-15.405706
21
4
0
LINE
8
0
10
-15.405706
20
4
11
-15.405706
21
4
0
LINE
8
0
10
-15.405706
20
41.5
11
-16.2271928
21
41.5
0
LINE
8
0
10
-16.2271928
20
41.5
11
-16.7328171
21
41.5
0
LINE
8
0
10
-16.7328171
20
41.5
11
-17.0471756
21
41.5
0
LINE
8
0
10
-17.0471756
20
41.5
11
-17.2416274
21
41.5
0
LINE
8
0
10
-17.2416274
20
41.5
11
-18.5499992
21
41.5
0
LINE
8
0
10
-18.5499992
20
41.5
11
-18.5499992
21
41.5404558
0
LINE
8
0
10
-18.5499992
20
41.5404558
11
-18.5499992
21
41.9045581
0
LINE
8
0
10
-18.5499992
20
41.9045581
11
-18.5499992
21
45.6651614
0
LINE
8
0
10
-18.5499992
20
45.6651614
11
-18.5499992
21
45.7789398
0
LINE
8
0
10
-18.5499992
20
45.7789398
11
-18.5499992
21
45.8674186
0
LINE
8
0
10
-18.5499992
20
45.8674186
11
-18.5499992
21
45.9267082
0
LINE
8
0
10
-18.5499992
20
45.9267082
11
-18.5499992
21
45.9553691
0
LINE
8
0
10
-18.5499992
20
45.9553691
11
-18.5499992
21
46.5
0
LINE
8
0
10
-18.5499992
20
46.5
11
-18.1829695
21
46.5
0
LINE
8
0
10
-18.1829695
20
46.5
11
-17.3613875
21
46.5
0
LINE
8
0
10
-17.3613875
20
46.5
11
-11.9823043
21
46.5
0
LINE
8
0
10
-11.9823043
20
46.5
11
-11.728242
21
46.5
0
LINE
8
0
10
-11.728242
20
46.5
11
-11.3912831
21
46.5
0
LINE
8
0
10
-11.3912831
20
46.5
11
-10.9903788
21
46.5
0
LINE
8
0
10
-10.9903788
20
46.5
11
-10.5559963
21
46.5
0
LINE
8
0
10
-10.5559963
20
46.5
11
-10.5288677
21
46.5
0
LINE
8
0
10
-10.5288677
20
46.5
11
-10.5337595
21
45.9857048
0
LINE
8
0
10
-10.5337595
20
45.9857048
11
-10.5049306
21
41.5
0
LINE
8
0
10
-10.5049306
20
41.5
11
-10.9434268
21
41.5
0
LINE
8
0
10
-10.9434268
20
41.5
11
-11.4622543
21
41.5
0
LINE
8
0
10
-11.4622543
20
41.5
11
-14.065224
21
41.5
0
LINE
8
0
10
-14.065224
20
41.5
11
-15.405706
21
41.5
0
LINE
8
0
10
-15.405706
20
41.5
11
-15.405706
21
41.5
0
ENDSEC
0
EOF
