0
SECTION
2
ENTITIES
0
LINE
8
0
10
-10.9337293
20
4
11
-11.1226872
21
4
0
LINE
8
0
10
-11.1226872
20
4
11
-11.6957681
21
4
0
LINE
8
0
10
-11.6957681
20
4
11
-13.7444714
21
4
0
LINE
8
0
10
-13.7444714
20
4
11
-14.9999769
21
4
0
LINE
8
0
10
-14.9999769
20
4
11
-15.7727393
21
4
0
LINE
8
0
10
-15.7727393
20
4
11
-16.2531839
21
4
0
LINE
8
0
10
-16.2531839
20
4
11
-16.550371
21
4
0
LINE
8
0
10
-16.550371
20
4
11
-18.5499992
21
4
0
LINE
8
0
10
-18.5499992
20
4
11
-18.5499992
21
3.93817004
0
LINE
8
0
10
-18.5499992
20
3.93817004
11
-18.5499992
21
3.36933444
0
LINE
8
0
10
-18.5499992
20
3.36933444
11
-18.5499992
21
-0.168041495
0
LINE
8
0
10
-18.5499992
20
-0.168041495
11
-18.5499992
21
-0.268935134
0
LINE
8
0
10
-18.5499992
20
-0.268935134
11
-18.5499992
21
-0.34399668
0
LINE
8
0
10
-18.5499992
20
-0.34399668
11
-18.5499992
21
-0.39043363
0
LINE
8
0
10
-18.5499992
20
-0.39043363
11
-18.5499992
21
-0.825498107
0
LINE
8
0
10
-18.5499992
20
-0.825498107
11
-18.5499992
21
-0.852735153
0
LINE
8
0
10
-18.5499992
20
-0.852735153
11
-18.5499992
21
-0.861601546
0
LINE
8
0
10
-18.5499992
20
-0.861601546
11
-18.5499992
21
-1.10000002
0
LINE
8
0
10
-18.5499992
20
-1.10000002
11
-17.4166718
21
-1.10000002
0
LINE
8
0
10
-17.4166718
20
-1.10000002
11
-11.8734168
21
-1.10000002
0
LINE
8
0
10
-11.8734168
20
-1.10000002
11
-11.6116005
21
-1.10000002
0
LINE
8
0
10
-11.6116005
20
-1.10000002
11
-11.2643574
21
-1.10000002
0
LINE
8
0
10
-11.2643574
20
-1.10000002
11
-10.9375176
21
-1.10000002
0
LINE
8
0
10
-10.9375176
20
-1.10000002
11
-10.9450636
21
1.12724895
0
LINE
8
0
10
-10.9450636
20
1.12724895
11
-10.9337293
21
4
0
LINE
8
0
10
-10.9337293
20
4
11
-10.9337293
21
4
0
LINE
8
0
10
-10.9337293
20
41.5
11
-11.1226872
21
41.5
0
LINE
8
0
10
-11.1226872
20
41.5
11
-11.6957681
21
41.5
0
LINE
8
0
10
-11.6957681
20
41.5
11
-13.7444714
21
41.5
0
LINE
8
0
10
-13.7444714
20
41.5
11
-14.9999769
21
41.5
0
LINE
8
0
10
-14.9999769
20
41.5
11
-15.7727393
21
41.5
0
LINE
8
0
10
-15.7727393
20
41.5
11
-16.2531839
21
41.5
0
LINE
8
0
10
-16.2531839
20
41.5
11
-16.550371
21
41.5
0
LINE
8
0
10
-16.550371
20
41.5
11
-18.5499992
21
41.5
0
LINE
8
0
10
-18.5499992
20
41.5
11
-18.5499992
21
41.56183
0
LINE
8
0
10
-18.5499992
20
41.56183
11
-18.5499992
21
42.1182996
0
LINE
8
0
10
-18.5499992
20
42.1182996
11
-18.5499992
21
45.7039911
0
LINE
8
0
10
-18.5499992
20
45.7039911
11
-18.5499992
21
45.8124775
0
LINE
8
0
10
-18.5499992
20
45.8124775
11
-18.5499992
21
45.896841
0
LINE
8
0
10
-18.5499992
20
45.896841
11
-18.5499992
21
45.953373
0
LINE
8
0
10
-18.5499992
20
45.953373
11
-18.5499992
21
45.9807008
0
LINE
8
0
10
-18.5499992
20
45.9807008
11
-18.5499992
21
46.5
0
LINE
8
0
10
-18.5499992
20
46.5
11
-18.2000407
21
46.5
0
LINE
8
0
10
-18.2000407
20
46.5
11
-17.4166718
21
46.5
0
LINE
8
0
10
-17.4166718
20
46.5
11
-11.8734168
21
46.5
0
LINE
8
0
10
-11.8734168
20
46.5
11
-11.6116005
21
46.5
0
LINE
8
0
10
-11.6116005
20
46.5
11
-11.2643574
21
46.5
0
LINE
8
0
10
-11.2643574
20
46.5
11
-10.9375176
21
46.5
0
LINE
8
0
10
-10.9375176
20
46.5
11
-10.9450636
21
44.3164226
0
LINE
8
0
10
-10.9450636
20
44.3164226
11
-10.9337293
21
41.5
0
LINE
8
0
10
-10.9337293
20
41.5
11
-10.9337293
21
41.5
0
LINE
8
0
10
12.1114258
20
4
11
12.5921037
21
4
0
LINE
8
0
10
12.5921037
20
4
11
12.8628467
21
4
0
LINE
8
0
10
12.8628467
20
4
11
13.0111024
21
4
0
LINE
8
0
10
13.0111024
20
4
11
13.75
21
4
0
LINE
8
0
10
13.75
20
4
11
13.75
21
3.36933444
0
LINE
8
0
10
13.75
20
3.36933444
11
13.75
21
-1.10000002
0
LINE
8
0
10
13.75
20
-1.10000002
11
11.6968038
21
-1.10000002
0
LINE
8
0
10
11.6968038
20
-1.10000002
11
11.5024009
21
-1.10000002
0
LINE
8
0
10
11.5024009
20
-1.10000002
11
11.219877
21
-1.10000002
0
LINE
8
0
10
11.219877
20
-1.10000002
11
10.9375176
21
-1.10000002
0
LINE
8
0
10
10.9375176
20
-1.10000002
11
10.9450636
21
1.12724895
0
LINE
8
0
10
10.9450636
20
1.12724895
11
10.9337293
21
4
0
LINE
8
0
10
10.9337293
20
4
11
11.2689606
21
4
0
LINE
8
0
10
11.2689606
20
4
11
12.1114258
21
4
0
LINE
8
0
10
12.1114258
20
4
11
12.1114258
21
4
0
LINE
8
0
10
12.1114258
20
41.5
11
12.5921037
21
41.5
0
LINE
8
0
10
12.5921037
20
41.5
11
12.8628467
21
41.5
0
LINE
8
0
10
12.8628467
20
41.5
11
13.0111024
21
41.5
0
LINE
8
0
10
13.0111024
20
41.5
11
13.75
21
41.5
0
LINE
8
0
10
13.75
20
41.5
11
13.75
21
42.1182996
0
LINE
8
0
10
13.75
20
42.1182996
11
13.75
21
46.5
0
LINE
8
0
10
13.75
20
46.5
11
11.6968038
21
46.5
0
LINE
8
0
10
11.6968038
20
46.5
11
11.5024009
21
46.5
0
LINE
8
0
10
11.5024009
20
46.5
11
11.219877
21
46.5
0
LINE
8
0
10
11.219877
20
46.5
11
10.9375176
21
46.5
0
LINE
8
0
10
10.9375176
20
46.5
11
10.9450636
21
44.3164226
0
LINE
8
0
10
10.9450636
20
44.3164226
11
10.9337293
21
41.5
0
LINE
8
0
10
10.9337293
20
41.5
11
11.2689606
21
41.5
0
LINE
8
0
10
11.2689606
20
41.5
11
12.1114258
21
41.5
0
LINE
8
0
10
12.1114258
20
41.5
11
12.1114258
21
41.5
0
LINE
8
0
10
9.06248236
20
46.5
11
9.05493637
21
44.3164226
0
LINE
8
0
10
9.05493637
20
44.3164226
11
9.06627068
21
41.5
0
LINE
8
0
10
9.06627068
20
41.5
11
8.87731275
21
41.5
0
LINE
8
0
10
8.87731275
20
41.5
11
8.44824335
21
41.5
0
LINE
8
0
10
8.44824335
20
41.5
11
-3.07618152
21
41.5
0
LINE
8
0
10
-3.07618152
20
41.5
11
-8.44824335
21
41.5
0
LINE
8
0
10
-8.44824335
20
41.5
11
-8.87731275
21
41.5
0
LINE
8
0
10
-8.87731275
20
41.5
11
-9.06627068
21
41.5
0
LINE
8
0
10
-9.06627068
20
41.5
11
-9.05493637
21
44.3164226
0
LINE
8
0
10
-9.05493637
20
44.3164226
11
-9.06248236
21
46.5
0
LINE
8
0
10
-9.06248236
20
46.5
11
-8.2858973
21
46.5
0
LINE
8
0
10
-8.2858973
20
46.5
11
8.96545758
21
46.5
0
LINE
8
0
10
8.96545758
20
46.5
11
9.06248236
21
46.5
0
LINE
8
0
10
9.06248236
20
46.5
11
9.06248236
21
46.5
0
LINE
8
0
10
9.06248236
20
-1.10000002
11
9.05493637
21
1.12724895
0
LINE
8
0
10
9.05493637
20
1.12724895
11
9.06627068
21
4
0
LINE
8
0
10
9.06627068
20
4
11
8.87731275
21
4
0
LINE
8
0
10
8.87731275
20
4
11
8.44824335
21
4
0
LINE
8
0
10
8.44824335
20
4
11
-3.07618152
21
4
0
LINE
8
0
10
-3.07618152
20
4
11
-8.44824335
21
4
0
LINE
8
0
10
-8.44824335
20
4
11
-8.87731275
21
4
0
LINE
8
0
10
-8.87731275
20
4
11
-9.06627068
21
4
0
LINE
8
0
10
-9.06627068
20
4
11
-9.05493637
21
1.12724895
0
LINE
8
0
10
-9.05493637
20
1.12724895
11
-9.06248236
21
-1.10000002
0
LINE
8
0
10
-9.06248236
20
-1.10000002
11
-8.2858973
21
-1.10000002
0
LINE
8
0
10
-8.2858973
20
-1.10000002
11
8.96545758
21
-1.10000002
0
LINE
8
0
10
8.96545758
20
-1.10000002
11
9.06248236
21
-1.10000002
0
LINE
8
0
10
9.06248236
20
-1.10000002
11
9.06248236
21
-1.10000002
0
ENDSEC
0
EOF
