0
SECTION
2
ENTITIES
0
LINE
8
0
10
9.49506938
20
46.5
11
9.46624049
21
42.0142952
0
LINE
8
0
10
9.46624049
20
42.0142952
11
9.47113228
21
41.5
0
LINE
8
0
10
9.47113228
20
41.5
11
9.42757696
21
41.5
0
LINE
8
0
10
9.42757696
20
41.5
11
8.76096198
21
41.5
0
LINE
8
0
10
8.76096198
20
41.5
11
8.37434434
21
41.5
0
LINE
8
0
10
8.37434434
20
41.5
11
-0.557727167
21
41.5
0
LINE
8
0
10
-0.557727167
20
41.5
11
-8.37434434
21
41.5
0
LINE
8
0
10
-8.37434434
20
41.5
11
-8.76096198
21
41.5
0
LINE
8
0
10
-8.76096198
20
41.5
11
-9.42757696
21
41.5
0
LINE
8
0
10
-9.42757696
20
41.5
11
-9.47113228
21
41.5
0
LINE
8
0
10
-9.47113228
20
41.5
11
-9.46624049
21
42.0142952
0
LINE
8
0
10
-9.46624049
20
42.0142952
11
-9.49506938
21
46.5
0
LINE
8
0
10
-9.49506938
20
46.5
11
-9.34550072
21
46.5
0
LINE
8
0
10
-9.34550072
20
46.5
11
-9.22088225
21
46.5
0
LINE
8
0
10
-9.22088225
20
46.5
11
-8.11735791
21
46.5
0
LINE
8
0
10
-8.11735791
20
46.5
11
9.15308894
21
46.5
0
LINE
8
0
10
9.15308894
20
46.5
11
9.32594972
21
46.5
0
LINE
8
0
10
9.32594972
20
46.5
11
9.49506938
21
46.5
0
LINE
8
0
10
9.49506938
20
46.5
11
9.49506938
21
46.5
0
LINE
8
0
10
9.49506938
20
-1.10000002
11
9.46624049
21
3.4754189
0
LINE
8
0
10
9.46624049
20
3.4754189
11
9.47113228
21
4
0
LINE
8
0
10
9.47113228
20
4
11
9.42757696
21
4
0
LINE
8
0
10
9.42757696
20
4
11
8.76096198
21
4
0
LINE
8
0
10
8.76096198
20
4
11
8.37434434
21
4
0
LINE
8
0
10
8.37434434
20
4
11
0.557727167
21
4
0
LINE
8
0
10
0.557727167
20
4
11
-8.37434434
21
4
0
LINE
8
0
10
-8.37434434
20
4
11
-8.76096198
21
4
0
LINE
8
0
10
-8.76096198
20
4
11
-9.42757696
21
4
0
LINE
8
0
10
-9.42757696
20
4
11
-9.47113228
21
4
0
LINE
8
0
10
-9.47113228
20
4
11
-9.46624049
21
3.4754189
0
LINE
8
0
10
-9.46624049
20
3.4754189
11
-9.49506938
21
-1.10000002
0
LINE
8
0
10
-9.49506938
20
-1.10000002
11
-9.34550072
21
-1.10000002
0
LINE
8
0
10
-9.34550072
20
-1.10000002
11
-9.22088225
21
-1.10000002
0
LINE
8
0
10
-9.22088225
20
-1.10000002
11
-8.11735791
21
-1.10000002
0
LINE
8
0
10
-8.11735791
20
-1.10000002
11
9.15308894
21
-1.10000002
0
LINE
8
0
10
9.15308894
20
-1.10000002
11
9.32594972
21
-1.10000002
0
LINE
8
0
10
9.32594972
20
-1.10000002
11
9.49506938
21
-1.10000002
0
LINE
8
0
10
9.49506938
20
-1.10000002
11
9.49506938
21
-1.10000002
0
LINE
8
0
10
-12.0753674
20
46.5
11
-17.3613875
21
46.5
0
LINE
8
0
10
-17.3613875
20
46.5
11
-18.5499992
21
46.5
0
LINE
8
0
10
-18.5499992
20
46.5
11
-18.5499992
21
46.2661831
0
LINE
8
0
10
-18.5499992
20
46.2661831
11
-18.5499992
21
45.9553691
0
LINE
8
0
10
-18.5499992
20
45.9553691
11
-18.5499992
21
45.9267082
0
LINE
8
0
10
-18.5499992
20
45.9267082
11
-18.5499992
21
45.8674186
0
LINE
8
0
10
-18.5499992
20
45.8674186
11
-18.5499992
21
45.7789398
0
LINE
8
0
10
-18.5499992
20
45.7789398
11
-18.5499992
21
45.6651614
0
LINE
8
0
10
-18.5499992
20
45.6651614
11
-18.5499992
21
41.9045581
0
LINE
8
0
10
-18.5499992
20
41.9045581
11
-18.5499992
21
41.5404558
0
LINE
8
0
10
-18.5499992
20
41.5404558
11
-18.5499992
21
41.5
0
LINE
8
0
10
-18.5499992
20
41.5
11
-17.1563196
21
41.5
0
LINE
8
0
10
-17.1563196
20
41.5
11
-16.9085139
21
41.5
0
LINE
8
0
10
-16.9085139
20
41.5
11
-16.5101171
21
41.5
0
LINE
8
0
10
-16.5101171
20
41.5
11
-15.8666019
21
41.5
0
LINE
8
0
10
-15.8666019
20
41.5
11
-14.8161646
21
41.5
0
LINE
8
0
10
-14.8161646
20
41.5
11
-13.121827
21
41.5
0
LINE
8
0
10
-13.121827
20
41.5
11
-11.2390379
21
41.5
0
LINE
8
0
10
-11.2390379
20
41.5
11
-10.572423
21
41.5
0
LINE
8
0
10
-10.572423
20
41.5
11
-10.5288677
21
41.5
0
LINE
8
0
10
-10.5288677
20
41.5
11
-10.5337595
21
42.0142952
0
LINE
8
0
10
-10.5337595
20
42.0142952
11
-10.5049306
21
46.5
0
LINE
8
0
10
-10.5049306
20
46.5
11
-10.7750638
21
46.5
0
LINE
8
0
10
-10.7750638
20
46.5
11
-11.1971765
21
46.5
0
LINE
8
0
10
-11.1971765
20
46.5
11
-11.5692152
21
46.5
0
LINE
8
0
10
-11.5692152
20
46.5
11
-11.8663711
21
46.5
0
LINE
8
0
10
-11.8663711
20
46.5
11
-12.0753674
21
46.5
0
LINE
8
0
10
-12.0753674
20
46.5
11
-12.0753674
21
46.5
0
LINE
8
0
10
-12.0753674
20
-1.10000002
11
-17.3613875
21
-1.10000002
0
LINE
8
0
10
-17.3613875
20
-1.10000002
11
-18.1829695
21
-1.10000002
0
LINE
8
0
10
-18.1829695
20
-1.10000002
11
-18.5499992
21
-1.10000002
0
LINE
8
0
10
-18.5499992
20
-1.10000002
11
-18.5499992
21
-0.840673452
0
LINE
8
0
10
-18.5499992
20
-0.840673452
11
-18.5499992
21
-0.812107769
0
LINE
8
0
10
-18.5499992
20
-0.812107769
11
-18.5499992
21
-0.355820635
0
LINE
8
0
10
-18.5499992
20
-0.355820635
11
-18.5499992
21
-0.307118468
0
LINE
8
0
10
-18.5499992
20
-0.307118468
11
-18.5499992
21
-0.228395384
0
LINE
8
0
10
-18.5499992
20
-0.228395384
11
-18.5499992
21
-0.122580104
0
LINE
8
0
10
-18.5499992
20
-0.122580104
11
-18.5499992
21
3.58735076
0
LINE
8
0
10
-18.5499992
20
3.58735076
11
-18.5499992
21
3.95954419
0
LINE
8
0
10
-18.5499992
20
3.95954419
11
-18.5499992
21
4
0
LINE
8
0
10
-18.5499992
20
4
11
-17.1563196
21
4
0
LINE
8
0
10
-17.1563196
20
4
11
-16.9085139
21
4
0
LINE
8
0
10
-16.9085139
20
4
11
-16.5101171
21
4
0
LINE
8
0
10
-16.5101171
20
4
11
-15.8666019
21
4
0
LINE
8
0
10
-15.8666019
20
4
11
-14.8161646
21
4
0
LINE
8
0
10
-14.8161646
20
4
11
-13.121827
21
4
0
LINE
8
0
10
-13.121827
20
4
11
-11.2390379
21
4
0
LINE
8
0
10
-11.2390379
20
4
11
-10.572423
21
4
0
LINE
8
0
10
-10.572423
20
4
11
-10.5288677
21
4
0
LINE
8
0
10
-10.5288677
20
4
11
-10.5337595
21
3.4754189
0
LINE
8
0
10
-10.5337595
20
3.4754189
11
-10.5049306
21
-1.10000002
0
LINE
8
0
10
-10.5049306
20
-1.10000002
11
-10.7750638
21
-1.10000002
0
LINE
8
0
10
-10.7750638
20
-1.10000002
11
-11.1971765
21
-1.10000002
0
LINE
8
0
10
-11.1971765
20
-1.10000002
11
-11.5692152
21
-1.10000002
0
LINE
8
0
10
-11.5692152
20
-1.10000002
11
-11.8663711
21
-1.10000002
0
LINE
8
0
10
-11.8663711
20
-1.10000002
11
-12.0753674
21
-1.10000002
0
LINE
8
0
10
-12.0753674
20
-1.10000002
11
-12.0753674
21
-1.10000002
0
LINE
8
0
10
13.75
20
46.5
11
13.75
21
41.9045581
0
LINE
8
0
10
13.75
20
41.9045581
11
13.75
21
41.5
0
LINE
8
0
10
13.75
20
41.5
11
13.2954292
21
41.5
0
LINE
8
0
10
13.2954292
20
41.5
11
13.2256526
21
41.5
0
LINE
8
0
10
13.2256526
20
41.5
11
13.0937592
21
41.5
0
LINE
8
0
10
13.0937592
20
41.5
11
12.857335
21
41.5
0
LINE
8
0
10
12.857335
20
41.5
11
12.4400021
21
41.5
0
LINE
8
0
10
12.4400021
20
41.5
11
11.7196016
21
41.5
0
LINE
8
0
10
11.7196016
20
41.5
11
10.5938613
21
41.5
0
LINE
8
0
10
10.5938613
20
41.5
11
10.572423
21
41.5
0
LINE
8
0
10
10.572423
20
41.5
11
10.5288677
21
41.5
0
LINE
8
0
10
10.5288677
20
41.5
11
10.5337595
21
42.0142952
0
LINE
8
0
10
10.5337595
20
42.0142952
11
10.5049306
21
46.5
0
LINE
8
0
10
10.5049306
20
46.5
11
10.7555128
21
46.5
0
LINE
8
0
10
10.7555128
20
46.5
11
11.1293832
21
46.5
0
LINE
8
0
10
11.1293832
20
46.5
11
11.4420059
21
46.5
0
LINE
8
0
10
11.4420059
20
46.5
11
11.6743908
21
46.5
0
LINE
8
0
10
11.6743908
20
46.5
11
13.75
21
46.5
0
LINE
8
0
10
13.75
20
46.5
11
13.75
21
46.5
0
LINE
8
0
10
13.75
20
3.58735076
11
13.75
21
-1.10000002
0
LINE
8
0
10
13.75
20
-1.10000002
11
11.6743908
21
-1.10000002
0
LINE
8
0
10
11.6743908
20
-1.10000002
11
11.4420059
21
-1.10000002
0
LINE
8
0
10
11.4420059
20
-1.10000002
11
11.1293832
21
-1.10000002
0
LINE
8
0
10
11.1293832
20
-1.10000002
11
10.7555128
21
-1.10000002
0
LINE
8
0
10
10.7555128
20
-1.10000002
11
10.5049306
21
-1.10000002
0
LINE
8
0
10
10.5049306
20
-1.10000002
11
10.5337595
21
3.4754189
0
LINE
8
0
10
10.5337595
20
3.4754189
11
10.5288677
21
4
0
LINE
8
0
10
10.5288677
20
4
11
10.572423
21
4
0
LINE
8
0
10
10.572423
20
4
11
10.5938613
21
4
0
LINE
8
0
10
10.5938613
20
4
11
11.7196016
21
4
0
LINE
8
0
10
11.7196016
20
4
11
12.4400021
21
4
0
LINE
8
0
10
12.4400021
20
4
11
12.857335
21
4
0
LINE
8
0
10
12.857335
20
4
11
13.0937592
21
4
0
LINE
8
0
10
13.0937592
20
4
11
13.2256526
21
4
0
LINE
8
0
10
13.2256526
20
4
11
13.2954292
21
4
0
LINE
8
0
10
13.2954292
20
4
11
13.75
21
4
0
LINE
8
0
10
13.75
20
4
11
13.75
21
3.58735076
0
LINE
8
0
10
13.75
20
3.58735076
11
13.75
21
3.58735076
0
ENDSEC
0
EOF
