0
SECTION
2
ENTITIES
0
LINE
8
0
10
-17.4719561
20
46.5
11
-11.7645293
21
46.5
0
LINE
8
0
10
-11.7645293
20
46.5
11
-11.4949589
21
46.5
0
LINE
8
0
10
-11.4949589
20
46.5
11
-11.1777365
21
46.5
0
LINE
8
0
10
-11.1777365
20
46.5
11
-11.1809182
21
45.3643614
0
LINE
8
0
10
-11.1809182
20
45.3643614
11
-11.169054
21
41.5
0
LINE
8
0
10
-11.169054
20
41.5
11
-12.0832367
21
41.5
0
LINE
8
0
10
-12.0832367
20
41.5
11
-13.772761
21
41.5
0
LINE
8
0
10
-13.772761
20
41.5
11
-14.8126615
21
41.5
0
LINE
8
0
10
-14.8126615
20
41.5
11
-15.4591922
21
41.5
0
LINE
8
0
10
-15.4591922
20
41.5
11
-15.8591146
21
41.5
0
LINE
8
0
10
-15.8591146
20
41.5
11
-18.5499992
21
41.5
0
LINE
8
0
10
-18.5499992
20
41.5
11
-18.5499992
21
41.5832041
0
LINE
8
0
10
-18.5499992
20
41.5832041
11
-18.5499992
21
42.332041
0
LINE
8
0
10
-18.5499992
20
42.332041
11
-18.5499992
21
45.7428208
0
LINE
8
0
10
-18.5499992
20
45.7428208
11
-18.5499992
21
45.8460152
0
LINE
8
0
10
-18.5499992
20
45.8460152
11
-18.5499992
21
45.9262634
0
LINE
8
0
10
-18.5499992
20
45.9262634
11
-18.5499992
21
45.9800377
0
LINE
8
0
10
-18.5499992
20
45.9800377
11
-18.5499992
21
46.0060324
0
LINE
8
0
10
-18.5499992
20
46.0060324
11
-18.5499992
21
46.5
0
LINE
8
0
10
-18.5499992
20
46.5
11
-18.2171118
21
46.5
0
LINE
8
0
10
-18.2171118
20
46.5
11
-17.4719561
21
46.5
0
LINE
8
0
10
-17.4719561
20
46.5
11
-17.4719561
21
46.5
0
LINE
8
0
10
-17.4719561
20
-1.10000002
11
-11.7645293
21
-1.10000002
0
LINE
8
0
10
-11.7645293
20
-1.10000002
11
-11.4949589
21
-1.10000002
0
LINE
8
0
10
-11.4949589
20
-1.10000002
11
-11.1777365
21
-1.10000002
0
LINE
8
0
10
-11.1777365
20
-1.10000002
11
-11.1809182
21
0.0583513894
0
LINE
8
0
10
-11.1809182
20
0.0583513894
11
-11.169054
21
4
0
LINE
8
0
10
-11.169054
20
4
11
-12.0832367
21
4
0
LINE
8
0
10
-12.0832367
20
4
11
-13.772761
21
4
0
LINE
8
0
10
-13.772761
20
4
11
-14.8126615
21
4
0
LINE
8
0
10
-14.8126615
20
4
11
-15.4591922
21
4
0
LINE
8
0
10
-15.4591922
20
4
11
-15.8591146
21
4
0
LINE
8
0
10
-15.8591146
20
4
11
-18.5499992
21
4
0
LINE
8
0
10
-18.5499992
20
4
11
-18.5499992
21
3.9167959
0
LINE
8
0
10
-18.5499992
20
3.9167959
11
-18.5499992
21
3.15131813
0
LINE
8
0
10
-18.5499992
20
3.15131813
11
-18.5499992
21
-0.213502887
0
LINE
8
0
10
-18.5499992
20
-0.213502887
11
-18.5499992
21
-0.309474885
0
LINE
8
0
10
-18.5499992
20
-0.309474885
11
-18.5499992
21
-0.380874892
0
LINE
8
0
10
-18.5499992
20
-0.380874892
11
-18.5499992
21
-0.425046625
0
LINE
8
0
10
-18.5499992
20
-0.425046625
11
-18.5499992
21
-0.838888444
0
LINE
8
0
10
-18.5499992
20
-0.838888444
11
-18.5499992
21
-0.864796854
0
LINE
8
0
10
-18.5499992
20
-0.864796854
11
-18.5499992
21
-0.87323074
0
LINE
8
0
10
-18.5499992
20
-0.87323074
11
-18.5499992
21
-1.10000002
0
LINE
8
0
10
-18.5499992
20
-1.10000002
11
-17.4719561
21
-1.10000002
0
LINE
8
0
10
-17.4719561
20
-1.10000002
11
-17.4719561
21
-1.10000002
0
LINE
8
0
10
-8.81908176
20
45.3643614
11
-8.83094605
21
41.5
0
LINE
8
0
10
-8.83094605
20
41.5
11
-8.63948453
21
41.5
0
LINE
8
0
10
-8.63948453
20
41.5
11
-6.86884692
21
41.5
0
LINE
8
0
10
-6.86884692
20
41.5
11
8.63948453
21
41.5
0
LINE
8
0
10
8.63948453
20
41.5
11
8.83094605
21
41.5
0
LINE
8
0
10
8.83094605
20
41.5
11
8.81908176
21
45.3643614
0
LINE
8
0
10
8.81908176
20
45.3643614
11
8.82226352
21
46.5
0
LINE
8
0
10
8.82226352
20
46.5
11
-6.93763495
21
46.5
0
LINE
8
0
10
-6.93763495
20
46.5
11
-8.82226352
21
46.5
0
LINE
8
0
10
-8.82226352
20
46.5
11
-8.81908176
21
45.3643614
0
LINE
8
0
10
-8.81908176
20
45.3643614
11
-8.81908176
21
45.3643614
0
LINE
8
0
10
-8.81908176
20
0.0583513894
11
-8.83094605
21
4
0
LINE
8
0
10
-8.83094605
20
4
11
-8.63948453
21
4
0
LINE
8
0
10
-8.63948453
20
4
11
-6.86884692
21
4
0
LINE
8
0
10
-6.86884692
20
4
11
8.63948453
21
4
0
LINE
8
0
10
8.63948453
20
4
11
8.83094605
21
4
0
LINE
8
0
10
8.83094605
20
4
11
8.81908176
21
0.0583513894
0
LINE
8
0
10
8.81908176
20
0.0583513894
11
8.82226352
21
-1.10000002
0
LINE
8
0
10
8.82226352
20
-1.10000002
11
-6.93763495
21
-1.10000002
0
LINE
8
0
10
-6.93763495
20
-1.10000002
11
-8.82226352
21
-1.10000002
0
LINE
8
0
10
-8.82226352
20
-1.10000002
11
-8.81908176
21
0.0583513894
0
LINE
8
0
10
-8.81908176
20
0.0583513894
11
-8.81908176
21
0.0583513894
0
LINE
8
0
10
13.75
20
46.5
11
13.75
21
42.332041
0
LINE
8
0
10
13.75
20
42.332041
11
13.75
21
41.5
0
LINE
8
0
10
13.75
20
41.5
11
12.7556711
21
41.5
0
LINE
8
0
10
12.7556711
20
41.5
11
12.5561645
21
41.5
0
LINE
8
0
10
12.5561645
20
41.5
11
12.1918278
21
41.5
0
LINE
8
0
10
12.1918278
20
41.5
11
11.544983
21
41.5
0
LINE
8
0
10
11.544983
20
41.5
11
11.169054
21
41.5
0
LINE
8
0
10
11.169054
20
41.5
11
11.1809182
21
45.3643614
0
LINE
8
0
10
11.1809182
20
45.3643614
11
11.1777365
21
46.5
0
LINE
8
0
10
11.1777365
20
46.5
11
11.4358349
21
46.5
0
LINE
8
0
10
11.4358349
20
46.5
11
11.6359953
21
46.5
0
LINE
8
0
10
11.6359953
20
46.5
11
13.75
21
46.5
0
LINE
8
0
10
13.75
20
46.5
11
13.75
21
46.5
0
LINE
8
0
10
13.75
20
-1.10000002
11
13.75
21
3.15131813
0
LINE
8
0
10
13.75
20
3.15131813
11
13.75
21
4
0
LINE
8
0
10
13.75
20
4
11
12.7556711
21
4
0
LINE
8
0
10
12.7556711
20
4
11
12.5561645
21
4
0
LINE
8
0
10
12.5561645
20
4
11
12.1918278
21
4
0
LINE
8
0
10
12.1918278
20
4
11
11.544983
21
4
0
LINE
8
0
10
11.544983
20
4
11
11.169054
21
4
0
LINE
8
0
10
11.169054
20
4
11
11.1809182
21
0.0583513894
0
LINE
8
0
10
11.1809182
20
0.0583513894
11
11.1777365
21
-1.10000002
0
LINE
8
0
10
11.1777365
20
-1.10000002
11
11.4358349
21
-1.10000002
0
LINE
8
0
10
11.4358349
20
-1.10000002
11
11.6359953
21
-1.10000002
0
LINE
8
0
10
11.6359953
20
-1.10000002
11
13.75
21
-1.10000002
0
LINE
8
0
10
13.75
20
-1.10000002
11
13.75
21
-1.10000002
0
ENDSEC
0
EOF
