0
SECTION
2
ENTITIES
0
LINE
8
0
10
-11.6556417
20
46.5
11
-11.3783173
21
46.5
0
LINE
8
0
10
-11.3783173
20
46.5
11
-11.3297691
21
46.5
0
LINE
8
0
10
-11.3297691
20
46.5
11
-11.3334427
21
45.1888002
0
LINE
8
0
10
-11.3334427
20
45.1888002
11
-11.3237987
21
41.5
0
LINE
8
0
10
-11.3237987
20
41.5
11
-12.5455451
21
41.5
0
LINE
8
0
10
-12.5455451
20
41.5
11
-13.8525837
21
41.5
0
LINE
8
0
10
-13.8525837
20
41.5
11
-14.6652006
21
41.5
0
LINE
8
0
10
-14.6652006
20
41.5
11
-15.1678582
21
41.5
0
LINE
8
0
10
-15.1678582
20
41.5
11
-18.5499992
21
41.5
0
LINE
8
0
10
-18.5499992
20
41.5
11
-18.5499992
21
41.6045783
0
LINE
8
0
10
-18.5499992
20
41.6045783
11
-18.5499992
21
42.5457825
0
LINE
8
0
10
-18.5499992
20
42.5457825
11
-18.5499992
21
45.7816505
0
LINE
8
0
10
-18.5499992
20
45.7816505
11
-18.5499992
21
45.8795529
0
LINE
8
0
10
-18.5499992
20
45.8795529
11
-18.5499992
21
45.9556858
0
LINE
8
0
10
-18.5499992
20
45.9556858
11
-18.5499992
21
46.0067024
0
LINE
8
0
10
-18.5499992
20
46.0067024
11
-18.5499992
21
46.0313641
0
LINE
8
0
10
-18.5499992
20
46.0313641
11
-18.5499992
21
46.5
0
LINE
8
0
10
-18.5499992
20
46.5
11
-18.234183
21
46.5
0
LINE
8
0
10
-18.234183
20
46.5
11
-17.5272403
21
46.5
0
LINE
8
0
10
-17.5272403
20
46.5
11
-11.6556417
21
46.5
0
LINE
8
0
10
-11.6556417
20
46.5
11
-11.6556417
21
46.5
0
LINE
8
0
10
-11.6556417
20
-1.10000002
11
-11.3783173
21
-1.10000002
0
LINE
8
0
10
-11.3783173
20
-1.10000002
11
-11.3297691
21
-1.10000002
0
LINE
8
0
10
-11.3297691
20
-1.10000002
11
-11.3334427
21
0.23742373
0
LINE
8
0
10
-11.3334427
20
0.23742373
11
-11.3237987
21
4
0
LINE
8
0
10
-11.3237987
20
4
11
-12.5455451
21
4
0
LINE
8
0
10
-12.5455451
20
4
11
-13.8525837
21
4
0
LINE
8
0
10
-13.8525837
20
4
11
-14.6652006
21
4
0
LINE
8
0
10
-14.6652006
20
4
11
-15.1678582
21
4
0
LINE
8
0
10
-15.1678582
20
4
11
-18.5499992
21
4
0
LINE
8
0
10
-18.5499992
20
4
11
-18.5499992
21
3.89542175
0
LINE
8
0
10
-18.5499992
20
3.89542175
11
-18.5499992
21
2.93330181
0
LINE
8
0
10
-18.5499992
20
2.93330181
11
-18.5499992
21
-0.258964279
0
LINE
8
0
10
-18.5499992
20
-0.258964279
11
-18.5499992
21
-0.350014636
0
LINE
8
0
10
-18.5499992
20
-0.350014636
11
-18.5499992
21
-0.417753104
0
LINE
8
0
10
-18.5499992
20
-0.417753104
11
-18.5499992
21
-0.459659619
0
LINE
8
0
10
-18.5499992
20
-0.459659619
11
-18.5499992
21
-0.852278781
0
LINE
8
0
10
-18.5499992
20
-0.852278781
11
-18.5499992
21
-0.876858555
0
LINE
8
0
10
-18.5499992
20
-0.876858555
11
-18.5499992
21
-0.884859934
0
LINE
8
0
10
-18.5499992
20
-0.884859934
11
-18.5499992
21
-1.10000002
0
LINE
8
0
10
-18.5499992
20
-1.10000002
11
-17.5272403
21
-1.10000002
0
LINE
8
0
10
-17.5272403
20
-1.10000002
11
-11.6556417
21
-1.10000002
0
LINE
8
0
10
-11.6556417
20
-1.10000002
11
-11.6556417
21
-1.10000002
0
LINE
8
0
10
11.7915518
20
4
11
11.3237987
21
4
0
LINE
8
0
10
11.3237987
20
4
11
11.3334427
21
0.23742373
0
LINE
8
0
10
11.3334427
20
0.23742373
11
11.3297691
21
-1.10000002
0
LINE
8
0
10
11.3297691
20
-1.10000002
11
11.3692688
21
-1.10000002
0
LINE
8
0
10
11.3692688
20
-1.10000002
11
11.5751868
21
-1.10000002
0
LINE
8
0
10
11.5751868
20
-1.10000002
11
13.75
21
-1.10000002
0
LINE
8
0
10
13.75
20
-1.10000002
11
13.75
21
2.93330181
0
LINE
8
0
10
13.75
20
2.93330181
11
13.75
21
4
0
LINE
8
0
10
13.75
20
4
11
12.5002398
21
4
0
LINE
8
0
10
12.5002398
20
4
11
12.2494823
21
4
0
LINE
8
0
10
12.2494823
20
4
11
11.7915518
21
4
0
LINE
8
0
10
11.7915518
20
4
11
11.7915518
21
4
0
LINE
8
0
10
11.7915518
20
41.5
11
11.3237987
21
41.5
0
LINE
8
0
10
11.3237987
20
41.5
11
11.3334427
21
45.1888002
0
LINE
8
0
10
11.3334427
20
45.1888002
11
11.3297691
21
46.5
0
LINE
8
0
10
11.3297691
20
46.5
11
11.3692688
21
46.5
0
LINE
8
0
10
11.3692688
20
46.5
11
11.5751868
21
46.5
0
LINE
8
0
10
11.5751868
20
46.5
11
13.75
21
46.5
0
LINE
8
0
10
13.75
20
46.5
11
13.75
21
42.5457825
0
LINE
8
0
10
13.75
20
42.5457825
11
13.75
21
41.5
0
LINE
8
0
10
13.75
20
41.5
11
12.5002398
21
41.5
0
LINE
8
0
10
12.5002398
20
41.5
11
12.2494823
21
41.5
0
LINE
8
0
10
12.2494823
20
41.5
11
11.7915518
21
41.5
0
LINE
8
0
10
11.7915518
20
41.5
11
11.7915518
21
41.5
0
LINE
8
0
10
8.67620132
20
4
11
8.66655728
21
0.23742373
0
LINE
8
0
10
8.66655728
20
0.23742373
11
8.67023092
21
-1.10000002
0
LINE
8
0
10
8.67023092
20
-1.10000002
11
6.25831202
21
-1.10000002
0
LINE
8
0
10
6.25831202
20
-1.10000002
11
-8.67023092
21
-1.10000002
0
LINE
8
0
10
-8.67023092
20
-1.10000002
11
-8.66655728
21
0.23742373
0
LINE
8
0
10
-8.66655728
20
0.23742373
11
-8.67620132
21
4
0
LINE
8
0
10
-8.67620132
20
4
11
-2.53834524
21
4
0
LINE
8
0
10
-2.53834524
20
4
11
8.67620132
21
4
0
LINE
8
0
10
8.67620132
20
4
11
8.67620132
21
4
0
LINE
8
0
10
8.67620132
20
41.5
11
8.66655728
21
45.1888002
0
LINE
8
0
10
8.66655728
20
45.1888002
11
8.67023092
21
46.5
0
LINE
8
0
10
8.67023092
20
46.5
11
6.25831202
21
46.5
0
LINE
8
0
10
6.25831202
20
46.5
11
-8.67023092
21
46.5
0
LINE
8
0
10
-8.67023092
20
46.5
11
-8.66655728
21
45.1888002
0
LINE
8
0
10
-8.66655728
20
45.1888002
11
-8.67620132
21
41.5
0
LINE
8
0
10
-8.67620132
20
41.5
11
-2.53834524
21
41.5
0
LINE
8
0
10
-2.53834524
20
41.5
11
8.67620132
21
41.5
0
LINE
8
0
10
8.67620132
20
41.5
11
8.67620132
21
41.5
0
ENDSEC
0
EOF
