0
SECTION
2
ENTITIES
0
LINE
8
0
10
-14.4766018
20
4
11
-13.8712089
21
4
0
LINE
8
0
10
-13.8712089
20
4
11
-12.8925059
21
4
0
LINE
8
0
10
-12.8925059
20
4
11
-11.4306164
21
4
0
LINE
8
0
10
-11.4306164
20
4
11
-11.4320111
21
3.40929139
0
LINE
8
0
10
-11.4320111
20
3.40929139
11
-11.4210146
21
-1.10000002
0
LINE
8
0
10
-11.4210146
20
-1.10000002
11
-11.5467542
21
-1.10000002
0
LINE
8
0
10
-11.5467542
20
-1.10000002
11
-17.5825246
21
-1.10000002
0
LINE
8
0
10
-17.5825246
20
-1.10000002
11
-18.5499992
21
-1.10000002
0
LINE
8
0
10
-18.5499992
20
-1.10000002
11
-18.5499992
21
-0.896489128
0
LINE
8
0
10
-18.5499992
20
-0.896489128
11
-18.5499992
21
-0.888920256
0
LINE
8
0
10
-18.5499992
20
-0.888920256
11
-18.5499992
21
-0.865669119
0
LINE
8
0
10
-18.5499992
20
-0.865669119
11
-18.5499992
21
-0.494272614
0
LINE
8
0
10
-18.5499992
20
-0.494272614
11
-18.5499992
21
-0.454631316
0
LINE
8
0
10
-18.5499992
20
-0.454631316
11
-18.5499992
21
-0.390554386
0
LINE
8
0
10
-18.5499992
20
-0.390554386
11
-18.5499992
21
-0.30442567
0
LINE
8
0
10
-18.5499992
20
-0.30442567
11
-18.5499992
21
2.7152855
0
LINE
8
0
10
-18.5499992
20
2.7152855
11
-18.5499992
21
3.8740476
0
LINE
8
0
10
-18.5499992
20
3.8740476
11
-18.5499992
21
4
0
LINE
8
0
10
-18.5499992
20
4
11
-14.4766018
21
4
0
LINE
8
0
10
-14.4766018
20
4
11
-14.4766018
21
4
0
LINE
8
0
10
-14.4766018
20
41.5
11
-13.8712089
21
41.5
0
LINE
8
0
10
-13.8712089
20
41.5
11
-12.8925059
21
41.5
0
LINE
8
0
10
-12.8925059
20
41.5
11
-11.4306164
21
41.5
0
LINE
8
0
10
-11.4306164
20
41.5
11
-11.4320111
21
42.0791261
0
LINE
8
0
10
-11.4320111
20
42.0791261
11
-11.4210146
21
46.5
0
LINE
8
0
10
-11.4210146
20
46.5
11
-11.5467542
21
46.5
0
LINE
8
0
10
-11.5467542
20
46.5
11
-17.5825246
21
46.5
0
LINE
8
0
10
-17.5825246
20
46.5
11
-18.2512541
21
46.5
0
LINE
8
0
10
-18.2512541
20
46.5
11
-18.5499992
21
46.5
0
LINE
8
0
10
-18.5499992
20
46.5
11
-18.5499992
21
46.0566958
0
LINE
8
0
10
-18.5499992
20
46.0566958
11
-18.5499992
21
46.0333672
0
LINE
8
0
10
-18.5499992
20
46.0333672
11
-18.5499992
21
45.9851081
0
LINE
8
0
10
-18.5499992
20
45.9851081
11
-18.5499992
21
45.9130906
0
LINE
8
0
10
-18.5499992
20
45.9130906
11
-18.5499992
21
45.8204802
0
LINE
8
0
10
-18.5499992
20
45.8204802
11
-18.5499992
21
42.759524
0
LINE
8
0
10
-18.5499992
20
42.759524
11
-18.5499992
21
41.6259524
0
LINE
8
0
10
-18.5499992
20
41.6259524
11
-18.5499992
21
41.5
0
LINE
8
0
10
-18.5499992
20
41.5
11
-14.4766018
21
41.5
0
LINE
8
0
10
-14.4766018
20
41.5
11
-14.4766018
21
41.5
0
LINE
8
0
10
11.4306164
20
4
11
11.9428002
21
4
0
LINE
8
0
10
11.9428002
20
4
11
12.2448085
21
4
0
LINE
8
0
10
12.2448085
20
4
11
13.75
21
4
0
LINE
8
0
10
13.75
20
4
11
13.75
21
2.7152855
0
LINE
8
0
10
13.75
20
2.7152855
11
13.75
21
-1.10000002
0
LINE
8
0
10
13.75
20
-1.10000002
11
11.5143784
21
-1.10000002
0
LINE
8
0
10
11.5143784
20
-1.10000002
11
11.4210146
21
-1.10000002
0
LINE
8
0
10
11.4210146
20
-1.10000002
11
11.4320111
21
3.40929139
0
LINE
8
0
10
11.4320111
20
3.40929139
11
11.4306164
21
4
0
LINE
8
0
10
11.4306164
20
4
11
11.4306164
21
4
0
LINE
8
0
10
11.4306164
20
41.5
11
11.9428002
21
41.5
0
LINE
8
0
10
11.9428002
20
41.5
11
12.2448085
21
41.5
0
LINE
8
0
10
12.2448085
20
41.5
11
13.75
21
41.5
0
LINE
8
0
10
13.75
20
41.5
11
13.75
21
42.759524
0
LINE
8
0
10
13.75
20
42.759524
11
13.75
21
46.5
0
LINE
8
0
10
13.75
20
46.5
11
11.5143784
21
46.5
0
LINE
8
0
10
11.5143784
20
46.5
11
11.4210146
21
46.5
0
LINE
8
0
10
11.4210146
20
46.5
11
11.4320111
21
42.0791261
0
LINE
8
0
10
11.4320111
20
42.0791261
11
11.4306164
21
41.5
0
LINE
8
0
10
11.4306164
20
41.5
11
11.4306164
21
41.5
0
LINE
8
0
10
0.781086017
20
46.5
11
8.57898536
21
46.5
0
LINE
8
0
10
8.57898536
20
46.5
11
8.56798892
21
42.0791261
0
LINE
8
0
10
8.56798892
20
42.0791261
11
8.56938356
21
41.5
0
LINE
8
0
10
8.56938356
20
41.5
11
-7.59634626
21
41.5
0
LINE
8
0
10
-7.59634626
20
41.5
11
-8.56938356
21
41.5
0
LINE
8
0
10
-8.56938356
20
41.5
11
-8.56798892
21
42.0791261
0
LINE
8
0
10
-8.56798892
20
42.0791261
11
-8.57898536
21
46.5
0
LINE
8
0
10
-8.57898536
20
46.5
11
0.781086017
21
46.5
0
LINE
8
0
10
0.781086017
20
46.5
11
0.781086017
21
46.5
0
LINE
8
0
10
0.781086017
20
-1.10000002
11
8.57898536
21
-1.10000002
0
LINE
8
0
10
8.57898536
20
-1.10000002
11
8.56798892
21
3.40929139
0
LINE
8
0
10
8.56798892
20
3.40929139
11
8.56938356
21
4
0
LINE
8
0
10
8.56938356
20
4
11
-7.59634626
21
4
0
LINE
8
0
10
-7.59634626
20
4
11
-8.56938356
21
4
0
LINE
8
0
10
-8.56938356
20
4
11
-8.56798892
21
3.40929139
0
LINE
8
0
10
-8.56798892
20
3.40929139
11
-8.57898536
21
-1.10000002
0
LINE
8
0
10
-8.57898536
20
-1.10000002
11
0.781086017
21
-1.10000002
0
LINE
8
0
10
0.781086017
20
-1.10000002
11
0.781086017
21
-1.10000002
0
ENDSEC
0
EOF
