0
SECTION
2
ENTITIES
0
LINE
8
0
10
-11.4763156
20
4
11
-11.4833152
21
1.03525082
0
LINE
8
0
10
-11.4833152
20
1.03525082
11
-11.4783534
21
-1.10000002
0
LINE
8
0
10
-11.4783534
20
-1.10000002
11
-11.6107897
21
-1.10000002
0
LINE
8
0
10
-11.6107897
20
-1.10000002
11
-17.6378088
21
-1.10000002
0
LINE
8
0
10
-17.6378088
20
-1.10000002
11
-18.5499992
21
-1.10000002
0
LINE
8
0
10
-18.5499992
20
-1.10000002
11
-18.5499992
21
-0.908118322
0
LINE
8
0
10
-18.5499992
20
-0.908118322
11
-18.5499992
21
-0.900981957
0
LINE
8
0
10
-18.5499992
20
-0.900981957
11
-18.5499992
21
-0.879059456
0
LINE
8
0
10
-18.5499992
20
-0.879059456
11
-18.5499992
21
-0.528885609
0
LINE
8
0
10
-18.5499992
20
-0.528885609
11
-18.5499992
21
-0.491509528
0
LINE
8
0
10
-18.5499992
20
-0.491509528
11
-18.5499992
21
-0.431094137
0
LINE
8
0
10
-18.5499992
20
-0.431094137
11
-18.5499992
21
-0.349887062
0
LINE
8
0
10
-18.5499992
20
-0.349887062
11
-18.5499992
21
2.49726918
0
LINE
8
0
10
-18.5499992
20
2.49726918
11
-18.5499992
21
3.85267345
0
LINE
8
0
10
-18.5499992
20
3.85267345
11
-18.5499992
21
4
0
LINE
8
0
10
-18.5499992
20
4
11
-13.7853455
21
4
0
LINE
8
0
10
-13.7853455
20
4
11
-13.0772172
21
4
0
LINE
8
0
10
-13.0772172
20
4
11
-11.9324282
21
4
0
LINE
8
0
10
-11.9324282
20
4
11
-11.4763156
21
4
0
LINE
8
0
10
-11.4763156
20
4
11
-11.4763156
21
4
0
LINE
8
0
10
-11.4763156
20
41.5
11
-11.4833152
21
44.4066168
0
LINE
8
0
10
-11.4833152
20
44.4066168
11
-11.4783534
21
46.5
0
LINE
8
0
10
-11.4783534
20
46.5
11
-11.6107897
21
46.5
0
LINE
8
0
10
-11.6107897
20
46.5
11
-17.6378088
21
46.5
0
LINE
8
0
10
-17.6378088
20
46.5
11
-18.2683253
21
46.5
0
LINE
8
0
10
-18.2683253
20
46.5
11
-18.5499992
21
46.5
0
LINE
8
0
10
-18.5499992
20
46.5
11
-18.5499992
21
46.0820274
0
LINE
8
0
10
-18.5499992
20
46.0820274
11
-18.5499992
21
46.0600319
0
LINE
8
0
10
-18.5499992
20
46.0600319
11
-18.5499992
21
46.0145305
0
LINE
8
0
10
-18.5499992
20
46.0145305
11
-18.5499992
21
45.9466282
0
LINE
8
0
10
-18.5499992
20
45.9466282
11
-18.5499992
21
45.8593099
0
LINE
8
0
10
-18.5499992
20
45.8593099
11
-18.5499992
21
42.9732655
0
LINE
8
0
10
-18.5499992
20
42.9732655
11
-18.5499992
21
41.6473266
0
LINE
8
0
10
-18.5499992
20
41.6473266
11
-18.5499992
21
41.5
0
LINE
8
0
10
-18.5499992
20
41.5
11
-13.7853455
21
41.5
0
LINE
8
0
10
-13.7853455
20
41.5
11
-13.0772172
21
41.5
0
LINE
8
0
10
-13.0772172
20
41.5
11
-11.9324282
21
41.5
0
LINE
8
0
10
-11.9324282
20
41.5
11
-11.4763156
21
41.5
0
LINE
8
0
10
-11.4763156
20
41.5
11
-11.4763156
21
41.5
0
LINE
8
0
10
11.5176198
20
46.5
11
13.75
21
46.5
0
LINE
8
0
10
13.75
20
46.5
11
13.75
21
42.9732655
0
LINE
8
0
10
13.75
20
42.9732655
11
13.75
21
41.5
0
LINE
8
0
10
13.75
20
41.5
11
11.9893772
21
41.5
0
LINE
8
0
10
11.9893772
20
41.5
11
11.636118
21
41.5
0
LINE
8
0
10
11.636118
20
41.5
11
11.4763156
21
41.5
0
LINE
8
0
10
11.4763156
20
41.5
11
11.4833152
21
44.4066168
0
LINE
8
0
10
11.4833152
20
44.4066168
11
11.4783534
21
46.5
0
LINE
8
0
10
11.4783534
20
46.5
11
11.5176198
21
46.5
0
LINE
8
0
10
11.5176198
20
46.5
11
11.5176198
21
46.5
0
LINE
8
0
10
11.5176198
20
-1.10000002
11
13.75
21
-1.10000002
0
LINE
8
0
10
13.75
20
-1.10000002
11
13.75
21
2.49726918
0
LINE
8
0
10
13.75
20
2.49726918
11
13.75
21
4
0
LINE
8
0
10
13.75
20
4
11
11.9893772
21
4
0
LINE
8
0
10
11.9893772
20
4
11
11.636118
21
4
0
LINE
8
0
10
11.636118
20
4
11
11.4763156
21
4
0
LINE
8
0
10
11.4763156
20
4
11
11.4833152
21
1.03525082
0
LINE
8
0
10
11.4833152
20
1.03525082
11
11.4783534
21
-1.10000002
0
LINE
8
0
10
11.4783534
20
-1.10000002
11
11.5176198
21
-1.10000002
0
LINE
8
0
10
11.5176198
20
-1.10000002
11
11.5176198
21
-1.10000002
0
LINE
8
0
10
-8.51668476
20
44.4066168
11
-8.52164663
21
46.5
0
LINE
8
0
10
-8.52164663
20
46.5
11
-4.97575159
21
46.5
0
LINE
8
0
10
-4.97575159
20
46.5
11
8.52164663
21
46.5
0
LINE
8
0
10
8.52164663
20
46.5
11
8.51668476
21
44.4066168
0
LINE
8
0
10
8.51668476
20
44.4066168
11
8.52368443
21
41.5
0
LINE
8
0
10
8.52368443
20
41.5
11
3.47994273
21
41.5
0
LINE
8
0
10
3.47994273
20
41.5
11
-8.52368443
21
41.5
0
LINE
8
0
10
-8.52368443
20
41.5
11
-8.51668476
21
44.4066168
0
LINE
8
0
10
-8.51668476
20
44.4066168
11
-8.51668476
21
44.4066168
0
LINE
8
0
10
-8.51668476
20
1.03525082
11
-8.52164663
21
-1.10000002
0
LINE
8
0
10
-8.52164663
20
-1.10000002
11
-4.97575159
21
-1.10000002
0
LINE
8
0
10
-4.97575159
20
-1.10000002
11
8.52164663
21
-1.10000002
0
LINE
8
0
10
8.52164663
20
-1.10000002
11
8.51668476
21
1.03525082
0
LINE
8
0
10
8.51668476
20
1.03525082
11
8.52368443
21
4
0
LINE
8
0
10
8.52368443
20
4
11
3.47994273
21
4
0
LINE
8
0
10
3.47994273
20
4
11
-8.52368443
21
4
0
LINE
8
0
10
-8.52368443
20
4
11
-8.51668476
21
1.03525082
0
LINE
8
0
10
-8.51668476
20
1.03525082
11
-8.51668476
21
1.03525082
0
ENDSEC
0
EOF
