0
SECTION
2
ENTITIES
0
LINE
8
0
10
-11.4892338
20
4
11
-11.4737306
21
4
0
LINE
8
0
10
-11.4737306
20
4
11
-11.474033
21
3.86987949
0
LINE
8
0
10
-11.474033
20
3.86987949
11
-11.4622993
21
-1.10000002
0
LINE
8
0
10
-11.4622993
20
-1.10000002
11
-11.8483894
21
-1.10000002
0
LINE
8
0
10
-11.8483894
20
-1.10000002
11
-12.451906
21
-1.10000002
0
LINE
8
0
10
-12.451906
20
-1.10000002
11
-17.7483774
21
-1.10000002
0
LINE
8
0
10
-17.7483774
20
-1.10000002
11
-18.5499992
21
-1.10000002
0
LINE
8
0
10
-18.5499992
20
-1.10000002
11
-18.5499992
21
-0.93137671
0
LINE
8
0
10
-18.5499992
20
-0.93137671
11
-18.5499992
21
-0.925105359
0
LINE
8
0
10
-18.5499992
20
-0.925105359
11
-18.5499992
21
-0.905840131
0
LINE
8
0
10
-18.5499992
20
-0.905840131
11
-18.5499992
21
-0.598111599
0
LINE
8
0
10
-18.5499992
20
-0.598111599
11
-18.5499992
21
-0.565265952
0
LINE
8
0
10
-18.5499992
20
-0.565265952
11
-18.5499992
21
-0.512173639
0
LINE
8
0
10
-18.5499992
20
-0.512173639
11
-18.5499992
21
-0.440809845
0
LINE
8
0
10
-18.5499992
20
-0.440809845
11
-18.5499992
21
2.06123655
0
LINE
8
0
10
-18.5499992
20
2.06123655
11
-18.5499992
21
3.80992515
0
LINE
8
0
10
-18.5499992
20
3.80992515
11
-18.5499992
21
4
0
LINE
8
0
10
-18.5499992
20
4
11
-12.4028327
21
4
0
LINE
8
0
10
-12.4028327
20
4
11
-11.4892338
21
4
0
LINE
8
0
10
-11.4892338
20
4
11
-11.4892338
21
4
0
LINE
8
0
10
-11.4892338
20
41.5
11
-11.4737306
21
41.5
0
LINE
8
0
10
-11.4737306
20
41.5
11
-11.474033
21
41.6275691
0
LINE
8
0
10
-11.474033
20
41.6275691
11
-11.4622993
21
46.5
0
LINE
8
0
10
-11.4622993
20
46.5
11
-11.8483894
21
46.5
0
LINE
8
0
10
-11.8483894
20
46.5
11
-12.451906
21
46.5
0
LINE
8
0
10
-12.451906
20
46.5
11
-17.7483774
21
46.5
0
LINE
8
0
10
-17.7483774
20
46.5
11
-18.3024676
21
46.5
0
LINE
8
0
10
-18.3024676
20
46.5
11
-18.5499992
21
46.5
0
LINE
8
0
10
-18.5499992
20
46.5
11
-18.5499992
21
46.1326908
0
LINE
8
0
10
-18.5499992
20
46.1326908
11
-18.5499992
21
46.1133614
0
LINE
8
0
10
-18.5499992
20
46.1133614
11
-18.5499992
21
46.0733753
0
LINE
8
0
10
-18.5499992
20
46.0733753
11
-18.5499992
21
46.0137036
0
LINE
8
0
10
-18.5499992
20
46.0137036
11
-18.5499992
21
45.9369693
0
LINE
8
0
10
-18.5499992
20
45.9369693
11
-18.5499992
21
43.4007485
0
LINE
8
0
10
-18.5499992
20
43.4007485
11
-18.5499992
21
41.6900748
0
LINE
8
0
10
-18.5499992
20
41.6900748
11
-18.5499992
21
41.5
0
LINE
8
0
10
-18.5499992
20
41.5
11
-12.4028327
21
41.5
0
LINE
8
0
10
-12.4028327
20
41.5
11
-11.4892338
21
41.5
0
LINE
8
0
10
-11.4892338
20
41.5
11
-11.4892338
21
41.5
0
LINE
8
0
10
8.53770072
20
46.5
11
0.0827566296
21
46.5
0
LINE
8
0
10
0.0827566296
20
46.5
11
-8.53770072
21
46.5
0
LINE
8
0
10
-8.53770072
20
46.5
11
-8.52596701
21
41.6275691
0
LINE
8
0
10
-8.52596701
20
41.6275691
11
-8.52626938
21
41.5
0
LINE
8
0
10
-8.52626938
20
41.5
11
-8.31018532
21
41.5
0
LINE
8
0
10
-8.31018532
20
41.5
11
8.52626938
21
41.5
0
LINE
8
0
10
8.52626938
20
41.5
11
8.52596701
21
41.6275691
0
LINE
8
0
10
8.52596701
20
41.6275691
11
8.53770072
21
46.5
0
LINE
8
0
10
8.53770072
20
46.5
11
8.53770072
21
46.5
0
LINE
8
0
10
8.53770072
20
-1.10000002
11
0.0827566296
21
-1.10000002
0
LINE
8
0
10
0.0827566296
20
-1.10000002
11
-8.53770072
21
-1.10000002
0
LINE
8
0
10
-8.53770072
20
-1.10000002
11
-8.52596701
21
3.86987949
0
LINE
8
0
10
-8.52596701
20
3.86987949
11
-8.52626938
21
4
0
LINE
8
0
10
-8.52626938
20
4
11
-8.31018532
21
4
0
LINE
8
0
10
-8.31018532
20
4
11
8.52626938
21
4
0
LINE
8
0
10
8.52626938
20
4
11
8.52596701
21
3.86987949
0
LINE
8
0
10
8.52596701
20
3.86987949
11
8.53770072
21
-1.10000002
0
LINE
8
0
10
8.53770072
20
-1.10000002
11
8.53770072
21
-1.10000002
0
LINE
8
0
10
11.474033
20
3.86987949
11
11.4622993
21
-1.10000002
0
LINE
8
0
10
11.4622993
20
-1.10000002
11
11.6092731
21
-1.10000002
0
LINE
8
0
10
11.6092731
20
-1.10000002
11
11.7882113
21
-1.10000002
0
LINE
8
0
10
11.7882113
20
-1.10000002
11
13.75
21
-1.10000002
0
LINE
8
0
10
13.75
20
-1.10000002
11
13.75
21
2.06123655
0
LINE
8
0
10
13.75
20
2.06123655
11
13.75
21
4
0
LINE
8
0
10
13.75
20
4
11
11.4785146
21
4
0
LINE
8
0
10
11.4785146
20
4
11
11.4737306
21
4
0
LINE
8
0
10
11.4737306
20
4
11
11.474033
21
3.86987949
0
LINE
8
0
10
11.474033
20
3.86987949
11
11.474033
21
3.86987949
0
LINE
8
0
10
11.474033
20
41.6275691
11
11.4622993
21
46.5
0
LINE
8
0
10
11.4622993
20
46.5
11
11.6092731
21
46.5
0
LINE
8
0
10
11.6092731
20
46.5
11
11.7882113
21
46.5
0
LINE
8
0
10
11.7882113
20
46.5
11
13.75
21
46.5
0
LINE
8
0
10
13.75
20
46.5
11
13.75
21
43.4007485
0
LINE
8
0
10
13.75
20
43.4007485
11
13.75
21
41.5
0
LINE
8
0
10
13.75
20
41.5
11
11.4785146
21
41.5
0
LINE
8
0
10
11.4785146
20
41.5
11
11.4737306
21
41.5
0
LINE
8
0
10
11.4737306
20
41.5
11
11.474033
21
41.6275691
0
LINE
8
0
10
11.474033
20
41.6275691
11
11.474033
21
41.6275691
0
ENDSEC
0
EOF
