0
SECTION
2
ENTITIES
0
LINE
8
0
10
11.3971408
20
4
11
11.6534727
21
4
0
LINE
8
0
10
11.6534727
20
4
11
13.75
21
4
0
LINE
8
0
10
13.75
20
4
11
13.75
21
1.84322024
0
LINE
8
0
10
13.75
20
1.84322024
11
13.75
21
-1.10000002
0
LINE
8
0
10
13.75
20
-1.10000002
11
11.9235071
21
-1.10000002
0
LINE
8
0
10
11.9235071
20
-1.10000002
11
11.7569094
21
-1.10000002
0
LINE
8
0
10
11.7569094
20
-1.10000002
11
11.4635904
21
-1.10000002
0
LINE
8
0
10
11.4635904
20
-1.10000002
11
11.401954
21
-1.10000002
0
LINE
8
0
10
11.401954
20
-1.10000002
11
11.4058608
21
0.424194381
0
LINE
8
0
10
11.4058608
20
0.424194381
11
11.3971408
21
4
0
LINE
8
0
10
11.3971408
20
4
11
11.3971408
21
4
0
LINE
8
0
10
11.3971408
20
41.5
11
11.6534727
21
41.5
0
LINE
8
0
10
11.6534727
20
41.5
11
13.75
21
41.5
0
LINE
8
0
10
13.75
20
41.5
11
13.75
21
43.61449
0
LINE
8
0
10
13.75
20
43.61449
11
13.75
21
46.5
0
LINE
8
0
10
13.75
20
46.5
11
11.9235071
21
46.5
0
LINE
8
0
10
11.9235071
20
46.5
11
11.7569094
21
46.5
0
LINE
8
0
10
11.7569094
20
46.5
11
11.4635904
21
46.5
0
LINE
8
0
10
11.4635904
20
46.5
11
11.401954
21
46.5
0
LINE
8
0
10
11.401954
20
46.5
11
11.4058608
21
45.0056918
0
LINE
8
0
10
11.4058608
20
45.0056918
11
11.3971408
21
41.5
0
LINE
8
0
10
11.3971408
20
41.5
11
11.3971408
21
41.5
0
LINE
8
0
10
-2.74674547
20
4
11
8.60285924
21
4
0
LINE
8
0
10
8.60285924
20
4
11
8.59413922
21
0.424194381
0
LINE
8
0
10
8.59413922
20
0.424194381
11
8.59804596
21
-1.10000002
0
LINE
8
0
10
8.59804596
20
-1.10000002
11
5.91065824
21
-1.10000002
0
LINE
8
0
10
5.91065824
20
-1.10000002
11
-8.59804596
21
-1.10000002
0
LINE
8
0
10
-8.59804596
20
-1.10000002
11
-8.59413922
21
0.424194381
0
LINE
8
0
10
-8.59413922
20
0.424194381
11
-8.60285924
21
4
0
LINE
8
0
10
-8.60285924
20
4
11
-2.74674547
21
4
0
LINE
8
0
10
-2.74674547
20
4
11
-2.74674547
21
4
0
LINE
8
0
10
-2.74674547
20
41.5
11
8.60285924
21
41.5
0
LINE
8
0
10
8.60285924
20
41.5
11
8.59413922
21
45.0056918
0
LINE
8
0
10
8.59413922
20
45.0056918
11
8.59804596
21
46.5
0
LINE
8
0
10
8.59804596
20
46.5
11
5.91065824
21
46.5
0
LINE
8
0
10
5.91065824
20
46.5
11
-8.59804596
21
46.5
0
LINE
8
0
10
-8.59804596
20
46.5
11
-8.59413922
21
45.0056918
0
LINE
8
0
10
-8.59413922
20
45.0056918
11
-8.60285924
21
41.5
0
LINE
8
0
10
-8.60285924
20
41.5
11
-2.74674547
21
41.5
0
LINE
8
0
10
-2.74674547
20
41.5
11
-2.74674547
21
41.5
0
LINE
8
0
10
-11.401954
20
46.5
11
-11.5400403
21
46.5
0
LINE
8
0
10
-11.5400403
20
46.5
11
-12.3105694
21
46.5
0
LINE
8
0
10
-12.3105694
20
46.5
11
-12.8724642
21
46.5
0
LINE
8
0
10
-12.8724642
20
46.5
11
-17.8036616
21
46.5
0
LINE
8
0
10
-17.8036616
20
46.5
11
-18.3195387
21
46.5
0
LINE
8
0
10
-18.3195387
20
46.5
11
-18.5499992
21
46.5
0
LINE
8
0
10
-18.5499992
20
46.5
11
-18.5499992
21
46.1580225
0
LINE
8
0
10
-18.5499992
20
46.1580225
11
-18.5499992
21
46.1400261
0
LINE
8
0
10
-18.5499992
20
46.1400261
11
-18.5499992
21
46.1027977
0
LINE
8
0
10
-18.5499992
20
46.1027977
11
-18.5499992
21
46.0472413
0
LINE
8
0
10
-18.5499992
20
46.0472413
11
-18.5499992
21
45.975799
0
LINE
8
0
10
-18.5499992
20
45.975799
11
-18.5499992
21
43.61449
0
LINE
8
0
10
-18.5499992
20
43.61449
11
-18.5499992
21
41.711449
0
LINE
8
0
10
-18.5499992
20
41.711449
11
-18.5499992
21
41.5
0
LINE
8
0
10
-18.5499992
20
41.5
11
-11.7115763
21
41.5
0
LINE
8
0
10
-11.7115763
20
41.5
11
-11.3971408
21
41.5
0
LINE
8
0
10
-11.3971408
20
41.5
11
-11.4058608
21
45.0056918
0
LINE
8
0
10
-11.4058608
20
45.0056918
11
-11.401954
21
46.5
0
LINE
8
0
10
-11.401954
20
46.5
11
-11.401954
21
46.5
0
LINE
8
0
10
-11.401954
20
-1.10000002
11
-11.5400403
21
-1.10000002
0
LINE
8
0
10
-11.5400403
20
-1.10000002
11
-12.3105694
21
-1.10000002
0
LINE
8
0
10
-12.3105694
20
-1.10000002
11
-12.8724642
21
-1.10000002
0
LINE
8
0
10
-12.8724642
20
-1.10000002
11
-17.8036616
21
-1.10000002
0
LINE
8
0
10
-17.8036616
20
-1.10000002
11
-18.5499992
21
-1.10000002
0
LINE
8
0
10
-18.5499992
20
-1.10000002
11
-18.5499992
21
-0.943005904
0
LINE
8
0
10
-18.5499992
20
-0.943005904
11
-18.5499992
21
-0.93716706
0
LINE
8
0
10
-18.5499992
20
-0.93716706
11
-18.5499992
21
-0.919230469
0
LINE
8
0
10
-18.5499992
20
-0.919230469
11
-18.5499992
21
-0.632724594
0
LINE
8
0
10
-18.5499992
20
-0.632724594
11
-18.5499992
21
-0.602144163
0
LINE
8
0
10
-18.5499992
20
-0.602144163
11
-18.5499992
21
-0.552713389
0
LINE
8
0
10
-18.5499992
20
-0.552713389
11
-18.5499992
21
-0.486271237
0
LINE
8
0
10
-18.5499992
20
-0.486271237
11
-18.5499992
21
1.84322024
0
LINE
8
0
10
-18.5499992
20
1.84322024
11
-18.5499992
21
3.788551
0
LINE
8
0
10
-18.5499992
20
3.788551
11
-18.5499992
21
4
0
LINE
8
0
10
-18.5499992
20
4
11
-11.7115763
21
4
0
LINE
8
0
10
-11.7115763
20
4
11
-11.3971408
21
4
0
LINE
8
0
10
-11.3971408
20
4
11
-11.4058608
21
0.424194381
0
LINE
8
0
10
-11.4058608
20
0.424194381
11
-11.401954
21
-1.10000002
0
LINE
8
0
10
-11.401954
20
-1.10000002
11
-11.401954
21
-1.10000002
0
ENDSEC
0
EOF
