0
SECTION
2
ENTITIES
0
LINE
8
0
10
8.71686053
20
4
11
8.70695135
21
0.392466129
0
LINE
8
0
10
8.70695135
20
0.392466129
11
8.71077676
21
-1.10000002
0
LINE
8
0
10
8.71077676
20
-1.10000002
11
-6.27613044
21
-1.10000002
0
LINE
8
0
10
-6.27613044
20
-1.10000002
11
-8.71077676
21
-1.10000002
0
LINE
8
0
10
-8.71077676
20
-1.10000002
11
-8.70695135
21
0.392466129
0
LINE
8
0
10
-8.70695135
20
0.392466129
11
-8.71686053
21
4
0
LINE
8
0
10
-8.71686053
20
4
11
2.21100992
21
4
0
LINE
8
0
10
2.21100992
20
4
11
8.71686053
21
4
0
LINE
8
0
10
8.71686053
20
4
11
8.71686053
21
4
0
LINE
8
0
10
8.71686053
20
41.5
11
8.70695135
21
45.0367979
0
LINE
8
0
10
8.70695135
20
45.0367979
11
8.71077676
21
46.5
0
LINE
8
0
10
8.71077676
20
46.5
11
-6.27613044
21
46.5
0
LINE
8
0
10
-6.27613044
20
46.5
11
-8.71077676
21
46.5
0
LINE
8
0
10
-8.71077676
20
46.5
11
-8.70695135
21
45.0367979
0
LINE
8
0
10
-8.70695135
20
45.0367979
11
-8.71686053
21
41.5
0
LINE
8
0
10
-8.71686053
20
41.5
11
2.21100992
21
41.5
0
LINE
8
0
10
2.21100992
20
41.5
11
8.71686053
21
41.5
0
LINE
8
0
10
8.71686053
20
41.5
11
8.71686053
21
41.5
0
LINE
8
0
10
13.75
20
46.5
11
13.75
21
43.8282314
0
LINE
8
0
10
13.75
20
43.8282314
11
13.75
21
41.5
0
LINE
8
0
10
13.75
20
41.5
11
11.8371709
21
41.5
0
LINE
8
0
10
11.8371709
20
41.5
11
11.4642322
21
41.5
0
LINE
8
0
10
11.4642322
20
41.5
11
11.2831395
21
41.5
0
LINE
8
0
10
11.2831395
20
41.5
11
11.2930487
21
45.0367979
0
LINE
8
0
10
11.2930487
20
45.0367979
11
11.2892232
21
46.5
0
LINE
8
0
10
11.2892232
20
46.5
11
11.632954
21
46.5
0
LINE
8
0
10
11.632954
20
46.5
11
11.9045457
21
46.5
0
LINE
8
0
10
11.9045457
20
46.5
11
12.0588029
21
46.5
0
LINE
8
0
10
12.0588029
20
46.5
11
13.75
21
46.5
0
LINE
8
0
10
13.75
20
46.5
11
13.75
21
46.5
0
LINE
8
0
10
13.75
20
-1.10000002
11
13.75
21
1.62520392
0
LINE
8
0
10
13.75
20
1.62520392
11
13.75
21
4
0
LINE
8
0
10
13.75
20
4
11
11.8371709
21
4
0
LINE
8
0
10
11.8371709
20
4
11
11.4642322
21
4
0
LINE
8
0
10
11.4642322
20
4
11
11.2831395
21
4
0
LINE
8
0
10
11.2831395
20
4
11
11.2930487
21
0.392466129
0
LINE
8
0
10
11.2930487
20
0.392466129
11
11.2892232
21
-1.10000002
0
LINE
8
0
10
11.2892232
20
-1.10000002
11
11.632954
21
-1.10000002
0
LINE
8
0
10
11.632954
20
-1.10000002
11
11.9045457
21
-1.10000002
0
LINE
8
0
10
11.9045457
20
-1.10000002
11
12.0588029
21
-1.10000002
0
LINE
8
0
10
12.0588029
20
-1.10000002
11
13.75
21
-1.10000002
0
LINE
8
0
10
13.75
20
-1.10000002
11
13.75
21
-1.10000002
0
LINE
8
0
10
-11.2892232
20
46.5
11
-12.0592965
21
46.5
0
LINE
8
0
10
-12.0592965
20
46.5
11
-12.7727494
21
46.5
0
LINE
8
0
10
-12.7727494
20
46.5
11
-13.2930223
21
46.5
0
LINE
8
0
10
-13.2930223
20
46.5
11
-17.8589459
21
46.5
0
LINE
8
0
10
-17.8589459
20
46.5
11
-18.3366099
21
46.5
0
LINE
8
0
10
-18.3366099
20
46.5
11
-18.5499992
21
46.5
0
LINE
8
0
10
-18.5499992
20
46.5
11
-18.5499992
21
46.1833541
0
LINE
8
0
10
-18.5499992
20
46.1833541
11
-18.5499992
21
46.1666908
0
LINE
8
0
10
-18.5499992
20
46.1666908
11
-18.5499992
21
46.1322201
0
LINE
8
0
10
-18.5499992
20
46.1322201
11
-18.5499992
21
46.080779
0
LINE
8
0
10
-18.5499992
20
46.080779
11
-18.5499992
21
46.0146287
0
LINE
8
0
10
-18.5499992
20
46.0146287
11
-18.5499992
21
43.8282314
0
LINE
8
0
10
-18.5499992
20
43.8282314
11
-18.5499992
21
41.7328231
0
LINE
8
0
10
-18.5499992
20
41.7328231
11
-18.5499992
21
41.5
0
LINE
8
0
10
-18.5499992
20
41.5
11
-11.6788629
21
41.5
0
LINE
8
0
10
-11.6788629
20
41.5
11
-11.2831395
21
41.5
0
LINE
8
0
10
-11.2831395
20
41.5
11
-11.2930487
21
45.0367979
0
LINE
8
0
10
-11.2930487
20
45.0367979
11
-11.2892232
21
46.5
0
LINE
8
0
10
-11.2892232
20
46.5
11
-11.2892232
21
46.5
0
LINE
8
0
10
-11.2892232
20
-1.10000002
11
-12.0592965
21
-1.10000002
0
LINE
8
0
10
-12.0592965
20
-1.10000002
11
-12.7727494
21
-1.10000002
0
LINE
8
0
10
-12.7727494
20
-1.10000002
11
-13.2930223
21
-1.10000002
0
LINE
8
0
10
-13.2930223
20
-1.10000002
11
-17.8589459
21
-1.10000002
0
LINE
8
0
10
-17.8589459
20
-1.10000002
11
-18.5499992
21
-1.10000002
0
LINE
8
0
10
-18.5499992
20
-1.10000002
11
-18.5499992
21
-0.954635098
0
LINE
8
0
10
-18.5499992
20
-0.954635098
11
-18.5499992
21
-0.949228761
0
LINE
8
0
10
-18.5499992
20
-0.949228761
11
-18.5499992
21
-0.932620806
0
LINE
8
0
10
-18.5499992
20
-0.932620806
11
-18.5499992
21
-0.667337588
0
LINE
8
0
10
-18.5499992
20
-0.667337588
11
-18.5499992
21
-0.639022375
0
LINE
8
0
10
-18.5499992
20
-0.639022375
11
-18.5499992
21
-0.59325314
0
LINE
8
0
10
-18.5499992
20
-0.59325314
11
-18.5499992
21
-0.531732628
0
LINE
8
0
10
-18.5499992
20
-0.531732628
11
-18.5499992
21
1.62520392
0
LINE
8
0
10
-18.5499992
20
1.62520392
11
-18.5499992
21
3.76717686
0
LINE
8
0
10
-18.5499992
20
3.76717686
11
-18.5499992
21
4
0
LINE
8
0
10
-18.5499992
20
4
11
-11.6788629
21
4
0
LINE
8
0
10
-11.6788629
20
4
11
-11.2831395
21
4
0
LINE
8
0
10
-11.2831395
20
4
11
-11.2930487
21
0.392466129
0
LINE
8
0
10
-11.2930487
20
0.392466129
11
-11.2892232
21
-1.10000002
0
LINE
8
0
10
-11.2892232
20
-1.10000002
11
-11.2892232
21
-1.10000002
0
ENDSEC
0
EOF
