0
SECTION
2
ENTITIES
0
LINE
8
0
10
8.88072491
20
2.55660804
11
8.89173123
21
-1.10000002
0
LINE
8
0
10
8.89173123
20
-1.10000002
11
-2.9558459
21
-1.10000002
0
LINE
8
0
10
-2.9558459
20
-1.10000002
11
-8.89173123
21
-1.10000002
0
LINE
8
0
10
-8.89173123
20
-1.10000002
11
-8.88072491
21
2.55660804
0
LINE
8
0
10
-8.88072491
20
2.55660804
11
-8.88561516
21
4
0
LINE
8
0
10
-8.88561516
20
4
11
6.13205019
21
4
0
LINE
8
0
10
6.13205019
20
4
11
8.88561516
21
4
0
LINE
8
0
10
8.88561516
20
4
11
8.88072491
21
2.55660804
0
LINE
8
0
10
8.88072491
20
2.55660804
11
8.88072491
21
2.55660804
0
LINE
8
0
10
8.88072491
20
42.9150901
11
8.89173123
21
46.5
0
LINE
8
0
10
8.89173123
20
46.5
11
-2.9558459
21
46.5
0
LINE
8
0
10
-2.9558459
20
46.5
11
-8.89173123
21
46.5
0
LINE
8
0
10
-8.89173123
20
46.5
11
-8.88072491
21
42.9150901
0
LINE
8
0
10
-8.88072491
20
42.9150901
11
-8.88561516
21
41.5
0
LINE
8
0
10
-8.88561516
20
41.5
11
6.13205019
21
41.5
0
LINE
8
0
10
6.13205019
20
41.5
11
8.88561516
21
41.5
0
LINE
8
0
10
8.88561516
20
41.5
11
8.88072491
21
42.9150901
0
LINE
8
0
10
8.88072491
20
42.9150901
11
8.88072491
21
42.9150901
0
LINE
8
0
10
13.75
20
46.5
11
13.75
21
44.0419729
0
LINE
8
0
10
13.75
20
44.0419729
11
13.75
21
41.5
0
LINE
8
0
10
13.75
20
41.5
11
12.0208692
21
41.5
0
LINE
8
0
10
12.0208692
20
41.5
11
11.6837456
21
41.5
0
LINE
8
0
10
11.6837456
20
41.5
11
11.1997226
21
41.5
0
LINE
8
0
10
11.1997226
20
41.5
11
11.1143848
21
41.5
0
LINE
8
0
10
11.1143848
20
41.5
11
11.1192751
21
42.9150901
0
LINE
8
0
10
11.1192751
20
42.9150901
11
11.1082688
21
46.5
0
LINE
8
0
10
11.1082688
20
46.5
11
11.4277107
21
46.5
0
LINE
8
0
10
11.4277107
20
46.5
11
11.8023177
21
46.5
0
LINE
8
0
10
11.8023177
20
46.5
11
12.0521821
21
46.5
0
LINE
8
0
10
12.0521821
20
46.5
11
12.1940986
21
46.5
0
LINE
8
0
10
12.1940986
20
46.5
11
13.75
21
46.5
0
LINE
8
0
10
13.75
20
46.5
11
13.75
21
46.5
0
LINE
8
0
10
13.75
20
-1.10000002
11
13.75
21
1.4071876
0
LINE
8
0
10
13.75
20
1.4071876
11
13.75
21
4
0
LINE
8
0
10
13.75
20
4
11
12.0208692
21
4
0
LINE
8
0
10
12.0208692
20
4
11
11.6837456
21
4
0
LINE
8
0
10
11.6837456
20
4
11
11.1997226
21
4
0
LINE
8
0
10
11.1997226
20
4
11
11.1143848
21
4
0
LINE
8
0
10
11.1143848
20
4
11
11.1192751
21
2.55660804
0
LINE
8
0
10
11.1192751
20
2.55660804
11
11.1082688
21
-1.10000002
0
LINE
8
0
10
11.1082688
20
-1.10000002
11
11.4277107
21
-1.10000002
0
LINE
8
0
10
11.4277107
20
-1.10000002
11
11.8023177
21
-1.10000002
0
LINE
8
0
10
11.8023177
20
-1.10000002
11
12.0521821
21
-1.10000002
0
LINE
8
0
10
12.0521821
20
-1.10000002
11
12.1940986
21
-1.10000002
0
LINE
8
0
10
12.1940986
20
-1.10000002
11
13.75
21
-1.10000002
0
LINE
8
0
10
13.75
20
-1.10000002
11
13.75
21
-1.10000002
0
LINE
8
0
10
-13.2349294
20
46.5
11
-13.7135805
21
46.5
0
LINE
8
0
10
-13.7135805
20
46.5
11
-17.9142302
21
46.5
0
LINE
8
0
10
-17.9142302
20
46.5
11
-18.353681
21
46.5
0
LINE
8
0
10
-18.353681
20
46.5
11
-18.5499992
21
46.5
0
LINE
8
0
10
-18.5499992
20
46.5
11
-18.5499992
21
46.2086858
0
LINE
8
0
10
-18.5499992
20
46.2086858
11
-18.5499992
21
46.1933556
0
LINE
8
0
10
-18.5499992
20
46.1933556
11
-18.5499992
21
46.1616425
0
LINE
8
0
10
-18.5499992
20
46.1616425
11
-18.5499992
21
46.1143166
0
LINE
8
0
10
-18.5499992
20
46.1143166
11
-18.5499992
21
46.0534584
0
LINE
8
0
10
-18.5499992
20
46.0534584
11
-18.5499992
21
44.0419729
0
LINE
8
0
10
-18.5499992
20
44.0419729
11
-18.5499992
21
41.7541973
0
LINE
8
0
10
-18.5499992
20
41.7541973
11
-18.5499992
21
41.5
0
LINE
8
0
10
-18.5499992
20
41.5
11
-12.3387315
21
41.5
0
LINE
8
0
10
-12.3387315
20
41.5
11
-11.2810457
21
41.5
0
LINE
8
0
10
-11.2810457
20
41.5
11
-11.1143848
21
41.5
0
LINE
8
0
10
-11.1143848
20
41.5
11
-11.1192751
21
42.9150901
0
LINE
8
0
10
-11.1192751
20
42.9150901
11
-11.1082688
21
46.5
0
LINE
8
0
10
-11.1082688
20
46.5
11
-11.7393063
21
46.5
0
LINE
8
0
10
-11.7393063
20
46.5
11
-12.5785527
21
46.5
0
LINE
8
0
10
-12.5785527
20
46.5
11
-13.2349294
21
46.5
0
LINE
8
0
10
-13.2349294
20
46.5
11
-13.2349294
21
46.5
0
LINE
8
0
10
-13.2349294
20
-1.10000002
11
-13.7135805
21
-1.10000002
0
LINE
8
0
10
-13.7135805
20
-1.10000002
11
-17.9142302
21
-1.10000002
0
LINE
8
0
10
-17.9142302
20
-1.10000002
11
-18.5499992
21
-1.10000002
0
LINE
8
0
10
-18.5499992
20
-1.10000002
11
-18.5499992
21
-0.966264292
0
LINE
8
0
10
-18.5499992
20
-0.966264292
11
-18.5499992
21
-0.961290462
0
LINE
8
0
10
-18.5499992
20
-0.961290462
11
-18.5499992
21
-0.946011143
0
LINE
8
0
10
-18.5499992
20
-0.946011143
11
-18.5499992
21
-0.701950583
0
LINE
8
0
10
-18.5499992
20
-0.701950583
11
-18.5499992
21
-0.675900587
0
LINE
8
0
10
-18.5499992
20
-0.675900587
11
-18.5499992
21
-0.633792891
0
LINE
8
0
10
-18.5499992
20
-0.633792891
11
-18.5499992
21
-0.57719402
0
LINE
8
0
10
-18.5499992
20
-0.57719402
11
-18.5499992
21
1.4071876
0
LINE
8
0
10
-18.5499992
20
1.4071876
11
-18.5499992
21
3.74580271
0
LINE
8
0
10
-18.5499992
20
3.74580271
11
-18.5499992
21
4
0
LINE
8
0
10
-18.5499992
20
4
11
-12.3387315
21
4
0
LINE
8
0
10
-12.3387315
20
4
11
-11.2810457
21
4
0
LINE
8
0
10
-11.2810457
20
4
11
-11.1143848
21
4
0
LINE
8
0
10
-11.1143848
20
4
11
-11.1192751
21
2.55660804
0
LINE
8
0
10
-11.1192751
20
2.55660804
11
-11.1082688
21
-1.10000002
0
LINE
8
0
10
-11.1082688
20
-1.10000002
11
-11.7393063
21
-1.10000002
0
LINE
8
0
10
-11.7393063
20
-1.10000002
11
-12.5785527
21
-1.10000002
0
LINE
8
0
10
-12.5785527
20
-1.10000002
11
-13.2349294
21
-1.10000002
0
LINE
8
0
10
-13.2349294
20
-1.10000002
11
-13.2349294
21
-1.10000002
0
ENDSEC
0
EOF
