0
SECTION
2
ENTITIES
0
LINE
8
0
10
9.16740265
20
46.5
11
-2.67965916
21
46.5
0
LINE
8
0
10
-2.67965916
20
46.5
11
-9.16740265
21
46.5
0
LINE
8
0
10
-9.16740265
20
46.5
11
-9.15147514
21
42.5422311
0
LINE
8
0
10
-9.15147514
20
42.5422311
11
-9.15659311
21
41.5
0
LINE
8
0
10
-9.15659311
20
41.5
11
6.96184309
21
41.5
0
LINE
8
0
10
6.96184309
20
41.5
11
9.15659311
21
41.5
0
LINE
8
0
10
9.15659311
20
41.5
11
9.15147514
21
42.5422311
0
LINE
8
0
10
9.15147514
20
42.5422311
11
9.16740265
21
46.5
0
LINE
8
0
10
9.16740265
20
46.5
11
9.16740265
21
46.5
0
LINE
8
0
10
9.16740265
20
-1.10000002
11
-2.67965916
21
-1.10000002
0
LINE
8
0
10
-2.67965916
20
-1.10000002
11
-9.16740265
21
-1.10000002
0
LINE
8
0
10
-9.16740265
20
-1.10000002
11
-9.15147514
21
2.9369243
0
LINE
8
0
10
-9.15147514
20
2.9369243
11
-9.15659311
21
4
0
LINE
8
0
10
-9.15659311
20
4
11
6.96184309
21
4
0
LINE
8
0
10
6.96184309
20
4
11
9.15659311
21
4
0
LINE
8
0
10
9.15659311
20
4
11
9.15147514
21
2.9369243
0
LINE
8
0
10
9.15147514
20
2.9369243
11
9.16740265
21
-1.10000002
0
LINE
8
0
10
9.16740265
20
-1.10000002
11
9.16740265
21
-1.10000002
0
LINE
8
0
10
13.75
20
46.5
11
13.75
21
44.2557144
0
LINE
8
0
10
13.75
20
44.2557144
11
13.75
21
41.5
0
LINE
8
0
10
13.75
20
41.5
11
12.2045675
21
41.5
0
LINE
8
0
10
12.2045675
20
41.5
11
11.903259
21
41.5
0
LINE
8
0
10
11.903259
20
41.5
11
11.4706573
21
41.5
0
LINE
8
0
10
11.4706573
20
41.5
11
10.9113113
21
41.5
0
LINE
8
0
10
10.9113113
20
41.5
11
10.8434069
21
41.5
0
LINE
8
0
10
10.8434069
20
41.5
11
10.8485249
21
42.5422311
0
LINE
8
0
10
10.8485249
20
42.5422311
11
10.8325974
21
46.5
0
LINE
8
0
10
10.8325974
20
46.5
11
11.1714706
21
46.5
0
LINE
8
0
10
11.1714706
20
46.5
11
11.6296489
21
46.5
0
LINE
8
0
10
11.6296489
20
46.5
11
11.9716814
21
46.5
0
LINE
8
0
10
11.9716814
20
46.5
11
12.1998184
21
46.5
0
LINE
8
0
10
12.1998184
20
46.5
11
12.3293944
21
46.5
0
LINE
8
0
10
12.3293944
20
46.5
11
13.75
21
46.5
0
LINE
8
0
10
13.75
20
46.5
11
13.75
21
46.5
0
LINE
8
0
10
13.75
20
-1.10000002
11
13.75
21
1.18917129
0
LINE
8
0
10
13.75
20
1.18917129
11
13.75
21
4
0
LINE
8
0
10
13.75
20
4
11
12.2045675
21
4
0
LINE
8
0
10
12.2045675
20
4
11
11.903259
21
4
0
LINE
8
0
10
11.903259
20
4
11
11.4706573
21
4
0
LINE
8
0
10
11.4706573
20
4
11
10.9113113
21
4
0
LINE
8
0
10
10.9113113
20
4
11
10.8434069
21
4
0
LINE
8
0
10
10.8434069
20
4
11
10.8485249
21
2.9369243
0
LINE
8
0
10
10.8485249
20
2.9369243
11
10.8325974
21
-1.10000002
0
LINE
8
0
10
10.8325974
20
-1.10000002
11
11.1714706
21
-1.10000002
0
LINE
8
0
10
11.1714706
20
-1.10000002
11
11.6296489
21
-1.10000002
0
LINE
8
0
10
11.6296489
20
-1.10000002
11
11.9716814
21
-1.10000002
0
LINE
8
0
10
11.9716814
20
-1.10000002
11
12.1998184
21
-1.10000002
0
LINE
8
0
10
12.1998184
20
-1.10000002
11
12.3293944
21
-1.10000002
0
LINE
8
0
10
12.3293944
20
-1.10000002
11
13.75
21
-1.10000002
0
LINE
8
0
10
13.75
20
-1.10000002
11
13.75
21
-1.10000002
0
LINE
8
0
10
-10.8434069
20
4
11
-10.8485249
21
2.9369243
0
LINE
8
0
10
-10.8485249
20
2.9369243
11
-10.8325974
21
-1.10000002
0
LINE
8
0
10
-10.8325974
20
-1.10000002
11
-11.4264379
21
-1.10000002
0
LINE
8
0
10
-11.4264379
20
-1.10000002
11
-12.3315405
21
-1.10000002
0
LINE
8
0
10
-12.3315405
20
-1.10000002
11
-13.0978089
21
-1.10000002
0
LINE
8
0
10
-13.0978089
20
-1.10000002
11
-13.6971093
21
-1.10000002
0
LINE
8
0
10
-13.6971093
20
-1.10000002
11
-14.1341386
21
-1.10000002
0
LINE
8
0
10
-14.1341386
20
-1.10000002
11
-17.9695144
21
-1.10000002
0
LINE
8
0
10
-17.9695144
20
-1.10000002
11
-18.5499992
21
-1.10000002
0
LINE
8
0
10
-18.5499992
20
-1.10000002
11
-18.5499992
21
-0.977893486
0
LINE
8
0
10
-18.5499992
20
-0.977893486
11
-18.5499992
21
-0.973352163
0
LINE
8
0
10
-18.5499992
20
-0.973352163
11
-18.5499992
21
-0.959401481
0
LINE
8
0
10
-18.5499992
20
-0.959401481
11
-18.5499992
21
-0.736563578
0
LINE
8
0
10
-18.5499992
20
-0.736563578
11
-18.5499992
21
-0.712778799
0
LINE
8
0
10
-18.5499992
20
-0.712778799
11
-18.5499992
21
-0.674332641
0
LINE
8
0
10
-18.5499992
20
-0.674332641
11
-18.5499992
21
-0.622655412
0
LINE
8
0
10
-18.5499992
20
-0.622655412
11
-18.5499992
21
1.18917129
0
LINE
8
0
10
-18.5499992
20
1.18917129
11
-18.5499992
21
3.72442856
0
LINE
8
0
10
-18.5499992
20
3.72442856
11
-18.5499992
21
4
0
LINE
8
0
10
-18.5499992
20
4
11
-12.9986001
21
4
0
LINE
8
0
10
-12.9986001
20
4
11
-12.0532801
21
4
0
LINE
8
0
10
-12.0532801
20
4
11
-10.9609017
21
4
0
LINE
8
0
10
-10.9609017
20
4
11
-10.8434069
21
4
0
LINE
8
0
10
-10.8434069
20
4
11
-10.8434069
21
4
0
LINE
8
0
10
-10.8434069
20
41.5
11
-10.8485249
21
42.5422311
0
LINE
8
0
10
-10.8485249
20
42.5422311
11
-10.8325974
21
46.5
0
LINE
8
0
10
-10.8325974
20
46.5
11
-11.4264379
21
46.5
0
LINE
8
0
10
-11.4264379
20
46.5
11
-12.3315405
21
46.5
0
LINE
8
0
10
-12.3315405
20
46.5
11
-13.0978089
21
46.5
0
LINE
8
0
10
-13.0978089
20
46.5
11
-13.6971093
21
46.5
0
LINE
8
0
10
-13.6971093
20
46.5
11
-14.1341386
21
46.5
0
LINE
8
0
10
-14.1341386
20
46.5
11
-17.9695144
21
46.5
0
LINE
8
0
10
-17.9695144
20
46.5
11
-18.3707522
21
46.5
0
LINE
8
0
10
-18.3707522
20
46.5
11
-18.5499992
21
46.5
0
LINE
8
0
10
-18.5499992
20
46.5
11
-18.5499992
21
46.2340175
0
LINE
8
0
10
-18.5499992
20
46.2340175
11
-18.5499992
21
46.2200203
0
LINE
8
0
10
-18.5499992
20
46.2200203
11
-18.5499992
21
46.1910649
0
LINE
8
0
10
-18.5499992
20
46.1910649
11
-18.5499992
21
46.1478543
0
LINE
8
0
10
-18.5499992
20
46.1478543
11
-18.5499992
21
46.0922881
0
LINE
8
0
10
-18.5499992
20
46.0922881
11
-18.5499992
21
44.2557144
0
LINE
8
0
10
-18.5499992
20
44.2557144
11
-18.5499992
21
41.7755714
0
LINE
8
0
10
-18.5499992
20
41.7755714
11
-18.5499992
21
41.5
0
LINE
8
0
10
-18.5499992
20
41.5
11
-12.9986001
21
41.5
0
LINE
8
0
10
-12.9986001
20
41.5
11
-12.0532801
21
41.5
0
LINE
8
0
10
-12.0532801
20
41.5
11
-10.9609017
21
41.5
0
LINE
8
0
10
-10.9609017
20
41.5
11
-10.8434069
21
41.5
0
LINE
8
0
10
-10.8434069
20
41.5
11
-10.8434069
21
41.5
0
ENDSEC
0
EOF
