0
SECTION
2
ENTITIES
0
LINE
8
0
10
12.4646902
20
46.5
11
13.75
21
46.5
0
LINE
8
0
10
13.75
20
46.5
11
13.75
21
44.4694559
0
LINE
8
0
10
13.75
20
44.4694559
11
13.75
21
41.5
0
LINE
8
0
10
13.75
20
41.5
11
12.3882657
21
41.5
0
LINE
8
0
10
12.3882657
20
41.5
11
12.1227724
21
41.5
0
LINE
8
0
10
12.1227724
20
41.5
11
11.741592
21
41.5
0
LINE
8
0
10
11.741592
20
41.5
11
11.2487328
21
41.5
0
LINE
8
0
10
11.2487328
20
41.5
11
10.6891523
21
41.5
0
LINE
8
0
10
10.6891523
20
41.5
11
10.2426896
21
41.5
0
LINE
8
0
10
10.2426896
20
41.5
11
10.2616104
21
43.4891034
0
LINE
8
0
10
10.2616104
20
43.4891034
11
10.2047797
21
46.5
0
LINE
8
0
10
10.2047797
20
46.5
11
10.4042816
21
46.5
0
LINE
8
0
10
10.4042816
20
46.5
11
10.9210996
21
46.5
0
LINE
8
0
10
10.9210996
20
46.5
11
11.4170448
21
46.5
0
LINE
8
0
10
11.4170448
20
46.5
11
11.8315871
21
46.5
0
LINE
8
0
10
11.8315871
20
46.5
11
12.1410451
21
46.5
0
LINE
8
0
10
12.1410451
20
46.5
11
12.3474548
21
46.5
0
LINE
8
0
10
12.3474548
20
46.5
11
12.4646902
21
46.5
0
LINE
8
0
10
12.4646902
20
46.5
11
12.4646902
21
46.5
0
LINE
8
0
10
12.4646902
20
-1.10000002
11
13.75
21
-1.10000002
0
LINE
8
0
10
13.75
20
-1.10000002
11
13.75
21
0.971154974
0
LINE
8
0
10
13.75
20
0.971154974
11
13.75
21
4
0
LINE
8
0
10
13.75
20
4
11
12.3882657
21
4
0
LINE
8
0
10
12.3882657
20
4
11
12.1227724
21
4
0
LINE
8
0
10
12.1227724
20
4
11
11.741592
21
4
0
LINE
8
0
10
11.741592
20
4
11
11.2487328
21
4
0
LINE
8
0
10
11.2487328
20
4
11
10.6891523
21
4
0
LINE
8
0
10
10.6891523
20
4
11
10.2426896
21
4
0
LINE
8
0
10
10.2426896
20
4
11
10.2616104
21
1.97111451
0
LINE
8
0
10
10.2616104
20
1.97111451
11
10.2047797
21
-1.10000002
0
LINE
8
0
10
10.2047797
20
-1.10000002
11
10.4042816
21
-1.10000002
0
LINE
8
0
10
10.4042816
20
-1.10000002
11
10.9210996
21
-1.10000002
0
LINE
8
0
10
10.9210996
20
-1.10000002
11
11.4170448
21
-1.10000002
0
LINE
8
0
10
11.4170448
20
-1.10000002
11
11.8315871
21
-1.10000002
0
LINE
8
0
10
11.8315871
20
-1.10000002
11
12.1410451
21
-1.10000002
0
LINE
8
0
10
12.1410451
20
-1.10000002
11
12.3474548
21
-1.10000002
0
LINE
8
0
10
12.3474548
20
-1.10000002
11
12.4646902
21
-1.10000002
0
LINE
8
0
10
12.4646902
20
-1.10000002
11
12.4646902
21
-1.10000002
0
LINE
8
0
10
-11.2357793
20
46.5
11
-10.4486962
21
46.5
0
LINE
8
0
10
-10.4486962
20
46.5
11
-10.2047797
21
46.5
0
LINE
8
0
10
-10.2047797
20
46.5
11
-10.2616104
21
43.4891034
0
LINE
8
0
10
-10.2616104
20
43.4891034
11
-10.2426896
21
41.5
0
LINE
8
0
10
-10.2426896
20
41.5
11
-10.8947407
21
41.5
0
LINE
8
0
10
-10.8947407
20
41.5
11
-11.8629819
21
41.5
0
LINE
8
0
10
-11.8629819
20
41.5
11
-12.8255144
21
41.5
0
LINE
8
0
10
-12.8255144
20
41.5
11
-13.6584687
21
41.5
0
LINE
8
0
10
-13.6584687
20
41.5
11
-18.5499992
21
41.5
0
LINE
8
0
10
-18.5499992
20
41.5
11
-18.5499992
21
41.7969456
0
LINE
8
0
10
-18.5499992
20
41.7969456
11
-18.5499992
21
44.4694559
0
LINE
8
0
10
-18.5499992
20
44.4694559
11
-18.5499992
21
46.1311178
0
LINE
8
0
10
-18.5499992
20
46.1311178
11
-18.5499992
21
46.181392
0
LINE
8
0
10
-18.5499992
20
46.181392
11
-18.5499992
21
46.2204873
0
LINE
8
0
10
-18.5499992
20
46.2204873
11
-18.5499992
21
46.246685
0
LINE
8
0
10
-18.5499992
20
46.246685
11
-18.5499992
21
46.2593491
0
LINE
8
0
10
-18.5499992
20
46.2593491
11
-18.5499992
21
46.5
0
LINE
8
0
10
-18.5499992
20
46.5
11
-18.3878233
21
46.5
0
LINE
8
0
10
-18.3878233
20
46.5
11
-18.0247987
21
46.5
0
LINE
8
0
10
-18.0247987
20
46.5
11
-14.5546968
21
46.5
0
LINE
8
0
10
-14.5546968
20
46.5
11
-14.1592893
21
46.5
0
LINE
8
0
10
-14.1592893
20
46.5
11
-13.6170651
21
46.5
0
LINE
8
0
10
-13.6170651
20
46.5
11
-12.9237747
21
46.5
0
LINE
8
0
10
-12.9237747
20
46.5
11
-12.1048723
21
46.5
0
LINE
8
0
10
-12.1048723
20
46.5
11
-11.2357793
21
46.5
0
LINE
8
0
10
-11.2357793
20
46.5
11
-11.2357793
21
46.5
0
LINE
8
0
10
-11.2357793
20
-1.10000002
11
-10.4486962
21
-1.10000002
0
LINE
8
0
10
-10.4486962
20
-1.10000002
11
-10.2047797
21
-1.10000002
0
LINE
8
0
10
-10.2047797
20
-1.10000002
11
-10.2616104
21
1.97111451
0
LINE
8
0
10
-10.2616104
20
1.97111451
11
-10.2426896
21
4
0
LINE
8
0
10
-10.2426896
20
4
11
-10.8947407
21
4
0
LINE
8
0
10
-10.8947407
20
4
11
-11.8629819
21
4
0
LINE
8
0
10
-11.8629819
20
4
11
-12.8255144
21
4
0
LINE
8
0
10
-12.8255144
20
4
11
-13.6584687
21
4
0
LINE
8
0
10
-13.6584687
20
4
11
-18.5499992
21
4
0
LINE
8
0
10
-18.5499992
20
4
11
-18.5499992
21
3.70305441
0
LINE
8
0
10
-18.5499992
20
3.70305441
11
-18.5499992
21
0.971154974
0
LINE
8
0
10
-18.5499992
20
0.971154974
11
-18.5499992
21
-0.668116803
0
LINE
8
0
10
-18.5499992
20
-0.668116803
11
-18.5499992
21
-0.714872392
0
LINE
8
0
10
-18.5499992
20
-0.714872392
11
-18.5499992
21
-0.749657011
0
LINE
8
0
10
-18.5499992
20
-0.749657011
11
-18.5499992
21
-0.771176573
0
LINE
8
0
10
-18.5499992
20
-0.771176573
11
-18.5499992
21
-0.972791818
0
LINE
8
0
10
-18.5499992
20
-0.972791818
11
-18.5499992
21
-0.985413864
0
LINE
8
0
10
-18.5499992
20
-0.985413864
11
-18.5499992
21
-0.98952268
0
LINE
8
0
10
-18.5499992
20
-0.98952268
11
-18.5499992
21
-1.10000002
0
LINE
8
0
10
-18.5499992
20
-1.10000002
11
-18.0247987
21
-1.10000002
0
LINE
8
0
10
-18.0247987
20
-1.10000002
11
-14.5546968
21
-1.10000002
0
LINE
8
0
10
-14.5546968
20
-1.10000002
11
-14.1592893
21
-1.10000002
0
LINE
8
0
10
-14.1592893
20
-1.10000002
11
-13.6170651
21
-1.10000002
0
LINE
8
0
10
-13.6170651
20
-1.10000002
11
-12.9237747
21
-1.10000002
0
LINE
8
0
10
-12.9237747
20
-1.10000002
11
-12.1048723
21
-1.10000002
0
LINE
8
0
10
-12.1048723
20
-1.10000002
11
-11.2357793
21
-1.10000002
0
LINE
8
0
10
-11.2357793
20
-1.10000002
11
-11.2357793
21
-1.10000002
0
LINE
8
0
10
9.73838962
20
43.4891034
11
9.79522028
21
46.5
0
LINE
8
0
10
9.79522028
20
46.5
11
9.66511608
21
46.5
0
LINE
8
0
10
9.66511608
20
46.5
11
9.57058742
21
46.5
0
LINE
8
0
10
9.57058742
20
46.5
11
-7.76773495
21
46.5
0
LINE
8
0
10
-7.76773495
20
46.5
11
-9.41065781
21
46.5
0
LINE
8
0
10
-9.41065781
20
46.5
11
-9.7095306
21
46.5
0
LINE
8
0
10
-9.7095306
20
46.5
11
-9.79522028
21
46.5
0
LINE
8
0
10
-9.79522028
20
46.5
11
-9.73838962
21
43.4891034
0
LINE
8
0
10
-9.73838962
20
43.4891034
11
-9.75731039
21
41.5
0
LINE
8
0
10
-9.75731039
20
41.5
11
-6.91975988
21
41.5
0
LINE
8
0
10
-6.91975988
20
41.5
11
9.75731039
21
41.5
0
LINE
8
0
10
9.75731039
20
41.5
11
9.73838962
21
43.4891034
0
LINE
8
0
10
9.73838962
20
43.4891034
11
9.73838962
21
43.4891034
0
LINE
8
0
10
9.73838962
20
1.97111451
11
9.79522028
21
-1.10000002
0
LINE
8
0
10
9.79522028
20
-1.10000002
11
9.66511608
21
-1.10000002
0
LINE
8
0
10
9.66511608
20
-1.10000002
11
9.57058742
21
-1.10000002
0
LINE
8
0
10
9.57058742
20
-1.10000002
11
-7.76773495
21
-1.10000002
0
LINE
8
0
10
-7.76773495
20
-1.10000002
11
-9.41065781
21
-1.10000002
0
LINE
8
0
10
-9.41065781
20
-1.10000002
11
-9.7095306
21
-1.10000002
0
LINE
8
0
10
-9.7095306
20
-1.10000002
11
-9.79522028
21
-1.10000002
0
LINE
8
0
10
-9.79522028
20
-1.10000002
11
-9.73838962
21
1.97111451
0
LINE
8
0
10
-9.73838962
20
1.97111451
11
-9.75731039
21
4
0
LINE
8
0
10
-9.75731039
20
4
11
-6.91975988
21
4
0
LINE
8
0
10
-6.91975988
20
4
11
9.75731039
21
4
0
LINE
8
0
10
9.75731039
20
4
11
9.73838962
21
1.97111451
0
LINE
8
0
10
9.73838962
20
1.97111451
11
9.73838962
21
1.97111451
0
ENDSEC
0
EOF
