0
SECTION
2
ENTITIES
0
LINE
8
0
10
-14.1363214
20
46.5
11
-13.5160088
21
46.5
0
LINE
8
0
10
-13.5160088
20
46.5
11
-12.7833067
21
46.5
0
LINE
8
0
10
-12.7833067
20
46.5
11
-12.0056972
21
46.5
0
LINE
8
0
10
-12.0056972
20
46.5
11
-11.3014649
21
46.5
0
LINE
8
0
10
-11.3014649
20
46.5
11
-10.8120436
21
46.5
0
LINE
8
0
10
-10.8120436
20
46.5
11
-10.6401062
21
46.5
0
LINE
8
0
10
-10.6401062
20
46.5
11
-6.97269383
21
46.5
0
LINE
8
0
10
-6.97269383
20
46.5
11
-5.50271022
21
46.5
0
LINE
8
0
10
-5.50271022
20
46.5
11
10.0105256
21
46.5
0
LINE
8
0
10
10.0105256
20
46.5
11
10.0951039
21
46.5
0
LINE
8
0
10
10.0951039
20
46.5
11
10.3561595
21
46.5
0
LINE
8
0
10
10.3561595
20
46.5
11
10.7564625
21
46.5
0
LINE
8
0
10
10.7564625
20
46.5
11
11.2188786
21
46.5
0
LINE
8
0
10
11.2188786
20
46.5
11
11.6626191
21
46.5
0
LINE
8
0
10
11.6626191
20
46.5
11
12.0335253
21
46.5
0
LINE
8
0
10
12.0335253
20
46.5
11
12.3104088
21
46.5
0
LINE
8
0
10
12.3104088
20
46.5
11
12.4950911
21
46.5
0
LINE
8
0
10
12.4950911
20
46.5
11
12.5999859
21
46.5
0
LINE
8
0
10
12.5999859
20
46.5
11
13.75
21
46.5
0
LINE
8
0
10
13.75
20
46.5
11
13.75
21
44.6831974
0
LINE
8
0
10
13.75
20
44.6831974
11
13.75
21
41.5
0
LINE
8
0
10
13.75
20
41.5
11
12.571964
21
41.5
0
LINE
8
0
10
12.571964
20
41.5
11
12.3422858
21
41.5
0
LINE
8
0
10
12.3422858
20
41.5
11
12.0125267
21
41.5
0
LINE
8
0
10
12.0125267
20
41.5
11
11.5861543
21
41.5
0
LINE
8
0
10
11.5861543
20
41.5
11
11.1020613
21
41.5
0
LINE
8
0
10
11.1020613
20
41.5
11
10.6439545
21
41.5
0
LINE
8
0
10
10.6439545
20
41.5
11
10.3160849
21
41.5
0
LINE
8
0
10
10.3160849
20
41.5
11
-6.79594038
21
41.5
0
LINE
8
0
10
-6.79594038
20
41.5
11
-10.9305101
21
41.5
0
LINE
8
0
10
-10.9305101
20
41.5
11
-11.2583796
21
41.5
0
LINE
8
0
10
-11.2583796
20
41.5
11
-11.9274369
21
41.5
0
LINE
8
0
10
-11.9274369
20
41.5
11
-12.7650621
21
41.5
0
LINE
8
0
10
-12.7650621
20
41.5
11
-13.5977487
21
41.5
0
LINE
8
0
10
-13.5977487
20
41.5
11
-14.3183373
21
41.5
0
LINE
8
0
10
-14.3183373
20
41.5
11
-18.5499992
21
41.5
0
LINE
8
0
10
-18.5499992
20
41.5
11
-18.5499992
21
41.8183197
0
LINE
8
0
10
-18.5499992
20
41.8183197
11
-18.5499992
21
44.6831974
0
LINE
8
0
10
-18.5499992
20
44.6831974
11
-18.5499992
21
46.1699475
0
LINE
8
0
10
-18.5499992
20
46.1699475
11
-18.5499992
21
46.2149297
0
LINE
8
0
10
-18.5499992
20
46.2149297
11
-18.5499992
21
46.2499097
0
LINE
8
0
10
-18.5499992
20
46.2499097
11
-18.5499992
21
46.2733498
0
LINE
8
0
10
-18.5499992
20
46.2733498
11
-18.5499992
21
46.2846808
0
LINE
8
0
10
-18.5499992
20
46.2846808
11
-18.5499992
21
46.5
0
LINE
8
0
10
-18.5499992
20
46.5
11
-18.4048945
21
46.5
0
LINE
8
0
10
-18.4048945
20
46.5
11
-18.080083
21
46.5
0
LINE
8
0
10
-18.080083
20
46.5
11
-14.9752549
21
46.5
0
LINE
8
0
10
-14.9752549
20
46.5
11
-14.6214693
21
46.5
0
LINE
8
0
10
-14.6214693
20
46.5
11
-14.1363214
21
46.5
0
LINE
8
0
10
-14.1363214
20
46.5
11
-14.1363214
21
46.5
0
LINE
8
0
10
-14.1363214
20
-1.10000002
11
-13.5160088
21
-1.10000002
0
LINE
8
0
10
-13.5160088
20
-1.10000002
11
-12.7833067
21
-1.10000002
0
LINE
8
0
10
-12.7833067
20
-1.10000002
11
-12.0056972
21
-1.10000002
0
LINE
8
0
10
-12.0056972
20
-1.10000002
11
-11.3014649
21
-1.10000002
0
LINE
8
0
10
-11.3014649
20
-1.10000002
11
-10.8120436
21
-1.10000002
0
LINE
8
0
10
-10.8120436
20
-1.10000002
11
-10.6401062
21
-1.10000002
0
LINE
8
0
10
-10.6401062
20
-1.10000002
11
-6.97269383
21
-1.10000002
0
LINE
8
0
10
-6.97269383
20
-1.10000002
11
-5.50271022
21
-1.10000002
0
LINE
8
0
10
-5.50271022
20
-1.10000002
11
10.0105256
21
-1.10000002
0
LINE
8
0
10
10.0105256
20
-1.10000002
11
10.0951039
21
-1.10000002
0
LINE
8
0
10
10.0951039
20
-1.10000002
11
10.3561595
21
-1.10000002
0
LINE
8
0
10
10.3561595
20
-1.10000002
11
10.7564625
21
-1.10000002
0
LINE
8
0
10
10.7564625
20
-1.10000002
11
11.2188786
21
-1.10000002
0
LINE
8
0
10
11.2188786
20
-1.10000002
11
11.6626191
21
-1.10000002
0
LINE
8
0
10
11.6626191
20
-1.10000002
11
12.0335253
21
-1.10000002
0
LINE
8
0
10
12.0335253
20
-1.10000002
11
12.3104088
21
-1.10000002
0
LINE
8
0
10
12.3104088
20
-1.10000002
11
12.4950911
21
-1.10000002
0
LINE
8
0
10
12.4950911
20
-1.10000002
11
12.5999859
21
-1.10000002
0
LINE
8
0
10
12.5999859
20
-1.10000002
11
13.75
21
-1.10000002
0
LINE
8
0
10
13.75
20
-1.10000002
11
13.75
21
0.753138658
0
LINE
8
0
10
13.75
20
0.753138658
11
13.75
21
4
0
LINE
8
0
10
13.75
20
4
11
12.571964
21
4
0
LINE
8
0
10
12.571964
20
4
11
12.3422858
21
4
0
LINE
8
0
10
12.3422858
20
4
11
12.0125267
21
4
0
LINE
8
0
10
12.0125267
20
4
11
11.5861543
21
4
0
LINE
8
0
10
11.5861543
20
4
11
11.1020613
21
4
0
LINE
8
0
10
11.1020613
20
4
11
10.6439545
21
4
0
LINE
8
0
10
10.6439545
20
4
11
10.3160849
21
4
0
LINE
8
0
10
10.3160849
20
4
11
-6.79594038
21
4
0
LINE
8
0
10
-6.79594038
20
4
11
-10.9305101
21
4
0
LINE
8
0
10
-10.9305101
20
4
11
-11.2583796
21
4
0
LINE
8
0
10
-11.2583796
20
4
11
-11.9274369
21
4
0
LINE
8
0
10
-11.9274369
20
4
11
-12.7650621
21
4
0
LINE
8
0
10
-12.7650621
20
4
11
-13.5977487
21
4
0
LINE
8
0
10
-13.5977487
20
4
11
-14.3183373
21
4
0
LINE
8
0
10
-14.3183373
20
4
11
-18.5499992
21
4
0
LINE
8
0
10
-18.5499992
20
4
11
-18.5499992
21
3.68168026
0
LINE
8
0
10
-18.5499992
20
3.68168026
11
-18.5499992
21
0.753138658
0
LINE
8
0
10
-18.5499992
20
0.753138658
11
-18.5499992
21
-0.713578195
0
LINE
8
0
10
-18.5499992
20
-0.713578195
11
-18.5499992
21
-0.755412143
0
LINE
8
0
10
-18.5499992
20
-0.755412143
11
-18.5499992
21
-0.786535223
0
LINE
8
0
10
-18.5499992
20
-0.786535223
11
-18.5499992
21
-0.805789568
0
LINE
8
0
10
-18.5499992
20
-0.805789568
11
-18.5499992
21
-0.986182156
0
LINE
8
0
10
-18.5499992
20
-0.986182156
11
-18.5499992
21
-0.997475565
0
LINE
8
0
10
-18.5499992
20
-0.997475565
11
-18.5499992
21
-1.00115187
0
LINE
8
0
10
-18.5499992
20
-1.00115187
11
-18.5499992
21
-1.10000002
0
LINE
8
0
10
-18.5499992
20
-1.10000002
11
-18.080083
21
-1.10000002
0
LINE
8
0
10
-18.080083
20
-1.10000002
11
-14.9752549
21
-1.10000002
0
LINE
8
0
10
-14.9752549
20
-1.10000002
11
-14.6214693
21
-1.10000002
0
LINE
8
0
10
-14.6214693
20
-1.10000002
11
-14.1363214
21
-1.10000002
0
LINE
8
0
10
-14.1363214
20
-1.10000002
11
-14.1363214
21
-1.10000002
0
ENDSEC
0
EOF
