0
SECTION
2
ENTITIES
0
LINE
8
0
10
-15.3958131
20
46.5
11
-18.1353672
21
46.5
0
LINE
8
0
10
-18.1353672
20
46.5
11
-18.4219656
21
46.5
0
LINE
8
0
10
-18.4219656
20
46.5
11
-18.5499992
21
46.5
0
LINE
8
0
10
-18.5499992
20
46.5
11
-18.5499992
21
46.3100125
0
LINE
8
0
10
-18.5499992
20
46.3100125
11
-18.5499992
21
46.3000145
0
LINE
8
0
10
-18.5499992
20
46.3000145
11
-18.5499992
21
46.2793321
0
LINE
8
0
10
-18.5499992
20
46.2793321
11
-18.5499992
21
46.2484674
0
LINE
8
0
10
-18.5499992
20
46.2484674
11
-18.5499992
21
46.2087772
0
LINE
8
0
10
-18.5499992
20
46.2087772
11
-18.5499992
21
44.8969389
0
LINE
8
0
10
-18.5499992
20
44.8969389
11
-18.5499992
21
41.8396939
0
LINE
8
0
10
-18.5499992
20
41.8396939
11
-18.5499992
21
41.5
0
LINE
8
0
10
-18.5499992
20
41.5
11
-14.9782059
21
41.5
0
LINE
8
0
10
-14.9782059
20
41.5
11
-14.3699831
21
41.5
0
LINE
8
0
10
-14.3699831
20
41.5
11
-13.6671423
21
41.5
0
LINE
8
0
10
-13.6671423
20
41.5
11
-12.960133
21
41.5
0
LINE
8
0
10
-12.960133
20
41.5
11
-12.3954059
21
41.5
0
LINE
8
0
10
-12.3954059
20
41.5
11
-12.1186631
21
41.5
0
LINE
8
0
10
-12.1186631
20
41.5
11
-3.59208776
21
41.5
0
LINE
8
0
10
-3.59208776
20
41.5
11
10.8515561
21
41.5
0
LINE
8
0
10
10.8515561
20
41.5
11
11.1282989
21
41.5
0
LINE
8
0
10
11.1282989
20
41.5
11
11.5149704
21
41.5
0
LINE
8
0
10
11.5149704
20
41.5
11
11.9235758
21
41.5
0
LINE
8
0
10
11.9235758
20
41.5
11
12.2834614
21
41.5
0
LINE
8
0
10
12.2834614
20
41.5
11
12.5617992
21
41.5
0
LINE
8
0
10
12.5617992
20
41.5
11
12.7556623
21
41.5
0
LINE
8
0
10
12.7556623
20
41.5
11
13.75
21
41.5
0
LINE
8
0
10
13.75
20
41.5
11
13.75
21
44.8969389
0
LINE
8
0
10
13.75
20
44.8969389
11
13.75
21
46.5
0
LINE
8
0
10
13.75
20
46.5
11
12.7352817
21
46.5
0
LINE
8
0
10
12.7352817
20
46.5
11
12.6427274
21
46.5
0
LINE
8
0
10
12.6427274
20
46.5
11
12.4797724
21
46.5
0
LINE
8
0
10
12.4797724
20
46.5
11
12.2354635
21
46.5
0
LINE
8
0
10
12.2354635
20
46.5
11
11.9081933
21
46.5
0
LINE
8
0
10
11.9081933
20
46.5
11
11.5166576
21
46.5
0
LINE
8
0
10
11.5166576
20
46.5
11
11.1086434
21
46.5
0
LINE
8
0
10
11.1086434
20
46.5
11
10.7554349
21
46.5
0
LINE
8
0
10
10.7554349
20
46.5
11
10.5250916
21
46.5
0
LINE
8
0
10
10.5250916
20
46.5
11
10.4504638
21
46.5
0
LINE
8
0
10
10.4504638
20
46.5
11
-3.23768549
21
46.5
0
LINE
8
0
10
-3.23768549
20
46.5
11
-4.53472985
21
46.5
0
LINE
8
0
10
-4.53472985
20
46.5
11
-11.5706819
21
46.5
0
LINE
8
0
10
-11.5706819
20
46.5
11
-11.7223913
21
46.5
0
LINE
8
0
10
-11.7223913
20
46.5
11
-12.1542337
21
46.5
0
LINE
8
0
10
-12.1542337
20
46.5
11
-12.775615
21
46.5
0
LINE
8
0
10
-12.775615
20
46.5
11
-13.4617412
21
46.5
0
LINE
8
0
10
-13.4617412
20
46.5
11
-14.108243
21
46.5
0
LINE
8
0
10
-14.108243
20
46.5
11
-14.6555776
21
46.5
0
LINE
8
0
10
-14.6555776
20
46.5
11
-15.0836493
21
46.5
0
LINE
8
0
10
-15.0836493
20
46.5
11
-15.3958131
21
46.5
0
LINE
8
0
10
-15.3958131
20
46.5
11
-15.3958131
21
46.5
0
LINE
8
0
10
-15.3958131
20
-1.10000002
11
-18.1353672
21
-1.10000002
0
LINE
8
0
10
-18.1353672
20
-1.10000002
11
-18.5499992
21
-1.10000002
0
LINE
8
0
10
-18.5499992
20
-1.10000002
11
-18.5499992
21
-1.01278107
0
LINE
8
0
10
-18.5499992
20
-1.01278107
11
-18.5499992
21
-1.00953727
0
LINE
8
0
10
-18.5499992
20
-1.00953727
11
-18.5499992
21
-0.999572493
0
LINE
8
0
10
-18.5499992
20
-0.999572493
11
-18.5499992
21
-0.840402563
0
LINE
8
0
10
-18.5499992
20
-0.840402563
11
-18.5499992
21
-0.823413435
0
LINE
8
0
10
-18.5499992
20
-0.823413435
11
-18.5499992
21
-0.795951894
0
LINE
8
0
10
-18.5499992
20
-0.795951894
11
-18.5499992
21
-0.759039587
0
LINE
8
0
10
-18.5499992
20
-0.759039587
11
-18.5499992
21
0.535122343
0
LINE
8
0
10
-18.5499992
20
0.535122343
11
-18.5499992
21
3.66030611
0
LINE
8
0
10
-18.5499992
20
3.66030611
11
-18.5499992
21
4
0
LINE
8
0
10
-18.5499992
20
4
11
-14.9782059
21
4
0
LINE
8
0
10
-14.9782059
20
4
11
-14.3699831
21
4
0
LINE
8
0
10
-14.3699831
20
4
11
-13.6671423
21
4
0
LINE
8
0
10
-13.6671423
20
4
11
-12.960133
21
4
0
LINE
8
0
10
-12.960133
20
4
11
-12.3954059
21
4
0
LINE
8
0
10
-12.3954059
20
4
11
-12.1186631
21
4
0
LINE
8
0
10
-12.1186631
20
4
11
-3.59208776
21
4
0
LINE
8
0
10
-3.59208776
20
4
11
10.8515561
21
4
0
LINE
8
0
10
10.8515561
20
4
11
11.1282989
21
4
0
LINE
8
0
10
11.1282989
20
4
11
11.5149704
21
4
0
LINE
8
0
10
11.5149704
20
4
11
11.9235758
21
4
0
LINE
8
0
10
11.9235758
20
4
11
12.2834614
21
4
0
LINE
8
0
10
12.2834614
20
4
11
12.5617992
21
4
0
LINE
8
0
10
12.5617992
20
4
11
12.7556623
21
4
0
LINE
8
0
10
12.7556623
20
4
11
13.75
21
4
0
LINE
8
0
10
13.75
20
4
11
13.75
21
0.535122343
0
LINE
8
0
10
13.75
20
0.535122343
11
13.75
21
-1.10000002
0
LINE
8
0
10
13.75
20
-1.10000002
11
12.7352817
21
-1.10000002
0
LINE
8
0
10
12.7352817
20
-1.10000002
11
12.6427274
21
-1.10000002
0
LINE
8
0
10
12.6427274
20
-1.10000002
11
12.4797724
21
-1.10000002
0
LINE
8
0
10
12.4797724
20
-1.10000002
11
12.2354635
21
-1.10000002
0
LINE
8
0
10
12.2354635
20
-1.10000002
11
11.9081933
21
-1.10000002
0
LINE
8
0
10
11.9081933
20
-1.10000002
11
11.5166576
21
-1.10000002
0
LINE
8
0
10
11.5166576
20
-1.10000002
11
11.1086434
21
-1.10000002
0
LINE
8
0
10
11.1086434
20
-1.10000002
11
10.7554349
21
-1.10000002
0
LINE
8
0
10
10.7554349
20
-1.10000002
11
10.5250916
21
-1.10000002
0
LINE
8
0
10
10.5250916
20
-1.10000002
11
10.4504638
21
-1.10000002
0
LINE
8
0
10
10.4504638
20
-1.10000002
11
-3.23768549
21
-1.10000002
0
LINE
8
0
10
-3.23768549
20
-1.10000002
11
-4.53472985
21
-1.10000002
0
LINE
8
0
10
-4.53472985
20
-1.10000002
11
-11.5706819
21
-1.10000002
0
LINE
8
0
10
-11.5706819
20
-1.10000002
11
-11.7223913
21
-1.10000002
0
LINE
8
0
10
-11.7223913
20
-1.10000002
11
-12.1542337
21
-1.10000002
0
LINE
8
0
10
-12.1542337
20
-1.10000002
11
-12.775615
21
-1.10000002
0
LINE
8
0
10
-12.775615
20
-1.10000002
11
-13.4617412
21
-1.10000002
0
LINE
8
0
10
-13.4617412
20
-1.10000002
11
-14.108243
21
-1.10000002
0
LINE
8
0
10
-14.108243
20
-1.10000002
11
-14.6555776
21
-1.10000002
0
LINE
8
0
10
-14.6555776
20
-1.10000002
11
-15.0836493
21
-1.10000002
0
LINE
8
0
10
-15.0836493
20
-1.10000002
11
-15.3958131
21
-1.10000002
0
LINE
8
0
10
-15.3958131
20
-1.10000002
11
-15.3958131
21
-1.10000002
0
ENDSEC
0
EOF
