0
SECTION
2
ENTITIES
0
LINE
8
0
10
11.8144366
20
46.5
11
12.1537675
21
46.5
0
LINE
8
0
10
12.1537675
20
46.5
11
12.4374017
21
46.5
0
LINE
8
0
10
12.4374017
20
46.5
11
12.6491361
21
46.5
0
LINE
8
0
10
12.6491361
20
46.5
11
12.7903638
21
46.5
0
LINE
8
0
10
12.7903638
20
46.5
11
12.8705775
21
46.5
0
LINE
8
0
10
12.8705775
20
46.5
11
13.75
21
46.5
0
LINE
8
0
10
13.75
20
46.5
11
13.75
21
45.1106803
0
LINE
8
0
10
13.75
20
45.1106803
11
13.75
21
41.5
0
LINE
8
0
10
13.75
20
41.5
11
12.9393606
21
41.5
0
LINE
8
0
10
12.9393606
20
41.5
11
12.7813125
21
41.5
0
LINE
8
0
10
12.7813125
20
41.5
11
12.5543961
21
41.5
0
LINE
8
0
10
12.5543961
20
41.5
11
12.2609974
21
41.5
0
LINE
8
0
10
12.2609974
20
41.5
11
11.9278795
21
41.5
0
LINE
8
0
10
11.9278795
20
41.5
11
11.6126434
21
41.5
0
LINE
8
0
10
11.6126434
20
41.5
11
11.3870272
21
41.5
0
LINE
8
0
10
11.3870272
20
41.5
11
-0.38823513
21
41.5
0
LINE
8
0
10
-0.38823513
20
41.5
11
-13.306816
21
41.5
0
LINE
8
0
10
-13.306816
20
41.5
11
-13.5324322
21
41.5
0
LINE
8
0
10
-13.5324322
20
41.5
11
-13.9928292
21
41.5
0
LINE
8
0
10
-13.9928292
20
41.5
11
-14.5692225
21
41.5
0
LINE
8
0
10
-14.5692225
20
41.5
11
-15.1422174
21
41.5
0
LINE
8
0
10
-15.1422174
20
41.5
11
-15.6380745
21
41.5
0
LINE
8
0
10
-15.6380745
20
41.5
11
-18.5499992
21
41.5
0
LINE
8
0
10
-18.5499992
20
41.5
11
-18.5499992
21
41.861068
0
LINE
8
0
10
-18.5499992
20
41.861068
11
-18.5499992
21
45.1106803
0
LINE
8
0
10
-18.5499992
20
45.1106803
11
-18.5499992
21
46.2476069
0
LINE
8
0
10
-18.5499992
20
46.2476069
11
-18.5499992
21
46.2820051
0
LINE
8
0
10
-18.5499992
20
46.2820051
11
-18.5499992
21
46.3087545
0
LINE
8
0
10
-18.5499992
20
46.3087545
11
-18.5499992
21
46.3266792
0
LINE
8
0
10
-18.5499992
20
46.3266792
11
-18.5499992
21
46.3353441
0
LINE
8
0
10
-18.5499992
20
46.3353441
11
-18.5499992
21
46.5
0
LINE
8
0
10
-18.5499992
20
46.5
11
-18.4390368
21
46.5
0
LINE
8
0
10
-18.4390368
20
46.5
11
-18.1906515
21
46.5
0
LINE
8
0
10
-18.1906515
20
46.5
11
-15.8163712
21
46.5
0
LINE
8
0
10
-15.8163712
20
46.5
11
-15.5458293
21
46.5
0
LINE
8
0
10
-15.5458293
20
46.5
11
-15.1748338
21
46.5
0
LINE
8
0
10
-15.1748338
20
46.5
11
-14.7004772
21
46.5
0
LINE
8
0
10
-14.7004772
20
46.5
11
-14.1401756
21
46.5
0
LINE
8
0
10
-14.1401756
20
46.5
11
-13.5455329
21
46.5
0
LINE
8
0
10
-13.5455329
20
46.5
11
-13.0070024
21
46.5
0
LINE
8
0
10
-13.0070024
20
46.5
11
-12.6327391
21
46.5
0
LINE
8
0
10
-12.6327391
20
46.5
11
-12.5012575
21
46.5
0
LINE
8
0
10
-12.5012575
20
46.5
11
-2.09676587
21
46.5
0
LINE
8
0
10
-2.09676587
20
46.5
11
-0.972660759
21
46.5
0
LINE
8
0
10
-0.972660759
20
46.5
11
10.8904019
21
46.5
0
LINE
8
0
10
10.8904019
20
46.5
11
10.9550794
21
46.5
0
LINE
8
0
10
10.9550794
20
46.5
11
11.1547102
21
46.5
0
LINE
8
0
10
11.1547102
20
46.5
11
11.4608243
21
46.5
0
LINE
8
0
10
11.4608243
20
46.5
11
11.8144366
21
46.5
0
LINE
8
0
10
11.8144366
20
46.5
11
11.8144366
21
46.5
0
LINE
8
0
10
11.8144366
20
-1.10000002
11
12.1537675
21
-1.10000002
0
LINE
8
0
10
12.1537675
20
-1.10000002
11
12.4374017
21
-1.10000002
0
LINE
8
0
10
12.4374017
20
-1.10000002
11
12.6491361
21
-1.10000002
0
LINE
8
0
10
12.6491361
20
-1.10000002
11
12.7903638
21
-1.10000002
0
LINE
8
0
10
12.7903638
20
-1.10000002
11
12.8705775
21
-1.10000002
0
LINE
8
0
10
12.8705775
20
-1.10000002
11
13.75
21
-1.10000002
0
LINE
8
0
10
13.75
20
-1.10000002
11
13.75
21
0.317106027
0
LINE
8
0
10
13.75
20
0.317106027
11
13.75
21
4
0
LINE
8
0
10
13.75
20
4
11
12.9393606
21
4
0
LINE
8
0
10
12.9393606
20
4
11
12.7813125
21
4
0
LINE
8
0
10
12.7813125
20
4
11
12.5543961
21
4
0
LINE
8
0
10
12.5543961
20
4
11
12.2609974
21
4
0
LINE
8
0
10
12.2609974
20
4
11
11.9278795
21
4
0
LINE
8
0
10
11.9278795
20
4
11
11.6126434
21
4
0
LINE
8
0
10
11.6126434
20
4
11
11.3870272
21
4
0
LINE
8
0
10
11.3870272
20
4
11
-0.38823513
21
4
0
LINE
8
0
10
-0.38823513
20
4
11
-13.306816
21
4
0
LINE
8
0
10
-13.306816
20
4
11
-13.5324322
21
4
0
LINE
8
0
10
-13.5324322
20
4
11
-13.9928292
21
4
0
LINE
8
0
10
-13.9928292
20
4
11
-14.5692225
21
4
0
LINE
8
0
10
-14.5692225
20
4
11
-15.1422174
21
4
0
LINE
8
0
10
-15.1422174
20
4
11
-15.6380745
21
4
0
LINE
8
0
10
-15.6380745
20
4
11
-18.5499992
21
4
0
LINE
8
0
10
-18.5499992
20
4
11
-18.5499992
21
3.63893197
0
LINE
8
0
10
-18.5499992
20
3.63893197
11
-18.5499992
21
0.317106027
0
LINE
8
0
10
-18.5499992
20
0.317106027
11
-18.5499992
21
-0.804500978
0
LINE
8
0
10
-18.5499992
20
-0.804500978
11
-18.5499992
21
-0.836491644
0
LINE
8
0
10
-18.5499992
20
-0.836491644
11
-18.5499992
21
-0.860291647
0
LINE
8
0
10
-18.5499992
20
-0.860291647
11
-18.5499992
21
-0.875015557
0
LINE
8
0
10
-18.5499992
20
-0.875015557
11
-18.5499992
21
-1.01296283
0
LINE
8
0
10
-18.5499992
20
-1.01296283
11
-18.5499992
21
-1.02159897
0
LINE
8
0
10
-18.5499992
20
-1.02159897
11
-18.5499992
21
-1.02441026
0
LINE
8
0
10
-18.5499992
20
-1.02441026
11
-18.5499992
21
-1.10000002
0
LINE
8
0
10
-18.5499992
20
-1.10000002
11
-18.1906515
21
-1.10000002
0
LINE
8
0
10
-18.1906515
20
-1.10000002
11
-15.8163712
21
-1.10000002
0
LINE
8
0
10
-15.8163712
20
-1.10000002
11
-15.5458293
21
-1.10000002
0
LINE
8
0
10
-15.5458293
20
-1.10000002
11
-15.1748338
21
-1.10000002
0
LINE
8
0
10
-15.1748338
20
-1.10000002
11
-14.7004772
21
-1.10000002
0
LINE
8
0
10
-14.7004772
20
-1.10000002
11
-14.1401756
21
-1.10000002
0
LINE
8
0
10
-14.1401756
20
-1.10000002
11
-13.5455329
21
-1.10000002
0
LINE
8
0
10
-13.5455329
20
-1.10000002
11
-13.0070024
21
-1.10000002
0
LINE
8
0
10
-13.0070024
20
-1.10000002
11
-12.6327391
21
-1.10000002
0
LINE
8
0
10
-12.6327391
20
-1.10000002
11
-12.5012575
21
-1.10000002
0
LINE
8
0
10
-12.5012575
20
-1.10000002
11
-2.09676587
21
-1.10000002
0
LINE
8
0
10
-2.09676587
20
-1.10000002
11
-0.972660759
21
-1.10000002
0
LINE
8
0
10
-0.972660759
20
-1.10000002
11
10.8904019
21
-1.10000002
0
LINE
8
0
10
10.8904019
20
-1.10000002
11
10.9550794
21
-1.10000002
0
LINE
8
0
10
10.9550794
20
-1.10000002
11
11.1547102
21
-1.10000002
0
LINE
8
0
10
11.1547102
20
-1.10000002
11
11.4608243
21
-1.10000002
0
LINE
8
0
10
11.4608243
20
-1.10000002
11
11.8144366
21
-1.10000002
0
LINE
8
0
10
11.8144366
20
-1.10000002
11
11.8144366
21
-1.10000002
0
ENDSEC
0
EOF
