0
SECTION
2
ENTITIES
0
LINE
8
0
10
13.75
20
46.5
11
13.75
21
45.9656463
0
LINE
8
0
10
13.75
20
45.9656463
11
13.75
21
41.5
0
LINE
8
0
10
13.75
20
41.5
11
13.6741536
21
41.5
0
LINE
8
0
10
13.6741536
20
41.5
11
13.6593661
21
41.5
0
LINE
8
0
10
13.6593661
20
41.5
11
13.638135
21
41.5
0
LINE
8
0
10
13.638135
20
41.5
11
13.6106835
21
41.5
0
LINE
8
0
10
13.6106835
20
41.5
11
13.5795158
21
41.5
0
LINE
8
0
10
13.5795158
20
41.5
11
13.5500212
21
41.5
0
LINE
8
0
10
13.5500212
20
41.5
11
13.5289117
21
41.5
0
LINE
8
0
10
13.5289117
20
41.5
11
12.4271754
21
41.5
0
LINE
8
0
10
12.4271754
20
41.5
11
-18.059428
21
41.5
0
LINE
8
0
10
-18.059428
20
41.5
11
-18.0805374
21
41.5
0
LINE
8
0
10
-18.0805374
20
41.5
11
-18.1236139
21
41.5
0
LINE
8
0
10
-18.1236139
20
41.5
11
-18.1775433
21
41.5
0
LINE
8
0
10
-18.1775433
20
41.5
11
-18.2311548
21
41.5
0
LINE
8
0
10
-18.2311548
20
41.5
11
-18.277549
21
41.5
0
LINE
8
0
10
-18.277549
20
41.5
11
-18.5499992
21
41.5
0
LINE
8
0
10
-18.5499992
20
41.5
11
-18.5499992
21
41.9465646
0
LINE
8
0
10
-18.5499992
20
41.9465646
11
-18.5499992
21
45.9656463
0
LINE
8
0
10
-18.5499992
20
45.9656463
11
-18.5499992
21
46.4029257
0
LINE
8
0
10
-18.5499992
20
46.4029257
11
-18.5499992
21
46.4161558
0
LINE
8
0
10
-18.5499992
20
46.4161558
11
-18.5499992
21
46.426444
0
LINE
8
0
10
-18.5499992
20
46.426444
11
-18.5499992
21
46.4333382
0
LINE
8
0
10
-18.5499992
20
46.4333382
11
-18.5499992
21
46.4366708
0
LINE
8
0
10
-18.5499992
20
46.4366708
11
-18.5499992
21
46.5
0
LINE
8
0
10
-18.5499992
20
46.5
11
-18.5073214
21
46.5
0
LINE
8
0
10
-18.5073214
20
46.5
11
-18.4117886
21
46.5
0
LINE
8
0
10
-18.4117886
20
46.5
11
-17.4986039
21
46.5
0
LINE
8
0
10
-17.4986039
20
46.5
11
-17.3945493
21
46.5
0
LINE
8
0
10
-17.3945493
20
46.5
11
-17.2518587
21
46.5
0
LINE
8
0
10
-17.2518587
20
46.5
11
-17.0694138
21
46.5
0
LINE
8
0
10
-17.0694138
20
46.5
11
-16.8539132
21
46.5
0
LINE
8
0
10
-16.8539132
20
46.5
11
-16.6252045
21
46.5
0
LINE
8
0
10
-16.6252045
20
46.5
11
-16.4180774
21
46.5
0
LINE
8
0
10
-16.4180774
20
46.5
11
-16.2741299
21
46.5
0
LINE
8
0
10
-16.2741299
20
46.5
11
-16.2235601
21
46.5
0
LINE
8
0
10
-16.2235601
20
46.5
11
7.65509005
21
46.5
0
LINE
8
0
10
7.65509005
20
46.5
11
8.08743817
21
46.5
0
LINE
8
0
10
8.08743817
20
46.5
11
12.6501546
21
46.5
0
LINE
8
0
10
12.6501546
20
46.5
11
12.6750305
21
46.5
0
LINE
8
0
10
12.6750305
20
46.5
11
12.7518116
21
46.5
0
LINE
8
0
10
12.7518116
20
46.5
11
12.8695478
21
46.5
0
LINE
8
0
10
12.8695478
20
46.5
11
13.0055525
21
46.5
0
LINE
8
0
10
13.0055525
20
46.5
11
13.1360644
21
46.5
0
LINE
8
0
10
13.1360644
20
46.5
11
13.2451545
21
46.5
0
LINE
8
0
10
13.2451545
20
46.5
11
13.3265908
21
46.5
0
LINE
8
0
10
13.3265908
20
46.5
11
13.3809091
21
46.5
0
LINE
8
0
10
13.3809091
20
46.5
11
13.4117606
21
46.5
0
LINE
8
0
10
13.4117606
20
46.5
11
13.75
21
46.5
0
LINE
8
0
10
13.75
20
46.5
11
13.75
21
46.5
0
LINE
8
0
10
13.75
20
-0.554959235
11
13.75
21
-1.10000002
0
LINE
8
0
10
13.75
20
-1.10000002
11
13.4117606
21
-1.10000002
0
LINE
8
0
10
13.4117606
20
-1.10000002
11
13.3809091
21
-1.10000002
0
LINE
8
0
10
13.3809091
20
-1.10000002
11
13.3265908
21
-1.10000002
0
LINE
8
0
10
13.3265908
20
-1.10000002
11
13.2451545
21
-1.10000002
0
LINE
8
0
10
13.2451545
20
-1.10000002
11
13.1360644
21
-1.10000002
0
LINE
8
0
10
13.1360644
20
-1.10000002
11
13.0055525
21
-1.10000002
0
LINE
8
0
10
13.0055525
20
-1.10000002
11
12.8695478
21
-1.10000002
0
LINE
8
0
10
12.8695478
20
-1.10000002
11
12.7518116
21
-1.10000002
0
LINE
8
0
10
12.7518116
20
-1.10000002
11
12.6750305
21
-1.10000002
0
LINE
8
0
10
12.6750305
20
-1.10000002
11
12.6501546
21
-1.10000002
0
LINE
8
0
10
12.6501546
20
-1.10000002
11
8.08743817
21
-1.10000002
0
LINE
8
0
10
8.08743817
20
-1.10000002
11
7.65509005
21
-1.10000002
0
LINE
8
0
10
7.65509005
20
-1.10000002
11
-16.2235601
21
-1.10000002
0
LINE
8
0
10
-16.2235601
20
-1.10000002
11
-16.2741299
21
-1.10000002
0
LINE
8
0
10
-16.2741299
20
-1.10000002
11
-16.4180774
21
-1.10000002
0
LINE
8
0
10
-16.4180774
20
-1.10000002
11
-16.6252045
21
-1.10000002
0
LINE
8
0
10
-16.6252045
20
-1.10000002
11
-16.8539132
21
-1.10000002
0
LINE
8
0
10
-16.8539132
20
-1.10000002
11
-17.0694138
21
-1.10000002
0
LINE
8
0
10
-17.0694138
20
-1.10000002
11
-17.2518587
21
-1.10000002
0
LINE
8
0
10
-17.2518587
20
-1.10000002
11
-17.3945493
21
-1.10000002
0
LINE
8
0
10
-17.3945493
20
-1.10000002
11
-17.4986039
21
-1.10000002
0
LINE
8
0
10
-17.4986039
20
-1.10000002
11
-18.4117886
21
-1.10000002
0
LINE
8
0
10
-18.4117886
20
-1.10000002
11
-18.5499992
21
-1.10000002
0
LINE
8
0
10
-18.5499992
20
-1.10000002
11
-18.5499992
21
-1.07092704
0
LINE
8
0
10
-18.5499992
20
-1.07092704
11
-18.5499992
21
-1.06984577
0
LINE
8
0
10
-18.5499992
20
-1.06984577
11
-18.5499992
21
-1.06652418
0
LINE
8
0
10
-18.5499992
20
-1.06652418
11
-18.5499992
21
-1.01346754
0
LINE
8
0
10
-18.5499992
20
-1.01346754
11
-18.5499992
21
-1.00780449
0
LINE
8
0
10
-18.5499992
20
-1.00780449
11
-18.5499992
21
-0.998650647
0
LINE
8
0
10
-18.5499992
20
-0.998650647
11
-18.5499992
21
-0.986346545
0
LINE
8
0
10
-18.5499992
20
-0.986346545
11
-18.5499992
21
-0.554959235
0
LINE
8
0
10
-18.5499992
20
-0.554959235
11
-18.5499992
21
3.55343537
0
LINE
8
0
10
-18.5499992
20
3.55343537
11
-18.5499992
21
4
0
LINE
8
0
10
-18.5499992
20
4
11
-18.277549
21
4
0
LINE
8
0
10
-18.277549
20
4
11
-18.2311548
21
4
0
LINE
8
0
10
-18.2311548
20
4
11
-18.1775433
21
4
0
LINE
8
0
10
-18.1775433
20
4
11
-18.1236139
21
4
0
LINE
8
0
10
-18.1236139
20
4
11
-18.0805374
21
4
0
LINE
8
0
10
-18.0805374
20
4
11
-18.059428
21
4
0
LINE
8
0
10
-18.059428
20
4
11
12.4271754
21
4
0
LINE
8
0
10
12.4271754
20
4
11
13.5289117
21
4
0
LINE
8
0
10
13.5289117
20
4
11
13.5500212
21
4
0
LINE
8
0
10
13.5500212
20
4
11
13.5795158
21
4
0
LINE
8
0
10
13.5795158
20
4
11
13.6106835
21
4
0
LINE
8
0
10
13.6106835
20
4
11
13.638135
21
4
0
LINE
8
0
10
13.638135
20
4
11
13.6593661
21
4
0
LINE
8
0
10
13.6593661
20
4
11
13.6741536
21
4
0
LINE
8
0
10
13.6741536
20
4
11
13.75
21
4
0
LINE
8
0
10
13.75
20
4
11
13.75
21
-0.554959235
0
LINE
8
0
10
13.75
20
-0.554959235
11
13.75
21
-0.554959235
0
ENDSEC
0
EOF
