0
SECTION
2
ENTITIES
0
LINE
8
0
10
-17.3951224
20
46.5
11
-17.5323476
21
46.5
0
LINE
8
0
10
-17.5323476
20
46.5
11
-17.661648
21
46.5
0
LINE
8
0
10
-17.661648
20
46.5
11
-17.7711149
21
46.5
0
LINE
8
0
10
-17.7711149
20
46.5
11
-17.8567293
21
46.5
0
LINE
8
0
10
-17.8567293
20
46.5
11
-17.919162
21
46.5
0
LINE
8
0
10
-17.919162
20
46.5
11
-18.4670728
21
46.5
0
LINE
8
0
10
-18.4670728
20
46.5
11
-18.5243925
21
46.5
0
LINE
8
0
10
-18.5243925
20
46.5
11
-18.5499992
21
46.5
0
LINE
8
0
10
-18.5499992
20
46.5
11
-18.5499992
21
46.4620025
0
LINE
8
0
10
-18.5499992
20
46.4620025
11
-18.5499992
21
46.4600029
0
LINE
8
0
10
-18.5499992
20
46.4600029
11
-18.5499992
21
46.4558664
0
LINE
8
0
10
-18.5499992
20
46.4558664
11
-18.5499992
21
46.4496935
0
LINE
8
0
10
-18.5499992
20
46.4496935
11
-18.5499992
21
46.4417554
0
LINE
8
0
10
-18.5499992
20
46.4417554
11
-18.5499992
21
46.1793878
0
LINE
8
0
10
-18.5499992
20
46.1793878
11
-18.5499992
21
41.9679388
0
LINE
8
0
10
-18.5499992
20
41.9679388
11
-18.5499992
21
41.6406522
0
LINE
8
0
10
-18.5499992
20
41.6406522
11
4.66386914
21
41.6406522
0
LINE
8
0
10
4.66386914
20
41.6406522
11
13.75
21
41.6406522
0
LINE
8
0
10
13.75
20
41.6406522
11
13.75
21
42.9065218
0
LINE
8
0
10
13.75
20
42.9065218
11
13.75
21
46.1793878
0
LINE
8
0
10
13.75
20
46.1793878
11
13.75
21
46.5
0
LINE
8
0
10
13.75
20
46.5
11
13.5470563
21
46.5
0
LINE
8
0
10
13.5470563
20
46.5
11
13.5285455
21
46.5
0
LINE
8
0
10
13.5285455
20
46.5
11
13.4959545
21
46.5
0
LINE
8
0
10
13.4959545
20
46.5
11
13.4470927
21
46.5
0
LINE
8
0
10
13.4470927
20
46.5
11
13.3816387
21
46.5
0
LINE
8
0
10
13.3816387
20
46.5
11
13.3033315
21
46.5
0
LINE
8
0
10
13.3033315
20
46.5
11
13.2217287
21
46.5
0
LINE
8
0
10
13.2217287
20
46.5
11
13.151087
21
46.5
0
LINE
8
0
10
13.151087
20
46.5
11
13.1050183
21
46.5
0
LINE
8
0
10
13.1050183
20
46.5
11
13.0900928
21
46.5
0
LINE
8
0
10
13.0900928
20
46.5
11
10.3524629
21
46.5
0
LINE
8
0
10
10.3524629
20
46.5
11
10.093054
21
46.5
0
LINE
8
0
10
10.093054
20
46.5
11
-17.1541358
21
46.5
0
LINE
8
0
10
-17.1541358
20
46.5
11
-17.1844777
21
46.5
0
LINE
8
0
10
-17.1844777
20
46.5
11
-17.2708461
21
46.5
0
LINE
8
0
10
-17.2708461
20
46.5
11
-17.3951224
21
46.5
0
LINE
8
0
10
-17.3951224
20
46.5
11
-17.3951224
21
46.5
0
LINE
8
0
10
-17.3951224
20
-1.10000002
11
-17.5323476
21
-1.10000002
0
LINE
8
0
10
-17.5323476
20
-1.10000002
11
-17.661648
21
-1.10000002
0
LINE
8
0
10
-17.661648
20
-1.10000002
11
-17.7711149
21
-1.10000002
0
LINE
8
0
10
-17.7711149
20
-1.10000002
11
-17.8567293
21
-1.10000002
0
LINE
8
0
10
-17.8567293
20
-1.10000002
11
-17.919162
21
-1.10000002
0
LINE
8
0
10
-17.919162
20
-1.10000002
11
-18.4670728
21
-1.10000002
0
LINE
8
0
10
-18.4670728
20
-1.10000002
11
-18.5499992
21
-1.10000002
0
LINE
8
0
10
-18.5499992
20
-1.10000002
11
-18.5499992
21
-1.08255623
0
LINE
8
0
10
-18.5499992
20
-1.08255623
11
-18.5499992
21
-1.08190747
0
LINE
8
0
10
-18.5499992
20
-1.08190747
11
-18.5499992
21
-1.07991452
0
LINE
8
0
10
-18.5499992
20
-1.07991452
11
-18.5499992
21
-1.04808053
0
LINE
8
0
10
-18.5499992
20
-1.04808053
11
-18.5499992
21
-1.04468271
0
LINE
8
0
10
-18.5499992
20
-1.04468271
11
-18.5499992
21
-1.0391904
0
LINE
8
0
10
-18.5499992
20
-1.0391904
11
-18.5499992
21
-1.03180794
0
LINE
8
0
10
-18.5499992
20
-1.03180794
11
-18.5499992
21
-0.772975551
0
LINE
8
0
10
-18.5499992
20
-0.772975551
11
-18.5499992
21
3.53206122
0
LINE
8
0
10
-18.5499992
20
3.53206122
11
-18.5499992
21
3.85934782
0
LINE
8
0
10
-18.5499992
20
3.85934782
11
-9.46386837
21
3.85934782
0
LINE
8
0
10
-9.46386837
20
3.85934782
11
13.75
21
3.85934782
0
LINE
8
0
10
13.75
20
3.85934782
11
13.75
21
2.56534772
0
LINE
8
0
10
13.75
20
2.56534772
11
13.75
21
-0.772975551
0
LINE
8
0
10
13.75
20
-0.772975551
11
13.75
21
-1.10000002
0
LINE
8
0
10
13.75
20
-1.10000002
11
13.5470563
21
-1.10000002
0
LINE
8
0
10
13.5470563
20
-1.10000002
11
13.5285455
21
-1.10000002
0
LINE
8
0
10
13.5285455
20
-1.10000002
11
13.4959545
21
-1.10000002
0
LINE
8
0
10
13.4959545
20
-1.10000002
11
13.4470927
21
-1.10000002
0
LINE
8
0
10
13.4470927
20
-1.10000002
11
13.3816387
21
-1.10000002
0
LINE
8
0
10
13.3816387
20
-1.10000002
11
13.3033315
21
-1.10000002
0
LINE
8
0
10
13.3033315
20
-1.10000002
11
13.2217287
21
-1.10000002
0
LINE
8
0
10
13.2217287
20
-1.10000002
11
13.151087
21
-1.10000002
0
LINE
8
0
10
13.151087
20
-1.10000002
11
13.1050183
21
-1.10000002
0
LINE
8
0
10
13.1050183
20
-1.10000002
11
13.0900928
21
-1.10000002
0
LINE
8
0
10
13.0900928
20
-1.10000002
11
10.3524629
21
-1.10000002
0
LINE
8
0
10
10.3524629
20
-1.10000002
11
10.093054
21
-1.10000002
0
LINE
8
0
10
10.093054
20
-1.10000002
11
-17.1541358
21
-1.10000002
0
LINE
8
0
10
-17.1541358
20
-1.10000002
11
-17.1844777
21
-1.10000002
0
LINE
8
0
10
-17.1844777
20
-1.10000002
11
-17.2708461
21
-1.10000002
0
LINE
8
0
10
-17.2708461
20
-1.10000002
11
-17.3951224
21
-1.10000002
0
LINE
8
0
10
-17.3951224
20
-1.10000002
11
-17.3951224
21
-1.10000002
0
ENDSEC
0
EOF
