0
SECTION
2
ENTITIES
0
LINE
8
0
10
13.6653182
20
46.5
11
13.6761818
21
46.5
0
LINE
8
0
10
13.6761818
20
46.5
11
13.6823521
21
46.5
0
LINE
8
0
10
13.6823521
20
46.5
11
13.75
21
46.5
0
LINE
8
0
10
13.75
20
46.5
11
13.75
21
46.3931293
0
LINE
8
0
10
13.75
20
46.3931293
11
13.75
21
45.3021739
0
LINE
8
0
10
13.75
20
45.3021739
11
13.75
21
41.8802174
0
LINE
8
0
10
13.75
20
41.8802174
11
-10.8120431
21
41.8802174
0
LINE
8
0
10
-10.8120431
20
41.8802174
11
-18.5499992
21
41.8802174
0
LINE
8
0
10
-18.5499992
20
41.8802174
11
-18.5499992
21
41.9893129
0
LINE
8
0
10
-18.5499992
20
41.9893129
11
-18.5499992
21
46.3931293
0
LINE
8
0
10
-18.5499992
20
46.3931293
11
-18.5499992
21
46.4805851
0
LINE
8
0
10
-18.5499992
20
46.4805851
11
-18.5499992
21
46.4832312
0
LINE
8
0
10
-18.5499992
20
46.4832312
11
-18.5499992
21
46.4852888
0
LINE
8
0
10
-18.5499992
20
46.4852888
11
-18.5499992
21
46.4866676
0
LINE
8
0
10
-18.5499992
20
46.4866676
11
-18.5499992
21
46.4873342
0
LINE
8
0
10
-18.5499992
20
46.4873342
11
-18.5499992
21
46.5
0
LINE
8
0
10
-18.5499992
20
46.5
11
-18.5414637
21
46.5
0
LINE
8
0
10
-18.5414637
20
46.5
11
-18.5223571
21
46.5
0
LINE
8
0
10
-18.5223571
20
46.5
11
-18.3397202
21
46.5
0
LINE
8
0
10
-18.3397202
20
46.5
11
-18.3189092
21
46.5
0
LINE
8
0
10
-18.3189092
20
46.5
11
-18.2903711
21
46.5
0
LINE
8
0
10
-18.2903711
20
46.5
11
-18.2538822
21
46.5
0
LINE
8
0
10
-18.2538822
20
46.5
11
-18.210782
21
46.5
0
LINE
8
0
10
-18.210782
20
46.5
11
-18.1650403
21
46.5
0
LINE
8
0
10
-18.1650403
20
46.5
11
-18.1236149
21
46.5
0
LINE
8
0
10
-18.1236149
20
46.5
11
-18.0948254
21
46.5
0
LINE
8
0
10
-18.0948254
20
46.5
11
-18.0847114
21
46.5
0
LINE
8
0
10
-18.0847114
20
46.5
11
12.531018
21
46.5
0
LINE
8
0
10
12.531018
20
46.5
11
12.6174876
21
46.5
0
LINE
8
0
10
12.6174876
20
46.5
11
13.5300309
21
46.5
0
LINE
8
0
10
13.5300309
20
46.5
11
13.5350061
21
46.5
0
LINE
8
0
10
13.5350061
20
46.5
11
13.5503623
21
46.5
0
LINE
8
0
10
13.5503623
20
46.5
11
13.5739096
21
46.5
0
LINE
8
0
10
13.5739096
20
46.5
11
13.6011105
21
46.5
0
LINE
8
0
10
13.6011105
20
46.5
11
13.6272129
21
46.5
0
LINE
8
0
10
13.6272129
20
46.5
11
13.6490309
21
46.5
0
LINE
8
0
10
13.6490309
20
46.5
11
13.6653182
21
46.5
0
LINE
8
0
10
13.6653182
20
46.5
11
13.6653182
21
46.5
0
LINE
8
0
10
13.6653182
20
-1.10000002
11
13.6761818
21
-1.10000002
0
LINE
8
0
10
13.6761818
20
-1.10000002
11
13.6823521
21
-1.10000002
0
LINE
8
0
10
13.6823521
20
-1.10000002
11
13.75
21
-1.10000002
0
LINE
8
0
10
13.75
20
-1.10000002
11
13.75
21
-0.990991866
0
LINE
8
0
10
13.75
20
-0.990991866
11
13.75
21
0.121782557
0
LINE
8
0
10
13.75
20
0.121782557
11
13.75
21
3.61978261
0
LINE
8
0
10
13.75
20
3.61978261
11
6.01204388
21
3.61978261
0
LINE
8
0
10
6.01204388
20
3.61978261
11
-18.5499992
21
3.61978261
0
LINE
8
0
10
-18.5499992
20
3.61978261
11
-18.5499992
21
3.51068707
0
LINE
8
0
10
-18.5499992
20
3.51068707
11
-18.5499992
21
-0.990991866
0
LINE
8
0
10
-18.5499992
20
-0.990991866
11
-18.5499992
21
-1.07726933
0
LINE
8
0
10
-18.5499992
20
-1.07726933
11
-18.5499992
21
-1.07973015
0
LINE
8
0
10
-18.5499992
20
-1.07973015
11
-18.5499992
21
-1.08156092
0
LINE
8
0
10
-18.5499992
20
-1.08156092
11
-18.5499992
21
-1.08269353
0
LINE
8
0
10
-18.5499992
20
-1.08269353
11
-18.5499992
21
-1.09330486
0
LINE
8
0
10
-18.5499992
20
-1.09330486
11
-18.5499992
21
-1.09396917
0
LINE
8
0
10
-18.5499992
20
-1.09396917
11
-18.5499992
21
-1.09418543
0
LINE
8
0
10
-18.5499992
20
-1.09418543
11
-18.5499992
21
-1.10000002
0
LINE
8
0
10
-18.5499992
20
-1.10000002
11
-18.5223571
21
-1.10000002
0
LINE
8
0
10
-18.5223571
20
-1.10000002
11
-18.3397202
21
-1.10000002
0
LINE
8
0
10
-18.3397202
20
-1.10000002
11
-18.3189092
21
-1.10000002
0
LINE
8
0
10
-18.3189092
20
-1.10000002
11
-18.2903711
21
-1.10000002
0
LINE
8
0
10
-18.2903711
20
-1.10000002
11
-18.2538822
21
-1.10000002
0
LINE
8
0
10
-18.2538822
20
-1.10000002
11
-18.210782
21
-1.10000002
0
LINE
8
0
10
-18.210782
20
-1.10000002
11
-18.1650403
21
-1.10000002
0
LINE
8
0
10
-18.1650403
20
-1.10000002
11
-18.1236149
21
-1.10000002
0
LINE
8
0
10
-18.1236149
20
-1.10000002
11
-18.0948254
21
-1.10000002
0
LINE
8
0
10
-18.0948254
20
-1.10000002
11
-18.0847114
21
-1.10000002
0
LINE
8
0
10
-18.0847114
20
-1.10000002
11
12.531018
21
-1.10000002
0
LINE
8
0
10
12.531018
20
-1.10000002
11
12.6174876
21
-1.10000002
0
LINE
8
0
10
12.6174876
20
-1.10000002
11
13.5300309
21
-1.10000002
0
LINE
8
0
10
13.5300309
20
-1.10000002
11
13.5350061
21
-1.10000002
0
LINE
8
0
10
13.5350061
20
-1.10000002
11
13.5503623
21
-1.10000002
0
LINE
8
0
10
13.5503623
20
-1.10000002
11
13.5739096
21
-1.10000002
0
LINE
8
0
10
13.5739096
20
-1.10000002
11
13.6011105
21
-1.10000002
0
LINE
8
0
10
13.6011105
20
-1.10000002
11
13.6272129
21
-1.10000002
0
LINE
8
0
10
13.6272129
20
-1.10000002
11
13.6490309
21
-1.10000002
0
LINE
8
0
10
13.6490309
20
-1.10000002
11
13.6653182
21
-1.10000002
0
LINE
8
0
10
13.6653182
20
-1.10000002
11
13.6653182
21
-1.10000002
0
ENDSEC
0
EOF
