0
SECTION
2
ENTITIES
0
LINE
8
0
10
13.1097946
20
4.26525983
11
13.75
21
4.26525983
0
LINE
8
0
10
13.75
20
4.26525983
11
13.75
21
3.81708472
0
LINE
8
0
10
13.75
20
3.81708472
11
13.75
21
-1.10000002
0
LINE
8
0
10
13.75
20
-1.10000002
11
11.864436
21
-1.10000002
0
LINE
8
0
10
11.864436
20
-1.10000002
11
11.6533286
21
-1.10000002
0
LINE
8
0
10
11.6533286
20
-1.10000002
11
11.36933
21
-1.10000002
0
LINE
8
0
10
11.36933
20
-1.10000002
11
11.0296916
21
-1.10000002
0
LINE
8
0
10
11.0296916
20
-1.10000002
11
10.6616871
21
-1.10000002
0
LINE
8
0
10
10.6616871
20
-1.10000002
11
10.2996844
21
-1.10000002
0
LINE
8
0
10
10.2996844
20
-1.10000002
11
9.97938988
21
-1.10000002
0
LINE
8
0
10
9.97938988
20
-1.10000002
11
9.73102107
21
-1.10000002
0
LINE
8
0
10
9.73102107
20
-1.10000002
11
9.57398763
21
-1.10000002
0
LINE
8
0
10
9.57398763
20
-1.10000002
11
-6.11515638
21
-1.10000002
0
LINE
8
0
10
-6.11515638
20
-1.10000002
11
-9.80038388
21
-1.10000002
0
LINE
8
0
10
-9.80038388
20
-1.10000002
11
-9.91359213
21
-1.10000002
0
LINE
8
0
10
-9.91359213
20
-1.10000002
11
-10.1332484
21
-1.10000002
0
LINE
8
0
10
-10.1332484
20
-1.10000002
11
-10.4435329
21
-1.10000002
0
LINE
8
0
10
-10.4435329
20
-1.10000002
11
-10.8155457
21
-1.10000002
0
LINE
8
0
10
-10.8155457
20
-1.10000002
11
-11.2122627
21
-1.10000002
0
LINE
8
0
10
-11.2122627
20
-1.10000002
11
-11.5957262
21
-1.10000002
0
LINE
8
0
10
-11.5957262
20
-1.10000002
11
-11.9337006
21
-1.10000002
0
LINE
8
0
10
-11.9337006
20
-1.10000002
11
-12.2036486
21
-1.10000002
0
LINE
8
0
10
-12.2036486
20
-1.10000002
11
-12.3935089
21
-1.10000002
0
LINE
8
0
10
-12.3935089
20
-1.10000002
11
-17.1955347
21
-1.10000002
0
LINE
8
0
10
-17.1955347
20
-1.10000002
11
-18.1317561
21
-1.10000002
0
LINE
8
0
10
-18.1317561
20
-1.10000002
11
-18.5499992
21
-1.10000002
0
LINE
8
0
10
-18.5499992
20
-1.10000002
11
-18.5499992
21
-0.804488349
0
LINE
8
0
10
-18.5499992
20
-0.804488349
11
-18.5499992
21
-0.771936757
0
LINE
8
0
10
-18.5499992
20
-0.771936757
11
-18.5499992
21
-0.25198165
0
LINE
8
0
10
-18.5499992
20
-0.25198165
11
-18.5499992
21
-0.196483833
0
LINE
8
0
10
-18.5499992
20
-0.196483833
11
-18.5499992
21
-0.106776131
0
LINE
8
0
10
-18.5499992
20
-0.106776131
11
-18.5499992
21
0.0138040711
0
LINE
8
0
10
-18.5499992
20
0.0138040711
11
-18.5499992
21
3.93964479
0
LINE
8
0
10
-18.5499992
20
3.93964479
11
-18.5499992
21
3.94725951
0
LINE
8
0
10
-18.5499992
20
3.94725951
11
-18.5499992
21
3.95702052
0
LINE
8
0
10
-18.5499992
20
3.95702052
11
-18.5499992
21
4.26525983
0
LINE
8
0
10
-18.5499992
20
4.26525983
11
-16.4886199
21
4.26525983
0
LINE
8
0
10
-16.4886199
20
4.26525983
11
-11.9518203
21
4.26525983
0
LINE
8
0
10
-11.9518203
20
4.26525983
11
-11.9518203
21
4
0
LINE
8
0
10
-11.9518203
20
4
11
-8.98835309
21
4
0
LINE
8
0
10
-8.98835309
20
4
11
-8.04817934
21
4
0
LINE
8
0
10
-8.04817934
20
4
11
-8.04817934
21
4.26525983
0
LINE
8
0
10
-8.04817934
20
4.26525983
11
-3.06679419
21
4.26525983
0
LINE
8
0
10
-3.06679419
20
4.26525983
11
8.04817934
21
4.26525983
0
LINE
8
0
10
8.04817934
20
4.26525983
11
8.04817934
21
4
0
LINE
8
0
10
8.04817934
20
4
11
11.0116466
21
4
0
LINE
8
0
10
11.0116466
20
4
11
11.9518203
21
4
0
LINE
8
0
10
11.9518203
20
4
11
11.9518203
21
4.26525983
0
LINE
8
0
10
11.9518203
20
4.26525983
11
13.1097946
21
4.26525983
0
LINE
8
0
10
13.1097946
20
4.26525983
11
13.1097946
21
4.26525983
0
LINE
8
0
10
13.1097946
20
41.2347402
11
13.75
21
41.2347402
0
LINE
8
0
10
13.75
20
41.2347402
11
13.75
21
41.6793287
0
LINE
8
0
10
13.75
20
41.6793287
11
13.75
21
46.5
0
LINE
8
0
10
13.75
20
46.5
11
11.864436
21
46.5
0
LINE
8
0
10
11.864436
20
46.5
11
11.6533286
21
46.5
0
LINE
8
0
10
11.6533286
20
46.5
11
11.36933
21
46.5
0
LINE
8
0
10
11.36933
20
46.5
11
11.0296916
21
46.5
0
LINE
8
0
10
11.0296916
20
46.5
11
10.6616871
21
46.5
0
LINE
8
0
10
10.6616871
20
46.5
11
10.2996844
21
46.5
0
LINE
8
0
10
10.2996844
20
46.5
11
9.97938988
21
46.5
0
LINE
8
0
10
9.97938988
20
46.5
11
9.73102107
21
46.5
0
LINE
8
0
10
9.73102107
20
46.5
11
9.57398763
21
46.5
0
LINE
8
0
10
9.57398763
20
46.5
11
-6.11515638
21
46.5
0
LINE
8
0
10
-6.11515638
20
46.5
11
-9.80038388
21
46.5
0
LINE
8
0
10
-9.80038388
20
46.5
11
-9.91359213
21
46.5
0
LINE
8
0
10
-9.91359213
20
46.5
11
-10.1332484
21
46.5
0
LINE
8
0
10
-10.1332484
20
46.5
11
-10.4435329
21
46.5
0
LINE
8
0
10
-10.4435329
20
46.5
11
-10.8155457
21
46.5
0
LINE
8
0
10
-10.8155457
20
46.5
11
-11.2122627
21
46.5
0
LINE
8
0
10
-11.2122627
20
46.5
11
-11.5957262
21
46.5
0
LINE
8
0
10
-11.5957262
20
46.5
11
-11.9337006
21
46.5
0
LINE
8
0
10
-11.9337006
20
46.5
11
-12.2036486
21
46.5
0
LINE
8
0
10
-12.2036486
20
46.5
11
-12.3935089
21
46.5
0
LINE
8
0
10
-12.3935089
20
46.5
11
-17.1955347
21
46.5
0
LINE
8
0
10
-17.1955347
20
46.5
11
-18.5499992
21
46.5
0
LINE
8
0
10
-18.5499992
20
46.5
11
-18.5499992
21
46.2335575
0
LINE
8
0
10
-18.5499992
20
46.2335575
11
-18.5499992
21
45.8793741
0
LINE
8
0
10
-18.5499992
20
45.8793741
11
-18.5499992
21
45.846714
0
LINE
8
0
10
-18.5499992
20
45.846714
11
-18.5499992
21
45.7791514
0
LINE
8
0
10
-18.5499992
20
45.7791514
11
-18.5499992
21
45.6783268
0
LINE
8
0
10
-18.5499992
20
45.6783268
11
-18.5499992
21
45.5486723
0
LINE
8
0
10
-18.5499992
20
45.5486723
11
-18.5499992
21
41.5707483
0
LINE
8
0
10
-18.5499992
20
41.5707483
11
-18.5499992
21
41.5622925
0
LINE
8
0
10
-18.5499992
20
41.5622925
11
-18.5499992
21
41.5518837
0
LINE
8
0
10
-18.5499992
20
41.5518837
11
-18.5499992
21
41.2347402
0
LINE
8
0
10
-18.5499992
20
41.2347402
11
-16.4886199
21
41.2347402
0
LINE
8
0
10
-16.4886199
20
41.2347402
11
-11.9518203
21
41.2347402
0
LINE
8
0
10
-11.9518203
20
41.2347402
11
-11.9518203
21
41.5
0
LINE
8
0
10
-11.9518203
20
41.5
11
-8.98835309
21
41.5
0
LINE
8
0
10
-8.98835309
20
41.5
11
-8.04817934
21
41.5
0
LINE
8
0
10
-8.04817934
20
41.5
11
-8.04817934
21
41.2347402
0
LINE
8
0
10
-8.04817934
20
41.2347402
11
3.06679419
21
41.2347402
0
LINE
8
0
10
3.06679419
20
41.2347402
11
8.04817934
21
41.2347402
0
LINE
8
0
10
8.04817934
20
41.2347402
11
8.04817934
21
41.5
0
LINE
8
0
10
8.04817934
20
41.5
11
11.0116466
21
41.5
0
LINE
8
0
10
11.0116466
20
41.5
11
11.9518203
21
41.5
0
LINE
8
0
10
11.9518203
20
41.5
11
11.9518203
21
41.2347402
0
LINE
8
0
10
11.9518203
20
41.2347402
11
13.1097946
21
41.2347402
0
LINE
8
0
10
13.1097946
20
41.2347402
11
13.1097946
21
41.2347402
0
ENDSEC
0
EOF
