0
SECTION
2
ENTITIES
0
LINE
8
0
10
9.03681466
20
4
11
11.6751944
21
4
0
LINE
8
0
10
11.6751944
20
4
11
11.6751944
21
4.74439026
0
LINE
8
0
10
11.6751944
20
4.74439026
11
11.9534118
21
4.74439026
0
LINE
8
0
10
11.9534118
20
4.74439026
11
13.75
21
4.74439026
0
LINE
8
0
10
13.75
20
4.74439026
11
13.75
21
3.48669066
0
LINE
8
0
10
13.75
20
3.48669066
11
13.75
21
-1.10000002
0
LINE
8
0
10
13.75
20
-1.10000002
11
11.9911329
21
-1.10000002
0
LINE
8
0
10
11.9911329
20
-1.10000002
11
11.7942104
21
-1.10000002
0
LINE
8
0
10
11.7942104
20
-1.10000002
11
11.5292945
21
-1.10000002
0
LINE
8
0
10
11.5292945
20
-1.10000002
11
11.2124775
21
-1.10000002
0
LINE
8
0
10
11.2124775
20
-1.10000002
11
10.8692004
21
-1.10000002
0
LINE
8
0
10
10.8692004
20
-1.10000002
11
10.5315217
21
-1.10000002
0
LINE
8
0
10
10.5315217
20
-1.10000002
11
10.2327488
21
-1.10000002
0
LINE
8
0
10
10.2327488
20
-1.10000002
11
10.0010686
21
-1.10000002
0
LINE
8
0
10
10.0010686
20
-1.10000002
11
9.85458676
21
-1.10000002
0
LINE
8
0
10
9.85458676
20
-1.10000002
11
-4.78035536
21
-1.10000002
0
LINE
8
0
10
-4.78035536
20
-1.10000002
11
-10.1867183
21
-1.10000002
0
LINE
8
0
10
-10.1867183
20
-1.10000002
11
-10.2923197
21
-1.10000002
0
LINE
8
0
10
-10.2923197
20
-1.10000002
11
-10.4972166
21
-1.10000002
0
LINE
8
0
10
-10.4972166
20
-1.10000002
11
-10.7866522
21
-1.10000002
0
LINE
8
0
10
-10.7866522
20
-1.10000002
11
-11.1336682
21
-1.10000002
0
LINE
8
0
10
-11.1336682
20
-1.10000002
11
-11.5037286
21
-1.10000002
0
LINE
8
0
10
-11.5037286
20
-1.10000002
11
-11.8614261
21
-1.10000002
0
LINE
8
0
10
-11.8614261
20
-1.10000002
11
-12.1766909
21
-1.10000002
0
LINE
8
0
10
-12.1766909
20
-1.10000002
11
-12.4285003
21
-1.10000002
0
LINE
8
0
10
-12.4285003
20
-1.10000002
11
-12.6056033
21
-1.10000002
0
LINE
8
0
10
-12.6056033
20
-1.10000002
11
-17.0849662
21
-1.10000002
0
LINE
8
0
10
-17.0849662
20
-1.10000002
11
-18.0976138
21
-1.10000002
0
LINE
8
0
10
-18.0976138
20
-1.10000002
11
-18.5499992
21
-1.10000002
0
LINE
8
0
10
-18.5499992
20
-1.10000002
11
-18.5499992
21
-0.780364947
0
LINE
8
0
10
-18.5499992
20
-0.780364947
11
-18.5499992
21
-0.745156082
0
LINE
8
0
10
-18.5499992
20
-0.745156082
11
-18.5499992
21
-0.182755661
0
LINE
8
0
10
-18.5499992
20
-0.182755661
11
-18.5499992
21
-0.122727409
0
LINE
8
0
10
-18.5499992
20
-0.122727409
11
-18.5499992
21
-0.0256966301
0
LINE
8
0
10
-18.5499992
20
-0.0256966301
11
-18.5499992
21
0.104726854
0
LINE
8
0
10
-18.5499992
20
0.104726854
11
-18.5499992
21
3.83062709
0
LINE
8
0
10
-18.5499992
20
3.83062709
11
-18.5499992
21
3.85199603
0
LINE
8
0
10
-18.5499992
20
3.85199603
11
-18.5499992
21
3.87938806
0
LINE
8
0
10
-18.5499992
20
3.87938806
11
-18.5499992
21
4.74439026
0
LINE
8
0
10
-18.5499992
20
4.74439026
11
-12.7652158
21
4.74439026
0
LINE
8
0
10
-12.7652158
20
4.74439026
11
-11.6751944
21
4.74439026
0
LINE
8
0
10
-11.6751944
20
4.74439026
11
-11.6751944
21
4
0
LINE
8
0
10
-11.6751944
20
4
11
-10.9631853
21
4
0
LINE
8
0
10
-10.9631853
20
4
11
-8.32480551
21
4
0
LINE
8
0
10
-8.32480551
20
4
11
-8.32480551
21
4.74439026
0
LINE
8
0
10
-8.32480551
20
4.74439026
11
5.65429757
21
4.74439026
0
LINE
8
0
10
5.65429757
20
4.74439026
11
8.32480551
21
4.74439026
0
LINE
8
0
10
8.32480551
20
4.74439026
11
8.32480551
21
4
0
LINE
8
0
10
8.32480551
20
4
11
9.03681466
21
4
0
LINE
8
0
10
9.03681466
20
4
11
9.03681466
21
4
0
LINE
8
0
10
9.03681466
20
41.5
11
11.6751944
21
41.5
0
LINE
8
0
10
11.6751944
20
41.5
11
11.6751944
21
40.7556097
0
LINE
8
0
10
11.6751944
20
40.7556097
11
11.9534118
21
40.7556097
0
LINE
8
0
10
11.9534118
20
40.7556097
11
13.75
21
40.7556097
0
LINE
8
0
10
13.75
20
40.7556097
11
13.75
21
42.0032445
0
LINE
8
0
10
13.75
20
42.0032445
11
13.75
21
46.5
0
LINE
8
0
10
13.75
20
46.5
11
11.9911329
21
46.5
0
LINE
8
0
10
11.9911329
20
46.5
11
11.7942104
21
46.5
0
LINE
8
0
10
11.7942104
20
46.5
11
11.5292945
21
46.5
0
LINE
8
0
10
11.5292945
20
46.5
11
11.2124775
21
46.5
0
LINE
8
0
10
11.2124775
20
46.5
11
10.8692004
21
46.5
0
LINE
8
0
10
10.8692004
20
46.5
11
10.5315217
21
46.5
0
LINE
8
0
10
10.5315217
20
46.5
11
10.2327488
21
46.5
0
LINE
8
0
10
10.2327488
20
46.5
11
10.0010686
21
46.5
0
LINE
8
0
10
10.0010686
20
46.5
11
9.85458676
21
46.5
0
LINE
8
0
10
9.85458676
20
46.5
11
-4.78035536
21
46.5
0
LINE
8
0
10
-4.78035536
20
46.5
11
-10.1867183
21
46.5
0
LINE
8
0
10
-10.1867183
20
46.5
11
-10.2923197
21
46.5
0
LINE
8
0
10
-10.2923197
20
46.5
11
-10.4972166
21
46.5
0
LINE
8
0
10
-10.4972166
20
46.5
11
-10.7866522
21
46.5
0
LINE
8
0
10
-10.7866522
20
46.5
11
-11.1336682
21
46.5
0
LINE
8
0
10
-11.1336682
20
46.5
11
-11.5037286
21
46.5
0
LINE
8
0
10
-11.5037286
20
46.5
11
-11.8614261
21
46.5
0
LINE
8
0
10
-11.8614261
20
46.5
11
-12.1766909
21
46.5
0
LINE
8
0
10
-12.1766909
20
46.5
11
-12.4285003
21
46.5
0
LINE
8
0
10
-12.4285003
20
46.5
11
-12.6056033
21
46.5
0
LINE
8
0
10
-12.6056033
20
46.5
11
-17.0849662
21
46.5
0
LINE
8
0
10
-17.0849662
20
46.5
11
-18.5499992
21
46.5
0
LINE
8
0
10
-18.5499992
20
46.5
11
-18.5499992
21
46.2118071
0
LINE
8
0
10
-18.5499992
20
46.2118071
11
-18.5499992
21
45.8287107
0
LINE
8
0
10
-18.5499992
20
45.8287107
11
-18.5499992
21
45.7933846
0
LINE
8
0
10
-18.5499992
20
45.7933846
11
-18.5499992
21
45.7203066
0
LINE
8
0
10
-18.5499992
20
45.7203066
11
-18.5499992
21
45.6112514
0
LINE
8
0
10
-18.5499992
20
45.6112514
11
-18.5499992
21
45.4710129
0
LINE
8
0
10
-18.5499992
20
45.4710129
11
-18.5499992
21
41.6985386
0
LINE
8
0
10
-18.5499992
20
41.6985386
11
-18.5499992
21
41.6748094
0
LINE
8
0
10
-18.5499992
20
41.6748094
11
-18.5499992
21
41.6455997
0
LINE
8
0
10
-18.5499992
20
41.6455997
11
-18.5499992
21
40.7556097
0
LINE
8
0
10
-18.5499992
20
40.7556097
11
-12.7652158
21
40.7556097
0
LINE
8
0
10
-12.7652158
20
40.7556097
11
-11.6751944
21
40.7556097
0
LINE
8
0
10
-11.6751944
20
40.7556097
11
-11.6751944
21
41.5
0
LINE
8
0
10
-11.6751944
20
41.5
11
-10.9631853
21
41.5
0
LINE
8
0
10
-10.9631853
20
41.5
11
-8.32480551
21
41.5
0
LINE
8
0
10
-8.32480551
20
41.5
11
-8.32480551
21
40.7556097
0
LINE
8
0
10
-8.32480551
20
40.7556097
11
-5.65429757
21
40.7556097
0
LINE
8
0
10
-5.65429757
20
40.7556097
11
8.32480551
21
40.7556097
0
LINE
8
0
10
8.32480551
20
40.7556097
11
8.32480551
21
41.5
0
LINE
8
0
10
8.32480551
20
41.5
11
9.03681466
21
41.5
0
LINE
8
0
10
9.03681466
20
41.5
11
9.03681466
21
41.5
0
ENDSEC
0
EOF
