0
SECTION
2
ENTITIES
0
LINE
8
0
10
-12.2981861
20
46.5
11
-12.5409261
21
46.5
0
LINE
8
0
10
-12.5409261
20
46.5
11
-12.7116505
21
46.5
0
LINE
8
0
10
-12.7116505
20
46.5
11
-17.0296819
21
46.5
0
LINE
8
0
10
-17.0296819
20
46.5
11
-18.5499992
21
46.5
0
LINE
8
0
10
-18.5499992
20
46.5
11
-18.5499992
21
46.2009319
0
LINE
8
0
10
-18.5499992
20
46.2009319
11
-18.5499992
21
45.8033791
0
LINE
8
0
10
-18.5499992
20
45.8033791
11
-18.5499992
21
45.7667198
0
LINE
8
0
10
-18.5499992
20
45.7667198
11
-18.5499992
21
45.6908842
0
LINE
8
0
10
-18.5499992
20
45.6908842
11
-18.5499992
21
45.5777137
0
LINE
8
0
10
-18.5499992
20
45.5777137
11
-18.5499992
21
45.4321832
0
LINE
8
0
10
-18.5499992
20
45.4321832
11
-18.5499992
21
41.7624338
0
LINE
8
0
10
-18.5499992
20
41.7624338
11
-18.5499992
21
41.7310678
0
LINE
8
0
10
-18.5499992
20
41.7310678
11
-18.5499992
21
41.6924576
0
LINE
8
0
10
-18.5499992
20
41.6924576
11
-18.5499992
21
40.5160445
0
LINE
8
0
10
-18.5499992
20
40.5160445
11
-12.6024376
21
40.5160445
0
LINE
8
0
10
-12.6024376
20
40.5160445
11
-9.88981631
21
40.5160445
0
LINE
8
0
10
-9.88981631
20
40.5160445
11
-5.18222538
21
40.5160445
0
LINE
8
0
10
-5.18222538
20
40.5160445
11
9.19023633
21
40.5160445
0
LINE
8
0
10
9.19023633
20
40.5160445
11
11.9028576
21
40.5160445
0
LINE
8
0
10
11.9028576
20
40.5160445
11
13.75
21
40.5160445
0
LINE
8
0
10
13.75
20
40.5160445
11
13.75
21
42.1652023
0
LINE
8
0
10
13.75
20
42.1652023
11
13.75
21
46.5
0
LINE
8
0
10
13.75
20
46.5
11
12.0544813
21
46.5
0
LINE
8
0
10
12.0544813
20
46.5
11
11.8646513
21
46.5
0
LINE
8
0
10
11.8646513
20
46.5
11
11.6092768
21
46.5
0
LINE
8
0
10
11.6092768
20
46.5
11
11.3038705
21
46.5
0
LINE
8
0
10
11.3038705
20
46.5
11
10.972957
21
46.5
0
LINE
8
0
10
10.972957
20
46.5
11
10.6474404
21
46.5
0
LINE
8
0
10
10.6474404
20
46.5
11
10.3594282
21
46.5
0
LINE
8
0
10
10.3594282
20
46.5
11
10.1360924
21
46.5
0
LINE
8
0
10
10.1360924
20
46.5
11
9.99488633
21
46.5
0
LINE
8
0
10
9.99488633
20
46.5
11
-4.11295485
21
46.5
0
LINE
8
0
10
-4.11295485
20
46.5
11
-10.3798855
21
46.5
0
LINE
8
0
10
-10.3798855
20
46.5
11
-10.4816836
21
46.5
0
LINE
8
0
10
-10.4816836
20
46.5
11
-10.6792007
21
46.5
0
LINE
8
0
10
-10.6792007
20
46.5
11
-10.9582118
21
46.5
0
LINE
8
0
10
-10.9582118
20
46.5
11
-11.2927295
21
46.5
0
LINE
8
0
10
-11.2927295
20
46.5
11
-11.6494616
21
46.5
0
LINE
8
0
10
-11.6494616
20
46.5
11
-11.994276
21
46.5
0
LINE
8
0
10
-11.994276
20
46.5
11
-12.2981861
21
46.5
0
LINE
8
0
10
-12.2981861
20
46.5
11
-12.2981861
21
46.5
0
LINE
8
0
10
-12.2981861
20
-1.10000002
11
-12.5409261
21
-1.10000002
0
LINE
8
0
10
-12.5409261
20
-1.10000002
11
-12.7116505
21
-1.10000002
0
LINE
8
0
10
-12.7116505
20
-1.10000002
11
-17.0296819
21
-1.10000002
0
LINE
8
0
10
-17.0296819
20
-1.10000002
11
-18.0805426
21
-1.10000002
0
LINE
8
0
10
-18.0805426
20
-1.10000002
11
-18.5499992
21
-1.10000002
0
LINE
8
0
10
-18.5499992
20
-1.10000002
11
-18.5499992
21
-0.768303246
0
LINE
8
0
10
-18.5499992
20
-0.768303246
11
-18.5499992
21
-0.731765745
0
LINE
8
0
10
-18.5499992
20
-0.731765745
11
-18.5499992
21
-0.148142666
0
LINE
8
0
10
-18.5499992
20
-0.148142666
11
-18.5499992
21
-0.085849197
0
LINE
8
0
10
-18.5499992
20
-0.085849197
11
-18.5499992
21
0.0148431206
0
LINE
8
0
10
-18.5499992
20
0.0148431206
11
-18.5499992
21
0.150188246
0
LINE
8
0
10
-18.5499992
20
0.150188246
11
-18.5499992
21
3.77611824
0
LINE
8
0
10
-18.5499992
20
3.77611824
11
-18.5499992
21
3.80436428
0
LINE
8
0
10
-18.5499992
20
3.80436428
11
-18.5499992
21
3.84057183
0
LINE
8
0
10
-18.5499992
20
3.84057183
11
-18.5499992
21
4.98395547
0
LINE
8
0
10
-18.5499992
20
4.98395547
11
-12.6024376
21
4.98395547
0
LINE
8
0
10
-12.6024376
20
4.98395547
11
-9.88981631
21
4.98395547
0
LINE
8
0
10
-9.88981631
20
4.98395547
11
-5.18222538
21
4.98395547
0
LINE
8
0
10
-5.18222538
20
4.98395547
11
9.19023633
21
4.98395547
0
LINE
8
0
10
9.19023633
20
4.98395547
11
11.9028576
21
4.98395547
0
LINE
8
0
10
11.9028576
20
4.98395547
11
13.75
21
4.98395547
0
LINE
8
0
10
13.75
20
4.98395547
11
13.75
21
3.32149363
0
LINE
8
0
10
13.75
20
3.32149363
11
13.75
21
-1.10000002
0
LINE
8
0
10
13.75
20
-1.10000002
11
12.0544813
21
-1.10000002
0
LINE
8
0
10
12.0544813
20
-1.10000002
11
11.8646513
21
-1.10000002
0
LINE
8
0
10
11.8646513
20
-1.10000002
11
11.6092768
21
-1.10000002
0
LINE
8
0
10
11.6092768
20
-1.10000002
11
11.3038705
21
-1.10000002
0
LINE
8
0
10
11.3038705
20
-1.10000002
11
10.972957
21
-1.10000002
0
LINE
8
0
10
10.972957
20
-1.10000002
11
10.6474404
21
-1.10000002
0
LINE
8
0
10
10.6474404
20
-1.10000002
11
10.3594282
21
-1.10000002
0
LINE
8
0
10
10.3594282
20
-1.10000002
11
10.1360924
21
-1.10000002
0
LINE
8
0
10
10.1360924
20
-1.10000002
11
9.99488633
21
-1.10000002
0
LINE
8
0
10
9.99488633
20
-1.10000002
11
-4.11295485
21
-1.10000002
0
LINE
8
0
10
-4.11295485
20
-1.10000002
11
-10.3798855
21
-1.10000002
0
LINE
8
0
10
-10.3798855
20
-1.10000002
11
-10.4816836
21
-1.10000002
0
LINE
8
0
10
-10.4816836
20
-1.10000002
11
-10.6792007
21
-1.10000002
0
LINE
8
0
10
-10.6792007
20
-1.10000002
11
-10.9582118
21
-1.10000002
0
LINE
8
0
10
-10.9582118
20
-1.10000002
11
-11.2927295
21
-1.10000002
0
LINE
8
0
10
-11.2927295
20
-1.10000002
11
-11.6494616
21
-1.10000002
0
LINE
8
0
10
-11.6494616
20
-1.10000002
11
-11.994276
21
-1.10000002
0
LINE
8
0
10
-11.994276
20
-1.10000002
11
-12.2981861
21
-1.10000002
0
LINE
8
0
10
-12.2981861
20
-1.10000002
11
-12.2981861
21
-1.10000002
0
ENDSEC
0
EOF
