0
SECTION
2
ENTITIES
0
LINE
8
0
10
12.3957248
20
5.46308589
11
13.4238273
21
5.46308589
0
LINE
8
0
10
13.4238273
20
5.46308589
11
13.6178687
21
5.46308589
0
LINE
8
0
10
13.6178687
20
5.46308589
11
13.75
21
5.46308589
0
LINE
8
0
10
13.75
20
5.46308589
11
13.75
21
2.99109956
0
LINE
8
0
10
13.75
20
2.99109956
11
13.75
21
-1.10000002
0
LINE
8
0
10
13.75
20
-1.10000002
11
12.1811782
21
-1.10000002
0
LINE
8
0
10
12.1811782
20
-1.10000002
11
12.0055331
21
-1.10000002
0
LINE
8
0
10
12.0055331
20
-1.10000002
11
11.7692414
21
-1.10000002
0
LINE
8
0
10
11.7692414
20
-1.10000002
11
11.4866564
21
-1.10000002
0
LINE
8
0
10
11.4866564
20
-1.10000002
11
11.1804703
21
-1.10000002
0
LINE
8
0
10
11.1804703
20
-1.10000002
11
10.8792777
21
-1.10000002
0
LINE
8
0
10
10.8792777
20
-1.10000002
11
10.6127871
21
-1.10000002
0
LINE
8
0
10
10.6127871
20
-1.10000002
11
10.40614
21
-1.10000002
0
LINE
8
0
10
10.40614
20
-1.10000002
11
10.2754855
21
-1.10000002
0
LINE
8
0
10
10.2754855
20
-1.10000002
11
-2.77815383
21
-1.10000002
0
LINE
8
0
10
-2.77815383
20
-1.10000002
11
-10.7662199
21
-1.10000002
0
LINE
8
0
10
-10.7662199
20
-1.10000002
11
-10.8604112
21
-1.10000002
0
LINE
8
0
10
-10.8604112
20
-1.10000002
11
-11.043169
21
-1.10000002
0
LINE
8
0
10
-11.043169
20
-1.10000002
11
-11.3013311
21
-1.10000002
0
LINE
8
0
10
-11.3013311
20
-1.10000002
11
-11.6108521
21
-1.10000002
0
LINE
8
0
10
-11.6108521
20
-1.10000002
11
-11.9409275
21
-1.10000002
0
LINE
8
0
10
-11.9409275
20
-1.10000002
11
-12.2599758
21
-1.10000002
0
LINE
8
0
10
-12.2599758
20
-1.10000002
11
-12.5411764
21
-1.10000002
0
LINE
8
0
10
-12.5411764
20
-1.10000002
11
-12.7657778
21
-1.10000002
0
LINE
8
0
10
-12.7657778
20
-1.10000002
11
-12.9237448
21
-1.10000002
0
LINE
8
0
10
-12.9237448
20
-1.10000002
11
-16.9191134
21
-1.10000002
0
LINE
8
0
10
-16.9191134
20
-1.10000002
11
-18.0464003
21
-1.10000002
0
LINE
8
0
10
-18.0464003
20
-1.10000002
11
-18.5499992
21
-1.10000002
0
LINE
8
0
10
-18.5499992
20
-1.10000002
11
-18.5499992
21
-0.744179844
0
LINE
8
0
10
-18.5499992
20
-0.744179844
11
-18.5499992
21
-0.70498507
0
LINE
8
0
10
-18.5499992
20
-0.70498507
11
-18.5499992
21
-0.0789166762
0
LINE
8
0
10
-18.5499992
20
-0.0789166762
11
-18.5499992
21
-0.0120927732
0
LINE
8
0
10
-18.5499992
20
-0.0120927732
11
-18.5499992
21
0.0959226221
0
LINE
8
0
10
-18.5499992
20
0.0959226221
11
-18.5499992
21
0.241111029
0
LINE
8
0
10
-18.5499992
20
0.241111029
11
-18.5499992
21
3.66710054
0
LINE
8
0
10
-18.5499992
20
3.66710054
11
-18.5499992
21
3.7091008
0
LINE
8
0
10
-18.5499992
20
3.7091008
11
-18.5499992
21
3.76293936
0
LINE
8
0
10
-18.5499992
20
3.76293936
11
-18.5499992
21
5.46308589
0
LINE
8
0
10
-18.5499992
20
5.46308589
11
-18.1245535
21
5.46308589
0
LINE
8
0
10
-18.1245535
20
5.46308589
11
-17.9305121
21
5.46308589
0
LINE
8
0
10
-17.9305121
20
5.46308589
11
12.3957248
21
5.46308589
0
LINE
8
0
10
12.3957248
20
5.46308589
11
12.3957248
21
5.46308589
0
LINE
8
0
10
12.3957248
20
40.0369141
11
13.4238273
21
40.0369141
0
LINE
8
0
10
13.4238273
20
40.0369141
11
13.6178687
21
40.0369141
0
LINE
8
0
10
13.6178687
20
40.0369141
11
13.75
21
40.0369141
0
LINE
8
0
10
13.75
20
40.0369141
11
13.75
21
42.4891181
0
LINE
8
0
10
13.75
20
42.4891181
11
13.75
21
46.5
0
LINE
8
0
10
13.75
20
46.5
11
12.1811782
21
46.5
0
LINE
8
0
10
12.1811782
20
46.5
11
12.0055331
21
46.5
0
LINE
8
0
10
12.0055331
20
46.5
11
11.7692414
21
46.5
0
LINE
8
0
10
11.7692414
20
46.5
11
11.4866564
21
46.5
0
LINE
8
0
10
11.4866564
20
46.5
11
11.1804703
21
46.5
0
LINE
8
0
10
11.1804703
20
46.5
11
10.8792777
21
46.5
0
LINE
8
0
10
10.8792777
20
46.5
11
10.6127871
21
46.5
0
LINE
8
0
10
10.6127871
20
46.5
11
10.40614
21
46.5
0
LINE
8
0
10
10.40614
20
46.5
11
10.2754855
21
46.5
0
LINE
8
0
10
10.2754855
20
46.5
11
-2.77815383
21
46.5
0
LINE
8
0
10
-2.77815383
20
46.5
11
-10.7662199
21
46.5
0
LINE
8
0
10
-10.7662199
20
46.5
11
-10.8604112
21
46.5
0
LINE
8
0
10
-10.8604112
20
46.5
11
-11.043169
21
46.5
0
LINE
8
0
10
-11.043169
20
46.5
11
-11.3013311
21
46.5
0
LINE
8
0
10
-11.3013311
20
46.5
11
-11.6108521
21
46.5
0
LINE
8
0
10
-11.6108521
20
46.5
11
-11.9409275
21
46.5
0
LINE
8
0
10
-11.9409275
20
46.5
11
-12.2599758
21
46.5
0
LINE
8
0
10
-12.2599758
20
46.5
11
-12.5411764
21
46.5
0
LINE
8
0
10
-12.5411764
20
46.5
11
-12.7657778
21
46.5
0
LINE
8
0
10
-12.7657778
20
46.5
11
-12.9237448
21
46.5
0
LINE
8
0
10
-12.9237448
20
46.5
11
-16.9191134
21
46.5
0
LINE
8
0
10
-16.9191134
20
46.5
11
-18.5499992
21
46.5
0
LINE
8
0
10
-18.5499992
20
46.5
11
-18.5499992
21
46.1791815
0
LINE
8
0
10
-18.5499992
20
46.1791815
11
-18.5499992
21
45.7527157
0
LINE
8
0
10
-18.5499992
20
45.7527157
11
-18.5499992
21
45.7133904
0
LINE
8
0
10
-18.5499992
20
45.7133904
11
-18.5499992
21
45.6320394
0
LINE
8
0
10
-18.5499992
20
45.6320394
11
-18.5499992
21
45.5106384
0
LINE
8
0
10
-18.5499992
20
45.5106384
11
-18.5499992
21
45.3545237
0
LINE
8
0
10
-18.5499992
20
45.3545237
11
-18.5499992
21
41.8902242
0
LINE
8
0
10
-18.5499992
20
41.8902242
11
-18.5499992
21
41.8435848
0
LINE
8
0
10
-18.5499992
20
41.8435848
11
-18.5499992
21
41.7861736
0
LINE
8
0
10
-18.5499992
20
41.7861736
11
-18.5499992
21
40.0369141
0
LINE
8
0
10
-18.5499992
20
40.0369141
11
-18.1245535
21
40.0369141
0
LINE
8
0
10
-18.1245535
20
40.0369141
11
-17.9305121
21
40.0369141
0
LINE
8
0
10
-17.9305121
20
40.0369141
11
12.3957248
21
40.0369141
0
LINE
8
0
10
12.3957248
20
40.0369141
11
12.3957248
21
40.0369141
0
ENDSEC
0
EOF
