0
SECTION
2
ENTITIES
0
LINE
8
0
10
-16.8395141
20
46.5
11
-16.6116091
21
46.5
0
LINE
8
0
10
-16.6116091
20
46.5
11
-16.3308856
21
46.5
0
LINE
8
0
10
-16.3308856
20
46.5
11
-16.0150944
21
46.5
0
LINE
8
0
10
-16.0150944
20
46.5
11
-15.7028497
21
46.5
0
LINE
8
0
10
-15.7028497
20
46.5
11
-15.4501365
21
46.5
0
LINE
8
0
10
-15.4501365
20
46.5
11
-15.3107504
21
46.5
0
LINE
8
0
10
-15.3107504
20
46.5
11
5.01537071
21
46.5
0
LINE
8
0
10
5.01537071
20
46.5
11
5.49178644
21
46.5
0
LINE
8
0
10
5.49178644
20
46.5
11
12.21846
21
46.5
0
LINE
8
0
10
12.21846
20
46.5
11
12.2901508
21
46.5
0
LINE
8
0
10
12.2901508
20
46.5
11
12.4295369
21
46.5
0
LINE
8
0
10
12.4295369
20
46.5
11
12.6116072
21
46.5
0
LINE
8
0
10
12.6116072
20
46.5
11
12.8018233
21
46.5
0
LINE
8
0
10
12.8018233
20
46.5
11
12.9714347
21
46.5
0
LINE
8
0
10
12.9714347
20
46.5
11
13.1051707
21
46.5
0
LINE
8
0
10
13.1051707
20
46.5
11
13.1997279
21
46.5
0
LINE
8
0
10
13.1997279
20
46.5
11
13.2585933
21
46.5
0
LINE
8
0
10
13.2585933
20
46.5
11
13.2876476
21
46.5
0
LINE
8
0
10
13.2876476
20
46.5
11
13.75
21
46.5
0
LINE
8
0
10
13.75
20
46.5
11
13.75
21
45.7519048
0
LINE
8
0
10
13.75
20
45.7519048
11
13.75
21
41.5
0
LINE
8
0
10
13.75
20
41.5
11
13.4677705
21
41.5
0
LINE
8
0
10
13.4677705
20
41.5
11
13.4063677
21
41.5
0
LINE
8
0
10
13.4063677
20
41.5
11
13.3225863
21
41.5
0
LINE
8
0
10
13.3225863
20
41.5
11
13.2205875
21
41.5
0
LINE
8
0
10
13.2205875
20
41.5
11
13.1139678
21
41.5
0
LINE
8
0
10
13.1139678
20
41.5
11
13.0246895
21
41.5
0
LINE
8
0
10
13.0246895
20
41.5
11
12.9734499
21
41.5
0
LINE
8
0
10
12.9734499
20
41.5
11
9.34708162
21
41.5
0
LINE
8
0
10
9.34708162
20
41.5
11
9.15636677
21
41.5
0
LINE
8
0
10
9.15636677
20
41.5
11
-16.8962914
21
41.5
0
LINE
8
0
10
-16.8962914
20
41.5
11
-17.0099145
21
41.5
0
LINE
8
0
10
-17.0099145
20
41.5
11
-17.1811848
21
41.5
0
LINE
8
0
10
-17.1811848
20
41.5
11
-17.369207
21
41.5
0
LINE
8
0
10
-17.369207
20
41.5
11
-17.5422118
21
41.5
0
LINE
8
0
10
-17.5422118
20
41.5
11
-17.6847048
21
41.5
0
LINE
8
0
10
-17.6847048
20
41.5
11
-18.5499992
21
41.5
0
LINE
8
0
10
-18.5499992
20
41.5
11
-18.5499992
21
41.9251905
0
LINE
8
0
10
-18.5499992
20
41.9251905
11
-18.5499992
21
45.7519048
0
LINE
8
0
10
-18.5499992
20
45.7519048
11
-18.5499992
21
46.364096
0
LINE
8
0
10
-18.5499992
20
46.364096
11
-18.5499992
21
46.3826181
0
LINE
8
0
10
-18.5499992
20
46.3826181
11
-18.5499992
21
46.3970216
0
LINE
8
0
10
-18.5499992
20
46.3970216
11
-18.5499992
21
46.4066734
0
LINE
8
0
10
-18.5499992
20
46.4066734
11
-18.5499992
21
46.4113392
0
LINE
8
0
10
-18.5499992
20
46.4113392
11
-18.5499992
21
46.4619368
0
LINE
8
0
10
-18.5499992
20
46.4619368
11
-18.5499992
21
46.5
0
LINE
8
0
10
-18.5499992
20
46.5
11
-18.3565043
21
46.5
0
LINE
8
0
10
-18.3565043
20
46.5
11
-17.0116359
21
46.5
0
LINE
8
0
10
-17.0116359
20
46.5
11
-16.8395141
21
46.5
0
LINE
8
0
10
-16.8395141
20
46.5
11
-16.8395141
21
46.5
0
LINE
8
0
10
-16.8395141
20
-1.10000002
11
-16.6116091
21
-1.10000002
0
LINE
8
0
10
-16.6116091
20
-1.10000002
11
-16.3308856
21
-1.10000002
0
LINE
8
0
10
-16.3308856
20
-1.10000002
11
-16.0150944
21
-1.10000002
0
LINE
8
0
10
-16.0150944
20
-1.10000002
11
-15.7028497
21
-1.10000002
0
LINE
8
0
10
-15.7028497
20
-1.10000002
11
-15.4501365
21
-1.10000002
0
LINE
8
0
10
-15.4501365
20
-1.10000002
11
-15.3107504
21
-1.10000002
0
LINE
8
0
10
-15.3107504
20
-1.10000002
11
5.01537071
21
-1.10000002
0
LINE
8
0
10
5.01537071
20
-1.10000002
11
5.49178644
21
-1.10000002
0
LINE
8
0
10
5.49178644
20
-1.10000002
11
12.21846
21
-1.10000002
0
LINE
8
0
10
12.21846
20
-1.10000002
11
12.2901508
21
-1.10000002
0
LINE
8
0
10
12.2901508
20
-1.10000002
11
12.4295369
21
-1.10000002
0
LINE
8
0
10
12.4295369
20
-1.10000002
11
12.6116072
21
-1.10000002
0
LINE
8
0
10
12.6116072
20
-1.10000002
11
12.8018233
21
-1.10000002
0
LINE
8
0
10
12.8018233
20
-1.10000002
11
12.9714347
21
-1.10000002
0
LINE
8
0
10
12.9714347
20
-1.10000002
11
13.1051707
21
-1.10000002
0
LINE
8
0
10
13.1051707
20
-1.10000002
11
13.1997279
21
-1.10000002
0
LINE
8
0
10
13.1997279
20
-1.10000002
11
13.2585933
21
-1.10000002
0
LINE
8
0
10
13.2585933
20
-1.10000002
11
13.2876476
21
-1.10000002
0
LINE
8
0
10
13.2876476
20
-1.10000002
11
13.75
21
-1.10000002
0
LINE
8
0
10
13.75
20
-1.10000002
11
13.75
21
-0.336942919
0
LINE
8
0
10
13.75
20
-0.336942919
11
13.75
21
4
0
LINE
8
0
10
13.75
20
4
11
13.4677705
21
4
0
LINE
8
0
10
13.4677705
20
4
11
13.4063677
21
4
0
LINE
8
0
10
13.4063677
20
4
11
13.3225863
21
4
0
LINE
8
0
10
13.3225863
20
4
11
13.2205875
21
4
0
LINE
8
0
10
13.2205875
20
4
11
13.1139678
21
4
0
LINE
8
0
10
13.1139678
20
4
11
13.0246895
21
4
0
LINE
8
0
10
13.0246895
20
4
11
12.9734499
21
4
0
LINE
8
0
10
12.9734499
20
4
11
9.34708162
21
4
0
LINE
8
0
10
9.34708162
20
4
11
9.15636677
21
4
0
LINE
8
0
10
9.15636677
20
4
11
-16.8962914
21
4
0
LINE
8
0
10
-16.8962914
20
4
11
-17.0099145
21
4
0
LINE
8
0
10
-17.0099145
20
4
11
-17.1811848
21
4
0
LINE
8
0
10
-17.1811848
20
4
11
-17.369207
21
4
0
LINE
8
0
10
-17.369207
20
4
11
-17.5422118
21
4
0
LINE
8
0
10
-17.5422118
20
4
11
-17.6847048
21
4
0
LINE
8
0
10
-17.6847048
20
4
11
-18.5499992
21
4
0
LINE
8
0
10
-18.5499992
20
4
11
-18.5499992
21
3.57480952
0
LINE
8
0
10
-18.5499992
20
3.57480952
11
-18.5499992
21
-0.336942919
0
LINE
8
0
10
-18.5499992
20
-0.336942919
11
-18.5499992
21
-0.940885153
0
LINE
8
0
10
-18.5499992
20
-0.940885153
11
-18.5499992
21
-0.958110896
0
LINE
8
0
10
-18.5499992
20
-0.958110896
11
-18.5499992
21
-0.970926282
0
LINE
8
0
10
-18.5499992
20
-0.970926282
11
-18.5499992
21
-0.978854542
0
LINE
8
0
10
-18.5499992
20
-0.978854542
11
-18.5499992
21
-1.05313384
0
LINE
8
0
10
-18.5499992
20
-1.05313384
11
-18.5499992
21
-1.05778407
0
LINE
8
0
10
-18.5499992
20
-1.05778407
11
-18.5499992
21
-1.10000002
0
LINE
8
0
10
-18.5499992
20
-1.10000002
11
-18.4902502
21
-1.10000002
0
LINE
8
0
10
-18.4902502
20
-1.10000002
11
-18.3565043
21
-1.10000002
0
LINE
8
0
10
-18.3565043
20
-1.10000002
11
-17.0116359
21
-1.10000002
0
LINE
8
0
10
-17.0116359
20
-1.10000002
11
-16.8395141
21
-1.10000002
0
LINE
8
0
10
-16.8395141
20
-1.10000002
11
-16.8395141
21
-1.10000002
0
ENDSEC
0
EOF
