0
SECTION
2
ENTITIES
0
LINE
8
0
10
-4.10879989
20
28.5869746
11
-1.76534994
21
26.0839102
0
LINE
8
0
10
-1.76534994
20
26.0839102
11
-1.37500665
21
25.66698
0
LINE
8
0
10
-1.37500665
20
25.66698
11
0.968443144
21
23.1639139
0
LINE
8
0
10
0.968443144
20
23.1639139
11
1.35878642
21
22.746984
0
LINE
8
0
10
1.35878642
20
22.746984
11
3.70223632
21
20.2439179
0
LINE
8
0
10
3.70223632
20
20.2439179
11
4.09257963
21
19.8269877
0
LINE
8
0
10
4.09257963
20
19.8269877
11
6.43602937
21
17.3239217
0
LINE
8
0
10
6.43602937
20
17.3239217
11
6.66433178
21
17.0380731
0
LINE
8
0
10
6.66433178
20
17.0380731
11
6.70453146
21
16.9877403
0
LINE
8
0
10
6.70453146
20
16.9877403
11
6.8853062
21
16.6696968
0
LINE
8
0
10
6.8853062
20
16.6696968
11
6.91713728
21
16.6136953
0
LINE
8
0
10
6.91713728
20
16.6136953
11
7.04593347
21
16.2712868
0
LINE
8
0
10
7.04593347
20
16.2712868
11
7.06861202
21
16.2109951
0
LINE
8
0
10
7.06861202
20
16.2109951
11
7.14225813
21
15.8526543
0
LINE
8
0
10
7.14225813
20
15.8526543
11
7.1552258
21
15.7895574
0
LINE
8
0
10
7.1552258
20
15.7895574
11
7.1719082
21
15.4241076
0
LINE
8
0
10
7.1719082
20
15.4241076
11
7.17484566
21
15.3597589
0
LINE
8
0
10
7.17484566
20
15.3597589
11
7.13415397
21
14.9961991
0
LINE
8
0
10
7.13415397
20
14.9961991
11
7.12698891
21
14.9321831
0
LINE
8
0
10
7.12698891
20
14.9321831
11
7.02992457
21
14.5794651
0
LINE
8
0
10
7.02992457
20
14.5794651
11
7.01283341
21
14.5173581
0
LINE
8
0
10
7.01283341
20
14.5173581
11
6.86178721
21
14.1841662
0
LINE
8
0
10
6.86178721
20
14.1841662
11
6.83519084
21
14.1254974
0
LINE
8
0
10
6.83519084
20
14.1254974
11
6.6338812
21
13.8200369
0
LINE
8
0
10
6.6338812
20
13.8200369
11
6.5984344
21
13.766251
0
LINE
8
0
10
6.5984344
20
13.766251
11
6.35181907
21
13.4960429
0
LINE
8
0
10
6.35181907
20
13.4960429
11
6.30839469
21
13.4484645
0
LINE
8
0
10
6.30839469
20
13.4484645
11
6.02254528
21
13.2201616
0
LINE
8
0
10
6.02254528
20
13.2201616
11
5.97221266
21
13.1799618
0
LINE
8
0
10
5.97221266
20
13.1799618
11
5.6541683
21
12.9991871
0
LINE
8
0
10
5.6541683
20
12.9991871
11
5.59816672
21
12.9673561
0
LINE
8
0
10
5.59816672
20
12.9673561
11
5.25575868
21
12.83856
0
LINE
8
0
10
5.25575868
20
12.83856
11
5.19546713
21
12.8158814
0
LINE
8
0
10
5.19546713
20
12.8158814
11
4.83712675
21
12.7422357
0
LINE
8
0
10
4.83712675
20
12.7422357
11
4.7740297
21
12.729268
0
LINE
8
0
10
4.7740297
20
12.729268
11
4.40857989
21
12.7125852
0
LINE
8
0
10
4.40857989
20
12.7125852
11
4.34423116
21
12.7096477
0
LINE
8
0
10
4.34423116
20
12.7096477
11
3.98067142
21
12.7503398
0
LINE
8
0
10
3.98067142
20
12.7503398
11
3.91665536
21
12.7575048
0
LINE
8
0
10
3.91665536
20
12.7575048
11
3.56393695
21
12.8545687
0
LINE
8
0
10
3.56393695
20
12.8545687
11
3.50182992
21
12.8716599
0
LINE
8
0
10
3.50182992
20
12.8716599
11
3.16863822
21
13.0227061
0
LINE
8
0
10
3.16863822
20
13.0227061
11
3.10996948
21
13.0493026
0
LINE
8
0
10
3.10996948
20
13.0493026
11
2.80450876
21
13.2506122
0
LINE
8
0
10
2.80450876
20
13.2506122
11
2.7507229
21
13.286059
0
LINE
8
0
10
2.7507229
20
13.286059
11
2.4805148
21
13.5326748
0
LINE
8
0
10
2.4805148
20
13.5326748
11
2.43293625
21
13.5760991
0
LINE
8
0
10
2.43293625
20
13.5760991
11
2.04259297
21
13.9930292
0
LINE
8
0
10
2.04259297
20
13.9930292
11
-0.300856924
21
16.4960952
0
LINE
8
0
10
-0.300856924
20
16.4960952
11
-0.691200234
21
16.9130254
0
LINE
8
0
10
-0.691200234
20
16.9130254
11
-3.03465003
21
19.4160898
0
LINE
8
0
10
-3.03465003
20
19.4160898
11
-3.42499331
21
19.83302
0
LINE
8
0
10
-3.42499331
20
19.83302
11
-5.76844305
21
22.3360861
0
LINE
8
0
10
-5.76844305
20
22.3360861
11
-6.15878636
21
22.753016
0
LINE
8
0
10
-6.15878636
20
22.753016
11
-8.5022363
21
25.2560821
0
LINE
8
0
10
-8.5022363
20
25.2560821
11
-8.89257962
21
25.6730123
0
LINE
8
0
10
-8.89257962
20
25.6730123
11
-11.2360296
21
28.1760783
0
LINE
8
0
10
-11.2360296
20
28.1760783
11
-11.4643316
21
28.4619269
0
LINE
8
0
10
-11.4643316
20
28.4619269
11
-11.5045312
21
28.5122597
0
LINE
8
0
10
-11.5045312
20
28.5122597
11
-11.685306
21
28.8303032
0
LINE
8
0
10
-11.685306
20
28.8303032
11
-11.7171371
21
28.8863047
0
LINE
8
0
10
-11.7171371
20
28.8863047
11
-11.8459332
21
29.2287132
0
LINE
8
0
10
-11.8459332
20
29.2287132
11
-11.8686118
21
29.2890049
0
LINE
8
0
10
-11.8686118
20
29.2890049
11
-11.9422583
21
29.6473448
0
LINE
8
0
10
-11.9422583
20
29.6473448
11
-11.9552259
21
29.7104416
0
LINE
8
0
10
-11.9552259
20
29.7104416
11
-11.9719079
21
30.0758923
0
LINE
8
0
10
-11.9719079
20
30.0758923
11
-11.9748454
21
30.140241
0
LINE
8
0
10
-11.9748454
20
30.140241
11
-11.9341541
21
30.5038015
0
LINE
8
0
10
-11.9341541
20
30.5038015
11
-11.9269891
21
30.5678177
0
LINE
8
0
10
-11.9269891
20
30.5678177
11
-11.8299244
21
30.9205349
0
LINE
8
0
10
-11.8299244
20
30.9205349
11
-11.8128331
21
30.982642
0
LINE
8
0
10
-11.8128331
20
30.982642
11
-11.6617869
21
31.3158339
0
LINE
8
0
10
-11.6617869
20
31.3158339
11
-11.6351906
21
31.3745025
0
LINE
8
0
10
-11.6351906
20
31.3745025
11
-11.433881
21
31.679963
0
LINE
8
0
10
-11.433881
20
31.679963
11
-11.3984342
21
31.733749
0
LINE
8
0
10
-11.3984342
20
31.733749
11
-11.1518193
21
32.0039587
0
LINE
8
0
10
-11.1518193
20
32.0039587
11
-11.1083948
21
32.051537
0
LINE
8
0
10
-11.1083948
20
32.051537
11
-10.8225454
21
32.2798366
0
LINE
8
0
10
-10.8225454
20
32.2798366
11
-10.7722128
21
32.3200367
0
LINE
8
0
10
-10.7722128
20
32.3200367
11
-10.4541684
21
32.5008131
0
LINE
8
0
10
-10.4541684
20
32.5008131
11
-10.3981669
21
32.5326441
0
LINE
8
0
10
-10.3981669
20
32.5326441
11
-10.0557585
21
32.6614403
0
LINE
8
0
10
-10.0557585
20
32.6614403
11
-9.99546692
21
32.6841186
0
LINE
8
0
10
-9.99546692
20
32.6841186
11
-9.63712694
21
32.7577659
0
LINE
8
0
10
-9.63712694
20
32.7577659
11
-9.57402989
21
32.7707337
0
LINE
8
0
10
-9.57402989
20
32.7707337
11
-9.20858008
21
32.787414
0
LINE
8
0
10
-9.20858008
20
32.787414
11
-9.14423135
21
32.7903515
0
LINE
8
0
10
-9.14423135
20
32.7903515
11
-8.78067161
21
32.7496594
0
LINE
8
0
10
-8.78067161
20
32.7496594
11
-8.71665555
21
32.7424941
0
LINE
8
0
10
-8.71665555
20
32.7424941
11
-8.36393673
21
32.6454302
0
LINE
8
0
10
-8.36393673
20
32.6454302
11
-8.30182963
21
32.6283392
0
LINE
8
0
10
-8.30182963
20
32.6283392
11
-7.96863814
21
32.4772939
0
LINE
8
0
10
-7.96863814
20
32.4772939
11
-7.90996947
21
32.4506977
0
LINE
8
0
10
-7.90996947
20
32.4506977
11
-7.60450895
21
32.2493889
0
LINE
8
0
10
-7.60450895
20
32.2493889
11
-7.55072306
21
32.2139417
0
LINE
8
0
10
-7.55072306
20
32.2139417
11
-7.28051455
21
31.9673251
0
LINE
8
0
10
-7.28051455
20
31.9673251
11
-7.23293604
21
31.9239011
0
LINE
8
0
10
-7.23293604
20
31.9239011
11
-6.84259272
21
31.5069708
0
LINE
8
0
10
-6.84259272
20
31.5069708
11
-4.49914319
21
29.0039048
0
LINE
8
0
10
-4.49914319
20
29.0039048
11
-4.10879989
21
28.5869746
0
LINE
8
0
10
-4.10879989
20
28.5869746
11
-4.10879989
21
28.5869746
0
LINE
8
0
10
10.9951964
20
46.5
11
10.7394666
21
46.5
0
LINE
8
0
10
10.7394666
20
46.5
11
10.5411638
21
46.5
0
LINE
8
0
10
10.5411638
20
46.5
11
10.415785
21
46.5
0
LINE
8
0
10
10.415785
20
46.5
11
-2.11075332
21
46.5
0
LINE
8
0
10
-2.11075332
20
46.5
11
-10.9593872
21
46.5
0
LINE
8
0
10
-10.9593872
20
46.5
11
-11.049775
21
46.5
0
LINE
8
0
10
-11.049775
20
46.5
11
-11.2251531
21
46.5
0
LINE
8
0
10
-11.2251531
20
46.5
11
-11.4728907
21
46.5
0
LINE
8
0
10
-11.4728907
20
46.5
11
-11.7699134
21
46.5
0
LINE
8
0
10
-11.7699134
20
46.5
11
-12.0866605
21
46.5
0
LINE
8
0
10
-12.0866605
20
46.5
11
-12.3928258
21
46.5
0
LINE
8
0
10
-12.3928258
20
46.5
11
-12.6626715
21
46.5
0
LINE
8
0
10
-12.6626715
20
46.5
11
-12.8782036
21
46.5
0
LINE
8
0
10
-12.8782036
20
46.5
11
-13.029792
21
46.5
0
LINE
8
0
10
-13.029792
20
46.5
11
-16.8638291
21
46.5
0
LINE
8
0
10
-16.8638291
20
46.5
11
-18.5499992
21
46.5
0
LINE
8
0
10
-18.5499992
20
46.5
11
-18.5499992
21
46.1683063
0
LINE
8
0
10
-18.5499992
20
46.1683063
11
-18.5499992
21
45.7273841
0
LINE
8
0
10
-18.5499992
20
45.7273841
11
-18.5499992
21
45.6867256
0
LINE
8
0
10
-18.5499992
20
45.6867256
11
-18.5499992
21
45.6026171
0
LINE
8
0
10
-18.5499992
20
45.6026171
11
-18.5499992
21
45.4771007
0
LINE
8
0
10
-18.5499992
20
45.4771007
11
-18.5499992
21
45.315694
0
LINE
8
0
10
-18.5499992
20
45.315694
11
-18.5499992
21
41.9541193
0
LINE
8
0
10
-18.5499992
20
41.9541193
11
-18.5499992
21
41.8998432
0
LINE
8
0
10
-18.5499992
20
41.8998432
11
-18.5499992
21
41.8330315
0
LINE
8
0
10
-18.5499992
20
41.8330315
11
-18.5499992
21
40.0866993
0
LINE
8
0
10
-18.5499992
20
40.0866993
11
-18.5499992
21
40.0762882
0
LINE
8
0
10
-18.5499992
20
40.0762882
11
-18.5499992
21
40.0651581
0
LINE
8
0
10
-18.5499992
20
40.0651581
11
-18.5499992
21
40.0543019
0
LINE
8
0
10
-18.5499992
20
40.0543019
11
-18.5499992
21
40.0446084
0
LINE
8
0
10
-18.5499992
20
40.0446084
11
-18.5499992
21
40.0125291
0
LINE
8
0
10
-18.5499992
20
40.0125291
11
-18.5499992
21
39.7391661
0
LINE
8
0
10
-18.5499992
20
39.7391661
11
-18.5499992
21
39.6804667
0
LINE
8
0
10
-18.5499992
20
39.6804667
11
-18.5499992
21
39.5136421
0
LINE
8
0
10
-18.5499992
20
39.5136421
11
-18.5499992
21
5.89909573
0
LINE
8
0
10
-18.5499992
20
5.89909573
11
-18.5499992
21
5.70417658
0
LINE
8
0
10
-18.5499992
20
5.70417658
11
-18.5499992
21
5.51374859
0
LINE
8
0
10
-18.5499992
20
5.51374859
11
-18.5499992
21
5.43151618
0
LINE
8
0
10
-18.5499992
20
5.43151618
11
-18.5499992
21
5.42170089
0
LINE
8
0
10
-18.5499992
20
5.42170089
11
-18.5499992
21
3.72412313
0
LINE
8
0
10
-18.5499992
20
3.72412313
11
-18.5499992
21
3.66146906
0
LINE
8
0
10
-18.5499992
20
3.66146906
11
-18.5499992
21
3.61259169
0
LINE
8
0
10
-18.5499992
20
3.61259169
11
-18.5499992
21
0.286572421
0
LINE
8
0
10
-18.5499992
20
0.286572421
11
-18.5499992
21
0.136462373
0
LINE
8
0
10
-18.5499992
20
0.136462373
11
-18.5499992
21
0.0247854387
0
LINE
8
0
10
-18.5499992
20
0.0247854387
11
-18.5499992
21
-0.0443036813
0
LINE
8
0
10
-18.5499992
20
-0.0443036813
11
-18.5499992
21
-0.691594732
0
LINE
8
0
10
-18.5499992
20
-0.691594732
11
-18.5499992
21
-0.732118143
0
LINE
8
0
10
-18.5499992
20
-0.732118143
11
-18.5499992
21
-1.10000002
0
LINE
8
0
10
-18.5499992
20
-1.10000002
11
-18.0293292
21
-1.10000002
0
LINE
8
0
10
-18.0293292
20
-1.10000002
11
-16.8638291
21
-1.10000002
0
LINE
8
0
10
-16.8638291
20
-1.10000002
11
-13.029792
21
-1.10000002
0
LINE
8
0
10
-13.029792
20
-1.10000002
11
-12.8782036
21
-1.10000002
0
LINE
8
0
10
-12.8782036
20
-1.10000002
11
-12.6626715
21
-1.10000002
0
LINE
8
0
10
-12.6626715
20
-1.10000002
11
-12.3928258
21
-1.10000002
0
LINE
8
0
10
-12.3928258
20
-1.10000002
11
-12.0866605
21
-1.10000002
0
LINE
8
0
10
-12.0866605
20
-1.10000002
11
-11.7699134
21
-1.10000002
0
LINE
8
0
10
-11.7699134
20
-1.10000002
11
-11.4728907
21
-1.10000002
0
LINE
8
0
10
-11.4728907
20
-1.10000002
11
-11.2251531
21
-1.10000002
0
LINE
8
0
10
-11.2251531
20
-1.10000002
11
-11.049775
21
-1.10000002
0
LINE
8
0
10
-11.049775
20
-1.10000002
11
-10.9593872
21
-1.10000002
0
LINE
8
0
10
-10.9593872
20
-1.10000002
11
-2.11075332
21
-1.10000002
0
LINE
8
0
10
-2.11075332
20
-1.10000002
11
10.415785
21
-1.10000002
0
LINE
8
0
10
10.415785
20
-1.10000002
11
10.5411638
21
-1.10000002
0
LINE
8
0
10
10.5411638
20
-1.10000002
11
10.7394666
21
-1.10000002
0
LINE
8
0
10
10.7394666
20
-1.10000002
11
10.9951964
21
-1.10000002
0
LINE
8
0
10
10.9951964
20
-1.10000002
11
11.2842269
21
-1.10000002
0
LINE
8
0
10
11.2842269
20
-1.10000002
11
11.5780493
21
-1.10000002
0
LINE
8
0
10
11.5780493
20
-1.10000002
11
11.8492236
21
-1.10000002
0
LINE
8
0
10
11.8492236
20
-1.10000002
11
12.075974
21
-1.10000002
0
LINE
8
0
10
12.075974
20
-1.10000002
11
12.2445266
21
-1.10000002
0
LINE
8
0
10
12.2445266
20
-1.10000002
11
13.75
21
-1.10000002
0
LINE
8
0
10
13.75
20
-1.10000002
11
13.75
21
2.82590253
0
LINE
8
0
10
13.75
20
2.82590253
11
13.75
21
5.27314834
0
LINE
8
0
10
13.75
20
5.27314834
11
13.75
21
6.90923001
0
LINE
8
0
10
13.75
20
6.90923001
11
13.75
21
40.2234145
0
LINE
8
0
10
13.75
20
40.2234145
11
13.75
21
42.6510759
0
LINE
8
0
10
13.75
20
42.6510759
11
13.75
21
46.5
0
LINE
8
0
10
13.75
20
46.5
11
12.2445266
21
46.5
0
LINE
8
0
10
12.2445266
20
46.5
11
12.075974
21
46.5
0
LINE
8
0
10
12.075974
20
46.5
11
11.8492236
21
46.5
0
LINE
8
0
10
11.8492236
20
46.5
11
11.5780493
21
46.5
0
LINE
8
0
10
11.5780493
20
46.5
11
11.2842269
21
46.5
0
LINE
8
0
10
11.2842269
20
46.5
11
10.9951964
21
46.5
0
LINE
8
0
10
10.9951964
20
46.5
11
10.9951964
21
46.5
0
LINE
8
0
10
-4.97916668
20
11.0295718
11
-5.04127371
21
11.0466629
0
LINE
8
0
10
-5.04127371
20
11.0466629
11
-5.3744652
21
11.1977091
0
LINE
8
0
10
-5.3744652
20
11.1977091
11
-5.43313401
21
11.2243055
0
LINE
8
0
10
-5.43313401
20
11.2243055
11
-5.73859494
21
11.4256151
0
LINE
8
0
10
-5.73859494
20
11.4256151
11
-5.79238076
21
11.4610619
0
LINE
8
0
10
-5.79238076
20
11.4610619
11
-6.06258886
21
11.7076769
0
LINE
8
0
10
-6.06258886
20
11.7076769
11
-6.11016737
21
11.7511012
0
LINE
8
0
10
-6.11016737
20
11.7511012
11
-6.43545354
21
12.0985431
0
LINE
8
0
10
-6.43545354
20
12.0985431
11
-8.38832849
21
14.1844317
0
LINE
8
0
10
-8.38832849
20
14.1844317
11
-8.71361445
21
14.5318733
0
LINE
8
0
10
-8.71361445
20
14.5318733
11
-10.6664894
21
16.6177611
0
LINE
8
0
10
-10.6664894
20
16.6177611
11
-10.9917755
21
16.965203
0
LINE
8
0
10
-10.9917755
20
16.965203
11
-12.9446505
21
19.0510917
0
LINE
8
0
10
-12.9446505
20
19.0510917
11
-13.1729525
21
19.3369403
0
LINE
8
0
10
-13.1729525
20
19.3369403
11
-13.2131523
21
19.387273
0
LINE
8
0
10
-13.2131523
20
19.387273
11
-13.393927
21
19.7053166
0
LINE
8
0
10
-13.393927
20
19.7053166
11
-13.425758
21
19.7613181
0
LINE
8
0
10
-13.425758
20
19.7613181
11
-13.5545541
21
20.1037265
0
LINE
8
0
10
-13.5545541
20
20.1037265
11
-13.5772327
21
20.1640182
0
LINE
8
0
10
-13.5772327
20
20.1640182
11
-13.6508784
21
20.5223582
0
LINE
8
0
10
-13.6508784
20
20.5223582
11
-13.6638461
21
20.585455
0
LINE
8
0
10
-13.6638461
20
20.585455
11
-13.6805289
21
20.9509056
0
LINE
8
0
10
-13.6805289
20
20.9509056
11
-13.6834664
21
21.0152543
0
LINE
8
0
10
-13.6834664
20
21.0152543
11
-13.6427743
21
21.3788133
0
LINE
8
0
10
-13.6427743
20
21.3788133
11
-13.6356093
21
21.4428295
0
LINE
8
0
10
-13.6356093
20
21.4428295
11
-13.5385454
21
21.7955483
0
LINE
8
0
10
-13.5385454
20
21.7955483
11
-13.5214541
21
21.8576554
0
LINE
8
0
10
-13.5214541
20
21.8576554
11
-13.3704079
21
22.1908473
0
LINE
8
0
10
-13.3704079
20
22.1908473
11
-13.3438115
21
22.2495158
0
LINE
8
0
10
-13.3438115
20
22.2495158
11
-13.1425019
21
22.5549763
0
LINE
8
0
10
-13.1425019
20
22.5549763
11
-13.1070551
21
22.6087624
0
LINE
8
0
10
-13.1070551
20
22.6087624
11
-12.8604393
21
22.8789704
0
LINE
8
0
10
-12.8604393
20
22.8789704
11
-12.817015
21
22.926549
0
LINE
8
0
10
-12.817015
20
22.926549
11
-12.5311664
21
23.1548519
0
LINE
8
0
10
-12.5311664
20
23.1548519
11
-12.4808338
21
23.1950514
0
LINE
8
0
10
-12.4808338
20
23.1950514
11
-12.1627894
21
23.3758261
0
LINE
8
0
10
-12.1627894
20
23.3758261
11
-12.1067879
21
23.4076572
0
LINE
8
0
10
-12.1067879
20
23.4076572
11
-11.7643795
21
23.5364534
0
LINE
8
0
10
-11.7643795
20
23.5364534
11
-11.7040878
21
23.559132
0
LINE
8
0
10
-11.7040878
20
23.559132
11
-11.345747
21
23.6327777
0
LINE
8
0
10
-11.345747
20
23.6327777
11
-11.2826501
21
23.6457454
0
LINE
8
0
10
-11.2826501
20
23.6457454
11
-10.9172011
21
23.6624274
0
LINE
8
0
10
-10.9172011
20
23.6624274
11
-10.8528522
21
23.6653648
0
LINE
8
0
10
-10.8528522
20
23.6653648
11
-10.4892917
21
23.6246744
0
LINE
8
0
10
-10.4892917
20
23.6246744
11
-10.4252758
21
23.6175094
0
LINE
8
0
10
-10.4252758
20
23.6175094
11
-10.0725578
21
23.5204438
0
LINE
8
0
10
-10.0725578
20
23.5204438
11
-10.0104507
21
23.5033526
0
LINE
8
0
10
-10.0104507
20
23.5033526
11
-9.67725875
21
23.3523072
0
LINE
8
0
10
-9.67725875
20
23.3523072
11
-9.61858995
21
23.3257108
0
LINE
8
0
10
-9.61858995
20
23.3257108
11
-9.31312943
21
23.1244003
0
LINE
8
0
10
-9.31312943
20
23.1244003
11
-9.25934367
21
23.0889536
0
LINE
8
0
10
-9.25934367
20
23.0889536
11
-8.98913558
21
22.8423387
0
LINE
8
0
10
-8.98913558
20
22.8423387
11
-8.94155699
21
22.7989144
0
LINE
8
0
10
-8.94155699
20
22.7989144
11
-8.6162709
21
22.4514725
0
LINE
8
0
10
-8.6162709
20
22.4514725
11
-6.66339594
21
20.3655839
0
LINE
8
0
10
-6.66339594
20
20.3655839
11
-6.33810992
21
20.018142
0
LINE
8
0
10
-6.33810992
20
20.018142
11
-4.38523496
21
17.932255
0
LINE
8
0
10
-4.38523496
20
17.932255
11
-4.05994887
21
17.5848132
0
LINE
8
0
10
-4.05994887
20
17.5848132
11
-2.10707412
21
15.4989246
0
LINE
8
0
10
-2.10707412
20
15.4989246
11
-1.87877181
21
15.213076
0
LINE
8
0
10
-1.87877181
20
15.213076
11
-1.83857207
21
15.1627434
0
LINE
8
0
10
-1.83857207
20
15.1627434
11
-1.65779722
21
14.844699
0
LINE
8
0
10
-1.65779722
20
14.844699
11
-1.62596619
21
14.7886975
0
LINE
8
0
10
-1.62596619
20
14.7886975
11
-1.49717011
21
14.446289
0
LINE
8
0
10
-1.49717011
20
14.446289
11
-1.47449155
21
14.3859975
0
LINE
8
0
10
-1.47449155
20
14.3859975
11
-1.40084544
21
14.0276575
0
LINE
8
0
10
-1.40084544
20
14.0276575
11
-1.38787776
21
13.9645605
0
LINE
8
0
10
-1.38787776
20
13.9645605
11
-1.37119526
21
13.5991107
0
LINE
8
0
10
-1.37119526
20
13.5991107
11
-1.36825778
21
13.5347619
0
LINE
8
0
10
-1.36825778
20
13.5347619
11
-1.40894957
21
13.1712022
0
LINE
8
0
10
-1.40894957
20
13.1712022
11
-1.41611463
21
13.1071861
0
LINE
8
0
10
-1.41611463
20
13.1071861
11
-1.51317877
21
12.7544673
0
LINE
8
0
10
-1.51317877
20
12.7544673
11
-1.53026993
21
12.6923602
0
LINE
8
0
10
-1.53026993
20
12.6923602
11
-1.68131644
21
12.3591683
0
LINE
8
0
10
-1.68131644
20
12.3591683
11
-1.70791286
21
12.3004996
0
LINE
8
0
10
-1.70791286
20
12.3004996
11
-1.90922229
21
11.9950391
0
LINE
8
0
10
-1.90922229
20
11.9950391
11
-1.94466907
21
11.9412532
0
LINE
8
0
10
-1.94466907
20
11.9412532
11
-2.19128461
21
11.6710451
0
LINE
8
0
10
-2.19128461
20
11.6710451
11
-2.23470894
21
11.6234666
0
LINE
8
0
10
-2.23470894
20
11.6234666
11
-2.52055814
21
11.3951646
0
LINE
8
0
10
-2.52055814
20
11.3951646
11
-2.57089079
21
11.3549649
0
LINE
8
0
10
-2.57089079
20
11.3549649
11
-2.88893516
21
11.1741901
0
LINE
8
0
10
-2.88893516
20
11.1741901
11
-2.94493674
21
11.1423591
0
LINE
8
0
10
-2.94493674
20
11.1423591
11
-3.28734478
21
11.0135629
0
LINE
8
0
10
-3.28734478
20
11.0135629
11
-3.34763636
21
10.9908843
0
LINE
8
0
10
-3.34763636
20
10.9908843
11
-3.70597674
21
10.9172378
0
LINE
8
0
10
-3.70597674
20
10.9172378
11
-3.76907373
21
10.9042702
0
LINE
8
0
10
-3.76907373
20
10.9042702
11
-4.13452333
21
10.8875882
0
LINE
8
0
10
-4.13452333
20
10.8875882
11
-4.19887213
21
10.8846507
0
LINE
8
0
10
-4.19887213
20
10.8846507
11
-4.56243228
21
10.925342
0
LINE
8
0
10
-4.56243228
20
10.925342
11
-4.62644827
21
10.932507
0
LINE
8
0
10
-4.62644827
20
10.932507
11
-4.97916668
21
11.0295718
0
LINE
8
0
10
-4.97916668
20
11.0295718
11
-4.97916668
21
11.0295718
0
LINE
8
0
10
6.79173237
20
21.1170967
11
7.15718218
21
21.1337804
0
LINE
8
0
10
7.15718218
20
21.1337804
11
7.22027917
21
21.1467478
0
LINE
8
0
10
7.22027917
20
21.1467478
11
7.57861955
21
21.2203935
0
LINE
8
0
10
7.57861955
20
21.2203935
11
7.63891109
21
21.2430721
0
LINE
8
0
10
7.63891109
20
21.2430721
11
7.98131913
21
21.3718683
0
LINE
8
0
10
7.98131913
20
21.3718683
11
8.03732078
21
21.4036993
0
LINE
8
0
10
8.03732078
20
21.4036993
11
8.35536474
21
21.5844741
0
LINE
8
0
10
8.35536474
20
21.5844741
11
8.40569736
21
21.6246739
0
LINE
8
0
10
8.40569736
20
21.6246739
11
8.69154677
21
21.8529751
0
LINE
8
0
10
8.69154677
20
21.8529751
11
8.73497108
21
21.9005537
0
LINE
8
0
10
8.73497108
20
21.9005537
11
8.98158682
21
22.1707618
0
LINE
8
0
10
8.98158682
20
22.1707618
11
9.01703361
21
22.2245475
0
LINE
8
0
10
9.01703361
20
22.2245475
11
9.21834326
21
22.5300097
0
LINE
8
0
10
9.21834326
20
22.5300097
11
9.24493969
21
22.5886785
0
LINE
8
0
10
9.24493969
20
22.5886785
11
9.39598589
21
22.9218688
0
LINE
8
0
10
9.39598589
20
22.9218688
11
9.41307699
21
22.9839759
0
LINE
8
0
10
9.41307699
20
22.9839759
11
9.51014092
21
23.3366947
0
LINE
8
0
10
9.51014092
20
23.3366947
11
9.51730604
21
23.4007106
0
LINE
8
0
10
9.51730604
20
23.4007106
11
9.55799814
21
23.7642712
0
LINE
8
0
10
9.55799814
20
23.7642712
11
9.55506069
21
23.8286199
0
LINE
8
0
10
9.55506069
20
23.8286199
11
9.53837787
21
24.1940689
0
LINE
8
0
10
9.53837787
20
24.1940689
11
9.52541014
21
24.2571659
0
LINE
8
0
10
9.52541014
20
24.2571659
11
9.45176444
21
24.6155075
0
LINE
8
0
10
9.45176444
20
24.6155075
11
9.42908588
21
24.6757992
0
LINE
8
0
10
9.42908588
20
24.6757992
11
9.3002897
21
25.018206
0
LINE
8
0
10
9.3002897
20
25.018206
11
9.26845876
21
25.0742075
0
LINE
8
0
10
9.26845876
20
25.0742075
11
9.08768401
21
25.3922527
0
LINE
8
0
10
9.08768401
20
25.3922527
11
9.0474842
21
25.4425855
0
LINE
8
0
10
9.0474842
20
25.4425855
11
8.81918138
21
25.7284341
0
LINE
8
0
10
8.81918138
20
25.7284341
11
6.86630684
21
27.8143227
0
LINE
8
0
10
6.86630684
20
27.8143227
11
6.54102081
21
28.1617643
0
LINE
8
0
10
6.54102081
20
28.1617643
11
4.58814585
21
30.2476513
0
LINE
8
0
10
4.58814585
20
30.2476513
11
4.26285976
21
30.5950932
0
LINE
8
0
10
4.26285976
20
30.5950932
11
2.30998501
21
32.6809802
0
LINE
8
0
10
2.30998501
20
32.6809802
11
1.98469891
21
33.0284221
0
LINE
8
0
10
1.98469891
20
33.0284221
11
1.93712038
21
33.0718462
0
LINE
8
0
10
1.93712038
20
33.0718462
11
1.66691218
21
33.3184644
0
LINE
8
0
10
1.66691218
20
33.3184644
11
1.61312634
21
33.353911
0
LINE
8
0
10
1.61312634
20
33.353911
11
1.30766572
21
33.5552199
0
LINE
8
0
10
1.30766572
20
33.5552199
11
1.24899697
21
33.5818166
0
LINE
8
0
10
1.24899697
20
33.5818166
11
0.915805265
21
33.7328619
0
LINE
8
0
10
0.915805265
20
33.7328619
11
0.853698227
21
33.7499529
0
LINE
8
0
10
0.853698227
20
33.7499529
11
0.500979873
21
33.8470168
0
LINE
8
0
10
0.500979873
20
33.8470168
11
0.43696383
21
33.8541821
0
LINE
8
0
10
0.43696383
20
33.8541821
11
0.0734038088
21
33.8948742
0
LINE
8
0
10
0.0734038088
20
33.8948742
11
0.00905504771
21
33.8919367
0
LINE
8
0
10
0.00905504771
20
33.8919367
11
-0.356394533
21
33.8752531
0
LINE
8
0
10
-0.356394533
20
33.8752531
11
-0.419491531
21
33.8622854
0
LINE
8
0
10
-0.419491531
20
33.8622854
11
-0.777832118
21
33.7886413
0
LINE
8
0
10
-0.777832118
20
33.7886413
11
-0.838123697
21
33.7659625
0
LINE
8
0
10
-0.838123697
20
33.7659625
11
-1.18053174
21
33.6371663
0
LINE
8
0
10
-1.18053174
20
33.6371663
11
-1.23653332
21
33.6053358
0
LINE
8
0
10
-1.23653332
20
33.6053358
11
-1.55457758
21
33.4245594
0
LINE
8
0
10
-1.55457758
20
33.4245594
11
-1.60491022
21
33.3843593
0
LINE
8
0
10
-1.60491022
20
33.3843593
11
-1.89075942
21
33.1560597
0
LINE
8
0
10
-1.89075942
20
33.1560597
11
-1.93418377
21
33.1084814
0
LINE
8
0
10
-1.93418377
20
33.1084814
11
-2.1807994
21
32.8382733
0
LINE
8
0
10
-2.1807994
20
32.8382733
11
-2.21624617
21
32.7844873
0
LINE
8
0
10
-2.21624617
20
32.7844873
11
-2.4175556
21
32.4790252
0
LINE
8
0
10
-2.4175556
20
32.4790252
11
-2.44415204
21
32.4203566
0
LINE
8
0
10
-2.44415204
20
32.4203566
11
-2.59519844
21
32.0871647
0
LINE
8
0
10
-2.59519844
20
32.0871647
11
-2.61228961
21
32.0250576
0
LINE
8
0
10
-2.61228961
20
32.0250576
11
-2.70935374
21
31.6723388
0
LINE
8
0
10
-2.70935374
20
31.6723388
11
-2.7165188
21
31.6083226
0
LINE
8
0
10
-2.7165188
20
31.6083226
11
-2.75721049
21
31.2447637
0
LINE
8
0
10
-2.75721049
20
31.2447637
11
-2.754273
21
31.180415
0
LINE
8
0
10
-2.754273
20
31.180415
11
-2.73759059
21
30.8149643
0
LINE
8
0
10
-2.73759059
20
30.8149643
11
-2.72462293
21
30.7518673
0
LINE
8
0
10
-2.72462293
20
30.7518673
11
-2.65097682
21
30.3935273
0
LINE
8
0
10
-2.65097682
20
30.3935273
11
-2.62829826
21
30.3332359
0
LINE
8
0
10
-2.62829826
20
30.3332359
11
-2.49950208
21
29.9908274
0
LINE
8
0
10
-2.49950208
20
29.9908274
11
-2.46767104
21
29.9348257
0
LINE
8
0
10
-2.46767104
20
29.9348257
11
-2.28689629
21
29.6167821
0
LINE
8
0
10
-2.28689629
20
29.6167821
11
-2.24669658
21
29.5664496
0
LINE
8
0
10
-2.24669658
20
29.5664496
11
-2.01839417
21
29.2805994
0
LINE
8
0
10
-2.01839417
20
29.2805994
11
-0.0655193949
21
27.1947124
0
LINE
8
0
10
-0.0655193949
20
27.1947124
11
0.259766686
21
26.8472705
0
LINE
8
0
10
0.259766686
20
26.8472705
11
2.21264161
21
24.7613819
0
LINE
8
0
10
2.21264161
20
24.7613819
11
2.53792769
21
24.4139402
0
LINE
8
0
10
2.53792769
20
24.4139402
11
4.49080264
21
22.3280532
0
LINE
8
0
10
4.49080264
20
22.3280532
11
4.81608874
21
21.9806113
0
LINE
8
0
10
4.81608874
20
21.9806113
11
4.86366726
21
21.937187
0
LINE
8
0
10
4.86366726
20
21.937187
11
5.13387535
21
21.6905705
0
LINE
8
0
10
5.13387535
20
21.6905705
11
5.18766124
21
21.6551238
0
LINE
8
0
10
5.18766124
20
21.6551238
11
5.49312176
21
21.453815
0
LINE
8
0
10
5.49312176
20
21.453815
11
5.5517905
21
21.4272185
0
LINE
8
0
10
5.5517905
20
21.4272185
11
5.8849824
21
21.2761715
0
LINE
8
0
10
5.8849824
20
21.2761715
11
5.94708943
21
21.2590803
0
LINE
8
0
10
5.94708943
20
21.2590803
11
6.29980743
21
21.1620164
0
LINE
8
0
10
6.29980743
20
21.1620164
11
6.3638235
21
21.1548514
0
LINE
8
0
10
6.3638235
20
21.1548514
11
6.72738364
21
21.1141593
0
LINE
8
0
10
6.72738364
20
21.1141593
11
6.79173237
21
21.1170967
0
LINE
8
0
10
6.79173237
20
21.1170967
11
6.79173237
21
21.1170967
0
ENDSEC
0
EOF
