0
SECTION
2
ENTITIES
0
LINE
8
0
10
5.29663901
20
18.2933353
11
6.3125064
21
17.2082763
0
LINE
8
0
10
6.3125064
20
17.2082763
11
6.40441001
21
17.0932071
0
LINE
8
0
10
6.40441001
20
17.0932071
11
6.56443848
21
16.892842
0
LINE
8
0
10
6.56443848
20
16.892842
11
6.63720973
21
16.7648124
0
LINE
8
0
10
6.63720973
20
16.7648124
11
6.76392353
21
16.5418792
0
LINE
8
0
10
6.76392353
20
16.5418792
11
6.81577066
21
16.4040424
0
LINE
8
0
10
6.81577066
20
16.4040424
11
6.90605018
21
16.1640317
0
LINE
8
0
10
6.90605018
20
16.1640317
11
6.93569652
21
16.0197806
0
LINE
8
0
10
6.93569652
20
16.0197806
11
6.98731838
21
15.7686027
0
LINE
8
0
10
6.98731838
20
15.7686027
11
6.99403391
21
15.6214903
0
LINE
8
0
10
6.99403391
20
15.6214903
11
7.00572761
21
15.3653287
0
LINE
8
0
10
7.00572761
20
15.3653287
11
6.98934719
21
15.2189768
0
LINE
8
0
10
6.98934719
20
15.2189768
11
6.96082447
21
14.9641403
0
LINE
8
0
10
6.96082447
20
14.9641403
11
6.92175104
21
14.822153
0
LINE
8
0
10
6.92175104
20
14.822153
11
6.85371396
21
14.5749154
0
LINE
8
0
10
6.85371396
20
14.5749154
11
6.79290983
21
14.4407883
0
LINE
8
0
10
6.79290983
20
14.4407883
11
6.68703403
21
14.207238
0
LINE
8
0
10
6.68703403
20
14.207238
11
6.60599647
21
14.0842743
0
LINE
8
0
10
6.60599647
20
14.0842743
11
6.46488886
21
13.870162
0
LINE
8
0
10
6.46488886
20
13.870162
11
6.3656134
21
13.7613891
0
LINE
8
0
10
6.3656134
20
13.7613891
11
6.19274868
21
13.571987
0
LINE
8
0
10
6.19274868
20
13.571987
11
6.07767948
21
13.4800833
0
LINE
8
0
10
6.07767948
20
13.4800833
11
5.87731383
21
13.3200549
0
LINE
8
0
10
5.87731383
20
13.3200549
11
5.74928436
21
13.2472836
0
LINE
8
0
10
5.74928436
20
13.2472836
11
5.52635145
21
13.1205698
0
LINE
8
0
10
5.52635145
20
13.1205698
11
5.38851446
21
13.0687227
0
LINE
8
0
10
5.38851446
20
13.0687227
11
5.14850411
21
12.9784435
0
LINE
8
0
10
5.14850411
20
12.9784435
11
5.00425334
21
12.948797
0
LINE
8
0
10
5.00425334
20
12.948797
11
4.75307487
21
12.8971745
0
LINE
8
0
10
4.75307487
20
12.8971745
11
4.6059623
21
12.890459
0
LINE
8
0
10
4.6059623
20
12.890459
11
4.34980101
21
12.8787656
0
LINE
8
0
10
4.34980101
20
12.8787656
11
4.20344921
21
12.8951462
0
LINE
8
0
10
4.20344921
20
12.8951462
11
3.94861236
21
12.9236689
0
LINE
8
0
10
3.94861236
20
12.9236689
11
3.80662485
21
12.9627423
0
LINE
8
0
10
3.80662485
20
12.9627423
11
3.55938733
21
13.0307794
0
LINE
8
0
10
3.55938733
20
13.0307794
11
3.42526037
21
13.0915835
0
LINE
8
0
10
3.42526037
20
13.0915835
11
3.19171009
21
13.1974593
0
LINE
8
0
10
3.19171009
20
13.1974593
11
3.06874624
21
13.2784969
0
LINE
8
0
10
3.06874624
20
13.2784969
11
2.85463402
21
13.4196045
0
LINE
8
0
10
2.85463402
20
13.4196045
11
2.74586112
21
13.51888
0
LINE
8
0
10
2.74586112
20
13.51888
11
2.55645908
21
13.6917447
0
LINE
8
0
10
2.55645908
20
13.6917447
11
0.838533294
21
15.5266812
0
LINE
8
0
10
0.838533294
20
15.5266812
11
-0.177334037
21
16.6117406
0
LINE
8
0
10
-0.177334037
20
16.6117406
11
-1.89525984
21
18.4466771
0
LINE
8
0
10
-1.89525984
20
18.4466771
11
-2.9111272
21
19.5317368
0
LINE
8
0
10
-2.9111272
20
19.5317368
11
-4.62905307
21
21.3666722
0
LINE
8
0
10
-4.62905307
20
21.3666722
11
-5.64492037
21
22.4517319
0
LINE
8
0
10
-5.64492037
20
22.4517319
11
-7.36284624
21
24.2866684
0
LINE
8
0
10
-7.36284624
20
24.2866684
11
-8.37871345
21
25.3717282
0
LINE
8
0
10
-8.37871345
20
25.3717282
11
-10.0966393
21
27.2066647
0
LINE
8
0
10
-10.0966393
20
27.2066647
11
-11.1125067
21
28.2917237
0
LINE
8
0
10
-11.1125067
20
28.2917237
11
-11.2044103
21
28.4067929
0
LINE
8
0
10
-11.2044103
20
28.4067929
11
-11.3644382
21
28.607158
0
LINE
8
0
10
-11.3644382
20
28.607158
11
-11.4372094
21
28.7351876
0
LINE
8
0
10
-11.4372094
20
28.7351876
11
-11.5639232
21
28.9581208
0
LINE
8
0
10
-11.5639232
20
28.9581208
11
-11.6157704
21
29.0959576
0
LINE
8
0
10
-11.6157704
20
29.0959576
11
-11.7060502
21
29.3359683
0
LINE
8
0
10
-11.7060502
20
29.3359683
11
-11.7356967
21
29.4802194
0
LINE
8
0
10
-11.7356967
20
29.4802194
11
-11.7873186
21
29.7313973
0
LINE
8
0
10
-11.7873186
20
29.7313973
11
-11.7940341
21
29.8785097
0
LINE
8
0
10
-11.7940341
20
29.8785097
11
-11.8057275
21
30.1346713
0
LINE
8
0
10
-11.8057275
20
30.1346713
11
-11.7893469
21
30.2810232
0
LINE
8
0
10
-11.7893469
20
30.2810232
11
-11.7608242
21
30.5358603
0
LINE
8
0
10
-11.7608242
20
30.5358603
11
-11.7217507
21
30.6778476
0
LINE
8
0
10
-11.7217507
20
30.6778476
11
-11.6537137
21
30.9250846
0
LINE
8
0
10
-11.6537137
20
30.9250846
11
-11.5929095
21
31.0592117
0
LINE
8
0
10
-11.5929095
20
31.0592117
11
-11.4870337
21
31.292762
0
LINE
8
0
10
-11.4870337
20
31.292762
11
-11.4059965
21
31.4157254
0
LINE
8
0
10
-11.4059965
20
31.4157254
11
-11.2648889
21
31.6298382
0
LINE
8
0
10
-11.2648889
20
31.6298382
11
-11.1656131
21
31.7386115
0
LINE
8
0
10
-11.1656131
20
31.7386115
11
-10.9927484
21
31.928013
0
LINE
8
0
10
-10.9927484
20
31.928013
11
-10.8776792
21
32.019917
0
LINE
8
0
10
-10.8776792
20
32.019917
11
-10.6773135
21
32.1799449
0
LINE
8
0
10
-10.6773135
20
32.1799449
11
-10.5492842
21
32.2527151
0
LINE
8
0
10
-10.5492842
20
32.2527151
11
-10.3263516
21
32.3794295
0
LINE
8
0
10
-10.3263516
20
32.3794295
11
-10.1885145
21
32.431277
0
LINE
8
0
10
-10.1885145
20
32.431277
11
-9.94850382
21
32.5215568
0
LINE
8
0
10
-9.94850382
20
32.5215568
11
-9.80425305
21
32.5512029
0
LINE
8
0
10
-9.80425305
20
32.5512029
11
-9.55307519
21
32.6028236
0
LINE
8
0
10
-9.55307519
20
32.6028236
11
-9.40596279
21
32.6095398
0
LINE
8
0
10
-9.40596279
20
32.6095398
11
-9.1498012
21
32.6212332
0
LINE
8
0
10
-9.1498012
20
32.6212332
11
-9.00344931
21
32.6048523
0
LINE
8
0
10
-9.00344931
20
32.6048523
11
-8.74861216
21
32.5763308
0
LINE
8
0
10
-8.74861216
20
32.5763308
11
-8.60662483
21
32.537258
0
LINE
8
0
10
-8.60662483
20
32.537258
11
-8.35938731
21
32.4692216
0
LINE
8
0
10
-8.35938731
20
32.4692216
11
-8.22526017
21
32.4084167
0
LINE
8
0
10
-8.22526017
20
32.4084167
11
-7.99171019
21
32.3025409
0
LINE
8
0
10
-7.99171019
20
32.3025409
11
-7.86874643
21
32.2215037
0
LINE
8
0
10
-7.86874643
20
32.2215037
11
-7.65463421
21
32.0803943
0
LINE
8
0
10
-7.65463421
20
32.0803943
11
-7.54586131
21
31.9811185
0
LINE
8
0
10
-7.54586131
20
31.9811185
11
-7.35645912
21
31.808255
0
LINE
8
0
10
-7.35645912
20
31.808255
11
-5.63853325
21
29.9733184
0
LINE
8
0
10
-5.63853325
20
29.9733184
11
-4.62266586
21
28.8882594
0
LINE
8
0
10
-4.62266586
20
28.8882594
11
-2.90474022
21
27.0533229
0
LINE
8
0
10
-2.90474022
20
27.0533229
11
-1.88887287
21
25.9682632
0
LINE
8
0
10
-1.88887287
20
25.9682632
11
-0.170947077
21
24.1333278
0
LINE
8
0
10
-0.170947077
20
24.1333278
11
0.84492027
21
23.0482681
0
LINE
8
0
10
0.84492027
20
23.0482681
11
2.56284614
21
21.2133316
0
LINE
8
0
10
2.56284614
20
21.2133316
11
3.57871344
21
20.1282718
0
LINE
8
0
10
3.57871344
20
20.1282718
11
5.29663901
21
18.2933353
0
LINE
8
0
10
5.29663901
20
18.2933353
11
5.29663901
21
18.2933353
0
LINE
8
0
10
-12.8742341
20
22.6136248
11
-12.9735096
21
22.5048516
0
LINE
8
0
10
-12.9735096
20
22.5048516
11
-13.1146172
21
22.2907387
0
LINE
8
0
10
-13.1146172
20
22.2907387
11
-13.1956548
21
22.1677753
0
LINE
8
0
10
-13.1956548
20
22.1677753
11
-13.3015306
21
21.934225
0
LINE
8
0
10
-13.3015306
20
21.934225
11
-13.3623347
21
21.8000979
0
LINE
8
0
10
-13.3623347
20
21.8000979
11
-13.4303718
21
21.552861
0
LINE
8
0
10
-13.4303718
20
21.552861
11
-13.4694452
21
21.4108737
0
LINE
8
0
10
-13.4694452
20
21.4108737
11
-13.4979679
21
21.1560365
0
LINE
8
0
10
-13.4979679
20
21.1560365
11
-13.5143485
21
21.0096846
0
LINE
8
0
10
-13.5143485
20
21.0096846
11
-13.5026551
21
20.753523
0
LINE
8
0
10
-13.5026551
20
20.753523
11
-13.4959396
21
20.6064106
0
LINE
8
0
10
-13.4959396
20
20.6064106
11
-13.4443171
21
20.3552328
0
LINE
8
0
10
-13.4443171
20
20.3552328
11
-13.4146706
21
20.2109816
0
LINE
8
0
10
-13.4146706
20
20.2109816
11
-13.3243914
21
19.970971
0
LINE
8
0
10
-13.3243914
20
19.970971
11
-13.2725443
21
19.8331342
0
LINE
8
0
10
-13.2725443
20
19.8331342
11
-13.1458305
21
19.610201
0
LINE
8
0
10
-13.1458305
20
19.610201
11
-13.0730592
21
19.4821713
0
LINE
8
0
10
-13.0730592
20
19.4821713
11
-12.9130307
21
19.2818063
0
LINE
8
0
10
-12.9130307
20
19.2818063
11
-12.8211271
21
19.1667371
0
LINE
8
0
10
-12.8211271
20
19.1667371
11
-11.974571
21
18.2625212
0
LINE
8
0
10
-11.974571
20
18.2625212
11
-10.5429661
21
16.7334072
0
LINE
8
0
10
-10.5429661
20
16.7334072
11
-9.69640993
21
15.8291907
0
LINE
8
0
10
-9.69640993
20
15.8291907
11
-8.26480504
21
14.3000773
0
LINE
8
0
10
-8.26480504
20
14.3000773
11
-7.41824906
21
13.3958611
0
LINE
8
0
10
-7.41824906
20
13.3958611
11
-5.98664447
21
11.8667477
0
LINE
8
0
10
-5.98664447
20
11.8667477
11
-5.79724257
21
11.693883
0
LINE
8
0
10
-5.79724257
20
11.693883
11
-5.68846968
21
11.5946072
0
LINE
8
0
10
-5.68846968
20
11.5946072
11
-5.47435715
21
11.4534996
0
LINE
8
0
10
-5.47435715
20
11.4534996
11
-5.35139322
21
11.3724624
0
LINE
8
0
10
-5.35139322
20
11.3724624
11
-5.11784324
21
11.2665866
0
LINE
8
0
10
-5.11784324
20
11.2665866
11
-4.98371627
21
11.2057824
0
LINE
8
0
10
-4.98371627
20
11.2057824
11
-4.73647876
21
11.1377454
0
LINE
8
0
10
-4.73647876
20
11.1377454
11
-4.59449125
21
11.0986719
0
LINE
8
0
10
-4.59449125
20
11.0986719
11
-4.3396541
21
11.0701492
0
LINE
8
0
10
-4.3396541
20
11.0701492
11
-4.1933022
21
11.0537686
0
LINE
8
0
10
-4.1933022
20
11.0537686
11
-3.93714092
21
11.065462
0
LINE
8
0
10
-3.93714092
20
11.065462
11
-3.79002852
21
11.0721775
0
LINE
8
0
10
-3.79002852
20
11.0721775
11
-3.5388502
21
11.1237994
0
LINE
8
0
10
-3.5388502
20
11.1237994
11
-3.39459944
21
11.1534459
0
LINE
8
0
10
-3.39459944
20
11.1534459
11
-3.15458894
21
11.2437257
0
LINE
8
0
10
-3.15458894
20
11.2437257
11
-3.01675186
21
11.2955729
0
LINE
8
0
10
-3.01675186
20
11.2955729
11
-2.79381925
21
11.4222867
0
LINE
8
0
10
-2.79381925
20
11.4222867
11
-2.66578987
21
11.4950579
0
LINE
8
0
10
-2.66578987
20
11.4950579
11
-2.46542421
21
11.6550858
0
LINE
8
0
10
-2.46542421
20
11.6550858
11
-2.35035502
21
11.7469894
0
LINE
8
0
10
-2.35035502
20
11.7469894
11
-2.17749015
21
11.9363916
0
LINE
8
0
10
-2.17749015
20
11.9363916
11
-2.07821451
21
12.0451645
0
LINE
8
0
10
-2.07821451
20
12.0451645
11
-1.9371069
21
12.2592767
0
LINE
8
0
10
-1.9371069
20
12.2592767
11
-1.85606938
21
12.3822405
0
LINE
8
0
10
-1.85606938
20
12.3822405
11
-1.75019365
21
12.6157908
0
LINE
8
0
10
-1.75019365
20
12.6157908
11
-1.68938962
21
12.7499175
0
LINE
8
0
10
-1.68938962
20
12.7499175
11
-1.62135262
21
12.9971551
0
LINE
8
0
10
-1.62135262
20
12.9971551
11
-1.58227923
21
13.1391427
0
LINE
8
0
10
-1.58227923
20
13.1391427
11
-1.55375635
21
13.3939799
0
LINE
8
0
10
-1.55375635
20
13.3939799
11
-1.5373758
21
13.5403318
0
LINE
8
0
10
-1.5373758
20
13.5403318
11
-1.54906942
21
13.7964928
0
LINE
8
0
10
-1.54906942
20
13.7964928
11
-1.555785
21
13.9436052
0
LINE
8
0
10
-1.555785
20
13.9436052
11
-1.60740709
21
14.1947836
0
LINE
8
0
10
-1.60740709
20
14.1947836
11
-1.63705343
21
14.3390344
0
LINE
8
0
10
-1.63705343
20
14.3390344
11
-1.72733287
21
14.5790451
0
LINE
8
0
10
-1.72733287
20
14.5790451
11
-1.77918004
21
14.7168822
0
LINE
8
0
10
-1.77918004
20
14.7168822
11
-1.90589392
21
14.9398148
0
LINE
8
0
10
-1.90589392
20
14.9398148
11
-1.97866521
21
15.0678441
0
LINE
8
0
10
-1.97866521
20
15.0678441
11
-2.13869339
21
15.2682098
0
LINE
8
0
10
-2.13869339
20
15.2682098
11
-2.23059691
21
15.383279
0
LINE
8
0
10
-2.23059691
20
15.383279
11
-3.07715298
21
16.2874952
0
LINE
8
0
10
-3.07715298
20
16.2874952
11
-4.50875787
21
17.8166092
0
LINE
8
0
10
-4.50875787
20
17.8166092
11
-5.35531403
21
18.7208257
0
LINE
8
0
10
-5.35531403
20
18.7208257
11
-6.78691892
21
20.2499385
0
LINE
8
0
10
-6.78691892
20
20.2499385
11
-7.6334749
21
21.1541544
0
LINE
8
0
10
-7.6334749
20
21.1541544
11
-9.06507949
21
22.6832683
0
LINE
8
0
10
-9.06507949
20
22.6832683
11
-9.25448169
21
22.856133
0
LINE
8
0
10
-9.25448169
20
22.856133
11
-9.36325458
21
22.9554089
0
LINE
8
0
10
-9.36325458
20
22.9554089
11
-9.5773668
21
23.0965159
0
LINE
8
0
10
-9.5773668
20
23.0965159
11
-9.70033092
21
23.1775538
0
LINE
8
0
10
-9.70033092
20
23.1775538
11
-9.9338812
21
23.2834296
0
LINE
8
0
10
-9.9338812
20
23.2834296
11
-10.068008
21
23.344233
0
LINE
8
0
10
-10.068008
20
23.344233
11
-10.3152455
21
23.4122707
0
LINE
8
0
10
-10.3152455
20
23.4122707
11
-10.4572332
21
23.4513441
0
LINE
8
0
10
-10.4572332
20
23.4513441
11
-10.7120703
21
23.4798668
0
LINE
8
0
10
-10.7120703
20
23.4798668
11
-10.8584222
21
23.4962478
0
LINE
8
0
10
-10.8584222
20
23.4962478
11
-11.1145832
21
23.4845544
0
LINE
8
0
10
-11.1145832
20
23.4845544
11
-11.2616956
21
23.4778389
0
LINE
8
0
10
-11.2616956
20
23.4778389
11
-11.5128741
21
23.426217
0
LINE
8
0
10
-11.5128741
20
23.426217
11
-11.6571248
21
23.3965701
0
LINE
8
0
10
-11.6571248
20
23.3965701
11
-11.8971355
21
23.3062903
0
LINE
8
0
10
-11.8971355
20
23.3062903
11
-12.0349723
21
23.2544435
0
LINE
8
0
10
-12.0349723
20
23.2544435
11
-12.2579049
21
23.1277291
0
LINE
8
0
10
-12.2579049
20
23.1277291
11
-12.3859346
21
23.0549575
0
LINE
8
0
10
-12.3859346
20
23.0549575
11
-12.5863002
21
22.8949297
0
LINE
8
0
10
-12.5863002
20
22.8949297
11
-12.7013694
21
22.8030264
0
LINE
8
0
10
-12.7013694
20
22.8030264
11
-12.8742341
21
22.6136248
0
LINE
8
0
10
-12.8742341
20
22.6136248
11
-12.8742341
21
22.6136248
0
LINE
8
0
10
8.46083197
20
21.8845954
11
8.26046631
21
21.7245663
0
LINE
8
0
10
8.26046631
20
21.7245663
11
8.13243684
21
21.6517954
0
LINE
8
0
10
8.13243684
20
21.6517954
11
7.90950393
21
21.5250822
0
LINE
8
0
10
7.90950393
20
21.5250822
11
7.77166677
21
21.4732347
0
LINE
8
0
10
7.77166677
20
21.4732347
11
7.53165642
21
21.3829549
0
LINE
8
0
10
7.53165642
20
21.3829549
11
7.38740565
21
21.3533088
0
LINE
8
0
10
7.38740565
20
21.3533088
11
7.13622718
21
21.3016869
0
LINE
8
0
10
7.13622718
20
21.3016869
11
6.98911478
21
21.2949714
0
LINE
8
0
10
6.98911478
20
21.2949714
11
6.7329535
21
21.283278
0
LINE
8
0
10
6.7329535
20
21.283278
11
6.5866016
21
21.2996582
0
LINE
8
0
10
6.5866016
20
21.2996582
11
6.33176475
21
21.3281809
0
LINE
8
0
10
6.33176475
20
21.3281809
11
6.18977725
21
21.3672544
0
LINE
8
0
10
6.18977725
20
21.3672544
11
5.94253973
21
21.4352908
0
LINE
8
0
10
5.94253973
20
21.4352908
11
5.80841276
21
21.496095
0
LINE
8
0
10
5.80841276
20
21.496095
11
5.57486249
21
21.6019708
0
LINE
8
0
10
5.57486249
20
21.6019708
11
5.45189873
21
21.6830087
0
LINE
8
0
10
5.45189873
20
21.6830087
11
5.2377865
21
21.8241169
0
LINE
8
0
10
5.2377865
20
21.8241169
11
5.12901361
21
21.923392
0
LINE
8
0
10
5.12901361
20
21.923392
11
4.93961141
21
22.0962567
0
LINE
8
0
10
4.93961141
20
22.0962567
11
3.50800667
21
23.6253695
0
LINE
8
0
10
3.50800667
20
23.6253695
11
2.66145051
21
24.5295861
0
LINE
8
0
10
2.66145051
20
24.5295861
11
1.22984566
21
26.0587
0
LINE
8
0
10
1.22984566
20
26.0587
11
0.383289545
21
26.9629166
0
LINE
8
0
10
0.383289545
20
26.9629166
11
-1.04831523
21
28.4920306
0
LINE
8
0
10
-1.04831523
20
28.4920306
11
-1.89487135
21
29.3962464
0
LINE
8
0
10
-1.89487135
20
29.3962464
11
-1.98677496
21
29.5113156
0
LINE
8
0
10
-1.98677496
20
29.5113156
11
-2.14680313
21
29.7116807
0
LINE
8
0
10
-2.14680313
20
29.7116807
11
-2.21957438
21
29.8397103
0
LINE
8
0
10
-2.21957438
20
29.8397103
11
-2.34628833
21
30.0626435
0
LINE
8
0
10
-2.34628833
20
30.0626435
11
-2.39813546
21
30.2004803
0
LINE
8
0
10
-2.39813546
20
30.2004803
11
-2.48841497
21
30.4404898
0
LINE
8
0
10
-2.48841497
20
30.4404898
11
-2.51806141
21
30.5847409
0
LINE
8
0
10
-2.51806141
20
30.5847409
11
-2.56968341
21
30.83592
0
LINE
8
0
10
-2.56968341
20
30.83592
11
-2.57639895
21
30.9830324
0
LINE
8
0
10
-2.57639895
20
30.9830324
11
-2.58809249
21
31.239194
0
LINE
8
0
10
-2.58809249
20
31.239194
11
-2.5717119
21
31.3855459
0
LINE
8
0
10
-2.5717119
20
31.3855459
11
-2.54318903
21
31.640383
0
LINE
8
0
10
-2.54318903
20
31.640383
11
-2.50411568
21
31.7823703
0
LINE
8
0
10
-2.50411568
20
31.7823703
11
-2.43607876
21
32.0296073
0
LINE
8
0
10
-2.43607876
20
32.0296073
11
-2.37527472
21
32.1637337
0
LINE
8
0
10
-2.37527472
20
32.1637337
11
-2.26939891
21
32.3972828
0
LINE
8
0
10
-2.26939891
20
32.3972828
11
-2.18836136
21
32.5202476
0
LINE
8
0
10
-2.18836136
20
32.5202476
11
-2.04725375
21
32.7343604
0
LINE
8
0
10
-2.04725375
20
32.7343604
11
-1.94797815
21
32.843133
0
LINE
8
0
10
-1.94797815
20
32.843133
11
-1.77511336
21
33.0325358
0
LINE
8
0
10
-1.77511336
20
33.0325358
11
-1.66004416
21
33.1244397
0
LINE
8
0
10
-1.66004416
20
33.1244397
11
-1.45967858
21
33.2844676
0
LINE
8
0
10
-1.45967858
20
33.2844676
11
-1.3316492
21
33.3572378
0
LINE
8
0
10
-1.3316492
20
33.3572378
11
-1.10871644
21
33.4839522
0
LINE
8
0
10
-1.10871644
20
33.4839522
11
-0.970879362
21
33.5357997
0
LINE
8
0
10
-0.970879362
20
33.5357997
11
-0.730868936
21
33.6260795
0
LINE
8
0
10
-0.730868936
20
33.6260795
11
-0.586618191
21
33.6557256
0
LINE
8
0
10
-0.586618191
20
33.6557256
11
-0.335439837
21
33.7073463
0
LINE
8
0
10
-0.335439837
20
33.7073463
11
-0.188327346
21
33.7140625
0
LINE
8
0
10
-0.188327346
20
33.7140625
11
0.0678340546
21
33.7257559
0
LINE
8
0
10
0.0678340546
20
33.7257559
11
0.214185893
21
33.709375
0
LINE
8
0
10
0.214185893
20
33.709375
11
0.469022792
21
33.6808535
0
LINE
8
0
10
0.469022792
20
33.6808535
11
0.61101031
21
33.6417807
0
LINE
8
0
10
0.61101031
20
33.6417807
11
0.85824781
21
33.5737443
0
LINE
8
0
10
0.85824781
20
33.5737443
11
0.992374796
21
33.5129394
0
LINE
8
0
10
0.992374796
20
33.5129394
11
1.22592504
21
33.4070636
0
LINE
8
0
10
1.22592504
20
33.4070636
11
1.34888888
21
33.3260264
0
LINE
8
0
10
1.34888888
20
33.3260264
11
1.56300111
21
33.184917
0
LINE
8
0
10
1.56300111
20
33.184917
11
1.67177396
21
33.0856419
0
LINE
8
0
10
1.67177396
20
33.0856419
11
1.86117608
21
32.9127772
0
LINE
8
0
10
1.86117608
20
32.9127772
11
3.29278097
21
31.3836644
0
LINE
8
0
10
3.29278097
20
31.3836644
11
4.13933709
21
30.4794479
0
LINE
8
0
10
4.13933709
20
30.4794479
11
5.57094168
21
28.9503339
0
LINE
8
0
10
5.57094168
20
28.9503339
11
6.41749784
21
28.0461173
0
LINE
8
0
10
6.41749784
20
28.0461173
11
7.84910272
21
26.5170045
0
LINE
8
0
10
7.84910272
20
26.5170045
11
8.69565888
21
25.612788
0
LINE
8
0
10
8.69565888
20
25.612788
11
8.78756249
21
25.4977188
0
LINE
8
0
10
8.78756249
20
25.4977188
11
8.94759097
21
25.2973525
0
LINE
8
0
10
8.94759097
20
25.2973525
11
9.02036221
21
25.1693236
0
LINE
8
0
10
9.02036221
20
25.1693236
11
9.14707602
21
24.9463916
0
LINE
8
0
10
9.14707602
20
24.9463916
11
9.19892314
21
24.8085541
0
LINE
8
0
10
9.19892314
20
24.8085541
11
9.28920236
21
24.5685434
0
LINE
8
0
10
9.28920236
20
24.5685434
11
9.31884853
21
24.424293
0
LINE
8
0
10
9.31884853
20
24.424293
11
9.37047098
21
24.1731151
0
LINE
8
0
10
9.37047098
20
24.1731151
11
9.37718687
21
24.0260027
0
LINE
8
0
10
9.37718687
20
24.0260027
11
9.38888027
21
23.7698411
0
LINE
8
0
10
9.38888027
20
23.7698411
11
9.37249968
21
23.6234892
0
LINE
8
0
10
9.37249968
20
23.6234892
11
9.34397695
21
23.3686521
0
LINE
8
0
10
9.34397695
20
23.3686521
11
9.30490352
21
23.2266648
0
LINE
8
0
10
9.30490352
20
23.2266648
11
9.23686644
21
22.9794267
0
LINE
8
0
10
9.23686644
20
22.9794267
11
9.17606232
21
22.8452995
0
LINE
8
0
10
9.17606232
20
22.8452995
11
9.07018651
21
22.6117492
0
LINE
8
0
10
9.07018651
20
22.6117492
11
8.98914896
21
22.4887851
0
LINE
8
0
10
8.98914896
20
22.4887851
11
8.84804134
21
22.2746735
0
LINE
8
0
10
8.84804134
20
22.2746735
11
8.74876588
21
22.165901
0
LINE
8
0
10
8.74876588
20
22.165901
11
8.57590116
21
21.9764994
0
LINE
8
0
10
8.57590116
20
21.9764994
11
8.46083197
21
21.8845954
0
LINE
8
0
10
8.46083197
20
21.8845954
11
8.46083197
21
21.8845954
0
LINE
8
0
10
-11.4071372
20
46.5
11
-11.6444503
21
46.5
0
LINE
8
0
10
-11.6444503
20
46.5
11
-11.9289747
21
46.5
0
LINE
8
0
10
-11.9289747
20
46.5
11
-12.2323935
21
46.5
0
LINE
8
0
10
-12.2323935
20
46.5
11
-12.5256757
21
46.5
0
LINE
8
0
10
-12.5256757
20
46.5
11
-12.7841667
21
46.5
0
LINE
8
0
10
-12.7841667
20
46.5
11
-12.9906295
21
46.5
0
LINE
8
0
10
-12.9906295
20
46.5
11
-13.1358392
21
46.5
0
LINE
8
0
10
-13.1358392
20
46.5
11
-16.8085449
21
46.5
0
LINE
8
0
10
-16.8085449
20
46.5
11
-18.5499992
21
46.5
0
LINE
8
0
10
-18.5499992
20
46.5
11
-18.5499992
21
46.1574311
0
LINE
8
0
10
-18.5499992
20
46.1574311
11
-18.5499992
21
45.7020524
0
LINE
8
0
10
-18.5499992
20
45.7020524
11
-18.5499992
21
45.6600609
0
LINE
8
0
10
-18.5499992
20
45.6600609
11
-18.5499992
21
45.5731947
0
LINE
8
0
10
-18.5499992
20
45.5731947
11
-18.5499992
21
45.443563
0
LINE
8
0
10
-18.5499992
20
45.443563
11
-18.5499992
21
45.2768643
0
LINE
8
0
10
-18.5499992
20
45.2768643
11
-18.5499992
21
42.0180145
0
LINE
8
0
10
-18.5499992
20
42.0180145
11
-18.5499992
21
41.9561017
0
LINE
8
0
10
-18.5499992
20
41.9561017
11
-18.5499992
21
41.8798895
0
LINE
8
0
10
-18.5499992
20
41.8798895
11
-18.5499992
21
40.1891915
0
LINE
8
0
10
-18.5499992
20
40.1891915
11
-18.5499992
21
40.1664727
0
LINE
8
0
10
-18.5499992
20
40.1664727
11
-18.5499992
21
40.1421851
0
LINE
8
0
10
-18.5499992
20
40.1421851
11
-18.5499992
21
40.1184951
0
LINE
8
0
10
-18.5499992
20
40.1184951
11
-18.5499992
21
40.0973425
0
LINE
8
0
10
-18.5499992
20
40.0973425
11
-18.5499992
21
40.0273405
0
LINE
8
0
10
-18.5499992
20
40.0273405
11
-18.5499992
21
39.4308197
0
LINE
8
0
10
-18.5499992
20
39.4308197
11
-18.5499992
21
39.3027286
0
LINE
8
0
10
-18.5499992
20
39.3027286
11
-18.5499992
21
38.9386913
0
LINE
8
0
10
-18.5499992
20
38.9386913
11
-18.5499992
21
6.37088913
0
LINE
8
0
10
-18.5499992
20
6.37088913
11
-18.5499992
21
5.94554514
0
LINE
8
0
10
-18.5499992
20
5.94554514
11
-18.5499992
21
5.53000157
0
LINE
8
0
10
-18.5499992
20
5.53000157
11
-18.5499992
21
5.35055762
0
LINE
8
0
10
-18.5499992
20
5.35055762
11
-18.5499992
21
5.32913912
0
LINE
8
0
10
-18.5499992
20
5.32913912
11
-18.5499992
21
3.6853069
0
LINE
8
0
10
-18.5499992
20
3.6853069
11
-18.5499992
21
3.61383732
0
LINE
8
0
10
-18.5499992
20
3.61383732
11
-18.5499992
21
3.55808284
0
LINE
8
0
10
-18.5499992
20
3.55808284
11
-18.5499992
21
0.332033813
0
LINE
8
0
10
-18.5499992
20
0.332033813
11
-18.5499992
21
0.177002123
0
LINE
8
0
10
-18.5499992
20
0.177002123
11
-18.5499992
21
0.0616636505
0
LINE
8
0
10
-18.5499992
20
0.0616636505
11
-18.5499992
21
-0.00969068649
0
LINE
8
0
10
-18.5499992
20
-0.00969068649
11
-18.5499992
21
-0.678204395
0
LINE
8
0
10
-18.5499992
20
-0.678204395
11
-18.5499992
21
-0.720056442
0
LINE
8
0
10
-18.5499992
20
-0.720056442
11
-18.5499992
21
-1.10000002
0
LINE
8
0
10
-18.5499992
20
-1.10000002
11
-18.012258
21
-1.10000002
0
LINE
8
0
10
-18.012258
20
-1.10000002
11
-16.8085449
21
-1.10000002
0
LINE
8
0
10
-16.8085449
20
-1.10000002
11
-13.1358392
21
-1.10000002
0
LINE
8
0
10
-13.1358392
20
-1.10000002
11
-12.9906295
21
-1.10000002
0
LINE
8
0
10
-12.9906295
20
-1.10000002
11
-12.7841667
21
-1.10000002
0
LINE
8
0
10
-12.7841667
20
-1.10000002
11
-12.5256757
21
-1.10000002
0
LINE
8
0
10
-12.5256757
20
-1.10000002
11
-12.2323935
21
-1.10000002
0
LINE
8
0
10
-12.2323935
20
-1.10000002
11
-11.9289747
21
-1.10000002
0
LINE
8
0
10
-11.9289747
20
-1.10000002
11
-11.6444503
21
-1.10000002
0
LINE
8
0
10
-11.6444503
20
-1.10000002
11
-11.4071372
21
-1.10000002
0
LINE
8
0
10
-11.4071372
20
-1.10000002
11
-11.2391388
21
-1.10000002
0
LINE
8
0
10
-11.2391388
20
-1.10000002
11
-11.1525544
21
-1.10000002
0
LINE
8
0
10
-11.1525544
20
-1.10000002
11
-1.4433528
21
-1.10000002
0
LINE
8
0
10
-1.4433528
20
-1.10000002
11
10.5560846
21
-1.10000002
0
LINE
8
0
10
10.5560846
20
-1.10000002
11
10.6761876
21
-1.10000002
0
LINE
8
0
10
10.6761876
20
-1.10000002
11
10.866146
21
-1.10000002
0
LINE
8
0
10
10.866146
20
-1.10000002
11
11.111115
21
-1.10000002
0
LINE
8
0
10
11.111115
20
-1.10000002
11
11.3879835
21
-1.10000002
0
LINE
8
0
10
11.3879835
20
-1.10000002
11
11.6694423
21
-1.10000002
0
LINE
8
0
10
11.6694423
20
-1.10000002
11
11.9292059
21
-1.10000002
0
LINE
8
0
10
11.9292059
20
-1.10000002
11
12.1464149
21
-1.10000002
0
LINE
8
0
10
12.1464149
20
-1.10000002
11
12.307875
21
-1.10000002
0
LINE
8
0
10
12.307875
20
-1.10000002
11
13.75
21
-1.10000002
0
LINE
8
0
10
13.75
20
-1.10000002
11
13.75
21
2.6607055
0
LINE
8
0
10
13.75
20
2.6607055
11
13.75
21
5.00497429
0
LINE
8
0
10
13.75
20
5.00497429
11
13.75
21
8.57515972
0
LINE
8
0
10
13.75
20
8.57515972
11
13.75
21
40.4875253
0
LINE
8
0
10
13.75
20
40.4875253
11
13.75
21
42.8130338
0
LINE
8
0
10
13.75
20
42.8130338
11
13.75
21
46.5
0
LINE
8
0
10
13.75
20
46.5
11
12.307875
21
46.5
0
LINE
8
0
10
12.307875
20
46.5
11
12.1464149
21
46.5
0
LINE
8
0
10
12.1464149
20
46.5
11
11.9292059
21
46.5
0
LINE
8
0
10
11.9292059
20
46.5
11
11.6694423
21
46.5
0
LINE
8
0
10
11.6694423
20
46.5
11
11.3879835
21
46.5
0
LINE
8
0
10
11.3879835
20
46.5
11
11.111115
21
46.5
0
LINE
8
0
10
11.111115
20
46.5
11
10.866146
21
46.5
0
LINE
8
0
10
10.866146
20
46.5
11
10.6761876
21
46.5
0
LINE
8
0
10
10.6761876
20
46.5
11
10.5560846
21
46.5
0
LINE
8
0
10
10.5560846
20
46.5
11
-1.4433528
21
46.5
0
LINE
8
0
10
-1.4433528
20
46.5
11
-11.1525544
21
46.5
0
LINE
8
0
10
-11.1525544
20
46.5
11
-11.2391388
21
46.5
0
LINE
8
0
10
-11.2391388
20
46.5
11
-11.4071372
21
46.5
0
LINE
8
0
10
-11.4071372
20
46.5
11
-11.4071372
21
46.5
0
ENDSEC
0
EOF
