0
SECTION
2
ENTITIES
0
LINE
8
0
10
-11.0694114
20
28.3543162
11
-11.357749
21
28.730238
0
LINE
8
0
10
-11.357749
20
28.730238
11
-11.3649637
21
28.7448752
0
LINE
8
0
10
-11.3649637
20
28.7448752
11
-11.5744209
21
29.1698265
0
LINE
8
0
10
-11.5744209
20
29.1698265
11
-11.5786414
21
29.18559
0
LINE
8
0
10
-11.5786414
20
29.18559
11
-11.7011719
21
29.6432381
0
LINE
8
0
10
-11.7011719
20
29.6432381
11
-11.702236
21
29.659522
0
LINE
8
0
10
-11.702236
20
29.659522
11
-11.7331285
21
30.1322803
0
LINE
8
0
10
-11.7331285
20
30.1322803
11
-11.7309953
21
30.148459
0
LINE
8
0
10
-11.7309953
20
30.148459
11
-11.6690636
21
30.6181602
0
LINE
8
0
10
-11.6690636
20
30.6181602
11
-11.663815
21
30.6336119
0
LINE
8
0
10
-11.663815
20
30.6336119
11
-11.5114384
21
31.0822067
0
LINE
8
0
10
-11.5114384
20
31.0822067
11
-11.5032763
21
31.0963375
0
LINE
8
0
10
-11.5032763
20
31.0963375
11
-11.2663126
21
31.5065842
0
LINE
8
0
10
-11.2663126
20
31.5065842
11
-11.2555505
21
31.5188511
0
LINE
8
0
10
-11.2555505
20
31.5188511
11
-10.9431038
21
31.8749866
0
LINE
8
0
10
-10.9431038
20
31.8749866
11
-10.9301553
21
31.8849183
0
LINE
8
0
10
-10.9301553
20
31.8849183
11
-10.5542336
21
32.1732559
0
LINE
8
0
10
-10.5542336
20
32.1732559
11
-10.5395963
21
32.1804706
0
LINE
8
0
10
-10.5395963
20
32.1804706
11
-10.114646
21
32.3899269
0
LINE
8
0
10
-10.114646
20
32.3899269
11
-10.0988825
21
32.3941474
0
LINE
8
0
10
-10.0988825
20
32.3941474
11
-9.6412344
21
32.5166779
0
LINE
8
0
10
-9.6412344
20
32.5166779
11
-9.62495044
21
32.5177419
0
LINE
8
0
10
-9.62495044
20
32.5177419
11
-9.15219212
21
32.5486336
0
LINE
8
0
10
-9.15219212
20
32.5486336
11
-9.13601346
21
32.5465004
0
LINE
8
0
10
-9.13601346
20
32.5465004
11
-8.66631222
21
32.4845695
0
LINE
8
0
10
-8.66631222
20
32.4845695
11
-8.65086056
21
32.4793211
0
LINE
8
0
10
-8.65086056
20
32.4793211
11
-8.20226574
21
32.3269463
0
LINE
8
0
10
-8.20226574
20
32.3269463
11
-8.18813495
21
32.3187841
0
LINE
8
0
10
-8.18813495
20
32.3187841
11
-7.77788782
21
32.0818176
0
LINE
8
0
10
-7.77788782
20
32.0818176
11
-7.76562089
21
32.0710556
0
LINE
8
0
10
-7.76562089
20
32.0710556
11
-7.40948534
21
31.7586098
0
LINE
8
0
10
-7.40948534
20
31.7586098
11
5.80433563
21
17.6447772
0
LINE
8
0
10
5.80433563
20
17.6447772
11
6.25948
21
17.1586323
0
LINE
8
0
10
6.25948
20
17.1586323
11
6.26941165
21
17.1456838
0
LINE
8
0
10
6.26941165
20
17.1456838
11
6.55774879
21
16.769762
0
LINE
8
0
10
6.55774879
20
16.769762
11
6.56496348
21
16.7551248
0
LINE
8
0
10
6.56496348
20
16.7551248
11
6.77442122
21
16.3301735
0
LINE
8
0
10
6.77442122
20
16.3301735
11
6.77864169
21
16.31441
0
LINE
8
0
10
6.77864169
20
16.31441
11
6.90117121
21
15.8567629
0
LINE
8
0
10
6.90117121
20
15.8567629
11
6.90223529
21
15.8404789
0
LINE
8
0
10
6.90223529
20
15.8404789
11
6.93312788
21
15.3677197
0
LINE
8
0
10
6.93312788
20
15.3677197
11
6.93099468
21
15.351541
0
LINE
8
0
10
6.93099468
20
15.351541
11
6.86906338
21
14.8818398
0
LINE
8
0
10
6.86906338
20
14.8818398
11
6.86381485
21
14.8663881
0
LINE
8
0
10
6.86381485
20
14.8663881
11
6.71143866
21
14.4177942
0
LINE
8
0
10
6.71143866
20
14.4177942
11
6.70327651
21
14.4036634
0
LINE
8
0
10
6.70327651
20
14.4036634
11
6.46631193
21
13.9934158
0
LINE
8
0
10
6.46631193
20
13.9934158
11
6.45554985
21
13.9811489
0
LINE
8
0
10
6.45554985
20
13.9811489
11
6.1431036
21
13.6250134
0
LINE
8
0
10
6.1431036
20
13.6250134
11
6.13015514
21
13.6150817
0
LINE
8
0
10
6.13015514
20
13.6150817
11
5.75423336
21
13.326745
0
LINE
8
0
10
5.75423336
20
13.326745
11
5.73959614
21
13.3195303
0
LINE
8
0
10
5.73959614
20
13.3195303
11
5.31464624
21
13.1100721
0
LINE
8
0
10
5.31464624
20
13.1100721
11
5.29888275
21
13.1058517
0
LINE
8
0
10
5.29888275
20
13.1058517
11
4.84123468
21
12.9833221
0
LINE
8
0
10
4.84123468
20
12.9833221
11
4.82495071
21
12.9822581
0
LINE
8
0
10
4.82495071
20
12.9822581
11
4.35219193
21
12.9513655
0
LINE
8
0
10
4.35219193
20
12.9513655
11
4.33601326
21
12.9534987
0
LINE
8
0
10
4.33601326
20
12.9534987
11
3.86631179
21
13.0154305
0
LINE
8
0
10
3.86631179
20
13.0154305
11
3.85086016
21
13.020679
0
LINE
8
0
10
3.85086016
20
13.020679
11
3.40226603
21
13.1730547
0
LINE
8
0
10
3.40226603
20
13.1730547
11
3.38813522
21
13.1812168
0
LINE
8
0
10
3.38813522
20
13.1812168
11
2.97788763
21
13.4181814
0
LINE
8
0
10
2.97788763
20
13.4181814
11
2.9656207
21
13.4289435
0
LINE
8
0
10
2.9656207
20
13.4289435
11
2.60948539
21
13.7413902
0
LINE
8
0
10
2.60948539
20
13.7413902
11
-10.6043354
21
27.8552228
0
LINE
8
0
10
-10.6043354
20
27.8552228
11
-11.0594797
21
28.3413677
0
LINE
8
0
10
-11.0594797
20
28.3413677
11
-11.0694114
21
28.3543162
0
LINE
8
0
10
-11.0694114
20
28.3543162
11
-11.0694114
21
28.3543162
0
LINE
8
0
10
-2.14011359
20
29.8347607
11
-2.14732828
21
29.8493979
0
LINE
8
0
10
-2.14732828
20
29.8493979
11
-2.35678625
21
30.2743492
0
LINE
8
0
10
-2.35678625
20
30.2743492
11
-2.36100673
21
30.2901126
0
LINE
8
0
10
-2.36100673
20
30.2901126
11
-2.48353624
21
30.7477589
0
LINE
8
0
10
-2.48353624
20
30.7477589
11
-2.48460033
21
30.7640429
0
LINE
8
0
10
-2.48460033
20
30.7640429
11
-2.51549292
21
31.2368031
0
LINE
8
0
10
-2.51549292
20
31.2368031
11
-2.5133597
21
31.2529817
0
LINE
8
0
10
-2.5133597
20
31.2529817
11
-2.45142794
21
31.722683
0
LINE
8
0
10
-2.45142794
20
31.722683
11
-2.44617942
21
31.7381346
0
LINE
8
0
10
-2.44617942
20
31.7381346
11
-2.29380369
21
32.1867294
0
LINE
8
0
10
-2.29380369
20
32.1867294
11
-2.28564155
21
32.2008602
0
LINE
8
0
10
-2.28564155
20
32.2008602
11
-2.04867697
21
32.6111069
0
LINE
8
0
10
-2.04867697
20
32.6111069
11
-2.03791488
21
32.6233737
0
LINE
8
0
10
-2.03791488
20
32.6233737
11
-1.7254684
21
32.9795074
0
LINE
8
0
10
-1.7254684
20
32.9795074
11
-1.71251994
21
32.9894392
0
LINE
8
0
10
-1.71251994
20
32.9894392
11
-1.3365984
21
33.2777786
0
LINE
8
0
10
-1.3365984
20
33.2777786
11
-1.32196117
21
33.2849933
0
LINE
8
0
10
-1.32196117
20
33.2849933
11
-0.897011101
21
33.4944496
0
LINE
8
0
10
-0.897011101
20
33.4944496
11
-0.881247615
21
33.4986701
0
LINE
8
0
10
-0.881247615
20
33.4986701
11
-0.42359966
21
33.6212006
0
LINE
8
0
10
-0.42359966
20
33.6212006
11
-0.407315689
21
33.6222646
0
LINE
8
0
10
-0.407315689
20
33.6222646
11
0.0654430464
21
33.6531563
0
LINE
8
0
10
0.0654430464
20
33.6531563
11
0.0816217169
21
33.6510231
0
LINE
8
0
10
0.0816217169
20
33.6510231
11
0.551323354
21
33.5890923
0
LINE
8
0
10
0.551323354
20
33.5890923
11
0.566774988
21
33.5838438
0
LINE
8
0
10
0.566774988
20
33.5838438
11
1.01536918
21
33.431469
0
LINE
8
0
10
1.01536918
20
33.431469
11
1.02949997
21
33.4233068
0
LINE
8
0
10
1.02949997
20
33.4233068
11
1.43974745
21
33.1863403
0
LINE
8
0
10
1.43974745
20
33.1863403
11
1.45201438
21
33.1755783
0
LINE
8
0
10
1.45201438
20
33.1755783
11
1.8081497
21
32.8631325
0
LINE
8
0
10
1.8081497
20
32.8631325
11
8.41506029
21
25.8062153
0
LINE
8
0
10
8.41506029
20
25.8062153
11
8.64263248
21
25.5631428
0
LINE
8
0
10
8.64263248
20
25.5631428
11
8.65256412
21
25.5501943
0
LINE
8
0
10
8.65256412
20
25.5501943
11
8.9409008
21
25.1742725
0
LINE
8
0
10
8.9409008
20
25.1742725
11
8.9481155
21
25.1596353
0
LINE
8
0
10
8.9481155
20
25.1596353
11
9.1575737
21
24.7346859
0
LINE
8
0
10
9.1575737
20
24.7346859
11
9.16179418
21
24.7189224
0
LINE
8
0
10
9.16179418
20
24.7189224
11
9.28432369
21
24.2612743
0
LINE
8
0
10
9.28432369
20
24.2612743
11
9.28538777
21
24.2449904
0
LINE
8
0
10
9.28538777
20
24.2449904
11
9.31628036
21
23.7722321
0
LINE
8
0
10
9.31628036
20
23.7722321
11
9.31414715
21
23.7560534
0
LINE
8
0
10
9.31414715
20
23.7560534
11
9.25221539
21
23.2863522
0
LINE
8
0
10
9.25221539
20
23.2863522
11
9.24696687
21
23.2709005
0
LINE
8
0
10
9.24696687
20
23.2709005
11
9.09459114
21
22.8223057
0
LINE
8
0
10
9.09459114
20
22.8223057
11
9.086429
21
22.8081748
0
LINE
8
0
10
9.086429
20
22.8081748
11
8.84946442
21
22.3979263
0
LINE
8
0
10
8.84946442
20
22.3979263
11
8.83870232
21
22.3856595
0
LINE
8
0
10
8.83870232
20
22.3856595
11
8.52625561
21
22.0295258
0
LINE
8
0
10
8.52625561
20
22.0295258
11
8.51330718
21
22.0195941
0
LINE
8
0
10
8.51330718
20
22.0195941
11
8.13738632
21
21.7312565
0
LINE
8
0
10
8.13738632
20
21.7312565
11
8.12274909
21
21.7240418
0
LINE
8
0
10
8.12274909
20
21.7240418
11
7.69779873
21
21.5145836
0
LINE
8
0
10
7.69779873
20
21.5145836
11
7.68203524
21
21.5103631
0
LINE
8
0
10
7.68203524
20
21.5103631
11
7.22438717
21
21.3878345
0
LINE
8
0
10
7.22438717
20
21.3878345
11
7.2081032
21
21.3867704
0
LINE
8
0
10
7.2081032
20
21.3867704
11
6.73534441
21
21.3558769
0
LINE
8
0
10
6.73534441
20
21.3558769
11
6.71916574
21
21.3580102
0
LINE
8
0
10
6.71916574
20
21.3580102
11
6.24946404
21
21.4199429
0
LINE
8
0
10
6.24946404
20
21.4199429
11
6.23401241
21
21.4251913
0
LINE
8
0
10
6.23401241
20
21.4251913
11
5.78541851
21
21.5775661
0
LINE
8
0
10
5.78541851
20
21.5775661
11
5.77128771
21
21.5857283
0
LINE
8
0
10
5.77128771
20
21.5857283
11
5.36104012
21
21.8226929
0
LINE
8
0
10
5.36104012
20
21.8226929
11
5.34877318
21
21.8334549
0
LINE
8
0
10
5.34877318
20
21.8334549
11
4.99263763
21
22.1459007
0
LINE
8
0
10
4.99263763
20
22.1459007
11
-1.61427285
21
29.202818
0
LINE
8
0
10
-1.61427285
20
29.202818
11
-1.84184504
21
29.4458904
0
LINE
8
0
10
-1.84184504
20
29.4458904
11
-1.85177668
21
29.4588389
0
LINE
8
0
10
-1.85177668
20
29.4588389
11
-2.14011359
21
29.8347607
0
LINE
8
0
10
-2.14011359
20
29.8347607
11
-2.14011359
21
29.8347607
0
LINE
8
0
10
-1.67928884
20
13.0413902
11
-1.67404032
21
13.0568419
0
LINE
8
0
10
-1.67404032
20
13.0568419
11
-1.61210867
21
13.526544
0
LINE
8
0
10
-1.61210867
20
13.526544
11
-1.60997546
21
13.5427227
0
LINE
8
0
10
-1.60997546
20
13.5427227
11
-1.64086793
21
14.015481
0
LINE
8
0
10
-1.64086793
20
14.015481
11
-1.64193201
21
14.031765
0
LINE
8
0
10
-1.64193201
20
14.031765
11
-1.76446164
21
14.4894131
0
LINE
8
0
10
-1.76446164
20
14.4894131
11
-1.76868212
21
14.5051765
0
LINE
8
0
10
-1.76868212
20
14.5051765
11
-1.97814009
21
14.9301269
0
LINE
8
0
10
-1.97814009
20
14.9301269
11
-1.98535478
21
14.9447641
0
LINE
8
0
10
-1.98535478
20
14.9447641
11
-2.27369181
21
15.3206859
0
LINE
8
0
10
-2.27369181
20
15.3206859
11
-2.28362346
21
15.3336344
0
LINE
8
0
10
-2.28362346
20
15.3336344
11
-2.51119563
21
15.5767068
0
LINE
8
0
10
-2.51119563
20
15.5767068
11
-9.11810589
21
22.6336231
0
LINE
8
0
10
-9.11810589
20
22.6336231
11
-9.47424143
21
22.9460708
0
LINE
8
0
10
-9.47424143
20
22.9460708
11
-9.48650837
21
22.9568329
0
LINE
8
0
10
-9.48650837
20
22.9568329
11
-9.89675596
21
23.1937956
0
LINE
8
0
10
-9.89675596
20
23.1937956
11
-9.91088676
21
23.2019577
0
LINE
8
0
10
-9.91088676
20
23.2019577
11
-10.3594807
21
23.3543344
0
LINE
8
0
10
-10.3594807
20
23.3543344
11
-10.3749323
21
23.3595829
0
LINE
8
0
10
-10.3749323
20
23.3595829
11
-10.8446345
21
23.4215156
0
LINE
8
0
10
-10.8446345
20
23.4215156
11
-10.8608131
21
23.4236488
0
LINE
8
0
10
-10.8608131
20
23.4236488
11
-11.3335715
21
23.3927553
0
LINE
8
0
10
-11.3335715
20
23.3927553
11
-11.3498554
21
23.3916912
0
LINE
8
0
10
-11.3498554
20
23.3916912
11
-11.8075035
21
23.2691608
0
LINE
8
0
10
-11.8075035
20
23.2691608
11
-11.823267
21
23.2649403
0
LINE
8
0
10
-11.823267
20
23.2649403
11
-12.2482173
21
23.0554839
0
LINE
8
0
10
-12.2482173
20
23.0554839
11
-12.2628546
21
23.0482693
0
LINE
8
0
10
-12.2628546
20
23.0482693
11
-12.6387754
21
22.7599317
0
LINE
8
0
10
-12.6387754
20
22.7599317
11
-12.6517239
21
22.75
0
LINE
8
0
10
-12.6517239
20
22.75
11
-12.9641706
21
22.3938645
0
LINE
8
0
10
-12.9641706
20
22.3938645
11
-12.9749327
21
22.3815975
0
LINE
8
0
10
-12.9749327
20
22.3815975
11
-13.2118973
21
21.9713508
0
LINE
8
0
10
-13.2118973
20
21.9713508
11
-13.2200594
21
21.9572201
0
LINE
8
0
10
-13.2200594
20
21.9572201
11
-13.3724351
21
21.5086253
0
LINE
8
0
10
-13.3724351
20
21.5086253
11
-13.3776836
21
21.4931736
0
LINE
8
0
10
-13.3776836
20
21.4931736
11
-13.4396154
21
21.0234724
0
LINE
8
0
10
-13.4396154
20
21.0234724
11
-13.4417486
21
21.0072937
0
LINE
8
0
10
-13.4417486
20
21.0072937
11
-13.410856
21
20.5345354
0
LINE
8
0
10
-13.410856
20
20.5345354
11
-13.4097919
21
20.5182514
0
LINE
8
0
10
-13.4097919
20
20.5182514
11
-13.2872624
21
20.0606033
0
LINE
8
0
10
-13.2872624
20
20.0606033
11
-13.283042
21
20.0448399
0
LINE
8
0
10
-13.283042
20
20.0448399
11
-13.0735838
21
19.6198886
0
LINE
8
0
10
-13.0735838
20
19.6198886
11
-13.0663691
21
19.6052513
0
LINE
8
0
10
-13.0663691
20
19.6052513
11
-12.7780324
21
19.2293295
0
LINE
8
0
10
-12.7780324
20
19.2293295
11
-12.7681007
21
19.2163811
0
LINE
8
0
10
-12.7681007
20
19.2163811
11
-12.5405286
21
18.9733086
0
LINE
8
0
10
-12.5405286
20
18.9733086
11
-5.93361807
21
11.9163923
0
LINE
8
0
10
-5.93361807
20
11.9163923
11
-5.57748298
21
11.6039456
0
LINE
8
0
10
-5.57748298
20
11.6039456
11
-5.56521606
21
11.5931835
0
LINE
8
0
10
-5.56521606
20
11.5931835
11
-5.15496847
21
11.3562199
0
LINE
8
0
10
-5.15496847
20
11.3562199
11
-5.14083767
21
11.3480577
0
LINE
8
0
10
-5.14083767
20
11.3480577
11
-4.69224331
21
11.1956811
0
LINE
8
0
10
-4.69224331
20
11.1956811
11
-4.67679167
21
11.1904325
0
LINE
8
0
10
-4.67679167
20
11.1904325
11
-4.20708997
21
11.1285008
0
LINE
8
0
10
-4.20708997
20
11.1285008
11
-4.19091129
21
11.1263676
0
LINE
8
0
10
-4.19091129
20
11.1263676
11
-3.71815274
21
11.1572602
0
LINE
8
0
10
-3.71815274
20
11.1572602
11
-3.70186877
21
11.1583242
0
LINE
8
0
10
-3.70186877
20
11.1583242
11
-3.2442207
21
11.2808547
0
LINE
8
0
10
-3.2442207
20
11.2808547
11
-3.22845721
21
11.2850752
0
LINE
8
0
10
-3.22845721
20
11.2850752
11
-2.80350731
21
11.4945325
0
LINE
8
0
10
-2.80350731
20
11.4945325
11
-2.7888701
21
11.5017471
0
LINE
8
0
10
-2.7888701
20
11.5017471
11
-2.41294855
21
11.7900847
0
LINE
8
0
10
-2.41294855
20
11.7900847
11
-2.4000001
21
11.8000164
0
LINE
8
0
10
-2.4000001
20
11.8000164
11
-2.08755338
21
12.156151
0
LINE
8
0
10
-2.08755338
20
12.156151
11
-2.07679129
21
12.1684179
0
LINE
8
0
10
-2.07679129
20
12.1684179
11
-1.83982694
21
12.5786655
0
LINE
8
0
10
-1.83982694
20
12.5786655
11
-1.8316648
21
12.5927963
0
LINE
8
0
10
-1.8316648
20
12.5927963
11
-1.67928884
21
13.0413902
0
LINE
8
0
10
-1.67928884
20
13.0413902
11
-1.67928884
21
13.0413902
0
LINE
8
0
10
10.8366837
20
46.5
11
-0.108551783
21
46.5
0
LINE
8
0
10
-0.108551783
20
46.5
11
-11.5388888
21
46.5
0
LINE
8
0
10
-11.5388888
20
46.5
11
-11.6178664
21
46.5
0
LINE
8
0
10
-11.6178664
20
46.5
11
-11.7711054
21
46.5
0
LINE
8
0
10
-11.7711054
20
46.5
11
-11.9875696
21
46.5
0
LINE
8
0
10
-11.9875696
20
46.5
11
-12.2470973
21
46.5
0
LINE
8
0
10
-12.2470973
20
46.5
11
-12.5238594
21
46.5
0
LINE
8
0
10
-12.5238594
20
46.5
11
-12.7913755
21
46.5
0
LINE
8
0
10
-12.7913755
20
46.5
11
-13.027157
21
46.5
0
LINE
8
0
10
-13.027157
20
46.5
11
-13.2154811
21
46.5
0
LINE
8
0
10
-13.2154811
20
46.5
11
-13.3479336
21
46.5
0
LINE
8
0
10
-13.3479336
20
46.5
11
-16.6979763
21
46.5
0
LINE
8
0
10
-16.6979763
20
46.5
11
-18.5499992
21
46.5
0
LINE
8
0
10
-18.5499992
20
46.5
11
-18.5499992
21
46.1356807
0
LINE
8
0
10
-18.5499992
20
46.1356807
11
-18.5499992
21
45.6513891
0
LINE
8
0
10
-18.5499992
20
45.6513891
11
-18.5499992
21
45.6067314
0
LINE
8
0
10
-18.5499992
20
45.6067314
11
-18.5499992
21
45.5143499
0
LINE
8
0
10
-18.5499992
20
45.5143499
11
-18.5499992
21
45.3764876
0
LINE
8
0
10
-18.5499992
20
45.3764876
11
-18.5499992
21
45.1992049
0
LINE
8
0
10
-18.5499992
20
45.1992049
11
-18.5499992
21
42.1458049
0
LINE
8
0
10
-18.5499992
20
42.1458049
11
-18.5499992
21
42.0686186
0
LINE
8
0
10
-18.5499992
20
42.0686186
11
-18.5499992
21
41.9736054
0
LINE
8
0
10
-18.5499992
20
41.9736054
11
-18.5499992
21
40.3941758
0
LINE
8
0
10
-18.5499992
20
40.3941758
11
-18.5499992
21
40.3468417
0
LINE
8
0
10
-18.5499992
20
40.3468417
11
-18.5499992
21
40.2962392
0
LINE
8
0
10
-18.5499992
20
40.2962392
11
-18.5499992
21
40.2468816
0
LINE
8
0
10
-18.5499992
20
40.2468816
11
-18.5499992
21
40.2028106
0
LINE
8
0
10
-18.5499992
20
40.2028106
11
-18.5499992
21
40.0569632
0
LINE
8
0
10
-18.5499992
20
40.0569632
11
-18.5499992
21
38.814127
0
LINE
8
0
10
-18.5499992
20
38.814127
11
-18.5499992
21
38.5472522
0
LINE
8
0
10
-18.5499992
20
38.5472522
11
-18.5499992
21
37.7887896
0
LINE
8
0
10
-18.5499992
20
37.7887896
11
-18.5499992
21
7.31447594
0
LINE
8
0
10
-18.5499992
20
7.31447594
11
-18.5499992
21
6.42828227
0
LINE
8
0
10
-18.5499992
20
6.42828227
11
-18.5499992
21
5.56250752
0
LINE
8
0
10
-18.5499992
20
5.56250752
11
-18.5499992
21
5.18864051
0
LINE
8
0
10
-18.5499992
20
5.18864051
11
-18.5499992
21
5.14401559
0
LINE
8
0
10
-18.5499992
20
5.14401559
11
-18.5499992
21
3.60767444
0
LINE
8
0
10
-18.5499992
20
3.60767444
11
-18.5499992
21
3.51857384
0
LINE
8
0
10
-18.5499992
20
3.51857384
11
-18.5499992
21
3.44906513
0
LINE
8
0
10
-18.5499992
20
3.44906513
11
-18.5499992
21
0.422956596
0
LINE
8
0
10
-18.5499992
20
0.422956596
11
-18.5499992
21
0.258081625
0
LINE
8
0
10
-18.5499992
20
0.258081625
11
-18.5499992
21
0.135420074
0
LINE
8
0
10
-18.5499992
20
0.135420074
11
-18.5499992
21
0.0595353032
0
LINE
8
0
10
-18.5499992
20
0.0595353032
11
-18.5499992
21
-0.65142372
0
LINE
8
0
10
-18.5499992
20
-0.65142372
11
-18.5499992
21
-0.69593304
0
LINE
8
0
10
-18.5499992
20
-0.69593304
11
-18.5499992
21
-1.10000002
0
LINE
8
0
10
-18.5499992
20
-1.10000002
11
-17.9781157
21
-1.10000002
0
LINE
8
0
10
-17.9781157
20
-1.10000002
11
-16.6979763
21
-1.10000002
0
LINE
8
0
10
-16.6979763
20
-1.10000002
11
-13.3479336
21
-1.10000002
0
LINE
8
0
10
-13.3479336
20
-1.10000002
11
-13.2154811
21
-1.10000002
0
LINE
8
0
10
-13.2154811
20
-1.10000002
11
-13.027157
21
-1.10000002
0
LINE
8
0
10
-13.027157
20
-1.10000002
11
-12.7913755
21
-1.10000002
0
LINE
8
0
10
-12.7913755
20
-1.10000002
11
-12.5238594
21
-1.10000002
0
LINE
8
0
10
-12.5238594
20
-1.10000002
11
-12.2470973
21
-1.10000002
0
LINE
8
0
10
-12.2470973
20
-1.10000002
11
-11.9875696
21
-1.10000002
0
LINE
8
0
10
-11.9875696
20
-1.10000002
11
-11.7711054
21
-1.10000002
0
LINE
8
0
10
-11.7711054
20
-1.10000002
11
-11.6178664
21
-1.10000002
0
LINE
8
0
10
-11.6178664
20
-1.10000002
11
-11.5388888
21
-1.10000002
0
LINE
8
0
10
-11.5388888
20
-1.10000002
11
-0.108551783
21
-1.10000002
0
LINE
8
0
10
-0.108551783
20
-1.10000002
11
10.8366837
21
-1.10000002
0
LINE
8
0
10
10.8366837
20
-1.10000002
11
10.9462351
21
-1.10000002
0
LINE
8
0
10
10.9462351
20
-1.10000002
11
11.1195049
21
-1.10000002
0
LINE
8
0
10
11.1195049
20
-1.10000002
11
11.3429524
21
-1.10000002
0
LINE
8
0
10
11.3429524
20
-1.10000002
11
11.5954968
21
-1.10000002
0
LINE
8
0
10
11.5954968
20
-1.10000002
11
11.8522282
21
-1.10000002
0
LINE
8
0
10
11.8522282
20
-1.10000002
11
12.0891704
21
-1.10000002
0
LINE
8
0
10
12.0891704
20
-1.10000002
11
12.2872967
21
-1.10000002
0
LINE
8
0
10
12.2872967
20
-1.10000002
11
12.4345719
21
-1.10000002
0
LINE
8
0
10
12.4345719
20
-1.10000002
11
13.75
21
-1.10000002
0
LINE
8
0
10
13.75
20
-1.10000002
11
13.75
21
2.33031144
0
LINE
8
0
10
13.75
20
2.33031144
11
13.75
21
4.46862618
0
LINE
8
0
10
13.75
20
4.46862618
11
13.75
21
11.9070191
0
LINE
8
0
10
13.75
20
11.9070191
11
13.75
21
41.0157469
0
LINE
8
0
10
13.75
20
41.0157469
11
13.75
21
43.1369496
0
LINE
8
0
10
13.75
20
43.1369496
11
13.75
21
46.5
0
LINE
8
0
10
13.75
20
46.5
11
12.4345719
21
46.5
0
LINE
8
0
10
12.4345719
20
46.5
11
12.2872967
21
46.5
0
LINE
8
0
10
12.2872967
20
46.5
11
12.0891704
21
46.5
0
LINE
8
0
10
12.0891704
20
46.5
11
11.8522282
21
46.5
0
LINE
8
0
10
11.8522282
20
46.5
11
11.5954968
21
46.5
0
LINE
8
0
10
11.5954968
20
46.5
11
11.3429524
21
46.5
0
LINE
8
0
10
11.3429524
20
46.5
11
11.1195049
21
46.5
0
LINE
8
0
10
11.1195049
20
46.5
11
10.9462351
21
46.5
0
LINE
8
0
10
10.9462351
20
46.5
11
10.8366837
21
46.5
0
LINE
8
0
10
10.8366837
20
46.5
11
10.8366837
21
46.5
0
ENDSEC
0
EOF
