0
SECTION
2
ENTITIES
0
LINE
8
0
10
12.4979203
20
46.5
11
13.75
21
46.5
0
LINE
8
0
10
13.75
20
46.5
11
13.75
21
43.2989074
0
LINE
8
0
10
13.75
20
43.2989074
11
13.75
21
41.2798577
0
LINE
8
0
10
13.75
20
41.2798577
11
13.75
21
13.5729488
0
LINE
8
0
10
13.75
20
13.5729488
11
13.75
21
4.20045213
0
LINE
8
0
10
13.75
20
4.20045213
11
13.75
21
2.1651144
0
LINE
8
0
10
13.75
20
2.1651144
11
13.75
21
-1.10000002
0
LINE
8
0
10
13.75
20
-1.10000002
11
12.4979203
21
-1.10000002
0
LINE
8
0
10
12.4979203
20
-1.10000002
11
12.3577376
21
-1.10000002
0
LINE
8
0
10
12.3577376
20
-1.10000002
11
12.1691527
21
-1.10000002
0
LINE
8
0
10
12.1691527
20
-1.10000002
11
11.9436211
21
-1.10000002
0
LINE
8
0
10
11.9436211
20
-1.10000002
11
11.6992534
21
-1.10000002
0
LINE
8
0
10
11.6992534
20
-1.10000002
11
11.458871
21
-1.10000002
0
LINE
8
0
10
11.458871
20
-1.10000002
11
11.2461844
21
-1.10000002
0
LINE
8
0
10
11.2461844
20
-1.10000002
11
11.0812589
21
-1.10000002
0
LINE
8
0
10
11.0812589
20
-1.10000002
11
10.9769833
21
-1.10000002
0
LINE
8
0
10
10.9769833
20
-1.10000002
11
0.558848728
21
-1.10000002
0
LINE
8
0
10
0.558848728
20
-1.10000002
11
-11.732056
21
-1.10000002
0
LINE
8
0
10
-11.732056
20
-1.10000002
11
-11.8072302
21
-1.10000002
0
LINE
8
0
10
-11.8072302
20
-1.10000002
11
-11.9530895
21
-1.10000002
0
LINE
8
0
10
-11.9530895
20
-1.10000002
11
-12.1591292
21
-1.10000002
0
LINE
8
0
10
-12.1591292
20
-1.10000002
11
-12.4061585
21
-1.10000002
0
LINE
8
0
10
-12.4061585
20
-1.10000002
11
-12.6695924
21
-1.10000002
0
LINE
8
0
10
-12.6695924
20
-1.10000002
11
-12.9242254
21
-1.10000002
0
LINE
8
0
10
-12.9242254
20
-1.10000002
11
-13.1486521
21
-1.10000002
0
LINE
8
0
10
-13.1486521
20
-1.10000002
11
-13.327907
21
-1.10000002
0
LINE
8
0
10
-13.327907
20
-1.10000002
11
-13.4539807
21
-1.10000002
0
LINE
8
0
10
-13.4539807
20
-1.10000002
11
-16.6426921
21
-1.10000002
0
LINE
8
0
10
-16.6426921
20
-1.10000002
11
-17.9610446
21
-1.10000002
0
LINE
8
0
10
-17.9610446
20
-1.10000002
11
-18.5499992
21
-1.10000002
0
LINE
8
0
10
-18.5499992
20
-1.10000002
11
-18.5499992
21
-0.683871339
0
LINE
8
0
10
-18.5499992
20
-0.683871339
11
-18.5499992
21
-0.638033383
0
LINE
8
0
10
-18.5499992
20
-0.638033383
11
-18.5499992
21
0.094148298
0
LINE
8
0
10
-18.5499992
20
0.094148298
11
-18.5499992
21
0.172298286
0
LINE
8
0
10
-18.5499992
20
0.172298286
11
-18.5499992
21
0.298621376
0
LINE
8
0
10
-18.5499992
20
0.298621376
11
-18.5499992
21
0.468417987
0
LINE
8
0
10
-18.5499992
20
0.468417987
11
-18.5499992
21
3.39455628
0
LINE
8
0
10
-18.5499992
20
3.39455628
11
-18.5499992
21
3.4709421
0
LINE
8
0
10
-18.5499992
20
3.4709421
11
-18.5499992
21
3.5688582
0
LINE
8
0
10
-18.5499992
20
3.5688582
11
-18.5499992
21
5.05145383
0
LINE
8
0
10
-18.5499992
20
5.05145383
11
-18.5499992
21
5.10768195
0
LINE
8
0
10
-18.5499992
20
5.10768195
11
-18.5499992
21
5.5787605
0
LINE
8
0
10
-18.5499992
20
5.5787605
11
-18.5499992
21
6.66965083
0
LINE
8
0
10
-18.5499992
20
6.66965083
11
-18.5499992
21
7.78626935
0
LINE
8
0
10
-18.5499992
20
7.78626935
11
-18.5499992
21
37.2138387
0
LINE
8
0
10
-18.5499992
20
37.2138387
11
-18.5499992
21
38.169514
0
LINE
8
0
10
-18.5499992
20
38.169514
11
-18.5499992
21
38.5057807
0
LINE
8
0
10
-18.5499992
20
38.5057807
11
-18.5499992
21
40.0717746
0
LINE
8
0
10
-18.5499992
20
40.0717746
11
-18.5499992
21
40.2555447
0
LINE
8
0
10
-18.5499992
20
40.2555447
11
-18.5499992
21
40.3110749
0
LINE
8
0
10
-18.5499992
20
40.3110749
11
-18.5499992
21
40.3732662
0
LINE
8
0
10
-18.5499992
20
40.3732662
11
-18.5499992
21
40.4370262
0
LINE
8
0
10
-18.5499992
20
40.4370262
11
-18.5499992
21
40.4966679
0
LINE
8
0
10
-18.5499992
20
40.4966679
11
-18.5499992
21
42.0204634
0
LINE
8
0
10
-18.5499992
20
42.0204634
11
-18.5499992
21
42.124877
0
LINE
8
0
10
-18.5499992
20
42.124877
11
-18.5499992
21
42.2097001
0
LINE
8
0
10
-18.5499992
20
42.2097001
11
-18.5499992
21
45.1603752
0
LINE
8
0
10
-18.5499992
20
45.1603752
11
-18.5499992
21
45.3429499
0
LINE
8
0
10
-18.5499992
20
45.3429499
11
-18.5499992
21
45.4849275
0
LINE
8
0
10
-18.5499992
20
45.4849275
11
-18.5499992
21
45.5800667
0
LINE
8
0
10
-18.5499992
20
45.5800667
11
-18.5499992
21
45.6260574
0
LINE
8
0
10
-18.5499992
20
45.6260574
11
-18.5499992
21
46.1248055
0
LINE
8
0
10
-18.5499992
20
46.1248055
11
-18.5499992
21
46.5
0
LINE
8
0
10
-18.5499992
20
46.5
11
-16.6426921
21
46.5
0
LINE
8
0
10
-16.6426921
20
46.5
11
-13.4539807
21
46.5
0
LINE
8
0
10
-13.4539807
20
46.5
11
-13.327907
21
46.5
0
LINE
8
0
10
-13.327907
20
46.5
11
-13.1486521
21
46.5
0
LINE
8
0
10
-13.1486521
20
46.5
11
-12.9242254
21
46.5
0
LINE
8
0
10
-12.9242254
20
46.5
11
-12.6695924
21
46.5
0
LINE
8
0
10
-12.6695924
20
46.5
11
-12.4061585
21
46.5
0
LINE
8
0
10
-12.4061585
20
46.5
11
-12.1591292
21
46.5
0
LINE
8
0
10
-12.1591292
20
46.5
11
-11.9530895
21
46.5
0
LINE
8
0
10
-11.9530895
20
46.5
11
-11.8072302
21
46.5
0
LINE
8
0
10
-11.8072302
20
46.5
11
-11.732056
21
46.5
0
LINE
8
0
10
-11.732056
20
46.5
11
0.558848728
21
46.5
0
LINE
8
0
10
0.558848728
20
46.5
11
10.9769833
21
46.5
0
LINE
8
0
10
10.9769833
20
46.5
11
11.0812589
21
46.5
0
LINE
8
0
10
11.0812589
20
46.5
11
11.2461844
21
46.5
0
LINE
8
0
10
11.2461844
20
46.5
11
11.458871
21
46.5
0
LINE
8
0
10
11.458871
20
46.5
11
11.6992534
21
46.5
0
LINE
8
0
10
11.6992534
20
46.5
11
11.9436211
21
46.5
0
LINE
8
0
10
11.9436211
20
46.5
11
12.1691527
21
46.5
0
LINE
8
0
10
12.1691527
20
46.5
11
12.3577376
21
46.5
0
LINE
8
0
10
12.3577376
20
46.5
11
12.4979203
21
46.5
0
LINE
8
0
10
12.4979203
20
46.5
11
12.4979203
21
46.5
0
LINE
8
0
10
6.69186477
20
14.3839067
11
6.71143866
21
14.4177942
0
LINE
8
0
10
6.71143866
20
14.4177942
11
6.85647671
21
14.8447847
0
LINE
8
0
10
6.85647671
20
14.8447847
11
6.86906338
21
14.8818398
0
LINE
8
0
10
6.86906338
20
14.8818398
11
6.92801219
21
15.3289211
0
LINE
8
0
10
6.92801219
20
15.3289211
11
6.93312788
21
15.3677197
0
LINE
8
0
10
6.93312788
20
15.3677197
11
6.90372302
21
15.8177117
0
LINE
8
0
10
6.90372302
20
15.8177117
11
6.90117121
21
15.8567629
0
LINE
8
0
10
6.90117121
20
15.8567629
11
6.78454247
21
16.2923706
0
LINE
8
0
10
6.78454247
20
16.2923706
11
6.77442122
21
16.3301735
0
LINE
8
0
10
6.77442122
20
16.3301735
11
6.57505055
21
16.73466
0
LINE
8
0
10
6.57505055
20
16.73466
11
6.55774879
21
16.769762
0
LINE
8
0
10
6.55774879
20
16.769762
11
6.2832974
21
17.1275802
0
LINE
8
0
10
6.2832974
20
17.1275802
11
6.25948
21
17.1586323
0
LINE
8
0
10
6.25948
20
17.1586323
11
5.16798408
21
18.3244715
0
LINE
8
0
10
5.16798408
20
18.3244715
11
-7.40948534
21
31.7586098
0
LINE
8
0
10
-7.40948534
20
31.7586098
11
-7.7484701
21
32.0560088
0
LINE
8
0
10
-7.7484701
20
32.0560088
11
-7.77788782
21
32.0818176
0
LINE
8
0
10
-7.77788782
20
32.0818176
11
-8.16837826
21
32.3073722
0
LINE
8
0
10
-8.16837826
20
32.3073722
11
-8.20226574
21
32.3269463
0
LINE
8
0
10
-8.20226574
20
32.3269463
11
-8.62925712
21
32.471983
0
LINE
8
0
10
-8.62925712
20
32.471983
11
-8.66631222
21
32.4845695
0
LINE
8
0
10
-8.66631222
20
32.4845695
11
-9.11339357
21
32.5435179
0
LINE
8
0
10
-9.11339357
20
32.5435179
11
-9.15219212
21
32.5486336
0
LINE
8
0
10
-9.15219212
20
32.5486336
11
-9.60218333
21
32.5192296
0
LINE
8
0
10
-9.60218333
20
32.5192296
11
-9.6412344
21
32.5166779
0
LINE
8
0
10
-9.6412344
20
32.5166779
11
-10.076843
21
32.4000482
0
LINE
8
0
10
-10.076843
20
32.4000482
11
-10.114646
21
32.3899269
0
LINE
8
0
10
-10.114646
20
32.3899269
11
-10.5191315
21
32.1905576
0
LINE
8
0
10
-10.5191315
20
32.1905576
11
-10.5542336
21
32.1732559
0
LINE
8
0
10
-10.5542336
20
32.1732559
11
-10.9120517
21
31.8988041
0
LINE
8
0
10
-10.9120517
20
31.8988041
11
-10.9431038
21
31.8749866
0
LINE
8
0
10
-10.9431038
20
31.8749866
11
-11.2405037
21
31.5360019
0
LINE
8
0
10
-11.2405037
20
31.5360019
11
-11.2663126
21
31.5065842
0
LINE
8
0
10
-11.2663126
20
31.5065842
11
-11.4918646
21
31.1160942
0
LINE
8
0
10
-11.4918646
20
31.1160942
11
-11.5114384
21
31.0822067
0
LINE
8
0
10
-11.5114384
20
31.0822067
11
-11.6564769
21
30.6552153
0
LINE
8
0
10
-11.6564769
20
30.6552153
11
-11.6690636
21
30.6181602
0
LINE
8
0
10
-11.6690636
20
30.6181602
11
-11.7280128
21
30.1710789
0
LINE
8
0
10
-11.7280128
20
30.1710789
11
-11.7331285
21
30.1322803
0
LINE
8
0
10
-11.7331285
20
30.1322803
11
-11.7037237
21
29.6822891
0
LINE
8
0
10
-11.7037237
20
29.6822891
11
-11.7011719
21
29.6432381
0
LINE
8
0
10
-11.7011719
20
29.6432381
11
-11.5845423
21
29.2076294
0
LINE
8
0
10
-11.5845423
20
29.2076294
11
-11.5744209
21
29.1698265
0
LINE
8
0
10
-11.5744209
20
29.1698265
11
-11.3750507
21
28.76534
0
LINE
8
0
10
-11.3750507
20
28.76534
11
-11.357749
21
28.730238
0
LINE
8
0
10
-11.357749
20
28.730238
11
-11.0832971
21
28.3724198
0
LINE
8
0
10
-11.0832971
20
28.3724198
11
-11.0594797
21
28.3413677
0
LINE
8
0
10
-11.0594797
20
28.3413677
11
-9.96798381
21
27.1755285
0
LINE
8
0
10
-9.96798381
20
27.1755285
11
2.60948539
21
13.7413902
0
LINE
8
0
10
2.60948539
20
13.7413902
11
2.94846993
21
13.4439903
0
LINE
8
0
10
2.94846993
20
13.4439903
11
2.97788763
21
13.4181814
0
LINE
8
0
10
2.97788763
20
13.4181814
11
3.36837851
21
13.1926286
0
LINE
8
0
10
3.36837851
20
13.1926286
11
3.40226603
21
13.1730547
0
LINE
8
0
10
3.40226603
20
13.1730547
11
3.82925675
21
13.0280171
0
LINE
8
0
10
3.82925675
20
13.0280171
11
3.86631179
21
13.0154305
0
LINE
8
0
10
3.86631179
20
13.0154305
11
4.31339336
21
12.9564812
0
LINE
8
0
10
4.31339336
20
12.9564812
11
4.35219193
21
12.9513655
0
LINE
8
0
10
4.35219193
20
12.9513655
11
4.80218358
21
12.9807703
0
LINE
8
0
10
4.80218358
20
12.9807703
11
4.84123468
21
12.9833221
0
LINE
8
0
10
4.84123468
20
12.9833221
11
5.27684333
21
13.0999509
0
LINE
8
0
10
5.27684333
20
13.0999509
11
5.31464624
21
13.1100721
0
LINE
8
0
10
5.31464624
20
13.1100721
11
5.7191314
21
13.3094432
0
LINE
8
0
10
5.7191314
20
13.3094432
11
5.75423336
21
13.326745
0
LINE
8
0
10
5.75423336
20
13.326745
11
6.11205148
21
13.601196
0
LINE
8
0
10
6.11205148
20
13.601196
11
6.1431036
21
13.6250134
0
LINE
8
0
10
6.1431036
20
13.6250134
11
6.44050306
21
13.9639981
0
LINE
8
0
10
6.44050306
20
13.9639981
11
6.46631193
21
13.9934158
0
LINE
8
0
10
6.46631193
20
13.9934158
11
6.69186477
21
14.3839067
0
LINE
8
0
10
6.69186477
20
14.3839067
11
6.69186477
21
14.3839067
0
LINE
8
0
10
-2.14011359
20
29.8347607
11
-1.86566241
21
29.4769425
0
LINE
8
0
10
-1.86566241
20
29.4769425
11
-1.84184504
21
29.4458904
0
LINE
8
0
10
-1.84184504
20
29.4458904
11
-1.29609708
21
28.8629707
0
LINE
8
0
10
-1.29609708
20
28.8629707
11
4.99263763
21
22.1459007
0
LINE
8
0
10
4.99263763
20
22.1459007
11
5.33162239
21
21.8485017
0
LINE
8
0
10
5.33162239
20
21.8485017
11
5.36104012
21
21.8226929
0
LINE
8
0
10
5.36104012
20
21.8226929
11
5.75153099
21
21.59714
0
LINE
8
0
10
5.75153099
20
21.59714
11
5.78541851
21
21.5775661
0
LINE
8
0
10
5.78541851
20
21.5775661
11
6.21240901
21
21.4325294
0
LINE
8
0
10
6.21240901
20
21.4325294
11
6.24946404
21
21.4199429
0
LINE
8
0
10
6.24946404
20
21.4199429
11
6.69654583
21
21.3609927
0
LINE
8
0
10
6.69654583
20
21.3609927
11
6.73534441
21
21.3558769
0
LINE
8
0
10
6.73534441
20
21.3558769
11
7.18533607
21
21.3852827
0
LINE
8
0
10
7.18533607
20
21.3852827
11
7.22438717
21
21.3878345
0
LINE
8
0
10
7.22438717
20
21.3878345
11
7.65999581
21
21.5044624
0
LINE
8
0
10
7.65999581
20
21.5044624
11
7.69779873
21
21.5145836
0
LINE
8
0
10
7.69779873
20
21.5145836
11
8.10228432
21
21.7139547
0
LINE
8
0
10
8.10228432
20
21.7139547
11
8.13738632
21
21.7312565
0
LINE
8
0
10
8.13738632
20
21.7312565
11
8.49520357
21
22.0057083
0
LINE
8
0
10
8.49520357
20
22.0057083
11
8.52625561
21
22.0295258
0
LINE
8
0
10
8.52625561
20
22.0295258
11
8.82365551
21
22.3685088
0
LINE
8
0
10
8.82365551
20
22.3685088
11
8.84946442
21
22.3979263
0
LINE
8
0
10
8.84946442
20
22.3979263
11
9.07501725
21
22.7884181
0
LINE
8
0
10
9.07501725
20
22.7884181
11
9.09459114
21
22.8223057
0
LINE
8
0
10
9.09459114
20
22.8223057
11
9.23962875
21
23.2492971
0
LINE
8
0
10
9.23962875
20
23.2492971
11
9.25221539
21
23.2863522
0
LINE
8
0
10
9.25221539
20
23.2863522
11
9.31116464
21
23.7334335
0
LINE
8
0
10
9.31116464
20
23.7334335
11
9.31628036
21
23.7722321
0
LINE
8
0
10
9.31628036
20
23.7722321
11
9.2868755
21
24.2222233
0
LINE
8
0
10
9.2868755
20
24.2222233
11
9.28432369
21
24.2612743
0
LINE
8
0
10
9.28432369
20
24.2612743
11
9.16769496
21
24.696883
0
LINE
8
0
10
9.16769496
20
24.696883
11
9.1575737
21
24.7346859
0
LINE
8
0
10
9.1575737
20
24.7346859
11
8.95820259
21
25.1391706
0
LINE
8
0
10
8.95820259
20
25.1391706
11
8.9409008
21
25.1742725
0
LINE
8
0
10
8.9409008
20
25.1742725
11
8.66644984
21
25.5320907
0
LINE
8
0
10
8.66644984
20
25.5320907
11
8.64263248
21
25.5631428
0
LINE
8
0
10
8.64263248
20
25.5631428
11
8.09688452
21
26.1460625
0
LINE
8
0
10
8.09688452
20
26.1460625
11
1.8081497
21
32.8631325
0
LINE
8
0
10
1.8081497
20
32.8631325
11
1.46916515
21
33.1605315
0
LINE
8
0
10
1.46916515
20
33.1605315
11
1.43974745
21
33.1863403
0
LINE
8
0
10
1.43974745
20
33.1863403
11
1.04925668
21
33.4118949
0
LINE
8
0
10
1.04925668
20
33.4118949
11
1.01536918
21
33.431469
0
LINE
8
0
10
1.01536918
20
33.431469
11
0.588378399
21
33.5765057
0
LINE
8
0
10
0.588378399
20
33.5765057
11
0.551323354
21
33.5890923
0
LINE
8
0
10
0.551323354
20
33.5890923
11
0.104241621
21
33.6480406
0
LINE
8
0
10
0.104241621
20
33.6480406
11
0.0654430464
21
33.6531563
0
LINE
8
0
10
0.0654430464
20
33.6531563
11
-0.384548561
21
33.6237523
0
LINE
8
0
10
-0.384548561
20
33.6237523
11
-0.42359966
21
33.6212006
0
LINE
8
0
10
-0.42359966
20
33.6212006
11
-0.859208192
21
33.5045709
0
LINE
8
0
10
-0.859208192
20
33.5045709
11
-0.897011101
21
33.4944496
0
LINE
8
0
10
-0.897011101
20
33.4944496
11
-1.30149642
21
33.2950803
0
LINE
8
0
10
-1.30149642
20
33.2950803
11
-1.3365984
21
33.2777786
0
LINE
8
0
10
-1.3365984
20
33.2777786
11
-1.6944163
21
33.003325
0
LINE
8
0
10
-1.6944163
20
33.003325
11
-1.7254684
21
32.9795074
0
LINE
8
0
10
-1.7254684
20
32.9795074
11
-2.02286808
21
32.6405244
0
LINE
8
0
10
-2.02286808
20
32.6405244
11
-2.04867697
21
32.6111069
0
LINE
8
0
10
-2.04867697
20
32.6111069
11
-2.2742298
21
32.2206169
0
LINE
8
0
10
-2.2742298
20
32.2206169
11
-2.29380369
21
32.1867294
0
LINE
8
0
10
-2.29380369
20
32.1867294
11
-2.43884131
21
31.759738
0
LINE
8
0
10
-2.43884131
20
31.759738
11
-2.45142794
21
31.722683
0
LINE
8
0
10
-2.45142794
20
31.722683
11
-2.51037719
21
31.2756016
0
LINE
8
0
10
-2.51037719
20
31.2756016
11
-2.51549292
21
31.2368031
0
LINE
8
0
10
-2.51549292
20
31.2368031
11
-2.48608805
21
30.7868101
0
LINE
8
0
10
-2.48608805
20
30.7868101
11
-2.48353624
21
30.7477589
0
LINE
8
0
10
-2.48353624
20
30.7477589
11
-2.36690751
21
30.312152
0
LINE
8
0
10
-2.36690751
20
30.312152
11
-2.35678625
21
30.2743492
0
LINE
8
0
10
-2.35678625
20
30.2743492
11
-2.15741536
21
29.8698627
0
LINE
8
0
10
-2.15741536
20
29.8698627
11
-2.14011359
21
29.8347607
0
LINE
8
0
10
-2.14011359
20
29.8347607
11
-2.14011359
21
29.8347607
0
LINE
8
0
10
-12.6206718
20
22.7738174
11
-12.2628546
21
23.0482693
0
LINE
8
0
10
-12.2628546
20
23.0482693
11
-12.2277526
21
23.0655709
0
LINE
8
0
10
-12.2277526
20
23.0655709
11
-11.823267
21
23.2649403
0
LINE
8
0
10
-11.823267
20
23.2649403
11
-11.7854641
21
23.2750616
0
LINE
8
0
10
-11.7854641
20
23.2750616
11
-11.3498554
21
23.3916912
0
LINE
8
0
10
-11.3498554
20
23.3916912
11
-11.3108044
21
23.3942431
0
LINE
8
0
10
-11.3108044
20
23.3942431
11
-10.8608131
21
23.4236488
0
LINE
8
0
10
-10.8608131
20
23.4236488
11
-10.8220145
21
23.418533
0
LINE
8
0
10
-10.8220145
20
23.418533
11
-10.3749323
21
23.3595829
0
LINE
8
0
10
-10.3749323
20
23.3595829
11
-10.3378773
21
23.3469962
0
LINE
8
0
10
-10.3378773
20
23.3469962
11
-9.91088676
21
23.2019577
0
LINE
8
0
10
-9.91088676
20
23.2019577
11
-9.87699925
21
23.182384
0
LINE
8
0
10
-9.87699925
20
23.182384
11
-9.48650837
21
22.9568329
0
LINE
8
0
10
-9.48650837
20
22.9568329
11
-9.45709065
21
22.9310239
0
LINE
8
0
10
-9.45709065
20
22.9310239
11
-9.11810589
21
22.6336231
0
LINE
8
0
10
-9.11810589
20
22.6336231
11
-2.8293714
21
15.916554
0
LINE
8
0
10
-2.8293714
20
15.916554
11
-2.28362346
21
15.3336344
0
LINE
8
0
10
-2.28362346
20
15.3336344
11
-2.25980607
21
15.3025823
0
LINE
8
0
10
-2.25980607
20
15.3025823
11
-1.98535478
21
14.9447641
0
LINE
8
0
10
-1.98535478
20
14.9447641
11
-1.96805301
21
14.9096621
0
LINE
8
0
10
-1.96805301
20
14.9096621
11
-1.76868212
21
14.5051765
0
LINE
8
0
10
-1.76868212
20
14.5051765
11
-1.75856086
21
14.4673736
0
LINE
8
0
10
-1.75856086
20
14.4673736
11
-1.64193201
21
14.031765
0
LINE
8
0
10
-1.64193201
20
14.031765
11
-1.63938021
21
13.9927139
0
LINE
8
0
10
-1.63938021
20
13.9927139
11
-1.60997546
21
13.5427227
0
LINE
8
0
10
-1.60997546
20
13.5427227
11
-1.61509117
21
13.5039241
0
LINE
8
0
10
-1.61509117
20
13.5039241
11
-1.67404032
21
13.0568419
0
LINE
8
0
10
-1.67404032
20
13.0568419
11
-1.68662697
21
13.0197868
0
LINE
8
0
10
-1.68662697
20
13.0197868
11
-1.8316648
21
12.5927963
0
LINE
8
0
10
-1.8316648
20
12.5927963
11
-1.85123867
21
12.5589088
0
LINE
8
0
10
-1.85123867
20
12.5589088
11
-2.07679129
21
12.1684179
0
LINE
8
0
10
-2.07679129
20
12.1684179
11
-2.1026002
21
12.1390003
0
LINE
8
0
10
-2.1026002
20
12.1390003
11
-2.4000001
21
11.8000164
0
LINE
8
0
10
-2.4000001
20
11.8000164
11
-2.43105219
21
11.776199
0
LINE
8
0
10
-2.43105219
20
11.776199
11
-2.7888701
21
11.5017471
0
LINE
8
0
10
-2.7888701
20
11.5017471
11
-2.82397206
21
11.4844454
0
LINE
8
0
10
-2.82397206
20
11.4844454
11
-3.22845721
21
11.2850752
0
LINE
8
0
10
-3.22845721
20
11.2850752
11
-3.26626013
21
11.2749539
0
LINE
8
0
10
-3.26626013
20
11.2749539
11
-3.70186877
21
11.1583242
0
LINE
8
0
10
-3.70186877
20
11.1583242
11
-3.74091986
21
11.1557724
0
LINE
8
0
10
-3.74091986
20
11.1557724
11
-4.19091129
21
11.1263676
0
LINE
8
0
10
-4.19091129
20
11.1263676
11
-4.22970987
21
11.1314833
0
LINE
8
0
10
-4.22970987
20
11.1314833
11
-4.67679167
21
11.1904325
0
LINE
8
0
10
-4.67679167
20
11.1904325
11
-4.71384673
21
11.2030193
0
LINE
8
0
10
-4.71384673
20
11.2030193
11
-5.14083767
21
11.3480577
0
LINE
8
0
10
-5.14083767
20
11.3480577
11
-5.17472519
21
11.3676316
0
LINE
8
0
10
-5.17472519
20
11.3676316
11
-5.56521606
21
11.5931835
0
LINE
8
0
10
-5.56521606
20
11.5931835
11
-5.59463375
21
11.6189924
0
LINE
8
0
10
-5.59463375
20
11.6189924
11
-5.93361807
21
11.9163923
0
LINE
8
0
10
-5.93361807
20
11.9163923
11
-12.2223528
21
18.6334615
0
LINE
8
0
10
-12.2223528
20
18.6334615
11
-12.7681007
21
19.2163811
0
LINE
8
0
10
-12.7681007
20
19.2163811
11
-12.7919181
21
19.2474332
0
LINE
8
0
10
-12.7919181
20
19.2474332
11
-13.0663691
21
19.6052513
0
LINE
8
0
10
-13.0663691
20
19.6052513
11
-13.0836708
21
19.6403534
0
LINE
8
0
10
-13.0836708
20
19.6403534
11
-13.283042
21
20.0448399
0
LINE
8
0
10
-13.283042
20
20.0448399
11
-13.2931632
21
20.0826428
0
LINE
8
0
10
-13.2931632
20
20.0826428
11
-13.4097919
21
20.5182514
0
LINE
8
0
10
-13.4097919
20
20.5182514
11
-13.4123438
21
20.5573025
0
LINE
8
0
10
-13.4123438
20
20.5573025
11
-13.4417486
21
21.0072937
0
LINE
8
0
10
-13.4417486
20
21.0072937
11
-13.4366329
21
21.0460922
0
LINE
8
0
10
-13.4366329
20
21.0460922
11
-13.3776836
21
21.4931736
0
LINE
8
0
10
-13.3776836
20
21.4931736
11
-13.365097
21
21.5302287
0
LINE
8
0
10
-13.365097
20
21.5302287
11
-13.2200594
21
21.9572201
0
LINE
8
0
10
-13.2200594
20
21.9572201
11
-13.2004855
21
21.9911075
0
LINE
8
0
10
-13.2004855
20
21.9911075
11
-12.9749327
21
22.3815975
0
LINE
8
0
10
-12.9749327
20
22.3815975
11
-12.9491238
21
22.4110152
0
LINE
8
0
10
-12.9491238
20
22.4110152
11
-12.6517239
21
22.75
0
LINE
8
0
10
-12.6517239
20
22.75
11
-12.6206718
21
22.7738174
0
LINE
8
0
10
-12.6206718
20
22.7738174
11
-12.6206718
21
22.7738174
0
ENDSEC
0
EOF
