0
SECTION
2
ENTITIES
0
LINE
8
0
10
-0.977921303
20
28.5231235
11
4.99263763
21
22.1459007
0
LINE
8
0
10
4.99263763
20
22.1459007
11
5.31447161
21
21.8635485
0
LINE
8
0
10
5.31447161
20
21.8635485
11
5.36104012
21
21.8226929
0
LINE
8
0
10
5.36104012
20
21.8226929
11
5.73177428
21
21.6085518
0
LINE
8
0
10
5.73177428
20
21.6085518
11
5.78541851
21
21.5775661
0
LINE
8
0
10
5.78541851
20
21.5775661
11
6.19080562
21
21.4398675
0
LINE
8
0
10
6.19080562
20
21.4398675
11
6.24946404
21
21.4199429
0
LINE
8
0
10
6.24946404
20
21.4199429
11
6.67392592
21
21.3639753
0
LINE
8
0
10
6.67392592
20
21.3639753
11
6.73534441
21
21.3558769
0
LINE
8
0
10
6.73534441
20
21.3558769
11
7.16256894
21
21.3837949
0
LINE
8
0
10
7.16256894
20
21.3837949
11
7.22438717
21
21.3878345
0
LINE
8
0
10
7.22438717
20
21.3878345
11
7.63795638
21
21.4985617
0
LINE
8
0
10
7.63795638
20
21.4985617
11
7.69779873
21
21.5145836
0
LINE
8
0
10
7.69779873
20
21.5145836
11
8.08181955
21
21.7038676
0
LINE
8
0
10
8.08181955
20
21.7038676
11
8.13738632
21
21.7312565
0
LINE
8
0
10
8.13738632
20
21.7312565
11
8.47709996
21
21.9918226
0
LINE
8
0
10
8.47709996
20
21.9918226
11
8.52625561
21
22.0295258
0
LINE
8
0
10
8.52625561
20
22.0295258
11
8.80860869
21
22.3513581
0
LINE
8
0
10
8.80860869
20
22.3513581
11
8.84946442
21
22.3979263
0
LINE
8
0
10
8.84946442
20
22.3979263
11
9.0636055
21
22.7686613
0
LINE
8
0
10
9.0636055
20
22.7686613
11
9.09459114
21
22.8223057
0
LINE
8
0
10
9.09459114
20
22.8223057
11
9.23229064
21
23.2276936
0
LINE
8
0
10
9.23229064
20
23.2276936
11
9.25221539
21
23.2863522
0
LINE
8
0
10
9.25221539
20
23.2863522
11
9.30818213
21
23.7108136
0
LINE
8
0
10
9.30818213
20
23.7108136
11
9.31628036
21
23.7722321
0
LINE
8
0
10
9.31628036
20
23.7722321
11
9.28836323
21
24.1994562
0
LINE
8
0
10
9.28836323
20
24.1994562
11
9.28432369
21
24.2612743
0
LINE
8
0
10
9.28432369
20
24.2612743
11
9.17359574
21
24.6748436
0
LINE
8
0
10
9.17359574
20
24.6748436
11
9.1575737
21
24.7346859
0
LINE
8
0
10
9.1575737
20
24.7346859
11
8.96828969
21
25.1187059
0
LINE
8
0
10
8.96828969
20
25.1187059
11
8.9409008
21
25.1742725
0
LINE
8
0
10
8.9409008
20
25.1742725
11
8.68033557
21
25.513987
0
LINE
8
0
10
8.68033557
20
25.513987
11
8.64263248
21
25.5631428
0
LINE
8
0
10
8.64263248
20
25.5631428
11
7.77870874
21
26.4859097
0
LINE
8
0
10
7.77870874
20
26.4859097
11
1.8081497
21
32.8631325
0
LINE
8
0
10
1.8081497
20
32.8631325
11
1.48631593
21
33.1454847
0
LINE
8
0
10
1.48631593
20
33.1454847
11
1.43974745
21
33.1863403
0
LINE
8
0
10
1.43974745
20
33.1863403
11
1.06901339
21
33.4004831
0
LINE
8
0
10
1.06901339
20
33.4004831
11
1.01536918
21
33.431469
0
LINE
8
0
10
1.01536918
20
33.431469
11
0.60998181
21
33.5691676
0
LINE
8
0
10
0.60998181
20
33.5691676
11
0.551323354
21
33.5890923
0
LINE
8
0
10
0.551323354
20
33.5890923
11
0.126861525
21
33.6450582
0
LINE
8
0
10
0.126861525
20
33.6450582
11
0.0654430464
21
33.6531563
0
LINE
8
0
10
0.0654430464
20
33.6531563
11
-0.361781433
21
33.62524
0
LINE
8
0
10
-0.361781433
20
33.62524
11
-0.42359966
21
33.6212006
0
LINE
8
0
10
-0.42359966
20
33.6212006
11
-0.83716877
21
33.5104718
0
LINE
8
0
10
-0.83716877
20
33.5104718
11
-0.897011101
21
33.4944496
0
LINE
8
0
10
-0.897011101
20
33.4944496
11
-1.28103166
21
33.3051673
0
LINE
8
0
10
-1.28103166
20
33.3051673
11
-1.3365984
21
33.2777786
0
LINE
8
0
10
-1.3365984
20
33.2777786
11
-1.67631266
21
33.0172109
0
LINE
8
0
10
-1.67631266
20
33.0172109
11
-1.7254684
21
32.9795074
0
LINE
8
0
10
-1.7254684
20
32.9795074
11
-2.00782127
21
32.6576751
0
LINE
8
0
10
-2.00782127
20
32.6576751
11
-2.04867697
21
32.6111069
0
LINE
8
0
10
-2.04867697
20
32.6111069
11
-2.26281806
21
32.2403735
0
LINE
8
0
10
-2.26281806
20
32.2403735
11
-2.29380369
21
32.1867294
0
LINE
8
0
10
-2.29380369
20
32.1867294
11
-2.43150319
21
31.7813415
0
LINE
8
0
10
-2.43150319
20
31.7813415
11
-2.45142794
21
31.722683
0
LINE
8
0
10
-2.45142794
20
31.722683
11
-2.50739468
21
31.2982215
0
LINE
8
0
10
-2.50739468
20
31.2982215
11
-2.51549292
21
31.2368031
0
LINE
8
0
10
-2.51549292
20
31.2368031
11
-2.48757578
21
30.8095773
0
LINE
8
0
10
-2.48757578
20
30.8095773
11
-2.48353624
21
30.7477589
0
LINE
8
0
10
-2.48353624
20
30.7477589
11
-2.37280829
21
30.3341913
0
LINE
8
0
10
-2.37280829
20
30.3341913
11
-2.35678625
21
30.2743492
0
LINE
8
0
10
-2.35678625
20
30.2743492
11
-2.16750245
21
29.8903276
0
LINE
8
0
10
-2.16750245
20
29.8903276
11
-2.14011359
21
29.8347607
0
LINE
8
0
10
-2.14011359
20
29.8347607
11
-1.87954815
21
29.4950462
0
LINE
8
0
10
-1.87954815
20
29.4950462
11
-1.84184504
21
29.4458904
0
LINE
8
0
10
-1.84184504
20
29.4458904
11
-0.977921303
21
28.5231235
0
LINE
8
0
10
-0.977921303
20
28.5231235
11
-0.977921303
21
28.5231235
0
LINE
8
0
10
1.22624924
20
46.5
11
11.1172828
21
46.5
0
LINE
8
0
10
11.1172828
20
46.5
11
11.2162827
21
46.5
0
LINE
8
0
10
11.2162827
20
46.5
11
11.3728639
21
46.5
0
LINE
8
0
10
11.3728639
20
46.5
11
11.5747897
21
46.5
0
LINE
8
0
10
11.5747897
20
46.5
11
11.80301
21
46.5
0
LINE
8
0
10
11.80301
20
46.5
11
12.035014
21
46.5
0
LINE
8
0
10
12.035014
20
46.5
11
12.249135
21
46.5
0
LINE
8
0
10
12.249135
20
46.5
11
12.4281786
21
46.5
0
LINE
8
0
10
12.4281786
20
46.5
11
12.5612687
21
46.5
0
LINE
8
0
10
12.5612687
20
46.5
11
13.75
21
46.5
0
LINE
8
0
10
13.75
20
46.5
11
13.75
21
43.4608653
0
LINE
8
0
10
13.75
20
43.4608653
11
13.75
21
41.5439685
0
LINE
8
0
10
13.75
20
41.5439685
11
13.75
21
15.2388785
0
LINE
8
0
10
13.75
20
15.2388785
11
13.75
21
3.93227808
0
LINE
8
0
10
13.75
20
3.93227808
11
13.75
21
1.99991737
0
LINE
8
0
10
13.75
20
1.99991737
11
13.75
21
-1.10000002
0
LINE
8
0
10
13.75
20
-1.10000002
11
12.5612687
21
-1.10000002
0
LINE
8
0
10
12.5612687
20
-1.10000002
11
12.4281786
21
-1.10000002
0
LINE
8
0
10
12.4281786
20
-1.10000002
11
12.249135
21
-1.10000002
0
LINE
8
0
10
12.249135
20
-1.10000002
11
12.035014
21
-1.10000002
0
LINE
8
0
10
12.035014
20
-1.10000002
11
11.80301
21
-1.10000002
0
LINE
8
0
10
11.80301
20
-1.10000002
11
11.5747897
21
-1.10000002
0
LINE
8
0
10
11.5747897
20
-1.10000002
11
11.3728639
21
-1.10000002
0
LINE
8
0
10
11.3728639
20
-1.10000002
11
11.2162827
21
-1.10000002
0
LINE
8
0
10
11.2162827
20
-1.10000002
11
11.1172828
21
-1.10000002
0
LINE
8
0
10
11.1172828
20
-1.10000002
11
1.22624924
21
-1.10000002
0
LINE
8
0
10
1.22624924
20
-1.10000002
11
-11.9252232
21
-1.10000002
0
LINE
8
0
10
-11.9252232
20
-1.10000002
11
-11.996594
21
-1.10000002
0
LINE
8
0
10
-11.996594
20
-1.10000002
11
-12.1350737
21
-1.10000002
0
LINE
8
0
10
-12.1350737
20
-1.10000002
11
-12.3306888
21
-1.10000002
0
LINE
8
0
10
-12.3306888
20
-1.10000002
11
-12.5652198
21
-1.10000002
0
LINE
8
0
10
-12.5652198
20
-1.10000002
11
-12.8153253
21
-1.10000002
0
LINE
8
0
10
-12.8153253
20
-1.10000002
11
-13.0570754
21
-1.10000002
0
LINE
8
0
10
-13.0570754
20
-1.10000002
11
-13.2701473
21
-1.10000002
0
LINE
8
0
10
-13.2701473
20
-1.10000002
11
-13.4403328
21
-1.10000002
0
LINE
8
0
10
-13.4403328
20
-1.10000002
11
-13.5600279
21
-1.10000002
0
LINE
8
0
10
-13.5600279
20
-1.10000002
11
-16.5874078
21
-1.10000002
0
LINE
8
0
10
-16.5874078
20
-1.10000002
11
-17.9439734
21
-1.10000002
0
LINE
8
0
10
-17.9439734
20
-1.10000002
11
-18.5499992
21
-1.10000002
0
LINE
8
0
10
-18.5499992
20
-1.10000002
11
-18.5499992
21
-0.671809638
0
LINE
8
0
10
-18.5499992
20
-0.671809638
11
-18.5499992
21
-0.624643045
0
LINE
8
0
10
-18.5499992
20
-0.624643045
11
-18.5499992
21
0.128761293
0
LINE
8
0
10
-18.5499992
20
0.128761293
11
-18.5499992
21
0.209176498
0
LINE
8
0
10
-18.5499992
20
0.209176498
11
-18.5499992
21
0.339161126
0
LINE
8
0
10
-18.5499992
20
0.339161126
11
-18.5499992
21
0.513879379
0
LINE
8
0
10
-18.5499992
20
0.513879379
11
-18.5499992
21
3.34004743
0
LINE
8
0
10
-18.5499992
20
3.34004743
11
-18.5499992
21
3.42331036
0
LINE
8
0
10
-18.5499992
20
3.42331036
11
-18.5499992
21
3.53004197
0
LINE
8
0
10
-18.5499992
20
3.53004197
11
-18.5499992
21
4.95889206
0
LINE
8
0
10
-18.5499992
20
4.95889206
11
-18.5499992
21
5.02672339
0
LINE
8
0
10
-18.5499992
20
5.02672339
11
-18.5499992
21
5.59501347
0
LINE
8
0
10
-18.5499992
20
5.59501347
11
-18.5499992
21
6.91101939
0
LINE
8
0
10
-18.5499992
20
6.91101939
11
-18.5499992
21
8.25806276
0
LINE
8
0
10
-18.5499992
20
8.25806276
11
-18.5499992
21
36.6388879
0
LINE
8
0
10
-18.5499992
20
36.6388879
11
-18.5499992
21
37.7917759
0
LINE
8
0
10
-18.5499992
20
37.7917759
11
-18.5499992
21
38.1974343
0
LINE
8
0
10
-18.5499992
20
38.1974343
11
-18.5499992
21
40.086586
0
LINE
8
0
10
-18.5499992
20
40.086586
11
-18.5499992
21
40.3082788
0
LINE
8
0
10
-18.5499992
20
40.3082788
11
-18.5499992
21
40.3752681
0
LINE
8
0
10
-18.5499992
20
40.3752681
11
-18.5499992
21
40.4502932
0
LINE
8
0
10
-18.5499992
20
40.4502932
11
-18.5499992
21
40.5272107
0
LINE
8
0
10
-18.5499992
20
40.5272107
11
-18.5499992
21
40.59916
0
LINE
8
0
10
-18.5499992
20
40.59916
11
-18.5499992
21
42.0673214
0
LINE
8
0
10
-18.5499992
20
42.0673214
11
-18.5499992
21
42.1811355
0
LINE
8
0
10
-18.5499992
20
42.1811355
11
-18.5499992
21
42.2735952
0
LINE
8
0
10
-18.5499992
20
42.2735952
11
-18.5499992
21
45.1215455
0
LINE
8
0
10
-18.5499992
20
45.1215455
11
-18.5499992
21
45.3094123
0
LINE
8
0
10
-18.5499992
20
45.3094123
11
-18.5499992
21
45.4555051
0
LINE
8
0
10
-18.5499992
20
45.4555051
11
-18.5499992
21
45.553402
0
LINE
8
0
10
-18.5499992
20
45.553402
11
-18.5499992
21
45.6007257
0
LINE
8
0
10
-18.5499992
20
45.6007257
11
-18.5499992
21
46.1139302
0
LINE
8
0
10
-18.5499992
20
46.1139302
11
-18.5499992
21
46.5
0
LINE
8
0
10
-18.5499992
20
46.5
11
-16.5874078
21
46.5
0
LINE
8
0
10
-16.5874078
20
46.5
11
-13.5600279
21
46.5
0
LINE
8
0
10
-13.5600279
20
46.5
11
-13.4403328
21
46.5
0
LINE
8
0
10
-13.4403328
20
46.5
11
-13.2701473
21
46.5
0
LINE
8
0
10
-13.2701473
20
46.5
11
-13.0570754
21
46.5
0
LINE
8
0
10
-13.0570754
20
46.5
11
-12.8153253
21
46.5
0
LINE
8
0
10
-12.8153253
20
46.5
11
-12.5652198
21
46.5
0
LINE
8
0
10
-12.5652198
20
46.5
11
-12.3306888
21
46.5
0
LINE
8
0
10
-12.3306888
20
46.5
11
-12.1350737
21
46.5
0
LINE
8
0
10
-12.1350737
20
46.5
11
-11.996594
21
46.5
0
LINE
8
0
10
-11.996594
20
46.5
11
-11.9252232
21
46.5
0
LINE
8
0
10
-11.9252232
20
46.5
11
1.22624924
21
46.5
0
LINE
8
0
10
1.22624924
20
46.5
11
1.22624924
21
46.5
0
LINE
8
0
10
3.40226603
20
13.1730547
11
3.34862179
21
13.2040403
0
LINE
8
0
10
3.34862179
20
13.2040403
11
2.97788763
21
13.4181814
0
LINE
8
0
10
2.97788763
20
13.4181814
11
2.93131915
21
13.4590371
0
LINE
8
0
10
2.93131915
20
13.4590371
11
2.60948539
21
13.7413902
0
LINE
8
0
10
2.60948539
20
13.7413902
11
-9.33163228
21
26.4958342
0
LINE
8
0
10
-9.33163228
20
26.4958342
11
-11.0594797
21
28.3413677
0
LINE
8
0
10
-11.0594797
20
28.3413677
11
-11.0971829
21
28.3905235
0
LINE
8
0
10
-11.0971829
20
28.3905235
11
-11.357749
21
28.730238
0
LINE
8
0
10
-11.357749
20
28.730238
11
-11.3851377
21
28.7858049
0
LINE
8
0
10
-11.3851377
20
28.7858049
11
-11.5744209
21
29.1698265
0
LINE
8
0
10
-11.5744209
20
29.1698265
11
-11.5904431
21
29.2296689
0
LINE
8
0
10
-11.5904431
20
29.2296689
11
-11.7011719
21
29.6432381
0
LINE
8
0
10
-11.7011719
20
29.6432381
11
-11.7052114
21
29.7050562
0
LINE
8
0
10
-11.7052114
20
29.7050562
11
-11.7331285
21
30.1322803
0
LINE
8
0
10
-11.7331285
20
30.1322803
11
-11.7250303
21
30.1936988
0
LINE
8
0
10
-11.7250303
20
30.1936988
11
-11.6690636
21
30.6181602
0
LINE
8
0
10
-11.6690636
20
30.6181602
11
-11.6491387
21
30.6768188
0
LINE
8
0
10
-11.6491387
20
30.6768188
11
-11.5114384
21
31.0822067
0
LINE
8
0
10
-11.5114384
20
31.0822067
11
-11.4804529
21
31.1358508
0
LINE
8
0
10
-11.4804529
20
31.1358508
11
-11.2663126
21
31.5065842
0
LINE
8
0
10
-11.2663126
20
31.5065842
11
-11.2254569
21
31.5531527
0
LINE
8
0
10
-11.2254569
20
31.5531527
11
-10.9431038
21
31.8749866
0
LINE
8
0
10
-10.9431038
20
31.8749866
11
-10.893948
21
31.9126899
0
LINE
8
0
10
-10.893948
20
31.9126899
11
-10.5542336
21
32.1732559
0
LINE
8
0
10
-10.5542336
20
32.1732559
11
-10.4986668
21
32.2006446
0
LINE
8
0
10
-10.4986668
20
32.2006446
11
-10.114646
21
32.3899269
0
LINE
8
0
10
-10.114646
20
32.3899269
11
-10.0548036
21
32.4059491
0
LINE
8
0
10
-10.0548036
20
32.4059491
11
-9.6412344
21
32.5166779
0
LINE
8
0
10
-9.6412344
20
32.5166779
11
-9.57941622
21
32.5207173
0
LINE
8
0
10
-9.57941622
20
32.5207173
11
-9.15219212
21
32.5486336
0
LINE
8
0
10
-9.15219212
20
32.5486336
11
-9.09077369
21
32.5405355
0
LINE
8
0
10
-9.09077369
20
32.5405355
11
-8.66631222
21
32.4845695
0
LINE
8
0
10
-8.66631222
20
32.4845695
11
-8.60765368
21
32.4646449
0
LINE
8
0
10
-8.60765368
20
32.4646449
11
-8.20226574
21
32.3269463
0
LINE
8
0
10
-8.20226574
20
32.3269463
11
-8.14862157
21
32.2959604
0
LINE
8
0
10
-8.14862157
20
32.2959604
11
-7.77788782
21
32.0818176
0
LINE
8
0
10
-7.77788782
20
32.0818176
11
-7.73131932
21
32.040962
0
LINE
8
0
10
-7.73131932
20
32.040962
11
-7.40948534
21
31.7586098
0
LINE
8
0
10
-7.40948534
20
31.7586098
11
4.53163253
21
19.0041658
0
LINE
8
0
10
4.53163253
20
19.0041658
11
6.25948
21
17.1586323
0
LINE
8
0
10
6.25948
20
17.1586323
11
6.29718314
21
17.1094765
0
LINE
8
0
10
6.29718314
20
17.1094765
11
6.55774879
21
16.769762
0
LINE
8
0
10
6.55774879
20
16.769762
11
6.58513762
21
16.7141951
0
LINE
8
0
10
6.58513762
20
16.7141951
11
6.77442122
21
16.3301735
0
LINE
8
0
10
6.77442122
20
16.3301735
11
6.79044325
21
16.2703313
0
LINE
8
0
10
6.79044325
20
16.2703313
11
6.90117121
21
15.8567629
0
LINE
8
0
10
6.90117121
20
15.8567629
11
6.90521074
21
15.7949446
0
LINE
8
0
10
6.90521074
20
15.7949446
11
6.93312788
21
15.3677197
0
LINE
8
0
10
6.93312788
20
15.3677197
11
6.9250297
21
15.3063012
0
LINE
8
0
10
6.9250297
20
15.3063012
11
6.86906338
21
14.8818398
0
LINE
8
0
10
6.86906338
20
14.8818398
11
6.84913857
21
14.8231813
0
LINE
8
0
10
6.84913857
20
14.8231813
11
6.71143866
21
14.4177942
0
LINE
8
0
10
6.71143866
20
14.4177942
11
6.68045302
21
14.36415
0
LINE
8
0
10
6.68045302
20
14.36415
11
6.46631193
21
13.9934158
0
LINE
8
0
10
6.46631193
20
13.9934158
11
6.42545626
21
13.9468473
0
LINE
8
0
10
6.42545626
20
13.9468473
11
6.1431036
21
13.6250134
0
LINE
8
0
10
6.1431036
20
13.6250134
11
6.09394783
21
13.5873103
0
LINE
8
0
10
6.09394783
20
13.5873103
11
5.75423336
21
13.326745
0
LINE
8
0
10
5.75423336
20
13.326745
11
5.69866665
21
13.2993561
0
LINE
8
0
10
5.69866665
20
13.2993561
11
5.31464624
21
13.1100721
0
LINE
8
0
10
5.31464624
20
13.1100721
11
5.2548039
21
13.0940501
0
LINE
8
0
10
5.2548039
20
13.0940501
11
4.84123468
21
12.9833221
0
LINE
8
0
10
4.84123468
20
12.9833221
11
4.77941645
21
12.9792826
0
LINE
8
0
10
4.77941645
20
12.9792826
11
4.35219193
21
12.9513655
0
LINE
8
0
10
4.35219193
20
12.9513655
11
4.29077347
21
12.9594637
0
LINE
8
0
10
4.29077347
20
12.9594637
11
3.86631179
21
13.0154305
0
LINE
8
0
10
3.86631179
20
13.0154305
11
3.80765334
21
13.0353552
0
LINE
8
0
10
3.80765334
20
13.0353552
11
3.40226603
21
13.1730547
0
LINE
8
0
10
3.40226603
20
13.1730547
11
3.40226603
21
13.1730547
0
LINE
8
0
10
-13.1890738
20
22.0108642
11
-12.9749327
21
22.3815975
0
LINE
8
0
10
-12.9749327
20
22.3815975
11
-12.9340769
21
22.428166
0
LINE
8
0
10
-12.9340769
20
22.428166
11
-12.6517239
21
22.75
0
LINE
8
0
10
-12.6517239
20
22.75
11
-12.6025682
21
22.7877032
0
LINE
8
0
10
-12.6025682
20
22.7877032
11
-12.2628546
21
23.0482693
0
LINE
8
0
10
-12.2628546
20
23.0482693
11
-12.2072878
21
23.0756579
0
LINE
8
0
10
-12.2072878
20
23.0756579
11
-11.823267
21
23.2649403
0
LINE
8
0
10
-11.823267
20
23.2649403
11
-11.7634246
21
23.2809624
0
LINE
8
0
10
-11.7634246
20
23.2809624
11
-11.3498554
21
23.3916912
0
LINE
8
0
10
-11.3498554
20
23.3916912
11
-11.2880372
21
23.3957309
0
LINE
8
0
10
-11.2880372
20
23.3957309
11
-10.8608131
21
23.4236488
0
LINE
8
0
10
-10.8608131
20
23.4236488
11
-10.7993946
21
23.4155505
0
LINE
8
0
10
-10.7993946
20
23.4155505
11
-10.3749323
21
23.3595829
0
LINE
8
0
10
-10.3749323
20
23.3595829
11
-10.3162739
21
23.339658
0
LINE
8
0
10
-10.3162739
20
23.339658
11
-9.91088676
21
23.2019577
0
LINE
8
0
10
-9.91088676
20
23.2019577
11
-9.85724253
21
23.1709723
0
LINE
8
0
10
-9.85724253
20
23.1709723
11
-9.48650837
21
22.9568329
0
LINE
8
0
10
-9.48650837
20
22.9568329
11
-9.43993986
21
22.915977
0
LINE
8
0
10
-9.43993986
20
22.915977
11
-9.11810589
21
22.6336231
0
LINE
8
0
10
-9.11810589
20
22.6336231
11
-3.14754716
21
16.2564012
0
LINE
8
0
10
-3.14754716
20
16.2564012
11
-2.28362346
21
15.3336344
0
LINE
8
0
10
-2.28362346
20
15.3336344
11
-2.24592033
21
15.2844786
0
LINE
8
0
10
-2.24592033
20
15.2844786
11
-1.98535478
21
14.9447641
0
LINE
8
0
10
-1.98535478
20
14.9447641
11
-1.95796593
21
14.8891974
0
LINE
8
0
10
-1.95796593
20
14.8891974
11
-1.76868212
21
14.5051765
0
LINE
8
0
10
-1.76868212
20
14.5051765
11
-1.75266007
21
14.4453342
0
LINE
8
0
10
-1.75266007
20
14.4453342
11
-1.64193201
21
14.031765
0
LINE
8
0
10
-1.64193201
20
14.031765
11
-1.63789249
21
13.9699468
0
LINE
8
0
10
-1.63789249
20
13.9699468
11
-1.60997546
21
13.5427227
0
LINE
8
0
10
-1.60997546
20
13.5427227
11
-1.61807368
21
13.4813042
0
LINE
8
0
10
-1.61807368
20
13.4813042
11
-1.67404032
21
13.0568419
0
LINE
8
0
10
-1.67404032
20
13.0568419
11
-1.69396509
21
12.9981834
0
LINE
8
0
10
-1.69396509
20
12.9981834
11
-1.8316648
21
12.5927963
0
LINE
8
0
10
-1.8316648
20
12.5927963
11
-1.86265041
21
12.5391521
0
LINE
8
0
10
-1.86265041
20
12.5391521
11
-2.07679129
21
12.1684179
0
LINE
8
0
10
-2.07679129
20
12.1684179
11
-2.11764701
21
12.1218495
0
LINE
8
0
10
-2.11764701
20
12.1218495
11
-2.4000001
21
11.8000164
0
LINE
8
0
10
-2.4000001
20
11.8000164
11
-2.44915583
21
11.7623132
0
LINE
8
0
10
-2.44915583
20
11.7623132
11
-2.7888701
21
11.5017471
0
LINE
8
0
10
-2.7888701
20
11.5017471
11
-2.84443681
21
11.4743584
0
LINE
8
0
10
-2.84443681
20
11.4743584
11
-3.22845721
21
11.2850752
0
LINE
8
0
10
-3.22845721
20
11.2850752
11
-3.28829956
21
11.269053
0
LINE
8
0
10
-3.28829956
20
11.269053
11
-3.70186877
21
11.1583242
0
LINE
8
0
10
-3.70186877
20
11.1583242
11
-3.76368698
21
11.1542847
0
LINE
8
0
10
-3.76368698
20
11.1542847
11
-4.19091129
21
11.1263676
0
LINE
8
0
10
-4.19091129
20
11.1263676
11
-4.25232978
21
11.1344658
0
LINE
8
0
10
-4.25232978
20
11.1344658
11
-4.67679167
21
11.1904325
0
LINE
8
0
10
-4.67679167
20
11.1904325
11
-4.73545015
21
11.2103574
0
LINE
8
0
10
-4.73545015
20
11.2103574
11
-5.14083767
21
11.3480577
0
LINE
8
0
10
-5.14083767
20
11.3480577
11
-5.1944819
21
11.3790433
0
LINE
8
0
10
-5.1944819
20
11.3790433
11
-5.56521606
21
11.5931835
0
LINE
8
0
10
-5.56521606
20
11.5931835
11
-5.61178451
21
11.6340392
0
LINE
8
0
10
-5.61178451
20
11.6340392
11
-5.93361807
21
11.9163923
0
LINE
8
0
10
-5.93361807
20
11.9163923
11
-11.904177
21
18.2936143
0
LINE
8
0
10
-11.904177
20
18.2936143
11
-12.7681007
21
19.2163811
0
LINE
8
0
10
-12.7681007
20
19.2163811
11
-12.8058038
21
19.2655368
0
LINE
8
0
10
-12.8058038
20
19.2655368
11
-13.0663691
21
19.6052513
0
LINE
8
0
10
-13.0663691
20
19.6052513
11
-13.0937579
21
19.6608182
0
LINE
8
0
10
-13.0937579
20
19.6608182
11
-13.283042
21
20.0448399
0
LINE
8
0
10
-13.283042
20
20.0448399
11
-13.299064
21
20.1046822
0
LINE
8
0
10
-13.299064
20
20.1046822
11
-13.4097919
21
20.5182514
0
LINE
8
0
10
-13.4097919
20
20.5182514
11
-13.4138315
21
20.5800696
0
LINE
8
0
10
-13.4138315
20
20.5800696
11
-13.4417486
21
21.0072937
0
LINE
8
0
10
-13.4417486
20
21.0072937
11
-13.4336504
21
21.0687121
0
LINE
8
0
10
-13.4336504
20
21.0687121
11
-13.3776836
21
21.4931736
0
LINE
8
0
10
-13.3776836
20
21.4931736
11
-13.3577589
21
21.5518321
0
LINE
8
0
10
-13.3577589
20
21.5518321
11
-13.2200594
21
21.9572201
0
LINE
8
0
10
-13.2200594
20
21.9572201
11
-13.1890738
21
22.0108642
0
LINE
8
0
10
-13.1890738
20
22.0108642
11
-13.1890738
21
22.0108642
0
ENDSEC
0
EOF
