0
SECTION
2
ENTITIES
0
LINE
8
0
10
-2.23999456
20
32.2798869
11
-2.04867697
21
32.6111069
0
LINE
8
0
10
-2.04867697
20
32.6111069
11
-1.97772766
21
32.6919765
0
LINE
8
0
10
-1.97772766
20
32.6919765
11
-1.7254684
21
32.9795074
0
LINE
8
0
10
-1.7254684
20
32.9795074
11
-1.64010538
21
33.0449826
0
LINE
8
0
10
-1.64010538
20
33.0449826
11
-1.3365984
21
33.2777786
0
LINE
8
0
10
-1.3365984
20
33.2777786
11
-1.24010215
21
33.3253413
0
LINE
8
0
10
-1.24010215
20
33.3253413
11
-0.897011101
21
33.4944496
0
LINE
8
0
10
-0.897011101
20
33.4944496
11
-0.793089924
21
33.5222734
0
LINE
8
0
10
-0.793089924
20
33.5222734
11
-0.42359966
21
33.6212006
0
LINE
8
0
10
-0.42359966
20
33.6212006
11
-0.316247178
21
33.6282153
0
LINE
8
0
10
-0.316247178
20
33.6282153
11
0.0654430464
21
33.6531563
0
LINE
8
0
10
0.0654430464
20
33.6531563
11
0.172101333
21
33.6390932
0
LINE
8
0
10
0.172101333
20
33.6390932
11
0.551323354
21
33.5890923
0
LINE
8
0
10
0.551323354
20
33.5890923
11
0.653188632
21
33.5544915
0
LINE
8
0
10
0.653188632
20
33.5544915
11
1.01536918
21
33.431469
0
LINE
8
0
10
1.01536918
20
33.431469
11
1.10852681
21
33.3776594
0
LINE
8
0
10
1.10852681
20
33.3776594
11
1.43974745
21
33.1863403
0
LINE
8
0
10
1.43974745
20
33.1863403
11
1.52061748
21
33.1153912
0
LINE
8
0
10
1.52061748
20
33.1153912
11
1.8081497
21
32.8631325
0
LINE
8
0
10
1.8081497
20
32.8631325
11
7.14235718
21
27.1656041
0
LINE
8
0
10
7.14235718
20
27.1656041
11
8.64263248
21
25.5631428
0
LINE
8
0
10
8.64263248
20
25.5631428
11
8.70810702
21
25.4777797
0
LINE
8
0
10
8.70810702
20
25.4777797
11
8.9409008
21
25.1742725
0
LINE
8
0
10
8.9409008
20
25.1742725
11
8.98846387
21
25.0777764
0
LINE
8
0
10
8.98846387
20
25.0777764
11
9.1575737
21
24.7346859
0
LINE
8
0
10
9.1575737
20
24.7346859
11
9.1853973
21
24.6307647
0
LINE
8
0
10
9.1853973
20
24.6307647
11
9.28432369
21
24.2612743
0
LINE
8
0
10
9.28432369
20
24.2612743
11
9.29133868
21
24.1539219
0
LINE
8
0
10
9.29133868
20
24.1539219
11
9.31628036
21
23.7722321
0
LINE
8
0
10
9.31628036
20
23.7722321
11
9.30221711
21
23.6655739
0
LINE
8
0
10
9.30221711
20
23.6655739
11
9.25221539
21
23.2863522
0
LINE
8
0
10
9.25221539
20
23.2863522
11
9.21761441
21
23.1844867
0
LINE
8
0
10
9.21761441
20
23.1844867
11
9.09459114
21
22.8223057
0
LINE
8
0
10
9.09459114
20
22.8223057
11
9.04078201
21
22.7291478
0
LINE
8
0
10
9.04078201
20
22.7291478
11
8.84946442
21
22.3979263
0
LINE
8
0
10
8.84946442
20
22.3979263
11
8.77851505
21
22.3170567
0
LINE
8
0
10
8.77851505
20
22.3170567
11
8.52625561
21
22.0295258
0
LINE
8
0
10
8.52625561
20
22.0295258
11
8.44089275
21
21.964051
0
LINE
8
0
10
8.44089275
20
21.964051
11
8.13738632
21
21.7312565
0
LINE
8
0
10
8.13738632
20
21.7312565
11
8.04089001
21
21.6836934
0
LINE
8
0
10
8.04089001
20
21.6836934
11
7.69779873
21
21.5145836
0
LINE
8
0
10
7.69779873
20
21.5145836
11
7.59387753
21
21.4867602
0
LINE
8
0
10
7.59387753
20
21.4867602
11
7.22438717
21
21.3878345
0
LINE
8
0
10
7.22438717
20
21.3878345
11
7.11703467
21
21.3808194
0
LINE
8
0
10
7.11703467
20
21.3808194
11
6.73534441
21
21.3558769
0
LINE
8
0
10
6.73534441
20
21.3558769
11
6.62868611
21
21.3699404
0
LINE
8
0
10
6.62868611
20
21.3699404
11
6.24946404
21
21.4199429
0
LINE
8
0
10
6.24946404
20
21.4199429
11
6.14759882
21
21.4545436
0
LINE
8
0
10
6.14759882
20
21.4545436
11
5.78541851
21
21.5775661
0
LINE
8
0
10
5.78541851
20
21.5775661
11
5.69226085
21
21.6313753
0
LINE
8
0
10
5.69226085
20
21.6313753
11
5.36104012
21
21.8226929
0
LINE
8
0
10
5.36104012
20
21.8226929
11
5.28017004
21
21.893642
0
LINE
8
0
10
5.28017004
20
21.893642
11
4.99263763
21
22.1459007
0
LINE
8
0
10
4.99263763
20
22.1459007
11
-0.341569756
21
27.8434291
0
LINE
8
0
10
-0.341569756
20
27.8434291
11
-1.84184504
21
29.4458904
0
LINE
8
0
10
-1.84184504
20
29.4458904
11
-1.90731962
21
29.5312535
0
LINE
8
0
10
-1.90731962
20
29.5312535
11
-2.14011359
21
29.8347607
0
LINE
8
0
10
-2.14011359
20
29.8347607
11
-2.18767661
21
29.9312572
0
LINE
8
0
10
-2.18767661
20
29.9312572
11
-2.35678625
21
30.2743492
0
LINE
8
0
10
-2.35678625
20
30.2743492
11
-2.38460985
21
30.37827
0
LINE
8
0
10
-2.38460985
20
30.37827
11
-2.48353624
21
30.7477589
0
LINE
8
0
10
-2.48353624
20
30.7477589
11
-2.49055123
21
30.8551117
0
LINE
8
0
10
-2.49055123
20
30.8551117
11
-2.51549292
21
31.2368031
0
LINE
8
0
10
-2.51549292
20
31.2368031
11
-2.50142966
21
31.3434613
0
LINE
8
0
10
-2.50142966
20
31.3434613
11
-2.45142794
21
31.722683
0
LINE
8
0
10
-2.45142794
20
31.722683
11
-2.41682696
21
31.8245484
0
LINE
8
0
10
-2.41682696
20
31.8245484
11
-2.29380369
21
32.1867294
0
LINE
8
0
10
-2.29380369
20
32.1867294
11
-2.23999456
21
32.2798869
0
LINE
8
0
10
-2.23999456
20
32.2798869
11
-2.23999456
21
32.2798869
0
LINE
8
0
10
3.40226603
20
13.1730547
11
3.76444652
21
13.0500314
0
LINE
8
0
10
3.76444652
20
13.0500314
11
3.86631179
21
13.0154305
0
LINE
8
0
10
3.86631179
20
13.0154305
11
4.24553368
21
12.9654287
0
LINE
8
0
10
4.24553368
20
12.9654287
11
4.35219193
21
12.9513655
0
LINE
8
0
10
4.35219193
20
12.9513655
11
4.73388219
21
12.9763072
0
LINE
8
0
10
4.73388219
20
12.9763072
11
4.84123468
21
12.9833221
0
LINE
8
0
10
4.84123468
20
12.9833221
11
5.21072504
21
13.0822485
0
LINE
8
0
10
5.21072504
20
13.0822485
11
5.31464624
21
13.1100721
0
LINE
8
0
10
5.31464624
20
13.1100721
11
5.65773715
21
13.279182
0
LINE
8
0
10
5.65773715
20
13.279182
11
5.75423336
21
13.326745
0
LINE
8
0
10
5.75423336
20
13.326745
11
6.05774053
21
13.5595388
0
LINE
8
0
10
6.05774053
20
13.5595388
11
6.1431036
21
13.6250134
0
LINE
8
0
10
6.1431036
20
13.6250134
11
6.39536267
21
13.9125458
0
LINE
8
0
10
6.39536267
20
13.9125458
11
6.46631193
21
13.9934158
0
LINE
8
0
10
6.46631193
20
13.9934158
11
6.65762953
21
14.3246366
0
LINE
8
0
10
6.65762953
20
14.3246366
11
6.71143866
21
14.4177942
0
LINE
8
0
10
6.71143866
20
14.4177942
11
6.8344623
21
14.7799745
0
LINE
8
0
10
6.8344623
20
14.7799745
11
6.86906338
21
14.8818398
0
LINE
8
0
10
6.86906338
20
14.8818398
11
6.91906473
21
15.2610615
0
LINE
8
0
10
6.91906473
20
15.2610615
11
6.93312788
21
15.3677197
0
LINE
8
0
10
6.93312788
20
15.3677197
11
6.90818619
21
15.7494103
0
LINE
8
0
10
6.90818619
20
15.7494103
11
6.90117121
21
15.8567629
0
LINE
8
0
10
6.90117121
20
15.8567629
11
6.80224481
21
16.2262525
0
LINE
8
0
10
6.80224481
20
16.2262525
11
6.77442122
21
16.3301735
0
LINE
8
0
10
6.77442122
20
16.3301735
11
6.60531176
21
16.6732655
0
LINE
8
0
10
6.60531176
20
16.6732655
11
6.55774879
21
16.769762
0
LINE
8
0
10
6.55774879
20
16.769762
11
6.32495464
21
17.0732692
0
LINE
8
0
10
6.32495464
20
17.0732692
11
6.25948
21
17.1586323
0
LINE
8
0
10
6.25948
20
17.1586323
11
3.25892944
21
20.3635545
0
LINE
8
0
10
3.25892944
20
20.3635545
11
-7.40948534
21
31.7586098
0
LINE
8
0
10
-7.40948534
20
31.7586098
11
-7.69701774
21
32.0108685
0
LINE
8
0
10
-7.69701774
20
32.0108685
11
-7.77788782
21
32.0818176
0
LINE
8
0
10
-7.77788782
20
32.0818176
11
-8.10910818
21
32.2731367
0
LINE
8
0
10
-8.10910818
20
32.2731367
11
-8.20226574
21
32.3269463
0
LINE
8
0
10
-8.20226574
20
32.3269463
11
-8.5644468
21
32.4499688
0
LINE
8
0
10
-8.5644468
20
32.4499688
11
-8.66631222
21
32.4845695
0
LINE
8
0
10
-8.66631222
20
32.4845695
11
-9.04553392
21
32.5345705
0
LINE
8
0
10
-9.04553392
20
32.5345705
11
-9.15219212
21
32.5486336
0
LINE
8
0
10
-9.15219212
20
32.5486336
11
-9.53388201
21
32.5236926
0
LINE
8
0
10
-9.53388201
20
32.5236926
11
-9.6412344
21
32.5166779
0
LINE
8
0
10
-9.6412344
20
32.5166779
11
-10.0107248
21
32.4177507
0
LINE
8
0
10
-10.0107248
20
32.4177507
11
-10.114646
21
32.3899269
0
LINE
8
0
10
-10.114646
20
32.3899269
11
-10.4577372
21
32.2208186
0
LINE
8
0
10
-10.4577372
20
32.2208186
11
-10.5542336
21
32.1732559
0
LINE
8
0
10
-10.5542336
20
32.1732559
11
-10.8577407
21
31.9404614
0
LINE
8
0
10
-10.8577407
20
31.9404614
11
-10.9431038
21
31.8749866
0
LINE
8
0
10
-10.9431038
20
31.8749866
11
-11.1953632
21
31.5874542
0
LINE
8
0
10
-11.1953632
20
31.5874542
11
-11.2663126
21
31.5065842
0
LINE
8
0
10
-11.2663126
20
31.5065842
11
-11.4576294
21
31.1753642
0
LINE
8
0
10
-11.4576294
20
31.1753642
11
-11.5114384
21
31.0822067
0
LINE
8
0
10
-11.5114384
20
31.0822067
11
-11.6344624
21
30.7200257
0
LINE
8
0
10
-11.6344624
20
30.7200257
11
-11.6690636
21
30.6181602
0
LINE
8
0
10
-11.6690636
20
30.6181602
11
-11.7190653
21
30.2389385
0
LINE
8
0
10
-11.7190653
20
30.2389385
11
-11.7331285
21
30.1322803
0
LINE
8
0
10
-11.7331285
20
30.1322803
11
-11.7081869
21
29.7505905
0
LINE
8
0
10
-11.7081869
20
29.7505905
11
-11.7011719
21
29.6432381
0
LINE
8
0
10
-11.7011719
20
29.6432381
11
-11.6022447
21
29.2737477
0
LINE
8
0
10
-11.6022447
20
29.2737477
11
-11.5744209
21
29.1698265
0
LINE
8
0
10
-11.5744209
20
29.1698265
11
-11.4053118
21
28.8267345
0
LINE
8
0
10
-11.4053118
20
28.8267345
11
-11.357749
21
28.730238
0
LINE
8
0
10
-11.357749
20
28.730238
11
-11.1249545
21
28.4267308
0
LINE
8
0
10
-11.1249545
20
28.4267308
11
-11.0594797
21
28.3413677
0
LINE
8
0
10
-11.0594797
20
28.3413677
11
-8.05892921
21
25.1364455
0
LINE
8
0
10
-8.05892921
20
25.1364455
11
2.60948539
21
13.7413902
0
LINE
8
0
10
2.60948539
20
13.7413902
11
2.89701761
21
13.4891308
0
LINE
8
0
10
2.89701761
20
13.4891308
11
2.97788763
21
13.4181814
0
LINE
8
0
10
2.97788763
20
13.4181814
11
3.30910837
21
13.2268638
0
LINE
8
0
10
3.30910837
20
13.2268638
11
3.40226603
21
13.1730547
0
LINE
8
0
10
3.40226603
20
13.1730547
11
3.40226603
21
13.1730547
0
LINE
8
0
10
-3.80922121
20
11.1513093
11
-4.19091129
21
11.1263676
0
LINE
8
0
10
-4.19091129
20
11.1263676
11
-4.29756959
21
11.1404308
0
LINE
8
0
10
-4.29756959
20
11.1404308
11
-4.67679167
21
11.1904325
0
LINE
8
0
10
-4.67679167
20
11.1904325
11
-4.77865699
21
11.2250337
0
LINE
8
0
10
-4.77865699
20
11.2250337
11
-5.14083767
21
11.3480577
0
LINE
8
0
10
-5.14083767
20
11.3480577
11
-5.23399533
21
11.4018667
0
LINE
8
0
10
-5.23399533
20
11.4018667
11
-5.56521606
21
11.5931835
0
LINE
8
0
10
-5.56521606
20
11.5931835
11
-5.64608604
21
11.6641329
0
LINE
8
0
10
-5.64608604
20
11.6641329
11
-5.93361807
21
11.9163923
0
LINE
8
0
10
-5.93361807
20
11.9163923
11
-11.2678255
21
17.61392
0
LINE
8
0
10
-11.2678255
20
17.61392
11
-12.7681007
21
19.2163811
0
LINE
8
0
10
-12.7681007
20
19.2163811
11
-12.8335753
21
19.3017441
0
LINE
8
0
10
-12.8335753
20
19.3017441
11
-13.0663691
21
19.6052513
0
LINE
8
0
10
-13.0663691
20
19.6052513
11
-13.1139321
21
19.7017478
0
LINE
8
0
10
-13.1139321
20
19.7017478
11
-13.283042
21
20.0448399
0
LINE
8
0
10
-13.283042
20
20.0448399
11
-13.3108655
21
20.1487611
0
LINE
8
0
10
-13.3108655
20
20.1487611
11
-13.4097919
21
20.5182514
0
LINE
8
0
10
-13.4097919
20
20.5182514
11
-13.4168069
21
20.6256038
0
LINE
8
0
10
-13.4168069
20
20.6256038
11
-13.4417486
21
21.0072937
0
LINE
8
0
10
-13.4417486
20
21.0072937
11
-13.4276854
21
21.1139519
0
LINE
8
0
10
-13.4276854
20
21.1139519
11
-13.3776836
21
21.4931736
0
LINE
8
0
10
-13.3776836
20
21.4931736
11
-13.3430827
21
21.595039
0
LINE
8
0
10
-13.3430827
20
21.595039
11
-13.2200594
21
21.9572201
0
LINE
8
0
10
-13.2200594
20
21.9572201
11
-13.1662503
21
22.0503775
0
LINE
8
0
10
-13.1662503
20
22.0503775
11
-12.9749327
21
22.3815975
0
LINE
8
0
10
-12.9749327
20
22.3815975
11
-12.9039833
21
22.4624676
0
LINE
8
0
10
-12.9039833
20
22.4624676
11
-12.6517239
21
22.75
0
LINE
8
0
10
-12.6517239
20
22.75
11
-12.566361
21
22.8154747
0
LINE
8
0
10
-12.566361
20
22.8154747
11
-12.2628546
21
23.0482693
0
LINE
8
0
10
-12.2628546
20
23.0482693
11
-12.1663583
21
23.0958319
0
LINE
8
0
10
-12.1663583
20
23.0958319
11
-11.823267
21
23.2649403
0
LINE
8
0
10
-11.823267
20
23.2649403
11
-11.7193458
21
23.2927641
0
LINE
8
0
10
-11.7193458
20
23.2927641
11
-11.3498554
21
23.3916912
0
LINE
8
0
10
-11.3498554
20
23.3916912
11
-11.242503
21
23.3987064
0
LINE
8
0
10
-11.242503
20
23.3987064
11
-10.8608131
21
23.4236488
0
LINE
8
0
10
-10.8608131
20
23.4236488
11
-10.7541547
21
23.4095854
0
LINE
8
0
10
-10.7541547
20
23.4095854
11
-10.3749323
21
23.3595829
0
LINE
8
0
10
-10.3749323
20
23.3595829
11
-10.2730671
21
23.3249817
0
LINE
8
0
10
-10.2730671
20
23.3249817
11
-9.91088676
21
23.2019577
0
LINE
8
0
10
-9.91088676
20
23.2019577
11
-9.8177291
21
23.148149
0
LINE
8
0
10
-9.8177291
20
23.148149
11
-9.48650837
21
22.9568329
0
LINE
8
0
10
-9.48650837
20
22.9568329
11
-9.40563829
21
22.8858833
0
LINE
8
0
10
-9.40563829
20
22.8858833
11
-9.11810589
21
22.6336231
0
LINE
8
0
10
-9.11810589
20
22.6336231
11
-3.78389868
21
16.9360955
0
LINE
8
0
10
-3.78389868
20
16.9360955
11
-2.28362346
21
15.3336344
0
LINE
8
0
10
-2.28362346
20
15.3336344
11
-2.21814884
21
15.2482713
0
LINE
8
0
10
-2.21814884
20
15.2482713
11
-1.98535478
21
14.9447641
0
LINE
8
0
10
-1.98535478
20
14.9447641
11
-1.93779176
21
14.8482678
0
LINE
8
0
10
-1.93779176
20
14.8482678
11
-1.76868212
21
14.5051765
0
LINE
8
0
10
-1.76868212
20
14.5051765
11
-1.7408585
21
14.4012553
0
LINE
8
0
10
-1.7408585
20
14.4012553
11
-1.64193201
21
14.031765
0
LINE
8
0
10
-1.64193201
20
14.031765
11
-1.63491705
21
13.9244126
0
LINE
8
0
10
-1.63491705
20
13.9244126
11
-1.60997546
21
13.5427227
0
LINE
8
0
10
-1.60997546
20
13.5427227
11
-1.62403869
21
13.4360643
0
LINE
8
0
10
-1.62403869
20
13.4360643
11
-1.67404032
21
13.0568419
0
LINE
8
0
10
-1.67404032
20
13.0568419
11
-1.70864134
21
12.9549766
0
LINE
8
0
10
-1.70864134
20
12.9549766
11
-1.8316648
21
12.5927963
0
LINE
8
0
10
-1.8316648
20
12.5927963
11
-1.88547388
21
12.4996387
0
LINE
8
0
10
-1.88547388
20
12.4996387
11
-2.07679129
21
12.1684179
0
LINE
8
0
10
-2.07679129
20
12.1684179
11
-2.14774065
21
12.0875481
0
LINE
8
0
10
-2.14774065
20
12.0875481
11
-2.4000001
21
11.8000164
0
LINE
8
0
10
-2.4000001
20
11.8000164
11
-2.48536311
21
11.7345417
0
LINE
8
0
10
-2.48536311
20
11.7345417
11
-2.7888701
21
11.5017471
0
LINE
8
0
10
-2.7888701
20
11.5017471
11
-2.88536631
21
11.4541843
0
LINE
8
0
10
-2.88536631
20
11.4541843
11
-3.22845721
21
11.2850752
0
LINE
8
0
10
-3.22845721
20
11.2850752
11
-3.33237842
21
11.2572514
0
LINE
8
0
10
-3.33237842
20
11.2572514
11
-3.70186877
21
11.1583242
0
LINE
8
0
10
-3.70186877
20
11.1583242
11
-3.80922121
21
11.1513093
0
LINE
8
0
10
-3.80922121
20
11.1513093
11
-3.80922121
21
11.1513093
0
LINE
8
0
10
-13.6651845
20
46.5
11
-13.7721223
21
46.5
0
LINE
8
0
10
-13.7721223
20
46.5
11
-16.4768393
21
46.5
0
LINE
8
0
10
-16.4768393
20
46.5
11
-18.5499992
21
46.5
0
LINE
8
0
10
-18.5499992
20
46.5
11
-18.5499992
21
46.0921798
0
LINE
8
0
10
-18.5499992
20
46.0921798
11
-18.5499992
21
45.5500624
0
LINE
8
0
10
-18.5499992
20
45.5500624
11
-18.5499992
21
45.5000725
0
LINE
8
0
10
-18.5499992
20
45.5000725
11
-18.5499992
21
45.3966603
0
LINE
8
0
10
-18.5499992
20
45.3966603
11
-18.5499992
21
45.2423369
0
LINE
8
0
10
-18.5499992
20
45.2423369
11
-18.5499992
21
45.0438861
0
LINE
8
0
10
-18.5499992
20
45.0438861
11
-18.5499992
21
42.4013856
0
LINE
8
0
10
-18.5499992
20
42.4013856
11
-18.5499992
21
42.2936524
0
LINE
8
0
10
-18.5499992
20
42.2936524
11
-18.5499992
21
42.1610373
0
LINE
8
0
10
-18.5499992
20
42.1610373
11
-18.5499992
21
40.8041443
0
LINE
8
0
10
-18.5499992
20
40.8041443
11
-18.5499992
21
40.7075798
0
LINE
8
0
10
-18.5499992
20
40.7075798
11
-18.5499992
21
40.6043473
0
LINE
8
0
10
-18.5499992
20
40.6043473
11
-18.5499992
21
40.5036547
0
LINE
8
0
10
-18.5499992
20
40.5036547
11
-18.5499992
21
40.4137469
0
LINE
8
0
10
-18.5499992
20
40.4137469
11
-18.5499992
21
40.1162088
0
LINE
8
0
10
-18.5499992
20
40.1162088
11
-18.5499992
21
37.5807416
0
LINE
8
0
10
-18.5499992
20
37.5807416
11
-18.5499992
21
37.0362995
0
LINE
8
0
10
-18.5499992
20
37.0362995
11
-18.5499992
21
35.4889861
0
LINE
8
0
10
-18.5499992
20
35.4889861
11
-18.5499992
21
9.20164957
0
LINE
8
0
10
-18.5499992
20
9.20164957
11
-18.5499992
21
7.39375652
0
LINE
8
0
10
-18.5499992
20
7.39375652
11
-18.5499992
21
5.62751943
0
LINE
8
0
10
-18.5499992
20
5.62751943
11
-18.5499992
21
4.86480628
0
LINE
8
0
10
-18.5499992
20
4.86480628
11
-18.5499992
21
4.77376853
0
LINE
8
0
10
-18.5499992
20
4.77376853
11
-18.5499992
21
3.45240951
0
LINE
8
0
10
-18.5499992
20
3.45240951
11
-18.5499992
21
3.32804688
0
LINE
8
0
10
-18.5499992
20
3.32804688
11
-18.5499992
21
3.23102973
0
LINE
8
0
10
-18.5499992
20
3.23102973
11
-18.5499992
21
0.604802162
0
LINE
8
0
10
-18.5499992
20
0.604802162
11
-18.5499992
21
0.420240628
0
LINE
8
0
10
-18.5499992
20
0.420240628
11
-18.5499992
21
0.282932922
0
LINE
8
0
10
-18.5499992
20
0.282932922
11
-18.5499992
21
0.197987283
0
LINE
8
0
10
-18.5499992
20
0.197987283
11
-18.5499992
21
-0.59786237
0
LINE
8
0
10
-18.5499992
20
-0.59786237
11
-18.5499992
21
-0.647686236
0
LINE
8
0
10
-18.5499992
20
-0.647686236
11
-18.5499992
21
-1.10000002
0
LINE
8
0
10
-18.5499992
20
-1.10000002
11
-17.9098311
21
-1.10000002
0
LINE
8
0
10
-17.9098311
20
-1.10000002
11
-16.4768393
21
-1.10000002
0
LINE
8
0
10
-16.4768393
20
-1.10000002
11
-13.7721223
21
-1.10000002
0
LINE
8
0
10
-13.7721223
20
-1.10000002
11
-13.6651845
21
-1.10000002
0
LINE
8
0
10
-13.6651845
20
-1.10000002
11
-13.5131376
21
-1.10000002
0
LINE
8
0
10
-13.5131376
20
-1.10000002
11
-13.3227752
21
-1.10000002
0
LINE
8
0
10
-13.3227752
20
-1.10000002
11
-13.1067913
21
-1.10000002
0
LINE
8
0
10
-13.1067913
20
-1.10000002
11
-12.8833424
21
-1.10000002
0
LINE
8
0
10
-12.8833424
20
-1.10000002
11
-12.6738081
21
-1.10000002
0
LINE
8
0
10
-12.6738081
20
-1.10000002
11
-12.4990419
21
-1.10000002
0
LINE
8
0
10
-12.4990419
20
-1.10000002
11
-12.3753216
21
-1.10000002
0
LINE
8
0
10
-12.3753216
20
-1.10000002
11
-12.3115576
21
-1.10000002
0
LINE
8
0
10
-12.3115576
20
-1.10000002
11
2.56105026
21
-1.10000002
0
LINE
8
0
10
2.56105026
20
-1.10000002
11
11.397882
21
-1.10000002
0
LINE
8
0
10
11.397882
20
-1.10000002
11
11.4863303
21
-1.10000002
0
LINE
8
0
10
11.4863303
20
-1.10000002
11
11.6262228
21
-1.10000002
0
LINE
8
0
10
11.6262228
20
-1.10000002
11
11.806627
21
-1.10000002
0
LINE
8
0
10
11.806627
20
-1.10000002
11
12.0105233
21
-1.10000002
0
LINE
8
0
10
12.0105233
20
-1.10000002
11
12.2177999
21
-1.10000002
0
LINE
8
0
10
12.2177999
20
-1.10000002
11
12.4090995
21
-1.10000002
0
LINE
8
0
10
12.4090995
20
-1.10000002
11
12.5690604
21
-1.10000002
0
LINE
8
0
10
12.5690604
20
-1.10000002
11
12.6879656
21
-1.10000002
0
LINE
8
0
10
12.6879656
20
-1.10000002
11
13.75
21
-1.10000002
0
LINE
8
0
10
13.75
20
-1.10000002
11
13.75
21
1.66952331
0
LINE
8
0
10
13.75
20
1.66952331
11
13.75
21
3.39592998
0
LINE
8
0
10
13.75
20
3.39592998
11
13.75
21
18.570738
0
LINE
8
0
10
13.75
20
18.570738
11
13.75
21
42.0721902
0
LINE
8
0
10
13.75
20
42.0721902
11
13.75
21
43.7847811
0
LINE
8
0
10
13.75
20
43.7847811
11
13.75
21
46.5
0
LINE
8
0
10
13.75
20
46.5
11
12.6879656
21
46.5
0
LINE
8
0
10
12.6879656
20
46.5
11
12.5690604
21
46.5
0
LINE
8
0
10
12.5690604
20
46.5
11
12.4090995
21
46.5
0
LINE
8
0
10
12.4090995
20
46.5
11
12.2177999
21
46.5
0
LINE
8
0
10
12.2177999
20
46.5
11
12.0105233
21
46.5
0
LINE
8
0
10
12.0105233
20
46.5
11
11.806627
21
46.5
0
LINE
8
0
10
11.806627
20
46.5
11
11.6262228
21
46.5
0
LINE
8
0
10
11.6262228
20
46.5
11
11.4863303
21
46.5
0
LINE
8
0
10
11.4863303
20
46.5
11
11.397882
21
46.5
0
LINE
8
0
10
11.397882
20
46.5
11
2.56105026
21
46.5
0
LINE
8
0
10
2.56105026
20
46.5
11
-12.3115576
21
46.5
0
LINE
8
0
10
-12.3115576
20
46.5
11
-12.3753216
21
46.5
0
LINE
8
0
10
-12.3753216
20
46.5
11
-12.4990419
21
46.5
0
LINE
8
0
10
-12.4990419
20
46.5
11
-12.6738081
21
46.5
0
LINE
8
0
10
-12.6738081
20
46.5
11
-12.8833424
21
46.5
0
LINE
8
0
10
-12.8833424
20
46.5
11
-13.1067913
21
46.5
0
LINE
8
0
10
-13.1067913
20
46.5
11
-13.3227752
21
46.5
0
LINE
8
0
10
-13.3227752
20
46.5
11
-13.5131376
21
46.5
0
LINE
8
0
10
-13.5131376
20
46.5
11
-13.6651845
21
46.5
0
LINE
8
0
10
-13.6651845
20
46.5
11
-13.6651845
21
46.5
0
ENDSEC
0
EOF
