0
SECTION
2
ENTITIES
0
LINE
8
0
10
-15.2908359
20
46.5
11
-15.6968532
21
46.5
0
LINE
8
0
10
-15.6968532
20
46.5
11
-16.0577833
21
46.5
0
LINE
8
0
10
-16.0577833
20
46.5
11
-16.350804
21
46.5
0
LINE
8
0
10
-16.350804
20
46.5
11
-16.5721035
21
46.5
0
LINE
8
0
10
-16.5721035
20
46.5
11
-18.30122
21
46.5
0
LINE
8
0
10
-18.30122
20
46.5
11
-18.5499992
21
46.5
0
LINE
8
0
10
-18.5499992
20
46.5
11
-18.5499992
21
46.4510616
0
LINE
8
0
10
-18.5499992
20
46.4510616
11
-18.5499992
21
46.3860075
0
LINE
8
0
10
-18.5499992
20
46.3860075
11
-18.5499992
21
46.3800087
0
LINE
8
0
10
-18.5499992
20
46.3800087
11
-18.5499992
21
46.3675992
0
LINE
8
0
10
-18.5499992
20
46.3675992
11
-18.5499992
21
46.3490804
0
LINE
8
0
10
-18.5499992
20
46.3490804
11
-18.5499992
21
46.3252663
0
LINE
8
0
10
-18.5499992
20
46.3252663
11
-18.5499992
21
45.5381633
0
LINE
8
0
10
-18.5499992
20
45.5381633
11
-18.5499992
21
41.9038163
0
LINE
8
0
10
-18.5499992
20
41.9038163
11
-18.5499992
21
41.5
0
LINE
8
0
10
-18.5499992
20
41.5
11
-17.0722742
21
41.5
0
LINE
8
0
10
-17.0722742
20
41.5
11
-16.8289286
21
41.5
0
LINE
8
0
10
-16.8289286
20
41.5
11
-16.533476
21
41.5
0
LINE
8
0
10
-16.533476
20
41.5
11
-16.2123772
21
41.5
0
LINE
8
0
10
-16.2123772
20
41.5
11
-15.9198865
21
41.5
0
LINE
8
0
10
-15.9198865
20
41.5
11
-15.7258444
21
41.5
0
LINE
8
0
10
-15.7258444
20
41.5
11
5.90512463
21
41.5
0
LINE
8
0
10
5.90512463
20
41.5
11
6.23082198
21
41.5
0
LINE
8
0
10
6.23082198
20
41.5
11
12.42383
21
41.5
0
LINE
8
0
10
12.42383
20
41.5
11
12.5113355
21
41.5
0
LINE
8
0
10
12.5113355
20
41.5
11
12.6638024
21
41.5
0
LINE
8
0
10
12.6638024
20
41.5
11
12.8458845
21
41.5
0
LINE
8
0
10
12.8458845
20
41.5
11
13.0200751
21
41.5
0
LINE
8
0
10
13.0200751
20
41.5
11
13.1631546
21
41.5
0
LINE
8
0
10
13.1631546
20
41.5
11
13.2680165
21
41.5
0
LINE
8
0
10
13.2680165
20
41.5
11
13.75
21
41.5
0
LINE
8
0
10
13.75
20
41.5
11
13.75
21
45.5381633
0
LINE
8
0
10
13.75
20
45.5381633
11
13.75
21
46.5
0
LINE
8
0
10
13.75
20
46.5
11
13.155547
21
46.5
0
LINE
8
0
10
13.155547
20
46.5
11
13.1181914
21
46.5
0
LINE
8
0
10
13.1181914
20
46.5
11
13.0425073
21
46.5
0
LINE
8
0
10
13.0425073
20
46.5
11
12.9209338
21
46.5
0
LINE
8
0
10
12.9209338
20
46.5
11
12.7489874
21
46.5
0
LINE
8
0
10
12.7489874
20
46.5
11
12.5309156
21
46.5
0
LINE
8
0
10
12.5309156
20
46.5
11
12.2863521
21
46.5
0
LINE
8
0
10
12.2863521
20
46.5
11
12.0522617
21
46.5
0
LINE
8
0
10
12.0522617
20
46.5
11
11.873051
21
46.5
0
LINE
8
0
10
11.873051
20
46.5
11
11.7808771
21
46.5
0
LINE
8
0
10
11.7808771
20
46.5
11
3.13229685
21
46.5
0
LINE
8
0
10
3.13229685
20
46.5
11
2.51976234
21
46.5
0
LINE
8
0
10
2.51976234
20
46.5
11
-14.3852507
21
46.5
0
LINE
8
0
10
-14.3852507
20
46.5
11
-14.5644615
21
46.5
0
LINE
8
0
10
-14.5644615
20
46.5
11
-14.8893785
21
46.5
0
LINE
8
0
10
-14.8893785
20
46.5
11
-15.2908359
21
46.5
0
LINE
8
0
10
-15.2908359
20
46.5
11
-15.2908359
21
46.5
0
LINE
8
0
10
-15.2908359
20
-1.10000002
11
-15.6968532
21
-1.10000002
0
LINE
8
0
10
-15.6968532
20
-1.10000002
11
-16.0577833
21
-1.10000002
0
LINE
8
0
10
-16.0577833
20
-1.10000002
11
-16.350804
21
-1.10000002
0
LINE
8
0
10
-16.350804
20
-1.10000002
11
-16.5721035
21
-1.10000002
0
LINE
8
0
10
-16.5721035
20
-1.10000002
11
-18.30122
21
-1.10000002
0
LINE
8
0
10
-18.30122
20
-1.10000002
11
-18.4731791
21
-1.10000002
0
LINE
8
0
10
-18.4731791
20
-1.10000002
11
-18.5499992
21
-1.10000002
0
LINE
8
0
10
-18.5499992
20
-1.10000002
11
-18.5499992
21
-1.04572237
0
LINE
8
0
10
-18.5499992
20
-1.04572237
11
-18.5499992
21
-1.03974351
0
LINE
8
0
10
-18.5499992
20
-1.03974351
11
-18.5499992
21
-0.944241547
0
LINE
8
0
10
-18.5499992
20
-0.944241547
11
-18.5499992
21
-0.93404807
0
LINE
8
0
10
-18.5499992
20
-0.93404807
11
-18.5499992
21
-0.917571146
0
LINE
8
0
10
-18.5499992
20
-0.917571146
11
-18.5499992
21
-0.895423761
0
LINE
8
0
10
-18.5499992
20
-0.895423761
11
-18.5499992
21
-0.118926604
0
LINE
8
0
10
-18.5499992
20
-0.118926604
11
-18.5499992
21
3.59618367
0
LINE
8
0
10
-18.5499992
20
3.59618367
11
-18.5499992
21
4
0
LINE
8
0
10
-18.5499992
20
4
11
-17.0722742
21
4
0
LINE
8
0
10
-17.0722742
20
4
11
-16.8289286
21
4
0
LINE
8
0
10
-16.8289286
20
4
11
-16.533476
21
4
0
LINE
8
0
10
-16.533476
20
4
11
-16.2123772
21
4
0
LINE
8
0
10
-16.2123772
20
4
11
-15.9198865
21
4
0
LINE
8
0
10
-15.9198865
20
4
11
-15.7258444
21
4
0
LINE
8
0
10
-15.7258444
20
4
11
5.90512463
21
4
0
LINE
8
0
10
5.90512463
20
4
11
6.23082198
21
4
0
LINE
8
0
10
6.23082198
20
4
11
12.42383
21
4
0
LINE
8
0
10
12.42383
20
4
11
12.5113355
21
4
0
LINE
8
0
10
12.5113355
20
4
11
12.6638024
21
4
0
LINE
8
0
10
12.6638024
20
4
11
12.8458845
21
4
0
LINE
8
0
10
12.8458845
20
4
11
13.0200751
21
4
0
LINE
8
0
10
13.0200751
20
4
11
13.1631546
21
4
0
LINE
8
0
10
13.1631546
20
4
11
13.2680165
21
4
0
LINE
8
0
10
13.2680165
20
4
11
13.75
21
4
0
LINE
8
0
10
13.75
20
4
11
13.75
21
-0.118926604
0
LINE
8
0
10
13.75
20
-0.118926604
11
13.75
21
-1.10000002
0
LINE
8
0
10
13.75
20
-1.10000002
11
13.155547
21
-1.10000002
0
LINE
8
0
10
13.155547
20
-1.10000002
11
13.1181914
21
-1.10000002
0
LINE
8
0
10
13.1181914
20
-1.10000002
11
13.0425073
21
-1.10000002
0
LINE
8
0
10
13.0425073
20
-1.10000002
11
12.9209338
21
-1.10000002
0
LINE
8
0
10
12.9209338
20
-1.10000002
11
12.7489874
21
-1.10000002
0
LINE
8
0
10
12.7489874
20
-1.10000002
11
12.5309156
21
-1.10000002
0
LINE
8
0
10
12.5309156
20
-1.10000002
11
12.2863521
21
-1.10000002
0
LINE
8
0
10
12.2863521
20
-1.10000002
11
12.0522617
21
-1.10000002
0
LINE
8
0
10
12.0522617
20
-1.10000002
11
11.873051
21
-1.10000002
0
LINE
8
0
10
11.873051
20
-1.10000002
11
11.7808771
21
-1.10000002
0
LINE
8
0
10
11.7808771
20
-1.10000002
11
3.13229685
21
-1.10000002
0
LINE
8
0
10
3.13229685
20
-1.10000002
11
2.51976234
21
-1.10000002
0
LINE
8
0
10
2.51976234
20
-1.10000002
11
-14.3852507
21
-1.10000002
0
LINE
8
0
10
-14.3852507
20
-1.10000002
11
-14.5644615
21
-1.10000002
0
LINE
8
0
10
-14.5644615
20
-1.10000002
11
-14.8893785
21
-1.10000002
0
LINE
8
0
10
-14.8893785
20
-1.10000002
11
-15.2908359
21
-1.10000002
0
LINE
8
0
10
-15.2908359
20
-1.10000002
11
-15.2908359
21
-1.10000002
0
ENDSEC
0
EOF
