0
SECTION
2
ENTITIES
0
LINE
8
0
10
8.38658193
20
21.9223937
11
8.52625561
21
22.0295258
0
LINE
8
0
10
8.52625561
20
22.0295258
11
8.7333746
21
22.2656046
0
LINE
8
0
10
8.7333746
20
22.2656046
11
8.84946442
21
22.3979263
0
LINE
8
0
10
8.84946442
20
22.3979263
11
9.00654677
21
22.6698775
0
LINE
8
0
10
9.00654677
20
22.6698775
11
9.09459114
21
22.8223057
0
LINE
8
0
10
9.09459114
20
22.8223057
11
9.19560007
21
23.1196764
0
LINE
8
0
10
9.19560007
20
23.1196764
11
9.25221539
21
23.2863522
0
LINE
8
0
10
9.25221539
20
23.2863522
11
9.29326957
21
23.5977142
0
LINE
8
0
10
9.29326957
20
23.5977142
11
9.31628036
21
23.7722321
0
LINE
8
0
10
9.31628036
20
23.7722321
11
9.29580186
21
24.0856206
0
LINE
8
0
10
9.29580186
20
24.0856206
11
9.28432369
21
24.2612743
0
LINE
8
0
10
9.28432369
20
24.2612743
11
9.20309963
21
24.5646464
0
LINE
8
0
10
9.20309963
20
24.5646464
11
9.1575737
21
24.7346859
0
LINE
8
0
10
9.1575737
20
24.7346859
11
9.01872516
21
25.0163823
0
LINE
8
0
10
9.01872516
20
25.0163823
11
8.9409008
21
25.1742725
0
LINE
8
0
10
8.9409008
20
25.1742725
11
8.7497642
21
25.4234688
0
LINE
8
0
10
8.7497642
20
25.4234688
11
8.64263248
21
25.5631428
0
LINE
8
0
10
8.64263248
20
25.5631428
11
6.18782984
21
28.1851457
0
LINE
8
0
10
6.18782984
20
28.1851457
11
1.8081497
21
32.8631325
0
LINE
8
0
10
1.8081497
20
32.8631325
11
1.5720698
21
33.0702509
0
LINE
8
0
10
1.5720698
20
33.0702509
11
1.43974745
21
33.1863403
0
LINE
8
0
10
1.43974745
20
33.1863403
11
1.16779694
21
33.3434239
0
LINE
8
0
10
1.16779694
20
33.3434239
11
1.01536918
21
33.431469
0
LINE
8
0
10
1.01536918
20
33.431469
11
0.717998865
21
33.5324773
0
LINE
8
0
10
0.717998865
20
33.5324773
11
0.551323354
21
33.5890923
0
LINE
8
0
10
0.551323354
20
33.5890923
11
0.239961046
21
33.6301458
0
LINE
8
0
10
0.239961046
20
33.6301458
11
0.0654430464
21
33.6531563
0
LINE
8
0
10
0.0654430464
20
33.6531563
11
-0.247945794
21
33.6326784
0
LINE
8
0
10
-0.247945794
20
33.6326784
11
-0.42359966
21
33.6212006
0
LINE
8
0
10
-0.42359966
20
33.6212006
11
-0.726971657
21
33.5399759
0
LINE
8
0
10
-0.726971657
20
33.5399759
11
-0.897011101
21
33.4944496
0
LINE
8
0
10
-0.897011101
20
33.4944496
11
-1.17870787
21
33.3556023
0
LINE
8
0
10
-1.17870787
20
33.3556023
11
-1.3365984
21
33.2777786
0
LINE
8
0
10
-1.3365984
20
33.2777786
11
-1.58579446
21
33.0866402
0
LINE
8
0
10
-1.58579446
20
33.0866402
11
-1.7254684
21
32.9795074
0
LINE
8
0
10
-1.7254684
20
32.9795074
11
-1.93258724
21
32.7434286
0
LINE
8
0
10
-1.93258724
20
32.7434286
11
-2.04867697
21
32.6111069
0
LINE
8
0
10
-2.04867697
20
32.6111069
11
-2.20575932
21
32.3391569
0
LINE
8
0
10
-2.20575932
20
32.3391569
11
-2.29380369
21
32.1867294
0
LINE
8
0
10
-2.29380369
20
32.1867294
11
-2.39481262
21
31.8893587
0
LINE
8
0
10
-2.39481262
20
31.8893587
11
-2.45142794
21
31.722683
0
LINE
8
0
10
-2.45142794
20
31.722683
11
-2.49248212
21
31.4113209
0
LINE
8
0
10
-2.49248212
20
31.4113209
11
-2.51549292
21
31.2368031
0
LINE
8
0
10
-2.51549292
20
31.2368031
11
-2.49501441
21
30.9234133
0
LINE
8
0
10
-2.49501441
20
30.9234133
11
-2.48353624
21
30.7477589
0
LINE
8
0
10
-2.48353624
20
30.7477589
11
-2.40231219
21
30.444388
0
LINE
8
0
10
-2.40231219
20
30.444388
11
-2.35678625
21
30.2743492
0
LINE
8
0
10
-2.35678625
20
30.2743492
11
-2.21793786
21
29.9926516
0
LINE
8
0
10
-2.21793786
20
29.9926516
11
-2.14011359
21
29.8347607
0
LINE
8
0
10
-2.14011359
20
29.8347607
11
-1.94897684
21
29.5855644
0
LINE
8
0
10
-1.94897684
20
29.5855644
11
-1.84184504
21
29.4458904
0
LINE
8
0
10
-1.84184504
20
29.4458904
11
0.612957564
21
26.8238875
0
LINE
8
0
10
0.612957564
20
26.8238875
11
4.99263763
21
22.1459007
0
LINE
8
0
10
4.99263763
20
22.1459007
11
5.22871768
21
21.9387823
0
LINE
8
0
10
5.22871768
20
21.9387823
11
5.36104012
21
21.8226929
0
LINE
8
0
10
5.36104012
20
21.8226929
11
5.63299071
21
21.6656105
0
LINE
8
0
10
5.63299071
20
21.6656105
11
5.78541851
21
21.5775661
0
LINE
8
0
10
5.78541851
20
21.5775661
11
6.08278863
21
21.4765578
0
LINE
8
0
10
6.08278863
20
21.4765578
11
6.24946404
21
21.4199429
0
LINE
8
0
10
6.24946404
20
21.4199429
11
6.56082639
21
21.3788881
0
LINE
8
0
10
6.56082639
20
21.3788881
11
6.73534441
21
21.3558769
0
LINE
8
0
10
6.73534441
20
21.3558769
11
7.04873328
21
21.376356
0
LINE
8
0
10
7.04873328
20
21.376356
11
7.22438717
21
21.3878345
0
LINE
8
0
10
7.22438717
20
21.3878345
11
7.52775924
21
21.469058
0
LINE
8
0
10
7.52775924
20
21.469058
11
7.69779873
21
21.5145836
0
LINE
8
0
10
7.69779873
20
21.5145836
11
7.97949569
21
21.6534321
0
LINE
8
0
10
7.97949569
20
21.6534321
11
8.13738632
21
21.7312565
0
LINE
8
0
10
8.13738632
20
21.7312565
11
8.38658193
21
21.9223937
0
LINE
8
0
10
8.38658193
20
21.9223937
11
8.38658193
21
21.9223937
0
LINE
8
0
10
3.40226603
20
13.1730547
11
3.6996363
21
13.0720458
0
LINE
8
0
10
3.6996363
20
13.0720458
11
3.86631179
21
13.0154305
0
LINE
8
0
10
3.86631179
20
13.0154305
11
4.17767399
21
12.9743763
0
LINE
8
0
10
4.17767399
20
12.9743763
11
4.35219193
21
12.9513655
0
LINE
8
0
10
4.35219193
20
12.9513655
11
4.6655808
21
12.971844
0
LINE
8
0
10
4.6655808
20
12.971844
11
4.84123468
21
12.9833221
0
LINE
8
0
10
4.84123468
20
12.9833221
11
5.14460676
21
13.0645462
0
LINE
8
0
10
5.14460676
20
13.0645462
11
5.31464624
21
13.1100721
0
LINE
8
0
10
5.31464624
20
13.1100721
11
5.5963429
21
13.2489207
0
LINE
8
0
10
5.5963429
20
13.2489207
11
5.75423336
21
13.326745
0
LINE
8
0
10
5.75423336
20
13.326745
11
6.00342958
21
13.5178816
0
LINE
8
0
10
6.00342958
20
13.5178816
11
6.1431036
21
13.6250134
0
LINE
8
0
10
6.1431036
20
13.6250134
11
6.35022229
21
13.8610934
0
LINE
8
0
10
6.35022229
20
13.8610934
11
6.46631193
21
13.9934158
0
LINE
8
0
10
6.46631193
20
13.9934158
11
6.62339429
21
14.2653664
0
LINE
8
0
10
6.62339429
20
14.2653664
11
6.71143866
21
14.4177942
0
LINE
8
0
10
6.71143866
20
14.4177942
11
6.81244789
21
14.7151643
0
LINE
8
0
10
6.81244789
20
14.7151643
11
6.86906338
21
14.8818398
0
LINE
8
0
10
6.86906338
20
14.8818398
11
6.91011726
21
15.1932018
0
LINE
8
0
10
6.91011726
20
15.1932018
11
6.93312788
21
15.3677197
0
LINE
8
0
10
6.93312788
20
15.3677197
11
6.91264937
21
15.6811088
0
LINE
8
0
10
6.91264937
20
15.6811088
11
6.90117121
21
15.8567629
0
LINE
8
0
10
6.90117121
20
15.8567629
11
6.81994715
21
16.1601343
0
LINE
8
0
10
6.81994715
20
16.1601343
11
6.77442122
21
16.3301735
0
LINE
8
0
10
6.77442122
20
16.3301735
11
6.63557298
21
16.6118711
0
LINE
8
0
10
6.63557298
20
16.6118711
11
6.55774879
21
16.769762
0
LINE
8
0
10
6.55774879
20
16.769762
11
6.36661188
21
17.0189583
0
LINE
8
0
10
6.36661188
20
17.0189583
11
6.25948
21
17.1586323
0
LINE
8
0
10
6.25948
20
17.1586323
11
1.3498748
21
22.4026375
0
LINE
8
0
10
1.3498748
20
22.4026375
11
-7.40948534
21
31.7586098
0
LINE
8
0
10
-7.40948534
20
31.7586098
11
-7.64556539
21
31.9657282
0
LINE
8
0
10
-7.64556539
20
31.9657282
11
-7.77788782
21
32.0818176
0
LINE
8
0
10
-7.77788782
20
32.0818176
11
-8.04983811
21
32.2389012
0
LINE
8
0
10
-8.04983811
20
32.2389012
11
-8.20226574
21
32.3269463
0
LINE
8
0
10
-8.20226574
20
32.3269463
11
-8.49963647
21
32.4279546
0
LINE
8
0
10
-8.49963647
20
32.4279546
11
-8.66631222
21
32.4845695
0
LINE
8
0
10
-8.66631222
20
32.4845695
11
-8.97767426
21
32.5256231
0
LINE
8
0
10
-8.97767426
20
32.5256231
11
-9.15219212
21
32.5486336
0
LINE
8
0
10
-9.15219212
20
32.5486336
11
-9.46558068
21
32.5281557
0
LINE
8
0
10
-9.46558068
20
32.5281557
11
-9.6412344
21
32.5166779
0
LINE
8
0
10
-9.6412344
20
32.5166779
11
-9.94460647
21
32.4354532
0
LINE
8
0
10
-9.94460647
20
32.4354532
11
-10.114646
21
32.3899269
0
LINE
8
0
10
-10.114646
20
32.3899269
11
-10.3963429
21
32.2510796
0
LINE
8
0
10
-10.3963429
20
32.2510796
11
-10.5542336
21
32.1732559
0
LINE
8
0
10
-10.5542336
20
32.1732559
11
-10.8034298
21
31.9821187
0
LINE
8
0
10
-10.8034298
20
31.9821187
11
-10.9431038
21
31.8749866
0
LINE
8
0
10
-10.9431038
20
31.8749866
11
-11.1502228
21
31.6389066
0
LINE
8
0
10
-11.1502228
20
31.6389066
11
-11.2663126
21
31.5065842
0
LINE
8
0
10
-11.2663126
20
31.5065842
11
-11.4233943
21
31.2346342
0
LINE
8
0
10
-11.4233943
20
31.2346342
11
-11.5114384
21
31.0822067
0
LINE
8
0
10
-11.5114384
20
31.0822067
11
-11.6124479
21
30.784836
0
LINE
8
0
10
-11.6124479
20
30.784836
11
-11.6690636
21
30.6181602
0
LINE
8
0
10
-11.6690636
20
30.6181602
11
-11.7101178
21
30.3067982
0
LINE
8
0
10
-11.7101178
20
30.3067982
11
-11.7331285
21
30.1322803
0
LINE
8
0
10
-11.7331285
20
30.1322803
11
-11.71265
21
29.8188918
0
LINE
8
0
10
-11.71265
20
29.8188918
11
-11.7011719
21
29.6432381
0
LINE
8
0
10
-11.7011719
20
29.6432381
11
-11.6199472
21
29.339866
0
LINE
8
0
10
-11.6199472
20
29.339866
11
-11.5744209
21
29.1698265
0
LINE
8
0
10
-11.5744209
20
29.1698265
11
-11.435573
21
28.8881289
0
LINE
8
0
10
-11.435573
20
28.8881289
11
-11.357749
21
28.730238
0
LINE
8
0
10
-11.357749
20
28.730238
11
-11.1666118
21
28.4810417
0
LINE
8
0
10
-11.1666118
20
28.4810417
11
-11.0594797
21
28.3413677
0
LINE
8
0
10
-11.0594797
20
28.3413677
11
-6.1498746
21
23.0973625
0
LINE
8
0
10
-6.1498746
20
23.0973625
11
2.60948539
21
13.7413902
0
LINE
8
0
10
2.60948539
20
13.7413902
11
2.84556528
21
13.5342712
0
LINE
8
0
10
2.84556528
20
13.5342712
11
2.97788763
21
13.4181814
0
LINE
8
0
10
2.97788763
20
13.4181814
11
3.24983822
21
13.2610991
0
LINE
8
0
10
3.24983822
20
13.2610991
11
3.40226603
21
13.1730547
0
LINE
8
0
10
3.40226603
20
13.1730547
11
3.40226603
21
13.1730547
0
LINE
8
0
10
-12.8588429
20
22.51392
11
-12.9749327
21
22.3815975
0
LINE
8
0
10
-12.9749327
20
22.3815975
11
-13.132015
21
22.1096475
0
LINE
8
0
10
-13.132015
20
22.1096475
11
-13.2200594
21
21.9572201
0
LINE
8
0
10
-13.2200594
20
21.9572201
11
-13.3210683
21
21.6598493
0
LINE
8
0
10
-13.3210683
20
21.6598493
11
-13.3776836
21
21.4931736
0
LINE
8
0
10
-13.3776836
20
21.4931736
11
-13.4187378
21
21.1818116
0
LINE
8
0
10
-13.4187378
20
21.1818116
11
-13.4417486
21
21.0072937
0
LINE
8
0
10
-13.4417486
20
21.0072937
11
-13.4212701
21
20.6939051
0
LINE
8
0
10
-13.4212701
20
20.6939051
11
-13.4097919
21
20.5182514
0
LINE
8
0
10
-13.4097919
20
20.5182514
11
-13.3285679
21
20.2148793
0
LINE
8
0
10
-13.3285679
20
20.2148793
11
-13.283042
21
20.0448399
0
LINE
8
0
10
-13.283042
20
20.0448399
11
-13.1441934
21
19.7631423
0
LINE
8
0
10
-13.1441934
20
19.7631423
11
-13.0663691
21
19.6052513
0
LINE
8
0
10
-13.0663691
20
19.6052513
11
-12.8752325
21
19.3560551
0
LINE
8
0
10
-12.8752325
20
19.3560551
11
-12.7681007
21
19.2163811
0
LINE
8
0
10
-12.7681007
20
19.2163811
11
-10.3132981
21
16.5943785
0
LINE
8
0
10
-10.3132981
20
16.5943785
11
-5.93361807
21
11.9163923
0
LINE
8
0
10
-5.93361807
20
11.9163923
11
-5.69753833
21
11.7092733
0
LINE
8
0
10
-5.69753833
20
11.7092733
11
-5.56521606
21
11.5931835
0
LINE
8
0
10
-5.56521606
20
11.5931835
11
-5.29326547
21
11.4361018
0
LINE
8
0
10
-5.29326547
20
11.4361018
11
-5.14083767
21
11.3480577
0
LINE
8
0
10
-5.14083767
20
11.3480577
11
-4.84346724
21
11.2470482
0
LINE
8
0
10
-4.84346724
20
11.2470482
11
-4.67679167
21
11.1904325
0
LINE
8
0
10
-4.67679167
20
11.1904325
11
-4.36542932
21
11.1493784
0
LINE
8
0
10
-4.36542932
20
11.1493784
11
-4.19091129
21
11.1263676
0
LINE
8
0
10
-4.19091129
20
11.1263676
11
-3.87752257
21
11.1468461
0
LINE
8
0
10
-3.87752257
20
11.1468461
11
-3.70186877
21
11.1583242
0
LINE
8
0
10
-3.70186877
20
11.1583242
11
-3.3984967
21
11.2395489
0
LINE
8
0
10
-3.3984967
20
11.2395489
11
-3.22845721
21
11.2850752
0
LINE
8
0
10
-3.22845721
20
11.2850752
11
-2.94676055
21
11.4239231
0
LINE
8
0
10
-2.94676055
20
11.4239231
11
-2.7888701
21
11.5017471
0
LINE
8
0
10
-2.7888701
20
11.5017471
11
-2.53967403
21
11.6928843
0
LINE
8
0
10
-2.53967403
20
11.6928843
11
-2.4000001
21
11.8000164
0
LINE
8
0
10
-2.4000001
20
11.8000164
11
-2.1928811
21
12.0360958
0
LINE
8
0
10
-2.1928811
20
12.0360958
11
-2.07679129
21
12.1684179
0
LINE
8
0
10
-2.07679129
20
12.1684179
11
-1.91970908
21
12.4403685
0
LINE
8
0
10
-1.91970908
20
12.4403685
11
-1.8316648
21
12.5927963
0
LINE
8
0
10
-1.8316648
20
12.5927963
11
-1.73065572
21
12.8901664
0
LINE
8
0
10
-1.73065572
20
12.8901664
11
-1.67404032
21
13.0568419
0
LINE
8
0
10
-1.67404032
20
13.0568419
11
-1.63298621
21
13.3682045
0
LINE
8
0
10
-1.63298621
20
13.3682045
11
-1.60997546
21
13.5427227
0
LINE
8
0
10
-1.60997546
20
13.5427227
11
-1.63045389
21
13.8561113
0
LINE
8
0
10
-1.63045389
20
13.8561113
11
-1.64193201
21
14.031765
0
LINE
8
0
10
-1.64193201
20
14.031765
11
-1.72315614
21
14.3351371
0
LINE
8
0
10
-1.72315614
20
14.3351371
11
-1.76868212
21
14.5051765
0
LINE
8
0
10
-1.76868212
20
14.5051765
11
-1.90753051
21
14.7868735
0
LINE
8
0
10
-1.90753051
20
14.7868735
11
-1.98535478
21
14.9447641
0
LINE
8
0
10
-1.98535478
20
14.9447641
11
-2.17649161
21
15.1939604
0
LINE
8
0
10
-2.17649161
20
15.1939604
11
-2.28362346
21
15.3336344
0
LINE
8
0
10
-2.28362346
20
15.3336344
11
-4.73842597
21
17.955637
0
LINE
8
0
10
-4.73842597
20
17.955637
11
-9.11810589
21
22.6336231
0
LINE
8
0
10
-9.11810589
20
22.6336231
11
-9.35418594
21
22.8407427
0
LINE
8
0
10
-9.35418594
20
22.8407427
11
-9.48650837
21
22.9568329
0
LINE
8
0
10
-9.48650837
20
22.9568329
11
-9.75845896
21
23.113914
0
LINE
8
0
10
-9.75845896
20
23.113914
11
-9.91088676
21
23.2019577
0
LINE
8
0
10
-9.91088676
20
23.2019577
11
-10.2082569
21
23.3029672
0
LINE
8
0
10
-10.2082569
20
23.3029672
11
-10.3749323
21
23.3595829
0
LINE
8
0
10
-10.3749323
20
23.3595829
11
-10.6862949
21
23.4006377
0
LINE
8
0
10
-10.6862949
20
23.4006377
11
-10.8608131
21
23.4236488
0
LINE
8
0
10
-10.8608131
20
23.4236488
11
-11.1742017
21
23.4031697
0
LINE
8
0
10
-11.1742017
20
23.4031697
11
-11.3498554
21
23.3916912
0
LINE
8
0
10
-11.3498554
20
23.3916912
11
-11.6532275
21
23.3104665
0
LINE
8
0
10
-11.6532275
20
23.3104665
11
-11.823267
21
23.2649403
0
LINE
8
0
10
-11.823267
20
23.2649403
11
-12.1049639
21
23.1260929
0
LINE
8
0
10
-12.1049639
20
23.1260929
11
-12.2628546
21
23.0482693
0
LINE
8
0
10
-12.2628546
20
23.0482693
11
-12.5120502
21
22.8571321
0
LINE
8
0
10
-12.5120502
20
22.8571321
11
-12.6517239
21
22.75
0
LINE
8
0
10
-12.6517239
20
22.75
11
-12.8588429
21
22.51392
0
LINE
8
0
10
-12.8588429
20
22.51392
11
-12.8588429
21
22.51392
0
LINE
8
0
10
12.6490464
20
46.5
11
12.7803831
21
46.5
0
LINE
8
0
10
12.7803831
20
46.5
11
12.8780108
21
46.5
0
LINE
8
0
10
12.8780108
20
46.5
11
13.75
21
46.5
0
LINE
8
0
10
13.75
20
46.5
11
13.75
21
44.2706547
0
LINE
8
0
10
13.75
20
44.2706547
11
13.75
21
42.8645226
0
LINE
8
0
10
13.75
20
42.8645226
11
13.75
21
23.5685271
0
LINE
8
0
10
13.75
20
23.5685271
11
13.75
21
2.59140783
0
LINE
8
0
10
13.75
20
2.59140783
11
13.75
21
1.17393221
0
LINE
8
0
10
13.75
20
1.17393221
11
13.75
21
-1.10000002
0
LINE
8
0
10
13.75
20
-1.10000002
11
12.8780108
21
-1.10000002
0
LINE
8
0
10
12.8780108
20
-1.10000002
11
12.7803831
21
-1.10000002
0
LINE
8
0
10
12.7803831
20
-1.10000002
11
12.6490464
21
-1.10000002
0
LINE
8
0
10
12.6490464
20
-1.10000002
11
12.4919788
21
-1.10000002
0
LINE
8
0
10
12.4919788
20
-1.10000002
11
12.3217931
21
-1.10000002
0
LINE
8
0
10
12.3217931
20
-1.10000002
11
12.154383
21
-1.10000002
0
LINE
8
0
10
12.154383
20
-1.10000002
11
12.0062611
21
-1.10000002
0
LINE
8
0
10
12.0062611
20
-1.10000002
11
11.8914016
21
-1.10000002
0
LINE
8
0
10
11.8914016
20
-1.10000002
11
11.8187807
21
-1.10000002
0
LINE
8
0
10
11.8187807
20
-1.10000002
11
4.56325179
21
-1.10000002
0
LINE
8
0
10
4.56325179
20
-1.10000002
11
-12.8910593
21
-1.10000002
0
LINE
8
0
10
-12.8910593
20
-1.10000002
11
-12.943413
21
-1.10000002
0
LINE
8
0
10
-12.943413
20
-1.10000002
11
-13.0449942
21
-1.10000002
0
LINE
8
0
10
-13.0449942
20
-1.10000002
11
-13.188487
21
-1.10000002
0
LINE
8
0
10
-13.188487
20
-1.10000002
11
-13.3605263
21
-1.10000002
0
LINE
8
0
10
-13.3605263
20
-1.10000002
11
-13.5439902
21
-1.10000002
0
LINE
8
0
10
-13.5439902
20
-1.10000002
11
-13.721325
21
-1.10000002
0
LINE
8
0
10
-13.721325
20
-1.10000002
11
-13.8776231
21
-1.10000002
0
LINE
8
0
10
-13.8776231
20
-1.10000002
11
-14.002462
21
-1.10000002
0
LINE
8
0
10
-14.002462
20
-1.10000002
11
-14.0902639
21
-1.10000002
0
LINE
8
0
10
-14.0902639
20
-1.10000002
11
-16.3109865
21
-1.10000002
0
LINE
8
0
10
-16.3109865
20
-1.10000002
11
-17.8586177
21
-1.10000002
0
LINE
8
0
10
-17.8586177
20
-1.10000002
11
-18.5499992
21
-1.10000002
0
LINE
8
0
10
-18.5499992
20
-1.10000002
11
-18.5499992
21
-0.611501133
0
LINE
8
0
10
-18.5499992
20
-0.611501133
11
-18.5499992
21
-0.557691358
0
LINE
8
0
10
-18.5499992
20
-0.557691358
11
-18.5499992
21
0.301826267
0
LINE
8
0
10
-18.5499992
20
0.301826267
11
-18.5499992
21
0.393567558
0
LINE
8
0
10
-18.5499992
20
0.393567558
11
-18.5499992
21
0.54185988
0
LINE
8
0
10
-18.5499992
20
0.54185988
11
-18.5499992
21
0.741186337
0
LINE
8
0
10
-18.5499992
20
0.741186337
11
-18.5499992
21
3.06750318
0
LINE
8
0
10
-18.5499992
20
3.06750318
11
-18.5499992
21
3.18515166
0
LINE
8
0
10
-18.5499992
20
3.18515166
11
-18.5499992
21
3.33596081
0
LINE
8
0
10
-18.5499992
20
3.33596081
11
-18.5499992
21
4.49608324
0
LINE
8
0
10
-18.5499992
20
4.49608324
11
-18.5499992
21
4.6219306
0
LINE
8
0
10
-18.5499992
20
4.6219306
11
-18.5499992
21
5.67627835
0
LINE
8
0
10
-18.5499992
20
5.67627835
11
-18.5499992
21
8.11786221
0
LINE
8
0
10
-18.5499992
20
8.11786221
11
-18.5499992
21
10.6170298
0
LINE
8
0
10
-18.5499992
20
10.6170298
11
-18.5499992
21
33.7641336
0
LINE
8
0
10
-18.5499992
20
33.7641336
11
-18.5499992
21
35.903085
0
LINE
8
0
10
-18.5499992
20
35.903085
11
-18.5499992
21
36.6557025
0
LINE
8
0
10
-18.5499992
20
36.6557025
11
-18.5499992
21
40.1606429
0
LINE
8
0
10
-18.5499992
20
40.1606429
11
-18.5499992
21
40.5719492
0
LINE
8
0
10
-18.5499992
20
40.5719492
11
-18.5499992
21
40.6962344
0
LINE
8
0
10
-18.5499992
20
40.6962344
11
-18.5499992
21
40.8354283
0
LINE
8
0
10
-18.5499992
20
40.8354283
11
-18.5499992
21
40.9781333
0
LINE
8
0
10
-18.5499992
20
40.9781333
11
-18.5499992
21
41.1116207
0
LINE
8
0
10
-18.5499992
20
41.1116207
11
-18.5499992
21
42.3016112
0
LINE
8
0
10
-18.5499992
20
42.3016112
11
-18.5499992
21
42.4624278
0
LINE
8
0
10
-18.5499992
20
42.4624278
11
-18.5499992
21
42.5930711
0
LINE
8
0
10
-18.5499992
20
42.5930711
11
-18.5499992
21
44.927397
0
LINE
8
0
10
-18.5499992
20
44.927397
11
-18.5499992
21
45.1417238
0
LINE
8
0
10
-18.5499992
20
45.1417238
11
-18.5499992
21
45.3083931
0
LINE
8
0
10
-18.5499992
20
45.3083931
11
-18.5499992
21
45.4200783
0
LINE
8
0
10
-18.5499992
20
45.4200783
11
-18.5499992
21
45.4740674
0
LINE
8
0
10
-18.5499992
20
45.4740674
11
-18.5499992
21
46.0595542
0
LINE
8
0
10
-18.5499992
20
46.0595542
11
-18.5499992
21
46.5
0
LINE
8
0
10
-18.5499992
20
46.5
11
-16.3109865
21
46.5
0
LINE
8
0
10
-16.3109865
20
46.5
11
-14.0902639
21
46.5
0
LINE
8
0
10
-14.0902639
20
46.5
11
-14.002462
21
46.5
0
LINE
8
0
10
-14.002462
20
46.5
11
-13.8776231
21
46.5
0
LINE
8
0
10
-13.8776231
20
46.5
11
-13.721325
21
46.5
0
LINE
8
0
10
-13.721325
20
46.5
11
-13.5439902
21
46.5
0
LINE
8
0
10
-13.5439902
20
46.5
11
-13.3605263
21
46.5
0
LINE
8
0
10
-13.3605263
20
46.5
11
-13.188487
21
46.5
0
LINE
8
0
10
-13.188487
20
46.5
11
-13.0449942
21
46.5
0
LINE
8
0
10
-13.0449942
20
46.5
11
-12.943413
21
46.5
0
LINE
8
0
10
-12.943413
20
46.5
11
-12.8910593
21
46.5
0
LINE
8
0
10
-12.8910593
20
46.5
11
4.56325179
21
46.5
0
LINE
8
0
10
4.56325179
20
46.5
11
11.8187807
21
46.5
0
LINE
8
0
10
11.8187807
20
46.5
11
11.8914016
21
46.5
0
LINE
8
0
10
11.8914016
20
46.5
11
12.0062611
21
46.5
0
LINE
8
0
10
12.0062611
20
46.5
11
12.154383
21
46.5
0
LINE
8
0
10
12.154383
20
46.5
11
12.3217931
21
46.5
0
LINE
8
0
10
12.3217931
20
46.5
11
12.4919788
21
46.5
0
LINE
8
0
10
12.4919788
20
46.5
11
12.6490464
21
46.5
0
LINE
8
0
10
12.6490464
20
46.5
11
12.6490464
21
46.5
0
ENDSEC
0
EOF
