0
SECTION
2
ENTITIES
0
LINE
8
0
10
5.12256733
20
13.0586454
11
5.31464624
21
13.1100721
0
LINE
8
0
10
5.31464624
20
13.1100721
11
5.57587815
21
13.2388336
0
LINE
8
0
10
5.57587815
20
13.2388336
11
5.75423336
21
13.326745
0
LINE
8
0
10
5.75423336
20
13.326745
11
5.98532593
21
13.5039959
0
LINE
8
0
10
5.98532593
20
13.5039959
11
6.1431036
21
13.6250134
0
LINE
8
0
10
6.1431036
20
13.6250134
11
6.33517549
21
13.8439426
0
LINE
8
0
10
6.33517549
20
13.8439426
11
6.46631193
21
13.9934158
0
LINE
8
0
10
6.46631193
20
13.9934158
11
6.61198254
21
14.2456097
0
LINE
8
0
10
6.61198254
20
14.2456097
11
6.71143866
21
14.4177942
0
LINE
8
0
10
6.71143866
20
14.4177942
11
6.80510975
21
14.693561
0
LINE
8
0
10
6.80510975
20
14.693561
11
6.86906338
21
14.8818398
0
LINE
8
0
10
6.86906338
20
14.8818398
11
6.90713477
21
15.1705819
0
LINE
8
0
10
6.90713477
20
15.1705819
11
6.93312788
21
15.3677197
0
LINE
8
0
10
6.93312788
20
15.3677197
11
6.9141371
21
15.6583417
0
LINE
8
0
10
6.9141371
20
15.6583417
11
6.90117121
21
15.8567629
0
LINE
8
0
10
6.90117121
20
15.8567629
11
6.82584793
21
16.138095
0
LINE
8
0
10
6.82584793
20
16.138095
11
6.77442122
21
16.3301735
0
LINE
8
0
10
6.77442122
20
16.3301735
11
6.64566005
21
16.5914063
0
LINE
8
0
10
6.64566005
20
16.5914063
11
6.55774879
21
16.769762
0
LINE
8
0
10
6.55774879
20
16.769762
11
6.38049763
21
17.0008546
0
LINE
8
0
10
6.38049763
20
17.0008546
11
6.25948
21
17.1586323
0
LINE
8
0
10
6.25948
20
17.1586323
11
0.713523254
21
23.0823318
0
LINE
8
0
10
0.713523254
20
23.0823318
11
-7.40948534
21
31.7586098
0
LINE
8
0
10
-7.40948534
20
31.7586098
11
-7.6284146
21
31.9506814
0
LINE
8
0
10
-7.6284146
20
31.9506814
11
-7.77788782
21
32.0818176
0
LINE
8
0
10
-7.77788782
20
32.0818176
11
-8.03008141
21
32.2274894
0
LINE
8
0
10
-8.03008141
20
32.2274894
11
-8.20226574
21
32.3269463
0
LINE
8
0
10
-8.20226574
20
32.3269463
11
-8.47803303
21
32.4206165
0
LINE
8
0
10
-8.47803303
20
32.4206165
11
-8.66631222
21
32.4845695
0
LINE
8
0
10
-8.66631222
20
32.4845695
11
-8.95505438
21
32.5226407
0
LINE
8
0
10
-8.95505438
20
32.5226407
11
-9.15219212
21
32.5486336
0
LINE
8
0
10
-9.15219212
20
32.5486336
11
-9.44281358
21
32.5296434
0
LINE
8
0
10
-9.44281358
20
32.5296434
11
-9.6412344
21
32.5166779
0
LINE
8
0
10
-9.6412344
20
32.5166779
11
-9.92256704
21
32.441354
0
LINE
8
0
10
-9.92256704
20
32.441354
11
-10.114646
21
32.3899269
0
LINE
8
0
10
-10.114646
20
32.3899269
11
-10.3758782
21
32.2611666
0
LINE
8
0
10
-10.3758782
20
32.2611666
11
-10.5542336
21
32.1732559
0
LINE
8
0
10
-10.5542336
20
32.1732559
11
-10.7853261
21
31.9960045
0
LINE
8
0
10
-10.7853261
20
31.9960045
11
-10.9431038
21
31.8749866
0
LINE
8
0
10
-10.9431038
20
31.8749866
11
-11.135176
21
31.6560574
0
LINE
8
0
10
-11.135176
20
31.6560574
11
-11.2663126
21
31.5065842
0
LINE
8
0
10
-11.2663126
20
31.5065842
11
-11.4119826
21
31.2543909
0
LINE
8
0
10
-11.4119826
20
31.2543909
11
-11.5114384
21
31.0822067
0
LINE
8
0
10
-11.5114384
20
31.0822067
11
-11.6051097
21
30.8064394
0
LINE
8
0
10
-11.6051097
20
30.8064394
11
-11.6690636
21
30.6181602
0
LINE
8
0
10
-11.6690636
20
30.6181602
11
-11.7071352
21
30.3294181
0
LINE
8
0
10
-11.7071352
20
30.3294181
11
-11.7331285
21
30.1322803
0
LINE
8
0
10
-11.7331285
20
30.1322803
11
-11.7141378
21
29.8416589
0
LINE
8
0
10
-11.7141378
20
29.8416589
11
-11.7011719
21
29.6432381
0
LINE
8
0
10
-11.7011719
20
29.6432381
11
-11.625848
21
29.3619054
0
LINE
8
0
10
-11.625848
20
29.3619054
11
-11.5744209
21
29.1698265
0
LINE
8
0
10
-11.5744209
20
29.1698265
11
-11.44566
21
28.9085937
0
LINE
8
0
10
-11.44566
20
28.9085937
11
-11.357749
21
28.730238
0
LINE
8
0
10
-11.357749
20
28.730238
11
-11.1804975
21
28.4991454
0
LINE
8
0
10
-11.1804975
20
28.4991454
11
-11.0594797
21
28.3413677
0
LINE
8
0
10
-11.0594797
20
28.3413677
11
-5.51352306
21
22.4176682
0
LINE
8
0
10
-5.51352306
20
22.4176682
11
2.60948539
21
13.7413902
0
LINE
8
0
10
2.60948539
20
13.7413902
11
2.82841451
21
13.5493181
0
LINE
8
0
10
2.82841451
20
13.5493181
11
2.97788763
21
13.4181814
0
LINE
8
0
10
2.97788763
20
13.4181814
11
3.23008151
21
13.2725108
0
LINE
8
0
10
3.23008151
20
13.2725108
11
3.40226603
21
13.1730547
0
LINE
8
0
10
3.40226603
20
13.1730547
11
3.67803289
21
13.0793839
0
LINE
8
0
10
3.67803289
20
13.0793839
11
3.86631179
21
13.0154305
0
LINE
8
0
10
3.86631179
20
13.0154305
11
4.15505409
21
12.9773588
0
LINE
8
0
10
4.15505409
20
12.9773588
11
4.35219193
21
12.9513655
0
LINE
8
0
10
4.35219193
20
12.9513655
11
4.64281367
21
12.9703563
0
LINE
8
0
10
4.64281367
20
12.9703563
11
4.84123468
21
12.9833221
0
LINE
8
0
10
4.84123468
20
12.9833221
11
5.12256733
21
13.0586454
0
LINE
8
0
10
5.12256733
20
13.0586454
11
5.12256733
21
13.0586454
0
LINE
8
0
10
-13.1327768
20
46.5
11
-13.2269784
21
46.5
0
LINE
8
0
10
-13.2269784
20
46.5
11
-13.3600466
21
46.5
0
LINE
8
0
10
-13.3600466
20
46.5
11
-13.5195876
21
46.5
0
LINE
8
0
10
-13.5195876
20
46.5
11
-13.6897232
21
46.5
0
LINE
8
0
10
-13.6897232
20
46.5
11
-13.8541749
21
46.5
0
LINE
8
0
10
-13.8541749
20
46.5
11
-13.9991182
21
46.5
0
LINE
8
0
10
-13.9991182
20
46.5
11
-14.1148878
21
46.5
0
LINE
8
0
10
-14.1148878
20
46.5
11
-14.196311
21
46.5
0
LINE
8
0
10
-14.196311
20
46.5
11
-16.2557022
21
46.5
0
LINE
8
0
10
-16.2557022
20
46.5
11
-18.5499992
21
46.5
0
LINE
8
0
10
-18.5499992
20
46.5
11
-18.5499992
21
46.048679
0
LINE
8
0
10
-18.5499992
20
46.048679
11
-18.5499992
21
45.4487357
0
LINE
8
0
10
-18.5499992
20
45.4487357
11
-18.5499992
21
45.3934136
0
LINE
8
0
10
-18.5499992
20
45.3934136
11
-18.5499992
21
45.2789707
0
LINE
8
0
10
-18.5499992
20
45.2789707
11
-18.5499992
21
45.1081862
0
LINE
8
0
10
-18.5499992
20
45.1081862
11
-18.5499992
21
44.8885673
0
LINE
8
0
10
-18.5499992
20
44.8885673
11
-18.5499992
21
42.6569663
0
LINE
8
0
10
-18.5499992
20
42.6569663
11
-18.5499992
21
42.5186862
0
LINE
8
0
10
-18.5499992
20
42.5186862
11
-18.5499992
21
42.3484692
0
LINE
8
0
10
-18.5499992
20
42.3484692
11
-18.5499992
21
41.2141129
0
LINE
8
0
10
-18.5499992
20
41.2141129
11
-18.5499992
21
41.0683178
0
LINE
8
0
10
-18.5499992
20
41.0683178
11
-18.5499992
21
40.9124554
0
LINE
8
0
10
-18.5499992
20
40.9124554
11
-18.5499992
21
40.7604277
0
LINE
8
0
10
-18.5499992
20
40.7604277
11
-18.5499992
21
40.6246833
0
LINE
8
0
10
-18.5499992
20
40.6246833
11
-18.5499992
21
40.1754543
0
LINE
8
0
10
-18.5499992
20
40.1754543
11
-18.5499992
21
36.3473561
0
LINE
8
0
10
-18.5499992
20
36.3473561
11
-18.5499992
21
35.5253469
0
LINE
8
0
10
-18.5499992
20
35.5253469
11
-18.5499992
21
33.1891827
0
LINE
8
0
10
-18.5499992
20
33.1891827
11
-18.5499992
21
11.0888232
0
LINE
8
0
10
-18.5499992
20
11.0888232
11
-18.5499992
21
8.35923077
0
LINE
8
0
10
-18.5499992
20
8.35923077
11
-18.5499992
21
5.69253133
0
LINE
8
0
10
-18.5499992
20
5.69253133
11
-18.5499992
21
4.54097205
0
LINE
8
0
10
-18.5499992
20
4.54097205
11
-18.5499992
21
4.40352148
0
LINE
8
0
10
-18.5499992
20
4.40352148
11
-18.5499992
21
3.29714458
0
LINE
8
0
10
-18.5499992
20
3.29714458
11
-18.5499992
21
3.13751992
0
LINE
8
0
10
-18.5499992
20
3.13751992
11
-18.5499992
21
3.01299433
0
LINE
8
0
10
-18.5499992
20
3.01299433
11
-18.5499992
21
0.786647729
0
LINE
8
0
10
-18.5499992
20
0.786647729
11
-18.5499992
21
0.582399631
0
LINE
8
0
10
-18.5499992
20
0.582399631
11
-18.5499992
21
0.430445769
0
LINE
8
0
10
-18.5499992
20
0.430445769
11
-18.5499992
21
0.336439262
0
LINE
8
0
10
-18.5499992
20
0.336439262
11
-18.5499992
21
-0.544301021
0
LINE
8
0
10
-18.5499992
20
-0.544301021
11
-18.5499992
21
-0.599439432
0
LINE
8
0
10
-18.5499992
20
-0.599439432
11
-18.5499992
21
-1.10000002
0
LINE
8
0
10
-18.5499992
20
-1.10000002
11
-17.8415465
21
-1.10000002
0
LINE
8
0
10
-17.8415465
20
-1.10000002
11
-16.2557022
21
-1.10000002
0
LINE
8
0
10
-16.2557022
20
-1.10000002
11
-14.196311
21
-1.10000002
0
LINE
8
0
10
-14.196311
20
-1.10000002
11
-14.1148878
21
-1.10000002
0
LINE
8
0
10
-14.1148878
20
-1.10000002
11
-13.9991182
21
-1.10000002
0
LINE
8
0
10
-13.9991182
20
-1.10000002
11
-13.8541749
21
-1.10000002
0
LINE
8
0
10
-13.8541749
20
-1.10000002
11
-13.6897232
21
-1.10000002
0
LINE
8
0
10
-13.6897232
20
-1.10000002
11
-13.5195876
21
-1.10000002
0
LINE
8
0
10
-13.5195876
20
-1.10000002
11
-13.3600466
21
-1.10000002
0
LINE
8
0
10
-13.3600466
20
-1.10000002
11
-13.2269784
21
-1.10000002
0
LINE
8
0
10
-13.2269784
20
-1.10000002
11
-13.1327768
21
-1.10000002
0
LINE
8
0
10
-13.1327768
20
-1.10000002
11
-13.0842265
21
-1.10000002
0
LINE
8
0
10
-13.0842265
20
-1.10000002
11
5.2306523
21
-1.10000002
0
LINE
8
0
10
5.2306523
20
-1.10000002
11
11.9590802
21
-1.10000002
0
LINE
8
0
10
11.9590802
20
-1.10000002
11
12.0264254
21
-1.10000002
0
LINE
8
0
10
12.0264254
20
-1.10000002
11
12.1329406
21
-1.10000002
0
LINE
8
0
10
12.1329406
20
-1.10000002
11
12.2703017
21
-1.10000002
0
LINE
8
0
10
12.2703017
20
-1.10000002
11
12.4255498
21
-1.10000002
0
LINE
8
0
10
12.4255498
20
-1.10000002
11
12.5833717
21
-1.10000002
0
LINE
8
0
10
12.5833717
20
-1.10000002
11
12.7290286
21
-1.10000002
0
LINE
8
0
10
12.7290286
20
-1.10000002
11
12.850824
21
-1.10000002
0
LINE
8
0
10
12.850824
20
-1.10000002
11
12.9413592
21
-1.10000002
0
LINE
8
0
10
12.9413592
20
-1.10000002
11
13.75
21
-1.10000002
0
LINE
8
0
10
13.75
20
-1.10000002
11
13.75
21
1.00873518
0
LINE
8
0
10
13.75
20
1.00873518
11
13.75
21
2.32323378
0
LINE
8
0
10
13.75
20
2.32323378
11
13.75
21
25.2344568
0
LINE
8
0
10
13.75
20
25.2344568
11
13.75
21
43.1286334
0
LINE
8
0
10
13.75
20
43.1286334
11
13.75
21
44.4326126
0
LINE
8
0
10
13.75
20
44.4326126
11
13.75
21
46.5
0
LINE
8
0
10
13.75
20
46.5
11
12.9413592
21
46.5
0
LINE
8
0
10
12.9413592
20
46.5
11
12.850824
21
46.5
0
LINE
8
0
10
12.850824
20
46.5
11
12.7290286
21
46.5
0
LINE
8
0
10
12.7290286
20
46.5
11
12.5833717
21
46.5
0
LINE
8
0
10
12.5833717
20
46.5
11
12.4255498
21
46.5
0
LINE
8
0
10
12.4255498
20
46.5
11
12.2703017
21
46.5
0
LINE
8
0
10
12.2703017
20
46.5
11
12.1329406
21
46.5
0
LINE
8
0
10
12.1329406
20
46.5
11
12.0264254
21
46.5
0
LINE
8
0
10
12.0264254
20
46.5
11
11.9590802
21
46.5
0
LINE
8
0
10
11.9590802
20
46.5
11
5.2306523
21
46.5
0
LINE
8
0
10
5.2306523
20
46.5
11
-13.0842265
21
46.5
0
LINE
8
0
10
-13.0842265
20
46.5
11
-13.1327768
21
46.5
0
LINE
8
0
10
-13.1327768
20
46.5
11
-13.1327768
21
46.5
0
LINE
8
0
10
9.29028706
20
23.5750943
11
9.25221539
21
23.2863522
0
LINE
8
0
10
9.25221539
20
23.2863522
11
9.18826195
21
23.098073
0
LINE
8
0
10
9.18826195
20
23.098073
11
9.09459114
21
22.8223057
0
LINE
8
0
10
9.09459114
20
22.8223057
11
8.99513502
21
22.6501208
0
LINE
8
0
10
8.99513502
20
22.6501208
11
8.84946442
21
22.3979263
0
LINE
8
0
10
8.84946442
20
22.3979263
11
8.71832778
21
22.2484539
0
LINE
8
0
10
8.71832778
20
22.2484539
11
8.52625561
21
22.0295258
0
LINE
8
0
10
8.52625561
20
22.0295258
11
8.36847832
21
21.9085079
0
LINE
8
0
10
8.36847832
20
21.9085079
11
8.13738632
21
21.7312565
0
LINE
8
0
10
8.13738632
20
21.7312565
11
7.95903092
21
21.643345
0
LINE
8
0
10
7.95903092
20
21.643345
11
7.69779873
21
21.5145836
0
LINE
8
0
10
7.69779873
20
21.5145836
11
7.50571981
21
21.4631573
0
LINE
8
0
10
7.50571981
20
21.4631573
11
7.22438717
21
21.3878345
0
LINE
8
0
10
7.22438717
20
21.3878345
11
7.02596615
21
21.3748683
0
LINE
8
0
10
7.02596615
20
21.3748683
11
6.73534441
21
21.3558769
0
LINE
8
0
10
6.73534441
20
21.3558769
11
6.53820648
21
21.3818706
0
LINE
8
0
10
6.53820648
20
21.3818706
11
6.24946404
21
21.4199429
0
LINE
8
0
10
6.24946404
20
21.4199429
11
6.06118523
21
21.4838959
0
LINE
8
0
10
6.06118523
20
21.4838959
11
5.78541851
21
21.5775661
0
LINE
8
0
10
5.78541851
20
21.5775661
11
5.61323399
21
21.6770223
0
LINE
8
0
10
5.61323399
20
21.6770223
11
5.36104012
21
21.8226929
0
LINE
8
0
10
5.36104012
20
21.8226929
11
5.2115669
21
21.9538291
0
LINE
8
0
10
5.2115669
20
21.9538291
11
4.99263763
21
22.1459007
0
LINE
8
0
10
4.99263763
20
22.1459007
11
0.931133337
21
26.4840403
0
LINE
8
0
10
0.931133337
20
26.4840403
11
-1.84184504
21
29.4458904
0
LINE
8
0
10
-1.84184504
20
29.4458904
11
-1.96286257
21
29.6036681
0
LINE
8
0
10
-1.96286257
20
29.6036681
11
-2.14011359
21
29.8347607
0
LINE
8
0
10
-2.14011359
20
29.8347607
11
-2.22802494
21
30.0131165
0
LINE
8
0
10
-2.22802494
20
30.0131165
11
-2.35678625
21
30.2743492
0
LINE
8
0
10
-2.35678625
20
30.2743492
11
-2.40821297
21
30.4664274
0
LINE
8
0
10
-2.40821297
20
30.4664274
11
-2.48353624
21
30.7477589
0
LINE
8
0
10
-2.48353624
20
30.7477589
11
-2.49650214
21
30.9461805
0
LINE
8
0
10
-2.49650214
20
30.9461805
11
-2.51549292
21
31.2368031
0
LINE
8
0
10
-2.51549292
20
31.2368031
11
-2.48949961
21
31.4339408
0
LINE
8
0
10
-2.48949961
20
31.4339408
11
-2.45142794
21
31.722683
0
LINE
8
0
10
-2.45142794
20
31.722683
11
-2.3874745
21
31.9109621
0
LINE
8
0
10
-2.3874745
20
31.9109621
11
-2.29380369
21
32.1867294
0
LINE
8
0
10
-2.29380369
20
32.1867294
11
-2.19434758
21
32.3589136
0
LINE
8
0
10
-2.19434758
20
32.3589136
11
-2.04867697
21
32.6111069
0
LINE
8
0
10
-2.04867697
20
32.6111069
11
-1.91754043
21
32.7605793
0
LINE
8
0
10
-1.91754043
20
32.7605793
11
-1.7254684
21
32.9795074
0
LINE
8
0
10
-1.7254684
20
32.9795074
11
-1.56769082
21
33.100526
0
LINE
8
0
10
-1.56769082
20
33.100526
11
-1.3365984
21
33.2777786
0
LINE
8
0
10
-1.3365984
20
33.2777786
11
-1.15824312
21
33.3656893
0
LINE
8
0
10
-1.15824312
20
33.3656893
11
-0.897011101
21
33.4944496
0
LINE
8
0
10
-0.897011101
20
33.4944496
11
-0.704932234
21
33.5458767
0
LINE
8
0
10
-0.704932234
20
33.5458767
11
-0.42359966
21
33.6212006
0
LINE
8
0
10
-0.42359966
20
33.6212006
11
-0.225178666
21
33.6341661
0
LINE
8
0
10
-0.225178666
20
33.6341661
11
0.0654430464
21
33.6531563
0
LINE
8
0
10
0.0654430464
20
33.6531563
11
0.26258095
21
33.6271634
0
LINE
8
0
10
0.26258095
20
33.6271634
11
0.551323354
21
33.5890923
0
LINE
8
0
10
0.551323354
20
33.5890923
11
0.739602276
21
33.5251392
0
LINE
8
0
10
0.739602276
20
33.5251392
11
1.01536918
21
33.431469
0
LINE
8
0
10
1.01536918
20
33.431469
11
1.18755365
21
33.3320121
0
LINE
8
0
10
1.18755365
20
33.3320121
11
1.43974745
21
33.1863403
0
LINE
8
0
10
1.43974745
20
33.1863403
11
1.58922057
21
33.0552041
0
LINE
8
0
10
1.58922057
20
33.0552041
11
1.8081497
21
32.8631325
0
LINE
8
0
10
1.8081497
20
32.8631325
11
5.86965406
21
28.5249929
0
LINE
8
0
10
5.86965406
20
28.5249929
11
8.64263248
21
25.5631428
0
LINE
8
0
10
8.64263248
20
25.5631428
11
8.76364992
21
25.4053651
0
LINE
8
0
10
8.76364992
20
25.4053651
11
8.9409008
21
25.1742725
0
LINE
8
0
10
8.9409008
20
25.1742725
11
9.02881225
21
24.9959175
0
LINE
8
0
10
9.02881225
20
24.9959175
11
9.1575737
21
24.7346859
0
LINE
8
0
10
9.1575737
20
24.7346859
11
9.20900041
21
24.542607
0
LINE
8
0
10
9.20900041
20
24.542607
11
9.28432369
21
24.2612743
0
LINE
8
0
10
9.28432369
20
24.2612743
11
9.29728958
21
24.0628535
0
LINE
8
0
10
9.29728958
20
24.0628535
11
9.31628036
21
23.7722321
0
LINE
8
0
10
9.31628036
20
23.7722321
11
9.29028706
21
23.5750943
0
LINE
8
0
10
9.29028706
20
23.5750943
11
9.29028706
21
23.5750943
0
LINE
8
0
10
-1.67404032
20
13.0568419
11
-1.73799385
21
12.868563
0
LINE
8
0
10
-1.73799385
20
12.868563
11
-1.8316648
21
12.5927963
0
LINE
8
0
10
-1.8316648
20
12.5927963
11
-1.93112082
21
12.4206118
0
LINE
8
0
10
-1.93112082
20
12.4206118
11
-2.07679129
21
12.1684179
0
LINE
8
0
10
-2.07679129
20
12.1684179
11
-2.20792792
21
12.0189451
0
LINE
8
0
10
-2.20792792
20
12.0189451
11
-2.4000001
21
11.8000164
0
LINE
8
0
10
-2.4000001
20
11.8000164
11
-2.55777767
21
11.6789986
0
LINE
8
0
10
-2.55777767
20
11.6789986
11
-2.7888701
21
11.5017471
0
LINE
8
0
10
-2.7888701
20
11.5017471
11
-2.9672253
21
11.4138361
0
LINE
8
0
10
-2.9672253
20
11.4138361
11
-3.22845721
21
11.2850752
0
LINE
8
0
10
-3.22845721
20
11.2850752
11
-3.42053613
21
11.2336481
0
LINE
8
0
10
-3.42053613
20
11.2336481
11
-3.70186877
21
11.1583242
0
LINE
8
0
10
-3.70186877
20
11.1583242
11
-3.90028969
21
11.1453583
0
LINE
8
0
10
-3.90028969
20
11.1453583
11
-4.19091129
21
11.1263676
0
LINE
8
0
10
-4.19091129
20
11.1263676
11
-4.38804922
21
11.1523609
0
LINE
8
0
10
-4.38804922
20
11.1523609
11
-4.67679167
21
11.1904325
0
LINE
8
0
10
-4.67679167
20
11.1904325
11
-4.86507066
21
11.2543864
0
LINE
8
0
10
-4.86507066
20
11.2543864
11
-5.14083767
21
11.3480577
0
LINE
8
0
10
-5.14083767
20
11.3480577
11
-5.31302219
21
11.4475135
0
LINE
8
0
10
-5.31302219
20
11.4475135
11
-5.56521606
21
11.5931835
0
LINE
8
0
10
-5.56521606
20
11.5931835
11
-5.71468909
21
11.7243201
0
LINE
8
0
10
-5.71468909
20
11.7243201
11
-5.93361807
21
11.9163923
0
LINE
8
0
10
-5.93361807
20
11.9163923
11
-9.99512237
21
16.2545313
0
LINE
8
0
10
-9.99512237
20
16.2545313
11
-12.7681007
21
19.2163811
0
LINE
8
0
10
-12.7681007
20
19.2163811
11
-12.8891182
21
19.3741587
0
LINE
8
0
10
-12.8891182
20
19.3741587
11
-13.0663691
21
19.6052513
0
LINE
8
0
10
-13.0663691
20
19.6052513
11
-13.1542805
21
19.7836071
0
LINE
8
0
10
-13.1542805
20
19.7836071
11
-13.283042
21
20.0448399
0
LINE
8
0
10
-13.283042
20
20.0448399
11
-13.3344687
21
20.2369188
0
LINE
8
0
10
-13.3344687
20
20.2369188
11
-13.4097919
21
20.5182514
0
LINE
8
0
10
-13.4097919
20
20.5182514
11
-13.4227578
21
20.7166722
0
LINE
8
0
10
-13.4227578
20
20.7166722
11
-13.4417486
21
21.0072937
0
LINE
8
0
10
-13.4417486
20
21.0072937
11
-13.4157553
21
21.2044314
0
LINE
8
0
10
-13.4157553
20
21.2044314
11
-13.3776836
21
21.4931736
0
LINE
8
0
10
-13.3776836
20
21.4931736
11
-13.3137302
21
21.6814528
0
LINE
8
0
10
-13.3137302
20
21.6814528
11
-13.2200594
21
21.9572201
0
LINE
8
0
10
-13.2200594
20
21.9572201
11
-13.1206033
21
22.1294042
0
LINE
8
0
10
-13.1206033
20
22.1294042
11
-12.9749327
21
22.3815975
0
LINE
8
0
10
-12.9749327
20
22.3815975
11
-12.843796
21
22.5310707
0
LINE
8
0
10
-12.843796
20
22.5310707
11
-12.6517239
21
22.75
0
LINE
8
0
10
-12.6517239
20
22.75
11
-12.4939466
21
22.8710178
0
LINE
8
0
10
-12.4939466
20
22.8710178
11
-12.2628546
21
23.0482693
0
LINE
8
0
10
-12.2628546
20
23.0482693
11
-12.0844992
21
23.1361799
0
LINE
8
0
10
-12.0844992
20
23.1361799
11
-11.823267
21
23.2649403
0
LINE
8
0
10
-11.823267
20
23.2649403
11
-11.6311881
21
23.3163674
0
LINE
8
0
10
-11.6311881
20
23.3163674
11
-11.3498554
21
23.3916912
0
LINE
8
0
10
-11.3498554
20
23.3916912
11
-11.1514346
21
23.4046575
0
LINE
8
0
10
-11.1514346
20
23.4046575
11
-10.8608131
21
23.4236488
0
LINE
8
0
10
-10.8608131
20
23.4236488
11
-10.663675
21
23.3976551
0
LINE
8
0
10
-10.663675
20
23.3976551
11
-10.3749323
21
23.3595829
0
LINE
8
0
10
-10.3749323
20
23.3595829
11
-10.1866535
21
23.2956291
0
LINE
8
0
10
-10.1866535
20
23.2956291
11
-9.91088676
21
23.2019577
0
LINE
8
0
10
-9.91088676
20
23.2019577
11
-9.73870225
21
23.1025024
0
LINE
8
0
10
-9.73870225
20
23.1025024
11
-9.48650837
21
22.9568329
0
LINE
8
0
10
-9.48650837
20
22.9568329
11
-9.33703515
21
22.8256959
0
LINE
8
0
10
-9.33703515
20
22.8256959
11
-9.11810589
21
22.6336231
0
LINE
8
0
10
-9.11810589
20
22.6336231
11
-5.05660173
21
18.2954841
0
LINE
8
0
10
-5.05660173
20
18.2954841
11
-2.28362346
21
15.3336344
0
LINE
8
0
10
-2.28362346
20
15.3336344
11
-2.16260587
21
15.1758567
0
LINE
8
0
10
-2.16260587
20
15.1758567
11
-1.98535478
21
14.9447641
0
LINE
8
0
10
-1.98535478
20
14.9447641
11
-1.89744343
21
14.7664087
0
LINE
8
0
10
-1.89744343
20
14.7664087
11
-1.76868212
21
14.5051765
0
LINE
8
0
10
-1.76868212
20
14.5051765
11
-1.71725536
21
14.3130976
0
LINE
8
0
10
-1.71725536
20
14.3130976
11
-1.64193201
21
14.031765
0
LINE
8
0
10
-1.64193201
20
14.031765
11
-1.62896617
21
13.8333442
0
LINE
8
0
10
-1.62896617
20
13.8333442
11
-1.60997546
21
13.5427227
0
LINE
8
0
10
-1.60997546
20
13.5427227
11
-1.63596872
21
13.3455846
0
LINE
8
0
10
-1.63596872
20
13.3455846
11
-1.67404032
21
13.0568419
0
LINE
8
0
10
-1.67404032
20
13.0568419
11
-1.67404032
21
13.0568419
0
ENDSEC
0
EOF
