0
SECTION
2
ENTITIES
0
LINE
8
0
10
-5.73183985
20
11.739367
11
-5.56521606
21
11.5931835
0
LINE
8
0
10
-5.56521606
20
11.5931835
11
-5.3327789
21
11.4589252
0
LINE
8
0
10
-5.3327789
20
11.4589252
11
-5.14083767
21
11.3480577
0
LINE
8
0
10
-5.14083767
20
11.3480577
11
-4.88667408
21
11.2617245
0
LINE
8
0
10
-4.88667408
20
11.2617245
11
-4.67679167
21
11.1904325
0
LINE
8
0
10
-4.67679167
20
11.1904325
11
-4.41066913
21
11.1553434
0
LINE
8
0
10
-4.41066913
20
11.1553434
11
-4.19091129
21
11.1263676
0
LINE
8
0
10
-4.19091129
20
11.1263676
11
-3.92305681
21
11.1438706
0
LINE
8
0
10
-3.92305681
20
11.1438706
11
-3.70186877
21
11.1583242
0
LINE
8
0
10
-3.70186877
20
11.1583242
11
-3.44257556
21
11.2277473
0
LINE
8
0
10
-3.44257556
20
11.2277473
11
-3.22845721
21
11.2850752
0
LINE
8
0
10
-3.22845721
20
11.2850752
11
-2.98769005
21
11.403749
0
LINE
8
0
10
-2.98769005
20
11.403749
11
-2.7888701
21
11.5017471
0
LINE
8
0
10
-2.7888701
20
11.5017471
11
-2.57588131
21
11.6651128
0
LINE
8
0
10
-2.57588131
20
11.6651128
11
-2.4000001
21
11.8000164
0
LINE
8
0
10
-2.4000001
20
11.8000164
11
-2.22297474
21
12.0017944
0
LINE
8
0
10
-2.22297474
20
12.0017944
11
-2.07679129
21
12.1684179
0
LINE
8
0
10
-2.07679129
20
12.1684179
11
-1.94253256
21
12.4008551
0
LINE
8
0
10
-1.94253256
20
12.4008551
11
-1.8316648
21
12.5927963
0
LINE
8
0
10
-1.8316648
20
12.5927963
11
-1.74533197
21
12.8469597
0
LINE
8
0
10
-1.74533197
20
12.8469597
11
-1.67404032
21
13.0568419
0
LINE
8
0
10
-1.67404032
20
13.0568419
11
-1.63895122
21
13.3229646
0
LINE
8
0
10
-1.63895122
20
13.3229646
11
-1.60997546
21
13.5427227
0
LINE
8
0
10
-1.60997546
20
13.5427227
11
-1.62747845
21
13.8105771
0
LINE
8
0
10
-1.62747845
20
13.8105771
11
-1.64193201
21
14.031765
0
LINE
8
0
10
-1.64193201
20
14.031765
11
-1.71135457
21
14.2910582
0
LINE
8
0
10
-1.71135457
20
14.2910582
11
-1.76868212
21
14.5051765
0
LINE
8
0
10
-1.76868212
20
14.5051765
11
-1.88735635
21
14.745944
0
LINE
8
0
10
-1.88735635
20
14.745944
11
-1.98535478
21
14.9447641
0
LINE
8
0
10
-1.98535478
20
14.9447641
11
-2.14872013
21
15.1577531
0
LINE
8
0
10
-2.14872013
20
15.1577531
11
-2.28362346
21
15.3336344
0
LINE
8
0
10
-2.28362346
20
15.3336344
11
-5.3747775
21
18.6353313
0
LINE
8
0
10
-5.3747775
20
18.6353313
11
-9.11810589
21
22.6336231
0
LINE
8
0
10
-9.11810589
20
22.6336231
11
-9.31988437
21
22.810649
0
LINE
8
0
10
-9.31988437
20
22.810649
11
-9.48650837
21
22.9568329
0
LINE
8
0
10
-9.48650837
20
22.9568329
11
-9.71894553
21
23.0910907
0
LINE
8
0
10
-9.71894553
20
23.0910907
11
-9.91088676
21
23.2019577
0
LINE
8
0
10
-9.91088676
20
23.2019577
11
-10.1650501
21
23.2882909
0
LINE
8
0
10
-10.1650501
20
23.2882909
11
-10.3749323
21
23.3595829
0
LINE
8
0
10
-10.3749323
20
23.3595829
11
-10.6410551
21
23.3946726
0
LINE
8
0
10
-10.6410551
20
23.3946726
11
-10.8608131
21
23.4236488
0
LINE
8
0
10
-10.8608131
20
23.4236488
11
-11.1286675
21
23.4061453
0
LINE
8
0
10
-11.1286675
20
23.4061453
11
-11.3498554
21
23.3916912
0
LINE
8
0
10
-11.3498554
20
23.3916912
11
-11.6091486
21
23.3222682
0
LINE
8
0
10
-11.6091486
20
23.3222682
11
-11.823267
21
23.2649403
0
LINE
8
0
10
-11.823267
20
23.2649403
11
-12.0640344
21
23.1462669
0
LINE
8
0
10
-12.0640344
20
23.1462669
11
-12.2628546
21
23.0482693
0
LINE
8
0
10
-12.2628546
20
23.0482693
11
-12.475843
21
22.8849036
0
LINE
8
0
10
-12.475843
20
22.8849036
11
-12.6517239
21
22.75
0
LINE
8
0
10
-12.6517239
20
22.75
11
-12.8287492
21
22.5482215
0
LINE
8
0
10
-12.8287492
20
22.5482215
11
-12.9749327
21
22.3815975
0
LINE
8
0
10
-12.9749327
20
22.3815975
11
-13.1091915
21
22.1491609
0
LINE
8
0
10
-13.1091915
20
22.1491609
11
-13.2200594
21
21.9572201
0
LINE
8
0
10
-13.2200594
20
21.9572201
11
-13.3063921
21
21.7030562
0
LINE
8
0
10
-13.3063921
20
21.7030562
11
-13.3776836
21
21.4931736
0
LINE
8
0
10
-13.3776836
20
21.4931736
11
-13.4127728
21
21.2270513
0
LINE
8
0
10
-13.4127728
20
21.2270513
11
-13.4417486
21
21.0072937
0
LINE
8
0
10
-13.4417486
20
21.0072937
11
-13.4242456
21
20.7394393
0
LINE
8
0
10
-13.4242456
20
20.7394393
11
-13.4097919
21
20.5182514
0
LINE
8
0
10
-13.4097919
20
20.5182514
11
-13.3403694
21
20.2589582
0
LINE
8
0
10
-13.3403694
20
20.2589582
11
-13.283042
21
20.0448399
0
LINE
8
0
10
-13.283042
20
20.0448399
11
-13.1643676
21
19.8040719
0
LINE
8
0
10
-13.1643676
20
19.8040719
11
-13.0663691
21
19.6052513
0
LINE
8
0
10
-13.0663691
20
19.6052513
11
-12.9030039
21
19.3922624
0
LINE
8
0
10
-12.9030039
20
19.3922624
11
-12.7681007
21
19.2163811
0
LINE
8
0
10
-12.7681007
20
19.2163811
11
-9.67694659
21
15.9146841
0
LINE
8
0
10
-9.67694659
20
15.9146841
11
-5.93361807
21
11.9163923
0
LINE
8
0
10
-5.93361807
20
11.9163923
11
-5.73183985
21
11.739367
0
LINE
8
0
10
-5.73183985
20
11.739367
11
-5.73183985
21
11.739367
0
LINE
8
0
10
7.93856615
20
21.6332579
11
8.13738632
21
21.7312565
0
LINE
8
0
10
8.13738632
20
21.7312565
11
8.35037472
21
21.8946222
0
LINE
8
0
10
8.35037472
20
21.8946222
11
8.52625561
21
22.0295258
0
LINE
8
0
10
8.52625561
20
22.0295258
11
8.70328097
21
22.2313032
0
LINE
8
0
10
8.70328097
20
22.2313032
11
8.84946442
21
22.3979263
0
LINE
8
0
10
8.84946442
20
22.3979263
11
8.98372328
21
22.630364
0
LINE
8
0
10
8.98372328
20
22.630364
11
9.09459114
21
22.8223057
0
LINE
8
0
10
9.09459114
20
22.8223057
11
9.18092384
21
23.0764695
0
LINE
8
0
10
9.18092384
20
23.0764695
11
9.25221539
21
23.2863522
0
LINE
8
0
10
9.25221539
20
23.2863522
11
9.28730455
21
23.5524744
0
LINE
8
0
10
9.28730455
20
23.5524744
11
9.31628036
21
23.7722321
0
LINE
8
0
10
9.31628036
20
23.7722321
11
9.29877731
21
24.0400864
0
LINE
8
0
10
9.29877731
20
24.0400864
11
9.28432369
21
24.2612743
0
LINE
8
0
10
9.28432369
20
24.2612743
11
9.21490119
21
24.5205676
0
LINE
8
0
10
9.21490119
20
24.5205676
11
9.1575737
21
24.7346859
0
LINE
8
0
10
9.1575737
20
24.7346859
11
9.03889934
21
24.9754528
0
LINE
8
0
10
9.03889934
20
24.9754528
11
8.9409008
21
25.1742725
0
LINE
8
0
10
8.9409008
20
25.1742725
11
8.77753565
21
25.3872615
0
LINE
8
0
10
8.77753565
20
25.3872615
11
8.64263248
21
25.5631428
0
LINE
8
0
10
8.64263248
20
25.5631428
11
5.55147828
21
28.8648401
0
LINE
8
0
10
5.55147828
20
28.8648401
11
1.8081497
21
32.8631325
0
LINE
8
0
10
1.8081497
20
32.8631325
11
1.60637135
21
33.0401573
0
LINE
8
0
10
1.60637135
20
33.0401573
11
1.43974745
21
33.1863403
0
LINE
8
0
10
1.43974745
20
33.1863403
11
1.20731036
21
33.3206002
0
LINE
8
0
10
1.20731036
20
33.3206002
11
1.01536918
21
33.431469
0
LINE
8
0
10
1.01536918
20
33.431469
11
0.761205687
21
33.5178011
0
LINE
8
0
10
0.761205687
20
33.5178011
11
0.551323354
21
33.5890923
0
LINE
8
0
10
0.551323354
20
33.5890923
11
0.285200854
21
33.6241809
0
LINE
8
0
10
0.285200854
20
33.6241809
11
0.0654430464
21
33.6531563
0
LINE
8
0
10
0.0654430464
20
33.6531563
11
-0.202411538
21
33.6356537
0
LINE
8
0
10
-0.202411538
20
33.6356537
11
-0.42359966
21
33.6212006
0
LINE
8
0
10
-0.42359966
20
33.6212006
11
-0.682892812
21
33.5517775
0
LINE
8
0
10
-0.682892812
20
33.5517775
11
-0.897011101
21
33.4944496
0
LINE
8
0
10
-0.897011101
20
33.4944496
11
-1.13777836
21
33.3757763
0
LINE
8
0
10
-1.13777836
20
33.3757763
11
-1.3365984
21
33.2777786
0
LINE
8
0
10
-1.3365984
20
33.2777786
11
-1.54958718
21
33.1144119
0
LINE
8
0
10
-1.54958718
20
33.1144119
11
-1.7254684
21
32.9795074
0
LINE
8
0
10
-1.7254684
20
32.9795074
11
-1.90249363
21
32.77773
0
LINE
8
0
10
-1.90249363
20
32.77773
11
-2.04867697
21
32.6111069
0
LINE
8
0
10
-2.04867697
20
32.6111069
11
-2.18293583
21
32.3786702
0
LINE
8
0
10
-2.18293583
20
32.3786702
11
-2.29380369
21
32.1867294
0
LINE
8
0
10
-2.29380369
20
32.1867294
11
-2.38013639
21
31.9325656
0
LINE
8
0
10
-2.38013639
20
31.9325656
11
-2.45142794
21
31.722683
0
LINE
8
0
10
-2.45142794
20
31.722683
11
-2.4865171
21
31.4565607
0
LINE
8
0
10
-2.4865171
20
31.4565607
11
-2.51549292
21
31.2368031
0
LINE
8
0
10
-2.51549292
20
31.2368031
11
-2.49798986
21
30.9689477
0
LINE
8
0
10
-2.49798986
20
30.9689477
11
-2.48353624
21
30.7477589
0
LINE
8
0
10
-2.48353624
20
30.7477589
11
-2.41411375
21
30.4884667
0
LINE
8
0
10
-2.41411375
20
30.4884667
11
-2.35678625
21
30.2743492
0
LINE
8
0
10
-2.35678625
20
30.2743492
11
-2.23811202
21
30.0335813
0
LINE
8
0
10
-2.23811202
20
30.0335813
11
-2.14011359
21
29.8347607
0
LINE
8
0
10
-2.14011359
20
29.8347607
11
-1.97674831
21
29.6217717
0
LINE
8
0
10
-1.97674831
20
29.6217717
11
-1.84184504
21
29.4458904
0
LINE
8
0
10
-1.84184504
20
29.4458904
11
1.24930911
21
26.1441931
0
LINE
8
0
10
1.24930911
20
26.1441931
11
4.99263763
21
22.1459007
0
LINE
8
0
10
4.99263763
20
22.1459007
11
5.19441611
21
21.9688759
0
LINE
8
0
10
5.19441611
20
21.9688759
11
5.36104012
21
21.8226929
0
LINE
8
0
10
5.36104012
20
21.8226929
11
5.59347728
21
21.688434
0
LINE
8
0
10
5.59347728
20
21.688434
11
5.78541851
21
21.5775661
0
LINE
8
0
10
5.78541851
20
21.5775661
11
6.03958184
21
21.491234
0
LINE
8
0
10
6.03958184
20
21.491234
11
6.24946404
21
21.4199429
0
LINE
8
0
10
6.24946404
20
21.4199429
11
6.51558657
21
21.3848532
0
LINE
8
0
10
6.51558657
20
21.3848532
11
6.73534441
21
21.3558769
0
LINE
8
0
10
6.73534441
20
21.3558769
11
7.00319902
21
21.3733805
0
LINE
8
0
10
7.00319902
20
21.3733805
11
7.22438717
21
21.3878345
0
LINE
8
0
10
7.22438717
20
21.3878345
11
7.48368039
21
21.4572565
0
LINE
8
0
10
7.48368039
20
21.4572565
11
7.69779873
21
21.5145836
0
LINE
8
0
10
7.69779873
20
21.5145836
11
7.93856615
21
21.6332579
0
LINE
8
0
10
7.93856615
20
21.6332579
11
7.93856615
21
21.6332579
0
LINE
8
0
10
3.40226603
20
13.1730547
11
3.21032479
21
13.2839226
0
LINE
8
0
10
3.21032479
20
13.2839226
11
2.97788763
21
13.4181814
0
LINE
8
0
10
2.97788763
20
13.4181814
11
2.81126374
21
13.5643649
0
LINE
8
0
10
2.81126374
20
13.5643649
11
2.60948539
21
13.7413902
0
LINE
8
0
10
2.60948539
20
13.7413902
11
-4.87717153
21
21.7379739
0
LINE
8
0
10
-4.87717153
20
21.7379739
11
-11.0594797
21
28.3413677
0
LINE
8
0
10
-11.0594797
20
28.3413677
11
-11.1943833
21
28.517249
0
LINE
8
0
10
-11.1943833
20
28.517249
11
-11.357749
21
28.730238
0
LINE
8
0
10
-11.357749
20
28.730238
11
-11.4557471
21
28.9290586
0
LINE
8
0
10
-11.4557471
20
28.9290586
11
-11.5744209
21
29.1698265
0
LINE
8
0
10
-11.5744209
20
29.1698265
11
-11.6317489
21
29.3839449
0
LINE
8
0
10
-11.6317489
20
29.3839449
11
-11.7011719
21
29.6432381
0
LINE
8
0
10
-11.7011719
20
29.6432381
11
-11.7156255
21
29.864426
0
LINE
8
0
10
-11.7156255
20
29.864426
11
-11.7331285
21
30.1322803
0
LINE
8
0
10
-11.7331285
20
30.1322803
11
-11.7041527
21
30.352038
0
LINE
8
0
10
-11.7041527
20
30.352038
11
-11.6690636
21
30.6181602
0
LINE
8
0
10
-11.6690636
20
30.6181602
11
-11.5977716
21
30.8280429
0
LINE
8
0
10
-11.5977716
20
30.8280429
11
-11.5114384
21
31.0822067
0
LINE
8
0
10
-11.5114384
20
31.0822067
11
-11.4005709
21
31.2741475
0
LINE
8
0
10
-11.4005709
20
31.2741475
11
-11.2663126
21
31.5065842
0
LINE
8
0
10
-11.2663126
20
31.5065842
11
-11.1201292
21
31.6732082
0
LINE
8
0
10
-11.1201292
20
31.6732082
11
-10.9431038
21
31.8749866
0
LINE
8
0
10
-10.9431038
20
31.8749866
11
-10.7672225
21
32.0098902
0
LINE
8
0
10
-10.7672225
20
32.0098902
11
-10.5542336
21
32.1732559
0
LINE
8
0
10
-10.5542336
20
32.1732559
11
-10.3554134
21
32.2712536
0
LINE
8
0
10
-10.3554134
20
32.2712536
11
-10.114646
21
32.3899269
0
LINE
8
0
10
-10.114646
20
32.3899269
11
-9.90052761
21
32.4472548
0
LINE
8
0
10
-9.90052761
20
32.4472548
11
-9.6412344
21
32.5166779
0
LINE
8
0
10
-9.6412344
20
32.5166779
11
-9.42004647
21
32.531131
0
LINE
8
0
10
-9.42004647
20
32.531131
11
-9.15219212
21
32.5486336
0
LINE
8
0
10
-9.15219212
20
32.5486336
11
-8.93243449
21
32.5196582
0
LINE
8
0
10
-8.93243449
20
32.5196582
11
-8.66631222
21
32.4845695
0
LINE
8
0
10
-8.66631222
20
32.4845695
11
-8.45642959
21
32.4132784
0
LINE
8
0
10
-8.45642959
20
32.4132784
11
-8.20226574
21
32.3269463
0
LINE
8
0
10
-8.20226574
20
32.3269463
11
-8.01032472
21
32.2160775
0
LINE
8
0
10
-8.01032472
20
32.2160775
11
-7.77788782
21
32.0818176
0
LINE
8
0
10
-7.77788782
20
32.0818176
11
-7.61126382
21
31.9356346
0
LINE
8
0
10
-7.61126382
20
31.9356346
11
-7.40948534
21
31.7586098
0
LINE
8
0
10
-7.40948534
20
31.7586098
11
0.0771717074
21
23.7620261
0
LINE
8
0
10
0.0771717074
20
23.7620261
11
6.25948
21
17.1586323
0
LINE
8
0
10
6.25948
20
17.1586323
11
6.39438338
21
16.982751
0
LINE
8
0
10
6.39438338
20
16.982751
11
6.55774879
21
16.769762
0
LINE
8
0
10
6.55774879
20
16.769762
11
6.65574712
21
16.5709414
0
LINE
8
0
10
6.65574712
20
16.5709414
11
6.77442122
21
16.3301735
0
LINE
8
0
10
6.77442122
20
16.3301735
11
6.83174871
21
16.1160556
0
LINE
8
0
10
6.83174871
20
16.1160556
11
6.90117121
21
15.8567629
0
LINE
8
0
10
6.90117121
20
15.8567629
11
6.91562483
21
15.6355745
0
LINE
8
0
10
6.91562483
20
15.6355745
11
6.93312788
21
15.3677197
0
LINE
8
0
10
6.93312788
20
15.3677197
11
6.90415228
21
15.147962
0
LINE
8
0
10
6.90415228
20
15.147962
11
6.86906338
21
14.8818398
0
LINE
8
0
10
6.86906338
20
14.8818398
11
6.79777162
21
14.6719576
0
LINE
8
0
10
6.79777162
20
14.6719576
11
6.71143866
21
14.4177942
0
LINE
8
0
10
6.71143866
20
14.4177942
11
6.60057079
21
14.225853
0
LINE
8
0
10
6.60057079
20
14.225853
11
6.46631193
21
13.9934158
0
LINE
8
0
10
6.46631193
20
13.9934158
11
6.3201287
21
13.8267918
0
LINE
8
0
10
6.3201287
20
13.8267918
11
6.1431036
21
13.6250134
0
LINE
8
0
10
6.1431036
20
13.6250134
11
5.96722228
21
13.4901102
0
LINE
8
0
10
5.96722228
20
13.4901102
11
5.75423336
21
13.326745
0
LINE
8
0
10
5.75423336
20
13.326745
11
5.55541341
21
13.2287465
0
LINE
8
0
10
5.55541341
20
13.2287465
11
5.31464624
21
13.1100721
0
LINE
8
0
10
5.31464624
20
13.1100721
11
5.1005279
21
13.0527446
0
LINE
8
0
10
5.1005279
20
13.0527446
11
4.84123468
21
12.9833221
0
LINE
8
0
10
4.84123468
20
12.9833221
11
4.62004654
21
12.9688685
0
LINE
8
0
10
4.62004654
20
12.9688685
11
4.35219193
21
12.9513655
0
LINE
8
0
10
4.35219193
20
12.9513655
11
4.13243419
21
12.9803413
0
LINE
8
0
10
4.13243419
20
12.9803413
11
3.86631179
21
13.0154305
0
LINE
8
0
10
3.86631179
20
13.0154305
11
3.65642948
21
13.086722
0
LINE
8
0
10
3.65642948
20
13.086722
11
3.40226603
21
13.1730547
0
LINE
8
0
10
3.40226603
20
13.1730547
11
3.40226603
21
13.1730547
0
LINE
8
0
10
-13.3221406
20
46.5
11
-13.4089625
21
46.5
0
LINE
8
0
10
-13.4089625
20
46.5
11
-13.5316062
21
46.5
0
LINE
8
0
10
-13.5316062
20
46.5
11
-13.6786489
21
46.5
0
LINE
8
0
10
-13.6786489
20
46.5
11
-13.8354561
21
46.5
0
LINE
8
0
10
-13.8354561
20
46.5
11
-13.9870248
21
46.5
0
LINE
8
0
10
-13.9870248
20
46.5
11
-14.1206134
21
46.5
0
LINE
8
0
10
-14.1206134
20
46.5
11
-14.2273136
21
46.5
0
LINE
8
0
10
-14.2273136
20
46.5
11
-14.3023582
21
46.5
0
LINE
8
0
10
-14.3023582
20
46.5
11
-16.2004179
21
46.5
0
LINE
8
0
10
-16.2004179
20
46.5
11
-18.5499992
21
46.5
0
LINE
8
0
10
-18.5499992
20
46.5
11
-18.5499992
21
46.0378038
0
LINE
8
0
10
-18.5499992
20
46.0378038
11
-18.5499992
21
45.423404
0
LINE
8
0
10
-18.5499992
20
45.423404
11
-18.5499992
21
45.3667488
0
LINE
8
0
10
-18.5499992
20
45.3667488
11
-18.5499992
21
45.2495484
0
LINE
8
0
10
-18.5499992
20
45.2495484
11
-18.5499992
21
45.0746485
0
LINE
8
0
10
-18.5499992
20
45.0746485
11
-18.5499992
21
44.8497376
0
LINE
8
0
10
-18.5499992
20
44.8497376
11
-18.5499992
21
42.7208615
0
LINE
8
0
10
-18.5499992
20
42.7208615
11
-18.5499992
21
42.5749447
0
LINE
8
0
10
-18.5499992
20
42.5749447
11
-18.5499992
21
42.3953272
0
LINE
8
0
10
-18.5499992
20
42.3953272
11
-18.5499992
21
41.316605
0
LINE
8
0
10
-18.5499992
20
41.316605
11
-18.5499992
21
41.1585024
0
LINE
8
0
10
-18.5499992
20
41.1585024
11
-18.5499992
21
40.9894824
0
LINE
8
0
10
-18.5499992
20
40.9894824
11
-18.5499992
21
40.824621
0
LINE
8
0
10
-18.5499992
20
40.824621
11
-18.5499992
21
40.6774173
0
LINE
8
0
10
-18.5499992
20
40.6774173
11
-18.5499992
21
40.1902656
0
LINE
8
0
10
-18.5499992
20
40.1902656
11
-18.5499992
21
36.0390098
0
LINE
8
0
10
-18.5499992
20
36.0390098
11
-18.5499992
21
35.1476087
0
LINE
8
0
10
-18.5499992
20
35.1476087
11
-18.5499992
21
32.6142318
0
LINE
8
0
10
-18.5499992
20
32.6142318
11
-18.5499992
21
11.5606166
0
LINE
8
0
10
-18.5499992
20
11.5606166
11
-18.5499992
21
8.60059933
0
LINE
8
0
10
-18.5499992
20
8.60059933
11
-18.5499992
21
5.70878431
0
LINE
8
0
10
-18.5499992
20
5.70878431
11
-18.5499992
21
4.46001349
0
LINE
8
0
10
-18.5499992
20
4.46001349
11
-18.5499992
21
4.31095971
0
LINE
8
0
10
-18.5499992
20
4.31095971
11
-18.5499992
21
3.25832835
0
LINE
8
0
10
-18.5499992
20
3.25832835
11
-18.5499992
21
3.08988818
0
LINE
8
0
10
-18.5499992
20
3.08988818
11
-18.5499992
21
2.95848548
0
LINE
8
0
10
-18.5499992
20
2.95848548
11
-18.5499992
21
0.832109121
0
LINE
8
0
10
-18.5499992
20
0.832109121
11
-18.5499992
21
0.622939381
0
LINE
8
0
10
-18.5499992
20
0.622939381
11
-18.5499992
21
0.467323981
0
LINE
8
0
10
-18.5499992
20
0.467323981
11
-18.5499992
21
0.371052257
0
LINE
8
0
10
-18.5499992
20
0.371052257
11
-18.5499992
21
-0.530910683
0
LINE
8
0
10
-18.5499992
20
-0.530910683
11
-18.5499992
21
-0.587377731
0
LINE
8
0
10
-18.5499992
20
-0.587377731
11
-18.5499992
21
-1.10000002
0
LINE
8
0
10
-18.5499992
20
-1.10000002
11
-17.8244754
21
-1.10000002
0
LINE
8
0
10
-17.8244754
20
-1.10000002
11
-16.2004179
21
-1.10000002
0
LINE
8
0
10
-16.2004179
20
-1.10000002
11
-14.3023582
21
-1.10000002
0
LINE
8
0
10
-14.3023582
20
-1.10000002
11
-14.2273136
21
-1.10000002
0
LINE
8
0
10
-14.2273136
20
-1.10000002
11
-14.1206134
21
-1.10000002
0
LINE
8
0
10
-14.1206134
20
-1.10000002
11
-13.9870248
21
-1.10000002
0
LINE
8
0
10
-13.9870248
20
-1.10000002
11
-13.8354561
21
-1.10000002
0
LINE
8
0
10
-13.8354561
20
-1.10000002
11
-13.6786489
21
-1.10000002
0
LINE
8
0
10
-13.6786489
20
-1.10000002
11
-13.5316062
21
-1.10000002
0
LINE
8
0
10
-13.5316062
20
-1.10000002
11
-13.4089625
21
-1.10000002
0
LINE
8
0
10
-13.4089625
20
-1.10000002
11
-13.3221406
21
-1.10000002
0
LINE
8
0
10
-13.3221406
20
-1.10000002
11
-13.2773937
21
-1.10000002
0
LINE
8
0
10
-13.2773937
20
-1.10000002
11
5.89805281
21
-1.10000002
0
LINE
8
0
10
5.89805281
20
-1.10000002
11
12.0993798
21
-1.10000002
0
LINE
8
0
10
12.0993798
20
-1.10000002
11
12.1614492
21
-1.10000002
0
LINE
8
0
10
12.1614492
20
-1.10000002
11
12.25962
21
-1.10000002
0
LINE
8
0
10
12.25962
20
-1.10000002
11
12.3862204
21
-1.10000002
0
LINE
8
0
10
12.3862204
20
-1.10000002
11
12.5293064
21
-1.10000002
0
LINE
8
0
10
12.5293064
20
-1.10000002
11
12.6747647
21
-1.10000002
0
LINE
8
0
10
12.6747647
20
-1.10000002
11
12.8090109
21
-1.10000002
0
LINE
8
0
10
12.8090109
20
-1.10000002
11
12.9212649
21
-1.10000002
0
LINE
8
0
10
12.9212649
20
-1.10000002
11
13.0047077
21
-1.10000002
0
LINE
8
0
10
13.0047077
20
-1.10000002
11
13.75
21
-1.10000002
0
LINE
8
0
10
13.75
20
-1.10000002
11
13.75
21
0.843538149
0
LINE
8
0
10
13.75
20
0.843538149
11
13.75
21
2.05505972
0
LINE
8
0
10
13.75
20
2.05505972
11
13.75
21
26.9003865
0
LINE
8
0
10
13.75
20
26.9003865
11
13.75
21
43.3927442
0
LINE
8
0
10
13.75
20
43.3927442
11
13.75
21
44.5945704
0
LINE
8
0
10
13.75
20
44.5945704
11
13.75
21
46.5
0
LINE
8
0
10
13.75
20
46.5
11
13.0047077
21
46.5
0
LINE
8
0
10
13.0047077
20
46.5
11
12.9212649
21
46.5
0
LINE
8
0
10
12.9212649
20
46.5
11
12.8090109
21
46.5
0
LINE
8
0
10
12.8090109
20
46.5
11
12.6747647
21
46.5
0
LINE
8
0
10
12.6747647
20
46.5
11
12.5293064
21
46.5
0
LINE
8
0
10
12.5293064
20
46.5
11
12.3862204
21
46.5
0
LINE
8
0
10
12.3862204
20
46.5
11
12.25962
21
46.5
0
LINE
8
0
10
12.25962
20
46.5
11
12.1614492
21
46.5
0
LINE
8
0
10
12.1614492
20
46.5
11
12.0993798
21
46.5
0
LINE
8
0
10
12.0993798
20
46.5
11
5.89805281
21
46.5
0
LINE
8
0
10
5.89805281
20
46.5
11
-13.2773937
21
46.5
0
LINE
8
0
10
-13.2773937
20
46.5
11
-13.3221406
21
46.5
0
LINE
8
0
10
-13.3221406
20
46.5
11
-13.3221406
21
46.5
0
ENDSEC
0
EOF
