0
SECTION
2
ENTITIES
0
LINE
8
0
10
-11.7171132
20
29.8871931
11
-11.7011719
21
29.6432381
0
LINE
8
0
10
-11.7011719
20
29.6432381
11
-11.6376497
21
29.4059843
0
LINE
8
0
10
-11.6376497
20
29.4059843
11
-11.5744209
21
29.1698265
0
LINE
8
0
10
-11.5744209
20
29.1698265
11
-11.4658341
21
28.9495234
0
LINE
8
0
10
-11.4658341
20
28.9495234
11
-11.357749
21
28.730238
0
LINE
8
0
10
-11.357749
20
28.730238
11
-11.2082691
21
28.5353527
0
LINE
8
0
10
-11.2082691
20
28.5353527
11
-11.0594797
21
28.3413677
0
LINE
8
0
10
-11.0594797
20
28.3413677
11
-4.24081999
21
21.0582795
0
LINE
8
0
10
-4.24081999
20
21.0582795
11
2.60948539
21
13.7413902
0
LINE
8
0
10
2.60948539
20
13.7413902
11
2.79411296
21
13.5794117
0
LINE
8
0
10
2.79411296
20
13.5794117
11
2.97788763
21
13.4181814
0
LINE
8
0
10
2.97788763
20
13.4181814
11
3.19056808
21
13.2953343
0
LINE
8
0
10
3.19056808
20
13.2953343
11
3.40226603
21
13.1730547
0
LINE
8
0
10
3.40226603
20
13.1730547
11
3.63482607
21
13.0940601
0
LINE
8
0
10
3.63482607
20
13.0940601
11
3.86631179
21
13.0154305
0
LINE
8
0
10
3.86631179
20
13.0154305
11
4.1098143
21
12.9833238
0
LINE
8
0
10
4.1098143
20
12.9833238
11
4.35219193
21
12.9513655
0
LINE
8
0
10
4.35219193
20
12.9513655
11
4.59727941
21
12.9673808
0
LINE
8
0
10
4.59727941
20
12.9673808
11
4.84123468
21
12.9833221
0
LINE
8
0
10
4.84123468
20
12.9833221
11
5.07848847
21
13.0468439
0
LINE
8
0
10
5.07848847
20
13.0468439
11
5.31464624
21
13.1100721
0
LINE
8
0
10
5.31464624
20
13.1100721
11
5.53494866
21
13.2186594
0
LINE
8
0
10
5.53494866
20
13.2186594
11
5.75423336
21
13.326745
0
LINE
8
0
10
5.75423336
20
13.326745
11
5.94911863
21
13.4762245
0
LINE
8
0
10
5.94911863
20
13.4762245
11
6.1431036
21
13.6250134
0
LINE
8
0
10
6.1431036
20
13.6250134
11
6.3050819
21
13.809641
0
LINE
8
0
10
6.3050819
20
13.809641
11
6.46631193
21
13.9934158
0
LINE
8
0
10
6.46631193
20
13.9934158
11
6.58915905
21
14.2060963
0
LINE
8
0
10
6.58915905
20
14.2060963
11
6.71143866
21
14.4177942
0
LINE
8
0
10
6.71143866
20
14.4177942
11
6.79043348
21
14.6503542
0
LINE
8
0
10
6.79043348
20
14.6503542
11
6.86906338
21
14.8818398
0
LINE
8
0
10
6.86906338
20
14.8818398
11
6.90116979
21
15.1253421
0
LINE
8
0
10
6.90116979
20
15.1253421
11
6.93312788
21
15.3677197
0
LINE
8
0
10
6.93312788
20
15.3677197
11
6.91711255
21
15.6128074
0
LINE
8
0
10
6.91711255
20
15.6128074
11
6.90117121
21
15.8567629
0
LINE
8
0
10
6.90117121
20
15.8567629
11
6.83764949
21
16.0940162
0
LINE
8
0
10
6.83764949
20
16.0940162
11
6.77442122
21
16.3301735
0
LINE
8
0
10
6.77442122
20
16.3301735
11
6.66583419
21
16.5504766
0
LINE
8
0
10
6.66583419
20
16.5504766
11
6.55774879
21
16.769762
0
LINE
8
0
10
6.55774879
20
16.769762
11
6.40826913
21
16.9646473
0
LINE
8
0
10
6.40826913
20
16.9646473
11
6.25948
21
17.1586323
0
LINE
8
0
10
6.25948
20
17.1586323
11
-0.559179839
21
24.4417205
0
LINE
8
0
10
-0.559179839
20
24.4417205
11
-7.40948534
21
31.7586098
0
LINE
8
0
10
-7.40948534
20
31.7586098
11
-7.59411303
21
31.9205878
0
LINE
8
0
10
-7.59411303
20
31.9205878
11
-7.77788782
21
32.0818176
0
LINE
8
0
10
-7.77788782
20
32.0818176
11
-7.99056803
21
32.2046657
0
LINE
8
0
10
-7.99056803
20
32.2046657
11
-8.20226574
21
32.3269463
0
LINE
8
0
10
-8.20226574
20
32.3269463
11
-8.43482615
21
32.4059404
0
LINE
8
0
10
-8.43482615
20
32.4059404
11
-8.66631222
21
32.4845695
0
LINE
8
0
10
-8.66631222
20
32.4845695
11
-8.90981461
21
32.5166757
0
LINE
8
0
10
-8.90981461
20
32.5166757
11
-9.15219212
21
32.5486336
0
LINE
8
0
10
-9.15219212
20
32.5486336
11
-9.39727936
21
32.5326187
0
LINE
8
0
10
-9.39727936
20
32.5326187
11
-9.6412344
21
32.5166779
0
LINE
8
0
10
-9.6412344
20
32.5166779
11
-9.87848819
21
32.4531557
0
LINE
8
0
10
-9.87848819
20
32.4531557
11
-10.114646
21
32.3899269
0
LINE
8
0
10
-10.114646
20
32.3899269
11
-10.3349486
21
32.2813406
0
LINE
8
0
10
-10.3349486
20
32.2813406
11
-10.5542336
21
32.1732559
0
LINE
8
0
10
-10.5542336
20
32.1732559
11
-10.7491188
21
32.023776
0
LINE
8
0
10
-10.7491188
20
32.023776
11
-10.9431038
21
31.8749866
0
LINE
8
0
10
-10.9431038
20
31.8749866
11
-11.1050823
21
31.690359
0
LINE
8
0
10
-11.1050823
20
31.690359
11
-11.2663126
21
31.5065842
0
LINE
8
0
10
-11.2663126
20
31.5065842
11
-11.3891592
21
31.2939042
0
LINE
8
0
10
-11.3891592
20
31.2939042
11
-11.5114384
21
31.0822067
0
LINE
8
0
10
-11.5114384
20
31.0822067
11
-11.5904334
21
30.8496463
0
LINE
8
0
10
-11.5904334
20
30.8496463
11
-11.6690636
21
30.6181602
0
LINE
8
0
10
-11.6690636
20
30.6181602
11
-11.7011702
21
30.3746579
0
LINE
8
0
10
-11.7011702
20
30.3746579
11
-11.7331285
21
30.1322803
0
LINE
8
0
10
-11.7331285
20
30.1322803
11
-11.7171132
21
29.8871931
0
LINE
8
0
10
-11.7171132
20
29.8871931
11
-11.7171132
21
29.8871931
0
LINE
8
0
10
7.91810138
20
21.6231709
11
8.13738632
21
21.7312565
0
LINE
8
0
10
8.13738632
20
21.7312565
11
8.33227111
21
21.8807364
0
LINE
8
0
10
8.33227111
20
21.8807364
11
8.52625561
21
22.0295258
0
LINE
8
0
10
8.52625561
20
22.0295258
11
8.68823415
21
22.2141525
0
LINE
8
0
10
8.68823415
20
22.2141525
11
8.84946442
21
22.3979263
0
LINE
8
0
10
8.84946442
20
22.3979263
11
8.97231153
21
22.6106073
0
LINE
8
0
10
8.97231153
20
22.6106073
11
9.09459114
21
22.8223057
0
LINE
8
0
10
9.09459114
20
22.8223057
11
9.17358572
21
23.0548661
0
LINE
8
0
10
9.17358572
20
23.0548661
11
9.25221539
21
23.2863522
0
LINE
8
0
10
9.25221539
20
23.2863522
11
9.28432204
21
23.5298545
0
LINE
8
0
10
9.28432204
20
23.5298545
11
9.31628036
21
23.7722321
0
LINE
8
0
10
9.31628036
20
23.7722321
11
9.30026504
21
24.0173193
0
LINE
8
0
10
9.30026504
20
24.0173193
11
9.28432369
21
24.2612743
0
LINE
8
0
10
9.28432369
20
24.2612743
11
9.22080197
21
24.4985281
0
LINE
8
0
10
9.22080197
20
24.4985281
11
9.1575737
21
24.7346859
0
LINE
8
0
10
9.1575737
20
24.7346859
11
9.04898644
21
24.9549881
0
LINE
8
0
10
9.04898644
20
24.9549881
11
8.9409008
21
25.1742725
0
LINE
8
0
10
8.9409008
20
25.1742725
11
8.79142138
21
25.3691578
0
LINE
8
0
10
8.79142138
20
25.3691578
11
8.64263248
21
25.5631428
0
LINE
8
0
10
8.64263248
20
25.5631428
11
5.23330251
21
29.2046874
0
LINE
8
0
10
5.23330251
20
29.2046874
11
1.8081497
21
32.8631325
0
LINE
8
0
10
1.8081497
20
32.8631325
11
1.62352212
21
33.0251105
0
LINE
8
0
10
1.62352212
20
33.0251105
11
1.43974745
21
33.1863403
0
LINE
8
0
10
1.43974745
20
33.1863403
11
1.22706707
21
33.3091884
0
LINE
8
0
10
1.22706707
20
33.3091884
11
1.01536918
21
33.431469
0
LINE
8
0
10
1.01536918
20
33.431469
11
0.782809098
21
33.5104631
0
LINE
8
0
10
0.782809098
20
33.5104631
11
0.551323354
21
33.5890923
0
LINE
8
0
10
0.551323354
20
33.5890923
11
0.307820758
21
33.6211984
0
LINE
8
0
10
0.307820758
20
33.6211984
11
0.0654430464
21
33.6531563
0
LINE
8
0
10
0.0654430464
20
33.6531563
11
-0.17964441
21
33.6371414
0
LINE
8
0
10
-0.17964441
20
33.6371414
11
-0.42359966
21
33.6212006
0
LINE
8
0
10
-0.42359966
20
33.6212006
11
-0.660853389
21
33.5576784
0
LINE
8
0
10
-0.660853389
20
33.5576784
11
-0.897011101
21
33.4944496
0
LINE
8
0
10
-0.897011101
20
33.4944496
11
-1.1173136
21
33.3858633
0
LINE
8
0
10
-1.1173136
20
33.3858633
11
-1.3365984
21
33.2777786
0
LINE
8
0
10
-1.3365984
20
33.2777786
11
-1.53148354
21
33.1282978
0
LINE
8
0
10
-1.53148354
20
33.1282978
11
-1.7254684
21
32.9795074
0
LINE
8
0
10
-1.7254684
20
32.9795074
11
-1.88744682
21
32.7948807
0
LINE
8
0
10
-1.88744682
20
32.7948807
11
-2.04867697
21
32.6111069
0
LINE
8
0
10
-2.04867697
20
32.6111069
11
-2.17152408
21
32.3984269
0
LINE
8
0
10
-2.17152408
20
32.3984269
11
-2.29380369
21
32.1867294
0
LINE
8
0
10
-2.29380369
20
32.1867294
11
-2.37279828
21
31.954169
0
LINE
8
0
10
-2.37279828
20
31.954169
11
-2.45142794
21
31.722683
0
LINE
8
0
10
-2.45142794
20
31.722683
11
-2.48353459
21
31.4791806
0
LINE
8
0
10
-2.48353459
20
31.4791806
11
-2.51549292
21
31.2368031
0
LINE
8
0
10
-2.51549292
20
31.2368031
11
-2.49947759
21
30.9917149
0
LINE
8
0
10
-2.49947759
20
30.9917149
11
-2.48353624
21
30.7477589
0
LINE
8
0
10
-2.48353624
20
30.7477589
11
-2.42001452
21
30.510506
0
LINE
8
0
10
-2.42001452
20
30.510506
11
-2.35678625
21
30.2743492
0
LINE
8
0
10
-2.35678625
20
30.2743492
11
-2.24819911
21
30.0540461
0
LINE
8
0
10
-2.24819911
20
30.0540461
11
-2.14011359
21
29.8347607
0
LINE
8
0
10
-2.14011359
20
29.8347607
11
-1.99063405
21
29.6398754
0
LINE
8
0
10
-1.99063405
20
29.6398754
11
-1.84184504
21
29.4458904
0
LINE
8
0
10
-1.84184504
20
29.4458904
11
1.56748488
21
25.8043459
0
LINE
8
0
10
1.56748488
20
25.8043459
11
4.99263763
21
22.1459007
0
LINE
8
0
10
4.99263763
20
22.1459007
11
5.17726533
21
21.9839227
0
LINE
8
0
10
5.17726533
20
21.9839227
11
5.36104012
21
21.8226929
0
LINE
8
0
10
5.36104012
20
21.8226929
11
5.57372056
21
21.6998458
0
LINE
8
0
10
5.57372056
20
21.6998458
11
5.78541851
21
21.5775661
0
LINE
8
0
10
5.78541851
20
21.5775661
11
6.01797844
21
21.498572
0
LINE
8
0
10
6.01797844
20
21.498572
11
6.24946404
21
21.4199429
0
LINE
8
0
10
6.24946404
20
21.4199429
11
6.49296666
21
21.3878357
0
LINE
8
0
10
6.49296666
20
21.3878357
11
6.73534441
21
21.3558769
0
LINE
8
0
10
6.73534441
20
21.3558769
11
6.98043189
21
21.3718927
0
LINE
8
0
10
6.98043189
20
21.3718927
11
7.22438717
21
21.3878345
0
LINE
8
0
10
7.22438717
20
21.3878345
11
7.46164096
21
21.4513558
0
LINE
8
0
10
7.46164096
20
21.4513558
11
7.69779873
21
21.5145836
0
LINE
8
0
10
7.69779873
20
21.5145836
11
7.91810138
21
21.6231709
0
LINE
8
0
10
7.91810138
20
21.6231709
11
7.91810138
21
21.6231709
0
LINE
8
0
10
-13.5909466
20
46.5
11
-13.5115044
21
46.5
0
LINE
8
0
10
-13.5115044
20
46.5
11
-13.4705609
21
46.5
0
LINE
8
0
10
-13.4705609
20
46.5
11
6.56545332
21
46.5
0
LINE
8
0
10
6.56545332
20
46.5
11
12.2396794
21
46.5
0
LINE
8
0
10
12.2396794
20
46.5
11
12.296473
21
46.5
0
LINE
8
0
10
12.296473
20
46.5
11
12.3862995
21
46.5
0
LINE
8
0
10
12.3862995
20
46.5
11
12.502139
21
46.5
0
LINE
8
0
10
12.502139
20
46.5
11
12.633063
21
46.5
0
LINE
8
0
10
12.633063
20
46.5
11
12.7661576
21
46.5
0
LINE
8
0
10
12.7661576
20
46.5
11
12.8889932
21
46.5
0
LINE
8
0
10
12.8889932
20
46.5
11
12.9917058
21
46.5
0
LINE
8
0
10
12.9917058
20
46.5
11
13.0680561
21
46.5
0
LINE
8
0
10
13.0680561
20
46.5
11
13.75
21
46.5
0
LINE
8
0
10
13.75
20
46.5
11
13.75
21
44.7565283
0
LINE
8
0
10
13.75
20
44.7565283
11
13.75
21
43.656855
0
LINE
8
0
10
13.75
20
43.656855
11
13.75
21
28.5663162
0
LINE
8
0
10
13.75
20
28.5663162
11
13.75
21
1.78688567
0
LINE
8
0
10
13.75
20
1.78688567
11
13.75
21
0.678341117
0
LINE
8
0
10
13.75
20
0.678341117
11
13.75
21
-1.10000002
0
LINE
8
0
10
13.75
20
-1.10000002
11
13.0680561
21
-1.10000002
0
LINE
8
0
10
13.0680561
20
-1.10000002
11
12.9917058
21
-1.10000002
0
LINE
8
0
10
12.9917058
20
-1.10000002
11
12.8889932
21
-1.10000002
0
LINE
8
0
10
12.8889932
20
-1.10000002
11
12.7661576
21
-1.10000002
0
LINE
8
0
10
12.7661576
20
-1.10000002
11
12.633063
21
-1.10000002
0
LINE
8
0
10
12.633063
20
-1.10000002
11
12.502139
21
-1.10000002
0
LINE
8
0
10
12.502139
20
-1.10000002
11
12.3862995
21
-1.10000002
0
LINE
8
0
10
12.3862995
20
-1.10000002
11
12.296473
21
-1.10000002
0
LINE
8
0
10
12.296473
20
-1.10000002
11
12.2396794
21
-1.10000002
0
LINE
8
0
10
12.2396794
20
-1.10000002
11
6.56545332
21
-1.10000002
0
LINE
8
0
10
6.56545332
20
-1.10000002
11
-13.4705609
21
-1.10000002
0
LINE
8
0
10
-13.4705609
20
-1.10000002
11
-13.5115044
21
-1.10000002
0
LINE
8
0
10
-13.5115044
20
-1.10000002
11
-13.5909466
21
-1.10000002
0
LINE
8
0
10
-13.5909466
20
-1.10000002
11
-13.7031659
21
-1.10000002
0
LINE
8
0
10
-13.7031659
20
-1.10000002
11
-13.8377101
21
-1.10000002
0
LINE
8
0
10
-13.8377101
20
-1.10000002
11
-13.9811891
21
-1.10000002
0
LINE
8
0
10
-13.9811891
20
-1.10000002
11
-14.1198747
21
-1.10000002
0
LINE
8
0
10
-14.1198747
20
-1.10000002
11
-14.2421085
21
-1.10000002
0
LINE
8
0
10
-14.2421085
20
-1.10000002
11
-14.3397394
21
-1.10000002
0
LINE
8
0
10
-14.3397394
20
-1.10000002
11
-14.4084054
21
-1.10000002
0
LINE
8
0
10
-14.4084054
20
-1.10000002
11
-16.1451337
21
-1.10000002
0
LINE
8
0
10
-16.1451337
20
-1.10000002
11
-17.8074042
21
-1.10000002
0
LINE
8
0
10
-17.8074042
20
-1.10000002
11
-18.5499992
21
-1.10000002
0
LINE
8
0
10
-18.5499992
20
-1.10000002
11
-18.5499992
21
-0.57531603
0
LINE
8
0
10
-18.5499992
20
-0.57531603
11
-18.5499992
21
-0.517520346
0
LINE
8
0
10
-18.5499992
20
-0.517520346
11
-18.5499992
21
0.405665252
0
LINE
8
0
10
-18.5499992
20
0.405665252
11
-18.5499992
21
0.504202193
0
LINE
8
0
10
-18.5499992
20
0.504202193
11
-18.5499992
21
0.663479132
0
LINE
8
0
10
-18.5499992
20
0.663479132
11
-18.5499992
21
0.877570512
0
LINE
8
0
10
-18.5499992
20
0.877570512
11
-18.5499992
21
2.90397663
0
LINE
8
0
10
-18.5499992
20
2.90397663
11
-18.5499992
21
3.04225644
0
LINE
8
0
10
-18.5499992
20
3.04225644
11
-18.5499992
21
3.21951212
0
LINE
8
0
10
-18.5499992
20
3.21951212
11
-18.5499992
21
4.21839795
0
LINE
8
0
10
-18.5499992
20
4.21839795
11
-18.5499992
21
4.37905493
0
LINE
8
0
10
-18.5499992
20
4.37905493
11
-18.5499992
21
5.72503728
0
LINE
8
0
10
-18.5499992
20
5.72503728
11
-18.5499992
21
8.8419679
0
LINE
8
0
10
-18.5499992
20
8.8419679
11
-18.5499992
21
12.03241
0
LINE
8
0
10
-18.5499992
20
12.03241
11
-18.5499992
21
32.039281
0
LINE
8
0
10
-18.5499992
20
32.039281
11
-18.5499992
21
34.7698705
0
LINE
8
0
10
-18.5499992
20
34.7698705
11
-18.5499992
21
35.7306634
0
LINE
8
0
10
-18.5499992
20
35.7306634
11
-18.5499992
21
40.205077
0
LINE
8
0
10
-18.5499992
20
40.205077
11
-18.5499992
21
40.7301514
0
LINE
8
0
10
-18.5499992
20
40.7301514
11
-18.5499992
21
40.8888142
0
LINE
8
0
10
-18.5499992
20
40.8888142
11
-18.5499992
21
41.0665094
0
LINE
8
0
10
-18.5499992
20
41.0665094
11
-18.5499992
21
41.2486869
0
LINE
8
0
10
-18.5499992
20
41.2486869
11
-18.5499992
21
41.4190971
0
LINE
8
0
10
-18.5499992
20
41.4190971
11
-18.5499992
21
42.4421851
0
LINE
8
0
10
-18.5499992
20
42.4421851
11
-18.5499992
21
42.6312032
0
LINE
8
0
10
-18.5499992
20
42.6312032
11
-18.5499992
21
42.7847567
0
LINE
8
0
10
-18.5499992
20
42.7847567
11
-18.5499992
21
44.8109079
0
LINE
8
0
10
-18.5499992
20
44.8109079
11
-18.5499992
21
45.0411108
0
LINE
8
0
10
-18.5499992
20
45.0411108
11
-18.5499992
21
45.220126
0
LINE
8
0
10
-18.5499992
20
45.220126
11
-18.5499992
21
45.3400841
0
LINE
8
0
10
-18.5499992
20
45.3400841
11
-18.5499992
21
45.3980724
0
LINE
8
0
10
-18.5499992
20
45.3980724
11
-18.5499992
21
46.0269286
0
LINE
8
0
10
-18.5499992
20
46.0269286
11
-18.5499992
21
46.5
0
LINE
8
0
10
-18.5499992
20
46.5
11
-16.1451337
21
46.5
0
LINE
8
0
10
-16.1451337
20
46.5
11
-14.4084054
21
46.5
0
LINE
8
0
10
-14.4084054
20
46.5
11
-14.3397394
21
46.5
0
LINE
8
0
10
-14.3397394
20
46.5
11
-14.2421085
21
46.5
0
LINE
8
0
10
-14.2421085
20
46.5
11
-14.1198747
21
46.5
0
LINE
8
0
10
-14.1198747
20
46.5
11
-13.9811891
21
46.5
0
LINE
8
0
10
-13.9811891
20
46.5
11
-13.8377101
21
46.5
0
LINE
8
0
10
-13.8377101
20
46.5
11
-13.7031659
21
46.5
0
LINE
8
0
10
-13.7031659
20
46.5
11
-13.5909466
21
46.5
0
LINE
8
0
10
-13.5909466
20
46.5
11
-13.5909466
21
46.5
0
LINE
8
0
10
-13.299054
20
21.7246597
11
-13.3776836
21
21.4931736
0
LINE
8
0
10
-13.3776836
20
21.4931736
11
-13.4097903
21
21.2496712
0
LINE
8
0
10
-13.4097903
20
21.2496712
11
-13.4417486
21
21.0072937
0
LINE
8
0
10
-13.4417486
20
21.0072937
11
-13.4257333
21
20.7622065
0
LINE
8
0
10
-13.4257333
20
20.7622065
11
-13.4097919
21
20.5182514
0
LINE
8
0
10
-13.4097919
20
20.5182514
11
-13.3462702
21
20.2809976
0
LINE
8
0
10
-13.3462702
20
20.2809976
11
-13.283042
21
20.0448399
0
LINE
8
0
10
-13.283042
20
20.0448399
11
-13.1744547
21
19.8245367
0
LINE
8
0
10
-13.1744547
20
19.8245367
11
-13.0663691
21
19.6052513
0
LINE
8
0
10
-13.0663691
20
19.6052513
11
-12.9168896
21
19.410366
0
LINE
8
0
10
-12.9168896
20
19.410366
11
-12.7681007
21
19.2163811
0
LINE
8
0
10
-12.7681007
20
19.2163811
11
-9.35877082
21
15.574837
0
LINE
8
0
10
-9.35877082
20
15.574837
11
-5.93361807
21
11.9163923
0
LINE
8
0
10
-5.93361807
20
11.9163923
11
-5.74899061
21
11.7544138
0
LINE
8
0
10
-5.74899061
20
11.7544138
11
-5.56521606
21
11.5931835
0
LINE
8
0
10
-5.56521606
20
11.5931835
11
-5.35253562
21
11.4703369
0
LINE
8
0
10
-5.35253562
20
11.4703369
11
-5.14083767
21
11.3480577
0
LINE
8
0
10
-5.14083767
20
11.3480577
11
-4.9082775
21
11.2690627
0
LINE
8
0
10
-4.9082775
20
11.2690627
11
-4.67679167
21
11.1904325
0
LINE
8
0
10
-4.67679167
20
11.1904325
11
-4.43328904
21
11.1583259
0
LINE
8
0
10
-4.43328904
20
11.1583259
11
-4.19091129
21
11.1263676
0
LINE
8
0
10
-4.19091129
20
11.1263676
11
-3.94582393
21
11.1423829
0
LINE
8
0
10
-3.94582393
20
11.1423829
11
-3.70186877
21
11.1583242
0
LINE
8
0
10
-3.70186877
20
11.1583242
11
-3.46461498
21
11.2218464
0
LINE
8
0
10
-3.46461498
20
11.2218464
11
-3.22845721
21
11.2850752
0
LINE
8
0
10
-3.22845721
20
11.2850752
11
-3.0081548
21
11.393662
0
LINE
8
0
10
-3.0081548
20
11.393662
11
-2.7888701
21
11.5017471
0
LINE
8
0
10
-2.7888701
20
11.5017471
11
-2.59398495
21
11.651227
0
LINE
8
0
10
-2.59398495
20
11.651227
11
-2.4000001
21
11.8000164
0
LINE
8
0
10
-2.4000001
20
11.8000164
11
-2.23802155
21
11.9846436
0
LINE
8
0
10
-2.23802155
20
11.9846436
11
-2.07679129
21
12.1684179
0
LINE
8
0
10
-2.07679129
20
12.1684179
11
-1.95394429
21
12.3810984
0
LINE
8
0
10
-1.95394429
20
12.3810984
11
-1.8316648
21
12.5927963
0
LINE
8
0
10
-1.8316648
20
12.5927963
11
-1.7526701
21
12.8253563
0
LINE
8
0
10
-1.7526701
20
12.8253563
11
-1.67404032
21
13.0568419
0
LINE
8
0
10
-1.67404032
20
13.0568419
11
-1.64193373
21
13.3003447
0
LINE
8
0
10
-1.64193373
20
13.3003447
11
-1.60997546
21
13.5427227
0
LINE
8
0
10
-1.60997546
20
13.5427227
11
-1.62599073
21
13.7878099
0
LINE
8
0
10
-1.62599073
20
13.7878099
11
-1.64193201
21
14.031765
0
LINE
8
0
10
-1.64193201
20
14.031765
11
-1.70545379
21
14.2690188
0
LINE
8
0
10
-1.70545379
20
14.2690188
11
-1.76868212
21
14.5051765
0
LINE
8
0
10
-1.76868212
20
14.5051765
11
-1.87726927
21
14.7254792
0
LINE
8
0
10
-1.87726927
20
14.7254792
11
-1.98535478
21
14.9447641
0
LINE
8
0
10
-1.98535478
20
14.9447641
11
-2.13483439
21
15.1396494
0
LINE
8
0
10
-2.13483439
20
15.1396494
11
-2.28362346
21
15.3336344
0
LINE
8
0
10
-2.28362346
20
15.3336344
11
-5.69295326
21
18.9751785
0
LINE
8
0
10
-5.69295326
20
18.9751785
11
-9.11810589
21
22.6336231
0
LINE
8
0
10
-9.11810589
20
22.6336231
11
-9.30273358
21
22.7956021
0
LINE
8
0
10
-9.30273358
20
22.7956021
11
-9.48650837
21
22.9568329
0
LINE
8
0
10
-9.48650837
20
22.9568329
11
-9.69918882
21
23.079679
0
LINE
8
0
10
-9.69918882
20
23.079679
11
-9.91088676
21
23.2019577
0
LINE
8
0
10
-9.91088676
20
23.2019577
11
-10.1434467
21
23.2809528
0
LINE
8
0
10
-10.1434467
20
23.2809528
11
-10.3749323
21
23.3595829
0
LINE
8
0
10
-10.3749323
20
23.3595829
11
-10.6184352
21
23.39169
0
LINE
8
0
10
-10.6184352
20
23.39169
11
-10.8608131
21
23.4236488
0
LINE
8
0
10
-10.8608131
20
23.4236488
11
-11.1059004
21
23.407633
0
LINE
8
0
10
-11.1059004
20
23.407633
11
-11.3498554
21
23.3916912
0
LINE
8
0
10
-11.3498554
20
23.3916912
11
-11.5871092
21
23.328169
0
LINE
8
0
10
-11.5871092
20
23.328169
11
-11.823267
21
23.2649403
0
LINE
8
0
10
-11.823267
20
23.2649403
11
-12.0435696
21
23.156354
0
LINE
8
0
10
-12.0435696
20
23.156354
11
-12.2628546
21
23.0482693
0
LINE
8
0
10
-12.2628546
20
23.0482693
11
-12.4577394
21
22.8987894
0
LINE
8
0
10
-12.4577394
20
22.8987894
11
-12.6517239
21
22.75
0
LINE
8
0
10
-12.6517239
20
22.75
11
-12.8137024
21
22.5653723
0
LINE
8
0
10
-12.8137024
20
22.5653723
11
-12.9749327
21
22.3815975
0
LINE
8
0
10
-12.9749327
20
22.3815975
11
-13.0977798
21
22.1689176
0
LINE
8
0
10
-13.0977798
20
22.1689176
11
-13.2200594
21
21.9572201
0
LINE
8
0
10
-13.2200594
20
21.9572201
11
-13.299054
21
21.7246597
0
LINE
8
0
10
-13.299054
20
21.7246597
11
-13.299054
21
21.7246597
0
ENDSEC
0
EOF
