0
SECTION
2
ENTITIES
0
LINE
8
0
10
3.40226603
20
13.1730547
11
3.13129793
21
13.3295695
0
LINE
8
0
10
3.13129793
20
13.3295695
11
2.97788763
21
13.4181814
0
LINE
8
0
10
2.97788763
20
13.4181814
11
2.74266064
21
13.6245521
0
LINE
8
0
10
2.74266064
20
13.6245521
11
2.60948539
21
13.7413902
0
LINE
8
0
10
2.60948539
20
13.7413902
11
-2.33176539
21
19.0191965
0
LINE
8
0
10
-2.33176539
20
19.0191965
11
-11.0594797
21
28.3413677
0
LINE
8
0
10
-11.0594797
20
28.3413677
11
-11.2499264
21
28.5896636
0
LINE
8
0
10
-11.2499264
20
28.5896636
11
-11.357749
21
28.730238
0
LINE
8
0
10
-11.357749
20
28.730238
11
-11.4960953
21
29.0109178
0
LINE
8
0
10
-11.4960953
20
29.0109178
11
-11.5744209
21
29.1698265
0
LINE
8
0
10
-11.5744209
20
29.1698265
11
-11.6553522
21
29.4721026
0
LINE
8
0
10
-11.6553522
20
29.4721026
11
-11.7011719
21
29.6432381
0
LINE
8
0
10
-11.7011719
20
29.6432381
11
-11.7215764
21
29.9554944
0
LINE
8
0
10
-11.7215764
20
29.9554944
11
-11.7331285
21
30.1322803
0
LINE
8
0
10
-11.7331285
20
30.1322803
11
-11.6922227
21
30.4425175
0
LINE
8
0
10
-11.6922227
20
30.4425175
11
-11.6690636
21
30.6181602
0
LINE
8
0
10
-11.6690636
20
30.6181602
11
-11.568419
21
30.9144566
0
LINE
8
0
10
-11.568419
20
30.9144566
11
-11.5114384
21
31.0822067
0
LINE
8
0
10
-11.5114384
20
31.0822067
11
-11.3549241
21
31.3531742
0
LINE
8
0
10
-11.3549241
20
31.3531742
11
-11.2663126
21
31.5065842
0
LINE
8
0
10
-11.2663126
20
31.5065842
11
-11.0599419
21
31.7418113
0
LINE
8
0
10
-11.0599419
20
31.7418113
11
-10.9431038
21
31.8749866
0
LINE
8
0
10
-10.9431038
20
31.8749866
11
-10.6948079
21
32.0654333
0
LINE
8
0
10
-10.6948079
20
32.0654333
11
-10.5542336
21
32.1732559
0
LINE
8
0
10
-10.5542336
20
32.1732559
11
-10.2735543
21
32.3116016
0
LINE
8
0
10
-10.2735543
20
32.3116016
11
-10.114646
21
32.3899269
0
LINE
8
0
10
-10.114646
20
32.3899269
11
-9.8123699
21
32.4708581
0
LINE
8
0
10
-9.8123699
20
32.4708581
11
-9.6412344
21
32.5166779
0
LINE
8
0
10
-9.6412344
20
32.5166779
11
-9.32897803
21
32.5370818
0
LINE
8
0
10
-9.32897803
20
32.5370818
11
-9.15219212
21
32.5486336
0
LINE
8
0
10
-9.15219212
20
32.5486336
11
-8.84195495
21
32.5077283
0
LINE
8
0
10
-8.84195495
20
32.5077283
11
-8.66631222
21
32.4845695
0
LINE
8
0
10
-8.66631222
20
32.4845695
11
-8.37001582
21
32.3839262
0
LINE
8
0
10
-8.37001582
20
32.3839262
11
-8.20226574
21
32.3269463
0
LINE
8
0
10
-8.20226574
20
32.3269463
11
-7.93129795
21
32.1704302
0
LINE
8
0
10
-7.93129795
20
32.1704302
11
-7.77788782
21
32.0818176
0
LINE
8
0
10
-7.77788782
20
32.0818176
11
-7.54266068
21
31.8754475
0
LINE
8
0
10
-7.54266068
20
31.8754475
11
-7.40948534
21
31.7586098
0
LINE
8
0
10
-7.40948534
20
31.7586098
11
-2.46823448
21
26.4808035
0
LINE
8
0
10
-2.46823448
20
26.4808035
11
6.25948
21
17.1586323
0
LINE
8
0
10
6.25948
20
17.1586323
11
6.44992637
21
16.9103364
0
LINE
8
0
10
6.44992637
20
16.9103364
11
6.55774879
21
16.769762
0
LINE
8
0
10
6.55774879
20
16.769762
11
6.6960954
21
16.4890822
0
LINE
8
0
10
6.6960954
20
16.4890822
11
6.77442122
21
16.3301735
0
LINE
8
0
10
6.77442122
20
16.3301735
11
6.85535183
21
16.027898
0
LINE
8
0
10
6.85535183
20
16.027898
11
6.90117121
21
15.8567629
0
LINE
8
0
10
6.90117121
20
15.8567629
11
6.92157573
21
15.5445059
0
LINE
8
0
10
6.92157573
20
15.5445059
11
6.93312788
21
15.3677197
0
LINE
8
0
10
6.93312788
20
15.3677197
11
6.89222232
21
15.0574825
0
LINE
8
0
10
6.89222232
20
15.0574825
11
6.86906338
21
14.8818398
0
LINE
8
0
10
6.86906338
20
14.8818398
11
6.76841907
21
14.585544
0
LINE
8
0
10
6.76841907
20
14.585544
11
6.71143866
21
14.4177942
0
LINE
8
0
10
6.71143866
20
14.4177942
11
6.55492381
21
14.1468261
0
LINE
8
0
10
6.55492381
20
14.1468261
11
6.46631193
21
13.9934158
0
LINE
8
0
10
6.46631193
20
13.9934158
11
6.25994152
21
13.7581887
0
LINE
8
0
10
6.25994152
20
13.7581887
11
6.1431036
21
13.6250134
0
LINE
8
0
10
6.1431036
20
13.6250134
11
5.89480767
21
13.4345673
0
LINE
8
0
10
5.89480767
20
13.4345673
11
5.75423336
21
13.326745
0
LINE
8
0
10
5.75423336
20
13.326745
11
5.47355441
21
13.1883981
0
LINE
8
0
10
5.47355441
20
13.1883981
11
5.31464624
21
13.1100721
0
LINE
8
0
10
5.31464624
20
13.1100721
11
5.01237019
21
13.0291415
0
LINE
8
0
10
5.01237019
20
13.0291415
11
4.84123468
21
12.9833221
0
LINE
8
0
10
4.84123468
20
12.9833221
11
4.52897802
21
12.9629176
0
LINE
8
0
10
4.52897802
20
12.9629176
11
4.35219193
21
12.9513655
0
LINE
8
0
10
4.35219193
20
12.9513655
11
4.04195461
21
12.9922713
0
LINE
8
0
10
4.04195461
20
12.9922713
11
3.86631179
21
13.0154305
0
LINE
8
0
10
3.86631179
20
13.0154305
11
3.57001585
21
13.1160745
0
LINE
8
0
10
3.57001585
20
13.1160745
11
3.40226603
21
13.1730547
0
LINE
8
0
10
3.40226603
20
13.1730547
11
3.40226603
21
13.1730547
0
LINE
8
0
10
-5.41180576
20
11.504572
11
-5.56521606
21
11.5931835
0
LINE
8
0
10
-5.56521606
20
11.5931835
11
-5.8004429
21
11.7995542
0
LINE
8
0
10
-5.8004429
20
11.7995542
11
-5.93361807
21
11.9163923
0
LINE
8
0
10
-5.93361807
20
11.9163923
11
-8.4042435
21
14.5552955
0
LINE
8
0
10
-8.4042435
20
14.5552955
11
-12.7681007
21
19.2163811
0
LINE
8
0
10
-12.7681007
20
19.2163811
11
-12.9585468
21
19.464677
0
LINE
8
0
10
-12.9585468
20
19.464677
11
-13.0663691
21
19.6052513
0
LINE
8
0
10
-13.0663691
20
19.6052513
11
-13.204716
21
19.8859312
0
LINE
8
0
10
-13.204716
20
19.8859312
11
-13.283042
21
20.0448399
0
LINE
8
0
10
-13.283042
20
20.0448399
11
-13.3639726
21
20.3471159
0
LINE
8
0
10
-13.3639726
20
20.3471159
11
-13.4097919
21
20.5182514
0
LINE
8
0
10
-13.4097919
20
20.5182514
11
-13.4301965
21
20.8305078
0
LINE
8
0
10
-13.4301965
20
20.8305078
11
-13.4417486
21
21.0072937
0
LINE
8
0
10
-13.4417486
20
21.0072937
11
-13.4008428
21
21.3175309
0
LINE
8
0
10
-13.4008428
20
21.3175309
11
-13.3776836
21
21.4931736
0
LINE
8
0
10
-13.3776836
20
21.4931736
11
-13.2770396
21
21.78947
0
LINE
8
0
10
-13.2770396
20
21.78947
11
-13.2200594
21
21.9572201
0
LINE
8
0
10
-13.2200594
20
21.9572201
11
-13.0635445
21
22.2281876
0
LINE
8
0
10
-13.0635445
20
22.2281876
11
-12.9749327
21
22.3815975
0
LINE
8
0
10
-12.9749327
20
22.3815975
11
-12.768562
21
22.6168247
0
LINE
8
0
10
-12.768562
20
22.6168247
11
-12.6517239
21
22.75
0
LINE
8
0
10
-12.6517239
20
22.75
11
-12.4034285
21
22.9404467
0
LINE
8
0
10
-12.4034285
20
22.9404467
11
-12.2628546
21
23.0482693
0
LINE
8
0
10
-12.2628546
20
23.0482693
11
-11.9821753
21
23.186615
0
LINE
8
0
10
-11.9821753
20
23.186615
11
-11.823267
21
23.2649403
0
LINE
8
0
10
-11.823267
20
23.2649403
11
-11.5209909
21
23.3458715
0
LINE
8
0
10
-11.5209909
20
23.3458715
11
-11.3498554
21
23.3916912
0
LINE
8
0
10
-11.3498554
20
23.3916912
11
-11.0375991
21
23.4120963
0
LINE
8
0
10
-11.0375991
20
23.4120963
11
-10.8608131
21
23.4236488
0
LINE
8
0
10
-10.8608131
20
23.4236488
11
-10.5505754
21
23.3827424
0
LINE
8
0
10
-10.5505754
20
23.3827424
11
-10.3749323
21
23.3595829
0
LINE
8
0
10
-10.3749323
20
23.3595829
11
-10.0786365
21
23.2589383
0
LINE
8
0
10
-10.0786365
20
23.2589383
11
-9.91088676
21
23.2019577
0
LINE
8
0
10
-9.91088676
20
23.2019577
11
-9.63991867
21
23.0454441
0
LINE
8
0
10
-9.63991867
20
23.0454441
11
-9.48650837
21
22.9568329
0
LINE
8
0
10
-9.48650837
20
22.9568329
11
-9.25128123
21
22.7504616
0
LINE
8
0
10
-9.25128123
20
22.7504616
11
-9.11810589
21
22.6336231
0
LINE
8
0
10
-9.11810589
20
22.6336231
11
-6.64748054
21
19.99472
0
LINE
8
0
10
-6.64748054
20
19.99472
11
-2.28362346
21
15.3336344
0
LINE
8
0
10
-2.28362346
20
15.3336344
11
-2.09317716
21
15.0853384
0
LINE
8
0
10
-2.09317716
20
15.0853384
11
-1.98535478
21
14.9447641
0
LINE
8
0
10
-1.98535478
20
14.9447641
11
-1.84700802
21
14.6640849
0
LINE
8
0
10
-1.84700802
20
14.6640849
11
-1.76868212
21
14.5051765
0
LINE
8
0
10
-1.76868212
20
14.5051765
11
-1.68775143
21
14.2029005
0
LINE
8
0
10
-1.68775143
20
14.2029005
11
-1.64193201
21
14.031765
0
LINE
8
0
10
-1.64193201
20
14.031765
11
-1.62152756
21
13.7195086
0
LINE
8
0
10
-1.62152756
20
13.7195086
11
-1.60997546
21
13.5427227
0
LINE
8
0
10
-1.60997546
20
13.5427227
11
-1.65088125
21
13.2324849
0
LINE
8
0
10
-1.65088125
20
13.2324849
11
-1.67404032
21
13.0568419
0
LINE
8
0
10
-1.67404032
20
13.0568419
11
-1.77468447
21
12.7605461
0
LINE
8
0
10
-1.77468447
20
12.7605461
11
-1.8316648
21
12.5927963
0
LINE
8
0
10
-1.8316648
20
12.5927963
11
-1.9881795
21
12.3218282
0
LINE
8
0
10
-1.9881795
20
12.3218282
11
-2.07679129
21
12.1684179
0
LINE
8
0
10
-2.07679129
20
12.1684179
11
-2.28316201
21
11.9331914
0
LINE
8
0
10
-2.28316201
20
11.9331914
11
-2.4000001
21
11.8000164
0
LINE
8
0
10
-2.4000001
20
11.8000164
11
-2.64829587
21
11.6095697
0
LINE
8
0
10
-2.64829587
20
11.6095697
11
-2.7888701
21
11.5017471
0
LINE
8
0
10
-2.7888701
20
11.5017471
11
-3.06954905
21
11.3634008
0
LINE
8
0
10
-3.06954905
20
11.3634008
11
-3.22845721
21
11.2850752
0
LINE
8
0
10
-3.22845721
20
11.2850752
11
-3.53073327
21
11.204144
0
LINE
8
0
10
-3.53073327
20
11.204144
11
-3.70186877
21
11.1583242
0
LINE
8
0
10
-3.70186877
20
11.1583242
11
-4.01412529
21
11.1379197
0
LINE
8
0
10
-4.01412529
20
11.1379197
11
-4.19091129
21
11.1263676
0
LINE
8
0
10
-4.19091129
20
11.1263676
11
-4.50114876
21
11.1672734
0
LINE
8
0
10
-4.50114876
20
11.1672734
11
-4.67679167
21
11.1904325
0
LINE
8
0
10
-4.67679167
20
11.1904325
11
-4.97308776
21
11.2910772
0
LINE
8
0
10
-4.97308776
20
11.2910772
11
-5.14083767
21
11.3480577
0
LINE
8
0
10
-5.14083767
20
11.3480577
11
-5.41180576
21
11.504572
0
LINE
8
0
10
-5.41180576
20
11.504572
11
-5.41180576
21
11.504572
0
LINE
8
0
10
-2.14011359
20
29.8347607
11
-2.03229126
21
29.6941864
0
LINE
8
0
10
-2.03229126
20
29.6941864
11
-1.84184504
21
29.4458904
0
LINE
8
0
10
-1.84184504
20
29.4458904
11
2.5220122
21
24.7848042
0
LINE
8
0
10
2.5220122
20
24.7848042
11
4.99263763
21
22.1459007
0
LINE
8
0
10
4.99263763
20
22.1459007
11
5.12581297
21
22.029063
0
LINE
8
0
10
5.12581297
20
22.029063
11
5.36104012
21
21.8226929
0
LINE
8
0
10
5.36104012
20
21.8226929
11
5.51445042
21
21.734081
0
LINE
8
0
10
5.51445042
20
21.734081
11
5.78541851
21
21.5775661
0
LINE
8
0
10
5.78541851
20
21.5775661
11
5.95316825
21
21.5205863
0
LINE
8
0
10
5.95316825
20
21.5205863
11
6.24946404
21
21.4199429
0
LINE
8
0
10
6.24946404
20
21.4199429
11
6.42510694
21
21.3967834
0
LINE
8
0
10
6.42510694
20
21.3967834
11
6.73534441
21
21.3558769
0
LINE
8
0
10
6.73534441
20
21.3558769
11
6.9121305
21
21.3674294
0
LINE
8
0
10
6.9121305
20
21.3674294
11
7.22438717
21
21.3878345
0
LINE
8
0
10
7.22438717
20
21.3878345
11
7.39552267
21
21.4336536
0
LINE
8
0
10
7.39552267
20
21.4336536
11
7.69779873
21
21.5145836
0
LINE
8
0
10
7.69779873
20
21.5145836
11
7.85670707
21
21.5929096
0
LINE
8
0
10
7.85670707
20
21.5929096
11
8.13738632
21
21.7312565
0
LINE
8
0
10
8.13738632
20
21.7312565
11
8.27796029
21
21.8390791
0
LINE
8
0
10
8.27796029
20
21.8390791
11
8.52625561
21
22.0295258
0
LINE
8
0
10
8.52625561
20
22.0295258
11
8.6430937
21
22.1627004
0
LINE
8
0
10
8.6430937
20
22.1627004
11
8.84946442
21
22.3979263
0
LINE
8
0
10
8.84946442
20
22.3979263
11
8.93807629
21
22.551337
0
LINE
8
0
10
8.93807629
20
22.551337
11
9.09459114
21
22.8223057
0
LINE
8
0
10
9.09459114
20
22.8223057
11
9.15157138
21
22.9900558
0
LINE
8
0
10
9.15157138
20
22.9900558
11
9.25221539
21
23.2863522
0
LINE
8
0
10
9.25221539
20
23.2863522
11
9.2753745
21
23.4619949
0
LINE
8
0
10
9.2753745
20
23.4619949
11
9.31628036
21
23.7722321
0
LINE
8
0
10
9.31628036
20
23.7722321
11
9.30472822
21
23.949018
0
LINE
8
0
10
9.30472822
20
23.949018
11
9.28432369
21
24.2612743
0
LINE
8
0
10
9.28432369
20
24.2612743
11
9.23850431
21
24.4324098
0
LINE
8
0
10
9.23850431
20
24.4324098
11
9.1575737
21
24.7346859
0
LINE
8
0
10
9.1575737
20
24.7346859
11
9.07924772
21
24.8935939
0
LINE
8
0
10
9.07924772
20
24.8935939
11
8.9409008
21
25.1742725
0
LINE
8
0
10
8.9409008
20
25.1742725
11
8.83307855
21
25.3148468
0
LINE
8
0
10
8.83307855
20
25.3148468
11
8.64263248
21
25.5631428
0
LINE
8
0
10
8.64263248
20
25.5631428
11
4.27877517
21
30.224229
0
LINE
8
0
10
4.27877517
20
30.224229
11
1.8081497
21
32.8631325
0
LINE
8
0
10
1.8081497
20
32.8631325
11
1.67497444
21
32.9799702
0
LINE
8
0
10
1.67497444
20
32.9799702
11
1.43974745
21
33.1863403
0
LINE
8
0
10
1.43974745
20
33.1863403
11
1.28633719
21
33.2749529
0
LINE
8
0
10
1.28633719
20
33.2749529
11
1.01536918
21
33.431469
0
LINE
8
0
10
1.01536918
20
33.431469
11
0.847619332
21
33.4884489
0
LINE
8
0
10
0.847619332
20
33.4884489
11
0.551323354
21
33.5890923
0
LINE
8
0
10
0.551323354
20
33.5890923
11
0.375680471
21
33.612251
0
LINE
8
0
10
0.375680471
20
33.612251
11
0.0654430464
21
33.6531563
0
LINE
8
0
10
0.0654430464
20
33.6531563
11
-0.111343026
21
33.6416045
0
LINE
8
0
10
-0.111343026
20
33.6416045
11
-0.42359966
21
33.6212006
0
LINE
8
0
10
-0.42359966
20
33.6212006
11
-0.594735122
21
33.5753808
0
LINE
8
0
10
-0.594735122
20
33.5753808
11
-0.897011101
21
33.4944496
0
LINE
8
0
10
-0.897011101
20
33.4944496
11
-1.05591933
21
33.4161243
0
LINE
8
0
10
-1.05591933
20
33.4161243
11
-1.3365984
21
33.2777786
0
LINE
8
0
10
-1.3365984
20
33.2777786
11
-1.47717262
21
33.1699553
0
LINE
8
0
10
-1.47717262
20
33.1699553
11
-1.7254684
21
32.9795074
0
LINE
8
0
10
-1.7254684
20
32.9795074
11
-1.8423064
21
32.8463328
0
LINE
8
0
10
-1.8423064
20
32.8463328
11
-2.04867697
21
32.6111069
0
LINE
8
0
10
-2.04867697
20
32.6111069
11
-2.13728884
21
32.4576969
0
LINE
8
0
10
-2.13728884
20
32.4576969
11
-2.29380369
21
32.1867294
0
LINE
8
0
10
-2.29380369
20
32.1867294
11
-2.35078393
21
32.0189793
0
LINE
8
0
10
-2.35078393
20
32.0189793
11
-2.45142794
21
31.722683
0
LINE
8
0
10
-2.45142794
20
31.722683
11
-2.47458705
21
31.5470402
0
LINE
8
0
10
-2.47458705
20
31.5470402
11
-2.51549292
21
31.2368031
0
LINE
8
0
10
-2.51549292
20
31.2368031
11
-2.50394077
21
31.0600164
0
LINE
8
0
10
-2.50394077
20
31.0600164
11
-2.48353624
21
30.7477589
0
LINE
8
0
10
-2.48353624
20
30.7477589
11
-2.43771686
21
30.5766241
0
LINE
8
0
10
-2.43771686
20
30.5766241
11
-2.35678625
21
30.2743492
0
LINE
8
0
10
-2.35678625
20
30.2743492
11
-2.27846035
21
30.1154405
0
LINE
8
0
10
-2.27846035
20
30.1154405
11
-2.14011359
21
29.8347607
0
LINE
8
0
10
-2.14011359
20
29.8347607
11
-2.14011359
21
29.8347607
0
LINE
8
0
10
-15.9792809
20
46.5
11
-14.726547
21
46.5
0
LINE
8
0
10
-14.726547
20
46.5
11
-14.6770169
21
46.5
0
LINE
8
0
10
-14.6770169
20
46.5
11
-14.606594
21
46.5
0
LINE
8
0
10
-14.606594
20
46.5
11
-14.5184245
21
46.5
0
LINE
8
0
10
-14.5184245
20
46.5
11
-14.418388
21
46.5
0
LINE
8
0
10
-14.418388
20
46.5
11
-14.314894
21
46.5
0
LINE
8
0
10
-14.314894
20
46.5
11
-14.2178448
21
46.5
0
LINE
8
0
10
-14.2178448
20
46.5
11
-14.1368989
21
46.5
0
LINE
8
0
10
-14.1368989
20
46.5
11
-14.0795959
21
46.5
0
LINE
8
0
10
-14.0795959
20
46.5
11
-14.0500625
21
46.5
0
LINE
8
0
10
-14.0500625
20
46.5
11
8.56765486
21
46.5
0
LINE
8
0
10
8.56765486
20
46.5
11
12.660578
21
46.5
0
LINE
8
0
10
12.660578
20
46.5
11
12.7015443
21
46.5
0
LINE
8
0
10
12.7015443
20
46.5
11
12.7663378
21
46.5
0
LINE
8
0
10
12.7663378
20
46.5
11
12.849895
21
46.5
0
LINE
8
0
10
12.849895
20
46.5
11
12.9443329
21
46.5
0
LINE
8
0
10
12.9443329
20
46.5
11
13.0403365
21
46.5
0
LINE
8
0
10
13.0403365
20
46.5
11
13.12894
21
46.5
0
LINE
8
0
10
13.12894
20
46.5
11
13.2030285
21
46.5
0
LINE
8
0
10
13.2030285
20
46.5
11
13.2581014
21
46.5
0
LINE
8
0
10
13.2581014
20
46.5
11
13.75
21
46.5
0
LINE
8
0
10
13.75
20
46.5
11
13.75
21
45.2424019
0
LINE
8
0
10
13.75
20
45.2424019
11
13.75
21
44.4491874
0
LINE
8
0
10
13.75
20
44.4491874
11
13.75
21
33.5641053
0
LINE
8
0
10
13.75
20
33.5641053
11
13.75
21
0.982363519
0
LINE
8
0
10
13.75
20
0.982363519
11
13.75
21
0.182750022
0
LINE
8
0
10
13.75
20
0.182750022
11
13.75
21
-1.10000002
0
LINE
8
0
10
13.75
20
-1.10000002
11
13.2581014
21
-1.10000002
0
LINE
8
0
10
13.2581014
20
-1.10000002
11
13.2030285
21
-1.10000002
0
LINE
8
0
10
13.2030285
20
-1.10000002
11
13.12894
21
-1.10000002
0
LINE
8
0
10
13.12894
20
-1.10000002
11
13.0403365
21
-1.10000002
0
LINE
8
0
10
13.0403365
20
-1.10000002
11
12.9443329
21
-1.10000002
0
LINE
8
0
10
12.9443329
20
-1.10000002
11
12.849895
21
-1.10000002
0
LINE
8
0
10
12.849895
20
-1.10000002
11
12.7663378
21
-1.10000002
0
LINE
8
0
10
12.7663378
20
-1.10000002
11
12.7015443
21
-1.10000002
0
LINE
8
0
10
12.7015443
20
-1.10000002
11
12.660578
21
-1.10000002
0
LINE
8
0
10
12.660578
20
-1.10000002
11
8.56765486
21
-1.10000002
0
LINE
8
0
10
8.56765486
20
-1.10000002
11
-14.0500625
21
-1.10000002
0
LINE
8
0
10
-14.0500625
20
-1.10000002
11
-14.0795959
21
-1.10000002
0
LINE
8
0
10
-14.0795959
20
-1.10000002
11
-14.1368989
21
-1.10000002
0
LINE
8
0
10
-14.1368989
20
-1.10000002
11
-14.2178448
21
-1.10000002
0
LINE
8
0
10
-14.2178448
20
-1.10000002
11
-14.314894
21
-1.10000002
0
LINE
8
0
10
-14.314894
20
-1.10000002
11
-14.418388
21
-1.10000002
0
LINE
8
0
10
-14.418388
20
-1.10000002
11
-14.5184245
21
-1.10000002
0
LINE
8
0
10
-14.5184245
20
-1.10000002
11
-14.606594
21
-1.10000002
0
LINE
8
0
10
-14.606594
20
-1.10000002
11
-14.6770169
21
-1.10000002
0
LINE
8
0
10
-14.6770169
20
-1.10000002
11
-14.726547
21
-1.10000002
0
LINE
8
0
10
-14.726547
20
-1.10000002
11
-15.9792809
21
-1.10000002
0
LINE
8
0
10
-15.9792809
20
-1.10000002
11
-17.7561908
21
-1.10000002
0
LINE
8
0
10
-17.7561908
20
-1.10000002
11
-18.5499992
21
-1.10000002
0
LINE
8
0
10
-18.5499992
20
-1.10000002
11
-18.5499992
21
-0.539130927
0
LINE
8
0
10
-18.5499992
20
-0.539130927
11
-18.5499992
21
-0.477349334
0
LINE
8
0
10
-18.5499992
20
-0.477349334
11
-18.5499992
21
0.509504236
0
LINE
8
0
10
-18.5499992
20
0.509504236
11
-18.5499992
21
0.614836829
0
LINE
8
0
10
-18.5499992
20
0.614836829
11
-18.5499992
21
0.785098384
0
LINE
8
0
10
-18.5499992
20
0.785098384
11
-18.5499992
21
1.01395469
0
LINE
8
0
10
-18.5499992
20
1.01395469
11
-18.5499992
21
2.74045008
0
LINE
8
0
10
-18.5499992
20
2.74045008
11
-18.5499992
21
2.89936122
0
LINE
8
0
10
-18.5499992
20
2.89936122
11
-18.5499992
21
3.10306342
0
LINE
8
0
10
-18.5499992
20
3.10306342
11
-18.5499992
21
3.94071265
0
LINE
8
0
10
-18.5499992
20
3.94071265
11
-18.5499992
21
4.13617926
0
LINE
8
0
10
-18.5499992
20
4.13617926
11
-18.5499992
21
5.77379621
0
LINE
8
0
10
-18.5499992
20
5.77379621
11
-18.5499992
21
9.56607359
0
LINE
8
0
10
-18.5499992
20
9.56607359
11
-18.5499992
21
13.4477902
0
LINE
8
0
10
-18.5499992
20
13.4477902
11
-18.5499992
21
30.3144284
0
LINE
8
0
10
-18.5499992
20
30.3144284
11
-18.5499992
21
33.636656
0
LINE
8
0
10
-18.5499992
20
33.636656
11
-18.5499992
21
34.8056243
0
LINE
8
0
10
-18.5499992
20
34.8056243
11
-18.5499992
21
40.2495111
0
LINE
8
0
10
-18.5499992
20
40.2495111
11
-18.5499992
21
40.8883536
0
LINE
8
0
10
-18.5499992
20
40.8883536
11
-18.5499992
21
41.081394
0
LINE
8
0
10
-18.5499992
20
41.081394
11
-18.5499992
21
41.2975905
0
LINE
8
0
10
-18.5499992
20
41.2975905
11
-18.5499992
21
41.5192404
0
LINE
8
0
10
-18.5499992
20
41.5192404
11
-18.5499992
21
41.7265736
0
LINE
8
0
10
-18.5499992
20
41.7265736
11
-18.5499992
21
42.582759
0
LINE
8
0
10
-18.5499992
20
42.582759
11
-18.5499992
21
42.7999785
0
LINE
8
0
10
-18.5499992
20
42.7999785
11
-18.5499992
21
42.9764422
0
LINE
8
0
10
-18.5499992
20
42.9764422
11
-18.5499992
21
44.6944188
0
LINE
8
0
10
-18.5499992
20
44.6944188
11
-18.5499992
21
44.9404978
0
LINE
8
0
10
-18.5499992
20
44.9404978
11
-18.5499992
21
45.1318588
0
LINE
8
0
10
-18.5499992
20
45.1318588
11
-18.5499992
21
45.2600899
0
LINE
8
0
10
-18.5499992
20
45.2600899
11
-18.5499992
21
45.3220773
0
LINE
8
0
10
-18.5499992
20
45.3220773
11
-18.5499992
21
45.994303
0
LINE
8
0
10
-18.5499992
20
45.994303
11
-18.5499992
21
46.5
0
LINE
8
0
10
-18.5499992
20
46.5
11
-15.9792809
21
46.5
0
LINE
8
0
10
-15.9792809
20
46.5
11
-15.9792809
21
46.5
0
ENDSEC
0
EOF
