0
SECTION
2
ENTITIES
0
LINE
8
0
10
3.40226603
20
13.1730547
11
3.54841244
21
13.1234126
0
LINE
8
0
10
3.54841244
20
13.1234126
11
3.86631179
21
13.0154305
0
LINE
8
0
10
3.86631179
20
13.0154305
11
4.01933471
21
12.9952538
0
LINE
8
0
10
4.01933471
20
12.9952538
11
4.35219193
21
12.9513655
0
LINE
8
0
10
4.35219193
20
12.9513655
11
4.50621089
21
12.9614299
0
LINE
8
0
10
4.50621089
20
12.9614299
11
4.84123468
21
12.9833221
0
LINE
8
0
10
4.84123468
20
12.9833221
11
4.99033076
21
13.0232407
0
LINE
8
0
10
4.99033076
20
13.0232407
11
5.31464624
21
13.1100721
0
LINE
8
0
10
5.31464624
20
13.1100721
11
5.45308966
21
13.178311
0
LINE
8
0
10
5.45308966
20
13.178311
11
5.75423336
21
13.326745
0
LINE
8
0
10
5.75423336
20
13.326745
11
5.87670402
21
13.4206816
0
LINE
8
0
10
5.87670402
20
13.4206816
11
6.1431036
21
13.6250134
0
LINE
8
0
10
6.1431036
20
13.6250134
11
6.24489472
21
13.7410379
0
LINE
8
0
10
6.24489472
20
13.7410379
11
6.46631193
21
13.9934158
0
LINE
8
0
10
6.46631193
20
13.9934158
11
6.54351206
21
14.1270694
0
LINE
8
0
10
6.54351206
20
14.1270694
11
6.71143866
21
14.4177942
0
LINE
8
0
10
6.71143866
20
14.4177942
11
6.76108093
21
14.5639406
0
LINE
8
0
10
6.76108093
20
14.5639406
11
6.86906338
21
14.8818398
0
LINE
8
0
10
6.86906338
20
14.8818398
11
6.88923983
21
15.0348626
0
LINE
8
0
10
6.88923983
20
15.0348626
11
6.93312788
21
15.3677197
0
LINE
8
0
10
6.93312788
20
15.3677197
11
6.92306346
21
15.5217388
0
LINE
8
0
10
6.92306346
20
15.5217388
11
6.90117121
21
15.8567629
0
LINE
8
0
10
6.90117121
20
15.8567629
11
6.86125261
21
16.0058587
0
LINE
8
0
10
6.86125261
20
16.0058587
11
6.77442122
21
16.3301735
0
LINE
8
0
10
6.77442122
20
16.3301735
11
6.70618248
21
16.4686174
0
LINE
8
0
10
6.70618248
20
16.4686174
11
6.55774879
21
16.769762
0
LINE
8
0
10
6.55774879
20
16.769762
11
6.46381212
21
16.8922327
0
LINE
8
0
10
6.46381212
20
16.8922327
11
6.25948
21
17.1586323
0
LINE
8
0
10
6.25948
20
17.1586323
11
-3.10458603
21
27.1604978
0
LINE
8
0
10
-3.10458603
20
27.1604978
11
-7.40948534
21
31.7586098
0
LINE
8
0
10
-7.40948534
20
31.7586098
11
-7.52550989
21
31.8604007
0
LINE
8
0
10
-7.52550989
20
31.8604007
11
-7.77788782
21
32.0818176
0
LINE
8
0
10
-7.77788782
20
32.0818176
11
-7.91154126
21
32.1590184
0
LINE
8
0
10
-7.91154126
20
32.1590184
11
-8.20226574
21
32.3269463
0
LINE
8
0
10
-8.20226574
20
32.3269463
11
-8.34841238
21
32.3765881
0
LINE
8
0
10
-8.34841238
20
32.3765881
11
-8.66631222
21
32.4845695
0
LINE
8
0
10
-8.66631222
20
32.4845695
11
-8.81933507
21
32.5047459
0
LINE
8
0
10
-8.81933507
20
32.5047459
11
-9.15219212
21
32.5486336
0
LINE
8
0
10
-9.15219212
20
32.5486336
11
-9.30621093
21
32.5385695
0
LINE
8
0
10
-9.30621093
20
32.5385695
11
-9.6412344
21
32.5166779
0
LINE
8
0
10
-9.6412344
20
32.5166779
11
-9.79033047
21
32.476759
0
LINE
8
0
10
-9.79033047
20
32.476759
11
-10.114646
21
32.3899269
0
LINE
8
0
10
-10.114646
20
32.3899269
11
-10.2530895
21
32.3216886
0
LINE
8
0
10
-10.2530895
20
32.3216886
11
-10.5542336
21
32.1732559
0
LINE
8
0
10
-10.5542336
20
32.1732559
11
-10.6767042
21
32.0793191
0
LINE
8
0
10
-10.6767042
20
32.0793191
11
-10.9431038
21
31.8749866
0
LINE
8
0
10
-10.9431038
20
31.8749866
11
-11.0448951
21
31.7589621
0
LINE
8
0
10
-11.0448951
20
31.7589621
11
-11.2663126
21
31.5065842
0
LINE
8
0
10
-11.2663126
20
31.5065842
11
-11.3435124
21
31.3729309
0
LINE
8
0
10
-11.3435124
20
31.3729309
11
-11.5114384
21
31.0822067
0
LINE
8
0
10
-11.5114384
20
31.0822067
11
-11.5610808
21
30.9360601
0
LINE
8
0
10
-11.5610808
20
30.9360601
11
-11.6690636
21
30.6181602
0
LINE
8
0
10
-11.6690636
20
30.6181602
11
-11.6892402
21
30.4651374
0
LINE
8
0
10
-11.6892402
20
30.4651374
11
-11.7331285
21
30.1322803
0
LINE
8
0
10
-11.7331285
20
30.1322803
11
-11.7230641
21
29.9782615
0
LINE
8
0
10
-11.7230641
20
29.9782615
11
-11.7011719
21
29.6432381
0
LINE
8
0
10
-11.7011719
20
29.6432381
11
-11.661253
21
29.494142
0
LINE
8
0
10
-11.661253
20
29.494142
11
-11.5744209
21
29.1698265
0
LINE
8
0
10
-11.5744209
20
29.1698265
11
-11.5061823
21
29.0313826
0
LINE
8
0
10
-11.5061823
20
29.0313826
11
-11.357749
21
28.730238
0
LINE
8
0
10
-11.357749
20
28.730238
11
-11.2638122
21
28.6077673
0
LINE
8
0
10
-11.2638122
20
28.6077673
11
-11.0594797
21
28.3413677
0
LINE
8
0
10
-11.0594797
20
28.3413677
11
-1.69541385
21
18.3395022
0
LINE
8
0
10
-1.69541385
20
18.3395022
11
2.60948539
21
13.7413902
0
LINE
8
0
10
2.60948539
20
13.7413902
11
2.72550987
21
13.639599
0
LINE
8
0
10
2.72550987
20
13.639599
11
2.97788763
21
13.4181814
0
LINE
8
0
10
2.97788763
20
13.4181814
11
3.11154122
21
13.3409813
0
LINE
8
0
10
3.11154122
20
13.3409813
11
3.40226603
21
13.1730547
0
LINE
8
0
10
3.40226603
20
13.1730547
11
3.40226603
21
13.1730547
0
LINE
8
0
10
5.93156485
20
21.5279243
11
6.24946404
21
21.4199429
0
LINE
8
0
10
6.24946404
20
21.4199429
11
6.40248704
21
21.399766
0
LINE
8
0
10
6.40248704
20
21.399766
11
6.73534441
21
21.3558769
0
LINE
8
0
10
6.73534441
20
21.3558769
11
6.88936337
21
21.3659416
0
LINE
8
0
10
6.88936337
20
21.3659416
11
7.22438717
21
21.3878345
0
LINE
8
0
10
7.22438717
20
21.3878345
11
7.37348325
21
21.4277528
0
LINE
8
0
10
7.37348325
20
21.4277528
11
7.69779873
21
21.5145836
0
LINE
8
0
10
7.69779873
20
21.5145836
11
7.8362423
21
21.5828225
0
LINE
8
0
10
7.8362423
20
21.5828225
11
8.13738632
21
21.7312565
0
LINE
8
0
10
8.13738632
20
21.7312565
11
8.25985668
21
21.8251933
0
LINE
8
0
10
8.25985668
20
21.8251933
11
8.52625561
21
22.0295258
0
LINE
8
0
10
8.52625561
20
22.0295258
11
8.62804688
21
22.1455497
0
LINE
8
0
10
8.62804688
20
22.1455497
11
8.84946442
21
22.3979263
0
LINE
8
0
10
8.84946442
20
22.3979263
11
8.92666454
21
22.5315802
0
LINE
8
0
10
8.92666454
20
22.5315802
11
9.09459114
21
22.8223057
0
LINE
8
0
10
9.09459114
20
22.8223057
11
9.14423327
21
22.9684523
0
LINE
8
0
10
9.14423327
20
22.9684523
11
9.25221539
21
23.2863522
0
LINE
8
0
10
9.25221539
20
23.2863522
11
9.27239199
21
23.439375
0
LINE
8
0
10
9.27239199
20
23.439375
11
9.31628036
21
23.7722321
0
LINE
8
0
10
9.31628036
20
23.7722321
11
9.30621594
21
23.9262509
0
LINE
8
0
10
9.30621594
20
23.9262509
11
9.28432369
21
24.2612743
0
LINE
8
0
10
9.28432369
20
24.2612743
11
9.24440509
21
24.4103704
0
LINE
8
0
10
9.24440509
20
24.4103704
11
9.1575737
21
24.7346859
0
LINE
8
0
10
9.1575737
20
24.7346859
11
9.08933481
21
24.8731292
0
LINE
8
0
10
9.08933481
20
24.8731292
11
8.9409008
21
25.1742725
0
LINE
8
0
10
8.9409008
20
25.1742725
11
8.84696428
21
25.2967432
0
LINE
8
0
10
8.84696428
20
25.2967432
11
8.64263248
21
25.5631428
0
LINE
8
0
10
8.64263248
20
25.5631428
11
3.96059939
21
30.5640762
0
LINE
8
0
10
3.96059939
20
30.5640762
11
1.8081497
21
32.8631325
0
LINE
8
0
10
1.8081497
20
32.8631325
11
1.69212522
21
32.9649234
0
LINE
8
0
10
1.69212522
20
32.9649234
11
1.43974745
21
33.1863403
0
LINE
8
0
10
1.43974745
20
33.1863403
11
1.3060939
21
33.2635411
0
LINE
8
0
10
1.3060939
20
33.2635411
11
1.01536918
21
33.431469
0
LINE
8
0
10
1.01536918
20
33.431469
11
0.869222743
21
33.4811108
0
LINE
8
0
10
0.869222743
20
33.4811108
11
0.551323354
21
33.5890923
0
LINE
8
0
10
0.551323354
20
33.5890923
11
0.398300375
21
33.6092686
0
LINE
8
0
10
0.398300375
20
33.6092686
11
0.0654430464
21
33.6531563
0
LINE
8
0
10
0.0654430464
20
33.6531563
11
-0.088575898
21
33.6430922
0
LINE
8
0
10
-0.088575898
20
33.6430922
11
-0.42359966
21
33.6212006
0
LINE
8
0
10
-0.42359966
20
33.6212006
11
-0.572695699
21
33.5812817
0
LINE
8
0
10
-0.572695699
20
33.5812817
11
-0.897011101
21
33.4944496
0
LINE
8
0
10
-0.897011101
20
33.4944496
11
-1.03545458
21
33.4262113
0
LINE
8
0
10
-1.03545458
20
33.4262113
11
-1.3365984
21
33.2777786
0
LINE
8
0
10
-1.3365984
20
33.2777786
11
-1.45906898
21
33.1838412
0
LINE
8
0
10
-1.45906898
20
33.1838412
11
-1.7254684
21
32.9795074
0
LINE
8
0
10
-1.7254684
20
32.9795074
11
-1.82725959
21
32.8634835
0
LINE
8
0
10
-1.82725959
20
32.8634835
11
-2.04867697
21
32.6111069
0
LINE
8
0
10
-2.04867697
20
32.6111069
11
-2.1258771
21
32.4774536
0
LINE
8
0
10
-2.1258771
20
32.4774536
11
-2.29380369
21
32.1867294
0
LINE
8
0
10
-2.29380369
20
32.1867294
11
-2.34344582
21
32.0405828
0
LINE
8
0
10
-2.34344582
20
32.0405828
11
-2.45142794
21
31.722683
0
LINE
8
0
10
-2.45142794
20
31.722683
11
-2.47160454
21
31.5696601
0
LINE
8
0
10
-2.47160454
20
31.5696601
11
-2.51549292
21
31.2368031
0
LINE
8
0
10
-2.51549292
20
31.2368031
11
-2.50542849
21
31.0827836
0
LINE
8
0
10
-2.50542849
20
31.0827836
11
-2.48353624
21
30.7477589
0
LINE
8
0
10
-2.48353624
20
30.7477589
11
-2.44361764
21
30.5986634
0
LINE
8
0
10
-2.44361764
20
30.5986634
11
-2.35678625
21
30.2743492
0
LINE
8
0
10
-2.35678625
20
30.2743492
11
-2.28854744
21
30.1359053
0
LINE
8
0
10
-2.28854744
20
30.1359053
11
-2.14011359
21
29.8347607
0
LINE
8
0
10
-2.14011359
20
29.8347607
11
-2.04617699
21
29.71229
0
LINE
8
0
10
-2.04617699
20
29.71229
11
-1.84184504
21
29.4458904
0
LINE
8
0
10
-1.84184504
20
29.4458904
11
2.84018798
21
24.444957
0
LINE
8
0
10
2.84018798
20
24.444957
11
4.99263763
21
22.1459007
0
LINE
8
0
10
4.99263763
20
22.1459007
11
5.10866219
21
22.0441098
0
LINE
8
0
10
5.10866219
20
22.0441098
11
5.36104012
21
21.8226929
0
LINE
8
0
10
5.36104012
20
21.8226929
11
5.4946937
21
21.7454927
0
LINE
8
0
10
5.4946937
20
21.7454927
11
5.78541851
21
21.5775661
0
LINE
8
0
10
5.78541851
20
21.5775661
11
5.93156485
21
21.5279243
0
LINE
8
0
10
5.93156485
20
21.5279243
11
5.93156485
21
21.5279243
0
LINE
8
0
10
-14.8325941
20
46.5
11
-15.9239966
21
46.5
0
LINE
8
0
10
-15.9239966
20
46.5
11
-18.5499992
21
46.5
0
LINE
8
0
10
-18.5499992
20
46.5
11
-18.5499992
21
45.9834278
0
LINE
8
0
10
-18.5499992
20
45.9834278
11
-18.5499992
21
45.2967457
0
LINE
8
0
10
-18.5499992
20
45.2967457
11
-18.5499992
21
45.2334252
0
LINE
8
0
10
-18.5499992
20
45.2334252
11
-18.5499992
21
45.1024364
0
LINE
8
0
10
-18.5499992
20
45.1024364
11
-18.5499992
21
44.9069601
0
LINE
8
0
10
-18.5499992
20
44.9069601
11
-18.5499992
21
44.6555891
0
LINE
8
0
10
-18.5499992
20
44.6555891
11
-18.5499992
21
43.0403374
0
LINE
8
0
10
-18.5499992
20
43.0403374
11
-18.5499992
21
42.856237
0
LINE
8
0
10
-18.5499992
20
42.856237
11
-18.5499992
21
42.629617
0
LINE
8
0
10
-18.5499992
20
42.629617
11
-18.5499992
21
41.8290657
0
LINE
8
0
10
-18.5499992
20
41.8290657
11
-18.5499992
21
41.6094249
0
LINE
8
0
10
-18.5499992
20
41.6094249
11
-18.5499992
21
41.3746175
0
LINE
8
0
10
-18.5499992
20
41.3746175
11
-18.5499992
21
41.1455873
0
LINE
8
0
10
-18.5499992
20
41.1455873
11
-18.5499992
21
40.9410877
0
LINE
8
0
10
-18.5499992
20
40.9410877
11
-18.5499992
21
40.2643225
0
LINE
8
0
10
-18.5499992
20
40.2643225
11
-18.5499992
21
34.497278
0
LINE
8
0
10
-18.5499992
20
34.497278
11
-18.5499992
21
33.2589178
0
LINE
8
0
10
-18.5499992
20
33.2589178
11
-18.5499992
21
29.7394776
0
LINE
8
0
10
-18.5499992
20
29.7394776
11
-18.5499992
21
13.9195836
0
LINE
8
0
10
-18.5499992
20
13.9195836
11
-18.5499992
21
9.80744215
0
LINE
8
0
10
-18.5499992
20
9.80744215
11
-18.5499992
21
5.79004919
0
LINE
8
0
10
-18.5499992
20
5.79004919
11
-18.5499992
21
4.0552207
0
LINE
8
0
10
-18.5499992
20
4.0552207
11
-18.5499992
21
3.84815089
0
LINE
8
0
10
-18.5499992
20
3.84815089
11
-18.5499992
21
3.06424719
0
LINE
8
0
10
-18.5499992
20
3.06424719
11
-18.5499992
21
2.85172948
0
LINE
8
0
10
-18.5499992
20
2.85172948
11
-18.5499992
21
2.68594123
0
LINE
8
0
10
-18.5499992
20
2.68594123
11
-18.5499992
21
1.05941608
0
LINE
8
0
10
-18.5499992
20
1.05941608
11
-18.5499992
21
0.825638135
0
LINE
8
0
10
-18.5499992
20
0.825638135
11
-18.5499992
21
0.651715041
0
LINE
8
0
10
-18.5499992
20
0.651715041
11
-18.5499992
21
0.544117231
0
LINE
8
0
10
-18.5499992
20
0.544117231
11
-18.5499992
21
-0.463958996
0
LINE
8
0
10
-18.5499992
20
-0.463958996
11
-18.5499992
21
-0.527069226
0
LINE
8
0
10
-18.5499992
20
-0.527069226
11
-18.5499992
21
-1.10000002
0
LINE
8
0
10
-18.5499992
20
-1.10000002
11
-17.7391196
21
-1.10000002
0
LINE
8
0
10
-17.7391196
20
-1.10000002
11
-15.9239966
21
-1.10000002
0
LINE
8
0
10
-15.9239966
20
-1.10000002
11
-14.8325941
21
-1.10000002
0
LINE
8
0
10
-14.8325941
20
-1.10000002
11
-14.7894428
21
-1.10000002
0
LINE
8
0
10
-14.7894428
20
-1.10000002
11
-14.7280891
21
-1.10000002
0
LINE
8
0
10
-14.7280891
20
-1.10000002
11
-14.6512744
21
-1.10000002
0
LINE
8
0
10
-14.6512744
20
-1.10000002
11
-14.564121
21
-1.10000002
0
LINE
8
0
10
-14.564121
20
-1.10000002
11
-14.4739553
21
-1.10000002
0
LINE
8
0
10
-14.4739553
20
-1.10000002
11
-14.3894044
21
-1.10000002
0
LINE
8
0
10
-14.3894044
20
-1.10000002
11
-14.3188831
21
-1.10000002
0
LINE
8
0
10
-14.3188831
20
-1.10000002
11
-14.2689597
21
-1.10000002
0
LINE
8
0
10
-14.2689597
20
-1.10000002
11
-14.2432297
21
-1.10000002
0
LINE
8
0
10
-14.2432297
20
-1.10000002
11
9.23505537
21
-1.10000002
0
LINE
8
0
10
9.23505537
20
-1.10000002
11
12.8008776
21
-1.10000002
0
LINE
8
0
10
12.8008776
20
-1.10000002
11
12.8365681
21
-1.10000002
0
LINE
8
0
10
12.8365681
20
-1.10000002
11
12.8930173
21
-1.10000002
0
LINE
8
0
10
12.8930173
20
-1.10000002
11
12.9658137
21
-1.10000002
0
LINE
8
0
10
12.9658137
20
-1.10000002
11
13.0480895
21
-1.10000002
0
LINE
8
0
10
13.0480895
20
-1.10000002
11
13.1317294
21
-1.10000002
0
LINE
8
0
10
13.1317294
20
-1.10000002
11
13.2089223
21
-1.10000002
0
LINE
8
0
10
13.2089223
20
-1.10000002
11
13.2734694
21
-1.10000002
0
LINE
8
0
10
13.2734694
20
-1.10000002
11
13.3214498
21
-1.10000002
0
LINE
8
0
10
13.3214498
20
-1.10000002
11
13.75
21
-1.10000002
0
LINE
8
0
10
13.75
20
-1.10000002
11
13.75
21
0.0175529898
0
LINE
8
0
10
13.75
20
0.0175529898
11
13.75
21
0.714189468
0
LINE
8
0
10
13.75
20
0.714189468
11
13.75
21
35.230035
0
LINE
8
0
10
13.75
20
35.230035
11
13.75
21
44.7132982
0
LINE
8
0
10
13.75
20
44.7132982
11
13.75
21
45.4043598
0
LINE
8
0
10
13.75
20
45.4043598
11
13.75
21
46.5
0
LINE
8
0
10
13.75
20
46.5
11
13.3214498
21
46.5
0
LINE
8
0
10
13.3214498
20
46.5
11
13.2734694
21
46.5
0
LINE
8
0
10
13.2734694
20
46.5
11
13.2089223
21
46.5
0
LINE
8
0
10
13.2089223
20
46.5
11
13.1317294
21
46.5
0
LINE
8
0
10
13.1317294
20
46.5
11
13.0480895
21
46.5
0
LINE
8
0
10
13.0480895
20
46.5
11
12.9658137
21
46.5
0
LINE
8
0
10
12.9658137
20
46.5
11
12.8930173
21
46.5
0
LINE
8
0
10
12.8930173
20
46.5
11
12.8365681
21
46.5
0
LINE
8
0
10
12.8365681
20
46.5
11
12.8008776
21
46.5
0
LINE
8
0
10
12.8008776
20
46.5
11
9.23505537
21
46.5
0
LINE
8
0
10
9.23505537
20
46.5
11
-14.2432297
21
46.5
0
LINE
8
0
10
-14.2432297
20
46.5
11
-14.2689597
21
46.5
0
LINE
8
0
10
-14.2689597
20
46.5
11
-14.3188831
21
46.5
0
LINE
8
0
10
-14.3188831
20
46.5
11
-14.3894044
21
46.5
0
LINE
8
0
10
-14.3894044
20
46.5
11
-14.4739553
21
46.5
0
LINE
8
0
10
-14.4739553
20
46.5
11
-14.564121
21
46.5
0
LINE
8
0
10
-14.564121
20
46.5
11
-14.6512744
21
46.5
0
LINE
8
0
10
-14.6512744
20
46.5
11
-14.7280891
21
46.5
0
LINE
8
0
10
-14.7280891
20
46.5
11
-14.7894428
21
46.5
0
LINE
8
0
10
-14.7894428
20
46.5
11
-14.8325941
21
46.5
0
LINE
8
0
10
-14.8325941
20
46.5
11
-14.8325941
21
46.5
0
LINE
8
0
10
-1.68185065
20
14.1808611
11
-1.76868212
21
14.5051765
0
LINE
8
0
10
-1.76868212
20
14.5051765
11
-1.83692094
21
14.6436201
0
LINE
8
0
10
-1.83692094
20
14.6436201
11
-1.98535478
21
14.9447641
0
LINE
8
0
10
-1.98535478
20
14.9447641
11
-2.07929142
21
15.0672348
0
LINE
8
0
10
-2.07929142
20
15.0672348
11
-2.28362346
21
15.3336344
0
LINE
8
0
10
-2.28362346
20
15.3336344
11
-6.96565631
21
20.3345671
0
LINE
8
0
10
-6.96565631
20
20.3345671
11
-9.11810589
21
22.6336231
0
LINE
8
0
10
-9.11810589
20
22.6336231
11
-9.23413044
21
22.7354147
0
LINE
8
0
10
-9.23413044
20
22.7354147
11
-9.48650837
21
22.9568329
0
LINE
8
0
10
-9.48650837
20
22.9568329
11
-9.62016196
21
23.0340324
0
LINE
8
0
10
-9.62016196
20
23.0340324
11
-9.91088676
21
23.2019577
0
LINE
8
0
10
-9.91088676
20
23.2019577
11
-10.0570331
21
23.2516001
0
LINE
8
0
10
-10.0570331
20
23.2516001
11
-10.3749323
21
23.3595829
0
LINE
8
0
10
-10.3749323
20
23.3595829
11
-10.5279554
21
23.3797598
0
LINE
8
0
10
-10.5279554
20
23.3797598
11
-10.8608131
21
23.4236488
0
LINE
8
0
10
-10.8608131
20
23.4236488
11
-11.014832
21
23.4135841
0
LINE
8
0
10
-11.014832
20
23.4135841
11
-11.3498554
21
23.3916912
0
LINE
8
0
10
-11.3498554
20
23.3916912
11
-11.4989515
21
23.3517723
0
LINE
8
0
10
-11.4989515
20
23.3517723
11
-11.823267
21
23.2649403
0
LINE
8
0
10
-11.823267
20
23.2649403
11
-11.9617106
21
23.196702
0
LINE
8
0
10
-11.9617106
20
23.196702
11
-12.2628546
21
23.0482693
0
LINE
8
0
10
-12.2628546
20
23.0482693
11
-12.3853249
21
22.9543324
0
LINE
8
0
10
-12.3853249
20
22.9543324
11
-12.6517239
21
22.75
0
LINE
8
0
10
-12.6517239
20
22.75
11
-12.7535151
21
22.6339754
0
LINE
8
0
10
-12.7535151
20
22.6339754
11
-12.9749327
21
22.3815975
0
LINE
8
0
10
-12.9749327
20
22.3815975
11
-13.0521328
21
22.2479442
0
LINE
8
0
10
-13.0521328
20
22.2479442
11
-13.2200594
21
21.9572201
0
LINE
8
0
10
-13.2200594
20
21.9572201
11
-13.2697015
21
21.8110734
0
LINE
8
0
10
-13.2697015
20
21.8110734
11
-13.3776836
21
21.4931736
0
LINE
8
0
10
-13.3776836
20
21.4931736
11
-13.3978602
21
21.3401507
0
LINE
8
0
10
-13.3978602
20
21.3401507
11
-13.4417486
21
21.0072937
0
LINE
8
0
10
-13.4417486
20
21.0072937
11
-13.4316842
21
20.8532749
0
LINE
8
0
10
-13.4316842
20
20.8532749
11
-13.4097919
21
20.5182514
0
LINE
8
0
10
-13.4097919
20
20.5182514
11
-13.3698733
21
20.3691553
0
LINE
8
0
10
-13.3698733
20
20.3691553
11
-13.283042
21
20.0448399
0
LINE
8
0
10
-13.283042
20
20.0448399
11
-13.2148031
21
19.906396
0
LINE
8
0
10
-13.2148031
20
19.906396
11
-13.0663691
21
19.6052513
0
LINE
8
0
10
-13.0663691
20
19.6052513
11
-12.9724325
21
19.4827807
0
LINE
8
0
10
-12.9724325
20
19.4827807
11
-12.7681007
21
19.2163811
0
LINE
8
0
10
-12.7681007
20
19.2163811
11
-8.08606773
21
14.2154483
0
LINE
8
0
10
-8.08606773
20
14.2154483
11
-5.93361807
21
11.9163923
0
LINE
8
0
10
-5.93361807
20
11.9163923
11
-5.81759367
21
11.8146011
0
LINE
8
0
10
-5.81759367
20
11.8146011
11
-5.56521606
21
11.5931835
0
LINE
8
0
10
-5.56521606
20
11.5931835
11
-5.43156248
21
11.5159837
0
LINE
8
0
10
-5.43156248
20
11.5159837
11
-5.14083767
21
11.3480577
0
LINE
8
0
10
-5.14083767
20
11.3480577
11
-4.99469118
21
11.2984153
0
LINE
8
0
10
-4.99469118
20
11.2984153
11
-4.67679167
21
11.1904325
0
LINE
8
0
10
-4.67679167
20
11.1904325
11
-4.52376867
21
11.1702559
0
LINE
8
0
10
-4.52376867
20
11.1702559
11
-4.19091129
21
11.1263676
0
LINE
8
0
10
-4.19091129
20
11.1263676
11
-4.03689241
21
11.136432
0
LINE
8
0
10
-4.03689241
20
11.136432
11
-3.70186877
21
11.1583242
0
LINE
8
0
10
-3.70186877
20
11.1583242
11
-3.5527727
21
11.1982431
0
LINE
8
0
10
-3.5527727
20
11.1982431
11
-3.22845721
21
11.2850752
0
LINE
8
0
10
-3.22845721
20
11.2850752
11
-3.09001379
21
11.3533138
0
LINE
8
0
10
-3.09001379
20
11.3533138
11
-2.7888701
21
11.5017471
0
LINE
8
0
10
-2.7888701
20
11.5017471
11
-2.66639951
21
11.595684
0
LINE
8
0
10
-2.66639951
20
11.595684
11
-2.4000001
21
11.8000164
0
LINE
8
0
10
-2.4000001
20
11.8000164
11
-2.29820882
21
11.9160407
0
LINE
8
0
10
-2.29820882
20
11.9160407
11
-2.07679129
21
12.1684179
0
LINE
8
0
10
-2.07679129
20
12.1684179
11
-1.99959123
21
12.3020715
0
LINE
8
0
10
-1.99959123
20
12.3020715
11
-1.8316648
21
12.5927963
0
LINE
8
0
10
-1.8316648
20
12.5927963
11
-1.7820226
21
12.7389427
0
LINE
8
0
10
-1.7820226
20
12.7389427
11
-1.67404032
21
13.0568419
0
LINE
8
0
10
-1.67404032
20
13.0568419
11
-1.65386375
21
13.209865
0
LINE
8
0
10
-1.65386375
20
13.209865
11
-1.60997546
21
13.5427227
0
LINE
8
0
10
-1.60997546
20
13.5427227
11
-1.62003984
21
13.6967415
0
LINE
8
0
10
-1.62003984
20
13.6967415
11
-1.64193201
21
14.031765
0
LINE
8
0
10
-1.64193201
20
14.031765
11
-1.68185065
21
14.1808611
0
LINE
8
0
10
-1.68185065
20
14.1808611
11
-1.68185065
21
14.1808611
0
ENDSEC
0
EOF
