0
SECTION
2
ENTITIES
0
LINE
8
0
10
-15.697745
20
4
11
-15.2435695
21
4
0
LINE
8
0
10
-15.2435695
20
4
11
-14.8298586
21
4
0
LINE
8
0
10
-14.8298586
20
4
11
-14.5553973
21
4
0
LINE
8
0
10
-14.5553973
20
4
11
2.65388248
21
4
0
LINE
8
0
10
2.65388248
20
4
11
3.11456234
21
4
0
LINE
8
0
10
3.11456234
20
4
11
11.8742101
21
4
0
LINE
8
0
10
11.8742101
20
4
11
11.9979814
21
4
0
LINE
8
0
10
11.9979814
20
4
11
12.2136369
21
4
0
LINE
8
0
10
12.2136369
20
4
11
12.4711814
21
4
0
LINE
8
0
10
12.4711814
20
4
11
12.717564
21
4
0
LINE
8
0
10
12.717564
20
4
11
12.9199415
21
4
0
LINE
8
0
10
12.9199415
20
4
11
13.0682625
21
4
0
LINE
8
0
10
13.0682625
20
4
11
13.75
21
4
0
LINE
8
0
10
13.75
20
4
11
13.75
21
0.0990897116
0
LINE
8
0
10
13.75
20
0.0990897116
11
13.75
21
-1.10000002
0
LINE
8
0
10
13.75
20
-1.10000002
11
13.0234463
21
-1.10000002
0
LINE
8
0
10
13.0234463
20
-1.10000002
11
12.9777895
21
-1.10000002
0
LINE
8
0
10
12.9777895
20
-1.10000002
11
12.8852867
21
-1.10000002
0
LINE
8
0
10
12.8852867
20
-1.10000002
11
12.7366969
21
-1.10000002
0
LINE
8
0
10
12.7366969
20
-1.10000002
11
12.5265402
21
-1.10000002
0
LINE
8
0
10
12.5265402
20
-1.10000002
11
12.260008
21
-1.10000002
0
LINE
8
0
10
12.260008
20
-1.10000002
11
11.9610971
21
-1.10000002
0
LINE
8
0
10
11.9610971
20
-1.10000002
11
11.6749866
21
-1.10000002
0
LINE
8
0
10
11.6749866
20
-1.10000002
11
11.4559512
21
-1.10000002
0
LINE
8
0
10
11.4559512
20
-1.10000002
11
11.3432943
21
-1.10000002
0
LINE
8
0
10
11.3432943
20
-1.10000002
11
0.772807257
21
-1.10000002
0
LINE
8
0
10
0.772807257
20
-1.10000002
11
0.0241539678
21
-1.10000002
0
LINE
8
0
10
0.0241539678
20
-1.10000002
11
-13.4597511
21
-1.10000002
0
LINE
8
0
10
-13.4597511
20
-1.10000002
11
-13.6787864
21
-1.10000002
0
LINE
8
0
10
-13.6787864
20
-1.10000002
11
-14.0759072
21
-1.10000002
0
LINE
8
0
10
-14.0759072
20
-1.10000002
11
-14.5665774
21
-1.10000002
0
LINE
8
0
10
-14.5665774
20
-1.10000002
11
-15.0628207
21
-1.10000002
0
LINE
8
0
10
-15.0628207
20
-1.10000002
11
-15.5039576
21
-1.10000002
0
LINE
8
0
10
-15.5039576
20
-1.10000002
11
-15.862094
21
-1.10000002
0
LINE
8
0
10
-15.862094
20
-1.10000002
11
-16.1325712
21
-1.10000002
0
LINE
8
0
10
-16.1325712
20
-1.10000002
11
-18.2459358
21
-1.10000002
0
LINE
8
0
10
-18.2459358
20
-1.10000002
11
-18.4561079
21
-1.10000002
0
LINE
8
0
10
-18.4561079
20
-1.10000002
11
-18.5499992
21
-1.10000002
0
LINE
8
0
10
-18.5499992
20
-1.10000002
11
-18.5499992
21
-1.03366067
0
LINE
8
0
10
-18.5499992
20
-1.03366067
11
-18.5499992
21
-1.02635317
0
LINE
8
0
10
-18.5499992
20
-1.02635317
11
-18.5499992
21
-0.909628552
0
LINE
8
0
10
-18.5499992
20
-0.909628552
11
-18.5499992
21
-0.897169858
0
LINE
8
0
10
-18.5499992
20
-0.897169858
11
-18.5499992
21
-0.877031395
0
LINE
8
0
10
-18.5499992
20
-0.877031395
11
-18.5499992
21
-0.84996237
0
LINE
8
0
10
-18.5499992
20
-0.84996237
11
-18.5499992
21
0.0990897116
0
LINE
8
0
10
-18.5499992
20
0.0990897116
11
-18.5499992
21
3.61755782
0
LINE
8
0
10
-18.5499992
20
3.61755782
11
-18.5499992
21
4
0
LINE
8
0
10
-18.5499992
20
4
11
-16.4598435
21
4
0
LINE
8
0
10
-16.4598435
20
4
11
-16.1156455
21
4
0
LINE
8
0
10
-16.1156455
20
4
11
-15.697745
21
4
0
LINE
8
0
10
-15.697745
20
4
11
-15.697745
21
4
0
LINE
8
0
10
-15.697745
20
41.5
11
-15.2435695
21
41.5
0
LINE
8
0
10
-15.2435695
20
41.5
11
-14.8298586
21
41.5
0
LINE
8
0
10
-14.8298586
20
41.5
11
-14.5553973
21
41.5
0
LINE
8
0
10
-14.5553973
20
41.5
11
2.65388248
21
41.5
0
LINE
8
0
10
2.65388248
20
41.5
11
3.11456234
21
41.5
0
LINE
8
0
10
3.11456234
20
41.5
11
11.8742101
21
41.5
0
LINE
8
0
10
11.8742101
20
41.5
11
11.9979814
21
41.5
0
LINE
8
0
10
11.9979814
20
41.5
11
12.2136369
21
41.5
0
LINE
8
0
10
12.2136369
20
41.5
11
12.4711814
21
41.5
0
LINE
8
0
10
12.4711814
20
41.5
11
12.717564
21
41.5
0
LINE
8
0
10
12.717564
20
41.5
11
12.9199415
21
41.5
0
LINE
8
0
10
12.9199415
20
41.5
11
13.0682625
21
41.5
0
LINE
8
0
10
13.0682625
20
41.5
11
13.75
21
41.5
0
LINE
8
0
10
13.75
20
41.5
11
13.75
21
45.3244218
0
LINE
8
0
10
13.75
20
45.3244218
11
13.75
21
46.5
0
LINE
8
0
10
13.75
20
46.5
11
13.0234463
21
46.5
0
LINE
8
0
10
13.0234463
20
46.5
11
12.9777895
21
46.5
0
LINE
8
0
10
12.9777895
20
46.5
11
12.8852867
21
46.5
0
LINE
8
0
10
12.8852867
20
46.5
11
12.7366969
21
46.5
0
LINE
8
0
10
12.7366969
20
46.5
11
12.5265402
21
46.5
0
LINE
8
0
10
12.5265402
20
46.5
11
12.260008
21
46.5
0
LINE
8
0
10
12.260008
20
46.5
11
11.9610971
21
46.5
0
LINE
8
0
10
11.9610971
20
46.5
11
11.6749866
21
46.5
0
LINE
8
0
10
11.6749866
20
46.5
11
11.4559512
21
46.5
0
LINE
8
0
10
11.4559512
20
46.5
11
11.3432943
21
46.5
0
LINE
8
0
10
11.3432943
20
46.5
11
0.772807257
21
46.5
0
LINE
8
0
10
0.772807257
20
46.5
11
0.0241539678
21
46.5
0
LINE
8
0
10
0.0241539678
20
46.5
11
-13.4597511
21
46.5
0
LINE
8
0
10
-13.4597511
20
46.5
11
-13.6787864
21
46.5
0
LINE
8
0
10
-13.6787864
20
46.5
11
-14.0759072
21
46.5
0
LINE
8
0
10
-14.0759072
20
46.5
11
-14.5665774
21
46.5
0
LINE
8
0
10
-14.5665774
20
46.5
11
-15.0628207
21
46.5
0
LINE
8
0
10
-15.0628207
20
46.5
11
-15.5039576
21
46.5
0
LINE
8
0
10
-15.5039576
20
46.5
11
-15.862094
21
46.5
0
LINE
8
0
10
-15.862094
20
46.5
11
-16.1325712
21
46.5
0
LINE
8
0
10
-16.1325712
20
46.5
11
-18.2459358
21
46.5
0
LINE
8
0
10
-18.2459358
20
46.5
11
-18.5499992
21
46.5
0
LINE
8
0
10
-18.5499992
20
46.5
11
-18.5499992
21
46.4401864
0
LINE
8
0
10
-18.5499992
20
46.4401864
11
-18.5499992
21
46.3606758
0
LINE
8
0
10
-18.5499992
20
46.3606758
11
-18.5499992
21
46.353344
0
LINE
8
0
10
-18.5499992
20
46.353344
11
-18.5499992
21
46.3381768
0
LINE
8
0
10
-18.5499992
20
46.3381768
11
-18.5499992
21
46.3155427
0
LINE
8
0
10
-18.5499992
20
46.3155427
11
-18.5499992
21
46.2864366
0
LINE
8
0
10
-18.5499992
20
46.2864366
11
-18.5499992
21
45.3244218
0
LINE
8
0
10
-18.5499992
20
45.3244218
11
-18.5499992
21
41.8824422
0
LINE
8
0
10
-18.5499992
20
41.8824422
11
-18.5499992
21
41.5
0
LINE
8
0
10
-18.5499992
20
41.5
11
-16.4598435
21
41.5
0
LINE
8
0
10
-16.4598435
20
41.5
11
-16.1156455
21
41.5
0
LINE
8
0
10
-16.1156455
20
41.5
11
-15.697745
21
41.5
0
LINE
8
0
10
-15.697745
20
41.5
11
-15.697745
21
41.5
0
ENDSEC
0
EOF
