0
SECTION
2
ENTITIES
0
LINE
8
0
10
9.26210743
20
24.3442521
11
9.1575737
21
24.7346859
0
LINE
8
0
10
9.1575737
20
24.7346859
11
9.11959609
21
24.811735
0
LINE
8
0
10
9.11959609
20
24.811735
11
8.9409008
21
25.1742725
0
LINE
8
0
10
8.9409008
20
25.1742725
11
8.88862146
21
25.2424322
0
LINE
8
0
10
8.88862146
20
25.2424322
11
8.64263248
21
25.5631428
0
LINE
8
0
10
8.64263248
20
25.5631428
11
3.00607205
21
31.5836178
0
LINE
8
0
10
3.00607205
20
31.5836178
11
1.8081497
21
32.8631325
0
LINE
8
0
10
1.8081497
20
32.8631325
11
1.74357754
21
32.9197831
0
LINE
8
0
10
1.74357754
20
32.9197831
11
1.43974745
21
33.1863403
0
LINE
8
0
10
1.43974745
20
33.1863403
11
1.36536403
21
33.2293056
0
LINE
8
0
10
1.36536403
20
33.2293056
11
1.01536918
21
33.431469
0
LINE
8
0
10
1.01536918
20
33.431469
11
0.934032976
21
33.4590966
0
LINE
8
0
10
0.934032976
20
33.4590966
11
0.551323354
21
33.5890923
0
LINE
8
0
10
0.551323354
20
33.5890923
11
0.466160087
21
33.6003212
0
LINE
8
0
10
0.466160087
20
33.6003212
11
0.0654430464
21
33.6531563
0
LINE
8
0
10
0.0654430464
20
33.6531563
11
-0.0202745141
21
33.6475552
0
LINE
8
0
10
-0.0202745141
20
33.6475552
11
-0.42359966
21
33.6212006
0
LINE
8
0
10
-0.42359966
20
33.6212006
11
-0.506577432
21
33.5989841
0
LINE
8
0
10
-0.506577432
20
33.5989841
11
-0.897011101
21
33.4944496
0
LINE
8
0
10
-0.897011101
20
33.4944496
11
-0.974060304
21
33.4564723
0
LINE
8
0
10
-0.974060304
20
33.4564723
11
-1.3365984
21
33.2777786
0
LINE
8
0
10
-1.3365984
20
33.2777786
11
-1.40475806
21
33.2254988
0
LINE
8
0
10
-1.40475806
20
33.2254988
11
-1.7254684
21
32.9795074
0
LINE
8
0
10
-1.7254684
20
32.9795074
11
-1.78211918
21
32.9149356
0
LINE
8
0
10
-1.78211918
20
32.9149356
11
-2.04867697
21
32.6111069
0
LINE
8
0
10
-2.04867697
20
32.6111069
11
-2.09164186
21
32.5367236
0
LINE
8
0
10
-2.09164186
20
32.5367236
11
-2.29380369
21
32.1867294
0
LINE
8
0
10
-2.29380369
20
32.1867294
11
-2.32143147
21
32.1053931
0
LINE
8
0
10
-2.32143147
20
32.1053931
11
-2.45142794
21
31.722683
0
LINE
8
0
10
-2.45142794
20
31.722683
11
-2.462657
21
31.6375198
0
LINE
8
0
10
-2.462657
20
31.6375198
11
-2.51549292
21
31.2368031
0
LINE
8
0
10
-2.51549292
20
31.2368031
11
-2.50989167
21
31.1510852
0
LINE
8
0
10
-2.50989167
20
31.1510852
11
-2.48353624
21
30.7477589
0
LINE
8
0
10
-2.48353624
20
30.7477589
11
-2.46131998
21
30.6647814
0
LINE
8
0
10
-2.46131998
20
30.6647814
11
-2.35678625
21
30.2743492
0
LINE
8
0
10
-2.35678625
20
30.2743492
11
-2.31880868
21
30.1972998
0
LINE
8
0
10
-2.31880868
20
30.1972998
11
-2.14011359
21
29.8347607
0
LINE
8
0
10
-2.14011359
20
29.8347607
11
-2.0878342
21
29.766601
0
LINE
8
0
10
-2.0878342
20
29.766601
11
-1.84184504
21
29.4458904
0
LINE
8
0
10
-1.84184504
20
29.4458904
11
3.7947153
21
23.4254154
0
LINE
8
0
10
3.7947153
20
23.4254154
11
4.99263763
21
22.1459007
0
LINE
8
0
10
4.99263763
20
22.1459007
11
5.05720983
21
22.0892501
0
LINE
8
0
10
5.05720983
20
22.0892501
11
5.36104012
21
21.8226929
0
LINE
8
0
10
5.36104012
20
21.8226929
11
5.43542356
21
21.779728
0
LINE
8
0
10
5.43542356
20
21.779728
11
5.78541851
21
21.5775661
0
LINE
8
0
10
5.78541851
20
21.5775661
11
5.86675466
21
21.5499385
0
LINE
8
0
10
5.86675466
20
21.5499385
11
6.24946404
21
21.4199429
0
LINE
8
0
10
6.24946404
20
21.4199429
11
6.33462731
21
21.4087136
0
LINE
8
0
10
6.33462731
20
21.4087136
11
6.73534441
21
21.3558769
0
LINE
8
0
10
6.73534441
20
21.3558769
11
6.82106198
21
21.3614783
0
LINE
8
0
10
6.82106198
20
21.3614783
11
7.22438717
21
21.3878345
0
LINE
8
0
10
7.22438717
20
21.3878345
11
7.30736496
21
21.4100506
0
LINE
8
0
10
7.30736496
20
21.4100506
11
7.69779873
21
21.5145836
0
LINE
8
0
10
7.69779873
20
21.5145836
11
7.77484798
21
21.5525612
0
LINE
8
0
10
7.77484798
20
21.5525612
11
8.13738632
21
21.7312565
0
LINE
8
0
10
8.13738632
20
21.7312565
11
8.20554586
21
21.783536
0
LINE
8
0
10
8.20554586
20
21.783536
11
8.52625561
21
22.0295258
0
LINE
8
0
10
8.52625561
20
22.0295258
11
8.58290643
21
22.0940976
0
LINE
8
0
10
8.58290643
20
22.0940976
11
8.84946442
21
22.3979263
0
LINE
8
0
10
8.84946442
20
22.3979263
11
8.8924293
21
22.4723099
0
LINE
8
0
10
8.8924293
20
22.4723099
11
9.09459114
21
22.8223057
0
LINE
8
0
10
9.09459114
20
22.8223057
11
9.12221892
21
22.903642
0
LINE
8
0
10
9.12221892
20
22.903642
11
9.25221539
21
23.2863522
0
LINE
8
0
10
9.25221539
20
23.2863522
11
9.26344445
21
23.3715154
0
LINE
8
0
10
9.26344445
20
23.3715154
11
9.31628036
21
23.7722321
0
LINE
8
0
10
9.31628036
20
23.7722321
11
9.31067912
21
23.8579495
0
LINE
8
0
10
9.31067912
20
23.8579495
11
9.28432369
21
24.2612743
0
LINE
8
0
10
9.28432369
20
24.2612743
11
9.26210743
21
24.3442521
0
LINE
8
0
10
9.26210743
20
24.3442521
11
9.26210743
21
24.3442521
0
LINE
8
0
10
3.40226603
20
13.1730547
11
3.05227107
21
13.3752165
0
LINE
8
0
10
3.05227107
20
13.3752165
11
2.97788763
21
13.4181814
0
LINE
8
0
10
2.97788763
20
13.4181814
11
2.67405754
21
13.6847394
0
LINE
8
0
10
2.67405754
20
13.6847394
11
2.60948539
21
13.7413902
0
LINE
8
0
10
2.60948539
20
13.7413902
11
0.213640756
21
16.3004192
0
LINE
8
0
10
0.213640756
20
16.3004192
11
-11.0594797
21
28.3413677
0
LINE
8
0
10
-11.0594797
20
28.3413677
11
-11.3054695
21
28.6620783
0
LINE
8
0
10
-11.3054695
20
28.6620783
11
-11.357749
21
28.730238
0
LINE
8
0
10
-11.357749
20
28.730238
11
-11.5364435
21
29.0927771
0
LINE
8
0
10
-11.5364435
20
29.0927771
11
-11.5744209
21
29.1698265
0
LINE
8
0
10
-11.5744209
20
29.1698265
11
-11.6789554
21
29.5602603
0
LINE
8
0
10
-11.6789554
20
29.5602603
11
-11.7011719
21
29.6432381
0
LINE
8
0
10
-11.7011719
20
29.6432381
11
-11.7275273
21
30.0465629
0
LINE
8
0
10
-11.7275273
20
30.0465629
11
-11.7331285
21
30.1322803
0
LINE
8
0
10
-11.7331285
20
30.1322803
11
-11.6802926
21
30.5329971
0
LINE
8
0
10
-11.6802926
20
30.5329971
11
-11.6690636
21
30.6181602
0
LINE
8
0
10
-11.6690636
20
30.6181602
11
-11.5390663
21
31.0008704
0
LINE
8
0
10
-11.5390663
20
31.0008704
11
-11.5114384
21
31.0822067
0
LINE
8
0
10
-11.5114384
20
31.0822067
11
-11.3092773
21
31.4322009
0
LINE
8
0
10
-11.3092773
20
31.4322009
11
-11.2663126
21
31.5065842
0
LINE
8
0
10
-11.2663126
20
31.5065842
11
-10.9997546
21
31.8104145
0
LINE
8
0
10
-10.9997546
20
31.8104145
11
-10.9431038
21
31.8749866
0
LINE
8
0
10
-10.9431038
20
31.8749866
11
-10.6223933
21
32.1209764
0
LINE
8
0
10
-10.6223933
20
32.1209764
11
-10.5542336
21
32.1732559
0
LINE
8
0
10
-10.5542336
20
32.1732559
11
-10.1916952
21
32.3519496
0
LINE
8
0
10
-10.1916952
20
32.3519496
11
-10.114646
21
32.3899269
0
LINE
8
0
10
-10.114646
20
32.3899269
11
-9.72421219
21
32.4944614
0
LINE
8
0
10
-9.72421219
20
32.4944614
11
-9.6412344
21
32.5166779
0
LINE
8
0
10
-9.6412344
20
32.5166779
11
-9.2379096
21
32.5430325
0
LINE
8
0
10
-9.2379096
20
32.5430325
11
-9.15219212
21
32.5486336
0
LINE
8
0
10
-9.15219212
20
32.5486336
11
-8.75147541
21
32.4957985
0
LINE
8
0
10
-8.75147541
20
32.4957985
11
-8.66631222
21
32.4845695
0
LINE
8
0
10
-8.66631222
20
32.4845695
11
-8.28360206
21
32.3545739
0
LINE
8
0
10
-8.28360206
20
32.3545739
11
-8.20226574
21
32.3269463
0
LINE
8
0
10
-8.20226574
20
32.3269463
11
-7.85227118
21
32.1247828
0
LINE
8
0
10
-7.85227118
20
32.1247828
11
-7.77788782
21
32.0818176
0
LINE
8
0
10
-7.77788782
20
32.0818176
11
-7.47405754
21
31.8152604
0
LINE
8
0
10
-7.47405754
20
31.8152604
11
-7.40948534
21
31.7586098
0
LINE
8
0
10
-7.40948534
20
31.7586098
11
-5.01364067
21
29.1995808
0
LINE
8
0
10
-5.01364067
20
29.1995808
11
6.25948
21
17.1586323
0
LINE
8
0
10
6.25948
20
17.1586323
11
6.50546937
21
16.8379217
0
LINE
8
0
10
6.50546937
20
16.8379217
11
6.55774879
21
16.769762
0
LINE
8
0
10
6.55774879
20
16.769762
11
6.73644369
21
16.4072229
0
LINE
8
0
10
6.73644369
20
16.4072229
11
6.77442122
21
16.3301735
0
LINE
8
0
10
6.77442122
20
16.3301735
11
6.87895495
21
15.9397405
0
LINE
8
0
10
6.87895495
20
15.9397405
11
6.90117121
21
15.8567629
0
LINE
8
0
10
6.90117121
20
15.8567629
11
6.92752664
21
15.4534373
0
LINE
8
0
10
6.92752664
20
15.4534373
11
6.93312788
21
15.3677197
0
LINE
8
0
10
6.93312788
20
15.3677197
11
6.88029236
21
14.9670029
0
LINE
8
0
10
6.88029236
20
14.9670029
11
6.86906338
21
14.8818398
0
LINE
8
0
10
6.86906338
20
14.8818398
11
6.73906652
21
14.4991304
0
LINE
8
0
10
6.73906652
20
14.4991304
11
6.71143866
21
14.4177942
0
LINE
8
0
10
6.71143866
20
14.4177942
11
6.50927682
21
14.0677993
0
LINE
8
0
10
6.50927682
20
14.0677993
11
6.46631193
21
13.9934158
0
LINE
8
0
10
6.46631193
20
13.9934158
11
6.19975434
21
13.6895855
0
LINE
8
0
10
6.19975434
20
13.6895855
11
6.1431036
21
13.6250134
0
LINE
8
0
10
6.1431036
20
13.6250134
11
5.82239307
21
13.3790244
0
LINE
8
0
10
5.82239307
20
13.3790244
11
5.75423336
21
13.326745
0
LINE
8
0
10
5.75423336
20
13.326745
11
5.39169542
21
13.1480497
0
LINE
8
0
10
5.39169542
20
13.1480497
11
5.31464624
21
13.1100721
0
LINE
8
0
10
5.31464624
20
13.1100721
11
4.92421248
21
13.0055384
0
LINE
8
0
10
4.92421248
20
13.0055384
11
4.84123468
21
12.9833221
0
LINE
8
0
10
4.84123468
20
12.9833221
11
4.43790949
21
12.9569667
0
LINE
8
0
10
4.43790949
20
12.9569667
11
4.35219193
21
12.9513655
0
LINE
8
0
10
4.35219193
20
12.9513655
11
3.95147503
21
13.0042014
0
LINE
8
0
10
3.95147503
20
13.0042014
11
3.86631179
21
13.0154305
0
LINE
8
0
10
3.86631179
20
13.0154305
11
3.48360222
21
13.1454269
0
LINE
8
0
10
3.48360222
20
13.1454269
11
3.40226603
21
13.1730547
0
LINE
8
0
10
3.40226603
20
13.1730547
11
3.40226603
21
13.1730547
0
LINE
8
0
10
-10.9465306
20
23.4180474
11
-11.3498554
21
23.3916912
0
LINE
8
0
10
-11.3498554
20
23.3916912
11
-11.4328332
21
23.3694748
0
LINE
8
0
10
-11.4328332
20
23.3694748
11
-11.823267
21
23.2649403
0
LINE
8
0
10
-11.823267
20
23.2649403
11
-11.9003162
21
23.226963
0
LINE
8
0
10
-11.9003162
20
23.226963
11
-12.2628546
21
23.0482693
0
LINE
8
0
10
-12.2628546
20
23.0482693
11
-12.3310141
21
22.9959898
0
LINE
8
0
10
-12.3310141
20
22.9959898
11
-12.6517239
21
22.75
0
LINE
8
0
10
-12.6517239
20
22.75
11
-12.7083747
21
22.6854278
0
LINE
8
0
10
-12.7083747
20
22.6854278
11
-12.9749327
21
22.3815975
0
LINE
8
0
10
-12.9749327
20
22.3815975
11
-13.0178976
21
22.3072142
0
LINE
8
0
10
-13.0178976
20
22.3072142
11
-13.2200594
21
21.9572201
0
LINE
8
0
10
-13.2200594
20
21.9572201
11
-13.2476872
21
21.8758838
0
LINE
8
0
10
-13.2476872
20
21.8758838
11
-13.3776836
21
21.4931736
0
LINE
8
0
10
-13.3776836
20
21.4931736
11
-13.3889127
21
21.4080104
0
LINE
8
0
10
-13.3889127
20
21.4080104
11
-13.4417486
21
21.0072937
0
LINE
8
0
10
-13.4417486
20
21.0072937
11
-13.4361474
21
20.9215762
0
LINE
8
0
10
-13.4361474
20
20.9215762
11
-13.4097919
21
20.5182514
0
LINE
8
0
10
-13.4097919
20
20.5182514
11
-13.3875757
21
20.4352736
0
LINE
8
0
10
-13.3875757
20
20.4352736
11
-13.283042
21
20.0448399
0
LINE
8
0
10
-13.283042
20
20.0448399
11
-13.2450643
21
19.9677904
0
LINE
8
0
10
-13.2450643
20
19.9677904
11
-13.0663691
21
19.6052513
0
LINE
8
0
10
-13.0663691
20
19.6052513
11
-13.0140897
21
19.5370916
0
LINE
8
0
10
-13.0140897
20
19.5370916
11
-12.7681007
21
19.2163811
0
LINE
8
0
10
-12.7681007
20
19.2163811
11
-7.13154041
21
13.1959068
0
LINE
8
0
10
-7.13154041
20
13.1959068
11
-5.93361807
21
11.9163923
0
LINE
8
0
10
-5.93361807
20
11.9163923
11
-5.86904596
21
11.8597415
0
LINE
8
0
10
-5.86904596
20
11.8597415
11
-5.56521606
21
11.5931835
0
LINE
8
0
10
-5.56521606
20
11.5931835
11
-5.49083262
21
11.5502188
0
LINE
8
0
10
-5.49083262
20
11.5502188
11
-5.14083767
21
11.3480577
0
LINE
8
0
10
-5.14083767
20
11.3480577
11
-5.05950144
21
11.3204298
0
LINE
8
0
10
-5.05950144
20
11.3204298
11
-4.67679167
21
11.1904325
0
LINE
8
0
10
-4.67679167
20
11.1904325
11
-4.59162839
21
11.1792035
0
LINE
8
0
10
-4.59162839
20
11.1792035
11
-4.19091129
21
11.1263676
0
LINE
8
0
10
-4.19091129
20
11.1263676
11
-4.10519377
21
11.1319688
0
LINE
8
0
10
-4.10519377
20
11.1319688
11
-3.70186877
21
11.1583242
0
LINE
8
0
10
-3.70186877
20
11.1583242
11
-3.61889098
21
11.1805407
0
LINE
8
0
10
-3.61889098
20
11.1805407
11
-3.22845721
21
11.2850752
0
LINE
8
0
10
-3.22845721
20
11.2850752
11
-3.15140804
21
11.3230526
0
LINE
8
0
10
-3.15140804
20
11.3230526
11
-2.7888701
21
11.5017471
0
LINE
8
0
10
-2.7888701
20
11.5017471
11
-2.72071043
21
11.5540266
0
LINE
8
0
10
-2.72071043
20
11.5540266
11
-2.4000001
21
11.8000164
0
LINE
8
0
10
-2.4000001
20
11.8000164
11
-2.34334927
21
11.8645884
0
LINE
8
0
10
-2.34334927
20
11.8645884
11
-2.07679129
21
12.1684179
0
LINE
8
0
10
-2.07679129
20
12.1684179
11
-2.03382644
21
12.2428014
0
LINE
8
0
10
-2.03382644
20
12.2428014
11
-1.8316648
21
12.5927963
0
LINE
8
0
10
-1.8316648
20
12.5927963
11
-1.80403698
21
12.6741325
0
LINE
8
0
10
-1.80403698
20
12.6741325
11
-1.67404032
21
13.0568419
0
LINE
8
0
10
-1.67404032
20
13.0568419
11
-1.66281127
21
13.1420052
0
LINE
8
0
10
-1.66281127
20
13.1420052
11
-1.60997546
21
13.5427227
0
LINE
8
0
10
-1.60997546
20
13.5427227
11
-1.61557668
21
13.6284402
0
LINE
8
0
10
-1.61557668
20
13.6284402
11
-1.64193201
21
14.031765
0
LINE
8
0
10
-1.64193201
20
14.031765
11
-1.66414829
21
14.1147428
0
LINE
8
0
10
-1.66414829
20
14.1147428
11
-1.76868212
21
14.5051765
0
LINE
8
0
10
-1.76868212
20
14.5051765
11
-1.80665969
21
14.5822258
0
LINE
8
0
10
-1.80665969
20
14.5822258
11
-1.98535478
21
14.9447641
0
LINE
8
0
10
-1.98535478
20
14.9447641
11
-2.03763419
21
15.0129238
0
LINE
8
0
10
-2.03763419
20
15.0129238
11
-2.28362346
21
15.3336344
0
LINE
8
0
10
-2.28362346
20
15.3336344
11
-7.92018359
21
21.3541086
0
LINE
8
0
10
-7.92018359
20
21.3541086
11
-9.11810589
21
22.6336231
0
LINE
8
0
10
-9.11810589
20
22.6336231
11
-9.18267809
21
22.6902741
0
LINE
8
0
10
-9.18267809
20
22.6902741
11
-9.48650837
21
22.9568329
0
LINE
8
0
10
-9.48650837
20
22.9568329
11
-9.56089181
21
22.9997974
0
LINE
8
0
10
-9.56089181
20
22.9997974
11
-9.91088676
21
23.2019577
0
LINE
8
0
10
-9.91088676
20
23.2019577
11
-9.99222291
21
23.2295857
0
LINE
8
0
10
-9.99222291
20
23.2295857
11
-10.3749323
21
23.3595829
0
LINE
8
0
10
-10.3749323
20
23.3595829
11
-10.4600957
21
23.3708121
0
LINE
8
0
10
-10.4600957
20
23.3708121
11
-10.8608131
21
23.4236488
0
LINE
8
0
10
-10.8608131
20
23.4236488
11
-10.9465306
21
23.4180474
0
LINE
8
0
10
-10.9465306
20
23.4180474
11
-10.9465306
21
23.4180474
0
LINE
8
0
10
-14.9040833
20
46.5
11
-14.8648354
21
46.5
0
LINE
8
0
10
-14.8648354
20
46.5
11
-14.8370511
21
46.5
0
LINE
8
0
10
-14.8370511
20
46.5
11
-14.8227314
21
46.5
0
LINE
8
0
10
-14.8227314
20
46.5
11
11.2372569
21
46.5
0
LINE
8
0
10
11.2372569
20
46.5
11
13.2217763
21
46.5
0
LINE
8
0
10
13.2217763
20
46.5
11
13.2416395
21
46.5
0
LINE
8
0
10
13.2416395
20
46.5
11
13.2730556
21
46.5
0
LINE
8
0
10
13.2730556
20
46.5
11
13.3135697
21
46.5
0
LINE
8
0
10
13.3135697
20
46.5
11
13.3593594
21
46.5
0
LINE
8
0
10
13.3593594
20
46.5
11
13.4059083
21
46.5
0
LINE
8
0
10
13.4059083
20
46.5
11
13.4488691
21
46.5
0
LINE
8
0
10
13.4488691
20
46.5
11
13.4847921
21
46.5
0
LINE
8
0
10
13.4847921
20
46.5
11
13.5114951
21
46.5
0
LINE
8
0
10
13.5114951
20
46.5
11
13.75
21
46.5
0
LINE
8
0
10
13.75
20
46.5
11
13.75
21
45.8902334
0
LINE
8
0
10
13.75
20
45.8902334
11
13.75
21
45.5056307
0
LINE
8
0
10
13.75
20
45.5056307
11
13.75
21
40.2278241
0
LINE
8
0
10
13.75
20
40.2278241
11
13.75
21
-0.0903326861
0
LINE
8
0
10
13.75
20
-0.0903326861
11
13.75
21
-0.478038106
0
LINE
8
0
10
13.75
20
-0.478038106
11
13.75
21
-1.10000002
0
LINE
8
0
10
13.75
20
-1.10000002
11
13.5114951
21
-1.10000002
0
LINE
8
0
10
13.5114951
20
-1.10000002
11
13.4847921
21
-1.10000002
0
LINE
8
0
10
13.4847921
20
-1.10000002
11
13.4488691
21
-1.10000002
0
LINE
8
0
10
13.4488691
20
-1.10000002
11
13.4059083
21
-1.10000002
0
LINE
8
0
10
13.4059083
20
-1.10000002
11
13.3593594
21
-1.10000002
0
LINE
8
0
10
13.3593594
20
-1.10000002
11
13.3135697
21
-1.10000002
0
LINE
8
0
10
13.3135697
20
-1.10000002
11
13.2730556
21
-1.10000002
0
LINE
8
0
10
13.2730556
20
-1.10000002
11
13.2416395
21
-1.10000002
0
LINE
8
0
10
13.2416395
20
-1.10000002
11
13.2217763
21
-1.10000002
0
LINE
8
0
10
13.2217763
20
-1.10000002
11
11.2372569
21
-1.10000002
0
LINE
8
0
10
11.2372569
20
-1.10000002
11
-14.8227314
21
-1.10000002
0
LINE
8
0
10
-14.8227314
20
-1.10000002
11
-14.8370511
21
-1.10000002
0
LINE
8
0
10
-14.8370511
20
-1.10000002
11
-14.8648354
21
-1.10000002
0
LINE
8
0
10
-14.8648354
20
-1.10000002
11
-14.9040833
21
-1.10000002
0
LINE
8
0
10
-14.9040833
20
-1.10000002
11
-14.9511392
21
-1.10000002
0
LINE
8
0
10
-14.9511392
20
-1.10000002
11
-15.0013199
21
-1.10000002
0
LINE
8
0
10
-15.0013199
20
-1.10000002
11
-15.0498242
21
-1.10000002
0
LINE
8
0
10
-15.0498242
20
-1.10000002
11
-15.0925746
21
-1.10000002
0
LINE
8
0
10
-15.0925746
20
-1.10000002
11
-15.1267203
21
-1.10000002
0
LINE
8
0
10
-15.1267203
20
-1.10000002
11
-15.1507357
21
-1.10000002
0
LINE
8
0
10
-15.1507357
20
-1.10000002
11
-15.7581438
21
-1.10000002
0
LINE
8
0
10
-15.7581438
20
-1.10000002
11
-17.6879062
21
-1.10000002
0
LINE
8
0
10
-17.6879062
20
-1.10000002
11
-18.5499992
21
-1.10000002
0
LINE
8
0
10
-18.5499992
20
-1.10000002
11
-18.5499992
21
-0.490884123
0
LINE
8
0
10
-18.5499992
20
-0.490884123
11
-18.5499992
21
-0.423787984
0
LINE
8
0
10
-18.5499992
20
-0.423787984
11
-18.5499992
21
0.647956215
0
LINE
8
0
10
-18.5499992
20
0.647956215
11
-18.5499992
21
0.762349676
0
LINE
8
0
10
-18.5499992
20
0.762349676
11
-18.5499992
21
0.947257387
0
LINE
8
0
10
-18.5499992
20
0.947257387
11
-18.5499992
21
1.19580025
0
LINE
8
0
10
-18.5499992
20
1.19580025
11
-18.5499992
21
2.52241468
0
LINE
8
0
10
-18.5499992
20
2.52241468
11
-18.5499992
21
2.70883425
0
LINE
8
0
10
-18.5499992
20
2.70883425
11
-18.5499992
21
2.94779849
0
LINE
8
0
10
-18.5499992
20
2.94779849
11
-18.5499992
21
3.57046559
0
LINE
8
0
10
-18.5499992
20
3.57046559
11
-18.5499992
21
3.81234503
0
LINE
8
0
10
-18.5499992
20
3.81234503
11
-18.5499992
21
5.83880812
0
LINE
8
0
10
-18.5499992
20
5.83880812
11
-18.5499992
21
10.5315478
0
LINE
8
0
10
-18.5499992
20
10.5315478
11
-18.5499992
21
15.3349638
0
LINE
8
0
10
-18.5499992
20
15.3349638
11
-18.5499992
21
28.014625
0
LINE
8
0
10
-18.5499992
20
28.014625
11
-18.5499992
21
32.1257033
0
LINE
8
0
10
-18.5499992
20
32.1257033
11
-18.5499992
21
33.5722389
0
LINE
8
0
10
-18.5499992
20
33.5722389
11
-18.5499992
21
40.3087566
0
LINE
8
0
10
-18.5499992
20
40.3087566
11
-18.5499992
21
41.09929
0
LINE
8
0
10
-18.5499992
20
41.09929
11
-18.5499992
21
41.338167
0
LINE
8
0
10
-18.5499992
20
41.338167
11
-18.5499992
21
41.6056986
0
LINE
8
0
10
-18.5499992
20
41.6056986
11
-18.5499992
21
41.8799785
0
LINE
8
0
10
-18.5499992
20
41.8799785
11
-18.5499992
21
42.1365421
0
LINE
8
0
10
-18.5499992
20
42.1365421
11
-18.5499992
21
42.7701909
0
LINE
8
0
10
-18.5499992
20
42.7701909
11
-18.5499992
21
43.0250124
0
LINE
8
0
10
-18.5499992
20
43.0250124
11
-18.5499992
21
43.2320229
0
LINE
8
0
10
-18.5499992
20
43.2320229
11
-18.5499992
21
44.5391
0
LINE
8
0
10
-18.5499992
20
44.5391
11
-18.5499992
21
44.806347
0
LINE
8
0
10
-18.5499992
20
44.806347
11
-18.5499992
21
45.0141692
0
LINE
8
0
10
-18.5499992
20
45.0141692
11
-18.5499992
21
45.153431
0
LINE
8
0
10
-18.5499992
20
45.153431
11
-18.5499992
21
45.2207507
0
LINE
8
0
10
-18.5499992
20
45.2207507
11
-18.5499992
21
45.9508022
0
LINE
8
0
10
-18.5499992
20
45.9508022
11
-18.5499992
21
46.5
0
LINE
8
0
10
-18.5499992
20
46.5
11
-15.7581438
21
46.5
0
LINE
8
0
10
-15.7581438
20
46.5
11
-15.1507357
21
46.5
0
LINE
8
0
10
-15.1507357
20
46.5
11
-15.1267203
21
46.5
0
LINE
8
0
10
-15.1267203
20
46.5
11
-15.0925746
21
46.5
0
LINE
8
0
10
-15.0925746
20
46.5
11
-15.0498242
21
46.5
0
LINE
8
0
10
-15.0498242
20
46.5
11
-15.0013199
21
46.5
0
LINE
8
0
10
-15.0013199
20
46.5
11
-14.9511392
21
46.5
0
LINE
8
0
10
-14.9511392
20
46.5
11
-14.9040833
21
46.5
0
LINE
8
0
10
-14.9040833
20
46.5
11
-14.9040833
21
46.5
0
ENDSEC
0
EOF
