0
SECTION
2
ENTITIES
0
LINE
8
0
10
-15.2140697
20
46.5
11
-15.2391461
21
46.5
0
LINE
8
0
10
-15.2391461
20
46.5
11
-15.2567829
21
46.5
0
LINE
8
0
10
-15.2567829
20
46.5
11
-15.7028595
21
46.5
0
LINE
8
0
10
-15.7028595
20
46.5
11
-18.5499992
21
46.5
0
LINE
8
0
10
-18.5499992
20
46.5
11
-18.5499992
21
45.939927
0
LINE
8
0
10
-18.5499992
20
45.939927
11
-18.5499992
21
45.195419
0
LINE
8
0
10
-18.5499992
20
45.195419
11
-18.5499992
21
45.1267662
0
LINE
8
0
10
-18.5499992
20
45.1267662
11
-18.5499992
21
44.9847468
0
LINE
8
0
10
-18.5499992
20
44.9847468
11
-18.5499992
21
44.7728093
0
LINE
8
0
10
-18.5499992
20
44.7728093
11
-18.5499992
21
44.5002703
0
LINE
8
0
10
-18.5499992
20
44.5002703
11
-18.5499992
21
43.2959181
0
LINE
8
0
10
-18.5499992
20
43.2959181
11
-18.5499992
21
43.0812708
0
LINE
8
0
10
-18.5499992
20
43.0812708
11
-18.5499992
21
42.8170489
0
LINE
8
0
10
-18.5499992
20
42.8170489
11
-18.5499992
21
42.2390343
0
LINE
8
0
10
-18.5499992
20
42.2390343
11
-18.5499992
21
41.970163
0
LINE
8
0
10
-18.5499992
20
41.970163
11
-18.5499992
21
41.6827256
0
LINE
8
0
10
-18.5499992
20
41.6827256
11
-18.5499992
21
41.4023603
0
LINE
8
0
10
-18.5499992
20
41.4023603
11
-18.5499992
21
41.152024
0
LINE
8
0
10
-18.5499992
20
41.152024
11
-18.5499992
21
40.323568
0
LINE
8
0
10
-18.5499992
20
40.323568
11
-18.5499992
21
33.2638925
0
LINE
8
0
10
-18.5499992
20
33.2638925
11
-18.5499992
21
31.7479652
0
LINE
8
0
10
-18.5499992
20
31.7479652
11
-18.5499992
21
27.4396741
0
LINE
8
0
10
-18.5499992
20
27.4396741
11
-18.5499992
21
15.8067572
0
LINE
8
0
10
-18.5499992
20
15.8067572
11
-18.5499992
21
10.7729164
0
LINE
8
0
10
-18.5499992
20
10.7729164
11
-18.5499992
21
5.8550611
0
LINE
8
0
10
-18.5499992
20
5.8550611
11
-18.5499992
21
3.73138647
0
LINE
8
0
10
-18.5499992
20
3.73138647
11
-18.5499992
21
3.47790383
0
LINE
8
0
10
-18.5499992
20
3.47790383
11
-18.5499992
21
2.90898226
0
LINE
8
0
10
-18.5499992
20
2.90898226
11
-18.5499992
21
2.66120251
0
LINE
8
0
10
-18.5499992
20
2.66120251
11
-18.5499992
21
2.46790582
0
LINE
8
0
10
-18.5499992
20
2.46790582
11
-18.5499992
21
1.24126165
0
LINE
8
0
10
-18.5499992
20
1.24126165
11
-18.5499992
21
0.987797138
0
LINE
8
0
10
-18.5499992
20
0.987797138
11
-18.5499992
21
0.799227888
0
LINE
8
0
10
-18.5499992
20
0.799227888
11
-18.5499992
21
0.68256921
0
LINE
8
0
10
-18.5499992
20
0.68256921
11
-18.5499992
21
-0.410397646
0
LINE
8
0
10
-18.5499992
20
-0.410397646
11
-18.5499992
21
-0.478822422
0
LINE
8
0
10
-18.5499992
20
-0.478822422
11
-18.5499992
21
-1.10000002
0
LINE
8
0
10
-18.5499992
20
-1.10000002
11
-17.670835
21
-1.10000002
0
LINE
8
0
10
-17.670835
20
-1.10000002
11
-15.7028595
21
-1.10000002
0
LINE
8
0
10
-15.7028595
20
-1.10000002
11
-15.2567829
21
-1.10000002
0
LINE
8
0
10
-15.2567829
20
-1.10000002
11
-15.2391461
21
-1.10000002
0
LINE
8
0
10
-15.2391461
20
-1.10000002
11
-15.2140697
21
-1.10000002
0
LINE
8
0
10
-15.2140697
20
-1.10000002
11
-15.1826741
21
-1.10000002
0
LINE
8
0
10
-15.1826741
20
-1.10000002
11
-15.1470529
21
-1.10000002
0
LINE
8
0
10
-15.1470529
20
-1.10000002
11
-15.1102005
21
-1.10000002
0
LINE
8
0
10
-15.1102005
20
-1.10000002
11
-15.0756429
21
-1.10000002
0
LINE
8
0
10
-15.0756429
20
-1.10000002
11
-15.0468195
21
-1.10000002
0
LINE
8
0
10
-15.0468195
20
-1.10000002
11
-15.0264149
21
-1.10000002
0
LINE
8
0
10
-15.0264149
20
-1.10000002
11
-15.0158986
21
-1.10000002
0
LINE
8
0
10
-15.0158986
20
-1.10000002
11
11.9046574
21
-1.10000002
0
LINE
8
0
10
11.9046574
20
-1.10000002
11
13.3620759
21
-1.10000002
0
LINE
8
0
10
13.3620759
20
-1.10000002
11
13.3766632
21
-1.10000002
0
LINE
8
0
10
13.3766632
20
-1.10000002
11
13.3997351
21
-1.10000002
0
LINE
8
0
10
13.3997351
20
-1.10000002
11
13.4294883
21
-1.10000002
0
LINE
8
0
10
13.4294883
20
-1.10000002
11
13.463116
21
-1.10000002
0
LINE
8
0
10
13.463116
20
-1.10000002
11
13.4973012
21
-1.10000002
0
LINE
8
0
10
13.4973012
20
-1.10000002
11
13.5288514
21
-1.10000002
0
LINE
8
0
10
13.5288514
20
-1.10000002
11
13.555233
21
-1.10000002
0
LINE
8
0
10
13.555233
20
-1.10000002
11
13.5748435
21
-1.10000002
0
LINE
8
0
10
13.5748435
20
-1.10000002
11
13.75
21
-1.10000002
0
LINE
8
0
10
13.75
20
-1.10000002
11
13.75
21
-0.643235137
0
LINE
8
0
10
13.75
20
-0.643235137
11
13.75
21
-0.358506737
0
LINE
8
0
10
13.75
20
-0.358506737
11
13.75
21
41.8937538
0
LINE
8
0
10
13.75
20
41.8937538
11
13.75
21
45.7697415
0
LINE
8
0
10
13.75
20
45.7697415
11
13.75
21
46.0521913
0
LINE
8
0
10
13.75
20
46.0521913
11
13.75
21
46.5
0
LINE
8
0
10
13.75
20
46.5
11
13.5748435
21
46.5
0
LINE
8
0
10
13.5748435
20
46.5
11
13.555233
21
46.5
0
LINE
8
0
10
13.555233
20
46.5
11
13.5288514
21
46.5
0
LINE
8
0
10
13.5288514
20
46.5
11
13.4973012
21
46.5
0
LINE
8
0
10
13.4973012
20
46.5
11
13.463116
21
46.5
0
LINE
8
0
10
13.463116
20
46.5
11
13.4294883
21
46.5
0
LINE
8
0
10
13.4294883
20
46.5
11
13.3997351
21
46.5
0
LINE
8
0
10
13.3997351
20
46.5
11
13.3766632
21
46.5
0
LINE
8
0
10
13.3766632
20
46.5
11
13.3620759
21
46.5
0
LINE
8
0
10
13.3620759
20
46.5
11
11.9046574
21
46.5
0
LINE
8
0
10
11.9046574
20
46.5
11
-15.0158986
21
46.5
0
LINE
8
0
10
-15.0158986
20
46.5
11
-15.0264149
21
46.5
0
LINE
8
0
10
-15.0264149
20
46.5
11
-15.0468195
21
46.5
0
LINE
8
0
10
-15.0468195
20
46.5
11
-15.0756429
21
46.5
0
LINE
8
0
10
-15.0756429
20
46.5
11
-15.1102005
21
46.5
0
LINE
8
0
10
-15.1102005
20
46.5
11
-15.1470529
21
46.5
0
LINE
8
0
10
-15.1470529
20
46.5
11
-15.1826741
21
46.5
0
LINE
8
0
10
-15.1826741
20
46.5
11
-15.2140697
21
46.5
0
LINE
8
0
10
-15.2140697
20
46.5
11
-15.2140697
21
46.5
0
LINE
8
0
10
3.40226603
20
13.1730547
11
3.46199881
21
13.152765
0
LINE
8
0
10
3.46199881
20
13.152765
11
3.86631179
21
13.0154305
0
LINE
8
0
10
3.86631179
20
13.0154305
11
3.92885513
21
13.0071839
0
LINE
8
0
10
3.92885513
20
13.0071839
11
4.35219193
21
12.9513655
0
LINE
8
0
10
4.35219193
20
12.9513655
11
4.41514236
21
12.955479
0
LINE
8
0
10
4.41514236
20
12.955479
11
4.84123468
21
12.9833221
0
LINE
8
0
10
4.84123468
20
12.9833221
11
4.90217305
21
12.9996376
0
LINE
8
0
10
4.90217305
20
12.9996376
11
5.31464624
21
13.1100721
0
LINE
8
0
10
5.31464624
20
13.1100721
11
5.37123067
21
13.1379627
0
LINE
8
0
10
5.37123067
20
13.1379627
11
5.75423336
21
13.326745
0
LINE
8
0
10
5.75423336
20
13.326745
11
5.80428942
21
13.3651387
0
LINE
8
0
10
5.80428942
20
13.3651387
11
6.1431036
21
13.6250134
0
LINE
8
0
10
6.1431036
20
13.6250134
11
6.18470754
21
13.6724348
0
LINE
8
0
10
6.18470754
20
13.6724348
11
6.46631193
21
13.9934158
0
LINE
8
0
10
6.46631193
20
13.9934158
11
6.49786507
21
14.0480426
0
LINE
8
0
10
6.49786507
20
14.0480426
11
6.71143866
21
14.4177942
0
LINE
8
0
10
6.71143866
20
14.4177942
11
6.73172839
21
14.477527
0
LINE
8
0
10
6.73172839
20
14.477527
11
6.86906338
21
14.8818398
0
LINE
8
0
10
6.86906338
20
14.8818398
11
6.87730987
21
14.9443831
0
LINE
8
0
10
6.87730987
20
14.9443831
11
6.93312788
21
15.3677197
0
LINE
8
0
10
6.93312788
20
15.3677197
11
6.92901436
21
15.4306702
0
LINE
8
0
10
6.92901436
20
15.4306702
11
6.90117121
21
15.8567629
0
LINE
8
0
10
6.90117121
20
15.8567629
11
6.88485573
21
15.9177011
0
LINE
8
0
10
6.88485573
20
15.9177011
11
6.77442122
21
16.3301735
0
LINE
8
0
10
6.77442122
20
16.3301735
11
6.74653076
21
16.3867581
0
LINE
8
0
10
6.74653076
20
16.3867581
11
6.55774879
21
16.769762
0
LINE
8
0
10
6.55774879
20
16.769762
11
6.51935511
21
16.8198181
0
LINE
8
0
10
6.51935511
20
16.8198181
11
6.25948
21
17.1586323
0
LINE
8
0
10
6.25948
20
17.1586323
11
-5.64999221
21
29.8792751
0
LINE
8
0
10
-5.64999221
20
29.8792751
11
-7.40948534
21
31.7586098
0
LINE
8
0
10
-7.40948534
20
31.7586098
11
-7.45690675
21
31.8002137
0
LINE
8
0
10
-7.45690675
20
31.8002137
11
-7.77788782
21
32.0818176
0
LINE
8
0
10
-7.77788782
20
32.0818176
11
-7.83251449
21
32.113371
0
LINE
8
0
10
-7.83251449
20
32.113371
11
-8.20226574
21
32.3269463
0
LINE
8
0
10
-8.20226574
20
32.3269463
11
-8.26199861
21
32.3472358
0
LINE
8
0
10
-8.26199861
20
32.3472358
11
-8.66631222
21
32.4845695
0
LINE
8
0
10
-8.66631222
20
32.4845695
11
-8.72885553
21
32.492816
0
LINE
8
0
10
-8.72885553
20
32.492816
11
-9.15219212
21
32.5486336
0
LINE
8
0
10
-9.15219212
20
32.5486336
11
-9.21514249
21
32.5445202
0
LINE
8
0
10
-9.21514249
20
32.5445202
11
-9.6412344
21
32.5166779
0
LINE
8
0
10
-9.6412344
20
32.5166779
11
-9.70217276
21
32.5003623
0
LINE
8
0
10
-9.70217276
20
32.5003623
11
-10.114646
21
32.3899269
0
LINE
8
0
10
-10.114646
20
32.3899269
11
-10.1712304
21
32.3620366
0
LINE
8
0
10
-10.1712304
20
32.3620366
11
-10.5542336
21
32.1732559
0
LINE
8
0
10
-10.5542336
20
32.1732559
11
-10.6042896
21
32.1348622
0
LINE
8
0
10
-10.6042896
20
32.1348622
11
-10.9431038
21
31.8749866
0
LINE
8
0
10
-10.9431038
20
31.8749866
11
-10.9847078
21
31.8275652
0
LINE
8
0
10
-10.9847078
20
31.8275652
11
-11.2663126
21
31.5065842
0
LINE
8
0
10
-11.2663126
20
31.5065842
11
-11.2978656
21
31.4519576
0
LINE
8
0
10
-11.2978656
20
31.4519576
11
-11.5114384
21
31.0822067
0
LINE
8
0
10
-11.5114384
20
31.0822067
11
-11.5317282
21
31.0224739
0
LINE
8
0
10
-11.5317282
20
31.0224739
11
-11.6690636
21
30.6181602
0
LINE
8
0
10
-11.6690636
20
30.6181602
11
-11.6773101
21
30.5556169
0
LINE
8
0
10
-11.6773101
20
30.5556169
11
-11.7331285
21
30.1322803
0
LINE
8
0
10
-11.7331285
20
30.1322803
11
-11.729015
21
30.06933
0
LINE
8
0
10
-11.729015
20
30.06933
11
-11.7011719
21
29.6432381
0
LINE
8
0
10
-11.7011719
20
29.6432381
11
-11.6848563
21
29.5822997
0
LINE
8
0
10
-11.6848563
20
29.5822997
11
-11.5744209
21
29.1698265
0
LINE
8
0
10
-11.5744209
20
29.1698265
11
-11.5465305
21
29.1132419
0
LINE
8
0
10
-11.5465305
20
29.1132419
11
-11.357749
21
28.730238
0
LINE
8
0
10
-11.357749
20
28.730238
11
-11.3193552
21
28.6801819
0
LINE
8
0
10
-11.3193552
20
28.6801819
11
-11.0594797
21
28.3413677
0
LINE
8
0
10
-11.0594797
20
28.3413677
11
0.849992292
21
15.6207249
0
LINE
8
0
10
0.849992292
20
15.6207249
11
2.60948539
21
13.7413902
0
LINE
8
0
10
2.60948539
20
13.7413902
11
2.65690677
21
13.6997862
0
LINE
8
0
10
2.65690677
20
13.6997862
11
2.97788763
21
13.4181814
0
LINE
8
0
10
2.97788763
20
13.4181814
11
3.03251436
21
13.3866283
0
LINE
8
0
10
3.03251436
20
13.3866283
11
3.40226603
21
13.1730547
0
LINE
8
0
10
3.40226603
20
13.1730547
11
3.40226603
21
13.1730547
0
LINE
8
0
10
-2.10171994
20
29.7847046
11
-2.14011359
21
29.8347607
0
LINE
8
0
10
-2.14011359
20
29.8347607
11
-2.32889577
21
30.2177646
0
LINE
8
0
10
-2.32889577
20
30.2177646
11
-2.35678625
21
30.2743492
0
LINE
8
0
10
-2.35678625
20
30.2743492
11
-2.46722076
21
30.6868207
0
LINE
8
0
10
-2.46722076
20
30.6868207
11
-2.48353624
21
30.7477589
0
LINE
8
0
10
-2.48353624
20
30.7477589
11
-2.5113794
21
31.1738524
0
LINE
8
0
10
-2.5113794
20
31.1738524
11
-2.51549292
21
31.2368031
0
LINE
8
0
10
-2.51549292
20
31.2368031
11
-2.45967449
21
31.6601396
0
LINE
8
0
10
-2.45967449
20
31.6601396
11
-2.45142794
21
31.722683
0
LINE
8
0
10
-2.45142794
20
31.722683
11
-2.31409336
21
32.1269966
0
LINE
8
0
10
-2.31409336
20
32.1269966
11
-2.29380369
21
32.1867294
0
LINE
8
0
10
-2.29380369
20
32.1867294
11
-2.08023011
21
32.5564803
0
LINE
8
0
10
-2.08023011
20
32.5564803
11
-2.04867697
21
32.6111069
0
LINE
8
0
10
-2.04867697
20
32.6111069
11
-1.76707237
21
32.9320863
0
LINE
8
0
10
-1.76707237
20
32.9320863
11
-1.7254684
21
32.9795074
0
LINE
8
0
10
-1.7254684
20
32.9795074
11
-1.38665442
21
33.2393846
0
LINE
8
0
10
-1.38665442
20
33.2393846
11
-1.3365984
21
33.2777786
0
LINE
8
0
10
-1.3365984
20
33.2777786
11
-0.953595547
21
33.4665593
0
LINE
8
0
10
-0.953595547
20
33.4665593
11
-0.897011101
21
33.4944496
0
LINE
8
0
10
-0.897011101
20
33.4944496
11
-0.484538009
21
33.604885
0
LINE
8
0
10
-0.484538009
20
33.604885
11
-0.42359966
21
33.6212006
0
LINE
8
0
10
-0.42359966
20
33.6212006
11
0.00249261381
21
33.6490429
0
LINE
8
0
10
0.00249261381
20
33.6490429
11
0.0654430464
21
33.6531563
0
LINE
8
0
10
0.0654430464
20
33.6531563
11
0.488779991
21
33.5973387
0
LINE
8
0
10
0.488779991
20
33.5973387
11
0.551323354
21
33.5890923
0
LINE
8
0
10
0.551323354
20
33.5890923
11
0.955636387
21
33.4517585
0
LINE
8
0
10
0.955636387
20
33.4517585
11
1.01536918
21
33.431469
0
LINE
8
0
10
1.01536918
20
33.431469
11
1.38512074
21
33.2178937
0
LINE
8
0
10
1.38512074
20
33.2178937
11
1.43974745
21
33.1863403
0
LINE
8
0
10
1.43974745
20
33.1863403
11
1.76072831
21
32.9047364
0
LINE
8
0
10
1.76072831
20
32.9047364
11
1.8081497
21
32.8631325
0
LINE
8
0
10
1.8081497
20
32.8631325
11
2.68789627
21
31.923465
0
LINE
8
0
10
2.68789627
20
31.923465
11
8.64263248
21
25.5631428
0
LINE
8
0
10
8.64263248
20
25.5631428
11
8.90250718
21
25.2243286
0
LINE
8
0
10
8.90250718
20
25.2243286
11
8.9409008
21
25.1742725
0
LINE
8
0
10
8.9409008
20
25.1742725
11
9.12968319
21
24.7912703
0
LINE
8
0
10
9.12968319
20
24.7912703
11
9.1575737
21
24.7346859
0
LINE
8
0
10
9.1575737
20
24.7346859
11
9.26800821
21
24.3222127
0
LINE
8
0
10
9.26800821
20
24.3222127
11
9.28432369
21
24.2612743
0
LINE
8
0
10
9.28432369
20
24.2612743
11
9.31216685
21
23.8351824
0
LINE
8
0
10
9.31216685
20
23.8351824
11
9.31628036
21
23.7722321
0
LINE
8
0
10
9.31628036
20
23.7722321
11
9.26046194
21
23.3488955
0
LINE
8
0
10
9.26046194
20
23.3488955
11
9.25221539
21
23.2863522
0
LINE
8
0
10
9.25221539
20
23.2863522
11
9.11488081
21
22.8820386
0
LINE
8
0
10
9.11488081
20
22.8820386
11
9.09459114
21
22.8223057
0
LINE
8
0
10
9.09459114
20
22.8223057
11
8.88101756
21
22.4525532
0
LINE
8
0
10
8.88101756
20
22.4525532
11
8.84946442
21
22.3979263
0
LINE
8
0
10
8.84946442
20
22.3979263
11
8.56785961
21
22.0769469
0
LINE
8
0
10
8.56785961
20
22.0769469
11
8.52625561
21
22.0295258
0
LINE
8
0
10
8.52625561
20
22.0295258
11
8.18744226
21
21.7696502
0
LINE
8
0
10
8.18744226
20
21.7696502
11
8.13738632
21
21.7312565
0
LINE
8
0
10
8.13738632
20
21.7312565
11
7.75438321
21
21.5424741
0
LINE
8
0
10
7.75438321
20
21.5424741
11
7.69779873
21
21.5145836
0
LINE
8
0
10
7.69779873
20
21.5145836
11
7.28532553
21
21.4041499
0
LINE
8
0
10
7.28532553
20
21.4041499
11
7.22438717
21
21.3878345
0
LINE
8
0
10
7.22438717
20
21.3878345
11
6.79829485
21
21.3599906
0
LINE
8
0
10
6.79829485
20
21.3599906
11
6.73534441
21
21.3558769
0
LINE
8
0
10
6.73534441
20
21.3558769
11
6.31200741
21
21.4116962
0
LINE
8
0
10
6.31200741
20
21.4116962
11
6.24946404
21
21.4199429
0
LINE
8
0
10
6.24946404
20
21.4199429
11
5.84515126
21
21.5572766
0
LINE
8
0
10
5.84515126
20
21.5572766
11
5.78541851
21
21.5775661
0
LINE
8
0
10
5.78541851
20
21.5775661
11
5.41566684
21
21.7911397
0
LINE
8
0
10
5.41566684
20
21.7911397
11
5.36104012
21
21.8226929
0
LINE
8
0
10
5.36104012
20
21.8226929
11
5.04005905
21
22.1042968
0
LINE
8
0
10
5.04005905
20
22.1042968
11
4.99263763
21
22.1459007
0
LINE
8
0
10
4.99263763
20
22.1459007
11
4.11289107
21
23.0855682
0
LINE
8
0
10
4.11289107
20
23.0855682
11
-1.84184504
21
29.4458904
0
LINE
8
0
10
-1.84184504
20
29.4458904
11
-2.10171994
21
29.7847046
0
LINE
8
0
10
-2.10171994
20
29.7847046
11
-2.10171994
21
29.7847046
0
LINE
8
0
10
-1.67404032
20
13.0568419
11
-1.66579378
21
13.1193853
0
LINE
8
0
10
-1.66579378
20
13.1193853
11
-1.60997546
21
13.5427227
0
LINE
8
0
10
-1.60997546
20
13.5427227
11
-1.61408896
21
13.6056731
0
LINE
8
0
10
-1.61408896
20
13.6056731
11
-1.64193201
21
14.031765
0
LINE
8
0
10
-1.64193201
20
14.031765
11
-1.65824751
21
14.0927033
0
LINE
8
0
10
-1.65824751
20
14.0927033
11
-1.76868212
21
14.5051765
0
LINE
8
0
10
-1.76868212
20
14.5051765
11
-1.79657261
21
14.561761
0
LINE
8
0
10
-1.79657261
20
14.561761
11
-1.98535478
21
14.9447641
0
LINE
8
0
10
-1.98535478
20
14.9447641
11
-2.02374845
21
14.9948202
0
LINE
8
0
10
-2.02374845
20
14.9948202
11
-2.28362346
21
15.3336344
0
LINE
8
0
10
-2.28362346
20
15.3336344
11
-8.23835936
21
21.6939558
0
LINE
8
0
10
-8.23835936
20
21.6939558
11
-9.11810589
21
22.6336231
0
LINE
8
0
10
-9.11810589
20
22.6336231
11
-9.1655273
21
22.6752272
0
LINE
8
0
10
-9.1655273
20
22.6752272
11
-9.48650837
21
22.9568329
0
LINE
8
0
10
-9.48650837
20
22.9568329
11
-9.5411351
21
22.9883858
0
LINE
8
0
10
-9.5411351
20
22.9883858
11
-9.91088676
21
23.2019577
0
LINE
8
0
10
-9.91088676
20
23.2019577
11
-9.97061952
21
23.2222475
0
LINE
8
0
10
-9.97061952
20
23.2222475
11
-10.3749323
21
23.3595829
0
LINE
8
0
10
-10.3749323
20
23.3595829
11
-10.4374757
21
23.3678296
0
LINE
8
0
10
-10.4374757
20
23.3678296
11
-10.8608131
21
23.4236488
0
LINE
8
0
10
-10.8608131
20
23.4236488
11
-10.9237635
21
23.4195352
0
LINE
8
0
10
-10.9237635
20
23.4195352
11
-11.3498554
21
23.3916912
0
LINE
8
0
10
-11.3498554
20
23.3916912
11
-11.4107938
21
23.3753756
0
LINE
8
0
10
-11.4107938
20
23.3753756
11
-11.823267
21
23.2649403
0
LINE
8
0
10
-11.823267
20
23.2649403
11
-11.8798515
21
23.23705
0
LINE
8
0
10
-11.8798515
20
23.23705
11
-12.2628546
21
23.0482693
0
LINE
8
0
10
-12.2628546
20
23.0482693
11
-12.3129105
21
23.0098755
0
LINE
8
0
10
-12.3129105
20
23.0098755
11
-12.6517239
21
22.75
0
LINE
8
0
10
-12.6517239
20
22.75
11
-12.6933279
21
22.7025786
0
LINE
8
0
10
-12.6933279
20
22.7025786
11
-12.9749327
21
22.3815975
0
LINE
8
0
10
-12.9749327
20
22.3815975
11
-13.0064858
21
22.3269709
0
LINE
8
0
10
-13.0064858
20
22.3269709
11
-13.2200594
21
21.9572201
0
LINE
8
0
10
-13.2200594
20
21.9572201
11
-13.2403491
21
21.8974872
0
LINE
8
0
10
-13.2403491
20
21.8974872
11
-13.3776836
21
21.4931736
0
LINE
8
0
10
-13.3776836
20
21.4931736
11
-13.3859302
21
21.4306303
0
LINE
8
0
10
-13.3859302
20
21.4306303
11
-13.4417486
21
21.0072937
0
LINE
8
0
10
-13.4417486
20
21.0072937
11
-13.4376351
21
20.9443433
0
LINE
8
0
10
-13.4376351
20
20.9443433
11
-13.4097919
21
20.5182514
0
LINE
8
0
10
-13.4097919
20
20.5182514
11
-13.3934765
21
20.4573131
0
LINE
8
0
10
-13.3934765
20
20.4573131
11
-13.283042
21
20.0448399
0
LINE
8
0
10
-13.283042
20
20.0448399
11
-13.2551514
21
19.9882553
0
LINE
8
0
10
-13.2551514
20
19.9882553
11
-13.0663691
21
19.6052513
0
LINE
8
0
10
-13.0663691
20
19.6052513
11
-13.0279754
21
19.5551953
0
LINE
8
0
10
-13.0279754
20
19.5551953
11
-12.7681007
21
19.2163811
0
LINE
8
0
10
-12.7681007
20
19.2163811
11
-6.81336463
21
12.8560596
0
LINE
8
0
10
-6.81336463
20
12.8560596
11
-5.93361807
21
11.9163923
0
LINE
8
0
10
-5.93361807
20
11.9163923
11
-5.88619672
21
11.8747883
0
LINE
8
0
10
-5.88619672
20
11.8747883
11
-5.56521606
21
11.5931835
0
LINE
8
0
10
-5.56521606
20
11.5931835
11
-5.51058934
21
11.5616305
0
LINE
8
0
10
-5.51058934
20
11.5616305
11
-5.14083767
21
11.3480577
0
LINE
8
0
10
-5.14083767
20
11.3480577
11
-5.08110486
21
11.327768
0
LINE
8
0
10
-5.08110486
20
11.327768
11
-4.67679167
21
11.1904325
0
LINE
8
0
10
-4.67679167
20
11.1904325
11
-4.6142483
21
11.182186
0
LINE
8
0
10
-4.6142483
20
11.182186
11
-4.19091129
21
11.1263676
0
LINE
8
0
10
-4.19091129
20
11.1263676
11
-4.12796088
21
11.1304811
0
LINE
8
0
10
-4.12796088
20
11.1304811
11
-3.70186877
21
11.1583242
0
LINE
8
0
10
-3.70186877
20
11.1583242
11
-3.64093041
21
11.1746398
0
LINE
8
0
10
-3.64093041
20
11.1746398
11
-3.22845721
21
11.2850752
0
LINE
8
0
10
-3.22845721
20
11.2850752
11
-3.17187279
21
11.3129656
0
LINE
8
0
10
-3.17187279
20
11.3129656
11
-2.7888701
21
11.5017471
0
LINE
8
0
10
-2.7888701
20
11.5017471
11
-2.73881407
21
11.5401409
0
LINE
8
0
10
-2.73881407
20
11.5401409
11
-2.4000001
21
11.8000164
0
LINE
8
0
10
-2.4000001
20
11.8000164
11
-2.35839609
21
11.8474377
0
LINE
8
0
10
-2.35839609
20
11.8474377
11
-2.07679129
21
12.1684179
0
LINE
8
0
10
-2.07679129
20
12.1684179
11
-2.04523818
21
12.2230447
0
LINE
8
0
10
-2.04523818
20
12.2230447
11
-1.8316648
21
12.5927963
0
LINE
8
0
10
-1.8316648
20
12.5927963
11
-1.8113751
21
12.6525291
0
LINE
8
0
10
-1.8113751
20
12.6525291
11
-1.67404032
21
13.0568419
0
LINE
8
0
10
-1.67404032
20
13.0568419
11
-1.67404032
21
13.0568419
0
ENDSEC
0
EOF
