0
SECTION
2
ENTITIES
0
LINE
8
0
10
-17.6537639
20
-1.10000002
11
-15.6475753
21
-1.10000002
0
LINE
8
0
10
-15.6475753
20
-1.10000002
11
-15.3628301
21
-1.10000002
0
LINE
8
0
10
-15.3628301
20
-1.10000002
11
-15.3515719
21
-1.10000002
0
LINE
8
0
10
-15.3515719
20
-1.10000002
11
-15.3355649
21
-1.10000002
0
LINE
8
0
10
-15.3355649
20
-1.10000002
11
-15.315524
21
-1.10000002
0
LINE
8
0
10
-15.315524
20
-1.10000002
11
-15.2927858
21
-1.10000002
0
LINE
8
0
10
-15.2927858
20
-1.10000002
11
-15.2692617
21
-1.10000002
0
LINE
8
0
10
-15.2692617
20
-1.10000002
11
-15.2472025
21
-1.10000002
0
LINE
8
0
10
-15.2472025
20
-1.10000002
11
-15.2288036
21
-1.10000002
0
LINE
8
0
10
-15.2288036
20
-1.10000002
11
-15.2157787
21
-1.10000002
0
LINE
8
0
10
-15.2157787
20
-1.10000002
11
-15.2090658
21
-1.10000002
0
LINE
8
0
10
-15.2090658
20
-1.10000002
11
12.5720579
21
-1.10000002
0
LINE
8
0
10
12.5720579
20
-1.10000002
11
13.5023754
21
-1.10000002
0
LINE
8
0
10
13.5023754
20
-1.10000002
11
13.511687
21
-1.10000002
0
LINE
8
0
10
13.511687
20
-1.10000002
11
13.5264145
21
-1.10000002
0
LINE
8
0
10
13.5264145
20
-1.10000002
11
13.545407
21
-1.10000002
0
LINE
8
0
10
13.545407
20
-1.10000002
11
13.5668726
21
-1.10000002
0
LINE
8
0
10
13.5668726
20
-1.10000002
11
13.5886942
21
-1.10000002
0
LINE
8
0
10
13.5886942
20
-1.10000002
11
13.6088337
21
-1.10000002
0
LINE
8
0
10
13.6088337
20
-1.10000002
11
13.6256739
21
-1.10000002
0
LINE
8
0
10
13.6256739
20
-1.10000002
11
13.6381919
21
-1.10000002
0
LINE
8
0
10
13.6381919
20
-1.10000002
11
13.75
21
-1.10000002
0
LINE
8
0
10
13.75
20
-1.10000002
11
13.75
21
-0.808432169
0
LINE
8
0
10
13.75
20
-0.808432169
11
13.75
21
-0.626680789
0
LINE
8
0
10
13.75
20
-0.626680789
11
13.75
21
43.5596835
0
LINE
8
0
10
13.75
20
43.5596835
11
13.75
21
46.0338523
0
LINE
8
0
10
13.75
20
46.0338523
11
13.75
21
46.2141492
0
LINE
8
0
10
13.75
20
46.2141492
11
13.75
21
46.5
0
LINE
8
0
10
13.75
20
46.5
11
13.6381919
21
46.5
0
LINE
8
0
10
13.6381919
20
46.5
11
13.6256739
21
46.5
0
LINE
8
0
10
13.6256739
20
46.5
11
13.6088337
21
46.5
0
LINE
8
0
10
13.6088337
20
46.5
11
13.5886942
21
46.5
0
LINE
8
0
10
13.5886942
20
46.5
11
13.5668726
21
46.5
0
LINE
8
0
10
13.5668726
20
46.5
11
13.545407
21
46.5
0
LINE
8
0
10
13.545407
20
46.5
11
13.5264145
21
46.5
0
LINE
8
0
10
13.5264145
20
46.5
11
13.511687
21
46.5
0
LINE
8
0
10
13.511687
20
46.5
11
13.5023754
21
46.5
0
LINE
8
0
10
13.5023754
20
46.5
11
12.5720579
21
46.5
0
LINE
8
0
10
12.5720579
20
46.5
11
-15.2090658
21
46.5
0
LINE
8
0
10
-15.2090658
20
46.5
11
-15.2157787
21
46.5
0
LINE
8
0
10
-15.2157787
20
46.5
11
-15.2288036
21
46.5
0
LINE
8
0
10
-15.2288036
20
46.5
11
-15.2472025
21
46.5
0
LINE
8
0
10
-15.2472025
20
46.5
11
-15.2692617
21
46.5
0
LINE
8
0
10
-15.2692617
20
46.5
11
-15.2927858
21
46.5
0
LINE
8
0
10
-15.2927858
20
46.5
11
-15.315524
21
46.5
0
LINE
8
0
10
-15.315524
20
46.5
11
-15.3355649
21
46.5
0
LINE
8
0
10
-15.3355649
20
46.5
11
-15.3515719
21
46.5
0
LINE
8
0
10
-15.3515719
20
46.5
11
-15.3628301
21
46.5
0
LINE
8
0
10
-15.3628301
20
46.5
11
-15.6475753
21
46.5
0
LINE
8
0
10
-15.6475753
20
46.5
11
-18.5499992
21
46.5
0
LINE
8
0
10
-18.5499992
20
46.5
11
-18.5499992
21
45.9290518
0
LINE
8
0
10
-18.5499992
20
45.9290518
11
-18.5499992
21
45.1700873
0
LINE
8
0
10
-18.5499992
20
45.1700873
11
-18.5499992
21
45.1001015
0
LINE
8
0
10
-18.5499992
20
45.1001015
11
-18.5499992
21
44.9553244
0
LINE
8
0
10
-18.5499992
20
44.9553244
11
-18.5499992
21
44.7392717
0
LINE
8
0
10
-18.5499992
20
44.7392717
11
-18.5499992
21
44.4614406
0
LINE
8
0
10
-18.5499992
20
44.4614406
11
-18.5499992
21
43.3598133
0
LINE
8
0
10
-18.5499992
20
43.3598133
11
-18.5499992
21
43.1375293
0
LINE
8
0
10
-18.5499992
20
43.1375293
11
-18.5499992
21
42.8639068
0
LINE
8
0
10
-18.5499992
20
42.8639068
11
-18.5499992
21
42.3415264
0
LINE
8
0
10
-18.5499992
20
42.3415264
11
-18.5499992
21
42.0603475
0
LINE
8
0
10
-18.5499992
20
42.0603475
11
-18.5499992
21
41.7597526
0
LINE
8
0
10
-18.5499992
20
41.7597526
11
-18.5499992
21
41.4665536
0
LINE
8
0
10
-18.5499992
20
41.4665536
11
-18.5499992
21
41.2047581
0
LINE
8
0
10
-18.5499992
20
41.2047581
11
-18.5499992
21
40.3383794
0
LINE
8
0
10
-18.5499992
20
40.3383794
11
-18.5499992
21
32.9555462
0
LINE
8
0
10
-18.5499992
20
32.9555462
11
-18.5499992
21
31.370227
0
LINE
8
0
10
-18.5499992
20
31.370227
11
-18.5499992
21
26.8647233
0
LINE
8
0
10
-18.5499992
20
26.8647233
11
-18.5499992
21
16.2785507
0
LINE
8
0
10
-18.5499992
20
16.2785507
11
-18.5499992
21
11.014285
0
LINE
8
0
10
-18.5499992
20
11.014285
11
-18.5499992
21
5.87131407
0
LINE
8
0
10
-18.5499992
20
5.87131407
11
-18.5499992
21
3.65042791
0
LINE
8
0
10
-18.5499992
20
3.65042791
11
-18.5499992
21
3.38534206
0
LINE
8
0
10
-18.5499992
20
3.38534206
11
-18.5499992
21
2.87016603
0
LINE
8
0
10
-18.5499992
20
2.87016603
11
-18.5499992
21
2.61357077
0
LINE
8
0
10
-18.5499992
20
2.61357077
11
-18.5499992
21
2.41339697
0
LINE
8
0
10
-18.5499992
20
2.41339697
11
-18.5499992
21
1.28672304
0
LINE
8
0
10
-18.5499992
20
1.28672304
11
-18.5499992
21
1.02833689
0
LINE
8
0
10
-18.5499992
20
1.02833689
11
-18.5499992
21
0.8361061
0
LINE
8
0
10
-18.5499992
20
0.8361061
11
-18.5499992
21
0.717182205
0
LINE
8
0
10
-18.5499992
20
0.717182205
11
-18.5499992
21
-0.397007309
0
LINE
8
0
10
-18.5499992
20
-0.397007309
11
-18.5499992
21
-0.466760721
0
LINE
8
0
10
-18.5499992
20
-0.466760721
11
-18.5499992
21
-1.10000002
0
LINE
8
0
10
-18.5499992
20
-1.10000002
11
-17.6537639
21
-1.10000002
0
LINE
8
0
10
-17.6537639
20
-1.10000002
11
-17.6537639
21
-1.10000002
0
LINE
8
0
10
-5.90334748
20
11.8898351
11
-5.56521606
21
11.5931835
0
LINE
8
0
10
-5.56521606
20
11.5931835
11
-5.53034605
21
11.5730422
0
LINE
8
0
10
-5.53034605
20
11.5730422
11
-5.14083767
21
11.3480577
0
LINE
8
0
10
-5.14083767
20
11.3480577
11
-5.10270828
21
11.3351061
0
LINE
8
0
10
-5.10270828
20
11.3351061
11
-4.67679167
21
11.1904325
0
LINE
8
0
10
-4.67679167
20
11.1904325
11
-4.6368682
21
11.1851685
0
LINE
8
0
10
-4.6368682
20
11.1851685
11
-4.19091129
21
11.1263676
0
LINE
8
0
10
-4.19091129
20
11.1263676
11
-4.150728
21
11.1289934
0
LINE
8
0
10
-4.150728
20
11.1289934
11
-3.70186877
21
11.1583242
0
LINE
8
0
10
-3.70186877
20
11.1583242
11
-3.66296984
21
11.168739
0
LINE
8
0
10
-3.66296984
20
11.168739
11
-3.22845721
21
11.2850752
0
LINE
8
0
10
-3.22845721
20
11.2850752
11
-3.19233754
21
11.3028785
0
LINE
8
0
10
-3.19233754
20
11.3028785
11
-2.7888701
21
11.5017471
0
LINE
8
0
10
-2.7888701
20
11.5017471
11
-2.75691771
21
11.5262551
0
LINE
8
0
10
-2.75691771
20
11.5262551
11
-2.4000001
21
11.8000164
0
LINE
8
0
10
-2.4000001
20
11.8000164
11
-2.37344291
21
11.830287
0
LINE
8
0
10
-2.37344291
20
11.830287
11
-2.07679129
21
12.1684179
0
LINE
8
0
10
-2.07679129
20
12.1684179
11
-2.05664991
21
12.2032879
0
LINE
8
0
10
-2.05664991
20
12.2032879
11
-1.8316648
21
12.5927963
0
LINE
8
0
10
-1.8316648
20
12.5927963
11
-1.81871323
21
12.6309257
0
LINE
8
0
10
-1.81871323
20
12.6309257
11
-1.67404032
21
13.0568419
0
LINE
8
0
10
-1.67404032
20
13.0568419
11
-1.66877628
21
13.0967654
0
LINE
8
0
10
-1.66877628
20
13.0967654
11
-1.60997546
21
13.5427227
0
LINE
8
0
10
-1.60997546
20
13.5427227
11
-1.61260124
21
13.582906
0
LINE
8
0
10
-1.61260124
20
13.582906
11
-1.64193201
21
14.031765
0
LINE
8
0
10
-1.64193201
20
14.031765
11
-1.65234672
21
14.0706639
0
LINE
8
0
10
-1.65234672
20
14.0706639
11
-1.76868212
21
14.5051765
0
LINE
8
0
10
-1.76868212
20
14.5051765
11
-1.78648552
21
14.5412963
0
LINE
8
0
10
-1.78648552
20
14.5412963
11
-1.98535478
21
14.9447641
0
LINE
8
0
10
-1.98535478
20
14.9447641
11
-2.0098627
21
14.9767165
0
LINE
8
0
10
-2.0098627
20
14.9767165
11
-2.28362346
21
15.3336344
0
LINE
8
0
10
-2.28362346
20
15.3336344
11
-8.55653512
21
22.033803
0
LINE
8
0
10
-8.55653512
20
22.033803
11
-9.11810589
21
22.6336231
0
LINE
8
0
10
-9.11810589
20
22.6336231
11
-9.14837651
21
22.6601804
0
LINE
8
0
10
-9.14837651
20
22.6601804
11
-9.48650837
21
22.9568329
0
LINE
8
0
10
-9.48650837
20
22.9568329
11
-9.52137838
21
22.9769741
0
LINE
8
0
10
-9.52137838
20
22.9769741
11
-9.91088676
21
23.2019577
0
LINE
8
0
10
-9.91088676
20
23.2019577
11
-9.94901612
21
23.2149093
0
LINE
8
0
10
-9.94901612
20
23.2149093
11
-10.3749323
21
23.3595829
0
LINE
8
0
10
-10.3749323
20
23.3595829
11
-10.4148558
21
23.364847
0
LINE
8
0
10
-10.4148558
20
23.364847
11
-10.8608131
21
23.4236488
0
LINE
8
0
10
-10.8608131
20
23.4236488
11
-10.9009964
21
23.421023
0
LINE
8
0
10
-10.9009964
20
23.421023
11
-11.3498554
21
23.3916912
0
LINE
8
0
10
-11.3498554
20
23.3916912
11
-11.3887544
21
23.3812764
0
LINE
8
0
10
-11.3887544
20
23.3812764
11
-11.823267
21
23.2649403
0
LINE
8
0
10
-11.823267
20
23.2649403
11
-11.8593867
21
23.247137
0
LINE
8
0
10
-11.8593867
20
23.247137
11
-12.2628546
21
23.0482693
0
LINE
8
0
10
-12.2628546
20
23.0482693
11
-12.2948069
21
23.0237613
0
LINE
8
0
10
-12.2948069
20
23.0237613
11
-12.6517239
21
22.75
0
LINE
8
0
10
-12.6517239
20
22.75
11
-12.678281
21
22.7197294
0
LINE
8
0
10
-12.678281
20
22.7197294
11
-12.9749327
21
22.3815975
0
LINE
8
0
10
-12.9749327
20
22.3815975
11
-12.9950741
21
22.3467276
0
LINE
8
0
10
-12.9950741
20
22.3467276
11
-13.2200594
21
21.9572201
0
LINE
8
0
10
-13.2200594
20
21.9572201
11
-13.2330109
21
21.9190906
0
LINE
8
0
10
-13.2330109
20
21.9190906
11
-13.3776836
21
21.4931736
0
LINE
8
0
10
-13.3776836
20
21.4931736
11
-13.3829477
21
21.4532502
0
LINE
8
0
10
-13.3829477
20
21.4532502
11
-13.4417486
21
21.0072937
0
LINE
8
0
10
-13.4417486
20
21.0072937
11
-13.4391228
21
20.9671104
0
LINE
8
0
10
-13.4391228
20
20.9671104
11
-13.4097919
21
20.5182514
0
LINE
8
0
10
-13.4097919
20
20.5182514
11
-13.3993772
21
20.4793525
0
LINE
8
0
10
-13.3993772
20
20.4793525
11
-13.283042
21
20.0448399
0
LINE
8
0
10
-13.283042
20
20.0448399
11
-13.2652385
21
20.0087201
0
LINE
8
0
10
-13.2652385
20
20.0087201
11
-13.0663691
21
19.6052513
0
LINE
8
0
10
-13.0663691
20
19.6052513
11
-13.0418612
21
19.5732989
0
LINE
8
0
10
-13.0418612
20
19.5732989
11
-12.7681007
21
19.2163811
0
LINE
8
0
10
-12.7681007
20
19.2163811
11
-6.49518886
21
12.5162125
0
LINE
8
0
10
-6.49518886
20
12.5162125
11
-5.93361807
21
11.9163923
0
LINE
8
0
10
-5.93361807
20
11.9163923
11
-5.90334748
21
11.8898351
0
LINE
8
0
10
-5.90334748
20
11.8898351
11
-5.90334748
21
11.8898351
0
LINE
8
0
10
3.40226603
20
13.1730547
11
3.01275765
21
13.39804
0
LINE
8
0
10
3.01275765
20
13.39804
11
2.97788763
21
13.4181814
0
LINE
8
0
10
2.97788763
20
13.4181814
11
2.63975599
21
13.714833
0
LINE
8
0
10
2.63975599
20
13.714833
11
2.60948539
21
13.7413902
0
LINE
8
0
10
2.60948539
20
13.7413902
11
1.48634383
21
14.9410305
0
LINE
8
0
10
1.48634383
20
14.9410305
11
-11.0594797
21
28.3413677
0
LINE
8
0
10
-11.0594797
20
28.3413677
11
-11.333241
21
28.6982856
0
LINE
8
0
10
-11.333241
20
28.6982856
11
-11.357749
21
28.730238
0
LINE
8
0
10
-11.357749
20
28.730238
11
-11.5566176
21
29.1337067
0
LINE
8
0
10
-11.5566176
20
29.1337067
11
-11.5744209
21
29.1698265
0
LINE
8
0
10
-11.5744209
20
29.1698265
11
-11.6907571
21
29.6043391
0
LINE
8
0
10
-11.6907571
20
29.6043391
11
-11.7011719
21
29.6432381
0
LINE
8
0
10
-11.7011719
20
29.6432381
11
-11.7305028
21
30.0920971
0
LINE
8
0
10
-11.7305028
20
30.0920971
11
-11.7331285
21
30.1322803
0
LINE
8
0
10
-11.7331285
20
30.1322803
11
-11.6743276
21
30.5782368
0
LINE
8
0
10
-11.6743276
20
30.5782368
11
-11.6690636
21
30.6181602
0
LINE
8
0
10
-11.6690636
20
30.6181602
11
-11.52439
21
31.0440773
0
LINE
8
0
10
-11.52439
20
31.0440773
11
-11.5114384
21
31.0822067
0
LINE
8
0
10
-11.5114384
20
31.0822067
11
-11.2864539
21
31.4717142
0
LINE
8
0
10
-11.2864539
20
31.4717142
11
-11.2663126
21
31.5065842
0
LINE
8
0
10
-11.2663126
20
31.5065842
11
-10.969661
21
31.844716
0
LINE
8
0
10
-10.969661
20
31.844716
11
-10.9431038
21
31.8749866
0
LINE
8
0
10
-10.9431038
20
31.8749866
11
-10.586186
21
32.1487479
0
LINE
8
0
10
-10.586186
20
32.1487479
11
-10.5542336
21
32.1732559
0
LINE
8
0
10
-10.5542336
20
32.1732559
11
-10.1507657
21
32.3721236
0
LINE
8
0
10
-10.1507657
20
32.3721236
11
-10.114646
21
32.3899269
0
LINE
8
0
10
-10.114646
20
32.3899269
11
-9.68013333
21
32.5062631
0
LINE
8
0
10
-9.68013333
20
32.5062631
11
-9.6412344
21
32.5166779
0
LINE
8
0
10
-9.6412344
20
32.5166779
11
-9.19237539
21
32.5460079
0
LINE
8
0
10
-9.19237539
20
32.5460079
11
-9.15219212
21
32.5486336
0
LINE
8
0
10
-9.15219212
20
32.5486336
11
-8.70623564
21
32.4898335
0
LINE
8
0
10
-8.70623564
20
32.4898335
11
-8.66631222
21
32.4845695
0
LINE
8
0
10
-8.66631222
20
32.4845695
11
-8.24039517
21
32.3398977
0
LINE
8
0
10
-8.24039517
20
32.3398977
11
-8.20226574
21
32.3269463
0
LINE
8
0
10
-8.20226574
20
32.3269463
11
-7.8127578
21
32.1019592
0
LINE
8
0
10
-7.8127578
20
32.1019592
11
-7.77788782
21
32.0818176
0
LINE
8
0
10
-7.77788782
20
32.0818176
11
-7.43975597
21
31.7851669
0
LINE
8
0
10
-7.43975597
20
31.7851669
11
-7.40948534
21
31.7586098
0
LINE
8
0
10
-7.40948534
20
31.7586098
11
-6.28634376
21
30.5589695
0
LINE
8
0
10
-6.28634376
20
30.5589695
11
6.25948
21
17.1586323
0
LINE
8
0
10
6.25948
20
17.1586323
11
6.53324086
21
16.8017144
0
LINE
8
0
10
6.53324086
20
16.8017144
11
6.55774879
21
16.769762
0
LINE
8
0
10
6.55774879
20
16.769762
11
6.75661783
21
16.3662933
0
LINE
8
0
10
6.75661783
20
16.3662933
11
6.77442122
21
16.3301735
0
LINE
8
0
10
6.77442122
20
16.3301735
11
6.89075651
21
15.8956617
0
LINE
8
0
10
6.89075651
20
15.8956617
11
6.90117121
21
15.8567629
0
LINE
8
0
10
6.90117121
20
15.8567629
11
6.93050209
21
15.407903
0
LINE
8
0
10
6.93050209
20
15.407903
11
6.93312788
21
15.3677197
0
LINE
8
0
10
6.93312788
20
15.3677197
11
6.87432738
21
14.9217632
0
LINE
8
0
10
6.87432738
20
14.9217632
11
6.86906338
21
14.8818398
0
LINE
8
0
10
6.86906338
20
14.8818398
11
6.72439025
21
14.4559236
0
LINE
8
0
10
6.72439025
20
14.4559236
11
6.71143866
21
14.4177942
0
LINE
8
0
10
6.71143866
20
14.4177942
11
6.48645333
21
14.0282858
0
LINE
8
0
10
6.48645333
20
14.0282858
11
6.46631193
21
13.9934158
0
LINE
8
0
10
6.46631193
20
13.9934158
11
6.16966075
21
13.655284
0
LINE
8
0
10
6.16966075
20
13.655284
11
6.1431036
21
13.6250134
0
LINE
8
0
10
6.1431036
20
13.6250134
11
5.78618577
21
13.3512529
0
LINE
8
0
10
5.78618577
20
13.3512529
11
5.75423336
21
13.326745
0
LINE
8
0
10
5.75423336
20
13.326745
11
5.35076592
21
13.1278756
0
LINE
8
0
10
5.35076592
20
13.1278756
11
5.31464624
21
13.1100721
0
LINE
8
0
10
5.31464624
20
13.1100721
11
4.88013362
21
12.9937368
0
LINE
8
0
10
4.88013362
20
12.9937368
11
4.84123468
21
12.9833221
0
LINE
8
0
10
4.84123468
20
12.9833221
11
4.39237523
21
12.9539913
0
LINE
8
0
10
4.39237523
20
12.9539913
11
4.35219193
21
12.9513655
0
LINE
8
0
10
4.35219193
20
12.9513655
11
3.90623523
21
13.0101664
0
LINE
8
0
10
3.90623523
20
13.0101664
11
3.86631179
21
13.0154305
0
LINE
8
0
10
3.86631179
20
13.0154305
11
3.4403954
21
13.1601031
0
LINE
8
0
10
3.4403954
20
13.1601031
11
3.40226603
21
13.1730547
0
LINE
8
0
10
3.40226603
20
13.1730547
11
3.40226603
21
13.1730547
0
LINE
8
0
10
-2.14011359
20
29.8347607
11
-2.33898285
21
30.2382294
0
LINE
8
0
10
-2.33898285
20
30.2382294
11
-2.35678625
21
30.2743492
0
LINE
8
0
10
-2.35678625
20
30.2743492
11
-2.47312154
21
30.7088601
0
LINE
8
0
10
-2.47312154
20
30.7088601
11
-2.48353624
21
30.7477589
0
LINE
8
0
10
-2.48353624
20
30.7477589
11
-2.51286712
21
31.1966196
0
LINE
8
0
10
-2.51286712
20
31.1966196
11
-2.51549292
21
31.2368031
0
LINE
8
0
10
-2.51549292
20
31.2368031
11
-2.45669198
21
31.6827595
0
LINE
8
0
10
-2.45669198
20
31.6827595
11
-2.45142794
21
31.722683
0
LINE
8
0
10
-2.45142794
20
31.722683
11
-2.30675525
21
32.1486
0
LINE
8
0
10
-2.30675525
20
32.1486
11
-2.29380369
21
32.1867294
0
LINE
8
0
10
-2.29380369
20
32.1867294
11
-2.06881836
21
32.5762369
0
LINE
8
0
10
-2.06881836
20
32.5762369
11
-2.04867697
21
32.6111069
0
LINE
8
0
10
-2.04867697
20
32.6111069
11
-1.75202556
21
32.949237
0
LINE
8
0
10
-1.75202556
20
32.949237
11
-1.7254684
21
32.9795074
0
LINE
8
0
10
-1.7254684
20
32.9795074
11
-1.36855078
21
33.2532705
0
LINE
8
0
10
-1.36855078
20
33.2532705
11
-1.3365984
21
33.2777786
0
LINE
8
0
10
-1.3365984
20
33.2777786
11
-0.93313079
21
33.4766464
0
LINE
8
0
10
-0.93313079
20
33.4766464
11
-0.897011101
21
33.4944496
0
LINE
8
0
10
-0.897011101
20
33.4944496
11
-0.462498587
21
33.6107858
0
LINE
8
0
10
-0.462498587
20
33.6107858
11
-0.42359966
21
33.6212006
0
LINE
8
0
10
-0.42359966
20
33.6212006
11
0.0252597418
21
33.6505306
0
LINE
8
0
10
0.0252597418
20
33.6505306
11
0.0654430464
21
33.6531563
0
LINE
8
0
10
0.0654430464
20
33.6531563
11
0.511399895
21
33.5943562
0
LINE
8
0
10
0.511399895
20
33.5943562
11
0.551323354
21
33.5890923
0
LINE
8
0
10
0.551323354
20
33.5890923
11
0.977239798
21
33.4444204
0
LINE
8
0
10
0.977239798
20
33.4444204
11
1.01536918
21
33.431469
0
LINE
8
0
10
1.01536918
20
33.431469
11
1.40487745
21
33.2064819
0
LINE
8
0
10
1.40487745
20
33.2064819
11
1.43974745
21
33.1863403
0
LINE
8
0
10
1.43974745
20
33.1863403
11
1.77787909
21
32.8896896
0
LINE
8
0
10
1.77787909
20
32.8896896
11
1.8081497
21
32.8631325
0
LINE
8
0
10
1.8081497
20
32.8631325
11
2.36972049
21
32.2633122
0
LINE
8
0
10
2.36972049
20
32.2633122
11
8.64263248
21
25.5631428
0
LINE
8
0
10
8.64263248
20
25.5631428
11
8.91639291
21
25.2062249
0
LINE
8
0
10
8.91639291
20
25.2062249
11
8.9409008
21
25.1742725
0
LINE
8
0
10
8.9409008
20
25.1742725
11
9.13977028
21
24.7708055
0
LINE
8
0
10
9.13977028
20
24.7708055
11
9.1575737
21
24.7346859
0
LINE
8
0
10
9.1575737
20
24.7346859
11
9.27390899
21
24.3001733
0
LINE
8
0
10
9.27390899
20
24.3001733
11
9.28432369
21
24.2612743
0
LINE
8
0
10
9.28432369
20
24.2612743
11
9.31365457
21
23.8124153
0
LINE
8
0
10
9.31365457
20
23.8124153
11
9.31628036
21
23.7722321
0
LINE
8
0
10
9.31628036
20
23.7722321
11
9.25747943
21
23.3262756
0
LINE
8
0
10
9.25747943
20
23.3262756
11
9.25221539
21
23.2863522
0
LINE
8
0
10
9.25221539
20
23.2863522
11
9.10754269
21
22.8604351
0
LINE
8
0
10
9.10754269
20
22.8604351
11
9.09459114
21
22.8223057
0
LINE
8
0
10
9.09459114
20
22.8223057
11
8.86960581
21
22.4327964
0
LINE
8
0
10
8.86960581
20
22.4327964
11
8.84946442
21
22.3979263
0
LINE
8
0
10
8.84946442
20
22.3979263
11
8.55281279
21
22.0597962
0
LINE
8
0
10
8.55281279
20
22.0597962
11
8.52625561
21
22.0295258
0
LINE
8
0
10
8.52625561
20
22.0295258
11
8.16933865
21
21.7557645
0
LINE
8
0
10
8.16933865
20
21.7557645
11
8.13738632
21
21.7312565
0
LINE
8
0
10
8.13738632
20
21.7312565
11
7.73391844
21
21.532387
0
LINE
8
0
10
7.73391844
20
21.532387
11
7.69779873
21
21.5145836
0
LINE
8
0
10
7.69779873
20
21.5145836
11
7.2632861
21
21.3982492
0
LINE
8
0
10
7.2632861
20
21.3982492
11
7.22438717
21
21.3878345
0
LINE
8
0
10
7.22438717
20
21.3878345
11
6.77552772
21
21.3585028
0
LINE
8
0
10
6.77552772
20
21.3585028
11
6.73534441
21
21.3558769
0
LINE
8
0
10
6.73534441
20
21.3558769
11
6.2893875
21
21.4146787
0
LINE
8
0
10
6.2893875
20
21.4146787
11
6.24946404
21
21.4199429
0
LINE
8
0
10
6.24946404
20
21.4199429
11
5.82354786
21
21.5646147
0
LINE
8
0
10
5.82354786
20
21.5646147
11
5.78541851
21
21.5775661
0
LINE
8
0
10
5.78541851
20
21.5775661
11
5.39591013
21
21.8025515
0
LINE
8
0
10
5.39591013
20
21.8025515
11
5.36104012
21
21.8226929
0
LINE
8
0
10
5.36104012
20
21.8226929
11
5.02290826
21
22.1193436
0
LINE
8
0
10
5.02290826
20
22.1193436
11
4.99263763
21
22.1459007
0
LINE
8
0
10
4.99263763
20
22.1459007
11
4.43106684
21
22.745721
0
LINE
8
0
10
4.43106684
20
22.745721
11
-1.84184504
21
29.4458904
0
LINE
8
0
10
-1.84184504
20
29.4458904
11
-2.11560568
21
29.8028083
0
LINE
8
0
10
-2.11560568
20
29.8028083
11
-2.14011359
21
29.8347607
0
LINE
8
0
10
-2.14011359
20
29.8347607
11
-2.14011359
21
29.8347607
0
ENDSEC
0
EOF
