0
SECTION
2
ENTITIES
0
LINE
8
0
10
-3.21280229
20
11.2927915
11
-2.7888701
21
11.5017471
0
LINE
8
0
10
-2.7888701
20
11.5017471
11
-2.77502135
21
11.5123693
0
LINE
8
0
10
-2.77502135
20
11.5123693
11
-2.4000001
21
11.8000164
0
LINE
8
0
10
-2.4000001
20
11.8000164
11
-2.38848973
21
11.8131362
0
LINE
8
0
10
-2.38848973
20
11.8131362
11
-2.07679129
21
12.1684179
0
LINE
8
0
10
-2.07679129
20
12.1684179
11
-2.06806165
21
12.1835312
0
LINE
8
0
10
-2.06806165
20
12.1835312
11
-1.8316648
21
12.5927963
0
LINE
8
0
10
-1.8316648
20
12.5927963
11
-1.82605135
21
12.6093223
0
LINE
8
0
10
-1.82605135
20
12.6093223
11
-1.67404032
21
13.0568419
0
LINE
8
0
10
-1.67404032
20
13.0568419
11
-1.67175879
21
13.0741454
0
LINE
8
0
10
-1.67175879
20
13.0741454
11
-1.60997546
21
13.5427227
0
LINE
8
0
10
-1.60997546
20
13.5427227
11
-1.61111352
21
13.5601389
0
LINE
8
0
10
-1.61111352
20
13.5601389
11
-1.64193201
21
14.031765
0
LINE
8
0
10
-1.64193201
20
14.031765
11
-1.64644594
21
14.0486245
0
LINE
8
0
10
-1.64644594
20
14.0486245
11
-1.76868212
21
14.5051765
0
LINE
8
0
10
-1.76868212
20
14.5051765
11
-1.77639844
21
14.5208315
0
LINE
8
0
10
-1.77639844
20
14.5208315
11
-1.98535478
21
14.9447641
0
LINE
8
0
10
-1.98535478
20
14.9447641
11
-1.99597696
21
14.9586129
0
LINE
8
0
10
-1.99597696
20
14.9586129
11
-2.28362346
21
15.3336344
0
LINE
8
0
10
-2.28362346
20
15.3336344
11
-8.87471088
21
22.3736501
0
LINE
8
0
10
-8.87471088
20
22.3736501
11
-9.11810589
21
22.6336231
0
LINE
8
0
10
-9.11810589
20
22.6336231
11
-9.13122573
21
22.6451335
0
LINE
8
0
10
-9.13122573
20
22.6451335
11
-9.48650837
21
22.9568329
0
LINE
8
0
10
-9.48650837
20
22.9568329
11
-9.50162167
21
22.9655625
0
LINE
8
0
10
-9.50162167
20
22.9655625
11
-9.91088676
21
23.2019577
0
LINE
8
0
10
-9.91088676
20
23.2019577
11
-9.92741272
21
23.2075712
0
LINE
8
0
10
-9.92741272
20
23.2075712
11
-10.3749323
21
23.3595829
0
LINE
8
0
10
-10.3749323
20
23.3595829
11
-10.3922359
21
23.3618645
0
LINE
8
0
10
-10.3922359
20
23.3618645
11
-10.8608131
21
23.4236488
0
LINE
8
0
10
-10.8608131
20
23.4236488
11
-10.8782293
21
23.4225107
0
LINE
8
0
10
-10.8782293
20
23.4225107
11
-11.3498554
21
23.3916912
0
LINE
8
0
10
-11.3498554
20
23.3916912
11
-11.3667149
21
23.3871773
0
LINE
8
0
10
-11.3667149
20
23.3871773
11
-11.823267
21
23.2649403
0
LINE
8
0
10
-11.823267
20
23.2649403
11
-11.8389219
21
23.257224
0
LINE
8
0
10
-11.8389219
20
23.257224
11
-12.2628546
21
23.0482693
0
LINE
8
0
10
-12.2628546
20
23.0482693
11
-12.2767033
21
23.0376471
0
LINE
8
0
10
-12.2767033
20
23.0376471
11
-12.6517239
21
22.75
0
LINE
8
0
10
-12.6517239
20
22.75
11
-12.6632342
21
22.7368802
0
LINE
8
0
10
-12.6632342
20
22.7368802
11
-12.9749327
21
22.3815975
0
LINE
8
0
10
-12.9749327
20
22.3815975
11
-12.9836623
21
22.3664843
0
LINE
8
0
10
-12.9836623
20
22.3664843
11
-13.2200594
21
21.9572201
0
LINE
8
0
10
-13.2200594
20
21.9572201
11
-13.2256728
21
21.9406941
0
LINE
8
0
10
-13.2256728
20
21.9406941
11
-13.3776836
21
21.4931736
0
LINE
8
0
10
-13.3776836
20
21.4931736
11
-13.3799652
21
21.4758701
0
LINE
8
0
10
-13.3799652
20
21.4758701
11
-13.4417486
21
21.0072937
0
LINE
8
0
10
-13.4417486
20
21.0072937
11
-13.4406106
21
20.9898775
0
LINE
8
0
10
-13.4406106
20
20.9898775
11
-13.4097919
21
20.5182514
0
LINE
8
0
10
-13.4097919
20
20.5182514
11
-13.405278
21
20.5013919
0
LINE
8
0
10
-13.405278
20
20.5013919
11
-13.283042
21
20.0448399
0
LINE
8
0
10
-13.283042
20
20.0448399
11
-13.2753256
21
20.0291849
0
LINE
8
0
10
-13.2753256
20
20.0291849
11
-13.0663691
21
19.6052513
0
LINE
8
0
10
-13.0663691
20
19.6052513
11
-13.0557469
21
19.5914026
0
LINE
8
0
10
-13.0557469
20
19.5914026
11
-12.7681007
21
19.2163811
0
LINE
8
0
10
-12.7681007
20
19.2163811
11
-6.17701309
21
12.1763653
0
LINE
8
0
10
-6.17701309
20
12.1763653
11
-5.93361807
21
11.9163923
0
LINE
8
0
10
-5.93361807
20
11.9163923
11
-5.92049824
21
11.904882
0
LINE
8
0
10
-5.92049824
20
11.904882
11
-5.56521606
21
11.5931835
0
LINE
8
0
10
-5.56521606
20
11.5931835
11
-5.55010276
21
11.5844539
0
LINE
8
0
10
-5.55010276
20
11.5844539
11
-5.14083767
21
11.3480577
0
LINE
8
0
10
-5.14083767
20
11.3480577
11
-5.1243117
21
11.3424443
0
LINE
8
0
10
-5.1243117
20
11.3424443
11
-4.67679167
21
11.1904325
0
LINE
8
0
10
-4.67679167
20
11.1904325
11
-4.65948811
21
11.188151
0
LINE
8
0
10
-4.65948811
20
11.188151
11
-4.19091129
21
11.1263676
0
LINE
8
0
10
-4.19091129
20
11.1263676
11
-4.17349512
21
11.1275056
0
LINE
8
0
10
-4.17349512
20
11.1275056
11
-3.70186877
21
11.1583242
0
LINE
8
0
10
-3.70186877
20
11.1583242
11
-3.68500926
21
11.1628382
0
LINE
8
0
10
-3.68500926
20
11.1628382
11
-3.22845721
21
11.2850752
0
LINE
8
0
10
-3.22845721
20
11.2850752
11
-3.21280229
21
11.2927915
0
LINE
8
0
10
-3.21280229
20
11.2927915
11
-3.21280229
21
11.2927915
0
LINE
8
0
10
6.89665729
20
15.8736224
11
6.77442122
21
16.3301735
0
LINE
8
0
10
6.77442122
20
16.3301735
11
6.76670491
21
16.3458285
0
LINE
8
0
10
6.76670491
20
16.3458285
11
6.55774879
21
16.769762
0
LINE
8
0
10
6.55774879
20
16.769762
11
6.54712661
21
16.7836108
0
LINE
8
0
10
6.54712661
20
16.7836108
11
6.25948
21
17.1586323
0
LINE
8
0
10
6.25948
20
17.1586323
11
-6.92269531
21
31.2386638
0
LINE
8
0
10
-6.92269531
20
31.2386638
11
-7.40948534
21
31.7586098
0
LINE
8
0
10
-7.40948534
20
31.7586098
11
-7.42260518
21
31.7701201
0
LINE
8
0
10
-7.42260518
20
31.7701201
11
-7.77788782
21
32.0818176
0
LINE
8
0
10
-7.77788782
20
32.0818176
11
-7.7930011
21
32.0905473
0
LINE
8
0
10
-7.7930011
20
32.0905473
11
-8.20226574
21
32.3269463
0
LINE
8
0
10
-8.20226574
20
32.3269463
11
-8.21879173
21
32.3325597
0
LINE
8
0
10
-8.21879173
20
32.3325597
11
-8.66631222
21
32.4845695
0
LINE
8
0
10
-8.66631222
20
32.4845695
11
-8.68361576
21
32.486851
0
LINE
8
0
10
-8.68361576
20
32.486851
11
-9.15219212
21
32.5486336
0
LINE
8
0
10
-9.15219212
20
32.5486336
11
-9.16960828
21
32.5474955
0
LINE
8
0
10
-9.16960828
20
32.5474955
11
-9.6412344
21
32.5166779
0
LINE
8
0
10
-9.6412344
20
32.5166779
11
-9.65809391
21
32.5121639
0
LINE
8
0
10
-9.65809391
20
32.5121639
11
-10.114646
21
32.3899269
0
LINE
8
0
10
-10.114646
20
32.3899269
11
-10.1303009
21
32.3822107
0
LINE
8
0
10
-10.1303009
20
32.3822107
11
-10.5542336
21
32.1732559
0
LINE
8
0
10
-10.5542336
20
32.1732559
11
-10.5680823
21
32.1626337
0
LINE
8
0
10
-10.5680823
20
32.1626337
11
-10.9431038
21
31.8749866
0
LINE
8
0
10
-10.9431038
20
31.8749866
11
-10.9546142
21
31.8618668
0
LINE
8
0
10
-10.9546142
20
31.8618668
11
-11.2663126
21
31.5065842
0
LINE
8
0
10
-11.2663126
20
31.5065842
11
-11.2750422
21
31.4914709
0
LINE
8
0
10
-11.2750422
20
31.4914709
11
-11.5114384
21
31.0822067
0
LINE
8
0
10
-11.5114384
20
31.0822067
11
-11.5170518
21
31.0656807
0
LINE
8
0
10
-11.5170518
20
31.0656807
11
-11.6690636
21
30.6181602
0
LINE
8
0
10
-11.6690636
20
30.6181602
11
-11.6713451
21
30.6008567
0
LINE
8
0
10
-11.6713451
20
30.6008567
11
-11.7331285
21
30.1322803
0
LINE
8
0
10
-11.7331285
20
30.1322803
11
-11.7319905
21
30.1148642
0
LINE
8
0
10
-11.7319905
20
30.1148642
11
-11.7011719
21
29.6432381
0
LINE
8
0
10
-11.7011719
20
29.6432381
11
-11.6966579
21
29.6263786
0
LINE
8
0
10
-11.6966579
20
29.6263786
11
-11.5744209
21
29.1698265
0
LINE
8
0
10
-11.5744209
20
29.1698265
11
-11.5667046
21
29.1541715
0
LINE
8
0
10
-11.5667046
20
29.1541715
11
-11.357749
21
28.730238
0
LINE
8
0
10
-11.357749
20
28.730238
11
-11.3471268
21
28.7163892
0
LINE
8
0
10
-11.3471268
20
28.7163892
11
-11.0594797
21
28.3413677
0
LINE
8
0
10
-11.0594797
20
28.3413677
11
2.12269536
21
14.2613362
0
LINE
8
0
10
2.12269536
20
14.2613362
11
2.60948539
21
13.7413902
0
LINE
8
0
10
2.60948539
20
13.7413902
11
2.62260522
21
13.7298799
0
LINE
8
0
10
2.62260522
20
13.7298799
11
2.97788763
21
13.4181814
0
LINE
8
0
10
2.97788763
20
13.4181814
11
2.99300093
21
13.4094518
0
LINE
8
0
10
2.99300093
20
13.4094518
11
3.40226603
21
13.1730547
0
LINE
8
0
10
3.40226603
20
13.1730547
11
3.41879199
21
13.1674413
0
LINE
8
0
10
3.41879199
20
13.1674413
11
3.86631179
21
13.0154305
0
LINE
8
0
10
3.86631179
20
13.0154305
11
3.88361534
21
13.0131489
0
LINE
8
0
10
3.88361534
20
13.0131489
11
4.35219193
21
12.9513655
0
LINE
8
0
10
4.35219193
20
12.9513655
11
4.3696081
21
12.9525035
0
LINE
8
0
10
4.3696081
20
12.9525035
11
4.84123468
21
12.9833221
0
LINE
8
0
10
4.84123468
20
12.9833221
11
4.85809419
21
12.9878361
0
LINE
8
0
10
4.85809419
20
12.9878361
11
5.31464624
21
13.1100721
0
LINE
8
0
10
5.31464624
20
13.1100721
11
5.33030117
21
13.1177885
0
LINE
8
0
10
5.33030117
20
13.1177885
11
5.75423336
21
13.326745
0
LINE
8
0
10
5.75423336
20
13.326745
11
5.76808212
21
13.3373672
0
LINE
8
0
10
5.76808212
20
13.3373672
11
6.1431036
21
13.6250134
0
LINE
8
0
10
6.1431036
20
13.6250134
11
6.15461395
21
13.6381332
0
LINE
8
0
10
6.15461395
20
13.6381332
11
6.46631193
21
13.9934158
0
LINE
8
0
10
6.46631193
20
13.9934158
11
6.47504158
21
14.0085291
0
LINE
8
0
10
6.47504158
20
14.0085291
11
6.71143866
21
14.4177942
0
LINE
8
0
10
6.71143866
20
14.4177942
11
6.71705211
21
14.4343202
0
LINE
8
0
10
6.71705211
20
14.4343202
11
6.86906338
21
14.8818398
0
LINE
8
0
10
6.86906338
20
14.8818398
11
6.87134489
21
14.8991433
0
LINE
8
0
10
6.87134489
20
14.8991433
11
6.93312788
21
15.3677197
0
LINE
8
0
10
6.93312788
20
15.3677197
11
6.93198981
21
15.3851358
0
LINE
8
0
10
6.93198981
20
15.3851358
11
6.90117121
21
15.8567629
0
LINE
8
0
10
6.90117121
20
15.8567629
11
6.89665729
21
15.8736224
0
LINE
8
0
10
6.89665729
20
15.8736224
11
6.89665729
21
15.8736224
0
LINE
8
0
10
-2.14011359
20
29.8347607
11
-2.12949142
21
29.8209119
0
LINE
8
0
10
-2.12949142
20
29.8209119
11
-1.84184504
21
29.4458904
0
LINE
8
0
10
-1.84184504
20
29.4458904
11
4.74924262
21
22.4058737
0
LINE
8
0
10
4.74924262
20
22.4058737
11
4.99263763
21
22.1459007
0
LINE
8
0
10
4.99263763
20
22.1459007
11
5.00575748
21
22.1343904
0
LINE
8
0
10
5.00575748
20
22.1343904
11
5.36104012
21
21.8226929
0
LINE
8
0
10
5.36104012
20
21.8226929
11
5.37615342
21
21.8139632
0
LINE
8
0
10
5.37615342
20
21.8139632
11
5.78541851
21
21.5775661
0
LINE
8
0
10
5.78541851
20
21.5775661
11
5.80194447
21
21.5719527
0
LINE
8
0
10
5.80194447
20
21.5719527
11
6.24946404
21
21.4199429
0
LINE
8
0
10
6.24946404
20
21.4199429
11
6.26676759
21
21.4176613
0
LINE
8
0
10
6.26676759
20
21.4176613
11
6.73534441
21
21.3558769
0
LINE
8
0
10
6.73534441
20
21.3558769
11
6.75276059
21
21.357015
0
LINE
8
0
10
6.75276059
20
21.357015
11
7.22438717
21
21.3878345
0
LINE
8
0
10
7.22438717
20
21.3878345
11
7.24124668
21
21.3923484
0
LINE
8
0
10
7.24124668
20
21.3923484
11
7.69779873
21
21.5145836
0
LINE
8
0
10
7.69779873
20
21.5145836
11
7.71345367
21
21.5222999
0
LINE
8
0
10
7.71345367
20
21.5222999
11
8.13738632
21
21.7312565
0
LINE
8
0
10
8.13738632
20
21.7312565
11
8.15123504
21
21.7418787
0
LINE
8
0
10
8.15123504
20
21.7418787
11
8.52625561
21
22.0295258
0
LINE
8
0
10
8.52625561
20
22.0295258
11
8.53776598
21
22.0426455
0
LINE
8
0
10
8.53776598
20
22.0426455
11
8.84946442
21
22.3979263
0
LINE
8
0
10
8.84946442
20
22.3979263
11
8.85819406
21
22.4130397
0
LINE
8
0
10
8.85819406
20
22.4130397
11
9.09459114
21
22.8223057
0
LINE
8
0
10
9.09459114
20
22.8223057
11
9.10020458
21
22.8388317
0
LINE
8
0
10
9.10020458
20
22.8388317
11
9.25221539
21
23.2863522
0
LINE
8
0
10
9.25221539
20
23.2863522
11
9.25449692
21
23.3036557
0
LINE
8
0
10
9.25449692
20
23.3036557
11
9.31628036
21
23.7722321
0
LINE
8
0
10
9.31628036
20
23.7722321
11
9.3151423
21
23.7896482
0
LINE
8
0
10
9.3151423
20
23.7896482
11
9.28432369
21
24.2612743
0
LINE
8
0
10
9.28432369
20
24.2612743
11
9.27980977
21
24.2781338
0
LINE
8
0
10
9.27980977
20
24.2781338
11
9.1575737
21
24.7346859
0
LINE
8
0
10
9.1575737
20
24.7346859
11
9.14985737
21
24.7503408
0
LINE
8
0
10
9.14985737
20
24.7503408
11
8.9409008
21
25.1742725
0
LINE
8
0
10
8.9409008
20
25.1742725
11
8.93027863
21
25.1881213
0
LINE
8
0
10
8.93027863
20
25.1881213
11
8.64263248
21
25.5631428
0
LINE
8
0
10
8.64263248
20
25.5631428
11
2.05154472
21
32.6031595
0
LINE
8
0
10
2.05154472
20
32.6031595
11
1.8081497
21
32.8631325
0
LINE
8
0
10
1.8081497
20
32.8631325
11
1.79502986
21
32.8746428
0
LINE
8
0
10
1.79502986
20
32.8746428
11
1.43974745
21
33.1863403
0
LINE
8
0
10
1.43974745
20
33.1863403
11
1.42463416
21
33.19507
0
LINE
8
0
10
1.42463416
20
33.19507
11
1.01536918
21
33.431469
0
LINE
8
0
10
1.01536918
20
33.431469
11
0.998843209
21
33.4370824
0
LINE
8
0
10
0.998843209
20
33.4370824
11
0.551323354
21
33.5890923
0
LINE
8
0
10
0.551323354
20
33.5890923
11
0.534019799
21
33.5913738
0
LINE
8
0
10
0.534019799
20
33.5913738
11
0.0654430464
21
33.6531563
0
LINE
8
0
10
0.0654430464
20
33.6531563
11
0.0480268697
21
33.6520182
0
LINE
8
0
10
0.0480268697
20
33.6520182
11
-0.42359966
21
33.6212006
0
LINE
8
0
10
-0.42359966
20
33.6212006
11
-0.440459164
21
33.6166866
0
LINE
8
0
10
-0.440459164
20
33.6166866
11
-0.897011101
21
33.4944496
0
LINE
8
0
10
-0.897011101
20
33.4944496
11
-0.912666033
21
33.4867334
0
LINE
8
0
10
-0.912666033
20
33.4867334
11
-1.3365984
21
33.2777786
0
LINE
8
0
10
-1.3365984
20
33.2777786
11
-1.35044714
21
33.2671564
0
LINE
8
0
10
-1.35044714
20
33.2671564
11
-1.7254684
21
32.9795074
0
LINE
8
0
10
-1.7254684
20
32.9795074
11
-1.73697876
21
32.9663877
0
LINE
8
0
10
-1.73697876
20
32.9663877
11
-2.04867697
21
32.6111069
0
LINE
8
0
10
-2.04867697
20
32.6111069
11
-2.05740661
21
32.5959936
0
LINE
8
0
10
-2.05740661
20
32.5959936
11
-2.29380369
21
32.1867294
0
LINE
8
0
10
-2.29380369
20
32.1867294
11
-2.29941713
21
32.1702034
0
LINE
8
0
10
-2.29941713
20
32.1702034
11
-2.45142794
21
31.722683
0
LINE
8
0
10
-2.45142794
20
31.722683
11
-2.45370947
21
31.7053794
0
LINE
8
0
10
-2.45370947
20
31.7053794
11
-2.51549292
21
31.2368031
0
LINE
8
0
10
-2.51549292
20
31.2368031
11
-2.51435485
21
31.2193868
0
LINE
8
0
10
-2.51435485
20
31.2193868
11
-2.48353624
21
30.7477589
0
LINE
8
0
10
-2.48353624
20
30.7477589
11
-2.47902232
21
30.7308994
0
LINE
8
0
10
-2.47902232
20
30.7308994
11
-2.35678625
21
30.2743492
0
LINE
8
0
10
-2.35678625
20
30.2743492
11
-2.34906993
21
30.2586942
0
LINE
8
0
10
-2.34906993
20
30.2586942
11
-2.14011359
21
29.8347607
0
LINE
8
0
10
-2.14011359
20
29.8347607
11
-2.14011359
21
29.8347607
0
LINE
8
0
10
13.6961148
20
46.5
11
13.7015403
21
46.5
0
LINE
8
0
10
13.7015403
20
46.5
11
13.75
21
46.5
0
LINE
8
0
10
13.75
20
46.5
11
13.75
21
46.376107
0
LINE
8
0
10
13.75
20
46.376107
11
13.75
21
46.2979631
0
LINE
8
0
10
13.75
20
46.2979631
11
13.75
21
45.2256133
0
LINE
8
0
10
13.75
20
45.2256133
11
13.75
21
-0.89485484
0
LINE
8
0
10
13.75
20
-0.89485484
11
13.75
21
-0.973629201
0
LINE
8
0
10
13.75
20
-0.973629201
11
13.75
21
-1.10000002
0
LINE
8
0
10
13.75
20
-1.10000002
11
13.7015403
21
-1.10000002
0
LINE
8
0
10
13.7015403
20
-1.10000002
11
13.6961148
21
-1.10000002
0
LINE
8
0
10
13.6961148
20
-1.10000002
11
13.6888159
21
-1.10000002
0
LINE
8
0
10
13.6888159
20
-1.10000002
11
13.6800871
21
-1.10000002
0
LINE
8
0
10
13.6800871
20
-1.10000002
11
13.6706293
21
-1.10000002
0
LINE
8
0
10
13.6706293
20
-1.10000002
11
13.6613257
21
-1.10000002
0
LINE
8
0
10
13.6613257
20
-1.10000002
11
13.653094
21
-1.10000002
0
LINE
8
0
10
13.653094
20
-1.10000002
11
13.6467108
21
-1.10000002
0
LINE
8
0
10
13.6467108
20
-1.10000002
11
13.642675
21
-1.10000002
0
LINE
8
0
10
13.642675
20
-1.10000002
11
13.2394584
21
-1.10000002
0
LINE
8
0
10
13.2394584
20
-1.10000002
11
-15.402233
21
-1.10000002
0
LINE
8
0
10
-15.402233
20
-1.10000002
11
-15.4051425
21
-1.10000002
0
LINE
8
0
10
-15.4051425
20
-1.10000002
11
-15.4107877
21
-1.10000002
0
LINE
8
0
10
-15.4107877
20
-1.10000002
11
-15.4187622
21
-1.10000002
0
LINE
8
0
10
-15.4187622
20
-1.10000002
11
-15.428323
21
-1.10000002
0
LINE
8
0
10
-15.428323
20
-1.10000002
11
-15.4385188
21
-1.10000002
0
LINE
8
0
10
-15.4385188
20
-1.10000002
11
-15.4483739
21
-1.10000002
0
LINE
8
0
10
-15.4483739
20
-1.10000002
11
-15.45706
21
-1.10000002
0
LINE
8
0
10
-15.45706
20
-1.10000002
11
-15.4639978
21
-1.10000002
0
LINE
8
0
10
-15.4639978
20
-1.10000002
11
-15.4688772
21
-1.10000002
0
LINE
8
0
10
-15.4688772
20
-1.10000002
11
-15.592291
21
-1.10000002
0
LINE
8
0
10
-15.592291
20
-1.10000002
11
-17.6366927
21
-1.10000002
0
LINE
8
0
10
-17.6366927
20
-1.10000002
11
-18.5499992
21
-1.10000002
0
LINE
8
0
10
-18.5499992
20
-1.10000002
11
-18.5499992
21
-0.45469902
0
LINE
8
0
10
-18.5499992
20
-0.45469902
11
-18.5499992
21
-0.383616972
0
LINE
8
0
10
-18.5499992
20
-0.383616972
11
-18.5499992
21
0.7517952
0
LINE
8
0
10
-18.5499992
20
0.7517952
11
-18.5499992
21
0.872984312
0
LINE
8
0
10
-18.5499992
20
0.872984312
11
-18.5499992
21
1.06887664
0
LINE
8
0
10
-18.5499992
20
1.06887664
11
-18.5499992
21
1.33218443
0
LINE
8
0
10
-18.5499992
20
1.33218443
11
-18.5499992
21
2.35888812
0
LINE
8
0
10
-18.5499992
20
2.35888812
11
-18.5499992
21
2.56593903
0
LINE
8
0
10
-18.5499992
20
2.56593903
11
-18.5499992
21
2.8313498
0
LINE
8
0
10
-18.5499992
20
2.8313498
11
-18.5499992
21
3.2927803
0
LINE
8
0
10
-18.5499992
20
3.2927803
11
-18.5499992
21
3.56946935
0
LINE
8
0
10
-18.5499992
20
3.56946935
11
-18.5499992
21
5.88756705
0
LINE
8
0
10
-18.5499992
20
5.88756705
11
-18.5499992
21
11.2556535
0
LINE
8
0
10
-18.5499992
20
11.2556535
11
-18.5499992
21
16.7503441
0
LINE
8
0
10
-18.5499992
20
16.7503441
11
-18.5499992
21
26.2897724
0
LINE
8
0
10
-18.5499992
20
26.2897724
11
-18.5499992
21
30.9924888
0
LINE
8
0
10
-18.5499992
20
30.9924888
11
-18.5499992
21
32.6471998
0
LINE
8
0
10
-18.5499992
20
32.6471998
11
-18.5499992
21
40.3531908
0
LINE
8
0
10
-18.5499992
20
40.3531908
11
-18.5499992
21
41.2574922
0
LINE
8
0
10
-18.5499992
20
41.2574922
11
-18.5499992
21
41.5307468
0
LINE
8
0
10
-18.5499992
20
41.5307468
11
-18.5499992
21
41.8367797
0
LINE
8
0
10
-18.5499992
20
41.8367797
11
-18.5499992
21
42.150532
0
LINE
8
0
10
-18.5499992
20
42.150532
11
-18.5499992
21
42.4440185
0
LINE
8
0
10
-18.5499992
20
42.4440185
11
-18.5499992
21
42.9107648
0
LINE
8
0
10
-18.5499992
20
42.9107648
11
-18.5499992
21
43.1937877
0
LINE
8
0
10
-18.5499992
20
43.1937877
11
-18.5499992
21
43.4237084
0
LINE
8
0
10
-18.5499992
20
43.4237084
11
-18.5499992
21
44.4226109
0
LINE
8
0
10
-18.5499992
20
44.4226109
11
-18.5499992
21
44.705734
0
LINE
8
0
10
-18.5499992
20
44.705734
11
-18.5499992
21
44.925902
0
LINE
8
0
10
-18.5499992
20
44.925902
11
-18.5499992
21
45.0734368
0
LINE
8
0
10
-18.5499992
20
45.0734368
11
-18.5499992
21
45.1447557
0
LINE
8
0
10
-18.5499992
20
45.1447557
11
-18.5499992
21
45.9181766
0
LINE
8
0
10
-18.5499992
20
45.9181766
11
-18.5499992
21
46.5
0
LINE
8
0
10
-18.5499992
20
46.5
11
-15.592291
21
46.5
0
LINE
8
0
10
-15.592291
20
46.5
11
-15.4688772
21
46.5
0
LINE
8
0
10
-15.4688772
20
46.5
11
-15.4639978
21
46.5
0
LINE
8
0
10
-15.4639978
20
46.5
11
-15.45706
21
46.5
0
LINE
8
0
10
-15.45706
20
46.5
11
-15.4483739
21
46.5
0
LINE
8
0
10
-15.4483739
20
46.5
11
-15.4385188
21
46.5
0
LINE
8
0
10
-15.4385188
20
46.5
11
-15.428323
21
46.5
0
LINE
8
0
10
-15.428323
20
46.5
11
-15.4187622
21
46.5
0
LINE
8
0
10
-15.4187622
20
46.5
11
-15.4107877
21
46.5
0
LINE
8
0
10
-15.4107877
20
46.5
11
-15.4051425
21
46.5
0
LINE
8
0
10
-15.4051425
20
46.5
11
-15.402233
21
46.5
0
LINE
8
0
10
-15.402233
20
46.5
11
13.2394584
21
46.5
0
LINE
8
0
10
13.2394584
20
46.5
11
13.642675
21
46.5
0
LINE
8
0
10
13.642675
20
46.5
11
13.6467108
21
46.5
0
LINE
8
0
10
13.6467108
20
46.5
11
13.653094
21
46.5
0
LINE
8
0
10
13.653094
20
46.5
11
13.6613257
21
46.5
0
LINE
8
0
10
13.6613257
20
46.5
11
13.6706293
21
46.5
0
LINE
8
0
10
13.6706293
20
46.5
11
13.6800871
21
46.5
0
LINE
8
0
10
13.6800871
20
46.5
11
13.6888159
21
46.5
0
LINE
8
0
10
13.6888159
20
46.5
11
13.6961148
21
46.5
0
LINE
8
0
10
13.6961148
20
46.5
11
13.6961148
21
46.5
0
ENDSEC
0
EOF
