0
SECTION
2
ENTITIES
0
LINE
8
0
10
-15.5540124
20
46.5
11
-15.5500002
21
46.5
0
LINE
8
0
10
-15.5500002
20
46.5
11
-15.5500002
21
46.4748548
0
LINE
8
0
10
-15.5500002
20
46.4748548
11
-15.5500002
21
46.4744055
0
LINE
8
0
10
-15.5500002
20
46.4744055
11
-15.5500002
21
46.472244
0
LINE
8
0
10
-15.5500002
20
46.472244
11
-15.5500002
21
46.4678398
0
LINE
8
0
10
-15.5500002
20
46.4678398
11
-15.5500002
21
46.4605678
0
LINE
8
0
10
-15.5500002
20
46.4605678
11
-15.5500002
21
46.4498639
0
LINE
8
0
10
-15.5500002
20
46.4498639
11
-15.5500002
21
46.4355971
0
LINE
8
0
10
-15.5500002
20
46.4355971
11
-15.5500002
21
46.4186669
0
LINE
8
0
10
-15.5500002
20
46.4186669
11
-15.5500002
21
46.401479
0
LINE
8
0
10
-15.5500002
20
46.401479
11
-15.5500002
21
46.3875203
0
LINE
8
0
10
-15.5500002
20
46.3875203
11
-15.5500002
21
46.3797305
0
LINE
8
0
10
-15.5500002
20
46.3797305
11
-15.5500002
21
45.9665107
0
LINE
8
0
10
-15.5500002
20
45.9665107
11
-15.5500002
21
11.8938213
0
LINE
8
0
10
-15.5500002
20
11.8938213
11
-15.5500002
21
11.7108303
0
LINE
8
0
10
-15.5500002
20
11.7108303
11
-15.5500002
21
11.6294706
0
LINE
8
0
10
-15.5500002
20
11.6294706
11
-15.5500002
21
11.6175608
0
LINE
8
0
10
-15.5500002
20
11.6175608
11
-15.5500002
21
11.6007817
0
LINE
8
0
10
-15.5500002
20
11.6007817
11
-15.5500002
21
11.5824161
0
LINE
8
0
10
-15.5500002
20
11.5824161
11
-15.5500002
21
11.5652101
0
LINE
8
0
10
-15.5500002
20
11.5652101
11
-15.5500002
21
11.5507469
0
LINE
8
0
10
-15.5500002
20
11.5507469
11
-15.5500002
21
11.5395757
0
LINE
8
0
10
-15.5500002
20
11.5395757
11
-15.5500002
21
11.5316222
0
LINE
8
0
10
-15.5500002
20
11.5316222
11
-15.5500002
21
11.5265454
0
LINE
8
0
10
-15.5500002
20
11.5265454
11
-15.5500002
21
11.5073949
0
LINE
8
0
10
-15.5500002
20
11.5073949
11
-18.5206228
21
11.5073949
0
LINE
8
0
10
-18.5206228
20
11.5073949
11
-18.5499992
21
11.5073949
0
LINE
8
0
10
-18.5499992
20
11.5073949
11
-18.5499992
21
11.5316222
0
LINE
8
0
10
-18.5499992
20
11.5316222
11
-18.5499992
21
11.5395757
0
LINE
8
0
10
-18.5499992
20
11.5395757
11
-18.5499992
21
11.5507469
0
LINE
8
0
10
-18.5499992
20
11.5507469
11
-18.5499992
21
11.5652101
0
LINE
8
0
10
-18.5499992
20
11.5652101
11
-18.5499992
21
11.5824161
0
LINE
8
0
10
-18.5499992
20
11.5824161
11
-18.5499992
21
11.6007817
0
LINE
8
0
10
-18.5499992
20
11.6007817
11
-18.5499992
21
11.6175608
0
LINE
8
0
10
-18.5499992
20
11.6175608
11
-18.5499992
21
11.6294706
0
LINE
8
0
10
-18.5499992
20
11.6294706
11
-18.5499992
21
11.7108303
0
LINE
8
0
10
-18.5499992
20
11.7108303
11
-18.5499992
21
17.2221375
0
LINE
8
0
10
-18.5499992
20
17.2221375
11
-18.5499992
21
25.7148216
0
LINE
8
0
10
-18.5499992
20
25.7148216
11
-18.5499992
21
30.6147506
0
LINE
8
0
10
-18.5499992
20
30.6147506
11
-18.5499992
21
32.3388534
0
LINE
8
0
10
-18.5499992
20
32.3388534
11
-18.5499992
21
40.3680021
0
LINE
8
0
10
-18.5499992
20
40.3680021
11
-18.5499992
21
41.3102263
0
LINE
8
0
10
-18.5499992
20
41.3102263
11
-18.5499992
21
41.5949401
0
LINE
8
0
10
-18.5499992
20
41.5949401
11
-18.5499992
21
41.9138067
0
LINE
8
0
10
-18.5499992
20
41.9138067
11
-18.5499992
21
42.2407166
0
LINE
8
0
10
-18.5499992
20
42.2407166
11
-18.5499992
21
42.5465107
0
LINE
8
0
10
-18.5499992
20
42.5465107
11
-18.5499992
21
42.9576228
0
LINE
8
0
10
-18.5499992
20
42.9576228
11
-18.5499992
21
43.2500462
0
LINE
8
0
10
-18.5499992
20
43.2500462
11
-18.5499992
21
43.4876036
0
LINE
8
0
10
-18.5499992
20
43.4876036
11
-18.5499992
21
44.3837812
0
LINE
8
0
10
-18.5499992
20
44.3837812
11
-18.5499992
21
44.6721963
0
LINE
8
0
10
-18.5499992
20
44.6721963
11
-18.5499992
21
44.8964797
0
LINE
8
0
10
-18.5499992
20
44.8964797
11
-18.5499992
21
45.046772
0
LINE
8
0
10
-18.5499992
20
45.046772
11
-18.5499992
21
45.119424
0
LINE
8
0
10
-18.5499992
20
45.119424
11
-18.5499992
21
45.9073014
0
LINE
8
0
10
-18.5499992
20
45.9073014
11
-18.5499992
21
46.5
0
LINE
8
0
10
-18.5499992
20
46.5
11
-15.5540124
21
46.5
0
LINE
8
0
10
-15.5540124
20
46.5
11
-15.5540124
21
46.5
0
LINE
8
0
10
-17.6196216
20
-1.10000002
11
-15.5500002
21
-1.10000002
0
LINE
8
0
10
-15.5500002
20
-1.10000002
11
-15.5500002
21
-1.09490637
0
LINE
8
0
10
-15.5500002
20
-1.09490637
11
-15.5500002
21
-1.09454161
0
LINE
8
0
10
-15.5500002
20
-1.09454161
11
-15.5500002
21
-1.09371675
0
LINE
8
0
10
-15.5500002
20
-1.09371675
11
-15.5500002
21
-1.09232739
0
LINE
8
0
10
-15.5500002
20
-1.09232739
11
-15.5500002
21
-1.0902434
0
LINE
8
0
10
-15.5500002
20
-1.0902434
11
-15.5500002
21
-1.06456781
0
LINE
8
0
10
-15.5500002
20
-1.06456781
11
-15.5500002
21
-1.06026614
0
LINE
8
0
10
-15.5500002
20
-1.06026614
11
-15.5500002
21
-1.05315585
0
LINE
8
0
10
-15.5500002
20
-1.05315585
11
-15.5500002
21
-1.04261751
0
LINE
8
0
10
-15.5500002
20
-1.04261751
11
-15.5500002
21
-1.0283156
0
LINE
8
0
10
-15.5500002
20
-1.0283156
11
-15.5500002
21
-1.01074595
0
LINE
8
0
10
-15.5500002
20
-1.01074595
11
-15.5500002
21
-0.99186635
0
LINE
8
0
10
-15.5500002
20
-0.99186635
11
-15.5500002
21
-0.975138206
0
LINE
8
0
10
-15.5500002
20
-0.975138206
11
-15.5500002
21
5.8062579
0
LINE
8
0
10
-15.5500002
20
5.8062579
11
-15.5500002
21
5.81997425
0
LINE
8
0
10
-15.5500002
20
5.81997425
11
-15.5500002
21
5.83605292
0
LINE
8
0
10
-15.5500002
20
5.83605292
11
-15.5500002
21
5.85133736
0
LINE
8
0
10
-15.5500002
20
5.85133736
11
-15.5500002
21
5.86379442
0
LINE
8
0
10
-15.5500002
20
5.86379442
11
-15.5500002
21
5.87278769
0
LINE
8
0
10
-15.5500002
20
5.87278769
11
-15.5500002
21
5.87857682
0
LINE
8
0
10
-15.5500002
20
5.87857682
11
-15.5500002
21
5.88176047
0
LINE
8
0
10
-15.5500002
20
5.88176047
11
-15.5500002
21
5.9000001
0
LINE
8
0
10
-15.5500002
20
5.9000001
11
-15.5832068
21
5.9000001
0
LINE
8
0
10
-15.5832068
20
5.9000001
11
-18.5499992
21
5.9000001
0
LINE
8
0
10
-18.5499992
20
5.9000001
11
-18.5499992
21
5.87857682
0
LINE
8
0
10
-18.5499992
20
5.87857682
11
-18.5499992
21
5.87278769
0
LINE
8
0
10
-18.5499992
20
5.87278769
11
-18.5499992
21
5.86379442
0
LINE
8
0
10
-18.5499992
20
5.86379442
11
-18.5499992
21
5.85133736
0
LINE
8
0
10
-18.5499992
20
5.85133736
11
-18.5499992
21
5.83605292
0
LINE
8
0
10
-18.5499992
20
5.83605292
11
-18.5499992
21
5.81997425
0
LINE
8
0
10
-18.5499992
20
5.81997425
11
-18.5499992
21
5.8062579
0
LINE
8
0
10
-18.5499992
20
5.8062579
11
-18.5499992
21
3.48851079
0
LINE
8
0
10
-18.5499992
20
3.48851079
11
-18.5499992
21
3.20021853
0
LINE
8
0
10
-18.5499992
20
3.20021853
11
-18.5499992
21
2.79253357
0
LINE
8
0
10
-18.5499992
20
2.79253357
11
-18.5499992
21
2.51830729
0
LINE
8
0
10
-18.5499992
20
2.51830729
11
-18.5499992
21
2.30437927
0
LINE
8
0
10
-18.5499992
20
2.30437927
11
-18.5499992
21
1.37764582
0
LINE
8
0
10
-18.5499992
20
1.37764582
11
-18.5499992
21
1.10941639
0
LINE
8
0
10
-18.5499992
20
1.10941639
11
-18.5499992
21
0.909862524
0
LINE
8
0
10
-18.5499992
20
0.909862524
11
-18.5499992
21
0.786408195
0
LINE
8
0
10
-18.5499992
20
0.786408195
11
-18.5499992
21
-0.370226634
0
LINE
8
0
10
-18.5499992
20
-0.370226634
11
-18.5499992
21
-0.442637319
0
LINE
8
0
10
-18.5499992
20
-0.442637319
11
-18.5499992
21
-1.10000002
0
LINE
8
0
10
-18.5499992
20
-1.10000002
11
-17.6196216
21
-1.10000002
0
LINE
8
0
10
-17.6196216
20
-1.10000002
11
-17.6196216
21
-1.10000002
0
ENDSEC
0
EOF
