0
SECTION
2
ENTITIES
0
LINE
8
0
10
-17.6025504
20
-1.10000002
11
-15.5500002
21
-1.10000002
0
LINE
8
0
10
-15.5500002
20
-1.10000002
11
-15.5500002
21
-1.073234
0
LINE
8
0
10
-15.5500002
20
-1.073234
11
-15.5500002
21
-1.07131727
0
LINE
8
0
10
-15.5500002
20
-1.07131727
11
-15.5500002
21
-1.06698281
0
LINE
8
0
10
-15.5500002
20
-1.06698281
11
-15.5500002
21
-1.05968202
0
LINE
8
0
10
-15.5500002
20
-1.05968202
11
-15.5500002
21
-1.04873109
0
LINE
8
0
10
-15.5500002
20
-1.04873109
11
-15.5500002
21
-0.913811479
0
LINE
8
0
10
-15.5500002
20
-0.913811479
11
-15.5500002
21
-0.891207174
0
LINE
8
0
10
-15.5500002
20
-0.891207174
11
-15.5500002
21
-0.853844146
0
LINE
8
0
10
-15.5500002
20
-0.853844146
11
-15.5500002
21
-0.79846746
0
LINE
8
0
10
-15.5500002
20
-0.79846746
11
-15.5500002
21
-0.723314052
0
LINE
8
0
10
-15.5500002
20
-0.723314052
11
-15.5500002
21
-0.630989354
0
LINE
8
0
10
-15.5500002
20
-0.630989354
11
-15.5500002
21
-0.531781208
0
LINE
8
0
10
-15.5500002
20
-0.531781208
11
-15.5500002
21
-0.443878466
0
LINE
8
0
10
-15.5500002
20
-0.443878466
11
-15.5500002
21
5.40740535
0
LINE
8
0
10
-15.5500002
20
5.40740535
11
-15.5500002
21
5.47948177
0
LINE
8
0
10
-15.5500002
20
5.47948177
11
-15.5500002
21
5.56397169
0
LINE
8
0
10
-15.5500002
20
5.56397169
11
-15.5500002
21
5.64428805
0
LINE
8
0
10
-15.5500002
20
5.64428805
11
-15.5500002
21
5.70974719
0
LINE
8
0
10
-15.5500002
20
5.70974719
11
-15.5500002
21
5.75700487
0
LINE
8
0
10
-15.5500002
20
5.75700487
11
-15.5500002
21
5.78742546
0
LINE
8
0
10
-15.5500002
20
5.78742546
11
-15.5500002
21
5.80415483
0
LINE
8
0
10
-15.5500002
20
5.80415483
11
-15.5500002
21
5.9000001
0
LINE
8
0
10
-15.5500002
20
5.9000001
11
-15.7244937
21
5.9000001
0
LINE
8
0
10
-15.7244937
20
5.9000001
11
-18.5499992
21
5.9000001
0
LINE
8
0
10
-18.5499992
20
5.9000001
11
-18.5499992
21
5.78742546
0
LINE
8
0
10
-18.5499992
20
5.78742546
11
-18.5499992
21
5.75700487
0
LINE
8
0
10
-18.5499992
20
5.75700487
11
-18.5499992
21
5.70974719
0
LINE
8
0
10
-18.5499992
20
5.70974719
11
-18.5499992
21
5.64428805
0
LINE
8
0
10
-18.5499992
20
5.64428805
11
-18.5499992
21
5.56397169
0
LINE
8
0
10
-18.5499992
20
5.56397169
11
-18.5499992
21
5.47948177
0
LINE
8
0
10
-18.5499992
20
5.47948177
11
-18.5499992
21
5.40740535
0
LINE
8
0
10
-18.5499992
20
5.40740535
11
-18.5499992
21
3.40755224
0
LINE
8
0
10
-18.5499992
20
3.40755224
11
-18.5499992
21
3.10765677
0
LINE
8
0
10
-18.5499992
20
3.10765677
11
-18.5499992
21
2.75371734
0
LINE
8
0
10
-18.5499992
20
2.75371734
11
-18.5499992
21
2.47067555
0
LINE
8
0
10
-18.5499992
20
2.47067555
11
-18.5499992
21
2.24987042
0
LINE
8
0
10
-18.5499992
20
2.24987042
11
-18.5499992
21
1.42310721
0
LINE
8
0
10
-18.5499992
20
1.42310721
11
-18.5499992
21
1.14995614
0
LINE
8
0
10
-18.5499992
20
1.14995614
11
-18.5499992
21
0.946740736
0
LINE
8
0
10
-18.5499992
20
0.946740736
11
-18.5499992
21
0.82102119
0
LINE
8
0
10
-18.5499992
20
0.82102119
11
-18.5499992
21
-0.356836297
0
LINE
8
0
10
-18.5499992
20
-0.356836297
11
-18.5499992
21
-0.430575618
0
LINE
8
0
10
-18.5499992
20
-0.430575618
11
-18.5499992
21
-1.10000002
0
LINE
8
0
10
-18.5499992
20
-1.10000002
11
-17.6025504
21
-1.10000002
0
LINE
8
0
10
-17.6025504
20
-1.10000002
11
-17.6025504
21
-1.10000002
0
LINE
8
0
10
-18.3956323
20
11.7928977
11
-15.5500002
21
11.7928977
0
LINE
8
0
10
-15.5500002
20
11.7928977
11
-15.5500002
21
11.8935293
0
LINE
8
0
10
-15.5500002
20
11.8935293
11
-15.5500002
21
11.9202067
0
LINE
8
0
10
-15.5500002
20
11.9202067
11
-15.5500002
21
11.9620005
0
LINE
8
0
10
-15.5500002
20
11.9620005
11
-15.5500002
21
12.0207028
0
LINE
8
0
10
-15.5500002
20
12.0207028
11
-15.5500002
21
12.0967039
0
LINE
8
0
10
-15.5500002
20
12.0967039
11
-15.5500002
21
12.1871175
0
LINE
8
0
10
-15.5500002
20
12.1871175
11
-15.5500002
21
12.2836245
0
LINE
8
0
10
-15.5500002
20
12.2836245
11
-15.5500002
21
12.3717955
0
LINE
8
0
10
-15.5500002
20
12.3717955
11
-15.5500002
21
12.4343784
0
LINE
8
0
10
-15.5500002
20
12.4343784
11
-15.5500002
21
12.8619059
0
LINE
8
0
10
-15.5500002
20
12.8619059
11
-15.5500002
21
13.8234839
0
LINE
8
0
10
-15.5500002
20
13.8234839
11
-15.5500002
21
43.6966302
0
LINE
8
0
10
-15.5500002
20
43.6966302
11
-15.5500002
21
45.8680102
0
LINE
8
0
10
-15.5500002
20
45.8680102
11
-15.5500002
21
45.9089439
0
LINE
8
0
10
-15.5500002
20
45.9089439
11
-15.5500002
21
45.9822935
0
LINE
8
0
10
-15.5500002
20
45.9822935
11
-15.5500002
21
46.0726122
0
LINE
8
0
10
-15.5500002
20
46.0726122
11
-15.5500002
21
46.1615768
0
LINE
8
0
10
-15.5500002
20
46.1615768
11
-15.5500002
21
46.2365456
0
LINE
8
0
10
-15.5500002
20
46.2365456
11
-15.5500002
21
46.2927924
0
LINE
8
0
10
-15.5500002
20
46.2927924
11
-15.5500002
21
46.331005
0
LINE
8
0
10
-15.5500002
20
46.331005
11
-15.5500002
21
46.3541485
0
LINE
8
0
10
-15.5500002
20
46.3541485
11
-15.5500002
21
46.3655067
0
LINE
8
0
10
-15.5500002
20
46.3655067
11
-15.5500002
21
46.3678676
0
LINE
8
0
10
-15.5500002
20
46.3678676
11
-15.5500002
21
46.5
0
LINE
8
0
10
-15.5500002
20
46.5
11
-15.5710836
21
46.5
0
LINE
8
0
10
-15.5710836
20
46.5
11
-18.5499992
21
46.5
0
LINE
8
0
10
-18.5499992
20
46.5
11
-18.5499992
21
45.8964262
0
LINE
8
0
10
-18.5499992
20
45.8964262
11
-18.5499992
21
45.0940923
0
LINE
8
0
10
-18.5499992
20
45.0940923
11
-18.5499992
21
45.0201073
0
LINE
8
0
10
-18.5499992
20
45.0201073
11
-18.5499992
21
44.8670573
0
LINE
8
0
10
-18.5499992
20
44.8670573
11
-18.5499992
21
44.6386586
0
LINE
8
0
10
-18.5499992
20
44.6386586
11
-18.5499992
21
44.3449515
0
LINE
8
0
10
-18.5499992
20
44.3449515
11
-18.5499992
21
43.5514988
0
LINE
8
0
10
-18.5499992
20
43.5514988
11
-18.5499992
21
43.3063046
0
LINE
8
0
10
-18.5499992
20
43.3063046
11
-18.5499992
21
43.0044807
0
LINE
8
0
10
-18.5499992
20
43.0044807
11
-18.5499992
21
42.6490028
0
LINE
8
0
10
-18.5499992
20
42.6490028
11
-18.5499992
21
42.3309011
0
LINE
8
0
10
-18.5499992
20
42.3309011
11
-18.5499992
21
41.9908337
0
LINE
8
0
10
-18.5499992
20
41.9908337
11
-18.5499992
21
41.6591333
0
LINE
8
0
10
-18.5499992
20
41.6591333
11
-18.5499992
21
41.3629603
0
LINE
8
0
10
-18.5499992
20
41.3629603
11
-18.5499992
21
40.3828135
0
LINE
8
0
10
-18.5499992
20
40.3828135
11
-18.5499992
21
32.0305071
0
LINE
8
0
10
-18.5499992
20
32.0305071
11
-18.5499992
21
30.2370125
0
LINE
8
0
10
-18.5499992
20
30.2370125
11
-18.5499992
21
25.1398707
0
LINE
8
0
10
-18.5499992
20
25.1398707
11
-18.5499992
21
17.6939309
0
LINE
8
0
10
-18.5499992
20
17.6939309
11
-18.5499992
21
12.8619059
0
LINE
8
0
10
-18.5499992
20
12.8619059
11
-18.5499992
21
12.4343784
0
LINE
8
0
10
-18.5499992
20
12.4343784
11
-18.5499992
21
12.3717955
0
LINE
8
0
10
-18.5499992
20
12.3717955
11
-18.5499992
21
12.2836245
0
LINE
8
0
10
-18.5499992
20
12.2836245
11
-18.5499992
21
12.1871175
0
LINE
8
0
10
-18.5499992
20
12.1871175
11
-18.5499992
21
12.0967039
0
LINE
8
0
10
-18.5499992
20
12.0967039
11
-18.5499992
21
12.0207028
0
LINE
8
0
10
-18.5499992
20
12.0207028
11
-18.5499992
21
11.9620005
0
LINE
8
0
10
-18.5499992
20
11.9620005
11
-18.5499992
21
11.9202067
0
LINE
8
0
10
-18.5499992
20
11.9202067
11
-18.5499992
21
11.7928977
0
LINE
8
0
10
-18.5499992
20
11.7928977
11
-18.3956323
21
11.7928977
0
LINE
8
0
10
-18.3956323
20
11.7928977
11
-18.3956323
21
11.7928977
0
ENDSEC
0
EOF
