0
SECTION
2
ENTITIES
0
LINE
8
0
10
-15.6052259
20
46.5
11
-15.5500002
21
46.5
0
LINE
8
0
10
-15.5500002
20
46.5
11
-15.5500002
21
46.1538932
0
LINE
8
0
10
-15.5500002
20
46.1538932
11
-15.5500002
21
46.147709
0
LINE
8
0
10
-15.5500002
20
46.147709
11
-15.5500002
21
46.1179575
0
LINE
8
0
10
-15.5500002
20
46.1179575
11
-15.5500002
21
46.0573354
0
LINE
8
0
10
-15.5500002
20
46.0573354
11
-15.5500002
21
45.9572415
0
LINE
8
0
10
-15.5500002
20
45.9572415
11
-15.5500002
21
45.8099091
0
LINE
8
0
10
-15.5500002
20
45.8099091
11
-15.5500002
21
45.6135361
0
LINE
8
0
10
-15.5500002
20
45.6135361
11
-15.5500002
21
45.3805028
0
LINE
8
0
10
-15.5500002
20
45.3805028
11
-15.5500002
21
45.1439227
0
LINE
8
0
10
-15.5500002
20
45.1439227
11
-15.5500002
21
44.9517911
0
LINE
8
0
10
-15.5500002
20
44.9517911
11
-15.5500002
21
44.8445695
0
LINE
8
0
10
-15.5500002
20
44.8445695
11
-15.5500002
21
39.1568693
0
LINE
8
0
10
-15.5500002
20
39.1568693
11
-15.5500002
21
17.682809
0
LINE
8
0
10
-15.5500002
20
17.682809
11
-15.5500002
21
15.1640571
0
LINE
8
0
10
-15.5500002
20
15.1640571
11
-15.5500002
21
14.0441942
0
LINE
8
0
10
-15.5500002
20
14.0441942
11
-15.5500002
21
13.8802647
0
LINE
8
0
10
-15.5500002
20
13.8802647
11
-15.5500002
21
13.6493101
0
LINE
8
0
10
-15.5500002
20
13.6493101
11
-15.5500002
21
13.3965204
0
LINE
8
0
10
-15.5500002
20
13.3965204
11
-15.5500002
21
13.1596914
0
LINE
8
0
10
-15.5500002
20
13.1596914
11
-15.5500002
21
12.9606147
0
LINE
8
0
10
-15.5500002
20
12.9606147
11
-15.5500002
21
12.8068501
0
LINE
8
0
10
-15.5500002
20
12.8068501
11
-15.5500002
21
12.6973756
0
LINE
8
0
10
-15.5500002
20
12.6973756
11
-15.5500002
21
12.627497
0
LINE
8
0
10
-15.5500002
20
12.627497
11
-15.5500002
21
12.3639031
0
LINE
8
0
10
-15.5500002
20
12.3639031
11
-18.1456512
21
12.3639031
0
LINE
8
0
10
-18.1456512
20
12.3639031
11
-18.5499992
21
12.3639031
0
LINE
8
0
10
-18.5499992
20
12.3639031
11
-18.5499992
21
12.6973756
0
LINE
8
0
10
-18.5499992
20
12.6973756
11
-18.5499992
21
12.8068501
0
LINE
8
0
10
-18.5499992
20
12.8068501
11
-18.5499992
21
12.9606147
0
LINE
8
0
10
-18.5499992
20
12.9606147
11
-18.5499992
21
13.1596914
0
LINE
8
0
10
-18.5499992
20
13.1596914
11
-18.5499992
21
13.3965204
0
LINE
8
0
10
-18.5499992
20
13.3965204
11
-18.5499992
21
13.6493101
0
LINE
8
0
10
-18.5499992
20
13.6493101
11
-18.5499992
21
13.8802647
0
LINE
8
0
10
-18.5499992
20
13.8802647
11
-18.5499992
21
14.0441942
0
LINE
8
0
10
-18.5499992
20
14.0441942
11
-18.5499992
21
15.1640571
0
LINE
8
0
10
-18.5499992
20
15.1640571
11
-18.5499992
21
18.6375177
0
LINE
8
0
10
-18.5499992
20
18.6375177
11
-18.5499992
21
23.989969
0
LINE
8
0
10
-18.5499992
20
23.989969
11
-18.5499992
21
29.4815361
0
LINE
8
0
10
-18.5499992
20
29.4815361
11
-18.5499992
21
31.4138144
0
LINE
8
0
10
-18.5499992
20
31.4138144
11
-18.5499992
21
40.4124363
0
LINE
8
0
10
-18.5499992
20
40.4124363
11
-18.5499992
21
41.4684285
0
LINE
8
0
10
-18.5499992
20
41.4684285
11
-18.5499992
21
41.7875198
0
LINE
8
0
10
-18.5499992
20
41.7875198
11
-18.5499992
21
42.1448878
0
LINE
8
0
10
-18.5499992
20
42.1448878
11
-18.5499992
21
42.5112701
0
LINE
8
0
10
-18.5499992
20
42.5112701
11
-18.5499992
21
42.8539871
0
LINE
8
0
10
-18.5499992
20
42.8539871
11
-18.5499992
21
43.0981967
0
LINE
8
0
10
-18.5499992
20
43.0981967
11
-18.5499992
21
43.4188216
0
LINE
8
0
10
-18.5499992
20
43.4188216
11
-18.5499992
21
43.6792892
0
LINE
8
0
10
-18.5499992
20
43.6792892
11
-18.5499992
21
44.2672921
0
LINE
8
0
10
-18.5499992
20
44.2672921
11
-18.5499992
21
44.5715832
0
LINE
8
0
10
-18.5499992
20
44.5715832
11
-18.5499992
21
44.8082125
0
LINE
8
0
10
-18.5499992
20
44.8082125
11
-18.5499992
21
44.9667778
0
LINE
8
0
10
-18.5499992
20
44.9667778
11
-18.5499992
21
45.043429
0
LINE
8
0
10
-18.5499992
20
45.043429
11
-18.5499992
21
45.8746758
0
LINE
8
0
10
-18.5499992
20
45.8746758
11
-18.5499992
21
46.5
0
LINE
8
0
10
-18.5499992
20
46.5
11
-15.6052259
21
46.5
0
LINE
8
0
10
-15.6052259
20
46.5
11
-15.6052259
21
46.5
0
LINE
8
0
10
-16.0070674
20
5.9000001
11
-15.5500002
21
5.9000001
0
LINE
8
0
10
-15.5500002
20
5.9000001
11
-15.5500002
21
5.64894356
0
LINE
8
0
10
-15.5500002
20
5.64894356
11
-15.5500002
21
5.60512273
0
LINE
8
0
10
-15.5500002
20
5.60512273
11
-15.5500002
21
5.52543923
0
LINE
8
0
10
-15.5500002
20
5.52543923
11
-15.5500002
21
5.40165272
0
LINE
8
0
10
-15.5500002
20
5.40165272
11
-15.5500002
21
5.23018942
0
LINE
8
0
10
-15.5500002
20
5.23018942
11
-15.5500002
21
5.01980922
0
LINE
8
0
10
-15.5500002
20
5.01980922
11
-15.5500002
21
4.79849682
0
LINE
8
0
10
-15.5500002
20
4.79849682
11
-15.5500002
21
4.60970026
0
LINE
8
0
10
-15.5500002
20
4.60970026
11
-15.5500002
21
0.618641014
0
LINE
8
0
10
-15.5500002
20
0.618641014
11
-15.5500002
21
0.388389077
0
LINE
8
0
10
-15.5500002
20
0.388389077
11
-15.5500002
21
0.128523829
0
LINE
8
0
10
-15.5500002
20
0.128523829
11
-15.5500002
21
-0.113310955
0
LINE
8
0
10
-15.5500002
20
-0.113310955
11
-15.5500002
21
-0.31016736
0
LINE
8
0
10
-15.5500002
20
-0.31016736
11
-15.5500002
21
-0.455220732
0
LINE
8
0
10
-15.5500002
20
-0.455220732
11
-15.5500002
21
-0.553089233
0
LINE
8
0
10
-15.5500002
20
-0.553089233
11
-15.5500002
21
-0.612298819
0
LINE
8
0
10
-15.5500002
20
-0.612298819
11
-15.5500002
21
-0.965706483
0
LINE
8
0
10
-15.5500002
20
-0.965706483
11
-15.5500002
21
-0.99439127
0
LINE
8
0
10
-15.5500002
20
-0.99439127
11
-15.5500002
21
-1.01351492
0
LINE
8
0
10
-15.5500002
20
-1.01351492
11
-15.5500002
21
-1.02486858
0
LINE
8
0
10
-15.5500002
20
-1.02486858
11
-15.5500002
21
-1.02988927
0
LINE
8
0
10
-15.5500002
20
-1.02988927
11
-15.5500002
21
-1.10000002
0
LINE
8
0
10
-15.5500002
20
-1.10000002
11
-17.5684081
21
-1.10000002
0
LINE
8
0
10
-17.5684081
20
-1.10000002
11
-18.5499992
21
-1.10000002
0
LINE
8
0
10
-18.5499992
20
-1.10000002
11
-18.5499992
21
-0.406452216
0
LINE
8
0
10
-18.5499992
20
-0.406452216
11
-18.5499992
21
-0.330055622
0
LINE
8
0
10
-18.5499992
20
-0.330055622
11
-18.5499992
21
0.890247179
0
LINE
8
0
10
-18.5499992
20
0.890247179
11
-18.5499992
21
1.02049716
0
LINE
8
0
10
-18.5499992
20
1.02049716
11
-18.5499992
21
1.23103564
0
LINE
8
0
10
-18.5499992
20
1.23103564
11
-18.5499992
21
1.51402999
0
LINE
8
0
10
-18.5499992
20
1.51402999
11
-18.5499992
21
2.14085272
0
LINE
8
0
10
-18.5499992
20
2.14085272
11
-18.5499992
21
2.37541207
0
LINE
8
0
10
-18.5499992
20
2.37541207
11
-18.5499992
21
2.67608487
0
LINE
8
0
10
-18.5499992
20
2.67608487
11
-18.5499992
21
2.92253324
0
LINE
8
0
10
-18.5499992
20
2.92253324
11
-18.5499992
21
3.24563512
0
LINE
8
0
10
-18.5499992
20
3.24563512
11
-18.5499992
21
4.60970026
0
LINE
8
0
10
-18.5499992
20
4.60970026
11
-18.5499992
21
4.79849682
0
LINE
8
0
10
-18.5499992
20
4.79849682
11
-18.5499992
21
5.01980922
0
LINE
8
0
10
-18.5499992
20
5.01980922
11
-18.5499992
21
5.23018942
0
LINE
8
0
10
-18.5499992
20
5.23018942
11
-18.5499992
21
5.40165272
0
LINE
8
0
10
-18.5499992
20
5.40165272
11
-18.5499992
21
5.52543923
0
LINE
8
0
10
-18.5499992
20
5.52543923
11
-18.5499992
21
5.60512273
0
LINE
8
0
10
-18.5499992
20
5.60512273
11
-18.5499992
21
5.9000001
0
LINE
8
0
10
-18.5499992
20
5.9000001
11
-16.0070674
21
5.9000001
0
LINE
8
0
10
-16.0070674
20
5.9000001
11
-16.0070674
21
5.9000001
0
ENDSEC
0
EOF
