0
SECTION
2
ENTITIES
0
LINE
8
0
10
-17.551337
20
-1.10000002
11
-15.5500002
21
-1.10000002
0
LINE
8
0
10
-15.5500002
20
-1.10000002
11
-15.5500002
21
-1.0082169
0
LINE
8
0
10
-15.5500002
20
-1.0082169
11
-15.5500002
21
-1.00164424
0
LINE
8
0
10
-15.5500002
20
-1.00164424
11
-15.5500002
21
-0.98678097
0
LINE
8
0
10
-15.5500002
20
-0.98678097
11
-15.5500002
21
-0.961745896
0
LINE
8
0
10
-15.5500002
20
-0.961745896
11
-15.5500002
21
-0.924194177
0
LINE
8
0
10
-15.5500002
20
-0.924194177
11
-15.5500002
21
-0.461542489
0
LINE
8
0
10
-15.5500002
20
-0.461542489
11
-15.5500002
21
-0.384030263
0
LINE
8
0
10
-15.5500002
20
-0.384030263
11
-15.5500002
21
-0.255909025
0
LINE
8
0
10
-15.5500002
20
-0.255909025
11
-15.5500002
21
-0.06601731
0
LINE
8
0
10
-15.5500002
20
-0.06601731
11
-15.5500002
21
0.191690594
0
LINE
8
0
10
-15.5500002
20
0.191690594
11
-15.5500002
21
0.508280421
0
LINE
8
0
10
-15.5500002
20
0.508280421
11
-15.5500002
21
0.848474219
0
LINE
8
0
10
-15.5500002
20
0.848474219
11
-15.5500002
21
1.14990075
0
LINE
8
0
10
-15.5500002
20
1.14990075
11
-15.5500002
21
4.21084771
0
LINE
8
0
10
-15.5500002
20
4.21084771
11
-15.5500002
21
4.45800435
0
LINE
8
0
10
-15.5500002
20
4.45800435
11
-15.5500002
21
4.74772798
0
LINE
8
0
10
-15.5500002
20
4.74772798
11
-15.5500002
21
5.02314011
0
LINE
8
0
10
-15.5500002
20
5.02314011
11
-15.5500002
21
5.24760548
0
LINE
8
0
10
-15.5500002
20
5.24760548
11
-15.5500002
21
5.40965641
0
LINE
8
0
10
-15.5500002
20
5.40965641
11
-15.5500002
21
5.51397137
0
LINE
8
0
10
-15.5500002
20
5.51397137
11
-15.5500002
21
5.57133793
0
LINE
8
0
10
-15.5500002
20
5.57133793
11
-15.5500002
21
5.9000001
0
LINE
8
0
10
-15.5500002
20
5.9000001
11
-16.1483543
21
5.9000001
0
LINE
8
0
10
-16.1483543
20
5.9000001
11
-18.5499992
21
5.9000001
0
LINE
8
0
10
-18.5499992
20
5.9000001
11
-18.5499992
21
5.51397137
0
LINE
8
0
10
-18.5499992
20
5.51397137
11
-18.5499992
21
5.40965641
0
LINE
8
0
10
-18.5499992
20
5.40965641
11
-18.5499992
21
5.24760548
0
LINE
8
0
10
-18.5499992
20
5.24760548
11
-18.5499992
21
5.02314011
0
LINE
8
0
10
-18.5499992
20
5.02314011
11
-18.5499992
21
4.74772798
0
LINE
8
0
10
-18.5499992
20
4.74772798
11
-18.5499992
21
4.45800435
0
LINE
8
0
10
-18.5499992
20
4.45800435
11
-18.5499992
21
4.21084771
0
LINE
8
0
10
-18.5499992
20
4.21084771
11
-18.5499992
21
3.16467656
0
LINE
8
0
10
-18.5499992
20
3.16467656
11
-18.5499992
21
2.82997147
0
LINE
8
0
10
-18.5499992
20
2.82997147
11
-18.5499992
21
2.63726864
0
LINE
8
0
10
-18.5499992
20
2.63726864
11
-18.5499992
21
2.32778033
0
LINE
8
0
10
-18.5499992
20
2.32778033
11
-18.5499992
21
2.08634387
0
LINE
8
0
10
-18.5499992
20
2.08634387
11
-18.5499992
21
1.55949139
0
LINE
8
0
10
-18.5499992
20
1.55949139
11
-18.5499992
21
1.27157539
0
LINE
8
0
10
-18.5499992
20
1.27157539
11
-18.5499992
21
1.05737537
0
LINE
8
0
10
-18.5499992
20
1.05737537
11
-18.5499992
21
0.924860174
0
LINE
8
0
10
-18.5499992
20
0.924860174
11
-18.5499992
21
-0.316665284
0
LINE
8
0
10
-18.5499992
20
-0.316665284
11
-18.5499992
21
-0.394390515
0
LINE
8
0
10
-18.5499992
20
-0.394390515
11
-18.5499992
21
-1.10000002
0
LINE
8
0
10
-18.5499992
20
-1.10000002
11
-17.551337
21
-1.10000002
0
LINE
8
0
10
-17.551337
20
-1.10000002
11
-17.551337
21
-1.10000002
0
LINE
8
0
10
-15.622297
20
46.5
11
-15.5500002
21
46.5
0
LINE
8
0
10
-15.5500002
20
46.5
11
-15.5500002
21
46.0469059
0
LINE
8
0
10
-15.5500002
20
46.0469059
11
-15.5500002
21
46.0388102
0
LINE
8
0
10
-15.5500002
20
46.0388102
11
-15.5500002
21
45.999862
0
LINE
8
0
10
-15.5500002
20
45.999862
11
-15.5500002
21
45.9205006
0
LINE
8
0
10
-15.5500002
20
45.9205006
11
-15.5500002
21
45.789466
0
LINE
8
0
10
-15.5500002
20
45.789466
11
-15.5500002
21
45.5965909
0
LINE
8
0
10
-15.5500002
20
45.5965909
11
-15.5500002
21
45.3395158
0
LINE
8
0
10
-15.5500002
20
45.3395158
11
-15.5500002
21
45.0344481
0
LINE
8
0
10
-15.5500002
20
45.0344481
11
-15.5500002
21
44.7247373
0
LINE
8
0
10
-15.5500002
20
44.7247373
11
-15.5500002
21
44.4732147
0
LINE
8
0
10
-15.5500002
20
44.4732147
11
-15.5500002
21
44.3328491
0
LINE
8
0
10
-15.5500002
20
44.3328491
11
-15.5500002
21
36.8869888
0
LINE
8
0
10
-15.5500002
20
36.8869888
11
-15.5500002
21
19.6124715
0
LINE
8
0
10
-15.5500002
20
19.6124715
11
-15.5500002
21
16.3151327
0
LINE
8
0
10
-15.5500002
20
16.3151327
11
-15.5500002
21
14.8491021
0
LINE
8
0
10
-15.5500002
20
14.8491021
11
-15.5500002
21
14.6344993
0
LINE
8
0
10
-15.5500002
20
14.6344993
11
-15.5500002
21
14.3321529
0
LINE
8
0
10
-15.5500002
20
14.3321529
11
-15.5500002
21
14.0012218
0
LINE
8
0
10
-15.5500002
20
14.0012218
11
-15.5500002
21
13.6911851
0
LINE
8
0
10
-15.5500002
20
13.6911851
11
-15.5500002
21
13.4305706
0
LINE
8
0
10
-15.5500002
20
13.4305706
11
-15.5500002
21
13.2292749
0
LINE
8
0
10
-15.5500002
20
13.2292749
11
-15.5500002
21
13.0859601
0
LINE
8
0
10
-15.5500002
20
13.0859601
11
-15.5500002
21
12.9944809
0
LINE
8
0
10
-15.5500002
20
12.9944809
11
-15.5500002
21
12.6494059
0
LINE
8
0
10
-15.5500002
20
12.6494059
11
-18.0206607
21
12.6494059
0
LINE
8
0
10
-18.0206607
20
12.6494059
11
-18.5499992
21
12.6494059
0
LINE
8
0
10
-18.5499992
20
12.6494059
11
-18.5499992
21
13.0859601
0
LINE
8
0
10
-18.5499992
20
13.0859601
11
-18.5499992
21
13.2292749
0
LINE
8
0
10
-18.5499992
20
13.2292749
11
-18.5499992
21
13.4305706
0
LINE
8
0
10
-18.5499992
20
13.4305706
11
-18.5499992
21
13.6911851
0
LINE
8
0
10
-18.5499992
20
13.6911851
11
-18.5499992
21
14.0012218
0
LINE
8
0
10
-18.5499992
20
14.0012218
11
-18.5499992
21
14.3321529
0
LINE
8
0
10
-18.5499992
20
14.3321529
11
-18.5499992
21
14.6344993
0
LINE
8
0
10
-18.5499992
20
14.6344993
11
-18.5499992
21
14.8491021
0
LINE
8
0
10
-18.5499992
20
14.8491021
11
-18.5499992
21
16.3151327
0
LINE
8
0
10
-18.5499992
20
16.3151327
11
-18.5499992
21
19.1093111
0
LINE
8
0
10
-18.5499992
20
19.1093111
11
-18.5499992
21
23.4150181
0
LINE
8
0
10
-18.5499992
20
23.4150181
11
-18.5499992
21
29.103798
0
LINE
8
0
10
-18.5499992
20
29.103798
11
-18.5499992
21
31.105468
0
LINE
8
0
10
-18.5499992
20
31.105468
11
-18.5499992
21
40.4272476
0
LINE
8
0
10
-18.5499992
20
40.4272476
11
-18.5499992
21
41.5211626
0
LINE
8
0
10
-18.5499992
20
41.5211626
11
-18.5499992
21
41.8517131
0
LINE
8
0
10
-18.5499992
20
41.8517131
11
-18.5499992
21
42.2219148
0
LINE
8
0
10
-18.5499992
20
42.2219148
11
-18.5499992
21
42.6014546
0
LINE
8
0
10
-18.5499992
20
42.6014546
11
-18.5499992
21
42.9564792
0
LINE
8
0
10
-18.5499992
20
42.9564792
11
-18.5499992
21
43.1450546
0
LINE
8
0
10
-18.5499992
20
43.1450546
11
-18.5499992
21
43.47508
0
LINE
8
0
10
-18.5499992
20
43.47508
11
-18.5499992
21
43.7431843
0
LINE
8
0
10
-18.5499992
20
43.7431843
11
-18.5499992
21
44.2284623
0
LINE
8
0
10
-18.5499992
20
44.2284623
11
-18.5499992
21
44.5380456
0
LINE
8
0
10
-18.5499992
20
44.5380456
11
-18.5499992
21
44.7787901
0
LINE
8
0
10
-18.5499992
20
44.7787901
11
-18.5499992
21
44.9401131
0
LINE
8
0
10
-18.5499992
20
44.9401131
11
-18.5499992
21
45.0180973
0
LINE
8
0
10
-18.5499992
20
45.0180973
11
-18.5499992
21
45.8638005
0
LINE
8
0
10
-18.5499992
20
45.8638005
11
-18.5499992
21
46.5
0
LINE
8
0
10
-18.5499992
20
46.5
11
-15.622297
21
46.5
0
LINE
8
0
10
-15.622297
20
46.5
11
-15.622297
21
46.5
0
ENDSEC
0
EOF
