0
SECTION
2
ENTITIES
0
LINE
8
0
10
-15.6564393
20
46.5
11
-15.5500002
21
46.5
0
LINE
8
0
10
-15.5500002
20
46.5
11
-15.5500002
21
45.8329315
0
LINE
8
0
10
-15.5500002
20
45.8329315
11
-15.5500002
21
45.8210126
0
LINE
8
0
10
-15.5500002
20
45.8210126
11
-15.5500002
21
45.7636709
0
LINE
8
0
10
-15.5500002
20
45.7636709
11
-15.5500002
21
45.6468311
0
LINE
8
0
10
-15.5500002
20
45.6468311
11
-15.5500002
21
45.4539152
0
LINE
8
0
10
-15.5500002
20
45.4539152
11
-15.5500002
21
45.1699544
0
LINE
8
0
10
-15.5500002
20
45.1699544
11
-15.5500002
21
44.7914752
0
LINE
8
0
10
-15.5500002
20
44.7914752
11
-15.5500002
21
44.3423387
0
LINE
8
0
10
-15.5500002
20
44.3423387
11
-15.5500002
21
43.8863664
0
LINE
8
0
10
-15.5500002
20
43.8863664
11
-15.5500002
21
43.5160619
0
LINE
8
0
10
-15.5500002
20
43.5160619
11
-15.5500002
21
43.3094084
0
LINE
8
0
10
-15.5500002
20
43.3094084
11
-15.5500002
21
32.3472279
0
LINE
8
0
10
-15.5500002
20
32.3472279
11
-15.5500002
21
23.4717966
0
LINE
8
0
10
-15.5500002
20
23.4717966
11
-15.5500002
21
18.6172839
0
LINE
8
0
10
-15.5500002
20
18.6172839
11
-15.5500002
21
16.4589178
0
LINE
8
0
10
-15.5500002
20
16.4589178
11
-15.5500002
21
16.1429686
0
LINE
8
0
10
-15.5500002
20
16.1429686
11
-15.5500002
21
15.6978385
0
LINE
8
0
10
-15.5500002
20
15.6978385
11
-15.5500002
21
15.2106247
0
LINE
8
0
10
-15.5500002
20
15.2106247
11
-15.5500002
21
14.7541726
0
LINE
8
0
10
-15.5500002
20
14.7541726
11
-15.5500002
21
14.3704825
0
LINE
8
0
10
-15.5500002
20
14.3704825
11
-15.5500002
21
14.0741245
0
LINE
8
0
10
-15.5500002
20
14.0741245
11
-15.5500002
21
13.863129
0
LINE
8
0
10
-15.5500002
20
13.863129
11
-15.5500002
21
13.7284486
0
LINE
8
0
10
-15.5500002
20
13.7284486
11
-15.5500002
21
13.2204113
0
LINE
8
0
10
-15.5500002
20
13.2204113
11
-17.7706797
21
13.2204113
0
LINE
8
0
10
-17.7706797
20
13.2204113
11
-18.5499992
21
13.2204113
0
LINE
8
0
10
-18.5499992
20
13.2204113
11
-18.5499992
21
13.863129
0
LINE
8
0
10
-18.5499992
20
13.863129
11
-18.5499992
21
14.0741245
0
LINE
8
0
10
-18.5499992
20
14.0741245
11
-18.5499992
21
14.3704825
0
LINE
8
0
10
-18.5499992
20
14.3704825
11
-18.5499992
21
14.7541726
0
LINE
8
0
10
-18.5499992
20
14.7541726
11
-18.5499992
21
15.2106247
0
LINE
8
0
10
-18.5499992
20
15.2106247
11
-18.5499992
21
15.6978385
0
LINE
8
0
10
-18.5499992
20
15.6978385
11
-18.5499992
21
16.1429686
0
LINE
8
0
10
-18.5499992
20
16.1429686
11
-18.5499992
21
16.4589178
0
LINE
8
0
10
-18.5499992
20
16.4589178
11
-18.5499992
21
18.6172839
0
LINE
8
0
10
-18.5499992
20
18.6172839
11
-18.5499992
21
20.0528979
0
LINE
8
0
10
-18.5499992
20
20.0528979
11
-18.5499992
21
22.2651164
0
LINE
8
0
10
-18.5499992
20
22.2651164
11
-18.5499992
21
28.3483216
0
LINE
8
0
10
-18.5499992
20
28.3483216
11
-18.5499992
21
30.4887753
0
LINE
8
0
10
-18.5499992
20
30.4887753
11
-18.5499992
21
40.4568704
0
LINE
8
0
10
-18.5499992
20
40.4568704
11
-18.5499992
21
41.6266307
0
LINE
8
0
10
-18.5499992
20
41.6266307
11
-18.5499992
21
41.9800996
0
LINE
8
0
10
-18.5499992
20
41.9800996
11
-18.5499992
21
42.3759688
0
LINE
8
0
10
-18.5499992
20
42.3759688
11
-18.5499992
21
42.7818237
0
LINE
8
0
10
-18.5499992
20
42.7818237
11
-18.5499992
21
43.1614635
0
LINE
8
0
10
-18.5499992
20
43.1614635
11
-18.5499992
21
43.2387706
0
LINE
8
0
10
-18.5499992
20
43.2387706
11
-18.5499992
21
43.5875969
0
LINE
8
0
10
-18.5499992
20
43.5875969
11
-18.5499992
21
43.8709747
0
LINE
8
0
10
-18.5499992
20
43.8709747
11
-18.5499992
21
44.1508029
0
LINE
8
0
10
-18.5499992
20
44.1508029
11
-18.5499992
21
44.4709702
0
LINE
8
0
10
-18.5499992
20
44.4709702
11
-18.5499992
21
44.7199453
0
LINE
8
0
10
-18.5499992
20
44.7199453
11
-18.5499992
21
44.8867836
0
LINE
8
0
10
-18.5499992
20
44.8867836
11
-18.5499992
21
44.967434
0
LINE
8
0
10
-18.5499992
20
44.967434
11
-18.5499992
21
45.8420501
0
LINE
8
0
10
-18.5499992
20
45.8420501
11
-18.5499992
21
46.5
0
LINE
8
0
10
-18.5499992
20
46.5
11
-15.6564393
21
46.5
0
LINE
8
0
10
-15.6564393
20
46.5
11
-15.6564393
21
46.5
0
LINE
8
0
10
-17.5171947
20
-1.10000002
11
-15.5500002
21
-1.10000002
0
LINE
8
0
10
-15.5500002
20
-1.10000002
11
-15.5500002
21
-0.964872159
0
LINE
8
0
10
-15.5500002
20
-0.964872159
11
-15.5500002
21
-0.955195548
0
LINE
8
0
10
-15.5500002
20
-0.955195548
11
-15.5500002
21
-0.933313079
0
LINE
8
0
10
-15.5500002
20
-0.933313079
11
-15.5500002
21
-0.896455148
0
LINE
8
0
10
-15.5500002
20
-0.896455148
11
-15.5500002
21
-0.841169566
0
LINE
8
0
10
-15.5500002
20
-0.841169566
11
-15.5500002
21
-0.16002983
0
LINE
8
0
10
-15.5500002
20
-0.16002983
11
-15.5500002
21
-0.0459123217
0
LINE
8
0
10
-15.5500002
20
-0.0459123217
11
-15.5500002
21
0.142714389
0
LINE
8
0
10
-15.5500002
20
0.142714389
11
-15.5500002
21
0.42228279
0
LINE
8
0
10
-15.5500002
20
0.42228279
11
-15.5500002
21
0.801693692
0
LINE
8
0
10
-15.5500002
20
0.801693692
11
-15.5500002
21
1.2677936
0
LINE
8
0
10
-15.5500002
20
1.2677936
11
-15.5500002
21
1.7686445
0
LINE
8
0
10
-15.5500002
20
1.7686445
11
-15.5500002
21
2.21242023
0
LINE
8
0
10
-15.5500002
20
2.21242023
11
-15.5500002
21
3.41314262
0
LINE
8
0
10
-15.5500002
20
3.41314262
11
-15.5500002
21
3.7770194
0
LINE
8
0
10
-15.5500002
20
3.7770194
11
-15.5500002
21
4.20356551
0
LINE
8
0
10
-15.5500002
20
4.20356551
11
-15.5500002
21
4.60904148
0
LINE
8
0
10
-15.5500002
20
4.60904148
11
-15.5500002
21
4.93951101
0
LINE
8
0
10
-15.5500002
20
4.93951101
11
-15.5500002
21
5.17809077
0
LINE
8
0
10
-15.5500002
20
5.17809077
11
-15.5500002
21
5.33166864
0
LINE
8
0
10
-15.5500002
20
5.33166864
11
-15.5500002
21
5.41612666
0
LINE
8
0
10
-15.5500002
20
5.41612666
11
-15.5500002
21
5.9000001
0
LINE
8
0
10
-15.5500002
20
5.9000001
11
-16.430928
21
5.9000001
0
LINE
8
0
10
-16.430928
20
5.9000001
11
-18.5499992
21
5.9000001
0
LINE
8
0
10
-18.5499992
20
5.9000001
11
-18.5499992
21
5.33166864
0
LINE
8
0
10
-18.5499992
20
5.33166864
11
-18.5499992
21
5.17809077
0
LINE
8
0
10
-18.5499992
20
5.17809077
11
-18.5499992
21
4.93951101
0
LINE
8
0
10
-18.5499992
20
4.93951101
11
-18.5499992
21
4.60904148
0
LINE
8
0
10
-18.5499992
20
4.60904148
11
-18.5499992
21
4.20356551
0
LINE
8
0
10
-18.5499992
20
4.20356551
11
-18.5499992
21
3.7770194
0
LINE
8
0
10
-18.5499992
20
3.7770194
11
-18.5499992
21
3.41314262
0
LINE
8
0
10
-18.5499992
20
3.41314262
11
-18.5499992
21
3.00275945
0
LINE
8
0
10
-18.5499992
20
3.00275945
11
-18.5499992
21
2.64484795
0
LINE
8
0
10
-18.5499992
20
2.64484795
11
-18.5499992
21
2.55963618
0
LINE
8
0
10
-18.5499992
20
2.55963618
11
-18.5499992
21
2.23251685
0
LINE
8
0
10
-18.5499992
20
2.23251685
11
-18.5499992
21
1.97732617
0
LINE
8
0
10
-18.5499992
20
1.97732617
11
-18.5499992
21
1.65041417
0
LINE
8
0
10
-18.5499992
20
1.65041417
11
-18.5499992
21
1.35265489
0
LINE
8
0
10
-18.5499992
20
1.35265489
11
-18.5499992
21
1.1311318
0
LINE
8
0
10
-18.5499992
20
1.1311318
11
-18.5499992
21
0.994086164
0
LINE
8
0
10
-18.5499992
20
0.994086164
11
-18.5499992
21
-0.28988461
0
LINE
8
0
10
-18.5499992
20
-0.28988461
11
-18.5499992
21
-0.370267113
0
LINE
8
0
10
-18.5499992
20
-0.370267113
11
-18.5499992
21
-1.10000002
0
LINE
8
0
10
-18.5499992
20
-1.10000002
11
-17.5171947
21
-1.10000002
0
LINE
8
0
10
-17.5171947
20
-1.10000002
11
-17.5171947
21
-1.10000002
0
ENDSEC
0
EOF
