0
SECTION
2
ENTITIES
0
LINE
8
0
10
-17.3976966
20
-1.10000002
11
-15.5500002
21
-1.10000002
0
LINE
8
0
10
-15.5500002
20
-1.10000002
11
-15.5500002
21
-0.813165575
0
LINE
8
0
10
-15.5500002
20
-0.813165575
11
-15.5500002
21
-0.792625138
0
LINE
8
0
10
-15.5500002
20
-0.792625138
11
-15.5500002
21
-0.746175459
0
LINE
8
0
10
-15.5500002
20
-0.746175459
11
-15.5500002
21
-0.667937531
0
LINE
8
0
10
-15.5500002
20
-0.667937531
11
-15.5500002
21
-0.550583428
0
LINE
8
0
10
-15.5500002
20
-0.550583428
11
-15.5500002
21
0.895264479
0
LINE
8
0
10
-15.5500002
20
0.895264479
11
-15.5500002
21
1.13750047
0
LINE
8
0
10
-15.5500002
20
1.13750047
11
-15.5500002
21
1.30358946
0
LINE
8
0
10
-15.5500002
20
1.30358946
11
-16.8868525
21
1.30358946
0
LINE
8
0
10
-16.8868525
20
1.30358946
11
-18.5499992
21
1.30358946
0
LINE
8
0
10
-18.5499992
20
1.30358946
11
-18.5499992
21
1.23637713
0
LINE
8
0
10
-18.5499992
20
1.23637713
11
-18.5499992
21
-0.196152248
0
LINE
8
0
10
-18.5499992
20
-0.196152248
11
-18.5499992
21
-0.285835206
0
LINE
8
0
10
-18.5499992
20
-0.285835206
11
-18.5499992
21
-1.10000002
0
LINE
8
0
10
-18.5499992
20
-1.10000002
11
-17.3976966
21
-1.10000002
0
LINE
8
0
10
-17.3976966
20
-1.10000002
11
-17.3976966
21
-1.10000002
0
LINE
8
0
10
-16.8957462
20
15.2189304
11
-15.5500002
21
15.2189304
0
LINE
8
0
10
-15.5500002
20
15.2189304
11
-15.5500002
21
16.2973357
0
LINE
8
0
10
-15.5500002
20
16.2973357
11
-15.5500002
21
16.5832203
0
LINE
8
0
10
-15.5500002
20
16.5832203
11
-15.5500002
21
17.0310981
0
LINE
8
0
10
-15.5500002
20
17.0310981
11
-15.5500002
21
17.660174
0
LINE
8
0
10
-15.5500002
20
17.660174
11
-15.5500002
21
17.7620595
0
LINE
8
0
10
-15.5500002
20
17.7620595
11
-15.9603147
21
17.7620595
0
LINE
8
0
10
-15.9603147
20
17.7620595
11
-18.5499992
21
17.7620595
0
LINE
8
0
10
-18.5499992
20
17.7620595
11
-18.5499992
21
17.660174
0
LINE
8
0
10
-18.5499992
20
17.660174
11
-18.5499992
21
17.0310981
0
LINE
8
0
10
-18.5499992
20
17.0310981
11
-18.5499992
21
16.5832203
0
LINE
8
0
10
-18.5499992
20
16.5832203
11
-18.5499992
21
15.2189304
0
LINE
8
0
10
-18.5499992
20
15.2189304
11
-16.8957462
21
15.2189304
0
LINE
8
0
10
-16.8957462
20
15.2189304
11
-16.8957462
21
15.2189304
0
LINE
8
0
10
-18.1396847
20
20.2379405
11
-15.5500002
21
20.2379405
0
LINE
8
0
10
-15.5500002
20
20.2379405
11
-15.5500002
21
20.283771
0
LINE
8
0
10
-15.5500002
20
20.283771
11
-15.5500002
21
20.4835545
0
LINE
8
0
10
-15.5500002
20
20.4835545
11
-15.5500002
21
21.0499992
0
LINE
8
0
10
-15.5500002
20
21.0499992
11
-16.6306023
21
21.0499992
0
LINE
8
0
10
-16.6306023
20
21.0499992
11
-18.5499992
21
21.0499992
0
LINE
8
0
10
-18.5499992
20
21.0499992
11
-18.5499992
21
20.4835545
0
LINE
8
0
10
-18.5499992
20
20.4835545
11
-18.5499992
21
20.283771
0
LINE
8
0
10
-18.5499992
20
20.283771
11
-18.5499992
21
20.2379405
0
LINE
8
0
10
-18.5499992
20
20.2379405
11
-18.1396847
21
20.2379405
0
LINE
8
0
10
-18.1396847
20
20.2379405
11
-18.1396847
21
20.2379405
0
LINE
8
0
10
-17.419936
20
5.9000001
11
-15.5500002
21
5.9000001
0
LINE
8
0
10
-15.5500002
20
5.9000001
11
-15.5500002
21
4.87288723
0
LINE
8
0
10
-15.5500002
20
4.87288723
11
-15.5500002
21
4.70566053
0
LINE
8
0
10
-15.5500002
20
4.70566053
11
-15.7301163
21
4.70566053
0
LINE
8
0
10
-15.7301163
20
4.70566053
11
-18.5499992
21
4.70566053
0
LINE
8
0
10
-18.5499992
20
4.70566053
11
-18.5499992
21
4.71777813
0
LINE
8
0
10
-18.5499992
20
4.71777813
11
-18.5499992
21
5.9000001
0
LINE
8
0
10
-18.5499992
20
5.9000001
11
-17.419936
21
5.9000001
0
LINE
8
0
10
-17.419936
20
5.9000001
11
-17.419936
21
5.9000001
0
LINE
8
0
10
-15.7301163
20
44.7056596
11
-15.5500002
21
44.7056596
0
LINE
8
0
10
-15.5500002
20
44.7056596
11
-15.5500002
21
44.9370023
0
LINE
8
0
10
-15.5500002
20
44.9370023
11
-15.5500002
21
45.0587207
0
LINE
8
0
10
-15.5500002
20
45.0587207
11
-15.5500002
21
45.0840209
0
LINE
8
0
10
-15.5500002
20
45.0840209
11
-15.5500002
21
46.5
0
LINE
8
0
10
-15.5500002
20
46.5
11
-15.7759374
21
46.5
0
LINE
8
0
10
-15.7759374
20
46.5
11
-18.5499992
21
46.5
0
LINE
8
0
10
-18.5499992
20
46.5
11
-18.5499992
21
45.7659237
0
LINE
8
0
10
-18.5499992
20
45.7659237
11
-18.5499992
21
44.7901123
0
LINE
8
0
10
-18.5499992
20
44.7901123
11
-18.5499992
21
44.7056596
0
LINE
8
0
10
-18.5499992
20
44.7056596
11
-15.7301163
21
44.7056596
0
LINE
8
0
10
-15.7301163
20
44.7056596
11
-15.7301163
21
44.7056596
0
LINE
8
0
10
-18.5278366
20
40.5499992
11
-15.5500002
21
40.5499992
0
LINE
8
0
10
-15.5500002
20
40.5499992
11
-15.5500002
21
40.5578084
0
LINE
8
0
10
-15.5500002
20
40.5578084
11
-15.5500002
21
40.6615252
0
LINE
8
0
10
-15.5500002
20
40.6615252
11
-15.5500002
21
40.6696884
0
LINE
8
0
10
-15.5500002
20
40.6696884
11
-15.5500002
21
40.7112877
0
LINE
8
0
10
-15.5500002
20
40.7112877
11
-15.5500002
21
40.9002388
0
LINE
8
0
10
-15.5500002
20
40.9002388
11
-15.5500002
21
41.3035894
0
LINE
8
0
10
-15.5500002
20
41.3035894
11
-16.8868525
21
41.3035894
0
LINE
8
0
10
-16.8868525
20
41.3035894
11
-18.5499992
21
41.3035894
0
LINE
8
0
10
-18.5499992
20
41.3035894
11
-18.5499992
21
40.9002388
0
LINE
8
0
10
-18.5499992
20
40.9002388
11
-18.5499992
21
40.7112877
0
LINE
8
0
10
-18.5499992
20
40.7112877
11
-18.5499992
21
40.6696884
0
LINE
8
0
10
-18.5499992
20
40.6696884
11
-18.5499992
21
40.6615252
0
LINE
8
0
10
-18.5499992
20
40.6615252
11
-18.5499992
21
40.5499992
0
LINE
8
0
10
-18.5499992
20
40.5499992
11
-18.5278366
21
40.5499992
0
LINE
8
0
10
-18.5278366
20
40.5499992
11
-18.5278366
21
40.5499992
0
ENDSEC
0
EOF
