0
SECTION
2
ENTITIES
0
LINE
8
0
10
-16.2917373
20
4.73833702
11
-15.5500002
21
4.73833702
0
LINE
8
0
10
-15.5500002
20
4.73833702
11
-15.5500002
21
4.76397442
0
LINE
8
0
10
-15.5500002
20
4.76397442
11
-15.5500002
21
4.82466928
0
LINE
8
0
10
-15.5500002
20
4.82466928
11
-15.5500002
21
5.9000001
0
LINE
8
0
10
-15.5500002
20
5.9000001
11
-17.7025098
21
5.9000001
0
LINE
8
0
10
-17.7025098
20
5.9000001
11
-18.5499992
21
5.9000001
0
LINE
8
0
10
-18.5499992
20
5.9000001
11
-18.5499992
21
5.01339422
0
LINE
8
0
10
-18.5499992
20
5.01339422
11
-18.5499992
21
4.82466928
0
LINE
8
0
10
-18.5499992
20
4.82466928
11
-18.5499992
21
4.73833702
0
LINE
8
0
10
-18.5499992
20
4.73833702
11
-16.2917373
21
4.73833702
0
LINE
8
0
10
-16.2917373
20
4.73833702
11
-16.2917373
21
4.73833702
0
LINE
8
0
10
-16.2917373
20
44.7383368
11
-15.5500002
21
44.7383368
0
LINE
8
0
10
-15.5500002
20
44.7383368
11
-15.5500002
21
44.8409231
0
LINE
8
0
10
-15.5500002
20
44.8409231
11
-15.5500002
21
44.8700465
0
LINE
8
0
10
-15.5500002
20
44.8700465
11
-15.5500002
21
46.5
0
LINE
8
0
10
-15.5500002
20
46.5
11
-15.8100797
21
46.5
0
LINE
8
0
10
-15.8100797
20
46.5
11
-18.5499992
21
46.5
0
LINE
8
0
10
-18.5499992
20
46.5
11
-18.5499992
21
45.7441733
0
LINE
8
0
10
-18.5499992
20
45.7441733
11
-18.5499992
21
44.75
0
LINE
8
0
10
-18.5499992
20
44.75
11
-18.5499992
21
44.749782
0
LINE
8
0
10
-18.5499992
20
44.749782
11
-18.5499992
21
44.7383368
0
LINE
8
0
10
-18.5499992
20
44.7383368
11
-16.2917373
21
44.7383368
0
LINE
8
0
10
-16.2917373
20
44.7383368
11
-16.2917373
21
44.7383368
0
LINE
8
0
10
-16.4396878
20
20.2868626
11
-15.5500002
21
20.2868626
0
LINE
8
0
10
-15.5500002
20
20.2868626
11
-15.5500002
21
20.3440211
0
LINE
8
0
10
-15.5500002
20
20.3440211
11
-15.5500002
21
21.0499992
0
LINE
8
0
10
-15.5500002
20
21.0499992
11
-17.0728764
21
21.0499992
0
LINE
8
0
10
-17.0728764
20
21.0499992
11
-18.5499992
21
21.0499992
0
LINE
8
0
10
-18.5499992
20
21.0499992
11
-18.5499992
21
20.3440211
0
LINE
8
0
10
-18.5499992
20
20.3440211
11
-18.5499992
21
20.2868626
0
LINE
8
0
10
-18.5499992
20
20.2868626
11
-16.4396878
21
20.2868626
0
LINE
8
0
10
-16.4396878
20
20.2868626
11
-16.4396878
21
20.2868626
0
LINE
8
0
10
-17.3635543
20
-1.10000002
11
-15.5500002
21
-1.10000002
0
LINE
8
0
10
-15.5500002
20
-1.10000002
11
-15.5500002
21
-0.769820837
0
LINE
8
0
10
-15.5500002
20
-0.769820837
11
-15.5500002
21
-0.746176449
0
LINE
8
0
10
-15.5500002
20
-0.746176449
11
-15.5500002
21
-0.692707568
0
LINE
8
0
10
-15.5500002
20
-0.692707568
11
-15.5500002
21
-0.602646783
0
LINE
8
0
10
-15.5500002
20
-0.602646783
11
-15.5500002
21
-0.467558817
0
LINE
8
0
10
-15.5500002
20
-0.467558817
11
-15.5500002
21
1.19677714
0
LINE
8
0
10
-15.5500002
20
1.19677714
11
-15.5500002
21
1.26183283
0
LINE
8
0
10
-15.5500002
20
1.26183283
11
-16.3132764
21
1.26183283
0
LINE
8
0
10
-16.3132764
20
1.26183283
11
-18.5499992
21
1.26183283
0
LINE
8
0
10
-18.5499992
20
1.26183283
11
-18.5499992
21
1.23353219
0
LINE
8
0
10
-18.5499992
20
1.23353219
11
-18.5499992
21
-0.169371573
0
LINE
8
0
10
-18.5499992
20
-0.169371573
11
-18.5499992
21
-0.261711804
0
LINE
8
0
10
-18.5499992
20
-0.261711804
11
-18.5499992
21
-1.10000002
0
LINE
8
0
10
-18.5499992
20
-1.10000002
11
-17.3635543
21
-1.10000002
0
LINE
8
0
10
-17.3635543
20
-1.10000002
11
-17.3635543
21
-1.10000002
0
LINE
8
0
10
-17.6603116
20
17.7131374
11
-15.5500002
21
17.7131374
0
LINE
8
0
10
-15.5500002
20
17.7131374
11
-15.5500002
21
17.3603893
0
LINE
8
0
10
-15.5500002
20
17.3603893
11
-15.5500002
21
17.0313035
0
LINE
8
0
10
-15.5500002
20
17.0313035
11
-15.5500002
21
15.7899359
0
LINE
8
0
10
-15.5500002
20
15.7899359
11
-16.6457652
21
15.7899359
0
LINE
8
0
10
-16.6457652
20
15.7899359
11
-18.5499992
21
15.7899359
0
LINE
8
0
10
-18.5499992
20
15.7899359
11
-18.5499992
21
17.3603893
0
LINE
8
0
10
-18.5499992
20
17.3603893
11
-18.5499992
21
17.7131374
0
LINE
8
0
10
-18.5499992
20
17.7131374
11
-17.6603116
21
17.7131374
0
LINE
8
0
10
-17.6603116
20
17.7131374
11
-17.6603116
21
17.7131374
0
LINE
8
0
10
-16.3132764
20
41.2618332
11
-15.5500002
21
41.2618332
0
LINE
8
0
10
-15.5500002
20
41.2618332
11
-15.5500002
21
41.1641267
0
LINE
8
0
10
-15.5500002
20
41.1641267
11
-15.5500002
21
41.0057318
0
LINE
8
0
10
-15.5500002
20
41.0057318
11
-15.5500002
21
40.9746492
0
LINE
8
0
10
-15.5500002
20
40.9746492
11
-15.5500002
21
40.5797337
0
LINE
8
0
10
-15.5500002
20
40.5797337
11
-15.5500002
21
40.5499992
0
LINE
8
0
10
-15.5500002
20
40.5499992
11
-18.4656118
21
40.5499992
0
LINE
8
0
10
-18.4656118
20
40.5499992
11
-18.5499992
21
40.5499992
0
LINE
8
0
10
-18.5499992
20
40.5499992
11
-18.5499992
21
40.9746492
0
LINE
8
0
10
-18.5499992
20
40.9746492
11
-18.5499992
21
41.0057318
0
LINE
8
0
10
-18.5499992
20
41.0057318
11
-18.5499992
21
41.1641267
0
LINE
8
0
10
-18.5499992
20
41.1641267
11
-18.5499992
21
41.2618332
0
LINE
8
0
10
-18.5499992
20
41.2618332
11
-16.3132764
21
41.2618332
0
LINE
8
0
10
-16.3132764
20
41.2618332
11
-16.3132764
21
41.2618332
0
ENDSEC
0
EOF
