0
SECTION
2
ENTITIES
0
LINE
8
0
10
-16.2301762
20
17.8447218
11
-15.5500002
21
17.8447218
0
LINE
8
0
10
-15.5500002
20
17.8447218
11
-15.5500002
21
17.7652712
0
LINE
8
0
10
-15.5500002
20
17.7652712
11
-15.5500002
21
16.3609414
0
LINE
8
0
10
-15.5500002
20
16.3609414
11
-16.3957842
21
16.3609414
0
LINE
8
0
10
-16.3957842
20
16.3609414
11
-18.5499992
21
16.3609414
0
LINE
8
0
10
-18.5499992
20
16.3609414
11
-18.5499992
21
17.8156681
0
LINE
8
0
10
-18.5499992
20
17.8156681
11
-18.5499992
21
17.8447218
0
LINE
8
0
10
-18.5499992
20
17.8447218
11
-16.2301762
21
17.8447218
0
LINE
8
0
10
-16.2301762
20
17.8447218
11
-16.2301762
21
17.8447218
0
LINE
8
0
10
-17.5151505
20
21.0499992
11
-15.5500002
21
21.0499992
0
LINE
8
0
10
-15.5500002
20
21.0499992
11
-15.5500002
21
20.5554022
0
LINE
8
0
10
-15.5500002
20
20.5554022
11
-15.5500002
21
20.3969358
0
LINE
8
0
10
-15.5500002
20
20.3969358
11
-15.5500002
21
20.1552782
0
LINE
8
0
10
-15.5500002
20
20.1552782
11
-17.8698233
21
20.1552782
0
LINE
8
0
10
-17.8698233
20
20.1552782
11
-18.5499992
21
20.1552782
0
LINE
8
0
10
-18.5499992
20
20.1552782
11
-18.5499992
21
20.3969358
0
LINE
8
0
10
-18.5499992
20
20.3969358
11
-18.5499992
21
20.5554022
0
LINE
8
0
10
-18.5499992
20
20.5554022
11
-18.5499992
21
21.0499992
0
LINE
8
0
10
-18.5499992
20
21.0499992
11
-17.5151505
21
21.0499992
0
LINE
8
0
10
-17.5151505
20
21.0499992
11
-17.5151505
21
21.0499992
0
LINE
8
0
10
-18.4033871
20
40.5499992
11
-15.5500002
21
40.5499992
0
LINE
8
0
10
-15.5500002
20
40.5499992
11
-15.5500002
21
40.601659
0
LINE
8
0
10
-15.5500002
20
40.601659
11
-15.5500002
21
41.2877733
0
LINE
8
0
10
-15.5500002
20
41.2877733
11
-15.5500002
21
41.3417752
0
LINE
8
0
10
-15.5500002
20
41.3417752
11
-15.5500002
21
41.3508869
0
LINE
8
0
10
-15.5500002
20
41.3508869
11
-15.6988888
21
41.3508869
0
LINE
8
0
10
-15.6988888
20
41.3508869
11
-18.5499992
21
41.3508869
0
LINE
8
0
10
-18.5499992
20
41.3508869
11
-18.5499992
21
41.3417752
0
LINE
8
0
10
-18.5499992
20
41.3417752
11
-18.5499992
21
41.2877733
0
LINE
8
0
10
-18.5499992
20
41.2877733
11
-18.5499992
21
40.5499992
0
LINE
8
0
10
-18.5499992
20
40.5499992
11
-18.4033871
21
40.5499992
0
LINE
8
0
10
-18.4033871
20
40.5499992
11
-18.4033871
21
40.5499992
0
LINE
8
0
10
-17.9850835
20
5.9000001
11
-15.5500002
21
5.9000001
0
LINE
8
0
10
-15.5500002
20
5.9000001
11
-15.5500002
21
5.18321088
0
LINE
8
0
10
-15.5500002
20
5.18321088
11
-15.5500002
21
4.8310758
0
LINE
8
0
10
-15.5500002
20
4.8310758
11
-15.5500002
21
4.73839363
0
LINE
8
0
10
-15.5500002
20
4.73839363
11
-15.5500002
21
4.63901151
0
LINE
8
0
10
-15.5500002
20
4.63901151
11
-16.927627
21
4.63901151
0
LINE
8
0
10
-16.927627
20
4.63901151
11
-18.5499992
21
4.63901151
0
LINE
8
0
10
-18.5499992
20
4.63901151
11
-18.5499992
21
4.88806145
0
LINE
8
0
10
-18.5499992
20
4.88806145
11
-18.5499992
21
5.18321088
0
LINE
8
0
10
-18.5499992
20
5.18321088
11
-18.5499992
21
5.30901031
0
LINE
8
0
10
-18.5499992
20
5.30901031
11
-18.5499992
21
5.9000001
0
LINE
8
0
10
-18.5499992
20
5.9000001
11
-17.9850835
21
5.9000001
0
LINE
8
0
10
-17.9850835
20
5.9000001
11
-17.9850835
21
5.9000001
0
LINE
8
0
10
-15.6988888
20
1.35088735
11
-15.5500002
21
1.35088735
0
LINE
8
0
10
-15.5500002
20
1.35088735
11
-15.5500002
21
1.2575999
0
LINE
8
0
10
-15.5500002
20
1.2575999
11
-15.5500002
21
1.23929949
0
LINE
8
0
10
-15.5500002
20
1.23929949
11
-15.5500002
21
-0.384534206
0
LINE
8
0
10
-15.5500002
20
-0.384534206
11
-15.5500002
21
-0.537356035
0
LINE
8
0
10
-15.5500002
20
-0.537356035
11
-15.5500002
21
-0.639239677
0
LINE
8
0
10
-15.5500002
20
-0.639239677
11
-15.5500002
21
-0.699727761
0
LINE
8
0
10
-15.5500002
20
-0.699727761
11
-15.5500002
21
-0.726476099
0
LINE
8
0
10
-15.5500002
20
-0.726476099
11
-15.5500002
21
-1.10000002
0
LINE
8
0
10
-15.5500002
20
-1.10000002
11
-17.329412
21
-1.10000002
0
LINE
8
0
10
-17.329412
20
-1.10000002
11
-18.5499992
21
-1.10000002
0
LINE
8
0
10
-18.5499992
20
-1.10000002
11
-18.5499992
21
-0.237588402
0
LINE
8
0
10
-18.5499992
20
-0.237588402
11
-18.5499992
21
-0.142590898
0
LINE
8
0
10
-18.5499992
20
-0.142590898
11
-18.5499992
21
1.1887726
0
LINE
8
0
10
-18.5499992
20
1.1887726
11
-18.5499992
21
1.22519587
0
LINE
8
0
10
-18.5499992
20
1.22519587
11
-18.5499992
21
1.2293072
0
LINE
8
0
10
-18.5499992
20
1.2293072
11
-18.5499992
21
1.23929949
0
LINE
8
0
10
-18.5499992
20
1.23929949
11
-18.5499992
21
1.35088735
0
LINE
8
0
10
-18.5499992
20
1.35088735
11
-15.6988888
21
1.35088735
0
LINE
8
0
10
-15.6988888
20
1.35088735
11
-15.6988888
21
1.35088735
0
LINE
8
0
10
-16.927627
20
44.6390114
11
-15.5500002
21
44.6390114
0
LINE
8
0
10
-15.5500002
20
44.6390114
11
-15.5500002
21
44.6560721
0
LINE
8
0
10
-15.5500002
20
44.6560721
11
-15.5500002
21
46.5
0
LINE
8
0
10
-15.5500002
20
46.5
11
-15.844222
21
46.5
0
LINE
8
0
10
-15.844222
20
46.5
11
-18.5499992
21
46.5
0
LINE
8
0
10
-18.5499992
20
46.5
11
-18.5499992
21
45.7224229
0
LINE
8
0
10
-18.5499992
20
45.7224229
11
-18.5499992
21
44.75
0
LINE
8
0
10
-18.5499992
20
44.75
11
-18.5499992
21
44.7487355
0
LINE
8
0
10
-18.5499992
20
44.7487355
11
-18.5499992
21
44.7028275
0
LINE
8
0
10
-18.5499992
20
44.7028275
11
-18.5499992
21
44.7016566
0
LINE
8
0
10
-18.5499992
20
44.7016566
11
-18.5499992
21
44.6390114
0
LINE
8
0
10
-18.5499992
20
44.6390114
11
-16.927627
21
44.6390114
0
LINE
8
0
10
-16.927627
20
44.6390114
11
-16.927627
21
44.6390114
0
ENDSEC
0
EOF
