0
SECTION
2
ENTITIES
0
LINE
8
0
10
-15.8612931
20
46.5
11
-15.5500002
21
46.5
0
LINE
8
0
10
-15.5500002
20
46.5
11
-15.5500002
21
44.5664443
0
LINE
8
0
10
-15.5500002
20
44.5664443
11
-15.5500002
21
44.563858
0
LINE
8
0
10
-15.5500002
20
44.563858
11
-15.5500002
21
44.5421007
0
LINE
8
0
10
-15.5500002
20
44.5421007
11
-15.8423305
21
44.5421007
0
LINE
8
0
10
-15.8423305
20
44.5421007
11
-18.5499992
21
44.5421007
0
LINE
8
0
10
-18.5499992
20
44.5421007
11
-18.5499992
21
44.5634904
0
LINE
8
0
10
-18.5499992
20
44.5634904
11
-18.5499992
21
44.563858
0
LINE
8
0
10
-18.5499992
20
44.563858
11
-18.5499992
21
44.7000569
0
LINE
8
0
10
-18.5499992
20
44.7000569
11
-18.5499992
21
44.7028275
0
LINE
8
0
10
-18.5499992
20
44.7028275
11
-18.5499992
21
44.7482122
0
LINE
8
0
10
-18.5499992
20
44.7482122
11
-18.5499992
21
44.75
0
LINE
8
0
10
-18.5499992
20
44.75
11
-18.5499992
21
45.7115477
0
LINE
8
0
10
-18.5499992
20
45.7115477
11
-18.5499992
21
46.5
0
LINE
8
0
10
-18.5499992
20
46.5
11
-15.8612931
21
46.5
0
LINE
8
0
10
-15.8612931
20
46.5
11
-15.8612931
21
46.5
0
LINE
8
0
10
-16.6727236
20
18.0034448
11
-15.5500002
21
18.0034448
0
LINE
8
0
10
-15.5500002
20
18.0034448
11
-15.5500002
21
17.9196787
0
LINE
8
0
10
-15.5500002
20
17.9196787
11
-15.5500002
21
16.6464441
0
LINE
8
0
10
-15.5500002
20
16.6464441
11
-16.2707937
21
16.6464441
0
LINE
8
0
10
-16.2707937
20
16.6464441
11
-18.5499992
21
16.6464441
0
LINE
8
0
10
-18.5499992
20
16.6464441
11
-18.5499992
21
17.8861903
0
LINE
8
0
10
-18.5499992
20
17.8861903
11
-18.5499992
21
17.9196787
0
LINE
8
0
10
-18.5499992
20
17.9196787
11
-18.5499992
21
18.0034448
0
LINE
8
0
10
-18.5499992
20
18.0034448
11
-16.6727236
21
18.0034448
0
LINE
8
0
10
-16.6727236
20
18.0034448
11
-16.6727236
21
18.0034448
0
LINE
8
0
10
-18.3722748
20
40.5499992
11
-15.5500002
21
40.5499992
0
LINE
8
0
10
-15.5500002
20
40.5499992
11
-15.5500002
21
40.6126216
0
LINE
8
0
10
-15.5500002
20
40.6126216
11
-15.5500002
21
41.4443353
0
LINE
8
0
10
-15.5500002
20
41.4443353
11
-15.5500002
21
41.4659968
0
LINE
8
0
10
-15.5500002
20
41.4659968
11
-16.7328138
21
41.4659968
0
LINE
8
0
10
-16.7328138
20
41.4659968
11
-18.5499992
21
41.4659968
0
LINE
8
0
10
-18.5499992
20
41.4659968
11
-18.5499992
21
41.4443353
0
LINE
8
0
10
-18.5499992
20
41.4443353
11
-18.5499992
21
40.5499992
0
LINE
8
0
10
-18.5499992
20
40.5499992
11
-18.3722748
21
40.5499992
0
LINE
8
0
10
-18.3722748
20
40.5499992
11
-18.3722748
21
40.5499992
0
LINE
8
0
10
-17.3123409
20
-1.10000002
11
-15.5500002
21
-1.10000002
0
LINE
8
0
10
-15.5500002
20
-1.10000002
11
-15.5500002
21
-0.70480373
0
LINE
8
0
10
-15.5500002
20
-0.70480373
11
-15.5500002
21
-0.676503417
0
LINE
8
0
10
-15.5500002
20
-0.676503417
11
-15.5500002
21
-0.612505731
0
LINE
8
0
10
-15.5500002
20
-0.612505731
11
-15.5500002
21
-0.504710661
0
LINE
8
0
10
-15.5500002
20
-0.504710661
11
-15.5500002
21
-0.343021901
0
LINE
8
0
10
-15.5500002
20
-0.343021901
11
-15.5500002
21
1.22493306
0
LINE
8
0
10
-15.5500002
20
1.22493306
11
-15.5500002
21
1.25490114
0
LINE
8
0
10
-15.5500002
20
1.25490114
11
-15.5500002
21
1.34946548
0
LINE
8
0
10
-15.5500002
20
1.34946548
11
-15.5500002
21
1.36793798
0
LINE
8
0
10
-15.5500002
20
1.36793798
11
-15.5500002
21
1.4659976
0
LINE
8
0
10
-15.5500002
20
1.4659976
11
-16.7328138
21
1.4659976
0
LINE
8
0
10
-16.7328138
20
1.4659976
11
-18.5499992
21
1.4659976
0
LINE
8
0
10
-18.5499992
20
1.4659976
11
-18.5499992
21
1.34946548
0
LINE
8
0
10
-18.5499992
20
1.34946548
11
-18.5499992
21
1.33862819
0
LINE
8
0
10
-18.5499992
20
1.33862819
11
-18.5499992
21
1.22493306
0
LINE
8
0
10
-18.5499992
20
1.22493306
11
-18.5499992
21
1.20857005
0
LINE
8
0
10
-18.5499992
20
1.20857005
11
-18.5499992
21
1.20183748
0
LINE
8
0
10
-18.5499992
20
1.20183748
11
-18.5499992
21
1.1663928
0
LINE
8
0
10
-18.5499992
20
1.1663928
11
-18.5499992
21
-0.12920056
0
LINE
8
0
10
-18.5499992
20
-0.12920056
11
-18.5499992
21
-0.225526701
0
LINE
8
0
10
-18.5499992
20
-0.225526701
11
-18.5499992
21
-1.10000002
0
LINE
8
0
10
-18.5499992
20
-1.10000002
11
-17.3123409
21
-1.10000002
0
LINE
8
0
10
-17.3123409
20
-1.10000002
11
-17.3123409
21
-1.10000002
0
LINE
8
0
10
-18.1263703
20
5.9000001
11
-15.5500002
21
5.9000001
0
LINE
8
0
10
-15.5500002
20
5.9000001
11
-15.5500002
21
5.36248168
0
LINE
8
0
10
-15.5500002
20
5.36248168
11
-15.5500002
21
4.86462649
0
LINE
8
0
10
-15.5500002
20
4.86462649
11
-15.5500002
21
4.78698725
0
LINE
8
0
10
-15.5500002
20
4.78698725
11
-15.5500002
21
4.57620637
0
LINE
8
0
10
-15.5500002
20
4.57620637
11
-15.5500002
21
4.5578991
0
LINE
8
0
10
-15.5500002
20
4.5578991
11
-15.5500002
21
4.54209995
0
LINE
8
0
10
-15.5500002
20
4.54209995
11
-15.8423305
21
4.54209995
0
LINE
8
0
10
-15.8423305
20
4.54209995
11
-18.5499992
21
4.54209995
0
LINE
8
0
10
-18.5499992
20
4.54209995
11
-18.5499992
21
4.57620637
0
LINE
8
0
10
-18.5499992
20
4.57620637
11
-18.5499992
21
4.62268154
0
LINE
8
0
10
-18.5499992
20
4.62268154
11
-18.5499992
21
5.14114987
0
LINE
8
0
10
-18.5499992
20
5.14114987
11
-18.5499992
21
5.36248168
0
LINE
8
0
10
-18.5499992
20
5.36248168
11
-18.5499992
21
5.45681835
0
LINE
8
0
10
-18.5499992
20
5.45681835
11
-18.5499992
21
5.9000001
0
LINE
8
0
10
-18.5499992
20
5.9000001
11
-18.1263703
21
5.9000001
0
LINE
8
0
10
-18.1263703
20
5.9000001
11
-18.1263703
21
5.9000001
0
LINE
8
0
10
-17.4272758
20
19.9965552
11
-15.5500002
21
19.9965552
0
LINE
8
0
10
-15.5500002
20
19.9965552
11
-15.5500002
21
20.2741215
0
LINE
8
0
10
-15.5500002
20
20.2741215
11
-15.5500002
21
20.5364891
0
LINE
8
0
10
-15.5500002
20
20.5364891
11
-15.5500002
21
20.6610928
0
LINE
8
0
10
-15.5500002
20
20.6610928
11
-15.5500002
21
21.0499992
0
LINE
8
0
10
-15.5500002
20
21.0499992
11
-17.7362876
21
21.0499992
0
LINE
8
0
10
-17.7362876
20
21.0499992
11
-18.5499992
21
21.0499992
0
LINE
8
0
10
-18.5499992
20
21.0499992
11
-18.5499992
21
20.6610928
0
LINE
8
0
10
-18.5499992
20
20.6610928
11
-18.5499992
21
20.5364891
0
LINE
8
0
10
-18.5499992
20
20.5364891
11
-18.5499992
21
20.2741215
0
LINE
8
0
10
-18.5499992
20
20.2741215
11
-18.5499992
21
19.9965552
0
LINE
8
0
10
-18.5499992
20
19.9965552
11
-17.4272758
21
19.9965552
0
LINE
8
0
10
-17.4272758
20
19.9965552
11
-17.4272758
21
19.9965552
0
ENDSEC
0
EOF
