0
SECTION
2
ENTITIES
0
LINE
8
0
10
-17.2952697
20
-1.10000002
11
-15.5500002
21
-1.10000002
0
LINE
8
0
10
-15.5500002
20
-1.10000002
11
-15.5500002
21
-0.68313136
0
LINE
8
0
10
-15.5500002
20
-0.68313136
11
-15.5500002
21
-0.653279072
0
LINE
8
0
10
-15.5500002
20
-0.653279072
11
-15.5500002
21
-0.585771786
0
LINE
8
0
10
-15.5500002
20
-0.585771786
11
-15.5500002
21
-0.472065287
0
LINE
8
0
10
-15.5500002
20
-0.472065287
11
-15.5500002
21
-0.301509595
0
LINE
8
0
10
-15.5500002
20
-0.301509595
11
-15.5500002
21
1.21056663
0
LINE
8
0
10
-15.5500002
20
1.21056663
11
-15.5500002
21
1.25220237
0
LINE
8
0
10
-15.5500002
20
1.25220237
11
-15.5500002
21
1.34285133
0
LINE
8
0
10
-15.5500002
20
1.34285133
11
-15.5500002
21
1.38144433
0
LINE
8
0
10
-15.5500002
20
1.38144433
11
-15.5500002
21
1.54004238
0
LINE
8
0
10
-15.5500002
20
1.54004238
11
-15.5500002
21
1.61878837
0
LINE
8
0
10
-15.5500002
20
1.61878837
11
-17.6208492
21
1.61878837
0
LINE
8
0
10
-17.6208492
20
1.61878837
11
-18.5499992
21
1.61878837
0
LINE
8
0
10
-18.5499992
20
1.61878837
11
-18.5499992
21
1.54004238
0
LINE
8
0
10
-18.5499992
20
1.54004238
11
-18.5499992
21
1.53194794
0
LINE
8
0
10
-18.5499992
20
1.53194794
11
-18.5499992
21
1.34285133
0
LINE
8
0
10
-18.5499992
20
1.34285133
11
-18.5499992
21
1.32020989
0
LINE
8
0
10
-18.5499992
20
1.32020989
11
-18.5499992
21
1.21056663
0
LINE
8
0
10
-18.5499992
20
1.21056663
11
-18.5499992
21
1.1878329
0
LINE
8
0
10
-18.5499992
20
1.1878329
11
-18.5499992
21
1.17847909
0
LINE
8
0
10
-18.5499992
20
1.17847909
11
-18.5499992
21
1.14401301
0
LINE
8
0
10
-18.5499992
20
1.14401301
11
-18.5499992
21
-0.115810223
0
LINE
8
0
10
-18.5499992
20
-0.115810223
11
-18.5499992
21
-0.213465
0
LINE
8
0
10
-18.5499992
20
-0.213465
11
-18.5499992
21
-1.10000002
0
LINE
8
0
10
-18.5499992
20
-1.10000002
11
-17.2952697
21
-1.10000002
0
LINE
8
0
10
-17.2952697
20
-1.10000002
11
-17.2952697
21
-1.10000002
0
LINE
8
0
10
-16.1458032
20
16.9319468
11
-15.5500002
21
16.9319468
0
LINE
8
0
10
-15.5500002
20
16.9319468
11
-15.5500002
21
17.9843939
0
LINE
8
0
10
-15.5500002
20
17.9843939
11
-15.5500002
21
18.1037494
0
LINE
8
0
10
-15.5500002
20
18.1037494
11
-15.5500002
21
18.2616558
0
LINE
8
0
10
-15.5500002
20
18.2616558
11
-16.5343793
21
18.2616558
0
LINE
8
0
10
-16.5343793
20
18.2616558
11
-18.5499992
21
18.2616558
0
LINE
8
0
10
-18.5499992
20
18.2616558
11
-18.5499992
21
18.1037494
0
LINE
8
0
10
-18.5499992
20
18.1037494
11
-18.5499992
21
17.9843939
0
LINE
8
0
10
-18.5499992
20
17.9843939
11
-18.5499992
21
17.9567126
0
LINE
8
0
10
-18.5499992
20
17.9567126
11
-18.5499992
21
16.9319468
0
LINE
8
0
10
-18.5499992
20
16.9319468
11
-16.1458032
21
16.9319468
0
LINE
8
0
10
-16.1458032
20
16.9319468
11
-16.1458032
21
16.9319468
0
LINE
8
0
10
-18.2676572
20
5.9000001
11
-15.5500002
21
5.9000001
0
LINE
8
0
10
-15.5500002
20
5.9000001
11
-15.5500002
21
5.54175248
0
LINE
8
0
10
-15.5500002
20
5.54175248
11
-15.5500002
21
4.89817717
0
LINE
8
0
10
-15.5500002
20
4.89817717
11
-15.5500002
21
4.83558088
0
LINE
8
0
10
-15.5500002
20
4.83558088
11
-15.5500002
21
4.66563971
0
LINE
8
0
10
-15.5500002
20
4.66563971
11
-15.5500002
21
4.51475156
0
LINE
8
0
10
-15.5500002
20
4.51475156
11
-15.5500002
21
4.3845352
0
LINE
8
0
10
-15.5500002
20
4.3845352
11
-17.9593818
21
4.3845352
0
LINE
8
0
10
-17.9593818
20
4.3845352
11
-18.5499992
21
4.3845352
0
LINE
8
0
10
-18.5499992
20
4.3845352
11
-18.5499992
21
4.66563971
0
LINE
8
0
10
-18.5499992
20
4.66563971
11
-18.5499992
21
5.04868726
0
LINE
8
0
10
-18.5499992
20
5.04868726
11
-18.5499992
21
5.39423829
0
LINE
8
0
10
-18.5499992
20
5.39423829
11
-18.5499992
21
5.54175248
0
LINE
8
0
10
-18.5499992
20
5.54175248
11
-18.5499992
21
5.6046264
0
LINE
8
0
10
-18.5499992
20
5.6046264
11
-18.5499992
21
5.9000001
0
LINE
8
0
10
-18.5499992
20
5.9000001
11
-18.2676572
21
5.9000001
0
LINE
8
0
10
-18.2676572
20
5.9000001
11
-18.2676572
21
5.9000001
0
LINE
8
0
10
-17.9574246
20
21.0499992
11
-15.5500002
21
21.0499992
0
LINE
8
0
10
-15.5500002
20
21.0499992
11
-15.5500002
21
20.7667833
0
LINE
8
0
10
-15.5500002
20
20.7667833
11
-15.5500002
21
20.6760423
0
LINE
8
0
10
-15.5500002
20
20.6760423
11
-15.5500002
21
20.4849767
0
LINE
8
0
10
-15.5500002
20
20.4849767
11
-15.5500002
21
20.1202671
0
LINE
8
0
10
-15.5500002
20
20.1202671
11
-15.5500002
21
19.7383442
0
LINE
8
0
10
-15.5500002
20
19.7383442
11
-17.5656201
21
19.7383442
0
LINE
8
0
10
-17.5656201
20
19.7383442
11
-18.5499992
21
19.7383442
0
LINE
8
0
10
-18.5499992
20
19.7383442
11
-18.5499992
21
19.9875988
0
LINE
8
0
10
-18.5499992
20
19.9875988
11
-18.5499992
21
20.1202671
0
LINE
8
0
10
-18.5499992
20
20.1202671
11
-18.5499992
21
20.4849767
0
LINE
8
0
10
-18.5499992
20
20.4849767
11
-18.5499992
21
20.6760423
0
LINE
8
0
10
-18.5499992
20
20.6760423
11
-18.5499992
21
20.7667833
0
LINE
8
0
10
-18.5499992
20
20.7667833
11
-18.5499992
21
21.0499992
0
LINE
8
0
10
-18.5499992
20
21.0499992
11
-17.9574246
21
21.0499992
0
LINE
8
0
10
-17.9574246
20
21.0499992
11
-17.9574246
21
21.0499992
0
LINE
8
0
10
-18.3411624
20
40.5499992
11
-15.5500002
21
40.5499992
0
LINE
8
0
10
-15.5500002
20
40.5499992
11
-15.5500002
21
40.6235843
0
LINE
8
0
10
-15.5500002
20
40.6235843
11
-15.5500002
21
41.5378952
0
LINE
8
0
10
-15.5500002
20
41.5378952
11
-15.5500002
21
41.5391691
0
LINE
8
0
10
-15.5500002
20
41.5391691
11
-15.5500002
21
41.6187873
0
LINE
8
0
10
-15.5500002
20
41.6187873
11
-17.6208492
21
41.6187873
0
LINE
8
0
10
-17.6208492
20
41.6187873
11
-18.5499992
21
41.6187873
0
LINE
8
0
10
-18.5499992
20
41.6187873
11
-18.5499992
21
41.5378952
0
LINE
8
0
10
-18.5499992
20
41.5378952
11
-18.5499992
21
41.5334837
0
LINE
8
0
10
-18.5499992
20
41.5334837
11
-18.5499992
21
40.5499992
0
LINE
8
0
10
-18.5499992
20
40.5499992
11
-18.3411624
21
40.5499992
0
LINE
8
0
10
-18.3411624
20
40.5499992
11
-18.3411624
21
40.5499992
0
LINE
8
0
10
-15.8783643
20
46.5
11
-15.5500002
21
46.5
0
LINE
8
0
10
-15.5500002
20
46.5
11
-15.5500002
21
44.5851739
0
LINE
8
0
10
-15.5500002
20
44.5851739
11
-15.5500002
21
44.563858
0
LINE
8
0
10
-15.5500002
20
44.563858
11
-15.5500002
21
44.3845342
0
LINE
8
0
10
-15.5500002
20
44.3845342
11
-17.9593818
21
44.3845342
0
LINE
8
0
10
-17.9593818
20
44.3845342
11
-18.5499992
21
44.3845342
0
LINE
8
0
10
-18.5499992
20
44.3845342
11
-18.5499992
21
44.5608278
0
LINE
8
0
10
-18.5499992
20
44.5608278
11
-18.5499992
21
44.563858
0
LINE
8
0
10
-18.5499992
20
44.563858
11
-18.5499992
21
44.6984571
0
LINE
8
0
10
-18.5499992
20
44.6984571
11
-18.5499992
21
44.7028275
0
LINE
8
0
10
-18.5499992
20
44.7028275
11
-18.5499992
21
44.7476889
0
LINE
8
0
10
-18.5499992
20
44.7476889
11
-18.5499992
21
44.75
0
LINE
8
0
10
-18.5499992
20
44.75
11
-18.5499992
21
45.7006725
0
LINE
8
0
10
-18.5499992
20
45.7006725
11
-18.5499992
21
46.5
0
LINE
8
0
10
-18.5499992
20
46.5
11
-15.8783643
21
46.5
0
LINE
8
0
10
-15.8783643
20
46.5
11
-15.8783643
21
46.5
0
ENDSEC
0
EOF
