0
SECTION
2
ENTITIES
0
LINE
8
0
10
-15.96372
20
46.5
11
-15.5500002
21
46.5
0
LINE
8
0
10
-15.5500002
20
46.5
11
-15.5500002
21
44.6788222
0
LINE
8
0
10
-15.5500002
20
44.6788222
11
-15.5500002
21
44.563858
0
LINE
8
0
10
-15.5500002
20
44.563858
11
-15.5500002
21
44.3531463
0
LINE
8
0
10
-15.5500002
20
44.3531463
11
-15.5500002
21
44.3405762
0
LINE
8
0
10
-15.5500002
20
44.3405762
11
-15.5500002
21
44.0579631
0
LINE
8
0
10
-15.5500002
20
44.0579631
11
-15.5500002
21
44.0450287
0
LINE
8
0
10
-15.5500002
20
44.0450287
11
-15.5500002
21
43.7051645
0
LINE
8
0
10
-15.5500002
20
43.7051645
11
-15.5500002
21
43.6931381
0
LINE
8
0
10
-15.5500002
20
43.6931381
11
-15.5500002
21
43.3149841
0
LINE
8
0
10
-15.5500002
20
43.3149841
11
-15.5500002
21
43.3038826
0
LINE
8
0
10
-15.5500002
20
43.3038826
11
-15.5500002
21
42.9093857
0
LINE
8
0
10
-15.5500002
20
42.9093857
11
-15.5500002
21
42.8982468
0
LINE
8
0
10
-15.5500002
20
42.8982468
11
-15.5500002
21
42.5105732
0
LINE
8
0
10
-15.5500002
20
42.5105732
11
-15.5500002
21
42.4980927
0
LINE
8
0
10
-15.5500002
20
42.4980927
11
-15.5500002
21
42.1396858
0
LINE
8
0
10
-15.5500002
20
42.1396858
11
-15.5500002
21
42.125
0
LINE
8
0
10
-15.5500002
20
42.125
11
-15.5500002
21
41.8157521
0
LINE
8
0
10
-15.5500002
20
41.8157521
11
-15.5500002
21
41.7990761
0
LINE
8
0
10
-15.5500002
20
41.7990761
11
-15.5500002
21
41.5549972
0
LINE
8
0
10
-15.5500002
20
41.5549972
11
-15.5500002
21
41.5378952
0
LINE
8
0
10
-15.5500002
20
41.5378952
11
-15.5500002
21
40.6783975
0
LINE
8
0
10
-15.5500002
20
40.6783975
11
-15.5500002
21
40.5499992
0
LINE
8
0
10
-15.5500002
20
40.5499992
11
-18.1856007
21
40.5499992
0
LINE
8
0
10
-18.1856007
20
40.5499992
11
-18.5499992
21
40.5499992
0
LINE
8
0
10
-18.5499992
20
40.5499992
11
-18.5499992
21
41.4786705
0
LINE
8
0
10
-18.5499992
20
41.4786705
11
-18.5499992
21
41.5378952
0
LINE
8
0
10
-18.5499992
20
41.5378952
11
-18.5499992
21
41.7860872
0
LINE
8
0
10
-18.5499992
20
41.7860872
11
-18.5499992
21
41.7990761
0
LINE
8
0
10
-18.5499992
20
41.7990761
11
-18.5499992
21
42.1124404
0
LINE
8
0
10
-18.5499992
20
42.1124404
11
-18.5499992
21
42.125
0
LINE
8
0
10
-18.5499992
20
42.125
11
-18.5499992
21
42.4865994
0
LINE
8
0
10
-18.5499992
20
42.4865994
11
-18.5499992
21
42.4980927
0
LINE
8
0
10
-18.5499992
20
42.4980927
11
-18.5499992
21
42.8872861
0
LINE
8
0
10
-18.5499992
20
42.8872861
11
-18.5499992
21
42.8982468
0
LINE
8
0
10
-18.5499992
20
42.8982468
11
-18.5499992
21
43.2922264
0
LINE
8
0
10
-18.5499992
20
43.2922264
11
-18.5499992
21
43.3038826
0
LINE
8
0
10
-18.5499992
20
43.3038826
11
-18.5499992
21
43.6796069
0
LINE
8
0
10
-18.5499992
20
43.6796069
11
-18.5499992
21
43.6931381
0
LINE
8
0
10
-18.5499992
20
43.6931381
11
-18.5499992
21
44.0292375
0
LINE
8
0
10
-18.5499992
20
44.0292375
11
-18.5499992
21
44.0450287
0
LINE
8
0
10
-18.5499992
20
44.0450287
11
-18.5499992
21
44.3234094
0
LINE
8
0
10
-18.5499992
20
44.3234094
11
-18.5499992
21
44.3405762
0
LINE
8
0
10
-18.5499992
20
44.3405762
11
-18.5499992
21
44.5475149
0
LINE
8
0
10
-18.5499992
20
44.5475149
11
-18.5499992
21
44.563858
0
LINE
8
0
10
-18.5499992
20
44.563858
11
-18.5499992
21
44.6904584
0
LINE
8
0
10
-18.5499992
20
44.6904584
11
-18.5499992
21
44.7028275
0
LINE
8
0
10
-18.5499992
20
44.7028275
11
-18.5499992
21
44.7450726
0
LINE
8
0
10
-18.5499992
20
44.7450726
11
-18.5499992
21
44.75
0
LINE
8
0
10
-18.5499992
20
44.75
11
-18.5499992
21
45.6462965
0
LINE
8
0
10
-18.5499992
20
45.6462965
11
-18.5499992
21
46.5
0
LINE
8
0
10
-18.5499992
20
46.5
11
-15.96372
21
46.5
0
LINE
8
0
10
-15.96372
20
46.5
11
-15.96372
21
46.5
0
LINE
8
0
10
-17.209914
20
-1.10000002
11
-15.5500002
21
-1.10000002
0
LINE
8
0
10
-15.5500002
20
-1.10000002
11
-15.5500002
21
-0.574769515
0
LINE
8
0
10
-15.5500002
20
-0.574769515
11
-15.5500002
21
-0.537157351
0
LINE
8
0
10
-15.5500002
20
-0.537157351
11
-15.5500002
21
-0.452102058
0
LINE
8
0
10
-15.5500002
20
-0.452102058
11
-15.5500002
21
-0.308838418
0
LINE
8
0
10
-15.5500002
20
-0.308838418
11
-15.5500002
21
-0.0939480678
0
LINE
8
0
10
-15.5500002
20
-0.0939480678
11
-15.5500002
21
1.13873446
0
LINE
8
0
10
-15.5500002
20
1.13873446
11
-15.5500002
21
1.23870855
0
LINE
8
0
10
-15.5500002
20
1.23870855
11
-15.5500002
21
1.30978054
0
LINE
8
0
10
-15.5500002
20
1.30978054
11
-15.5500002
21
1.44897612
0
LINE
8
0
10
-15.5500002
20
1.44897612
11
-15.5500002
21
1.56670803
0
LINE
8
0
10
-15.5500002
20
1.56670803
11
-15.5500002
21
1.76459252
0
LINE
8
0
10
-15.5500002
20
1.76459252
11
-15.5500002
21
1.90339541
0
LINE
8
0
10
-15.5500002
20
1.90339541
11
-15.5500002
21
2.13702873
0
LINE
8
0
10
-15.5500002
20
2.13702873
11
-15.5500002
21
2.43998297
0
LINE
8
0
10
-15.5500002
20
2.43998297
11
-15.5500002
21
2.56966221
0
LINE
8
0
10
-15.5500002
20
2.56966221
11
-15.5500002
21
2.87490181
0
LINE
8
0
10
-15.5500002
20
2.87490181
11
-15.5500002
21
3.18717723
0
LINE
8
0
10
-15.5500002
20
3.18717723
11
-15.5500002
21
3.36160787
0
LINE
8
0
10
-15.5500002
20
3.36160787
11
-15.5500002
21
3.6113299
0
LINE
8
0
10
-15.5500002
20
3.6113299
11
-15.5500002
21
4.02533533
0
LINE
8
0
10
-15.5500002
20
4.02533533
11
-15.5500002
21
4.16984822
0
LINE
8
0
10
-15.5500002
20
4.16984822
11
-15.5500002
21
4.25700535
0
LINE
8
0
10
-15.5500002
20
4.25700535
11
-15.5500002
21
4.29901385
0
LINE
8
0
10
-15.5500002
20
4.29901385
11
-15.5500002
21
4.76488711
0
LINE
8
0
10
-15.5500002
20
4.76488711
11
-17.5392665
21
4.76488711
0
LINE
8
0
10
-17.5392665
20
4.76488711
11
-18.5499992
21
4.76488711
0
LINE
8
0
10
-18.5499992
20
4.76488711
11
-18.5499992
21
4.16984822
0
LINE
8
0
10
-18.5499992
20
4.16984822
11
-18.5499992
21
4.02533533
0
LINE
8
0
10
-18.5499992
20
4.02533533
11
-18.5499992
21
3.83400799
0
LINE
8
0
10
-18.5499992
20
3.83400799
11
-18.5499992
21
3.36160787
0
LINE
8
0
10
-18.5499992
20
3.36160787
11
-18.5499992
21
3.08537718
0
LINE
8
0
10
-18.5499992
20
3.08537718
11
-18.5499992
21
2.84301642
0
LINE
8
0
10
-18.5499992
20
2.84301642
11
-18.5499992
21
2.56966221
0
LINE
8
0
10
-18.5499992
20
2.56966221
11
-18.5499992
21
2.31930899
0
LINE
8
0
10
-18.5499992
20
2.31930899
11
-18.5499992
21
2.13702873
0
LINE
8
0
10
-18.5499992
20
2.13702873
11
-18.5499992
21
1.90339541
0
LINE
8
0
10
-18.5499992
20
1.90339541
11
-18.5499992
21
1.76459252
0
LINE
8
0
10
-18.5499992
20
1.76459252
11
-18.5499992
21
1.56670803
0
LINE
8
0
10
-18.5499992
20
1.56670803
11
-18.5499992
21
1.45803897
0
LINE
8
0
10
-18.5499992
20
1.45803897
11
-18.5499992
21
1.30978054
0
LINE
8
0
10
-18.5499992
20
1.30978054
11
-18.5499992
21
1.2281184
0
LINE
8
0
10
-18.5499992
20
1.2281184
11
-18.5499992
21
1.13873446
0
LINE
8
0
10
-18.5499992
20
1.13873446
11
-18.5499992
21
1.08414713
0
LINE
8
0
10
-18.5499992
20
1.08414713
11
-18.5499992
21
1.06168714
0
LINE
8
0
10
-18.5499992
20
1.06168714
11
-18.5499992
21
1.03211403
0
LINE
8
0
10
-18.5499992
20
1.03211403
11
-18.5499992
21
-0.0488585359
0
LINE
8
0
10
-18.5499992
20
-0.0488585359
11
-18.5499992
21
-0.153156495
0
LINE
8
0
10
-18.5499992
20
-0.153156495
11
-18.5499992
21
-1.10000002
0
LINE
8
0
10
-18.5499992
20
-1.10000002
11
-17.209914
21
-1.10000002
0
LINE
8
0
10
-17.209914
20
-1.10000002
11
-17.209914
21
-1.10000002
0
ENDSEC
0
EOF
