0
SECTION
2
ENTITIES
0
LINE
8
0
10
-16.0149335
20
46.5
11
-15.5500002
21
46.5
0
LINE
8
0
10
-15.5500002
20
46.5
11
-15.5500002
21
44.7350111
0
LINE
8
0
10
-15.5500002
20
44.7350111
11
-15.5500002
21
44.563858
0
LINE
8
0
10
-15.5500002
20
44.563858
11
-15.5500002
21
44.361134
0
LINE
8
0
10
-15.5500002
20
44.361134
11
-15.5500002
21
44.3405762
0
LINE
8
0
10
-15.5500002
20
44.3405762
11
-15.5500002
21
44.0688719
0
LINE
8
0
10
-15.5500002
20
44.0688719
11
-15.5500002
21
44.0450287
0
LINE
8
0
10
-15.5500002
20
44.0450287
11
-15.5500002
21
43.7184826
0
LINE
8
0
10
-15.5500002
20
43.7184826
11
-15.5500002
21
43.6931381
0
LINE
8
0
10
-15.5500002
20
43.6931381
11
-15.5500002
21
43.3299686
0
LINE
8
0
10
-15.5500002
20
43.3299686
11
-15.5500002
21
43.3038826
0
LINE
8
0
10
-15.5500002
20
43.3038826
11
-15.5500002
21
42.9251189
0
LINE
8
0
10
-15.5500002
20
42.9251189
11
-15.5500002
21
42.8982468
0
LINE
8
0
10
-15.5500002
20
42.8982468
11
-15.5500002
21
42.5260546
0
LINE
8
0
10
-15.5500002
20
42.5260546
11
-15.5500002
21
42.4980927
0
LINE
8
0
10
-15.5500002
20
42.4980927
11
-15.5500002
21
42.1539425
0
LINE
8
0
10
-15.5500002
20
42.1539425
11
-15.5500002
21
42.125
0
LINE
8
0
10
-15.5500002
20
42.125
11
-15.5500002
21
41.8279448
0
LINE
8
0
10
-15.5500002
20
41.8279448
11
-15.5500002
21
41.7990761
0
LINE
8
0
10
-15.5500002
20
41.7990761
11
-15.5500002
21
41.564494
0
LINE
8
0
10
-15.5500002
20
41.564494
11
-15.5500002
21
41.5378952
0
LINE
8
0
10
-15.5500002
20
41.5378952
11
-15.5500002
21
40.7112854
0
LINE
8
0
10
-15.5500002
20
40.7112854
11
-15.5500002
21
40.5499992
0
LINE
8
0
10
-15.5500002
20
40.5499992
11
-18.0922636
21
40.5499992
0
LINE
8
0
10
-18.0922636
20
40.5499992
11
-18.5499992
21
40.5499992
0
LINE
8
0
10
-18.5499992
20
40.5499992
11
-18.5499992
21
41.4457826
0
LINE
8
0
10
-18.5499992
20
41.4457826
11
-18.5499992
21
41.5378952
0
LINE
8
0
10
-18.5499992
20
41.5378952
11
-18.5499992
21
41.7765903
0
LINE
8
0
10
-18.5499992
20
41.7765903
11
-18.5499992
21
41.7990761
0
LINE
8
0
10
-18.5499992
20
41.7990761
11
-18.5499992
21
42.1002477
0
LINE
8
0
10
-18.5499992
20
42.1002477
11
-18.5499992
21
42.125
0
LINE
8
0
10
-18.5499992
20
42.125
11
-18.5499992
21
42.4723426
0
LINE
8
0
10
-18.5499992
20
42.4723426
11
-18.5499992
21
42.4980927
0
LINE
8
0
10
-18.5499992
20
42.4980927
11
-18.5499992
21
42.8718047
0
LINE
8
0
10
-18.5499992
20
42.8718047
11
-18.5499992
21
42.8982468
0
LINE
8
0
10
-18.5499992
20
42.8982468
11
-18.5499992
21
43.2764933
0
LINE
8
0
10
-18.5499992
20
43.2764933
11
-18.5499992
21
43.3038826
0
LINE
8
0
10
-18.5499992
20
43.3038826
11
-18.5499992
21
43.6646224
0
LINE
8
0
10
-18.5499992
20
43.6646224
11
-18.5499992
21
43.6931381
0
LINE
8
0
10
-18.5499992
20
43.6931381
11
-18.5499992
21
44.0159194
0
LINE
8
0
10
-18.5499992
20
44.0159194
11
-18.5499992
21
44.0450287
0
LINE
8
0
10
-18.5499992
20
44.0450287
11
-18.5499992
21
44.3125006
0
LINE
8
0
10
-18.5499992
20
44.3125006
11
-18.5499992
21
44.3405762
0
LINE
8
0
10
-18.5499992
20
44.3405762
11
-18.5499992
21
44.5395271
0
LINE
8
0
10
-18.5499992
20
44.5395271
11
-18.5499992
21
44.563858
0
LINE
8
0
10
-18.5499992
20
44.563858
11
-18.5499992
21
44.6856592
0
LINE
8
0
10
-18.5499992
20
44.6856592
11
-18.5499992
21
44.7028275
0
LINE
8
0
10
-18.5499992
20
44.7028275
11
-18.5499992
21
44.7435027
0
LINE
8
0
10
-18.5499992
20
44.7435027
11
-18.5499992
21
44.75
0
LINE
8
0
10
-18.5499992
20
44.75
11
-18.5499992
21
45.6136708
0
LINE
8
0
10
-18.5499992
20
45.6136708
11
-18.5499992
21
46.5
0
LINE
8
0
10
-18.5499992
20
46.5
11
-16.0149335
21
46.5
0
LINE
8
0
10
-16.0149335
20
46.5
11
-16.0149335
21
46.5
0
LINE
8
0
10
-17.1587005
20
-1.10000002
11
-15.5500002
21
-1.10000002
0
LINE
8
0
10
-15.5500002
20
-1.10000002
11
-15.5500002
21
-0.509752408
0
LINE
8
0
10
-15.5500002
20
-0.509752408
11
-15.5500002
21
-0.467484318
0
LINE
8
0
10
-15.5500002
20
-0.467484318
11
-15.5500002
21
-0.371900221
0
LINE
8
0
10
-15.5500002
20
-0.371900221
11
-15.5500002
21
-0.210902296
0
LINE
8
0
10
-15.5500002
20
-0.210902296
11
-15.5500002
21
0.0305888486
0
LINE
8
0
10
-15.5500002
20
0.0305888486
11
-15.5500002
21
1.09563515
0
LINE
8
0
10
-15.5500002
20
1.09563515
11
-15.5500002
21
1.23061226
0
LINE
8
0
10
-15.5500002
20
1.23061226
11
-15.5500002
21
1.28993807
0
LINE
8
0
10
-15.5500002
20
1.28993807
11
-15.5500002
21
1.4894952
0
LINE
8
0
10
-15.5500002
20
1.4894952
11
-15.5500002
21
1.58270742
0
LINE
8
0
10
-15.5500002
20
1.58270742
11
-15.5500002
21
1.73937908
0
LINE
8
0
10
-15.5500002
20
1.73937908
11
-15.5500002
21
1.97966767
0
LINE
8
0
10
-15.5500002
20
1.97966767
11
-15.5500002
21
2.14870603
0
LINE
8
0
10
-15.5500002
20
2.14870603
11
-15.5500002
21
2.36789945
0
LINE
8
0
10
-15.5500002
20
2.36789945
11
-15.5500002
21
2.65843775
0
LINE
8
0
10
-15.5500002
20
2.65843775
11
-15.5500002
21
2.84192869
0
LINE
8
0
10
-15.5500002
20
2.84192869
11
-15.5500002
21
3.02964914
0
LINE
8
0
10
-15.5500002
20
3.02964914
11
-15.5500002
21
3.43952167
0
LINE
8
0
10
-15.5500002
20
3.43952167
11
-15.5500002
21
3.5207336
0
LINE
8
0
10
-15.5500002
20
3.5207336
11
-15.5500002
21
3.86541963
0
LINE
8
0
10
-15.5500002
20
3.86541963
11
-17.1019254
21
3.86541963
0
LINE
8
0
10
-17.1019254
20
3.86541963
11
-18.5499992
21
3.86541963
0
LINE
8
0
10
-18.5499992
20
3.86541963
11
-18.5499992
21
3.43952167
0
LINE
8
0
10
-18.5499992
20
3.43952167
11
-18.5499992
21
3.34968889
0
LINE
8
0
10
-18.5499992
20
3.34968889
11
-18.5499992
21
3.27087092
0
LINE
8
0
10
-18.5499992
20
3.27087092
11
-18.5499992
21
2.65843775
0
LINE
8
0
10
-18.5499992
20
2.65843775
11
-18.5499992
21
2.50794105
0
LINE
8
0
10
-18.5499992
20
2.50794105
11
-18.5499992
21
2.14870603
0
LINE
8
0
10
-18.5499992
20
2.14870603
11
-18.5499992
21
1.97966767
0
LINE
8
0
10
-18.5499992
20
1.97966767
11
-18.5499992
21
1.73937908
0
LINE
8
0
10
-18.5499992
20
1.73937908
11
-18.5499992
21
1.58270742
0
LINE
8
0
10
-18.5499992
20
1.58270742
11
-18.5499992
21
1.41369359
0
LINE
8
0
10
-18.5499992
20
1.41369359
11
-18.5499992
21
1.28993807
0
LINE
8
0
10
-18.5499992
20
1.28993807
11
-18.5499992
21
1.17286351
0
LINE
8
0
10
-18.5499992
20
1.17286351
11
-18.5499992
21
1.09563515
0
LINE
8
0
10
-18.5499992
20
1.09563515
11
-18.5499992
21
1.02193567
0
LINE
8
0
10
-18.5499992
20
1.02193567
11
-18.5499992
21
0.991611968
0
LINE
8
0
10
-18.5499992
20
0.991611968
11
-18.5499992
21
0.964974644
0
LINE
8
0
10
-18.5499992
20
0.964974644
11
-18.5499992
21
-0.00868752365
0
LINE
8
0
10
-18.5499992
20
-0.00868752365
11
-18.5499992
21
-0.116971392
0
LINE
8
0
10
-18.5499992
20
-0.116971392
11
-18.5499992
21
-1.10000002
0
LINE
8
0
10
-18.5499992
20
-1.10000002
11
-17.1587005
21
-1.10000002
0
LINE
8
0
10
-17.1587005
20
-1.10000002
11
-17.1587005
21
-1.10000002
0
ENDSEC
0
EOF
