0
SECTION
2
ENTITIES
0
LINE
8
0
10
-18.1187266
20
2.7041149
11
-15.5500002
21
2.7041149
0
LINE
8
0
10
-15.5500002
20
2.7041149
11
-15.5500002
21
2.24776023
0
LINE
8
0
10
-15.5500002
20
2.24776023
11
-15.5500002
21
2.16816819
0
LINE
8
0
10
-15.5500002
20
2.16816819
11
-15.5500002
21
2.10678812
0
LINE
8
0
10
-15.5500002
20
2.10678812
11
-15.5500002
21
1.69735669
0
LINE
8
0
10
-15.5500002
20
1.69735669
11
-15.5500002
21
1.60937307
0
LINE
8
0
10
-15.5500002
20
1.60937307
11
-15.5500002
21
1.55702699
0
LINE
8
0
10
-15.5500002
20
1.55702699
11
-15.5500002
21
1.25686728
0
LINE
8
0
10
-15.5500002
20
1.25686728
11
-15.5500002
21
1.21711844
0
LINE
8
0
10
-15.5500002
20
1.21711844
11
-15.5500002
21
1.02380298
0
LINE
8
0
10
-15.5500002
20
1.02380298
11
-15.5500002
21
0.238150376
0
LINE
8
0
10
-15.5500002
20
0.238150376
11
-15.5500002
21
-0.0476754266
0
LINE
8
0
10
-15.5500002
20
-0.0476754266
11
-15.5500002
21
-0.238230493
0
LINE
8
0
10
-15.5500002
20
-0.238230493
11
-15.5500002
21
-0.351362597
0
LINE
8
0
10
-15.5500002
20
-0.351362597
11
-15.5500002
21
-0.401390562
0
LINE
8
0
10
-15.5500002
20
-0.401390562
11
-15.5500002
21
-1.10000002
0
LINE
8
0
10
-15.5500002
20
-1.10000002
11
-17.0733448
21
-1.10000002
0
LINE
8
0
10
-17.0733448
20
-1.10000002
11
-18.5499992
21
-1.10000002
0
LINE
8
0
10
-18.5499992
20
-1.10000002
11
-18.5499992
21
-0.0566628874
0
LINE
8
0
10
-18.5499992
20
-0.0566628874
11
-18.5499992
21
0.0582641635
0
LINE
8
0
10
-18.5499992
20
0.0582641635
11
-18.5499992
21
0.853075666
0
LINE
8
0
10
-18.5499992
20
0.853075666
11
-18.5499992
21
0.874820016
0
LINE
8
0
10
-18.5499992
20
0.874820016
11
-18.5499992
21
0.918249902
0
LINE
8
0
10
-18.5499992
20
0.918249902
11
-18.5499992
21
1.02380298
0
LINE
8
0
10
-18.5499992
20
1.02380298
11
-18.5499992
21
1.08077202
0
LINE
8
0
10
-18.5499992
20
1.08077202
11
-18.5499992
21
1.25686728
0
LINE
8
0
10
-18.5499992
20
1.25686728
11
-18.5499992
21
1.33978462
0
LINE
8
0
10
-18.5499992
20
1.33978462
11
-18.5499992
21
1.60937307
0
LINE
8
0
10
-18.5499992
20
1.60937307
11
-18.5499992
21
1.69735669
0
LINE
8
0
10
-18.5499992
20
1.69735669
11
-18.5499992
21
2.10678812
0
LINE
8
0
10
-18.5499992
20
2.10678812
11
-18.5499992
21
2.16816819
0
LINE
8
0
10
-18.5499992
20
2.16816819
11
-18.5499992
21
2.7041149
0
LINE
8
0
10
-18.5499992
20
2.7041149
11
-18.1187266
21
2.7041149
0
LINE
8
0
10
-18.1187266
20
2.7041149
11
-18.1187266
21
2.7041149
0
LINE
8
0
10
-17.9367018
20
40.5499992
11
-15.5500002
21
40.5499992
0
LINE
8
0
10
-15.5500002
20
40.5499992
11
-15.5500002
21
40.7660986
0
LINE
8
0
10
-15.5500002
20
40.7660986
11
-15.5500002
21
41.5378952
0
LINE
8
0
10
-15.5500002
20
41.5378952
11
-15.5500002
21
41.5803221
0
LINE
8
0
10
-15.5500002
20
41.5803221
11
-15.5500002
21
41.7990761
0
LINE
8
0
10
-15.5500002
20
41.7990761
11
-15.5500002
21
41.8482659
0
LINE
8
0
10
-15.5500002
20
41.8482659
11
-15.5500002
21
42.125
0
LINE
8
0
10
-15.5500002
20
42.125
11
-15.5500002
21
42.1777037
0
LINE
8
0
10
-15.5500002
20
42.1777037
11
-15.5500002
21
42.4980927
0
LINE
8
0
10
-15.5500002
20
42.4980927
11
-15.5500002
21
42.5518568
0
LINE
8
0
10
-15.5500002
20
42.5518568
11
-15.5500002
21
42.8982468
0
LINE
8
0
10
-15.5500002
20
42.8982468
11
-15.5500002
21
42.9513409
0
LINE
8
0
10
-15.5500002
20
42.9513409
11
-15.5500002
21
43.3038826
0
LINE
8
0
10
-15.5500002
20
43.3038826
11
-15.5500002
21
43.3549428
0
LINE
8
0
10
-15.5500002
20
43.3549428
11
-15.5500002
21
43.6931381
0
LINE
8
0
10
-15.5500002
20
43.6931381
11
-15.5500002
21
43.7406794
0
LINE
8
0
10
-15.5500002
20
43.7406794
11
-15.5500002
21
44.0450287
0
LINE
8
0
10
-15.5500002
20
44.0450287
11
-15.5500002
21
44.0870531
0
LINE
8
0
10
-15.5500002
20
44.0870531
11
-15.5500002
21
44.3405762
0
LINE
8
0
10
-15.5500002
20
44.3405762
11
-15.5500002
21
44.3744469
0
LINE
8
0
10
-15.5500002
20
44.3744469
11
-15.5500002
21
44.563858
0
LINE
8
0
10
-15.5500002
20
44.563858
11
-15.5500002
21
44.8286594
0
LINE
8
0
10
-15.5500002
20
44.8286594
11
-15.5500002
21
46.5
0
LINE
8
0
10
-15.5500002
20
46.5
11
-16.1002892
21
46.5
0
LINE
8
0
10
-16.1002892
20
46.5
11
-18.5499992
21
46.5
0
LINE
8
0
10
-18.5499992
20
46.5
11
-18.5499992
21
45.5592948
0
LINE
8
0
10
-18.5499992
20
45.5592948
11
-18.5499992
21
44.75
0
LINE
8
0
10
-18.5499992
20
44.75
11
-18.5499992
21
44.7408863
0
LINE
8
0
10
-18.5499992
20
44.7408863
11
-18.5499992
21
44.7028275
0
LINE
8
0
10
-18.5499992
20
44.7028275
11
-18.5499992
21
44.6776605
0
LINE
8
0
10
-18.5499992
20
44.6776605
11
-18.5499992
21
44.563858
0
LINE
8
0
10
-18.5499992
20
44.563858
11
-18.5499992
21
44.5262142
0
LINE
8
0
10
-18.5499992
20
44.5262142
11
-18.5499992
21
44.3405762
0
LINE
8
0
10
-18.5499992
20
44.3405762
11
-18.5499992
21
44.2943194
0
LINE
8
0
10
-18.5499992
20
44.2943194
11
-18.5499992
21
44.0450287
0
LINE
8
0
10
-18.5499992
20
44.0450287
11
-18.5499992
21
43.9937227
0
LINE
8
0
10
-18.5499992
20
43.9937227
11
-18.5499992
21
43.6931381
0
LINE
8
0
10
-18.5499992
20
43.6931381
11
-18.5499992
21
43.6396483
0
LINE
8
0
10
-18.5499992
20
43.6396483
11
-18.5499992
21
43.3038826
0
LINE
8
0
10
-18.5499992
20
43.3038826
11
-18.5499992
21
43.2502713
0
LINE
8
0
10
-18.5499992
20
43.2502713
11
-18.5499992
21
42.8982468
0
LINE
8
0
10
-18.5499992
20
42.8982468
11
-18.5499992
21
42.8460025
0
LINE
8
0
10
-18.5499992
20
42.8460025
11
-18.5499992
21
42.4980927
0
LINE
8
0
10
-18.5499992
20
42.4980927
11
-18.5499992
21
42.4485814
0
LINE
8
0
10
-18.5499992
20
42.4485814
11
-18.5499992
21
42.125
0
LINE
8
0
10
-18.5499992
20
42.125
11
-18.5499992
21
42.0799266
0
LINE
8
0
10
-18.5499992
20
42.0799266
11
-18.5499992
21
41.7990761
0
LINE
8
0
10
-18.5499992
20
41.7990761
11
-18.5499992
21
41.7607622
0
LINE
8
0
10
-18.5499992
20
41.7607622
11
-18.5499992
21
41.5378952
0
LINE
8
0
10
-18.5499992
20
41.5378952
11
-18.5499992
21
41.3909694
0
LINE
8
0
10
-18.5499992
20
41.3909694
11
-18.5499992
21
40.5499992
0
LINE
8
0
10
-18.5499992
20
40.5499992
11
-17.9367018
21
40.5499992
0
LINE
8
0
10
-17.9367018
20
40.5499992
11
-17.9367018
21
40.5499992
0
ENDSEC
0
EOF
