0
SECTION
2
ENTITIES
0
LINE
8
0
10
-16.1173604
20
46.5
11
-15.5500002
21
46.5
0
LINE
8
0
10
-15.5500002
20
46.5
11
-15.5500002
21
44.847389
0
LINE
8
0
10
-15.5500002
20
44.847389
11
-15.5500002
21
44.563858
0
LINE
8
0
10
-15.5500002
20
44.563858
11
-15.5500002
21
44.3771095
0
LINE
8
0
10
-15.5500002
20
44.3771095
11
-15.5500002
21
44.3405762
0
LINE
8
0
10
-15.5500002
20
44.3405762
11
-15.5500002
21
44.0906894
0
LINE
8
0
10
-15.5500002
20
44.0906894
11
-15.5500002
21
44.0450287
0
LINE
8
0
10
-15.5500002
20
44.0450287
11
-15.5500002
21
43.7451187
0
LINE
8
0
10
-15.5500002
20
43.7451187
11
-15.5500002
21
43.6931381
0
LINE
8
0
10
-15.5500002
20
43.6931381
11
-15.5500002
21
43.3599376
0
LINE
8
0
10
-15.5500002
20
43.3599376
11
-15.5500002
21
43.3038826
0
LINE
8
0
10
-15.5500002
20
43.3038826
11
-15.5500002
21
42.9565853
0
LINE
8
0
10
-15.5500002
20
42.9565853
11
-15.5500002
21
42.8982468
0
LINE
8
0
10
-15.5500002
20
42.8982468
11
-15.5500002
21
42.5570173
0
LINE
8
0
10
-15.5500002
20
42.5570173
11
-15.5500002
21
42.4980927
0
LINE
8
0
10
-15.5500002
20
42.4980927
11
-15.5500002
21
42.1824559
0
LINE
8
0
10
-15.5500002
20
42.1824559
11
-15.5500002
21
42.125
0
LINE
8
0
10
-15.5500002
20
42.125
11
-15.5500002
21
41.8523301
0
LINE
8
0
10
-15.5500002
20
41.8523301
11
-15.5500002
21
41.7990761
0
LINE
8
0
10
-15.5500002
20
41.7990761
11
-15.5500002
21
41.5834877
0
LINE
8
0
10
-15.5500002
20
41.5834877
11
-15.5500002
21
41.5378952
0
LINE
8
0
10
-15.5500002
20
41.5378952
11
-15.5500002
21
40.7770613
0
LINE
8
0
10
-15.5500002
20
40.7770613
11
-15.5500002
21
40.5499992
0
LINE
8
0
10
-15.5500002
20
40.5499992
11
-17.9055895
21
40.5499992
0
LINE
8
0
10
-17.9055895
20
40.5499992
11
-18.5499992
21
40.5499992
0
LINE
8
0
10
-18.5499992
20
40.5499992
11
-18.5499992
21
41.3800067
0
LINE
8
0
10
-18.5499992
20
41.3800067
11
-18.5499992
21
41.5378952
0
LINE
8
0
10
-18.5499992
20
41.5378952
11
-18.5499992
21
41.7575966
0
LINE
8
0
10
-18.5499992
20
41.7575966
11
-18.5499992
21
41.7990761
0
LINE
8
0
10
-18.5499992
20
41.7990761
11
-18.5499992
21
42.0758624
0
LINE
8
0
10
-18.5499992
20
42.0758624
11
-18.5499992
21
42.125
0
LINE
8
0
10
-18.5499992
20
42.125
11
-18.5499992
21
42.4438292
0
LINE
8
0
10
-18.5499992
20
42.4438292
11
-18.5499992
21
42.4980927
0
LINE
8
0
10
-18.5499992
20
42.4980927
11
-18.5499992
21
42.840842
0
LINE
8
0
10
-18.5499992
20
42.840842
11
-18.5499992
21
42.8982468
0
LINE
8
0
10
-18.5499992
20
42.8982468
11
-18.5499992
21
43.2450269
0
LINE
8
0
10
-18.5499992
20
43.2450269
11
-18.5499992
21
43.3038826
0
LINE
8
0
10
-18.5499992
20
43.3038826
11
-18.5499992
21
43.6346534
0
LINE
8
0
10
-18.5499992
20
43.6346534
11
-18.5499992
21
43.6931381
0
LINE
8
0
10
-18.5499992
20
43.6931381
11
-18.5499992
21
43.9892833
0
LINE
8
0
10
-18.5499992
20
43.9892833
11
-18.5499992
21
44.0450287
0
LINE
8
0
10
-18.5499992
20
44.0450287
11
-18.5499992
21
44.2906831
0
LINE
8
0
10
-18.5499992
20
44.2906831
11
-18.5499992
21
44.3405762
0
LINE
8
0
10
-18.5499992
20
44.3405762
11
-18.5499992
21
44.5235516
0
LINE
8
0
10
-18.5499992
20
44.5235516
11
-18.5499992
21
44.563858
0
LINE
8
0
10
-18.5499992
20
44.563858
11
-18.5499992
21
44.6760608
0
LINE
8
0
10
-18.5499992
20
44.6760608
11
-18.5499992
21
44.7028275
0
LINE
8
0
10
-18.5499992
20
44.7028275
11
-18.5499992
21
44.7403631
0
LINE
8
0
10
-18.5499992
20
44.7403631
11
-18.5499992
21
44.75
0
LINE
8
0
10
-18.5499992
20
44.75
11
-18.5499992
21
45.5484196
0
LINE
8
0
10
-18.5499992
20
45.5484196
11
-18.5499992
21
46.5
0
LINE
8
0
10
-18.5499992
20
46.5
11
-16.1173604
21
46.5
0
LINE
8
0
10
-16.1173604
20
46.5
11
-16.1173604
21
46.5
0
LINE
8
0
10
-17.2176372
20
2.52000136
11
-15.5500002
21
2.52000136
0
LINE
8
0
10
-15.5500002
20
2.52000136
11
-15.5500002
21
2.22373239
0
LINE
8
0
10
-15.5500002
20
2.22373239
11
-15.5500002
21
2.17206062
0
LINE
8
0
10
-15.5500002
20
2.17206062
11
-15.5500002
21
2.13221221
0
LINE
8
0
10
-15.5500002
20
2.13221221
11
-15.5500002
21
1.68895221
0
LINE
8
0
10
-15.5500002
20
1.68895221
11
-15.5500002
21
1.6147062
0
LINE
8
0
10
-15.5500002
20
1.6147062
11
-15.5500002
21
1.57053334
0
LINE
8
0
10
-15.5500002
20
1.57053334
11
-15.5500002
21
1.25025312
0
LINE
8
0
10
-15.5500002
20
1.25025312
11
-15.5500002
21
1.21441968
0
LINE
8
0
10
-15.5500002
20
1.21441968
11
-15.5500002
21
1.00943655
0
LINE
8
0
10
-15.5500002
20
1.00943655
11
-15.5500002
21
0.279662681
0
LINE
8
0
10
-15.5500002
20
0.279662681
11
-15.5500002
21
-0.0150300527
0
LINE
8
0
10
-15.5500002
20
-0.0150300527
11
-15.5500002
21
-0.211496547
0
LINE
8
0
10
-15.5500002
20
-0.211496547
11
-15.5500002
21
-0.328138253
0
LINE
8
0
10
-15.5500002
20
-0.328138253
11
-15.5500002
21
-0.379718193
0
LINE
8
0
10
-15.5500002
20
-0.379718193
11
-15.5500002
21
-1.10000002
0
LINE
8
0
10
-15.5500002
20
-1.10000002
11
-17.0562736
21
-1.10000002
0
LINE
8
0
10
-17.0562736
20
-1.10000002
11
-18.5499992
21
-1.10000002
0
LINE
8
0
10
-18.5499992
20
-1.10000002
11
-18.5499992
21
-0.0446011864
0
LINE
8
0
10
-18.5499992
20
-0.0446011864
11
-18.5499992
21
0.0716545009
0
LINE
8
0
10
-18.5499992
20
0.0716545009
11
-18.5499992
21
0.83069587
0
LINE
8
0
10
-18.5499992
20
0.83069587
11
-18.5499992
21
0.851461626
0
LINE
8
0
10
-18.5499992
20
0.851461626
11
-18.5499992
21
0.897512749
0
LINE
8
0
10
-18.5499992
20
0.897512749
11
-18.5499992
21
1.00943655
0
LINE
8
0
10
-18.5499992
20
1.00943655
11
-18.5499992
21
1.06235372
0
LINE
8
0
10
-18.5499992
20
1.06235372
11
-18.5499992
21
1.25025312
0
LINE
8
0
10
-18.5499992
20
1.25025312
11
-18.5499992
21
1.32500283
0
LINE
8
0
10
-18.5499992
20
1.32500283
11
-18.5499992
21
1.6147062
0
LINE
8
0
10
-18.5499992
20
1.6147062
11
-18.5499992
21
1.68895221
0
LINE
8
0
10
-18.5499992
20
1.68895221
11
-18.5499992
21
2.13221221
0
LINE
8
0
10
-18.5499992
20
2.13221221
11
-18.5499992
21
2.17206062
0
LINE
8
0
10
-18.5499992
20
2.17206062
11
-18.5499992
21
2.52000136
0
LINE
8
0
10
-18.5499992
20
2.52000136
11
-17.2176372
21
2.52000136
0
LINE
8
0
10
-17.2176372
20
2.52000136
11
-17.2176372
21
2.52000136
0
ENDSEC
0
EOF
