0
SECTION
2
ENTITIES
0
LINE
8
0
10
-17.0392025
20
-1.10000002
11
-15.5500002
21
-1.10000002
0
LINE
8
0
10
-15.5500002
20
-1.10000002
11
-15.5500002
21
-0.358045824
0
LINE
8
0
10
-15.5500002
20
-0.358045824
11
-15.5500002
21
-0.304913908
0
LINE
8
0
10
-15.5500002
20
-0.304913908
11
-15.5500002
21
-0.184762601
0
LINE
8
0
10
-15.5500002
20
-0.184762601
11
-15.5500002
21
0.0176153212
0
LINE
8
0
10
-15.5500002
20
0.0176153212
11
-15.5500002
21
0.321174987
0
LINE
8
0
10
-15.5500002
20
0.321174987
11
-15.5500002
21
0.995070116
0
LINE
8
0
10
-15.5500002
20
0.995070116
11
-15.5500002
21
1.21172091
0
LINE
8
0
10
-15.5500002
20
1.21172091
11
-15.5500002
21
1.24363896
0
LINE
8
0
10
-15.5500002
20
1.24363896
11
-15.5500002
21
1.5840397
0
LINE
8
0
10
-15.5500002
20
1.5840397
11
-15.5500002
21
1.62003934
0
LINE
8
0
10
-15.5500002
20
1.62003934
11
-15.5500002
21
1.68054773
0
LINE
8
0
10
-15.5500002
20
1.68054773
11
-15.5500002
21
2.15763629
0
LINE
8
0
10
-15.5500002
20
2.15763629
11
-15.5500002
21
2.17595305
0
LINE
8
0
10
-15.5500002
20
2.17595305
11
-15.5500002
21
2.19970455
0
LINE
8
0
10
-15.5500002
20
2.19970455
11
-15.5500002
21
2.33588782
0
LINE
8
0
10
-15.5500002
20
2.33588782
11
-16.3165477
21
2.33588782
0
LINE
8
0
10
-16.3165477
20
2.33588782
11
-18.5499992
21
2.33588782
0
LINE
8
0
10
-18.5499992
20
2.33588782
11
-18.5499992
21
2.17595305
0
LINE
8
0
10
-18.5499992
20
2.17595305
11
-18.5499992
21
2.15763629
0
LINE
8
0
10
-18.5499992
20
2.15763629
11
-18.5499992
21
1.68054773
0
LINE
8
0
10
-18.5499992
20
1.68054773
11
-18.5499992
21
1.62003934
0
LINE
8
0
10
-18.5499992
20
1.62003934
11
-18.5499992
21
1.31022104
0
LINE
8
0
10
-18.5499992
20
1.31022104
11
-18.5499992
21
1.24363896
0
LINE
8
0
10
-18.5499992
20
1.24363896
11
-18.5499992
21
1.04393542
0
LINE
8
0
10
-18.5499992
20
1.04393542
11
-18.5499992
21
0.995070116
0
LINE
8
0
10
-18.5499992
20
0.995070116
11
-18.5499992
21
0.876775595
0
LINE
8
0
10
-18.5499992
20
0.876775595
11
-18.5499992
21
0.828103236
0
LINE
8
0
10
-18.5499992
20
0.828103236
11
-18.5499992
21
0.808316075
0
LINE
8
0
10
-18.5499992
20
0.808316075
11
-18.5499992
21
0.0850448383
0
LINE
8
0
10
-18.5499992
20
0.0850448383
11
-18.5499992
21
-0.0325394854
0
LINE
8
0
10
-18.5499992
20
-0.0325394854
11
-18.5499992
21
-1.10000002
0
LINE
8
0
10
-18.5499992
20
-1.10000002
11
-17.0392025
21
-1.10000002
0
LINE
8
0
10
-17.0392025
20
-1.10000002
11
-17.0392025
21
-1.10000002
0
LINE
8
0
10
-16.1344315
20
46.5
11
-15.5500002
21
46.5
0
LINE
8
0
10
-15.5500002
20
46.5
11
-15.5500002
21
44.8661187
0
LINE
8
0
10
-15.5500002
20
44.8661187
11
-15.5500002
21
44.563858
0
LINE
8
0
10
-15.5500002
20
44.563858
11
-15.5500002
21
44.3797721
0
LINE
8
0
10
-15.5500002
20
44.3797721
11
-15.5500002
21
44.3405762
0
LINE
8
0
10
-15.5500002
20
44.3405762
11
-15.5500002
21
44.0943256
0
LINE
8
0
10
-15.5500002
20
44.0943256
11
-15.5500002
21
44.0450287
0
LINE
8
0
10
-15.5500002
20
44.0450287
11
-15.5500002
21
43.7495581
0
LINE
8
0
10
-15.5500002
20
43.7495581
11
-15.5500002
21
43.6931381
0
LINE
8
0
10
-15.5500002
20
43.6931381
11
-15.5500002
21
43.3649324
0
LINE
8
0
10
-15.5500002
20
43.3649324
11
-15.5500002
21
43.3038826
0
LINE
8
0
10
-15.5500002
20
43.3038826
11
-15.5500002
21
42.9618297
0
LINE
8
0
10
-15.5500002
20
42.9618297
11
-15.5500002
21
42.8982468
0
LINE
8
0
10
-15.5500002
20
42.8982468
11
-15.5500002
21
42.5621777
0
LINE
8
0
10
-15.5500002
20
42.5621777
11
-15.5500002
21
42.4980927
0
LINE
8
0
10
-15.5500002
20
42.4980927
11
-15.5500002
21
42.1872082
0
LINE
8
0
10
-15.5500002
20
42.1872082
11
-15.5500002
21
42.125
0
LINE
8
0
10
-15.5500002
20
42.125
11
-15.5500002
21
41.8563943
0
LINE
8
0
10
-15.5500002
20
41.8563943
11
-15.5500002
21
41.7990761
0
LINE
8
0
10
-15.5500002
20
41.7990761
11
-15.5500002
21
41.5866533
0
LINE
8
0
10
-15.5500002
20
41.5866533
11
-15.5500002
21
41.5378952
0
LINE
8
0
10
-15.5500002
20
41.5378952
11
-15.5500002
21
40.7880239
0
LINE
8
0
10
-15.5500002
20
40.7880239
11
-15.5500002
21
40.5499992
0
LINE
8
0
10
-15.5500002
20
40.5499992
11
-17.8744771
21
40.5499992
0
LINE
8
0
10
-17.8744771
20
40.5499992
11
-18.5499992
21
40.5499992
0
LINE
8
0
10
-18.5499992
20
40.5499992
11
-18.5499992
21
41.3690441
0
LINE
8
0
10
-18.5499992
20
41.3690441
11
-18.5499992
21
41.5378952
0
LINE
8
0
10
-18.5499992
20
41.5378952
11
-18.5499992
21
41.754431
0
LINE
8
0
10
-18.5499992
20
41.754431
11
-18.5499992
21
41.7990761
0
LINE
8
0
10
-18.5499992
20
41.7990761
11
-18.5499992
21
42.0717982
0
LINE
8
0
10
-18.5499992
20
42.0717982
11
-18.5499992
21
42.125
0
LINE
8
0
10
-18.5499992
20
42.125
11
-18.5499992
21
42.4390769
0
LINE
8
0
10
-18.5499992
20
42.4390769
11
-18.5499992
21
42.4980927
0
LINE
8
0
10
-18.5499992
20
42.4980927
11
-18.5499992
21
42.8356816
0
LINE
8
0
10
-18.5499992
20
42.8356816
11
-18.5499992
21
42.8982468
0
LINE
8
0
10
-18.5499992
20
42.8982468
11
-18.5499992
21
43.2397825
0
LINE
8
0
10
-18.5499992
20
43.2397825
11
-18.5499992
21
43.3038826
0
LINE
8
0
10
-18.5499992
20
43.3038826
11
-18.5499992
21
43.6296586
0
LINE
8
0
10
-18.5499992
20
43.6296586
11
-18.5499992
21
43.6931381
0
LINE
8
0
10
-18.5499992
20
43.6931381
11
-18.5499992
21
43.9848439
0
LINE
8
0
10
-18.5499992
20
43.9848439
11
-18.5499992
21
44.0450287
0
LINE
8
0
10
-18.5499992
20
44.0450287
11
-18.5499992
21
44.2870469
0
LINE
8
0
10
-18.5499992
20
44.2870469
11
-18.5499992
21
44.3405762
0
LINE
8
0
10
-18.5499992
20
44.3405762
11
-18.5499992
21
44.520889
0
LINE
8
0
10
-18.5499992
20
44.520889
11
-18.5499992
21
44.563858
0
LINE
8
0
10
-18.5499992
20
44.563858
11
-18.5499992
21
44.674461
0
LINE
8
0
10
-18.5499992
20
44.674461
11
-18.5499992
21
44.7028275
0
LINE
8
0
10
-18.5499992
20
44.7028275
11
-18.5499992
21
44.7398398
0
LINE
8
0
10
-18.5499992
20
44.7398398
11
-18.5499992
21
44.75
0
LINE
8
0
10
-18.5499992
20
44.75
11
-18.5499992
21
45.5375444
0
LINE
8
0
10
-18.5499992
20
45.5375444
11
-18.5499992
21
46.5
0
LINE
8
0
10
-18.5499992
20
46.5
11
-16.1344315
21
46.5
0
LINE
8
0
10
-16.1344315
20
46.5
11
-16.1344315
21
46.5
0
ENDSEC
0
EOF
