0
SECTION
2
ENTITIES
0
LINE
8
0
10
10.2426896
20
46.5
11
10.6600767
21
46.5
0
LINE
8
0
10
10.6600767
20
46.5
11
11.1763774
21
46.5
0
LINE
8
0
10
11.1763774
20
46.5
11
11.6367512
21
46.5
0
LINE
8
0
10
11.6367512
20
46.5
11
11.9997492
21
46.5
0
LINE
8
0
10
11.9997492
20
46.5
11
12.2564044
21
46.5
0
LINE
8
0
10
12.2564044
20
46.5
11
12.4161819
21
46.5
0
LINE
8
0
10
12.4161819
20
46.5
11
12.4950436
21
46.5
0
LINE
8
0
10
12.4950436
20
46.5
11
13.75
21
46.5
0
LINE
8
0
10
13.75
20
46.5
11
13.75
21
44.4694559
0
LINE
8
0
10
13.75
20
44.4694559
11
13.75
21
41.5
0
LINE
8
0
10
13.75
20
41.5
11
12.2692465
21
41.5
0
LINE
8
0
10
12.2692465
20
41.5
11
11.9470891
21
41.5
0
LINE
8
0
10
11.9470891
20
41.5
11
11.5075193
21
41.5
0
LINE
8
0
10
11.5075193
20
41.5
11
10.9723693
21
41.5
0
LINE
8
0
10
10.9723693
20
41.5
11
10.4129753
21
41.5
0
LINE
8
0
10
10.4129753
20
41.5
11
10.2047797
21
41.5
0
LINE
8
0
10
10.2047797
20
41.5
11
10.2616104
21
44.5108966
0
LINE
8
0
10
10.2616104
20
44.5108966
11
10.2426896
21
46.5
0
LINE
8
0
10
10.2426896
20
46.5
11
10.2426896
21
46.5
0
LINE
8
0
10
10.2426896
20
-1.10000002
11
10.6600767
21
-1.10000002
0
LINE
8
0
10
10.6600767
20
-1.10000002
11
11.1763774
21
-1.10000002
0
LINE
8
0
10
11.1763774
20
-1.10000002
11
11.6367512
21
-1.10000002
0
LINE
8
0
10
11.6367512
20
-1.10000002
11
11.9997492
21
-1.10000002
0
LINE
8
0
10
11.9997492
20
-1.10000002
11
12.2564044
21
-1.10000002
0
LINE
8
0
10
12.2564044
20
-1.10000002
11
12.4161819
21
-1.10000002
0
LINE
8
0
10
12.4161819
20
-1.10000002
11
12.4950436
21
-1.10000002
0
LINE
8
0
10
12.4950436
20
-1.10000002
11
13.75
21
-1.10000002
0
LINE
8
0
10
13.75
20
-1.10000002
11
13.75
21
0.971154974
0
LINE
8
0
10
13.75
20
0.971154974
11
13.75
21
4
0
LINE
8
0
10
13.75
20
4
11
12.2692465
21
4
0
LINE
8
0
10
12.2692465
20
4
11
11.9470891
21
4
0
LINE
8
0
10
11.9470891
20
4
11
11.5075193
21
4
0
LINE
8
0
10
11.5075193
20
4
11
10.9723693
21
4
0
LINE
8
0
10
10.9723693
20
4
11
10.4129753
21
4
0
LINE
8
0
10
10.4129753
20
4
11
10.2047797
21
4
0
LINE
8
0
10
10.2047797
20
4
11
10.2616104
21
0.92888547
0
LINE
8
0
10
10.2616104
20
0.92888547
11
10.2426896
21
-1.10000002
0
LINE
8
0
10
10.2426896
20
-1.10000002
11
10.2426896
21
-1.10000002
0
LINE
8
0
10
9.73838962
20
44.5108966
11
9.79522028
21
41.5
0
LINE
8
0
10
9.79522028
20
41.5
11
9.67573041
21
41.5
0
LINE
8
0
10
9.67573041
20
41.5
11
-9.3504762
21
41.5
0
LINE
8
0
10
-9.3504762
20
41.5
11
-9.79522028
21
41.5
0
LINE
8
0
10
-9.79522028
20
41.5
11
-9.73838962
21
44.5108966
0
LINE
8
0
10
-9.73838962
20
44.5108966
11
-9.75731039
21
46.5
0
LINE
8
0
10
-9.75731039
20
46.5
11
-8.6651511
21
46.5
0
LINE
8
0
10
-8.6651511
20
46.5
11
9.59296284
21
46.5
0
LINE
8
0
10
9.59296284
20
46.5
11
9.75731039
21
46.5
0
LINE
8
0
10
9.75731039
20
46.5
11
9.73838962
21
44.5108966
0
LINE
8
0
10
9.73838962
20
44.5108966
11
9.73838962
21
44.5108966
0
LINE
8
0
10
9.73838962
20
0.92888547
11
9.79522028
21
4
0
LINE
8
0
10
9.79522028
20
4
11
9.67573041
21
4
0
LINE
8
0
10
9.67573041
20
4
11
-9.3504762
21
4
0
LINE
8
0
10
-9.3504762
20
4
11
-9.79522028
21
4
0
LINE
8
0
10
-9.79522028
20
4
11
-9.73838962
21
0.92888547
0
LINE
8
0
10
-9.73838962
20
0.92888547
11
-9.75731039
21
-1.10000002
0
LINE
8
0
10
-9.75731039
20
-1.10000002
11
-8.6651511
21
-1.10000002
0
LINE
8
0
10
-8.6651511
20
-1.10000002
11
9.59296284
21
-1.10000002
0
LINE
8
0
10
9.59296284
20
-1.10000002
11
9.75731039
21
-1.10000002
0
LINE
8
0
10
9.75731039
20
-1.10000002
11
9.73838962
21
0.92888547
0
LINE
8
0
10
9.73838962
20
0.92888547
11
9.73838962
21
0.92888547
0
LINE
8
0
10
-18.0247987
20
46.5
11
-18.5499992
21
46.5
0
LINE
8
0
10
-18.5499992
20
46.5
11
-18.5499992
21
46.3966856
0
LINE
8
0
10
-18.5499992
20
46.3966856
11
-18.5499992
21
46.2593491
0
LINE
8
0
10
-18.5499992
20
46.2593491
11
-18.5499992
21
46.246685
0
LINE
8
0
10
-18.5499992
20
46.246685
11
-18.5499992
21
46.2204873
0
LINE
8
0
10
-18.5499992
20
46.2204873
11
-18.5499992
21
46.181392
0
LINE
8
0
10
-18.5499992
20
46.181392
11
-18.5499992
21
46.1311178
0
LINE
8
0
10
-18.5499992
20
46.1311178
11
-18.5499992
21
44.4694559
0
LINE
8
0
10
-18.5499992
20
44.4694559
11
-18.5499992
21
41.7969456
0
LINE
8
0
10
-18.5499992
20
41.7969456
11
-18.5499992
21
41.5
0
LINE
8
0
10
-18.5499992
20
41.5
11
-14.010121
21
41.5
0
LINE
8
0
10
-14.010121
20
41.5
11
-13.2625129
21
41.5
0
LINE
8
0
10
-13.2625129
20
41.5
11
-12.3548212
21
41.5
0
LINE
8
0
10
-12.3548212
20
41.5
11
-11.3683389
21
41.5
0
LINE
8
0
10
-11.3683389
20
41.5
11
-10.4697469
21
41.5
0
LINE
8
0
10
-10.4697469
20
41.5
11
-10.2047797
21
41.5
0
LINE
8
0
10
-10.2047797
20
41.5
11
-10.2616104
21
44.5108966
0
LINE
8
0
10
-10.2616104
20
44.5108966
11
-10.2426896
21
46.5
0
LINE
8
0
10
-10.2426896
20
46.5
11
-10.822022
21
46.5
0
LINE
8
0
10
-10.822022
20
46.5
11
-11.6695433
21
46.5
0
LINE
8
0
10
-11.6695433
20
46.5
11
-12.5266909
21
46.5
0
LINE
8
0
10
-12.5266909
20
46.5
11
-13.2886545
21
46.5
0
LINE
8
0
10
-13.2886545
20
46.5
11
-13.9072538
21
46.5
0
LINE
8
0
10
-13.9072538
20
46.5
11
-14.3744417
21
46.5
0
LINE
8
0
10
-14.3744417
20
46.5
11
-18.0247987
21
46.5
0
LINE
8
0
10
-18.0247987
20
46.5
11
-18.0247987
21
46.5
0
LINE
8
0
10
-18.0247987
20
-1.10000002
11
-18.3878233
21
-1.10000002
0
LINE
8
0
10
-18.3878233
20
-1.10000002
11
-18.5499992
21
-1.10000002
0
LINE
8
0
10
-18.5499992
20
-1.10000002
11
-18.5499992
21
-0.985413864
0
LINE
8
0
10
-18.5499992
20
-0.985413864
11
-18.5499992
21
-0.972791818
0
LINE
8
0
10
-18.5499992
20
-0.972791818
11
-18.5499992
21
-0.771176573
0
LINE
8
0
10
-18.5499992
20
-0.771176573
11
-18.5499992
21
-0.749657011
0
LINE
8
0
10
-18.5499992
20
-0.749657011
11
-18.5499992
21
-0.714872392
0
LINE
8
0
10
-18.5499992
20
-0.714872392
11
-18.5499992
21
-0.668116803
0
LINE
8
0
10
-18.5499992
20
-0.668116803
11
-18.5499992
21
0.971154974
0
LINE
8
0
10
-18.5499992
20
0.971154974
11
-18.5499992
21
3.70305441
0
LINE
8
0
10
-18.5499992
20
3.70305441
11
-18.5499992
21
4
0
LINE
8
0
10
-18.5499992
20
4
11
-14.010121
21
4
0
LINE
8
0
10
-14.010121
20
4
11
-13.2625129
21
4
0
LINE
8
0
10
-13.2625129
20
4
11
-12.3548212
21
4
0
LINE
8
0
10
-12.3548212
20
4
11
-11.3683389
21
4
0
LINE
8
0
10
-11.3683389
20
4
11
-10.4697469
21
4
0
LINE
8
0
10
-10.4697469
20
4
11
-10.2047797
21
4
0
LINE
8
0
10
-10.2047797
20
4
11
-10.2616104
21
0.92888547
0
LINE
8
0
10
-10.2616104
20
0.92888547
11
-10.2426896
21
-1.10000002
0
LINE
8
0
10
-10.2426896
20
-1.10000002
11
-10.822022
21
-1.10000002
0
LINE
8
0
10
-10.822022
20
-1.10000002
11
-11.6695433
21
-1.10000002
0
LINE
8
0
10
-11.6695433
20
-1.10000002
11
-12.5266909
21
-1.10000002
0
LINE
8
0
10
-12.5266909
20
-1.10000002
11
-13.2886545
21
-1.10000002
0
LINE
8
0
10
-13.2886545
20
-1.10000002
11
-13.9072538
21
-1.10000002
0
LINE
8
0
10
-13.9072538
20
-1.10000002
11
-14.3744417
21
-1.10000002
0
LINE
8
0
10
-14.3744417
20
-1.10000002
11
-18.0247987
21
-1.10000002
0
LINE
8
0
10
-18.0247987
20
-1.10000002
11
-18.0247987
21
-1.10000002
0
ENDSEC
0
EOF
