0
SECTION
2
ENTITIES
0
LINE
8
0
10
-15.8915244
20
1.70451835
11
-15.5500002
21
1.70451835
0
LINE
8
0
10
-15.5500002
20
1.70451835
11
-15.5500002
21
1.64692982
0
LINE
8
0
10
-15.5500002
20
1.64692982
11
-15.5500002
21
1.64137186
0
LINE
8
0
10
-15.5500002
20
1.64137186
11
-15.5500002
21
1.63806513
0
LINE
8
0
10
-15.5500002
20
1.63806513
11
-15.5500002
21
1.21718233
0
LINE
8
0
10
-15.5500002
20
1.21718233
11
-15.5500002
21
1.20092586
0
LINE
8
0
10
-15.5500002
20
1.20092586
11
-15.5500002
21
0.93760438
0
LINE
8
0
10
-15.5500002
20
0.93760438
11
-15.5500002
21
0.487224209
0
LINE
8
0
10
-15.5500002
20
0.487224209
11
-15.5500002
21
0.148196817
0
LINE
8
0
10
-15.5500002
20
0.148196817
11
-15.5500002
21
-0.0778268188
0
LINE
8
0
10
-15.5500002
20
-0.0778268188
11
-15.5500002
21
-0.212016531
0
LINE
8
0
10
-15.5500002
20
-0.212016531
11
-15.5500002
21
-0.271356347
0
LINE
8
0
10
-15.5500002
20
-0.271356347
11
-15.5500002
21
-1.10000002
0
LINE
8
0
10
-15.5500002
20
-1.10000002
11
-16.9709179
21
-1.10000002
0
LINE
8
0
10
-16.9709179
20
-1.10000002
11
-18.5499992
21
-1.10000002
0
LINE
8
0
10
-18.5499992
20
-1.10000002
11
-18.5499992
21
0.0157073186
0
LINE
8
0
10
-18.5499992
20
0.0157073186
11
-18.5499992
21
0.138606188
0
LINE
8
0
10
-18.5499992
20
0.138606188
11
-18.5499992
21
0.718796892
0
LINE
8
0
10
-18.5499992
20
0.718796892
11
-18.5499992
21
0.734669675
0
LINE
8
0
10
-18.5499992
20
0.734669675
11
-18.5499992
21
0.793826981
0
LINE
8
0
10
-18.5499992
20
0.793826981
11
-18.5499992
21
0.93760438
0
LINE
8
0
10
-18.5499992
20
0.93760438
11
-18.5499992
21
0.970262227
0
LINE
8
0
10
-18.5499992
20
0.970262227
11
-18.5499992
21
1.21718233
0
LINE
8
0
10
-18.5499992
20
1.21718233
11
-18.5499992
21
1.25109386
0
LINE
8
0
10
-18.5499992
20
1.25109386
11
-18.5499992
21
1.64137186
0
LINE
8
0
10
-18.5499992
20
1.64137186
11
-18.5499992
21
1.64692982
0
LINE
8
0
10
-18.5499992
20
1.64692982
11
-18.5499992
21
1.70451835
0
LINE
8
0
10
-18.5499992
20
1.70451835
11
-15.8915244
21
1.70451835
0
LINE
8
0
10
-15.8915244
20
1.70451835
11
-15.8915244
21
1.70451835
0
LINE
8
0
10
-17.7500277
20
40.5499992
11
-15.5500002
21
40.5499992
0
LINE
8
0
10
-15.5500002
20
40.5499992
11
-15.5500002
21
40.8318745
0
LINE
8
0
10
-15.5500002
20
40.8318745
11
-15.5500002
21
41.5378952
0
LINE
8
0
10
-15.5500002
20
41.5378952
11
-15.5500002
21
41.5993158
0
LINE
8
0
10
-15.5500002
20
41.5993158
11
-15.5500002
21
41.7990761
0
LINE
8
0
10
-15.5500002
20
41.7990761
11
-15.5500002
21
41.8726512
0
LINE
8
0
10
-15.5500002
20
41.8726512
11
-15.5500002
21
42.125
0
LINE
8
0
10
-15.5500002
20
42.125
11
-15.5500002
21
42.2062172
0
LINE
8
0
10
-15.5500002
20
42.2062172
11
-15.5500002
21
42.4980927
0
LINE
8
0
10
-15.5500002
20
42.4980927
11
-15.5500002
21
42.5828195
0
LINE
8
0
10
-15.5500002
20
42.5828195
11
-15.5500002
21
42.8982468
0
LINE
8
0
10
-15.5500002
20
42.8982468
11
-15.5500002
21
42.9828072
0
LINE
8
0
10
-15.5500002
20
42.9828072
11
-15.5500002
21
43.3038826
0
LINE
8
0
10
-15.5500002
20
43.3038826
11
-15.5500002
21
43.3849118
0
LINE
8
0
10
-15.5500002
20
43.3849118
11
-15.5500002
21
43.6931381
0
LINE
8
0
10
-15.5500002
20
43.6931381
11
-15.5500002
21
43.7673155
0
LINE
8
0
10
-15.5500002
20
43.7673155
11
-15.5500002
21
44.0450287
0
LINE
8
0
10
-15.5500002
20
44.0450287
11
-15.5500002
21
44.1088706
0
LINE
8
0
10
-15.5500002
20
44.1088706
11
-15.5500002
21
44.3405762
0
LINE
8
0
10
-15.5500002
20
44.3405762
11
-15.5500002
21
44.3904224
0
LINE
8
0
10
-15.5500002
20
44.3904224
11
-15.5500002
21
44.563858
0
LINE
8
0
10
-15.5500002
20
44.563858
11
-15.5500002
21
44.9410372
0
LINE
8
0
10
-15.5500002
20
44.9410372
11
-15.5500002
21
46.5
0
LINE
8
0
10
-15.5500002
20
46.5
11
-16.2027161
21
46.5
0
LINE
8
0
10
-16.2027161
20
46.5
11
-18.5499992
21
46.5
0
LINE
8
0
10
-18.5499992
20
46.5
11
-18.5499992
21
45.4940436
0
LINE
8
0
10
-18.5499992
20
45.4940436
11
-18.5499992
21
44.75
0
LINE
8
0
10
-18.5499992
20
44.75
11
-18.5499992
21
44.7377467
0
LINE
8
0
10
-18.5499992
20
44.7377467
11
-18.5499992
21
44.7028275
0
LINE
8
0
10
-18.5499992
20
44.7028275
11
-18.5499992
21
44.6680621
0
LINE
8
0
10
-18.5499992
20
44.6680621
11
-18.5499992
21
44.563858
0
LINE
8
0
10
-18.5499992
20
44.563858
11
-18.5499992
21
44.5102387
0
LINE
8
0
10
-18.5499992
20
44.5102387
11
-18.5499992
21
44.3405762
0
LINE
8
0
10
-18.5499992
20
44.3405762
11
-18.5499992
21
44.2725019
0
LINE
8
0
10
-18.5499992
20
44.2725019
11
-18.5499992
21
44.0450287
0
LINE
8
0
10
-18.5499992
20
44.0450287
11
-18.5499992
21
43.9670865
0
LINE
8
0
10
-18.5499992
20
43.9670865
11
-18.5499992
21
43.6931381
0
LINE
8
0
10
-18.5499992
20
43.6931381
11
-18.5499992
21
43.6096793
0
LINE
8
0
10
-18.5499992
20
43.6096793
11
-18.5499992
21
43.3038826
0
LINE
8
0
10
-18.5499992
20
43.3038826
11
-18.5499992
21
43.2188049
0
LINE
8
0
10
-18.5499992
20
43.2188049
11
-18.5499992
21
42.8982468
0
LINE
8
0
10
-18.5499992
20
42.8982468
11
-18.5499992
21
42.8150398
0
LINE
8
0
10
-18.5499992
20
42.8150398
11
-18.5499992
21
42.4980927
0
LINE
8
0
10
-18.5499992
20
42.4980927
11
-18.5499992
21
42.420068
0
LINE
8
0
10
-18.5499992
20
42.420068
11
-18.5499992
21
42.125
0
LINE
8
0
10
-18.5499992
20
42.125
11
-18.5499992
21
42.0555413
0
LINE
8
0
10
-18.5499992
20
42.0555413
11
-18.5499992
21
41.7990761
0
LINE
8
0
10
-18.5499992
20
41.7990761
11
-18.5499992
21
41.7417685
0
LINE
8
0
10
-18.5499992
20
41.7417685
11
-18.5499992
21
41.5378952
0
LINE
8
0
10
-18.5499992
20
41.5378952
11
-18.5499992
21
41.3251935
0
LINE
8
0
10
-18.5499992
20
41.3251935
11
-18.5499992
21
40.5499992
0
LINE
8
0
10
-18.5499992
20
40.5499992
11
-17.7500277
21
40.5499992
0
LINE
8
0
10
-17.7500277
20
40.5499992
11
-17.7500277
21
40.5499992
0
ENDSEC
0
EOF
