0
SECTION
2
ENTITIES
0
LINE
8
0
10
-18.0733278
20
1.57142361
11
-15.5500002
21
1.57142361
0
LINE
8
0
10
-15.5500002
20
1.57142361
11
-15.5500002
21
1.21056818
0
LINE
8
0
10
-15.5500002
20
1.21056818
11
-15.5500002
21
1.19822709
0
LINE
8
0
10
-15.5500002
20
1.19822709
11
-15.5500002
21
0.923237946
0
LINE
8
0
10
-15.5500002
20
0.923237946
11
-15.5500002
21
0.528736514
0
LINE
8
0
10
-15.5500002
20
0.528736514
11
-15.5500002
21
0.180842191
0
LINE
8
0
10
-15.5500002
20
0.180842191
11
-15.5500002
21
-0.0510928732
0
LINE
8
0
10
-15.5500002
20
-0.0510928732
11
-15.5500002
21
-0.188792187
0
LINE
8
0
10
-15.5500002
20
-0.188792187
11
-15.5500002
21
-0.249683978
0
LINE
8
0
10
-15.5500002
20
-0.249683978
11
-15.5500002
21
-1.10000002
0
LINE
8
0
10
-15.5500002
20
-1.10000002
11
-16.9538467
21
-1.10000002
0
LINE
8
0
10
-16.9538467
20
-1.10000002
11
-18.5499992
21
-1.10000002
0
LINE
8
0
10
-18.5499992
20
-1.10000002
11
-18.5499992
21
0.0277690196
0
LINE
8
0
10
-18.5499992
20
0.0277690196
11
-18.5499992
21
0.151996525
0
LINE
8
0
10
-18.5499992
20
0.151996525
11
-18.5499992
21
0.696417097
0
LINE
8
0
10
-18.5499992
20
0.696417097
11
-18.5499992
21
0.711311285
0
LINE
8
0
10
-18.5499992
20
0.711311285
11
-18.5499992
21
0.773089828
0
LINE
8
0
10
-18.5499992
20
0.773089828
11
-18.5499992
21
0.923237946
0
LINE
8
0
10
-18.5499992
20
0.923237946
11
-18.5499992
21
0.951843929
0
LINE
8
0
10
-18.5499992
20
0.951843929
11
-18.5499992
21
1.21056818
0
LINE
8
0
10
-18.5499992
20
1.21056818
11
-18.5499992
21
1.23631207
0
LINE
8
0
10
-18.5499992
20
1.23631207
11
-18.5499992
21
1.57142361
0
LINE
8
0
10
-18.5499992
20
1.57142361
11
-18.0733278
21
1.57142361
0
LINE
8
0
10
-18.0733278
20
1.57142361
11
-18.0733278
21
1.57142361
0
LINE
8
0
10
-16.2197873
20
46.5
11
-15.5500002
21
46.5
0
LINE
8
0
10
-15.5500002
20
46.5
11
-15.5500002
21
44.9597669
0
LINE
8
0
10
-15.5500002
20
44.9597669
11
-15.5500002
21
44.563858
0
LINE
8
0
10
-15.5500002
20
44.563858
11
-15.5500002
21
44.393085
0
LINE
8
0
10
-15.5500002
20
44.393085
11
-15.5500002
21
44.3405762
0
LINE
8
0
10
-15.5500002
20
44.3405762
11
-15.5500002
21
44.1125069
0
LINE
8
0
10
-15.5500002
20
44.1125069
11
-15.5500002
21
44.0450287
0
LINE
8
0
10
-15.5500002
20
44.0450287
11
-15.5500002
21
43.7717549
0
LINE
8
0
10
-15.5500002
20
43.7717549
11
-15.5500002
21
43.6931381
0
LINE
8
0
10
-15.5500002
20
43.6931381
11
-15.5500002
21
43.3899066
0
LINE
8
0
10
-15.5500002
20
43.3899066
11
-15.5500002
21
43.3038826
0
LINE
8
0
10
-15.5500002
20
43.3038826
11
-15.5500002
21
42.9880516
0
LINE
8
0
10
-15.5500002
20
42.9880516
11
-15.5500002
21
42.8982468
0
LINE
8
0
10
-15.5500002
20
42.8982468
11
-15.5500002
21
42.58798
0
LINE
8
0
10
-15.5500002
20
42.58798
11
-15.5500002
21
42.4980927
0
LINE
8
0
10
-15.5500002
20
42.4980927
11
-15.5500002
21
42.2109694
0
LINE
8
0
10
-15.5500002
20
42.2109694
11
-15.5500002
21
42.125
0
LINE
8
0
10
-15.5500002
20
42.125
11
-15.5500002
21
41.8767154
0
LINE
8
0
10
-15.5500002
20
41.8767154
11
-15.5500002
21
41.7990761
0
LINE
8
0
10
-15.5500002
20
41.7990761
11
-15.5500002
21
41.6024814
0
LINE
8
0
10
-15.5500002
20
41.6024814
11
-15.5500002
21
41.5378952
0
LINE
8
0
10
-15.5500002
20
41.5378952
11
-15.5500002
21
40.8428371
0
LINE
8
0
10
-15.5500002
20
40.8428371
11
-15.5500002
21
40.5499992
0
LINE
8
0
10
-15.5500002
20
40.5499992
11
-17.7189153
21
40.5499992
0
LINE
8
0
10
-17.7189153
20
40.5499992
11
-18.5499992
21
40.5499992
0
LINE
8
0
10
-18.5499992
20
40.5499992
11
-18.5499992
21
41.3142308
0
LINE
8
0
10
-18.5499992
20
41.3142308
11
-18.5499992
21
41.5378952
0
LINE
8
0
10
-18.5499992
20
41.5378952
11
-18.5499992
21
41.7386029
0
LINE
8
0
10
-18.5499992
20
41.7386029
11
-18.5499992
21
41.7990761
0
LINE
8
0
10
-18.5499992
20
41.7990761
11
-18.5499992
21
42.051477
0
LINE
8
0
10
-18.5499992
20
42.051477
11
-18.5499992
21
42.125
0
LINE
8
0
10
-18.5499992
20
42.125
11
-18.5499992
21
42.4153157
0
LINE
8
0
10
-18.5499992
20
42.4153157
11
-18.5499992
21
42.4980927
0
LINE
8
0
10
-18.5499992
20
42.4980927
11
-18.5499992
21
42.8098793
0
LINE
8
0
10
-18.5499992
20
42.8098793
11
-18.5499992
21
42.8982468
0
LINE
8
0
10
-18.5499992
20
42.8982468
11
-18.5499992
21
43.2135605
0
LINE
8
0
10
-18.5499992
20
43.2135605
11
-18.5499992
21
43.3038826
0
LINE
8
0
10
-18.5499992
20
43.3038826
11
-18.5499992
21
43.6046844
0
LINE
8
0
10
-18.5499992
20
43.6046844
11
-18.5499992
21
43.6931381
0
LINE
8
0
10
-18.5499992
20
43.6931381
11
-18.5499992
21
43.9626472
0
LINE
8
0
10
-18.5499992
20
43.9626472
11
-18.5499992
21
44.0450287
0
LINE
8
0
10
-18.5499992
20
44.0450287
11
-18.5499992
21
44.2688656
0
LINE
8
0
10
-18.5499992
20
44.2688656
11
-18.5499992
21
44.3405762
0
LINE
8
0
10
-18.5499992
20
44.3405762
11
-18.5499992
21
44.5075761
0
LINE
8
0
10
-18.5499992
20
44.5075761
11
-18.5499992
21
44.563858
0
LINE
8
0
10
-18.5499992
20
44.563858
11
-18.5499992
21
44.6664623
0
LINE
8
0
10
-18.5499992
20
44.6664623
11
-18.5499992
21
44.7028275
0
LINE
8
0
10
-18.5499992
20
44.7028275
11
-18.5499992
21
44.7372234
0
LINE
8
0
10
-18.5499992
20
44.7372234
11
-18.5499992
21
44.75
0
LINE
8
0
10
-18.5499992
20
44.75
11
-18.5499992
21
45.4831684
0
LINE
8
0
10
-18.5499992
20
45.4831684
11
-18.5499992
21
46.5
0
LINE
8
0
10
-18.5499992
20
46.5
11
-16.2197873
21
46.5
0
LINE
8
0
10
-16.2197873
20
46.5
11
-16.2197873
21
46.5
0
ENDSEC
0
EOF
