0
SECTION
2
ENTITIES
0
LINE
8
0
10
-16.9367756
20
-1.10000002
11
-15.5500002
21
-1.10000002
0
LINE
8
0
10
-15.5500002
20
-1.10000002
11
-15.5500002
21
-0.228011609
0
LINE
8
0
10
-15.5500002
20
-0.228011609
11
-15.5500002
21
-0.165567843
0
LINE
8
0
10
-15.5500002
20
-0.165567843
11
-15.5500002
21
-0.0243589275
0
LINE
8
0
10
-15.5500002
20
-0.0243589275
11
-15.5500002
21
0.213487565
0
LINE
8
0
10
-15.5500002
20
0.213487565
11
-15.5500002
21
0.57024882
0
LINE
8
0
10
-15.5500002
20
0.57024882
11
-15.5500002
21
0.908871512
0
LINE
8
0
10
-15.5500002
20
0.908871512
11
-15.5500002
21
1.19552833
0
LINE
8
0
10
-15.5500002
20
1.19552833
11
-15.5500002
21
1.20395402
0
LINE
8
0
10
-15.5500002
20
1.20395402
11
-15.5500002
21
1.45032267
0
LINE
8
0
10
-15.5500002
20
1.45032267
11
-17.2727644
21
1.45032267
0
LINE
8
0
10
-17.2727644
20
1.45032267
11
-18.5499992
21
1.45032267
0
LINE
8
0
10
-18.5499992
20
1.45032267
11
-18.5499992
21
1.22153028
0
LINE
8
0
10
-18.5499992
20
1.22153028
11
-18.5499992
21
1.20395402
0
LINE
8
0
10
-18.5499992
20
1.20395402
11
-18.5499992
21
0.93342563
0
LINE
8
0
10
-18.5499992
20
0.93342563
11
-18.5499992
21
0.908871512
0
LINE
8
0
10
-18.5499992
20
0.908871512
11
-18.5499992
21
0.752352674
0
LINE
8
0
10
-18.5499992
20
0.752352674
11
-18.5499992
21
0.687952894
0
LINE
8
0
10
-18.5499992
20
0.687952894
11
-18.5499992
21
0.674037301
0
LINE
8
0
10
-18.5499992
20
0.674037301
11
-18.5499992
21
0.165386863
0
LINE
8
0
10
-18.5499992
20
0.165386863
11
-18.5499992
21
0.0398307206
0
LINE
8
0
10
-18.5499992
20
0.0398307206
11
-18.5499992
21
-1.10000002
0
LINE
8
0
10
-18.5499992
20
-1.10000002
11
-16.9367756
21
-1.10000002
0
LINE
8
0
10
-16.9367756
20
-1.10000002
11
-16.9367756
21
-1.10000002
0
LINE
8
0
10
-16.2368584
20
46.5
11
-15.5500002
21
46.5
0
LINE
8
0
10
-15.5500002
20
46.5
11
-15.5500002
21
44.9784965
0
LINE
8
0
10
-15.5500002
20
44.9784965
11
-15.5500002
21
44.563858
0
LINE
8
0
10
-15.5500002
20
44.563858
11
-15.5500002
21
44.3957476
0
LINE
8
0
10
-15.5500002
20
44.3957476
11
-15.5500002
21
44.3405762
0
LINE
8
0
10
-15.5500002
20
44.3405762
11
-15.5500002
21
44.1161431
0
LINE
8
0
10
-15.5500002
20
44.1161431
11
-15.5500002
21
44.0450287
0
LINE
8
0
10
-15.5500002
20
44.0450287
11
-15.5500002
21
43.7761942
0
LINE
8
0
10
-15.5500002
20
43.7761942
11
-15.5500002
21
43.6931381
0
LINE
8
0
10
-15.5500002
20
43.6931381
11
-15.5500002
21
43.3949014
0
LINE
8
0
10
-15.5500002
20
43.3949014
11
-15.5500002
21
43.3038826
0
LINE
8
0
10
-15.5500002
20
43.3038826
11
-15.5500002
21
42.993296
0
LINE
8
0
10
-15.5500002
20
42.993296
11
-15.5500002
21
42.8982468
0
LINE
8
0
10
-15.5500002
20
42.8982468
11
-15.5500002
21
42.5931404
0
LINE
8
0
10
-15.5500002
20
42.5931404
11
-15.5500002
21
42.4980927
0
LINE
8
0
10
-15.5500002
20
42.4980927
11
-15.5500002
21
42.2157216
0
LINE
8
0
10
-15.5500002
20
42.2157216
11
-15.5500002
21
42.125
0
LINE
8
0
10
-15.5500002
20
42.125
11
-15.5500002
21
41.8807797
0
LINE
8
0
10
-15.5500002
20
41.8807797
11
-15.5500002
21
41.7990761
0
LINE
8
0
10
-15.5500002
20
41.7990761
11
-15.5500002
21
41.605647
0
LINE
8
0
10
-15.5500002
20
41.605647
11
-15.5500002
21
41.5378952
0
LINE
8
0
10
-15.5500002
20
41.5378952
11
-15.5500002
21
40.8537998
0
LINE
8
0
10
-15.5500002
20
40.8537998
11
-15.5500002
21
40.5499992
0
LINE
8
0
10
-15.5500002
20
40.5499992
11
-17.687803
21
40.5499992
0
LINE
8
0
10
-17.687803
20
40.5499992
11
-18.5499992
21
40.5499992
0
LINE
8
0
10
-18.5499992
20
40.5499992
11
-18.5499992
21
41.3032682
0
LINE
8
0
10
-18.5499992
20
41.3032682
11
-18.5499992
21
41.5378952
0
LINE
8
0
10
-18.5499992
20
41.5378952
11
-18.5499992
21
41.7354373
0
LINE
8
0
10
-18.5499992
20
41.7354373
11
-18.5499992
21
41.7990761
0
LINE
8
0
10
-18.5499992
20
41.7990761
11
-18.5499992
21
42.0474128
0
LINE
8
0
10
-18.5499992
20
42.0474128
11
-18.5499992
21
42.125
0
LINE
8
0
10
-18.5499992
20
42.125
11
-18.5499992
21
42.4105635
0
LINE
8
0
10
-18.5499992
20
42.4105635
11
-18.5499992
21
42.4980927
0
LINE
8
0
10
-18.5499992
20
42.4980927
11
-18.5499992
21
42.8047189
0
LINE
8
0
10
-18.5499992
20
42.8047189
11
-18.5499992
21
42.8982468
0
LINE
8
0
10
-18.5499992
20
42.8982468
11
-18.5499992
21
43.2083161
0
LINE
8
0
10
-18.5499992
20
43.2083161
11
-18.5499992
21
43.3038826
0
LINE
8
0
10
-18.5499992
20
43.3038826
11
-18.5499992
21
43.5996896
0
LINE
8
0
10
-18.5499992
20
43.5996896
11
-18.5499992
21
43.6931381
0
LINE
8
0
10
-18.5499992
20
43.6931381
11
-18.5499992
21
43.9582078
0
LINE
8
0
10
-18.5499992
20
43.9582078
11
-18.5499992
21
44.0450287
0
LINE
8
0
10
-18.5499992
20
44.0450287
11
-18.5499992
21
44.2652294
0
LINE
8
0
10
-18.5499992
20
44.2652294
11
-18.5499992
21
44.3405762
0
LINE
8
0
10
-18.5499992
20
44.3405762
11
-18.5499992
21
44.5049135
0
LINE
8
0
10
-18.5499992
20
44.5049135
11
-18.5499992
21
44.563858
0
LINE
8
0
10
-18.5499992
20
44.563858
11
-18.5499992
21
44.6648626
0
LINE
8
0
10
-18.5499992
20
44.6648626
11
-18.5499992
21
44.7028275
0
LINE
8
0
10
-18.5499992
20
44.7028275
11
-18.5499992
21
44.7367001
0
LINE
8
0
10
-18.5499992
20
44.7367001
11
-18.5499992
21
44.75
0
LINE
8
0
10
-18.5499992
20
44.75
11
-18.5499992
21
45.4722932
0
LINE
8
0
10
-18.5499992
20
45.4722932
11
-18.5499992
21
46.5
0
LINE
8
0
10
-18.5499992
20
46.5
11
-16.2368584
21
46.5
0
LINE
8
0
10
-16.2368584
20
46.5
11
-16.2368584
21
46.5
0
ENDSEC
0
EOF
