0
SECTION
2
ENTITIES
0
LINE
8
0
10
-16.3222142
20
46.5
11
-15.5500002
21
46.5
0
LINE
8
0
10
-15.5500002
20
46.5
11
-15.5500002
21
45.0721448
0
LINE
8
0
10
-15.5500002
20
45.0721448
11
-15.5500002
21
44.563858
0
LINE
8
0
10
-15.5500002
20
44.563858
11
-15.5500002
21
44.4090605
0
LINE
8
0
10
-15.5500002
20
44.4090605
11
-15.5500002
21
44.3405762
0
LINE
8
0
10
-15.5500002
20
44.3405762
11
-15.5500002
21
44.1343244
0
LINE
8
0
10
-15.5500002
20
44.1343244
11
-15.5500002
21
44.0450287
0
LINE
8
0
10
-15.5500002
20
44.0450287
11
-15.5500002
21
43.798391
0
LINE
8
0
10
-15.5500002
20
43.798391
11
-15.5500002
21
43.6931381
0
LINE
8
0
10
-15.5500002
20
43.6931381
11
-15.5500002
21
43.4198756
0
LINE
8
0
10
-15.5500002
20
43.4198756
11
-15.5500002
21
43.3038826
0
LINE
8
0
10
-15.5500002
20
43.3038826
11
-15.5500002
21
43.019518
0
LINE
8
0
10
-15.5500002
20
43.019518
11
-15.5500002
21
42.8982468
0
LINE
8
0
10
-15.5500002
20
42.8982468
11
-15.5500002
21
42.6189427
0
LINE
8
0
10
-15.5500002
20
42.6189427
11
-15.5500002
21
42.4980927
0
LINE
8
0
10
-15.5500002
20
42.4980927
11
-15.5500002
21
42.2394828
0
LINE
8
0
10
-15.5500002
20
42.2394828
11
-15.5500002
21
42.125
0
LINE
8
0
10
-15.5500002
20
42.125
11
-15.5500002
21
41.9011008
0
LINE
8
0
10
-15.5500002
20
41.9011008
11
-15.5500002
21
41.7990761
0
LINE
8
0
10
-15.5500002
20
41.7990761
11
-15.5500002
21
41.6214751
0
LINE
8
0
10
-15.5500002
20
41.6214751
11
-15.5500002
21
41.5378952
0
LINE
8
0
10
-15.5500002
20
41.5378952
11
-15.5500002
21
40.908613
0
LINE
8
0
10
-15.5500002
20
40.908613
11
-15.5500002
21
40.5499992
0
LINE
8
0
10
-15.5500002
20
40.5499992
11
-17.5322412
21
40.5499992
0
LINE
8
0
10
-17.5322412
20
40.5499992
11
-18.5499992
21
40.5499992
0
LINE
8
0
10
-18.5499992
20
40.5499992
11
-18.5499992
21
41.248455
0
LINE
8
0
10
-18.5499992
20
41.248455
11
-18.5499992
21
41.5378952
0
LINE
8
0
10
-18.5499992
20
41.5378952
11
-18.5499992
21
41.7196092
0
LINE
8
0
10
-18.5499992
20
41.7196092
11
-18.5499992
21
41.7990761
0
LINE
8
0
10
-18.5499992
20
41.7990761
11
-18.5499992
21
42.0270917
0
LINE
8
0
10
-18.5499992
20
42.0270917
11
-18.5499992
21
42.125
0
LINE
8
0
10
-18.5499992
20
42.125
11
-18.5499992
21
42.3868023
0
LINE
8
0
10
-18.5499992
20
42.3868023
11
-18.5499992
21
42.4980927
0
LINE
8
0
10
-18.5499992
20
42.4980927
11
-18.5499992
21
42.7789166
0
LINE
8
0
10
-18.5499992
20
42.7789166
11
-18.5499992
21
42.8982468
0
LINE
8
0
10
-18.5499992
20
42.8982468
11
-18.5499992
21
43.1820942
0
LINE
8
0
10
-18.5499992
20
43.1820942
11
-18.5499992
21
43.3038826
0
LINE
8
0
10
-18.5499992
20
43.3038826
11
-18.5499992
21
43.5747154
0
LINE
8
0
10
-18.5499992
20
43.5747154
11
-18.5499992
21
43.6931381
0
LINE
8
0
10
-18.5499992
20
43.6931381
11
-18.5499992
21
43.936011
0
LINE
8
0
10
-18.5499992
20
43.936011
11
-18.5499992
21
44.0450287
0
LINE
8
0
10
-18.5499992
20
44.0450287
11
-18.5499992
21
44.2470481
0
LINE
8
0
10
-18.5499992
20
44.2470481
11
-18.5499992
21
44.3405762
0
LINE
8
0
10
-18.5499992
20
44.3405762
11
-18.5499992
21
44.4916006
0
LINE
8
0
10
-18.5499992
20
44.4916006
11
-18.5499992
21
44.563858
0
LINE
8
0
10
-18.5499992
20
44.563858
11
-18.5499992
21
44.6568639
0
LINE
8
0
10
-18.5499992
20
44.6568639
11
-18.5499992
21
44.7028275
0
LINE
8
0
10
-18.5499992
20
44.7028275
11
-18.5499992
21
44.7340838
0
LINE
8
0
10
-18.5499992
20
44.7340838
11
-18.5499992
21
44.75
0
LINE
8
0
10
-18.5499992
20
44.75
11
-18.5499992
21
45.4179172
0
LINE
8
0
10
-18.5499992
20
45.4179172
11
-18.5499992
21
46.5
0
LINE
8
0
10
-18.5499992
20
46.5
11
-16.3222142
21
46.5
0
LINE
8
0
10
-16.3222142
20
46.5
11
-16.3222142
21
46.5
0
LINE
8
0
10
-16.8514198
20
-1.10000002
11
-15.5500002
21
-1.10000002
0
LINE
8
0
10
-15.5500002
20
-1.10000002
11
-15.5500002
21
-0.119649764
0
LINE
8
0
10
-15.5500002
20
-0.119649764
11
-15.5500002
21
-0.0494461217
0
LINE
8
0
10
-15.5500002
20
-0.0494461217
11
-15.5500002
21
0.109310801
0
LINE
8
0
10
-15.5500002
20
0.109310801
11
-15.5500002
21
0.376714434
0
LINE
8
0
10
-15.5500002
20
0.376714434
11
-15.5500002
21
0.777810347
0
LINE
8
0
10
-15.5500002
20
0.777810347
11
-15.5500002
21
0.837039342
0
LINE
8
0
10
-15.5500002
20
0.837039342
11
-15.5500002
21
0.921598119
0
LINE
8
0
10
-15.5500002
20
0.921598119
11
-16.3636781
21
0.921598119
0
LINE
8
0
10
-16.3636781
20
0.921598119
11
-18.5499992
21
0.921598119
0
LINE
8
0
10
-18.5499992
20
0.921598119
11
-18.5499992
21
0.841334139
0
LINE
8
0
10
-18.5499992
20
0.841334139
11
-18.5499992
21
0.837039342
0
LINE
8
0
10
-18.5499992
20
0.837039342
11
-18.5499992
21
0.648666907
0
LINE
8
0
10
-18.5499992
20
0.648666907
11
-18.5499992
21
0.571160943
0
LINE
8
0
10
-18.5499992
20
0.571160943
11
-18.5499992
21
0.562138323
0
LINE
8
0
10
-18.5499992
20
0.562138323
11
-18.5499992
21
0.23233855
0
LINE
8
0
10
-18.5499992
20
0.23233855
11
-18.5499992
21
0.100139226
0
LINE
8
0
10
-18.5499992
20
0.100139226
11
-18.5499992
21
-1.10000002
0
LINE
8
0
10
-18.5499992
20
-1.10000002
11
-16.8514198
21
-1.10000002
0
LINE
8
0
10
-16.8514198
20
-1.10000002
11
-16.8514198
21
-1.10000002
0
ENDSEC
0
EOF
