  0
SECTION
  2
BLOCKS
  0
ENDSEC
  0
SECTION
  2
ENTITIES
  0
LINE
  8
0
 10
-5
 20
-5
 11
76.3
 21
-5
  0
LINE
  8
0
 10
76.3
 20
-5
 11
76.3
 21
-8.25
  0
LINE
  8
0
 10
76.3
 20
-8.25
 11
76.3903
 21
-9.16692
  0
LINE
  8
0
 10
76.3903
 20
-9.16692
 11
76.6578
 21
-10.0486
  0
LINE
  8
0
 10
76.6578
 20
-10.0486
 11
77.0921
 21
-10.8612
  0
LINE
  8
0
 10
77.0921
 20
-10.8612
 11
77.6766
 21
-11.5734
  0
LINE
  8
0
 10
77.6766
 20
-11.5734
 11
78.3888
 21
-12.1579
  0
LINE
  8
0
 10
78.3888
 20
-12.1579
 11
79.2014
 21
-12.5922
  0
LINE
  8
0
 10
79.2014
 20
-12.5922
 11
80.0831
 21
-12.8597
  0
LINE
  8
0
 10
80.0831
 20
-12.8597
 11
81
 21
-12.95
  0
LINE
  8
0
 10
81
 20
-12.95
 11
81.9169
 21
-12.8597
  0
LINE
  8
0
 10
81.9169
 20
-12.8597
 11
82.7986
 21
-12.5922
  0
LINE
  8
0
 10
82.7986
 20
-12.5922
 11
83.6112
 21
-12.1579
  0
LINE
  8
0
 10
83.6112
 20
-12.1579
 11
84.3234
 21
-11.5734
  0
LINE
  8
0
 10
84.3234
 20
-11.5734
 11
84.9079
 21
-10.8612
  0
LINE
  8
0
 10
84.9079
 20
-10.8612
 11
85.3422
 21
-10.0486
  0
LINE
  8
0
 10
85.3422
 20
-10.0486
 11
85.6097
 21
-9.16692
  0
LINE
  8
0
 10
85.6097
 20
-9.16692
 11
85.7
 21
-8.25
  0
LINE
  8
0
 10
85.7
 20
-8.25
 11
85.7
 21
-5
  0
LINE
  8
0
 10
85.7
 20
-5
 11
96
 21
-5
  0
LINE
  8
0
 10
96
 20
-5
 11
96
 21
108.5
  0
LINE
  8
0
 10
96
 20
108.5
 11
85.7
 21
108.5
  0
LINE
  8
0
 10
85.7
 20
108.5
 11
85.7
 21
111.75
  0
LINE
  8
0
 10
85.7
 20
111.75
 11
85.6097
 21
112.667
  0
LINE
  8
0
 10
85.6097
 20
112.667
 11
85.3422
 21
113.549
  0
LINE
  8
0
 10
85.3422
 20
113.549
 11
84.9079
 21
114.361
  0
LINE
  8
0
 10
84.9079
 20
114.361
 11
84.3234
 21
115.073
  0
LINE
  8
0
 10
84.3234
 20
115.073
 11
83.6112
 21
115.658
  0
LINE
  8
0
 10
83.6112
 20
115.658
 11
82.7986
 21
116.092
  0
LINE
  8
0
 10
82.7986
 20
116.092
 11
81.9169
 21
116.36
  0
LINE
  8
0
 10
81.9169
 20
116.36
 11
81
 21
116.45
  0
LINE
  8
0
 10
81
 20
116.45
 11
80.0831
 21
116.36
  0
LINE
  8
0
 10
80.0831
 20
116.36
 11
79.2014
 21
116.092
  0
LINE
  8
0
 10
79.2014
 20
116.092
 11
78.3888
 21
115.658
  0
LINE
  8
0
 10
78.3888
 20
115.658
 11
77.6766
 21
115.073
  0
LINE
  8
0
 10
77.6766
 20
115.073
 11
77.0921
 21
114.361
  0
LINE
  8
0
 10
77.0921
 20
114.361
 11
76.6578
 21
113.549
  0
LINE
  8
0
 10
76.6578
 20
113.549
 11
76.3903
 21
112.667
  0
LINE
  8
0
 10
76.3903
 20
112.667
 11
76.3
 21
111.75
  0
LINE
  8
0
 10
76.3
 20
111.75
 11
76.3
 21
108.5
  0
LINE
  8
0
 10
76.3
 20
108.5
 11
-5
 21
108.5
  0
LINE
  8
0
 10
-5
 20
108.5
 11
-5
 21
-5
  0
LINE
  8
0
 10
0
 20
0
 11
0
 21
103.5
  0
LINE
  8
0
 10
0
 20
103.5
 11
91
 21
103.5
  0
LINE
  8
0
 10
91
 20
103.5
 11
91
 21
0
  0
LINE
  8
0
 10
91
 20
0
 11
0
 21
0
  0
LINE
  8
0
 10
79.3
 20
-8.25
 11
79.3579
 21
-7.81001
  0
LINE
  8
0
 10
79.3579
 20
-7.81001
 11
79.5278
 21
-7.4
  0
LINE
  8
0
 10
79.5278
 20
-7.4
 11
79.7979
 21
-7.04792
  0
LINE
  8
0
 10
79.7979
 20
-7.04792
 11
80.15
 21
-6.77776
  0
LINE
  8
0
 10
80.15
 20
-6.77776
 11
80.56
 21
-6.60793
  0
LINE
  8
0
 10
80.56
 20
-6.60793
 11
81
 21
-6.55
  0
LINE
  8
0
 10
81
 20
-6.55
 11
81.44
 21
-6.60793
  0
LINE
  8
0
 10
81.44
 20
-6.60793
 11
81.85
 21
-6.77776
  0
LINE
  8
0
 10
81.85
 20
-6.77776
 11
82.2021
 21
-7.04792
  0
LINE
  8
0
 10
82.2021
 20
-7.04792
 11
82.4722
 21
-7.4
  0
LINE
  8
0
 10
82.4722
 20
-7.4
 11
82.6421
 21
-7.81001
  0
LINE
  8
0
 10
82.6421
 20
-7.81001
 11
82.7
 21
-8.25
  0
LINE
  8
0
 10
82.7
 20
-8.25
 11
82.6421
 21
-8.68999
  0
LINE
  8
0
 10
82.6421
 20
-8.68999
 11
82.4722
 21
-9.1
  0
LINE
  8
0
 10
82.4722
 20
-9.1
 11
82.2021
 21
-9.45208
  0
LINE
  8
0
 10
82.2021
 20
-9.45208
 11
81.85
 21
-9.72224
  0
LINE
  8
0
 10
81.85
 20
-9.72224
 11
81.44
 21
-9.89207
  0
LINE
  8
0
 10
81.44
 20
-9.89207
 11
81
 21
-9.95
  0
LINE
  8
0
 10
81
 20
-9.95
 11
80.56
 21
-9.89207
  0
LINE
  8
0
 10
80.56
 20
-9.89207
 11
80.15
 21
-9.72224
  0
LINE
  8
0
 10
80.15
 20
-9.72224
 11
79.7979
 21
-9.45208
  0
LINE
  8
0
 10
79.7979
 20
-9.45208
 11
79.5278
 21
-9.1
  0
LINE
  8
0
 10
79.5278
 20
-9.1
 11
79.3579
 21
-8.68999
  0
LINE
  8
0
 10
79.3579
 20
-8.68999
 11
79.3
 21
-8.25
  0
LINE
  8
0
 10
79.3
 20
111.75
 11
79.3579
 21
112.19
  0
LINE
  8
0
 10
79.3579
 20
112.19
 11
79.5278
 21
112.6
  0
LINE
  8
0
 10
79.5278
 20
112.6
 11
79.7979
 21
112.952
  0
LINE
  8
0
 10
79.7979
 20
112.952
 11
80.15
 21
113.222
  0
LINE
  8
0
 10
80.15
 20
113.222
 11
80.56
 21
113.392
  0
LINE
  8
0
 10
80.56
 20
113.392
 11
81
 21
113.45
  0
LINE
  8
0
 10
81
 20
113.45
 11
81.44
 21
113.392
  0
LINE
  8
0
 10
81.44
 20
113.392
 11
81.85
 21
113.222
  0
LINE
  8
0
 10
81.85
 20
113.222
 11
82.2021
 21
112.952
  0
LINE
  8
0
 10
82.2021
 20
112.952
 11
82.4722
 21
112.6
  0
LINE
  8
0
 10
82.4722
 20
112.6
 11
82.6421
 21
112.19
  0
LINE
  8
0
 10
82.6421
 20
112.19
 11
82.7
 21
111.75
  0
LINE
  8
0
 10
82.7
 20
111.75
 11
82.6421
 21
111.31
  0
LINE
  8
0
 10
82.6421
 20
111.31
 11
82.4722
 21
110.9
  0
LINE
  8
0
 10
82.4722
 20
110.9
 11
82.2021
 21
110.548
  0
LINE
  8
0
 10
82.2021
 20
110.548
 11
81.85
 21
110.278
  0
LINE
  8
0
 10
81.85
 20
110.278
 11
81.44
 21
110.108
  0
LINE
  8
0
 10
81.44
 20
110.108
 11
81
 21
110.05
  0
LINE
  8
0
 10
81
 20
110.05
 11
80.56
 21
110.108
  0
LINE
  8
0
 10
80.56
 20
110.108
 11
80.15
 21
110.278
  0
LINE
  8
0
 10
80.15
 20
110.278
 11
79.7979
 21
110.548
  0
LINE
  8
0
 10
79.7979
 20
110.548
 11
79.5278
 21
110.9
  0
LINE
  8
0
 10
79.5278
 20
110.9
 11
79.3579
 21
111.31
  0
LINE
  8
0
 10
79.3579
 20
111.31
 11
79.3
 21
111.75
  0
ENDSEC
  0
SECTION
  2
OBJECTS
  0
DICTIONARY
  0
ENDSEC
  0
EOF
